<!DOCTYPE svg>
<svg xmlns="http://www.w3.org/2000/svg" xmlns:xlink="http://www.w3.org/1999/xlink" width="2000" height="2000">
<g transform="translate(1000.000000,1000.000000)">
<g transform="scale(5,5)">
<path stroke="none" fill="none" id="square1" d="M-234.3 -176.4 L-236 -177.3 L-237.7 -178.3 L-239.4 -179.2 L-241.1 -180.2 L-242.8 -181.2 L-244.5 -182.1 L-246.2 -183.1 L-247.9 -184 L-249.6 -185 L-251.3 -185.9 L-253 -186.9 L-254.7 -187.9 L-256.4 -188.8 L-258.1 -189.8 L-259.8 -190.7 L-261.5 -191.7 L-263.2 -192.7 L-264.9 -193.6 L-266.6 -194.6 L-265.6 -196.3 L-264.7 -198 L-263.7 -199.7 L-262.7 -201.4 L-261.8 -203.1 L-260.8 -204.8 L-259.9 -206.4 L-258.9 -208.1 L-257.9 -209.8 L-257 -211.5 L-256 -213.2 L-255.1 -214.9 L-254.1 -216.6 L-253.2 -218.3 L-252.2 -220 L-251.2 -221.7 L-250.3 -223.4 L-249.3 -225.1 L-248.4 -226.8 L-246.7 -225.8 L-245 -224.9 L-243.3 -223.9 L-241.6 -223 L-239.9 -222 L-238.2 -221.1 L-236.5 -220.1 L-234.8 -219.1 L-233.1 -218.2 L-231.4 -217.2 L-229.7 -216.3 L-228 -215.3 L-226.3 -214.3 L-224.6 -213.4 L-222.9 -212.4 L-221.2 -211.5 L-219.5 -210.5 L-217.8 -209.5 L-216.1 -208.6 L-217.1 -206.9 L-218 -205.2 L-219 -203.5 L-220 -201.8 L-220.9 -200.1 L-221.9 -198.4 L-222.8 -196.7 L-223.8 -195 L-224.8 -193.3 L-225.7 -191.6 L-226.7 -189.9 L-227.6 -188.2 L-228.6 -186.5 L-229.6 -184.8 L-230.5 -183.1 L-231.5 -181.4 L-232.4 -179.8 L-233.4 -178.1 L-234.3 -176.4 Z " />
<path stroke="rgb(255,250,159)" stroke-opacity="1" fill="rgb(255,250,159)" fill-opacity="1" id="square2" d="M38.59 -23.85 L37.18 -22.5 L35.77 -21.16 L34.36 -19.81 L32.95 -18.46 L31.54 -17.12 L30.13 -15.77 L28.72 -14.43 L27.31 -13.08 L25.9 -11.73 L24.48 -10.39 L23.07 -9.042 L21.66 -7.696 L20.25 -6.35 L18.84 -5.004 L17.43 -3.658 L16.02 -2.312 L14.61 -0.9664 L13.2 0.3795 L11.79 1.725 L10.44 0.3144 L9.094 -1.096 L7.748 -2.507 L6.402 -3.918 L5.057 -5.329 L3.711 -6.74 L2.365 -8.151 L1.019 -9.562 L-0.3271 -10.97 L-1.673 -12.38 L-3.019 -13.79 L-4.365 -15.21 L-5.711 -16.62 L-7.057 -18.03 L-8.403 -19.44 L-9.748 -20.85 L-11.09 -22.26 L-12.44 -23.67 L-13.79 -25.08 L-12.38 -26.43 L-10.96 -27.77 L-9.553 -29.12 L-8.142 -30.47 L-6.731 -31.81 L-5.321 -33.16 L-3.91 -34.5 L-2.499 -35.85 L-1.088 -37.2 L0.3232 -38.54 L1.734 -39.89 L3.145 -41.23 L4.556 -42.58 L5.967 -43.93 L7.378 -45.27 L8.789 -46.62 L10.2 -47.96 L11.61 -49.31 L13.02 -50.65 L14.37 -49.24 L15.71 -47.83 L17.06 -46.42 L18.41 -45.01 L19.75 -43.6 L21.1 -42.19 L22.44 -40.78 L23.79 -39.37 L25.13 -37.96 L26.48 -36.55 L27.83 -35.13 L29.17 -33.72 L30.52 -32.31 L31.86 -30.9 L33.21 -29.49 L34.56 -28.08 L35.9 -26.67 L37.25 -25.26 L38.59 -23.85 Z " />
<path stroke="rgb(255,250,159)" stroke-opacity="1" fill="rgb(255,250,159)" fill-opacity="1" id="square3" d="M-10.2 -244.5 L-8.247 -244.5 L-6.295 -244.5 L-4.342 -244.5 L-2.389 -244.5 L-0.4368 -244.5 L1.516 -244.5 L3.468 -244.5 L5.421 -244.5 L7.374 -244.5 L9.326 -244.5 L11.28 -244.5 L13.23 -244.5 L15.18 -244.5 L17.14 -244.5 L19.09 -244.5 L21.04 -244.5 L22.99 -244.5 L24.95 -244.5 L26.9 -244.5 L26.9 -242.5 L26.9 -240.6 L26.9 -238.6 L26.9 -236.7 L26.9 -234.7 L26.9 -232.8 L26.9 -230.8 L26.9 -228.9 L26.9 -226.9 L26.9 -225 L26.9 -223 L26.9 -221.1 L26.9 -219.1 L26.9 -217.2 L26.9 -215.2 L26.9 -213.3 L26.9 -211.3 L26.9 -209.4 L26.9 -207.4 L24.95 -207.4 L22.99 -207.4 L21.04 -207.4 L19.09 -207.4 L17.14 -207.4 L15.18 -207.4 L13.23 -207.4 L11.28 -207.4 L9.326 -207.4 L7.374 -207.4 L5.421 -207.4 L3.468 -207.4 L1.516 -207.4 L-0.4368 -207.4 L-2.389 -207.4 L-4.342 -207.4 L-6.295 -207.4 L-8.247 -207.4 L-10.2 -207.4 L-10.2 -209.4 L-10.2 -211.3 L-10.2 -213.3 L-10.2 -215.2 L-10.2 -217.2 L-10.2 -219.1 L-10.2 -221.1 L-10.2 -223 L-10.2 -225 L-10.2 -226.9 L-10.2 -228.9 L-10.2 -230.8 L-10.2 -232.8 L-10.2 -234.7 L-10.2 -236.7 L-10.2 -238.6 L-10.2 -240.6 L-10.2 -242.5 L-10.2 -244.5 Z " />
<path stroke="rgb(244,227,211)" stroke-opacity="1" fill="rgb(244,227,211)" fill-opacity="1" id="container" d="M82.5 85.2 L82.47 87.3 L82.4 89.38 L82.27 91.45 L82.09 93.51 L81.86 95.55 L81.58 97.57 L81.25 99.58 L80.87 101.6 L80.45 103.6 L79.98 105.5 L79.46 107.5 L78.9 109.4 L78.29 111.3 L77.64 113.2 L76.95 115 L76.21 116.9 L75.43 118.7 L74.6 120.5 L73.74 122.2 L72.83 124 L71.89 125.7 L70.9 127.4 L69.88 129.1 L68.82 130.7 L67.72 132.3 L66.58 133.9 L65.41 135.5 L64.2 137 L62.96 138.5 L61.68 140 L60.37 141.4 L59.02 142.8 L57.64 144.2 L56.23 145.6 L54.79 146.9 L53.32 148.2 L51.82 149.4 L50.28 150.6 L48.72 151.8 L47.13 152.9 L45.52 154 L43.87 155.1 L42.2 156.1 L40.51 157.1 L38.78 158 L37.04 158.9 L35.27 159.8 L33.47 160.6 L31.66 161.4 L29.82 162.1 L27.96 162.8 L26.08 163.5 L24.17 164.1 L22.25 164.7 L20.31 165.2 L18.36 165.7 L16.38 166.1 L14.39 166.5 L12.37 166.8 L10.35 167.1 L8.307 167.3 L6.251 167.5 L4.181 167.6 L2.097 167.7 L0 167.7 L-2.097 167.7 L-4.181 167.6 L-6.251 167.5 L-8.307 167.3 L-10.35 167.1 L-12.37 166.8 L-14.38 166.5 L-16.38 166.1 L-18.36 165.7 L-20.31 165.2 L-22.25 164.7 L-24.17 164.1 L-26.08 163.5 L-27.96 162.8 L-29.82 162.1 L-31.66 161.4 L-33.47 160.6 L-35.27 159.8 L-37.04 158.9 L-38.78 158 L-40.51 157.1 L-42.2 156.1 L-43.87 155.1 L-45.52 154 L-47.13 152.9 L-48.72 151.8 L-50.28 150.6 L-51.82 149.4 L-53.32 148.2 L-54.79 146.9 L-56.23 145.6 L-57.64 144.2 L-59.02 142.8 L-60.37 141.4 L-61.68 140 L-62.96 138.5 L-64.2 137 L-65.41 135.5 L-66.58 133.9 L-67.72 132.3 L-68.82 130.7 L-69.88 129.1 L-70.9 127.4 L-71.89 125.7 L-72.83 124 L-73.74 122.2 L-74.6 120.5 L-75.43 118.7 L-76.21 116.9 L-76.95 115 L-77.64 113.2 L-78.29 111.3 L-78.9 109.4 L-79.46 107.5 L-79.98 105.5 L-80.45 103.6 L-80.87 101.6 L-81.25 99.58 L-81.58 97.57 L-81.86 95.55 L-82.09 93.51 L-82.27 91.45 L-82.4 89.38 L-82.47 87.3 L-82.5 85.2 L-82.47 83.1 L-82.4 81.02 L-82.27 78.95 L-82.09 76.89 L-81.86 74.85 L-81.58 72.83 L-81.25 70.81 L-80.87 68.82 L-80.45 66.84 L-79.98 64.89 L-79.46 62.95 L-78.9 61.03 L-78.29 59.12 L-77.64 57.24 L-76.95 55.38 L-76.21 53.54 L-75.43 51.73 L-74.6 49.93 L-73.74 48.16 L-72.83 46.42 L-71.89 44.69 L-70.9 43 L-69.88 41.33 L-68.82 39.68 L-67.72 38.07 L-66.58 36.48 L-65.41 34.92 L-64.2 33.38 L-62.96 31.88 L-61.68 30.41 L-60.37 28.97 L-59.02 27.56 L-57.64 26.18 L-56.23 24.83 L-54.79 23.52 L-53.32 22.24 L-51.82 21 L-50.28 19.79 L-48.72 18.62 L-47.13 17.48 L-45.52 16.38 L-43.87 15.32 L-42.2 14.3 L-40.51 13.31 L-38.78 12.37 L-37.04 11.46 L-35.27 10.6 L-33.47 9.773 L-31.66 8.992 L-29.82 8.253 L-27.96 7.558 L-26.08 6.906 L-24.17 6.299 L-22.25 5.736 L-20.31 5.22 L-18.36 4.749 L-16.38 4.326 L-14.38 3.95 L-12.37 3.622 L-10.35 3.343 L-8.307 3.113 L-6.251 2.933 L-4.181 2.804 L-2.097 2.726 L0 2.7 L2.097 2.726 L4.181 2.804 L6.251 2.933 L8.307 3.113 L10.35 3.343 L12.37 3.622 L14.39 3.95 L16.38 4.326 L18.36 4.749 L20.31 5.22 L22.25 5.736 L24.17 6.299 L26.08 6.906 L27.96 7.558 L29.82 8.253 L31.66 8.992 L33.47 9.773 L35.27 10.6 L37.04 11.46 L38.78 12.37 L40.51 13.31 L42.2 14.3 L43.87 15.32 L45.52 16.38 L47.13 17.48 L48.72 18.62 L50.28 19.79 L51.82 21 L53.32 22.24 L54.79 23.52 L56.23 24.83 L57.64 26.18 L59.02 27.56 L60.37 28.97 L61.68 30.41 L62.96 31.88 L64.2 33.38 L65.41 34.92 L66.58 36.48 L67.72 38.07 L68.82 39.68 L69.88 41.33 L70.9 43 L71.89 44.69 L72.83 46.42 L73.74 48.16 L74.6 49.93 L75.43 51.73 L76.21 53.54 L76.95 55.38 L77.64 57.24 L78.29 59.12 L78.9 61.03 L79.46 62.95 L79.98 64.89 L80.45 66.84 L80.87 68.82 L81.25 70.81 L81.58 72.83 L81.86 74.85 L82.09 76.89 L82.27 78.95 L82.4 81.02 L82.47 83.1 L82.5 85.2 Z " />
<path stroke="rgb(245,172,181)" stroke-opacity="1" fill="rgb(245,172,181)" fill-opacity="1" id="crack1" d="M9.5 43.4 L10.2 41.4 L10.9 39.4 L10.8 37.51 L10.7 35.63 L10.6 33.74 L10.5 31.86 L10.4 29.97 L10.3 28.09 L10.2 26.2 L9.9 23.6 L7.633 23.23 L5.367 22.87 L3.1 22.5 L2.97 20.53 L2.84 18.56 L2.71 16.59 L2.58 14.62 L2.45 12.65 L2.32 10.68 L2.19 8.71 L2.06 6.74 L1.93 4.77 L1.8 2.8 L0 2.8 L0.1273 4.736 L0.2545 6.673 L0.3818 8.609 L0.5091 10.55 L0.6364 12.48 L0.7636 14.42 L0.8909 16.35 L1.018 18.29 L1.145 20.23 L1.273 22.16 L1.4 24.1 L3.567 24.47 L5.733 24.83 L7.9 25.2 L8.043 27.21 L8.186 29.23 L8.329 31.24 L8.471 33.26 L8.614 35.27 L8.757 37.29 L8.9 39.3 L8.35 41.15 L7.8 43 L9.5 43.4 Z " />
<path stroke="rgb(245,172,181)" stroke-opacity="1" fill="rgb(245,172,181)" fill-opacity="1" id="crack2" d="M1.8 56 L2.588 57.92 L3.375 59.85 L4.163 61.77 L4.95 63.7 L5.738 65.62 L6.525 67.55 L7.313 69.48 L8.1 71.4 L6.35 72.75 L4.6 74.1 L2.85 75.45 L1.1 76.8 L2.3 78.7 L4.02 77.4 L5.74 76.1 L7.46 74.8 L9.18 73.5 L10.9 72.2 L10.14 70.43 L9.389 68.67 L8.633 66.9 L7.878 65.13 L7.122 63.37 L6.367 61.6 L5.611 59.83 L4.856 58.07 L4.1 56.3 L4.871 54.46 L5.643 52.61 L6.414 50.77 L7.186 48.93 L7.957 47.09 L8.729 45.24 L9.5 43.4 L7.8 43 L6.943 44.96 L6.086 46.91 L5.229 48.87 L4.371 50.83 L3.514 52.79 L2.657 54.74 L1.8 56.7 L1.8 56 Z " />
<path stroke="rgb(245,172,181)" stroke-opacity="0.744" fill="rgb(245,172,181)" fill-opacity="0.744" id="crack4" d="M1.9 104 L1.725 102.1 L1.55 100.2 L1.375 98.23 L1.2 96.3 L-0.08749 94.9 L-1.375 93.5 L-2.662 92.1 L-3.95 90.7 L-5.237 89.3 L-6.525 87.9 L-7.812 86.5 L-9.1 85.1 L-7.6 83.86 L-6.1 82.62 L-4.6 81.38 L-3.1 80.13 L-1.6 78.89 L-0.09998 77.65 L1.4 76.4 L2.5 78.6 L1 79.69 L-0.5 80.77 L-2 81.85 L-3.5 82.94 L-5 84.02 L-6.5 85.1 L-5.143 86.53 L-3.786 87.96 L-2.429 89.39 L-1.071 90.82 L0.2857 92.25 L1.643 93.68 L3 95.1 L3.35 97.23 L3.7 99.35 L4.05 101.5 L4.4 103.6 L1.9 104 Z " />
<path stroke="none" fill="none" id="crack3" d="M10.9 166.9 L9.5 165.4 L8.1 163.8 L6.7 162.3 L6.175 160.5 L5.65 158.7 L5.125 156.9 L4.6 155.1 L3.338 153.4 L2.075 151.8 L0.8125 150.1 L-0.45 148.5 L-1.712 146.8 L-2.975 145.2 L-4.237 143.5 L-5.5 141.9 L-4.05 140.6 L-2.6 139.3 L-1.15 137.9 L0.3 136.6 L1.75 135.3 L3.2 133.9 L4.65 132.6 L6.1 131.3 L5.969 129.2 L5.838 127.2 L5.708 125.1 L5.577 123.1 L5.446 121 L5.315 119 L5.185 116.9 L5.054 114.9 L4.923 112.8 L4.792 110.8 L4.662 108.7 L4.531 106.7 L4.4 104.6 L1.9 105 L2.069 107 L2.238 109 L2.408 110.9 L2.577 112.9 L2.746 114.9 L2.915 116.9 L3.085 118.8 L3.254 120.8 L3.423 122.8 L3.592 124.8 L3.762 126.7 L3.931 128.7 L4.1 130.7 L2.538 132 L0.975 133.4 L-0.5875 134.7 L-2.15 136.1 L-3.712 137.5 L-5.275 138.8 L-6.837 140.2 L-8.4 141.5 L-7.178 143.2 L-5.956 144.8 L-4.733 146.5 L-3.511 148.2 L-2.289 149.8 L-1.067 151.5 L0.1556 153.2 L1.378 154.8 L2.6 156.5 L3.125 158.3 L3.65 160 L4.175 161.8 L4.7 163.5 L5.9 164.8 L7.1 166 L8.3 167.3 L10.9 166.9 Z " />
<path stroke="none" fill="none" id="triA_0-7" d="M-8.94 22.16 L-9.94 21.26 L-8.94 19.26 L-8.94 22.16 Z " />
<path stroke="none" fill="none" id="triA_3" d="M-45.29 19.28 L-43.29 20.28 L-45.39 21.18 L-45.29 19.28 Z " />
<path stroke="none" fill="none" id="triA_1-7" d="M-23.27 19.91 L-21.4 19.82 L-19.52 19.74 L-17.65 19.65 L-15.77 19.56 L-13.9 19.47 L-12.02 19.39 L-10.15 19.3 L-8.272 19.21 L-10.15 18.92 L-12.02 18.64 L-13.9 18.35 L-15.77 18.06 L-17.65 17.77 L-19.52 17.49 L-21.4 17.2 L-23.27 16.91 L-23.27 19.91 Z " />
<path stroke="none" fill="none" id="triA_1-9" d="M-4.89 28.31 L-5.89 26.31 L-4.89 25.31 L-4.89 28.31 Z " />
<path stroke="none" fill="none" id="triA_4-2" d="M-63.79 41.5 L-62.34 41.95 L-60.89 42.4 L-62.34 43.4 L-63.79 44.4 L-63.79 41.5 Z " />
<path stroke="none" fill="none" id="triA_2-8" d="M-32.12 25.22 L-31.12 27.22 L-32.12 28.12 L-32.12 25.22 Z " />
<path stroke="none" fill="none" id="triA_2-9" d="M-32.32 28.12 L-34.32 27.12 L-32.32 26.12 L-32.32 28.12 Z " />
<path stroke="none" fill="none" id="triA_4-6" d="M-63.29 31.6 L-61.29 31.7 L-63.29 33.6 L-63.29 31.6 Z " />
<path stroke="none" fill="none" id="triA_5-4" d="M-79.16 26.19 L-78.16 28.19 L-79.16 29.19 L-79.16 26.19 Z " />
<path stroke="none" fill="none" id="triA_5-5" d="M-70.57 13.11 L-72.47 11.11 L-70.47 11.21 L-70.57 13.11 Z " />
<path stroke="none" fill="none" id="triA_4-8" d="M-57.19 30.6 L-55.39 31.6 L-57.29 33.5 L-57.19 30.6 Z " />
<path stroke="none" fill="none" id="triA_4-9" d="M-54.1 27.82 L-56.1 27.82 L-54.1 25.92 L-54.1 27.82 Z " />
<path stroke="none" fill="none" id="triA_1-16" d="M-6.472 24.01 L-8.347 24.1 L-10.22 24.19 L-12.1 24.27 L-13.97 24.36 L-15.85 24.45 L-17.72 24.54 L-19.6 24.62 L-21.47 24.71 L-19.6 24.87 L-17.72 25.04 L-15.85 25.2 L-13.97 25.36 L-12.1 25.52 L-10.22 25.69 L-8.347 25.85 L-6.472 26.01 L-6.472 24.01 Z " />
<path stroke="none" fill="none" id="triA_1-17" d="M-18.07 18.41 L-20.07 17.41 L-18.07 16.41 L-18.07 18.41 Z " />
<path stroke="none" fill="none" id="triA_3-12" d="M-48.09 35.48 L-46.19 37.48 L-48.19 38.48 L-48.14 36.98 L-48.09 35.48 Z " />
<path stroke="none" fill="none" id="triA_7-5" d="M-47.91 24.49 L-49.81 22.39 L-47.81 21.49 L-47.86 22.99 L-47.91 24.49 Z " />
<path stroke="none" fill="none" id="triA_0-2-3_2_" d="M-13.54 2.257 L-15.04 2.757 L-16.54 3.257 L-13.54 2.257 Z " />
<path stroke="none" fill="none" id="triA_1-2-3" d="M-11.47 42.11 L-9.472 43.01 L-11.57 45.01 L-11.47 42.11 Z " />
<path stroke="none" fill="none" id="triA_0-7-2" d="M-5.04 27.16 L-6.94 26.16 L-4.94 24.16 L-4.99 25.66 L-5.04 27.16 Z " />
<path stroke="none" fill="none" id="triA_3-2-3" d="M-37.59 32.38 L-36.69 33.28 L-37.69 34.28 L-37.59 32.38 Z " />
<path stroke="none" fill="none" id="triA_1-8-2" d="M-21.47 27.01 L-19.57 28.01 L-21.57 29.91 L-21.47 27.01 Z " />
<path stroke="none" fill="none" id="triA_2-6-2" d="M-31.42 21.12 L-29.42 22.12 L-31.42 23.12 L-31.42 21.12 Z " />
<path stroke="none" fill="none" id="triA_4-2-3" d="M-59.29 42.2 L-59.19 39.3 L-58.29 40.3 L-59.29 42.2 Z " />
<path stroke="none" fill="none" id="triA_5-2-2" d="M-64.13 24.88 L-62.13 25.98 L-64.13 26.88 L-64.13 24.88 Z " />
<path stroke="none" fill="none" id="triA_0-13-2" d="M6.205 35.17 L4.205 35.07 L6.205 33.27 L6.205 35.17 Z " />
<path stroke="none" fill="none" id="triA_3-7-2" d="M-33.84 16.72 L-35.84 14.72 L-33.84 14.72 L-33.84 16.72 Z " />
<path stroke="none" fill="none" id="triA_0-14-2" d="M-16.74 5.357 L-14.74 7.357 L-16.74 7.257 L-16.74 5.357 Z " />
<path stroke="none" fill="none" id="triA_0-15-2" d="M-4.74 5.757 L-6.74 3.757 L-4.74 3.757 L-4.74 5.757 Z " />
<path stroke="none" fill="none" id="triA_1-13-2" d="M-14.97 35.71 L-16.97 34.71 L-14.87 33.71 L-14.97 35.71 Z " />
<path stroke="none" fill="none" id="triA_4-7-2" d="M-63.79 30.6 L-65.79 28.6 L-63.79 27.6 L-63.79 30.6 Z " />
<path stroke="none" fill="none" id="triA_1-14-2" d="M-10.07 38.21 L-8.172 39.21 L-9.172 40.21 L-10.07 38.21 Z " />
<path stroke="none" fill="none" id="triA_4-11-2" d="M-54.6 14.62 L-56.5 12.52 L-54.5 11.62 L-54.55 13.12 L-54.6 14.62 Z " />
<path stroke="none" fill="none" id="triA_9-2" d="M-16.58 24.91 L-15.58 25.81 L-17.58 26.71 L-16.58 24.91 Z " />
<path stroke="none" fill="none" id="triA_8-3-2" d="M-29.43 7.872 L-31.33 5.872 L-29.33 4.872 L-29.38 6.372 L-29.43 7.872 Z " />
<path stroke="none" fill="none" id="triA_0-4-3" d="M-6.74 27.96 L-4.74 28.96 L-6.84 29.96 L-6.74 27.96 Z " />
<path stroke="none" fill="none" id="triA_1-2-4" d="M-17.47 7.512 L-15.57 8.512 L-17.47 9.512 L-17.47 7.512 Z " />
<path stroke="none" fill="none" id="triA_2-3-3" d="M-22.12 44.02 L-20.32 46.02 L-22.22 47.02 L-22.17 45.52 L-22.12 44.02 Z " />
<path stroke="none" fill="none" id="triA_2-3-4" d="M-20.52 33.02 L-22.52 33.02 L-20.42 31.12 L-20.52 33.02 Z " />
<path stroke="none" fill="none" id="triA_0-9-3" d="M-4.64 30.76 L-6.09 29.71 L-7.54 28.66 L-6.04 28.21 L-4.54 27.76 L-4.59 29.26 L-4.64 30.76 Z " />
<path stroke="none" fill="none" id="triA_0-10-3" d="M0.9052 10.47 L2.805 11.47 L0.8052 12.37 L0.9052 10.47 Z " />
<path stroke="none" fill="none" id="triA_1-9-3" d="M-5.82 5.762 L-6.82 4.662 L-5.82 3.762 L-5.82 5.762 Z " />
<path stroke="none" fill="none" id="triA_3-4-3" d="M-42.79 15.08 L-39.89 15.08 L-41.39 16.03 L-42.89 16.98 L-42.79 15.08 Z " />
<path stroke="none" fill="none" id="triA_4-3-4" d="M-57.99 15.1 L-59.99 15.1 L-58.89 13.2 L-57.99 15.1 Z " />
<path stroke="none" fill="none" id="triA_1-10-3" d="M-22.87 36.91 L-20.97 37.91 L-22.97 39.91 L-22.92 38.41 L-22.87 36.91 Z " />
<path stroke="none" fill="none" id="triA_0-13-3" d="M-3.44 24.96 L-4.44 23.96 L-3.44 23.06 L-3.44 24.96 Z " />
<path stroke="none" fill="none" id="triA_3-6-3" d="M-36.09 10.98 L-34.09 12.08 L-36.19 13.98 L-36.14 12.48 L-36.09 10.98 Z " />
<path stroke="none" fill="none" id="triA_6-3-3" d="M-68.71 61.27 L-70.61 63.17 L-70.61 60.27 L-68.71 61.27 Z " />
<path stroke="none" fill="none" id="triA_1-12-3" d="M-16.37 31.61 L-16.37 29.71 L-14.37 30.61 L-16.37 31.61 Z " />
<path stroke="none" fill="none" id="triA_2-11-3" d="M-17.17 11.77 L-19.17 10.77 L-17.07 8.769 L-17.12 10.27 L-17.17 11.77 Z " />
<path stroke="none" fill="none" id="triA_3-9-3" d="M-25.61 39.68 L-27.51 38.78 L-25.51 37.78 L-25.61 39.68 Z " />
<path stroke="none" fill="none" id="triA_5-4-3" d="M-70.87 45.51 L-71.87 47.41 L-71.87 45.51 L-70.87 45.51 Z " />
<path stroke="none" fill="none" id="triA_5-5-3" d="M-71.57 29.31 L-72.57 27.31 L-70.57 27.41 L-71.57 29.31 Z " />
<path stroke="none" fill="none" id="triA_6-3-4" d="M-49.52 20.72 L-50.52 19.72 L-49.52 17.82 L-49.52 20.72 Z " />
<path stroke="none" fill="none" id="triA_1-14-3" d="M-13.07 9.612 L-11.07 10.71 L-13.17 11.61 L-13.07 9.612 Z " />
<path stroke="none" fill="none" id="triA_1-15-3" d="M-12.17 12.11 L-14.17 11.21 L-12.17 10.21 L-12.17 12.11 Z " />
<path stroke="none" fill="none" id="triA_6-4-3" d="M-71.47 33.76 L-70.47 34.76 L-71.47 35.76 L-71.47 33.76 Z " />
<path stroke="none" fill="none" id="triA_7-2-4" d="M-39.17 18.37 L-37.17 19.37 L-39.17 20.37 L-39.17 18.37 Z " />
<path stroke="none" fill="none" id="triA_0-18-3" d="M-14.04 3.857 L-12.04 4.957 L-14.04 6.857 L-14.04 5.357 L-14.04 3.857 Z " />
<path stroke="none" fill="none" id="triA_1-16-3" d="M-0.5226 12.93 L1.477 14.03 L-0.5226 14.93 L-0.5226 12.93 Z " />
<path stroke="none" fill="none" id="triA_4-10-3" d="M-60.99 37.7 L-58.99 38.7 L-60.99 39.6 L-60.99 37.7 Z " />
<path stroke="none" fill="none" id="triA_5-8-3" d="M-78.86 51.09 L-76.86 52.19 L-78.86 53.09 L-78.86 51.09 Z " />
<path stroke="none" fill="none" id="triA_4-11-3" d="M-64.89 36.9 L-65.79 35.9 L-64.79 33.9 L-64.84 35.4 L-64.89 36.9 Z " />
<path stroke="none" fill="none" id="triA_5-9-3" d="M-70.07 23.11 L-71.97 21.11 L-69.97 20.11 L-70.02 21.61 L-70.07 23.11 Z " />
<path stroke="none" fill="none" id="triA_6-7-3" d="M-55.02 43.32 L-55.92 41.32 L-55.02 40.32 L-55.02 43.32 Z " />
<path stroke="none" fill="none" id="triA_0-4-4_1_" d="M-0.09483 1.074 L-2.095 1.074 L-0.09483 1.074 Z " />
<path stroke="none" fill="none" id="triA_0-3-5" d="M-12.94 17.66 L-14.94 16.66 L-12.94 15.66 L-12.94 17.66 Z " />
<path stroke="none" fill="none" id="triA_0-8-4" d="M-5.64 16.76 L-3.64 16.76 L-5.64 18.66 L-5.64 16.76 Z " />
<path stroke="none" fill="none" id="triA_4-4-4" d="M-66.79 36.6 L-65.79 38.6 L-66.79 38.6 L-66.79 36.6 Z " />
<path stroke="none" fill="none" id="triA_2-6-4" d="M-30.52 19.62 L-28.52 20.62 L-30.02 21.07 L-31.52 21.52 L-30.52 19.62 Z " />
<path stroke="none" fill="none" id="triA_1-9-4" d="M-13.17 7.212 L-14.17 6.212 L-13.07 4.312 L-13.17 7.212 Z " />
<path stroke="none" fill="none" id="triA_3-4-5" d="M-41.39 26.88 L-40.39 28.88 L-41.39 29.88 L-41.39 26.88 Z " />
<path stroke="none" fill="none" id="triA_4-2-5" d="M-67.89 10.4 L-65.89 11.4 L-67.89 13.3 L-67.89 10.4 Z " />
<path stroke="none" fill="none" id="triA_1-10-4" d="M-10.37 7.112 L-9.472 9.212 L-11.47 10.11 L-10.92 8.612 L-10.37 7.112 Z " />
<path stroke="none" fill="none" id="triA_0-3_1_" d="M-8.74 31.66 L-9.64 30.66 L-8.64 29.66 L-8.74 31.66 Z " />
<path stroke="none" fill="none" id="triA_1-7_1_" d="M-17.27 20.71 L-19.27 19.71 L-17.17 17.71 L-17.22 19.21 L-17.27 20.71 Z " />
<path stroke="none" fill="none" id="triA_1-9_1_" d="M-29.27 12.11 L-30.27 10.11 L-29.27 9.112 L-29.27 12.11 Z " />
<path stroke="none" fill="none" id="triA_4-3_1_" d="M-54.3 21.12 L-56.2 20.22 L-54.2 19.22 L-54.3 21.12 Z " />
<path stroke="none" fill="none" id="triA_2-8_1_" d="M-31.52 33.92 L-30.62 36.02 L-31.62 36.82 L-31.52 33.92 Z " />
<path stroke="none" fill="none" id="triA_2-10_1_" d="M-23.12 30.82 L-21.12 32.82 L-23.12 33.82 L-23.12 30.82 Z " />
<path stroke="none" fill="none" id="triA_3-9_1_" d="M-44.09 31.38 L-45.99 29.48 L-43.99 28.58 L-44.09 31.38 Z " />
<path stroke="none" fill="none" id="triA_1-16_1_" d="M-17.87 4.212 L-15.87 5.212 L-17.87 6.112 L-17.87 4.212 Z " />
<path stroke="none" fill="none" id="triA_1-17_1_" d="M-13.27 32.61 L-15.27 31.51 L-13.17 30.61 L-13.27 32.61 Z " />
<path stroke="none" fill="none" id="triA_3-12_1_" d="M-47.79 37.68 L-45.79 39.78 L-47.79 40.68 L-47.79 37.68 Z " />
<path stroke="none" fill="none" id="triA_5-9_1_" d="M-64.63 41.28 L-66.63 40.18 L-64.63 39.28 L-64.63 41.28 Z " />
<path stroke="none" fill="none" id="triA_7-5_1_" d="M-42.91 33.89 L-44.81 31.79 L-42.81 30.89 L-42.86 32.39 L-42.91 33.89 Z " />
<path stroke="none" fill="none" id="triA_0-2-3_1_" d="M-3.74 28.36 L-2.24 29.36 L-0.74 30.36 L-2.29 30.81 L-3.84 31.26 L-3.74 28.36 Z " />
<path stroke="none" fill="none" id="triA_0-7-2_1_" d="M-5.34 32.06 L-7.34 31.06 L-5.24 29.06 L-5.29 30.56 L-5.34 32.06 Z " />
<path stroke="rgb(245,172,181)" stroke-opacity="1" fill="rgb(245,172,181)" fill-opacity="1" id="triB_0-7_1_" d="M8.437 64.97 L7.437 64.07 L8.437 62.07 L8.437 64.97 Z " />
<path stroke="rgb(245,172,181)" stroke-opacity="1" fill="rgb(245,172,181)" fill-opacity="1" id="triB_3_1_" d="M20.45 64.03 L22.45 65.03 L20.35 65.93 L20.45 64.03 Z " />
<path stroke="rgb(245,172,181)" stroke-opacity="1" fill="rgb(245,172,181)" fill-opacity="1" id="triB_1-7_3_" d="M6.705 65.85 L8.58 65.76 L10.45 65.68 L12.33 65.59 L14.2 65.5 L16.08 65.41 L17.95 65.33 L19.83 65.24 L21.7 65.15 L19.83 64.86 L17.95 64.58 L16.08 64.29 L14.2 64 L12.33 63.71 L10.45 63.43 L8.58 63.14 L6.705 62.85 L6.705 65.85 Z " />
<path stroke="rgb(245,172,181)" stroke-opacity="1" fill="rgb(245,172,181)" fill-opacity="1" id="triB_1-9_3_" d="M22 70.75 L21 68.75 L22 67.75 L22 70.75 Z " />
<path stroke="rgb(245,172,181)" stroke-opacity="1" fill="rgb(245,172,181)" fill-opacity="1" id="triB_4-2_1_" d="M33.21 90.56 L34.66 91.01 L36.11 91.46 L34.66 92.46 L33.21 93.46 L33.21 90.56 Z " />
<path stroke="rgb(245,172,181)" stroke-opacity="1" fill="rgb(245,172,181)" fill-opacity="1" id="triB_2-8_3_" d="M13.66 72.08 L14.66 74.08 L13.66 74.98 L13.66 72.08 Z " />
<path stroke="rgb(245,172,181)" stroke-opacity="1" fill="rgb(245,172,181)" fill-opacity="1" id="triB_2-9_1_" d="M9.857 71.08 L7.857 70.08 L9.857 69.08 L9.857 71.08 Z " />
<path stroke="rgb(245,172,181)" stroke-opacity="1" fill="rgb(245,172,181)" fill-opacity="1" id="triB_4-6_3_" d="M34.81 78.76 L36.81 78.86 L34.81 80.76 L34.81 78.76 Z " />
<path stroke="rgb(245,172,181)" stroke-opacity="1" fill="rgb(245,172,181)" fill-opacity="1" id="triB_5-4_1_" d="M42.77 77.79 L43.77 79.79 L42.77 80.79 L42.77 77.79 Z " />
<path stroke="rgb(245,172,181)" stroke-opacity="1" fill="rgb(245,172,181)" fill-opacity="1" id="triB_5-5_1_" d="M56.56 54.24 L54.66 52.24 L56.66 52.34 L56.56 54.24 Z " />
<path stroke="rgb(245,172,181)" stroke-opacity="1" fill="rgb(245,172,181)" fill-opacity="1" id="triB_4-8_1_" d="M38.71 78.16 L40.51 79.16 L38.61 81.06 L38.71 78.16 Z " />
<path stroke="rgb(245,172,181)" stroke-opacity="1" fill="rgb(245,172,181)" fill-opacity="1" id="triB_4-9_1_" d="M45.33 71.46 L43.33 71.46 L45.33 69.56 L45.33 71.46 Z " />
<path stroke="rgb(245,172,181)" stroke-opacity="1" fill="rgb(245,172,181)" fill-opacity="1" id="triB_1-16_3_" d="M21.9 67.05 L20.03 67.14 L18.15 67.23 L16.28 67.31 L14.4 67.4 L12.53 67.49 L10.65 67.58 L8.78 67.66 L6.905 67.75 L8.78 67.91 L10.65 68.08 L12.53 68.24 L14.4 68.4 L16.28 68.56 L18.15 68.73 L20.03 68.89 L21.9 69.05 L21.9 67.05 Z " />
<path stroke="rgb(245,172,181)" stroke-opacity="1" fill="rgb(245,172,181)" fill-opacity="1" id="triB_1-17_3_" d="M8.624 60.67 L6.624 59.67 L8.624 58.67 L8.624 60.67 Z " />
<path stroke="rgb(245,172,181)" stroke-opacity="1" fill="rgb(245,172,181)" fill-opacity="1" id="triB_3-12_3_" d="M20.99 80.85 L22.89 82.85 L20.89 83.85 L20.94 82.35 L20.99 80.85 Z " />
<path stroke="rgb(245,172,181)" stroke-opacity="1" fill="rgb(245,172,181)" fill-opacity="1" id="triB_7-5_3_" d="M31.16 70.06 L29.26 67.96 L31.26 67.06 L31.21 68.56 L31.16 70.06 Z " />
<path stroke="rgb(245,172,181)" stroke-opacity="1" fill="rgb(245,172,181)" fill-opacity="1" id="triB_0-2-3_4_" d="M8.292 46.2 L6.792 46.7 L5.292 47.2 L8.292 46.2 Z " />
<path stroke="rgb(245,172,181)" stroke-opacity="1" fill="rgb(245,172,181)" fill-opacity="1" id="triB_1-2-3_1_" d="M15.3 87.05 L17.3 87.95 L15.2 89.95 L15.3 87.05 Z " />
<path stroke="rgb(245,172,181)" stroke-opacity="1" fill="rgb(245,172,181)" fill-opacity="1" id="triB_0-7-2_3_" d="M14.44 71.87 L12.54 70.87 L14.54 68.87 L14.49 70.37 L14.44 71.87 Z " />
<path stroke="rgb(245,172,181)" stroke-opacity="1" fill="rgb(245,172,181)" fill-opacity="1" id="triB_3-2-3_1_" d="M31.29 77.25 L32.19 78.15 L31.19 79.15 L31.29 77.25 Z " />
<path stroke="rgb(245,172,181)" stroke-opacity="1" fill="rgb(245,172,181)" fill-opacity="1" id="triB_1-8-2_1_" d="M6.005 71.15 L7.905 72.15 L5.905 74.05 L6.005 71.15 Z " />
<path stroke="rgb(245,172,181)" stroke-opacity="1" fill="rgb(245,172,181)" fill-opacity="1" id="triB_2-6-2_1_" d="M15.36 67.68 L17.36 68.68 L15.36 69.68 L15.36 67.68 Z " />
<path stroke="rgb(245,172,181)" stroke-opacity="1" fill="rgb(245,172,181)" fill-opacity="1" id="triB_4-2-3_1_" d="M38.41 89.56 L38.51 86.66 L39.41 87.66 L38.41 89.56 Z " />
<path stroke="rgb(245,172,181)" stroke-opacity="1" fill="rgb(245,172,181)" fill-opacity="1" id="triB_5-2-2_1_" d="M59.14 65.18 L61.14 66.28 L59.14 67.18 L59.14 65.18 Z " />
<path stroke="rgb(245,172,181)" stroke-opacity="1" fill="rgb(245,172,181)" fill-opacity="1" id="triB_0-13-2_1_" d="M26.94 80.57 L24.94 80.47 L26.94 78.67 L26.94 80.57 Z " />
<path stroke="rgb(245,172,181)" stroke-opacity="1" fill="rgb(245,172,181)" fill-opacity="1" id="triB_3-7-2_1_" d="M33.81 59.98 L31.81 57.98 L33.81 57.98 L33.81 59.98 Z " />
<path stroke="rgb(245,172,181)" stroke-opacity="1" fill="rgb(245,172,181)" fill-opacity="1" id="triB_0-14-2_1_" d="M2.092 50.6 L4.092 52.6 L2.092 52.5 L2.092 50.6 Z " />
<path stroke="rgb(245,172,181)" stroke-opacity="1" fill="rgb(245,172,181)" fill-opacity="1" id="triB_0-15-2_1_" d="M14.39 47.4 L12.39 45.4 L14.39 45.4 L14.39 47.4 Z " />
<path stroke="rgb(245,172,181)" stroke-opacity="1" fill="rgb(245,172,181)" fill-opacity="1" id="triB_1-13-2_1_" d="M14.2 77.95 L12.2 76.95 L14.3 75.95 L14.2 77.95 Z " />
<path stroke="rgb(245,172,181)" stroke-opacity="1" fill="rgb(245,172,181)" fill-opacity="1" id="triB_4-7-2_1_" d="M32.61 80.46 L30.61 78.46 L32.61 77.46 L32.61 80.46 Z " />
<path stroke="rgb(245,172,181)" stroke-opacity="1" fill="rgb(245,172,181)" fill-opacity="1" id="triB_1-14-2_1_" d="M20.8 80.15 L22.7 81.15 L21.7 82.15 L20.8 80.15 Z " />
<path stroke="rgb(245,172,181)" stroke-opacity="1" fill="rgb(245,172,181)" fill-opacity="1" id="triB_4-11-2_1_" d="M43.96 51.33 L42.06 49.23 L44.06 48.33 L44.01 49.83 L43.96 51.33 Z " />
<path stroke="rgb(245,172,181)" stroke-opacity="1" fill="rgb(245,172,181)" fill-opacity="1" id="triB_9-2_1_" d="M17.54 69.67 L18.54 70.57 L16.54 71.47 L17.54 69.67 Z " />
<path stroke="rgb(245,172,181)" stroke-opacity="1" fill="rgb(245,172,181)" fill-opacity="1" id="triB_8-3-2_1_" d="M26.07 52.58 L24.17 50.58 L26.17 49.58 L26.12 51.08 L26.07 52.58 Z " />
<path stroke="rgb(245,172,181)" stroke-opacity="1" fill="rgb(245,172,181)" fill-opacity="1" id="triB_0-4-3_1_" d="M14.84 73.37 L16.84 74.37 L14.74 75.37 L14.84 73.37 Z " />
<path stroke="rgb(245,172,181)" stroke-opacity="1" fill="rgb(245,172,181)" fill-opacity="1" id="triB_1-2-4_1_" d="M9.724 52.27 L11.62 53.27 L9.724 54.27 L9.724 52.27 Z " />
<path stroke="rgb(245,172,181)" stroke-opacity="1" fill="rgb(245,172,181)" fill-opacity="1" id="triB_2-3-3_1_" d="M21.56 89.18 L23.36 91.18 L21.46 92.18 L21.51 90.68 L21.56 89.18 Z " />
<path stroke="rgb(245,172,181)" stroke-opacity="1" fill="rgb(245,172,181)" fill-opacity="1" id="triB_2-3-4_1_" d="M24.76 77.18 L22.76 77.18 L24.86 75.28 L24.76 77.18 Z " />
<path stroke="rgb(245,172,181)" stroke-opacity="1" fill="rgb(245,172,181)" fill-opacity="1" id="triB_0-9-3_1_" d="M13.34 73.47 L11.89 72.42 L10.44 71.37 L11.94 70.92 L13.44 70.47 L13.39 71.97 L13.34 73.47 Z " />
<path stroke="rgb(245,172,181)" stroke-opacity="1" fill="rgb(245,172,181)" fill-opacity="1" id="triB_0-10-3_1_" d="M18.59 53.7 L20.49 54.7 L18.49 55.6 L18.59 53.7 Z " />
<path stroke="rgb(245,172,181)" stroke-opacity="1" fill="rgb(245,172,181)" fill-opacity="1" id="triB_1-9-3_1_" d="M20.82 46.77 L19.82 45.67 L20.82 44.77 L20.82 46.77 Z " />
<path stroke="rgb(245,172,181)" stroke-opacity="1" fill="rgb(245,172,181)" fill-opacity="1" id="triB_3-4-3_1_" d="M24.71 54.88 L27.61 54.88 L26.11 55.83 L24.61 56.78 L24.71 54.88 Z " />
<path stroke="rgb(245,172,181)" stroke-opacity="1" fill="rgb(245,172,181)" fill-opacity="1" id="triB_4-3-4_1_" d="M41.76 53.43 L39.76 53.43 L40.86 51.53 L41.76 53.43 Z " />
<path stroke="rgb(245,172,181)" stroke-opacity="1" fill="rgb(245,172,181)" fill-opacity="1" id="triB_1-10-3_1_" d="M5.405 81.85 L7.305 82.85 L5.305 84.85 L5.355 83.35 L5.405 81.85 Z " />
<path stroke="rgb(245,172,181)" stroke-opacity="1" fill="rgb(245,172,181)" fill-opacity="1" id="triB_0-13-3_1_" d="M16.14 69.77 L15.14 68.77 L16.14 67.87 L16.14 69.77 Z " />
<path stroke="rgb(245,172,181)" stroke-opacity="1" fill="rgb(245,172,181)" fill-opacity="1" id="triB_3-6-3_1_" d="M32.11 53.78 L34.11 54.88 L32.01 56.78 L32.06 55.28 L32.11 53.78 Z " />
<path stroke="rgb(245,172,181)" stroke-opacity="1" fill="rgb(245,172,181)" fill-opacity="1" id="triB_6-3-3_1_" d="M45.01 115.4 L43.11 117.3 L43.11 114.4 L45.01 115.4 Z " />
<path stroke="rgb(245,172,181)" stroke-opacity="1" fill="rgb(245,172,181)" fill-opacity="1" id="triB_1-12-3_1_" d="M10.4 73.65 L10.4 71.75 L12.4 72.65 L10.4 73.65 Z " />
<path stroke="rgb(245,172,181)" stroke-opacity="1" fill="rgb(245,172,181)" fill-opacity="1" id="triB_2-11-3_1_" d="M30 55.1 L28 54.1 L30.1 52.1 L30.05 53.6 L30 55.1 Z " />
<path stroke="rgb(245,172,181)" stroke-opacity="1" fill="rgb(245,172,181)" fill-opacity="1" id="triB_3-9-3_1_" d="M41.59 83.75 L39.69 82.85 L41.69 81.85 L41.59 83.75 Z " />
<path stroke="rgb(245,172,181)" stroke-opacity="1" fill="rgb(245,172,181)" fill-opacity="1" id="triB_5-4-3_1_" d="M50.77 94.79 L51.77 94.79 L50.77 96.69 L50.77 94.79 Z " />
<path stroke="rgb(245,172,181)" stroke-opacity="1" fill="rgb(245,172,181)" fill-opacity="1" id="triB_5-5-3_1_" d="M50.38 76.7 L49.38 74.7 L51.38 74.8 L50.38 76.7 Z " />
<path stroke="rgb(245,172,181)" stroke-opacity="1" fill="rgb(245,172,181)" fill-opacity="1" id="triB_6-3-4_1_" d="M64.73 59.12 L63.73 58.12 L64.73 56.22 L64.73 59.12 Z " />
<path stroke="rgb(245,172,181)" stroke-opacity="1" fill="rgb(245,172,181)" fill-opacity="1" id="triB_1-14-3_1_" d="M15.12 52.37 L17.12 53.47 L15.02 54.37 L15.12 52.37 Z " />
<path stroke="rgb(245,172,181)" stroke-opacity="1" fill="rgb(245,172,181)" fill-opacity="1" id="triB_1-15-3_1_" d="M15.12 53.87 L13.12 52.97 L15.12 51.97 L15.12 53.87 Z " />
<path stroke="rgb(245,172,181)" stroke-opacity="1" fill="rgb(245,172,181)" fill-opacity="1" id="triB_6-4-3_1_" d="M42.81 88.35 L43.81 89.35 L42.81 90.35 L42.81 88.35 Z " />
<path stroke="rgb(245,172,181)" stroke-opacity="1" fill="rgb(245,172,181)" fill-opacity="1" id="triB_7-2-4_1_" d="M45.03 62.54 L47.03 63.54 L45.03 64.54 L45.03 62.54 Z " />
<path stroke="rgb(245,172,181)" stroke-opacity="1" fill="rgb(245,172,181)" fill-opacity="1" id="triB_0-18-3_1_" d="M4.192 50 L6.192 51.1 L4.192 53 L4.192 50 Z " />
<path stroke="rgb(245,172,181)" stroke-opacity="1" fill="rgb(245,172,181)" fill-opacity="1" id="triB_1-16-3_1_" d="M27.92 55.37 L29.92 56.47 L27.92 57.37 L27.92 55.37 Z " />
<path stroke="rgb(245,172,181)" stroke-opacity="1" fill="rgb(245,172,181)" fill-opacity="1" id="triB_4-10-3_1_" d="M35.31 84.06 L37.31 85.06 L35.31 85.96 L35.31 84.06 Z " />
<path stroke="rgb(245,172,181)" stroke-opacity="1" fill="rgb(245,172,181)" fill-opacity="1" id="triB_5-8-3_1_" d="M45.07 101.4 L47.07 102.5 L45.07 103.4 L45.07 101.4 Z " />
<path stroke="rgb(245,172,181)" stroke-opacity="1" fill="rgb(245,172,181)" fill-opacity="1" id="triB_4-11-3_1_" d="M31.41 85.36 L30.51 84.36 L31.51 82.36 L31.46 83.86 L31.41 85.36 Z " />
<path stroke="rgb(245,172,181)" stroke-opacity="1" fill="rgb(245,172,181)" fill-opacity="1" id="triB_5-9-3_1_" d="M54.56 62.14 L52.66 60.14 L54.66 59.14 L54.61 60.64 L54.56 62.14 Z " />
<path stroke="rgb(245,172,181)" stroke-opacity="1" fill="rgb(245,172,181)" fill-opacity="1" id="triB_6-7-3_1_" d="M56.91 93.95 L56.01 91.95 L56.91 90.95 L56.91 93.95 Z " />
<path stroke="rgb(245,172,181)" stroke-opacity="1" fill="rgb(245,172,181)" fill-opacity="1" id="triB_0-4-4_2_" d="M21.99 42.9 L19.99 42.9 L21.99 42.9 Z " />
<path stroke="rgb(245,172,181)" stroke-opacity="1" fill="rgb(245,172,181)" fill-opacity="1" id="triB_0-3-5_1_" d="M8.937 63.37 L6.937 62.37 L8.937 61.37 L8.937 63.37 Z " />
<path stroke="rgb(245,172,181)" stroke-opacity="1" fill="rgb(245,172,181)" fill-opacity="1" id="triB_0-8-4_1_" d="M11.69 59 L13.69 59 L11.69 60.9 L11.69 59 Z " />
<path stroke="rgb(245,172,181)" stroke-opacity="1" fill="rgb(245,172,181)" fill-opacity="1" id="triB_4-4-4_1_" d="M32.61 85.36 L33.61 87.36 L32.61 87.36 L32.61 85.36 Z " />
<path stroke="rgb(245,172,181)" stroke-opacity="1" fill="rgb(245,172,181)" fill-opacity="1" id="triB_2-6-4_1_" d="M12.36 65.58 L14.36 66.58 L12.86 67.03 L11.36 67.48 L12.36 65.58 Z " />
<path stroke="rgb(245,172,181)" stroke-opacity="1" fill="rgb(245,172,181)" fill-opacity="1" id="triB_1-9-4_1_" d="M16.62 51.57 L15.62 50.57 L16.72 48.67 L16.62 51.57 Z " />
<path stroke="rgb(245,172,181)" stroke-opacity="1" fill="rgb(245,172,181)" fill-opacity="1" id="triB_3-4-5_1_" d="M23.79 74.55 L24.79 76.55 L23.79 77.55 L23.79 74.55 Z " />
<path stroke="rgb(245,172,181)" stroke-opacity="1" fill="rgb(245,172,181)" fill-opacity="1" id="triB_4-2-5_1_" d="M33.26 50.13 L35.26 51.13 L33.26 53.03 L33.26 50.13 Z " />
<path stroke="rgb(245,172,181)" stroke-opacity="1" fill="rgb(245,172,181)" fill-opacity="1" id="triB_1-10-4_1_" d="M18.02 50.57 L18.92 52.67 L16.92 53.57 L17.47 52.07 L18.02 50.57 Z " />
<path stroke="rgb(245,172,181)" stroke-opacity="1" fill="rgb(245,172,181)" fill-opacity="1" id="triB_0-3_2_" d="M8.537 76.47 L7.637 75.47 L8.637 74.47 L8.537 76.47 Z " />
<path stroke="rgb(245,172,181)" stroke-opacity="1" fill="rgb(245,172,181)" fill-opacity="1" id="triB_1-7_2_" d="M10.2 65.25 L8.205 64.25 L10.3 62.25 L10.25 63.75 L10.2 65.25 Z " />
<path stroke="rgb(245,172,181)" stroke-opacity="1" fill="rgb(245,172,181)" fill-opacity="1" id="triB_1-9_2_" d="M-0.3324 53.24 L-1.332 51.24 L-0.3324 50.24 L-0.3324 53.24 Z " />
<path stroke="rgb(245,172,181)" stroke-opacity="1" fill="rgb(245,172,181)" fill-opacity="1" id="triB_4-3_2_" d="M44.96 61.83 L43.06 60.93 L45.06 59.93 L44.96 61.83 Z " />
<path stroke="rgb(245,172,181)" stroke-opacity="1" fill="rgb(245,172,181)" fill-opacity="1" id="triB_2-8_2_" d="M12.86 80.48 L13.76 82.58 L12.76 83.38 L12.86 80.48 Z " />
<path stroke="rgb(245,172,181)" stroke-opacity="1" fill="rgb(245,172,181)" fill-opacity="1" id="triB_2-10_3_" d="M22.36 75.88 L24.36 77.88 L22.36 78.88 L22.36 75.88 Z " />
<path stroke="rgb(245,172,181)" stroke-opacity="1" fill="rgb(245,172,181)" fill-opacity="1" id="triB_3-9_2_" d="M23.19 79.25 L21.29 77.35 L23.29 76.45 L23.19 79.25 Z " />
<path stroke="rgb(245,172,181)" stroke-opacity="1" fill="rgb(245,172,181)" fill-opacity="1" id="triB_1-16_2_" d="M8.824 48.07 L10.82 49.07 L8.824 49.97 L8.824 48.07 Z " />
<path stroke="rgb(245,172,181)" stroke-opacity="1" fill="rgb(245,172,181)" fill-opacity="1" id="triB_1-17_2_" d="M17.6 76.45 L15.6 75.35 L17.7 74.45 L17.6 76.45 Z " />
<path stroke="rgb(245,172,181)" stroke-opacity="1" fill="rgb(245,172,181)" fill-opacity="1" id="triB_3-12_2_" d="M18.69 85.05 L20.69 87.15 L18.69 88.05 L18.69 85.05 Z " />
<path stroke="rgb(245,172,181)" stroke-opacity="1" fill="rgb(245,172,181)" fill-opacity="1" id="triB_5-9_2_" d="M57.77 92.49 L55.77 91.39 L57.77 90.49 L57.77 92.49 Z " />
<path stroke="rgb(245,172,181)" stroke-opacity="1" fill="rgb(245,172,181)" fill-opacity="1" id="triB_7-5_2_" d="M39.37 81.38 L37.47 79.28 L39.47 78.38 L39.42 79.88 L39.37 81.38 Z " />
<path stroke="rgb(245,172,181)" stroke-opacity="1" fill="rgb(245,172,181)" fill-opacity="1" id="triB_0-2-3_3_" d="M13.64 73.07 L15.14 74.07 L16.64 75.07 L15.09 75.52 L13.54 75.97 L13.64 73.07 Z " />
<path stroke="rgb(245,172,181)" stroke-opacity="1" fill="rgb(245,172,181)" fill-opacity="1" id="triB_0-7-2_2_" d="M15.44 74.57 L13.44 73.57 L15.54 71.57 L15.49 73.07 L15.44 74.57 Z " />
<path stroke="none" fill="none" id="triC_6-3-3_1_" d="M8.4 100.7 L6.4 102.5 L6.5 99.6 L8.4 100.7 Z " />
<path stroke="none" fill="none" id="triC_0-7_2_" d="M-7.9 129.3 L-8.9 128.4 L-7.8 126.4 L-7.9 129.3 Z " />
<path stroke="none" fill="none" id="triC_3_2_" d="M-9.8 120.3 L-7.8 121.3 L-9.9 122.2 L-9.8 120.3 Z " />
<path stroke="none" fill="none" id="triC_1-7_5_" d="M-15 127.4 L-13.12 127.3 L-11.25 127.2 L-9.375 127.1 L-7.5 127 L-5.625 127 L-3.75 126.9 L-1.875 126.8 L0 126.7 L-1.862 126.4 L-3.725 126.1 L-5.587 125.8 L-7.45 125.5 L-9.312 125.3 L-11.17 125 L-13.04 124.7 L-14.9 124.4 L-14.95 125.9 L-15 127.4 Z " />
<path stroke="none" fill="none" id="triC_1-9_5_" d="M2.6 134.8 L1.6 132.8 L2.6 131.8 L2.6 134.8 Z " />
<path stroke="none" fill="none" id="triC_4-2_2_" d="M-7.3 138.5 L-5.85 139 L-4.4 139.5 L-5.85 140.5 L-7.3 141.4 L-7.3 138.5 Z " />
<path stroke="none" fill="none" id="triC_2-8_5_" d="M-11.5 130.5 L-10.5 132.5 L-11.5 133.4 L-11.5 130.5 Z " />
<path stroke="none" fill="none" id="triC_2-9_2_" d="M-13.4 129.6 L-15.4 128.5 L-13.4 127.6 L-13.4 129.6 Z " />
<path stroke="none" fill="none" id="triC_4-6_5_" d="M-11 129.5 L-9.1 129.6 L-11.1 131.5 L-11 129.5 Z " />
<path stroke="none" fill="none" id="triC_5-4_2_" d="M-12.9 122.8 L-12 124.8 L-13 125.8 L-12.95 124.3 L-12.9 122.8 Z " />
<path stroke="none" fill="none" id="triC_5-5_2_" d="M-5.6 109 L-7.6 107.1 L-5.6 107.1 L-5.6 109 Z " />
<path stroke="none" fill="none" id="triC_4-8_2_" d="M-0.6 126.5 L1.3 127.4 L-0.6 129.4 L-0.6 126.5 Z " />
<path stroke="none" fill="none" id="triC_4-9_2_" d="M1.6 124.1 L-0.4 124 L1.6 122.2 L1.6 124.1 Z " />
<path stroke="none" fill="none" id="triC_1-16_5_" d="M-0.4 127.5 L-2.275 127.6 L-4.15 127.7 L-6.025 127.8 L-7.9 127.8 L-9.775 127.9 L-11.65 128 L-13.52 128.1 L-15.4 128.2 L-13.52 128.4 L-11.65 128.5 L-9.775 128.7 L-7.9 128.8 L-6.025 129 L-4.15 129.2 L-2.275 129.3 L-0.4 129.5 L-0.4 127.5 Z " />
<path stroke="none" fill="none" id="triC_1-17_5_" d="M-10.5 124 L-12.5 123 L-10.5 122 L-10.5 124 Z " />
<path stroke="none" fill="none" id="triC_3-12_5_" d="M-13.9 134.4 L-12 136.4 L-14 137.4 L-13.95 135.9 L-13.9 134.4 Z " />
<path stroke="none" fill="none" id="triC_7-5_5_" d="M-9.4 127.2 L-11.3 125.2 L-9.3 124.2 L-9.35 125.7 L-9.4 127.2 Z " />
<path stroke="none" fill="none" id="triC_0-2-3_6_" d="M-13 109.2 L-14.55 109.6 L-16.1 110.1 L-13 109.2 Z " />
<path stroke="none" fill="none" id="triC_1-2-3_2_" d="M-4.5 146.6 L-2.5 147.5 L-4.6 149.5 L-4.5 146.6 Z " />
<path stroke="none" fill="none" id="triC_0-7-2_5_" d="M-2.8 131.6 L-4.8 130.6 L-2.7 128.6 L-2.75 130.1 L-2.8 131.6 Z " />
<path stroke="none" fill="none" id="triC_3-2-3_2_" d="M-1.2 133.4 L-0.2 134.3 L-1.3 135.3 L-1.2 133.4 Z " />
<path stroke="none" fill="none" id="triC_1-8-2_2_" d="M-14.6 131.6 L-12.7 132.6 L-14.6 134.5 L-14.6 131.6 Z " />
<path stroke="none" fill="none" id="triC_2-6-2_2_" d="M-12.4 126.1 L-10.4 127.1 L-12.4 128.1 L-12.4 126.1 Z " />
<path stroke="none" fill="none" id="triC_4-2-3_2_" d="M-2.8 141.6 L-2.7 138.7 L-1.7 139.7 L-2.8 141.6 Z " />
<path stroke="none" fill="none" id="triC_5-2-2_2_" d="M2 121.5 L4 122.5 L2 123.5 L2 121.5 Z " />
<path stroke="none" fill="none" id="triC_0-13-2_2_" d="M9.4 143.6 L7.4 143.6 L9.4 141.7 L9.4 143.6 Z " />
<path stroke="none" fill="none" id="triC_3-7-2_2_" d="M2.2 115.9 L0.2 113.8 L2.2 113.9 L2.2 115.9 Z " />
<path stroke="none" fill="none" id="triC_0-14-2_2_" d="M-17 110.4 L-15 112.4 L-17 112.3 L-17 110.4 Z " />
<path stroke="none" fill="none" id="triC_0-15-2_2_" d="M-4.2 110.4 L-6.2 108.4 L-4.2 108.4 L-4.2 110.4 Z " />
<path stroke="none" fill="none" id="triC_1-13-2_2_" d="M-6.9 139.3 L-8.9 138.2 L-6.9 137.3 L-6.9 139.3 Z " />
<path stroke="none" fill="none" id="triC_4-7-2_2_" d="M-11.6 130.3 L-13.5 128.3 L-11.5 127.3 L-11.55 128.8 L-11.6 130.3 Z " />
<path stroke="none" fill="none" id="triC_1-14-2_2_" d="M-0.7 142.8 L1.2 143.9 L0.1 144.9 L-0.7 142.8 Z " />
<path stroke="none" fill="none" id="triC_4-11-2_2_" d="M-0.8 110.2 L-2.7 108.2 L-0.7 107.2 L-0.75 108.7 L-0.8 110.2 Z " />
<path stroke="none" fill="none" id="triC_9-2_2_" d="M-8.4 129.7 L-7.4 130.6 L-9.4 131.6 L-8.4 129.7 Z " />
<path stroke="none" fill="none" id="triC_8-3-2_2_" d="M-7.8 109 L-9.7 107 L-7.7 106 L-7.75 107.5 L-7.8 109 Z " />
<path stroke="none" fill="none" id="triC_0-4-3_2_" d="M-6.9 132 L-4.9 133.1 L-6.9 134 L-6.9 132 Z " />
<path stroke="none" fill="none" id="triC_1-2-4_2_" d="M-10.3 115.4 L-8.4 116.5 L-10.3 117.4 L-10.3 115.4 Z " />
<path stroke="none" fill="none" id="triC_2-3-3_2_" d="M-3.6 145.6 L-1.8 147.6 L-3.7 148.6 L-3.65 147.1 L-3.6 145.6 Z " />
<path stroke="none" fill="none" id="triC_2-3-4_2_" d="M-0.4 138.6 L-2.4 138.6 L-0.4 136.7 L-0.4 138.6 Z " />
<path stroke="none" fill="none" id="triC_0-9-3_2_" d="M-4.4 136.1 L-5.85 135 L-7.3 134 L-5.8 133.6 L-4.3 133.1 L-4.35 134.6 L-4.4 136.1 Z " />
<path stroke="none" fill="none" id="triC_0-10-3_2_" d="M5.4 118.5 L7.4 119.6 L5.3 120.4 L5.4 118.5 Z " />
<path stroke="none" fill="none" id="triC_1-9-3_2_" d="M2.3 112.3 L1.3 111.3 L2.3 110.3 L2.3 112.3 Z " />
<path stroke="none" fill="none" id="triC_3-4-3_2_" d="M-8.6 117.5 L-5.7 117.5 L-7.2 118.4 L-8.7 119.4 L-8.6 117.5 Z " />
<path stroke="none" fill="none" id="triC_4-3-4_2_" d="M-2.9 113.5 L-4.9 113.4 L-3.9 111.5 L-2.9 113.5 Z " />
<path stroke="none" fill="none" id="triC_1-10-3_2_" d="M-15.6 142.4 L-13.6 143.5 L-15.7 145.4 L-15.65 143.9 L-15.6 142.4 Z " />
<path stroke="none" fill="none" id="triC_0-13-3_2_" d="M-3.1 133.1 L-4.1 132.2 L-3.1 131.2 L-3.1 133.1 Z " />
<path stroke="none" fill="none" id="triC_3-6-3_2_" d="M-3.3 110 L-1.3 111 L-3.4 113 L-3.35 111.5 L-3.3 110 Z " />
<path stroke="none" fill="none" id="triC_6-3-3_2_" d="M-11.6 159.1 L-13.6 161 L-13.5 158.1 L-11.6 159.1 Z " />
<path stroke="none" fill="none" id="triC_1-12-3_2_" d="M-7.8 135 L-7.7 133.1 L-5.8 134 L-7.8 135 Z " />
<path stroke="none" fill="none" id="triC_2-11-3_2_" d="M2 116.6 L0 115.5 L2.1 113.6 L2.05 115.1 L2 116.6 Z " />
<path stroke="none" fill="none" id="triC_3-9-3_2_" d="M6.9 139.6 L4.9 138.7 L7 137.7 L6.9 139.6 Z " />
<path stroke="none" fill="none" id="triC_5-4-3_2_" d="M-4.1 140.1 L-5.2 142 L-5.1 140.1 L-4.1 140.1 Z " />
<path stroke="none" fill="none" id="triC_5-5-3_2_" d="M-3.7 124.7 L-4.7 122.8 L-2.7 122.9 L-3.7 124.7 Z " />
<path stroke="none" fill="none" id="triC_6-3-4_2_" d="M8.2 119.3 L7.3 118.3 L8.3 116.4 L8.2 119.3 Z " />
<path stroke="none" fill="none" id="triC_1-14-3_2_" d="M-4.6 117.3 L-2.6 118.3 L-4.7 119.3 L-4.6 117.3 Z " />
<path stroke="none" fill="none" id="triC_1-15-3_2_" d="M-4.3 116.1 L-6.3 115.2 L-4.3 114.2 L-4.3 116.1 Z " />
<path stroke="none" fill="none" id="triC_6-4-3_2_" d="M-11.4 130 L-10.4 131 L-11.4 132 L-11.4 130 Z " />
<path stroke="none" fill="none" id="triC_7-2-4_2_" d="M-2.5 118.2 L-0.6 119.3 L-2.6 120.2 L-2.5 118.2 Z " />
<path stroke="none" fill="none" id="triC_0-18-3_2_" d="M-11.7 112.7 L-9.7 113.8 L-11.7 115.7 L-11.7 112.7 Z " />
<path stroke="none" fill="none" id="triC_1-16-3_2_" d="M8.6 116.5 L10.5 117.5 L8.5 118.5 L8.6 116.5 Z " />
<path stroke="none" fill="none" id="triC_4-10-3_2_" d="M-7.8 136.9 L-5.9 137.9 L-7.9 138.8 L-7.8 136.9 Z " />
<path stroke="none" fill="none" id="triC_5-8-3_2_" d="M-10.6 149.3 L-8.6 150.4 L-10.7 151.3 L-10.6 149.3 Z " />
<path stroke="none" fill="none" id="triC_4-11-3_2_" d="M-8.5 132.8 L-9.4 131.8 L-8.4 129.8 L-8.45 131.3 L-8.5 132.8 Z " />
<path stroke="none" fill="none" id="triC_5-9-3_2_" d="M-3.7 118.4 L-5.6 116.4 L-3.6 115.4 L-3.65 116.9 L-3.7 118.4 Z " />
<path stroke="none" fill="none" id="triC_6-7-3_2_" d="M2.9 141 L2.1 139 L3 138 L2.95 139.5 L2.9 141 Z " />
<path stroke="none" fill="none" id="triC_0-4-4_3_" d="M3.8 107.4 L1.8 107.4 L3.8 107.4 Z " />
<path stroke="none" fill="none" id="triC_0-3-5_2_" d="M-11.3 125.8 L-13.2 124.7 L-11.2 123.8 L-11.3 125.8 Z " />
<path stroke="none" fill="none" id="triC_0-8-4_2_" d="M-2.9 125.6 L-0.9 125.6 L-3 127.5 L-2.9 125.6 Z " />
<path stroke="none" fill="none" id="triC_4-4-4_2_" d="M-14 131.9 L-13.1 134 L-14.1 133.9 L-14 131.9 Z " />
<path stroke="none" fill="none" id="triC_2-6-4_2_" d="M-10.7 122.9 L-8.7 123.9 L-10.25 124.4 L-11.8 124.9 L-10.7 122.9 Z " />
<path stroke="none" fill="none" id="triC_1-9-4_2_" d="M-4.1 114.9 L-5.1 113.9 L-4.1 112 L-4.1 114.9 Z " />
<path stroke="none" fill="none" id="triC_3-4-5_2_" d="M-5.4 127.2 L-4.4 129.3 L-5.5 130.2 L-5.45 128.7 L-5.4 127.2 Z " />
<path stroke="none" fill="none" id="triC_4-2-5_2_" d="M-14.2 109.3 L-12.2 110.3 L-14.2 112.2 L-14.2 109.3 Z " />
<path stroke="none" fill="none" id="triC_1-10-4_2_" d="M0.3 112.3 L1.3 114.3 L-0.8 115.3 L-0.25 113.8 L0.3 112.3 Z " />
<path stroke="none" fill="none" id="triC_0-3_3_" d="M-4.1 136.8 L-5.1 135.8 L-4.1 134.8 L-4.1 136.8 Z " />
<path stroke="none" fill="none" id="triC_1-7_4_" d="M-9.2 128.7 L-11.2 127.6 L-9.1 125.7 L-9.15 127.2 L-9.2 128.7 Z " />
<path stroke="none" fill="none" id="triC_1-9_4_" d="M-20.9 115.7 L-21.9 113.7 L-20.9 112.7 L-20.9 115.7 Z " />
<path stroke="none" fill="none" id="triC_4-3_3_" d="M2.7 118 L0.7 117.1 L2.7 116.1 L2.7 118 Z " />
<path stroke="none" fill="none" id="triC_2-8_4_" d="M-14.2 137.9 L-13.3 139.9 L-14.3 140.8 L-14.2 137.9 Z " />
<path stroke="none" fill="none" id="triC_2-10_5_" d="M-1.9 136.6 L0 138.6 L-2 139.6 L-1.95 138.1 L-1.9 136.6 Z " />
<path stroke="none" fill="none" id="triC_3-9_3_" d="M-7.6 131.6 L-9.6 129.7 L-7.6 128.8 L-7.6 131.6 Z " />
<path stroke="none" fill="none" id="triC_1-16_4_" d="M-7.7 108.5 L-5.7 109.5 L-7.7 110.4 L-7.7 108.5 Z " />
<path stroke="none" fill="none" id="triC_1-17_4_" d="M-6.9 137.1 L-8.9 136.1 L-6.9 135.1 L-6.9 137.1 Z " />
<path stroke="none" fill="none" id="triC_3-12_4_" d="M-13.4 140.2 L-11.5 142.3 L-13.5 143.2 L-13.45 141.7 L-13.4 140.2 Z " />
<path stroke="none" fill="none" id="triC_5-9_3_" d="M3.9 135.6 L1.9 134.6 L3.9 133.6 L3.9 135.6 Z " />
<path stroke="none" fill="none" id="triC_7-5_4_" d="M-5.9 132.2 L-7.8 130.2 L-5.8 129.2 L-5.85 130.7 L-5.9 132.2 Z " />
<path stroke="none" fill="none" id="triC_0-2-3_5_" d="M-3.2 137 L-1.7 138 L-0.2 138.9 L-1.75 139.4 L-3.3 139.9 L-3.2 137 Z " />
<path stroke="none" fill="none" id="triC_0-7-2_4_" d="M-3.7 139.6 L-5.7 138.5 L-3.6 136.6 L-3.65 138.1 L-3.7 139.6 Z " />
<path stroke="none" fill="none" id="triC_0-7_3_" d="M-6.6 151.5 L-7.6 150.6 L-6.6 148.6 L-6.6 151.5 Z " />
<path stroke="none" fill="none" id="triC_3_3_" d="M-10.5 140.8 L-8.6 141.8 L-10.6 142.7 L-10.5 140.8 Z " />
<path stroke="none" fill="none" id="triC_1-7_7_" d="M-15.4 146.8 L-13.52 146.7 L-11.65 146.6 L-9.775 146.5 L-7.9 146.4 L-6.025 146.4 L-4.15 146.3 L-2.275 146.2 L-0.4 146.1 L-2.275 145.8 L-4.15 145.5 L-6.025 145.2 L-7.9 144.9 L-9.775 144.7 L-11.65 144.4 L-13.52 144.1 L-15.4 143.8 L-15.4 146.8 Z " />
<path stroke="none" fill="none" id="triC_1-9_7_" d="M4.3 157.6 L3.4 155.6 L4.4 154.6 L4.35 156.1 L4.3 157.6 Z " />
<path stroke="none" fill="none" id="triC_4-2_3_" d="M-10.5 162.5 L-9.05 163 L-7.6 163.5 L-9.05 164.5 L-10.5 165.4 L-10.5 162.5 Z " />
<path stroke="none" fill="none" id="triC_2-8_7_" d="M-11.9 149.4 L-11 151.4 L-12 152.3 L-11.9 149.4 Z " />
<path stroke="none" fill="none" id="triC_2-9_3_" d="M-14.4 152.6 L-16.4 151.5 L-14.4 150.6 L-14.4 152.6 Z " />
<path stroke="none" fill="none" id="triC_4-6_7_" d="M-7.6 154.3 L-5.6 154.3 L-7.6 156.3 L-7.6 154.3 Z " />
<path stroke="none" fill="none" id="triC_5-4_3_" d="M-9.6 142.5 L-8.6 144.5 L-9.6 145.5 L-9.6 142.5 Z " />
<path stroke="none" fill="none" id="triC_5-5_3_" d="M-4.6 131.3 L-6.5 129.4 L-4.5 129.4 L-4.6 131.3 Z " />
<path stroke="none" fill="none" id="triC_4-8_3_" d="M-4.1 151.5 L-2.3 152.5 L-4.2 154.4 L-4.1 151.5 Z " />
<path stroke="none" fill="none" id="triC_4-9_3_" d="M2 148.8 L0 148.8 L2.1 146.9 L2 148.8 Z " />
<path stroke="none" fill="none" id="triC_1-16_7_" d="M4.7 152.2 L2.825 152.3 L0.95 152.4 L-0.925 152.5 L-2.8 152.5 L-4.675 152.6 L-6.55 152.7 L-8.425 152.8 L-10.3 152.9 L-8.425 153.1 L-6.55 153.2 L-4.675 153.4 L-2.8 153.5 L-0.925 153.7 L0.95 153.9 L2.825 154 L4.7 154.2 L4.7 152.2 Z " />
<path stroke="none" fill="none" id="triC_1-17_7_" d="M-9.5 144.8 L-11.5 143.8 L-9.5 142.8 L-9.5 144.8 Z " />
<path stroke="none" fill="none" id="triC_3-12_7_" d="M-14.1 161.4 L-12.1 163.5 L-14.1 164.4 L-14.1 161.4 Z " />
<path stroke="none" fill="none" id="triC_7-5_7_" d="M-8.8 147.3 L-10.8 145.2 L-8.8 144.3 L-8.8 147.3 Z " />
<path stroke="none" fill="none" id="triC_0-2-3_8_" d="M-8.6 129.3 L-10.1 129.7 L-11.6 130.2 L-8.6 129.3 Z " />
<path stroke="none" fill="none" id="triC_1-2-3_3_" d="M-0.6 169.5 L1.4 170.4 L-0.7 172.4 L-0.6 169.5 Z " />
<path stroke="none" fill="none" id="triC_0-7-2_7_" d="M-3.9 156.8 L-5.9 155.7 L-3.8 153.8 L-3.85 155.3 L-3.9 156.8 Z " />
<path stroke="none" fill="none" id="triC_3-2-3_3_" d="M-3.1 158.4 L-2.1 159.3 L-3.1 160.3 L-3.1 158.4 Z " />
<path stroke="none" fill="none" id="triC_1-8-2_3_" d="M-10.1 154.6 L-8.3 155.6 L-10.2 157.5 L-10.1 154.6 Z " />
<path stroke="none" fill="none" id="triC_2-6-2_3_" d="M-10.5 144.7 L-8.5 145.8 L-10.6 146.7 L-10.5 144.7 Z " />
<path stroke="none" fill="none" id="triC_4-2-3_3_" d="M-5.1 161.4 L-5.1 158.5 L-4.1 159.6 L-5.1 161.4 Z " />
<path stroke="none" fill="none" id="triC_5-2-2_3_" d="M0.5 142.3 L2.5 143.3 L0.4 144.3 L0.5 142.3 Z " />
<path stroke="none" fill="none" id="triC_0-13-2_3_" d="M9.4 162.3 L7.4 162.3 L9.5 160.4 L9.4 162.3 Z " />
<path stroke="none" fill="none" id="triC_3-7-2_3_" d="M2.9 141.1 L1 139.1 L3 139.1 L2.9 141.1 Z " />
<path stroke="none" fill="none" id="triC_0-14-2_3_" d="M-12.9 132.7 L-10.9 134.6 L-12.9 134.6 L-12.9 132.7 Z " />
<path stroke="none" fill="none" id="triC_0-15-2_3_" d="M-2 135.1 L-4 133.1 L-2 133.1 L-2 135.1 Z " />
<path stroke="none" fill="none" id="triC_1-13-2_3_" d="M-5.3 163.3 L-7.3 162.2 L-5.3 161.3 L-5.3 163.3 Z " />
<path stroke="none" fill="none" id="triC_4-7-2_3_" d="M-9.5 148.8 L-11.5 146.7 L-9.4 145.8 L-9.45 147.3 L-9.5 148.8 Z " />
<path stroke="none" fill="none" id="triC_1-14-2_3_" d="M0.8 166.7 L2.7 167.8 L1.6 168.7 L0.8 166.7 Z " />
<path stroke="none" fill="none" id="triC_4-11-2_3_" d="M-0.9 133.9 L-2.8 131.8 L-0.8 130.9 L-0.85 132.4 L-0.9 133.9 Z " />
<path stroke="none" fill="none" id="triC_9-2_3_" d="M-5.7 153.9 L-4.7 154.8 L-6.8 155.8 L-5.7 153.9 Z " />
<path stroke="none" fill="none" id="triC_8-3-2_3_" d="M-7.3 132.8 L-9.2 130.8 L-7.2 129.8 L-7.25 131.3 L-7.3 132.8 Z " />
<path stroke="none" fill="none" id="triC_0-4-3_3_" d="M-5.2 155.6 L-3.2 156.6 L-5.2 157.6 L-5.2 155.6 Z " />
<path stroke="none" fill="none" id="triC_1-2-4_3_" d="M-6.6 136.5 L-4.7 137.5 L-6.7 138.5 L-6.6 136.5 Z " />
<path stroke="none" fill="none" id="triC_2-3-3_3_" d="M-3.3 168.9 L-1.5 171 L-3.4 171.9 L-3.35 170.4 L-3.3 168.9 Z " />
<path stroke="none" fill="none" id="triC_2-3-4_3_" d="M0 158.9 L-2 158.8 L0.1 157 L0 158.9 Z " />
<path stroke="none" fill="none" id="triC_0-9-3_3_" d="M-2.4 158.9 L-3.9 157.8 L-5.4 156.8 L-3.85 156.3 L-2.3 155.9 L-2.35 157.4 L-2.4 158.9 Z " />
<path stroke="none" fill="none" id="triC_0-10-3_3_" d="M5.3 139.2 L7.3 140.2 L5.3 141.1 L5.3 139.2 Z " />
<path stroke="none" fill="none" id="triC_1-9-3_3_" d="M5.2 134 L4.2 133 L5.3 132 L5.2 134 Z " />
<path stroke="none" fill="none" id="triC_3-4-3_3_" d="M-8.7 140 L-5.8 140 L-7.25 141 L-8.7 141.9 L-8.7 140 Z " />
<path stroke="none" fill="none" id="triC_4-3-4_3_" d="M-4.6 134.9 L-6.6 134.8 L-5.6 133 L-4.6 134.9 Z " />
<path stroke="none" fill="none" id="triC_1-10-3_3_" d="M-15.4 163 L-13.4 164.1 L-15.4 166 L-15.4 163 Z " />
<path stroke="none" fill="none" id="triC_0-13-3_3_" d="M0.6 155.7 L-0.4 154.8 L0.6 153.8 L0.6 155.7 Z " />
<path stroke="none" fill="none" id="triC_3-6-3_3_" d="M-0.8 134.3 L1.2 135.3 L-0.8 137.3 L-0.8 134.3 Z " />
<path stroke="none" fill="none" id="triC_6-3-3_3_" d="M-10 179 L-12 180.8 L-11.9 177.9 L-10 179 Z " />
<path stroke="none" fill="none" id="triC_1-12-3_3_" d="M-8 157.9 L-7.9 156 L-5.9 156.9 L-8 157.9 Z " />
<path stroke="none" fill="none" id="triC_2-11-3_3_" d="M0.8 137.1 L-1.2 136 L0.9 134.1 L0.85 135.6 L0.8 137.1 Z " />
<path stroke="none" fill="none" id="triC_3-9-3_3_" d="M9.7 162.2 L7.7 161.3 L9.7 160.3 L9.7 162.2 Z " />
<path stroke="none" fill="none" id="triC_5-4-3_3_" d="M-3.8 163 L-4.8 164.9 L-4.8 163 L-3.8 163 Z " />
<path stroke="none" fill="none" id="triC_5-5-3_3_" d="M-4.9 146.6 L-5.9 144.7 L-3.9 144.7 L-4.9 146.6 Z " />
<path stroke="none" fill="none" id="triC_6-3-4_3_" d="M10.8 140.9 L9.8 139.9 L10.9 138 L10.8 140.9 Z " />
<path stroke="none" fill="none" id="triC_1-14-3_3_" d="M-4.9 138.1 L-2.9 139.1 L-4.9 140.1 L-4.9 138.1 Z " />
<path stroke="none" fill="none" id="triC_1-15-3_3_" d="M-4.1 139.9 L-6.1 139 L-4.1 138 L-4.1 139.9 Z " />
<path stroke="none" fill="none" id="triC_6-4-3_3_" d="M-10.9 151.3 L-10 152.3 L-11 153.3 L-10.9 151.3 Z " />
<path stroke="none" fill="none" id="triC_7-2-4_3_" d="M1.9 138.9 L3.9 139.9 L1.9 140.9 L1.9 138.9 Z " />
<path stroke="none" fill="none" id="triC_0-18-3_3_" d="M-13.7 131.6 L-11.7 132.6 L-13.8 134.6 L-13.75 133.1 L-13.7 131.6 Z " />
<path stroke="none" fill="none" id="triC_1-16-3_3_" d="M7 139.2 L9 140.2 L7 141.2 L7 139.2 Z " />
<path stroke="none" fill="none" id="triC_4-10-3_3_" d="M-3.5 159.4 L-1.5 160.3 L-3.5 161.3 L-3.5 159.4 Z " />
<path stroke="none" fill="none" id="triC_5-8-3_3_" d="M-9.8 171.3 L-7.8 172.4 L-9.8 173.3 L-9.8 171.3 Z " />
<path stroke="none" fill="none" id="triC_4-11-3_3_" d="M-10.4 156.5 L-11.3 155.4 L-10.4 153.5 L-10.4 156.5 Z " />
<path stroke="none" fill="none" id="triC_5-9-3_3_" d="M-4.9 139.6 L-6.8 137.5 L-4.8 136.6 L-4.85 138.1 L-4.9 139.6 Z " />
<path stroke="none" fill="none" id="triC_6-7-3_3_" d="M3 162.6 L2.2 160.6 L3.1 159.6 L3.05 161.1 L3 162.6 Z " />
<path stroke="none" fill="none" id="triC_0-4-4_4_" d="M1.1 128.7 L-0.9 128.7 L1.1 128.7 Z " />
<path stroke="none" fill="none" id="triC_0-3-5_3_" d="M-8.5 144.9 L-10.5 143.9 L-8.5 142.9 L-8.5 144.9 Z " />
<path stroke="none" fill="none" id="triC_0-8-4_3_" d="M-2.4 145.9 L-0.4 145.9 L-2.5 147.8 L-2.4 145.9 Z " />
<path stroke="none" fill="none" id="triC_4-4-4_3_" d="M-14.1 154.7 L-13.1 156.7 L-14.1 156.7 L-14.1 154.7 Z " />
<path stroke="none" fill="none" id="triC_2-6-4_3_" d="M-10.1 144.5 L-8.1 145.6 L-9.6 146 L-11.1 146.5 L-10.1 144.5 Z " />
<path stroke="none" fill="none" id="triC_1-9-4_3_" d="M-1.7 136.1 L-2.7 135.1 L-1.7 133.2 L-1.7 136.1 Z " />
<path stroke="none" fill="none" id="triC_3-4-5_3_" d="M-7.3 147.9 L-6.3 149.9 L-7.4 150.9 L-7.35 149.4 L-7.3 147.9 Z " />
<path stroke="none" fill="none" id="triC_4-2-5_3_" d="M-11.6 129.4 L-9.6 130.5 L-11.7 132.3 L-11.6 129.4 Z " />
<path stroke="none" fill="none" id="triC_1-10-4_3_" d="M1 137.5 L1.9 139.5 L-0.09998 140.4 L0.45 139 L1 137.5 Z " />
<path stroke="none" fill="none" id="triC_0-3_4_" d="M-8.1 160 L-9.1 159 L-8.1 158 L-8.1 160 Z " />
<path stroke="none" fill="none" id="triC_1-7_6_" d="M-8.1 148.8 L-10 147.8 L-8 145.8 L-8.05 147.3 L-8.1 148.8 Z " />
<path stroke="none" fill="none" id="triC_1-9_6_" d="M-19.9 142 L-20.8 140 L-19.8 139 L-19.85 140.5 L-19.9 142 Z " />
<path stroke="none" fill="none" id="triC_4-3_4_" d="M0.2 142.4 L-1.8 141.4 L0.2 140.5 L0.2 142.4 Z " />
<path stroke="none" fill="none" id="triC_2-8_6_" d="M-12.5 158.9 L-11.5 160.9 L-12.5 161.8 L-12.5 158.9 Z " />
<path stroke="none" fill="none" id="triC_2-10_7_" d="M-3.6 155.2 L-1.6 157.3 L-3.6 158.2 L-3.6 155.2 Z " />
<path stroke="none" fill="none" id="triC_3-9_4_" d="M-9.1 155.2 L-11 153.3 L-9 152.4 L-9.1 155.2 Z " />
<path stroke="none" fill="none" id="triC_1-16_6_" d="M-9.6 131.3 L-7.6 132.4 L-9.6 133.2 L-9.6 131.3 Z " />
<path stroke="none" fill="none" id="triC_1-17_6_" d="M-4.5 158.7 L-6.5 157.7 L-4.4 156.7 L-4.5 158.7 Z " />
<path stroke="none" fill="none" id="triC_3-12_6_" d="M-12.3 160 L-10.4 162 L-12.4 163 L-12.35 161.5 L-12.3 160 Z " />
<path stroke="none" fill="none" id="triC_5-9_4_" d="M4.2 161 L2.2 159.9 L4.3 159 L4.2 161 Z " />
<path stroke="none" fill="none" id="triC_7-5_6_" d="M-1.8 157.2 L-3.7 155.1 L-1.7 154.2 L-1.75 155.7 L-1.8 157.2 Z " />
<path stroke="none" fill="none" id="triC_0-2-3_7_" d="M1.2 155.8 L2.7 156.8 L4.2 157.8 L2.7 158.2 L1.2 158.7 L1.2 155.8 Z " />
<path stroke="none" fill="none" id="triC_0-7-2_6_" d="M-2.4 160.2 L-4.4 159.1 L-2.4 157.2 L-2.4 160.2 Z " />
<path stroke="rgb(0,0,0)" stroke-opacity="1" fill="rgb(255,255,255)" fill-opacity="1" id="tempino" d="M-10.5 207.4 L-8.547 207.4 L-6.595 207.4 L-4.642 207.4 L-2.689 207.4 L-0.7368 207.4 L1.216 207.4 L3.168 207.4 L5.121 207.4 L7.074 207.4 L9.026 207.4 L10.98 207.4 L12.93 207.4 L14.88 207.4 L16.84 207.4 L18.79 207.4 L20.74 207.4 L22.69 207.4 L24.65 207.4 L26.6 207.4 L26.6 209.4 L26.6 211.3 L26.6 213.3 L26.6 215.2 L26.6 217.2 L26.6 219.1 L26.6 221.1 L26.6 223 L26.6 225 L26.6 226.9 L26.6 228.9 L26.6 230.8 L26.6 232.8 L26.6 234.7 L26.6 236.7 L26.6 238.6 L26.6 240.6 L26.6 242.5 L26.6 244.5 L24.65 244.5 L22.69 244.5 L20.74 244.5 L18.79 244.5 L16.84 244.5 L14.88 244.5 L12.93 244.5 L10.98 244.5 L9.026 244.5 L7.074 244.5 L5.121 244.5 L3.168 244.5 L1.216 244.5 L-0.7368 244.5 L-2.689 244.5 L-4.642 244.5 L-6.595 244.5 L-8.547 244.5 L-10.5 244.5 L-10.5 242.5 L-10.5 240.6 L-10.5 238.6 L-10.5 236.7 L-10.5 234.7 L-10.5 232.8 L-10.5 230.8 L-10.5 228.9 L-10.5 226.9 L-10.5 225 L-10.5 223 L-10.5 221.1 L-10.5 219.1 L-10.5 217.2 L-10.5 215.2 L-10.5 213.3 L-10.5 211.3 L-10.5 209.4 L-10.5 207.4 Z " />
</g>
</g>
</svg>
