<!DOCTYPE svg>
<svg xmlns="http://www.w3.org/2000/svg" xmlns:xlink="http://www.w3.org/1999/xlink" width="2000" height="2000">
<g transform="translate(1000.000000,1000.000000)">
<g transform="scale(5,5)">
<path stroke="rgb(255,250,159)" stroke-opacity="1" fill="rgb(255,250,159)" fill-opacity="1" id="square1" d="M33.78 -21.97 L32.41 -20.58 L31.04 -19.2 L29.66 -17.81 L28.29 -16.43 L26.92 -15.04 L25.55 -13.66 L24.18 -12.27 L22.8 -10.88 L21.43 -9.499 L20.06 -8.113 L18.69 -6.728 L17.32 -5.342 L15.94 -3.956 L14.57 -2.571 L13.2 -1.185 L11.83 0.2006 L10.46 1.586 L9.084 2.972 L7.712 4.358 L6.327 2.986 L4.941 1.614 L3.555 0.2416 L2.17 -1.13 L0.7839 -2.502 L-0.6017 -3.874 L-1.987 -5.246 L-3.373 -6.618 L-4.759 -7.99 L-6.144 -9.362 L-7.53 -10.73 L-8.916 -12.11 L-10.3 -13.48 L-11.69 -14.85 L-13.07 -16.22 L-14.46 -17.59 L-15.84 -18.97 L-17.23 -20.34 L-18.62 -21.71 L-17.24 -23.1 L-15.87 -24.48 L-14.5 -25.87 L-13.13 -27.25 L-11.76 -28.64 L-10.38 -30.02 L-9.011 -31.41 L-7.639 -32.8 L-6.267 -34.18 L-4.895 -35.57 L-3.523 -36.95 L-2.151 -38.34 L-0.7795 -39.72 L0.5925 -41.11 L1.964 -42.49 L3.336 -43.88 L4.708 -45.27 L6.08 -46.65 L7.452 -48.04 L8.838 -46.67 L10.22 -45.29 L11.61 -43.92 L12.99 -42.55 L14.38 -41.18 L15.77 -39.81 L17.15 -38.43 L18.54 -37.06 L19.92 -35.69 L21.31 -34.32 L22.69 -32.95 L24.08 -31.57 L25.47 -30.2 L26.85 -28.83 L28.24 -27.46 L29.62 -26.09 L31.01 -24.71 L32.39 -23.34 L33.78 -21.97 Z " />
<path stroke="rgb(255,250,159)" stroke-opacity="1" fill="rgb(255,250,159)" fill-opacity="1" id="square2" d="M-10.2 -244.5 L-8.247 -244.5 L-6.295 -244.5 L-4.342 -244.5 L-2.389 -244.5 L-0.4368 -244.5 L1.516 -244.5 L3.468 -244.5 L5.421 -244.5 L7.374 -244.5 L9.326 -244.5 L11.28 -244.5 L13.23 -244.5 L15.18 -244.5 L17.14 -244.5 L19.09 -244.5 L21.04 -244.5 L22.99 -244.5 L24.95 -244.5 L26.9 -244.5 L26.9 -242.5 L26.9 -240.6 L26.9 -238.6 L26.9 -236.7 L26.9 -234.7 L26.9 -232.8 L26.9 -230.8 L26.9 -228.9 L26.9 -226.9 L26.9 -225 L26.9 -223 L26.9 -221.1 L26.9 -219.1 L26.9 -217.2 L26.9 -215.2 L26.9 -213.3 L26.9 -211.3 L26.9 -209.4 L26.9 -207.4 L24.95 -207.4 L22.99 -207.4 L21.04 -207.4 L19.09 -207.4 L17.14 -207.4 L15.18 -207.4 L13.23 -207.4 L11.28 -207.4 L9.326 -207.4 L7.374 -207.4 L5.421 -207.4 L3.468 -207.4 L1.516 -207.4 L-0.4368 -207.4 L-2.389 -207.4 L-4.342 -207.4 L-6.295 -207.4 L-8.247 -207.4 L-10.2 -207.4 L-10.2 -209.4 L-10.2 -211.3 L-10.2 -213.3 L-10.2 -215.2 L-10.2 -217.2 L-10.2 -219.1 L-10.2 -221.1 L-10.2 -223 L-10.2 -225 L-10.2 -226.9 L-10.2 -228.9 L-10.2 -230.8 L-10.2 -232.8 L-10.2 -234.7 L-10.2 -236.7 L-10.2 -238.6 L-10.2 -240.6 L-10.2 -242.5 L-10.2 -244.5 Z " />
<path stroke="rgb(255,250,159)" stroke-opacity="1" fill="rgb(255,250,159)" fill-opacity="1" id="square3" d="M-10.2 -244.5 L-8.247 -244.5 L-6.295 -244.5 L-4.342 -244.5 L-2.389 -244.5 L-0.4368 -244.5 L1.516 -244.5 L3.468 -244.5 L5.421 -244.5 L7.374 -244.5 L9.326 -244.5 L11.28 -244.5 L13.23 -244.5 L15.18 -244.5 L17.14 -244.5 L19.09 -244.5 L21.04 -244.5 L22.99 -244.5 L24.95 -244.5 L26.9 -244.5 L26.9 -242.5 L26.9 -240.6 L26.9 -238.6 L26.9 -236.7 L26.9 -234.7 L26.9 -232.8 L26.9 -230.8 L26.9 -228.9 L26.9 -226.9 L26.9 -225 L26.9 -223 L26.9 -221.1 L26.9 -219.1 L26.9 -217.2 L26.9 -215.2 L26.9 -213.3 L26.9 -211.3 L26.9 -209.4 L26.9 -207.4 L24.95 -207.4 L22.99 -207.4 L21.04 -207.4 L19.09 -207.4 L17.14 -207.4 L15.18 -207.4 L13.23 -207.4 L11.28 -207.4 L9.326 -207.4 L7.374 -207.4 L5.421 -207.4 L3.468 -207.4 L1.516 -207.4 L-0.4368 -207.4 L-2.389 -207.4 L-4.342 -207.4 L-6.295 -207.4 L-8.247 -207.4 L-10.2 -207.4 L-10.2 -209.4 L-10.2 -211.3 L-10.2 -213.3 L-10.2 -215.2 L-10.2 -217.2 L-10.2 -219.1 L-10.2 -221.1 L-10.2 -223 L-10.2 -225 L-10.2 -226.9 L-10.2 -228.9 L-10.2 -230.8 L-10.2 -232.8 L-10.2 -234.7 L-10.2 -236.7 L-10.2 -238.6 L-10.2 -240.6 L-10.2 -242.5 L-10.2 -244.5 Z " />
<path stroke="rgb(244,227,211)" stroke-opacity="1" fill="rgb(244,227,211)" fill-opacity="1" id="container" d="M82.5 87.26 L82.47 89.35 L82.4 91.44 L82.27 93.51 L82.09 95.56 L81.86 97.61 L81.58 99.63 L81.25 101.6 L80.87 103.6 L80.45 105.6 L79.98 107.6 L79.46 109.5 L78.9 111.4 L78.29 113.3 L77.64 115.2 L76.95 117.1 L76.21 118.9 L75.43 120.7 L74.6 122.5 L73.74 124.3 L72.83 126 L71.89 127.8 L70.9 129.5 L69.88 131.1 L68.82 132.8 L67.72 134.4 L66.58 136 L65.41 137.5 L64.2 139.1 L62.96 140.6 L61.68 142 L60.37 143.5 L59.02 144.9 L57.64 146.3 L56.23 147.6 L54.79 148.9 L53.32 150.2 L51.82 151.5 L50.28 152.7 L48.72 153.8 L47.13 155 L45.52 156.1 L43.87 157.1 L42.2 158.2 L40.51 159.1 L38.78 160.1 L37.04 161 L35.27 161.9 L33.47 162.7 L31.66 163.5 L29.82 164.2 L27.96 164.9 L26.08 165.6 L24.17 166.2 L22.25 166.7 L20.31 167.2 L18.36 167.7 L16.38 168.1 L14.39 168.5 L12.37 168.8 L10.35 169.1 L8.307 169.3 L6.251 169.5 L4.181 169.7 L2.097 169.7 L0 169.8 L-2.097 169.7 L-4.181 169.7 L-6.251 169.5 L-8.307 169.3 L-10.35 169.1 L-12.37 168.8 L-14.38 168.5 L-16.38 168.1 L-18.36 167.7 L-20.31 167.2 L-22.25 166.7 L-24.17 166.2 L-26.08 165.6 L-27.96 164.9 L-29.82 164.2 L-31.66 163.5 L-33.47 162.7 L-35.27 161.9 L-37.04 161 L-38.78 160.1 L-40.51 159.1 L-42.2 158.2 L-43.87 157.1 L-45.52 156.1 L-47.13 155 L-48.72 153.8 L-50.28 152.7 L-51.82 151.5 L-53.32 150.2 L-54.79 148.9 L-56.23 147.6 L-57.64 146.3 L-59.02 144.9 L-60.37 143.5 L-61.68 142 L-62.96 140.6 L-64.2 139.1 L-65.41 137.5 L-66.58 136 L-67.72 134.4 L-68.82 132.8 L-69.88 131.1 L-70.9 129.5 L-71.89 127.8 L-72.83 126 L-73.74 124.3 L-74.6 122.5 L-75.43 120.7 L-76.21 118.9 L-76.95 117.1 L-77.64 115.2 L-78.29 113.3 L-78.9 111.4 L-79.46 109.5 L-79.98 107.6 L-80.45 105.6 L-80.87 103.6 L-81.25 101.6 L-81.58 99.63 L-81.86 97.61 L-82.09 95.56 L-82.27 93.51 L-82.4 91.44 L-82.47 89.35 L-82.5 87.26 L-82.47 85.16 L-82.4 83.08 L-82.27 81.01 L-82.09 78.95 L-81.86 76.91 L-81.58 74.88 L-81.25 72.87 L-80.87 70.88 L-80.45 68.9 L-79.98 66.94 L-79.46 65 L-78.9 63.08 L-78.29 61.18 L-77.64 59.3 L-76.95 57.44 L-76.21 55.6 L-75.43 53.78 L-74.6 51.99 L-73.74 50.22 L-72.83 48.47 L-71.89 46.75 L-70.9 45.05 L-69.88 43.38 L-68.82 41.74 L-67.72 40.12 L-66.58 38.53 L-65.41 36.97 L-64.2 35.44 L-62.96 33.94 L-61.68 32.47 L-60.37 31.02 L-59.02 29.61 L-57.64 28.24 L-56.23 26.89 L-54.79 25.58 L-53.32 24.3 L-51.82 23.06 L-50.28 21.85 L-48.72 20.67 L-47.13 19.54 L-45.52 18.44 L-43.87 17.38 L-42.2 16.35 L-40.51 15.37 L-38.78 14.42 L-37.04 13.52 L-35.27 12.65 L-33.47 11.83 L-31.66 11.05 L-29.82 10.31 L-27.96 9.614 L-26.08 8.963 L-24.17 8.355 L-22.25 7.793 L-20.31 7.276 L-18.36 6.806 L-16.38 6.383 L-14.38 6.007 L-12.37 5.679 L-10.35 5.4 L-8.307 5.17 L-6.251 4.99 L-4.181 4.861 L-2.097 4.783 L0 4.757 L2.097 4.783 L4.181 4.861 L6.251 4.99 L8.307 5.17 L10.35 5.4 L12.37 5.679 L14.39 6.007 L16.38 6.383 L18.36 6.806 L20.31 7.276 L22.25 7.793 L24.17 8.355 L26.08 8.963 L27.96 9.614 L29.82 10.31 L31.66 11.05 L33.47 11.83 L35.27 12.65 L37.04 13.52 L38.78 14.42 L40.51 15.37 L42.2 16.35 L43.87 17.38 L45.52 18.44 L47.13 19.54 L48.72 20.67 L50.28 21.85 L51.82 23.06 L53.32 24.3 L54.79 25.58 L56.23 26.89 L57.64 28.24 L59.02 29.61 L60.37 31.02 L61.68 32.47 L62.96 33.94 L64.2 35.44 L65.41 36.97 L66.58 38.53 L67.72 40.12 L68.82 41.74 L69.88 43.38 L70.9 45.05 L71.89 46.75 L72.83 48.47 L73.74 50.22 L74.6 51.99 L75.43 53.78 L76.21 55.6 L76.95 57.44 L77.64 59.3 L78.29 61.18 L78.9 63.08 L79.46 65 L79.98 66.94 L80.45 68.9 L80.87 70.88 L81.25 72.87 L81.58 74.88 L81.86 76.91 L82.09 78.95 L82.27 81.01 L82.4 83.08 L82.47 85.16 L82.5 87.26 Z " />
<path stroke="rgb(245,172,181)" stroke-opacity="1" fill="rgb(245,172,181)" fill-opacity="1" id="crack1" d="M9.5 45.46 L10.2 43.46 L10.9 41.46 L10.8 39.57 L10.7 37.69 L10.6 35.8 L10.5 33.91 L10.4 32.03 L10.3 30.14 L10.2 28.26 L9.9 25.66 L7.633 25.29 L5.367 24.92 L3.1 24.56 L2.97 22.59 L2.84 20.62 L2.71 18.65 L2.58 16.68 L2.45 14.71 L2.32 12.74 L2.19 10.77 L2.06 8.797 L1.93 6.827 L1.8 4.857 L0 4.857 L0.1273 6.793 L0.2545 8.73 L0.3818 10.67 L0.5091 12.6 L0.6364 14.54 L0.7636 16.48 L0.8909 18.41 L1.018 20.35 L1.145 22.28 L1.273 24.22 L1.4 26.16 L3.567 26.52 L5.733 26.89 L7.9 27.26 L8.043 29.27 L8.186 31.29 L8.329 33.3 L8.471 35.31 L8.614 37.33 L8.757 39.34 L8.9 41.36 L8.35 43.21 L7.8 45.06 L9.5 45.46 Z " />
<path stroke="none" fill="none" id="crack2" d="M1.8 56 L2.588 57.92 L3.375 59.85 L4.163 61.77 L4.95 63.7 L5.738 65.62 L6.525 67.55 L7.313 69.48 L8.1 71.4 L6.35 72.75 L4.6 74.1 L2.85 75.45 L1.1 76.8 L2.3 78.7 L4.02 77.4 L5.74 76.1 L7.46 74.8 L9.18 73.5 L10.9 72.2 L10.14 70.43 L9.389 68.67 L8.633 66.9 L7.878 65.13 L7.122 63.37 L6.367 61.6 L5.611 59.83 L4.856 58.07 L4.1 56.3 L4.871 54.46 L5.643 52.61 L6.414 50.77 L7.186 48.93 L7.957 47.09 L8.729 45.24 L9.5 43.4 L7.8 43 L6.943 44.96 L6.086 46.91 L5.229 48.87 L4.371 50.83 L3.514 52.79 L2.657 54.74 L1.8 56.7 L1.8 56 Z " />
<path stroke="none" fill="none" id="crack4" d="M1.9 104.8 L1.725 102.8 L1.55 100.9 L1.375 99 L1.2 97.07 L-0.08749 95.67 L-1.375 94.27 L-2.662 92.87 L-3.95 91.47 L-5.237 90.07 L-6.525 88.67 L-7.812 87.27 L-9.1 85.87 L-7.6 84.63 L-6.1 83.39 L-4.6 82.14 L-3.1 80.9 L-1.6 79.66 L-0.09998 78.42 L1.4 77.17 L2.5 79.37 L1 80.46 L-0.5 81.54 L-2 82.62 L-3.5 83.71 L-5 84.79 L-6.5 85.87 L-5.143 87.3 L-3.786 88.73 L-2.429 90.16 L-1.071 91.59 L0.2857 93.02 L1.643 94.44 L3 95.87 L3.35 98 L3.7 100.1 L4.05 102.2 L4.4 104.4 L1.9 104.8 Z " />
<path stroke="none" fill="none" id="crack3" d="M10.9 166.9 L9.5 165.4 L8.1 163.8 L6.7 162.3 L6.175 160.5 L5.65 158.7 L5.125 156.9 L4.6 155.1 L3.338 153.4 L2.075 151.8 L0.8125 150.1 L-0.45 148.5 L-1.712 146.8 L-2.975 145.2 L-4.237 143.5 L-5.5 141.9 L-4.05 140.6 L-2.6 139.3 L-1.15 137.9 L0.3 136.6 L1.75 135.3 L3.2 133.9 L4.65 132.6 L6.1 131.3 L5.969 129.2 L5.838 127.2 L5.708 125.1 L5.577 123.1 L5.446 121 L5.315 119 L5.185 116.9 L5.054 114.9 L4.923 112.8 L4.792 110.8 L4.662 108.7 L4.531 106.7 L4.4 104.6 L1.9 105 L2.069 107 L2.238 109 L2.408 110.9 L2.577 112.9 L2.746 114.9 L2.915 116.9 L3.085 118.8 L3.254 120.8 L3.423 122.8 L3.592 124.8 L3.762 126.7 L3.931 128.7 L4.1 130.7 L2.538 132 L0.975 133.4 L-0.5875 134.7 L-2.15 136.1 L-3.712 137.5 L-5.275 138.8 L-6.837 140.2 L-8.4 141.5 L-7.178 143.2 L-5.956 144.8 L-4.733 146.5 L-3.511 148.2 L-2.289 149.8 L-1.067 151.5 L0.1556 153.2 L1.378 154.8 L2.6 156.5 L3.125 158.3 L3.65 160 L4.175 161.8 L4.7 163.5 L5.9 164.8 L7.1 166 L8.3 167.3 L10.9 166.9 Z " />
<path stroke="rgb(245,172,181)" stroke-opacity="1" fill="rgb(245,172,181)" fill-opacity="1" id="triA_0-7" d="M-6.375 21.73 L-7.375 20.83 L-6.375 18.83 L-6.375 21.73 Z " />
<path stroke="rgb(245,172,181)" stroke-opacity="1" fill="rgb(245,172,181)" fill-opacity="1" id="triA_3" d="M-21.28 15.28 L-19.28 16.28 L-21.38 17.18 L-21.28 15.28 Z " />
<path stroke="rgb(245,172,181)" stroke-opacity="1" fill="rgb(245,172,181)" fill-opacity="1" id="triA_1-7" d="M-16.02 18.7 L-14.15 18.62 L-12.27 18.53 L-10.4 18.44 L-8.522 18.35 L-6.647 18.27 L-4.772 18.18 L-2.897 18.09 L-1.022 18 L-2.897 17.72 L-4.772 17.43 L-6.647 17.14 L-8.522 16.85 L-10.4 16.57 L-12.27 16.28 L-14.15 15.99 L-16.02 15.7 L-16.02 18.7 Z " />
<path stroke="rgb(245,172,181)" stroke-opacity="1" fill="rgb(245,172,181)" fill-opacity="1" id="triA_1-9" d="M2.308 26.85 L1.308 24.85 L2.308 23.85 L2.308 26.85 Z " />
<path stroke="rgb(245,172,181)" stroke-opacity="1" fill="rgb(245,172,181)" fill-opacity="1" id="triA_4-2" d="M-27.68 35.48 L-26.23 35.93 L-24.78 36.38 L-26.23 37.38 L-27.68 38.38 L-27.68 35.48 Z " />
<path stroke="rgb(245,172,181)" stroke-opacity="1" fill="rgb(245,172,181)" fill-opacity="1" id="triA_2-8" d="M-17.72 22.82 L-16.72 24.82 L-17.72 25.72 L-17.72 22.82 Z " />
<path stroke="rgb(245,172,181)" stroke-opacity="1" fill="rgb(245,172,181)" fill-opacity="1" id="triA_2-9" d="M-17.92 25.72 L-19.92 24.72 L-17.92 23.72 L-17.92 25.72 Z " />
<path stroke="rgb(245,172,181)" stroke-opacity="1" fill="rgb(245,172,181)" fill-opacity="1" id="triA_4-6" d="M-27.18 25.58 L-25.18 25.68 L-27.18 27.58 L-27.18 25.58 Z " />
<path stroke="rgb(245,172,181)" stroke-opacity="1" fill="rgb(245,172,181)" fill-opacity="1" id="triA_5-4" d="M-40.75 20.42 L-39.75 22.42 L-40.75 23.42 L-40.75 20.42 Z " />
<path stroke="rgb(245,172,181)" stroke-opacity="1" fill="rgb(245,172,181)" fill-opacity="1" id="triA_5-5" d="M-32.25 6.725 L-34.15 4.725 L-32.15 4.825 L-32.25 6.725 Z " />
<path stroke="rgb(245,172,181)" stroke-opacity="1" fill="rgb(245,172,181)" fill-opacity="1" id="triA_4-8" d="M-21.08 24.58 L-19.28 25.58 L-21.18 27.48 L-21.08 24.58 Z " />
<path stroke="rgb(245,172,181)" stroke-opacity="1" fill="rgb(245,172,181)" fill-opacity="1" id="triA_4-9" d="M-18 21.81 L-20 21.81 L-18 19.91 L-18 21.81 Z " />
<path stroke="rgb(245,172,181)" stroke-opacity="1" fill="rgb(245,172,181)" fill-opacity="1" id="triA_1-16" d="M0.7779 22.8 L-1.097 22.89 L-2.972 22.98 L-4.847 23.07 L-6.722 23.15 L-8.597 23.24 L-10.47 23.33 L-12.35 23.42 L-14.22 23.5 L-12.35 23.67 L-10.47 23.83 L-8.597 23.99 L-6.722 24.15 L-4.847 24.32 L-2.972 24.48 L-1.097 24.64 L0.7779 24.8 L0.7779 22.8 Z " />
<path stroke="rgb(245,172,181)" stroke-opacity="1" fill="rgb(245,172,181)" fill-opacity="1" id="triA_1-17" d="M-10.82 17.2 L-12.82 16.2 L-10.82 15.2 L-10.82 17.2 Z " />
<path stroke="rgb(245,172,181)" stroke-opacity="1" fill="rgb(245,172,181)" fill-opacity="1" id="triA_3-12" d="M-24.08 31.48 L-22.18 33.48 L-24.18 34.48 L-24.13 32.98 L-24.08 31.48 Z " />
<path stroke="rgb(245,172,181)" stroke-opacity="1" fill="rgb(245,172,181)" fill-opacity="1" id="triA_7-5" d="M-31.78 21.8 L-33.68 19.7 L-31.68 18.8 L-31.73 20.3 L-31.78 21.8 Z " />
<path stroke="rgb(245,172,181)" stroke-opacity="1" fill="rgb(245,172,181)" fill-opacity="1" id="triA_0-2-3_2_" d="M-10.98 1.829 L-12.48 2.329 L-13.98 2.829 L-10.98 1.829 Z " />
<path stroke="rgb(245,172,181)" stroke-opacity="1" fill="rgb(245,172,181)" fill-opacity="1" id="triA_1-2-3" d="M-4.222 40.9 L-2.222 41.8 L-4.322 43.8 L-4.222 40.9 Z " />
<path stroke="rgb(245,172,181)" stroke-opacity="1" fill="rgb(245,172,181)" fill-opacity="1" id="triA_0-7-2" d="M-2.475 26.73 L-4.375 25.73 L-2.375 23.73 L-2.425 25.23 L-2.475 26.73 Z " />
<path stroke="rgb(245,172,181)" stroke-opacity="1" fill="rgb(245,172,181)" fill-opacity="1" id="triA_3-2-3" d="M-13.58 28.38 L-12.68 29.28 L-13.68 30.28 L-13.58 28.38 Z " />
<path stroke="rgb(245,172,181)" stroke-opacity="1" fill="rgb(245,172,181)" fill-opacity="1" id="triA_1-8-2" d="M-14.22 25.8 L-12.32 26.8 L-14.32 28.7 L-14.22 25.8 Z " />
<path stroke="rgb(245,172,181)" stroke-opacity="1" fill="rgb(245,172,181)" fill-opacity="1" id="triA_2-6-2" d="M-17.02 18.72 L-15.02 19.72 L-17.02 20.72 L-17.02 18.72 Z " />
<path stroke="rgb(245,172,181)" stroke-opacity="1" fill="rgb(245,172,181)" fill-opacity="1" id="triA_4-2-3" d="M-23.18 36.18 L-23.08 33.28 L-22.18 34.28 L-23.18 36.18 Z " />
<path stroke="rgb(245,172,181)" stroke-opacity="1" fill="rgb(245,172,181)" fill-opacity="1" id="triA_5-2-2" d="M-25.81 18.49 L-23.81 19.59 L-25.81 20.49 L-25.81 18.49 Z " />
<path stroke="rgb(245,172,181)" stroke-opacity="1" fill="rgb(245,172,181)" fill-opacity="1" id="triA_0-13-2" d="M8.728 34.54 L6.728 34.44 L8.728 32.64 L8.728 34.54 Z " />
<path stroke="rgb(245,172,181)" stroke-opacity="1" fill="rgb(245,172,181)" fill-opacity="1" id="triA_3-7-2" d="M-9.825 12.72 L-11.83 10.72 L-9.825 10.72 L-9.825 12.72 Z " />
<path stroke="rgb(245,172,181)" stroke-opacity="1" fill="rgb(245,172,181)" fill-opacity="1" id="triA_0-14-2" d="M-14.18 4.929 L-12.18 6.929 L-14.18 6.829 L-14.18 4.929 Z " />
<path stroke="rgb(245,172,181)" stroke-opacity="1" fill="rgb(245,172,181)" fill-opacity="1" id="triA_0-15-2" d="M-2.175 5.329 L-4.175 3.329 L-2.175 3.329 L-2.175 5.329 Z " />
<path stroke="rgb(245,172,181)" stroke-opacity="1" fill="rgb(245,172,181)" fill-opacity="1" id="triA_1-13-2" d="M-7.722 34.5 L-9.722 33.5 L-7.622 32.5 L-7.722 34.5 Z " />
<path stroke="rgb(245,172,181)" stroke-opacity="1" fill="rgb(245,172,181)" fill-opacity="1" id="triA_4-7-2" d="M-27.68 24.58 L-29.68 22.58 L-27.68 21.58 L-27.68 24.58 Z " />
<path stroke="rgb(245,172,181)" stroke-opacity="1" fill="rgb(245,172,181)" fill-opacity="1" id="triA_1-14-2" d="M-2.822 37 L-0.9221 38 L-1.922 39 L-2.822 37 Z " />
<path stroke="rgb(245,172,181)" stroke-opacity="1" fill="rgb(245,172,181)" fill-opacity="1" id="triA_4-11-2" d="M-18.5 8.608 L-20.4 6.508 L-18.4 5.608 L-18.45 7.108 L-18.5 8.608 Z " />
<path stroke="rgb(245,172,181)" stroke-opacity="1" fill="rgb(245,172,181)" fill-opacity="1" id="triA_9-2" d="M-13.28 24.36 L-12.28 25.26 L-14.28 26.16 L-13.28 24.36 Z " />
<path stroke="rgb(245,172,181)" stroke-opacity="1" fill="rgb(245,172,181)" fill-opacity="1" id="triA_8-3-2" d="M-20.95 6.459 L-22.85 4.459 L-20.85 3.459 L-20.9 4.959 L-20.95 6.459 Z " />
<path stroke="rgb(245,172,181)" stroke-opacity="1" fill="rgb(245,172,181)" fill-opacity="1" id="triA_0-4-3" d="M-4.175 27.53 L-2.175 28.53 L-4.275 29.53 L-4.175 27.53 Z " />
<path stroke="rgb(245,172,181)" stroke-opacity="1" fill="rgb(245,172,181)" fill-opacity="1" id="triA_1-2-4" d="M-10.22 6.304 L-8.322 7.304 L-10.22 8.304 L-10.22 6.304 Z " />
<path stroke="rgb(245,172,181)" stroke-opacity="1" fill="rgb(245,172,181)" fill-opacity="1" id="triA_2-3-3" d="M-7.721 41.62 L-5.921 43.62 L-7.821 44.62 L-7.771 43.12 L-7.721 41.62 Z " />
<path stroke="rgb(245,172,181)" stroke-opacity="1" fill="rgb(245,172,181)" fill-opacity="1" id="triA_2-3-4" d="M-6.121 30.62 L-8.121 30.62 L-6.021 28.72 L-6.121 30.62 Z " />
<path stroke="rgb(245,172,181)" stroke-opacity="1" fill="rgb(245,172,181)" fill-opacity="1" id="triA_0-9-3" d="M-2.075 30.33 L-3.525 29.28 L-4.975 28.23 L-3.475 27.78 L-1.975 27.33 L-2.025 28.83 L-2.075 30.33 Z " />
<path stroke="rgb(245,172,181)" stroke-opacity="1" fill="rgb(245,172,181)" fill-opacity="1" id="triA_0-10-3" d="M3.428 9.843 L5.328 10.84 L3.328 11.74 L3.428 9.843 Z " />
<path stroke="rgb(245,172,181)" stroke-opacity="1" fill="rgb(245,172,181)" fill-opacity="1" id="triA_1-9-3" d="M1.408 4.448 L0.4079 3.348 L1.408 2.448 L1.408 4.448 Z " />
<path stroke="rgb(245,172,181)" stroke-opacity="1" fill="rgb(245,172,181)" fill-opacity="1" id="triA_3-4-3" d="M-18.78 11.08 L-15.88 11.08 L-17.38 12.03 L-18.88 12.98 L-18.78 11.08 Z " />
<path stroke="rgb(245,172,181)" stroke-opacity="1" fill="rgb(245,172,181)" fill-opacity="1" id="triA_4-3-4" d="M-21.88 9.081 L-23.88 9.081 L-22.78 7.181 L-21.88 9.081 Z " />
<path stroke="rgb(245,172,181)" stroke-opacity="1" fill="rgb(245,172,181)" fill-opacity="1" id="triA_1-10-3" d="M-15.62 35.7 L-13.72 36.7 L-15.72 38.7 L-15.67 37.2 L-15.62 35.7 Z " />
<path stroke="rgb(245,172,181)" stroke-opacity="1" fill="rgb(245,172,181)" fill-opacity="1" id="triA_0-13-3" d="M-0.8753 24.53 L-1.875 23.53 L-0.8753 22.63 L-0.8753 24.53 Z " />
<path stroke="rgb(245,172,181)" stroke-opacity="1" fill="rgb(245,172,181)" fill-opacity="1" id="triA_3-6-3" d="M-12.08 6.979 L-10.08 8.079 L-12.18 9.979 L-12.13 8.479 L-12.08 6.979 Z " />
<path stroke="rgb(245,172,181)" stroke-opacity="1" fill="rgb(245,172,181)" fill-opacity="1" id="triA_6-3-3" d="M-42.48 56.9 L-44.38 58.8 L-44.38 55.9 L-42.48 56.9 Z " />
<path stroke="rgb(245,172,181)" stroke-opacity="1" fill="rgb(245,172,181)" fill-opacity="1" id="triA_1-12-3" d="M-9.122 30.4 L-9.122 28.5 L-7.122 29.4 L-9.122 30.4 Z " />
<path stroke="rgb(245,172,181)" stroke-opacity="1" fill="rgb(245,172,181)" fill-opacity="1" id="triA_2-11-3" d="M-2.769 9.369 L-4.769 8.369 L-2.669 6.369 L-2.719 7.869 L-2.769 9.369 Z " />
<path stroke="rgb(245,172,181)" stroke-opacity="1" fill="rgb(245,172,181)" fill-opacity="1" id="triA_3-9-3" d="M-1.589 35.67 L-3.489 34.77 L-1.489 33.77 L-1.589 35.67 Z " />
<path stroke="rgb(245,172,181)" stroke-opacity="1" fill="rgb(245,172,181)" fill-opacity="1" id="triA_5-4-3" d="M-32.55 39.12 L-33.55 41.02 L-33.55 39.12 L-32.55 39.12 Z " />
<path stroke="rgb(245,172,181)" stroke-opacity="1" fill="rgb(245,172,181)" fill-opacity="1" id="triA_5-5-3" d="M-33.25 22.92 L-34.25 20.92 L-32.25 21.02 L-33.25 22.92 Z " />
<path stroke="rgb(245,172,181)" stroke-opacity="1" fill="rgb(245,172,181)" fill-opacity="1" id="triA_6-3-4" d="M-23.28 16.34 L-24.28 15.34 L-23.28 13.44 L-23.28 16.34 Z " />
<path stroke="rgb(245,172,181)" stroke-opacity="1" fill="rgb(245,172,181)" fill-opacity="1" id="triA_1-14-3" d="M-5.822 8.404 L-3.822 9.504 L-5.922 10.4 L-5.822 8.404 Z " />
<path stroke="rgb(245,172,181)" stroke-opacity="1" fill="rgb(245,172,181)" fill-opacity="1" id="triA_1-15-3" d="M-4.922 10.9 L-6.922 10 L-4.922 9.004 L-4.922 10.9 Z " />
<path stroke="rgb(245,172,181)" stroke-opacity="1" fill="rgb(245,172,181)" fill-opacity="1" id="triA_6-4-3" d="M-45.18 29.8 L-44.18 30.8 L-45.18 31.8 L-45.18 29.8 Z " />
<path stroke="rgb(245,172,181)" stroke-opacity="1" fill="rgb(245,172,181)" fill-opacity="1" id="triA_7-2-4" d="M-23.04 15.68 L-21.04 16.68 L-23.04 17.68 L-23.04 15.68 Z " />
<path stroke="rgb(245,172,181)" stroke-opacity="1" fill="rgb(245,172,181)" fill-opacity="1" id="triA_0-18-3" d="M-11.48 3.429 L-9.475 4.529 L-11.48 6.429 L-11.48 4.929 L-11.48 3.429 Z " />
<path stroke="rgb(245,172,181)" stroke-opacity="1" fill="rgb(245,172,181)" fill-opacity="1" id="triA_1-16-3" d="M6.608 11.15 L8.608 12.25 L6.608 13.15 L6.608 11.15 Z " />
<path stroke="rgb(245,172,181)" stroke-opacity="1" fill="rgb(245,172,181)" fill-opacity="1" id="triA_4-10-3" d="M-24.88 31.68 L-22.88 32.68 L-24.88 33.58 L-24.88 31.68 Z " />
<path stroke="rgb(245,172,181)" stroke-opacity="1" fill="rgb(245,172,181)" fill-opacity="1" id="triA_5-8-3" d="M-40.45 45.32 L-38.45 46.42 L-40.45 47.32 L-40.45 45.32 Z " />
<path stroke="rgb(245,172,181)" stroke-opacity="1" fill="rgb(245,172,181)" fill-opacity="1" id="triA_4-11-3" d="M-28.78 30.88 L-29.68 29.88 L-28.68 27.88 L-28.73 29.38 L-28.78 30.88 Z " />
<path stroke="rgb(245,172,181)" stroke-opacity="1" fill="rgb(245,172,181)" fill-opacity="1" id="triA_5-9-3" d="M-31.75 16.72 L-33.65 14.72 L-31.65 13.72 L-31.7 15.22 L-31.75 16.72 Z " />
<path stroke="rgb(245,172,181)" stroke-opacity="1" fill="rgb(245,172,181)" fill-opacity="1" id="triA_6-7-3" d="M-28.78 38.94 L-29.68 36.94 L-28.78 35.94 L-28.78 38.94 Z " />
<path stroke="rgb(245,172,181)" stroke-opacity="1" fill="rgb(245,172,181)" fill-opacity="1" id="triA_0-4-4_1_" d="M2.428 0.4431 L0.4275 0.4431 L2.428 0.4431 Z " />
<path stroke="rgb(245,172,181)" stroke-opacity="1" fill="rgb(245,172,181)" fill-opacity="1" id="triA_0-3-5" d="M-10.38 17.23 L-12.38 16.23 L-10.38 15.23 L-10.38 17.23 Z " />
<path stroke="rgb(245,172,181)" stroke-opacity="1" fill="rgb(245,172,181)" fill-opacity="1" id="triA_0-8-4" d="M-3.075 16.33 L-1.075 16.33 L-3.075 18.23 L-3.075 16.33 Z " />
<path stroke="rgb(245,172,181)" stroke-opacity="1" fill="rgb(245,172,181)" fill-opacity="1" id="triA_4-4-4" d="M-30.68 30.58 L-29.68 32.58 L-30.68 32.58 L-30.68 30.58 Z " />
<path stroke="rgb(245,172,181)" stroke-opacity="1" fill="rgb(245,172,181)" fill-opacity="1" id="triA_2-6-4" d="M-16.12 17.22 L-14.12 18.22 L-15.62 18.67 L-17.12 19.12 L-16.12 17.22 Z " />
<path stroke="rgb(245,172,181)" stroke-opacity="1" fill="rgb(245,172,181)" fill-opacity="1" id="triA_1-9-4" d="M-5.922 6.004 L-6.922 5.004 L-5.822 3.104 L-5.922 6.004 Z " />
<path stroke="rgb(245,172,181)" stroke-opacity="1" fill="rgb(245,172,181)" fill-opacity="1" id="triA_3-4-5" d="M-17.38 22.88 L-16.38 24.88 L-17.38 25.88 L-17.38 22.88 Z " />
<path stroke="rgb(245,172,181)" stroke-opacity="1" fill="rgb(245,172,181)" fill-opacity="1" id="triA_4-2-5" d="M-31.78 4.381 L-29.78 5.381 L-31.78 7.281 L-31.78 4.381 Z " />
<path stroke="rgb(245,172,181)" stroke-opacity="1" fill="rgb(245,172,181)" fill-opacity="1" id="triA_1-10-4" d="M-3.122 5.904 L-2.222 8.004 L-4.222 8.904 L-3.672 7.404 L-3.122 5.904 Z " />
<path stroke="rgb(245,172,181)" stroke-opacity="1" fill="rgb(245,172,181)" fill-opacity="1" id="triA_0-3_1_" d="M-6.175 31.23 L-7.075 30.23 L-6.075 29.23 L-6.175 31.23 Z " />
<path stroke="rgb(245,172,181)" stroke-opacity="1" fill="rgb(245,172,181)" fill-opacity="1" id="triA_1-7_1_" d="M-10.02 19.5 L-12.02 18.5 L-9.922 16.5 L-9.972 18 L-10.02 19.5 Z " />
<path stroke="rgb(245,172,181)" stroke-opacity="1" fill="rgb(245,172,181)" fill-opacity="1" id="triA_1-9_1_" d="M-22.02 10.9 L-23.02 8.904 L-22.02 7.904 L-22.02 10.9 Z " />
<path stroke="rgb(245,172,181)" stroke-opacity="1" fill="rgb(245,172,181)" fill-opacity="1" id="triA_4-3_1_" d="M-18.2 15.11 L-20.1 14.21 L-18.1 13.21 L-18.2 15.11 Z " />
<path stroke="rgb(245,172,181)" stroke-opacity="1" fill="rgb(245,172,181)" fill-opacity="1" id="triA_2-8_1_" d="M-17.12 31.52 L-16.22 33.62 L-17.22 34.42 L-17.12 31.52 Z " />
<path stroke="rgb(245,172,181)" stroke-opacity="1" fill="rgb(245,172,181)" fill-opacity="1" id="triA_2-10_1_" d="M-8.721 28.42 L-6.721 30.42 L-8.721 31.42 L-8.721 28.42 Z " />
<path stroke="rgb(245,172,181)" stroke-opacity="1" fill="rgb(245,172,181)" fill-opacity="1" id="triA_3-9_1_" d="M-20.08 27.38 L-21.98 25.48 L-19.98 24.58 L-20.08 27.38 Z " />
<path stroke="rgb(245,172,181)" stroke-opacity="1" fill="rgb(245,172,181)" fill-opacity="1" id="triA_1-16_1_" d="M-10.62 3.004 L-8.622 4.004 L-10.62 4.904 L-10.62 3.004 Z " />
<path stroke="rgb(245,172,181)" stroke-opacity="1" fill="rgb(245,172,181)" fill-opacity="1" id="triA_1-17_1_" d="M-6.022 31.4 L-8.022 30.3 L-5.922 29.4 L-6.022 31.4 Z " />
<path stroke="rgb(245,172,181)" stroke-opacity="1" fill="rgb(245,172,181)" fill-opacity="1" id="triA_3-12_1_" d="M-23.78 33.68 L-21.78 35.78 L-23.78 36.68 L-23.78 33.68 Z " />
<path stroke="rgb(245,172,181)" stroke-opacity="1" fill="rgb(245,172,181)" fill-opacity="1" id="triA_5-9_1_" d="M-26.31 34.89 L-28.31 33.79 L-26.31 32.89 L-26.31 34.89 Z " />
<path stroke="rgb(245,172,181)" stroke-opacity="1" fill="rgb(245,172,181)" fill-opacity="1" id="triA_7-5_1_" d="M-26.78 31.2 L-28.68 29.1 L-26.68 28.2 L-26.73 29.7 L-26.78 31.2 Z " />
<path stroke="rgb(245,172,181)" stroke-opacity="1" fill="rgb(245,172,181)" fill-opacity="1" id="triA_0-2-3_1_" d="M-1.175 27.93 L0.3246 28.93 L1.825 29.93 L0.2747 30.38 L-1.275 30.83 L-1.175 27.93 Z " />
<path stroke="rgb(245,172,181)" stroke-opacity="1" fill="rgb(245,172,181)" fill-opacity="1" id="triA_0-7-2_1_" d="M-2.775 31.63 L-4.775 30.63 L-2.675 28.63 L-2.725 30.13 L-2.775 31.63 Z " />
<path stroke="none" fill="none" id="triB_0-7_1_" d="M7.9 64.7 L6.9 63.8 L7.9 61.8 L7.9 64.7 Z " />
<path stroke="none" fill="none" id="triB_3_1_" d="M4.1 58.2 L6.1 59.2 L4 60.1 L4.1 58.2 Z " />
<path stroke="none" fill="none" id="triB_1-7_3_" d="M3.6 64.3 L5.475 64.21 L7.35 64.12 L9.225 64.04 L11.1 63.95 L12.98 63.86 L14.85 63.77 L16.73 63.69 L18.6 63.6 L16.73 63.31 L14.85 63.02 L12.98 62.74 L11.1 62.45 L9.225 62.16 L7.35 61.87 L5.475 61.59 L3.6 61.3 L3.6 64.3 Z " />
<path stroke="none" fill="none" id="triB_1-9_3_" d="M18.9 69.2 L17.9 67.2 L18.9 66.2 L18.9 69.2 Z " />
<path stroke="none" fill="none" id="triB_4-2_1_" d="M7.5 77.7 L8.95 78.15 L10.4 78.6 L8.95 79.6 L7.5 80.6 L7.5 77.7 Z " />
<path stroke="none" fill="none" id="triB_2-8_3_" d="M5.5 68 L6.5 70 L5.5 70.9 L5.5 68 Z " />
<path stroke="none" fill="none" id="triB_2-9_1_" d="M1.7 67 L-0.3 66 L1.7 65 L1.7 67 Z " />
<path stroke="none" fill="none" id="triB_4-6_3_" d="M9.1 65.9 L11.1 66 L9.1 67.9 L9.1 65.9 Z " />
<path stroke="none" fill="none" id="triB_5-4_1_" d="M5 58.9 L6 60.9 L5 61.9 L5 58.9 Z " />
<path stroke="none" fill="none" id="triB_5-5_1_" d="M14.9 47.3 L13 45.3 L15 45.4 L14.9 47.3 Z " />
<path stroke="none" fill="none" id="triB_4-8_1_" d="M13 65.3 L14.8 66.3 L12.9 68.2 L13 65.3 Z " />
<path stroke="none" fill="none" id="triB_4-9_1_" d="M19.1 60.2 L17.1 60.2 L19.1 58.3 L19.1 60.2 Z " />
<path stroke="none" fill="none" id="triB_1-16_3_" d="M18.8 65.5 L16.93 65.59 L15.05 65.67 L13.18 65.76 L11.3 65.85 L9.425 65.94 L7.55 66.02 L5.675 66.11 L3.8 66.2 L5.675 66.36 L7.55 66.52 L9.425 66.69 L11.3 66.85 L13.18 67.01 L15.05 67.17 L16.93 67.34 L18.8 67.5 L18.8 65.5 Z " />
<path stroke="none" fill="none" id="triB_1-17_3_" d="M5.2 60.1 L3.2 59.1 L5.2 58.1 L5.2 60.1 Z " />
<path stroke="none" fill="none" id="triB_3-12_3_" d="M5.3 73 L7.2 75 L5.2 76 L5.25 74.5 L5.3 73 Z " />
<path stroke="none" fill="none" id="triB_7-5_3_" d="M5.4 60 L3.5 57.9 L5.5 57 L5.45 58.5 L5.4 60 Z " />
<path stroke="none" fill="none" id="triB_0-2-3_4_" d="M7.7 46.1 L6.2 46.6 L4.7 47.1 L7.7 46.1 Z " />
<path stroke="none" fill="none" id="triB_1-2-3_1_" d="M12.2 85.5 L14.2 86.4 L12.1 88.4 L12.2 85.5 Z " />
<path stroke="none" fill="none" id="triB_0-7-2_3_" d="M13.9 71.6 L12 70.6 L14 68.6 L13.95 70.1 L13.9 71.6 Z " />
<path stroke="none" fill="none" id="triB_3-2-3_1_" d="M15.6 69.4 L16.5 70.3 L15.5 71.3 L15.6 69.4 Z " />
<path stroke="none" fill="none" id="triB_1-8-2_1_" d="M2.9 69.6 L4.8 70.6 L2.8 72.5 L2.9 69.6 Z " />
<path stroke="none" fill="none" id="triB_2-6-2_1_" d="M7.2 63.6 L9.2 64.6 L7.2 65.6 L7.2 63.6 Z " />
<path stroke="none" fill="none" id="triB_4-2-3_1_" d="M12.7 76.7 L12.8 73.8 L13.7 74.8 L12.7 76.7 Z " />
<path stroke="none" fill="none" id="triB_5-2-2_1_" d="M18.6 54.8 L20.6 55.9 L18.6 56.8 L18.6 54.8 Z " />
<path stroke="none" fill="none" id="triB_0-13-2_1_" d="M26.4 80.3 L24.4 80.2 L26.4 78.4 L26.4 80.3 Z " />
<path stroke="none" fill="none" id="triB_3-7-2_1_" d="M16.5 57.1 L14.5 55.1 L16.5 55.1 L16.5 57.1 Z " />
<path stroke="none" fill="none" id="triB_0-14-2_1_" d="M1.5 50.5 L3.5 52.5 L1.5 52.4 L1.5 50.5 Z " />
<path stroke="none" fill="none" id="triB_0-15-2_1_" d="M13.8 47.3 L11.8 45.3 L13.8 45.3 L13.8 47.3 Z " />
<path stroke="none" fill="none" id="triB_1-13-2_1_" d="M11.1 76.4 L9.1 75.4 L11.2 74.4 L11.1 76.4 Z " />
<path stroke="none" fill="none" id="triB_4-7-2_1_" d="M6.9 67.6 L4.9 65.6 L6.9 64.6 L6.9 67.6 Z " />
<path stroke="none" fill="none" id="triB_1-14-2_1_" d="M17.7 78.6 L19.6 79.6 L18.6 80.6 L17.7 78.6 Z " />
<path stroke="none" fill="none" id="triB_4-11-2_1_" d="M15.6 46.6 L13.7 44.5 L15.7 43.6 L15.65 45.1 L15.6 46.6 Z " />
<path stroke="none" fill="none" id="triB_9-2_1_" d="M9.8 65.8 L10.8 66.7 L8.8 67.6 L9.8 65.8 Z " />
<path stroke="none" fill="none" id="triB_8-3-2_1_" d="M9.4 49.8 L7.5 47.8 L9.5 46.8 L9.45 48.3 L9.4 49.8 Z " />
<path stroke="none" fill="none" id="triB_0-4-3_1_" d="M14.3 73.1 L16.3 74.1 L14.2 75.1 L14.3 73.1 Z " />
<path stroke="none" fill="none" id="triB_1-2-4_1_" d="M6.3 51.7 L8.2 52.7 L6.3 53.7 L6.3 51.7 Z " />
<path stroke="none" fill="none" id="triB_2-3-3_1_" d="M13.4 85.1 L15.2 87.1 L13.3 88.1 L13.35 86.6 L13.4 85.1 Z " />
<path stroke="none" fill="none" id="triB_2-3-4_1_" d="M16.6 73.1 L14.6 73.1 L16.7 71.2 L16.6 73.1 Z " />
<path stroke="none" fill="none" id="triB_0-9-3_1_" d="M12.8 73.2 L11.35 72.15 L9.9 71.1 L11.4 70.65 L12.9 70.2 L12.85 71.7 L12.8 73.2 Z " />
<path stroke="none" fill="none" id="triB_0-10-3_1_" d="M18 53.6 L19.9 54.6 L17.9 55.5 L18 53.6 Z " />
<path stroke="none" fill="none" id="triB_1-9-3_1_" d="M17.4 46.2 L16.4 45.1 L17.4 44.2 L17.4 46.2 Z " />
<path stroke="none" fill="none" id="triB_3-4-3_1_" d="M7.4 52 L10.3 52 L8.8 52.95 L7.3 53.9 L7.4 52 Z " />
<path stroke="none" fill="none" id="triB_4-3-4_1_" d="M13.4 48.7 L11.4 48.7 L12.5 46.8 L13.4 48.7 Z " />
<path stroke="none" fill="none" id="triB_1-10-3_1_" d="M2.3 80.3 L4.2 81.3 L2.2 83.3 L2.25 81.8 L2.3 80.3 Z " />
<path stroke="none" fill="none" id="triB_0-13-3_1_" d="M15.6 69.5 L14.6 68.5 L15.6 67.6 L15.6 69.5 Z " />
<path stroke="none" fill="none" id="triB_3-6-3_1_" d="M14.8 50.9 L16.8 52 L14.7 53.9 L14.75 52.4 L14.8 50.9 Z " />
<path stroke="none" fill="none" id="triB_6-3-3_1_" d="M7.9 96.8 L6 98.7 L6 95.8 L7.9 96.8 Z " />
<path stroke="none" fill="none" id="triB_1-12-3_1_" d="M7.3 72.1 L7.3 70.2 L9.3 71.1 L7.3 72.1 Z " />
<path stroke="none" fill="none" id="triB_2-11-3_1_" d="M21 53.6 L19 52.6 L21.1 50.6 L21.05 52.1 L21 53.6 Z " />
<path stroke="none" fill="none" id="triB_3-9-3_1_" d="M25.9 75.9 L24 75 L26 74 L25.9 75.9 Z " />
<path stroke="none" fill="none" id="triB_5-4-3_1_" d="M13 75.9 L14 75.9 L13 77.8 L13 75.9 Z " />
<path stroke="none" fill="none" id="triB_5-5-3_1_" d="M11.8 60.3 L10.8 58.3 L12.8 58.4 L11.8 60.3 Z " />
<path stroke="none" fill="none" id="triB_6-3-4_1_" d="M23.8 52.3 L22.8 51.3 L23.8 49.4 L23.8 52.3 Z " />
<path stroke="none" fill="none" id="triB_1-14-3_1_" d="M11.7 51.8 L13.7 52.9 L11.6 53.8 L11.7 51.8 Z " />
<path stroke="none" fill="none" id="triB_1-15-3_1_" d="M11.7 53.3 L9.7 52.4 L11.7 51.4 L11.7 53.3 Z " />
<path stroke="none" fill="none" id="triB_6-4-3_1_" d="M5.7 69.8 L6.7 70.8 L5.7 71.8 L5.7 69.8 Z " />
<path stroke="none" fill="none" id="triB_7-2-4_1_" d="M18 56.4 L20 57.4 L18 58.4 L18 56.4 Z " />
<path stroke="none" fill="none" id="triB_0-18-3_1_" d="M3.6 49.9 L5.6 51 L3.6 52.9 L3.6 49.9 Z " />
<path stroke="none" fill="none" id="triB_1-16-3_1_" d="M24.5 54.8 L26.5 55.9 L24.5 56.8 L24.5 54.8 Z " />
<path stroke="none" fill="none" id="triB_4-10-3_1_" d="M9.6 71.2 L11.6 72.2 L9.6 73.1 L9.6 71.2 Z " />
<path stroke="none" fill="none" id="triB_5-8-3_1_" d="M7.3 82.5 L9.3 83.6 L7.3 84.5 L7.3 82.5 Z " />
<path stroke="none" fill="none" id="triB_4-11-3_1_" d="M5.7 72.5 L4.8 71.5 L5.8 69.5 L5.75 71 L5.7 72.5 Z " />
<path stroke="none" fill="none" id="triB_5-9-3_1_" d="M12.9 55.2 L11 53.2 L13 52.2 L12.95 53.7 L12.9 55.2 Z " />
<path stroke="none" fill="none" id="triB_6-7-3_1_" d="M19.8 75.4 L18.9 73.4 L19.8 72.4 L19.8 75.4 Z " />
<path stroke="none" fill="none" id="triB_0-4-4_2_" d="M21.4 42.8 L19.4 42.8 L21.4 42.8 Z " />
<path stroke="none" fill="none" id="triB_0-3-5_1_" d="M8.4 63.1 L6.4 62.1 L8.4 61.1 L8.4 63.1 Z " />
<path stroke="none" fill="none" id="triB_0-8-4_1_" d="M11.1 58.9 L13.1 58.9 L11.1 60.8 L11.1 58.9 Z " />
<path stroke="none" fill="none" id="triB_4-4-4_1_" d="M6.9 72.5 L7.9 74.5 L6.9 74.5 L6.9 72.5 Z " />
<path stroke="none" fill="none" id="triB_2-6-4_1_" d="M4.2 61.5 L6.2 62.5 L4.7 62.95 L3.2 63.4 L4.2 61.5 Z " />
<path stroke="none" fill="none" id="triB_1-9-4_1_" d="M13.2 51 L12.2 50 L13.3 48.1 L13.2 51 Z " />
<path stroke="none" fill="none" id="triB_3-4-5_1_" d="M8.1 66.7 L9.1 68.7 L8.1 69.7 L8.1 66.7 Z " />
<path stroke="none" fill="none" id="triB_4-2-5_1_" d="M4.9 45.4 L6.9 46.4 L4.9 48.3 L4.9 45.4 Z " />
<path stroke="none" fill="none" id="triB_1-10-4_1_" d="M14.6 50 L15.5 52.1 L13.5 53 L14.05 51.5 L14.6 50 Z " />
<path stroke="none" fill="none" id="triB_0-3_2_" d="M8 76.2 L7.1 75.2 L8.1 74.2 L8 76.2 Z " />
<path stroke="none" fill="none" id="triB_1-7_2_" d="M7.1 63.7 L5.1 62.7 L7.2 60.7 L7.15 62.2 L7.1 63.7 Z " />
<path stroke="none" fill="none" id="triB_1-9_2_" d="M-3.7 52.4 L-4.7 50.4 L-3.7 49.4 L-3.7 52.4 Z " />
<path stroke="none" fill="none" id="triB_4-3_2_" d="M16.6 57.1 L14.7 56.2 L16.7 55.2 L16.6 57.1 Z " />
<path stroke="none" fill="none" id="triB_2-8_2_" d="M4.7 76.4 L5.6 78.5 L4.6 79.3 L4.7 76.4 Z " />
<path stroke="none" fill="none" id="triB_2-10_3_" d="M14.2 71.8 L16.2 73.8 L14.2 74.8 L14.2 71.8 Z " />
<path stroke="none" fill="none" id="triB_3-9_2_" d="M7.5 71.4 L5.6 69.5 L7.6 68.6 L7.5 71.4 Z " />
<path stroke="none" fill="none" id="triB_1-16_2_" d="M5.4 47.5 L7.4 48.5 L5.4 49.4 L5.4 47.5 Z " />
<path stroke="none" fill="none" id="triB_1-17_2_" d="M14.5 74.9 L12.5 73.8 L14.6 72.9 L14.5 74.9 Z " />
<path stroke="none" fill="none" id="triB_3-12_2_" d="M3 77.2 L5 79.3 L3 80.2 L3 77.2 Z " />
<path stroke="none" fill="none" id="triB_5-9_2_" d="M20 73.6 L18 72.5 L20 71.6 L20 73.6 Z " />
<path stroke="none" fill="none" id="triB_7-5_2_" d="M14.4 68.9 L12.5 66.8 L14.5 65.9 L14.45 67.4 L14.4 68.9 Z " />
<path stroke="none" fill="none" id="triB_0-2-3_3_" d="M13.1 72.8 L14.6 73.8 L16.1 74.8 L14.55 75.25 L13 75.7 L13.1 72.8 Z " />
<path stroke="none" fill="none" id="triB_0-7-2_2_" d="M14.9 74.3 L12.9 73.3 L15 71.3 L14.95 72.8 L14.9 74.3 Z " />
<path stroke="none" fill="none" id="triC_6-3-3_1_" d="M8.4 100.7 L6.4 102.5 L6.5 99.6 L8.4 100.7 Z " />
<path stroke="none" fill="none" id="triC_0-7_2_" d="M-7.9 129.3 L-8.9 128.4 L-7.8 126.4 L-7.9 129.3 Z " />
<path stroke="none" fill="none" id="triC_3_2_" d="M-9.8 120.3 L-7.8 121.3 L-9.9 122.2 L-9.8 120.3 Z " />
<path stroke="none" fill="none" id="triC_1-7_5_" d="M-15 127.4 L-13.12 127.3 L-11.25 127.2 L-9.375 127.1 L-7.5 127 L-5.625 127 L-3.75 126.9 L-1.875 126.8 L0 126.7 L-1.862 126.4 L-3.725 126.1 L-5.587 125.8 L-7.45 125.5 L-9.312 125.3 L-11.17 125 L-13.04 124.7 L-14.9 124.4 L-14.95 125.9 L-15 127.4 Z " />
<path stroke="none" fill="none" id="triC_1-9_5_" d="M2.6 134.8 L1.6 132.8 L2.6 131.8 L2.6 134.8 Z " />
<path stroke="none" fill="none" id="triC_4-2_2_" d="M-7.3 138.5 L-5.85 139 L-4.4 139.5 L-5.85 140.5 L-7.3 141.4 L-7.3 138.5 Z " />
<path stroke="none" fill="none" id="triC_2-8_5_" d="M-11.5 130.5 L-10.5 132.5 L-11.5 133.4 L-11.5 130.5 Z " />
<path stroke="none" fill="none" id="triC_2-9_2_" d="M-13.4 129.6 L-15.4 128.5 L-13.4 127.6 L-13.4 129.6 Z " />
<path stroke="none" fill="none" id="triC_4-6_5_" d="M-11 129.5 L-9.1 129.6 L-11.1 131.5 L-11 129.5 Z " />
<path stroke="none" fill="none" id="triC_5-4_2_" d="M-12.9 122.8 L-12 124.8 L-13 125.8 L-12.95 124.3 L-12.9 122.8 Z " />
<path stroke="none" fill="none" id="triC_5-5_2_" d="M-5.6 109 L-7.6 107.1 L-5.6 107.1 L-5.6 109 Z " />
<path stroke="none" fill="none" id="triC_4-8_2_" d="M-0.6 126.5 L1.3 127.4 L-0.6 129.4 L-0.6 126.5 Z " />
<path stroke="none" fill="none" id="triC_4-9_2_" d="M1.6 124.1 L-0.4 124 L1.6 122.2 L1.6 124.1 Z " />
<path stroke="none" fill="none" id="triC_1-16_5_" d="M-0.4 127.5 L-2.275 127.6 L-4.15 127.7 L-6.025 127.8 L-7.9 127.8 L-9.775 127.9 L-11.65 128 L-13.52 128.1 L-15.4 128.2 L-13.52 128.4 L-11.65 128.5 L-9.775 128.7 L-7.9 128.8 L-6.025 129 L-4.15 129.2 L-2.275 129.3 L-0.4 129.5 L-0.4 127.5 Z " />
<path stroke="none" fill="none" id="triC_1-17_5_" d="M-10.5 124 L-12.5 123 L-10.5 122 L-10.5 124 Z " />
<path stroke="none" fill="none" id="triC_3-12_5_" d="M-13.9 134.4 L-12 136.4 L-14 137.4 L-13.95 135.9 L-13.9 134.4 Z " />
<path stroke="none" fill="none" id="triC_7-5_5_" d="M-9.4 127.2 L-11.3 125.2 L-9.3 124.2 L-9.35 125.7 L-9.4 127.2 Z " />
<path stroke="none" fill="none" id="triC_0-2-3_6_" d="M-13 109.2 L-14.55 109.6 L-16.1 110.1 L-13 109.2 Z " />
<path stroke="none" fill="none" id="triC_1-2-3_2_" d="M-4.5 146.6 L-2.5 147.5 L-4.6 149.5 L-4.5 146.6 Z " />
<path stroke="none" fill="none" id="triC_0-7-2_5_" d="M-2.8 131.6 L-4.8 130.6 L-2.7 128.6 L-2.75 130.1 L-2.8 131.6 Z " />
<path stroke="none" fill="none" id="triC_3-2-3_2_" d="M-1.2 133.4 L-0.2 134.3 L-1.3 135.3 L-1.2 133.4 Z " />
<path stroke="none" fill="none" id="triC_1-8-2_2_" d="M-14.6 131.6 L-12.7 132.6 L-14.6 134.5 L-14.6 131.6 Z " />
<path stroke="none" fill="none" id="triC_2-6-2_2_" d="M-12.4 126.1 L-10.4 127.1 L-12.4 128.1 L-12.4 126.1 Z " />
<path stroke="none" fill="none" id="triC_4-2-3_2_" d="M-2.8 141.6 L-2.7 138.7 L-1.7 139.7 L-2.8 141.6 Z " />
<path stroke="none" fill="none" id="triC_5-2-2_2_" d="M2 121.5 L4 122.5 L2 123.5 L2 121.5 Z " />
<path stroke="none" fill="none" id="triC_0-13-2_2_" d="M9.4 143.6 L7.4 143.6 L9.4 141.7 L9.4 143.6 Z " />
<path stroke="none" fill="none" id="triC_3-7-2_2_" d="M2.2 115.9 L0.2 113.8 L2.2 113.9 L2.2 115.9 Z " />
<path stroke="none" fill="none" id="triC_0-14-2_2_" d="M-17 110.4 L-15 112.4 L-17 112.3 L-17 110.4 Z " />
<path stroke="none" fill="none" id="triC_0-15-2_2_" d="M-4.2 110.4 L-6.2 108.4 L-4.2 108.4 L-4.2 110.4 Z " />
<path stroke="none" fill="none" id="triC_1-13-2_2_" d="M-6.9 139.3 L-8.9 138.2 L-6.9 137.3 L-6.9 139.3 Z " />
<path stroke="none" fill="none" id="triC_4-7-2_2_" d="M-11.6 130.3 L-13.5 128.3 L-11.5 127.3 L-11.55 128.8 L-11.6 130.3 Z " />
<path stroke="none" fill="none" id="triC_1-14-2_2_" d="M-0.7 142.8 L1.2 143.9 L0.1 144.9 L-0.7 142.8 Z " />
<path stroke="none" fill="none" id="triC_4-11-2_2_" d="M-0.8 110.2 L-2.7 108.2 L-0.7 107.2 L-0.75 108.7 L-0.8 110.2 Z " />
<path stroke="none" fill="none" id="triC_9-2_2_" d="M-8.4 129.7 L-7.4 130.6 L-9.4 131.6 L-8.4 129.7 Z " />
<path stroke="none" fill="none" id="triC_8-3-2_2_" d="M-7.8 109 L-9.7 107 L-7.7 106 L-7.75 107.5 L-7.8 109 Z " />
<path stroke="none" fill="none" id="triC_0-4-3_2_" d="M-6.9 132 L-4.9 133.1 L-6.9 134 L-6.9 132 Z " />
<path stroke="none" fill="none" id="triC_1-2-4_2_" d="M-10.3 115.4 L-8.4 116.5 L-10.3 117.4 L-10.3 115.4 Z " />
<path stroke="none" fill="none" id="triC_2-3-3_2_" d="M-3.6 145.6 L-1.8 147.6 L-3.7 148.6 L-3.65 147.1 L-3.6 145.6 Z " />
<path stroke="none" fill="none" id="triC_2-3-4_2_" d="M-0.4 138.6 L-2.4 138.6 L-0.4 136.7 L-0.4 138.6 Z " />
<path stroke="none" fill="none" id="triC_0-9-3_2_" d="M-4.4 136.1 L-5.85 135 L-7.3 134 L-5.8 133.6 L-4.3 133.1 L-4.35 134.6 L-4.4 136.1 Z " />
<path stroke="none" fill="none" id="triC_0-10-3_2_" d="M5.4 118.5 L7.4 119.6 L5.3 120.4 L5.4 118.5 Z " />
<path stroke="none" fill="none" id="triC_1-9-3_2_" d="M2.3 112.3 L1.3 111.3 L2.3 110.3 L2.3 112.3 Z " />
<path stroke="none" fill="none" id="triC_3-4-3_2_" d="M-8.6 117.5 L-5.7 117.5 L-7.2 118.4 L-8.7 119.4 L-8.6 117.5 Z " />
<path stroke="none" fill="none" id="triC_4-3-4_2_" d="M-2.9 113.5 L-4.9 113.4 L-3.9 111.5 L-2.9 113.5 Z " />
<path stroke="none" fill="none" id="triC_1-10-3_2_" d="M-15.6 142.4 L-13.6 143.5 L-15.7 145.4 L-15.65 143.9 L-15.6 142.4 Z " />
<path stroke="none" fill="none" id="triC_0-13-3_2_" d="M-3.1 133.1 L-4.1 132.2 L-3.1 131.2 L-3.1 133.1 Z " />
<path stroke="none" fill="none" id="triC_3-6-3_2_" d="M-3.3 110 L-1.3 111 L-3.4 113 L-3.35 111.5 L-3.3 110 Z " />
<path stroke="none" fill="none" id="triC_6-3-3_2_" d="M-11.6 159.1 L-13.6 161 L-13.5 158.1 L-11.6 159.1 Z " />
<path stroke="none" fill="none" id="triC_1-12-3_2_" d="M-7.8 135 L-7.7 133.1 L-5.8 134 L-7.8 135 Z " />
<path stroke="none" fill="none" id="triC_2-11-3_2_" d="M2 116.6 L0 115.5 L2.1 113.6 L2.05 115.1 L2 116.6 Z " />
<path stroke="none" fill="none" id="triC_3-9-3_2_" d="M6.9 139.6 L4.9 138.7 L7 137.7 L6.9 139.6 Z " />
<path stroke="none" fill="none" id="triC_5-4-3_2_" d="M-4.1 140.1 L-5.2 142 L-5.1 140.1 L-4.1 140.1 Z " />
<path stroke="none" fill="none" id="triC_5-5-3_2_" d="M-3.7 124.7 L-4.7 122.8 L-2.7 122.9 L-3.7 124.7 Z " />
<path stroke="none" fill="none" id="triC_6-3-4_2_" d="M8.2 119.3 L7.3 118.3 L8.3 116.4 L8.2 119.3 Z " />
<path stroke="none" fill="none" id="triC_1-14-3_2_" d="M-4.6 117.3 L-2.6 118.3 L-4.7 119.3 L-4.6 117.3 Z " />
<path stroke="none" fill="none" id="triC_1-15-3_2_" d="M-4.3 116.1 L-6.3 115.2 L-4.3 114.2 L-4.3 116.1 Z " />
<path stroke="none" fill="none" id="triC_6-4-3_2_" d="M-11.4 130 L-10.4 131 L-11.4 132 L-11.4 130 Z " />
<path stroke="none" fill="none" id="triC_7-2-4_2_" d="M-2.5 118.2 L-0.6 119.3 L-2.6 120.2 L-2.5 118.2 Z " />
<path stroke="none" fill="none" id="triC_0-18-3_2_" d="M-11.7 112.7 L-9.7 113.8 L-11.7 115.7 L-11.7 112.7 Z " />
<path stroke="none" fill="none" id="triC_1-16-3_2_" d="M8.6 116.5 L10.5 117.5 L8.5 118.5 L8.6 116.5 Z " />
<path stroke="none" fill="none" id="triC_4-10-3_2_" d="M-7.8 136.9 L-5.9 137.9 L-7.9 138.8 L-7.8 136.9 Z " />
<path stroke="none" fill="none" id="triC_5-8-3_2_" d="M-10.6 149.3 L-8.6 150.4 L-10.7 151.3 L-10.6 149.3 Z " />
<path stroke="none" fill="none" id="triC_4-11-3_2_" d="M-8.5 132.8 L-9.4 131.8 L-8.4 129.8 L-8.45 131.3 L-8.5 132.8 Z " />
<path stroke="none" fill="none" id="triC_5-9-3_2_" d="M-3.7 118.4 L-5.6 116.4 L-3.6 115.4 L-3.65 116.9 L-3.7 118.4 Z " />
<path stroke="none" fill="none" id="triC_6-7-3_2_" d="M2.9 141 L2.1 139 L3 138 L2.95 139.5 L2.9 141 Z " />
<path stroke="none" fill="none" id="triC_0-4-4_3_" d="M3.8 107.4 L1.8 107.4 L3.8 107.4 Z " />
<path stroke="none" fill="none" id="triC_0-3-5_2_" d="M-11.3 125.8 L-13.2 124.7 L-11.2 123.8 L-11.3 125.8 Z " />
<path stroke="none" fill="none" id="triC_0-8-4_2_" d="M-2.9 125.6 L-0.9 125.6 L-3 127.5 L-2.9 125.6 Z " />
<path stroke="none" fill="none" id="triC_4-4-4_2_" d="M-14 131.9 L-13.1 134 L-14.1 133.9 L-14 131.9 Z " />
<path stroke="none" fill="none" id="triC_2-6-4_2_" d="M-10.7 122.9 L-8.7 123.9 L-10.25 124.4 L-11.8 124.9 L-10.7 122.9 Z " />
<path stroke="none" fill="none" id="triC_1-9-4_2_" d="M-4.1 114.9 L-5.1 113.9 L-4.1 112 L-4.1 114.9 Z " />
<path stroke="none" fill="none" id="triC_3-4-5_2_" d="M-5.4 127.2 L-4.4 129.3 L-5.5 130.2 L-5.45 128.7 L-5.4 127.2 Z " />
<path stroke="none" fill="none" id="triC_4-2-5_2_" d="M-14.2 109.3 L-12.2 110.3 L-14.2 112.2 L-14.2 109.3 Z " />
<path stroke="none" fill="none" id="triC_1-10-4_2_" d="M0.3 112.3 L1.3 114.3 L-0.8 115.3 L-0.25 113.8 L0.3 112.3 Z " />
<path stroke="none" fill="none" id="triC_0-3_3_" d="M-4.1 136.8 L-5.1 135.8 L-4.1 134.8 L-4.1 136.8 Z " />
<path stroke="none" fill="none" id="triC_1-7_4_" d="M-9.2 128.7 L-11.2 127.6 L-9.1 125.7 L-9.15 127.2 L-9.2 128.7 Z " />
<path stroke="none" fill="none" id="triC_1-9_4_" d="M-20.9 115.7 L-21.9 113.7 L-20.9 112.7 L-20.9 115.7 Z " />
<path stroke="none" fill="none" id="triC_4-3_3_" d="M2.7 118 L0.7 117.1 L2.7 116.1 L2.7 118 Z " />
<path stroke="none" fill="none" id="triC_2-8_4_" d="M-14.2 137.9 L-13.3 139.9 L-14.3 140.8 L-14.2 137.9 Z " />
<path stroke="none" fill="none" id="triC_2-10_5_" d="M-1.9 136.6 L0 138.6 L-2 139.6 L-1.95 138.1 L-1.9 136.6 Z " />
<path stroke="none" fill="none" id="triC_3-9_3_" d="M-7.6 131.6 L-9.6 129.7 L-7.6 128.8 L-7.6 131.6 Z " />
<path stroke="none" fill="none" id="triC_1-16_4_" d="M-7.7 108.5 L-5.7 109.5 L-7.7 110.4 L-7.7 108.5 Z " />
<path stroke="none" fill="none" id="triC_1-17_4_" d="M-6.9 137.1 L-8.9 136.1 L-6.9 135.1 L-6.9 137.1 Z " />
<path stroke="none" fill="none" id="triC_3-12_4_" d="M-13.4 140.2 L-11.5 142.3 L-13.5 143.2 L-13.45 141.7 L-13.4 140.2 Z " />
<path stroke="none" fill="none" id="triC_5-9_3_" d="M3.9 135.6 L1.9 134.6 L3.9 133.6 L3.9 135.6 Z " />
<path stroke="none" fill="none" id="triC_7-5_4_" d="M-5.9 132.2 L-7.8 130.2 L-5.8 129.2 L-5.85 130.7 L-5.9 132.2 Z " />
<path stroke="none" fill="none" id="triC_0-2-3_5_" d="M-3.2 137 L-1.7 138 L-0.2 138.9 L-1.75 139.4 L-3.3 139.9 L-3.2 137 Z " />
<path stroke="none" fill="none" id="triC_0-7-2_4_" d="M-3.7 139.6 L-5.7 138.5 L-3.6 136.6 L-3.65 138.1 L-3.7 139.6 Z " />
<path stroke="none" fill="none" id="triC_0-7_3_" d="M-6.6 151.5 L-7.6 150.6 L-6.6 148.6 L-6.6 151.5 Z " />
<path stroke="none" fill="none" id="triC_3_3_" d="M-10.5 140.8 L-8.6 141.8 L-10.6 142.7 L-10.5 140.8 Z " />
<path stroke="none" fill="none" id="triC_1-7_7_" d="M-15.4 146.8 L-13.52 146.7 L-11.65 146.6 L-9.775 146.5 L-7.9 146.4 L-6.025 146.4 L-4.15 146.3 L-2.275 146.2 L-0.4 146.1 L-2.275 145.8 L-4.15 145.5 L-6.025 145.2 L-7.9 144.9 L-9.775 144.7 L-11.65 144.4 L-13.52 144.1 L-15.4 143.8 L-15.4 146.8 Z " />
<path stroke="none" fill="none" id="triC_1-9_7_" d="M4.3 157.6 L3.4 155.6 L4.4 154.6 L4.35 156.1 L4.3 157.6 Z " />
<path stroke="none" fill="none" id="triC_4-2_3_" d="M-10.5 162.5 L-9.05 163 L-7.6 163.5 L-9.05 164.5 L-10.5 165.4 L-10.5 162.5 Z " />
<path stroke="none" fill="none" id="triC_2-8_7_" d="M-11.9 149.4 L-11 151.4 L-12 152.3 L-11.9 149.4 Z " />
<path stroke="none" fill="none" id="triC_2-9_3_" d="M-14.4 152.6 L-16.4 151.5 L-14.4 150.6 L-14.4 152.6 Z " />
<path stroke="none" fill="none" id="triC_4-6_7_" d="M-7.6 154.3 L-5.6 154.3 L-7.6 156.3 L-7.6 154.3 Z " />
<path stroke="none" fill="none" id="triC_5-4_3_" d="M-9.6 142.5 L-8.6 144.5 L-9.6 145.5 L-9.6 142.5 Z " />
<path stroke="none" fill="none" id="triC_5-5_3_" d="M-4.6 131.3 L-6.5 129.4 L-4.5 129.4 L-4.6 131.3 Z " />
<path stroke="none" fill="none" id="triC_4-8_3_" d="M-4.1 151.5 L-2.3 152.5 L-4.2 154.4 L-4.1 151.5 Z " />
<path stroke="none" fill="none" id="triC_4-9_3_" d="M2 148.8 L0 148.8 L2.1 146.9 L2 148.8 Z " />
<path stroke="none" fill="none" id="triC_1-16_7_" d="M4.7 152.2 L2.825 152.3 L0.95 152.4 L-0.925 152.5 L-2.8 152.5 L-4.675 152.6 L-6.55 152.7 L-8.425 152.8 L-10.3 152.9 L-8.425 153.1 L-6.55 153.2 L-4.675 153.4 L-2.8 153.5 L-0.925 153.7 L0.95 153.9 L2.825 154 L4.7 154.2 L4.7 152.2 Z " />
<path stroke="none" fill="none" id="triC_1-17_7_" d="M-9.5 144.8 L-11.5 143.8 L-9.5 142.8 L-9.5 144.8 Z " />
<path stroke="none" fill="none" id="triC_3-12_7_" d="M-14.1 161.4 L-12.1 163.5 L-14.1 164.4 L-14.1 161.4 Z " />
<path stroke="none" fill="none" id="triC_7-5_7_" d="M-8.8 147.3 L-10.8 145.2 L-8.8 144.3 L-8.8 147.3 Z " />
<path stroke="none" fill="none" id="triC_0-2-3_8_" d="M-8.6 129.3 L-10.1 129.7 L-11.6 130.2 L-8.6 129.3 Z " />
<path stroke="none" fill="none" id="triC_1-2-3_3_" d="M-0.6 169.5 L1.4 170.4 L-0.7 172.4 L-0.6 169.5 Z " />
<path stroke="none" fill="none" id="triC_0-7-2_7_" d="M-3.9 156.8 L-5.9 155.7 L-3.8 153.8 L-3.85 155.3 L-3.9 156.8 Z " />
<path stroke="none" fill="none" id="triC_3-2-3_3_" d="M-3.1 158.4 L-2.1 159.3 L-3.1 160.3 L-3.1 158.4 Z " />
<path stroke="none" fill="none" id="triC_1-8-2_3_" d="M-10.1 154.6 L-8.3 155.6 L-10.2 157.5 L-10.1 154.6 Z " />
<path stroke="none" fill="none" id="triC_2-6-2_3_" d="M-10.5 144.7 L-8.5 145.8 L-10.6 146.7 L-10.5 144.7 Z " />
<path stroke="none" fill="none" id="triC_4-2-3_3_" d="M-5.1 161.4 L-5.1 158.5 L-4.1 159.6 L-5.1 161.4 Z " />
<path stroke="none" fill="none" id="triC_5-2-2_3_" d="M0.5 142.3 L2.5 143.3 L0.4 144.3 L0.5 142.3 Z " />
<path stroke="none" fill="none" id="triC_0-13-2_3_" d="M9.4 162.3 L7.4 162.3 L9.5 160.4 L9.4 162.3 Z " />
<path stroke="none" fill="none" id="triC_3-7-2_3_" d="M2.9 141.1 L1 139.1 L3 139.1 L2.9 141.1 Z " />
<path stroke="none" fill="none" id="triC_0-14-2_3_" d="M-12.9 132.7 L-10.9 134.6 L-12.9 134.6 L-12.9 132.7 Z " />
<path stroke="none" fill="none" id="triC_0-15-2_3_" d="M-2 135.1 L-4 133.1 L-2 133.1 L-2 135.1 Z " />
<path stroke="none" fill="none" id="triC_1-13-2_3_" d="M-5.3 163.3 L-7.3 162.2 L-5.3 161.3 L-5.3 163.3 Z " />
<path stroke="none" fill="none" id="triC_4-7-2_3_" d="M-9.5 148.8 L-11.5 146.7 L-9.4 145.8 L-9.45 147.3 L-9.5 148.8 Z " />
<path stroke="none" fill="none" id="triC_1-14-2_3_" d="M0.8 166.7 L2.7 167.8 L1.6 168.7 L0.8 166.7 Z " />
<path stroke="none" fill="none" id="triC_4-11-2_3_" d="M-0.9 133.9 L-2.8 131.8 L-0.8 130.9 L-0.85 132.4 L-0.9 133.9 Z " />
<path stroke="none" fill="none" id="triC_9-2_3_" d="M-5.7 153.9 L-4.7 154.8 L-6.8 155.8 L-5.7 153.9 Z " />
<path stroke="none" fill="none" id="triC_8-3-2_3_" d="M-7.3 132.8 L-9.2 130.8 L-7.2 129.8 L-7.25 131.3 L-7.3 132.8 Z " />
<path stroke="none" fill="none" id="triC_0-4-3_3_" d="M-5.2 155.6 L-3.2 156.6 L-5.2 157.6 L-5.2 155.6 Z " />
<path stroke="none" fill="none" id="triC_1-2-4_3_" d="M-6.6 136.5 L-4.7 137.5 L-6.7 138.5 L-6.6 136.5 Z " />
<path stroke="none" fill="none" id="triC_2-3-3_3_" d="M-3.3 168.9 L-1.5 171 L-3.4 171.9 L-3.35 170.4 L-3.3 168.9 Z " />
<path stroke="none" fill="none" id="triC_2-3-4_3_" d="M0 158.9 L-2 158.8 L0.1 157 L0 158.9 Z " />
<path stroke="none" fill="none" id="triC_0-9-3_3_" d="M-2.4 158.9 L-3.9 157.8 L-5.4 156.8 L-3.85 156.3 L-2.3 155.9 L-2.35 157.4 L-2.4 158.9 Z " />
<path stroke="none" fill="none" id="triC_0-10-3_3_" d="M5.3 139.2 L7.3 140.2 L5.3 141.1 L5.3 139.2 Z " />
<path stroke="none" fill="none" id="triC_1-9-3_3_" d="M5.2 134 L4.2 133 L5.3 132 L5.2 134 Z " />
<path stroke="none" fill="none" id="triC_3-4-3_3_" d="M-8.7 140 L-5.8 140 L-7.25 141 L-8.7 141.9 L-8.7 140 Z " />
<path stroke="none" fill="none" id="triC_4-3-4_3_" d="M-4.6 134.9 L-6.6 134.8 L-5.6 133 L-4.6 134.9 Z " />
<path stroke="none" fill="none" id="triC_1-10-3_3_" d="M-15.4 163 L-13.4 164.1 L-15.4 166 L-15.4 163 Z " />
<path stroke="none" fill="none" id="triC_0-13-3_3_" d="M0.6 155.7 L-0.4 154.8 L0.6 153.8 L0.6 155.7 Z " />
<path stroke="none" fill="none" id="triC_3-6-3_3_" d="M-0.8 134.3 L1.2 135.3 L-0.8 137.3 L-0.8 134.3 Z " />
<path stroke="none" fill="none" id="triC_6-3-3_3_" d="M-10 179 L-12 180.8 L-11.9 177.9 L-10 179 Z " />
<path stroke="none" fill="none" id="triC_1-12-3_3_" d="M-8 157.9 L-7.9 156 L-5.9 156.9 L-8 157.9 Z " />
<path stroke="none" fill="none" id="triC_2-11-3_3_" d="M0.8 137.1 L-1.2 136 L0.9 134.1 L0.85 135.6 L0.8 137.1 Z " />
<path stroke="none" fill="none" id="triC_3-9-3_3_" d="M9.7 162.2 L7.7 161.3 L9.7 160.3 L9.7 162.2 Z " />
<path stroke="none" fill="none" id="triC_5-4-3_3_" d="M-3.8 163 L-4.8 164.9 L-4.8 163 L-3.8 163 Z " />
<path stroke="none" fill="none" id="triC_5-5-3_3_" d="M-4.9 146.6 L-5.9 144.7 L-3.9 144.7 L-4.9 146.6 Z " />
<path stroke="none" fill="none" id="triC_6-3-4_3_" d="M10.8 140.9 L9.8 139.9 L10.9 138 L10.8 140.9 Z " />
<path stroke="none" fill="none" id="triC_1-14-3_3_" d="M-4.9 138.1 L-2.9 139.1 L-4.9 140.1 L-4.9 138.1 Z " />
<path stroke="none" fill="none" id="triC_1-15-3_3_" d="M-4.1 139.9 L-6.1 139 L-4.1 138 L-4.1 139.9 Z " />
<path stroke="none" fill="none" id="triC_6-4-3_3_" d="M-10.9 151.3 L-10 152.3 L-11 153.3 L-10.9 151.3 Z " />
<path stroke="none" fill="none" id="triC_7-2-4_3_" d="M1.9 138.9 L3.9 139.9 L1.9 140.9 L1.9 138.9 Z " />
<path stroke="none" fill="none" id="triC_0-18-3_3_" d="M-13.7 131.6 L-11.7 132.6 L-13.8 134.6 L-13.75 133.1 L-13.7 131.6 Z " />
<path stroke="none" fill="none" id="triC_1-16-3_3_" d="M7 139.2 L9 140.2 L7 141.2 L7 139.2 Z " />
<path stroke="none" fill="none" id="triC_4-10-3_3_" d="M-3.5 159.4 L-1.5 160.3 L-3.5 161.3 L-3.5 159.4 Z " />
<path stroke="none" fill="none" id="triC_5-8-3_3_" d="M-9.8 171.3 L-7.8 172.4 L-9.8 173.3 L-9.8 171.3 Z " />
<path stroke="none" fill="none" id="triC_4-11-3_3_" d="M-10.4 156.5 L-11.3 155.4 L-10.4 153.5 L-10.4 156.5 Z " />
<path stroke="none" fill="none" id="triC_5-9-3_3_" d="M-4.9 139.6 L-6.8 137.5 L-4.8 136.6 L-4.85 138.1 L-4.9 139.6 Z " />
<path stroke="none" fill="none" id="triC_6-7-3_3_" d="M3 162.6 L2.2 160.6 L3.1 159.6 L3.05 161.1 L3 162.6 Z " />
<path stroke="none" fill="none" id="triC_0-4-4_4_" d="M1.1 128.7 L-0.9 128.7 L1.1 128.7 Z " />
<path stroke="none" fill="none" id="triC_0-3-5_3_" d="M-8.5 144.9 L-10.5 143.9 L-8.5 142.9 L-8.5 144.9 Z " />
<path stroke="none" fill="none" id="triC_0-8-4_3_" d="M-2.4 145.9 L-0.4 145.9 L-2.5 147.8 L-2.4 145.9 Z " />
<path stroke="none" fill="none" id="triC_4-4-4_3_" d="M-14.1 154.7 L-13.1 156.7 L-14.1 156.7 L-14.1 154.7 Z " />
<path stroke="none" fill="none" id="triC_2-6-4_3_" d="M-10.1 144.5 L-8.1 145.6 L-9.6 146 L-11.1 146.5 L-10.1 144.5 Z " />
<path stroke="none" fill="none" id="triC_1-9-4_3_" d="M-1.7 136.1 L-2.7 135.1 L-1.7 133.2 L-1.7 136.1 Z " />
<path stroke="none" fill="none" id="triC_3-4-5_3_" d="M-7.3 147.9 L-6.3 149.9 L-7.4 150.9 L-7.35 149.4 L-7.3 147.9 Z " />
<path stroke="none" fill="none" id="triC_4-2-5_3_" d="M-11.6 129.4 L-9.6 130.5 L-11.7 132.3 L-11.6 129.4 Z " />
<path stroke="none" fill="none" id="triC_1-10-4_3_" d="M1 137.5 L1.9 139.5 L-0.09998 140.4 L0.45 139 L1 137.5 Z " />
<path stroke="none" fill="none" id="triC_0-3_4_" d="M-8.1 160 L-9.1 159 L-8.1 158 L-8.1 160 Z " />
<path stroke="none" fill="none" id="triC_1-7_6_" d="M-8.1 148.8 L-10 147.8 L-8 145.8 L-8.05 147.3 L-8.1 148.8 Z " />
<path stroke="none" fill="none" id="triC_1-9_6_" d="M-19.9 142 L-20.8 140 L-19.8 139 L-19.85 140.5 L-19.9 142 Z " />
<path stroke="none" fill="none" id="triC_4-3_4_" d="M0.2 142.4 L-1.8 141.4 L0.2 140.5 L0.2 142.4 Z " />
<path stroke="none" fill="none" id="triC_2-8_6_" d="M-12.5 158.9 L-11.5 160.9 L-12.5 161.8 L-12.5 158.9 Z " />
<path stroke="none" fill="none" id="triC_2-10_7_" d="M-3.6 155.2 L-1.6 157.3 L-3.6 158.2 L-3.6 155.2 Z " />
<path stroke="none" fill="none" id="triC_3-9_4_" d="M-9.1 155.2 L-11 153.3 L-9 152.4 L-9.1 155.2 Z " />
<path stroke="none" fill="none" id="triC_1-16_6_" d="M-9.6 131.3 L-7.6 132.4 L-9.6 133.2 L-9.6 131.3 Z " />
<path stroke="none" fill="none" id="triC_1-17_6_" d="M-4.5 158.7 L-6.5 157.7 L-4.4 156.7 L-4.5 158.7 Z " />
<path stroke="none" fill="none" id="triC_3-12_6_" d="M-12.3 160 L-10.4 162 L-12.4 163 L-12.35 161.5 L-12.3 160 Z " />
<path stroke="none" fill="none" id="triC_5-9_4_" d="M4.2 161 L2.2 159.9 L4.3 159 L4.2 161 Z " />
<path stroke="none" fill="none" id="triC_7-5_6_" d="M-1.8 157.2 L-3.7 155.1 L-1.7 154.2 L-1.75 155.7 L-1.8 157.2 Z " />
<path stroke="none" fill="none" id="triC_0-2-3_7_" d="M1.2 155.8 L2.7 156.8 L4.2 157.8 L2.7 158.2 L1.2 158.7 L1.2 155.8 Z " />
<path stroke="none" fill="none" id="triC_0-7-2_6_" d="M-2.4 160.2 L-4.4 159.1 L-2.4 157.2 L-2.4 160.2 Z " />
<path stroke="rgb(0,0,0)" stroke-opacity="1" fill="rgb(255,255,255)" fill-opacity="1" id="tempino" d="M-10.5 207.4 L-8.547 207.4 L-6.595 207.4 L-4.642 207.4 L-2.689 207.4 L-0.7368 207.4 L1.216 207.4 L3.168 207.4 L5.121 207.4 L7.074 207.4 L9.026 207.4 L10.98 207.4 L12.93 207.4 L14.88 207.4 L16.84 207.4 L18.79 207.4 L20.74 207.4 L22.69 207.4 L24.65 207.4 L26.6 207.4 L26.6 209.4 L26.6 211.3 L26.6 213.3 L26.6 215.2 L26.6 217.2 L26.6 219.1 L26.6 221.1 L26.6 223 L26.6 225 L26.6 226.9 L26.6 228.9 L26.6 230.8 L26.6 232.8 L26.6 234.7 L26.6 236.7 L26.6 238.6 L26.6 240.6 L26.6 242.5 L26.6 244.5 L24.65 244.5 L22.69 244.5 L20.74 244.5 L18.79 244.5 L16.84 244.5 L14.88 244.5 L12.93 244.5 L10.98 244.5 L9.026 244.5 L7.074 244.5 L5.121 244.5 L3.168 244.5 L1.216 244.5 L-0.7368 244.5 L-2.689 244.5 L-4.642 244.5 L-6.595 244.5 L-8.547 244.5 L-10.5 244.5 L-10.5 242.5 L-10.5 240.6 L-10.5 238.6 L-10.5 236.7 L-10.5 234.7 L-10.5 232.8 L-10.5 230.8 L-10.5 228.9 L-10.5 226.9 L-10.5 225 L-10.5 223 L-10.5 221.1 L-10.5 219.1 L-10.5 217.2 L-10.5 215.2 L-10.5 213.3 L-10.5 211.3 L-10.5 209.4 L-10.5 207.4 Z " />
</g>
</g>
</svg>
