<!DOCTYPE svg>
<svg xmlns="http://www.w3.org/2000/svg" xmlns:xlink="http://www.w3.org/1999/xlink" width="2000" height="2000">
<g transform="translate(1000.000000,1000.000000)">
<g transform="scale(5,5)">
<path stroke="none" fill="none" id="square1" d="M-234.3 -176.4 L-236 -177.3 L-237.7 -178.3 L-239.4 -179.2 L-241.1 -180.2 L-242.8 -181.2 L-244.5 -182.1 L-246.2 -183.1 L-247.9 -184 L-249.6 -185 L-251.3 -185.9 L-253 -186.9 L-254.7 -187.9 L-256.4 -188.8 L-258.1 -189.8 L-259.8 -190.7 L-261.5 -191.7 L-263.2 -192.7 L-264.9 -193.6 L-266.6 -194.6 L-265.6 -196.3 L-264.7 -198 L-263.7 -199.7 L-262.7 -201.4 L-261.8 -203.1 L-260.8 -204.8 L-259.9 -206.4 L-258.9 -208.1 L-257.9 -209.8 L-257 -211.5 L-256 -213.2 L-255.1 -214.9 L-254.1 -216.6 L-253.2 -218.3 L-252.2 -220 L-251.2 -221.7 L-250.3 -223.4 L-249.3 -225.1 L-248.4 -226.8 L-246.7 -225.8 L-245 -224.9 L-243.3 -223.9 L-241.6 -223 L-239.9 -222 L-238.2 -221.1 L-236.5 -220.1 L-234.8 -219.1 L-233.1 -218.2 L-231.4 -217.2 L-229.7 -216.3 L-228 -215.3 L-226.3 -214.3 L-224.6 -213.4 L-222.9 -212.4 L-221.2 -211.5 L-219.5 -210.5 L-217.8 -209.5 L-216.1 -208.6 L-217.1 -206.9 L-218 -205.2 L-219 -203.5 L-220 -201.8 L-220.9 -200.1 L-221.9 -198.4 L-222.8 -196.7 L-223.8 -195 L-224.8 -193.3 L-225.7 -191.6 L-226.7 -189.9 L-227.6 -188.2 L-228.6 -186.5 L-229.6 -184.8 L-230.5 -183.1 L-231.5 -181.4 L-232.4 -179.8 L-233.4 -178.1 L-234.3 -176.4 Z " />
<path stroke="none" fill="none" id="square2" d="M244.6 -146.3 L242.9 -147.3 L241.2 -148.3 L239.6 -149.2 L237.9 -150.2 L236.2 -151.2 L234.5 -152.1 L232.8 -153.1 L231.1 -154.1 L229.4 -155 L227.7 -156 L226 -157 L224.3 -157.9 L222.6 -158.9 L221 -159.9 L219.3 -160.8 L217.6 -161.8 L215.9 -162.8 L214.2 -163.7 L212.5 -164.7 L213.5 -166.4 L214.4 -168.1 L215.4 -169.8 L216.4 -171.5 L217.3 -173.2 L218.3 -174.8 L219.3 -176.5 L220.2 -178.2 L221.2 -179.9 L222.2 -181.6 L223.1 -183.3 L224.1 -185 L225.1 -186.7 L226 -188.4 L227 -190.1 L228 -191.8 L228.9 -193.5 L229.9 -195.1 L230.9 -196.8 L232.6 -195.9 L234.2 -194.9 L235.9 -193.9 L237.6 -193 L239.3 -192 L241 -191 L242.7 -190.1 L244.4 -189.1 L246.1 -188.1 L247.8 -187.2 L249.5 -186.2 L251.2 -185.2 L252.9 -184.3 L254.5 -183.3 L256.2 -182.3 L257.9 -181.4 L259.6 -180.4 L261.3 -179.4 L263 -178.5 L262 -176.8 L261.1 -175.1 L260.1 -173.4 L259.1 -171.7 L258.2 -170 L257.2 -168.3 L256.2 -166.6 L255.3 -164.9 L254.3 -163.2 L253.3 -161.6 L252.4 -159.9 L251.4 -158.2 L250.4 -156.5 L249.5 -154.8 L248.5 -153.1 L247.5 -151.4 L246.6 -149.7 L245.6 -148 L244.6 -146.3 Z " />
<path stroke="rgb(255,250,159)" stroke-opacity="1" fill="rgb(255,250,159)" fill-opacity="1" id="square3" d="M32.49 -12.44 L30.72 -11.61 L28.95 -10.78 L27.18 -9.951 L25.4 -9.122 L23.63 -8.294 L21.86 -7.465 L20.09 -6.636 L18.32 -5.808 L16.55 -4.979 L14.77 -4.15 L13 -3.322 L11.23 -2.493 L9.46 -1.664 L7.688 -0.8358 L5.916 -0.007121 L4.145 0.8215 L2.373 1.65 L0.6013 2.479 L-1.17 3.308 L-1.999 1.536 L-2.828 -0.2358 L-3.656 -2.008 L-4.485 -3.779 L-5.314 -5.551 L-6.142 -7.323 L-6.971 -9.094 L-7.8 -10.87 L-8.628 -12.64 L-9.457 -14.41 L-10.29 -16.18 L-11.11 -17.95 L-11.94 -19.72 L-12.77 -21.5 L-13.6 -23.27 L-14.43 -25.04 L-15.26 -26.81 L-16.09 -28.58 L-16.92 -30.35 L-15.14 -31.18 L-13.37 -32.01 L-11.6 -32.84 L-9.828 -33.67 L-8.057 -34.5 L-6.285 -35.33 L-4.513 -36.16 L-2.742 -36.98 L-0.9699 -37.81 L0.8018 -38.64 L2.574 -39.47 L4.345 -40.3 L6.117 -41.13 L7.889 -41.96 L9.66 -42.78 L11.43 -43.61 L13.2 -44.44 L14.98 -45.27 L16.75 -46.1 L17.58 -44.33 L18.4 -42.56 L19.23 -40.78 L20.06 -39.01 L20.89 -37.24 L21.72 -35.47 L22.55 -33.7 L23.38 -31.93 L24.2 -30.15 L25.03 -28.38 L25.86 -26.61 L26.69 -24.84 L27.52 -23.07 L28.35 -21.3 L29.18 -19.52 L30.01 -17.75 L30.83 -15.98 L31.66 -14.21 L32.49 -12.44 Z " />
<path stroke="rgb(244,227,211)" stroke-opacity="1" fill="rgb(244,227,211)" fill-opacity="1" id="container" d="M82.5 87.99 L82.47 90.09 L82.4 92.17 L82.27 94.24 L82.09 96.3 L81.86 98.34 L81.58 100.4 L81.25 102.4 L80.87 104.4 L80.45 106.3 L79.98 108.3 L79.46 110.2 L78.9 112.2 L78.29 114.1 L77.64 115.9 L76.95 117.8 L76.21 119.6 L75.43 121.5 L74.6 123.3 L73.74 125 L72.83 126.8 L71.89 128.5 L70.9 130.2 L69.88 131.9 L68.82 133.5 L67.72 135.1 L66.58 136.7 L65.41 138.3 L64.2 139.8 L62.96 141.3 L61.68 142.8 L60.37 144.2 L59.02 145.6 L57.64 147 L56.23 148.4 L54.79 149.7 L53.32 150.9 L51.82 152.2 L50.28 153.4 L48.72 154.6 L47.13 155.7 L45.52 156.8 L43.87 157.9 L42.2 158.9 L40.51 159.9 L38.78 160.8 L37.04 161.7 L35.27 162.6 L33.47 163.4 L31.66 164.2 L29.82 164.9 L27.96 165.6 L26.08 166.3 L24.17 166.9 L22.25 167.5 L20.31 168 L18.36 168.4 L16.38 168.9 L14.39 169.2 L12.37 169.6 L10.35 169.8 L8.307 170.1 L6.251 170.3 L4.181 170.4 L2.097 170.5 L0 170.5 L-2.097 170.5 L-4.181 170.4 L-6.251 170.3 L-8.307 170.1 L-10.35 169.8 L-12.37 169.6 L-14.38 169.2 L-16.38 168.9 L-18.36 168.4 L-20.31 168 L-22.25 167.5 L-24.17 166.9 L-26.08 166.3 L-27.96 165.6 L-29.82 164.9 L-31.66 164.2 L-33.47 163.4 L-35.27 162.6 L-37.04 161.7 L-38.78 160.8 L-40.51 159.9 L-42.2 158.9 L-43.87 157.9 L-45.52 156.8 L-47.13 155.7 L-48.72 154.6 L-50.28 153.4 L-51.82 152.2 L-53.32 150.9 L-54.79 149.7 L-56.23 148.4 L-57.64 147 L-59.02 145.6 L-60.37 144.2 L-61.68 142.8 L-62.96 141.3 L-64.2 139.8 L-65.41 138.3 L-66.58 136.7 L-67.72 135.1 L-68.82 133.5 L-69.88 131.9 L-70.9 130.2 L-71.89 128.5 L-72.83 126.8 L-73.74 125 L-74.6 123.3 L-75.43 121.5 L-76.21 119.6 L-76.95 117.8 L-77.64 115.9 L-78.29 114.1 L-78.9 112.2 L-79.46 110.2 L-79.98 108.3 L-80.45 106.3 L-80.87 104.4 L-81.25 102.4 L-81.58 100.4 L-81.86 98.34 L-82.09 96.3 L-82.27 94.24 L-82.4 92.17 L-82.47 90.09 L-82.5 87.99 L-82.47 85.89 L-82.4 83.81 L-82.27 81.74 L-82.09 79.68 L-81.86 77.64 L-81.58 75.62 L-81.25 73.61 L-80.87 71.61 L-80.45 69.64 L-79.98 67.68 L-79.46 65.74 L-78.9 63.82 L-78.29 61.91 L-77.64 60.03 L-76.95 58.17 L-76.21 56.33 L-75.43 54.52 L-74.6 52.72 L-73.74 50.95 L-72.83 49.21 L-71.89 47.49 L-70.9 45.79 L-69.88 44.12 L-68.82 42.47 L-67.72 40.86 L-66.58 39.27 L-65.41 37.71 L-64.2 36.17 L-62.96 34.67 L-61.68 33.2 L-60.37 31.76 L-59.02 30.35 L-57.64 28.97 L-56.23 27.62 L-54.79 26.31 L-53.32 25.03 L-51.82 23.79 L-50.28 22.58 L-48.72 21.41 L-47.13 20.27 L-45.52 19.17 L-43.87 18.11 L-42.2 17.09 L-40.51 16.1 L-38.78 15.16 L-37.04 14.25 L-35.27 13.39 L-33.47 12.56 L-31.66 11.78 L-29.82 11.04 L-27.96 10.35 L-26.08 9.697 L-24.17 9.089 L-22.25 8.527 L-20.31 8.011 L-18.36 7.54 L-16.38 7.117 L-14.38 6.741 L-12.37 6.413 L-10.35 6.134 L-8.307 5.904 L-6.251 5.724 L-4.181 5.595 L-2.097 5.517 L0 5.491 L2.097 5.517 L4.181 5.595 L6.251 5.724 L8.307 5.904 L10.35 6.134 L12.37 6.413 L14.39 6.741 L16.38 7.117 L18.36 7.54 L20.31 8.011 L22.25 8.527 L24.17 9.089 L26.08 9.697 L27.96 10.35 L29.82 11.04 L31.66 11.78 L33.47 12.56 L35.27 13.39 L37.04 14.25 L38.78 15.16 L40.51 16.1 L42.2 17.09 L43.87 18.11 L45.52 19.17 L47.13 20.27 L48.72 21.41 L50.28 22.58 L51.82 23.79 L53.32 25.03 L54.79 26.31 L56.23 27.62 L57.64 28.97 L59.02 30.35 L60.37 31.76 L61.68 33.2 L62.96 34.67 L64.2 36.17 L65.41 37.71 L66.58 39.27 L67.72 40.86 L68.82 42.47 L69.88 44.12 L70.9 45.79 L71.89 47.49 L72.83 49.21 L73.74 50.95 L74.6 52.72 L75.43 54.52 L76.21 56.33 L76.95 58.17 L77.64 60.03 L78.29 61.91 L78.9 63.82 L79.46 65.74 L79.98 67.68 L80.45 69.64 L80.87 71.61 L81.25 73.61 L81.58 75.62 L81.86 77.64 L82.09 79.68 L82.27 81.74 L82.4 83.81 L82.47 85.89 L82.5 87.99 Z " />
<path stroke="rgb(245,172,181)" stroke-opacity="1" fill="rgb(245,172,181)" fill-opacity="1" id="crack1" d="M9.5 46.19 L10.2 44.19 L10.9 42.19 L10.8 40.31 L10.7 38.42 L10.6 36.53 L10.5 34.65 L10.4 32.76 L10.3 30.88 L10.2 28.99 L9.9 26.39 L7.633 26.02 L5.367 25.66 L3.1 25.29 L2.97 23.32 L2.84 21.35 L2.71 19.38 L2.58 17.41 L2.45 15.44 L2.32 13.47 L2.19 11.5 L2.06 9.531 L1.93 7.561 L1.8 5.591 L0 5.591 L0.1273 7.527 L0.2545 9.464 L0.3818 11.4 L0.5091 13.34 L0.6364 15.27 L0.7636 17.21 L0.8909 19.15 L1.018 21.08 L1.145 23.02 L1.273 24.95 L1.4 26.89 L3.567 27.26 L5.733 27.62 L7.9 27.99 L8.043 30.01 L8.186 32.02 L8.329 34.03 L8.471 36.05 L8.614 38.06 L8.757 40.08 L8.9 42.09 L8.35 43.94 L7.8 45.79 L9.5 46.19 Z " />
<path stroke="rgb(245,172,181)" stroke-opacity="1" fill="rgb(245,172,181)" fill-opacity="1" id="crack2" d="M1.8 58.79 L2.588 60.72 L3.375 62.64 L4.163 64.57 L4.95 66.49 L5.738 68.42 L6.525 70.34 L7.313 72.27 L8.1 74.19 L6.35 75.54 L4.6 76.89 L2.85 78.24 L1.1 79.59 L2.3 81.49 L4.02 80.19 L5.74 78.89 L7.46 77.59 L9.18 76.29 L10.9 74.99 L10.14 73.22 L9.389 71.46 L8.633 69.69 L7.878 67.92 L7.122 66.16 L6.367 64.39 L5.611 62.62 L4.856 60.86 L4.1 59.09 L4.871 57.25 L5.643 55.41 L6.414 53.56 L7.186 51.72 L7.957 49.88 L8.729 48.03 L9.5 46.19 L7.8 45.79 L6.943 47.75 L6.086 49.71 L5.229 51.66 L4.371 53.62 L3.514 55.58 L2.657 57.53 L1.8 59.49 L1.8 58.79 Z " />
<path stroke="rgb(245,172,181)" stroke-opacity="1" fill="rgb(245,172,181)" fill-opacity="1" id="crack4" d="M1.9 106.8 L1.725 104.9 L1.55 102.9 L1.375 101 L1.2 99.1 L-0.08749 97.7 L-1.375 96.3 L-2.662 94.9 L-3.95 93.5 L-5.237 92.1 L-6.525 90.7 L-7.812 89.3 L-9.1 87.9 L-7.6 86.65 L-6.1 85.41 L-4.6 84.17 L-3.1 82.92 L-1.6 81.68 L-0.09998 80.44 L1.4 79.2 L2.5 81.4 L1 82.48 L-0.5 83.56 L-2 84.65 L-3.5 85.73 L-5 86.81 L-6.5 87.9 L-5.143 89.32 L-3.786 90.75 L-2.429 92.18 L-1.071 93.61 L0.2857 95.04 L1.643 96.47 L3 97.9 L3.35 100 L3.7 102.1 L4.05 104.3 L4.4 106.4 L1.9 106.8 Z " />
<path stroke="rgb(245,172,181)" stroke-opacity="1" fill="rgb(245,172,181)" fill-opacity="1" id="crack3" d="M10.9 169.7 L9.5 168.2 L8.1 166.6 L6.7 165.1 L6.175 163.3 L5.65 161.5 L5.125 159.7 L4.6 157.9 L3.338 156.2 L2.075 154.6 L0.8125 152.9 L-0.45 151.3 L-1.712 149.6 L-2.975 148 L-4.237 146.3 L-5.5 144.7 L-4.05 143.4 L-2.6 142 L-1.15 140.7 L0.3 139.4 L1.75 138.1 L3.2 136.7 L4.65 135.4 L6.1 134.1 L5.969 132 L5.838 130 L5.708 127.9 L5.577 125.9 L5.446 123.8 L5.315 121.8 L5.185 119.7 L5.054 117.7 L4.923 115.6 L4.792 113.6 L4.662 111.5 L4.531 109.4 L4.4 107.4 L1.9 107.8 L2.069 109.8 L2.238 111.7 L2.408 113.7 L2.577 115.7 L2.746 117.7 L2.915 119.7 L3.085 121.6 L3.254 123.6 L3.423 125.6 L3.592 127.6 L3.762 129.5 L3.931 131.5 L4.1 133.5 L2.538 134.8 L0.975 136.2 L-0.5875 137.5 L-2.15 138.9 L-3.712 140.2 L-5.275 141.6 L-6.837 142.9 L-8.4 144.3 L-7.178 146 L-5.956 147.6 L-4.733 149.3 L-3.511 151 L-2.289 152.6 L-1.067 154.3 L0.1556 156 L1.378 157.6 L2.6 159.3 L3.125 161 L3.65 162.8 L4.175 164.5 L4.7 166.3 L5.9 167.6 L7.1 168.8 L8.3 170.1 L10.9 169.7 Z " />
<path stroke="none" fill="none" id="triA_0-7" d="M-8.94 22.16 L-9.94 21.26 L-8.94 19.26 L-8.94 22.16 Z " />
<path stroke="none" fill="none" id="triA_3" d="M-45.29 19.28 L-43.29 20.28 L-45.39 21.18 L-45.29 19.28 Z " />
<path stroke="none" fill="none" id="triA_1-7" d="M-23.27 19.91 L-21.4 19.82 L-19.52 19.74 L-17.65 19.65 L-15.77 19.56 L-13.9 19.47 L-12.02 19.39 L-10.15 19.3 L-8.272 19.21 L-10.15 18.92 L-12.02 18.64 L-13.9 18.35 L-15.77 18.06 L-17.65 17.77 L-19.52 17.49 L-21.4 17.2 L-23.27 16.91 L-23.27 19.91 Z " />
<path stroke="none" fill="none" id="triA_1-9" d="M-4.89 28.31 L-5.89 26.31 L-4.89 25.31 L-4.89 28.31 Z " />
<path stroke="none" fill="none" id="triA_4-2" d="M-63.79 41.5 L-62.34 41.95 L-60.89 42.4 L-62.34 43.4 L-63.79 44.4 L-63.79 41.5 Z " />
<path stroke="none" fill="none" id="triA_2-8" d="M-32.12 25.22 L-31.12 27.22 L-32.12 28.12 L-32.12 25.22 Z " />
<path stroke="none" fill="none" id="triA_2-9" d="M-32.32 28.12 L-34.32 27.12 L-32.32 26.12 L-32.32 28.12 Z " />
<path stroke="none" fill="none" id="triA_4-6" d="M-63.29 31.6 L-61.29 31.7 L-63.29 33.6 L-63.29 31.6 Z " />
<path stroke="none" fill="none" id="triA_5-4" d="M-79.16 26.19 L-78.16 28.19 L-79.16 29.19 L-79.16 26.19 Z " />
<path stroke="none" fill="none" id="triA_5-5" d="M-70.57 13.11 L-72.47 11.11 L-70.47 11.21 L-70.57 13.11 Z " />
<path stroke="none" fill="none" id="triA_4-8" d="M-57.19 30.6 L-55.39 31.6 L-57.29 33.5 L-57.19 30.6 Z " />
<path stroke="none" fill="none" id="triA_4-9" d="M-54.1 27.82 L-56.1 27.82 L-54.1 25.92 L-54.1 27.82 Z " />
<path stroke="none" fill="none" id="triA_1-16" d="M-6.472 24.01 L-8.347 24.1 L-10.22 24.19 L-12.1 24.27 L-13.97 24.36 L-15.85 24.45 L-17.72 24.54 L-19.6 24.62 L-21.47 24.71 L-19.6 24.87 L-17.72 25.04 L-15.85 25.2 L-13.97 25.36 L-12.1 25.52 L-10.22 25.69 L-8.347 25.85 L-6.472 26.01 L-6.472 24.01 Z " />
<path stroke="none" fill="none" id="triA_1-17" d="M-18.07 18.41 L-20.07 17.41 L-18.07 16.41 L-18.07 18.41 Z " />
<path stroke="none" fill="none" id="triA_3-12" d="M-48.09 35.48 L-46.19 37.48 L-48.19 38.48 L-48.14 36.98 L-48.09 35.48 Z " />
<path stroke="none" fill="none" id="triA_7-5" d="M-47.91 24.49 L-49.81 22.39 L-47.81 21.49 L-47.86 22.99 L-47.91 24.49 Z " />
<path stroke="none" fill="none" id="triA_0-2-3_2_" d="M-13.54 2.257 L-15.04 2.757 L-16.54 3.257 L-13.54 2.257 Z " />
<path stroke="none" fill="none" id="triA_1-2-3" d="M-11.47 42.11 L-9.472 43.01 L-11.57 45.01 L-11.47 42.11 Z " />
<path stroke="none" fill="none" id="triA_0-7-2" d="M-5.04 27.16 L-6.94 26.16 L-4.94 24.16 L-4.99 25.66 L-5.04 27.16 Z " />
<path stroke="none" fill="none" id="triA_3-2-3" d="M-37.59 32.38 L-36.69 33.28 L-37.69 34.28 L-37.59 32.38 Z " />
<path stroke="none" fill="none" id="triA_1-8-2" d="M-21.47 27.01 L-19.57 28.01 L-21.57 29.91 L-21.47 27.01 Z " />
<path stroke="none" fill="none" id="triA_2-6-2" d="M-31.42 21.12 L-29.42 22.12 L-31.42 23.12 L-31.42 21.12 Z " />
<path stroke="none" fill="none" id="triA_4-2-3" d="M-59.29 42.2 L-59.19 39.3 L-58.29 40.3 L-59.29 42.2 Z " />
<path stroke="none" fill="none" id="triA_5-2-2" d="M-64.13 24.88 L-62.13 25.98 L-64.13 26.88 L-64.13 24.88 Z " />
<path stroke="none" fill="none" id="triA_0-13-2" d="M6.205 35.17 L4.205 35.07 L6.205 33.27 L6.205 35.17 Z " />
<path stroke="none" fill="none" id="triA_3-7-2" d="M-33.84 16.72 L-35.84 14.72 L-33.84 14.72 L-33.84 16.72 Z " />
<path stroke="none" fill="none" id="triA_0-14-2" d="M-16.74 5.357 L-14.74 7.357 L-16.74 7.257 L-16.74 5.357 Z " />
<path stroke="none" fill="none" id="triA_0-15-2" d="M-4.74 5.757 L-6.74 3.757 L-4.74 3.757 L-4.74 5.757 Z " />
<path stroke="none" fill="none" id="triA_1-13-2" d="M-14.97 35.71 L-16.97 34.71 L-14.87 33.71 L-14.97 35.71 Z " />
<path stroke="none" fill="none" id="triA_4-7-2" d="M-63.79 30.6 L-65.79 28.6 L-63.79 27.6 L-63.79 30.6 Z " />
<path stroke="none" fill="none" id="triA_1-14-2" d="M-10.07 38.21 L-8.172 39.21 L-9.172 40.21 L-10.07 38.21 Z " />
<path stroke="none" fill="none" id="triA_4-11-2" d="M-54.6 14.62 L-56.5 12.52 L-54.5 11.62 L-54.55 13.12 L-54.6 14.62 Z " />
<path stroke="none" fill="none" id="triA_9-2" d="M-16.58 24.91 L-15.58 25.81 L-17.58 26.71 L-16.58 24.91 Z " />
<path stroke="none" fill="none" id="triA_8-3-2" d="M-29.43 7.872 L-31.33 5.872 L-29.33 4.872 L-29.38 6.372 L-29.43 7.872 Z " />
<path stroke="none" fill="none" id="triA_0-4-3" d="M-6.74 27.96 L-4.74 28.96 L-6.84 29.96 L-6.74 27.96 Z " />
<path stroke="none" fill="none" id="triA_1-2-4" d="M-17.47 7.512 L-15.57 8.512 L-17.47 9.512 L-17.47 7.512 Z " />
<path stroke="none" fill="none" id="triA_2-3-3" d="M-22.12 44.02 L-20.32 46.02 L-22.22 47.02 L-22.17 45.52 L-22.12 44.02 Z " />
<path stroke="none" fill="none" id="triA_2-3-4" d="M-20.52 33.02 L-22.52 33.02 L-20.42 31.12 L-20.52 33.02 Z " />
<path stroke="none" fill="none" id="triA_0-9-3" d="M-4.64 30.76 L-6.09 29.71 L-7.54 28.66 L-6.04 28.21 L-4.54 27.76 L-4.59 29.26 L-4.64 30.76 Z " />
<path stroke="none" fill="none" id="triA_0-10-3" d="M0.9052 10.47 L2.805 11.47 L0.8052 12.37 L0.9052 10.47 Z " />
<path stroke="none" fill="none" id="triA_1-9-3" d="M-5.82 5.762 L-6.82 4.662 L-5.82 3.762 L-5.82 5.762 Z " />
<path stroke="none" fill="none" id="triA_3-4-3" d="M-42.79 15.08 L-39.89 15.08 L-41.39 16.03 L-42.89 16.98 L-42.79 15.08 Z " />
<path stroke="none" fill="none" id="triA_4-3-4" d="M-57.99 15.1 L-59.99 15.1 L-58.89 13.2 L-57.99 15.1 Z " />
<path stroke="none" fill="none" id="triA_1-10-3" d="M-22.87 36.91 L-20.97 37.91 L-22.97 39.91 L-22.92 38.41 L-22.87 36.91 Z " />
<path stroke="none" fill="none" id="triA_0-13-3" d="M-3.44 24.96 L-4.44 23.96 L-3.44 23.06 L-3.44 24.96 Z " />
<path stroke="none" fill="none" id="triA_3-6-3" d="M-36.09 10.98 L-34.09 12.08 L-36.19 13.98 L-36.14 12.48 L-36.09 10.98 Z " />
<path stroke="none" fill="none" id="triA_6-3-3" d="M-68.71 61.27 L-70.61 63.17 L-70.61 60.27 L-68.71 61.27 Z " />
<path stroke="none" fill="none" id="triA_1-12-3" d="M-16.37 31.61 L-16.37 29.71 L-14.37 30.61 L-16.37 31.61 Z " />
<path stroke="none" fill="none" id="triA_2-11-3" d="M-17.17 11.77 L-19.17 10.77 L-17.07 8.769 L-17.12 10.27 L-17.17 11.77 Z " />
<path stroke="none" fill="none" id="triA_3-9-3" d="M-25.61 39.68 L-27.51 38.78 L-25.51 37.78 L-25.61 39.68 Z " />
<path stroke="none" fill="none" id="triA_5-4-3" d="M-70.87 45.51 L-71.87 47.41 L-71.87 45.51 L-70.87 45.51 Z " />
<path stroke="none" fill="none" id="triA_5-5-3" d="M-71.57 29.31 L-72.57 27.31 L-70.57 27.41 L-71.57 29.31 Z " />
<path stroke="none" fill="none" id="triA_6-3-4" d="M-49.52 20.72 L-50.52 19.72 L-49.52 17.82 L-49.52 20.72 Z " />
<path stroke="none" fill="none" id="triA_1-14-3" d="M-13.07 9.612 L-11.07 10.71 L-13.17 11.61 L-13.07 9.612 Z " />
<path stroke="none" fill="none" id="triA_1-15-3" d="M-12.17 12.11 L-14.17 11.21 L-12.17 10.21 L-12.17 12.11 Z " />
<path stroke="none" fill="none" id="triA_6-4-3" d="M-71.47 33.76 L-70.47 34.76 L-71.47 35.76 L-71.47 33.76 Z " />
<path stroke="none" fill="none" id="triA_7-2-4" d="M-39.17 18.37 L-37.17 19.37 L-39.17 20.37 L-39.17 18.37 Z " />
<path stroke="none" fill="none" id="triA_0-18-3" d="M-14.04 3.857 L-12.04 4.957 L-14.04 6.857 L-14.04 5.357 L-14.04 3.857 Z " />
<path stroke="none" fill="none" id="triA_1-16-3" d="M-0.5226 12.93 L1.477 14.03 L-0.5226 14.93 L-0.5226 12.93 Z " />
<path stroke="none" fill="none" id="triA_4-10-3" d="M-60.99 37.7 L-58.99 38.7 L-60.99 39.6 L-60.99 37.7 Z " />
<path stroke="none" fill="none" id="triA_5-8-3" d="M-78.86 51.09 L-76.86 52.19 L-78.86 53.09 L-78.86 51.09 Z " />
<path stroke="none" fill="none" id="triA_4-11-3" d="M-64.89 36.9 L-65.79 35.9 L-64.79 33.9 L-64.84 35.4 L-64.89 36.9 Z " />
<path stroke="none" fill="none" id="triA_5-9-3" d="M-70.07 23.11 L-71.97 21.11 L-69.97 20.11 L-70.02 21.61 L-70.07 23.11 Z " />
<path stroke="none" fill="none" id="triA_6-7-3" d="M-55.02 43.32 L-55.92 41.32 L-55.02 40.32 L-55.02 43.32 Z " />
<path stroke="none" fill="none" id="triA_0-4-4_1_" d="M-0.09483 1.074 L-2.095 1.074 L-0.09483 1.074 Z " />
<path stroke="none" fill="none" id="triA_0-3-5" d="M-12.94 17.66 L-14.94 16.66 L-12.94 15.66 L-12.94 17.66 Z " />
<path stroke="none" fill="none" id="triA_0-8-4" d="M-5.64 16.76 L-3.64 16.76 L-5.64 18.66 L-5.64 16.76 Z " />
<path stroke="none" fill="none" id="triA_4-4-4" d="M-66.79 36.6 L-65.79 38.6 L-66.79 38.6 L-66.79 36.6 Z " />
<path stroke="none" fill="none" id="triA_2-6-4" d="M-30.52 19.62 L-28.52 20.62 L-30.02 21.07 L-31.52 21.52 L-30.52 19.62 Z " />
<path stroke="none" fill="none" id="triA_1-9-4" d="M-13.17 7.212 L-14.17 6.212 L-13.07 4.312 L-13.17 7.212 Z " />
<path stroke="none" fill="none" id="triA_3-4-5" d="M-41.39 26.88 L-40.39 28.88 L-41.39 29.88 L-41.39 26.88 Z " />
<path stroke="none" fill="none" id="triA_4-2-5" d="M-67.89 10.4 L-65.89 11.4 L-67.89 13.3 L-67.89 10.4 Z " />
<path stroke="none" fill="none" id="triA_1-10-4" d="M-10.37 7.112 L-9.472 9.212 L-11.47 10.11 L-10.92 8.612 L-10.37 7.112 Z " />
<path stroke="none" fill="none" id="triA_0-3_1_" d="M-8.74 31.66 L-9.64 30.66 L-8.64 29.66 L-8.74 31.66 Z " />
<path stroke="none" fill="none" id="triA_1-7_1_" d="M-17.27 20.71 L-19.27 19.71 L-17.17 17.71 L-17.22 19.21 L-17.27 20.71 Z " />
<path stroke="none" fill="none" id="triA_1-9_1_" d="M-29.27 12.11 L-30.27 10.11 L-29.27 9.112 L-29.27 12.11 Z " />
<path stroke="none" fill="none" id="triA_4-3_1_" d="M-54.3 21.12 L-56.2 20.22 L-54.2 19.22 L-54.3 21.12 Z " />
<path stroke="none" fill="none" id="triA_2-8_1_" d="M-31.52 33.92 L-30.62 36.02 L-31.62 36.82 L-31.52 33.92 Z " />
<path stroke="none" fill="none" id="triA_2-10_1_" d="M-23.12 30.82 L-21.12 32.82 L-23.12 33.82 L-23.12 30.82 Z " />
<path stroke="none" fill="none" id="triA_3-9_1_" d="M-44.09 31.38 L-45.99 29.48 L-43.99 28.58 L-44.09 31.38 Z " />
<path stroke="none" fill="none" id="triA_1-16_1_" d="M-17.87 4.212 L-15.87 5.212 L-17.87 6.112 L-17.87 4.212 Z " />
<path stroke="none" fill="none" id="triA_1-17_1_" d="M-13.27 32.61 L-15.27 31.51 L-13.17 30.61 L-13.27 32.61 Z " />
<path stroke="none" fill="none" id="triA_3-12_1_" d="M-47.79 37.68 L-45.79 39.78 L-47.79 40.68 L-47.79 37.68 Z " />
<path stroke="none" fill="none" id="triA_5-9_1_" d="M-64.63 41.28 L-66.63 40.18 L-64.63 39.28 L-64.63 41.28 Z " />
<path stroke="none" fill="none" id="triA_7-5_1_" d="M-42.91 33.89 L-44.81 31.79 L-42.81 30.89 L-42.86 32.39 L-42.91 33.89 Z " />
<path stroke="none" fill="none" id="triA_0-2-3_1_" d="M-3.74 28.36 L-2.24 29.36 L-0.74 30.36 L-2.29 30.81 L-3.84 31.26 L-3.74 28.36 Z " />
<path stroke="none" fill="none" id="triA_0-7-2_1_" d="M-5.34 32.06 L-7.34 31.06 L-5.24 29.06 L-5.29 30.56 L-5.34 32.06 Z " />
<path stroke="none" fill="none" id="triB_0-7_1_" d="M10.38 65.94 L9.385 65.04 L10.38 63.04 L10.38 65.94 Z " />
<path stroke="none" fill="none" id="triB_3_1_" d="M36.26 71.93 L38.26 72.93 L36.16 73.83 L36.26 71.93 Z " />
<path stroke="none" fill="none" id="triB_1-7_3_" d="M11.78 68.39 L13.66 68.3 L15.53 68.22 L17.41 68.13 L19.28 68.04 L21.16 67.95 L23.03 67.87 L24.91 67.78 L26.78 67.69 L24.91 67.4 L23.03 67.12 L21.16 66.83 L19.28 66.54 L17.41 66.25 L15.53 65.97 L13.66 65.68 L11.78 65.39 L11.78 68.39 Z " />
<path stroke="none" fill="none" id="triB_1-9_3_" d="M27.08 73.29 L26.08 71.29 L27.08 70.29 L27.08 73.29 Z " />
<path stroke="none" fill="none" id="triB_4-2_1_" d="M56.63 102.3 L58.08 102.7 L59.53 103.2 L58.08 104.2 L56.63 105.2 L56.63 102.3 Z " />
<path stroke="none" fill="none" id="triB_2-8_3_" d="M23.36 76.93 L24.36 78.93 L23.36 79.83 L23.36 76.93 Z " />
<path stroke="none" fill="none" id="triB_2-9_1_" d="M19.56 75.93 L17.56 74.93 L19.56 73.93 L19.56 75.93 Z " />
<path stroke="none" fill="none" id="triB_4-6_3_" d="M58.23 90.46 L60.23 90.56 L58.23 92.46 L58.23 90.46 Z " />
<path stroke="none" fill="none" id="triB_5-4_1_" d="M64.55 88.67 L65.55 90.67 L64.55 91.67 L64.55 88.67 Z " />
<path stroke="none" fill="none" id="triB_5-5_1_" d="M80.65 57.71 L78.75 55.71 L80.75 55.81 L80.65 57.71 Z " />
<path stroke="none" fill="none" id="triB_4-8_1_" d="M62.13 89.86 L63.93 90.86 L62.03 92.76 L62.13 89.86 Z " />
<path stroke="none" fill="none" id="triB_4-9_1_" d="M68.75 83.17 L66.75 83.17 L68.75 81.27 L68.75 83.17 Z " />
<path stroke="none" fill="none" id="triB_1-16_3_" d="M26.98 69.59 L25.11 69.68 L23.23 69.77 L21.36 69.85 L19.48 69.94 L17.61 70.03 L15.73 70.12 L13.86 70.2 L11.98 70.29 L13.86 70.45 L15.73 70.62 L17.61 70.78 L19.48 70.94 L21.36 71.1 L23.23 71.27 L25.11 71.43 L26.98 71.59 L26.98 69.59 Z " />
<path stroke="none" fill="none" id="triB_1-17_3_" d="M13.88 62.66 L11.88 61.66 L13.88 60.66 L13.88 62.66 Z " />
<path stroke="none" fill="none" id="triB_3-12_3_" d="M36.8 88.75 L38.7 90.75 L36.7 91.75 L36.75 90.25 L36.8 88.75 Z " />
<path stroke="none" fill="none" id="triB_7-5_3_" d="M39.81 74.39 L37.91 72.29 L39.91 71.39 L39.86 72.89 L39.81 74.39 Z " />
<path stroke="none" fill="none" id="triB_0-2-3_4_" d="M10.44 46.56 L8.94 47.06 L7.44 47.56 L10.44 46.56 Z " />
<path stroke="none" fill="none" id="triB_1-2-3_1_" d="M20.38 89.59 L22.38 90.49 L20.28 92.49 L20.38 89.59 Z " />
<path stroke="none" fill="none" id="triB_0-7-2_3_" d="M16.38 72.84 L14.48 71.84 L16.48 69.84 L16.43 71.34 L16.38 72.84 Z " />
<path stroke="none" fill="none" id="triB_3-2-3_1_" d="M47.1 85.15 L48 86.05 L47 87.05 L47.1 85.15 Z " />
<path stroke="none" fill="none" id="triB_1-8-2_1_" d="M11.08 73.69 L12.98 74.69 L10.98 76.59 L11.08 73.69 Z " />
<path stroke="none" fill="none" id="triB_2-6-2_1_" d="M25.06 72.53 L27.06 73.53 L25.06 74.53 L25.06 72.53 Z " />
<path stroke="none" fill="none" id="triB_4-2-3_1_" d="M61.83 101.3 L61.93 98.36 L62.83 99.36 L61.83 101.3 Z " />
<path stroke="none" fill="none" id="triB_5-2-2_1_" d="M81.47 74.78 L83.47 75.88 L81.47 76.78 L81.47 74.78 Z " />
<path stroke="none" fill="none" id="triB_0-13-2_1_" d="M28.88 81.54 L26.88 81.44 L28.88 79.64 L28.88 81.54 Z " />
<path stroke="none" fill="none" id="triB_3-7-2_1_" d="M50.23 66.02 L48.23 64.02 L50.23 64.02 L50.23 66.02 Z " />
<path stroke="none" fill="none" id="triB_0-14-2_1_" d="M4.24 50.96 L6.24 52.96 L4.24 52.86 L4.24 50.96 Z " />
<path stroke="none" fill="none" id="triB_0-15-2_1_" d="M16.54 47.76 L14.54 45.76 L16.54 45.76 L16.54 47.76 Z " />
<path stroke="none" fill="none" id="triB_1-13-2_1_" d="M19.28 80.49 L17.28 79.49 L19.38 78.49 L19.28 80.49 Z " />
<path stroke="none" fill="none" id="triB_4-7-2_1_" d="M56.03 92.16 L54.03 90.16 L56.03 89.16 L56.03 92.16 Z " />
<path stroke="none" fill="none" id="triB_1-14-2_1_" d="M25.88 82.69 L27.78 83.69 L26.78 84.69 L25.88 82.69 Z " />
<path stroke="none" fill="none" id="triB_4-11-2_1_" d="M69.78 55.63 L67.88 53.53 L69.88 52.63 L69.83 54.13 L69.78 55.63 Z " />
<path stroke="none" fill="none" id="triB_9-2_1_" d="M19.04 70.42 L20.04 71.32 L18.04 72.22 L19.04 70.42 Z " />
<path stroke="none" fill="none" id="triB_8-3-2_1_" d="M30.85 53.37 L28.95 51.37 L30.95 50.37 L30.9 51.87 L30.85 53.37 Z " />
<path stroke="none" fill="none" id="triB_0-4-3_1_" d="M16.78 74.34 L18.78 75.34 L16.68 76.34 L16.78 74.34 Z " />
<path stroke="none" fill="none" id="triB_1-2-4_1_" d="M15.32 53.2 L17.22 54.2 L15.32 55.2 L15.32 53.2 Z " />
<path stroke="none" fill="none" id="triB_2-3-3_1_" d="M31.26 94.03 L33.06 96.03 L31.16 97.03 L31.21 95.53 L31.26 94.03 Z " />
<path stroke="none" fill="none" id="triB_2-3-4_1_" d="M34.46 82.03 L32.46 82.03 L34.56 80.13 L34.46 82.03 Z " />
<path stroke="none" fill="none" id="triB_0-9-3_1_" d="M15.28 74.44 L13.83 73.39 L12.38 72.34 L13.88 71.89 L15.38 71.44 L15.33 72.94 L15.28 74.44 Z " />
<path stroke="none" fill="none" id="triB_0-10-3_1_" d="M20.74 54.06 L22.64 55.06 L20.64 55.96 L20.74 54.06 Z " />
<path stroke="none" fill="none" id="triB_1-9-3_1_" d="M26.42 47.7 L25.42 46.6 L26.42 45.7 L26.42 47.7 Z " />
<path stroke="none" fill="none" id="triB_3-4-3_1_" d="M42.14 57.79 L45.04 57.79 L43.54 58.74 L42.04 59.69 L42.14 57.79 Z " />
<path stroke="none" fill="none" id="triB_4-3-4_1_" d="M67.58 57.73 L65.58 57.73 L66.68 55.83 L67.58 57.73 Z " />
<path stroke="none" fill="none" id="triB_1-10-3_1_" d="M10.48 84.39 L12.38 85.39 L10.38 87.39 L10.43 85.89 L10.48 84.39 Z " />
<path stroke="none" fill="none" id="triB_0-13-3_1_" d="M18.08 70.74 L17.08 69.74 L18.08 68.84 L18.08 70.74 Z " />
<path stroke="none" fill="none" id="triB_3-6-3_1_" d="M49.54 56.69 L51.54 57.79 L49.44 59.69 L49.49 58.19 L49.54 56.69 Z " />
<path stroke="none" fill="none" id="triB_6-3-3_1_" d="M59.48 122.6 L57.58 124.5 L57.58 121.6 L59.48 122.6 Z " />
<path stroke="none" fill="none" id="triB_1-12-3_1_" d="M15.48 76.19 L15.48 74.29 L17.48 75.19 L15.48 76.19 Z " />
<path stroke="none" fill="none" id="triB_2-11-3_1_" d="M40.69 56.88 L38.69 55.88 L40.79 53.88 L40.74 55.38 L40.69 56.88 Z " />
<path stroke="none" fill="none" id="triB_3-9-3_1_" d="M57.4 91.65 L55.5 90.75 L57.5 89.75 L57.4 91.65 Z " />
<path stroke="none" fill="none" id="triB_5-4-3_1_" d="M73.1 104.4 L74.1 104.4 L73.1 106.3 L73.1 104.4 Z " />
<path stroke="none" fill="none" id="triB_5-5-3_1_" d="M72.71 86.3 L71.71 84.3 L73.71 84.4 L72.71 86.3 Z " />
<path stroke="none" fill="none" id="triB_6-3-4_1_" d="M80.78 61.13 L79.78 60.13 L80.78 58.23 L80.78 61.13 Z " />
<path stroke="none" fill="none" id="triB_1-14-3_1_" d="M20.72 53.3 L22.72 54.4 L20.62 55.3 L20.72 53.3 Z " />
<path stroke="none" fill="none" id="triB_1-15-3_1_" d="M20.72 54.8 L18.72 53.9 L20.72 52.9 L20.72 54.8 Z " />
<path stroke="none" fill="none" id="triB_6-4-3_1_" d="M57.28 95.59 L58.28 96.59 L57.28 97.59 L57.28 95.59 Z " />
<path stroke="none" fill="none" id="triB_7-2-4_1_" d="M53.69 66.86 L55.69 67.86 L53.69 68.86 L53.69 66.86 Z " />
<path stroke="none" fill="none" id="triB_0-18-3_1_" d="M6.34 50.36 L8.34 51.46 L6.34 53.36 L6.34 50.36 Z " />
<path stroke="none" fill="none" id="triB_1-16-3_1_" d="M33.52 56.3 L35.52 57.4 L33.52 58.3 L33.52 56.3 Z " />
<path stroke="none" fill="none" id="triB_4-10-3_1_" d="M58.73 95.76 L60.73 96.76 L58.73 97.66 L58.73 95.76 Z " />
<path stroke="none" fill="none" id="triB_5-8-3_1_" d="M66.85 112.3 L68.85 113.4 L66.85 114.3 L66.85 112.3 Z " />
<path stroke="none" fill="none" id="triB_4-11-3_1_" d="M54.83 97.06 L53.93 96.06 L54.93 94.06 L54.88 95.56 L54.83 97.06 Z " />
<path stroke="none" fill="none" id="triB_5-9-3_1_" d="M76.89 71.75 L74.99 69.75 L76.99 68.75 L76.94 70.25 L76.89 71.75 Z " />
<path stroke="none" fill="none" id="triB_6-7-3_1_" d="M71.74 100.4 L70.84 98.35 L71.74 97.35 L71.74 100.4 Z " />
<path stroke="none" fill="none" id="triB_0-4-4_2_" d="M24.14 43.26 L22.14 43.26 L24.14 43.26 Z " />
<path stroke="none" fill="none" id="triB_0-3-5_1_" d="M10.88 64.34 L8.885 63.34 L10.88 62.34 L10.88 64.34 Z " />
<path stroke="none" fill="none" id="triB_0-8-4_1_" d="M13.84 59.36 L15.84 59.36 L13.84 61.26 L13.84 59.36 Z " />
<path stroke="none" fill="none" id="triB_4-4-4_1_" d="M56.03 97.06 L57.03 99.06 L56.03 99.06 L56.03 97.06 Z " />
<path stroke="none" fill="none" id="triB_2-6-4_1_" d="M22.06 70.43 L24.06 71.43 L22.56 71.88 L21.06 72.33 L22.06 70.43 Z " />
<path stroke="none" fill="none" id="triB_1-9-4_1_" d="M22.22 52.5 L21.22 51.5 L22.32 49.6 L22.22 52.5 Z " />
<path stroke="none" fill="none" id="triB_3-4-5_1_" d="M39.6 82.45 L40.6 84.45 L39.6 85.45 L39.6 82.45 Z " />
<path stroke="none" fill="none" id="triB_4-2-5_1_" d="M59.08 54.43 L61.08 55.43 L59.08 57.33 L59.08 54.43 Z " />
<path stroke="none" fill="none" id="triB_1-10-4_1_" d="M23.62 51.5 L24.52 53.6 L22.52 54.5 L23.07 53 L23.62 51.5 Z " />
<path stroke="none" fill="none" id="triB_0-3_2_" d="M10.48 77.44 L9.585 76.44 L10.58 75.44 L10.48 77.44 Z " />
<path stroke="none" fill="none" id="triB_1-7_2_" d="M15.28 67.79 L13.28 66.79 L15.38 64.79 L15.33 66.29 L15.28 67.79 Z " />
<path stroke="none" fill="none" id="triB_1-9_2_" d="M5.236 54.33 L4.236 52.33 L5.236 51.33 L5.236 54.33 Z " />
<path stroke="none" fill="none" id="triB_4-3_2_" d="M68.37 73.53 L66.47 72.63 L68.47 71.63 L68.37 73.53 Z " />
<path stroke="none" fill="none" id="triB_2-8_2_" d="M22.56 85.33 L23.46 87.43 L22.46 88.23 L22.56 85.33 Z " />
<path stroke="none" fill="none" id="triB_2-10_3_" d="M32.06 80.73 L34.06 82.73 L32.06 83.73 L32.06 80.73 Z " />
<path stroke="none" fill="none" id="triB_3-9_2_" d="M39 87.15 L37.1 85.25 L39.1 84.35 L39 87.15 Z " />
<path stroke="none" fill="none" id="triB_1-16_2_" d="M14.42 49 L16.42 50 L14.42 50.9 L14.42 49 Z " />
<path stroke="none" fill="none" id="triB_1-17_2_" d="M22.68 78.99 L20.68 77.89 L22.78 76.99 L22.68 78.99 Z " />
<path stroke="none" fill="none" id="triB_3-12_2_" d="M34.5 92.95 L36.5 95.05 L34.5 95.95 L34.5 92.95 Z " />
<path stroke="none" fill="none" id="triB_5-9_2_" d="M80.1 102.1 L78.1 101 L80.1 100.1 L80.1 102.1 Z " />
<path stroke="none" fill="none" id="triB_7-5_2_" d="M48.02 85.71 L46.12 83.61 L48.12 82.71 L48.07 84.21 L48.02 85.71 Z " />
<path stroke="none" fill="none" id="triB_0-2-3_3_" d="M15.58 74.04 L17.08 75.04 L18.58 76.04 L17.03 76.49 L15.48 76.94 L15.58 74.04 Z " />
<path stroke="none" fill="none" id="triB_0-7-2_2_" d="M17.38 75.54 L15.38 74.54 L17.48 72.54 L17.43 74.04 L17.38 75.54 Z " />
<path stroke="rgb(245,172,181)" stroke-opacity="1" fill="rgb(245,172,181)" fill-opacity="1" id="triC_6-3-3_1_" d="M-1.228 107.9 L-3.228 109.7 L-3.128 106.8 L-1.228 107.9 Z " />
<path stroke="rgb(245,172,181)" stroke-opacity="1" fill="rgb(245,172,181)" fill-opacity="1" id="triC_0-7_2_" d="M-7.905 129.3 L-8.905 128.4 L-7.805 126.4 L-7.905 129.3 Z " />
<path stroke="rgb(245,172,181)" stroke-opacity="1" fill="rgb(245,172,181)" fill-opacity="1" id="triC_3_2_" d="M-12.37 122.4 L-10.37 123.4 L-12.47 124.3 L-12.37 122.4 Z " />
<path stroke="rgb(245,172,181)" stroke-opacity="1" fill="rgb(245,172,181)" fill-opacity="1" id="triC_1-7_5_" d="M-15.33 127.7 L-13.45 127.6 L-11.58 127.5 L-9.7 127.4 L-7.825 127.3 L-5.95 127.2 L-4.075 127.1 L-2.2 127.1 L-0.3252 127 L-2.188 126.7 L-4.05 126.4 L-5.913 126.1 L-7.775 125.8 L-9.638 125.5 L-11.5 125.2 L-13.36 125 L-15.23 124.7 L-15.28 126.2 L-15.33 127.7 Z " />
<path stroke="rgb(245,172,181)" stroke-opacity="1" fill="rgb(245,172,181)" fill-opacity="1" id="triC_1-9_5_" d="M2.336 135.1 L1.336 133.1 L2.336 132.1 L2.336 135.1 Z " />
<path stroke="rgb(245,172,181)" stroke-opacity="1" fill="rgb(245,172,181)" fill-opacity="1" id="triC_4-2_2_" d="M-11.79 142.2 L-10.34 142.7 L-8.886 143.2 L-10.34 144.2 L-11.79 145.1 L-11.79 142.2 Z " />
<path stroke="rgb(245,172,181)" stroke-opacity="1" fill="rgb(245,172,181)" fill-opacity="1" id="triC_2-8_5_" d="M-12.68 131.5 L-11.68 133.5 L-12.68 134.4 L-12.68 131.5 Z " />
<path stroke="rgb(245,172,181)" stroke-opacity="1" fill="rgb(245,172,181)" fill-opacity="1" id="triC_2-9_2_" d="M-14.58 130.6 L-16.58 129.5 L-14.58 128.6 L-14.58 130.6 Z " />
<path stroke="rgb(245,172,181)" stroke-opacity="1" fill="rgb(245,172,181)" fill-opacity="1" id="triC_4-6_5_" d="M-15.49 133.2 L-13.59 133.3 L-15.59 135.2 L-15.49 133.2 Z " />
<path stroke="rgb(245,172,181)" stroke-opacity="1" fill="rgb(245,172,181)" fill-opacity="1" id="triC_5-4_2_" d="M-19.84 128.6 L-18.94 130.6 L-19.94 131.6 L-19.89 130.1 L-19.84 128.6 Z " />
<path stroke="rgb(245,172,181)" stroke-opacity="1" fill="rgb(245,172,181)" fill-opacity="1" id="triC_5-5_2_" d="M-13.68 113 L-15.68 111.1 L-13.68 111.1 L-13.68 113 Z " />
<path stroke="rgb(245,172,181)" stroke-opacity="1" fill="rgb(245,172,181)" fill-opacity="1" id="triC_4-8_2_" d="M-5.086 130.2 L-3.186 131.1 L-5.086 133.1 L-5.086 130.2 Z " />
<path stroke="rgb(245,172,181)" stroke-opacity="1" fill="rgb(245,172,181)" fill-opacity="1" id="triC_4-9_2_" d="M-2.048 128.7 L-4.048 128.6 L-2.048 126.8 L-2.048 128.7 Z " />
<path stroke="rgb(245,172,181)" stroke-opacity="1" fill="rgb(245,172,181)" fill-opacity="1" id="triC_1-16_5_" d="M-0.7252 127.8 L-2.6 127.9 L-4.475 127.9 L-6.35 128 L-8.225 128.1 L-10.1 128.2 L-11.98 128.3 L-13.85 128.4 L-15.73 128.5 L-13.85 128.6 L-11.98 128.8 L-10.1 129 L-8.225 129.1 L-6.35 129.3 L-4.475 129.4 L-2.6 129.6 L-0.7252 129.8 L-0.7252 127.8 Z " />
<path stroke="rgb(245,172,181)" stroke-opacity="1" fill="rgb(245,172,181)" fill-opacity="1" id="triC_1-17_5_" d="M-10.83 124.3 L-12.83 123.3 L-10.83 122.3 L-10.83 124.3 Z " />
<path stroke="rgb(245,172,181)" stroke-opacity="1" fill="rgb(245,172,181)" fill-opacity="1" id="triC_3-12_5_" d="M-16.47 136.5 L-14.57 138.5 L-16.57 139.5 L-16.52 138 L-16.47 136.5 Z " />
<path stroke="rgb(245,172,181)" stroke-opacity="1" fill="rgb(245,172,181)" fill-opacity="1" id="triC_7-5_5_" d="M-15.81 132.5 L-17.71 130.5 L-15.71 129.5 L-15.76 131 L-15.81 132.5 Z " />
<path stroke="rgb(245,172,181)" stroke-opacity="1" fill="rgb(245,172,181)" fill-opacity="1" id="triC_0-2-3_6_" d="M-13.01 109.2 L-14.56 109.7 L-16.11 110.1 L-13.01 109.2 Z " />
<path stroke="rgb(245,172,181)" stroke-opacity="1" fill="rgb(245,172,181)" fill-opacity="1" id="triC_1-2-3_2_" d="M-4.825 146.9 L-2.825 147.8 L-4.925 149.8 L-4.825 146.9 Z " />
<path stroke="rgb(245,172,181)" stroke-opacity="1" fill="rgb(245,172,181)" fill-opacity="1" id="triC_0-7-2_5_" d="M-2.805 131.6 L-4.805 130.6 L-2.705 128.6 L-2.755 130.1 L-2.805 131.6 Z " />
<path stroke="rgb(245,172,181)" stroke-opacity="1" fill="rgb(245,172,181)" fill-opacity="1" id="triC_3-2-3_2_" d="M-3.766 135.5 L-2.766 136.4 L-3.866 137.4 L-3.766 135.5 Z " />
<path stroke="rgb(245,172,181)" stroke-opacity="1" fill="rgb(245,172,181)" fill-opacity="1" id="triC_1-8-2_2_" d="M-14.93 131.9 L-13.03 132.9 L-14.93 134.8 L-14.93 131.9 Z " />
<path stroke="rgb(245,172,181)" stroke-opacity="1" fill="rgb(245,172,181)" fill-opacity="1" id="triC_2-6-2_2_" d="M-13.58 127.1 L-11.58 128.1 L-13.58 129.1 L-13.58 127.1 Z " />
<path stroke="rgb(245,172,181)" stroke-opacity="1" fill="rgb(245,172,181)" fill-opacity="1" id="triC_4-2-3_2_" d="M-7.286 145.3 L-7.186 142.4 L-6.186 143.4 L-7.286 145.3 Z " />
<path stroke="rgb(245,172,181)" stroke-opacity="1" fill="rgb(245,172,181)" fill-opacity="1" id="triC_5-2-2_2_" d="M-3.644 128.6 L-1.644 129.6 L-3.644 130.6 L-3.644 128.6 Z " />
<path stroke="rgb(245,172,181)" stroke-opacity="1" fill="rgb(245,172,181)" fill-opacity="1" id="triC_0-13-2_2_" d="M9.396 143.6 L7.396 143.6 L9.396 141.7 L9.396 143.6 Z " />
<path stroke="rgb(245,172,181)" stroke-opacity="1" fill="rgb(245,172,181)" fill-opacity="1" id="triC_3-7-2_2_" d="M-0.472 117.9 L-2.472 115.8 L-0.472 115.9 L-0.472 117.9 Z " />
<path stroke="rgb(245,172,181)" stroke-opacity="1" fill="rgb(245,172,181)" fill-opacity="1" id="triC_0-14-2_2_" d="M-17.01 110.4 L-15.01 112.4 L-17.01 112.3 L-17.01 110.4 Z " />
<path stroke="rgb(245,172,181)" stroke-opacity="1" fill="rgb(245,172,181)" fill-opacity="1" id="triC_0-15-2_2_" d="M-4.206 110.4 L-6.206 108.4 L-4.206 108.4 L-4.206 110.4 Z " />
<path stroke="rgb(245,172,181)" stroke-opacity="1" fill="rgb(245,172,181)" fill-opacity="1" id="triC_1-13-2_2_" d="M-7.225 139.6 L-9.225 138.5 L-7.225 137.6 L-7.225 139.6 Z " />
<path stroke="rgb(245,172,181)" stroke-opacity="1" fill="rgb(245,172,181)" fill-opacity="1" id="triC_4-7-2_2_" d="M-16.09 134 L-17.99 132 L-15.99 131 L-16.04 132.5 L-16.09 134 Z " />
<path stroke="rgb(245,172,181)" stroke-opacity="1" fill="rgb(245,172,181)" fill-opacity="1" id="triC_1-14-2_2_" d="M-1.025 143.1 L0.8748 144.2 L-0.2252 145.2 L-1.025 143.1 Z " />
<path stroke="rgb(245,172,181)" stroke-opacity="1" fill="rgb(245,172,181)" fill-opacity="1" id="triC_4-11-2_2_" d="M-6.023 112.8 L-7.923 110.8 L-5.923 109.8 L-5.973 111.3 L-6.023 112.8 Z " />
<path stroke="rgb(245,172,181)" stroke-opacity="1" fill="rgb(245,172,181)" fill-opacity="1" id="triC_9-2_2_" d="M-10.65 131.6 L-9.646 132.5 L-11.65 133.5 L-10.65 131.6 Z " />
<path stroke="rgb(245,172,181)" stroke-opacity="1" fill="rgb(245,172,181)" fill-opacity="1" id="triC_8-3-2_2_" d="M-12.53 111.4 L-14.43 109.4 L-12.43 108.4 L-12.48 109.9 L-12.53 111.4 Z " />
<path stroke="rgb(245,172,181)" stroke-opacity="1" fill="rgb(245,172,181)" fill-opacity="1" id="triC_0-4-3_2_" d="M-6.905 132 L-4.905 133.1 L-6.905 134 L-6.905 132 Z " />
<path stroke="rgb(245,172,181)" stroke-opacity="1" fill="rgb(245,172,181)" fill-opacity="1" id="triC_1-2-4_2_" d="M-10.68 115.6 L-8.779 116.7 L-10.68 117.6 L-10.68 115.6 Z " />
<path stroke="rgb(245,172,181)" stroke-opacity="1" fill="rgb(245,172,181)" fill-opacity="1" id="triC_2-3-3_2_" d="M-4.779 146.6 L-2.979 148.6 L-4.879 149.6 L-4.829 148.1 L-4.779 146.6 Z " />
<path stroke="rgb(245,172,181)" stroke-opacity="1" fill="rgb(245,172,181)" fill-opacity="1" id="triC_2-3-4_2_" d="M-1.579 139.6 L-3.579 139.6 L-1.579 137.7 L-1.579 139.6 Z " />
<path stroke="rgb(245,172,181)" stroke-opacity="1" fill="rgb(245,172,181)" fill-opacity="1" id="triC_0-9-3_2_" d="M-4.405 136.1 L-5.855 135.1 L-7.305 134 L-5.805 133.6 L-4.305 133.1 L-4.355 134.6 L-4.405 136.1 Z " />
<path stroke="rgb(245,172,181)" stroke-opacity="1" fill="rgb(245,172,181)" fill-opacity="1" id="triC_0-10-3_2_" d="M5.395 118.5 L7.395 119.6 L5.295 120.4 L5.395 118.5 Z " />
<path stroke="rgb(245,172,181)" stroke-opacity="1" fill="rgb(245,172,181)" fill-opacity="1" id="triC_1-9-3_2_" d="M1.961 112.6 L0.9613 111.6 L1.961 110.6 L1.961 112.6 Z " />
<path stroke="rgb(245,172,181)" stroke-opacity="1" fill="rgb(245,172,181)" fill-opacity="1" id="triC_3-4-3_2_" d="M-11.59 119 L-8.687 119 L-10.19 119.9 L-11.69 120.9 L-11.59 119 Z " />
<path stroke="rgb(245,172,181)" stroke-opacity="1" fill="rgb(245,172,181)" fill-opacity="1" id="triC_4-3-4_2_" d="M-8.123 116.1 L-10.12 116 L-9.123 114.1 L-8.123 116.1 Z " />
<path stroke="rgb(245,172,181)" stroke-opacity="1" fill="rgb(245,172,181)" fill-opacity="1" id="triC_1-10-3_2_" d="M-15.93 142.7 L-13.93 143.8 L-16.03 145.7 L-15.98 144.2 L-15.93 142.7 Z " />
<path stroke="rgb(245,172,181)" stroke-opacity="1" fill="rgb(245,172,181)" fill-opacity="1" id="triC_0-13-3_2_" d="M-3.105 133.1 L-4.105 132.2 L-3.105 131.2 L-3.105 133.1 Z " />
<path stroke="rgb(245,172,181)" stroke-opacity="1" fill="rgb(245,172,181)" fill-opacity="1" id="triC_3-6-3_2_" d="M-6.287 111.5 L-4.287 112.5 L-6.387 114.5 L-6.337 113 L-6.287 111.5 Z " />
<path stroke="rgb(245,172,181)" stroke-opacity="1" fill="rgb(245,172,181)" fill-opacity="1" id="triC_6-3-3_2_" d="M-20.85 166.8 L-22.85 168.7 L-22.75 165.8 L-20.85 166.8 Z " />
<path stroke="rgb(245,172,181)" stroke-opacity="1" fill="rgb(245,172,181)" fill-opacity="1" id="triC_1-12-3_2_" d="M-8.125 135.3 L-8.025 133.4 L-6.125 134.3 L-8.125 135.3 Z " />
<path stroke="rgb(245,172,181)" stroke-opacity="1" fill="rgb(245,172,181)" fill-opacity="1" id="triC_2-11-3_2_" d="M0.7724 117.5 L-1.228 116.4 L0.8724 114.5 L0.8224 116 L0.7724 117.5 Z " />
<path stroke="rgb(245,172,181)" stroke-opacity="1" fill="rgb(245,172,181)" fill-opacity="1" id="triC_3-9-3_2_" d="M4.814 142.2 L2.814 141.3 L4.914 140.3 L4.814 142.2 Z " />
<path stroke="rgb(245,172,181)" stroke-opacity="1" fill="rgb(245,172,181)" fill-opacity="1" id="triC_5-4-3_2_" d="M-11.04 145.9 L-12.14 147.8 L-12.04 145.9 L-11.04 145.9 Z " />
<path stroke="rgb(245,172,181)" stroke-opacity="1" fill="rgb(245,172,181)" fill-opacity="1" id="triC_5-5-3_2_" d="M-10.64 130.5 L-11.64 128.6 L-9.64 128.7 L-10.64 130.5 Z " />
<path stroke="rgb(245,172,181)" stroke-opacity="1" fill="rgb(245,172,181)" fill-opacity="1" id="triC_6-3-4_2_" d="M-1.428 126.5 L-2.328 125.5 L-1.328 123.6 L-1.428 126.5 Z " />
<path stroke="rgb(245,172,181)" stroke-opacity="1" fill="rgb(245,172,181)" fill-opacity="1" id="triC_1-14-3_2_" d="M-4.979 117.5 L-2.979 118.5 L-5.079 119.5 L-4.979 117.5 Z " />
<path stroke="rgb(245,172,181)" stroke-opacity="1" fill="rgb(245,172,181)" fill-opacity="1" id="triC_1-15-3_2_" d="M-4.679 116.3 L-6.679 115.4 L-4.679 114.4 L-4.679 116.3 Z " />
<path stroke="rgb(245,172,181)" stroke-opacity="1" fill="rgb(245,172,181)" fill-opacity="1" id="triC_6-4-3_2_" d="M-20.65 137.7 L-19.65 138.7 L-20.65 139.7 L-20.65 137.7 Z " />
<path stroke="rgb(245,172,181)" stroke-opacity="1" fill="rgb(245,172,181)" fill-opacity="1" id="triC_7-2-4_2_" d="M-9.96 121.9 L-8.06 123 L-10.06 123.9 L-9.96 121.9 Z " />
<path stroke="rgb(245,172,181)" stroke-opacity="1" fill="rgb(245,172,181)" fill-opacity="1" id="triC_0-18-3_2_" d="M-11.71 112.7 L-9.706 113.8 L-11.71 115.7 L-11.71 112.7 Z " />
<path stroke="rgb(245,172,181)" stroke-opacity="1" fill="rgb(245,172,181)" fill-opacity="1" id="triC_1-16-3_2_" d="M8.261 116.8 L10.16 117.8 L8.161 118.8 L8.261 116.8 Z " />
<path stroke="rgb(245,172,181)" stroke-opacity="1" fill="rgb(245,172,181)" fill-opacity="1" id="triC_4-10-3_2_" d="M-12.29 140.6 L-10.39 141.6 L-12.39 142.5 L-12.29 140.6 Z " />
<path stroke="rgb(245,172,181)" stroke-opacity="1" fill="rgb(245,172,181)" fill-opacity="1" id="triC_5-8-3_2_" d="M-17.54 155.1 L-15.54 156.2 L-17.64 157.1 L-17.54 155.1 Z " />
<path stroke="rgb(245,172,181)" stroke-opacity="1" fill="rgb(245,172,181)" fill-opacity="1" id="triC_4-11-3_2_" d="M-12.99 136.5 L-13.89 135.5 L-12.89 133.5 L-12.94 135 L-12.99 136.5 Z " />
<path stroke="rgb(245,172,181)" stroke-opacity="1" fill="rgb(245,172,181)" fill-opacity="1" id="triC_5-9-3_2_" d="M-11.78 122.4 L-13.68 120.4 L-11.68 119.4 L-11.73 120.9 L-11.78 122.4 Z " />
<path stroke="rgb(245,172,181)" stroke-opacity="1" fill="rgb(245,172,181)" fill-opacity="1" id="triC_6-7-3_2_" d="M-4.618 150.4 L-5.418 148.4 L-4.518 147.4 L-4.568 148.9 L-4.618 150.4 Z " />
<path stroke="rgb(245,172,181)" stroke-opacity="1" fill="rgb(245,172,181)" fill-opacity="1" id="triC_0-4-4_3_" d="M3.795 107.4 L1.795 107.4 L3.795 107.4 Z " />
<path stroke="rgb(245,172,181)" stroke-opacity="1" fill="rgb(245,172,181)" fill-opacity="1" id="triC_0-3-5_2_" d="M-11.31 125.8 L-13.21 124.7 L-11.21 123.8 L-11.31 125.8 Z " />
<path stroke="rgb(245,172,181)" stroke-opacity="1" fill="rgb(245,172,181)" fill-opacity="1" id="triC_0-8-4_2_" d="M-2.905 125.6 L-0.9051 125.6 L-3.005 127.5 L-2.905 125.6 Z " />
<path stroke="rgb(245,172,181)" stroke-opacity="1" fill="rgb(245,172,181)" fill-opacity="1" id="triC_4-4-4_2_" d="M-18.49 135.6 L-17.59 137.7 L-18.59 137.6 L-18.49 135.6 Z " />
<path stroke="rgb(245,172,181)" stroke-opacity="1" fill="rgb(245,172,181)" fill-opacity="1" id="triC_2-6-4_2_" d="M-11.88 123.9 L-9.879 124.9 L-11.43 125.4 L-12.98 125.9 L-11.88 123.9 Z " />
<path stroke="rgb(245,172,181)" stroke-opacity="1" fill="rgb(245,172,181)" fill-opacity="1" id="triC_1-9-4_2_" d="M-4.479 115.1 L-5.479 114.1 L-4.479 112.2 L-4.479 115.1 Z " />
<path stroke="rgb(245,172,181)" stroke-opacity="1" fill="rgb(245,172,181)" fill-opacity="1" id="triC_3-4-5_2_" d="M-7.966 129.3 L-6.966 131.4 L-8.066 132.3 L-8.016 130.8 L-7.966 129.3 Z " />
<path stroke="rgb(245,172,181)" stroke-opacity="1" fill="rgb(245,172,181)" fill-opacity="1" id="triC_4-2-5_2_" d="M-19.42 111.9 L-17.42 112.9 L-19.42 114.8 L-19.42 111.9 Z " />
<path stroke="rgb(245,172,181)" stroke-opacity="1" fill="rgb(245,172,181)" fill-opacity="1" id="triC_1-10-4_2_" d="M-0.03866 112.6 L0.9613 114.6 L-1.139 115.6 L-0.5887 114.1 L-0.03866 112.6 Z " />
<path stroke="rgb(245,172,181)" stroke-opacity="1" fill="rgb(245,172,181)" fill-opacity="1" id="triC_0-3_3_" d="M-4.105 136.8 L-5.105 135.8 L-4.105 134.8 L-4.105 136.8 Z " />
<path stroke="rgb(245,172,181)" stroke-opacity="1" fill="rgb(245,172,181)" fill-opacity="1" id="triC_1-7_4_" d="M-9.525 129 L-11.53 127.9 L-9.425 126 L-9.475 127.5 L-9.525 129 Z " />
<path stroke="rgb(245,172,181)" stroke-opacity="1" fill="rgb(245,172,181)" fill-opacity="1" id="triC_1-9_4_" d="M-21.28 115.9 L-22.28 113.9 L-21.28 112.9 L-21.28 115.9 Z " />
<path stroke="rgb(245,172,181)" stroke-opacity="1" fill="rgb(245,172,181)" fill-opacity="1" id="triC_4-3_3_" d="M-1.972 121.5 L-3.972 120.6 L-1.972 119.6 L-1.972 121.5 Z " />
<path stroke="rgb(245,172,181)" stroke-opacity="1" fill="rgb(245,172,181)" fill-opacity="1" id="triC_2-8_4_" d="M-15.38 138.9 L-14.48 140.9 L-15.48 141.8 L-15.38 138.9 Z " />
<path stroke="rgb(245,172,181)" stroke-opacity="1" fill="rgb(245,172,181)" fill-opacity="1" id="triC_2-10_5_" d="M-3.079 137.6 L-1.179 139.6 L-3.179 140.6 L-3.129 139.1 L-3.079 137.6 Z " />
<path stroke="rgb(245,172,181)" stroke-opacity="1" fill="rgb(245,172,181)" fill-opacity="1" id="triC_3-9_3_" d="M-10.17 133.7 L-12.17 131.8 L-10.17 130.9 L-10.17 133.7 Z " />
<path stroke="rgb(245,172,181)" stroke-opacity="1" fill="rgb(245,172,181)" fill-opacity="1" id="triC_1-16_4_" d="M-8.079 108.7 L-6.079 109.7 L-8.079 110.6 L-8.079 108.7 Z " />
<path stroke="rgb(245,172,181)" stroke-opacity="1" fill="rgb(245,172,181)" fill-opacity="1" id="triC_1-17_4_" d="M-7.225 137.4 L-9.225 136.4 L-7.225 135.4 L-7.225 137.4 Z " />
<path stroke="rgb(245,172,181)" stroke-opacity="1" fill="rgb(245,172,181)" fill-opacity="1" id="triC_3-12_4_" d="M-15.97 142.3 L-14.07 144.4 L-16.07 145.3 L-16.02 143.8 L-15.97 142.3 Z " />
<path stroke="rgb(245,172,181)" stroke-opacity="1" fill="rgb(245,172,181)" fill-opacity="1" id="triC_5-9_3_" d="M-1.744 142.7 L-3.744 141.7 L-1.744 140.7 L-1.744 142.7 Z " />
<path stroke="rgb(245,172,181)" stroke-opacity="1" fill="rgb(245,172,181)" fill-opacity="1" id="triC_7-5_4_" d="M-12.31 137.5 L-14.21 135.5 L-12.21 134.5 L-12.26 136 L-12.31 137.5 Z " />
<path stroke="rgb(245,172,181)" stroke-opacity="1" fill="rgb(245,172,181)" fill-opacity="1" id="triC_0-2-3_5_" d="M-3.205 137 L-1.705 138 L-0.205 138.9 L-1.755 139.4 L-3.305 139.9 L-3.205 137 Z " />
<path stroke="rgb(245,172,181)" stroke-opacity="1" fill="rgb(245,172,181)" fill-opacity="1" id="triC_0-7-2_4_" d="M-3.705 139.6 L-5.705 138.5 L-3.605 136.6 L-3.655 138.1 L-3.705 139.6 Z " />
<path stroke="rgb(245,172,181)" stroke-opacity="1" fill="rgb(245,172,181)" fill-opacity="1" id="triC_0-7_3_" d="M-6.605 151.5 L-7.605 150.6 L-6.605 148.6 L-6.605 151.5 Z " />
<path stroke="rgb(245,172,181)" stroke-opacity="1" fill="rgb(245,172,181)" fill-opacity="1" id="triC_3_3_" d="M-13.07 142.9 L-11.17 143.9 L-13.17 144.8 L-13.07 142.9 Z " />
<path stroke="rgb(245,172,181)" stroke-opacity="1" fill="rgb(245,172,181)" fill-opacity="1" id="triC_1-7_7_" d="M-15.73 147.1 L-13.85 147 L-11.98 146.9 L-10.1 146.8 L-8.225 146.7 L-6.35 146.6 L-4.475 146.5 L-2.6 146.5 L-0.7252 146.4 L-2.6 146.1 L-4.475 145.8 L-6.35 145.5 L-8.225 145.2 L-10.1 144.9 L-11.98 144.6 L-13.85 144.4 L-15.73 144.1 L-15.73 147.1 Z " />
<path stroke="rgb(245,172,181)" stroke-opacity="1" fill="rgb(245,172,181)" fill-opacity="1" id="triC_1-9_7_" d="M4.036 157.9 L3.136 155.9 L4.136 154.9 L4.086 156.4 L4.036 157.9 Z " />
<path stroke="rgb(245,172,181)" stroke-opacity="1" fill="rgb(245,172,181)" fill-opacity="1" id="triC_4-2_3_" d="M-14.99 166.2 L-13.54 166.7 L-12.09 167.2 L-13.54 168.2 L-14.99 169.1 L-14.99 166.2 Z " />
<path stroke="rgb(245,172,181)" stroke-opacity="1" fill="rgb(245,172,181)" fill-opacity="1" id="triC_2-8_7_" d="M-13.08 150.4 L-12.18 152.4 L-13.18 153.3 L-13.08 150.4 Z " />
<path stroke="rgb(245,172,181)" stroke-opacity="1" fill="rgb(245,172,181)" fill-opacity="1" id="triC_2-9_3_" d="M-15.58 153.6 L-17.58 152.5 L-15.58 151.6 L-15.58 153.6 Z " />
<path stroke="rgb(245,172,181)" stroke-opacity="1" fill="rgb(245,172,181)" fill-opacity="1" id="triC_4-6_7_" d="M-12.09 158 L-10.09 158 L-12.09 160 L-12.09 158 Z " />
<path stroke="rgb(245,172,181)" stroke-opacity="1" fill="rgb(245,172,181)" fill-opacity="1" id="triC_5-4_3_" d="M-16.54 148.3 L-15.54 150.3 L-16.54 151.3 L-16.54 148.3 Z " />
<path stroke="rgb(245,172,181)" stroke-opacity="1" fill="rgb(245,172,181)" fill-opacity="1" id="triC_5-5_3_" d="M-11.54 137.1 L-13.44 135.2 L-11.44 135.2 L-11.54 137.1 Z " />
<path stroke="rgb(245,172,181)" stroke-opacity="1" fill="rgb(245,172,181)" fill-opacity="1" id="triC_4-8_3_" d="M-8.586 155.2 L-6.786 156.2 L-8.686 158.1 L-8.586 155.2 Z " />
<path stroke="rgb(245,172,181)" stroke-opacity="1" fill="rgb(245,172,181)" fill-opacity="1" id="triC_4-9_3_" d="M-1.648 153.4 L-3.648 153.4 L-1.548 151.5 L-1.648 153.4 Z " />
<path stroke="rgb(245,172,181)" stroke-opacity="1" fill="rgb(245,172,181)" fill-opacity="1" id="triC_1-16_7_" d="M4.375 152.5 L2.5 152.6 L0.6248 152.6 L-1.25 152.7 L-3.125 152.8 L-5 152.9 L-6.875 153 L-8.75 153.1 L-10.63 153.2 L-8.75 153.3 L-6.875 153.5 L-5 153.7 L-3.125 153.8 L-1.25 154 L0.6248 154.1 L2.5 154.3 L4.375 154.5 L4.375 152.5 Z " />
<path stroke="rgb(245,172,181)" stroke-opacity="1" fill="rgb(245,172,181)" fill-opacity="1" id="triC_1-17_7_" d="M-9.825 145.1 L-11.83 144.1 L-9.825 143.1 L-9.825 145.1 Z " />
<path stroke="rgb(245,172,181)" stroke-opacity="1" fill="rgb(245,172,181)" fill-opacity="1" id="triC_3-12_7_" d="M-16.67 163.5 L-14.67 165.6 L-16.67 166.5 L-16.67 163.5 Z " />
<path stroke="rgb(245,172,181)" stroke-opacity="1" fill="rgb(245,172,181)" fill-opacity="1" id="triC_7-5_7_" d="M-15.21 152.6 L-17.21 150.5 L-15.21 149.6 L-15.21 152.6 Z " />
<path stroke="rgb(245,172,181)" stroke-opacity="1" fill="rgb(245,172,181)" fill-opacity="1" id="triC_0-2-3_8_" d="M-8.605 129.3 L-10.11 129.8 L-11.61 130.2 L-8.605 129.3 Z " />
<path stroke="rgb(245,172,181)" stroke-opacity="1" fill="rgb(245,172,181)" fill-opacity="1" id="triC_1-2-3_3_" d="M-0.9252 169.8 L1.075 170.7 L-1.025 172.7 L-0.9252 169.8 Z " />
<path stroke="rgb(245,172,181)" stroke-opacity="1" fill="rgb(245,172,181)" fill-opacity="1" id="triC_0-7-2_7_" d="M-3.905 156.8 L-5.905 155.7 L-3.805 153.8 L-3.855 155.3 L-3.905 156.8 Z " />
<path stroke="rgb(245,172,181)" stroke-opacity="1" fill="rgb(245,172,181)" fill-opacity="1" id="triC_3-2-3_3_" d="M-5.666 160.5 L-4.666 161.4 L-5.666 162.4 L-5.666 160.5 Z " />
<path stroke="rgb(245,172,181)" stroke-opacity="1" fill="rgb(245,172,181)" fill-opacity="1" id="triC_1-8-2_3_" d="M-10.43 154.9 L-8.625 155.9 L-10.53 157.8 L-10.43 154.9 Z " />
<path stroke="rgb(245,172,181)" stroke-opacity="1" fill="rgb(245,172,181)" fill-opacity="1" id="triC_2-6-2_3_" d="M-11.68 145.7 L-9.679 146.8 L-11.78 147.7 L-11.68 145.7 Z " />
<path stroke="rgb(245,172,181)" stroke-opacity="1" fill="rgb(245,172,181)" fill-opacity="1" id="triC_4-2-3_3_" d="M-9.586 165.1 L-9.586 162.2 L-8.586 163.3 L-9.586 165.1 Z " />
<path stroke="rgb(245,172,181)" stroke-opacity="1" fill="rgb(245,172,181)" fill-opacity="1" id="triC_5-2-2_3_" d="M-5.144 149.4 L-3.144 150.4 L-5.244 151.4 L-5.144 149.4 Z " />
<path stroke="rgb(245,172,181)" stroke-opacity="1" fill="rgb(245,172,181)" fill-opacity="1" id="triC_0-13-2_3_" d="M9.396 162.3 L7.396 162.3 L9.496 160.4 L9.396 162.3 Z " />
<path stroke="rgb(245,172,181)" stroke-opacity="1" fill="rgb(245,172,181)" fill-opacity="1" id="triC_3-7-2_3_" d="M0.8135 143.7 L-1.086 141.7 L0.9135 141.7 L0.8135 143.7 Z " />
<path stroke="rgb(245,172,181)" stroke-opacity="1" fill="rgb(245,172,181)" fill-opacity="1" id="triC_0-14-2_3_" d="M-12.91 132.7 L-10.91 134.6 L-12.91 134.6 L-12.91 132.7 Z " />
<path stroke="rgb(245,172,181)" stroke-opacity="1" fill="rgb(245,172,181)" fill-opacity="1" id="triC_0-15-2_3_" d="M-2.005 135.1 L-4.005 133.1 L-2.005 133.1 L-2.005 135.1 Z " />
<path stroke="rgb(245,172,181)" stroke-opacity="1" fill="rgb(245,172,181)" fill-opacity="1" id="triC_1-13-2_3_" d="M-5.625 163.6 L-7.625 162.5 L-5.625 161.6 L-5.625 163.6 Z " />
<path stroke="rgb(245,172,181)" stroke-opacity="1" fill="rgb(245,172,181)" fill-opacity="1" id="triC_4-7-2_3_" d="M-13.99 152.5 L-15.99 150.4 L-13.89 149.5 L-13.94 151 L-13.99 152.5 Z " />
<path stroke="rgb(245,172,181)" stroke-opacity="1" fill="rgb(245,172,181)" fill-opacity="1" id="triC_1-14-2_3_" d="M0.5356 167 L2.436 168.1 L1.336 169 L0.5356 167 Z " />
<path stroke="rgb(245,172,181)" stroke-opacity="1" fill="rgb(245,172,181)" fill-opacity="1" id="triC_4-11-2_3_" d="M-5.386 137.6 L-7.286 135.5 L-5.286 134.6 L-5.336 136.1 L-5.386 137.6 Z " />
<path stroke="rgb(245,172,181)" stroke-opacity="1" fill="rgb(245,172,181)" fill-opacity="1" id="triC_9-2_3_" d="M-7.946 155.8 L-6.946 156.7 L-9.046 157.7 L-7.946 155.8 Z " />
<path stroke="rgb(245,172,181)" stroke-opacity="1" fill="rgb(245,172,181)" fill-opacity="1" id="triC_8-3-2_3_" d="M-11.36 136.2 L-13.26 134.2 L-11.26 133.2 L-11.31 134.7 L-11.36 136.2 Z " />
<path stroke="rgb(245,172,181)" stroke-opacity="1" fill="rgb(245,172,181)" fill-opacity="1" id="triC_0-4-3_3_" d="M-5.205 155.6 L-3.205 156.6 L-5.205 157.6 L-5.205 155.6 Z " />
<path stroke="rgb(245,172,181)" stroke-opacity="1" fill="rgb(245,172,181)" fill-opacity="1" id="triC_1-2-4_3_" d="M-6.925 136.8 L-5.025 137.8 L-7.025 138.8 L-6.925 136.8 Z " />
<path stroke="rgb(245,172,181)" stroke-opacity="1" fill="rgb(245,172,181)" fill-opacity="1" id="triC_2-3-3_3_" d="M-4.479 169.9 L-2.679 172 L-4.579 172.9 L-4.529 171.4 L-4.479 169.9 Z " />
<path stroke="rgb(245,172,181)" stroke-opacity="1" fill="rgb(245,172,181)" fill-opacity="1" id="triC_2-3-4_3_" d="M-1.179 159.9 L-3.179 159.8 L-1.079 158 L-1.179 159.9 Z " />
<path stroke="rgb(245,172,181)" stroke-opacity="1" fill="rgb(245,172,181)" fill-opacity="1" id="triC_0-9-3_3_" d="M-2.405 158.9 L-3.905 157.9 L-5.405 156.8 L-3.855 156.4 L-2.305 155.9 L-2.355 157.4 L-2.405 158.9 Z " />
<path stroke="rgb(245,172,181)" stroke-opacity="1" fill="rgb(245,172,181)" fill-opacity="1" id="triC_0-10-3_3_" d="M5.296 139.2 L7.296 140.2 L5.296 141.1 L5.296 139.2 Z " />
<path stroke="rgb(245,172,181)" stroke-opacity="1" fill="rgb(245,172,181)" fill-opacity="1" id="triC_1-9-3_3_" d="M4.936 134.3 L3.936 133.3 L5.036 132.3 L4.936 134.3 Z " />
<path stroke="rgb(245,172,181)" stroke-opacity="1" fill="rgb(245,172,181)" fill-opacity="1" id="triC_3-4-3_3_" d="M-11.27 142.1 L-8.366 142.1 L-9.816 143.1 L-11.27 144 L-11.27 142.1 Z " />
<path stroke="rgb(245,172,181)" stroke-opacity="1" fill="rgb(245,172,181)" fill-opacity="1" id="triC_4-3-4_3_" d="M-9.086 138.6 L-11.09 138.5 L-10.09 136.7 L-9.086 138.6 Z " />
<path stroke="rgb(245,172,181)" stroke-opacity="1" fill="rgb(245,172,181)" fill-opacity="1" id="triC_1-10-3_3_" d="M-15.73 163.3 L-13.73 164.4 L-15.73 166.3 L-15.73 163.3 Z " />
<path stroke="rgb(245,172,181)" stroke-opacity="1" fill="rgb(245,172,181)" fill-opacity="1" id="triC_0-13-3_3_" d="M0.5959 155.7 L-0.4041 154.8 L0.5959 153.8 L0.5959 155.7 Z " />
<path stroke="rgb(245,172,181)" stroke-opacity="1" fill="rgb(245,172,181)" fill-opacity="1" id="triC_3-6-3_3_" d="M-3.366 136.4 L-1.366 137.4 L-3.366 139.4 L-3.366 136.4 Z " />
<path stroke="rgb(245,172,181)" stroke-opacity="1" fill="rgb(245,172,181)" fill-opacity="1" id="triC_6-3-3_3_" d="M-19.25 186.7 L-21.25 188.5 L-21.15 185.6 L-19.25 186.7 Z " />
<path stroke="rgb(245,172,181)" stroke-opacity="1" fill="rgb(245,172,181)" fill-opacity="1" id="triC_1-12-3_3_" d="M-8.325 158.2 L-8.225 156.3 L-6.225 157.2 L-8.325 158.2 Z " />
<path stroke="rgb(245,172,181)" stroke-opacity="1" fill="rgb(245,172,181)" fill-opacity="1" id="triC_2-11-3_3_" d="M-0.1586 138.3 L-2.159 137.2 L-0.05855 135.3 L-0.1086 136.8 L-0.1586 138.3 Z " />
<path stroke="rgb(245,172,181)" stroke-opacity="1" fill="rgb(245,172,181)" fill-opacity="1" id="triC_3-9-3_3_" d="M7.614 164.8 L5.614 163.9 L7.614 162.9 L7.614 164.8 Z " />
<path stroke="rgb(245,172,181)" stroke-opacity="1" fill="rgb(245,172,181)" fill-opacity="1" id="triC_5-4-3_3_" d="M-10.74 168.8 L-11.74 170.7 L-11.74 168.8 L-10.74 168.8 Z " />
<path stroke="rgb(245,172,181)" stroke-opacity="1" fill="rgb(245,172,181)" fill-opacity="1" id="triC_5-5-3_3_" d="M-11.84 152.4 L-12.84 150.5 L-10.84 150.5 L-11.84 152.4 Z " />
<path stroke="rgb(245,172,181)" stroke-opacity="1" fill="rgb(245,172,181)" fill-opacity="1" id="triC_6-3-4_3_" d="M3.282 150.3 L2.282 149.3 L3.382 147.4 L3.282 150.3 Z " />
<path stroke="rgb(245,172,181)" stroke-opacity="1" fill="rgb(245,172,181)" fill-opacity="1" id="triC_1-14-3_3_" d="M-5.225 138.4 L-3.225 139.4 L-5.225 140.4 L-5.225 138.4 Z " />
<path stroke="rgb(245,172,181)" stroke-opacity="1" fill="rgb(245,172,181)" fill-opacity="1" id="triC_1-15-3_3_" d="M-4.425 140.2 L-6.425 139.3 L-4.425 138.3 L-4.425 140.2 Z " />
<path stroke="rgb(245,172,181)" stroke-opacity="1" fill="rgb(245,172,181)" fill-opacity="1" id="triC_6-4-3_3_" d="M-20.15 159 L-19.25 160 L-20.25 161 L-20.15 159 Z " />
<path stroke="rgb(245,172,181)" stroke-opacity="1" fill="rgb(245,172,181)" fill-opacity="1" id="triC_7-2-4_3_" d="M-3.31 145.4 L-1.31 146.4 L-3.31 147.4 L-3.31 145.4 Z " />
<path stroke="rgb(245,172,181)" stroke-opacity="1" fill="rgb(245,172,181)" fill-opacity="1" id="triC_0-18-3_3_" d="M-13.71 131.6 L-11.71 132.6 L-13.81 134.6 L-13.76 133.1 L-13.71 131.6 Z " />
<path stroke="rgb(245,172,181)" stroke-opacity="1" fill="rgb(245,172,181)" fill-opacity="1" id="triC_1-16-3_3_" d="M6.736 139.5 L8.736 140.5 L6.736 141.5 L6.736 139.5 Z " />
<path stroke="rgb(245,172,181)" stroke-opacity="1" fill="rgb(245,172,181)" fill-opacity="1" id="triC_4-10-3_3_" d="M-7.986 163.1 L-5.986 164 L-7.986 165 L-7.986 163.1 Z " />
<path stroke="rgb(245,172,181)" stroke-opacity="1" fill="rgb(245,172,181)" fill-opacity="1" id="triC_5-8-3_3_" d="M-16.74 177.1 L-14.74 178.2 L-16.74 179.1 L-16.74 177.1 Z " />
<path stroke="rgb(245,172,181)" stroke-opacity="1" fill="rgb(245,172,181)" fill-opacity="1" id="triC_4-11-3_3_" d="M-14.89 160.2 L-15.79 159.1 L-14.89 157.2 L-14.89 160.2 Z " />
<path stroke="rgb(245,172,181)" stroke-opacity="1" fill="rgb(245,172,181)" fill-opacity="1" id="triC_5-9-3_3_" d="M-11.84 145.4 L-13.74 143.3 L-11.74 142.4 L-11.79 143.9 L-11.84 145.4 Z " />
<path stroke="rgb(245,172,181)" stroke-opacity="1" fill="rgb(245,172,181)" fill-opacity="1" id="triC_6-7-3_3_" d="M-4.518 172 L-5.318 170 L-4.418 169 L-4.468 170.5 L-4.518 172 Z " />
<path stroke="rgb(245,172,181)" stroke-opacity="1" fill="rgb(245,172,181)" fill-opacity="1" id="triC_0-4-4_4_" d="M1.096 128.7 L-0.9041 128.7 L1.096 128.7 Z " />
<path stroke="rgb(245,172,181)" stroke-opacity="1" fill="rgb(245,172,181)" fill-opacity="1" id="triC_0-3-5_3_" d="M-8.505 144.9 L-10.51 143.9 L-8.505 142.9 L-8.505 144.9 Z " />
<path stroke="rgb(245,172,181)" stroke-opacity="1" fill="rgb(245,172,181)" fill-opacity="1" id="triC_0-8-4_3_" d="M-2.405 145.9 L-0.4051 145.9 L-2.505 147.8 L-2.405 145.9 Z " />
<path stroke="rgb(245,172,181)" stroke-opacity="1" fill="rgb(245,172,181)" fill-opacity="1" id="triC_4-4-4_3_" d="M-18.59 158.4 L-17.59 160.4 L-18.59 160.4 L-18.59 158.4 Z " />
<path stroke="rgb(245,172,181)" stroke-opacity="1" fill="rgb(245,172,181)" fill-opacity="1" id="triC_2-6-4_3_" d="M-11.28 145.5 L-9.279 146.6 L-10.78 147 L-12.28 147.5 L-11.28 145.5 Z " />
<path stroke="rgb(245,172,181)" stroke-opacity="1" fill="rgb(245,172,181)" fill-opacity="1" id="triC_1-9-4_3_" d="M-2.025 136.4 L-3.025 135.4 L-2.025 133.5 L-2.025 136.4 Z " />
<path stroke="rgb(245,172,181)" stroke-opacity="1" fill="rgb(245,172,181)" fill-opacity="1" id="triC_3-4-5_3_" d="M-9.866 150 L-8.866 152 L-9.966 153 L-9.916 151.5 L-9.866 150 Z " />
<path stroke="rgb(245,172,181)" stroke-opacity="1" fill="rgb(245,172,181)" fill-opacity="1" id="triC_4-2-5_3_" d="M-16.09 133.1 L-14.09 134.2 L-16.19 136 L-16.09 133.1 Z " />
<path stroke="rgb(245,172,181)" stroke-opacity="1" fill="rgb(245,172,181)" fill-opacity="1" id="triC_1-10-4_3_" d="M0.7355 137.8 L1.636 139.8 L-0.3644 140.7 L0.1855 139.3 L0.7355 137.8 Z " />
<path stroke="rgb(245,172,181)" stroke-opacity="1" fill="rgb(245,172,181)" fill-opacity="1" id="triC_0-3_4_" d="M-8.105 160 L-9.105 159 L-8.105 158 L-8.105 160 Z " />
<path stroke="rgb(245,172,181)" stroke-opacity="1" fill="rgb(245,172,181)" fill-opacity="1" id="triC_1-7_6_" d="M-8.425 149.1 L-10.33 148.1 L-8.325 146.1 L-8.375 147.6 L-8.425 149.1 Z " />
<path stroke="rgb(245,172,181)" stroke-opacity="1" fill="rgb(245,172,181)" fill-opacity="1" id="triC_1-9_6_" d="M-20.23 142.3 L-21.13 140.3 L-20.13 139.3 L-20.18 140.8 L-20.23 142.3 Z " />
<path stroke="rgb(245,172,181)" stroke-opacity="1" fill="rgb(245,172,181)" fill-opacity="1" id="triC_4-3_4_" d="M-4.286 146.1 L-6.286 145.1 L-4.286 144.2 L-4.286 146.1 Z " />
<path stroke="rgb(245,172,181)" stroke-opacity="1" fill="rgb(245,172,181)" fill-opacity="1" id="triC_2-8_6_" d="M-13.68 159.9 L-12.68 161.9 L-13.68 162.8 L-13.68 159.9 Z " />
<path stroke="rgb(245,172,181)" stroke-opacity="1" fill="rgb(245,172,181)" fill-opacity="1" id="triC_2-10_7_" d="M-4.779 156.2 L-2.779 158.3 L-4.779 159.2 L-4.779 156.2 Z " />
<path stroke="rgb(245,172,181)" stroke-opacity="1" fill="rgb(245,172,181)" fill-opacity="1" id="triC_3-9_4_" d="M-11.67 157.3 L-13.57 155.4 L-11.57 154.5 L-11.67 157.3 Z " />
<path stroke="rgb(245,172,181)" stroke-opacity="1" fill="rgb(245,172,181)" fill-opacity="1" id="triC_1-16_6_" d="M-9.925 131.6 L-7.925 132.7 L-9.925 133.5 L-9.925 131.6 Z " />
<path stroke="rgb(245,172,181)" stroke-opacity="1" fill="rgb(245,172,181)" fill-opacity="1" id="triC_1-17_6_" d="M-4.825 159 L-6.825 158 L-4.725 157 L-4.825 159 Z " />
<path stroke="rgb(245,172,181)" stroke-opacity="1" fill="rgb(245,172,181)" fill-opacity="1" id="triC_3-12_6_" d="M-14.87 162.1 L-12.97 164.1 L-14.97 165.1 L-14.92 163.6 L-14.87 162.1 Z " />
<path stroke="rgb(245,172,181)" stroke-opacity="1" fill="rgb(245,172,181)" fill-opacity="1" id="triC_5-9_4_" d="M-1.444 168.1 L-3.444 167 L-1.344 166.1 L-1.444 168.1 Z " />
<path stroke="rgb(245,172,181)" stroke-opacity="1" fill="rgb(245,172,181)" fill-opacity="1" id="triC_7-5_6_" d="M-8.207 162.5 L-10.11 160.4 L-8.107 159.5 L-8.157 161 L-8.207 162.5 Z " />
<path stroke="rgb(245,172,181)" stroke-opacity="1" fill="rgb(245,172,181)" fill-opacity="1" id="triC_0-2-3_7_" d="M1.196 155.8 L2.696 156.8 L4.196 157.8 L2.696 158.3 L1.196 158.7 L1.196 155.8 Z " />
<path stroke="rgb(245,172,181)" stroke-opacity="1" fill="rgb(245,172,181)" fill-opacity="1" id="triC_0-7-2_6_" d="M-2.405 160.2 L-4.405 159.1 L-2.405 157.2 L-2.405 160.2 Z " />
<path stroke="rgb(0,0,0)" stroke-opacity="1" fill="rgb(255,255,255)" fill-opacity="1" id="tempino" d="M-10.5 207.4 L-8.547 207.4 L-6.595 207.4 L-4.642 207.4 L-2.689 207.4 L-0.7368 207.4 L1.216 207.4 L3.168 207.4 L5.121 207.4 L7.074 207.4 L9.026 207.4 L10.98 207.4 L12.93 207.4 L14.88 207.4 L16.84 207.4 L18.79 207.4 L20.74 207.4 L22.69 207.4 L24.65 207.4 L26.6 207.4 L26.6 209.4 L26.6 211.3 L26.6 213.3 L26.6 215.2 L26.6 217.2 L26.6 219.1 L26.6 221.1 L26.6 223 L26.6 225 L26.6 226.9 L26.6 228.9 L26.6 230.8 L26.6 232.8 L26.6 234.7 L26.6 236.7 L26.6 238.6 L26.6 240.6 L26.6 242.5 L26.6 244.5 L24.65 244.5 L22.69 244.5 L20.74 244.5 L18.79 244.5 L16.84 244.5 L14.88 244.5 L12.93 244.5 L10.98 244.5 L9.026 244.5 L7.074 244.5 L5.121 244.5 L3.168 244.5 L1.216 244.5 L-0.7368 244.5 L-2.689 244.5 L-4.642 244.5 L-6.595 244.5 L-8.547 244.5 L-10.5 244.5 L-10.5 242.5 L-10.5 240.6 L-10.5 238.6 L-10.5 236.7 L-10.5 234.7 L-10.5 232.8 L-10.5 230.8 L-10.5 228.9 L-10.5 226.9 L-10.5 225 L-10.5 223 L-10.5 221.1 L-10.5 219.1 L-10.5 217.2 L-10.5 215.2 L-10.5 213.3 L-10.5 211.3 L-10.5 209.4 L-10.5 207.4 Z " />
</g>
</g>
</svg>
