<!DOCTYPE svg>
<svg xmlns="http://www.w3.org/2000/svg" xmlns:xlink="http://www.w3.org/1999/xlink" width="2000" height="2000">
<g transform="translate(1000.000000,1000.000000)">
<g transform="scale(5,5)">
<path stroke="none" fill="none" id="square1" d="M-234.3 -176.4 L-236 -177.3 L-237.7 -178.3 L-239.4 -179.2 L-241.1 -180.2 L-242.8 -181.2 L-244.5 -182.1 L-246.2 -183.1 L-247.9 -184 L-249.6 -185 L-251.3 -185.9 L-253 -186.9 L-254.7 -187.9 L-256.4 -188.8 L-258.1 -189.8 L-259.8 -190.7 L-261.5 -191.7 L-263.2 -192.7 L-264.9 -193.6 L-266.6 -194.6 L-265.6 -196.3 L-264.7 -198 L-263.7 -199.7 L-262.7 -201.4 L-261.8 -203.1 L-260.8 -204.8 L-259.9 -206.4 L-258.9 -208.1 L-257.9 -209.8 L-257 -211.5 L-256 -213.2 L-255.1 -214.9 L-254.1 -216.6 L-253.2 -218.3 L-252.2 -220 L-251.2 -221.7 L-250.3 -223.4 L-249.3 -225.1 L-248.4 -226.8 L-246.7 -225.8 L-245 -224.9 L-243.3 -223.9 L-241.6 -223 L-239.9 -222 L-238.2 -221.1 L-236.5 -220.1 L-234.8 -219.1 L-233.1 -218.2 L-231.4 -217.2 L-229.7 -216.3 L-228 -215.3 L-226.3 -214.3 L-224.6 -213.4 L-222.9 -212.4 L-221.2 -211.5 L-219.5 -210.5 L-217.8 -209.5 L-216.1 -208.6 L-217.1 -206.9 L-218 -205.2 L-219 -203.5 L-220 -201.8 L-220.9 -200.1 L-221.9 -198.4 L-222.8 -196.7 L-223.8 -195 L-224.8 -193.3 L-225.7 -191.6 L-226.7 -189.9 L-227.6 -188.2 L-228.6 -186.5 L-229.6 -184.8 L-230.5 -183.1 L-231.5 -181.4 L-232.4 -179.8 L-233.4 -178.1 L-234.3 -176.4 Z " />
<path stroke="none" fill="none" id="square2" d="M244.6 -146.3 L242.9 -147.3 L241.2 -148.3 L239.6 -149.2 L237.9 -150.2 L236.2 -151.2 L234.5 -152.1 L232.8 -153.1 L231.1 -154.1 L229.4 -155 L227.7 -156 L226 -157 L224.3 -157.9 L222.6 -158.9 L221 -159.9 L219.3 -160.8 L217.6 -161.8 L215.9 -162.8 L214.2 -163.7 L212.5 -164.7 L213.5 -166.4 L214.4 -168.1 L215.4 -169.8 L216.4 -171.5 L217.3 -173.2 L218.3 -174.8 L219.3 -176.5 L220.2 -178.2 L221.2 -179.9 L222.2 -181.6 L223.1 -183.3 L224.1 -185 L225.1 -186.7 L226 -188.4 L227 -190.1 L228 -191.8 L228.9 -193.5 L229.9 -195.1 L230.9 -196.8 L232.6 -195.9 L234.2 -194.9 L235.9 -193.9 L237.6 -193 L239.3 -192 L241 -191 L242.7 -190.1 L244.4 -189.1 L246.1 -188.1 L247.8 -187.2 L249.5 -186.2 L251.2 -185.2 L252.9 -184.3 L254.5 -183.3 L256.2 -182.3 L257.9 -181.4 L259.6 -180.4 L261.3 -179.4 L263 -178.5 L262 -176.8 L261.1 -175.1 L260.1 -173.4 L259.1 -171.7 L258.2 -170 L257.2 -168.3 L256.2 -166.6 L255.3 -164.9 L254.3 -163.2 L253.3 -161.6 L252.4 -159.9 L251.4 -158.2 L250.4 -156.5 L249.5 -154.8 L248.5 -153.1 L247.5 -151.4 L246.6 -149.7 L245.6 -148 L244.6 -146.3 Z " />
<path stroke="rgb(255,250,159)" stroke-opacity="1" fill="rgb(255,250,159)" fill-opacity="1" id="square3" d="M10.01 -26.46 L8.348 -25.44 L6.682 -24.41 L5.016 -23.39 L3.35 -22.36 L1.685 -21.34 L0.01877 -20.32 L-1.647 -19.29 L-3.313 -18.27 L-4.979 -17.24 L-6.645 -16.22 L-8.31 -15.19 L-9.976 -14.17 L-11.64 -13.14 L-13.31 -12.12 L-14.97 -11.09 L-16.64 -10.07 L-18.31 -9.043 L-19.97 -8.018 L-21.64 -6.994 L-22.66 -8.66 L-23.69 -10.33 L-24.71 -11.99 L-25.74 -13.66 L-26.76 -15.32 L-27.79 -16.99 L-28.81 -18.65 L-29.83 -20.32 L-30.86 -21.99 L-31.88 -23.65 L-32.91 -25.32 L-33.93 -26.98 L-34.96 -28.65 L-35.98 -30.32 L-37.01 -31.98 L-38.03 -33.65 L-39.06 -35.31 L-40.08 -36.98 L-41.11 -38.64 L-39.44 -39.67 L-37.77 -40.69 L-36.11 -41.72 L-34.44 -42.74 L-32.78 -43.77 L-31.11 -44.79 L-29.45 -45.82 L-27.78 -46.84 L-26.11 -47.87 L-24.45 -48.89 L-22.78 -49.92 L-21.12 -50.94 L-19.45 -51.97 L-17.79 -52.99 L-16.12 -54.02 L-14.45 -55.04 L-12.79 -56.06 L-11.12 -57.09 L-9.456 -58.11 L-8.431 -56.45 L-7.406 -54.78 L-6.382 -53.12 L-5.357 -51.45 L-4.332 -49.78 L-3.308 -48.12 L-2.283 -46.45 L-1.258 -44.79 L-0.2334 -43.12 L0.7913 -41.46 L1.816 -39.79 L2.841 -38.12 L3.865 -36.46 L4.89 -34.79 L5.915 -33.13 L6.94 -31.46 L7.964 -29.8 L8.989 -28.13 L10.01 -26.46 Z " />
<path stroke="rgb(244,227,211)" stroke-opacity="1" fill="rgb(244,227,211)" fill-opacity="1" id="container" d="M82.5 85.2 L82.47 87.3 L82.4 89.38 L82.27 91.45 L82.09 93.51 L81.86 95.55 L81.58 97.57 L81.25 99.58 L80.87 101.6 L80.45 103.6 L79.98 105.5 L79.46 107.5 L78.9 109.4 L78.29 111.3 L77.64 113.2 L76.95 115 L76.21 116.9 L75.43 118.7 L74.6 120.5 L73.74 122.2 L72.83 124 L71.89 125.7 L70.9 127.4 L69.88 129.1 L68.82 130.7 L67.72 132.3 L66.58 133.9 L65.41 135.5 L64.2 137 L62.96 138.5 L61.68 140 L60.37 141.4 L59.02 142.8 L57.64 144.2 L56.23 145.6 L54.79 146.9 L53.32 148.2 L51.82 149.4 L50.28 150.6 L48.72 151.8 L47.13 152.9 L45.52 154 L43.87 155.1 L42.2 156.1 L40.51 157.1 L38.78 158 L37.04 158.9 L35.27 159.8 L33.47 160.6 L31.66 161.4 L29.82 162.1 L27.96 162.8 L26.08 163.5 L24.17 164.1 L22.25 164.7 L20.31 165.2 L18.36 165.7 L16.38 166.1 L14.39 166.5 L12.37 166.8 L10.35 167.1 L8.307 167.3 L6.251 167.5 L4.181 167.6 L2.097 167.7 L0 167.7 L-2.097 167.7 L-4.181 167.6 L-6.251 167.5 L-8.307 167.3 L-10.35 167.1 L-12.37 166.8 L-14.38 166.5 L-16.38 166.1 L-18.36 165.7 L-20.31 165.2 L-22.25 164.7 L-24.17 164.1 L-26.08 163.5 L-27.96 162.8 L-29.82 162.1 L-31.66 161.4 L-33.47 160.6 L-35.27 159.8 L-37.04 158.9 L-38.78 158 L-40.51 157.1 L-42.2 156.1 L-43.87 155.1 L-45.52 154 L-47.13 152.9 L-48.72 151.8 L-50.28 150.6 L-51.82 149.4 L-53.32 148.2 L-54.79 146.9 L-56.23 145.6 L-57.64 144.2 L-59.02 142.8 L-60.37 141.4 L-61.68 140 L-62.96 138.5 L-64.2 137 L-65.41 135.5 L-66.58 133.9 L-67.72 132.3 L-68.82 130.7 L-69.88 129.1 L-70.9 127.4 L-71.89 125.7 L-72.83 124 L-73.74 122.2 L-74.6 120.5 L-75.43 118.7 L-76.21 116.9 L-76.95 115 L-77.64 113.2 L-78.29 111.3 L-78.9 109.4 L-79.46 107.5 L-79.98 105.5 L-80.45 103.6 L-80.87 101.6 L-81.25 99.58 L-81.58 97.57 L-81.86 95.55 L-82.09 93.51 L-82.27 91.45 L-82.4 89.38 L-82.47 87.3 L-82.5 85.2 L-82.47 83.1 L-82.4 81.02 L-82.27 78.95 L-82.09 76.89 L-81.86 74.85 L-81.58 72.83 L-81.25 70.81 L-80.87 68.82 L-80.45 66.84 L-79.98 64.89 L-79.46 62.95 L-78.9 61.03 L-78.29 59.12 L-77.64 57.24 L-76.95 55.38 L-76.21 53.54 L-75.43 51.73 L-74.6 49.93 L-73.74 48.16 L-72.83 46.42 L-71.89 44.69 L-70.9 43 L-69.88 41.33 L-68.82 39.68 L-67.72 38.07 L-66.58 36.48 L-65.41 34.92 L-64.2 33.38 L-62.96 31.88 L-61.68 30.41 L-60.37 28.97 L-59.02 27.56 L-57.64 26.18 L-56.23 24.83 L-54.79 23.52 L-53.32 22.24 L-51.82 21 L-50.28 19.79 L-48.72 18.62 L-47.13 17.48 L-45.52 16.38 L-43.87 15.32 L-42.2 14.3 L-40.51 13.31 L-38.78 12.37 L-37.04 11.46 L-35.27 10.6 L-33.47 9.773 L-31.66 8.992 L-29.82 8.253 L-27.96 7.558 L-26.08 6.906 L-24.17 6.299 L-22.25 5.736 L-20.31 5.22 L-18.36 4.749 L-16.38 4.326 L-14.38 3.95 L-12.37 3.622 L-10.35 3.343 L-8.307 3.113 L-6.251 2.933 L-4.181 2.804 L-2.097 2.726 L0 2.7 L2.097 2.726 L4.181 2.804 L6.251 2.933 L8.307 3.113 L10.35 3.343 L12.37 3.622 L14.39 3.95 L16.38 4.326 L18.36 4.749 L20.31 5.22 L22.25 5.736 L24.17 6.299 L26.08 6.906 L27.96 7.558 L29.82 8.253 L31.66 8.992 L33.47 9.773 L35.27 10.6 L37.04 11.46 L38.78 12.37 L40.51 13.31 L42.2 14.3 L43.87 15.32 L45.52 16.38 L47.13 17.48 L48.72 18.62 L50.28 19.79 L51.82 21 L53.32 22.24 L54.79 23.52 L56.23 24.83 L57.64 26.18 L59.02 27.56 L60.37 28.97 L61.68 30.41 L62.96 31.88 L64.2 33.38 L65.41 34.92 L66.58 36.48 L67.72 38.07 L68.82 39.68 L69.88 41.33 L70.9 43 L71.89 44.69 L72.83 46.42 L73.74 48.16 L74.6 49.93 L75.43 51.73 L76.21 53.54 L76.95 55.38 L77.64 57.24 L78.29 59.12 L78.9 61.03 L79.46 62.95 L79.98 64.89 L80.45 66.84 L80.87 68.82 L81.25 70.81 L81.58 72.83 L81.86 74.85 L82.09 76.89 L82.27 78.95 L82.4 81.02 L82.47 83.1 L82.5 85.2 Z " />
<path stroke="rgb(245,172,181)" stroke-opacity="1" fill="rgb(245,172,181)" fill-opacity="1" id="crack1" d="M9.5 43.4 L10.2 41.4 L10.9 39.4 L10.8 37.51 L10.7 35.63 L10.6 33.74 L10.5 31.86 L10.4 29.97 L10.3 28.09 L10.2 26.2 L9.9 23.6 L7.633 23.23 L5.367 22.87 L3.1 22.5 L2.97 20.53 L2.84 18.56 L2.71 16.59 L2.58 14.62 L2.45 12.65 L2.32 10.68 L2.19 8.71 L2.06 6.74 L1.93 4.77 L1.8 2.8 L0 2.8 L0.1273 4.736 L0.2545 6.673 L0.3818 8.609 L0.5091 10.55 L0.6364 12.48 L0.7636 14.42 L0.8909 16.35 L1.018 18.29 L1.145 20.23 L1.273 22.16 L1.4 24.1 L3.567 24.47 L5.733 24.83 L7.9 25.2 L8.043 27.21 L8.186 29.23 L8.329 31.24 L8.471 33.26 L8.614 35.27 L8.757 37.29 L8.9 39.3 L8.35 41.15 L7.8 43 L9.5 43.4 Z " />
<path stroke="rgb(245,172,181)" stroke-opacity="1" fill="rgb(245,172,181)" fill-opacity="1" id="crack2" d="M1.8 56 L2.588 57.92 L3.375 59.85 L4.163 61.77 L4.95 63.7 L5.738 65.62 L6.525 67.55 L7.313 69.48 L8.1 71.4 L6.35 72.75 L4.6 74.1 L2.85 75.45 L1.1 76.8 L2.3 78.7 L4.02 77.4 L5.74 76.1 L7.46 74.8 L9.18 73.5 L10.9 72.2 L10.14 70.43 L9.389 68.67 L8.633 66.9 L7.878 65.13 L7.122 63.37 L6.367 61.6 L5.611 59.83 L4.856 58.07 L4.1 56.3 L4.871 54.46 L5.643 52.61 L6.414 50.77 L7.186 48.93 L7.957 47.09 L8.729 45.24 L9.5 43.4 L7.8 43 L6.943 44.96 L6.086 46.91 L5.229 48.87 L4.371 50.83 L3.514 52.79 L2.657 54.74 L1.8 56.7 L1.8 56 Z " />
<path stroke="rgb(245,172,181)" stroke-opacity="1" fill="rgb(245,172,181)" fill-opacity="1" id="crack4" d="M1.9 104 L1.725 102.1 L1.55 100.2 L1.375 98.23 L1.2 96.3 L-0.08749 94.9 L-1.375 93.5 L-2.662 92.1 L-3.95 90.7 L-5.237 89.3 L-6.525 87.9 L-7.812 86.5 L-9.1 85.1 L-7.6 83.86 L-6.1 82.62 L-4.6 81.38 L-3.1 80.13 L-1.6 78.89 L-0.09998 77.65 L1.4 76.4 L2.5 78.6 L1 79.69 L-0.5 80.77 L-2 81.85 L-3.5 82.94 L-5 84.02 L-6.5 85.1 L-5.143 86.53 L-3.786 87.96 L-2.429 89.39 L-1.071 90.82 L0.2857 92.25 L1.643 93.68 L3 95.1 L3.35 97.23 L3.7 99.35 L4.05 101.5 L4.4 103.6 L1.9 104 Z " />
<path stroke="rgb(245,172,181)" stroke-opacity="1" fill="rgb(245,172,181)" fill-opacity="1" id="crack3" d="M10.9 166.9 L9.5 165.4 L8.1 163.8 L6.7 162.3 L6.175 160.5 L5.65 158.7 L5.125 156.9 L4.6 155.1 L3.338 153.4 L2.075 151.8 L0.8125 150.1 L-0.45 148.5 L-1.712 146.8 L-2.975 145.2 L-4.237 143.5 L-5.5 141.9 L-4.05 140.6 L-2.6 139.3 L-1.15 137.9 L0.3 136.6 L1.75 135.3 L3.2 133.9 L4.65 132.6 L6.1 131.3 L5.969 129.2 L5.838 127.2 L5.708 125.1 L5.577 123.1 L5.446 121 L5.315 119 L5.185 116.9 L5.054 114.9 L4.923 112.8 L4.792 110.8 L4.662 108.7 L4.531 106.7 L4.4 104.6 L1.9 105 L2.069 107 L2.238 109 L2.408 110.9 L2.577 112.9 L2.746 114.9 L2.915 116.9 L3.085 118.8 L3.254 120.8 L3.423 122.8 L3.592 124.8 L3.762 126.7 L3.931 128.7 L4.1 130.7 L2.538 132 L0.975 133.4 L-0.5875 134.7 L-2.15 136.1 L-3.712 137.5 L-5.275 138.8 L-6.837 140.2 L-8.4 141.5 L-7.178 143.2 L-5.956 144.8 L-4.733 146.5 L-3.511 148.2 L-2.289 149.8 L-1.067 151.5 L0.1556 153.2 L1.378 154.8 L2.6 156.5 L3.125 158.3 L3.65 160 L4.175 161.8 L4.7 163.5 L5.9 164.8 L7.1 166 L8.3 167.3 L10.9 166.9 Z " />
<path stroke="none" fill="none" id="triA_0-7" d="M-8.94 22.16 L-9.94 21.26 L-8.94 19.26 L-8.94 22.16 Z " />
<path stroke="none" fill="none" id="triA_3" d="M-45.29 19.28 L-43.29 20.28 L-45.39 21.18 L-45.29 19.28 Z " />
<path stroke="none" fill="none" id="triA_1-7" d="M-23.27 19.91 L-21.4 19.82 L-19.52 19.74 L-17.65 19.65 L-15.77 19.56 L-13.9 19.47 L-12.02 19.39 L-10.15 19.3 L-8.272 19.21 L-10.15 18.92 L-12.02 18.64 L-13.9 18.35 L-15.77 18.06 L-17.65 17.77 L-19.52 17.49 L-21.4 17.2 L-23.27 16.91 L-23.27 19.91 Z " />
<path stroke="none" fill="none" id="triA_1-9" d="M-4.89 28.31 L-5.89 26.31 L-4.89 25.31 L-4.89 28.31 Z " />
<path stroke="none" fill="none" id="triA_4-2" d="M-63.79 41.5 L-62.34 41.95 L-60.89 42.4 L-62.34 43.4 L-63.79 44.4 L-63.79 41.5 Z " />
<path stroke="none" fill="none" id="triA_2-8" d="M-32.12 25.22 L-31.12 27.22 L-32.12 28.12 L-32.12 25.22 Z " />
<path stroke="none" fill="none" id="triA_2-9" d="M-32.32 28.12 L-34.32 27.12 L-32.32 26.12 L-32.32 28.12 Z " />
<path stroke="none" fill="none" id="triA_4-6" d="M-63.29 31.6 L-61.29 31.7 L-63.29 33.6 L-63.29 31.6 Z " />
<path stroke="none" fill="none" id="triA_5-4" d="M-79.16 26.19 L-78.16 28.19 L-79.16 29.19 L-79.16 26.19 Z " />
<path stroke="none" fill="none" id="triA_5-5" d="M-70.57 13.11 L-72.47 11.11 L-70.47 11.21 L-70.57 13.11 Z " />
<path stroke="none" fill="none" id="triA_4-8" d="M-57.19 30.6 L-55.39 31.6 L-57.29 33.5 L-57.19 30.6 Z " />
<path stroke="none" fill="none" id="triA_4-9" d="M-54.1 27.82 L-56.1 27.82 L-54.1 25.92 L-54.1 27.82 Z " />
<path stroke="none" fill="none" id="triA_1-16" d="M-6.472 24.01 L-8.347 24.1 L-10.22 24.19 L-12.1 24.27 L-13.97 24.36 L-15.85 24.45 L-17.72 24.54 L-19.6 24.62 L-21.47 24.71 L-19.6 24.87 L-17.72 25.04 L-15.85 25.2 L-13.97 25.36 L-12.1 25.52 L-10.22 25.69 L-8.347 25.85 L-6.472 26.01 L-6.472 24.01 Z " />
<path stroke="none" fill="none" id="triA_1-17" d="M-18.07 18.41 L-20.07 17.41 L-18.07 16.41 L-18.07 18.41 Z " />
<path stroke="none" fill="none" id="triA_3-12" d="M-48.09 35.48 L-46.19 37.48 L-48.19 38.48 L-48.14 36.98 L-48.09 35.48 Z " />
<path stroke="none" fill="none" id="triA_7-5" d="M-47.91 24.49 L-49.81 22.39 L-47.81 21.49 L-47.86 22.99 L-47.91 24.49 Z " />
<path stroke="none" fill="none" id="triA_0-2-3_2_" d="M-13.54 2.257 L-15.04 2.757 L-16.54 3.257 L-13.54 2.257 Z " />
<path stroke="none" fill="none" id="triA_1-2-3" d="M-11.47 42.11 L-9.472 43.01 L-11.57 45.01 L-11.47 42.11 Z " />
<path stroke="none" fill="none" id="triA_0-7-2" d="M-5.04 27.16 L-6.94 26.16 L-4.94 24.16 L-4.99 25.66 L-5.04 27.16 Z " />
<path stroke="none" fill="none" id="triA_3-2-3" d="M-37.59 32.38 L-36.69 33.28 L-37.69 34.28 L-37.59 32.38 Z " />
<path stroke="none" fill="none" id="triA_1-8-2" d="M-21.47 27.01 L-19.57 28.01 L-21.57 29.91 L-21.47 27.01 Z " />
<path stroke="none" fill="none" id="triA_2-6-2" d="M-31.42 21.12 L-29.42 22.12 L-31.42 23.12 L-31.42 21.12 Z " />
<path stroke="none" fill="none" id="triA_4-2-3" d="M-59.29 42.2 L-59.19 39.3 L-58.29 40.3 L-59.29 42.2 Z " />
<path stroke="none" fill="none" id="triA_5-2-2" d="M-64.13 24.88 L-62.13 25.98 L-64.13 26.88 L-64.13 24.88 Z " />
<path stroke="none" fill="none" id="triA_0-13-2" d="M6.205 35.17 L4.205 35.07 L6.205 33.27 L6.205 35.17 Z " />
<path stroke="none" fill="none" id="triA_3-7-2" d="M-33.84 16.72 L-35.84 14.72 L-33.84 14.72 L-33.84 16.72 Z " />
<path stroke="none" fill="none" id="triA_0-14-2" d="M-16.74 5.357 L-14.74 7.357 L-16.74 7.257 L-16.74 5.357 Z " />
<path stroke="none" fill="none" id="triA_0-15-2" d="M-4.74 5.757 L-6.74 3.757 L-4.74 3.757 L-4.74 5.757 Z " />
<path stroke="none" fill="none" id="triA_1-13-2" d="M-14.97 35.71 L-16.97 34.71 L-14.87 33.71 L-14.97 35.71 Z " />
<path stroke="none" fill="none" id="triA_4-7-2" d="M-63.79 30.6 L-65.79 28.6 L-63.79 27.6 L-63.79 30.6 Z " />
<path stroke="none" fill="none" id="triA_1-14-2" d="M-10.07 38.21 L-8.172 39.21 L-9.172 40.21 L-10.07 38.21 Z " />
<path stroke="none" fill="none" id="triA_4-11-2" d="M-54.6 14.62 L-56.5 12.52 L-54.5 11.62 L-54.55 13.12 L-54.6 14.62 Z " />
<path stroke="none" fill="none" id="triA_9-2" d="M-16.58 24.91 L-15.58 25.81 L-17.58 26.71 L-16.58 24.91 Z " />
<path stroke="none" fill="none" id="triA_8-3-2" d="M-29.43 7.872 L-31.33 5.872 L-29.33 4.872 L-29.38 6.372 L-29.43 7.872 Z " />
<path stroke="none" fill="none" id="triA_0-4-3" d="M-6.74 27.96 L-4.74 28.96 L-6.84 29.96 L-6.74 27.96 Z " />
<path stroke="none" fill="none" id="triA_1-2-4" d="M-17.47 7.512 L-15.57 8.512 L-17.47 9.512 L-17.47 7.512 Z " />
<path stroke="none" fill="none" id="triA_2-3-3" d="M-22.12 44.02 L-20.32 46.02 L-22.22 47.02 L-22.17 45.52 L-22.12 44.02 Z " />
<path stroke="none" fill="none" id="triA_2-3-4" d="M-20.52 33.02 L-22.52 33.02 L-20.42 31.12 L-20.52 33.02 Z " />
<path stroke="none" fill="none" id="triA_0-9-3" d="M-4.64 30.76 L-6.09 29.71 L-7.54 28.66 L-6.04 28.21 L-4.54 27.76 L-4.59 29.26 L-4.64 30.76 Z " />
<path stroke="none" fill="none" id="triA_0-10-3" d="M0.9052 10.47 L2.805 11.47 L0.8052 12.37 L0.9052 10.47 Z " />
<path stroke="none" fill="none" id="triA_1-9-3" d="M-5.82 5.762 L-6.82 4.662 L-5.82 3.762 L-5.82 5.762 Z " />
<path stroke="none" fill="none" id="triA_3-4-3" d="M-42.79 15.08 L-39.89 15.08 L-41.39 16.03 L-42.89 16.98 L-42.79 15.08 Z " />
<path stroke="none" fill="none" id="triA_4-3-4" d="M-57.99 15.1 L-59.99 15.1 L-58.89 13.2 L-57.99 15.1 Z " />
<path stroke="none" fill="none" id="triA_1-10-3" d="M-22.87 36.91 L-20.97 37.91 L-22.97 39.91 L-22.92 38.41 L-22.87 36.91 Z " />
<path stroke="none" fill="none" id="triA_0-13-3" d="M-3.44 24.96 L-4.44 23.96 L-3.44 23.06 L-3.44 24.96 Z " />
<path stroke="none" fill="none" id="triA_3-6-3" d="M-36.09 10.98 L-34.09 12.08 L-36.19 13.98 L-36.14 12.48 L-36.09 10.98 Z " />
<path stroke="none" fill="none" id="triA_6-3-3" d="M-68.71 61.27 L-70.61 63.17 L-70.61 60.27 L-68.71 61.27 Z " />
<path stroke="none" fill="none" id="triA_1-12-3" d="M-16.37 31.61 L-16.37 29.71 L-14.37 30.61 L-16.37 31.61 Z " />
<path stroke="none" fill="none" id="triA_2-11-3" d="M-17.17 11.77 L-19.17 10.77 L-17.07 8.769 L-17.12 10.27 L-17.17 11.77 Z " />
<path stroke="none" fill="none" id="triA_3-9-3" d="M-25.61 39.68 L-27.51 38.78 L-25.51 37.78 L-25.61 39.68 Z " />
<path stroke="none" fill="none" id="triA_5-4-3" d="M-70.87 45.51 L-71.87 47.41 L-71.87 45.51 L-70.87 45.51 Z " />
<path stroke="none" fill="none" id="triA_5-5-3" d="M-71.57 29.31 L-72.57 27.31 L-70.57 27.41 L-71.57 29.31 Z " />
<path stroke="none" fill="none" id="triA_6-3-4" d="M-49.52 20.72 L-50.52 19.72 L-49.52 17.82 L-49.52 20.72 Z " />
<path stroke="none" fill="none" id="triA_1-14-3" d="M-13.07 9.612 L-11.07 10.71 L-13.17 11.61 L-13.07 9.612 Z " />
<path stroke="none" fill="none" id="triA_1-15-3" d="M-12.17 12.11 L-14.17 11.21 L-12.17 10.21 L-12.17 12.11 Z " />
<path stroke="none" fill="none" id="triA_6-4-3" d="M-71.47 33.76 L-70.47 34.76 L-71.47 35.76 L-71.47 33.76 Z " />
<path stroke="none" fill="none" id="triA_7-2-4" d="M-39.17 18.37 L-37.17 19.37 L-39.17 20.37 L-39.17 18.37 Z " />
<path stroke="none" fill="none" id="triA_0-18-3" d="M-14.04 3.857 L-12.04 4.957 L-14.04 6.857 L-14.04 5.357 L-14.04 3.857 Z " />
<path stroke="none" fill="none" id="triA_1-16-3" d="M-0.5226 12.93 L1.477 14.03 L-0.5226 14.93 L-0.5226 12.93 Z " />
<path stroke="none" fill="none" id="triA_4-10-3" d="M-60.99 37.7 L-58.99 38.7 L-60.99 39.6 L-60.99 37.7 Z " />
<path stroke="none" fill="none" id="triA_5-8-3" d="M-78.86 51.09 L-76.86 52.19 L-78.86 53.09 L-78.86 51.09 Z " />
<path stroke="none" fill="none" id="triA_4-11-3" d="M-64.89 36.9 L-65.79 35.9 L-64.79 33.9 L-64.84 35.4 L-64.89 36.9 Z " />
<path stroke="none" fill="none" id="triA_5-9-3" d="M-70.07 23.11 L-71.97 21.11 L-69.97 20.11 L-70.02 21.61 L-70.07 23.11 Z " />
<path stroke="none" fill="none" id="triA_6-7-3" d="M-55.02 43.32 L-55.92 41.32 L-55.02 40.32 L-55.02 43.32 Z " />
<path stroke="none" fill="none" id="triA_0-4-4_1_" d="M-0.09483 1.074 L-2.095 1.074 L-0.09483 1.074 Z " />
<path stroke="none" fill="none" id="triA_0-3-5" d="M-12.94 17.66 L-14.94 16.66 L-12.94 15.66 L-12.94 17.66 Z " />
<path stroke="none" fill="none" id="triA_0-8-4" d="M-5.64 16.76 L-3.64 16.76 L-5.64 18.66 L-5.64 16.76 Z " />
<path stroke="none" fill="none" id="triA_4-4-4" d="M-66.79 36.6 L-65.79 38.6 L-66.79 38.6 L-66.79 36.6 Z " />
<path stroke="none" fill="none" id="triA_2-6-4" d="M-30.52 19.62 L-28.52 20.62 L-30.02 21.07 L-31.52 21.52 L-30.52 19.62 Z " />
<path stroke="none" fill="none" id="triA_1-9-4" d="M-13.17 7.212 L-14.17 6.212 L-13.07 4.312 L-13.17 7.212 Z " />
<path stroke="none" fill="none" id="triA_3-4-5" d="M-41.39 26.88 L-40.39 28.88 L-41.39 29.88 L-41.39 26.88 Z " />
<path stroke="none" fill="none" id="triA_4-2-5" d="M-67.89 10.4 L-65.89 11.4 L-67.89 13.3 L-67.89 10.4 Z " />
<path stroke="none" fill="none" id="triA_1-10-4" d="M-10.37 7.112 L-9.472 9.212 L-11.47 10.11 L-10.92 8.612 L-10.37 7.112 Z " />
<path stroke="none" fill="none" id="triA_0-3_1_" d="M-8.74 31.66 L-9.64 30.66 L-8.64 29.66 L-8.74 31.66 Z " />
<path stroke="none" fill="none" id="triA_1-7_1_" d="M-17.27 20.71 L-19.27 19.71 L-17.17 17.71 L-17.22 19.21 L-17.27 20.71 Z " />
<path stroke="none" fill="none" id="triA_1-9_1_" d="M-29.27 12.11 L-30.27 10.11 L-29.27 9.112 L-29.27 12.11 Z " />
<path stroke="none" fill="none" id="triA_4-3_1_" d="M-54.3 21.12 L-56.2 20.22 L-54.2 19.22 L-54.3 21.12 Z " />
<path stroke="none" fill="none" id="triA_2-8_1_" d="M-31.52 33.92 L-30.62 36.02 L-31.62 36.82 L-31.52 33.92 Z " />
<path stroke="none" fill="none" id="triA_2-10_1_" d="M-23.12 30.82 L-21.12 32.82 L-23.12 33.82 L-23.12 30.82 Z " />
<path stroke="none" fill="none" id="triA_3-9_1_" d="M-44.09 31.38 L-45.99 29.48 L-43.99 28.58 L-44.09 31.38 Z " />
<path stroke="none" fill="none" id="triA_1-16_1_" d="M-17.87 4.212 L-15.87 5.212 L-17.87 6.112 L-17.87 4.212 Z " />
<path stroke="none" fill="none" id="triA_1-17_1_" d="M-13.27 32.61 L-15.27 31.51 L-13.17 30.61 L-13.27 32.61 Z " />
<path stroke="none" fill="none" id="triA_3-12_1_" d="M-47.79 37.68 L-45.79 39.78 L-47.79 40.68 L-47.79 37.68 Z " />
<path stroke="none" fill="none" id="triA_5-9_1_" d="M-64.63 41.28 L-66.63 40.18 L-64.63 39.28 L-64.63 41.28 Z " />
<path stroke="none" fill="none" id="triA_7-5_1_" d="M-42.91 33.89 L-44.81 31.79 L-42.81 30.89 L-42.86 32.39 L-42.91 33.89 Z " />
<path stroke="none" fill="none" id="triA_0-2-3_1_" d="M-3.74 28.36 L-2.24 29.36 L-0.74 30.36 L-2.29 30.81 L-3.84 31.26 L-3.74 28.36 Z " />
<path stroke="none" fill="none" id="triA_0-7-2_1_" d="M-5.34 32.06 L-7.34 31.06 L-5.24 29.06 L-5.29 30.56 L-5.34 32.06 Z " />
<path stroke="none" fill="none" id="triB_0-7_1_" d="M10.38 65.94 L9.385 65.04 L10.38 63.04 L10.38 65.94 Z " />
<path stroke="none" fill="none" id="triB_3_1_" d="M36.26 71.93 L38.26 72.93 L36.16 73.83 L36.26 71.93 Z " />
<path stroke="none" fill="none" id="triB_1-7_3_" d="M11.78 68.39 L13.66 68.3 L15.53 68.22 L17.41 68.13 L19.28 68.04 L21.16 67.95 L23.03 67.87 L24.91 67.78 L26.78 67.69 L24.91 67.4 L23.03 67.12 L21.16 66.83 L19.28 66.54 L17.41 66.25 L15.53 65.97 L13.66 65.68 L11.78 65.39 L11.78 68.39 Z " />
<path stroke="none" fill="none" id="triB_1-9_3_" d="M27.08 73.29 L26.08 71.29 L27.08 70.29 L27.08 73.29 Z " />
<path stroke="none" fill="none" id="triB_4-2_1_" d="M56.63 102.3 L58.08 102.7 L59.53 103.2 L58.08 104.2 L56.63 105.2 L56.63 102.3 Z " />
<path stroke="none" fill="none" id="triB_2-8_3_" d="M23.36 76.93 L24.36 78.93 L23.36 79.83 L23.36 76.93 Z " />
<path stroke="none" fill="none" id="triB_2-9_1_" d="M19.56 75.93 L17.56 74.93 L19.56 73.93 L19.56 75.93 Z " />
<path stroke="none" fill="none" id="triB_4-6_3_" d="M58.23 90.46 L60.23 90.56 L58.23 92.46 L58.23 90.46 Z " />
<path stroke="none" fill="none" id="triB_5-4_1_" d="M64.55 88.67 L65.55 90.67 L64.55 91.67 L64.55 88.67 Z " />
<path stroke="none" fill="none" id="triB_5-5_1_" d="M80.65 57.71 L78.75 55.71 L80.75 55.81 L80.65 57.71 Z " />
<path stroke="none" fill="none" id="triB_4-8_1_" d="M62.13 89.86 L63.93 90.86 L62.03 92.76 L62.13 89.86 Z " />
<path stroke="none" fill="none" id="triB_4-9_1_" d="M68.75 83.17 L66.75 83.17 L68.75 81.27 L68.75 83.17 Z " />
<path stroke="none" fill="none" id="triB_1-16_3_" d="M26.98 69.59 L25.11 69.68 L23.23 69.77 L21.36 69.85 L19.48 69.94 L17.61 70.03 L15.73 70.12 L13.86 70.2 L11.98 70.29 L13.86 70.45 L15.73 70.62 L17.61 70.78 L19.48 70.94 L21.36 71.1 L23.23 71.27 L25.11 71.43 L26.98 71.59 L26.98 69.59 Z " />
<path stroke="none" fill="none" id="triB_1-17_3_" d="M13.88 62.66 L11.88 61.66 L13.88 60.66 L13.88 62.66 Z " />
<path stroke="none" fill="none" id="triB_3-12_3_" d="M36.8 88.75 L38.7 90.75 L36.7 91.75 L36.75 90.25 L36.8 88.75 Z " />
<path stroke="none" fill="none" id="triB_7-5_3_" d="M39.81 74.39 L37.91 72.29 L39.91 71.39 L39.86 72.89 L39.81 74.39 Z " />
<path stroke="none" fill="none" id="triB_0-2-3_4_" d="M10.44 46.56 L8.94 47.06 L7.44 47.56 L10.44 46.56 Z " />
<path stroke="none" fill="none" id="triB_1-2-3_1_" d="M20.38 89.59 L22.38 90.49 L20.28 92.49 L20.38 89.59 Z " />
<path stroke="none" fill="none" id="triB_0-7-2_3_" d="M16.38 72.84 L14.48 71.84 L16.48 69.84 L16.43 71.34 L16.38 72.84 Z " />
<path stroke="none" fill="none" id="triB_3-2-3_1_" d="M47.1 85.15 L48 86.05 L47 87.05 L47.1 85.15 Z " />
<path stroke="none" fill="none" id="triB_1-8-2_1_" d="M11.08 73.69 L12.98 74.69 L10.98 76.59 L11.08 73.69 Z " />
<path stroke="none" fill="none" id="triB_2-6-2_1_" d="M25.06 72.53 L27.06 73.53 L25.06 74.53 L25.06 72.53 Z " />
<path stroke="none" fill="none" id="triB_4-2-3_1_" d="M61.83 101.3 L61.93 98.36 L62.83 99.36 L61.83 101.3 Z " />
<path stroke="none" fill="none" id="triB_5-2-2_1_" d="M81.47 74.78 L83.47 75.88 L81.47 76.78 L81.47 74.78 Z " />
<path stroke="none" fill="none" id="triB_0-13-2_1_" d="M28.88 81.54 L26.88 81.44 L28.88 79.64 L28.88 81.54 Z " />
<path stroke="none" fill="none" id="triB_3-7-2_1_" d="M50.23 66.02 L48.23 64.02 L50.23 64.02 L50.23 66.02 Z " />
<path stroke="none" fill="none" id="triB_0-14-2_1_" d="M4.24 50.96 L6.24 52.96 L4.24 52.86 L4.24 50.96 Z " />
<path stroke="none" fill="none" id="triB_0-15-2_1_" d="M16.54 47.76 L14.54 45.76 L16.54 45.76 L16.54 47.76 Z " />
<path stroke="none" fill="none" id="triB_1-13-2_1_" d="M19.28 80.49 L17.28 79.49 L19.38 78.49 L19.28 80.49 Z " />
<path stroke="none" fill="none" id="triB_4-7-2_1_" d="M56.03 92.16 L54.03 90.16 L56.03 89.16 L56.03 92.16 Z " />
<path stroke="none" fill="none" id="triB_1-14-2_1_" d="M25.88 82.69 L27.78 83.69 L26.78 84.69 L25.88 82.69 Z " />
<path stroke="none" fill="none" id="triB_4-11-2_1_" d="M69.78 55.63 L67.88 53.53 L69.88 52.63 L69.83 54.13 L69.78 55.63 Z " />
<path stroke="none" fill="none" id="triB_9-2_1_" d="M19.04 70.42 L20.04 71.32 L18.04 72.22 L19.04 70.42 Z " />
<path stroke="none" fill="none" id="triB_8-3-2_1_" d="M30.85 53.37 L28.95 51.37 L30.95 50.37 L30.9 51.87 L30.85 53.37 Z " />
<path stroke="none" fill="none" id="triB_0-4-3_1_" d="M16.78 74.34 L18.78 75.34 L16.68 76.34 L16.78 74.34 Z " />
<path stroke="none" fill="none" id="triB_1-2-4_1_" d="M15.32 53.2 L17.22 54.2 L15.32 55.2 L15.32 53.2 Z " />
<path stroke="none" fill="none" id="triB_2-3-3_1_" d="M31.26 94.03 L33.06 96.03 L31.16 97.03 L31.21 95.53 L31.26 94.03 Z " />
<path stroke="none" fill="none" id="triB_2-3-4_1_" d="M34.46 82.03 L32.46 82.03 L34.56 80.13 L34.46 82.03 Z " />
<path stroke="none" fill="none" id="triB_0-9-3_1_" d="M15.28 74.44 L13.83 73.39 L12.38 72.34 L13.88 71.89 L15.38 71.44 L15.33 72.94 L15.28 74.44 Z " />
<path stroke="none" fill="none" id="triB_0-10-3_1_" d="M20.74 54.06 L22.64 55.06 L20.64 55.96 L20.74 54.06 Z " />
<path stroke="none" fill="none" id="triB_1-9-3_1_" d="M26.42 47.7 L25.42 46.6 L26.42 45.7 L26.42 47.7 Z " />
<path stroke="none" fill="none" id="triB_3-4-3_1_" d="M42.14 57.79 L45.04 57.79 L43.54 58.74 L42.04 59.69 L42.14 57.79 Z " />
<path stroke="none" fill="none" id="triB_4-3-4_1_" d="M67.58 57.73 L65.58 57.73 L66.68 55.83 L67.58 57.73 Z " />
<path stroke="none" fill="none" id="triB_1-10-3_1_" d="M10.48 84.39 L12.38 85.39 L10.38 87.39 L10.43 85.89 L10.48 84.39 Z " />
<path stroke="none" fill="none" id="triB_0-13-3_1_" d="M18.08 70.74 L17.08 69.74 L18.08 68.84 L18.08 70.74 Z " />
<path stroke="none" fill="none" id="triB_3-6-3_1_" d="M49.54 56.69 L51.54 57.79 L49.44 59.69 L49.49 58.19 L49.54 56.69 Z " />
<path stroke="none" fill="none" id="triB_6-3-3_1_" d="M59.48 122.6 L57.58 124.5 L57.58 121.6 L59.48 122.6 Z " />
<path stroke="none" fill="none" id="triB_1-12-3_1_" d="M15.48 76.19 L15.48 74.29 L17.48 75.19 L15.48 76.19 Z " />
<path stroke="none" fill="none" id="triB_2-11-3_1_" d="M40.69 56.88 L38.69 55.88 L40.79 53.88 L40.74 55.38 L40.69 56.88 Z " />
<path stroke="none" fill="none" id="triB_3-9-3_1_" d="M57.4 91.65 L55.5 90.75 L57.5 89.75 L57.4 91.65 Z " />
<path stroke="none" fill="none" id="triB_5-4-3_1_" d="M73.1 104.4 L74.1 104.4 L73.1 106.3 L73.1 104.4 Z " />
<path stroke="none" fill="none" id="triB_5-5-3_1_" d="M72.71 86.3 L71.71 84.3 L73.71 84.4 L72.71 86.3 Z " />
<path stroke="none" fill="none" id="triB_6-3-4_1_" d="M80.78 61.13 L79.78 60.13 L80.78 58.23 L80.78 61.13 Z " />
<path stroke="none" fill="none" id="triB_1-14-3_1_" d="M20.72 53.3 L22.72 54.4 L20.62 55.3 L20.72 53.3 Z " />
<path stroke="none" fill="none" id="triB_1-15-3_1_" d="M20.72 54.8 L18.72 53.9 L20.72 52.9 L20.72 54.8 Z " />
<path stroke="none" fill="none" id="triB_6-4-3_1_" d="M57.28 95.59 L58.28 96.59 L57.28 97.59 L57.28 95.59 Z " />
<path stroke="none" fill="none" id="triB_7-2-4_1_" d="M53.69 66.86 L55.69 67.86 L53.69 68.86 L53.69 66.86 Z " />
<path stroke="none" fill="none" id="triB_0-18-3_1_" d="M6.34 50.36 L8.34 51.46 L6.34 53.36 L6.34 50.36 Z " />
<path stroke="none" fill="none" id="triB_1-16-3_1_" d="M33.52 56.3 L35.52 57.4 L33.52 58.3 L33.52 56.3 Z " />
<path stroke="none" fill="none" id="triB_4-10-3_1_" d="M58.73 95.76 L60.73 96.76 L58.73 97.66 L58.73 95.76 Z " />
<path stroke="none" fill="none" id="triB_5-8-3_1_" d="M66.85 112.3 L68.85 113.4 L66.85 114.3 L66.85 112.3 Z " />
<path stroke="none" fill="none" id="triB_4-11-3_1_" d="M54.83 97.06 L53.93 96.06 L54.93 94.06 L54.88 95.56 L54.83 97.06 Z " />
<path stroke="none" fill="none" id="triB_5-9-3_1_" d="M76.89 71.75 L74.99 69.75 L76.99 68.75 L76.94 70.25 L76.89 71.75 Z " />
<path stroke="none" fill="none" id="triB_6-7-3_1_" d="M71.74 100.4 L70.84 98.35 L71.74 97.35 L71.74 100.4 Z " />
<path stroke="none" fill="none" id="triB_0-4-4_2_" d="M24.14 43.26 L22.14 43.26 L24.14 43.26 Z " />
<path stroke="none" fill="none" id="triB_0-3-5_1_" d="M10.88 64.34 L8.885 63.34 L10.88 62.34 L10.88 64.34 Z " />
<path stroke="none" fill="none" id="triB_0-8-4_1_" d="M13.84 59.36 L15.84 59.36 L13.84 61.26 L13.84 59.36 Z " />
<path stroke="none" fill="none" id="triB_4-4-4_1_" d="M56.03 97.06 L57.03 99.06 L56.03 99.06 L56.03 97.06 Z " />
<path stroke="none" fill="none" id="triB_2-6-4_1_" d="M22.06 70.43 L24.06 71.43 L22.56 71.88 L21.06 72.33 L22.06 70.43 Z " />
<path stroke="none" fill="none" id="triB_1-9-4_1_" d="M22.22 52.5 L21.22 51.5 L22.32 49.6 L22.22 52.5 Z " />
<path stroke="none" fill="none" id="triB_3-4-5_1_" d="M39.6 82.45 L40.6 84.45 L39.6 85.45 L39.6 82.45 Z " />
<path stroke="none" fill="none" id="triB_4-2-5_1_" d="M59.08 54.43 L61.08 55.43 L59.08 57.33 L59.08 54.43 Z " />
<path stroke="none" fill="none" id="triB_1-10-4_1_" d="M23.62 51.5 L24.52 53.6 L22.52 54.5 L23.07 53 L23.62 51.5 Z " />
<path stroke="none" fill="none" id="triB_0-3_2_" d="M10.48 77.44 L9.585 76.44 L10.58 75.44 L10.48 77.44 Z " />
<path stroke="none" fill="none" id="triB_1-7_2_" d="M15.28 67.79 L13.28 66.79 L15.38 64.79 L15.33 66.29 L15.28 67.79 Z " />
<path stroke="none" fill="none" id="triB_1-9_2_" d="M5.236 54.33 L4.236 52.33 L5.236 51.33 L5.236 54.33 Z " />
<path stroke="none" fill="none" id="triB_4-3_2_" d="M68.37 73.53 L66.47 72.63 L68.47 71.63 L68.37 73.53 Z " />
<path stroke="none" fill="none" id="triB_2-8_2_" d="M22.56 85.33 L23.46 87.43 L22.46 88.23 L22.56 85.33 Z " />
<path stroke="none" fill="none" id="triB_2-10_3_" d="M32.06 80.73 L34.06 82.73 L32.06 83.73 L32.06 80.73 Z " />
<path stroke="none" fill="none" id="triB_3-9_2_" d="M39 87.15 L37.1 85.25 L39.1 84.35 L39 87.15 Z " />
<path stroke="none" fill="none" id="triB_1-16_2_" d="M14.42 49 L16.42 50 L14.42 50.9 L14.42 49 Z " />
<path stroke="none" fill="none" id="triB_1-17_2_" d="M22.68 78.99 L20.68 77.89 L22.78 76.99 L22.68 78.99 Z " />
<path stroke="none" fill="none" id="triB_3-12_2_" d="M34.5 92.95 L36.5 95.05 L34.5 95.95 L34.5 92.95 Z " />
<path stroke="none" fill="none" id="triB_5-9_2_" d="M80.1 102.1 L78.1 101 L80.1 100.1 L80.1 102.1 Z " />
<path stroke="none" fill="none" id="triB_7-5_2_" d="M48.02 85.71 L46.12 83.61 L48.12 82.71 L48.07 84.21 L48.02 85.71 Z " />
<path stroke="none" fill="none" id="triB_0-2-3_3_" d="M15.58 74.04 L17.08 75.04 L18.58 76.04 L17.03 76.49 L15.48 76.94 L15.58 74.04 Z " />
<path stroke="none" fill="none" id="triB_0-7-2_2_" d="M17.38 75.54 L15.38 74.54 L17.48 72.54 L17.43 74.04 L17.38 75.54 Z " />
<path stroke="rgb(245,172,181)" stroke-opacity="1" fill="rgb(245,172,181)" fill-opacity="1" id="triC_6-3-3_1_" d="M-32.39 125.4 L-34.39 127.2 L-34.29 124.3 L-32.39 125.4 Z " />
<path stroke="rgb(245,172,181)" stroke-opacity="1" fill="rgb(245,172,181)" fill-opacity="1" id="triC_0-7_2_" d="M-8.993 130.2 L-9.993 129.3 L-8.893 127.3 L-8.993 130.2 Z " />
<path stroke="rgb(245,172,181)" stroke-opacity="1" fill="rgb(245,172,181)" fill-opacity="1" id="triC_3_2_" d="M-29.03 136.3 L-27.03 137.3 L-29.13 138.2 L-29.03 136.3 Z " />
<path stroke="rgb(245,172,181)" stroke-opacity="1" fill="rgb(245,172,181)" fill-opacity="1" id="triC_1-7_5_" d="M-19.47 131.1 L-17.6 131 L-15.72 131 L-13.85 130.9 L-11.97 130.8 L-10.1 130.7 L-8.221 130.6 L-6.346 130.5 L-4.471 130.4 L-6.334 130.1 L-8.196 129.9 L-10.06 129.6 L-11.92 129.3 L-13.78 129 L-15.65 128.7 L-17.51 128.4 L-19.37 128.1 L-19.42 129.6 L-19.47 131.1 Z " />
<path stroke="rgb(245,172,181)" stroke-opacity="1" fill="rgb(245,172,181)" fill-opacity="1" id="triC_1-9_5_" d="M-1.036 139.3 L-2.036 137.3 L-1.036 136.3 L-1.036 139.3 Z " />
<path stroke="rgb(245,172,181)" stroke-opacity="1" fill="rgb(245,172,181)" fill-opacity="1" id="triC_4-2_2_" d="M-37.91 164 L-36.46 164.5 L-35.01 165 L-36.46 166 L-37.91 166.9 L-37.91 164 Z " />
<path stroke="rgb(245,172,181)" stroke-opacity="1" fill="rgb(245,172,181)" fill-opacity="1" id="triC_2-8_5_" d="M-22.02 139.3 L-21.02 141.3 L-22.02 142.2 L-22.02 139.3 Z " />
<path stroke="rgb(245,172,181)" stroke-opacity="1" fill="rgb(245,172,181)" fill-opacity="1" id="triC_2-9_2_" d="M-23.92 138.4 L-25.92 137.3 L-23.92 136.4 L-23.92 138.4 Z " />
<path stroke="rgb(245,172,181)" stroke-opacity="1" fill="rgb(245,172,181)" fill-opacity="1" id="triC_4-6_5_" d="M-41.61 155 L-39.71 155.1 L-41.71 157 L-41.61 155 Z " />
<path stroke="rgb(245,172,181)" stroke-opacity="1" fill="rgb(245,172,181)" fill-opacity="1" id="triC_5-4_2_" d="M-54.1 157.1 L-53.2 159.1 L-54.2 160.1 L-54.15 158.6 L-54.1 157.1 Z " />
<path stroke="rgb(245,172,181)" stroke-opacity="1" fill="rgb(245,172,181)" fill-opacity="1" id="triC_5-5_2_" d="M-50.7 137.4 L-52.7 135.5 L-50.7 135.5 L-50.7 137.4 Z " />
<path stroke="rgb(245,172,181)" stroke-opacity="1" fill="rgb(245,172,181)" fill-opacity="1" id="triC_4-8_2_" d="M-31.21 152 L-29.31 152.9 L-31.21 154.9 L-31.21 152 Z " />
<path stroke="rgb(245,172,181)" stroke-opacity="1" fill="rgb(245,172,181)" fill-opacity="1" id="triC_4-9_2_" d="M-28.17 150.4 L-30.17 150.3 L-28.17 148.5 L-28.17 150.4 Z " />
<path stroke="rgb(245,172,181)" stroke-opacity="1" fill="rgb(245,172,181)" fill-opacity="1" id="triC_1-16_5_" d="M-4.871 131.2 L-6.746 131.3 L-8.621 131.4 L-10.5 131.5 L-12.37 131.6 L-14.25 131.7 L-16.12 131.8 L-18 131.8 L-19.87 131.9 L-18 132.1 L-16.12 132.3 L-14.25 132.4 L-12.37 132.6 L-10.5 132.7 L-8.621 132.9 L-6.746 133.1 L-4.871 133.2 L-4.871 131.2 Z " />
<path stroke="rgb(245,172,181)" stroke-opacity="1" fill="rgb(245,172,181)" fill-opacity="1" id="triC_1-17_5_" d="M-14.97 127.7 L-16.97 126.7 L-14.97 125.7 L-14.97 127.7 Z " />
<path stroke="rgb(245,172,181)" stroke-opacity="1" fill="rgb(245,172,181)" fill-opacity="1" id="triC_3-12_5_" d="M-33.13 150.4 L-31.23 152.4 L-33.23 153.4 L-33.18 151.9 L-33.13 150.4 Z " />
<path stroke="rgb(245,172,181)" stroke-opacity="1" fill="rgb(245,172,181)" fill-opacity="1" id="triC_7-5_5_" d="M-33.61 147.4 L-35.51 145.4 L-33.51 144.4 L-33.56 145.9 L-33.61 147.4 Z " />
<path stroke="rgb(245,172,181)" stroke-opacity="1" fill="rgb(245,172,181)" fill-opacity="1" id="triC_0-2-3_6_" d="M-14.27 109.8 L-15.82 110.3 L-17.37 110.7 L-14.27 109.8 Z " />
<path stroke="rgb(245,172,181)" stroke-opacity="1" fill="rgb(245,172,181)" fill-opacity="1" id="triC_1-2-3_2_" d="M-8.971 150.3 L-6.971 151.2 L-9.071 153.2 L-8.971 150.3 Z " />
<path stroke="rgb(245,172,181)" stroke-opacity="1" fill="rgb(245,172,181)" fill-opacity="1" id="triC_0-7-2_5_" d="M-3.893 132.5 L-5.893 131.5 L-3.793 129.5 L-3.843 131 L-3.893 132.5 Z " />
<path stroke="rgb(245,172,181)" stroke-opacity="1" fill="rgb(245,172,181)" fill-opacity="1" id="triC_3-2-3_2_" d="M-20.43 149.4 L-19.43 150.3 L-20.53 151.3 L-20.43 149.4 Z " />
<path stroke="rgb(245,172,181)" stroke-opacity="1" fill="rgb(245,172,181)" fill-opacity="1" id="triC_1-8-2_2_" d="M-19.07 135.3 L-17.17 136.3 L-19.07 138.2 L-19.07 135.3 Z " />
<path stroke="rgb(245,172,181)" stroke-opacity="1" fill="rgb(245,172,181)" fill-opacity="1" id="triC_2-6-2_2_" d="M-22.92 134.9 L-20.92 135.9 L-22.92 136.9 L-22.92 134.9 Z " />
<path stroke="rgb(245,172,181)" stroke-opacity="1" fill="rgb(245,172,181)" fill-opacity="1" id="triC_4-2-3_2_" d="M-33.41 167.1 L-33.31 164.2 L-32.31 165.2 L-33.41 167.1 Z " />
<path stroke="rgb(245,172,181)" stroke-opacity="1" fill="rgb(245,172,181)" fill-opacity="1" id="triC_5-2-2_2_" d="M-37.91 157.1 L-35.91 158.1 L-37.91 159.1 L-37.91 157.1 Z " />
<path stroke="rgb(245,172,181)" stroke-opacity="1" fill="rgb(245,172,181)" fill-opacity="1" id="triC_0-13-2_2_" d="M8.512 144.7 L6.512 144.7 L8.512 142.8 L8.512 144.7 Z " />
<path stroke="rgb(245,172,181)" stroke-opacity="1" fill="rgb(245,172,181)" fill-opacity="1" id="triC_3-7-2_2_" d="M-18.28 130.1 L-20.28 128 L-18.28 128.1 L-18.28 130.1 Z " />
<path stroke="rgb(245,172,181)" stroke-opacity="1" fill="rgb(245,172,181)" fill-opacity="1" id="triC_0-14-2_2_" d="M-18.27 111 L-16.27 113 L-18.27 112.9 L-18.27 111 Z " />
<path stroke="rgb(245,172,181)" stroke-opacity="1" fill="rgb(245,172,181)" fill-opacity="1" id="triC_0-15-2_2_" d="M-5.472 111 L-7.472 109 L-5.472 109 L-5.472 111 Z " />
<path stroke="rgb(245,172,181)" stroke-opacity="1" fill="rgb(245,172,181)" fill-opacity="1" id="triC_1-13-2_2_" d="M-11.37 143 L-13.37 141.9 L-11.37 141 L-11.37 143 Z " />
<path stroke="rgb(245,172,181)" stroke-opacity="1" fill="rgb(245,172,181)" fill-opacity="1" id="triC_4-7-2_2_" d="M-42.21 155.8 L-44.11 153.8 L-42.11 152.8 L-42.16 154.3 L-42.21 155.8 Z " />
<path stroke="rgb(245,172,181)" stroke-opacity="1" fill="rgb(245,172,181)" fill-opacity="1" id="triC_1-14-2_2_" d="M-5.171 146.5 L-3.271 147.6 L-4.371 148.6 L-5.171 146.5 Z " />
<path stroke="rgb(245,172,181)" stroke-opacity="1" fill="rgb(245,172,181)" fill-opacity="1" id="triC_4-11-2_2_" d="M-35.15 130 L-37.05 128 L-35.05 127 L-35.1 128.5 L-35.15 130 Z " />
<path stroke="rgb(245,172,181)" stroke-opacity="1" fill="rgb(245,172,181)" fill-opacity="1" id="triC_9-2_2_" d="M-15.36 135.5 L-14.36 136.4 L-16.36 137.4 L-15.36 135.5 Z " />
<path stroke="rgb(245,172,181)" stroke-opacity="1" fill="rgb(245,172,181)" fill-opacity="1" id="triC_8-3-2_2_" d="M-24.39 117.3 L-26.29 115.3 L-24.29 114.3 L-24.34 115.8 L-24.39 117.3 Z " />
<path stroke="rgb(245,172,181)" stroke-opacity="1" fill="rgb(245,172,181)" fill-opacity="1" id="triC_0-4-3_2_" d="M-7.993 132.9 L-5.993 134 L-7.993 134.9 L-7.993 132.9 Z " />
<path stroke="rgb(245,172,181)" stroke-opacity="1" fill="rgb(245,172,181)" fill-opacity="1" id="triC_1-2-4_2_" d="M-15.51 118 L-13.61 119.1 L-15.51 120 L-15.51 118 Z " />
<path stroke="rgb(245,172,181)" stroke-opacity="1" fill="rgb(245,172,181)" fill-opacity="1" id="triC_2-3-3_2_" d="M-14.12 154.4 L-12.32 156.4 L-14.22 157.4 L-14.17 155.9 L-14.12 154.4 Z " />
<path stroke="rgb(245,172,181)" stroke-opacity="1" fill="rgb(245,172,181)" fill-opacity="1" id="triC_2-3-4_2_" d="M-10.92 147.4 L-12.92 147.4 L-10.92 145.5 L-10.92 147.4 Z " />
<path stroke="rgb(245,172,181)" stroke-opacity="1" fill="rgb(245,172,181)" fill-opacity="1" id="triC_0-9-3_2_" d="M-5.493 137 L-6.943 136 L-8.393 134.9 L-6.893 134.5 L-5.393 134 L-5.443 135.5 L-5.493 137 Z " />
<path stroke="rgb(245,172,181)" stroke-opacity="1" fill="rgb(245,172,181)" fill-opacity="1" id="triC_0-10-3_2_" d="M4.262 119.4 L6.262 120.5 L4.162 121.3 L4.262 119.4 Z " />
<path stroke="rgb(245,172,181)" stroke-opacity="1" fill="rgb(245,172,181)" fill-opacity="1" id="triC_1-9-3_2_" d="M-2.551 115.5 L-3.551 114.5 L-2.551 113.5 L-2.551 115.5 Z " />
<path stroke="rgb(245,172,181)" stroke-opacity="1" fill="rgb(245,172,181)" fill-opacity="1" id="triC_3-4-3_2_" d="M-28.77 132.1 L-25.87 132.1 L-27.37 133 L-28.87 134 L-28.77 132.1 Z " />
<path stroke="rgb(245,172,181)" stroke-opacity="1" fill="rgb(245,172,181)" fill-opacity="1" id="triC_4-3-4_2_" d="M-36.11 135 L-38.11 134.9 L-37.11 133 L-36.11 135 Z " />
<path stroke="rgb(245,172,181)" stroke-opacity="1" fill="rgb(245,172,181)" fill-opacity="1" id="triC_1-10-3_2_" d="M-20.07 146.1 L-18.07 147.2 L-20.17 149.1 L-20.12 147.6 L-20.07 146.1 Z " />
<path stroke="rgb(245,172,181)" stroke-opacity="1" fill="rgb(245,172,181)" fill-opacity="1" id="triC_0-13-3_2_" d="M-4.193 134 L-5.193 133.1 L-4.193 132.1 L-4.193 134 Z " />
<path stroke="rgb(245,172,181)" stroke-opacity="1" fill="rgb(245,172,181)" fill-opacity="1" id="triC_3-6-3_2_" d="M-25.69 121.2 L-23.69 122.2 L-25.79 124.2 L-25.74 122.7 L-25.69 121.2 Z " />
<path stroke="rgb(245,172,181)" stroke-opacity="1" fill="rgb(245,172,181)" fill-opacity="1" id="triC_6-3-3_2_" d="M-46.56 191.6 L-48.56 193.5 L-48.46 190.6 L-46.56 191.6 Z " />
<path stroke="rgb(245,172,181)" stroke-opacity="1" fill="rgb(245,172,181)" fill-opacity="1" id="triC_1-12-3_2_" d="M-12.27 138.7 L-12.17 136.8 L-10.27 137.7 L-12.27 138.7 Z " />
<path stroke="rgb(245,172,181)" stroke-opacity="1" fill="rgb(245,172,181)" fill-opacity="1" id="triC_2-11-3_2_" d="M-9.389 124.1 L-11.39 123 L-9.289 121.1 L-9.339 122.6 L-9.389 124.1 Z " />
<path stroke="rgb(245,172,181)" stroke-opacity="1" fill="rgb(245,172,181)" fill-opacity="1" id="triC_3-9-3_2_" d="M-10.56 157.4 L-12.56 156.5 L-10.46 155.5 L-10.56 157.4 Z " />
<path stroke="rgb(245,172,181)" stroke-opacity="1" fill="rgb(245,172,181)" fill-opacity="1" id="triC_5-4-3_2_" d="M-45.3 174.4 L-46.4 176.3 L-46.3 174.4 L-45.3 174.4 Z " />
<path stroke="rgb(245,172,181)" stroke-opacity="1" fill="rgb(245,172,181)" fill-opacity="1" id="triC_5-5-3_2_" d="M-44.9 159 L-45.9 157.1 L-43.9 157.2 L-44.9 159 Z " />
<path stroke="rgb(245,172,181)" stroke-opacity="1" fill="rgb(245,172,181)" fill-opacity="1" id="triC_6-3-4_2_" d="M-28.98 149.5 L-29.88 148.5 L-28.88 146.6 L-28.98 149.5 Z " />
<path stroke="rgb(245,172,181)" stroke-opacity="1" fill="rgb(245,172,181)" fill-opacity="1" id="triC_1-14-3_2_" d="M-9.806 119.9 L-7.806 120.9 L-9.906 121.9 L-9.806 119.9 Z " />
<path stroke="rgb(245,172,181)" stroke-opacity="1" fill="rgb(245,172,181)" fill-opacity="1" id="triC_1-15-3_2_" d="M-9.506 118.7 L-11.51 117.8 L-9.506 116.8 L-9.506 118.7 Z " />
<path stroke="rgb(245,172,181)" stroke-opacity="1" fill="rgb(245,172,181)" fill-opacity="1" id="triC_6-4-3_2_" d="M-48.19 160.7 L-47.19 161.7 L-48.19 162.7 L-48.19 160.7 Z " />
<path stroke="rgb(245,172,181)" stroke-opacity="1" fill="rgb(245,172,181)" fill-opacity="1" id="triC_7-2-4_2_" d="M-27.76 136.8 L-25.86 137.9 L-27.86 138.8 L-27.76 136.8 Z " />
<path stroke="rgb(245,172,181)" stroke-opacity="1" fill="rgb(245,172,181)" fill-opacity="1" id="triC_0-18-3_2_" d="M-12.97 113.3 L-10.97 114.4 L-12.97 116.3 L-12.97 113.3 Z " />
<path stroke="rgb(245,172,181)" stroke-opacity="1" fill="rgb(245,172,181)" fill-opacity="1" id="triC_1-16-3_2_" d="M3.944 120 L5.844 121 L3.844 122 L3.944 120 Z " />
<path stroke="rgb(245,172,181)" stroke-opacity="1" fill="rgb(245,172,181)" fill-opacity="1" id="triC_4-10-3_2_" d="M-38.41 162.4 L-36.51 163.4 L-38.51 164.3 L-38.41 162.4 Z " />
<path stroke="rgb(245,172,181)" stroke-opacity="1" fill="rgb(245,172,181)" fill-opacity="1" id="triC_5-8-3_2_" d="M-51.8 183.6 L-49.8 184.7 L-51.9 185.6 L-51.8 183.6 Z " />
<path stroke="rgb(245,172,181)" stroke-opacity="1" fill="rgb(245,172,181)" fill-opacity="1" id="triC_4-11-3_2_" d="M-39.11 158.3 L-40.01 157.3 L-39.01 155.3 L-39.06 156.8 L-39.11 158.3 Z " />
<path stroke="rgb(245,172,181)" stroke-opacity="1" fill="rgb(245,172,181)" fill-opacity="1" id="triC_5-9-3_2_" d="M-46.04 151 L-47.94 149 L-45.94 148 L-45.99 149.5 L-46.04 151 Z " />
<path stroke="rgb(245,172,181)" stroke-opacity="1" fill="rgb(245,172,181)" fill-opacity="1" id="triC_6-7-3_2_" d="M-32.17 173.4 L-32.97 171.4 L-32.07 170.4 L-32.12 171.9 L-32.17 173.4 Z " />
<path stroke="rgb(245,172,181)" stroke-opacity="1" fill="rgb(245,172,181)" fill-opacity="1" id="triC_0-4-4_3_" d="M2.662 108.3 L0.6622 108.3 L2.662 108.3 Z " />
<path stroke="rgb(245,172,181)" stroke-opacity="1" fill="rgb(245,172,181)" fill-opacity="1" id="triC_0-3-5_2_" d="M-12.39 126.7 L-14.29 125.6 L-12.29 124.7 L-12.39 126.7 Z " />
<path stroke="rgb(245,172,181)" stroke-opacity="1" fill="rgb(245,172,181)" fill-opacity="1" id="triC_0-8-4_2_" d="M-3.993 126.5 L-1.993 126.5 L-4.093 128.4 L-3.993 126.5 Z " />
<path stroke="rgb(245,172,181)" stroke-opacity="1" fill="rgb(245,172,181)" fill-opacity="1" id="triC_4-4-4_2_" d="M-44.61 157.4 L-43.71 159.5 L-44.71 159.4 L-44.61 157.4 Z " />
<path stroke="rgb(245,172,181)" stroke-opacity="1" fill="rgb(245,172,181)" fill-opacity="1" id="triC_2-6-4_2_" d="M-21.22 131.7 L-19.22 132.7 L-20.77 133.2 L-22.32 133.7 L-21.22 131.7 Z " />
<path stroke="rgb(245,172,181)" stroke-opacity="1" fill="rgb(245,172,181)" fill-opacity="1" id="triC_1-9-4_2_" d="M-9.306 117.5 L-10.31 116.5 L-9.306 114.6 L-9.306 117.5 Z " />
<path stroke="rgb(245,172,181)" stroke-opacity="1" fill="rgb(245,172,181)" fill-opacity="1" id="triC_3-4-5_2_" d="M-24.63 143.2 L-23.63 145.3 L-24.73 146.2 L-24.68 144.7 L-24.63 143.2 Z " />
<path stroke="rgb(245,172,181)" stroke-opacity="1" fill="rgb(245,172,181)" fill-opacity="1" id="triC_4-2-5_2_" d="M-48.55 129.1 L-46.55 130.1 L-48.55 132 L-48.55 129.1 Z " />
<path stroke="rgb(245,172,181)" stroke-opacity="1" fill="rgb(245,172,181)" fill-opacity="1" id="triC_1-10-4_2_" d="M-4.866 115 L-3.866 117 L-5.966 118 L-5.416 116.5 L-4.866 115 Z " />
<path stroke="rgb(245,172,181)" stroke-opacity="1" fill="rgb(245,172,181)" fill-opacity="1" id="triC_0-3_3_" d="M-5.193 137.7 L-6.193 136.7 L-5.193 135.7 L-5.193 137.7 Z " />
<path stroke="rgb(245,172,181)" stroke-opacity="1" fill="rgb(245,172,181)" fill-opacity="1" id="triC_1-7_4_" d="M-13.67 132.4 L-15.67 131.3 L-13.57 129.4 L-13.62 130.9 L-13.67 132.4 Z " />
<path stroke="rgb(245,172,181)" stroke-opacity="1" fill="rgb(245,172,181)" fill-opacity="1" id="triC_1-9_4_" d="M-26.11 118.3 L-27.11 116.3 L-26.11 115.3 L-26.11 118.3 Z " />
<path stroke="rgb(245,172,181)" stroke-opacity="1" fill="rgb(245,172,181)" fill-opacity="1" id="triC_4-3_3_" d="M-28.1 143.3 L-30.1 142.4 L-28.1 141.4 L-28.1 143.3 Z " />
<path stroke="rgb(245,172,181)" stroke-opacity="1" fill="rgb(245,172,181)" fill-opacity="1" id="triC_2-8_4_" d="M-24.72 146.7 L-23.82 148.7 L-24.82 149.6 L-24.72 146.7 Z " />
<path stroke="rgb(245,172,181)" stroke-opacity="1" fill="rgb(245,172,181)" fill-opacity="1" id="triC_2-10_5_" d="M-12.42 145.4 L-10.52 147.4 L-12.52 148.4 L-12.47 146.9 L-12.42 145.4 Z " />
<path stroke="rgb(245,172,181)" stroke-opacity="1" fill="rgb(245,172,181)" fill-opacity="1" id="triC_3-9_3_" d="M-26.83 147.6 L-28.83 145.7 L-26.83 144.8 L-26.83 147.6 Z " />
<path stroke="rgb(245,172,181)" stroke-opacity="1" fill="rgb(245,172,181)" fill-opacity="1" id="triC_1-16_4_" d="M-12.91 111.1 L-10.91 112.1 L-12.91 113 L-12.91 111.1 Z " />
<path stroke="rgb(245,172,181)" stroke-opacity="1" fill="rgb(245,172,181)" fill-opacity="1" id="triC_1-17_4_" d="M-11.37 140.8 L-13.37 139.8 L-11.37 138.8 L-11.37 140.8 Z " />
<path stroke="rgb(245,172,181)" stroke-opacity="1" fill="rgb(245,172,181)" fill-opacity="1" id="triC_3-12_4_" d="M-32.63 156.2 L-30.73 158.3 L-32.73 159.2 L-32.68 157.7 L-32.63 156.2 Z " />
<path stroke="rgb(245,172,181)" stroke-opacity="1" fill="rgb(245,172,181)" fill-opacity="1" id="triC_5-9_3_" d="M-36.01 171.2 L-38.01 170.2 L-36.01 169.2 L-36.01 171.2 Z " />
<path stroke="rgb(245,172,181)" stroke-opacity="1" fill="rgb(245,172,181)" fill-opacity="1" id="triC_7-5_4_" d="M-30.11 152.4 L-32.01 150.4 L-30.01 149.4 L-30.06 150.9 L-30.11 152.4 Z " />
<path stroke="rgb(245,172,181)" stroke-opacity="1" fill="rgb(245,172,181)" fill-opacity="1" id="triC_0-2-3_5_" d="M-4.293 137.9 L-2.793 138.9 L-1.293 139.8 L-2.843 140.3 L-4.393 140.8 L-4.293 137.9 Z " />
<path stroke="rgb(245,172,181)" stroke-opacity="1" fill="rgb(245,172,181)" fill-opacity="1" id="triC_0-7-2_4_" d="M-4.793 140.5 L-6.793 139.4 L-4.693 137.5 L-4.743 139 L-4.793 140.5 Z " />
<path stroke="rgb(245,172,181)" stroke-opacity="1" fill="rgb(245,172,181)" fill-opacity="1" id="triC_0-7_3_" d="M-7.693 152.4 L-8.693 151.5 L-7.693 149.5 L-7.693 152.4 Z " />
<path stroke="rgb(245,172,181)" stroke-opacity="1" fill="rgb(245,172,181)" fill-opacity="1" id="triC_3_3_" d="M-29.73 156.8 L-27.83 157.8 L-29.83 158.7 L-29.73 156.8 Z " />
<path stroke="rgb(245,172,181)" stroke-opacity="1" fill="rgb(245,172,181)" fill-opacity="1" id="triC_1-7_7_" d="M-19.87 150.5 L-18 150.4 L-16.12 150.4 L-14.25 150.3 L-12.37 150.2 L-10.5 150.1 L-8.621 150 L-6.746 149.9 L-4.871 149.8 L-6.746 149.5 L-8.621 149.3 L-10.5 149 L-12.37 148.7 L-14.25 148.4 L-16.12 148.1 L-18 147.8 L-19.87 147.5 L-19.87 150.5 Z " />
<path stroke="rgb(245,172,181)" stroke-opacity="1" fill="rgb(245,172,181)" fill-opacity="1" id="triC_1-9_7_" d="M0.664 162.1 L-0.236 160.1 L0.764 159.1 L0.714 160.6 L0.664 162.1 Z " />
<path stroke="rgb(245,172,181)" stroke-opacity="1" fill="rgb(245,172,181)" fill-opacity="1" id="triC_4-2_3_" d="M-39.91 189.2 L-38.46 189.7 L-37.01 190.2 L-38.46 191.2 L-39.91 192.1 L-39.91 189.2 Z " />
<path stroke="rgb(245,172,181)" stroke-opacity="1" fill="rgb(245,172,181)" fill-opacity="1" id="triC_2-8_7_" d="M-22.42 158.2 L-21.52 160.2 L-22.52 161.1 L-22.42 158.2 Z " />
<path stroke="rgb(245,172,181)" stroke-opacity="1" fill="rgb(245,172,181)" fill-opacity="1" id="triC_2-9_3_" d="M-24.92 161.4 L-26.92 160.3 L-24.92 159.4 L-24.92 161.4 Z " />
<path stroke="rgb(245,172,181)" stroke-opacity="1" fill="rgb(245,172,181)" fill-opacity="1" id="triC_4-6_7_" d="M-38.21 179.8 L-36.21 179.8 L-38.21 181.8 L-38.21 179.8 Z " />
<path stroke="rgb(245,172,181)" stroke-opacity="1" fill="rgb(245,172,181)" fill-opacity="1" id="triC_5-4_3_" d="M-50.8 176.8 L-49.8 178.8 L-50.8 179.8 L-50.8 176.8 Z " />
<path stroke="rgb(245,172,181)" stroke-opacity="1" fill="rgb(245,172,181)" fill-opacity="1" id="triC_5-5_3_" d="M-45.8 165.6 L-47.7 163.7 L-45.7 163.7 L-45.8 165.6 Z " />
<path stroke="rgb(245,172,181)" stroke-opacity="1" fill="rgb(245,172,181)" fill-opacity="1" id="triC_4-8_3_" d="M-34.71 177 L-32.91 178 L-34.81 179.9 L-34.71 177 Z " />
<path stroke="rgb(245,172,181)" stroke-opacity="1" fill="rgb(245,172,181)" fill-opacity="1" id="triC_4-9_3_" d="M-27.77 175.1 L-29.77 175.1 L-27.67 173.2 L-27.77 175.1 Z " />
<path stroke="rgb(245,172,181)" stroke-opacity="1" fill="rgb(245,172,181)" fill-opacity="1" id="triC_1-16_7_" d="M0.2286 155.9 L-1.646 156 L-3.521 156.1 L-5.396 156.2 L-7.271 156.3 L-9.146 156.4 L-11.02 156.5 L-12.9 156.5 L-14.77 156.6 L-12.9 156.8 L-11.02 157 L-9.146 157.1 L-7.271 157.3 L-5.396 157.4 L-3.521 157.6 L-1.646 157.8 L0.2286 157.9 L0.2286 155.9 Z " />
<path stroke="rgb(245,172,181)" stroke-opacity="1" fill="rgb(245,172,181)" fill-opacity="1" id="triC_1-17_7_" d="M-13.97 148.5 L-15.97 147.5 L-13.97 146.5 L-13.97 148.5 Z " />
<path stroke="rgb(245,172,181)" stroke-opacity="1" fill="rgb(245,172,181)" fill-opacity="1" id="triC_3-12_7_" d="M-33.33 177.4 L-31.33 179.5 L-33.33 180.4 L-33.33 177.4 Z " />
<path stroke="rgb(245,172,181)" stroke-opacity="1" fill="rgb(245,172,181)" fill-opacity="1" id="triC_7-5_7_" d="M-33.01 167.5 L-35.01 165.4 L-33.01 164.5 L-33.01 167.5 Z " />
<path stroke="rgb(245,172,181)" stroke-opacity="1" fill="rgb(245,172,181)" fill-opacity="1" id="triC_0-2-3_8_" d="M-9.693 130.2 L-11.19 130.7 L-12.69 131.1 L-9.693 130.2 Z " />
<path stroke="rgb(245,172,181)" stroke-opacity="1" fill="rgb(245,172,181)" fill-opacity="1" id="triC_1-2-3_3_" d="M-5.071 173.2 L-3.071 174.1 L-5.171 176.1 L-5.071 173.2 Z " />
<path stroke="rgb(245,172,181)" stroke-opacity="1" fill="rgb(245,172,181)" fill-opacity="1" id="triC_0-7-2_7_" d="M-4.993 157.7 L-6.993 156.6 L-4.893 154.7 L-4.943 156.2 L-4.993 157.7 Z " />
<path stroke="rgb(245,172,181)" stroke-opacity="1" fill="rgb(245,172,181)" fill-opacity="1" id="triC_3-2-3_3_" d="M-22.33 174.4 L-21.33 175.3 L-22.33 176.3 L-22.33 174.4 Z " />
<path stroke="rgb(245,172,181)" stroke-opacity="1" fill="rgb(245,172,181)" fill-opacity="1" id="triC_1-8-2_3_" d="M-14.57 158.3 L-12.77 159.3 L-14.67 161.2 L-14.57 158.3 Z " />
<path stroke="rgb(245,172,181)" stroke-opacity="1" fill="rgb(245,172,181)" fill-opacity="1" id="triC_2-6-2_3_" d="M-21.02 153.5 L-19.02 154.6 L-21.12 155.5 L-21.02 153.5 Z " />
<path stroke="rgb(245,172,181)" stroke-opacity="1" fill="rgb(245,172,181)" fill-opacity="1" id="triC_4-2-3_3_" d="M-35.71 186.9 L-35.71 184 L-34.71 185.1 L-35.71 186.9 Z " />
<path stroke="rgb(245,172,181)" stroke-opacity="1" fill="rgb(245,172,181)" fill-opacity="1" id="triC_5-2-2_3_" d="M-39.41 177.9 L-37.41 178.9 L-39.51 179.9 L-39.41 177.9 Z " />
<path stroke="rgb(245,172,181)" stroke-opacity="1" fill="rgb(245,172,181)" fill-opacity="1" id="triC_0-13-2_3_" d="M8.512 163.4 L6.512 163.4 L8.612 161.5 L8.512 163.4 Z " />
<path stroke="rgb(245,172,181)" stroke-opacity="1" fill="rgb(245,172,181)" fill-opacity="1" id="triC_3-7-2_3_" d="M-15.26 158.2 L-17.16 156.2 L-15.16 156.2 L-15.26 158.2 Z " />
<path stroke="rgb(245,172,181)" stroke-opacity="1" fill="rgb(245,172,181)" fill-opacity="1" id="triC_0-14-2_3_" d="M-13.99 133.6 L-11.99 135.5 L-13.99 135.5 L-13.99 133.6 Z " />
<path stroke="rgb(245,172,181)" stroke-opacity="1" fill="rgb(245,172,181)" fill-opacity="1" id="triC_0-15-2_3_" d="M-3.093 136 L-5.093 134 L-3.093 134 L-3.093 136 Z " />
<path stroke="rgb(245,172,181)" stroke-opacity="1" fill="rgb(245,172,181)" fill-opacity="1" id="triC_1-13-2_3_" d="M-9.771 167 L-11.77 165.9 L-9.771 165 L-9.771 167 Z " />
<path stroke="rgb(245,172,181)" stroke-opacity="1" fill="rgb(245,172,181)" fill-opacity="1" id="triC_4-7-2_3_" d="M-40.11 174.3 L-42.11 172.2 L-40.01 171.3 L-40.06 172.8 L-40.11 174.3 Z " />
<path stroke="rgb(245,172,181)" stroke-opacity="1" fill="rgb(245,172,181)" fill-opacity="1" id="triC_1-14-2_3_" d="M-3.132 171 L-1.232 172.1 L-2.332 173 L-3.132 171 Z " />
<path stroke="rgb(245,172,181)" stroke-opacity="1" fill="rgb(245,172,181)" fill-opacity="1" id="triC_4-11-2_3_" d="M-31.51 159.4 L-33.41 157.3 L-31.41 156.4 L-31.46 157.9 L-31.51 159.4 Z " />
<path stroke="rgb(245,172,181)" stroke-opacity="1" fill="rgb(245,172,181)" fill-opacity="1" id="triC_9-2_3_" d="M-12.66 159.7 L-11.66 160.6 L-13.76 161.6 L-12.66 159.7 Z " />
<path stroke="rgb(245,172,181)" stroke-opacity="1" fill="rgb(245,172,181)" fill-opacity="1" id="triC_8-3-2_3_" d="M-21.55 144.7 L-23.45 142.7 L-21.45 141.7 L-21.5 143.2 L-21.55 144.7 Z " />
<path stroke="rgb(245,172,181)" stroke-opacity="1" fill="rgb(245,172,181)" fill-opacity="1" id="triC_0-4-3_3_" d="M-6.293 156.5 L-4.293 157.5 L-6.293 158.5 L-6.293 156.5 Z " />
<path stroke="rgb(245,172,181)" stroke-opacity="1" fill="rgb(245,172,181)" fill-opacity="1" id="triC_1-2-4_3_" d="M-11.07 140.2 L-9.171 141.2 L-11.17 142.2 L-11.07 140.2 Z " />
<path stroke="rgb(245,172,181)" stroke-opacity="1" fill="rgb(245,172,181)" fill-opacity="1" id="triC_2-3-3_3_" d="M-13.82 177.7 L-12.02 179.8 L-13.92 180.7 L-13.87 179.2 L-13.82 177.7 Z " />
<path stroke="rgb(245,172,181)" stroke-opacity="1" fill="rgb(245,172,181)" fill-opacity="1" id="triC_2-3-4_3_" d="M-10.52 167.7 L-12.52 167.6 L-10.42 165.8 L-10.52 167.7 Z " />
<path stroke="rgb(245,172,181)" stroke-opacity="1" fill="rgb(245,172,181)" fill-opacity="1" id="triC_0-9-3_3_" d="M-3.493 159.8 L-4.993 158.8 L-6.493 157.7 L-4.943 157.3 L-3.393 156.8 L-3.443 158.3 L-3.493 159.8 Z " />
<path stroke="rgb(245,172,181)" stroke-opacity="1" fill="rgb(245,172,181)" fill-opacity="1" id="triC_0-10-3_3_" d="M4.412 140.3 L6.412 141.3 L4.412 142.2 L4.412 140.3 Z " />
<path stroke="rgb(245,172,181)" stroke-opacity="1" fill="rgb(245,172,181)" fill-opacity="1" id="triC_1-9-3_3_" d="M1.564 138.5 L0.564 137.5 L1.664 136.5 L1.564 138.5 Z " />
<path stroke="rgb(245,172,181)" stroke-opacity="1" fill="rgb(245,172,181)" fill-opacity="1" id="triC_3-4-3_3_" d="M-27.93 156 L-25.03 156 L-26.48 157 L-27.93 157.9 L-27.93 156 Z " />
<path stroke="rgb(245,172,181)" stroke-opacity="1" fill="rgb(245,172,181)" fill-opacity="1" id="triC_4-3-4_3_" d="M-35.21 160.4 L-37.21 160.3 L-36.21 158.5 L-35.21 160.4 Z " />
<path stroke="rgb(245,172,181)" stroke-opacity="1" fill="rgb(245,172,181)" fill-opacity="1" id="triC_1-10-3_3_" d="M-19.87 166.7 L-17.87 167.8 L-19.87 169.7 L-19.87 166.7 Z " />
<path stroke="rgb(245,172,181)" stroke-opacity="1" fill="rgb(245,172,181)" fill-opacity="1" id="triC_0-13-3_3_" d="M-0.3913 156.7 L-1.391 155.8 L-0.3913 154.8 L-0.3913 156.7 Z " />
<path stroke="rgb(245,172,181)" stroke-opacity="1" fill="rgb(245,172,181)" fill-opacity="1" id="triC_3-6-3_3_" d="M-20.03 150.3 L-18.03 151.3 L-20.03 153.3 L-20.03 150.3 Z " />
<path stroke="rgb(245,172,181)" stroke-opacity="1" fill="rgb(245,172,181)" fill-opacity="1" id="triC_6-3-3_3_" d="M-42.58 213.9 L-44.58 215.7 L-44.48 212.8 L-42.58 213.9 Z " />
<path stroke="rgb(245,172,181)" stroke-opacity="1" fill="rgb(245,172,181)" fill-opacity="1" id="triC_1-12-3_3_" d="M-12.47 161.6 L-12.37 159.7 L-10.37 160.6 L-12.47 161.6 Z " />
<path stroke="rgb(245,172,181)" stroke-opacity="1" fill="rgb(245,172,181)" fill-opacity="1" id="triC_2-11-3_3_" d="M-9.497 146.1 L-11.5 145 L-9.397 143.1 L-9.447 144.6 L-9.497 146.1 Z " />
<path stroke="rgb(245,172,181)" stroke-opacity="1" fill="rgb(245,172,181)" fill-opacity="1" id="triC_3-9-3_3_" d="M-6.918 180.8 L-8.918 179.9 L-6.918 178.9 L-6.918 180.8 Z " />
<path stroke="rgb(245,172,181)" stroke-opacity="1" fill="rgb(245,172,181)" fill-opacity="1" id="triC_5-4-3_3_" d="M-42.33 200.1 L-43.33 202 L-43.33 200.1 L-42.33 200.1 Z " />
<path stroke="rgb(245,172,181)" stroke-opacity="1" fill="rgb(245,172,181)" fill-opacity="1" id="triC_5-5-3_3_" d="M-46.1 180.9 L-47.1 179 L-45.1 179 L-46.1 180.9 Z " />
<path stroke="rgb(245,172,181)" stroke-opacity="1" fill="rgb(245,172,181)" fill-opacity="1" id="triC_6-3-4_3_" d="M-22.72 174.8 L-23.72 173.8 L-22.62 171.9 L-22.72 174.8 Z " />
<path stroke="rgb(245,172,181)" stroke-opacity="1" fill="rgb(245,172,181)" fill-opacity="1" id="triC_1-14-3_3_" d="M-9.371 141.8 L-7.371 142.8 L-9.371 143.8 L-9.371 141.8 Z " />
<path stroke="rgb(245,172,181)" stroke-opacity="1" fill="rgb(245,172,181)" fill-opacity="1" id="triC_1-15-3_3_" d="M-8.571 143.6 L-10.57 142.7 L-8.571 141.7 L-8.571 143.6 Z " />
<path stroke="rgb(245,172,181)" stroke-opacity="1" fill="rgb(245,172,181)" fill-opacity="1" id="triC_6-4-3_3_" d="M-47.69 182 L-46.79 183 L-47.79 184 L-47.69 182 Z " />
<path stroke="rgb(245,172,181)" stroke-opacity="1" fill="rgb(245,172,181)" fill-opacity="1" id="triC_7-2-4_3_" d="M-21.11 160.2 L-19.11 161.2 L-21.11 162.2 L-21.11 160.2 Z " />
<path stroke="rgb(245,172,181)" stroke-opacity="1" fill="rgb(245,172,181)" fill-opacity="1" id="triC_0-18-3_3_" d="M-14.79 132.5 L-12.79 133.5 L-14.89 135.5 L-14.84 134 L-14.79 132.5 Z " />
<path stroke="rgb(245,172,181)" stroke-opacity="1" fill="rgb(245,172,181)" fill-opacity="1" id="triC_1-16-3_3_" d="M3.364 143.7 L5.364 144.7 L3.364 145.7 L3.364 143.7 Z " />
<path stroke="rgb(245,172,181)" stroke-opacity="1" fill="rgb(245,172,181)" fill-opacity="1" id="triC_4-10-3_3_" d="M-34.11 184.9 L-32.11 185.8 L-34.11 186.8 L-34.11 184.9 Z " />
<path stroke="rgb(245,172,181)" stroke-opacity="1" fill="rgb(245,172,181)" fill-opacity="1" id="triC_5-8-3_3_" d="M-46.97 209.7 L-44.97 210.8 L-46.97 211.7 L-46.97 209.7 Z " />
<path stroke="rgb(245,172,181)" stroke-opacity="1" fill="rgb(245,172,181)" fill-opacity="1" id="triC_4-11-3_3_" d="M-41.01 182 L-41.91 180.9 L-41.01 179 L-41.01 182 Z " />
<path stroke="rgb(245,172,181)" stroke-opacity="1" fill="rgb(245,172,181)" fill-opacity="1" id="triC_5-9-3_3_" d="M-46.1 173.9 L-48 171.8 L-46 170.9 L-46.05 172.4 L-46.1 173.9 Z " />
<path stroke="rgb(245,172,181)" stroke-opacity="1" fill="rgb(245,172,181)" fill-opacity="1" id="triC_6-7-3_3_" d="M-30.24 196.8 L-31.04 194.8 L-30.14 193.8 L-30.19 195.3 L-30.24 196.8 Z " />
<path stroke="rgb(245,172,181)" stroke-opacity="1" fill="rgb(245,172,181)" fill-opacity="1" id="triC_0-4-4_4_" d="M0.1087 129.7 L-1.891 129.7 L0.1087 129.7 Z " />
<path stroke="rgb(245,172,181)" stroke-opacity="1" fill="rgb(245,172,181)" fill-opacity="1" id="triC_0-3-5_3_" d="M-9.593 145.8 L-11.59 144.8 L-9.593 143.8 L-9.593 145.8 Z " />
<path stroke="rgb(245,172,181)" stroke-opacity="1" fill="rgb(245,172,181)" fill-opacity="1" id="triC_0-8-4_3_" d="M-3.493 146.8 L-1.493 146.8 L-3.593 148.7 L-3.493 146.8 Z " />
<path stroke="rgb(245,172,181)" stroke-opacity="1" fill="rgb(245,172,181)" fill-opacity="1" id="triC_4-4-4_3_" d="M-44.71 180.2 L-43.71 182.2 L-44.71 182.2 L-44.71 180.2 Z " />
<path stroke="rgb(245,172,181)" stroke-opacity="1" fill="rgb(245,172,181)" fill-opacity="1" id="triC_2-6-4_3_" d="M-20.62 153.3 L-18.62 154.4 L-20.12 154.8 L-21.62 155.3 L-20.62 153.3 Z " />
<path stroke="rgb(245,172,181)" stroke-opacity="1" fill="rgb(245,172,181)" fill-opacity="1" id="triC_1-9-4_3_" d="M-6.171 139.8 L-7.171 138.8 L-6.171 136.9 L-6.171 139.8 Z " />
<path stroke="rgb(245,172,181)" stroke-opacity="1" fill="rgb(245,172,181)" fill-opacity="1" id="triC_3-4-5_3_" d="M-26.53 163.9 L-25.53 165.9 L-26.63 166.9 L-26.58 165.4 L-26.53 163.9 Z " />
<path stroke="rgb(245,172,181)" stroke-opacity="1" fill="rgb(245,172,181)" fill-opacity="1" id="triC_4-2-5_3_" d="M-42.21 154.9 L-40.21 156 L-42.31 157.8 L-42.21 154.9 Z " />
<path stroke="rgb(245,172,181)" stroke-opacity="1" fill="rgb(245,172,181)" fill-opacity="1" id="triC_1-10-4_3_" d="M-3.152 141.5 L-2.252 143.5 L-4.252 144.4 L-3.702 143 L-3.152 141.5 Z " />
<path stroke="rgb(245,172,181)" stroke-opacity="1" fill="rgb(245,172,181)" fill-opacity="1" id="triC_0-3_4_" d="M-9.193 160.9 L-10.19 159.9 L-9.193 158.9 L-9.193 160.9 Z " />
<path stroke="rgb(245,172,181)" stroke-opacity="1" fill="rgb(245,172,181)" fill-opacity="1" id="triC_1-7_6_" d="M-12.57 152.5 L-14.47 151.5 L-12.47 149.5 L-12.52 151 L-12.57 152.5 Z " />
<path stroke="rgb(245,172,181)" stroke-opacity="1" fill="rgb(245,172,181)" fill-opacity="1" id="triC_1-9_6_" d="M-24.37 145.7 L-25.27 143.7 L-24.27 142.7 L-24.32 144.2 L-24.37 145.7 Z " />
<path stroke="rgb(245,172,181)" stroke-opacity="1" fill="rgb(245,172,181)" fill-opacity="1" id="triC_4-3_4_" d="M-30.41 167.9 L-32.41 166.9 L-30.41 166 L-30.41 167.9 Z " />
<path stroke="rgb(245,172,181)" stroke-opacity="1" fill="rgb(245,172,181)" fill-opacity="1" id="triC_2-8_6_" d="M-23.02 167.7 L-22.02 169.7 L-23.02 170.6 L-23.02 167.7 Z " />
<path stroke="rgb(245,172,181)" stroke-opacity="1" fill="rgb(245,172,181)" fill-opacity="1" id="triC_2-10_7_" d="M-14.12 164 L-12.12 166.1 L-14.12 167 L-14.12 164 Z " />
<path stroke="rgb(245,172,181)" stroke-opacity="1" fill="rgb(245,172,181)" fill-opacity="1" id="triC_3-9_4_" d="M-28.33 171.2 L-30.23 169.3 L-28.23 168.4 L-28.33 171.2 Z " />
<path stroke="rgb(245,172,181)" stroke-opacity="1" fill="rgb(245,172,181)" fill-opacity="1" id="triC_1-16_6_" d="M-14.07 135 L-12.07 136.1 L-14.07 136.9 L-14.07 135 Z " />
<path stroke="rgb(245,172,181)" stroke-opacity="1" fill="rgb(245,172,181)" fill-opacity="1" id="triC_1-17_6_" d="M-8.971 162.4 L-10.97 161.4 L-8.871 160.4 L-8.971 162.4 Z " />
<path stroke="rgb(245,172,181)" stroke-opacity="1" fill="rgb(245,172,181)" fill-opacity="1" id="triC_3-12_6_" d="M-31.53 176 L-29.63 178 L-31.63 179 L-31.58 177.5 L-31.53 176 Z " />
<path stroke="rgb(245,172,181)" stroke-opacity="1" fill="rgb(245,172,181)" fill-opacity="1" id="triC_5-9_4_" d="M-33.03 199.3 L-35.03 198.2 L-32.93 197.3 L-33.03 199.3 Z " />
<path stroke="rgb(245,172,181)" stroke-opacity="1" fill="rgb(245,172,181)" fill-opacity="1" id="triC_7-5_6_" d="M-26.01 177.4 L-27.91 175.3 L-25.91 174.4 L-25.96 175.9 L-26.01 177.4 Z " />
<path stroke="rgb(245,172,181)" stroke-opacity="1" fill="rgb(245,172,181)" fill-opacity="1" id="triC_0-2-3_7_" d="M0.3116 156.9 L1.812 157.9 L3.312 158.9 L1.812 159.4 L0.3116 159.8 L0.3116 156.9 Z " />
<path stroke="rgb(245,172,181)" stroke-opacity="1" fill="rgb(245,172,181)" fill-opacity="1" id="triC_0-7-2_6_" d="M-3.493 161.1 L-5.493 160 L-3.493 158.1 L-3.493 161.1 Z " />
<path stroke="rgb(0,0,0)" stroke-opacity="1" fill="rgb(255,255,255)" fill-opacity="1" id="tempino" d="M-10.5 207.4 L-8.547 207.4 L-6.595 207.4 L-4.642 207.4 L-2.689 207.4 L-0.7368 207.4 L1.216 207.4 L3.168 207.4 L5.121 207.4 L7.074 207.4 L9.026 207.4 L10.98 207.4 L12.93 207.4 L14.88 207.4 L16.84 207.4 L18.79 207.4 L20.74 207.4 L22.69 207.4 L24.65 207.4 L26.6 207.4 L26.6 209.4 L26.6 211.3 L26.6 213.3 L26.6 215.2 L26.6 217.2 L26.6 219.1 L26.6 221.1 L26.6 223 L26.6 225 L26.6 226.9 L26.6 228.9 L26.6 230.8 L26.6 232.8 L26.6 234.7 L26.6 236.7 L26.6 238.6 L26.6 240.6 L26.6 242.5 L26.6 244.5 L24.65 244.5 L22.69 244.5 L20.74 244.5 L18.79 244.5 L16.84 244.5 L14.88 244.5 L12.93 244.5 L10.98 244.5 L9.026 244.5 L7.074 244.5 L5.121 244.5 L3.168 244.5 L1.216 244.5 L-0.7368 244.5 L-2.689 244.5 L-4.642 244.5 L-6.595 244.5 L-8.547 244.5 L-10.5 244.5 L-10.5 242.5 L-10.5 240.6 L-10.5 238.6 L-10.5 236.7 L-10.5 234.7 L-10.5 232.8 L-10.5 230.8 L-10.5 228.9 L-10.5 226.9 L-10.5 225 L-10.5 223 L-10.5 221.1 L-10.5 219.1 L-10.5 217.2 L-10.5 215.2 L-10.5 213.3 L-10.5 211.3 L-10.5 209.4 L-10.5 207.4 Z " />
</g>
</g>
</svg>
