<!DOCTYPE svg>
<svg xmlns="http://www.w3.org/2000/svg" xmlns:xlink="http://www.w3.org/1999/xlink" width="600" height="600">
<g transform="translate(300.000000,300.000000)">
<g transform="scale(3.000000,3.000000)">
<path stroke="rgb(0,0,0)" stroke-opacity="1" fill="rgb(255,255,255)" fill-opacity="1" id="Layer_1" d="M107.411 107.089 L105.406 107.092 L103.402 107.095 L101.397 107.098 L99.3922 107.101 L97.3875 107.104 L95.3828 107.107 L93.3782 107.11 L91.3735 107.113 L89.3688 107.116 L87.3641 107.119 L85.3595 107.122 L83.3548 107.125 L81.3501 107.128 L79.3455 107.131 L77.3408 107.134 L75.3361 107.137 L73.3314 107.14 L71.3268 107.143 L69.3221 107.146 L67.3174 107.149 L65.3127 107.152 L63.3081 107.155 L61.3034 107.158 L59.2987 107.161 L57.2941 107.164 L55.2894 107.167 L53.2847 107.17 L51.28 107.173 L49.2754 107.176 L47.2707 107.179 L45.266 107.182 L43.2613 107.185 L41.2567 107.188 L39.252 107.191 L37.2473 107.194 L35.2426 107.197 L33.238 107.2 L31.2333 107.203 L29.2286 107.206 L27.224 107.209 L25.2193 107.212 L23.2146 107.215 L21.2099 107.218 L19.2053 107.221 L17.2006 107.224 L15.1959 107.227 L13.1912 107.23 L11.1866 107.233 L9.1819 107.236 L7.17723 107.239 L5.17256 107.242 L3.16788 107.245 L1.16321 107.248 L-0.841463 107.252 L-2.84614 107.255 L-4.85081 107.258 L-6.85548 107.261 L-8.86015 107.264 L-10.8648 107.267 L-12.8695 107.27 L-14.8742 107.273 L-16.8788 107.276 L-18.8835 107.279 L-20.8882 107.282 L-22.8929 107.285 L-24.8975 107.288 L-26.9022 107.291 L-28.9069 107.294 L-30.9116 107.297 L-32.9162 107.3 L-34.9209 107.303 L-36.9256 107.306 L-38.9302 107.309 L-40.9349 107.312 L-42.9396 107.315 L-44.9443 107.318 L-46.9489 107.321 L-48.9536 107.324 L-50.9583 107.327 L-52.963 107.33 L-54.9676 107.333 L-56.9723 107.336 L-58.977 107.339 L-60.9816 107.342 L-62.9863 107.345 L-64.991 107.348 L-66.9957 107.351 L-69.0003 107.354 L-71.005 107.357 L-73.0097 107.36 L-75.0144 107.363 L-77.019 107.366 L-79.0237 107.369 L-81.0284 107.372 L-83.0331 107.375 L-85.0377 107.378 L-87.0424 107.381 L-89.0471 107.384 L-91.0517 107.387 L-93.0564 107.39 L-95.0611 107.393 L-97.0658 107.396 L-99.0704 107.399 L-101.075 107.402 L-103.08 107.405 L-105.084 107.408 L-107.089 107.411 L-107.092 105.406 L-107.095 103.402 L-107.098 101.397 L-107.101 99.3922 L-107.104 97.3875 L-107.107 95.3828 L-107.11 93.3782 L-107.113 91.3735 L-107.116 89.3688 L-107.119 87.3641 L-107.122 85.3595 L-107.125 83.3548 L-107.128 81.3501 L-107.131 79.3455 L-107.134 77.3408 L-107.137 75.3361 L-107.14 73.3314 L-107.143 71.3268 L-107.146 69.3221 L-107.149 67.3174 L-107.152 65.3127 L-107.155 63.3081 L-107.158 61.3034 L-107.161 59.2987 L-107.164 57.2941 L-107.167 55.2894 L-107.17 53.2847 L-107.173 51.28 L-107.176 49.2754 L-107.179 47.2707 L-107.182 45.266 L-107.185 43.2613 L-107.188 41.2567 L-107.191 39.252 L-107.194 37.2473 L-107.197 35.2426 L-107.2 33.238 L-107.203 31.2333 L-107.206 29.2286 L-107.209 27.224 L-107.212 25.2193 L-107.215 23.2146 L-107.218 21.2099 L-107.221 19.2053 L-107.224 17.2006 L-107.227 15.1959 L-107.23 13.1912 L-107.233 11.1866 L-107.236 9.1819 L-107.239 7.17722 L-107.242 5.17255 L-107.245 3.16788 L-107.248 1.1632 L-107.251 -0.841469 L-107.255 -2.84614 L-107.258 -4.85081 L-107.261 -6.85549 L-107.264 -8.86016 L-107.267 -10.8648 L-107.27 -12.8695 L-107.273 -14.8742 L-107.276 -16.8789 L-107.279 -18.8835 L-107.282 -20.8882 L-107.285 -22.8929 L-107.288 -24.8975 L-107.291 -26.9022 L-107.294 -28.9069 L-107.297 -30.9116 L-107.3 -32.9162 L-107.303 -34.9209 L-107.306 -36.9256 L-107.309 -38.9303 L-107.312 -40.9349 L-107.315 -42.9396 L-107.318 -44.9443 L-107.321 -46.9489 L-107.324 -48.9536 L-107.327 -50.9583 L-107.33 -52.963 L-107.333 -54.9676 L-107.336 -56.9723 L-107.339 -58.977 L-107.342 -60.9817 L-107.345 -62.9863 L-107.348 -64.991 L-107.351 -66.9957 L-107.354 -69.0003 L-107.357 -71.005 L-107.36 -73.0097 L-107.363 -75.0144 L-107.366 -77.019 L-107.369 -79.0237 L-107.372 -81.0284 L-107.375 -83.0331 L-107.378 -85.0377 L-107.381 -87.0424 L-107.384 -89.0471 L-107.387 -91.0518 L-107.39 -93.0564 L-107.393 -95.0611 L-107.396 -97.0658 L-107.399 -99.0704 L-107.402 -101.075 L-107.405 -103.08 L-107.408 -105.084 L-107.411 -107.089 L-105.406 -107.092 L-103.402 -107.095 L-101.397 -107.098 L-99.3922 -107.101 L-97.3875 -107.104 L-95.3828 -107.107 L-93.3782 -107.11 L-91.3735 -107.113 L-89.3688 -107.116 L-87.3641 -107.119 L-85.3595 -107.122 L-83.3548 -107.125 L-81.3501 -107.128 L-79.3455 -107.131 L-77.3408 -107.134 L-75.3361 -107.137 L-73.3314 -107.14 L-71.3268 -107.143 L-69.3221 -107.146 L-67.3174 -107.149 L-65.3127 -107.152 L-63.3081 -107.155 L-61.3034 -107.158 L-59.2987 -107.161 L-57.2941 -107.164 L-55.2894 -107.167 L-53.2847 -107.17 L-51.28 -107.173 L-49.2754 -107.176 L-47.2707 -107.179 L-45.266 -107.182 L-43.2613 -107.185 L-41.2567 -107.188 L-39.252 -107.191 L-37.2473 -107.194 L-35.2426 -107.197 L-33.238 -107.2 L-31.2333 -107.203 L-29.2286 -107.206 L-27.224 -107.209 L-25.2193 -107.212 L-23.2146 -107.215 L-21.2099 -107.218 L-19.2053 -107.221 L-17.2006 -107.224 L-15.1959 -107.227 L-13.1912 -107.23 L-11.1866 -107.233 L-9.1819 -107.236 L-7.17723 -107.239 L-5.17256 -107.242 L-3.16788 -107.245 L-1.16321 -107.248 L0.841463 -107.252 L2.84614 -107.255 L4.85081 -107.258 L6.85548 -107.261 L8.86015 -107.264 L10.8648 -107.267 L12.8695 -107.27 L14.8742 -107.273 L16.8788 -107.276 L18.8835 -107.279 L20.8882 -107.282 L22.8929 -107.285 L24.8975 -107.288 L26.9022 -107.291 L28.9069 -107.294 L30.9116 -107.297 L32.9162 -107.3 L34.9209 -107.303 L36.9256 -107.306 L38.9302 -107.309 L40.9349 -107.312 L42.9396 -107.315 L44.9443 -107.318 L46.9489 -107.321 L48.9536 -107.324 L50.9583 -107.327 L52.963 -107.33 L54.9676 -107.333 L56.9723 -107.336 L58.977 -107.339 L60.9816 -107.342 L62.9863 -107.345 L64.991 -107.348 L66.9957 -107.351 L69.0003 -107.354 L71.005 -107.357 L73.0097 -107.36 L75.0144 -107.363 L77.019 -107.366 L79.0237 -107.369 L81.0284 -107.372 L83.0331 -107.375 L85.0377 -107.378 L87.0424 -107.381 L89.0471 -107.384 L91.0517 -107.387 L93.0564 -107.39 L95.0611 -107.393 L97.0658 -107.396 L99.0704 -107.399 L101.075 -107.402 L103.08 -107.405 L105.084 -107.408 L107.089 -107.411 L107.092 -105.406 L107.095 -103.402 L107.098 -101.397 L107.101 -99.3922 L107.104 -97.3875 L107.107 -95.3828 L107.11 -93.3782 L107.113 -91.3735 L107.116 -89.3688 L107.119 -87.3642 L107.122 -85.3595 L107.125 -83.3548 L107.128 -81.3501 L107.131 -79.3455 L107.134 -77.3408 L107.137 -75.3361 L107.14 -73.3314 L107.143 -71.3268 L107.146 -69.3221 L107.149 -67.3174 L107.152 -65.3128 L107.155 -63.3081 L107.158 -61.3034 L107.161 -59.2987 L107.164 -57.2941 L107.167 -55.2894 L107.17 -53.2847 L107.173 -51.28 L107.176 -49.2754 L107.179 -47.2707 L107.182 -45.266 L107.185 -43.2613 L107.188 -41.2567 L107.191 -39.252 L107.194 -37.2473 L107.197 -35.2427 L107.2 -33.238 L107.203 -31.2333 L107.206 -29.2286 L107.209 -27.224 L107.212 -25.2193 L107.215 -23.2146 L107.218 -21.2099 L107.221 -19.2053 L107.224 -17.2006 L107.227 -15.1959 L107.23 -13.1913 L107.233 -11.1866 L107.236 -9.18191 L107.239 -7.17724 L107.242 -5.17256 L107.245 -3.16789 L107.248 -1.16322 L107.251 0.841455 L107.255 2.84613 L107.258 4.8508 L107.261 6.85547 L107.264 8.86015 L107.267 10.8648 L107.27 12.8695 L107.273 14.8742 L107.276 16.8788 L107.279 18.8835 L107.282 20.8882 L107.285 22.8929 L107.288 24.8975 L107.291 26.9022 L107.294 28.9069 L107.297 30.9115 L107.3 32.9162 L107.303 34.9209 L107.306 36.9256 L107.309 38.9302 L107.312 40.9349 L107.315 42.9396 L107.318 44.9443 L107.321 46.9489 L107.324 48.9536 L107.327 50.9583 L107.33 52.963 L107.333 54.9676 L107.336 56.9723 L107.339 58.977 L107.342 60.9816 L107.345 62.9863 L107.348 64.991 L107.351 66.9957 L107.354 69.0003 L107.357 71.005 L107.36 73.0097 L107.363 75.0144 L107.366 77.019 L107.369 79.0237 L107.372 81.0284 L107.375 83.033 L107.378 85.0377 L107.381 87.0424 L107.384 89.0471 L107.387 91.0517 L107.39 93.0564 L107.393 95.0611 L107.396 97.0658 L107.399 99.0704 L107.402 101.075 L107.405 103.08 L107.408 105.084 L107.411 107.089 Z " />
<path stroke="rgb(169,255,187)" stroke-opacity="1" fill="rgb(169,255,187)" fill-opacity="1" id="scalebar" d="M-3.69904 -94.609 L-1.65554 -94.609 L0.387962 -94.609 L2.43146 -94.609 L4.47496 -94.609 L4.47496 -92.6686 L4.47496 -90.7281 L4.47496 -88.7876 L4.47496 -86.8472 L4.47496 -84.9067 L4.47496 -82.9663 L4.47496 -81.0258 L4.47496 -79.0853 L4.47496 -77.1449 L4.47496 -75.2044 L4.47496 -73.2639 L4.47496 -71.3235 L4.47496 -69.383 L2.43146 -69.383 L0.387962 -69.383 L-1.65554 -69.383 L-3.69904 -69.383 L-3.69904 -71.3235 L-3.69904 -73.2639 L-3.69904 -75.2044 L-3.69904 -77.1449 L-3.69904 -79.0853 L-3.69904 -81.0258 L-3.69904 -82.9663 L-3.69904 -84.9067 L-3.69904 -86.8472 L-3.69904 -88.7876 L-3.69904 -90.7281 L-3.69904 -92.6686 L-3.69904 -94.609 Z " />
<path stroke="rgb(200,255,200)" stroke-opacity="1" fill="rgb(200,255,200)" fill-opacity="1" id="scaleslider" d="M-6.69904 -92.837 L-4.67418 -92.837 L-2.64932 -92.837 L-0.624466 -92.837 L1.40039 -92.837 L3.42525 -92.837 L5.4501 -92.837 L7.47496 -92.837 L7.47496 -91.1104 L7.47496 -89.3837 L7.47496 -87.657 L5.4501 -87.657 L3.42525 -87.657 L1.40039 -87.657 L-0.624466 -87.657 L-2.64932 -87.657 L-4.67418 -87.657 L-6.69904 -87.657 L-6.69904 -89.3837 L-6.69904 -91.1104 L-6.69904 -92.837 Z " />
<path stroke="rgb(255,134,106)" stroke-opacity="1" fill="rgb(255,134,106)" fill-opacity="1" id="tranbar" d="M-49.142 -86.146 L-47.0675 -86.146 L-44.993 -86.146 L-42.9185 -86.146 L-40.844 -86.146 L-40.844 -88.2208 L-40.844 -90.2955 L-40.844 -92.3703 L-40.844 -94.445 L-38.7685 -94.445 L-36.693 -94.445 L-34.6175 -94.445 L-32.542 -94.445 L-32.542 -92.3703 L-32.542 -90.2955 L-32.542 -88.2208 L-32.542 -86.146 L-30.4673 -86.146 L-28.3925 -86.146 L-26.3178 -86.146 L-24.243 -86.146 L-24.243 -84.0715 L-24.243 -81.997 L-24.243 -79.9225 L-24.243 -77.848 L-26.3178 -77.848 L-28.3925 -77.848 L-30.4673 -77.848 L-32.542 -77.848 L-32.542 -75.773 L-32.542 -73.698 L-32.542 -71.623 L-32.542 -69.548 L-34.6175 -69.548 L-36.693 -69.548 L-38.7685 -69.548 L-40.844 -69.548 L-40.844 -71.623 L-40.844 -73.698 L-40.844 -75.773 L-40.844 -77.848 L-42.9185 -77.848 L-44.993 -77.848 L-47.0675 -77.848 L-49.142 -77.848 L-49.142 -79.9225 L-49.142 -81.997 L-49.142 -84.0715 L-49.142 -86.146 Z " />
<path stroke="rgb(255,250,159)" stroke-opacity="1" fill="rgb(255,250,159)" fill-opacity="1" id="translider" d="M-39.6855 -84.553 L-37.9822 -84.553 L-36.2789 -84.553 L-34.5755 -84.553 L-34.5755 -82.85 L-34.5755 -81.147 L-34.5755 -79.444 L-36.2789 -79.444 L-37.9822 -79.444 L-39.6855 -79.444 L-39.6855 -81.147 L-39.6855 -82.85 L-39.6855 -84.553 Z " />
<path stroke="rgb(254,204,128)" stroke-opacity="1" fill="rgb(254,204,128)" fill-opacity="1" id="rotate" d="M42.9835 -89.1149 L43.7203 -87.3367 L44.4571 -85.5585 L45.1938 -83.7802 L45.9306 -82.002 L46.6674 -80.2238 L45.4955 -78.6966 L44.3235 -77.1695 L43.1516 -75.6423 L41.9796 -74.1152 L40.8077 -72.588 L38.899 -72.8393 L36.9903 -73.0906 L35.0816 -73.3419 L33.1729 -73.5932 L31.2643 -73.8445 L30.5275 -75.6229 L29.7908 -77.4013 L29.054 -79.1798 L28.3173 -80.9582 L27.5805 -82.7366 L28.7524 -84.2636 L29.9243 -85.7905 L31.0963 -87.3175 L32.2682 -88.8444 L33.4401 -90.3714 L35.3488 -90.1201 L37.2575 -89.8688 L39.1661 -89.6175 L41.0748 -89.3662 L42.9835 -89.1149 Z " />
<path stroke="rgb(200,255,200)" stroke-opacity="1" fill="rgb(200,255,200)" fill-opacity="1" id="tri_0" d="M62.3641 -40.7146 L63.1188 -39.4226 L63.8735 -38.1306 L64.6282 -36.8386 L65.3829 -35.5466 L66.1375 -34.2547 L64.6472 -34.2467 L63.1569 -34.2387 L61.6666 -34.2308 L60.1762 -34.2228 L58.6859 -34.2149 L59.4215 -35.5148 L60.1572 -36.8148 L60.8928 -38.1147 L61.6284 -39.4147 L62.3641 -40.7146 Z " />
<path stroke="rgb(200,255,200)" stroke-opacity="1" fill="rgb(200,255,200)" fill-opacity="1" id="tri_0_18_" d="M47.408 -40.6934 L48.1631 -39.402 L48.9181 -38.1107 L49.6732 -36.8193 L50.4283 -35.528 L51.1833 -34.2366 L49.6927 -34.2285 L48.2021 -34.2204 L46.7115 -34.2122 L45.2209 -34.2041 L43.7303 -34.196 L44.4658 -35.4954 L45.2014 -36.7949 L45.9369 -38.0944 L46.6725 -39.3939 L47.408 -40.6934 Z " />
<path stroke="rgb(200,255,200)" stroke-opacity="1" fill="rgb(200,255,200)" fill-opacity="1" id="tri_1_16_" d="M54.8892 -27.7664 L55.6476 -26.4723 L56.4061 -25.1782 L57.1646 -23.8841 L57.923 -22.59 L58.6815 -21.2959 L57.1901 -21.2861 L55.6987 -21.2763 L54.2073 -21.2665 L52.7158 -21.2567 L51.2244 -21.2469 L51.9574 -22.5508 L52.6903 -23.8547 L53.4233 -25.1586 L54.1562 -26.4625 L54.8892 -27.7664 Z " />
<path stroke="rgb(200,255,200)" stroke-opacity="1" fill="rgb(200,255,200)" fill-opacity="1" id="tri_0_17_" d="M55.8875 -27.75 L55.1325 -29.0418 L54.3775 -30.3336 L53.6225 -31.6255 L52.8676 -32.9173 L52.1126 -34.2091 L53.6032 -34.2172 L55.0938 -34.2253 L56.5844 -34.2335 L58.075 -34.2416 L59.5656 -34.2498 L58.83 -32.9498 L58.0944 -31.6499 L57.3587 -30.3499 L56.6231 -29.05 L55.8875 -27.75 Z " />
<path stroke="rgb(200,255,200)" stroke-opacity="1" fill="rgb(200,255,200)" fill-opacity="1" id="tri_0_16_" d="M32.4509 -40.6731 L33.2061 -39.381 L33.9612 -38.0889 L34.7164 -36.7968 L35.4715 -35.5047 L36.2267 -34.2126 L34.7356 -34.2049 L33.2446 -34.1972 L31.7535 -34.1895 L30.2625 -34.1818 L28.7714 -34.1741 L29.5073 -35.4739 L30.2432 -36.7737 L30.9791 -38.0735 L31.715 -39.3733 L32.4509 -40.6731 Z " />
<path stroke="rgb(200,255,200)" stroke-opacity="1" fill="rgb(200,255,200)" fill-opacity="1" id="tri_1_15_" d="M39.9303 -27.7424 L40.6893 -26.4483 L41.4483 -25.1542 L42.2073 -23.8602 L42.9663 -22.5661 L43.7253 -21.2721 L42.2334 -21.2623 L40.7415 -21.2526 L39.2497 -21.2429 L37.7578 -21.2332 L36.2659 -21.2235 L36.9988 -22.5273 L37.7317 -23.831 L38.4646 -25.1348 L39.1974 -26.4386 L39.9303 -27.7424 Z " />
<path stroke="rgb(200,255,200)" stroke-opacity="1" fill="rgb(200,255,200)" fill-opacity="1" id="tri_0_15_" d="M40.9322 -27.7289 L40.1767 -29.0207 L39.4212 -30.3125 L38.6657 -31.6042 L37.9102 -32.896 L37.1546 -34.1878 L38.6457 -34.1955 L40.1367 -34.2032 L41.6278 -34.2109 L43.1188 -34.2186 L44.6099 -34.2263 L43.8744 -32.9268 L43.1388 -31.6274 L42.4033 -30.3279 L41.6677 -29.0284 L40.9322 -27.7289 Z " />
<path stroke="rgb(200,255,200)" stroke-opacity="1" fill="rgb(200,255,200)" fill-opacity="1" id="tri_2_14_" d="M47.4133 -14.8132 L48.1778 -13.5153 L48.9422 -12.2174 L49.7067 -10.9195 L50.4711 -9.62162 L51.2356 -8.32372 L49.742 -8.31139 L48.2485 -8.29906 L46.7549 -8.28673 L45.2613 -8.2744 L43.7677 -8.26208 L44.4968 -9.5723 L45.226 -10.8825 L45.9551 -12.1928 L46.6842 -13.503 L47.4133 -14.8132 Z " />
<path stroke="rgb(200,255,200)" stroke-opacity="1" fill="rgb(200,255,200)" fill-opacity="1" id="tri_1_14_" d="M48.4321 -14.78 L47.6731 -16.0742 L46.9142 -17.3684 L46.1553 -18.6626 L45.3964 -19.9568 L44.6374 -21.251 L46.1293 -21.2607 L47.6212 -21.2704 L49.1131 -21.2801 L50.6049 -21.2898 L52.0968 -21.2996 L51.3638 -19.9956 L50.6309 -18.6917 L49.8979 -17.3878 L49.165 -16.0839 L48.4321 -14.78 Z " />
<path stroke="rgb(200,255,200)" stroke-opacity="1" fill="rgb(200,255,200)" fill-opacity="1" id="tri_0_14_" d="M17.4896 -40.6533 L18.245 -39.3613 L19.0003 -38.0692 L19.7557 -36.7772 L20.511 -35.4852 L21.2664 -34.1931 L19.7756 -34.1856 L18.2849 -34.1781 L16.7941 -34.1706 L15.3033 -34.163 L13.8126 -34.1555 L14.548 -35.4551 L15.2834 -36.7546 L16.0188 -38.0542 L16.7542 -39.3537 L17.4896 -40.6533 Z " />
<path stroke="rgb(200,255,200)" stroke-opacity="1" fill="rgb(200,255,200)" fill-opacity="1" id="tri_1_13_" d="M24.9737 -27.7225 L25.732 -26.4279 L26.4904 -25.1334 L27.2488 -23.8388 L28.0071 -22.5442 L28.7655 -21.2497 L27.2741 -21.2399 L25.7827 -21.2301 L24.2913 -21.2203 L22.7999 -21.2104 L21.3085 -21.2006 L22.0415 -22.505 L22.7745 -23.8094 L23.5076 -25.1138 L24.2406 -26.4181 L24.9737 -27.7225 Z " />
<path stroke="rgb(200,255,200)" stroke-opacity="1" fill="rgb(200,255,200)" fill-opacity="1" id="tri_0_13_" d="M25.971 -27.7074 L25.2161 -28.9996 L24.4612 -30.2919 L23.7064 -31.5842 L22.9515 -32.8765 L22.1966 -34.1687 L23.6874 -34.1763 L25.1781 -34.1838 L26.6689 -34.1913 L28.1597 -34.1988 L29.6505 -34.2064 L28.9146 -32.9066 L28.1787 -31.6068 L27.4428 -30.307 L26.7069 -29.0072 L25.971 -27.7074 Z " />
<path stroke="rgb(200,255,200)" stroke-opacity="1" fill="rgb(200,255,200)" fill-opacity="1" id="tri_2_13_" d="M32.4567 -14.7911 L33.2207 -13.4934 L33.9848 -12.1957 L34.7489 -10.898 L35.5129 -9.60037 L36.277 -8.30269 L34.7837 -8.29022 L33.2904 -8.27774 L31.7971 -8.26526 L30.3037 -8.25279 L28.8104 -8.24031 L29.5397 -9.55046 L30.2689 -10.8606 L30.9982 -12.1708 L31.7274 -13.4809 L32.4567 -14.7911 Z " />
<path stroke="rgb(200,255,200)" stroke-opacity="1" fill="rgb(200,255,200)" fill-opacity="1" id="tri_1_12_" d="M33.4738 -14.7565 L32.7153 -16.0504 L31.9568 -17.3444 L31.1982 -18.6384 L30.4397 -19.9323 L29.6812 -21.2263 L31.1726 -21.2361 L32.664 -21.2459 L34.1554 -21.2557 L35.6468 -21.2656 L37.1382 -21.2754 L36.4053 -19.9716 L35.6724 -18.6678 L34.9396 -17.364 L34.2067 -16.0603 L33.4738 -14.7565 Z " />
<path stroke="rgb(200,255,200)" stroke-opacity="1" fill="rgb(200,255,200)" fill-opacity="1" id="tri_3_12_" d="M39.9247 -1.88132 L40.6971 -0.57908 L41.4696 0.723163 L42.2421 2.02541 L43.0145 3.32765 L43.787 4.62989 L42.2915 4.64799 L40.7961 4.66609 L39.3006 4.68418 L37.8052 4.70228 L36.3097 4.72038 L37.0327 3.40004 L37.7557 2.0797 L38.4787 0.759357 L39.2017 -0.560983 L39.9247 -1.88132 Z " />
<path stroke="rgb(200,255,200)" stroke-opacity="1" fill="rgb(200,255,200)" fill-opacity="1" id="tri_2_12_" d="M40.9839 -1.79607 L40.2197 -3.09382 L39.4555 -4.39157 L38.6913 -5.68932 L37.9271 -6.98706 L37.1629 -8.28481 L38.6562 -8.29729 L40.1495 -8.30977 L41.6428 -8.32224 L43.1361 -8.33472 L44.6294 -8.3472 L43.9003 -7.03697 L43.1712 -5.72675 L42.4421 -4.41652 L41.713 -3.1063 L40.9839 -1.79607 Z " />
<path stroke="rgb(200,255,200)" stroke-opacity="1" fill="rgb(200,255,200)" fill-opacity="1" id="tri_0_12_" d="M2.5356 -40.6313 L3.29026 -39.3399 L4.04492 -38.0484 L4.79958 -36.757 L5.55423 -35.4655 L6.30889 -34.1741 L4.81823 -34.1661 L3.32757 -34.1582 L1.83691 -34.1503 L0.346249 -34.1423 L-1.14441 -34.1344 L-0.408409 -35.4338 L0.327594 -36.7332 L1.0636 -38.0326 L1.7996 -39.332 L2.5356 -40.6313 Z " />
<path stroke="rgb(200,255,200)" stroke-opacity="1" fill="rgb(200,255,200)" fill-opacity="1" id="tri_1_11_" d="M10.0145 -27.6998 L10.7732 -26.4059 L11.5319 -25.112 L12.2907 -23.818 L13.0494 -22.5241 L13.8081 -21.2302 L12.3165 -21.2204 L10.8249 -21.2105 L9.33331 -21.2006 L7.8417 -21.1908 L6.35009 -21.1809 L7.08296 -22.4847 L7.81584 -23.7884 L8.54871 -25.0922 L9.28159 -26.396 L10.0145 -27.6998 Z " />
<path stroke="rgb(200,255,200)" stroke-opacity="1" fill="rgb(200,255,200)" fill-opacity="1" id="tri_0_11_" d="M11.0132 -27.6888 L10.258 -28.9804 L9.50273 -30.2721 L8.74748 -31.5637 L7.99223 -32.8553 L7.23698 -34.1469 L8.72764 -34.1549 L10.2183 -34.1628 L11.709 -34.1707 L13.1996 -34.1787 L14.6903 -34.1866 L13.9549 -32.887 L13.2195 -31.5875 L12.4841 -30.2879 L11.7486 -28.9884 L11.0132 -27.6888 Z " />
<path stroke="rgb(200,255,200)" stroke-opacity="1" fill="rgb(200,255,200)" fill-opacity="1" id="tri_2_11_" d="M17.4984 -14.7737 L18.2625 -13.4754 L19.0266 -12.1772 L19.7907 -10.879 L20.5548 -9.5808 L21.3189 -8.28259 L19.8259 -8.2703 L18.3328 -8.25801 L16.8398 -8.24572 L15.3468 -8.23343 L13.8537 -8.22114 L14.5827 -9.53164 L15.3116 -10.8421 L16.0405 -12.1527 L16.7694 -13.4632 L17.4984 -14.7737 Z " />
<path stroke="rgb(200,255,200)" stroke-opacity="1" fill="rgb(200,255,200)" fill-opacity="1" id="tri_1_10_" d="M18.5155 -14.7347 L17.7569 -16.0292 L16.9983 -17.3237 L16.2398 -18.6182 L15.4812 -19.9127 L14.7226 -21.2072 L16.2142 -21.2171 L17.7058 -21.227 L19.1975 -21.2368 L20.6891 -21.2467 L22.1807 -21.2566 L21.4476 -19.9522 L20.7146 -18.6478 L19.9816 -17.3434 L19.2485 -16.0391 L18.5155 -14.7347 Z " />
<path stroke="rgb(200,255,200)" stroke-opacity="1" fill="rgb(200,255,200)" fill-opacity="1" id="tri_3_11_" d="M24.9694 -1.85802 L25.7415 -0.555662 L26.5136 0.746697 L27.2856 2.04906 L28.0577 3.35142 L28.8297 4.65377 L27.3341 4.67146 L25.8386 4.68914 L24.343 4.70683 L22.8474 4.72451 L21.3519 4.74219 L22.0754 3.42215 L22.7989 2.10211 L23.5224 0.782066 L24.2459 -0.537977 L24.9694 -1.85802 Z " />
<path stroke="rgb(200,255,200)" stroke-opacity="1" fill="rgb(200,255,200)" fill-opacity="1" id="tri_2_10_" d="M26.0266 -1.77604 L25.2628 -3.0739 L24.499 -4.37176 L23.7353 -5.66962 L22.9715 -6.96748 L22.2077 -8.26534 L23.7007 -8.27763 L25.1937 -8.28992 L26.6868 -8.30221 L28.1798 -8.3145 L29.6729 -8.32679 L28.9436 -7.01664 L28.2144 -5.70649 L27.4851 -4.39634 L26.7559 -3.08619 L26.0266 -1.77604 Z " />
<path stroke="rgb(200,255,200)" stroke-opacity="1" fill="rgb(200,255,200)" fill-opacity="1" id="tri_4_10_" d="M32.4411 11.062 L33.2233 12.3712 L34.0054 13.6805 L34.7876 14.9898 L35.5697 16.299 L36.3519 17.6083 L34.8529 17.6306 L33.3539 17.6529 L31.8549 17.6752 L30.3559 17.6976 L28.8569 17.7199 L29.5738 16.3883 L30.2906 15.0567 L31.0074 13.7251 L31.7243 12.3936 L32.4411 11.062 Z " />
<path stroke="rgb(200,255,200)" stroke-opacity="1" fill="rgb(200,255,200)" fill-opacity="1" id="tri_3_10_" d="M33.544 11.1825 L32.7714 9.87981 L31.9988 8.57715 L31.2262 7.2745 L30.4537 5.97184 L29.6811 4.66918 L31.1766 4.6515 L32.6722 4.63381 L34.1678 4.61613 L35.6634 4.59845 L37.1589 4.58076 L36.4359 5.9011 L35.7129 7.22144 L34.9899 8.54178 L34.267 9.86212 L33.544 11.1825 Z " />
<path stroke="rgb(200,255,200)" stroke-opacity="1" fill="rgb(200,255,200)" fill-opacity="1" id="tri_0_10_" d="M-12.4228 -40.6118 L-11.6674 -39.3197 L-10.9121 -38.0277 L-10.1567 -36.7357 L-9.40133 -35.4436 L-8.64597 -34.1516 L-10.1373 -34.144 L-11.6286 -34.1365 L-13.1199 -34.1289 L-14.6112 -34.1214 L-16.1025 -34.1138 L-15.3666 -35.4134 L-14.6306 -36.713 L-13.8947 -38.0126 L-13.1587 -39.3122 L-12.4228 -40.6118 Z " />
<path stroke="rgb(200,255,200)" stroke-opacity="1" fill="rgb(200,255,200)" fill-opacity="1" id="tri_1_9_" d="M-4.94267 -27.6766 L-4.18388 -26.3825 L-3.42509 -25.0884 L-2.6663 -23.7943 L-1.90751 -22.5002 L-1.14871 -21.206 L-2.64025 -21.1963 L-4.13179 -21.1866 L-5.62333 -21.1768 L-7.11486 -21.1671 L-8.6064 -21.1574 L-7.87365 -22.4612 L-7.14091 -23.7651 L-6.40816 -25.0689 L-5.67542 -26.3728 L-4.94267 -27.6766 Z " />
<path stroke="rgb(200,255,200)" stroke-opacity="1" fill="rgb(200,255,200)" fill-opacity="1" id="tri_0_9_" d="M-3.94327 -27.6675 L-4.69857 -28.9594 L-5.45388 -30.2512 L-6.20919 -31.543 L-6.9645 -32.8348 L-7.7198 -34.1267 L-6.22849 -34.1342 L-4.73718 -34.1418 L-3.24587 -34.1494 L-1.75456 -34.1569 L-0.263251 -34.1645 L-0.999254 -32.8651 L-1.73526 -31.5657 L-2.47126 -30.2663 L-3.20726 -28.9669 L-3.94327 -27.6675 Z " />
<path stroke="rgb(200,255,200)" stroke-opacity="1" fill="rgb(200,255,200)" fill-opacity="1" id="tri_2_9_" d="M2.54033 -14.7522 L3.30453 -13.4545 L4.06873 -12.1567 L4.83293 -10.859 L5.59712 -9.56124 L6.36132 -8.26349 L4.86813 -8.2506 L3.37493 -8.23771 L1.88173 -8.22482 L0.388531 -8.21193 L-1.10467 -8.19904 L-0.375668 -9.50968 L0.353332 -10.8203 L1.08233 -12.131 L1.81133 -13.4416 L2.54033 -14.7522 Z " />
<path stroke="rgb(200,255,200)" stroke-opacity="1" fill="rgb(200,255,200)" fill-opacity="1" id="tri_1_8_" d="M3.55818 -14.7142 L2.79952 -16.0083 L2.04086 -17.3023 L1.28219 -18.5964 L0.523533 -19.8904 L-0.23513 -21.1844 L1.25641 -21.1942 L2.74794 -21.2039 L4.23948 -21.2136 L5.73102 -21.2234 L7.22256 -21.2331 L6.48968 -19.9293 L5.75681 -18.6256 L5.02393 -17.3218 L4.29105 -16.018 L3.55818 -14.7142 Z " />
<path stroke="rgb(200,255,200)" stroke-opacity="1" fill="rgb(200,255,200)" fill-opacity="1" id="tri_3_9_" d="M10.0129 -1.83407 L10.7854 -0.53196 L11.558 0.770151 L12.3305 2.07226 L13.103 3.37437 L13.8756 4.67648 L12.3799 4.69409 L10.8842 4.7117 L9.38846 4.72931 L7.89276 4.74692 L6.39706 4.76453 L7.12023 3.44481 L7.8434 2.12509 L8.56656 0.805372 L9.28973 -0.514348 L10.0129 -1.83407 Z " />
<path stroke="rgb(200,255,200)" stroke-opacity="1" fill="rgb(200,255,200)" fill-opacity="1" id="tri_2_8_" d="M11.0703 -1.75649 L10.306 -3.0541 L9.54173 -4.35172 L8.77746 -5.64934 L8.01319 -6.94695 L7.24892 -8.24457 L8.74211 -8.25746 L10.2353 -8.27035 L11.7285 -8.28324 L13.2217 -8.29612 L14.7149 -8.30901 L13.986 -6.99851 L13.2571 -5.688 L12.5281 -4.3775 L11.7992 -3.06699 L11.0703 -1.75649 Z " />
<path stroke="rgb(200,255,200)" stroke-opacity="1" fill="rgb(200,255,200)" fill-opacity="1" id="tri_4_9_" d="M17.484 11.082 L18.2658 12.391 L19.0476 13.7 L19.8293 15.009 L20.6111 16.3181 L21.3928 17.6271 L19.8941 17.6499 L18.3953 17.6727 L16.8966 17.6956 L15.3978 17.7184 L13.8991 17.7412 L14.6161 16.4093 L15.3331 15.0775 L16.0501 13.7457 L16.767 12.4138 L17.484 11.082 Z " />
<path stroke="rgb(200,255,200)" stroke-opacity="1" fill="rgb(200,255,200)" fill-opacity="1" id="tri_3_8_" d="M18.5855 11.2038 L17.8133 9.90138 L17.0411 8.59895 L16.2689 7.29651 L15.4967 5.99408 L14.7245 4.69165 L16.2202 4.67404 L17.7159 4.65643 L19.2116 4.63882 L20.7073 4.62121 L22.203 4.6036 L21.4795 5.92364 L20.756 7.24368 L20.0325 8.56373 L19.309 9.88377 L18.5855 11.2038 Z " />
<path stroke="rgb(200,255,200)" stroke-opacity="1" fill="rgb(200,255,200)" fill-opacity="1" id="tri_5_8_" d="M24.9449 23.9917 L25.7394 25.3085 L26.5339 26.6252 L27.3284 27.942 L28.1229 29.2587 L28.9174 30.5755 L27.4148 30.6049 L25.9122 30.6344 L24.4097 30.6639 L22.9071 30.6934 L21.4046 30.7229 L22.1126 29.3766 L22.8207 28.0304 L23.5287 26.6842 L24.2368 25.3379 L24.9449 23.9917 Z " />
<path stroke="rgb(200,255,200)" stroke-opacity="1" fill="rgb(200,255,200)" fill-opacity="1" id="tri_4_8_" d="M26.1065 24.1806 L25.3246 22.8718 L24.5427 21.5631 L23.7608 20.2543 L22.9789 18.9455 L22.197 17.6368 L23.6957 17.6139 L25.1945 17.5911 L26.6932 17.5683 L28.192 17.5455 L29.6907 17.5227 L28.9739 18.8543 L28.257 20.1858 L27.5402 21.5174 L26.8234 22.849 L26.1065 24.1806 Z " />
<path stroke="rgb(200,255,200)" stroke-opacity="1" fill="rgb(200,255,200)" fill-opacity="1" id="tri_0_8_" d="M-27.382 -40.5936 L-26.627 -39.3013 L-25.8719 -38.0091 L-25.1168 -36.7169 L-24.3617 -35.4247 L-23.6066 -34.1325 L-25.0973 -34.1247 L-26.588 -34.117 L-28.0788 -34.1093 L-29.5695 -34.1016 L-31.0602 -34.0938 L-30.3246 -35.3938 L-29.5889 -36.6937 L-28.8533 -37.9937 L-28.1177 -39.2936 L-27.382 -40.5936 Z " />
<path stroke="rgb(200,255,200)" stroke-opacity="1" fill="rgb(200,255,200)" fill-opacity="1" id="tri_1_7_" d="M-19.8988 -27.6559 L-19.1406 -26.3617 L-18.3823 -25.0676 L-17.6241 -23.7734 L-16.8658 -22.4793 L-16.1076 -21.1851 L-17.5987 -21.1757 L-19.0899 -21.1663 L-20.5811 -21.1569 L-22.0723 -21.1474 L-23.5635 -21.138 L-22.8306 -22.4416 L-22.0976 -23.7452 L-21.3647 -25.0487 L-20.6318 -26.3523 L-19.8988 -27.6559 Z " />
<path stroke="rgb(200,255,200)" stroke-opacity="1" fill="rgb(200,255,200)" fill-opacity="1" id="tri_0_7_" d="M-18.9024 -27.6467 L-19.6571 -28.9385 L-20.4119 -30.2304 L-21.1667 -31.5223 L-21.9214 -32.8141 L-22.6762 -34.106 L-21.1855 -34.1137 L-19.6948 -34.1214 L-18.2041 -34.1292 L-16.7134 -34.1369 L-15.2226 -34.1446 L-15.9586 -32.845 L-16.6945 -31.5454 L-17.4305 -30.2458 L-18.1664 -28.9463 L-18.9024 -27.6467 Z " />
<path stroke="rgb(200,255,200)" stroke-opacity="1" fill="rgb(200,255,200)" fill-opacity="1" id="tri_2_7_" d="M-12.4179 -14.7335 L-11.6539 -13.4353 L-10.8899 -12.1372 L-10.1259 -10.8391 L-9.36195 -9.54092 L-8.59797 -8.24278 L-10.0912 -8.23022 L-11.5843 -8.21767 L-13.0775 -8.20512 L-14.5707 -8.19257 L-16.0639 -8.18001 L-15.3347 -9.49071 L-14.6055 -10.8014 L-13.8763 -12.1121 L-13.1471 -13.4228 L-12.4179 -14.7335 Z " />
<path stroke="rgb(200,255,200)" stroke-opacity="1" fill="rgb(200,255,200)" fill-opacity="1" id="tri_1_6_" d="M-11.3997 -14.6916 L-12.1581 -15.986 L-12.9165 -17.2805 L-13.675 -18.5749 L-14.4334 -19.8693 L-15.1919 -21.1638 L-13.7007 -21.1732 L-12.2095 -21.1826 L-10.7183 -21.192 L-9.22712 -21.2014 L-7.73594 -21.2108 L-8.46868 -19.907 L-9.20143 -18.6031 L-9.93417 -17.2993 L-10.6669 -15.9954 L-11.3997 -14.6916 Z " />
<path stroke="rgb(200,255,200)" stroke-opacity="1" fill="rgb(200,255,200)" fill-opacity="1" id="tri_3_7_" d="M-4.94412 -1.81057 L-4.17168 -0.507993 L-3.39923 0.79459 L-2.62679 2.09717 L-1.85434 3.39976 L-1.08189 4.70234 L-2.57758 4.71961 L-4.07327 4.73688 L-5.56895 4.75415 L-7.06464 4.77142 L-8.56033 4.78869 L-7.83709 3.46884 L-7.11384 2.14898 L-6.3906 0.829131 L-5.66736 -0.490722 L-4.94412 -1.81057 Z " />
<path stroke="rgb(200,255,200)" stroke-opacity="1" fill="rgb(200,255,200)" fill-opacity="1" id="tri_2_6_" d="M-3.88772 -1.73415 L-4.6519 -3.03224 L-5.41608 -4.33032 L-6.18026 -5.62841 L-6.94444 -6.92649 L-7.70863 -8.22458 L-6.21544 -8.23713 L-4.72226 -8.24968 L-3.22908 -8.26223 L-1.7359 -8.27478 L-0.242716 -8.28734 L-0.971716 -6.9767 L-1.70072 -5.66606 L-2.42972 -4.35543 L-3.15872 -3.04479 L-3.88772 -1.73415 Z " />
<path stroke="rgb(200,255,200)" stroke-opacity="1" fill="rgb(200,255,200)" fill-opacity="1" id="tri_4_7_" d="M2.5251 11.1015 L3.30719 12.4105 L4.08929 13.7196 L4.87138 15.0286 L5.65347 16.3377 L6.43556 17.6467 L4.93682 17.6695 L3.43807 17.6923 L1.93933 17.7152 L0.44058 17.738 L-1.05817 17.7608 L-0.341511 16.4289 L0.375142 15.0971 L1.09179 13.7652 L1.80845 12.4333 L2.5251 11.1015 Z " />
<path stroke="rgb(200,255,200)" stroke-opacity="1" fill="rgb(200,255,200)" fill-opacity="1" id="tri_3_6_" d="M3.63023 11.2272 L2.85771 9.92476 L2.08519 8.62231 L1.31267 7.31986 L0.540154 6.01741 L-0.232363 4.71496 L1.26332 4.69769 L2.75901 4.68042 L4.25469 4.66315 L5.75038 4.64588 L7.24607 4.62861 L6.5229 5.94833 L5.79973 7.26805 L5.07656 8.58777 L4.3534 9.90749 L3.63023 11.2272 Z " />
<path stroke="rgb(200,255,200)" stroke-opacity="1" fill="rgb(200,255,200)" fill-opacity="1" id="tri_5_7_" d="M9.98777 24.0118 L10.7821 25.3288 L11.5765 26.6458 L12.3708 27.9628 L13.1652 29.2799 L13.9595 30.5969 L12.4565 30.6259 L10.9535 30.655 L9.45047 30.684 L7.94745 30.7131 L6.44442 30.7421 L7.15309 29.3961 L7.86176 28.05 L8.57043 26.7039 L9.2791 25.3579 L9.98777 24.0118 Z " />
<path stroke="rgb(200,255,200)" stroke-opacity="1" fill="rgb(200,255,200)" fill-opacity="1" id="tri_4_6_" d="M11.1494 24.2009 L10.3677 22.8919 L9.58591 21.5828 L8.80416 20.2738 L8.0224 18.9648 L7.24065 17.6558 L8.7394 17.6329 L10.2381 17.6101 L11.7369 17.5873 L13.2356 17.5645 L14.7344 17.5417 L14.0174 18.8735 L13.3004 20.2054 L12.5834 21.5372 L11.8664 22.8691 L11.1494 24.2009 Z " />
<path stroke="rgb(200,255,200)" stroke-opacity="1" fill="rgb(200,255,200)" fill-opacity="1" id="tri_6_6_" d="M17.4408 36.9056 L18.2516 38.2324 L19.0624 39.5592 L19.8732 40.886 L20.6841 42.2128 L21.4949 43.5396 L19.9873 43.5783 L18.4797 43.617 L16.9722 43.6558 L15.4646 43.6945 L13.957 43.7332 L14.6538 42.3677 L15.3505 41.0021 L16.0473 39.6366 L16.744 38.2711 L17.4408 36.9056 Z " />
<path stroke="rgb(200,255,200)" stroke-opacity="1" fill="rgb(200,255,200)" fill-opacity="1" id="tri_5_6_" d="M18.6764 37.1805 L17.8815 35.8633 L17.0865 34.5461 L16.2916 33.2289 L15.4966 31.9118 L14.7016 30.5946 L16.2047 30.5655 L17.7077 30.5365 L19.2107 30.5074 L20.7137 30.4784 L22.2168 30.4493 L21.5087 31.7956 L20.8006 33.1418 L20.0926 34.488 L19.3845 35.8343 L18.6764 37.1805 Z " />
<path stroke="rgb(200,255,200)" stroke-opacity="1" fill="rgb(200,255,200)" fill-opacity="1" id="tri_0_6_" d="M-42.3414 -40.5714 L-41.5861 -39.2796 L-40.8308 -37.9878 L-40.0755 -36.696 L-39.3202 -35.4041 L-38.5649 -34.1123 L-40.056 -34.1041 L-41.5471 -34.0959 L-43.0383 -34.0878 L-44.5294 -34.0796 L-46.0206 -34.0714 L-45.2847 -35.3714 L-44.5489 -36.6714 L-43.8131 -37.9714 L-43.0772 -39.2714 L-42.3414 -40.5714 Z " />
<path stroke="rgb(200,255,200)" stroke-opacity="1" fill="rgb(200,255,200)" fill-opacity="1" id="tri_1_5_" d="M-34.858 -27.6329 L-34.099 -26.3389 L-33.34 -25.0448 L-32.581 -23.7508 L-31.822 -22.4567 L-31.063 -21.1626 L-32.5547 -21.1533 L-34.0463 -21.144 L-35.538 -21.1347 L-37.0296 -21.1253 L-38.5213 -21.116 L-37.7886 -22.4194 L-37.056 -23.7228 L-36.3233 -25.0262 L-35.5907 -26.3296 L-34.858 -27.6329 Z " />
<path stroke="rgb(200,255,200)" stroke-opacity="1" fill="rgb(200,255,200)" fill-opacity="1" id="tri_0_5_" d="M-33.8592 -27.6265 L-34.6147 -28.9182 L-35.3702 -30.21 L-36.1257 -31.5018 L-36.8812 -32.7936 L-37.6367 -34.0853 L-36.1456 -34.0935 L-34.6544 -34.1017 L-33.1633 -34.1098 L-31.6721 -34.118 L-30.181 -34.1262 L-30.9166 -32.8262 L-31.6523 -31.5263 L-32.3879 -30.2264 L-33.1235 -28.9264 L-33.8592 -27.6265 Z " />
<path stroke="rgb(200,255,200)" stroke-opacity="1" fill="rgb(200,255,200)" fill-opacity="1" id="tri_2_5_" d="M-27.3767 -14.7147 L-26.6125 -13.4167 L-25.8482 -12.1188 L-25.084 -10.8208 L-24.3197 -9.52288 L-23.5555 -8.22493 L-25.0484 -8.21189 L-26.5413 -8.19885 L-28.0343 -8.18581 L-29.5272 -8.17278 L-31.0201 -8.15974 L-30.2915 -9.47073 L-29.5628 -10.7817 L-28.8341 -12.0927 L-28.1054 -13.4037 L-27.3767 -14.7147 Z " />
<path stroke="rgb(200,255,200)" stroke-opacity="1" fill="rgb(200,255,200)" fill-opacity="1" id="tri_1_4_" d="M-26.3573 -14.6723 L-27.116 -15.9666 L-27.8747 -17.2608 L-28.6334 -18.5551 L-29.3921 -19.8493 L-30.1508 -21.1436 L-28.6592 -21.1529 L-27.1675 -21.1622 L-25.6759 -21.1715 L-24.1842 -21.1809 L-22.6926 -21.1902 L-23.4255 -19.8866 L-24.1585 -18.5831 L-24.8914 -17.2795 L-25.6243 -15.9759 L-26.3573 -14.6723 Z " />
<path stroke="rgb(200,255,200)" stroke-opacity="1" fill="rgb(200,255,200)" fill-opacity="1" id="tri_3_5_" d="M-19.8981 -1.78622 L-19.1261 -0.484064 L-18.3541 0.818088 L-17.5821 2.12024 L-16.8101 3.42239 L-16.0381 4.72454 L-17.534 4.74221 L-19.0299 4.75988 L-20.5258 4.77754 L-22.0217 4.79521 L-23.5176 4.81288 L-22.7937 3.49306 L-22.0698 2.17324 L-21.3459 0.853421 L-20.622 -0.466397 L-19.8981 -1.78622 Z " />
<path stroke="rgb(200,255,200)" stroke-opacity="1" fill="rgb(200,255,200)" fill-opacity="1" id="tri_2_4_" d="M-18.8466 -1.71626 L-19.6104 -3.01392 L-20.3741 -4.31158 L-21.1378 -5.60923 L-21.9016 -6.90688 L-22.6653 -8.20454 L-21.1724 -8.21758 L-19.6794 -8.23062 L-18.1865 -8.24365 L-16.6936 -8.25669 L-15.2006 -8.26973 L-15.9298 -6.95904 L-16.659 -5.64834 L-17.3882 -4.33765 L-18.1174 -3.02696 L-18.8466 -1.71626 Z " />
<path stroke="rgb(200,255,200)" stroke-opacity="1" fill="rgb(200,255,200)" fill-opacity="1" id="tri_4_5_" d="M-12.4344 11.1248 L-11.6521 12.4335 L-10.8699 13.7423 L-10.0877 15.0511 L-9.30543 16.3599 L-8.5232 17.6687 L-10.022 17.6913 L-11.5208 17.7139 L-13.0196 17.7365 L-14.5184 17.7591 L-16.0172 17.7817 L-15.3007 16.4503 L-14.5841 15.1189 L-13.8675 13.7875 L-13.1509 12.4561 L-12.4344 11.1248 Z " />
<path stroke="rgb(200,255,200)" stroke-opacity="1" fill="rgb(200,255,200)" fill-opacity="1" id="tri_3_4_" d="M-11.3273 11.2518 L-12.1 9.94958 L-12.8726 8.64739 L-13.6453 7.3452 L-14.4179 6.04302 L-15.1906 4.74083 L-13.6947 4.72316 L-12.1988 4.7055 L-10.7029 4.68783 L-9.20699 4.67016 L-7.71109 4.6525 L-8.43433 5.97235 L-9.15757 7.2922 L-9.88081 8.61206 L-10.6041 9.93191 L-11.3273 11.2518 Z " />
<path stroke="rgb(200,255,200)" stroke-opacity="1" fill="rgb(200,255,200)" fill-opacity="1" id="tri_5_5_" d="M-4.97161 24.0304 L-4.17685 25.3477 L-3.3821 26.6649 L-2.58735 27.9821 L-1.79259 29.2994 L-0.997841 30.6166 L-2.50101 30.6459 L-4.00417 30.6753 L-5.50734 30.7046 L-7.01051 30.7339 L-8.51367 30.7632 L-7.80526 29.4167 L-7.09685 28.0701 L-6.38843 26.7235 L-5.68002 25.377 L-4.97161 24.0304 Z " />
<path stroke="rgb(200,255,200)" stroke-opacity="1" fill="rgb(200,255,200)" fill-opacity="1" id="tri_4_4_" d="M-3.80842 24.2214 L-4.59057 22.9121 L-5.37272 21.6029 L-6.15487 20.2936 L-6.93702 18.9844 L-7.71918 17.6751 L-6.22037 17.6525 L-4.72157 17.6299 L-3.22276 17.6073 L-1.72396 17.5847 L-0.22515 17.5621 L-0.941804 18.8939 L-1.65846 20.2258 L-2.37511 21.5577 L-3.09176 22.8895 L-3.80842 24.2214 Z " />
<path stroke="rgb(200,255,200)" stroke-opacity="1" fill="rgb(200,255,200)" fill-opacity="1" id="tri_6_5_" d="M2.48395 36.9296 L3.29431 38.256 L4.10466 39.5824 L4.91502 40.9088 L5.72538 42.2351 L6.53574 43.5615 L5.02837 43.6005 L3.52099 43.6395 L2.01362 43.6785 L0.506253 43.7175 L-1.00112 43.7565 L-0.304105 42.3911 L0.392908 41.0257 L1.08992 39.6604 L1.78694 38.295 L2.48395 36.9296 Z " />
<path stroke="rgb(200,255,200)" stroke-opacity="1" fill="rgb(200,255,200)" fill-opacity="1" id="tri_5_4_" d="M3.71621 37.2001 L2.92172 35.8833 L2.12722 34.5666 L1.33272 33.2498 L0.538228 31.9331 L-0.256268 30.6163 L1.2469 30.587 L2.75006 30.5577 L4.25323 30.5284 L5.7564 30.499 L7.25956 30.4697 L6.55089 31.8158 L5.84222 33.1619 L5.13355 34.5079 L4.42488 35.854 L3.71621 37.2001 Z " />
<path stroke="rgb(200,255,200)" stroke-opacity="1" fill="rgb(200,255,200)" fill-opacity="1" id="tri_7_4_" d="M9.92705 49.8202 L10.7565 51.1587 L11.5859 52.4971 L12.4153 53.8356 L13.2447 55.1741 L14.0741 56.5126 L12.5607 56.5609 L11.0474 56.6092 L9.53404 56.6575 L8.02069 56.7058 L6.50734 56.7541 L7.19128 55.3673 L7.87522 53.9805 L8.55917 52.5938 L9.24311 51.207 L9.92705 49.8202 Z " />
<path stroke="rgb(200,255,200)" stroke-opacity="1" fill="rgb(200,255,200)" fill-opacity="1" id="tri_6_4_" d="M11.2604 50.1862 L10.4498 48.8597 L9.63914 47.5332 L8.82851 46.2066 L8.01788 44.8801 L7.20726 43.5536 L8.71463 43.5146 L10.222 43.4756 L11.7294 43.4366 L13.2367 43.3976 L14.7441 43.3586 L14.0474 44.7241 L13.3506 46.0896 L12.6539 47.4552 L11.9571 48.8207 L11.2604 50.1862 Z " />
<path stroke="rgb(200,255,200)" stroke-opacity="1" fill="rgb(200,255,200)" fill-opacity="1" id="tri_0_4_" d="M-57.3006 -40.5523 L-56.5454 -39.2603 L-55.7903 -37.9682 L-55.0351 -36.6761 L-54.28 -35.384 L-53.5248 -34.0919 L-55.0155 -34.084 L-56.5061 -34.076 L-57.9968 -34.0681 L-59.4874 -34.0602 L-60.9781 -34.0522 L-60.2426 -35.3523 L-59.5071 -36.6523 L-58.7716 -37.9523 L-58.0361 -39.2523 L-57.3006 -40.5523 Z " />
<path stroke="rgb(200,255,200)" stroke-opacity="1" fill="rgb(200,255,200)" fill-opacity="1" id="tri_1_3_" d="M-49.8141 -27.6124 L-49.0557 -26.3181 L-48.2974 -25.0237 L-47.5391 -23.7294 L-46.7808 -22.435 L-46.0225 -21.1406 L-47.5136 -21.1314 L-49.0047 -21.1221 L-50.4958 -21.1128 L-51.987 -21.1035 L-53.4781 -21.0942 L-52.7453 -22.3979 L-52.0125 -23.7015 L-51.2797 -25.0051 L-50.5469 -26.3088 L-49.8141 -27.6124 Z " />
<path stroke="rgb(200,255,200)" stroke-opacity="1" fill="rgb(200,255,200)" fill-opacity="1" id="tri_0_3_" d="M-48.8191 -27.6046 L-49.5739 -28.8967 L-50.3287 -30.1888 L-51.0836 -31.4809 L-51.8384 -32.7729 L-52.5932 -34.065 L-51.1026 -34.0729 L-49.6119 -34.0809 L-48.1212 -34.0888 L-46.6306 -34.0967 L-45.1399 -34.1047 L-45.8758 -32.8047 L-46.6116 -31.5047 L-47.3474 -30.2047 L-48.0833 -28.9046 L-48.8191 -27.6046 Z " />
<path stroke="rgb(200,255,200)" stroke-opacity="1" fill="rgb(200,255,200)" fill-opacity="1" id="tri_2_3_" d="M-42.3345 -14.6932 L-41.5705 -13.3954 L-40.8065 -12.0975 L-40.0426 -10.7997 L-39.2786 -9.50194 L-38.5146 -8.20414 L-40.0078 -8.19125 L-41.501 -8.17836 L-42.9942 -8.16547 L-44.4874 -8.15258 L-45.9806 -8.13969 L-45.2514 -9.45038 L-44.5221 -10.7611 L-43.7929 -12.0718 L-43.0637 -13.3825 L-42.3345 -14.6932 Z " />
<path stroke="rgb(200,255,200)" stroke-opacity="1" fill="rgb(200,255,200)" fill-opacity="1" id="tri_1_2_" d="M-41.315 -14.6499 L-42.0735 -15.944 L-42.8319 -17.2381 L-43.5904 -18.5322 L-44.3488 -19.8263 L-45.1073 -21.1204 L-43.6162 -21.1297 L-42.1251 -21.139 L-40.6339 -21.1483 L-39.1428 -21.1576 L-37.6517 -21.1669 L-38.3844 -19.8635 L-39.117 -18.5601 L-39.8497 -17.2567 L-40.5823 -15.9533 L-41.315 -14.6499 Z " />
<path stroke="rgb(200,255,200)" stroke-opacity="1" fill="rgb(200,255,200)" fill-opacity="1" id="tri_3_3_" d="M-34.8576 -1.76357 L-34.0848 -0.460975 L-33.312 0.841623 L-32.5393 2.14422 L-31.7665 3.44682 L-30.9937 4.74942 L-32.49 4.76652 L-33.9863 4.78363 L-35.4825 4.80073 L-36.9788 4.81784 L-38.4751 4.83494 L-37.7516 3.51524 L-37.0281 2.19554 L-36.3046 0.875833 L-35.5811 -0.44387 L-34.8576 -1.76357 Z " />
<path stroke="rgb(200,255,200)" stroke-opacity="1" fill="rgb(200,255,200)" fill-opacity="1" id="tri_2_2_" d="M-33.8027 -1.69482 L-34.5672 -2.99292 L-35.3317 -4.29102 L-36.0962 -5.58912 L-36.8607 -6.88722 L-37.6252 -8.18533 L-36.132 -8.19822 L-34.6388 -8.21111 L-33.1456 -8.22399 L-31.6524 -8.23688 L-30.1592 -8.24977 L-30.8879 -6.93878 L-31.6166 -5.62779 L-32.3453 -4.3168 L-33.074 -3.00581 L-33.8027 -1.69482 Z " />
<path stroke="rgb(200,255,200)" stroke-opacity="1" fill="rgb(200,255,200)" fill-opacity="1" id="tri_4_3_" d="M-27.3919 11.1438 L-26.6099 12.4531 L-25.828 13.7624 L-25.046 15.0717 L-24.2641 16.3811 L-23.4822 17.6904 L-24.9805 17.7131 L-26.4788 17.7358 L-27.9772 17.7585 L-29.4755 17.7812 L-30.9738 17.8039 L-30.2574 16.4719 L-29.5411 15.1398 L-28.8247 13.8078 L-28.1083 12.4758 L-27.3919 11.1438 Z " />
<path stroke="rgb(200,255,200)" stroke-opacity="1" fill="rgb(200,255,200)" fill-opacity="1" id="tri_3_2_" d="M-26.2849 11.2761 L-27.0573 9.97339 L-27.8297 8.67068 L-28.6021 7.36797 L-29.3744 6.06525 L-30.1468 4.76254 L-28.6505 4.74543 L-27.1542 4.72833 L-25.658 4.71122 L-24.1617 4.69412 L-22.6654 4.67701 L-23.3893 5.99683 L-24.1132 7.31665 L-24.8371 8.63647 L-25.561 9.95629 L-26.2849 11.2761 Z " />
<path stroke="rgb(200,255,200)" stroke-opacity="1" fill="rgb(200,255,200)" fill-opacity="1" id="tri_5_3_" d="M-19.9289 24.0511 L-19.1345 25.3678 L-18.3402 26.6845 L-17.5458 28.0011 L-16.7514 29.3178 L-15.9571 30.6345 L-17.4598 30.6639 L-18.9625 30.6933 L-20.4652 30.7227 L-21.9679 30.7521 L-23.4706 30.7815 L-22.7622 29.4355 L-22.0539 28.0894 L-21.3456 26.7433 L-20.6372 25.3972 L-19.9289 24.0511 Z " />
<path stroke="rgb(200,255,200)" stroke-opacity="1" fill="rgb(200,255,200)" fill-opacity="1" id="tri_4_2_" d="M-18.7668 24.2414 L-19.5485 22.9327 L-20.3303 21.624 L-21.1121 20.3153 L-21.8939 19.0066 L-22.6756 17.6979 L-21.1773 17.6752 L-19.6789 17.6525 L-18.1806 17.6298 L-16.6823 17.6071 L-15.1839 17.5844 L-15.9005 18.9158 L-16.6171 20.2472 L-17.3336 21.5786 L-18.0502 22.91 L-18.7668 24.2414 Z " />
<path stroke="rgb(200,255,200)" stroke-opacity="1" fill="rgb(200,255,200)" fill-opacity="1" id="tri_6_3_" d="M-12.4728 36.9488 L-11.6626 38.2756 L-10.8525 39.6024 L-10.0423 40.9292 L-9.23217 42.2559 L-8.42202 43.5827 L-9.92932 43.6212 L-11.4366 43.6597 L-12.9439 43.6983 L-14.4512 43.7368 L-15.9585 43.7753 L-15.2613 42.41 L-14.5642 41.0447 L-13.8671 39.6794 L-13.1699 38.3141 L-12.4728 36.9488 Z " />
<path stroke="rgb(200,255,200)" stroke-opacity="1" fill="rgb(200,255,200)" fill-opacity="1" id="tri_5_2_" d="M-11.242 37.2208 L-12.0363 35.9037 L-12.8305 34.5865 L-13.6248 33.2694 L-14.4191 31.9522 L-15.2134 30.6351 L-13.7107 30.6056 L-12.208 30.5762 L-10.7053 30.5468 L-9.2026 30.5174 L-7.69991 30.488 L-8.40832 31.8346 L-9.11673 33.1811 L-9.82514 34.5277 L-10.5336 35.8743 L-11.242 37.2208 Z " />
<path stroke="rgb(200,255,200)" stroke-opacity="1" fill="rgb(200,255,200)" fill-opacity="1" id="tri_7_3_" d="M-5.03063 49.8387 L-4.20157 51.1775 L-3.37251 52.5164 L-2.54344 53.8552 L-1.71438 55.194 L-0.88532 56.5328 L-2.39833 56.5811 L-3.91133 56.6295 L-5.42434 56.6778 L-6.93735 56.7261 L-8.45035 56.7744 L-7.76641 55.3873 L-7.08246 54.0001 L-6.39852 52.613 L-5.71457 51.2259 L-5.03063 49.8387 Z " />
<path stroke="rgb(200,255,200)" stroke-opacity="1" fill="rgb(200,255,200)" fill-opacity="1" id="tri_6_2_" d="M-3.69795 50.2082 L-4.50823 48.8814 L-5.31851 47.5545 L-6.12879 46.2276 L-6.93907 44.9008 L-7.74935 43.5739 L-6.24206 43.5354 L-4.73476 43.4969 L-3.22747 43.4584 L-1.72017 43.4199 L-0.212878 43.3814 L-0.909891 44.7467 L-1.6069 46.1121 L-2.30392 47.4775 L-3.00093 48.8428 L-3.69795 50.2082 Z " />
<path stroke="rgb(200,255,200)" stroke-opacity="1" fill="rgb(200,255,200)" fill-opacity="1" id="tri_8_2_" d="M2.41676 62.7099 L3.26909 64.062 L4.12142 65.4141 L4.97375 66.7663 L5.82608 68.1184 L6.67841 69.4705 L5.15814 69.5329 L3.63786 69.5952 L2.11759 69.6575 L0.597318 69.7198 L-0.922956 69.7822 L-0.255014 68.3677 L0.41293 66.9533 L1.08088 65.5388 L1.74882 64.1243 L2.41676 62.7099 Z " />
<path stroke="rgb(200,255,200)" stroke-opacity="1" fill="rgb(200,255,200)" fill-opacity="1" id="tri_7_2_" d="M3.8421 63.2015 L3.01303 61.863 L2.18397 60.5245 L1.3549 59.1861 L0.525838 57.8476 L-0.303228 56.5091 L1.20978 56.4608 L2.72279 56.4125 L4.23579 56.3642 L5.7488 56.3159 L7.26181 56.2675 L6.57786 57.6543 L5.89392 59.0411 L5.20998 60.4279 L4.52604 61.8147 L3.8421 63.2015 Z " />
<path stroke="rgb(200,255,200)" stroke-opacity="1" fill="rgb(200,255,200)" fill-opacity="1" id="tri_0_2_" d="M-72.258 -40.5307 L-71.5029 -39.239 L-70.7479 -37.9473 L-69.9928 -36.6556 L-69.2378 -35.3639 L-68.4827 -34.0723 L-69.9736 -34.0641 L-71.4644 -34.0559 L-72.9552 -34.0477 L-74.446 -34.0395 L-75.9368 -34.0313 L-75.201 -35.3312 L-74.4653 -36.6311 L-73.7295 -37.9309 L-72.9937 -39.2308 L-72.258 -40.5307 Z " />
<path stroke="rgb(200,255,200)" stroke-opacity="1" fill="rgb(200,255,200)" fill-opacity="1" id="tri_1_1_" d="M-64.7715 -27.5904 L-64.0127 -26.2963 L-63.2539 -25.0022 L-62.4951 -23.708 L-61.7363 -22.4139 L-60.9775 -21.1198 L-62.469 -21.1099 L-63.9605 -21.0999 L-65.452 -21.09 L-66.9435 -21.08 L-68.4349 -21.0701 L-67.7023 -22.3742 L-66.9696 -23.6782 L-66.2369 -24.9823 L-65.5042 -26.2863 L-64.7715 -27.5904 Z " />
<path stroke="rgb(200,255,200)" stroke-opacity="1" fill="rgb(200,255,200)" fill-opacity="1" id="tri_0_1_" d="M-63.7766 -27.5856 L-64.5319 -28.8775 L-65.2872 -30.1693 L-66.0425 -31.4611 L-66.7979 -32.753 L-67.5532 -34.0448 L-66.0624 -34.053 L-64.5715 -34.0612 L-63.0807 -34.0694 L-61.5899 -34.0776 L-60.0991 -34.0857 L-60.8346 -32.7857 L-61.5701 -31.4857 L-62.3056 -30.1857 L-63.0411 -28.8857 L-63.7766 -27.5856 Z " />
<path stroke="rgb(200,255,200)" stroke-opacity="1" fill="rgb(200,255,200)" fill-opacity="1" id="tri_2_1_" d="M-57.2909 -14.6696 L-56.5267 -13.3722 L-55.7625 -12.0747 L-54.9982 -10.7773 L-54.234 -9.47993 L-53.4698 -8.18252 L-54.9635 -8.16959 L-56.4573 -8.15666 L-57.951 -8.14373 L-59.4448 -8.1308 L-60.9385 -8.11788 L-60.209 -9.42822 L-59.4795 -10.7386 L-58.7499 -12.0489 L-58.0204 -13.3592 L-57.2909 -14.6696 Z " />
<path stroke="rgb(200,255,200)" stroke-opacity="1" fill="rgb(200,255,200)" fill-opacity="1" id="tri_1" d="M-56.2707 -14.6289 L-57.0294 -15.9226 L-57.7881 -17.2163 L-58.5467 -18.51 L-59.3054 -19.8037 L-60.0641 -21.0974 L-58.5726 -21.1074 L-57.0811 -21.1173 L-55.5896 -21.1272 L-54.0982 -21.1372 L-52.6067 -21.1471 L-53.3395 -19.8435 L-54.0723 -18.5398 L-54.8051 -17.2362 L-55.5379 -15.9325 L-56.2707 -14.6289 Z " />
<path stroke="rgb(200,255,200)" stroke-opacity="1" fill="rgb(200,255,200)" fill-opacity="1" id="tri_3_1_" d="M-49.8159 -1.73718 L-49.0431 -0.434918 L-48.2703 0.867343 L-47.4975 2.1696 L-46.7247 3.47186 L-45.9519 4.77412 L-47.4478 4.79166 L-48.9436 4.80919 L-50.4394 4.82673 L-51.9353 4.84426 L-53.4311 4.86179 L-52.7081 3.542 L-51.985 2.22221 L-51.262 0.902412 L-50.5389 -0.417383 L-49.8159 -1.73718 Z " />
<path stroke="rgb(200,255,200)" stroke-opacity="1" fill="rgb(200,255,200)" fill-opacity="1" id="tri_2" d="M-48.7627 -1.67373 L-49.5273 -2.9715 L-50.2918 -4.26927 L-51.0563 -5.56703 L-51.8209 -6.8648 L-52.5854 -8.16256 L-51.0917 -8.17549 L-49.5979 -8.18842 L-48.1042 -8.20135 L-46.6104 -8.21428 L-45.1167 -8.2272 L-45.8459 -6.91651 L-46.5751 -5.60582 L-47.3043 -4.29512 L-48.0335 -2.98443 L-48.7627 -1.67373 Z " />
<path stroke="rgb(200,255,200)" stroke-opacity="1" fill="rgb(200,255,200)" fill-opacity="1" id="tri_4_1_" d="M-42.3501 11.1653 L-41.5682 12.4741 L-40.7863 13.7829 L-40.0044 15.0916 L-39.2225 16.4004 L-38.4406 17.7092 L-39.939 17.732 L-41.4374 17.7548 L-42.9358 17.7777 L-44.4343 17.8005 L-45.9327 17.8233 L-45.2162 16.4917 L-44.4996 15.1601 L-43.7831 13.8285 L-43.0666 12.4969 L-42.3501 11.1653 Z " />
<path stroke="rgb(200,255,200)" stroke-opacity="1" fill="rgb(200,255,200)" fill-opacity="1" id="tri_3" d="M-41.2426 11.2989 L-42.0149 9.99669 L-42.7872 8.69452 L-43.5595 7.39235 L-44.3319 6.09018 L-45.1042 4.78801 L-43.6084 4.77048 L-42.1125 4.75294 L-40.6167 4.73541 L-39.1209 4.71787 L-37.625 4.70034 L-38.3485 6.02004 L-39.0721 7.33975 L-39.7956 8.65945 L-40.5191 9.97915 L-41.2426 11.2989 Z " />
<path stroke="rgb(200,255,200)" stroke-opacity="1" fill="rgb(200,255,200)" fill-opacity="1" id="tri_5_1_" d="M-34.8867 24.0701 L-34.0921 25.3873 L-33.2974 26.7044 L-32.5028 28.0216 L-31.7082 29.3388 L-30.9136 30.6559 L-32.4165 30.6852 L-33.9195 30.7144 L-35.4225 30.7437 L-36.9254 30.773 L-38.4284 30.8022 L-37.72 29.4558 L-37.0117 28.1094 L-36.3034 26.7629 L-35.595 25.4165 L-34.8867 24.0701 Z " />
<path stroke="rgb(200,255,200)" stroke-opacity="1" fill="rgb(200,255,200)" fill-opacity="1" id="tri_4" d="M-33.7241 24.2629 L-34.5061 22.9537 L-35.2881 21.6445 L-36.0702 20.3353 L-36.8522 19.0261 L-37.6342 17.717 L-36.1358 17.6941 L-34.6374 17.6713 L-33.139 17.6485 L-31.6406 17.6256 L-30.1421 17.6028 L-30.8585 18.9348 L-31.5749 20.2668 L-32.2913 21.5988 L-33.0077 22.9309 L-33.7241 24.2629 Z " />
<path stroke="rgb(200,255,200)" stroke-opacity="1" fill="rgb(200,255,200)" fill-opacity="1" id="tri_6_1_" d="M-27.4299 36.971 L-26.6194 38.2974 L-25.8089 39.6239 L-24.9984 40.9503 L-24.1879 42.2768 L-23.3774 43.6032 L-24.8851 43.6422 L-26.3928 43.6812 L-27.9005 43.7202 L-29.4082 43.7591 L-30.9159 43.7981 L-30.2187 42.4327 L-29.5215 41.0673 L-28.8243 39.7018 L-28.1271 38.3364 L-27.4299 36.971 Z " />
<path stroke="rgb(200,255,200)" stroke-opacity="1" fill="rgb(200,255,200)" fill-opacity="1" id="tri_5" d="M-26.198 37.2388 L-26.9926 35.922 L-27.7873 34.6051 L-28.5819 33.2883 L-29.3765 31.9715 L-30.1712 30.6547 L-28.6682 30.6254 L-27.1652 30.5962 L-25.6623 30.5669 L-24.1593 30.5376 L-22.6564 30.5084 L-23.3647 31.8545 L-24.073 33.2005 L-24.7813 34.5466 L-25.4897 35.8927 L-26.198 37.2388 Z " />
<path stroke="rgb(200,255,200)" stroke-opacity="1" fill="rgb(200,255,200)" fill-opacity="1" id="tri_7_1_" d="M-19.9891 49.8613 L-19.1598 51.1995 L-18.3304 52.5378 L-17.5011 53.8761 L-16.6718 55.2143 L-15.8424 56.5526 L-17.3559 56.6012 L-18.8694 56.6498 L-20.3829 56.6983 L-21.8964 56.7469 L-23.4099 56.7955 L-22.7257 55.4087 L-22.0416 54.0218 L-21.3574 52.635 L-20.6733 51.2481 L-19.9891 49.8613 Z " />
<path stroke="rgb(200,255,200)" stroke-opacity="1" fill="rgb(200,255,200)" fill-opacity="1" id="tri_6" d="M-18.6552 50.2276 L-19.4658 48.9013 L-20.2763 47.575 L-21.0869 46.2487 L-21.8975 44.9224 L-22.708 43.5961 L-21.2003 43.5571 L-19.6926 43.5181 L-18.1849 43.4791 L-16.6772 43.4401 L-15.1695 43.4011 L-15.8666 44.7664 L-16.5638 46.1317 L-17.2609 47.497 L-17.9581 48.8623 L-18.6552 50.2276 Z " />
<path stroke="rgb(200,255,200)" stroke-opacity="1" fill="rgb(200,255,200)" fill-opacity="1" id="tri_8_1_" d="M-12.541 62.7343 L-11.6882 64.0865 L-10.8354 65.4388 L-9.98261 66.791 L-9.1298 68.1432 L-8.27699 69.4954 L-9.79747 69.5578 L-11.318 69.6202 L-12.8384 69.6826 L-14.3589 69.745 L-15.8794 69.8074 L-15.2117 68.3928 L-14.544 66.9782 L-13.8764 65.5635 L-13.2087 64.1489 L-12.541 62.7343 Z " />
<path stroke="rgb(200,255,200)" stroke-opacity="1" fill="rgb(200,255,200)" fill-opacity="1" id="tri_7" d="M-11.1156 63.2221 L-11.9452 61.8836 L-12.7747 60.545 L-13.6042 59.2065 L-14.4338 57.8679 L-15.2633 56.5294 L-13.7498 56.4808 L-12.2363 56.4322 L-10.7229 56.3836 L-9.20938 56.335 L-7.69589 56.2864 L-8.37984 57.6736 L-9.06378 59.0607 L-9.74773 60.4478 L-10.4317 61.835 L-11.1156 63.2221 Z " />
<path stroke="rgb(200,255,200)" stroke-opacity="1" fill="rgb(200,255,200)" fill-opacity="1" id="tri_9" d="M-5.12995 75.6055 L-4.25092 76.9743 L-3.37188 78.3432 L-2.49285 79.7121 L-1.61382 81.0809 L-0.734783 82.4498 L-2.26248 82.5267 L-3.79018 82.6036 L-5.31787 82.6805 L-6.84557 82.7574 L-8.37327 82.8343 L-7.7246 81.3885 L-7.07594 79.9427 L-6.42727 78.497 L-5.77861 77.0512 L-5.12995 75.6055 Z " />
<path stroke="rgb(200,255,200)" stroke-opacity="1" fill="rgb(200,255,200)" fill-opacity="1" id="tri_8" d="M-3.54269 76.2238 L-4.39522 74.8717 L-5.24776 73.5196 L-6.10029 72.1676 L-6.95283 70.8155 L-7.80536 69.4634 L-6.28488 69.401 L-4.76441 69.3386 L-3.24393 69.2763 L-1.72345 69.2139 L-0.202971 69.1515 L-0.870914 70.5659 L-1.53886 71.9804 L-2.2068 73.3948 L-2.87475 74.8093 L-3.54269 76.2238 Z " />
</g>
</g>
</svg>
