<!DOCTYPE svg>
<svg xmlns="http://www.w3.org/2000/svg" xmlns:xlink="http://www.w3.org/1999/xlink" width="600" height="600">
<g transform="translate(300.000000,300.000000)">
<g transform="scale(3.000000,3.000000)">
<path stroke="rgb(0,0,0)" stroke-opacity="1" fill="rgb(255,255,255)" fill-opacity="1" id="Layer_1" d="M107.411 107.089 L105.406 107.092 L103.402 107.095 L101.397 107.098 L99.3922 107.101 L97.3875 107.104 L95.3828 107.107 L93.3782 107.11 L91.3735 107.113 L89.3688 107.116 L87.3641 107.119 L85.3595 107.122 L83.3548 107.125 L81.3501 107.128 L79.3455 107.131 L77.3408 107.134 L75.3361 107.137 L73.3314 107.14 L71.3268 107.143 L69.3221 107.146 L67.3174 107.149 L65.3127 107.152 L63.3081 107.155 L61.3034 107.158 L59.2987 107.161 L57.2941 107.164 L55.2894 107.167 L53.2847 107.17 L51.28 107.173 L49.2754 107.176 L47.2707 107.179 L45.266 107.182 L43.2613 107.185 L41.2567 107.188 L39.252 107.191 L37.2473 107.194 L35.2426 107.197 L33.238 107.2 L31.2333 107.203 L29.2286 107.206 L27.224 107.209 L25.2193 107.212 L23.2146 107.215 L21.2099 107.218 L19.2053 107.221 L17.2006 107.224 L15.1959 107.227 L13.1912 107.23 L11.1866 107.233 L9.1819 107.236 L7.17723 107.239 L5.17256 107.242 L3.16788 107.245 L1.16321 107.248 L-0.841463 107.252 L-2.84614 107.255 L-4.85081 107.258 L-6.85548 107.261 L-8.86015 107.264 L-10.8648 107.267 L-12.8695 107.27 L-14.8742 107.273 L-16.8788 107.276 L-18.8835 107.279 L-20.8882 107.282 L-22.8929 107.285 L-24.8975 107.288 L-26.9022 107.291 L-28.9069 107.294 L-30.9116 107.297 L-32.9162 107.3 L-34.9209 107.303 L-36.9256 107.306 L-38.9302 107.309 L-40.9349 107.312 L-42.9396 107.315 L-44.9443 107.318 L-46.9489 107.321 L-48.9536 107.324 L-50.9583 107.327 L-52.963 107.33 L-54.9676 107.333 L-56.9723 107.336 L-58.977 107.339 L-60.9816 107.342 L-62.9863 107.345 L-64.991 107.348 L-66.9957 107.351 L-69.0003 107.354 L-71.005 107.357 L-73.0097 107.36 L-75.0144 107.363 L-77.019 107.366 L-79.0237 107.369 L-81.0284 107.372 L-83.0331 107.375 L-85.0377 107.378 L-87.0424 107.381 L-89.0471 107.384 L-91.0517 107.387 L-93.0564 107.39 L-95.0611 107.393 L-97.0658 107.396 L-99.0704 107.399 L-101.075 107.402 L-103.08 107.405 L-105.084 107.408 L-107.089 107.411 L-107.092 105.406 L-107.095 103.402 L-107.098 101.397 L-107.101 99.3922 L-107.104 97.3875 L-107.107 95.3828 L-107.11 93.3782 L-107.113 91.3735 L-107.116 89.3688 L-107.119 87.3641 L-107.122 85.3595 L-107.125 83.3548 L-107.128 81.3501 L-107.131 79.3455 L-107.134 77.3408 L-107.137 75.3361 L-107.14 73.3314 L-107.143 71.3268 L-107.146 69.3221 L-107.149 67.3174 L-107.152 65.3127 L-107.155 63.3081 L-107.158 61.3034 L-107.161 59.2987 L-107.164 57.2941 L-107.167 55.2894 L-107.17 53.2847 L-107.173 51.28 L-107.176 49.2754 L-107.179 47.2707 L-107.182 45.266 L-107.185 43.2613 L-107.188 41.2567 L-107.191 39.252 L-107.194 37.2473 L-107.197 35.2426 L-107.2 33.238 L-107.203 31.2333 L-107.206 29.2286 L-107.209 27.224 L-107.212 25.2193 L-107.215 23.2146 L-107.218 21.2099 L-107.221 19.2053 L-107.224 17.2006 L-107.227 15.1959 L-107.23 13.1912 L-107.233 11.1866 L-107.236 9.1819 L-107.239 7.17722 L-107.242 5.17255 L-107.245 3.16788 L-107.248 1.1632 L-107.251 -0.841469 L-107.255 -2.84614 L-107.258 -4.85081 L-107.261 -6.85549 L-107.264 -8.86016 L-107.267 -10.8648 L-107.27 -12.8695 L-107.273 -14.8742 L-107.276 -16.8789 L-107.279 -18.8835 L-107.282 -20.8882 L-107.285 -22.8929 L-107.288 -24.8975 L-107.291 -26.9022 L-107.294 -28.9069 L-107.297 -30.9116 L-107.3 -32.9162 L-107.303 -34.9209 L-107.306 -36.9256 L-107.309 -38.9303 L-107.312 -40.9349 L-107.315 -42.9396 L-107.318 -44.9443 L-107.321 -46.9489 L-107.324 -48.9536 L-107.327 -50.9583 L-107.33 -52.963 L-107.333 -54.9676 L-107.336 -56.9723 L-107.339 -58.977 L-107.342 -60.9817 L-107.345 -62.9863 L-107.348 -64.991 L-107.351 -66.9957 L-107.354 -69.0003 L-107.357 -71.005 L-107.36 -73.0097 L-107.363 -75.0144 L-107.366 -77.019 L-107.369 -79.0237 L-107.372 -81.0284 L-107.375 -83.0331 L-107.378 -85.0377 L-107.381 -87.0424 L-107.384 -89.0471 L-107.387 -91.0518 L-107.39 -93.0564 L-107.393 -95.0611 L-107.396 -97.0658 L-107.399 -99.0704 L-107.402 -101.075 L-107.405 -103.08 L-107.408 -105.084 L-107.411 -107.089 L-105.406 -107.092 L-103.402 -107.095 L-101.397 -107.098 L-99.3922 -107.101 L-97.3875 -107.104 L-95.3828 -107.107 L-93.3782 -107.11 L-91.3735 -107.113 L-89.3688 -107.116 L-87.3641 -107.119 L-85.3595 -107.122 L-83.3548 -107.125 L-81.3501 -107.128 L-79.3455 -107.131 L-77.3408 -107.134 L-75.3361 -107.137 L-73.3314 -107.14 L-71.3268 -107.143 L-69.3221 -107.146 L-67.3174 -107.149 L-65.3127 -107.152 L-63.3081 -107.155 L-61.3034 -107.158 L-59.2987 -107.161 L-57.2941 -107.164 L-55.2894 -107.167 L-53.2847 -107.17 L-51.28 -107.173 L-49.2754 -107.176 L-47.2707 -107.179 L-45.266 -107.182 L-43.2613 -107.185 L-41.2567 -107.188 L-39.252 -107.191 L-37.2473 -107.194 L-35.2426 -107.197 L-33.238 -107.2 L-31.2333 -107.203 L-29.2286 -107.206 L-27.224 -107.209 L-25.2193 -107.212 L-23.2146 -107.215 L-21.2099 -107.218 L-19.2053 -107.221 L-17.2006 -107.224 L-15.1959 -107.227 L-13.1912 -107.23 L-11.1866 -107.233 L-9.1819 -107.236 L-7.17723 -107.239 L-5.17256 -107.242 L-3.16788 -107.245 L-1.16321 -107.248 L0.841463 -107.252 L2.84614 -107.255 L4.85081 -107.258 L6.85548 -107.261 L8.86015 -107.264 L10.8648 -107.267 L12.8695 -107.27 L14.8742 -107.273 L16.8788 -107.276 L18.8835 -107.279 L20.8882 -107.282 L22.8929 -107.285 L24.8975 -107.288 L26.9022 -107.291 L28.9069 -107.294 L30.9116 -107.297 L32.9162 -107.3 L34.9209 -107.303 L36.9256 -107.306 L38.9302 -107.309 L40.9349 -107.312 L42.9396 -107.315 L44.9443 -107.318 L46.9489 -107.321 L48.9536 -107.324 L50.9583 -107.327 L52.963 -107.33 L54.9676 -107.333 L56.9723 -107.336 L58.977 -107.339 L60.9816 -107.342 L62.9863 -107.345 L64.991 -107.348 L66.9957 -107.351 L69.0003 -107.354 L71.005 -107.357 L73.0097 -107.36 L75.0144 -107.363 L77.019 -107.366 L79.0237 -107.369 L81.0284 -107.372 L83.0331 -107.375 L85.0377 -107.378 L87.0424 -107.381 L89.0471 -107.384 L91.0517 -107.387 L93.0564 -107.39 L95.0611 -107.393 L97.0658 -107.396 L99.0704 -107.399 L101.075 -107.402 L103.08 -107.405 L105.084 -107.408 L107.089 -107.411 L107.092 -105.406 L107.095 -103.402 L107.098 -101.397 L107.101 -99.3922 L107.104 -97.3875 L107.107 -95.3828 L107.11 -93.3782 L107.113 -91.3735 L107.116 -89.3688 L107.119 -87.3642 L107.122 -85.3595 L107.125 -83.3548 L107.128 -81.3501 L107.131 -79.3455 L107.134 -77.3408 L107.137 -75.3361 L107.14 -73.3314 L107.143 -71.3268 L107.146 -69.3221 L107.149 -67.3174 L107.152 -65.3128 L107.155 -63.3081 L107.158 -61.3034 L107.161 -59.2987 L107.164 -57.2941 L107.167 -55.2894 L107.17 -53.2847 L107.173 -51.28 L107.176 -49.2754 L107.179 -47.2707 L107.182 -45.266 L107.185 -43.2613 L107.188 -41.2567 L107.191 -39.252 L107.194 -37.2473 L107.197 -35.2427 L107.2 -33.238 L107.203 -31.2333 L107.206 -29.2286 L107.209 -27.224 L107.212 -25.2193 L107.215 -23.2146 L107.218 -21.2099 L107.221 -19.2053 L107.224 -17.2006 L107.227 -15.1959 L107.23 -13.1913 L107.233 -11.1866 L107.236 -9.18191 L107.239 -7.17724 L107.242 -5.17256 L107.245 -3.16789 L107.248 -1.16322 L107.251 0.841455 L107.255 2.84613 L107.258 4.8508 L107.261 6.85547 L107.264 8.86015 L107.267 10.8648 L107.27 12.8695 L107.273 14.8742 L107.276 16.8788 L107.279 18.8835 L107.282 20.8882 L107.285 22.8929 L107.288 24.8975 L107.291 26.9022 L107.294 28.9069 L107.297 30.9115 L107.3 32.9162 L107.303 34.9209 L107.306 36.9256 L107.309 38.9302 L107.312 40.9349 L107.315 42.9396 L107.318 44.9443 L107.321 46.9489 L107.324 48.9536 L107.327 50.9583 L107.33 52.963 L107.333 54.9676 L107.336 56.9723 L107.339 58.977 L107.342 60.9816 L107.345 62.9863 L107.348 64.991 L107.351 66.9957 L107.354 69.0003 L107.357 71.005 L107.36 73.0097 L107.363 75.0144 L107.366 77.019 L107.369 79.0237 L107.372 81.0284 L107.375 83.033 L107.378 85.0377 L107.381 87.0424 L107.384 89.0471 L107.387 91.0517 L107.39 93.0564 L107.393 95.0611 L107.396 97.0658 L107.399 99.0704 L107.402 101.075 L107.405 103.08 L107.408 105.084 L107.411 107.089 Z " />
<path stroke="rgb(169,255,187)" stroke-opacity="1" fill="rgb(169,255,187)" fill-opacity="1" id="scalebar" d="M-3.69904 -94.609 L-1.65554 -94.609 L0.387962 -94.609 L2.43146 -94.609 L4.47496 -94.609 L4.47496 -92.6686 L4.47496 -90.7281 L4.47496 -88.7876 L4.47496 -86.8472 L4.47496 -84.9067 L4.47496 -82.9663 L4.47496 -81.0258 L4.47496 -79.0853 L4.47496 -77.1449 L4.47496 -75.2044 L4.47496 -73.2639 L4.47496 -71.3235 L4.47496 -69.383 L2.43146 -69.383 L0.387962 -69.383 L-1.65554 -69.383 L-3.69904 -69.383 L-3.69904 -71.3235 L-3.69904 -73.2639 L-3.69904 -75.2044 L-3.69904 -77.1449 L-3.69904 -79.0853 L-3.69904 -81.0258 L-3.69904 -82.9663 L-3.69904 -84.9067 L-3.69904 -86.8472 L-3.69904 -88.7876 L-3.69904 -90.7281 L-3.69904 -92.6686 L-3.69904 -94.609 Z " />
<path stroke="rgb(200,255,200)" stroke-opacity="1" fill="rgb(200,255,200)" fill-opacity="1" id="scaleslider" d="M-6.69904 -80.1801 L-4.67418 -80.1801 L-2.64932 -80.1801 L-0.624466 -80.1801 L1.40039 -80.1801 L3.42525 -80.1801 L5.4501 -80.1801 L7.47496 -80.1801 L7.47496 -78.4535 L7.47496 -76.7268 L7.47496 -75.0001 L5.4501 -75.0001 L3.42525 -75.0001 L1.40039 -75.0001 L-0.624466 -75.0001 L-2.64932 -75.0001 L-4.67418 -75.0001 L-6.69904 -75.0001 L-6.69904 -76.7268 L-6.69904 -78.4535 L-6.69904 -80.1801 Z " />
<path stroke="rgb(255,134,106)" stroke-opacity="1" fill="rgb(255,134,106)" fill-opacity="1" id="tranbar" d="M-49.142 -86.146 L-47.0675 -86.146 L-44.993 -86.146 L-42.9185 -86.146 L-40.844 -86.146 L-40.844 -88.2208 L-40.844 -90.2955 L-40.844 -92.3703 L-40.844 -94.445 L-38.7685 -94.445 L-36.693 -94.445 L-34.6175 -94.445 L-32.542 -94.445 L-32.542 -92.3703 L-32.542 -90.2955 L-32.542 -88.2208 L-32.542 -86.146 L-30.4673 -86.146 L-28.3925 -86.146 L-26.3178 -86.146 L-24.243 -86.146 L-24.243 -84.0715 L-24.243 -81.997 L-24.243 -79.9225 L-24.243 -77.848 L-26.3178 -77.848 L-28.3925 -77.848 L-30.4673 -77.848 L-32.542 -77.848 L-32.542 -75.773 L-32.542 -73.698 L-32.542 -71.623 L-32.542 -69.548 L-34.6175 -69.548 L-36.693 -69.548 L-38.7685 -69.548 L-40.844 -69.548 L-40.844 -71.623 L-40.844 -73.698 L-40.844 -75.773 L-40.844 -77.848 L-42.9185 -77.848 L-44.993 -77.848 L-47.0675 -77.848 L-49.142 -77.848 L-49.142 -79.9225 L-49.142 -81.997 L-49.142 -84.0715 L-49.142 -86.146 Z " />
<path stroke="rgb(255,250,159)" stroke-opacity="1" fill="rgb(255,250,159)" fill-opacity="1" id="translider" d="M-39.248 -84.553 L-37.5447 -84.553 L-35.8414 -84.553 L-34.138 -84.553 L-34.138 -82.85 L-34.138 -81.147 L-34.138 -79.444 L-35.8414 -79.444 L-37.5447 -79.444 L-39.248 -79.444 L-39.248 -81.147 L-39.248 -82.85 L-39.248 -84.553 Z " />
<path stroke="rgb(254,204,128)" stroke-opacity="1" fill="rgb(254,204,128)" fill-opacity="1" id="rotate" d="M32.632 -73.62 L31.6646 -75.2952 L30.6972 -76.9704 L29.7298 -78.6456 L28.7624 -80.3208 L27.795 -81.996 L28.7624 -83.6714 L29.7298 -85.3468 L30.6972 -87.0222 L31.6646 -88.6976 L32.632 -90.373 L34.5668 -90.373 L36.5016 -90.373 L38.4364 -90.373 L40.3712 -90.373 L42.306 -90.373 L43.2734 -88.6976 L44.2408 -87.0222 L45.2082 -85.3468 L46.1756 -83.6714 L47.143 -81.996 L46.1756 -80.3208 L45.2082 -78.6456 L44.2408 -76.9704 L43.2734 -75.2952 L42.306 -73.62 L40.3712 -73.62 L38.4364 -73.62 L36.5016 -73.62 L34.5668 -73.62 L32.632 -73.62 Z " />
<path stroke="rgb(200,255,200)" stroke-opacity="1" fill="rgb(200,255,200)" fill-opacity="1" id="tri_0" d="M-3.81734 -46.2825 L-3.08782 -47.5505 L-2.35831 -48.8184 L-1.62879 -50.0864 L-0.899266 -51.3544 L-0.169748 -52.6224 L0.56373 -51.357 L1.29721 -50.0917 L2.03068 -48.8264 L2.76416 -47.561 L3.49764 -46.2957 L2.03464 -46.2931 L0.571646 -46.2904 L-0.89135 -46.2878 L-2.35435 -46.2852 L-3.81734 -46.2825 Z " />
<path stroke="rgb(200,255,200)" stroke-opacity="1" fill="rgb(200,255,200)" fill-opacity="1" id="tri_0_18_" d="M-8.78801 -37.6354 L-8.05922 -38.9034 L-7.33044 -40.1714 L-6.60165 -41.4393 L-5.87287 -42.7073 L-5.14408 -43.9753 L-4.41031 -42.7098 L-3.67654 -41.4443 L-2.94277 -40.1788 L-2.209 -38.9134 L-1.47523 -37.6479 L-2.93778 -37.6454 L-4.40034 -37.6429 L-5.86289 -37.6404 L-7.32545 -37.6379 L-8.78801 -37.6354 Z " />
<path stroke="rgb(200,255,200)" stroke-opacity="1" fill="rgb(200,255,200)" fill-opacity="1" id="tri_1_16_" d="M1.20375 -37.6626 L1.92928 -38.9243 L2.65482 -40.186 L3.38035 -41.4477 L4.10588 -42.7093 L4.83142 -43.971 L5.56133 -42.7118 L6.29124 -41.4526 L7.02115 -40.1934 L7.75106 -38.9342 L8.48097 -37.675 L7.02553 -37.6725 L5.57008 -37.67 L4.11464 -37.6675 L2.65919 -37.665 L1.20375 -37.6626 Z " />
<path stroke="rgb(200,255,200)" stroke-opacity="1" fill="rgb(200,255,200)" fill-opacity="1" id="tri_0_17_" d="M3.66643 -44.8555 L2.93721 -43.5873 L2.20798 -42.3192 L1.47876 -41.0511 L0.749534 -39.783 L0.0203087 -38.5149 L-0.713462 -39.7804 L-1.44723 -41.0458 L-2.18101 -42.3113 L-2.91478 -43.5768 L-3.64855 -44.8423 L-2.18555 -44.8449 L-0.722556 -44.8475 L0.74044 -44.8502 L2.20344 -44.8528 L3.66643 -44.8555 Z " />
<path stroke="rgb(200,255,200)" stroke-opacity="1" fill="rgb(200,255,200)" fill-opacity="1" id="tri_0_16_" d="M-13.7614 -28.9856 L-13.0321 -30.254 L-12.3027 -31.5224 L-11.5733 -32.7908 L-10.8439 -34.0592 L-10.1146 -35.3276 L-9.38094 -34.0616 L-8.64732 -32.7955 L-7.91369 -31.5294 L-7.18007 -30.2634 L-6.44644 -28.9973 L-7.90944 -28.995 L-9.37244 -28.9926 L-10.8354 -28.9903 L-12.2984 -28.9879 L-13.7614 -28.9856 Z " />
<path stroke="rgb(200,255,200)" stroke-opacity="1" fill="rgb(200,255,200)" fill-opacity="1" id="tri_1_15_" d="M-3.76751 -29.0118 L-3.04227 -30.2739 L-2.31702 -31.5361 L-1.59178 -32.7982 L-0.866537 -34.0604 L-0.141295 -35.3225 L0.588761 -34.0628 L1.31882 -32.8032 L2.04887 -31.5435 L2.77893 -30.2839 L3.50899 -29.0242 L2.05369 -29.0217 L0.598389 -29.0193 L-0.85691 -29.0168 L-2.31221 -29.0143 L-3.76751 -29.0118 Z " />
<path stroke="rgb(200,255,200)" stroke-opacity="1" fill="rgb(200,255,200)" fill-opacity="1" id="tri_0_15_" d="M-1.30615 -36.2073 L-2.03508 -34.9387 L-2.76401 -33.6702 L-3.49294 -32.4016 L-4.22188 -31.1331 L-4.95081 -29.8645 L-5.68443 -31.1306 L-6.41806 -32.3966 L-7.15168 -33.6627 L-7.8853 -34.9288 L-8.61893 -36.1948 L-7.15637 -36.1973 L-5.69382 -36.1998 L-4.23126 -36.2023 L-2.76871 -36.2048 L-1.30615 -36.2073 Z " />
<path stroke="rgb(200,255,200)" stroke-opacity="1" fill="rgb(200,255,200)" fill-opacity="1" id="tri_2_14_" d="M6.2249 -29.0388 L6.94658 -30.2945 L7.66826 -31.5502 L8.38995 -32.8059 L9.11163 -34.0616 L9.83331 -35.3173 L10.5593 -34.0639 L11.2854 -32.8105 L12.0114 -31.5572 L12.7375 -30.3038 L13.4635 -29.0504 L12.0158 -29.0481 L10.5681 -29.0458 L9.12034 -29.0435 L7.67262 -29.0411 L6.2249 -29.0388 Z " />
<path stroke="rgb(200,255,200)" stroke-opacity="1" fill="rgb(200,255,200)" fill-opacity="1" id="tri_1_14_" d="M8.65226 -36.2142 L7.92688 -34.9521 L7.20149 -33.69 L6.4761 -32.4278 L5.75071 -31.1657 L5.02532 -29.9036 L4.29527 -31.1632 L3.56521 -32.4229 L2.83515 -33.6825 L2.1051 -34.9422 L1.37504 -36.2018 L2.83049 -36.2043 L4.28593 -36.2068 L5.74137 -36.2093 L7.19682 -36.2118 L8.65226 -36.2142 Z " />
<path stroke="rgb(200,255,200)" stroke-opacity="1" fill="rgb(200,255,200)" fill-opacity="1" id="tri_0_14_" d="M-18.7348 -20.3348 L-18.0055 -21.6034 L-17.2763 -22.872 L-16.5471 -24.1405 L-15.8179 -25.4091 L-15.0886 -26.6776 L-14.3553 -25.4117 L-13.622 -24.1458 L-12.8886 -22.8799 L-12.1553 -21.614 L-11.422 -20.348 L-12.8845 -20.3454 L-14.3471 -20.3428 L-15.8096 -20.3401 L-17.2722 -20.3375 L-18.7348 -20.3348 Z " />
<path stroke="rgb(200,255,200)" stroke-opacity="1" fill="rgb(200,255,200)" fill-opacity="1" id="tri_1_13_" d="M-8.74275 -20.3627 L-8.01678 -21.6246 L-7.29081 -22.8864 L-6.56483 -24.1483 L-5.83886 -25.4101 L-5.11289 -26.6719 L-4.38298 -25.4127 L-3.65307 -24.1535 L-2.92316 -22.8943 L-2.19325 -21.6351 L-1.46334 -20.3759 L-2.91922 -20.3732 L-4.3751 -20.3706 L-5.83098 -20.368 L-7.28687 -20.3654 L-8.74275 -20.3627 Z " />
<path stroke="rgb(200,255,200)" stroke-opacity="1" fill="rgb(200,255,200)" fill-opacity="1" id="tri_0_13_" d="M-6.27782 -27.5565 L-7.00748 -26.2883 L-7.73715 -25.02 L-8.46681 -23.7518 L-9.19648 -22.4835 L-9.92615 -21.2152 L-10.6595 -22.4811 L-11.3928 -23.7471 L-12.1261 -25.013 L-12.8595 -26.2789 L-13.5928 -27.5448 L-12.1298 -27.5472 L-10.6668 -27.5495 L-9.20381 -27.5518 L-7.74081 -27.5542 L-6.27782 -27.5565 Z " />
<path stroke="rgb(200,255,200)" stroke-opacity="1" fill="rgb(200,255,200)" fill-opacity="1" id="tri_2_13_" d="M1.2529 -20.3905 L1.97458 -21.6457 L2.69626 -22.901 L3.41794 -24.1562 L4.13963 -25.4115 L4.86131 -26.6667 L5.58735 -25.4137 L6.31338 -24.1606 L7.03942 -22.9075 L7.76545 -21.6544 L8.49149 -20.4014 L7.04377 -20.3992 L5.59605 -20.397 L4.14834 -20.3948 L2.70062 -20.3927 L1.2529 -20.3905 Z " />
<path stroke="rgb(200,255,200)" stroke-opacity="1" fill="rgb(200,255,200)" fill-opacity="1" id="tri_1_12_" d="M3.68035 -27.5635 L2.95496 -26.3018 L2.22957 -25.0401 L1.50418 -23.7784 L0.778796 -22.5167 L0.0534076 -21.255 L-0.676502 -22.5142 L-1.40641 -23.7734 L-2.13632 -25.0327 L-2.86624 -26.2919 L-3.59615 -27.5511 L-2.14085 -27.5536 L-0.685548 -27.556 L0.769751 -27.5585 L2.22505 -27.561 L3.68035 -27.5635 Z " />
<path stroke="rgb(200,255,200)" stroke-opacity="1" fill="rgb(200,255,200)" fill-opacity="1" id="tri_3_12_" d="M11.2446 -20.4161 L11.9626 -21.6651 L12.6806 -22.914 L13.3985 -24.1629 L14.1165 -25.4118 L14.8344 -26.6607 L15.5572 -25.4147 L16.2799 -24.1687 L17.0026 -22.9226 L17.7253 -21.6766 L18.4481 -20.4306 L17.0074 -20.4277 L15.5667 -20.4248 L14.126 -20.4219 L12.6853 -20.419 L11.2446 -20.4161 Z " />
<path stroke="rgb(200,255,200)" stroke-opacity="1" fill="rgb(200,255,200)" fill-opacity="1" id="tri_2_12_" d="M13.637 -27.5694 L12.9153 -26.314 L12.1937 -25.0586 L11.472 -23.8032 L10.7503 -22.5478 L10.0286 -21.2924 L9.30258 -22.5455 L8.57654 -23.7986 L7.85051 -25.0516 L7.12447 -26.3047 L6.39843 -27.5578 L7.84615 -27.5601 L9.29387 -27.5624 L10.7416 -27.5648 L12.1893 -27.5671 L13.637 -27.5694 Z " />
<path stroke="rgb(200,255,200)" stroke-opacity="1" fill="rgb(200,255,200)" fill-opacity="1" id="tri_0_12_" d="M-23.7068 -11.689 L-22.9777 -12.9567 L-22.2486 -14.2244 L-21.5195 -15.492 L-20.7904 -16.7597 L-20.0614 -18.0274 L-19.3277 -16.7618 L-18.5941 -15.4961 L-17.8605 -14.2305 L-17.1269 -12.9649 L-16.3932 -11.6993 L-17.8559 -11.6972 L-19.3187 -11.6952 L-20.7814 -11.6931 L-22.2441 -11.6911 L-23.7068 -11.689 Z " />
<path stroke="rgb(200,255,200)" stroke-opacity="1" fill="rgb(200,255,200)" fill-opacity="1" id="tri_1_11_" d="M-13.7145 -11.7136 L-12.9893 -12.9755 L-12.264 -14.2373 L-11.5388 -15.4992 L-10.8135 -16.761 L-10.0883 -18.0229 L-9.35824 -16.7635 L-8.62819 -15.5041 L-7.89813 -14.2448 L-7.16807 -12.9854 L-6.43801 -11.726 L-7.89331 -11.7236 L-9.34861 -11.7211 L-10.8039 -11.7186 L-12.2592 -11.7161 L-13.7145 -11.7136 Z " />
<path stroke="rgb(200,255,200)" stroke-opacity="1" fill="rgb(200,255,200)" fill-opacity="1" id="tri_0_11_" d="M-11.2532 -18.9074 L-11.9821 -17.6391 L-12.711 -16.3708 L-13.4399 -15.1026 L-14.1689 -13.8343 L-14.8978 -12.5661 L-15.6314 -13.8317 L-16.3651 -15.0973 L-17.0987 -16.3629 L-17.8323 -17.6285 L-18.5659 -18.8942 L-17.1034 -18.8968 L-15.6408 -18.8995 L-14.1783 -18.9021 L-12.7157 -18.9047 L-11.2532 -18.9074 Z " />
<path stroke="rgb(200,255,200)" stroke-opacity="1" fill="rgb(200,255,200)" fill-opacity="1" id="tri_2_11_" d="M-3.72176 -11.7409 L-2.99964 -12.9964 L-2.27752 -14.252 L-1.55541 -15.5075 L-0.833288 -16.7631 L-0.111171 -18.0186 L0.614574 -16.7657 L1.34032 -15.5128 L2.06607 -14.2598 L2.79181 -13.0069 L3.51756 -11.754 L2.0697 -11.7514 L0.621833 -11.7487 L-0.826031 -11.7461 L-2.27389 -11.7435 L-3.72176 -11.7409 Z " />
<path stroke="rgb(200,255,200)" stroke-opacity="1" fill="rgb(200,255,200)" fill-opacity="1" id="tri_1_10_" d="M-1.29224 -18.9152 L-2.01807 -17.6532 L-2.7439 -16.3913 L-3.46972 -15.1293 L-4.19555 -13.8673 L-4.92137 -12.6053 L-5.65143 -13.8647 L-6.38149 -15.124 L-7.11154 -16.3834 L-7.8416 -17.6427 L-8.57166 -18.9021 L-7.11578 -18.9047 L-5.65989 -18.9074 L-4.20401 -18.91 L-2.74813 -18.9126 L-1.29224 -18.9152 Z " />
<path stroke="rgb(200,255,200)" stroke-opacity="1" fill="rgb(200,255,200)" fill-opacity="1" id="tri_3_11_" d="M6.27081 -11.7686 L6.98906 -13.0172 L7.70731 -14.2659 L8.42556 -15.5145 L9.14381 -16.7631 L9.86206 -18.0118 L10.5845 -16.7655 L11.3069 -15.5191 L12.0294 -14.2728 L12.7518 -13.0265 L13.4742 -11.7802 L12.0336 -11.7779 L10.5929 -11.7755 L9.15218 -11.7732 L7.7115 -11.7709 L6.27081 -11.7686 Z " />
<path stroke="rgb(200,255,200)" stroke-opacity="1" fill="rgb(200,255,200)" fill-opacity="1" id="tri_2_10_" d="M8.66485 -18.9207 L7.94288 -17.6655 L7.22091 -16.4104 L6.49894 -15.1553 L5.77696 -13.9002 L5.05499 -12.6451 L4.32925 -13.8981 L3.6035 -15.151 L2.87775 -16.4039 L2.15201 -17.6568 L1.42626 -18.9098 L2.87398 -18.9119 L4.3217 -18.9141 L5.76942 -18.9163 L7.21713 -18.9185 L8.66485 -18.9207 Z " />
<path stroke="rgb(200,255,200)" stroke-opacity="1" fill="rgb(200,255,200)" fill-opacity="1" id="tri_4_10_" d="M16.2653 -11.7952 L16.9798 -13.0379 L17.6943 -14.2806 L18.4088 -15.5234 L19.1233 -16.7661 L19.8378 -18.0088 L20.5564 -16.7685 L21.2749 -15.5282 L21.9934 -14.288 L22.712 -13.0477 L23.4305 -11.8074 L21.9975 -11.805 L20.5644 -11.8026 L19.1314 -11.8001 L17.6983 -11.7977 L16.2653 -11.7952 Z " />
<path stroke="rgb(200,255,200)" stroke-opacity="1" fill="rgb(200,255,200)" fill-opacity="1" id="tri_3_10_" d="M18.6241 -18.9297 L17.9059 -17.6805 L17.1876 -16.4313 L16.4694 -15.1821 L15.7511 -13.9329 L15.0329 -12.6837 L14.3104 -13.93 L13.588 -15.1763 L12.8656 -16.4227 L12.1431 -17.669 L11.4207 -18.9153 L12.8614 -18.9182 L14.3021 -18.9211 L15.7427 -18.924 L17.1834 -18.9269 L18.6241 -18.9297 Z " />
<path stroke="rgb(200,255,200)" stroke-opacity="1" fill="rgb(200,255,200)" fill-opacity="1" id="tri_0_10_" d="M-28.6796 -3.0386 L-27.9504 -4.30715 L-27.2211 -5.57571 L-26.4919 -6.84426 L-25.7627 -8.11282 L-25.0335 -9.38137 L-24.2998 -8.11502 L-23.5662 -6.84866 L-22.8326 -5.5823 L-22.099 -4.31595 L-21.3653 -3.04959 L-22.8282 -3.04739 L-24.291 -3.04519 L-25.7539 -3.04299 L-27.2167 -3.04079 L-28.6796 -3.0386 Z " />
<path stroke="rgb(200,255,200)" stroke-opacity="1" fill="rgb(200,255,200)" fill-opacity="1" id="tri_1_9_" d="M-18.6864 -3.06381 L-17.961 -4.3258 L-17.2356 -5.58779 L-16.5103 -6.84978 L-15.7849 -8.11177 L-15.0595 -9.37376 L-14.3296 -8.11439 L-13.5997 -6.85503 L-12.8697 -5.59567 L-12.1398 -4.33631 L-11.4099 -3.07694 L-12.8652 -3.07432 L-14.3205 -3.07169 L-15.7758 -3.06907 L-17.2311 -3.06644 L-18.6864 -3.06381 Z " />
<path stroke="rgb(200,255,200)" stroke-opacity="1" fill="rgb(200,255,200)" fill-opacity="1" id="tri_0_9_" d="M-16.2243 -10.2586 L-16.9534 -8.99021 L-17.6825 -7.7218 L-18.4116 -6.45339 L-19.1406 -5.18499 L-19.8697 -3.91658 L-20.6033 -5.18293 L-21.337 -6.44929 L-22.0706 -7.71565 L-22.8042 -8.982 L-23.5378 -10.2484 L-22.0751 -10.2504 L-20.6124 -10.2525 L-19.1497 -10.2545 L-17.687 -10.2566 L-16.2243 -10.2586 Z " />
<path stroke="rgb(200,255,200)" stroke-opacity="1" fill="rgb(200,255,200)" fill-opacity="1" id="tri_2_9_" d="M-8.69393 -3.09182 L-7.97225 -4.34722 L-7.25056 -5.60261 L-6.52888 -6.85801 L-5.8072 -8.11341 L-5.08552 -9.3688 L-4.35919 -8.11602 L-3.63287 -6.86324 L-2.90654 -5.61045 L-2.18021 -4.35767 L-1.45389 -3.10489 L-2.9019 -3.10228 L-4.3499 -3.09966 L-5.79791 -3.09705 L-7.24592 -3.09444 L-8.69393 -3.09182 Z " />
<path stroke="rgb(200,255,200)" stroke-opacity="1" fill="rgb(200,255,200)" fill-opacity="1" id="tri_1_8_" d="M-6.26665 -10.2654 L-6.99204 -9.00356 L-7.71743 -7.74172 L-8.44281 -6.47987 L-9.1682 -5.21803 L-9.89359 -3.95619 L-10.6235 -5.21555 L-11.3534 -6.47491 L-12.0833 -7.73428 L-12.8132 -8.99364 L-13.5431 -10.253 L-12.0878 -10.2555 L-10.6325 -10.258 L-9.17725 -10.2604 L-7.72195 -10.2629 L-6.26665 -10.2654 Z " />
<path stroke="rgb(200,255,200)" stroke-opacity="1" fill="rgb(200,255,200)" fill-opacity="1" id="tri_3_9_" d="M1.29929 -3.11988 L2.01711 -4.3688 L2.73492 -5.61772 L3.45274 -6.86664 L4.17056 -8.11556 L4.88837 -9.36448 L5.61081 -8.11801 L6.33324 -6.87155 L7.05568 -5.62508 L7.77812 -4.37862 L8.50055 -3.13215 L7.0603 -3.12969 L5.62005 -3.12724 L4.1798 -3.12479 L2.73954 -3.12233 L1.29929 -3.11988 Z " />
<path stroke="rgb(200,255,200)" stroke-opacity="1" fill="rgb(200,255,200)" fill-opacity="1" id="tri_2_8_" d="M3.69102 -10.2732 L2.96949 -9.01783 L2.24795 -7.76243 L1.52641 -6.50704 L0.804877 -5.25164 L0.0833406 -3.99625 L-0.642986 -5.24903 L-1.36931 -6.50181 L-2.09564 -7.7546 L-2.82196 -9.00738 L-3.54829 -10.2602 L-2.10043 -10.2628 L-0.652565 -10.2654 L0.795299 -10.268 L2.24316 -10.2706 L3.69102 -10.2732 Z " />
<path stroke="rgb(200,255,200)" stroke-opacity="1" fill="rgb(200,255,200)" fill-opacity="1" id="tri_4_9_" d="M11.2915 -3.14696 L12.006 -4.38924 L12.7205 -5.63152 L13.435 -6.8738 L14.1495 -8.11608 L14.864 -9.35835 L15.5828 -8.11852 L16.3017 -6.87868 L17.0205 -5.63884 L17.7393 -4.39901 L18.4581 -3.15917 L17.0248 -3.15673 L15.5915 -3.15429 L14.1581 -3.15185 L12.7248 -3.14941 L11.2915 -3.14696 Z " />
<path stroke="rgb(200,255,200)" stroke-opacity="1" fill="rgb(200,255,200)" fill-opacity="1" id="tri_3_8_" d="M13.6501 -10.2794 L12.9319 -9.03057 L12.2136 -7.7818 L11.4954 -6.53302 L10.7771 -5.28424 L10.0589 -4.03546 L9.33643 -5.28193 L8.61399 -6.5284 L7.89155 -7.77486 L7.16912 -9.02133 L6.44668 -10.2678 L7.88737 -10.2701 L9.32805 -10.2724 L10.7687 -10.2747 L12.2094 -10.277 L13.6501 -10.2794 Z " />
<path stroke="rgb(200,255,200)" stroke-opacity="1" fill="rgb(200,255,200)" fill-opacity="1" id="tri_5_8_" d="M21.2866 -3.17418 L21.997 -4.40993 L22.7075 -5.64568 L23.418 -6.88144 L24.1284 -8.11719 L24.8389 -9.35294 L25.5537 -8.11962 L26.2684 -6.88629 L26.9832 -5.65297 L27.6979 -4.41965 L28.4127 -3.18632 L26.9875 -3.18389 L25.5622 -3.18146 L24.137 -3.17904 L22.7118 -3.17661 L21.2866 -3.17418 Z " />
<path stroke="rgb(200,255,200)" stroke-opacity="1" fill="rgb(200,255,200)" fill-opacity="1" id="tri_4_8_" d="M23.6088 -10.2861 L22.8946 -9.04381 L22.1804 -7.80153 L21.4661 -6.55925 L20.7519 -5.31698 L20.0377 -4.0747 L19.3189 -5.31453 L18.6001 -6.55437 L17.8812 -7.79421 L17.1624 -9.03404 L16.4436 -10.2739 L17.8766 -10.2763 L19.3097 -10.2788 L20.7427 -10.2812 L22.1758 -10.2836 L23.6088 -10.2861 Z " />
<path stroke="rgb(200,255,200)" stroke-opacity="1" fill="rgb(200,255,200)" fill-opacity="1" id="tri_0_8_" d="M-33.6543 5.61124 L-32.9248 4.34283 L-32.1953 3.07442 L-31.4658 1.80601 L-30.7363 0.537603 L-30.0068 -0.730805 L-29.2733 0.534964 L-28.5398 1.80073 L-27.8063 3.0665 L-27.0728 4.33227 L-26.3394 5.59804 L-27.8024 5.60068 L-29.2654 5.60332 L-30.7284 5.60596 L-32.1913 5.6086 L-33.6543 5.61124 Z " />
<path stroke="rgb(200,255,200)" stroke-opacity="1" fill="rgb(200,255,200)" fill-opacity="1" id="tri_1_7_" d="M-23.6603 5.5836 L-22.9347 4.32205 L-22.209 3.0605 L-21.4833 1.79895 L-20.7576 0.537404 L-20.0319 -0.724146 L-19.3025 0.53507 L-18.573 1.79429 L-17.8435 3.0535 L-17.114 4.31272 L-16.3846 5.57193 L-17.8397 5.57427 L-19.2949 5.5766 L-20.75 5.57894 L-22.2052 5.58127 L-23.6603 5.5836 Z " />
<path stroke="rgb(200,255,200)" stroke-opacity="1" fill="rgb(200,255,200)" fill-opacity="1" id="tri_0_7_" d="M-21.1966 -1.60879 L-21.9259 -0.340819 L-22.6553 0.927149 L-23.3847 2.19512 L-24.1141 3.46308 L-24.8434 4.73105 L-25.5769 3.46528 L-26.3104 2.19952 L-27.0439 0.933747 L-27.7773 -0.332021 L-28.5108 -1.59779 L-27.048 -1.59999 L-25.5851 -1.60219 L-24.1223 -1.60439 L-22.6594 -1.60659 L-21.1966 -1.60879 Z " />
<path stroke="rgb(200,255,200)" stroke-opacity="1" fill="rgb(200,255,200)" fill-opacity="1" id="tri_2_7_" d="M-13.6686 5.55726 L-12.9465 4.30187 L-12.2243 3.04647 L-11.5022 1.79107 L-10.7801 0.53568 L-10.058 -0.719715 L-9.33196 0.533213 L-8.60593 1.78614 L-7.87989 3.03907 L-7.15385 4.29199 L-6.42782 5.54492 L-7.87597 5.54739 L-9.32412 5.54986 L-10.7723 5.55232 L-12.2204 5.55479 L-13.6686 5.55726 Z " />
<path stroke="rgb(200,255,200)" stroke-opacity="1" fill="rgb(200,255,200)" fill-opacity="1" id="tri_1_6_" d="M-11.2389 -1.61632 L-11.9647 -0.354476 L-12.6906 0.907366 L-13.4164 2.16921 L-14.1422 3.43105 L-14.868 4.69289 L-15.5975 3.43368 L-16.327 2.17446 L-17.0565 0.915243 L-17.7859 -0.343973 L-18.5154 -1.60319 L-17.0601 -1.60581 L-15.6048 -1.60844 L-14.1495 -1.61107 L-12.6942 -1.61369 L-11.2389 -1.61632 Z " />
<path stroke="rgb(200,255,200)" stroke-opacity="1" fill="rgb(200,255,200)" fill-opacity="1" id="tri_3_7_" d="M-3.67436 5.53004 L-2.95611 4.28097 L-2.23786 3.03191 L-1.51961 1.78284 L-0.801364 0.533773 L-0.0831152 -0.715293 L0.639033 0.531319 L1.36118 1.77793 L2.08333 3.02454 L2.80548 4.27115 L3.52762 5.51777 L2.08723 5.52022 L0.646831 5.52267 L-0.793567 5.52513 L-2.23396 5.52758 L-3.67436 5.53004 Z " />
<path stroke="rgb(200,255,200)" stroke-opacity="1" fill="rgb(200,255,200)" fill-opacity="1" id="tri_2_6_" d="M-1.28032 -1.62414 L-2.00229 -0.368601 L-2.72426 0.88694 L-3.44623 2.14248 L-4.16821 3.39802 L-4.89018 4.65356 L-5.61622 3.40064 L-6.34225 2.14771 L-7.06829 0.894781 L-7.79432 -0.358146 L-8.52036 -1.61107 L-7.07235 -1.61369 L-5.62434 -1.6163 L-4.17634 -1.61891 L-2.72833 -1.62153 L-1.28032 -1.62414 Z " />
<path stroke="rgb(200,255,200)" stroke-opacity="1" fill="rgb(200,255,200)" fill-opacity="1" id="tri_4_7_" d="M6.31828 5.50269 L7.03265 4.26012 L7.74702 3.01756 L8.46138 1.77499 L9.17575 0.532424 L9.89012 -0.710141 L10.6089 0.529694 L11.3278 1.76953 L12.0466 3.00936 L12.7654 4.2492 L13.4842 5.48904 L12.051 5.49176 L10.6178 5.49449 L9.18466 5.49723 L7.75147 5.49996 L6.31828 5.50269 Z " />
<path stroke="rgb(200,255,200)" stroke-opacity="1" fill="rgb(200,255,200)" fill-opacity="1" id="tri_3_6_" d="M8.67646 -1.63109 L7.95835 -0.382024 L7.24025 0.867043 L6.52214 2.11611 L5.80404 3.36518 L5.08593 4.61424 L4.36379 3.36763 L3.64164 2.12102 L2.91949 0.874407 L2.19734 -0.372204 L1.47519 -1.61882 L2.91545 -1.62127 L4.3557 -1.62373 L5.79595 -1.62618 L7.2362 -1.62863 L8.67646 -1.63109 Z " />
<path stroke="rgb(200,255,200)" stroke-opacity="1" fill="rgb(200,255,200)" fill-opacity="1" id="tri_5_7_" d="M16.3128 5.47418 L17.0236 4.23842 L17.7343 3.00267 L18.4451 1.76692 L19.1559 0.531168 L19.8666 -0.704584 L20.5812 0.529311 L21.2958 1.76321 L22.0105 2.9971 L22.7251 4.231 L23.4397 5.46489 L22.0143 5.46675 L20.5889 5.46861 L19.1636 5.47046 L17.7382 5.47232 L16.3128 5.47418 Z " />
<path stroke="rgb(200,255,200)" stroke-opacity="1" fill="rgb(200,255,200)" fill-opacity="1" id="tri_4_6_" d="M18.6365 -1.63809 L17.922 -0.395809 L17.2074 0.846468 L16.4929 2.08874 L15.7784 3.33102 L15.0639 4.5733 L14.3451 3.33346 L13.6263 2.09363 L12.9074 0.853793 L12.1886 -0.386042 L11.4698 -1.62588 L12.9031 -1.62832 L14.3365 -1.63076 L15.7698 -1.6332 L17.2031 -1.63564 L18.6365 -1.63809 Z " />
<path stroke="rgb(200,255,200)" stroke-opacity="1" fill="rgb(200,255,200)" fill-opacity="1" id="tri_6_6_" d="M26.3056 5.44985 L27.0124 4.22008 L27.7193 2.9903 L28.4261 1.76053 L29.133 0.530761 L29.8398 -0.699011 L30.5511 0.527775 L31.2624 1.75456 L31.9736 2.98135 L32.6849 4.20813 L33.3961 5.43492 L31.978 5.43791 L30.5599 5.44089 L29.1418 5.44388 L27.7237 5.44686 L26.3056 5.44985 Z " />
<path stroke="rgb(200,255,200)" stroke-opacity="1" fill="rgb(200,255,200)" fill-opacity="1" id="tri_5_6_" d="M28.5933 -1.64451 L27.8827 -0.408187 L27.1721 0.828137 L26.4614 2.06446 L25.7508 3.30078 L25.0402 4.53711 L24.3256 3.30321 L23.611 2.06932 L22.8964 0.835424 L22.1817 -0.398472 L21.4671 -1.63237 L22.8924 -1.6348 L24.3176 -1.63723 L25.7428 -1.63965 L27.1681 -1.64208 L28.5933 -1.64451 Z " />
<path stroke="rgb(200,255,200)" stroke-opacity="1" fill="rgb(200,255,200)" fill-opacity="1" id="tri_0_6_" d="M-38.6265 14.2613 L-37.8974 12.9929 L-37.1684 11.7245 L-36.4393 10.4561 L-35.7102 9.18769 L-34.9811 7.91928 L-34.2471 9.18519 L-33.513 10.4511 L-32.7789 11.717 L-32.0449 12.9829 L-31.3108 14.2489 L-32.7739 14.2513 L-34.2371 14.2538 L-35.7002 14.2563 L-37.1634 14.2588 L-38.6265 14.2613 Z " />
<path stroke="rgb(200,255,200)" stroke-opacity="1" fill="rgb(200,255,200)" fill-opacity="1" id="tri_1_5_" d="M-28.6318 14.2342 L-27.9065 12.972 L-27.1813 11.7099 L-26.456 10.4478 L-25.7308 9.18564 L-25.0056 7.92351 L-24.2759 9.18316 L-23.5463 10.4428 L-22.8167 11.7025 L-22.0871 12.9621 L-21.3575 14.2218 L-22.8123 14.2243 L-24.2672 14.2267 L-25.722 14.2292 L-27.1769 14.2317 L-28.6318 14.2342 Z " />
<path stroke="rgb(200,255,200)" stroke-opacity="1" fill="rgb(200,255,200)" fill-opacity="1" id="tri_0_5_" d="M-26.1704 7.03879 L-26.8993 8.30735 L-27.6283 9.5759 L-28.3572 10.8445 L-29.0861 12.113 L-29.8151 13.3816 L-30.5491 12.1157 L-31.2832 10.8497 L-32.0173 9.58382 L-32.7513 8.31791 L-33.4854 7.05199 L-32.0224 7.04935 L-30.5594 7.04671 L-29.0964 7.04407 L-27.6334 7.04143 L-26.1704 7.03879 Z " />
<path stroke="rgb(200,255,200)" stroke-opacity="1" fill="rgb(200,255,200)" fill-opacity="1" id="tri_2_5_" d="M-18.6418 14.2068 L-17.9199 12.9513 L-17.1981 11.6958 L-16.4763 10.4402 L-15.7544 9.18467 L-15.0326 7.92913 L-14.3063 9.18162 L-13.58 10.4341 L-12.8536 11.6866 L-12.1273 12.9391 L-11.401 14.1916 L-12.8491 14.1946 L-14.2973 14.1977 L-15.7454 14.2007 L-17.1936 14.2038 L-18.6418 14.2068 Z " />
<path stroke="rgb(200,255,200)" stroke-opacity="1" fill="rgb(200,255,200)" fill-opacity="1" id="tri_1_4_" d="M-16.2136 7.03259 L-16.9392 8.29458 L-17.6647 9.55657 L-18.3903 10.8186 L-19.1158 12.0805 L-19.8413 13.3425 L-20.5709 12.0829 L-21.3006 10.8232 L-22.0302 9.56357 L-22.7598 8.30392 L-23.4894 7.04426 L-22.0343 7.04193 L-20.5791 7.0396 L-19.124 7.03726 L-17.6688 7.03493 L-16.2136 7.03259 Z " />
<path stroke="rgb(200,255,200)" stroke-opacity="1" fill="rgb(200,255,200)" fill-opacity="1" id="tri_3_5_" d="M-8.64727 14.1767 L-7.92917 12.9282 L-7.21106 11.6798 L-6.49296 10.4313 L-5.77485 9.18278 L-5.05675 7.93429 L-4.33417 9.1809 L-3.61159 10.4275 L-2.88901 11.6741 L-2.16643 12.9207 L-1.44385 14.1673 L-2.88453 14.1692 L-4.32522 14.1711 L-5.7659 14.173 L-7.20659 14.1749 L-8.64727 14.1767 Z " />
<path stroke="rgb(200,255,200)" stroke-opacity="1" fill="rgb(200,255,200)" fill-opacity="1" id="tri_2_4_" d="M-6.25432 7.02543 L-6.97615 8.28039 L-7.69797 9.53535 L-8.4198 10.7903 L-9.14162 12.0453 L-9.86345 13.3002 L-10.5898 12.0477 L-11.3161 10.7952 L-12.0424 9.54275 L-12.7688 8.29026 L-13.4951 7.03777 L-12.0469 7.0353 L-10.5988 7.03283 L-9.15062 7.03037 L-7.70247 7.0279 L-6.25432 7.02543 Z " />
<path stroke="rgb(200,255,200)" stroke-opacity="1" fill="rgb(200,255,200)" fill-opacity="1" id="tri_4_5_" d="M1.34684 14.1528 L2.06092 12.9102 L2.775 11.6676 L3.48908 10.4251 L4.20316 9.18251 L4.91724 7.93995 L5.63592 9.17993 L6.35459 10.4199 L7.07327 11.6599 L7.79195 12.8999 L8.51062 14.1398 L7.07787 14.1424 L5.64511 14.145 L4.21235 14.1476 L2.7796 14.1502 L1.34684 14.1528 Z " />
<path stroke="rgb(200,255,200)" stroke-opacity="1" fill="rgb(200,255,200)" fill-opacity="1" id="tri_3_4_" d="M3.70354 7.01891 L2.98573 8.26798 L2.26791 9.51704 L1.5501 10.7661 L0.832279 12.0152 L0.114464 13.2642 L-0.608117 12.0176 L-1.3307 10.771 L-2.05328 9.52441 L-2.77586 8.2778 L-3.49844 7.03119 L-2.05804 7.02873 L-0.617647 7.02628 L0.82275 7.02382 L2.26315 7.02137 L3.70354 7.01891 Z " />
<path stroke="rgb(200,255,200)" stroke-opacity="1" fill="rgb(200,255,200)" fill-opacity="1" id="tri_5_5_" d="M11.339 14.1246 L12.0498 12.8885 L12.7605 11.6523 L13.4713 10.4161 L14.182 9.17991 L14.8928 7.94373 L15.6077 9.17763 L16.3226 10.4115 L17.0375 11.6454 L17.7524 12.8793 L18.4673 14.1132 L17.0416 14.1155 L15.616 14.1178 L14.1903 14.1201 L12.7647 14.1224 L11.339 14.1246 Z " />
<path stroke="rgb(200,255,200)" stroke-opacity="1" fill="rgb(200,255,200)" fill-opacity="1" id="tri_4_4_" d="M13.6625 7.01035 L12.948 8.25306 L12.2335 9.49577 L11.519 10.7385 L10.8045 11.9812 L10.09 13.2239 L9.37132 11.9839 L8.65264 10.7439 L7.93397 9.50396 L7.21529 8.26398 L6.49661 7.024 L7.9298 7.02127 L9.36299 7.01854 L10.7962 7.01581 L12.2294 7.01308 L13.6625 7.01035 Z " />
<path stroke="rgb(200,255,200)" stroke-opacity="1" fill="rgb(200,255,200)" fill-opacity="1" id="tri_6_5_" d="M21.3335 14.0984 L22.0402 12.8692 L22.7469 11.64 L23.4536 10.4108 L24.1603 9.18158 L24.867 7.95237 L25.5784 9.17888 L26.2898 10.4054 L27.0012 11.6319 L27.7126 12.8584 L28.424 14.0849 L27.0059 14.0876 L25.5878 14.0903 L24.1697 14.093 L22.7516 14.0957 L21.3335 14.0984 Z " />
<path stroke="rgb(200,255,200)" stroke-opacity="1" fill="rgb(200,255,200)" fill-opacity="1" id="tri_5_4_" d="M23.6203 7.00677 L22.9098 8.24253 L22.1993 9.47828 L21.4889 10.714 L20.7784 11.9498 L20.0679 13.1855 L19.353 11.9516 L18.6381 10.7177 L17.9232 9.48385 L17.2083 8.24995 L16.4934 7.01606 L17.9188 7.0142 L19.3442 7.01234 L20.7695 7.01049 L22.1949 7.00863 L23.6203 7.00677 Z " />
<path stroke="rgb(200,255,200)" stroke-opacity="1" fill="rgb(200,255,200)" fill-opacity="1" id="tri_7_4_" d="M31.3277 14.0691 L32.0307 12.8462 L32.7336 11.6233 L33.4366 10.4003 L34.1395 9.17736 L34.8425 7.95442 L35.5494 9.17496 L36.2563 10.3955 L36.9632 11.616 L37.6701 12.8366 L38.377 14.0571 L36.9671 14.0595 L35.5573 14.0619 L34.1474 14.0643 L32.7376 14.0667 L31.3277 14.0691 Z " />
<path stroke="rgb(200,255,200)" stroke-opacity="1" fill="rgb(200,255,200)" fill-opacity="1" id="tri_6_4_" d="M33.5794 6.99692 L32.8727 8.22641 L32.166 9.4559 L31.4593 10.6854 L30.7526 11.9149 L30.0459 13.1444 L29.3345 11.9179 L28.6231 10.6914 L27.9117 9.46486 L27.2003 8.23835 L26.4889 7.01185 L27.907 7.00887 L29.3251 7.00588 L30.7432 7.0029 L32.1613 6.99991 L33.5794 6.99692 Z " />
<path stroke="rgb(200,255,200)" stroke-opacity="1" fill="rgb(200,255,200)" fill-opacity="1" id="tri_0_4_" d="M-43.6004 22.9112 L-42.8711 21.6427 L-42.1417 20.3743 L-41.4123 19.1059 L-40.6829 17.8375 L-39.9536 16.5691 L-39.2199 17.8347 L-38.4863 19.1004 L-37.7527 20.366 L-37.0191 21.6316 L-36.2854 22.8972 L-37.7484 22.9 L-39.2114 22.9028 L-40.6744 22.9056 L-42.1374 22.9084 L-43.6004 22.9112 Z " />
<path stroke="rgb(200,255,200)" stroke-opacity="1" fill="rgb(200,255,200)" fill-opacity="1" id="tri_1_3_" d="M-33.6063 22.8824 L-32.8804 21.6207 L-32.1546 20.359 L-31.4288 19.0973 L-30.703 17.8356 L-29.9771 16.574 L-29.2478 17.8332 L-28.5185 19.0924 L-27.7891 20.3516 L-27.0598 21.6108 L-26.3305 22.87 L-27.7856 22.8725 L-29.2408 22.875 L-30.696 22.8775 L-32.1511 22.88 L-33.6063 22.8824 Z " />
<path stroke="rgb(200,255,200)" stroke-opacity="1" fill="rgb(200,255,200)" fill-opacity="1" id="tri_0_3_" d="M-31.1418 15.6895 L-31.8713 16.9576 L-32.6009 18.2257 L-33.3304 19.4938 L-34.0599 20.7619 L-34.7894 22.03 L-35.523 20.7644 L-36.2567 19.4988 L-36.9903 18.2332 L-37.7239 16.9675 L-38.4575 15.7019 L-36.9944 15.6994 L-35.5312 15.6969 L-34.0681 15.6944 L-32.605 15.692 L-31.1418 15.6895 Z " />
<path stroke="rgb(200,255,200)" stroke-opacity="1" fill="rgb(200,255,200)" fill-opacity="1" id="tri_2_3_" d="M-23.6148 22.8553 L-22.8929 21.6001 L-22.1711 20.3448 L-21.4493 19.0896 L-20.7274 17.8343 L-20.0056 16.5791 L-19.2793 17.8319 L-18.553 19.0847 L-17.8266 20.3374 L-17.1003 21.5902 L-16.374 22.843 L-17.8221 22.8455 L-19.2703 22.8479 L-20.7185 22.8504 L-22.1666 22.8529 L-23.6148 22.8553 Z " />
<path stroke="rgb(200,255,200)" stroke-opacity="1" fill="rgb(200,255,200)" fill-opacity="1" id="tri_1_2_" d="M-21.1865 15.6825 L-21.912 16.9442 L-22.6376 18.2059 L-23.3631 19.4676 L-24.0886 20.7293 L-24.8142 21.991 L-25.5435 20.7318 L-26.2728 19.4726 L-27.0021 18.2133 L-27.7315 16.9541 L-28.4608 15.6949 L-27.0059 15.6924 L-25.5511 15.6899 L-24.0962 15.6875 L-22.6413 15.685 L-21.1865 15.6825 Z " />
<path stroke="rgb(200,255,200)" stroke-opacity="1" fill="rgb(200,255,200)" fill-opacity="1" id="tri_3_3_" d="M-13.6204 22.828 L-12.9023 21.5787 L-12.1842 20.3293 L-11.4661 19.08 L-10.748 17.8306 L-10.0299 16.5813 L-9.30763 17.8285 L-8.58534 19.0756 L-7.86305 20.3228 L-7.14076 21.57 L-6.41846 22.8172 L-7.85886 22.8194 L-9.29926 22.8215 L-10.7397 22.8237 L-12.18 22.8259 L-13.6204 22.828 Z " />
<path stroke="rgb(200,255,200)" stroke-opacity="1" fill="rgb(200,255,200)" fill-opacity="1" id="tri_2_2_" d="M-11.2273 15.6723 L-11.9491 16.9281 L-12.671 18.184 L-13.3928 19.4398 L-14.1146 20.6956 L-14.8365 21.9514 L-15.5628 20.6987 L-16.2891 19.4459 L-17.0154 18.1931 L-17.7418 16.9403 L-18.4681 15.6875 L-17.0199 15.6845 L-15.5718 15.6814 L-14.1236 15.6784 L-12.6755 15.6753 L-11.2273 15.6723 Z " />
<path stroke="rgb(200,255,200)" stroke-opacity="1" fill="rgb(200,255,200)" fill-opacity="1" id="tri_4_3_" d="M-3.62754 22.8025 L-2.91289 21.5599 L-2.19823 20.3174 L-1.48358 19.0748 L-0.768925 17.8322 L-0.0542705 16.5897 L0.664263 17.8292 L1.3828 19.0688 L2.10133 20.3083 L2.81986 21.5479 L3.53839 22.7874 L2.10521 22.7904 L0.672019 22.7935 L-0.761167 22.7965 L-2.19435 22.7995 L-3.62754 22.8025 Z " />
<path stroke="rgb(200,255,200)" stroke-opacity="1" fill="rgb(200,255,200)" fill-opacity="1" id="tri_3_2_" d="M-1.26798 15.6686 L-1.98637 16.9176 L-2.70476 18.1667 L-3.42316 19.4158 L-4.14155 20.6648 L-4.85994 21.9139 L-5.58224 20.6667 L-6.30453 19.4195 L-7.02682 18.1723 L-7.74911 16.9251 L-8.4714 15.678 L-7.03072 15.6761 L-5.59003 15.6742 L-4.14935 15.6723 L-2.70866 15.6704 L-1.26798 15.6686 Z " />
<path stroke="rgb(200,255,200)" stroke-opacity="1" fill="rgb(200,255,200)" fill-opacity="1" id="tri_5_3_" d="M6.36655 22.7721 L7.07702 21.5365 L7.78749 20.3009 L8.49796 19.0653 L9.20844 17.8296 L9.91891 16.594 L10.6337 17.8275 L11.3484 19.061 L12.0632 20.2944 L12.7779 21.5279 L13.4927 22.7614 L12.0675 22.7635 L10.6422 22.7657 L9.21701 22.7678 L7.79178 22.7699 L6.36655 22.7721 Z " />
<path stroke="rgb(200,255,200)" stroke-opacity="1" fill="rgb(200,255,200)" fill-opacity="1" id="tri_4_2_" d="M8.68899 15.6609 L7.97477 16.903 L7.26054 18.1452 L6.54632 19.3873 L5.8321 20.6294 L5.11787 21.8716 L4.39934 20.632 L3.68081 19.3925 L2.96227 18.1529 L2.24374 16.9134 L1.52521 15.6738 L2.95797 15.6713 L4.39072 15.6687 L5.82348 15.6661 L7.25623 15.6635 L8.68899 15.6609 Z " />
<path stroke="rgb(200,255,200)" stroke-opacity="1" fill="rgb(200,255,200)" fill-opacity="1" id="tri_6_3_" d="M16.3588 22.7465 L17.0659 21.5173 L17.773 20.2881 L18.4802 19.0589 L19.1873 17.8297 L19.8944 16.6005 L20.6054 17.8271 L21.3164 19.0537 L22.0274 20.2804 L22.7383 21.507 L23.4493 22.7337 L22.0312 22.7362 L20.6131 22.7388 L19.195 22.7414 L17.7769 22.7439 L16.3588 22.7465 Z " />
<path stroke="rgb(200,255,200)" stroke-opacity="1" fill="rgb(200,255,200)" fill-opacity="1" id="tri_5_2_" d="M18.6478 15.655 L17.9369 16.8908 L17.226 18.1265 L16.5151 19.3623 L15.8042 20.598 L15.0933 21.8338 L14.3786 20.6003 L13.6638 19.3669 L12.9491 18.1334 L12.2343 16.8999 L11.5195 15.6665 L12.9452 15.6642 L14.3709 15.6619 L15.7965 15.6596 L17.2222 15.6573 L18.6478 15.655 Z " />
<path stroke="rgb(200,255,200)" stroke-opacity="1" fill="rgb(200,255,200)" fill-opacity="1" id="tri_7_3_" d="M26.3532 22.7181 L27.0565 21.4953 L27.7599 20.2725 L28.4633 19.0497 L29.1667 17.8269 L29.87 16.6041 L30.5768 17.8244 L31.2836 19.0446 L31.9903 20.2649 L32.6971 21.4852 L33.4038 22.7054 L31.9937 22.708 L30.5836 22.7105 L29.1734 22.7131 L27.7633 22.7156 L26.3532 22.7181 Z " />
<path stroke="rgb(200,255,200)" stroke-opacity="1" fill="rgb(200,255,200)" fill-opacity="1" id="tri_6_2_" d="M28.6072 15.6467 L27.9 16.876 L27.1929 18.1053 L26.4857 19.3347 L25.7786 20.564 L25.0715 21.7934 L24.3605 20.5667 L23.6495 19.3401 L22.9386 18.1134 L22.2276 16.8868 L21.5166 15.6602 L22.9347 15.6575 L24.3528 15.6548 L25.7709 15.6521 L27.189 15.6494 L28.6072 15.6467 Z " />
<path stroke="rgb(200,255,200)" stroke-opacity="1" fill="rgb(200,255,200)" fill-opacity="1" id="tri_8_2_" d="M36.3446 22.6904 L37.044 21.4741 L37.7434 20.2579 L38.4428 19.0417 L39.1422 17.8254 L39.8416 16.6092 L40.5453 17.8232 L41.2491 19.0372 L41.9528 20.2511 L42.6566 21.4651 L43.3603 22.6791 L41.9572 22.6814 L40.5541 22.6836 L39.1509 22.6859 L37.7478 22.6881 L36.3446 22.6904 Z " />
<path stroke="rgb(200,255,200)" stroke-opacity="1" fill="rgb(200,255,200)" fill-opacity="1" id="tri_7_2_" d="M38.5621 15.6396 L37.859 16.8623 L37.1559 18.085 L36.4529 19.3076 L35.7498 20.5303 L35.0467 21.7529 L34.3399 20.5327 L33.6332 19.3124 L32.9264 18.0922 L32.2196 16.8719 L31.5129 15.6516 L32.9227 15.6492 L34.3326 15.6468 L35.7424 15.6444 L37.1523 15.642 L38.5621 15.6396 Z " />
<path stroke="rgb(200,255,200)" stroke-opacity="1" fill="rgb(200,255,200)" fill-opacity="1" id="tri_0_2_" d="M-48.5726 31.5595 L-47.8435 30.2914 L-47.1144 29.0233 L-46.3854 27.7551 L-45.6563 26.487 L-44.9272 25.2189 L-44.1933 26.4845 L-43.4594 27.7502 L-42.7254 29.0158 L-41.9915 30.2814 L-41.2576 31.547 L-42.7206 31.5495 L-44.1836 31.552 L-45.6466 31.5545 L-47.1096 31.557 L-48.5726 31.5595 Z " />
<path stroke="rgb(200,255,200)" stroke-opacity="1" fill="rgb(200,255,200)" fill-opacity="1" id="tri_1_1_" d="M-38.5783 31.5321 L-37.853 30.2701 L-37.1276 29.0081 L-36.4022 27.7461 L-35.6768 26.4841 L-34.9514 25.2222 L-34.2213 26.4814 L-33.4913 27.7406 L-32.7612 28.9998 L-32.0312 30.259 L-31.3011 31.5182 L-32.7566 31.521 L-34.212 31.5238 L-35.6675 31.5266 L-37.1229 31.5293 L-38.5783 31.5321 Z " />
<path stroke="rgb(200,255,200)" stroke-opacity="1" fill="rgb(200,255,200)" fill-opacity="1" id="tri_0_1_" d="M-36.1165 24.3378 L-36.8456 25.6062 L-37.5746 26.8746 L-38.3037 28.143 L-39.0328 29.4114 L-39.7619 30.6798 L-40.4958 29.4142 L-41.2297 28.1486 L-41.9636 26.883 L-42.6975 25.6174 L-43.4315 24.3517 L-41.9685 24.3489 L-40.5055 24.3462 L-39.0425 24.3434 L-37.5795 24.3406 L-36.1165 24.3378 Z " />
<path stroke="rgb(200,255,200)" stroke-opacity="1" fill="rgb(200,255,200)" fill-opacity="1" id="tri_2_1_" d="M-28.5851 31.5036 L-27.8637 30.2484 L-27.1423 28.9931 L-26.4209 27.7379 L-25.6995 26.4826 L-24.9781 25.2273 L-24.2515 26.4806 L-23.5249 27.7338 L-22.7983 28.987 L-22.0717 30.2402 L-21.3451 31.4934 L-22.7931 31.4955 L-24.2411 31.4975 L-25.6891 31.4995 L-27.1371 31.5016 L-28.5851 31.5036 Z " />
<path stroke="rgb(200,255,200)" stroke-opacity="1" fill="rgb(200,255,200)" fill-opacity="1" id="tri_1" d="M-26.1594 24.3305 L-26.8845 25.5922 L-27.6096 26.8539 L-28.3347 28.1156 L-29.0598 29.3773 L-29.7849 30.639 L-30.5149 29.3798 L-31.245 28.1206 L-31.9751 26.8613 L-32.7051 25.6021 L-33.4352 24.3429 L-31.98 24.3404 L-30.5249 24.3379 L-29.0697 24.3355 L-27.6146 24.333 L-26.1594 24.3305 Z " />
<path stroke="rgb(200,255,200)" stroke-opacity="1" fill="rgb(200,255,200)" fill-opacity="1" id="tri_3_1_" d="M-18.5917 31.4789 L-17.8739 30.2297 L-17.1561 28.9804 L-16.4383 27.7312 L-15.7204 26.482 L-15.0026 25.2328 L-14.2802 26.4794 L-13.5578 27.726 L-12.8353 28.9726 L-12.1129 30.2193 L-11.3904 31.4659 L-12.8307 31.4685 L-14.271 31.4711 L-15.7112 31.4737 L-17.1515 31.4763 L-18.5917 31.4789 Z " />
<path stroke="rgb(200,255,200)" stroke-opacity="1" fill="rgb(200,255,200)" fill-opacity="1" id="tri_2" d="M-16.2001 24.3239 L-16.9217 25.5795 L-17.6432 26.8352 L-18.3648 28.0909 L-19.0863 29.3466 L-19.8078 30.6023 L-20.5344 29.3491 L-21.2611 28.0958 L-21.9877 26.8426 L-22.7143 25.5894 L-23.4409 24.3362 L-21.9928 24.3337 L-20.5446 24.3313 L-19.0965 24.3288 L-17.6483 24.3263 L-16.2001 24.3239 Z " />
<path stroke="rgb(200,255,200)" stroke-opacity="1" fill="rgb(200,255,200)" fill-opacity="1" id="tri_4_1_" d="M-8.59998 31.4509 L-7.88576 30.2086 L-7.17153 28.9663 L-6.45731 27.724 L-5.74309 26.4818 L-5.02886 25.2395 L-4.31019 26.479 L-3.59151 27.7186 L-2.87283 28.9581 L-2.15416 30.1977 L-1.43548 31.4372 L-2.86838 31.4399 L-4.30128 31.4427 L-5.73418 31.4454 L-7.16708 31.4481 L-8.59998 31.4509 Z " />
<path stroke="rgb(200,255,200)" stroke-opacity="1" fill="rgb(200,255,200)" fill-opacity="1" id="tri_3" d="M-6.24254 24.3186 L-6.9605 25.5673 L-7.67846 26.8161 L-8.39642 28.0649 L-9.11438 29.3137 L-9.83234 30.5625 L-10.5548 29.3158 L-11.2772 28.0692 L-11.9997 26.8226 L-12.7221 25.576 L-13.4445 24.3294 L-12.0041 24.3272 L-10.5637 24.3251 L-9.12334 24.3229 L-7.68294 24.3207 L-6.24254 24.3186 Z " />
<path stroke="rgb(200,255,200)" stroke-opacity="1" fill="rgb(200,255,200)" fill-opacity="1" id="tri_5_1_" d="M1.39291 31.4217 L2.10366 30.1857 L2.81442 28.9497 L3.52518 27.7136 L4.23594 26.4776 L4.94669 25.2415 L5.66145 26.4753 L6.37621 27.709 L7.09097 28.9428 L7.80573 30.1765 L8.52049 31.4103 L7.09498 31.4126 L5.66946 31.4149 L4.24394 31.4172 L2.81842 31.4194 L1.39291 31.4217 Z " />
<path stroke="rgb(200,255,200)" stroke-opacity="1" fill="rgb(200,255,200)" fill-opacity="1" id="tri_4" d="M3.71655 24.3084 L3.00204 25.551 L2.28753 26.7936 L1.57302 28.0361 L0.858507 29.2787 L0.143997 30.5213 L-0.574679 29.2817 L-1.29336 28.0422 L-2.01203 26.8026 L-2.73071 25.5631 L-3.44938 24.3235 L-2.0162 24.3205 L-0.583011 24.3175 L0.850176 24.3145 L2.28336 24.3115 L3.71655 24.3084 Z " />
<path stroke="rgb(200,255,200)" stroke-opacity="1" fill="rgb(200,255,200)" fill-opacity="1" id="tri_6_1_" d="M11.3866 31.3954 L12.0933 30.166 L12.8 28.9367 L13.5067 27.7074 L14.2134 26.478 L14.9201 25.2487 L15.6317 26.4754 L16.3432 27.7022 L17.0547 28.929 L17.7663 30.1558 L18.4778 31.3826 L17.0596 31.3852 L15.6413 31.3877 L14.2231 31.3903 L12.8048 31.3928 L11.3866 31.3954 Z " />
<path stroke="rgb(200,255,200)" stroke-opacity="1" fill="rgb(200,255,200)" fill-opacity="1" id="tri_5" d="M13.6734 24.303 L12.9629 25.5389 L12.2524 26.7748 L11.542 28.0107 L10.8315 29.2466 L10.121 30.4825 L9.40625 29.2488 L8.6915 28.015 L7.97674 26.7813 L7.26198 25.5475 L6.54722 24.3138 L7.97245 24.3116 L9.39768 24.3095 L10.8229 24.3073 L12.2481 24.3052 L13.6734 24.303 Z " />
<path stroke="rgb(200,255,200)" stroke-opacity="1" fill="rgb(200,255,200)" fill-opacity="1" id="tri_7_1_" d="M21.3817 31.3673 L22.0845 30.1445 L22.7873 28.9217 L23.4901 27.6989 L24.1929 26.4761 L24.8957 25.2533 L25.6029 26.4739 L26.3101 27.6944 L27.0173 28.9149 L27.7245 30.1355 L28.4317 31.356 L27.0217 31.3583 L25.6117 31.3605 L24.2017 31.3628 L22.7917 31.3651 L21.3817 31.3673 Z " />
<path stroke="rgb(200,255,200)" stroke-opacity="1" fill="rgb(200,255,200)" fill-opacity="1" id="tri_6" d="M23.6325 24.2956 L22.9259 25.5249 L22.2194 26.7542 L21.5128 27.9836 L20.8063 29.2129 L20.0997 30.4423 L19.3881 29.2155 L18.6766 27.9887 L17.9651 26.7619 L17.2535 25.5351 L16.542 24.3084 L17.9601 24.3058 L19.3782 24.3032 L20.7963 24.3007 L22.2144 24.2981 L23.6325 24.2956 Z " />
<path stroke="rgb(200,255,200)" stroke-opacity="1" fill="rgb(200,255,200)" fill-opacity="1" id="tri_8_1_" d="M31.3725 31.3409 L32.0718 30.1242 L32.771 28.9076 L33.4703 27.6909 L34.1695 26.4743 L34.8688 25.2576 L35.5727 26.4717 L36.2766 27.6859 L36.9805 28.9 L37.6844 30.1141 L38.3882 31.3282 L36.9851 31.3308 L35.582 31.3333 L34.1788 31.3358 L32.7757 31.3384 L31.3725 31.3409 Z " />
<path stroke="rgb(200,255,200)" stroke-opacity="1" fill="rgb(200,255,200)" fill-opacity="1" id="tri_7" d="M33.589 24.288 L32.8861 25.5111 L32.1831 26.7342 L31.4802 27.9573 L30.7772 29.1803 L30.0743 30.4034 L29.3671 29.1829 L28.6599 27.9623 L27.9527 26.7418 L27.2455 25.5213 L26.5384 24.3007 L27.9485 24.2982 L29.3586 24.2956 L30.7688 24.2931 L32.1789 24.2905 L33.589 24.288 Z " />
<path stroke="rgb(200,255,200)" stroke-opacity="1" fill="rgb(200,255,200)" fill-opacity="1" id="tri_9" d="M41.3664 31.3131 L42.062 30.103 L42.7576 28.893 L43.4533 27.6829 L44.1489 26.4728 L44.8445 25.2628 L45.5445 26.4702 L46.2444 27.6776 L46.9444 28.885 L47.6443 30.0924 L48.3443 31.2998 L46.9487 31.3025 L45.5531 31.3051 L44.1576 31.3078 L42.762 31.3104 L41.3664 31.3131 Z " />
<path stroke="rgb(200,255,200)" stroke-opacity="1" fill="rgb(200,255,200)" fill-opacity="1" id="tri_8" d="M43.5484 24.2817 L42.8491 25.4981 L42.1499 26.7144 L41.4506 27.9308 L40.7514 29.1472 L40.0521 30.3636 L39.3482 29.1494 L38.6444 27.9353 L37.9405 26.7212 L37.2366 25.5071 L36.5327 24.2929 L37.9358 24.2907 L39.339 24.2884 L40.7421 24.2862 L42.1452 24.2839 L43.5484 24.2817 Z " />
</g>
</g>
</svg>
