<!DOCTYPE svg>
<svg xmlns="http://www.w3.org/2000/svg" xmlns:xlink="http://www.w3.org/1999/xlink" width="600" height="600">
<g transform="translate(300.000000,300.000000)">
<g transform="scale(3.000000,3.000000)">
<path stroke="rgb(0,0,0)" stroke-opacity="1" fill="rgb(255,255,255)" fill-opacity="1" id="Layer_1" d="M107.411 107.089 L105.406 107.092 L103.402 107.095 L101.397 107.098 L99.3922 107.101 L97.3875 107.104 L95.3828 107.107 L93.3782 107.11 L91.3735 107.113 L89.3688 107.116 L87.3641 107.119 L85.3595 107.122 L83.3548 107.125 L81.3501 107.128 L79.3455 107.131 L77.3408 107.134 L75.3361 107.137 L73.3314 107.14 L71.3268 107.143 L69.3221 107.146 L67.3174 107.149 L65.3127 107.152 L63.3081 107.155 L61.3034 107.158 L59.2987 107.161 L57.2941 107.164 L55.2894 107.167 L53.2847 107.17 L51.28 107.173 L49.2754 107.176 L47.2707 107.179 L45.266 107.182 L43.2613 107.185 L41.2567 107.188 L39.252 107.191 L37.2473 107.194 L35.2426 107.197 L33.238 107.2 L31.2333 107.203 L29.2286 107.206 L27.224 107.209 L25.2193 107.212 L23.2146 107.215 L21.2099 107.218 L19.2053 107.221 L17.2006 107.224 L15.1959 107.227 L13.1912 107.23 L11.1866 107.233 L9.1819 107.236 L7.17723 107.239 L5.17256 107.242 L3.16788 107.245 L1.16321 107.248 L-0.841463 107.252 L-2.84614 107.255 L-4.85081 107.258 L-6.85548 107.261 L-8.86015 107.264 L-10.8648 107.267 L-12.8695 107.27 L-14.8742 107.273 L-16.8788 107.276 L-18.8835 107.279 L-20.8882 107.282 L-22.8929 107.285 L-24.8975 107.288 L-26.9022 107.291 L-28.9069 107.294 L-30.9116 107.297 L-32.9162 107.3 L-34.9209 107.303 L-36.9256 107.306 L-38.9302 107.309 L-40.9349 107.312 L-42.9396 107.315 L-44.9443 107.318 L-46.9489 107.321 L-48.9536 107.324 L-50.9583 107.327 L-52.963 107.33 L-54.9676 107.333 L-56.9723 107.336 L-58.977 107.339 L-60.9816 107.342 L-62.9863 107.345 L-64.991 107.348 L-66.9957 107.351 L-69.0003 107.354 L-71.005 107.357 L-73.0097 107.36 L-75.0144 107.363 L-77.019 107.366 L-79.0237 107.369 L-81.0284 107.372 L-83.0331 107.375 L-85.0377 107.378 L-87.0424 107.381 L-89.0471 107.384 L-91.0517 107.387 L-93.0564 107.39 L-95.0611 107.393 L-97.0658 107.396 L-99.0704 107.399 L-101.075 107.402 L-103.08 107.405 L-105.084 107.408 L-107.089 107.411 L-107.092 105.406 L-107.095 103.402 L-107.098 101.397 L-107.101 99.3922 L-107.104 97.3875 L-107.107 95.3828 L-107.11 93.3782 L-107.113 91.3735 L-107.116 89.3688 L-107.119 87.3641 L-107.122 85.3595 L-107.125 83.3548 L-107.128 81.3501 L-107.131 79.3455 L-107.134 77.3408 L-107.137 75.3361 L-107.14 73.3314 L-107.143 71.3268 L-107.146 69.3221 L-107.149 67.3174 L-107.152 65.3127 L-107.155 63.3081 L-107.158 61.3034 L-107.161 59.2987 L-107.164 57.2941 L-107.167 55.2894 L-107.17 53.2847 L-107.173 51.28 L-107.176 49.2754 L-107.179 47.2707 L-107.182 45.266 L-107.185 43.2613 L-107.188 41.2567 L-107.191 39.252 L-107.194 37.2473 L-107.197 35.2426 L-107.2 33.238 L-107.203 31.2333 L-107.206 29.2286 L-107.209 27.224 L-107.212 25.2193 L-107.215 23.2146 L-107.218 21.2099 L-107.221 19.2053 L-107.224 17.2006 L-107.227 15.1959 L-107.23 13.1912 L-107.233 11.1866 L-107.236 9.1819 L-107.239 7.17722 L-107.242 5.17255 L-107.245 3.16788 L-107.248 1.1632 L-107.251 -0.841469 L-107.255 -2.84614 L-107.258 -4.85081 L-107.261 -6.85549 L-107.264 -8.86016 L-107.267 -10.8648 L-107.27 -12.8695 L-107.273 -14.8742 L-107.276 -16.8789 L-107.279 -18.8835 L-107.282 -20.8882 L-107.285 -22.8929 L-107.288 -24.8975 L-107.291 -26.9022 L-107.294 -28.9069 L-107.297 -30.9116 L-107.3 -32.9162 L-107.303 -34.9209 L-107.306 -36.9256 L-107.309 -38.9303 L-107.312 -40.9349 L-107.315 -42.9396 L-107.318 -44.9443 L-107.321 -46.9489 L-107.324 -48.9536 L-107.327 -50.9583 L-107.33 -52.963 L-107.333 -54.9676 L-107.336 -56.9723 L-107.339 -58.977 L-107.342 -60.9817 L-107.345 -62.9863 L-107.348 -64.991 L-107.351 -66.9957 L-107.354 -69.0003 L-107.357 -71.005 L-107.36 -73.0097 L-107.363 -75.0144 L-107.366 -77.019 L-107.369 -79.0237 L-107.372 -81.0284 L-107.375 -83.0331 L-107.378 -85.0377 L-107.381 -87.0424 L-107.384 -89.0471 L-107.387 -91.0518 L-107.39 -93.0564 L-107.393 -95.0611 L-107.396 -97.0658 L-107.399 -99.0704 L-107.402 -101.075 L-107.405 -103.08 L-107.408 -105.084 L-107.411 -107.089 L-105.406 -107.092 L-103.402 -107.095 L-101.397 -107.098 L-99.3922 -107.101 L-97.3875 -107.104 L-95.3828 -107.107 L-93.3782 -107.11 L-91.3735 -107.113 L-89.3688 -107.116 L-87.3641 -107.119 L-85.3595 -107.122 L-83.3548 -107.125 L-81.3501 -107.128 L-79.3455 -107.131 L-77.3408 -107.134 L-75.3361 -107.137 L-73.3314 -107.14 L-71.3268 -107.143 L-69.3221 -107.146 L-67.3174 -107.149 L-65.3127 -107.152 L-63.3081 -107.155 L-61.3034 -107.158 L-59.2987 -107.161 L-57.2941 -107.164 L-55.2894 -107.167 L-53.2847 -107.17 L-51.28 -107.173 L-49.2754 -107.176 L-47.2707 -107.179 L-45.266 -107.182 L-43.2613 -107.185 L-41.2567 -107.188 L-39.252 -107.191 L-37.2473 -107.194 L-35.2426 -107.197 L-33.238 -107.2 L-31.2333 -107.203 L-29.2286 -107.206 L-27.224 -107.209 L-25.2193 -107.212 L-23.2146 -107.215 L-21.2099 -107.218 L-19.2053 -107.221 L-17.2006 -107.224 L-15.1959 -107.227 L-13.1912 -107.23 L-11.1866 -107.233 L-9.1819 -107.236 L-7.17723 -107.239 L-5.17256 -107.242 L-3.16788 -107.245 L-1.16321 -107.248 L0.841463 -107.252 L2.84614 -107.255 L4.85081 -107.258 L6.85548 -107.261 L8.86015 -107.264 L10.8648 -107.267 L12.8695 -107.27 L14.8742 -107.273 L16.8788 -107.276 L18.8835 -107.279 L20.8882 -107.282 L22.8929 -107.285 L24.8975 -107.288 L26.9022 -107.291 L28.9069 -107.294 L30.9116 -107.297 L32.9162 -107.3 L34.9209 -107.303 L36.9256 -107.306 L38.9302 -107.309 L40.9349 -107.312 L42.9396 -107.315 L44.9443 -107.318 L46.9489 -107.321 L48.9536 -107.324 L50.9583 -107.327 L52.963 -107.33 L54.9676 -107.333 L56.9723 -107.336 L58.977 -107.339 L60.9816 -107.342 L62.9863 -107.345 L64.991 -107.348 L66.9957 -107.351 L69.0003 -107.354 L71.005 -107.357 L73.0097 -107.36 L75.0144 -107.363 L77.019 -107.366 L79.0237 -107.369 L81.0284 -107.372 L83.0331 -107.375 L85.0377 -107.378 L87.0424 -107.381 L89.0471 -107.384 L91.0517 -107.387 L93.0564 -107.39 L95.0611 -107.393 L97.0658 -107.396 L99.0704 -107.399 L101.075 -107.402 L103.08 -107.405 L105.084 -107.408 L107.089 -107.411 L107.092 -105.406 L107.095 -103.402 L107.098 -101.397 L107.101 -99.3922 L107.104 -97.3875 L107.107 -95.3828 L107.11 -93.3782 L107.113 -91.3735 L107.116 -89.3688 L107.119 -87.3642 L107.122 -85.3595 L107.125 -83.3548 L107.128 -81.3501 L107.131 -79.3455 L107.134 -77.3408 L107.137 -75.3361 L107.14 -73.3314 L107.143 -71.3268 L107.146 -69.3221 L107.149 -67.3174 L107.152 -65.3128 L107.155 -63.3081 L107.158 -61.3034 L107.161 -59.2987 L107.164 -57.2941 L107.167 -55.2894 L107.17 -53.2847 L107.173 -51.28 L107.176 -49.2754 L107.179 -47.2707 L107.182 -45.266 L107.185 -43.2613 L107.188 -41.2567 L107.191 -39.252 L107.194 -37.2473 L107.197 -35.2427 L107.2 -33.238 L107.203 -31.2333 L107.206 -29.2286 L107.209 -27.224 L107.212 -25.2193 L107.215 -23.2146 L107.218 -21.2099 L107.221 -19.2053 L107.224 -17.2006 L107.227 -15.1959 L107.23 -13.1913 L107.233 -11.1866 L107.236 -9.18191 L107.239 -7.17724 L107.242 -5.17256 L107.245 -3.16789 L107.248 -1.16322 L107.251 0.841455 L107.255 2.84613 L107.258 4.8508 L107.261 6.85547 L107.264 8.86015 L107.267 10.8648 L107.27 12.8695 L107.273 14.8742 L107.276 16.8788 L107.279 18.8835 L107.282 20.8882 L107.285 22.8929 L107.288 24.8975 L107.291 26.9022 L107.294 28.9069 L107.297 30.9115 L107.3 32.9162 L107.303 34.9209 L107.306 36.9256 L107.309 38.9302 L107.312 40.9349 L107.315 42.9396 L107.318 44.9443 L107.321 46.9489 L107.324 48.9536 L107.327 50.9583 L107.33 52.963 L107.333 54.9676 L107.336 56.9723 L107.339 58.977 L107.342 60.9816 L107.345 62.9863 L107.348 64.991 L107.351 66.9957 L107.354 69.0003 L107.357 71.005 L107.36 73.0097 L107.363 75.0144 L107.366 77.019 L107.369 79.0237 L107.372 81.0284 L107.375 83.033 L107.378 85.0377 L107.381 87.0424 L107.384 89.0471 L107.387 91.0517 L107.39 93.0564 L107.393 95.0611 L107.396 97.0658 L107.399 99.0704 L107.402 101.075 L107.405 103.08 L107.408 105.084 L107.411 107.089 Z " />
<path stroke="rgb(169,255,187)" stroke-opacity="1" fill="rgb(169,255,187)" fill-opacity="1" id="scalebar" d="M-3.69904 -94.609 L-1.65554 -94.609 L0.387962 -94.609 L2.43146 -94.609 L4.47496 -94.609 L4.47496 -92.6686 L4.47496 -90.7281 L4.47496 -88.7876 L4.47496 -86.8472 L4.47496 -84.9067 L4.47496 -82.9663 L4.47496 -81.0258 L4.47496 -79.0853 L4.47496 -77.1449 L4.47496 -75.2044 L4.47496 -73.2639 L4.47496 -71.3235 L4.47496 -69.383 L2.43146 -69.383 L0.387962 -69.383 L-1.65554 -69.383 L-3.69904 -69.383 L-3.69904 -71.3235 L-3.69904 -73.2639 L-3.69904 -75.2044 L-3.69904 -77.1449 L-3.69904 -79.0853 L-3.69904 -81.0258 L-3.69904 -82.9663 L-3.69904 -84.9067 L-3.69904 -86.8472 L-3.69904 -88.7876 L-3.69904 -90.7281 L-3.69904 -92.6686 L-3.69904 -94.609 Z " />
<path stroke="rgb(200,255,200)" stroke-opacity="1" fill="rgb(200,255,200)" fill-opacity="1" id="scaleslider" d="M-6.69904 -83.9597 L-4.67418 -83.9597 L-2.64932 -83.9597 L-0.624466 -83.9597 L1.40039 -83.9597 L3.42525 -83.9597 L5.4501 -83.9597 L7.47496 -83.9597 L7.47496 -82.233 L7.47496 -80.5063 L7.47496 -78.7797 L5.4501 -78.7797 L3.42525 -78.7797 L1.40039 -78.7797 L-0.624466 -78.7797 L-2.64932 -78.7797 L-4.67418 -78.7797 L-6.69904 -78.7797 L-6.69904 -80.5063 L-6.69904 -82.233 L-6.69904 -83.9597 Z " />
<path stroke="rgb(255,134,106)" stroke-opacity="1" fill="rgb(255,134,106)" fill-opacity="1" id="tranbar" d="M-49.142 -86.146 L-47.0675 -86.146 L-44.993 -86.146 L-42.9185 -86.146 L-40.844 -86.146 L-40.844 -88.2208 L-40.844 -90.2955 L-40.844 -92.3703 L-40.844 -94.445 L-38.7685 -94.445 L-36.693 -94.445 L-34.6175 -94.445 L-32.542 -94.445 L-32.542 -92.3703 L-32.542 -90.2955 L-32.542 -88.2208 L-32.542 -86.146 L-30.4673 -86.146 L-28.3925 -86.146 L-26.3178 -86.146 L-24.243 -86.146 L-24.243 -84.0715 L-24.243 -81.997 L-24.243 -79.9225 L-24.243 -77.848 L-26.3178 -77.848 L-28.3925 -77.848 L-30.4673 -77.848 L-32.542 -77.848 L-32.542 -75.773 L-32.542 -73.698 L-32.542 -71.623 L-32.542 -69.548 L-34.6175 -69.548 L-36.693 -69.548 L-38.7685 -69.548 L-40.844 -69.548 L-40.844 -71.623 L-40.844 -73.698 L-40.844 -75.773 L-40.844 -77.848 L-42.9185 -77.848 L-44.993 -77.848 L-47.0675 -77.848 L-49.142 -77.848 L-49.142 -79.9225 L-49.142 -81.997 L-49.142 -84.0715 L-49.142 -86.146 Z " />
<path stroke="rgb(255,250,159)" stroke-opacity="1" fill="rgb(255,250,159)" fill-opacity="1" id="translider" d="M-39.248 -84.553 L-37.5447 -84.553 L-35.8414 -84.553 L-34.138 -84.553 L-34.138 -82.85 L-34.138 -81.147 L-34.138 -79.444 L-35.8414 -79.444 L-37.5447 -79.444 L-39.248 -79.444 L-39.248 -81.147 L-39.248 -82.85 L-39.248 -84.553 Z " />
<path stroke="rgb(254,204,128)" stroke-opacity="1" fill="rgb(254,204,128)" fill-opacity="1" id="rotate" d="M33.8839 -73.0832 L32.6911 -74.5898 L31.4983 -76.0963 L30.3055 -77.6029 L29.1127 -79.1094 L27.9199 -80.616 L28.6285 -82.4023 L29.3372 -84.1887 L30.0458 -85.975 L30.7544 -87.7614 L31.4631 -89.5477 L33.3646 -89.8273 L35.266 -90.1069 L37.1675 -90.3865 L39.069 -90.666 L40.9705 -90.9456 L42.1633 -89.4389 L43.3562 -87.9321 L44.549 -86.4254 L45.7418 -84.9186 L46.9347 -83.4118 L46.226 -81.6257 L45.5173 -79.8396 L44.8087 -78.0534 L44.1 -76.2673 L43.3913 -74.4811 L41.4899 -74.2015 L39.5884 -73.922 L37.6869 -73.6424 L35.7854 -73.3628 L33.8839 -73.0832 Z " />
<path stroke="rgb(200,255,200)" stroke-opacity="1" fill="rgb(200,255,200)" fill-opacity="1" id="tri_0" d="M-4.99185 -45.5193 L-4.00443 -47.2408 L-3.01702 -48.9623 L-2.0296 -50.6838 L-1.04218 -52.4053 L-0.0547641 -54.1268 L0.941606 -52.4132 L1.93797 -50.6996 L2.93434 -48.986 L3.93071 -47.2725 L4.92708 -45.5589 L2.9433 -45.551 L0.959509 -45.543 L-1.02428 -45.5351 L-3.00806 -45.5272 L-4.99185 -45.5193 Z " />
<path stroke="rgb(200,255,200)" stroke-opacity="1" fill="rgb(200,255,200)" fill-opacity="1" id="tri_0_18_" d="M-9.96454 -36.8849 L-8.97812 -38.6064 L-7.9917 -40.3279 L-7.00528 -42.0494 L-6.01886 -43.7709 L-5.03244 -45.4924 L-4.03567 -43.7787 L-3.0389 -42.0649 L-2.04213 -40.3511 L-1.04536 -38.6373 L-0.0485956 -36.9236 L-2.03179 -36.9158 L-4.01497 -36.9081 L-5.99816 -36.9004 L-7.98135 -36.8927 L-9.96454 -36.8849 Z " />
<path stroke="rgb(200,255,200)" stroke-opacity="1" fill="rgb(200,255,200)" fill-opacity="1" id="tri_1_16_" d="M0.00149113 -36.9051 L0.990168 -38.6227 L1.97884 -40.3403 L2.96752 -42.0579 L3.9562 -43.7755 L4.94487 -45.4931 L5.93706 -43.7798 L6.92925 -42.0664 L7.92144 -40.3531 L8.91363 -38.6397 L9.90582 -36.9263 L7.92496 -36.9221 L5.94409 -36.9179 L3.96322 -36.9136 L1.98236 -36.9094 L0.00149113 -36.9051 Z " />
<path stroke="rgb(200,255,200)" stroke-opacity="1" fill="rgb(200,255,200)" fill-opacity="1" id="tri_0_17_" d="M4.91988 -45.5308 L3.93286 -43.8091 L2.94584 -42.0874 L1.95882 -40.3657 L0.971803 -38.644 L-0.0152163 -36.9223 L-1.01198 -38.636 L-2.00875 -40.3498 L-3.00552 -42.0636 L-4.00229 -43.7774 L-4.99906 -45.4911 L-3.01527 -45.4991 L-1.03149 -45.507 L0.952302 -45.5149 L2.93609 -45.5228 L4.91988 -45.5308 Z " />
<path stroke="rgb(200,255,200)" stroke-opacity="1" fill="rgb(200,255,200)" fill-opacity="1" id="tri_0_16_" d="M-14.9412 -28.2476 L-13.954 -29.9697 L-12.9668 -31.6918 L-11.9796 -33.4139 L-10.9923 -35.136 L-10.0051 -36.8581 L-9.00856 -35.1435 L-8.01199 -33.429 L-7.01542 -31.7144 L-6.01885 -29.9998 L-5.02228 -28.2853 L-7.00607 -28.2777 L-8.98986 -28.2702 L-10.9736 -28.2627 L-12.9574 -28.2551 L-14.9412 -28.2476 Z " />
<path stroke="rgb(200,255,200)" stroke-opacity="1" fill="rgb(200,255,200)" fill-opacity="1" id="tri_1_15_" d="M-4.9722 -28.2668 L-3.98392 -29.985 L-2.99564 -31.7032 L-2.00736 -33.4214 L-1.01908 -35.1396 L-0.0308026 -36.8578 L0.961585 -35.1438 L1.95397 -33.4299 L2.94636 -31.7159 L3.93875 -30.002 L4.93114 -28.288 L2.95047 -28.2838 L0.969802 -28.2795 L-1.01087 -28.2753 L-2.99153 -28.2711 L-4.9722 -28.2668 Z " />
<path stroke="rgb(200,255,200)" stroke-opacity="1" fill="rgb(200,255,200)" fill-opacity="1" id="tri_0_15_" d="M-0.0558002 -36.8954 L-1.04242 -35.1731 L-2.02904 -33.4508 L-3.01566 -31.7285 L-4.00228 -30.0062 L-4.9889 -28.284 L-5.98547 -29.9985 L-6.98204 -31.7131 L-7.97861 -33.4277 L-8.97518 -35.1422 L-9.97175 -36.8568 L-7.98856 -36.8645 L-6.00537 -36.8723 L-4.02218 -36.88 L-2.03899 -36.8877 L-0.0558002 -36.8954 Z " />
<path stroke="rgb(200,255,200)" stroke-opacity="1" fill="rgb(200,255,200)" fill-opacity="1" id="tri_2_14_" d="M4.99538 -28.2954 L5.98688 -30.0067 L6.97838 -31.718 L7.96988 -33.4293 L8.96139 -35.1406 L9.95289 -36.8519 L10.9374 -35.1386 L11.9219 -33.4253 L12.9065 -31.712 L13.891 -29.9986 L14.8755 -28.2853 L12.8995 -28.2873 L10.9235 -28.2893 L8.94744 -28.2913 L6.97141 -28.2934 L4.99538 -28.2954 Z " />
<path stroke="rgb(200,255,200)" stroke-opacity="1" fill="rgb(200,255,200)" fill-opacity="1" id="tri_1_14_" d="M9.9089 -36.8919 L8.92042 -35.1737 L7.93194 -33.4555 L6.94346 -31.7373 L5.95499 -30.0191 L4.96651 -28.301 L3.97412 -30.0149 L2.98173 -31.7289 L1.98934 -33.4428 L0.996956 -35.1568 L0.00456828 -36.8707 L1.98543 -36.875 L3.9663 -36.8792 L5.94717 -36.8834 L7.92803 -36.8877 L9.9089 -36.8919 Z " />
<path stroke="rgb(200,255,200)" stroke-opacity="1" fill="rgb(200,255,200)" fill-opacity="1" id="tri_0_14_" d="M-19.9169 -19.6093 L-18.9299 -21.3316 L-17.9429 -23.0539 L-16.9559 -24.7762 L-15.9688 -26.4985 L-14.9818 -28.2208 L-13.9856 -26.5064 L-12.9895 -24.792 L-11.9933 -23.0777 L-10.9971 -21.3633 L-10.001 -19.6489 L-11.9842 -19.641 L-13.9673 -19.6331 L-15.9505 -19.6251 L-17.9337 -19.6172 L-19.9169 -19.6093 Z " />
<path stroke="rgb(200,255,200)" stroke-opacity="1" fill="rgb(200,255,200)" fill-opacity="1" id="tri_1_13_" d="M-9.95087 -19.6305 L-8.9616 -21.3483 L-7.97232 -23.0661 L-6.98305 -24.7839 L-5.99378 -26.5017 L-5.0045 -28.2195 L-4.01231 -26.5061 L-3.02012 -24.7928 L-2.02793 -23.0794 L-1.03574 -21.366 L-0.0435534 -19.6527 L-2.02502 -19.6482 L-4.00648 -19.6438 L-5.98794 -19.6394 L-7.96941 -19.6349 L-9.95087 -19.6305 Z " />
<path stroke="rgb(200,255,200)" stroke-opacity="1" fill="rgb(200,255,200)" fill-opacity="1" id="tri_0_13_" d="M-5.0295 -28.2571 L-6.01711 -26.5352 L-7.00473 -24.8133 L-7.99235 -23.0914 L-8.97996 -21.3695 L-9.96758 -19.6476 L-10.9637 -21.362 L-11.9599 -23.0764 L-12.9561 -24.7907 L-13.9523 -26.5051 L-14.9484 -28.2195 L-12.9646 -28.227 L-10.9809 -28.2345 L-8.99707 -28.2421 L-7.01329 -28.2496 L-5.0295 -28.2571 Z " />
<path stroke="rgb(200,255,200)" stroke-opacity="1" fill="rgb(200,255,200)" fill-opacity="1" id="tri_2_13_" d="M0.0206968 -19.66 L1.0122 -21.3707 L2.0037 -23.0815 L2.9952 -24.7922 L3.9867 -26.5029 L4.9782 -28.2136 L5.96273 -26.5007 L6.94726 -24.7878 L7.93179 -23.0748 L8.91632 -21.3619 L9.90085 -19.649 L7.92482 -19.6512 L5.94879 -19.6534 L3.97276 -19.6556 L1.99673 -19.6578 L0.0206968 -19.66 Z " />
<path stroke="rgb(200,255,200)" stroke-opacity="1" fill="rgb(200,255,200)" fill-opacity="1" id="tri_1_12_" d="M4.93422 -28.2536 L3.94574 -26.536 L2.95726 -24.8184 L1.96878 -23.1008 L0.980305 -21.3832 L-0.0081733 -19.6656 L-1.00036 -21.379 L-1.99255 -23.0923 L-2.98474 -24.8057 L-3.97693 -26.519 L-4.96912 -28.2324 L-2.98846 -28.2366 L-1.00779 -28.2409 L0.972881 -28.2451 L2.95355 -28.2494 L4.93422 -28.2536 Z " />
<path stroke="rgb(200,255,200)" stroke-opacity="1" fill="rgb(200,255,200)" fill-opacity="1" id="tri_3_12_" d="M9.98812 -19.6982 L10.9845 -21.3984 L11.9809 -23.0986 L12.9773 -24.7987 L13.9737 -26.4989 L14.9701 -28.1991 L15.9435 -26.488 L16.9169 -24.777 L17.8902 -23.066 L18.8636 -21.355 L19.837 -19.644 L17.8672 -19.6548 L15.8974 -19.6657 L13.9277 -19.6765 L11.9579 -19.6874 L9.98812 -19.6982 Z " />
<path stroke="rgb(200,255,200)" stroke-opacity="1" fill="rgb(200,255,200)" fill-opacity="1" id="tri_2_12_" d="M14.8964 -28.2407 L13.9049 -26.5298 L12.9134 -24.8189 L11.9219 -23.108 L10.9304 -21.3971 L9.93887 -19.6861 L8.95434 -21.3991 L7.96981 -23.112 L6.98528 -24.8249 L6.00075 -26.5379 L5.01622 -28.2508 L6.99225 -28.2488 L8.96828 -28.2468 L10.9443 -28.2448 L12.9203 -28.2428 L14.8964 -28.2407 Z " />
<path stroke="rgb(200,255,200)" stroke-opacity="1" fill="rgb(200,255,200)" fill-opacity="1" id="tri_0_12_" d="M-24.8916 -10.9769 L-23.9048 -12.698 L-22.918 -14.4191 L-21.9311 -16.1403 L-20.9443 -17.8614 L-19.9575 -19.5825 L-18.9609 -17.8685 L-17.9644 -16.1545 L-16.9678 -14.4405 L-15.9712 -12.7266 L-14.9746 -11.0126 L-16.958 -11.0055 L-18.9414 -10.9983 L-20.9248 -10.9912 L-22.9082 -10.9841 L-24.8916 -10.9769 Z " />
<path stroke="rgb(200,255,200)" stroke-opacity="1" fill="rgb(200,255,200)" fill-opacity="1" id="tri_1_11_" d="M-14.9246 -10.9942 L-13.9363 -12.712 L-12.948 -14.4298 L-11.9597 -16.1476 L-10.9715 -17.8653 L-9.98317 -19.5831 L-8.99079 -17.8696 L-7.9984 -16.156 L-7.00601 -14.4425 L-6.01362 -12.7289 L-5.02123 -11.0154 L-7.00189 -11.0111 L-8.98256 -11.0069 L-10.9632 -11.0026 L-12.9439 -10.9984 L-14.9246 -10.9942 Z " />
<path stroke="rgb(200,255,200)" stroke-opacity="1" fill="rgb(200,255,200)" fill-opacity="1" id="tri_0_11_" d="M-10.0082 -19.6208 L-10.9948 -17.8989 L-11.9814 -16.177 L-12.968 -14.4551 L-13.9546 -12.7332 L-14.9413 -11.0113 L-15.9378 -12.7253 L-16.9344 -14.4392 L-17.931 -16.1532 L-18.9275 -17.8672 L-19.9241 -19.5812 L-17.9409 -19.5891 L-15.9577 -19.597 L-13.9746 -19.6049 L-11.9914 -19.6129 L-10.0082 -19.6208 Z " />
<path stroke="rgb(200,255,200)" stroke-opacity="1" fill="rgb(200,255,200)" fill-opacity="1" id="tri_2_11_" d="M-4.95698 -11.0227 L-3.96488 -12.7338 L-2.97279 -14.4449 L-1.98069 -16.1561 L-0.988596 -17.8672 L0.00349993 -19.5783 L0.987634 -17.8656 L1.97177 -16.1528 L2.95591 -14.4401 L3.94004 -12.7274 L4.92418 -11.0146 L2.94795 -11.0162 L0.971714 -11.0179 L-1.00452 -11.0195 L-2.98075 -11.0211 L-4.95698 -11.0227 Z " />
<path stroke="rgb(200,255,200)" stroke-opacity="1" fill="rgb(200,255,200)" fill-opacity="1" id="tri_1_10_" d="M-0.0404808 -19.6183 L-1.02955 -17.9003 L-2.01863 -16.1823 L-3.0077 -14.4643 L-3.99677 -12.7463 L-4.98585 -11.0283 L-5.97824 -12.7418 L-6.97063 -14.4554 L-7.96302 -16.169 L-8.95541 -17.8825 L-9.9478 -19.5961 L-7.96633 -19.6005 L-5.98487 -19.605 L-4.00341 -19.6094 L-2.02194 -19.6138 L-0.0404808 -19.6183 Z " />
<path stroke="rgb(200,255,200)" stroke-opacity="1" fill="rgb(200,255,200)" fill-opacity="1" id="tri_3_11_" d="M5.01146 -11.0639 L6.00825 -12.7637 L7.00504 -14.4634 L8.00184 -16.1632 L8.99863 -17.8629 L9.99542 -19.5627 L10.9684 -17.8513 L11.9414 -16.1399 L12.9143 -14.4285 L13.8873 -12.7171 L14.8603 -11.0057 L12.8905 -11.0173 L10.9208 -11.029 L8.951 -11.0406 L6.98123 -11.0523 L5.01146 -11.0639 Z " />
<path stroke="rgb(200,255,200)" stroke-opacity="1" fill="rgb(200,255,200)" fill-opacity="1" id="tri_2_10_" d="M9.92168 -19.6044 L8.92979 -17.8939 L7.93789 -16.1834 L6.946 -14.4728 L5.9541 -12.7623 L4.96221 -11.0518 L3.97807 -12.7645 L2.99394 -14.4773 L2.0098 -16.19 L1.02567 -17.9027 L0.0415314 -19.6155 L2.01756 -19.6133 L3.99359 -19.6111 L5.96962 -19.6088 L7.94565 -19.6066 L9.92168 -19.6044 Z " />
<path stroke="rgb(200,255,200)" stroke-opacity="1" fill="rgb(200,255,200)" fill-opacity="1" id="tri_4_10_" d="M14.9835 -11.1231 L15.9884 -12.8062 L16.9932 -14.4893 L17.9981 -16.1724 L19.003 -17.8554 L20.0078 -19.5385 L20.9615 -17.8283 L21.9151 -16.118 L22.8687 -14.4078 L23.8224 -12.6976 L24.776 -10.9873 L22.8175 -11.0145 L20.859 -11.0416 L18.9005 -11.0688 L16.942 -11.0959 L14.9835 -11.1231 Z " />
<path stroke="rgb(200,255,200)" stroke-opacity="1" fill="rgb(200,255,200)" fill-opacity="1" id="tri_3_10_" d="M19.886 -19.5839 L18.8892 -17.8833 L17.8924 -16.1828 L16.8956 -14.4822 L15.8988 -12.7817 L14.902 -11.0811 L13.929 -12.7925 L12.9561 -14.5039 L11.9831 -16.2153 L11.0101 -17.9267 L10.0371 -19.6381 L12.0069 -19.6273 L13.9767 -19.6164 L15.9464 -19.6056 L17.9162 -19.5947 L19.886 -19.5839 Z " />
<path stroke="rgb(200,255,200)" stroke-opacity="1" fill="rgb(200,255,200)" fill-opacity="1" id="tri_0_10_" d="M-29.8673 -2.33862 L-28.8803 -4.06092 L-27.8932 -5.78322 L-26.9062 -7.50552 L-25.9192 -9.22782 L-24.9322 -10.9501 L-23.9356 -9.23515 L-22.939 -7.52018 L-21.9425 -5.80521 L-20.9459 -4.09024 L-19.9493 -2.37528 L-21.9329 -2.36795 L-23.9165 -2.36062 L-25.9001 -2.35328 L-27.8837 -2.34595 L-29.8673 -2.33862 Z " />
<path stroke="rgb(200,255,200)" stroke-opacity="1" fill="rgb(200,255,200)" fill-opacity="1" id="tri_1_9_" d="M-19.8992 -2.35683 L-18.9108 -4.07483 L-17.9223 -5.79282 L-16.9338 -7.51082 L-15.9453 -9.22882 L-14.9569 -10.9468 L-13.9647 -9.23326 L-12.9725 -7.5197 L-11.9803 -5.80614 L-10.9881 -4.09258 L-9.99591 -2.37902 L-11.9766 -2.37458 L-13.9572 -2.37015 L-15.9379 -2.36571 L-17.9186 -2.36127 L-19.8992 -2.35683 Z " />
<path stroke="rgb(200,255,200)" stroke-opacity="1" fill="rgb(200,255,200)" fill-opacity="1" id="tri_0_9_" d="M-14.9819 -10.9845 L-15.9687 -9.26237 L-16.9555 -7.54027 L-17.9423 -5.81817 L-18.9291 -4.09607 L-19.9159 -2.37397 L-20.9125 -4.08894 L-21.9091 -5.80391 L-22.9057 -7.51888 L-23.9022 -9.23384 L-24.8988 -10.9488 L-22.9154 -10.9559 L-20.932 -10.9631 L-18.9486 -10.9702 L-16.9652 -10.9773 L-14.9819 -10.9845 Z " />
<path stroke="rgb(200,255,200)" stroke-opacity="1" fill="rgb(200,255,200)" fill-opacity="1" id="tri_2_9_" d="M-9.93167 -2.38638 L-8.94017 -4.0973 L-7.94866 -5.80822 L-6.95716 -7.51914 L-5.96566 -9.23006 L-4.97416 -10.941 L-3.98923 -9.22845 L-3.00431 -7.51591 L-2.01938 -5.80337 L-1.03445 -4.09083 L-0.0495232 -2.37829 L-2.02595 -2.37991 L-4.00238 -2.38153 L-5.97881 -2.38314 L-7.95524 -2.38476 L-9.93167 -2.38638 Z " />
<path stroke="rgb(200,255,200)" stroke-opacity="1" fill="rgb(200,255,200)" fill-opacity="1" id="tri_1_8_" d="M-5.01815 -10.9809 L-6.00663 -9.26315 L-6.9951 -7.54535 L-7.98358 -5.82755 L-8.97206 -4.10975 L-9.96054 -2.39195 L-10.9527 -4.10551 L-11.9449 -5.81907 L-12.9371 -7.53263 L-13.9293 -9.24619 L-14.9215 -10.9597 L-12.9408 -10.964 L-10.9602 -10.9682 L-8.97948 -10.9725 L-6.99881 -10.9767 L-5.01815 -10.9809 Z " />
<path stroke="rgb(200,255,200)" stroke-opacity="1" fill="rgb(200,255,200)" fill-opacity="1" id="tri_3_9_" d="M0.0377449 -2.42756 L1.03395 -4.12772 L2.03015 -5.82789 L3.02636 -7.52805 L4.02256 -9.22821 L5.01876 -10.9284 L5.99174 -9.21677 L6.96471 -7.50518 L7.93768 -5.79358 L8.91066 -4.08198 L9.88363 -2.37038 L7.91445 -2.38182 L5.94528 -2.39325 L3.9761 -2.40469 L2.00692 -2.41613 L0.0377449 -2.42756 Z " />
<path stroke="rgb(200,255,200)" stroke-opacity="1" fill="rgb(200,255,200)" fill-opacity="1" id="tri_2_8_" d="M4.94501 -10.9701 L3.95371 -9.25916 L2.96241 -7.54824 L1.9711 -5.83731 L0.979802 -4.12639 L-0.0115002 -2.41547 L-0.996428 -4.12801 L-1.98136 -5.84055 L-2.96628 -7.55309 L-3.95121 -9.26563 L-4.93614 -10.9782 L-2.95991 -10.9765 L-0.983679 -10.9749 L0.992553 -10.9733 L2.96878 -10.9717 L4.94501 -10.9701 Z " />
<path stroke="rgb(200,255,200)" stroke-opacity="1" fill="rgb(200,255,200)" fill-opacity="1" id="tri_4_9_" d="M10.0069 -2.48776 L11.0117 -4.17026 L12.0166 -5.85276 L13.0214 -7.53525 L14.0263 -9.21775 L15.0311 -10.9002 L15.9852 -9.19059 L16.9392 -7.48093 L17.8932 -5.77127 L18.8473 -4.06162 L19.8013 -2.35196 L17.8424 -2.37912 L15.8835 -2.40628 L13.9246 -2.43344 L11.9657 -2.4606 L10.0069 -2.48776 Z " />
<path stroke="rgb(200,255,200)" stroke-opacity="1" fill="rgb(200,255,200)" fill-opacity="1" id="tri_3_8_" d="M14.9093 -10.9456 L13.9125 -9.24562 L12.9157 -7.54566 L11.9189 -5.8457 L10.9221 -4.14574 L9.92533 -2.44577 L8.95236 -4.15737 L7.97938 -5.86897 L7.00641 -7.58057 L6.03343 -9.29217 L5.06046 -11.0038 L7.03023 -10.9921 L9 -10.9805 L10.9698 -10.9689 L12.9395 -10.9572 L14.9093 -10.9456 Z " />
<path stroke="rgb(200,255,200)" stroke-opacity="1" fill="rgb(200,255,200)" fill-opacity="1" id="tri_5_8_" d="M19.982 -2.56742 L20.9974 -4.22583 L22.0129 -5.88424 L23.0283 -7.54265 L24.0438 -9.20106 L25.0593 -10.8595 L25.9866 -9.15234 L26.9139 -7.44521 L27.8412 -5.73809 L28.7685 -4.03096 L29.6958 -2.32384 L27.753 -2.37255 L25.8103 -2.42127 L23.8675 -2.46999 L21.9247 -2.5187 L19.982 -2.56742 Z " />
<path stroke="rgb(200,255,200)" stroke-opacity="1" fill="rgb(200,255,200)" fill-opacity="1" id="tri_4_8_" d="M24.871 -10.9021 L23.8665 -9.21958 L22.862 -7.53708 L21.8576 -5.85457 L20.8531 -4.17207 L19.8487 -2.48957 L18.8946 -4.19923 L17.9406 -5.90888 L16.9866 -7.61854 L16.0325 -9.3282 L15.0785 -11.0379 L17.037 -11.0107 L18.9955 -10.9835 L20.954 -10.9564 L22.9125 -10.9292 L24.871 -10.9021 Z " />
<path stroke="rgb(200,255,200)" stroke-opacity="1" fill="rgb(200,255,200)" fill-opacity="1" id="tri_0_8_" d="M-34.8449 6.2987 L-33.8575 4.5766 L-32.8701 2.8545 L-31.8827 1.1324 L-30.8953 -0.589701 L-29.9079 -2.3118 L-28.9115 -0.597628 L-27.9151 1.11654 L-26.9188 2.83071 L-25.9224 4.54489 L-24.926 6.25906 L-26.9098 6.26699 L-28.8936 6.27492 L-30.8774 6.28284 L-32.8612 6.29077 L-34.8449 6.2987 Z " />
<path stroke="rgb(200,255,200)" stroke-opacity="1" fill="rgb(200,255,200)" fill-opacity="1" id="tri_1_7_" d="M-24.8759 6.2775 L-23.8871 4.5601 L-22.8982 2.8427 L-21.9093 1.1253 L-20.9204 -0.592096 L-19.9316 -2.3095 L-18.94 -0.596137 L-17.9484 1.11722 L-16.9568 2.83058 L-15.9652 4.54394 L-14.9736 6.2573 L-16.954 6.26134 L-18.9345 6.26538 L-20.915 6.26942 L-22.8955 6.27346 L-24.8759 6.2775 Z " />
<path stroke="rgb(200,255,200)" stroke-opacity="1" fill="rgb(200,255,200)" fill-opacity="1" id="tri_0_7_" d="M-19.9565 -2.34715 L-20.9438 -0.625643 L-21.931 1.09586 L-22.9182 2.81736 L-23.9054 4.53886 L-24.8926 6.26037 L-25.889 4.54619 L-26.8854 2.83202 L-27.8817 1.11785 L-28.8781 -0.59632 L-29.8745 -2.31049 L-27.8909 -2.31782 L-25.9073 -2.32515 L-23.9237 -2.33249 L-21.9401 -2.33982 L-19.9565 -2.34715 Z " />
<path stroke="rgb(200,255,200)" stroke-opacity="1" fill="rgb(200,255,200)" fill-opacity="1" id="tri_2_7_" d="M-14.9093 6.24994 L-13.9172 4.53903 L-12.9251 2.82811 L-11.933 1.11719 L-10.941 -0.593731 L-9.94886 -2.30465 L-8.96433 -0.591912 L-7.9798 1.12082 L-6.99527 2.83356 L-6.01074 4.54629 L-5.02621 6.25903 L-7.00283 6.25721 L-8.97946 6.2554 L-10.9561 6.25358 L-12.9327 6.25176 L-14.9093 6.24994 Z " />
<path stroke="rgb(200,255,200)" stroke-opacity="1" fill="rgb(200,255,200)" fill-opacity="1" id="tri_1_6_" d="M-9.99284 -2.34461 L-10.9819 -0.626818 L-11.971 1.09098 L-12.9601 2.80878 L-13.9491 4.52657 L-14.9382 6.24437 L-15.9298 4.53101 L-16.9214 2.81765 L-17.913 1.10429 L-18.9046 -0.609065 L-19.8962 -2.32242 L-17.9155 -2.32686 L-15.9348 -2.3313 L-13.9542 -2.33574 L-11.9735 -2.34018 L-9.99284 -2.34461 Z " />
<path stroke="rgb(200,255,200)" stroke-opacity="1" fill="rgb(200,255,200)" fill-opacity="1" id="tri_3_7_" d="M-4.93892 6.20976 L-3.94213 4.5094 L-2.94533 2.80904 L-1.94853 1.10869 L-0.951735 -0.591671 L0.0450613 -2.29203 L1.01764 -0.580233 L1.99022 1.13156 L2.96279 2.84335 L3.93537 4.55515 L4.90795 6.26694 L2.93858 6.25551 L0.969201 6.24407 L-1.00017 6.23263 L-2.96955 6.22119 L-4.93892 6.20976 Z " />
<path stroke="rgb(200,255,200)" stroke-opacity="1" fill="rgb(200,255,200)" fill-opacity="1" id="tri_2_6_" d="M-0.0286819 -2.33375 L-1.02058 -0.62263 L-2.01248 1.08849 L-3.00437 2.79961 L-3.99627 4.51073 L-4.98817 6.22184 L-5.9727 4.50911 L-6.95723 2.79637 L-7.94176 1.08364 L-8.92629 -0.629097 L-9.91082 -2.34183 L-7.9344 -2.34022 L-5.95797 -2.3386 L-3.98154 -2.33698 L-2.00511 -2.33536 L-0.0286819 -2.33375 Z " />
<path stroke="rgb(200,255,200)" stroke-opacity="1" fill="rgb(200,255,200)" fill-opacity="1" id="tri_4_7_" d="M5.03114 6.14955 L6.03581 4.46666 L7.04047 2.78377 L8.04514 1.10088 L9.0498 -0.582017 L10.0545 -2.26491 L11.0085 -0.555253 L11.9625 1.1544 L12.9166 2.86406 L13.8706 4.57372 L14.8246 6.28337 L12.8659 6.25661 L10.9072 6.22984 L8.94854 6.20308 L6.98984 6.17632 L5.03114 6.14955 Z " />
<path stroke="rgb(200,255,200)" stroke-opacity="1" fill="rgb(200,255,200)" fill-opacity="1" id="tri_3_6_" d="M9.93264 -2.31025 L8.93604 -0.609891 L7.93944 1.09047 L6.94284 2.79083 L5.94624 4.49118 L4.94964 6.19154 L3.97706 4.47975 L3.00449 2.76795 L2.03191 1.05616 L1.05933 -0.655634 L0.0867531 -2.36743 L2.05593 -2.35599 L4.02511 -2.34456 L5.99429 -2.33312 L7.96346 -2.32168 L9.93264 -2.31025 Z " />
<path stroke="rgb(200,255,200)" stroke-opacity="1" fill="rgb(200,255,200)" fill-opacity="1" id="tri_5_7_" d="M15.0054 6.06791 L16.0212 4.40951 L17.037 2.75112 L18.0529 1.09272 L19.0687 -0.565677 L20.0846 -2.22408 L21.0117 -0.516176 L21.9388 1.19172 L22.8659 2.89962 L23.7929 4.60752 L24.72 6.31542 L22.7771 6.26592 L20.8342 6.21642 L18.8912 6.16691 L16.9483 6.11741 L15.0054 6.06791 Z " />
<path stroke="rgb(200,255,200)" stroke-opacity="1" fill="rgb(200,255,200)" fill-opacity="1" id="tri_4_6_" d="M19.8963 -2.26673 L18.8914 -0.584238 L17.8866 1.09826 L16.8817 2.78075 L15.8768 4.46325 L14.872 6.14574 L13.918 4.43609 L12.9639 2.72643 L12.0099 1.01678 L11.0559 -0.692881 L10.1018 -2.40254 L12.0607 -2.37538 L14.0196 -2.34822 L15.9785 -2.32105 L17.9374 -2.29389 L19.8963 -2.26673 Z " />
<path stroke="rgb(200,255,200)" stroke-opacity="1" fill="rgb(200,255,200)" fill-opacity="1" id="tri_6_6_" d="M24.9805 5.96914 L26.0104 4.34198 L27.0403 2.71482 L28.0703 1.08766 L29.1002 -0.539508 L30.1301 -2.16667 L31.023 -0.463209 L31.9159 1.24025 L32.8088 2.94372 L33.7017 4.64718 L34.5945 6.35064 L32.6717 6.27434 L30.7489 6.19804 L28.8261 6.12174 L26.9033 6.04544 L24.9805 5.96914 Z " />
<path stroke="rgb(200,255,200)" stroke-opacity="1" fill="rgb(200,255,200)" fill-opacity="1" id="tri_5_6_" d="M29.8539 -2.20372 L28.8382 -0.544533 L27.8226 1.11465 L26.8069 2.77383 L25.7912 4.43301 L24.7755 6.0922 L23.8484 4.3843 L22.9214 2.6764 L21.9943 0.968501 L21.0672 -0.739398 L20.1401 -2.4473 L22.0829 -2.39858 L24.0256 -2.34987 L25.9684 -2.30115 L27.9111 -2.25243 L29.8539 -2.20372 Z " />
<path stroke="rgb(200,255,200)" stroke-opacity="1" fill="rgb(200,255,200)" fill-opacity="1" id="tri_0_6_" d="M-39.8196 14.936 L-38.8328 13.2139 L-37.846 11.4918 L-36.8592 9.76973 L-35.8724 8.04763 L-34.8855 6.32553 L-33.8884 8.0399 L-32.8912 9.75427 L-31.894 11.4686 L-30.8969 13.183 L-29.8997 14.8974 L-31.8837 14.9051 L-33.8677 14.9128 L-35.8517 14.9206 L-37.8356 14.9283 L-39.8196 14.936 Z " />
<path stroke="rgb(200,255,200)" stroke-opacity="1" fill="rgb(200,255,200)" fill-opacity="1" id="tri_1_5_" d="M-29.8496 14.9158 L-28.8613 13.1976 L-27.8731 11.4794 L-26.8848 9.76124 L-25.8965 8.04304 L-24.9082 6.32485 L-23.9164 8.0388 L-22.9246 9.75276 L-21.9328 11.4667 L-20.9411 13.1807 L-19.9493 14.8946 L-21.9293 14.8989 L-23.9094 14.9031 L-25.8895 14.9073 L-27.8695 14.9116 L-29.8496 14.9158 Z " />
<path stroke="rgb(200,255,200)" stroke-opacity="1" fill="rgb(200,255,200)" fill-opacity="1" id="tri_0_5_" d="M-24.9332 6.28719 L-25.9198 8.00949 L-26.9065 9.73179 L-27.8931 11.4541 L-28.8797 13.1764 L-29.8663 14.8987 L-30.8635 13.1843 L-31.8607 11.4699 L-32.8578 9.75557 L-33.855 8.0412 L-34.8522 6.32683 L-32.8684 6.3189 L-30.8846 6.31098 L-28.9008 6.30305 L-26.917 6.29512 L-24.9332 6.28719 Z " />
<path stroke="rgb(200,255,200)" stroke-opacity="1" fill="rgb(200,255,200)" fill-opacity="1" id="tri_2_5_" d="M-19.885 14.8873 L-18.8933 13.1761 L-17.9016 11.465 L-16.9099 9.7539 L-15.9182 8.04278 L-14.9265 6.33166 L-13.9416 8.04381 L-12.9567 9.75595 L-11.9717 11.4681 L-10.9868 13.1802 L-10.0019 14.8924 L-11.9785 14.8914 L-13.9551 14.8903 L-15.9318 14.8893 L-17.9084 14.8883 L-19.885 14.8873 Z " />
<path stroke="rgb(200,255,200)" stroke-opacity="1" fill="rgb(200,255,200)" fill-opacity="1" id="tri_1_4_" d="M-14.9705 6.29171 L-15.9592 8.0097 L-16.9479 9.7277 L-17.9365 11.4457 L-18.9252 13.1637 L-19.9139 14.8817 L-20.9057 13.1677 L-21.8975 11.4538 L-22.8893 9.73982 L-23.8811 8.02587 L-24.8729 6.31191 L-22.8924 6.30787 L-20.9119 6.30383 L-18.9315 6.29979 L-16.951 6.29575 L-14.9705 6.29171 Z " />
<path stroke="rgb(200,255,200)" stroke-opacity="1" fill="rgb(200,255,200)" fill-opacity="1" id="tri_3_5_" d="M-9.91458 14.8431 L-8.91799 13.1436 L-7.92139 11.444 L-6.9248 9.74441 L-5.92821 8.04485 L-4.93162 6.34528 L-3.95845 8.05708 L-2.98528 9.76887 L-2.01211 11.4807 L-1.03894 13.1925 L-0.0657673 14.9043 L-2.03553 14.892 L-4.00529 14.8798 L-5.97505 14.8676 L-7.94482 14.8553 L-9.91458 14.8431 Z " />
<path stroke="rgb(200,255,200)" stroke-opacity="1" fill="rgb(200,255,200)" fill-opacity="1" id="tri_2_4_" d="M-5.00537 6.30357 L-5.99707 8.01389 L-6.98876 9.72422 L-7.98046 11.4345 L-8.97215 13.1449 L-9.96385 14.8552 L-10.9488 13.1431 L-11.9337 11.4309 L-12.9186 9.71877 L-13.9036 8.00662 L-14.8885 6.29448 L-12.9119 6.2963 L-10.9352 6.29811 L-8.95862 6.29993 L-6.98199 6.30175 L-5.00537 6.30357 Z " />
<path stroke="rgb(200,255,200)" stroke-opacity="1" fill="rgb(200,255,200)" fill-opacity="1" id="tri_4_5_" d="M0.0574337 14.7869 L1.06171 13.104 L2.06598 11.4211 L3.07025 9.73821 L4.07452 8.05532 L5.07879 6.37242 L6.03263 8.08227 L6.98646 9.79212 L7.9403 11.502 L8.89413 13.2118 L9.84797 14.9217 L7.88986 14.8947 L5.93175 14.8678 L3.97365 14.8408 L2.01554 14.8139 L0.0574337 14.7869 Z " />
<path stroke="rgb(200,255,200)" stroke-opacity="1" fill="rgb(200,255,200)" fill-opacity="1" id="tri_3_4_" d="M4.95696 6.32708 L3.96076 8.02744 L2.96455 9.7278 L1.96835 11.4282 L0.97214 13.1285 L-0.024064 14.8289 L-0.997234 13.1171 L-1.9704 11.4053 L-2.94357 9.69349 L-3.91674 7.98169 L-4.88991 6.26989 L-2.92054 6.28133 L-0.951163 6.29277 L1.01821 6.30421 L2.98759 6.31564 L4.95696 6.32708 Z " />
<path stroke="rgb(200,255,200)" stroke-opacity="1" fill="rgb(200,255,200)" fill-opacity="1" id="tri_5_5_" d="M10.0286 14.7062 L11.0445 13.0472 L12.0604 11.3882 L13.0762 9.72923 L14.0921 8.07024 L15.108 6.41126 L16.0354 8.11917 L16.9629 9.82708 L17.8904 11.535 L18.8179 13.2429 L19.7453 14.9508 L17.802 14.9019 L15.8587 14.853 L13.9153 14.804 L11.972 14.7551 L10.0286 14.7062 Z " />
<path stroke="rgb(200,255,200)" stroke-opacity="1" fill="rgb(200,255,200)" fill-opacity="1" id="tri_4_4_" d="M14.9196 6.36861 L13.9147 8.0517 L12.9099 9.73478 L11.905 11.4179 L10.9002 13.101 L9.89529 14.784 L8.94146 13.0742 L7.98762 11.3643 L7.03379 9.65449 L6.07995 7.94464 L5.12612 6.23479 L7.08482 6.26156 L9.04352 6.28832 L11.0022 6.31508 L12.9609 6.34185 L14.9196 6.36861 Z " />
<path stroke="rgb(200,255,200)" stroke-opacity="1" fill="rgb(200,255,200)" fill-opacity="1" id="tri_6_5_" d="M20.0059 14.6045 L21.0356 12.9781 L22.0653 11.3517 L23.095 9.72535 L24.1247 8.09895 L25.1544 6.47255 L26.0475 8.17564 L26.9405 9.87872 L27.8336 11.5818 L28.7267 13.2849 L29.6198 14.988 L27.697 14.9113 L25.7743 14.8346 L23.8515 14.7579 L21.9287 14.6812 L20.0059 14.6045 Z " />
<path stroke="rgb(200,255,200)" stroke-opacity="1" fill="rgb(200,255,200)" fill-opacity="1" id="tri_5_4_" d="M24.8782 6.43555 L23.8627 8.09395 L22.8472 9.75236 L21.8318 11.4108 L20.8163 13.0692 L19.8009 14.7276 L18.8734 13.0197 L17.9459 11.3118 L17.0184 9.60386 L16.091 7.89595 L15.1635 6.18804 L17.1064 6.23754 L19.0493 6.28704 L20.9923 6.33654 L22.9352 6.38604 L24.8782 6.43555 Z " />
<path stroke="rgb(200,255,200)" stroke-opacity="1" fill="rgb(200,255,200)" fill-opacity="1" id="tri_7_4_" d="M29.9878 14.4724 L31.0353 12.8873 L32.0829 11.3023 L33.1304 9.71721 L34.178 8.13216 L35.2255 6.54711 L36.0726 8.24548 L36.9197 9.94385 L37.7668 11.6422 L38.6139 13.3406 L39.461 15.039 L37.5663 14.9256 L35.6717 14.8123 L33.7771 14.699 L31.8824 14.5857 L29.9878 14.4724 Z " />
<path stroke="rgb(200,255,200)" stroke-opacity="1" fill="rgb(200,255,200)" fill-opacity="1" id="tri_6_4_" d="M34.8357 6.51761 L33.806 8.1444 L32.7763 9.77118 L31.7466 11.398 L30.7169 13.0248 L29.6872 14.6515 L28.7941 12.9485 L27.901 11.2454 L27.0079 9.54229 L26.1148 7.8392 L25.2217 6.13611 L27.1445 6.21241 L29.0673 6.28871 L30.9901 6.36501 L32.9129 6.44131 L34.8357 6.51761 Z " />
<path stroke="rgb(200,255,200)" stroke-opacity="1" fill="rgb(200,255,200)" fill-opacity="1" id="tri_0_4_" d="M-44.7963 23.5734 L-43.8091 21.8513 L-42.8219 20.1292 L-41.8347 18.4071 L-40.8474 16.685 L-39.8602 14.9629 L-38.8637 16.6768 L-37.8671 18.3908 L-36.8705 20.1048 L-35.874 21.8187 L-34.8774 23.5327 L-36.8612 23.5408 L-38.845 23.549 L-40.8287 23.5571 L-42.8125 23.5652 L-44.7963 23.5734 Z " />
<path stroke="rgb(200,255,200)" stroke-opacity="1" fill="rgb(200,255,200)" fill-opacity="1" id="tri_1_3_" d="M-34.8273 23.5512 L-33.8382 21.8336 L-32.8491 20.116 L-31.8601 18.3984 L-30.871 16.6808 L-29.8819 14.9632 L-28.8905 16.6765 L-27.8991 18.3899 L-26.9077 20.1032 L-25.9163 21.8166 L-24.9249 23.53 L-26.9054 23.5342 L-28.8859 23.5384 L-30.8664 23.5427 L-32.8468 23.5469 L-34.8273 23.5512 Z " />
<path stroke="rgb(200,255,200)" stroke-opacity="1" fill="rgb(200,255,200)" fill-opacity="1" id="tri_0_3_" d="M-29.9069 14.9255 L-30.8943 16.6472 L-31.8817 18.3689 L-32.8692 20.0906 L-33.8566 21.8123 L-34.844 23.534 L-35.8406 21.82 L-36.8371 20.1061 L-37.8337 18.3921 L-38.8303 16.6781 L-39.8268 14.9642 L-37.8429 14.9564 L-35.8589 14.9487 L-33.8749 14.941 L-31.8909 14.9332 L-29.9069 14.9255 Z " />
<path stroke="rgb(200,255,200)" stroke-opacity="1" fill="rgb(200,255,200)" fill-opacity="1" id="tri_2_3_" d="M-24.8607 23.5226 L-23.869 21.8119 L-22.8773 20.1012 L-21.8856 18.3904 L-20.8939 16.6797 L-19.9022 14.969 L-18.9173 16.6815 L-17.9324 18.3941 L-16.9474 20.1066 L-15.9625 21.8191 L-14.9776 23.5317 L-16.9542 23.5299 L-18.9308 23.528 L-20.9075 23.5262 L-22.8841 23.5244 L-24.8607 23.5226 Z " />
<path stroke="rgb(200,255,200)" stroke-opacity="1" fill="rgb(200,255,200)" fill-opacity="1" id="tri_1_2_" d="M-19.9462 14.929 L-20.9349 16.6466 L-21.9235 18.3642 L-22.9122 20.0818 L-23.9009 21.7994 L-24.8896 23.517 L-25.881 21.8037 L-26.8724 20.0903 L-27.8638 18.3769 L-28.8552 16.6636 L-29.8466 14.9502 L-27.8665 14.946 L-25.8864 14.9418 L-23.9063 14.9375 L-21.9263 14.9333 L-19.9462 14.929 Z " />
<path stroke="rgb(200,255,200)" stroke-opacity="1" fill="rgb(200,255,200)" fill-opacity="1" id="tri_3_3_" d="M-14.8903 23.4824 L-13.8937 21.7817 L-12.8971 20.0809 L-11.9005 18.3802 L-10.9039 16.6794 L-9.90728 14.9787 L-8.93451 16.6912 L-7.96174 18.4038 L-6.98897 20.1164 L-6.0162 21.829 L-5.04343 23.5416 L-7.01281 23.5297 L-8.98218 23.5179 L-10.9515 23.5061 L-12.9209 23.4942 L-14.8903 23.4824 Z " />
<path stroke="rgb(200,255,200)" stroke-opacity="1" fill="rgb(200,255,200)" fill-opacity="1" id="tri_2_2_" d="M-9.98104 14.9369 L-10.9727 16.6484 L-11.9644 18.36 L-12.9561 20.0715 L-13.9478 21.783 L-14.9395 23.4945 L-15.9245 21.782 L-16.9094 20.0694 L-17.8943 18.3569 L-18.8793 16.6443 L-19.8642 14.9318 L-17.8876 14.9328 L-15.9109 14.9339 L-13.9343 14.9349 L-11.9577 14.9359 L-9.98104 14.9369 Z " />
<path stroke="rgb(200,255,200)" stroke-opacity="1" fill="rgb(200,255,200)" fill-opacity="1" id="tri_4_3_" d="M-4.92022 23.4242 L-3.91517 21.7413 L-2.91011 20.0584 L-1.90505 18.3755 L-0.899996 16.6926 L0.105061 15.0098 L1.05871 16.719 L2.01236 18.4283 L2.96601 20.1375 L3.91966 21.8468 L4.8733 23.556 L2.9146 23.5297 L0.955893 23.5033 L-1.00281 23.4769 L-2.96152 23.4506 L-4.92022 23.4242 Z " />
<path stroke="rgb(200,255,200)" stroke-opacity="1" fill="rgb(200,255,200)" fill-opacity="1" id="tri_3_2_" d="M-0.0167563 14.9644 L-1.01375 16.6648 L-2.01075 18.3651 L-3.00774 20.0655 L-4.00473 21.7658 L-5.00173 23.4662 L-5.9745 21.7536 L-6.94727 20.041 L-7.92003 18.3284 L-8.8928 16.6158 L-9.86557 14.9033 L-7.89581 14.9155 L-5.92604 14.9277 L-3.95628 14.94 L-1.98652 14.9522 L-0.0167563 14.9644 Z " />
<path stroke="rgb(200,255,200)" stroke-opacity="1" fill="rgb(200,255,200)" fill-opacity="1" id="tri_5_3_" d="M5.05395 23.3406 L6.06941 21.6824 L7.08486 20.0242 L8.10031 18.3659 L9.11576 16.7077 L10.1312 15.0495 L11.0585 16.7568 L11.9858 18.4642 L12.9131 20.1715 L13.8404 21.8788 L14.7677 23.5861 L12.825 23.537 L10.8822 23.4879 L8.93946 23.4388 L6.99671 23.3897 L5.05395 23.3406 Z " />
<path stroke="rgb(200,255,200)" stroke-opacity="1" fill="rgb(200,255,200)" fill-opacity="1" id="tri_4_2_" d="M9.94293 15.0069 L8.93847 16.6892 L7.93402 18.3715 L6.92956 20.0538 L5.9251 21.7361 L4.92064 23.4184 L3.96699 21.7092 L3.01334 19.9999 L2.0597 18.2906 L1.10605 16.5814 L0.152397 14.8721 L2.11051 14.8991 L4.06861 14.926 L6.02672 14.953 L7.98482 14.9799 L9.94293 15.0069 Z " />
<path stroke="rgb(200,255,200)" stroke-opacity="1" fill="rgb(200,255,200)" fill-opacity="1" id="tri_6_3_" d="M15.0282 23.2399 L16.0585 21.6135 L17.0888 19.9871 L18.1191 18.3607 L19.1493 16.7343 L20.1796 15.108 L21.0721 16.8112 L21.9646 18.5145 L22.8571 20.2177 L23.7496 21.921 L24.6422 23.6242 L22.7194 23.5474 L20.7966 23.4705 L18.8738 23.3936 L16.951 23.3167 L15.0282 23.2399 Z " />
<path stroke="rgb(200,255,200)" stroke-opacity="1" fill="rgb(200,255,200)" fill-opacity="1" id="tri_5_2_" d="M19.9035 15.0709 L18.8874 16.7293 L17.8714 18.3877 L16.8553 20.0461 L15.8393 21.7045 L14.8232 23.3629 L13.8959 21.6556 L12.9686 19.9483 L12.0413 18.2409 L11.114 16.5336 L10.1867 14.8263 L12.1301 14.8752 L14.0734 14.9242 L16.0168 14.9731 L17.9601 15.022 L19.9035 15.0709 Z " />
<path stroke="rgb(200,255,200)" stroke-opacity="1" fill="rgb(200,255,200)" fill-opacity="1" id="tri_7_3_" d="M25.0102 23.1086 L26.0583 21.5238 L27.1064 19.9389 L28.1545 18.3541 L29.2026 16.7693 L30.2507 15.1845 L31.0976 16.8825 L31.9445 18.5804 L32.7915 20.2784 L33.6384 21.9764 L34.4853 23.6744 L32.5903 23.5612 L30.6953 23.4481 L28.8002 23.3349 L26.9052 23.2217 L25.0102 23.1086 Z " />
<path stroke="rgb(200,255,200)" stroke-opacity="1" fill="rgb(200,255,200)" fill-opacity="1" id="tri_6_2_" d="M29.861 15.1549 L28.8307 16.7815 L27.8004 18.4081 L26.7701 20.0346 L25.7398 21.6612 L24.7096 23.2878 L23.8171 21.5845 L22.9245 19.8813 L22.032 18.178 L21.1395 16.4748 L20.247 14.7715 L22.1698 14.8482 L24.0926 14.9249 L26.0154 15.0016 L27.9382 15.0783 L29.861 15.1549 Z " />
<path stroke="rgb(200,255,200)" stroke-opacity="1" fill="rgb(200,255,200)" fill-opacity="1" id="tri_8_2_" d="M34.9956 22.9506 L36.064 21.4174 L37.1325 19.8842 L38.2009 18.351 L39.2694 16.8178 L40.3378 15.2846 L41.1308 16.9751 L41.9238 18.6655 L42.7168 20.356 L43.5097 22.0464 L44.3027 23.7369 L42.4413 23.5797 L40.5799 23.4224 L38.7185 23.2651 L36.857 23.1079 L34.9956 22.9506 Z " />
<path stroke="rgb(200,255,200)" stroke-opacity="1" fill="rgb(200,255,200)" fill-opacity="1" id="tri_7_2_" d="M39.8087 15.2684 L38.761 16.8531 L37.7133 18.4377 L36.6656 20.0224 L35.6179 21.607 L34.5702 23.1917 L33.7233 21.4937 L32.8764 19.7957 L32.0294 18.0977 L31.1825 16.3998 L30.3356 14.7018 L32.2302 14.8151 L34.1249 14.9284 L36.0195 15.0418 L37.9141 15.1551 L39.8087 15.2684 Z " />
<path stroke="rgb(200,255,200)" stroke-opacity="1" fill="rgb(200,255,200)" fill-opacity="1" id="tri_0_2_" d="M-49.771 32.2087 L-48.7842 30.487 L-47.7974 28.7653 L-46.8105 27.0436 L-45.8237 25.3219 L-44.8369 23.6002 L-43.8399 25.3142 L-42.843 27.0281 L-41.846 28.7421 L-40.849 30.4561 L-39.8521 32.17 L-41.8359 32.1778 L-43.8196 32.1855 L-45.8034 32.1932 L-47.7872 32.201 L-49.771 32.2087 Z " />
<path stroke="rgb(200,255,200)" stroke-opacity="1" fill="rgb(200,255,200)" fill-opacity="1" id="tri_1_1_" d="M-39.802 32.1885 L-38.8135 30.4705 L-37.825 28.7525 L-36.8365 27.0345 L-35.8481 25.3165 L-34.8596 23.5985 L-33.8672 25.3119 L-32.8748 27.0252 L-31.8824 28.7386 L-30.89 30.4519 L-29.8976 32.1653 L-31.8785 32.1699 L-33.8594 32.1746 L-35.8402 32.1792 L-37.8211 32.1838 L-39.802 32.1885 Z " />
<path stroke="rgb(200,255,200)" stroke-opacity="1" fill="rgb(200,255,200)" fill-opacity="1" id="tri_0_1_" d="M-34.8846 23.5608 L-35.8714 25.2829 L-36.8582 27.005 L-37.8451 28.7271 L-38.8319 30.4492 L-39.8187 32.1713 L-40.8157 30.4574 L-41.8126 28.7434 L-42.8096 27.0294 L-43.8066 25.3155 L-44.8035 23.6015 L-42.8197 23.5934 L-40.836 23.5852 L-38.8522 23.5771 L-36.8684 23.569 L-34.8846 23.5608 Z " />
<path stroke="rgb(200,255,200)" stroke-opacity="1" fill="rgb(200,255,200)" fill-opacity="1" id="tri_2_1_" d="M-29.8334 32.1579 L-28.8423 30.4472 L-27.8512 28.7365 L-26.8601 27.0258 L-25.869 25.315 L-24.8779 23.6043 L-23.8926 25.3175 L-22.9072 27.0306 L-21.9219 28.7437 L-20.9366 30.4569 L-19.9513 32.17 L-21.9277 32.1676 L-23.9041 32.1652 L-25.8805 32.1628 L-27.857 32.1604 L-29.8334 32.1579 Z " />
<path stroke="rgb(200,255,200)" stroke-opacity="1" fill="rgb(200,255,200)" fill-opacity="1" id="tri_1" d="M-24.9219 23.5644 L-25.91 25.282 L-26.898 26.9996 L-27.8861 28.7172 L-28.8742 30.4348 L-29.8623 32.1524 L-30.8547 30.439 L-31.8471 28.7256 L-32.8394 27.0123 L-33.8318 25.2989 L-34.8242 23.5856 L-32.8438 23.5813 L-30.8633 23.5771 L-28.8828 23.5728 L-26.9023 23.5686 L-24.9219 23.5644 Z " />
<path stroke="rgb(200,255,200)" stroke-opacity="1" fill="rgb(200,255,200)" fill-opacity="1" id="tri_3_1_" d="M-19.864 32.1207 L-18.8678 30.4202 L-17.8716 28.7196 L-16.8754 27.0191 L-15.8792 25.3185 L-14.883 23.618 L-13.91 25.3298 L-12.937 27.0415 L-11.964 28.7533 L-10.9911 30.4651 L-10.0181 32.1769 L-11.9873 32.1657 L-13.9565 32.1545 L-15.9256 32.1432 L-17.8948 32.132 L-19.864 32.1207 Z " />
<path stroke="rgb(200,255,200)" stroke-opacity="1" fill="rgb(200,255,200)" fill-opacity="1" id="tri_2" d="M-14.9567 23.5762 L-15.948 25.2875 L-16.9393 26.9989 L-17.9306 28.7102 L-18.9219 30.4215 L-19.9132 32.1328 L-20.8986 30.4197 L-21.8839 28.7065 L-22.8692 26.9934 L-23.8545 25.2803 L-24.8399 23.5671 L-22.8632 23.569 L-20.8866 23.5708 L-18.91 23.5726 L-16.9334 23.5744 L-14.9567 23.5762 Z " />
<path stroke="rgb(200,255,200)" stroke-opacity="1" fill="rgb(200,255,200)" fill-opacity="1" id="tri_4_1_" d="M-9.89491 32.0596 L-8.89045 30.3771 L-7.88599 28.6946 L-6.88153 27.0121 L-5.87707 25.3295 L-4.87261 23.647 L-3.91876 25.3563 L-2.96492 27.0656 L-2.01107 28.7748 L-1.05723 30.4841 L-0.103381 32.1933 L-2.06169 32.1666 L-4.01999 32.1398 L-5.9783 32.1131 L-7.93661 32.0863 L-9.89491 32.0596 Z " />
<path stroke="rgb(200,255,200)" stroke-opacity="1" fill="rgb(200,255,200)" fill-opacity="1" id="tri_3" d="M-4.99442 23.6017 L-5.99082 25.3017 L-6.98722 27.0017 L-7.98361 28.7016 L-8.98001 30.4016 L-9.97641 32.1016 L-10.9494 30.3898 L-11.9224 28.678 L-12.8953 26.9662 L-13.8683 25.2544 L-14.8413 23.5426 L-12.8719 23.5544 L-10.9025 23.5662 L-8.93316 23.5781 L-6.96379 23.5899 L-4.99442 23.6017 Z " />
<path stroke="rgb(200,255,200)" stroke-opacity="1" fill="rgb(200,255,200)" fill-opacity="1" id="tri_5_1_" d="M0.0772712 31.9778 L1.09313 30.3191 L2.10899 28.6603 L3.12485 27.0015 L4.1407 25.3427 L5.15656 23.6839 L6.08385 25.3916 L7.01114 27.0993 L7.93843 28.807 L8.86572 30.5147 L9.79301 32.2225 L7.84986 32.1735 L5.90671 32.1246 L3.96357 32.0757 L2.02042 32.0268 L0.0772712 31.9778 Z " />
<path stroke="rgb(200,255,200)" stroke-opacity="1" fill="rgb(200,255,200)" fill-opacity="1" id="tri_4" d="M4.96825 23.6413 L3.96339 25.3242 L2.95853 27.0071 L1.95367 28.6899 L0.948809 30.3728 L-0.056051 32.0557 L-1.0099 30.3465 L-1.96374 28.6372 L-2.91759 26.9279 L-3.87143 25.2187 L-4.82528 23.5094 L-2.86657 23.5358 L-0.907864 23.5622 L1.05084 23.5885 L3.00955 23.6149 L4.96825 23.6413 Z " />
<path stroke="rgb(200,255,200)" stroke-opacity="1" fill="rgb(200,255,200)" fill-opacity="1" id="tri_6_1_" d="M10.0535 31.8762 L11.0832 30.2496 L12.1129 28.623 L13.1426 26.9964 L14.1723 25.3698 L15.202 23.7432 L16.0953 25.4467 L16.9886 27.1502 L17.8819 28.8537 L18.7751 30.5571 L19.6684 32.2606 L17.7454 32.1837 L15.8225 32.1069 L13.8995 32.03 L11.9765 31.9531 L10.0535 31.8762 Z " />
<path stroke="rgb(200,255,200)" stroke-opacity="1" fill="rgb(200,255,200)" fill-opacity="1" id="tri_5" d="M14.9258 23.7062 L13.9104 25.3648 L12.8949 27.0234 L11.8794 28.682 L10.864 30.3406 L9.84851 31.9992 L8.92122 30.2915 L7.99393 28.5838 L7.06664 26.8761 L6.13935 25.1684 L5.21206 23.4607 L7.15481 23.5098 L9.09756 23.5589 L11.0403 23.608 L12.9831 23.6571 L14.9258 23.7062 Z " />
<path stroke="rgb(200,255,200)" stroke-opacity="1" fill="rgb(200,255,200)" fill-opacity="1" id="tri_7_1_" d="M20.0365 31.745 L21.0838 30.1602 L22.1312 28.5753 L23.1785 26.9904 L24.2258 25.4056 L25.2732 23.8207 L26.1206 25.5191 L26.9681 27.2175 L27.8156 28.9159 L28.663 30.6143 L29.5105 32.3127 L27.6157 32.1991 L25.7209 32.0856 L23.8261 31.9721 L21.9313 31.8586 L20.0365 31.745 Z " />
<path stroke="rgb(200,255,200)" stroke-opacity="1" fill="rgb(200,255,200)" fill-opacity="1" id="tri_6" d="M24.8833 23.7912 L23.8538 25.4178 L22.8243 27.0444 L21.7948 28.671 L20.7653 30.2976 L19.7358 31.9242 L18.8425 30.2207 L17.9492 28.5173 L17.0559 26.8138 L16.1627 25.1103 L15.2694 23.4068 L17.1922 23.4837 L19.115 23.5606 L21.0377 23.6375 L22.9605 23.7143 L24.8833 23.7912 Z " />
<path stroke="rgb(200,255,200)" stroke-opacity="1" fill="rgb(200,255,200)" fill-opacity="1" id="tri_8_1_" d="M30.0208 31.5889 L31.0891 30.0551 L32.1574 28.5213 L33.2257 26.9875 L34.294 25.4537 L35.3623 23.92 L36.1554 25.6106 L36.9486 27.3013 L37.7417 28.992 L38.5349 30.6826 L39.3281 32.3733 L37.4666 32.2164 L35.6051 32.0595 L33.7437 31.9026 L31.8822 31.7458 L30.0208 31.5889 Z " />
<path stroke="rgb(200,255,200)" stroke-opacity="1" fill="rgb(200,255,200)" fill-opacity="1" id="tri_7" d="M34.8331 23.9038 L33.7856 25.489 L32.738 27.0743 L31.6905 28.6595 L30.6429 30.2448 L29.5954 31.83 L28.7479 30.1316 L27.9004 28.4332 L27.0529 26.7348 L26.2055 25.0364 L25.358 23.338 L27.253 23.4512 L29.1481 23.5643 L31.0431 23.6775 L32.9381 23.7907 L34.8331 23.9038 Z " />
<path stroke="rgb(200,255,200)" stroke-opacity="1" fill="rgb(200,255,200)" fill-opacity="1" id="tri_9" d="M40.0185 31.3981 L41.1106 29.9284 L42.2026 28.4587 L43.2946 26.989 L44.3866 25.5193 L45.4787 24.0496 L46.2045 25.7284 L46.9304 27.4072 L47.6562 29.086 L48.3821 30.7648 L49.1079 32.4437 L47.29 32.2345 L45.4722 32.0254 L43.6543 31.8163 L41.8364 31.6072 L40.0185 31.3981 Z " />
<path stroke="rgb(200,255,200)" stroke-opacity="1" fill="rgb(200,255,200)" fill-opacity="1" id="tri_8" d="M44.7794 24.0451 L43.7112 25.5785 L42.6429 27.1119 L41.5746 28.6453 L40.5064 30.1787 L39.4381 31.7121 L38.6449 30.0215 L37.8518 28.3308 L37.0586 26.6402 L36.2655 24.9495 L35.4723 23.2588 L37.3337 23.4161 L39.1952 23.5733 L41.0566 23.7306 L42.918 23.8879 L44.7794 24.0451 Z " />
</g>
</g>
</svg>
