<!DOCTYPE svg>
<svg xmlns="http://www.w3.org/2000/svg" xmlns:xlink="http://www.w3.org/1999/xlink" width="600" height="600">
<g transform="translate(300.000000,300.000000)">
<g transform="scale(3.000000,3.000000)">
<path stroke="rgb(0,0,0)" stroke-opacity="1" fill="rgb(255,255,255)" fill-opacity="1" id="Layer_1" d="M107.411 107.089 L105.406 107.092 L103.402 107.095 L101.397 107.098 L99.3922 107.101 L97.3875 107.104 L95.3828 107.107 L93.3782 107.11 L91.3735 107.113 L89.3688 107.116 L87.3641 107.119 L85.3595 107.122 L83.3548 107.125 L81.3501 107.128 L79.3455 107.131 L77.3408 107.134 L75.3361 107.137 L73.3314 107.14 L71.3268 107.143 L69.3221 107.146 L67.3174 107.149 L65.3127 107.152 L63.3081 107.155 L61.3034 107.158 L59.2987 107.161 L57.2941 107.164 L55.2894 107.167 L53.2847 107.17 L51.28 107.173 L49.2754 107.176 L47.2707 107.179 L45.266 107.182 L43.2613 107.185 L41.2567 107.188 L39.252 107.191 L37.2473 107.194 L35.2426 107.197 L33.238 107.2 L31.2333 107.203 L29.2286 107.206 L27.224 107.209 L25.2193 107.212 L23.2146 107.215 L21.2099 107.218 L19.2053 107.221 L17.2006 107.224 L15.1959 107.227 L13.1912 107.23 L11.1866 107.233 L9.1819 107.236 L7.17723 107.239 L5.17256 107.242 L3.16788 107.245 L1.16321 107.248 L-0.841463 107.252 L-2.84614 107.255 L-4.85081 107.258 L-6.85548 107.261 L-8.86015 107.264 L-10.8648 107.267 L-12.8695 107.27 L-14.8742 107.273 L-16.8788 107.276 L-18.8835 107.279 L-20.8882 107.282 L-22.8929 107.285 L-24.8975 107.288 L-26.9022 107.291 L-28.9069 107.294 L-30.9116 107.297 L-32.9162 107.3 L-34.9209 107.303 L-36.9256 107.306 L-38.9302 107.309 L-40.9349 107.312 L-42.9396 107.315 L-44.9443 107.318 L-46.9489 107.321 L-48.9536 107.324 L-50.9583 107.327 L-52.963 107.33 L-54.9676 107.333 L-56.9723 107.336 L-58.977 107.339 L-60.9816 107.342 L-62.9863 107.345 L-64.991 107.348 L-66.9957 107.351 L-69.0003 107.354 L-71.005 107.357 L-73.0097 107.36 L-75.0144 107.363 L-77.019 107.366 L-79.0237 107.369 L-81.0284 107.372 L-83.0331 107.375 L-85.0377 107.378 L-87.0424 107.381 L-89.0471 107.384 L-91.0517 107.387 L-93.0564 107.39 L-95.0611 107.393 L-97.0658 107.396 L-99.0704 107.399 L-101.075 107.402 L-103.08 107.405 L-105.084 107.408 L-107.089 107.411 L-107.092 105.406 L-107.095 103.402 L-107.098 101.397 L-107.101 99.3922 L-107.104 97.3875 L-107.107 95.3828 L-107.11 93.3782 L-107.113 91.3735 L-107.116 89.3688 L-107.119 87.3641 L-107.122 85.3595 L-107.125 83.3548 L-107.128 81.3501 L-107.131 79.3455 L-107.134 77.3408 L-107.137 75.3361 L-107.14 73.3314 L-107.143 71.3268 L-107.146 69.3221 L-107.149 67.3174 L-107.152 65.3127 L-107.155 63.3081 L-107.158 61.3034 L-107.161 59.2987 L-107.164 57.2941 L-107.167 55.2894 L-107.17 53.2847 L-107.173 51.28 L-107.176 49.2754 L-107.179 47.2707 L-107.182 45.266 L-107.185 43.2613 L-107.188 41.2567 L-107.191 39.252 L-107.194 37.2473 L-107.197 35.2426 L-107.2 33.238 L-107.203 31.2333 L-107.206 29.2286 L-107.209 27.224 L-107.212 25.2193 L-107.215 23.2146 L-107.218 21.2099 L-107.221 19.2053 L-107.224 17.2006 L-107.227 15.1959 L-107.23 13.1912 L-107.233 11.1866 L-107.236 9.1819 L-107.239 7.17722 L-107.242 5.17255 L-107.245 3.16788 L-107.248 1.1632 L-107.251 -0.841469 L-107.255 -2.84614 L-107.258 -4.85081 L-107.261 -6.85549 L-107.264 -8.86016 L-107.267 -10.8648 L-107.27 -12.8695 L-107.273 -14.8742 L-107.276 -16.8789 L-107.279 -18.8835 L-107.282 -20.8882 L-107.285 -22.8929 L-107.288 -24.8975 L-107.291 -26.9022 L-107.294 -28.9069 L-107.297 -30.9116 L-107.3 -32.9162 L-107.303 -34.9209 L-107.306 -36.9256 L-107.309 -38.9303 L-107.312 -40.9349 L-107.315 -42.9396 L-107.318 -44.9443 L-107.321 -46.9489 L-107.324 -48.9536 L-107.327 -50.9583 L-107.33 -52.963 L-107.333 -54.9676 L-107.336 -56.9723 L-107.339 -58.977 L-107.342 -60.9817 L-107.345 -62.9863 L-107.348 -64.991 L-107.351 -66.9957 L-107.354 -69.0003 L-107.357 -71.005 L-107.36 -73.0097 L-107.363 -75.0144 L-107.366 -77.019 L-107.369 -79.0237 L-107.372 -81.0284 L-107.375 -83.0331 L-107.378 -85.0377 L-107.381 -87.0424 L-107.384 -89.0471 L-107.387 -91.0518 L-107.39 -93.0564 L-107.393 -95.0611 L-107.396 -97.0658 L-107.399 -99.0704 L-107.402 -101.075 L-107.405 -103.08 L-107.408 -105.084 L-107.411 -107.089 L-105.406 -107.092 L-103.402 -107.095 L-101.397 -107.098 L-99.3922 -107.101 L-97.3875 -107.104 L-95.3828 -107.107 L-93.3782 -107.11 L-91.3735 -107.113 L-89.3688 -107.116 L-87.3641 -107.119 L-85.3595 -107.122 L-83.3548 -107.125 L-81.3501 -107.128 L-79.3455 -107.131 L-77.3408 -107.134 L-75.3361 -107.137 L-73.3314 -107.14 L-71.3268 -107.143 L-69.3221 -107.146 L-67.3174 -107.149 L-65.3127 -107.152 L-63.3081 -107.155 L-61.3034 -107.158 L-59.2987 -107.161 L-57.2941 -107.164 L-55.2894 -107.167 L-53.2847 -107.17 L-51.28 -107.173 L-49.2754 -107.176 L-47.2707 -107.179 L-45.266 -107.182 L-43.2613 -107.185 L-41.2567 -107.188 L-39.252 -107.191 L-37.2473 -107.194 L-35.2426 -107.197 L-33.238 -107.2 L-31.2333 -107.203 L-29.2286 -107.206 L-27.224 -107.209 L-25.2193 -107.212 L-23.2146 -107.215 L-21.2099 -107.218 L-19.2053 -107.221 L-17.2006 -107.224 L-15.1959 -107.227 L-13.1912 -107.23 L-11.1866 -107.233 L-9.1819 -107.236 L-7.17723 -107.239 L-5.17256 -107.242 L-3.16788 -107.245 L-1.16321 -107.248 L0.841463 -107.252 L2.84614 -107.255 L4.85081 -107.258 L6.85548 -107.261 L8.86015 -107.264 L10.8648 -107.267 L12.8695 -107.27 L14.8742 -107.273 L16.8788 -107.276 L18.8835 -107.279 L20.8882 -107.282 L22.8929 -107.285 L24.8975 -107.288 L26.9022 -107.291 L28.9069 -107.294 L30.9116 -107.297 L32.9162 -107.3 L34.9209 -107.303 L36.9256 -107.306 L38.9302 -107.309 L40.9349 -107.312 L42.9396 -107.315 L44.9443 -107.318 L46.9489 -107.321 L48.9536 -107.324 L50.9583 -107.327 L52.963 -107.33 L54.9676 -107.333 L56.9723 -107.336 L58.977 -107.339 L60.9816 -107.342 L62.9863 -107.345 L64.991 -107.348 L66.9957 -107.351 L69.0003 -107.354 L71.005 -107.357 L73.0097 -107.36 L75.0144 -107.363 L77.019 -107.366 L79.0237 -107.369 L81.0284 -107.372 L83.0331 -107.375 L85.0377 -107.378 L87.0424 -107.381 L89.0471 -107.384 L91.0517 -107.387 L93.0564 -107.39 L95.0611 -107.393 L97.0658 -107.396 L99.0704 -107.399 L101.075 -107.402 L103.08 -107.405 L105.084 -107.408 L107.089 -107.411 L107.092 -105.406 L107.095 -103.402 L107.098 -101.397 L107.101 -99.3922 L107.104 -97.3875 L107.107 -95.3828 L107.11 -93.3782 L107.113 -91.3735 L107.116 -89.3688 L107.119 -87.3642 L107.122 -85.3595 L107.125 -83.3548 L107.128 -81.3501 L107.131 -79.3455 L107.134 -77.3408 L107.137 -75.3361 L107.14 -73.3314 L107.143 -71.3268 L107.146 -69.3221 L107.149 -67.3174 L107.152 -65.3128 L107.155 -63.3081 L107.158 -61.3034 L107.161 -59.2987 L107.164 -57.2941 L107.167 -55.2894 L107.17 -53.2847 L107.173 -51.28 L107.176 -49.2754 L107.179 -47.2707 L107.182 -45.266 L107.185 -43.2613 L107.188 -41.2567 L107.191 -39.252 L107.194 -37.2473 L107.197 -35.2427 L107.2 -33.238 L107.203 -31.2333 L107.206 -29.2286 L107.209 -27.224 L107.212 -25.2193 L107.215 -23.2146 L107.218 -21.2099 L107.221 -19.2053 L107.224 -17.2006 L107.227 -15.1959 L107.23 -13.1913 L107.233 -11.1866 L107.236 -9.18191 L107.239 -7.17724 L107.242 -5.17256 L107.245 -3.16789 L107.248 -1.16322 L107.251 0.841455 L107.255 2.84613 L107.258 4.8508 L107.261 6.85547 L107.264 8.86015 L107.267 10.8648 L107.27 12.8695 L107.273 14.8742 L107.276 16.8788 L107.279 18.8835 L107.282 20.8882 L107.285 22.8929 L107.288 24.8975 L107.291 26.9022 L107.294 28.9069 L107.297 30.9115 L107.3 32.9162 L107.303 34.9209 L107.306 36.9256 L107.309 38.9302 L107.312 40.9349 L107.315 42.9396 L107.318 44.9443 L107.321 46.9489 L107.324 48.9536 L107.327 50.9583 L107.33 52.963 L107.333 54.9676 L107.336 56.9723 L107.339 58.977 L107.342 60.9816 L107.345 62.9863 L107.348 64.991 L107.351 66.9957 L107.354 69.0003 L107.357 71.005 L107.36 73.0097 L107.363 75.0144 L107.366 77.019 L107.369 79.0237 L107.372 81.0284 L107.375 83.033 L107.378 85.0377 L107.381 87.0424 L107.384 89.0471 L107.387 91.0517 L107.39 93.0564 L107.393 95.0611 L107.396 97.0658 L107.399 99.0704 L107.402 101.075 L107.405 103.08 L107.408 105.084 L107.411 107.089 Z " />
<path stroke="rgb(169,255,187)" stroke-opacity="1" fill="rgb(169,255,187)" fill-opacity="1" id="scalebar" d="M-3.69904 -94.609 L-1.65554 -94.609 L0.387962 -94.609 L2.43146 -94.609 L4.47496 -94.609 L4.47496 -92.6686 L4.47496 -90.7281 L4.47496 -88.7876 L4.47496 -86.8472 L4.47496 -84.9067 L4.47496 -82.9663 L4.47496 -81.0258 L4.47496 -79.0853 L4.47496 -77.1449 L4.47496 -75.2044 L4.47496 -73.2639 L4.47496 -71.3235 L4.47496 -69.383 L2.43146 -69.383 L0.387962 -69.383 L-1.65554 -69.383 L-3.69904 -69.383 L-3.69904 -71.3235 L-3.69904 -73.2639 L-3.69904 -75.2044 L-3.69904 -77.1449 L-3.69904 -79.0853 L-3.69904 -81.0258 L-3.69904 -82.9663 L-3.69904 -84.9067 L-3.69904 -86.8472 L-3.69904 -88.7876 L-3.69904 -90.7281 L-3.69904 -92.6686 L-3.69904 -94.609 Z " />
<path stroke="rgb(200,255,200)" stroke-opacity="1" fill="rgb(200,255,200)" fill-opacity="1" id="scaleslider" d="M-6.69904 -84.5863 L-4.67418 -84.5863 L-2.64932 -84.5863 L-0.624466 -84.5863 L1.40039 -84.5863 L3.42525 -84.5863 L5.4501 -84.5863 L7.47496 -84.5863 L7.47496 -82.8596 L7.47496 -81.1329 L7.47496 -79.4063 L5.4501 -79.4063 L3.42525 -79.4063 L1.40039 -79.4063 L-0.624466 -79.4063 L-2.64932 -79.4063 L-4.67418 -79.4063 L-6.69904 -79.4063 L-6.69904 -81.1329 L-6.69904 -82.8596 L-6.69904 -84.5863 Z " />
<path stroke="rgb(255,134,106)" stroke-opacity="1" fill="rgb(255,134,106)" fill-opacity="1" id="tranbar" d="M-49.142 -86.146 L-47.0675 -86.146 L-44.993 -86.146 L-42.9185 -86.146 L-40.844 -86.146 L-40.844 -88.2208 L-40.844 -90.2955 L-40.844 -92.3703 L-40.844 -94.445 L-38.7685 -94.445 L-36.693 -94.445 L-34.6175 -94.445 L-32.542 -94.445 L-32.542 -92.3703 L-32.542 -90.2955 L-32.542 -88.2208 L-32.542 -86.146 L-30.4673 -86.146 L-28.3925 -86.146 L-26.3178 -86.146 L-24.243 -86.146 L-24.243 -84.0715 L-24.243 -81.997 L-24.243 -79.9225 L-24.243 -77.848 L-26.3178 -77.848 L-28.3925 -77.848 L-30.4673 -77.848 L-32.542 -77.848 L-32.542 -75.773 L-32.542 -73.698 L-32.542 -71.623 L-32.542 -69.548 L-34.6175 -69.548 L-36.693 -69.548 L-38.7685 -69.548 L-40.844 -69.548 L-40.844 -71.623 L-40.844 -73.698 L-40.844 -75.773 L-40.844 -77.848 L-42.9185 -77.848 L-44.993 -77.848 L-47.0675 -77.848 L-49.142 -77.848 L-49.142 -79.9225 L-49.142 -81.997 L-49.142 -84.0715 L-49.142 -86.146 Z " />
<path stroke="rgb(255,250,159)" stroke-opacity="1" fill="rgb(255,250,159)" fill-opacity="1" id="translider" d="M-39.248 -84.553 L-37.5447 -84.553 L-35.8414 -84.553 L-34.138 -84.553 L-34.138 -82.85 L-34.138 -81.147 L-34.138 -79.444 L-35.8414 -79.444 L-37.5447 -79.444 L-39.248 -79.444 L-39.248 -81.147 L-39.248 -82.85 L-39.248 -84.553 Z " />
<path stroke="rgb(254,204,128)" stroke-opacity="1" fill="rgb(254,204,128)" fill-opacity="1" id="rotate" d="M32.632 -73.62 L31.6646 -75.2952 L30.6972 -76.9704 L29.7298 -78.6456 L28.7624 -80.3208 L27.795 -81.996 L28.7624 -83.6714 L29.7298 -85.3468 L30.6972 -87.0222 L31.6646 -88.6976 L32.632 -90.373 L34.5668 -90.373 L36.5016 -90.373 L38.4364 -90.373 L40.3712 -90.373 L42.306 -90.373 L43.2734 -88.6976 L44.2408 -87.0222 L45.2082 -85.3468 L46.1756 -83.6714 L47.143 -81.996 L46.1756 -80.3208 L45.2082 -78.6456 L44.2408 -76.9704 L43.2734 -75.2952 L42.306 -73.62 L40.3712 -73.62 L38.4364 -73.62 L36.5016 -73.62 L34.5668 -73.62 L32.632 -73.62 Z " />
<path stroke="rgb(200,255,200)" stroke-opacity="1" fill="rgb(200,255,200)" fill-opacity="1" id="tri_0" d="M-5.06374 -45.5602 L-4.0688 -47.2895 L-3.07387 -49.0188 L-2.07893 -50.7481 L-1.08399 -52.4774 L-0.0890545 -54.2066 L0.911282 -52.481 L1.91162 -50.7553 L2.91195 -49.0296 L3.91229 -47.3039 L4.91262 -45.5782 L2.91735 -45.5746 L0.922077 -45.571 L-1.0732 -45.5674 L-3.06847 -45.5638 L-5.06374 -45.5602 Z " />
<path stroke="rgb(200,255,200)" stroke-opacity="1" fill="rgb(200,255,200)" fill-opacity="1" id="tri_0_18_" d="M-10.0337 -36.9132 L-9.0398 -38.6425 L-8.04587 -40.3718 L-7.05193 -42.1011 L-6.05799 -43.8304 L-5.06406 -45.5596 L-4.06332 -43.8338 L-3.06259 -42.1079 L-2.06185 -40.382 L-1.06111 -38.6561 L-0.0603766 -36.9302 L-2.05505 -36.9268 L-4.04972 -36.9234 L-6.04439 -36.92 L-8.03906 -36.9166 L-10.0337 -36.9132 Z " />
<path stroke="rgb(200,255,200)" stroke-opacity="1" fill="rgb(200,255,200)" fill-opacity="1" id="tri_1_16_" d="M-0.0598122 -36.9302 L0.934741 -38.6597 L1.92929 -40.3892 L2.92384 -42.1187 L3.9184 -43.8482 L4.91295 -45.5777 L5.9135 -43.8516 L6.91405 -42.1255 L7.91461 -40.3994 L8.91516 -38.6733 L9.91571 -36.9472 L7.9206 -36.9437 L5.9255 -36.9404 L3.9304 -36.937 L1.93529 -36.9336 L-0.0598122 -36.9302 Z " />
<path stroke="rgb(200,255,200)" stroke-opacity="1" fill="rgb(200,255,200)" fill-opacity="1" id="tri_0_17_" d="M4.91266 -45.5779 L3.91813 -43.8484 L2.92359 -42.1189 L1.92906 -40.3894 L0.93452 -38.6599 L-0.0600164 -36.9304 L-1.06075 -38.6563 L-2.06149 -40.3822 L-3.06223 -42.1081 L-4.06296 -43.834 L-5.0637 -45.5599 L-3.06843 -45.5635 L-1.07315 -45.5671 L0.922118 -45.5707 L2.91739 -45.5743 L4.91266 -45.5779 Z " />
<path stroke="rgb(200,255,200)" stroke-opacity="1" fill="rgb(200,255,200)" fill-opacity="1" id="tri_0_16_" d="M-15.0077 -28.2632 L-14.013 -29.9931 L-13.0183 -31.723 L-12.0235 -33.4529 L-11.0288 -35.1828 L-10.0341 -36.9126 L-9.03352 -35.186 L-8.03298 -33.4593 L-7.03245 -31.7326 L-6.03191 -30.0059 L-5.03138 -28.2792 L-7.02665 -28.276 L-9.02192 -28.2728 L-11.0172 -28.2696 L-13.0125 -28.2664 L-15.0077 -28.2632 Z " />
<path stroke="rgb(200,255,200)" stroke-opacity="1" fill="rgb(200,255,200)" fill-opacity="1" id="tri_1_15_" d="M-5.03081 -28.2792 L-4.03666 -30.0093 L-3.04251 -31.7394 L-2.04835 -33.4695 L-1.0542 -35.1996 L-0.0600501 -36.9297 L0.940702 -35.203 L1.94145 -33.4763 L2.9422 -31.7496 L3.94296 -30.0229 L4.94371 -28.2962 L2.9488 -28.2928 L0.9539 -28.2894 L-1.041 -28.286 L-3.03591 -28.2826 L-5.03081 -28.2792 Z " />
<path stroke="rgb(200,255,200)" stroke-opacity="1" fill="rgb(200,255,200)" fill-opacity="1" id="tri_0_15_" d="M-0.0603359 -36.9298 L-1.05447 -35.1998 L-2.04861 -33.4697 L-3.04274 -31.7396 L-4.03688 -30.0095 L-5.03102 -28.2794 L-6.03155 -30.0061 L-7.03209 -31.7328 L-8.03262 -33.4595 L-9.03316 -35.1862 L-10.0337 -36.9129 L-8.03902 -36.9163 L-6.04435 -36.9197 L-4.04968 -36.923 L-2.05501 -36.9264 L-0.0603359 -36.9298 Z " />
<path stroke="rgb(200,255,200)" stroke-opacity="1" fill="rgb(200,255,200)" fill-opacity="1" id="tri_2_14_" d="M4.94412 -28.2961 L5.93849 -30.0263 L6.93285 -31.7564 L7.92722 -33.4865 L8.92159 -35.2167 L9.91595 -36.9468 L10.9163 -35.2199 L11.9167 -33.4929 L12.917 -31.766 L13.9174 -30.0391 L14.9178 -28.3121 L12.923 -28.3089 L10.9283 -28.3057 L8.93359 -28.3025 L6.93885 -28.2993 L4.94412 -28.2961 Z " />
<path stroke="rgb(200,255,200)" stroke-opacity="1" fill="rgb(200,255,200)" fill-opacity="1" id="tri_1_14_" d="M9.91574 -36.9469 L8.92139 -35.2168 L7.92703 -33.4867 L6.93268 -31.7565 L5.93833 -30.0264 L4.94398 -28.2963 L3.94322 -30.023 L2.94247 -31.7497 L1.94172 -33.4765 L0.94097 -35.2032 L-0.0597819 -36.9299 L1.93532 -36.9333 L3.93043 -36.9367 L5.92553 -36.9401 L7.92063 -36.9435 L9.91574 -36.9469 Z " />
<path stroke="rgb(200,255,200)" stroke-opacity="1" fill="rgb(200,255,200)" fill-opacity="1" id="tri_0_14_" d="M-19.9807 -19.6122 L-18.9862 -21.3423 L-17.9917 -23.0724 L-16.9971 -24.8025 L-16.0026 -26.5326 L-15.0081 -28.2626 L-14.0079 -26.5362 L-13.0078 -24.8097 L-12.0077 -23.0832 L-11.0075 -21.3567 L-10.0074 -19.6302 L-12.0021 -19.6266 L-13.9967 -19.623 L-15.9914 -19.6194 L-17.9861 -19.6158 L-19.9807 -19.6122 Z " />
<path stroke="rgb(200,255,200)" stroke-opacity="1" fill="rgb(200,255,200)" fill-opacity="1" id="tri_1_13_" d="M-10.0068 -19.6302 L-9.01166 -21.3599 L-8.01651 -23.0896 L-7.02136 -24.8193 L-6.0262 -26.549 L-5.03105 -28.2787 L-4.0305 -26.5526 L-3.02995 -24.8265 L-2.0294 -23.1004 L-1.02884 -21.3743 L-0.0282918 -19.6482 L-2.024 -19.6446 L-4.0197 -19.641 L-6.01541 -19.6374 L-8.01111 -19.6338 L-10.0068 -19.6302 Z " />
<path stroke="rgb(200,255,200)" stroke-opacity="1" fill="rgb(200,255,200)" fill-opacity="1" id="tri_0_13_" d="M-5.03134 -28.2788 L-6.02647 -26.5492 L-7.02161 -24.8195 L-8.01675 -23.0898 L-9.01189 -21.3601 L-10.007 -19.6304 L-11.0072 -21.3569 L-12.0073 -23.0834 L-13.0074 -24.8099 L-14.0076 -26.5364 L-15.0077 -28.2629 L-13.0124 -28.266 L-11.0172 -28.2692 L-9.02188 -28.2724 L-7.02661 -28.2756 L-5.03134 -28.2788 Z " />
<path stroke="rgb(200,255,200)" stroke-opacity="1" fill="rgb(200,255,200)" fill-opacity="1" id="tri_2_13_" d="M-0.027877 -19.6481 L0.966489 -21.3777 L1.96085 -23.1072 L2.95522 -24.8367 L3.94959 -26.5663 L4.94395 -28.2958 L5.94432 -26.5693 L6.94468 -24.8427 L7.94505 -23.1162 L8.94541 -21.3897 L9.94578 -19.6631 L7.95105 -19.6601 L5.95632 -19.6571 L3.96159 -19.6541 L1.96685 -19.6511 L-0.027877 -19.6481 Z " />
<path stroke="rgb(200,255,200)" stroke-opacity="1" fill="rgb(200,255,200)" fill-opacity="1" id="tri_1_12_" d="M4.94374 -28.2959 L3.94939 -26.5664 L2.95503 -24.8369 L1.96068 -23.1073 L0.966329 -21.3778 L-0.0280236 -19.6483 L-1.02857 -21.3744 L-2.02913 -23.1005 L-3.02968 -24.8267 L-4.03023 -26.5528 L-5.03078 -28.2789 L-3.03588 -28.2823 L-1.04097 -28.2857 L0.95393 -28.2891 L2.94884 -28.2925 L4.94374 -28.2959 Z " />
<path stroke="rgb(200,255,200)" stroke-opacity="1" fill="rgb(200,255,200)" fill-opacity="1" id="tri_3_12_" d="M9.94607 -19.6631 L10.9404 -21.3928 L11.9348 -23.1226 L12.9292 -24.8524 L13.9236 -26.5821 L14.918 -28.3119 L15.9189 -26.5861 L16.9199 -24.8604 L17.9209 -23.1346 L18.9219 -21.4088 L19.9228 -19.6831 L17.9275 -19.6791 L15.9321 -19.6751 L13.9368 -19.6711 L11.9414 -19.6671 L9.94607 -19.6631 Z " />
<path stroke="rgb(200,255,200)" stroke-opacity="1" fill="rgb(200,255,200)" fill-opacity="1" id="tri_2_12_" d="M14.9178 -28.3119 L13.9234 -26.5822 L12.9291 -24.8525 L11.9347 -23.1227 L10.9403 -21.393 L9.94597 -19.6632 L8.94561 -21.3898 L7.94524 -23.1163 L6.94488 -24.8429 L5.94451 -26.5694 L4.94414 -28.2959 L6.93888 -28.2991 L8.93361 -28.3023 L10.9283 -28.3055 L12.9231 -28.3087 L14.9178 -28.3119 Z " />
<path stroke="rgb(200,255,200)" stroke-opacity="1" fill="rgb(200,255,200)" fill-opacity="1" id="tri_0_12_" d="M-24.9527 -10.9672 L-23.9584 -12.6961 L-22.9641 -14.425 L-21.9697 -16.1539 L-20.9754 -17.8828 L-19.9811 -19.6116 L-18.9805 -17.8856 L-17.98 -16.1595 L-16.9795 -14.4334 L-15.9789 -12.7073 L-14.9784 -10.9812 L-16.9732 -10.9784 L-18.9681 -10.9756 L-20.963 -10.9728 L-22.9579 -10.97 L-24.9527 -10.9672 Z " />
<path stroke="rgb(200,255,200)" stroke-opacity="1" fill="rgb(200,255,200)" fill-opacity="1" id="tri_1_11_" d="M-14.9778 -10.9812 L-13.9837 -12.7109 L-12.9895 -14.4406 L-11.9954 -16.1703 L-11.0012 -17.9 L-10.0071 -19.6297 L-9.0063 -17.9034 L-8.00555 -16.1771 L-7.0048 -14.4508 L-6.00404 -12.7245 L-5.00329 -10.9982 L-6.99819 -10.9948 L-8.9931 -10.9914 L-10.988 -10.988 L-12.9829 -10.9846 L-14.9778 -10.9812 Z " />
<path stroke="rgb(200,255,200)" stroke-opacity="1" fill="rgb(200,255,200)" fill-opacity="1" id="tri_0_11_" d="M-10.0073 -19.6299 L-11.0015 -17.9002 L-11.9956 -16.1705 L-12.9897 -14.4408 L-13.9839 -12.7111 L-14.978 -10.9814 L-15.9786 -12.7075 L-16.9791 -14.4336 L-17.9796 -16.1597 L-18.9802 -17.8858 L-19.9807 -19.6118 L-17.986 -19.6155 L-15.9914 -19.6191 L-13.9967 -19.6227 L-12.002 -19.6263 L-10.0073 -19.6299 Z " />
<path stroke="rgb(200,255,200)" stroke-opacity="1" fill="rgb(200,255,200)" fill-opacity="1" id="tri_2_11_" d="M-5.00288 -10.9981 L-4.00791 -12.7281 L-3.01294 -14.458 L-2.01798 -16.1879 L-1.02301 -17.9179 L-0.0280485 -19.6478 L0.971916 -17.9215 L1.97188 -16.1951 L2.97185 -14.4688 L3.97181 -12.7425 L4.97178 -11.0161 L2.97685 -11.0125 L0.981918 -11.0089 L-1.01301 -11.0053 L-3.00795 -11.0017 L-5.00288 -10.9981 Z " />
<path stroke="rgb(200,255,200)" stroke-opacity="1" fill="rgb(200,255,200)" fill-opacity="1" id="tri_1_10_" d="M-0.0282616 -19.6479 L-1.02321 -17.918 L-2.01817 -16.1881 L-3.01312 -14.4581 L-4.00807 -12.7282 L-5.00302 -10.9983 L-6.00377 -12.7246 L-7.00453 -14.4509 L-8.00528 -16.1773 L-9.00604 -17.9036 L-10.0068 -19.6299 L-8.01108 -19.6335 L-6.01538 -19.6371 L-4.01967 -19.6407 L-2.02397 -19.6443 L-0.0282616 -19.6479 Z " />
<path stroke="rgb(200,255,200)" stroke-opacity="1" fill="rgb(200,255,200)" fill-opacity="1" id="tri_3_11_" d="M4.97207 -11.0161 L5.96685 -12.7454 L6.96163 -14.4748 L7.9564 -16.2042 L8.95118 -17.9335 L9.94595 -19.6629 L10.9465 -17.9367 L11.9471 -16.2106 L12.9477 -14.4844 L13.9483 -12.7583 L14.9488 -11.0321 L12.9535 -11.0289 L10.9581 -11.0257 L8.96278 -11.0225 L6.96743 -11.0193 L4.97207 -11.0161 Z " />
<path stroke="rgb(200,255,200)" stroke-opacity="1" fill="rgb(200,255,200)" fill-opacity="1" id="tri_2_10_" d="M9.9458 -19.6629 L8.95104 -17.9336 L7.95627 -16.2042 L6.9615 -14.4749 L5.96674 -12.7456 L4.97197 -11.0162 L3.97201 -12.7426 L2.97204 -14.4689 L1.97208 -16.1953 L0.97211 -17.9216 L-0.0278552 -19.6479 L1.96688 -19.6509 L3.96161 -19.6539 L5.95634 -19.6569 L7.95107 -19.6599 L9.9458 -19.6629 Z " />
<path stroke="rgb(200,255,200)" stroke-opacity="1" fill="rgb(200,255,200)" fill-opacity="1" id="tri_4_10_" d="M14.949 -11.0321 L15.9438 -12.7622 L16.9386 -14.4924 L17.9334 -16.2226 L18.9282 -17.9528 L19.923 -19.6829 L20.9233 -17.9562 L21.9237 -16.2294 L22.9241 -14.5026 L23.9245 -12.7758 L24.9249 -11.0491 L22.9297 -11.0457 L20.9345 -11.0423 L18.9394 -11.0389 L16.9442 -11.0355 L14.949 -11.0321 Z " />
<path stroke="rgb(200,255,200)" stroke-opacity="1" fill="rgb(200,255,200)" fill-opacity="1" id="tri_3_10_" d="M19.9228 -19.683 L18.9281 -17.9528 L17.9333 -16.2226 L16.9385 -14.4925 L15.9437 -12.7623 L14.949 -11.0322 L13.9484 -12.7583 L12.9478 -14.4845 L11.9472 -16.2106 L10.9467 -17.9368 L9.94609 -19.663 L11.9414 -19.667 L13.9368 -19.671 L15.9321 -19.675 L17.9275 -19.679 L19.9228 -19.683 Z " />
<path stroke="rgb(200,255,200)" stroke-opacity="1" fill="rgb(200,255,200)" fill-opacity="1" id="tri_0_10_" d="M-29.9257 -2.3162 L-28.9312 -4.04629 L-27.9367 -5.77638 L-26.9421 -7.50647 L-25.9476 -9.23655 L-24.9531 -10.9666 L-23.9525 -9.23955 L-22.952 -7.51246 L-21.9515 -5.78538 L-20.9509 -4.05829 L-19.9504 -2.3312 L-21.9454 -2.3282 L-23.9405 -2.3252 L-25.9356 -2.3222 L-27.9307 -2.3192 L-29.9257 -2.3162 Z " />
<path stroke="rgb(200,255,200)" stroke-opacity="1" fill="rgb(200,255,200)" fill-opacity="1" id="tri_1_9_" d="M-19.9498 -2.33115 L-18.9555 -4.06107 L-17.9611 -5.79099 L-16.9668 -7.52091 L-15.9724 -9.25082 L-14.978 -10.9807 L-13.9775 -9.25442 L-12.9769 -7.52811 L-11.9764 -5.80179 L-10.9758 -4.07547 L-9.97529 -2.34915 L-11.9702 -2.34555 L-13.9651 -2.34195 L-15.96 -2.33835 L-17.9549 -2.33475 L-19.9498 -2.33115 Z " />
<path stroke="rgb(200,255,200)" stroke-opacity="1" fill="rgb(200,255,200)" fill-opacity="1" id="tri_0_9_" d="M-14.9783 -10.9809 L-15.9727 -9.25096 L-16.967 -7.52107 L-17.9613 -5.79118 L-18.9557 -4.06129 L-19.95 -2.33141 L-20.9506 -4.0585 L-21.9511 -5.78559 L-22.9516 -7.51267 L-23.9522 -9.23976 L-24.9527 -10.9669 L-22.9578 -10.9697 L-20.963 -10.9725 L-18.9681 -10.9753 L-16.9732 -10.9781 L-14.9783 -10.9809 Z " />
<path stroke="rgb(200,255,200)" stroke-opacity="1" fill="rgb(200,255,200)" fill-opacity="1" id="tri_2_9_" d="M-9.97488 -2.34912 L-8.98051 -4.07886 L-7.98614 -5.8086 L-6.99178 -7.53834 L-5.99741 -9.26808 L-5.00305 -10.9978 L-4.00228 -9.27168 L-3.00152 -7.54554 L-2.00075 -5.8194 L-0.999987 -4.09326 L0.000778418 -2.36712 L-1.99435 -2.36352 L-3.98948 -2.35992 L-5.98461 -2.35632 L-7.97974 -2.35272 L-9.97488 -2.34912 Z " />
<path stroke="rgb(200,255,200)" stroke-opacity="1" fill="rgb(200,255,200)" fill-opacity="1" id="tri_1_8_" d="M-5.00326 -10.9979 L-5.99761 -9.26818 L-6.99196 -7.53846 L-7.98632 -5.80874 L-8.98067 -4.07902 L-9.97502 -2.34931 L-10.9756 -4.07562 L-11.9761 -5.80194 L-12.9767 -7.52826 L-13.9772 -9.25458 L-14.9778 -10.9809 L-12.9829 -10.9843 L-10.988 -10.9877 L-8.99307 -10.9911 L-6.99816 -10.9945 L-5.00326 -10.9979 Z " />
<path stroke="rgb(200,255,200)" stroke-opacity="1" fill="rgb(200,255,200)" fill-opacity="1" id="tri_3_9_" d="M0.00107277 -2.36709 L0.995248 -4.09685 L1.98943 -5.82661 L2.9836 -7.55637 L3.97778 -9.28612 L4.97195 -11.0159 L5.97253 -9.28952 L6.97311 -7.56316 L7.97368 -5.83681 L8.97426 -4.11045 L9.97483 -2.38409 L7.98008 -2.38069 L5.98533 -2.37729 L3.99058 -2.37389 L1.99583 -2.37049 L0.00107277 -2.36709 Z " />
<path stroke="rgb(200,255,200)" stroke-opacity="1" fill="rgb(200,255,200)" fill-opacity="1" id="tri_2_8_" d="M4.9718 -11.0159 L3.97764 -9.28619 L2.98347 -7.55645 L1.9893 -5.82671 L0.995137 -4.09697 L0.000971659 -2.36723 L-0.999793 -4.09337 L-2.00056 -5.81951 L-3.00132 -7.54565 L-4.00209 -9.27179 L-5.00285 -10.9979 L-3.00792 -11.0015 L-1.01299 -11.0051 L0.981939 -11.0087 L2.97687 -11.0123 L4.9718 -11.0159 Z " />
<path stroke="rgb(200,255,200)" stroke-opacity="1" fill="rgb(200,255,200)" fill-opacity="1" id="tri_4_9_" d="M9.97503 -2.38407 L10.9698 -4.11364 L11.9646 -5.84321 L12.9594 -7.57279 L13.9542 -9.30236 L14.949 -11.0319 L15.9497 -9.30576 L16.9505 -7.57959 L17.9513 -5.85341 L18.9521 -4.12724 L19.9529 -2.40107 L17.9573 -2.39767 L15.9617 -2.39427 L13.9662 -2.39087 L11.9706 -2.38747 L9.97503 -2.38407 Z " />
<path stroke="rgb(200,255,200)" stroke-opacity="1" fill="rgb(200,255,200)" fill-opacity="1" id="tri_3_8_" d="M14.9488 -11.032 L13.9541 -9.3024 L12.9593 -7.57285 L11.9645 -5.84329 L10.9697 -4.11373 L9.97497 -2.38417 L8.97439 -4.11053 L7.97382 -5.83688 L6.97324 -7.56324 L5.97266 -9.2896 L4.97209 -11.016 L6.96744 -11.0192 L8.96279 -11.0224 L10.9581 -11.0256 L12.9535 -11.0288 L14.9488 -11.032 Z " />
<path stroke="rgb(200,255,200)" stroke-opacity="1" fill="rgb(200,255,200)" fill-opacity="1" id="tri_5_8_" d="M19.953 -2.40105 L20.9474 -4.13063 L21.9418 -5.86022 L22.9362 -7.5898 L23.9306 -9.31939 L24.925 -11.049 L25.9253 -9.32279 L26.9257 -7.5966 L27.9261 -5.87042 L28.9265 -4.14423 L29.9269 -2.41805 L27.9321 -2.41465 L25.9373 -2.41125 L23.9426 -2.40785 L21.9478 -2.40445 L19.953 -2.40105 Z " />
<path stroke="rgb(200,255,200)" stroke-opacity="1" fill="rgb(200,255,200)" fill-opacity="1" id="tri_4_8_" d="M24.9249 -11.049 L23.9305 -9.31941 L22.9361 -7.58984 L21.9417 -5.86026 L20.9474 -4.13069 L19.953 -2.40112 L18.9522 -4.12729 L17.9514 -5.85346 L16.9506 -7.57964 L15.9498 -9.30581 L14.949 -11.032 L16.9442 -11.0354 L18.9394 -11.0388 L20.9345 -11.0422 L22.9297 -11.0456 L24.9249 -11.049 Z " />
<path stroke="rgb(200,255,200)" stroke-opacity="1" fill="rgb(200,255,200)" fill-opacity="1" id="tri_0_8_" d="M-34.9007 6.3338 L-33.9058 4.60391 L-32.9109 2.87402 L-31.9159 1.14413 L-30.921 -0.585755 L-29.9261 -2.31564 L-28.9257 -0.589354 L-27.9254 1.13693 L-26.9251 2.86322 L-25.9247 4.58951 L-24.9244 6.3158 L-26.9197 6.3194 L-28.9149 6.323 L-30.9102 6.3266 L-32.9055 6.3302 L-34.9007 6.3338 Z " />
<path stroke="rgb(200,255,200)" stroke-opacity="1" fill="rgb(200,255,200)" fill-opacity="1" id="tri_1_7_" d="M-24.9238 6.31584 L-23.9291 4.58653 L-22.9343 2.85721 L-21.9396 1.12789 L-20.9448 -0.601424 L-19.95 -2.33074 L-18.9501 -0.604623 L-17.9501 1.12149 L-16.9502 2.84761 L-15.9502 4.57373 L-14.9503 6.29984 L-16.945 6.30304 L-18.9397 6.30624 L-20.9344 6.30944 L-22.9291 6.31264 L-24.9238 6.31584 Z " />
<path stroke="rgb(200,255,200)" stroke-opacity="1" fill="rgb(200,255,200)" fill-opacity="1" id="tri_0_7_" d="M-19.9503 -2.33085 L-20.9451 -0.601562 L-21.9398 1.12773 L-22.9345 2.85701 L-23.9293 4.5863 L-24.924 6.31559 L-25.9244 4.5893 L-26.9247 2.86301 L-27.925 1.13673 L-28.9254 -0.589563 L-29.9257 -2.31585 L-27.9306 -2.31885 L-25.9356 -2.32185 L-23.9405 -2.32485 L-21.9454 -2.32785 L-19.9503 -2.33085 Z " />
<path stroke="rgb(200,255,200)" stroke-opacity="1" fill="rgb(200,255,200)" fill-opacity="1" id="tri_2_7_" d="M-14.9499 6.29988 L-13.9549 4.57014 L-12.9599 2.8404 L-11.965 1.11066 L-10.97 -0.619079 L-9.97505 -2.34882 L-8.97468 -0.622477 L-7.97432 1.10386 L-6.97395 2.8302 L-5.97359 4.55654 L-4.97322 6.28288 L-6.96855 6.28628 L-8.96388 6.28968 L-10.9592 6.29308 L-12.9545 6.29648 L-14.9499 6.29988 Z " />
<path stroke="rgb(200,255,200)" stroke-opacity="1" fill="rgb(200,255,200)" fill-opacity="1" id="tri_1_6_" d="M-9.97526 -2.34889 L-10.9702 -0.619177 L-11.9652 1.11054 L-12.9601 2.84026 L-13.9551 4.56997 L-14.95 6.29969 L-15.95 4.57357 L-16.9499 2.84745 L-17.9499 1.12134 L-18.9498 -0.604779 L-19.9498 -2.3309 L-17.9549 -2.33449 L-15.96 -2.33809 L-13.9651 -2.34169 L-11.9702 -2.34529 L-9.97526 -2.34889 Z " />
<path stroke="rgb(200,255,200)" stroke-opacity="1" fill="rgb(200,255,200)" fill-opacity="1" id="tri_3_7_" d="M-4.97293 6.28291 L-3.97815 4.55295 L-2.98337 2.82299 L-1.9886 1.09303 L-0.993821 -0.636927 L0.000954086 -2.36689 L1.00113 -0.640325 L2.00131 1.08623 L3.00148 2.81279 L4.00166 4.53935 L5.00183 6.26591 L3.00688 6.26931 L1.01193 6.27271 L-0.983022 6.27611 L-2.97797 6.27951 L-4.97293 6.28291 Z " />
<path stroke="rgb(200,255,200)" stroke-opacity="1" fill="rgb(200,255,200)" fill-opacity="1" id="tri_2_6_" d="M0.000800237 -2.36693 L-0.993965 -0.636994 L-1.98873 1.09295 L-2.9835 2.82289 L-3.97826 4.55283 L-4.97303 6.28277 L-5.97339 4.55643 L-6.97376 2.83009 L-7.97412 1.10375 L-8.97449 -0.622589 L-9.97485 -2.34893 L-7.97972 -2.35253 L-5.98459 -2.35613 L-3.98946 -2.35973 L-1.99433 -2.36333 L0.000800237 -2.36693 Z " />
<path stroke="rgb(200,255,200)" stroke-opacity="1" fill="rgb(200,255,200)" fill-opacity="1" id="tri_4_7_" d="M5.00203 6.26593 L5.99662 4.53596 L6.9912 2.80599 L7.98579 1.07601 L8.98037 -0.65396 L9.97496 -2.38393 L10.9757 -0.65776 L11.9765 1.06841 L12.9773 2.79458 L13.9781 4.52076 L14.9789 6.24693 L12.9835 6.25073 L10.9881 6.25453 L8.99277 6.25833 L6.9974 6.26213 L5.00203 6.26593 Z " />
<path stroke="rgb(200,255,200)" stroke-opacity="1" fill="rgb(200,255,200)" fill-opacity="1" id="tri_3_6_" d="M9.97485 -2.38396 L8.98027 -0.654003 L7.9857 1.07596 L6.99112 2.80592 L5.99654 4.53588 L5.00197 6.26583 L4.00179 4.53927 L3.00162 2.81271 L2.00144 1.08616 L1.00126 -0.640403 L0.00108787 -2.36696 L1.99584 -2.37036 L3.99059 -2.37376 L5.98534 -2.37716 L7.9801 -2.38056 L9.97485 -2.38396 Z " />
<path stroke="rgb(200,255,200)" stroke-opacity="1" fill="rgb(200,255,200)" fill-opacity="1" id="tri_5_7_" d="M14.979 6.24695 L15.9738 4.51736 L16.9686 2.78778 L17.9634 1.0582 L18.9582 -0.671384 L19.953 -2.40097 L20.9532 -0.673983 L21.9533 1.053 L22.9535 2.77998 L23.9537 4.50697 L24.9539 6.23395 L22.9589 6.23655 L20.964 6.23915 L18.969 6.24175 L16.974 6.24435 L14.979 6.24695 Z " />
<path stroke="rgb(200,255,200)" stroke-opacity="1" fill="rgb(200,255,200)" fill-opacity="1" id="tri_4_6_" d="M19.9529 -2.40098 L18.9581 -0.671409 L17.9633 1.05816 L16.9685 2.78773 L15.9737 4.51731 L14.979 6.24688 L13.9782 4.52071 L12.9774 2.79453 L11.9766 1.06836 L10.9758 -0.657811 L9.97504 -2.38398 L11.9706 -2.38738 L13.9662 -2.39078 L15.9618 -2.39418 L17.9573 -2.39758 L19.9529 -2.40098 Z " />
<path stroke="rgb(200,255,200)" stroke-opacity="1" fill="rgb(200,255,200)" fill-opacity="1" id="tri_6_6_" d="M24.954 6.23396 L25.9486 4.50357 L26.9432 2.77318 L27.9378 1.04279 L28.9324 -0.687599 L29.927 -2.41799 L30.9278 -0.6918 L31.9285 1.03439 L32.9293 2.76058 L33.9301 4.48677 L34.9309 6.21296 L32.9356 6.21716 L30.9402 6.22136 L28.9448 6.22556 L26.9494 6.22976 L24.954 6.23396 Z " />
<path stroke="rgb(200,255,200)" stroke-opacity="1" fill="rgb(200,255,200)" fill-opacity="1" id="tri_5_6_" d="M29.9269 -2.418 L28.9323 -0.687612 L27.9377 1.04277 L26.9431 2.77315 L25.9486 4.50354 L24.954 6.23392 L23.9538 4.50694 L22.9536 2.77995 L21.9534 1.05297 L20.9532 -0.674014 L19.953 -2.401 L21.9478 -2.4044 L23.9426 -2.4078 L25.9374 -2.4112 L27.9321 -2.4146 L29.9269 -2.418 Z " />
<path stroke="rgb(200,255,200)" stroke-opacity="1" fill="rgb(200,255,200)" fill-opacity="1" id="tri_0_6_" d="M-39.8727 14.9838 L-38.8784 13.2539 L-37.8841 11.524 L-36.8897 9.79414 L-35.8954 8.06425 L-34.9011 6.33436 L-33.8999 8.06085 L-32.8988 9.78733 L-31.8976 11.5138 L-30.8965 13.2403 L-29.8954 14.9668 L-31.8908 14.9702 L-33.8863 14.9736 L-35.8818 14.977 L-37.8773 14.9804 L-39.8727 14.9838 Z " />
<path stroke="rgb(200,255,200)" stroke-opacity="1" fill="rgb(200,255,200)" fill-opacity="1" id="tri_1_5_" d="M-29.8948 14.9668 L-28.9007 13.2367 L-27.9065 11.5066 L-26.9124 9.77649 L-25.9182 8.04637 L-24.9241 6.31626 L-23.9239 8.04297 L-22.9237 9.76969 L-21.9236 11.4964 L-20.9234 13.2231 L-19.9233 14.9498 L-21.9176 14.9532 L-23.9119 14.9566 L-25.9062 14.96 L-27.9005 14.9634 L-29.8948 14.9668 Z " />
<path stroke="rgb(200,255,200)" stroke-opacity="1" fill="rgb(200,255,200)" fill-opacity="1" id="tri_0_5_" d="M-24.9243 6.31615 L-25.9185 8.04623 L-26.9126 9.77632 L-27.9067 11.5064 L-28.9009 13.2365 L-29.895 14.9666 L-30.8962 13.2401 L-31.8973 11.5136 L-32.8984 9.78713 L-33.8996 8.06064 L-34.9007 6.33415 L-32.9054 6.33055 L-30.9102 6.32695 L-28.9149 6.32335 L-26.9196 6.31975 L-24.9243 6.31615 Z " />
<path stroke="rgb(200,255,200)" stroke-opacity="1" fill="rgb(200,255,200)" fill-opacity="1" id="tri_2_5_" d="M-19.9229 14.9499 L-18.9283 13.2199 L-17.9337 11.49 L-16.9392 9.76006 L-15.9446 8.03012 L-14.95 6.30018 L-13.9493 8.02592 L-12.9485 9.75166 L-11.9478 11.4774 L-10.947 13.2031 L-9.94622 14.9289 L-11.9416 14.9331 L-13.9369 14.9373 L-15.9322 14.9415 L-17.9275 14.9457 L-19.9229 14.9499 Z " />
<path stroke="rgb(200,255,200)" stroke-opacity="1" fill="rgb(200,255,200)" fill-opacity="1" id="tri_1_4_" d="M-14.9503 6.3001 L-15.9448 8.03002 L-16.9394 9.75994 L-17.9339 11.4899 L-18.9285 13.2198 L-19.923 14.9497 L-20.9232 13.223 L-21.9233 11.4963 L-22.9235 9.76954 L-23.9236 8.04282 L-24.9238 6.3161 L-22.9291 6.3129 L-20.9344 6.3097 L-18.9397 6.3065 L-16.945 6.3033 L-14.9503 6.3001 Z " />
<path stroke="rgb(200,255,200)" stroke-opacity="1" fill="rgb(200,255,200)" fill-opacity="1" id="tri_3_5_" d="M-9.94593 14.9289 L-8.95135 13.1998 L-7.95677 11.4706 L-6.9622 9.74144 L-5.96762 8.01228 L-4.97304 6.28312 L-3.97227 8.00968 L-2.97149 9.73624 L-1.97072 11.4628 L-0.969942 13.1894 L0.0308335 14.9159 L-1.96452 14.9185 L-3.95987 14.9211 L-5.95522 14.9237 L-7.95057 14.9263 L-9.94593 14.9289 Z " />
<path stroke="rgb(200,255,200)" stroke-opacity="1" fill="rgb(200,255,200)" fill-opacity="1" id="tri_2_4_" d="M-4.9732 6.28307 L-5.96777 8.01221 L-6.96233 9.74135 L-7.9569 11.4705 L-8.95146 13.1996 L-9.94603 14.9288 L-10.9468 13.203 L-11.9476 11.4773 L-12.9483 9.75155 L-13.9491 8.02581 L-14.9499 6.30007 L-12.9545 6.29667 L-10.9592 6.29327 L-8.96386 6.28987 L-6.96853 6.28647 L-4.9732 6.28307 Z " />
<path stroke="rgb(200,255,200)" stroke-opacity="1" fill="rgb(200,255,200)" fill-opacity="1" id="tri_4_5_" d="M0.0310334 14.9159 L1.02522 13.186 L2.0194 11.456 L3.01359 9.72602 L4.00777 7.99604 L5.00196 6.26607 L6.00254 7.99244 L7.00312 9.71881 L8.00371 11.4452 L9.00429 13.1716 L10.0049 14.8979 L8.01011 14.9015 L6.01534 14.9051 L4.02057 14.9087 L2.0258 14.9123 L0.0310334 14.9159 Z " />
<path stroke="rgb(200,255,200)" stroke-opacity="1" fill="rgb(200,255,200)" fill-opacity="1" id="tri_3_4_" d="M5.00185 6.26604 L4.00767 7.996 L3.0135 9.72596 L2.01932 11.4559 L1.02514 13.1859 L0.0309673 14.9158 L-0.969808 13.1893 L-1.97058 11.4627 L-2.97136 9.73616 L-3.97214 8.0096 L-4.97291 6.28304 L-2.97796 6.27964 L-0.983007 6.27624 L1.01195 6.27284 L3.0069 6.26944 L5.00185 6.26604 Z " />
<path stroke="rgb(200,255,200)" stroke-opacity="1" fill="rgb(200,255,200)" fill-opacity="1" id="tri_5_5_" d="M10.005 14.8979 L10.9998 13.1678 L11.9946 11.4376 L12.9894 9.7074 L13.9842 7.97721 L14.979 6.24703 L15.9795 7.97401 L16.9801 9.701 L17.9807 11.428 L18.9813 13.155 L19.9819 14.8819 L17.9865 14.8851 L15.9911 14.8883 L13.9958 14.8915 L12.0004 14.8947 L10.005 14.8979 Z " />
<path stroke="rgb(200,255,200)" stroke-opacity="1" fill="rgb(200,255,200)" fill-opacity="1" id="tri_4_4_" d="M14.9789 6.24701 L13.9841 7.97719 L12.9893 9.70736 L11.9945 11.4375 L10.9997 13.1677 L10.005 14.8979 L9.00438 13.1715 L8.0038 11.4451 L7.00321 9.71876 L6.00263 7.99239 L5.00204 6.26602 L6.99741 6.26222 L8.99278 6.25842 L10.9881 6.25462 L12.9835 6.25081 L14.9789 6.24701 Z " />
<path stroke="rgb(200,255,200)" stroke-opacity="1" fill="rgb(200,255,200)" fill-opacity="1" id="tri_6_5_" d="M19.982 14.882 L20.9764 13.1524 L21.9708 11.4228 L22.9652 9.69319 L23.9596 7.9636 L24.954 6.23401 L25.955 7.9598 L26.956 9.68559 L27.9569 11.4114 L28.9579 13.1372 L29.9589 14.863 L27.9636 14.8668 L25.9682 14.8706 L23.9728 14.8744 L21.9774 14.8782 L19.982 14.882 Z " />
<path stroke="rgb(200,255,200)" stroke-opacity="1" fill="rgb(200,255,200)" fill-opacity="1" id="tri_5_4_" d="M24.9539 6.234 L23.9595 7.96359 L22.9651 9.69317 L21.9707 11.4228 L20.9764 13.1523 L19.982 14.8819 L18.9814 13.1549 L17.9808 11.4279 L16.9802 9.70096 L15.9796 7.97398 L14.979 6.247 L16.974 6.2444 L18.969 6.2418 L20.964 6.2392 L22.9589 6.2366 L24.9539 6.234 Z " />
<path stroke="rgb(200,255,200)" stroke-opacity="1" fill="rgb(200,255,200)" fill-opacity="1" id="tri_7_4_" d="M29.959 14.863 L30.9534 13.133 L31.9478 11.403 L32.9422 9.67298 L33.9366 7.94299 L34.931 6.21299 L35.931 7.93959 L36.931 9.66618 L37.931 11.3928 L38.931 13.1194 L39.931 14.846 L37.9366 14.8494 L35.9422 14.8528 L33.9478 14.8562 L31.9534 14.8596 L29.959 14.863 Z " />
<path stroke="rgb(200,255,200)" stroke-opacity="1" fill="rgb(200,255,200)" fill-opacity="1" id="tri_6_4_" d="M34.9309 6.21299 L33.9365 7.94298 L32.9422 9.67297 L31.9478 11.403 L30.9534 13.133 L29.959 14.8629 L28.958 13.1372 L27.957 11.4114 L26.956 9.68557 L25.955 7.95978 L24.954 6.23399 L26.9494 6.22979 L28.9448 6.22559 L30.9402 6.22139 L32.9356 6.21719 L34.9309 6.21299 Z " />
<path stroke="rgb(200,255,200)" stroke-opacity="1" fill="rgb(200,255,200)" fill-opacity="1" id="tri_0_4_" d="M-44.8467 23.6338 L-43.852 21.9039 L-42.8573 20.174 L-41.8625 18.4441 L-40.8678 16.7142 L-39.8731 14.9844 L-38.8725 16.7104 L-37.872 18.4365 L-36.8715 20.1626 L-35.8709 21.8887 L-34.8704 23.6148 L-36.8657 23.6186 L-38.8609 23.6224 L-40.8562 23.6262 L-42.8515 23.63 L-44.8467 23.6338 Z " />
<path stroke="rgb(200,255,200)" stroke-opacity="1" fill="rgb(200,255,200)" fill-opacity="1" id="tri_1_3_" d="M-34.8698 23.6148 L-33.8749 21.8853 L-32.8799 20.1558 L-31.885 18.4263 L-30.89 16.6968 L-29.895 14.9673 L-28.8953 16.6934 L-27.8955 18.4195 L-26.8958 20.1456 L-25.896 21.8717 L-24.8963 23.5978 L-26.891 23.6012 L-28.8857 23.6046 L-30.8804 23.608 L-32.8751 23.6114 L-34.8698 23.6148 Z " />
<path stroke="rgb(200,255,200)" stroke-opacity="1" fill="rgb(200,255,200)" fill-opacity="1" id="tri_0_3_" d="M-29.8953 14.9671 L-30.8903 16.6966 L-31.8852 18.4261 L-32.8801 20.1556 L-33.8751 21.8851 L-34.87 23.6146 L-35.8706 21.8885 L-36.8711 20.1624 L-37.8716 18.4363 L-38.8722 16.7102 L-39.8727 14.9842 L-37.8772 14.9808 L-35.8818 14.9773 L-33.8863 14.9739 L-31.8908 14.9705 L-29.8953 14.9671 Z " />
<path stroke="rgb(200,255,200)" stroke-opacity="1" fill="rgb(200,255,200)" fill-opacity="1" id="tri_2_3_" d="M-24.8959 23.5979 L-23.9013 21.8683 L-22.9067 20.1388 L-21.9122 18.4093 L-20.9176 16.6797 L-19.923 14.9502 L-18.9223 16.6763 L-17.9215 18.4025 L-16.9207 20.1286 L-15.92 21.8547 L-14.9192 23.5809 L-16.9146 23.5843 L-18.9099 23.5877 L-20.9052 23.5911 L-22.9005 23.5945 L-24.8959 23.5979 Z " />
<path stroke="rgb(200,255,200)" stroke-opacity="1" fill="rgb(200,255,200)" fill-opacity="1" id="tri_1_2_" d="M-19.9233 14.9501 L-20.9178 16.6796 L-21.9124 18.4091 L-22.9069 20.1387 L-23.9015 21.8682 L-24.896 23.5977 L-25.8958 21.8716 L-26.8955 20.1455 L-27.8953 18.4193 L-28.895 16.6932 L-29.8948 14.9671 L-27.9005 14.9637 L-25.9062 14.9603 L-23.9119 14.9569 L-21.9176 14.9535 L-19.9233 14.9501 Z " />
<path stroke="rgb(200,255,200)" stroke-opacity="1" fill="rgb(200,255,200)" fill-opacity="1" id="tri_3_3_" d="M-14.9189 23.5809 L-13.9243 21.8505 L-12.9298 20.1202 L-11.9352 18.3898 L-10.9406 16.6595 L-9.94604 14.9291 L-8.94567 16.6565 L-7.94529 18.3838 L-6.94492 20.1112 L-5.94454 21.8385 L-4.94416 23.5659 L-6.93912 23.5689 L-8.93407 23.5719 L-10.929 23.5749 L-12.924 23.5779 L-14.9189 23.5809 Z " />
<path stroke="rgb(200,255,200)" stroke-opacity="1" fill="rgb(200,255,200)" fill-opacity="1" id="tri_2_2_" d="M-9.9462 14.9291 L-10.9408 16.6594 L-11.9353 18.3897 L-12.9299 20.1201 L-13.9245 21.8504 L-14.919 23.5808 L-15.9198 21.8546 L-16.9206 20.1285 L-17.9213 18.4023 L-18.9221 16.6762 L-19.9229 14.9501 L-17.9275 14.9459 L-15.9322 14.9417 L-13.9369 14.9375 L-11.9415 14.9333 L-9.9462 14.9291 Z " />
<path stroke="rgb(200,255,200)" stroke-opacity="1" fill="rgb(200,255,200)" fill-opacity="1" id="tri_4_3_" d="M-4.94397 23.5659 L-3.94898 21.836 L-2.954 20.106 L-1.95901 18.376 L-0.964029 16.646 L0.0309553 14.9161 L1.03134 16.6418 L2.03172 18.3676 L3.03211 20.0934 L4.03249 21.8192 L5.03288 23.5449 L3.03751 23.5491 L1.04214 23.5533 L-0.953228 23.5575 L-2.9486 23.5617 L-4.94397 23.5659 Z " />
<path stroke="rgb(200,255,200)" stroke-opacity="1" fill="rgb(200,255,200)" fill-opacity="1" id="tri_3_2_" d="M0.0308486 14.916 L-0.964127 16.646 L-1.9591 18.376 L-2.95408 20.1059 L-3.94906 21.8359 L-4.94403 23.5658 L-5.94441 21.8385 L-6.94478 20.1111 L-7.94516 18.3838 L-8.94553 16.6564 L-9.94591 14.929 L-7.95056 14.9264 L-5.95521 14.9238 L-3.95986 14.9212 L-1.9645 14.9186 L0.0308486 14.916 Z " />
<path stroke="rgb(200,255,200)" stroke-opacity="1" fill="rgb(200,255,200)" fill-opacity="1" id="tri_5_3_" d="M5.033 23.5449 L6.02739 21.8156 L7.02178 20.0862 L8.01618 18.3568 L9.01057 16.6274 L10.005 14.898 L11.0053 16.6244 L12.0057 18.3508 L13.0061 20.0772 L14.0065 21.8036 L15.0069 23.5299 L13.0121 23.533 L11.0173 23.536 L9.02257 23.5389 L7.02779 23.5419 L5.033 23.5449 Z " />
<path stroke="rgb(200,255,200)" stroke-opacity="1" fill="rgb(200,255,200)" fill-opacity="1" id="tri_4_2_" d="M10.0049 14.898 L9.0105 16.6274 L8.01612 18.3568 L7.02173 20.0861 L6.02735 21.8155 L5.03296 23.5449 L4.03258 21.8191 L3.0322 20.0933 L2.03181 18.3676 L1.03143 16.6418 L0.0310433 14.916 L2.02581 14.9124 L4.02058 14.9088 L6.01535 14.9052 L8.01012 14.9016 L10.0049 14.898 Z " />
<path stroke="rgb(200,255,200)" stroke-opacity="1" fill="rgb(200,255,200)" fill-opacity="1" id="tri_6_3_" d="M15.007 23.53 L16.002 21.8004 L16.997 20.0708 L17.992 18.3412 L18.987 16.6116 L19.982 14.882 L20.9824 16.608 L21.9828 18.334 L22.9831 20.06 L23.9835 21.786 L24.9839 23.512 L22.9885 23.5156 L20.9932 23.5192 L18.9978 23.5228 L17.0024 23.5264 L15.007 23.53 Z " />
<path stroke="rgb(200,255,200)" stroke-opacity="1" fill="rgb(200,255,200)" fill-opacity="1" id="tri_5_2_" d="M19.9819 14.882 L18.9869 16.6116 L17.9919 18.3412 L16.9969 20.0708 L16.002 21.8003 L15.007 23.5299 L14.0066 21.8035 L13.0062 20.0772 L12.0058 18.3508 L11.0054 16.6244 L10.005 14.898 L12.0004 14.8948 L13.9958 14.8916 L15.9912 14.8884 L17.9865 14.8852 L19.9819 14.882 Z " />
<path stroke="rgb(200,255,200)" stroke-opacity="1" fill="rgb(200,255,200)" fill-opacity="1" id="tri_7_3_" d="M24.984 23.512 L25.979 21.7822 L26.974 20.0524 L27.969 18.3226 L28.964 16.5928 L29.959 14.863 L30.9588 16.5892 L31.9586 18.3154 L32.9584 20.0416 L33.9582 21.7678 L34.9579 23.494 L32.9632 23.4976 L30.9684 23.5012 L28.9736 23.5048 L26.9788 23.5084 L24.984 23.512 Z " />
<path stroke="rgb(200,255,200)" stroke-opacity="1" fill="rgb(200,255,200)" fill-opacity="1" id="tri_6_2_" d="M29.9589 14.863 L28.9639 16.5928 L27.969 18.3226 L26.974 20.0524 L25.979 21.7821 L24.984 23.5119 L23.9836 21.7859 L22.9832 20.06 L21.9828 18.334 L20.9824 16.608 L19.982 14.882 L21.9774 14.8782 L23.9728 14.8744 L25.9682 14.8706 L27.9636 14.8668 L29.9589 14.863 Z " />
<path stroke="rgb(200,255,200)" stroke-opacity="1" fill="rgb(200,255,200)" fill-opacity="1" id="tri_8_2_" d="M34.958 23.494 L35.9526 21.7644 L36.9472 20.0348 L37.9418 18.3052 L38.9364 16.5756 L39.931 14.846 L40.9318 16.5724 L41.9326 18.2988 L42.9334 20.0252 L43.9342 21.7516 L44.935 23.478 L42.9396 23.4812 L40.9442 23.4844 L38.9488 23.4876 L36.9534 23.4908 L34.958 23.494 Z " />
<path stroke="rgb(200,255,200)" stroke-opacity="1" fill="rgb(200,255,200)" fill-opacity="1" id="tri_7_2_" d="M39.931 14.846 L38.9364 16.5756 L37.9418 18.3052 L36.9472 20.0348 L35.9526 21.7644 L34.958 23.494 L33.9582 21.7678 L32.9584 20.0416 L31.9586 18.3154 L30.9588 16.5892 L29.959 14.863 L31.9534 14.8596 L33.9478 14.8562 L35.9422 14.8528 L37.9366 14.8494 L39.931 14.846 Z " />
<path stroke="rgb(200,255,200)" stroke-opacity="1" fill="rgb(200,255,200)" fill-opacity="1" id="tri_0_2_" d="M-49.8187 32.2818 L-48.8244 30.5523 L-47.8301 28.8228 L-46.8357 27.0933 L-45.8414 25.3638 L-44.8471 23.6344 L-43.8461 25.3604 L-42.8452 27.0865 L-41.8443 28.8126 L-40.8433 30.5387 L-39.8424 32.2648 L-41.8377 32.2682 L-43.8329 32.2716 L-45.8282 32.275 L-47.8235 32.2784 L-49.8187 32.2818 Z " />
<path stroke="rgb(200,255,200)" stroke-opacity="1" fill="rgb(200,255,200)" fill-opacity="1" id="tri_1_1_" d="M-39.8418 32.2648 L-38.8475 30.5349 L-37.8531 28.805 L-36.8588 27.0751 L-35.8644 25.3452 L-34.8701 23.6153 L-33.8693 25.3414 L-32.8685 27.0675 L-31.8678 28.7936 L-30.867 30.5197 L-29.8663 32.2459 L-31.8614 32.2496 L-33.8565 32.2534 L-35.8516 32.2572 L-37.8467 32.261 L-39.8418 32.2648 Z " />
<path stroke="rgb(200,255,200)" stroke-opacity="1" fill="rgb(200,255,200)" fill-opacity="1" id="tri_0_1_" d="M-34.8703 23.6151 L-35.8647 25.345 L-36.859 27.0749 L-37.8533 28.8048 L-38.8477 30.5347 L-39.842 32.2646 L-40.843 30.5385 L-41.8439 28.8124 L-42.8448 27.0863 L-43.8458 25.3602 L-44.8467 23.6342 L-42.8514 23.6304 L-40.8562 23.6265 L-38.8609 23.6227 L-36.8656 23.6189 L-34.8703 23.6151 Z " />
<path stroke="rgb(200,255,200)" stroke-opacity="1" fill="rgb(200,255,200)" fill-opacity="1" id="tri_2_1_" d="M-29.8659 32.2459 L-28.8719 30.5163 L-27.8779 28.7868 L-26.884 27.0573 L-25.89 25.3277 L-24.8961 23.5982 L-23.8949 25.3249 L-22.8937 27.0517 L-21.8926 28.7784 L-20.8914 30.5051 L-19.8902 32.2319 L-21.8854 32.2347 L-23.8805 32.2375 L-25.8756 32.2403 L-27.8707 32.2431 L-29.8659 32.2459 Z " />
<path stroke="rgb(200,255,200)" stroke-opacity="1" fill="rgb(200,255,200)" fill-opacity="1" id="tri_1" d="M-24.8963 23.5981 L-25.8902 25.3276 L-26.8842 27.0571 L-27.8781 28.7867 L-28.8721 30.5162 L-29.866 32.2457 L-30.8668 30.5196 L-31.8675 28.7935 L-32.8683 27.0673 L-33.869 25.3412 L-34.8698 23.6151 L-32.8751 23.6117 L-30.8804 23.6083 L-28.8857 23.6049 L-26.891 23.6015 L-24.8963 23.5981 Z " />
<path stroke="rgb(200,255,200)" stroke-opacity="1" fill="rgb(200,255,200)" fill-opacity="1" id="tri_3_1_" d="M-19.8899 32.2319 L-18.8958 30.5017 L-17.9016 28.7716 L-16.9074 27.0414 L-15.9132 25.3113 L-14.919 23.5811 L-13.9185 25.3077 L-12.9179 27.0342 L-11.9173 28.7608 L-10.9167 30.4874 L-9.91617 32.2139 L-11.9109 32.2175 L-13.9057 32.2211 L-15.9004 32.2247 L-17.8952 32.2283 L-19.8899 32.2319 Z " />
<path stroke="rgb(200,255,200)" stroke-opacity="1" fill="rgb(200,255,200)" fill-opacity="1" id="tri_2" d="M-14.9192 23.5811 L-15.9134 25.3112 L-16.9075 27.0413 L-17.9017 28.7715 L-18.8959 30.5016 L-19.89 32.2318 L-20.8912 30.505 L-21.8924 28.7783 L-22.8935 27.0515 L-23.8947 25.3248 L-24.8959 23.5981 L-22.9005 23.5947 L-20.9052 23.5913 L-18.9099 23.5879 L-16.9145 23.5845 L-14.9192 23.5811 Z " />
<path stroke="rgb(200,255,200)" stroke-opacity="1" fill="rgb(200,255,200)" fill-opacity="1" id="tri_4_1_" d="M-9.91597 32.2139 L-8.92158 30.4844 L-7.9272 28.7548 L-6.93281 27.0252 L-5.93843 25.2956 L-4.94404 23.5661 L-3.94346 25.2918 L-2.94288 27.0176 L-1.94229 28.7434 L-0.941707 30.4692 L0.0588767 32.1949 L-1.93609 32.1987 L-3.93106 32.2025 L-5.92603 32.2063 L-7.921 32.2101 L-9.91597 32.2139 Z " />
<path stroke="rgb(200,255,200)" stroke-opacity="1" fill="rgb(200,255,200)" fill-opacity="1" id="tri_3" d="M-4.94415 23.566 L-5.93853 25.2956 L-6.9329 27.0252 L-7.92728 28.7547 L-8.92166 30.4843 L-9.91603 32.2138 L-10.9166 30.4873 L-11.9172 28.7607 L-12.9178 27.0342 L-13.9183 25.3076 L-14.9189 23.581 L-12.924 23.578 L-10.929 23.575 L-8.93405 23.572 L-6.9391 23.569 L-4.94415 23.566 Z " />
<path stroke="rgb(200,255,200)" stroke-opacity="1" fill="rgb(200,255,200)" fill-opacity="1" id="tri_5_1_" d="M0.059005 32.1949 L1.05379 30.465 L2.04859 28.735 L3.04338 27.005 L4.03817 25.275 L5.03296 23.545 L6.03335 25.2718 L7.03374 26.9986 L8.03413 28.7254 L9.03452 30.4522 L10.0349 32.179 L8.03973 32.1821 L6.04455 32.1853 L4.04937 32.1885 L2.05419 32.1917 L0.059005 32.1949 Z " />
<path stroke="rgb(200,255,200)" stroke-opacity="1" fill="rgb(200,255,200)" fill-opacity="1" id="tri_4" d="M5.03289 23.545 L4.0381 25.275 L3.04332 27.005 L2.04853 28.7349 L1.05375 30.4649 L0.0589647 32.1949 L-0.941619 30.4691 L-1.9422 28.7433 L-2.94279 27.0176 L-3.94337 25.2918 L-4.94396 23.566 L-2.94859 23.5618 L-0.953218 23.5576 L1.04215 23.5534 L3.03752 23.5492 L5.03289 23.545 Z " />
<path stroke="rgb(200,255,200)" stroke-opacity="1" fill="rgb(200,255,200)" fill-opacity="1" id="tri_6_1_" d="M10.035 32.179 L11.0294 30.4492 L12.0238 28.7194 L13.0182 26.9896 L14.0126 25.2598 L15.007 23.53 L16.0082 25.2562 L17.0093 26.9824 L18.0105 28.7086 L19.0117 30.4348 L20.0129 32.161 L18.0173 32.1646 L16.0218 32.1682 L14.0262 32.1718 L12.0306 32.1754 L10.035 32.179 Z " />
<path stroke="rgb(200,255,200)" stroke-opacity="1" fill="rgb(200,255,200)" fill-opacity="1" id="tri_5" d="M15.0069 23.53 L14.0125 25.2598 L13.0181 26.9896 L12.0237 28.7194 L11.0294 30.4491 L10.035 32.1789 L9.03458 30.4521 L8.03419 28.7254 L7.03379 26.9986 L6.0334 25.2718 L5.03301 23.545 L7.02779 23.542 L9.02257 23.539 L11.0174 23.536 L13.0121 23.533 L15.0069 23.53 Z " />
<path stroke="rgb(200,255,200)" stroke-opacity="1" fill="rgb(200,255,200)" fill-opacity="1" id="tri_7_1_" d="M20.013 32.161 L21.0072 30.4312 L22.0014 28.7014 L22.9956 26.9716 L23.9898 25.2418 L24.984 23.512 L25.9844 25.2386 L26.9848 26.9652 L27.9852 28.6918 L28.9856 30.4184 L29.9859 32.145 L27.9914 32.1482 L25.9968 32.1514 L24.0022 32.1546 L22.0076 32.1578 L20.013 32.161 Z " />
<path stroke="rgb(200,255,200)" stroke-opacity="1" fill="rgb(200,255,200)" fill-opacity="1" id="tri_6" d="M24.9839 23.512 L23.9897 25.2418 L22.9956 26.9716 L22.0014 28.7014 L21.0072 30.4312 L20.013 32.1609 L19.0118 30.4348 L18.0106 28.7086 L17.0094 26.9824 L16.0082 25.2562 L15.007 23.53 L17.0024 23.5264 L18.9978 23.5228 L20.9932 23.5192 L22.9885 23.5156 L24.9839 23.512 Z " />
<path stroke="rgb(200,255,200)" stroke-opacity="1" fill="rgb(200,255,200)" fill-opacity="1" id="tri_8_1_" d="M29.986 32.145 L30.9804 30.4148 L31.9748 28.6846 L32.9692 26.9544 L33.9636 25.2242 L34.958 23.494 L35.959 25.2206 L36.96 26.9472 L37.961 28.6738 L38.962 30.4004 L39.963 32.127 L37.9676 32.1306 L35.9722 32.1342 L33.9768 32.1378 L31.9814 32.1414 L29.986 32.145 Z " />
<path stroke="rgb(200,255,200)" stroke-opacity="1" fill="rgb(200,255,200)" fill-opacity="1" id="tri_7" d="M34.9579 23.494 L33.9636 25.2242 L32.9692 26.9544 L31.9748 28.6846 L30.9804 30.4148 L29.986 32.145 L28.9856 30.4184 L27.9852 28.6918 L26.9848 26.9652 L25.9844 25.2386 L24.984 23.512 L26.9788 23.5084 L28.9736 23.5048 L30.9684 23.5012 L32.9632 23.4976 L34.9579 23.494 Z " />
<path stroke="rgb(200,255,200)" stroke-opacity="1" fill="rgb(200,255,200)" fill-opacity="1" id="tri_9" d="M39.963 32.127 L40.9574 30.3972 L41.9518 28.6674 L42.9462 26.9376 L43.9406 25.2078 L44.935 23.478 L45.9356 25.204 L46.9362 26.93 L47.9368 28.656 L48.9374 30.382 L49.938 32.108 L47.943 32.1118 L45.948 32.1156 L43.953 32.1194 L41.958 32.1232 L39.963 32.127 Z " />
<path stroke="rgb(200,255,200)" stroke-opacity="1" fill="rgb(200,255,200)" fill-opacity="1" id="tri_8" d="M44.935 23.478 L43.9406 25.2078 L42.9462 26.9376 L41.9518 28.6674 L40.9574 30.3972 L39.963 32.127 L38.962 30.4004 L37.961 28.6738 L36.96 26.9472 L35.959 25.2206 L34.958 23.494 L36.9534 23.4908 L38.9488 23.4876 L40.9442 23.4844 L42.9396 23.4812 L44.935 23.478 Z " />
</g>
</g>
</svg>
