<!DOCTYPE svg>
<svg xmlns="http://www.w3.org/2000/svg" xmlns:xlink="http://www.w3.org/1999/xlink" width="600" height="600">
<g transform="translate(300.000000,300.000000)">
<g transform="scale(3.000000,3.000000)">
<path stroke="rgb(0,0,0)" stroke-opacity="1" fill="rgb(255,255,255)" fill-opacity="1" id="Layer_1" d="M107.411 107.089 L105.406 107.092 L103.402 107.095 L101.397 107.098 L99.3922 107.101 L97.3875 107.104 L95.3828 107.107 L93.3782 107.11 L91.3735 107.113 L89.3688 107.116 L87.3641 107.119 L85.3595 107.122 L83.3548 107.125 L81.3501 107.128 L79.3455 107.131 L77.3408 107.134 L75.3361 107.137 L73.3314 107.14 L71.3268 107.143 L69.3221 107.146 L67.3174 107.149 L65.3127 107.152 L63.3081 107.155 L61.3034 107.158 L59.2987 107.161 L57.2941 107.164 L55.2894 107.167 L53.2847 107.17 L51.28 107.173 L49.2754 107.176 L47.2707 107.179 L45.266 107.182 L43.2613 107.185 L41.2567 107.188 L39.252 107.191 L37.2473 107.194 L35.2426 107.197 L33.238 107.2 L31.2333 107.203 L29.2286 107.206 L27.224 107.209 L25.2193 107.212 L23.2146 107.215 L21.2099 107.218 L19.2053 107.221 L17.2006 107.224 L15.1959 107.227 L13.1912 107.23 L11.1866 107.233 L9.1819 107.236 L7.17723 107.239 L5.17256 107.242 L3.16788 107.245 L1.16321 107.248 L-0.841463 107.252 L-2.84614 107.255 L-4.85081 107.258 L-6.85548 107.261 L-8.86015 107.264 L-10.8648 107.267 L-12.8695 107.27 L-14.8742 107.273 L-16.8788 107.276 L-18.8835 107.279 L-20.8882 107.282 L-22.8929 107.285 L-24.8975 107.288 L-26.9022 107.291 L-28.9069 107.294 L-30.9116 107.297 L-32.9162 107.3 L-34.9209 107.303 L-36.9256 107.306 L-38.9302 107.309 L-40.9349 107.312 L-42.9396 107.315 L-44.9443 107.318 L-46.9489 107.321 L-48.9536 107.324 L-50.9583 107.327 L-52.963 107.33 L-54.9676 107.333 L-56.9723 107.336 L-58.977 107.339 L-60.9816 107.342 L-62.9863 107.345 L-64.991 107.348 L-66.9957 107.351 L-69.0003 107.354 L-71.005 107.357 L-73.0097 107.36 L-75.0144 107.363 L-77.019 107.366 L-79.0237 107.369 L-81.0284 107.372 L-83.0331 107.375 L-85.0377 107.378 L-87.0424 107.381 L-89.0471 107.384 L-91.0517 107.387 L-93.0564 107.39 L-95.0611 107.393 L-97.0658 107.396 L-99.0704 107.399 L-101.075 107.402 L-103.08 107.405 L-105.084 107.408 L-107.089 107.411 L-107.092 105.406 L-107.095 103.402 L-107.098 101.397 L-107.101 99.3922 L-107.104 97.3875 L-107.107 95.3828 L-107.11 93.3782 L-107.113 91.3735 L-107.116 89.3688 L-107.119 87.3641 L-107.122 85.3595 L-107.125 83.3548 L-107.128 81.3501 L-107.131 79.3455 L-107.134 77.3408 L-107.137 75.3361 L-107.14 73.3314 L-107.143 71.3268 L-107.146 69.3221 L-107.149 67.3174 L-107.152 65.3127 L-107.155 63.3081 L-107.158 61.3034 L-107.161 59.2987 L-107.164 57.2941 L-107.167 55.2894 L-107.17 53.2847 L-107.173 51.28 L-107.176 49.2754 L-107.179 47.2707 L-107.182 45.266 L-107.185 43.2613 L-107.188 41.2567 L-107.191 39.252 L-107.194 37.2473 L-107.197 35.2426 L-107.2 33.238 L-107.203 31.2333 L-107.206 29.2286 L-107.209 27.224 L-107.212 25.2193 L-107.215 23.2146 L-107.218 21.2099 L-107.221 19.2053 L-107.224 17.2006 L-107.227 15.1959 L-107.23 13.1912 L-107.233 11.1866 L-107.236 9.1819 L-107.239 7.17722 L-107.242 5.17255 L-107.245 3.16788 L-107.248 1.1632 L-107.251 -0.841469 L-107.255 -2.84614 L-107.258 -4.85081 L-107.261 -6.85549 L-107.264 -8.86016 L-107.267 -10.8648 L-107.27 -12.8695 L-107.273 -14.8742 L-107.276 -16.8789 L-107.279 -18.8835 L-107.282 -20.8882 L-107.285 -22.8929 L-107.288 -24.8975 L-107.291 -26.9022 L-107.294 -28.9069 L-107.297 -30.9116 L-107.3 -32.9162 L-107.303 -34.9209 L-107.306 -36.9256 L-107.309 -38.9303 L-107.312 -40.9349 L-107.315 -42.9396 L-107.318 -44.9443 L-107.321 -46.9489 L-107.324 -48.9536 L-107.327 -50.9583 L-107.33 -52.963 L-107.333 -54.9676 L-107.336 -56.9723 L-107.339 -58.977 L-107.342 -60.9817 L-107.345 -62.9863 L-107.348 -64.991 L-107.351 -66.9957 L-107.354 -69.0003 L-107.357 -71.005 L-107.36 -73.0097 L-107.363 -75.0144 L-107.366 -77.019 L-107.369 -79.0237 L-107.372 -81.0284 L-107.375 -83.0331 L-107.378 -85.0377 L-107.381 -87.0424 L-107.384 -89.0471 L-107.387 -91.0518 L-107.39 -93.0564 L-107.393 -95.0611 L-107.396 -97.0658 L-107.399 -99.0704 L-107.402 -101.075 L-107.405 -103.08 L-107.408 -105.084 L-107.411 -107.089 L-105.406 -107.092 L-103.402 -107.095 L-101.397 -107.098 L-99.3922 -107.101 L-97.3875 -107.104 L-95.3828 -107.107 L-93.3782 -107.11 L-91.3735 -107.113 L-89.3688 -107.116 L-87.3641 -107.119 L-85.3595 -107.122 L-83.3548 -107.125 L-81.3501 -107.128 L-79.3455 -107.131 L-77.3408 -107.134 L-75.3361 -107.137 L-73.3314 -107.14 L-71.3268 -107.143 L-69.3221 -107.146 L-67.3174 -107.149 L-65.3127 -107.152 L-63.3081 -107.155 L-61.3034 -107.158 L-59.2987 -107.161 L-57.2941 -107.164 L-55.2894 -107.167 L-53.2847 -107.17 L-51.28 -107.173 L-49.2754 -107.176 L-47.2707 -107.179 L-45.266 -107.182 L-43.2613 -107.185 L-41.2567 -107.188 L-39.252 -107.191 L-37.2473 -107.194 L-35.2426 -107.197 L-33.238 -107.2 L-31.2333 -107.203 L-29.2286 -107.206 L-27.224 -107.209 L-25.2193 -107.212 L-23.2146 -107.215 L-21.2099 -107.218 L-19.2053 -107.221 L-17.2006 -107.224 L-15.1959 -107.227 L-13.1912 -107.23 L-11.1866 -107.233 L-9.1819 -107.236 L-7.17723 -107.239 L-5.17256 -107.242 L-3.16788 -107.245 L-1.16321 -107.248 L0.841463 -107.252 L2.84614 -107.255 L4.85081 -107.258 L6.85548 -107.261 L8.86015 -107.264 L10.8648 -107.267 L12.8695 -107.27 L14.8742 -107.273 L16.8788 -107.276 L18.8835 -107.279 L20.8882 -107.282 L22.8929 -107.285 L24.8975 -107.288 L26.9022 -107.291 L28.9069 -107.294 L30.9116 -107.297 L32.9162 -107.3 L34.9209 -107.303 L36.9256 -107.306 L38.9302 -107.309 L40.9349 -107.312 L42.9396 -107.315 L44.9443 -107.318 L46.9489 -107.321 L48.9536 -107.324 L50.9583 -107.327 L52.963 -107.33 L54.9676 -107.333 L56.9723 -107.336 L58.977 -107.339 L60.9816 -107.342 L62.9863 -107.345 L64.991 -107.348 L66.9957 -107.351 L69.0003 -107.354 L71.005 -107.357 L73.0097 -107.36 L75.0144 -107.363 L77.019 -107.366 L79.0237 -107.369 L81.0284 -107.372 L83.0331 -107.375 L85.0377 -107.378 L87.0424 -107.381 L89.0471 -107.384 L91.0517 -107.387 L93.0564 -107.39 L95.0611 -107.393 L97.0658 -107.396 L99.0704 -107.399 L101.075 -107.402 L103.08 -107.405 L105.084 -107.408 L107.089 -107.411 L107.092 -105.406 L107.095 -103.402 L107.098 -101.397 L107.101 -99.3922 L107.104 -97.3875 L107.107 -95.3828 L107.11 -93.3782 L107.113 -91.3735 L107.116 -89.3688 L107.119 -87.3642 L107.122 -85.3595 L107.125 -83.3548 L107.128 -81.3501 L107.131 -79.3455 L107.134 -77.3408 L107.137 -75.3361 L107.14 -73.3314 L107.143 -71.3268 L107.146 -69.3221 L107.149 -67.3174 L107.152 -65.3128 L107.155 -63.3081 L107.158 -61.3034 L107.161 -59.2987 L107.164 -57.2941 L107.167 -55.2894 L107.17 -53.2847 L107.173 -51.28 L107.176 -49.2754 L107.179 -47.2707 L107.182 -45.266 L107.185 -43.2613 L107.188 -41.2567 L107.191 -39.252 L107.194 -37.2473 L107.197 -35.2427 L107.2 -33.238 L107.203 -31.2333 L107.206 -29.2286 L107.209 -27.224 L107.212 -25.2193 L107.215 -23.2146 L107.218 -21.2099 L107.221 -19.2053 L107.224 -17.2006 L107.227 -15.1959 L107.23 -13.1913 L107.233 -11.1866 L107.236 -9.18191 L107.239 -7.17724 L107.242 -5.17256 L107.245 -3.16789 L107.248 -1.16322 L107.251 0.841455 L107.255 2.84613 L107.258 4.8508 L107.261 6.85547 L107.264 8.86015 L107.267 10.8648 L107.27 12.8695 L107.273 14.8742 L107.276 16.8788 L107.279 18.8835 L107.282 20.8882 L107.285 22.8929 L107.288 24.8975 L107.291 26.9022 L107.294 28.9069 L107.297 30.9115 L107.3 32.9162 L107.303 34.9209 L107.306 36.9256 L107.309 38.9302 L107.312 40.9349 L107.315 42.9396 L107.318 44.9443 L107.321 46.9489 L107.324 48.9536 L107.327 50.9583 L107.33 52.963 L107.333 54.9676 L107.336 56.9723 L107.339 58.977 L107.342 60.9816 L107.345 62.9863 L107.348 64.991 L107.351 66.9957 L107.354 69.0003 L107.357 71.005 L107.36 73.0097 L107.363 75.0144 L107.366 77.019 L107.369 79.0237 L107.372 81.0284 L107.375 83.033 L107.378 85.0377 L107.381 87.0424 L107.384 89.0471 L107.387 91.0517 L107.39 93.0564 L107.393 95.0611 L107.396 97.0658 L107.399 99.0704 L107.402 101.075 L107.405 103.08 L107.408 105.084 L107.411 107.089 Z " />
<path stroke="rgb(169,255,187)" stroke-opacity="1" fill="rgb(169,255,187)" fill-opacity="1" id="scalebar" d="M-3.69904 -94.609 L-1.65554 -94.609 L0.387962 -94.609 L2.43146 -94.609 L4.47496 -94.609 L4.47496 -92.6686 L4.47496 -90.7281 L4.47496 -88.7876 L4.47496 -86.8472 L4.47496 -84.9067 L4.47496 -82.9663 L4.47496 -81.0258 L4.47496 -79.0853 L4.47496 -77.1449 L4.47496 -75.2044 L4.47496 -73.2639 L4.47496 -71.3235 L4.47496 -69.383 L2.43146 -69.383 L0.387962 -69.383 L-1.65554 -69.383 L-3.69904 -69.383 L-3.69904 -71.3235 L-3.69904 -73.2639 L-3.69904 -75.2044 L-3.69904 -77.1449 L-3.69904 -79.0853 L-3.69904 -81.0258 L-3.69904 -82.9663 L-3.69904 -84.9067 L-3.69904 -86.8472 L-3.69904 -88.7876 L-3.69904 -90.7281 L-3.69904 -92.6686 L-3.69904 -94.609 Z " />
<path stroke="rgb(200,255,200)" stroke-opacity="1" fill="rgb(200,255,200)" fill-opacity="1" id="scaleslider" d="M-6.69904 -84.587 L-4.67418 -84.587 L-2.64932 -84.587 L-0.624466 -84.587 L1.40039 -84.587 L3.42525 -84.587 L5.4501 -84.587 L7.47496 -84.587 L7.47496 -82.8604 L7.47496 -81.1337 L7.47496 -79.407 L5.4501 -79.407 L3.42525 -79.407 L1.40039 -79.407 L-0.624466 -79.407 L-2.64932 -79.407 L-4.67418 -79.407 L-6.69904 -79.407 L-6.69904 -81.1337 L-6.69904 -82.8604 L-6.69904 -84.587 Z " />
<path stroke="rgb(255,134,106)" stroke-opacity="1" fill="rgb(255,134,106)" fill-opacity="1" id="tranbar" d="M-49.142 -86.146 L-47.0675 -86.146 L-44.993 -86.146 L-42.9185 -86.146 L-40.844 -86.146 L-40.844 -88.2208 L-40.844 -90.2955 L-40.844 -92.3703 L-40.844 -94.445 L-38.7685 -94.445 L-36.693 -94.445 L-34.6175 -94.445 L-32.542 -94.445 L-32.542 -92.3703 L-32.542 -90.2955 L-32.542 -88.2208 L-32.542 -86.146 L-30.4673 -86.146 L-28.3925 -86.146 L-26.3178 -86.146 L-24.243 -86.146 L-24.243 -84.0715 L-24.243 -81.997 L-24.243 -79.9225 L-24.243 -77.848 L-26.3178 -77.848 L-28.3925 -77.848 L-30.4673 -77.848 L-32.542 -77.848 L-32.542 -75.773 L-32.542 -73.698 L-32.542 -71.623 L-32.542 -69.548 L-34.6175 -69.548 L-36.693 -69.548 L-38.7685 -69.548 L-40.844 -69.548 L-40.844 -71.623 L-40.844 -73.698 L-40.844 -75.773 L-40.844 -77.848 L-42.9185 -77.848 L-44.993 -77.848 L-47.0675 -77.848 L-49.142 -77.848 L-49.142 -79.9225 L-49.142 -81.997 L-49.142 -84.0715 L-49.142 -86.146 Z " />
<path stroke="rgb(255,250,159)" stroke-opacity="1" fill="rgb(255,250,159)" fill-opacity="1" id="translider" d="M-39.248 -84.553 L-37.5447 -84.553 L-35.8414 -84.553 L-34.138 -84.553 L-34.138 -82.85 L-34.138 -81.147 L-34.138 -79.444 L-35.8414 -79.444 L-37.5447 -79.444 L-39.248 -79.444 L-39.248 -81.147 L-39.248 -82.85 L-39.248 -84.553 Z " />
<path stroke="rgb(254,204,128)" stroke-opacity="1" fill="rgb(254,204,128)" fill-opacity="1" id="rotate" d="M39.8731 -72.7267 L37.9978 -73.198 L36.1225 -73.6694 L34.2472 -74.1408 L32.3719 -74.6122 L30.4966 -75.0835 L29.9674 -76.9435 L29.4382 -78.8035 L28.909 -80.6635 L28.3798 -82.5235 L27.8506 -84.3835 L29.1969 -85.7719 L30.5431 -87.1604 L31.8893 -88.5489 L33.2356 -89.9374 L34.5818 -91.3258 L36.4573 -90.8543 L38.3327 -90.3828 L40.2082 -89.9113 L42.0836 -89.4398 L43.959 -88.9683 L44.4881 -87.1084 L45.0172 -85.2486 L45.5462 -83.3887 L46.0753 -81.5289 L46.6043 -79.669 L45.2581 -78.2806 L43.9118 -76.8921 L42.5656 -75.5036 L41.2194 -74.1151 L39.8731 -72.7267 Z " />
<path stroke="rgb(200,255,200)" stroke-opacity="1" fill="rgb(200,255,200)" fill-opacity="1" id="tri_0" d="M-1.69526 -43.0475 L-2.24224 -44.9586 L-2.78922 -46.8698 L-3.3362 -48.781 L-3.88318 -50.6922 L-4.43016 -52.6034 L-2.50182 -52.1221 L-0.573476 -51.6407 L1.35487 -51.1594 L3.28321 -50.6781 L5.21155 -50.1967 L3.83019 -48.7669 L2.44883 -47.337 L1.06747 -45.9072 L-0.313897 -44.4773 L-1.69526 -43.0475 Z " />
<path stroke="rgb(200,255,200)" stroke-opacity="1" fill="rgb(200,255,200)" fill-opacity="1" id="tri_0_18_" d="M-6.66625 -34.4021 L-7.21392 -36.3126 L-7.7616 -38.2231 L-8.30927 -40.1336 L-8.85695 -42.0441 L-9.40462 -43.9545 L-7.47586 -43.4733 L-5.5471 -42.9921 L-3.61833 -42.511 L-1.68956 -42.0298 L0.239201 -41.5486 L-1.14189 -40.1193 L-2.52298 -38.69 L-3.90407 -37.2607 L-5.28516 -35.8314 L-6.66625 -34.4021 Z " />
<path stroke="rgb(200,255,200)" stroke-opacity="1" fill="rgb(200,255,200)" fill-opacity="1" id="tri_1_16_" d="M3.30874 -34.4193 L2.76145 -36.3299 L2.21417 -38.2405 L1.66689 -40.1512 L1.1196 -42.0618 L0.572319 -43.9724 L2.50067 -43.491 L4.42902 -43.0097 L6.35738 -42.5283 L8.28573 -42.0469 L10.2141 -41.5655 L8.83301 -40.1363 L7.45194 -38.707 L6.07087 -37.2778 L4.68981 -35.8485 L3.30874 -34.4193 Z " />
<path stroke="rgb(200,255,200)" stroke-opacity="1" fill="rgb(200,255,200)" fill-opacity="1" id="tri_0_17_" d="M1.54415 -48.0901 L2.09155 -46.179 L2.63896 -44.268 L3.18636 -42.3569 L3.73376 -40.4459 L4.28116 -38.5348 L2.3524 -39.016 L0.423631 -39.4972 L-1.50513 -39.9784 L-3.4339 -40.4596 L-5.36266 -40.9408 L-3.9813 -42.3706 L-2.59994 -43.8005 L-1.21857 -45.2304 L0.162788 -46.6602 L1.54415 -48.0901 Z " />
<path stroke="rgb(200,255,200)" stroke-opacity="1" fill="rgb(200,255,200)" fill-opacity="1" id="tri_0_16_" d="M-11.6391 -25.7508 L-12.1867 -27.6622 L-12.7342 -29.5737 L-13.2818 -31.4852 L-13.8293 -33.3966 L-14.3769 -35.3081 L-12.4477 -34.8262 L-10.5185 -34.3443 L-8.58928 -33.8624 L-6.66008 -33.3805 L-4.73089 -32.8986 L-6.11254 -31.4691 L-7.49418 -30.0395 L-8.87583 -28.6099 L-10.2575 -27.1803 L-11.6391 -25.7508 Z " />
<path stroke="rgb(200,255,200)" stroke-opacity="1" fill="rgb(200,255,200)" fill-opacity="1" id="tri_1_15_" d="M-1.66188 -25.7692 L-2.20987 -27.68 L-2.75786 -29.5907 L-3.30585 -31.5015 L-3.85384 -33.4123 L-4.40183 -35.323 L-2.47291 -34.8414 L-0.543991 -34.3597 L1.38493 -33.8781 L3.31385 -33.3964 L5.24276 -32.9148 L3.86184 -31.4857 L2.48091 -30.0566 L1.09998 -28.6274 L-0.28095 -27.1983 L-1.66188 -25.7692 Z " />
<path stroke="rgb(200,255,200)" stroke-opacity="1" fill="rgb(200,255,200)" fill-opacity="1" id="tri_0_15_" d="M-3.42882 -39.4407 L-2.88071 -37.5296 L-2.3326 -35.6184 L-1.78449 -33.7072 L-1.23638 -31.796 L-0.688273 -29.8849 L-2.61747 -30.3667 L-4.54667 -30.8486 L-6.47587 -31.3305 L-8.40507 -31.8124 L-10.3343 -32.2943 L-8.95317 -33.7236 L-7.57208 -35.1529 L-6.19099 -36.5822 L-4.8099 -38.0115 L-3.42882 -39.4407 Z " />
<path stroke="rgb(200,255,200)" stroke-opacity="1" fill="rgb(200,255,200)" fill-opacity="1" id="tri_2_14_" d="M8.31318 -25.7873 L7.76545 -27.6978 L7.21772 -29.6082 L6.67 -31.5187 L6.12227 -33.4292 L5.57454 -35.3397 L7.5029 -34.8577 L9.43125 -34.3758 L11.3596 -33.8938 L13.288 -33.4118 L15.2163 -32.9299 L13.8357 -31.5013 L12.4551 -30.0728 L11.0744 -28.6443 L9.69381 -27.2158 L8.31318 -25.7873 Z " />
<path stroke="rgb(200,255,200)" stroke-opacity="1" fill="rgb(200,255,200)" fill-opacity="1" id="tri_1_14_" d="M6.54662 -39.4573 L7.09447 -37.5464 L7.64232 -35.6355 L8.19017 -33.7246 L8.73802 -31.8137 L9.28587 -29.9028 L7.35695 -30.3844 L5.42803 -30.866 L3.49911 -31.3477 L1.57019 -31.8293 L-0.358725 -32.311 L1.02234 -33.7402 L2.40341 -35.1695 L3.78448 -36.5988 L5.16555 -38.028 L6.54662 -39.4573 Z " />
<path stroke="rgb(200,255,200)" stroke-opacity="1" fill="rgb(200,255,200)" fill-opacity="1" id="tri_0_14_" d="M-16.6118 -17.101 L-17.1597 -19.0124 L-17.7075 -20.9239 L-18.2553 -22.8353 L-18.8032 -24.7468 L-19.351 -26.6583 L-17.4222 -26.1762 L-15.4934 -25.6942 L-13.5647 -25.2121 L-11.6359 -24.7301 L-9.70712 -24.2481 L-11.0881 -22.8186 L-12.469 -21.3892 L-13.85 -19.9598 L-15.2309 -18.5304 L-16.6118 -17.101 Z " />
<path stroke="rgb(200,255,200)" stroke-opacity="1" fill="rgb(200,255,200)" fill-opacity="1" id="tri_1_13_" d="M-6.63725 -17.1181 L-7.18426 -19.0293 L-7.73126 -20.9405 L-8.27827 -22.8517 L-8.82528 -24.7629 L-9.37229 -26.6741 L-7.44394 -26.1927 L-5.51559 -25.7114 L-3.58724 -25.23 L-1.65889 -24.7486 L0.269463 -24.2672 L-1.11188 -22.8374 L-2.49322 -21.4076 L-3.87456 -19.9778 L-5.2559 -18.5479 L-6.63725 -17.1181 Z " />
<path stroke="rgb(200,255,200)" stroke-opacity="1" fill="rgb(200,255,200)" fill-opacity="1" id="tri_0_13_" d="M-8.39991 -30.7918 L-7.85278 -28.8802 L-7.30566 -26.9686 L-6.75853 -25.057 L-6.2114 -23.1454 L-5.66428 -21.2337 L-7.59305 -21.7158 L-9.52183 -22.1978 L-11.4506 -22.6799 L-13.3794 -23.1619 L-15.3082 -23.644 L-13.9265 -25.0735 L-12.5449 -26.5031 L-11.1632 -27.9327 L-9.78156 -29.3622 L-8.39991 -30.7918 Z " />
<path stroke="rgb(200,255,200)" stroke-opacity="1" fill="rgb(200,255,200)" fill-opacity="1" id="tri_2_13_" d="M3.34029 -17.1389 L2.79299 -19.049 L2.24569 -20.959 L1.69839 -22.8691 L1.15109 -24.7792 L0.603785 -26.6892 L2.53186 -26.2075 L4.45993 -25.7259 L6.388 -25.2442 L8.31607 -24.7625 L10.2441 -24.2808 L8.86337 -22.8524 L7.4826 -21.424 L6.10183 -19.9956 L4.72106 -18.5673 L3.34029 -17.1389 Z " />
<path stroke="rgb(200,255,200)" stroke-opacity="1" fill="rgb(200,255,200)" fill-opacity="1" id="tri_1_12_" d="M1.57538 -30.8064 L2.1228 -28.8959 L2.67022 -26.9854 L3.21765 -25.0749 L3.76507 -23.1644 L4.31249 -21.2539 L2.38414 -21.7353 L0.455789 -22.2166 L-1.47256 -22.698 L-3.40091 -23.1794 L-5.32926 -23.6608 L-3.94834 -25.0899 L-2.56741 -26.519 L-1.18648 -27.9481 L0.19445 -29.3772 L1.57538 -30.8064 Z " />
<path stroke="rgb(200,255,200)" stroke-opacity="1" fill="rgb(200,255,200)" fill-opacity="1" id="tri_3_12_" d="M13.3162 -17.155 L12.7689 -19.0648 L12.2216 -20.9745 L11.6743 -22.8843 L11.1269 -24.7941 L10.5796 -26.7038 L12.5071 -26.2232 L14.4346 -25.7426 L16.362 -25.2621 L18.2895 -24.7815 L20.217 -24.3009 L18.8368 -22.8717 L17.4567 -21.4425 L16.0765 -20.0133 L14.6964 -18.5842 L13.3162 -17.155 Z " />
<path stroke="rgb(200,255,200)" stroke-opacity="1" fill="rgb(200,255,200)" fill-opacity="1" id="tri_2_12_" d="M11.5492 -30.821 L12.0966 -28.9108 L12.6441 -27.0006 L13.1915 -25.0904 L13.739 -23.1801 L14.2864 -21.2699 L12.3583 -21.7516 L10.4303 -22.2333 L8.50219 -22.715 L6.57412 -23.1967 L4.64605 -23.6784 L6.02668 -25.1069 L7.4073 -26.5354 L8.78793 -27.9639 L10.1686 -29.3925 L11.5492 -30.821 Z " />
<path stroke="rgb(200,255,200)" stroke-opacity="1" fill="rgb(200,255,200)" fill-opacity="1" id="tri_0_12_" d="M-21.5861 -8.455 L-22.1332 -10.3655 L-22.6803 -12.276 L-23.2274 -14.1865 L-23.7745 -16.0969 L-24.3216 -18.0074 L-22.3929 -17.526 L-20.4641 -17.0445 L-18.5353 -16.563 L-16.6066 -16.0815 L-14.6778 -15.6 L-16.0594 -14.171 L-17.4411 -12.742 L-18.8228 -11.313 L-20.2044 -9.88401 L-21.5861 -8.455 Z " />
<path stroke="rgb(200,255,200)" stroke-opacity="1" fill="rgb(200,255,200)" fill-opacity="1" id="tri_1_11_" d="M-11.6093 -8.47102 L-12.157 -10.3815 L-12.7047 -12.292 L-13.2524 -14.2025 L-13.8001 -16.113 L-14.3479 -18.0235 L-12.4192 -17.5421 L-10.4906 -17.0607 L-8.56195 -16.5793 L-6.63331 -16.098 L-4.70468 -15.6166 L-6.08561 -14.1875 L-7.46654 -12.7584 L-8.84747 -11.3293 L-10.2284 -9.90014 L-11.6093 -8.47102 Z " />
<path stroke="rgb(200,255,200)" stroke-opacity="1" fill="rgb(200,255,200)" fill-opacity="1" id="tri_0_11_" d="M-13.3756 -22.1408 L-12.8278 -20.2299 L-12.28 -18.319 L-11.7321 -16.4081 L-11.1843 -14.4972 L-10.6365 -12.5863 L-12.5653 -13.0678 L-14.494 -13.5493 L-16.4228 -14.0308 L-18.3516 -14.5123 L-20.2803 -14.9937 L-18.8994 -16.4232 L-17.5184 -17.8526 L-16.1375 -19.282 L-14.7565 -20.7114 L-13.3756 -22.1408 Z " />
<path stroke="rgb(200,255,200)" stroke-opacity="1" fill="rgb(200,255,200)" fill-opacity="1" id="tri_2_11_" d="M-1.63321 -8.48848 L-2.18038 -10.3992 L-2.72755 -12.31 L-3.27472 -14.2208 L-3.82189 -16.1316 L-4.36906 -18.0423 L-2.44141 -17.5605 L-0.513761 -17.0787 L1.41389 -16.5968 L3.34154 -16.115 L5.26919 -15.6332 L3.88871 -14.2042 L2.50823 -12.7753 L1.12775 -11.3463 L-0.252728 -9.91741 L-1.63321 -8.48848 Z " />
<path stroke="rgb(200,255,200)" stroke-opacity="1" fill="rgb(200,255,200)" fill-opacity="1" id="tri_1_10_" d="M-3.39796 -22.1596 L-2.85067 -20.2484 L-2.30338 -18.3372 L-1.75608 -16.426 L-1.20879 -14.5148 L-0.661498 -12.6036 L-2.59013 -13.085 L-4.51877 -13.5664 L-6.4474 -14.0477 L-8.37604 -14.5291 L-10.3047 -15.0105 L-8.92333 -16.4403 L-7.54199 -17.8701 L-6.16065 -19.3 L-4.7793 -20.7298 L-3.39796 -22.1596 Z " />
<path stroke="rgb(200,255,200)" stroke-opacity="1" fill="rgb(200,255,200)" fill-opacity="1" id="tri_3_11_" d="M8.34107 -8.50696 L7.79431 -10.4167 L7.24755 -12.3265 L6.7008 -14.2363 L6.15404 -16.1461 L5.60728 -18.0559 L7.53477 -17.5747 L9.46225 -17.0935 L11.3897 -16.6124 L13.3172 -16.1312 L15.2447 -15.6501 L13.864 -14.2214 L12.4833 -12.7928 L11.1025 -11.3642 L9.7218 -9.93558 L8.34107 -8.50696 Z " />
<path stroke="rgb(200,255,200)" stroke-opacity="1" fill="rgb(200,255,200)" fill-opacity="1" id="tri_2_10_" d="M6.57766 -22.1727 L7.12454 -20.2625 L7.67143 -18.3523 L8.21831 -16.4421 L8.76519 -14.5318 L9.31207 -12.6216 L7.38442 -13.1035 L5.45677 -13.5853 L3.52911 -14.0671 L1.60146 -14.549 L-0.326189 -15.0308 L1.05458 -16.4592 L2.43535 -17.8876 L3.81612 -19.3159 L5.19689 -20.7443 L6.57766 -22.1727 Z " />
<path stroke="rgb(200,255,200)" stroke-opacity="1" fill="rgb(200,255,200)" fill-opacity="1" id="tri_4_10_" d="M18.3194 -8.52488 L17.7722 -10.4348 L17.225 -12.3447 L16.6778 -14.2545 L16.1306 -16.1644 L15.5834 -18.0743 L17.5107 -17.5927 L19.438 -17.1111 L21.3654 -16.6295 L23.2927 -16.1479 L25.22 -15.6663 L23.8399 -14.238 L22.4598 -12.8097 L21.0796 -11.3814 L19.6995 -9.95316 L18.3194 -8.52488 Z " />
<path stroke="rgb(200,255,200)" stroke-opacity="1" fill="rgb(200,255,200)" fill-opacity="1" id="tri_3_10_" d="M16.5521 -22.1913 L17.0994 -20.281 L17.6467 -18.3707 L18.1941 -16.4603 L18.7414 -14.55 L19.2887 -12.6397 L17.3612 -13.1208 L15.4337 -13.602 L13.5063 -14.0831 L11.5788 -14.5643 L9.65128 -15.0454 L11.0314 -16.4746 L12.4116 -17.9038 L13.7918 -19.333 L15.1719 -20.7621 L16.5521 -22.1913 Z " />
<path stroke="rgb(200,255,200)" stroke-opacity="1" fill="rgb(200,255,200)" fill-opacity="1" id="tri_0_10_" d="M-26.5573 0.19578 L-27.1052 -1.71568 L-27.653 -3.62715 L-28.2008 -5.53861 L-28.7486 -7.45007 L-29.2965 -9.36154 L-27.367 -8.87937 L-25.4375 -8.39719 L-23.508 -7.91502 L-21.5785 -7.43285 L-19.6491 -6.95068 L-21.0307 -5.52139 L-22.4124 -4.0921 L-23.794 -2.6628 L-25.1757 -1.23351 L-26.5573 0.19578 Z " />
<path stroke="rgb(200,255,200)" stroke-opacity="1" fill="rgb(200,255,200)" fill-opacity="1" id="tri_1_9_" d="M-16.5808 0.179012 L-17.1285 -1.73176 L-17.6762 -3.64253 L-18.2239 -5.55329 L-18.7716 -7.46406 L-19.3193 -9.37483 L-17.3908 -8.89332 L-15.4623 -8.4118 L-13.5338 -7.93029 L-11.6053 -7.44877 L-9.67685 -6.96726 L-11.0576 -5.53801 L-12.4384 -4.10875 L-13.8192 -2.6795 L-15.2 -1.25024 L-16.5808 0.179012 Z " />
<path stroke="rgb(200,255,200)" stroke-opacity="1" fill="rgb(200,255,200)" fill-opacity="1" id="tri_0_9_" d="M-18.3461 -13.4926 L-17.7983 -11.5814 L-17.2505 -9.67021 L-16.7026 -7.75903 L-16.1548 -5.84785 L-15.607 -3.93667 L-17.5365 -4.41884 L-19.4659 -4.90101 L-21.3954 -5.38318 L-23.3249 -5.86535 L-25.2544 -6.34753 L-23.8727 -7.77654 L-22.4911 -9.20555 L-21.1094 -10.6346 L-19.7278 -12.0636 L-18.3461 -13.4926 Z " />
<path stroke="rgb(200,255,200)" stroke-opacity="1" fill="rgb(200,255,200)" fill-opacity="1" id="tri_2_9_" d="M-6.60562 0.160175 L-7.15307 -1.75003 L-7.70051 -3.66024 L-8.24795 -5.57044 L-8.7954 -7.48065 L-9.34284 -9.39086 L-7.41478 -8.90973 L-5.48672 -8.42861 L-3.55866 -7.94748 L-1.63059 -7.46636 L0.297468 -6.98523 L-1.08315 -5.55615 L-2.46377 -4.12707 L-3.84439 -2.69799 L-5.225 -1.26891 L-6.60562 0.160175 Z " />
<path stroke="rgb(200,255,200)" stroke-opacity="1" fill="rgb(200,255,200)" fill-opacity="1" id="tri_1_8_" d="M-8.37184 -13.5083 L-7.82428 -11.5976 L-7.27671 -9.68699 L-6.72915 -7.77636 L-6.18158 -5.86573 L-5.63401 -3.9551 L-7.56251 -4.43662 L-9.491 -4.91813 L-11.4195 -5.39964 L-13.348 -5.88116 L-15.2765 -6.36267 L-13.8956 -7.79179 L-12.5146 -9.2209 L-11.1337 -10.65 L-9.75277 -12.0791 L-8.37184 -13.5083 Z " />
<path stroke="rgb(200,255,200)" stroke-opacity="1" fill="rgb(200,255,200)" fill-opacity="1" id="tri_3_9_" d="M3.37016 0.140412 L2.8227 -1.76922 L2.27524 -3.67884 L1.72779 -5.58847 L1.18033 -7.4981 L0.632873 -9.40773 L2.5605 -8.92643 L4.48813 -8.44514 L6.41576 -7.96384 L8.34338 -7.48254 L10.271 -7.00124 L8.89084 -5.57291 L7.51067 -4.14458 L6.1305 -2.71625 L4.75033 -1.28792 L3.37016 0.140412 Z " />
<path stroke="rgb(200,255,200)" stroke-opacity="1" fill="rgb(200,255,200)" fill-opacity="1" id="tri_2_8_" d="M1.60274 -13.5248 L2.15032 -11.6147 L2.6979 -9.70465 L3.24549 -7.79459 L3.79307 -5.88452 L4.34065 -3.97446 L2.41259 -4.45559 L0.484526 -4.93671 L-1.44354 -5.41784 L-3.3716 -5.89896 L-5.29966 -6.38009 L-3.91918 -7.80902 L-2.5387 -9.23796 L-1.15822 -10.6669 L0.222261 -12.0958 L1.60274 -13.5248 Z " />
<path stroke="rgb(200,255,200)" stroke-opacity="1" fill="rgb(200,255,200)" fill-opacity="1" id="tri_4_9_" d="M13.3449 0.123859 L12.7981 -1.78562 L12.2514 -3.69509 L11.7046 -5.60457 L11.1578 -7.51404 L10.611 -9.42352 L12.5382 -8.94261 L14.4654 -8.46171 L16.3926 -7.9808 L18.3198 -7.4999 L20.2469 -7.019 L18.8665 -5.59042 L17.4861 -4.16185 L16.1057 -2.73328 L14.7253 -1.30471 L13.3449 0.123859 Z " />
<path stroke="rgb(200,255,200)" stroke-opacity="1" fill="rgb(200,255,200)" fill-opacity="1" id="tri_3_8_" d="M11.5796 -13.541 L12.1265 -11.6311 L12.6734 -9.72116 L13.2203 -7.81124 L13.7672 -5.90132 L14.3141 -3.9914 L12.3865 -4.4727 L10.4589 -4.95399 L8.53124 -5.43529 L6.60362 -5.91659 L4.67599 -6.39789 L6.05672 -7.82651 L7.43745 -9.25513 L8.81817 -10.6838 L10.1989 -12.1124 L11.5796 -13.541 Z " />
<path stroke="rgb(200,255,200)" stroke-opacity="1" fill="rgb(200,255,200)" fill-opacity="1" id="tri_5_8_" d="M23.3226 0.104273 L22.7757 -1.80446 L22.2288 -3.71319 L21.6819 -5.62192 L21.135 -7.53066 L20.588 -9.43939 L22.5145 -8.95832 L24.4409 -8.47724 L26.3674 -7.99616 L28.2938 -7.51509 L30.2202 -7.03401 L28.8407 -5.60636 L27.4612 -4.1787 L26.0817 -2.75104 L24.7022 -1.32339 L23.3226 0.104273 Z " />
<path stroke="rgb(200,255,200)" stroke-opacity="1" fill="rgb(200,255,200)" fill-opacity="1" id="tri_4_8_" d="M21.5554 -13.556 L22.1024 -11.6468 L22.6495 -9.73764 L23.1965 -7.82845 L23.7436 -5.91926 L24.2906 -4.01007 L22.3635 -4.49098 L20.4363 -4.97188 L18.5091 -5.45279 L16.5819 -5.93369 L14.6548 -6.41459 L16.0349 -7.84288 L17.415 -9.27116 L18.7951 -10.6994 L20.1753 -12.1277 L21.5554 -13.556 Z " />
<path stroke="rgb(200,255,200)" stroke-opacity="1" fill="rgb(200,255,200)" fill-opacity="1" id="tri_0_8_" d="M-31.5316 8.84626 L-32.079 6.93465 L-32.6264 5.02304 L-33.1738 3.11142 L-33.7212 1.19981 L-34.2686 -0.711797 L-32.3399 -0.230036 L-30.4111 0.251724 L-28.4823 0.733485 L-26.5536 1.21525 L-24.6248 1.69701 L-26.0061 3.12686 L-27.3875 4.55671 L-28.7689 5.98656 L-30.1502 7.41641 L-31.5316 8.84626 Z " />
<path stroke="rgb(200,255,200)" stroke-opacity="1" fill="rgb(200,255,200)" fill-opacity="1" id="tri_1_7_" d="M-21.5558 8.82671 L-22.1028 6.91607 L-22.6498 5.00544 L-23.1968 3.0948 L-23.7438 1.18416 L-24.2908 -0.726481 L-22.3629 -0.244676 L-20.4349 0.237127 L-18.507 0.71893 L-16.5791 1.20073 L-14.6511 1.68254 L-16.0321 3.11137 L-17.413 4.54021 L-18.7939 5.96904 L-20.1749 7.39788 L-21.5558 8.82671 Z " />
<path stroke="rgb(200,255,200)" stroke-opacity="1" fill="rgb(200,255,200)" fill-opacity="1" id="tri_0_7_" d="M-23.318 -4.84344 L-22.7708 -2.93239 L-22.2237 -1.02133 L-21.6766 0.889718 L-21.1295 2.80077 L-20.5824 4.71182 L-22.5111 4.23006 L-24.4399 3.7483 L-26.3687 3.26654 L-28.2974 2.78478 L-30.2262 2.30302 L-28.8446 0.873729 L-27.4629 -0.555563 L-26.0813 -1.98486 L-24.6996 -3.41415 L-23.318 -4.84344 Z " />
<path stroke="rgb(200,255,200)" stroke-opacity="1" fill="rgb(200,255,200)" fill-opacity="1" id="tri_2_7_" d="M-11.5805 8.81016 L-12.1275 6.89953 L-12.6745 4.98889 L-13.2215 3.07826 L-13.7686 1.16762 L-14.3156 -0.743011 L-12.3877 -0.261461 L-10.4597 0.220089 L-8.53182 0.701638 L-6.60389 1.18319 L-4.67596 1.66474 L-6.05686 3.09382 L-7.43776 4.52291 L-8.81866 5.95199 L-10.1996 7.38107 L-11.5805 8.81016 Z " />
<path stroke="rgb(200,255,200)" stroke-opacity="1" fill="rgb(200,255,200)" fill-opacity="1" id="tri_1_6_" d="M-13.3444 -4.85982 L-12.7972 -2.94877 L-12.2501 -1.03771 L-11.7029 0.873349 L-11.1558 2.78441 L-10.6086 4.69547 L-12.5365 4.21366 L-14.4645 3.73186 L-16.3924 3.25005 L-18.3203 2.76825 L-20.2483 2.28645 L-18.8675 0.857193 L-17.4867 -0.572061 L-16.1059 -2.00132 L-14.7251 -3.43057 L-13.3444 -4.85982 Z " />
<path stroke="rgb(200,255,200)" stroke-opacity="1" fill="rgb(200,255,200)" fill-opacity="1" id="tri_3_7_" d="M-1.60323 8.79121 L-2.15042 6.88101 L-2.6976 4.97082 L-3.24479 3.06062 L-3.79197 1.15042 L-4.33916 -0.759774 L-2.41166 -0.27805 L-0.484169 0.203672 L1.44332 0.685394 L3.37082 1.16712 L5.29832 1.64884 L3.91801 3.07731 L2.5377 4.50579 L1.15739 5.93426 L-0.222924 7.36274 L-1.60323 8.79121 Z " />
<path stroke="rgb(200,255,200)" stroke-opacity="1" fill="rgb(200,255,200)" fill-opacity="1" id="tri_2_6_" d="M-3.36887 -4.87658 L-2.82156 -2.96595 L-2.27425 -1.05531 L-1.72694 0.855318 L-1.17963 2.76595 L-0.63232 4.67658 L-2.56025 4.19503 L-4.48818 3.71348 L-6.4161 3.23193 L-8.34403 2.75038 L-10.272 2.26883 L-8.89134 0.839749 L-7.51072 -0.589332 L-6.1301 -2.01841 L-4.74949 -3.44749 L-3.36887 -4.87658 Z " />
<path stroke="rgb(200,255,200)" stroke-opacity="1" fill="rgb(200,255,200)" fill-opacity="1" id="tri_4_7_" d="M8.37261 8.77303 L7.82542 6.86342 L7.27822 4.95381 L6.73102 3.0442 L6.18383 1.13459 L5.63663 -0.775018 L7.56381 -0.294114 L9.49098 0.18679 L11.4182 0.667694 L13.3453 1.1486 L15.2725 1.6295 L13.8925 3.05821 L12.5125 4.48691 L11.1326 5.91562 L9.75259 7.34432 L8.37261 8.77303 Z " />
<path stroke="rgb(200,255,200)" stroke-opacity="1" fill="rgb(200,255,200)" fill-opacity="1" id="tri_3_6_" d="M6.60535 -4.89181 L7.15267 -2.98176 L7.69999 -1.07171 L8.24732 0.838347 L8.79464 2.7484 L9.34197 4.65845 L7.41447 4.17673 L5.48698 3.69501 L3.55948 3.21329 L1.63199 2.73156 L-0.295508 2.24984 L1.08466 0.821509 L2.46483 -0.606822 L3.845 -2.03515 L5.22518 -3.46348 L6.60535 -4.89181 Z " />
<path stroke="rgb(200,255,200)" stroke-opacity="1" fill="rgb(200,255,200)" fill-opacity="1" id="tri_5_7_" d="M18.348 8.75333 L17.8014 6.84431 L17.2548 4.93529 L16.7081 3.02627 L16.1615 1.11725 L15.6148 -0.791769 L17.5417 -0.309997 L19.4686 0.171775 L21.3955 0.653547 L23.3223 1.13532 L25.2492 1.61709 L23.869 3.04434 L22.4887 4.47159 L21.1085 5.89883 L19.7283 7.32608 L18.348 8.75333 Z " />
<path stroke="rgb(200,255,200)" stroke-opacity="1" fill="rgb(200,255,200)" fill-opacity="1" id="tri_4_6_" d="M16.583 -4.90891 L17.1298 -2.99943 L17.6766 -1.08996 L18.2233 0.819514 L18.7701 2.72899 L19.3169 4.63846 L17.3897 4.15756 L15.4625 3.67666 L13.5353 3.19575 L11.6082 2.71485 L9.68099 2.23395 L11.0614 0.805373 L12.4418 -0.623198 L13.8222 -2.05177 L15.2026 -3.48034 L16.583 -4.90891 Z " />
<path stroke="rgb(200,255,200)" stroke-opacity="1" fill="rgb(200,255,200)" fill-opacity="1" id="tri_6_6_" d="M28.3261 8.73813 L27.7789 6.82917 L27.2317 4.9202 L26.6845 3.01124 L26.1373 1.10228 L25.59 -0.80669 L27.5163 -0.326019 L29.4425 0.15465 L31.3688 0.635319 L33.295 1.11599 L35.2213 1.59666 L33.8423 3.02495 L32.4632 4.45325 L31.0842 5.88154 L29.7052 7.30984 L28.3261 8.73813 Z " />
<path stroke="rgb(200,255,200)" stroke-opacity="1" fill="rgb(200,255,200)" fill-opacity="1" id="tri_5_6_" d="M26.5563 -4.92316 L27.1036 -3.01373 L27.651 -1.1043 L28.1983 0.805131 L28.7457 2.71456 L29.293 4.62399 L27.3662 4.14222 L25.4393 3.66044 L23.5124 3.17867 L21.5856 2.6969 L19.6587 2.21513 L21.0382 0.787469 L22.4177 -0.640189 L23.7972 -2.06784 L25.1768 -3.4955 L26.5563 -4.92316 Z " />
<path stroke="rgb(200,255,200)" stroke-opacity="1" fill="rgb(200,255,200)" fill-opacity="1" id="tri_0_6_" d="M-36.504 17.4959 L-37.0518 15.5847 L-37.5997 13.6735 L-38.1475 11.7624 L-38.6953 9.85118 L-39.2431 7.94 L-37.3137 8.42133 L-35.3842 8.90265 L-33.4547 9.38398 L-31.5253 9.86531 L-29.5958 10.3466 L-30.9774 11.7765 L-32.3591 13.2063 L-33.7407 14.6362 L-35.1224 16.0661 L-36.504 17.4959 Z " />
<path stroke="rgb(200,255,200)" stroke-opacity="1" fill="rgb(200,255,200)" fill-opacity="1" id="tri_1_5_" d="M-26.5262 17.4761 L-27.0742 15.5654 L-27.6221 13.6546 L-28.1701 11.7438 L-28.7181 9.83306 L-29.2661 7.9223 L-27.3376 8.40437 L-25.4091 8.88645 L-23.4806 9.36853 L-21.5521 9.8506 L-19.6236 10.3327 L-21.0041 11.7614 L-22.3846 13.1901 L-23.7651 14.6187 L-25.1457 16.0474 L-26.5262 17.4761 Z " />
<path stroke="rgb(200,255,200)" stroke-opacity="1" fill="rgb(200,255,200)" fill-opacity="1" id="tri_0_5_" d="M-28.2933 3.80468 L-27.7452 5.71586 L-27.1971 7.62703 L-26.649 9.53821 L-26.1009 11.4494 L-25.5528 13.3606 L-27.4823 12.8792 L-29.4117 12.3979 L-31.3412 11.9166 L-33.2707 11.4353 L-35.2001 10.9539 L-33.8188 9.52408 L-32.4374 8.09423 L-31.0561 6.66438 L-29.6747 5.23453 L-28.2933 3.80468 Z " />
<path stroke="rgb(200,255,200)" stroke-opacity="1" fill="rgb(200,255,200)" fill-opacity="1" id="tri_2_5_" d="M-16.5525 17.4592 L-17.1 15.5487 L-17.6474 13.6383 L-18.1949 11.7278 L-18.7423 9.81728 L-19.2898 7.9068 L-17.362 8.38764 L-15.4342 8.86849 L-13.5064 9.34934 L-11.5787 9.83019 L-9.65089 10.311 L-11.0312 11.7407 L-12.4116 13.1703 L-13.7919 14.6 L-15.1722 16.0296 L-16.5525 17.4592 Z " />
<path stroke="rgb(200,255,200)" stroke-opacity="1" fill="rgb(200,255,200)" fill-opacity="1" id="tri_1_4_" d="M-18.3188 3.78974 L-17.7713 5.70065 L-17.2237 7.61157 L-16.6761 9.52248 L-16.1286 11.4334 L-15.581 13.3443 L-17.5095 12.8622 L-19.438 12.3801 L-21.3665 11.8981 L-23.295 11.416 L-25.2235 10.9339 L-23.8426 9.50508 L-22.4616 8.07625 L-21.0807 6.64741 L-19.6998 5.21858 L-18.3188 3.78974 Z " />
<path stroke="rgb(200,255,200)" stroke-opacity="1" fill="rgb(200,255,200)" fill-opacity="1" id="tri_3_5_" d="M-6.57792 17.4382 L-7.12467 15.5287 L-7.67143 13.6192 L-8.21818 11.7097 L-8.76493 9.80021 L-9.31168 7.89071 L-7.38377 8.372 L-5.45586 8.85329 L-3.52795 9.33459 L-1.60004 9.81588 L0.327869 10.2972 L-1.05329 11.7254 L-2.43445 13.1536 L-3.81561 14.5818 L-5.19676 16.01 L-6.57792 17.4382 Z " />
<path stroke="rgb(200,255,200)" stroke-opacity="1" fill="rgb(200,255,200)" fill-opacity="1" id="tri_2_4_" d="M-8.34175 3.77295 L-7.79487 5.68288 L-7.248 7.59281 L-6.70112 9.50275 L-6.15424 11.4127 L-5.60737 13.3226 L-7.53514 12.8418 L-9.46292 12.3609 L-11.3907 11.8801 L-13.3185 11.3992 L-15.2463 10.9184 L-13.8654 9.48928 L-12.4845 8.0602 L-11.1036 6.63112 L-9.72265 5.20203 L-8.34175 3.77295 Z " />
<path stroke="rgb(200,255,200)" stroke-opacity="1" fill="rgb(200,255,200)" fill-opacity="1" id="tri_4_5_" d="M3.40091 17.422 L2.85344 15.5127 L2.30596 13.6034 L1.75849 11.694 L1.21102 9.78471 L0.663542 7.87539 L2.59072 8.35658 L4.5179 8.83776 L6.44508 9.31895 L8.37226 9.80013 L10.2994 10.2813 L8.91973 11.7095 L7.54003 13.1376 L6.16032 14.5657 L4.78062 15.9939 L3.40091 17.422 Z " />
<path stroke="rgb(200,255,200)" stroke-opacity="1" fill="rgb(200,255,200)" fill-opacity="1" id="tri_3_4_" d="M1.63244 3.75841 L2.18004 5.66818 L2.72765 7.57795 L3.27525 9.48771 L3.82285 11.3975 L4.37045 13.3073 L2.44254 12.826 L0.514627 12.3447 L-1.41328 11.8634 L-3.34119 11.3821 L-5.2691 10.9008 L-3.8888 9.47231 L-2.50849 8.04383 L-1.12818 6.61536 L0.252134 5.18688 L1.63244 3.75841 Z " />
<path stroke="rgb(200,255,200)" stroke-opacity="1" fill="rgb(200,255,200)" fill-opacity="1" id="tri_5_5_" d="M13.3756 17.4042 L12.8285 15.4948 L12.2814 13.5853 L11.7344 11.6759 L11.1873 9.76646 L10.6402 7.85702 L12.5674 8.33851 L14.4945 8.81999 L16.4217 9.30148 L18.3488 9.78297 L20.276 10.2645 L18.8959 11.6924 L17.5158 13.1204 L16.1357 14.5483 L14.7557 15.9762 L13.3756 17.4042 Z " />
<path stroke="rgb(200,255,200)" stroke-opacity="1" fill="rgb(200,255,200)" fill-opacity="1" id="tri_4_4_" d="M11.608 3.73979 L12.1552 5.64968 L12.7024 7.55957 L13.2496 9.46946 L13.7968 11.3794 L14.344 13.2892 L12.4168 12.8081 L10.4896 12.3269 L8.56245 11.8457 L6.63527 11.3645 L4.70809 10.8833 L6.08807 9.45461 L7.46805 8.02591 L8.84803 6.5972 L10.228 5.1685 L11.608 3.73979 Z " />
<path stroke="rgb(200,255,200)" stroke-opacity="1" fill="rgb(200,255,200)" fill-opacity="1" id="tri_6_5_" d="M23.3527 17.3865 L22.8059 15.4782 L22.2591 13.5699 L21.7123 11.6617 L21.1656 9.75341 L20.6188 7.84514 L22.5449 8.3254 L24.471 8.80565 L26.3971 9.2859 L28.3232 9.76615 L30.2493 10.2464 L28.87 11.6744 L27.4906 13.1024 L26.1113 14.5304 L24.732 15.9585 L23.3527 17.3865 Z " />
<path stroke="rgb(200,255,200)" stroke-opacity="1" fill="rgb(200,255,200)" fill-opacity="1" id="tri_5_4_" d="M21.5851 3.72807 L22.132 5.6368 L22.6789 7.54553 L23.2258 9.45427 L23.7728 11.363 L24.3197 13.2717 L22.3925 12.7902 L20.4654 12.3088 L18.5382 11.8273 L16.6111 11.3458 L14.6839 10.8643 L16.0641 9.43706 L17.4444 8.00981 L18.8246 6.58256 L20.2048 5.15531 L21.5851 3.72807 Z " />
<path stroke="rgb(200,255,200)" stroke-opacity="1" fill="rgb(200,255,200)" fill-opacity="1" id="tri_7_4_" d="M33.3295 17.3651 L32.7826 15.457 L32.2357 13.5489 L31.6887 11.6409 L31.1418 9.73279 L30.5949 7.82472 L32.5204 8.30612 L34.4459 8.78752 L36.3714 9.26892 L38.2969 9.75032 L40.2224 10.2317 L38.8438 11.6584 L37.4652 13.0851 L36.0867 14.5117 L34.7081 15.9384 L33.3295 17.3651 Z " />
<path stroke="rgb(200,255,200)" stroke-opacity="1" fill="rgb(200,255,200)" fill-opacity="1" id="tri_6_4_" d="M31.5593 3.70885 L32.1064 5.6174 L32.6535 7.52594 L33.2006 9.43449 L33.7476 11.343 L34.2947 13.2516 L32.3686 12.7713 L30.4425 12.2911 L28.5164 11.8108 L26.5903 11.3306 L24.6642 10.8503 L26.0432 9.42203 L27.4223 7.99373 L28.8013 6.56544 L30.1803 5.13715 L31.5593 3.70885 Z " />
<path stroke="rgb(200,255,200)" stroke-opacity="1" fill="rgb(200,255,200)" fill-opacity="1" id="tri_0_4_" d="M-41.4775 26.1459 L-42.025 24.2345 L-42.5726 22.323 L-43.1201 20.4115 L-43.6677 18.5001 L-44.2152 16.5886 L-42.2864 17.0701 L-40.3577 17.5516 L-38.4289 18.033 L-36.5001 18.5145 L-34.5714 18.996 L-35.9526 20.426 L-37.3338 21.856 L-38.715 23.286 L-40.0962 24.716 L-41.4775 26.1459 Z " />
<path stroke="rgb(200,255,200)" stroke-opacity="1" fill="rgb(200,255,200)" fill-opacity="1" id="tri_1_3_" d="M-31.5013 26.1257 L-32.0483 24.2148 L-32.5953 22.3039 L-33.1423 20.393 L-33.6893 18.4821 L-34.2363 16.5711 L-32.3085 17.0531 L-30.3807 17.535 L-28.4529 18.017 L-26.5251 18.4989 L-24.5973 18.9809 L-25.9781 20.4098 L-27.3589 21.8388 L-28.7397 23.2678 L-30.1205 24.6968 L-31.5013 26.1257 Z " />
<path stroke="rgb(200,255,200)" stroke-opacity="1" fill="rgb(200,255,200)" fill-opacity="1" id="tri_0_3_" d="M-33.2639 12.4542 L-32.7168 14.3655 L-32.1697 16.2768 L-31.6225 18.1882 L-31.0754 20.0995 L-30.5283 22.0108 L-32.4571 21.5294 L-34.3858 21.0479 L-36.3146 20.5664 L-38.2434 20.0849 L-40.1721 19.6035 L-38.7905 18.1736 L-37.4088 16.7437 L-36.0272 15.3139 L-34.6456 13.884 L-33.2639 12.4542 Z " />
<path stroke="rgb(200,255,200)" stroke-opacity="1" fill="rgb(200,255,200)" fill-opacity="1" id="tri_2_3_" d="M-21.5269 26.1078 L-22.074 24.1976 L-22.6212 22.2874 L-23.1684 20.3772 L-23.7155 18.467 L-24.2627 16.5568 L-22.3346 17.0379 L-20.4066 17.519 L-18.4785 18.0001 L-16.5504 18.4813 L-14.6224 18.9624 L-16.0033 20.3915 L-17.3842 21.8206 L-18.7651 23.2496 L-20.146 24.6787 L-21.5269 26.1078 Z " />
<path stroke="rgb(200,255,200)" stroke-opacity="1" fill="rgb(200,255,200)" fill-opacity="1" id="tri_1_2_" d="M-23.2914 12.4401 L-22.7441 14.3507 L-22.1969 16.2614 L-21.6496 18.172 L-21.1023 20.0826 L-20.555 21.9933 L-22.4828 21.5113 L-24.4106 21.0294 L-26.3384 20.5474 L-28.2662 20.0655 L-30.194 19.5835 L-28.8135 18.1548 L-27.433 16.7262 L-26.0525 15.2975 L-24.6719 13.8688 L-23.2914 12.4401 Z " />
<path stroke="rgb(200,255,200)" stroke-opacity="1" fill="rgb(200,255,200)" fill-opacity="1" id="tri_3_3_" d="M-11.5493 26.089 L-12.0969 24.1787 L-12.6445 22.2683 L-13.1922 20.358 L-13.7398 18.4477 L-14.2874 16.5373 L-12.3592 17.0195 L-10.431 17.5016 L-8.50276 17.9837 L-6.57456 18.4659 L-4.64635 18.948 L-6.02695 20.3762 L-7.40754 21.8044 L-8.78814 23.2326 L-10.1687 24.6608 L-11.5493 26.089 Z " />
<path stroke="rgb(200,255,200)" stroke-opacity="1" fill="rgb(200,255,200)" fill-opacity="1" id="tri_2_2_" d="M-13.317 12.4199 L-12.7692 14.3307 L-12.2215 16.2414 L-11.6738 18.1522 L-11.126 20.063 L-10.5783 21.9737 L-12.5064 21.4926 L-14.4344 21.0115 L-16.3625 20.5304 L-18.2906 20.0492 L-20.2186 19.5681 L-18.8383 18.1385 L-17.458 16.7088 L-16.0776 15.2792 L-14.6973 13.8495 L-13.317 12.4199 Z " />
<path stroke="rgb(200,255,200)" stroke-opacity="1" fill="rgb(200,255,200)" fill-opacity="1" id="tri_4_3_" d="M-1.57275 26.0733 L-2.11967 24.1634 L-2.66659 22.2535 L-3.21351 20.3436 L-3.76042 18.4337 L-4.30734 16.5238 L-2.38073 17.0047 L-0.454118 17.4856 L1.47249 17.9665 L3.3991 18.4475 L5.32572 18.9284 L3.94602 20.3574 L2.56633 21.7863 L1.18664 23.2153 L-0.193058 24.6443 L-1.57275 26.0733 Z " />
<path stroke="rgb(200,255,200)" stroke-opacity="1" fill="rgb(200,255,200)" fill-opacity="1" id="tri_3_2_" d="M-3.33824 12.4067 L-2.79119 14.317 L-2.24415 16.2274 L-1.6971 18.1377 L-1.15005 20.048 L-0.603009 21.9584 L-2.53121 21.4762 L-4.45942 20.9941 L-6.38762 20.512 L-8.31582 20.0298 L-10.244 19.5477 L-8.86287 18.1195 L-7.48171 16.6913 L-6.10055 15.2631 L-4.7194 13.8349 L-3.33824 12.4067 Z " />
<path stroke="rgb(200,255,200)" stroke-opacity="1" fill="rgb(200,255,200)" fill-opacity="1" id="tri_5_3_" d="M8.40197 26.0506 L7.8552 24.142 L7.30842 22.2334 L6.76165 20.3248 L6.21487 18.4162 L5.66809 16.5076 L7.59468 16.9888 L9.52126 17.47 L11.4478 17.9512 L13.3744 18.4324 L15.301 18.9137 L13.9212 20.341 L12.5414 21.7684 L11.1616 23.1958 L9.78178 24.6232 L8.40197 26.0506 Z " />
<path stroke="rgb(200,255,200)" stroke-opacity="1" fill="rgb(200,255,200)" fill-opacity="1" id="tri_4_2_" d="M6.63558 12.3914 L7.18249 14.3005 L7.7294 16.2095 L8.2763 18.1186 L8.82321 20.0276 L9.37012 21.9367 L7.4435 21.4558 L5.51689 20.9749 L3.59028 20.4939 L1.66367 20.013 L-0.262945 19.5321 L1.11676 18.104 L2.49647 16.6758 L3.87617 15.2477 L5.25588 13.8196 L6.63558 12.3914 Z " />
<path stroke="rgb(200,255,200)" stroke-opacity="1" fill="rgb(200,255,200)" fill-opacity="1" id="tri_6_3_" d="M18.3778 26.0353 L17.8314 24.1266 L17.285 22.2179 L16.7387 20.3092 L16.1923 18.4005 L15.6459 16.4918 L17.5717 16.9726 L19.4976 17.4534 L21.4234 17.9342 L23.3492 18.415 L25.275 18.8959 L23.8956 20.3237 L22.5161 21.7516 L21.1367 23.1795 L19.7572 24.6074 L18.3778 26.0353 Z " />
<path stroke="rgb(200,255,200)" stroke-opacity="1" fill="rgb(200,255,200)" fill-opacity="1" id="tri_5_2_" d="M16.6119 12.3752 L17.1584 14.2844 L17.7049 16.1936 L18.2514 18.1027 L18.7979 20.0119 L19.3444 21.9211 L17.4179 21.4398 L15.4913 20.9586 L13.5647 20.4774 L11.6381 19.9962 L9.71153 19.515 L11.0916 18.087 L12.4717 16.6591 L13.8518 15.2311 L15.2318 13.8032 L16.6119 12.3752 Z " />
<path stroke="rgb(200,255,200)" stroke-opacity="1" fill="rgb(200,255,200)" fill-opacity="1" id="tri_7_3_" d="M28.355 26.0152 L27.8086 24.1068 L27.2623 22.1985 L26.7159 20.2901 L26.1695 18.3817 L25.6231 16.4734 L27.5482 16.9546 L29.4733 17.4359 L31.3984 17.9172 L33.3234 18.3985 L35.2485 18.8797 L33.8698 20.3068 L32.4911 21.7339 L31.1124 23.161 L29.7337 24.5881 L28.355 26.0152 Z " />
<path stroke="rgb(200,255,200)" stroke-opacity="1" fill="rgb(200,255,200)" fill-opacity="1" id="tri_6_2_" d="M26.5877 12.3579 L27.1342 14.2667 L27.6807 16.1756 L28.2273 18.0844 L28.7738 19.9932 L29.3203 21.9021 L27.3945 21.4213 L25.4686 20.9404 L23.5428 20.4596 L21.617 19.9788 L19.6911 19.498 L21.0705 18.07 L22.4498 16.6419 L23.8291 15.2139 L25.2084 13.7859 L26.5877 12.3579 Z " />
<path stroke="rgb(200,255,200)" stroke-opacity="1" fill="rgb(200,255,200)" fill-opacity="1" id="tri_8_2_" d="M38.3288 25.9964 L37.7824 24.0889 L37.236 22.1815 L36.6897 20.274 L36.1433 18.3666 L35.5969 16.4591 L37.5223 16.9397 L39.4478 17.4203 L41.3732 17.9008 L43.2986 18.3814 L45.224 18.862 L43.845 20.2888 L42.4659 21.7157 L41.0869 23.1426 L39.7078 24.5695 L38.3288 25.9964 Z " />
<path stroke="rgb(200,255,200)" stroke-opacity="1" fill="rgb(200,255,200)" fill-opacity="1" id="tri_7_2_" d="M36.5607 12.3435 L37.1072 14.2514 L37.6538 16.1593 L38.2003 18.0673 L38.7468 19.9752 L39.2933 21.8832 L37.3682 21.4019 L35.4431 20.9206 L33.5181 20.4393 L31.593 19.9581 L29.6679 19.4768 L31.0465 18.0501 L32.425 16.6235 L33.8036 15.1968 L35.1822 13.7701 L36.5607 12.3435 Z " />
<path stroke="rgb(200,255,200)" stroke-opacity="1" fill="rgb(200,255,200)" fill-opacity="1" id="tri_0_2_" d="M-46.4505 34.7939 L-46.9981 32.883 L-47.5456 30.9721 L-48.0932 29.0612 L-48.6407 27.1503 L-49.1882 25.2394 L-47.2592 25.7205 L-45.3302 26.2017 L-43.4011 26.6829 L-41.4721 27.1641 L-39.543 27.6453 L-40.9245 29.075 L-42.306 30.5047 L-43.6875 31.9345 L-45.069 33.3642 L-46.4505 34.7939 Z " />
<path stroke="rgb(200,255,200)" stroke-opacity="1" fill="rgb(200,255,200)" fill-opacity="1" id="tri_1_1_" d="M-36.4725 34.7751 L-37.0202 32.8644 L-37.5679 30.9536 L-38.1156 29.0428 L-38.6633 27.1321 L-39.211 25.2213 L-37.2825 25.7025 L-35.354 26.1838 L-33.4255 26.665 L-31.497 27.1462 L-29.5686 27.6275 L-30.9493 29.057 L-32.3301 30.4865 L-33.7109 31.9161 L-35.0917 33.3456 L-36.4725 34.7751 Z " />
<path stroke="rgb(200,255,200)" stroke-opacity="1" fill="rgb(200,255,200)" fill-opacity="1" id="tri_0_1_" d="M-38.2394 21.1035 L-37.6916 23.0146 L-37.1438 24.9258 L-36.5959 26.837 L-36.0481 28.7482 L-35.5003 30.6594 L-37.4293 30.1782 L-39.3584 29.697 L-41.2874 29.2158 L-43.2165 28.7346 L-45.1455 28.2534 L-43.7643 26.8234 L-42.3831 25.3934 L-41.0019 23.9634 L-39.6207 22.5334 L-38.2394 21.1035 Z " />
<path stroke="rgb(200,255,200)" stroke-opacity="1" fill="rgb(200,255,200)" fill-opacity="1" id="tri_2_1_" d="M-26.4979 34.7552 L-27.0455 32.8454 L-27.5931 30.9356 L-28.1407 29.0259 L-28.6882 27.1161 L-29.2358 25.2063 L-27.3071 25.6876 L-25.3783 26.1688 L-23.4495 26.6501 L-21.5208 27.1313 L-19.592 27.6126 L-20.9732 29.0411 L-22.3544 30.4696 L-23.7355 31.8982 L-25.1167 33.3267 L-26.4979 34.7552 Z " />
<path stroke="rgb(200,255,200)" stroke-opacity="1" fill="rgb(200,255,200)" fill-opacity="1" id="tri_1" d="M-28.2643 21.0883 L-27.7166 22.9985 L-27.1689 24.9087 L-26.6212 26.8189 L-26.0735 28.7291 L-25.5258 30.6393 L-27.4543 30.1581 L-29.3828 29.6769 L-31.3113 29.1956 L-33.2398 28.7144 L-35.1683 28.2332 L-33.7875 26.8042 L-32.4067 25.3752 L-31.0259 23.9463 L-29.6451 22.5173 L-28.2643 21.0883 Z " />
<path stroke="rgb(200,255,200)" stroke-opacity="1" fill="rgb(200,255,200)" fill-opacity="1" id="tri_3_1_" d="M-16.5202 34.7391 L-17.0679 32.8292 L-17.6157 30.9193 L-18.1634 29.0094 L-18.7111 27.0995 L-19.2589 25.1896 L-17.3311 25.671 L-15.4033 26.1525 L-13.4756 26.6339 L-11.5478 27.1153 L-9.62002 27.5968 L-11.0001 29.0252 L-12.3801 30.4537 L-13.7601 31.8822 L-15.1401 33.3107 L-16.5202 34.7391 Z " />
<path stroke="rgb(200,255,200)" stroke-opacity="1" fill="rgb(200,255,200)" fill-opacity="1" id="tri_2" d="M-18.2887 21.0719 L-17.7408 22.9822 L-17.1929 24.8925 L-16.6451 26.8029 L-16.0972 28.7132 L-15.5493 30.6236 L-17.4781 30.1423 L-19.4069 29.6611 L-21.3356 29.1798 L-23.2644 28.6986 L-25.1932 28.2173 L-23.8123 26.7882 L-22.4314 25.3591 L-21.0505 23.93 L-19.6696 22.501 L-18.2887 21.0719 Z " />
<path stroke="rgb(200,255,200)" stroke-opacity="1" fill="rgb(200,255,200)" fill-opacity="1" id="tri_4_1_" d="M-6.54612 34.7206 L-7.09317 32.8114 L-7.64022 30.9022 L-8.18727 28.993 L-8.73432 27.0838 L-9.28137 25.1746 L-7.35462 25.6554 L-5.42787 26.1361 L-3.50112 26.6169 L-1.57436 27.0977 L0.352385 27.5785 L-1.02732 29.0069 L-2.40702 30.4353 L-3.78672 31.8637 L-5.16642 33.2921 L-6.54612 34.7206 Z " />
<path stroke="rgb(200,255,200)" stroke-opacity="1" fill="rgb(200,255,200)" fill-opacity="1" id="tri_3" d="M-8.31276 21.0578 L-7.76558 22.9674 L-7.2184 24.8771 L-6.67123 26.7867 L-6.12405 28.6963 L-5.57687 30.606 L-7.50464 30.1245 L-9.43242 29.6431 L-11.3602 29.1617 L-13.288 28.6802 L-15.2157 28.1988 L-13.8351 26.7706 L-12.4545 25.3424 L-11.074 23.9142 L-9.69335 22.486 L-8.31276 21.0578 Z " />
<path stroke="rgb(200,255,200)" stroke-opacity="1" fill="rgb(200,255,200)" fill-opacity="1" id="tri_5_1_" d="M3.42925 34.7011 L2.88232 32.7918 L2.3354 30.8825 L1.78847 28.9732 L1.24154 27.0639 L0.694616 25.1546 L2.62149 25.6361 L4.54835 26.1176 L6.47522 26.5991 L8.40209 27.0806 L10.329 27.562 L8.94902 28.9898 L7.56908 30.4177 L6.18913 31.8455 L4.80919 33.2733 L3.42925 34.7011 Z " />
<path stroke="rgb(200,255,200)" stroke-opacity="1" fill="rgb(200,255,200)" fill-opacity="1" id="tri_4" d="M1.66177 21.0379 L2.20883 22.9476 L2.75588 24.8574 L3.30294 26.7671 L3.84999 28.6769 L4.39705 30.5866 L2.4703 30.1059 L0.543552 29.6251 L-1.3832 29.1443 L-3.30995 28.6636 L-5.2367 28.1828 L-3.85701 26.7538 L-2.47731 25.3248 L-1.09762 23.8959 L0.282074 22.4669 L1.66177 21.0379 Z " />
<path stroke="rgb(200,255,200)" stroke-opacity="1" fill="rgb(200,255,200)" fill-opacity="1" id="tri_6_1_" d="M13.4058 34.6837 L12.8589 32.7753 L12.3119 30.8669 L11.765 28.9585 L11.2181 27.0501 L10.6712 25.1417 L12.5977 25.6221 L14.5242 26.1024 L16.4507 26.5828 L18.3772 27.0632 L20.3038 27.5436 L18.9242 28.9716 L17.5446 30.3996 L16.165 31.8277 L14.7854 33.2557 L13.4058 34.6837 Z " />
<path stroke="rgb(200,255,200)" stroke-opacity="1" fill="rgb(200,255,200)" fill-opacity="1" id="tri_5" d="M11.6375 21.0246 L12.1846 22.9335 L12.7316 24.8423 L13.2787 26.7512 L13.8258 28.6601 L14.3728 30.5689 L12.4459 30.0874 L10.5191 29.606 L8.5922 29.1245 L6.66534 28.643 L4.73847 28.1615 L6.11827 26.7341 L7.49808 25.3067 L8.87788 23.8793 L10.2577 22.452 L11.6375 21.0246 Z " />
<path stroke="rgb(200,255,200)" stroke-opacity="1" fill="rgb(200,255,200)" fill-opacity="1" id="tri_7_1_" d="M23.3831 34.6633 L22.8362 32.7555 L22.2892 30.8477 L21.7423 28.9399 L21.1954 27.0321 L20.6484 25.1243 L22.5742 25.6054 L24.5 26.0865 L26.4258 26.5677 L28.3515 27.0488 L30.2773 27.5299 L28.8985 28.9566 L27.5196 30.3832 L26.1408 31.8099 L24.7619 33.2366 L23.3831 34.6633 Z " />
<path stroke="rgb(200,255,200)" stroke-opacity="1" fill="rgb(200,255,200)" fill-opacity="1" id="tri_6" d="M21.6133 21.0077 L22.1604 22.9159 L22.7075 24.8242 L23.2545 26.7325 L23.8016 28.6407 L24.3487 30.549 L22.4221 30.0686 L20.4956 29.5882 L18.5691 29.1079 L16.6426 28.6275 L14.716 28.1471 L16.0955 26.7192 L17.475 25.2913 L18.8544 23.8634 L20.2339 22.4356 L21.6133 21.0077 Z " />
<path stroke="rgb(200,255,200)" stroke-opacity="1" fill="rgb(200,255,200)" fill-opacity="1" id="tri_8_1_" d="M33.3578 34.6467 L32.8109 32.7389 L32.2639 30.8312 L31.717 28.9235 L31.1701 27.0158 L30.6231 25.1081 L32.5488 25.5886 L34.4745 26.0692 L36.4002 26.5497 L38.3259 27.0303 L40.2516 27.5109 L38.8728 28.938 L37.4941 30.3652 L36.1153 31.7924 L34.7366 33.2195 L33.3578 34.6467 Z " />
<path stroke="rgb(200,255,200)" stroke-opacity="1" fill="rgb(200,255,200)" fill-opacity="1" id="tri_7" d="M31.5867 20.9916 L32.1338 22.8998 L32.6809 24.8081 L33.228 26.7163 L33.7751 28.6245 L34.3221 30.5327 L32.3964 30.0516 L30.4706 29.5704 L28.5448 29.0893 L26.619 28.6082 L24.6933 28.1271 L26.0719 26.7 L27.4506 25.2729 L28.8293 23.8458 L30.208 22.4187 L31.5867 20.9916 Z " />
<path stroke="rgb(200,255,200)" stroke-opacity="1" fill="rgb(200,255,200)" fill-opacity="1" id="tri_9" d="M43.3347 34.627 L42.7882 32.72 L42.2417 30.8131 L41.6952 28.9061 L41.1487 26.9992 L40.6022 25.0922 L42.5267 25.5725 L44.4512 26.0528 L46.3757 26.5331 L48.3001 27.0135 L50.2246 27.4938 L48.8467 28.9204 L47.4687 30.347 L46.0907 31.7737 L44.7127 33.2003 L43.3347 34.627 Z " />
<path stroke="rgb(200,255,200)" stroke-opacity="1" fill="rgb(200,255,200)" fill-opacity="1" id="tri_8" d="M41.564 20.9759 L42.1107 22.8833 L42.6573 24.7908 L43.204 26.6982 L43.7506 28.6057 L44.2973 30.5131 L42.3716 30.0326 L40.4459 29.552 L38.5202 29.0714 L36.5945 28.5909 L34.6688 28.1103 L36.0478 26.6834 L37.4269 25.2565 L38.8059 23.8297 L40.185 22.4028 L41.564 20.9759 Z " />
</g>
</g>
</svg>
