<!DOCTYPE svg>
<svg xmlns="http://www.w3.org/2000/svg" xmlns:xlink="http://www.w3.org/1999/xlink" width="600" height="600">
<g transform="translate(300.000000,300.000000)">
<g transform="scale(3.000000,3.000000)">
<path stroke="rgb(0,0,0)" stroke-opacity="1" fill="rgb(255,255,255)" fill-opacity="1" id="Layer_1" d="M107.411 107.089 L105.406 107.092 L103.402 107.095 L101.397 107.098 L99.3922 107.101 L97.3875 107.104 L95.3828 107.107 L93.3782 107.11 L91.3735 107.113 L89.3688 107.116 L87.3641 107.119 L85.3595 107.122 L83.3548 107.125 L81.3501 107.128 L79.3455 107.131 L77.3408 107.134 L75.3361 107.137 L73.3314 107.14 L71.3268 107.143 L69.3221 107.146 L67.3174 107.149 L65.3127 107.152 L63.3081 107.155 L61.3034 107.158 L59.2987 107.161 L57.2941 107.164 L55.2894 107.167 L53.2847 107.17 L51.28 107.173 L49.2754 107.176 L47.2707 107.179 L45.266 107.182 L43.2613 107.185 L41.2567 107.188 L39.252 107.191 L37.2473 107.194 L35.2426 107.197 L33.238 107.2 L31.2333 107.203 L29.2286 107.206 L27.224 107.209 L25.2193 107.212 L23.2146 107.215 L21.2099 107.218 L19.2053 107.221 L17.2006 107.224 L15.1959 107.227 L13.1912 107.23 L11.1866 107.233 L9.1819 107.236 L7.17723 107.239 L5.17256 107.242 L3.16788 107.245 L1.16321 107.248 L-0.841463 107.252 L-2.84614 107.255 L-4.85081 107.258 L-6.85548 107.261 L-8.86015 107.264 L-10.8648 107.267 L-12.8695 107.27 L-14.8742 107.273 L-16.8788 107.276 L-18.8835 107.279 L-20.8882 107.282 L-22.8929 107.285 L-24.8975 107.288 L-26.9022 107.291 L-28.9069 107.294 L-30.9116 107.297 L-32.9162 107.3 L-34.9209 107.303 L-36.9256 107.306 L-38.9302 107.309 L-40.9349 107.312 L-42.9396 107.315 L-44.9443 107.318 L-46.9489 107.321 L-48.9536 107.324 L-50.9583 107.327 L-52.963 107.33 L-54.9676 107.333 L-56.9723 107.336 L-58.977 107.339 L-60.9816 107.342 L-62.9863 107.345 L-64.991 107.348 L-66.9957 107.351 L-69.0003 107.354 L-71.005 107.357 L-73.0097 107.36 L-75.0144 107.363 L-77.019 107.366 L-79.0237 107.369 L-81.0284 107.372 L-83.0331 107.375 L-85.0377 107.378 L-87.0424 107.381 L-89.0471 107.384 L-91.0517 107.387 L-93.0564 107.39 L-95.0611 107.393 L-97.0658 107.396 L-99.0704 107.399 L-101.075 107.402 L-103.08 107.405 L-105.084 107.408 L-107.089 107.411 L-107.092 105.406 L-107.095 103.402 L-107.098 101.397 L-107.101 99.3922 L-107.104 97.3875 L-107.107 95.3828 L-107.11 93.3782 L-107.113 91.3735 L-107.116 89.3688 L-107.119 87.3641 L-107.122 85.3595 L-107.125 83.3548 L-107.128 81.3501 L-107.131 79.3455 L-107.134 77.3408 L-107.137 75.3361 L-107.14 73.3314 L-107.143 71.3268 L-107.146 69.3221 L-107.149 67.3174 L-107.152 65.3127 L-107.155 63.3081 L-107.158 61.3034 L-107.161 59.2987 L-107.164 57.2941 L-107.167 55.2894 L-107.17 53.2847 L-107.173 51.28 L-107.176 49.2754 L-107.179 47.2707 L-107.182 45.266 L-107.185 43.2613 L-107.188 41.2567 L-107.191 39.252 L-107.194 37.2473 L-107.197 35.2426 L-107.2 33.238 L-107.203 31.2333 L-107.206 29.2286 L-107.209 27.224 L-107.212 25.2193 L-107.215 23.2146 L-107.218 21.2099 L-107.221 19.2053 L-107.224 17.2006 L-107.227 15.1959 L-107.23 13.1912 L-107.233 11.1866 L-107.236 9.1819 L-107.239 7.17722 L-107.242 5.17255 L-107.245 3.16788 L-107.248 1.1632 L-107.251 -0.841469 L-107.255 -2.84614 L-107.258 -4.85081 L-107.261 -6.85549 L-107.264 -8.86016 L-107.267 -10.8648 L-107.27 -12.8695 L-107.273 -14.8742 L-107.276 -16.8789 L-107.279 -18.8835 L-107.282 -20.8882 L-107.285 -22.8929 L-107.288 -24.8975 L-107.291 -26.9022 L-107.294 -28.9069 L-107.297 -30.9116 L-107.3 -32.9162 L-107.303 -34.9209 L-107.306 -36.9256 L-107.309 -38.9303 L-107.312 -40.9349 L-107.315 -42.9396 L-107.318 -44.9443 L-107.321 -46.9489 L-107.324 -48.9536 L-107.327 -50.9583 L-107.33 -52.963 L-107.333 -54.9676 L-107.336 -56.9723 L-107.339 -58.977 L-107.342 -60.9817 L-107.345 -62.9863 L-107.348 -64.991 L-107.351 -66.9957 L-107.354 -69.0003 L-107.357 -71.005 L-107.36 -73.0097 L-107.363 -75.0144 L-107.366 -77.019 L-107.369 -79.0237 L-107.372 -81.0284 L-107.375 -83.0331 L-107.378 -85.0377 L-107.381 -87.0424 L-107.384 -89.0471 L-107.387 -91.0518 L-107.39 -93.0564 L-107.393 -95.0611 L-107.396 -97.0658 L-107.399 -99.0704 L-107.402 -101.075 L-107.405 -103.08 L-107.408 -105.084 L-107.411 -107.089 L-105.406 -107.092 L-103.402 -107.095 L-101.397 -107.098 L-99.3922 -107.101 L-97.3875 -107.104 L-95.3828 -107.107 L-93.3782 -107.11 L-91.3735 -107.113 L-89.3688 -107.116 L-87.3641 -107.119 L-85.3595 -107.122 L-83.3548 -107.125 L-81.3501 -107.128 L-79.3455 -107.131 L-77.3408 -107.134 L-75.3361 -107.137 L-73.3314 -107.14 L-71.3268 -107.143 L-69.3221 -107.146 L-67.3174 -107.149 L-65.3127 -107.152 L-63.3081 -107.155 L-61.3034 -107.158 L-59.2987 -107.161 L-57.2941 -107.164 L-55.2894 -107.167 L-53.2847 -107.17 L-51.28 -107.173 L-49.2754 -107.176 L-47.2707 -107.179 L-45.266 -107.182 L-43.2613 -107.185 L-41.2567 -107.188 L-39.252 -107.191 L-37.2473 -107.194 L-35.2426 -107.197 L-33.238 -107.2 L-31.2333 -107.203 L-29.2286 -107.206 L-27.224 -107.209 L-25.2193 -107.212 L-23.2146 -107.215 L-21.2099 -107.218 L-19.2053 -107.221 L-17.2006 -107.224 L-15.1959 -107.227 L-13.1912 -107.23 L-11.1866 -107.233 L-9.1819 -107.236 L-7.17723 -107.239 L-5.17256 -107.242 L-3.16788 -107.245 L-1.16321 -107.248 L0.841463 -107.252 L2.84614 -107.255 L4.85081 -107.258 L6.85548 -107.261 L8.86015 -107.264 L10.8648 -107.267 L12.8695 -107.27 L14.8742 -107.273 L16.8788 -107.276 L18.8835 -107.279 L20.8882 -107.282 L22.8929 -107.285 L24.8975 -107.288 L26.9022 -107.291 L28.9069 -107.294 L30.9116 -107.297 L32.9162 -107.3 L34.9209 -107.303 L36.9256 -107.306 L38.9302 -107.309 L40.9349 -107.312 L42.9396 -107.315 L44.9443 -107.318 L46.9489 -107.321 L48.9536 -107.324 L50.9583 -107.327 L52.963 -107.33 L54.9676 -107.333 L56.9723 -107.336 L58.977 -107.339 L60.9816 -107.342 L62.9863 -107.345 L64.991 -107.348 L66.9957 -107.351 L69.0003 -107.354 L71.005 -107.357 L73.0097 -107.36 L75.0144 -107.363 L77.019 -107.366 L79.0237 -107.369 L81.0284 -107.372 L83.0331 -107.375 L85.0377 -107.378 L87.0424 -107.381 L89.0471 -107.384 L91.0517 -107.387 L93.0564 -107.39 L95.0611 -107.393 L97.0658 -107.396 L99.0704 -107.399 L101.075 -107.402 L103.08 -107.405 L105.084 -107.408 L107.089 -107.411 L107.092 -105.406 L107.095 -103.402 L107.098 -101.397 L107.101 -99.3922 L107.104 -97.3875 L107.107 -95.3828 L107.11 -93.3782 L107.113 -91.3735 L107.116 -89.3688 L107.119 -87.3642 L107.122 -85.3595 L107.125 -83.3548 L107.128 -81.3501 L107.131 -79.3455 L107.134 -77.3408 L107.137 -75.3361 L107.14 -73.3314 L107.143 -71.3268 L107.146 -69.3221 L107.149 -67.3174 L107.152 -65.3128 L107.155 -63.3081 L107.158 -61.3034 L107.161 -59.2987 L107.164 -57.2941 L107.167 -55.2894 L107.17 -53.2847 L107.173 -51.28 L107.176 -49.2754 L107.179 -47.2707 L107.182 -45.266 L107.185 -43.2613 L107.188 -41.2567 L107.191 -39.252 L107.194 -37.2473 L107.197 -35.2427 L107.2 -33.238 L107.203 -31.2333 L107.206 -29.2286 L107.209 -27.224 L107.212 -25.2193 L107.215 -23.2146 L107.218 -21.2099 L107.221 -19.2053 L107.224 -17.2006 L107.227 -15.1959 L107.23 -13.1913 L107.233 -11.1866 L107.236 -9.18191 L107.239 -7.17724 L107.242 -5.17256 L107.245 -3.16789 L107.248 -1.16322 L107.251 0.841455 L107.255 2.84613 L107.258 4.8508 L107.261 6.85547 L107.264 8.86015 L107.267 10.8648 L107.27 12.8695 L107.273 14.8742 L107.276 16.8788 L107.279 18.8835 L107.282 20.8882 L107.285 22.8929 L107.288 24.8975 L107.291 26.9022 L107.294 28.9069 L107.297 30.9115 L107.3 32.9162 L107.303 34.9209 L107.306 36.9256 L107.309 38.9302 L107.312 40.9349 L107.315 42.9396 L107.318 44.9443 L107.321 46.9489 L107.324 48.9536 L107.327 50.9583 L107.33 52.963 L107.333 54.9676 L107.336 56.9723 L107.339 58.977 L107.342 60.9816 L107.345 62.9863 L107.348 64.991 L107.351 66.9957 L107.354 69.0003 L107.357 71.005 L107.36 73.0097 L107.363 75.0144 L107.366 77.019 L107.369 79.0237 L107.372 81.0284 L107.375 83.033 L107.378 85.0377 L107.381 87.0424 L107.384 89.0471 L107.387 91.0517 L107.39 93.0564 L107.393 95.0611 L107.396 97.0658 L107.399 99.0704 L107.402 101.075 L107.405 103.08 L107.408 105.084 L107.411 107.089 Z " />
<path stroke="rgb(169,255,187)" stroke-opacity="1" fill="rgb(169,255,187)" fill-opacity="1" id="scalebar" d="M-3.69904 -94.609 L-1.65554 -94.609 L0.387962 -94.609 L2.43146 -94.609 L4.47496 -94.609 L4.47496 -92.6686 L4.47496 -90.7281 L4.47496 -88.7876 L4.47496 -86.8472 L4.47496 -84.9067 L4.47496 -82.9663 L4.47496 -81.0258 L4.47496 -79.0853 L4.47496 -77.1449 L4.47496 -75.2044 L4.47496 -73.2639 L4.47496 -71.3235 L4.47496 -69.383 L2.43146 -69.383 L0.387962 -69.383 L-1.65554 -69.383 L-3.69904 -69.383 L-3.69904 -71.3235 L-3.69904 -73.2639 L-3.69904 -75.2044 L-3.69904 -77.1449 L-3.69904 -79.0853 L-3.69904 -81.0258 L-3.69904 -82.9663 L-3.69904 -84.9067 L-3.69904 -86.8472 L-3.69904 -88.7876 L-3.69904 -90.7281 L-3.69904 -92.6686 L-3.69904 -94.609 Z " />
<path stroke="rgb(200,255,200)" stroke-opacity="1" fill="rgb(200,255,200)" fill-opacity="1" id="scaleslider" d="M-6.69904 -90.764 L-4.67418 -90.764 L-2.64932 -90.764 L-0.624466 -90.764 L1.40039 -90.764 L3.42525 -90.764 L5.4501 -90.764 L7.47496 -90.764 L7.47496 -89.0373 L7.47496 -87.3106 L7.47496 -85.584 L5.4501 -85.584 L3.42525 -85.584 L1.40039 -85.584 L-0.624466 -85.584 L-2.64932 -85.584 L-4.67418 -85.584 L-6.69904 -85.584 L-6.69904 -87.3106 L-6.69904 -89.0373 L-6.69904 -90.764 Z " />
<path stroke="rgb(255,134,106)" stroke-opacity="1" fill="rgb(255,134,106)" fill-opacity="1" id="tranbar" d="M-49.142 -86.146 L-47.0675 -86.146 L-44.993 -86.146 L-42.9185 -86.146 L-40.844 -86.146 L-40.844 -88.2208 L-40.844 -90.2955 L-40.844 -92.3703 L-40.844 -94.445 L-38.7685 -94.445 L-36.693 -94.445 L-34.6175 -94.445 L-32.542 -94.445 L-32.542 -92.3703 L-32.542 -90.2955 L-32.542 -88.2208 L-32.542 -86.146 L-30.4673 -86.146 L-28.3925 -86.146 L-26.3178 -86.146 L-24.243 -86.146 L-24.243 -84.0715 L-24.243 -81.997 L-24.243 -79.9225 L-24.243 -77.848 L-26.3178 -77.848 L-28.3925 -77.848 L-30.4673 -77.848 L-32.542 -77.848 L-32.542 -75.773 L-32.542 -73.698 L-32.542 -71.623 L-32.542 -69.548 L-34.6175 -69.548 L-36.693 -69.548 L-38.7685 -69.548 L-40.844 -69.548 L-40.844 -71.623 L-40.844 -73.698 L-40.844 -75.773 L-40.844 -77.848 L-42.9185 -77.848 L-44.993 -77.848 L-47.0675 -77.848 L-49.142 -77.848 L-49.142 -79.9225 L-49.142 -81.997 L-49.142 -84.0715 L-49.142 -86.146 Z " />
<path stroke="rgb(255,250,159)" stroke-opacity="1" fill="rgb(255,250,159)" fill-opacity="1" id="translider" d="M-40.8948 -84.553 L-39.1915 -84.553 L-37.4881 -84.553 L-35.7848 -84.553 L-35.7848 -82.85 L-35.7848 -81.147 L-35.7848 -79.444 L-37.4881 -79.444 L-39.1915 -79.444 L-40.8948 -79.444 L-40.8948 -81.147 L-40.8948 -82.85 L-40.8948 -84.553 Z " />
<path stroke="rgb(254,204,128)" stroke-opacity="1" fill="rgb(254,204,128)" fill-opacity="1" id="rotate" d="M45.247 -86.6387 L45.3067 -84.7111 L45.3665 -82.7835 L45.4262 -80.856 L45.486 -78.9284 L45.5457 -77.0008 L43.9059 -75.9854 L42.2662 -74.97 L40.6264 -73.9546 L38.9866 -72.9392 L37.3469 -71.9239 L35.6474 -72.8362 L33.948 -73.7486 L32.2486 -74.661 L30.5492 -75.5734 L28.8498 -76.4858 L28.7901 -78.4135 L28.7305 -80.3413 L28.6708 -82.2691 L28.6112 -84.1968 L28.5515 -86.1246 L30.1912 -87.1398 L31.8309 -88.155 L33.4706 -89.1702 L35.1102 -90.1854 L36.7499 -91.2007 L38.4493 -90.2883 L40.1487 -89.3759 L41.8482 -88.4635 L43.5476 -87.5511 L45.247 -86.6387 Z " />
<path stroke="rgb(200,255,200)" stroke-opacity="1" fill="rgb(200,255,200)" fill-opacity="1" id="tri_0" d="M60.4026 -42.5887 L61.8591 -40.9031 L63.3156 -39.2176 L64.7721 -37.5321 L66.2286 -35.8465 L67.6851 -34.161 L66.0465 -33.7407 L64.4079 -33.3205 L62.7693 -32.9002 L61.1307 -32.48 L59.4921 -32.0597 L59.6742 -34.1655 L59.8563 -36.2713 L60.0384 -38.3771 L60.2205 -40.4829 L60.4026 -42.5887 Z " />
<path stroke="rgb(200,255,200)" stroke-opacity="1" fill="rgb(200,255,200)" fill-opacity="1" id="tri_0_18_" d="M45.4473 -42.5664 L46.9039 -40.8819 L48.3605 -39.1974 L49.8171 -37.513 L51.2737 -35.8285 L52.7303 -34.144 L51.0915 -33.7234 L49.4526 -33.3028 L47.8138 -32.8822 L46.175 -32.4616 L44.5361 -32.041 L44.7184 -34.146 L44.9006 -36.2511 L45.0829 -38.3562 L45.2651 -40.4613 L45.4473 -42.5664 Z " />
<path stroke="rgb(200,255,200)" stroke-opacity="1" fill="rgb(200,255,200)" fill-opacity="1" id="tri_1_16_" d="M53.239 -29.3742 L54.5937 -27.7391 L55.9484 -26.1039 L57.3032 -24.4687 L58.6579 -22.8336 L60.0127 -21.1984 L58.3848 -20.8417 L56.757 -20.485 L55.1292 -20.1283 L53.5013 -19.7717 L51.8735 -19.415 L52.1466 -21.4068 L52.4197 -23.3987 L52.6928 -25.3905 L52.9659 -27.3824 L53.239 -29.3742 Z " />
<path stroke="rgb(200,255,200)" stroke-opacity="1" fill="rgb(200,255,200)" fill-opacity="1" id="tri_0_17_" d="M57.8488 -25.8762 L56.3921 -27.5614 L54.9354 -29.2466 L53.4787 -30.9318 L52.0219 -32.617 L50.5652 -34.3022 L52.2041 -34.7228 L53.8429 -35.1434 L55.4817 -35.564 L57.1206 -35.9846 L58.7594 -36.4052 L58.5773 -34.2994 L58.3952 -32.1936 L58.213 -30.0878 L58.0309 -27.982 L57.8488 -25.8762 Z " />
<path stroke="rgb(200,255,200)" stroke-opacity="1" fill="rgb(200,255,200)" fill-opacity="1" id="tri_0_16_" d="M30.4895 -42.547 L31.9465 -40.8614 L33.4036 -39.1759 L34.8606 -37.4903 L36.3177 -35.8048 L37.7748 -34.1192 L36.1352 -33.6991 L34.4957 -33.279 L32.8562 -32.8589 L31.2166 -32.4388 L29.5771 -32.0187 L29.7596 -34.1244 L29.942 -36.23 L30.1245 -38.3357 L30.307 -40.4413 L30.4895 -42.547 Z " />
<path stroke="rgb(200,255,200)" stroke-opacity="1" fill="rgb(200,255,200)" fill-opacity="1" id="tri_1_15_" d="M38.2801 -29.3499 L39.6354 -27.7149 L40.9907 -26.0799 L42.346 -24.4449 L43.7013 -22.8099 L45.0567 -21.1749 L43.4283 -20.8183 L41.7999 -20.4616 L40.1715 -20.1049 L38.5432 -19.7483 L36.9148 -19.3916 L37.1879 -21.3833 L37.4609 -23.3749 L37.734 -25.3666 L38.007 -27.3582 L38.2801 -29.3499 Z " />
<path stroke="rgb(200,255,200)" stroke-opacity="1" fill="rgb(200,255,200)" fill-opacity="1" id="tri_0_15_" d="M42.8933 -25.8558 L41.436 -27.5408 L39.9787 -29.2257 L38.5214 -30.9107 L37.0641 -32.5957 L35.6068 -34.2807 L37.2463 -34.7008 L38.8859 -35.1209 L40.5254 -35.541 L42.1649 -35.9611 L43.8045 -36.3812 L43.6222 -34.2761 L43.44 -32.171 L43.2577 -30.0659 L43.0755 -27.9609 L42.8933 -25.8558 Z " />
<path stroke="rgb(200,255,200)" stroke-opacity="1" fill="rgb(200,255,200)" fill-opacity="1" id="tri_2_14_" d="M46.0379 -16.1767 L47.3038 -14.5869 L48.5697 -12.9972 L49.8356 -11.4075 L51.1015 -9.81784 L52.3674 -8.22814 L50.7512 -7.92681 L49.135 -7.62549 L47.5188 -7.32417 L45.9026 -7.02284 L44.2864 -6.72152 L44.6367 -8.61254 L44.987 -10.5036 L45.3373 -12.3946 L45.6876 -14.2856 L46.0379 -16.1767 Z " />
<path stroke="rgb(200,255,200)" stroke-opacity="1" fill="rgb(200,255,200)" fill-opacity="1" id="tri_1_14_" d="M50.0824 -13.1723 L48.7271 -14.8075 L47.3718 -16.4427 L46.0166 -18.0779 L44.6613 -19.713 L43.306 -21.3482 L44.9344 -21.7049 L46.5627 -22.0616 L48.1911 -22.4182 L49.8195 -22.7749 L51.4478 -23.1316 L51.1748 -21.1397 L50.9017 -19.1479 L50.6286 -17.156 L50.3555 -15.1642 L50.0824 -13.1723 Z " />
<path stroke="rgb(200,255,200)" stroke-opacity="1" fill="rgb(200,255,200)" fill-opacity="1" id="tri_0_14_" d="M15.5283 -42.5267 L16.9855 -40.8413 L18.4428 -39.1559 L19.9 -37.4705 L21.3573 -35.7851 L22.8146 -34.0997 L21.1752 -33.6799 L19.5359 -33.2602 L17.8966 -32.8404 L16.2573 -32.4206 L14.618 -32.0009 L14.8 -34.1061 L14.9821 -36.2112 L15.1642 -38.3164 L15.3462 -40.4215 L15.5283 -42.5267 Z " />
<path stroke="rgb(200,255,200)" stroke-opacity="1" fill="rgb(200,255,200)" fill-opacity="1" id="tri_1_13_" d="M23.3229 -29.331 L24.6777 -27.6951 L26.0325 -26.0593 L27.3874 -24.4235 L28.7422 -22.7876 L30.097 -21.1518 L28.4692 -20.7951 L26.8414 -20.4384 L25.2135 -20.0817 L23.5857 -19.725 L21.9579 -19.3683 L22.2309 -21.3609 L22.5039 -23.3534 L22.7769 -25.3459 L23.0499 -27.3385 L23.3229 -29.331 Z " />
<path stroke="rgb(200,255,200)" stroke-opacity="1" fill="rgb(200,255,200)" fill-opacity="1" id="tri_0_13_" d="M27.9325 -25.8332 L26.4757 -27.5191 L25.0188 -29.205 L23.562 -30.8909 L22.1052 -32.5768 L20.6483 -34.2627 L22.2876 -34.6824 L23.927 -35.1022 L25.5663 -35.5219 L27.2056 -35.9417 L28.8449 -36.3614 L28.6624 -34.2558 L28.4799 -32.1501 L28.2975 -30.0445 L28.115 -27.9388 L27.9325 -25.8332 Z " />
<path stroke="rgb(200,255,200)" stroke-opacity="1" fill="rgb(200,255,200)" fill-opacity="1" id="tri_2_13_" d="M31.0815 -16.1545 L32.3469 -14.565 L33.6123 -12.9756 L34.8777 -11.3861 L36.1431 -9.79659 L37.4085 -8.20711 L35.7926 -7.90564 L34.1768 -7.60417 L32.5609 -7.3027 L30.945 -7.00122 L29.3291 -6.69975 L29.6796 -8.5907 L30.0301 -10.4817 L30.3805 -12.3726 L30.731 -14.2636 L31.0815 -16.1545 Z " />
<path stroke="rgb(200,255,200)" stroke-opacity="1" fill="rgb(200,255,200)" fill-opacity="1" id="tri_1_12_" d="M35.1239 -13.1489 L33.7691 -14.7838 L32.4144 -16.4188 L31.0596 -18.0538 L29.7048 -19.6887 L28.3501 -21.3237 L29.9779 -21.6804 L31.6057 -22.0371 L33.2335 -22.3938 L34.8614 -22.7504 L36.4892 -23.1071 L36.2161 -21.1155 L35.9431 -19.1238 L35.67 -17.1322 L35.397 -15.1405 L35.1239 -13.1489 Z " />
<path stroke="rgb(200,255,200)" stroke-opacity="1" fill="rgb(200,255,200)" fill-opacity="1" id="tri_3_12_" d="M38.7932 -3.01975 L39.9811 -1.47221 L41.1691 0.07533 L42.357 1.62287 L43.5449 3.17041 L44.7328 4.71794 L43.1306 4.97404 L41.5283 5.23014 L39.9261 5.48624 L38.3239 5.74234 L36.7216 5.99843 L37.136 4.1948 L37.5503 2.39116 L37.9646 0.587526 L38.3789 -1.21611 L38.7932 -3.01975 Z " />
<path stroke="rgb(200,255,200)" stroke-opacity="1" fill="rgb(200,255,200)" fill-opacity="1" id="tri_2_12_" d="M42.3591 -0.432624 L41.0936 -2.02218 L39.828 -3.61173 L38.5624 -5.20128 L37.2968 -6.79084 L36.0313 -8.38039 L37.6472 -8.68187 L39.263 -8.98334 L40.8789 -9.28481 L42.4948 -9.58628 L44.1107 -9.88776 L43.7604 -7.99673 L43.4101 -6.1057 L43.0598 -4.21468 L42.7095 -2.32365 L42.3591 -0.432624 Z " />
<path stroke="rgb(200,255,200)" stroke-opacity="1" fill="rgb(200,255,200)" fill-opacity="1" id="tri_0_12_" d="M0.575057 -42.5048 L2.03126 -40.82 L3.48745 -39.1353 L4.94365 -37.4505 L6.39985 -35.7657 L7.85605 -34.081 L6.21706 -33.6607 L4.57806 -33.2403 L2.93907 -32.82 L1.30008 -32.3997 L-0.338914 -31.9794 L-0.15612 -34.0845 L0.0266743 -36.1895 L0.209469 -38.2946 L0.392264 -40.3997 L0.575057 -42.5048 Z " />
<path stroke="rgb(200,255,200)" stroke-opacity="1" fill="rgb(200,255,200)" fill-opacity="1" id="tri_1_11_" d="M8.3644 -29.3073 L9.71937 -27.6724 L11.0743 -26.0376 L12.4293 -24.4028 L13.7843 -22.7679 L15.1392 -21.1331 L13.5112 -20.7763 L11.8832 -20.4195 L10.2551 -20.0626 L8.62711 -19.7058 L6.99909 -19.349 L7.27215 -21.3407 L7.54521 -23.3323 L7.81827 -25.324 L8.09134 -27.3156 L8.3644 -29.3073 Z " />
<path stroke="rgb(200,255,200)" stroke-opacity="1" fill="rgb(200,255,200)" fill-opacity="1" id="tri_0_11_" d="M12.9742 -25.8157 L11.5173 -27.5005 L10.0604 -29.1853 L8.60342 -30.8702 L7.14649 -32.555 L5.68955 -34.2398 L7.32855 -34.6602 L8.96754 -35.0805 L10.6065 -35.5008 L12.2455 -35.9211 L13.8845 -36.3415 L13.7025 -34.2363 L13.5204 -32.1311 L13.3383 -30.026 L13.1563 -27.9208 L12.9742 -25.8157 Z " />
<path stroke="rgb(200,255,200)" stroke-opacity="1" fill="rgb(200,255,200)" fill-opacity="1" id="tri_2_11_" d="M16.1227 -16.1375 L17.3883 -14.5473 L18.654 -12.9571 L19.9196 -11.3669 L21.1852 -9.77669 L22.4509 -8.1865 L20.8352 -7.88533 L19.2196 -7.58416 L17.6039 -7.28299 L15.9883 -6.98182 L14.3726 -6.68065 L14.7226 -8.57202 L15.0726 -10.4634 L15.4227 -12.3547 L15.7727 -14.2461 L16.1227 -16.1375 Z " />
<path stroke="rgb(200,255,200)" stroke-opacity="1" fill="rgb(200,255,200)" fill-opacity="1" id="tri_1_10_" d="M20.1662 -13.1263 L18.8112 -14.762 L17.4562 -16.3977 L16.1012 -18.0335 L14.7461 -19.6692 L13.3911 -21.3049 L15.0191 -21.6617 L16.6472 -22.0185 L18.2752 -22.3753 L19.9032 -22.7321 L21.5313 -23.089 L21.2582 -21.0964 L20.9852 -19.1039 L20.7122 -17.1114 L20.4392 -15.1189 L20.1662 -13.1263 Z " />
<path stroke="rgb(200,255,200)" stroke-opacity="1" fill="rgb(200,255,200)" fill-opacity="1" id="tri_3_11_" d="M23.8382 -2.99659 L25.0257 -1.44884 L26.2132 0.098909 L27.4007 1.64666 L28.5882 3.19441 L29.7757 4.74216 L28.1732 4.99774 L26.5708 5.25333 L24.9683 5.50892 L23.3658 5.76451 L21.7634 6.02009 L22.1783 4.21676 L22.5933 2.41342 L23.0083 0.610084 L23.4232 -1.19325 L23.8382 -2.99659 Z " />
<path stroke="rgb(200,255,200)" stroke-opacity="1" fill="rgb(200,255,200)" fill-opacity="1" id="tri_2_10_" d="M27.4019 -0.412406 L26.1367 -2.00219 L24.8715 -3.59197 L23.6063 -5.18175 L22.3412 -6.77154 L21.076 -8.36132 L22.6916 -8.66249 L24.3073 -8.96366 L25.9229 -9.26483 L27.5386 -9.566 L29.1542 -9.86716 L28.8038 -7.97621 L28.4533 -6.08526 L28.1028 -4.19431 L27.7523 -2.30336 L27.4019 -0.412406 Z " />
<path stroke="rgb(200,255,200)" stroke-opacity="1" fill="rgb(200,255,200)" fill-opacity="1" id="tri_4_10_" d="M31.5304 10.1331 L32.6494 11.6439 L33.7684 13.1548 L34.8874 14.6656 L36.0063 16.1764 L37.1253 17.6872 L35.5355 17.9009 L33.9457 18.1146 L32.3559 18.3282 L30.7661 18.5419 L29.1763 18.7556 L29.6472 17.0311 L30.118 15.3066 L30.5888 13.5821 L31.0596 11.8576 L31.5304 10.1331 Z " />
<path stroke="rgb(200,255,200)" stroke-opacity="1" fill="rgb(200,255,200)" fill-opacity="1" id="tri_3_10_" d="M34.6756 12.321 L33.4874 10.773 L32.2993 9.22494 L31.1111 7.67689 L29.923 6.12884 L28.7349 4.5808 L30.3373 4.32521 L31.9398 4.06962 L33.5423 3.81403 L35.1447 3.55845 L36.7472 3.30286 L36.3329 5.1065 L35.9186 6.91013 L35.5042 8.71377 L35.0899 10.5174 L34.6756 12.321 Z " />
<path stroke="rgb(200,255,200)" stroke-opacity="1" fill="rgb(200,255,200)" fill-opacity="1" id="tri_0_10_" d="M-14.384 -42.4854 L-12.9268 -40.8 L-11.4695 -39.1146 L-10.0123 -37.4292 L-8.55502 -35.7438 L-7.09777 -34.0584 L-8.73766 -33.6384 L-10.3775 -33.2185 L-12.0174 -32.7985 L-13.6573 -32.3786 L-15.2972 -31.9586 L-15.1146 -34.064 L-14.9319 -36.1693 L-14.7493 -38.2747 L-14.5667 -40.3801 L-14.384 -42.4854 Z " />
<path stroke="rgb(200,255,200)" stroke-opacity="1" fill="rgb(200,255,200)" fill-opacity="1" id="tri_1_9_" d="M-6.59294 -29.2842 L-5.23784 -27.6491 L-3.88272 -26.014 L-2.52761 -24.3789 L-1.1725 -22.7438 L0.182606 -21.1087 L-1.44539 -20.7521 L-3.07339 -20.3954 L-4.70139 -20.0388 L-6.3294 -19.6822 L-7.9574 -19.3256 L-7.6845 -21.3173 L-7.41161 -23.3091 L-7.13873 -25.3008 L-6.86584 -27.2925 L-6.59294 -29.2842 Z " />
<path stroke="rgb(200,255,200)" stroke-opacity="1" fill="rgb(200,255,200)" fill-opacity="1" id="tri_0_9_" d="M-1.98233 -25.7941 L-3.43943 -27.4792 L-4.89652 -29.1644 L-6.35362 -30.8495 L-7.81071 -32.5346 L-9.26781 -34.2197 L-7.62792 -34.6397 L-5.98803 -35.0596 L-4.34814 -35.4796 L-2.70825 -35.8996 L-1.06836 -36.3195 L-1.25116 -34.2144 L-1.43395 -32.1094 L-1.61675 -30.0043 L-1.79954 -27.8992 L-1.98233 -25.7941 Z " />
<path stroke="rgb(200,255,200)" stroke-opacity="1" fill="rgb(200,255,200)" fill-opacity="1" id="tri_2_9_" d="M1.16481 -16.1159 L2.43039 -14.5263 L3.69597 -12.9368 L4.96154 -11.3472 L6.22712 -9.75765 L7.49269 -8.16809 L5.87707 -7.86609 L4.26145 -7.56409 L2.64583 -7.26209 L1.03021 -6.96008 L-0.585414 -6.65808 L-0.235369 -8.54964 L0.114676 -10.4412 L0.464722 -12.3327 L0.814768 -14.2243 L1.16481 -16.1159 Z " />
<path stroke="rgb(200,255,200)" stroke-opacity="1" fill="rgb(200,255,200)" fill-opacity="1" id="tri_1_8_" d="M5.20832 -13.1066 L3.85338 -14.7417 L2.49844 -16.3767 L1.14351 -18.0117 L-0.211432 -19.6468 L-1.56637 -21.2818 L0.0616302 -21.6384 L1.68963 -21.995 L3.31763 -22.3517 L4.94563 -22.7083 L6.57363 -23.0649 L6.30057 -21.0732 L6.02751 -19.0816 L5.75444 -17.0899 L5.48138 -15.0983 L5.20832 -13.1066 Z " />
<path stroke="rgb(200,255,200)" stroke-opacity="1" fill="rgb(200,255,200)" fill-opacity="1" id="tri_3_9_" d="M8.88179 -2.97219 L10.0697 -1.42483 L11.2577 0.122526 L12.4456 1.66988 L13.6336 3.21724 L14.8215 4.7646 L13.2189 5.02011 L11.6163 5.27562 L10.0137 5.53114 L8.41103 5.78665 L6.8084 6.04216 L7.22308 4.23929 L7.63776 2.43642 L8.05244 0.633552 L8.46711 -1.16932 L8.88179 -2.97219 Z " />
<path stroke="rgb(200,255,200)" stroke-opacity="1" fill="rgb(200,255,200)" fill-opacity="1" id="tri_2_8_" d="M12.4457 -0.393038 L11.1801 -1.9824 L9.91445 -3.57176 L8.64884 -5.16113 L7.38323 -6.75049 L6.11762 -8.33986 L7.73324 -8.64186 L9.34886 -8.94386 L10.9645 -9.24586 L12.5801 -9.54786 L14.1957 -9.84987 L13.8457 -7.9585 L13.4957 -6.06713 L13.1457 -4.17577 L12.7957 -2.2844 L12.4457 -0.393038 Z " />
<path stroke="rgb(200,255,200)" stroke-opacity="1" fill="rgb(200,255,200)" fill-opacity="1" id="tri_4_9_" d="M16.5734 10.153 L17.6919 11.6636 L18.8104 13.1742 L19.9289 14.6848 L21.0474 16.1954 L22.1659 17.706 L20.5765 17.9202 L18.9871 18.1344 L17.3976 18.3487 L15.8082 18.5629 L14.2188 18.7771 L14.6897 17.0523 L15.1606 15.3275 L15.6315 13.6026 L16.1025 11.8778 L16.5734 10.153 Z " />
<path stroke="rgb(200,255,200)" stroke-opacity="1" fill="rgb(200,255,200)" fill-opacity="1" id="tri_3_8_" d="M19.7168 12.3424 L18.5291 10.7946 L17.3414 9.24673 L16.1538 7.69891 L14.9661 6.15108 L13.7784 4.60326 L15.3811 4.34775 L16.9837 4.09224 L18.5863 3.83672 L20.189 3.58121 L21.7916 3.3257 L21.3766 5.12904 L20.9617 6.93237 L20.5467 8.73571 L20.1317 10.539 L19.7168 12.3424 Z " />
<path stroke="rgb(200,255,200)" stroke-opacity="1" fill="rgb(200,255,200)" fill-opacity="1" id="tri_5_8_" d="M24.2351 23.2595 L25.2936 24.736 L26.3522 26.2125 L27.4107 27.6889 L28.4692 29.1654 L29.5277 30.6419 L27.9514 30.8205 L26.375 30.9992 L24.7986 31.1778 L23.2223 31.3565 L21.6459 31.5351 L22.1638 29.88 L22.6816 28.2249 L23.1994 26.5697 L23.7173 24.9146 L24.2351 23.2595 Z " />
<path stroke="rgb(200,255,200)" stroke-opacity="1" fill="rgb(200,255,200)" fill-opacity="1" id="tri_4_8_" d="M27.017 25.1093 L25.8984 23.5991 L24.7798 22.0888 L23.6612 20.5786 L22.5426 19.0683 L21.424 17.5581 L23.0134 17.3438 L24.6028 17.1296 L26.1923 16.9153 L27.7817 16.7011 L29.3711 16.4869 L28.9003 18.2114 L28.4295 19.9359 L27.9587 21.6604 L27.4878 23.3848 L27.017 25.1093 Z " />
<path stroke="rgb(200,255,200)" stroke-opacity="1" fill="rgb(200,255,200)" fill-opacity="1" id="tri_0_8_" d="M-29.3437 -42.4676 L-27.8867 -40.7819 L-26.4296 -39.0961 L-24.9726 -37.4103 L-23.5156 -35.7246 L-22.0585 -34.0388 L-23.6977 -33.6188 L-25.3368 -33.1987 L-26.976 -32.7787 L-28.6151 -32.3587 L-30.2543 -31.9386 L-30.0722 -34.0444 L-29.8901 -36.1502 L-29.7079 -38.256 L-29.5258 -40.3618 L-29.3437 -42.4676 Z " />
<path stroke="rgb(200,255,200)" stroke-opacity="1" fill="rgb(200,255,200)" fill-opacity="1" id="tri_1_7_" d="M-21.5488 -29.2636 L-20.1943 -27.6283 L-18.8398 -25.993 L-17.4852 -24.3577 L-16.1307 -22.7224 L-14.7762 -21.0872 L-16.4039 -20.7311 L-18.0316 -20.375 L-19.6594 -20.0189 L-21.2871 -19.6628 L-22.9149 -19.3067 L-22.6417 -21.2981 L-22.3685 -23.2895 L-22.0953 -25.2808 L-21.822 -27.2722 L-21.5488 -29.2636 Z " />
<path stroke="rgb(200,255,200)" stroke-opacity="1" fill="rgb(200,255,200)" fill-opacity="1" id="tri_0_7_" d="M-16.9413 -25.7729 L-18.3979 -27.4582 L-19.8544 -29.1435 L-21.3109 -30.8288 L-22.7674 -32.5142 L-24.2239 -34.1995 L-22.5848 -34.6195 L-20.9456 -35.0396 L-19.3065 -35.4596 L-17.6673 -35.8796 L-16.0282 -36.2997 L-16.2108 -34.1943 L-16.3934 -32.089 L-16.5761 -29.9836 L-16.7587 -27.8782 L-16.9413 -25.7729 Z " />
<path stroke="rgb(200,255,200)" stroke-opacity="1" fill="rgb(200,255,200)" fill-opacity="1" id="tri_2_7_" d="M-13.7936 -16.0975 L-12.5281 -14.5074 L-11.2626 -12.9172 L-9.99715 -11.3271 L-8.73168 -9.73699 L-7.46621 -8.14687 L-9.08193 -7.84532 L-10.6976 -7.54377 L-12.3134 -7.24222 L-13.9291 -6.94068 L-15.5448 -6.63913 L-15.1946 -8.5308 L-14.8443 -10.4225 L-14.4941 -12.3141 L-14.1438 -14.2058 L-13.7936 -16.0975 Z " />
<path stroke="rgb(200,255,200)" stroke-opacity="1" fill="rgb(200,255,200)" fill-opacity="1" id="tri_1_6_" d="M-9.74925 -13.0837 L-11.1041 -14.7193 L-12.459 -16.3549 L-13.8138 -17.9906 L-15.1687 -19.6262 L-16.5235 -21.2618 L-14.8958 -21.6179 L-13.268 -21.974 L-11.6403 -22.3301 L-10.0125 -22.6862 L-8.38479 -23.0423 L-8.65769 -21.0506 L-8.93058 -19.0588 L-9.20347 -17.0671 L-9.47635 -15.0754 L-9.74925 -13.0837 Z " />
<path stroke="rgb(200,255,200)" stroke-opacity="1" fill="rgb(200,255,200)" fill-opacity="1" id="tri_3_7_" d="M-6.07547 -2.949 L-4.88748 -1.40102 L-3.6995 0.146953 L-2.51151 1.69493 L-1.32352 3.2429 L-0.135532 4.79088 L-1.73824 5.04595 L-3.34095 5.30103 L-4.94365 5.5561 L-6.54636 5.81118 L-8.14907 6.06625 L-7.73435 4.26321 L-7.31963 2.46016 L-6.90491 0.657105 L-6.49019 -1.14595 L-6.07547 -2.949 Z " />
<path stroke="rgb(200,255,200)" stroke-opacity="1" fill="rgb(200,255,200)" fill-opacity="1" id="tri_2_6_" d="M-2.51202 -0.370338 L-3.77769 -1.96034 L-5.04337 -3.55035 L-6.30904 -5.14036 L-7.57471 -6.73037 L-8.84038 -8.32037 L-7.22466 -8.62192 L-5.60895 -8.92347 L-3.99323 -9.22502 L-2.37751 -9.52657 L-0.761795 -9.82812 L-1.11184 -7.93656 L-1.46189 -6.045 L-1.81193 -4.15345 L-2.16198 -2.26189 L-2.51202 -0.370338 Z " />
<path stroke="rgb(200,255,200)" stroke-opacity="1" fill="rgb(200,255,200)" fill-opacity="1" id="tri_4_7_" d="M1.61435 10.1726 L2.73322 11.6832 L3.85209 13.1938 L4.97096 14.7043 L6.08983 16.2149 L7.20869 17.7255 L5.61928 17.9397 L4.02986 18.154 L2.44044 18.3682 L0.85102 18.5824 L-0.738398 18.7967 L-0.267848 17.0718 L0.202702 15.347 L0.673251 13.6222 L1.1438 11.8974 L1.61435 10.1726 Z " />
<path stroke="rgb(200,255,200)" stroke-opacity="1" fill="rgb(200,255,200)" fill-opacity="1" id="tri_3_6_" d="M4.76148 12.3655 L3.57345 10.8177 L2.38542 9.26989 L1.19739 7.7221 L0.00936074 6.17431 L-1.17867 4.62651 L0.42404 4.37144 L2.02675 4.11636 L3.62945 3.86129 L5.23216 3.60621 L6.83487 3.35113 L6.42019 5.154 L6.00551 6.95687 L5.59084 8.75974 L5.17616 10.5626 L4.76148 12.3655 Z " />
<path stroke="rgb(200,255,200)" stroke-opacity="1" fill="rgb(200,255,200)" fill-opacity="1" id="tri_5_7_" d="M9.27803 23.2794 L10.3364 24.7562 L11.3949 26.2331 L12.4533 27.7099 L13.5117 29.1867 L14.5701 30.6635 L12.9932 30.8417 L11.4163 31.0199 L9.83937 31.198 L8.26245 31.3762 L6.68554 31.5544 L7.20404 29.8994 L7.72253 28.2444 L8.24103 26.5894 L8.75953 24.9344 L9.27803 23.2794 Z " />
<path stroke="rgb(200,255,200)" stroke-opacity="1" fill="rgb(200,255,200)" fill-opacity="1" id="tri_4_6_" d="M12.0601 25.1299 L10.9416 23.6193 L9.82308 22.1087 L8.70458 20.5981 L7.58607 19.0875 L6.46756 17.5769 L8.05698 17.3627 L9.6464 17.1484 L11.2358 16.9342 L12.8252 16.72 L14.4147 16.5057 L13.9437 18.2306 L13.4728 19.9554 L13.0019 21.6802 L12.531 23.4051 L12.0601 25.1299 Z " />
<path stroke="rgb(200,255,200)" stroke-opacity="1" fill="rgb(200,255,200)" fill-opacity="1" id="tri_6_6_" d="M16.9159 36.359 L17.9229 37.8056 L18.9299 39.2521 L19.9369 40.6986 L20.9439 42.1452 L21.9509 43.5917 L20.3869 43.7408 L18.8229 43.8898 L17.2589 44.0389 L15.6949 44.1879 L14.1309 44.3369 L14.6879 42.7414 L15.2449 41.1458 L15.8019 39.5502 L16.3589 37.9546 L16.9159 36.359 Z " />
<path stroke="rgb(200,255,200)" stroke-opacity="1" fill="rgb(200,255,200)" fill-opacity="1" id="tri_5_6_" d="M19.3864 37.9128 L18.3273 36.4358 L17.2682 34.9589 L16.2091 33.4819 L15.15 32.005 L14.091 30.528 L15.6679 30.3498 L17.2448 30.1717 L18.8217 29.9935 L20.3986 29.8153 L21.9755 29.6372 L21.4577 31.2923 L20.9399 32.9474 L20.422 34.6025 L19.9042 36.2576 L19.3864 37.9128 Z " />
<path stroke="rgb(200,255,200)" stroke-opacity="1" fill="rgb(200,255,200)" fill-opacity="1" id="tri_0_6_" d="M-44.3028 -42.4452 L-42.8457 -40.7601 L-41.3886 -39.075 L-39.9315 -37.3899 L-38.4744 -35.7047 L-37.0174 -34.0196 L-38.6568 -33.5988 L-40.2962 -33.178 L-41.9356 -32.7572 L-43.575 -32.3364 L-45.2144 -31.9156 L-45.0321 -34.0215 L-44.8498 -36.1274 L-44.6674 -38.2334 L-44.4851 -40.3393 L-44.3028 -42.4452 Z " />
<path stroke="rgb(200,255,200)" stroke-opacity="1" fill="rgb(200,255,200)" fill-opacity="1" id="tri_1_5_" d="M-36.508 -29.2401 L-35.1527 -27.6051 L-33.7974 -25.9702 L-32.4421 -24.3352 L-31.0867 -22.7002 L-29.7314 -21.0652 L-31.3597 -20.7091 L-32.988 -20.3531 L-34.6163 -19.997 L-36.2446 -19.6409 L-37.8729 -19.2848 L-37.5999 -21.2759 L-37.3269 -23.267 L-37.0539 -25.258 L-36.781 -27.2491 L-36.508 -29.2401 Z " />
<path stroke="rgb(200,255,200)" stroke-opacity="1" fill="rgb(200,255,200)" fill-opacity="1" id="tri_0_5_" d="M-31.8977 -25.7529 L-33.355 -27.4379 L-34.8123 -29.1229 L-36.2696 -30.8079 L-37.7269 -32.4929 L-39.1842 -34.1779 L-37.5448 -34.5987 L-35.9054 -35.0195 L-34.266 -35.4403 L-32.6266 -35.8611 L-30.9872 -36.2819 L-31.1693 -34.1761 L-31.3514 -32.0703 L-31.5335 -29.9645 L-31.7156 -27.8587 L-31.8977 -25.7529 Z " />
<path stroke="rgb(200,255,200)" stroke-opacity="1" fill="rgb(200,255,200)" fill-opacity="1" id="tri_2_5_" d="M-28.7526 -16.0785 L-27.4869 -14.4887 L-26.2212 -12.8989 L-24.9555 -11.3091 L-23.6898 -9.71924 L-22.4241 -8.12942 L-24.0394 -7.82727 L-25.6546 -7.52512 L-27.2699 -7.22297 L-28.8852 -6.92082 L-30.5005 -6.61867 L-30.1509 -8.51064 L-29.8013 -10.4026 L-29.4518 -12.2946 L-29.1022 -14.1865 L-28.7526 -16.0785 Z " />
<path stroke="rgb(200,255,200)" stroke-opacity="1" fill="rgb(200,255,200)" fill-opacity="1" id="tri_1_4_" d="M-24.7071 -13.0647 L-26.0622 -14.7 L-27.4173 -16.3353 L-28.7724 -17.9707 L-30.1274 -19.606 L-31.4825 -21.2413 L-29.8542 -21.5973 L-28.2259 -21.9534 L-26.5977 -22.3095 L-24.9694 -22.6656 L-23.3411 -23.0216 L-23.6143 -21.0302 L-23.8875 -19.0389 L-24.1607 -17.0475 L-24.4339 -15.0561 L-24.7071 -13.0647 Z " />
<path stroke="rgb(200,255,200)" stroke-opacity="1" fill="rgb(200,255,200)" fill-opacity="1" id="tri_3_5_" d="M-21.0291 -2.92471 L-19.8417 -1.37721 L-18.6543 0.170281 L-17.4669 1.71777 L-16.2795 3.26527 L-15.0922 4.81276 L-16.695 5.06838 L-18.2978 5.324 L-19.9007 5.57961 L-21.5035 5.83523 L-23.1063 6.09085 L-22.6909 4.28774 L-22.2754 2.48463 L-21.86 0.681515 L-21.4445 -1.1216 L-21.0291 -2.92471 Z " />
<path stroke="rgb(200,255,200)" stroke-opacity="1" fill="rgb(200,255,200)" fill-opacity="1" id="tri_2_4_" d="M-17.4712 -0.352452 L-18.7363 -1.94197 L-20.0013 -3.53149 L-21.2664 -5.12101 L-22.5314 -6.71053 L-23.7964 -8.30005 L-22.1811 -8.6022 L-20.5659 -8.90435 L-18.9506 -9.2065 L-17.3353 -9.50865 L-15.72 -9.8108 L-16.0702 -7.91913 L-16.4205 -6.02746 L-16.7707 -4.13579 L-17.121 -2.24412 L-17.4712 -0.352452 Z " />
<path stroke="rgb(200,255,200)" stroke-opacity="1" fill="rgb(200,255,200)" fill-opacity="1" id="tri_4_5_" d="M-13.3449 10.1962 L-12.2259 11.7064 L-11.107 13.2167 L-9.988 14.7269 L-8.86904 16.2371 L-7.75008 17.7474 L-9.33961 17.9613 L-10.9291 18.1753 L-12.5187 18.3893 L-14.1082 18.6033 L-15.6977 18.8173 L-15.2272 17.0931 L-14.7566 15.3688 L-14.286 13.6446 L-13.8155 11.9204 L-13.3449 10.1962 Z " />
<path stroke="rgb(200,255,200)" stroke-opacity="1" fill="rgb(200,255,200)" fill-opacity="1" id="tri_3_4_" d="M-10.1961 12.39 L-11.3842 10.8425 L-12.5723 9.29509 L-13.7604 7.74766 L-14.9485 6.20022 L-16.1367 4.65279 L-14.5338 4.39717 L-12.931 4.14156 L-11.3282 3.88594 L-9.72532 3.63032 L-8.12249 3.3747 L-8.53721 5.17775 L-8.95193 6.9808 L-9.36665 8.78385 L-9.78137 10.5869 L-10.1961 12.39 Z " />
<path stroke="rgb(200,255,200)" stroke-opacity="1" fill="rgb(200,255,200)" fill-opacity="1" id="tri_5_5_" d="M-5.68159 23.2979 L-4.62272 24.775 L-3.56384 26.252 L-2.50497 27.7291 L-1.44609 29.2061 L-0.387214 30.6831 L-1.96423 30.8617 L-3.54125 31.0402 L-5.11827 31.2187 L-6.69529 31.3972 L-8.27231 31.5757 L-7.75417 29.9201 L-7.23603 28.2646 L-6.71788 26.609 L-6.19974 24.9535 L-5.68159 23.2979 Z " />
<path stroke="rgb(200,255,200)" stroke-opacity="1" fill="rgb(200,255,200)" fill-opacity="1" id="tri_4_4_" d="M-2.89759 25.1503 L-4.01657 23.6395 L-5.13555 22.1287 L-6.25452 20.6178 L-7.3735 19.107 L-8.49248 17.5962 L-6.90295 17.3822 L-5.31342 17.1682 L-3.7239 16.9542 L-2.13437 16.7402 L-0.54484 16.5263 L-1.01539 18.2511 L-1.48594 19.9759 L-1.95649 21.7007 L-2.42704 23.4255 L-2.89759 25.1503 Z " />
<path stroke="rgb(200,255,200)" stroke-opacity="1" fill="rgb(200,255,200)" fill-opacity="1" id="tri_6_5_" d="M1.95921 36.3831 L2.96568 37.8292 L3.97214 39.2753 L4.97861 40.7214 L5.98508 42.1674 L6.99154 43.6135 L5.42779 43.7629 L3.86403 43.9122 L2.30027 44.0616 L0.736517 44.2109 L-0.82724 44.3603 L-0.26995 42.7649 L0.287341 41.1694 L0.844631 39.574 L1.40192 37.9785 L1.95921 36.3831 Z " />
<path stroke="rgb(200,255,200)" stroke-opacity="1" fill="rgb(200,255,200)" fill-opacity="1" id="tri_5_4_" d="M4.4259 37.9323 L3.36738 36.4559 L2.30885 34.9794 L1.25033 33.5029 L0.191809 32.0264 L-0.866714 30.5499 L0.710306 30.3714 L2.28733 30.1929 L3.86435 30.0144 L5.44137 29.8359 L7.01839 29.6574 L6.49989 31.3124 L5.98139 32.9674 L5.46289 34.6224 L4.94439 36.2774 L4.4259 37.9323 Z " />
<path stroke="rgb(200,255,200)" stroke-opacity="1" fill="rgb(200,255,200)" fill-opacity="1" id="tri_7_4_" d="M9.5766 49.4519 L10.5376 50.8714 L11.4987 52.291 L12.4597 53.7105 L13.4208 55.13 L14.3818 56.5495 L12.8295 56.6714 L11.2771 56.7933 L9.72482 56.9153 L8.1725 57.0372 L6.62017 57.1591 L7.21146 55.6177 L7.80274 54.0762 L8.39403 52.5348 L8.98531 50.9934 L9.5766 49.4519 Z " />
<path stroke="rgb(200,255,200)" stroke-opacity="1" fill="rgb(200,255,200)" fill-opacity="1" id="tri_6_4_" d="M11.7852 50.7327 L10.7785 49.2865 L9.77169 47.8403 L8.76493 46.394 L7.75816 44.9478 L6.7514 43.5016 L8.31515 43.3522 L9.87891 43.2029 L11.4427 43.0535 L13.0064 42.9041 L14.5702 42.7548 L14.0132 44.3504 L13.4562 45.946 L12.8992 47.5416 L12.3422 49.1371 L11.7852 50.7327 Z " />
<path stroke="rgb(200,255,200)" stroke-opacity="1" fill="rgb(200,255,200)" fill-opacity="1" id="tri_0_4_" d="M-59.2623 -42.4263 L-57.8052 -40.7407 L-56.3482 -39.0552 L-54.8911 -37.3696 L-53.434 -35.6841 L-51.977 -33.9985 L-53.616 -33.5782 L-55.255 -33.1579 L-56.894 -32.7376 L-58.5329 -32.3172 L-60.1719 -31.8969 L-59.99 -34.0028 L-59.8081 -36.1087 L-59.6261 -38.2145 L-59.4442 -40.3204 L-59.2623 -42.4263 Z " />
<path stroke="rgb(200,255,200)" stroke-opacity="1" fill="rgb(200,255,200)" fill-opacity="1" id="tri_1_3_" d="M-51.4643 -29.2203 L-50.1096 -27.5847 L-48.7549 -25.9491 L-47.4002 -24.3136 L-46.0456 -22.678 L-44.6909 -21.0425 L-46.3186 -20.6866 L-47.9463 -20.3307 L-49.574 -19.9748 L-51.2017 -19.6189 L-52.8294 -19.263 L-52.5564 -21.2545 L-52.2834 -23.2459 L-52.0103 -25.2374 L-51.7373 -27.2288 L-51.4643 -29.2203 Z " />
<path stroke="rgb(200,255,200)" stroke-opacity="1" fill="rgb(200,255,200)" fill-opacity="1" id="tri_0_3_" d="M-46.8576 -25.7305 L-48.3143 -27.4161 L-49.7709 -29.1017 L-51.2276 -30.7873 L-52.6843 -32.4729 L-54.141 -34.1585 L-52.502 -34.5788 L-50.863 -34.9992 L-49.224 -35.4195 L-47.585 -35.8398 L-45.946 -36.2601 L-46.1283 -34.1542 L-46.3106 -32.0483 L-46.4929 -29.9423 L-46.6753 -27.8364 L-46.8576 -25.7305 Z " />
<path stroke="rgb(200,255,200)" stroke-opacity="1" fill="rgb(200,255,200)" fill-opacity="1" id="tri_2_3_" d="M-43.7101 -16.057 L-42.4447 -14.4673 L-41.1793 -12.8776 L-39.9139 -11.288 L-38.6486 -9.6983 L-37.3832 -8.10863 L-38.9988 -7.80663 L-40.6144 -7.50462 L-42.2301 -7.20262 L-43.8457 -6.90062 L-45.4613 -6.59862 L-45.1111 -8.49029 L-44.7608 -10.382 L-44.4106 -12.2736 L-44.0603 -14.1653 L-43.7101 -16.057 Z " />
<path stroke="rgb(200,255,200)" stroke-opacity="1" fill="rgb(200,255,200)" fill-opacity="1" id="tri_1_2_" d="M-39.6651 -13.0425 L-41.0198 -14.6777 L-42.3745 -16.3129 L-43.7293 -17.948 L-45.084 -19.5832 L-46.4387 -21.2184 L-44.811 -21.5742 L-43.1833 -21.9301 L-41.5556 -22.286 L-39.9279 -22.6419 L-38.3002 -22.9978 L-38.5731 -21.0068 L-38.8461 -19.0157 L-39.1191 -17.0246 L-39.3921 -15.0336 L-39.6651 -13.0425 Z " />
<path stroke="rgb(200,255,200)" stroke-opacity="1" fill="rgb(200,255,200)" fill-opacity="1" id="tri_3_3_" d="M-35.9889 -2.90192 L-34.8005 -1.35398 L-33.6122 0.193968 L-32.4238 1.74191 L-31.2355 3.28985 L-30.0471 4.8378 L-31.6505 5.09275 L-33.2539 5.34771 L-34.8573 5.60267 L-36.4607 5.85762 L-38.0641 6.11258 L-37.6491 4.30968 L-37.234 2.50678 L-36.819 0.703881 L-36.4039 -1.09902 L-35.9889 -2.90192 Z " />
<path stroke="rgb(200,255,200)" stroke-opacity="1" fill="rgb(200,255,200)" fill-opacity="1" id="tri_2_2_" d="M-32.4267 -0.331 L-33.6927 -1.92097 L-34.9588 -3.51093 L-36.2248 -5.1009 L-37.4908 -6.69087 L-38.7569 -8.28083 L-37.1413 -8.58284 L-35.5256 -8.88484 L-33.91 -9.18684 L-32.2944 -9.48884 L-30.6788 -9.79084 L-31.0284 -7.89888 L-31.3779 -6.00691 L-31.7275 -4.11494 L-32.0771 -2.22297 L-32.4267 -0.331 Z " />
<path stroke="rgb(200,255,200)" stroke-opacity="1" fill="rgb(200,255,200)" fill-opacity="1" id="tri_4_3_" d="M-28.3028 10.2148 L-27.184 11.7257 L-26.0652 13.2367 L-24.9465 14.7476 L-23.8277 16.2585 L-22.7089 17.7694 L-24.2979 17.9835 L-25.8869 18.1975 L-27.476 18.4115 L-29.065 18.6256 L-30.654 18.8396 L-30.1837 17.1147 L-29.7135 15.3897 L-29.2433 13.6647 L-28.773 11.9398 L-28.3028 10.2148 Z " />
<path stroke="rgb(200,255,200)" stroke-opacity="1" fill="rgb(200,255,200)" fill-opacity="1" id="tri_3_2_" d="M-25.1536 12.4148 L-26.3416 10.8666 L-27.5295 9.31844 L-28.7175 7.77029 L-29.9054 6.22213 L-31.0934 4.67398 L-29.49 4.41902 L-27.8866 4.16407 L-26.2832 3.90911 L-24.6798 3.65415 L-23.0764 3.3992 L-23.4918 5.20231 L-23.9073 7.00542 L-24.3227 8.80853 L-24.7382 10.6116 L-25.1536 12.4148 Z " />
<path stroke="rgb(200,255,200)" stroke-opacity="1" fill="rgb(200,255,200)" fill-opacity="1" id="tri_5_3_" d="M-20.6386 23.3189 L-19.5802 24.7953 L-18.5218 26.2717 L-17.4635 27.7481 L-16.4051 29.2245 L-15.3467 30.7009 L-16.9232 30.8795 L-18.4997 31.0581 L-20.0763 31.2366 L-21.6528 31.4152 L-23.2293 31.5938 L-22.7111 29.9388 L-22.193 28.2838 L-21.6749 26.6288 L-21.1567 24.9739 L-20.6386 23.3189 Z " />
<path stroke="rgb(200,255,200)" stroke-opacity="1" fill="rgb(200,255,200)" fill-opacity="1" id="tri_4_2_" d="M-17.8563 25.17 L-18.9748 23.6598 L-20.0932 22.1496 L-21.2117 20.6395 L-22.3301 19.1293 L-23.4486 17.6191 L-21.8596 17.4051 L-20.2705 17.191 L-18.6815 16.977 L-17.0925 16.763 L-15.5035 16.5489 L-15.9741 18.2731 L-16.4446 19.9974 L-16.9152 21.7216 L-17.3858 23.4458 L-17.8563 25.17 Z " />
<path stroke="rgb(200,255,200)" stroke-opacity="1" fill="rgb(200,255,200)" fill-opacity="1" id="tri_6_3_" d="M-12.9975 36.4022 L-11.9912 37.8487 L-10.9849 39.2953 L-9.97865 40.7419 L-8.97235 42.1884 L-7.96605 43.635 L-9.52979 43.7838 L-11.0935 43.9326 L-12.6573 44.0814 L-14.221 44.2302 L-15.7847 44.379 L-15.2273 42.7836 L-14.6699 41.1883 L-14.1124 39.5929 L-13.555 37.9975 L-12.9975 36.4022 Z " />
<path stroke="rgb(200,255,200)" stroke-opacity="1" fill="rgb(200,255,200)" fill-opacity="1" id="tri_5_2_" d="M-10.532 37.9533 L-11.5904 36.4764 L-12.6488 34.9994 L-13.7071 33.5224 L-14.7655 32.0454 L-15.8239 30.5684 L-14.2474 30.3899 L-12.6709 30.2113 L-11.0943 30.0327 L-9.51784 29.8542 L-7.94133 29.6756 L-8.45947 31.3312 L-8.97761 32.9867 L-9.49576 34.6423 L-10.0139 36.2978 L-10.532 37.9533 Z " />
<path stroke="rgb(200,255,200)" stroke-opacity="1" fill="rgb(200,255,200)" fill-opacity="1" id="tri_7_3_" d="M-5.38115 49.4703 L-4.42044 50.8902 L-3.45973 52.3101 L-2.49901 53.73 L-1.5383 55.1499 L-0.577589 56.5698 L-2.12956 56.6918 L-3.68153 56.8137 L-5.23351 56.9356 L-6.78548 57.0575 L-8.33745 57.1794 L-7.7462 55.6376 L-7.15493 54.0958 L-6.56367 52.554 L-5.97241 51.0122 L-5.38115 49.4703 Z " />
<path stroke="rgb(200,255,200)" stroke-opacity="1" fill="rgb(200,255,200)" fill-opacity="1" id="tri_6_2_" d="M-3.17312 50.7548 L-4.17956 49.3082 L-5.18601 47.8616 L-6.19246 46.4149 L-7.1989 44.9683 L-8.20535 43.5216 L-6.64161 43.3729 L-5.07788 43.2241 L-3.51414 43.0753 L-1.9504 42.9265 L-0.386668 42.7777 L-0.943958 44.3731 L-1.50125 45.9685 L-2.05854 47.564 L-2.61583 49.1594 L-3.17312 50.7548 Z " />
<path stroke="rgb(200,255,200)" stroke-opacity="1" fill="rgb(200,255,200)" fill-opacity="1" id="tri_8_2_" d="M2.23236 62.5139 L3.15434 63.9093 L4.07632 65.3048 L4.9983 66.7002 L5.92028 68.0957 L6.84226 69.4912 L5.3007 69.5923 L3.75915 69.6934 L2.21759 69.7945 L0.676037 69.8956 L-0.865519 69.9968 L-0.245945 68.5002 L0.37363 67.0036 L0.993206 65.507 L1.61278 64.0104 L2.23236 62.5139 Z " />
<path stroke="rgb(200,255,200)" stroke-opacity="1" fill="rgb(200,255,200)" fill-opacity="1" id="tri_7_2_" d="M4.19253 63.5698 L3.23185 62.1502 L2.27116 60.7307 L1.31047 59.3112 L0.349783 57.8917 L-0.610905 56.4722 L0.941068 56.3503 L2.49304 56.2283 L4.04501 56.1064 L5.59699 55.9845 L7.14896 55.8626 L6.55768 57.404 L5.96639 58.9454 L5.3751 60.4869 L4.78382 62.0283 L4.19253 63.5698 Z " />
<path stroke="rgb(200,255,200)" stroke-opacity="1" fill="rgb(200,255,200)" fill-opacity="1" id="tri_0_2_" d="M-74.2192 -42.4043 L-72.7624 -40.7194 L-71.3057 -39.0344 L-69.849 -37.3494 L-68.3922 -35.6644 L-66.9355 -33.9794 L-68.5745 -33.5587 L-70.2135 -33.138 L-71.8526 -32.7172 L-73.4916 -32.2965 L-75.1306 -31.8757 L-74.9483 -33.9815 L-74.766 -36.0872 L-74.5837 -38.1929 L-74.4015 -40.2986 L-74.2192 -42.4043 Z " />
<path stroke="rgb(200,255,200)" stroke-opacity="1" fill="rgb(200,255,200)" fill-opacity="1" id="tri_1_1_" d="M-66.4219 -29.1981 L-65.0668 -27.563 L-63.7117 -25.9279 L-62.3566 -24.2928 L-61.0015 -22.6577 L-59.6464 -21.0226 L-61.2742 -20.6657 L-62.9021 -20.3088 L-64.5299 -19.9519 L-66.1578 -19.595 L-67.7856 -19.2381 L-67.5129 -21.2301 L-67.2401 -23.2221 L-66.9674 -25.2141 L-66.6947 -27.2061 L-66.4219 -29.1981 Z " />
<path stroke="rgb(200,255,200)" stroke-opacity="1" fill="rgb(200,255,200)" fill-opacity="1" id="tri_0_1_" d="M-61.8151 -25.712 L-63.2722 -27.3971 L-64.7293 -29.0822 L-66.1864 -30.7674 L-67.6435 -32.4525 L-69.1006 -34.1376 L-67.4616 -34.5584 L-65.8226 -34.9791 L-64.1835 -35.3998 L-62.5445 -35.8206 L-60.9055 -36.2413 L-61.0874 -34.1355 L-61.2693 -32.0296 L-61.4513 -29.9237 L-61.6332 -27.8178 L-61.8151 -25.712 Z " />
<path stroke="rgb(200,255,200)" stroke-opacity="1" fill="rgb(200,255,200)" fill-opacity="1" id="tri_2_1_" d="M-58.666 -16.033 L-57.4005 -14.4439 L-56.135 -12.8548 L-54.8696 -11.2657 L-53.6041 -9.67662 L-52.3386 -8.08752 L-53.9548 -7.78536 L-55.571 -7.48321 L-57.1872 -7.18105 L-58.8034 -6.87889 L-60.4196 -6.57674 L-60.0689 -8.46799 L-59.7181 -10.3592 L-59.3674 -12.2505 L-59.0167 -14.1418 L-58.666 -16.033 Z " />
<path stroke="rgb(200,255,200)" stroke-opacity="1" fill="rgb(200,255,200)" fill-opacity="1" id="tri_1" d="M-54.6208 -13.0216 L-55.9757 -14.6562 L-57.3305 -16.2907 L-58.6853 -17.9253 L-60.0401 -19.5599 L-61.3949 -21.1944 L-59.7671 -21.5513 L-58.1392 -21.9082 L-56.5114 -22.2651 L-54.8835 -22.622 L-53.2557 -22.9789 L-53.5287 -20.9874 L-53.8017 -18.996 L-54.0748 -17.0045 L-54.3478 -15.0131 L-54.6208 -13.0216 Z " />
<path stroke="rgb(200,255,200)" stroke-opacity="1" fill="rgb(200,255,200)" fill-opacity="1" id="tri_3_1_" d="M-50.9472 -2.8753 L-49.7589 -1.32779 L-48.5706 0.219718 L-47.3823 1.76723 L-46.1941 3.31473 L-45.0058 4.86224 L-46.6086 5.11768 L-48.2114 5.37311 L-49.8142 5.62855 L-51.417 5.88399 L-53.0197 6.13942 L-52.6052 4.33648 L-52.1907 2.53353 L-51.7762 0.73059 L-51.3617 -1.07235 L-50.9472 -2.8753 Z " />
<path stroke="rgb(200,255,200)" stroke-opacity="1" fill="rgb(200,255,200)" fill-opacity="1" id="tri_2" d="M-47.3872 -0.310101 L-48.6531 -1.89961 L-49.919 -3.48913 L-51.185 -5.07864 L-52.4509 -6.66816 L-53.7169 -8.25767 L-52.1007 -8.55983 L-50.4845 -8.86198 L-48.8683 -9.16414 L-47.2521 -9.4663 L-45.6359 -9.76846 L-45.9862 -7.87679 L-46.3364 -5.98511 L-46.6867 -4.09344 L-47.0369 -2.20177 L-47.3872 -0.310101 Z " />
<path stroke="rgb(200,255,200)" stroke-opacity="1" fill="rgb(200,255,200)" fill-opacity="1" id="tri_4_1_" d="M-43.2607 10.2366 L-42.1421 11.7469 L-41.0235 13.2572 L-39.9049 14.7674 L-38.7863 16.2777 L-37.6677 17.7879 L-39.2567 18.0021 L-40.8458 18.2164 L-42.4348 18.4306 L-44.0239 18.6448 L-45.6129 18.859 L-45.1425 17.1345 L-44.672 15.4101 L-44.2016 13.6856 L-43.7311 11.9611 L-43.2607 10.2366 Z " />
<path stroke="rgb(200,255,200)" stroke-opacity="1" fill="rgb(200,255,200)" fill-opacity="1" id="tri_3" d="M-40.1115 12.4371 L-41.2992 10.8897 L-42.487 9.3422 L-43.6747 7.79473 L-44.8625 6.24727 L-46.0502 4.6998 L-44.4475 4.44437 L-42.8447 4.18893 L-41.2419 3.9335 L-39.6391 3.67806 L-38.0363 3.42262 L-38.4513 5.22552 L-38.8664 7.02842 L-39.2814 8.83132 L-39.6965 10.6342 L-40.1115 12.4371 Z " />
<path stroke="rgb(200,255,200)" stroke-opacity="1" fill="rgb(200,255,200)" fill-opacity="1" id="tri_5_1_" d="M-35.5966 23.3377 L-34.5379 24.8146 L-33.4792 26.2916 L-32.4204 27.7686 L-31.3617 29.2455 L-30.303 30.7225 L-31.8798 30.9009 L-33.4566 31.0793 L-35.0334 31.2577 L-36.6102 31.4362 L-38.1871 31.6146 L-37.669 29.9592 L-37.1509 28.3038 L-36.6328 26.6484 L-36.1147 24.993 L-35.5966 23.3377 Z " />
<path stroke="rgb(200,255,200)" stroke-opacity="1" fill="rgb(200,255,200)" fill-opacity="1" id="tri_4" d="M-32.8132 25.1918 L-33.9321 23.6811 L-35.0509 22.1703 L-36.1697 20.6596 L-37.2885 19.1488 L-38.4073 17.638 L-36.8183 17.4238 L-35.2292 17.2096 L-33.6402 16.9954 L-32.0511 16.7812 L-30.462 16.567 L-30.9323 18.292 L-31.4025 20.0169 L-31.8728 21.7419 L-32.343 23.4668 L-32.8132 25.1918 Z " />
<path stroke="rgb(200,255,200)" stroke-opacity="1" fill="rgb(200,255,200)" fill-opacity="1" id="tri_6_1_" d="M-27.9546 36.4244 L-26.948 37.8706 L-25.9414 39.3167 L-24.9348 40.7629 L-23.9281 42.209 L-22.9215 43.6552 L-24.4856 43.8046 L-26.0497 43.9539 L-27.6139 44.1033 L-29.178 44.2526 L-30.7421 44.402 L-30.1846 42.8065 L-29.6271 41.211 L-29.0696 39.6154 L-28.5121 38.0199 L-27.9546 36.4244 Z " />
<path stroke="rgb(200,255,200)" stroke-opacity="1" fill="rgb(200,255,200)" fill-opacity="1" id="tri_5" d="M-25.4883 37.971 L-26.5469 36.4945 L-27.6056 35.0179 L-28.6643 33.5413 L-29.723 32.0648 L-30.7816 30.5882 L-29.2048 30.4098 L-27.628 30.2314 L-26.0512 30.053 L-24.4744 29.8746 L-22.8976 29.6961 L-23.4157 31.3511 L-23.9338 33.0061 L-24.452 34.6611 L-24.9701 36.316 L-25.4883 37.971 Z " />
<path stroke="rgb(200,255,200)" stroke-opacity="1" fill="rgb(200,255,200)" fill-opacity="1" id="tri_7_1_" d="M-20.3395 49.493 L-19.3786 50.9123 L-18.4176 52.3316 L-17.4567 53.7509 L-16.4957 55.1701 L-15.5348 56.5894 L-17.0872 56.7116 L-18.6397 56.8339 L-20.1921 56.9561 L-21.7446 57.0784 L-23.297 57.2006 L-22.7055 55.6591 L-22.114 54.1176 L-21.5225 52.576 L-20.931 51.0345 L-20.3395 49.493 Z " />
<path stroke="rgb(200,255,200)" stroke-opacity="1" fill="rgb(200,255,200)" fill-opacity="1" id="tri_6" d="M-18.1305 50.7741 L-19.1372 49.3281 L-20.1438 47.8821 L-21.1505 46.4361 L-22.1572 44.9901 L-23.1639 43.5441 L-21.5997 43.3948 L-20.0356 43.2454 L-18.4715 43.096 L-16.9074 42.9467 L-15.3433 42.7973 L-15.9007 44.3927 L-16.4582 45.988 L-17.0156 47.5834 L-17.5731 49.1787 L-18.1305 50.7741 Z " />
<path stroke="rgb(200,255,200)" stroke-opacity="1" fill="rgb(200,255,200)" fill-opacity="1" id="tri_8_1_" d="M-12.7255 62.5383 L-11.803 63.9339 L-10.8805 65.3294 L-9.95806 66.7249 L-9.03559 68.1205 L-8.11312 69.516 L-9.65489 69.6172 L-11.1966 69.7184 L-12.7384 69.8196 L-14.2802 69.9208 L-15.8219 70.022 L-15.2026 68.5253 L-14.5833 67.0285 L-13.9641 65.5318 L-13.3448 64.0351 L-12.7255 62.5383 Z " />
<path stroke="rgb(200,255,200)" stroke-opacity="1" fill="rgb(200,255,200)" fill-opacity="1" id="tri_7" d="M-10.7651 63.5904 L-11.7263 62.1708 L-12.6875 60.7513 L-13.6487 59.3317 L-14.6098 57.9121 L-15.571 56.4925 L-14.0186 56.3703 L-12.4661 56.248 L-10.9137 56.1258 L-9.36125 56.0036 L-7.8088 55.8813 L-8.40006 57.4231 L-8.99132 58.965 L-9.58258 60.5068 L-10.1738 62.0486 L-10.7651 63.5904 Z " />
<path stroke="rgb(200,255,200)" stroke-opacity="1" fill="rgb(200,255,200)" fill-opacity="1" id="tri_9" d="M-5.1517 75.5795 L-4.26392 76.9544 L-3.37614 78.3293 L-2.48835 79.7042 L-1.60057 81.0791 L-0.712788 82.454 L-2.24406 82.5354 L-3.77533 82.6169 L-5.30661 82.6984 L-6.83788 82.7798 L-8.36916 82.8613 L-7.72567 81.4049 L-7.08217 79.9486 L-6.43868 78.4922 L-5.79519 77.0358 L-5.1517 75.5795 Z " />
<path stroke="rgb(200,255,200)" stroke-opacity="1" fill="rgb(200,255,200)" fill-opacity="1" id="tri_8" d="M-3.35828 76.4198 L-4.28047 75.0244 L-5.20266 73.629 L-6.12484 72.2336 L-7.04703 70.8382 L-7.96921 69.4428 L-6.42745 69.3417 L-4.88569 69.2405 L-3.34393 69.1393 L-1.80217 69.0381 L-0.260408 68.9369 L-0.879982 70.4334 L-1.49956 71.93 L-2.11913 73.4266 L-2.73871 74.9232 L-3.35828 76.4198 Z " />
</g>
</g>
</svg>
