<!DOCTYPE svg>
<svg xmlns="http://www.w3.org/2000/svg" xmlns:xlink="http://www.w3.org/1999/xlink" width="600" height="600">
<g transform="translate(300.000000,300.000000)">
<g transform="scale(3.000000,3.000000)">
<path stroke="rgb(0,0,0)" stroke-opacity="1" fill="rgb(255,255,255)" fill-opacity="1" id="Layer_1" d="M107.411 107.089 L105.406 107.092 L103.402 107.095 L101.397 107.098 L99.3922 107.101 L97.3875 107.104 L95.3828 107.107 L93.3782 107.11 L91.3735 107.113 L89.3688 107.116 L87.3641 107.119 L85.3595 107.122 L83.3548 107.125 L81.3501 107.128 L79.3455 107.131 L77.3408 107.134 L75.3361 107.137 L73.3314 107.14 L71.3268 107.143 L69.3221 107.146 L67.3174 107.149 L65.3127 107.152 L63.3081 107.155 L61.3034 107.158 L59.2987 107.161 L57.2941 107.164 L55.2894 107.167 L53.2847 107.17 L51.28 107.173 L49.2754 107.176 L47.2707 107.179 L45.266 107.182 L43.2613 107.185 L41.2567 107.188 L39.252 107.191 L37.2473 107.194 L35.2426 107.197 L33.238 107.2 L31.2333 107.203 L29.2286 107.206 L27.224 107.209 L25.2193 107.212 L23.2146 107.215 L21.2099 107.218 L19.2053 107.221 L17.2006 107.224 L15.1959 107.227 L13.1912 107.23 L11.1866 107.233 L9.1819 107.236 L7.17723 107.239 L5.17256 107.242 L3.16788 107.245 L1.16321 107.248 L-0.841463 107.252 L-2.84614 107.255 L-4.85081 107.258 L-6.85548 107.261 L-8.86015 107.264 L-10.8648 107.267 L-12.8695 107.27 L-14.8742 107.273 L-16.8788 107.276 L-18.8835 107.279 L-20.8882 107.282 L-22.8929 107.285 L-24.8975 107.288 L-26.9022 107.291 L-28.9069 107.294 L-30.9116 107.297 L-32.9162 107.3 L-34.9209 107.303 L-36.9256 107.306 L-38.9302 107.309 L-40.9349 107.312 L-42.9396 107.315 L-44.9443 107.318 L-46.9489 107.321 L-48.9536 107.324 L-50.9583 107.327 L-52.963 107.33 L-54.9676 107.333 L-56.9723 107.336 L-58.977 107.339 L-60.9816 107.342 L-62.9863 107.345 L-64.991 107.348 L-66.9957 107.351 L-69.0003 107.354 L-71.005 107.357 L-73.0097 107.36 L-75.0144 107.363 L-77.019 107.366 L-79.0237 107.369 L-81.0284 107.372 L-83.0331 107.375 L-85.0377 107.378 L-87.0424 107.381 L-89.0471 107.384 L-91.0517 107.387 L-93.0564 107.39 L-95.0611 107.393 L-97.0658 107.396 L-99.0704 107.399 L-101.075 107.402 L-103.08 107.405 L-105.084 107.408 L-107.089 107.411 L-107.092 105.406 L-107.095 103.402 L-107.098 101.397 L-107.101 99.3922 L-107.104 97.3875 L-107.107 95.3828 L-107.11 93.3782 L-107.113 91.3735 L-107.116 89.3688 L-107.119 87.3641 L-107.122 85.3595 L-107.125 83.3548 L-107.128 81.3501 L-107.131 79.3455 L-107.134 77.3408 L-107.137 75.3361 L-107.14 73.3314 L-107.143 71.3268 L-107.146 69.3221 L-107.149 67.3174 L-107.152 65.3127 L-107.155 63.3081 L-107.158 61.3034 L-107.161 59.2987 L-107.164 57.2941 L-107.167 55.2894 L-107.17 53.2847 L-107.173 51.28 L-107.176 49.2754 L-107.179 47.2707 L-107.182 45.266 L-107.185 43.2613 L-107.188 41.2567 L-107.191 39.252 L-107.194 37.2473 L-107.197 35.2426 L-107.2 33.238 L-107.203 31.2333 L-107.206 29.2286 L-107.209 27.224 L-107.212 25.2193 L-107.215 23.2146 L-107.218 21.2099 L-107.221 19.2053 L-107.224 17.2006 L-107.227 15.1959 L-107.23 13.1912 L-107.233 11.1866 L-107.236 9.1819 L-107.239 7.17722 L-107.242 5.17255 L-107.245 3.16788 L-107.248 1.1632 L-107.251 -0.841469 L-107.255 -2.84614 L-107.258 -4.85081 L-107.261 -6.85549 L-107.264 -8.86016 L-107.267 -10.8648 L-107.27 -12.8695 L-107.273 -14.8742 L-107.276 -16.8789 L-107.279 -18.8835 L-107.282 -20.8882 L-107.285 -22.8929 L-107.288 -24.8975 L-107.291 -26.9022 L-107.294 -28.9069 L-107.297 -30.9116 L-107.3 -32.9162 L-107.303 -34.9209 L-107.306 -36.9256 L-107.309 -38.9303 L-107.312 -40.9349 L-107.315 -42.9396 L-107.318 -44.9443 L-107.321 -46.9489 L-107.324 -48.9536 L-107.327 -50.9583 L-107.33 -52.963 L-107.333 -54.9676 L-107.336 -56.9723 L-107.339 -58.977 L-107.342 -60.9817 L-107.345 -62.9863 L-107.348 -64.991 L-107.351 -66.9957 L-107.354 -69.0003 L-107.357 -71.005 L-107.36 -73.0097 L-107.363 -75.0144 L-107.366 -77.019 L-107.369 -79.0237 L-107.372 -81.0284 L-107.375 -83.0331 L-107.378 -85.0377 L-107.381 -87.0424 L-107.384 -89.0471 L-107.387 -91.0518 L-107.39 -93.0564 L-107.393 -95.0611 L-107.396 -97.0658 L-107.399 -99.0704 L-107.402 -101.075 L-107.405 -103.08 L-107.408 -105.084 L-107.411 -107.089 L-105.406 -107.092 L-103.402 -107.095 L-101.397 -107.098 L-99.3922 -107.101 L-97.3875 -107.104 L-95.3828 -107.107 L-93.3782 -107.11 L-91.3735 -107.113 L-89.3688 -107.116 L-87.3641 -107.119 L-85.3595 -107.122 L-83.3548 -107.125 L-81.3501 -107.128 L-79.3455 -107.131 L-77.3408 -107.134 L-75.3361 -107.137 L-73.3314 -107.14 L-71.3268 -107.143 L-69.3221 -107.146 L-67.3174 -107.149 L-65.3127 -107.152 L-63.3081 -107.155 L-61.3034 -107.158 L-59.2987 -107.161 L-57.2941 -107.164 L-55.2894 -107.167 L-53.2847 -107.17 L-51.28 -107.173 L-49.2754 -107.176 L-47.2707 -107.179 L-45.266 -107.182 L-43.2613 -107.185 L-41.2567 -107.188 L-39.252 -107.191 L-37.2473 -107.194 L-35.2426 -107.197 L-33.238 -107.2 L-31.2333 -107.203 L-29.2286 -107.206 L-27.224 -107.209 L-25.2193 -107.212 L-23.2146 -107.215 L-21.2099 -107.218 L-19.2053 -107.221 L-17.2006 -107.224 L-15.1959 -107.227 L-13.1912 -107.23 L-11.1866 -107.233 L-9.1819 -107.236 L-7.17723 -107.239 L-5.17256 -107.242 L-3.16788 -107.245 L-1.16321 -107.248 L0.841463 -107.252 L2.84614 -107.255 L4.85081 -107.258 L6.85548 -107.261 L8.86015 -107.264 L10.8648 -107.267 L12.8695 -107.27 L14.8742 -107.273 L16.8788 -107.276 L18.8835 -107.279 L20.8882 -107.282 L22.8929 -107.285 L24.8975 -107.288 L26.9022 -107.291 L28.9069 -107.294 L30.9116 -107.297 L32.9162 -107.3 L34.9209 -107.303 L36.9256 -107.306 L38.9302 -107.309 L40.9349 -107.312 L42.9396 -107.315 L44.9443 -107.318 L46.9489 -107.321 L48.9536 -107.324 L50.9583 -107.327 L52.963 -107.33 L54.9676 -107.333 L56.9723 -107.336 L58.977 -107.339 L60.9816 -107.342 L62.9863 -107.345 L64.991 -107.348 L66.9957 -107.351 L69.0003 -107.354 L71.005 -107.357 L73.0097 -107.36 L75.0144 -107.363 L77.019 -107.366 L79.0237 -107.369 L81.0284 -107.372 L83.0331 -107.375 L85.0377 -107.378 L87.0424 -107.381 L89.0471 -107.384 L91.0517 -107.387 L93.0564 -107.39 L95.0611 -107.393 L97.0658 -107.396 L99.0704 -107.399 L101.075 -107.402 L103.08 -107.405 L105.084 -107.408 L107.089 -107.411 L107.092 -105.406 L107.095 -103.402 L107.098 -101.397 L107.101 -99.3922 L107.104 -97.3875 L107.107 -95.3828 L107.11 -93.3782 L107.113 -91.3735 L107.116 -89.3688 L107.119 -87.3642 L107.122 -85.3595 L107.125 -83.3548 L107.128 -81.3501 L107.131 -79.3455 L107.134 -77.3408 L107.137 -75.3361 L107.14 -73.3314 L107.143 -71.3268 L107.146 -69.3221 L107.149 -67.3174 L107.152 -65.3128 L107.155 -63.3081 L107.158 -61.3034 L107.161 -59.2987 L107.164 -57.2941 L107.167 -55.2894 L107.17 -53.2847 L107.173 -51.28 L107.176 -49.2754 L107.179 -47.2707 L107.182 -45.266 L107.185 -43.2613 L107.188 -41.2567 L107.191 -39.252 L107.194 -37.2473 L107.197 -35.2427 L107.2 -33.238 L107.203 -31.2333 L107.206 -29.2286 L107.209 -27.224 L107.212 -25.2193 L107.215 -23.2146 L107.218 -21.2099 L107.221 -19.2053 L107.224 -17.2006 L107.227 -15.1959 L107.23 -13.1913 L107.233 -11.1866 L107.236 -9.18191 L107.239 -7.17724 L107.242 -5.17256 L107.245 -3.16789 L107.248 -1.16322 L107.251 0.841455 L107.255 2.84613 L107.258 4.8508 L107.261 6.85547 L107.264 8.86015 L107.267 10.8648 L107.27 12.8695 L107.273 14.8742 L107.276 16.8788 L107.279 18.8835 L107.282 20.8882 L107.285 22.8929 L107.288 24.8975 L107.291 26.9022 L107.294 28.9069 L107.297 30.9115 L107.3 32.9162 L107.303 34.9209 L107.306 36.9256 L107.309 38.9302 L107.312 40.9349 L107.315 42.9396 L107.318 44.9443 L107.321 46.9489 L107.324 48.9536 L107.327 50.9583 L107.33 52.963 L107.333 54.9676 L107.336 56.9723 L107.339 58.977 L107.342 60.9816 L107.345 62.9863 L107.348 64.991 L107.351 66.9957 L107.354 69.0003 L107.357 71.005 L107.36 73.0097 L107.363 75.0144 L107.366 77.019 L107.369 79.0237 L107.372 81.0284 L107.375 83.033 L107.378 85.0377 L107.381 87.0424 L107.384 89.0471 L107.387 91.0517 L107.39 93.0564 L107.393 95.0611 L107.396 97.0658 L107.399 99.0704 L107.402 101.075 L107.405 103.08 L107.408 105.084 L107.411 107.089 Z " />
<path stroke="rgb(169,255,187)" stroke-opacity="1" fill="rgb(169,255,187)" fill-opacity="1" id="scalebar" d="M-3.69904 -94.609 L-1.65554 -94.609 L0.387962 -94.609 L2.43146 -94.609 L4.47496 -94.609 L4.47496 -92.6686 L4.47496 -90.7281 L4.47496 -88.7876 L4.47496 -86.8472 L4.47496 -84.9067 L4.47496 -82.9663 L4.47496 -81.0258 L4.47496 -79.0853 L4.47496 -77.1449 L4.47496 -75.2044 L4.47496 -73.2639 L4.47496 -71.3235 L4.47496 -69.383 L2.43146 -69.383 L0.387962 -69.383 L-1.65554 -69.383 L-3.69904 -69.383 L-3.69904 -71.3235 L-3.69904 -73.2639 L-3.69904 -75.2044 L-3.69904 -77.1449 L-3.69904 -79.0853 L-3.69904 -81.0258 L-3.69904 -82.9663 L-3.69904 -84.9067 L-3.69904 -86.8472 L-3.69904 -88.7876 L-3.69904 -90.7281 L-3.69904 -92.6686 L-3.69904 -94.609 Z " />
<path stroke="rgb(200,255,200)" stroke-opacity="1" fill="rgb(200,255,200)" fill-opacity="1" id="scaleslider" d="M-6.69904 -85.801 L-4.67418 -85.801 L-2.64932 -85.801 L-0.624466 -85.801 L1.40039 -85.801 L3.42525 -85.801 L5.4501 -85.801 L7.47496 -85.801 L7.47496 -84.0743 L7.47496 -82.3477 L7.47496 -80.621 L5.4501 -80.621 L3.42525 -80.621 L1.40039 -80.621 L-0.624466 -80.621 L-2.64932 -80.621 L-4.67418 -80.621 L-6.69904 -80.621 L-6.69904 -82.3477 L-6.69904 -84.0743 L-6.69904 -85.801 Z " />
<path stroke="rgb(255,134,106)" stroke-opacity="1" fill="rgb(255,134,106)" fill-opacity="1" id="tranbar" d="M-49.142 -86.146 L-47.0675 -86.146 L-44.993 -86.146 L-42.9185 -86.146 L-40.844 -86.146 L-40.844 -88.2208 L-40.844 -90.2955 L-40.844 -92.3703 L-40.844 -94.445 L-38.7685 -94.445 L-36.693 -94.445 L-34.6175 -94.445 L-32.542 -94.445 L-32.542 -92.3703 L-32.542 -90.2955 L-32.542 -88.2208 L-32.542 -86.146 L-30.4673 -86.146 L-28.3925 -86.146 L-26.3178 -86.146 L-24.243 -86.146 L-24.243 -84.0715 L-24.243 -81.997 L-24.243 -79.9225 L-24.243 -77.848 L-26.3178 -77.848 L-28.3925 -77.848 L-30.4673 -77.848 L-32.542 -77.848 L-32.542 -75.773 L-32.542 -73.698 L-32.542 -71.623 L-32.542 -69.548 L-34.6175 -69.548 L-36.693 -69.548 L-38.7685 -69.548 L-40.844 -69.548 L-40.844 -71.623 L-40.844 -73.698 L-40.844 -75.773 L-40.844 -77.848 L-42.9185 -77.848 L-44.993 -77.848 L-47.0675 -77.848 L-49.142 -77.848 L-49.142 -79.9225 L-49.142 -81.997 L-49.142 -84.0715 L-49.142 -86.146 Z " />
<path stroke="rgb(255,250,159)" stroke-opacity="1" fill="rgb(255,250,159)" fill-opacity="1" id="translider" d="M-43.7899 -84.553 L-42.0865 -84.553 L-40.3832 -84.553 L-38.6799 -84.553 L-38.6799 -82.85 L-38.6799 -81.147 L-38.6799 -79.444 L-40.3832 -79.444 L-42.0865 -79.444 L-43.7899 -79.444 L-43.7899 -81.147 L-43.7899 -82.85 L-43.7899 -84.553 Z " />
<path stroke="rgb(254,204,128)" stroke-opacity="1" fill="rgb(254,204,128)" fill-opacity="1" id="rotate" d="M46.1836 -78.867 L44.7556 -77.5746 L43.3275 -76.2821 L41.8994 -74.9897 L40.4713 -73.6972 L39.0432 -72.4048 L37.2098 -72.9957 L35.3764 -73.5865 L33.543 -74.1774 L31.7096 -74.7682 L29.8761 -75.3591 L29.471 -77.2424 L29.0659 -79.1258 L28.6608 -81.0091 L28.2556 -82.8925 L27.8505 -84.7759 L29.2788 -86.0683 L30.7071 -87.3608 L32.1354 -88.6533 L33.5636 -89.9458 L34.9919 -91.2383 L36.8251 -90.6474 L38.6584 -90.0565 L40.4916 -89.4656 L42.3248 -88.8747 L44.158 -88.2838 L44.5631 -86.4004 L44.9683 -84.5171 L45.3734 -82.6337 L45.7785 -80.7504 L46.1836 -78.867 Z " />
<path stroke="rgb(200,255,200)" stroke-opacity="1" fill="rgb(200,255,200)" fill-opacity="1" id="tri_0" d="M60.3984 -42.59 L61.8559 -40.9045 L63.3134 -39.2189 L64.7709 -37.5334 L66.2284 -35.8479 L67.6859 -34.1624 L66.048 -33.7413 L64.4101 -33.3201 L62.7722 -32.899 L61.1342 -32.4779 L59.4963 -32.0567 L59.6768 -34.1634 L59.8572 -36.27 L60.0376 -38.3767 L60.218 -40.4833 L60.3984 -42.59 Z " />
<path stroke="rgb(200,255,200)" stroke-opacity="1" fill="rgb(200,255,200)" fill-opacity="1" id="tri_0_18_" d="M45.4431 -42.5677 L46.9007 -40.8832 L48.3583 -39.1988 L49.8159 -37.5143 L51.2735 -35.8299 L52.7311 -34.1454 L51.0929 -33.724 L49.4548 -33.3025 L47.8167 -32.881 L46.1786 -32.4595 L44.5404 -32.038 L44.721 -34.1439 L44.9015 -36.2499 L45.082 -38.3558 L45.2626 -40.4617 L45.4431 -42.5677 Z " />
<path stroke="rgb(200,255,200)" stroke-opacity="1" fill="rgb(200,255,200)" fill-opacity="1" id="tri_1_16_" d="M52.5907 -29.9101 L54.1619 -28.1716 L55.7332 -26.4331 L57.3045 -24.6945 L58.8757 -22.956 L60.447 -21.2175 L58.801 -20.7246 L57.1551 -20.2316 L55.5091 -19.7387 L53.8631 -19.2458 L52.2172 -18.7528 L52.2919 -20.9843 L52.3666 -23.2157 L52.4413 -25.4472 L52.516 -27.6787 L52.5907 -29.9101 Z " />
<path stroke="rgb(200,255,200)" stroke-opacity="1" fill="rgb(200,255,200)" fill-opacity="1" id="tri_0_17_" d="M57.853 -25.875 L56.3953 -27.5601 L54.9376 -29.2453 L53.4799 -30.9304 L52.0222 -32.6156 L50.5644 -34.3007 L52.2026 -34.7222 L53.8407 -35.1437 L55.4788 -35.5652 L57.117 -35.9867 L58.7551 -36.4082 L58.5747 -34.3015 L58.3943 -32.1949 L58.2139 -30.0883 L58.0334 -27.9816 L57.853 -25.875 Z " />
<path stroke="rgb(200,255,200)" stroke-opacity="1" fill="rgb(200,255,200)" fill-opacity="1" id="tri_0_16_" d="M30.4853 -42.5483 L31.9433 -40.8627 L33.4014 -39.1772 L34.8594 -37.4917 L36.3175 -35.8062 L37.7755 -34.1207 L36.1367 -33.6997 L34.4979 -33.2787 L32.859 -32.8577 L31.2202 -32.4367 L29.5814 -32.0158 L29.7622 -34.1223 L29.9429 -36.2288 L30.1237 -38.3353 L30.3045 -40.4418 L30.4853 -42.5483 Z " />
<path stroke="rgb(200,255,200)" stroke-opacity="1" fill="rgb(200,255,200)" fill-opacity="1" id="tri_1_15_" d="M37.6318 -29.8856 L39.2037 -28.1473 L40.7755 -26.409 L42.3473 -24.6708 L43.9192 -22.9325 L45.491 -21.1942 L43.8445 -20.7012 L42.198 -20.2083 L40.5514 -19.7153 L38.9049 -19.2224 L37.2584 -18.7295 L37.3331 -20.9607 L37.4077 -23.1919 L37.4824 -25.4232 L37.5571 -27.6544 L37.6318 -29.8856 Z " />
<path stroke="rgb(200,255,200)" stroke-opacity="1" fill="rgb(200,255,200)" fill-opacity="1" id="tri_0_15_" d="M42.8975 -25.8545 L41.4392 -27.5394 L39.9809 -29.2244 L38.5226 -30.9094 L37.0643 -32.5943 L35.606 -34.2793 L37.2449 -34.7002 L38.8837 -35.1212 L40.5225 -35.5422 L42.1614 -35.9632 L43.8002 -36.3842 L43.6196 -34.2782 L43.4391 -32.1723 L43.2586 -30.0664 L43.078 -27.9604 L42.8975 -25.8545 Z " />
<path stroke="rgb(200,255,200)" stroke-opacity="1" fill="rgb(200,255,200)" fill-opacity="1" id="tri_2_14_" d="M44.736 -17.2487 L46.4361 -15.4527 L48.1362 -13.6567 L49.8363 -11.8607 L51.5364 -10.0647 L53.2365 -8.26868 L51.5851 -7.69384 L49.9338 -7.119 L48.2824 -6.54416 L46.631 -5.96932 L44.9796 -5.39448 L44.9309 -7.76533 L44.8821 -10.1362 L44.8334 -12.507 L44.7847 -14.8779 L44.736 -17.2487 Z " />
<path stroke="rgb(200,255,200)" stroke-opacity="1" fill="rgb(200,255,200)" fill-opacity="1" id="tri_1_14_" d="M50.7307 -12.6365 L49.1589 -14.375 L47.5871 -16.1135 L46.0152 -17.852 L44.4434 -19.5905 L42.8716 -21.329 L44.5181 -21.822 L46.1646 -22.3149 L47.8112 -22.8079 L49.4577 -23.3008 L51.1042 -23.7938 L51.0295 -21.5623 L50.9548 -19.3308 L50.8801 -17.0994 L50.8054 -14.8679 L50.7307 -12.6365 Z " />
<path stroke="rgb(200,255,200)" stroke-opacity="1" fill="rgb(200,255,200)" fill-opacity="1" id="tri_0_14_" d="M15.5241 -42.528 L16.9823 -40.8426 L18.4406 -39.1572 L19.8988 -37.4719 L21.3571 -35.7865 L22.8153 -34.1011 L21.1767 -33.6805 L19.5381 -33.2598 L17.8995 -32.8392 L16.2609 -32.4186 L14.6223 -31.9979 L14.8026 -34.1039 L14.983 -36.2099 L15.1633 -38.316 L15.3437 -40.422 L15.5241 -42.528 Z " />
<path stroke="rgb(200,255,200)" stroke-opacity="1" fill="rgb(200,255,200)" fill-opacity="1" id="tri_1_13_" d="M22.6743 -29.8671 L24.2458 -28.1278 L25.8172 -26.3886 L27.3886 -24.6493 L28.9601 -22.91 L30.5315 -21.1708 L28.8855 -20.6778 L27.2396 -20.1849 L25.5936 -19.6919 L23.9476 -19.199 L22.3017 -18.7061 L22.3762 -20.9383 L22.4507 -23.1705 L22.5253 -25.4027 L22.5998 -27.6349 L22.6743 -29.8671 Z " />
<path stroke="rgb(200,255,200)" stroke-opacity="1" fill="rgb(200,255,200)" fill-opacity="1" id="tri_0_13_" d="M27.9367 -25.8319 L26.4789 -27.5178 L25.0211 -29.2036 L23.5632 -30.8895 L22.1054 -32.5754 L20.6475 -34.2612 L22.2862 -34.6819 L23.9248 -35.1025 L25.5634 -35.5231 L27.202 -35.9438 L28.8406 -36.3644 L28.6598 -34.2579 L28.4791 -32.1514 L28.2983 -30.0449 L28.1175 -27.9384 L27.9367 -25.8319 Z " />
<path stroke="rgb(200,255,200)" stroke-opacity="1" fill="rgb(200,255,200)" fill-opacity="1" id="tri_2_13_" d="M29.7797 -17.2266 L31.4793 -15.4308 L33.1788 -13.635 L34.8783 -11.8392 L36.5779 -10.0434 L38.2774 -8.24763 L36.6264 -7.67264 L34.9754 -7.09766 L33.3244 -6.52268 L31.6734 -5.9477 L30.0224 -5.37271 L29.9738 -7.74349 L29.9253 -10.1143 L29.8768 -12.4851 L29.8283 -14.8558 L29.7797 -17.2266 Z " />
<path stroke="rgb(200,255,200)" stroke-opacity="1" fill="rgb(200,255,200)" fill-opacity="1" id="tri_1_12_" d="M35.7722 -12.6131 L34.2009 -14.3514 L32.6296 -16.0897 L31.0583 -17.828 L29.487 -19.5663 L27.9158 -21.3045 L29.5617 -21.7975 L31.2077 -22.2904 L32.8537 -22.7834 L34.4996 -23.2763 L36.1456 -23.7692 L36.0709 -21.538 L35.9962 -19.3068 L35.9215 -17.0755 L35.8468 -14.8443 L35.7722 -12.6131 Z " />
<path stroke="rgb(200,255,200)" stroke-opacity="1" fill="rgb(200,255,200)" fill-opacity="1" id="tri_3_12_" d="M36.867 -4.59532 L38.6951 -2.74611 L40.5232 -0.896908 L42.3513 0.952299 L44.1794 2.80151 L46.0075 4.65071 L44.3577 5.31184 L42.7079 5.97297 L41.0581 6.6341 L39.4083 7.29523 L37.7585 7.95636 L37.5802 5.44602 L37.4019 2.93568 L37.2236 0.42535 L37.0453 -2.08498 L36.867 -4.59532 Z " />
<path stroke="rgb(200,255,200)" stroke-opacity="1" fill="rgb(200,255,200)" fill-opacity="1" id="tri_2_12_" d="M43.661 0.639468 L41.9613 -1.1564 L40.2615 -2.95227 L38.5618 -4.74814 L36.8621 -6.544 L35.1624 -8.33987 L36.8134 -8.91486 L38.4644 -9.48984 L40.1154 -10.0648 L41.7664 -10.6398 L43.4174 -11.2148 L43.4661 -8.84393 L43.5148 -6.47308 L43.5635 -4.10223 L43.6123 -1.73138 L43.661 0.639468 Z " />
<path stroke="rgb(200,255,200)" stroke-opacity="1" fill="rgb(200,255,200)" fill-opacity="1" id="tri_0_12_" d="M0.570844 -42.506 L2.02804 -40.8213 L3.48524 -39.1366 L4.94243 -37.4519 L6.39963 -35.7672 L7.85683 -34.0824 L6.21853 -33.6612 L4.58024 -33.24 L2.94195 -32.8188 L1.30366 -32.3976 L-0.334636 -31.9764 L-0.153541 -34.0823 L0.0275556 -36.1883 L0.208652 -38.2942 L0.389749 -40.4001 L0.570844 -42.506 Z " />
<path stroke="rgb(200,255,200)" stroke-opacity="1" fill="rgb(200,255,200)" fill-opacity="1" id="tri_1_11_" d="M7.71615 -29.843 L9.28762 -28.1049 L10.8591 -26.3668 L12.4306 -24.6286 L14.002 -22.8905 L15.5735 -21.1523 L13.9273 -20.6592 L12.2812 -20.1661 L10.635 -19.6731 L8.98886 -19.18 L7.3427 -18.6869 L7.41739 -20.9181 L7.49208 -23.1493 L7.56677 -25.3806 L7.64146 -27.6118 L7.71615 -29.843 Z " />
<path stroke="rgb(200,255,200)" stroke-opacity="1" fill="rgb(200,255,200)" fill-opacity="1" id="tri_0_11_" d="M12.9784 -25.8144 L11.5205 -27.4992 L10.0626 -29.184 L8.60464 -30.8688 L7.14671 -32.5536 L5.68878 -34.2384 L7.32707 -34.6596 L8.96536 -35.0808 L10.6037 -35.502 L12.2419 -35.9232 L13.8802 -36.3444 L13.6999 -34.2384 L13.5195 -32.1324 L13.3392 -30.0264 L13.1588 -27.9204 L12.9784 -25.8144 Z " />
<path stroke="rgb(200,255,200)" stroke-opacity="1" fill="rgb(200,255,200)" fill-opacity="1" id="tri_2_11_" d="M14.8205 -17.2099 L16.5204 -15.4132 L18.2203 -13.6166 L19.9203 -11.8199 L21.6202 -10.0232 L23.3201 -8.2266 L21.6693 -7.65202 L20.0185 -7.07744 L18.3677 -6.50286 L16.7168 -5.92828 L15.066 -5.3537 L15.0169 -7.72493 L14.9678 -10.0962 L14.9187 -12.4674 L14.8696 -14.8386 L14.8205 -17.2099 Z " />
<path stroke="rgb(200,255,200)" stroke-opacity="1" fill="rgb(200,255,200)" fill-opacity="1" id="tri_1_10_" d="M20.8148 -12.5903 L19.2432 -14.3294 L17.6715 -16.0685 L16.0999 -17.8076 L14.5283 -19.5467 L12.9567 -21.2858 L14.6028 -21.7789 L16.249 -22.272 L17.8951 -22.7651 L19.5413 -23.2582 L21.1875 -23.7513 L21.1129 -21.5191 L21.0384 -19.2869 L20.9639 -17.0547 L20.8893 -14.8225 L20.8148 -12.5903 Z " />
<path stroke="rgb(200,255,200)" stroke-opacity="1" fill="rgb(200,255,200)" fill-opacity="1" id="tri_3_11_" d="M21.9121 -4.57244 L23.7398 -2.72287 L25.5676 -0.873298 L27.3953 0.976274 L29.223 2.82585 L31.0508 4.67542 L29.4005 5.3359 L27.7503 5.99639 L26.1001 6.65688 L24.4499 7.31737 L22.7996 7.97786 L22.6221 5.4678 L22.4446 2.95774 L22.2671 0.447679 L22.0896 -2.06238 L21.9121 -4.57244 Z " />
<path stroke="rgb(200,255,200)" stroke-opacity="1" fill="rgb(200,255,200)" fill-opacity="1" id="tri_2_10_" d="M28.7037 0.659854 L27.0044 -1.13635 L25.305 -2.93255 L23.6057 -4.72875 L21.9063 -6.52495 L20.207 -8.32115 L21.8578 -8.89573 L23.5086 -9.47031 L25.1594 -10.0449 L26.8102 -10.6195 L28.4611 -11.194 L28.5096 -8.82326 L28.5581 -6.45248 L28.6066 -4.08171 L28.6552 -1.71093 L28.7037 0.659854 Z " />
<path stroke="rgb(200,255,200)" stroke-opacity="1" fill="rgb(200,255,200)" fill-opacity="1" id="tri_4_10_" d="M29.0215 8.09461 L30.9721 9.99426 L32.9227 11.8939 L34.8732 13.7936 L36.8238 15.6932 L38.7744 17.5929 L37.1271 18.3335 L35.4798 19.0742 L33.8325 19.8148 L32.1853 20.5555 L30.538 21.2961 L30.2347 18.6558 L29.9314 16.0155 L29.6281 13.3752 L29.3248 10.7349 L29.0215 8.09461 Z " />
<path stroke="rgb(200,255,200)" stroke-opacity="1" fill="rgb(200,255,200)" fill-opacity="1" id="tri_3_10_" d="M36.6022 13.8968 L34.7736 12.047 L32.9451 10.1971 L31.1166 8.34728 L29.288 6.49743 L27.4595 4.64758 L29.1097 3.98709 L30.76 3.32661 L32.4102 2.66612 L34.0604 2.00563 L35.7106 1.34514 L35.8889 3.85548 L36.0673 6.36581 L36.2456 8.87615 L36.4239 11.3865 L36.6022 13.8968 Z " />
<path stroke="rgb(200,255,200)" stroke-opacity="1" fill="rgb(200,255,200)" fill-opacity="1" id="tri_0_10_" d="M-14.3883 -42.4867 L-12.93 -40.8013 L-11.4718 -39.116 L-10.0135 -37.4306 L-8.55524 -35.7452 L-7.09699 -34.0598 L-8.73618 -33.639 L-10.3754 -33.2182 L-12.0146 -32.7973 L-13.6537 -32.3765 L-15.2929 -31.9556 L-15.112 -34.0618 L-14.9311 -36.1681 L-14.7501 -38.2743 L-14.5692 -40.3805 L-14.3883 -42.4867 Z " />
<path stroke="rgb(200,255,200)" stroke-opacity="1" fill="rgb(200,255,200)" fill-opacity="1" id="tri_1_9_" d="M-7.24127 -29.82 L-5.66962 -28.0816 L-4.09797 -26.3431 L-2.52632 -24.6047 L-0.954665 -22.8663 L0.616985 -21.1278 L-1.02917 -20.635 L-2.67532 -20.1421 L-4.32148 -19.6492 L-5.96763 -19.1564 L-7.61379 -18.6635 L-7.53928 -20.8948 L-7.46478 -23.1261 L-7.39028 -25.3574 L-7.31577 -27.5887 L-7.24127 -29.82 Z " />
<path stroke="rgb(200,255,200)" stroke-opacity="1" fill="rgb(200,255,200)" fill-opacity="1" id="tri_0_9_" d="M-1.97812 -25.7928 L-3.43621 -27.4779 L-4.89431 -29.163 L-6.3524 -30.8481 L-7.81049 -32.5332 L-9.26859 -34.2183 L-7.6294 -34.6391 L-5.99021 -35.06 L-4.35102 -35.4808 L-2.71183 -35.9016 L-1.07264 -36.3225 L-1.25374 -34.2166 L-1.43483 -32.1106 L-1.61593 -30.0047 L-1.79703 -27.8988 L-1.97812 -25.7928 Z " />
<path stroke="rgb(200,255,200)" stroke-opacity="1" fill="rgb(200,255,200)" fill-opacity="1" id="tri_2_9_" d="M-0.137238 -17.1881 L1.56249 -15.3922 L3.26221 -13.5964 L4.96194 -11.8005 L6.66166 -10.0046 L8.36139 -8.20875 L6.71078 -7.63315 L5.06017 -7.05755 L3.40957 -6.48195 L1.75896 -5.90635 L0.108349 -5.33075 L0.0592313 -7.70222 L0.0101142 -10.0737 L-0.0390025 -12.4452 L-0.0881196 -14.8166 L-0.137238 -17.1881 Z " />
<path stroke="rgb(200,255,200)" stroke-opacity="1" fill="rgb(200,255,200)" fill-opacity="1" id="tri_1_8_" d="M5.8566 -12.5708 L4.28513 -14.3092 L2.71367 -16.0476 L1.14221 -17.7859 L-0.429258 -19.5243 L-2.00072 -21.2627 L-0.354569 -21.7555 L1.29158 -22.2484 L2.93774 -22.7413 L4.58389 -23.2341 L6.23005 -23.727 L6.15536 -21.4957 L6.08067 -19.2645 L6.00598 -17.0333 L5.93129 -14.802 L5.8566 -12.5708 Z " />
<path stroke="rgb(200,255,200)" stroke-opacity="1" fill="rgb(200,255,200)" fill-opacity="1" id="tri_3_9_" d="M6.95607 -4.54735 L8.78415 -2.69839 L10.6122 -0.849438 L12.4403 0.999518 L14.2684 2.84847 L16.0965 4.69743 L14.4461 5.35785 L12.7956 6.01826 L11.1452 6.67868 L9.49477 7.3391 L7.84434 7.99952 L7.66668 5.49015 L7.48903 2.98077 L7.31138 0.471402 L7.13372 -2.03797 L6.95607 -4.54735 Z " />
<path stroke="rgb(200,255,200)" stroke-opacity="1" fill="rgb(200,255,200)" fill-opacity="1" id="tri_2_8_" d="M13.7476 0.679042 L12.0479 -1.11659 L10.3482 -2.91222 L8.64843 -4.70785 L6.94871 -6.50348 L5.24899 -8.29911 L6.8996 -8.87471 L8.55021 -9.45031 L10.2008 -10.0259 L11.8514 -10.6015 L13.502 -11.1771 L13.5511 -8.80588 L13.6003 -6.43465 L13.6494 -4.06342 L13.6985 -1.69219 L13.7476 0.679042 Z " />
<path stroke="rgb(200,255,200)" stroke-opacity="1" fill="rgb(200,255,200)" fill-opacity="1" id="tri_4_9_" d="M14.0644 8.11413 L16.0144 10.0136 L17.9643 11.913 L19.9143 13.8125 L21.8643 15.7119 L23.8142 17.6114 L22.1676 18.3528 L20.521 19.0942 L18.8744 19.8355 L17.2278 20.5769 L15.5812 21.3183 L15.2779 18.6775 L14.9745 16.0366 L14.6712 13.3958 L14.3678 10.755 L14.0644 8.11413 Z " />
<path stroke="rgb(200,255,200)" stroke-opacity="1" fill="rgb(200,255,200)" fill-opacity="1" id="tri_3_8_" d="M21.6429 13.9182 L19.815 12.0686 L17.987 10.2189 L16.1591 8.3693 L14.3312 6.51966 L12.5032 4.67002 L14.1537 4.0096 L15.8041 3.34918 L17.4545 2.68876 L19.105 2.02834 L20.7554 1.36793 L20.9329 3.87799 L21.1104 6.38805 L21.2879 8.8981 L21.4654 11.4082 L21.6429 13.9182 Z " />
<path stroke="rgb(200,255,200)" stroke-opacity="1" fill="rgb(200,255,200)" fill-opacity="1" id="tri_5_8_" d="M21.1863 20.8 L23.252 22.7433 L25.3177 24.6865 L27.3834 26.6298 L29.4491 28.5731 L31.5149 30.5163 L29.8754 31.3355 L28.2359 32.1546 L26.5964 32.9738 L24.9569 33.7929 L23.3174 34.612 L22.8912 31.8496 L22.4649 29.0872 L22.0387 26.3248 L21.6125 23.5624 L21.1863 20.8 Z " />
<path stroke="rgb(200,255,200)" stroke-opacity="1" fill="rgb(200,255,200)" fill-opacity="1" id="tri_4_8_" d="M29.5255 27.1476 L27.5756 25.2487 L25.6257 23.3497 L23.6758 21.4508 L21.7259 19.5519 L19.776 17.653 L21.4226 16.9116 L23.0692 16.1702 L24.7158 15.4288 L26.3624 14.6874 L28.009 13.946 L28.3123 16.5863 L28.6156 19.2267 L28.9189 21.867 L29.2222 24.5073 L29.5255 27.1476 Z " />
<path stroke="rgb(200,255,200)" stroke-opacity="1" fill="rgb(200,255,200)" fill-opacity="1" id="tri_0_8_" d="M-29.3479 -42.4689 L-27.8899 -40.7832 L-26.4319 -39.0974 L-24.9738 -37.4117 L-23.5158 -35.726 L-22.0577 -34.0403 L-23.6962 -33.6193 L-25.3346 -33.1984 L-26.9731 -32.7775 L-28.6115 -32.3566 L-30.25 -31.9357 L-30.0696 -34.0423 L-29.8892 -36.149 L-29.7088 -38.2556 L-29.5283 -40.3622 L-29.3479 -42.4689 Z " />
<path stroke="rgb(200,255,200)" stroke-opacity="1" fill="rgb(200,255,200)" fill-opacity="1" id="tri_1_7_" d="M-22.1971 -29.7994 L-20.626 -28.0608 L-19.0549 -26.3221 L-17.4839 -24.5834 L-15.9128 -22.8448 L-14.3417 -21.1061 L-15.9877 -20.6138 L-17.6336 -20.1216 L-19.2795 -19.6293 L-20.9255 -19.137 L-22.5714 -18.6448 L-22.4966 -20.8757 L-22.4217 -23.1066 L-22.3468 -25.3376 L-22.272 -27.5685 L-22.1971 -29.7994 Z " />
<path stroke="rgb(200,255,200)" stroke-opacity="1" fill="rgb(200,255,200)" fill-opacity="1" id="tri_0_7_" d="M-16.9371 -25.7716 L-18.3946 -27.4569 L-19.8522 -29.1422 L-21.3097 -30.8275 L-22.7672 -32.5128 L-24.2247 -34.198 L-22.5863 -34.619 L-20.9478 -35.0399 L-19.3094 -35.4608 L-17.6709 -35.8817 L-16.0324 -36.3027 L-16.2134 -34.1964 L-16.3943 -32.0902 L-16.5753 -29.984 L-16.7562 -27.8778 L-16.9371 -25.7716 Z " />
<path stroke="rgb(200,255,200)" stroke-opacity="1" fill="rgb(200,255,200)" fill-opacity="1" id="tri_2_7_" d="M-15.0958 -17.17 L-13.3961 -15.3734 L-11.6963 -13.5769 L-9.9966 -11.7803 L-8.29686 -9.98369 L-6.59713 -8.18711 L-8.24794 -7.61206 L-9.89875 -7.037 L-11.5496 -6.46195 L-13.2004 -5.8869 L-14.8512 -5.31184 L-14.9001 -7.68348 L-14.949 -10.0551 L-14.998 -12.4267 L-15.0469 -14.7984 L-15.0958 -17.17 Z " />
<path stroke="rgb(200,255,200)" stroke-opacity="1" fill="rgb(200,255,200)" fill-opacity="1" id="tri_1_6_" d="M-9.10085 -12.5477 L-10.6723 -14.2868 L-12.2437 -16.0258 L-13.8152 -17.7649 L-15.3866 -19.5039 L-16.958 -21.2429 L-15.3121 -21.7352 L-13.6662 -22.2275 L-12.0202 -22.7197 L-10.3743 -23.212 L-8.72833 -23.7043 L-8.80284 -21.473 L-8.87734 -19.2417 L-8.95184 -17.0104 L-9.02635 -14.779 L-9.10085 -12.5477 Z " />
<path stroke="rgb(200,255,200)" stroke-opacity="1" fill="rgb(200,255,200)" fill-opacity="1" id="tri_3_7_" d="M-8.00163 -4.52459 L-6.17329 -2.67481 L-4.34495 -0.825031 L-2.51662 1.02475 L-0.688278 2.87453 L1.14006 4.7243 L-0.510608 5.38415 L-2.16127 6.044 L-3.81194 6.70384 L-5.4626 7.36369 L-7.11327 8.02354 L-7.29094 5.51391 L-7.46861 3.00429 L-7.64629 0.494662 L-7.82396 -2.01496 L-8.00163 -4.52459 Z " />
<path stroke="rgb(200,255,200)" stroke-opacity="1" fill="rgb(200,255,200)" fill-opacity="1" id="tri_2_6_" d="M-1.2098 0.702036 L-2.90973 -1.09438 L-4.60966 -2.89079 L-6.30959 -4.68721 L-8.00952 -6.48362 L-9.70945 -8.28003 L-8.05863 -8.85509 L-6.40782 -9.43014 L-4.75701 -10.0052 L-3.1062 -10.5803 L-1.45539 -11.1553 L-1.40627 -8.78384 L-1.35716 -6.41237 L-1.30804 -4.0409 L-1.25892 -1.66943 L-1.2098 0.702036 Z " />
<path stroke="rgb(200,255,200)" stroke-opacity="1" fill="rgb(200,255,200)" fill-opacity="1" id="tri_4_7_" d="M-0.894653 8.13411 L1.05568 10.0334 L3.00602 11.9327 L4.95636 13.8321 L6.9067 15.7314 L8.85704 17.6307 L7.21044 18.3721 L5.56385 19.1135 L3.91725 19.8549 L2.27066 20.5963 L0.624063 21.3376 L0.32032 18.6969 L0.0165768 16.0562 L-0.287167 13.4155 L-0.590911 10.7748 L-0.894653 8.13411 Z " />
<path stroke="rgb(200,255,200)" stroke-opacity="1" fill="rgb(200,255,200)" fill-opacity="1" id="tri_3_6_" d="M6.68745 13.9409 L4.85913 12.0913 L3.03081 10.2418 L1.20249 8.39227 L-0.625828 6.54274 L-2.45415 4.69322 L-0.803481 4.03337 L0.847184 3.37352 L2.49785 2.71368 L4.14852 2.05383 L5.79918 1.39398 L5.97684 3.90336 L6.15449 6.41273 L6.33214 8.9221 L6.5098 11.4315 L6.68745 13.9409 Z " />
<path stroke="rgb(200,255,200)" stroke-opacity="1" fill="rgb(200,255,200)" fill-opacity="1" id="tri_5_7_" d="M6.22912 20.8194 L8.29493 22.7632 L10.3607 24.707 L12.4265 26.6508 L14.4923 28.5946 L16.5581 30.5384 L14.9178 31.3571 L13.2774 32.1757 L11.637 32.9943 L9.99659 33.8129 L8.3562 34.6315 L7.93078 31.8691 L7.50537 29.1066 L7.07995 26.3442 L6.65454 23.5818 L6.22912 20.8194 Z " />
<path stroke="rgb(200,255,200)" stroke-opacity="1" fill="rgb(200,255,200)" fill-opacity="1" id="tri_4_6_" d="M14.569 27.1687 L12.6191 25.2693 L10.6691 23.3698 L8.71917 21.4704 L6.76922 19.5709 L4.81927 17.6715 L6.46586 16.9301 L8.11246 16.1887 L9.75905 15.4473 L11.4056 14.7059 L13.0522 13.9645 L13.3556 16.6054 L13.659 19.2462 L13.9623 21.8871 L14.2657 24.5279 L14.569 27.1687 Z " />
<path stroke="rgb(200,255,200)" stroke-opacity="1" fill="rgb(200,255,200)" fill-opacity="1" id="tri_6_6_" d="M13.3659 33.517 L15.5416 35.5001 L17.7172 37.4831 L19.8929 39.4661 L22.0685 41.4491 L24.2442 43.4321 L22.6149 44.3271 L20.9855 45.222 L19.3562 46.117 L17.7269 47.0119 L16.0976 47.9069 L15.5512 45.0289 L15.0049 42.1509 L14.4586 39.273 L13.9122 36.395 L13.3659 33.517 Z " />
<path stroke="rgb(200,255,200)" stroke-opacity="1" fill="rgb(200,255,200)" fill-opacity="1" id="tri_5_6_" d="M22.4357 40.3723 L20.3691 38.4285 L18.3025 36.4847 L16.2359 34.541 L14.1693 32.5972 L12.1026 30.6534 L13.743 29.8348 L15.3834 29.0161 L17.0238 28.1975 L18.6642 27.3789 L20.3046 26.5603 L20.7308 29.3227 L21.1571 32.0851 L21.5833 34.8475 L22.0095 37.6099 L22.4357 40.3723 Z " />
<path stroke="rgb(200,255,200)" stroke-opacity="1" fill="rgb(200,255,200)" fill-opacity="1" id="tri_0_6_" d="M-44.307 -42.4465 L-42.8489 -40.7614 L-41.3909 -39.0763 L-39.9328 -37.3912 L-38.4747 -35.7061 L-37.0166 -34.0211 L-38.6553 -33.5994 L-40.294 -33.1777 L-41.9327 -32.756 L-43.5714 -32.3343 L-45.2101 -31.9126 L-45.0295 -34.0194 L-44.8489 -36.1262 L-44.6683 -38.2329 L-44.4877 -40.3397 L-44.307 -42.4465 Z " />
<path stroke="rgb(200,255,200)" stroke-opacity="1" fill="rgb(200,255,200)" fill-opacity="1" id="tri_1_5_" d="M-37.1562 -29.7758 L-35.5843 -28.0375 L-34.0125 -26.2992 L-32.4407 -24.5609 L-30.8688 -22.8226 L-29.297 -21.0843 L-30.9435 -20.592 L-32.59 -20.0998 L-34.2365 -19.6075 L-35.883 -19.1152 L-37.5295 -18.623 L-37.4549 -20.8535 L-37.3802 -23.0841 L-37.3055 -25.3146 L-37.2309 -27.5452 L-37.1562 -29.7758 Z " />
<path stroke="rgb(200,255,200)" stroke-opacity="1" fill="rgb(200,255,200)" fill-opacity="1" id="tri_0_5_" d="M-31.8935 -25.7517 L-33.3518 -27.4366 L-34.8101 -29.1216 L-36.2684 -30.8065 L-37.7267 -32.4915 L-39.185 -34.1764 L-37.5463 -34.5981 L-35.9076 -35.0198 L-34.2689 -35.4415 L-32.6302 -35.8632 L-30.9915 -36.2849 L-31.1719 -34.1782 L-31.3523 -32.0716 L-31.5327 -29.9649 L-31.7131 -27.8583 L-31.8935 -25.7517 Z " />
<path stroke="rgb(200,255,200)" stroke-opacity="1" fill="rgb(200,255,200)" fill-opacity="1" id="tri_2_5_" d="M-30.0549 -17.1509 L-28.355 -15.3547 L-26.6551 -13.5585 L-24.9552 -11.7623 L-23.2552 -9.96616 L-21.5553 -8.16998 L-23.2055 -7.59424 L-24.8558 -7.0185 L-26.506 -6.44276 L-28.1562 -5.86702 L-29.8064 -5.29128 L-29.8561 -7.66319 L-29.9058 -10.0351 L-29.9555 -12.407 L-30.0052 -14.7789 L-30.0549 -17.1509 Z " />
<path stroke="rgb(200,255,200)" stroke-opacity="1" fill="rgb(200,255,200)" fill-opacity="1" id="tri_1_4_" d="M-24.0588 -12.5289 L-25.6305 -14.2676 L-27.2021 -16.0063 L-28.7738 -17.7449 L-30.3454 -19.4836 L-31.917 -21.2223 L-30.2705 -21.7145 L-28.624 -22.2068 L-26.9775 -22.6991 L-25.331 -23.1913 L-23.6845 -23.6836 L-23.7594 -21.4527 L-23.8342 -19.2217 L-23.9091 -16.9908 L-23.984 -14.7599 L-24.0588 -12.5289 Z " />
<path stroke="rgb(200,255,200)" stroke-opacity="1" fill="rgb(200,255,200)" fill-opacity="1" id="tri_3_5_" d="M-22.9548 -4.50048 L-21.1273 -2.65123 L-19.2998 -0.801982 L-17.4723 1.04727 L-15.6448 2.89652 L-13.8173 4.74577 L-15.4679 5.40637 L-17.1185 6.06697 L-18.7691 6.72757 L-20.4197 7.38817 L-22.0703 8.04877 L-22.2472 5.53892 L-22.4241 3.02907 L-22.601 0.519219 L-22.7779 -1.99063 L-22.9548 -4.50048 Z " />
<path stroke="rgb(200,255,200)" stroke-opacity="1" fill="rgb(200,255,200)" fill-opacity="1" id="tri_2_4_" d="M-16.1692 0.719951 L-17.8684 -1.07594 L-19.5675 -2.87183 L-21.2667 -4.66773 L-22.9658 -6.46362 L-24.665 -8.25951 L-23.0147 -8.83525 L-21.3645 -9.41099 L-19.7143 -9.98674 L-18.0641 -10.5625 L-16.4139 -11.1382 L-16.3649 -8.76658 L-16.316 -6.39495 L-16.2671 -4.02332 L-16.2182 -1.65168 L-16.1692 0.719951 Z " />
<path stroke="rgb(200,255,200)" stroke-opacity="1" fill="rgb(200,255,200)" fill-opacity="1" id="tri_4_5_" d="M-15.8532 8.1584 L-13.9029 10.0572 L-11.9527 11.956 L-10.0024 13.8548 L-8.0521 15.7536 L-6.10182 17.6523 L-7.74866 18.3934 L-9.39549 19.1345 L-11.0423 19.8755 L-12.6892 20.6166 L-14.336 21.3576 L-14.6394 18.7178 L-14.9429 16.0779 L-15.2463 13.4381 L-15.5498 10.7982 L-15.8532 8.1584 Z " />
<path stroke="rgb(200,255,200)" stroke-opacity="1" fill="rgb(200,255,200)" fill-opacity="1" id="tri_3_4_" d="M-8.27021 13.9652 L-10.0985 12.1162 L-11.9268 10.2672 L-13.7551 8.41814 L-15.5833 6.56912 L-17.4116 4.72009 L-15.761 4.05949 L-14.1104 3.39889 L-12.4598 2.73829 L-10.8092 2.07769 L-9.15857 1.41709 L-8.98089 3.92671 L-8.80322 6.43634 L-8.62555 8.94597 L-8.44788 11.4556 L-8.27021 13.9652 Z " />
<path stroke="rgb(200,255,200)" stroke-opacity="1" fill="rgb(200,255,200)" fill-opacity="1" id="tri_5_5_" d="M-8.73137 20.8376 L-6.66493 22.7816 L-4.59848 24.7256 L-2.53203 26.6697 L-0.465582 28.6137 L1.60087 30.5577 L-0.0394386 31.3768 L-1.67974 32.196 L-3.32005 33.0152 L-4.96035 33.8343 L-6.60066 34.6535 L-7.0268 31.8903 L-7.45294 29.1271 L-7.87909 26.364 L-8.30523 23.6008 L-8.73137 20.8376 Z " />
<path stroke="rgb(200,255,200)" stroke-opacity="1" fill="rgb(200,255,200)" fill-opacity="1" id="tri_4_4_" d="M-0.388384 27.1889 L-2.33896 25.2893 L-4.28954 23.3896 L-6.24011 21.49 L-8.19069 19.5903 L-10.1413 17.6907 L-8.49443 16.9496 L-6.8476 16.2086 L-5.20077 15.4675 L-3.55393 14.7265 L-1.9071 13.9854 L-1.60336 16.6261 L-1.29961 19.2668 L-0.99587 21.9075 L-0.692126 24.5482 L-0.388384 27.1889 Z " />
<path stroke="rgb(200,255,200)" stroke-opacity="1" fill="rgb(200,255,200)" fill-opacity="1" id="tri_6_5_" d="M-1.58992 33.5412 L0.584812 35.5237 L2.75954 37.5062 L4.93427 39.4887 L7.10899 41.4712 L9.28372 43.4536 L7.65488 44.349 L6.02605 45.2444 L4.39721 46.1397 L2.76837 47.0351 L1.13953 47.9304 L0.593644 45.0526 L0.0477537 42.1748 L-0.498137 39.2969 L-1.04403 36.4191 L-1.58992 33.5412 Z " />
<path stroke="rgb(200,255,200)" stroke-opacity="1" fill="rgb(200,255,200)" fill-opacity="1" id="tri_5_4_" d="M7.4745 40.392 L5.40878 38.4488 L3.34307 36.5055 L1.27735 34.5623 L-0.78837 32.619 L-2.85409 30.6757 L-1.21379 29.8566 L0.42652 29.0374 L2.06682 28.2183 L3.70713 27.3991 L5.34743 26.5799 L5.77285 29.3424 L6.19826 32.1048 L6.62368 34.8672 L7.04909 37.6296 L7.4745 40.392 Z " />
<path stroke="rgb(200,255,200)" stroke-opacity="1" fill="rgb(200,255,200)" fill-opacity="1" id="tri_7_4_" d="M5.56887 46.2656 L7.84551 48.2839 L10.1221 50.3022 L12.3988 52.3204 L14.6754 54.3387 L16.9521 56.357 L15.3335 57.3206 L13.7149 58.2843 L12.0963 59.2479 L10.4777 60.2115 L8.85916 61.1752 L8.2011 58.1933 L7.54304 55.2114 L6.88499 52.2295 L6.22693 49.2475 L5.56887 46.2656 Z " />
<path stroke="rgb(200,255,200)" stroke-opacity="1" fill="rgb(200,255,200)" fill-opacity="1" id="tri_6_4_" d="M15.3348 53.5745 L13.1596 51.5919 L10.9845 49.6093 L8.80929 47.6267 L6.63412 45.6441 L4.45895 43.6615 L6.08779 42.7661 L7.71662 41.8708 L9.34546 40.9754 L10.9743 40.0801 L12.6031 39.1847 L13.1495 42.0627 L13.6958 44.9406 L14.2421 47.8186 L14.7885 50.6966 L15.3348 53.5745 Z " />
<path stroke="rgb(200,255,200)" stroke-opacity="1" fill="rgb(200,255,200)" fill-opacity="1" id="tri_0_4_" d="M-59.2665 -42.4275 L-57.8084 -40.742 L-56.3504 -39.0565 L-54.8923 -37.371 L-53.4343 -35.6855 L-51.9762 -34 L-53.6145 -33.5788 L-55.2528 -33.1576 L-56.8911 -32.7364 L-58.5294 -32.3152 L-60.1677 -31.8939 L-59.9874 -34.0007 L-59.8072 -36.1074 L-59.627 -38.2141 L-59.4467 -40.3208 L-59.2665 -42.4275 Z " />
<path stroke="rgb(200,255,200)" stroke-opacity="1" fill="rgb(200,255,200)" fill-opacity="1" id="tri_1_3_" d="M-52.1126 -29.7561 L-50.5413 -28.0172 L-48.9701 -26.2782 L-47.3988 -24.5392 L-45.8276 -22.8003 L-44.2563 -21.0613 L-45.9023 -20.5693 L-47.5482 -20.0772 L-49.1941 -19.5852 L-50.8401 -19.0931 L-52.486 -18.6011 L-52.4113 -20.8321 L-52.3366 -23.0631 L-52.262 -25.2941 L-52.1873 -27.5251 L-52.1126 -29.7561 Z " />
<path stroke="rgb(200,255,200)" stroke-opacity="1" fill="rgb(200,255,200)" fill-opacity="1" id="tri_0_3_" d="M-46.8534 -25.7292 L-48.311 -27.4148 L-49.7687 -29.1003 L-51.2264 -30.7859 L-52.6841 -32.4715 L-54.1417 -34.1571 L-52.5035 -34.5783 L-50.8652 -34.9995 L-49.2269 -35.4207 L-47.5886 -35.8419 L-45.9503 -36.2631 L-46.1309 -34.1563 L-46.3115 -32.0495 L-46.4921 -29.9428 L-46.6727 -27.836 L-46.8534 -25.7292 Z " />
<path stroke="rgb(200,255,200)" stroke-opacity="1" fill="rgb(200,255,200)" fill-opacity="1" id="tri_2_3_" d="M-45.0121 -17.1294 L-43.3126 -15.3333 L-41.6131 -13.5373 L-39.9135 -11.7413 L-38.214 -9.94522 L-36.5145 -8.14919 L-38.1651 -7.57359 L-39.8157 -6.99799 L-41.4663 -6.42239 L-43.1169 -5.84679 L-44.7675 -5.27119 L-44.8164 -7.64282 L-44.8654 -10.0145 L-44.9143 -12.3861 L-44.9632 -14.7577 L-45.0121 -17.1294 Z " />
<path stroke="rgb(200,255,200)" stroke-opacity="1" fill="rgb(200,255,200)" fill-opacity="1" id="tri_1_2_" d="M-39.0169 -12.5068 L-40.5881 -14.2453 L-42.1594 -15.9839 L-43.7307 -17.7224 L-45.3019 -19.4609 L-46.8732 -21.1994 L-45.2273 -21.6915 L-43.5813 -22.1835 L-41.9354 -22.6755 L-40.2895 -23.1676 L-38.6435 -23.6596 L-38.7182 -21.4291 L-38.7929 -19.1985 L-38.8675 -16.9679 L-38.9422 -14.7374 L-39.0169 -12.5068 Z " />
<path stroke="rgb(200,255,200)" stroke-opacity="1" fill="rgb(200,255,200)" fill-opacity="1" id="tri_3_3_" d="M-37.915 -4.4774 L-36.0862 -2.62774 L-34.2575 -0.778071 L-32.4288 1.07159 L-30.6001 2.92126 L-28.7714 4.77092 L-30.4228 5.43075 L-32.0743 6.09057 L-33.7257 6.75039 L-35.3772 7.41021 L-37.0286 8.07003 L-37.2059 5.56055 L-37.3832 3.05106 L-37.5604 0.541572 L-37.7377 -1.96792 L-37.915 -4.4774 Z " />
<path stroke="rgb(200,255,200)" stroke-opacity="1" fill="rgb(200,255,200)" fill-opacity="1" id="tri_2_2_" d="M-31.1243 0.741344 L-32.8246 -1.05497 L-34.5249 -2.85129 L-36.2252 -4.64761 L-37.9255 -6.44393 L-39.6258 -8.24025 L-37.9752 -8.81585 L-36.3246 -9.39145 L-34.674 -9.96705 L-33.0234 -10.5426 L-31.3728 -11.1182 L-31.3231 -8.74633 L-31.2734 -6.37441 L-31.2237 -4.00249 L-31.174 -1.63057 L-31.1243 0.741344 Z " />
<path stroke="rgb(200,255,200)" stroke-opacity="1" fill="rgb(200,255,200)" fill-opacity="1" id="tri_4_3_" d="M-30.8122 8.17605 L-28.8618 10.0759 L-26.9114 11.9757 L-24.961 13.8756 L-23.0106 15.7754 L-21.0602 17.6753 L-22.7065 18.4163 L-24.3527 19.1573 L-25.9989 19.8983 L-27.6452 20.6393 L-29.2914 21.3803 L-29.5956 18.7394 L-29.8997 16.0986 L-30.2039 13.4577 L-30.508 10.8169 L-30.8122 8.17605 Z " />
<path stroke="rgb(200,255,200)" stroke-opacity="1" fill="rgb(200,255,200)" fill-opacity="1" id="tri_3_2_" d="M-23.2274 13.9907 L-25.0558 12.1407 L-26.8842 10.2907 L-28.7125 8.44063 L-30.5409 6.5906 L-32.3692 4.74057 L-30.7178 4.08074 L-29.0663 3.42092 L-27.4149 2.7611 L-25.7634 2.10128 L-24.112 1.44146 L-23.9351 3.95131 L-23.7582 6.46116 L-23.5813 8.97101 L-23.4044 11.4809 L-23.2274 13.9907 Z " />
<path stroke="rgb(200,255,200)" stroke-opacity="1" fill="rgb(200,255,200)" fill-opacity="1" id="tri_5_3_" d="M-23.6871 20.8594 L-21.6216 22.8026 L-19.5561 24.7458 L-17.4906 26.689 L-15.4251 28.6322 L-13.3596 30.5754 L-14.9993 31.3944 L-16.639 32.2135 L-18.2787 33.0326 L-19.9184 33.8517 L-21.5581 34.6708 L-21.9839 31.9085 L-22.4097 29.1462 L-22.8355 26.3839 L-23.2613 23.6217 L-23.6871 20.8594 Z " />
<path stroke="rgb(200,255,200)" stroke-opacity="1" fill="rgb(200,255,200)" fill-opacity="1" id="tri_4_2_" d="M-15.3481 27.208 L-17.2978 25.3091 L-19.2475 23.4103 L-21.1972 21.5114 L-23.1469 19.6126 L-25.0966 17.7137 L-23.4503 16.9727 L-21.8041 16.2317 L-20.1578 15.4907 L-18.5116 14.7497 L-16.8654 14.0087 L-16.5619 16.6486 L-16.2585 19.2884 L-15.955 21.9283 L-15.6516 24.5681 L-15.3481 27.208 Z " />
<path stroke="rgb(200,255,200)" stroke-opacity="1" fill="rgb(200,255,200)" fill-opacity="1" id="tri_6_3_" d="M-16.5471 33.5597 L-14.3722 35.543 L-12.1973 37.5264 L-10.0224 39.5097 L-7.84751 41.4931 L-5.67262 43.4764 L-7.30184 44.3708 L-8.93106 45.2653 L-10.5603 46.1597 L-12.1895 47.0541 L-13.8187 47.9486 L-14.3644 45.0708 L-14.9101 42.193 L-15.4557 39.3152 L-16.0014 36.4374 L-16.5471 33.5597 Z " />
<path stroke="rgb(200,255,200)" stroke-opacity="1" fill="rgb(200,255,200)" fill-opacity="1" id="tri_5_2_" d="M-7.48241 40.4139 L-9.54825 38.4698 L-11.6141 36.5257 L-13.6799 34.5816 L-15.7458 32.6375 L-17.8116 30.6934 L-16.1719 29.8743 L-14.5322 29.0552 L-12.8925 28.2362 L-11.2528 27.4171 L-9.61312 26.598 L-9.18698 29.3612 L-8.76084 32.1244 L-8.33469 34.8875 L-7.90855 37.6507 L-7.48241 40.4139 Z " />
<path stroke="rgb(200,255,200)" stroke-opacity="1" fill="rgb(200,255,200)" fill-opacity="1" id="tri_7_3_" d="M-9.38986 46.2829 L-7.11325 48.302 L-4.83664 50.3211 L-2.56003 52.3402 L-0.283415 54.3593 L1.9932 56.3784 L0.375 57.3419 L-1.2432 58.3054 L-2.8614 59.2688 L-4.47959 60.2323 L-6.09779 61.1958 L-6.7562 58.2132 L-7.41462 55.2306 L-8.07303 52.2481 L-8.73145 49.2655 L-9.38986 46.2829 Z " />
<path stroke="rgb(200,255,200)" stroke-opacity="1" fill="rgb(200,255,200)" fill-opacity="1" id="tri_6_2_" d="M0.37664 53.5973 L-1.79847 51.6139 L-3.97358 49.6305 L-6.14869 47.6471 L-8.32381 45.6637 L-10.4989 43.6803 L-8.8697 42.7858 L-7.24048 41.8914 L-5.61125 40.997 L-3.98203 40.1025 L-2.35281 39.2081 L-1.80692 42.0859 L-1.26103 44.9638 L-0.715141 47.8416 L-0.169251 50.7195 L0.37664 53.5973 Z " />
<path stroke="rgb(200,255,200)" stroke-opacity="1" fill="rgb(200,255,200)" fill-opacity="1" id="tri_8_2_" d="M-2.19561 59.018 L0.174745 61.0666 L2.5451 63.1153 L4.91546 65.1639 L7.28582 67.2126 L9.65618 69.2612 L8.05177 70.2933 L6.44736 71.3254 L4.84295 72.3575 L3.23854 73.3896 L1.63412 74.4217 L0.868175 71.341 L0.102228 68.2602 L-0.663718 65.1795 L-1.42966 62.0987 L-2.19561 59.018 Z " />
<path stroke="rgb(200,255,200)" stroke-opacity="1" fill="rgb(200,255,200)" fill-opacity="1" id="tri_7_2_" d="M8.20021 66.7563 L5.92396 64.7379 L3.6477 62.7194 L1.37144 60.701 L-0.904815 58.6825 L-3.18107 56.6641 L-1.56288 55.7006 L0.0553215 54.7372 L1.67352 53.7737 L3.29172 52.8102 L4.90991 51.8468 L5.56797 54.8287 L6.22603 57.8106 L6.88409 60.7925 L7.54215 63.7744 L8.20021 66.7563 Z " />
<path stroke="rgb(200,255,200)" stroke-opacity="1" fill="rgb(200,255,200)" fill-opacity="1" id="tri_0_2_" d="M-74.2234 -42.4056 L-72.7656 -40.7207 L-71.3079 -39.0357 L-69.8502 -37.3508 L-68.3924 -35.6658 L-66.9347 -33.9809 L-68.573 -33.5593 L-70.2114 -33.1376 L-71.8497 -32.716 L-73.488 -32.2944 L-75.1264 -31.8728 L-74.9458 -33.9793 L-74.7652 -36.0859 L-74.5846 -38.1925 L-74.404 -40.299 L-74.2234 -42.4056 Z " />
<path stroke="rgb(200,255,200)" stroke-opacity="1" fill="rgb(200,255,200)" fill-opacity="1" id="tri_1_1_" d="M-67.0703 -29.7339 L-65.4986 -27.9955 L-63.927 -26.2571 L-62.3553 -24.5186 L-60.7837 -22.7802 L-59.212 -21.0417 L-60.858 -20.5486 L-62.504 -20.0554 L-64.15 -19.5622 L-65.7959 -19.0691 L-67.4419 -18.5759 L-67.3676 -20.8075 L-67.2933 -23.0391 L-67.2189 -25.2707 L-67.1446 -27.5023 L-67.0703 -29.7339 Z " />
<path stroke="rgb(200,255,200)" stroke-opacity="1" fill="rgb(200,255,200)" fill-opacity="1" id="tri_0_1_" d="M-61.8109 -25.7107 L-63.269 -27.3958 L-64.7271 -29.0809 L-66.1852 -30.766 L-67.6433 -32.4511 L-69.1014 -34.1362 L-67.4631 -34.5578 L-65.8247 -34.9794 L-64.1864 -35.401 L-62.5481 -35.8227 L-60.9097 -36.2443 L-61.09 -34.1376 L-61.2702 -32.0309 L-61.4504 -29.9241 L-61.6307 -27.8174 L-61.8109 -25.7107 Z " />
<path stroke="rgb(200,255,200)" stroke-opacity="1" fill="rgb(200,255,200)" fill-opacity="1" id="tri_2_1_" d="M-59.9677 -17.1051 L-58.2682 -15.3098 L-56.5687 -13.5145 L-54.8691 -11.7192 L-53.1696 -9.92384 L-51.4701 -8.12852 L-53.1213 -7.55266 L-54.7725 -6.9768 L-56.4236 -6.40093 L-58.0748 -5.82507 L-59.726 -5.24921 L-59.7743 -7.62039 L-59.8227 -9.99157 L-59.871 -12.3628 L-59.9194 -14.7339 L-59.9677 -17.1051 Z " />
<path stroke="rgb(200,255,200)" stroke-opacity="1" fill="rgb(200,255,200)" fill-opacity="1" id="tri_1" d="M-53.9727 -12.4859 L-55.544 -14.2238 L-57.1153 -15.9616 L-58.6866 -17.6995 L-60.2578 -19.4373 L-61.8291 -21.1752 L-60.1832 -21.6683 L-58.5372 -22.1615 L-56.8912 -22.6546 L-55.2452 -23.1478 L-53.5993 -23.641 L-53.6739 -21.41 L-53.7486 -19.1789 L-53.8233 -16.9479 L-53.898 -14.7169 L-53.9727 -12.4859 Z " />
<path stroke="rgb(200,255,200)" stroke-opacity="1" fill="rgb(200,255,200)" fill-opacity="1" id="tri_3_1_" d="M-52.8731 -4.45043 L-51.0446 -2.60134 L-49.2161 -0.752243 L-47.3876 1.09685 L-45.5591 2.94595 L-43.7306 4.79504 L-45.3813 5.45539 L-47.0319 6.11574 L-48.6825 6.77609 L-50.3332 7.43644 L-51.9838 8.09678 L-52.1617 5.58734 L-52.3395 3.0779 L-52.5174 0.568456 L-52.6952 -1.94099 L-52.8731 -4.45043 Z " />
<path stroke="rgb(200,255,200)" stroke-opacity="1" fill="rgb(200,255,200)" fill-opacity="1" id="tri_2" d="M-46.0851 0.762123 L-47.7852 -1.03365 L-49.4853 -2.82942 L-51.1854 -4.62519 L-52.8855 -6.42097 L-54.5856 -8.21674 L-52.9344 -8.7926 L-51.2832 -9.36847 L-49.6321 -9.94433 L-47.9809 -10.5202 L-46.3297 -11.0961 L-46.2808 -8.72442 L-46.2318 -6.35278 L-46.1829 -3.98115 L-46.134 -1.60951 L-46.0851 0.762123 Z " />
<path stroke="rgb(200,255,200)" stroke-opacity="1" fill="rgb(200,255,200)" fill-opacity="1" id="tri_4_1_" d="M-45.7692 8.19856 L-43.8193 10.0975 L-41.8694 11.9964 L-39.9195 13.8953 L-37.9696 15.7942 L-36.0197 17.6932 L-37.6659 18.4344 L-39.3121 19.1757 L-40.9583 19.9169 L-42.6045 20.6582 L-44.2507 21.3995 L-44.5544 18.7593 L-44.8581 16.1191 L-45.1618 13.4789 L-45.4655 10.8387 L-45.7692 8.19856 Z " />
<path stroke="rgb(200,255,200)" stroke-opacity="1" fill="rgb(200,255,200)" fill-opacity="1" id="tri_3" d="M-38.1858 14.0125 L-40.0137 12.1634 L-41.8416 10.3143 L-43.6695 8.46512 L-45.4974 6.61598 L-47.3253 4.76684 L-45.6746 4.10649 L-44.024 3.44614 L-42.3734 2.78579 L-40.7228 2.12545 L-39.0721 1.4651 L-38.8948 3.97458 L-38.7176 6.48407 L-38.5403 8.99356 L-38.363 11.503 L-38.1858 14.0125 Z " />
<path stroke="rgb(200,255,200)" stroke-opacity="1" fill="rgb(200,255,200)" fill-opacity="1" id="tri_5_1_" d="M-38.6461 20.8775 L-36.5799 22.8215 L-34.5137 24.7654 L-32.4474 26.7094 L-30.3812 28.6533 L-28.315 30.5972 L-29.9551 31.4162 L-31.5952 32.2351 L-33.2354 33.0541 L-34.8755 33.873 L-36.5156 34.692 L-36.9417 31.9291 L-37.3678 29.1662 L-37.7939 26.4033 L-38.22 23.6404 L-38.6461 20.8775 Z " />
<path stroke="rgb(200,255,200)" stroke-opacity="1" fill="rgb(200,255,200)" fill-opacity="1" id="tri_4" d="M-30.304 27.2304 L-32.2543 25.3308 L-34.2047 23.4313 L-36.1551 21.5317 L-38.1054 19.6321 L-40.0558 17.7325 L-38.4096 16.9912 L-36.7634 16.25 L-35.1172 15.5087 L-33.471 14.7675 L-31.8247 14.0262 L-31.5206 16.667 L-31.2164 19.3079 L-30.9123 21.9487 L-30.6081 24.5896 L-30.304 27.2304 Z " />
<path stroke="rgb(200,255,200)" stroke-opacity="1" fill="rgb(200,255,200)" fill-opacity="1" id="tri_6_1_" d="M-31.5039 33.5823 L-29.329 35.5649 L-27.154 37.5474 L-24.9791 39.53 L-22.8041 41.5125 L-20.6292 43.4951 L-22.2584 44.3906 L-23.8876 45.2861 L-25.5168 46.1816 L-27.1461 47.0771 L-28.7753 47.9726 L-29.321 45.0946 L-29.8667 42.2165 L-30.4125 39.3385 L-30.9582 36.4604 L-31.5039 33.5823 Z " />
<path stroke="rgb(200,255,200)" stroke-opacity="1" fill="rgb(200,255,200)" fill-opacity="1" id="tri_5" d="M-22.4395 40.4305 L-24.5054 38.4872 L-26.5714 36.5438 L-28.6373 34.6005 L-30.7033 32.6572 L-32.7692 30.7139 L-31.1291 29.8949 L-29.4889 29.076 L-27.8488 28.257 L-26.2087 27.4381 L-24.5685 26.6191 L-24.1427 29.3814 L-23.7169 32.1437 L-23.2911 34.9059 L-22.8653 37.6682 L-22.4395 40.4305 Z " />
<path stroke="rgb(200,255,200)" stroke-opacity="1" fill="rgb(200,255,200)" fill-opacity="1" id="tri_7_1_" d="M-24.347 46.3067 L-22.0707 48.3246 L-19.7943 50.3425 L-17.518 52.3604 L-15.2416 54.3783 L-12.9653 56.3962 L-14.5837 57.3604 L-16.2022 58.3247 L-17.8206 59.2889 L-19.4391 60.2532 L-21.0575 61.2174 L-21.7154 58.2353 L-22.3733 55.2531 L-23.0312 52.271 L-23.6891 49.2888 L-24.347 46.3067 Z " />
<path stroke="rgb(200,255,200)" stroke-opacity="1" fill="rgb(200,255,200)" fill-opacity="1" id="tri_6" d="M-14.5815 53.6158 L-16.7564 51.6335 L-18.9313 49.6513 L-21.1062 47.669 L-23.2811 45.6868 L-25.456 43.7045 L-23.8268 42.809 L-22.1976 41.9135 L-20.5683 41.0179 L-18.9391 40.1224 L-17.3099 39.2269 L-16.7642 42.1047 L-16.2186 44.9825 L-15.6729 47.8602 L-15.1272 50.738 L-14.5815 53.6158 Z " />
<path stroke="rgb(200,255,200)" stroke-opacity="1" fill="rgb(200,255,200)" fill-opacity="1" id="tri_8_1_" d="M-17.1539 59.0428 L-14.7829 61.0913 L-12.412 63.1399 L-10.041 65.1884 L-7.67003 67.2369 L-5.29905 69.2854 L-6.90362 70.3178 L-8.50818 71.3501 L-10.1127 72.3825 L-11.7173 73.4148 L-13.3219 74.4472 L-14.0883 71.3663 L-14.8547 68.2854 L-15.6211 65.2046 L-16.3875 62.1237 L-17.1539 59.0428 Z " />
<path stroke="rgb(200,255,200)" stroke-opacity="1" fill="rgb(200,255,200)" fill-opacity="1" id="tri_7" d="M-6.75673 66.7771 L-9.0336 64.7588 L-11.3105 62.7405 L-13.5873 60.7221 L-15.8642 58.7038 L-18.1411 56.6855 L-16.5226 55.7212 L-14.9042 54.757 L-13.2857 53.7928 L-11.6673 52.8285 L-10.0488 51.8643 L-9.39039 54.8469 L-8.73198 57.8294 L-8.07356 60.812 L-7.41515 63.7946 L-6.75673 66.7771 Z " />
<path stroke="rgb(200,255,200)" stroke-opacity="1" fill="rgb(200,255,200)" fill-opacity="1" id="tri_9" d="M-9.96072 71.8075 L-7.50423 73.8843 L-5.04773 75.961 L-2.59123 78.0378 L-0.134726 80.1145 L2.32177 82.1913 L0.73084 83.2831 L-0.860093 84.3749 L-2.45103 85.4667 L-4.04196 86.5585 L-5.63289 87.6503 L-6.49846 84.4818 L-7.36402 81.3132 L-8.22959 78.1446 L-9.09516 74.9761 L-9.96072 71.8075 Z " />
<path stroke="rgb(200,255,200)" stroke-opacity="1" fill="rgb(200,255,200)" fill-opacity="1" id="tri_8" d="M1.06961 79.9154 L-1.3009 77.867 L-3.67142 75.8186 L-6.04193 73.7702 L-8.41245 71.7218 L-10.783 69.6734 L-9.17839 68.641 L-7.57383 67.6087 L-5.96926 66.5763 L-4.3647 65.544 L-2.76013 64.5116 L-1.99418 67.5924 L-1.22824 70.6731 L-0.462291 73.7539 L0.303656 76.8346 L1.06961 79.9154 Z " />
</g>
</g>
</svg>
