<!DOCTYPE svg>
<svg xmlns="http://www.w3.org/2000/svg" xmlns:xlink="http://www.w3.org/1999/xlink" width="600" height="600">
<g transform="translate(300.000000,300.000000)">
<g transform="scale(3.000000,3.000000)">
<path stroke="rgb(0,0,0)" stroke-opacity="1" fill="rgb(255,255,255)" fill-opacity="1" id="Layer_1" d="M107.411 107.089 L105.406 107.092 L103.402 107.095 L101.397 107.098 L99.3922 107.101 L97.3875 107.104 L95.3828 107.107 L93.3782 107.11 L91.3735 107.113 L89.3688 107.116 L87.3641 107.119 L85.3595 107.122 L83.3548 107.125 L81.3501 107.128 L79.3455 107.131 L77.3408 107.134 L75.3361 107.137 L73.3314 107.14 L71.3268 107.143 L69.3221 107.146 L67.3174 107.149 L65.3127 107.152 L63.3081 107.155 L61.3034 107.158 L59.2987 107.161 L57.2941 107.164 L55.2894 107.167 L53.2847 107.17 L51.28 107.173 L49.2754 107.176 L47.2707 107.179 L45.266 107.182 L43.2613 107.185 L41.2567 107.188 L39.252 107.191 L37.2473 107.194 L35.2426 107.197 L33.238 107.2 L31.2333 107.203 L29.2286 107.206 L27.224 107.209 L25.2193 107.212 L23.2146 107.215 L21.2099 107.218 L19.2053 107.221 L17.2006 107.224 L15.1959 107.227 L13.1912 107.23 L11.1866 107.233 L9.1819 107.236 L7.17723 107.239 L5.17256 107.242 L3.16788 107.245 L1.16321 107.248 L-0.841463 107.252 L-2.84614 107.255 L-4.85081 107.258 L-6.85548 107.261 L-8.86015 107.264 L-10.8648 107.267 L-12.8695 107.27 L-14.8742 107.273 L-16.8788 107.276 L-18.8835 107.279 L-20.8882 107.282 L-22.8929 107.285 L-24.8975 107.288 L-26.9022 107.291 L-28.9069 107.294 L-30.9116 107.297 L-32.9162 107.3 L-34.9209 107.303 L-36.9256 107.306 L-38.9302 107.309 L-40.9349 107.312 L-42.9396 107.315 L-44.9443 107.318 L-46.9489 107.321 L-48.9536 107.324 L-50.9583 107.327 L-52.963 107.33 L-54.9676 107.333 L-56.9723 107.336 L-58.977 107.339 L-60.9816 107.342 L-62.9863 107.345 L-64.991 107.348 L-66.9957 107.351 L-69.0003 107.354 L-71.005 107.357 L-73.0097 107.36 L-75.0144 107.363 L-77.019 107.366 L-79.0237 107.369 L-81.0284 107.372 L-83.0331 107.375 L-85.0377 107.378 L-87.0424 107.381 L-89.0471 107.384 L-91.0517 107.387 L-93.0564 107.39 L-95.0611 107.393 L-97.0658 107.396 L-99.0704 107.399 L-101.075 107.402 L-103.08 107.405 L-105.084 107.408 L-107.089 107.411 L-107.092 105.406 L-107.095 103.402 L-107.098 101.397 L-107.101 99.3922 L-107.104 97.3875 L-107.107 95.3828 L-107.11 93.3782 L-107.113 91.3735 L-107.116 89.3688 L-107.119 87.3641 L-107.122 85.3595 L-107.125 83.3548 L-107.128 81.3501 L-107.131 79.3455 L-107.134 77.3408 L-107.137 75.3361 L-107.14 73.3314 L-107.143 71.3268 L-107.146 69.3221 L-107.149 67.3174 L-107.152 65.3127 L-107.155 63.3081 L-107.158 61.3034 L-107.161 59.2987 L-107.164 57.2941 L-107.167 55.2894 L-107.17 53.2847 L-107.173 51.28 L-107.176 49.2754 L-107.179 47.2707 L-107.182 45.266 L-107.185 43.2613 L-107.188 41.2567 L-107.191 39.252 L-107.194 37.2473 L-107.197 35.2426 L-107.2 33.238 L-107.203 31.2333 L-107.206 29.2286 L-107.209 27.224 L-107.212 25.2193 L-107.215 23.2146 L-107.218 21.2099 L-107.221 19.2053 L-107.224 17.2006 L-107.227 15.1959 L-107.23 13.1912 L-107.233 11.1866 L-107.236 9.1819 L-107.239 7.17722 L-107.242 5.17255 L-107.245 3.16788 L-107.248 1.1632 L-107.251 -0.841469 L-107.255 -2.84614 L-107.258 -4.85081 L-107.261 -6.85549 L-107.264 -8.86016 L-107.267 -10.8648 L-107.27 -12.8695 L-107.273 -14.8742 L-107.276 -16.8789 L-107.279 -18.8835 L-107.282 -20.8882 L-107.285 -22.8929 L-107.288 -24.8975 L-107.291 -26.9022 L-107.294 -28.9069 L-107.297 -30.9116 L-107.3 -32.9162 L-107.303 -34.9209 L-107.306 -36.9256 L-107.309 -38.9303 L-107.312 -40.9349 L-107.315 -42.9396 L-107.318 -44.9443 L-107.321 -46.9489 L-107.324 -48.9536 L-107.327 -50.9583 L-107.33 -52.963 L-107.333 -54.9676 L-107.336 -56.9723 L-107.339 -58.977 L-107.342 -60.9817 L-107.345 -62.9863 L-107.348 -64.991 L-107.351 -66.9957 L-107.354 -69.0003 L-107.357 -71.005 L-107.36 -73.0097 L-107.363 -75.0144 L-107.366 -77.019 L-107.369 -79.0237 L-107.372 -81.0284 L-107.375 -83.0331 L-107.378 -85.0377 L-107.381 -87.0424 L-107.384 -89.0471 L-107.387 -91.0518 L-107.39 -93.0564 L-107.393 -95.0611 L-107.396 -97.0658 L-107.399 -99.0704 L-107.402 -101.075 L-107.405 -103.08 L-107.408 -105.084 L-107.411 -107.089 L-105.406 -107.092 L-103.402 -107.095 L-101.397 -107.098 L-99.3922 -107.101 L-97.3875 -107.104 L-95.3828 -107.107 L-93.3782 -107.11 L-91.3735 -107.113 L-89.3688 -107.116 L-87.3641 -107.119 L-85.3595 -107.122 L-83.3548 -107.125 L-81.3501 -107.128 L-79.3455 -107.131 L-77.3408 -107.134 L-75.3361 -107.137 L-73.3314 -107.14 L-71.3268 -107.143 L-69.3221 -107.146 L-67.3174 -107.149 L-65.3127 -107.152 L-63.3081 -107.155 L-61.3034 -107.158 L-59.2987 -107.161 L-57.2941 -107.164 L-55.2894 -107.167 L-53.2847 -107.17 L-51.28 -107.173 L-49.2754 -107.176 L-47.2707 -107.179 L-45.266 -107.182 L-43.2613 -107.185 L-41.2567 -107.188 L-39.252 -107.191 L-37.2473 -107.194 L-35.2426 -107.197 L-33.238 -107.2 L-31.2333 -107.203 L-29.2286 -107.206 L-27.224 -107.209 L-25.2193 -107.212 L-23.2146 -107.215 L-21.2099 -107.218 L-19.2053 -107.221 L-17.2006 -107.224 L-15.1959 -107.227 L-13.1912 -107.23 L-11.1866 -107.233 L-9.1819 -107.236 L-7.17723 -107.239 L-5.17256 -107.242 L-3.16788 -107.245 L-1.16321 -107.248 L0.841463 -107.252 L2.84614 -107.255 L4.85081 -107.258 L6.85548 -107.261 L8.86015 -107.264 L10.8648 -107.267 L12.8695 -107.27 L14.8742 -107.273 L16.8788 -107.276 L18.8835 -107.279 L20.8882 -107.282 L22.8929 -107.285 L24.8975 -107.288 L26.9022 -107.291 L28.9069 -107.294 L30.9116 -107.297 L32.9162 -107.3 L34.9209 -107.303 L36.9256 -107.306 L38.9302 -107.309 L40.9349 -107.312 L42.9396 -107.315 L44.9443 -107.318 L46.9489 -107.321 L48.9536 -107.324 L50.9583 -107.327 L52.963 -107.33 L54.9676 -107.333 L56.9723 -107.336 L58.977 -107.339 L60.9816 -107.342 L62.9863 -107.345 L64.991 -107.348 L66.9957 -107.351 L69.0003 -107.354 L71.005 -107.357 L73.0097 -107.36 L75.0144 -107.363 L77.019 -107.366 L79.0237 -107.369 L81.0284 -107.372 L83.0331 -107.375 L85.0377 -107.378 L87.0424 -107.381 L89.0471 -107.384 L91.0517 -107.387 L93.0564 -107.39 L95.0611 -107.393 L97.0658 -107.396 L99.0704 -107.399 L101.075 -107.402 L103.08 -107.405 L105.084 -107.408 L107.089 -107.411 L107.092 -105.406 L107.095 -103.402 L107.098 -101.397 L107.101 -99.3922 L107.104 -97.3875 L107.107 -95.3828 L107.11 -93.3782 L107.113 -91.3735 L107.116 -89.3688 L107.119 -87.3642 L107.122 -85.3595 L107.125 -83.3548 L107.128 -81.3501 L107.131 -79.3455 L107.134 -77.3408 L107.137 -75.3361 L107.14 -73.3314 L107.143 -71.3268 L107.146 -69.3221 L107.149 -67.3174 L107.152 -65.3128 L107.155 -63.3081 L107.158 -61.3034 L107.161 -59.2987 L107.164 -57.2941 L107.167 -55.2894 L107.17 -53.2847 L107.173 -51.28 L107.176 -49.2754 L107.179 -47.2707 L107.182 -45.266 L107.185 -43.2613 L107.188 -41.2567 L107.191 -39.252 L107.194 -37.2473 L107.197 -35.2427 L107.2 -33.238 L107.203 -31.2333 L107.206 -29.2286 L107.209 -27.224 L107.212 -25.2193 L107.215 -23.2146 L107.218 -21.2099 L107.221 -19.2053 L107.224 -17.2006 L107.227 -15.1959 L107.23 -13.1913 L107.233 -11.1866 L107.236 -9.18191 L107.239 -7.17724 L107.242 -5.17256 L107.245 -3.16789 L107.248 -1.16322 L107.251 0.841455 L107.255 2.84613 L107.258 4.8508 L107.261 6.85547 L107.264 8.86015 L107.267 10.8648 L107.27 12.8695 L107.273 14.8742 L107.276 16.8788 L107.279 18.8835 L107.282 20.8882 L107.285 22.8929 L107.288 24.8975 L107.291 26.9022 L107.294 28.9069 L107.297 30.9115 L107.3 32.9162 L107.303 34.9209 L107.306 36.9256 L107.309 38.9302 L107.312 40.9349 L107.315 42.9396 L107.318 44.9443 L107.321 46.9489 L107.324 48.9536 L107.327 50.9583 L107.33 52.963 L107.333 54.9676 L107.336 56.9723 L107.339 58.977 L107.342 60.9816 L107.345 62.9863 L107.348 64.991 L107.351 66.9957 L107.354 69.0003 L107.357 71.005 L107.36 73.0097 L107.363 75.0144 L107.366 77.019 L107.369 79.0237 L107.372 81.0284 L107.375 83.033 L107.378 85.0377 L107.381 87.0424 L107.384 89.0471 L107.387 91.0517 L107.39 93.0564 L107.393 95.0611 L107.396 97.0658 L107.399 99.0704 L107.402 101.075 L107.405 103.08 L107.408 105.084 L107.411 107.089 Z " />
<path stroke="rgb(169,255,187)" stroke-opacity="1" fill="rgb(169,255,187)" fill-opacity="1" id="scalebar" d="M-3.69904 -94.609 L-1.65554 -94.609 L0.387962 -94.609 L2.43146 -94.609 L4.47496 -94.609 L4.47496 -92.6686 L4.47496 -90.7281 L4.47496 -88.7876 L4.47496 -86.8472 L4.47496 -84.9067 L4.47496 -82.9663 L4.47496 -81.0258 L4.47496 -79.0853 L4.47496 -77.1449 L4.47496 -75.2044 L4.47496 -73.2639 L4.47496 -71.3235 L4.47496 -69.383 L2.43146 -69.383 L0.387962 -69.383 L-1.65554 -69.383 L-3.69904 -69.383 L-3.69904 -71.3235 L-3.69904 -73.2639 L-3.69904 -75.2044 L-3.69904 -77.1449 L-3.69904 -79.0853 L-3.69904 -81.0258 L-3.69904 -82.9663 L-3.69904 -84.9067 L-3.69904 -86.8472 L-3.69904 -88.7876 L-3.69904 -90.7281 L-3.69904 -92.6686 L-3.69904 -94.609 Z " />
<path stroke="rgb(200,255,200)" stroke-opacity="1" fill="rgb(200,255,200)" fill-opacity="1" id="scaleslider" d="M-6.69904 -79.6053 L-4.67418 -79.6053 L-2.64932 -79.6053 L-0.624466 -79.6053 L1.40039 -79.6053 L3.42525 -79.6053 L5.4501 -79.6053 L7.47496 -79.6053 L7.47496 -77.8786 L7.47496 -76.152 L7.47496 -74.4253 L5.4501 -74.4253 L3.42525 -74.4253 L1.40039 -74.4253 L-0.624466 -74.4253 L-2.64932 -74.4253 L-4.67418 -74.4253 L-6.69904 -74.4253 L-6.69904 -76.152 L-6.69904 -77.8786 L-6.69904 -79.6053 Z " />
<path stroke="rgb(255,134,106)" stroke-opacity="1" fill="rgb(255,134,106)" fill-opacity="1" id="tranbar" d="M-49.142 -86.146 L-47.0675 -86.146 L-44.993 -86.146 L-42.9185 -86.146 L-40.844 -86.146 L-40.844 -88.2208 L-40.844 -90.2955 L-40.844 -92.3703 L-40.844 -94.445 L-38.7685 -94.445 L-36.693 -94.445 L-34.6175 -94.445 L-32.542 -94.445 L-32.542 -92.3703 L-32.542 -90.2955 L-32.542 -88.2208 L-32.542 -86.146 L-30.4673 -86.146 L-28.3925 -86.146 L-26.3178 -86.146 L-24.243 -86.146 L-24.243 -84.0715 L-24.243 -81.997 L-24.243 -79.9225 L-24.243 -77.848 L-26.3178 -77.848 L-28.3925 -77.848 L-30.4673 -77.848 L-32.542 -77.848 L-32.542 -75.773 L-32.542 -73.698 L-32.542 -71.623 L-32.542 -69.548 L-34.6175 -69.548 L-36.693 -69.548 L-38.7685 -69.548 L-40.844 -69.548 L-40.844 -71.623 L-40.844 -73.698 L-40.844 -75.773 L-40.844 -77.848 L-42.9185 -77.848 L-44.993 -77.848 L-47.0675 -77.848 L-49.142 -77.848 L-49.142 -79.9225 L-49.142 -81.997 L-49.142 -84.0715 L-49.142 -86.146 Z " />
<path stroke="rgb(255,250,159)" stroke-opacity="1" fill="rgb(255,250,159)" fill-opacity="1" id="translider" d="M-39.248 -84.553 L-37.5447 -84.553 L-35.8414 -84.553 L-34.138 -84.553 L-34.138 -82.85 L-34.138 -81.147 L-34.138 -79.444 L-35.8414 -79.444 L-37.5447 -79.444 L-39.248 -79.444 L-39.248 -81.147 L-39.248 -82.85 L-39.248 -84.553 Z " />
<path stroke="rgb(254,204,128)" stroke-opacity="1" fill="rgb(254,204,128)" fill-opacity="1" id="rotate" d="M42.8361 -74.2397 L40.9255 -74.0244 L39.015 -73.8091 L37.1044 -73.5939 L35.1939 -73.3786 L33.2833 -73.1633 L32.1418 -74.7106 L31.0002 -76.2579 L29.8586 -77.8051 L28.717 -79.3524 L27.5755 -80.8996 L28.3446 -82.6621 L29.1138 -84.4245 L29.8829 -86.187 L30.6521 -87.9494 L31.4213 -89.7119 L33.332 -89.9271 L35.2427 -90.1422 L37.1535 -90.3574 L39.0642 -90.5726 L40.9749 -90.7878 L42.1163 -89.2406 L43.2577 -87.6934 L44.3991 -86.1463 L45.5405 -84.5991 L46.6819 -83.0519 L45.9127 -81.2895 L45.1436 -79.527 L44.3744 -77.7646 L43.6052 -76.0021 L42.8361 -74.2397 Z " />
<path stroke="rgb(200,255,200)" stroke-opacity="1" fill="rgb(200,255,200)" fill-opacity="1" id="tri_0" d="M-4.75907 -46.8775 L-3.59556 -48.1213 L-2.43206 -49.3651 L-1.26855 -50.6089 L-0.105046 -51.8527 L1.05846 -53.0965 L1.55367 -51.4691 L2.04888 -49.8416 L2.5441 -48.2142 L3.03931 -46.5867 L3.53452 -44.9593 L1.8758 -45.3429 L0.217085 -45.7266 L-1.44163 -46.1102 L-3.10035 -46.4938 L-4.75907 -46.8775 Z " />
<path stroke="rgb(200,255,200)" stroke-opacity="1" fill="rgb(200,255,200)" fill-opacity="1" id="tri_0_18_" d="M-9.73211 -38.2426 L-8.56943 -39.4866 L-7.40676 -40.7306 L-6.24409 -41.9746 L-5.08142 -43.2186 L-3.91875 -44.4626 L-3.42324 -42.8349 L-2.92773 -41.2072 L-2.43222 -39.5795 L-1.93672 -37.9519 L-1.44121 -36.3242 L-3.09939 -36.7079 L-4.75757 -37.0915 L-6.41575 -37.4752 L-8.07393 -37.8589 L-9.73211 -38.2426 Z " />
<path stroke="rgb(200,255,200)" stroke-opacity="1" fill="rgb(200,255,200)" fill-opacity="1" id="tri_1_16_" d="M0.328715 -38.5428 L1.51491 -39.6758 L2.7011 -40.8087 L3.88729 -41.9417 L5.07349 -43.0747 L6.25968 -44.2077 L6.64741 -42.6155 L7.03515 -41.0233 L7.42288 -39.431 L7.81061 -37.8388 L8.19835 -36.2466 L6.62442 -36.7058 L5.05049 -37.1651 L3.47657 -37.6243 L1.90264 -38.0835 L0.328715 -38.5428 Z " />
<path stroke="rgb(200,255,200)" stroke-opacity="1" fill="rgb(200,255,200)" fill-opacity="1" id="tri_0_17_" d="M4.68726 -44.1726 L3.52404 -42.9286 L2.36083 -41.6845 L1.19762 -40.4405 L0.0344127 -39.1964 L-1.1288 -37.9524 L-1.6243 -39.5801 L-2.11981 -41.2077 L-2.61532 -42.8354 L-3.11083 -44.4631 L-3.60633 -46.0908 L-1.94762 -45.7072 L-0.288897 -45.3235 L1.36982 -44.9399 L3.02854 -44.5563 L4.68726 -44.1726 Z " />
<path stroke="rgb(200,255,200)" stroke-opacity="1" fill="rgb(200,255,200)" fill-opacity="1" id="tri_0_16_" d="M-14.7085 -29.6058 L-13.5451 -30.8502 L-12.3816 -32.0945 L-11.2182 -33.3389 L-10.0547 -34.5832 L-8.89127 -35.8275 L-8.39609 -34.1992 L-7.9009 -32.5709 L-7.40572 -30.9426 L-6.91053 -29.3143 L-6.41535 -27.686 L-8.07399 -28.0699 L-9.73263 -28.4539 L-11.3913 -28.8379 L-13.0499 -29.2218 L-14.7085 -29.6058 Z " />
<path stroke="rgb(200,255,200)" stroke-opacity="1" fill="rgb(200,255,200)" fill-opacity="1" id="tri_1_15_" d="M-4.64539 -29.9044 L-3.45937 -31.038 L-2.27335 -32.1715 L-1.08734 -33.3051 L0.0986811 -34.4387 L1.2847 -35.5722 L1.67245 -33.9795 L2.0602 -32.3867 L2.44796 -30.794 L2.83571 -29.2012 L3.22346 -27.6085 L1.64969 -28.0677 L0.0759213 -28.5268 L-1.49785 -28.986 L-3.07162 -29.4452 L-4.64539 -29.9044 Z " />
<path stroke="rgb(200,255,200)" stroke-opacity="1" fill="rgb(200,255,200)" fill-opacity="1" id="tri_0_15_" d="M-0.288042 -35.5375 L-1.45104 -34.2929 L-2.61403 -33.0482 L-3.77703 -31.8036 L-4.94002 -30.559 L-6.10302 -29.3143 L-6.5982 -30.9427 L-7.09339 -32.571 L-7.58857 -34.1993 L-8.08375 -35.8276 L-8.57894 -37.4559 L-6.92076 -37.0723 L-5.26258 -36.6886 L-3.6044 -36.3049 L-1.94622 -35.9212 L-0.288042 -35.5375 Z " />
<path stroke="rgb(200,255,200)" stroke-opacity="1" fill="rgb(200,255,200)" fill-opacity="1" id="tri_2_14_" d="M5.44484 -30.226 L6.6489 -31.2361 L7.85297 -32.2463 L9.05704 -33.2565 L10.2611 -34.2666 L11.4652 -35.2768 L11.7369 -33.7302 L12.0087 -32.1836 L12.2804 -30.6369 L12.5521 -29.0903 L12.8239 -27.5437 L11.3481 -28.0802 L9.87227 -28.6166 L8.39646 -29.1531 L6.92065 -29.6895 L5.44484 -30.226 Z " />
<path stroke="rgb(200,255,200)" stroke-opacity="1" fill="rgb(200,255,200)" fill-opacity="1" id="tri_1_14_" d="M9.58196 -35.2542 L8.39578 -34.1207 L7.20961 -32.9872 L6.02343 -31.8536 L4.83726 -30.7201 L3.65109 -29.5866 L3.26333 -31.1794 L2.87558 -32.7721 L2.48783 -34.3649 L2.10008 -35.9576 L1.71232 -37.5504 L3.28625 -37.0911 L4.86018 -36.6319 L6.4341 -36.1727 L8.00803 -35.7134 L9.58196 -35.2542 Z " />
<path stroke="rgb(200,255,200)" stroke-opacity="1" fill="rgb(200,255,200)" fill-opacity="1" id="tri_0_14_" d="M-19.6846 -20.9674 L-18.5213 -22.212 L-17.358 -23.4565 L-16.1946 -24.7011 L-15.0313 -25.9456 L-13.868 -27.1902 L-13.3731 -25.5621 L-12.8782 -23.934 L-12.3833 -22.3059 L-11.8884 -20.6779 L-11.3935 -19.0498 L-13.0518 -19.4333 L-14.71 -19.8168 L-16.3682 -20.2004 L-18.0264 -20.5839 L-19.6846 -20.9674 Z " />
<path stroke="rgb(200,255,200)" stroke-opacity="1" fill="rgb(200,255,200)" fill-opacity="1" id="tri_1_13_" d="M-9.62341 -21.2687 L-8.43669 -22.4017 L-7.24998 -23.5347 L-6.06327 -24.6677 L-4.87655 -25.8007 L-3.68984 -26.9337 L-3.30211 -25.3415 L-2.91437 -23.7493 L-2.52664 -22.1571 L-2.1389 -20.5648 L-1.75117 -18.9726 L-3.32562 -19.4318 L-4.90006 -19.891 L-6.47451 -20.3502 L-8.04896 -20.8095 L-9.62341 -21.2687 Z " />
<path stroke="rgb(200,255,200)" stroke-opacity="1" fill="rgb(200,255,200)" fill-opacity="1" id="tri_0_13_" d="M-5.26233 -26.8988 L-6.42608 -25.6547 L-7.58983 -24.4106 L-8.75358 -23.1665 L-9.91733 -21.9224 L-11.0811 -20.6783 L-11.576 -22.3064 L-12.0709 -23.9345 L-12.5657 -25.5626 L-13.0606 -27.1906 L-13.5555 -28.8187 L-11.8969 -28.4347 L-10.2383 -28.0508 L-8.57961 -27.6668 L-6.92097 -27.2828 L-5.26233 -26.8988 Z " />
<path stroke="rgb(200,255,200)" stroke-opacity="1" fill="rgb(200,255,200)" fill-opacity="1" id="tri_2_13_" d="M0.470491 -21.5903 L1.6744 -22.6 L2.8783 -23.6098 L4.08221 -24.6195 L5.28611 -25.6292 L6.49001 -26.6389 L6.76187 -25.0926 L7.03372 -23.5463 L7.30557 -22 L7.57742 -20.4536 L7.84928 -18.9073 L6.37352 -19.4439 L4.89776 -19.9805 L3.42201 -20.5171 L1.94625 -21.0537 L0.470491 -21.5903 Z " />
<path stroke="rgb(200,255,200)" stroke-opacity="1" fill="rgb(200,255,200)" fill-opacity="1" id="tri_1_12_" d="M4.60712 -26.6161 L3.42109 -25.4831 L2.23505 -24.35 L1.04902 -23.217 L-0.13702 -22.084 L-1.32306 -20.9509 L-1.71079 -22.5431 L-2.09852 -24.1354 L-2.48626 -25.7276 L-2.87399 -27.3198 L-3.26173 -28.9121 L-1.68796 -28.4529 L-0.114188 -27.9937 L1.45958 -27.5345 L3.03335 -27.0753 L4.60712 -26.6161 Z " />
<path stroke="rgb(200,255,200)" stroke-opacity="1" fill="rgb(200,255,200)" fill-opacity="1" id="tri_3_12_" d="M10.5927 -21.9267 L11.8069 -22.802 L13.021 -23.6773 L14.2351 -24.5525 L15.4492 -25.4278 L16.6633 -26.3031 L16.8143 -24.8156 L16.9653 -23.3282 L17.1163 -21.8407 L17.2673 -20.3532 L17.4183 -18.8658 L16.0532 -19.478 L14.6881 -20.0902 L13.323 -20.7024 L11.9579 -21.3145 L10.5927 -21.9267 Z " />
<path stroke="rgb(200,255,200)" stroke-opacity="1" fill="rgb(200,255,200)" fill-opacity="1" id="tri_2_12_" d="M14.4467 -26.3103 L13.2428 -25.3004 L12.0388 -24.2906 L10.8349 -23.2807 L9.63091 -22.2708 L8.42695 -21.2609 L8.1551 -22.8073 L7.88325 -24.3536 L7.6114 -25.8999 L7.33954 -27.4462 L7.06769 -28.9925 L8.5435 -28.4561 L10.0193 -27.9196 L11.4951 -27.3832 L12.9709 -26.8467 L14.4467 -26.3103 Z " />
<path stroke="rgb(200,255,200)" stroke-opacity="1" fill="rgb(200,255,200)" fill-opacity="1" id="tri_0_12_" d="M-24.6587 -12.3346 L-23.4958 -13.5781 L-22.3328 -14.8217 L-21.1699 -16.0653 L-20.007 -17.3089 L-18.8441 -18.5525 L-18.3488 -16.9247 L-17.8535 -15.2969 L-17.3582 -13.6691 L-16.8629 -12.0412 L-16.3676 -10.4134 L-18.0258 -10.7976 L-19.684 -11.1819 L-21.3422 -11.5661 L-23.0005 -11.9503 L-24.6587 -12.3346 Z " />
<path stroke="rgb(200,255,200)" stroke-opacity="1" fill="rgb(200,255,200)" fill-opacity="1" id="tri_1_11_" d="M-14.5976 -12.6316 L-13.4117 -13.7649 L-12.2258 -14.8981 L-11.0398 -16.0314 L-9.85391 -17.1646 L-8.66799 -18.2979 L-8.28015 -16.7054 L-7.8923 -15.113 L-7.50445 -13.5206 L-7.11661 -11.9281 L-6.72876 -10.3357 L-8.30253 -10.7949 L-9.8763 -11.2541 L-11.4501 -11.7132 L-13.0238 -12.1724 L-14.5976 -12.6316 Z " />
<path stroke="rgb(200,255,200)" stroke-opacity="1" fill="rgb(200,255,200)" fill-opacity="1" id="tri_0_11_" d="M-10.2405 -18.2629 L-11.4034 -17.0186 L-12.5663 -15.7743 L-13.7292 -14.53 L-14.8921 -13.2857 L-16.0551 -12.0414 L-16.5504 -13.6692 L-17.0457 -15.2971 L-17.541 -16.9249 L-18.0363 -18.5527 L-18.5316 -20.1805 L-16.8733 -19.797 L-15.2151 -19.4135 L-13.5569 -19.0299 L-11.8987 -18.6464 L-10.2405 -18.2629 Z " />
<path stroke="rgb(200,255,200)" stroke-opacity="1" fill="rgb(200,255,200)" fill-opacity="1" id="tri_2_11_" d="M-4.50729 -12.9537 L-3.30283 -13.9636 L-2.09837 -14.9734 L-0.893917 -15.9833 L0.310539 -16.9932 L1.515 -18.003 L1.78661 -16.4569 L2.05822 -14.9109 L2.32983 -13.3648 L2.60144 -11.8188 L2.87305 -10.2727 L1.39698 -10.8089 L-0.0790839 -11.3451 L-1.55515 -11.8813 L-3.03122 -12.4175 L-4.50729 -12.9537 Z " />
<path stroke="rgb(200,255,200)" stroke-opacity="1" fill="rgb(200,255,200)" fill-opacity="1" id="tri_1_10_" d="M-0.367807 -17.9801 L-1.55441 -16.8469 L-2.74101 -15.7137 L-3.92761 -14.5804 L-5.11421 -13.4472 L-6.30081 -12.314 L-6.68866 -13.9064 L-7.0765 -15.4989 L-7.46435 -17.0913 L-7.8522 -18.6837 L-8.24004 -20.2762 L-6.6656 -19.817 L-5.09115 -19.3577 L-3.5167 -18.8985 L-1.94225 -18.4393 L-0.367807 -17.9801 Z " />
<path stroke="rgb(200,255,200)" stroke-opacity="1" fill="rgb(200,255,200)" fill-opacity="1" id="tri_3_11_" d="M5.61684 -13.292 L6.8311 -14.1669 L8.04536 -15.0417 L9.25962 -15.9166 L10.4739 -16.7915 L11.6881 -17.6664 L11.8387 -16.1788 L11.9893 -14.6911 L12.1399 -13.2035 L12.2905 -11.7159 L12.4411 -10.2283 L11.0763 -10.8411 L9.71141 -11.4538 L8.34656 -12.0665 L6.9817 -12.6793 L5.61684 -13.292 Z " />
<path stroke="rgb(200,255,200)" stroke-opacity="1" fill="rgb(200,255,200)" fill-opacity="1" id="tri_2_10_" d="M9.47165 -17.674 L8.2675 -16.6646 L7.06336 -15.6551 L5.85921 -14.6456 L4.65506 -13.6362 L3.45092 -12.6267 L3.17931 -14.1728 L2.9077 -15.7188 L2.63608 -17.2649 L2.36447 -18.811 L2.09286 -20.357 L3.56862 -19.8204 L5.04438 -19.2838 L6.52013 -18.7472 L7.99589 -18.2106 L9.47165 -17.674 Z " />
<path stroke="rgb(200,255,200)" stroke-opacity="1" fill="rgb(200,255,200)" fill-opacity="1" id="tri_4_10_" d="M15.7814 -13.6406 L16.9955 -14.3704 L18.2096 -15.1001 L19.4237 -15.8299 L20.6378 -16.5597 L21.8519 -17.2895 L21.8764 -15.8746 L21.9009 -14.4598 L21.9254 -13.045 L21.9499 -11.6302 L21.9744 -10.2154 L20.7358 -10.9004 L19.4972 -11.5855 L18.2586 -12.2705 L17.02 -12.9556 L15.7814 -13.6406 Z " />
<path stroke="rgb(200,255,200)" stroke-opacity="1" fill="rgb(200,255,200)" fill-opacity="1" id="tri_3_10_" d="M19.2814 -17.355 L18.0669 -16.4796 L16.8524 -15.6042 L15.6379 -14.7288 L14.4233 -13.8533 L13.2088 -12.9779 L13.0582 -14.4655 L12.9076 -15.9531 L12.757 -17.4407 L12.6064 -18.9284 L12.4558 -20.416 L13.821 -19.8038 L15.1861 -19.1916 L16.5512 -18.5794 L17.9163 -17.9672 L19.2814 -17.355 Z " />
<path stroke="rgb(200,255,200)" stroke-opacity="1" fill="rgb(200,255,200)" fill-opacity="1" id="tri_0_10_" d="M-29.6347 -3.69671 L-28.4714 -4.94127 L-27.308 -6.18582 L-26.1447 -7.43037 L-24.9814 -8.67492 L-23.8181 -9.91947 L-23.323 -8.29082 L-22.8279 -6.66217 L-22.3327 -5.03352 L-21.8376 -3.40486 L-21.3425 -1.77621 L-23.001 -2.16031 L-24.6594 -2.54441 L-26.3178 -2.92851 L-27.9763 -3.31261 L-29.6347 -3.69671 Z " />
<path stroke="rgb(200,255,200)" stroke-opacity="1" fill="rgb(200,255,200)" fill-opacity="1" id="tri_1_9_" d="M-19.5724 -3.9945 L-18.3862 -5.12786 L-17.2001 -6.26121 L-16.014 -7.39457 L-14.8279 -8.52793 L-13.6417 -9.66129 L-13.254 -8.0689 L-12.8664 -6.47651 L-12.4787 -4.88412 L-12.091 -3.29173 L-11.7033 -1.69935 L-13.2771 -2.15838 L-14.8509 -2.61741 L-16.4247 -3.07644 L-17.9986 -3.53547 L-19.5724 -3.9945 Z " />
<path stroke="rgb(200,255,200)" stroke-opacity="1" fill="rgb(200,255,200)" fill-opacity="1" id="tri_0_9_" d="M-15.2144 -9.6266 L-16.3776 -8.38218 L-17.5407 -7.13775 L-18.7038 -5.89333 L-19.8669 -4.64891 L-21.0301 -3.40448 L-21.5252 -5.03313 L-22.0203 -6.66179 L-22.5154 -8.29044 L-23.0105 -9.91909 L-23.5056 -11.5477 L-21.8474 -11.1635 L-20.1891 -10.7793 L-18.5309 -10.3951 L-16.8727 -10.0108 L-15.2144 -9.6266 Z " />
<path stroke="rgb(200,255,200)" stroke-opacity="1" fill="rgb(200,255,200)" fill-opacity="1" id="tri_2_9_" d="M-9.48205 -4.31716 L-8.27809 -5.32703 L-7.07413 -6.33689 L-5.87017 -7.34676 L-4.66621 -8.35663 L-3.46225 -9.3665 L-3.19 -7.82037 L-2.91774 -6.27424 L-2.64548 -4.7281 L-2.37323 -3.18197 L-2.10097 -1.63584 L-3.57719 -2.17211 L-5.0534 -2.70837 L-6.52962 -3.24463 L-8.00583 -3.7809 L-9.48205 -4.31716 Z " />
<path stroke="rgb(200,255,200)" stroke-opacity="1" fill="rgb(200,255,200)" fill-opacity="1" id="tri_1_8_" d="M-5.34517 -9.3434 L-6.53125 -8.2102 L-7.71733 -7.077 L-8.90342 -5.94381 L-10.0895 -4.81061 L-11.2756 -3.67741 L-11.6633 -5.26979 L-12.051 -6.86218 L-12.4386 -8.45457 L-12.8263 -10.047 L-13.214 -11.6393 L-11.6402 -11.1802 L-10.0665 -10.721 L-8.49271 -10.2618 L-6.91894 -9.80259 L-5.34517 -9.3434 Z " />
<path stroke="rgb(200,255,200)" stroke-opacity="1" fill="rgb(200,255,200)" fill-opacity="1" id="tri_3_9_" d="M0.642277 -4.6554 L1.85625 -5.53073 L3.07022 -6.40605 L4.28419 -7.28138 L5.49816 -8.15671 L6.71213 -9.03204 L6.86267 -7.54429 L7.01321 -6.05655 L7.16375 -4.5688 L7.31428 -3.08106 L7.46482 -1.59331 L6.10031 -2.20573 L4.7358 -2.81815 L3.37129 -3.43056 L2.00679 -4.04298 L0.642277 -4.6554 Z " />
<path stroke="rgb(200,255,200)" stroke-opacity="1" fill="rgb(200,255,200)" fill-opacity="1" id="tri_2_8_" d="M4.49555 -9.03946 L3.29174 -8.02954 L2.08793 -7.01962 L0.88412 -6.0097 L-0.319691 -4.99978 L-1.5235 -3.98986 L-1.79576 -5.53599 L-2.06801 -7.08212 L-2.34027 -8.62825 L-2.61253 -10.1744 L-2.88479 -11.7205 L-1.40872 -11.1843 L0.0673494 -10.6481 L1.54342 -10.1119 L3.01949 -9.57567 L4.49555 -9.03946 Z " />
<path stroke="rgb(200,255,200)" stroke-opacity="1" fill="rgb(200,255,200)" fill-opacity="1" id="tri_4_9_" d="M10.8053 -5.00514 L12.0192 -5.73454 L13.2331 -6.46394 L14.447 -7.19333 L15.6609 -7.92273 L16.8747 -8.65213 L16.8997 -7.23755 L16.9247 -5.82297 L16.9496 -4.40839 L16.9746 -2.9938 L16.9995 -1.57922 L15.7607 -2.26441 L14.5219 -2.94959 L13.283 -3.63477 L12.0442 -4.31996 L10.8053 -5.00514 Z " />
<path stroke="rgb(200,255,200)" stroke-opacity="1" fill="rgb(200,255,200)" fill-opacity="1" id="tri_3_8_" d="M14.304 -8.71737 L13.0897 -7.84237 L11.8754 -6.96736 L10.6611 -6.09235 L9.44673 -5.21734 L8.23241 -4.34233 L8.08187 -5.83008 L7.93134 -7.31782 L7.7808 -8.80557 L7.63026 -10.2933 L7.47972 -11.7811 L8.84458 -11.1683 L10.2094 -10.5556 L11.5743 -9.94285 L12.9392 -9.33011 L14.304 -8.71737 Z " />
<path stroke="rgb(200,255,200)" stroke-opacity="1" fill="rgb(200,255,200)" fill-opacity="1" id="tri_5_8_" d="M20.9938 -5.32845 L22.195 -5.91618 L23.3962 -6.5039 L24.5974 -7.09163 L25.7986 -7.67935 L26.9998 -8.26707 L26.908 -6.93426 L26.8163 -5.60144 L26.7245 -4.26862 L26.6328 -2.93581 L26.541 -1.60299 L25.4316 -2.34808 L24.3222 -3.09317 L23.2127 -3.83827 L22.1033 -4.58336 L20.9938 -5.32845 Z " />
<path stroke="rgb(200,255,200)" stroke-opacity="1" fill="rgb(200,255,200)" fill-opacity="1" id="tri_4_8_" d="M24.073 -8.38512 L22.8593 -7.65558 L21.6457 -6.92605 L20.4321 -6.19651 L19.2184 -5.46697 L18.0048 -4.73744 L17.9798 -6.15202 L17.9549 -7.5666 L17.9299 -8.98118 L17.9049 -10.3958 L17.88 -11.8103 L19.1186 -11.1253 L20.3572 -10.4403 L21.5958 -9.75521 L22.8344 -9.07016 L24.073 -8.38512 Z " />
<path stroke="rgb(200,255,200)" stroke-opacity="1" fill="rgb(200,255,200)" fill-opacity="1" id="tri_0_8_" d="M-34.6123 4.94033 L-33.4487 3.69602 L-32.2851 2.45171 L-31.1215 1.2074 L-29.9579 -0.0369058 L-28.7942 -1.28121 L-28.2991 0.346735 L-27.8041 1.97468 L-27.309 3.60263 L-26.8139 5.23058 L-26.3188 6.85852 L-27.9775 6.47488 L-29.6362 6.09124 L-31.2949 5.7076 L-32.9536 5.32396 L-34.6123 4.94033 Z " />
<path stroke="rgb(200,255,200)" stroke-opacity="1" fill="rgb(200,255,200)" fill-opacity="1" id="tri_1_7_" d="M-24.5486 4.64008 L-23.3623 3.50729 L-22.176 2.3745 L-20.9897 1.24171 L-19.8034 0.10892 L-18.6171 -1.02387 L-18.2298 0.56822 L-17.8426 2.16031 L-17.4553 3.7524 L-17.0681 5.34449 L-16.6808 6.93658 L-18.2544 6.47728 L-19.8279 6.01798 L-21.4015 5.55868 L-22.9751 5.09938 L-24.5486 4.64008 Z " />
<path stroke="rgb(200,255,200)" stroke-opacity="1" fill="rgb(200,255,200)" fill-opacity="1" id="tri_0_7_" d="M-20.1894 -0.989198 L-21.3527 0.254649 L-22.5161 1.4985 L-23.6794 2.74234 L-24.8428 3.98619 L-26.0061 5.23004 L-26.5012 3.60209 L-26.9963 1.97414 L-27.4914 0.346195 L-27.9865 -1.28175 L-28.4816 -2.9097 L-26.8231 -2.5256 L-25.1647 -2.1415 L-23.5063 -1.7574 L-21.8478 -1.3733 L-20.1894 -0.989198 Z " />
<path stroke="rgb(200,255,200)" stroke-opacity="1" fill="rgb(200,255,200)" fill-opacity="1" id="tri_2_7_" d="M-14.4593 4.31891 L-13.2549 3.3092 L-12.0505 2.2995 L-10.8461 1.28979 L-9.64171 0.28009 L-8.43731 -0.729614 L-8.1654 0.816557 L-7.8935 2.36273 L-7.62159 3.9089 L-7.34968 5.45507 L-7.07777 7.00124 L-8.55408 6.46477 L-10.0304 5.92831 L-11.5067 5.39184 L-12.983 4.85537 L-14.4593 4.31891 Z " />
<path stroke="rgb(200,255,200)" stroke-opacity="1" fill="rgb(200,255,200)" fill-opacity="1" id="tri_1_6_" d="M-10.32 -0.706791 L-11.5065 0.426268 L-12.6931 1.55933 L-13.8796 2.69239 L-15.0662 3.82545 L-16.2528 4.95851 L-16.64 3.36642 L-17.0273 1.77433 L-17.4145 0.182235 L-17.8018 -1.40986 L-18.1891 -3.00195 L-16.6152 -2.54291 L-15.0414 -2.08388 L-13.4676 -1.62485 L-11.8938 -1.16582 L-10.32 -0.706791 Z " />
<path stroke="rgb(200,255,200)" stroke-opacity="1" fill="rgb(200,255,200)" fill-opacity="1" id="tri_3_7_" d="M-4.33411 3.98145 L-3.11966 3.10617 L-1.90522 2.23089 L-0.690776 1.3556 L0.523668 0.480323 L1.73811 -0.394958 L1.88831 1.0928 L2.03851 2.58056 L2.18872 4.06832 L2.33892 5.55608 L2.48912 7.04384 L1.12447 6.43136 L-0.240171 5.81888 L-1.60482 5.20641 L-2.96946 4.59393 L-4.33411 3.98145 Z " />
<path stroke="rgb(200,255,200)" stroke-opacity="1" fill="rgb(200,255,200)" fill-opacity="1" id="tri_2_6_" d="M-0.478372 -0.402722 L-1.68268 0.607185 L-2.88699 1.61709 L-4.0913 2.627 L-5.29561 3.63691 L-6.49992 4.64682 L-6.77182 3.10064 L-7.04373 1.55447 L-7.31564 0.00830536 L-7.58754 -1.53786 L-7.85945 -3.08404 L-6.38323 -2.54777 L-4.90702 -2.01151 L-3.4308 -1.47525 L-1.95459 -0.938984 L-0.478372 -0.402722 Z " />
<path stroke="rgb(200,255,200)" stroke-opacity="1" fill="rgb(200,255,200)" fill-opacity="1" id="tri_4_7_" d="M5.82897 3.63193 L7.04287 2.90222 L8.25676 2.1725 L9.47066 1.44278 L10.6846 0.713069 L11.8985 -0.0166451 L11.9234 1.39793 L11.9484 2.81251 L11.9733 4.22709 L11.9983 5.64167 L12.0233 7.05625 L10.7844 6.37139 L9.54554 5.68652 L8.30668 5.00166 L7.06783 4.3168 L5.82897 3.63193 Z " />
<path stroke="rgb(200,255,200)" stroke-opacity="1" fill="rgb(200,255,200)" fill-opacity="1" id="tri_3_6_" d="M9.32801 -0.0821309 L8.11371 0.793212 L6.8994 1.66856 L5.68509 2.5439 L4.47079 3.41924 L3.25648 4.29459 L3.10628 2.80682 L2.95607 1.31907 L2.80587 -0.168694 L2.65567 -1.65645 L2.50547 -3.14421 L3.86998 -2.5318 L5.23449 -1.91938 L6.599 -1.30696 L7.9635 -0.694547 L9.32801 -0.0821309 Z " />
<path stroke="rgb(200,255,200)" stroke-opacity="1" fill="rgb(200,255,200)" fill-opacity="1" id="tri_5_7_" d="M16.018 3.30707 L17.2195 2.7195 L18.4209 2.13193 L19.6223 1.54435 L20.8237 0.956782 L22.0251 0.369208 L21.9329 1.70239 L21.8408 3.03558 L21.7486 4.36877 L21.6565 5.70195 L21.5643 7.03514 L20.455 6.28953 L19.3458 5.54391 L18.2365 4.7983 L17.1273 4.05269 L16.018 3.30707 Z " />
<path stroke="rgb(200,255,200)" stroke-opacity="1" fill="rgb(200,255,200)" fill-opacity="1" id="tri_4_6_" d="M19.0978 0.250643 L17.8839 0.98004 L16.67 1.70944 L15.4562 2.43883 L14.2423 3.16823 L13.0284 3.89763 L13.0034 2.48305 L12.9785 1.06847 L12.9535 -0.346113 L12.9285 -1.76069 L12.9036 -3.17527 L14.1424 -2.49009 L15.3813 -1.80491 L16.6201 -1.11972 L17.859 -0.43454 L19.0978 0.250643 Z " />
<path stroke="rgb(200,255,200)" stroke-opacity="1" fill="rgb(200,255,200)" fill-opacity="1" id="tri_6_6_" d="M26.1892 3.05115 L27.3706 2.58123 L28.552 2.11132 L29.7334 1.64141 L30.9148 1.1715 L32.0962 0.701587 L31.9126 1.95806 L31.7289 3.21454 L31.5453 4.47102 L31.3616 5.7275 L31.178 6.98398 L30.1802 6.19741 L29.1825 5.41085 L28.1847 4.62428 L27.1869 3.83771 L26.1892 3.05115 Z " />
<path stroke="rgb(200,255,200)" stroke-opacity="1" fill="rgb(200,255,200)" fill-opacity="1" id="tri_5_6_" d="M28.8423 0.557948 L27.6407 1.14604 L26.4391 1.73414 L25.2375 2.32223 L24.0359 2.91032 L22.8343 3.49842 L22.9265 2.16523 L23.0187 0.832045 L23.1108 -0.501142 L23.203 -1.83433 L23.2952 -3.16751 L24.4046 -2.42242 L25.514 -1.67733 L26.6235 -0.932236 L27.7329 -0.187143 L28.8423 0.557948 Z " />
<path stroke="rgb(200,255,200)" stroke-opacity="1" fill="rgb(200,255,200)" fill-opacity="1" id="tri_0_6_" d="M-39.5871 13.5778 L-38.424 12.3334 L-37.2608 11.089 L-36.0977 9.84455 L-34.9346 8.60013 L-33.7715 7.35571 L-33.2757 8.98398 L-32.78 10.6122 L-32.2843 12.2405 L-31.7886 13.8688 L-31.2929 15.4971 L-32.9517 15.1132 L-34.6105 14.7294 L-36.2694 14.3455 L-37.9282 13.9617 L-39.5871 13.5778 Z " />
<path stroke="rgb(200,255,200)" stroke-opacity="1" fill="rgb(200,255,200)" fill-opacity="1" id="tri_1_5_" d="M-29.523 13.2784 L-28.337 12.1449 L-27.151 11.0113 L-25.965 9.87776 L-24.7789 8.7442 L-23.5929 7.61064 L-23.2056 9.20325 L-22.8184 10.7959 L-22.4311 12.3885 L-22.0438 13.9811 L-21.6565 15.5737 L-23.2298 15.1146 L-24.8031 14.6556 L-26.3764 14.1965 L-27.9497 13.7375 L-29.523 13.2784 Z " />
<path stroke="rgb(200,255,200)" stroke-opacity="1" fill="rgb(200,255,200)" fill-opacity="1" id="tri_0_5_" d="M-25.1656 7.64537 L-26.3286 8.89 L-27.4915 10.1346 L-28.6545 11.3793 L-29.8175 12.6239 L-30.9805 13.8685 L-31.4763 12.2403 L-31.972 10.612 L-32.4677 8.98371 L-32.9634 7.35544 L-33.4591 5.72718 L-31.8004 6.11081 L-30.1417 6.49445 L-28.483 6.87809 L-26.8243 7.26173 L-25.1656 7.64537 Z " />
<path stroke="rgb(200,255,200)" stroke-opacity="1" fill="rgb(200,255,200)" fill-opacity="1" id="tri_2_5_" d="M-19.4356 12.956 L-18.2314 11.946 L-17.0273 10.9361 L-15.8231 9.92611 L-14.6189 8.91615 L-13.4148 7.90619 L-13.1424 9.45203 L-12.8701 10.9979 L-12.5977 12.5437 L-12.3253 14.0895 L-12.053 15.6354 L-13.5295 15.0995 L-15.006 14.5636 L-16.4825 14.0277 L-17.9591 13.4919 L-19.4356 12.956 Z " />
<path stroke="rgb(200,255,200)" stroke-opacity="1" fill="rgb(200,255,200)" fill-opacity="1" id="tri_1_4_" d="M-15.2975 7.92925 L-16.4838 9.06256 L-17.6701 10.1959 L-18.8564 11.3292 L-20.0427 12.4625 L-21.229 13.5958 L-21.6162 12.0032 L-22.0035 10.4106 L-22.3908 8.81797 L-22.7781 7.22536 L-23.1654 5.63275 L-21.5918 6.09205 L-20.0182 6.55135 L-18.4447 7.01065 L-16.8711 7.46995 L-15.2975 7.92925 Z " />
<path stroke="rgb(200,255,200)" stroke-opacity="1" fill="rgb(200,255,200)" fill-opacity="1" id="tri_3_5_" d="M-9.30892 12.6155 L-8.09486 11.7407 L-6.8808 10.8659 L-5.66674 9.99109 L-4.45268 9.11629 L-3.23862 8.24149 L-3.08801 9.72944 L-2.93739 11.2174 L-2.78678 12.7053 L-2.63617 14.1933 L-2.48556 15.6812 L-3.85023 15.0681 L-5.2149 14.4549 L-6.57957 13.8418 L-7.94425 13.2286 L-9.30892 12.6155 Z " />
<path stroke="rgb(200,255,200)" stroke-opacity="1" fill="rgb(200,255,200)" fill-opacity="1" id="tri_2_4_" d="M-5.45548 8.2342 L-6.65942 9.24357 L-7.86337 10.2529 L-9.06731 11.2623 L-10.2713 12.2717 L-11.4752 13.2811 L-11.7476 11.7352 L-12.0199 10.1894 L-12.2923 8.64354 L-12.5647 7.09771 L-12.837 5.55187 L-11.3607 6.08834 L-9.8844 6.6248 L-8.40809 7.16127 L-6.93179 7.69773 L-5.45548 8.2342 Z " />
<path stroke="rgb(200,255,200)" stroke-opacity="1" fill="rgb(200,255,200)" fill-opacity="1" id="tri_4_5_" d="M0.854798 12.2699 L2.06845 11.5401 L3.2821 10.8102 L4.49575 10.0804 L5.7094 9.3505 L6.92305 8.62065 L6.94781 10.0353 L6.97258 11.4499 L6.99735 12.8646 L7.02211 14.2792 L7.04688 15.6938 L5.80846 15.009 L4.57005 14.3243 L3.33163 13.6395 L2.09322 12.9547 L0.854798 12.2699 Z " />
<path stroke="rgb(200,255,200)" stroke-opacity="1" fill="rgb(200,255,200)" fill-opacity="1" id="tri_3_4_" d="M4.35243 8.5551 L3.1384 9.43057 L1.92436 10.306 L0.710327 11.1815 L-0.503707 12.057 L-1.71774 12.9324 L-1.86835 11.4445 L-2.01896 9.95655 L-2.16957 8.4686 L-2.32019 6.98066 L-2.4708 5.49271 L-1.10615 6.10519 L0.258493 6.71767 L1.62314 7.33015 L2.98778 7.94263 L4.35243 8.5551 Z " />
<path stroke="rgb(200,255,200)" stroke-opacity="1" fill="rgb(200,255,200)" fill-opacity="1" id="tri_5_5_" d="M11.0409 11.9443 L12.2426 11.3564 L13.4442 10.7685 L14.6458 10.1806 L15.8475 9.5927 L17.0491 9.0048 L16.9572 10.3381 L16.8652 11.6715 L16.7733 13.0048 L16.6814 14.3381 L16.5894 15.6715 L15.4797 14.926 L14.37 14.1806 L13.2603 13.4352 L12.1506 12.6898 L11.0409 11.9443 Z " />
<path stroke="rgb(200,255,200)" stroke-opacity="1" fill="rgb(200,255,200)" fill-opacity="1" id="tri_4_4_" d="M14.1218 8.88645 L12.9077 9.61622 L11.6936 10.346 L10.4795 11.0758 L9.26541 11.8055 L8.05132 12.5353 L8.02656 11.1207 L8.00179 9.70603 L7.97702 8.2914 L7.95226 6.87676 L7.92749 5.46213 L9.16635 6.14699 L10.4052 6.83186 L11.6441 7.51672 L12.8829 8.20158 L14.1218 8.88645 Z " />
<path stroke="rgb(200,255,200)" stroke-opacity="1" fill="rgb(200,255,200)" fill-opacity="1" id="tri_6_5_" d="M21.2151 11.6875 L22.3961 11.2179 L23.5771 10.7484 L24.7581 10.2788 L25.9391 9.80917 L27.1201 9.33958 L26.9367 10.5959 L26.7533 11.8523 L26.5699 13.1087 L26.3865 14.365 L26.2031 15.6214 L25.2055 14.8346 L24.2079 14.0478 L23.2103 13.2611 L22.2127 12.4743 L21.2151 11.6875 Z " />
<path stroke="rgb(200,255,200)" stroke-opacity="1" fill="rgb(200,255,200)" fill-opacity="1" id="tri_5_4_" d="M23.8657 9.19616 L22.6645 9.78389 L21.4633 10.3716 L20.2622 10.9593 L19.061 11.5471 L17.8598 12.1348 L17.9517 10.8014 L18.0437 9.46811 L18.1356 8.13477 L18.2275 6.80143 L18.3195 5.4681 L19.4287 6.21371 L20.538 6.95933 L21.6472 7.70494 L22.7565 8.45055 L23.8657 9.19616 Z " />
<path stroke="rgb(200,255,200)" stroke-opacity="1" fill="rgb(200,255,200)" fill-opacity="1" id="tri_7_4_" d="M31.3706 11.4809 L32.5276 11.109 L33.6846 10.7372 L34.8416 10.3653 L35.9986 9.99346 L37.1557 9.6216 L36.8988 10.8081 L36.642 11.9946 L36.3851 13.1812 L36.1283 14.3677 L35.8715 15.5542 L34.9713 14.7396 L34.0711 13.9249 L33.1709 13.1102 L32.2708 12.2956 L31.3706 11.4809 Z " />
<path stroke="rgb(200,255,200)" stroke-opacity="1" fill="rgb(200,255,200)" fill-opacity="1" id="tri_6_4_" d="M33.627 9.43521 L32.4458 9.905 L31.2647 10.3748 L30.0835 10.8446 L28.9023 11.3144 L27.7212 11.7842 L27.9046 10.5278 L28.088 9.27145 L28.2714 8.01509 L28.4548 6.75873 L28.6382 5.50237 L29.6359 6.28894 L30.6337 7.07551 L31.6314 7.86208 L32.6292 8.64864 L33.627 9.43521 Z " />
<path stroke="rgb(200,255,200)" stroke-opacity="1" fill="rgb(200,255,200)" fill-opacity="1" id="tri_0_4_" d="M-44.5638 22.215 L-43.4004 20.9706 L-42.2369 19.7263 L-41.0735 18.4819 L-39.91 17.2376 L-38.7466 15.9933 L-38.2513 17.6211 L-37.756 19.2489 L-37.2607 20.8767 L-36.7654 22.5045 L-36.27 24.1323 L-37.9288 23.7489 L-39.5876 23.3654 L-41.2463 22.9819 L-42.9051 22.5985 L-44.5638 22.215 Z " />
<path stroke="rgb(200,255,200)" stroke-opacity="1" fill="rgb(200,255,200)" fill-opacity="1" id="tri_1_3_" d="M-34.5001 21.9135 L-33.3136 20.7806 L-32.1271 19.6477 L-30.9405 18.5148 L-29.754 17.3819 L-28.5675 16.249 L-28.1804 17.8411 L-27.7933 19.4331 L-27.4062 21.0252 L-27.0191 22.6172 L-26.632 24.2092 L-28.2056 23.7501 L-29.7792 23.291 L-31.3528 22.8318 L-32.9265 22.3727 L-34.5001 21.9135 Z " />
<path stroke="rgb(200,255,200)" stroke-opacity="1" fill="rgb(200,255,200)" fill-opacity="1" id="tri_0_3_" d="M-30.1397 16.2838 L-31.3033 17.5278 L-32.4668 18.7717 L-33.6304 20.0157 L-34.7939 21.2597 L-35.9575 22.5037 L-36.4528 20.8758 L-36.9481 19.248 L-37.4434 17.6202 L-37.9387 15.9924 L-38.434 14.3646 L-36.7751 14.7484 L-35.1163 15.1323 L-33.4574 15.5161 L-31.7986 15.8999 L-30.1397 16.2838 Z " />
<path stroke="rgb(200,255,200)" stroke-opacity="1" fill="rgb(200,255,200)" fill-opacity="1" id="tri_2_3_" d="M-24.4108 21.5918 L-23.2067 20.5821 L-22.0027 19.5725 L-20.7986 18.5628 L-19.5946 17.5532 L-18.3905 16.5435 L-18.1182 18.0896 L-17.846 19.6357 L-17.5737 21.1819 L-17.3015 22.728 L-17.0292 24.2741 L-18.5055 23.7377 L-19.9818 23.2012 L-21.4581 22.6647 L-22.9345 22.1283 L-24.4108 21.5918 Z " />
<path stroke="rgb(200,255,200)" stroke-opacity="1" fill="rgb(200,255,200)" fill-opacity="1" id="tri_1_2_" d="M-20.2732 16.5664 L-21.4594 17.6994 L-22.6455 18.8324 L-23.8317 19.9653 L-25.0179 21.0983 L-26.2041 22.2313 L-26.5912 20.6393 L-26.9783 19.0473 L-27.3654 17.4552 L-27.7525 15.8632 L-28.1396 14.2711 L-26.5663 14.7302 L-24.993 15.1892 L-23.4198 15.6483 L-21.8465 16.1073 L-20.2732 16.5664 Z " />
<path stroke="rgb(200,255,200)" stroke-opacity="1" fill="rgb(200,255,200)" fill-opacity="1" id="tri_3_3_" d="M-14.2856 21.2542 L-13.0711 20.3786 L-11.8567 19.503 L-10.6423 18.6274 L-9.42785 17.7517 L-8.21342 16.8761 L-8.06333 18.3645 L-7.91323 19.8529 L-7.76314 21.3412 L-7.61305 22.8296 L-7.46296 24.318 L-8.82748 23.7052 L-10.192 23.0925 L-11.5565 22.4797 L-12.921 21.867 L-14.2856 21.2542 Z " />
<path stroke="rgb(200,255,200)" stroke-opacity="1" fill="rgb(200,255,200)" fill-opacity="1" id="tri_2_2_" d="M-10.4303 16.8683 L-11.6346 17.8786 L-12.8389 18.8889 L-14.0431 19.8991 L-15.2474 20.9094 L-16.4517 21.9196 L-16.7239 20.3735 L-16.9962 18.8274 L-17.2684 17.2812 L-17.5407 15.7351 L-17.8129 14.189 L-16.3364 14.7248 L-14.8599 15.2607 L-13.3834 15.7966 L-11.9068 16.3325 L-10.4303 16.8683 Z " />
<path stroke="rgb(200,255,200)" stroke-opacity="1" fill="rgb(200,255,200)" fill-opacity="1" id="tri_4_3_" d="M-4.12237 20.9061 L-2.90823 20.1766 L-1.69408 19.447 L-0.47994 18.7174 L0.734205 17.9878 L1.94835 17.2582 L1.9732 18.6724 L1.99805 20.0866 L2.0229 21.5008 L2.04775 22.915 L2.0726 24.3292 L0.833602 23.6446 L-0.405392 22.96 L-1.64439 22.2754 L-2.88338 21.5907 L-4.12237 20.9061 Z " />
<path stroke="rgb(200,255,200)" stroke-opacity="1" fill="rgb(200,255,200)" fill-opacity="1" id="tri_3_2_" d="M-0.622234 17.1926 L-1.83681 18.0678 L-3.05139 18.9431 L-4.26597 19.8183 L-5.48055 20.6935 L-6.69513 21.5687 L-6.84523 20.0803 L-6.99532 18.592 L-7.14541 17.1036 L-7.2955 15.6152 L-7.44559 14.1269 L-6.08092 14.74 L-4.71625 15.3532 L-3.35158 15.9663 L-1.98691 16.5795 L-0.622234 17.1926 Z " />
<path stroke="rgb(200,255,200)" stroke-opacity="1" fill="rgb(200,255,200)" fill-opacity="1" id="tri_5_3_" d="M6.06614 20.5799 L7.26726 19.9923 L8.46837 19.4047 L9.66949 18.8171 L10.8706 18.2295 L12.0717 17.6419 L11.9799 18.9748 L11.8881 20.3077 L11.7962 21.6407 L11.7044 22.9736 L11.6126 24.3065 L10.5033 23.5612 L9.39401 22.8159 L8.28472 22.0706 L7.17543 21.3253 L6.06614 20.5799 Z " />
<path stroke="rgb(200,255,200)" stroke-opacity="1" fill="rgb(200,255,200)" fill-opacity="1" id="tri_4_2_" d="M9.14515 17.5236 L7.93158 18.2531 L6.71801 18.9825 L5.50445 19.7119 L4.29088 20.4413 L3.07731 21.1707 L3.05246 19.7565 L3.02761 18.3423 L3.00277 16.9281 L2.97792 15.5139 L2.95307 14.0997 L4.19148 14.7845 L5.4299 15.4693 L6.66831 16.1541 L7.90673 16.8389 L9.14515 17.5236 Z " />
<path stroke="rgb(200,255,200)" stroke-opacity="1" fill="rgb(200,255,200)" fill-opacity="1" id="tri_6_3_" d="M16.238 20.3226 L17.4193 19.8533 L18.6006 19.3839 L19.7819 18.9146 L20.9632 18.4452 L22.1445 17.9759 L21.9607 19.2321 L21.7769 20.4883 L21.5931 21.7445 L21.4094 23.0008 L21.2256 24.257 L20.2281 23.4701 L19.2306 22.6832 L18.233 21.8964 L17.2355 21.1095 L16.238 20.3226 Z " />
<path stroke="rgb(200,255,200)" stroke-opacity="1" fill="rgb(200,255,200)" fill-opacity="1" id="tri_5_2_" d="M18.8907 17.8325 L17.6892 18.42 L16.4877 19.0075 L15.2861 19.595 L14.0846 20.1825 L12.8831 20.77 L12.9749 19.4371 L13.0667 18.1041 L13.1586 16.7712 L13.2504 15.4383 L13.3422 14.1053 L14.4519 14.8508 L15.5616 15.5962 L16.6713 16.3416 L17.781 17.0871 L18.8907 17.8325 Z " />
<path stroke="rgb(200,255,200)" stroke-opacity="1" fill="rgb(200,255,200)" fill-opacity="1" id="tri_7_3_" d="M26.3938 20.1166 L27.551 19.7451 L28.7082 19.3735 L29.8654 19.002 L31.0226 18.6305 L32.1798 18.259 L31.923 19.4452 L31.6662 20.6315 L31.4095 21.8177 L31.1527 23.004 L30.8959 24.1903 L29.9955 23.3755 L29.0951 22.5608 L28.1946 21.7461 L27.2942 20.9313 L26.3938 20.1166 Z " />
<path stroke="rgb(200,255,200)" stroke-opacity="1" fill="rgb(200,255,200)" fill-opacity="1" id="tri_6_2_" d="M28.6514 18.0724 L27.4701 18.5419 L26.2887 19.0113 L25.1073 19.4808 L23.9259 19.9502 L22.7446 20.4197 L22.9283 19.1635 L23.1121 17.9073 L23.2959 16.651 L23.4797 15.3948 L23.6635 14.1386 L24.661 14.9254 L25.6586 15.7121 L26.6562 16.4989 L27.6538 17.2857 L28.6514 18.0724 Z " />
<path stroke="rgb(200,255,200)" stroke-opacity="1" fill="rgb(200,255,200)" fill-opacity="1" id="tri_8_2_" d="M36.5262 19.9541 L37.6579 19.6625 L38.7895 19.371 L39.9212 19.0795 L41.0529 18.788 L42.1846 18.4964 L41.8715 19.6213 L41.5585 20.7462 L41.2454 21.8711 L40.9323 22.996 L40.6193 24.121 L39.8006 23.2876 L38.982 22.4542 L38.1634 21.6208 L37.3448 20.7874 L36.5262 19.9541 Z " />
<path stroke="rgb(200,255,200)" stroke-opacity="1" fill="rgb(200,255,200)" fill-opacity="1" id="tri_7_2_" d="M38.4256 18.2596 L37.2686 18.6312 L36.1117 19.0028 L34.9548 19.3744 L33.7978 19.746 L32.6409 20.1176 L32.8977 18.9314 L33.1544 17.7451 L33.4112 16.5589 L33.668 15.3726 L33.9247 14.1863 L34.8249 15.001 L35.7251 15.8157 L36.6252 16.6303 L37.5254 17.445 L38.4256 18.2596 Z " />
<path stroke="rgb(200,255,200)" stroke-opacity="1" fill="rgb(200,255,200)" fill-opacity="1" id="tri_0_2_" d="M-49.5384 30.8506 L-48.3753 29.6066 L-47.2123 28.3625 L-46.0492 27.1184 L-44.8862 25.8743 L-43.7232 24.6302 L-43.2275 26.2581 L-42.7319 27.886 L-42.2363 29.5139 L-41.7406 31.1418 L-41.245 32.7697 L-42.9037 32.3859 L-44.5623 32.0021 L-46.221 31.6183 L-47.8797 31.2345 L-49.5384 30.8506 Z " />
<path stroke="rgb(200,255,200)" stroke-opacity="1" fill="rgb(200,255,200)" fill-opacity="1" id="tri_1_1_" d="M-39.4751 30.5507 L-38.289 29.4173 L-37.1029 28.284 L-35.9167 27.1506 L-34.7306 26.0172 L-33.5445 24.8839 L-33.1566 26.4762 L-32.7687 28.0684 L-32.3808 29.6607 L-31.9929 31.253 L-31.605 32.8453 L-33.179 32.3864 L-34.753 31.9274 L-36.3271 31.4685 L-37.9011 31.0096 L-39.4751 30.5507 Z " />
<path stroke="rgb(200,255,200)" stroke-opacity="1" fill="rgb(200,255,200)" fill-opacity="1" id="tri_0_1_" d="M-35.117 24.9191 L-36.2801 26.1635 L-37.4432 27.4079 L-38.6063 28.6524 L-39.7695 29.8968 L-40.9326 31.1412 L-41.4282 29.5133 L-41.9239 27.8854 L-42.4195 26.2575 L-42.9151 24.6296 L-43.4108 23.0017 L-41.752 23.3852 L-40.0932 23.7687 L-38.4345 24.1521 L-36.7757 24.5356 L-35.117 24.9191 Z " />
<path stroke="rgb(200,255,200)" stroke-opacity="1" fill="rgb(200,255,200)" fill-opacity="1" id="tri_2_1_" d="M-29.3835 30.2277 L-28.1799 29.2179 L-26.9763 28.2081 L-25.7727 27.1982 L-24.5691 26.1884 L-23.3655 25.1786 L-23.0931 26.7253 L-22.8207 28.2719 L-22.5483 29.8186 L-22.2759 31.3653 L-22.0035 32.912 L-23.4795 32.3751 L-24.9555 31.8383 L-26.4315 31.3014 L-27.9075 30.7646 L-29.3835 30.2277 Z " />
<path stroke="rgb(200,255,200)" stroke-opacity="1" fill="rgb(200,255,200)" fill-opacity="1" id="tri_1" d="M-25.2488 25.2016 L-26.4345 26.3348 L-27.6202 27.4679 L-28.8059 28.601 L-29.9917 29.7342 L-31.1774 30.8673 L-31.5653 29.275 L-31.9532 27.6827 L-32.3411 26.0905 L-32.7289 24.4982 L-33.1168 22.9059 L-31.5432 23.3651 L-29.9696 23.8242 L-28.396 24.2833 L-26.8224 24.7425 L-25.2488 25.2016 Z " />
<path stroke="rgb(200,255,200)" stroke-opacity="1" fill="rgb(200,255,200)" fill-opacity="1" id="tri_3_1_" d="M-19.2597 29.8926 L-18.0456 29.017 L-16.8316 28.1414 L-15.6175 27.2658 L-14.4034 26.3902 L-13.1893 25.5146 L-13.0388 27.0025 L-12.8883 28.4904 L-12.7378 29.9783 L-12.5874 31.4661 L-12.4369 32.954 L-13.8015 32.3417 L-15.166 31.7295 L-16.5306 31.1172 L-17.8952 30.5049 L-19.2597 29.8926 Z " />
<path stroke="rgb(200,255,200)" stroke-opacity="1" fill="rgb(200,255,200)" fill-opacity="1" id="tri_2" d="M-15.4063 25.5071 L-16.6102 26.5173 L-17.8141 27.5275 L-19.018 28.5377 L-20.2219 29.548 L-21.4259 30.5582 L-21.6982 29.0115 L-21.9706 27.4648 L-22.243 25.9181 L-22.5154 24.3714 L-22.7878 22.8248 L-21.3115 23.3612 L-19.8352 23.8977 L-18.3589 24.4342 L-16.8826 24.9706 L-15.4063 25.5071 Z " />
<path stroke="rgb(200,255,200)" stroke-opacity="1" fill="rgb(200,255,200)" fill-opacity="1" id="tri_4_1_" d="M-9.09722 29.5425 L-7.88359 28.8129 L-6.66995 28.0834 L-5.45631 27.3539 L-4.24268 26.6243 L-3.02904 25.8948 L-3.00407 27.3091 L-2.97909 28.7233 L-2.95412 30.1376 L-2.92915 31.5518 L-2.90417 32.9661 L-4.14278 32.2814 L-5.38139 31.5967 L-6.62 30.9119 L-7.85861 30.2272 L-9.09722 29.5425 Z " />
<path stroke="rgb(200,255,200)" stroke-opacity="1" fill="rgb(200,255,200)" fill-opacity="1" id="tri_3" d="M-5.59942 25.8295 L-6.81347 26.7046 L-8.02751 27.5797 L-9.24156 28.4549 L-10.4556 29.33 L-11.6697 30.2051 L-11.8201 28.7172 L-11.9706 27.2294 L-12.1211 25.7415 L-12.2716 24.2536 L-12.422 22.7657 L-11.0575 23.3785 L-9.69299 23.9912 L-8.32846 24.604 L-6.96394 25.2167 L-5.59942 25.8295 Z " />
<path stroke="rgb(200,255,200)" stroke-opacity="1" fill="rgb(200,255,200)" fill-opacity="1" id="tri_5_1_" d="M1.08955 29.2162 L2.29111 28.6284 L3.49267 28.0407 L4.69423 27.4529 L5.8958 26.8651 L7.09736 26.2773 L7.00538 27.6104 L6.9134 28.9436 L6.82143 30.2767 L6.72945 31.6099 L6.63748 32.943 L5.52789 32.1977 L4.41831 31.4523 L3.30872 30.707 L2.19914 29.9616 L1.08955 29.2162 Z " />
<path stroke="rgb(200,255,200)" stroke-opacity="1" fill="rgb(200,255,200)" fill-opacity="1" id="tri_4" d="M4.17052 26.1592 L2.9565 26.8889 L1.74248 27.6185 L0.528454 28.3482 L-0.685568 29.0778 L-1.89959 29.8075 L-1.92456 28.3932 L-1.94954 26.9789 L-1.97451 25.5647 L-1.99948 24.1504 L-2.02446 22.7361 L-0.78546 23.4208 L0.453534 24.1054 L1.69253 24.79 L2.93152 25.4746 L4.17052 26.1592 Z " />
<path stroke="rgb(200,255,200)" stroke-opacity="1" fill="rgb(200,255,200)" fill-opacity="1" id="tri_6_1_" d="M11.2629 28.9591 L12.444 28.4894 L13.625 28.0197 L14.8061 27.55 L15.9872 27.0803 L17.1683 26.6106 L16.9848 27.8672 L16.8013 29.1239 L16.6179 30.3805 L16.4344 31.6372 L16.251 32.8938 L15.2533 32.1068 L14.2557 31.3199 L13.2581 30.533 L12.2605 29.746 L11.2629 28.9591 Z " />
<path stroke="rgb(200,255,200)" stroke-opacity="1" fill="rgb(200,255,200)" fill-opacity="1" id="tri_5" d="M13.9138 26.4671 L12.7126 27.055 L11.5113 27.6428 L10.3101 28.2306 L9.10879 28.8185 L7.90753 29.4063 L7.9995 28.0731 L8.09148 26.74 L8.18346 25.4068 L8.27543 24.0737 L8.36741 22.7405 L9.4767 23.4859 L10.586 24.2312 L11.6953 24.9765 L12.8046 25.7218 L13.9138 26.4671 Z " />
<path stroke="rgb(200,255,200)" stroke-opacity="1" fill="rgb(200,255,200)" fill-opacity="1" id="tri_7_1_" d="M21.4195 28.7539 L22.5763 28.3821 L23.7332 28.0102 L24.89 27.6383 L26.0468 27.2665 L27.2037 26.8946 L26.947 28.0813 L26.6904 29.268 L26.4337 30.4547 L26.177 31.6414 L25.9204 32.8281 L25.0202 32.0132 L24.12 31.1984 L23.2198 30.3836 L22.3197 29.5687 L21.4195 28.7539 Z " />
<path stroke="rgb(200,255,200)" stroke-opacity="1" fill="rgb(200,255,200)" fill-opacity="1" id="tri_6" d="M23.6742 26.7081 L22.4933 27.1779 L21.3123 27.6477 L20.1313 28.1174 L18.9504 28.5872 L17.7694 29.057 L17.9528 27.8003 L18.1363 26.5437 L18.3197 25.2871 L18.5032 24.0304 L18.6867 22.7738 L19.6842 23.5606 L20.6817 24.3475 L21.6792 25.1344 L22.6767 25.9212 L23.6742 26.7081 Z " />
<path stroke="rgb(200,255,200)" stroke-opacity="1" fill="rgb(200,255,200)" fill-opacity="1" id="tri_8_1_" d="M31.5507 28.5916 L32.6825 28.2997 L33.8144 28.0079 L34.9462 27.716 L36.0781 27.4242 L37.2099 27.1323 L36.8968 28.2574 L36.5838 29.3825 L36.2707 30.5075 L35.9576 31.6326 L35.6446 32.7577 L34.8258 31.9245 L34.007 31.0912 L33.1882 30.258 L32.3694 29.4248 L31.5507 28.5916 Z " />
<path stroke="rgb(200,255,200)" stroke-opacity="1" fill="rgb(200,255,200)" fill-opacity="1" id="tri_7" d="M33.4502 26.8958 L32.2931 27.2677 L31.136 27.6397 L29.979 28.0116 L28.8219 28.3836 L27.6648 28.7555 L27.9214 27.5689 L28.1781 26.3822 L28.4347 25.1955 L28.6914 24.0088 L28.9481 22.8221 L29.8485 23.6368 L30.7489 24.4516 L31.6494 25.2663 L32.5498 26.0811 L33.4502 26.8958 Z " />
<path stroke="rgb(200,255,200)" stroke-opacity="1" fill="rgb(200,255,200)" fill-opacity="1" id="tri_9" d="M41.6653 28.4617 L42.7721 28.236 L43.8789 28.0102 L44.9857 27.7845 L46.0925 27.5588 L47.1992 27.3331 L46.8416 28.4032 L46.484 29.4734 L46.1264 30.5436 L45.7688 31.6137 L45.4112 32.6839 L44.662 31.8395 L43.9128 30.995 L43.1637 30.1506 L42.4145 29.3061 L41.6653 28.4617 Z " />
<path stroke="rgb(200,255,200)" stroke-opacity="1" fill="rgb(200,255,200)" fill-opacity="1" id="tri_8" d="M43.2491 27.0417 L42.1175 27.3334 L40.9858 27.6251 L39.8541 27.9168 L38.7224 28.2085 L37.5907 28.5002 L37.9038 27.3751 L38.2169 26.25 L38.5299 25.125 L38.843 23.9999 L39.1561 22.8748 L39.9747 23.7082 L40.7933 24.5416 L41.6119 25.375 L42.4305 26.2083 L43.2491 27.0417 Z " />
</g>
</g>
</svg>
