<!DOCTYPE svg>
<svg xmlns="http://www.w3.org/2000/svg" xmlns:xlink="http://www.w3.org/1999/xlink" width="600" height="600">
<g transform="translate(300.000000,300.000000)">
<g transform="scale(3.000000,3.000000)">
<path stroke="rgb(0,0,0)" stroke-opacity="1" fill="rgb(255,255,255)" fill-opacity="1" id="Layer_1" d="M107.411 107.089 L105.406 107.092 L103.402 107.095 L101.397 107.098 L99.3922 107.101 L97.3875 107.104 L95.3828 107.107 L93.3782 107.11 L91.3735 107.113 L89.3688 107.116 L87.3641 107.119 L85.3595 107.122 L83.3548 107.125 L81.3501 107.128 L79.3455 107.131 L77.3408 107.134 L75.3361 107.137 L73.3314 107.14 L71.3268 107.143 L69.3221 107.146 L67.3174 107.149 L65.3127 107.152 L63.3081 107.155 L61.3034 107.158 L59.2987 107.161 L57.2941 107.164 L55.2894 107.167 L53.2847 107.17 L51.28 107.173 L49.2754 107.176 L47.2707 107.179 L45.266 107.182 L43.2613 107.185 L41.2567 107.188 L39.252 107.191 L37.2473 107.194 L35.2426 107.197 L33.238 107.2 L31.2333 107.203 L29.2286 107.206 L27.224 107.209 L25.2193 107.212 L23.2146 107.215 L21.2099 107.218 L19.2053 107.221 L17.2006 107.224 L15.1959 107.227 L13.1912 107.23 L11.1866 107.233 L9.1819 107.236 L7.17723 107.239 L5.17256 107.242 L3.16788 107.245 L1.16321 107.248 L-0.841463 107.252 L-2.84614 107.255 L-4.85081 107.258 L-6.85548 107.261 L-8.86015 107.264 L-10.8648 107.267 L-12.8695 107.27 L-14.8742 107.273 L-16.8788 107.276 L-18.8835 107.279 L-20.8882 107.282 L-22.8929 107.285 L-24.8975 107.288 L-26.9022 107.291 L-28.9069 107.294 L-30.9116 107.297 L-32.9162 107.3 L-34.9209 107.303 L-36.9256 107.306 L-38.9302 107.309 L-40.9349 107.312 L-42.9396 107.315 L-44.9443 107.318 L-46.9489 107.321 L-48.9536 107.324 L-50.9583 107.327 L-52.963 107.33 L-54.9676 107.333 L-56.9723 107.336 L-58.977 107.339 L-60.9816 107.342 L-62.9863 107.345 L-64.991 107.348 L-66.9957 107.351 L-69.0003 107.354 L-71.005 107.357 L-73.0097 107.36 L-75.0144 107.363 L-77.019 107.366 L-79.0237 107.369 L-81.0284 107.372 L-83.0331 107.375 L-85.0377 107.378 L-87.0424 107.381 L-89.0471 107.384 L-91.0517 107.387 L-93.0564 107.39 L-95.0611 107.393 L-97.0658 107.396 L-99.0704 107.399 L-101.075 107.402 L-103.08 107.405 L-105.084 107.408 L-107.089 107.411 L-107.092 105.406 L-107.095 103.402 L-107.098 101.397 L-107.101 99.3922 L-107.104 97.3875 L-107.107 95.3828 L-107.11 93.3782 L-107.113 91.3735 L-107.116 89.3688 L-107.119 87.3641 L-107.122 85.3595 L-107.125 83.3548 L-107.128 81.3501 L-107.131 79.3455 L-107.134 77.3408 L-107.137 75.3361 L-107.14 73.3314 L-107.143 71.3268 L-107.146 69.3221 L-107.149 67.3174 L-107.152 65.3127 L-107.155 63.3081 L-107.158 61.3034 L-107.161 59.2987 L-107.164 57.2941 L-107.167 55.2894 L-107.17 53.2847 L-107.173 51.28 L-107.176 49.2754 L-107.179 47.2707 L-107.182 45.266 L-107.185 43.2613 L-107.188 41.2567 L-107.191 39.252 L-107.194 37.2473 L-107.197 35.2426 L-107.2 33.238 L-107.203 31.2333 L-107.206 29.2286 L-107.209 27.224 L-107.212 25.2193 L-107.215 23.2146 L-107.218 21.2099 L-107.221 19.2053 L-107.224 17.2006 L-107.227 15.1959 L-107.23 13.1912 L-107.233 11.1866 L-107.236 9.1819 L-107.239 7.17722 L-107.242 5.17255 L-107.245 3.16788 L-107.248 1.1632 L-107.251 -0.841469 L-107.255 -2.84614 L-107.258 -4.85081 L-107.261 -6.85549 L-107.264 -8.86016 L-107.267 -10.8648 L-107.27 -12.8695 L-107.273 -14.8742 L-107.276 -16.8789 L-107.279 -18.8835 L-107.282 -20.8882 L-107.285 -22.8929 L-107.288 -24.8975 L-107.291 -26.9022 L-107.294 -28.9069 L-107.297 -30.9116 L-107.3 -32.9162 L-107.303 -34.9209 L-107.306 -36.9256 L-107.309 -38.9303 L-107.312 -40.9349 L-107.315 -42.9396 L-107.318 -44.9443 L-107.321 -46.9489 L-107.324 -48.9536 L-107.327 -50.9583 L-107.33 -52.963 L-107.333 -54.9676 L-107.336 -56.9723 L-107.339 -58.977 L-107.342 -60.9817 L-107.345 -62.9863 L-107.348 -64.991 L-107.351 -66.9957 L-107.354 -69.0003 L-107.357 -71.005 L-107.36 -73.0097 L-107.363 -75.0144 L-107.366 -77.019 L-107.369 -79.0237 L-107.372 -81.0284 L-107.375 -83.0331 L-107.378 -85.0377 L-107.381 -87.0424 L-107.384 -89.0471 L-107.387 -91.0518 L-107.39 -93.0564 L-107.393 -95.0611 L-107.396 -97.0658 L-107.399 -99.0704 L-107.402 -101.075 L-107.405 -103.08 L-107.408 -105.084 L-107.411 -107.089 L-105.406 -107.092 L-103.402 -107.095 L-101.397 -107.098 L-99.3922 -107.101 L-97.3875 -107.104 L-95.3828 -107.107 L-93.3782 -107.11 L-91.3735 -107.113 L-89.3688 -107.116 L-87.3641 -107.119 L-85.3595 -107.122 L-83.3548 -107.125 L-81.3501 -107.128 L-79.3455 -107.131 L-77.3408 -107.134 L-75.3361 -107.137 L-73.3314 -107.14 L-71.3268 -107.143 L-69.3221 -107.146 L-67.3174 -107.149 L-65.3127 -107.152 L-63.3081 -107.155 L-61.3034 -107.158 L-59.2987 -107.161 L-57.2941 -107.164 L-55.2894 -107.167 L-53.2847 -107.17 L-51.28 -107.173 L-49.2754 -107.176 L-47.2707 -107.179 L-45.266 -107.182 L-43.2613 -107.185 L-41.2567 -107.188 L-39.252 -107.191 L-37.2473 -107.194 L-35.2426 -107.197 L-33.238 -107.2 L-31.2333 -107.203 L-29.2286 -107.206 L-27.224 -107.209 L-25.2193 -107.212 L-23.2146 -107.215 L-21.2099 -107.218 L-19.2053 -107.221 L-17.2006 -107.224 L-15.1959 -107.227 L-13.1912 -107.23 L-11.1866 -107.233 L-9.1819 -107.236 L-7.17723 -107.239 L-5.17256 -107.242 L-3.16788 -107.245 L-1.16321 -107.248 L0.841463 -107.252 L2.84614 -107.255 L4.85081 -107.258 L6.85548 -107.261 L8.86015 -107.264 L10.8648 -107.267 L12.8695 -107.27 L14.8742 -107.273 L16.8788 -107.276 L18.8835 -107.279 L20.8882 -107.282 L22.8929 -107.285 L24.8975 -107.288 L26.9022 -107.291 L28.9069 -107.294 L30.9116 -107.297 L32.9162 -107.3 L34.9209 -107.303 L36.9256 -107.306 L38.9302 -107.309 L40.9349 -107.312 L42.9396 -107.315 L44.9443 -107.318 L46.9489 -107.321 L48.9536 -107.324 L50.9583 -107.327 L52.963 -107.33 L54.9676 -107.333 L56.9723 -107.336 L58.977 -107.339 L60.9816 -107.342 L62.9863 -107.345 L64.991 -107.348 L66.9957 -107.351 L69.0003 -107.354 L71.005 -107.357 L73.0097 -107.36 L75.0144 -107.363 L77.019 -107.366 L79.0237 -107.369 L81.0284 -107.372 L83.0331 -107.375 L85.0377 -107.378 L87.0424 -107.381 L89.0471 -107.384 L91.0517 -107.387 L93.0564 -107.39 L95.0611 -107.393 L97.0658 -107.396 L99.0704 -107.399 L101.075 -107.402 L103.08 -107.405 L105.084 -107.408 L107.089 -107.411 L107.092 -105.406 L107.095 -103.402 L107.098 -101.397 L107.101 -99.3922 L107.104 -97.3875 L107.107 -95.3828 L107.11 -93.3782 L107.113 -91.3735 L107.116 -89.3688 L107.119 -87.3642 L107.122 -85.3595 L107.125 -83.3548 L107.128 -81.3501 L107.131 -79.3455 L107.134 -77.3408 L107.137 -75.3361 L107.14 -73.3314 L107.143 -71.3268 L107.146 -69.3221 L107.149 -67.3174 L107.152 -65.3128 L107.155 -63.3081 L107.158 -61.3034 L107.161 -59.2987 L107.164 -57.2941 L107.167 -55.2894 L107.17 -53.2847 L107.173 -51.28 L107.176 -49.2754 L107.179 -47.2707 L107.182 -45.266 L107.185 -43.2613 L107.188 -41.2567 L107.191 -39.252 L107.194 -37.2473 L107.197 -35.2427 L107.2 -33.238 L107.203 -31.2333 L107.206 -29.2286 L107.209 -27.224 L107.212 -25.2193 L107.215 -23.2146 L107.218 -21.2099 L107.221 -19.2053 L107.224 -17.2006 L107.227 -15.1959 L107.23 -13.1913 L107.233 -11.1866 L107.236 -9.18191 L107.239 -7.17724 L107.242 -5.17256 L107.245 -3.16789 L107.248 -1.16322 L107.251 0.841455 L107.255 2.84613 L107.258 4.8508 L107.261 6.85547 L107.264 8.86015 L107.267 10.8648 L107.27 12.8695 L107.273 14.8742 L107.276 16.8788 L107.279 18.8835 L107.282 20.8882 L107.285 22.8929 L107.288 24.8975 L107.291 26.9022 L107.294 28.9069 L107.297 30.9115 L107.3 32.9162 L107.303 34.9209 L107.306 36.9256 L107.309 38.9302 L107.312 40.9349 L107.315 42.9396 L107.318 44.9443 L107.321 46.9489 L107.324 48.9536 L107.327 50.9583 L107.33 52.963 L107.333 54.9676 L107.336 56.9723 L107.339 58.977 L107.342 60.9816 L107.345 62.9863 L107.348 64.991 L107.351 66.9957 L107.354 69.0003 L107.357 71.005 L107.36 73.0097 L107.363 75.0144 L107.366 77.019 L107.369 79.0237 L107.372 81.0284 L107.375 83.033 L107.378 85.0377 L107.381 87.0424 L107.384 89.0471 L107.387 91.0517 L107.39 93.0564 L107.393 95.0611 L107.396 97.0658 L107.399 99.0704 L107.402 101.075 L107.405 103.08 L107.408 105.084 L107.411 107.089 Z " />
<path stroke="rgb(169,255,187)" stroke-opacity="1" fill="rgb(169,255,187)" fill-opacity="1" id="scalebar" d="M-3.69904 -94.609 L-1.65554 -94.609 L0.387962 -94.609 L2.43146 -94.609 L4.47496 -94.609 L4.47496 -92.6686 L4.47496 -90.7281 L4.47496 -88.7876 L4.47496 -86.8472 L4.47496 -84.9067 L4.47496 -82.9663 L4.47496 -81.0258 L4.47496 -79.0853 L4.47496 -77.1449 L4.47496 -75.2044 L4.47496 -73.2639 L4.47496 -71.3235 L4.47496 -69.383 L2.43146 -69.383 L0.387962 -69.383 L-1.65554 -69.383 L-3.69904 -69.383 L-3.69904 -71.3235 L-3.69904 -73.2639 L-3.69904 -75.2044 L-3.69904 -77.1449 L-3.69904 -79.0853 L-3.69904 -81.0258 L-3.69904 -82.9663 L-3.69904 -84.9067 L-3.69904 -86.8472 L-3.69904 -88.7876 L-3.69904 -90.7281 L-3.69904 -92.6686 L-3.69904 -94.609 Z " />
<path stroke="rgb(200,255,200)" stroke-opacity="1" fill="rgb(200,255,200)" fill-opacity="1" id="scaleslider" d="M-6.69904 -88.7183 L-4.67418 -88.7183 L-2.64932 -88.7183 L-0.624466 -88.7183 L1.40039 -88.7183 L3.42525 -88.7183 L5.4501 -88.7183 L7.47496 -88.7183 L7.47496 -86.9916 L7.47496 -85.2649 L7.47496 -83.5383 L5.4501 -83.5383 L3.42525 -83.5383 L1.40039 -83.5383 L-0.624466 -83.5383 L-2.64932 -83.5383 L-4.67418 -83.5383 L-6.69904 -83.5383 L-6.69904 -85.2649 L-6.69904 -86.9916 L-6.69904 -88.7183 Z " />
<path stroke="rgb(255,134,106)" stroke-opacity="1" fill="rgb(255,134,106)" fill-opacity="1" id="tranbar" d="M-49.142 -86.146 L-47.0675 -86.146 L-44.993 -86.146 L-42.9185 -86.146 L-40.844 -86.146 L-40.844 -88.2208 L-40.844 -90.2955 L-40.844 -92.3703 L-40.844 -94.445 L-38.7685 -94.445 L-36.693 -94.445 L-34.6175 -94.445 L-32.542 -94.445 L-32.542 -92.3703 L-32.542 -90.2955 L-32.542 -88.2208 L-32.542 -86.146 L-30.4673 -86.146 L-28.3925 -86.146 L-26.3178 -86.146 L-24.243 -86.146 L-24.243 -84.0715 L-24.243 -81.997 L-24.243 -79.9225 L-24.243 -77.848 L-26.3178 -77.848 L-28.3925 -77.848 L-30.4673 -77.848 L-32.542 -77.848 L-32.542 -75.773 L-32.542 -73.698 L-32.542 -71.623 L-32.542 -69.548 L-34.6175 -69.548 L-36.693 -69.548 L-38.7685 -69.548 L-40.844 -69.548 L-40.844 -71.623 L-40.844 -73.698 L-40.844 -75.773 L-40.844 -77.848 L-42.9185 -77.848 L-44.993 -77.848 L-47.0675 -77.848 L-49.142 -77.848 L-49.142 -79.9225 L-49.142 -81.997 L-49.142 -84.0715 L-49.142 -86.146 Z " />
<path stroke="rgb(255,250,159)" stroke-opacity="1" fill="rgb(255,250,159)" fill-opacity="1" id="translider" d="M-39.248 -84.553 L-37.5447 -84.553 L-35.8414 -84.553 L-34.138 -84.553 L-34.138 -82.85 L-34.138 -81.147 L-34.138 -79.444 L-35.8414 -79.444 L-37.5447 -79.444 L-39.248 -79.444 L-39.248 -81.147 L-39.248 -82.85 L-39.248 -84.553 Z " />
<path stroke="rgb(254,204,128)" stroke-opacity="1" fill="rgb(254,204,128)" fill-opacity="1" id="rotate" d="M44.0377 -88.1673 L44.496 -86.2983 L44.9542 -84.4292 L45.4125 -82.5602 L45.8708 -80.6912 L46.329 -78.8221 L44.9392 -77.4908 L43.5494 -76.1595 L42.1596 -74.8282 L40.7697 -73.4969 L39.3799 -72.1656 L37.5319 -72.7036 L35.6839 -73.2415 L33.8358 -73.7794 L31.9878 -74.3173 L30.1398 -74.8553 L29.6815 -76.7245 L29.2233 -78.5937 L28.7651 -80.4629 L28.3069 -82.3322 L27.8487 -84.2014 L29.2385 -85.5325 L30.6282 -86.8636 L32.018 -88.1947 L33.4078 -89.5258 L34.7975 -90.857 L36.6456 -90.319 L38.4936 -89.7811 L40.3416 -89.2432 L42.1897 -88.7052 L44.0377 -88.1673 Z " />
<path stroke="rgb(200,255,200)" stroke-opacity="1" fill="rgb(200,255,200)" fill-opacity="1" id="tri_0" d="M22.9256 -54.5174 L23.9912 -54.0033 L25.0568 -53.4891 L26.1224 -52.9749 L27.1881 -52.4608 L28.2537 -51.9466 L27.2769 -51.2814 L26.3002 -50.6162 L25.3234 -49.9509 L24.3467 -49.2857 L23.3699 -48.6205 L23.281 -49.7999 L23.1922 -50.9793 L23.1033 -52.1587 L23.0144 -53.3381 L22.9256 -54.5174 Z " />
<path stroke="rgb(200,255,200)" stroke-opacity="1" fill="rgb(200,255,200)" fill-opacity="1" id="tri_0_18_" d="M13.0977 -47.8504 L14.1633 -47.3368 L15.2289 -46.8233 L16.2945 -46.3097 L17.3601 -45.7961 L18.4256 -45.2825 L17.4488 -44.6171 L16.4719 -43.9516 L15.4951 -43.2862 L14.5182 -42.6207 L13.5413 -41.9552 L13.4526 -43.1343 L13.3639 -44.3133 L13.2752 -45.4924 L13.1864 -46.6714 L13.0977 -47.8504 Z " />
<path stroke="rgb(200,255,200)" stroke-opacity="1" fill="rgb(200,255,200)" fill-opacity="1" id="tri_1_16_" d="M28.2906 -41.8438 L29.3421 -41.2197 L30.3936 -40.5956 L31.445 -39.9715 L32.4965 -39.3474 L33.548 -38.7233 L32.4828 -38.1254 L31.4176 -37.5274 L30.3524 -36.9294 L29.2872 -36.3314 L28.222 -35.7335 L28.2357 -36.9555 L28.2495 -38.1776 L28.2632 -39.3997 L28.2769 -40.6218 L28.2906 -41.8438 Z " />
<path stroke="rgb(200,255,200)" stroke-opacity="1" fill="rgb(200,255,200)" fill-opacity="1" id="tri_0_17_" d="M24.3983 -43.1177 L23.3325 -43.6317 L22.2668 -44.1456 L21.2011 -44.6595 L20.1353 -45.1735 L19.0696 -45.6874 L20.0465 -46.3528 L21.0233 -47.0183 L22.0002 -47.6838 L22.9771 -48.3492 L23.9539 -49.0147 L24.0428 -47.8353 L24.1317 -46.6559 L24.2205 -45.4765 L24.3094 -44.2971 L24.3983 -43.1177 Z " />
<path stroke="rgb(200,255,200)" stroke-opacity="1" fill="rgb(200,255,200)" fill-opacity="1" id="tri_0_16_" d="M3.26877 -41.1836 L4.33474 -40.6695 L5.40072 -40.1555 L6.4667 -39.6415 L7.53268 -39.1275 L8.59865 -38.6134 L7.62131 -37.9481 L6.64396 -37.2827 L5.66661 -36.6173 L4.68926 -35.9519 L3.71191 -35.2866 L3.62328 -36.466 L3.53465 -37.6454 L3.44602 -38.8248 L3.3574 -40.0042 L3.26877 -41.1836 Z " />
<path stroke="rgb(200,255,200)" stroke-opacity="1" fill="rgb(200,255,200)" fill-opacity="1" id="tri_1_15_" d="M17.5733 -35.8465 L18.6251 -35.2226 L19.6769 -34.5988 L20.7288 -33.9749 L21.7806 -33.3511 L22.8325 -32.7272 L21.7669 -32.1291 L20.7014 -31.531 L19.6358 -30.9329 L18.5702 -30.3348 L17.5047 -29.7367 L17.5184 -30.9587 L17.5321 -32.1806 L17.5458 -33.4026 L17.5595 -34.6245 L17.5733 -35.8465 Z " />
<path stroke="rgb(200,255,200)" stroke-opacity="1" fill="rgb(200,255,200)" fill-opacity="1" id="tri_0_15_" d="M14.5709 -36.4512 L13.5048 -36.9649 L12.4387 -37.4785 L11.3727 -37.9922 L10.3066 -38.5058 L9.24053 -39.0195 L10.2179 -39.6849 L11.1952 -40.3503 L12.1726 -41.0156 L13.1499 -41.681 L14.1273 -42.3464 L14.216 -41.1673 L14.3047 -39.9883 L14.3934 -38.8093 L14.4822 -37.6302 L14.5709 -36.4512 Z " />
<path stroke="rgb(200,255,200)" stroke-opacity="1" fill="rgb(200,255,200)" fill-opacity="1" id="tri_2_14_" d="M31.4785 -28.0133 L32.5071 -27.281 L33.5358 -26.5487 L34.5645 -25.8164 L35.5932 -25.0841 L36.6219 -24.3518 L35.4741 -23.8282 L34.3263 -23.3045 L33.1785 -22.7809 L32.0307 -22.2572 L30.8829 -21.7336 L31.002 -22.9895 L31.1211 -24.2455 L31.2402 -25.5014 L31.3593 -26.7574 L31.4785 -28.0133 Z " />
<path stroke="rgb(200,255,200)" stroke-opacity="1" fill="rgb(200,255,200)" fill-opacity="1" id="tri_1_14_" d="M28.792 -29.9707 L27.7401 -30.5947 L26.6883 -31.2187 L25.6364 -31.8427 L24.5846 -32.4667 L23.5328 -33.0907 L24.5983 -33.6888 L25.6639 -34.2868 L26.7294 -34.8849 L27.795 -35.483 L28.8606 -36.0811 L28.8468 -34.859 L28.8331 -33.637 L28.8194 -32.4149 L28.8057 -31.1928 L28.792 -29.9707 Z " />
<path stroke="rgb(200,255,200)" stroke-opacity="1" fill="rgb(200,255,200)" fill-opacity="1" id="tri_0_14_" d="M-6.56318 -34.5152 L-5.4971 -34.0013 L-4.43101 -33.4874 L-3.36492 -32.9735 L-2.29884 -32.4596 L-1.23275 -31.9457 L-2.20999 -31.2806 L-3.18724 -30.6155 L-4.16449 -29.9503 L-5.14174 -29.2852 L-6.11898 -28.6201 L-6.20782 -29.7991 L-6.29666 -30.9781 L-6.3855 -32.1572 L-6.47434 -33.3362 L-6.56318 -34.5152 Z " />
<path stroke="rgb(200,255,200)" stroke-opacity="1" fill="rgb(200,255,200)" fill-opacity="1" id="tri_1_13_" d="M6.85585 -29.853 L7.90743 -29.2286 L8.95902 -28.6041 L10.0106 -27.9796 L11.0622 -27.3552 L12.1138 -26.7307 L11.0486 -26.1327 L9.98341 -25.5347 L8.91822 -24.9368 L7.85303 -24.3388 L6.78783 -23.7408 L6.80144 -24.9633 L6.81504 -26.1857 L6.82864 -27.4081 L6.84224 -28.6306 L6.85585 -29.853 Z " />
<path stroke="rgb(200,255,200)" stroke-opacity="1" fill="rgb(200,255,200)" fill-opacity="1" id="tri_0_13_" d="M4.73978 -29.7817 L3.67391 -30.296 L2.60803 -30.8102 L1.54215 -31.3245 L0.476277 -31.8388 L-0.589599 -32.3531 L0.387648 -33.0182 L1.36489 -33.6833 L2.34214 -34.3484 L3.31939 -35.0136 L4.29663 -35.6787 L4.38526 -34.4993 L4.47389 -33.3199 L4.56252 -32.1405 L4.65115 -30.9611 L4.73978 -29.7817 Z " />
<path stroke="rgb(200,255,200)" stroke-opacity="1" fill="rgb(200,255,200)" fill-opacity="1" id="tri_2_13_" d="M19.9358 -22.7613 L20.9641 -22.0291 L21.9924 -21.2968 L23.0207 -20.5646 L24.049 -19.8323 L25.0773 -19.1 L23.9298 -18.5764 L22.7822 -18.0527 L21.6347 -17.529 L20.4871 -17.0053 L19.3396 -16.4817 L19.4588 -17.7376 L19.5781 -18.9935 L19.6973 -20.2495 L19.8166 -21.5054 L19.9358 -22.7613 Z " />
<path stroke="rgb(200,255,200)" stroke-opacity="1" fill="rgb(200,255,200)" fill-opacity="1" id="tri_1_12_" d="M18.0749 -23.974 L17.0234 -24.598 L15.9719 -25.222 L14.9205 -25.846 L13.869 -26.4699 L12.8175 -27.0939 L13.8827 -27.6919 L14.9479 -28.2899 L16.0131 -28.8878 L17.0783 -29.4858 L18.1435 -30.0838 L18.1297 -28.8618 L18.116 -27.6399 L18.1023 -26.4179 L18.0886 -25.196 L18.0749 -23.974 Z " />
<path stroke="rgb(200,255,200)" stroke-opacity="1" fill="rgb(200,255,200)" fill-opacity="1" id="tri_3_12_" d="M32.1979 -13.5132 L33.1981 -12.6847 L34.1983 -11.8562 L35.1985 -11.0277 L36.1987 -10.1993 L37.1989 -9.37077 L35.9827 -8.91912 L34.7665 -8.46748 L33.5503 -8.01584 L32.334 -7.5642 L31.1178 -7.11255 L31.3338 -8.39268 L31.5498 -9.67281 L31.7659 -10.9529 L31.9819 -12.2331 L32.1979 -13.5132 Z " />
<path stroke="rgb(200,255,200)" stroke-opacity="1" fill="rgb(200,255,200)" fill-opacity="1" id="tri_2_12_" d="M30.9737 -15.7527 L29.9453 -16.4849 L28.9169 -17.2172 L27.8885 -17.9495 L26.86 -18.6818 L25.8316 -19.414 L26.9791 -19.9377 L28.1267 -20.4614 L29.2742 -20.9851 L30.4218 -21.5087 L31.5693 -22.0324 L31.4502 -20.7765 L31.3311 -19.5205 L31.212 -18.2646 L31.0929 -17.0086 L30.9737 -15.7527 Z " />
<path stroke="rgb(200,255,200)" stroke-opacity="1" fill="rgb(200,255,200)" fill-opacity="1" id="tri_0_12_" d="M-16.3894 -27.8487 L-15.324 -27.3348 L-14.2586 -26.821 L-13.1933 -26.3072 L-12.1279 -25.7933 L-11.0625 -25.2795 L-12.0395 -24.6142 L-13.0165 -23.9488 L-13.9935 -23.2835 L-14.9705 -22.6181 L-15.9475 -21.9528 L-16.0359 -23.1319 L-16.1242 -24.3111 L-16.2126 -25.4903 L-16.301 -26.6695 L-16.3894 -27.8487 Z " />
<path stroke="rgb(200,255,200)" stroke-opacity="1" fill="rgb(200,255,200)" fill-opacity="1" id="tri_1_11_" d="M-3.86227 -23.8565 L-2.81067 -23.2327 L-1.75907 -22.6088 L-0.707477 -21.9849 L0.344121 -21.3611 L1.39572 -20.7372 L0.330403 -20.1391 L-0.734913 -19.541 L-1.80023 -18.9429 L-2.86555 -18.3448 L-3.93086 -17.7467 L-3.91715 -18.9687 L-3.90343 -20.1907 L-3.88971 -21.4126 L-3.87599 -22.6346 L-3.86227 -23.8565 Z " />
<path stroke="rgb(200,255,200)" stroke-opacity="1" fill="rgb(200,255,200)" fill-opacity="1" id="tri_0_11_" d="M-5.09037 -23.1157 L-6.1562 -23.6294 L-7.22204 -24.1431 L-8.28787 -24.6567 L-9.3537 -25.1704 L-10.4195 -25.6841 L-9.44254 -26.3495 L-8.46555 -27.0148 L-7.48856 -27.6801 L-6.51156 -28.3455 L-5.53457 -29.0108 L-5.44573 -27.8318 L-5.35689 -26.6528 L-5.26805 -25.4738 L-5.17921 -24.2947 L-5.09037 -23.1157 Z " />
<path stroke="rgb(200,255,200)" stroke-opacity="1" fill="rgb(200,255,200)" fill-opacity="1" id="tri_2_11_" d="M8.39023 -17.5125 L9.41875 -16.7798 L10.4473 -16.0471 L11.4758 -15.3145 L12.5043 -14.5818 L13.5328 -13.8491 L12.3854 -13.3257 L11.238 -12.8023 L10.0906 -12.2788 L8.94326 -11.7554 L7.79586 -11.2319 L7.91474 -12.488 L8.03361 -13.7441 L8.15248 -15.0002 L8.27136 -16.2564 L8.39023 -17.5125 Z " />
<path stroke="rgb(200,255,200)" stroke-opacity="1" fill="rgb(200,255,200)" fill-opacity="1" id="tri_1_10_" d="M7.35699 -17.9785 L6.30527 -18.6029 L5.25356 -19.2272 L4.20184 -19.8516 L3.15013 -20.4759 L2.09841 -21.1003 L3.16373 -21.6984 L4.22905 -22.2964 L5.29437 -22.8945 L6.35968 -23.4926 L7.425 -24.0907 L7.4114 -22.8683 L7.39779 -21.6458 L7.38419 -20.4234 L7.37059 -19.201 L7.35699 -17.9785 Z " />
<path stroke="rgb(200,255,200)" stroke-opacity="1" fill="rgb(200,255,200)" fill-opacity="1" id="tri_3_11_" d="M19.9585 -8.99525 L20.9584 -8.16655 L21.9583 -7.33785 L22.9582 -6.50915 L23.9581 -5.68044 L24.958 -4.85174 L23.7416 -4.4004 L22.5252 -3.94906 L21.3087 -3.49772 L20.0923 -3.04637 L18.8759 -2.59503 L19.0924 -3.87508 L19.3089 -5.15512 L19.5254 -6.43516 L19.742 -7.7152 L19.9585 -8.99525 Z " />
<path stroke="rgb(200,255,200)" stroke-opacity="1" fill="rgb(200,255,200)" fill-opacity="1" id="tri_2_10_" d="M19.4299 -10.5021 L18.4017 -11.2346 L17.3736 -11.9671 L16.3454 -12.6996 L15.3173 -13.4321 L14.2891 -14.1646 L15.4365 -14.6881 L16.5839 -15.2115 L17.7313 -15.7349 L18.8787 -16.2584 L20.0261 -16.7818 L19.9069 -15.5259 L19.7876 -14.2699 L19.6684 -13.014 L19.5491 -11.7581 L19.4299 -10.5021 Z " />
<path stroke="rgb(200,255,200)" stroke-opacity="1" fill="rgb(200,255,200)" fill-opacity="1" id="tri_4_10_" d="M30.7326 1.31992 L31.7009 2.23416 L32.6691 3.1484 L33.6373 4.06264 L34.6055 4.97689 L35.5737 5.89112 L34.2991 6.27171 L33.0245 6.6523 L31.7499 7.03288 L30.4752 7.41347 L29.2006 7.79406 L29.507 6.49923 L29.8134 5.2044 L30.1198 3.90958 L30.4262 2.61475 L30.7326 1.31992 Z " />
<path stroke="rgb(200,255,200)" stroke-opacity="1" fill="rgb(200,255,200)" fill-opacity="1" id="tri_3_10_" d="M30.7614 -0.971377 L29.761 -1.80016 L28.7605 -2.62895 L27.7601 -3.45774 L26.7597 -4.28653 L25.7593 -5.11532 L26.9757 -5.56666 L28.1922 -6.018 L29.4086 -6.46935 L30.625 -6.92069 L31.8415 -7.37203 L31.6254 -6.0919 L31.4094 -4.81177 L31.1934 -3.53164 L30.9774 -2.25151 L30.7614 -0.971377 Z " />
<path stroke="rgb(200,255,200)" stroke-opacity="1" fill="rgb(200,255,200)" fill-opacity="1" id="tri_0_10_" d="M-26.2195 -21.1817 L-25.1534 -20.6678 L-24.0873 -20.1539 L-23.0212 -19.64 L-21.9551 -19.1261 L-20.889 -18.6122 L-21.8666 -17.9468 L-22.8442 -17.2814 L-23.8218 -16.616 L-24.7994 -15.9507 L-25.777 -15.2853 L-25.8655 -16.4646 L-25.954 -17.6439 L-26.0425 -18.8231 L-26.131 -20.0024 L-26.2195 -21.1817 Z " />
<path stroke="rgb(200,255,200)" stroke-opacity="1" fill="rgb(200,255,200)" fill-opacity="1" id="tri_1_9_" d="M-14.5787 -17.8605 L-13.527 -17.2365 L-12.4753 -16.6125 L-11.4236 -15.9886 L-10.3719 -15.3646 L-9.32014 -14.7406 L-10.3855 -14.1426 L-11.4508 -13.5447 L-12.5161 -12.9467 L-13.5814 -12.3487 L-14.6467 -11.7507 L-14.6331 -12.9727 L-14.6195 -14.1946 L-14.6059 -15.4166 L-14.5923 -16.6386 L-14.5787 -17.8605 Z " />
<path stroke="rgb(200,255,200)" stroke-opacity="1" fill="rgb(200,255,200)" fill-opacity="1" id="tri_0_9_" d="M-14.9185 -16.4485 L-15.9844 -16.9623 L-17.0504 -17.4761 L-18.1164 -17.9899 L-19.1823 -18.5036 L-20.2483 -19.0174 L-19.2707 -19.6828 L-18.2931 -20.3482 L-17.3155 -21.0136 L-16.338 -21.679 L-15.3604 -22.3444 L-15.272 -21.1652 L-15.1836 -19.986 L-15.0952 -18.8068 L-15.0069 -17.6277 L-14.9185 -16.4485 Z " />
<path stroke="rgb(200,255,200)" stroke-opacity="1" fill="rgb(200,255,200)" fill-opacity="1" id="tri_2_9_" d="M-3.15376 -12.2605 L-2.12533 -11.5283 L-1.0969 -10.796 L-0.0684694 -10.0637 L0.95996 -9.33143 L1.98839 -8.59916 L0.841076 -8.07521 L-0.306237 -7.55125 L-1.45355 -7.0273 L-2.60086 -6.50335 L-3.74818 -5.97939 L-3.62929 -7.23562 L-3.51041 -8.49185 L-3.39152 -9.74808 L-3.27264 -11.0043 L-3.15376 -12.2605 Z " />
<path stroke="rgb(200,255,200)" stroke-opacity="1" fill="rgb(200,255,200)" fill-opacity="1" id="tri_1_8_" d="M-3.36065 -11.9844 L-4.41224 -12.6083 L-5.46384 -13.2323 L-6.51544 -13.8563 L-7.56703 -14.4803 L-8.61863 -15.1043 L-7.55331 -15.7022 L-6.488 -16.3002 L-5.42268 -16.8982 L-4.35737 -17.4962 L-3.29205 -18.0941 L-3.30577 -16.8722 L-3.31949 -15.6502 L-3.33321 -14.4283 L-3.34693 -13.2063 L-3.36065 -11.9844 Z " />
<path stroke="rgb(200,255,200)" stroke-opacity="1" fill="rgb(200,255,200)" fill-opacity="1" id="tri_3_9_" d="M7.71822 -4.47639 L8.71845 -3.64803 L9.71867 -2.81967 L10.7189 -1.99131 L11.7191 -1.16295 L12.7194 -0.334592 L11.5028 0.116728 L10.2862 0.568049 L9.06967 1.01937 L7.85311 1.47069 L6.63655 1.92201 L6.85288 0.642329 L7.06922 -0.637351 L7.28555 -1.91703 L7.50189 -3.19671 L7.71822 -4.47639 Z " />
<path stroke="rgb(200,255,200)" stroke-opacity="1" fill="rgb(200,255,200)" fill-opacity="1" id="tri_2_8_" d="M7.88656 -5.25223 L6.85812 -5.98438 L5.82968 -6.71653 L4.80124 -7.44868 L3.7728 -8.18083 L2.74436 -8.91297 L3.89167 -9.43693 L5.03898 -9.96088 L6.1863 -10.4848 L7.33361 -11.0088 L8.48092 -11.5327 L8.36205 -10.2766 L8.24318 -9.02054 L8.1243 -7.76443 L8.00543 -6.50833 L7.88656 -5.25223 Z " />
<path stroke="rgb(200,255,200)" stroke-opacity="1" fill="rgb(200,255,200)" fill-opacity="1" id="tri_4_9_" d="M17.9084 5.13158 L18.8762 6.04573 L19.8441 6.95988 L20.8119 7.87403 L21.7797 8.78817 L22.7475 9.70232 L21.4732 10.0833 L20.199 10.4642 L18.9247 10.8451 L17.6504 11.2261 L16.3761 11.607 L16.6826 10.3119 L16.989 9.01684 L17.2955 7.72176 L17.602 6.42667 L17.9084 5.13158 Z " />
<path stroke="rgb(200,255,200)" stroke-opacity="1" fill="rgb(200,255,200)" fill-opacity="1" id="tri_3_8_" d="M18.5187 3.54595 L17.5187 2.71723 L16.5187 1.88851 L15.5186 1.05978 L14.5186 0.23106 L13.5186 -0.597662 L14.7351 -1.04898 L15.9517 -1.5003 L17.1683 -1.95162 L18.3848 -2.40294 L19.6014 -2.85426 L19.3849 -1.57422 L19.1683 -0.294177 L18.9518 0.985865 L18.7353 2.26591 L18.5187 3.54595 Z " />
<path stroke="rgb(200,255,200)" stroke-opacity="1" fill="rgb(200,255,200)" fill-opacity="1" id="tri_5_8_" d="M27.3627 16.2097 L28.2976 17.1975 L29.2326 18.1852 L30.1676 19.173 L31.1025 20.1608 L32.0375 21.1486 L30.7158 21.4638 L29.3941 21.7791 L28.0724 22.0944 L26.7507 22.4097 L25.429 22.725 L25.8158 21.4219 L26.2025 20.1189 L26.5892 18.8158 L26.9759 17.5127 L27.3627 16.2097 Z " />
<path stroke="rgb(200,255,200)" stroke-opacity="1" fill="rgb(200,255,200)" fill-opacity="1" id="tri_4_8_" d="M28.4268 14.0558 L27.4589 13.1419 L26.491 12.2281 L25.5231 11.3142 L24.5552 10.4003 L23.5874 9.4864 L24.8616 9.10546 L26.1359 8.72452 L27.4102 8.34358 L28.6845 7.96264 L29.9588 7.5817 L29.6524 8.87653 L29.346 10.1714 L29.0396 11.4662 L28.7332 12.761 L28.4268 14.0558 Z " />
<path stroke="rgb(200,255,200)" stroke-opacity="1" fill="rgb(200,255,200)" fill-opacity="1" id="tri_0_8_" d="M-36.0508 -14.5153 L-34.9848 -14.0012 L-33.9188 -13.487 L-32.8528 -12.9729 L-31.7868 -12.4587 L-30.7208 -11.9446 L-31.698 -11.2793 L-32.6751 -10.6141 L-33.6522 -9.94887 L-34.6293 -9.28363 L-35.6064 -8.61839 L-35.6953 -9.79778 L-35.7842 -10.9772 L-35.873 -12.1565 L-35.9619 -13.3359 L-36.0508 -14.5153 Z " />
<path stroke="rgb(200,255,200)" stroke-opacity="1" fill="rgb(200,255,200)" fill-opacity="1" id="tri_1_7_" d="M-25.2955 -11.8666 L-24.2441 -11.2424 L-23.1928 -10.6182 L-22.1414 -9.99395 L-21.0901 -9.36973 L-20.0387 -8.7455 L-21.1039 -8.1479 L-22.1691 -7.55029 L-23.2343 -6.95268 L-24.2995 -6.35507 L-25.3646 -5.75747 L-25.3508 -6.9793 L-25.337 -8.20113 L-25.3231 -9.42296 L-25.3093 -10.6448 L-25.2955 -11.8666 Z " />
<path stroke="rgb(200,255,200)" stroke-opacity="1" fill="rgb(200,255,200)" fill-opacity="1" id="tri_0_7_" d="M-24.7485 -9.78037 L-25.8141 -10.2944 L-26.8797 -10.8085 L-27.9454 -11.3225 L-29.011 -11.8366 L-30.0766 -12.3506 L-29.0995 -13.0159 L-28.1224 -13.6811 L-27.1453 -14.3464 L-26.1681 -15.0116 L-25.191 -15.6768 L-25.1025 -14.4975 L-25.014 -13.3182 L-24.9255 -12.139 L-24.837 -10.9597 L-24.7485 -9.78037 Z " />
<path stroke="rgb(200,255,200)" stroke-opacity="1" fill="rgb(200,255,200)" fill-opacity="1" id="tri_2_7_" d="M-14.6988 -7.01062 L-13.6704 -6.27797 L-12.642 -5.54532 L-11.6136 -4.81267 L-10.5852 -4.08001 L-9.55683 -3.34736 L-10.7042 -2.82367 L-11.8517 -2.29999 L-12.9991 -1.7763 L-14.1465 -1.25261 L-15.2939 -0.728919 L-15.1749 -1.98526 L-15.0559 -3.2416 L-14.9368 -4.49794 L-14.8178 -5.75428 L-14.6988 -7.01062 Z " />
<path stroke="rgb(200,255,200)" stroke-opacity="1" fill="rgb(200,255,200)" fill-opacity="1" id="tri_1_6_" d="M-14.0778 -5.98844 L-15.1294 -6.61279 L-16.181 -7.23714 L-17.2326 -7.86148 L-18.2842 -8.48583 L-19.3358 -9.11018 L-18.2706 -9.70779 L-17.2054 -10.3054 L-16.1402 -10.903 L-15.075 -11.5006 L-14.0098 -12.0982 L-14.0234 -10.8763 L-14.037 -9.65431 L-14.0506 -8.43235 L-14.0642 -7.2104 L-14.0778 -5.98844 Z " />
<path stroke="rgb(200,255,200)" stroke-opacity="1" fill="rgb(200,255,200)" fill-opacity="1" id="tri_3_7_" d="M-4.52256 0.0422668 L-3.52227 0.871033 L-2.52198 1.6998 L-1.52169 2.52857 L-0.521399 3.35733 L0.47889 4.1861 L-0.737757 4.63714 L-1.9544 5.08818 L-3.17105 5.53922 L-4.3877 5.99027 L-5.60434 6.44131 L-5.38799 5.1615 L-5.17163 3.88169 L-4.95527 2.60188 L-4.73892 1.32207 L-4.52256 0.0422668 Z " />
<path stroke="rgb(200,255,200)" stroke-opacity="1" fill="rgb(200,255,200)" fill-opacity="1" id="tri_2_6_" d="M-3.65707 0.000360704 L-4.6856 -0.732177 L-5.71413 -1.46472 L-6.74267 -2.19725 L-7.7712 -2.92979 L-8.79973 -3.66233 L-7.65231 -4.18602 L-6.5049 -4.70971 L-5.35748 -5.2334 L-4.21007 -5.75709 L-3.06265 -6.28078 L-3.18154 -5.02455 L-3.30042 -3.76832 L-3.41931 -2.51209 L-3.53819 -1.25587 L-3.65707 0.000360704 Z " />
<path stroke="rgb(200,255,200)" stroke-opacity="1" fill="rgb(200,255,200)" fill-opacity="1" id="tri_4_7_" d="M5.08252 8.9433 L6.05063 9.85738 L7.01874 10.7715 L7.98686 11.6855 L8.95497 12.5996 L9.92308 13.5137 L8.64879 13.8946 L7.37451 14.2756 L6.10022 14.6565 L4.82594 15.0375 L3.55165 15.4184 L3.85783 14.1234 L4.164 12.8284 L4.47017 11.5333 L4.77635 10.2383 L5.08252 8.9433 Z " />
<path stroke="rgb(200,255,200)" stroke-opacity="1" fill="rgb(200,255,200)" fill-opacity="1" id="tri_3_6_" d="M6.27939 8.06399 L5.27908 7.23535 L4.27877 6.40672 L3.27846 5.57808 L2.27814 4.74944 L1.27783 3.9208 L2.49448 3.46976 L3.71113 3.01872 L4.92777 2.56768 L6.14442 2.11663 L7.36107 1.66559 L7.14473 2.94527 L6.9284 4.22495 L6.71206 5.50463 L6.49573 6.78431 L6.27939 8.06399 Z " />
<path stroke="rgb(200,255,200)" stroke-opacity="1" fill="rgb(200,255,200)" fill-opacity="1" id="tri_5_7_" d="M14.0587 19.3644 L14.9936 20.3525 L15.9285 21.3405 L16.8634 22.3285 L17.7983 23.3166 L18.7331 24.3046 L17.411 24.6196 L16.0888 24.9346 L14.7666 25.2496 L13.4444 25.5646 L12.1222 25.8796 L12.5095 24.5766 L12.8968 23.2735 L13.2841 21.9705 L13.6714 20.6675 L14.0587 19.3644 Z " />
<path stroke="rgb(200,255,200)" stroke-opacity="1" fill="rgb(200,255,200)" fill-opacity="1" id="tri_4_6_" d="M15.6026 17.8678 L14.6348 16.9536 L13.667 16.0395 L12.6992 15.1253 L11.7314 14.2112 L10.7635 13.297 L12.0378 12.9161 L13.3121 12.5352 L14.5864 12.1542 L15.8607 11.7733 L17.135 11.3923 L16.8285 12.6874 L16.522 13.9825 L16.2156 15.2776 L15.9091 16.5727 L15.6026 17.8678 Z " />
<path stroke="rgb(200,255,200)" stroke-opacity="1" fill="rgb(200,255,200)" fill-opacity="1" id="tri_6_6_" d="M22.4146 30.9766 L23.3181 32.0277 L24.2215 33.0789 L25.1249 34.13 L26.0284 35.1812 L26.9318 36.2324 L25.5715 36.4887 L24.2111 36.7451 L22.8508 37.0014 L21.4904 37.2578 L20.1301 37.5141 L20.587 36.2066 L21.0439 34.8991 L21.5008 33.5916 L21.9577 32.2841 L22.4146 30.9766 Z " />
<path stroke="rgb(200,255,200)" stroke-opacity="1" fill="rgb(200,255,200)" fill-opacity="1" id="tri_5_6_" d="M24.2789 29.0702 L23.3434 28.0822 L22.408 27.0941 L21.4725 26.106 L20.5371 25.118 L19.6016 24.1299 L20.9238 23.8149 L22.246 23.4999 L23.5682 23.1849 L24.8904 22.8699 L26.2126 22.5549 L25.8258 23.858 L25.4391 25.1611 L25.0524 26.4641 L24.6656 27.7672 L24.2789 29.0702 Z " />
<path stroke="rgb(200,255,200)" stroke-opacity="1" fill="rgb(200,255,200)" fill-opacity="1" id="tri_0_6_" d="M-45.8804 -7.84625 L-44.8144 -7.33246 L-43.7485 -6.81867 L-42.6825 -6.30488 L-41.6165 -5.79109 L-40.5506 -5.2773 L-41.5278 -4.61158 L-42.505 -3.94586 L-43.4822 -3.28014 L-44.4594 -2.61442 L-45.4366 -1.9487 L-45.5254 -3.12821 L-45.6141 -4.30772 L-45.7029 -5.48723 L-45.7916 -6.66674 L-45.8804 -7.84625 Z " />
<path stroke="rgb(200,255,200)" stroke-opacity="1" fill="rgb(200,255,200)" fill-opacity="1" id="tri_1_5_" d="M-36.0135 -5.86996 L-34.9616 -5.2461 L-33.9098 -4.62224 L-32.8579 -3.99838 L-31.8061 -3.37452 L-30.7543 -2.75065 L-31.8198 -2.15293 L-32.8854 -1.5552 L-33.9509 -0.957477 L-35.0165 -0.359751 L-36.082 0.237974 L-36.0683 -0.983612 L-36.0546 -2.2052 L-36.0409 -3.42679 L-36.0272 -4.64837 L-36.0135 -5.86996 Z " />
<path stroke="rgb(200,255,200)" stroke-opacity="1" fill="rgb(200,255,200)" fill-opacity="1" id="tri_0_5_" d="M-34.5773 -3.11373 L-35.6434 -3.6274 L-36.7094 -4.14106 L-37.7755 -4.65473 L-38.8416 -5.16839 L-39.9076 -5.68205 L-38.9304 -6.34777 L-37.9532 -7.01349 L-36.976 -7.67921 L-35.9988 -8.34493 L-35.0216 -9.01065 L-34.9328 -7.83127 L-34.8439 -6.65188 L-34.755 -5.4725 L-34.6662 -4.29312 L-34.5773 -3.11373 Z " />
<path stroke="rgb(200,255,200)" stroke-opacity="1" fill="rgb(200,255,200)" fill-opacity="1" id="tri_2_5_" d="M-26.2443 -1.76046 L-25.2158 -1.02805 L-24.1872 -0.295635 L-23.1587 0.436777 L-22.1302 1.16919 L-21.1016 1.9016 L-22.2487 2.42558 L-23.3957 2.94956 L-24.5428 3.47353 L-25.6899 3.99751 L-26.8369 4.52149 L-26.7184 3.2651 L-26.5999 2.00871 L-26.4814 0.75232 L-26.3629 -0.50407 L-26.2443 -1.76046 Z " />
<path stroke="rgb(200,255,200)" stroke-opacity="1" fill="rgb(200,255,200)" fill-opacity="1" id="tri_1_4_" d="M-24.7962 0.00495342 L-25.8479 -0.619152 L-26.8996 -1.24326 L-27.9513 -1.86736 L-29.003 -2.49147 L-30.0548 -3.11557 L-28.9892 -3.7133 L-27.9236 -4.31102 L-26.8581 -4.90875 L-25.7925 -5.50647 L-24.727 -6.1042 L-24.7408 -4.88237 L-24.7546 -3.66054 L-24.7685 -2.43871 L-24.7823 -1.21688 L-24.7962 0.00495342 Z " />
<path stroke="rgb(200,255,200)" stroke-opacity="1" fill="rgb(200,255,200)" fill-opacity="1" id="tri_3_5_" d="M-16.7606 4.5607 L-15.7608 5.38925 L-14.761 6.2178 L-13.7612 7.04635 L-12.7614 7.8749 L-11.7616 8.70345 L-12.9783 9.15488 L-14.195 9.6063 L-15.4117 10.0577 L-16.6284 10.5092 L-17.8451 10.9606 L-17.6282 9.6806 L-17.4113 8.40063 L-17.1944 7.12065 L-16.9775 5.84068 L-16.7606 4.5607 Z " />
<path stroke="rgb(200,255,200)" stroke-opacity="1" fill="rgb(200,255,200)" fill-opacity="1" id="tri_2_4_" d="M-15.203 5.24985 L-16.231 4.51749 L-17.2591 3.78512 L-18.2871 3.05276 L-19.3151 2.3204 L-20.3432 1.58803 L-19.1961 1.06406 L-18.049 0.54008 L-16.902 0.0161028 L-15.7549 -0.507875 L-14.6079 -1.03185 L-14.7269 0.224489 L-14.8459 1.48083 L-14.9649 2.73717 L-15.0839 3.99351 L-15.203 5.24985 Z " />
<path stroke="rgb(200,255,200)" stroke-opacity="1" fill="rgb(200,255,200)" fill-opacity="1" id="tri_4_5_" d="M-7.74292 12.7584 L-6.77475 13.6722 L-5.80658 14.586 L-4.8384 15.4998 L-3.87023 16.4137 L-2.90206 17.3275 L-4.17644 17.7082 L-5.45082 18.089 L-6.72521 18.4698 L-7.99959 18.8506 L-9.27398 19.2314 L-8.96777 17.9368 L-8.66156 16.6422 L-8.35534 15.3476 L-8.04913 14.053 L-7.74292 12.7584 Z " />
<path stroke="rgb(200,255,200)" stroke-opacity="1" fill="rgb(200,255,200)" fill-opacity="1" id="tri_3_4_" d="M-5.96149 12.5837 L-6.96184 11.7553 L-7.9622 10.9269 L-8.96256 10.0985 L-9.96291 9.27013 L-10.9633 8.44174 L-9.74655 7.99032 L-8.52984 7.53889 L-7.31313 7.08747 L-6.09642 6.63604 L-4.87971 6.18461 L-5.09606 7.46442 L-5.31242 8.74423 L-5.52878 10.024 L-5.74513 11.3038 L-5.96149 12.5837 Z " />
<path stroke="rgb(200,255,200)" stroke-opacity="1" fill="rgb(200,255,200)" fill-opacity="1" id="tri_5_5_" d="M0.752456 22.5183 L1.68774 23.5065 L2.62302 24.4947 L3.55829 25.4828 L4.49357 26.471 L5.42885 27.4591 L4.10659 27.7744 L2.78433 28.0896 L1.46207 28.4049 L0.139814 28.7201 L-1.18245 29.0354 L-0.795466 27.732 L-0.408486 26.4286 L-0.0215051 25.1252 L0.365475 23.8218 L0.752456 22.5183 Z " />
<path stroke="rgb(200,255,200)" stroke-opacity="1" fill="rgb(200,255,200)" fill-opacity="1" id="tri_4_4_" d="M2.7779 21.68 L1.80969 20.7658 L0.841481 19.8516 L-0.126729 18.9373 L-1.09494 18.0231 L-2.06315 17.1088 L-0.788765 16.7281 L0.485619 16.3473 L1.76 15.9665 L3.03439 15.5857 L4.30877 15.205 L4.0026 16.5 L3.69642 17.795 L3.39025 19.09 L3.08408 20.385 L2.7779 21.68 Z " />
<path stroke="rgb(200,255,200)" stroke-opacity="1" fill="rgb(200,255,200)" fill-opacity="1" id="tri_6_5_" d="M8.7208 33.5366 L9.62377 34.5875 L10.5267 35.6383 L11.4297 36.6892 L12.3327 37.74 L13.2356 38.7908 L11.8755 39.0474 L10.5153 39.304 L9.15521 39.5606 L7.79507 39.8171 L6.43493 40.0737 L6.8921 38.7663 L7.34928 37.4589 L7.80645 36.1515 L8.26362 34.8441 L8.7208 33.5366 Z " />
<path stroke="rgb(200,255,200)" stroke-opacity="1" fill="rgb(200,255,200)" fill-opacity="1" id="tri_5_4_" d="M10.9721 32.2252 L10.0371 31.2374 L9.10216 30.2496 L8.16719 29.2618 L7.23223 28.2741 L6.29726 27.2863 L7.61952 26.971 L8.94178 26.6558 L10.264 26.3405 L11.5863 26.0252 L12.9086 25.71 L12.5213 27.013 L12.134 28.3161 L11.7467 29.6191 L11.3594 30.9221 L10.9721 32.2252 Z " />
<path stroke="rgb(200,255,200)" stroke-opacity="1" fill="rgb(200,255,200)" fill-opacity="1" id="tri_7_4_" d="M16.2106 45.5321 L17.0833 46.6365 L17.956 47.7409 L18.8287 48.8453 L19.7014 49.9497 L20.574 51.0541 L19.1826 51.2567 L17.7912 51.4593 L16.3998 51.6619 L15.0084 51.8645 L13.6169 52.067 L14.1357 50.7601 L14.6544 49.4531 L15.1732 48.1461 L15.6919 46.8391 L16.2106 45.5321 Z " />
<path stroke="rgb(200,255,200)" stroke-opacity="1" fill="rgb(200,255,200)" fill-opacity="1" id="tri_6_4_" d="M18.6493 43.9141 L17.7461 42.8631 L16.8429 41.8122 L15.9396 40.7613 L15.0364 39.7104 L14.1332 38.6594 L15.4933 38.4028 L16.8534 38.1463 L18.2136 37.8897 L19.5737 37.6331 L20.9339 37.3765 L20.477 38.684 L20.02 39.9916 L19.5631 41.2991 L19.1062 42.6066 L18.6493 43.9141 Z " />
<path stroke="rgb(200,255,200)" stroke-opacity="1" fill="rgb(200,255,200)" fill-opacity="1" id="tri_0_4_" d="M-55.7113 -1.17927 L-54.6453 -0.665245 L-53.5793 -0.151216 L-52.5133 0.362812 L-51.4473 0.87684 L-50.3814 1.39087 L-51.3584 2.05621 L-52.3354 2.72156 L-53.3123 3.38691 L-54.2893 4.05225 L-55.2663 4.7176 L-55.3553 3.53822 L-55.4443 2.35885 L-55.5333 1.17948 L-55.6223 0.000102501 L-55.7113 -1.17927 Z " />
<path stroke="rgb(200,255,200)" stroke-opacity="1" fill="rgb(200,255,200)" fill-opacity="1" id="tri_1_3_" d="M-46.7302 0.123724 L-45.6787 0.748071 L-44.6273 1.37242 L-43.5758 1.99677 L-42.5243 2.62111 L-41.4729 3.24546 L-42.538 3.84294 L-43.6032 4.44043 L-44.6684 5.03791 L-45.7336 5.6354 L-46.7988 6.23288 L-46.7851 5.01105 L-46.7714 3.78922 L-46.7576 2.56739 L-46.7439 1.34556 L-46.7302 0.123724 Z " />
<path stroke="rgb(200,255,200)" stroke-opacity="1" fill="rgb(200,255,200)" fill-opacity="1" id="tri_0_3_" d="M-44.4074 3.55537 L-45.4732 3.04121 L-46.5389 2.52705 L-47.6047 2.01288 L-48.6704 1.49872 L-49.7362 0.984552 L-48.7592 0.319206 L-47.7822 -0.34614 L-46.8052 -1.01149 L-45.8282 -1.67683 L-44.8512 -2.34218 L-44.7625 -1.16267 L-44.6737 0.0168423 L-44.5849 1.19635 L-44.4962 2.37586 L-44.4074 3.55537 Z " />
<path stroke="rgb(200,255,200)" stroke-opacity="1" fill="rgb(200,255,200)" fill-opacity="1" id="tri_2_3_" d="M-37.7881 3.49146 L-36.7598 4.22385 L-35.7315 4.95624 L-34.7032 5.68863 L-33.6749 6.42101 L-32.6466 7.1534 L-33.794 7.67736 L-34.9413 8.20131 L-36.0886 8.72526 L-37.2359 9.24921 L-38.3832 9.77317 L-38.2642 8.51683 L-38.1452 7.26048 L-38.0261 6.00414 L-37.9071 4.7478 L-37.7881 3.49146 Z " />
<path stroke="rgb(200,255,200)" stroke-opacity="1" fill="rgb(200,255,200)" fill-opacity="1" id="tri_1_2_" d="M-35.5134 6.00066 L-36.5648 5.37656 L-37.6163 4.75246 L-38.6678 4.12836 L-39.7192 3.50425 L-40.7707 2.88015 L-39.7055 2.28267 L-38.6403 1.68518 L-37.5752 1.0877 L-36.51 0.490215 L-35.4448 -0.107269 L-35.4585 1.11432 L-35.4722 2.3359 L-35.4859 3.55749 L-35.4996 4.77908 L-35.5134 6.00066 Z " />
<path stroke="rgb(200,255,200)" stroke-opacity="1" fill="rgb(200,255,200)" fill-opacity="1" id="tri_3_3_" d="M-29.0037 9.07939 L-28.0031 9.90808 L-27.0025 10.7368 L-26.002 11.5654 L-25.0014 12.3941 L-24.0008 13.2228 L-25.218 13.6739 L-26.4352 14.125 L-27.6524 14.5761 L-28.8696 15.0271 L-30.0867 15.4782 L-29.8701 14.1985 L-29.6535 12.9187 L-29.4369 11.6389 L-29.2203 10.3592 L-29.0037 9.07939 Z " />
<path stroke="rgb(200,255,200)" stroke-opacity="1" fill="rgb(200,255,200)" fill-opacity="1" id="tri_2_2_" d="M-26.7454 10.5011 L-27.7742 9.76864 L-28.803 9.03621 L-29.8318 8.30377 L-30.8606 7.57133 L-31.8894 6.8389 L-30.7421 6.31494 L-29.5947 5.79099 L-28.4474 5.26704 L-27.3001 4.74308 L-26.1528 4.21913 L-26.2713 5.47552 L-26.3898 6.73191 L-26.5084 7.9883 L-26.6269 9.24469 L-26.7454 10.5011 Z " />
<path stroke="rgb(200,255,200)" stroke-opacity="1" fill="rgb(200,255,200)" fill-opacity="1" id="tri_4_3_" d="M-20.5677 16.5694 L-19.5996 17.4837 L-18.6316 18.398 L-17.6635 19.3124 L-16.6955 20.2267 L-15.7274 21.1411 L-17.0014 21.5218 L-18.2754 21.9025 L-19.5493 22.2833 L-20.8233 22.664 L-22.0973 23.0448 L-21.7913 21.7497 L-21.4854 20.4546 L-21.1795 19.1595 L-20.8736 17.8644 L-20.5677 16.5694 Z " />
<path stroke="rgb(200,255,200)" stroke-opacity="1" fill="rgb(200,255,200)" fill-opacity="1" id="tri_3_2_" d="M-18.2026 17.1032 L-19.2028 16.2743 L-20.2031 15.4454 L-21.2034 14.6165 L-22.2036 13.7876 L-23.2039 12.9587 L-21.9867 12.5076 L-20.7695 12.0565 L-19.5523 11.6054 L-18.3352 11.1544 L-17.118 10.7033 L-17.3349 11.9833 L-17.5518 13.2632 L-17.7687 14.5432 L-17.9856 15.8232 L-18.2026 17.1032 Z " />
<path stroke="rgb(200,255,200)" stroke-opacity="1" fill="rgb(200,255,200)" fill-opacity="1" id="tri_5_3_" d="M-12.5516 25.6736 L-11.6168 26.6614 L-10.6819 27.6491 L-9.74709 28.6369 L-8.81225 29.6246 L-7.87742 30.6123 L-9.19925 30.9276 L-10.5211 31.2428 L-11.8429 31.5581 L-13.1647 31.8733 L-14.4866 32.1885 L-14.0996 30.8856 L-13.7126 29.5826 L-13.3256 28.2796 L-12.9386 26.9766 L-12.5516 25.6736 Z " />
<path stroke="rgb(200,255,200)" stroke-opacity="1" fill="rgb(200,255,200)" fill-opacity="1" id="tri_4_2_" d="M-10.0473 25.4921 L-11.0151 24.5782 L-11.9829 23.6643 L-12.9506 22.7505 L-13.9184 21.8366 L-14.8861 20.9228 L-13.6121 20.542 L-12.3382 20.1613 L-11.0642 19.7806 L-9.79026 19.3998 L-8.51629 19.0191 L-8.8225 20.3137 L-9.12871 21.6083 L-9.43492 22.9029 L-9.74114 24.1975 L-10.0473 25.4921 Z " />
<path stroke="rgb(200,255,200)" stroke-opacity="1" fill="rgb(200,255,200)" fill-opacity="1" id="tri_6_3_" d="M-4.97369 36.0922 L-4.07086 37.1435 L-3.16803 38.1947 L-2.2652 39.2459 L-1.36237 40.2972 L-0.459544 41.3484 L-1.81968 41.6045 L-3.17981 41.8607 L-4.53994 42.1168 L-5.90007 42.3729 L-7.26021 42.6291 L-6.8029 41.3217 L-6.3456 40.0143 L-5.88829 38.707 L-5.43099 37.3996 L-4.97369 36.0922 Z " />
<path stroke="rgb(200,255,200)" stroke-opacity="1" fill="rgb(200,255,200)" fill-opacity="1" id="tri_5_2_" d="M-2.33274 35.3807 L-3.26759 34.3925 L-4.20244 33.4044 L-5.13729 32.4162 L-6.07214 31.428 L-7.00699 30.4398 L-5.68516 30.1246 L-4.36333 29.8094 L-3.0415 29.4941 L-1.71967 29.1789 L-0.39784 28.8636 L-0.78482 30.167 L-1.1718 31.4705 L-1.55878 32.7739 L-1.94576 34.0773 L-2.33274 35.3807 Z " />
<path stroke="rgb(200,255,200)" stroke-opacity="1" fill="rgb(200,255,200)" fill-opacity="1" id="tri_7_3_" d="M2.2006 47.5551 L3.07299 48.6598 L3.94538 49.7646 L4.81778 50.8693 L5.69017 51.9741 L6.56256 53.0788 L5.17146 53.2814 L3.78036 53.4839 L2.38925 53.6865 L0.998148 53.889 L-0.392955 54.0916 L0.125755 52.7843 L0.644465 51.477 L1.16318 50.1697 L1.68189 48.8624 L2.2006 47.5551 Z " />
<path stroke="rgb(200,255,200)" stroke-opacity="1" fill="rgb(200,255,200)" fill-opacity="1" id="tri_6_2_" d="M4.9538 46.4725 L4.05084 45.4212 L3.14788 44.3699 L2.24492 43.3187 L1.34197 42.2674 L0.439008 41.2161 L1.79914 40.96 L3.15927 40.7038 L4.51941 40.4477 L5.87954 40.1915 L7.23967 39.9354 L6.7825 41.2428 L6.32532 42.5502 L5.86815 43.8577 L5.41097 45.1651 L4.9538 46.4725 Z " />
<path stroke="rgb(200,255,200)" stroke-opacity="1" fill="rgb(200,255,200)" fill-opacity="1" id="tri_8_2_" d="M9.06373 59.8019 L9.90915 60.9503 L10.7546 62.0988 L11.6 63.2472 L12.4454 64.3956 L13.2908 65.544 L11.8747 65.7019 L10.4586 65.8598 L9.04256 66.0176 L7.62647 66.1755 L6.21038 66.3334 L6.78105 65.0271 L7.35172 63.7208 L7.92239 62.4145 L8.49306 61.1082 L9.06373 59.8019 Z " />
<path stroke="rgb(200,255,200)" stroke-opacity="1" fill="rgb(200,255,200)" fill-opacity="1" id="tri_7_2_" d="M11.8427 58.502 L10.9703 57.3976 L10.0979 56.2931 L9.22558 55.1887 L8.35321 54.0842 L7.48084 52.9798 L8.87195 52.7772 L10.2631 52.5747 L11.6542 52.3721 L13.0453 52.1696 L14.4364 51.967 L13.9176 53.274 L13.3989 54.581 L12.8802 55.888 L12.3614 57.195 L11.8427 58.502 Z " />
<path stroke="rgb(200,255,200)" stroke-opacity="1" fill="rgb(200,255,200)" fill-opacity="1" id="tri_0_2_" d="M-65.5398 5.4886 L-64.474 6.00241 L-63.4083 6.51622 L-62.3426 7.03003 L-61.2769 7.54384 L-60.2112 8.05765 L-61.1881 8.72323 L-62.1651 9.38881 L-63.1421 10.0544 L-64.1191 10.72 L-65.096 11.3856 L-65.1848 10.2062 L-65.2735 9.02678 L-65.3623 7.84739 L-65.451 6.668 L-65.5398 5.4886 Z " />
<path stroke="rgb(200,255,200)" stroke-opacity="1" fill="rgb(200,255,200)" fill-opacity="1" id="tri_1_1_" d="M-57.4473 6.11905 L-56.3956 6.74304 L-55.3439 7.36702 L-54.2922 7.991 L-53.2404 8.61498 L-52.1887 9.23897 L-53.2539 9.83706 L-54.3191 10.4352 L-55.3843 11.0333 L-56.4495 11.6314 L-57.5147 12.2295 L-57.5012 11.0074 L-57.4877 9.7853 L-57.4743 8.56322 L-57.4608 7.34113 L-57.4473 6.11905 Z " />
<path stroke="rgb(200,255,200)" stroke-opacity="1" fill="rgb(200,255,200)" fill-opacity="1" id="tri_0_1_" d="M-54.2372 10.2216 L-55.3032 9.70776 L-56.3692 9.19397 L-57.4351 8.68018 L-58.5011 8.16639 L-59.567 7.65259 L-58.5901 6.98701 L-57.6131 6.32143 L-56.6361 5.65585 L-55.6591 4.99026 L-54.6822 4.32468 L-54.5932 5.50406 L-54.5042 6.68343 L-54.4152 7.8628 L-54.3262 9.04218 L-54.2372 10.2216 Z " />
<path stroke="rgb(200,255,200)" stroke-opacity="1" fill="rgb(200,255,200)" fill-opacity="1" id="tri_2_1_" d="M-49.33 8.74445 L-48.3017 9.47646 L-47.2734 10.2085 L-46.2451 10.9405 L-45.2167 11.6725 L-44.1884 12.4045 L-45.3361 12.9287 L-46.4838 13.4528 L-47.6315 13.977 L-48.7793 14.5012 L-49.927 15.0253 L-49.8076 13.7692 L-49.6882 12.513 L-49.5688 11.2568 L-49.4494 10.0006 L-49.33 8.74445 Z " />
<path stroke="rgb(200,255,200)" stroke-opacity="1" fill="rgb(200,255,200)" fill-opacity="1" id="tri_1" d="M-46.2296 11.9946 L-47.2811 11.3708 L-48.3326 10.7471 L-49.3841 10.1234 L-50.4355 9.49965 L-51.487 8.87592 L-50.4218 8.27782 L-49.3566 7.67972 L-48.2914 7.08162 L-47.2262 6.48352 L-46.161 5.88543 L-46.1748 7.10726 L-46.1885 8.32909 L-46.2022 9.55092 L-46.2159 10.7728 L-46.2296 11.9946 Z " />
<path stroke="rgb(200,255,200)" stroke-opacity="1" fill="rgb(200,255,200)" fill-opacity="1" id="tri_3_1_" d="M-41.2447 13.6008 L-40.2442 14.4292 L-39.2437 15.2576 L-38.2432 16.086 L-37.2427 16.9144 L-36.2422 17.7428 L-37.4589 18.1941 L-38.6756 18.6454 L-39.8923 19.0967 L-41.109 19.548 L-42.3257 19.9993 L-42.1095 18.7196 L-41.8933 17.4399 L-41.6771 16.1602 L-41.4609 14.8805 L-41.2447 13.6008 Z " />
<path stroke="rgb(200,255,200)" stroke-opacity="1" fill="rgb(200,255,200)" fill-opacity="1" id="tri_2" d="M-38.2911 15.7534 L-39.3198 15.0213 L-40.3484 14.2891 L-41.3771 13.5569 L-42.4058 12.8248 L-43.4345 12.0926 L-42.2868 11.5684 L-41.1391 11.0442 L-39.9914 10.5201 L-38.8437 9.9959 L-37.6959 9.47174 L-37.815 10.7281 L-37.934 11.9844 L-38.053 13.2408 L-38.172 14.4971 L-38.2911 15.7534 Z " />
<path stroke="rgb(200,255,200)" stroke-opacity="1" fill="rgb(200,255,200)" fill-opacity="1" id="tri_4_1_" d="M-33.3925 20.3826 L-32.4246 21.2965 L-31.4567 22.2104 L-30.4889 23.1243 L-29.521 24.0382 L-28.5531 24.9521 L-29.8271 25.3329 L-31.1011 25.7138 L-32.3751 26.0947 L-33.6491 26.4755 L-34.9231 26.8564 L-34.617 25.5617 L-34.3108 24.2669 L-34.0047 22.9721 L-33.6986 21.6774 L-33.3925 20.3826 Z " />
<path stroke="rgb(200,255,200)" stroke-opacity="1" fill="rgb(200,255,200)" fill-opacity="1" id="tri_3" d="M-30.444 21.6214 L-31.4441 20.7929 L-32.4442 19.9645 L-33.4443 19.136 L-34.4444 18.3075 L-35.4444 17.4791 L-34.2277 17.0278 L-33.0111 16.5765 L-31.7944 16.1252 L-30.5777 15.6739 L-29.361 15.2226 L-29.5776 16.5023 L-29.7942 17.7821 L-30.0108 19.0619 L-30.2274 20.3416 L-30.444 21.6214 Z " />
<path stroke="rgb(200,255,200)" stroke-opacity="1" fill="rgb(200,255,200)" fill-opacity="1" id="tri_5_1_" d="M-25.8563 28.8275 L-24.9212 29.8157 L-23.9861 30.8038 L-23.0509 31.7919 L-22.1158 32.78 L-21.1806 33.7681 L-22.5027 34.0833 L-23.8248 34.3985 L-25.1469 34.7136 L-26.469 35.0288 L-27.7911 35.344 L-27.4041 34.0407 L-27.0172 32.7374 L-26.6302 31.4341 L-26.2433 30.1308 L-25.8563 28.8275 Z " />
<path stroke="rgb(200,255,200)" stroke-opacity="1" fill="rgb(200,255,200)" fill-opacity="1" id="tri_4" d="M-22.8714 29.305 L-23.8395 28.3908 L-24.8076 27.4766 L-25.7757 26.5624 L-26.7437 25.6482 L-27.7118 24.734 L-26.4378 24.3531 L-25.1638 23.9723 L-23.8898 23.5914 L-22.6158 23.2105 L-21.3418 22.8296 L-21.6478 24.1247 L-21.9537 25.4198 L-22.2596 26.7149 L-22.5655 28.01 L-22.8714 29.305 Z " />
<path stroke="rgb(200,255,200)" stroke-opacity="1" fill="rgb(200,255,200)" fill-opacity="1" id="tri_6_1_" d="M-18.668 38.6506 L-17.7649 39.7015 L-16.8618 40.7524 L-15.9587 41.8032 L-15.0556 42.8541 L-14.1525 43.905 L-15.513 44.1616 L-16.8734 44.4182 L-18.2339 44.6749 L-19.5943 44.9315 L-20.9548 45.1881 L-20.4974 43.8806 L-20.0401 42.5731 L-19.5827 41.2656 L-19.1254 39.9581 L-18.668 38.6506 Z " />
<path stroke="rgb(200,255,200)" stroke-opacity="1" fill="rgb(200,255,200)" fill-opacity="1" id="tri_5" d="M-15.6362 38.5333 L-16.5713 37.5455 L-17.5064 36.5577 L-18.4415 35.5699 L-19.3766 34.5821 L-20.3117 33.5943 L-18.9896 33.2791 L-17.6675 32.9639 L-16.3454 32.6488 L-15.0233 32.3336 L-13.7012 32.0184 L-14.0882 33.3214 L-14.4752 34.6244 L-14.8622 35.9274 L-15.2492 37.2304 L-15.6362 38.5333 Z " />
<path stroke="rgb(200,255,200)" stroke-opacity="1" fill="rgb(200,255,200)" fill-opacity="1" id="tri_7_1_" d="M-11.8098 49.5818 L-10.9372 50.686 L-10.0646 51.7902 L-9.19196 52.8945 L-8.31936 53.9987 L-7.44675 55.1029 L-8.83828 55.3058 L-10.2298 55.5086 L-11.6213 55.7115 L-13.0128 55.9143 L-14.4044 56.1171 L-13.8855 54.8101 L-13.3665 53.503 L-12.8476 52.1959 L-12.3287 50.8888 L-11.8098 49.5818 Z " />
<path stroke="rgb(200,255,200)" stroke-opacity="1" fill="rgb(200,255,200)" fill-opacity="1" id="tri_6" d="M-8.74113 49.0284 L-9.64428 47.9777 L-10.5474 46.9269 L-11.4506 45.8761 L-12.3537 44.8254 L-13.2569 43.7746 L-11.8964 43.518 L-10.536 43.2614 L-9.17551 43.0048 L-7.81506 42.7482 L-6.45461 42.4916 L-6.91192 43.7989 L-7.36922 45.1063 L-7.82652 46.4137 L-8.28383 47.721 L-8.74113 49.0284 Z " />
<path stroke="rgb(200,255,200)" stroke-opacity="1" fill="rgb(200,255,200)" fill-opacity="1" id="tri_8_1_" d="M-5.19612 61.368 L-4.35026 62.5165 L-3.50439 63.6649 L-2.65852 64.8134 L-1.81265 65.9619 L-0.966777 67.1103 L-2.38306 67.2683 L-3.79934 67.4262 L-5.21562 67.5841 L-6.63189 67.7421 L-8.04818 67.9 L-7.47776 66.5936 L-6.90735 65.2872 L-6.33695 63.9808 L-5.76654 62.6744 L-5.19612 61.368 Z " />
<path stroke="rgb(200,255,200)" stroke-opacity="1" fill="rgb(200,255,200)" fill-opacity="1" id="tri_7" d="M-2.16719 60.5269 L-3.04 59.4224 L-3.91282 58.318 L-4.78563 57.2135 L-5.65844 56.109 L-6.53126 55.0045 L-5.13973 54.8017 L-3.74821 54.5989 L-2.35669 54.396 L-0.965161 54.1932 L0.426362 53.9903 L-0.0923481 55.2976 L-0.611059 56.605 L-1.12977 57.9123 L-1.64848 59.2196 L-2.16719 60.5269 Z " />
<path stroke="rgb(200,255,200)" stroke-opacity="1" fill="rgb(200,255,200)" fill-opacity="1" id="tri_9" d="M1.21895 73.8125 L2.03991 74.9973 L2.86087 76.1821 L3.68183 77.3669 L4.50279 78.5516 L5.32375 79.7364 L3.88878 79.8548 L2.45381 79.9731 L1.01884 80.0914 L-0.416128 80.2097 L-1.8511 80.3281 L-1.23709 79.025 L-0.623077 77.7219 L-0.00906656 76.4188 L0.604943 75.1156 L1.21895 73.8125 Z " />
<path stroke="rgb(200,255,200)" stroke-opacity="1" fill="rgb(200,255,200)" fill-opacity="1" id="tri_8" d="M4.19262 72.789 L3.34702 71.6406 L2.50141 70.4923 L1.6558 69.3439 L0.810192 68.1956 L-0.0354153 67.0472 L1.38087 66.8893 L2.79714 66.7314 L4.21342 66.5734 L5.6297 66.4155 L7.04598 66.2575 L6.47531 67.5638 L5.90464 68.8701 L5.33397 70.1764 L4.7633 71.4827 L4.19262 72.789 Z " />
</g>
</g>
</svg>
