<!DOCTYPE svg>
<svg xmlns="http://www.w3.org/2000/svg" xmlns:xlink="http://www.w3.org/1999/xlink" width="600" height="600">
<g transform="translate(300.000000,300.000000)">
<g transform="scale(3.000000,3.000000)">
<path stroke="rgb(0,0,0)" stroke-opacity="1" fill="rgb(255,255,255)" fill-opacity="1" id="Layer_1" d="M107.411 107.089 L105.406 107.092 L103.402 107.095 L101.397 107.098 L99.3922 107.101 L97.3875 107.104 L95.3828 107.107 L93.3782 107.11 L91.3735 107.113 L89.3688 107.116 L87.3641 107.119 L85.3595 107.122 L83.3548 107.125 L81.3501 107.128 L79.3455 107.131 L77.3408 107.134 L75.3361 107.137 L73.3314 107.14 L71.3268 107.143 L69.3221 107.146 L67.3174 107.149 L65.3127 107.152 L63.3081 107.155 L61.3034 107.158 L59.2987 107.161 L57.2941 107.164 L55.2894 107.167 L53.2847 107.17 L51.28 107.173 L49.2754 107.176 L47.2707 107.179 L45.266 107.182 L43.2613 107.185 L41.2567 107.188 L39.252 107.191 L37.2473 107.194 L35.2426 107.197 L33.238 107.2 L31.2333 107.203 L29.2286 107.206 L27.224 107.209 L25.2193 107.212 L23.2146 107.215 L21.2099 107.218 L19.2053 107.221 L17.2006 107.224 L15.1959 107.227 L13.1912 107.23 L11.1866 107.233 L9.1819 107.236 L7.17723 107.239 L5.17256 107.242 L3.16788 107.245 L1.16321 107.248 L-0.841463 107.252 L-2.84614 107.255 L-4.85081 107.258 L-6.85548 107.261 L-8.86015 107.264 L-10.8648 107.267 L-12.8695 107.27 L-14.8742 107.273 L-16.8788 107.276 L-18.8835 107.279 L-20.8882 107.282 L-22.8929 107.285 L-24.8975 107.288 L-26.9022 107.291 L-28.9069 107.294 L-30.9116 107.297 L-32.9162 107.3 L-34.9209 107.303 L-36.9256 107.306 L-38.9302 107.309 L-40.9349 107.312 L-42.9396 107.315 L-44.9443 107.318 L-46.9489 107.321 L-48.9536 107.324 L-50.9583 107.327 L-52.963 107.33 L-54.9676 107.333 L-56.9723 107.336 L-58.977 107.339 L-60.9816 107.342 L-62.9863 107.345 L-64.991 107.348 L-66.9957 107.351 L-69.0003 107.354 L-71.005 107.357 L-73.0097 107.36 L-75.0144 107.363 L-77.019 107.366 L-79.0237 107.369 L-81.0284 107.372 L-83.0331 107.375 L-85.0377 107.378 L-87.0424 107.381 L-89.0471 107.384 L-91.0517 107.387 L-93.0564 107.39 L-95.0611 107.393 L-97.0658 107.396 L-99.0704 107.399 L-101.075 107.402 L-103.08 107.405 L-105.084 107.408 L-107.089 107.411 L-107.092 105.406 L-107.095 103.402 L-107.098 101.397 L-107.101 99.3922 L-107.104 97.3875 L-107.107 95.3828 L-107.11 93.3782 L-107.113 91.3735 L-107.116 89.3688 L-107.119 87.3641 L-107.122 85.3595 L-107.125 83.3548 L-107.128 81.3501 L-107.131 79.3455 L-107.134 77.3408 L-107.137 75.3361 L-107.14 73.3314 L-107.143 71.3268 L-107.146 69.3221 L-107.149 67.3174 L-107.152 65.3127 L-107.155 63.3081 L-107.158 61.3034 L-107.161 59.2987 L-107.164 57.2941 L-107.167 55.2894 L-107.17 53.2847 L-107.173 51.28 L-107.176 49.2754 L-107.179 47.2707 L-107.182 45.266 L-107.185 43.2613 L-107.188 41.2567 L-107.191 39.252 L-107.194 37.2473 L-107.197 35.2426 L-107.2 33.238 L-107.203 31.2333 L-107.206 29.2286 L-107.209 27.224 L-107.212 25.2193 L-107.215 23.2146 L-107.218 21.2099 L-107.221 19.2053 L-107.224 17.2006 L-107.227 15.1959 L-107.23 13.1912 L-107.233 11.1866 L-107.236 9.1819 L-107.239 7.17722 L-107.242 5.17255 L-107.245 3.16788 L-107.248 1.1632 L-107.251 -0.841469 L-107.255 -2.84614 L-107.258 -4.85081 L-107.261 -6.85549 L-107.264 -8.86016 L-107.267 -10.8648 L-107.27 -12.8695 L-107.273 -14.8742 L-107.276 -16.8789 L-107.279 -18.8835 L-107.282 -20.8882 L-107.285 -22.8929 L-107.288 -24.8975 L-107.291 -26.9022 L-107.294 -28.9069 L-107.297 -30.9116 L-107.3 -32.9162 L-107.303 -34.9209 L-107.306 -36.9256 L-107.309 -38.9303 L-107.312 -40.9349 L-107.315 -42.9396 L-107.318 -44.9443 L-107.321 -46.9489 L-107.324 -48.9536 L-107.327 -50.9583 L-107.33 -52.963 L-107.333 -54.9676 L-107.336 -56.9723 L-107.339 -58.977 L-107.342 -60.9817 L-107.345 -62.9863 L-107.348 -64.991 L-107.351 -66.9957 L-107.354 -69.0003 L-107.357 -71.005 L-107.36 -73.0097 L-107.363 -75.0144 L-107.366 -77.019 L-107.369 -79.0237 L-107.372 -81.0284 L-107.375 -83.0331 L-107.378 -85.0377 L-107.381 -87.0424 L-107.384 -89.0471 L-107.387 -91.0518 L-107.39 -93.0564 L-107.393 -95.0611 L-107.396 -97.0658 L-107.399 -99.0704 L-107.402 -101.075 L-107.405 -103.08 L-107.408 -105.084 L-107.411 -107.089 L-105.406 -107.092 L-103.402 -107.095 L-101.397 -107.098 L-99.3922 -107.101 L-97.3875 -107.104 L-95.3828 -107.107 L-93.3782 -107.11 L-91.3735 -107.113 L-89.3688 -107.116 L-87.3641 -107.119 L-85.3595 -107.122 L-83.3548 -107.125 L-81.3501 -107.128 L-79.3455 -107.131 L-77.3408 -107.134 L-75.3361 -107.137 L-73.3314 -107.14 L-71.3268 -107.143 L-69.3221 -107.146 L-67.3174 -107.149 L-65.3127 -107.152 L-63.3081 -107.155 L-61.3034 -107.158 L-59.2987 -107.161 L-57.2941 -107.164 L-55.2894 -107.167 L-53.2847 -107.17 L-51.28 -107.173 L-49.2754 -107.176 L-47.2707 -107.179 L-45.266 -107.182 L-43.2613 -107.185 L-41.2567 -107.188 L-39.252 -107.191 L-37.2473 -107.194 L-35.2426 -107.197 L-33.238 -107.2 L-31.2333 -107.203 L-29.2286 -107.206 L-27.224 -107.209 L-25.2193 -107.212 L-23.2146 -107.215 L-21.2099 -107.218 L-19.2053 -107.221 L-17.2006 -107.224 L-15.1959 -107.227 L-13.1912 -107.23 L-11.1866 -107.233 L-9.1819 -107.236 L-7.17723 -107.239 L-5.17256 -107.242 L-3.16788 -107.245 L-1.16321 -107.248 L0.841463 -107.252 L2.84614 -107.255 L4.85081 -107.258 L6.85548 -107.261 L8.86015 -107.264 L10.8648 -107.267 L12.8695 -107.27 L14.8742 -107.273 L16.8788 -107.276 L18.8835 -107.279 L20.8882 -107.282 L22.8929 -107.285 L24.8975 -107.288 L26.9022 -107.291 L28.9069 -107.294 L30.9116 -107.297 L32.9162 -107.3 L34.9209 -107.303 L36.9256 -107.306 L38.9302 -107.309 L40.9349 -107.312 L42.9396 -107.315 L44.9443 -107.318 L46.9489 -107.321 L48.9536 -107.324 L50.9583 -107.327 L52.963 -107.33 L54.9676 -107.333 L56.9723 -107.336 L58.977 -107.339 L60.9816 -107.342 L62.9863 -107.345 L64.991 -107.348 L66.9957 -107.351 L69.0003 -107.354 L71.005 -107.357 L73.0097 -107.36 L75.0144 -107.363 L77.019 -107.366 L79.0237 -107.369 L81.0284 -107.372 L83.0331 -107.375 L85.0377 -107.378 L87.0424 -107.381 L89.0471 -107.384 L91.0517 -107.387 L93.0564 -107.39 L95.0611 -107.393 L97.0658 -107.396 L99.0704 -107.399 L101.075 -107.402 L103.08 -107.405 L105.084 -107.408 L107.089 -107.411 L107.092 -105.406 L107.095 -103.402 L107.098 -101.397 L107.101 -99.3922 L107.104 -97.3875 L107.107 -95.3828 L107.11 -93.3782 L107.113 -91.3735 L107.116 -89.3688 L107.119 -87.3642 L107.122 -85.3595 L107.125 -83.3548 L107.128 -81.3501 L107.131 -79.3455 L107.134 -77.3408 L107.137 -75.3361 L107.14 -73.3314 L107.143 -71.3268 L107.146 -69.3221 L107.149 -67.3174 L107.152 -65.3128 L107.155 -63.3081 L107.158 -61.3034 L107.161 -59.2987 L107.164 -57.2941 L107.167 -55.2894 L107.17 -53.2847 L107.173 -51.28 L107.176 -49.2754 L107.179 -47.2707 L107.182 -45.266 L107.185 -43.2613 L107.188 -41.2567 L107.191 -39.252 L107.194 -37.2473 L107.197 -35.2427 L107.2 -33.238 L107.203 -31.2333 L107.206 -29.2286 L107.209 -27.224 L107.212 -25.2193 L107.215 -23.2146 L107.218 -21.2099 L107.221 -19.2053 L107.224 -17.2006 L107.227 -15.1959 L107.23 -13.1913 L107.233 -11.1866 L107.236 -9.18191 L107.239 -7.17724 L107.242 -5.17256 L107.245 -3.16789 L107.248 -1.16322 L107.251 0.841455 L107.255 2.84613 L107.258 4.8508 L107.261 6.85547 L107.264 8.86015 L107.267 10.8648 L107.27 12.8695 L107.273 14.8742 L107.276 16.8788 L107.279 18.8835 L107.282 20.8882 L107.285 22.8929 L107.288 24.8975 L107.291 26.9022 L107.294 28.9069 L107.297 30.9115 L107.3 32.9162 L107.303 34.9209 L107.306 36.9256 L107.309 38.9302 L107.312 40.9349 L107.315 42.9396 L107.318 44.9443 L107.321 46.9489 L107.324 48.9536 L107.327 50.9583 L107.33 52.963 L107.333 54.9676 L107.336 56.9723 L107.339 58.977 L107.342 60.9816 L107.345 62.9863 L107.348 64.991 L107.351 66.9957 L107.354 69.0003 L107.357 71.005 L107.36 73.0097 L107.363 75.0144 L107.366 77.019 L107.369 79.0237 L107.372 81.0284 L107.375 83.033 L107.378 85.0377 L107.381 87.0424 L107.384 89.0471 L107.387 91.0517 L107.39 93.0564 L107.393 95.0611 L107.396 97.0658 L107.399 99.0704 L107.402 101.075 L107.405 103.08 L107.408 105.084 L107.411 107.089 Z " />
<path stroke="rgb(169,255,187)" stroke-opacity="1" fill="rgb(169,255,187)" fill-opacity="1" id="scalebar" d="M-3.69904 -94.609 L-1.65554 -94.609 L0.387962 -94.609 L2.43146 -94.609 L4.47496 -94.609 L4.47496 -92.6686 L4.47496 -90.7281 L4.47496 -88.7876 L4.47496 -86.8472 L4.47496 -84.9067 L4.47496 -82.9663 L4.47496 -81.0258 L4.47496 -79.0853 L4.47496 -77.1449 L4.47496 -75.2044 L4.47496 -73.2639 L4.47496 -71.3235 L4.47496 -69.383 L2.43146 -69.383 L0.387962 -69.383 L-1.65554 -69.383 L-3.69904 -69.383 L-3.69904 -71.3235 L-3.69904 -73.2639 L-3.69904 -75.2044 L-3.69904 -77.1449 L-3.69904 -79.0853 L-3.69904 -81.0258 L-3.69904 -82.9663 L-3.69904 -84.9067 L-3.69904 -86.8472 L-3.69904 -88.7876 L-3.69904 -90.7281 L-3.69904 -92.6686 L-3.69904 -94.609 Z " />
<path stroke="rgb(200,255,200)" stroke-opacity="1" fill="rgb(200,255,200)" fill-opacity="1" id="scaleslider" d="M-6.69904 -75.9821 L-4.67418 -75.9821 L-2.64932 -75.9821 L-0.624466 -75.9821 L1.40039 -75.9821 L3.42525 -75.9821 L5.4501 -75.9821 L7.47496 -75.9821 L7.47496 -74.2554 L7.47496 -72.5288 L7.47496 -70.8021 L5.4501 -70.8021 L3.42525 -70.8021 L1.40039 -70.8021 L-0.624466 -70.8021 L-2.64932 -70.8021 L-4.67418 -70.8021 L-6.69904 -70.8021 L-6.69904 -72.5288 L-6.69904 -74.2554 L-6.69904 -75.9821 Z " />
<path stroke="rgb(255,134,106)" stroke-opacity="1" fill="rgb(255,134,106)" fill-opacity="1" id="tranbar" d="M-49.142 -86.146 L-47.0675 -86.146 L-44.993 -86.146 L-42.9185 -86.146 L-40.844 -86.146 L-40.844 -88.2208 L-40.844 -90.2955 L-40.844 -92.3703 L-40.844 -94.445 L-38.7685 -94.445 L-36.693 -94.445 L-34.6175 -94.445 L-32.542 -94.445 L-32.542 -92.3703 L-32.542 -90.2955 L-32.542 -88.2208 L-32.542 -86.146 L-30.4673 -86.146 L-28.3925 -86.146 L-26.3178 -86.146 L-24.243 -86.146 L-24.243 -84.0715 L-24.243 -81.997 L-24.243 -79.9225 L-24.243 -77.848 L-26.3178 -77.848 L-28.3925 -77.848 L-30.4673 -77.848 L-32.542 -77.848 L-32.542 -75.773 L-32.542 -73.698 L-32.542 -71.623 L-32.542 -69.548 L-34.6175 -69.548 L-36.693 -69.548 L-38.7685 -69.548 L-40.844 -69.548 L-40.844 -71.623 L-40.844 -73.698 L-40.844 -75.773 L-40.844 -77.848 L-42.9185 -77.848 L-44.993 -77.848 L-47.0675 -77.848 L-49.142 -77.848 L-49.142 -79.9225 L-49.142 -81.997 L-49.142 -84.0715 L-49.142 -86.146 Z " />
<path stroke="rgb(255,250,159)" stroke-opacity="1" fill="rgb(255,250,159)" fill-opacity="1" id="translider" d="M-39.248 -84.553 L-37.5447 -84.553 L-35.8414 -84.553 L-34.138 -84.553 L-34.138 -82.85 L-34.138 -81.147 L-34.138 -79.444 L-35.8414 -79.444 L-37.5447 -79.444 L-39.248 -79.444 L-39.248 -81.147 L-39.248 -82.85 L-39.248 -84.553 Z " />
<path stroke="rgb(254,204,128)" stroke-opacity="1" fill="rgb(254,204,128)" fill-opacity="1" id="rotate" d="M46.5811 -80.8709 L45.4707 -79.3003 L44.3602 -77.7297 L43.2497 -76.1591 L42.1393 -74.5885 L41.0288 -73.0179 L39.1132 -73.1946 L37.1977 -73.3713 L35.2821 -73.548 L33.3666 -73.7247 L31.451 -73.9014 L30.6461 -75.6488 L29.8412 -77.3962 L29.0363 -79.1435 L28.2314 -80.8909 L27.4265 -82.6383 L28.5372 -84.209 L29.6478 -85.7796 L30.7585 -87.3503 L31.8691 -88.921 L32.9798 -90.4917 L34.8952 -90.3149 L36.8105 -90.1381 L38.7259 -89.9613 L40.6413 -89.7845 L42.5566 -89.6078 L43.3615 -87.8604 L44.1664 -86.113 L44.9713 -84.3656 L45.7762 -82.6183 L46.5811 -80.8709 Z " />
<path stroke="rgb(200,255,200)" stroke-opacity="1" fill="rgb(200,255,200)" fill-opacity="1" id="tri_0" d="M-2.9641 -49.3973 L-1.91023 -49.5034 L-0.856352 -49.6094 L0.197524 -49.7155 L1.2514 -49.8216 L2.30528 -49.9277 L1.87097 -48.963 L1.43666 -47.9984 L1.00236 -47.0337 L0.568051 -46.069 L0.133745 -45.1044 L-0.485825 -45.9629 L-1.10539 -46.8215 L-1.72496 -47.6801 L-2.34453 -48.5387 L-2.9641 -49.3973 Z " />
<path stroke="rgb(200,255,200)" stroke-opacity="1" fill="rgb(200,255,200)" fill-opacity="1" id="tri_0_18_" d="M-7.93837 -40.7616 L-6.88481 -40.8682 L-5.83124 -40.9747 L-4.77768 -41.0812 L-3.72411 -41.1877 L-2.67055 -41.2942 L-3.10482 -40.3293 L-3.53908 -39.3644 L-3.97335 -38.3995 L-4.40762 -37.4346 L-4.84189 -36.4697 L-5.46119 -37.3281 L-6.08048 -38.1865 L-6.69978 -39.0449 L-7.31908 -39.9033 L-7.93837 -40.7616 Z " />
<path stroke="rgb(200,255,200)" stroke-opacity="1" fill="rgb(200,255,200)" fill-opacity="1" id="tri_1_16_" d="M2.10541 -40.8185 L3.14291 -40.8951 L4.18041 -40.9717 L5.21792 -41.0483 L6.25542 -41.1249 L7.29292 -41.2015 L6.84095 -40.2656 L6.38898 -39.3297 L5.93701 -38.3938 L5.48504 -37.4579 L5.03307 -36.522 L4.44754 -37.3813 L3.86201 -38.2406 L3.27647 -39.0999 L2.69094 -39.9592 L2.10541 -40.8185 Z " />
<path stroke="rgb(200,255,200)" stroke-opacity="1" fill="rgb(200,255,200)" fill-opacity="1" id="tri_0_17_" d="M2.89269 -41.6528 L1.83885 -41.5465 L0.785016 -41.4402 L-0.268822 -41.3339 L-1.32266 -41.2275 L-2.3765 -41.1212 L-1.94223 -42.0861 L-1.50796 -43.051 L-1.07369 -44.0159 L-0.639425 -44.9808 L-0.205157 -45.9457 L0.414413 -45.0872 L1.03398 -44.2286 L1.65355 -43.37 L2.27312 -42.5114 L2.89269 -41.6528 Z " />
<path stroke="rgb(200,255,200)" stroke-opacity="1" fill="rgb(200,255,200)" fill-opacity="1" id="tri_0_16_" d="M-12.9138 -32.1257 L-11.8597 -32.232 L-10.8057 -32.3384 L-9.7516 -32.4448 L-8.69753 -32.5511 L-7.64346 -32.6575 L-8.07813 -31.6924 L-8.51281 -30.7274 L-8.94748 -29.7623 L-9.38216 -28.7972 L-9.81684 -27.8322 L-10.4362 -28.6909 L-11.0556 -29.5496 L-11.675 -30.4083 L-12.2944 -31.267 L-12.9138 -32.1257 Z " />
<path stroke="rgb(200,255,200)" stroke-opacity="1" fill="rgb(200,255,200)" fill-opacity="1" id="tri_1_15_" d="M-2.86935 -32.1804 L-1.8317 -32.2573 L-0.794057 -32.3343 L0.243588 -32.4113 L1.28123 -32.4882 L2.31888 -32.5652 L1.86671 -31.629 L1.41454 -30.6928 L0.962369 -29.7567 L0.5102 -28.8205 L0.0580313 -27.8843 L-0.527444 -28.7436 L-1.11292 -29.6028 L-1.6984 -30.462 L-2.28387 -31.3212 L-2.86935 -32.1804 Z " />
<path stroke="rgb(200,255,200)" stroke-opacity="1" fill="rgb(200,255,200)" fill-opacity="1" id="tri_0_15_" d="M-2.08164 -33.0177 L-3.13562 -32.9111 L-4.18959 -32.8044 L-5.24356 -32.6977 L-6.29754 -32.591 L-7.35151 -32.4843 L-6.91683 -33.4494 L-6.48216 -34.4145 L-6.04748 -35.3795 L-5.6128 -36.3446 L-5.17813 -37.3097 L-4.55883 -36.4513 L-3.93953 -35.5929 L-3.32024 -34.7345 L-2.70094 -33.8761 L-2.08164 -33.0177 Z " />
<path stroke="rgb(200,255,200)" stroke-opacity="1" fill="rgb(200,255,200)" fill-opacity="1" id="tri_2_14_" d="M7.15843 -32.2241 L8.18278 -32.2781 L9.20712 -32.3321 L10.2315 -32.386 L11.2558 -32.44 L12.2801 -32.4939 L11.8146 -31.5809 L11.3491 -30.6679 L10.8836 -29.7548 L10.4181 -28.8418 L9.95261 -27.9288 L9.39378 -28.7878 L8.83494 -29.6469 L8.27611 -30.506 L7.71727 -31.3651 L7.15843 -32.2241 Z " />
<path stroke="rgb(200,255,200)" stroke-opacity="1" fill="rgb(200,255,200)" fill-opacity="1" id="tri_1_14_" d="M7.8056 -32.9781 L6.7679 -32.9012 L5.7302 -32.8243 L4.6925 -32.7475 L3.6548 -32.6706 L2.61709 -32.5937 L3.06926 -33.5299 L3.52143 -34.4661 L3.9736 -35.4022 L4.42577 -36.3384 L4.87794 -37.2746 L5.46347 -36.4153 L6.049 -35.556 L6.63454 -34.6967 L7.22007 -33.8374 L7.8056 -32.9781 Z " />
<path stroke="rgb(200,255,200)" stroke-opacity="1" fill="rgb(200,255,200)" fill-opacity="1" id="tri_0_14_" d="M-17.8908 -23.4875 L-16.8367 -23.594 L-15.7826 -23.7005 L-14.7285 -23.807 L-13.6744 -23.9135 L-12.6203 -24.02 L-13.055 -23.0552 L-13.4897 -22.0904 L-13.9244 -21.1255 L-14.3591 -20.1607 L-14.7939 -19.1959 L-15.4132 -20.0542 L-16.0326 -20.9125 L-16.652 -21.7708 L-17.2714 -22.6291 L-17.8908 -23.4875 Z " />
<path stroke="rgb(200,255,200)" stroke-opacity="1" fill="rgb(200,255,200)" fill-opacity="1" id="tri_1_13_" d="M-7.84591 -23.5451 L-6.80814 -23.6215 L-5.77038 -23.6979 L-4.73261 -23.7743 L-3.69485 -23.8507 L-2.65708 -23.9271 L-3.10905 -22.9912 L-3.56102 -22.0553 L-4.01299 -21.1194 L-4.46496 -20.1835 L-4.91693 -19.2476 L-5.50272 -20.1071 L-6.08852 -20.9666 L-6.67432 -21.8261 L-7.26011 -22.6856 L-7.84591 -23.5451 Z " />
<path stroke="rgb(200,255,200)" stroke-opacity="1" fill="rgb(200,255,200)" fill-opacity="1" id="tri_0_13_" d="M-7.05746 -24.379 L-8.11157 -24.2729 L-9.16568 -24.1667 L-10.2198 -24.0606 L-11.2739 -23.9545 L-12.328 -23.8484 L-11.8933 -24.8132 L-11.4586 -25.778 L-11.0239 -26.7428 L-10.5892 -27.7077 L-10.1544 -28.6725 L-9.53505 -27.8138 L-8.91565 -26.9551 L-8.29625 -26.0964 L-7.67686 -25.2377 L-7.05746 -24.379 Z " />
<path stroke="rgb(200,255,200)" stroke-opacity="1" fill="rgb(200,255,200)" fill-opacity="1" id="tri_2_13_" d="M2.18429 -23.5879 L3.20837 -23.6417 L4.23245 -23.6955 L5.25654 -23.7493 L6.28062 -23.8031 L7.3047 -23.8569 L6.83937 -22.944 L6.37403 -22.031 L5.9087 -21.1181 L5.44337 -20.2052 L4.97803 -19.2922 L4.41928 -20.1514 L3.86054 -21.0105 L3.30179 -21.8696 L2.74304 -22.7288 L2.18429 -23.5879 Z " />
<path stroke="rgb(200,255,200)" stroke-opacity="1" fill="rgb(200,255,200)" fill-opacity="1" id="tri_1_12_" d="M2.83074 -24.3405 L1.79329 -24.2639 L0.755849 -24.1872 L-0.281595 -24.1105 L-1.31904 -24.0338 L-2.35648 -23.9571 L-1.90451 -24.893 L-1.45255 -25.8289 L-1.00058 -26.7648 L-0.548608 -27.7007 L-0.0966394 -28.6366 L0.488836 -27.7774 L1.07431 -26.9182 L1.65979 -26.059 L2.24526 -25.1998 L2.83074 -24.3405 Z " />
<path stroke="rgb(200,255,200)" stroke-opacity="1" fill="rgb(200,255,200)" fill-opacity="1" id="tri_3_12_" d="M12.1962 -23.622 L13.2099 -23.6587 L14.2236 -23.6955 L15.2373 -23.7322 L16.251 -23.769 L17.2647 -23.8057 L16.7903 -22.9103 L16.3159 -22.015 L15.8415 -21.1196 L15.3671 -20.2242 L14.8927 -19.3289 L14.3534 -20.1875 L13.8141 -21.0461 L13.2748 -21.9047 L12.7355 -22.7633 L12.1962 -23.622 Z " />
<path stroke="rgb(200,255,200)" stroke-opacity="1" fill="rgb(200,255,200)" fill-opacity="1" id="tri_2_12_" d="M12.7331 -24.3124 L11.7089 -24.2586 L10.6847 -24.2047 L9.66054 -24.1509 L8.63638 -24.097 L7.61221 -24.0432 L8.07754 -24.9561 L8.54287 -25.869 L9.00821 -26.7819 L9.47354 -27.6949 L9.93887 -28.6078 L10.4977 -27.7487 L11.0565 -26.8896 L11.6154 -26.0306 L12.1742 -25.1715 L12.7331 -24.3124 Z " />
<path stroke="rgb(200,255,200)" stroke-opacity="1" fill="rgb(200,255,200)" fill-opacity="1" id="tri_0_12_" d="M-22.8641 -14.853 L-21.8106 -14.9592 L-20.7571 -15.0654 L-19.7036 -15.1717 L-18.65 -15.2779 L-17.5965 -15.3841 L-18.0309 -14.4192 L-18.4654 -13.4543 L-18.8998 -12.4895 L-19.3342 -11.5246 L-19.7686 -10.5597 L-20.3877 -11.4184 L-21.0068 -12.277 L-21.6259 -13.1357 L-22.245 -13.9943 L-22.8641 -14.853 Z " />
<path stroke="rgb(200,255,200)" stroke-opacity="1" fill="rgb(200,255,200)" fill-opacity="1" id="tri_1_11_" d="M-12.8214 -14.9073 L-11.784 -14.9841 L-10.7465 -15.061 L-9.70903 -15.1378 L-8.67155 -15.2146 L-7.63408 -15.2915 L-8.08608 -14.3554 L-8.53808 -13.4194 L-8.99007 -12.4833 L-9.44207 -11.5473 L-9.89407 -10.6112 L-10.4795 -11.4705 L-11.065 -12.3297 L-11.6505 -13.1889 L-12.236 -14.0481 L-12.8214 -14.9073 Z " />
<path stroke="rgb(200,255,200)" stroke-opacity="1" fill="rgb(200,255,200)" fill-opacity="1" id="tri_0_11_" d="M-12.0341 -15.7433 L-13.0879 -15.6367 L-14.1417 -15.5302 L-15.1955 -15.4236 L-16.2493 -15.3171 L-17.3031 -15.2105 L-16.8687 -16.1754 L-16.4343 -17.1403 L-15.9999 -18.1052 L-15.5655 -19.07 L-15.1311 -20.0349 L-14.5117 -19.1766 L-13.8923 -18.3183 L-13.2729 -17.46 L-12.6535 -16.6016 L-12.0341 -15.7433 Z " />
<path stroke="rgb(200,255,200)" stroke-opacity="1" fill="rgb(200,255,200)" fill-opacity="1" id="tri_2_11_" d="M-2.79317 -14.9522 L-1.76874 -15.0059 L-0.74432 -15.0595 L0.280103 -15.1132 L1.30453 -15.1668 L2.32895 -15.2205 L1.86359 -14.3078 L1.39823 -13.3951 L0.932871 -12.4824 L0.467512 -11.5697 L0.00215302 -10.657 L-0.55691 -11.516 L-1.11597 -12.3751 L-1.67504 -13.2341 L-2.2341 -14.0932 L-2.79317 -14.9522 Z " />
<path stroke="rgb(200,255,200)" stroke-opacity="1" fill="rgb(200,255,200)" fill-opacity="1" id="tri_1_10_" d="M-2.14509 -15.7036 L-3.18288 -15.6271 L-4.22067 -15.5505 L-5.25847 -15.474 L-6.29626 -15.3974 L-7.33405 -15.3209 L-6.88205 -16.2569 L-6.43006 -17.193 L-5.97806 -18.129 L-5.52606 -19.0651 L-5.07407 -20.0011 L-4.48827 -19.1416 L-3.90248 -18.2821 L-3.31668 -17.4226 L-2.73088 -16.5631 L-2.14509 -15.7036 Z " />
<path stroke="rgb(200,255,200)" stroke-opacity="1" fill="rgb(200,255,200)" fill-opacity="1" id="tri_3_11_" d="M7.22077 -14.9865 L8.2344 -15.023 L9.24804 -15.0595 L10.2617 -15.0959 L11.2753 -15.1324 L12.2889 -15.1689 L11.8143 -14.2736 L11.3396 -13.3783 L10.8649 -12.483 L10.3903 -11.5877 L9.9156 -10.6924 L9.37664 -11.5512 L8.83767 -12.41 L8.2987 -13.2689 L7.75974 -14.1277 L7.22077 -14.9865 Z " />
<path stroke="rgb(200,255,200)" stroke-opacity="1" fill="rgb(200,255,200)" fill-opacity="1" id="tri_2_10_" d="M7.75751 -15.6765 L6.73341 -15.6229 L5.7093 -15.5694 L4.68519 -15.5158 L3.66108 -15.4622 L2.63697 -15.4087 L3.10233 -16.3213 L3.56769 -17.234 L4.03305 -18.1467 L4.49841 -19.0594 L4.96377 -19.9721 L5.52252 -19.113 L6.08127 -18.2539 L6.64002 -17.3947 L7.19876 -16.5356 L7.75751 -15.6765 Z " />
<path stroke="rgb(200,255,200)" stroke-opacity="1" fill="rgb(200,255,200)" fill-opacity="1" id="tri_4_10_" d="M17.2242 -15.0142 L18.2299 -15.0378 L19.2356 -15.0615 L20.2413 -15.0852 L21.247 -15.1089 L22.2527 -15.1326 L21.7706 -14.2509 L21.2885 -13.3691 L20.8064 -12.4874 L20.3244 -11.6057 L19.8423 -10.724 L19.3187 -11.582 L18.795 -12.4401 L18.2714 -13.2981 L17.7478 -14.1561 L17.2242 -15.0142 Z " />
<path stroke="rgb(200,255,200)" stroke-opacity="1" fill="rgb(200,255,200)" fill-opacity="1" id="tri_3_10_" d="M17.6777 -15.6594 L16.6638 -15.6228 L15.6498 -15.5861 L14.6358 -15.5494 L13.6218 -15.5127 L12.6079 -15.476 L13.0825 -16.3713 L13.5572 -17.2666 L14.0319 -18.1619 L14.5065 -19.0572 L14.9812 -19.9525 L15.5205 -19.0939 L16.0598 -18.2353 L16.5991 -17.3767 L17.1384 -16.5181 L17.6777 -15.6594 Z " />
<path stroke="rgb(200,255,200)" stroke-opacity="1" fill="rgb(200,255,200)" fill-opacity="1" id="tri_0_10_" d="M-27.8403 -6.21644 L-26.7862 -6.32294 L-25.7321 -6.42945 L-24.678 -6.53596 L-23.6239 -6.64247 L-22.5698 -6.74898 L-23.0047 -5.78379 L-23.4395 -4.8186 L-23.8744 -3.85341 L-24.3092 -2.88822 L-24.7441 -1.92303 L-25.3633 -2.78171 L-25.9826 -3.64039 L-26.6018 -4.49907 L-27.2211 -5.35775 L-27.8403 -6.21644 Z " />
<path stroke="rgb(200,255,200)" stroke-opacity="1" fill="rgb(200,255,200)" fill-opacity="1" id="tri_1_9_" d="M-17.7962 -6.27054 L-16.7586 -6.34735 L-15.7209 -6.42416 L-14.6833 -6.50097 L-13.6457 -6.57778 L-12.6081 -6.65459 L-13.0601 -5.71863 L-13.5122 -4.78267 L-13.9643 -3.84671 L-14.4163 -2.91075 L-14.8684 -1.97479 L-15.4539 -2.83394 L-16.0395 -3.69309 L-16.6251 -4.55224 L-17.2106 -5.41139 L-17.7962 -6.27054 Z " />
<path stroke="rgb(200,255,200)" stroke-opacity="1" fill="rgb(200,255,200)" fill-opacity="1" id="tri_0_9_" d="M-17.0087 -7.10736 L-18.0626 -7.00082 L-19.1166 -6.89429 L-20.1705 -6.78775 L-21.2245 -6.68122 L-22.2784 -6.57468 L-21.8436 -7.53987 L-21.4087 -8.50506 L-20.9739 -9.47025 L-20.539 -10.4354 L-20.1042 -11.4006 L-19.4851 -10.542 L-18.866 -9.68332 L-18.2469 -8.82467 L-17.6278 -7.96601 L-17.0087 -7.10736 Z " />
<path stroke="rgb(200,255,200)" stroke-opacity="1" fill="rgb(200,255,200)" fill-opacity="1" id="tri_2_9_" d="M-7.76817 -6.31542 L-6.744 -6.36928 L-5.71983 -6.42313 L-4.69566 -6.47698 L-3.67149 -6.53083 L-2.64732 -6.58468 L-3.11237 -5.67169 L-3.57742 -4.7587 L-4.04247 -3.84572 L-4.50752 -2.93273 L-4.97256 -2.01974 L-5.53169 -2.87888 L-6.09081 -3.73801 L-6.64993 -4.59715 L-7.20905 -5.45629 L-7.76817 -6.31542 Z " />
<path stroke="rgb(200,255,200)" stroke-opacity="1" fill="rgb(200,255,200)" fill-opacity="1" id="tri_1_8_" d="M-7.12149 -7.06767 L-8.15902 -6.99092 L-9.19655 -6.91417 L-10.2341 -6.83742 L-11.2716 -6.76067 L-12.3091 -6.68391 L-11.8571 -7.61987 L-11.405 -8.55584 L-10.953 -9.4918 L-10.5009 -10.4278 L-10.0489 -11.3637 L-9.46339 -10.5045 L-8.87792 -9.6453 L-8.29244 -8.78609 L-7.70697 -7.92688 L-7.12149 -7.06767 Z " />
<path stroke="rgb(200,255,200)" stroke-opacity="1" fill="rgb(200,255,200)" fill-opacity="1" id="tri_3_9_" d="M2.24532 -6.35008 L3.25896 -6.38691 L4.2726 -6.42375 L5.28625 -6.46058 L6.29989 -6.49742 L7.31354 -6.53425 L6.83878 -5.6389 L6.36403 -4.74355 L5.88928 -3.84819 L5.41452 -2.95284 L4.93977 -2.05749 L4.40088 -2.916 L3.86199 -3.77452 L3.3231 -4.63304 L2.78421 -5.49156 L2.24532 -6.35008 Z " />
<path stroke="rgb(200,255,200)" stroke-opacity="1" fill="rgb(200,255,200)" fill-opacity="1" id="tri_2_8_" d="M2.78196 -7.0413 L1.75784 -6.98736 L0.733731 -6.93343 L-0.290382 -6.87949 L-1.31449 -6.82555 L-2.33861 -6.77162 L-1.87356 -7.6846 L-1.40851 -8.59759 L-0.943461 -9.51058 L-0.478412 -10.4236 L-0.0133634 -11.3366 L0.5457 -10.4775 L1.10476 -9.61845 L1.66383 -8.7594 L2.22289 -7.90035 L2.78196 -7.0413 Z " />
<path stroke="rgb(200,255,200)" stroke-opacity="1" fill="rgb(200,255,200)" fill-opacity="1" id="tri_4_9_" d="M12.2484 -6.37841 L13.2538 -6.40194 L14.2593 -6.42546 L15.2647 -6.44899 L16.2702 -6.47252 L17.2756 -6.49604 L16.7939 -5.61431 L16.3122 -4.73258 L15.8304 -3.85085 L15.3487 -2.96911 L14.867 -2.08738 L14.3433 -2.94559 L13.8195 -3.80379 L13.2958 -4.662 L12.7721 -5.52021 L12.2484 -6.37841 Z " />
<path stroke="rgb(200,255,200)" stroke-opacity="1" fill="rgb(200,255,200)" fill-opacity="1" id="tri_3_8_" d="M12.7001 -7.02272 L11.6864 -6.9862 L10.6727 -6.94967 L9.65896 -6.91315 L8.64524 -6.87663 L7.63152 -6.8401 L8.10627 -7.73546 L8.58103 -8.63081 L9.05578 -9.52616 L9.53053 -10.4215 L10.0053 -11.3169 L10.5443 -10.458 L11.0832 -9.59921 L11.6222 -8.74038 L12.1612 -7.88155 L12.7001 -7.02272 Z " />
<path stroke="rgb(200,255,200)" stroke-opacity="1" fill="rgb(200,255,200)" fill-opacity="1" id="tri_5_8_" d="M22.2417 -6.3991 L23.241 -6.41374 L24.2404 -6.42837 L25.2397 -6.44301 L26.2391 -6.45764 L27.2384 -6.47228 L26.7517 -5.60042 L26.2651 -4.72857 L25.7784 -3.85671 L25.2917 -2.98486 L24.805 -2.11301 L24.2923 -2.97022 L23.7797 -3.82744 L23.267 -4.68466 L22.7543 -5.54188 L22.2417 -6.3991 Z " />
<path stroke="rgb(200,255,200)" stroke-opacity="1" fill="rgb(200,255,200)" fill-opacity="1" id="tri_4_8_" d="M22.6303 -7.01196 L21.625 -6.98826 L20.6197 -6.96456 L19.6143 -6.94086 L18.609 -6.91716 L17.6036 -6.89346 L18.0854 -7.77519 L18.5671 -8.65692 L19.0488 -9.53866 L19.5305 -10.4204 L20.0123 -11.3021 L20.5359 -10.4441 L21.0595 -9.58605 L21.5831 -8.72802 L22.1067 -7.86999 L22.6303 -7.01196 Z " />
<path stroke="rgb(200,255,200)" stroke-opacity="1" fill="rgb(200,255,200)" fill-opacity="1" id="tri_0_8_" d="M-32.8176 2.42006 L-31.7635 2.31378 L-30.7093 2.20751 L-29.6552 2.10123 L-28.6011 1.99495 L-27.5469 1.88868 L-27.9815 2.85353 L-28.4161 3.81839 L-28.8506 4.78324 L-29.2852 5.7481 L-29.7198 6.71296 L-30.3393 5.85438 L-30.9589 4.9958 L-31.5785 4.13722 L-32.198 3.27864 L-32.8176 2.42006 Z " />
<path stroke="rgb(200,255,200)" stroke-opacity="1" fill="rgb(200,255,200)" fill-opacity="1" id="tri_1_7_" d="M-22.772 2.36475 L-21.7345 2.28829 L-20.697 2.21183 L-19.6595 2.13537 L-18.6221 2.05891 L-17.5846 1.98244 L-18.0367 2.91809 L-18.4889 3.85373 L-18.941 4.78938 L-19.3932 5.72502 L-19.8453 6.66066 L-20.4306 5.80148 L-21.016 4.9423 L-21.6013 4.08312 L-22.1866 3.22393 L-22.772 2.36475 Z " />
<path stroke="rgb(200,255,200)" stroke-opacity="1" fill="rgb(200,255,200)" fill-opacity="1" id="tri_0_7_" d="M-21.9843 1.52994 L-23.0381 1.63612 L-24.0919 1.7423 L-25.1457 1.84847 L-26.1995 1.95465 L-27.2533 2.06082 L-26.8188 1.09597 L-26.3842 0.13111 L-25.9496 -0.833745 L-25.5151 -1.7986 L-25.0805 -2.76346 L-24.4613 -1.90478 L-23.842 -1.0461 L-23.2228 -0.187416 L-22.6035 0.671265 L-21.9843 1.52994 Z " />
<path stroke="rgb(200,255,200)" stroke-opacity="1" fill="rgb(200,255,200)" fill-opacity="1" id="tri_2_7_" d="M-12.7448 2.32059 L-11.7205 2.26699 L-10.6961 2.2134 L-9.6718 2.15981 L-8.64747 2.10622 L-7.62313 2.05263 L-8.08838 2.9655 L-8.55362 3.87837 L-9.01887 4.79124 L-9.48412 5.70411 L-9.94936 6.61698 L-10.5085 5.7577 L-11.0675 4.89842 L-11.6266 4.03914 L-12.1857 3.17987 L-12.7448 2.32059 Z " />
<path stroke="rgb(200,255,200)" stroke-opacity="1" fill="rgb(200,255,200)" fill-opacity="1" id="tri_1_6_" d="M-12.0967 1.56928 L-13.1344 1.64577 L-14.1721 1.72227 L-15.2098 1.79876 L-16.2475 1.87525 L-17.2852 1.95174 L-16.8331 1.0161 L-16.3809 0.0804574 L-15.9288 -0.855187 L-15.4767 -1.79083 L-15.0245 -2.72647 L-14.4389 -1.86732 L-13.8534 -1.00817 L-13.2678 -0.14902 L-12.6823 0.710132 L-12.0967 1.56928 Z " />
<path stroke="rgb(200,255,200)" stroke-opacity="1" fill="rgb(200,255,200)" fill-opacity="1" id="tri_3_7_" d="M-2.73059 2.28649 L-1.7167 2.24985 L-0.702804 2.21322 L0.311089 2.17659 L1.32498 2.13996 L2.33887 2.10333 L1.86392 2.99857 L1.38898 3.8938 L0.91403 4.78904 L0.439083 5.68427 L-0.0358648 6.57951 L-0.574809 5.7209 L-1.11375 4.8623 L-1.6527 4.00369 L-2.19164 3.14509 L-2.73059 2.28649 Z " />
<path stroke="rgb(200,255,200)" stroke-opacity="1" fill="rgb(200,255,200)" fill-opacity="1" id="tri_2_6_" d="M-2.19249 1.59579 L-3.21686 1.64952 L-4.24123 1.70326 L-5.26559 1.75699 L-6.28996 1.81073 L-7.31433 1.86446 L-6.84908 0.951589 L-6.38383 0.0387182 L-5.91859 -0.874152 L-5.45334 -1.78702 L-4.98809 -2.69989 L-4.42897 -1.84076 L-3.86985 -0.981621 L-3.31073 -0.122484 L-2.75161 0.736653 L-2.19249 1.59579 Z " />
<path stroke="rgb(200,255,200)" stroke-opacity="1" fill="rgb(200,255,200)" fill-opacity="1" id="tri_4_7_" d="M7.27172 2.25826 L8.27728 2.23455 L9.28284 2.21083 L10.2884 2.18711 L11.294 2.16339 L12.2995 2.13968 L11.8178 3.02141 L11.3361 3.90314 L10.8543 4.78487 L10.3726 5.6666 L9.89089 6.54833 L9.36706 5.69032 L8.84322 4.8323 L8.31939 3.97429 L7.79555 3.11628 L7.27172 2.25826 Z " />
<path stroke="rgb(200,255,200)" stroke-opacity="1" fill="rgb(200,255,200)" fill-opacity="1" id="tri_3_6_" d="M7.72475 1.61276 L6.71091 1.64947 L5.69708 1.68619 L4.68324 1.72291 L3.6694 1.75962 L2.65556 1.79634 L3.13051 0.901106 L3.60546 0.00587059 L4.0804 -0.889364 L4.55535 -1.7846 L5.0303 -2.67984 L5.56919 -1.82132 L6.10808 -0.962798 L6.64697 -0.10428 L7.18586 0.754238 L7.72475 1.61276 Z " />
<path stroke="rgb(200,255,200)" stroke-opacity="1" fill="rgb(200,255,200)" fill-opacity="1" id="tri_5_7_" d="M17.2662 2.23675 L18.2657 2.22228 L19.2651 2.20782 L20.2646 2.19336 L21.264 2.1789 L22.2635 2.16444 L21.7764 3.03641 L21.2893 3.90838 L20.8023 4.78036 L20.3152 5.65233 L19.8281 6.5243 L19.3157 5.66679 L18.8033 4.80928 L18.291 3.95177 L17.7786 3.09426 L17.2662 2.23675 Z " />
<path stroke="rgb(200,255,200)" stroke-opacity="1" fill="rgb(200,255,200)" fill-opacity="1" id="tri_4_6_" d="M17.6547 1.62391 L16.6493 1.64744 L15.6438 1.67097 L14.6384 1.69449 L13.633 1.71802 L12.6275 1.74154 L13.1092 0.859811 L13.591 -0.0219203 L14.0727 -0.903651 L14.5544 -1.78538 L15.0361 -2.66711 L15.5599 -1.80891 L16.0836 -0.950702 L16.6073 -0.0924967 L17.131 0.765709 L17.6547 1.62391 Z " />
<path stroke="rgb(200,255,200)" stroke-opacity="1" fill="rgb(200,255,200)" fill-opacity="1" id="tri_6_6_" d="M27.2477 2.22111 L28.2434 2.21226 L29.2391 2.2034 L30.2348 2.19455 L31.2305 2.1857 L32.2262 2.17685 L31.7365 3.04243 L31.2469 3.90801 L30.7572 4.7736 L30.2675 5.63918 L29.7779 6.50476 L29.2718 5.64803 L28.7658 4.7913 L28.2597 3.93457 L27.7537 3.07784 L27.2477 2.22111 Z " />
<path stroke="rgb(200,255,200)" stroke-opacity="1" fill="rgb(200,255,200)" fill-opacity="1" id="tri_5_6_" d="M27.5945 1.62899 L26.5948 1.64374 L25.595 1.6585 L24.5953 1.67325 L23.5955 1.688 L22.5958 1.70276 L23.0828 0.830786 L23.5699 -0.0411864 L24.057 -0.91316 L24.5441 -1.78513 L25.0311 -2.65711 L25.5438 -1.79989 L26.0565 -0.942667 L26.5692 -0.0854478 L27.0818 0.771771 L27.5945 1.62899 Z " />
<path stroke="rgb(200,255,200)" stroke-opacity="1" fill="rgb(200,255,200)" fill-opacity="1" id="tri_0_6_" d="M-37.7926 11.0579 L-36.7386 10.9513 L-35.6847 10.8448 L-34.6307 10.7383 L-33.5768 10.6317 L-32.5228 10.5252 L-32.9572 11.4905 L-33.3917 12.4557 L-33.8261 13.421 L-34.2605 14.3862 L-34.6949 15.3515 L-35.3144 14.4928 L-35.934 13.6341 L-36.5535 12.7753 L-37.173 11.9166 L-37.7926 11.0579 Z " />
<path stroke="rgb(200,255,200)" stroke-opacity="1" fill="rgb(200,255,200)" fill-opacity="1" id="tri_1_5_" d="M-27.7474 11.0026 L-26.7098 10.9257 L-25.6721 10.8487 L-24.6345 10.7718 L-23.5968 10.6948 L-22.5592 10.6179 L-23.0115 11.5538 L-23.4639 12.4897 L-23.9162 13.4256 L-24.3686 14.3615 L-24.8209 15.2974 L-25.4062 14.4385 L-25.9915 13.5795 L-26.5768 12.7206 L-27.1621 11.8616 L-27.7474 11.0026 Z " />
<path stroke="rgb(200,255,200)" stroke-opacity="1" fill="rgb(200,255,200)" fill-opacity="1" id="tri_0_5_" d="M-26.9596 10.1655 L-28.0135 10.2722 L-29.0675 10.3789 L-30.1215 10.4856 L-31.1755 10.5922 L-32.2294 10.6989 L-31.795 9.73366 L-31.3606 8.7684 L-30.9262 7.80313 L-30.4918 6.83787 L-30.0574 5.87261 L-29.4379 6.73119 L-28.8183 7.58977 L-28.1987 8.44835 L-27.5791 9.30693 L-26.9596 10.1655 Z " />
<path stroke="rgb(200,255,200)" stroke-opacity="1" fill="rgb(200,255,200)" fill-opacity="1" id="tri_2_5_" d="M-17.7216 10.9571 L-16.6973 10.9032 L-15.673 10.8494 L-14.6487 10.7956 L-13.6244 10.7418 L-12.6001 10.688 L-13.0649 11.6008 L-13.5298 12.5137 L-13.9947 13.4266 L-14.4596 14.3395 L-14.9244 15.2523 L-15.4839 14.3933 L-16.0433 13.5342 L-16.6027 12.6752 L-17.1622 11.8161 L-17.7216 10.9571 Z " />
<path stroke="rgb(200,255,200)" stroke-opacity="1" fill="rgb(200,255,200)" fill-opacity="1" id="tri_1_4_" d="M-17.0739 10.205 L-18.1115 10.2817 L-19.1492 10.3584 L-20.1869 10.4352 L-21.2246 10.5119 L-22.2622 10.5886 L-21.8099 9.65269 L-21.3575 8.71679 L-20.9052 7.78088 L-20.4529 6.84498 L-20.0005 5.90907 L-19.4152 6.76825 L-18.8298 7.62743 L-18.2445 8.48662 L-17.6592 9.3458 L-17.0739 10.205 Z " />
<path stroke="rgb(200,255,200)" stroke-opacity="1" fill="rgb(200,255,200)" fill-opacity="1" id="tri_3_5_" d="M-7.70496 10.9215 L-6.69147 10.885 L-5.67798 10.8485 L-4.66448 10.812 L-3.65099 10.7755 L-2.6375 10.739 L-3.11228 11.6345 L-3.58707 12.53 L-4.06185 13.4255 L-4.53664 14.321 L-5.01143 15.2165 L-5.55013 14.3575 L-6.08884 13.4985 L-6.62755 12.6395 L-7.16626 11.7805 L-7.70496 10.9215 Z " />
<path stroke="rgb(200,255,200)" stroke-opacity="1" fill="rgb(200,255,200)" fill-opacity="1" id="tri_2_4_" d="M-7.16985 10.232 L-8.19381 10.2856 L-9.21778 10.3392 L-10.2417 10.3928 L-11.2657 10.4464 L-12.2897 10.5 L-11.8248 9.5871 L-11.3599 8.67422 L-10.895 7.76135 L-10.4302 6.84847 L-9.96529 5.93559 L-9.4062 6.79487 L-8.84712 7.65415 L-8.28803 8.51343 L-7.72894 9.37271 L-7.16985 10.232 Z " />
<path stroke="rgb(200,255,200)" stroke-opacity="1" fill="rgb(200,255,200)" fill-opacity="1" id="tri_4_5_" d="M2.29701 10.8965 L3.30247 10.8726 L4.30792 10.8487 L5.31338 10.8248 L6.31884 10.8009 L7.32429 10.777 L6.84243 11.6587 L6.36056 12.5404 L5.8787 13.4221 L5.39684 14.3038 L4.91498 15.1855 L4.39138 14.3277 L3.86779 13.4699 L3.3442 12.6121 L2.82061 11.7543 L2.29701 10.8965 Z " />
<path stroke="rgb(200,255,200)" stroke-opacity="1" fill="rgb(200,255,200)" fill-opacity="1" id="tri_3_4_" d="M2.7493 10.25 L1.73557 10.2868 L0.721837 10.3237 L-0.291894 10.3606 L-1.30562 10.3975 L-2.31935 10.4344 L-1.84457 9.5389 L-1.36978 8.64341 L-0.894997 7.74792 L-0.420211 6.85242 L0.0545748 5.95693 L0.593519 6.81553 L1.13246 7.67414 L1.67141 8.53274 L2.21035 9.39135 L2.7493 10.25 Z " />
<path stroke="rgb(200,255,200)" stroke-opacity="1" fill="rgb(200,255,200)" fill-opacity="1" id="tri_5_5_" d="M12.2892 10.8734 L13.2889 10.8588 L14.2886 10.8442 L15.2883 10.8296 L16.288 10.8149 L17.2878 10.8003 L16.8008 11.6725 L16.3138 12.5446 L15.8268 13.4168 L15.3399 14.2889 L14.8529 15.1611 L14.3401 14.3035 L13.8274 13.446 L13.3147 12.5885 L12.8019 11.7309 L12.2892 10.8734 Z " />
<path stroke="rgb(200,255,200)" stroke-opacity="1" fill="rgb(200,255,200)" fill-opacity="1" id="tri_4_4_" d="M12.6789 10.2603 L11.6732 10.2839 L10.6675 10.3076 L9.66185 10.3313 L8.65615 10.355 L7.65045 10.3787 L8.13231 9.49698 L8.61418 8.61528 L9.09604 7.73358 L9.5779 6.85188 L10.0598 5.97019 L10.5836 6.8282 L11.1074 7.68621 L11.6313 8.54423 L12.1551 9.40224 L12.6789 10.2603 Z " />
<path stroke="rgb(200,255,200)" stroke-opacity="1" fill="rgb(200,255,200)" fill-opacity="1" id="tri_6_5_" d="M22.2736 10.858 L23.2689 10.8492 L24.2642 10.8405 L25.2595 10.8318 L26.2548 10.823 L27.2501 10.8143 L26.7607 11.6799 L26.2712 12.5454 L25.7818 13.411 L25.2923 14.2766 L24.8029 15.1421 L24.297 14.2853 L23.7912 13.4285 L23.2853 12.5716 L22.7794 11.7148 L22.2736 10.858 Z " />
<path stroke="rgb(200,255,200)" stroke-opacity="1" fill="rgb(200,255,200)" fill-opacity="1" id="tri_5_4_" d="M22.6177 10.2665 L21.6184 10.2811 L20.619 10.2957 L19.6197 10.3104 L18.6203 10.325 L17.621 10.3396 L18.108 9.46748 L18.5949 8.59534 L19.0819 7.72319 L19.5689 6.85105 L20.0559 5.9789 L20.5682 6.83641 L21.0806 7.69392 L21.593 8.55144 L22.1054 9.40895 L22.6177 10.2665 Z " />
<path stroke="rgb(200,255,200)" stroke-opacity="1" fill="rgb(200,255,200)" fill-opacity="1" id="tri_7_4_" d="M32.251 10.8432 L33.2438 10.8381 L34.2366 10.833 L35.2295 10.8278 L36.2223 10.8227 L37.2151 10.8176 L36.7232 11.6788 L36.2313 12.5399 L35.7394 13.4011 L35.2474 14.2623 L34.7555 15.1235 L34.2546 14.2674 L33.7537 13.4114 L33.2528 12.5553 L32.7519 11.6993 L32.251 10.8432 Z " />
<path stroke="rgb(200,255,200)" stroke-opacity="1" fill="rgb(200,255,200)" fill-opacity="1" id="tri_6_4_" d="M32.5685 10.2651 L31.5731 10.2739 L30.5776 10.2828 L29.5821 10.2916 L28.5866 10.3004 L27.5911 10.3093 L28.0806 9.4437 L28.57 8.57813 L29.0595 7.71256 L29.5489 6.84699 L30.0383 5.98143 L30.5444 6.83816 L31.0504 7.69489 L31.5565 8.55162 L32.0625 9.40835 L32.5685 10.2651 Z " />
<path stroke="rgb(200,255,200)" stroke-opacity="1" fill="rgb(200,255,200)" fill-opacity="1" id="tri_0_4_" d="M-42.7693 19.6946 L-41.7153 19.5883 L-40.6612 19.4819 L-39.6071 19.3755 L-38.553 19.2692 L-37.499 19.1628 L-37.9334 20.1277 L-38.3678 21.0926 L-38.8022 22.0575 L-39.2366 23.0223 L-39.671 23.9872 L-40.2907 23.1287 L-40.9104 22.2702 L-41.53 21.4117 L-42.1497 20.5531 L-42.7693 19.6946 Z " />
<path stroke="rgb(200,255,200)" stroke-opacity="1" fill="rgb(200,255,200)" fill-opacity="1" id="tri_1_3_" d="M-32.7234 19.6378 L-31.6858 19.5614 L-30.6481 19.485 L-29.6105 19.4085 L-28.5729 19.3321 L-27.5353 19.2557 L-27.9875 20.1912 L-28.4397 21.1268 L-28.8919 22.0623 L-29.3441 22.9979 L-29.7963 23.9334 L-30.3817 23.0743 L-30.9671 22.2152 L-31.5525 21.3561 L-32.138 20.497 L-32.7234 19.6378 Z " />
<path stroke="rgb(200,255,200)" stroke-opacity="1" fill="rgb(200,255,200)" fill-opacity="1" id="tri_0_3_" d="M-31.9349 18.8036 L-32.9888 18.9098 L-34.0428 19.0159 L-35.0968 19.1221 L-36.1507 19.2283 L-37.2047 19.3344 L-36.7703 18.3695 L-36.3359 17.4046 L-35.9014 16.4398 L-35.467 15.4749 L-35.0326 14.51 L-34.4131 15.3687 L-33.7935 16.2275 L-33.174 17.0862 L-32.5544 17.9449 L-31.9349 18.8036 Z " />
<path stroke="rgb(200,255,200)" stroke-opacity="1" fill="rgb(200,255,200)" fill-opacity="1" id="tri_2_3_" d="M-22.6965 19.5937 L-21.6724 19.54 L-20.6482 19.4863 L-19.6241 19.4326 L-18.5999 19.3789 L-17.5758 19.3252 L-18.0409 20.2382 L-18.5059 21.1512 L-18.9709 22.0642 L-19.436 22.9771 L-19.901 23.8901 L-20.4601 23.0308 L-21.0192 22.1716 L-21.5783 21.3123 L-22.1374 20.453 L-22.6965 19.5937 Z " />
<path stroke="rgb(200,255,200)" stroke-opacity="1" fill="rgb(200,255,200)" fill-opacity="1" id="tri_1_2_" d="M-22.0492 18.8418 L-23.0867 18.9184 L-24.1242 18.995 L-25.1617 19.0716 L-26.1992 19.1482 L-27.2367 19.2248 L-26.7845 18.2893 L-26.3323 17.3537 L-25.8801 16.4182 L-25.4279 15.4826 L-24.9757 14.5471 L-24.3904 15.406 L-23.8051 16.265 L-23.2198 17.1239 L-22.6345 17.9829 L-22.0492 18.8418 Z " />
<path stroke="rgb(200,255,200)" stroke-opacity="1" fill="rgb(200,255,200)" fill-opacity="1" id="tri_3_3_" d="M-12.6822 19.5593 L-11.6682 19.5225 L-10.6542 19.4856 L-9.64015 19.4488 L-8.62614 19.412 L-7.61213 19.3752 L-8.08737 20.2707 L-8.5626 21.1662 L-9.03784 22.0618 L-9.51308 22.9573 L-9.98832 23.8528 L-10.5271 22.9941 L-11.0659 22.1354 L-11.6046 21.2767 L-12.1434 20.418 L-12.6822 19.5593 Z " />
<path stroke="rgb(200,255,200)" stroke-opacity="1" fill="rgb(200,255,200)" fill-opacity="1" id="tri_2_2_" d="M-12.1442 18.8676 L-13.1687 18.9215 L-14.1931 18.9754 L-15.2176 19.0294 L-16.2421 19.0833 L-17.2666 19.1372 L-16.8015 18.2242 L-16.3365 17.3113 L-15.8715 16.3983 L-15.4064 15.4853 L-14.9414 14.5723 L-14.3819 15.4313 L-13.8225 16.2904 L-13.2631 17.1495 L-12.7036 18.0085 L-12.1442 18.8676 Z " />
<path stroke="rgb(200,255,200)" stroke-opacity="1" fill="rgb(200,255,200)" fill-opacity="1" id="tri_4_3_" d="M-2.67945 19.5322 L-1.67379 19.5086 L-0.668127 19.4851 L0.337537 19.4616 L1.3432 19.438 L2.34886 19.4145 L1.86721 20.2959 L1.38555 21.1774 L0.903894 22.0588 L0.422236 22.9403 L-0.0594209 23.8217 L-0.583428 22.9638 L-1.10743 22.1059 L-1.63144 21.248 L-2.15545 20.3901 L-2.67945 19.5322 Z " />
<path stroke="rgb(200,255,200)" stroke-opacity="1" fill="rgb(200,255,200)" fill-opacity="1" id="tri_3_2_" d="M-2.22629 18.8872 L-3.24024 18.9237 L-4.25418 18.9603 L-5.26813 18.9968 L-6.28207 19.0334 L-7.29602 19.0699 L-6.82078 18.1744 L-6.34554 17.2788 L-5.87031 16.3833 L-5.39507 15.4878 L-4.91983 14.5922 L-4.38112 15.4512 L-3.84242 16.3102 L-3.30371 17.1692 L-2.765 18.0282 L-2.22629 18.8872 Z " />
<path stroke="rgb(200,255,200)" stroke-opacity="1" fill="rgb(200,255,200)" fill-opacity="1" id="tri_5_3_" d="M7.31401 19.5096 L8.31328 19.495 L9.31255 19.4804 L10.3118 19.4658 L11.3111 19.4512 L12.3103 19.4367 L11.8236 20.3086 L11.3368 21.1805 L10.85 22.0524 L10.3633 22.9243 L9.87651 23.7962 L9.36401 22.9389 L8.85151 22.0815 L8.33901 21.2242 L7.82651 20.3669 L7.31401 19.5096 Z " />
<path stroke="rgb(200,255,200)" stroke-opacity="1" fill="rgb(200,255,200)" fill-opacity="1" id="tri_4_2_" d="M7.70274 18.8968 L6.69749 18.9204 L5.69224 18.9441 L4.68699 18.9677 L3.68174 18.9913 L2.67649 19.015 L3.15815 18.1335 L3.63981 17.2521 L4.12146 16.3706 L4.60312 15.4892 L5.08478 14.6077 L5.60837 15.4655 L6.13196 16.3233 L6.65555 17.1811 L7.17915 18.039 L7.70274 18.8968 Z " />
<path stroke="rgb(200,255,200)" stroke-opacity="1" fill="rgb(200,255,200)" fill-opacity="1" id="tri_6_3_" d="M17.2967 19.4931 L18.2922 19.4846 L19.2876 19.4762 L20.2831 19.4677 L21.2785 19.4592 L22.274 19.4507 L21.7843 20.3161 L21.2947 21.1815 L20.805 22.0468 L20.3153 22.9122 L19.8256 23.7775 L19.3198 22.9207 L18.814 22.0638 L18.3083 21.2069 L17.8025 20.35 L17.2967 19.4931 Z " />
<path stroke="rgb(200,255,200)" stroke-opacity="1" fill="rgb(200,255,200)" fill-opacity="1" id="tri_5_2_" d="M17.6423 18.9032 L16.6428 18.9175 L15.6433 18.9319 L14.6438 18.9463 L13.6443 18.9607 L12.6448 18.975 L13.1315 18.1031 L13.6183 17.2312 L14.1051 16.3593 L14.5918 15.4874 L15.0786 14.6155 L15.5913 15.473 L16.1041 16.3306 L16.6168 17.1881 L17.1296 18.0456 L17.6423 18.9032 Z " />
<path stroke="rgb(200,255,200)" stroke-opacity="1" fill="rgb(200,255,200)" fill-opacity="1" id="tri_7_3_" d="M27.2745 19.4789 L28.2674 19.474 L29.2603 19.4692 L30.2531 19.4644 L31.246 19.4596 L32.2389 19.4548 L31.7471 20.3158 L31.2553 21.1768 L30.7635 22.0378 L30.2717 22.8988 L29.7799 23.7597 L29.2789 22.9036 L28.7778 22.0474 L28.2767 21.1912 L27.7756 20.335 L27.2745 19.4789 Z " />
<path stroke="rgb(200,255,200)" stroke-opacity="1" fill="rgb(200,255,200)" fill-opacity="1" id="tri_6_2_" d="M27.5928 18.9021 L26.5972 18.9106 L25.6017 18.9192 L24.6061 18.9277 L23.6106 18.9362 L22.615 18.9447 L23.1047 18.0794 L23.5944 17.214 L24.0841 16.3487 L24.5737 15.4833 L25.0634 14.618 L25.5693 15.4748 L26.0751 16.3316 L26.581 17.1884 L27.0869 18.0453 L27.5928 18.9021 Z " />
<path stroke="rgb(200,255,200)" stroke-opacity="1" fill="rgb(200,255,200)" fill-opacity="1" id="tri_8_2_" d="M37.2448 19.4681 L38.2362 19.4647 L39.2275 19.4614 L40.2189 19.4581 L41.2103 19.4548 L42.2017 19.4515 L41.7093 20.311 L41.217 21.1705 L40.7246 22.0301 L40.2322 22.8896 L39.7398 23.7491 L39.2408 22.8929 L38.7418 22.0367 L38.2428 21.1805 L37.7438 20.3243 L37.2448 19.4681 Z " />
<path stroke="rgb(200,255,200)" stroke-opacity="1" fill="rgb(200,255,200)" fill-opacity="1" id="tri_7_2_" d="M37.5451 18.8972 L36.5524 18.9022 L35.5597 18.9071 L34.567 18.912 L33.5743 18.917 L32.5816 18.9219 L33.0734 18.0609 L33.5652 17.1999 L34.057 16.3389 L34.5488 15.4779 L35.0406 14.6169 L35.5415 15.473 L36.0424 16.3291 L36.5433 17.1851 L37.0442 18.0412 L37.5451 18.8972 Z " />
<path stroke="rgb(200,255,200)" stroke-opacity="1" fill="rgb(200,255,200)" fill-opacity="1" id="tri_0_2_" d="M-47.7439 28.3311 L-46.6901 28.2247 L-45.6363 28.1183 L-44.5826 28.0119 L-43.5288 27.9054 L-42.475 27.799 L-42.9093 28.7641 L-43.3436 29.7291 L-43.7779 30.6942 L-44.2122 31.6592 L-44.6465 32.6243 L-45.266 31.7657 L-45.8855 30.907 L-46.5049 30.0484 L-47.1244 29.1897 L-47.7439 28.3311 Z " />
<path stroke="rgb(200,255,200)" stroke-opacity="1" fill="rgb(200,255,200)" fill-opacity="1" id="tri_1_1_" d="M-37.6988 28.2744 L-36.6612 28.1976 L-35.6236 28.1208 L-34.586 28.044 L-33.5484 27.9672 L-32.5107 27.8904 L-32.9626 28.8264 L-33.4146 29.7623 L-33.8665 30.6983 L-34.3184 31.6343 L-34.7703 32.5703 L-35.356 31.7111 L-35.9417 30.852 L-36.5274 29.9928 L-37.1131 29.1336 L-37.6988 28.2744 Z " />
<path stroke="rgb(200,255,200)" stroke-opacity="1" fill="rgb(200,255,200)" fill-opacity="1" id="tri_0_1_" d="M-36.9112 27.4393 L-37.9651 27.5458 L-39.0191 27.6524 L-40.073 27.7589 L-41.127 27.8654 L-42.1809 27.972 L-41.7466 27.0069 L-41.3123 26.0419 L-40.878 25.0768 L-40.4437 24.1118 L-40.0094 23.1467 L-39.3898 24.0052 L-38.7701 24.8637 L-38.1505 25.7223 L-37.5308 26.5808 L-36.9112 27.4393 Z " />
<path stroke="rgb(200,255,200)" stroke-opacity="1" fill="rgb(200,255,200)" fill-opacity="1" id="tri_2_1_" d="M-27.6697 28.2303 L-26.6457 28.1763 L-25.6217 28.1223 L-24.5978 28.0684 L-23.5738 28.0144 L-22.5498 27.9604 L-23.015 28.8738 L-23.4802 29.7871 L-23.9454 30.7004 L-24.4106 31.6138 L-24.8758 32.5271 L-25.4346 31.6677 L-25.9934 30.8084 L-26.5521 29.949 L-27.1109 29.0896 L-27.6697 28.2303 Z " />
<path stroke="rgb(200,255,200)" stroke-opacity="1" fill="rgb(200,255,200)" fill-opacity="1" id="tri_1" d="M-27.0247 27.477 L-28.062 27.5539 L-29.0994 27.6307 L-30.1367 27.7076 L-31.174 27.7845 L-32.2113 27.8613 L-31.7594 26.9254 L-31.3075 25.9894 L-30.8556 25.0534 L-30.4037 24.1174 L-29.9518 23.1814 L-29.3664 24.0405 L-28.7809 24.8996 L-28.1955 25.7588 L-27.6101 26.6179 L-27.0247 27.477 Z " />
<path stroke="rgb(200,255,200)" stroke-opacity="1" fill="rgb(200,255,200)" fill-opacity="1" id="tri_3_1_" d="M-17.6568 28.1976 L-16.643 28.1606 L-15.6292 28.1237 L-14.6154 28.0867 L-13.6016 28.0498 L-12.5877 28.0128 L-13.0626 28.9082 L-13.5374 29.8037 L-14.0123 30.6991 L-14.4871 31.5945 L-14.9619 32.4899 L-15.5009 31.6314 L-16.0399 30.773 L-16.5789 29.9145 L-17.1178 29.056 L-17.6568 28.1976 Z " />
<path stroke="rgb(200,255,200)" stroke-opacity="1" fill="rgb(200,255,200)" fill-opacity="1" id="tri_2" d="M-17.1201 27.5055 L-18.1444 27.5595 L-19.1687 27.6136 L-20.1929 27.6676 L-21.2172 27.7217 L-22.2415 27.7757 L-21.7763 26.8624 L-21.3111 25.9491 L-20.8459 25.0358 L-20.3807 24.1224 L-19.9155 23.2091 L-19.3565 24.0684 L-18.7974 24.9277 L-18.2383 25.7869 L-17.6792 26.6462 L-17.1201 27.5055 Z " />
<path stroke="rgb(200,255,200)" stroke-opacity="1" fill="rgb(200,255,200)" fill-opacity="1" id="tri_4_1_" d="M-7.65476 28.1691 L-6.64942 28.1454 L-5.64408 28.1217 L-4.63875 28.098 L-3.63341 28.0743 L-2.62808 28.0506 L-3.10968 28.9322 L-3.59129 29.8137 L-4.07289 30.6952 L-4.5545 31.5768 L-5.0361 32.4583 L-5.55983 31.6005 L-6.08356 30.7426 L-6.60729 29.8848 L-7.13103 29.027 L-7.65476 28.1691 Z " />
<path stroke="rgb(200,255,200)" stroke-opacity="1" fill="rgb(200,255,200)" fill-opacity="1" id="tri_3" d="M-7.20283 27.5238 L-8.21645 27.5605 L-9.23006 27.5972 L-10.2437 27.6339 L-11.2573 27.6706 L-12.2709 27.7073 L-11.7961 26.8119 L-11.3212 25.9165 L-10.8464 25.0211 L-10.3715 24.1257 L-9.89669 23.2303 L-9.35792 24.089 L-8.81915 24.9477 L-8.28038 25.8064 L-7.74161 26.6651 L-7.20283 27.5238 Z " />
<path stroke="rgb(200,255,200)" stroke-opacity="1" fill="rgb(200,255,200)" fill-opacity="1" id="tri_5_1_" d="M2.33773 28.1454 L3.33735 28.1309 L4.33698 28.1163 L5.33661 28.1017 L6.33623 28.0872 L7.33586 28.0726 L6.84892 28.9446 L6.36198 29.8166 L5.87504 30.6886 L5.3881 31.5606 L4.90116 32.4327 L4.38847 31.5752 L3.87579 30.7178 L3.3631 29.8603 L2.85041 29.0029 L2.33773 28.1454 Z " />
<path stroke="rgb(200,255,200)" stroke-opacity="1" fill="rgb(200,255,200)" fill-opacity="1" id="tri_4" d="M2.72771 27.5331 L1.7221 27.5568 L0.716486 27.5804 L-0.289126 27.604 L-1.29474 27.6277 L-2.30035 27.6513 L-1.81874 26.7698 L-1.33714 25.8882 L-0.855535 25.0067 L-0.37393 24.1251 L0.107675 23.2436 L0.631683 24.1015 L1.15569 24.9594 L1.67969 25.8173 L2.2037 26.6752 L2.72771 27.5331 Z " />
<path stroke="rgb(200,255,200)" stroke-opacity="1" fill="rgb(200,255,200)" fill-opacity="1" id="tri_6_1_" d="M12.3214 28.1295 L13.3168 28.1207 L14.3122 28.1119 L15.3076 28.1031 L16.303 28.0943 L17.2984 28.0856 L16.8088 28.9513 L16.3193 29.8171 L15.8297 30.6828 L15.3401 31.5486 L14.8506 32.4143 L14.3448 31.5574 L13.8389 30.7004 L13.3331 29.8434 L12.8272 28.9865 L12.3214 28.1295 Z " />
<path stroke="rgb(200,255,200)" stroke-opacity="1" fill="rgb(200,255,200)" fill-opacity="1" id="tri_5" d="M12.666 27.5377 L11.6666 27.5524 L10.6671 27.567 L9.6677 27.5817 L8.66826 27.5964 L7.66882 27.6111 L8.15576 26.7391 L8.6427 25.8671 L9.12964 24.9951 L9.61658 24.1231 L10.1035 23.2511 L10.616 24.1084 L11.1285 24.9657 L11.641 25.823 L12.1535 26.6804 L12.666 27.5377 Z " />
<path stroke="rgb(200,255,200)" stroke-opacity="1" fill="rgb(200,255,200)" fill-opacity="1" id="tri_7_1_" d="M22.2999 28.1163 L23.2926 28.1112 L24.2853 28.106 L25.278 28.1008 L26.2706 28.0957 L27.2633 28.0905 L26.7715 28.9519 L26.2797 29.8132 L25.7879 30.6746 L25.2961 31.5359 L24.8042 32.3973 L24.3034 31.5411 L23.8025 30.6849 L23.3016 29.8287 L22.8008 28.9725 L22.2999 28.1163 Z " />
<path stroke="rgb(200,255,200)" stroke-opacity="1" fill="rgb(200,255,200)" fill-opacity="1" id="tri_6" d="M22.6159 27.5377 L21.6205 27.5465 L20.6252 27.5554 L19.6298 27.5643 L18.6345 27.5732 L17.6391 27.582 L18.1287 26.7163 L18.6183 25.8505 L19.1078 24.9848 L19.5974 24.119 L20.087 23.2533 L20.5927 24.1101 L21.0985 24.967 L21.6043 25.8239 L22.1101 26.6808 L22.6159 27.5377 Z " />
<path stroke="rgb(200,255,200)" stroke-opacity="1" fill="rgb(200,255,200)" fill-opacity="1" id="tri_8_1_" d="M32.2692 28.1054 L33.2608 28.1018 L34.2524 28.0982 L35.244 28.0947 L36.2356 28.0911 L37.2271 28.0876 L36.7347 28.9472 L36.2423 29.8069 L35.7499 30.6666 L35.2575 31.5262 L34.7651 32.3859 L34.2659 31.5298 L33.7667 30.6737 L33.2676 29.8176 L32.7684 28.9615 L32.2692 28.1054 Z " />
<path stroke="rgb(200,255,200)" stroke-opacity="1" fill="rgb(200,255,200)" fill-opacity="1" id="tri_7" d="M32.5697 27.5336 L31.5768 27.5388 L30.5839 27.544 L29.591 27.5492 L28.5981 27.5543 L27.6052 27.5595 L28.097 26.6982 L28.5888 25.8368 L29.0806 24.9754 L29.5724 24.1141 L30.0643 23.2527 L30.5654 24.1089 L31.0664 24.9651 L31.5675 25.8213 L32.0686 26.6774 L32.5697 27.5336 Z " />
<path stroke="rgb(200,255,200)" stroke-opacity="1" fill="rgb(200,255,200)" fill-opacity="1" id="tri_9" d="M42.2394 28.0956 L43.2299 28.093 L44.2205 28.0904 L45.2111 28.0879 L46.2017 28.0853 L47.1923 28.0827 L46.6997 28.9409 L46.2071 29.7991 L45.7145 30.6572 L45.2219 31.5154 L44.7293 32.3736 L44.2313 31.518 L43.7333 30.6624 L43.2353 29.8068 L42.7373 28.9512 L42.2394 28.0956 Z " />
<path stroke="rgb(200,255,200)" stroke-opacity="1" fill="rgb(200,255,200)" fill-opacity="1" id="tri_8" d="M42.5306 27.5278 L41.5392 27.5312 L40.5477 27.5347 L39.5563 27.5381 L38.5649 27.5416 L37.5735 27.545 L38.0659 26.6854 L38.5583 25.8257 L39.0507 24.9661 L39.5431 24.1064 L40.0355 23.2467 L40.5345 24.1029 L41.0336 24.9591 L41.5326 25.8154 L42.0316 26.6716 L42.5306 27.5278 Z " />
</g>
</g>
</svg>
