<!DOCTYPE svg>
<svg xmlns="http://www.w3.org/2000/svg" xmlns:xlink="http://www.w3.org/1999/xlink" width="600" height="600">
<g transform="translate(300.000000,300.000000)">
<g transform="scale(3.000000,3.000000)">
<path stroke="rgb(0,0,0)" stroke-opacity="1" fill="rgb(255,255,255)" fill-opacity="1" id="Layer_1" d="M107.411 107.089 L105.406 107.092 L103.402 107.095 L101.397 107.098 L99.3922 107.101 L97.3875 107.104 L95.3828 107.107 L93.3782 107.11 L91.3735 107.113 L89.3688 107.116 L87.3641 107.119 L85.3595 107.122 L83.3548 107.125 L81.3501 107.128 L79.3455 107.131 L77.3408 107.134 L75.3361 107.137 L73.3314 107.14 L71.3268 107.143 L69.3221 107.146 L67.3174 107.149 L65.3127 107.152 L63.3081 107.155 L61.3034 107.158 L59.2987 107.161 L57.2941 107.164 L55.2894 107.167 L53.2847 107.17 L51.28 107.173 L49.2754 107.176 L47.2707 107.179 L45.266 107.182 L43.2613 107.185 L41.2567 107.188 L39.252 107.191 L37.2473 107.194 L35.2426 107.197 L33.238 107.2 L31.2333 107.203 L29.2286 107.206 L27.224 107.209 L25.2193 107.212 L23.2146 107.215 L21.2099 107.218 L19.2053 107.221 L17.2006 107.224 L15.1959 107.227 L13.1912 107.23 L11.1866 107.233 L9.1819 107.236 L7.17723 107.239 L5.17256 107.242 L3.16788 107.245 L1.16321 107.248 L-0.841463 107.252 L-2.84614 107.255 L-4.85081 107.258 L-6.85548 107.261 L-8.86015 107.264 L-10.8648 107.267 L-12.8695 107.27 L-14.8742 107.273 L-16.8788 107.276 L-18.8835 107.279 L-20.8882 107.282 L-22.8929 107.285 L-24.8975 107.288 L-26.9022 107.291 L-28.9069 107.294 L-30.9116 107.297 L-32.9162 107.3 L-34.9209 107.303 L-36.9256 107.306 L-38.9302 107.309 L-40.9349 107.312 L-42.9396 107.315 L-44.9443 107.318 L-46.9489 107.321 L-48.9536 107.324 L-50.9583 107.327 L-52.963 107.33 L-54.9676 107.333 L-56.9723 107.336 L-58.977 107.339 L-60.9816 107.342 L-62.9863 107.345 L-64.991 107.348 L-66.9957 107.351 L-69.0003 107.354 L-71.005 107.357 L-73.0097 107.36 L-75.0144 107.363 L-77.019 107.366 L-79.0237 107.369 L-81.0284 107.372 L-83.0331 107.375 L-85.0377 107.378 L-87.0424 107.381 L-89.0471 107.384 L-91.0517 107.387 L-93.0564 107.39 L-95.0611 107.393 L-97.0658 107.396 L-99.0704 107.399 L-101.075 107.402 L-103.08 107.405 L-105.084 107.408 L-107.089 107.411 L-107.092 105.406 L-107.095 103.402 L-107.098 101.397 L-107.101 99.3922 L-107.104 97.3875 L-107.107 95.3828 L-107.11 93.3782 L-107.113 91.3735 L-107.116 89.3688 L-107.119 87.3641 L-107.122 85.3595 L-107.125 83.3548 L-107.128 81.3501 L-107.131 79.3455 L-107.134 77.3408 L-107.137 75.3361 L-107.14 73.3314 L-107.143 71.3268 L-107.146 69.3221 L-107.149 67.3174 L-107.152 65.3127 L-107.155 63.3081 L-107.158 61.3034 L-107.161 59.2987 L-107.164 57.2941 L-107.167 55.2894 L-107.17 53.2847 L-107.173 51.28 L-107.176 49.2754 L-107.179 47.2707 L-107.182 45.266 L-107.185 43.2613 L-107.188 41.2567 L-107.191 39.252 L-107.194 37.2473 L-107.197 35.2426 L-107.2 33.238 L-107.203 31.2333 L-107.206 29.2286 L-107.209 27.224 L-107.212 25.2193 L-107.215 23.2146 L-107.218 21.2099 L-107.221 19.2053 L-107.224 17.2006 L-107.227 15.1959 L-107.23 13.1912 L-107.233 11.1866 L-107.236 9.1819 L-107.239 7.17722 L-107.242 5.17255 L-107.245 3.16788 L-107.248 1.1632 L-107.251 -0.841469 L-107.255 -2.84614 L-107.258 -4.85081 L-107.261 -6.85549 L-107.264 -8.86016 L-107.267 -10.8648 L-107.27 -12.8695 L-107.273 -14.8742 L-107.276 -16.8789 L-107.279 -18.8835 L-107.282 -20.8882 L-107.285 -22.8929 L-107.288 -24.8975 L-107.291 -26.9022 L-107.294 -28.9069 L-107.297 -30.9116 L-107.3 -32.9162 L-107.303 -34.9209 L-107.306 -36.9256 L-107.309 -38.9303 L-107.312 -40.9349 L-107.315 -42.9396 L-107.318 -44.9443 L-107.321 -46.9489 L-107.324 -48.9536 L-107.327 -50.9583 L-107.33 -52.963 L-107.333 -54.9676 L-107.336 -56.9723 L-107.339 -58.977 L-107.342 -60.9817 L-107.345 -62.9863 L-107.348 -64.991 L-107.351 -66.9957 L-107.354 -69.0003 L-107.357 -71.005 L-107.36 -73.0097 L-107.363 -75.0144 L-107.366 -77.019 L-107.369 -79.0237 L-107.372 -81.0284 L-107.375 -83.0331 L-107.378 -85.0377 L-107.381 -87.0424 L-107.384 -89.0471 L-107.387 -91.0518 L-107.39 -93.0564 L-107.393 -95.0611 L-107.396 -97.0658 L-107.399 -99.0704 L-107.402 -101.075 L-107.405 -103.08 L-107.408 -105.084 L-107.411 -107.089 L-105.406 -107.092 L-103.402 -107.095 L-101.397 -107.098 L-99.3922 -107.101 L-97.3875 -107.104 L-95.3828 -107.107 L-93.3782 -107.11 L-91.3735 -107.113 L-89.3688 -107.116 L-87.3641 -107.119 L-85.3595 -107.122 L-83.3548 -107.125 L-81.3501 -107.128 L-79.3455 -107.131 L-77.3408 -107.134 L-75.3361 -107.137 L-73.3314 -107.14 L-71.3268 -107.143 L-69.3221 -107.146 L-67.3174 -107.149 L-65.3127 -107.152 L-63.3081 -107.155 L-61.3034 -107.158 L-59.2987 -107.161 L-57.2941 -107.164 L-55.2894 -107.167 L-53.2847 -107.17 L-51.28 -107.173 L-49.2754 -107.176 L-47.2707 -107.179 L-45.266 -107.182 L-43.2613 -107.185 L-41.2567 -107.188 L-39.252 -107.191 L-37.2473 -107.194 L-35.2426 -107.197 L-33.238 -107.2 L-31.2333 -107.203 L-29.2286 -107.206 L-27.224 -107.209 L-25.2193 -107.212 L-23.2146 -107.215 L-21.2099 -107.218 L-19.2053 -107.221 L-17.2006 -107.224 L-15.1959 -107.227 L-13.1912 -107.23 L-11.1866 -107.233 L-9.1819 -107.236 L-7.17723 -107.239 L-5.17256 -107.242 L-3.16788 -107.245 L-1.16321 -107.248 L0.841463 -107.252 L2.84614 -107.255 L4.85081 -107.258 L6.85548 -107.261 L8.86015 -107.264 L10.8648 -107.267 L12.8695 -107.27 L14.8742 -107.273 L16.8788 -107.276 L18.8835 -107.279 L20.8882 -107.282 L22.8929 -107.285 L24.8975 -107.288 L26.9022 -107.291 L28.9069 -107.294 L30.9116 -107.297 L32.9162 -107.3 L34.9209 -107.303 L36.9256 -107.306 L38.9302 -107.309 L40.9349 -107.312 L42.9396 -107.315 L44.9443 -107.318 L46.9489 -107.321 L48.9536 -107.324 L50.9583 -107.327 L52.963 -107.33 L54.9676 -107.333 L56.9723 -107.336 L58.977 -107.339 L60.9816 -107.342 L62.9863 -107.345 L64.991 -107.348 L66.9957 -107.351 L69.0003 -107.354 L71.005 -107.357 L73.0097 -107.36 L75.0144 -107.363 L77.019 -107.366 L79.0237 -107.369 L81.0284 -107.372 L83.0331 -107.375 L85.0377 -107.378 L87.0424 -107.381 L89.0471 -107.384 L91.0517 -107.387 L93.0564 -107.39 L95.0611 -107.393 L97.0658 -107.396 L99.0704 -107.399 L101.075 -107.402 L103.08 -107.405 L105.084 -107.408 L107.089 -107.411 L107.092 -105.406 L107.095 -103.402 L107.098 -101.397 L107.101 -99.3922 L107.104 -97.3875 L107.107 -95.3828 L107.11 -93.3782 L107.113 -91.3735 L107.116 -89.3688 L107.119 -87.3642 L107.122 -85.3595 L107.125 -83.3548 L107.128 -81.3501 L107.131 -79.3455 L107.134 -77.3408 L107.137 -75.3361 L107.14 -73.3314 L107.143 -71.3268 L107.146 -69.3221 L107.149 -67.3174 L107.152 -65.3128 L107.155 -63.3081 L107.158 -61.3034 L107.161 -59.2987 L107.164 -57.2941 L107.167 -55.2894 L107.17 -53.2847 L107.173 -51.28 L107.176 -49.2754 L107.179 -47.2707 L107.182 -45.266 L107.185 -43.2613 L107.188 -41.2567 L107.191 -39.252 L107.194 -37.2473 L107.197 -35.2427 L107.2 -33.238 L107.203 -31.2333 L107.206 -29.2286 L107.209 -27.224 L107.212 -25.2193 L107.215 -23.2146 L107.218 -21.2099 L107.221 -19.2053 L107.224 -17.2006 L107.227 -15.1959 L107.23 -13.1913 L107.233 -11.1866 L107.236 -9.18191 L107.239 -7.17724 L107.242 -5.17256 L107.245 -3.16789 L107.248 -1.16322 L107.251 0.841455 L107.255 2.84613 L107.258 4.8508 L107.261 6.85547 L107.264 8.86015 L107.267 10.8648 L107.27 12.8695 L107.273 14.8742 L107.276 16.8788 L107.279 18.8835 L107.282 20.8882 L107.285 22.8929 L107.288 24.8975 L107.291 26.9022 L107.294 28.9069 L107.297 30.9115 L107.3 32.9162 L107.303 34.9209 L107.306 36.9256 L107.309 38.9302 L107.312 40.9349 L107.315 42.9396 L107.318 44.9443 L107.321 46.9489 L107.324 48.9536 L107.327 50.9583 L107.33 52.963 L107.333 54.9676 L107.336 56.9723 L107.339 58.977 L107.342 60.9816 L107.345 62.9863 L107.348 64.991 L107.351 66.9957 L107.354 69.0003 L107.357 71.005 L107.36 73.0097 L107.363 75.0144 L107.366 77.019 L107.369 79.0237 L107.372 81.0284 L107.375 83.033 L107.378 85.0377 L107.381 87.0424 L107.384 89.0471 L107.387 91.0517 L107.39 93.0564 L107.393 95.0611 L107.396 97.0658 L107.399 99.0704 L107.402 101.075 L107.405 103.08 L107.408 105.084 L107.411 107.089 Z " />
<path stroke="rgb(169,255,187)" stroke-opacity="1" fill="rgb(169,255,187)" fill-opacity="1" id="scalebar" d="M-3.69904 -94.609 L-1.65554 -94.609 L0.387962 -94.609 L2.43146 -94.609 L4.47496 -94.609 L4.47496 -92.6686 L4.47496 -90.7281 L4.47496 -88.7876 L4.47496 -86.8472 L4.47496 -84.9067 L4.47496 -82.9663 L4.47496 -81.0258 L4.47496 -79.0853 L4.47496 -77.1449 L4.47496 -75.2044 L4.47496 -73.2639 L4.47496 -71.3235 L4.47496 -69.383 L2.43146 -69.383 L0.387962 -69.383 L-1.65554 -69.383 L-3.69904 -69.383 L-3.69904 -71.3235 L-3.69904 -73.2639 L-3.69904 -75.2044 L-3.69904 -77.1449 L-3.69904 -79.0853 L-3.69904 -81.0258 L-3.69904 -82.9663 L-3.69904 -84.9067 L-3.69904 -86.8472 L-3.69904 -88.7876 L-3.69904 -90.7281 L-3.69904 -92.6686 L-3.69904 -94.609 Z " />
<path stroke="rgb(200,255,200)" stroke-opacity="1" fill="rgb(200,255,200)" fill-opacity="1" id="scaleslider" d="M-6.69904 -76.5235 L-4.67418 -76.5235 L-2.64932 -76.5235 L-0.624466 -76.5235 L1.40039 -76.5235 L3.42525 -76.5235 L5.4501 -76.5235 L7.47496 -76.5235 L7.47496 -74.7968 L7.47496 -73.0701 L7.47496 -71.3435 L5.4501 -71.3435 L3.42525 -71.3435 L1.40039 -71.3435 L-0.624466 -71.3435 L-2.64932 -71.3435 L-4.67418 -71.3435 L-6.69904 -71.3435 L-6.69904 -73.0701 L-6.69904 -74.7968 L-6.69904 -76.5235 Z " />
<path stroke="rgb(255,134,106)" stroke-opacity="1" fill="rgb(255,134,106)" fill-opacity="1" id="tranbar" d="M-49.142 -86.146 L-47.0675 -86.146 L-44.993 -86.146 L-42.9185 -86.146 L-40.844 -86.146 L-40.844 -88.2208 L-40.844 -90.2955 L-40.844 -92.3703 L-40.844 -94.445 L-38.7685 -94.445 L-36.693 -94.445 L-34.6175 -94.445 L-32.542 -94.445 L-32.542 -92.3703 L-32.542 -90.2955 L-32.542 -88.2208 L-32.542 -86.146 L-30.4673 -86.146 L-28.3925 -86.146 L-26.3178 -86.146 L-24.243 -86.146 L-24.243 -84.0715 L-24.243 -81.997 L-24.243 -79.9225 L-24.243 -77.848 L-26.3178 -77.848 L-28.3925 -77.848 L-30.4673 -77.848 L-32.542 -77.848 L-32.542 -75.773 L-32.542 -73.698 L-32.542 -71.623 L-32.542 -69.548 L-34.6175 -69.548 L-36.693 -69.548 L-38.7685 -69.548 L-40.844 -69.548 L-40.844 -71.623 L-40.844 -73.698 L-40.844 -75.773 L-40.844 -77.848 L-42.9185 -77.848 L-44.993 -77.848 L-47.0675 -77.848 L-49.142 -77.848 L-49.142 -79.9225 L-49.142 -81.997 L-49.142 -84.0715 L-49.142 -86.146 Z " />
<path stroke="rgb(255,250,159)" stroke-opacity="1" fill="rgb(255,250,159)" fill-opacity="1" id="translider" d="M-39.248 -84.553 L-37.5447 -84.553 L-35.8414 -84.553 L-34.138 -84.553 L-34.138 -82.85 L-34.138 -81.147 L-34.138 -79.444 L-35.8414 -79.444 L-37.5447 -79.444 L-39.248 -79.444 L-39.248 -81.147 L-39.248 -82.85 L-39.248 -84.553 Z " />
<path stroke="rgb(254,204,128)" stroke-opacity="1" fill="rgb(254,204,128)" fill-opacity="1" id="rotate" d="M46.3996 -79.7132 L45.1007 -78.2947 L43.8018 -76.8762 L42.5028 -75.4577 L41.2039 -74.0392 L39.905 -72.6207 L38.0269 -73.0366 L36.1489 -73.4526 L34.2709 -73.8686 L32.3928 -74.2845 L30.5148 -74.7005 L29.9358 -76.535 L29.3569 -78.3696 L28.778 -80.2041 L28.1991 -82.0386 L27.6202 -83.8732 L28.9193 -85.2917 L30.2184 -86.7103 L31.5175 -88.1289 L32.8166 -89.5475 L34.1157 -90.966 L35.9936 -90.55 L37.8714 -90.134 L39.7493 -89.718 L41.6271 -89.302 L43.505 -88.8859 L44.0839 -87.0514 L44.6628 -85.2169 L45.2418 -83.3823 L45.8207 -81.5478 L46.3996 -79.7132 Z " />
<path stroke="rgb(200,255,200)" stroke-opacity="1" fill="rgb(200,255,200)" fill-opacity="1" id="tri_0" d="M-3.35227 -49.113 L-2.22659 -49.3817 L-1.10091 -49.6504 L0.024772 -49.9191 L1.15045 -50.1878 L2.27614 -50.4565 L1.94665 -49.3485 L1.61716 -48.2405 L1.28767 -47.1326 L0.958179 -46.0246 L0.62869 -44.9167 L-0.167503 -45.756 L-0.963696 -46.5952 L-1.75989 -47.4345 L-2.55608 -48.2738 L-3.35227 -49.113 Z " />
<path stroke="rgb(200,255,200)" stroke-opacity="1" fill="rgb(200,255,200)" fill-opacity="1" id="tri_0_18_" d="M-8.32633 -40.4775 L-7.20104 -40.7466 L-6.07576 -41.0157 L-4.95048 -41.2848 L-3.82519 -41.5539 L-2.69991 -41.823 L-3.02933 -40.7148 L-3.35874 -39.6066 L-3.68815 -38.4984 L-4.01757 -37.3902 L-4.34698 -36.282 L-5.14285 -37.1211 L-5.93872 -37.9602 L-6.73459 -38.7993 L-7.53046 -39.6384 L-8.32633 -40.4775 Z " />
<path stroke="rgb(200,255,200)" stroke-opacity="1" fill="rgb(200,255,200)" fill-opacity="1" id="tri_1_16_" d="M1.78001 -40.5987 L2.88111 -40.8057 L3.9822 -41.0127 L5.0833 -41.2197 L6.1844 -41.4268 L7.28549 -41.6338 L6.91459 -40.5777 L6.54369 -39.5216 L6.17279 -38.4656 L5.80188 -37.4095 L5.43098 -36.3534 L4.70079 -37.2025 L3.97059 -38.0515 L3.2404 -38.9006 L2.5102 -39.7496 L1.78001 -40.5987 Z " />
<path stroke="rgb(200,255,200)" stroke-opacity="1" fill="rgb(200,255,200)" fill-opacity="1" id="tri_0_17_" d="M3.2808 -41.9371 L2.1552 -41.6681 L1.02959 -41.3992 L-0.0960162 -41.1303 L-1.22162 -40.8613 L-2.34723 -40.5924 L-2.01782 -41.7006 L-1.6884 -42.8088 L-1.35899 -43.917 L-1.02957 -45.0252 L-0.70016 -46.1334 L0.0960327 -45.2942 L0.892226 -44.4549 L1.68842 -43.6156 L2.48461 -42.7763 L3.2808 -41.9371 Z " />
<path stroke="rgb(200,255,200)" stroke-opacity="1" fill="rgb(200,255,200)" fill-opacity="1" id="tri_0_16_" d="M-13.302 -31.8414 L-12.1761 -32.1104 L-11.0502 -32.3794 L-9.92439 -32.6485 L-8.79854 -32.9175 L-7.67268 -33.1865 L-8.00251 -32.078 L-8.33235 -30.9696 L-8.66218 -29.8612 L-8.99201 -28.7527 L-9.32184 -27.6443 L-10.1179 -28.4837 L-10.9139 -29.3231 L-11.7099 -30.1626 L-12.5059 -31.002 L-13.302 -31.8414 Z " />
<path stroke="rgb(200,255,200)" stroke-opacity="1" fill="rgb(200,255,200)" fill-opacity="1" id="tri_1_15_" d="M-3.19467 -31.9605 L-2.09347 -32.168 L-0.992259 -32.3754 L0.108948 -32.5828 L1.21015 -32.7902 L2.31136 -32.9976 L1.94028 -31.9412 L1.56919 -30.8849 L1.19811 -29.8285 L0.827023 -28.7721 L0.455939 -27.7157 L-0.274183 -28.5647 L-1.00431 -29.4137 L-1.73443 -30.2626 L-2.46455 -31.1116 L-3.19467 -31.9605 Z " />
<path stroke="rgb(200,255,200)" stroke-opacity="1" fill="rgb(200,255,200)" fill-opacity="1" id="tri_0_15_" d="M-1.69368 -33.302 L-2.81938 -33.0327 L-3.94508 -32.7633 L-5.07078 -32.494 L-6.19648 -32.2247 L-7.32218 -31.9553 L-6.99235 -33.0638 L-6.66251 -34.1722 L-6.33268 -35.2806 L-6.00285 -36.3891 L-5.67302 -37.4975 L-4.87715 -36.6584 L-4.08128 -35.8193 L-3.28541 -34.9802 L-2.48954 -34.1411 L-1.69368 -33.302 Z " />
<path stroke="rgb(200,255,200)" stroke-opacity="1" fill="rgb(200,255,200)" fill-opacity="1" id="tri_2_14_" d="M6.89084 -32.0553 L7.96969 -32.2128 L9.04855 -32.3702 L10.1274 -32.5276 L11.2063 -32.685 L12.2851 -32.8424 L11.8818 -31.8305 L11.4786 -30.8186 L11.0753 -29.8067 L10.672 -28.7948 L10.2688 -27.7828 L9.59317 -28.6373 L8.91759 -29.4918 L8.24201 -30.3463 L7.56642 -31.2008 L6.89084 -32.0553 Z " />
<path stroke="rgb(200,255,200)" stroke-opacity="1" fill="rgb(200,255,200)" fill-opacity="1" id="tri_1_14_" d="M8.13098 -33.1979 L7.0297 -32.9906 L5.92842 -32.7833 L4.82714 -32.576 L3.72586 -32.3686 L2.62458 -32.1613 L2.99566 -33.2177 L3.36675 -34.274 L3.73783 -35.3304 L4.10892 -36.3868 L4.48 -37.4432 L5.2102 -36.5941 L5.94039 -35.7451 L6.67059 -34.896 L7.40078 -34.047 L8.13098 -33.1979 Z " />
<path stroke="rgb(200,255,200)" stroke-opacity="1" fill="rgb(200,255,200)" fill-opacity="1" id="tri_0_14_" d="M-18.2788 -23.2031 L-17.1529 -23.4723 L-16.0271 -23.7415 L-14.9012 -24.0107 L-13.7754 -24.2798 L-12.6495 -24.549 L-12.9794 -23.4408 L-13.3093 -22.3326 L-13.6392 -21.2244 L-13.9691 -20.1162 L-14.299 -19.0081 L-15.095 -19.8471 L-15.8909 -20.6861 L-16.6869 -21.5251 L-17.4828 -22.3641 L-18.2788 -23.2031 Z " />
<path stroke="rgb(200,255,200)" stroke-opacity="1" fill="rgb(200,255,200)" fill-opacity="1" id="tri_1_13_" d="M-8.17144 -23.3252 L-7.07004 -23.5321 L-5.96864 -23.7389 L-4.86723 -23.9457 L-3.76583 -24.1526 L-2.66443 -24.3594 L-3.03533 -23.3033 L-3.40624 -22.2473 L-3.77714 -21.1912 L-4.14804 -20.1351 L-4.51894 -19.0791 L-5.24944 -19.9283 L-5.97994 -20.7775 L-6.71044 -21.6268 L-7.44094 -22.476 L-8.17144 -23.3252 Z " />
<path stroke="rgb(200,255,200)" stroke-opacity="1" fill="rgb(200,255,200)" fill-opacity="1" id="tri_0_13_" d="M-6.66926 -24.6632 L-7.79519 -24.3945 L-8.92112 -24.1257 L-10.0471 -23.8569 L-11.173 -23.5882 L-12.2989 -23.3194 L-11.969 -24.4276 L-11.6391 -25.5358 L-11.3092 -26.644 L-10.9793 -27.7522 L-10.6494 -28.8604 L-9.85336 -28.0209 L-9.05733 -27.1815 L-8.26131 -26.3421 L-7.46529 -25.5026 L-6.66926 -24.6632 Z " />
<path stroke="rgb(200,255,200)" stroke-opacity="1" fill="rgb(200,255,200)" fill-opacity="1" id="tri_2_13_" d="M1.91669 -23.4192 L2.99529 -23.5764 L4.07388 -23.7336 L5.15248 -23.8908 L6.23108 -24.0481 L7.30968 -24.2053 L6.90658 -23.1935 L6.50348 -22.1817 L6.10038 -21.1699 L5.69728 -20.1581 L5.29418 -19.1463 L4.61868 -20.0009 L3.94318 -20.8555 L3.26769 -21.71 L2.59219 -22.5646 L1.91669 -23.4192 Z " />
<path stroke="rgb(200,255,200)" stroke-opacity="1" fill="rgb(200,255,200)" fill-opacity="1" id="tri_1_12_" d="M3.15609 -24.5603 L2.05507 -24.3532 L0.954044 -24.1461 L-0.14698 -23.939 L-1.248 -23.7319 L-2.34903 -23.5248 L-1.97813 -24.5809 L-1.60722 -25.6369 L-1.23632 -26.693 L-0.865421 -27.7491 L-0.494519 -28.8051 L0.235603 -27.9562 L0.965725 -27.1072 L1.69585 -26.2583 L2.42597 -25.4093 L3.15609 -24.5603 Z " />
<path stroke="rgb(200,255,200)" stroke-opacity="1" fill="rgb(200,255,200)" fill-opacity="1" id="tri_3_12_" d="M11.9808 -23.4936 L13.0398 -23.6112 L14.0987 -23.7288 L15.1577 -23.8463 L16.2166 -23.9639 L17.2756 -24.0815 L16.8485 -23.1066 L16.4215 -22.1317 L15.9944 -21.1569 L15.5673 -20.182 L15.1403 -19.2071 L14.5084 -20.0644 L13.8765 -20.9217 L13.2446 -21.779 L12.6127 -22.6363 L11.9808 -23.4936 Z " />
<path stroke="rgb(200,255,200)" stroke-opacity="1" fill="rgb(200,255,200)" fill-opacity="1" id="tri_2_12_" d="M13.0006 -24.4812 L11.922 -24.3239 L10.8433 -24.1666 L9.7646 -24.0093 L8.68592 -23.852 L7.60723 -23.6947 L8.01033 -24.7065 L8.41343 -25.7183 L8.81653 -26.7301 L9.21963 -27.7419 L9.62273 -28.7537 L10.2983 -27.8992 L10.9739 -27.0447 L11.6495 -26.1902 L12.3251 -25.3357 L13.0006 -24.4812 Z " />
<path stroke="rgb(200,255,200)" stroke-opacity="1" fill="rgb(200,255,200)" fill-opacity="1" id="tri_0_12_" d="M-23.2522 -14.5689 L-22.1269 -14.8377 L-21.0016 -15.1065 L-19.8763 -15.3753 L-18.7511 -15.6441 L-17.6258 -15.9128 L-17.9554 -14.8046 L-18.2849 -13.6964 L-18.6145 -12.5882 L-18.9441 -11.48 L-19.2737 -10.3718 L-20.0694 -11.2113 L-20.8651 -12.0507 L-21.6608 -12.8901 L-22.4565 -13.7295 L-23.2522 -14.5689 Z " />
<path stroke="rgb(200,255,200)" stroke-opacity="1" fill="rgb(200,255,200)" fill-opacity="1" id="tri_1_11_" d="M-13.1468 -14.6875 L-12.0457 -14.8948 L-10.9447 -15.102 L-9.84366 -15.3093 L-8.74263 -15.5166 L-7.64159 -15.7238 L-8.01251 -14.6676 L-8.38342 -13.6114 L-8.75433 -12.5551 L-9.12525 -11.4989 L-9.49616 -10.4427 L-10.2263 -11.2916 L-10.9564 -12.1406 L-11.6865 -12.9896 L-12.4166 -13.8385 L-13.1468 -14.6875 Z " />
<path stroke="rgb(200,255,200)" stroke-opacity="1" fill="rgb(200,255,200)" fill-opacity="1" id="tri_0_11_" d="M-11.6462 -16.0276 L-12.7717 -15.7584 L-13.8972 -15.4892 L-15.0228 -15.22 L-16.1483 -14.9508 L-17.2738 -14.6817 L-16.9443 -15.7899 L-16.6147 -16.8981 L-16.2851 -18.0063 L-15.9555 -19.1145 L-15.6259 -20.2227 L-14.83 -19.3836 L-14.034 -18.5446 L-13.2381 -17.7056 L-12.4421 -16.8666 L-11.6462 -16.0276 Z " />
<path stroke="rgb(200,255,200)" stroke-opacity="1" fill="rgb(200,255,200)" fill-opacity="1" id="tri_2_11_" d="M-3.06083 -14.7834 L-1.98186 -14.9405 L-0.902891 -15.0976 L0.17608 -15.2547 L1.25505 -15.4118 L2.33402 -15.5689 L1.93087 -14.5574 L1.52773 -13.5458 L1.12458 -12.5343 L0.721429 -11.5227 L0.31828 -10.5112 L-0.357542 -11.3656 L-1.03337 -12.2201 L-1.70919 -13.0745 L-2.38501 -13.929 L-3.06083 -14.7834 Z " />
<path stroke="rgb(200,255,200)" stroke-opacity="1" fill="rgb(200,255,200)" fill-opacity="1" id="tri_1_10_" d="M-1.81958 -15.9235 L-2.92099 -15.7165 L-4.02241 -15.5095 L-5.12382 -15.3025 L-6.22524 -15.0955 L-7.32665 -14.8885 L-6.95573 -15.9447 L-6.58482 -17.0009 L-6.21391 -18.0572 L-5.84299 -19.1134 L-5.47208 -20.1696 L-4.74158 -19.3204 L-4.01108 -18.4712 L-3.28058 -17.6219 L-2.55008 -16.7727 L-1.81958 -15.9235 Z " />
<path stroke="rgb(200,255,200)" stroke-opacity="1" fill="rgb(200,255,200)" fill-opacity="1" id="tri_3_11_" d="M7.00536 -14.8583 L8.06427 -14.9756 L9.12318 -15.0928 L10.1821 -15.2101 L11.241 -15.3274 L12.2999 -15.4447 L11.8726 -14.4698 L11.4452 -13.495 L11.0178 -12.5202 L10.5905 -11.5453 L10.1631 -10.5705 L9.53157 -11.4281 L8.90002 -12.2856 L8.26847 -13.1432 L7.63691 -14.0007 L7.00536 -14.8583 Z " />
<path stroke="rgb(200,255,200)" stroke-opacity="1" fill="rgb(200,255,200)" fill-opacity="1" id="tri_2_10_" d="M8.02515 -15.8452 L6.9465 -15.6882 L5.86786 -15.5312 L4.78921 -15.3743 L3.71056 -15.2173 L2.63192 -15.0603 L3.03507 -16.0718 L3.43821 -17.0834 L3.84136 -18.0949 L4.24451 -19.1065 L4.64766 -20.118 L5.32316 -19.2635 L5.99866 -18.4089 L6.67415 -17.5543 L7.34965 -16.6998 L8.02515 -15.8452 Z " />
<path stroke="rgb(200,255,200)" stroke-opacity="1" fill="rgb(200,255,200)" fill-opacity="1" id="tri_4_10_" d="M17.0554 -14.9183 L18.0974 -15.0038 L19.1395 -15.0894 L20.1815 -15.1749 L21.2236 -15.2605 L22.2656 -15.346 L21.8189 -14.4019 L21.3722 -13.4579 L20.9254 -12.5138 L20.4787 -11.5697 L20.0319 -10.6256 L19.4366 -11.4842 L18.8413 -12.3427 L18.246 -13.2012 L17.6507 -14.0597 L17.0554 -14.9183 Z " />
<path stroke="rgb(200,255,200)" stroke-opacity="1" fill="rgb(200,255,200)" fill-opacity="1" id="tri_3_10_" d="M17.8931 -15.7878 L16.8339 -15.6703 L15.7746 -15.5528 L14.7154 -15.4352 L13.6561 -15.3177 L12.5969 -15.2002 L13.0242 -16.175 L13.4516 -17.1498 L13.879 -18.1247 L14.3063 -19.0995 L14.7337 -20.0743 L15.3656 -19.217 L15.9975 -18.3597 L16.6294 -17.5024 L17.2613 -16.6451 L17.8931 -15.7878 Z " />
<path stroke="rgb(200,255,200)" stroke-opacity="1" fill="rgb(200,255,200)" fill-opacity="1" id="tri_0_10_" d="M-28.2284 -5.93219 L-27.1025 -6.20136 L-25.9767 -6.47053 L-24.8508 -6.73971 L-23.7249 -7.00888 L-22.5991 -7.27805 L-22.9291 -6.16945 L-23.2591 -5.06086 L-23.5891 -3.95226 L-23.9191 -2.84366 L-24.2491 -1.73506 L-25.0449 -2.57449 L-25.8408 -3.41391 L-26.6367 -4.25334 L-27.4325 -5.09276 L-28.2284 -5.93219 Z " />
<path stroke="rgb(200,255,200)" stroke-opacity="1" fill="rgb(200,255,200)" fill-opacity="1" id="tri_1_9_" d="M-18.1215 -6.05069 L-17.0203 -6.25794 L-15.9191 -6.4652 L-14.8179 -6.67245 L-13.7167 -6.8797 L-12.6155 -7.08695 L-12.9865 -6.03081 L-13.3575 -4.97467 L-13.7285 -3.91853 L-14.0995 -2.86239 L-14.4705 -1.80625 L-15.2007 -2.65514 L-15.9309 -3.50403 L-16.6611 -4.35291 L-17.3913 -5.2018 L-18.1215 -6.05069 Z " />
<path stroke="rgb(200,255,200)" stroke-opacity="1" fill="rgb(200,255,200)" fill-opacity="1" id="tri_0_9_" d="M-16.6206 -7.39154 L-17.7463 -7.12236 L-18.872 -6.85319 L-19.9977 -6.58401 L-21.1234 -6.31483 L-22.2491 -6.04565 L-21.9191 -7.15425 L-21.5891 -8.26285 L-21.2591 -9.37145 L-20.9291 -10.48 L-20.5991 -11.5886 L-19.8034 -10.7492 L-19.0077 -9.9098 L-18.212 -9.07038 L-17.4163 -8.23096 L-16.6206 -7.39154 Z " />
<path stroke="rgb(200,255,200)" stroke-opacity="1" fill="rgb(200,255,200)" fill-opacity="1" id="tri_2_9_" d="M-8.0358 -6.14662 L-6.95712 -6.30391 L-5.87843 -6.46119 L-4.79975 -6.61848 L-3.72107 -6.77577 L-2.64238 -6.93305 L-3.04518 -5.92123 L-3.44797 -4.9094 L-3.85076 -3.89758 L-4.25355 -2.88575 L-4.65634 -1.87393 L-5.33223 -2.72847 L-6.00813 -3.58301 L-6.68402 -4.43754 L-7.35991 -5.29208 L-8.0358 -6.14662 Z " />
<path stroke="rgb(200,255,200)" stroke-opacity="1" fill="rgb(200,255,200)" fill-opacity="1" id="tri_1_8_" d="M-6.79614 -7.28748 L-7.89725 -7.0803 L-8.99836 -6.87312 L-10.0995 -6.66594 L-11.2006 -6.45876 L-12.3017 -6.25158 L-11.9307 -7.30772 L-11.5597 -8.36386 L-11.1887 -9.42 L-10.8177 -10.4761 L-10.4467 -11.5323 L-9.71663 -10.6833 L-8.9865 -9.83436 L-8.25638 -8.9854 L-7.52626 -8.13644 L-6.79614 -7.28748 Z " />
<path stroke="rgb(200,255,200)" stroke-opacity="1" fill="rgb(200,255,200)" fill-opacity="1" id="tri_3_9_" d="M2.02999 -6.22179 L3.08889 -6.33945 L4.14778 -6.45711 L5.20667 -6.57476 L6.26557 -6.69242 L7.32446 -6.81008 L6.89701 -5.83519 L6.46957 -4.86029 L6.04213 -3.88539 L5.61468 -2.9105 L5.18724 -1.9356 L4.55579 -2.79284 L3.92434 -3.65008 L3.29289 -4.50731 L2.66144 -5.36455 L2.02999 -6.22179 Z " />
<path stroke="rgb(200,255,200)" stroke-opacity="1" fill="rgb(200,255,200)" fill-opacity="1" id="tri_2_8_" d="M3.04955 -7.2101 L1.97094 -7.05273 L0.892322 -6.89536 L-0.186293 -6.73799 L-1.26491 -6.58061 L-2.34352 -6.42324 L-1.94073 -7.43507 L-1.53794 -8.44689 L-1.13515 -9.45872 L-0.732355 -10.4705 L-0.329563 -11.4824 L0.34626 -10.6279 L1.02208 -9.77346 L1.69791 -8.91901 L2.37373 -8.06455 L3.04955 -7.2101 Z " />
<path stroke="rgb(200,255,200)" stroke-opacity="1" fill="rgb(200,255,200)" fill-opacity="1" id="tri_4_9_" d="M12.0795 -6.28255 L13.1213 -6.36792 L14.1631 -6.45329 L15.2049 -6.53866 L16.2467 -6.62404 L17.2885 -6.70941 L16.8421 -5.76534 L16.3958 -4.82127 L15.9494 -3.8772 L15.5031 -2.93312 L15.0567 -1.98905 L14.4613 -2.84775 L13.8658 -3.70645 L13.2704 -4.56515 L12.675 -5.42385 L12.0795 -6.28255 Z " />
<path stroke="rgb(200,255,200)" stroke-opacity="1" fill="rgb(200,255,200)" fill-opacity="1" id="tri_3_8_" d="M12.9155 -7.15098 L11.8565 -7.03364 L10.7975 -6.91631 L9.73854 -6.79897 L8.67954 -6.68163 L7.62055 -6.56429 L8.04799 -7.53919 L8.47543 -8.51408 L8.90288 -9.48898 L9.33032 -10.4639 L9.75777 -11.4388 L10.3893 -10.5812 L11.0209 -9.72366 L11.6524 -8.8661 L12.284 -8.00854 L12.9155 -7.15098 Z " />
<path stroke="rgb(200,255,200)" stroke-opacity="1" fill="rgb(200,255,200)" fill-opacity="1" id="tri_5_8_" d="M22.1136 -6.32907 L23.141 -6.38976 L24.1685 -6.45045 L25.1959 -6.51114 L26.2233 -6.57182 L27.2507 -6.63251 L26.7898 -5.71337 L26.329 -4.79423 L25.8681 -3.87509 L25.4072 -2.95595 L24.9464 -2.03681 L24.3798 -2.89526 L23.8133 -3.75371 L23.2467 -4.61217 L22.6802 -5.47062 L22.1136 -6.32907 Z " />
<path stroke="rgb(200,255,200)" stroke-opacity="1" fill="rgb(200,255,200)" fill-opacity="1" id="tri_4_8_" d="M22.7991 -7.10782 L21.7575 -7.02227 L20.7158 -6.93673 L19.6741 -6.85118 L18.6324 -6.76564 L17.5908 -6.68009 L18.0371 -7.62416 L18.4835 -8.56824 L18.9299 -9.51231 L19.3762 -10.4564 L19.8226 -11.4004 L20.4179 -10.5419 L21.0132 -9.6834 L21.6085 -8.82487 L22.2038 -7.96634 L22.7991 -7.10782 Z " />
<path stroke="rgb(200,255,200)" stroke-opacity="1" fill="rgb(200,255,200)" fill-opacity="1" id="tri_0_8_" d="M-33.2058 2.70437 L-32.0798 2.43544 L-30.9539 2.16652 L-29.828 1.89759 L-28.702 1.62867 L-27.5761 1.35974 L-27.9058 2.46794 L-28.2356 3.57613 L-28.5653 4.68433 L-28.8951 5.79252 L-29.2248 6.90072 L-30.021 6.06145 L-30.8172 5.22218 L-31.6134 4.38291 L-32.4096 3.54364 L-33.2058 2.70437 Z " />
<path stroke="rgb(200,255,200)" stroke-opacity="1" fill="rgb(200,255,200)" fill-opacity="1" id="tri_1_7_" d="M-23.0973 2.58449 L-21.9963 2.37763 L-20.8952 2.17077 L-19.7941 1.9639 L-18.693 1.75704 L-17.5919 1.55018 L-17.963 2.60599 L-18.3342 3.6618 L-18.7053 4.71762 L-19.0764 5.77343 L-19.4475 6.82924 L-20.1775 5.98029 L-20.9075 5.13134 L-21.6374 4.28239 L-22.3674 3.43344 L-23.0973 2.58449 Z " />
<path stroke="rgb(200,255,200)" stroke-opacity="1" fill="rgb(200,255,200)" fill-opacity="1" id="tri_0_7_" d="M-21.5961 1.24581 L-22.7217 1.51458 L-23.8473 1.78334 L-24.9729 2.05211 L-26.0986 2.32088 L-27.2242 2.58965 L-26.8944 1.48146 L-26.5647 0.373262 L-26.2349 -0.734932 L-25.9052 -1.84313 L-25.5754 -2.95132 L-24.7796 -2.1119 L-23.9837 -1.27247 L-23.1879 -0.433044 L-22.392 0.406381 L-21.5961 1.24581 Z " />
<path stroke="rgb(200,255,200)" stroke-opacity="1" fill="rgb(200,255,200)" fill-opacity="1" id="tri_2_7_" d="M-13.0125 2.48937 L-11.9336 2.33235 L-10.8547 2.17532 L-9.77586 2.01829 L-8.69698 1.86126 L-7.61809 1.70423 L-8.0211 2.71595 L-8.42412 3.72767 L-8.82713 4.73939 L-9.23014 5.75111 L-9.63316 6.76283 L-10.309 5.90814 L-10.9849 5.05345 L-11.6608 4.19876 L-12.3366 3.34407 L-13.0125 2.48937 Z " />
<path stroke="rgb(200,255,200)" stroke-opacity="1" fill="rgb(200,255,200)" fill-opacity="1" id="tri_1_6_" d="M-11.7713 1.34945 L-12.8726 1.55637 L-13.9739 1.7633 L-15.0753 1.97022 L-16.1766 2.17714 L-17.2779 2.38407 L-16.9068 1.32825 L-16.5357 0.272442 L-16.1646 -0.78337 L-15.7934 -1.83918 L-15.4223 -2.89499 L-14.6921 -2.04611 L-13.9619 -1.19722 L-13.2317 -0.348328 L-12.5015 0.50056 L-11.7713 1.34945 Z " />
<path stroke="rgb(200,255,200)" stroke-opacity="1" fill="rgb(200,255,200)" fill-opacity="1" id="tri_3_7_" d="M-2.94597 2.41479 L-1.8868 2.29733 L-0.827631 2.17986 L0.231539 2.0624 L1.29071 1.94493 L2.34988 1.82747 L1.92222 2.80226 L1.49456 3.77704 L1.0669 4.75183 L0.639246 5.72662 L0.211588 6.70141 L-0.419923 5.84408 L-1.05143 4.98676 L-1.68295 4.12944 L-2.31446 3.27211 L-2.94597 2.41479 Z " />
<path stroke="rgb(200,255,200)" stroke-opacity="1" fill="rgb(200,255,200)" fill-opacity="1" id="tri_2_6_" d="M-1.92482 1.42697 L-3.00373 1.58415 L-4.08263 1.74133 L-5.16154 1.89851 L-6.24044 2.0557 L-7.31934 2.21288 L-6.91633 1.20116 L-6.51332 0.189437 L-6.11031 -0.822283 L-5.70729 -1.834 L-5.30428 -2.84572 L-4.62839 -1.99119 L-3.9525 -1.13665 L-3.27661 -0.28211 L-2.60072 0.572429 L-1.92482 1.42697 Z " />
<path stroke="rgb(200,255,200)" stroke-opacity="1" fill="rgb(200,255,200)" fill-opacity="1" id="tri_4_7_" d="M7.10289 2.35417 L8.14479 2.26859 L9.1867 2.18302 L10.2286 2.09744 L11.2705 2.01186 L12.3124 1.92629 L11.8661 2.87036 L11.4197 3.81443 L10.9733 4.7585 L10.527 5.70257 L10.0806 6.64664 L9.48505 5.78814 L8.88951 4.92965 L8.29397 4.07116 L7.69843 3.21266 L7.10289 2.35417 Z " />
<path stroke="rgb(200,255,200)" stroke-opacity="1" fill="rgb(200,255,200)" fill-opacity="1" id="tri_3_6_" d="M7.9401 1.48445 L6.881 1.602 L5.82189 1.71955 L4.76279 1.8371 L3.70368 1.95465 L2.64458 2.0722 L3.07223 1.09742 L3.49989 0.122629 L3.92755 -0.852158 L4.35521 -1.82695 L4.78286 -2.80173 L5.41431 -1.9445 L6.04576 -1.08726 L6.67721 -0.230022 L7.30866 0.627216 L7.9401 1.48445 Z " />
<path stroke="rgb(200,255,200)" stroke-opacity="1" fill="rgb(200,255,200)" fill-opacity="1" id="tri_5_7_" d="M17.1382 2.30674 L18.1657 2.24623 L19.1932 2.18571 L20.2207 2.1252 L21.2483 2.06469 L22.2758 2.00417 L21.8145 2.92345 L21.3533 3.84273 L20.892 4.76202 L20.4307 5.6813 L19.9695 6.60058 L19.4032 5.74181 L18.8369 4.88304 L18.2707 4.02428 L17.7044 3.16551 L17.1382 2.30674 Z " />
<path stroke="rgb(200,255,200)" stroke-opacity="1" fill="rgb(200,255,200)" fill-opacity="1" id="tri_4_6_" d="M17.8236 1.52805 L16.7818 1.61342 L15.74 1.69879 L14.6982 1.78416 L13.6564 1.86954 L12.6146 1.95491 L13.061 1.01084 L13.5073 0.0667665 L13.9537 -0.877303 L14.4001 -1.82137 L14.8464 -2.76544 L15.4419 -1.90674 L16.0373 -1.04804 L16.6327 -0.189346 L17.2281 0.669353 L17.8236 1.52805 Z " />
<path stroke="rgb(200,255,200)" stroke-opacity="1" fill="rgb(200,255,200)" fill-opacity="1" id="tri_6_6_" d="M27.1546 2.27063 L28.1709 2.22874 L29.1873 2.18686 L30.2037 2.14497 L31.22 2.10308 L32.2364 2.0612 L31.765 2.96115 L31.2936 3.86111 L30.8222 4.76107 L30.3508 5.66103 L29.8793 6.56099 L29.3344 5.70292 L28.7894 4.84485 L28.2445 3.98677 L27.6995 3.1287 L27.1546 2.27063 Z " />
<path stroke="rgb(200,255,200)" stroke-opacity="1" fill="rgb(200,255,200)" fill-opacity="1" id="tri_5_6_" d="M27.7225 1.55893 L26.6947 1.61975 L25.6669 1.68058 L24.6391 1.74141 L23.6113 1.80224 L22.5835 1.86307 L23.0447 0.943786 L23.506 0.0245054 L23.9673 -0.894776 L24.4285 -1.81406 L24.8898 -2.73334 L25.4563 -1.87488 L26.0229 -1.01643 L26.5894 -0.157978 L27.156 0.700474 L27.7225 1.55893 Z " />
<path stroke="rgb(200,255,200)" stroke-opacity="1" fill="rgb(200,255,200)" fill-opacity="1" id="tri_0_6_" d="M-38.1807 11.3421 L-37.055 11.073 L-35.9293 10.8038 L-34.8036 10.5346 L-33.6779 10.2654 L-32.5522 9.99626 L-32.8817 11.1049 L-33.2112 12.2135 L-33.5407 13.3221 L-33.8702 14.4307 L-34.1998 15.5393 L-34.9959 14.6999 L-35.7921 13.8604 L-36.5883 13.021 L-37.3845 12.1816 L-38.1807 11.3421 Z " />
<path stroke="rgb(200,255,200)" stroke-opacity="1" fill="rgb(200,255,200)" fill-opacity="1" id="tri_1_5_" d="M-28.0727 11.2225 L-26.9715 11.0151 L-25.8703 10.8077 L-24.7691 10.6003 L-23.6679 10.3929 L-22.5666 10.1854 L-22.938 11.2416 L-23.3093 12.2977 L-23.6806 13.3538 L-24.0519 14.4099 L-24.4232 15.466 L-25.1531 14.6173 L-25.883 13.7686 L-26.6129 12.9199 L-27.3428 12.0712 L-28.0727 11.2225 Z " />
<path stroke="rgb(200,255,200)" stroke-opacity="1" fill="rgb(200,255,200)" fill-opacity="1" id="tri_0_5_" d="M-26.5715 9.88118 L-27.6972 10.1505 L-28.8229 10.4199 L-29.9486 10.6892 L-31.0743 10.9585 L-32.2 11.2279 L-31.8705 10.1193 L-31.541 9.01067 L-31.2115 7.90206 L-30.882 6.79344 L-30.5525 5.68483 L-29.7563 6.5241 L-28.9601 7.36337 L-28.1639 8.20264 L-27.3677 9.04191 L-26.5715 9.88118 Z " />
<path stroke="rgb(200,255,200)" stroke-opacity="1" fill="rgb(200,255,200)" fill-opacity="1" id="tri_2_5_" d="M-17.9893 11.1259 L-16.9104 10.9687 L-15.8316 10.8114 L-14.7528 10.6541 L-13.6739 10.4969 L-12.5951 10.3396 L-12.9977 11.3513 L-13.4003 12.363 L-13.803 13.3747 L-14.2056 14.3864 L-14.6082 15.398 L-15.2844 14.5436 L-15.9606 13.6892 L-16.6369 12.8348 L-17.3131 11.9804 L-17.9893 11.1259 Z " />
<path stroke="rgb(200,255,200)" stroke-opacity="1" fill="rgb(200,255,200)" fill-opacity="1" id="tri_1_4_" d="M-16.7485 9.98518 L-17.8498 10.1923 L-18.951 10.3995 L-20.0523 10.6067 L-21.1536 10.8138 L-22.2548 11.021 L-21.8835 9.9649 L-21.5122 8.90878 L-21.1409 7.85266 L-20.7696 6.79654 L-20.3983 5.74043 L-19.6684 6.58938 L-18.9384 7.43833 L-18.2084 8.28728 L-17.4785 9.13623 L-16.7485 9.98518 Z " />
<path stroke="rgb(200,255,200)" stroke-opacity="1" fill="rgb(200,255,200)" fill-opacity="1" id="tri_3_5_" d="M-7.92036 11.0497 L-6.8616 10.9324 L-5.80284 10.8151 L-4.74408 10.6978 L-3.68532 10.5805 L-2.62655 10.4632 L-3.05402 11.4383 L-3.48149 12.4133 L-3.90896 13.3883 L-4.33643 14.3634 L-4.76389 15.3384 L-5.39519 14.4807 L-6.02648 13.6229 L-6.65777 12.7652 L-7.28907 11.9074 L-7.92036 11.0497 Z " />
<path stroke="rgb(200,255,200)" stroke-opacity="1" fill="rgb(200,255,200)" fill-opacity="1" id="tri_2_4_" d="M-6.90218 10.0633 L-7.98067 10.2203 L-9.05916 10.3773 L-10.1377 10.5343 L-11.2161 10.6913 L-12.2946 10.8483 L-11.892 9.83656 L-11.4894 8.82487 L-11.0868 7.81318 L-10.6842 6.80149 L-10.2815 5.7898 L-9.60566 6.64449 L-8.92979 7.49918 L-8.25392 8.35387 L-7.57805 9.20857 L-6.90218 10.0633 Z " />
<path stroke="rgb(200,255,200)" stroke-opacity="1" fill="rgb(200,255,200)" fill-opacity="1" id="tri_4_5_" d="M2.12824 10.9924 L3.17003 10.9066 L4.21181 10.8209 L5.2536 10.7351 L6.29539 10.6494 L7.33717 10.5636 L6.89066 11.5077 L6.44415 12.4517 L5.99764 13.3958 L5.55113 14.3398 L5.10462 15.2839 L4.50934 14.4256 L3.91407 13.5673 L3.31879 12.709 L2.72352 11.8507 L2.12824 10.9924 Z " />
<path stroke="rgb(200,255,200)" stroke-opacity="1" fill="rgb(200,255,200)" fill-opacity="1" id="tri_3_4_" d="M2.96463 10.1216 L1.90566 10.2394 L0.846676 10.3571 L-0.212304 10.4748 L-1.27128 10.5925 L-2.33026 10.7103 L-1.90279 9.73521 L-1.47533 8.76017 L-1.04786 7.78512 L-0.62039 6.81008 L-0.192922 5.83503 L0.43859 6.69236 L1.0701 7.54968 L1.70161 8.407 L2.33312 9.26433 L2.96463 10.1216 Z " />
<path stroke="rgb(200,255,200)" stroke-opacity="1" fill="rgb(200,255,200)" fill-opacity="1" id="tri_5_5_" d="M12.1611 10.9435 L13.1889 10.8828 L14.2167 10.8221 L15.2445 10.7614 L16.2723 10.7007 L17.3 10.64 L16.8389 11.5595 L16.3777 12.4789 L15.9166 13.3984 L15.4554 14.3178 L14.9943 15.2373 L14.4277 14.3785 L13.861 13.5198 L13.2944 12.661 L12.7277 11.8022 L12.1611 10.9435 Z " />
<path stroke="rgb(200,255,200)" stroke-opacity="1" fill="rgb(200,255,200)" fill-opacity="1" id="tri_4_4_" d="M12.8478 10.1643 L11.8057 10.2499 L10.7637 10.3354 L9.72163 10.421 L8.67958 10.5065 L7.63753 10.5921 L8.08404 9.64805 L8.53055 8.704 L8.97706 7.75996 L9.42357 6.81592 L9.87008 5.87187 L10.4656 6.73037 L11.0612 7.58886 L11.6567 8.44735 L12.2522 9.30584 L12.8478 10.1643 Z " />
<path stroke="rgb(200,255,200)" stroke-opacity="1" fill="rgb(200,255,200)" fill-opacity="1" id="tri_6_5_" d="M22.1805 10.9075 L23.1964 10.8657 L24.2124 10.8239 L25.2284 10.7822 L26.2444 10.7404 L27.2603 10.6987 L26.7891 11.5986 L26.3179 12.4986 L25.8468 13.3985 L25.3756 14.2984 L24.9044 15.1984 L24.3596 14.3402 L23.8148 13.482 L23.27 12.6238 L22.7252 11.7656 L22.1805 10.9075 Z " />
<path stroke="rgb(200,255,200)" stroke-opacity="1" fill="rgb(200,255,200)" fill-opacity="1" id="tri_5_4_" d="M22.7458 10.1965 L21.7184 10.2571 L20.691 10.3178 L19.6635 10.3785 L18.6361 10.4392 L17.6087 10.4999 L18.0699 9.58044 L18.531 8.66099 L18.9922 7.74153 L19.4533 6.82208 L19.9145 5.90263 L20.4807 6.76139 L21.047 7.62016 L21.6133 8.47893 L22.1795 9.3377 L22.7458 10.1965 Z " />
<path stroke="rgb(200,255,200)" stroke-opacity="1" fill="rgb(200,255,200)" fill-opacity="1" id="tri_7_4_" d="M32.1871 10.8765 L33.1943 10.8489 L34.2014 10.8213 L35.2085 10.7938 L36.2157 10.7662 L37.2228 10.7386 L36.7431 11.6234 L36.2635 12.5082 L35.7838 13.393 L35.3041 14.2777 L34.8245 15.1625 L34.297 14.3053 L33.7695 13.4481 L33.2421 12.5909 L32.7146 11.7337 L32.1871 10.8765 Z " />
<path stroke="rgb(200,255,200)" stroke-opacity="1" fill="rgb(200,255,200)" fill-opacity="1" id="tri_6_4_" d="M32.6616 10.2156 L31.6455 10.2574 L30.6293 10.2993 L29.6132 10.3412 L28.5971 10.383 L27.5809 10.4249 L28.0521 9.52495 L28.5233 8.62502 L28.9945 7.72508 L29.4657 6.82515 L29.9368 5.92521 L30.4818 6.78328 L31.0268 7.64136 L31.5717 8.49943 L32.1167 9.3575 L32.6616 10.2156 Z " />
<path stroke="rgb(200,255,200)" stroke-opacity="1" fill="rgb(200,255,200)" fill-opacity="1" id="tri_0_4_" d="M-43.1575 19.979 L-42.0316 19.71 L-40.9057 19.4409 L-39.7799 19.1719 L-38.654 18.9029 L-37.5282 18.6339 L-37.8578 19.7421 L-38.1873 20.8503 L-38.5169 21.9585 L-38.8465 23.0667 L-39.1761 24.1749 L-39.9723 23.3357 L-40.7686 22.4965 L-41.5649 21.6573 L-42.3612 20.8182 L-43.1575 19.979 Z " />
<path stroke="rgb(200,255,200)" stroke-opacity="1" fill="rgb(200,255,200)" fill-opacity="1" id="tri_1_3_" d="M-33.0488 19.8576 L-31.9475 19.6508 L-30.8463 19.4439 L-29.745 19.2371 L-28.6438 19.0302 L-27.5426 18.8234 L-27.9138 19.8791 L-28.285 20.9348 L-28.6561 21.9905 L-29.0273 23.0463 L-29.3985 24.102 L-30.1286 23.2531 L-30.8586 22.4042 L-31.5887 21.5554 L-32.3187 20.7065 L-33.0488 19.8576 Z " />
<path stroke="rgb(200,255,200)" stroke-opacity="1" fill="rgb(200,255,200)" fill-opacity="1" id="tri_0_3_" d="M-31.5467 18.5194 L-32.6724 18.7882 L-33.7982 19.0569 L-34.924 19.3257 L-36.0497 19.5945 L-37.1755 19.8632 L-36.8459 18.755 L-36.5164 17.6468 L-36.1868 16.5386 L-35.8572 15.4304 L-35.5276 14.3222 L-34.7314 15.1617 L-33.9352 16.0011 L-33.1391 16.8405 L-32.3429 17.68 L-31.5467 18.5194 Z " />
<path stroke="rgb(200,255,200)" stroke-opacity="1" fill="rgb(200,255,200)" fill-opacity="1" id="tri_2_3_" d="M-22.9642 19.7625 L-21.8855 19.6054 L-20.8068 19.4482 L-19.7282 19.2911 L-18.6495 19.134 L-17.5708 18.9768 L-17.9736 19.9887 L-18.3764 21.0005 L-18.7792 22.0123 L-19.182 23.0241 L-19.5848 24.036 L-20.2607 23.1813 L-20.9365 22.3266 L-21.6124 21.4719 L-22.2883 20.6172 L-22.9642 19.7625 Z " />
<path stroke="rgb(200,255,200)" stroke-opacity="1" fill="rgb(200,255,200)" fill-opacity="1" id="tri_1_2_" d="M-21.7239 18.622 L-22.825 18.8291 L-23.9261 19.0361 L-25.0272 19.2431 L-26.1283 19.4501 L-27.2294 19.6571 L-26.8582 18.6014 L-26.487 17.5457 L-26.1158 16.49 L-25.7446 15.4342 L-25.3734 14.3785 L-24.6435 15.2272 L-23.9136 16.0759 L-23.1837 16.9246 L-22.4538 17.7733 L-21.7239 18.622 Z " />
<path stroke="rgb(200,255,200)" stroke-opacity="1" fill="rgb(200,255,200)" fill-opacity="1" id="tri_3_3_" d="M-12.8975 19.6876 L-11.8383 19.5699 L-10.779 19.4522 L-9.71971 19.3346 L-8.66044 19.2169 L-7.60116 19.0992 L-8.0291 20.0743 L-8.45703 21.0495 L-8.88497 22.0246 L-9.31291 22.9997 L-9.74085 23.9748 L-10.3722 23.1174 L-11.0035 22.2599 L-11.6349 21.4025 L-12.2662 20.545 L-12.8975 19.6876 Z " />
<path stroke="rgb(200,255,200)" stroke-opacity="1" fill="rgb(200,255,200)" fill-opacity="1" id="tri_2_2_" d="M-11.8765 18.6987 L-12.9555 18.8561 L-14.0345 19.0135 L-15.1135 19.1709 L-16.1925 19.3283 L-17.2716 19.4857 L-16.8688 18.4738 L-16.466 17.462 L-16.0632 16.4502 L-15.6604 15.4384 L-15.2576 14.4265 L-14.5814 15.281 L-13.9052 16.1354 L-13.229 16.9898 L-12.5527 17.8442 L-11.8765 18.6987 Z " />
<path stroke="rgb(200,255,200)" stroke-opacity="1" fill="rgb(200,255,200)" fill-opacity="1" id="tri_4_3_" d="M-2.84831 19.6281 L-1.80628 19.5427 L-0.76426 19.4573 L0.277764 19.3719 L1.31979 19.2865 L2.36181 19.2011 L1.9155 20.1449 L1.46919 21.0887 L1.02288 22.0324 L0.576567 22.9762 L0.130256 23.92 L-0.465458 23.0616 L-1.06117 22.2032 L-1.65688 21.3449 L-2.25259 20.4865 L-2.84831 19.6281 Z " />
<path stroke="rgb(200,255,200)" stroke-opacity="1" fill="rgb(200,255,200)" fill-opacity="1" id="tri_3_2_" d="M-2.01087 18.7589 L-3.0701 18.8763 L-4.12933 18.9937 L-5.18856 19.1111 L-6.24779 19.2284 L-7.30703 19.3458 L-6.87909 18.3707 L-6.45115 17.3956 L-6.02321 16.4204 L-5.59527 15.4453 L-5.16734 14.4702 L-4.53604 15.3279 L-3.90475 16.1857 L-3.27346 17.0434 L-2.64216 17.9012 L-2.01087 18.7589 Z " />
<path stroke="rgb(200,255,200)" stroke-opacity="1" fill="rgb(200,255,200)" fill-opacity="1" id="tri_5_3_" d="M7.18598 19.5796 L8.21331 19.5189 L9.24064 19.4583 L10.268 19.3977 L11.2953 19.3371 L12.3226 19.2764 L11.8617 20.1956 L11.4007 21.1148 L10.9398 22.034 L10.4788 22.9532 L10.0179 23.8724 L9.45149 23.0138 L8.88512 22.1553 L8.31874 21.2967 L7.75236 20.4381 L7.18598 19.5796 Z " />
<path stroke="rgb(200,255,200)" stroke-opacity="1" fill="rgb(200,255,200)" fill-opacity="1" id="tri_4_2_" d="M7.87152 18.8009 L6.82994 18.8864 L5.78835 18.9719 L4.74676 19.0574 L3.70517 19.1428 L2.66359 19.2283 L3.1099 18.2845 L3.55621 17.3408 L4.00252 16.397 L4.44883 15.4532 L4.89514 14.5094 L5.49042 15.3677 L6.0857 16.226 L6.68097 17.0843 L7.27625 17.9426 L7.87152 18.8009 Z " />
<path stroke="rgb(200,255,200)" stroke-opacity="1" fill="rgb(200,255,200)" fill-opacity="1" id="tri_6_3_" d="M17.2036 19.5426 L18.2197 19.5011 L19.2359 19.4596 L20.252 19.4181 L21.2681 19.3766 L22.2843 19.3351 L21.8128 20.2349 L21.3414 21.1346 L20.87 22.0343 L20.3985 22.934 L19.9271 23.8338 L19.3824 22.9755 L18.8377 22.1173 L18.293 21.2591 L17.7483 20.4008 L17.2036 19.5426 Z " />
<path stroke="rgb(200,255,200)" stroke-opacity="1" fill="rgb(200,255,200)" fill-opacity="1" id="tri_5_2_" d="M17.7704 18.8331 L16.7428 18.8936 L15.7152 18.954 L14.6876 19.0144 L13.66 19.0748 L12.6325 19.1353 L13.0934 18.2161 L13.5544 17.2969 L14.0153 16.3777 L14.4763 15.4585 L14.9372 14.5393 L15.5038 15.3981 L16.0705 16.2568 L16.6371 17.1156 L17.2037 17.9744 L17.7704 18.8331 Z " />
<path stroke="rgb(200,255,200)" stroke-opacity="1" fill="rgb(200,255,200)" fill-opacity="1" id="tri_7_3_" d="M27.2106 19.5121 L28.2178 19.4849 L29.225 19.4576 L30.2322 19.4303 L31.2394 19.4031 L32.2466 19.3758 L31.7671 20.2604 L31.2875 21.145 L30.808 22.0296 L30.3284 22.9142 L29.8489 23.7988 L29.3212 22.9414 L28.7936 22.0841 L28.2659 21.2268 L27.7383 20.3694 L27.2106 19.5121 Z " />
<path stroke="rgb(200,255,200)" stroke-opacity="1" fill="rgb(200,255,200)" fill-opacity="1" id="tri_6_2_" d="M27.6859 18.8526 L26.6696 18.8942 L25.6534 18.9357 L24.6372 18.9773 L23.621 19.0188 L22.6048 19.0604 L23.0762 18.1606 L23.5476 17.2609 L24.0191 16.3612 L24.4905 15.4614 L24.9619 14.5617 L25.5067 15.4199 L26.0515 16.2781 L26.5963 17.1363 L27.1411 17.9944 L27.6859 18.8526 Z " />
<path stroke="rgb(200,255,200)" stroke-opacity="1" fill="rgb(200,255,200)" fill-opacity="1" id="tri_8_2_" d="M37.2044 19.4888 L38.2049 19.4714 L39.2054 19.454 L40.2059 19.4366 L41.2063 19.4191 L42.2068 19.4017 L41.7221 20.2762 L41.2374 21.1506 L40.7526 22.0251 L40.2679 22.8995 L39.7832 23.774 L39.2674 22.9169 L38.7517 22.0599 L38.2359 21.2029 L37.7201 20.3458 L37.2044 19.4888 Z " />
<path stroke="rgb(200,255,200)" stroke-opacity="1" fill="rgb(200,255,200)" fill-opacity="1" id="tri_7_2_" d="M37.609 18.864 L36.602 18.8914 L35.5949 18.9187 L34.5879 18.9461 L33.5809 18.9735 L32.5739 19.0008 L33.0534 18.1163 L33.533 17.2317 L34.0125 16.3471 L34.4921 15.4625 L34.9716 14.5779 L35.4991 15.4351 L36.0266 16.2923 L36.554 17.1496 L37.0815 18.0068 L37.609 18.864 Z " />
<path stroke="rgb(200,255,200)" stroke-opacity="1" fill="rgb(200,255,200)" fill-opacity="1" id="tri_0_2_" d="M-48.132 28.6153 L-47.0065 28.3463 L-45.8809 28.0773 L-44.7554 27.8083 L-43.6299 27.5392 L-42.5044 27.2702 L-42.8338 28.3786 L-43.1632 29.487 L-43.4926 30.5953 L-43.822 31.7037 L-44.1514 32.8121 L-44.9476 31.9727 L-45.7437 31.1334 L-46.5398 30.294 L-47.3359 29.4547 L-48.132 28.6153 Z " />
<path stroke="rgb(200,255,200)" stroke-opacity="1" fill="rgb(200,255,200)" fill-opacity="1" id="tri_1_1_" d="M-38.0242 28.4943 L-36.923 28.287 L-35.8218 28.0798 L-34.7206 27.8725 L-33.6194 27.6653 L-32.5182 27.458 L-32.889 28.5142 L-33.2599 29.5703 L-33.6307 30.6265 L-34.0015 31.6826 L-34.3724 32.7388 L-35.1027 31.8899 L-35.8331 31.041 L-36.5635 30.1921 L-37.2938 29.3432 L-38.0242 28.4943 Z " />
<path stroke="rgb(200,255,200)" stroke-opacity="1" fill="rgb(200,255,200)" fill-opacity="1" id="tri_0_1_" d="M-36.5231 27.155 L-37.6488 27.4241 L-38.7745 27.6933 L-39.9002 27.9625 L-41.0259 28.2317 L-42.1516 28.5009 L-41.8221 27.3925 L-41.4927 26.2841 L-41.1633 25.1758 L-40.8339 24.0674 L-40.5045 22.959 L-39.7082 23.7982 L-38.9119 24.6374 L-38.1156 25.4766 L-37.3194 26.3158 L-36.5231 27.155 Z " />
<path stroke="rgb(200,255,200)" stroke-opacity="1" fill="rgb(200,255,200)" fill-opacity="1" id="tri_2_1_" d="M-27.9373 28.399 L-26.8588 28.2416 L-25.7804 28.0842 L-24.7019 27.9268 L-23.6234 27.7694 L-22.545 27.612 L-22.9479 28.6242 L-23.3508 29.6364 L-23.7537 30.6486 L-24.1566 31.6608 L-24.5595 32.673 L-25.2351 31.8182 L-25.9106 30.9634 L-26.5862 30.1086 L-27.2617 29.2538 L-27.9373 28.399 Z " />
<path stroke="rgb(200,255,200)" stroke-opacity="1" fill="rgb(200,255,200)" fill-opacity="1" id="tri_1" d="M-26.6994 27.2572 L-27.8003 27.4645 L-28.9012 27.6718 L-30.002 27.8791 L-31.1029 28.0863 L-32.2038 28.2936 L-31.833 27.2375 L-31.4621 26.1813 L-31.0913 25.1252 L-30.7205 24.069 L-30.3497 23.0129 L-29.6196 23.8617 L-28.8896 24.7106 L-28.1595 25.5595 L-27.4295 26.4084 L-26.6994 27.2572 Z " />
<path stroke="rgb(200,255,200)" stroke-opacity="1" fill="rgb(200,255,200)" fill-opacity="1" id="tri_3_1_" d="M-17.8721 28.3259 L-16.8131 28.2081 L-15.754 28.0903 L-14.6949 27.9725 L-13.6359 27.8547 L-12.5768 27.737 L-13.0043 28.7119 L-13.4319 29.6869 L-13.8594 30.6618 L-14.2869 31.6368 L-14.7145 32.6118 L-15.346 31.7546 L-15.9775 30.8974 L-16.6091 30.0402 L-17.2406 29.1831 L-17.8721 28.3259 Z " />
<path stroke="rgb(200,255,200)" stroke-opacity="1" fill="rgb(200,255,200)" fill-opacity="1" id="tri_2" d="M-16.8525 27.3367 L-17.9312 27.4942 L-19.01 27.6517 L-20.0888 27.8092 L-21.1676 27.9667 L-22.2464 28.1242 L-21.8435 27.112 L-21.4406 26.0998 L-21.0377 25.0876 L-20.6347 24.0754 L-20.2318 23.0632 L-19.556 23.9179 L-18.8801 24.7726 L-18.2042 25.6273 L-17.5283 26.482 L-16.8525 27.3367 Z " />
<path stroke="rgb(200,255,200)" stroke-opacity="1" fill="rgb(200,255,200)" fill-opacity="1" id="tri_4_1_" d="M-7.82355 28.265 L-6.78188 28.1795 L-5.7402 28.0939 L-4.69853 28.0084 L-3.65686 27.9228 L-2.61518 27.8373 L-3.06143 28.7811 L-3.50768 29.725 L-3.95394 30.6689 L-4.40019 31.6127 L-4.84644 32.5566 L-5.44186 31.6983 L-6.03728 30.84 L-6.63271 29.9816 L-7.22813 29.1233 L-7.82355 28.265 Z " />
<path stroke="rgb(200,255,200)" stroke-opacity="1" fill="rgb(200,255,200)" fill-opacity="1" id="tri_3" d="M-6.98748 27.3956 L-8.04635 27.5131 L-9.10522 27.6306 L-10.1641 27.7481 L-11.223 27.8656 L-12.2818 27.9831 L-11.8543 27.0082 L-11.4268 26.0332 L-10.9992 25.0583 L-10.5717 24.0833 L-10.1442 23.1083 L-9.51284 23.9658 L-8.8815 24.8232 L-8.25016 25.6807 L-7.61882 26.5381 L-6.98748 27.3956 Z " />
<path stroke="rgb(200,255,200)" stroke-opacity="1" fill="rgb(200,255,200)" fill-opacity="1" id="tri_5_1_" d="M2.20966 28.2155 L3.23736 28.1548 L4.26506 28.0942 L5.29276 28.0336 L6.32045 27.973 L7.34815 27.9123 L6.88703 28.8316 L6.42591 29.751 L5.96479 30.6703 L5.50367 31.5896 L5.04255 32.5089 L4.47597 31.6502 L3.90939 30.7915 L3.34282 29.9328 L2.77624 29.0742 L2.20966 28.2155 Z " />
<path stroke="rgb(200,255,200)" stroke-opacity="1" fill="rgb(200,255,200)" fill-opacity="1" id="tri_4" d="M2.89655 27.4372 L1.85459 27.5227 L0.812622 27.6082 L-0.229343 27.6937 L-1.27131 27.7792 L-2.31327 27.8647 L-1.86702 26.9208 L-1.42077 25.9769 L-0.974516 25.0331 L-0.528264 24.0892 L-0.0820127 23.1453 L0.513701 24.0037 L1.10941 24.8621 L1.70513 25.7205 L2.30084 26.5788 L2.89655 27.4372 Z " />
<path stroke="rgb(200,255,200)" stroke-opacity="1" fill="rgb(200,255,200)" fill-opacity="1" id="tri_6_1_" d="M12.2283 28.179 L13.2444 28.1372 L14.2604 28.0954 L15.2765 28.0536 L16.2926 28.0117 L17.3086 27.9699 L16.8373 28.8701 L16.366 29.7702 L15.8947 30.6703 L15.4234 31.5705 L14.9521 32.4706 L14.4073 31.6123 L13.8626 30.7539 L13.3178 29.8956 L12.7731 29.0373 L12.2283 28.179 Z " />
<path stroke="rgb(200,255,200)" stroke-opacity="1" fill="rgb(200,255,200)" fill-opacity="1" id="tri_5" d="M12.794 27.4677 L11.7665 27.5284 L10.739 27.5891 L9.71155 27.6499 L8.68405 27.7106 L7.65655 27.7714 L8.11767 26.8521 L8.57879 25.9328 L9.03991 25.0134 L9.50103 24.0941 L9.96215 23.1748 L10.5285 24.0334 L11.0949 24.892 L11.6613 25.7505 L12.2277 26.6091 L12.794 27.4677 Z " />
<path stroke="rgb(200,255,200)" stroke-opacity="1" fill="rgb(200,255,200)" fill-opacity="1" id="tri_7_1_" d="M22.236 28.1496 L23.243 28.122 L24.25 28.0944 L25.257 28.0668 L26.264 28.0392 L27.271 28.0116 L26.7914 28.8965 L26.3119 29.7815 L25.8323 30.6664 L25.3528 31.5514 L24.8732 32.4363 L24.3458 31.579 L23.8183 30.7216 L23.2909 29.8643 L22.7635 29.0069 L22.236 28.1496 Z " />
<path stroke="rgb(200,255,200)" stroke-opacity="1" fill="rgb(200,255,200)" fill-opacity="1" id="tri_6" d="M22.709 27.4882 L21.693 27.5301 L20.6769 27.572 L19.6609 27.6139 L18.6449 27.6558 L17.6289 27.6977 L18.1002 26.7975 L18.5715 25.8974 L19.0428 24.9973 L19.5142 24.0971 L19.9855 23.197 L20.5302 24.0552 L21.0749 24.9135 L21.6196 25.7717 L22.1643 26.6299 L22.709 27.4882 Z " />
<path stroke="rgb(200,255,200)" stroke-opacity="1" fill="rgb(200,255,200)" fill-opacity="1" id="tri_8_1_" d="M32.2288 28.1261 L33.2295 28.1084 L34.2302 28.0908 L35.2309 28.0731 L36.2316 28.0555 L37.2323 28.0378 L36.7475 28.9124 L36.2627 29.787 L35.778 30.6616 L35.2932 31.5362 L34.8084 32.4108 L34.2925 31.5538 L33.7766 30.6969 L33.2607 29.84 L32.7447 28.983 L32.2288 28.1261 Z " />
<path stroke="rgb(200,255,200)" stroke-opacity="1" fill="rgb(200,255,200)" fill-opacity="1" id="tri_7" d="M32.6336 27.5004 L31.6264 27.528 L30.6192 27.5556 L29.6119 27.5832 L28.6047 27.6108 L27.5975 27.6385 L28.0771 26.7535 L28.5566 25.8686 L29.0362 24.9836 L29.5157 24.0986 L29.9953 23.2137 L30.523 24.071 L31.0506 24.9284 L31.5783 25.7857 L32.1059 26.643 L32.6336 27.5004 Z " />
<path stroke="rgb(200,255,200)" stroke-opacity="1" fill="rgb(200,255,200)" fill-opacity="1" id="tri_9" d="M42.2168 28.1071 L43.2125 28.0966 L44.2082 28.0862 L45.2039 28.0758 L46.1996 28.0654 L47.1953 28.055 L46.7069 28.9215 L46.2185 29.788 L45.7301 30.6545 L45.2418 31.521 L44.7534 32.3876 L44.2461 31.5315 L43.7388 30.6754 L43.2314 29.8193 L42.7241 28.9632 L42.2168 28.1071 Z " />
<path stroke="rgb(200,255,200)" stroke-opacity="1" fill="rgb(200,255,200)" fill-opacity="1" id="tri_8" d="M42.571 27.507 L41.5705 27.5246 L40.5699 27.5421 L39.5694 27.5597 L38.5689 27.5772 L37.5684 27.5948 L38.0531 26.7202 L38.5379 25.8456 L39.0227 24.971 L39.5074 24.0964 L39.9922 23.2219 L40.508 24.0789 L41.0237 24.9359 L41.5395 25.793 L42.0552 26.65 L42.571 27.507 Z " />
</g>
</g>
</svg>
