<!DOCTYPE svg>
<svg xmlns="http://www.w3.org/2000/svg" xmlns:xlink="http://www.w3.org/1999/xlink" width="600" height="600">
<g transform="translate(300.000000,300.000000)">
<g transform="scale(3.000000,3.000000)">
<path stroke="rgb(0,0,0)" stroke-opacity="1" fill="rgb(255,255,255)" fill-opacity="1" id="Layer_1" d="M107.411 107.089 L105.406 107.092 L103.402 107.095 L101.397 107.098 L99.3922 107.101 L97.3875 107.104 L95.3828 107.107 L93.3782 107.11 L91.3735 107.113 L89.3688 107.116 L87.3641 107.119 L85.3595 107.122 L83.3548 107.125 L81.3501 107.128 L79.3455 107.131 L77.3408 107.134 L75.3361 107.137 L73.3314 107.14 L71.3268 107.143 L69.3221 107.146 L67.3174 107.149 L65.3127 107.152 L63.3081 107.155 L61.3034 107.158 L59.2987 107.161 L57.2941 107.164 L55.2894 107.167 L53.2847 107.17 L51.28 107.173 L49.2754 107.176 L47.2707 107.179 L45.266 107.182 L43.2613 107.185 L41.2567 107.188 L39.252 107.191 L37.2473 107.194 L35.2426 107.197 L33.238 107.2 L31.2333 107.203 L29.2286 107.206 L27.224 107.209 L25.2193 107.212 L23.2146 107.215 L21.2099 107.218 L19.2053 107.221 L17.2006 107.224 L15.1959 107.227 L13.1912 107.23 L11.1866 107.233 L9.1819 107.236 L7.17723 107.239 L5.17256 107.242 L3.16788 107.245 L1.16321 107.248 L-0.841463 107.252 L-2.84614 107.255 L-4.85081 107.258 L-6.85548 107.261 L-8.86015 107.264 L-10.8648 107.267 L-12.8695 107.27 L-14.8742 107.273 L-16.8788 107.276 L-18.8835 107.279 L-20.8882 107.282 L-22.8929 107.285 L-24.8975 107.288 L-26.9022 107.291 L-28.9069 107.294 L-30.9116 107.297 L-32.9162 107.3 L-34.9209 107.303 L-36.9256 107.306 L-38.9302 107.309 L-40.9349 107.312 L-42.9396 107.315 L-44.9443 107.318 L-46.9489 107.321 L-48.9536 107.324 L-50.9583 107.327 L-52.963 107.33 L-54.9676 107.333 L-56.9723 107.336 L-58.977 107.339 L-60.9816 107.342 L-62.9863 107.345 L-64.991 107.348 L-66.9957 107.351 L-69.0003 107.354 L-71.005 107.357 L-73.0097 107.36 L-75.0144 107.363 L-77.019 107.366 L-79.0237 107.369 L-81.0284 107.372 L-83.0331 107.375 L-85.0377 107.378 L-87.0424 107.381 L-89.0471 107.384 L-91.0517 107.387 L-93.0564 107.39 L-95.0611 107.393 L-97.0658 107.396 L-99.0704 107.399 L-101.075 107.402 L-103.08 107.405 L-105.084 107.408 L-107.089 107.411 L-107.092 105.406 L-107.095 103.402 L-107.098 101.397 L-107.101 99.3922 L-107.104 97.3875 L-107.107 95.3828 L-107.11 93.3782 L-107.113 91.3735 L-107.116 89.3688 L-107.119 87.3641 L-107.122 85.3595 L-107.125 83.3548 L-107.128 81.3501 L-107.131 79.3455 L-107.134 77.3408 L-107.137 75.3361 L-107.14 73.3314 L-107.143 71.3268 L-107.146 69.3221 L-107.149 67.3174 L-107.152 65.3127 L-107.155 63.3081 L-107.158 61.3034 L-107.161 59.2987 L-107.164 57.2941 L-107.167 55.2894 L-107.17 53.2847 L-107.173 51.28 L-107.176 49.2754 L-107.179 47.2707 L-107.182 45.266 L-107.185 43.2613 L-107.188 41.2567 L-107.191 39.252 L-107.194 37.2473 L-107.197 35.2426 L-107.2 33.238 L-107.203 31.2333 L-107.206 29.2286 L-107.209 27.224 L-107.212 25.2193 L-107.215 23.2146 L-107.218 21.2099 L-107.221 19.2053 L-107.224 17.2006 L-107.227 15.1959 L-107.23 13.1912 L-107.233 11.1866 L-107.236 9.1819 L-107.239 7.17722 L-107.242 5.17255 L-107.245 3.16788 L-107.248 1.1632 L-107.251 -0.841469 L-107.255 -2.84614 L-107.258 -4.85081 L-107.261 -6.85549 L-107.264 -8.86016 L-107.267 -10.8648 L-107.27 -12.8695 L-107.273 -14.8742 L-107.276 -16.8789 L-107.279 -18.8835 L-107.282 -20.8882 L-107.285 -22.8929 L-107.288 -24.8975 L-107.291 -26.9022 L-107.294 -28.9069 L-107.297 -30.9116 L-107.3 -32.9162 L-107.303 -34.9209 L-107.306 -36.9256 L-107.309 -38.9303 L-107.312 -40.9349 L-107.315 -42.9396 L-107.318 -44.9443 L-107.321 -46.9489 L-107.324 -48.9536 L-107.327 -50.9583 L-107.33 -52.963 L-107.333 -54.9676 L-107.336 -56.9723 L-107.339 -58.977 L-107.342 -60.9817 L-107.345 -62.9863 L-107.348 -64.991 L-107.351 -66.9957 L-107.354 -69.0003 L-107.357 -71.005 L-107.36 -73.0097 L-107.363 -75.0144 L-107.366 -77.019 L-107.369 -79.0237 L-107.372 -81.0284 L-107.375 -83.0331 L-107.378 -85.0377 L-107.381 -87.0424 L-107.384 -89.0471 L-107.387 -91.0518 L-107.39 -93.0564 L-107.393 -95.0611 L-107.396 -97.0658 L-107.399 -99.0704 L-107.402 -101.075 L-107.405 -103.08 L-107.408 -105.084 L-107.411 -107.089 L-105.406 -107.092 L-103.402 -107.095 L-101.397 -107.098 L-99.3922 -107.101 L-97.3875 -107.104 L-95.3828 -107.107 L-93.3782 -107.11 L-91.3735 -107.113 L-89.3688 -107.116 L-87.3641 -107.119 L-85.3595 -107.122 L-83.3548 -107.125 L-81.3501 -107.128 L-79.3455 -107.131 L-77.3408 -107.134 L-75.3361 -107.137 L-73.3314 -107.14 L-71.3268 -107.143 L-69.3221 -107.146 L-67.3174 -107.149 L-65.3127 -107.152 L-63.3081 -107.155 L-61.3034 -107.158 L-59.2987 -107.161 L-57.2941 -107.164 L-55.2894 -107.167 L-53.2847 -107.17 L-51.28 -107.173 L-49.2754 -107.176 L-47.2707 -107.179 L-45.266 -107.182 L-43.2613 -107.185 L-41.2567 -107.188 L-39.252 -107.191 L-37.2473 -107.194 L-35.2426 -107.197 L-33.238 -107.2 L-31.2333 -107.203 L-29.2286 -107.206 L-27.224 -107.209 L-25.2193 -107.212 L-23.2146 -107.215 L-21.2099 -107.218 L-19.2053 -107.221 L-17.2006 -107.224 L-15.1959 -107.227 L-13.1912 -107.23 L-11.1866 -107.233 L-9.1819 -107.236 L-7.17723 -107.239 L-5.17256 -107.242 L-3.16788 -107.245 L-1.16321 -107.248 L0.841463 -107.252 L2.84614 -107.255 L4.85081 -107.258 L6.85548 -107.261 L8.86015 -107.264 L10.8648 -107.267 L12.8695 -107.27 L14.8742 -107.273 L16.8788 -107.276 L18.8835 -107.279 L20.8882 -107.282 L22.8929 -107.285 L24.8975 -107.288 L26.9022 -107.291 L28.9069 -107.294 L30.9116 -107.297 L32.9162 -107.3 L34.9209 -107.303 L36.9256 -107.306 L38.9302 -107.309 L40.9349 -107.312 L42.9396 -107.315 L44.9443 -107.318 L46.9489 -107.321 L48.9536 -107.324 L50.9583 -107.327 L52.963 -107.33 L54.9676 -107.333 L56.9723 -107.336 L58.977 -107.339 L60.9816 -107.342 L62.9863 -107.345 L64.991 -107.348 L66.9957 -107.351 L69.0003 -107.354 L71.005 -107.357 L73.0097 -107.36 L75.0144 -107.363 L77.019 -107.366 L79.0237 -107.369 L81.0284 -107.372 L83.0331 -107.375 L85.0377 -107.378 L87.0424 -107.381 L89.0471 -107.384 L91.0517 -107.387 L93.0564 -107.39 L95.0611 -107.393 L97.0658 -107.396 L99.0704 -107.399 L101.075 -107.402 L103.08 -107.405 L105.084 -107.408 L107.089 -107.411 L107.092 -105.406 L107.095 -103.402 L107.098 -101.397 L107.101 -99.3922 L107.104 -97.3875 L107.107 -95.3828 L107.11 -93.3782 L107.113 -91.3735 L107.116 -89.3688 L107.119 -87.3642 L107.122 -85.3595 L107.125 -83.3548 L107.128 -81.3501 L107.131 -79.3455 L107.134 -77.3408 L107.137 -75.3361 L107.14 -73.3314 L107.143 -71.3268 L107.146 -69.3221 L107.149 -67.3174 L107.152 -65.3128 L107.155 -63.3081 L107.158 -61.3034 L107.161 -59.2987 L107.164 -57.2941 L107.167 -55.2894 L107.17 -53.2847 L107.173 -51.28 L107.176 -49.2754 L107.179 -47.2707 L107.182 -45.266 L107.185 -43.2613 L107.188 -41.2567 L107.191 -39.252 L107.194 -37.2473 L107.197 -35.2427 L107.2 -33.238 L107.203 -31.2333 L107.206 -29.2286 L107.209 -27.224 L107.212 -25.2193 L107.215 -23.2146 L107.218 -21.2099 L107.221 -19.2053 L107.224 -17.2006 L107.227 -15.1959 L107.23 -13.1913 L107.233 -11.1866 L107.236 -9.18191 L107.239 -7.17724 L107.242 -5.17256 L107.245 -3.16789 L107.248 -1.16322 L107.251 0.841455 L107.255 2.84613 L107.258 4.8508 L107.261 6.85547 L107.264 8.86015 L107.267 10.8648 L107.27 12.8695 L107.273 14.8742 L107.276 16.8788 L107.279 18.8835 L107.282 20.8882 L107.285 22.8929 L107.288 24.8975 L107.291 26.9022 L107.294 28.9069 L107.297 30.9115 L107.3 32.9162 L107.303 34.9209 L107.306 36.9256 L107.309 38.9302 L107.312 40.9349 L107.315 42.9396 L107.318 44.9443 L107.321 46.9489 L107.324 48.9536 L107.327 50.9583 L107.33 52.963 L107.333 54.9676 L107.336 56.9723 L107.339 58.977 L107.342 60.9816 L107.345 62.9863 L107.348 64.991 L107.351 66.9957 L107.354 69.0003 L107.357 71.005 L107.36 73.0097 L107.363 75.0144 L107.366 77.019 L107.369 79.0237 L107.372 81.0284 L107.375 83.033 L107.378 85.0377 L107.381 87.0424 L107.384 89.0471 L107.387 91.0517 L107.39 93.0564 L107.393 95.0611 L107.396 97.0658 L107.399 99.0704 L107.402 101.075 L107.405 103.08 L107.408 105.084 L107.411 107.089 Z " />
<path stroke="rgb(169,255,187)" stroke-opacity="1" fill="rgb(169,255,187)" fill-opacity="1" id="scalebar" d="M-3.69904 -94.609 L-1.65554 -94.609 L0.387962 -94.609 L2.43146 -94.609 L4.47496 -94.609 L4.47496 -92.6686 L4.47496 -90.7281 L4.47496 -88.7876 L4.47496 -86.8472 L4.47496 -84.9067 L4.47496 -82.9663 L4.47496 -81.0258 L4.47496 -79.0853 L4.47496 -77.1449 L4.47496 -75.2044 L4.47496 -73.2639 L4.47496 -71.3235 L4.47496 -69.383 L2.43146 -69.383 L0.387962 -69.383 L-1.65554 -69.383 L-3.69904 -69.383 L-3.69904 -71.3235 L-3.69904 -73.2639 L-3.69904 -75.2044 L-3.69904 -77.1449 L-3.69904 -79.0853 L-3.69904 -81.0258 L-3.69904 -82.9663 L-3.69904 -84.9067 L-3.69904 -86.8472 L-3.69904 -88.7876 L-3.69904 -90.7281 L-3.69904 -92.6686 L-3.69904 -94.609 Z " />
<path stroke="rgb(200,255,200)" stroke-opacity="1" fill="rgb(200,255,200)" fill-opacity="1" id="scaleslider" d="M-6.69904 -84.587 L-4.67418 -84.587 L-2.64932 -84.587 L-0.624466 -84.587 L1.40039 -84.587 L3.42525 -84.587 L5.4501 -84.587 L7.47496 -84.587 L7.47496 -82.8604 L7.47496 -81.1337 L7.47496 -79.407 L5.4501 -79.407 L3.42525 -79.407 L1.40039 -79.407 L-0.624466 -79.407 L-2.64932 -79.407 L-4.67418 -79.407 L-6.69904 -79.407 L-6.69904 -81.1337 L-6.69904 -82.8604 L-6.69904 -84.587 Z " />
<path stroke="rgb(255,134,106)" stroke-opacity="1" fill="rgb(255,134,106)" fill-opacity="1" id="tranbar" d="M-49.142 -86.146 L-47.0675 -86.146 L-44.993 -86.146 L-42.9185 -86.146 L-40.844 -86.146 L-40.844 -88.2208 L-40.844 -90.2955 L-40.844 -92.3703 L-40.844 -94.445 L-38.7685 -94.445 L-36.693 -94.445 L-34.6175 -94.445 L-32.542 -94.445 L-32.542 -92.3703 L-32.542 -90.2955 L-32.542 -88.2208 L-32.542 -86.146 L-30.4673 -86.146 L-28.3925 -86.146 L-26.3178 -86.146 L-24.243 -86.146 L-24.243 -84.0715 L-24.243 -81.997 L-24.243 -79.9225 L-24.243 -77.848 L-26.3178 -77.848 L-28.3925 -77.848 L-30.4673 -77.848 L-32.542 -77.848 L-32.542 -75.773 L-32.542 -73.698 L-32.542 -71.623 L-32.542 -69.548 L-34.6175 -69.548 L-36.693 -69.548 L-38.7685 -69.548 L-40.844 -69.548 L-40.844 -71.623 L-40.844 -73.698 L-40.844 -75.773 L-40.844 -77.848 L-42.9185 -77.848 L-44.993 -77.848 L-47.0675 -77.848 L-49.142 -77.848 L-49.142 -79.9225 L-49.142 -81.997 L-49.142 -84.0715 L-49.142 -86.146 Z " />
<path stroke="rgb(255,250,159)" stroke-opacity="1" fill="rgb(255,250,159)" fill-opacity="1" id="translider" d="M-39.248 -84.553 L-37.5447 -84.553 L-35.8414 -84.553 L-34.138 -84.553 L-34.138 -82.85 L-34.138 -81.147 L-34.138 -79.444 L-35.8414 -79.444 L-37.5447 -79.444 L-39.248 -79.444 L-39.248 -81.147 L-39.248 -82.85 L-39.248 -84.553 Z " />
<path stroke="rgb(254,204,128)" stroke-opacity="1" fill="rgb(254,204,128)" fill-opacity="1" id="rotate" d="M34.5962 -72.7697 L33.2737 -74.1811 L31.9512 -75.5926 L30.6287 -77.004 L29.3062 -78.4155 L27.9837 -79.827 L28.5451 -81.6781 L29.1065 -83.5292 L29.6679 -85.3804 L30.2294 -87.2315 L30.7908 -89.0826 L32.6748 -89.5221 L34.5588 -89.9616 L36.4427 -90.4011 L38.3267 -90.8406 L40.2107 -91.2801 L41.5333 -89.8684 L42.8558 -88.4568 L44.1784 -87.0451 L45.5009 -85.6335 L46.8235 -84.2218 L46.262 -82.3709 L45.7005 -80.5199 L45.139 -78.669 L44.5776 -76.818 L44.0161 -74.9671 L42.1321 -74.5276 L40.2481 -74.0881 L38.3642 -73.6486 L36.4802 -73.2092 L34.5962 -72.7697 Z " />
<path stroke="rgb(200,255,200)" stroke-opacity="1" fill="rgb(200,255,200)" fill-opacity="1" id="tri_0" d="M-4.31357 -44.5817 L-3.73939 -46.4855 L-3.16521 -48.3894 L-2.59102 -50.2932 L-2.01684 -52.1971 L-1.44265 -54.1009 L-0.0809182 -52.6523 L1.28082 -51.2038 L2.64255 -49.7552 L4.00429 -48.3067 L5.36602 -46.8581 L3.4301 -46.4028 L1.49418 -45.9476 L-0.441735 -45.4923 L-2.37765 -45.037 L-4.31357 -44.5817 Z " />
<path stroke="rgb(200,255,200)" stroke-opacity="1" fill="rgb(200,255,200)" fill-opacity="1" id="tri_0_18_" d="M-9.28371 -35.9353 L-8.7105 -37.8389 L-8.13729 -39.7425 L-7.56408 -41.6461 L-6.99087 -43.5497 L-6.41766 -45.4533 L-5.05549 -44.0047 L-3.69332 -42.556 L-2.33115 -41.1074 L-0.968976 -39.6587 L0.393194 -38.21 L-1.54219 -37.7551 L-3.47757 -37.3001 L-5.41295 -36.8452 L-7.34833 -36.3902 L-9.28371 -35.9353 Z " />
<path stroke="rgb(200,255,200)" stroke-opacity="1" fill="rgb(200,255,200)" fill-opacity="1" id="tri_1_16_" d="M0.691252 -35.9527 L1.26488 -37.8562 L1.8385 -39.7598 L2.41213 -41.6633 L2.98575 -43.5668 L3.55938 -45.4704 L4.9211 -44.0218 L6.28283 -42.5732 L7.64455 -41.1246 L9.00628 -39.676 L10.368 -38.2274 L8.43265 -37.7725 L6.4973 -37.3176 L4.56195 -36.8626 L2.6266 -36.4077 L0.691252 -35.9527 Z " />
<path stroke="rgb(200,255,200)" stroke-opacity="1" fill="rgb(200,255,200)" fill-opacity="1" id="tri_0_17_" d="M4.16244 -46.5562 L3.58869 -44.6522 L3.01495 -42.7483 L2.4412 -40.8444 L1.86745 -38.9404 L1.2937 -37.0365 L-0.0684708 -38.4851 L-1.43064 -39.9338 L-2.79281 -41.3825 L-4.15498 -42.8311 L-5.51715 -44.2798 L-3.58123 -44.7351 L-1.64531 -45.1903 L0.290606 -45.6456 L2.22652 -46.1009 L4.16244 -46.5562 Z " />
<path stroke="rgb(200,255,200)" stroke-opacity="1" fill="rgb(200,255,200)" fill-opacity="1" id="tri_0_16_" d="M-14.2575 -27.2848 L-13.6837 -29.1892 L-13.1098 -31.0935 L-12.536 -32.9979 L-11.9621 -34.9023 L-11.3882 -36.8067 L-10.0261 -35.3572 L-8.66393 -33.9077 L-7.30177 -32.4582 L-5.93962 -31.0087 L-4.57746 -29.5593 L-6.51347 -29.1044 L-8.44948 -28.6495 L-10.3855 -28.1946 L-12.3215 -27.7397 L-14.2575 -27.2848 Z " />
<path stroke="rgb(200,255,200)" stroke-opacity="1" fill="rgb(200,255,200)" fill-opacity="1" id="tri_1_15_" d="M-4.27956 -27.302 L-3.70646 -29.206 L-3.13336 -31.11 L-2.56026 -33.014 L-1.98716 -34.918 L-1.41406 -36.8221 L-0.0520026 -35.3729 L1.31005 -33.9238 L2.67211 -32.4747 L4.03416 -31.0256 L5.39622 -29.5765 L3.46106 -29.1216 L1.52591 -28.6667 L-0.409252 -28.2118 L-2.34441 -27.7569 L-4.27956 -27.302 Z " />
<path stroke="rgb(200,255,200)" stroke-opacity="1" fill="rgb(200,255,200)" fill-opacity="1" id="tri_0_15_" d="M-0.810651 -37.9078 L-1.38388 -36.0034 L-1.9571 -34.0989 L-2.53033 -32.1945 L-3.10355 -30.2901 L-3.67678 -28.3856 L-5.03893 -29.8351 L-6.40109 -31.2846 L-7.76325 -32.7341 L-9.1254 -34.1836 L-10.4876 -35.633 L-8.55217 -36.088 L-6.61679 -36.543 L-4.68141 -36.9979 L-2.74603 -37.4529 L-0.810651 -37.9078 Z " />
<path stroke="rgb(200,255,200)" stroke-opacity="1" fill="rgb(200,255,200)" fill-opacity="1" id="tri_2_14_" d="M5.69623 -27.3198 L6.2694 -29.2234 L6.84257 -31.1271 L7.41574 -33.0307 L7.98891 -34.9343 L8.56207 -36.838 L9.92349 -35.3889 L11.2849 -33.9398 L12.6463 -32.4907 L14.0077 -31.0417 L15.3691 -29.5926 L13.4345 -29.138 L11.5 -28.6835 L9.56539 -28.2289 L7.63081 -27.7743 L5.69623 -27.3198 Z " />
<path stroke="rgb(200,255,200)" stroke-opacity="1" fill="rgb(200,255,200)" fill-opacity="1" id="tri_1_14_" d="M9.16447 -37.9242 L8.59118 -36.0202 L8.01788 -34.1161 L7.44459 -32.212 L6.87129 -30.308 L6.29799 -28.4039 L4.93594 -29.853 L3.57388 -31.3021 L2.21183 -32.7513 L0.849774 -34.2004 L-0.512281 -35.6495 L1.42307 -36.1044 L3.35842 -36.5594 L5.29377 -37.0143 L7.22912 -37.4693 L9.16447 -37.9242 Z " />
<path stroke="rgb(200,255,200)" stroke-opacity="1" fill="rgb(200,255,200)" fill-opacity="1" id="tri_0_14_" d="M-19.2303 -18.6341 L-18.6567 -20.5386 L-18.0831 -22.4431 L-17.5095 -24.3477 L-16.9359 -26.2522 L-16.3623 -28.1567 L-15.0005 -26.7073 L-13.6388 -25.258 L-12.2771 -23.8086 L-10.9154 -22.3592 L-9.55366 -20.9098 L-11.489 -20.4547 L-13.4243 -19.9995 L-15.3597 -19.5444 L-17.295 -19.0892 L-19.2303 -18.6341 Z " />
<path stroke="rgb(200,255,200)" stroke-opacity="1" fill="rgb(200,255,200)" fill-opacity="1" id="tri_1_13_" d="M-9.25556 -18.6523 L-8.68139 -20.5562 L-8.10723 -22.46 L-7.53307 -24.3639 L-6.9589 -26.2678 L-6.38474 -28.1716 L-5.02302 -26.723 L-3.66129 -25.2744 L-2.29956 -23.8259 L-0.937839 -22.3773 L0.423886 -20.9287 L-1.512 -20.4734 L-3.44789 -20.0181 L-5.38378 -19.5629 L-7.31967 -19.1076 L-9.25556 -18.6523 Z " />
<path stroke="rgb(200,255,200)" stroke-opacity="1" fill="rgb(200,255,200)" fill-opacity="1" id="tri_0_13_" d="M-5.78151 -29.2574 L-6.3558 -27.3531 L-6.93009 -25.4489 L-7.50438 -23.5446 L-8.07866 -21.6403 L-8.65295 -19.7361 L-10.0147 -21.1854 L-11.3764 -22.6348 L-12.7381 -24.0842 L-14.0998 -25.5336 L-15.4616 -26.9829 L-13.5256 -27.4378 L-11.5895 -27.8927 L-9.65353 -28.3476 L-7.71752 -28.8025 L-5.78151 -29.2574 Z " />
<path stroke="rgb(200,255,200)" stroke-opacity="1" fill="rgb(200,255,200)" fill-opacity="1" id="tri_2_13_" d="M0.723949 -18.6717 L1.29725 -20.5748 L1.87056 -22.4779 L2.44386 -24.3809 L3.01716 -26.284 L3.59047 -28.187 L4.95179 -26.7383 L6.31311 -25.2897 L7.67443 -23.841 L9.03575 -22.3923 L10.3971 -20.9436 L8.46244 -20.4892 L6.52782 -20.0348 L4.5932 -19.5805 L2.65857 -19.1261 L0.723949 -18.6717 Z " />
<path stroke="rgb(200,255,200)" stroke-opacity="1" fill="rgb(200,255,200)" fill-opacity="1" id="tri_1_12_" d="M4.19269 -29.2732 L3.61926 -27.3697 L3.04583 -25.4662 L2.4724 -23.5627 L1.89897 -21.6593 L1.32554 -19.7558 L-0.0361869 -21.2044 L-1.39791 -22.6529 L-2.75964 -24.1015 L-4.12136 -25.5501 L-5.48309 -26.9987 L-3.54793 -27.4536 L-1.61278 -27.9085 L0.32238 -28.3634 L2.25754 -28.8183 L4.19269 -29.2732 Z " />
<path stroke="rgb(200,255,200)" stroke-opacity="1" fill="rgb(200,255,200)" fill-opacity="1" id="tri_3_12_" d="M10.6993 -18.6874 L11.2724 -20.5902 L11.8455 -22.4931 L12.4187 -24.3959 L12.9918 -26.2987 L13.5649 -28.2015 L14.9263 -26.7541 L16.2878 -25.3066 L17.6492 -23.8592 L19.0106 -22.4117 L20.372 -20.9643 L18.4375 -20.5089 L16.5029 -20.0535 L14.5684 -19.5981 L12.6338 -19.1428 L10.6993 -18.6874 Z " />
<path stroke="rgb(200,255,200)" stroke-opacity="1" fill="rgb(200,255,200)" fill-opacity="1" id="tri_2_12_" d="M14.1658 -29.2883 L13.5926 -27.385 L13.0193 -25.4818 L12.4461 -23.5785 L11.8728 -21.6753 L11.2995 -19.772 L9.93822 -21.2207 L8.5769 -22.6694 L7.21558 -24.1181 L5.85426 -25.5668 L4.49294 -27.0155 L6.42752 -27.4701 L8.3621 -27.9246 L10.2967 -28.3792 L12.2313 -28.8337 L14.1658 -29.2883 Z " />
<path stroke="rgb(200,255,200)" stroke-opacity="1" fill="rgb(200,255,200)" fill-opacity="1" id="tri_0_12_" d="M-24.203 -9.98901 L-23.6294 -11.8923 L-23.0557 -13.7956 L-22.482 -15.6989 L-21.9083 -17.6023 L-21.3346 -19.5056 L-19.9726 -18.0567 L-18.6105 -16.6078 L-17.2485 -15.1589 L-15.8865 -13.71 L-14.5245 -12.2611 L-16.4602 -11.8067 L-18.3959 -11.3523 L-20.3316 -10.8978 L-22.2673 -10.4434 L-24.203 -9.98901 Z " />
<path stroke="rgb(200,255,200)" stroke-opacity="1" fill="rgb(200,255,200)" fill-opacity="1" id="tri_1_11_" d="M-14.2267 -10.0039 L-13.6535 -11.9076 L-13.0803 -13.8112 L-12.5071 -15.7148 L-11.9339 -17.6185 L-11.3608 -19.5221 L-9.99879 -18.0734 L-8.63682 -16.6246 L-7.27485 -15.1759 L-5.91289 -13.7272 L-4.55092 -12.2784 L-6.48608 -11.8235 L-8.42123 -11.3686 L-10.3564 -10.9137 L-12.2915 -10.4588 L-14.2267 -10.0039 Z " />
<path stroke="rgb(200,255,200)" stroke-opacity="1" fill="rgb(200,255,200)" fill-opacity="1" id="tri_0_11_" d="M-10.7576 -20.6078 L-11.3309 -18.7038 L-11.9042 -16.7997 L-12.4775 -14.8957 L-13.0508 -12.9916 L-13.6242 -11.0876 L-14.9862 -12.5365 L-16.3482 -13.9854 L-17.7102 -15.4343 L-19.0722 -16.8832 L-20.4343 -18.3321 L-18.4989 -18.7872 L-16.5636 -19.2424 L-14.6283 -19.6975 L-12.6929 -20.1527 L-10.7576 -20.6078 Z " />
<path stroke="rgb(200,255,200)" stroke-opacity="1" fill="rgb(200,255,200)" fill-opacity="1" id="tri_2_11_" d="M-4.25066 -10.0215 L-3.67686 -11.9251 L-3.10307 -13.8287 L-2.52927 -15.7323 L-1.95548 -17.6358 L-1.38168 -19.5394 L-0.0207962 -18.0908 L1.34009 -16.6422 L2.70098 -15.1936 L4.06187 -13.7451 L5.42275 -12.2965 L3.48807 -11.8415 L1.55339 -11.3865 L-0.381294 -10.9315 L-2.31598 -10.4765 L-4.25066 -10.0215 Z " />
<path stroke="rgb(200,255,200)" stroke-opacity="1" fill="rgb(200,255,200)" fill-opacity="1" id="tri_1_10_" d="M-0.779584 -20.6257 L-1.35351 -18.7216 L-1.92743 -16.8176 L-2.50135 -14.9136 L-3.07527 -13.0096 L-3.6492 -11.1056 L-5.01116 -12.5543 L-6.37313 -14.0031 L-7.7351 -15.4518 L-9.09706 -16.9005 L-10.459 -18.3493 L-8.52314 -18.8046 L-6.58725 -19.2598 L-4.65136 -19.7151 L-2.71547 -20.1704 L-0.779584 -20.6257 Z " />
<path stroke="rgb(200,255,200)" stroke-opacity="1" fill="rgb(200,255,200)" fill-opacity="1" id="tri_3_11_" d="M5.72489 -10.0402 L6.29849 -11.9427 L6.8721 -13.8453 L7.44571 -15.7478 L8.01931 -17.6503 L8.59292 -19.5528 L9.95403 -18.1049 L11.3151 -16.657 L12.6763 -15.209 L14.0374 -13.7611 L15.3985 -12.3132 L13.4638 -11.8586 L11.529 -11.404 L9.59433 -10.9494 L7.65961 -10.4948 L5.72489 -10.0402 Z " />
<path stroke="rgb(200,255,200)" stroke-opacity="1" fill="rgb(200,255,200)" fill-opacity="1" id="tri_2_10_" d="M9.19403 -20.6395 L8.62029 -18.7365 L8.04655 -16.8336 L7.47281 -14.9306 L6.89908 -13.0276 L6.32534 -11.1247 L4.96445 -12.5733 L3.60357 -14.0219 L2.24268 -15.4705 L0.881792 -16.919 L-0.479095 -18.3676 L1.45553 -18.822 L3.39015 -19.2764 L5.32478 -19.7307 L7.2594 -20.1851 L9.19403 -20.6395 Z " />
<path stroke="rgb(200,255,200)" stroke-opacity="1" fill="rgb(200,255,200)" fill-opacity="1" id="tri_4_10_" d="M15.7031 -10.0572 L16.2764 -11.9601 L16.8497 -13.8629 L17.423 -15.7658 L17.9963 -17.6686 L18.5696 -19.5715 L19.9303 -18.1233 L21.2911 -16.675 L22.6518 -15.2268 L24.0126 -13.7786 L25.3733 -12.3304 L23.4393 -11.8757 L21.5052 -11.4211 L19.5712 -10.9665 L17.6372 -10.5118 L15.7031 -10.0572 Z " />
<path stroke="rgb(200,255,200)" stroke-opacity="1" fill="rgb(200,255,200)" fill-opacity="1" id="tri_3_10_" d="M19.1695 -20.6588 L18.596 -18.7555 L18.0226 -16.8522 L17.4492 -14.9489 L16.8758 -13.0456 L16.3023 -11.1423 L14.9412 -12.5902 L13.5801 -14.0381 L12.219 -15.4861 L10.8579 -16.934 L9.49677 -18.3819 L11.4313 -18.8373 L13.3658 -19.2927 L15.3004 -19.748 L17.2349 -20.2034 L19.1695 -20.6588 Z " />
<path stroke="rgb(200,255,200)" stroke-opacity="1" fill="rgb(200,255,200)" fill-opacity="1" id="tri_0_10_" d="M-29.1755 -1.33793 L-28.6019 -3.24245 L-28.0283 -5.14698 L-27.4547 -7.0515 L-26.8811 -8.95603 L-26.3075 -10.8605 L-24.9452 -9.41068 L-23.583 -7.96081 L-22.2207 -6.51095 L-20.8585 -5.06108 L-19.4962 -3.61121 L-21.4321 -3.15656 L-23.3679 -2.7019 L-25.3038 -2.24724 L-27.2397 -1.79259 L-29.1755 -1.33793 Z " />
<path stroke="rgb(200,255,200)" stroke-opacity="1" fill="rgb(200,255,200)" fill-opacity="1" id="tri_1_9_" d="M-19.1986 -1.35389 L-18.6252 -3.25776 L-18.0519 -5.16163 L-17.4785 -7.06551 L-16.9052 -8.96938 L-16.3319 -10.8733 L-14.9701 -9.42447 L-13.6083 -7.97569 L-12.2465 -6.52692 L-10.8848 -5.07814 L-9.523 -3.62936 L-11.4581 -3.17427 L-13.3932 -2.71917 L-15.3283 -2.26408 L-17.2634 -1.80898 L-19.1986 -1.35389 Z " />
<path stroke="rgb(200,255,200)" stroke-opacity="1" fill="rgb(200,255,200)" fill-opacity="1" id="tri_0_9_" d="M-15.7284 -11.959 L-16.3019 -10.0547 L-16.8753 -8.15043 L-17.4488 -6.24614 L-18.0222 -4.34186 L-18.5957 -2.43757 L-19.958 -3.88744 L-21.3202 -5.33731 L-22.6825 -6.78718 L-24.0447 -8.23704 L-25.4069 -9.68691 L-23.4712 -10.1413 L-21.5355 -10.5957 L-19.5998 -11.0502 L-17.6641 -11.5046 L-15.7284 -11.959 Z " />
<path stroke="rgb(200,255,200)" stroke-opacity="1" fill="rgb(200,255,200)" fill-opacity="1" id="tri_2_9_" d="M-9.22275 -1.37262 L-8.64949 -3.27588 L-8.07623 -5.17914 L-7.50297 -7.08239 L-6.92971 -8.98565 L-6.35645 -10.8889 L-4.99484 -9.44069 L-3.63322 -7.99247 L-2.2716 -6.54426 L-0.909985 -5.09604 L0.451632 -3.64782 L-1.48324 -3.19278 L-3.41812 -2.73774 L-5.353 -2.2827 L-7.28787 -1.82766 L-9.22275 -1.37262 Z " />
<path stroke="rgb(200,255,200)" stroke-opacity="1" fill="rgb(200,255,200)" fill-opacity="1" id="tri_1_8_" d="M-5.75438 -11.9752 L-6.32776 -10.0715 L-6.90115 -8.16782 L-7.47453 -6.26414 L-8.04792 -4.36046 L-8.6213 -2.45679 L-9.98308 -3.90556 L-11.3448 -5.35434 L-12.7066 -6.80312 L-14.0684 -8.2519 L-15.4302 -9.70068 L-13.495 -10.1556 L-11.5598 -10.6105 L-9.62469 -11.0654 L-7.68953 -11.5203 L-5.75438 -11.9752 Z " />
<path stroke="rgb(200,255,200)" stroke-opacity="1" fill="rgb(200,255,200)" fill-opacity="1" id="tri_3_9_" d="M0.754041 -1.39167 L1.32698 -3.29444 L1.89991 -5.19722 L2.47285 -7.1 L3.04578 -9.00278 L3.61872 -10.9056 L4.97987 -9.45743 L6.34103 -8.0093 L7.70219 -6.56118 L9.06335 -5.11305 L10.4245 -3.66492 L8.49042 -3.21027 L6.55632 -2.75562 L4.62223 -2.30097 L2.68814 -1.84632 L0.754041 -1.39167 Z " />
<path stroke="rgb(200,255,200)" stroke-opacity="1" fill="rgb(200,255,200)" fill-opacity="1" id="tri_2_8_" d="M4.21969 -11.9923 L3.64663 -10.0891 L3.07356 -8.18586 L2.5005 -6.28265 L1.92743 -4.37944 L1.35437 -2.47623 L-0.00725 -3.92445 L-1.36887 -5.37266 L-2.73048 -6.82088 L-4.0921 -8.2691 L-5.45372 -9.71731 L-3.51904 -10.1723 L-1.58435 -10.6273 L0.350328 -11.0823 L2.28501 -11.5373 L4.21969 -11.9923 Z " />
<path stroke="rgb(200,255,200)" stroke-opacity="1" fill="rgb(200,255,200)" fill-opacity="1" id="tri_4_9_" d="M10.7289 -1.40902 L11.3024 -3.3113 L11.8758 -5.21357 L12.4492 -7.11585 L13.0227 -9.01813 L13.5961 -10.9204 L14.9571 -9.47286 L16.3181 -8.02531 L17.6791 -6.57775 L19.0401 -5.1302 L20.4011 -3.68265 L18.4666 -3.22792 L16.5322 -2.7732 L14.5978 -2.31847 L12.6634 -1.86375 L10.7289 -1.40902 Z " />
<path stroke="rgb(200,255,200)" stroke-opacity="1" fill="rgb(200,255,200)" fill-opacity="1" id="tri_3_8_" d="M14.196 -12.0078 L13.6224 -10.1051 L13.0488 -8.20239 L12.4753 -6.29967 L11.9017 -4.39695 L11.3282 -2.49423 L9.967 -3.94235 L8.60584 -5.39048 L7.24468 -6.83861 L5.88352 -8.28673 L4.52236 -9.73486 L6.45708 -10.1895 L8.3918 -10.644 L10.3265 -11.0986 L12.2612 -11.5532 L14.196 -12.0078 Z " />
<path stroke="rgb(200,255,200)" stroke-opacity="1" fill="rgb(200,255,200)" fill-opacity="1" id="tri_5_8_" d="M20.7078 -1.42732 L21.2807 -3.32905 L21.8536 -5.23079 L22.4265 -7.13252 L22.9994 -9.03425 L23.5723 -10.936 L24.9326 -9.48869 L26.2929 -8.04139 L27.6532 -6.5941 L29.0135 -5.1468 L30.3737 -3.6995 L28.4406 -3.24507 L26.5074 -2.79063 L24.5742 -2.33619 L22.641 -1.88176 L20.7078 -1.42732 Z " />
<path stroke="rgb(200,255,200)" stroke-opacity="1" fill="rgb(200,255,200)" fill-opacity="1" id="tri_4_8_" d="M24.171 -12.0237 L23.598 -10.1216 L23.0249 -8.21937 L22.4519 -6.31719 L21.8789 -4.415 L21.3058 -2.51281 L19.9448 -3.96037 L18.5838 -5.40792 L17.2228 -6.85547 L15.8618 -8.30302 L14.5009 -9.75057 L16.4349 -10.2052 L18.3689 -10.6598 L20.3029 -11.1145 L22.237 -11.5691 L24.171 -12.0237 Z " />
<path stroke="rgb(200,255,200)" stroke-opacity="1" fill="rgb(200,255,200)" fill-opacity="1" id="tri_0_8_" d="M-34.1504 7.31226 L-33.5763 5.40784 L-33.0023 3.50342 L-32.4282 1.599 L-31.8542 -0.305418 L-31.2801 -2.20984 L-29.9183 -0.760702 L-28.5564 0.688433 L-27.1945 2.13757 L-25.8326 3.5867 L-24.4708 5.03584 L-26.4067 5.49113 L-28.3426 5.94641 L-30.2785 6.40169 L-32.2144 6.85698 L-34.1504 7.31226 Z " />
<path stroke="rgb(200,255,200)" stroke-opacity="1" fill="rgb(200,255,200)" fill-opacity="1" id="tri_1_7_" d="M-24.1729 7.29323 L-23.599 5.38985 L-23.0252 3.48647 L-22.4513 1.58309 L-21.8774 -0.320295 L-21.3036 -2.22367 L-19.9424 -0.774956 L-18.5813 0.673762 L-17.2201 2.12248 L-15.859 3.5712 L-14.4979 5.01992 L-16.4329 5.47458 L-18.3679 5.92924 L-20.3029 6.3839 L-22.2379 6.83856 L-24.1729 7.29323 Z " />
<path stroke="rgb(200,255,200)" stroke-opacity="1" fill="rgb(200,255,200)" fill-opacity="1" id="tri_0_7_" d="M-20.7003 -3.30923 L-21.2743 -1.40543 L-21.8483 0.498357 L-22.4222 2.40215 L-22.9962 4.30594 L-23.5702 6.20973 L-24.9321 4.7606 L-26.294 3.31146 L-27.6558 1.86233 L-29.0177 0.413192 L-30.3796 -1.03594 L-28.4437 -1.4906 L-26.5079 -1.94526 L-24.572 -2.39991 L-22.6361 -2.85457 L-20.7003 -3.30923 Z " />
<path stroke="rgb(200,255,200)" stroke-opacity="1" fill="rgb(200,255,200)" fill-opacity="1" id="tri_2_7_" d="M-14.1978 7.27666 L-13.6239 5.37327 L-13.0501 3.46988 L-12.4763 1.56649 L-11.9024 -0.3369 L-11.3286 -2.24029 L-9.9673 -0.791789 L-8.60603 0.656711 L-7.24475 2.10521 L-5.88348 3.55371 L-4.5222 5.00221 L-6.45732 5.4571 L-8.39243 5.91199 L-10.3275 6.36688 L-12.2627 6.82177 L-14.1978 7.27666 Z " />
<path stroke="rgb(200,255,200)" stroke-opacity="1" fill="rgb(200,255,200)" fill-opacity="1" id="tri_1_6_" d="M-10.7265 -3.32638 L-11.3004 -1.42257 L-11.8744 0.481246 L-12.4484 2.38506 L-13.0223 4.28887 L-13.5963 6.19269 L-14.9575 4.74397 L-16.3186 3.29525 L-17.6797 1.84653 L-19.0409 0.397811 L-20.402 -1.05091 L-18.4669 -1.506 L-16.5318 -1.9611 L-14.5967 -2.41619 L-12.6616 -2.87129 L-10.7265 -3.32638 Z " />
<path stroke="rgb(200,255,200)" stroke-opacity="1" fill="rgb(200,255,200)" fill-opacity="1" id="tri_3_7_" d="M-4.21985 7.25861 L-3.64638 5.3555 L-3.07291 3.45239 L-2.49944 1.54928 L-1.92596 -0.353828 L-1.35249 -2.25694 L0.00832252 -0.808523 L1.36914 0.639889 L2.72996 2.0883 L4.09077 3.53671 L5.45159 4.98513 L3.5173 5.43982 L1.58301 5.89452 L-0.351274 6.34921 L-2.28556 6.80391 L-4.21985 7.25861 Z " />
<path stroke="rgb(200,255,200)" stroke-opacity="1" fill="rgb(200,255,200)" fill-opacity="1" id="tri_2_6_" d="M-0.751417 -3.34356 L-1.32502 -1.44002 L-1.89862 0.463523 L-2.47222 2.36707 L-3.04582 4.27061 L-3.61942 6.17415 L-4.9807 4.72565 L-6.34197 3.27715 L-7.70325 1.82864 L-9.06452 0.380144 L-10.4258 -1.06836 L-8.49092 -1.5234 L-6.55604 -1.97844 L-4.62117 -2.43348 L-2.68629 -2.88852 L-0.751417 -3.34356 Z " />
<path stroke="rgb(200,255,200)" stroke-opacity="1" fill="rgb(200,255,200)" fill-opacity="1" id="tri_4_7_" d="M5.75621 7.2408 L6.32936 5.33818 L6.9025 3.43556 L7.47564 1.53294 L8.04879 -0.369679 L8.62193 -2.2723 L9.98292 -0.824748 L11.3439 0.622802 L12.7049 2.07035 L14.0659 3.5179 L15.4269 4.96545 L13.4927 5.42052 L11.5586 5.87559 L9.62448 6.33066 L7.69035 6.78573 L5.75621 7.2408 Z " />
<path stroke="rgb(200,255,200)" stroke-opacity="1" fill="rgb(200,255,200)" fill-opacity="1" id="tri_3_6_" d="M9.22179 -3.35952 L8.64851 -1.45645 L8.07524 0.446609 L7.50196 2.34967 L6.92868 4.25274 L6.35541 6.1558 L4.99459 4.70739 L3.63377 3.25897 L2.27295 1.81056 L0.912138 0.362152 L-0.448679 -1.08626 L1.48542 -1.54091 L3.41951 -1.99556 L5.3536 -2.45021 L7.2877 -2.90486 L9.22179 -3.35952 Z " />
<path stroke="rgb(200,255,200)" stroke-opacity="1" fill="rgb(200,255,200)" fill-opacity="1" id="tri_5_7_" d="M15.7336 7.22093 L16.3069 5.3191 L16.8802 3.41728 L17.4534 1.51546 L18.0267 -0.386365 L18.6 -2.28819 L19.9603 -0.840072 L21.3206 0.608045 L22.6808 2.05616 L24.0411 3.50428 L25.4014 4.9524 L23.4678 5.4061 L21.5342 5.85981 L19.6007 6.31351 L17.6671 6.76722 L15.7336 7.22093 Z " />
<path stroke="rgb(200,255,200)" stroke-opacity="1" fill="rgb(200,255,200)" fill-opacity="1" id="tri_4_6_" d="M19.199 -3.37603 L18.6255 -1.47375 L18.0521 0.428523 L17.4787 2.3308 L16.9053 4.23307 L16.3318 6.13535 L14.9708 4.6878 L13.6098 3.24025 L12.2489 1.7927 L10.8879 0.345152 L9.52687 -1.1024 L11.4613 -1.55713 L13.3957 -2.01185 L15.3301 -2.46658 L17.2646 -2.9213 L19.199 -3.37603 Z " />
<path stroke="rgb(200,255,200)" stroke-opacity="1" fill="rgb(200,255,200)" fill-opacity="1" id="tri_6_6_" d="M25.7104 7.20699 L26.2832 5.3049 L26.8559 3.40281 L27.4287 1.50072 L28.0015 -0.401369 L28.5743 -2.30346 L29.9346 -0.856608 L31.2949 0.590243 L32.6553 2.03709 L34.0156 3.48395 L35.376 4.9308 L33.4428 5.38604 L31.5097 5.84128 L29.5766 6.29651 L27.6435 6.75175 L25.7104 7.20699 Z " />
<path stroke="rgb(200,255,200)" stroke-opacity="1" fill="rgb(200,255,200)" fill-opacity="1" id="tri_5_6_" d="M29.1718 -3.39176 L28.5989 -1.4892 L28.026 0.413351 L27.4531 2.3159 L26.8801 4.21846 L26.3072 6.12101 L24.947 4.67289 L23.5867 3.22478 L22.2264 1.77666 L20.8662 0.328543 L19.5059 -1.11957 L21.4391 -1.57401 L23.3723 -2.02845 L25.3054 -2.48288 L27.2386 -2.93732 L29.1718 -3.39176 Z " />
<path stroke="rgb(200,255,200)" stroke-opacity="1" fill="rgb(200,255,200)" fill-opacity="1" id="tri_0_6_" d="M-39.1224 15.9621 L-38.549 14.0579 L-37.9755 12.1536 L-37.4021 10.2493 L-36.8286 8.345 L-36.2551 6.44071 L-34.8924 7.88986 L-33.5297 9.33901 L-32.167 10.7882 L-30.8044 12.2373 L-29.4417 13.6865 L-31.3778 14.1416 L-33.314 14.5967 L-35.2501 15.0519 L-37.1863 15.507 L-39.1224 15.9621 Z " />
<path stroke="rgb(200,255,200)" stroke-opacity="1" fill="rgb(200,255,200)" fill-opacity="1" id="tri_1_5_" d="M-29.1436 15.9438 L-28.5705 14.0398 L-27.9974 12.1358 L-27.4243 10.2318 L-26.8512 8.32774 L-26.2781 6.42372 L-24.9166 7.87298 L-23.5551 9.32223 L-22.1937 10.7715 L-20.8322 12.2207 L-19.4707 13.67 L-21.4053 14.1248 L-23.3399 14.5795 L-25.2744 15.0343 L-27.209 15.4891 L-29.1436 15.9438 Z " />
<path stroke="rgb(200,255,200)" stroke-opacity="1" fill="rgb(200,255,200)" fill-opacity="1" id="tri_0_5_" d="M-25.6748 5.33798 L-26.248 7.24241 L-26.8212 9.14684 L-27.3944 11.0513 L-27.9677 12.9557 L-28.5409 14.8601 L-29.9036 13.411 L-31.2663 11.9618 L-32.629 10.5127 L-33.9916 9.06355 L-35.3543 7.6144 L-33.4184 7.15912 L-31.4825 6.70383 L-29.5466 6.24855 L-27.6107 5.79326 L-25.6748 5.33798 Z " />
<path stroke="rgb(200,255,200)" stroke-opacity="1" fill="rgb(200,255,200)" fill-opacity="1" id="tri_2_5_" d="M-19.1704 15.9265 L-18.597 14.023 L-18.0236 12.1195 L-17.4502 10.216 L-16.8768 8.31249 L-16.3034 6.409 L-14.9419 7.85683 L-13.5804 9.30466 L-12.2188 10.7525 L-10.8573 12.2003 L-9.49577 13.6481 L-11.4307 14.1038 L-13.3656 14.5595 L-15.3006 15.0151 L-17.2355 15.4708 L-19.1704 15.9265 Z " />
<path stroke="rgb(200,255,200)" stroke-opacity="1" fill="rgb(200,255,200)" fill-opacity="1" id="tri_1_4_" d="M-15.7014 5.32282 L-16.2749 7.22673 L-16.8484 9.13065 L-17.422 11.0346 L-17.9955 12.9385 L-18.569 14.8424 L-19.9305 13.3932 L-21.292 11.9439 L-22.6535 10.4946 L-24.0149 9.04538 L-25.3764 7.59613 L-23.4414 7.14146 L-21.5064 6.6868 L-19.5714 6.23214 L-17.6364 5.77748 L-15.7014 5.32282 Z " />
<path stroke="rgb(200,255,200)" stroke-opacity="1" fill="rgb(200,255,200)" fill-opacity="1" id="tri_3_5_" d="M-9.1934 15.9048 L-8.61995 14.0025 L-8.04649 12.1002 L-7.47303 10.1979 L-6.89957 8.29561 L-6.32611 6.39332 L-4.96472 7.84159 L-3.60332 9.28987 L-2.24192 10.7381 L-0.880521 12.1864 L0.480878 13.6347 L-1.45398 14.0887 L-3.38884 14.5427 L-5.32369 14.9967 L-7.25855 15.4507 L-9.1934 15.9048 Z " />
<path stroke="rgb(200,255,200)" stroke-opacity="1" fill="rgb(200,255,200)" fill-opacity="1" id="tri_2_4_" d="M-5.72506 5.3064 L-6.29865 7.20912 L-6.87224 9.11184 L-7.44583 11.0146 L-8.01941 12.9173 L-8.593 14.82 L-9.95453 13.3722 L-11.3161 11.9243 L-12.6776 10.4765 L-14.0391 9.02868 L-15.4006 7.58085 L-13.4655 7.12596 L-11.5304 6.67107 L-9.59529 6.21618 L-7.66018 5.76129 L-5.72506 5.3064 Z " />
<path stroke="rgb(200,255,200)" stroke-opacity="1" fill="rgb(200,255,200)" fill-opacity="1" id="tri_4_5_" d="M0.785094 15.8905 L1.35785 13.9879 L1.93061 12.0854 L2.50336 10.1829 L3.07612 8.28034 L3.64887 6.37781 L5.00972 7.8256 L6.37056 9.27339 L7.7314 10.7212 L9.09224 12.169 L10.4531 13.6168 L8.51949 14.0715 L6.58589 14.5262 L4.65229 14.981 L2.71869 15.4357 L0.785094 15.8905 Z " />
<path stroke="rgb(200,255,200)" stroke-opacity="1" fill="rgb(200,255,200)" fill-opacity="1" id="tri_3_4_" d="M4.2488 5.29056 L3.67591 7.19353 L3.10302 9.0965 L2.53013 10.9995 L1.95724 12.9024 L1.38435 14.8054 L0.0229553 13.3571 L-1.33844 11.9089 L-2.69984 10.4606 L-4.06124 9.01231 L-5.42264 7.56404 L-3.48835 7.10934 L-1.55406 6.65464 L0.380225 6.19995 L2.31451 5.74525 L4.2488 5.29056 Z " />
<path stroke="rgb(200,255,200)" stroke-opacity="1" fill="rgb(200,255,200)" fill-opacity="1" id="tri_5_5_" d="M10.76 15.872 L11.3332 13.9696 L11.9063 12.0672 L12.4795 10.1648 L13.0526 8.26239 L13.6258 6.35998 L14.9864 7.80801 L16.3471 9.25604 L17.7078 10.7041 L19.0684 12.1521 L20.4291 13.6001 L18.4953 14.0545 L16.5614 14.5089 L14.6276 14.9633 L12.6938 15.4176 L10.76 15.872 Z " />
<path stroke="rgb(200,255,200)" stroke-opacity="1" fill="rgb(200,255,200)" fill-opacity="1" id="tri_4_4_" d="M14.2246 5.27208 L13.6513 7.17494 L13.078 9.0778 L12.5047 10.9807 L11.9315 12.8835 L11.3582 14.7864 L9.99732 13.3386 L8.63648 11.8908 L7.27564 10.443 L5.9148 8.99522 L4.55395 7.54743 L6.48809 7.09236 L8.42222 6.63729 L10.3564 6.18222 L12.2905 5.72715 L14.2246 5.27208 Z " />
<path stroke="rgb(200,255,200)" stroke-opacity="1" fill="rgb(200,255,200)" fill-opacity="1" id="tri_6_5_" d="M20.738 15.855 L21.3107 13.9537 L21.8835 12.0524 L22.4562 10.1512 L23.029 8.2499 L23.6018 6.34863 L24.9622 7.79505 L26.3227 9.24147 L27.6831 10.6879 L29.0435 12.1343 L30.404 13.5807 L28.4708 14.0356 L26.5376 14.4904 L24.6044 14.9453 L22.6712 15.4001 L20.738 15.855 Z " />
<path stroke="rgb(200,255,200)" stroke-opacity="1" fill="rgb(200,255,200)" fill-opacity="1" id="tri_5_4_" d="M24.1994 5.26016 L23.6265 7.1619 L23.0536 9.06363 L22.4807 10.9654 L21.9078 12.8671 L21.3349 14.7688 L19.9742 13.3208 L18.6135 11.8728 L17.2529 10.4247 L15.8922 8.97672 L14.5316 7.52869 L16.4651 7.07499 L18.3987 6.62128 L20.3323 6.16758 L22.2658 5.71387 L24.1994 5.26016 Z " />
<path stroke="rgb(200,255,200)" stroke-opacity="1" fill="rgb(200,255,200)" fill-opacity="1" id="tri_7_4_" d="M30.7159 15.8347 L31.2884 13.9335 L31.8609 12.0323 L32.4335 10.1312 L33.006 8.22997 L33.5785 6.32879 L34.9379 7.77585 L36.2972 9.22291 L37.6565 10.67 L39.0158 12.117 L40.3751 13.5641 L38.4433 14.0182 L36.5114 14.4723 L34.5796 14.9265 L32.6477 15.3806 L30.7159 15.8347 Z " />
<path stroke="rgb(200,255,200)" stroke-opacity="1" fill="rgb(200,255,200)" fill-opacity="1" id="tri_6_4_" d="M34.1747 5.24001 L33.602 7.14167 L33.0293 9.04333 L32.4567 10.945 L31.884 12.8466 L31.3113 14.7483 L29.9509 13.3019 L28.5905 11.8555 L27.23 10.409 L25.8696 8.96263 L24.5091 7.51621 L26.4422 7.06097 L28.3754 6.60573 L30.3085 6.15049 L32.2416 5.69525 L34.1747 5.24001 Z " />
<path stroke="rgb(200,255,200)" stroke-opacity="1" fill="rgb(200,255,200)" fill-opacity="1" id="tri_0_4_" d="M-44.0963 24.6122 L-43.5224 22.7078 L-42.9486 20.8034 L-42.3747 18.8991 L-41.8009 16.9947 L-41.227 15.0903 L-39.865 16.5392 L-38.503 17.9881 L-37.141 19.437 L-35.779 20.8859 L-34.4169 22.3348 L-36.3528 22.7903 L-38.2887 23.2457 L-40.2246 23.7012 L-42.1604 24.1567 L-44.0963 24.6122 Z " />
<path stroke="rgb(200,255,200)" stroke-opacity="1" fill="rgb(200,255,200)" fill-opacity="1" id="tri_1_3_" d="M-34.1188 24.5923 L-33.5447 22.6887 L-32.9707 20.785 L-32.3967 18.8814 L-31.8227 16.9778 L-31.2487 15.0742 L-29.8877 16.5229 L-28.5268 17.9717 L-27.1658 19.4205 L-25.8049 20.8692 L-24.4439 22.318 L-26.3789 22.7729 L-28.3139 23.2277 L-30.2488 23.6826 L-32.1838 24.1374 L-34.1188 24.5923 Z " />
<path stroke="rgb(200,255,200)" stroke-opacity="1" fill="rgb(200,255,200)" fill-opacity="1" id="tri_0_3_" d="M-30.6455 13.9886 L-31.2196 15.8926 L-31.7938 17.7966 L-32.3679 19.7007 L-32.9421 21.6047 L-33.5162 23.5087 L-34.8782 22.0598 L-36.2402 20.611 L-37.6023 19.1621 L-38.9643 17.7132 L-40.3263 16.2643 L-38.3901 15.8091 L-36.454 15.354 L-34.5178 14.8989 L-32.5817 14.4437 L-30.6455 13.9886 Z " />
<path stroke="rgb(200,255,200)" stroke-opacity="1" fill="rgb(200,255,200)" fill-opacity="1" id="tri_2_3_" d="M-24.1439 24.5745 L-23.5704 22.6714 L-22.9969 20.7683 L-22.4234 18.8652 L-21.8499 16.9621 L-21.2764 15.059 L-19.9148 16.5072 L-18.5531 17.9554 L-17.1915 19.4036 L-15.8299 20.8519 L-14.4683 22.3001 L-16.4034 22.755 L-18.3385 23.2099 L-20.2736 23.6647 L-22.2088 24.1196 L-24.1439 24.5745 Z " />
<path stroke="rgb(200,255,200)" stroke-opacity="1" fill="rgb(200,255,200)" fill-opacity="1" id="tri_1_2_" d="M-20.6743 13.973 L-21.2479 15.8765 L-21.8215 17.78 L-22.3952 19.6835 L-22.9688 21.5871 L-23.5424 23.4906 L-24.9034 22.0418 L-26.2643 20.5931 L-27.6253 19.1443 L-28.9862 17.6955 L-30.3472 16.2468 L-28.4126 15.792 L-26.478 15.3372 L-24.5434 14.8825 L-22.6089 14.4277 L-20.6743 13.973 Z " />
<path stroke="rgb(200,255,200)" stroke-opacity="1" fill="rgb(200,255,200)" fill-opacity="1" id="tri_3_3_" d="M-14.1659 24.5565 L-13.5927 22.6531 L-13.0195 20.7496 L-12.4463 18.8462 L-11.8731 16.9427 L-11.2999 15.0393 L-9.93873 16.4884 L-8.57754 17.9376 L-7.21635 19.3867 L-5.85516 20.8358 L-4.49397 22.285 L-6.42834 22.7393 L-8.36272 23.1936 L-10.2971 23.6479 L-12.2315 24.1022 L-14.1659 24.5565 Z " />
<path stroke="rgb(200,255,200)" stroke-opacity="1" fill="rgb(200,255,200)" fill-opacity="1" id="tri_2_2_" d="M-10.6988 13.9525 L-11.2721 15.8564 L-11.8454 17.7603 L-12.4187 19.6641 L-12.992 21.568 L-13.5654 23.4719 L-14.927 22.0237 L-16.2886 20.5755 L-17.6502 19.1273 L-19.0118 17.679 L-20.3734 16.2308 L-18.4385 15.7752 L-16.5036 15.3195 L-14.5686 14.8638 L-12.6337 14.4082 L-10.6988 13.9525 Z " />
<path stroke="rgb(200,255,200)" stroke-opacity="1" fill="rgb(200,255,200)" fill-opacity="1" id="tri_4_3_" d="M-4.18963 24.5409 L-3.6161 22.6382 L-3.04256 20.7355 L-2.46903 18.8328 L-1.8955 16.9301 L-1.32197 15.0274 L0.0385444 16.4746 L1.39906 17.9219 L2.75957 19.3691 L4.12008 20.8164 L5.48059 22.2636 L3.54655 22.7191 L1.61251 23.1746 L-0.321538 23.63 L-2.25558 24.0855 L-4.18963 24.5409 Z " />
<path stroke="rgb(200,255,200)" stroke-opacity="1" fill="rgb(200,255,200)" fill-opacity="1" id="tri_3_2_" d="M-0.721974 13.9401 L-1.29564 15.8432 L-1.8693 17.7464 L-2.44297 19.6496 L-3.01663 21.5527 L-3.5903 23.4559 L-4.95149 22.0067 L-6.31268 20.5576 L-7.67387 19.1084 L-9.03506 17.6593 L-10.3963 16.2102 L-8.4614 15.7561 L-6.52654 15.3021 L-4.59169 14.8481 L-2.65683 14.3941 L-0.721974 13.9401 Z " />
<path stroke="rgb(200,255,200)" stroke-opacity="1" fill="rgb(200,255,200)" fill-opacity="1" id="tri_5_3_" d="M5.78761 24.5187 L6.36056 22.6172 L6.93351 20.7156 L7.50646 18.8141 L8.07941 16.9125 L8.65236 15.011 L10.0127 16.4585 L11.373 17.906 L12.7333 19.3535 L14.0937 20.801 L15.454 22.2485 L13.5207 22.7025 L11.5874 23.1566 L9.65416 23.6106 L7.72089 24.0647 L5.78761 24.5187 Z " />
<path stroke="rgb(200,255,200)" stroke-opacity="1" fill="rgb(200,255,200)" fill-opacity="1" id="tri_4_2_" d="M9.25103 13.9234 L8.67794 15.8254 L8.10486 17.7274 L7.53177 19.6294 L6.95869 21.5314 L6.3856 23.4334 L5.02509 21.9861 L3.66457 20.5389 L2.30406 19.0916 L0.94355 17.6443 L-0.416963 16.1971 L1.51664 15.7424 L3.45023 15.2876 L5.38383 14.8329 L7.31743 14.3781 L9.25103 13.9234 Z " />
<path stroke="rgb(200,255,200)" stroke-opacity="1" fill="rgb(200,255,200)" fill-opacity="1" id="tri_6_3_" d="M15.7629 24.5032 L16.3363 22.6018 L16.9096 20.7004 L17.4829 18.799 L18.0563 16.8976 L18.6296 14.9962 L19.9895 16.4429 L21.3494 17.8897 L22.7093 19.3364 L24.0692 20.7832 L25.4291 22.2299 L23.4959 22.6846 L21.5627 23.1392 L19.6294 23.5939 L17.6962 24.0485 L15.7629 24.5032 Z " />
<path stroke="rgb(200,255,200)" stroke-opacity="1" fill="rgb(200,255,200)" fill-opacity="1" id="tri_5_2_" d="M19.2271 13.9078 L18.6536 15.8097 L18.0801 17.7116 L17.5067 19.6134 L16.9332 21.5153 L16.3597 23.4172 L14.9994 21.9697 L13.639 20.5222 L12.2787 19.0747 L10.9184 17.6272 L9.55806 16.1797 L11.4919 15.7254 L13.4257 15.271 L15.3595 14.8166 L17.2933 14.3622 L19.2271 13.9078 Z " />
<path stroke="rgb(200,255,200)" stroke-opacity="1" fill="rgb(200,255,200)" fill-opacity="1" id="tri_7_3_" d="M25.7409 24.4841 L26.3141 22.5829 L26.8872 20.6818 L27.4604 18.7807 L28.0336 16.8796 L28.6067 14.9784 L29.9657 16.4251 L31.3248 17.8719 L32.6838 19.3186 L34.0428 20.7653 L35.4019 22.212 L33.4697 22.6664 L31.5375 23.1208 L29.6053 23.5752 L27.6731 24.0296 L25.7409 24.4841 Z " />
<path stroke="rgb(200,255,200)" stroke-opacity="1" fill="rgb(200,255,200)" fill-opacity="1" id="tri_6_2_" d="M29.2029 13.8898 L28.6296 15.7914 L28.0563 17.693 L27.483 19.5946 L26.9097 21.4962 L26.3364 23.3978 L24.9765 21.951 L23.6166 20.5043 L22.2567 19.0575 L20.8968 17.6108 L19.5369 16.164 L21.4701 15.7092 L23.4033 15.2543 L25.3365 14.7995 L27.2697 14.3446 L29.2029 13.8898 Z " />
<path stroke="rgb(200,255,200)" stroke-opacity="1" fill="rgb(200,255,200)" fill-opacity="1" id="tri_8_2_" d="M35.7157 24.4652 L36.2884 22.5649 L36.8611 20.6645 L37.4337 18.7642 L38.0064 16.8638 L38.5791 14.9634 L39.9388 16.4098 L41.2985 17.8561 L42.6582 19.3024 L44.0179 20.7487 L45.3775 22.195 L43.4452 22.6491 L41.5128 23.1031 L39.5805 23.5571 L37.6481 24.0112 L35.7157 24.4652 Z " />
<path stroke="rgb(200,255,200)" stroke-opacity="1" fill="rgb(200,255,200)" fill-opacity="1" id="tri_7_2_" d="M39.1742 13.8742 L38.6014 15.775 L38.0286 17.6758 L37.4557 19.5767 L36.8829 21.4775 L36.3101 23.3784 L34.9511 21.9316 L33.592 20.4849 L32.233 19.0382 L30.874 17.5915 L29.515 16.1448 L31.4468 15.6906 L33.3787 15.2365 L35.3105 14.7824 L37.2423 14.3283 L39.1742 13.8742 Z " />
<path stroke="rgb(200,255,200)" stroke-opacity="1" fill="rgb(200,255,200)" fill-opacity="1" id="tri_0_2_" d="M-49.0686 33.2601 L-48.495 31.3562 L-47.9215 29.4523 L-47.3479 27.5484 L-46.7744 25.6445 L-46.2008 23.7406 L-44.8384 25.1894 L-43.476 26.6382 L-42.1136 28.087 L-40.7512 29.5358 L-39.3888 30.9846 L-41.3247 31.4397 L-43.2607 31.8948 L-45.1967 32.3499 L-47.1326 32.805 L-49.0686 33.2601 Z " />
<path stroke="rgb(200,255,200)" stroke-opacity="1" fill="rgb(200,255,200)" fill-opacity="1" id="tri_1_1_" d="M-39.0905 33.2422 L-38.5171 31.3383 L-37.9438 29.4344 L-37.3705 27.5306 L-36.7971 25.6267 L-36.2238 23.7228 L-34.8619 25.1713 L-33.4999 26.6199 L-32.138 28.0684 L-30.7761 29.517 L-29.4142 30.9655 L-31.3494 31.4208 L-33.2847 31.8762 L-35.22 32.3315 L-37.1552 32.7868 L-39.0905 33.2422 Z " />
<path stroke="rgb(200,255,200)" stroke-opacity="1" fill="rgb(200,255,200)" fill-opacity="1" id="tri_0_1_" d="M-35.6208 22.6369 L-36.1942 24.5412 L-36.7677 26.4455 L-37.3412 28.3498 L-37.9146 30.254 L-38.4881 32.1583 L-39.8505 30.7095 L-41.2129 29.2607 L-42.5753 27.8119 L-43.9377 26.3631 L-45.3001 24.9143 L-43.3643 24.4588 L-41.4284 24.0033 L-39.4925 23.5479 L-37.5566 23.0924 L-35.6208 22.6369 Z " />
<path stroke="rgb(200,255,200)" stroke-opacity="1" fill="rgb(200,255,200)" fill-opacity="1" id="tri_2_1_" d="M-29.1141 33.2223 L-28.5412 31.3193 L-27.9683 29.4163 L-27.3954 27.5134 L-26.8225 25.6104 L-26.2495 23.7074 L-24.8874 25.1561 L-23.5253 26.6048 L-22.1631 28.0535 L-20.801 29.5022 L-19.4388 30.951 L-21.3739 31.4052 L-23.3089 31.8595 L-25.244 32.3138 L-27.1791 32.768 L-29.1141 33.2223 Z " />
<path stroke="rgb(200,255,200)" stroke-opacity="1" fill="rgb(200,255,200)" fill-opacity="1" id="tri_1" d="M-25.6473 22.621 L-26.2203 24.5244 L-26.7934 26.4278 L-27.3664 28.3312 L-27.9394 30.2346 L-28.5125 32.138 L-29.8744 30.6895 L-31.2363 29.2409 L-32.5983 27.7924 L-33.9602 26.3438 L-35.3221 24.8953 L-33.3871 24.4404 L-31.4522 23.9856 L-29.5172 23.5307 L-27.5822 23.0759 L-25.6473 22.621 Z " />
<path stroke="rgb(200,255,200)" stroke-opacity="1" fill="rgb(200,255,200)" fill-opacity="1" id="tri_3_1_" d="M-19.1367 33.2073 L-18.5639 31.3041 L-17.9911 29.401 L-17.4182 27.4978 L-16.8454 25.5946 L-16.2725 23.6915 L-14.9113 25.1398 L-13.5501 26.5881 L-12.1889 28.0364 L-10.8277 29.4848 L-9.4665 30.9331 L-11.4005 31.3879 L-13.3346 31.8428 L-15.2686 32.2976 L-17.2027 32.7525 L-19.1367 33.2073 Z " />
<path stroke="rgb(200,255,200)" stroke-opacity="1" fill="rgb(200,255,200)" fill-opacity="1" id="tri_2" d="M-15.6714 22.6046 L-16.2444 24.5082 L-16.8173 26.4118 L-17.3903 28.3154 L-17.9633 30.219 L-18.5363 32.1226 L-19.8984 30.6739 L-21.2606 29.2252 L-22.6227 27.7765 L-23.9848 26.3277 L-25.347 24.879 L-23.4119 24.4241 L-21.4767 23.9693 L-19.5416 23.5144 L-17.6065 23.0595 L-15.6714 22.6046 Z " />
<path stroke="rgb(200,255,200)" stroke-opacity="1" fill="rgb(200,255,200)" fill-opacity="1" id="tri_4_1_" d="M-9.16195 33.1886 L-8.58892 31.2864 L-8.01588 29.3842 L-7.44284 27.482 L-6.8698 25.5799 L-6.29676 23.6777 L-4.93605 25.1249 L-3.57534 26.5721 L-2.21464 28.0193 L-0.853928 29.4665 L0.506777 30.9137 L-1.42697 31.3687 L-3.36072 31.8237 L-5.29446 32.2787 L-7.22821 32.7336 L-9.16195 33.1886 Z " />
<path stroke="rgb(200,255,200)" stroke-opacity="1" fill="rgb(200,255,200)" fill-opacity="1" id="tri_3" d="M-5.69693 22.5904 L-6.2701 24.4931 L-6.84327 26.3957 L-7.41645 28.2983 L-7.98962 30.201 L-8.56279 32.1036 L-9.924 30.6553 L-11.2852 29.207 L-12.6464 27.7586 L-14.0076 26.3103 L-15.3688 24.862 L-13.4344 24.4077 L-11.5001 23.9534 L-9.56568 23.4991 L-7.6313 23.0448 L-5.69693 22.5904 Z " />
<path stroke="rgb(200,255,200)" stroke-opacity="1" fill="rgb(200,255,200)" fill-opacity="1" id="tri_5_1_" d="M0.813932 33.1689 L1.38713 31.2667 L1.96033 29.3645 L2.53354 27.4623 L3.10674 25.5601 L3.67994 23.6579 L5.04035 25.1058 L6.40077 26.5537 L7.76119 28.0015 L9.1216 29.4494 L10.482 30.8973 L8.5484 31.3516 L6.61478 31.8059 L4.68117 32.2603 L2.74755 32.7146 L0.813932 33.1689 Z " />
<path stroke="rgb(200,255,200)" stroke-opacity="1" fill="rgb(200,255,200)" fill-opacity="1" id="tri_4" d="M4.27856 22.5701 L3.70522 24.4728 L3.13188 26.3754 L2.55854 28.2781 L1.98521 30.1808 L1.41187 32.0834 L0.0511629 30.6362 L-1.30954 29.189 L-2.67025 27.7418 L-4.03096 26.2946 L-5.39166 24.8474 L-3.45762 24.3919 L-1.52358 23.9365 L0.410468 23.481 L2.34451 23.0256 L4.27856 22.5701 Z " />
<path stroke="rgb(200,255,200)" stroke-opacity="1" fill="rgb(200,255,200)" fill-opacity="1" id="tri_6_1_" d="M10.791 33.152 L11.3637 31.2506 L11.9364 29.3491 L12.5091 27.4477 L13.0818 25.5462 L13.6546 23.6447 L15.0153 25.0915 L16.376 26.5383 L17.7367 27.985 L19.0974 29.4318 L20.4582 30.8785 L18.5247 31.3332 L16.5913 31.7879 L14.6578 32.2426 L12.7244 32.6973 L10.791 33.152 Z " />
<path stroke="rgb(200,255,200)" stroke-opacity="1" fill="rgb(200,255,200)" fill-opacity="1" id="tri_5" d="M14.2522 22.5563 L13.6793 24.4582 L13.1064 26.3601 L12.5336 28.262 L11.9607 30.164 L11.3879 32.0659 L10.0275 30.618 L8.66705 29.1701 L7.30663 27.7223 L5.94621 26.2744 L4.5858 24.8265 L6.51907 24.3725 L8.45234 23.9184 L10.3856 23.4644 L12.3189 23.0103 L14.2522 22.5563 Z " />
<path stroke="rgb(200,255,200)" stroke-opacity="1" fill="rgb(200,255,200)" fill-opacity="1" id="tri_7_1_" d="M20.7697 33.1327 L21.3421 31.2318 L21.9145 29.3308 L22.4869 27.4299 L23.0593 25.5289 L23.6316 23.628 L24.9913 25.075 L26.351 26.5219 L27.7107 27.9689 L29.0704 29.4159 L30.4301 30.8629 L28.4981 31.3168 L26.566 31.7708 L24.6339 32.2248 L22.7018 32.6787 L20.7697 33.1327 Z " />
<path stroke="rgb(200,255,200)" stroke-opacity="1" fill="rgb(200,255,200)" fill-opacity="1" id="tri_6" d="M24.228 22.539 L23.6555 24.4405 L23.0829 26.3419 L22.5104 28.2433 L21.9379 30.1447 L21.3654 32.0461 L20.0046 30.5994 L18.6439 29.1526 L17.2832 27.7059 L15.9225 26.2591 L14.5617 24.8123 L16.495 24.3577 L18.4282 23.903 L20.3615 23.4484 L22.2947 22.9937 L24.228 22.539 Z " />
<path stroke="rgb(200,255,200)" stroke-opacity="1" fill="rgb(200,255,200)" fill-opacity="1" id="tri_8_1_" d="M30.7441 33.1161 L31.3164 31.2152 L31.8887 29.3143 L32.4611 27.4134 L33.0334 25.5125 L33.6058 23.6116 L34.9657 25.0581 L36.3256 26.5046 L37.6856 27.951 L39.0455 29.3975 L40.4054 30.844 L38.4732 31.2984 L36.5409 31.7528 L34.6086 32.2072 L32.6763 32.6617 L30.7441 33.1161 Z " />
<path stroke="rgb(200,255,200)" stroke-opacity="1" fill="rgb(200,255,200)" fill-opacity="1" id="tri_7" d="M34.2009 22.5221 L33.6284 24.4235 L33.0559 26.3249 L32.4834 28.2263 L31.9109 30.1276 L31.3385 32.029 L29.9788 30.582 L28.6191 29.1351 L27.2594 27.6881 L25.8997 26.2411 L24.54 24.7942 L26.4721 24.3398 L28.4043 23.8853 L30.3365 23.4309 L32.2687 22.9765 L34.2009 22.5221 Z " />
<path stroke="rgb(200,255,200)" stroke-opacity="1" fill="rgb(200,255,200)" fill-opacity="1" id="tri_9" d="M40.722 33.097 L41.2943 31.197 L41.8666 29.297 L42.4388 27.397 L43.0111 25.497 L43.5834 23.597 L44.9425 25.0426 L46.3015 26.4882 L47.6606 27.9338 L49.0196 29.3794 L50.3787 30.825 L48.4473 31.2794 L46.516 31.7338 L44.5847 32.1882 L42.6533 32.6426 L40.722 33.097 Z " />
<path stroke="rgb(200,255,200)" stroke-opacity="1" fill="rgb(200,255,200)" fill-opacity="1" id="tri_8" d="M44.1771 22.5068 L43.6047 24.4073 L43.0323 26.3078 L42.4599 28.2083 L41.8874 30.1088 L41.315 32.0093 L39.9551 30.5629 L38.5951 29.1164 L37.2352 27.6699 L35.8753 26.2235 L34.5153 24.777 L36.4477 24.323 L38.3801 23.8689 L40.3124 23.4149 L42.2448 22.9609 L44.1771 22.5068 Z " />
</g>
</g>
</svg>
