<!DOCTYPE svg>
<svg xmlns="http://www.w3.org/2000/svg" xmlns:xlink="http://www.w3.org/1999/xlink" width="600" height="600">
<g transform="translate(300.000000,300.000000)">
<g transform="scale(3.000000,3.000000)">
<path stroke="rgb(0,0,0)" stroke-opacity="1" fill="rgb(255,255,255)" fill-opacity="1" id="Layer_1" d="M107.411 107.089 L105.406 107.092 L103.402 107.095 L101.397 107.098 L99.3922 107.101 L97.3875 107.104 L95.3828 107.107 L93.3782 107.11 L91.3735 107.113 L89.3688 107.116 L87.3641 107.119 L85.3595 107.122 L83.3548 107.125 L81.3501 107.128 L79.3455 107.131 L77.3408 107.134 L75.3361 107.137 L73.3314 107.14 L71.3268 107.143 L69.3221 107.146 L67.3174 107.149 L65.3127 107.152 L63.3081 107.155 L61.3034 107.158 L59.2987 107.161 L57.2941 107.164 L55.2894 107.167 L53.2847 107.17 L51.28 107.173 L49.2754 107.176 L47.2707 107.179 L45.266 107.182 L43.2613 107.185 L41.2567 107.188 L39.252 107.191 L37.2473 107.194 L35.2426 107.197 L33.238 107.2 L31.2333 107.203 L29.2286 107.206 L27.224 107.209 L25.2193 107.212 L23.2146 107.215 L21.2099 107.218 L19.2053 107.221 L17.2006 107.224 L15.1959 107.227 L13.1912 107.23 L11.1866 107.233 L9.1819 107.236 L7.17723 107.239 L5.17256 107.242 L3.16788 107.245 L1.16321 107.248 L-0.841463 107.252 L-2.84614 107.255 L-4.85081 107.258 L-6.85548 107.261 L-8.86015 107.264 L-10.8648 107.267 L-12.8695 107.27 L-14.8742 107.273 L-16.8788 107.276 L-18.8835 107.279 L-20.8882 107.282 L-22.8929 107.285 L-24.8975 107.288 L-26.9022 107.291 L-28.9069 107.294 L-30.9116 107.297 L-32.9162 107.3 L-34.9209 107.303 L-36.9256 107.306 L-38.9302 107.309 L-40.9349 107.312 L-42.9396 107.315 L-44.9443 107.318 L-46.9489 107.321 L-48.9536 107.324 L-50.9583 107.327 L-52.963 107.33 L-54.9676 107.333 L-56.9723 107.336 L-58.977 107.339 L-60.9816 107.342 L-62.9863 107.345 L-64.991 107.348 L-66.9957 107.351 L-69.0003 107.354 L-71.005 107.357 L-73.0097 107.36 L-75.0144 107.363 L-77.019 107.366 L-79.0237 107.369 L-81.0284 107.372 L-83.0331 107.375 L-85.0377 107.378 L-87.0424 107.381 L-89.0471 107.384 L-91.0517 107.387 L-93.0564 107.39 L-95.0611 107.393 L-97.0658 107.396 L-99.0704 107.399 L-101.075 107.402 L-103.08 107.405 L-105.084 107.408 L-107.089 107.411 L-107.092 105.406 L-107.095 103.402 L-107.098 101.397 L-107.101 99.3922 L-107.104 97.3875 L-107.107 95.3828 L-107.11 93.3782 L-107.113 91.3735 L-107.116 89.3688 L-107.119 87.3641 L-107.122 85.3595 L-107.125 83.3548 L-107.128 81.3501 L-107.131 79.3455 L-107.134 77.3408 L-107.137 75.3361 L-107.14 73.3314 L-107.143 71.3268 L-107.146 69.3221 L-107.149 67.3174 L-107.152 65.3127 L-107.155 63.3081 L-107.158 61.3034 L-107.161 59.2987 L-107.164 57.2941 L-107.167 55.2894 L-107.17 53.2847 L-107.173 51.28 L-107.176 49.2754 L-107.179 47.2707 L-107.182 45.266 L-107.185 43.2613 L-107.188 41.2567 L-107.191 39.252 L-107.194 37.2473 L-107.197 35.2426 L-107.2 33.238 L-107.203 31.2333 L-107.206 29.2286 L-107.209 27.224 L-107.212 25.2193 L-107.215 23.2146 L-107.218 21.2099 L-107.221 19.2053 L-107.224 17.2006 L-107.227 15.1959 L-107.23 13.1912 L-107.233 11.1866 L-107.236 9.1819 L-107.239 7.17722 L-107.242 5.17255 L-107.245 3.16788 L-107.248 1.1632 L-107.251 -0.841469 L-107.255 -2.84614 L-107.258 -4.85081 L-107.261 -6.85549 L-107.264 -8.86016 L-107.267 -10.8648 L-107.27 -12.8695 L-107.273 -14.8742 L-107.276 -16.8789 L-107.279 -18.8835 L-107.282 -20.8882 L-107.285 -22.8929 L-107.288 -24.8975 L-107.291 -26.9022 L-107.294 -28.9069 L-107.297 -30.9116 L-107.3 -32.9162 L-107.303 -34.9209 L-107.306 -36.9256 L-107.309 -38.9303 L-107.312 -40.9349 L-107.315 -42.9396 L-107.318 -44.9443 L-107.321 -46.9489 L-107.324 -48.9536 L-107.327 -50.9583 L-107.33 -52.963 L-107.333 -54.9676 L-107.336 -56.9723 L-107.339 -58.977 L-107.342 -60.9817 L-107.345 -62.9863 L-107.348 -64.991 L-107.351 -66.9957 L-107.354 -69.0003 L-107.357 -71.005 L-107.36 -73.0097 L-107.363 -75.0144 L-107.366 -77.019 L-107.369 -79.0237 L-107.372 -81.0284 L-107.375 -83.0331 L-107.378 -85.0377 L-107.381 -87.0424 L-107.384 -89.0471 L-107.387 -91.0518 L-107.39 -93.0564 L-107.393 -95.0611 L-107.396 -97.0658 L-107.399 -99.0704 L-107.402 -101.075 L-107.405 -103.08 L-107.408 -105.084 L-107.411 -107.089 L-105.406 -107.092 L-103.402 -107.095 L-101.397 -107.098 L-99.3922 -107.101 L-97.3875 -107.104 L-95.3828 -107.107 L-93.3782 -107.11 L-91.3735 -107.113 L-89.3688 -107.116 L-87.3641 -107.119 L-85.3595 -107.122 L-83.3548 -107.125 L-81.3501 -107.128 L-79.3455 -107.131 L-77.3408 -107.134 L-75.3361 -107.137 L-73.3314 -107.14 L-71.3268 -107.143 L-69.3221 -107.146 L-67.3174 -107.149 L-65.3127 -107.152 L-63.3081 -107.155 L-61.3034 -107.158 L-59.2987 -107.161 L-57.2941 -107.164 L-55.2894 -107.167 L-53.2847 -107.17 L-51.28 -107.173 L-49.2754 -107.176 L-47.2707 -107.179 L-45.266 -107.182 L-43.2613 -107.185 L-41.2567 -107.188 L-39.252 -107.191 L-37.2473 -107.194 L-35.2426 -107.197 L-33.238 -107.2 L-31.2333 -107.203 L-29.2286 -107.206 L-27.224 -107.209 L-25.2193 -107.212 L-23.2146 -107.215 L-21.2099 -107.218 L-19.2053 -107.221 L-17.2006 -107.224 L-15.1959 -107.227 L-13.1912 -107.23 L-11.1866 -107.233 L-9.1819 -107.236 L-7.17723 -107.239 L-5.17256 -107.242 L-3.16788 -107.245 L-1.16321 -107.248 L0.841463 -107.252 L2.84614 -107.255 L4.85081 -107.258 L6.85548 -107.261 L8.86015 -107.264 L10.8648 -107.267 L12.8695 -107.27 L14.8742 -107.273 L16.8788 -107.276 L18.8835 -107.279 L20.8882 -107.282 L22.8929 -107.285 L24.8975 -107.288 L26.9022 -107.291 L28.9069 -107.294 L30.9116 -107.297 L32.9162 -107.3 L34.9209 -107.303 L36.9256 -107.306 L38.9302 -107.309 L40.9349 -107.312 L42.9396 -107.315 L44.9443 -107.318 L46.9489 -107.321 L48.9536 -107.324 L50.9583 -107.327 L52.963 -107.33 L54.9676 -107.333 L56.9723 -107.336 L58.977 -107.339 L60.9816 -107.342 L62.9863 -107.345 L64.991 -107.348 L66.9957 -107.351 L69.0003 -107.354 L71.005 -107.357 L73.0097 -107.36 L75.0144 -107.363 L77.019 -107.366 L79.0237 -107.369 L81.0284 -107.372 L83.0331 -107.375 L85.0377 -107.378 L87.0424 -107.381 L89.0471 -107.384 L91.0517 -107.387 L93.0564 -107.39 L95.0611 -107.393 L97.0658 -107.396 L99.0704 -107.399 L101.075 -107.402 L103.08 -107.405 L105.084 -107.408 L107.089 -107.411 L107.092 -105.406 L107.095 -103.402 L107.098 -101.397 L107.101 -99.3922 L107.104 -97.3875 L107.107 -95.3828 L107.11 -93.3782 L107.113 -91.3735 L107.116 -89.3688 L107.119 -87.3642 L107.122 -85.3595 L107.125 -83.3548 L107.128 -81.3501 L107.131 -79.3455 L107.134 -77.3408 L107.137 -75.3361 L107.14 -73.3314 L107.143 -71.3268 L107.146 -69.3221 L107.149 -67.3174 L107.152 -65.3128 L107.155 -63.3081 L107.158 -61.3034 L107.161 -59.2987 L107.164 -57.2941 L107.167 -55.2894 L107.17 -53.2847 L107.173 -51.28 L107.176 -49.2754 L107.179 -47.2707 L107.182 -45.266 L107.185 -43.2613 L107.188 -41.2567 L107.191 -39.252 L107.194 -37.2473 L107.197 -35.2427 L107.2 -33.238 L107.203 -31.2333 L107.206 -29.2286 L107.209 -27.224 L107.212 -25.2193 L107.215 -23.2146 L107.218 -21.2099 L107.221 -19.2053 L107.224 -17.2006 L107.227 -15.1959 L107.23 -13.1913 L107.233 -11.1866 L107.236 -9.18191 L107.239 -7.17724 L107.242 -5.17256 L107.245 -3.16789 L107.248 -1.16322 L107.251 0.841455 L107.255 2.84613 L107.258 4.8508 L107.261 6.85547 L107.264 8.86015 L107.267 10.8648 L107.27 12.8695 L107.273 14.8742 L107.276 16.8788 L107.279 18.8835 L107.282 20.8882 L107.285 22.8929 L107.288 24.8975 L107.291 26.9022 L107.294 28.9069 L107.297 30.9115 L107.3 32.9162 L107.303 34.9209 L107.306 36.9256 L107.309 38.9302 L107.312 40.9349 L107.315 42.9396 L107.318 44.9443 L107.321 46.9489 L107.324 48.9536 L107.327 50.9583 L107.33 52.963 L107.333 54.9676 L107.336 56.9723 L107.339 58.977 L107.342 60.9816 L107.345 62.9863 L107.348 64.991 L107.351 66.9957 L107.354 69.0003 L107.357 71.005 L107.36 73.0097 L107.363 75.0144 L107.366 77.019 L107.369 79.0237 L107.372 81.0284 L107.375 83.033 L107.378 85.0377 L107.381 87.0424 L107.384 89.0471 L107.387 91.0517 L107.39 93.0564 L107.393 95.0611 L107.396 97.0658 L107.399 99.0704 L107.402 101.075 L107.405 103.08 L107.408 105.084 L107.411 107.089 Z " />
<path stroke="rgb(169,255,187)" stroke-opacity="1" fill="rgb(169,255,187)" fill-opacity="1" id="scalebar" d="M-3.69904 -94.609 L-1.65554 -94.609 L0.387962 -94.609 L2.43146 -94.609 L4.47496 -94.609 L4.47496 -92.6686 L4.47496 -90.7281 L4.47496 -88.7876 L4.47496 -86.8472 L4.47496 -84.9067 L4.47496 -82.9663 L4.47496 -81.0258 L4.47496 -79.0853 L4.47496 -77.1449 L4.47496 -75.2044 L4.47496 -73.2639 L4.47496 -71.3235 L4.47496 -69.383 L2.43146 -69.383 L0.387962 -69.383 L-1.65554 -69.383 L-3.69904 -69.383 L-3.69904 -71.3235 L-3.69904 -73.2639 L-3.69904 -75.2044 L-3.69904 -77.1449 L-3.69904 -79.0853 L-3.69904 -81.0258 L-3.69904 -82.9663 L-3.69904 -84.9067 L-3.69904 -86.8472 L-3.69904 -88.7876 L-3.69904 -90.7281 L-3.69904 -92.6686 L-3.69904 -94.609 Z " />
<path stroke="rgb(200,255,200)" stroke-opacity="1" fill="rgb(200,255,200)" fill-opacity="1" id="scaleslider" d="M-6.69904 -82.1526 L-4.67418 -82.1526 L-2.64932 -82.1526 L-0.624466 -82.1526 L1.40039 -82.1526 L3.42525 -82.1526 L5.4501 -82.1526 L7.47496 -82.1526 L7.47496 -80.426 L7.47496 -78.6993 L7.47496 -76.9726 L5.4501 -76.9726 L3.42525 -76.9726 L1.40039 -76.9726 L-0.624466 -76.9726 L-2.64932 -76.9726 L-4.67418 -76.9726 L-6.69904 -76.9726 L-6.69904 -78.6993 L-6.69904 -80.426 L-6.69904 -82.1526 Z " />
<path stroke="rgb(255,134,106)" stroke-opacity="1" fill="rgb(255,134,106)" fill-opacity="1" id="tranbar" d="M-49.142 -86.146 L-47.0675 -86.146 L-44.993 -86.146 L-42.9185 -86.146 L-40.844 -86.146 L-40.844 -88.2208 L-40.844 -90.2955 L-40.844 -92.3703 L-40.844 -94.445 L-38.7685 -94.445 L-36.693 -94.445 L-34.6175 -94.445 L-32.542 -94.445 L-32.542 -92.3703 L-32.542 -90.2955 L-32.542 -88.2208 L-32.542 -86.146 L-30.4673 -86.146 L-28.3925 -86.146 L-26.3178 -86.146 L-24.243 -86.146 L-24.243 -84.0715 L-24.243 -81.997 L-24.243 -79.9225 L-24.243 -77.848 L-26.3178 -77.848 L-28.3925 -77.848 L-30.4673 -77.848 L-32.542 -77.848 L-32.542 -75.773 L-32.542 -73.698 L-32.542 -71.623 L-32.542 -69.548 L-34.6175 -69.548 L-36.693 -69.548 L-38.7685 -69.548 L-40.844 -69.548 L-40.844 -71.623 L-40.844 -73.698 L-40.844 -75.773 L-40.844 -77.848 L-42.9185 -77.848 L-44.993 -77.848 L-47.0675 -77.848 L-49.142 -77.848 L-49.142 -79.9225 L-49.142 -81.997 L-49.142 -84.0715 L-49.142 -86.146 Z " />
<path stroke="rgb(255,250,159)" stroke-opacity="1" fill="rgb(255,250,159)" fill-opacity="1" id="translider" d="M-39.248 -84.553 L-37.5447 -84.553 L-35.8414 -84.553 L-34.138 -84.553 L-34.138 -82.85 L-34.138 -81.147 L-34.138 -79.444 L-35.8414 -79.444 L-37.5447 -79.444 L-39.248 -79.444 L-39.248 -81.147 L-39.248 -82.85 L-39.248 -84.553 Z " />
<path stroke="rgb(254,204,128)" stroke-opacity="1" fill="rgb(254,204,128)" fill-opacity="1" id="rotate" d="M37.7131 -72.3875 L36.0002 -73.2805 L34.2873 -74.1736 L32.5745 -75.0666 L30.8616 -75.9596 L29.1487 -76.8527 L29.0659 -78.7828 L28.9832 -80.7129 L28.9004 -82.643 L28.8176 -84.5731 L28.7348 -86.5032 L30.365 -87.5401 L31.9953 -88.577 L33.6255 -89.6139 L35.2557 -90.6508 L36.8859 -91.6877 L38.5989 -90.7945 L40.3119 -89.9013 L42.0249 -89.0081 L43.7378 -88.1149 L45.4508 -87.2217 L45.5335 -85.2917 L45.6162 -83.3618 L45.6988 -81.4319 L45.7815 -79.5019 L45.8642 -77.572 L44.234 -76.5351 L42.6038 -75.4982 L40.9735 -74.4613 L39.3433 -73.4244 L37.7131 -72.3875 Z " />
<path stroke="rgb(200,255,200)" stroke-opacity="1" fill="rgb(200,255,200)" fill-opacity="1" id="tri_0" d="M-4.00903 -48.5188 L-2.80517 -49.1066 L-1.6013 -49.6944 L-0.397429 -50.2822 L0.806439 -50.87 L2.01031 -51.4578 L1.91777 -50.1216 L1.82523 -48.7854 L1.73269 -47.4492 L1.64015 -46.1129 L1.54761 -44.7767 L0.436284 -45.5251 L-0.675045 -46.2735 L-1.78637 -47.0219 L-2.8977 -47.7704 L-4.00903 -48.5188 Z " />
<path stroke="rgb(200,255,200)" stroke-opacity="1" fill="rgb(200,255,200)" fill-opacity="1" id="tri_0_18_" d="M-8.98002 -39.8707 L-7.77671 -40.4589 L-6.5734 -41.0471 L-5.37009 -41.6353 L-4.16678 -42.2235 L-2.96347 -42.8116 L-3.05586 -41.4752 L-3.14825 -40.1387 L-3.24064 -38.8022 L-3.33303 -37.4657 L-3.42542 -36.1292 L-4.53634 -36.8775 L-5.64726 -37.6258 L-6.75818 -38.3741 L-7.8691 -39.1224 L-8.98002 -39.8707 Z " />
<path stroke="rgb(200,255,200)" stroke-opacity="1" fill="rgb(200,255,200)" fill-opacity="1" id="tri_1_16_" d="M0.774503 -39.573 L1.99037 -40.3027 L3.20624 -41.0324 L4.42211 -41.762 L5.63798 -42.4917 L6.85385 -43.2213 L6.8778 -41.8035 L6.90176 -40.3856 L6.92572 -38.9678 L6.94968 -37.55 L6.97363 -36.1321 L5.73381 -36.8203 L4.49398 -37.5085 L3.25416 -38.1967 L2.01433 -38.8849 L0.774503 -39.573 Z " />
<path stroke="rgb(200,255,200)" stroke-opacity="1" fill="rgb(200,255,200)" fill-opacity="1" id="tri_0_17_" d="M3.85835 -42.6194 L2.65463 -42.0313 L1.45091 -41.4432 L0.247192 -40.8551 L-0.956528 -40.2671 L-2.16025 -39.679 L-2.06786 -41.0155 L-1.97547 -42.352 L-1.88308 -43.6885 L-1.79069 -45.025 L-1.69829 -46.3614 L-0.586965 -45.613 L0.524364 -44.8646 L1.63569 -44.1162 L2.74702 -43.3678 L3.85835 -42.6194 Z " />
<path stroke="rgb(200,255,200)" stroke-opacity="1" fill="rgb(200,255,200)" fill-opacity="1" id="tri_0_16_" d="M-13.9533 -31.2218 L-12.7493 -31.81 L-11.5453 -32.3982 L-10.3413 -32.9865 L-9.13736 -33.5747 L-7.93338 -34.1629 L-8.02618 -32.8261 L-8.11899 -31.4892 L-8.21179 -30.1523 L-8.30459 -28.8155 L-8.3974 -27.4786 L-9.50858 -28.2272 L-10.6198 -28.9759 L-11.7309 -29.7245 L-12.8421 -30.4732 L-13.9533 -31.2218 Z " />
<path stroke="rgb(200,255,200)" stroke-opacity="1" fill="rgb(200,255,200)" fill-opacity="1" id="tri_1_15_" d="M-4.19718 -30.9221 L-2.98135 -31.6522 L-1.76552 -32.3824 L-0.549694 -33.1126 L0.666134 -33.8427 L1.88196 -34.5729 L1.90584 -33.1546 L1.92971 -31.7363 L1.95359 -30.3181 L1.97746 -28.8998 L2.00133 -27.4815 L0.761633 -28.1696 L-0.47807 -28.8577 L-1.71777 -29.5458 L-2.95748 -30.234 L-4.19718 -30.9221 Z " />
<path stroke="rgb(200,255,200)" stroke-opacity="1" fill="rgb(200,255,200)" fill-opacity="1" id="tri_0_15_" d="M-1.11372 -33.9717 L-2.31744 -33.3831 L-3.52117 -32.7946 L-4.72489 -32.206 L-5.92861 -31.6174 L-7.13233 -31.0289 L-7.03953 -32.3657 L-6.94673 -33.7026 L-6.85392 -35.0395 L-6.76112 -36.3763 L-6.66832 -37.7132 L-5.5574 -36.9649 L-4.44648 -36.2166 L-3.33556 -35.4683 L-2.22464 -34.72 L-1.11372 -33.9717 Z " />
<path stroke="rgb(200,255,200)" stroke-opacity="1" fill="rgb(200,255,200)" fill-opacity="1" id="tri_2_14_" d="M5.58154 -30.5995 L6.7976 -31.4745 L8.01366 -32.3496 L9.22972 -33.2246 L10.4458 -34.0997 L11.6618 -34.9748 L11.8109 -33.4838 L11.9599 -31.9929 L12.1089 -30.502 L12.258 -29.0111 L12.407 -27.5202 L11.0419 -28.136 L9.67681 -28.7519 L8.31172 -29.3677 L6.94663 -29.9836 L5.58154 -30.5995 Z " />
<path stroke="rgb(200,255,200)" stroke-opacity="1" fill="rgb(200,255,200)" fill-opacity="1" id="tri_1_14_" d="M9.08187 -34.3037 L7.86591 -33.5737 L6.64996 -32.8436 L5.43401 -32.1135 L4.21806 -31.3834 L3.00211 -30.6533 L2.97823 -32.0716 L2.95436 -33.4898 L2.93048 -34.9081 L2.90661 -36.3264 L2.88273 -37.7447 L4.12256 -37.0565 L5.36239 -36.3683 L6.60221 -35.6801 L7.84204 -34.9919 L9.08187 -34.3037 Z " />
<path stroke="rgb(200,255,200)" stroke-opacity="1" fill="rgb(200,255,200)" fill-opacity="1" id="tri_0_14_" d="M-18.9272 -22.5707 L-17.7233 -23.1592 L-16.5193 -23.7476 L-15.3154 -24.336 L-14.1114 -24.9244 L-12.9075 -25.5128 L-13.0004 -24.1762 L-13.0934 -22.8396 L-13.1863 -21.503 L-13.2793 -20.1664 L-13.3722 -18.8298 L-14.4832 -19.578 L-15.5942 -20.3262 L-16.7052 -21.0744 L-17.8162 -21.8226 L-18.9272 -22.5707 Z " />
<path stroke="rgb(200,255,200)" stroke-opacity="1" fill="rgb(200,255,200)" fill-opacity="1" id="tri_1_13_" d="M-9.17201 -22.2739 L-7.9557 -23.0035 L-6.73939 -23.7331 L-5.52307 -24.4626 L-4.30676 -25.1922 L-3.09045 -25.9218 L-3.0665 -24.5039 L-3.04254 -23.0861 L-3.01858 -21.6683 L-2.99462 -20.2504 L-2.97066 -18.8326 L-4.21093 -19.5209 L-5.4512 -20.2091 L-6.69147 -20.8974 L-7.93174 -21.5857 L-9.17201 -22.2739 Z " />
<path stroke="rgb(200,255,200)" stroke-opacity="1" fill="rgb(200,255,200)" fill-opacity="1" id="tri_0_13_" d="M-6.08618 -25.3202 L-7.29031 -24.7322 L-8.49444 -24.1442 L-9.69857 -23.5563 L-10.9027 -22.9683 L-12.1068 -22.3804 L-12.0139 -23.7169 L-11.9209 -25.0535 L-11.828 -26.3901 L-11.735 -27.7267 L-11.6421 -29.0633 L-10.5309 -28.3147 L-9.41972 -27.5661 L-8.30854 -26.8174 L-7.19736 -26.0688 L-6.08618 -25.3202 Z " />
<path stroke="rgb(200,255,200)" stroke-opacity="1" fill="rgb(200,255,200)" fill-opacity="1" id="tri_2_13_" d="M0.609928 -21.9511 L1.8258 -22.8257 L3.04168 -23.7004 L4.25755 -24.575 L5.47343 -25.4497 L6.6893 -26.3243 L6.83845 -24.8337 L6.98761 -23.343 L7.13676 -21.8524 L7.28591 -20.3617 L7.43506 -18.8711 L6.07003 -19.4871 L4.70501 -20.1031 L3.33998 -20.7191 L1.97496 -21.3351 L0.609928 -21.9511 Z " />
<path stroke="rgb(200,255,200)" stroke-opacity="1" fill="rgb(200,255,200)" fill-opacity="1" id="tri_1_12_" d="M4.10966 -25.6532 L2.89392 -24.9235 L1.67817 -24.1938 L0.462427 -23.4641 L-0.753317 -22.7343 L-1.96906 -22.0046 L-1.99302 -23.4225 L-2.01698 -24.8403 L-2.04094 -26.2581 L-2.06489 -27.676 L-2.08885 -29.0938 L-0.84915 -28.4057 L0.390553 -27.7176 L1.63026 -27.0295 L2.86996 -26.3413 L4.10966 -25.6532 Z " />
<path stroke="rgb(200,255,200)" stroke-opacity="1" fill="rgb(200,255,200)" fill-opacity="1" id="tri_3_12_" d="M10.426 -21.6373 L11.6315 -22.6467 L12.837 -23.6561 L14.0424 -24.6654 L15.2479 -25.6748 L16.4534 -26.6842 L16.725 -25.1357 L16.9966 -23.5872 L17.2682 -22.0387 L17.5398 -20.4902 L17.8115 -18.9417 L16.3344 -19.4808 L14.8573 -20.0199 L13.3802 -20.559 L11.9031 -21.0981 L10.426 -21.6373 Z " />
<path stroke="rgb(200,255,200)" stroke-opacity="1" fill="rgb(200,255,200)" fill-opacity="1" id="tri_2_12_" d="M14.2802 -26.0088 L13.0643 -25.134 L11.8483 -24.2592 L10.6324 -23.3844 L9.41644 -22.5096 L8.20051 -21.6348 L8.05135 -23.1255 L7.9022 -24.6161 L7.75305 -26.1068 L7.6039 -27.5974 L7.45475 -29.0881 L8.81983 -28.4722 L10.1849 -27.8564 L11.55 -27.2405 L12.9151 -26.6247 L14.2802 -26.0088 Z " />
<path stroke="rgb(200,255,200)" stroke-opacity="1" fill="rgb(200,255,200)" fill-opacity="1" id="tri_0_12_" d="M-23.898 -13.9244 L-22.6946 -14.5122 L-21.4913 -15.1 L-20.2879 -15.6878 L-19.0845 -16.2756 L-17.8811 -16.8634 L-17.9737 -15.5269 L-18.0663 -14.1904 L-18.1588 -12.8539 L-18.2514 -11.5173 L-18.344 -10.1808 L-19.4548 -10.9295 L-20.5656 -11.6782 L-21.6764 -12.4269 L-22.7872 -13.1756 L-23.898 -13.9244 Z " />
<path stroke="rgb(200,255,200)" stroke-opacity="1" fill="rgb(200,255,200)" fill-opacity="1" id="tri_1_11_" d="M-14.144 -13.6238 L-12.9283 -14.3538 L-11.7126 -15.0837 L-10.4969 -15.8136 L-9.28121 -16.5435 L-8.06552 -17.2734 L-8.0415 -15.8554 L-8.01749 -14.4374 L-7.99348 -13.0193 L-7.96946 -11.6013 L-7.94545 -10.1833 L-9.18515 -10.8714 L-10.4249 -11.5595 L-11.6646 -12.2476 L-12.9043 -12.9357 L-14.144 -13.6238 Z " />
<path stroke="rgb(200,255,200)" stroke-opacity="1" fill="rgb(200,255,200)" fill-opacity="1" id="tri_0_11_" d="M-11.0608 -16.6718 L-12.2644 -16.0835 L-13.468 -15.4951 L-14.6716 -14.9068 L-15.8751 -14.3185 L-17.0787 -13.7301 L-16.9861 -15.0667 L-16.8935 -16.4032 L-16.801 -17.7397 L-16.7084 -19.0762 L-16.6158 -20.4128 L-15.5048 -19.6646 L-14.3938 -18.9164 L-13.2828 -18.1682 L-12.1718 -17.42 L-11.0608 -16.6718 Z " />
<path stroke="rgb(200,255,200)" stroke-opacity="1" fill="rgb(200,255,200)" fill-opacity="1" id="tri_2_11_" d="M-4.36516 -13.3019 L-3.14875 -14.1767 L-1.93234 -15.0514 L-0.715933 -15.9262 L0.500476 -16.8009 L1.71688 -17.6756 L1.86582 -16.1853 L2.01476 -14.6949 L2.16371 -13.2045 L2.31265 -11.7141 L2.46159 -10.2237 L1.09624 -10.8394 L-0.269111 -11.455 L-1.63446 -12.0706 L-2.99981 -12.6863 L-4.36516 -13.3019 Z " />
<path stroke="rgb(200,255,200)" stroke-opacity="1" fill="rgb(200,255,200)" fill-opacity="1" id="tri_1_10_" d="M-0.862846 -17.0041 L-2.0791 -16.2743 L-3.29536 -15.5446 L-4.51161 -14.8148 L-5.72787 -14.0851 L-6.94412 -13.3553 L-6.96813 -14.7733 L-6.99215 -16.1914 L-7.01616 -17.6094 L-7.04018 -19.0274 L-7.06419 -20.4455 L-5.82392 -19.7572 L-4.58365 -19.0689 L-3.34338 -18.3806 L-2.10311 -17.6924 L-0.862846 -17.0041 Z " />
<path stroke="rgb(200,255,200)" stroke-opacity="1" fill="rgb(200,255,200)" fill-opacity="1" id="tri_3_11_" d="M5.4527 -12.9899 L6.65836 -13.9989 L7.86402 -15.0079 L9.06967 -16.0169 L10.2753 -17.0259 L11.481 -18.0349 L11.7522 -16.4862 L12.0234 -14.9375 L12.2946 -13.3888 L12.5658 -11.8401 L12.837 -10.2915 L11.3602 -10.8312 L9.88331 -11.3708 L8.40644 -11.9105 L6.92957 -12.4502 L5.4527 -12.9899 Z " />
<path stroke="rgb(200,255,200)" stroke-opacity="1" fill="rgb(200,255,200)" fill-opacity="1" id="tri_2_10_" d="M9.3077 -17.3599 L8.09161 -16.4855 L6.87553 -15.6111 L5.65944 -14.7367 L4.44336 -13.8623 L3.22727 -12.9879 L3.07833 -14.4783 L2.92939 -15.9687 L2.78045 -17.4591 L2.63151 -18.9495 L2.48257 -20.4399 L3.84759 -19.8239 L5.21262 -19.2079 L6.57765 -18.5919 L7.94267 -17.9759 L9.3077 -17.3599 Z " />
<path stroke="rgb(200,255,200)" stroke-opacity="1" fill="rgb(200,255,200)" fill-opacity="1" id="tri_4_10_" d="M15.3057 -12.6942 L16.4935 -13.8265 L17.6812 -14.9588 L18.8689 -16.091 L20.0567 -17.2233 L21.2444 -18.3556 L21.6306 -16.7608 L22.0168 -15.1661 L22.403 -13.5713 L22.7892 -11.9766 L23.1754 -10.3818 L21.6015 -10.8443 L20.0275 -11.3068 L18.4536 -11.7693 L16.8797 -12.2317 L15.3057 -12.6942 Z " />
<path stroke="rgb(200,255,200)" stroke-opacity="1" fill="rgb(200,255,200)" fill-opacity="1" id="tri_3_10_" d="M19.4429 -17.7085 L18.237 -16.6989 L17.0311 -15.6893 L15.8253 -14.6797 L14.6194 -13.6701 L13.4135 -12.6605 L13.1423 -14.2092 L12.8711 -15.7579 L12.5999 -17.3066 L12.3287 -18.8553 L12.0575 -20.404 L13.5346 -19.8649 L15.0116 -19.3258 L16.4887 -18.7867 L17.9658 -18.2476 L19.4429 -17.7085 Z " />
<path stroke="rgb(200,255,200)" stroke-opacity="1" fill="rgb(200,255,200)" fill-opacity="1" id="tri_0_10_" d="M-28.8716 -5.27456 L-27.6676 -5.86297 L-26.4637 -6.45138 L-25.2597 -7.03979 L-24.0558 -7.6282 L-22.8518 -8.21661 L-22.9448 -6.87953 L-23.0377 -5.54244 L-23.1307 -4.20536 L-23.2237 -2.86828 L-23.3166 -1.53119 L-24.4276 -2.27987 L-25.5386 -3.02854 L-26.6496 -3.77721 L-27.7606 -4.52589 L-28.8716 -5.27456 Z " />
<path stroke="rgb(200,255,200)" stroke-opacity="1" fill="rgb(200,255,200)" fill-opacity="1" id="tri_1_9_" d="M-19.1161 -4.97419 L-17.9002 -5.70416 L-16.6843 -6.43413 L-15.4684 -7.16409 L-14.2525 -7.89406 L-13.0366 -8.62403 L-13.0128 -7.20607 L-12.9889 -5.78811 L-12.965 -4.37014 L-12.9411 -2.95218 L-12.9172 -1.53422 L-14.157 -2.22221 L-15.3967 -2.91021 L-16.6365 -3.5982 L-17.8763 -4.28619 L-19.1161 -4.97419 Z " />
<path stroke="rgb(200,255,200)" stroke-opacity="1" fill="rgb(200,255,200)" fill-opacity="1" id="tri_0_9_" d="M-16.0325 -8.023 L-17.2362 -7.43463 L-18.44 -6.84625 L-19.6437 -6.25788 L-20.8475 -5.6695 L-22.0513 -5.08113 L-21.9583 -6.41822 L-21.8654 -7.7553 L-21.7724 -9.09238 L-21.6794 -10.4295 L-21.5865 -11.7665 L-20.4757 -11.0178 L-19.3649 -10.2691 L-18.2541 -9.52042 L-17.1433 -8.77171 L-16.0325 -8.023 Z " />
<path stroke="rgb(200,255,200)" stroke-opacity="1" fill="rgb(200,255,200)" fill-opacity="1" id="tri_2_9_" d="M-9.33726 -4.65264 L-8.12132 -5.52743 L-6.90539 -6.40222 L-5.68945 -7.27701 L-4.47351 -8.1518 L-3.25758 -9.0266 L-3.10803 -7.5361 L-2.95848 -6.0456 L-2.80893 -4.55511 L-2.65938 -3.06461 L-2.50983 -1.57412 L-3.87532 -2.18982 L-5.2408 -2.80552 L-6.60629 -3.42123 L-7.97177 -4.03693 L-9.33726 -4.65264 Z " />
<path stroke="rgb(200,255,200)" stroke-opacity="1" fill="rgb(200,255,200)" fill-opacity="1" id="tri_1_8_" d="M-5.83723 -8.3551 L-7.05304 -7.62525 L-8.26886 -6.89541 L-9.48467 -6.16556 L-10.7005 -5.43572 L-11.9163 -4.70587 L-11.9402 -6.12384 L-11.9641 -7.5418 L-11.988 -8.95976 L-12.0119 -10.3777 L-12.0357 -11.7957 L-10.796 -11.1076 L-9.55634 -10.4195 L-8.31663 -9.73133 L-7.07693 -9.04321 L-5.83723 -8.3551 Z " />
<path stroke="rgb(200,255,200)" stroke-opacity="1" fill="rgb(200,255,200)" fill-opacity="1" id="tri_3_9_" d="M0.480961 -4.34067 L1.68628 -5.35012 L2.8916 -6.35958 L4.09693 -7.36903 L5.30225 -8.37848 L6.50757 -9.38793 L6.77873 -7.83909 L7.04988 -6.29026 L7.32104 -4.74142 L7.5922 -3.19258 L7.86335 -1.64374 L6.38687 -2.18313 L4.9104 -2.72251 L3.43392 -3.2619 L1.95744 -3.80129 L0.480961 -4.34067 Z " />
<path stroke="rgb(200,255,200)" stroke-opacity="1" fill="rgb(200,255,200)" fill-opacity="1" id="tri_2_8_" d="M4.33438 -8.7126 L3.11858 -7.83775 L1.90278 -6.9629 L0.686983 -6.08804 L-0.528816 -5.21319 L-1.74462 -4.33834 L-1.89416 -5.82883 L-2.04371 -7.31933 L-2.19326 -8.80983 L-2.34281 -10.3003 L-2.49236 -11.7908 L-1.12702 -11.1752 L0.238334 -10.5595 L1.60368 -9.94389 L2.96903 -9.32824 L4.33438 -8.7126 Z " />
<path stroke="rgb(200,255,200)" stroke-opacity="1" fill="rgb(200,255,200)" fill-opacity="1" id="tri_4_9_" d="M10.3321 -4.04615 L11.5197 -5.17796 L12.7073 -6.30976 L13.8949 -7.44157 L15.0825 -8.57337 L16.2701 -9.70517 L16.6567 -8.11081 L17.0434 -6.51643 L17.43 -4.92206 L17.8167 -3.32769 L18.2033 -1.73332 L16.6291 -2.19589 L15.0548 -2.65846 L13.4806 -3.12102 L11.9063 -3.58359 L10.3321 -4.04615 Z " />
<path stroke="rgb(200,255,200)" stroke-opacity="1" fill="rgb(200,255,200)" fill-opacity="1" id="tri_3_8_" d="M14.4683 -9.05804 L13.2626 -8.04889 L12.0569 -7.03975 L10.8512 -6.03061 L9.64546 -5.02147 L8.43975 -4.01232 L8.16859 -5.56116 L7.89743 -7.11 L7.62628 -8.65884 L7.35512 -10.2077 L7.08396 -11.7565 L8.56083 -11.2168 L10.0377 -10.6771 L11.5146 -10.1374 L12.9914 -9.59773 L14.4683 -9.05804 Z " />
<path stroke="rgb(200,255,200)" stroke-opacity="1" fill="rgb(200,255,200)" fill-opacity="1" id="tri_5_8_" d="M20.2153 -3.77422 L21.3795 -5.01588 L22.5437 -6.25754 L23.7078 -7.49921 L24.872 -8.74087 L26.0362 -9.98253 L26.5291 -8.35336 L27.0221 -6.72419 L27.515 -5.09502 L28.008 -3.46585 L28.5009 -1.83668 L26.8438 -2.22419 L25.1867 -2.6117 L23.5296 -2.9992 L21.8724 -3.38671 L20.2153 -3.77422 Z " />
<path stroke="rgb(200,255,200)" stroke-opacity="1" fill="rgb(200,255,200)" fill-opacity="1" id="tri_4_8_" d="M24.5681 -9.38719 L23.3808 -8.25529 L22.1935 -7.1234 L21.0063 -5.9915 L19.819 -4.8596 L18.6317 -3.7277 L18.2451 -5.32207 L17.8584 -6.91644 L17.4717 -8.51081 L17.0851 -10.1052 L16.6984 -11.6996 L18.2724 -11.2371 L19.8463 -10.7746 L21.4202 -10.3121 L22.9942 -9.84966 L24.5681 -9.38719 Z " />
<path stroke="rgb(200,255,200)" stroke-opacity="1" fill="rgb(200,255,200)" fill-opacity="1" id="tri_0_8_" d="M-33.8464 3.37481 L-32.6423 2.78666 L-31.4382 2.19851 L-30.2341 1.61036 L-29.03 1.02222 L-27.8259 0.434068 L-27.9187 1.77063 L-28.0115 3.10719 L-28.1042 4.44375 L-28.197 5.78032 L-28.2897 7.11688 L-29.4011 6.36847 L-30.5124 5.62005 L-31.6237 4.87164 L-32.7351 4.12322 L-33.8464 3.37481 Z " />
<path stroke="rgb(200,255,200)" stroke-opacity="1" fill="rgb(200,255,200)" fill-opacity="1" id="tri_1_7_" d="M-24.0894 3.67329 L-22.8735 2.94383 L-21.6576 2.21438 L-20.4416 1.48492 L-19.2257 0.755465 L-18.0098 0.0260085 L-17.9862 1.44364 L-17.9626 2.86127 L-17.939 4.2789 L-17.9154 5.69653 L-17.8919 7.11416 L-19.1314 6.42598 L-20.3709 5.73781 L-21.6104 5.04964 L-22.8499 4.36146 L-24.0894 3.67329 Z " />
<path stroke="rgb(200,255,200)" stroke-opacity="1" fill="rgb(200,255,200)" fill-opacity="1" id="tri_0_7_" d="M-21.0051 0.627076 L-22.2089 1.21496 L-23.4126 1.80285 L-24.6164 2.39074 L-25.8201 2.97863 L-27.0239 3.56652 L-26.9311 2.22996 L-26.8384 0.893394 L-26.7456 -0.443168 L-26.6528 -1.77973 L-26.5601 -3.11629 L-25.4491 -2.36762 L-24.3381 -1.61895 L-23.2271 -0.870271 L-22.1161 -0.121598 L-21.0051 0.627076 Z " />
<path stroke="rgb(200,255,200)" stroke-opacity="1" fill="rgb(200,255,200)" fill-opacity="1" id="tri_2_7_" d="M-14.3118 3.99607 L-13.0954 3.12146 L-11.8791 2.24686 L-10.6627 1.37225 L-9.44638 0.49765 L-8.23003 -0.376954 L-8.08082 1.11356 L-7.93161 2.60406 L-7.78239 4.09457 L-7.63318 5.58508 L-7.48396 7.07559 L-8.84952 6.45969 L-10.2151 5.84378 L-11.5806 5.22788 L-12.9462 4.61197 L-14.3118 3.99607 Z " />
<path stroke="rgb(200,255,200)" stroke-opacity="1" fill="rgb(200,255,200)" fill-opacity="1" id="tri_1_6_" d="M-10.8095 0.294348 L-12.0257 1.02398 L-13.2418 1.75362 L-14.458 2.48326 L-15.6742 3.21289 L-16.8904 3.94253 L-16.914 2.5249 L-16.9376 1.10727 L-16.9612 -0.310363 L-16.9847 -1.72799 L-17.0083 -3.14562 L-15.7686 -2.45763 L-14.5288 -1.76963 L-13.289 -1.08164 L-12.0492 -0.393646 L-10.8095 0.294348 Z " />
<path stroke="rgb(200,255,200)" stroke-opacity="1" fill="rgb(200,255,200)" fill-opacity="1" id="tri_3_7_" d="M-4.4928 4.30891 L-3.28698 3.29947 L-2.08116 2.29003 L-0.875338 1.28059 L0.330483 0.271155 L1.5363 -0.738283 L1.80711 0.810596 L2.07791 2.35947 L2.34872 3.90835 L2.61953 5.45723 L2.89033 7.00611 L1.41371 6.46667 L-0.0629196 5.92723 L-1.53955 5.38779 L-3.01617 4.84835 L-4.4928 4.30891 Z " />
<path stroke="rgb(200,255,200)" stroke-opacity="1" fill="rgb(200,255,200)" fill-opacity="1" id="tri_2_6_" d="M-0.636916 -0.063118 L-1.85319 0.811686 L-3.06946 1.68649 L-4.28573 2.56129 L-5.502 3.4361 L-6.71827 4.3109 L-6.86749 2.82039 L-7.0167 1.32988 L-7.16592 -0.160623 L-7.31513 -1.65113 L-7.46435 -3.14164 L-6.09886 -2.52594 L-4.73337 -1.91023 L-3.36789 -1.29453 L-2.0024 -0.678822 L-0.636916 -0.063118 Z " />
<path stroke="rgb(200,255,200)" stroke-opacity="1" fill="rgb(200,255,200)" fill-opacity="1" id="tri_4_7_" d="M5.35865 4.60373 L6.54618 3.47156 L7.73371 2.3394 L8.92124 1.20723 L10.1088 0.0750647 L11.2963 -1.0571 L11.683 0.537268 L12.0696 2.13164 L12.4563 3.726 L12.8429 5.32037 L13.2296 6.91474 L11.6554 6.45254 L10.0812 5.99034 L8.50702 5.52813 L6.93284 5.06593 L5.35865 4.60373 Z " />
<path stroke="rgb(200,255,200)" stroke-opacity="1" fill="rgb(200,255,200)" fill-opacity="1" id="tri_3_6_" d="M9.49488 -0.41013 L8.28921 0.599362 L7.08354 1.60885 L5.87787 2.61835 L4.67219 3.62784 L3.46652 4.63733 L3.19572 3.08845 L2.92491 1.53958 L2.6541 -0.00930183 L2.3833 -1.55818 L2.11249 -3.10706 L3.58897 -2.56767 L5.06545 -2.02829 L6.54193 -1.4889 L8.0184 -0.949516 L9.49488 -0.41013 Z " />
<path stroke="rgb(200,255,200)" stroke-opacity="1" fill="rgb(200,255,200)" fill-opacity="1" id="tri_5_7_" d="M15.2417 4.8738 L16.4062 3.63222 L17.5707 2.39064 L18.7352 1.14906 L19.8997 -0.0925258 L21.0643 -1.33411 L21.5569 0.295686 L22.0495 1.92548 L22.5421 3.55528 L23.0348 5.18507 L23.5274 6.81486 L21.8702 6.42665 L20.2131 6.03844 L18.556 5.65023 L16.8988 5.26201 L15.2417 4.8738 Z " />
<path stroke="rgb(200,255,200)" stroke-opacity="1" fill="rgb(200,255,200)" fill-opacity="1" id="tri_4_6_" d="M19.5959 -0.738896 L18.4083 0.392907 L17.2207 1.52471 L16.0331 2.65651 L14.8455 3.78831 L13.6579 4.92012 L13.2712 3.32575 L12.8846 1.73138 L12.4979 0.137012 L12.1112 -1.45736 L11.7246 -3.05173 L13.2988 -2.58916 L14.8731 -2.12659 L16.4473 -1.66403 L18.0216 -1.20146 L19.5959 -0.738896 Z " />
<path stroke="rgb(200,255,200)" stroke-opacity="1" fill="rgb(200,255,200)" fill-opacity="1" id="tri_6_6_" d="M25.1457 5.12121 L26.2845 3.78236 L27.4233 2.44352 L28.562 1.10467 L29.7008 -0.234171 L30.8396 -1.57302 L31.4293 0.0822461 L32.0191 1.73751 L32.6088 3.39277 L33.1985 5.04803 L33.7883 6.70329 L32.0597 6.38688 L30.3312 6.07046 L28.6027 5.75404 L26.8742 5.43762 L25.1457 5.12121 Z " />
<path stroke="rgb(200,255,200)" stroke-opacity="1" fill="rgb(200,255,200)" fill-opacity="1" id="tri_5_6_" d="M29.6648 -1.04455 L28.5003 0.197734 L27.3358 1.44002 L26.1713 2.68231 L25.0068 3.92459 L23.8423 5.16688 L23.3497 3.53709 L22.8571 1.90729 L22.3644 0.277499 L21.8718 -1.3523 L21.3792 -2.98209 L23.0363 -2.59458 L24.6934 -2.20708 L26.3506 -1.81957 L28.0077 -1.43206 L29.6648 -1.04455 Z " />
<path stroke="rgb(200,255,200)" stroke-opacity="1" fill="rgb(200,255,200)" fill-opacity="1" id="tri_0_6_" d="M-38.8185 12.0252 L-37.6148 11.4368 L-36.411 10.8484 L-35.2073 10.2601 L-34.0035 9.67169 L-32.7997 9.08331 L-32.8921 10.4203 L-32.9845 11.7573 L-33.0769 13.0942 L-33.1693 14.4312 L-33.2617 15.7682 L-34.3731 15.0196 L-35.4844 14.271 L-36.5958 13.5224 L-37.7072 12.7738 L-38.8185 12.0252 Z " />
<path stroke="rgb(200,255,200)" stroke-opacity="1" fill="rgb(200,255,200)" fill-opacity="1" id="tri_1_5_" d="M-29.0615 12.3242 L-27.8457 11.5941 L-26.6299 10.8639 L-25.4141 10.1338 L-24.1982 9.40359 L-22.9824 8.67343 L-22.9589 10.0915 L-22.9354 11.5096 L-22.9119 12.9276 L-22.8884 14.3457 L-22.8649 15.7638 L-24.1042 15.0759 L-25.3435 14.388 L-26.5829 13.7001 L-27.8222 13.0122 L-29.0615 12.3242 Z " />
<path stroke="rgb(200,255,200)" stroke-opacity="1" fill="rgb(200,255,200)" fill-opacity="1" id="tri_0_5_" d="M-25.978 9.27481 L-27.1817 9.86337 L-28.3855 10.4519 L-29.5892 11.0405 L-30.7929 11.629 L-31.9966 12.2176 L-31.9042 10.8806 L-31.8118 9.54366 L-31.7195 8.20669 L-31.6271 6.86971 L-31.5347 5.53274 L-30.4233 6.28115 L-29.312 7.02956 L-28.2007 7.77798 L-27.0894 8.52639 L-25.978 9.27481 Z " />
<path stroke="rgb(200,255,200)" stroke-opacity="1" fill="rgb(200,255,200)" fill-opacity="1" id="tri_2_5_" d="M-19.2854 12.6458 L-18.0693 11.7709 L-16.8532 10.896 L-15.637 10.0212 L-14.4209 9.1463 L-13.2048 8.27144 L-13.0551 9.76166 L-12.9054 11.2519 L-12.7558 12.7421 L-12.6061 14.2323 L-12.4564 15.7226 L-13.8222 15.1072 L-15.188 14.4918 L-16.5538 13.8765 L-17.9196 13.2611 L-19.2854 12.6458 Z " />
<path stroke="rgb(200,255,200)" stroke-opacity="1" fill="rgb(200,255,200)" fill-opacity="1" id="tri_1_4_" d="M-15.7842 8.9429 L-17.0002 9.6728 L-18.2162 10.4027 L-19.4323 11.1326 L-20.6483 11.8625 L-21.8643 12.5924 L-21.8878 11.1743 L-21.9113 9.75625 L-21.9348 8.33818 L-21.9583 6.92011 L-21.9818 5.50203 L-20.7423 6.19021 L-19.5028 6.87838 L-18.2632 7.56655 L-17.0237 8.25473 L-15.7842 8.9429 Z " />
<path stroke="rgb(200,255,200)" stroke-opacity="1" fill="rgb(200,255,200)" fill-opacity="1" id="tri_3_5_" d="M-9.46504 12.9555 L-8.25958 11.9466 L-7.05413 10.9377 L-5.84867 9.92877 L-4.64322 8.91987 L-3.43776 7.91097 L-3.16651 9.46001 L-2.89526 11.0091 L-2.62401 12.5581 L-2.35276 14.1071 L-2.08151 15.6562 L-3.55822 15.116 L-5.03492 14.5759 L-6.51163 14.0358 L-7.98833 13.4956 L-9.46504 12.9555 Z " />
<path stroke="rgb(200,255,200)" stroke-opacity="1" fill="rgb(200,255,200)" fill-opacity="1" id="tri_2_4_" d="M-5.6114 8.58639 L-6.82729 9.46071 L-8.04317 10.335 L-9.25906 11.2093 L-10.4749 12.0837 L-11.6908 12.958 L-11.8405 11.4678 L-11.9902 9.97754 L-12.1399 8.48731 L-12.2895 6.99709 L-12.4392 5.50687 L-11.0736 6.12277 L-9.70808 6.73868 L-8.34252 7.35458 L-6.97696 7.97048 L-5.6114 8.58639 Z " />
<path stroke="rgb(200,255,200)" stroke-opacity="1" fill="rgb(200,255,200)" fill-opacity="1" id="tri_4_5_" d="M0.387392 13.2542 L1.57461 12.1219 L2.76182 10.9896 L3.94904 9.85738 L5.13626 8.72512 L6.32347 7.59287 L6.70992 9.18734 L7.09638 10.7818 L7.48283 12.3763 L7.86928 13.9708 L8.25573 15.5653 L6.68206 15.103 L5.10839 14.6408 L3.53473 14.1786 L1.96106 13.7164 L0.387392 13.2542 Z " />
<path stroke="rgb(200,255,200)" stroke-opacity="1" fill="rgb(200,255,200)" fill-opacity="1" id="tri_3_4_" d="M4.52197 8.23979 L3.31659 9.24939 L2.11121 10.259 L0.905835 11.2686 L-0.299542 12.2782 L-1.50492 13.2878 L-1.77617 11.7388 L-2.04742 10.1897 L-2.31867 8.64067 L-2.58992 7.09163 L-2.86117 5.54259 L-1.38454 6.08203 L0.0920865 6.62147 L1.56871 7.16091 L3.04534 7.70035 L4.52197 8.23979 Z " />
<path stroke="rgb(200,255,200)" stroke-opacity="1" fill="rgb(200,255,200)" fill-opacity="1" id="tri_5_5_" d="M10.2674 13.5244 L11.4321 12.2823 L12.5967 11.0402 L13.7613 9.79812 L14.9259 8.55604 L16.0906 7.31395 L16.5835 8.94383 L17.0765 10.5737 L17.5694 12.2036 L18.0624 13.8334 L18.5554 15.4633 L16.8978 15.0755 L15.2402 14.6877 L13.5826 14.2999 L11.925 13.9122 L10.2674 13.5244 Z " />
<path stroke="rgb(200,255,200)" stroke-opacity="1" fill="rgb(200,255,200)" fill-opacity="1" id="tri_4_4_" d="M14.6223 7.90936 L13.4345 9.04163 L12.2468 10.1739 L11.0591 11.3062 L9.87133 12.4385 L8.6836 13.5707 L8.29715 11.9763 L7.9107 10.3818 L7.52424 8.7873 L7.13779 7.19282 L6.75134 5.59834 L8.32553 6.06055 L9.89972 6.52275 L11.4739 6.98495 L13.0481 7.44715 L14.6223 7.90936 Z " />
<path stroke="rgb(200,255,200)" stroke-opacity="1" fill="rgb(200,255,200)" fill-opacity="1" id="tri_6_5_" d="M20.1739 13.7695 L21.3124 12.4313 L22.4509 11.0931 L23.5894 9.75496 L24.7279 8.41677 L25.8664 7.07859 L26.4563 8.73354 L27.0463 10.3885 L27.6363 12.0434 L28.2262 13.6984 L28.8162 15.3533 L27.0877 15.0366 L25.3593 14.7198 L23.6308 14.403 L21.9024 14.0863 L20.1739 13.7695 Z " />
<path stroke="rgb(200,255,200)" stroke-opacity="1" fill="rgb(200,255,200)" fill-opacity="1" id="tri_5_4_" d="M24.6913 7.60702 L23.5271 8.84868 L22.363 10.0903 L21.1988 11.332 L20.0346 12.5737 L18.8704 13.8153 L18.3775 12.1855 L17.8845 10.5556 L17.3916 8.92571 L16.8986 7.29584 L16.4056 5.66596 L18.0628 6.05417 L19.7199 6.44239 L21.3771 6.8306 L23.0342 7.21881 L24.6913 7.60702 Z " />
<path stroke="rgb(200,255,200)" stroke-opacity="1" fill="rgb(200,255,200)" fill-opacity="1" id="tri_7_4_" d="M30.0996 13.9817 L31.2118 12.5598 L32.3241 11.1379 L33.4363 9.71597 L34.5486 8.29405 L35.6608 6.87214 L36.3351 8.54658 L37.0094 10.221 L37.6838 11.8955 L38.3581 13.5699 L39.0324 15.2443 L37.2458 14.9918 L35.4593 14.7393 L33.6727 14.4868 L31.8861 14.2342 L30.0996 13.9817 Z " />
<path stroke="rgb(200,255,200)" stroke-opacity="1" fill="rgb(200,255,200)" fill-opacity="1" id="tri_6_4_" d="M34.7392 7.32561 L33.6006 8.66414 L32.4621 10.0027 L31.3235 11.3412 L30.185 12.6797 L29.0464 14.0183 L28.4565 12.3633 L27.8665 10.7084 L27.2765 9.05342 L26.6866 7.39847 L26.0966 5.74353 L27.8251 6.05994 L29.5536 6.37636 L31.2822 6.69278 L33.0107 7.0092 L34.7392 7.32561 Z " />
<path stroke="rgb(200,255,200)" stroke-opacity="1" fill="rgb(200,255,200)" fill-opacity="1" id="tri_0_4_" d="M-43.7926 20.6748 L-42.5887 20.0866 L-41.3847 19.4983 L-40.1807 18.9101 L-38.9767 18.3219 L-37.7727 17.7337 L-37.8653 19.0702 L-37.9579 20.4067 L-38.0505 21.7432 L-38.143 23.0798 L-38.2356 24.4163 L-39.347 23.668 L-40.4584 22.9197 L-41.5698 22.1714 L-42.6812 21.4231 L-43.7926 20.6748 Z " />
<path stroke="rgb(200,255,200)" stroke-opacity="1" fill="rgb(200,255,200)" fill-opacity="1" id="tri_1_3_" d="M-34.0355 20.9719 L-32.8194 20.2424 L-31.6033 19.5129 L-30.3871 18.7834 L-29.171 18.0539 L-27.9549 17.3244 L-27.9315 18.7419 L-27.908 20.1595 L-27.8845 21.5771 L-27.8611 22.9946 L-27.8376 24.4122 L-29.0772 23.7241 L-30.3168 23.0361 L-31.5563 22.348 L-32.7959 21.66 L-34.0355 20.9719 Z " />
<path stroke="rgb(200,255,200)" stroke-opacity="1" fill="rgb(200,255,200)" fill-opacity="1" id="tri_0_3_" d="M-30.9502 17.9258 L-32.1541 18.5138 L-33.3581 19.1017 L-34.562 19.6896 L-35.766 20.2775 L-36.9699 20.8655 L-36.8773 19.5289 L-36.7847 18.1924 L-36.6922 16.8559 L-36.5996 15.5194 L-36.507 14.1828 L-35.3956 14.9314 L-34.2843 15.68 L-33.1729 16.4286 L-32.0615 17.1772 L-30.9502 17.9258 Z " />
<path stroke="rgb(200,255,200)" stroke-opacity="1" fill="rgb(200,255,200)" fill-opacity="1" id="tri_2_3_" d="M-24.2579 21.2944 L-23.0419 20.4198 L-21.8258 19.5452 L-20.6098 18.6706 L-19.3938 17.796 L-18.1778 16.9214 L-18.0283 18.4119 L-17.8787 19.9024 L-17.7292 21.3929 L-17.5796 22.8834 L-17.4301 24.3739 L-18.7956 23.758 L-20.1612 23.1421 L-21.5267 22.5262 L-22.8923 21.9103 L-24.2579 21.2944 Z " />
<path stroke="rgb(200,255,200)" stroke-opacity="1" fill="rgb(200,255,200)" fill-opacity="1" id="tri_1_2_" d="M-20.7571 17.5926 L-21.973 18.3222 L-23.1888 19.0519 L-24.4047 19.7815 L-25.6206 20.5112 L-26.8364 21.2408 L-26.8599 19.8233 L-26.8834 18.4057 L-26.9068 16.9881 L-26.9303 15.5706 L-26.9537 14.153 L-25.7144 14.8409 L-24.4751 15.5288 L-23.2358 16.2167 L-21.9964 16.9047 L-20.7571 17.5926 Z " />
<path stroke="rgb(200,255,200)" stroke-opacity="1" fill="rgb(200,255,200)" fill-opacity="1" id="tri_3_3_" d="M-14.4389 21.607 L-13.2331 20.5972 L-12.0273 19.5874 L-10.8215 18.5776 L-9.61576 17.5678 L-8.40998 16.5581 L-8.13924 18.1076 L-7.8685 19.6571 L-7.59776 21.2066 L-7.32703 22.7561 L-7.05629 24.3057 L-8.53281 23.7659 L-10.0093 23.2262 L-11.4858 22.6865 L-12.9624 22.1467 L-14.4389 21.607 Z " />
<path stroke="rgb(200,255,200)" stroke-opacity="1" fill="rgb(200,255,200)" fill-opacity="1" id="tri_2_2_" d="M-10.5834 17.2334 L-11.7997 18.1085 L-13.0159 18.9837 L-14.2322 19.8588 L-15.4485 20.7339 L-16.6647 21.6091 L-16.8143 20.1186 L-16.9638 18.6281 L-17.1134 17.1376 L-17.2629 15.6471 L-17.4125 14.1566 L-16.0467 14.7719 L-14.6809 15.3873 L-13.315 16.0027 L-11.9492 16.618 L-10.5834 17.2334 Z " />
<path stroke="rgb(200,255,200)" stroke-opacity="1" fill="rgb(200,255,200)" fill-opacity="1" id="tri_4_3_" d="M-4.58736 21.9034 L-3.39952 20.7714 L-2.21167 19.6393 L-1.02382 18.5072 L0.164024 17.3752 L1.35187 16.2431 L1.7383 17.8371 L2.12474 19.431 L2.51117 21.025 L2.8976 22.6189 L3.28404 24.2129 L1.70976 23.751 L0.135477 23.2891 L-1.4388 22.8272 L-3.01308 22.3653 L-4.58736 21.9034 Z " />
<path stroke="rgb(200,255,200)" stroke-opacity="1" fill="rgb(200,255,200)" fill-opacity="1" id="tri_3_2_" d="M-0.449863 16.89 L-1.65583 17.8994 L-2.8618 18.9087 L-4.06777 19.9181 L-5.27373 20.9275 L-6.4797 21.9369 L-6.75044 20.3874 L-7.02118 18.8378 L-7.29191 17.2883 L-7.56265 15.7388 L-7.83339 14.1893 L-6.35668 14.7294 L-4.87998 15.2696 L-3.40327 15.8097 L-1.92657 16.3498 L-0.449863 16.89 Z " />
<path stroke="rgb(200,255,200)" stroke-opacity="1" fill="rgb(200,255,200)" fill-opacity="1" id="tri_5_3_" d="M5.29549 22.1719 L6.45962 20.9304 L7.62376 19.6889 L8.7879 18.4474 L9.95203 17.206 L11.1162 15.9645 L11.6091 17.5938 L12.102 19.2231 L12.5949 20.8525 L13.0878 22.4818 L13.5807 24.1111 L11.9237 23.7233 L10.2666 23.3355 L8.60958 22.9476 L6.95253 22.5598 L5.29549 22.1719 Z " />
<path stroke="rgb(200,255,200)" stroke-opacity="1" fill="rgb(200,255,200)" fill-opacity="1" id="tri_4_2_" d="M9.64824 16.5597 L8.46101 17.6914 L7.27377 18.8231 L6.08654 19.9549 L4.89931 21.0866 L3.71207 22.2184 L3.32564 20.6244 L2.93921 19.0304 L2.55277 17.4365 L2.16634 15.8425 L1.77991 14.2486 L3.35357 14.7108 L4.92724 15.173 L6.50091 15.6352 L8.07457 16.0974 L9.64824 16.5597 Z " />
<path stroke="rgb(200,255,200)" stroke-opacity="1" fill="rgb(200,255,200)" fill-opacity="1" id="tri_6_3_" d="M15.1991 22.4174 L16.3381 21.0793 L17.4771 19.7412 L18.6161 18.4031 L19.7551 17.065 L20.8941 15.727 L21.4835 17.382 L22.073 19.037 L22.6624 20.692 L23.2518 22.3471 L23.8412 24.0021 L22.1128 23.6851 L20.3844 23.3682 L18.6559 23.0513 L16.9275 22.7343 L15.1991 22.4174 Z " />
<path stroke="rgb(200,255,200)" stroke-opacity="1" fill="rgb(200,255,200)" fill-opacity="1" id="tri_5_2_" d="M19.7192 16.2555 L18.5546 17.497 L17.3899 18.7386 L16.2252 19.9801 L15.0605 21.2217 L13.8959 22.4632 L13.403 20.8339 L12.91 19.2045 L12.4171 17.5752 L11.9242 15.9459 L11.4313 14.3165 L13.0889 14.7043 L14.7465 15.0921 L16.4041 15.4799 L18.0617 15.8677 L19.7192 16.2555 Z " />
<path stroke="rgb(200,255,200)" stroke-opacity="1" fill="rgb(200,255,200)" fill-opacity="1" id="tri_7_3_" d="M25.1247 22.6305 L26.2375 21.2088 L27.3503 19.7872 L28.463 18.3655 L29.5758 16.9439 L30.6885 15.5222 L31.3627 17.1963 L32.0369 18.8703 L32.7111 20.5444 L33.3853 22.2184 L34.0595 23.8925 L32.2725 23.6401 L30.4856 23.3877 L28.6986 23.1353 L26.9117 22.8829 L25.1247 22.6305 Z " />
<path stroke="rgb(200,255,200)" stroke-opacity="1" fill="rgb(200,255,200)" fill-opacity="1" id="tri_6_2_" d="M29.7669 15.9756 L28.6279 17.3139 L27.4888 18.6522 L26.3498 19.9904 L25.2108 21.3287 L24.0717 22.6669 L23.4823 21.0119 L22.8929 19.3569 L22.3035 17.7019 L21.7141 16.0468 L21.1247 14.3918 L22.8531 14.7086 L24.5816 15.0253 L26.31 15.3421 L28.0385 15.6589 L29.7669 15.9756 Z " />
<path stroke="rgb(200,255,200)" stroke-opacity="1" fill="rgb(200,255,200)" fill-opacity="1" id="tri_8_2_" d="M35.0626 22.8125 L36.1496 21.3203 L37.2367 19.8281 L38.3237 18.3359 L39.4108 16.8437 L40.4979 15.3515 L41.2468 17.0392 L41.9957 18.727 L42.7447 20.4148 L43.4936 22.1025 L44.2425 23.7903 L42.4066 23.5947 L40.5706 23.3992 L38.7346 23.2036 L36.8986 23.008 L35.0626 22.8125 Z " />
<path stroke="rgb(200,255,200)" stroke-opacity="1" fill="rgb(200,255,200)" fill-opacity="1" id="tri_7_2_" d="M39.7902 15.7272 L38.6779 17.1487 L37.5655 18.5703 L36.4531 19.9918 L35.3408 21.4133 L34.2284 22.8349 L33.5542 21.1608 L32.88 19.4868 L32.2058 17.8127 L31.5316 16.1387 L30.8574 14.4646 L32.644 14.7171 L34.4306 14.9696 L36.2171 15.2222 L38.0037 15.4747 L39.7902 15.7272 Z " />
<path stroke="rgb(200,255,200)" stroke-opacity="1" fill="rgb(200,255,200)" fill-opacity="1" id="tri_0_2_" d="M-48.7644 29.3236 L-47.5608 28.7354 L-46.3572 28.1473 L-45.1536 27.5591 L-43.95 26.971 L-42.7464 26.3828 L-42.8388 27.7195 L-42.9311 29.0562 L-43.0235 30.3929 L-43.1158 31.7295 L-43.2082 33.0662 L-44.3194 32.3177 L-45.4307 31.5692 L-46.5419 30.8206 L-47.6532 30.0721 L-48.7644 29.3236 Z " />
<path stroke="rgb(200,255,200)" stroke-opacity="1" fill="rgb(200,255,200)" fill-opacity="1" id="tri_1_1_" d="M-39.0081 29.6216 L-37.7922 28.8916 L-36.5763 28.1616 L-35.3604 27.4317 L-34.1445 26.7017 L-32.9286 25.9717 L-32.9046 27.3896 L-32.8805 28.8076 L-32.8564 30.2255 L-32.8323 31.6434 L-32.8082 33.0613 L-34.0482 32.3733 L-35.2882 31.6854 L-36.5281 30.9975 L-37.7681 30.3095 L-39.0081 29.6216 Z " />
<path stroke="rgb(200,255,200)" stroke-opacity="1" fill="rgb(200,255,200)" fill-opacity="1" id="tri_0_1_" d="M-35.9242 26.5739 L-37.1279 27.1623 L-38.3317 27.7507 L-39.5354 28.339 L-40.7392 28.9274 L-41.943 29.5158 L-41.8506 28.1791 L-41.7582 26.8424 L-41.6659 25.5058 L-41.5735 24.1691 L-41.4812 22.8324 L-40.3698 23.5807 L-39.2584 24.329 L-38.147 25.0773 L-37.0356 25.8256 L-35.9242 26.5739 Z " />
<path stroke="rgb(200,255,200)" stroke-opacity="1" fill="rgb(200,255,200)" fill-opacity="1" id="tri_2_1_" d="M-29.228 29.943 L-28.0124 29.0683 L-26.7968 28.1935 L-25.5812 27.3187 L-24.3656 26.4439 L-23.15 25.5691 L-23.0003 27.0602 L-22.8507 28.5512 L-22.7011 30.0422 L-22.5514 31.5333 L-22.4018 33.0243 L-23.767 32.4081 L-25.1323 31.7918 L-26.4975 31.1756 L-27.8627 30.5593 L-29.228 29.943 Z " />
<path stroke="rgb(200,255,200)" stroke-opacity="1" fill="rgb(200,255,200)" fill-opacity="1" id="tri_1" d="M-25.73 26.2405 L-26.9455 26.9703 L-28.161 27.7002 L-29.3765 28.43 L-30.592 29.1599 L-31.8075 29.8898 L-31.8315 28.4718 L-31.8556 27.0539 L-31.8797 25.636 L-31.9038 24.2181 L-31.9279 22.8002 L-30.6883 23.4883 L-29.4487 24.1763 L-28.2091 24.8644 L-26.9696 25.5524 L-25.73 26.2405 Z " />
<path stroke="rgb(200,255,200)" stroke-opacity="1" fill="rgb(200,255,200)" fill-opacity="1" id="tri_3_1_" d="M-19.4103 30.2581 L-18.2049 29.2483 L-16.9994 28.2386 L-15.794 27.2288 L-14.5886 26.2191 L-13.3831 25.2093 L-13.112 26.7583 L-12.8409 28.3073 L-12.5698 29.8563 L-12.2987 31.4053 L-12.0276 32.9543 L-13.5042 32.415 L-14.9807 31.8758 L-16.4572 31.3366 L-17.9338 30.7973 L-19.4103 30.2581 Z " />
<path stroke="rgb(200,255,200)" stroke-opacity="1" fill="rgb(200,255,200)" fill-opacity="1" id="tri_2" d="M-15.5567 25.8847 L-16.7726 26.7598 L-17.9886 27.6349 L-19.2045 28.5101 L-20.4204 29.3852 L-21.6363 30.2603 L-21.786 28.7693 L-21.9356 27.2783 L-22.0853 25.7872 L-22.2349 24.2962 L-22.3845 22.8052 L-21.019 23.4211 L-19.6534 24.037 L-18.2878 24.6529 L-16.9223 25.2688 L-15.5567 25.8847 Z " />
<path stroke="rgb(200,255,200)" stroke-opacity="1" fill="rgb(200,255,200)" fill-opacity="1" id="tri_4_1_" d="M-9.5594 30.5521 L-8.37212 29.4202 L-7.18484 28.2883 L-5.99756 27.1564 L-4.81028 26.0245 L-3.623 24.8926 L-3.23641 26.4866 L-2.84982 28.0806 L-2.46322 29.6746 L-2.07663 31.2686 L-1.69004 32.8626 L-3.26391 32.4005 L-4.83779 31.9384 L-6.41166 31.4763 L-7.98553 31.0142 L-9.5594 30.5521 Z " />
<path stroke="rgb(200,255,200)" stroke-opacity="1" fill="rgb(200,255,200)" fill-opacity="1" id="tri_3" d="M-5.42445 25.5395 L-6.62987 26.5488 L-7.83529 27.558 L-9.0407 28.5673 L-10.2461 29.5766 L-11.4515 30.5858 L-11.7226 29.0368 L-11.9937 27.4878 L-12.2648 25.9388 L-12.5359 24.3899 L-12.807 22.8409 L-11.3305 23.3806 L-9.85401 23.9203 L-8.37749 24.4601 L-6.90097 24.9998 L-5.42445 25.5395 Z " />
<path stroke="rgb(200,255,200)" stroke-opacity="1" fill="rgb(200,255,200)" fill-opacity="1" id="tri_5_1_" d="M0.321455 30.8215 L1.48604 29.5796 L2.65063 28.3376 L3.81521 27.0957 L4.9798 25.8538 L6.14439 24.6119 L6.63722 26.2416 L7.13005 27.8712 L7.62288 29.5009 L8.11571 31.1306 L8.60854 32.7602 L6.95113 32.3725 L5.29371 31.9847 L3.63629 31.597 L1.97887 31.2092 L0.321455 30.8215 Z " />
<path stroke="rgb(200,255,200)" stroke-opacity="1" fill="rgb(200,255,200)" fill-opacity="1" id="tri_4" d="M4.67635 25.2074 L3.48866 26.3395 L2.30097 27.4717 L1.11328 28.6038 L-0.0744073 29.7359 L-1.2621 30.868 L-1.64869 29.274 L-2.03528 27.68 L-2.42187 26.086 L-2.80846 24.492 L-3.19505 22.898 L-1.62077 23.3599 L-0.0464903 23.8218 L1.52779 24.2836 L3.10207 24.7455 L4.67635 25.2074 Z " />
<path stroke="rgb(200,255,200)" stroke-opacity="1" fill="rgb(200,255,200)" fill-opacity="1" id="tri_6_1_" d="M10.227 31.0665 L11.3655 29.7281 L12.504 28.3897 L13.6425 27.0514 L14.781 25.713 L15.9196 24.3747 L16.5096 26.03 L17.0997 27.6853 L17.6898 29.3406 L18.2799 30.996 L18.8699 32.6513 L17.1413 32.3343 L15.4128 32.0174 L13.6842 31.7004 L11.9556 31.3834 L10.227 31.0665 Z " />
<path stroke="rgb(200,255,200)" stroke-opacity="1" fill="rgb(200,255,200)" fill-opacity="1" id="tri_5" d="M14.7446 24.9031 L13.5803 26.1449 L12.4161 27.3868 L11.2519 28.6286 L10.0877 29.8704 L8.92348 31.1123 L8.43065 29.4826 L7.93782 27.8529 L7.44499 26.2233 L6.95216 24.5936 L6.45933 22.9639 L8.11637 23.3518 L9.77342 23.7396 L11.4305 24.1274 L13.0875 24.5153 L14.7446 24.9031 Z " />
<path stroke="rgb(200,255,200)" stroke-opacity="1" fill="rgb(200,255,200)" fill-opacity="1" id="tri_7_1_" d="M20.1537 31.2798 L21.2657 29.858 L22.3777 28.4363 L23.4898 27.0145 L24.6018 25.5927 L25.7139 24.171 L26.3885 25.8455 L27.0632 27.52 L27.7379 29.1944 L28.4126 30.8689 L29.0872 32.5434 L27.3005 32.2907 L25.5138 32.038 L23.7271 31.7852 L21.9404 31.5325 L20.1537 31.2798 Z " />
<path stroke="rgb(200,255,200)" stroke-opacity="1" fill="rgb(200,255,200)" fill-opacity="1" id="tri_6" d="M24.792 24.6244 L23.6537 25.9628 L22.5153 27.3012 L21.377 28.6396 L20.2387 29.9779 L19.1003 31.3163 L18.5102 29.661 L17.9202 28.0057 L17.3301 26.3504 L16.74 24.695 L16.1499 23.0397 L17.8784 23.3566 L19.6068 23.6736 L21.3352 23.9905 L23.0636 24.3075 L24.792 24.6244 Z " />
<path stroke="rgb(200,255,200)" stroke-opacity="1" fill="rgb(200,255,200)" fill-opacity="1" id="tri_8_1_" d="M30.0904 31.4634 L31.1773 29.9706 L32.2643 28.4778 L33.3512 26.9851 L34.4381 25.4923 L35.525 23.9995 L36.2741 25.6875 L37.0233 27.3755 L37.7724 29.0634 L38.5215 30.7514 L39.2706 32.4394 L37.4345 32.2442 L35.5985 32.049 L33.7625 31.8538 L31.9264 31.6586 L30.0904 31.4634 Z " />
<path stroke="rgb(200,255,200)" stroke-opacity="1" fill="rgb(200,255,200)" fill-opacity="1" id="tri_7" d="M34.8174 24.3754 L33.7051 25.7975 L32.5928 27.2196 L31.4806 28.6417 L30.3683 30.0638 L29.256 31.4859 L28.5813 29.8114 L27.9067 28.1369 L27.232 26.4624 L26.5573 24.7879 L25.8826 23.1134 L27.6696 23.3658 L29.4565 23.6182 L31.2435 23.8706 L33.0304 24.123 L34.8174 24.3754 Z " />
<path stroke="rgb(200,255,200)" stroke-opacity="1" fill="rgb(200,255,200)" fill-opacity="1" id="tri_9" d="M40.0424 31.6144 L41.1061 30.0633 L42.1698 28.5122 L43.2334 26.9611 L44.2971 25.4101 L45.3608 23.859 L46.172 25.5556 L46.9832 27.2522 L47.7944 28.9488 L48.6056 30.6455 L49.4168 32.3421 L47.5419 32.1965 L45.667 32.051 L43.7922 31.9055 L41.9173 31.7599 L40.0424 31.6144 Z " />
<path stroke="rgb(200,255,200)" stroke-opacity="1" fill="rgb(200,255,200)" fill-opacity="1" id="tri_8" d="M44.8304 24.1595 L43.7435 25.6519 L42.6566 27.1443 L41.5697 28.6367 L40.4828 30.1291 L39.396 31.6215 L38.6469 29.9335 L37.8978 28.2456 L37.1486 26.5576 L36.3995 24.8696 L35.6504 23.1816 L37.4864 23.3772 L39.3224 23.5728 L41.1584 23.7683 L42.9944 23.9639 L44.8304 24.1595 Z " />
</g>
</g>
</svg>
