<!DOCTYPE svg>
<svg xmlns="http://www.w3.org/2000/svg" xmlns:xlink="http://www.w3.org/1999/xlink" width="600" height="600">
<g transform="translate(300.000000,300.000000)">
<g transform="scale(3.000000,3.000000)">
<path stroke="rgb(0,0,0)" stroke-opacity="1" fill="rgb(255,255,255)" fill-opacity="1" id="Layer_1" d="M107.411 107.089 L105.406 107.092 L103.402 107.095 L101.397 107.098 L99.3922 107.101 L97.3875 107.104 L95.3828 107.107 L93.3782 107.11 L91.3735 107.113 L89.3688 107.116 L87.3641 107.119 L85.3595 107.122 L83.3548 107.125 L81.3501 107.128 L79.3455 107.131 L77.3408 107.134 L75.3361 107.137 L73.3314 107.14 L71.3268 107.143 L69.3221 107.146 L67.3174 107.149 L65.3127 107.152 L63.3081 107.155 L61.3034 107.158 L59.2987 107.161 L57.2941 107.164 L55.2894 107.167 L53.2847 107.17 L51.28 107.173 L49.2754 107.176 L47.2707 107.179 L45.266 107.182 L43.2613 107.185 L41.2567 107.188 L39.252 107.191 L37.2473 107.194 L35.2426 107.197 L33.238 107.2 L31.2333 107.203 L29.2286 107.206 L27.224 107.209 L25.2193 107.212 L23.2146 107.215 L21.2099 107.218 L19.2053 107.221 L17.2006 107.224 L15.1959 107.227 L13.1912 107.23 L11.1866 107.233 L9.1819 107.236 L7.17723 107.239 L5.17256 107.242 L3.16788 107.245 L1.16321 107.248 L-0.841463 107.252 L-2.84614 107.255 L-4.85081 107.258 L-6.85548 107.261 L-8.86015 107.264 L-10.8648 107.267 L-12.8695 107.27 L-14.8742 107.273 L-16.8788 107.276 L-18.8835 107.279 L-20.8882 107.282 L-22.8929 107.285 L-24.8975 107.288 L-26.9022 107.291 L-28.9069 107.294 L-30.9116 107.297 L-32.9162 107.3 L-34.9209 107.303 L-36.9256 107.306 L-38.9302 107.309 L-40.9349 107.312 L-42.9396 107.315 L-44.9443 107.318 L-46.9489 107.321 L-48.9536 107.324 L-50.9583 107.327 L-52.963 107.33 L-54.9676 107.333 L-56.9723 107.336 L-58.977 107.339 L-60.9816 107.342 L-62.9863 107.345 L-64.991 107.348 L-66.9957 107.351 L-69.0003 107.354 L-71.005 107.357 L-73.0097 107.36 L-75.0144 107.363 L-77.019 107.366 L-79.0237 107.369 L-81.0284 107.372 L-83.0331 107.375 L-85.0377 107.378 L-87.0424 107.381 L-89.0471 107.384 L-91.0517 107.387 L-93.0564 107.39 L-95.0611 107.393 L-97.0658 107.396 L-99.0704 107.399 L-101.075 107.402 L-103.08 107.405 L-105.084 107.408 L-107.089 107.411 L-107.092 105.406 L-107.095 103.402 L-107.098 101.397 L-107.101 99.3922 L-107.104 97.3875 L-107.107 95.3828 L-107.11 93.3782 L-107.113 91.3735 L-107.116 89.3688 L-107.119 87.3641 L-107.122 85.3595 L-107.125 83.3548 L-107.128 81.3501 L-107.131 79.3455 L-107.134 77.3408 L-107.137 75.3361 L-107.14 73.3314 L-107.143 71.3268 L-107.146 69.3221 L-107.149 67.3174 L-107.152 65.3127 L-107.155 63.3081 L-107.158 61.3034 L-107.161 59.2987 L-107.164 57.2941 L-107.167 55.2894 L-107.17 53.2847 L-107.173 51.28 L-107.176 49.2754 L-107.179 47.2707 L-107.182 45.266 L-107.185 43.2613 L-107.188 41.2567 L-107.191 39.252 L-107.194 37.2473 L-107.197 35.2426 L-107.2 33.238 L-107.203 31.2333 L-107.206 29.2286 L-107.209 27.224 L-107.212 25.2193 L-107.215 23.2146 L-107.218 21.2099 L-107.221 19.2053 L-107.224 17.2006 L-107.227 15.1959 L-107.23 13.1912 L-107.233 11.1866 L-107.236 9.1819 L-107.239 7.17722 L-107.242 5.17255 L-107.245 3.16788 L-107.248 1.1632 L-107.251 -0.841469 L-107.255 -2.84614 L-107.258 -4.85081 L-107.261 -6.85549 L-107.264 -8.86016 L-107.267 -10.8648 L-107.27 -12.8695 L-107.273 -14.8742 L-107.276 -16.8789 L-107.279 -18.8835 L-107.282 -20.8882 L-107.285 -22.8929 L-107.288 -24.8975 L-107.291 -26.9022 L-107.294 -28.9069 L-107.297 -30.9116 L-107.3 -32.9162 L-107.303 -34.9209 L-107.306 -36.9256 L-107.309 -38.9303 L-107.312 -40.9349 L-107.315 -42.9396 L-107.318 -44.9443 L-107.321 -46.9489 L-107.324 -48.9536 L-107.327 -50.9583 L-107.33 -52.963 L-107.333 -54.9676 L-107.336 -56.9723 L-107.339 -58.977 L-107.342 -60.9817 L-107.345 -62.9863 L-107.348 -64.991 L-107.351 -66.9957 L-107.354 -69.0003 L-107.357 -71.005 L-107.36 -73.0097 L-107.363 -75.0144 L-107.366 -77.019 L-107.369 -79.0237 L-107.372 -81.0284 L-107.375 -83.0331 L-107.378 -85.0377 L-107.381 -87.0424 L-107.384 -89.0471 L-107.387 -91.0518 L-107.39 -93.0564 L-107.393 -95.0611 L-107.396 -97.0658 L-107.399 -99.0704 L-107.402 -101.075 L-107.405 -103.08 L-107.408 -105.084 L-107.411 -107.089 L-105.406 -107.092 L-103.402 -107.095 L-101.397 -107.098 L-99.3922 -107.101 L-97.3875 -107.104 L-95.3828 -107.107 L-93.3782 -107.11 L-91.3735 -107.113 L-89.3688 -107.116 L-87.3641 -107.119 L-85.3595 -107.122 L-83.3548 -107.125 L-81.3501 -107.128 L-79.3455 -107.131 L-77.3408 -107.134 L-75.3361 -107.137 L-73.3314 -107.14 L-71.3268 -107.143 L-69.3221 -107.146 L-67.3174 -107.149 L-65.3127 -107.152 L-63.3081 -107.155 L-61.3034 -107.158 L-59.2987 -107.161 L-57.2941 -107.164 L-55.2894 -107.167 L-53.2847 -107.17 L-51.28 -107.173 L-49.2754 -107.176 L-47.2707 -107.179 L-45.266 -107.182 L-43.2613 -107.185 L-41.2567 -107.188 L-39.252 -107.191 L-37.2473 -107.194 L-35.2426 -107.197 L-33.238 -107.2 L-31.2333 -107.203 L-29.2286 -107.206 L-27.224 -107.209 L-25.2193 -107.212 L-23.2146 -107.215 L-21.2099 -107.218 L-19.2053 -107.221 L-17.2006 -107.224 L-15.1959 -107.227 L-13.1912 -107.23 L-11.1866 -107.233 L-9.1819 -107.236 L-7.17723 -107.239 L-5.17256 -107.242 L-3.16788 -107.245 L-1.16321 -107.248 L0.841463 -107.252 L2.84614 -107.255 L4.85081 -107.258 L6.85548 -107.261 L8.86015 -107.264 L10.8648 -107.267 L12.8695 -107.27 L14.8742 -107.273 L16.8788 -107.276 L18.8835 -107.279 L20.8882 -107.282 L22.8929 -107.285 L24.8975 -107.288 L26.9022 -107.291 L28.9069 -107.294 L30.9116 -107.297 L32.9162 -107.3 L34.9209 -107.303 L36.9256 -107.306 L38.9302 -107.309 L40.9349 -107.312 L42.9396 -107.315 L44.9443 -107.318 L46.9489 -107.321 L48.9536 -107.324 L50.9583 -107.327 L52.963 -107.33 L54.9676 -107.333 L56.9723 -107.336 L58.977 -107.339 L60.9816 -107.342 L62.9863 -107.345 L64.991 -107.348 L66.9957 -107.351 L69.0003 -107.354 L71.005 -107.357 L73.0097 -107.36 L75.0144 -107.363 L77.019 -107.366 L79.0237 -107.369 L81.0284 -107.372 L83.0331 -107.375 L85.0377 -107.378 L87.0424 -107.381 L89.0471 -107.384 L91.0517 -107.387 L93.0564 -107.39 L95.0611 -107.393 L97.0658 -107.396 L99.0704 -107.399 L101.075 -107.402 L103.08 -107.405 L105.084 -107.408 L107.089 -107.411 L107.092 -105.406 L107.095 -103.402 L107.098 -101.397 L107.101 -99.3922 L107.104 -97.3875 L107.107 -95.3828 L107.11 -93.3782 L107.113 -91.3735 L107.116 -89.3688 L107.119 -87.3642 L107.122 -85.3595 L107.125 -83.3548 L107.128 -81.3501 L107.131 -79.3455 L107.134 -77.3408 L107.137 -75.3361 L107.14 -73.3314 L107.143 -71.3268 L107.146 -69.3221 L107.149 -67.3174 L107.152 -65.3128 L107.155 -63.3081 L107.158 -61.3034 L107.161 -59.2987 L107.164 -57.2941 L107.167 -55.2894 L107.17 -53.2847 L107.173 -51.28 L107.176 -49.2754 L107.179 -47.2707 L107.182 -45.266 L107.185 -43.2613 L107.188 -41.2567 L107.191 -39.252 L107.194 -37.2473 L107.197 -35.2427 L107.2 -33.238 L107.203 -31.2333 L107.206 -29.2286 L107.209 -27.224 L107.212 -25.2193 L107.215 -23.2146 L107.218 -21.2099 L107.221 -19.2053 L107.224 -17.2006 L107.227 -15.1959 L107.23 -13.1913 L107.233 -11.1866 L107.236 -9.18191 L107.239 -7.17724 L107.242 -5.17256 L107.245 -3.16789 L107.248 -1.16322 L107.251 0.841455 L107.255 2.84613 L107.258 4.8508 L107.261 6.85547 L107.264 8.86015 L107.267 10.8648 L107.27 12.8695 L107.273 14.8742 L107.276 16.8788 L107.279 18.8835 L107.282 20.8882 L107.285 22.8929 L107.288 24.8975 L107.291 26.9022 L107.294 28.9069 L107.297 30.9115 L107.3 32.9162 L107.303 34.9209 L107.306 36.9256 L107.309 38.9302 L107.312 40.9349 L107.315 42.9396 L107.318 44.9443 L107.321 46.9489 L107.324 48.9536 L107.327 50.9583 L107.33 52.963 L107.333 54.9676 L107.336 56.9723 L107.339 58.977 L107.342 60.9816 L107.345 62.9863 L107.348 64.991 L107.351 66.9957 L107.354 69.0003 L107.357 71.005 L107.36 73.0097 L107.363 75.0144 L107.366 77.019 L107.369 79.0237 L107.372 81.0284 L107.375 83.033 L107.378 85.0377 L107.381 87.0424 L107.384 89.0471 L107.387 91.0517 L107.39 93.0564 L107.393 95.0611 L107.396 97.0658 L107.399 99.0704 L107.402 101.075 L107.405 103.08 L107.408 105.084 L107.411 107.089 Z " />
<path stroke="rgb(169,255,187)" stroke-opacity="1" fill="rgb(169,255,187)" fill-opacity="1" id="scalebar" d="M-3.69904 -94.609 L-1.65554 -94.609 L0.387962 -94.609 L2.43146 -94.609 L4.47496 -94.609 L4.47496 -92.6686 L4.47496 -90.7281 L4.47496 -88.7876 L4.47496 -86.8472 L4.47496 -84.9067 L4.47496 -82.9663 L4.47496 -81.0258 L4.47496 -79.0853 L4.47496 -77.1449 L4.47496 -75.2044 L4.47496 -73.2639 L4.47496 -71.3235 L4.47496 -69.383 L2.43146 -69.383 L0.387962 -69.383 L-1.65554 -69.383 L-3.69904 -69.383 L-3.69904 -71.3235 L-3.69904 -73.2639 L-3.69904 -75.2044 L-3.69904 -77.1449 L-3.69904 -79.0853 L-3.69904 -81.0258 L-3.69904 -82.9663 L-3.69904 -84.9067 L-3.69904 -86.8472 L-3.69904 -88.7876 L-3.69904 -90.7281 L-3.69904 -92.6686 L-3.69904 -94.609 Z " />
<path stroke="rgb(200,255,200)" stroke-opacity="1" fill="rgb(200,255,200)" fill-opacity="1" id="scaleslider" d="M-6.69904 -81.4265 L-4.67418 -81.4265 L-2.64932 -81.4265 L-0.624466 -81.4265 L1.40039 -81.4265 L3.42525 -81.4265 L5.4501 -81.4265 L7.47496 -81.4265 L7.47496 -79.6999 L7.47496 -77.9732 L7.47496 -76.2465 L5.4501 -76.2465 L3.42525 -76.2465 L1.40039 -76.2465 L-0.624466 -76.2465 L-2.64932 -76.2465 L-4.67418 -76.2465 L-6.69904 -76.2465 L-6.69904 -77.9732 L-6.69904 -79.6999 L-6.69904 -81.4265 Z " />
<path stroke="rgb(255,134,106)" stroke-opacity="1" fill="rgb(255,134,106)" fill-opacity="1" id="tranbar" d="M-49.142 -86.146 L-47.0675 -86.146 L-44.993 -86.146 L-42.9185 -86.146 L-40.844 -86.146 L-40.844 -88.2208 L-40.844 -90.2955 L-40.844 -92.3703 L-40.844 -94.445 L-38.7685 -94.445 L-36.693 -94.445 L-34.6175 -94.445 L-32.542 -94.445 L-32.542 -92.3703 L-32.542 -90.2955 L-32.542 -88.2208 L-32.542 -86.146 L-30.4673 -86.146 L-28.3925 -86.146 L-26.3178 -86.146 L-24.243 -86.146 L-24.243 -84.0715 L-24.243 -81.997 L-24.243 -79.9225 L-24.243 -77.848 L-26.3178 -77.848 L-28.3925 -77.848 L-30.4673 -77.848 L-32.542 -77.848 L-32.542 -75.773 L-32.542 -73.698 L-32.542 -71.623 L-32.542 -69.548 L-34.6175 -69.548 L-36.693 -69.548 L-38.7685 -69.548 L-40.844 -69.548 L-40.844 -71.623 L-40.844 -73.698 L-40.844 -75.773 L-40.844 -77.848 L-42.9185 -77.848 L-44.993 -77.848 L-47.0675 -77.848 L-49.142 -77.848 L-49.142 -79.9225 L-49.142 -81.997 L-49.142 -84.0715 L-49.142 -86.146 Z " />
<path stroke="rgb(255,250,159)" stroke-opacity="1" fill="rgb(255,250,159)" fill-opacity="1" id="translider" d="M-39.248 -84.553 L-37.5447 -84.553 L-35.8414 -84.553 L-34.138 -84.553 L-34.138 -82.85 L-34.138 -81.147 L-34.138 -79.444 L-35.8414 -79.444 L-37.5447 -79.444 L-39.248 -79.444 L-39.248 -81.147 L-39.248 -82.85 L-39.248 -84.553 Z " />
<path stroke="rgb(254,204,128)" stroke-opacity="1" fill="rgb(254,204,128)" fill-opacity="1" id="rotate" d="M39.2682 -72.6327 L37.4386 -73.2221 L35.609 -73.8114 L33.7794 -74.4008 L31.9497 -74.9901 L30.1201 -75.5795 L29.7159 -77.4589 L29.3117 -79.3383 L28.9075 -81.2177 L28.5034 -83.0971 L28.0992 -84.9765 L29.5247 -86.2664 L30.9503 -87.5563 L32.3759 -88.8462 L33.8015 -90.1361 L35.2271 -91.426 L37.0568 -90.8366 L38.8866 -90.2471 L40.7163 -89.6576 L42.5461 -89.0681 L44.3759 -88.4786 L44.7799 -86.5993 L45.184 -84.7201 L45.588 -82.8408 L45.9921 -80.9616 L46.3961 -79.0823 L44.9705 -77.7924 L43.545 -76.5025 L42.1194 -75.2126 L40.6938 -73.9227 L39.2682 -72.6327 Z " />
<path stroke="rgb(200,255,200)" stroke-opacity="1" fill="rgb(200,255,200)" fill-opacity="1" id="tri_0" d="M-4.92816 -46.1226 L-3.84981 -47.6392 L-2.77147 -49.1559 L-1.69312 -50.6725 L-0.614772 -52.1891 L0.463573 -53.7058 L1.23732 -52.0158 L2.01107 -50.3258 L2.78482 -48.6359 L3.55857 -46.9459 L4.33231 -45.2559 L2.48022 -45.4292 L0.628125 -45.6026 L-1.22397 -45.7759 L-3.07606 -45.9492 L-4.92816 -46.1226 Z " />
<path stroke="rgb(200,255,200)" stroke-opacity="1" fill="rgb(200,255,200)" fill-opacity="1" id="tri_0_18_" d="M-9.90099 -37.488 L-8.82357 -39.0047 L-7.74616 -40.5215 L-6.66874 -42.0382 L-5.59132 -43.5549 L-4.51391 -45.0716 L-3.7398 -43.3814 L-2.9657 -41.6913 L-2.1916 -40.0011 L-1.41749 -38.3109 L-0.643393 -36.6207 L-2.49491 -36.7941 L-4.34643 -36.9676 L-6.19795 -37.1411 L-8.04947 -37.3145 L-9.90099 -37.488 Z " />
<path stroke="rgb(200,255,200)" stroke-opacity="1" fill="rgb(200,255,200)" fill-opacity="1" id="tri_1_16_" d="M0.097611 -37.6895 L1.20029 -39.1383 L2.30296 -40.5871 L3.40564 -42.0358 L4.50831 -43.4846 L5.61099 -44.9334 L6.31366 -43.2557 L7.01634 -41.578 L7.71901 -39.9003 L8.42169 -38.2226 L9.12436 -36.5448 L7.31901 -36.7738 L5.51366 -37.0027 L3.70831 -37.2316 L1.90296 -37.4605 L0.097611 -37.6895 Z " />
<path stroke="rgb(200,255,200)" stroke-opacity="1" fill="rgb(200,255,200)" fill-opacity="1" id="tri_0_17_" d="M4.85625 -44.9275 L3.77826 -43.4106 L2.70027 -41.8938 L1.62228 -40.3769 L0.544285 -38.8601 L-0.533708 -37.3432 L-1.30781 -39.0334 L-2.08191 -40.7236 L-2.85602 -42.4138 L-3.63012 -44.104 L-4.40422 -45.7942 L-2.55213 -45.6208 L-0.700031 -45.4475 L1.15206 -45.2742 L3.00416 -45.1008 L4.85625 -44.9275 Z " />
<path stroke="rgb(200,255,200)" stroke-opacity="1" fill="rgb(200,255,200)" fill-opacity="1" id="tri_0_16_" d="M-14.8776 -28.8509 L-13.7994 -30.3681 L-12.7211 -31.8853 L-11.6429 -33.4026 L-10.5647 -34.9198 L-9.4865 -36.437 L-8.71266 -34.7461 L-7.93881 -33.0551 L-7.16497 -31.3642 L-6.39113 -29.6733 L-5.61728 -27.9824 L-7.46934 -28.1561 L-9.3214 -28.3298 L-11.1735 -28.5035 L-13.0255 -28.6772 L-14.8776 -28.8509 Z " />
<path stroke="rgb(200,255,200)" stroke-opacity="1" fill="rgb(200,255,200)" fill-opacity="1" id="tri_1_15_" d="M-4.87627 -29.0511 L-3.77389 -30.5005 L-2.67151 -31.9499 L-1.56912 -33.3993 L-0.466736 -34.8486 L0.635648 -36.298 L1.33843 -34.6197 L2.04122 -32.9415 L2.744 -31.2632 L3.44679 -29.5849 L4.14957 -27.9066 L2.3444 -28.1355 L0.539235 -28.3644 L-1.26594 -28.5933 L-3.07111 -28.8222 L-4.87627 -29.0511 Z " />
<path stroke="rgb(200,255,200)" stroke-opacity="1" fill="rgb(200,255,200)" fill-opacity="1" id="tri_0_15_" d="M-0.119262 -36.2923 L-1.19694 -34.7748 L-2.27461 -33.2573 L-3.35229 -31.7399 L-4.42996 -30.2224 L-5.50764 -28.705 L-6.28148 -30.3959 L-7.05532 -32.0868 L-7.82917 -33.7777 L-8.60301 -35.4687 L-9.37686 -37.1596 L-7.52534 -36.9861 L-5.67382 -36.8127 L-3.8223 -36.6392 L-1.97078 -36.4657 L-0.119262 -36.2923 Z " />
<path stroke="rgb(200,255,200)" stroke-opacity="1" fill="rgb(200,255,200)" fill-opacity="1" id="tri_2_14_" d="M5.13657 -29.2819 L6.26501 -30.6512 L7.39346 -32.0206 L8.52191 -33.39 L9.65035 -34.7594 L10.7788 -36.1288 L11.3991 -34.4679 L12.0194 -32.8071 L12.6396 -31.1463 L13.2599 -29.4855 L13.8802 -27.8247 L12.1315 -28.1161 L10.3827 -28.4076 L8.63402 -28.699 L6.88529 -28.9904 L5.13657 -29.2819 Z " />
<path stroke="rgb(200,255,200)" stroke-opacity="1" fill="rgb(200,255,200)" fill-opacity="1" id="tri_1_14_" d="M9.81292 -36.1075 L8.71035 -34.6582 L7.60779 -33.2088 L6.50522 -31.7595 L5.40266 -30.3101 L4.30009 -28.8608 L3.59731 -30.539 L2.89452 -32.2173 L2.19174 -33.8956 L1.48895 -35.5739 L0.786166 -37.2522 L2.59152 -37.0232 L4.39687 -36.7943 L6.20222 -36.5654 L8.00757 -36.3365 L9.81292 -36.1075 Z " />
<path stroke="rgb(200,255,200)" stroke-opacity="1" fill="rgb(200,255,200)" fill-opacity="1" id="tri_0_14_" d="M-19.8534 -20.2125 L-18.7754 -21.73 L-17.6973 -23.2474 L-16.6193 -24.7648 L-15.5413 -26.2822 L-14.4632 -27.7996 L-13.6897 -26.1089 L-12.9162 -24.4182 L-12.1427 -22.7275 L-11.3692 -21.0368 L-10.5957 -19.3461 L-12.4473 -19.5194 L-14.2988 -19.6927 L-16.1504 -19.866 L-18.0019 -20.0393 L-19.8534 -20.2125 Z " />
<path stroke="rgb(200,255,200)" stroke-opacity="1" fill="rgb(200,255,200)" fill-opacity="1" id="tri_1_13_" d="M-9.85466 -20.4151 L-8.75141 -21.864 L-7.64817 -23.3129 L-6.54493 -24.7618 L-5.44169 -26.2107 L-4.33844 -27.6596 L-3.63577 -25.9819 L-2.93309 -24.3042 L-2.23042 -22.6265 L-1.52774 -20.9487 L-0.82507 -19.271 L-2.63099 -19.4998 L-4.4369 -19.7287 L-6.24282 -19.9575 L-8.04874 -20.1863 L-9.85466 -20.4151 Z " />
<path stroke="rgb(200,255,200)" stroke-opacity="1" fill="rgb(200,255,200)" fill-opacity="1" id="tri_0_13_" d="M-5.09321 -27.6538 L-6.17178 -26.1368 L-7.25035 -24.6198 L-8.32891 -23.1028 L-9.40748 -21.5858 L-10.486 -20.0688 L-11.2595 -21.7595 L-12.033 -23.4502 L-12.8065 -25.1409 L-13.58 -26.8316 L-14.3535 -28.5223 L-12.5014 -28.3486 L-10.6494 -28.1749 L-8.79733 -28.0012 L-6.94527 -27.8275 L-5.09321 -27.6538 Z " />
<path stroke="rgb(200,255,200)" stroke-opacity="1" fill="rgb(200,255,200)" fill-opacity="1" id="tri_2_13_" d="M0.16207 -20.6464 L1.29043 -22.0152 L2.41878 -23.3841 L3.54714 -24.7529 L4.6755 -26.1218 L5.80385 -27.4906 L6.42419 -25.8302 L7.04453 -24.1697 L7.66487 -22.5093 L8.28521 -20.8488 L8.90554 -19.1883 L7.15685 -19.4799 L5.40815 -19.7715 L3.65946 -20.0632 L1.91077 -20.3548 L0.16207 -20.6464 Z " />
<path stroke="rgb(200,255,200)" stroke-opacity="1" fill="rgb(200,255,200)" fill-opacity="1" id="tri_1_12_" d="M4.83815 -27.4693 L3.73566 -26.0205 L2.63316 -24.5717 L1.53067 -23.1229 L0.428172 -21.6741 L-0.674323 -20.2253 L-1.377 -21.903 L-2.07967 -23.5807 L-2.78235 -25.2584 L-3.48502 -26.9361 L-4.1877 -28.6139 L-2.38253 -28.385 L-0.577357 -28.156 L1.22781 -27.9271 L3.03298 -27.6982 L4.83815 -27.4693 Z " />
<path stroke="rgb(200,255,200)" stroke-opacity="1" fill="rgb(200,255,200)" fill-opacity="1" id="tri_3_12_" d="M10.1909 -20.9042 L11.3449 -22.1809 L12.499 -23.4577 L13.653 -24.7344 L14.807 -26.0111 L15.9611 -27.2879 L16.4894 -25.6519 L17.0177 -24.016 L17.5461 -22.38 L18.0744 -20.744 L18.6027 -19.1081 L16.9204 -19.4673 L15.238 -19.8265 L13.5556 -20.1857 L11.8732 -20.5449 L10.1909 -20.9042 Z " />
<path stroke="rgb(200,255,200)" stroke-opacity="1" fill="rgb(200,255,200)" fill-opacity="1" id="tri_2_12_" d="M14.7551 -27.2543 L13.6267 -25.8853 L12.4983 -24.5163 L11.3699 -23.1472 L10.2415 -21.7782 L9.11316 -20.4092 L8.49282 -22.0696 L7.87248 -23.7301 L7.25215 -25.3906 L6.63181 -27.051 L6.01147 -28.7115 L7.7602 -28.4201 L9.50892 -28.1286 L11.2576 -27.8372 L13.0064 -27.5458 L14.7551 -27.2543 Z " />
<path stroke="rgb(200,255,200)" stroke-opacity="1" fill="rgb(200,255,200)" fill-opacity="1" id="tri_0_12_" d="M-24.8278 -11.58 L-23.7501 -13.0963 L-22.6723 -14.6126 L-21.5946 -16.129 L-20.5168 -17.6453 L-19.4391 -19.1616 L-18.6652 -17.4712 L-17.8913 -15.7809 L-17.1174 -14.0905 L-16.3435 -12.4002 L-15.5696 -10.7098 L-17.4212 -10.8838 L-19.2729 -11.0579 L-21.1245 -11.2319 L-22.9762 -11.406 L-24.8278 -11.58 Z " />
<path stroke="rgb(200,255,200)" stroke-opacity="1" fill="rgb(200,255,200)" fill-opacity="1" id="tri_1_11_" d="M-14.8286 -11.7784 L-13.7262 -13.2274 L-12.6239 -14.6764 L-11.5216 -16.1255 L-10.4192 -17.5745 L-9.31688 -19.0235 L-8.61405 -17.3456 L-7.91122 -15.6677 L-7.20838 -13.9897 L-6.50555 -12.3118 L-5.80272 -10.6339 L-7.60789 -10.8628 L-9.41306 -11.0917 L-11.2182 -11.3206 L-13.0234 -11.5495 L-14.8286 -11.7784 Z " />
<path stroke="rgb(200,255,200)" stroke-opacity="1" fill="rgb(200,255,200)" fill-opacity="1" id="tri_0_11_" d="M-10.0717 -19.0176 L-11.1493 -17.5005 L-12.2269 -15.9835 L-13.3046 -14.4664 L-14.3822 -12.9493 L-15.4599 -11.4322 L-16.2338 -13.1226 L-17.0076 -14.8129 L-17.7815 -16.5033 L-18.5554 -18.1937 L-19.3293 -19.884 L-17.4778 -19.7107 L-15.6263 -19.5375 L-13.7747 -19.3642 L-11.9232 -19.1909 L-10.0717 -19.0176 Z " />
<path stroke="rgb(200,255,200)" stroke-opacity="1" fill="rgb(200,255,200)" fill-opacity="1" id="tri_2_11_" d="M-4.81569 -12.0094 L-3.68675 -13.3785 L-2.5578 -14.7477 L-1.42886 -16.1168 L-0.299921 -17.4859 L0.82902 -18.855 L1.44904 -17.1948 L2.06905 -15.5345 L2.68907 -13.8743 L3.30909 -12.2141 L3.92911 -10.5539 L2.18015 -10.845 L0.43119 -11.1361 L-1.31777 -11.4272 L-3.06673 -11.7183 L-4.81569 -12.0094 Z " />
<path stroke="rgb(200,255,200)" stroke-opacity="1" fill="rgb(200,255,200)" fill-opacity="1" id="tri_1_10_" d="M-0.136629 -18.8337 L-1.23971 -17.3846 L-2.3428 -15.9355 L-3.44588 -14.4864 L-4.54897 -13.0372 L-5.65205 -11.5881 L-6.35488 -13.2661 L-7.05772 -14.944 L-7.76055 -16.6219 L-8.46338 -18.2998 L-9.16622 -19.9777 L-7.3603 -19.7489 L-5.55438 -19.5201 L-3.74846 -19.2913 L-1.94255 -19.0625 L-0.136629 -18.8337 Z " />
<path stroke="rgb(200,255,200)" stroke-opacity="1" fill="rgb(200,255,200)" fill-opacity="1" id="tri_3_11_" d="M5.21463 -12.2697 L6.36893 -13.546 L7.52324 -14.8223 L8.67754 -16.0987 L9.83185 -17.375 L10.9862 -18.6513 L11.5141 -17.0151 L12.042 -15.3789 L12.5699 -13.7426 L13.0978 -12.1064 L13.6258 -10.4702 L11.9435 -10.8301 L10.2613 -11.19 L8.57908 -11.5499 L6.89686 -11.9098 L5.21463 -12.2697 Z " />
<path stroke="rgb(200,255,200)" stroke-opacity="1" fill="rgb(200,255,200)" fill-opacity="1" id="tri_2_10_" d="M9.78019 -18.618 L8.65152 -17.2494 L7.52284 -15.8808 L6.39416 -14.5121 L5.26548 -13.1435 L4.13681 -11.7749 L3.51679 -13.4351 L2.89677 -15.0954 L2.27675 -16.7556 L1.65674 -18.4158 L1.03672 -20.0761 L2.78541 -19.7844 L4.53411 -19.4928 L6.2828 -19.2012 L8.0315 -18.9096 L9.78019 -18.618 Z " />
<path stroke="rgb(200,255,200)" stroke-opacity="1" fill="rgb(200,255,200)" fill-opacity="1" id="tri_4_10_" d="M15.2692 -12.5589 L16.4476 -13.7296 L17.626 -14.9002 L18.8045 -16.0709 L19.9829 -17.2415 L21.1614 -18.4122 L21.585 -16.8079 L22.0087 -15.2036 L22.4324 -13.5993 L22.856 -11.995 L23.2797 -10.3907 L21.6776 -10.8243 L20.0755 -11.258 L18.4734 -11.6916 L16.8713 -12.1253 L15.2692 -12.5589 Z " />
<path stroke="rgb(200,255,200)" stroke-opacity="1" fill="rgb(200,255,200)" fill-opacity="1" id="tri_3_10_" d="M19.6833 -18.3778 L18.5288 -17.1007 L17.3744 -15.8237 L16.2199 -14.5467 L15.0655 -13.2697 L13.911 -11.9927 L13.3831 -13.629 L12.8552 -15.2652 L12.3272 -16.9014 L11.7993 -18.5376 L11.2714 -20.1739 L12.9538 -19.8146 L14.6361 -19.4554 L16.3185 -19.0962 L18.0009 -18.737 L19.6833 -18.3778 Z " />
<path stroke="rgb(200,255,200)" stroke-opacity="1" fill="rgb(200,255,200)" fill-opacity="1" id="tri_0_10_" d="M-29.8037 -2.94188 L-28.7256 -4.4593 L-27.6476 -5.97672 L-26.5695 -7.49413 L-25.4915 -9.01155 L-24.4134 -10.529 L-23.6396 -8.83767 L-22.8658 -7.14638 L-22.092 -5.4551 L-21.3182 -3.76381 L-20.5444 -2.07252 L-22.3962 -2.24639 L-24.2481 -2.42026 L-26.1 -2.59414 L-27.9518 -2.76801 L-29.8037 -2.94188 Z " />
<path stroke="rgb(200,255,200)" stroke-opacity="1" fill="rgb(200,255,200)" fill-opacity="1" id="tri_1_9_" d="M-19.8033 -3.14118 L-18.7008 -4.59035 L-17.5982 -6.03953 L-16.4957 -7.4887 L-15.3931 -8.93788 L-14.2906 -10.3871 L-13.5879 -8.70916 L-12.8853 -7.03126 L-12.1826 -5.35336 L-11.48 -3.67546 L-10.7773 -1.99757 L-12.5825 -2.22629 L-14.3877 -2.45501 L-16.1929 -2.68373 L-17.9981 -2.91245 L-19.8033 -3.14118 Z " />
<path stroke="rgb(200,255,200)" stroke-opacity="1" fill="rgb(200,255,200)" fill-opacity="1" id="tri_0_9_" d="M-15.0455 -10.3813 L-16.1233 -8.86406 L-17.2012 -7.34681 L-18.279 -5.82956 L-19.3568 -4.31231 L-20.4347 -2.79507 L-21.2085 -4.48636 L-21.9823 -6.17764 L-22.7561 -7.86893 L-23.5299 -9.56022 L-24.3037 -11.2515 L-22.4521 -11.0775 L-20.6004 -10.9034 L-18.7488 -10.7294 L-16.8971 -10.5553 L-15.0455 -10.3813 Z " />
<path stroke="rgb(200,255,200)" stroke-opacity="1" fill="rgb(200,255,200)" fill-opacity="1" id="tri_2_9_" d="M-9.7904 -3.37297 L-8.66202 -4.742 L-7.53363 -6.11103 L-6.40524 -7.48005 L-5.27686 -8.84908 L-4.14847 -10.2181 L-3.52772 -8.55794 L-2.90697 -6.89777 L-2.28623 -5.2376 L-1.66548 -3.57743 L-1.04473 -1.91726 L-2.79387 -2.2084 L-4.543 -2.49954 L-6.29213 -2.79068 L-8.04127 -3.08183 L-9.7904 -3.37297 Z " />
<path stroke="rgb(200,255,200)" stroke-opacity="1" fill="rgb(200,255,200)" fill-opacity="1" id="tri_1_8_" d="M-5.11418 -10.1967 L-6.21669 -8.74766 L-7.31921 -7.29867 L-8.42173 -5.84967 L-9.52425 -4.40068 L-10.6268 -2.95168 L-11.3294 -4.62958 L-12.0321 -6.30748 L-12.7347 -7.98538 L-13.4374 -9.66327 L-14.14 -11.3412 L-12.3349 -11.1123 L-10.5297 -10.8834 L-8.72451 -10.6545 L-6.91934 -10.4256 L-5.11418 -10.1967 Z " />
<path stroke="rgb(200,255,200)" stroke-opacity="1" fill="rgb(200,255,200)" fill-opacity="1" id="tri_3_9_" d="M0.240483 -3.63313 L1.39435 -4.90991 L2.54823 -6.18669 L3.7021 -7.46347 L4.85597 -8.74025 L6.00984 -10.017 L6.53773 -8.38063 L7.06561 -6.74423 L7.5935 -5.10784 L8.12138 -3.47144 L8.64927 -1.83505 L6.96751 -2.19466 L5.28575 -2.55428 L3.604 -2.9139 L1.92224 -3.27352 L0.240483 -3.63313 Z " />
<path stroke="rgb(200,255,200)" stroke-opacity="1" fill="rgb(200,255,200)" fill-opacity="1" id="tri_2_8_" d="M4.80382 -9.98358 L3.67561 -8.61452 L2.5474 -7.24546 L1.41919 -5.87641 L0.290976 -4.50735 L-0.837234 -3.13829 L-1.45798 -4.79846 L-2.07873 -6.45863 L-2.69948 -8.1188 L-3.32023 -9.77898 L-3.94097 -11.4391 L-2.19202 -11.148 L-0.443057 -10.8569 L1.3059 -10.5658 L3.05486 -10.2747 L4.80382 -9.98358 Z " />
<path stroke="rgb(200,255,200)" stroke-opacity="1" fill="rgb(200,255,200)" fill-opacity="1" id="tri_4_9_" d="M10.2928 -3.92355 L11.4711 -5.09372 L12.6494 -6.26389 L13.8277 -7.43406 L15.0061 -8.60423 L16.1844 -9.7744 L16.6085 -8.17049 L17.0326 -6.56658 L17.4567 -4.96267 L17.8808 -3.35876 L18.3049 -1.75486 L16.7025 -2.18859 L15.1001 -2.62233 L13.4977 -3.05607 L11.8952 -3.48981 L10.2928 -3.92355 Z " />
<path stroke="rgb(200,255,200)" stroke-opacity="1" fill="rgb(200,255,200)" fill-opacity="1" id="tri_3_8_" d="M14.7062 -9.73978 L13.5518 -8.46327 L12.3975 -7.18677 L11.2432 -5.91027 L10.0888 -4.63377 L8.93448 -3.35727 L8.40659 -4.99366 L7.87871 -6.63006 L7.35082 -8.26645 L6.82294 -9.90285 L6.29505 -11.5392 L7.97728 -11.1793 L9.6595 -10.8195 L11.3417 -10.4596 L13.024 -10.0997 L14.7062 -9.73978 Z " />
<path stroke="rgb(200,255,200)" stroke-opacity="1" fill="rgb(200,255,200)" fill-opacity="1" id="tri_5_8_" d="M20.3753 -4.237 L21.573 -5.28832 L22.7707 -6.33965 L23.9685 -7.39097 L25.1662 -8.44229 L26.364 -9.49362 L26.675 -7.93213 L26.986 -6.37065 L27.2971 -4.80916 L27.6081 -3.24768 L27.9191 -1.68619 L26.4104 -2.19635 L24.9016 -2.70651 L23.3928 -3.21667 L21.884 -3.72684 L20.3753 -4.237 Z " />
<path stroke="rgb(200,255,200)" stroke-opacity="1" fill="rgb(200,255,200)" fill-opacity="1" id="tri_4_8_" d="M24.5852 -9.46655 L23.4073 -8.29629 L22.2293 -7.12603 L21.0513 -5.95578 L19.8733 -4.78552 L18.6953 -3.61526 L18.2712 -5.21917 L17.8471 -6.82308 L17.423 -8.42699 L16.9988 -10.0309 L16.5747 -11.6348 L18.1768 -11.2012 L19.7789 -10.7675 L21.381 -10.3339 L22.9831 -9.9002 L24.5852 -9.46655 Z " />
<path stroke="rgb(200,255,200)" stroke-opacity="1" fill="rgb(200,255,200)" fill-opacity="1" id="tri_0_8_" d="M-34.7813 5.69532 L-33.7029 4.17812 L-32.6245 2.66093 L-31.5461 1.14373 L-30.4677 -0.373465 L-29.3893 -1.89066 L-28.6157 -0.200131 L-27.842 1.4904 L-27.0683 3.18092 L-26.2946 4.87145 L-25.5209 6.56198 L-27.373 6.38865 L-29.2251 6.21532 L-31.0772 6.04198 L-32.9292 5.86865 L-34.7813 5.69532 Z " />
<path stroke="rgb(200,255,200)" stroke-opacity="1" fill="rgb(200,255,200)" fill-opacity="1" id="tri_1_7_" d="M-24.7798 5.49326 L-23.6769 4.04467 L-22.5741 2.59609 L-21.4713 1.1475 L-20.3684 -0.301081 L-19.2656 -1.74967 L-18.5635 -0.0720197 L-17.8613 1.60563 L-17.1592 3.28327 L-16.4571 4.96092 L-15.7549 6.63856 L-17.5599 6.4095 L-19.3649 6.18044 L-21.1698 5.95138 L-22.9748 5.72232 L-24.7798 5.49326 Z " />
<path stroke="rgb(200,255,200)" stroke-opacity="1" fill="rgb(200,255,200)" fill-opacity="1" id="tri_0_7_" d="M-20.0203 -1.74394 L-21.0984 -0.227285 L-22.1766 1.28937 L-23.2548 2.80602 L-24.3329 4.32268 L-25.4111 5.83933 L-26.1848 4.14881 L-26.9585 2.45828 L-27.7322 0.76775 L-28.5059 -0.922778 L-29.2796 -2.61331 L-27.4277 -2.43943 L-25.5758 -2.26556 L-23.724 -2.09169 L-21.8721 -1.91781 L-20.0203 -1.74394 Z " />
<path stroke="rgb(200,255,200)" stroke-opacity="1" fill="rgb(200,255,200)" fill-opacity="1" id="tri_2_7_" d="M-14.7679 5.26321 L-13.639 3.89427 L-12.5101 2.52533 L-11.3811 1.15639 L-10.2522 -0.212549 L-9.12332 -1.58149 L-8.50296 0.0788003 L-7.88259 1.73909 L-7.26222 3.39937 L-6.64185 5.05966 L-6.02148 6.71995 L-7.77076 6.4286 L-9.52004 6.13725 L-11.2693 5.8459 L-13.0186 5.55456 L-14.7679 5.26321 Z " />
<path stroke="rgb(200,255,200)" stroke-opacity="1" fill="rgb(200,255,200)" fill-opacity="1" id="tri_1_6_" d="M-10.0889 -1.56019 L-11.192 -0.111263 L-12.295 1.33766 L-13.3981 2.78658 L-14.5012 4.23551 L-15.6042 5.68443 L-16.3063 4.00679 L-17.0085 2.32914 L-17.7106 0.651494 L-18.4127 -1.02615 L-19.1149 -2.7038 L-17.3097 -2.47507 L-15.5045 -2.24635 L-13.6993 -2.01763 L-11.8941 -1.78891 L-10.0889 -1.56019 Z " />
<path stroke="rgb(200,255,200)" stroke-opacity="1" fill="rgb(200,255,200)" fill-opacity="1" id="tri_3_7_" d="M-4.73606 5.00392 L-3.58165 3.72708 L-2.42723 2.45024 L-1.27282 1.1734 L-0.118404 -0.103434 L1.03601 -1.38027 L1.56352 0.25622 L2.09103 1.89271 L2.61854 3.5292 L3.14605 5.1657 L3.67357 6.80219 L1.99164 6.44254 L0.309715 6.08288 L-1.37221 5.72323 L-3.05414 5.36357 L-4.73606 5.00392 Z " />
<path stroke="rgb(200,255,200)" stroke-opacity="1" fill="rgb(200,255,200)" fill-opacity="1" id="tri_2_6_" d="M-0.169972 -1.34703 L-1.29874 0.0221126 L-2.4275 1.39126 L-3.55627 2.7604 L-4.68504 4.12955 L-5.8138 5.49869 L-6.43417 3.83841 L-7.05454 2.17812 L-7.67491 0.517833 L-8.29527 -1.14245 L-8.91564 -2.80274 L-7.16651 -2.5116 L-5.41737 -2.22046 L-3.66824 -1.92932 L-1.91911 -1.63817 L-0.169972 -1.34703 Z " />
<path stroke="rgb(200,255,200)" stroke-opacity="1" fill="rgb(200,255,200)" fill-opacity="1" id="tri_4_7_" d="M5.31672 4.71367 L6.49496 3.54313 L7.6732 2.3726 L8.85144 1.20206 L10.0297 0.031527 L11.2079 -1.13901 L11.632 0.464901 L12.0561 2.06881 L12.4803 3.67272 L12.9044 5.27662 L13.3285 6.88053 L11.7261 6.44716 L10.1238 6.01379 L8.52143 5.58041 L6.91907 5.14704 L5.31672 4.71367 Z " />
<path stroke="rgb(200,255,200)" stroke-opacity="1" fill="rgb(200,255,200)" fill-opacity="1" id="tri_3_6_" d="M9.72987 -1.10452 L8.57562 0.172351 L7.42138 1.44923 L6.26713 2.7261 L5.11289 4.00298 L3.95864 5.27985 L3.43113 3.64336 L2.90362 2.00687 L2.37611 0.370375 L1.84859 -1.26612 L1.32108 -2.90261 L3.00284 -2.54299 L4.6846 -2.18338 L6.36635 -1.82376 L8.04811 -1.46414 L9.72987 -1.10452 Z " />
<path stroke="rgb(200,255,200)" stroke-opacity="1" fill="rgb(200,255,200)" fill-opacity="1" id="tri_5_7_" d="M15.3991 4.39839 L16.5972 3.34717 L17.7952 2.29595 L18.9933 1.24473 L20.1913 0.193511 L21.3894 -0.857709 L21.7 0.704329 L22.0107 2.26637 L22.3214 3.82841 L22.6321 5.39044 L22.9427 6.95248 L21.434 6.44166 L19.9253 5.93084 L18.4166 5.42002 L16.9078 4.90921 L15.3991 4.39839 Z " />
<path stroke="rgb(200,255,200)" stroke-opacity="1" fill="rgb(200,255,200)" fill-opacity="1" id="tri_4_6_" d="M19.6103 -0.830944 L18.432 0.339225 L17.2537 1.50939 L16.0754 2.67956 L14.8971 3.84973 L13.7188 5.0199 L13.2946 3.41599 L12.8705 1.81208 L12.4464 0.208175 L12.0223 -1.39573 L11.5982 -2.99964 L13.2006 -2.5659 L14.803 -2.13216 L16.4055 -1.69842 L18.0079 -1.26468 L19.6103 -0.830944 Z " />
<path stroke="rgb(200,255,200)" stroke-opacity="1" fill="rgb(200,255,200)" fill-opacity="1" id="tri_6_6_" d="M25.5101 4.06839 L26.7212 3.14749 L27.9323 2.22659 L29.1434 1.30569 L30.3546 0.384787 L31.5657 -0.536112 L31.7572 0.971308 L31.9488 2.47873 L32.1403 3.98615 L32.3319 5.49357 L32.5235 7.00099 L31.1208 6.41447 L29.7181 5.82795 L28.3154 5.24143 L26.9128 4.65491 L25.5101 4.06839 Z " />
<path stroke="rgb(200,255,200)" stroke-opacity="1" fill="rgb(200,255,200)" fill-opacity="1" id="tri_5_6_" d="M29.4608 -0.533793 L28.2627 0.518083 L27.0646 1.56996 L25.8665 2.62184 L24.6684 3.67371 L23.4703 4.72559 L23.1597 3.16355 L22.849 1.60152 L22.5383 0.0394775 L22.2276 -1.52256 L21.917 -3.0846 L23.4257 -2.57444 L24.9345 -2.06428 L26.4433 -1.55411 L27.9521 -1.04395 L29.4608 -0.533793 Z " />
<path stroke="rgb(200,255,200)" stroke-opacity="1" fill="rgb(200,255,200)" fill-opacity="1" id="tri_0_6_" d="M-39.756 14.3327 L-38.6782 12.8155 L-37.6004 11.2982 L-36.5225 9.78098 L-35.4447 8.26373 L-34.3668 6.74648 L-33.5924 8.43726 L-32.818 10.128 L-32.0436 11.8188 L-31.2692 13.5096 L-30.4947 15.2004 L-32.347 15.0269 L-34.1993 14.8533 L-36.0515 14.6798 L-37.9038 14.5063 L-39.756 14.3327 Z " />
<path stroke="rgb(200,255,200)" stroke-opacity="1" fill="rgb(200,255,200)" fill-opacity="1" id="tri_1_5_" d="M-29.7538 14.1316 L-28.6514 12.6822 L-27.549 11.2329 L-26.4466 9.78348 L-25.3442 8.3341 L-24.2419 6.88472 L-23.5396 8.56294 L-22.8374 10.2411 L-22.1351 11.9194 L-21.4329 13.5976 L-20.7306 15.2758 L-22.5353 15.047 L-24.3399 14.8181 L-26.1445 14.5893 L-27.9492 14.3605 L-29.7538 14.1316 Z " />
<path stroke="rgb(200,255,200)" stroke-opacity="1" fill="rgb(200,255,200)" fill-opacity="1" id="tri_0_5_" d="M-24.9967 6.89048 L-26.0744 8.40794 L-27.1521 9.92539 L-28.2297 11.4428 L-29.3074 12.9603 L-30.3851 14.4777 L-31.1595 12.787 L-31.9339 11.0962 L-32.7084 9.40539 L-33.4828 7.7146 L-34.2572 6.02382 L-32.4051 6.19715 L-30.553 6.37048 L-28.7009 6.54382 L-26.8488 6.71715 L-24.9967 6.89048 Z " />
<path stroke="rgb(200,255,200)" stroke-opacity="1" fill="rgb(200,255,200)" fill-opacity="1" id="tri_2_5_" d="M-19.7439 13.9004 L-18.6153 12.5313 L-17.4867 11.1621 L-16.3581 9.79291 L-15.2295 8.42374 L-14.1009 7.05456 L-13.4801 8.71438 L-12.8593 10.3742 L-12.2385 12.034 L-11.6177 13.6939 L-10.9969 15.3537 L-12.7463 15.063 L-14.4957 14.7724 L-16.2451 14.4817 L-17.9945 14.1911 L-19.7439 13.9004 Z " />
<path stroke="rgb(200,255,200)" stroke-opacity="1" fill="rgb(200,255,200)" fill-opacity="1" id="tri_1_4_" d="M-15.0665 7.076 L-16.1693 8.52515 L-17.272 9.9743 L-18.3747 11.4235 L-19.4774 12.8726 L-20.5802 14.3218 L-21.2824 12.6435 L-21.9846 10.9653 L-22.6869 9.28712 L-23.3891 7.60891 L-24.0914 5.93069 L-22.2864 6.15975 L-20.4814 6.38882 L-18.6765 6.61788 L-16.8715 6.84694 L-15.0665 7.076 Z " />
<path stroke="rgb(200,255,200)" stroke-opacity="1" fill="rgb(200,255,200)" fill-opacity="1" id="tri_3_5_" d="M-9.71124 13.6376 L-8.55714 12.3614 L-7.40304 11.0852 L-6.24894 9.80899 L-5.09484 8.53279 L-3.94074 7.25659 L-3.41272 8.89319 L-2.88471 10.5298 L-2.35669 12.1664 L-1.82867 13.803 L-1.30066 15.4396 L-2.98277 15.0792 L-4.66489 14.7188 L-6.347 14.3584 L-8.02912 13.998 L-9.71124 13.6376 Z " />
<path stroke="rgb(200,255,200)" stroke-opacity="1" fill="rgb(200,255,200)" fill-opacity="1" id="tri_2_4_" d="M-5.14688 7.2901 L-6.27536 8.65858 L-7.40383 10.0271 L-8.5323 11.3955 L-9.66077 12.764 L-10.7892 14.1325 L-11.4101 12.4727 L-12.0309 10.8128 L-12.6517 9.15301 L-13.2725 7.49318 L-13.8933 5.83336 L-12.144 6.12471 L-10.3947 6.41606 L-8.64544 6.70741 L-6.89616 6.99876 L-5.14688 7.2901 Z " />
<path stroke="rgb(200,255,200)" stroke-opacity="1" fill="rgb(200,255,200)" fill-opacity="1" id="tri_4_5_" d="M0.342797 13.3514 L1.52072 12.1808 L2.69864 11.0102 L3.87656 9.83953 L5.05448 8.66891 L6.2324 7.49829 L6.6563 9.10231 L7.08021 10.7063 L7.50412 12.3104 L7.92802 13.9144 L8.35193 15.5184 L6.7501 15.085 L5.14828 14.6516 L3.54645 14.2182 L1.94462 13.7848 L0.342797 13.3514 Z " />
<path stroke="rgb(200,255,200)" stroke-opacity="1" fill="rgb(200,255,200)" fill-opacity="1" id="tri_3_4_" d="M4.75423 7.53275 L3.60033 8.8097 L2.44642 10.0866 L1.29251 11.3636 L0.138598 12.6405 L-1.01531 13.9175 L-1.54333 12.2809 L-2.07134 10.6443 L-2.59936 9.00769 L-3.12738 7.37108 L-3.65539 5.73448 L-1.97347 6.09414 L-0.291543 6.45379 L1.39038 6.81344 L3.07231 7.1731 L4.75423 7.53275 Z " />
<path stroke="rgb(200,255,200)" stroke-opacity="1" fill="rgb(200,255,200)" fill-opacity="1" id="tri_5_5_" d="M10.4221 13.0361 L11.6203 11.9844 L12.8185 10.9327 L14.0167 9.88107 L15.2149 8.8294 L16.4131 7.77773 L16.7241 9.33987 L17.0351 10.902 L17.3461 12.4641 L17.657 14.0263 L17.968 15.5884 L16.4588 15.078 L14.9496 14.5675 L13.4405 14.057 L11.9313 13.5466 L10.4221 13.0361 Z " />
<path stroke="rgb(200,255,200)" stroke-opacity="1" fill="rgb(200,255,200)" fill-opacity="1" id="tri_4_4_" d="M14.634 7.80462 L13.4556 8.97527 L12.2772 10.1459 L11.0987 11.3166 L9.92026 12.4872 L8.74182 13.6579 L8.31791 12.0538 L7.894 10.4498 L7.47009 8.8458 L7.04619 7.24178 L6.62228 5.63775 L8.22463 6.07113 L9.82699 6.5045 L11.4293 6.93787 L13.0317 7.37124 L14.634 7.80462 Z " />
<path stroke="rgb(200,255,200)" stroke-opacity="1" fill="rgb(200,255,200)" fill-opacity="1" id="tri_6_5_" d="M20.5359 12.7044 L21.7466 11.784 L22.9574 10.8636 L24.1681 9.94317 L25.3788 9.02278 L26.5896 8.10238 L26.7814 9.60958 L26.9732 11.1168 L27.165 12.624 L27.3568 14.1312 L27.5486 15.6384 L26.1461 15.0516 L24.7435 14.4648 L23.341 13.878 L21.9384 13.2912 L20.5359 12.7044 Z " />
<path stroke="rgb(200,255,200)" stroke-opacity="1" fill="rgb(200,255,200)" fill-opacity="1" id="tri_5_4_" d="M24.4845 8.10492 L23.2868 9.15625 L22.089 10.2076 L20.8913 11.2589 L19.6935 12.3102 L18.4958 13.3615 L18.1848 11.7994 L17.8738 10.2373 L17.5629 8.67511 L17.2519 7.11297 L16.9409 5.55083 L18.4496 6.06165 L19.9584 6.57247 L21.4671 7.08329 L22.9758 7.59411 L24.4845 8.10492 Z " />
<path stroke="rgb(200,255,200)" stroke-opacity="1" fill="rgb(200,255,200)" fill-opacity="1" id="tri_7_4_" d="M30.6868 12.3567 L31.9011 11.5782 L33.1154 10.7996 L34.3297 10.0211 L35.544 9.24255 L36.7582 8.46402 L36.8245 9.90339 L36.8907 11.3428 L36.9569 12.7821 L37.0232 14.2215 L37.0894 15.6609 L35.8089 15 L34.5284 14.3392 L33.2479 13.6784 L31.9673 13.0175 L30.6868 12.3567 Z " />
<path stroke="rgb(200,255,200)" stroke-opacity="1" fill="rgb(200,255,200)" fill-opacity="1" id="tri_6_4_" d="M34.306 8.41813 L33.0952 9.3388 L31.8843 10.2595 L30.6735 11.1802 L29.4626 12.1008 L28.2518 13.0215 L28.06 11.5143 L27.8681 10.0071 L27.6763 8.49992 L27.4845 6.99272 L27.2927 5.48552 L28.6954 6.07204 L30.098 6.65856 L31.5007 7.24508 L32.9034 7.83161 L34.306 8.41813 Z " />
<path stroke="rgb(200,255,200)" stroke-opacity="1" fill="rgb(200,255,200)" fill-opacity="1" id="tri_0_4_" d="M-44.7328 22.97 L-43.6545 21.4528 L-42.5763 19.9356 L-41.4981 18.4183 L-40.4199 16.9011 L-39.3417 15.3839 L-38.5678 17.0743 L-37.7939 18.7646 L-37.02 20.455 L-36.2461 22.1453 L-35.4722 23.8357 L-37.3243 23.6626 L-39.1764 23.4894 L-41.0285 23.3163 L-42.8806 23.1431 L-44.7328 22.97 Z " />
<path stroke="rgb(200,255,200)" stroke-opacity="1" fill="rgb(200,255,200)" fill-opacity="1" id="tri_1_3_" d="M-34.7312 22.7668 L-33.6281 21.3181 L-32.5251 19.8693 L-31.4221 18.4206 L-30.319 16.9718 L-29.216 15.5231 L-28.514 17.2007 L-27.8121 18.8783 L-27.1101 20.556 L-26.4082 22.2336 L-25.7062 23.9112 L-27.5112 23.6823 L-29.3162 23.4535 L-31.1212 23.2246 L-32.9262 22.9957 L-34.7312 22.7668 Z " />
<path stroke="rgb(200,255,200)" stroke-opacity="1" fill="rgb(200,255,200)" fill-opacity="1" id="tri_0_3_" d="M-29.9706 15.5289 L-31.049 17.0457 L-32.1274 18.5625 L-33.2057 20.0793 L-34.2841 21.5962 L-35.3624 23.113 L-36.1363 21.4226 L-36.9102 19.7323 L-37.6841 18.0419 L-38.458 16.3515 L-39.2319 14.6612 L-37.3797 14.8347 L-35.5274 15.0083 L-33.6752 15.1818 L-31.8229 15.3553 L-29.9706 15.5289 Z " />
<path stroke="rgb(200,255,200)" stroke-opacity="1" fill="rgb(200,255,200)" fill-opacity="1" id="tri_2_3_" d="M-24.7193 22.536 L-23.5908 21.1672 L-22.4622 19.7983 L-21.3337 18.4295 L-20.2052 17.0607 L-19.0766 15.6919 L-18.4559 17.352 L-17.8351 19.0122 L-17.2144 20.6724 L-16.5936 22.3326 L-15.9729 23.9927 L-17.7222 23.7014 L-19.4714 23.41 L-21.2207 23.1187 L-22.97 22.8273 L-24.7193 22.536 Z " />
<path stroke="rgb(200,255,200)" stroke-opacity="1" fill="rgb(200,255,200)" fill-opacity="1" id="tri_1_2_" d="M-20.0422 15.7132 L-21.1449 17.162 L-22.2476 18.6108 L-23.3502 20.0596 L-24.4529 21.5084 L-25.5556 22.9572 L-26.2575 21.2795 L-26.9595 19.6019 L-27.6614 17.9243 L-28.3634 16.2467 L-29.0653 14.5691 L-27.2607 14.7979 L-25.4561 15.0267 L-23.6515 15.2556 L-21.8468 15.4844 L-20.0422 15.7132 Z " />
<path stroke="rgb(200,255,200)" stroke-opacity="1" fill="rgb(200,255,200)" fill-opacity="1" id="tri_3_3_" d="M-14.6875 22.2766 L-13.5332 20.9994 L-12.3788 19.7222 L-11.2245 18.445 L-10.0702 17.1678 L-8.91588 15.8906 L-8.38835 17.5278 L-7.86081 19.165 L-7.33328 20.8022 L-6.80575 22.4394 L-6.27821 24.0766 L-7.96006 23.7166 L-9.64192 23.3566 L-11.3238 22.9966 L-13.0056 22.6366 L-14.6875 22.2766 Z " />
<path stroke="rgb(200,255,200)" stroke-opacity="1" fill="rgb(200,255,200)" fill-opacity="1" id="tri_2_2_" d="M-10.1221 15.9238 L-11.2508 17.2933 L-12.3794 18.6629 L-13.5081 20.0324 L-14.6367 21.4019 L-15.7654 22.7714 L-16.3861 21.1113 L-17.0069 19.4511 L-17.6276 17.7909 L-18.2483 16.1308 L-18.8691 14.4706 L-17.1197 14.7612 L-15.3703 15.0519 L-13.6209 15.3425 L-11.8715 15.6332 L-10.1221 15.9238 Z " />
<path stroke="rgb(200,255,200)" stroke-opacity="1" fill="rgb(200,255,200)" fill-opacity="1" id="tri_4_3_" d="M-4.63466 21.9881 L-3.4561 20.8176 L-2.27754 19.6472 L-1.09897 18.4767 L0.0795871 17.3063 L1.25815 16.1358 L1.68203 17.7393 L2.1059 19.3428 L2.52978 20.9463 L2.95366 22.5498 L3.37754 24.1533 L1.7751 23.7203 L0.17266 23.2872 L-1.42978 22.8542 L-3.03222 22.4211 L-4.63466 21.9881 Z " />
<path stroke="rgb(200,255,200)" stroke-opacity="1" fill="rgb(200,255,200)" fill-opacity="1" id="tri_3_2_" d="M-0.219973 16.1702 L-1.37456 17.447 L-2.52914 18.7238 L-3.68372 20.0006 L-4.8383 21.2774 L-5.99288 22.5542 L-6.52042 20.917 L-7.04795 19.2798 L-7.57549 17.6426 L-8.10302 16.0054 L-8.63055 14.3682 L-6.94844 14.7286 L-5.26632 15.089 L-3.58421 15.4494 L-1.90209 15.8098 L-0.219973 16.1702 Z " />
<path stroke="rgb(200,255,200)" stroke-opacity="1" fill="rgb(200,255,200)" fill-opacity="1" id="tri_5_3_" d="M5.44744 21.6712 L6.64514 20.62 L7.84284 19.5689 L9.04053 18.5177 L10.2382 17.4665 L11.4359 16.4153 L11.7469 17.977 L12.0579 19.5386 L12.3689 21.1003 L12.6798 22.6619 L12.9908 24.2235 L11.4821 23.7131 L9.97346 23.2026 L8.46479 22.6921 L6.95612 22.1817 L5.44744 21.6712 Z " />
<path stroke="rgb(200,255,200)" stroke-opacity="1" fill="rgb(200,255,200)" fill-opacity="1" id="tri_4_2_" d="M9.65732 16.4423 L8.47937 17.6124 L7.30143 18.7825 L6.12348 19.9526 L4.94553 21.1227 L3.76758 22.2928 L3.3437 20.6893 L2.91982 19.0858 L2.49595 17.4823 L2.07207 15.8788 L1.64819 14.2753 L3.25002 14.7087 L4.85184 15.1421 L6.45367 15.5755 L8.0555 16.0089 L9.65732 16.4423 Z " />
<path stroke="rgb(200,255,200)" stroke-opacity="1" fill="rgb(200,255,200)" fill-opacity="1" id="tri_6_3_" d="M15.5586 21.3395 L16.7697 20.4193 L17.9809 19.4991 L19.192 18.5788 L20.4032 17.6586 L21.6144 16.7384 L21.8057 18.2456 L21.997 19.7527 L22.1884 21.2599 L22.3797 22.7671 L22.571 24.2742 L21.1685 23.6873 L19.766 23.1003 L18.3635 22.5134 L16.9611 21.9264 L15.5586 21.3395 Z " />
<path stroke="rgb(200,255,200)" stroke-opacity="1" fill="rgb(200,255,200)" fill-opacity="1" id="tri_5_2_" d="M19.5097 16.7409 L18.3115 17.792 L17.1133 18.8432 L15.9151 19.8944 L14.7169 20.9456 L13.5187 21.9967 L13.2077 20.4351 L12.8967 18.8735 L12.5858 17.3118 L12.2748 15.7502 L11.9638 14.1885 L13.473 14.699 L14.9822 15.2095 L16.4913 15.7199 L18.0005 16.2304 L19.5097 16.7409 Z " />
<path stroke="rgb(200,255,200)" stroke-opacity="1" fill="rgb(200,255,200)" fill-opacity="1" id="tri_7_3_" d="M25.7097 20.9925 L26.9243 20.2143 L28.1389 19.4361 L29.3535 18.6579 L30.5681 17.8797 L31.7827 17.1015 L31.849 18.5405 L31.9152 19.9796 L31.9814 21.4186 L32.0477 22.8576 L32.1139 24.2967 L30.8331 23.6359 L29.5522 22.975 L28.2714 22.3142 L26.9905 21.6533 L25.7097 20.9925 Z " />
<path stroke="rgb(200,255,200)" stroke-opacity="1" fill="rgb(200,255,200)" fill-opacity="1" id="tri_6_2_" d="M29.3308 17.0555 L28.1196 17.9758 L26.9084 18.8962 L25.6972 19.8165 L24.4859 20.7369 L23.2747 21.6572 L23.0834 20.1501 L22.892 18.6429 L22.7007 17.1358 L22.5094 15.6286 L22.318 14.1214 L23.7206 14.7082 L25.1232 15.295 L26.5257 15.8818 L27.9283 16.4687 L29.3308 17.0555 Z " />
<path stroke="rgb(200,255,200)" stroke-opacity="1" fill="rgb(200,255,200)" fill-opacity="1" id="tri_8_2_" d="M35.8924 20.6525 L37.098 20.0204 L38.3036 19.3884 L39.5092 18.7563 L40.7148 18.1242 L41.9204 17.4921 L41.8651 18.8511 L41.8098 20.2101 L41.7545 21.5691 L41.6992 22.9281 L41.6439 24.2871 L40.4936 23.5602 L39.3433 22.8333 L38.193 22.1063 L37.0427 21.3794 L35.8924 20.6525 Z " />
<path stroke="rgb(200,255,200)" stroke-opacity="1" fill="rgb(200,255,200)" fill-opacity="1" id="tri_7_2_" d="M39.1095 17.384 L37.8952 18.1622 L36.6809 18.9404 L35.4666 19.7186 L34.2523 20.4968 L33.0381 21.275 L32.9718 19.836 L32.9056 18.3969 L32.8394 16.9579 L32.7731 15.5188 L32.7069 14.0798 L33.9874 14.7406 L35.2679 15.4015 L36.5484 16.0623 L37.8289 16.7231 L39.1095 17.384 Z " />
<path stroke="rgb(200,255,200)" stroke-opacity="1" fill="rgb(200,255,200)" fill-opacity="1" id="tri_0_2_" d="M-49.7074 31.6054 L-48.6296 30.0886 L-47.5518 28.5717 L-46.474 27.0548 L-45.3961 25.5379 L-44.3183 24.0211 L-43.5441 25.7115 L-42.7698 27.4019 L-41.9955 29.0923 L-41.2213 30.7826 L-40.447 32.473 L-42.2991 32.2995 L-44.1511 32.126 L-46.0032 31.9525 L-47.8553 31.779 L-49.7074 31.6054 Z " />
<path stroke="rgb(200,255,200)" stroke-opacity="1" fill="rgb(200,255,200)" fill-opacity="1" id="tri_1_1_" d="M-39.706 31.4041 L-38.6035 29.9549 L-37.501 28.5057 L-36.3984 27.0565 L-35.2959 25.6074 L-34.1933 24.1582 L-33.4905 25.8359 L-32.7876 27.5137 L-32.0848 29.1914 L-31.3819 30.8692 L-30.679 32.5469 L-32.4844 32.3183 L-34.2898 32.0898 L-36.0952 31.8612 L-37.9006 31.6326 L-39.706 31.4041 Z " />
<path stroke="rgb(200,255,200)" stroke-opacity="1" fill="rgb(200,255,200)" fill-opacity="1" id="tri_0_1_" d="M-34.9481 24.1642 L-36.026 25.6814 L-37.1038 27.1987 L-38.1816 28.7159 L-39.2595 30.2332 L-40.3373 31.7504 L-41.1116 30.06 L-41.8859 28.3696 L-42.6601 26.6792 L-43.4344 24.9888 L-44.2087 23.2984 L-42.3566 23.4716 L-40.5044 23.6447 L-38.6523 23.8179 L-36.8002 23.991 L-34.9481 24.1642 Z " />
<path stroke="rgb(200,255,200)" stroke-opacity="1" fill="rgb(200,255,200)" fill-opacity="1" id="tri_2_1_" d="M-29.692 31.1716 L-28.564 29.8027 L-27.436 28.4338 L-26.308 27.0649 L-25.18 25.696 L-24.052 24.3271 L-23.4309 25.9878 L-22.8099 27.6486 L-22.1889 29.3093 L-21.5679 30.9701 L-20.9469 32.6308 L-22.6959 32.339 L-24.4449 32.0472 L-26.1939 31.7553 L-27.943 31.4635 L-29.692 31.1716 Z " />
<path stroke="rgb(200,255,200)" stroke-opacity="1" fill="rgb(200,255,200)" fill-opacity="1" id="tri_1" d="M-25.0179 24.3485 L-26.12 25.7974 L-27.2221 27.2462 L-28.3243 28.6951 L-29.4264 30.144 L-30.5285 31.5928 L-31.2314 29.9151 L-31.9342 28.2373 L-32.6371 26.5596 L-33.3399 24.8819 L-34.0428 23.2041 L-32.2378 23.433 L-30.4328 23.6619 L-28.6278 23.8908 L-26.8228 24.1196 L-25.0179 24.3485 Z " />
<path stroke="rgb(200,255,200)" stroke-opacity="1" fill="rgb(200,255,200)" fill-opacity="1" id="tri_3_1_" d="M-19.6614 30.915 L-18.5075 29.6379 L-17.3535 28.3608 L-16.1996 27.0837 L-15.0456 25.8066 L-13.8917 24.5295 L-13.3638 26.166 L-12.836 27.8026 L-12.3082 29.4392 L-11.7803 31.0757 L-11.2525 32.7123 L-12.9342 32.3528 L-14.616 31.9934 L-16.2978 31.6339 L-17.9796 31.2745 L-19.6614 30.915 Z " />
<path stroke="rgb(200,255,200)" stroke-opacity="1" fill="rgb(200,255,200)" fill-opacity="1" id="tri_2" d="M-15.0979 24.5629 L-16.2262 25.9323 L-17.3545 27.3017 L-18.4828 28.6711 L-19.611 30.0405 L-20.7393 31.4099 L-21.3603 29.7491 L-21.9813 28.0884 L-22.6023 26.4276 L-23.2233 24.7669 L-23.8443 23.1061 L-22.0951 23.3975 L-20.3458 23.6888 L-18.5965 23.9802 L-16.8472 24.2715 L-15.0979 24.5629 Z " />
<path stroke="rgb(200,255,200)" stroke-opacity="1" fill="rgb(200,255,200)" fill-opacity="1" id="tri_4_1_" d="M-9.60938 30.624 L-8.43138 29.4537 L-7.25339 28.2835 L-6.0754 27.1132 L-4.89741 25.9429 L-3.71941 24.7727 L-3.29537 26.3762 L-2.87134 27.9798 L-2.4473 29.5833 L-2.02326 31.1869 L-1.59922 32.7904 L-3.20125 32.3571 L-4.80328 31.9238 L-6.40531 31.4906 L-8.00735 31.0573 L-9.60938 30.624 Z " />
<path stroke="rgb(200,255,200)" stroke-opacity="1" fill="rgb(200,255,200)" fill-opacity="1" id="tri_3" d="M-5.19741 24.8073 L-6.35141 26.0838 L-7.50542 27.3604 L-8.65942 28.637 L-9.81342 29.9136 L-10.9674 31.1901 L-11.4953 29.5536 L-12.0231 27.917 L-12.551 26.2804 L-13.0788 24.6439 L-13.6067 23.0073 L-11.9248 23.3673 L-10.243 23.7273 L-8.56111 24.0873 L-6.87926 24.4473 L-5.19741 24.8073 Z " />
<path stroke="rgb(200,255,200)" stroke-opacity="1" fill="rgb(200,255,200)" fill-opacity="1" id="tri_5_1_" d="M0.470747 30.3079 L1.6689 29.2564 L2.86705 28.2049 L4.06521 27.1533 L5.26336 26.1018 L6.46151 25.0503 L6.77239 26.6122 L7.08326 28.1742 L7.39414 29.7361 L7.70501 31.2981 L8.01589 32.86 L6.50686 32.3496 L4.99783 31.8392 L3.4888 31.3287 L1.97977 30.8183 L0.470747 30.3079 Z " />
<path stroke="rgb(200,255,200)" stroke-opacity="1" fill="rgb(200,255,200)" fill-opacity="1" id="tri_4" d="M4.68274 25.0773 L3.50434 26.2478 L2.32594 27.4183 L1.14754 28.5888 L-0.0308609 29.7593 L-1.20926 30.9298 L-1.6333 29.3262 L-2.05734 27.7227 L-2.48138 26.1192 L-2.90542 24.5156 L-3.32945 22.9121 L-1.72701 23.3451 L-0.124575 23.7782 L1.47786 24.2112 L3.0803 24.6443 L4.68274 25.0773 Z " />
<path stroke="rgb(200,255,200)" stroke-opacity="1" fill="rgb(200,255,200)" fill-opacity="1" id="tri_6_1_" d="M10.5836 29.9759 L11.7944 29.0554 L13.0052 28.1349 L14.216 27.2143 L15.4268 26.2938 L16.6376 25.3732 L16.8294 26.8808 L17.0213 28.3883 L17.2131 29.8959 L17.4049 31.4034 L17.5968 32.9109 L16.1941 32.3239 L14.7915 31.7369 L13.3889 31.1499 L11.9862 30.5629 L10.5836 29.9759 Z " />
<path stroke="rgb(200,255,200)" stroke-opacity="1" fill="rgb(200,255,200)" fill-opacity="1" id="tri_5" d="M14.5325 25.3757 L13.3347 26.4272 L12.1369 27.4787 L10.9391 28.5302 L9.74128 29.5816 L8.54348 30.6331 L8.23261 29.0712 L7.92173 27.5092 L7.61085 25.9473 L7.29998 24.3853 L6.9891 22.8234 L8.49778 23.3339 L10.0065 23.8443 L11.5151 24.3548 L13.0238 24.8653 L14.5325 25.3757 Z " />
<path stroke="rgb(200,255,200)" stroke-opacity="1" fill="rgb(200,255,200)" fill-opacity="1" id="tri_7_1_" d="M20.7357 29.6296 L21.9497 28.8511 L23.1638 28.0726 L24.3779 27.2941 L25.592 26.5157 L26.8061 25.7372 L26.8726 27.1767 L26.9391 28.6162 L27.0056 30.0557 L27.0721 31.4952 L27.1385 32.9347 L25.858 32.2737 L24.5774 31.6127 L23.2968 30.9516 L22.0162 30.2906 L20.7357 29.6296 Z " />
<path stroke="rgb(200,255,200)" stroke-opacity="1" fill="rgb(200,255,200)" fill-opacity="1" id="tri_6" d="M24.3534 25.6913 L23.1427 26.6119 L21.9321 27.5325 L20.7214 28.4531 L19.5108 29.3737 L18.3001 30.2943 L18.1083 28.7868 L17.9164 27.2792 L17.7246 25.7717 L17.5328 24.2641 L17.3409 22.7566 L18.7434 23.3435 L20.1459 23.9305 L21.5484 24.5174 L22.9509 25.1044 L24.3534 25.6913 Z " />
<path stroke="rgb(200,255,200)" stroke-opacity="1" fill="rgb(200,255,200)" fill-opacity="1" id="tri_8_1_" d="M30.9171 29.2903 L32.1228 28.6578 L33.3285 28.0253 L34.5342 27.3928 L35.7399 26.7603 L36.9456 26.1278 L36.8903 27.487 L36.835 28.8462 L36.7798 30.2054 L36.7245 31.5645 L36.6692 32.9237 L35.5188 32.197 L34.3684 31.4703 L33.2179 30.7437 L32.0675 30.017 L30.9171 29.2903 Z " />
<path stroke="rgb(200,255,200)" stroke-opacity="1" fill="rgb(200,255,200)" fill-opacity="1" id="tri_7" d="M34.1341 26.0198 L32.9197 26.7985 L31.7054 27.5772 L30.491 28.3558 L29.2767 29.1345 L28.0623 29.9132 L27.9958 28.4736 L27.9293 27.0341 L27.8629 25.5946 L27.7964 24.1551 L27.7299 22.7156 L29.0107 23.3765 L30.2916 24.0373 L31.5724 24.6982 L32.8532 25.359 L34.1341 26.0198 Z " />
<path stroke="rgb(200,255,200)" stroke-opacity="1" fill="rgb(200,255,200)" fill-opacity="1" id="tri_9" d="M41.0973 29.0102 L42.2847 28.5041 L43.4721 27.9979 L44.6595 27.4918 L45.8469 26.9856 L47.0342 26.4795 L46.8789 27.7594 L46.7237 29.0394 L46.5684 30.3194 L46.4131 31.5993 L46.2578 32.8793 L45.2257 32.1055 L44.1936 31.3317 L43.1615 30.5578 L42.1294 29.784 L41.0973 29.0102 Z " />
<path stroke="rgb(200,255,200)" stroke-opacity="1" fill="rgb(200,255,200)" fill-opacity="1" id="tri_8" d="M43.8828 26.3432 L42.6772 26.9755 L41.4717 27.6078 L40.2661 28.24 L39.0606 28.8723 L37.855 29.5045 L37.9103 28.1454 L37.9656 26.7862 L38.0208 25.427 L38.0761 24.0678 L38.1313 22.7087 L39.2816 23.4356 L40.4319 24.1625 L41.5822 24.8894 L42.7325 25.6163 L43.8828 26.3432 Z " />
</g>
</g>
</svg>
