<!DOCTYPE svg>
<svg xmlns="http://www.w3.org/2000/svg" xmlns:xlink="http://www.w3.org/1999/xlink" width="600" height="600">
<g transform="translate(300.000000,300.000000)">
<g transform="scale(3.000000,3.000000)">
<path stroke="rgb(0,0,0)" stroke-opacity="1" fill="rgb(255,255,255)" fill-opacity="1" id="Layer_1" d="M107.411 107.089 L105.406 107.092 L103.402 107.095 L101.397 107.098 L99.3922 107.101 L97.3875 107.104 L95.3828 107.107 L93.3782 107.11 L91.3735 107.113 L89.3688 107.116 L87.3641 107.119 L85.3595 107.122 L83.3548 107.125 L81.3501 107.128 L79.3455 107.131 L77.3408 107.134 L75.3361 107.137 L73.3314 107.14 L71.3268 107.143 L69.3221 107.146 L67.3174 107.149 L65.3127 107.152 L63.3081 107.155 L61.3034 107.158 L59.2987 107.161 L57.2941 107.164 L55.2894 107.167 L53.2847 107.17 L51.28 107.173 L49.2754 107.176 L47.2707 107.179 L45.266 107.182 L43.2613 107.185 L41.2567 107.188 L39.252 107.191 L37.2473 107.194 L35.2426 107.197 L33.238 107.2 L31.2333 107.203 L29.2286 107.206 L27.224 107.209 L25.2193 107.212 L23.2146 107.215 L21.2099 107.218 L19.2053 107.221 L17.2006 107.224 L15.1959 107.227 L13.1912 107.23 L11.1866 107.233 L9.1819 107.236 L7.17723 107.239 L5.17256 107.242 L3.16788 107.245 L1.16321 107.248 L-0.841463 107.252 L-2.84614 107.255 L-4.85081 107.258 L-6.85548 107.261 L-8.86015 107.264 L-10.8648 107.267 L-12.8695 107.27 L-14.8742 107.273 L-16.8788 107.276 L-18.8835 107.279 L-20.8882 107.282 L-22.8929 107.285 L-24.8975 107.288 L-26.9022 107.291 L-28.9069 107.294 L-30.9116 107.297 L-32.9162 107.3 L-34.9209 107.303 L-36.9256 107.306 L-38.9302 107.309 L-40.9349 107.312 L-42.9396 107.315 L-44.9443 107.318 L-46.9489 107.321 L-48.9536 107.324 L-50.9583 107.327 L-52.963 107.33 L-54.9676 107.333 L-56.9723 107.336 L-58.977 107.339 L-60.9816 107.342 L-62.9863 107.345 L-64.991 107.348 L-66.9957 107.351 L-69.0003 107.354 L-71.005 107.357 L-73.0097 107.36 L-75.0144 107.363 L-77.019 107.366 L-79.0237 107.369 L-81.0284 107.372 L-83.0331 107.375 L-85.0377 107.378 L-87.0424 107.381 L-89.0471 107.384 L-91.0517 107.387 L-93.0564 107.39 L-95.0611 107.393 L-97.0658 107.396 L-99.0704 107.399 L-101.075 107.402 L-103.08 107.405 L-105.084 107.408 L-107.089 107.411 L-107.092 105.406 L-107.095 103.402 L-107.098 101.397 L-107.101 99.3922 L-107.104 97.3875 L-107.107 95.3828 L-107.11 93.3782 L-107.113 91.3735 L-107.116 89.3688 L-107.119 87.3641 L-107.122 85.3595 L-107.125 83.3548 L-107.128 81.3501 L-107.131 79.3455 L-107.134 77.3408 L-107.137 75.3361 L-107.14 73.3314 L-107.143 71.3268 L-107.146 69.3221 L-107.149 67.3174 L-107.152 65.3127 L-107.155 63.3081 L-107.158 61.3034 L-107.161 59.2987 L-107.164 57.2941 L-107.167 55.2894 L-107.17 53.2847 L-107.173 51.28 L-107.176 49.2754 L-107.179 47.2707 L-107.182 45.266 L-107.185 43.2613 L-107.188 41.2567 L-107.191 39.252 L-107.194 37.2473 L-107.197 35.2426 L-107.2 33.238 L-107.203 31.2333 L-107.206 29.2286 L-107.209 27.224 L-107.212 25.2193 L-107.215 23.2146 L-107.218 21.2099 L-107.221 19.2053 L-107.224 17.2006 L-107.227 15.1959 L-107.23 13.1912 L-107.233 11.1866 L-107.236 9.1819 L-107.239 7.17722 L-107.242 5.17255 L-107.245 3.16788 L-107.248 1.1632 L-107.251 -0.841469 L-107.255 -2.84614 L-107.258 -4.85081 L-107.261 -6.85549 L-107.264 -8.86016 L-107.267 -10.8648 L-107.27 -12.8695 L-107.273 -14.8742 L-107.276 -16.8789 L-107.279 -18.8835 L-107.282 -20.8882 L-107.285 -22.8929 L-107.288 -24.8975 L-107.291 -26.9022 L-107.294 -28.9069 L-107.297 -30.9116 L-107.3 -32.9162 L-107.303 -34.9209 L-107.306 -36.9256 L-107.309 -38.9303 L-107.312 -40.9349 L-107.315 -42.9396 L-107.318 -44.9443 L-107.321 -46.9489 L-107.324 -48.9536 L-107.327 -50.9583 L-107.33 -52.963 L-107.333 -54.9676 L-107.336 -56.9723 L-107.339 -58.977 L-107.342 -60.9817 L-107.345 -62.9863 L-107.348 -64.991 L-107.351 -66.9957 L-107.354 -69.0003 L-107.357 -71.005 L-107.36 -73.0097 L-107.363 -75.0144 L-107.366 -77.019 L-107.369 -79.0237 L-107.372 -81.0284 L-107.375 -83.0331 L-107.378 -85.0377 L-107.381 -87.0424 L-107.384 -89.0471 L-107.387 -91.0518 L-107.39 -93.0564 L-107.393 -95.0611 L-107.396 -97.0658 L-107.399 -99.0704 L-107.402 -101.075 L-107.405 -103.08 L-107.408 -105.084 L-107.411 -107.089 L-105.406 -107.092 L-103.402 -107.095 L-101.397 -107.098 L-99.3922 -107.101 L-97.3875 -107.104 L-95.3828 -107.107 L-93.3782 -107.11 L-91.3735 -107.113 L-89.3688 -107.116 L-87.3641 -107.119 L-85.3595 -107.122 L-83.3548 -107.125 L-81.3501 -107.128 L-79.3455 -107.131 L-77.3408 -107.134 L-75.3361 -107.137 L-73.3314 -107.14 L-71.3268 -107.143 L-69.3221 -107.146 L-67.3174 -107.149 L-65.3127 -107.152 L-63.3081 -107.155 L-61.3034 -107.158 L-59.2987 -107.161 L-57.2941 -107.164 L-55.2894 -107.167 L-53.2847 -107.17 L-51.28 -107.173 L-49.2754 -107.176 L-47.2707 -107.179 L-45.266 -107.182 L-43.2613 -107.185 L-41.2567 -107.188 L-39.252 -107.191 L-37.2473 -107.194 L-35.2426 -107.197 L-33.238 -107.2 L-31.2333 -107.203 L-29.2286 -107.206 L-27.224 -107.209 L-25.2193 -107.212 L-23.2146 -107.215 L-21.2099 -107.218 L-19.2053 -107.221 L-17.2006 -107.224 L-15.1959 -107.227 L-13.1912 -107.23 L-11.1866 -107.233 L-9.1819 -107.236 L-7.17723 -107.239 L-5.17256 -107.242 L-3.16788 -107.245 L-1.16321 -107.248 L0.841463 -107.252 L2.84614 -107.255 L4.85081 -107.258 L6.85548 -107.261 L8.86015 -107.264 L10.8648 -107.267 L12.8695 -107.27 L14.8742 -107.273 L16.8788 -107.276 L18.8835 -107.279 L20.8882 -107.282 L22.8929 -107.285 L24.8975 -107.288 L26.9022 -107.291 L28.9069 -107.294 L30.9116 -107.297 L32.9162 -107.3 L34.9209 -107.303 L36.9256 -107.306 L38.9302 -107.309 L40.9349 -107.312 L42.9396 -107.315 L44.9443 -107.318 L46.9489 -107.321 L48.9536 -107.324 L50.9583 -107.327 L52.963 -107.33 L54.9676 -107.333 L56.9723 -107.336 L58.977 -107.339 L60.9816 -107.342 L62.9863 -107.345 L64.991 -107.348 L66.9957 -107.351 L69.0003 -107.354 L71.005 -107.357 L73.0097 -107.36 L75.0144 -107.363 L77.019 -107.366 L79.0237 -107.369 L81.0284 -107.372 L83.0331 -107.375 L85.0377 -107.378 L87.0424 -107.381 L89.0471 -107.384 L91.0517 -107.387 L93.0564 -107.39 L95.0611 -107.393 L97.0658 -107.396 L99.0704 -107.399 L101.075 -107.402 L103.08 -107.405 L105.084 -107.408 L107.089 -107.411 L107.092 -105.406 L107.095 -103.402 L107.098 -101.397 L107.101 -99.3922 L107.104 -97.3875 L107.107 -95.3828 L107.11 -93.3782 L107.113 -91.3735 L107.116 -89.3688 L107.119 -87.3642 L107.122 -85.3595 L107.125 -83.3548 L107.128 -81.3501 L107.131 -79.3455 L107.134 -77.3408 L107.137 -75.3361 L107.14 -73.3314 L107.143 -71.3268 L107.146 -69.3221 L107.149 -67.3174 L107.152 -65.3128 L107.155 -63.3081 L107.158 -61.3034 L107.161 -59.2987 L107.164 -57.2941 L107.167 -55.2894 L107.17 -53.2847 L107.173 -51.28 L107.176 -49.2754 L107.179 -47.2707 L107.182 -45.266 L107.185 -43.2613 L107.188 -41.2567 L107.191 -39.252 L107.194 -37.2473 L107.197 -35.2427 L107.2 -33.238 L107.203 -31.2333 L107.206 -29.2286 L107.209 -27.224 L107.212 -25.2193 L107.215 -23.2146 L107.218 -21.2099 L107.221 -19.2053 L107.224 -17.2006 L107.227 -15.1959 L107.23 -13.1913 L107.233 -11.1866 L107.236 -9.18191 L107.239 -7.17724 L107.242 -5.17256 L107.245 -3.16789 L107.248 -1.16322 L107.251 0.841455 L107.255 2.84613 L107.258 4.8508 L107.261 6.85547 L107.264 8.86015 L107.267 10.8648 L107.27 12.8695 L107.273 14.8742 L107.276 16.8788 L107.279 18.8835 L107.282 20.8882 L107.285 22.8929 L107.288 24.8975 L107.291 26.9022 L107.294 28.9069 L107.297 30.9115 L107.3 32.9162 L107.303 34.9209 L107.306 36.9256 L107.309 38.9302 L107.312 40.9349 L107.315 42.9396 L107.318 44.9443 L107.321 46.9489 L107.324 48.9536 L107.327 50.9583 L107.33 52.963 L107.333 54.9676 L107.336 56.9723 L107.339 58.977 L107.342 60.9816 L107.345 62.9863 L107.348 64.991 L107.351 66.9957 L107.354 69.0003 L107.357 71.005 L107.36 73.0097 L107.363 75.0144 L107.366 77.019 L107.369 79.0237 L107.372 81.0284 L107.375 83.033 L107.378 85.0377 L107.381 87.0424 L107.384 89.0471 L107.387 91.0517 L107.39 93.0564 L107.393 95.0611 L107.396 97.0658 L107.399 99.0704 L107.402 101.075 L107.405 103.08 L107.408 105.084 L107.411 107.089 Z " />
<path stroke="rgb(169,255,187)" stroke-opacity="1" fill="rgb(169,255,187)" fill-opacity="1" id="scalebar" d="M-3.69904 -94.609 L-1.65554 -94.609 L0.387962 -94.609 L2.43146 -94.609 L4.47496 -94.609 L4.47496 -92.6686 L4.47496 -90.7281 L4.47496 -88.7876 L4.47496 -86.8472 L4.47496 -84.9067 L4.47496 -82.9663 L4.47496 -81.0258 L4.47496 -79.0853 L4.47496 -77.1449 L4.47496 -75.2044 L4.47496 -73.2639 L4.47496 -71.3235 L4.47496 -69.383 L2.43146 -69.383 L0.387962 -69.383 L-1.65554 -69.383 L-3.69904 -69.383 L-3.69904 -71.3235 L-3.69904 -73.2639 L-3.69904 -75.2044 L-3.69904 -77.1449 L-3.69904 -79.0853 L-3.69904 -81.0258 L-3.69904 -82.9663 L-3.69904 -84.9067 L-3.69904 -86.8472 L-3.69904 -88.7876 L-3.69904 -90.7281 L-3.69904 -92.6686 L-3.69904 -94.609 Z " />
<path stroke="rgb(200,255,200)" stroke-opacity="1" fill="rgb(200,255,200)" fill-opacity="1" id="scaleslider" d="M-6.69904 -76.8417 L-4.67418 -76.8417 L-2.64932 -76.8417 L-0.624466 -76.8417 L1.40039 -76.8417 L3.42525 -76.8417 L5.4501 -76.8417 L7.47496 -76.8417 L7.47496 -75.115 L7.47496 -73.3884 L7.47496 -71.6617 L5.4501 -71.6617 L3.42525 -71.6617 L1.40039 -71.6617 L-0.624466 -71.6617 L-2.64932 -71.6617 L-4.67418 -71.6617 L-6.69904 -71.6617 L-6.69904 -73.3884 L-6.69904 -75.115 L-6.69904 -76.8417 Z " />
<path stroke="rgb(255,134,106)" stroke-opacity="1" fill="rgb(255,134,106)" fill-opacity="1" id="tranbar" d="M-49.142 -86.146 L-47.0675 -86.146 L-44.993 -86.146 L-42.9185 -86.146 L-40.844 -86.146 L-40.844 -88.2208 L-40.844 -90.2955 L-40.844 -92.3703 L-40.844 -94.445 L-38.7685 -94.445 L-36.693 -94.445 L-34.6175 -94.445 L-32.542 -94.445 L-32.542 -92.3703 L-32.542 -90.2955 L-32.542 -88.2208 L-32.542 -86.146 L-30.4673 -86.146 L-28.3925 -86.146 L-26.3178 -86.146 L-24.243 -86.146 L-24.243 -84.0715 L-24.243 -81.997 L-24.243 -79.9225 L-24.243 -77.848 L-26.3178 -77.848 L-28.3925 -77.848 L-30.4673 -77.848 L-32.542 -77.848 L-32.542 -75.773 L-32.542 -73.698 L-32.542 -71.623 L-32.542 -69.548 L-34.6175 -69.548 L-36.693 -69.548 L-38.7685 -69.548 L-40.844 -69.548 L-40.844 -71.623 L-40.844 -73.698 L-40.844 -75.773 L-40.844 -77.848 L-42.9185 -77.848 L-44.993 -77.848 L-47.0675 -77.848 L-49.142 -77.848 L-49.142 -79.9225 L-49.142 -81.997 L-49.142 -84.0715 L-49.142 -86.146 Z " />
<path stroke="rgb(255,250,159)" stroke-opacity="1" fill="rgb(255,250,159)" fill-opacity="1" id="translider" d="M-39.248 -84.553 L-37.5447 -84.553 L-35.8414 -84.553 L-34.138 -84.553 L-34.138 -82.85 L-34.138 -81.147 L-34.138 -79.444 L-35.8414 -79.444 L-37.5447 -79.444 L-39.248 -79.444 L-39.248 -81.147 L-39.248 -82.85 L-39.248 -84.553 Z " />
<path stroke="rgb(254,204,128)" stroke-opacity="1" fill="rgb(254,204,128)" fill-opacity="1" id="rotate" d="M46.6273 -82.4065 L45.7869 -80.669 L44.9465 -78.9315 L44.1062 -77.1941 L43.2658 -75.4566 L42.4254 -73.7191 L40.5003 -73.5784 L38.5752 -73.4378 L36.6502 -73.2971 L34.7251 -73.1564 L32.8 -73.0157 L31.7155 -74.6126 L30.6309 -76.2096 L29.5464 -77.8065 L28.4619 -79.4034 L27.3773 -81.0003 L28.2179 -82.7379 L29.0584 -84.4755 L29.899 -86.213 L30.7395 -87.9506 L31.58 -89.6882 L33.505 -89.8288 L35.4299 -89.9693 L37.3548 -90.1099 L39.2797 -90.2505 L41.2046 -90.391 L42.2891 -88.7941 L43.3737 -87.1972 L44.4582 -85.6003 L45.5428 -84.0034 L46.6273 -82.4065 Z " />
<path stroke="rgb(200,255,200)" stroke-opacity="1" fill="rgb(200,255,200)" fill-opacity="1" id="tri_0" d="M5.28509 -52.4867 L6.32751 -52.3265 L7.36994 -52.1663 L8.41237 -52.006 L9.4548 -51.8458 L10.4972 -51.6855 L9.83757 -50.8629 L9.17792 -50.0403 L8.51826 -49.2176 L7.85861 -48.395 L7.19895 -47.5724 L6.81618 -48.5553 L6.43341 -49.5381 L6.05063 -50.521 L5.66786 -51.5039 L5.28509 -52.4867 Z " />
<path stroke="rgb(200,255,200)" stroke-opacity="1" fill="rgb(200,255,200)" fill-opacity="1" id="tri_0_18_" d="M-1.35016 -44.2301 L-0.307923 -44.0704 L0.734314 -43.9106 L1.77655 -43.7509 L2.81879 -43.5911 L3.86102 -43.4314 L3.20135 -42.6085 L2.54167 -41.7856 L1.882 -40.9628 L1.22232 -40.1399 L0.562642 -39.317 L0.180081 -40.2997 L-0.202478 -41.2823 L-0.585038 -42.2649 L-0.967598 -43.2475 L-1.35016 -44.2301 Z " />
<path stroke="rgb(200,255,200)" stroke-opacity="1" fill="rgb(200,255,200)" fill-opacity="1" id="tri_1_16_" d="M7.44808 -42.3139 L8.48046 -42.1935 L9.51284 -42.0732 L10.5452 -41.9528 L11.5776 -41.8324 L12.61 -41.7121 L11.9895 -40.8782 L11.3691 -40.0443 L10.7486 -39.2103 L10.1282 -38.3764 L9.50773 -37.5425 L9.0958 -38.4968 L8.68387 -39.4511 L8.27194 -40.4054 L7.86001 -41.3596 L7.44808 -42.3139 Z " />
<path stroke="rgb(200,255,200)" stroke-opacity="1" fill="rgb(200,255,200)" fill-opacity="1" id="tri_0_17_" d="M9.51652 -43.1482 L8.47407 -43.3082 L7.43162 -43.4682 L6.38917 -43.6282 L5.34672 -43.7882 L4.30427 -43.9482 L4.96395 -44.7711 L5.62363 -45.594 L6.2833 -46.4168 L6.94298 -47.2397 L7.60265 -48.0626 L7.98543 -47.0797 L8.3682 -46.0968 L8.75097 -45.114 L9.13375 -44.1311 L9.51652 -43.1482 Z " />
<path stroke="rgb(200,255,200)" stroke-opacity="1" fill="rgb(200,255,200)" fill-opacity="1" id="tri_0_16_" d="M-7.98638 -35.9733 L-6.9437 -35.8133 L-5.90101 -35.6533 L-4.85833 -35.4933 L-3.81564 -35.3332 L-2.77295 -35.1732 L-3.43306 -34.3503 L-4.09317 -33.5274 L-4.75328 -32.7044 L-5.41339 -31.8815 L-6.0735 -31.0586 L-6.45608 -32.0416 L-6.83865 -33.0245 L-7.22123 -34.0074 L-7.60381 -34.9904 L-7.98638 -35.9733 Z " />
<path stroke="rgb(200,255,200)" stroke-opacity="1" fill="rgb(200,255,200)" fill-opacity="1" id="tri_1_15_" d="M1.20749 -33.9369 L2.24008 -33.8169 L3.27267 -33.6968 L4.30526 -33.5768 L5.33784 -33.4567 L6.37043 -33.3367 L5.74973 -32.5026 L5.12904 -31.6684 L4.50834 -30.8343 L3.88764 -30.0002 L3.26694 -29.166 L2.85505 -30.1202 L2.44316 -31.0744 L2.03127 -32.0286 L1.61938 -32.9828 L1.20749 -33.9369 Z " />
<path stroke="rgb(200,255,200)" stroke-opacity="1" fill="rgb(200,255,200)" fill-opacity="1" id="tri_0_15_" d="M2.88155 -34.8921 L1.83889 -35.0518 L0.796216 -35.2115 L-0.246453 -35.3712 L-1.28912 -35.5309 L-2.33179 -35.6906 L-1.67168 -36.5135 L-1.01157 -37.3364 L-0.351464 -38.1593 L0.308645 -38.9823 L0.968754 -39.8052 L1.35131 -38.8226 L1.73387 -37.84 L2.11643 -36.8573 L2.49899 -35.8747 L2.88155 -34.8921 Z " />
<path stroke="rgb(200,255,200)" stroke-opacity="1" fill="rgb(200,255,200)" fill-opacity="1" id="tri_2_14_" d="M10.4592 -32.6691 L11.4827 -32.5813 L12.5061 -32.4935 L13.5295 -32.4057 L14.5529 -32.3178 L15.5764 -32.23 L14.9881 -31.3878 L14.3998 -30.5457 L13.8116 -29.7035 L13.2233 -28.8613 L12.635 -28.0191 L12.1999 -28.9491 L11.7647 -29.8791 L11.3295 -30.8091 L10.8944 -31.7391 L10.4592 -32.6691 Z " />
<path stroke="rgb(200,255,200)" stroke-opacity="1" fill="rgb(200,255,200)" fill-opacity="1" id="tri_1_14_" d="M11.9512 -33.2643 L10.9186 -33.3845 L9.88596 -33.5046 L8.85333 -33.6248 L7.8207 -33.7449 L6.78807 -33.8651 L7.40877 -34.6992 L8.02947 -35.5333 L8.65017 -36.3675 L9.27086 -37.2016 L9.89156 -38.0357 L10.3035 -37.0814 L10.7154 -36.1272 L11.1274 -35.1729 L11.5393 -34.2186 L11.9512 -33.2643 Z " />
<path stroke="rgb(200,255,200)" stroke-opacity="1" fill="rgb(200,255,200)" fill-opacity="1" id="tri_0_14_" d="M-14.6248 -27.7145 L-13.582 -27.5546 L-12.5393 -27.3947 L-11.4965 -27.2348 L-10.4538 -27.0749 L-9.41105 -26.9151 L-10.0711 -26.0924 L-10.7312 -25.2697 L-11.3913 -24.447 L-12.0514 -23.6243 L-12.7115 -22.8016 L-13.0941 -23.7842 L-13.4768 -24.7668 L-13.8595 -25.7494 L-14.2421 -26.7319 L-14.6248 -27.7145 Z " />
<path stroke="rgb(200,255,200)" stroke-opacity="1" fill="rgb(200,255,200)" fill-opacity="1" id="tri_1_13_" d="M-5.03448 -25.563 L-4.00188 -25.4424 L-2.96927 -25.3218 L-1.93667 -25.2011 L-0.904068 -25.0805 L0.128534 -24.9599 L-0.491919 -24.126 L-1.11237 -23.2921 L-1.73282 -22.4582 L-2.35328 -21.6243 L-2.97373 -20.7904 L-3.38588 -21.7449 L-3.79803 -22.6994 L-4.21018 -23.6539 L-4.62233 -24.6085 L-5.03448 -25.563 Z " />
<path stroke="rgb(200,255,200)" stroke-opacity="1" fill="rgb(200,255,200)" fill-opacity="1" id="tri_0_13_" d="M-3.75581 -26.6325 L-4.79848 -26.7928 L-5.84114 -26.9531 L-6.8838 -27.1133 L-7.92646 -27.2736 L-8.96913 -27.4338 L-8.30904 -28.2565 L-7.64895 -29.0792 L-6.98887 -29.9019 L-6.32878 -30.7246 L-5.66869 -31.5473 L-5.28612 -30.5643 L-4.90354 -29.5814 L-4.52097 -28.5984 L-4.13839 -27.6155 L-3.75581 -26.6325 Z " />
<path stroke="rgb(200,255,200)" stroke-opacity="1" fill="rgb(200,255,200)" fill-opacity="1" id="tri_2_13_" d="M4.54614 -24.2083 L5.56929 -24.1204 L6.59244 -24.0324 L7.61558 -23.9445 L8.63873 -23.8565 L9.66188 -23.7686 L9.07379 -22.9265 L8.4857 -22.0844 L7.89762 -21.2423 L7.30953 -20.4002 L6.72145 -19.5581 L6.28639 -20.4881 L5.85133 -21.4182 L5.41627 -22.3482 L4.9812 -23.2783 L4.54614 -24.2083 Z " />
<path stroke="rgb(200,255,200)" stroke-opacity="1" fill="rgb(200,255,200)" fill-opacity="1" id="tri_1_12_" d="M5.71063 -24.888 L4.67829 -25.0082 L3.64595 -25.1285 L2.61361 -25.2488 L1.58126 -25.369 L0.548919 -25.4893 L1.16937 -26.3232 L1.78982 -27.1571 L2.41028 -27.991 L3.03073 -28.8249 L3.65118 -29.6589 L4.06307 -28.7047 L4.47496 -27.7505 L4.88685 -26.7963 L5.29874 -25.8421 L5.71063 -24.888 Z " />
<path stroke="rgb(200,255,200)" stroke-opacity="1" fill="rgb(200,255,200)" fill-opacity="1" id="tri_3_12_" d="M14.1128 -23.449 L15.1281 -23.3872 L16.1434 -23.3254 L17.1587 -23.2635 L18.174 -23.2017 L19.1893 -23.1399 L18.6283 -22.2915 L18.0673 -21.4432 L17.5063 -20.5948 L16.9453 -19.7464 L16.3842 -18.898 L15.9299 -19.8082 L15.4757 -20.7184 L15.0214 -21.6286 L14.5671 -22.5388 L14.1128 -23.449 Z " />
<path stroke="rgb(200,255,200)" stroke-opacity="1" fill="rgb(200,255,200)" fill-opacity="1" id="tri_2_12_" d="M15.1765 -23.8646 L14.1533 -23.9525 L13.13 -24.0404 L12.1068 -24.1283 L11.0835 -24.2162 L10.0603 -24.3041 L10.6484 -25.1462 L11.2365 -25.9883 L11.8246 -26.8304 L12.4126 -27.6725 L13.0007 -28.5146 L13.4359 -27.5846 L13.871 -26.6546 L14.3062 -25.7246 L14.7413 -24.7946 L15.1765 -23.8646 Z " />
<path stroke="rgb(200,255,200)" stroke-opacity="1" fill="rgb(200,255,200)" fill-opacity="1" id="tri_0_12_" d="M-21.2587 -19.4587 L-20.2166 -19.2987 L-19.1745 -19.1387 L-18.1324 -18.9787 L-17.0903 -18.8186 L-16.0481 -18.6586 L-16.708 -17.8358 L-17.3678 -17.013 L-18.0276 -16.1902 L-18.6874 -15.3674 L-19.3472 -14.5446 L-19.7295 -15.5274 L-20.1118 -16.5102 L-20.4941 -17.4931 L-20.8764 -18.4759 L-21.2587 -19.4587 Z " />
<path stroke="rgb(200,255,200)" stroke-opacity="1" fill="rgb(200,255,200)" fill-opacity="1" id="tri_1_11_" d="M-11.2759 -17.1864 L-10.2435 -17.0663 L-9.21114 -16.9461 L-8.17875 -16.826 L-7.14635 -16.7059 L-6.11395 -16.5857 L-6.73446 -15.7517 L-7.35497 -14.9176 L-7.97547 -14.0836 L-8.59598 -13.2495 L-9.21649 -12.4155 L-9.62838 -13.3697 L-10.0403 -14.3239 L-10.4522 -15.278 L-10.864 -16.2322 L-11.2759 -17.1864 Z " />
<path stroke="rgb(200,255,200)" stroke-opacity="1" fill="rgb(200,255,200)" fill-opacity="1" id="tri_0_11_" d="M-10.3933 -18.3762 L-11.4358 -18.5359 L-12.4782 -18.6957 L-13.5207 -18.8555 L-14.5632 -19.0152 L-15.6056 -19.175 L-14.9458 -19.9978 L-14.286 -20.8206 L-13.6262 -21.6434 L-12.9664 -22.4662 L-12.3066 -23.2891 L-11.9239 -22.3065 L-11.5413 -21.3239 L-11.1586 -20.3413 L-10.7759 -19.3588 L-10.3933 -18.3762 Z " />
<path stroke="rgb(200,255,200)" stroke-opacity="1" fill="rgb(200,255,200)" fill-opacity="1" id="tri_2_11_" d="M-1.37026 -15.7485 L-0.346799 -15.6603 L0.676664 -15.5722 L1.70013 -15.4841 L2.72359 -15.3959 L3.74705 -15.3078 L3.15897 -14.4659 L2.57089 -13.624 L1.98281 -12.7822 L1.39473 -11.9403 L0.806655 -11.0984 L0.371272 -12.0284 L-0.0641119 -12.9584 L-0.499496 -13.8885 L-0.934879 -14.8185 L-1.37026 -15.7485 Z " />
<path stroke="rgb(200,255,200)" stroke-opacity="1" fill="rgb(200,255,200)" fill-opacity="1" id="tri_1_10_" d="M-0.531 -16.5122 L-1.56366 -16.6327 L-2.59632 -16.7532 L-3.62897 -16.8737 L-4.66163 -16.9941 L-5.69429 -17.1146 L-5.07378 -17.9487 L-4.45327 -18.7827 L-3.83277 -19.6168 L-3.21226 -20.4508 L-2.59175 -21.2848 L-2.1796 -20.3303 L-1.76745 -19.3758 L-1.3553 -18.4213 L-0.94315 -17.4668 L-0.531 -16.5122 Z " />
<path stroke="rgb(200,255,200)" stroke-opacity="1" fill="rgb(200,255,200)" fill-opacity="1" id="tri_3_11_" d="M8.46303 -14.9275 L9.47824 -14.8654 L10.4935 -14.8033 L11.5087 -14.7412 L12.5239 -14.6791 L13.5391 -14.6171 L12.9778 -13.7688 L12.4165 -12.9205 L11.8552 -12.0722 L11.2939 -11.2239 L10.7326 -10.3756 L10.2787 -11.286 L9.82479 -12.1964 L9.37087 -13.1067 L8.91695 -14.0171 L8.46303 -14.9275 Z " />
<path stroke="rgb(200,255,200)" stroke-opacity="1" fill="rgb(200,255,200)" fill-opacity="1" id="tri_2_10_" d="M9.26198 -15.4043 L8.23884 -15.4925 L7.2157 -15.5806 L6.19256 -15.6688 L5.16942 -15.757 L4.14628 -15.8452 L4.73436 -16.687 L5.32244 -17.5289 L5.91052 -18.3708 L6.4986 -19.2127 L7.08668 -20.0545 L7.52174 -19.1245 L7.9568 -18.1944 L8.39186 -17.2644 L8.82692 -16.3343 L9.26198 -15.4043 Z " />
<path stroke="rgb(200,255,200)" stroke-opacity="1" fill="rgb(200,255,200)" fill-opacity="1" id="tri_4_10_" d="M18.247 -14.547 L19.2556 -14.5051 L20.2641 -14.4632 L21.2727 -14.4213 L22.2812 -14.3795 L23.2898 -14.3376 L22.749 -13.4853 L22.2082 -12.6331 L21.6675 -11.7808 L21.1267 -10.9285 L20.586 -10.0763 L20.1182 -10.9704 L19.6504 -11.8645 L19.1826 -12.7587 L18.7148 -13.6528 L18.247 -14.547 Z " />
<path stroke="rgb(200,255,200)" stroke-opacity="1" fill="rgb(200,255,200)" fill-opacity="1" id="tri_3_10_" d="M19.0016 -14.8481 L17.986 -14.91 L16.9704 -14.9719 L15.9549 -15.0338 L14.9393 -15.0957 L13.9237 -15.1576 L14.485 -16.0059 L15.0463 -16.8542 L15.6076 -17.7025 L16.1689 -18.5507 L16.7302 -19.399 L17.1845 -18.4888 L17.6388 -17.5786 L18.093 -16.6685 L18.5473 -15.7583 L19.0016 -14.8481 Z " />
<path stroke="rgb(200,255,200)" stroke-opacity="1" fill="rgb(200,255,200)" fill-opacity="1" id="tri_0_10_" d="M-27.8959 -11.2016 L-26.8532 -11.0417 L-25.8104 -10.8818 L-24.7677 -10.7219 L-23.7249 -10.562 L-22.6822 -10.4021 L-23.3425 -9.57912 L-24.0028 -8.75612 L-24.6631 -7.93312 L-25.3234 -7.11012 L-25.9837 -6.28712 L-26.3661 -7.27001 L-26.7486 -8.2529 L-27.131 -9.23579 L-27.5135 -10.2187 L-27.8959 -11.2016 Z " />
<path stroke="rgb(200,255,200)" stroke-opacity="1" fill="rgb(200,255,200)" fill-opacity="1" id="tri_1_9_" d="M-17.5163 -8.81078 L-16.4838 -8.69059 L-15.4512 -8.5704 L-14.4187 -8.45021 L-13.3861 -8.33002 L-12.3536 -8.20983 L-12.9742 -7.37588 L-13.5947 -6.54193 L-14.2153 -5.70798 L-14.8358 -4.87403 L-15.4564 -4.04008 L-15.8683 -4.99422 L-16.2803 -5.94836 L-16.6923 -6.9025 L-17.1043 -7.85664 L-17.5163 -8.81078 Z " />
<path stroke="rgb(200,255,200)" stroke-opacity="1" fill="rgb(200,255,200)" fill-opacity="1" id="tri_0_9_" d="M-17.0287 -10.1193 L-18.0713 -10.2791 L-19.1139 -10.439 L-20.1565 -10.5988 L-21.1991 -10.7586 L-22.2418 -10.9184 L-21.5814 -11.7414 L-20.9211 -12.5644 L-20.2608 -13.3874 L-19.6005 -14.2104 L-18.9402 -15.0334 L-18.5579 -14.0506 L-18.1756 -13.0678 L-17.7933 -12.085 L-17.411 -11.1021 L-17.0287 -10.1193 Z " />
<path stroke="rgb(200,255,200)" stroke-opacity="1" fill="rgb(200,255,200)" fill-opacity="1" id="tri_2_9_" d="M-7.28431 -7.28718 L-6.26107 -7.19928 L-5.23783 -7.11138 L-4.21459 -7.02348 L-3.19135 -6.93558 L-2.16811 -6.84768 L-2.75592 -6.00547 L-3.34374 -5.16327 L-3.93155 -4.32106 L-4.51936 -3.47886 L-5.10717 -2.63666 L-5.5426 -3.56676 L-5.97803 -4.49686 L-6.41345 -5.42697 L-6.84888 -6.35707 L-7.28431 -7.28718 Z " />
<path stroke="rgb(200,255,200)" stroke-opacity="1" fill="rgb(200,255,200)" fill-opacity="1" id="tri_1_8_" d="M-6.7729 -8.13766 L-7.80534 -8.25789 L-8.83778 -8.37812 L-9.87022 -8.49835 L-10.9027 -8.61858 L-11.9351 -8.73881 L-11.3145 -9.57276 L-10.694 -10.4067 L-10.0735 -11.2407 L-9.4529 -12.0746 L-8.83235 -12.9086 L-8.42046 -11.9544 L-8.00857 -11.0002 L-7.59668 -10.046 L-7.18479 -9.09184 L-6.7729 -8.13766 Z " />
<path stroke="rgb(200,255,200)" stroke-opacity="1" fill="rgb(200,255,200)" fill-opacity="1" id="tri_3_9_" d="M2.8131 -6.40499 L3.82836 -6.34327 L4.84362 -6.28155 L5.85888 -6.21983 L6.87414 -6.15812 L7.8894 -6.0964 L7.32801 -5.24806 L6.76663 -4.39973 L6.20524 -3.55139 L5.64385 -2.70306 L5.08247 -1.85473 L4.62859 -2.76478 L4.17472 -3.67483 L3.72085 -4.58488 L3.26697 -5.49494 L2.8131 -6.40499 Z " />
<path stroke="rgb(200,255,200)" stroke-opacity="1" fill="rgb(200,255,200)" fill-opacity="1" id="tri_2_8_" d="M3.34754 -6.9447 L2.32435 -7.0325 L1.30115 -7.12031 L0.277954 -7.20812 L-0.745242 -7.29592 L-1.76844 -7.38373 L-1.18062 -8.22594 L-0.592812 -9.06814 L-0.00500048 -9.91034 L0.582811 -10.7525 L1.17062 -11.5948 L1.60601 -10.6647 L2.04139 -9.73473 L2.47677 -8.80472 L2.91216 -7.87471 L3.34754 -6.9447 Z " />
<path stroke="rgb(200,255,200)" stroke-opacity="1" fill="rgb(200,255,200)" fill-opacity="1" id="tri_4_9_" d="M12.8061 -5.98129 L13.8143 -5.93927 L14.8226 -5.89726 L15.8309 -5.85524 L16.8392 -5.81322 L17.8475 -5.7712 L17.3071 -4.9189 L16.7667 -4.06659 L16.2263 -3.21428 L15.6859 -2.36198 L15.1455 -1.50967 L14.6776 -2.40399 L14.2097 -3.29832 L13.7418 -4.19264 L13.2739 -5.08697 L12.8061 -5.98129 Z " />
<path stroke="rgb(200,255,200)" stroke-opacity="1" fill="rgb(200,255,200)" fill-opacity="1" id="tri_3_8_" d="M13.3495 -6.32548 L12.3342 -6.38751 L11.3189 -6.44955 L10.3036 -6.51159 L9.28826 -6.57363 L8.27295 -6.63566 L8.83434 -7.484 L9.39572 -8.33233 L9.95711 -9.18067 L10.5185 -10.029 L11.0799 -10.8773 L11.5338 -9.96696 L11.9877 -9.05659 L12.4416 -8.14622 L12.8956 -7.23585 L13.3495 -6.32548 Z " />
<path stroke="rgb(200,255,200)" stroke-opacity="1" fill="rgb(200,255,200)" fill-opacity="1" id="tri_5_8_" d="M22.7263 -5.86182 L23.7288 -5.83532 L24.7314 -5.80883 L25.734 -5.78234 L26.7366 -5.75584 L27.7392 -5.72935 L27.2148 -4.8744 L26.6904 -4.01946 L26.166 -3.16451 L25.6416 -2.30957 L25.1172 -1.45462 L24.639 -2.33606 L24.1608 -3.2175 L23.6826 -4.09894 L23.2044 -4.98038 L22.7263 -5.86182 Z " />
<path stroke="rgb(200,255,200)" stroke-opacity="1" fill="rgb(200,255,200)" fill-opacity="1" id="tri_4_8_" d="M23.2613 -6.10667 L22.2531 -6.14851 L21.2449 -6.19035 L20.2367 -6.23219 L19.2285 -6.27403 L18.2204 -6.31586 L18.7608 -7.16817 L19.3012 -8.02047 L19.8416 -8.87278 L20.382 -9.72509 L20.9224 -10.5774 L21.3901 -9.68325 L21.8579 -8.78911 L22.3257 -7.89496 L22.7935 -7.00082 L23.2613 -6.10667 Z " />
<path stroke="rgb(200,255,200)" stroke-opacity="1" fill="rgb(200,255,200)" fill-opacity="1" id="tri_0_8_" d="M-34.5343 -2.94455 L-33.4915 -2.78442 L-32.4488 -2.6243 L-31.4061 -2.46417 L-30.3634 -2.30405 L-29.3206 -2.14392 L-29.9806 -1.32118 L-30.6405 -0.498431 L-31.3005 0.324314 L-31.9604 1.14706 L-32.6204 1.96981 L-33.0032 0.986936 L-33.3859 0.00406575 L-33.7687 -0.978805 L-34.1515 -1.96168 L-34.5343 -2.94455 Z " />
<path stroke="rgb(200,255,200)" stroke-opacity="1" fill="rgb(200,255,200)" fill-opacity="1" id="tri_1_7_" d="M-23.7576 -0.436716 L-22.7252 -0.31621 L-21.6929 -0.195706 L-20.6606 -0.0752013 L-19.6283 0.0453033 L-18.5959 0.165808 L-19.2165 0.999429 L-19.8371 1.83305 L-20.4577 2.66667 L-21.0782 3.50029 L-21.6988 4.33391 L-22.1106 3.37979 L-22.5223 2.42566 L-22.9341 1.47154 L-23.3458 0.51741 L-23.7576 -0.436716 Z " />
<path stroke="rgb(200,255,200)" stroke-opacity="1" fill="rgb(200,255,200)" fill-opacity="1" id="tri_0_7_" d="M-23.6655 -1.86118 L-24.7079 -2.02132 L-25.7503 -2.18146 L-26.7927 -2.34161 L-27.8351 -2.50175 L-28.8775 -2.66189 L-28.2175 -3.48464 L-27.5576 -4.30738 L-26.8976 -5.13013 L-26.2377 -5.95287 L-25.5777 -6.77562 L-25.1953 -5.79273 L-24.8128 -4.80984 L-24.4304 -3.82696 L-24.048 -2.84407 L-23.6655 -1.86118 Z " />
<path stroke="rgb(200,255,200)" stroke-opacity="1" fill="rgb(200,255,200)" fill-opacity="1" id="tri_2_7_" d="M-13.1999 1.17314 L-12.1766 1.26132 L-11.1532 1.3495 L-10.1298 1.43768 L-9.10644 1.52586 L-8.08307 1.61404 L-8.67107 2.4561 L-9.25906 3.29816 L-9.84705 4.14023 L-10.435 4.98229 L-11.023 5.82435 L-11.4584 4.89411 L-11.8938 3.96387 L-12.3292 3.03363 L-12.7645 2.10338 L-13.1999 1.17314 Z " />
<path stroke="rgb(200,255,200)" stroke-opacity="1" fill="rgb(200,255,200)" fill-opacity="1" id="tri_1_6_" d="M-13.0138 0.238139 L-14.0464 0.117621 L-15.079 -0.00289633 L-16.1115 -0.123414 L-17.1441 -0.243931 L-18.1766 -0.364449 L-17.5561 -1.19807 L-16.9355 -2.03169 L-16.3149 -2.86531 L-15.6943 -3.69893 L-15.0738 -4.53256 L-14.6618 -3.57842 L-14.2498 -2.62428 L-13.8378 -1.67014 L-13.4258 -0.716 L-13.0138 0.238139 Z " />
<path stroke="rgb(200,255,200)" stroke-opacity="1" fill="rgb(200,255,200)" fill-opacity="1" id="tri_3_7_" d="M-2.83724 2.11759 L-1.82175 2.17954 L-0.806262 2.24149 L0.209226 2.30343 L1.22471 2.36538 L2.2402 2.42733 L1.67863 3.27552 L1.11706 4.12372 L0.555495 4.97192 L-0.00607327 5.82012 L-0.567642 6.66831 L-1.02156 5.75817 L-1.47548 4.84803 L-1.9294 3.93788 L-2.38332 3.02774 L-2.83724 2.11759 Z " />
<path stroke="rgb(200,255,200)" stroke-opacity="1" fill="rgb(200,255,200)" fill-opacity="1" id="tri_2_6_" d="M-2.56598 1.51692 L-3.5894 1.42888 L-4.61282 1.34084 L-5.63624 1.2528 L-6.65966 1.16475 L-7.68308 1.07671 L-7.09509 0.234649 L-6.5071 -0.607412 L-5.9191 -1.44947 L-5.33111 -2.29153 L-4.74312 -3.1336 L-4.30769 -2.20349 L-3.87226 -1.27339 L-3.43684 -0.343283 L-3.00141 0.586821 L-2.56598 1.51692 Z " />
<path stroke="rgb(200,255,200)" stroke-opacity="1" fill="rgb(200,255,200)" fill-opacity="1" id="tri_4_7_" d="M7.36419 2.58527 L8.3726 2.6271 L9.38102 2.66894 L10.3894 2.71077 L11.3978 2.75261 L12.4063 2.79444 L11.8659 3.64675 L11.3255 4.49905 L10.7851 5.35136 L10.2447 6.20366 L9.70427 7.05597 L9.23625 6.16183 L8.76823 5.26769 L8.30022 4.37355 L7.8322 3.47941 L7.36419 2.58527 Z " />
<path stroke="rgb(200,255,200)" stroke-opacity="1" fill="rgb(200,255,200)" fill-opacity="1" id="tri_3_6_" d="M7.69976 2.19606 L6.68432 2.1342 L5.66888 2.07235 L4.65343 2.01049 L3.63799 1.94864 L2.62255 1.88678 L3.18412 1.03858 L3.74569 0.190384 L4.30725 -0.657813 L4.86882 -1.50601 L5.43039 -2.35421 L5.88427 -1.44416 L6.33814 -0.534103 L6.79201 0.37595 L7.24589 1.286 L7.69976 2.19606 Z " />
<path stroke="rgb(200,255,200)" stroke-opacity="1" fill="rgb(200,255,200)" fill-opacity="1" id="tri_5_7_" d="M17.4464 2.7348 L18.4491 2.76147 L19.4517 2.78814 L20.4544 2.81482 L21.4571 2.84149 L22.4598 2.86816 L21.935 3.72321 L21.4102 4.57826 L20.8854 5.4333 L20.3606 6.28835 L19.8358 7.1434 L19.3579 6.26168 L18.88 5.37996 L18.4021 4.49824 L17.9243 3.61652 L17.4464 2.7348 Z " />
<path stroke="rgb(200,255,200)" stroke-opacity="1" fill="rgb(200,255,200)" fill-opacity="1" id="tri_4_6_" d="M17.8205 2.45913 L16.8123 2.41711 L15.804 2.37509 L14.7957 2.33308 L13.7874 2.29106 L12.7791 2.24904 L13.3195 1.39673 L13.8599 0.544427 L14.4003 -0.307878 L14.9407 -1.16018 L15.4811 -2.01249 L15.949 -1.11816 L16.4169 -0.223841 L16.8848 0.670483 L17.3527 1.56481 L17.8205 2.45913 Z " />
<path stroke="rgb(200,255,200)" stroke-opacity="1" fill="rgb(200,255,200)" fill-opacity="1" id="tri_6_6_" d="M27.4419 2.69174 L28.4406 2.70676 L29.4394 2.72177 L30.4381 2.73679 L31.4368 2.7518 L32.4355 2.76682 L31.9232 3.62393 L31.4109 4.48105 L30.8985 5.33816 L30.3862 6.19528 L29.8739 7.05239 L29.3875 6.18026 L28.9011 5.30813 L28.4147 4.436 L27.9283 3.56387 L27.4419 2.69174 Z " />
<path stroke="rgb(200,255,200)" stroke-opacity="1" fill="rgb(200,255,200)" fill-opacity="1" id="tri_5_6_" d="M27.8354 2.45221 L26.8325 2.42582 L25.8295 2.39943 L24.8265 2.37304 L23.8235 2.34665 L22.8205 2.32025 L23.3453 1.46521 L23.8701 0.610159 L24.3949 -0.244889 L24.9197 -1.09994 L25.4445 -1.95499 L25.9227 -1.07355 L26.4009 -0.192108 L26.8791 0.689331 L27.3573 1.57077 L27.8354 2.45221 Z " />
<path stroke="rgb(200,255,200)" stroke-opacity="1" fill="rgb(200,255,200)" fill-opacity="1" id="tri_0_6_" d="M-41.1705 5.31428 L-40.1279 5.47411 L-39.0853 5.63394 L-38.0427 5.79377 L-37 5.95359 L-35.9574 6.11342 L-36.6173 6.9366 L-37.2772 7.75978 L-37.9371 8.58296 L-38.597 9.40614 L-39.2569 10.2293 L-39.6396 9.24631 L-40.0223 8.2633 L-40.4051 7.2803 L-40.7878 6.29729 L-41.1705 5.31428 Z " />
<path stroke="rgb(200,255,200)" stroke-opacity="1" fill="rgb(200,255,200)" fill-opacity="1" id="tri_1_5_" d="M-29.9989 7.93995 L-28.9663 8.06 L-27.9337 8.18005 L-26.9011 8.3001 L-25.8685 8.42015 L-24.836 8.5402 L-25.4568 9.37404 L-26.0776 10.2079 L-26.6984 11.0417 L-27.3192 11.8756 L-27.9401 12.7094 L-28.3518 11.7555 L-28.7636 10.8016 L-29.1754 9.84773 L-29.5871 8.89384 L-29.9989 7.93995 Z " />
<path stroke="rgb(200,255,200)" stroke-opacity="1" fill="rgb(200,255,200)" fill-opacity="1" id="tri_0_5_" d="M-30.3017 6.39536 L-31.3443 6.23567 L-32.387 6.07598 L-33.4297 5.91629 L-34.4723 5.7566 L-35.515 5.5969 L-34.8551 4.77372 L-34.1952 3.95055 L-33.5353 3.12737 L-32.8754 2.30419 L-32.2155 1.48101 L-31.8328 2.46388 L-31.45 3.44675 L-31.0672 4.42962 L-30.6844 5.41249 L-30.3017 6.39536 Z " />
<path stroke="rgb(200,255,200)" stroke-opacity="1" fill="rgb(200,255,200)" fill-opacity="1" id="tri_2_5_" d="M-19.1158 9.63386 L-18.0924 9.72181 L-17.069 9.80976 L-16.0457 9.8977 L-15.0223 9.98565 L-13.9989 10.0736 L-14.5865 10.9157 L-15.1742 11.7578 L-15.7618 12.6 L-16.3494 13.4421 L-16.937 14.2842 L-17.3728 13.3541 L-17.8085 12.4241 L-18.2443 11.494 L-18.68 10.5639 L-19.1158 9.63386 Z " />
<path stroke="rgb(200,255,200)" stroke-opacity="1" fill="rgb(200,255,200)" fill-opacity="1" id="tri_1_4_" d="M-19.2566 8.61237 L-20.2891 8.49209 L-21.3217 8.37181 L-22.3543 8.25152 L-23.3869 8.13124 L-24.4194 8.01095 L-23.7986 7.17711 L-23.1778 6.34327 L-22.557 5.50943 L-21.9361 4.67559 L-21.3153 3.84174 L-20.9036 4.79587 L-20.4918 5.75 L-20.0801 6.70412 L-19.6683 7.65825 L-19.2566 8.61237 Z " />
<path stroke="rgb(200,255,200)" stroke-opacity="1" fill="rgb(200,255,200)" fill-opacity="1" id="tri_3_5_" d="M-8.48594 10.6388 L-7.47086 10.7008 L-6.45578 10.7628 L-5.4407 10.8249 L-4.42563 10.8869 L-3.41055 10.9489 L-3.97198 11.7974 L-4.53341 12.6459 L-5.09485 13.4944 L-5.65628 14.3428 L-6.21771 15.1913 L-6.67136 14.2808 L-7.125 13.3703 L-7.57865 12.4598 L-8.03229 11.5493 L-8.48594 10.6388 Z " />
<path stroke="rgb(200,255,200)" stroke-opacity="1" fill="rgb(200,255,200)" fill-opacity="1" id="tri_2_4_" d="M-8.48238 9.97731 L-9.50538 9.88919 L-10.5284 9.80107 L-11.5514 9.71294 L-12.5744 9.62482 L-13.5974 9.5367 L-13.0098 8.69458 L-12.4221 7.85246 L-11.8345 7.01034 L-11.2469 6.16822 L-10.6593 5.32611 L-10.2239 6.25635 L-9.78851 7.18659 L-9.35313 8.11683 L-8.91775 9.04707 L-8.48238 9.97731 Z " />
<path stroke="rgb(200,255,200)" stroke-opacity="1" fill="rgb(200,255,200)" fill-opacity="1" id="tri_4_5_" d="M1.92424 11.1535 L2.93256 11.1952 L3.94088 11.2368 L4.9492 11.2785 L5.95753 11.3201 L6.96585 11.3618 L6.42531 12.2141 L5.88478 13.0663 L5.34424 13.9186 L4.8037 14.7708 L4.26317 15.6231 L3.79538 14.7292 L3.3276 13.8353 L2.85981 12.9414 L2.39202 12.0474 L1.92424 11.1535 Z " />
<path stroke="rgb(200,255,200)" stroke-opacity="1" fill="rgb(200,255,200)" fill-opacity="1" id="tri_3_4_" d="M2.04982 10.7193 L1.03447 10.6576 L0.0191212 10.596 L-0.996231 10.5343 L-2.01158 10.4726 L-3.02693 10.411 L-2.4655 9.56249 L-1.90407 8.71401 L-1.34264 7.86554 L-0.781204 7.01707 L-0.219771 6.1686 L0.234149 7.07874 L0.688068 7.98889 L1.14199 8.89903 L1.59591 9.80918 L2.04982 10.7193 Z " />
<path stroke="rgb(200,255,200)" stroke-opacity="1" fill="rgb(200,255,200)" fill-opacity="1" id="tri_5_5_" d="M12.1649 11.3322 L13.1678 11.3587 L14.1708 11.3852 L15.1737 11.4118 L16.1767 11.4383 L17.1796 11.4648 L16.6549 12.32 L16.1302 13.1753 L15.6055 14.0305 L15.0808 14.8857 L14.5561 15.7409 L14.0778 14.8592 L13.5996 13.9774 L13.1214 13.0957 L12.6431 12.2139 L12.1649 11.3322 Z " />
<path stroke="rgb(200,255,200)" stroke-opacity="1" fill="rgb(200,255,200)" fill-opacity="1" id="tri_4_4_" d="M12.3796 11.0254 L11.3711 10.9836 L10.3625 10.9417 L9.35396 10.8998 L8.3454 10.8579 L7.33685 10.816 L7.87739 9.96378 L8.41792 9.11152 L8.95846 8.25926 L9.499 7.40699 L10.0395 6.55473 L10.5075 7.44887 L10.9756 8.34301 L11.4436 9.23715 L11.9116 10.1313 L12.3796 11.0254 Z " />
<path stroke="rgb(200,255,200)" stroke-opacity="1" fill="rgb(200,255,200)" fill-opacity="1" id="tri_6_5_" d="M22.2821 11.3106 L23.2804 11.3257 L24.2787 11.3408 L25.2771 11.3559 L26.2754 11.371 L27.2737 11.3862 L26.7616 12.2433 L26.2495 13.1004 L25.7374 13.9575 L25.2253 14.8146 L24.7132 15.6717 L24.227 14.7995 L23.7408 13.9272 L23.2545 13.055 L22.7683 12.1828 L22.2821 11.3106 Z " />
<path stroke="rgb(200,255,200)" stroke-opacity="1" fill="rgb(200,255,200)" fill-opacity="1" id="tri_5_4_" d="M22.5542 11.0504 L21.5516 11.0239 L20.549 10.9974 L19.5464 10.9709 L18.5439 10.9444 L17.5413 10.9179 L18.066 10.0627 L18.5907 9.20747 L19.1154 8.35225 L19.6401 7.49702 L20.1648 6.6418 L20.6427 7.52352 L21.1206 8.40524 L21.5984 9.28696 L22.0763 10.1687 L22.5542 11.0504 Z " />
<path stroke="rgb(200,255,200)" stroke-opacity="1" fill="rgb(200,255,200)" fill-opacity="1" id="tri_7_4_" d="M32.3172 11.1828 L33.3124 11.19 L34.3077 11.1973 L35.3029 11.2046 L36.2982 11.2118 L37.2934 11.2191 L36.7891 12.077 L36.2847 12.9349 L35.7804 13.7929 L35.276 14.6508 L34.7717 15.5087 L34.2808 14.6436 L33.7899 13.7784 L33.299 12.9132 L32.8081 12.048 L32.3172 11.1828 Z " />
<path stroke="rgb(200,255,200)" stroke-opacity="1" fill="rgb(200,255,200)" fill-opacity="1" id="tri_6_4_" d="M32.6237 10.9108 L31.6252 10.8958 L30.6267 10.8808 L29.6282 10.8657 L28.6297 10.8507 L27.6312 10.8357 L28.1433 9.97858 L28.6554 9.12148 L29.1675 8.26438 L29.6796 7.40727 L30.1917 6.55017 L30.6781 7.4223 L31.1645 8.29443 L31.6509 9.16656 L32.1373 10.0387 L32.6237 10.9108 Z " />
<path stroke="rgb(200,255,200)" stroke-opacity="1" fill="rgb(200,255,200)" fill-opacity="1" id="tri_0_4_" d="M-47.8083 13.5717 L-46.7656 13.7317 L-45.7229 13.8917 L-44.6803 14.0517 L-43.6376 14.2118 L-42.5949 14.3718 L-43.2547 15.1946 L-43.9145 16.0174 L-44.5743 16.8402 L-45.2341 17.663 L-45.8939 18.4858 L-46.2768 17.503 L-46.6597 16.5202 L-47.0426 15.5373 L-47.4254 14.5545 L-47.8083 13.5717 Z " />
<path stroke="rgb(200,255,200)" stroke-opacity="1" fill="rgb(200,255,200)" fill-opacity="1" id="tri_1_3_" d="M-36.2403 16.3138 L-35.2078 16.4344 L-34.1753 16.555 L-33.1429 16.6755 L-32.1104 16.7961 L-31.0779 16.9166 L-31.6986 17.7502 L-32.3192 18.5837 L-32.9398 19.4172 L-33.5604 20.2507 L-34.181 21.0843 L-34.5929 20.1302 L-35.0047 19.1761 L-35.4166 18.222 L-35.8284 17.2679 L-36.2403 16.3138 Z " />
<path stroke="rgb(200,255,200)" stroke-opacity="1" fill="rgb(200,255,200)" fill-opacity="1" id="tri_0_3_" d="M-36.9383 14.6544 L-37.9808 14.4942 L-39.0234 14.334 L-40.0659 14.1738 L-41.1084 14.0136 L-42.151 13.8534 L-41.4911 13.0306 L-40.8313 12.2077 L-40.1715 11.3849 L-39.5117 10.5621 L-38.8519 9.73933 L-38.4692 10.7223 L-38.0865 11.7053 L-37.7037 12.6884 L-37.321 13.6714 L-36.9383 14.6544 Z " />
<path stroke="rgb(200,255,200)" stroke-opacity="1" fill="rgb(200,255,200)" fill-opacity="1" id="tri_2_3_" d="M-25.0297 18.0951 L-24.0065 18.1831 L-22.9833 18.2711 L-21.9601 18.3592 L-20.9369 18.4472 L-19.9137 18.5352 L-20.5016 19.3775 L-21.0894 20.2197 L-21.6772 21.0619 L-22.265 21.9041 L-22.8528 22.7463 L-23.2882 21.816 L-23.7236 20.8858 L-24.1589 19.9555 L-24.5943 19.0253 L-25.0297 18.0951 Z " />
<path stroke="rgb(200,255,200)" stroke-opacity="1" fill="rgb(200,255,200)" fill-opacity="1" id="tri_1_2_" d="M-25.4976 16.988 L-26.53 16.8676 L-27.5623 16.7473 L-28.5947 16.6269 L-29.6271 16.5065 L-30.6595 16.3862 L-30.0389 15.5526 L-29.4183 14.7191 L-28.7976 13.8856 L-28.177 13.0521 L-27.5564 12.2185 L-27.1446 13.1724 L-26.7329 14.1263 L-26.3211 15.0802 L-25.9093 16.0341 L-25.4976 16.988 Z " />
<path stroke="rgb(200,255,200)" stroke-opacity="1" fill="rgb(200,255,200)" fill-opacity="1" id="tri_3_3_" d="M-14.1377 19.1624 L-13.1221 19.2242 L-12.1065 19.286 L-11.0909 19.3477 L-10.0752 19.4095 L-9.0596 19.4713 L-9.62149 20.3197 L-10.1834 21.1682 L-10.7453 22.0167 L-11.3072 22.8651 L-11.869 23.7136 L-12.3228 22.8034 L-12.7765 21.8931 L-13.2303 20.9829 L-13.684 20.0727 L-14.1377 19.1624 Z " />
<path stroke="rgb(200,255,200)" stroke-opacity="1" fill="rgb(200,255,200)" fill-opacity="1" id="tri_2_2_" d="M-14.3956 18.4375 L-15.4192 18.3496 L-16.4427 18.2618 L-17.4663 18.1739 L-18.4899 18.086 L-19.5134 17.9982 L-18.9256 17.156 L-18.3378 16.3138 L-17.75 15.4716 L-17.1622 14.6293 L-16.5744 13.7871 L-16.1386 14.7172 L-15.7029 15.6473 L-15.2671 16.5773 L-14.8314 17.5074 L-14.3956 18.4375 Z " />
<path stroke="rgb(200,255,200)" stroke-opacity="1" fill="rgb(200,255,200)" fill-opacity="1" id="tri_4_3_" d="M-3.51734 19.7191 L-2.50883 19.7611 L-1.50033 19.8031 L-0.491818 19.8451 L0.51669 19.8872 L1.5252 19.9292 L0.984885 20.7812 L0.444571 21.6332 L-0.0957427 22.4853 L-0.636057 23.3373 L-1.17637 24.1893 L-1.64457 23.2953 L-2.11276 22.4012 L-2.58095 21.5072 L-3.04915 20.6131 L-3.51734 19.7191 Z " />
<path stroke="rgb(200,255,200)" stroke-opacity="1" fill="rgb(200,255,200)" fill-opacity="1" id="tri_3_2_" d="M-3.6003 19.2426 L-4.61583 19.1805 L-5.63136 19.1185 L-6.64689 19.0565 L-7.66243 18.9944 L-8.67796 18.9324 L-8.11607 18.0839 L-7.55418 17.2354 L-6.9923 16.387 L-6.43041 15.5385 L-5.86852 14.69 L-5.41488 15.6005 L-4.96123 16.5111 L-4.50759 17.4216 L-4.05394 18.3321 L-3.6003 19.2426 Z " />
<path stroke="rgb(200,255,200)" stroke-opacity="1" fill="rgb(200,255,200)" fill-opacity="1" id="tri_5_3_" d="M6.88526 19.9291 L7.88776 19.9557 L8.89025 19.9822 L9.89274 20.0087 L10.8952 20.0353 L11.8977 20.0618 L11.3732 20.9168 L10.8488 21.7718 L10.3243 22.6268 L9.79977 23.4818 L9.27528 24.3368 L8.79728 23.4553 L8.31927 22.5737 L7.84127 21.6922 L7.36327 20.8107 L6.88526 19.9291 Z " />
<path stroke="rgb(200,255,200)" stroke-opacity="1" fill="rgb(200,255,200)" fill-opacity="1" id="tri_4_2_" d="M6.93826 19.5918 L5.93016 19.5499 L4.92206 19.5081 L3.91396 19.4662 L2.90586 19.4243 L1.89776 19.3824 L2.43807 18.5304 L2.97839 17.6783 L3.5187 16.8263 L4.05901 15.9743 L4.59933 15.1222 L5.06712 16.0162 L5.5349 16.9101 L6.00269 17.804 L6.47047 18.6979 L6.93826 19.5918 Z " />
<path stroke="rgb(200,255,200)" stroke-opacity="1" fill="rgb(200,255,200)" fill-opacity="1" id="tri_6_3_" d="M17.1196 19.9276 L18.118 19.943 L19.1165 19.9584 L20.115 19.9738 L21.1134 19.9891 L22.1119 20.0045 L21.5995 20.8614 L21.0872 21.7183 L20.5749 22.5752 L20.0626 23.4321 L19.5502 24.289 L19.0641 23.4167 L18.578 22.5444 L18.0918 21.6721 L17.6057 20.7999 L17.1196 19.9276 Z " />
<path stroke="rgb(200,255,200)" stroke-opacity="1" fill="rgb(200,255,200)" fill-opacity="1" id="tri_5_2_" d="M17.2743 19.6479 L16.2716 19.6211 L15.2688 19.5943 L14.2661 19.5676 L13.2634 19.5408 L12.2606 19.5141 L12.7851 18.6591 L13.3096 17.8041 L13.8341 16.9491 L14.3586 16.0941 L14.8831 15.2391 L15.3613 16.1209 L15.8396 17.0026 L16.3178 17.8844 L16.796 18.7661 L17.2743 19.6479 Z " />
<path stroke="rgb(200,255,200)" stroke-opacity="1" fill="rgb(200,255,200)" fill-opacity="1" id="tri_7_3_" d="M27.2382 19.8144 L28.2335 19.8219 L29.2288 19.8295 L30.2241 19.8371 L31.2194 19.8446 L32.2147 19.8522 L31.7105 20.7099 L31.2063 21.5677 L30.7021 22.4254 L30.1979 23.2832 L29.6937 24.1409 L29.2026 23.2756 L28.7115 22.4103 L28.2204 21.545 L27.7293 20.6797 L27.2382 19.8144 Z " />
<path stroke="rgb(200,255,200)" stroke-opacity="1" fill="rgb(200,255,200)" fill-opacity="1" id="tri_6_2_" d="M27.4622 19.5298 L26.4636 19.5144 L25.4651 19.4991 L24.4665 19.4837 L23.468 19.4684 L22.4694 19.4531 L22.9818 18.5962 L23.4941 17.7393 L24.0064 16.8824 L24.5188 16.0255 L25.0311 15.1686 L25.5173 16.0409 L26.0035 16.9131 L26.4897 17.7853 L26.976 18.6575 L27.4622 19.5298 Z " />
<path stroke="rgb(200,255,200)" stroke-opacity="1" fill="rgb(200,255,200)" fill-opacity="1" id="tri_8_2_" d="M37.2784 19.6673 L38.2714 19.6694 L39.2645 19.6715 L40.2576 19.6736 L41.2506 19.6758 L42.2437 19.6779 L41.7453 20.537 L41.2469 21.3961 L40.7484 22.2552 L40.25 23.1144 L39.7516 23.9735 L39.257 23.1123 L38.7623 22.251 L38.2677 21.3898 L37.773 20.5285 L37.2784 19.6673 Z " />
<path stroke="rgb(200,255,200)" stroke-opacity="1" fill="rgb(200,255,200)" fill-opacity="1" id="tri_7_2_" d="M37.5414 19.3355 L36.5463 19.3281 L35.5512 19.3206 L34.5561 19.3132 L33.561 19.3058 L32.5659 19.2983 L33.0701 18.4406 L33.5743 17.5828 L34.0785 16.7251 L34.5827 15.8673 L35.0869 15.0096 L35.5778 15.8748 L36.0687 16.74 L36.5596 17.6051 L37.0505 18.4703 L37.5414 19.3355 Z " />
<path stroke="rgb(200,255,200)" stroke-opacity="1" fill="rgb(200,255,200)" fill-opacity="1" id="tri_0_2_" d="M-54.4439 21.8292 L-53.4015 21.9891 L-52.3591 22.149 L-51.3167 22.3089 L-50.2743 22.4688 L-49.2318 22.6287 L-49.8916 23.4517 L-50.5513 24.2747 L-51.2111 25.0977 L-51.8708 25.9207 L-52.5305 26.7437 L-52.9132 25.7608 L-53.2959 24.7779 L-53.6786 23.795 L-54.0612 22.8121 L-54.4439 21.8292 Z " />
<path stroke="rgb(200,255,200)" stroke-opacity="1" fill="rgb(200,255,200)" fill-opacity="1" id="tri_1_1_" d="M-42.4814 24.6892 L-41.4488 24.8094 L-40.4163 24.9295 L-39.3838 25.0497 L-38.3512 25.1699 L-37.3187 25.2901 L-37.9391 26.1241 L-38.5595 26.9581 L-39.1799 27.7921 L-39.8003 28.6261 L-40.4207 29.4601 L-40.8329 28.5059 L-41.245 27.5517 L-41.6571 26.5976 L-42.0692 25.6434 L-42.4814 24.6892 Z " />
<path stroke="rgb(200,255,200)" stroke-opacity="1" fill="rgb(200,255,200)" fill-opacity="1" id="tri_0_1_" d="M-43.5755 22.9108 L-44.6181 22.751 L-45.6607 22.5911 L-46.7033 22.4313 L-47.7459 22.2715 L-48.7885 22.1116 L-48.1288 21.2886 L-47.469 20.4656 L-46.8093 19.6426 L-46.1496 18.8196 L-45.4898 17.9966 L-45.1069 18.9795 L-44.7241 19.9623 L-44.3412 20.9451 L-43.9583 21.928 L-43.5755 22.9108 Z " />
<path stroke="rgb(200,255,200)" stroke-opacity="1" fill="rgb(200,255,200)" fill-opacity="1" id="tri_2_1_" d="M-30.9419 26.5563 L-29.9188 26.644 L-28.8957 26.7318 L-27.8727 26.8195 L-26.8496 26.9073 L-25.8266 26.995 L-26.4146 27.8376 L-27.0026 28.6801 L-27.5906 29.5226 L-28.1786 30.3651 L-28.7666 31.2077 L-29.2016 30.2774 L-29.6367 29.3471 L-30.0717 28.4168 L-30.5068 27.4865 L-30.9419 26.5563 Z " />
<path stroke="rgb(200,255,200)" stroke-opacity="1" fill="rgb(200,255,200)" fill-opacity="1" id="tri_1" d="M-31.7385 25.3619 L-32.7708 25.2419 L-33.803 25.1218 L-34.8353 25.0017 L-35.8675 24.8816 L-36.8998 24.7615 L-36.2794 23.9275 L-35.659 23.0935 L-35.0386 22.2595 L-34.4181 21.4255 L-33.7977 20.5915 L-33.3859 21.5456 L-32.974 22.4997 L-32.5622 23.4538 L-32.1503 24.4079 L-31.7385 25.3619 Z " />
<path stroke="rgb(200,255,200)" stroke-opacity="1" fill="rgb(200,255,200)" fill-opacity="1" id="tri_3_1_" d="M-19.7869 27.6868 L-18.7715 27.7485 L-17.756 27.8101 L-16.7406 27.8717 L-15.7251 27.9334 L-14.7097 27.995 L-15.2712 28.8434 L-15.8327 29.6917 L-16.3941 30.5401 L-16.9556 31.3885 L-17.5171 32.2369 L-17.9711 31.3269 L-18.425 30.4169 L-18.879 29.5069 L-19.333 28.5969 L-19.7869 27.6868 Z " />
<path stroke="rgb(200,255,200)" stroke-opacity="1" fill="rgb(200,255,200)" fill-opacity="1" id="tri_2" d="M-20.3107 26.8998 L-21.334 26.8121 L-22.3574 26.7243 L-23.3808 26.6366 L-24.4042 26.5489 L-25.4276 26.4612 L-24.8396 25.6187 L-24.2516 24.7761 L-23.6636 23.9336 L-23.0755 23.0911 L-22.4875 22.2486 L-22.0522 23.1788 L-21.6168 24.1091 L-21.1814 25.0393 L-20.746 25.9695 L-20.3107 26.8998 Z " />
<path stroke="rgb(200,255,200)" stroke-opacity="1" fill="rgb(200,255,200)" fill-opacity="1" id="tri_4_1_" d="M-8.95784 28.286 L-7.94965 28.3278 L-6.94146 28.3697 L-5.93327 28.4115 L-4.92508 28.4534 L-3.91689 28.4952 L-4.45716 29.3473 L-4.99743 30.1994 L-5.53769 31.0516 L-6.07796 31.9037 L-6.61823 32.7558 L-7.08615 31.8618 L-7.55407 30.9679 L-8.022 30.0739 L-8.48992 29.18 L-8.95784 28.286 Z " />
<path stroke="rgb(200,255,200)" stroke-opacity="1" fill="rgb(200,255,200)" fill-opacity="1" id="tri_3" d="M-9.25128 27.7652 L-10.2665 27.7034 L-11.2817 27.6415 L-12.2969 27.5797 L-13.3121 27.5178 L-14.3274 27.4559 L-13.7659 26.6076 L-13.2044 25.7592 L-12.6429 24.9108 L-12.0814 24.0624 L-11.52 23.214 L-11.0662 24.1243 L-10.6125 25.0345 L-10.1588 25.9447 L-9.70502 26.855 L-9.25128 27.7652 Z " />
<path stroke="rgb(200,255,200)" stroke-opacity="1" fill="rgb(200,255,200)" fill-opacity="1" id="tri_5_1_" d="M1.60455 28.5257 L2.6074 28.5523 L3.61025 28.5789 L4.61311 28.6054 L5.61596 28.632 L6.61882 28.6586 L6.09415 29.5137 L5.56948 30.3688 L5.04482 31.2238 L4.52015 32.0789 L3.99548 32.934 L3.5173 32.0524 L3.03911 31.1707 L2.56092 30.289 L2.08273 29.4074 L1.60455 28.5257 Z " />
<path stroke="rgb(200,255,200)" stroke-opacity="1" fill="rgb(200,255,200)" fill-opacity="1" id="tri_4" d="M1.49806 28.1582 L0.489596 28.1163 L-0.518865 28.0744 L-1.52733 28.0324 L-2.53579 27.9905 L-3.54425 27.9486 L-3.00398 27.0965 L-2.46372 26.2443 L-1.92345 25.3922 L-1.38318 24.5401 L-0.842915 23.688 L-0.374719 24.582 L0.0934748 25.4761 L0.561668 26.3701 L1.02986 27.2642 L1.49806 28.1582 Z " />
<path stroke="rgb(200,255,200)" stroke-opacity="1" fill="rgb(200,255,200)" fill-opacity="1" id="tri_6_1_" d="M11.9586 28.5459 L12.957 28.561 L13.9554 28.576 L14.9538 28.5911 L15.9522 28.6062 L16.9506 28.6213 L16.4384 29.4785 L15.9261 30.3358 L15.4139 31.1931 L14.9017 32.0504 L14.3895 32.9077 L13.9033 32.0353 L13.4171 31.163 L12.9309 30.2906 L12.4448 29.4182 L11.9586 28.5459 Z " />
<path stroke="rgb(200,255,200)" stroke-opacity="1" fill="rgb(200,255,200)" fill-opacity="1" id="tri_5" d="M11.9936 28.2431 L10.9909 28.2167 L9.98826 28.1902 L8.98559 28.1638 L7.98292 28.1373 L6.98025 28.1109 L7.50492 27.2558 L8.02958 26.4007 L8.55425 25.5456 L9.07891 24.6905 L9.60358 23.8354 L10.0816 24.717 L10.5596 25.5985 L11.0376 26.48 L11.5156 27.3616 L11.9936 28.2431 Z " />
<path stroke="rgb(200,255,200)" stroke-opacity="1" fill="rgb(200,255,200)" fill-opacity="1" id="tri_7_1_" d="M22.1612 28.4478 L23.1563 28.455 L24.1514 28.4622 L25.1465 28.4694 L26.1416 28.4767 L27.1367 28.4839 L26.6325 29.342 L26.1282 30.2001 L25.624 31.0582 L25.1198 31.9163 L24.6155 32.7744 L24.1246 31.9091 L23.6338 31.0438 L23.1429 30.1784 L22.6521 29.3131 L22.1612 28.4478 Z " />
<path stroke="rgb(200,255,200)" stroke-opacity="1" fill="rgb(200,255,200)" fill-opacity="1" id="tri_6" d="M22.2996 28.1472 L21.3012 28.1322 L20.3029 28.1172 L19.3045 28.1022 L18.3062 28.0873 L17.3078 28.0723 L17.8201 27.215 L18.3323 26.3577 L18.8445 25.5004 L19.3567 24.6431 L19.869 23.7858 L20.3551 24.6581 L20.8412 25.5304 L21.3273 26.4026 L21.8135 27.2749 L22.2996 28.1472 Z " />
<path stroke="rgb(200,255,200)" stroke-opacity="1" fill="rgb(200,255,200)" fill-opacity="1" id="tri_8_1_" d="M32.2545 28.3093 L33.2478 28.3111 L34.241 28.313 L35.2343 28.3149 L36.2276 28.3168 L37.2209 28.3187 L36.7224 29.1779 L36.224 30.0372 L35.7255 30.8965 L35.227 31.7557 L34.7286 32.615 L34.2338 31.7538 L33.7389 30.8927 L33.2441 30.0316 L32.7493 29.1704 L32.2545 28.3093 Z " />
<path stroke="rgb(200,255,200)" stroke-opacity="1" fill="rgb(200,255,200)" fill-opacity="1" id="tri_7" d="M32.4636 27.9679 L31.4683 27.9607 L30.473 27.9535 L29.4776 27.9462 L28.4823 27.939 L27.487 27.9318 L27.9912 27.0737 L28.4955 26.2156 L28.9997 25.3575 L29.5039 24.4994 L30.0082 23.6413 L30.4993 24.5066 L30.9903 25.3719 L31.4814 26.2372 L31.9725 27.1026 L32.4636 27.9679 Z " />
<path stroke="rgb(200,255,200)" stroke-opacity="1" fill="rgb(200,255,200)" fill-opacity="1" id="tri_9" d="M42.2863 28.1822 L43.2778 28.1815 L44.2694 28.1807 L45.261 28.18 L46.2526 28.1792 L47.2442 28.1785 L46.749 29.0374 L46.2538 29.8964 L45.7587 30.7554 L45.2635 31.6144 L44.7683 32.4734 L44.2719 31.6152 L43.7755 30.7569 L43.2791 29.8987 L42.7827 29.0405 L42.2863 28.1822 Z " />
<path stroke="rgb(200,255,200)" stroke-opacity="1" fill="rgb(200,255,200)" fill-opacity="1" id="tri_8" d="M42.5362 27.7774 L41.5431 27.7755 L40.55 27.7735 L39.5569 27.7715 L38.5638 27.7695 L37.5707 27.7675 L38.0691 26.9083 L38.5676 26.049 L39.0661 25.1898 L39.5645 24.3305 L40.063 23.4712 L40.5576 24.3325 L41.0523 25.1937 L41.5469 26.055 L42.0416 26.9162 L42.5362 27.7774 Z " />
</g>
</g>
</svg>
