<!DOCTYPE svg>
<svg xmlns="http://www.w3.org/2000/svg" xmlns:xlink="http://www.w3.org/1999/xlink" width="600" height="600">
<g transform="translate(300.000000,300.000000)">
<g transform="scale(3.000000,3.000000)">
<path stroke="rgb(0,0,0)" stroke-opacity="1" fill="rgb(255,255,255)" fill-opacity="1" id="Layer_1" d="M107.411 107.089 L105.406 107.092 L103.402 107.095 L101.397 107.098 L99.3922 107.101 L97.3875 107.104 L95.3828 107.107 L93.3782 107.11 L91.3735 107.113 L89.3688 107.116 L87.3641 107.119 L85.3595 107.122 L83.3548 107.125 L81.3501 107.128 L79.3455 107.131 L77.3408 107.134 L75.3361 107.137 L73.3314 107.14 L71.3268 107.143 L69.3221 107.146 L67.3174 107.149 L65.3127 107.152 L63.3081 107.155 L61.3034 107.158 L59.2987 107.161 L57.2941 107.164 L55.2894 107.167 L53.2847 107.17 L51.28 107.173 L49.2754 107.176 L47.2707 107.179 L45.266 107.182 L43.2613 107.185 L41.2567 107.188 L39.252 107.191 L37.2473 107.194 L35.2426 107.197 L33.238 107.2 L31.2333 107.203 L29.2286 107.206 L27.224 107.209 L25.2193 107.212 L23.2146 107.215 L21.2099 107.218 L19.2053 107.221 L17.2006 107.224 L15.1959 107.227 L13.1912 107.23 L11.1866 107.233 L9.1819 107.236 L7.17723 107.239 L5.17256 107.242 L3.16788 107.245 L1.16321 107.248 L-0.841463 107.252 L-2.84614 107.255 L-4.85081 107.258 L-6.85548 107.261 L-8.86015 107.264 L-10.8648 107.267 L-12.8695 107.27 L-14.8742 107.273 L-16.8788 107.276 L-18.8835 107.279 L-20.8882 107.282 L-22.8929 107.285 L-24.8975 107.288 L-26.9022 107.291 L-28.9069 107.294 L-30.9116 107.297 L-32.9162 107.3 L-34.9209 107.303 L-36.9256 107.306 L-38.9302 107.309 L-40.9349 107.312 L-42.9396 107.315 L-44.9443 107.318 L-46.9489 107.321 L-48.9536 107.324 L-50.9583 107.327 L-52.963 107.33 L-54.9676 107.333 L-56.9723 107.336 L-58.977 107.339 L-60.9816 107.342 L-62.9863 107.345 L-64.991 107.348 L-66.9957 107.351 L-69.0003 107.354 L-71.005 107.357 L-73.0097 107.36 L-75.0144 107.363 L-77.019 107.366 L-79.0237 107.369 L-81.0284 107.372 L-83.0331 107.375 L-85.0377 107.378 L-87.0424 107.381 L-89.0471 107.384 L-91.0517 107.387 L-93.0564 107.39 L-95.0611 107.393 L-97.0658 107.396 L-99.0704 107.399 L-101.075 107.402 L-103.08 107.405 L-105.084 107.408 L-107.089 107.411 L-107.092 105.406 L-107.095 103.402 L-107.098 101.397 L-107.101 99.3922 L-107.104 97.3875 L-107.107 95.3828 L-107.11 93.3782 L-107.113 91.3735 L-107.116 89.3688 L-107.119 87.3641 L-107.122 85.3595 L-107.125 83.3548 L-107.128 81.3501 L-107.131 79.3455 L-107.134 77.3408 L-107.137 75.3361 L-107.14 73.3314 L-107.143 71.3268 L-107.146 69.3221 L-107.149 67.3174 L-107.152 65.3127 L-107.155 63.3081 L-107.158 61.3034 L-107.161 59.2987 L-107.164 57.2941 L-107.167 55.2894 L-107.17 53.2847 L-107.173 51.28 L-107.176 49.2754 L-107.179 47.2707 L-107.182 45.266 L-107.185 43.2613 L-107.188 41.2567 L-107.191 39.252 L-107.194 37.2473 L-107.197 35.2426 L-107.2 33.238 L-107.203 31.2333 L-107.206 29.2286 L-107.209 27.224 L-107.212 25.2193 L-107.215 23.2146 L-107.218 21.2099 L-107.221 19.2053 L-107.224 17.2006 L-107.227 15.1959 L-107.23 13.1912 L-107.233 11.1866 L-107.236 9.1819 L-107.239 7.17722 L-107.242 5.17255 L-107.245 3.16788 L-107.248 1.1632 L-107.251 -0.841469 L-107.255 -2.84614 L-107.258 -4.85081 L-107.261 -6.85549 L-107.264 -8.86016 L-107.267 -10.8648 L-107.27 -12.8695 L-107.273 -14.8742 L-107.276 -16.8789 L-107.279 -18.8835 L-107.282 -20.8882 L-107.285 -22.8929 L-107.288 -24.8975 L-107.291 -26.9022 L-107.294 -28.9069 L-107.297 -30.9116 L-107.3 -32.9162 L-107.303 -34.9209 L-107.306 -36.9256 L-107.309 -38.9303 L-107.312 -40.9349 L-107.315 -42.9396 L-107.318 -44.9443 L-107.321 -46.9489 L-107.324 -48.9536 L-107.327 -50.9583 L-107.33 -52.963 L-107.333 -54.9676 L-107.336 -56.9723 L-107.339 -58.977 L-107.342 -60.9817 L-107.345 -62.9863 L-107.348 -64.991 L-107.351 -66.9957 L-107.354 -69.0003 L-107.357 -71.005 L-107.36 -73.0097 L-107.363 -75.0144 L-107.366 -77.019 L-107.369 -79.0237 L-107.372 -81.0284 L-107.375 -83.0331 L-107.378 -85.0377 L-107.381 -87.0424 L-107.384 -89.0471 L-107.387 -91.0518 L-107.39 -93.0564 L-107.393 -95.0611 L-107.396 -97.0658 L-107.399 -99.0704 L-107.402 -101.075 L-107.405 -103.08 L-107.408 -105.084 L-107.411 -107.089 L-105.406 -107.092 L-103.402 -107.095 L-101.397 -107.098 L-99.3922 -107.101 L-97.3875 -107.104 L-95.3828 -107.107 L-93.3782 -107.11 L-91.3735 -107.113 L-89.3688 -107.116 L-87.3641 -107.119 L-85.3595 -107.122 L-83.3548 -107.125 L-81.3501 -107.128 L-79.3455 -107.131 L-77.3408 -107.134 L-75.3361 -107.137 L-73.3314 -107.14 L-71.3268 -107.143 L-69.3221 -107.146 L-67.3174 -107.149 L-65.3127 -107.152 L-63.3081 -107.155 L-61.3034 -107.158 L-59.2987 -107.161 L-57.2941 -107.164 L-55.2894 -107.167 L-53.2847 -107.17 L-51.28 -107.173 L-49.2754 -107.176 L-47.2707 -107.179 L-45.266 -107.182 L-43.2613 -107.185 L-41.2567 -107.188 L-39.252 -107.191 L-37.2473 -107.194 L-35.2426 -107.197 L-33.238 -107.2 L-31.2333 -107.203 L-29.2286 -107.206 L-27.224 -107.209 L-25.2193 -107.212 L-23.2146 -107.215 L-21.2099 -107.218 L-19.2053 -107.221 L-17.2006 -107.224 L-15.1959 -107.227 L-13.1912 -107.23 L-11.1866 -107.233 L-9.1819 -107.236 L-7.17723 -107.239 L-5.17256 -107.242 L-3.16788 -107.245 L-1.16321 -107.248 L0.841463 -107.252 L2.84614 -107.255 L4.85081 -107.258 L6.85548 -107.261 L8.86015 -107.264 L10.8648 -107.267 L12.8695 -107.27 L14.8742 -107.273 L16.8788 -107.276 L18.8835 -107.279 L20.8882 -107.282 L22.8929 -107.285 L24.8975 -107.288 L26.9022 -107.291 L28.9069 -107.294 L30.9116 -107.297 L32.9162 -107.3 L34.9209 -107.303 L36.9256 -107.306 L38.9302 -107.309 L40.9349 -107.312 L42.9396 -107.315 L44.9443 -107.318 L46.9489 -107.321 L48.9536 -107.324 L50.9583 -107.327 L52.963 -107.33 L54.9676 -107.333 L56.9723 -107.336 L58.977 -107.339 L60.9816 -107.342 L62.9863 -107.345 L64.991 -107.348 L66.9957 -107.351 L69.0003 -107.354 L71.005 -107.357 L73.0097 -107.36 L75.0144 -107.363 L77.019 -107.366 L79.0237 -107.369 L81.0284 -107.372 L83.0331 -107.375 L85.0377 -107.378 L87.0424 -107.381 L89.0471 -107.384 L91.0517 -107.387 L93.0564 -107.39 L95.0611 -107.393 L97.0658 -107.396 L99.0704 -107.399 L101.075 -107.402 L103.08 -107.405 L105.084 -107.408 L107.089 -107.411 L107.092 -105.406 L107.095 -103.402 L107.098 -101.397 L107.101 -99.3922 L107.104 -97.3875 L107.107 -95.3828 L107.11 -93.3782 L107.113 -91.3735 L107.116 -89.3688 L107.119 -87.3642 L107.122 -85.3595 L107.125 -83.3548 L107.128 -81.3501 L107.131 -79.3455 L107.134 -77.3408 L107.137 -75.3361 L107.14 -73.3314 L107.143 -71.3268 L107.146 -69.3221 L107.149 -67.3174 L107.152 -65.3128 L107.155 -63.3081 L107.158 -61.3034 L107.161 -59.2987 L107.164 -57.2941 L107.167 -55.2894 L107.17 -53.2847 L107.173 -51.28 L107.176 -49.2754 L107.179 -47.2707 L107.182 -45.266 L107.185 -43.2613 L107.188 -41.2567 L107.191 -39.252 L107.194 -37.2473 L107.197 -35.2427 L107.2 -33.238 L107.203 -31.2333 L107.206 -29.2286 L107.209 -27.224 L107.212 -25.2193 L107.215 -23.2146 L107.218 -21.2099 L107.221 -19.2053 L107.224 -17.2006 L107.227 -15.1959 L107.23 -13.1913 L107.233 -11.1866 L107.236 -9.18191 L107.239 -7.17724 L107.242 -5.17256 L107.245 -3.16789 L107.248 -1.16322 L107.251 0.841455 L107.255 2.84613 L107.258 4.8508 L107.261 6.85547 L107.264 8.86015 L107.267 10.8648 L107.27 12.8695 L107.273 14.8742 L107.276 16.8788 L107.279 18.8835 L107.282 20.8882 L107.285 22.8929 L107.288 24.8975 L107.291 26.9022 L107.294 28.9069 L107.297 30.9115 L107.3 32.9162 L107.303 34.9209 L107.306 36.9256 L107.309 38.9302 L107.312 40.9349 L107.315 42.9396 L107.318 44.9443 L107.321 46.9489 L107.324 48.9536 L107.327 50.9583 L107.33 52.963 L107.333 54.9676 L107.336 56.9723 L107.339 58.977 L107.342 60.9816 L107.345 62.9863 L107.348 64.991 L107.351 66.9957 L107.354 69.0003 L107.357 71.005 L107.36 73.0097 L107.363 75.0144 L107.366 77.019 L107.369 79.0237 L107.372 81.0284 L107.375 83.033 L107.378 85.0377 L107.381 87.0424 L107.384 89.0471 L107.387 91.0517 L107.39 93.0564 L107.393 95.0611 L107.396 97.0658 L107.399 99.0704 L107.402 101.075 L107.405 103.08 L107.408 105.084 L107.411 107.089 Z " />
<path stroke="rgb(169,255,187)" stroke-opacity="1" fill="rgb(169,255,187)" fill-opacity="1" id="scalebar" d="M-3.69904 -94.609 L-1.65554 -94.609 L0.387962 -94.609 L2.43146 -94.609 L4.47496 -94.609 L4.47496 -92.6686 L4.47496 -90.7281 L4.47496 -88.7876 L4.47496 -86.8472 L4.47496 -84.9067 L4.47496 -82.9663 L4.47496 -81.0258 L4.47496 -79.0853 L4.47496 -77.1449 L4.47496 -75.2044 L4.47496 -73.2639 L4.47496 -71.3235 L4.47496 -69.383 L2.43146 -69.383 L0.387962 -69.383 L-1.65554 -69.383 L-3.69904 -69.383 L-3.69904 -71.3235 L-3.69904 -73.2639 L-3.69904 -75.2044 L-3.69904 -77.1449 L-3.69904 -79.0853 L-3.69904 -81.0258 L-3.69904 -82.9663 L-3.69904 -84.9067 L-3.69904 -86.8472 L-3.69904 -88.7876 L-3.69904 -90.7281 L-3.69904 -92.6686 L-3.69904 -94.609 Z " />
<path stroke="rgb(200,255,200)" stroke-opacity="1" fill="rgb(200,255,200)" fill-opacity="1" id="scaleslider" d="M-6.69904 -87.266 L-4.67418 -87.266 L-2.64932 -87.266 L-0.624466 -87.266 L1.40039 -87.266 L3.42525 -87.266 L5.4501 -87.266 L7.47496 -87.266 L7.47496 -85.5394 L7.47496 -83.8127 L7.47496 -82.086 L5.4501 -82.086 L3.42525 -82.086 L1.40039 -82.086 L-0.624466 -82.086 L-2.64932 -82.086 L-4.67418 -82.086 L-6.69904 -82.086 L-6.69904 -83.8127 L-6.69904 -85.5394 L-6.69904 -87.266 Z " />
<path stroke="rgb(255,134,106)" stroke-opacity="1" fill="rgb(255,134,106)" fill-opacity="1" id="tranbar" d="M-49.142 -86.146 L-47.0675 -86.146 L-44.993 -86.146 L-42.9185 -86.146 L-40.844 -86.146 L-40.844 -88.2208 L-40.844 -90.2955 L-40.844 -92.3703 L-40.844 -94.445 L-38.7685 -94.445 L-36.693 -94.445 L-34.6175 -94.445 L-32.542 -94.445 L-32.542 -92.3703 L-32.542 -90.2955 L-32.542 -88.2208 L-32.542 -86.146 L-30.4673 -86.146 L-28.3925 -86.146 L-26.3178 -86.146 L-24.243 -86.146 L-24.243 -84.0715 L-24.243 -81.997 L-24.243 -79.9225 L-24.243 -77.848 L-26.3178 -77.848 L-28.3925 -77.848 L-30.4673 -77.848 L-32.542 -77.848 L-32.542 -75.773 L-32.542 -73.698 L-32.542 -71.623 L-32.542 -69.548 L-34.6175 -69.548 L-36.693 -69.548 L-38.7685 -69.548 L-40.844 -69.548 L-40.844 -71.623 L-40.844 -73.698 L-40.844 -75.773 L-40.844 -77.848 L-42.9185 -77.848 L-44.993 -77.848 L-47.0675 -77.848 L-49.142 -77.848 L-49.142 -79.9225 L-49.142 -81.997 L-49.142 -84.0715 L-49.142 -86.146 Z " />
<path stroke="rgb(255,250,159)" stroke-opacity="1" fill="rgb(255,250,159)" fill-opacity="1" id="translider" d="M-39.248 -84.553 L-37.5447 -84.553 L-35.8414 -84.553 L-34.138 -84.553 L-34.138 -82.85 L-34.138 -81.147 L-34.138 -79.444 L-35.8414 -79.444 L-37.5447 -79.444 L-39.248 -79.444 L-39.248 -81.147 L-39.248 -82.85 L-39.248 -84.553 Z " />
<path stroke="rgb(254,204,128)" stroke-opacity="1" fill="rgb(254,204,128)" fill-opacity="1" id="rotate" d="M44.5761 -87.5921 L44.8758 -85.6861 L45.1755 -83.7801 L45.4752 -81.8741 L45.7749 -79.9681 L46.0746 -78.0621 L44.5735 -76.8497 L43.0723 -75.6373 L41.5712 -74.4249 L40.0701 -73.2125 L38.569 -72 L36.7683 -72.6938 L34.9676 -73.3876 L33.1669 -74.0813 L31.3661 -74.7751 L29.5654 -75.4688 L29.2658 -77.375 L28.9662 -79.2812 L28.6666 -81.1874 L28.3669 -83.0935 L28.0673 -84.9997 L29.5684 -86.212 L31.0694 -87.4242 L32.5704 -88.6364 L34.0715 -89.8487 L35.5725 -91.0609 L37.3732 -90.3671 L39.174 -89.6734 L40.9747 -88.9796 L42.7754 -88.2859 L44.5761 -87.5921 Z " />
<path stroke="rgb(200,255,200)" stroke-opacity="1" fill="rgb(200,255,200)" fill-opacity="1" id="tri_0" d="M55.9606 -44.8614 L56.798 -43.6974 L57.6353 -42.5333 L58.4727 -41.3692 L59.31 -40.2052 L60.1474 -39.0411 L58.7209 -38.8976 L57.2945 -38.7542 L55.868 -38.6108 L54.4416 -38.4673 L53.0151 -38.3239 L53.6042 -39.6314 L54.1933 -40.9389 L54.7824 -42.2464 L55.3715 -43.5539 L55.9606 -44.8614 Z " />
<path stroke="rgb(200,255,200)" stroke-opacity="1" fill="rgb(200,255,200)" fill-opacity="1" id="tri_0_18_" d="M41.6298 -43.4357 L42.4675 -42.2723 L43.3051 -41.1089 L44.1428 -39.9455 L44.9804 -38.7821 L45.8181 -37.6187 L44.3914 -37.475 L42.9647 -37.3314 L41.5379 -37.1877 L40.1112 -37.0441 L38.6845 -36.9004 L39.2736 -38.2075 L39.8627 -39.5145 L40.4517 -40.8216 L41.0408 -42.1286 L41.6298 -43.4357 Z " />
<path stroke="rgb(200,255,200)" stroke-opacity="1" fill="rgb(200,255,200)" fill-opacity="1" id="tri_1_16_" d="M48.3689 -32.9235 L49.2321 -31.8017 L50.0952 -30.6798 L50.9584 -29.558 L51.8215 -28.4362 L52.6847 -27.3143 L51.2815 -27.1277 L49.8784 -26.9411 L48.4752 -26.7545 L47.0721 -26.568 L45.6689 -26.3814 L46.2089 -27.6898 L46.7489 -28.9982 L47.2889 -30.3067 L47.8289 -31.6151 L48.3689 -32.9235 Z " />
<path stroke="rgb(200,255,200)" stroke-opacity="1" fill="rgb(200,255,200)" fill-opacity="1" id="tri_0_17_" d="M50.9297 -31.8615 L50.0921 -33.0254 L49.2545 -34.1893 L48.4169 -35.3531 L47.5793 -36.517 L46.7417 -37.6808 L48.1684 -37.8245 L49.5951 -37.9681 L51.0218 -38.1118 L52.4485 -38.2554 L53.8752 -38.3991 L53.2861 -37.0916 L52.697 -35.7841 L52.1079 -34.4765 L51.5188 -33.169 L50.9297 -31.8615 Z " />
<path stroke="rgb(200,255,200)" stroke-opacity="1" fill="rgb(200,255,200)" fill-opacity="1" id="tri_0_16_" d="M27.2979 -42.0108 L28.1357 -40.8467 L28.9735 -39.6826 L29.8114 -38.5185 L30.6492 -37.3544 L31.487 -36.1902 L30.0598 -36.047 L28.6326 -35.9037 L27.2055 -35.7604 L25.7783 -35.6171 L24.3511 -35.4739 L24.9405 -36.7813 L25.5298 -38.0886 L26.1192 -39.396 L26.7086 -40.7034 L27.2979 -42.0108 Z " />
<path stroke="rgb(200,255,200)" stroke-opacity="1" fill="rgb(200,255,200)" fill-opacity="1" id="tri_1_15_" d="M34.2662 -31.0568 L35.1298 -29.9351 L35.9935 -28.8134 L36.8571 -27.6916 L37.7208 -26.5699 L38.5844 -25.4481 L37.1808 -25.2616 L35.7772 -25.075 L34.3736 -24.8885 L32.97 -24.7019 L31.5664 -24.5153 L32.1064 -25.8236 L32.6463 -27.1319 L33.1863 -28.4402 L33.7262 -29.7485 L34.2662 -31.0568 Z " />
<path stroke="rgb(200,255,200)" stroke-opacity="1" fill="rgb(200,255,200)" fill-opacity="1" id="tri_0_15_" d="M36.5997 -30.436 L35.7616 -31.5998 L34.9235 -32.7636 L34.0853 -33.9274 L33.2472 -35.0912 L32.4091 -36.2549 L33.8363 -36.3982 L35.2635 -36.5415 L36.6906 -36.6848 L38.1178 -36.828 L39.545 -36.9713 L38.9559 -35.6643 L38.3669 -34.3572 L37.7778 -33.0501 L37.1887 -31.7431 L36.5997 -30.436 Z " />
<path stroke="rgb(200,255,200)" stroke-opacity="1" fill="rgb(200,255,200)" fill-opacity="1" id="tri_2_14_" d="M41.5027 -21.108 L42.3953 -20.0368 L43.2879 -18.9657 L44.1805 -17.8946 L45.0732 -16.8235 L45.9658 -15.7524 L44.5916 -15.5156 L43.2174 -15.2788 L41.8432 -15.0421 L40.469 -14.8053 L39.0948 -14.5685 L39.5764 -15.8764 L40.0579 -17.1843 L40.5395 -18.4922 L41.0211 -19.8001 L41.5027 -21.108 Z " />
<path stroke="rgb(200,255,200)" stroke-opacity="1" fill="rgb(200,255,200)" fill-opacity="1" id="tri_1_14_" d="M43.8148 -19.9331 L42.9512 -21.055 L42.0876 -22.1768 L41.224 -23.2987 L40.3604 -24.4206 L39.4968 -25.5425 L40.9004 -25.729 L42.304 -25.9156 L43.7076 -26.1021 L45.1112 -26.2887 L46.5148 -26.4753 L45.9748 -25.1668 L45.4348 -23.8584 L44.8948 -22.55 L44.3548 -21.2415 L43.8148 -19.9331 Z " />
<path stroke="rgb(200,255,200)" stroke-opacity="1" fill="rgb(200,255,200)" fill-opacity="1" id="tri_0_14_" d="M12.962 -40.586 L13.8 -39.422 L14.638 -38.258 L15.476 -37.0939 L16.314 -35.9299 L17.152 -34.7658 L15.725 -34.6228 L14.2981 -34.4797 L12.8712 -34.3366 L11.4443 -34.1935 L10.0174 -34.0505 L10.6063 -35.3576 L11.1952 -36.6647 L11.7841 -37.9718 L12.3731 -39.2789 L12.962 -40.586 Z " />
<path stroke="rgb(200,255,200)" stroke-opacity="1" fill="rgb(200,255,200)" fill-opacity="1" id="tri_1_13_" d="M20.165 -29.1943 L21.0281 -28.072 L21.8912 -26.9498 L22.7544 -25.8275 L23.6175 -24.7052 L24.4806 -23.5829 L23.0774 -23.3963 L21.6743 -23.2097 L20.2711 -23.0231 L18.868 -22.8365 L17.4648 -22.6499 L18.0048 -23.9588 L18.5449 -25.2677 L19.0849 -26.5766 L19.625 -27.8855 L20.165 -29.1943 Z " />
<path stroke="rgb(200,255,200)" stroke-opacity="1" fill="rgb(200,255,200)" fill-opacity="1" id="tri_0_13_" d="M22.264 -29.0096 L21.4264 -30.1739 L20.5889 -31.3382 L19.7513 -32.5025 L18.9138 -33.6668 L18.0762 -34.8311 L19.5031 -34.9742 L20.9301 -35.1173 L22.357 -35.2604 L23.7839 -35.4034 L25.2108 -35.5465 L24.6214 -34.2391 L24.0321 -32.9317 L23.4427 -31.6243 L22.8534 -30.317 L22.264 -29.0096 Z " />
<path stroke="rgb(200,255,200)" stroke-opacity="1" fill="rgb(200,255,200)" fill-opacity="1" id="tri_2_13_" d="M27.6942 -18.7324 L28.5864 -17.6614 L29.4786 -16.5905 L30.3708 -15.5195 L31.2631 -14.4485 L32.1553 -13.3775 L30.7813 -13.1407 L29.4074 -12.9038 L28.0335 -12.6669 L26.6595 -12.4301 L25.2856 -12.1932 L25.7673 -13.501 L26.249 -14.8089 L26.7307 -16.1167 L27.2124 -17.4246 L27.6942 -18.7324 Z " />
<path stroke="rgb(200,255,200)" stroke-opacity="1" fill="rgb(200,255,200)" fill-opacity="1" id="tri_1_12_" d="M29.7126 -18.0669 L28.8494 -19.1887 L27.9862 -20.3104 L27.1229 -21.4321 L26.2597 -22.5538 L25.3965 -23.6755 L26.7997 -23.8621 L28.2028 -24.0487 L29.606 -24.2353 L31.0092 -24.4219 L32.4123 -24.6084 L31.8724 -23.3001 L31.3324 -21.9918 L30.7925 -20.6835 L30.2525 -19.3752 L29.7126 -18.0669 Z " />
<path stroke="rgb(200,255,200)" stroke-opacity="1" fill="rgb(200,255,200)" fill-opacity="1" id="tri_3_12_" d="M35.6107 -9.46329 L36.5349 -8.45265 L37.459 -7.44201 L38.3831 -6.43137 L39.3073 -5.42072 L40.2314 -4.41008 L38.8942 -4.11492 L37.5571 -3.81976 L36.2199 -3.52461 L34.8828 -3.22945 L33.5456 -2.93429 L33.9586 -4.24009 L34.3716 -5.54589 L34.7847 -6.85169 L35.1977 -8.15749 L35.6107 -9.46329 Z " />
<path stroke="rgb(200,255,200)" stroke-opacity="1" fill="rgb(200,255,200)" fill-opacity="1" id="tri_2_12_" d="M37.5141 -8.14949 L36.6218 -9.2205 L35.7294 -10.2915 L34.837 -11.3625 L33.9447 -12.4336 L33.0523 -13.5046 L34.4263 -13.7414 L35.8002 -13.9783 L37.1742 -14.2152 L38.5481 -14.4521 L39.922 -14.6889 L39.4405 -13.381 L38.9589 -12.0732 L38.4773 -10.7653 L37.9957 -9.45738 L37.5141 -8.14949 Z " />
<path stroke="rgb(200,255,200)" stroke-opacity="1" fill="rgb(200,255,200)" fill-opacity="1" id="tri_0_12_" d="M-1.36677 -39.1599 L-0.529505 -37.9963 L0.307762 -36.8328 L1.14503 -35.6692 L1.9823 -34.5056 L2.81956 -33.3421 L1.39279 -33.1986 L-0.0339859 -33.0552 L-1.46076 -32.9117 L-2.88754 -32.7683 L-4.31431 -32.6248 L-3.7248 -33.9318 L-3.1353 -35.2388 L-2.54579 -36.5458 L-1.95628 -37.8529 L-1.36677 -39.1599 Z " />
<path stroke="rgb(200,255,200)" stroke-opacity="1" fill="rgb(200,255,200)" fill-opacity="1" id="tri_1_11_" d="M6.06176 -27.3288 L6.92515 -26.2072 L7.78854 -25.0856 L8.65193 -23.964 L9.51532 -22.8423 L10.3787 -21.7207 L8.97537 -21.534 L7.57202 -21.3474 L6.16868 -21.1607 L4.76534 -20.974 L3.362 -20.7874 L3.90195 -22.0956 L4.4419 -23.4039 L4.98185 -24.7122 L5.52181 -26.0205 L6.06176 -27.3288 Z " />
<path stroke="rgb(200,255,200)" stroke-opacity="1" fill="rgb(200,255,200)" fill-opacity="1" id="tri_0_11_" d="M7.93132 -27.5863 L7.09346 -28.7499 L6.25561 -29.9136 L5.41776 -31.0773 L4.57991 -32.2409 L3.74206 -33.4046 L5.16883 -33.548 L6.59561 -33.6915 L8.02238 -33.8349 L9.44916 -33.9784 L10.8759 -34.1218 L10.287 -32.8147 L9.69809 -31.5076 L9.10916 -30.2005 L8.52024 -28.8934 L7.93132 -27.5863 Z " />
<path stroke="rgb(200,255,200)" stroke-opacity="1" fill="rgb(200,255,200)" fill-opacity="1" id="tri_2_11_" d="M13.8834 -16.3609 L14.7757 -15.2895 L15.6681 -14.218 L16.5604 -13.1466 L17.4528 -12.0751 L18.3451 -11.0036 L16.9714 -10.767 L15.5977 -10.5303 L14.224 -10.2937 L12.8502 -10.057 L11.4765 -9.82036 L11.9579 -11.1285 L12.4393 -12.4366 L12.9206 -13.7447 L13.402 -15.0528 L13.8834 -16.3609 Z " />
<path stroke="rgb(200,255,200)" stroke-opacity="1" fill="rgb(200,255,200)" fill-opacity="1" id="tri_1_10_" d="M15.61 -16.2025 L14.7467 -17.3247 L13.8834 -18.4469 L13.0201 -19.5691 L12.1568 -20.6913 L11.2935 -21.8135 L12.6968 -22.0002 L14.1002 -22.1868 L15.5035 -22.3735 L16.9068 -22.5602 L18.3102 -22.7468 L17.7702 -21.438 L17.2301 -20.1291 L16.6901 -18.8202 L16.15 -17.5113 L15.61 -16.2025 Z " />
<path stroke="rgb(200,255,200)" stroke-opacity="1" fill="rgb(200,255,200)" fill-opacity="1" id="tri_3_11_" d="M22.1655 -6.5123 L23.0893 -5.50148 L24.0131 -4.49066 L24.9369 -3.47983 L25.8607 -2.46901 L26.7845 -1.45819 L25.4472 -1.16338 L24.1098 -0.868565 L22.7725 -0.573749 L21.4352 -0.278934 L20.0978 0.0158803 L20.5114 -1.28976 L20.9249 -2.59539 L21.3385 -3.90103 L21.752 -5.20666 L22.1655 -6.5123 Z " />
<path stroke="rgb(200,255,200)" stroke-opacity="1" fill="rgb(200,255,200)" fill-opacity="1" id="tri_2_10_" d="M23.7047 -5.77578 L22.8127 -6.84696 L21.9207 -7.91814 L21.0287 -8.98933 L20.1367 -10.0605 L19.2447 -11.1317 L20.6184 -11.3684 L21.9921 -11.605 L23.3659 -11.8417 L24.7396 -12.0783 L26.1133 -12.315 L25.6316 -11.0071 L25.1499 -9.6993 L24.6681 -8.39146 L24.1864 -7.08362 L23.7047 -5.77578 Z " />
<path stroke="rgb(200,255,200)" stroke-opacity="1" fill="rgb(200,255,200)" fill-opacity="1" id="tri_4_10_" d="M30.9487 1.93206 L31.9052 2.87242 L32.8617 3.81278 L33.8182 4.75314 L34.7747 5.6935 L35.7312 6.63385 L34.4386 6.9916 L33.1459 7.34935 L31.8533 7.7071 L30.5607 8.06485 L29.268 8.4226 L29.6042 7.12449 L29.9403 5.82638 L30.2764 4.52828 L30.6126 3.23017 L30.9487 1.93206 Z " />
<path stroke="rgb(200,255,200)" stroke-opacity="1" fill="rgb(200,255,200)" fill-opacity="1" id="tri_3_10_" d="M32.2843 3.43413 L31.36 2.42314 L30.4357 1.41215 L29.5114 0.401167 L28.587 -0.60982 L27.6627 -1.62081 L29.0001 -1.91562 L30.3374 -2.21044 L31.6747 -2.50525 L33.0121 -2.80007 L34.3494 -3.09488 L33.9364 -1.78908 L33.5234 -0.483277 L33.1103 0.822523 L32.6973 2.12832 L32.2843 3.43413 Z " />
<path stroke="rgb(200,255,200)" stroke-opacity="1" fill="rgb(200,255,200)" fill-opacity="1" id="tri_0_10_" d="M-15.6999 -37.7355 L-14.862 -36.5715 L-14.024 -35.4074 L-13.186 -34.2434 L-12.348 -33.0794 L-11.51 -31.9153 L-12.9374 -31.7722 L-14.3648 -31.629 L-15.7923 -31.4859 L-17.2197 -31.3427 L-18.6471 -31.1995 L-18.0577 -32.5067 L-17.4683 -33.8139 L-16.8788 -35.1211 L-16.2894 -36.4283 L-15.6999 -37.7355 Z " />
<path stroke="rgb(200,255,200)" stroke-opacity="1" fill="rgb(200,255,200)" fill-opacity="1" id="tri_1_9_" d="M-8.03948 -25.4632 L-7.17601 -24.3414 L-6.31254 -23.2196 L-5.44908 -22.0978 L-4.58561 -20.9759 L-3.72214 -19.8541 L-5.12543 -19.6676 L-6.52872 -19.481 L-7.93201 -19.2945 L-9.3353 -19.108 L-10.7386 -18.9214 L-10.1988 -20.2298 L-9.65894 -21.5381 L-9.11912 -22.8465 L-8.5793 -24.1549 L-8.03948 -25.4632 Z " />
<path stroke="rgb(200,255,200)" stroke-opacity="1" fill="rgb(200,255,200)" fill-opacity="1" id="tri_0_9_" d="M-6.3999 -26.1605 L-7.23782 -27.3244 L-8.07575 -28.4882 L-8.91367 -29.6521 L-9.75159 -30.8159 L-10.5895 -31.9798 L-9.16208 -32.1229 L-7.73465 -32.2661 L-6.30722 -32.4092 L-4.87979 -32.5524 L-3.45236 -32.6955 L-4.04187 -31.3885 L-4.63138 -30.0815 L-5.22089 -28.7745 L-5.81039 -27.4675 L-6.3999 -26.1605 Z " />
<path stroke="rgb(200,255,200)" stroke-opacity="1" fill="rgb(200,255,200)" fill-opacity="1" id="tri_2_9_" d="M0.0734485 -13.9858 L0.965805 -12.9148 L1.85816 -11.8438 L2.75052 -10.7728 L3.64287 -9.70175 L4.53523 -8.63073 L3.16145 -8.3935 L1.78768 -8.15627 L0.413901 -7.91904 L-0.959875 -7.68181 L-2.33365 -7.44458 L-1.85223 -8.75283 L-1.37081 -10.0611 L-0.889391 -11.3693 L-0.407971 -12.6776 L0.0734485 -13.9858 Z " />
<path stroke="rgb(200,255,200)" stroke-opacity="1" fill="rgb(200,255,200)" fill-opacity="1" id="tri_1_8_" d="M1.50829 -14.3393 L0.644958 -15.4611 L-0.218377 -16.5828 L-1.08171 -17.7046 L-1.94505 -18.8264 L-2.80838 -19.9481 L-1.4051 -20.1347 L-0.00180762 -20.3212 L1.40148 -20.5077 L2.80477 -20.6943 L4.20806 -20.8808 L3.6681 -19.5725 L3.12815 -18.2642 L2.5882 -16.9559 L2.04825 -15.6476 L1.50829 -14.3393 Z " />
<path stroke="rgb(200,255,200)" stroke-opacity="1" fill="rgb(200,255,200)" fill-opacity="1" id="tri_3_9_" d="M8.71931 -3.56049 L9.64349 -2.54998 L10.5677 -1.53947 L11.4918 -0.528958 L12.416 0.481553 L13.3402 1.49206 L12.0027 1.78684 L10.6653 2.08161 L9.32779 2.37638 L7.99032 2.67116 L6.65285 2.96593 L7.06615 1.66064 L7.47944 0.355361 L7.89273 -0.949923 L8.30602 -2.25521 L8.71931 -3.56049 Z " />
<path stroke="rgb(200,255,200)" stroke-opacity="1" fill="rgb(200,255,200)" fill-opacity="1" id="tri_2_8_" d="M9.89603 -3.40265 L9.00362 -4.47353 L8.11122 -5.54442 L7.21882 -6.61531 L6.32641 -7.6862 L5.43401 -8.75708 L6.80779 -8.99431 L8.18156 -9.23154 L9.55534 -9.46877 L10.9291 -9.706 L12.3029 -9.94323 L11.8215 -8.63512 L11.3401 -7.327 L10.8588 -6.01888 L10.3774 -4.71076 L9.89603 -3.40265 Z " />
<path stroke="rgb(200,255,200)" stroke-opacity="1" fill="rgb(200,255,200)" fill-opacity="1" id="tri_4_9_" d="M17.9512 5.52225 L18.9073 6.4625 L19.8634 7.40276 L20.8195 8.34302 L21.7756 9.28328 L22.7317 10.2235 L21.4394 10.5816 L20.1471 10.9398 L18.8548 11.2979 L17.5625 11.656 L16.2701 12.0141 L16.6064 10.7157 L16.9426 9.41735 L17.2788 8.11898 L17.615 6.82062 L17.9512 5.52225 Z " />
<path stroke="rgb(200,255,200)" stroke-opacity="1" fill="rgb(200,255,200)" fill-opacity="1" id="tri_3_8_" d="M18.8358 6.38399 L17.9119 5.37313 L16.988 4.36227 L16.0641 3.35141 L15.1401 2.34054 L14.2162 1.32968 L15.5537 1.03491 L16.8912 0.740137 L18.2286 0.445363 L19.5661 0.150589 L20.9036 -0.144183 L20.49 1.16145 L20.0765 2.46709 L19.6629 3.77272 L19.2494 5.07836 L18.8358 6.38399 Z " />
<path stroke="rgb(200,255,200)" stroke-opacity="1" fill="rgb(200,255,200)" fill-opacity="1" id="tri_5_8_" d="M27.7601 12.9462 L28.7483 13.8046 L29.7364 14.663 L30.7246 15.5213 L31.7127 16.3797 L32.7009 17.2381 L31.4633 17.6644 L30.2258 18.0908 L28.9882 18.5172 L27.7507 18.9436 L26.5131 19.37 L26.7625 18.0852 L27.0119 16.8005 L27.2613 15.5157 L27.5107 14.231 L27.7601 12.9462 Z " />
<path stroke="rgb(200,255,200)" stroke-opacity="1" fill="rgb(200,255,200)" fill-opacity="1" id="tri_4_8_" d="M28.3655 14.7192 L27.4094 13.7792 L26.4532 12.8392 L25.497 11.8992 L24.5409 10.9592 L23.5847 10.0192 L24.877 9.66112 L26.1693 9.30301 L27.4616 8.9449 L28.7539 8.58679 L30.0463 8.22867 L29.7101 9.52678 L29.374 10.8249 L29.0378 12.123 L28.7017 13.4211 L28.3655 14.7192 Z " />
<path stroke="rgb(200,255,200)" stroke-opacity="1" fill="rgb(200,255,200)" fill-opacity="1" id="tri_0_8_" d="M-30.0341 -36.3125 L-29.1963 -35.1482 L-28.3586 -33.984 L-27.5209 -32.8197 L-26.6831 -31.6555 L-25.8454 -30.4912 L-27.2722 -30.348 L-28.6991 -30.2047 L-30.1259 -30.0615 L-31.5527 -29.9182 L-32.9796 -29.7749 L-32.3905 -31.0824 L-31.8014 -32.3899 L-31.2123 -33.6974 L-30.6232 -35.0049 L-30.0341 -36.3125 Z " />
<path stroke="rgb(200,255,200)" stroke-opacity="1" fill="rgb(200,255,200)" fill-opacity="1" id="tri_1_7_" d="M-22.1401 -23.5999 L-21.2771 -22.478 L-20.4142 -21.3561 L-19.5512 -20.2342 L-18.6882 -19.1123 L-17.8253 -17.9904 L-19.2283 -17.8042 L-20.6313 -17.618 L-22.0343 -17.4318 L-23.4372 -17.2456 L-24.8402 -17.0594 L-24.3002 -18.3675 L-23.7602 -19.6756 L-23.2201 -20.9837 L-22.6801 -22.2918 L-22.1401 -23.5999 Z " />
<path stroke="rgb(200,255,200)" stroke-opacity="1" fill="rgb(200,255,200)" fill-opacity="1" id="tri_0_7_" d="M-20.7337 -24.7349 L-21.5711 -25.8988 L-22.4085 -27.0628 L-23.2459 -28.2267 L-24.0833 -29.3906 L-24.9207 -30.5546 L-23.4939 -30.6978 L-22.067 -30.8411 L-20.6402 -30.9843 L-19.2133 -31.1276 L-17.7865 -31.2709 L-18.3759 -29.9637 L-18.9653 -28.6565 L-19.5548 -27.3493 L-20.1442 -26.0421 L-20.7337 -24.7349 Z " />
<path stroke="rgb(200,255,200)" stroke-opacity="1" fill="rgb(200,255,200)" fill-opacity="1" id="tri_2_7_" d="M-13.737 -11.6131 L-12.8448 -10.5417 L-11.9526 -9.47031 L-11.0604 -8.3989 L-10.1682 -7.32749 L-9.27599 -6.25608 L-10.6498 -6.01916 L-12.0236 -5.78224 L-13.3974 -5.54532 L-14.7712 -5.3084 L-16.145 -5.07148 L-15.6634 -6.37981 L-15.1818 -7.68814 L-14.7002 -8.99647 L-14.2186 -10.3048 L-13.737 -11.6131 Z " />
<path stroke="rgb(200,255,200)" stroke-opacity="1" fill="rgb(200,255,200)" fill-opacity="1" id="tri_1_6_" d="M-12.5937 -12.4741 L-13.4569 -13.5962 L-14.32 -14.7184 L-15.1832 -15.8405 L-16.0464 -16.9627 L-16.9095 -18.0849 L-15.5065 -18.271 L-14.1036 -18.4572 L-12.7006 -18.6434 L-11.2976 -18.8296 L-9.89457 -19.0158 L-10.4344 -17.7075 L-10.9742 -16.3991 L-11.514 -15.0908 L-12.0539 -13.7824 L-12.5937 -12.4741 Z " />
<path stroke="rgb(200,255,200)" stroke-opacity="1" fill="rgb(200,255,200)" fill-opacity="1" id="tri_3_7_" d="M-4.72741 -0.608967 L-3.80322 0.401978 L-2.87904 1.41292 L-1.95485 2.42387 L-1.03067 3.43481 L-0.106485 4.44576 L-1.444 4.74023 L-2.78152 5.0347 L-4.11904 5.32917 L-5.45656 5.62364 L-6.79407 5.91811 L-6.38074 4.61269 L-5.96741 3.30728 L-5.55407 2.00186 L-5.14074 0.696448 L-4.72741 -0.608967 Z " />
<path stroke="rgb(200,255,200)" stroke-opacity="1" fill="rgb(200,255,200)" fill-opacity="1" id="tri_2_6_" d="M-3.91372 -1.0267 L-4.80611 -2.09803 L-5.6985 -3.16936 L-6.59089 -4.24069 L-7.48328 -5.31202 L-8.37567 -6.38335 L-7.00186 -6.62027 L-5.62805 -6.85719 L-4.25424 -7.09411 L-2.88043 -7.33103 L-1.50662 -7.56795 L-1.98804 -6.2597 L-2.46946 -4.95145 L-2.95088 -3.6432 L-3.4323 -2.33495 L-3.91372 -1.0267 Z " />
<path stroke="rgb(200,255,200)" stroke-opacity="1" fill="rgb(200,255,200)" fill-opacity="1" id="tri_4_7_" d="M4.95197 9.11246 L5.90837 10.0527 L6.86476 10.9928 L7.82116 11.933 L8.77756 12.8732 L9.73395 13.8134 L8.44164 14.1715 L7.14933 14.5296 L5.85702 14.8878 L4.5647 15.2459 L3.27239 15.604 L3.60831 14.3057 L3.94422 13.0074 L4.28014 11.7091 L4.61605 10.4108 L4.95197 9.11246 Z " />
<path stroke="rgb(200,255,200)" stroke-opacity="1" fill="rgb(200,255,200)" fill-opacity="1" id="tri_3_6_" d="M5.39069 9.33508 L4.46647 8.32427 L3.54224 7.31345 L2.61802 6.30264 L1.69379 5.29182 L0.769564 4.28101 L2.10708 3.98654 L3.4446 3.69207 L4.78212 3.3976 L6.11963 3.10313 L7.45715 2.80866 L7.04386 4.11395 L6.63057 5.41923 L6.21728 6.72451 L5.80399 8.0298 L5.39069 9.33508 Z " />
<path stroke="rgb(200,255,200)" stroke-opacity="1" fill="rgb(200,255,200)" fill-opacity="1" id="tri_5_7_" d="M15.3093 17.2278 L16.2974 18.0864 L17.2855 18.945 L18.2736 19.8037 L19.2617 20.6623 L20.2498 21.5209 L19.0117 21.9471 L17.7737 22.3732 L16.5356 22.7994 L15.2976 23.2255 L14.0595 23.6517 L14.3095 22.3669 L14.5594 21.0821 L14.8094 19.7973 L15.0593 18.5126 L15.3093 17.2278 Z " />
<path stroke="rgb(200,255,200)" stroke-opacity="1" fill="rgb(200,255,200)" fill-opacity="1" id="tri_4_6_" d="M15.3681 18.3097 L14.412 17.3694 L13.4559 16.4292 L12.4998 15.4889 L11.5437 14.5486 L10.5876 13.6084 L11.8799 13.2503 L13.1722 12.8922 L14.4645 12.5341 L15.7568 12.1759 L17.0491 11.8178 L16.7129 13.1162 L16.3767 14.4146 L16.0405 15.7129 L15.7043 17.0113 L15.3681 18.3097 Z " />
<path stroke="rgb(200,255,200)" stroke-opacity="1" fill="rgb(200,255,200)" fill-opacity="1" id="tri_6_6_" d="M26.2717 23.383 L27.2902 24.1485 L28.3086 24.9139 L29.327 25.6794 L30.3454 26.4449 L31.3638 27.2103 L30.1919 27.7093 L29.0201 28.2083 L27.8482 28.7072 L26.6763 29.2062 L25.5045 29.7052 L25.6579 28.4407 L25.8114 27.1763 L25.9648 25.9119 L26.1183 24.6474 L26.2717 23.383 Z " />
<path stroke="rgb(200,255,200)" stroke-opacity="1" fill="rgb(200,255,200)" fill-opacity="1" id="tri_5_6_" d="M26.011 25.5611 L25.0224 24.7025 L24.0337 23.8439 L23.0451 22.9853 L22.0564 22.1267 L21.0678 21.2681 L22.3058 20.842 L23.5439 20.4158 L24.7819 19.9897 L26.02 19.5635 L27.258 19.1374 L27.0086 20.4221 L26.7592 21.7069 L26.5098 22.9916 L26.2604 24.2764 L26.011 25.5611 Z " />
<path stroke="rgb(200,255,200)" stroke-opacity="1" fill="rgb(200,255,200)" fill-opacity="1" id="tri_0_6_" d="M-44.368 -34.8856 L-43.53 -33.7217 L-42.6921 -32.5579 L-41.8542 -31.394 L-41.0163 -30.2302 L-40.1784 -29.0663 L-41.6056 -28.9226 L-43.0328 -28.7789 L-44.46 -28.6352 L-45.8872 -28.4914 L-47.3144 -28.3477 L-46.7251 -29.6553 L-46.1358 -30.9629 L-45.5466 -32.2704 L-44.9573 -33.578 L-44.368 -34.8856 Z " />
<path stroke="rgb(200,255,200)" stroke-opacity="1" fill="rgb(200,255,200)" fill-opacity="1" id="tri_1_5_" d="M-36.2433 -21.7343 L-35.3796 -20.6125 L-34.516 -19.4908 L-33.6523 -18.369 L-32.7887 -17.2473 L-31.925 -16.1256 L-33.3285 -15.9394 L-34.7319 -15.7532 L-36.1353 -15.5671 L-37.5388 -15.3809 L-38.9422 -15.1947 L-38.4024 -16.5026 L-37.8626 -17.8105 L-37.3229 -19.1185 L-36.7831 -20.4264 L-36.2433 -21.7343 Z " />
<path stroke="rgb(200,255,200)" stroke-opacity="1" fill="rgb(200,255,200)" fill-opacity="1" id="tri_0_5_" d="M-35.0652 -23.3101 L-35.9034 -24.4739 L-36.7415 -25.6377 L-37.5796 -26.8015 L-38.4177 -27.9652 L-39.2558 -29.129 L-37.8286 -29.2727 L-36.4014 -29.4165 L-34.9742 -29.5602 L-33.5469 -29.7039 L-32.1197 -29.8476 L-32.7088 -28.5401 L-33.2979 -27.2326 L-33.887 -25.9251 L-34.4761 -24.6176 L-35.0652 -23.3101 Z " />
<path stroke="rgb(200,255,200)" stroke-opacity="1" fill="rgb(200,255,200)" fill-opacity="1" id="tri_2_5_" d="M-27.5481 -9.24033 L-26.6557 -8.16913 L-25.7633 -7.09793 L-24.8708 -6.02673 L-23.9784 -4.95553 L-23.086 -3.88433 L-24.4595 -3.64701 L-25.833 -3.40968 L-27.2065 -3.17236 L-28.58 -2.93503 L-29.9535 -2.6977 L-29.4725 -4.00623 L-28.9914 -5.31475 L-28.5103 -6.62328 L-28.0292 -7.9318 L-27.5481 -9.24033 Z " />
<path stroke="rgb(200,255,200)" stroke-opacity="1" fill="rgb(200,255,200)" fill-opacity="1" id="tri_1_4_" d="M-26.6958 -10.612 L-27.5592 -11.734 L-28.4226 -12.8559 L-29.2861 -13.9779 L-30.1495 -15.0998 L-31.0129 -16.2218 L-29.6094 -16.408 L-28.206 -16.5941 L-26.8026 -16.7803 L-25.3991 -16.9665 L-23.9957 -17.1526 L-24.5357 -15.8445 L-25.0757 -14.5364 L-25.6158 -13.2283 L-26.1558 -11.9202 L-26.6958 -10.612 Z " />
<path stroke="rgb(200,255,200)" stroke-opacity="1" fill="rgb(200,255,200)" fill-opacity="1" id="tri_3_5_" d="M-18.1712 2.34272 L-17.2475 3.35337 L-16.3238 4.36402 L-15.4001 5.37466 L-14.4764 6.38531 L-13.5527 7.39596 L-14.8903 7.69082 L-16.228 7.98569 L-17.5656 8.28055 L-18.9033 8.57541 L-20.2409 8.87027 L-19.827 7.56476 L-19.413 6.25925 L-18.9991 4.95374 L-18.5852 3.64823 L-18.1712 2.34272 Z " />
<path stroke="rgb(200,255,200)" stroke-opacity="1" fill="rgb(200,255,200)" fill-opacity="1" id="tri_2_4_" d="M-17.725 1.34529 L-18.6169 0.274287 L-19.5088 -0.796717 L-20.4008 -1.86772 L-21.2927 -2.93872 L-22.1846 -4.00973 L-20.8111 -4.24706 L-19.4376 -4.48438 L-18.064 -4.72171 L-16.6905 -4.95904 L-15.317 -5.19636 L-15.7986 -3.88803 L-16.2802 -2.5797 L-16.7618 -1.27137 L-17.2434 0.0369605 L-17.725 1.34529 Z " />
<path stroke="rgb(200,255,200)" stroke-opacity="1" fill="rgb(200,255,200)" fill-opacity="1" id="tri_4_5_" d="M-8.04687 12.7061 L-7.0904 13.646 L-6.13394 14.5859 L-5.17747 15.5259 L-4.22101 16.4658 L-3.26455 17.4057 L-4.55695 17.7637 L-5.84936 18.1216 L-7.14177 18.4796 L-8.43418 18.8375 L-9.72659 19.1955 L-9.39064 17.8976 L-9.0547 16.5997 L-8.71875 15.3018 L-8.38281 14.0039 L-8.04687 12.7061 Z " />
<path stroke="rgb(200,255,200)" stroke-opacity="1" fill="rgb(200,255,200)" fill-opacity="1" id="tri_3_4_" d="M-8.05628 12.2876 L-8.98059 11.2771 L-9.9049 10.2665 L-10.8292 9.25598 L-11.7535 8.24543 L-12.6778 7.23488 L-11.3402 6.94001 L-10.0025 6.64515 L-8.6649 6.35029 L-7.32725 6.05543 L-5.98961 5.76057 L-6.40294 7.06598 L-6.81628 8.3714 L-7.22961 9.67681 L-7.64295 10.9822 L-8.05628 12.2876 Z " />
<path stroke="rgb(200,255,200)" stroke-opacity="1" fill="rgb(200,255,200)" fill-opacity="1" id="tri_5_5_" d="M2.85614 21.5088 L3.84463 22.3675 L4.83313 23.2262 L5.82163 24.0849 L6.81012 24.9436 L7.79862 25.8023 L6.56052 26.2287 L5.32242 26.6551 L4.08432 27.0815 L2.84622 27.5079 L1.60812 27.9343 L1.85772 26.6492 L2.10733 25.3641 L2.35693 24.079 L2.60653 22.7939 L2.85614 21.5088 Z " />
<path stroke="rgb(200,255,200)" stroke-opacity="1" fill="rgb(200,255,200)" fill-opacity="1" id="tri_4_4_" d="M2.37002 21.9005 L1.41353 20.9601 L0.457039 20.0198 L-0.499454 19.0794 L-1.45595 18.139 L-2.41244 17.1987 L-1.12003 16.8407 L0.172377 16.4828 L1.46479 16.1248 L2.75719 15.7669 L4.0496 15.4089 L3.71368 16.7072 L3.37777 18.0056 L3.04185 19.3039 L2.70594 20.6022 L2.37002 21.9005 Z " />
<path stroke="rgb(200,255,200)" stroke-opacity="1" fill="rgb(200,255,200)" fill-opacity="1" id="tri_6_5_" d="M14.4795 28.3943 L15.4974 29.1596 L16.5154 29.9249 L17.5333 30.6902 L18.5512 31.4555 L19.5691 32.2208 L18.3975 32.7199 L17.2259 33.219 L16.0542 33.7181 L14.8826 34.2172 L13.711 34.7164 L13.8647 33.452 L14.0184 32.1876 L14.1721 30.9231 L14.3258 29.6587 L14.4795 28.3943 Z " />
<path stroke="rgb(200,255,200)" stroke-opacity="1" fill="rgb(200,255,200)" fill-opacity="1" id="tri_5_4_" d="M13.5575 29.8431 L12.5693 28.9848 L11.5812 28.1264 L10.593 27.268 L9.60484 26.4097 L8.61668 25.5513 L9.85478 25.1249 L11.0929 24.6985 L12.331 24.2721 L13.5691 23.8457 L14.8072 23.4193 L14.5572 24.704 L14.3073 25.9888 L14.0574 27.2736 L13.8074 28.5584 L13.5575 29.8431 Z " />
<path stroke="rgb(200,255,200)" stroke-opacity="1" fill="rgb(200,255,200)" fill-opacity="1" id="tri_7_4_" d="M26.6795 32.982 L27.7224 33.6429 L28.7653 34.3037 L29.8082 34.9645 L30.8511 35.6254 L31.8939 36.2862 L30.8 36.8583 L29.706 37.4304 L28.612 38.0025 L27.518 38.5746 L26.4241 39.1467 L26.4751 37.9138 L26.5262 36.6809 L26.5773 35.4479 L26.6284 34.215 L26.6795 32.982 Z " />
<path stroke="rgb(200,255,200)" stroke-opacity="1" fill="rgb(200,255,200)" fill-opacity="1" id="tri_6_4_" d="M25.4421 35.7483 L24.4239 34.983 L23.4057 34.2176 L22.3875 33.4523 L21.3693 32.687 L20.3512 31.9217 L21.5228 31.4226 L22.6944 30.9235 L23.8661 30.4243 L25.0377 29.9252 L26.2093 29.4261 L26.0559 30.6905 L25.9024 31.955 L25.749 33.2194 L25.5955 34.4838 L25.4421 35.7483 Z " />
<path stroke="rgb(200,255,200)" stroke-opacity="1" fill="rgb(200,255,200)" fill-opacity="1" id="tri_0_4_" d="M-58.702 -33.4617 L-57.8642 -32.2976 L-57.0264 -31.1334 L-56.1886 -29.9693 L-55.3508 -28.8052 L-54.513 -27.6411 L-55.9397 -27.4977 L-57.3665 -27.3542 L-58.7933 -27.2108 L-60.22 -27.0673 L-61.6468 -26.9238 L-61.0579 -28.2314 L-60.4689 -29.539 L-59.8799 -30.8465 L-59.2909 -32.1541 L-58.702 -33.4617 Z " />
<path stroke="rgb(200,255,200)" stroke-opacity="1" fill="rgb(200,255,200)" fill-opacity="1" id="tri_1_3_" d="M-50.3438 -19.8712 L-49.4808 -18.7491 L-48.6177 -17.627 L-47.7547 -16.5049 L-46.8917 -15.3828 L-46.0286 -14.2607 L-47.4316 -14.0747 L-48.8345 -13.8886 L-50.2374 -13.7025 L-51.6404 -13.5165 L-53.0433 -13.3304 L-52.5034 -14.6386 L-51.9635 -15.9467 L-51.4236 -17.2549 L-50.8837 -18.5631 L-50.3438 -19.8712 Z " />
<path stroke="rgb(200,255,200)" stroke-opacity="1" fill="rgb(200,255,200)" fill-opacity="1" id="tri_0_3_" d="M-49.3997 -21.8835 L-50.2372 -23.0476 L-51.0747 -24.2118 L-51.9122 -25.3759 L-52.7496 -26.54 L-53.5871 -27.7041 L-52.1603 -27.8476 L-50.7336 -27.991 L-49.3068 -28.1345 L-47.88 -28.2779 L-46.4532 -28.4214 L-47.0425 -27.1138 L-47.6318 -25.8062 L-48.2211 -24.4987 L-48.8104 -23.1911 L-49.3997 -21.8835 Z " />
<path stroke="rgb(200,255,200)" stroke-opacity="1" fill="rgb(200,255,200)" fill-opacity="1" id="tri_2_3_" d="M-41.3578 -6.86514 L-40.4657 -5.79403 L-39.5735 -4.72293 L-38.6813 -3.65183 L-37.7891 -2.58073 L-36.897 -1.50963 L-38.2707 -1.2724 L-39.6445 -1.03517 L-41.0183 -0.797938 L-42.3921 -0.560708 L-43.7659 -0.323478 L-43.2843 -1.63181 L-42.8027 -2.94014 L-42.3211 -4.24847 L-41.8395 -5.55681 L-41.3578 -6.86514 Z " />
<path stroke="rgb(200,255,200)" stroke-opacity="1" fill="rgb(200,255,200)" fill-opacity="1" id="tri_1_2_" d="M-40.7977 -8.74703 L-41.6609 -9.86887 L-42.524 -10.9907 L-43.3872 -12.1126 L-44.2503 -13.2344 L-45.1135 -14.3562 L-43.7105 -14.5423 L-42.3076 -14.7284 L-40.9046 -14.9144 L-39.5017 -15.1005 L-38.0988 -15.2866 L-38.6386 -13.9787 L-39.1783 -12.6707 L-39.7181 -11.3628 L-40.2579 -10.0549 L-40.7977 -8.74703 Z " />
<path stroke="rgb(200,255,200)" stroke-opacity="1" fill="rgb(200,255,200)" fill-opacity="1" id="tri_3_3_" d="M-31.6204 5.29395 L-30.6959 6.30485 L-29.7714 7.31574 L-28.8469 8.32664 L-27.9224 9.33754 L-26.9979 10.3484 L-28.336 10.6429 L-29.6741 10.9373 L-31.0122 11.2317 L-32.3503 11.5262 L-33.6883 11.8206 L-33.2747 10.5153 L-32.8612 9.20994 L-32.4476 7.90461 L-32.034 6.59928 L-31.6204 5.29395 Z " />
<path stroke="rgb(200,255,200)" stroke-opacity="1" fill="rgb(200,255,200)" fill-opacity="1" id="tri_2_2_" d="M-31.5331 3.72012 L-32.4258 2.64882 L-33.3185 1.57753 L-34.2112 0.506235 L-35.1039 -0.565059 L-35.9966 -1.63635 L-34.6228 -1.87358 L-33.249 -2.11081 L-31.8753 -2.34804 L-30.5015 -2.58527 L-29.1277 -2.8225 L-29.6088 -1.51398 L-30.0899 -0.205455 L-30.5709 1.10307 L-31.052 2.41159 L-31.5331 3.72012 Z " />
<path stroke="rgb(200,255,200)" stroke-opacity="1" fill="rgb(200,255,200)" fill-opacity="1" id="tri_4_3_" d="M-21.0449 16.2956 L-20.0886 17.236 L-19.1323 18.1765 L-18.1759 19.1169 L-17.2196 20.0574 L-16.2633 20.9978 L-17.5553 21.3557 L-18.8473 21.7137 L-20.1392 22.0716 L-21.4312 22.4295 L-22.7232 22.7874 L-22.3876 21.489 L-22.0519 20.1907 L-21.7162 18.8923 L-21.3806 17.5939 L-21.0449 16.2956 Z " />
<path stroke="rgb(200,255,200)" stroke-opacity="1" fill="rgb(200,255,200)" fill-opacity="1" id="tri_3_2_" d="M-21.5034 15.24 L-22.4276 14.2289 L-23.3517 13.2179 L-24.2758 12.2068 L-25.2 11.1957 L-26.1241 10.1846 L-24.786 9.8902 L-23.448 9.59577 L-22.1099 9.30134 L-20.7718 9.0069 L-19.4337 8.71247 L-19.8477 10.018 L-20.2616 11.3235 L-20.6755 12.629 L-21.0895 13.9345 L-21.5034 15.24 Z " />
<path stroke="rgb(200,255,200)" stroke-opacity="1" fill="rgb(200,255,200)" fill-opacity="1" id="tri_5_3_" d="M-9.59473 25.7909 L-8.6067 26.6492 L-7.61867 27.5076 L-6.63064 28.3659 L-5.64261 29.2242 L-4.65458 30.0826 L-5.89227 30.5089 L-7.12995 30.9353 L-8.36764 31.3617 L-9.60533 31.788 L-10.843 32.2144 L-10.5934 30.9297 L-10.3437 29.645 L-10.094 28.3603 L-9.84439 27.0756 L-9.59473 25.7909 Z " />
<path stroke="rgb(200,255,200)" stroke-opacity="1" fill="rgb(200,255,200)" fill-opacity="1" id="tri_4_2_" d="M-10.6286 25.491 L-11.5846 24.551 L-12.5406 23.6111 L-13.4967 22.6711 L-14.4527 21.7311 L-15.4088 20.7912 L-14.1168 20.4333 L-12.8248 20.0753 L-11.5328 19.7174 L-10.2408 19.3595 L-8.94883 19.0016 L-9.28478 20.2995 L-9.62072 21.5973 L-9.95666 22.8952 L-10.2926 24.1931 L-10.6286 25.491 Z " />
<path stroke="rgb(200,255,200)" stroke-opacity="1" fill="rgb(200,255,200)" fill-opacity="1" id="tri_6_3_" d="M2.6858 33.4018 L3.70367 34.1675 L4.72155 34.9331 L5.73943 35.6988 L6.75731 36.4645 L7.77519 37.2301 L6.60347 37.7289 L5.43176 38.2276 L4.26005 38.7263 L3.08834 39.225 L1.91663 39.7238 L2.07046 38.4594 L2.22429 37.195 L2.37813 35.9306 L2.53196 34.6662 L2.6858 33.4018 Z " />
<path stroke="rgb(200,255,200)" stroke-opacity="1" fill="rgb(200,255,200)" fill-opacity="1" id="tri_5_2_" d="M1.10588 34.1255 L0.117796 33.2668 L-0.870288 32.408 L-1.85837 31.5493 L-2.84646 30.6905 L-3.83454 29.8318 L-2.59685 29.4054 L-1.35916 28.979 L-0.121476 28.5527 L1.11621 28.1263 L2.3539 27.7 L2.1043 28.9851 L1.85469 30.2702 L1.60509 31.5553 L1.35548 32.8404 L1.10588 34.1255 Z " />
<path stroke="rgb(200,255,200)" stroke-opacity="1" fill="rgb(200,255,200)" fill-opacity="1" id="tri_7_3_" d="M15.668 38.7347 L16.7108 39.3959 L17.7535 40.0571 L18.7963 40.7183 L19.839 41.3795 L20.8818 42.0407 L19.788 42.6127 L18.6943 43.1847 L17.6006 43.7567 L16.5069 44.3287 L15.4131 44.9007 L15.4641 43.6675 L15.5151 42.4343 L15.5661 41.2011 L15.6171 39.9679 L15.668 38.7347 Z " />
<path stroke="rgb(200,255,200)" stroke-opacity="1" fill="rgb(200,255,200)" fill-opacity="1" id="tri_6_2_" d="M13.648 40.7585 L12.63 39.9928 L11.612 39.2271 L10.594 38.4614 L9.57596 37.6958 L8.55795 36.9301 L9.72967 36.4314 L10.9014 35.9326 L12.0731 35.4339 L13.2448 34.9352 L14.4165 34.4364 L14.2628 35.7008 L14.1091 36.9653 L13.9554 38.2297 L13.8017 39.4941 L13.648 40.7585 Z " />
<path stroke="rgb(200,255,200)" stroke-opacity="1" fill="rgb(200,255,200)" fill-opacity="1" id="tri_8_2_" d="M29.0146 41.5171 L30.0745 42.0655 L31.1344 42.614 L32.1944 43.1624 L33.2543 43.7109 L34.3142 44.2593 L33.3091 44.9031 L32.3041 45.547 L31.299 46.1908 L30.2939 46.8346 L29.2888 47.4785 L29.234 46.2862 L29.1791 45.0939 L29.1243 43.9016 L29.0695 42.7094 L29.0146 41.5171 Z " />
<path stroke="rgb(200,255,200)" stroke-opacity="1" fill="rgb(200,255,200)" fill-opacity="1" id="tri_7_2_" d="M26.8281 44.9929 L25.7854 44.3319 L24.7428 43.671 L23.7002 43.01 L22.6575 42.3491 L21.6149 41.6881 L22.7086 41.1162 L23.8023 40.5442 L24.8961 39.9722 L25.9898 39.4002 L27.0835 38.8282 L27.0324 40.0611 L26.9813 41.2941 L26.9302 42.527 L26.8791 43.7599 L26.8281 44.9929 Z " />
<path stroke="rgb(200,255,200)" stroke-opacity="1" fill="rgb(200,255,200)" fill-opacity="1" id="tri_0_2_" d="M-73.034 -32.0354 L-72.1963 -30.8717 L-71.3587 -29.708 L-70.521 -28.5442 L-69.6834 -27.3805 L-68.8457 -26.2168 L-70.2726 -26.0731 L-71.6995 -25.9293 L-73.1264 -25.7856 L-74.5533 -25.6419 L-75.9802 -25.4982 L-75.3909 -26.8056 L-74.8017 -28.1131 L-74.2125 -29.4205 L-73.6232 -30.728 L-73.034 -32.0354 Z " />
<path stroke="rgb(200,255,200)" stroke-opacity="1" fill="rgb(200,255,200)" fill-opacity="1" id="tri_1_1_" d="M-64.4455 -18.0066 L-63.582 -16.8848 L-62.7185 -15.763 L-61.8551 -14.6411 L-60.9916 -13.5193 L-60.1281 -12.3975 L-61.5313 -12.2108 L-62.9346 -12.0241 L-64.3378 -11.8373 L-65.741 -11.6506 L-67.1442 -11.4639 L-66.6045 -12.7724 L-66.0647 -14.081 L-65.525 -15.3895 L-64.9852 -16.6981 L-64.4455 -18.0066 Z " />
<path stroke="rgb(200,255,200)" stroke-opacity="1" fill="rgb(200,255,200)" fill-opacity="1" id="tri_0_1_" d="M-63.7321 -20.4598 L-64.57 -21.6237 L-65.408 -22.7875 L-66.2459 -23.9514 L-67.0838 -25.1152 L-67.9217 -26.2791 L-66.4948 -26.4228 L-65.0679 -26.5665 L-63.6411 -26.7102 L-62.2142 -26.8539 L-60.7873 -26.9976 L-61.3762 -25.6901 L-61.9652 -24.3825 L-62.5542 -23.075 L-63.1431 -21.7674 L-63.7321 -20.4598 Z " />
<path stroke="rgb(200,255,200)" stroke-opacity="1" fill="rgb(200,255,200)" fill-opacity="1" id="tri_2_1_" d="M-55.1659 -4.48829 L-54.2736 -3.41758 L-53.3813 -2.34688 L-52.4889 -1.27617 L-51.5966 -0.20546 L-50.7043 0.865247 L-52.0785 1.10259 L-53.4528 1.33994 L-54.8271 1.57729 L-56.2013 1.81464 L-57.5756 2.05198 L-57.0937 0.743928 L-56.6117 -0.564127 L-56.1298 -1.87218 L-55.6478 -3.18024 L-55.1659 -4.48829 Z " />
<path stroke="rgb(200,255,200)" stroke-opacity="1" fill="rgb(200,255,200)" fill-opacity="1" id="tri_1" d="M-54.8978 -6.88355 L-55.7612 -8.005 L-56.6245 -9.12644 L-57.4878 -10.2479 L-58.3511 -11.3693 L-59.2144 -12.4908 L-57.8112 -12.6775 L-56.408 -12.8642 L-55.0048 -13.0509 L-53.6016 -13.2377 L-52.1984 -13.4244 L-52.7383 -12.1162 L-53.2782 -10.8081 L-53.8181 -9.49989 L-54.3579 -8.19172 L-54.8978 -6.88355 Z " />
<path stroke="rgb(200,255,200)" stroke-opacity="1" fill="rgb(200,255,200)" fill-opacity="1" id="tri_3_1_" d="M-45.0677 8.24831 L-44.1433 9.2589 L-43.2188 10.2695 L-42.2944 11.2801 L-41.3699 12.2907 L-40.4455 13.3013 L-41.7831 13.596 L-43.1207 13.8907 L-44.4583 14.1855 L-45.7959 14.4802 L-47.1335 14.7749 L-46.7203 13.4696 L-46.3072 12.1643 L-45.894 10.859 L-45.4809 9.55363 L-45.0677 8.24831 Z " />
<path stroke="rgb(200,255,200)" stroke-opacity="1" fill="rgb(200,255,200)" fill-opacity="1" id="tri_2" d="M-45.3449 6.09525 L-46.2376 5.02427 L-47.1303 3.95328 L-48.0229 2.8823 L-48.9156 1.81131 L-49.8083 0.740327 L-48.434 0.502979 L-47.0597 0.265632 L-45.6855 0.0282854 L-44.3112 -0.209062 L-42.9369 -0.446409 L-43.4185 0.861923 L-43.9001 2.17025 L-44.3817 3.47859 L-44.8633 4.78692 L-45.3449 6.09525 Z " />
<path stroke="rgb(200,255,200)" stroke-opacity="1" fill="rgb(200,255,200)" fill-opacity="1" id="tri_4_1_" d="M-34.0431 19.8873 L-33.0869 20.8273 L-32.1308 21.7673 L-31.1746 22.7073 L-30.2184 23.6473 L-29.2623 24.5873 L-30.5543 24.9454 L-31.8463 25.3034 L-33.1383 25.6615 L-34.4303 26.0195 L-35.7223 26.3776 L-35.3865 25.0795 L-35.0507 23.7815 L-34.7148 22.4834 L-34.379 21.1854 L-34.0431 19.8873 Z " />
<path stroke="rgb(200,255,200)" stroke-opacity="1" fill="rgb(200,255,200)" fill-opacity="1" id="tri_3" d="M-34.9508 18.191 L-35.8748 17.1804 L-36.7988 16.1698 L-37.7228 15.1592 L-38.6469 14.1486 L-39.5709 13.138 L-38.2333 12.8433 L-36.8957 12.5485 L-35.5581 12.2538 L-34.2205 11.9591 L-32.8828 11.6643 L-33.2964 12.9697 L-33.71 14.275 L-34.1236 15.5803 L-34.5372 16.8857 L-34.9508 18.191 Z " />
<path stroke="rgb(200,255,200)" stroke-opacity="1" fill="rgb(200,255,200)" fill-opacity="1" id="tri_5_1_" d="M-22.0464 30.0717 L-21.058 30.9304 L-20.0697 31.7891 L-19.0813 32.6477 L-18.0929 33.5064 L-17.1046 34.3651 L-18.3425 34.7914 L-19.5805 35.2177 L-20.8184 35.644 L-22.0564 36.0703 L-23.2943 36.4966 L-23.0447 35.2116 L-22.7951 33.9266 L-22.5456 32.6417 L-22.296 31.3567 L-22.0464 30.0717 Z " />
<path stroke="rgb(200,255,200)" stroke-opacity="1" fill="rgb(200,255,200)" fill-opacity="1" id="tri_4" d="M-23.626 29.0825 L-24.5823 28.1422 L-25.5387 27.2019 L-26.4951 26.2615 L-27.4514 25.3212 L-28.4078 24.3809 L-27.1158 24.0228 L-25.8237 23.6648 L-24.5317 23.3067 L-23.2397 22.9487 L-21.9477 22.5907 L-22.2833 23.889 L-22.619 25.1874 L-22.9547 26.4858 L-23.2903 27.7841 L-23.626 29.0825 Z " />
<path stroke="rgb(200,255,200)" stroke-opacity="1" fill="rgb(200,255,200)" fill-opacity="1" id="tri_6_1_" d="M-9.10725 38.4117 L-8.0892 39.177 L-7.07115 39.9423 L-6.0531 40.7076 L-5.03504 41.4729 L-4.01699 42.2382 L-5.18889 42.7374 L-6.36079 43.2367 L-7.5327 43.7359 L-8.7046 44.2351 L-9.8765 44.7343 L-9.72265 43.4698 L-9.5688 42.2053 L-9.41495 40.9408 L-9.2611 39.6762 L-9.10725 38.4117 Z " />
<path stroke="rgb(200,255,200)" stroke-opacity="1" fill="rgb(200,255,200)" fill-opacity="1" id="tri_5" d="M-11.3446 38.4051 L-12.3329 37.5467 L-13.3212 36.6883 L-14.3095 35.8299 L-15.2978 34.9715 L-16.2861 34.1131 L-15.0481 33.6868 L-13.8102 33.2605 L-12.5722 32.8342 L-11.3343 32.4079 L-10.0964 31.9816 L-10.346 33.2663 L-10.5957 34.551 L-10.8453 35.8357 L-11.095 37.1204 L-11.3446 38.4051 Z " />
<path stroke="rgb(200,255,200)" stroke-opacity="1" fill="rgb(200,255,200)" fill-opacity="1" id="tri_7_1_" d="M4.65737 44.4906 L5.70013 45.1513 L6.7429 45.812 L7.78567 46.4727 L8.82844 47.1334 L9.87121 47.7941 L8.77722 48.3665 L7.68324 48.9389 L6.58925 49.5112 L5.49526 50.0836 L4.40127 50.6559 L4.45249 49.4229 L4.50371 48.1898 L4.55493 46.9567 L4.60615 45.7237 L4.65737 44.4906 Z " />
<path stroke="rgb(200,255,200)" stroke-opacity="1" fill="rgb(200,255,200)" fill-opacity="1" id="tri_6" d="M1.85392 45.7663 L0.835854 45.0012 L-0.182213 44.236 L-1.20028 43.4708 L-2.21835 42.7056 L-3.23641 41.9405 L-2.06451 41.4412 L-0.892612 40.942 L0.279289 40.4428 L1.45119 39.9436 L2.62309 39.4444 L2.46926 40.7088 L2.31542 41.9732 L2.16159 43.2376 L2.00776 44.5019 L1.85392 45.7663 Z " />
<path stroke="rgb(200,255,200)" stroke-opacity="1" fill="rgb(200,255,200)" fill-opacity="1" id="tri_8_1_" d="M18.8936 47.9878 L19.9539 48.5361 L21.0142 49.0845 L22.0744 49.6328 L23.1347 50.1811 L24.195 50.7294 L23.1898 51.3733 L22.1846 52.0173 L21.1794 52.6613 L20.1742 53.3052 L19.1691 53.9492 L19.114 52.7569 L19.0589 51.5646 L19.0038 50.3724 L18.9487 49.1801 L18.8936 47.9878 Z " />
<path stroke="rgb(200,255,200)" stroke-opacity="1" fill="rgb(200,255,200)" fill-opacity="1" id="tri_7" d="M15.8173 50.7471 L14.7743 50.0863 L13.7312 49.4254 L12.6882 48.7646 L11.6452 48.1038 L10.6022 47.4429 L11.6962 46.8706 L12.7902 46.2982 L13.8842 45.7259 L14.9782 45.1535 L16.0722 44.5812 L16.0212 45.8143 L15.9702 47.0475 L15.9192 48.2807 L15.8682 49.5139 L15.8173 50.7471 Z " />
<path stroke="rgb(200,255,200)" stroke-opacity="1" fill="rgb(200,255,200)" fill-opacity="1" id="tri_9" d="M32.7073 49.4404 L33.7737 49.8884 L34.8402 50.3364 L35.9066 50.7844 L36.973 51.2324 L38.0395 51.6804 L37.1183 52.3798 L36.1971 53.0792 L35.2759 53.7786 L34.3547 54.478 L33.4335 55.1774 L33.2883 54.03 L33.143 52.8826 L32.9978 51.7352 L32.8525 50.5878 L32.7073 49.4404 Z " />
<path stroke="rgb(200,255,200)" stroke-opacity="1" fill="rgb(200,255,200)" fill-opacity="1" id="tri_8" d="M30.172 53.0745 L29.112 52.5262 L28.052 51.9778 L26.9919 51.4295 L25.9319 50.8812 L24.8719 50.3329 L25.877 49.6889 L26.8822 49.0449 L27.8874 48.401 L28.8926 47.757 L29.8978 47.1131 L29.9526 48.3053 L30.0075 49.4976 L30.0623 50.6899 L30.1172 51.8822 L30.172 53.0745 Z " />
</g>
</g>
</svg>
