<!DOCTYPE svg>
<svg xmlns="http://www.w3.org/2000/svg" xmlns:xlink="http://www.w3.org/1999/xlink" width="600" height="600">
<g transform="translate(300.000000,300.000000)">
<g transform="scale(3.000000,3.000000)">
<path stroke="rgb(0,0,0)" stroke-opacity="1" fill="rgb(255,255,255)" fill-opacity="1" id="Layer_1" d="M107.411 107.089 L105.406 107.092 L103.402 107.095 L101.397 107.098 L99.3922 107.101 L97.3875 107.104 L95.3828 107.107 L93.3782 107.11 L91.3735 107.113 L89.3688 107.116 L87.3641 107.119 L85.3595 107.122 L83.3548 107.125 L81.3501 107.128 L79.3455 107.131 L77.3408 107.134 L75.3361 107.137 L73.3314 107.14 L71.3268 107.143 L69.3221 107.146 L67.3174 107.149 L65.3127 107.152 L63.3081 107.155 L61.3034 107.158 L59.2987 107.161 L57.2941 107.164 L55.2894 107.167 L53.2847 107.17 L51.28 107.173 L49.2754 107.176 L47.2707 107.179 L45.266 107.182 L43.2613 107.185 L41.2567 107.188 L39.252 107.191 L37.2473 107.194 L35.2426 107.197 L33.238 107.2 L31.2333 107.203 L29.2286 107.206 L27.224 107.209 L25.2193 107.212 L23.2146 107.215 L21.2099 107.218 L19.2053 107.221 L17.2006 107.224 L15.1959 107.227 L13.1912 107.23 L11.1866 107.233 L9.1819 107.236 L7.17723 107.239 L5.17256 107.242 L3.16788 107.245 L1.16321 107.248 L-0.841463 107.252 L-2.84614 107.255 L-4.85081 107.258 L-6.85548 107.261 L-8.86015 107.264 L-10.8648 107.267 L-12.8695 107.27 L-14.8742 107.273 L-16.8788 107.276 L-18.8835 107.279 L-20.8882 107.282 L-22.8929 107.285 L-24.8975 107.288 L-26.9022 107.291 L-28.9069 107.294 L-30.9116 107.297 L-32.9162 107.3 L-34.9209 107.303 L-36.9256 107.306 L-38.9302 107.309 L-40.9349 107.312 L-42.9396 107.315 L-44.9443 107.318 L-46.9489 107.321 L-48.9536 107.324 L-50.9583 107.327 L-52.963 107.33 L-54.9676 107.333 L-56.9723 107.336 L-58.977 107.339 L-60.9816 107.342 L-62.9863 107.345 L-64.991 107.348 L-66.9957 107.351 L-69.0003 107.354 L-71.005 107.357 L-73.0097 107.36 L-75.0144 107.363 L-77.019 107.366 L-79.0237 107.369 L-81.0284 107.372 L-83.0331 107.375 L-85.0377 107.378 L-87.0424 107.381 L-89.0471 107.384 L-91.0517 107.387 L-93.0564 107.39 L-95.0611 107.393 L-97.0658 107.396 L-99.0704 107.399 L-101.075 107.402 L-103.08 107.405 L-105.084 107.408 L-107.089 107.411 L-107.092 105.406 L-107.095 103.402 L-107.098 101.397 L-107.101 99.3922 L-107.104 97.3875 L-107.107 95.3828 L-107.11 93.3782 L-107.113 91.3735 L-107.116 89.3688 L-107.119 87.3641 L-107.122 85.3595 L-107.125 83.3548 L-107.128 81.3501 L-107.131 79.3455 L-107.134 77.3408 L-107.137 75.3361 L-107.14 73.3314 L-107.143 71.3268 L-107.146 69.3221 L-107.149 67.3174 L-107.152 65.3127 L-107.155 63.3081 L-107.158 61.3034 L-107.161 59.2987 L-107.164 57.2941 L-107.167 55.2894 L-107.17 53.2847 L-107.173 51.28 L-107.176 49.2754 L-107.179 47.2707 L-107.182 45.266 L-107.185 43.2613 L-107.188 41.2567 L-107.191 39.252 L-107.194 37.2473 L-107.197 35.2426 L-107.2 33.238 L-107.203 31.2333 L-107.206 29.2286 L-107.209 27.224 L-107.212 25.2193 L-107.215 23.2146 L-107.218 21.2099 L-107.221 19.2053 L-107.224 17.2006 L-107.227 15.1959 L-107.23 13.1912 L-107.233 11.1866 L-107.236 9.1819 L-107.239 7.17722 L-107.242 5.17255 L-107.245 3.16788 L-107.248 1.1632 L-107.251 -0.841469 L-107.255 -2.84614 L-107.258 -4.85081 L-107.261 -6.85549 L-107.264 -8.86016 L-107.267 -10.8648 L-107.27 -12.8695 L-107.273 -14.8742 L-107.276 -16.8789 L-107.279 -18.8835 L-107.282 -20.8882 L-107.285 -22.8929 L-107.288 -24.8975 L-107.291 -26.9022 L-107.294 -28.9069 L-107.297 -30.9116 L-107.3 -32.9162 L-107.303 -34.9209 L-107.306 -36.9256 L-107.309 -38.9303 L-107.312 -40.9349 L-107.315 -42.9396 L-107.318 -44.9443 L-107.321 -46.9489 L-107.324 -48.9536 L-107.327 -50.9583 L-107.33 -52.963 L-107.333 -54.9676 L-107.336 -56.9723 L-107.339 -58.977 L-107.342 -60.9817 L-107.345 -62.9863 L-107.348 -64.991 L-107.351 -66.9957 L-107.354 -69.0003 L-107.357 -71.005 L-107.36 -73.0097 L-107.363 -75.0144 L-107.366 -77.019 L-107.369 -79.0237 L-107.372 -81.0284 L-107.375 -83.0331 L-107.378 -85.0377 L-107.381 -87.0424 L-107.384 -89.0471 L-107.387 -91.0518 L-107.39 -93.0564 L-107.393 -95.0611 L-107.396 -97.0658 L-107.399 -99.0704 L-107.402 -101.075 L-107.405 -103.08 L-107.408 -105.084 L-107.411 -107.089 L-105.406 -107.092 L-103.402 -107.095 L-101.397 -107.098 L-99.3922 -107.101 L-97.3875 -107.104 L-95.3828 -107.107 L-93.3782 -107.11 L-91.3735 -107.113 L-89.3688 -107.116 L-87.3641 -107.119 L-85.3595 -107.122 L-83.3548 -107.125 L-81.3501 -107.128 L-79.3455 -107.131 L-77.3408 -107.134 L-75.3361 -107.137 L-73.3314 -107.14 L-71.3268 -107.143 L-69.3221 -107.146 L-67.3174 -107.149 L-65.3127 -107.152 L-63.3081 -107.155 L-61.3034 -107.158 L-59.2987 -107.161 L-57.2941 -107.164 L-55.2894 -107.167 L-53.2847 -107.17 L-51.28 -107.173 L-49.2754 -107.176 L-47.2707 -107.179 L-45.266 -107.182 L-43.2613 -107.185 L-41.2567 -107.188 L-39.252 -107.191 L-37.2473 -107.194 L-35.2426 -107.197 L-33.238 -107.2 L-31.2333 -107.203 L-29.2286 -107.206 L-27.224 -107.209 L-25.2193 -107.212 L-23.2146 -107.215 L-21.2099 -107.218 L-19.2053 -107.221 L-17.2006 -107.224 L-15.1959 -107.227 L-13.1912 -107.23 L-11.1866 -107.233 L-9.1819 -107.236 L-7.17723 -107.239 L-5.17256 -107.242 L-3.16788 -107.245 L-1.16321 -107.248 L0.841463 -107.252 L2.84614 -107.255 L4.85081 -107.258 L6.85548 -107.261 L8.86015 -107.264 L10.8648 -107.267 L12.8695 -107.27 L14.8742 -107.273 L16.8788 -107.276 L18.8835 -107.279 L20.8882 -107.282 L22.8929 -107.285 L24.8975 -107.288 L26.9022 -107.291 L28.9069 -107.294 L30.9116 -107.297 L32.9162 -107.3 L34.9209 -107.303 L36.9256 -107.306 L38.9302 -107.309 L40.9349 -107.312 L42.9396 -107.315 L44.9443 -107.318 L46.9489 -107.321 L48.9536 -107.324 L50.9583 -107.327 L52.963 -107.33 L54.9676 -107.333 L56.9723 -107.336 L58.977 -107.339 L60.9816 -107.342 L62.9863 -107.345 L64.991 -107.348 L66.9957 -107.351 L69.0003 -107.354 L71.005 -107.357 L73.0097 -107.36 L75.0144 -107.363 L77.019 -107.366 L79.0237 -107.369 L81.0284 -107.372 L83.0331 -107.375 L85.0377 -107.378 L87.0424 -107.381 L89.0471 -107.384 L91.0517 -107.387 L93.0564 -107.39 L95.0611 -107.393 L97.0658 -107.396 L99.0704 -107.399 L101.075 -107.402 L103.08 -107.405 L105.084 -107.408 L107.089 -107.411 L107.092 -105.406 L107.095 -103.402 L107.098 -101.397 L107.101 -99.3922 L107.104 -97.3875 L107.107 -95.3828 L107.11 -93.3782 L107.113 -91.3735 L107.116 -89.3688 L107.119 -87.3642 L107.122 -85.3595 L107.125 -83.3548 L107.128 -81.3501 L107.131 -79.3455 L107.134 -77.3408 L107.137 -75.3361 L107.14 -73.3314 L107.143 -71.3268 L107.146 -69.3221 L107.149 -67.3174 L107.152 -65.3128 L107.155 -63.3081 L107.158 -61.3034 L107.161 -59.2987 L107.164 -57.2941 L107.167 -55.2894 L107.17 -53.2847 L107.173 -51.28 L107.176 -49.2754 L107.179 -47.2707 L107.182 -45.266 L107.185 -43.2613 L107.188 -41.2567 L107.191 -39.252 L107.194 -37.2473 L107.197 -35.2427 L107.2 -33.238 L107.203 -31.2333 L107.206 -29.2286 L107.209 -27.224 L107.212 -25.2193 L107.215 -23.2146 L107.218 -21.2099 L107.221 -19.2053 L107.224 -17.2006 L107.227 -15.1959 L107.23 -13.1913 L107.233 -11.1866 L107.236 -9.18191 L107.239 -7.17724 L107.242 -5.17256 L107.245 -3.16789 L107.248 -1.16322 L107.251 0.841455 L107.255 2.84613 L107.258 4.8508 L107.261 6.85547 L107.264 8.86015 L107.267 10.8648 L107.27 12.8695 L107.273 14.8742 L107.276 16.8788 L107.279 18.8835 L107.282 20.8882 L107.285 22.8929 L107.288 24.8975 L107.291 26.9022 L107.294 28.9069 L107.297 30.9115 L107.3 32.9162 L107.303 34.9209 L107.306 36.9256 L107.309 38.9302 L107.312 40.9349 L107.315 42.9396 L107.318 44.9443 L107.321 46.9489 L107.324 48.9536 L107.327 50.9583 L107.33 52.963 L107.333 54.9676 L107.336 56.9723 L107.339 58.977 L107.342 60.9816 L107.345 62.9863 L107.348 64.991 L107.351 66.9957 L107.354 69.0003 L107.357 71.005 L107.36 73.0097 L107.363 75.0144 L107.366 77.019 L107.369 79.0237 L107.372 81.0284 L107.375 83.033 L107.378 85.0377 L107.381 87.0424 L107.384 89.0471 L107.387 91.0517 L107.39 93.0564 L107.393 95.0611 L107.396 97.0658 L107.399 99.0704 L107.402 101.075 L107.405 103.08 L107.408 105.084 L107.411 107.089 Z " />
<path stroke="rgb(169,255,187)" stroke-opacity="1" fill="rgb(169,255,187)" fill-opacity="1" id="scalebar" d="M-3.69904 -94.609 L-1.65554 -94.609 L0.387962 -94.609 L2.43146 -94.609 L4.47496 -94.609 L4.47496 -92.6686 L4.47496 -90.7281 L4.47496 -88.7876 L4.47496 -86.8472 L4.47496 -84.9067 L4.47496 -82.9663 L4.47496 -81.0258 L4.47496 -79.0853 L4.47496 -77.1449 L4.47496 -75.2044 L4.47496 -73.2639 L4.47496 -71.3235 L4.47496 -69.383 L2.43146 -69.383 L0.387962 -69.383 L-1.65554 -69.383 L-3.69904 -69.383 L-3.69904 -71.3235 L-3.69904 -73.2639 L-3.69904 -75.2044 L-3.69904 -77.1449 L-3.69904 -79.0853 L-3.69904 -81.0258 L-3.69904 -82.9663 L-3.69904 -84.9067 L-3.69904 -86.8472 L-3.69904 -88.7876 L-3.69904 -90.7281 L-3.69904 -92.6686 L-3.69904 -94.609 Z " />
<path stroke="rgb(200,255,200)" stroke-opacity="1" fill="rgb(200,255,200)" fill-opacity="1" id="scaleslider" d="M-6.69904 -93.2341 L-4.67418 -93.2341 L-2.64932 -93.2341 L-0.624466 -93.2341 L1.40039 -93.2341 L3.42525 -93.2341 L5.4501 -93.2341 L7.47496 -93.2341 L7.47496 -91.5075 L7.47496 -89.7808 L7.47496 -88.0541 L5.4501 -88.0541 L3.42525 -88.0541 L1.40039 -88.0541 L-0.624466 -88.0541 L-2.64932 -88.0541 L-4.67418 -88.0541 L-6.69904 -88.0541 L-6.69904 -89.7808 L-6.69904 -91.5075 L-6.69904 -93.2341 Z " />
<path stroke="rgb(255,134,106)" stroke-opacity="1" fill="rgb(255,134,106)" fill-opacity="1" id="tranbar" d="M-49.142 -86.146 L-47.0675 -86.146 L-44.993 -86.146 L-42.9185 -86.146 L-40.844 -86.146 L-40.844 -88.2208 L-40.844 -90.2955 L-40.844 -92.3703 L-40.844 -94.445 L-38.7685 -94.445 L-36.693 -94.445 L-34.6175 -94.445 L-32.542 -94.445 L-32.542 -92.3703 L-32.542 -90.2955 L-32.542 -88.2208 L-32.542 -86.146 L-30.4673 -86.146 L-28.3925 -86.146 L-26.3178 -86.146 L-24.243 -86.146 L-24.243 -84.0715 L-24.243 -81.997 L-24.243 -79.9225 L-24.243 -77.848 L-26.3178 -77.848 L-28.3925 -77.848 L-30.4673 -77.848 L-32.542 -77.848 L-32.542 -75.773 L-32.542 -73.698 L-32.542 -71.623 L-32.542 -69.548 L-34.6175 -69.548 L-36.693 -69.548 L-38.7685 -69.548 L-40.844 -69.548 L-40.844 -71.623 L-40.844 -73.698 L-40.844 -75.773 L-40.844 -77.848 L-42.9185 -77.848 L-44.993 -77.848 L-47.0675 -77.848 L-49.142 -77.848 L-49.142 -79.9225 L-49.142 -81.997 L-49.142 -84.0715 L-49.142 -86.146 Z " />
<path stroke="rgb(255,250,159)" stroke-opacity="1" fill="rgb(255,250,159)" fill-opacity="1" id="translider" d="M-39.4539 -84.553 L-37.7506 -84.553 L-36.0472 -84.553 L-34.3439 -84.553 L-34.3439 -82.85 L-34.3439 -81.147 L-34.3439 -79.444 L-36.0472 -79.444 L-37.7506 -79.444 L-39.4539 -79.444 L-39.4539 -81.147 L-39.4539 -82.85 L-39.4539 -84.553 Z " />
<path stroke="rgb(254,204,128)" stroke-opacity="1" fill="rgb(254,204,128)" fill-opacity="1" id="rotate" d="M42.4693 -89.5066 L43.3293 -87.78 L44.1893 -86.0533 L45.0493 -84.3267 L45.9093 -82.6 L46.7693 -80.8734 L45.7036 -79.2653 L44.638 -77.6572 L43.5723 -76.0491 L42.5067 -74.441 L41.441 -72.8329 L39.5154 -72.9517 L37.5897 -73.0704 L35.6641 -73.1892 L33.7385 -73.3079 L31.8128 -73.4267 L30.9528 -75.1535 L30.0928 -76.8804 L29.2329 -78.6072 L28.3729 -80.334 L27.5129 -82.0609 L28.5785 -83.6688 L29.6441 -85.2767 L30.7098 -86.8846 L31.7754 -88.4925 L32.8411 -90.1004 L34.7667 -89.9816 L36.6923 -89.8629 L38.618 -89.7441 L40.5436 -89.6254 L42.4693 -89.5066 Z " />
<path stroke="rgb(200,255,200)" stroke-opacity="1" fill="rgb(200,255,200)" fill-opacity="1" id="tri_0" d="M62.1888 -40.911 L63.0115 -39.5746 L63.8343 -38.2382 L64.657 -36.9018 L65.4798 -35.5654 L66.3026 -34.229 L64.7883 -34.1842 L63.2741 -34.1394 L61.7598 -34.0945 L60.2455 -34.0497 L58.7313 -34.0049 L59.4228 -35.3861 L60.1143 -36.7673 L60.8058 -38.1486 L61.4973 -39.5298 L62.1888 -40.911 Z " />
<path stroke="rgb(200,255,200)" stroke-opacity="1" fill="rgb(200,255,200)" fill-opacity="1" id="tri_0_18_" d="M47.2327 -40.8896 L48.0559 -39.5539 L48.879 -38.2182 L49.7021 -36.8825 L50.5252 -35.5468 L51.3483 -34.2111 L49.8338 -34.1661 L48.3192 -34.1211 L46.8047 -34.076 L45.2902 -34.031 L43.7756 -33.986 L44.4671 -35.3667 L45.1585 -36.7474 L45.8499 -38.1282 L46.5413 -39.5089 L47.2327 -40.8896 Z " />
<path stroke="rgb(200,255,200)" stroke-opacity="1" fill="rgb(200,255,200)" fill-opacity="1" id="tri_1_16_" d="M54.7721 -27.8993 L55.5763 -26.575 L56.3806 -25.2507 L57.1848 -23.9264 L57.989 -22.6021 L58.7933 -21.2778 L57.2853 -21.2433 L55.7772 -21.2089 L54.2692 -21.1745 L52.7612 -21.14 L51.2532 -21.1056 L51.957 -22.4643 L52.6607 -23.8231 L53.3645 -25.1818 L54.0683 -26.5405 L54.7721 -27.8993 Z " />
<path stroke="rgb(200,255,200)" stroke-opacity="1" fill="rgb(200,255,200)" fill-opacity="1" id="tri_0_17_" d="M56.0628 -27.5537 L55.2397 -28.8899 L54.4167 -30.2261 L53.5937 -31.5623 L52.7706 -32.8985 L51.9476 -34.2347 L53.4621 -34.2797 L54.9767 -34.3247 L56.4912 -34.3697 L58.0057 -34.4147 L59.5203 -34.4598 L58.8288 -33.0786 L58.1373 -31.6973 L57.4458 -30.3161 L56.7543 -28.9349 L56.0628 -27.5537 Z " />
<path stroke="rgb(200,255,200)" stroke-opacity="1" fill="rgb(200,255,200)" fill-opacity="1" id="tri_0_16_" d="M32.2756 -40.8694 L33.0988 -39.5329 L33.9221 -38.1964 L34.7453 -36.86 L35.5685 -35.5235 L36.3918 -34.187 L34.8768 -34.1424 L33.3618 -34.0978 L31.8468 -34.0532 L30.3317 -34.0087 L28.8167 -33.9641 L29.5085 -35.3452 L30.2003 -36.7262 L30.892 -38.1073 L31.5838 -39.4883 L32.2756 -40.8694 Z " />
<path stroke="rgb(200,255,200)" stroke-opacity="1" fill="rgb(200,255,200)" fill-opacity="1" id="tri_1_15_" d="M39.8132 -27.8752 L40.618 -26.5509 L41.4227 -25.2267 L42.2275 -23.9024 L43.0323 -22.5782 L43.8371 -21.254 L42.3286 -21.2196 L40.8201 -21.1853 L39.3116 -21.1509 L37.8032 -21.1166 L36.2947 -21.0822 L36.9984 -22.4408 L37.7021 -23.7994 L38.4058 -25.158 L39.1095 -26.5166 L39.8132 -27.8752 Z " />
<path stroke="rgb(200,255,200)" stroke-opacity="1" fill="rgb(200,255,200)" fill-opacity="1" id="tri_0_15_" d="M41.1075 -27.5327 L40.2839 -28.8688 L39.4603 -30.2049 L38.6367 -31.5411 L37.8132 -32.8772 L36.9896 -34.2134 L38.5046 -34.258 L40.0196 -34.3025 L41.5346 -34.3471 L43.0496 -34.3917 L44.5646 -34.4363 L43.8732 -33.0555 L43.1818 -31.6748 L42.4903 -30.2941 L41.7989 -28.9134 L41.1075 -27.5327 Z " />
<path stroke="rgb(200,255,200)" stroke-opacity="1" fill="rgb(200,255,200)" fill-opacity="1" id="tri_2_14_" d="M47.3502 -14.8865 L48.1397 -13.5718 L48.9291 -12.2571 L49.7186 -10.9423 L50.508 -9.6276 L51.2975 -8.31287 L49.7943 -8.28728 L48.2911 -8.2617 L46.7879 -8.23611 L45.2847 -8.21052 L43.7815 -8.18494 L44.4953 -9.52525 L45.209 -10.8656 L45.9227 -12.2059 L46.6365 -13.5462 L47.3502 -14.8865 Z " />
<path stroke="rgb(200,255,200)" stroke-opacity="1" fill="rgb(200,255,200)" fill-opacity="1" id="tri_1_14_" d="M48.5492 -14.6472 L47.7445 -15.9716 L46.9398 -17.2959 L46.135 -18.6203 L45.3303 -19.9447 L44.5256 -21.2691 L46.0341 -21.3034 L47.5426 -21.3378 L49.0511 -21.3721 L50.5596 -21.4065 L52.0681 -21.4408 L51.3643 -20.0821 L50.6605 -18.7234 L49.9567 -17.3646 L49.253 -16.0059 L48.5492 -14.6472 Z " />
<path stroke="rgb(200,255,200)" stroke-opacity="1" fill="rgb(200,255,200)" fill-opacity="1" id="tri_0_14_" d="M17.3143 -40.8496 L18.1377 -39.5132 L18.9612 -38.1767 L19.7846 -36.8403 L20.6081 -35.5039 L21.4315 -34.1675 L19.9168 -34.1231 L18.402 -34.0787 L16.8873 -34.0344 L15.3726 -33.99 L13.8578 -33.9456 L14.5491 -35.3264 L15.2404 -36.7072 L15.9317 -38.088 L16.623 -39.4688 L17.3143 -40.8496 Z " />
<path stroke="rgb(200,255,200)" stroke-opacity="1" fill="rgb(200,255,200)" fill-opacity="1" id="tri_1_13_" d="M24.8565 -27.8554 L25.6607 -26.5306 L26.4648 -25.2058 L27.269 -23.8811 L28.0732 -22.5563 L28.8773 -21.2315 L27.3693 -21.1971 L25.8613 -21.1626 L24.3533 -21.1282 L22.8452 -21.0938 L21.3372 -21.0593 L22.0411 -22.4185 L22.7449 -23.7778 L23.4488 -25.137 L24.1526 -26.4962 L24.8565 -27.8554 Z " />
<path stroke="rgb(200,255,200)" stroke-opacity="1" fill="rgb(200,255,200)" fill-opacity="1" id="tri_0_13_" d="M26.1463 -27.511 L25.3234 -28.8477 L24.5004 -30.1844 L23.6774 -31.5211 L22.8545 -32.8577 L22.0315 -34.1944 L23.5462 -34.2388 L25.061 -34.2832 L26.5757 -34.3276 L28.0904 -34.3719 L29.6052 -34.4163 L28.9134 -33.0353 L28.2216 -31.6542 L27.5299 -30.2731 L26.8381 -28.8921 L26.1463 -27.511 Z " />
<path stroke="rgb(200,255,200)" stroke-opacity="1" fill="rgb(200,255,200)" fill-opacity="1" id="tri_2_13_" d="M32.3936 -14.8644 L33.1826 -13.5499 L33.9717 -12.2354 L34.7608 -10.9209 L35.5498 -9.60635 L36.3389 -8.29185 L34.836 -8.26611 L33.333 -8.24037 L31.8301 -8.21464 L30.3272 -8.1889 L28.8242 -8.16317 L29.5381 -9.50341 L30.252 -10.8437 L30.9658 -12.1839 L31.6797 -13.5241 L32.3936 -14.8644 Z " />
<path stroke="rgb(200,255,200)" stroke-opacity="1" fill="rgb(200,255,200)" fill-opacity="1" id="tri_1_12_" d="M33.5909 -14.6236 L32.7866 -15.9478 L31.9823 -17.272 L31.178 -18.5961 L30.3737 -19.9203 L29.5694 -21.2444 L31.0774 -21.2789 L32.5854 -21.3133 L34.0934 -21.3478 L35.6014 -21.3822 L37.1095 -21.4166 L36.4058 -20.058 L35.7021 -18.6994 L34.9983 -17.3408 L34.2946 -15.9822 L33.5909 -14.6236 Z " />
<path stroke="rgb(200,255,200)" stroke-opacity="1" fill="rgb(200,255,200)" fill-opacity="1" id="tri_3_12_" d="M39.9128 -1.89799 L40.6905 -0.591668 L41.4682 0.714655 L42.2459 2.02098 L43.0236 3.3273 L43.8013 4.63362 L42.303 4.65423 L40.8046 4.67483 L39.3063 4.69544 L37.808 4.71604 L36.3097 4.73665 L37.0303 3.40972 L37.7509 2.08279 L38.4715 0.755865 L39.1922 -0.571062 L39.9128 -1.89799 Z " />
<path stroke="rgb(200,255,200)" stroke-opacity="1" fill="rgb(200,255,200)" fill-opacity="1" id="tri_2_12_" d="M41.0469 -1.72275 L40.2577 -3.03733 L39.4686 -4.35191 L38.6794 -5.66649 L37.8902 -6.98108 L37.101 -8.29566 L38.6039 -8.3214 L40.1068 -8.34713 L41.6098 -8.37287 L43.1127 -8.3986 L44.6156 -8.42434 L43.9019 -7.08402 L43.1881 -5.7437 L42.4744 -4.40339 L41.7607 -3.06307 L41.0469 -1.72275 Z " />
<path stroke="rgb(200,255,200)" stroke-opacity="1" fill="rgb(200,255,200)" fill-opacity="1" id="tri_0_12_" d="M2.36037 -40.8276 L3.18307 -39.4918 L4.00578 -38.156 L4.82848 -36.8201 L5.65118 -35.4843 L6.47388 -34.1485 L4.95928 -34.1037 L3.44468 -34.0589 L1.93008 -34.0141 L0.415477 -33.9693 L-1.09912 -33.9244 L-0.407225 -35.3051 L0.284674 -36.6857 L0.976574 -38.0664 L1.66847 -39.447 L2.36037 -40.8276 Z " />
<path stroke="rgb(200,255,200)" stroke-opacity="1" fill="rgb(200,255,200)" fill-opacity="1" id="tri_1_11_" d="M9.89734 -27.8326 L10.7019 -26.5085 L11.5064 -25.1844 L12.3109 -23.8603 L13.1154 -22.5362 L13.92 -21.2121 L12.4117 -21.1776 L10.9035 -21.1431 L9.39528 -21.1086 L7.88705 -21.0741 L6.37883 -21.0396 L7.08253 -22.3982 L7.78623 -23.7568 L8.48994 -25.1154 L9.19364 -26.474 L9.89734 -27.8326 Z " />
<path stroke="rgb(200,255,200)" stroke-opacity="1" fill="rgb(200,255,200)" fill-opacity="1" id="tri_0_11_" d="M11.1885 -27.4925 L10.3652 -28.8285 L9.5419 -30.1645 L8.71858 -31.5005 L7.89527 -32.8365 L7.07196 -34.1725 L8.58656 -34.2173 L10.1012 -34.2621 L11.6158 -34.3069 L13.1304 -34.3517 L14.645 -34.3965 L13.9537 -33.0157 L13.2624 -31.6349 L12.5711 -30.2541 L11.8798 -28.8733 L11.1885 -27.4925 Z " />
<path stroke="rgb(200,255,200)" stroke-opacity="1" fill="rgb(200,255,200)" fill-opacity="1" id="tri_2_11_" d="M17.4353 -14.847 L18.2244 -13.5319 L19.0135 -12.2169 L19.8026 -10.9018 L20.5917 -9.58677 L21.3808 -8.27171 L19.8782 -8.24617 L18.3755 -8.22063 L16.8729 -8.19508 L15.3702 -8.16954 L13.8676 -8.144 L14.5811 -9.4846 L15.2946 -10.8252 L16.0082 -12.1658 L16.7217 -13.5064 L17.4353 -14.847 Z " />
<path stroke="rgb(200,255,200)" stroke-opacity="1" fill="rgb(200,255,200)" fill-opacity="1" id="tri_1_10_" d="M18.6326 -14.6018 L17.8283 -15.9265 L17.0239 -17.2512 L16.2195 -18.576 L15.4152 -19.9007 L14.6108 -21.2254 L16.119 -21.2599 L17.6272 -21.2944 L19.1355 -21.3289 L20.6437 -21.3634 L22.1519 -21.3979 L21.4481 -20.0387 L20.7442 -18.6794 L20.0403 -17.3202 L19.3365 -15.961 L18.6326 -14.6018 Z " />
<path stroke="rgb(200,255,200)" stroke-opacity="1" fill="rgb(200,255,200)" fill-opacity="1" id="tri_3_11_" d="M24.9575 -1.87469 L25.7348 -0.568249 L26.5121 0.73819 L27.2894 2.04463 L28.0667 3.35107 L28.844 4.65751 L27.3456 4.6777 L25.8471 4.69789 L24.3487 4.71808 L22.8503 4.73827 L21.3519 4.75846 L22.073 3.43183 L22.7941 2.1052 L23.5153 0.778572 L24.2364 -0.548058 L24.9575 -1.87469 Z " />
<path stroke="rgb(200,255,200)" stroke-opacity="1" fill="rgb(200,255,200)" fill-opacity="1" id="tri_2_10_" d="M26.0897 -1.7027 L25.3009 -3.0174 L24.5121 -4.3321 L23.7234 -5.64681 L22.9346 -6.96151 L22.1458 -8.27621 L23.6484 -8.30175 L25.1511 -8.32729 L26.6537 -8.35283 L28.1564 -8.37838 L29.659 -8.40392 L28.9452 -7.06368 L28.2313 -5.72343 L27.5174 -4.38319 L26.8036 -3.04295 L26.0897 -1.7027 Z " />
<path stroke="rgb(200,255,200)" stroke-opacity="1" fill="rgb(200,255,200)" fill-opacity="1" id="tri_4_10_" d="M32.4803 11.102 L33.248 12.4025 L34.0156 13.7031 L34.7833 15.0037 L35.551 16.3043 L36.3186 17.6049 L34.8235 17.619 L33.3284 17.633 L31.8333 17.6471 L30.3382 17.6612 L28.8432 17.6753 L29.5706 16.3606 L30.298 15.046 L31.0255 13.7313 L31.7529 12.4166 L32.4803 11.102 Z " />
<path stroke="rgb(200,255,200)" stroke-opacity="1" fill="rgb(200,255,200)" fill-opacity="1" id="tri_3_10_" d="M33.5559 11.1991 L32.7781 9.8924 L32.0002 8.58566 L31.2224 7.27892 L30.4446 5.97218 L29.6668 4.66545 L31.1652 4.64526 L32.6636 4.62507 L34.1621 4.60488 L35.6605 4.58468 L37.1589 4.56449 L36.4383 5.89142 L35.7177 7.21835 L34.9971 8.54528 L34.2765 9.8722 L33.5559 11.1991 Z " />
<path stroke="rgb(200,255,200)" stroke-opacity="1" fill="rgb(200,255,200)" fill-opacity="1" id="tri_0_10_" d="M-12.5981 -40.8081 L-11.7746 -39.4717 L-10.9512 -38.1352 L-10.1278 -36.7988 L-9.30431 -35.4624 L-8.48087 -34.126 L-9.99615 -34.0815 L-11.5114 -34.0371 L-13.0267 -33.9927 L-14.542 -33.9483 L-16.0573 -33.9038 L-15.3654 -35.2847 L-14.6736 -36.6655 L-13.9818 -38.0464 L-13.2899 -39.4272 L-12.5981 -40.8081 Z " />
<path stroke="rgb(200,255,200)" stroke-opacity="1" fill="rgb(200,255,200)" fill-opacity="1" id="tri_1_9_" d="M-5.05981 -27.8095 L-4.25523 -26.4851 L-3.45064 -25.1608 L-2.64606 -23.8365 L-1.84147 -22.5122 L-1.03689 -21.1879 L-2.54504 -21.1535 L-4.0532 -21.1192 L-5.56135 -21.0848 L-7.06951 -21.0505 L-8.57766 -21.0161 L-7.87409 -22.3748 L-7.17052 -23.7334 L-6.46695 -25.0921 L-5.76338 -26.4508 L-5.05981 -27.8095 Z " />
<path stroke="rgb(200,255,200)" stroke-opacity="1" fill="rgb(200,255,200)" fill-opacity="1" id="tri_0_9_" d="M-3.76799 -27.4712 L-4.59137 -28.8074 L-5.41475 -30.1437 L-6.23813 -31.4799 L-7.06151 -32.8161 L-7.88489 -34.1523 L-6.36961 -34.1967 L-4.85433 -34.2411 L-3.33905 -34.2856 L-1.82378 -34.33 L-0.308497 -34.3744 L-1.0004 -32.9938 L-1.6923 -31.6131 L-2.38419 -30.2325 L-3.07609 -28.8519 L-3.76799 -27.4712 Z " />
<path stroke="rgb(200,255,200)" stroke-opacity="1" fill="rgb(200,255,200)" fill-opacity="1" id="tri_2_9_" d="M2.47724 -14.8256 L3.26643 -13.511 L4.05562 -12.1964 L4.84481 -10.8818 L5.63401 -9.56723 L6.4232 -8.25265 L4.92039 -8.2265 L3.41759 -8.20034 L1.91478 -8.17419 L0.411977 -8.14803 L-1.09083 -8.12188 L-0.377216 -9.46262 L0.336398 -10.8034 L1.05001 -12.1441 L1.76362 -13.4848 L2.47724 -14.8256 Z " />
<path stroke="rgb(200,255,200)" stroke-opacity="1" fill="rgb(200,255,200)" fill-opacity="1" id="tri_1_8_" d="M3.67531 -14.5814 L2.87086 -15.9056 L2.0664 -17.2299 L1.26195 -18.5541 L0.457503 -19.8783 L-0.346948 -21.2026 L1.16121 -21.2369 L2.66936 -21.2713 L4.17751 -21.3057 L5.68567 -21.34 L7.19382 -21.3744 L6.49012 -20.0158 L5.78642 -18.6572 L5.08271 -17.2986 L4.37901 -15.94 L3.67531 -14.5814 Z " />
<path stroke="rgb(200,255,200)" stroke-opacity="1" fill="rgb(200,255,200)" fill-opacity="1" id="tri_3_9_" d="M10.001 -1.85073 L10.7788 -0.544543 L11.5565 0.761647 L12.3343 2.06784 L13.1121 3.37403 L13.8899 4.68022 L12.3913 4.70033 L10.8927 4.72045 L9.39417 4.74056 L7.89562 4.76068 L6.39706 4.7808 L7.11784 3.45449 L7.83863 2.12818 L8.55942 0.801879 L9.28021 -0.524426 L10.001 -1.85073 Z " />
<path stroke="rgb(200,255,200)" stroke-opacity="1" fill="rgb(200,255,200)" fill-opacity="1" id="tri_2_8_" d="M11.1334 -1.68316 L10.3441 -2.99761 L9.55483 -4.31206 L8.76557 -5.62651 L7.97631 -6.94095 L7.18704 -8.2554 L8.68985 -8.28155 L10.1927 -8.30771 L11.6955 -8.33386 L13.1983 -8.36002 L14.7011 -8.38617 L13.9875 -7.04557 L13.274 -5.70497 L12.5604 -4.36437 L11.8469 -3.02376 L11.1334 -1.68316 Z " />
<path stroke="rgb(200,255,200)" stroke-opacity="1" fill="rgb(200,255,200)" fill-opacity="1" id="tri_4_9_" d="M17.5232 11.1219 L18.2905 12.4223 L19.0578 13.7226 L19.825 15.023 L20.5923 16.3234 L21.3596 17.6237 L19.8647 17.6383 L18.3699 17.6529 L16.875 17.6675 L15.3802 17.682 L13.8853 17.6966 L14.6129 16.3817 L15.3405 15.0667 L16.0681 13.7518 L16.7957 12.4369 L17.5232 11.1219 Z " />
<path stroke="rgb(200,255,200)" stroke-opacity="1" fill="rgb(200,255,200)" fill-opacity="1" id="tri_3_8_" d="M18.5974 11.2205 L17.8199 9.91397 L17.0425 8.60745 L16.2651 7.30094 L15.4877 5.99442 L14.7102 4.68791 L16.2088 4.6678 L17.7074 4.64768 L19.2059 4.62756 L20.7045 4.60745 L22.203 4.58733 L21.4819 5.91396 L20.7608 7.24059 L20.0396 8.56722 L19.3185 9.89385 L18.5974 11.2205 Z " />
<path stroke="rgb(200,255,200)" stroke-opacity="1" fill="rgb(200,255,200)" fill-opacity="1" id="tri_5_8_" d="M25.0361 24.0892 L25.7961 25.3844 L26.556 26.6795 L27.3159 27.9746 L28.0758 29.2698 L28.8358 30.5649 L27.344 30.5752 L25.8521 30.5855 L24.3603 30.5958 L22.8685 30.6061 L21.3767 30.6164 L22.1085 29.311 L22.8404 28.0055 L23.5723 26.7001 L24.3042 25.3947 L25.0361 24.0892 Z " />
<path stroke="rgb(200,255,200)" stroke-opacity="1" fill="rgb(200,255,200)" fill-opacity="1" id="tri_4_8_" d="M26.0673 24.1406 L25.2999 22.8405 L24.5325 21.5404 L23.7651 20.2403 L22.9977 18.9402 L22.2303 17.6401 L23.7251 17.6256 L25.22 17.611 L26.7148 17.5964 L28.2097 17.5818 L29.7045 17.5673 L28.9771 18.8819 L28.2496 20.1966 L27.5222 21.5113 L26.7948 22.8259 L26.0673 24.1406 Z " />
<path stroke="rgb(200,255,200)" stroke-opacity="1" fill="rgb(200,255,200)" fill-opacity="1" id="tri_0_8_" d="M-27.5574 -40.7899 L-26.7342 -39.4533 L-25.911 -38.1167 L-25.0879 -36.7801 L-24.2647 -35.4434 L-23.4415 -34.1068 L-24.9562 -34.0622 L-26.4709 -34.0176 L-27.9855 -33.973 L-29.5002 -33.9285 L-31.0149 -33.8839 L-30.3234 -35.2651 L-29.6319 -36.6463 L-28.9404 -38.0275 L-28.2489 -39.4087 L-27.5574 -40.7899 Z " />
<path stroke="rgb(200,255,200)" stroke-opacity="1" fill="rgb(200,255,200)" fill-opacity="1" id="tri_1_7_" d="M-20.0159 -27.7887 L-19.2119 -26.4644 L-18.4079 -25.14 L-17.6038 -23.8156 L-16.7998 -22.4913 L-15.9957 -21.1669 L-17.5035 -21.1329 L-19.0114 -21.0989 L-20.5192 -21.0648 L-22.027 -21.0308 L-23.5348 -20.9968 L-22.831 -22.3552 L-22.1272 -23.7136 L-21.4235 -25.0719 L-20.7197 -26.4303 L-20.0159 -27.7887 Z " />
<path stroke="rgb(200,255,200)" stroke-opacity="1" fill="rgb(200,255,200)" fill-opacity="1" id="tri_0_7_" d="M-18.7271 -27.4503 L-19.5499 -28.7866 L-20.3728 -30.1228 L-21.1956 -31.4591 L-22.0184 -32.7954 L-22.8413 -34.1316 L-21.3266 -34.1762 L-19.8119 -34.2208 L-18.2973 -34.2654 L-16.7826 -34.31 L-15.2679 -34.3546 L-15.9598 -32.9737 L-16.6516 -31.5929 L-17.3434 -30.212 L-18.0353 -28.8312 L-18.7271 -27.4503 Z " />
<path stroke="rgb(200,255,200)" stroke-opacity="1" fill="rgb(200,255,200)" fill-opacity="1" id="tri_2_7_" d="M-12.481 -14.8068 L-11.692 -13.4918 L-10.903 -12.1769 L-10.114 -10.8619 L-9.32506 -9.5469 L-8.53608 -8.23191 L-10.0389 -8.2061 L-11.5417 -8.18029 L-13.0445 -8.15448 L-14.5473 -8.12867 L-16.0501 -8.10286 L-15.3362 -9.44365 L-14.6224 -10.7844 L-13.9086 -12.1252 L-13.1948 -13.466 L-12.481 -14.8068 Z " />
<path stroke="rgb(200,255,200)" stroke-opacity="1" fill="rgb(200,255,200)" fill-opacity="1" id="tri_1_6_" d="M-11.2825 -14.5587 L-12.0868 -15.8834 L-12.891 -17.208 L-13.6952 -18.5327 L-14.4995 -19.8573 L-15.3037 -21.1819 L-13.7959 -21.216 L-12.2881 -21.25 L-10.7803 -21.284 L-9.27248 -21.3181 L-7.76467 -21.3521 L-8.46824 -19.9934 L-9.17181 -18.6347 L-9.87538 -17.2761 L-10.5789 -15.9174 L-11.2825 -14.5587 Z " />
<path stroke="rgb(200,255,200)" stroke-opacity="1" fill="rgb(200,255,200)" fill-opacity="1" id="tri_3_7_" d="M-4.95603 -1.82724 L-4.17835 -0.520578 L-3.40066 0.786085 L-2.62297 2.09275 L-1.84529 3.39941 L-1.0676 4.70608 L-2.56615 4.72585 L-4.06469 4.74563 L-5.56324 4.7654 L-7.06178 4.78518 L-8.56033 4.80495 L-7.83947 3.47851 L-7.11861 2.15207 L-6.39775 0.825636 L-5.67689 -0.500802 L-4.95603 -1.82724 Z " />
<path stroke="rgb(200,255,200)" stroke-opacity="1" fill="rgb(200,255,200)" fill-opacity="1" id="tri_2_6_" d="M-3.82461 -1.66081 L-4.61379 -2.97573 L-5.40298 -4.29066 L-6.19216 -5.60558 L-6.98134 -6.92051 L-7.77052 -8.23543 L-6.26772 -8.26125 L-4.76493 -8.28706 L-3.26214 -8.31287 L-1.75934 -8.33868 L-0.256548 -8.36449 L-0.97016 -7.02375 L-1.68377 -5.68302 L-2.39739 -4.34228 L-3.111 -3.00155 L-3.82461 -1.66081 Z " />
<path stroke="rgb(200,255,200)" stroke-opacity="1" fill="rgb(200,255,200)" fill-opacity="1" id="tri_4_7_" d="M2.5643 11.1414 L3.3319 12.4418 L4.0995 13.7422 L4.8671 15.0426 L5.63469 16.3429 L6.40229 17.6433 L4.90744 17.6579 L3.4126 17.6725 L1.91775 17.6871 L0.42291 17.7016 L-1.07194 17.7162 L-0.344687 16.4013 L0.382561 15.0863 L1.10981 13.7714 L1.83706 12.4564 L2.5643 11.1414 Z " />
<path stroke="rgb(200,255,200)" stroke-opacity="1" fill="rgb(200,255,200)" fill-opacity="1" id="tri_3_6_" d="M3.64214 11.2439 L2.86438 9.93735 L2.08662 8.63082 L1.30886 7.32428 L0.5311 6.01775 L-0.246659 4.71122 L1.25189 4.69145 L2.75043 4.67167 L4.24898 4.6519 L5.74753 4.63212 L7.24607 4.61235 L6.52529 5.93865 L5.8045 7.26496 L5.08371 8.59126 L4.36292 9.91757 L3.64214 11.2439 Z " />
<path stroke="rgb(200,255,200)" stroke-opacity="1" fill="rgb(200,255,200)" fill-opacity="1" id="tri_5_7_" d="M10.079 24.1093 L10.8388 25.4047 L11.5986 26.7001 L12.3584 27.9955 L13.1181 29.2909 L13.8779 30.5863 L12.3856 30.5962 L10.8934 30.6061 L9.40111 30.6159 L7.90883 30.6258 L6.41656 30.6357 L7.14905 29.3304 L7.88154 28.0251 L8.61403 26.7199 L9.34652 25.4146 L10.079 24.1093 Z " />
<path stroke="rgb(200,255,200)" stroke-opacity="1" fill="rgb(200,255,200)" fill-opacity="1" id="tri_4_6_" d="M11.1102 24.1609 L10.343 22.8606 L9.5757 21.5602 L8.80844 20.2599 L8.04118 18.9595 L7.27392 17.6591 L8.76877 17.6446 L10.2636 17.63 L11.7585 17.6154 L13.2533 17.6008 L14.7481 17.5863 L14.0206 18.9012 L13.293 20.2161 L12.5654 21.5311 L11.8378 22.846 L11.1102 24.1609 Z " />
<path stroke="rgb(200,255,200)" stroke-opacity="1" fill="rgb(200,255,200)" fill-opacity="1" id="tri_6_6_" d="M17.587 37.0634 L18.3421 38.3551 L19.0973 39.6467 L19.8524 40.9384 L20.6075 42.2301 L21.3627 43.5217 L19.8729 43.5297 L18.3831 43.5377 L16.8933 43.5457 L15.4036 43.5537 L13.9138 43.5616 L14.6484 42.262 L15.3831 40.9623 L16.1177 39.6627 L16.8523 38.3631 L17.587 37.0634 Z " />
<path stroke="rgb(200,255,200)" stroke-opacity="1" fill="rgb(200,255,200)" fill-opacity="1" id="tri_5_6_" d="M18.5852 37.083 L17.8248 35.7874 L17.0644 34.4918 L16.304 33.1963 L15.5437 31.9007 L14.7833 30.6052 L16.2756 30.5953 L17.7678 30.5854 L19.2601 30.5755 L20.7524 30.5656 L22.2446 30.5558 L21.5127 31.8612 L20.7809 33.1666 L20.049 34.4721 L19.3171 35.7775 L18.5852 37.083 Z " />
<path stroke="rgb(200,255,200)" stroke-opacity="1" fill="rgb(200,255,200)" fill-opacity="1" id="tri_0_6_" d="M-42.5167 -40.7678 L-41.6933 -39.4316 L-40.87 -38.0954 L-40.0466 -36.7591 L-39.2232 -35.4229 L-38.3998 -34.0867 L-39.9149 -34.0417 L-41.43 -33.9966 L-42.9451 -33.9515 L-44.4601 -33.9065 L-45.9752 -33.8614 L-45.2835 -35.2427 L-44.5918 -36.6239 L-43.9001 -38.0052 L-43.2084 -39.3865 L-42.5167 -40.7678 Z " />
<path stroke="rgb(200,255,200)" stroke-opacity="1" fill="rgb(200,255,200)" fill-opacity="1" id="tri_1_5_" d="M-34.9751 -27.7657 L-34.1703 -26.4415 L-33.3655 -25.1172 L-32.5608 -23.793 L-31.756 -22.4688 L-30.9512 -21.1445 L-32.4595 -21.1106 L-33.9677 -21.0766 L-35.476 -21.0427 L-36.9843 -21.0087 L-38.4926 -20.9748 L-37.7891 -22.333 L-37.0856 -23.6912 L-36.3821 -25.0494 L-35.6786 -26.4076 L-34.9751 -27.7657 Z " />
<path stroke="rgb(200,255,200)" stroke-opacity="1" fill="rgb(200,255,200)" fill-opacity="1" id="tri_0_5_" d="M-33.6838 -27.4301 L-34.5074 -28.7663 L-35.331 -30.1024 L-36.1546 -31.4386 L-36.9782 -32.7747 L-37.8017 -34.1109 L-36.2867 -34.1559 L-34.7716 -34.201 L-33.2565 -34.2461 L-31.7414 -34.2912 L-30.2263 -34.3362 L-30.9178 -32.955 L-31.6093 -31.5738 L-32.3008 -30.1926 L-32.9923 -28.8114 L-33.6838 -27.4301 Z " />
<path stroke="rgb(200,255,200)" stroke-opacity="1" fill="rgb(200,255,200)" fill-opacity="1" id="tri_2_5_" d="M-27.4398 -14.788 L-26.6506 -13.4732 L-25.8613 -12.1585 L-25.0721 -10.8437 L-24.2828 -9.52888 L-23.4936 -8.21408 L-24.9961 -8.18778 L-26.4987 -8.16148 L-28.0012 -8.13517 L-29.5037 -8.10887 L-31.0063 -8.08257 L-30.293 -9.42366 L-29.5797 -10.7648 L-28.8664 -12.1059 L-28.1531 -13.4469 L-27.4398 -14.788 Z " />
<path stroke="rgb(200,255,200)" stroke-opacity="1" fill="rgb(200,255,200)" fill-opacity="1" id="tri_1_4_" d="M-26.2401 -14.5395 L-27.0446 -15.8639 L-27.8492 -17.1884 L-28.6537 -18.5128 L-29.4582 -19.8373 L-30.2627 -21.1617 L-28.7544 -21.1957 L-27.2461 -21.2296 L-25.7379 -21.2636 L-24.2296 -21.2975 L-22.7213 -21.3314 L-23.4251 -19.973 L-24.1288 -18.6147 L-24.8326 -17.2563 L-25.5364 -15.8979 L-26.2401 -14.5395 Z " />
<path stroke="rgb(200,255,200)" stroke-opacity="1" fill="rgb(200,255,200)" fill-opacity="1" id="tri_3_5_" d="M-19.91 -1.80288 L-19.1327 -0.49665 L-18.3555 0.809581 L-17.5783 2.11581 L-16.801 3.42204 L-16.0238 4.72828 L-17.5226 4.74845 L-19.0213 4.76862 L-20.5201 4.7888 L-22.0188 4.80897 L-23.5176 4.82914 L-22.7961 3.50274 L-22.0746 2.17633 L-21.353 0.849928 L-20.6315 -0.476477 L-19.91 -1.80288 Z " />
<path stroke="rgb(200,255,200)" stroke-opacity="1" fill="rgb(200,255,200)" fill-opacity="1" id="tri_2_4_" d="M-18.7836 -1.64292 L-19.5723 -2.95742 L-20.361 -4.27191 L-21.1497 -5.5864 L-21.9384 -6.90089 L-22.7272 -8.21538 L-21.2246 -8.24169 L-19.7221 -8.26799 L-18.2195 -8.29429 L-16.717 -8.3206 L-15.2145 -8.3469 L-15.9283 -7.0061 L-16.6421 -5.66531 L-17.3559 -4.32451 L-18.0697 -2.98372 L-18.7836 -1.64292 Z " />
<path stroke="rgb(200,255,200)" stroke-opacity="1" fill="rgb(200,255,200)" fill-opacity="1" id="tri_4_5_" d="M-12.3952 11.1647 L-11.6274 12.4648 L-10.8597 13.7649 L-10.092 15.0651 L-9.32421 16.3652 L-8.55647 17.6653 L-10.0514 17.6796 L-11.5463 17.694 L-13.0412 17.7084 L-14.5361 17.7228 L-16.031 17.7371 L-15.3038 16.4226 L-14.5767 15.1082 L-13.8495 13.7937 L-13.1223 12.4792 L-12.3952 11.1647 Z " />
<path stroke="rgb(200,255,200)" stroke-opacity="1" fill="rgb(200,255,200)" fill-opacity="1" id="tri_3_4_" d="M-11.3154 11.2684 L-12.0933 9.96216 L-12.8712 8.65589 L-13.6491 7.34963 L-14.427 6.04336 L-15.2049 4.7371 L-13.7061 4.71693 L-12.2074 4.69675 L-10.7086 4.67658 L-9.20985 4.65641 L-7.71108 4.63623 L-8.43194 5.96267 L-9.1528 7.28911 L-9.87366 8.61555 L-10.5945 9.94199 L-11.3154 11.2684 Z " />
<path stroke="rgb(200,255,200)" stroke-opacity="1" fill="rgb(200,255,200)" fill-opacity="1" id="tri_5_5_" d="M-4.88034 24.128 L-4.12017 25.4236 L-3.35999 26.7192 L-2.59982 28.0148 L-1.83964 29.3104 L-1.07947 30.606 L-2.57189 30.6162 L-4.06431 30.6263 L-5.55672 30.6365 L-7.04914 30.6466 L-8.54156 30.6568 L-7.80932 29.351 L-7.07707 28.0452 L-6.34483 26.7395 L-5.61259 25.4337 L-4.88034 24.128 Z " />
<path stroke="rgb(200,255,200)" stroke-opacity="1" fill="rgb(200,255,200)" fill-opacity="1" id="tri_4_4_" d="M-3.84762 24.1814 L-4.61528 22.8808 L-5.38293 21.5802 L-6.15059 20.2797 L-6.91824 18.9791 L-7.6859 17.6785 L-6.19099 17.6641 L-4.69609 17.6498 L-3.20119 17.6354 L-1.70629 17.621 L-0.211384 17.6066 L-0.938632 18.9216 L-1.66588 20.2365 L-2.39313 21.5515 L-3.12037 22.8665 L-3.84762 24.1814 Z " />
<path stroke="rgb(200,255,200)" stroke-opacity="1" fill="rgb(200,255,200)" fill-opacity="1" id="tri_6_5_" d="M2.63011 37.0875 L3.38481 38.3787 L4.13951 39.6699 L4.8942 40.9612 L5.6489 42.2524 L6.40359 43.5437 L4.914 43.5519 L3.42441 43.5602 L1.93481 43.5684 L0.44522 43.5767 L-1.04437 43.5849 L-0.309476 42.2854 L0.425422 40.986 L1.16032 39.6865 L1.89522 38.387 L2.63011 37.0875 Z " />
<path stroke="rgb(200,255,200)" stroke-opacity="1" fill="rgb(200,255,200)" fill-opacity="1" id="tri_5_4_" d="M3.62499 37.1025 L2.86506 35.8074 L2.10513 34.5123 L1.3452 33.2172 L0.585266 31.922 L-0.174665 30.6269 L1.31775 30.6167 L2.81017 30.6066 L4.30259 30.5965 L5.79501 30.5863 L7.28743 30.5762 L6.55494 31.8815 L5.82245 33.1867 L5.08996 34.492 L4.35748 35.7973 L3.62499 37.1025 Z " />
<path stroke="rgb(200,255,200)" stroke-opacity="1" fill="rgb(200,255,200)" fill-opacity="1" id="tri_7_4_" d="M10.1332 50.0433 L10.884 51.332 L11.6347 52.6208 L12.3855 53.9095 L13.1363 55.1982 L13.8871 56.487 L12.3991 56.492 L10.911 56.497 L9.42302 56.502 L7.935 56.507 L6.44698 56.512 L7.18422 55.2183 L7.92146 53.9245 L8.6587 52.6308 L9.39594 51.337 L10.1332 50.0433 Z " />
<path stroke="rgb(200,255,200)" stroke-opacity="1" fill="rgb(200,255,200)" fill-opacity="1" id="tri_6_4_" d="M11.1142 50.0284 L10.3592 48.737 L9.60429 47.4456 L8.84933 46.1542 L8.09437 44.8628 L7.33942 43.5714 L8.82901 43.5632 L10.3186 43.5549 L11.8082 43.5467 L13.2978 43.5384 L14.7874 43.5301 L14.0527 44.8298 L13.3181 46.1294 L12.5835 47.4291 L11.8488 48.7287 L11.1142 50.0284 Z " />
<path stroke="rgb(200,255,200)" stroke-opacity="1" fill="rgb(200,255,200)" fill-opacity="1" id="tri_0_4_" d="M-57.476 -40.7487 L-56.6527 -39.4122 L-55.8295 -38.0757 L-55.0062 -36.7392 L-54.183 -35.4028 L-53.3598 -34.0663 L-54.8744 -34.0215 L-56.389 -33.9767 L-57.9036 -33.9319 L-59.4182 -33.8871 L-60.9328 -33.8423 L-60.2414 -35.2235 L-59.55 -36.6048 L-58.8587 -37.9861 L-58.1673 -39.3674 L-57.476 -40.7487 Z " />
<path stroke="rgb(200,255,200)" stroke-opacity="1" fill="rgb(200,255,200)" fill-opacity="1" id="tri_1_3_" d="M-49.9312 -27.7453 L-49.1271 -26.4207 L-48.323 -25.0961 L-47.5189 -23.7716 L-46.7148 -22.447 L-45.9107 -21.1224 L-47.4184 -21.0886 L-48.9261 -21.0547 L-50.4339 -21.0208 L-51.9416 -20.9869 L-53.4494 -20.953 L-52.7457 -22.3114 L-52.0421 -23.6699 L-51.3385 -25.0284 L-50.6348 -26.3868 L-49.9312 -27.7453 Z " />
<path stroke="rgb(200,255,200)" stroke-opacity="1" fill="rgb(200,255,200)" fill-opacity="1" id="tri_0_3_" d="M-48.6438 -27.4083 L-49.4667 -28.7447 L-50.2896 -30.0812 L-51.1125 -31.4177 L-51.9354 -32.7542 L-52.7583 -34.0906 L-51.2437 -34.1354 L-49.7291 -34.1802 L-48.2145 -34.2251 L-46.6999 -34.2699 L-45.1853 -34.3147 L-45.877 -32.9334 L-46.5687 -31.5521 L-47.2604 -30.1708 L-47.9521 -28.7895 L-48.6438 -27.4083 Z " />
<path stroke="rgb(200,255,200)" stroke-opacity="1" fill="rgb(200,255,200)" fill-opacity="1" id="tri_2_3_" d="M-42.3976 -14.7665 L-41.6086 -13.4519 L-40.8197 -12.1372 L-40.0307 -10.8226 L-39.2417 -9.50793 L-38.4527 -8.19329 L-39.9555 -8.16714 L-41.4583 -8.14098 L-42.9611 -8.11483 L-44.4639 -8.08867 L-45.9667 -8.06252 L-45.2529 -9.40332 L-44.5391 -10.7441 L-43.8253 -12.0849 L-43.1114 -13.4257 L-42.3976 -14.7665 Z " />
<path stroke="rgb(200,255,200)" stroke-opacity="1" fill="rgb(200,255,200)" fill-opacity="1" id="tri_1_2_" d="M-41.1979 -14.5171 L-42.0021 -15.8414 L-42.8064 -17.1657 L-43.6106 -18.49 L-44.4149 -19.8143 L-45.2191 -21.1386 L-43.7114 -21.1725 L-42.2036 -21.2064 L-40.6959 -21.2403 L-39.1882 -21.2742 L-37.6804 -21.3081 L-38.3839 -19.9499 L-39.0874 -18.5917 L-39.7909 -17.2335 L-40.4944 -15.8753 L-41.1979 -14.5171 Z " />
<path stroke="rgb(200,255,200)" stroke-opacity="1" fill="rgb(200,255,200)" fill-opacity="1" id="tri_3_3_" d="M-34.8695 -1.78024 L-34.0915 -0.47356 L-33.3135 0.833119 L-32.5354 2.1398 L-31.7574 3.44648 L-30.9794 4.75316 L-32.4785 4.77277 L-33.9777 4.79238 L-35.4768 4.81199 L-36.976 4.8316 L-38.4751 4.85121 L-37.754 3.52492 L-37.0329 2.19863 L-36.3118 0.872339 L-35.5906 -0.45395 L-34.8695 -1.78024 Z " />
<path stroke="rgb(200,255,200)" stroke-opacity="1" fill="rgb(200,255,200)" fill-opacity="1" id="tri_2_2_" d="M-33.7395 -1.62147 L-34.5291 -2.93641 L-35.3186 -4.25135 L-36.1081 -5.56629 L-36.8976 -6.88123 L-37.6871 -8.19617 L-36.1843 -8.22233 L-34.6815 -8.24848 L-33.1787 -8.27463 L-31.6759 -8.30079 L-30.1731 -8.32694 L-30.8864 -6.98585 L-31.5997 -5.64475 L-32.313 -4.30366 L-33.0263 -2.96257 L-33.7395 -1.62147 Z " />
<path stroke="rgb(200,255,200)" stroke-opacity="1" fill="rgb(200,255,200)" fill-opacity="1" id="tri_4_3_" d="M-27.3527 11.1838 L-26.5852 12.4844 L-25.8178 13.7851 L-25.0503 15.0857 L-24.2829 16.3863 L-23.5154 17.687 L-25.0099 17.7014 L-26.5043 17.7159 L-27.9987 17.7304 L-29.4932 17.7448 L-30.9876 17.7593 L-30.2606 16.4442 L-29.5336 15.1291 L-28.8067 13.814 L-28.0797 12.4989 L-27.3527 11.1838 Z " />
<path stroke="rgb(200,255,200)" stroke-opacity="1" fill="rgb(200,255,200)" fill-opacity="1" id="tri_3_2_" d="M-26.273 11.2928 L-27.0506 9.98598 L-27.8283 8.67919 L-28.6059 7.37239 L-29.3835 6.06559 L-30.1611 4.7588 L-28.662 4.73919 L-27.1628 4.71958 L-25.6637 4.69997 L-24.1645 4.68036 L-22.6654 4.66075 L-23.3869 5.98716 L-24.1084 7.31356 L-24.83 8.63997 L-25.5515 9.96637 L-26.273 11.2928 Z " />
<path stroke="rgb(200,255,200)" stroke-opacity="1" fill="rgb(200,255,200)" fill-opacity="1" id="tri_5_3_" d="M-19.8377 24.1486 L-19.0779 25.4437 L-18.3181 26.7387 L-17.5583 28.0338 L-16.7985 29.3289 L-16.0387 30.6239 L-17.5306 30.6342 L-19.0226 30.6444 L-20.5145 30.6546 L-22.0065 30.6649 L-23.4984 30.6751 L-22.7663 29.3698 L-22.0341 28.0645 L-21.302 26.7592 L-20.5698 25.4539 L-19.8377 24.1486 Z " />
<path stroke="rgb(200,255,200)" stroke-opacity="1" fill="rgb(200,255,200)" fill-opacity="1" id="tri_4_2_" d="M-18.806 24.2014 L-19.5732 22.9014 L-20.3405 21.6014 L-21.1078 20.3014 L-21.8751 19.0013 L-22.6424 17.7013 L-21.1479 17.6869 L-19.6535 17.6724 L-18.159 17.6579 L-16.6646 17.6435 L-15.1702 17.629 L-15.8973 18.9435 L-16.6245 20.258 L-17.3516 21.5725 L-18.0788 22.8869 L-18.806 24.2014 Z " />
<path stroke="rgb(200,255,200)" stroke-opacity="1" fill="rgb(200,255,200)" fill-opacity="1" id="tri_6_3_" d="M-12.3266 37.1067 L-11.5721 38.3983 L-10.8176 39.6899 L-10.0632 40.9816 L-9.30869 42.2732 L-8.55421 43.5648 L-10.0437 43.5726 L-11.5332 43.5804 L-13.0227 43.5882 L-14.5122 43.596 L-16.0017 43.6038 L-15.2667 42.3043 L-14.5317 41.0049 L-13.7966 39.7055 L-13.0616 38.4061 L-12.3266 37.1067 Z " />
<path stroke="rgb(200,255,200)" stroke-opacity="1" fill="rgb(200,255,200)" fill-opacity="1" id="tri_5_2_" d="M-11.3332 37.1233 L-12.0929 35.8278 L-12.8526 34.5322 L-13.6124 33.2367 L-14.3721 31.9412 L-15.1318 30.6456 L-13.6398 30.6354 L-12.1479 30.6252 L-10.6559 30.6149 L-9.16396 30.6047 L-7.67201 30.5945 L-8.40425 31.9002 L-9.13649 33.206 L-9.86874 34.5118 L-10.601 35.8175 L-11.3332 37.1233 Z " />
<path stroke="rgb(200,255,200)" stroke-opacity="1" fill="rgb(200,255,200)" fill-opacity="1" id="tri_7_3_" d="M-4.82446 50.0619 L-4.07403 51.3509 L-3.32361 52.64 L-2.57318 53.929 L-1.82275 55.2181 L-1.07233 56.5071 L-2.56001 56.5122 L-4.0477 56.5172 L-5.53538 56.5222 L-7.02307 56.5273 L-8.51075 56.5323 L-7.77349 55.2382 L-7.03623 53.9441 L-6.29898 52.65 L-5.56172 51.356 L-4.82446 50.0619 Z " />
<path stroke="rgb(200,255,200)" stroke-opacity="1" fill="rgb(200,255,200)" fill-opacity="1" id="tri_6_2_" d="M-3.84414 50.0503 L-4.59874 48.7586 L-5.35334 47.4669 L-6.10795 46.1752 L-6.86255 44.8835 L-7.61715 43.5918 L-6.12765 43.584 L-4.63815 43.5763 L-3.14865 43.5685 L-1.65915 43.5607 L-0.169647 43.5529 L-0.904545 44.8524 L-1.63944 46.1519 L-2.37434 47.4514 L-3.10924 48.7509 L-3.84414 50.0503 Z " />
<path stroke="rgb(200,255,200)" stroke-opacity="1" fill="rgb(200,255,200)" fill-opacity="1" id="tri_8_2_" d="M2.68941 63.0044 L3.43787 64.291 L4.18634 65.5775 L4.9348 66.8641 L5.68327 68.1506 L6.43173 69.4372 L4.94469 69.4422 L3.45766 69.4471 L1.97062 69.4521 L0.483584 69.4571 L-1.00345 69.462 L-0.264882 68.1705 L0.473691 66.879 L1.21226 65.5875 L1.95084 64.296 L2.68941 63.0044 Z " />
<path stroke="rgb(200,255,200)" stroke-opacity="1" fill="rgb(200,255,200)" fill-opacity="1" id="tri_7_2_" d="M3.63598 62.9784 L2.88553 61.6897 L2.13509 60.4009 L1.38464 59.1122 L0.634195 57.8235 L-0.116251 56.5348 L1.37143 56.5297 L2.85912 56.5247 L4.3468 56.5197 L5.83449 56.5147 L7.32217 56.5096 L6.58493 57.8034 L5.8477 59.0971 L5.11046 60.3909 L4.37322 61.6846 L3.63598 62.9784 Z " />
<path stroke="rgb(200,255,200)" stroke-opacity="1" fill="rgb(200,255,200)" fill-opacity="1" id="tri_0_2_" d="M-72.4333 -40.727 L-71.6102 -39.3909 L-70.7871 -38.0549 L-69.964 -36.7188 L-69.1408 -35.3828 L-68.3177 -34.0467 L-69.8325 -34.0016 L-71.3472 -33.9565 L-72.862 -33.9115 L-74.3767 -33.8664 L-75.8914 -33.8213 L-75.1998 -35.2024 L-74.5082 -36.5836 L-73.8165 -37.9647 L-73.1249 -39.3459 L-72.4333 -40.727 Z " />
<path stroke="rgb(200,255,200)" stroke-opacity="1" fill="rgb(200,255,200)" fill-opacity="1" id="tri_1_1_" d="M-64.8886 -27.7232 L-64.0841 -26.3989 L-63.2795 -25.0746 L-62.4749 -23.7503 L-61.6703 -22.426 L-60.8657 -21.1017 L-62.3738 -21.0671 L-63.8819 -21.0325 L-65.39 -20.998 L-66.8981 -20.9634 L-68.4062 -20.9288 L-67.7027 -22.2877 L-66.9992 -23.6466 L-66.2957 -25.0055 L-65.5922 -26.3644 L-64.8886 -27.7232 Z " />
<path stroke="rgb(200,255,200)" stroke-opacity="1" fill="rgb(200,255,200)" fill-opacity="1" id="tri_0_1_" d="M-63.6013 -27.3893 L-64.4247 -28.7255 L-65.2481 -30.0617 L-66.0714 -31.3979 L-66.8948 -32.7342 L-67.7182 -34.0704 L-66.2034 -34.1154 L-64.6887 -34.1605 L-63.174 -34.2056 L-61.6592 -34.2507 L-60.1445 -34.2958 L-60.8359 -32.9145 L-61.5272 -31.5332 L-62.2186 -30.1519 L-62.9099 -28.7706 L-63.6013 -27.3893 Z " />
<path stroke="rgb(200,255,200)" stroke-opacity="1" fill="rgb(200,255,200)" fill-opacity="1" id="tri_2_1_" d="M-57.354 -14.7429 L-56.5648 -13.4287 L-55.7756 -12.1144 L-54.9863 -10.8002 L-54.1971 -9.48594 L-53.4079 -8.1717 L-54.9113 -8.1455 L-56.4146 -8.1193 L-57.918 -8.0931 L-59.4213 -8.0669 L-60.9247 -8.04071 L-60.2105 -9.38114 L-59.4964 -10.7216 L-58.7822 -12.062 L-58.0681 -13.4025 L-57.354 -14.7429 Z " />
<path stroke="rgb(200,255,200)" stroke-opacity="1" fill="rgb(200,255,200)" fill-opacity="1" id="tri_1" d="M-56.1536 -14.4961 L-56.958 -15.82 L-57.7625 -17.1439 L-58.567 -18.4677 L-59.3714 -19.7916 L-60.1759 -21.1155 L-58.6678 -21.1501 L-57.1597 -21.1847 L-55.6516 -21.2192 L-54.1435 -21.2538 L-52.6354 -21.2884 L-53.3391 -19.9299 L-54.0427 -18.5715 L-54.7463 -17.213 L-55.4499 -15.8545 L-56.1536 -14.4961 Z " />
<path stroke="rgb(200,255,200)" stroke-opacity="1" fill="rgb(200,255,200)" fill-opacity="1" id="tri_3_1_" d="M-49.8278 -1.75384 L-49.0498 -0.447501 L-48.2717 0.858838 L-47.4937 2.16518 L-46.7157 3.47152 L-45.9376 4.77786 L-47.4363 4.7979 L-48.935 4.81794 L-50.4337 4.83798 L-51.9324 4.85802 L-53.4311 4.87806 L-52.7104 3.55168 L-51.9898 2.2253 L-51.2691 0.898919 L-50.5485 -0.42746 L-49.8278 -1.75384 Z " />
<path stroke="rgb(200,255,200)" stroke-opacity="1" fill="rgb(200,255,200)" fill-opacity="1" id="tri_2" d="M-48.6996 -1.6004 L-49.4892 -2.915 L-50.2787 -4.22959 L-51.0682 -5.54419 L-51.8578 -6.85879 L-52.6473 -8.17339 L-51.1439 -8.19959 L-49.6406 -8.22578 L-48.1372 -8.25198 L-46.6339 -8.27818 L-45.1305 -8.30438 L-45.8444 -6.96359 L-46.5582 -5.62279 L-47.272 -4.28199 L-47.9858 -2.9412 L-48.6996 -1.6004 Z " />
<path stroke="rgb(200,255,200)" stroke-opacity="1" fill="rgb(200,255,200)" fill-opacity="1" id="tri_4_1_" d="M-42.3109 11.2053 L-41.5435 12.5054 L-40.7761 13.8055 L-40.0087 15.1056 L-39.2413 16.4057 L-38.4739 17.7058 L-39.9684 17.7204 L-41.4629 17.735 L-42.9574 17.7496 L-44.4519 17.7642 L-45.9464 17.7788 L-45.2193 16.4641 L-44.4922 15.1494 L-43.7651 13.8347 L-43.038 12.52 L-42.3109 11.2053 Z " />
<path stroke="rgb(200,255,200)" stroke-opacity="1" fill="rgb(200,255,200)" fill-opacity="1" id="tri_3" d="M-41.2307 11.3155 L-42.0082 10.0093 L-42.7858 8.70302 L-43.5634 7.39677 L-44.3409 6.09053 L-45.1185 4.78428 L-43.6198 4.76424 L-42.1211 4.7442 L-40.6224 4.72416 L-39.1237 4.70412 L-37.625 4.68408 L-38.3462 6.01036 L-39.0673 7.33665 L-39.7884 8.66294 L-40.5095 9.98923 L-41.2307 11.3155 Z " />
<path stroke="rgb(200,255,200)" stroke-opacity="1" fill="rgb(200,255,200)" fill-opacity="1" id="tri_5_1_" d="M-34.7954 24.1676 L-34.0354 25.4632 L-33.2753 26.7587 L-32.5153 28.0543 L-31.7552 29.3498 L-30.9952 30.6453 L-32.4874 30.6554 L-33.9796 30.6655 L-35.4718 30.6756 L-36.9641 30.6857 L-38.4563 30.6958 L-37.7241 29.3901 L-36.9919 28.0845 L-36.2598 26.7789 L-35.5276 25.4733 L-34.7954 24.1676 Z " />
<path stroke="rgb(200,255,200)" stroke-opacity="1" fill="rgb(200,255,200)" fill-opacity="1" id="tri_4" d="M-33.7633 24.2229 L-34.5308 22.9224 L-35.2984 21.6219 L-36.0659 20.3214 L-36.8334 19.0209 L-37.6009 17.7204 L-36.1064 17.7058 L-34.6119 17.6912 L-33.1174 17.6766 L-31.6229 17.662 L-30.1284 17.6474 L-30.8554 18.9625 L-31.5823 20.2776 L-32.3093 21.5927 L-33.0363 22.9078 L-33.7633 24.2229 Z " />
<path stroke="rgb(200,255,200)" stroke-opacity="1" fill="rgb(200,255,200)" fill-opacity="1" id="tri_6_1_" d="M-27.2837 37.1288 L-26.5289 38.4201 L-25.774 39.7114 L-25.0192 41.0027 L-24.2644 42.2941 L-23.5095 43.5854 L-24.9995 43.5936 L-26.4894 43.6018 L-27.9793 43.6101 L-29.4693 43.6183 L-30.9592 43.6266 L-30.2241 42.327 L-29.489 41.0275 L-28.7539 39.7279 L-28.0188 38.4284 L-27.2837 37.1288 Z " />
<path stroke="rgb(200,255,200)" stroke-opacity="1" fill="rgb(200,255,200)" fill-opacity="1" id="tri_5" d="M-26.2892 37.1413 L-27.0493 35.8461 L-27.8094 34.5509 L-28.5694 33.2557 L-29.3295 31.9604 L-30.0896 30.6652 L-28.5973 30.6552 L-27.1051 30.6451 L-25.6129 30.635 L-24.1207 30.6249 L-22.6285 30.6148 L-23.3606 31.9201 L-24.0928 33.2254 L-24.8249 34.5307 L-25.5571 35.836 L-26.2892 37.1413 Z " />
<path stroke="rgb(200,255,200)" stroke-opacity="1" fill="rgb(200,255,200)" fill-opacity="1" id="tri_7_1_" d="M-19.783 50.0843 L-19.0323 51.3729 L-18.2816 52.6614 L-17.5308 53.95 L-16.7801 55.2385 L-16.0294 56.527 L-17.5176 56.5323 L-19.0057 56.5376 L-20.4939 56.5428 L-21.9821 56.5481 L-23.4702 56.5534 L-22.7328 55.2596 L-21.9953 53.9658 L-21.2579 52.672 L-20.5205 51.3782 L-19.783 50.0843 Z " />
<path stroke="rgb(200,255,200)" stroke-opacity="1" fill="rgb(200,255,200)" fill-opacity="1" id="tri_6" d="M-18.8014 50.0698 L-19.5563 48.7786 L-20.3112 47.4874 L-21.0661 46.1963 L-21.821 44.9051 L-22.5759 43.6139 L-21.0859 43.6057 L-19.596 43.5974 L-18.1061 43.5892 L-16.6162 43.5809 L-15.1262 43.5727 L-15.8613 44.8721 L-16.5963 46.1715 L-17.3313 47.471 L-18.0663 48.7704 L-18.8014 50.0698 Z " />
<path stroke="rgb(200,255,200)" stroke-opacity="1" fill="rgb(200,255,200)" fill-opacity="1" id="tri_8_1_" d="M-12.2683 63.0289 L-11.5194 64.3155 L-10.7705 65.6022 L-10.0216 66.8888 L-9.27263 68.1754 L-8.52371 69.4621 L-10.0109 69.4671 L-11.4982 69.4721 L-12.9854 69.4772 L-14.4727 69.4822 L-15.9599 69.4872 L-15.2216 68.1956 L-14.4833 66.9039 L-13.745 65.6122 L-13.0067 64.3206 L-12.2683 63.0289 Z " />
<path stroke="rgb(200,255,200)" stroke-opacity="1" fill="rgb(200,255,200)" fill-opacity="1" id="tri_7" d="M-11.3218 62.999 L-12.0727 61.7102 L-12.8236 60.4214 L-13.5745 59.1326 L-14.3254 57.8437 L-15.0763 56.5549 L-13.5882 56.5497 L-12.1 56.5444 L-10.6118 56.5391 L-9.12365 56.5339 L-7.63549 56.5286 L-8.37274 57.8227 L-9.11 59.1168 L-9.84726 60.4108 L-10.5845 61.7049 L-11.3218 62.999 Z " />
<path stroke="rgb(200,255,200)" stroke-opacity="1" fill="rgb(200,255,200)" fill-opacity="1" id="tri_9" d="M-4.78137 75.9806 L-4.03486 77.266 L-3.28835 78.5515 L-2.54184 79.837 L-1.79533 81.1224 L-1.04882 82.4079 L-2.53456 82.4115 L-4.0203 82.4152 L-5.50604 82.4188 L-6.99178 82.4224 L-8.47752 82.426 L-7.73829 81.1369 L-6.99906 79.8478 L-6.25983 78.5588 L-5.5206 77.2697 L-4.78137 75.9806 Z " />
<path stroke="rgb(200,255,200)" stroke-opacity="1" fill="rgb(200,255,200)" fill-opacity="1" id="tri_8" d="M-3.81534 75.9292 L-4.56401 74.6427 L-5.31267 73.3562 L-6.06134 72.0697 L-6.81001 70.7832 L-7.55868 69.4968 L-6.07144 69.4917 L-4.5842 69.4867 L-3.09696 69.4817 L-1.60972 69.4766 L-0.122475 69.4716 L-0.861047 70.7631 L-1.59962 72.0547 L-2.33819 73.3462 L-3.07677 74.6377 L-3.81534 75.9292 Z " />
</g>
</g>
</svg>
