<!DOCTYPE svg>
<svg xmlns="http://www.w3.org/2000/svg" xmlns:xlink="http://www.w3.org/1999/xlink" width="600" height="600">
<g transform="translate(300.000000,300.000000)">
<g transform="scale(3.000000,3.000000)">
<path stroke="rgb(0,0,0)" stroke-opacity="1" fill="rgb(255,255,255)" fill-opacity="1" id="Layer_1" d="M107.411 107.089 L105.406 107.092 L103.402 107.095 L101.397 107.098 L99.3922 107.101 L97.3875 107.104 L95.3828 107.107 L93.3782 107.11 L91.3735 107.113 L89.3688 107.116 L87.3641 107.119 L85.3595 107.122 L83.3548 107.125 L81.3501 107.128 L79.3455 107.131 L77.3408 107.134 L75.3361 107.137 L73.3314 107.14 L71.3268 107.143 L69.3221 107.146 L67.3174 107.149 L65.3127 107.152 L63.3081 107.155 L61.3034 107.158 L59.2987 107.161 L57.2941 107.164 L55.2894 107.167 L53.2847 107.17 L51.28 107.173 L49.2754 107.176 L47.2707 107.179 L45.266 107.182 L43.2613 107.185 L41.2567 107.188 L39.252 107.191 L37.2473 107.194 L35.2426 107.197 L33.238 107.2 L31.2333 107.203 L29.2286 107.206 L27.224 107.209 L25.2193 107.212 L23.2146 107.215 L21.2099 107.218 L19.2053 107.221 L17.2006 107.224 L15.1959 107.227 L13.1912 107.23 L11.1866 107.233 L9.1819 107.236 L7.17723 107.239 L5.17256 107.242 L3.16788 107.245 L1.16321 107.248 L-0.841463 107.252 L-2.84614 107.255 L-4.85081 107.258 L-6.85548 107.261 L-8.86015 107.264 L-10.8648 107.267 L-12.8695 107.27 L-14.8742 107.273 L-16.8788 107.276 L-18.8835 107.279 L-20.8882 107.282 L-22.8929 107.285 L-24.8975 107.288 L-26.9022 107.291 L-28.9069 107.294 L-30.9116 107.297 L-32.9162 107.3 L-34.9209 107.303 L-36.9256 107.306 L-38.9302 107.309 L-40.9349 107.312 L-42.9396 107.315 L-44.9443 107.318 L-46.9489 107.321 L-48.9536 107.324 L-50.9583 107.327 L-52.963 107.33 L-54.9676 107.333 L-56.9723 107.336 L-58.977 107.339 L-60.9816 107.342 L-62.9863 107.345 L-64.991 107.348 L-66.9957 107.351 L-69.0003 107.354 L-71.005 107.357 L-73.0097 107.36 L-75.0144 107.363 L-77.019 107.366 L-79.0237 107.369 L-81.0284 107.372 L-83.0331 107.375 L-85.0377 107.378 L-87.0424 107.381 L-89.0471 107.384 L-91.0517 107.387 L-93.0564 107.39 L-95.0611 107.393 L-97.0658 107.396 L-99.0704 107.399 L-101.075 107.402 L-103.08 107.405 L-105.084 107.408 L-107.089 107.411 L-107.092 105.406 L-107.095 103.402 L-107.098 101.397 L-107.101 99.3922 L-107.104 97.3875 L-107.107 95.3828 L-107.11 93.3782 L-107.113 91.3735 L-107.116 89.3688 L-107.119 87.3641 L-107.122 85.3595 L-107.125 83.3548 L-107.128 81.3501 L-107.131 79.3455 L-107.134 77.3408 L-107.137 75.3361 L-107.14 73.3314 L-107.143 71.3268 L-107.146 69.3221 L-107.149 67.3174 L-107.152 65.3127 L-107.155 63.3081 L-107.158 61.3034 L-107.161 59.2987 L-107.164 57.2941 L-107.167 55.2894 L-107.17 53.2847 L-107.173 51.28 L-107.176 49.2754 L-107.179 47.2707 L-107.182 45.266 L-107.185 43.2613 L-107.188 41.2567 L-107.191 39.252 L-107.194 37.2473 L-107.197 35.2426 L-107.2 33.238 L-107.203 31.2333 L-107.206 29.2286 L-107.209 27.224 L-107.212 25.2193 L-107.215 23.2146 L-107.218 21.2099 L-107.221 19.2053 L-107.224 17.2006 L-107.227 15.1959 L-107.23 13.1912 L-107.233 11.1866 L-107.236 9.1819 L-107.239 7.17722 L-107.242 5.17255 L-107.245 3.16788 L-107.248 1.1632 L-107.251 -0.841469 L-107.255 -2.84614 L-107.258 -4.85081 L-107.261 -6.85549 L-107.264 -8.86016 L-107.267 -10.8648 L-107.27 -12.8695 L-107.273 -14.8742 L-107.276 -16.8789 L-107.279 -18.8835 L-107.282 -20.8882 L-107.285 -22.8929 L-107.288 -24.8975 L-107.291 -26.9022 L-107.294 -28.9069 L-107.297 -30.9116 L-107.3 -32.9162 L-107.303 -34.9209 L-107.306 -36.9256 L-107.309 -38.9303 L-107.312 -40.9349 L-107.315 -42.9396 L-107.318 -44.9443 L-107.321 -46.9489 L-107.324 -48.9536 L-107.327 -50.9583 L-107.33 -52.963 L-107.333 -54.9676 L-107.336 -56.9723 L-107.339 -58.977 L-107.342 -60.9817 L-107.345 -62.9863 L-107.348 -64.991 L-107.351 -66.9957 L-107.354 -69.0003 L-107.357 -71.005 L-107.36 -73.0097 L-107.363 -75.0144 L-107.366 -77.019 L-107.369 -79.0237 L-107.372 -81.0284 L-107.375 -83.0331 L-107.378 -85.0377 L-107.381 -87.0424 L-107.384 -89.0471 L-107.387 -91.0518 L-107.39 -93.0564 L-107.393 -95.0611 L-107.396 -97.0658 L-107.399 -99.0704 L-107.402 -101.075 L-107.405 -103.08 L-107.408 -105.084 L-107.411 -107.089 L-105.406 -107.092 L-103.402 -107.095 L-101.397 -107.098 L-99.3922 -107.101 L-97.3875 -107.104 L-95.3828 -107.107 L-93.3782 -107.11 L-91.3735 -107.113 L-89.3688 -107.116 L-87.3641 -107.119 L-85.3595 -107.122 L-83.3548 -107.125 L-81.3501 -107.128 L-79.3455 -107.131 L-77.3408 -107.134 L-75.3361 -107.137 L-73.3314 -107.14 L-71.3268 -107.143 L-69.3221 -107.146 L-67.3174 -107.149 L-65.3127 -107.152 L-63.3081 -107.155 L-61.3034 -107.158 L-59.2987 -107.161 L-57.2941 -107.164 L-55.2894 -107.167 L-53.2847 -107.17 L-51.28 -107.173 L-49.2754 -107.176 L-47.2707 -107.179 L-45.266 -107.182 L-43.2613 -107.185 L-41.2567 -107.188 L-39.252 -107.191 L-37.2473 -107.194 L-35.2426 -107.197 L-33.238 -107.2 L-31.2333 -107.203 L-29.2286 -107.206 L-27.224 -107.209 L-25.2193 -107.212 L-23.2146 -107.215 L-21.2099 -107.218 L-19.2053 -107.221 L-17.2006 -107.224 L-15.1959 -107.227 L-13.1912 -107.23 L-11.1866 -107.233 L-9.1819 -107.236 L-7.17723 -107.239 L-5.17256 -107.242 L-3.16788 -107.245 L-1.16321 -107.248 L0.841463 -107.252 L2.84614 -107.255 L4.85081 -107.258 L6.85548 -107.261 L8.86015 -107.264 L10.8648 -107.267 L12.8695 -107.27 L14.8742 -107.273 L16.8788 -107.276 L18.8835 -107.279 L20.8882 -107.282 L22.8929 -107.285 L24.8975 -107.288 L26.9022 -107.291 L28.9069 -107.294 L30.9116 -107.297 L32.9162 -107.3 L34.9209 -107.303 L36.9256 -107.306 L38.9302 -107.309 L40.9349 -107.312 L42.9396 -107.315 L44.9443 -107.318 L46.9489 -107.321 L48.9536 -107.324 L50.9583 -107.327 L52.963 -107.33 L54.9676 -107.333 L56.9723 -107.336 L58.977 -107.339 L60.9816 -107.342 L62.9863 -107.345 L64.991 -107.348 L66.9957 -107.351 L69.0003 -107.354 L71.005 -107.357 L73.0097 -107.36 L75.0144 -107.363 L77.019 -107.366 L79.0237 -107.369 L81.0284 -107.372 L83.0331 -107.375 L85.0377 -107.378 L87.0424 -107.381 L89.0471 -107.384 L91.0517 -107.387 L93.0564 -107.39 L95.0611 -107.393 L97.0658 -107.396 L99.0704 -107.399 L101.075 -107.402 L103.08 -107.405 L105.084 -107.408 L107.089 -107.411 L107.092 -105.406 L107.095 -103.402 L107.098 -101.397 L107.101 -99.3922 L107.104 -97.3875 L107.107 -95.3828 L107.11 -93.3782 L107.113 -91.3735 L107.116 -89.3688 L107.119 -87.3642 L107.122 -85.3595 L107.125 -83.3548 L107.128 -81.3501 L107.131 -79.3455 L107.134 -77.3408 L107.137 -75.3361 L107.14 -73.3314 L107.143 -71.3268 L107.146 -69.3221 L107.149 -67.3174 L107.152 -65.3128 L107.155 -63.3081 L107.158 -61.3034 L107.161 -59.2987 L107.164 -57.2941 L107.167 -55.2894 L107.17 -53.2847 L107.173 -51.28 L107.176 -49.2754 L107.179 -47.2707 L107.182 -45.266 L107.185 -43.2613 L107.188 -41.2567 L107.191 -39.252 L107.194 -37.2473 L107.197 -35.2427 L107.2 -33.238 L107.203 -31.2333 L107.206 -29.2286 L107.209 -27.224 L107.212 -25.2193 L107.215 -23.2146 L107.218 -21.2099 L107.221 -19.2053 L107.224 -17.2006 L107.227 -15.1959 L107.23 -13.1913 L107.233 -11.1866 L107.236 -9.18191 L107.239 -7.17724 L107.242 -5.17256 L107.245 -3.16789 L107.248 -1.16322 L107.251 0.841455 L107.255 2.84613 L107.258 4.8508 L107.261 6.85547 L107.264 8.86015 L107.267 10.8648 L107.27 12.8695 L107.273 14.8742 L107.276 16.8788 L107.279 18.8835 L107.282 20.8882 L107.285 22.8929 L107.288 24.8975 L107.291 26.9022 L107.294 28.9069 L107.297 30.9115 L107.3 32.9162 L107.303 34.9209 L107.306 36.9256 L107.309 38.9302 L107.312 40.9349 L107.315 42.9396 L107.318 44.9443 L107.321 46.9489 L107.324 48.9536 L107.327 50.9583 L107.33 52.963 L107.333 54.9676 L107.336 56.9723 L107.339 58.977 L107.342 60.9816 L107.345 62.9863 L107.348 64.991 L107.351 66.9957 L107.354 69.0003 L107.357 71.005 L107.36 73.0097 L107.363 75.0144 L107.366 77.019 L107.369 79.0237 L107.372 81.0284 L107.375 83.033 L107.378 85.0377 L107.381 87.0424 L107.384 89.0471 L107.387 91.0517 L107.39 93.0564 L107.393 95.0611 L107.396 97.0658 L107.399 99.0704 L107.402 101.075 L107.405 103.08 L107.408 105.084 L107.411 107.089 Z " />
<path stroke="rgb(169,255,187)" stroke-opacity="1" fill="rgb(169,255,187)" fill-opacity="1" id="scalebar" d="M-3.69904 -94.609 L-1.65554 -94.609 L0.387962 -94.609 L2.43146 -94.609 L4.47496 -94.609 L4.47496 -92.6686 L4.47496 -90.7281 L4.47496 -88.7876 L4.47496 -86.8472 L4.47496 -84.9067 L4.47496 -82.9663 L4.47496 -81.0258 L4.47496 -79.0853 L4.47496 -77.1449 L4.47496 -75.2044 L4.47496 -73.2639 L4.47496 -71.3235 L4.47496 -69.383 L2.43146 -69.383 L0.387962 -69.383 L-1.65554 -69.383 L-3.69904 -69.383 L-3.69904 -71.3235 L-3.69904 -73.2639 L-3.69904 -75.2044 L-3.69904 -77.1449 L-3.69904 -79.0853 L-3.69904 -81.0258 L-3.69904 -82.9663 L-3.69904 -84.9067 L-3.69904 -86.8472 L-3.69904 -88.7876 L-3.69904 -90.7281 L-3.69904 -92.6686 L-3.69904 -94.609 Z " />
<path stroke="rgb(200,255,200)" stroke-opacity="1" fill="rgb(200,255,200)" fill-opacity="1" id="scaleslider" d="M-6.69904 -85.5504 L-4.67418 -85.5504 L-2.64932 -85.5504 L-0.624466 -85.5504 L1.40039 -85.5504 L3.42525 -85.5504 L5.4501 -85.5504 L7.47496 -85.5504 L7.47496 -83.8238 L7.47496 -82.0971 L7.47496 -80.3704 L5.4501 -80.3704 L3.42525 -80.3704 L1.40039 -80.3704 L-0.624466 -80.3704 L-2.64932 -80.3704 L-4.67418 -80.3704 L-6.69904 -80.3704 L-6.69904 -82.0971 L-6.69904 -83.8238 L-6.69904 -85.5504 Z " />
<path stroke="rgb(255,134,106)" stroke-opacity="1" fill="rgb(255,134,106)" fill-opacity="1" id="tranbar" d="M-49.142 -86.146 L-47.0675 -86.146 L-44.993 -86.146 L-42.9185 -86.146 L-40.844 -86.146 L-40.844 -88.2208 L-40.844 -90.2955 L-40.844 -92.3703 L-40.844 -94.445 L-38.7685 -94.445 L-36.693 -94.445 L-34.6175 -94.445 L-32.542 -94.445 L-32.542 -92.3703 L-32.542 -90.2955 L-32.542 -88.2208 L-32.542 -86.146 L-30.4673 -86.146 L-28.3925 -86.146 L-26.3178 -86.146 L-24.243 -86.146 L-24.243 -84.0715 L-24.243 -81.997 L-24.243 -79.9225 L-24.243 -77.848 L-26.3178 -77.848 L-28.3925 -77.848 L-30.4673 -77.848 L-32.542 -77.848 L-32.542 -75.773 L-32.542 -73.698 L-32.542 -71.623 L-32.542 -69.548 L-34.6175 -69.548 L-36.693 -69.548 L-38.7685 -69.548 L-40.844 -69.548 L-40.844 -71.623 L-40.844 -73.698 L-40.844 -75.773 L-40.844 -77.848 L-42.9185 -77.848 L-44.993 -77.848 L-47.0675 -77.848 L-49.142 -77.848 L-49.142 -79.9225 L-49.142 -81.997 L-49.142 -84.0715 L-49.142 -86.146 Z " />
<path stroke="rgb(255,250,159)" stroke-opacity="1" fill="rgb(255,250,159)" fill-opacity="1" id="translider" d="M-39.248 -84.553 L-37.5447 -84.553 L-35.8414 -84.553 L-34.138 -84.553 L-34.138 -82.85 L-34.138 -81.147 L-34.138 -79.444 L-35.8414 -79.444 L-37.5447 -79.444 L-39.248 -79.444 L-39.248 -81.147 L-39.248 -82.85 L-39.248 -84.553 Z " />
<path stroke="rgb(254,204,128)" stroke-opacity="1" fill="rgb(254,204,128)" fill-opacity="1" id="rotate" d="M45.1249 -86.8395 L45.2332 -84.913 L45.3415 -82.9865 L45.4497 -81.06 L45.558 -79.1336 L45.6663 -77.2071 L44.0518 -76.1502 L42.4372 -75.0934 L40.8227 -74.0365 L39.2082 -72.9796 L37.5937 -71.9228 L35.8709 -72.7925 L34.1482 -73.6623 L32.4255 -74.5321 L30.7027 -75.4019 L28.98 -76.2717 L28.8718 -78.1983 L28.7636 -80.125 L28.6554 -82.0516 L28.5472 -83.9783 L28.4391 -85.9049 L30.0535 -86.9616 L31.6679 -88.0183 L33.2824 -89.075 L34.8968 -90.1317 L36.5113 -91.1884 L38.234 -90.3186 L39.9567 -89.4488 L41.6794 -88.579 L43.4022 -87.7092 L45.1249 -86.8395 Z " />
<path stroke="rgb(200,255,200)" stroke-opacity="1" fill="rgb(200,255,200)" fill-opacity="1" id="tri_0" d="M52.1208 -46.9469 L53.0038 -45.8573 L53.8868 -44.7677 L54.7698 -43.6781 L55.6528 -42.5886 L56.5358 -41.499 L55.151 -41.2788 L53.7663 -41.0586 L52.3815 -40.8384 L50.9968 -40.6182 L49.612 -40.3981 L50.1138 -41.7078 L50.6155 -43.0176 L51.1173 -44.3273 L51.6191 -45.6371 L52.1208 -46.9469 Z " />
<path stroke="rgb(200,255,200)" stroke-opacity="1" fill="rgb(200,255,200)" fill-opacity="1" id="tri_0_18_" d="M38.2081 -44.7498 L39.0913 -43.6609 L39.9746 -42.5719 L40.8578 -41.483 L41.7411 -40.3941 L42.6243 -39.3052 L41.2393 -39.0848 L39.8543 -38.8644 L38.4694 -38.644 L37.0844 -38.4236 L35.6994 -38.2032 L36.2011 -39.5125 L36.7029 -40.8218 L37.2046 -42.1311 L37.7064 -43.4405 L38.2081 -44.7498 Z " />
<path stroke="rgb(200,255,200)" stroke-opacity="1" fill="rgb(200,255,200)" fill-opacity="1" id="tri_1_16_" d="M44.7976 -35.2135 L45.711 -34.1811 L46.6244 -33.1487 L47.5379 -32.1164 L48.4513 -31.084 L49.3647 -30.0516 L48.0139 -29.7768 L46.6631 -29.5019 L45.3123 -29.227 L43.9615 -28.9521 L42.6107 -28.6773 L43.0481 -29.9845 L43.4854 -31.2917 L43.9228 -32.599 L44.3602 -33.9062 L44.7976 -35.2135 Z " />
<path stroke="rgb(200,255,200)" stroke-opacity="1" fill="rgb(200,255,200)" fill-opacity="1" id="tri_0_17_" d="M47.9388 -33.971 L47.0556 -35.0603 L46.1724 -36.1497 L45.2892 -37.2391 L44.4059 -38.3284 L43.5227 -39.4178 L44.9077 -39.6382 L46.2927 -39.8586 L47.6777 -40.079 L49.0627 -40.2994 L50.4476 -40.5198 L49.9459 -39.21 L49.4441 -37.9003 L48.9424 -36.5905 L48.4406 -35.2807 L47.9388 -33.971 Z " />
<path stroke="rgb(200,255,200)" stroke-opacity="1" fill="rgb(200,255,200)" fill-opacity="1" id="tri_0_16_" d="M24.2943 -42.5534 L25.1777 -41.4638 L26.0611 -40.3742 L26.9446 -39.2846 L27.828 -38.195 L28.7114 -37.1054 L27.326 -36.8854 L25.9405 -36.6653 L24.5551 -36.4452 L23.1696 -36.2252 L21.7841 -36.0051 L22.2862 -37.3148 L22.7882 -38.6244 L23.2902 -39.9341 L23.7922 -41.2438 L24.2943 -42.5534 Z " />
<path stroke="rgb(200,255,200)" stroke-opacity="1" fill="rgb(200,255,200)" fill-opacity="1" id="tri_1_15_" d="M31.2203 -32.4592 L32.1342 -31.427 L33.0482 -30.3947 L33.9621 -29.3625 L34.876 -28.3303 L35.7899 -27.298 L34.4386 -27.0232 L33.0874 -26.7483 L31.7362 -26.4734 L30.3849 -26.1985 L29.0337 -25.9237 L29.471 -27.2308 L29.9083 -28.5379 L30.3457 -29.845 L30.783 -31.1521 L31.2203 -32.4592 Z " />
<path stroke="rgb(200,255,200)" stroke-opacity="1" fill="rgb(200,255,200)" fill-opacity="1" id="tri_0_15_" d="M34.0268 -31.7741 L33.1431 -32.8634 L32.2594 -33.9526 L31.3757 -35.0419 L30.4919 -36.1312 L29.6082 -37.2204 L30.9937 -37.4405 L32.3791 -37.6605 L33.7646 -37.8806 L35.1501 -38.1007 L36.5355 -38.3207 L36.0338 -37.0114 L35.5321 -35.7021 L35.0303 -34.3928 L34.5286 -33.0835 L34.0268 -31.7741 Z " />
<path stroke="rgb(200,255,200)" stroke-opacity="1" fill="rgb(200,255,200)" fill-opacity="1" id="tri_2_14_" d="M38.4517 -23.6329 L39.3977 -22.6677 L40.3437 -21.7025 L41.2897 -20.7373 L42.2357 -19.772 L43.1818 -18.8068 L41.8725 -18.4708 L40.5633 -18.1348 L39.254 -17.7988 L37.9448 -17.4628 L36.6355 -17.1268 L36.9988 -18.428 L37.362 -19.7292 L37.7252 -21.0305 L38.0884 -22.3317 L38.4517 -23.6329 Z " />
<path stroke="rgb(200,255,200)" stroke-opacity="1" fill="rgb(200,255,200)" fill-opacity="1" id="tri_1_14_" d="M41.2394 -22.2887 L40.3255 -23.3211 L39.4116 -24.3534 L38.4978 -25.3858 L37.5839 -26.4182 L36.67 -27.4505 L38.0213 -27.7254 L39.3725 -28.0003 L40.7238 -28.2752 L42.075 -28.55 L43.4263 -28.8249 L42.9889 -27.5177 L42.5515 -26.2104 L42.1141 -24.9032 L41.6767 -23.5959 L41.2394 -22.2887 Z " />
<path stroke="rgb(200,255,200)" stroke-opacity="1" fill="rgb(200,255,200)" fill-opacity="1" id="tri_0_14_" d="M10.3764 -40.357 L11.2601 -39.2674 L12.1437 -38.1779 L13.0273 -37.0884 L13.9109 -35.9989 L14.7945 -34.9094 L13.4093 -34.6895 L12.0241 -34.4697 L10.6389 -34.2498 L9.25362 -34.03 L7.8684 -33.8101 L8.37 -35.1195 L8.87161 -36.4289 L9.37322 -37.7382 L9.87483 -39.0476 L10.3764 -40.357 Z " />
<path stroke="rgb(200,255,200)" stroke-opacity="1" fill="rgb(200,255,200)" fill-opacity="1" id="tri_1_13_" d="M17.6444 -29.7092 L18.5578 -28.6764 L19.4712 -27.6435 L20.3847 -26.6107 L21.2981 -25.5779 L22.2115 -24.5451 L20.8607 -24.2703 L19.5099 -23.9954 L18.1591 -23.7205 L16.8083 -23.4456 L15.4575 -23.1708 L15.8948 -24.4784 L16.3322 -25.7861 L16.7696 -27.0938 L17.207 -28.4015 L17.6444 -29.7092 Z " />
<path stroke="rgb(200,255,200)" stroke-opacity="1" fill="rgb(200,255,200)" fill-opacity="1" id="tri_0_13_" d="M20.1094 -29.576 L19.2261 -30.6658 L18.3429 -31.7557 L17.4597 -32.8455 L16.5765 -33.9353 L15.6933 -35.0251 L17.0786 -35.2449 L18.4638 -35.4648 L19.849 -35.6846 L21.2342 -35.9045 L22.6195 -36.1243 L22.1175 -34.8147 L21.6154 -33.505 L21.1134 -32.1954 L20.6114 -30.8857 L20.1094 -29.576 Z " />
<path stroke="rgb(200,255,200)" stroke-opacity="1" fill="rgb(200,255,200)" fill-opacity="1" id="tri_2_13_" d="M25.2956 -20.2601 L26.2412 -19.295 L27.1868 -18.3299 L28.1324 -17.3647 L29.0781 -16.3996 L30.0237 -15.4345 L28.7147 -15.0984 L27.4057 -14.7623 L26.0967 -14.4263 L24.7878 -14.0902 L23.4788 -13.7541 L23.8421 -15.0553 L24.2055 -16.3565 L24.5689 -17.6577 L24.9322 -18.9589 L25.2956 -20.2601 Z " />
<path stroke="rgb(200,255,200)" stroke-opacity="1" fill="rgb(200,255,200)" fill-opacity="1" id="tri_1_12_" d="M27.6626 -19.535 L26.7491 -20.5672 L25.8357 -21.5995 L24.9222 -22.6317 L24.0087 -23.6639 L23.0952 -24.6962 L24.4461 -24.9711 L25.7969 -25.2459 L27.1477 -25.5208 L28.4985 -25.7957 L29.8493 -26.0706 L29.412 -24.7634 L28.9746 -23.4563 L28.5373 -22.1492 L28.1 -20.8421 L27.6626 -19.535 Z " />
<path stroke="rgb(200,255,200)" stroke-opacity="1" fill="rgb(200,255,200)" fill-opacity="1" id="tri_3_12_" d="M33.3411 -12.2979 L34.3196 -11.4108 L35.2981 -10.5237 L36.2767 -9.63657 L37.2552 -8.74945 L38.2337 -7.86233 L36.9763 -7.45834 L35.719 -7.05435 L34.4616 -6.65035 L33.2042 -6.24636 L31.9469 -5.84237 L32.2257 -7.13348 L32.5046 -8.42459 L32.7834 -9.7157 L33.0623 -11.0068 L33.3411 -12.2979 Z " />
<path stroke="rgb(200,255,200)" stroke-opacity="1" fill="rgb(200,255,200)" fill-opacity="1" id="tri_2_12_" d="M35.6093 -10.8015 L34.6635 -11.7666 L33.7178 -12.7318 L32.772 -13.6969 L31.8263 -14.6621 L30.8805 -15.6272 L32.1895 -15.9633 L33.4985 -16.2994 L34.8074 -16.6355 L36.1164 -16.9716 L37.4254 -17.3077 L37.0622 -16.0064 L36.699 -14.7052 L36.3357 -13.4039 L35.9725 -12.1027 L35.6093 -10.8015 Z " />
<path stroke="rgb(200,255,200)" stroke-opacity="1" fill="rgb(200,255,200)" fill-opacity="1" id="tri_0_12_" d="M-3.53426 -38.1595 L-2.65138 -37.0704 L-1.7685 -35.9814 L-0.88562 -34.8923 L-0.00273903 -33.8032 L0.880143 -32.7141 L-0.504925 -32.4939 L-1.88999 -32.2737 L-3.27506 -32.0535 L-4.66013 -31.8333 L-6.04519 -31.613 L-5.54301 -32.9223 L-5.04082 -34.2316 L-4.53864 -35.5409 L-4.03645 -36.8502 L-3.53426 -38.1595 Z " />
<path stroke="rgb(200,255,200)" stroke-opacity="1" fill="rgb(200,255,200)" fill-opacity="1" id="tri_1_11_" d="M4.06659 -26.956 L4.98024 -25.9239 L5.89389 -24.8917 L6.80754 -23.8596 L7.72119 -22.8274 L8.63484 -21.7953 L7.28385 -21.5203 L5.93287 -21.2454 L4.58188 -20.9704 L3.23089 -20.6955 L1.8799 -20.4205 L2.31724 -21.7276 L2.75458 -23.0347 L3.19191 -24.3418 L3.62925 -25.6489 L4.06659 -26.956 Z " />
<path stroke="rgb(200,255,200)" stroke-opacity="1" fill="rgb(200,255,200)" fill-opacity="1" id="tri_0_11_" d="M6.19466 -27.3812 L5.3112 -28.4704 L4.42774 -29.5595 L3.54428 -30.6487 L2.66083 -31.7378 L1.77737 -32.827 L3.16244 -33.0472 L4.5475 -33.2674 L5.93257 -33.4876 L7.31764 -33.7078 L8.70271 -33.928 L8.2011 -32.6187 L7.69949 -31.3093 L7.19788 -29.9999 L6.69627 -28.6906 L6.19466 -27.3812 Z " />
<path stroke="rgb(200,255,200)" stroke-opacity="1" fill="rgb(200,255,200)" fill-opacity="1" id="tri_2_11_" d="M12.137 -16.891 L13.0828 -15.9255 L14.0285 -14.9599 L14.9743 -13.9943 L15.9201 -13.0287 L16.8659 -12.0631 L15.5571 -11.7273 L14.2483 -11.3914 L12.9395 -11.0556 L11.6307 -10.7197 L10.322 -10.3838 L10.685 -11.6853 L11.048 -12.9867 L11.411 -14.2882 L11.774 -15.5896 L12.137 -16.891 Z " />
<path stroke="rgb(200,255,200)" stroke-opacity="1" fill="rgb(200,255,200)" fill-opacity="1" id="tri_1_10_" d="M14.0854 -16.7829 L13.1718 -17.8156 L12.2582 -18.8483 L11.3446 -19.8811 L10.431 -20.9138 L9.5174 -21.9465 L10.8684 -22.2215 L12.2194 -22.4964 L13.5704 -22.7714 L14.9214 -23.0463 L16.2723 -23.3213 L15.835 -22.0136 L15.3976 -20.7059 L14.9602 -19.3983 L14.5228 -18.0906 L14.0854 -16.7829 Z " />
<path stroke="rgb(200,255,200)" stroke-opacity="1" fill="rgb(200,255,200)" fill-opacity="1" id="tri_3_11_" d="M20.6968 -8.25195 L21.675 -7.36463 L22.6532 -6.4773 L23.6314 -5.58998 L24.6096 -4.70266 L25.5878 -3.81534 L24.3302 -3.41167 L23.0726 -3.00799 L21.8151 -2.60431 L20.5575 -2.20064 L19.2999 -1.79696 L19.5793 -3.08796 L19.8587 -4.37895 L20.138 -5.66995 L20.4174 -6.96095 L20.6968 -8.25195 Z " />
<path stroke="rgb(200,255,200)" stroke-opacity="1" fill="rgb(200,255,200)" fill-opacity="1" id="tri_2_10_" d="M22.4522 -7.43036 L21.5068 -8.3957 L20.5613 -9.36104 L19.6159 -10.3264 L18.6705 -11.2917 L17.7251 -12.2571 L19.0339 -12.5929 L20.3426 -12.9288 L21.6514 -13.2646 L22.9602 -13.6005 L24.269 -13.9364 L23.9056 -12.6352 L23.5423 -11.334 L23.1789 -10.0328 L22.8156 -8.73156 L22.4522 -7.43036 Z " />
<path stroke="rgb(200,255,200)" stroke-opacity="1" fill="rgb(200,255,200)" fill-opacity="1" id="tri_4_10_" d="M29.7147 -1.34675 L30.7238 -0.548507 L31.7329 0.249737 L32.742 1.04798 L33.7511 1.84622 L34.7602 2.64447 L33.5643 3.11886 L32.3684 3.59325 L31.1725 4.06764 L29.9766 4.54203 L28.7807 5.01643 L28.9675 3.74379 L29.1543 2.47116 L29.3411 1.19852 L29.5279 -0.0741145 L29.7147 -1.34675 Z " />
<path stroke="rgb(200,255,200)" stroke-opacity="1" fill="rgb(200,255,200)" fill-opacity="1" id="tri_3_10_" d="M31.31 0.38649 L30.3312 -0.500943 L29.3525 -1.38838 L28.3738 -2.27581 L27.3951 -3.16324 L26.4164 -4.05068 L27.674 -4.45435 L28.9315 -4.85803 L30.1891 -5.26171 L31.4467 -5.66538 L32.7042 -6.06906 L32.4254 -4.77795 L32.1465 -3.48684 L31.8677 -2.19573 L31.5888 -0.90462 L31.31 0.38649 Z " />
<path stroke="rgb(200,255,200)" stroke-opacity="1" fill="rgb(200,255,200)" fill-opacity="1" id="tri_0_10_" d="M-17.4494 -35.9637 L-16.5658 -34.8741 L-15.6822 -33.7846 L-14.7985 -32.6951 L-13.9149 -31.6056 L-13.0313 -30.5161 L-14.417 -30.2961 L-15.8027 -30.0762 L-17.1885 -29.8562 L-18.5742 -29.6362 L-19.9599 -29.4163 L-19.4578 -30.7257 L-18.9557 -32.0352 L-18.4536 -33.3447 L-17.9515 -34.6542 L-17.4494 -35.9637 Z " />
<path stroke="rgb(200,255,200)" stroke-opacity="1" fill="rgb(200,255,200)" fill-opacity="1" id="tri_1_9_" d="M-9.50924 -24.2029 L-8.5955 -23.1706 L-7.68176 -22.1383 L-6.76802 -21.1059 L-5.85429 -20.0736 L-4.94055 -19.0413 L-6.29149 -18.7665 L-7.64244 -18.4916 L-8.99338 -18.2168 L-10.3443 -17.942 L-11.6953 -17.6671 L-11.2581 -18.9743 L-10.8209 -20.2815 L-10.3836 -21.5886 L-9.94644 -22.8958 L-9.50924 -24.2029 Z " />
<path stroke="rgb(200,255,200)" stroke-opacity="1" fill="rgb(200,255,200)" fill-opacity="1" id="tri_0_9_" d="M-7.71848 -25.184 L-8.60202 -26.2734 L-9.48555 -27.3627 L-10.3691 -28.452 L-11.2526 -29.5414 L-12.1362 -30.6307 L-10.7504 -30.8507 L-9.36472 -31.0706 L-7.979 -31.2906 L-6.59327 -31.5105 L-5.20755 -31.7305 L-5.70973 -30.4212 L-6.21192 -29.1119 L-6.71411 -27.8026 L-7.21629 -26.4933 L-7.71848 -25.184 Z " />
<path stroke="rgb(200,255,200)" stroke-opacity="1" fill="rgb(200,255,200)" fill-opacity="1" id="tri_2_9_" d="M-1.0205 -13.5185 L-0.0747429 -12.5534 L0.871014 -11.5882 L1.81677 -10.6231 L2.76253 -9.6579 L3.70828 -8.69274 L2.39949 -8.35633 L1.09069 -8.01991 L-0.218106 -7.68349 L-1.5269 -7.34708 L-2.8357 -7.01066 L-2.47266 -8.31223 L-2.10962 -9.6138 L-1.74658 -10.9154 L-1.38354 -12.2169 L-1.0205 -13.5185 Z " />
<path stroke="rgb(200,255,200)" stroke-opacity="1" fill="rgb(200,255,200)" fill-opacity="1" id="tri_1_8_" d="M0.508989 -14.0322 L-0.404618 -15.0645 L-1.31822 -16.0967 L-2.23183 -17.129 L-3.14544 -18.1613 L-4.05904 -19.1936 L-2.7081 -19.4684 L-1.35716 -19.7432 L-0.00621371 -20.0181 L1.34473 -20.2929 L2.69567 -20.5677 L2.25834 -19.2606 L1.821 -17.9535 L1.38366 -16.6464 L0.946325 -15.3393 L0.508989 -14.0322 Z " />
<path stroke="rgb(200,255,200)" stroke-opacity="1" fill="rgb(200,255,200)" fill-opacity="1" id="tri_3_9_" d="M8.05148 -4.2051 L9.03002 -3.31811 L10.0086 -2.43112 L10.9871 -1.54413 L11.9656 -0.657145 L12.9442 0.229844 L11.6865 0.633492 L10.4288 1.03714 L9.17109 1.44079 L7.91339 1.84444 L6.6557 2.24809 L6.93485 0.957448 L7.21401 -0.333189 L7.49317 -1.62383 L7.77233 -2.91446 L8.05148 -4.2051 Z " />
<path stroke="rgb(200,255,200)" stroke-opacity="1" fill="rgb(200,255,200)" fill-opacity="1" id="tri_2_8_" d="M9.29577 -4.05985 L8.34998 -5.02488 L7.40419 -5.9899 L6.45839 -6.95492 L5.5126 -7.91995 L4.56681 -8.88497 L5.8756 -9.22138 L7.1844 -9.5578 L8.4932 -9.89422 L9.802 -10.2306 L11.1108 -10.5671 L10.7478 -9.26561 L10.3848 -7.96417 L10.0218 -6.66273 L9.65878 -5.36129 L9.29577 -4.05985 Z " />
<path stroke="rgb(200,255,200)" stroke-opacity="1" fill="rgb(200,255,200)" fill-opacity="1" id="tri_4_9_" d="M17.689 3.41661 L18.6977 4.2148 L19.7065 5.01298 L20.7152 5.81117 L21.7239 6.60936 L22.7326 7.40754 L21.5371 7.88225 L20.3415 8.35695 L19.1459 8.83166 L17.9504 9.30636 L16.7548 9.78107 L16.9416 8.50817 L17.1285 7.23528 L17.3153 5.96239 L17.5022 4.6895 L17.689 3.41661 Z " />
<path stroke="rgb(200,255,200)" stroke-opacity="1" fill="rgb(200,255,200)" fill-opacity="1" id="tri_3_8_" d="M18.6623 4.43168 L17.684 3.54433 L16.7057 2.65698 L15.7274 1.76963 L14.749 0.88228 L13.7707 -0.00506854 L15.0284 -0.408716 L16.2861 -0.812365 L17.5438 -1.21601 L18.8015 -1.61966 L20.0592 -2.02331 L19.7798 -0.732313 L19.5005 0.558684 L19.2211 1.84968 L18.9417 3.14068 L18.6623 4.43168 Z " />
<path stroke="rgb(200,255,200)" stroke-opacity="1" fill="rgb(200,255,200)" fill-opacity="1" id="tri_5_8_" d="M27.7863 9.01577 L28.8218 9.71298 L29.8573 10.4102 L30.8927 11.1074 L31.9282 11.8046 L32.9637 12.5018 L31.842 13.0498 L30.7203 13.5977 L29.5987 14.1457 L28.477 14.6936 L27.3554 15.2416 L27.4415 13.9964 L27.5277 12.7513 L27.6139 11.5061 L27.7001 10.2609 L27.7863 9.01577 Z " />
<path stroke="rgb(200,255,200)" stroke-opacity="1" fill="rgb(200,255,200)" fill-opacity="1" id="tri_4_8_" d="M28.5689 11.1145 L27.5601 10.3165 L26.5513 9.51859 L25.5426 8.72066 L24.5338 7.92273 L23.5251 7.1248 L24.7206 6.6501 L25.9162 6.1754 L27.1117 5.70069 L28.3073 5.22599 L29.5029 4.75128 L29.3161 6.02392 L29.1293 7.29655 L28.9425 8.56919 L28.7557 9.84182 L28.5689 11.1145 Z " />
<path stroke="rgb(200,255,200)" stroke-opacity="1" fill="rgb(200,255,200)" fill-opacity="1" id="tri_0_8_" d="M-31.3655 -33.7689 L-30.4821 -32.6792 L-29.5988 -31.5895 L-28.7154 -30.4998 L-27.832 -29.41 L-26.9486 -28.3203 L-28.3337 -28.1003 L-29.7189 -27.8802 L-31.104 -27.6602 L-32.4892 -27.4402 L-33.8743 -27.2201 L-33.3726 -28.5299 L-32.8708 -29.8397 L-32.3691 -31.1494 L-31.8673 -32.4592 L-31.3655 -33.7689 Z " />
<path stroke="rgb(200,255,200)" stroke-opacity="1" fill="rgb(200,255,200)" fill-opacity="1" id="tri_1_7_" d="M-23.0846 -21.4521 L-22.1714 -20.4197 L-21.2581 -19.3872 L-20.3448 -18.3548 L-19.4316 -17.3223 L-18.5183 -16.2899 L-19.869 -16.0154 L-21.2197 -15.7409 L-22.5704 -15.4664 L-23.9211 -15.1919 L-25.2717 -14.9175 L-24.8343 -16.2244 L-24.3969 -17.5313 L-23.9595 -18.8383 L-23.522 -20.1452 L-23.0846 -21.4521 Z " />
<path stroke="rgb(200,255,200)" stroke-opacity="1" fill="rgb(200,255,200)" fill-opacity="1" id="tri_0_7_" d="M-21.6341 -22.9869 L-22.5171 -24.0763 L-23.4002 -25.1657 L-24.2832 -26.2552 L-25.1663 -27.3446 L-26.0493 -28.4341 L-24.6642 -28.6541 L-23.279 -28.8741 L-21.8939 -29.0942 L-20.5087 -29.3142 L-19.1236 -29.5342 L-19.6257 -28.2248 L-20.1278 -26.9153 L-20.6299 -25.6058 L-21.132 -24.2963 L-21.6341 -22.9869 Z " />
<path stroke="rgb(200,255,200)" stroke-opacity="1" fill="rgb(200,255,200)" fill-opacity="1" id="tri_2_7_" d="M-14.1787 -10.1483 L-13.2331 -9.18275 L-12.2874 -8.21721 L-11.3418 -7.25166 L-10.3961 -6.28612 L-9.45048 -5.32057 L-10.7593 -4.98445 L-12.0682 -4.64834 L-13.377 -4.31222 L-14.6859 -3.9761 L-15.9947 -3.63998 L-15.6315 -4.94164 L-15.2683 -6.2433 L-14.9051 -7.54497 L-14.5419 -8.84663 L-14.1787 -10.1483 Z " />
<path stroke="rgb(200,255,200)" stroke-opacity="1" fill="rgb(200,255,200)" fill-opacity="1" id="tri_1_6_" d="M-13.0676 -11.2794 L-13.9811 -12.3121 L-14.8945 -13.3447 L-15.808 -14.3774 L-16.7215 -15.4101 L-17.6349 -16.4428 L-16.2843 -16.7172 L-14.9336 -16.9917 L-13.5829 -17.2662 L-12.2322 -17.5407 L-10.8815 -17.8152 L-11.3188 -16.508 L-11.756 -15.2008 L-12.1932 -13.8937 L-12.6304 -12.5865 L-13.0676 -11.2794 Z " />
<path stroke="rgb(200,255,200)" stroke-opacity="1" fill="rgb(200,255,200)" fill-opacity="1" id="tri_3_7_" d="M-4.5943 -0.15848 L-3.61572 0.728925 L-2.63713 1.61633 L-1.65855 2.50374 L-0.679963 3.39114 L0.298621 4.27855 L-0.95915 4.68191 L-2.21692 5.08527 L-3.47469 5.48863 L-4.73246 5.89199 L-5.99023 6.29535 L-5.71105 5.00459 L-5.43186 3.71382 L-5.15267 2.42305 L-4.87349 1.13229 L-4.5943 -0.15848 Z " />
<path stroke="rgb(200,255,200)" stroke-opacity="1" fill="rgb(200,255,200)" fill-opacity="1" id="tri_2_6_" d="M-3.86147 -0.686547 L-4.80728 -1.652 L-5.7531 -2.61745 L-6.69891 -3.5829 L-7.64473 -4.54835 L-8.59054 -5.5138 L-7.28169 -5.84992 L-5.97283 -6.18604 L-4.66398 -6.52216 L-3.35512 -6.85828 L-2.04627 -7.1944 L-2.40931 -5.89283 L-2.77235 -4.59126 L-3.13539 -3.28969 L-3.49843 -1.98812 L-3.86147 -0.686547 Z " />
<path stroke="rgb(200,255,200)" stroke-opacity="1" fill="rgb(200,255,200)" fill-opacity="1" id="tri_4_7_" d="M5.66172 8.18017 L6.67071 8.97826 L7.67971 9.77636 L8.68871 10.5745 L9.69771 11.3726 L10.7067 12.1707 L9.51114 12.6454 L8.31558 13.1201 L7.12001 13.5948 L5.92445 14.0695 L4.72888 14.5442 L4.91545 13.2714 L5.10202 11.9986 L5.28858 10.7258 L5.47515 9.45297 L5.66172 8.18017 Z " />
<path stroke="rgb(200,255,200)" stroke-opacity="1" fill="rgb(200,255,200)" fill-opacity="1" id="tri_3_6_" d="M6.01804 8.47774 L5.03942 7.59046 L4.06081 6.70318 L3.0822 5.81591 L2.10359 4.92863 L1.12497 4.04136 L2.38274 3.638 L3.64051 3.23463 L4.89828 2.83127 L6.15605 2.42791 L7.41383 2.02455 L7.13467 3.31519 L6.85551 4.60582 L6.57635 5.89646 L6.29719 7.1871 L6.01804 8.47774 Z " />
<path stroke="rgb(200,255,200)" stroke-opacity="1" fill="rgb(200,255,200)" fill-opacity="1" id="tri_5_7_" d="M16.5005 14.5209 L17.536 15.2184 L18.5714 15.9158 L19.6069 16.6133 L20.6423 17.3107 L21.6778 18.0082 L20.5556 18.556 L19.4335 19.1038 L18.3113 19.6516 L17.1892 20.1994 L16.067 20.7472 L16.1537 19.5019 L16.2404 18.2567 L16.3271 17.0114 L16.4138 15.7662 L16.5005 14.5209 Z " />
<path stroke="rgb(200,255,200)" stroke-opacity="1" fill="rgb(200,255,200)" fill-opacity="1" id="tri_4_6_" d="M16.5433 15.8781 L15.5346 15.0799 L14.5258 14.2817 L13.5171 13.4835 L12.5084 12.6853 L11.4997 11.8871 L12.6952 11.4124 L13.8908 10.9377 L15.0864 10.463 L16.2819 9.98833 L17.4775 9.51362 L17.2907 10.7865 L17.1038 12.0594 L16.917 13.3323 L16.7301 14.6052 L16.5433 15.8781 Z " />
<path stroke="rgb(200,255,200)" stroke-opacity="1" fill="rgb(200,255,200)" fill-opacity="1" id="tri_6_6_" d="M27.7221 18.5206 L28.7783 19.1062 L29.8345 19.6918 L30.8907 20.2774 L31.9469 20.863 L33.0031 21.4487 L31.9681 22.0703 L30.9331 22.6919 L29.898 23.3135 L28.863 23.9351 L27.8279 24.5568 L27.8067 23.3495 L27.7856 22.1423 L27.7644 20.9351 L27.7432 19.7279 L27.7221 18.5206 Z " />
<path stroke="rgb(200,255,200)" stroke-opacity="1" fill="rgb(200,255,200)" fill-opacity="1" id="tri_5_6_" d="M27.6023 21.1604 L26.5664 20.463 L25.5304 19.7656 L24.4945 19.0683 L23.4585 18.3709 L22.4226 17.6735 L23.5447 17.1257 L24.6669 16.5779 L25.789 16.0301 L26.9112 15.4823 L28.0333 14.9345 L27.9471 16.1797 L27.8609 17.4249 L27.7747 18.67 L27.6885 19.9152 L27.6023 21.1604 Z " />
<path stroke="rgb(200,255,200)" stroke-opacity="1" fill="rgb(200,255,200)" fill-opacity="1" id="tri_0_6_" d="M-45.2812 -31.5706 L-44.3977 -30.4812 L-43.5141 -29.3919 L-42.6306 -28.3026 L-41.7471 -27.2132 L-40.8635 -26.1239 L-42.249 -25.9034 L-43.6345 -25.6829 L-45.02 -25.4624 L-46.4054 -25.2419 L-47.7909 -25.0214 L-47.289 -26.3312 L-46.787 -27.641 L-46.2851 -28.9509 L-45.7832 -30.2607 L-45.2812 -31.5706 Z " />
<path stroke="rgb(200,255,200)" stroke-opacity="1" fill="rgb(200,255,200)" fill-opacity="1" id="tri_1_5_" d="M-36.6623 -18.6989 L-35.7484 -17.6666 L-34.8345 -16.6344 L-33.9206 -15.6021 L-33.0067 -14.5699 L-32.0928 -13.5377 L-33.4439 -13.2632 L-34.795 -12.9887 L-36.1461 -12.7142 L-37.4972 -12.4397 L-38.8484 -12.1653 L-38.4111 -13.472 L-37.9739 -14.7787 L-37.5367 -16.0854 L-37.0995 -17.3921 L-36.6623 -18.6989 Z " />
<path stroke="rgb(200,255,200)" stroke-opacity="1" fill="rgb(200,255,200)" fill-opacity="1" id="tri_0_5_" d="M-35.5476 -20.7907 L-36.4314 -21.8799 L-37.3151 -22.9692 L-38.1988 -24.0584 L-39.0825 -25.1477 L-39.9662 -26.2369 L-38.5808 -26.4574 L-37.1953 -26.6779 L-35.8098 -26.8984 L-34.4243 -27.1189 L-33.0388 -27.3395 L-33.5406 -26.0297 L-34.0424 -24.7199 L-34.5441 -23.4102 L-35.0459 -22.1004 L-35.5476 -20.7907 Z " />
<path stroke="rgb(200,255,200)" stroke-opacity="1" fill="rgb(200,255,200)" fill-opacity="1" id="tri_2_5_" d="M-27.3375 -6.77791 L-26.3917 -5.81259 L-25.4458 -4.84727 L-24.5 -3.88195 L-23.5541 -2.91663 L-22.6083 -1.95131 L-23.9168 -1.61482 L-25.2253 -1.27833 L-26.5339 -0.94184 L-27.8424 -0.60535 L-29.1509 -0.268861 L-28.7883 -1.57067 L-28.4256 -2.87248 L-28.0629 -4.17429 L-27.7002 -5.4761 L-27.3375 -6.77791 Z " />
<path stroke="rgb(200,255,200)" stroke-opacity="1" fill="rgb(200,255,200)" fill-opacity="1" id="tri_1_4_" d="M-26.6445 -8.5297 L-27.5582 -9.56216 L-28.4719 -10.5946 L-29.3856 -11.6271 L-30.2993 -12.6595 L-31.213 -13.692 L-29.8619 -13.9665 L-28.5108 -14.2409 L-27.1596 -14.5154 L-25.8085 -14.7899 L-24.4574 -15.0644 L-24.8948 -13.7575 L-25.3322 -12.4505 L-25.7697 -11.1436 L-26.2071 -9.83664 L-26.6445 -8.5297 Z " />
<path stroke="rgb(200,255,200)" stroke-opacity="1" fill="rgb(200,255,200)" fill-opacity="1" id="tri_3_5_" d="M-17.2373 3.88804 L-16.2592 4.7752 L-15.2811 5.66236 L-14.303 6.54953 L-13.3249 7.43669 L-12.3468 8.32385 L-13.6047 8.7276 L-14.8625 9.13135 L-16.1204 9.5351 L-17.3782 9.93885 L-18.6361 10.3426 L-18.3563 9.05169 L-18.0766 7.76077 L-17.7968 6.46986 L-17.517 5.17895 L-17.2373 3.88804 Z " />
<path stroke="rgb(200,255,200)" stroke-opacity="1" fill="rgb(200,255,200)" fill-opacity="1" id="tri_2_4_" d="M-17.0205 2.68306 L-17.9658 1.71789 L-18.9112 0.752716 L-19.8565 -0.212457 L-20.8018 -1.17763 L-21.7472 -2.14281 L-20.4386 -2.4793 L-19.1301 -2.81578 L-17.8216 -3.15227 L-16.513 -3.48876 L-15.2045 -3.82525 L-15.5677 -2.52359 L-15.9309 -1.22193 L-16.2941 0.0797371 L-16.6573 1.3814 L-17.0205 2.68306 Z " />
<path stroke="rgb(200,255,200)" stroke-opacity="1" fill="rgb(200,255,200)" fill-opacity="1" id="tri_4_5_" d="M-6.36485 12.9469 L-5.35581 13.7448 L-4.34678 14.5426 L-3.33774 15.3404 L-2.3287 16.1383 L-1.31967 16.9361 L-2.51534 17.4107 L-3.71101 17.8852 L-4.90669 18.3598 L-6.10236 18.8344 L-7.29803 19.3089 L-7.11139 18.0365 L-6.92476 16.7641 L-6.73812 15.4917 L-6.55148 14.2193 L-6.36485 12.9469 Z " />
<path stroke="rgb(200,255,200)" stroke-opacity="1" fill="rgb(200,255,200)" fill-opacity="1" id="tri_3_4_" d="M-6.6279 12.5254 L-7.60657 11.6384 L-8.58524 10.7513 L-9.56391 9.86432 L-10.5426 8.9773 L-11.5212 8.09029 L-10.2634 7.68654 L-9.00553 7.28279 L-7.74768 6.87904 L-6.48982 6.47529 L-5.23197 6.07154 L-5.51115 7.36231 L-5.79034 8.65307 L-6.06953 9.94384 L-6.34871 11.2346 L-6.6279 12.5254 Z " />
<path stroke="rgb(200,255,200)" stroke-opacity="1" fill="rgb(200,255,200)" fill-opacity="1" id="tri_5_5_" d="M5.21256 20.0258 L6.24839 20.7232 L7.28421 21.4207 L8.32003 22.1182 L9.35586 22.8157 L10.3917 23.5132 L9.26951 24.0612 L8.14734 24.6093 L7.02517 25.1573 L5.903 25.7054 L4.78083 26.2534 L4.86718 25.0079 L4.95352 23.7623 L5.03987 22.5168 L5.12622 21.2713 L5.21256 20.0258 Z " />
<path stroke="rgb(200,255,200)" stroke-opacity="1" fill="rgb(200,255,200)" fill-opacity="1" id="tri_4_4_" d="M4.51717 20.6421 L3.50807 19.8438 L2.49896 19.0456 L1.48985 18.2473 L0.480748 17.4491 L-0.528358 16.6509 L0.667315 16.1763 L1.86299 15.7017 L3.05866 15.2272 L4.25433 14.7526 L5.45 14.2781 L5.26344 15.5509 L5.07687 16.8237 L4.8903 18.0965 L4.70374 19.3693 L4.51717 20.6421 Z " />
<path stroke="rgb(200,255,200)" stroke-opacity="1" fill="rgb(200,255,200)" fill-opacity="1" id="tri_6_5_" d="M17.3054 24.7668 L18.3611 25.3523 L19.4169 25.9378 L20.4726 26.5233 L21.5283 27.1088 L22.584 27.6943 L21.5492 28.316 L20.5144 28.9377 L19.4796 29.5595 L18.4448 30.1812 L17.41 30.803 L17.3891 29.5957 L17.3682 28.3885 L17.3472 27.1813 L17.3263 25.9741 L17.3054 24.7668 Z " />
<path stroke="rgb(200,255,200)" stroke-opacity="1" fill="rgb(200,255,200)" fill-opacity="1" id="tri_5_4_" d="M16.3141 26.6662 L15.2786 25.969 L14.2431 25.2718 L13.2077 24.5746 L12.1722 23.8774 L11.1367 23.1802 L12.2589 22.6321 L13.3811 22.0841 L14.5032 21.536 L15.6254 20.988 L16.7476 20.44 L16.6609 21.6852 L16.5742 22.9305 L16.4875 24.1757 L16.4008 25.421 L16.3141 26.6662 Z " />
<path stroke="rgb(200,255,200)" stroke-opacity="1" fill="rgb(200,255,200)" fill-opacity="1" id="tri_7_4_" d="M29.4117 27.3496 L30.4774 27.8296 L31.5432 28.3097 L32.6089 28.7898 L33.6747 29.2699 L34.7404 29.7499 L33.7915 30.4323 L32.8425 31.1146 L31.8936 31.797 L30.9447 32.4793 L29.9957 33.1617 L29.8789 31.9993 L29.7621 30.8368 L29.6453 29.6744 L29.5285 28.512 L29.4117 27.3496 Z " />
<path stroke="rgb(200,255,200)" stroke-opacity="1" fill="rgb(200,255,200)" fill-opacity="1" id="tri_6_4_" d="M28.5591 30.2387 L27.5031 29.6532 L26.4471 29.0677 L25.3911 28.4823 L24.3352 27.8968 L23.2792 27.3113 L24.314 26.6896 L25.3488 26.0678 L26.3836 25.4461 L27.4184 24.8243 L28.4532 24.2026 L28.4744 25.4098 L28.4956 26.617 L28.5167 27.8243 L28.5379 29.0315 L28.5591 30.2387 Z " />
<path stroke="rgb(200,255,200)" stroke-opacity="1" fill="rgb(200,255,200)" fill-opacity="1" id="tri_0_4_" d="M-59.1972 -29.375 L-58.3137 -28.2854 L-57.4303 -27.1958 L-56.5469 -26.1063 L-55.6634 -25.0167 L-54.78 -23.9271 L-56.1651 -23.7068 L-57.5501 -23.4866 L-58.9352 -23.2664 L-60.3203 -23.0462 L-61.7053 -22.826 L-61.2037 -24.1358 L-60.7021 -25.4456 L-60.2004 -26.7554 L-59.6988 -28.0652 L-59.1972 -29.375 Z " />
<path stroke="rgb(200,255,200)" stroke-opacity="1" fill="rgb(200,255,200)" fill-opacity="1" id="tri_1_3_" d="M-50.2376 -15.9483 L-49.3243 -14.9157 L-48.411 -13.8831 L-47.4976 -12.8504 L-46.5843 -11.8178 L-45.6709 -10.7852 L-47.0216 -10.5108 L-48.3722 -10.2365 L-49.7228 -9.96211 L-51.0735 -9.68776 L-52.4241 -9.41341 L-51.9868 -10.7204 L-51.5495 -12.0274 L-51.1122 -13.3344 L-50.6749 -14.6413 L-50.2376 -15.9483 Z " />
<path stroke="rgb(200,255,200)" stroke-opacity="1" fill="rgb(200,255,200)" fill-opacity="1" id="tri_0_3_" d="M-49.4639 -18.5925 L-50.347 -19.6821 L-51.2302 -20.7717 L-52.1133 -21.8614 L-52.9964 -22.951 L-53.8795 -24.0406 L-52.4945 -24.2608 L-51.1094 -24.481 L-49.7243 -24.7013 L-48.3393 -24.9215 L-46.9542 -25.1417 L-47.4561 -23.8318 L-47.9581 -22.522 L-48.46 -21.2122 L-48.962 -19.9023 L-49.4639 -18.5925 Z " />
<path stroke="rgb(200,255,200)" stroke-opacity="1" fill="rgb(200,255,200)" fill-opacity="1" id="tri_2_3_" d="M-40.4948 -3.40534 L-39.5492 -2.44009 L-38.6036 -1.47484 L-37.658 -0.509594 L-36.7124 0.455654 L-35.7668 1.4209 L-37.0756 1.75732 L-38.3844 2.09373 L-39.6932 2.43015 L-41.002 2.76657 L-42.3108 3.10298 L-41.9476 1.80132 L-41.5844 0.499656 L-41.2212 -0.802009 L-40.858 -2.10367 L-40.4948 -3.40534 Z " />
<path stroke="rgb(200,255,200)" stroke-opacity="1" fill="rgb(200,255,200)" fill-opacity="1" id="tri_1_2_" d="M-40.221 -5.77714 L-41.1345 -6.80951 L-42.0479 -7.84188 L-42.9613 -8.87425 L-43.8747 -9.90662 L-44.7882 -10.939 L-43.4375 -11.2133 L-42.0869 -11.4877 L-40.7363 -11.762 L-39.3856 -12.0364 L-38.035 -12.3107 L-38.4722 -11.004 L-38.9094 -9.6973 L-39.3466 -8.39058 L-39.7838 -7.08386 L-40.221 -5.77714 Z " />
<path stroke="rgb(200,255,200)" stroke-opacity="1" fill="rgb(200,255,200)" fill-opacity="1" id="tri_3_3_" d="M-29.8854 7.93459 L-28.9066 8.82192 L-27.9277 9.70926 L-26.9488 10.5966 L-25.9699 11.4839 L-24.9911 12.3713 L-26.2494 12.7746 L-27.5077 13.178 L-28.766 13.5814 L-30.0243 13.9848 L-31.2827 14.3881 L-31.0032 13.0974 L-30.7238 11.8067 L-30.4443 10.516 L-30.1649 9.2253 L-29.8854 7.93459 Z " />
<path stroke="rgb(200,255,200)" stroke-opacity="1" fill="rgb(200,255,200)" fill-opacity="1" id="tri_2_2_" d="M-30.1762 6.05516 L-31.1223 5.08977 L-32.0684 4.12437 L-33.0146 3.15898 L-33.9607 2.19359 L-34.9068 1.22819 L-33.598 0.891778 L-32.2892 0.555361 L-30.9804 0.218945 L-29.6716 -0.117472 L-28.3628 -0.453889 L-28.7255 0.847922 L-29.0882 2.14973 L-29.4509 3.45154 L-29.8135 4.75335 L-30.1762 6.05516 Z " />
<path stroke="rgb(200,255,200)" stroke-opacity="1" fill="rgb(200,255,200)" fill-opacity="1" id="tri_4_3_" d="M-18.3911 17.7097 L-17.3821 18.508 L-16.3732 19.3064 L-15.3642 20.1047 L-14.3553 20.9031 L-13.3463 21.7014 L-14.5416 22.1759 L-15.7368 22.6504 L-16.9321 23.1249 L-18.1274 23.5994 L-19.3227 24.0739 L-19.1363 22.801 L-18.95 21.5282 L-18.7637 20.2554 L-18.5774 18.9825 L-18.3911 17.7097 Z " />
<path stroke="rgb(200,255,200)" stroke-opacity="1" fill="rgb(200,255,200)" fill-opacity="1" id="tri_3_2_" d="M-19.274 16.5728 L-20.2526 15.6853 L-21.2311 14.7978 L-22.2097 13.9102 L-23.1882 13.0227 L-24.1668 12.1352 L-22.9085 11.7318 L-21.6502 11.3284 L-20.3918 10.925 L-19.1335 10.5217 L-17.8752 10.1183 L-18.155 11.4092 L-18.4347 12.7001 L-18.7145 13.991 L-18.9943 15.2819 L-19.274 16.5728 Z " />
<path stroke="rgb(200,255,200)" stroke-opacity="1" fill="rgb(200,255,200)" fill-opacity="1" id="tri_5_3_" d="M-6.07318 25.5314 L-5.03783 26.2286 L-4.00249 26.9258 L-2.96715 27.623 L-1.9318 28.3202 L-0.896461 29.0174 L-2.01825 29.5653 L-3.14004 30.1133 L-4.26182 30.6612 L-5.38361 31.2092 L-6.5054 31.7571 L-6.41895 30.512 L-6.33251 29.2668 L-6.24606 28.0217 L-6.15962 26.7765 L-6.07318 25.5314 Z " />
<path stroke="rgb(200,255,200)" stroke-opacity="1" fill="rgb(200,255,200)" fill-opacity="1" id="tri_4_2_" d="M-7.50946 25.4059 L-8.51809 24.608 L-9.52673 23.81 L-10.5354 23.0121 L-11.544 22.2142 L-12.5526 21.4163 L-11.3574 20.9418 L-10.1621 20.4673 L-8.96681 19.9928 L-7.77154 19.5184 L-6.57627 19.0439 L-6.76291 20.3163 L-6.94955 21.5887 L-7.13618 22.8611 L-7.32282 24.1335 L-7.50946 25.4059 Z " />
<path stroke="rgb(200,255,200)" stroke-opacity="1" fill="rgb(200,255,200)" fill-opacity="1" id="tri_6_3_" d="M6.88682 31.0096 L7.94256 31.5954 L8.99829 32.1813 L10.054 32.7671 L11.1098 33.353 L12.1655 33.9388 L11.1306 34.5602 L10.0956 35.1816 L9.06071 35.803 L8.02578 36.4243 L6.99085 37.0457 L6.97005 35.8385 L6.94924 34.6312 L6.92843 33.424 L6.90763 32.2168 L6.88682 31.0096 Z " />
<path stroke="rgb(200,255,200)" stroke-opacity="1" fill="rgb(200,255,200)" fill-opacity="1" id="tri_5_2_" d="M5.02768 32.1722 L3.99224 31.4746 L2.9568 30.7771 L1.92136 30.0795 L0.885917 29.3819 L-0.149524 28.6843 L0.972263 28.1364 L2.09405 27.5884 L3.21584 27.0405 L4.33762 26.4925 L5.45941 25.9446 L5.37307 27.1901 L5.28672 28.4356 L5.20037 29.6812 L5.11403 30.9267 L5.02768 32.1722 Z " />
<path stroke="rgb(200,255,200)" stroke-opacity="1" fill="rgb(200,255,200)" fill-opacity="1" id="tri_7_3_" d="M19.8593 34.2123 L20.925 34.6927 L21.9906 35.1732 L23.0563 35.6536 L24.122 36.134 L25.1876 36.6145 L24.2389 37.2967 L23.2902 37.9789 L22.3415 38.6611 L21.3928 39.3433 L20.444 40.0255 L20.3271 38.8629 L20.2102 37.7002 L20.0932 36.5376 L19.9763 35.3749 L19.8593 34.2123 Z " />
<path stroke="rgb(200,255,200)" stroke-opacity="1" fill="rgb(200,255,200)" fill-opacity="1" id="tri_6_2_" d="M18.1405 36.4841 L17.0846 35.8982 L16.0288 35.3124 L14.9729 34.7265 L13.9171 34.1407 L12.8612 33.5548 L13.8962 32.9334 L14.9311 32.3121 L15.966 31.6907 L17.0009 31.0693 L18.0359 30.4479 L18.0568 31.6552 L18.0777 32.8624 L18.0986 34.0696 L18.1196 35.2768 L18.1405 36.4841 Z " />
<path stroke="rgb(200,255,200)" stroke-opacity="1" fill="rgb(200,255,200)" fill-opacity="1" id="tri_8_2_" d="M32.4281 35.6721 L33.4952 36.0612 L34.5623 36.4503 L35.6295 36.8395 L36.6966 37.2286 L37.7637 37.6177 L36.893 38.3475 L36.0224 39.0772 L35.1517 39.807 L34.281 40.5367 L33.4103 41.2665 L33.2139 40.1476 L33.0174 39.0287 L32.821 37.9098 L32.6245 36.791 L32.4281 35.6721 Z " />
<path stroke="rgb(200,255,200)" stroke-opacity="1" fill="rgb(200,255,200)" fill-opacity="1" id="tri_7_2_" d="M31.1553 38.5872 L30.0898 38.107 L29.0242 37.6267 L27.9587 37.1465 L26.8932 36.6663 L25.8277 36.1861 L26.7764 35.5039 L27.7251 34.8217 L28.6738 34.1394 L29.6225 33.4572 L30.5713 32.775 L30.6881 33.9375 L30.8049 35.0999 L30.9217 36.2623 L31.0385 37.4247 L31.1553 38.5872 Z " />
<path stroke="rgb(200,255,200)" stroke-opacity="1" fill="rgb(200,255,200)" fill-opacity="1" id="tri_0_2_" d="M-73.1111 -27.1774 L-72.2278 -26.0881 L-71.3445 -24.9989 L-70.4612 -23.9097 L-69.578 -22.8204 L-68.6947 -21.7312 L-70.0799 -21.5107 L-71.465 -21.2902 L-72.8502 -21.0698 L-74.2354 -20.8493 L-75.6205 -20.6288 L-75.1186 -21.9385 L-74.6167 -23.2482 L-74.1148 -24.5579 L-73.613 -25.8677 L-73.1111 -27.1774 Z " />
<path stroke="rgb(200,255,200)" stroke-opacity="1" fill="rgb(200,255,200)" fill-opacity="1" id="tri_1_1_" d="M-63.8139 -13.1961 L-62.9002 -12.1638 L-61.9865 -11.1315 L-61.0727 -10.0992 L-60.159 -9.06683 L-59.2453 -8.0345 L-60.5961 -7.7595 L-61.947 -7.4845 L-63.2978 -7.20949 L-64.6487 -6.93449 L-65.9995 -6.65948 L-65.5624 -7.96681 L-65.1253 -9.27414 L-64.6882 -10.5815 L-64.2511 -11.8888 L-63.8139 -13.1961 Z " />
<path stroke="rgb(200,255,200)" stroke-opacity="1" fill="rgb(200,255,200)" fill-opacity="1" id="tri_0_1_" d="M-63.3783 -16.3973 L-64.2619 -17.4866 L-65.1454 -18.5759 L-66.0289 -19.6653 L-66.9125 -20.7546 L-67.796 -21.8439 L-66.4109 -22.0644 L-65.0257 -22.2849 L-63.6405 -22.5054 L-62.2553 -22.7258 L-60.8702 -22.9463 L-61.3718 -21.6365 L-61.8734 -20.3267 L-62.3751 -19.0169 L-62.8767 -17.7071 L-63.3783 -16.3973 Z " />
<path stroke="rgb(200,255,200)" stroke-opacity="1" fill="rgb(200,255,200)" fill-opacity="1" id="tri_2_1_" d="M-53.6503 -0.0312932 L-52.7046 0.933562 L-51.7589 1.89842 L-50.8132 2.86327 L-49.8675 3.82813 L-48.9218 4.79298 L-50.2311 5.12955 L-51.5403 5.46612 L-52.8496 5.80269 L-54.1588 6.13926 L-55.4681 6.47583 L-55.1045 5.1744 L-54.741 3.87298 L-54.3774 2.57155 L-54.0139 1.27013 L-53.6503 -0.0312932 Z " />
<path stroke="rgb(200,255,200)" stroke-opacity="1" fill="rgb(200,255,200)" fill-opacity="1" id="tri_1" d="M-53.7959 -3.02619 L-54.7095 -4.05816 L-55.6231 -5.09014 L-56.5366 -6.12212 L-57.4502 -7.15409 L-58.3637 -8.18607 L-57.0129 -8.46107 L-55.662 -8.73608 L-54.3112 -9.01108 L-52.9603 -9.28609 L-51.6095 -9.56109 L-52.0468 -8.25411 L-52.484 -6.94713 L-52.9213 -5.64015 L-53.3586 -4.33317 L-53.7959 -3.02619 Z " />
<path stroke="rgb(200,255,200)" stroke-opacity="1" fill="rgb(200,255,200)" fill-opacity="1" id="tri_3_1_" d="M-42.5315 11.984 L-41.5527 12.871 L-40.5739 13.7581 L-39.5951 14.6451 L-38.6163 15.5322 L-37.6376 16.4192 L-38.8954 16.8228 L-40.1532 17.2265 L-41.411 17.6301 L-42.6689 18.0337 L-43.9267 18.4373 L-43.6477 17.1466 L-43.3686 15.856 L-43.0896 14.5653 L-42.8106 13.2747 L-42.5315 11.984 Z " />
<path stroke="rgb(200,255,200)" stroke-opacity="1" fill="rgb(200,255,200)" fill-opacity="1" id="tri_2" d="M-43.3356 9.42785 L-44.2816 8.46275 L-45.2277 7.49765 L-46.1737 6.53256 L-47.1198 5.56746 L-48.0658 4.60236 L-46.7566 4.2658 L-45.4473 3.92923 L-44.138 3.59266 L-42.8288 3.25609 L-41.5195 2.91952 L-41.8827 4.22119 L-42.2459 5.52285 L-42.6091 6.82452 L-42.9724 8.12618 L-43.3356 9.42785 Z " />
<path stroke="rgb(200,255,200)" stroke-opacity="1" fill="rgb(200,255,200)" fill-opacity="1" id="tri_4_1_" d="M-30.4172 22.4746 L-29.4085 23.2726 L-28.3997 24.0705 L-27.3909 24.8684 L-26.3822 25.6664 L-25.3734 26.4643 L-26.5687 26.9389 L-27.764 27.4135 L-28.9593 27.8881 L-30.1546 28.3627 L-31.3499 28.8374 L-31.1633 27.5648 L-30.9768 26.2923 L-30.7903 25.0197 L-30.6037 23.7472 L-30.4172 22.4746 Z " />
<path stroke="rgb(200,255,200)" stroke-opacity="1" fill="rgb(200,255,200)" fill-opacity="1" id="tri_3" d="M-31.9205 20.619 L-32.8989 19.7319 L-33.8773 18.8448 L-34.8557 17.9577 L-35.834 17.0706 L-36.8124 16.1836 L-35.5546 15.7799 L-34.2968 15.3763 L-33.0389 14.9727 L-31.7811 14.5691 L-30.5233 14.1655 L-30.8027 15.4562 L-31.0822 16.7469 L-31.3616 18.0376 L-31.6411 19.3283 L-31.9205 20.619 Z " />
<path stroke="rgb(200,255,200)" stroke-opacity="1" fill="rgb(200,255,200)" fill-opacity="1" id="tri_5_1_" d="M-17.3598 31.0359 L-16.3241 31.7334 L-15.2884 32.4309 L-14.2527 33.1284 L-13.217 33.8258 L-12.1813 34.5233 L-13.3034 35.0712 L-14.4254 35.6192 L-15.5474 36.1671 L-16.6695 36.715 L-17.7915 37.263 L-17.7052 36.0176 L-17.6188 34.7721 L-17.5325 33.5267 L-17.4462 32.2813 L-17.3598 31.0359 Z " />
<path stroke="rgb(200,255,200)" stroke-opacity="1" fill="rgb(200,255,200)" fill-opacity="1" id="tri_4" d="M-19.5349 30.1705 L-20.5439 29.3723 L-21.5528 28.574 L-22.5618 27.7758 L-23.5708 26.9776 L-24.5798 26.1794 L-23.3845 25.7048 L-22.1892 25.2301 L-20.9939 24.7555 L-19.7986 24.2809 L-18.6033 23.8063 L-18.7896 25.0791 L-18.9759 26.352 L-19.1623 27.6248 L-19.3486 28.8977 L-19.5349 30.1705 Z " />
<path stroke="rgb(200,255,200)" stroke-opacity="1" fill="rgb(200,255,200)" fill-opacity="1" id="tri_6_1_" d="M-3.5308 37.2545 L-2.47495 37.84 L-1.4191 38.4255 L-0.363249 39.011 L0.692603 39.5965 L1.74845 40.1819 L0.71341 40.8038 L-0.321634 41.4257 L-1.35668 42.0475 L-2.39172 42.6694 L-3.42676 43.2913 L-3.44757 42.0839 L-3.46838 40.8766 L-3.48919 39.6692 L-3.51 38.4619 L-3.5308 37.2545 Z " />
<path stroke="rgb(200,255,200)" stroke-opacity="1" fill="rgb(200,255,200)" fill-opacity="1" id="tri_5" d="M-6.25802 37.6754 L-7.29362 36.9782 L-8.32921 36.281 L-9.3648 35.5837 L-10.4004 34.8865 L-11.436 34.1893 L-10.3139 33.6414 L-9.19191 33.0934 L-8.06988 32.5455 L-6.94784 31.9976 L-5.8258 31.4497 L-5.91225 32.6948 L-5.99869 33.94 L-6.08514 35.1851 L-6.17158 36.4302 L-6.25802 37.6754 Z " />
<path stroke="rgb(200,255,200)" stroke-opacity="1" fill="rgb(200,255,200)" fill-opacity="1" id="tri_7_1_" d="M10.3081 41.0779 L11.3737 41.5579 L12.4394 42.0379 L13.505 42.5178 L14.5706 42.9978 L15.6362 43.4778 L14.6873 44.1604 L13.7384 44.8429 L12.7895 45.5255 L11.8405 46.2081 L10.8916 46.8907 L10.7749 45.7281 L10.6582 44.5656 L10.5415 43.403 L10.4248 42.2405 L10.3081 41.0779 Z " />
<path stroke="rgb(200,255,200)" stroke-opacity="1" fill="rgb(200,255,200)" fill-opacity="1" id="tri_6" d="M7.72166 42.7272 L6.66581 42.1418 L5.60996 41.5565 L4.55411 40.9711 L3.49826 40.3857 L2.44242 39.8004 L3.47746 39.1785 L4.5125 38.5566 L5.54755 37.9348 L6.58259 37.3129 L7.61763 36.6911 L7.63844 37.8983 L7.65924 39.1055 L7.68005 40.3127 L7.70086 41.52 L7.72166 42.7272 Z " />
<path stroke="rgb(200,255,200)" stroke-opacity="1" fill="rgb(200,255,200)" fill-opacity="1" id="tri_8_1_" d="M23.6589 43.0087 L24.7263 43.3976 L25.7938 43.7866 L26.8612 44.1756 L27.9287 44.5645 L28.9961 44.9535 L28.1253 45.6834 L27.2546 46.4132 L26.3838 47.1431 L25.513 47.873 L24.6423 48.6029 L24.4456 47.484 L24.2489 46.3652 L24.0522 45.2464 L23.8555 44.1275 L23.6589 43.0087 Z " />
<path stroke="rgb(200,255,200)" stroke-opacity="1" fill="rgb(200,255,200)" fill-opacity="1" id="tri_7" d="M21.6038 45.4513 L20.5379 44.9712 L19.472 44.4911 L18.4062 44.0111 L17.3403 43.531 L16.2745 43.0509 L17.2234 42.3683 L18.1723 41.6858 L19.1212 41.0032 L20.0701 40.3206 L21.019 39.638 L21.136 40.8007 L21.2529 41.9633 L21.3699 43.126 L21.4868 44.2886 L21.6038 45.4513 Z " />
<path stroke="rgb(200,255,200)" stroke-opacity="1" fill="rgb(200,255,200)" fill-opacity="1" id="tri_9" d="M36.4323 43.5202 L37.495 43.8318 L38.5578 44.1433 L39.6205 44.4549 L40.6833 44.7665 L41.746 45.0781 L40.9448 45.8425 L40.1436 46.6069 L39.3424 47.3714 L38.5412 48.1358 L37.74 48.9002 L37.4785 47.8242 L37.2169 46.7482 L36.9554 45.6722 L36.6938 44.5962 L36.4323 43.5202 Z " />
<path stroke="rgb(200,255,200)" stroke-opacity="1" fill="rgb(200,255,200)" fill-opacity="1" id="tri_8" d="M34.9231 46.442 L33.8559 46.053 L32.7886 45.664 L31.7214 45.275 L30.6542 44.886 L29.587 44.497 L30.4577 43.7671 L31.3285 43.0373 L32.1993 42.3074 L33.0701 41.5775 L33.9408 40.8476 L34.1373 41.9665 L34.3337 43.0854 L34.5302 44.2043 L34.7266 45.3231 L34.9231 46.442 Z " />
</g>
</g>
</svg>
