<!DOCTYPE svg>
<svg xmlns="http://www.w3.org/2000/svg" xmlns:xlink="http://www.w3.org/1999/xlink" width="600" height="600">
<g transform="translate(300.000000,300.000000)">
<g transform="scale(3.000000,3.000000)">
<path stroke="rgb(0,0,0)" stroke-opacity="1" fill="rgb(255,255,255)" fill-opacity="1" id="Layer_1" d="M107.411 107.089 L105.406 107.092 L103.402 107.095 L101.397 107.098 L99.3922 107.101 L97.3875 107.104 L95.3828 107.107 L93.3782 107.11 L91.3735 107.113 L89.3688 107.116 L87.3641 107.119 L85.3595 107.122 L83.3548 107.125 L81.3501 107.128 L79.3455 107.131 L77.3408 107.134 L75.3361 107.137 L73.3314 107.14 L71.3268 107.143 L69.3221 107.146 L67.3174 107.149 L65.3127 107.152 L63.3081 107.155 L61.3034 107.158 L59.2987 107.161 L57.2941 107.164 L55.2894 107.167 L53.2847 107.17 L51.28 107.173 L49.2754 107.176 L47.2707 107.179 L45.266 107.182 L43.2613 107.185 L41.2567 107.188 L39.252 107.191 L37.2473 107.194 L35.2426 107.197 L33.238 107.2 L31.2333 107.203 L29.2286 107.206 L27.224 107.209 L25.2193 107.212 L23.2146 107.215 L21.2099 107.218 L19.2053 107.221 L17.2006 107.224 L15.1959 107.227 L13.1912 107.23 L11.1866 107.233 L9.1819 107.236 L7.17723 107.239 L5.17256 107.242 L3.16788 107.245 L1.16321 107.248 L-0.841463 107.252 L-2.84614 107.255 L-4.85081 107.258 L-6.85548 107.261 L-8.86015 107.264 L-10.8648 107.267 L-12.8695 107.27 L-14.8742 107.273 L-16.8788 107.276 L-18.8835 107.279 L-20.8882 107.282 L-22.8929 107.285 L-24.8975 107.288 L-26.9022 107.291 L-28.9069 107.294 L-30.9116 107.297 L-32.9162 107.3 L-34.9209 107.303 L-36.9256 107.306 L-38.9302 107.309 L-40.9349 107.312 L-42.9396 107.315 L-44.9443 107.318 L-46.9489 107.321 L-48.9536 107.324 L-50.9583 107.327 L-52.963 107.33 L-54.9676 107.333 L-56.9723 107.336 L-58.977 107.339 L-60.9816 107.342 L-62.9863 107.345 L-64.991 107.348 L-66.9957 107.351 L-69.0003 107.354 L-71.005 107.357 L-73.0097 107.36 L-75.0144 107.363 L-77.019 107.366 L-79.0237 107.369 L-81.0284 107.372 L-83.0331 107.375 L-85.0377 107.378 L-87.0424 107.381 L-89.0471 107.384 L-91.0517 107.387 L-93.0564 107.39 L-95.0611 107.393 L-97.0658 107.396 L-99.0704 107.399 L-101.075 107.402 L-103.08 107.405 L-105.084 107.408 L-107.089 107.411 L-107.092 105.406 L-107.095 103.402 L-107.098 101.397 L-107.101 99.3922 L-107.104 97.3875 L-107.107 95.3828 L-107.11 93.3782 L-107.113 91.3735 L-107.116 89.3688 L-107.119 87.3641 L-107.122 85.3595 L-107.125 83.3548 L-107.128 81.3501 L-107.131 79.3455 L-107.134 77.3408 L-107.137 75.3361 L-107.14 73.3314 L-107.143 71.3268 L-107.146 69.3221 L-107.149 67.3174 L-107.152 65.3127 L-107.155 63.3081 L-107.158 61.3034 L-107.161 59.2987 L-107.164 57.2941 L-107.167 55.2894 L-107.17 53.2847 L-107.173 51.28 L-107.176 49.2754 L-107.179 47.2707 L-107.182 45.266 L-107.185 43.2613 L-107.188 41.2567 L-107.191 39.252 L-107.194 37.2473 L-107.197 35.2426 L-107.2 33.238 L-107.203 31.2333 L-107.206 29.2286 L-107.209 27.224 L-107.212 25.2193 L-107.215 23.2146 L-107.218 21.2099 L-107.221 19.2053 L-107.224 17.2006 L-107.227 15.1959 L-107.23 13.1912 L-107.233 11.1866 L-107.236 9.1819 L-107.239 7.17722 L-107.242 5.17255 L-107.245 3.16788 L-107.248 1.1632 L-107.251 -0.841469 L-107.255 -2.84614 L-107.258 -4.85081 L-107.261 -6.85549 L-107.264 -8.86016 L-107.267 -10.8648 L-107.27 -12.8695 L-107.273 -14.8742 L-107.276 -16.8789 L-107.279 -18.8835 L-107.282 -20.8882 L-107.285 -22.8929 L-107.288 -24.8975 L-107.291 -26.9022 L-107.294 -28.9069 L-107.297 -30.9116 L-107.3 -32.9162 L-107.303 -34.9209 L-107.306 -36.9256 L-107.309 -38.9303 L-107.312 -40.9349 L-107.315 -42.9396 L-107.318 -44.9443 L-107.321 -46.9489 L-107.324 -48.9536 L-107.327 -50.9583 L-107.33 -52.963 L-107.333 -54.9676 L-107.336 -56.9723 L-107.339 -58.977 L-107.342 -60.9817 L-107.345 -62.9863 L-107.348 -64.991 L-107.351 -66.9957 L-107.354 -69.0003 L-107.357 -71.005 L-107.36 -73.0097 L-107.363 -75.0144 L-107.366 -77.019 L-107.369 -79.0237 L-107.372 -81.0284 L-107.375 -83.0331 L-107.378 -85.0377 L-107.381 -87.0424 L-107.384 -89.0471 L-107.387 -91.0518 L-107.39 -93.0564 L-107.393 -95.0611 L-107.396 -97.0658 L-107.399 -99.0704 L-107.402 -101.075 L-107.405 -103.08 L-107.408 -105.084 L-107.411 -107.089 L-105.406 -107.092 L-103.402 -107.095 L-101.397 -107.098 L-99.3922 -107.101 L-97.3875 -107.104 L-95.3828 -107.107 L-93.3782 -107.11 L-91.3735 -107.113 L-89.3688 -107.116 L-87.3641 -107.119 L-85.3595 -107.122 L-83.3548 -107.125 L-81.3501 -107.128 L-79.3455 -107.131 L-77.3408 -107.134 L-75.3361 -107.137 L-73.3314 -107.14 L-71.3268 -107.143 L-69.3221 -107.146 L-67.3174 -107.149 L-65.3127 -107.152 L-63.3081 -107.155 L-61.3034 -107.158 L-59.2987 -107.161 L-57.2941 -107.164 L-55.2894 -107.167 L-53.2847 -107.17 L-51.28 -107.173 L-49.2754 -107.176 L-47.2707 -107.179 L-45.266 -107.182 L-43.2613 -107.185 L-41.2567 -107.188 L-39.252 -107.191 L-37.2473 -107.194 L-35.2426 -107.197 L-33.238 -107.2 L-31.2333 -107.203 L-29.2286 -107.206 L-27.224 -107.209 L-25.2193 -107.212 L-23.2146 -107.215 L-21.2099 -107.218 L-19.2053 -107.221 L-17.2006 -107.224 L-15.1959 -107.227 L-13.1912 -107.23 L-11.1866 -107.233 L-9.1819 -107.236 L-7.17723 -107.239 L-5.17256 -107.242 L-3.16788 -107.245 L-1.16321 -107.248 L0.841463 -107.252 L2.84614 -107.255 L4.85081 -107.258 L6.85548 -107.261 L8.86015 -107.264 L10.8648 -107.267 L12.8695 -107.27 L14.8742 -107.273 L16.8788 -107.276 L18.8835 -107.279 L20.8882 -107.282 L22.8929 -107.285 L24.8975 -107.288 L26.9022 -107.291 L28.9069 -107.294 L30.9116 -107.297 L32.9162 -107.3 L34.9209 -107.303 L36.9256 -107.306 L38.9302 -107.309 L40.9349 -107.312 L42.9396 -107.315 L44.9443 -107.318 L46.9489 -107.321 L48.9536 -107.324 L50.9583 -107.327 L52.963 -107.33 L54.9676 -107.333 L56.9723 -107.336 L58.977 -107.339 L60.9816 -107.342 L62.9863 -107.345 L64.991 -107.348 L66.9957 -107.351 L69.0003 -107.354 L71.005 -107.357 L73.0097 -107.36 L75.0144 -107.363 L77.019 -107.366 L79.0237 -107.369 L81.0284 -107.372 L83.0331 -107.375 L85.0377 -107.378 L87.0424 -107.381 L89.0471 -107.384 L91.0517 -107.387 L93.0564 -107.39 L95.0611 -107.393 L97.0658 -107.396 L99.0704 -107.399 L101.075 -107.402 L103.08 -107.405 L105.084 -107.408 L107.089 -107.411 L107.092 -105.406 L107.095 -103.402 L107.098 -101.397 L107.101 -99.3922 L107.104 -97.3875 L107.107 -95.3828 L107.11 -93.3782 L107.113 -91.3735 L107.116 -89.3688 L107.119 -87.3642 L107.122 -85.3595 L107.125 -83.3548 L107.128 -81.3501 L107.131 -79.3455 L107.134 -77.3408 L107.137 -75.3361 L107.14 -73.3314 L107.143 -71.3268 L107.146 -69.3221 L107.149 -67.3174 L107.152 -65.3128 L107.155 -63.3081 L107.158 -61.3034 L107.161 -59.2987 L107.164 -57.2941 L107.167 -55.2894 L107.17 -53.2847 L107.173 -51.28 L107.176 -49.2754 L107.179 -47.2707 L107.182 -45.266 L107.185 -43.2613 L107.188 -41.2567 L107.191 -39.252 L107.194 -37.2473 L107.197 -35.2427 L107.2 -33.238 L107.203 -31.2333 L107.206 -29.2286 L107.209 -27.224 L107.212 -25.2193 L107.215 -23.2146 L107.218 -21.2099 L107.221 -19.2053 L107.224 -17.2006 L107.227 -15.1959 L107.23 -13.1913 L107.233 -11.1866 L107.236 -9.18191 L107.239 -7.17724 L107.242 -5.17256 L107.245 -3.16789 L107.248 -1.16322 L107.251 0.841455 L107.255 2.84613 L107.258 4.8508 L107.261 6.85547 L107.264 8.86015 L107.267 10.8648 L107.27 12.8695 L107.273 14.8742 L107.276 16.8788 L107.279 18.8835 L107.282 20.8882 L107.285 22.8929 L107.288 24.8975 L107.291 26.9022 L107.294 28.9069 L107.297 30.9115 L107.3 32.9162 L107.303 34.9209 L107.306 36.9256 L107.309 38.9302 L107.312 40.9349 L107.315 42.9396 L107.318 44.9443 L107.321 46.9489 L107.324 48.9536 L107.327 50.9583 L107.33 52.963 L107.333 54.9676 L107.336 56.9723 L107.339 58.977 L107.342 60.9816 L107.345 62.9863 L107.348 64.991 L107.351 66.9957 L107.354 69.0003 L107.357 71.005 L107.36 73.0097 L107.363 75.0144 L107.366 77.019 L107.369 79.0237 L107.372 81.0284 L107.375 83.033 L107.378 85.0377 L107.381 87.0424 L107.384 89.0471 L107.387 91.0517 L107.39 93.0564 L107.393 95.0611 L107.396 97.0658 L107.399 99.0704 L107.402 101.075 L107.405 103.08 L107.408 105.084 L107.411 107.089 Z " />
<path stroke="rgb(169,255,187)" stroke-opacity="1" fill="rgb(169,255,187)" fill-opacity="1" id="scalebar" d="M-3.69904 -94.609 L-1.65554 -94.609 L0.387962 -94.609 L2.43146 -94.609 L4.47496 -94.609 L4.47496 -92.6686 L4.47496 -90.7281 L4.47496 -88.7876 L4.47496 -86.8472 L4.47496 -84.9067 L4.47496 -82.9663 L4.47496 -81.0258 L4.47496 -79.0853 L4.47496 -77.1449 L4.47496 -75.2044 L4.47496 -73.2639 L4.47496 -71.3235 L4.47496 -69.383 L2.43146 -69.383 L0.387962 -69.383 L-1.65554 -69.383 L-3.69904 -69.383 L-3.69904 -71.3235 L-3.69904 -73.2639 L-3.69904 -75.2044 L-3.69904 -77.1449 L-3.69904 -79.0853 L-3.69904 -81.0258 L-3.69904 -82.9663 L-3.69904 -84.9067 L-3.69904 -86.8472 L-3.69904 -88.7876 L-3.69904 -90.7281 L-3.69904 -92.6686 L-3.69904 -94.609 Z " />
<path stroke="rgb(200,255,200)" stroke-opacity="1" fill="rgb(200,255,200)" fill-opacity="1" id="scaleslider" d="M-6.69904 -93.3529 L-4.67418 -93.3529 L-2.64932 -93.3529 L-0.624466 -93.3529 L1.40039 -93.3529 L3.42525 -93.3529 L5.4501 -93.3529 L7.47496 -93.3529 L7.47496 -91.6262 L7.47496 -89.8996 L7.47496 -88.1729 L5.4501 -88.1729 L3.42525 -88.1729 L1.40039 -88.1729 L-0.624466 -88.1729 L-2.64932 -88.1729 L-4.67418 -88.1729 L-6.69904 -88.1729 L-6.69904 -89.8996 L-6.69904 -91.6262 L-6.69904 -93.3529 Z " />
<path stroke="rgb(255,134,106)" stroke-opacity="1" fill="rgb(255,134,106)" fill-opacity="1" id="tranbar" d="M-49.142 -86.146 L-47.0675 -86.146 L-44.993 -86.146 L-42.9185 -86.146 L-40.844 -86.146 L-40.844 -88.2208 L-40.844 -90.2955 L-40.844 -92.3703 L-40.844 -94.445 L-38.7685 -94.445 L-36.693 -94.445 L-34.6175 -94.445 L-32.542 -94.445 L-32.542 -92.3703 L-32.542 -90.2955 L-32.542 -88.2208 L-32.542 -86.146 L-30.4673 -86.146 L-28.3925 -86.146 L-26.3178 -86.146 L-24.243 -86.146 L-24.243 -84.0715 L-24.243 -81.997 L-24.243 -79.9225 L-24.243 -77.848 L-26.3178 -77.848 L-28.3925 -77.848 L-30.4673 -77.848 L-32.542 -77.848 L-32.542 -75.773 L-32.542 -73.698 L-32.542 -71.623 L-32.542 -69.548 L-34.6175 -69.548 L-36.693 -69.548 L-38.7685 -69.548 L-40.844 -69.548 L-40.844 -71.623 L-40.844 -73.698 L-40.844 -75.773 L-40.844 -77.848 L-42.9185 -77.848 L-44.993 -77.848 L-47.0675 -77.848 L-49.142 -77.848 L-49.142 -79.9225 L-49.142 -81.997 L-49.142 -84.0715 L-49.142 -86.146 Z " />
<path stroke="rgb(255,250,159)" stroke-opacity="1" fill="rgb(255,250,159)" fill-opacity="1" id="translider" d="M-39.248 -84.553 L-37.5447 -84.553 L-35.8414 -84.553 L-34.138 -84.553 L-34.138 -82.85 L-34.138 -81.147 L-34.138 -79.444 L-35.8414 -79.444 L-37.5447 -79.444 L-39.248 -79.444 L-39.248 -81.147 L-39.248 -82.85 L-39.248 -84.553 Z " />
<path stroke="rgb(254,204,128)" stroke-opacity="1" fill="rgb(254,204,128)" fill-opacity="1" id="rotate" d="M42.0796 -89.7271 L43.0193 -88.0474 L43.9591 -86.3677 L44.8988 -84.688 L45.8385 -83.0084 L46.7782 -81.3287 L45.7931 -79.675 L44.808 -78.0214 L43.8228 -76.3677 L42.8377 -74.7141 L41.8526 -73.0604 L39.9278 -73.0866 L38.0029 -73.1128 L36.0781 -73.1391 L34.1533 -73.1653 L32.2284 -73.1915 L31.2887 -74.8714 L30.349 -76.5513 L29.4093 -78.2311 L28.4696 -79.911 L27.5299 -81.5909 L28.515 -83.2443 L29.5001 -84.8978 L30.4852 -86.5513 L31.4704 -88.2047 L32.4555 -89.8582 L34.3803 -89.832 L36.3051 -89.8057 L38.23 -89.7795 L40.1548 -89.7533 L42.0796 -89.7271 Z " />
<path stroke="rgb(200,255,200)" stroke-opacity="1" fill="rgb(200,255,200)" fill-opacity="1" id="tri_0" d="M60.4928 -42.0115 L61.2699 -40.7596 L62.0469 -39.5077 L62.824 -38.2559 L63.6011 -37.004 L64.3782 -35.7521 L62.9073 -35.7048 L61.4364 -35.6574 L59.9655 -35.6101 L58.4945 -35.5628 L57.0236 -35.5154 L57.7175 -36.8146 L58.4113 -38.1138 L59.1051 -39.4131 L59.7989 -40.7123 L60.4928 -42.0115 Z " />
<path stroke="rgb(200,255,200)" stroke-opacity="1" fill="rgb(200,255,200)" fill-opacity="1" id="tri_0_18_" d="M45.7104 -41.5626 L46.4878 -40.3114 L47.2653 -39.0602 L48.0427 -37.8089 L48.8201 -36.5577 L49.5976 -35.3065 L48.1264 -35.259 L46.6552 -35.2114 L45.184 -35.1639 L43.7128 -35.1164 L42.2416 -35.0688 L42.9354 -36.3676 L43.6291 -37.6663 L44.3229 -38.9651 L45.0166 -40.2638 L45.7104 -41.5626 Z " />
<path stroke="rgb(200,255,200)" stroke-opacity="1" fill="rgb(200,255,200)" fill-opacity="1" id="tri_1_16_" d="M54.0396 -28.5119 L54.8056 -27.2465 L55.5715 -25.9812 L56.3375 -24.7159 L57.1034 -23.4505 L57.8694 -22.1852 L56.392 -22.1546 L54.9146 -22.1239 L53.4373 -22.0933 L51.9599 -22.0626 L50.4826 -22.032 L51.194 -23.328 L51.9054 -24.6239 L52.6168 -25.9199 L53.3282 -27.2159 L54.0396 -28.5119 Z " />
<path stroke="rgb(200,255,200)" stroke-opacity="1" fill="rgb(200,255,200)" fill-opacity="1" id="tri_0_17_" d="M54.4316 -29.0439 L53.6542 -30.2955 L52.8769 -31.5472 L52.0995 -32.7989 L51.3222 -34.0506 L50.5448 -35.3023 L52.016 -35.3498 L53.4872 -35.3973 L54.9584 -35.4449 L56.4295 -35.4924 L57.9007 -35.5399 L57.2069 -34.2407 L56.5131 -32.9415 L55.8193 -31.6423 L55.1254 -30.3431 L54.4316 -29.0439 Z " />
<path stroke="rgb(200,255,200)" stroke-opacity="1" fill="rgb(200,255,200)" fill-opacity="1" id="tri_0_16_" d="M30.927 -41.1146 L31.7045 -39.8627 L32.4821 -38.6107 L33.2596 -37.3588 L34.0372 -36.1068 L34.8147 -34.8549 L33.3431 -34.8077 L31.8714 -34.7606 L30.3998 -34.7135 L28.9282 -34.6664 L27.4565 -34.6193 L28.1506 -35.9183 L28.8447 -37.2174 L29.5388 -38.5165 L30.2329 -39.8155 L30.927 -41.1146 Z " />
<path stroke="rgb(200,255,200)" stroke-opacity="1" fill="rgb(200,255,200)" fill-opacity="1" id="tri_1_15_" d="M39.1862 -28.224 L39.9527 -26.9587 L40.7192 -25.6934 L41.4857 -24.4282 L42.2522 -23.1629 L43.0186 -21.8976 L41.5408 -21.867 L40.063 -21.8365 L38.5852 -21.8059 L37.1074 -21.7754 L35.6296 -21.7448 L36.3409 -23.0407 L37.0522 -24.3365 L37.7636 -25.6323 L38.4749 -26.9282 L39.1862 -28.224 Z " />
<path stroke="rgb(200,255,200)" stroke-opacity="1" fill="rgb(200,255,200)" fill-opacity="1" id="tri_0_15_" d="M39.65 -28.5951 L38.8721 -29.8468 L38.0942 -31.0984 L37.3163 -32.35 L36.5385 -33.6017 L35.7606 -34.8533 L37.2322 -34.9004 L38.7038 -34.9475 L40.1755 -34.9947 L41.6471 -35.0418 L43.1187 -35.0889 L42.425 -33.7902 L41.7313 -32.4914 L41.0375 -31.1927 L40.3438 -29.8939 L39.65 -28.5951 Z " />
<path stroke="rgb(200,255,200)" stroke-opacity="1" fill="rgb(200,255,200)" fill-opacity="1" id="tri_2_14_" d="M47.1237 -15.1789 L47.8821 -13.9039 L48.6404 -12.6288 L49.3987 -11.3537 L50.1571 -10.0786 L50.9154 -8.80349 L49.4333 -8.78509 L47.9511 -8.76669 L46.469 -8.74829 L44.9869 -8.72989 L43.5047 -8.71149 L44.2285 -10.005 L44.9523 -11.2985 L45.6761 -12.592 L46.3999 -13.8855 L47.1237 -15.1789 Z " />
<path stroke="rgb(200,255,200)" stroke-opacity="1" fill="rgb(200,255,200)" fill-opacity="1" id="tri_1_14_" d="M47.805 -15.559 L47.0386 -16.8244 L46.2722 -18.0898 L45.5058 -19.3553 L44.7394 -20.6207 L43.973 -21.8861 L45.4508 -21.9166 L46.9286 -21.9472 L48.4064 -21.9778 L49.8842 -22.0083 L51.362 -22.0389 L50.6506 -20.7429 L49.9392 -19.4469 L49.2278 -18.151 L48.5164 -16.855 L47.805 -15.559 Z " />
<path stroke="rgb(200,255,200)" stroke-opacity="1" fill="rgb(200,255,200)" fill-opacity="1" id="tri_0_14_" d="M16.1394 -40.6671 L16.9171 -39.4152 L17.6949 -38.1633 L18.4726 -36.9114 L19.2504 -35.6595 L20.0281 -34.4076 L18.5567 -34.3607 L17.0854 -34.3137 L15.614 -34.2668 L14.1427 -34.2199 L12.6713 -34.173 L13.3649 -35.4718 L14.0585 -36.7706 L14.7521 -38.0694 L15.4457 -39.3682 L16.1394 -40.6671 Z " />
<path stroke="rgb(200,255,200)" stroke-opacity="1" fill="rgb(200,255,200)" fill-opacity="1" id="tri_1_13_" d="M24.335 -27.9403 L25.1009 -26.6745 L25.8667 -25.4088 L26.6326 -24.143 L27.3985 -22.8772 L28.1643 -21.6114 L26.687 -21.5807 L25.2096 -21.5501 L23.7323 -21.5195 L22.2549 -21.4888 L20.7776 -21.4582 L21.489 -22.7546 L22.2005 -24.051 L22.912 -25.3475 L23.6235 -26.6439 L24.335 -27.9403 Z " />
<path stroke="rgb(200,255,200)" stroke-opacity="1" fill="rgb(200,255,200)" fill-opacity="1" id="tri_0_13_" d="M24.8626 -28.1458 L24.0853 -29.398 L23.308 -30.6501 L22.5307 -31.9023 L21.7535 -33.1544 L20.9762 -34.4065 L22.4475 -34.4535 L23.9189 -34.5004 L25.3903 -34.5473 L26.8616 -34.5943 L28.333 -34.6412 L27.6389 -33.3421 L26.9448 -32.0431 L26.2507 -30.744 L25.5567 -29.4449 L24.8626 -28.1458 Z " />
<path stroke="rgb(200,255,200)" stroke-opacity="1" fill="rgb(200,255,200)" fill-opacity="1" id="tri_2_13_" d="M32.2255 -15.009 L32.9834 -13.7341 L33.7414 -12.4593 L34.4993 -11.1844 L35.2573 -9.90953 L36.0152 -8.63466 L34.5333 -8.61611 L33.0515 -8.59757 L31.5696 -8.57902 L30.0877 -8.56047 L28.6058 -8.54193 L29.3298 -9.83535 L30.0537 -11.1288 L30.7776 -12.4222 L31.5015 -13.7156 L32.2255 -15.009 Z " />
<path stroke="rgb(200,255,200)" stroke-opacity="1" fill="rgb(200,255,200)" fill-opacity="1" id="tri_1_12_" d="M32.9523 -15.2717 L32.1863 -16.5369 L31.4202 -17.8021 L30.6542 -19.0673 L29.8882 -20.3325 L29.1222 -21.5977 L30.5995 -21.6283 L32.0769 -21.6589 L33.5542 -21.6896 L35.0316 -21.7202 L36.509 -21.7509 L35.7976 -20.455 L35.0863 -19.1592 L34.375 -17.8633 L33.6636 -16.5675 L32.9523 -15.2717 Z " />
<path stroke="rgb(200,255,200)" stroke-opacity="1" fill="rgb(200,255,200)" fill-opacity="1" id="tri_3_12_" d="M39.9021 -2.00167 L40.6556 -0.720882 L41.4091 0.559903 L42.1626 1.84069 L42.9161 3.12147 L43.6696 4.40226 L42.1853 4.41461 L40.701 4.42697 L39.2166 4.43932 L37.7323 4.45167 L36.2479 4.46402 L36.9788 3.17089 L37.7096 1.87775 L38.4405 0.584609 L39.1713 -0.708529 L39.9021 -2.00167 Z " />
<path stroke="rgb(200,255,200)" stroke-opacity="1" fill="rgb(200,255,200)" fill-opacity="1" id="tri_2_12_" d="M40.7653 -2.23965 L40.0072 -3.5146 L39.2492 -4.78954 L38.4911 -6.06449 L37.733 -7.33943 L36.9749 -8.61438 L38.4568 -8.63293 L39.9387 -8.65147 L41.4206 -8.67002 L42.9024 -8.68857 L44.3843 -8.70711 L43.6605 -7.41362 L42.9367 -6.12013 L42.2129 -4.82664 L41.4891 -3.53315 L40.7653 -2.23965 Z " />
<path stroke="rgb(200,255,200)" stroke-opacity="1" fill="rgb(200,255,200)" fill-opacity="1" id="tri_0_12_" d="M1.35905 -40.2176 L2.13609 -38.9662 L2.91313 -37.7149 L3.69017 -36.4635 L4.46721 -35.2122 L5.24424 -33.9608 L3.773 -33.9135 L2.30175 -33.8662 L0.830509 -33.8189 L-0.640736 -33.7715 L-2.11198 -33.7242 L-1.41777 -35.0229 L-0.723568 -36.3215 L-0.029361 -37.6202 L0.664846 -38.9189 L1.35905 -40.2176 Z " />
<path stroke="rgb(200,255,200)" stroke-opacity="1" fill="rgb(200,255,200)" fill-opacity="1" id="tri_1_11_" d="M9.48129 -27.6538 L10.2475 -26.3887 L11.0137 -25.1235 L11.78 -23.8584 L12.5462 -22.5932 L13.3124 -21.3281 L11.8348 -21.2974 L10.3573 -21.2667 L8.87973 -21.236 L7.40217 -21.2053 L5.92462 -21.1746 L6.63595 -22.4704 L7.34728 -23.7663 L8.05862 -25.0621 L8.76995 -26.358 L9.48129 -27.6538 Z " />
<path stroke="rgb(200,255,200)" stroke-opacity="1" fill="rgb(200,255,200)" fill-opacity="1" id="tri_0_11_" d="M10.0784 -27.6996 L9.30081 -28.9511 L8.52318 -30.2025 L7.74555 -31.454 L6.96793 -32.7055 L6.1903 -33.957 L7.66154 -34.0043 L9.13279 -34.0517 L10.604 -34.099 L12.0753 -34.1463 L13.5465 -34.1937 L12.8529 -32.8948 L12.1593 -31.596 L11.4657 -30.2972 L10.7721 -28.9984 L10.0784 -27.6996 Z " />
<path stroke="rgb(200,255,200)" stroke-opacity="1" fill="rgb(200,255,200)" fill-opacity="1" id="tri_2_11_" d="M17.3256 -14.8438 L18.0836 -13.5684 L18.8415 -12.293 L19.5995 -11.0176 L20.3575 -9.74217 L21.1155 -8.46676 L19.6339 -8.4484 L18.1523 -8.43004 L16.6707 -8.41168 L15.1891 -8.39332 L13.7075 -8.37496 L14.4311 -9.66873 L15.1547 -10.9625 L15.8784 -12.2563 L16.602 -13.55 L17.3256 -14.8438 Z " />
<path stroke="rgb(200,255,200)" stroke-opacity="1" fill="rgb(200,255,200)" fill-opacity="1" id="tri_1_10_" d="M18.0994 -14.9861 L17.3333 -16.2518 L16.5673 -17.5175 L15.8012 -18.7833 L15.0351 -20.049 L14.2691 -21.3147 L15.7466 -21.3454 L17.2242 -21.3761 L18.7017 -21.4068 L20.1793 -21.4375 L21.6568 -21.4682 L20.9453 -20.1718 L20.2339 -18.8754 L19.5224 -17.5789 L18.8109 -16.2825 L18.0994 -14.9861 Z " />
<path stroke="rgb(200,255,200)" stroke-opacity="1" fill="rgb(200,255,200)" fill-opacity="1" id="tri_3_11_" d="M24.9751 -1.90654 L25.7282 -0.625642 L26.4813 0.655256 L27.2344 1.93615 L27.9875 3.21705 L28.7406 4.49795 L27.2561 4.50989 L25.7716 4.52184 L24.2872 4.53379 L22.8027 4.54574 L21.3183 4.55768 L22.0496 3.26484 L22.781 1.972 L23.5124 0.679151 L24.2437 -0.613693 L24.9751 -1.90654 Z " />
<path stroke="rgb(200,255,200)" stroke-opacity="1" fill="rgb(200,255,200)" fill-opacity="1" id="tri_2_10_" d="M25.8665 -2.07182 L25.1088 -3.34688 L24.3511 -4.62194 L23.5935 -5.897 L22.8358 -7.17206 L22.0781 -8.44711 L23.5597 -8.46548 L25.0413 -8.48384 L26.5229 -8.5022 L28.0045 -8.52056 L29.4861 -8.53892 L28.7622 -7.2455 L28.0383 -5.95208 L27.3143 -4.65866 L26.5904 -3.36524 L25.8665 -2.07182 Z " />
<path stroke="rgb(200,255,200)" stroke-opacity="1" fill="rgb(200,255,200)" fill-opacity="1" id="tri_4_10_" d="M32.5263 11.0917 L33.2762 12.3766 L34.0262 13.6614 L34.7761 14.9462 L35.5261 16.231 L36.276 17.5159 L34.7899 17.5225 L33.3038 17.5291 L31.8178 17.5357 L30.3317 17.5423 L28.8456 17.5489 L29.5817 16.2575 L30.3179 14.966 L31.054 13.6746 L31.7902 12.3832 L32.5263 11.0917 Z " />
<path stroke="rgb(200,255,200)" stroke-opacity="1" fill="rgb(200,255,200)" fill-opacity="1" id="tri_3_10_" d="M33.4733 10.9323 L32.7197 9.65112 L31.9661 8.36993 L31.2125 7.08874 L30.4588 5.80755 L29.7052 4.52636 L31.1897 4.51441 L32.6741 4.50247 L34.1586 4.49052 L35.643 4.47857 L37.1275 4.46662 L36.3967 5.75976 L35.6658 7.0529 L34.935 8.34604 L34.2041 9.63918 L33.4733 10.9323 Z " />
<path stroke="rgb(200,255,200)" stroke-opacity="1" fill="rgb(200,255,200)" fill-opacity="1" id="tri_0_10_" d="M-13.4257 -39.7703 L-12.6479 -38.5184 L-11.8702 -37.2665 L-11.0924 -36.0146 L-10.3147 -34.7627 L-9.53691 -33.5108 L-11.0088 -33.4638 L-12.4807 -33.4168 L-13.9526 -33.3699 L-15.4245 -33.3229 L-16.8964 -33.2759 L-16.2022 -34.5748 L-15.5081 -35.8736 L-14.814 -37.1725 L-14.1198 -38.4714 L-13.4257 -39.7703 Z " />
<path stroke="rgb(200,255,200)" stroke-opacity="1" fill="rgb(200,255,200)" fill-opacity="1" id="tri_1_9_" d="M-5.37037 -27.3669 L-4.60409 -26.1015 L-3.83781 -24.8362 L-3.07153 -23.5708 L-2.30525 -22.3055 L-1.53897 -21.0401 L-3.01646 -21.0096 L-4.49394 -20.979 L-5.97143 -20.9484 L-7.44891 -20.9179 L-8.92639 -20.8873 L-8.21519 -22.1832 L-7.50399 -23.4791 L-6.79278 -24.775 L-6.08158 -26.0709 L-5.37037 -27.3669 Z " />
<path stroke="rgb(200,255,200)" stroke-opacity="1" fill="rgb(200,255,200)" fill-opacity="1" id="tri_0_9_" d="M-4.70436 -27.2506 L-5.48205 -28.5023 L-6.25974 -29.754 L-7.03743 -31.0057 L-7.81512 -32.2574 L-8.59281 -33.5091 L-7.12091 -33.5561 L-5.64902 -33.6031 L-4.17712 -33.65 L-2.70523 -33.697 L-1.23333 -33.744 L-1.92754 -32.4453 L-2.62174 -31.1467 L-3.31595 -29.848 L-4.01016 -28.5493 L-4.70436 -27.2506 Z " />
<path stroke="rgb(200,255,200)" stroke-opacity="1" fill="rgb(200,255,200)" fill-opacity="1" id="tri_2_9_" d="M2.42593 -14.6746 L3.18401 -13.3996 L3.94209 -12.1247 L4.70017 -10.8497 L5.45824 -9.57478 L6.21632 -8.29984 L4.73456 -8.28089 L3.2528 -8.26193 L1.77104 -8.24298 L0.289282 -8.22403 L-1.19248 -8.20508 L-0.468796 -9.49898 L0.254887 -10.7929 L0.97857 -12.0868 L1.70225 -13.3807 L2.42593 -14.6746 Z " />
<path stroke="rgb(200,255,200)" stroke-opacity="1" fill="rgb(200,255,200)" fill-opacity="1" id="tri_1_8_" d="M3.24753 -14.7018 L2.48138 -15.9671 L1.71523 -17.2323 L0.949084 -18.4976 L0.182934 -19.7629 L-0.583217 -21.0282 L0.894267 -21.0587 L2.37175 -21.0893 L3.84924 -21.1199 L5.32672 -21.1504 L6.8042 -21.181 L6.09287 -19.8851 L5.38154 -18.5893 L4.6702 -17.2935 L3.95887 -15.9976 L3.24753 -14.7018 Z " />
<path stroke="rgb(200,255,200)" stroke-opacity="1" fill="rgb(200,255,200)" fill-opacity="1" id="tri_3_9_" d="M10.0467 -1.81079 L10.8003 -0.530135 L11.5539 0.75052 L12.3074 2.03118 L13.061 3.31183 L13.8146 4.59249 L12.33 4.60436 L10.8454 4.61623 L9.36083 4.62811 L7.87625 4.63998 L6.39166 4.65186 L7.12267 3.35933 L7.85368 2.0668 L8.58469 0.774269 L9.3157 -0.51826 L10.0467 -1.81079 Z " />
<path stroke="rgb(200,255,200)" stroke-opacity="1" fill="rgb(200,255,200)" fill-opacity="1" id="tri_2_8_" d="M10.9685 -1.90448 L10.2104 -3.17929 L9.4522 -4.45411 L8.69405 -5.72893 L7.9359 -7.00374 L7.17775 -8.27855 L8.65951 -8.29751 L10.1413 -8.31646 L11.623 -8.33541 L13.1048 -8.35436 L14.5866 -8.37331 L13.8629 -7.07955 L13.1393 -5.78578 L12.4157 -4.49201 L11.6921 -3.19825 L10.9685 -1.90448 Z " />
<path stroke="rgb(200,255,200)" stroke-opacity="1" fill="rgb(200,255,200)" fill-opacity="1" id="tri_4_9_" d="M17.58 11.1394 L18.3295 12.424 L19.0791 13.7086 L19.8287 14.9932 L20.5782 16.2778 L21.3278 17.5624 L19.8419 17.5695 L18.3561 17.5766 L16.8702 17.5837 L15.3844 17.5907 L13.8986 17.5978 L14.6349 16.3061 L15.3711 15.0145 L16.1074 13.7228 L16.8437 12.4311 L17.58 11.1394 Z " />
<path stroke="rgb(200,255,200)" stroke-opacity="1" fill="rgb(200,255,200)" fill-opacity="1" id="tri_3_8_" d="M18.543 11.0255 L17.7898 9.74453 L17.0365 8.46356 L16.2833 7.18259 L15.5301 5.90162 L14.7769 4.62065 L16.2614 4.60878 L17.746 4.5969 L19.2306 4.58503 L20.7152 4.57315 L22.1998 4.56128 L21.4684 5.85412 L20.7371 7.14697 L20.0057 8.43981 L19.2744 9.73266 L18.543 11.0255 Z " />
<path stroke="rgb(200,255,200)" stroke-opacity="1" fill="rgb(200,255,200)" fill-opacity="1" id="tri_5_8_" d="M25.0727 24.1109 L25.8207 25.3967 L26.5688 26.6825 L27.3168 27.9683 L28.0649 29.2542 L28.8129 30.54 L27.3268 30.5446 L25.8407 30.5493 L24.3545 30.554 L22.8684 30.5586 L21.3822 30.5633 L22.1203 29.2728 L22.8584 27.9823 L23.5965 26.6918 L24.3346 25.4014 L25.0727 24.1109 Z " />
<path stroke="rgb(200,255,200)" stroke-opacity="1" fill="rgb(200,255,200)" fill-opacity="1" id="tri_4_8_" d="M26.0445 24.0171 L25.2948 22.7328 L24.5451 21.4484 L23.7953 20.1641 L23.0456 18.8798 L22.2959 17.5954 L23.7818 17.5883 L25.2676 17.5812 L26.7535 17.5742 L28.2393 17.5671 L29.7251 17.56 L28.989 18.8514 L28.2529 20.1428 L27.5167 21.4343 L26.7806 22.7257 L26.0445 24.0171 Z " />
<path stroke="rgb(200,255,200)" stroke-opacity="1" fill="rgb(200,255,200)" fill-opacity="1" id="tri_0_8_" d="M-28.2113 -39.3243 L-27.4338 -38.0722 L-26.6563 -36.8201 L-25.8788 -35.5681 L-25.1014 -34.316 L-24.3239 -33.0639 L-25.7952 -33.0168 L-27.2665 -32.9696 L-28.7378 -32.9225 L-30.2091 -32.8754 L-31.6804 -32.8282 L-30.9866 -34.1275 L-30.2927 -35.4267 L-29.5989 -36.7259 L-28.9051 -38.0251 L-28.2113 -39.3243 Z " />
<path stroke="rgb(200,255,200)" stroke-opacity="1" fill="rgb(200,255,200)" fill-opacity="1" id="tri_1_7_" d="M-20.2211 -27.0823 L-19.4554 -25.8169 L-18.6896 -24.5515 L-17.9239 -23.2862 L-17.1581 -22.0208 L-16.3924 -20.7554 L-17.8695 -20.7251 L-19.3467 -20.6949 L-20.8238 -20.6646 L-22.3009 -20.6344 L-23.7781 -20.6041 L-23.0667 -21.8998 L-22.3553 -23.1954 L-21.6439 -24.491 L-20.9325 -25.7867 L-20.2211 -27.0823 Z " />
<path stroke="rgb(200,255,200)" stroke-opacity="1" fill="rgb(200,255,200)" fill-opacity="1" id="tri_0_7_" d="M-19.4898 -26.8021 L-20.2669 -28.0538 L-21.0441 -29.3055 L-21.8212 -30.5573 L-22.5984 -31.809 L-23.3755 -33.0608 L-21.9042 -33.1079 L-20.4329 -33.155 L-18.9616 -33.2022 L-17.4903 -33.2493 L-16.019 -33.2964 L-16.7132 -31.9975 L-17.4073 -30.6987 L-18.1015 -29.3998 L-18.7956 -28.1009 L-19.4898 -26.8021 Z " />
<path stroke="rgb(200,255,200)" stroke-opacity="1" fill="rgb(200,255,200)" fill-opacity="1" id="tri_2_7_" d="M-12.4739 -14.508 L-11.716 -13.2327 L-10.9582 -11.9573 L-10.2003 -10.682 L-9.44244 -9.40666 L-8.68458 -8.13133 L-10.1663 -8.11271 L-11.6481 -8.09409 L-13.1298 -8.07547 L-14.6116 -8.05685 L-16.0933 -8.03822 L-15.3694 -9.33218 L-14.6455 -10.6261 L-13.9216 -11.9201 L-13.1978 -13.214 L-12.4739 -14.508 Z " />
<path stroke="rgb(200,255,200)" stroke-opacity="1" fill="rgb(200,255,200)" fill-opacity="1" id="tri_1_6_" d="M-11.6048 -14.4154 L-12.3708 -15.681 L-13.1367 -16.9467 L-13.9026 -18.2123 L-14.6686 -19.478 L-15.4345 -20.7437 L-13.9574 -20.7739 L-12.4802 -20.8042 L-11.0031 -20.8344 L-9.52596 -20.8647 L-8.04882 -20.8949 L-8.76003 -19.599 L-9.47123 -18.3031 L-10.1824 -17.0072 L-10.8936 -15.7113 L-11.6048 -14.4154 Z " />
<path stroke="rgb(200,255,200)" stroke-opacity="1" fill="rgb(200,255,200)" fill-opacity="1" id="tri_3_7_" d="M-4.88212 -1.71545 L-4.12863 -0.434333 L-3.37515 0.846785 L-2.62167 2.1279 L-1.86818 3.40902 L-1.1147 4.69014 L-2.59926 4.70168 L-4.08383 4.71322 L-5.5684 4.72476 L-7.05296 4.7363 L-8.53753 4.74784 L-7.80645 3.45519 L-7.07537 2.16253 L-6.34428 0.869867 L-5.6132 -0.422792 L-4.88212 -1.71545 Z " />
<path stroke="rgb(200,255,200)" stroke-opacity="1" fill="rgb(200,255,200)" fill-opacity="1" id="tri_2_6_" d="M-3.93108 -1.73436 L-4.68914 -3.00964 L-5.4472 -4.28491 L-6.20526 -5.56019 L-6.96332 -6.83547 L-7.72138 -8.11074 L-6.23964 -8.12936 L-4.75789 -8.14798 L-3.27615 -8.1666 L-1.79441 -8.18522 L-0.312663 -8.20384 L-1.03634 -6.90995 L-1.76003 -5.61605 L-2.48371 -4.32215 L-3.20739 -3.02826 L-3.93108 -1.73436 Z " />
<path stroke="rgb(200,255,200)" stroke-opacity="1" fill="rgb(200,255,200)" fill-opacity="1" id="tri_4_7_" d="M2.63187 11.1866 L3.38175 12.4712 L4.13164 13.7558 L4.88152 15.0404 L5.63141 16.3251 L6.38129 17.6097 L4.89546 17.6168 L3.40962 17.6238 L1.92378 17.6309 L0.437945 17.638 L-1.04789 17.6451 L-0.31194 16.3534 L0.424012 15.0617 L1.15996 13.77 L1.89592 12.4783 L2.63187 11.1866 Z " />
<path stroke="rgb(200,255,200)" stroke-opacity="1" fill="rgb(200,255,200)" fill-opacity="1" id="tri_3_6_" d="M3.61594 11.1207 L2.86239 9.83975 L2.10883 8.55876 L1.35527 7.27777 L0.601712 5.99678 L-0.151845 4.71579 L1.33272 4.70425 L2.81729 4.69271 L4.30185 4.68117 L5.78642 4.66963 L7.27099 4.65809 L6.53998 5.95062 L5.80897 7.24315 L5.07796 8.53568 L4.34695 9.82821 L3.61594 11.1207 Z " />
<path stroke="rgb(200,255,200)" stroke-opacity="1" fill="rgb(200,255,200)" fill-opacity="1" id="tri_5_7_" d="M10.1182 24.1377 L10.8661 25.4238 L11.614 26.7099 L12.3619 27.996 L13.1098 29.2821 L13.8577 30.5681 L12.3711 30.5724 L10.8845 30.5766 L9.39796 30.5808 L7.91138 30.5851 L6.4248 30.5893 L7.16348 29.299 L7.90216 28.0087 L8.64084 26.7184 L9.37953 25.4281 L10.1182 24.1377 Z " />
<path stroke="rgb(200,255,200)" stroke-opacity="1" fill="rgb(200,255,200)" fill-opacity="1" id="tri_4_6_" d="M11.0982 24.0651 L10.3486 22.7805 L9.59905 21.4959 L8.8495 20.2113 L8.09995 18.9267 L7.3504 17.6421 L8.83624 17.635 L10.3221 17.6279 L11.8079 17.6208 L13.2937 17.6137 L14.7796 17.6067 L14.0433 18.8984 L13.307 20.19 L12.5707 21.4817 L11.8344 22.7734 L11.0982 24.0651 Z " />
<path stroke="rgb(200,255,200)" stroke-opacity="1" fill="rgb(200,255,200)" fill-opacity="1" id="tri_6_6_" d="M17.6042 37.0844 L18.3524 38.3707 L19.1005 39.6571 L19.8487 40.9434 L20.5968 42.2298 L21.345 43.5161 L19.8588 43.5207 L18.3726 43.5253 L16.8864 43.5299 L15.4002 43.5344 L13.914 43.539 L14.652 42.2481 L15.3901 40.9572 L16.1281 39.6662 L16.8662 38.3753 L17.6042 37.0844 Z " />
<path stroke="rgb(200,255,200)" stroke-opacity="1" fill="rgb(200,255,200)" fill-opacity="1" id="tri_5_6_" d="M18.5686 37.0309 L17.8201 35.7446 L17.0716 34.4584 L16.3231 33.1721 L15.5746 31.8859 L14.8261 30.5996 L16.3127 30.5954 L17.7993 30.5912 L19.2859 30.5869 L20.7725 30.5827 L22.259 30.5785 L21.521 31.8689 L20.7829 33.1594 L20.0448 34.4499 L19.3067 35.7404 L18.5686 37.0309 Z " />
<path stroke="rgb(200,255,200)" stroke-opacity="1" fill="rgb(200,255,200)" fill-opacity="1" id="tri_0_6_" d="M-42.9969 -38.8745 L-42.2192 -37.6228 L-41.4415 -36.3711 L-40.6638 -35.1194 L-39.8861 -33.8677 L-39.1084 -32.616 L-40.5801 -32.5684 L-42.0519 -32.5208 L-43.5236 -32.4733 L-44.9953 -32.4257 L-46.467 -32.3781 L-45.773 -33.6774 L-45.079 -34.9767 L-44.3849 -36.2759 L-43.6909 -37.5752 L-42.9969 -38.8745 Z " />
<path stroke="rgb(200,255,200)" stroke-opacity="1" fill="rgb(200,255,200)" fill-opacity="1" id="tri_1_5_" d="M-35.0748 -26.7956 L-34.3083 -25.5303 L-33.5418 -24.265 L-32.7754 -22.9997 L-32.0089 -21.7344 L-31.2424 -20.4691 L-32.72 -20.439 L-34.1976 -20.4088 L-35.6752 -20.3786 L-37.1528 -20.3485 L-38.6304 -20.3183 L-37.9193 -21.6138 L-37.2082 -22.9092 L-36.497 -24.2047 L-35.7859 -25.5001 L-35.0748 -26.7956 Z " />
<path stroke="rgb(200,255,200)" stroke-opacity="1" fill="rgb(200,255,200)" fill-opacity="1" id="tri_0_5_" d="M-34.2729 -26.3542 L-35.0508 -27.6058 L-35.8286 -28.8575 L-36.6065 -30.1091 L-37.3844 -31.3607 L-38.1623 -32.6124 L-36.6906 -32.6599 L-35.2189 -32.7075 L-33.7472 -32.7551 L-32.2755 -32.8027 L-30.8037 -32.8503 L-31.4976 -31.551 L-32.1914 -30.2518 L-32.8852 -28.9526 L-33.579 -27.6534 L-34.2729 -26.3542 Z " />
<path stroke="rgb(200,255,200)" stroke-opacity="1" fill="rgb(200,255,200)" fill-opacity="1" id="tri_2_5_" d="M-27.3744 -14.3414 L-26.6162 -13.0662 L-25.8581 -11.7911 L-25.1 -10.5159 L-24.3418 -9.2408 L-23.5837 -7.96565 L-25.0652 -7.94656 L-26.5467 -7.92746 L-28.0282 -7.90836 L-29.5097 -7.88927 L-30.9912 -7.87017 L-30.2678 -9.16441 L-29.5445 -10.4587 L-28.8211 -11.7529 L-28.0977 -13.0471 L-27.3744 -14.3414 Z " />
<path stroke="rgb(200,255,200)" stroke-opacity="1" fill="rgb(200,255,200)" fill-opacity="1" id="tri_1_4_" d="M-26.457 -14.1323 L-27.2232 -15.3977 L-27.9894 -16.6632 L-28.7556 -17.9287 L-29.5219 -19.1942 L-30.2881 -20.4596 L-28.8105 -20.4898 L-27.3329 -20.52 L-25.8553 -20.5501 L-24.3777 -20.5803 L-22.9001 -20.6105 L-23.6114 -19.3148 L-24.3228 -18.0192 L-25.0342 -16.7235 L-25.7456 -15.4279 L-26.457 -14.1323 Z " />
<path stroke="rgb(200,255,200)" stroke-opacity="1" fill="rgb(200,255,200)" fill-opacity="1" id="tri_3_5_" d="M-19.8079 -1.61928 L-19.0548 -0.338585 L-18.3018 0.942108 L-17.5488 2.2228 L-16.7957 3.5035 L-16.0427 4.78419 L-17.5275 4.79612 L-19.0123 4.80805 L-20.497 4.81998 L-21.9818 4.83191 L-23.4666 4.84384 L-22.7349 3.55121 L-22.0031 2.25859 L-21.2714 0.965967 L-20.5396 -0.326656 L-19.8079 -1.61928 Z " />
<path stroke="rgb(200,255,200)" stroke-opacity="1" fill="rgb(200,255,200)" fill-opacity="1" id="tri_2_4_" d="M-18.8316 -1.56865 L-19.5892 -2.84351 L-20.3468 -4.11836 L-21.1045 -5.39322 L-21.8621 -6.66807 L-22.6197 -7.94293 L-21.1382 -7.96202 L-19.6567 -7.98112 L-18.1752 -8.00022 L-16.6937 -8.01932 L-15.2122 -8.03841 L-15.9361 -6.74446 L-16.66 -5.45051 L-17.3838 -4.15656 L-18.1077 -2.8626 L-18.8316 -1.56865 Z " />
<path stroke="rgb(200,255,200)" stroke-opacity="1" fill="rgb(200,255,200)" fill-opacity="1" id="tri_4_5_" d="M-12.3168 11.2375 L-11.5668 12.5218 L-10.8168 13.8062 L-10.0667 15.0906 L-9.31669 16.3749 L-8.56666 17.6593 L-10.0525 17.6662 L-11.5384 17.6731 L-13.0243 17.6799 L-14.5102 17.6868 L-15.9961 17.6937 L-15.2603 16.4025 L-14.5244 15.1112 L-13.7885 13.82 L-13.0527 12.5287 L-12.3168 11.2375 Z " />
<path stroke="rgb(200,255,200)" stroke-opacity="1" fill="rgb(200,255,200)" fill-opacity="1" id="tri_3_4_" d="M-11.3134 11.2171 L-12.0671 9.93639 L-12.8208 8.65566 L-13.5745 7.37493 L-14.3282 6.0942 L-15.0819 4.81347 L-13.5971 4.80154 L-12.1123 4.78961 L-10.6275 4.77768 L-9.14276 4.76575 L-7.65797 4.75382 L-8.38905 6.04648 L-9.12014 7.33914 L-9.85122 8.6318 L-10.5823 9.92446 L-11.3134 11.2171 Z " />
<path stroke="rgb(200,255,200)" stroke-opacity="1" fill="rgb(200,255,200)" fill-opacity="1" id="tri_5_5_" d="M-4.83849 24.1631 L-4.0902 25.4494 L-3.34192 26.7357 L-2.59363 28.022 L-1.84534 29.3083 L-1.09705 30.5946 L-2.58378 30.5991 L-4.07051 30.6036 L-5.55724 30.6081 L-7.04397 30.6126 L-8.5307 30.6171 L-7.79226 29.3263 L-7.05382 28.0355 L-6.31538 26.7447 L-5.57694 25.4539 L-4.83849 24.1631 Z " />
<path stroke="rgb(200,255,200)" stroke-opacity="1" fill="rgb(200,255,200)" fill-opacity="1" id="tri_4_4_" d="M-3.8489 24.1132 L-4.59884 22.8284 L-5.34878 21.5436 L-6.09872 20.2588 L-6.84866 18.9739 L-7.5986 17.6891 L-6.11271 17.6822 L-4.62682 17.6753 L-3.14093 17.6685 L-1.65503 17.6616 L-0.169141 17.6547 L-0.905094 18.9464 L-1.64105 20.2381 L-2.377 21.5298 L-3.11295 22.8215 L-3.8489 24.1132 Z " />
<path stroke="rgb(200,255,200)" stroke-opacity="1" fill="rgb(200,255,200)" fill-opacity="1" id="tri_6_5_" d="M2.64751 37.1089 L3.39523 38.3948 L4.14294 39.6807 L4.89066 40.9666 L5.63838 42.2525 L6.38609 43.5385 L4.90007 43.5433 L3.41404 43.5482 L1.92802 43.553 L0.441989 43.5579 L-1.04404 43.5628 L-0.305727 42.272 L0.432583 40.9812 L1.17089 39.6904 L1.9092 38.3996 L2.64751 37.1089 Z " />
<path stroke="rgb(200,255,200)" stroke-opacity="1" fill="rgb(200,255,200)" fill-opacity="1" id="tri_5_4_" d="M3.61105 37.0572 L2.863 35.7714 L2.11495 34.4856 L1.36691 33.1997 L0.618857 31.9139 L-0.129192 30.6281 L1.35754 30.6236 L2.84427 30.6191 L4.331 30.6146 L5.81773 30.6101 L7.30446 30.6056 L6.56578 31.896 L5.8271 33.1863 L5.08841 34.4766 L4.34973 35.7669 L3.61105 37.0572 Z " />
<path stroke="rgb(200,255,200)" stroke-opacity="1" fill="rgb(200,255,200)" fill-opacity="1" id="tri_7_4_" d="M10.1399 50.0544 L10.8874 51.3403 L11.6349 52.6262 L12.3824 53.9121 L13.1299 55.198 L13.8774 56.4839 L12.3916 56.4874 L10.9059 56.491 L9.42009 56.4946 L7.93431 56.4982 L6.44853 56.5018 L7.18681 55.2123 L7.92509 53.9228 L8.66337 52.6334 L9.40165 51.3439 L10.1399 50.0544 Z " />
<path stroke="rgb(200,255,200)" stroke-opacity="1" fill="rgb(200,255,200)" fill-opacity="1" id="tri_6_4_" d="M11.0992 50.0056 L10.3512 48.7195 L9.60321 47.4335 L8.85524 46.1474 L8.10726 44.8613 L7.35929 43.5753 L8.84531 43.5704 L10.3313 43.5655 L11.8174 43.5607 L13.3034 43.5558 L14.7894 43.551 L14.0514 44.8419 L13.3133 46.1328 L12.5753 47.4237 L11.8372 48.7147 L11.0992 50.0056 Z " />
<path stroke="rgb(200,255,200)" stroke-opacity="1" fill="rgb(200,255,200)" fill-opacity="1" id="tri_0_4_" d="M-57.7824 -38.4276 L-57.0049 -37.1757 L-56.2273 -35.9237 L-55.4498 -34.6718 L-54.6722 -33.4198 L-53.8947 -32.1679 L-55.3659 -32.1205 L-56.8372 -32.0732 L-58.3084 -32.0259 L-59.7796 -31.9786 L-61.2509 -31.9312 L-60.5572 -33.2305 L-59.8635 -34.5298 L-59.1698 -35.8291 L-58.4761 -37.1284 L-57.7824 -38.4276 Z " />
<path stroke="rgb(200,255,200)" stroke-opacity="1" fill="rgb(200,255,200)" fill-opacity="1" id="tri_1_3_" d="M-49.9254 -26.5113 L-49.1596 -25.2457 L-48.3938 -23.9801 L-47.628 -22.7145 L-46.8622 -21.4489 L-46.0964 -20.1833 L-47.5735 -20.1532 L-49.0505 -20.1231 L-50.5276 -20.093 L-52.0047 -20.0628 L-53.4817 -20.0327 L-52.7705 -21.3284 L-52.0592 -22.6241 L-51.3479 -23.9198 L-50.6367 -25.2156 L-49.9254 -26.5113 Z " />
<path stroke="rgb(200,255,200)" stroke-opacity="1" fill="rgb(200,255,200)" fill-opacity="1" id="tri_0_3_" d="M-49.0591 -25.9047 L-49.8363 -27.1566 L-50.6135 -28.4085 L-51.3907 -29.6605 L-52.1679 -30.9124 L-52.9452 -32.1644 L-51.4739 -32.2117 L-50.0027 -32.259 L-48.5314 -32.3064 L-47.0602 -32.3537 L-45.5889 -32.401 L-46.283 -31.1017 L-46.977 -29.8025 L-47.671 -28.5032 L-48.365 -27.2039 L-49.0591 -25.9047 Z " />
<path stroke="rgb(200,255,200)" stroke-opacity="1" fill="rgb(200,255,200)" fill-opacity="1" id="tri_2_3_" d="M-42.2738 -14.1721 L-41.5159 -12.8971 L-40.758 -11.6221 L-40.0001 -10.3471 L-39.2423 -9.07205 L-38.4844 -7.79705 L-39.9661 -7.7781 L-41.4479 -7.75914 L-42.9297 -7.74019 L-44.4114 -7.72124 L-45.8932 -7.70229 L-45.1693 -8.99624 L-44.4454 -10.2902 L-43.7215 -11.5842 L-42.9976 -12.8781 L-42.2738 -14.1721 Z " />
<path stroke="rgb(200,255,200)" stroke-opacity="1" fill="rgb(200,255,200)" fill-opacity="1" id="tri_1_2_" d="M-41.3093 -13.8461 L-42.0752 -15.1114 L-42.8412 -16.3767 L-43.6071 -17.6421 L-44.3731 -18.9074 L-45.139 -20.1727 L-43.662 -20.2028 L-42.1849 -20.233 L-40.7078 -20.2631 L-39.2308 -20.2932 L-37.7537 -20.3233 L-38.4648 -19.0279 L-39.1759 -17.7324 L-39.8871 -16.437 L-40.5982 -15.1415 L-41.3093 -13.8461 Z " />
<path stroke="rgb(200,255,200)" stroke-opacity="1" fill="rgb(200,255,200)" fill-opacity="1" id="tri_3_3_" d="M-34.7392 -1.5248 L-33.9854 -0.243669 L-33.2316 1.03747 L-32.4778 2.3186 L-31.724 3.59974 L-30.9702 4.88087 L-32.4553 4.89225 L-33.9405 4.90362 L-35.4256 4.915 L-36.9108 4.92638 L-38.3959 4.93775 L-37.6646 3.64524 L-36.9333 2.35273 L-36.2019 1.06022 L-35.4706 -0.232292 L-34.7392 -1.5248 Z " />
<path stroke="rgb(200,255,200)" stroke-opacity="1" fill="rgb(200,255,200)" fill-opacity="1" id="tri_2_2_" d="M-33.7293 -1.39942 L-34.4876 -2.67471 L-35.246 -3.95001 L-36.0044 -5.2253 L-36.7628 -6.50059 L-37.5212 -7.77588 L-36.0395 -7.79484 L-34.5577 -7.81379 L-33.0759 -7.83274 L-31.5942 -7.85169 L-30.1124 -7.87064 L-30.8358 -6.5764 L-31.5591 -5.28216 L-32.2825 -3.98791 L-33.0059 -2.69367 L-33.7293 -1.39942 Z " />
<path stroke="rgb(200,255,200)" stroke-opacity="1" fill="rgb(200,255,200)" fill-opacity="1" id="tri_4_3_" d="M-27.2635 11.2842 L-26.5138 12.5691 L-25.764 13.854 L-25.0143 15.1389 L-24.2646 16.4238 L-23.5148 17.7086 L-25.0002 17.7156 L-26.4857 17.7226 L-27.9711 17.7296 L-29.4565 17.7365 L-30.942 17.7435 L-30.2063 16.4517 L-29.4706 15.1598 L-28.7349 13.8679 L-27.9992 12.5761 L-27.2635 11.2842 Z " />
<path stroke="rgb(200,255,200)" stroke-opacity="1" fill="rgb(200,255,200)" fill-opacity="1" id="tri_3_2_" d="M-26.2428 11.3133 L-26.9963 10.032 L-27.7497 8.75077 L-28.5031 7.46953 L-29.2565 6.18828 L-30.0099 4.90703 L-28.5247 4.89566 L-27.0396 4.88428 L-25.5544 4.8729 L-24.0693 4.86153 L-22.5841 4.85015 L-23.3159 6.14277 L-24.0476 7.4354 L-24.7794 8.72802 L-25.5111 10.0206 L-26.2428 11.3133 Z " />
<path stroke="rgb(200,255,200)" stroke-opacity="1" fill="rgb(200,255,200)" fill-opacity="1" id="tri_5_3_" d="M-19.7932 24.1906 L-19.0453 25.4763 L-18.2974 26.7621 L-17.5494 28.0478 L-16.8015 29.3335 L-16.0536 30.6193 L-17.5399 30.6239 L-19.0261 30.6285 L-20.5124 30.633 L-21.9987 30.6376 L-23.4849 30.6422 L-22.7466 29.3519 L-22.0082 28.0616 L-21.2699 26.7712 L-20.5315 25.4809 L-19.7932 24.1906 Z " />
<path stroke="rgb(200,255,200)" stroke-opacity="1" fill="rgb(200,255,200)" fill-opacity="1" id="tri_4_2_" d="M-18.7964 24.1609 L-19.546 22.8767 L-20.2956 21.5924 L-21.0451 20.3081 L-21.7947 19.0239 L-22.5443 17.7396 L-21.0588 17.7326 L-19.5734 17.7256 L-18.088 17.7187 L-16.6026 17.7117 L-15.1171 17.7047 L-15.853 18.996 L-16.5888 20.2872 L-17.3247 21.5785 L-18.0606 22.8697 L-18.7964 24.1609 Z " />
<path stroke="rgb(200,255,200)" stroke-opacity="1" fill="rgb(200,255,200)" fill-opacity="1" id="tri_6_3_" d="M-12.309 37.1285 L-11.5615 38.4148 L-10.814 39.7011 L-10.0665 40.9874 L-9.31904 42.2737 L-8.57155 43.56 L-10.0575 43.5644 L-11.5434 43.5688 L-13.0293 43.5732 L-14.5153 43.5776 L-16.0012 43.582 L-15.2628 42.2913 L-14.5243 41.0006 L-13.7859 39.7099 L-13.0475 38.4192 L-12.309 37.1285 Z " />
<path stroke="rgb(200,255,200)" stroke-opacity="1" fill="rgb(200,255,200)" fill-opacity="1" id="tri_5_2_" d="M-11.3445 37.0847 L-12.0924 35.7985 L-12.8402 34.5123 L-13.588 33.2261 L-14.3358 31.9398 L-15.0837 30.6536 L-13.5974 30.6491 L-12.1111 30.6445 L-10.6249 30.6399 L-9.1386 30.6353 L-7.65233 30.6307 L-8.39077 31.9215 L-9.12921 33.2123 L-9.86766 34.5031 L-10.6061 35.7939 L-11.3445 37.0847 Z " />
<path stroke="rgb(200,255,200)" stroke-opacity="1" fill="rgb(200,255,200)" fill-opacity="1" id="tri_7_3_" d="M-4.8177 50.073 L-4.07056 51.3592 L-3.32341 52.6454 L-2.57627 53.9316 L-1.82912 55.2178 L-1.08197 56.504 L-2.56742 56.5076 L-4.05287 56.5112 L-5.53832 56.5149 L-7.02376 56.5185 L-8.50921 56.5221 L-7.77091 55.2323 L-7.03261 53.9424 L-6.29431 52.6526 L-5.556 51.3628 L-4.8177 50.073 Z " />
<path stroke="rgb(200,255,200)" stroke-opacity="1" fill="rgb(200,255,200)" fill-opacity="1" id="tri_6_2_" d="M-3.859 50.028 L-4.60662 48.7416 L-5.35424 47.4552 L-6.10187 46.1689 L-6.84949 44.8825 L-7.59711 43.5961 L-6.11118 43.5917 L-4.62525 43.5873 L-3.13931 43.5829 L-1.65338 43.5785 L-0.167451 43.5741 L-0.905761 44.8649 L-1.64407 46.1557 L-2.38238 47.4465 L-3.12069 48.7372 L-3.859 50.028 Z " />
<path stroke="rgb(200,255,200)" stroke-opacity="1" fill="rgb(200,255,200)" fill-opacity="1" id="tri_8_2_" d="M2.68993 63.0086 L3.43754 64.2938 L4.18515 65.5791 L4.93276 66.8644 L5.68036 68.1497 L6.42797 69.435 L4.94231 69.4399 L3.45665 69.4447 L1.971 69.4496 L0.485336 69.4544 L-1.00032 69.4593 L-0.262273 68.1691 L0.475779 66.879 L1.21383 65.5889 L1.95188 64.2987 L2.68993 63.0086 Z " />
<path stroke="rgb(200,255,200)" stroke-opacity="1" fill="rgb(200,255,200)" fill-opacity="1" id="tri_7_2_" d="M3.62923 62.9673 L2.88206 61.6814 L2.13489 60.3955 L1.38773 59.1096 L0.640561 57.8238 L-0.106605 56.5379 L1.37884 56.5343 L2.86429 56.5307 L4.34974 56.5271 L5.83518 56.5235 L7.32063 56.5198 L6.58235 57.8093 L5.84407 59.0988 L5.10579 60.3883 L4.36751 61.6778 L3.62923 62.9673 Z " />
<path stroke="rgb(200,255,200)" stroke-opacity="1" fill="rgb(200,255,200)" fill-opacity="1" id="tri_0_2_" d="M-72.5661 -37.9783 L-71.7886 -36.7267 L-71.0112 -35.4752 L-70.2338 -34.2236 L-69.4564 -32.9721 L-68.6789 -31.7205 L-70.1503 -31.6729 L-71.6217 -31.6254 L-73.0931 -31.5778 L-74.5645 -31.5302 L-76.0359 -31.4826 L-75.3419 -32.7817 L-74.6479 -34.0809 L-73.954 -35.38 L-73.26 -36.6792 L-72.5661 -37.9783 Z " />
<path stroke="rgb(200,255,200)" stroke-opacity="1" fill="rgb(200,255,200)" fill-opacity="1" id="tri_1_1_" d="M-64.7774 -26.2254 L-64.0111 -24.9601 L-63.2448 -23.6947 L-62.4786 -22.4294 L-61.7123 -21.164 L-60.946 -19.8987 L-62.4234 -19.8679 L-63.9009 -19.8372 L-65.3783 -19.8064 L-66.8557 -19.7756 L-68.3331 -19.7449 L-67.622 -21.041 L-66.9108 -22.3371 L-66.1997 -23.6332 L-65.4885 -24.9293 L-64.7774 -26.2254 Z " />
<path stroke="rgb(200,255,200)" stroke-opacity="1" fill="rgb(200,255,200)" fill-opacity="1" id="tri_0_1_" d="M-63.8429 -25.458 L-64.6206 -26.7096 L-65.3983 -27.9613 L-66.176 -29.213 L-66.9537 -30.4647 L-67.7314 -31.7164 L-66.26 -31.764 L-64.7886 -31.8116 L-63.3172 -31.8592 L-61.8459 -31.9068 L-60.3745 -31.9544 L-61.0682 -30.6551 L-61.7619 -29.3558 L-62.4556 -28.0565 L-63.1492 -26.7572 L-63.8429 -25.458 Z " />
<path stroke="rgb(200,255,200)" stroke-opacity="1" fill="rgb(200,255,200)" fill-opacity="1" id="tri_2_1_" d="M-57.1717 -14.0007 L-56.4136 -12.7261 L-55.6555 -11.4515 L-54.8974 -10.1769 L-54.1393 -8.90226 L-53.3812 -7.62764 L-54.8635 -7.60865 L-56.3458 -7.58966 L-57.8281 -7.57066 L-59.3104 -7.55167 L-60.7927 -7.53268 L-60.0685 -8.82628 L-59.3443 -10.1199 L-58.6201 -11.4135 L-57.8959 -12.7071 L-57.1717 -14.0007 Z " />
<path stroke="rgb(200,255,200)" stroke-opacity="1" fill="rgb(200,255,200)" fill-opacity="1" id="tri_1" d="M-56.1596 -13.5612 L-56.9257 -14.8262 L-57.6919 -16.0911 L-58.458 -17.3561 L-59.2242 -18.621 L-59.9904 -19.8859 L-58.513 -19.9167 L-57.0355 -19.9475 L-55.5581 -19.9783 L-54.0807 -20.009 L-52.6032 -20.0398 L-53.3145 -18.7441 L-54.0258 -17.4484 L-54.737 -16.1527 L-55.4483 -14.857 L-56.1596 -13.5612 Z " />
<path stroke="rgb(200,255,200)" stroke-opacity="1" fill="rgb(200,255,200)" fill-opacity="1" id="tri_3_1_" d="M-49.6693 -1.42659 L-48.9155 -0.145791 L-48.1617 1.13501 L-47.4078 2.41582 L-46.654 3.69662 L-45.9002 4.97742 L-47.3849 4.98922 L-48.8696 5.00102 L-50.3543 5.01282 L-51.839 5.02462 L-53.3237 5.03642 L-52.5929 3.74382 L-51.862 2.45121 L-51.1311 1.15861 L-50.4002 -0.13399 L-49.6693 -1.42659 Z " />
<path stroke="rgb(200,255,200)" stroke-opacity="1" fill="rgb(200,255,200)" fill-opacity="1" id="tri_2" d="M-48.6309 -1.23051 L-49.3893 -2.50547 L-50.1477 -3.78043 L-50.9061 -5.05539 L-51.6645 -6.33036 L-52.4229 -7.60532 L-50.9406 -7.62431 L-49.4584 -7.6433 L-47.9761 -7.66229 L-46.4938 -7.68129 L-45.0115 -7.70028 L-45.7354 -6.40633 L-46.4592 -5.11237 L-47.1831 -3.81842 L-47.907 -2.52446 L-48.6309 -1.23051 Z " />
<path stroke="rgb(200,255,200)" stroke-opacity="1" fill="rgb(200,255,200)" fill-opacity="1" id="tri_4_1_" d="M-42.211 11.3334 L-41.4613 12.6177 L-40.7116 13.9021 L-39.9619 15.1864 L-39.2122 16.4708 L-38.4625 17.7551 L-39.948 17.7622 L-41.4335 17.7693 L-42.919 17.7764 L-44.4045 17.7835 L-45.89 17.7906 L-45.1542 16.4992 L-44.4184 15.2077 L-43.6826 13.9163 L-42.9468 12.6248 L-42.211 11.3334 Z " />
<path stroke="rgb(200,255,200)" stroke-opacity="1" fill="rgb(200,255,200)" fill-opacity="1" id="tri_3" d="M-41.1723 11.4079 L-41.9256 10.1272 L-42.679 8.84644 L-43.4324 7.56573 L-44.1858 6.28502 L-44.9391 5.00431 L-43.4544 4.99251 L-41.9697 4.98071 L-40.485 4.96891 L-39.0003 4.95711 L-37.5156 4.94531 L-38.2469 6.23782 L-38.9782 7.53033 L-39.7096 8.82285 L-40.4409 10.1154 L-41.1723 11.4079 Z " />
<path stroke="rgb(200,255,200)" stroke-opacity="1" fill="rgb(200,255,200)" fill-opacity="1" id="tri_5_1_" d="M-34.7483 24.2163 L-34.0001 25.5026 L-33.252 26.7888 L-32.5038 28.075 L-31.7557 29.3612 L-31.0075 30.6475 L-32.494 30.6519 L-33.9806 30.6563 L-35.4671 30.6608 L-36.9536 30.6652 L-38.4401 30.6696 L-37.7018 29.379 L-36.9634 28.0883 L-36.225 26.7977 L-35.4867 25.507 L-34.7483 24.2163 Z " />
<path stroke="rgb(200,255,200)" stroke-opacity="1" fill="rgb(200,255,200)" fill-opacity="1" id="tri_4" d="M-33.743 24.2101 L-34.4928 22.9253 L-35.2426 21.6406 L-35.9924 20.3558 L-36.7422 19.071 L-37.492 17.7863 L-36.0065 17.7792 L-34.521 17.7721 L-33.0355 17.765 L-31.55 17.7579 L-30.0645 17.7508 L-30.8002 19.0426 L-31.5359 20.3345 L-32.2716 21.6263 L-33.0073 22.9182 L-33.743 24.2101 Z " />
<path stroke="rgb(200,255,200)" stroke-opacity="1" fill="rgb(200,255,200)" fill-opacity="1" id="tri_6_1_" d="M-27.2659 37.1511 L-26.5181 38.4371 L-25.7703 39.7231 L-25.0224 41.009 L-24.2746 42.295 L-23.5267 43.581 L-25.0131 43.5859 L-26.4994 43.5907 L-27.9858 43.5956 L-29.4721 43.6004 L-30.9585 43.6052 L-30.22 42.3144 L-29.4815 41.0236 L-28.743 39.7327 L-28.0045 38.4419 L-27.2659 37.1511 Z " />
<path stroke="rgb(200,255,200)" stroke-opacity="1" fill="rgb(200,255,200)" fill-opacity="1" id="tri_5" d="M-26.2979 37.1094 L-27.0461 35.8235 L-27.7943 34.5377 L-28.5425 33.2518 L-29.2906 31.9659 L-30.0388 30.68 L-28.5523 30.6755 L-27.0658 30.6711 L-25.5792 30.6667 L-24.0927 30.6622 L-22.6062 30.6578 L-23.3445 31.9481 L-24.0829 33.2385 L-24.8212 34.5288 L-25.5596 35.8191 L-26.2979 37.1094 Z " />
<path stroke="rgb(200,255,200)" stroke-opacity="1" fill="rgb(200,255,200)" fill-opacity="1" id="tri_7_1_" d="M-19.7763 50.0955 L-19.0288 51.3812 L-18.2814 52.6668 L-17.5339 53.9525 L-16.7865 55.2382 L-16.039 56.5239 L-17.525 56.5278 L-19.0109 56.5316 L-20.4968 56.5355 L-21.9828 56.5393 L-23.4687 56.5431 L-22.7302 55.2536 L-21.9917 53.9641 L-21.2532 52.6745 L-20.5147 51.385 L-19.7763 50.0955 Z " />
<path stroke="rgb(200,255,200)" stroke-opacity="1" fill="rgb(200,255,200)" fill-opacity="1" id="tri_6" d="M-18.8161 50.0479 L-19.564 48.762 L-20.3119 47.4762 L-21.0598 46.1903 L-21.8078 44.9044 L-22.5557 43.6186 L-21.0693 43.6137 L-19.583 43.6089 L-18.0966 43.6041 L-16.6102 43.5992 L-15.1239 43.5944 L-15.8623 44.8851 L-16.6008 46.1758 L-17.3392 47.4665 L-18.0776 48.7572 L-18.8161 50.0479 Z " />
<path stroke="rgb(200,255,200)" stroke-opacity="1" fill="rgb(200,255,200)" fill-opacity="1" id="tri_8_1_" d="M-12.2678 63.033 L-11.5197 64.3184 L-10.7717 65.6038 L-10.0236 66.8891 L-9.27554 68.1745 L-8.52747 69.4599 L-10.0133 69.4648 L-11.4992 69.4697 L-12.9851 69.4746 L-14.4709 69.4796 L-15.9568 69.4845 L-15.219 68.1942 L-14.4812 66.9039 L-13.7434 65.6136 L-13.0056 64.3233 L-12.2678 63.033 Z " />
<path stroke="rgb(200,255,200)" stroke-opacity="1" fill="rgb(200,255,200)" fill-opacity="1" id="tri_7" d="M-11.3285 62.9879 L-12.0762 61.7019 L-12.8238 60.416 L-13.5714 59.13 L-14.319 57.844 L-15.0667 56.5581 L-13.5807 56.5542 L-12.0948 56.5504 L-10.6089 56.5465 L-9.12296 56.5427 L-7.63703 56.5388 L-8.37533 57.8286 L-9.11363 59.1184 L-9.85193 60.4083 L-10.5902 61.6981 L-11.3285 62.9879 Z " />
<path stroke="rgb(200,255,200)" stroke-opacity="1" fill="rgb(200,255,200)" fill-opacity="1" id="tri_9" d="M-4.78445 75.9806 L-4.0374 77.2657 L-3.29034 78.5509 L-2.54328 79.836 L-1.79623 81.1211 L-1.04917 82.4063 L-2.53403 82.4105 L-4.01889 82.4148 L-5.50375 82.4191 L-6.98861 82.4233 L-8.47347 82.4276 L-7.73567 81.1382 L-6.99786 79.8488 L-6.26006 78.5594 L-5.52225 77.27 L-4.78445 75.9806 Z " />
<path stroke="rgb(200,255,200)" stroke-opacity="1" fill="rgb(200,255,200)" fill-opacity="1" id="tri_8" d="M-3.81586 75.9251 L-4.56367 74.6399 L-5.31149 73.3546 L-6.0593 72.0694 L-6.80711 70.7842 L-7.55492 69.4989 L-6.06906 69.494 L-4.58319 69.4891 L-3.09733 69.4842 L-1.61147 69.4793 L-0.125606 69.4744 L-0.863657 70.7645 L-1.60171 72.0547 L-2.33976 73.3448 L-3.07781 74.6349 L-3.81586 75.9251 Z " />
</g>
</g>
</svg>
