<!DOCTYPE svg>
<svg xmlns="http://www.w3.org/2000/svg" xmlns:xlink="http://www.w3.org/1999/xlink" width="600" height="600">
<g transform="translate(300.000000,300.000000)">
<g transform="scale(3.000000,3.000000)">
<path stroke="rgb(0,0,0)" stroke-opacity="1" fill="rgb(255,255,255)" fill-opacity="1" id="Layer_1" d="M107.411 107.089 L105.406 107.092 L103.402 107.095 L101.397 107.098 L99.3922 107.101 L97.3875 107.104 L95.3828 107.107 L93.3782 107.11 L91.3735 107.113 L89.3688 107.116 L87.3641 107.119 L85.3595 107.122 L83.3548 107.125 L81.3501 107.128 L79.3455 107.131 L77.3408 107.134 L75.3361 107.137 L73.3314 107.14 L71.3268 107.143 L69.3221 107.146 L67.3174 107.149 L65.3127 107.152 L63.3081 107.155 L61.3034 107.158 L59.2987 107.161 L57.2941 107.164 L55.2894 107.167 L53.2847 107.17 L51.28 107.173 L49.2754 107.176 L47.2707 107.179 L45.266 107.182 L43.2613 107.185 L41.2567 107.188 L39.252 107.191 L37.2473 107.194 L35.2426 107.197 L33.238 107.2 L31.2333 107.203 L29.2286 107.206 L27.224 107.209 L25.2193 107.212 L23.2146 107.215 L21.2099 107.218 L19.2053 107.221 L17.2006 107.224 L15.1959 107.227 L13.1912 107.23 L11.1866 107.233 L9.1819 107.236 L7.17723 107.239 L5.17256 107.242 L3.16788 107.245 L1.16321 107.248 L-0.841463 107.252 L-2.84614 107.255 L-4.85081 107.258 L-6.85548 107.261 L-8.86015 107.264 L-10.8648 107.267 L-12.8695 107.27 L-14.8742 107.273 L-16.8788 107.276 L-18.8835 107.279 L-20.8882 107.282 L-22.8929 107.285 L-24.8975 107.288 L-26.9022 107.291 L-28.9069 107.294 L-30.9116 107.297 L-32.9162 107.3 L-34.9209 107.303 L-36.9256 107.306 L-38.9302 107.309 L-40.9349 107.312 L-42.9396 107.315 L-44.9443 107.318 L-46.9489 107.321 L-48.9536 107.324 L-50.9583 107.327 L-52.963 107.33 L-54.9676 107.333 L-56.9723 107.336 L-58.977 107.339 L-60.9816 107.342 L-62.9863 107.345 L-64.991 107.348 L-66.9957 107.351 L-69.0003 107.354 L-71.005 107.357 L-73.0097 107.36 L-75.0144 107.363 L-77.019 107.366 L-79.0237 107.369 L-81.0284 107.372 L-83.0331 107.375 L-85.0377 107.378 L-87.0424 107.381 L-89.0471 107.384 L-91.0517 107.387 L-93.0564 107.39 L-95.0611 107.393 L-97.0658 107.396 L-99.0704 107.399 L-101.075 107.402 L-103.08 107.405 L-105.084 107.408 L-107.089 107.411 L-107.092 105.406 L-107.095 103.402 L-107.098 101.397 L-107.101 99.3922 L-107.104 97.3875 L-107.107 95.3828 L-107.11 93.3782 L-107.113 91.3735 L-107.116 89.3688 L-107.119 87.3641 L-107.122 85.3595 L-107.125 83.3548 L-107.128 81.3501 L-107.131 79.3455 L-107.134 77.3408 L-107.137 75.3361 L-107.14 73.3314 L-107.143 71.3268 L-107.146 69.3221 L-107.149 67.3174 L-107.152 65.3127 L-107.155 63.3081 L-107.158 61.3034 L-107.161 59.2987 L-107.164 57.2941 L-107.167 55.2894 L-107.17 53.2847 L-107.173 51.28 L-107.176 49.2754 L-107.179 47.2707 L-107.182 45.266 L-107.185 43.2613 L-107.188 41.2567 L-107.191 39.252 L-107.194 37.2473 L-107.197 35.2426 L-107.2 33.238 L-107.203 31.2333 L-107.206 29.2286 L-107.209 27.224 L-107.212 25.2193 L-107.215 23.2146 L-107.218 21.2099 L-107.221 19.2053 L-107.224 17.2006 L-107.227 15.1959 L-107.23 13.1912 L-107.233 11.1866 L-107.236 9.1819 L-107.239 7.17722 L-107.242 5.17255 L-107.245 3.16788 L-107.248 1.1632 L-107.251 -0.841469 L-107.255 -2.84614 L-107.258 -4.85081 L-107.261 -6.85549 L-107.264 -8.86016 L-107.267 -10.8648 L-107.27 -12.8695 L-107.273 -14.8742 L-107.276 -16.8789 L-107.279 -18.8835 L-107.282 -20.8882 L-107.285 -22.8929 L-107.288 -24.8975 L-107.291 -26.9022 L-107.294 -28.9069 L-107.297 -30.9116 L-107.3 -32.9162 L-107.303 -34.9209 L-107.306 -36.9256 L-107.309 -38.9303 L-107.312 -40.9349 L-107.315 -42.9396 L-107.318 -44.9443 L-107.321 -46.9489 L-107.324 -48.9536 L-107.327 -50.9583 L-107.33 -52.963 L-107.333 -54.9676 L-107.336 -56.9723 L-107.339 -58.977 L-107.342 -60.9817 L-107.345 -62.9863 L-107.348 -64.991 L-107.351 -66.9957 L-107.354 -69.0003 L-107.357 -71.005 L-107.36 -73.0097 L-107.363 -75.0144 L-107.366 -77.019 L-107.369 -79.0237 L-107.372 -81.0284 L-107.375 -83.0331 L-107.378 -85.0377 L-107.381 -87.0424 L-107.384 -89.0471 L-107.387 -91.0518 L-107.39 -93.0564 L-107.393 -95.0611 L-107.396 -97.0658 L-107.399 -99.0704 L-107.402 -101.075 L-107.405 -103.08 L-107.408 -105.084 L-107.411 -107.089 L-105.406 -107.092 L-103.402 -107.095 L-101.397 -107.098 L-99.3922 -107.101 L-97.3875 -107.104 L-95.3828 -107.107 L-93.3782 -107.11 L-91.3735 -107.113 L-89.3688 -107.116 L-87.3641 -107.119 L-85.3595 -107.122 L-83.3548 -107.125 L-81.3501 -107.128 L-79.3455 -107.131 L-77.3408 -107.134 L-75.3361 -107.137 L-73.3314 -107.14 L-71.3268 -107.143 L-69.3221 -107.146 L-67.3174 -107.149 L-65.3127 -107.152 L-63.3081 -107.155 L-61.3034 -107.158 L-59.2987 -107.161 L-57.2941 -107.164 L-55.2894 -107.167 L-53.2847 -107.17 L-51.28 -107.173 L-49.2754 -107.176 L-47.2707 -107.179 L-45.266 -107.182 L-43.2613 -107.185 L-41.2567 -107.188 L-39.252 -107.191 L-37.2473 -107.194 L-35.2426 -107.197 L-33.238 -107.2 L-31.2333 -107.203 L-29.2286 -107.206 L-27.224 -107.209 L-25.2193 -107.212 L-23.2146 -107.215 L-21.2099 -107.218 L-19.2053 -107.221 L-17.2006 -107.224 L-15.1959 -107.227 L-13.1912 -107.23 L-11.1866 -107.233 L-9.1819 -107.236 L-7.17723 -107.239 L-5.17256 -107.242 L-3.16788 -107.245 L-1.16321 -107.248 L0.841463 -107.252 L2.84614 -107.255 L4.85081 -107.258 L6.85548 -107.261 L8.86015 -107.264 L10.8648 -107.267 L12.8695 -107.27 L14.8742 -107.273 L16.8788 -107.276 L18.8835 -107.279 L20.8882 -107.282 L22.8929 -107.285 L24.8975 -107.288 L26.9022 -107.291 L28.9069 -107.294 L30.9116 -107.297 L32.9162 -107.3 L34.9209 -107.303 L36.9256 -107.306 L38.9302 -107.309 L40.9349 -107.312 L42.9396 -107.315 L44.9443 -107.318 L46.9489 -107.321 L48.9536 -107.324 L50.9583 -107.327 L52.963 -107.33 L54.9676 -107.333 L56.9723 -107.336 L58.977 -107.339 L60.9816 -107.342 L62.9863 -107.345 L64.991 -107.348 L66.9957 -107.351 L69.0003 -107.354 L71.005 -107.357 L73.0097 -107.36 L75.0144 -107.363 L77.019 -107.366 L79.0237 -107.369 L81.0284 -107.372 L83.0331 -107.375 L85.0377 -107.378 L87.0424 -107.381 L89.0471 -107.384 L91.0517 -107.387 L93.0564 -107.39 L95.0611 -107.393 L97.0658 -107.396 L99.0704 -107.399 L101.075 -107.402 L103.08 -107.405 L105.084 -107.408 L107.089 -107.411 L107.092 -105.406 L107.095 -103.402 L107.098 -101.397 L107.101 -99.3922 L107.104 -97.3875 L107.107 -95.3828 L107.11 -93.3782 L107.113 -91.3735 L107.116 -89.3688 L107.119 -87.3642 L107.122 -85.3595 L107.125 -83.3548 L107.128 -81.3501 L107.131 -79.3455 L107.134 -77.3408 L107.137 -75.3361 L107.14 -73.3314 L107.143 -71.3268 L107.146 -69.3221 L107.149 -67.3174 L107.152 -65.3128 L107.155 -63.3081 L107.158 -61.3034 L107.161 -59.2987 L107.164 -57.2941 L107.167 -55.2894 L107.17 -53.2847 L107.173 -51.28 L107.176 -49.2754 L107.179 -47.2707 L107.182 -45.266 L107.185 -43.2613 L107.188 -41.2567 L107.191 -39.252 L107.194 -37.2473 L107.197 -35.2427 L107.2 -33.238 L107.203 -31.2333 L107.206 -29.2286 L107.209 -27.224 L107.212 -25.2193 L107.215 -23.2146 L107.218 -21.2099 L107.221 -19.2053 L107.224 -17.2006 L107.227 -15.1959 L107.23 -13.1913 L107.233 -11.1866 L107.236 -9.18191 L107.239 -7.17724 L107.242 -5.17256 L107.245 -3.16789 L107.248 -1.16322 L107.251 0.841455 L107.255 2.84613 L107.258 4.8508 L107.261 6.85547 L107.264 8.86015 L107.267 10.8648 L107.27 12.8695 L107.273 14.8742 L107.276 16.8788 L107.279 18.8835 L107.282 20.8882 L107.285 22.8929 L107.288 24.8975 L107.291 26.9022 L107.294 28.9069 L107.297 30.9115 L107.3 32.9162 L107.303 34.9209 L107.306 36.9256 L107.309 38.9302 L107.312 40.9349 L107.315 42.9396 L107.318 44.9443 L107.321 46.9489 L107.324 48.9536 L107.327 50.9583 L107.33 52.963 L107.333 54.9676 L107.336 56.9723 L107.339 58.977 L107.342 60.9816 L107.345 62.9863 L107.348 64.991 L107.351 66.9957 L107.354 69.0003 L107.357 71.005 L107.36 73.0097 L107.363 75.0144 L107.366 77.019 L107.369 79.0237 L107.372 81.0284 L107.375 83.033 L107.378 85.0377 L107.381 87.0424 L107.384 89.0471 L107.387 91.0517 L107.39 93.0564 L107.393 95.0611 L107.396 97.0658 L107.399 99.0704 L107.402 101.075 L107.405 103.08 L107.408 105.084 L107.411 107.089 Z " />
<path stroke="rgb(169,255,187)" stroke-opacity="1" fill="rgb(169,255,187)" fill-opacity="1" id="scalebar" d="M-3.69904 -94.609 L-1.65554 -94.609 L0.387962 -94.609 L2.43146 -94.609 L4.47496 -94.609 L4.47496 -92.6686 L4.47496 -90.7281 L4.47496 -88.7876 L4.47496 -86.8472 L4.47496 -84.9067 L4.47496 -82.9663 L4.47496 -81.0258 L4.47496 -79.0853 L4.47496 -77.1449 L4.47496 -75.2044 L4.47496 -73.2639 L4.47496 -71.3235 L4.47496 -69.383 L2.43146 -69.383 L0.387962 -69.383 L-1.65554 -69.383 L-3.69904 -69.383 L-3.69904 -71.3235 L-3.69904 -73.2639 L-3.69904 -75.2044 L-3.69904 -77.1449 L-3.69904 -79.0853 L-3.69904 -81.0258 L-3.69904 -82.9663 L-3.69904 -84.9067 L-3.69904 -86.8472 L-3.69904 -88.7876 L-3.69904 -90.7281 L-3.69904 -92.6686 L-3.69904 -94.609 Z " />
<path stroke="rgb(200,255,200)" stroke-opacity="1" fill="rgb(200,255,200)" fill-opacity="1" id="scaleslider" d="M-6.69904 -93.4883 L-4.67418 -93.4883 L-2.64932 -93.4883 L-0.624466 -93.4883 L1.40039 -93.4883 L3.42525 -93.4883 L5.4501 -93.4883 L7.47496 -93.4883 L7.47496 -91.7616 L7.47496 -90.0349 L7.47496 -88.3083 L5.4501 -88.3083 L3.42525 -88.3083 L1.40039 -88.3083 L-0.624466 -88.3083 L-2.64932 -88.3083 L-4.67418 -88.3083 L-6.69904 -88.3083 L-6.69904 -90.0349 L-6.69904 -91.7616 L-6.69904 -93.4883 Z " />
<path stroke="rgb(255,134,106)" stroke-opacity="1" fill="rgb(255,134,106)" fill-opacity="1" id="tranbar" d="M-49.142 -86.146 L-47.0675 -86.146 L-44.993 -86.146 L-42.9185 -86.146 L-40.844 -86.146 L-40.844 -88.2208 L-40.844 -90.2955 L-40.844 -92.3703 L-40.844 -94.445 L-38.7685 -94.445 L-36.693 -94.445 L-34.6175 -94.445 L-32.542 -94.445 L-32.542 -92.3703 L-32.542 -90.2955 L-32.542 -88.2208 L-32.542 -86.146 L-30.4673 -86.146 L-28.3925 -86.146 L-26.3178 -86.146 L-24.243 -86.146 L-24.243 -84.0715 L-24.243 -81.997 L-24.243 -79.9225 L-24.243 -77.848 L-26.3178 -77.848 L-28.3925 -77.848 L-30.4673 -77.848 L-32.542 -77.848 L-32.542 -75.773 L-32.542 -73.698 L-32.542 -71.623 L-32.542 -69.548 L-34.6175 -69.548 L-36.693 -69.548 L-38.7685 -69.548 L-40.844 -69.548 L-40.844 -71.623 L-40.844 -73.698 L-40.844 -75.773 L-40.844 -77.848 L-42.9185 -77.848 L-44.993 -77.848 L-47.0675 -77.848 L-49.142 -77.848 L-49.142 -79.9225 L-49.142 -81.997 L-49.142 -84.0715 L-49.142 -86.146 Z " />
<path stroke="rgb(255,250,159)" stroke-opacity="1" fill="rgb(255,250,159)" fill-opacity="1" id="translider" d="M-39.248 -84.553 L-37.5447 -84.553 L-35.8414 -84.553 L-34.138 -84.553 L-34.138 -82.85 L-34.138 -81.147 L-34.138 -79.444 L-35.8414 -79.444 L-37.5447 -79.444 L-39.248 -79.444 L-39.248 -81.147 L-39.248 -82.85 L-39.248 -84.553 Z " />
<path stroke="rgb(254,204,128)" stroke-opacity="1" fill="rgb(254,204,128)" fill-opacity="1" id="rotate" d="M42.0165 -89.7644 L42.9694 -88.0922 L43.9223 -86.4199 L44.8752 -84.7477 L45.8282 -83.0755 L46.7811 -81.4032 L45.809 -79.7419 L44.8369 -78.0805 L43.8649 -76.4191 L42.8928 -74.7578 L41.9207 -73.0964 L39.9957 -73.1074 L38.0707 -73.1185 L36.1458 -73.1296 L34.2208 -73.1406 L32.2958 -73.1517 L31.3429 -74.8241 L30.39 -76.4966 L29.4371 -78.169 L28.4841 -79.8414 L27.5312 -81.5139 L28.5033 -83.175 L29.4754 -84.8362 L30.4474 -86.4974 L31.4195 -88.1585 L32.3916 -89.8197 L34.3166 -89.8086 L36.2415 -89.7976 L38.1665 -89.7865 L40.0915 -89.7755 L42.0165 -89.7644 Z " />
<path stroke="rgb(200,255,200)" stroke-opacity="1" fill="rgb(200,255,200)" fill-opacity="1" id="tri_0" d="M61.5853 -41.2605 L62.3462 -39.9876 L63.1072 -38.7147 L63.8682 -37.4417 L64.6291 -36.1688 L65.3901 -34.8959 L63.909 -34.873 L62.4279 -34.8501 L60.9469 -34.8272 L59.4658 -34.8044 L57.9847 -34.7815 L58.7048 -36.0773 L59.4249 -37.3731 L60.1451 -38.6689 L60.8652 -39.9647 L61.5853 -41.2605 Z " />
<path stroke="rgb(200,255,200)" stroke-opacity="1" fill="rgb(200,255,200)" fill-opacity="1" id="tri_0_18_" d="M46.7012 -41.0577 L47.4625 -39.7854 L48.2239 -38.5131 L48.9852 -37.2408 L49.7465 -35.9685 L50.5078 -34.6963 L49.0265 -34.6732 L47.5451 -34.6501 L46.0638 -34.6271 L44.5824 -34.604 L43.1011 -34.5809 L43.8211 -35.8763 L44.5411 -37.1716 L45.2612 -38.467 L45.9812 -39.7623 L46.7012 -41.0577 Z " />
<path stroke="rgb(200,255,200)" stroke-opacity="1" fill="rgb(200,255,200)" fill-opacity="1" id="tri_1_16_" d="M54.6079 -28.0123 L55.3626 -26.7325 L56.1173 -25.4528 L56.872 -24.173 L57.6266 -22.8932 L58.3813 -21.6134 L56.8971 -21.5998 L55.4129 -21.5861 L53.9286 -21.5724 L52.4444 -21.5587 L50.9602 -21.545 L51.6897 -22.8385 L52.4193 -24.132 L53.1488 -25.4254 L53.8784 -26.7189 L54.6079 -28.0123 Z " />
<path stroke="rgb(200,255,200)" stroke-opacity="1" fill="rgb(200,255,200)" fill-opacity="1" id="tri_0_17_" d="M55.2672 -28.3124 L54.506 -29.5851 L53.7447 -30.8579 L52.9835 -32.1306 L52.2223 -33.4033 L51.461 -34.6761 L52.9424 -34.6991 L54.4237 -34.7222 L55.9051 -34.7453 L57.3864 -34.7683 L58.8678 -34.7914 L58.1477 -33.4956 L57.4276 -32.1998 L56.7074 -30.904 L55.9873 -29.6082 L55.2672 -28.3124 Z " />
<path stroke="rgb(200,255,200)" stroke-opacity="1" fill="rgb(200,255,200)" fill-opacity="1" id="tri_0_16_" d="M31.8161 -40.8557 L32.5775 -39.5827 L33.339 -38.3097 L34.1004 -37.0367 L34.8618 -35.7637 L35.6232 -34.4906 L34.1414 -34.468 L32.6596 -34.4454 L31.1778 -34.4227 L29.696 -34.4001 L28.2142 -34.3774 L28.9346 -35.6731 L29.655 -36.9688 L30.3754 -38.2644 L31.0957 -39.5601 L31.8161 -40.8557 Z " />
<path stroke="rgb(200,255,200)" stroke-opacity="1" fill="rgb(200,255,200)" fill-opacity="1" id="tri_1_15_" d="M39.6857 -27.8951 L40.4409 -26.6153 L41.1961 -25.3356 L41.9513 -24.0559 L42.7066 -22.7761 L43.4618 -21.4964 L41.9771 -21.4828 L40.4924 -21.4692 L39.0077 -21.4556 L37.523 -21.442 L36.0383 -21.4285 L36.7678 -22.7218 L37.4973 -24.0151 L38.2267 -25.3084 L38.9562 -26.6018 L39.6857 -27.8951 Z " />
<path stroke="rgb(200,255,200)" stroke-opacity="1" fill="rgb(200,255,200)" fill-opacity="1" id="tri_0_15_" d="M40.3839 -28.1097 L39.6222 -29.3824 L38.8604 -30.6551 L38.0986 -31.9278 L37.3369 -33.2005 L36.5751 -34.4732 L38.0569 -34.4958 L39.5387 -34.5185 L41.0205 -34.5411 L42.5023 -34.5637 L43.9841 -34.5864 L43.2641 -33.291 L42.544 -31.9957 L41.824 -30.7004 L41.104 -29.405 L40.3839 -28.1097 Z " />
<path stroke="rgb(200,255,200)" stroke-opacity="1" fill="rgb(200,255,200)" fill-opacity="1" id="tri_2_14_" d="M47.3668 -14.8771 L48.1179 -13.5929 L48.8691 -12.3087 L49.6202 -11.0245 L50.3714 -9.74026 L51.1225 -8.45605 L49.6361 -8.44843 L48.1496 -8.44081 L46.6632 -8.43319 L45.1768 -8.42557 L43.6904 -8.41795 L44.4257 -9.70978 L45.1609 -11.0016 L45.8962 -12.2934 L46.6315 -13.5853 L47.3668 -14.8771 Z " />
<path stroke="rgb(200,255,200)" stroke-opacity="1" fill="rgb(200,255,200)" fill-opacity="1" id="tri_1_14_" d="M48.1959 -15.0745 L47.4408 -16.3543 L46.6856 -17.6342 L45.9305 -18.9141 L45.1753 -20.1939 L44.4202 -21.4738 L45.9049 -21.4874 L47.3896 -21.501 L48.8742 -21.5146 L50.3589 -21.5282 L51.8436 -21.5417 L51.1141 -20.2483 L50.3845 -18.9548 L49.655 -17.6614 L48.9255 -16.3679 L48.1959 -15.0745 Z " />
<path stroke="rgb(200,255,200)" stroke-opacity="1" fill="rgb(200,255,200)" fill-opacity="1" id="tri_0_14_" d="M16.9268 -40.6543 L17.6884 -39.3813 L18.4501 -38.1084 L19.2117 -36.8354 L19.9733 -35.5625 L20.7349 -34.2895 L19.2534 -34.267 L17.7719 -34.2446 L16.2904 -34.2221 L14.8088 -34.1997 L13.3273 -34.1772 L14.0472 -35.4726 L14.7671 -36.768 L15.487 -38.0635 L16.2069 -39.3589 L16.9268 -40.6543 Z " />
<path stroke="rgb(200,255,200)" stroke-opacity="1" fill="rgb(200,255,200)" fill-opacity="1" id="tri_1_13_" d="M24.7657 -27.782 L25.5202 -26.5018 L26.2748 -25.2215 L27.0294 -23.9413 L27.784 -22.661 L28.5386 -21.3808 L27.0544 -21.3671 L25.5702 -21.3534 L24.0859 -21.3398 L22.6017 -21.3261 L21.1175 -21.3124 L21.8471 -22.6063 L22.5768 -23.9002 L23.3064 -25.1942 L24.036 -26.4881 L24.7657 -27.782 Z " />
<path stroke="rgb(200,255,200)" stroke-opacity="1" fill="rgb(200,255,200)" fill-opacity="1" id="tri_0_13_" d="M25.4948 -27.9065 L24.7336 -29.1797 L23.9725 -30.4529 L23.2113 -31.7261 L22.4502 -32.9993 L21.689 -34.2725 L23.1706 -34.2949 L24.6521 -34.3174 L26.1336 -34.3398 L27.6151 -34.3623 L29.0966 -34.3848 L28.3763 -33.0891 L27.6559 -31.7934 L26.9355 -30.4978 L26.2151 -29.2021 L25.4948 -27.9065 Z " />
<path stroke="rgb(200,255,200)" stroke-opacity="1" fill="rgb(200,255,200)" fill-opacity="1" id="tri_2_13_" d="M32.4255 -14.8156 L33.1763 -13.5316 L33.927 -12.2476 L34.6778 -10.9636 L35.4285 -9.67963 L36.1793 -8.39565 L34.6931 -8.38788 L33.207 -8.38011 L31.7208 -8.37234 L30.2346 -8.36457 L28.7485 -8.3568 L29.4839 -9.64856 L30.2193 -10.9403 L30.9547 -12.2321 L31.6901 -13.5238 L32.4255 -14.8156 Z " />
<path stroke="rgb(200,255,200)" stroke-opacity="1" fill="rgb(200,255,200)" fill-opacity="1" id="tri_1_12_" d="M33.2744 -14.9577 L32.5196 -16.2374 L31.7648 -17.517 L31.0101 -18.7967 L30.2553 -20.0763 L29.5006 -21.356 L30.9848 -21.3696 L32.469 -21.3833 L33.9532 -21.397 L35.4375 -21.4107 L36.9217 -21.4243 L36.1922 -20.131 L35.4627 -18.8377 L34.7333 -17.5444 L34.0038 -16.251 L33.2744 -14.9577 Z " />
<path stroke="rgb(200,255,200)" stroke-opacity="1" fill="rgb(200,255,200)" fill-opacity="1" id="tri_3_12_" d="M39.9724 -1.84361 L40.7219 -0.557789 L41.4714 0.728034 L42.2209 2.01386 L42.9704 3.29968 L43.7199 4.5855 L42.2332 4.59188 L40.7465 4.59826 L39.2597 4.60463 L37.773 4.61101 L36.2863 4.61739 L37.0235 3.32519 L37.7607 2.03299 L38.4979 0.740788 L39.2352 -0.551412 L39.9724 -1.84361 Z " />
<path stroke="rgb(200,255,200)" stroke-opacity="1" fill="rgb(200,255,200)" fill-opacity="1" id="tri_2_12_" d="M40.896 -1.94799 L40.1451 -3.23205 L39.3942 -4.51611 L38.6433 -5.80017 L37.8924 -7.08423 L37.1416 -8.36829 L38.6277 -8.37606 L40.1139 -8.38383 L41.6001 -8.3916 L43.0862 -8.39937 L44.5724 -8.40713 L43.8371 -7.11531 L43.1018 -5.82348 L42.3665 -4.53165 L41.6313 -3.23982 L40.896 -1.94799 Z " />
<path stroke="rgb(200,255,200)" stroke-opacity="1" fill="rgb(200,255,200)" fill-opacity="1" id="tri_0_12_" d="M2.04483 -40.4508 L2.80574 -39.1784 L3.56666 -37.906 L4.32758 -36.6336 L5.0885 -35.3612 L5.84942 -34.0888 L4.36801 -34.0659 L2.8866 -34.0431 L1.40519 -34.0202 L-0.0762244 -33.9974 L-1.55764 -33.9745 L-0.837143 -35.2698 L-0.116651 -36.565 L0.603842 -37.8603 L1.32433 -39.1555 L2.04483 -40.4508 Z " />
<path stroke="rgb(200,255,200)" stroke-opacity="1" fill="rgb(200,255,200)" fill-opacity="1" id="tri_1_11_" d="M9.8431 -27.6661 L10.5981 -26.3865 L11.353 -25.1069 L12.108 -23.8273 L12.8629 -22.5477 L13.6179 -21.2681 L12.1335 -21.2544 L10.6491 -21.2406 L9.16462 -21.2269 L7.6802 -21.2132 L6.19577 -21.1994 L6.92523 -22.4928 L7.6547 -23.7861 L8.38417 -25.0794 L9.11363 -26.3727 L9.8431 -27.6661 Z " />
<path stroke="rgb(200,255,200)" stroke-opacity="1" fill="rgb(200,255,200)" fill-opacity="1" id="tri_0_11_" d="M10.609 -27.7063 L9.84747 -28.9788 L9.08596 -30.2514 L8.32445 -31.5239 L7.56294 -32.7965 L6.80143 -34.069 L8.28284 -34.0919 L9.76425 -34.1147 L11.2457 -34.1376 L12.7271 -34.1605 L14.2085 -34.1833 L13.4886 -32.8879 L12.7687 -31.5925 L12.0488 -30.2971 L11.3289 -29.0017 L10.609 -27.7063 Z " />
<path stroke="rgb(200,255,200)" stroke-opacity="1" fill="rgb(200,255,200)" fill-opacity="1" id="tri_2_11_" d="M17.4826 -14.7588 L18.2334 -13.4743 L18.9842 -12.1897 L19.735 -10.9052 L20.4858 -9.6207 L21.2366 -8.33617 L19.7507 -8.32859 L18.2648 -8.32101 L16.7789 -8.31342 L15.293 -8.30584 L13.8072 -8.29826 L14.5423 -9.59036 L15.2774 -10.8825 L16.0124 -12.1746 L16.7475 -13.4667 L17.4826 -14.7588 Z " />
<path stroke="rgb(200,255,200)" stroke-opacity="1" fill="rgb(200,255,200)" fill-opacity="1" id="tri_1_10_" d="M18.3526 -14.8427 L17.5978 -16.1229 L16.843 -17.4031 L16.0882 -18.6833 L15.3334 -19.9635 L14.5786 -21.2436 L16.0631 -21.2574 L17.5475 -21.2711 L19.0319 -21.2849 L20.5164 -21.2986 L22.0008 -21.3123 L21.2711 -20.0184 L20.5415 -18.7245 L19.8119 -17.4306 L19.0823 -16.1367 L18.3526 -14.8427 Z " />
<path stroke="rgb(200,255,200)" stroke-opacity="1" fill="rgb(200,255,200)" fill-opacity="1" id="tri_3_11_" d="M25.0217 -1.80863 L25.7708 -0.522695 L26.5199 0.763239 L27.2689 2.04917 L28.018 3.33511 L28.7671 4.62104 L27.2803 4.62701 L25.7935 4.63298 L24.3067 4.63895 L22.8199 4.64492 L21.3331 4.65089 L22.0708 3.35899 L22.8085 2.06708 L23.5462 0.77518 L24.2839 -0.516724 L25.0217 -1.80863 Z " />
<path stroke="rgb(200,255,200)" stroke-opacity="1" fill="rgb(200,255,200)" fill-opacity="1" id="tri_2_10_" d="M25.9541 -1.88858 L25.2037 -3.17275 L24.4532 -4.45692 L23.7027 -5.7411 L22.9522 -7.02527 L22.2018 -8.30944 L23.6876 -8.31702 L25.1735 -8.3246 L26.6594 -8.33219 L28.1453 -8.33977 L29.6312 -8.34735 L28.8958 -7.0556 L28.1604 -5.76385 L27.425 -4.47209 L26.6896 -3.18034 L25.9541 -1.88858 Z " />
<path stroke="rgb(200,255,200)" stroke-opacity="1" fill="rgb(200,255,200)" fill-opacity="1" id="tri_4_10_" d="M32.5289 11.1564 L33.2771 12.4434 L34.0253 13.7304 L34.7735 15.0174 L35.5217 16.3044 L36.2699 17.5914 L34.7828 17.5954 L33.2957 17.5994 L31.8086 17.6034 L30.3215 17.6074 L28.8344 17.6114 L29.5733 16.3204 L30.3122 15.0294 L31.0511 13.7384 L31.79 12.4474 L32.5289 11.1564 Z " />
<path stroke="rgb(200,255,200)" stroke-opacity="1" fill="rgb(200,255,200)" fill-opacity="1" id="tri_3_10_" d="M33.4813 11.0845 L32.7316 9.79831 L31.982 8.51208 L31.2324 7.22585 L30.4828 5.93962 L29.7332 4.65339 L31.22 4.64742 L32.7068 4.64145 L34.1936 4.63548 L35.6805 4.62951 L37.1673 4.62354 L36.4301 5.91574 L35.6929 7.20794 L34.9557 8.50014 L34.2185 9.79234 L33.4813 11.0845 Z " />
<path stroke="rgb(200,255,200)" stroke-opacity="1" fill="rgb(200,255,200)" fill-opacity="1" id="tri_0_10_" d="M-12.8416 -40.2495 L-12.0799 -38.9766 L-11.3183 -37.7036 L-10.5567 -36.4307 L-9.79506 -35.1577 L-9.03344 -33.8848 L-10.5155 -33.8623 L-11.9976 -33.8398 L-13.4796 -33.8173 L-14.9617 -33.7948 L-16.4437 -33.7723 L-15.7233 -35.0677 L-15.0029 -36.3632 L-14.2824 -37.6586 L-13.562 -38.9541 L-12.8416 -40.2495 Z " />
<path stroke="rgb(200,255,200)" stroke-opacity="1" fill="rgb(200,255,200)" fill-opacity="1" id="tri_1_9_" d="M-5.07739 -27.5497 L-4.32237 -26.2699 L-3.56736 -24.9901 L-2.81234 -23.7103 L-2.05732 -22.4305 L-1.3023 -21.1507 L-2.78666 -21.1371 L-4.27101 -21.1235 L-5.75537 -21.1099 L-7.23972 -21.0963 L-8.72407 -21.0827 L-7.99474 -22.3761 L-7.2654 -23.6695 L-6.53607 -24.9629 L-5.80673 -26.2563 L-5.07739 -27.5497 Z " />
<path stroke="rgb(200,255,200)" stroke-opacity="1" fill="rgb(200,255,200)" fill-opacity="1" id="tri_0_9_" d="M-4.27552 -27.5034 L-5.03708 -28.7761 L-5.79865 -30.0489 L-6.56022 -31.3216 L-7.32179 -32.5944 L-8.08335 -33.8672 L-6.60129 -33.8897 L-5.11923 -33.9121 L-3.63717 -33.9346 L-2.15512 -33.9571 L-0.673056 -33.9796 L-1.39355 -32.6844 L-2.11404 -31.3891 L-2.83453 -30.0939 L-3.55502 -28.7986 L-4.27552 -27.5034 Z " />
<path stroke="rgb(200,255,200)" stroke-opacity="1" fill="rgb(200,255,200)" fill-opacity="1" id="tri_2_9_" d="M2.53999 -14.698 L3.29087 -13.4139 L4.04176 -12.1299 L4.79264 -10.8458 L5.54353 -9.56174 L6.29441 -8.27768 L4.80836 -8.2695 L3.32231 -8.26133 L1.83625 -8.25315 L0.3502 -8.24497 L-1.13585 -8.2368 L-0.400685 -9.52903 L0.334483 -10.8213 L1.06965 -12.1135 L1.80482 -13.4057 L2.53999 -14.698 Z " />
<path stroke="rgb(200,255,200)" stroke-opacity="1" fill="rgb(200,255,200)" fill-opacity="1" id="tri_1_8_" d="M3.43198 -14.7291 L2.67709 -16.0088 L1.9222 -17.2885 L1.16731 -18.5682 L0.412422 -19.8479 L-0.342467 -21.1277 L1.14189 -21.1413 L2.62624 -21.1549 L4.1106 -21.1685 L5.59495 -21.1821 L7.07931 -21.1957 L6.34984 -19.9024 L5.62038 -18.609 L4.89091 -17.3157 L4.16144 -16.0224 L3.43198 -14.7291 Z " />
<path stroke="rgb(200,255,200)" stroke-opacity="1" fill="rgb(200,255,200)" fill-opacity="1" id="tri_3_9_" d="M10.0697 -1.77303 L10.8192 -0.487337 L11.5688 0.798357 L12.3184 2.08405 L13.068 3.36975 L13.8175 4.65544 L12.3306 4.66133 L10.8437 4.66723 L9.35671 4.67313 L7.86977 4.67902 L6.38283 4.68492 L7.12019 3.39333 L7.85756 2.10174 L8.59493 0.81015 L9.3323 -0.481439 L10.0697 -1.77303 Z " />
<path stroke="rgb(200,255,200)" stroke-opacity="1" fill="rgb(200,255,200)" fill-opacity="1" id="tri_2_8_" d="M11.0132 -1.82965 L10.2622 -3.11358 L9.51126 -4.39751 L8.7603 -5.68145 L8.00934 -6.96538 L7.25838 -8.24931 L8.74444 -8.25748 L10.2305 -8.26566 L11.7165 -8.27383 L13.2026 -8.28201 L14.6886 -8.29018 L13.9536 -6.99808 L13.2185 -5.70597 L12.4834 -4.41387 L11.7483 -3.12176 L11.0132 -1.82965 Z " />
<path stroke="rgb(200,255,200)" stroke-opacity="1" fill="rgb(200,255,200)" fill-opacity="1" id="tri_4_9_" d="M17.5724 11.1778 L18.3202 12.4646 L19.068 13.7514 L19.8158 15.0382 L20.5636 16.325 L21.3114 17.6118 L19.8246 17.6163 L18.3377 17.6207 L16.8508 17.6252 L15.364 17.6297 L13.8771 17.6342 L14.6162 16.3429 L15.3552 15.0516 L16.0943 13.7604 L16.8333 12.4691 L17.5724 11.1778 Z " />
<path stroke="rgb(200,255,200)" stroke-opacity="1" fill="rgb(200,255,200)" fill-opacity="1" id="tri_3_8_" d="M18.5273 11.1176 L17.7781 9.83156 L17.0289 8.54555 L16.2797 7.25954 L15.5304 5.97354 L14.7812 4.68753 L16.2682 4.68163 L17.7551 4.67574 L19.242 4.66984 L20.729 4.66395 L22.2159 4.65805 L21.4782 5.94995 L20.7405 7.24186 L20.0028 8.53376 L19.265 9.82566 L18.5273 11.1176 Z " />
<path stroke="rgb(200,255,200)" stroke-opacity="1" fill="rgb(200,255,200)" fill-opacity="1" id="tri_5_8_" d="M25.0662 24.1264 L25.8138 25.4128 L26.5614 26.6992 L27.309 27.9856 L28.0566 29.272 L28.8042 30.5584 L27.3178 30.5623 L25.8314 30.5663 L24.345 30.5703 L22.8586 30.5743 L21.3722 30.5783 L22.111 29.2879 L22.8498 27.9976 L23.5886 26.7072 L24.3274 25.4168 L25.0662 24.1264 Z " />
<path stroke="rgb(200,255,200)" stroke-opacity="1" fill="rgb(200,255,200)" fill-opacity="1" id="tri_4_8_" d="M26.02 24.0792 L25.272 22.7926 L24.5241 21.5061 L23.7761 20.2196 L23.0282 18.933 L22.2802 17.6465 L23.7671 17.642 L25.2539 17.6375 L26.7408 17.6331 L28.2276 17.6286 L29.7145 17.6241 L28.9756 18.9151 L28.2367 20.2061 L27.4978 21.4971 L26.7589 22.7881 L26.02 24.0792 Z " />
<path stroke="rgb(200,255,200)" stroke-opacity="1" fill="rgb(200,255,200)" fill-opacity="1" id="tri_0_8_" d="M-27.7288 -40.0497 L-26.9675 -38.7765 L-26.2061 -37.5034 L-25.4448 -36.2303 L-24.6834 -34.9571 L-23.9221 -33.684 L-25.4036 -33.6613 L-26.885 -33.6386 L-28.3665 -33.616 L-29.848 -33.5933 L-31.3294 -33.5707 L-30.6093 -34.8665 L-29.8892 -36.1623 L-29.1691 -37.4581 L-28.4489 -38.7539 L-27.7288 -40.0497 Z " />
<path stroke="rgb(200,255,200)" stroke-opacity="1" fill="rgb(200,255,200)" fill-opacity="1" id="tri_1_7_" d="M-19.9969 -27.4358 L-19.2424 -26.1559 L-18.488 -24.8761 L-17.7335 -23.5963 L-16.979 -22.3164 L-16.2245 -21.0366 L-17.7085 -21.0233 L-19.1925 -21.01 L-20.6765 -20.9967 L-22.1605 -20.9834 L-23.6445 -20.9702 L-22.915 -22.2633 L-22.1855 -23.5564 L-21.456 -24.8495 L-20.7264 -26.1426 L-19.9969 -27.4358 Z " />
<path stroke="rgb(200,255,200)" stroke-opacity="1" fill="rgb(200,255,200)" fill-opacity="1" id="tri_0_7_" d="M-19.1626 -27.3009 L-19.9236 -28.5737 L-20.6847 -29.8465 L-21.4457 -31.1193 L-22.2067 -32.3921 L-22.9678 -33.6649 L-21.4863 -33.6875 L-20.0048 -33.7102 L-18.5234 -33.7328 L-17.0419 -33.7555 L-15.5604 -33.7781 L-16.2809 -32.4827 L-17.0013 -31.1872 L-17.7217 -29.8918 L-18.4422 -28.5963 L-19.1626 -27.3009 Z " />
<path stroke="rgb(200,255,200)" stroke-opacity="1" fill="rgb(200,255,200)" fill-opacity="1" id="tri_2_7_" d="M-12.4028 -14.6398 L-11.6521 -13.3554 L-10.9015 -12.0709 L-10.1508 -10.7865 L-9.40016 -9.50204 L-8.6495 -8.2176 L-10.1355 -8.20975 L-11.6216 -8.20191 L-13.1076 -8.19407 L-14.5936 -8.18623 L-16.0797 -8.17838 L-15.3443 -9.47067 L-14.6089 -10.763 L-13.8736 -12.0553 L-13.1382 -13.3475 L-12.4028 -14.6398 Z " />
<path stroke="rgb(200,255,200)" stroke-opacity="1" fill="rgb(200,255,200)" fill-opacity="1" id="tri_1_6_" d="M-11.4892 -14.6132 L-12.2439 -15.8933 L-12.9986 -17.1734 L-13.7532 -18.4535 L-14.5079 -19.7336 L-15.2626 -21.0138 L-13.7786 -21.027 L-12.2946 -21.0403 L-10.8106 -21.0536 L-9.32655 -21.0669 L-7.84255 -21.0802 L-8.57188 -19.7868 L-9.30122 -18.4934 L-10.0306 -17.2 L-10.7599 -15.9066 L-11.4892 -14.6132 Z " />
<path stroke="rgb(200,255,200)" stroke-opacity="1" fill="rgb(200,255,200)" fill-opacity="1" id="tri_3_7_" d="M-4.88279 -1.73784 L-4.13331 -0.451686 L-3.38383 0.834471 L-2.63434 2.12063 L-1.88486 3.40678 L-1.13538 4.69294 L-2.6223 4.6985 L-4.10923 4.70406 L-5.59615 4.70963 L-7.08308 4.71519 L-8.57 4.72075 L-7.83256 3.42903 L-7.09512 2.13732 L-6.35768 0.845596 L-5.62023 -0.446123 L-4.88279 -1.73784 Z " />
<path stroke="rgb(200,255,200)" stroke-opacity="1" fill="rgb(200,255,200)" fill-opacity="1" id="tri_2_6_" d="M-3.92942 -1.76795 L-4.68029 -3.05235 L-5.43115 -4.33674 L-6.18202 -5.62113 L-6.93289 -6.90553 L-7.68375 -8.18992 L-6.19772 -8.19776 L-4.71168 -8.2056 L-3.22565 -8.21345 L-1.73962 -8.22129 L-0.25358 -8.22913 L-0.988748 -6.9369 L-1.72392 -5.64466 L-2.45909 -4.35243 L-3.19425 -3.06019 L-3.92942 -1.76795 Z " />
<path stroke="rgb(200,255,200)" stroke-opacity="1" fill="rgb(200,255,200)" fill-opacity="1" id="tri_4_7_" d="M2.61402 11.1988 L3.36216 12.4856 L4.1103 13.7724 L4.85844 15.0592 L5.60658 16.346 L6.35472 17.6328 L4.86786 17.6373 L3.381 17.6418 L1.89414 17.6463 L0.40728 17.6508 L-1.07958 17.6552 L-0.340858 16.3639 L0.397861 15.0727 L1.13658 13.7814 L1.8753 12.4901 L2.61402 11.1988 Z " />
<path stroke="rgb(200,255,200)" stroke-opacity="1" fill="rgb(200,255,200)" fill-opacity="1" id="tri_3_6_" d="M3.57665 11.1527 L2.8271 9.86663 L2.07754 8.5806 L1.32798 7.29458 L0.578427 6.00855 L-0.17113 4.72252 L1.3158 4.71696 L2.80272 4.7114 L4.28964 4.70584 L5.77657 4.70027 L7.26349 4.69471 L6.52613 5.9863 L5.78876 7.27789 L5.05139 8.56948 L4.31402 9.86107 L3.57665 11.1527 Z " />
<path stroke="rgb(200,255,200)" stroke-opacity="1" fill="rgb(200,255,200)" fill-opacity="1" id="tri_5_7_" d="M10.1091 24.1465 L10.8565 25.4332 L11.604 26.7198 L12.3514 28.0065 L13.0989 29.2931 L13.8463 30.5798 L12.3595 30.5833 L10.8726 30.5869 L9.38578 30.5904 L7.89894 30.594 L6.41209 30.5976 L7.15149 29.3074 L7.89088 28.0172 L8.63028 26.727 L9.36967 25.4368 L10.1091 24.1465 Z " />
<path stroke="rgb(200,255,200)" stroke-opacity="1" fill="rgb(200,255,200)" fill-opacity="1" id="tri_4_6_" d="M11.0634 24.1009 L10.3156 22.8141 L9.56784 21.5273 L8.82003 20.2405 L8.07223 18.9538 L7.32442 17.667 L8.81128 17.6625 L10.2981 17.658 L11.785 17.6535 L13.2719 17.649 L14.7587 17.6446 L14.0197 18.9358 L13.2806 20.2271 L12.5416 21.5184 L11.8025 22.8097 L11.0634 24.1009 Z " />
<path stroke="rgb(200,255,200)" stroke-opacity="1" fill="rgb(200,255,200)" fill-opacity="1" id="tri_6_6_" d="M17.6033 37.0853 L18.3515 38.3717 L19.0996 39.6581 L19.8477 40.9444 L20.5959 42.2308 L21.344 43.5172 L19.8578 43.5218 L18.3715 43.5263 L16.8853 43.5308 L15.3991 43.5354 L13.9128 43.5399 L14.6509 42.249 L15.389 40.9581 L16.1271 39.6671 L16.8652 38.3762 L17.6033 37.0853 Z " />
<path stroke="rgb(200,255,200)" stroke-opacity="1" fill="rgb(200,255,200)" fill-opacity="1" id="tri_5_6_" d="M18.5551 37.0457 L17.8071 35.7589 L17.059 34.4721 L16.311 33.1853 L15.5629 31.8985 L14.8149 30.6117 L16.3017 30.6081 L17.7886 30.6046 L19.2754 30.601 L20.7623 30.5975 L22.2491 30.5939 L21.5103 31.8843 L20.7715 33.1746 L20.0327 34.465 L19.2939 35.7554 L18.5551 37.0457 Z " />
<path stroke="rgb(200,255,200)" stroke-opacity="1" fill="rgb(200,255,200)" fill-opacity="1" id="tri_0_6_" d="M-42.6162 -39.8459 L-41.8546 -38.5732 L-41.093 -37.3004 L-40.3315 -36.0277 L-39.5699 -34.7549 L-38.8083 -33.4821 L-40.2902 -33.459 L-41.7721 -33.4359 L-43.254 -33.4128 L-44.7359 -33.3897 L-46.2178 -33.3666 L-45.4974 -34.6625 L-44.7771 -35.9583 L-44.0568 -37.2542 L-43.3365 -38.5501 L-42.6162 -39.8459 Z " />
<path stroke="rgb(200,255,200)" stroke-opacity="1" fill="rgb(200,255,200)" fill-opacity="1" id="tri_1_5_" d="M-34.9195 -27.3196 L-34.1642 -26.0399 L-33.409 -24.7602 L-32.6538 -23.4804 L-31.8986 -22.2007 L-31.1433 -20.9209 L-32.6278 -20.9077 L-34.1123 -20.8945 L-35.5967 -20.8813 L-37.0812 -20.8681 L-38.5657 -20.8549 L-37.8364 -22.1479 L-37.1072 -23.4408 L-36.3779 -24.7338 L-35.6487 -26.0267 L-34.9195 -27.3196 Z " />
<path stroke="rgb(200,255,200)" stroke-opacity="1" fill="rgb(200,255,200)" fill-opacity="1" id="tri_0_5_" d="M-34.0474 -27.099 L-34.8092 -28.3717 L-35.5709 -29.6444 L-36.3327 -30.9171 L-37.0945 -32.1898 L-37.8562 -33.4625 L-36.3744 -33.4856 L-34.8925 -33.5088 L-33.4106 -33.5319 L-31.9287 -33.555 L-30.4468 -33.5781 L-31.1669 -32.2823 L-31.887 -30.9865 L-32.6072 -29.6907 L-33.3273 -28.3949 L-34.0474 -27.099 Z " />
<path stroke="rgb(200,255,200)" stroke-opacity="1" fill="rgb(200,255,200)" fill-opacity="1" id="tri_2_5_" d="M-27.3463 -14.5817 L-26.5953 -13.2974 L-25.8444 -12.0131 L-25.0935 -10.7289 L-24.3425 -9.44462 L-23.5916 -8.16035 L-25.0774 -8.15203 L-26.5632 -8.14371 L-28.049 -8.13539 L-29.5348 -8.12706 L-31.0206 -8.11874 L-30.2857 -9.41133 L-29.5509 -10.7039 L-28.816 -11.9965 L-28.0811 -13.2891 L-27.3463 -14.5817 Z " />
<path stroke="rgb(200,255,200)" stroke-opacity="1" fill="rgb(200,255,200)" fill-opacity="1" id="tri_1_4_" d="M-26.4102 -14.5007 L-27.1651 -15.7807 L-27.9201 -17.0606 L-28.675 -18.3405 L-29.43 -19.6204 L-30.1849 -20.9004 L-28.7004 -20.9136 L-27.216 -20.9268 L-25.7315 -20.94 L-24.247 -20.9532 L-22.7626 -20.9664 L-23.4921 -19.6732 L-24.2216 -18.3801 L-24.9511 -17.087 L-25.6807 -15.7939 L-26.4102 -14.5007 Z " />
<path stroke="rgb(200,255,200)" stroke-opacity="1" fill="rgb(200,255,200)" fill-opacity="1" id="tri_3_5_" d="M-19.8322 -1.70181 L-19.0832 -0.416078 L-18.3341 0.869651 L-17.5851 2.15538 L-16.836 3.44111 L-16.087 4.72684 L-17.5741 4.73279 L-19.0613 4.73874 L-20.5484 4.74469 L-22.0356 4.75064 L-23.5227 4.75659 L-22.7846 3.46491 L-22.0465 2.17323 L-21.3084 0.881552 L-20.5703 -0.410128 L-19.8322 -1.70181 Z " />
<path stroke="rgb(200,255,200)" stroke-opacity="1" fill="rgb(200,255,200)" fill-opacity="1" id="tri_2_4_" d="M-18.873 -1.71068 L-19.6234 -2.99465 L-20.3738 -4.27862 L-21.1242 -5.56258 L-21.8746 -6.84655 L-22.6251 -8.13052 L-21.1393 -8.13884 L-19.6535 -8.14716 L-18.1677 -8.15549 L-16.6819 -8.16381 L-15.1961 -8.17213 L-15.9315 -6.87984 L-16.6668 -5.58755 L-17.4022 -4.29526 L-18.1376 -3.00297 L-18.873 -1.71068 Z " />
<path stroke="rgb(200,255,200)" stroke-opacity="1" fill="rgb(200,255,200)" fill-opacity="1" id="tri_4_5_" d="M-12.3449 11.2235 L-11.5966 12.51 L-10.8483 13.7966 L-10.1 15.0831 L-9.35176 16.3697 L-8.60347 17.6563 L-10.0904 17.6605 L-11.5773 17.6648 L-13.0642 17.6691 L-14.5511 17.6734 L-16.038 17.6776 L-15.2994 16.3868 L-14.5608 15.096 L-13.8222 13.8051 L-13.0835 12.5143 L-12.3449 11.2235 Z " />
<path stroke="rgb(200,255,200)" stroke-opacity="1" fill="rgb(200,255,200)" fill-opacity="1" id="tri_3_4_" d="M-11.3763 11.1889 L-12.126 9.90312 L-12.8757 8.61735 L-13.6254 7.33158 L-14.3751 6.04581 L-15.1248 4.76005 L-13.6377 4.75409 L-12.1505 4.74814 L-10.6634 4.74219 L-9.17624 4.73624 L-7.6891 4.73029 L-8.42654 6.02201 L-9.16398 7.31373 L-9.90142 8.60545 L-10.6389 9.89717 L-11.3763 11.1889 Z " />
<path stroke="rgb(200,255,200)" stroke-opacity="1" fill="rgb(200,255,200)" fill-opacity="1" id="tri_5_5_" d="M-4.85027 24.1652 L-4.10243 25.452 L-3.35459 26.7389 L-2.60675 28.0258 L-1.85892 29.3126 L-1.11108 30.5995 L-2.59807 30.6033 L-4.08506 30.6071 L-5.57206 30.611 L-7.05905 30.6148 L-8.54604 30.6186 L-7.80689 29.3279 L-7.06773 28.0372 L-6.32858 26.7466 L-5.58942 25.4559 L-4.85027 24.1652 Z " />
<path stroke="rgb(200,255,200)" stroke-opacity="1" fill="rgb(200,255,200)" fill-opacity="1" id="tri_4_4_" d="M-3.89384 24.1229 L-4.64204 22.8358 L-5.39023 21.5488 L-6.13843 20.2618 L-6.88662 18.9748 L-7.63482 17.6878 L-6.1479 17.6835 L-4.66099 17.6792 L-3.17407 17.675 L-1.68716 17.6707 L-0.200247 17.6664 L-0.938967 18.9577 L-1.67769 20.249 L-2.4164 21.5403 L-3.15512 22.8316 L-3.89384 24.1229 Z " />
<path stroke="rgb(200,255,200)" stroke-opacity="1" fill="rgb(200,255,200)" fill-opacity="1" id="tri_6_5_" d="M2.64647 37.1093 L3.39416 38.3953 L4.14184 39.6813 L4.88953 40.9672 L5.63722 42.2532 L6.3849 43.5391 L4.89886 43.5439 L3.41282 43.5488 L1.92678 43.5536 L0.440734 43.5584 L-1.04531 43.5632 L-0.306954 42.2724 L0.431402 40.9817 L1.16976 39.6909 L1.90811 38.4001 L2.64647 37.1093 Z " />
<path stroke="rgb(200,255,200)" stroke-opacity="1" fill="rgb(200,255,200)" fill-opacity="1" id="tri_5_4_" d="M3.59493 37.0653 L2.84733 35.7789 L2.09973 34.4926 L1.35213 33.2062 L0.604534 31.9198 L-0.143065 30.6334 L1.34393 30.6296 L2.83092 30.6258 L4.31791 30.622 L5.80491 30.6181 L7.2919 30.6143 L6.55251 31.9045 L5.81311 33.1947 L5.07372 34.4849 L4.33432 35.7751 L3.59493 37.0653 Z " />
<path stroke="rgb(200,255,200)" stroke-opacity="1" fill="rgb(200,255,200)" fill-opacity="1" id="tri_7_4_" d="M10.1399 50.0544 L10.8874 51.3403 L11.6349 52.6262 L12.3824 53.9121 L13.1299 55.198 L13.8774 56.4839 L12.3916 56.4874 L10.9059 56.491 L9.42009 56.4946 L7.93431 56.4982 L6.44853 56.5018 L7.18681 55.2123 L7.92509 53.9228 L8.66337 52.6334 L9.40165 51.3439 L10.1399 50.0544 Z " />
<path stroke="rgb(200,255,200)" stroke-opacity="1" fill="rgb(200,255,200)" fill-opacity="1" id="tri_6_4_" d="M11.0978 50.0065 L10.3499 48.7204 L9.60195 47.4343 L8.854 46.1482 L8.10606 44.8621 L7.35811 43.576 L8.84415 43.5711 L10.3302 43.5663 L11.8162 43.5615 L13.3023 43.5567 L14.7883 43.5519 L14.0502 44.8428 L13.3121 46.1337 L12.574 47.4246 L11.8359 48.7156 L11.0978 50.0065 Z " />
<path stroke="rgb(200,255,200)" stroke-opacity="1" fill="rgb(200,255,200)" fill-opacity="1" id="tri_0_4_" d="M-57.5034 -39.6452 L-56.742 -38.3722 L-55.9805 -37.0992 L-55.2191 -35.8261 L-54.4577 -34.5531 L-53.6963 -33.2801 L-55.1777 -33.2572 L-56.6591 -33.2344 L-58.1405 -33.2115 L-59.6219 -33.1887 L-61.1033 -33.1658 L-60.3833 -34.4617 L-59.6633 -35.7576 L-58.9434 -37.0534 L-58.2234 -38.3493 L-57.5034 -39.6452 Z " />
<path stroke="rgb(200,255,200)" stroke-opacity="1" fill="rgb(200,255,200)" fill-opacity="1" id="tri_1_3_" d="M-49.8389 -27.2059 L-49.0843 -25.9259 L-48.3298 -24.6458 L-47.5753 -23.3658 L-46.8207 -22.0858 L-46.0662 -20.8057 L-47.5501 -20.7926 L-49.034 -20.7794 L-50.518 -20.7663 L-52.0019 -20.7531 L-53.4858 -20.7399 L-52.7564 -22.0331 L-52.027 -23.3263 L-51.2977 -24.6195 L-50.5683 -25.9127 L-49.8389 -27.2059 Z " />
<path stroke="rgb(200,255,200)" stroke-opacity="1" fill="rgb(200,255,200)" fill-opacity="1" id="tri_0_3_" d="M-48.9353 -26.8956 L-49.6964 -28.1686 L-50.4575 -29.4416 L-51.2186 -30.7146 L-51.9797 -31.9876 L-52.7408 -33.2606 L-51.2594 -33.2834 L-49.7779 -33.3063 L-48.2965 -33.3292 L-46.8151 -33.352 L-45.3337 -33.3749 L-46.054 -32.079 L-46.7744 -30.7832 L-47.4947 -29.4873 L-48.215 -28.1914 L-48.9353 -26.8956 Z " />
<path stroke="rgb(200,255,200)" stroke-opacity="1" fill="rgb(200,255,200)" fill-opacity="1" id="tri_2_3_" d="M-42.2887 -14.5208 L-41.538 -13.2366 L-40.7873 -11.9525 L-40.0367 -10.6684 L-39.286 -9.3843 L-38.5353 -8.10018 L-40.0214 -8.092 L-41.5074 -8.08383 L-42.9935 -8.07565 L-44.4795 -8.06748 L-45.9656 -8.0593 L-45.2302 -9.35159 L-44.4948 -10.6439 L-43.7594 -11.9362 L-43.0241 -13.2285 L-42.2887 -14.5208 Z " />
<path stroke="rgb(200,255,200)" stroke-opacity="1" fill="rgb(200,255,200)" fill-opacity="1" id="tri_1_2_" d="M-41.3313 -14.3851 L-42.086 -15.6649 L-42.8407 -16.9447 L-43.5953 -18.2245 L-44.35 -19.5042 L-45.1047 -20.784 L-43.6208 -20.7972 L-42.1368 -20.8103 L-40.6529 -20.8235 L-39.169 -20.8367 L-37.6851 -20.8498 L-38.4143 -19.5569 L-39.1435 -18.2639 L-39.8728 -16.971 L-40.602 -15.6781 L-41.3313 -14.3851 Z " />
<path stroke="rgb(200,255,200)" stroke-opacity="1" fill="rgb(200,255,200)" fill-opacity="1" id="tri_3_3_" d="M-34.7872 -1.6675 L-34.0373 -0.381321 L-33.2875 0.904853 L-32.5377 2.19103 L-31.7879 3.4772 L-31.0381 4.76338 L-32.5256 4.76877 L-34.0131 4.77417 L-35.5006 4.77956 L-36.9881 4.78496 L-38.4757 4.79035 L-37.738 3.49878 L-37.0003 2.20721 L-36.2626 0.915644 L-35.5249 -0.375926 L-34.7872 -1.6675 Z " />
<path stroke="rgb(200,255,200)" stroke-opacity="1" fill="rgb(200,255,200)" fill-opacity="1" id="tri_2_2_" d="M-33.8136 -1.64986 L-34.5648 -2.93427 L-35.316 -4.21868 L-36.0672 -5.5031 L-36.8184 -6.78751 L-37.5696 -8.07192 L-36.0835 -8.08009 L-34.5975 -8.08827 L-33.1114 -8.09644 L-31.6254 -8.10462 L-30.1393 -8.11279 L-30.8742 -6.82021 L-31.609 -5.52762 L-32.3439 -4.23504 L-33.0787 -2.94245 L-33.8136 -1.64986 Z " />
<path stroke="rgb(200,255,200)" stroke-opacity="1" fill="rgb(200,255,200)" fill-opacity="1" id="tri_4_3_" d="M-27.3018 11.244 L-26.5538 12.5311 L-25.8058 13.8182 L-25.0578 15.1053 L-24.3099 16.3923 L-23.5619 17.6794 L-25.0483 17.6838 L-26.5348 17.6881 L-28.0212 17.6925 L-29.5077 17.6969 L-30.9941 17.7012 L-30.2557 16.4098 L-29.5172 15.1184 L-28.7787 13.8269 L-28.0403 12.5355 L-27.3018 11.244 Z " />
<path stroke="rgb(200,255,200)" stroke-opacity="1" fill="rgb(200,255,200)" fill-opacity="1" id="tri_3_2_" d="M-26.3294 11.2249 L-27.0788 9.9386 L-27.8282 8.65231 L-28.5776 7.36603 L-29.327 6.07974 L-30.0764 4.79346 L-28.5889 4.78806 L-27.1014 4.78267 L-25.6139 4.77727 L-24.1264 4.77188 L-22.6389 4.76648 L-23.377 6.05816 L-24.1151 7.34984 L-24.8532 8.64152 L-25.5913 9.9332 L-26.3294 11.2249 Z " />
<path stroke="rgb(200,255,200)" stroke-opacity="1" fill="rgb(200,255,200)" fill-opacity="1" id="tri_5_3_" d="M-19.8076 24.1859 L-19.0601 25.4722 L-18.3127 26.7585 L-17.5652 28.0448 L-16.8177 29.3311 L-16.0703 30.6174 L-17.5568 30.6213 L-19.0433 30.6252 L-20.5298 30.6291 L-22.0164 30.633 L-23.5029 30.637 L-22.7639 29.3467 L-22.0248 28.0565 L-21.2857 26.7663 L-20.5467 25.4761 L-19.8076 24.1859 Z " />
<path stroke="rgb(200,255,200)" stroke-opacity="1" fill="rgb(200,255,200)" fill-opacity="1" id="tri_4_2_" d="M-18.8516 24.1444 L-19.5994 22.8579 L-20.3472 21.5714 L-21.0951 20.285 L-21.8429 18.9985 L-22.5907 17.7121 L-21.1043 17.7077 L-19.6178 17.7033 L-18.1314 17.6989 L-16.6449 17.6946 L-15.1585 17.6902 L-15.8971 18.981 L-16.6357 20.2719 L-17.3743 21.5627 L-18.113 22.8535 L-18.8516 24.1444 Z " />
<path stroke="rgb(200,255,200)" stroke-opacity="1" fill="rgb(200,255,200)" fill-opacity="1" id="tri_6_3_" d="M-12.3102 37.1285 L-11.5628 38.4149 L-10.8153 39.7012 L-10.0678 40.9876 L-9.32037 42.2739 L-8.57291 43.5603 L-10.0589 43.5646 L-11.5448 43.569 L-13.0308 43.5733 L-14.5167 43.5777 L-16.0026 43.582 L-15.2642 42.2913 L-14.5257 41.0006 L-13.7872 39.7099 L-13.0487 38.4192 L-12.3102 37.1285 Z " />
<path stroke="rgb(200,255,200)" stroke-opacity="1" fill="rgb(200,255,200)" fill-opacity="1" id="tri_5_2_" d="M-11.3633 37.086 L-12.1107 35.7993 L-12.858 34.5125 L-13.6054 33.2257 L-14.3528 31.939 L-15.1002 30.6522 L-13.6136 30.6483 L-12.1271 30.6444 L-10.6406 30.6404 L-9.15405 30.6365 L-7.66752 30.6326 L-8.40668 31.9233 L-9.14583 33.214 L-9.88499 34.5047 L-10.6241 35.7954 L-11.3633 37.086 Z " />
<path stroke="rgb(200,255,200)" stroke-opacity="1" fill="rgb(200,255,200)" fill-opacity="1" id="tri_7_3_" d="M-4.8177 50.073 L-4.07056 51.3592 L-3.32341 52.6454 L-2.57627 53.9316 L-1.82912 55.2178 L-1.08197 56.504 L-2.56742 56.5076 L-4.05287 56.5112 L-5.53832 56.5149 L-7.02376 56.5185 L-8.50921 56.5221 L-7.77091 55.2323 L-7.03261 53.9424 L-6.29431 52.6526 L-5.556 51.3628 L-4.8177 50.073 Z " />
<path stroke="rgb(200,255,200)" stroke-opacity="1" fill="rgb(200,255,200)" fill-opacity="1" id="tri_6_2_" d="M-3.86049 50.0285 L-4.60808 48.742 L-5.35568 47.4556 L-6.10327 46.1692 L-6.85086 44.8828 L-7.59846 43.5964 L-6.11251 43.592 L-4.62656 43.5877 L-3.14061 43.5833 L-1.65466 43.579 L-0.168714 43.5746 L-0.90707 44.8654 L-1.64543 46.1561 L-2.38378 47.4469 L-3.12214 48.7377 L-3.86049 50.0285 Z " />
<path stroke="rgb(200,255,200)" stroke-opacity="1" fill="rgb(200,255,200)" fill-opacity="1" id="tri_8_2_" d="M2.68993 63.0086 L3.43754 64.2938 L4.18515 65.5791 L4.93276 66.8644 L5.68036 68.1497 L6.42797 69.435 L4.94231 69.4399 L3.45665 69.4447 L1.971 69.4496 L0.485336 69.4544 L-1.00032 69.4593 L-0.262273 68.1691 L0.475779 66.879 L1.21383 65.5889 L1.95188 64.2987 L2.68993 63.0086 Z " />
<path stroke="rgb(200,255,200)" stroke-opacity="1" fill="rgb(200,255,200)" fill-opacity="1" id="tri_7_2_" d="M3.62923 62.9673 L2.88206 61.6814 L2.13489 60.3955 L1.38773 59.1096 L0.640561 57.8238 L-0.106605 56.5379 L1.37884 56.5343 L2.86429 56.5307 L4.34974 56.5271 L5.83518 56.5235 L7.32063 56.5198 L6.58235 57.8093 L5.84407 59.0988 L5.10579 60.3883 L4.36751 61.6778 L3.62923 62.9673 Z " />
<path stroke="rgb(200,255,200)" stroke-opacity="1" fill="rgb(200,255,200)" fill-opacity="1" id="tri_0_2_" d="M-72.3887 -39.4419 L-71.6274 -38.1693 L-70.8661 -36.8967 L-70.1048 -35.6241 L-69.3435 -34.3514 L-68.5822 -33.0788 L-70.0638 -33.0557 L-71.5453 -33.0326 L-73.0269 -33.0095 L-74.5084 -32.9864 L-75.99 -32.9632 L-75.2697 -34.259 L-74.5495 -35.5547 L-73.8292 -36.8504 L-73.109 -38.1462 L-72.3887 -39.4419 Z " />
<path stroke="rgb(200,255,200)" stroke-opacity="1" fill="rgb(200,255,200)" fill-opacity="1" id="tri_1_1_" d="M-64.7597 -27.0907 L-64.0047 -25.8109 L-63.2496 -24.5311 L-62.4946 -23.2513 L-61.7396 -21.9715 L-60.9846 -20.6917 L-62.4689 -20.6779 L-63.9532 -20.6641 L-65.4375 -20.6503 L-66.9218 -20.6365 L-68.4061 -20.6227 L-67.6768 -21.9163 L-66.9475 -23.2099 L-66.2182 -24.5035 L-65.489 -25.7971 L-64.7597 -27.0907 Z " />
<path stroke="rgb(200,255,200)" stroke-opacity="1" fill="rgb(200,255,200)" fill-opacity="1" id="tri_0_1_" d="M-63.8209 -26.695 L-64.5824 -27.9677 L-65.344 -29.2405 L-66.1056 -30.5132 L-66.8671 -31.786 L-67.6287 -33.0587 L-66.1471 -33.0819 L-64.6656 -33.105 L-63.184 -33.1281 L-61.7025 -33.1512 L-60.2209 -33.1743 L-60.9409 -31.8785 L-61.6609 -30.5826 L-62.3809 -29.2867 L-63.1009 -27.9908 L-63.8209 -26.695 Z " />
<path stroke="rgb(200,255,200)" stroke-opacity="1" fill="rgb(200,255,200)" fill-opacity="1" id="tri_2_1_" d="M-57.2297 -14.4578 L-56.4788 -13.1741 L-55.7279 -11.8904 L-54.977 -10.6066 L-54.2261 -9.3229 L-53.4751 -8.03918 L-54.9617 -8.03096 L-56.4483 -8.02275 L-57.9349 -8.01454 L-59.4215 -8.00633 L-60.9081 -7.99811 L-60.1724 -9.29005 L-59.4367 -10.582 L-58.701 -11.8739 L-57.9654 -13.1659 L-57.2297 -14.4578 Z " />
<path stroke="rgb(200,255,200)" stroke-opacity="1" fill="rgb(200,255,200)" fill-opacity="1" id="tri_1" d="M-56.2503 -14.2709 L-57.0053 -15.5503 L-57.7602 -16.8297 L-58.5151 -18.1091 L-59.27 -19.3884 L-60.0249 -20.6678 L-58.5406 -20.6816 L-57.0563 -20.6954 L-55.572 -20.7093 L-54.0877 -20.7231 L-52.6034 -20.7369 L-53.3328 -19.4437 L-54.0622 -18.1505 L-54.7916 -16.8573 L-55.521 -15.5641 L-56.2503 -14.2709 Z " />
<path stroke="rgb(200,255,200)" stroke-opacity="1" fill="rgb(200,255,200)" fill-opacity="1" id="tri_3_1_" d="M-49.7409 -1.62944 L-48.9911 -0.343596 L-48.2412 0.942246 L-47.4914 2.22809 L-46.7416 3.51393 L-45.9917 4.79977 L-47.4788 4.80559 L-48.9659 4.81142 L-50.453 4.81724 L-51.94 4.82306 L-53.4271 4.82888 L-52.6899 3.53721 L-51.9526 2.24555 L-51.2154 0.953888 L-50.4782 -0.337775 L-49.7409 -1.62944 Z " />
<path stroke="rgb(200,255,200)" stroke-opacity="1" fill="rgb(200,255,200)" fill-opacity="1" id="tri_2" d="M-48.7583 -1.58939 L-49.5095 -2.87347 L-50.2607 -4.15755 L-51.0119 -5.44163 L-51.7631 -6.72571 L-52.5143 -8.00978 L-51.0278 -8.018 L-49.5412 -8.02621 L-48.0546 -8.03442 L-46.568 -8.04263 L-45.0814 -8.05085 L-45.8168 -6.75855 L-46.5521 -5.46626 L-47.2875 -4.17397 L-48.0229 -2.88168 L-48.7583 -1.58939 Z " />
<path stroke="rgb(200,255,200)" stroke-opacity="1" fill="rgb(200,255,200)" fill-opacity="1" id="tri_4_1_" d="M-42.2595 11.267 L-41.5116 12.5535 L-40.7636 13.8401 L-40.0156 15.1266 L-39.2677 16.4131 L-38.5197 17.6997 L-40.0063 17.7042 L-41.4928 17.7087 L-42.9793 17.7132 L-44.4658 17.7177 L-45.9524 17.7222 L-45.2138 16.4311 L-44.4752 15.1401 L-43.7367 13.8491 L-42.9981 12.558 L-42.2595 11.267 Z " />
<path stroke="rgb(200,255,200)" stroke-opacity="1" fill="rgb(200,255,200)" fill-opacity="1" id="tri_3" d="M-41.2825 11.2593 L-42.0318 9.97358 L-42.7812 8.68783 L-43.5306 7.40208 L-44.28 6.11633 L-45.0293 4.83058 L-43.5423 4.82476 L-42.0552 4.81894 L-40.5681 4.81312 L-39.081 4.8073 L-37.594 4.80148 L-38.3317 6.09305 L-39.0694 7.38462 L-39.8071 8.67619 L-40.5448 9.96776 L-41.2825 11.2593 Z " />
<path stroke="rgb(200,255,200)" stroke-opacity="1" fill="rgb(200,255,200)" fill-opacity="1" id="tri_5_1_" d="M-34.7653 24.2049 L-34.0176 25.4916 L-33.2699 26.7784 L-32.5222 28.0652 L-31.7745 29.352 L-31.0268 30.6388 L-32.5136 30.6426 L-34.0004 30.6463 L-35.4872 30.6501 L-36.974 30.6539 L-38.4608 30.6576 L-37.7217 29.3671 L-36.9826 28.0765 L-36.2435 26.786 L-35.5044 25.4954 L-34.7653 24.2049 Z " />
<path stroke="rgb(200,255,200)" stroke-opacity="1" fill="rgb(200,255,200)" fill-opacity="1" id="tri_4" d="M-33.8084 24.1673 L-34.5565 22.8803 L-35.3045 21.5934 L-36.0526 20.3064 L-36.8007 19.0195 L-37.5487 17.7326 L-36.0622 17.7281 L-34.5757 17.7236 L-33.0891 17.7191 L-31.6026 17.7146 L-30.1161 17.7101 L-30.8545 19.0015 L-31.593 20.2929 L-32.3315 21.5844 L-33.0699 22.8758 L-33.8084 24.1673 Z " />
<path stroke="rgb(200,255,200)" stroke-opacity="1" fill="rgb(200,255,200)" fill-opacity="1" id="tri_6_1_" d="M-27.2673 37.1507 L-26.5195 38.4367 L-25.7717 39.7228 L-25.0239 41.0088 L-24.2761 42.2948 L-23.5282 43.5808 L-25.0146 43.5856 L-26.501 43.5904 L-27.9874 43.5952 L-29.4737 43.6 L-30.9601 43.6048 L-30.2216 42.314 L-29.483 41.0232 L-28.7444 39.7323 L-28.0059 38.4415 L-27.2673 37.1507 Z " />
<path stroke="rgb(200,255,200)" stroke-opacity="1" fill="rgb(200,255,200)" fill-opacity="1" id="tri_5" d="M-26.3193 37.1041 L-27.067 35.8176 L-27.8148 34.5311 L-28.5625 33.2447 L-29.3102 31.9582 L-30.058 30.6718 L-28.5712 30.668 L-27.0844 30.6642 L-25.5976 30.6605 L-24.1108 30.6567 L-22.624 30.6529 L-23.3631 31.9432 L-24.1021 33.2334 L-24.8412 34.5236 L-25.5802 35.8138 L-26.3193 37.1041 Z " />
<path stroke="rgb(200,255,200)" stroke-opacity="1" fill="rgb(200,255,200)" fill-opacity="1" id="tri_7_1_" d="M-19.7763 50.0955 L-19.0288 51.3812 L-18.2814 52.6668 L-17.5339 53.9525 L-16.7865 55.2382 L-16.039 56.5239 L-17.525 56.5278 L-19.0109 56.5316 L-20.4968 56.5355 L-21.9828 56.5393 L-23.4687 56.5431 L-22.7302 55.2536 L-21.9917 53.9641 L-21.2532 52.6745 L-20.5147 51.385 L-19.7763 50.0955 Z " />
<path stroke="rgb(200,255,200)" stroke-opacity="1" fill="rgb(200,255,200)" fill-opacity="1" id="tri_6" d="M-18.8177 50.0479 L-19.5656 48.762 L-20.3135 47.4761 L-21.0614 46.1902 L-21.8093 44.9043 L-22.5572 43.6184 L-21.0708 43.6136 L-19.5844 43.6088 L-18.0981 43.604 L-16.6117 43.5992 L-15.1253 43.5944 L-15.8638 44.8851 L-16.6023 46.1758 L-17.3408 47.4665 L-18.0792 48.7572 L-18.8177 50.0479 Z " />
<path stroke="rgb(200,255,200)" stroke-opacity="1" fill="rgb(200,255,200)" fill-opacity="1" id="tri_8_1_" d="M-12.2678 63.033 L-11.5197 64.3184 L-10.7717 65.6038 L-10.0236 66.8891 L-9.27554 68.1745 L-8.52747 69.4599 L-10.0133 69.4648 L-11.4992 69.4697 L-12.9851 69.4746 L-14.4709 69.4796 L-15.9568 69.4845 L-15.219 68.1942 L-14.4812 66.9039 L-13.7434 65.6136 L-13.0056 64.3233 L-12.2678 63.033 Z " />
<path stroke="rgb(200,255,200)" stroke-opacity="1" fill="rgb(200,255,200)" fill-opacity="1" id="tri_7" d="M-11.3285 62.9879 L-12.0762 61.7019 L-12.8238 60.416 L-13.5714 59.13 L-14.319 57.844 L-15.0667 56.5581 L-13.5807 56.5542 L-12.0948 56.5504 L-10.6089 56.5465 L-9.12296 56.5427 L-7.63703 56.5388 L-8.37533 57.8286 L-9.11363 59.1184 L-9.85193 60.4083 L-10.5902 61.6981 L-11.3285 62.9879 Z " />
<path stroke="rgb(200,255,200)" stroke-opacity="1" fill="rgb(200,255,200)" fill-opacity="1" id="tri_9" d="M-4.78445 75.9806 L-4.0374 77.2657 L-3.29034 78.5509 L-2.54328 79.836 L-1.79623 81.1211 L-1.04917 82.4063 L-2.53403 82.4105 L-4.01889 82.4148 L-5.50375 82.4191 L-6.98861 82.4233 L-8.47347 82.4276 L-7.73567 81.1382 L-6.99786 79.8488 L-6.26006 78.5594 L-5.52225 77.27 L-4.78445 75.9806 Z " />
<path stroke="rgb(200,255,200)" stroke-opacity="1" fill="rgb(200,255,200)" fill-opacity="1" id="tri_8" d="M-3.81586 75.9251 L-4.56367 74.6399 L-5.31149 73.3546 L-6.0593 72.0694 L-6.80711 70.7842 L-7.55492 69.4989 L-6.06906 69.494 L-4.58319 69.4891 L-3.09733 69.4842 L-1.61147 69.4793 L-0.125606 69.4744 L-0.863657 70.7645 L-1.60171 72.0547 L-2.33976 73.3448 L-3.07781 74.6349 L-3.81586 75.9251 Z " />
</g>
</g>
</svg>
