<!DOCTYPE svg>
<svg xmlns="http://www.w3.org/2000/svg" xmlns:xlink="http://www.w3.org/1999/xlink" width="600" height="600">
<g transform="translate(300.000000,300.000000)">
<g transform="scale(3.000000,3.000000)">
<path stroke="rgb(0,0,0)" stroke-opacity="1" fill="rgb(255,255,255)" fill-opacity="1" id="Layer_1" d="M107.411 107.089 L105.406 107.092 L103.402 107.095 L101.397 107.098 L99.3922 107.101 L97.3875 107.104 L95.3828 107.107 L93.3782 107.11 L91.3735 107.113 L89.3688 107.116 L87.3641 107.119 L85.3595 107.122 L83.3548 107.125 L81.3501 107.128 L79.3455 107.131 L77.3408 107.134 L75.3361 107.137 L73.3314 107.14 L71.3268 107.143 L69.3221 107.146 L67.3174 107.149 L65.3127 107.152 L63.3081 107.155 L61.3034 107.158 L59.2987 107.161 L57.2941 107.164 L55.2894 107.167 L53.2847 107.17 L51.28 107.173 L49.2754 107.176 L47.2707 107.179 L45.266 107.182 L43.2613 107.185 L41.2567 107.188 L39.252 107.191 L37.2473 107.194 L35.2426 107.197 L33.238 107.2 L31.2333 107.203 L29.2286 107.206 L27.224 107.209 L25.2193 107.212 L23.2146 107.215 L21.2099 107.218 L19.2053 107.221 L17.2006 107.224 L15.1959 107.227 L13.1912 107.23 L11.1866 107.233 L9.1819 107.236 L7.17723 107.239 L5.17256 107.242 L3.16788 107.245 L1.16321 107.248 L-0.841463 107.252 L-2.84614 107.255 L-4.85081 107.258 L-6.85548 107.261 L-8.86015 107.264 L-10.8648 107.267 L-12.8695 107.27 L-14.8742 107.273 L-16.8788 107.276 L-18.8835 107.279 L-20.8882 107.282 L-22.8929 107.285 L-24.8975 107.288 L-26.9022 107.291 L-28.9069 107.294 L-30.9116 107.297 L-32.9162 107.3 L-34.9209 107.303 L-36.9256 107.306 L-38.9302 107.309 L-40.9349 107.312 L-42.9396 107.315 L-44.9443 107.318 L-46.9489 107.321 L-48.9536 107.324 L-50.9583 107.327 L-52.963 107.33 L-54.9676 107.333 L-56.9723 107.336 L-58.977 107.339 L-60.9816 107.342 L-62.9863 107.345 L-64.991 107.348 L-66.9957 107.351 L-69.0003 107.354 L-71.005 107.357 L-73.0097 107.36 L-75.0144 107.363 L-77.019 107.366 L-79.0237 107.369 L-81.0284 107.372 L-83.0331 107.375 L-85.0377 107.378 L-87.0424 107.381 L-89.0471 107.384 L-91.0517 107.387 L-93.0564 107.39 L-95.0611 107.393 L-97.0658 107.396 L-99.0704 107.399 L-101.075 107.402 L-103.08 107.405 L-105.084 107.408 L-107.089 107.411 L-107.092 105.406 L-107.095 103.402 L-107.098 101.397 L-107.101 99.3922 L-107.104 97.3875 L-107.107 95.3828 L-107.11 93.3782 L-107.113 91.3735 L-107.116 89.3688 L-107.119 87.3641 L-107.122 85.3595 L-107.125 83.3548 L-107.128 81.3501 L-107.131 79.3455 L-107.134 77.3408 L-107.137 75.3361 L-107.14 73.3314 L-107.143 71.3268 L-107.146 69.3221 L-107.149 67.3174 L-107.152 65.3127 L-107.155 63.3081 L-107.158 61.3034 L-107.161 59.2987 L-107.164 57.2941 L-107.167 55.2894 L-107.17 53.2847 L-107.173 51.28 L-107.176 49.2754 L-107.179 47.2707 L-107.182 45.266 L-107.185 43.2613 L-107.188 41.2567 L-107.191 39.252 L-107.194 37.2473 L-107.197 35.2426 L-107.2 33.238 L-107.203 31.2333 L-107.206 29.2286 L-107.209 27.224 L-107.212 25.2193 L-107.215 23.2146 L-107.218 21.2099 L-107.221 19.2053 L-107.224 17.2006 L-107.227 15.1959 L-107.23 13.1912 L-107.233 11.1866 L-107.236 9.1819 L-107.239 7.17722 L-107.242 5.17255 L-107.245 3.16788 L-107.248 1.1632 L-107.251 -0.841469 L-107.255 -2.84614 L-107.258 -4.85081 L-107.261 -6.85549 L-107.264 -8.86016 L-107.267 -10.8648 L-107.27 -12.8695 L-107.273 -14.8742 L-107.276 -16.8789 L-107.279 -18.8835 L-107.282 -20.8882 L-107.285 -22.8929 L-107.288 -24.8975 L-107.291 -26.9022 L-107.294 -28.9069 L-107.297 -30.9116 L-107.3 -32.9162 L-107.303 -34.9209 L-107.306 -36.9256 L-107.309 -38.9303 L-107.312 -40.9349 L-107.315 -42.9396 L-107.318 -44.9443 L-107.321 -46.9489 L-107.324 -48.9536 L-107.327 -50.9583 L-107.33 -52.963 L-107.333 -54.9676 L-107.336 -56.9723 L-107.339 -58.977 L-107.342 -60.9817 L-107.345 -62.9863 L-107.348 -64.991 L-107.351 -66.9957 L-107.354 -69.0003 L-107.357 -71.005 L-107.36 -73.0097 L-107.363 -75.0144 L-107.366 -77.019 L-107.369 -79.0237 L-107.372 -81.0284 L-107.375 -83.0331 L-107.378 -85.0377 L-107.381 -87.0424 L-107.384 -89.0471 L-107.387 -91.0518 L-107.39 -93.0564 L-107.393 -95.0611 L-107.396 -97.0658 L-107.399 -99.0704 L-107.402 -101.075 L-107.405 -103.08 L-107.408 -105.084 L-107.411 -107.089 L-105.406 -107.092 L-103.402 -107.095 L-101.397 -107.098 L-99.3922 -107.101 L-97.3875 -107.104 L-95.3828 -107.107 L-93.3782 -107.11 L-91.3735 -107.113 L-89.3688 -107.116 L-87.3641 -107.119 L-85.3595 -107.122 L-83.3548 -107.125 L-81.3501 -107.128 L-79.3455 -107.131 L-77.3408 -107.134 L-75.3361 -107.137 L-73.3314 -107.14 L-71.3268 -107.143 L-69.3221 -107.146 L-67.3174 -107.149 L-65.3127 -107.152 L-63.3081 -107.155 L-61.3034 -107.158 L-59.2987 -107.161 L-57.2941 -107.164 L-55.2894 -107.167 L-53.2847 -107.17 L-51.28 -107.173 L-49.2754 -107.176 L-47.2707 -107.179 L-45.266 -107.182 L-43.2613 -107.185 L-41.2567 -107.188 L-39.252 -107.191 L-37.2473 -107.194 L-35.2426 -107.197 L-33.238 -107.2 L-31.2333 -107.203 L-29.2286 -107.206 L-27.224 -107.209 L-25.2193 -107.212 L-23.2146 -107.215 L-21.2099 -107.218 L-19.2053 -107.221 L-17.2006 -107.224 L-15.1959 -107.227 L-13.1912 -107.23 L-11.1866 -107.233 L-9.1819 -107.236 L-7.17723 -107.239 L-5.17256 -107.242 L-3.16788 -107.245 L-1.16321 -107.248 L0.841463 -107.252 L2.84614 -107.255 L4.85081 -107.258 L6.85548 -107.261 L8.86015 -107.264 L10.8648 -107.267 L12.8695 -107.27 L14.8742 -107.273 L16.8788 -107.276 L18.8835 -107.279 L20.8882 -107.282 L22.8929 -107.285 L24.8975 -107.288 L26.9022 -107.291 L28.9069 -107.294 L30.9116 -107.297 L32.9162 -107.3 L34.9209 -107.303 L36.9256 -107.306 L38.9302 -107.309 L40.9349 -107.312 L42.9396 -107.315 L44.9443 -107.318 L46.9489 -107.321 L48.9536 -107.324 L50.9583 -107.327 L52.963 -107.33 L54.9676 -107.333 L56.9723 -107.336 L58.977 -107.339 L60.9816 -107.342 L62.9863 -107.345 L64.991 -107.348 L66.9957 -107.351 L69.0003 -107.354 L71.005 -107.357 L73.0097 -107.36 L75.0144 -107.363 L77.019 -107.366 L79.0237 -107.369 L81.0284 -107.372 L83.0331 -107.375 L85.0377 -107.378 L87.0424 -107.381 L89.0471 -107.384 L91.0517 -107.387 L93.0564 -107.39 L95.0611 -107.393 L97.0658 -107.396 L99.0704 -107.399 L101.075 -107.402 L103.08 -107.405 L105.084 -107.408 L107.089 -107.411 L107.092 -105.406 L107.095 -103.402 L107.098 -101.397 L107.101 -99.3922 L107.104 -97.3875 L107.107 -95.3828 L107.11 -93.3782 L107.113 -91.3735 L107.116 -89.3688 L107.119 -87.3642 L107.122 -85.3595 L107.125 -83.3548 L107.128 -81.3501 L107.131 -79.3455 L107.134 -77.3408 L107.137 -75.3361 L107.14 -73.3314 L107.143 -71.3268 L107.146 -69.3221 L107.149 -67.3174 L107.152 -65.3128 L107.155 -63.3081 L107.158 -61.3034 L107.161 -59.2987 L107.164 -57.2941 L107.167 -55.2894 L107.17 -53.2847 L107.173 -51.28 L107.176 -49.2754 L107.179 -47.2707 L107.182 -45.266 L107.185 -43.2613 L107.188 -41.2567 L107.191 -39.252 L107.194 -37.2473 L107.197 -35.2427 L107.2 -33.238 L107.203 -31.2333 L107.206 -29.2286 L107.209 -27.224 L107.212 -25.2193 L107.215 -23.2146 L107.218 -21.2099 L107.221 -19.2053 L107.224 -17.2006 L107.227 -15.1959 L107.23 -13.1913 L107.233 -11.1866 L107.236 -9.18191 L107.239 -7.17724 L107.242 -5.17256 L107.245 -3.16789 L107.248 -1.16322 L107.251 0.841455 L107.255 2.84613 L107.258 4.8508 L107.261 6.85547 L107.264 8.86015 L107.267 10.8648 L107.27 12.8695 L107.273 14.8742 L107.276 16.8788 L107.279 18.8835 L107.282 20.8882 L107.285 22.8929 L107.288 24.8975 L107.291 26.9022 L107.294 28.9069 L107.297 30.9115 L107.3 32.9162 L107.303 34.9209 L107.306 36.9256 L107.309 38.9302 L107.312 40.9349 L107.315 42.9396 L107.318 44.9443 L107.321 46.9489 L107.324 48.9536 L107.327 50.9583 L107.33 52.963 L107.333 54.9676 L107.336 56.9723 L107.339 58.977 L107.342 60.9816 L107.345 62.9863 L107.348 64.991 L107.351 66.9957 L107.354 69.0003 L107.357 71.005 L107.36 73.0097 L107.363 75.0144 L107.366 77.019 L107.369 79.0237 L107.372 81.0284 L107.375 83.033 L107.378 85.0377 L107.381 87.0424 L107.384 89.0471 L107.387 91.0517 L107.39 93.0564 L107.393 95.0611 L107.396 97.0658 L107.399 99.0704 L107.402 101.075 L107.405 103.08 L107.408 105.084 L107.411 107.089 Z " />
<path stroke="rgb(169,255,187)" stroke-opacity="1" fill="rgb(169,255,187)" fill-opacity="1" id="scalebar" d="M-3.69904 -94.609 L-1.65554 -94.609 L0.387962 -94.609 L2.43146 -94.609 L4.47496 -94.609 L4.47496 -92.6686 L4.47496 -90.7281 L4.47496 -88.7876 L4.47496 -86.8472 L4.47496 -84.9067 L4.47496 -82.9663 L4.47496 -81.0258 L4.47496 -79.0853 L4.47496 -77.1449 L4.47496 -75.2044 L4.47496 -73.2639 L4.47496 -71.3235 L4.47496 -69.383 L2.43146 -69.383 L0.387962 -69.383 L-1.65554 -69.383 L-3.69904 -69.383 L-3.69904 -71.3235 L-3.69904 -73.2639 L-3.69904 -75.2044 L-3.69904 -77.1449 L-3.69904 -79.0853 L-3.69904 -81.0258 L-3.69904 -82.9663 L-3.69904 -84.9067 L-3.69904 -86.8472 L-3.69904 -88.7876 L-3.69904 -90.7281 L-3.69904 -92.6686 L-3.69904 -94.609 Z " />
<path stroke="rgb(200,255,200)" stroke-opacity="1" fill="rgb(200,255,200)" fill-opacity="1" id="scaleslider" d="M-6.69904 -84.5724 L-4.67418 -84.5724 L-2.64932 -84.5724 L-0.624466 -84.5724 L1.40039 -84.5724 L3.42525 -84.5724 L5.4501 -84.5724 L7.47496 -84.5724 L7.47496 -82.8457 L7.47496 -81.1191 L7.47496 -79.3924 L5.4501 -79.3924 L3.42525 -79.3924 L1.40039 -79.3924 L-0.624466 -79.3924 L-2.64932 -79.3924 L-4.67418 -79.3924 L-6.69904 -79.3924 L-6.69904 -81.1191 L-6.69904 -82.8457 L-6.69904 -84.5724 Z " />
<path stroke="rgb(255,134,106)" stroke-opacity="1" fill="rgb(255,134,106)" fill-opacity="1" id="tranbar" d="M-49.142 -86.146 L-47.0675 -86.146 L-44.993 -86.146 L-42.9185 -86.146 L-40.844 -86.146 L-40.844 -88.2208 L-40.844 -90.2955 L-40.844 -92.3703 L-40.844 -94.445 L-38.7685 -94.445 L-36.693 -94.445 L-34.6175 -94.445 L-32.542 -94.445 L-32.542 -92.3703 L-32.542 -90.2955 L-32.542 -88.2208 L-32.542 -86.146 L-30.4673 -86.146 L-28.3925 -86.146 L-26.3178 -86.146 L-24.243 -86.146 L-24.243 -84.0715 L-24.243 -81.997 L-24.243 -79.9225 L-24.243 -77.848 L-26.3178 -77.848 L-28.3925 -77.848 L-30.4673 -77.848 L-32.542 -77.848 L-32.542 -75.773 L-32.542 -73.698 L-32.542 -71.623 L-32.542 -69.548 L-34.6175 -69.548 L-36.693 -69.548 L-38.7685 -69.548 L-40.844 -69.548 L-40.844 -71.623 L-40.844 -73.698 L-40.844 -75.773 L-40.844 -77.848 L-42.9185 -77.848 L-44.993 -77.848 L-47.0675 -77.848 L-49.142 -77.848 L-49.142 -79.9225 L-49.142 -81.997 L-49.142 -84.0715 L-49.142 -86.146 Z " />
<path stroke="rgb(255,250,159)" stroke-opacity="1" fill="rgb(255,250,159)" fill-opacity="1" id="translider" d="M-39.248 -84.553 L-37.5447 -84.553 L-35.8414 -84.553 L-34.138 -84.553 L-34.138 -82.85 L-34.138 -81.147 L-34.138 -79.444 L-35.8414 -79.444 L-37.5447 -79.444 L-39.248 -79.444 L-39.248 -81.147 L-39.248 -82.85 L-39.248 -84.553 Z " />
<path stroke="rgb(254,204,128)" stroke-opacity="1" fill="rgb(254,204,128)" fill-opacity="1" id="rotate" d="M32.6648 -73.6133 L31.6928 -75.2833 L30.7208 -76.9533 L29.7488 -78.6233 L28.7768 -80.2933 L27.8048 -81.9633 L28.7654 -83.6401 L29.726 -85.3169 L30.6866 -86.9937 L31.6472 -88.6705 L32.6079 -90.3473 L34.5405 -90.3539 L36.4731 -90.3605 L38.4057 -90.3671 L40.3383 -90.3736 L42.2709 -90.3802 L43.2429 -88.71 L44.2149 -87.0398 L45.1869 -85.3696 L46.1589 -83.6994 L47.1309 -82.0292 L46.1703 -80.3526 L45.2097 -78.676 L44.2491 -76.9994 L43.2885 -75.3228 L42.3279 -73.6462 L40.3953 -73.6396 L38.4627 -73.633 L36.5301 -73.6264 L34.5974 -73.6199 L32.6648 -73.6133 Z " />
<path stroke="rgb(200,255,200)" stroke-opacity="1" fill="rgb(200,255,200)" fill-opacity="1" id="tri_0" d="M-5.04232 -45.595 L-4.0478 -47.3092 L-3.05329 -49.0234 L-2.05877 -50.7376 L-1.06425 -52.4518 L-0.0697398 -54.166 L0.917729 -52.4482 L1.9052 -50.7304 L2.89266 -49.0126 L3.88013 -47.2949 L4.8676 -45.5771 L2.88562 -45.5807 L0.903633 -45.5843 L-1.07835 -45.5878 L-3.06033 -45.5914 L-5.04232 -45.595 Z " />
<path stroke="rgb(200,255,200)" stroke-opacity="1" fill="rgb(200,255,200)" fill-opacity="1" id="tri_0_18_" d="M-10.0123 -36.948 L-9.01881 -38.6622 L-8.02529 -40.3764 L-7.03177 -42.0906 L-6.03825 -43.8048 L-5.04473 -45.519 L-4.05686 -43.801 L-3.069 -42.083 L-2.08113 -40.365 L-1.09326 -38.6471 L-0.105397 -36.9291 L-2.08678 -36.9329 L-4.06817 -36.9367 L-6.04956 -36.9404 L-8.03094 -36.9442 L-10.0123 -36.948 Z " />
<path stroke="rgb(200,255,200)" stroke-opacity="1" fill="rgb(200,255,200)" fill-opacity="1" id="tri_1_16_" d="M-0.0382667 -36.9503 L0.953122 -38.6694 L1.94451 -40.3885 L2.9359 -42.1076 L3.92728 -43.8266 L4.91867 -45.5457 L5.91176 -43.8276 L6.90486 -42.1094 L7.89795 -40.3913 L8.89104 -38.6731 L9.88413 -36.9549 L7.89965 -36.954 L5.91517 -36.9531 L3.93069 -36.9522 L1.94621 -36.9513 L-0.0382667 -36.9503 Z " />
<path stroke="rgb(200,255,200)" stroke-opacity="1" fill="rgb(200,255,200)" fill-opacity="1" id="tri_0_17_" d="M4.89125 -45.543 L3.89713 -43.8286 L2.90301 -42.1142 L1.90889 -40.3999 L0.914776 -38.6855 L-0.0793427 -36.9711 L-1.06721 -38.6891 L-2.05507 -40.407 L-3.04294 -42.125 L-4.03081 -43.843 L-5.01867 -45.561 L-3.03669 -45.5574 L-1.05471 -45.5538 L0.927279 -45.5502 L2.90926 -45.5466 L4.89125 -45.543 Z " />
<path stroke="rgb(200,255,200)" stroke-opacity="1" fill="rgb(200,255,200)" fill-opacity="1" id="tri_0_16_" d="M-14.9863 -28.298 L-13.992 -30.0128 L-12.9977 -31.7276 L-12.0034 -33.4424 L-11.009 -35.1572 L-10.0147 -36.8719 L-9.02706 -35.1532 L-8.0394 -33.4344 L-7.05174 -31.7156 L-6.06407 -29.9969 L-5.07641 -28.2781 L-7.05839 -28.2821 L-9.04037 -28.2861 L-11.0224 -28.2901 L-13.0043 -28.294 L-14.9863 -28.298 Z " />
<path stroke="rgb(200,255,200)" stroke-opacity="1" fill="rgb(200,255,200)" fill-opacity="1" id="tri_1_15_" d="M-5.00927 -28.2993 L-4.01828 -30.019 L-3.02729 -31.7387 L-2.0363 -33.4584 L-1.04531 -35.178 L-0.0543198 -36.8977 L0.93897 -35.179 L1.93226 -33.4602 L2.92555 -31.7415 L3.91884 -30.0227 L4.91213 -28.304 L2.92785 -28.303 L0.943569 -28.3021 L-1.04071 -28.3012 L-3.02499 -28.3003 L-5.00927 -28.2993 Z " />
<path stroke="rgb(200,255,200)" stroke-opacity="1" fill="rgb(200,255,200)" fill-opacity="1" id="tri_0_15_" d="M-0.0817404 -36.895 L-1.07546 -35.18 L-2.06919 -33.465 L-3.06291 -31.7501 L-4.05663 -30.0351 L-5.05035 -28.3201 L-6.03802 -30.0389 L-7.02568 -31.7576 L-8.01334 -33.4764 L-9.00101 -35.1952 L-9.98867 -36.914 L-8.00728 -36.9102 L-6.0259 -36.9064 L-4.04451 -36.9026 L-2.06313 -36.8988 L-0.0817404 -36.895 Z " />
<path stroke="rgb(200,255,200)" stroke-opacity="1" fill="rgb(200,255,200)" fill-opacity="1" id="tri_2_14_" d="M4.96636 -28.3105 L5.95626 -30.0319 L6.94616 -31.7533 L7.93605 -33.4748 L8.92595 -35.1962 L9.91584 -36.9177 L10.9109 -35.1989 L11.906 -33.4802 L12.9011 -31.7615 L13.8961 -30.0428 L14.8912 -28.3241 L12.9062 -28.3214 L10.9213 -28.3186 L8.9363 -28.3159 L6.95133 -28.3132 L4.96636 -28.3105 Z " />
<path stroke="rgb(200,255,200)" stroke-opacity="1" fill="rgb(200,255,200)" fill-opacity="1" id="tri_1_14_" d="M9.8942 -36.9267 L8.90301 -35.207 L7.91182 -33.4874 L6.92063 -31.7677 L5.92944 -30.048 L4.93825 -28.3283 L3.94496 -30.0471 L2.95167 -31.7658 L1.95838 -33.4846 L0.965088 -35.2033 L-0.0282024 -36.9221 L1.95628 -36.923 L3.94076 -36.9239 L5.92524 -36.9249 L7.90972 -36.9258 L9.8942 -36.9267 Z " />
<path stroke="rgb(200,255,200)" stroke-opacity="1" fill="rgb(200,255,200)" fill-opacity="1" id="tri_0_14_" d="M-19.9593 -19.647 L-18.9652 -21.362 L-17.9711 -23.077 L-16.977 -24.792 L-15.9829 -26.507 L-14.9887 -28.2219 L-14.0015 -26.5034 L-13.0142 -24.7848 L-12.0269 -23.0662 L-11.0397 -21.3477 L-10.0524 -19.6291 L-12.0338 -19.6327 L-14.0152 -19.6363 L-15.9966 -19.6399 L-17.9779 -19.6434 L-19.9593 -19.647 Z " />
<path stroke="rgb(200,255,200)" stroke-opacity="1" fill="rgb(200,255,200)" fill-opacity="1" id="tri_1_13_" d="M-9.98526 -19.6504 L-8.99328 -21.3696 L-8.00129 -23.0889 L-7.00931 -24.8082 L-6.01732 -26.5274 L-5.02533 -28.2467 L-4.03224 -26.5286 L-3.03915 -24.8104 L-2.04606 -23.0923 L-1.05297 -21.3741 L-0.059874 -19.6559 L-2.04495 -19.6548 L-4.03003 -19.6537 L-6.01511 -19.6526 L-8.00019 -19.6515 L-9.98526 -19.6504 Z " />
<path stroke="rgb(200,255,200)" stroke-opacity="1" fill="rgb(200,255,200)" fill-opacity="1" id="tri_0_13_" d="M-5.05276 -28.244 L-6.04748 -26.5294 L-7.04219 -24.8149 L-8.03691 -23.1003 L-9.03162 -21.3857 L-10.0263 -19.6711 L-11.0136 -21.3897 L-12.0009 -23.1082 L-12.9881 -24.8268 L-13.9754 -26.5454 L-14.9627 -28.264 L-12.9807 -28.26 L-10.9987 -28.256 L-9.01673 -28.252 L-7.03474 -28.248 L-5.05276 -28.244 Z " />
<path stroke="rgb(200,255,200)" stroke-opacity="1" fill="rgb(200,255,200)" fill-opacity="1" id="tri_2_13_" d="M-0.00563643 -19.6624 L0.98426 -21.3833 L1.97416 -23.1041 L2.96405 -24.825 L3.95395 -26.5458 L4.94384 -28.2667 L5.93892 -26.5484 L6.93399 -24.83 L7.92906 -23.1117 L8.92413 -21.3934 L9.9192 -19.6751 L7.93423 -19.6726 L5.94926 -19.67 L3.9643 -19.6675 L1.97933 -19.665 L-0.00563643 -19.6624 Z " />
<path stroke="rgb(200,255,200)" stroke-opacity="1" fill="rgb(200,255,200)" fill-opacity="1" id="tri_1_12_" d="M4.9222 -28.2757 L3.93101 -26.5566 L2.93982 -24.8376 L1.94863 -23.1185 L0.957441 -21.3994 L-0.0337476 -19.6803 L-1.02684 -21.3985 L-2.01993 -23.1166 L-3.01302 -24.8348 L-4.00612 -26.5529 L-4.99921 -28.2711 L-3.01493 -28.272 L-1.03065 -28.2729 L0.953635 -28.2739 L2.93792 -28.2748 L4.9222 -28.2757 Z " />
<path stroke="rgb(200,255,200)" stroke-opacity="1" fill="rgb(200,255,200)" fill-opacity="1" id="tri_3_12_" d="M9.96934 -19.6766 L10.9588 -21.3977 L11.9482 -23.1189 L12.9376 -24.84 L13.927 -26.5612 L14.9165 -28.2823 L15.9125 -26.5651 L16.9084 -24.848 L17.9044 -23.1308 L18.9004 -21.4136 L19.8964 -19.6965 L17.911 -19.6925 L15.9256 -19.6885 L13.9402 -19.6845 L11.9547 -19.6806 L9.96934 -19.6766 Z " />
<path stroke="rgb(200,255,200)" stroke-opacity="1" fill="rgb(200,255,200)" fill-opacity="1" id="tri_2_12_" d="M14.8956 -28.2976 L13.9057 -26.5766 L12.9158 -24.8555 L11.9259 -23.1345 L10.936 -21.4134 L9.94608 -19.6924 L8.95101 -21.4107 L7.95594 -23.129 L6.96087 -24.8473 L5.9658 -26.5657 L4.97073 -28.284 L6.95569 -28.2867 L8.94066 -28.2894 L10.9256 -28.2922 L12.9106 -28.2949 L14.8956 -28.2976 Z " />
<path stroke="rgb(200,255,200)" stroke-opacity="1" fill="rgb(200,255,200)" fill-opacity="1" id="tri_0_12_" d="M-24.9313 -11.002 L-23.9374 -12.7158 L-22.9435 -14.4296 L-21.9496 -16.1434 L-20.9557 -17.8572 L-19.9617 -19.571 L-18.9741 -17.8528 L-17.9864 -16.1346 L-16.9987 -14.4164 L-16.0111 -12.6983 L-15.0234 -10.9801 L-17.005 -10.9845 L-18.9866 -10.9889 L-20.9682 -10.9932 L-22.9497 -10.9976 L-24.9313 -11.002 Z " />
<path stroke="rgb(200,255,200)" stroke-opacity="1" fill="rgb(200,255,200)" fill-opacity="1" id="tri_1_11_" d="M-14.9563 -11.0013 L-13.9653 -12.7206 L-12.9743 -14.4399 L-11.9833 -16.1592 L-10.9923 -17.8784 L-10.0013 -19.5977 L-9.00804 -17.8794 L-8.01474 -16.161 L-7.02145 -14.4427 L-6.02816 -12.7243 L-5.03487 -11.0059 L-7.01915 -11.005 L-9.00343 -11.0041 L-10.9877 -11.0032 L-12.972 -11.0023 L-14.9563 -11.0013 Z " />
<path stroke="rgb(200,255,200)" stroke-opacity="1" fill="rgb(200,255,200)" fill-opacity="1" id="tri_0_11_" d="M-10.0287 -19.595 L-11.0225 -17.8804 L-12.0162 -16.1658 L-13.0099 -14.4513 L-14.0036 -12.7367 L-14.9973 -11.0221 L-15.985 -12.7403 L-16.9727 -14.4584 L-17.9603 -16.1766 L-18.948 -17.8948 L-19.9357 -19.613 L-17.9543 -19.6094 L-15.9729 -19.6058 L-13.9915 -19.6022 L-12.0101 -19.5986 L-10.0287 -19.595 Z " />
<path stroke="rgb(200,255,200)" stroke-opacity="1" fill="rgb(200,255,200)" fill-opacity="1" id="tri_2_11_" d="M-4.98063 -11.0125 L-3.99014 -12.7337 L-2.99964 -14.4549 L-2.00915 -16.1762 L-1.01866 -17.8974 L-0.0281642 -19.6187 L0.966508 -17.9005 L1.96118 -16.1824 L2.95585 -14.4643 L3.95053 -12.7462 L4.9452 -11.0281 L2.96003 -11.0249 L0.974868 -11.0218 L-1.0103 -11.0187 L-2.99546 -11.0156 L-4.98063 -11.0125 Z " />
<path stroke="rgb(200,255,200)" stroke-opacity="1" fill="rgb(200,255,200)" fill-opacity="1" id="tri_1_10_" d="M-0.0498143 -19.6277 L-1.0416 -17.9082 L-2.03339 -16.1888 L-3.02517 -14.4693 L-4.01696 -12.7498 L-5.00874 -11.0303 L-6.00203 -12.7487 L-6.99533 -14.467 L-7.98862 -16.1854 L-8.98191 -17.9038 L-9.9752 -19.6221 L-7.99013 -19.6232 L-6.00505 -19.6243 L-4.01997 -19.6255 L-2.03489 -19.6266 L-0.0498143 -19.6277 Z " />
<path stroke="rgb(200,255,200)" stroke-opacity="1" fill="rgb(200,255,200)" fill-opacity="1" id="tri_3_11_" d="M4.99534 -11.0296 L5.98517 -12.7503 L6.97499 -14.4711 L7.96482 -16.1918 L8.95465 -17.9126 L9.94447 -19.6333 L10.9401 -17.9157 L11.9356 -16.1982 L12.9312 -14.4806 L13.9268 -12.763 L14.9224 -11.0455 L12.937 -11.0423 L10.9516 -11.0391 L8.96616 -11.0359 L6.98075 -11.0328 L4.99534 -11.0296 Z " />
<path stroke="rgb(200,255,200)" stroke-opacity="1" fill="rgb(200,255,200)" fill-opacity="1" id="tri_2_10_" d="M9.92356 -19.6486 L8.93326 -17.928 L7.94297 -16.2073 L6.95267 -14.4867 L5.96238 -12.766 L4.97209 -11.0454 L3.97741 -12.7635 L2.98274 -14.4816 L1.98807 -16.1997 L0.993395 -17.9179 L-0.00127693 -19.636 L1.98369 -19.6385 L3.96866 -19.641 L5.95362 -19.6436 L7.93859 -19.6461 L9.92356 -19.6486 Z " />
<path stroke="rgb(200,255,200)" stroke-opacity="1" fill="rgb(200,255,200)" fill-opacity="1" id="tri_4_10_" d="M14.9734 -11.0462 L15.963 -12.7674 L16.9526 -14.4885 L17.9422 -16.2096 L18.9318 -17.9308 L19.9214 -19.6519 L20.9165 -17.9342 L21.9117 -16.2164 L22.9069 -14.4986 L23.902 -12.7809 L24.8972 -11.0631 L22.9124 -11.0597 L20.9277 -11.0564 L18.9429 -11.053 L16.9582 -11.0496 L14.9734 -11.0462 Z " />
<path stroke="rgb(200,255,200)" stroke-opacity="1" fill="rgb(200,255,200)" fill-opacity="1" id="tri_3_10_" d="M19.8996 -19.6694 L18.9098 -17.9479 L17.9199 -16.2264 L16.9301 -14.5048 L15.9403 -12.7833 L14.9504 -11.0618 L13.9549 -12.7793 L12.9593 -14.4969 L11.9637 -16.2145 L10.9681 -17.932 L9.97252 -19.6496 L11.9579 -19.6536 L13.9433 -19.6575 L15.9288 -19.6615 L17.9142 -19.6655 L19.8996 -19.6694 Z " />
<path stroke="rgb(200,255,200)" stroke-opacity="1" fill="rgb(200,255,200)" fill-opacity="1" id="tri_0_10_" d="M-29.9043 -2.35103 L-28.9102 -4.06601 L-27.9161 -5.781 L-26.922 -7.49598 L-25.9278 -9.21096 L-24.9337 -10.9259 L-23.9461 -9.20677 L-22.9584 -7.48761 L-21.9707 -5.76844 L-20.9831 -4.04927 L-19.9954 -2.3301 L-21.9772 -2.33429 L-23.959 -2.33847 L-25.9408 -2.34266 L-27.9225 -2.34684 L-29.9043 -2.35103 Z " />
<path stroke="rgb(200,255,200)" stroke-opacity="1" fill="rgb(200,255,200)" fill-opacity="1" id="tri_1_9_" d="M-19.9283 -2.35135 L-18.9371 -4.07082 L-17.9459 -5.7903 L-16.9547 -7.50977 L-15.9635 -9.22925 L-14.9723 -10.9487 L-13.9792 -9.23036 L-12.9861 -7.51201 L-11.993 -5.79365 L-11 -4.0753 L-10.0069 -2.35694 L-11.9911 -2.35582 L-13.9754 -2.3547 L-15.9597 -2.35358 L-17.944 -2.35246 L-19.9283 -2.35135 Z " />
<path stroke="rgb(200,255,200)" stroke-opacity="1" fill="rgb(200,255,200)" fill-opacity="1" id="tri_0_9_" d="M-14.9997 -10.946 L-15.9937 -9.23124 L-16.9876 -7.51646 L-17.9815 -5.80167 L-18.9754 -4.08689 L-19.9694 -2.3721 L-20.957 -4.09127 L-21.9447 -5.81044 L-22.9323 -7.52961 L-23.92 -9.24878 L-24.9077 -10.9679 L-22.9261 -10.9636 L-20.9445 -10.9592 L-18.9629 -10.9548 L-16.9813 -10.9504 L-14.9997 -10.946 Z " />
<path stroke="rgb(200,255,200)" stroke-opacity="1" fill="rgb(200,255,200)" fill-opacity="1" id="tri_2_9_" d="M-9.95263 -2.36345 L-8.96274 -4.08449 L-7.97284 -5.80554 L-6.98294 -7.52658 L-5.99305 -9.24762 L-5.00315 -10.9687 L-4.00768 -9.25075 L-3.01221 -7.53283 L-2.01675 -5.81491 L-1.02128 -4.09699 L-0.0258093 -2.37907 L-2.01117 -2.37594 L-3.99654 -2.37282 L-5.9819 -2.3697 L-7.96727 -2.36657 L-9.95263 -2.36345 Z " />
<path stroke="rgb(200,255,200)" stroke-opacity="1" fill="rgb(200,255,200)" fill-opacity="1" id="tri_1_8_" d="M-5.0248 -10.9777 L-6.01599 -9.25843 L-7.00718 -7.53915 L-7.99837 -5.81988 L-8.98956 -4.1006 L-9.98075 -2.38133 L-10.9738 -4.09968 L-11.9669 -5.81804 L-12.96 -7.53639 L-13.9531 -9.25475 L-14.9462 -10.9731 L-12.9619 -10.974 L-10.9776 -10.9749 L-8.99336 -10.9759 L-7.00908 -10.9768 L-5.0248 -10.9777 Z " />
<path stroke="rgb(200,255,200)" stroke-opacity="1" fill="rgb(200,255,200)" fill-opacity="1" id="tri_3_9_" d="M0.0243297 -2.3806 L1.01356 -4.10174 L2.00279 -5.82287 L2.99202 -7.54401 L3.98125 -9.26515 L4.97048 -10.9863 L5.96606 -9.26852 L6.96165 -7.55076 L7.95723 -5.833 L8.95282 -4.11524 L9.9484 -2.39748 L7.96359 -2.3941 L5.97877 -2.39073 L3.99396 -2.38735 L2.00914 -2.38398 L0.0243297 -2.3806 Z " />
<path stroke="rgb(200,255,200)" stroke-opacity="1" fill="rgb(200,255,200)" fill-opacity="1" id="tri_2_8_" d="M4.94956 -11.0016 L3.95986 -9.28055 L2.97017 -7.55951 L1.98047 -5.83847 L0.990771 -4.11742 L0.00107409 -2.39638 L-0.994394 -4.1143 L-1.98986 -5.83222 L-2.98533 -7.55014 L-3.9808 -9.26806 L-4.97627 -10.986 L-2.9911 -10.9891 L-1.00594 -10.9922 L0.97923 -10.9953 L2.9644 -10.9985 L4.94956 -11.0016 Z " />
<path stroke="rgb(200,255,200)" stroke-opacity="1" fill="rgb(200,255,200)" fill-opacity="1" id="tri_4_9_" d="M9.99942 -2.3982 L10.989 -4.11875 L11.9786 -5.83929 L12.9682 -7.55984 L13.9578 -9.28039 L14.9474 -11.0009 L15.9429 -9.28377 L16.9385 -7.5666 L17.9341 -5.84944 L18.9296 -4.13227 L19.9252 -2.41511 L17.94 -2.41173 L15.9549 -2.40835 L13.9697 -2.40496 L11.9846 -2.40158 L9.99942 -2.3982 Z " />
<path stroke="rgb(200,255,200)" stroke-opacity="1" fill="rgb(200,255,200)" fill-opacity="1" id="tri_3_8_" d="M14.9256 -11.0185 L13.9358 -9.29752 L12.9459 -7.57658 L11.9561 -5.85564 L10.9663 -4.1347 L9.97645 -2.41376 L8.98087 -4.13152 L7.98528 -5.84929 L6.9897 -7.56705 L5.99411 -9.28481 L4.99853 -11.0026 L6.98394 -11.0057 L8.96935 -11.0089 L10.9548 -11.0121 L12.9402 -11.0153 L14.9256 -11.0185 Z " />
<path stroke="rgb(200,255,200)" stroke-opacity="1" fill="rgb(200,255,200)" fill-opacity="1" id="tri_5_8_" d="M19.9785 -2.41584 L20.9675 -4.13598 L21.9564 -5.85611 L22.9454 -7.57625 L23.9343 -9.29639 L24.9233 -11.0165 L25.9182 -9.29977 L26.9132 -7.58301 L27.9081 -5.86626 L28.903 -4.1495 L29.8979 -2.43275 L27.9141 -2.42936 L25.9302 -2.42598 L23.9463 -2.4226 L21.9624 -2.41922 L19.9785 -2.41584 Z " />
<path stroke="rgb(200,255,200)" stroke-opacity="1" fill="rgb(200,255,200)" fill-opacity="1" id="tri_4_8_" d="M24.9005 -11.0349 L23.9113 -9.31431 L22.9221 -7.59376 L21.9329 -5.87321 L20.9437 -4.15267 L19.9545 -2.43212 L18.959 -4.14928 L17.9634 -5.86645 L16.9679 -7.58361 L15.9723 -9.30078 L14.9767 -11.0179 L16.9615 -11.0213 L18.9462 -11.0247 L20.931 -11.0281 L22.9157 -11.0315 L24.9005 -11.0349 Z " />
<path stroke="rgb(200,255,200)" stroke-opacity="1" fill="rgb(200,255,200)" fill-opacity="1" id="tri_0_8_" d="M-34.8793 6.29896 L-33.8848 4.58418 L-32.8903 2.8694 L-31.8958 1.15461 L-30.9013 -0.560169 L-29.9067 -2.27495 L-28.9193 -0.556577 L-27.9318 1.1618 L-26.9443 2.88017 L-25.9569 4.59854 L-24.9694 6.31691 L-26.9514 6.31332 L-28.9334 6.30973 L-30.9154 6.30614 L-32.8973 6.30255 L-34.8793 6.29896 Z " />
<path stroke="rgb(200,255,200)" stroke-opacity="1" fill="rgb(200,255,200)" fill-opacity="1" id="tri_1_7_" d="M-24.9023 6.29566 L-23.9107 4.57678 L-22.9191 2.8579 L-21.9275 1.13903 L-20.9359 -0.579848 L-19.9443 -2.29872 L-18.9518 -0.58057 L-17.9593 1.13758 L-16.9668 2.85574 L-15.9744 4.57389 L-14.9819 6.29205 L-16.9659 6.29277 L-18.95 6.29349 L-20.9341 6.29421 L-22.9182 6.29494 L-24.9023 6.29566 Z " />
<path stroke="rgb(200,255,200)" stroke-opacity="1" fill="rgb(200,255,200)" fill-opacity="1" id="tri_0_7_" d="M-19.9718 -2.29603 L-20.9661 -0.58184 L-21.9604 1.13235 L-22.9547 2.84653 L-23.949 4.56072 L-24.9433 6.27491 L-25.9308 4.55653 L-26.9183 2.83816 L-27.9057 1.11979 L-28.8932 -0.598584 L-29.8807 -2.31696 L-27.8989 -2.31277 L-25.9171 -2.30858 L-23.9353 -2.3044 L-21.9535 -2.30021 L-19.9718 -2.29603 Z " />
<path stroke="rgb(200,255,200)" stroke-opacity="1" fill="rgb(200,255,200)" fill-opacity="1" id="tri_2_7_" d="M-14.9276 6.28555 L-13.9371 4.5645 L-12.9466 2.84346 L-11.9561 1.12242 L-10.9657 -0.598624 L-9.97516 -2.31967 L-8.98009 -0.601546 L-7.98502 1.11657 L-6.98995 2.83469 L-5.99488 4.55281 L-4.99981 6.27093 L-6.98537 6.27385 L-8.97093 6.27678 L-10.9565 6.2797 L-12.9421 6.28262 L-14.9276 6.28555 Z " />
<path stroke="rgb(200,255,200)" stroke-opacity="1" fill="rgb(200,255,200)" fill-opacity="1" id="tri_1_6_" d="M-9.99681 -2.3287 L-10.9886 -0.609428 L-11.9804 1.10985 L-12.9722 2.82912 L-13.9639 4.5484 L-14.9557 6.26767 L-15.9482 4.54951 L-16.9407 2.83136 L-17.9332 1.1132 L-18.9257 -0.60495 L-19.9182 -2.32311 L-17.9339 -2.32422 L-15.9497 -2.32534 L-13.9654 -2.32646 L-11.9811 -2.32758 L-9.99681 -2.3287 Z " />
<path stroke="rgb(200,255,200)" stroke-opacity="1" fill="rgb(200,255,200)" fill-opacity="1" id="tri_3_7_" d="M-4.94966 6.2694 L-3.95984 4.54806 L-2.97001 2.82673 L-1.98018 1.10539 L-0.990357 -0.615948 L-0.000531225 -2.33728 L0.994656 -0.619322 L1.98984 1.09864 L2.98503 2.8166 L3.98022 4.53456 L4.9754 6.25252 L2.99039 6.2559 L1.00538 6.25927 L-0.979637 6.26265 L-2.96465 6.26602 L-4.94966 6.2694 Z " />
<path stroke="rgb(200,255,200)" stroke-opacity="1" fill="rgb(200,255,200)" fill-opacity="1" id="tri_2_6_" d="M-0.0214461 -2.3526 L-1.01174 -0.631356 L-2.00203 1.08989 L-2.99233 2.81113 L-3.98262 4.53237 L-4.97292 6.25362 L-5.96799 4.5355 L-6.96306 2.81738 L-7.95813 1.09926 L-8.9532 -0.618859 L-9.94827 -2.33698 L-7.9629 -2.3401 L-5.97754 -2.34323 L-3.99218 -2.34635 L-2.00681 -2.34947 L-0.0214461 -2.3526 Z " />
<path stroke="rgb(200,255,200)" stroke-opacity="1" fill="rgb(200,255,200)" fill-opacity="1" id="tri_4_7_" d="M5.02642 6.25179 L6.01581 4.53085 L7.0052 2.80991 L7.9946 1.08896 L8.98399 -0.631982 L9.97338 -2.35293 L10.9689 -0.635762 L11.9645 1.0814 L12.9601 2.79856 L13.9556 4.51573 L14.9512 6.23289 L12.9662 6.23667 L10.9813 6.24045 L8.99633 6.24423 L7.01137 6.24801 L5.02642 6.25179 Z " />
<path stroke="rgb(200,255,200)" stroke-opacity="1" fill="rgb(200,255,200)" fill-opacity="1" id="tri_3_6_" d="M9.95159 -2.37045 L8.96196 -0.649115 L7.97233 1.07222 L6.98271 2.79356 L5.99308 4.5149 L5.00345 6.23623 L4.00826 4.51827 L3.01308 2.80031 L2.01789 1.08235 L1.0227 -0.635612 L0.0275164 -2.35357 L2.01233 -2.35695 L3.99715 -2.36033 L5.98196 -2.3637 L7.96677 -2.36707 L9.95159 -2.37045 Z " />
<path stroke="rgb(200,255,200)" stroke-opacity="1" fill="rgb(200,255,200)" fill-opacity="1" id="tri_5_7_" d="M15.0045 6.23216 L15.9939 4.51203 L16.9832 2.79189 L17.9726 1.07176 L18.962 -0.648377 L19.9513 -2.36851 L20.946 -0.650962 L21.9408 1.06659 L22.9355 2.78414 L23.9302 4.50169 L24.9249 6.21924 L22.9409 6.22182 L20.9568 6.22441 L18.9727 6.22699 L16.9886 6.22958 L15.0045 6.23216 Z " />
<path stroke="rgb(200,255,200)" stroke-opacity="1" fill="rgb(200,255,200)" fill-opacity="1" id="tri_4_6_" d="M19.9285 -2.38685 L18.9389 -0.666303 L17.9493 1.05424 L16.9597 2.77478 L15.9701 4.49533 L14.9805 6.21587 L13.985 4.49871 L12.9894 2.78155 L11.9939 1.06439 L10.9983 -0.652777 L10.0027 -2.36994 L11.9879 -2.37332 L13.973 -2.3767 L15.9582 -2.38008 L17.9433 -2.38347 L19.9285 -2.38685 Z " />
<path stroke="rgb(200,255,200)" stroke-opacity="1" fill="rgb(200,255,200)" fill-opacity="1" id="tri_6_6_" d="M24.9807 6.21849 L25.9696 4.49798 L26.9585 2.77747 L27.9474 1.05696 L28.9363 -0.663556 L29.9252 -2.38407 L30.9203 -0.667733 L31.9154 1.0486 L32.9105 2.76494 L33.9056 4.48127 L34.9007 6.19761 L32.9167 6.20178 L30.9327 6.20596 L28.9487 6.21014 L26.9647 6.21431 L24.9807 6.21849 Z " />
<path stroke="rgb(200,255,200)" stroke-opacity="1" fill="rgb(200,255,200)" fill-opacity="1" id="tri_5_6_" d="M29.9014 -2.4032 L28.9122 -0.682266 L27.9231 1.03866 L26.9339 2.7596 L25.9448 4.48053 L24.9556 6.20146 L23.9609 4.48391 L22.9662 2.76636 L21.9714 1.04881 L20.9767 -0.668743 L19.982 -2.38629 L21.9659 -2.38967 L23.9498 -2.39306 L25.9336 -2.39644 L27.9175 -2.39982 L29.9014 -2.4032 Z " />
<path stroke="rgb(200,255,200)" stroke-opacity="1" fill="rgb(200,255,200)" fill-opacity="1" id="tri_0_6_" d="M-39.8513 14.949 L-38.8574 13.2342 L-37.8635 11.5194 L-36.8696 9.80461 L-35.8756 8.08983 L-34.8817 6.37504 L-33.8935 8.09362 L-32.9052 9.81219 L-31.9169 11.5308 L-30.9287 13.2493 L-29.9404 14.9679 L-31.9226 14.9641 L-33.9048 14.9603 L-35.887 14.9565 L-37.8691 14.9528 L-39.8513 14.949 Z " />
<path stroke="rgb(200,255,200)" stroke-opacity="1" fill="rgb(200,255,200)" fill-opacity="1" id="tri_1_5_" d="M-29.8733 14.9467 L-28.8823 13.227 L-27.8913 11.5073 L-26.9003 9.78763 L-25.9093 8.06796 L-24.9183 6.34828 L-23.9256 8.06703 L-22.9329 9.78579 L-21.9402 11.5045 L-20.9475 13.2233 L-19.9549 14.942 L-21.9385 14.943 L-23.9222 14.9439 L-25.9059 14.9448 L-27.8896 14.9457 L-29.8733 14.9467 Z " />
<path stroke="rgb(200,255,200)" stroke-opacity="1" fill="rgb(200,255,200)" fill-opacity="1" id="tri_0_5_" d="M-24.9458 6.35098 L-25.9395 8.06597 L-26.9332 9.78095 L-27.9269 11.4959 L-28.9206 13.2109 L-29.9144 14.9259 L-30.9026 13.2073 L-31.8909 11.4888 L-32.8791 9.77018 L-33.8674 8.05161 L-34.8557 6.33303 L-32.8737 6.33662 L-30.8917 6.34021 L-28.9097 6.3438 L-26.9277 6.34739 L-24.9458 6.35098 Z " />
<path stroke="rgb(200,255,200)" stroke-opacity="1" fill="rgb(200,255,200)" fill-opacity="1" id="tri_2_5_" d="M-19.9006 14.9355 L-18.9105 13.2143 L-17.9204 11.4931 L-16.9303 9.77181 L-15.9402 8.05057 L-14.9502 6.32933 L-13.9547 8.04685 L-12.9592 9.76437 L-11.9637 11.4819 L-10.9683 13.1994 L-9.97281 14.9169 L-11.9584 14.9207 L-13.9439 14.9244 L-15.9295 14.9281 L-17.9151 14.9318 L-19.9006 14.9355 Z " />
<path stroke="rgb(200,255,200)" stroke-opacity="1" fill="rgb(200,255,200)" fill-opacity="1" id="tri_1_4_" d="M-14.9718 6.32029 L-15.9632 8.03976 L-16.9546 9.75924 L-17.946 11.4787 L-18.9374 13.1982 L-19.9287 14.9177 L-20.9214 13.1989 L-21.9141 11.4802 L-22.9068 9.76141 L-23.8995 8.04265 L-24.8922 6.3239 L-22.9081 6.32318 L-20.9241 6.32246 L-18.94 6.32173 L-16.9559 6.32101 L-14.9718 6.32029 Z " />
<path stroke="rgb(200,255,200)" stroke-opacity="1" fill="rgb(200,255,200)" fill-opacity="1" id="tri_3_5_" d="M-9.92266 14.9154 L-8.93303 13.1949 L-7.94341 11.4743 L-6.95378 9.75379 L-5.96415 8.03325 L-4.97452 6.31271 L-3.97874 8.03067 L-2.98296 9.74863 L-1.98717 11.4666 L-0.991389 13.1846 L0.00439462 14.9025 L-1.98102 14.9051 L-3.96643 14.9077 L-5.95184 14.9103 L-7.93725 14.9128 L-9.92266 14.9154 Z " />
<path stroke="rgb(200,255,200)" stroke-opacity="1" fill="rgb(200,255,200)" fill-opacity="1" id="tri_2_4_" d="M-4.99545 6.2974 L-5.98554 8.01784 L-6.97564 9.73829 L-7.96573 11.4587 L-8.95582 13.1792 L-9.94592 14.8996 L-10.9414 13.1821 L-11.9369 11.4646 L-12.9323 9.74706 L-13.9278 8.02954 L-14.9233 6.31201 L-12.9377 6.30909 L-10.9521 6.30617 L-8.96657 6.30324 L-6.98101 6.30032 L-4.99545 6.2974 Z " />
<path stroke="rgb(200,255,200)" stroke-opacity="1" fill="rgb(200,255,200)" fill-opacity="1" id="tri_4_5_" d="M0.0554089 14.9018 L1.0444 13.1809 L2.0334 11.4599 L3.0224 9.73897 L4.01139 8.01802 L5.00039 6.29708 L5.99575 8.01444 L6.99111 9.7318 L7.98647 11.4492 L8.98183 13.1665 L9.97719 14.8839 L7.99284 14.8875 L6.00848 14.8911 L4.02412 14.8946 L2.03977 14.8982 L0.0554089 14.9018 Z " />
<path stroke="rgb(200,255,200)" stroke-opacity="1" fill="rgb(200,255,200)" fill-opacity="1" id="tri_3_4_" d="M4.97859 6.27955 L3.98936 8.00089 L3.00013 9.72222 L2.0109 11.4436 L1.02167 13.1649 L0.0324423 14.8862 L-0.963341 13.1683 L-1.95913 11.4503 L-2.95491 9.73235 L-3.95069 8.01439 L-4.94648 6.29643 L-2.96146 6.29305 L-0.97645 6.28968 L1.00856 6.2863 L2.99358 6.28293 L4.97859 6.27955 Z " />
<path stroke="rgb(200,255,200)" stroke-opacity="1" fill="rgb(200,255,200)" fill-opacity="1" id="tri_5_5_" d="M10.0305 14.8832 L11.0199 13.1624 L12.0092 11.4417 L12.9986 9.72095 L13.988 8.00022 L14.9773 6.27949 L15.9724 7.99704 L16.9676 9.71459 L17.9627 11.4321 L18.9578 13.1497 L19.9529 14.8672 L17.9685 14.8704 L15.984 14.8736 L13.9995 14.8768 L12.015 14.88 L10.0305 14.8832 Z " />
<path stroke="rgb(200,255,200)" stroke-opacity="1" fill="rgb(200,255,200)" fill-opacity="1" id="tri_4_4_" d="M14.9545 6.26115 L13.9649 7.9823 L12.9753 9.70344 L11.9857 11.4246 L10.9961 13.1457 L10.0065 14.8669 L9.01118 13.1495 L8.01582 11.4321 L7.02045 9.71478 L6.02509 7.99742 L5.02973 6.28006 L7.01469 6.27628 L8.99964 6.2725 L10.9846 6.26872 L12.9695 6.26493 L14.9545 6.26115 Z " />
<path stroke="rgb(200,255,200)" stroke-opacity="1" fill="rgb(200,255,200)" fill-opacity="1" id="tri_6_5_" d="M20.0087 14.8665 L20.9974 13.1468 L21.9861 11.4271 L22.9748 9.70735 L23.9635 7.98764 L24.9522 6.26792 L25.9475 7.98386 L26.9428 9.6998 L27.9381 11.4157 L28.9334 13.1317 L29.9287 14.8476 L27.9447 14.8514 L25.9607 14.8552 L23.9767 14.8589 L21.9927 14.8627 L20.0087 14.8665 Z " />
<path stroke="rgb(200,255,200)" stroke-opacity="1" fill="rgb(200,255,200)" fill-opacity="1" id="tri_5_4_" d="M24.9284 6.24879 L23.9394 7.96892 L22.9505 9.68906 L21.9615 11.4092 L20.9726 13.1293 L19.9836 14.8495 L18.9885 13.1319 L17.9934 11.4144 L16.9982 9.69681 L16.0031 7.97926 L15.008 6.26171 L16.9921 6.25913 L18.9762 6.25654 L20.9602 6.25396 L22.9443 6.25137 L24.9284 6.24879 Z " />
<path stroke="rgb(200,255,200)" stroke-opacity="1" fill="rgb(200,255,200)" fill-opacity="1" id="tri_7_4_" d="M29.9868 14.8468 L30.9753 13.1271 L31.9638 11.4075 L32.9522 9.68777 L33.9407 7.96809 L34.9292 6.2484 L35.9232 7.96471 L36.9172 9.68101 L37.9113 11.3973 L38.9053 13.1136 L39.8994 14.8299 L37.9168 14.8333 L35.9343 14.8367 L33.9518 14.8401 L31.9693 14.8434 L29.9868 14.8468 Z " />
<path stroke="rgb(200,255,200)" stroke-opacity="1" fill="rgb(200,255,200)" fill-opacity="1" id="tri_6_4_" d="M34.9043 6.22846 L33.9156 7.94857 L32.9268 9.66869 L31.9381 11.3888 L30.9494 13.1089 L29.9607 14.829 L28.9654 13.1131 L27.9701 11.3972 L26.9748 9.68122 L25.9796 7.96528 L24.9843 6.24934 L26.9683 6.24517 L28.9523 6.24099 L30.9363 6.23681 L32.9203 6.23264 L34.9043 6.22846 Z " />
<path stroke="rgb(200,255,200)" stroke-opacity="1" fill="rgb(200,255,200)" fill-opacity="1" id="tri_0_4_" d="M-44.8253 23.599 L-43.831 21.8842 L-42.8367 20.1694 L-41.8424 18.4546 L-40.8481 16.7398 L-39.8537 15.025 L-38.8661 16.7432 L-37.8784 18.4614 L-36.8907 20.1796 L-35.9031 21.8977 L-34.9154 23.6159 L-36.8974 23.6125 L-38.8794 23.6091 L-40.8614 23.6057 L-42.8433 23.6024 L-44.8253 23.599 Z " />
<path stroke="rgb(200,255,200)" stroke-opacity="1" fill="rgb(200,255,200)" fill-opacity="1" id="tri_1_3_" d="M-34.8483 23.5947 L-33.8565 21.8756 L-32.8647 20.1565 L-31.8729 18.4374 L-30.8811 16.7184 L-29.8893 14.9993 L-28.897 16.7174 L-27.9047 18.4356 L-26.9125 20.1537 L-25.9202 21.8719 L-24.9279 23.59 L-26.9119 23.591 L-28.896 23.5919 L-30.8801 23.5928 L-32.8642 23.5937 L-34.8483 23.5947 Z " />
<path stroke="rgb(200,255,200)" stroke-opacity="1" fill="rgb(200,255,200)" fill-opacity="1" id="tri_0_3_" d="M-29.9168 15.002 L-30.9113 16.7164 L-31.9058 18.4307 L-32.9003 20.1451 L-33.8948 21.8595 L-34.8893 23.5739 L-35.877 21.8557 L-36.8647 20.1376 L-37.8523 18.4194 L-38.84 16.7012 L-39.8277 14.983 L-37.8455 14.9868 L-35.8633 14.9906 L-33.8811 14.9944 L-31.8989 14.9982 L-29.9168 15.002 Z " />
<path stroke="rgb(200,255,200)" stroke-opacity="1" fill="rgb(200,255,200)" fill-opacity="1" id="tri_2_3_" d="M-24.8736 23.5835 L-23.8835 21.8627 L-22.8934 20.1419 L-21.9033 18.421 L-20.9132 16.7002 L-19.9232 14.9793 L-18.9277 16.6972 L-17.9322 18.4152 L-16.9367 20.1331 L-15.9413 21.851 L-14.9458 23.5689 L-16.9314 23.5718 L-18.9169 23.5748 L-20.9025 23.5777 L-22.8881 23.5806 L-24.8736 23.5835 Z " />
<path stroke="rgb(200,255,200)" stroke-opacity="1" fill="rgb(200,255,200)" fill-opacity="1" id="tri_1_2_" d="M-19.9448 14.9703 L-20.9362 16.6894 L-21.9276 18.4084 L-22.919 20.1275 L-23.9104 21.8466 L-24.9017 23.5657 L-25.894 21.8475 L-26.8863 20.1294 L-27.8786 18.4112 L-28.8709 16.693 L-29.8632 14.9749 L-27.8795 14.974 L-25.8959 14.9731 L-23.9122 14.9721 L-21.9285 14.9712 L-19.9448 14.9703 Z " />
<path stroke="rgb(200,255,200)" stroke-opacity="1" fill="rgb(200,255,200)" fill-opacity="1" id="tri_3_3_" d="M-14.8957 23.5674 L-13.906 21.8457 L-12.9164 20.1239 L-11.9268 18.4022 L-10.9372 16.6805 L-9.94753 14.9587 L-8.95214 16.6775 L-7.95675 18.3962 L-6.96137 20.115 L-5.96598 21.8338 L-4.9706 23.5525 L-6.95561 23.5555 L-8.94062 23.5585 L-10.9256 23.5614 L-12.9107 23.5644 L-14.8957 23.5674 Z " />
<path stroke="rgb(200,255,200)" stroke-opacity="1" fill="rgb(200,255,200)" fill-opacity="1" id="tri_2_2_" d="M-9.96844 14.9434 L-10.9585 16.6651 L-11.9486 18.3867 L-12.9387 20.1083 L-13.9288 21.83 L-14.9189 23.5516 L-15.9144 21.8337 L-16.9099 20.1158 L-17.9053 18.3979 L-18.9008 16.6799 L-19.8963 14.962 L-17.9107 14.9583 L-15.9251 14.9546 L-13.9396 14.9509 L-11.954 14.9471 L-9.96844 14.9434 Z " />
<path stroke="rgb(200,255,200)" stroke-opacity="1" fill="rgb(200,255,200)" fill-opacity="1" id="tri_4_3_" d="M-4.91958 23.5518 L-3.92979 21.8308 L-2.94 20.1099 L-1.95021 18.389 L-0.960414 16.668 L0.0293765 14.9471 L1.02454 16.6638 L2.0197 18.3806 L3.01486 20.0974 L4.01003 21.8141 L5.00519 23.5309 L3.02024 23.5351 L1.03528 23.5393 L-0.94967 23.5434 L-2.93462 23.5476 L-4.91958 23.5518 Z " />
<path stroke="rgb(200,255,200)" stroke-opacity="1" fill="rgb(200,255,200)" fill-opacity="1" id="tri_3_2_" d="M0.00758077 14.9295 L-0.982444 16.6509 L-1.97247 18.3722 L-2.9625 20.0936 L-3.95252 21.8149 L-4.94255 23.5362 L-5.93793 21.8175 L-6.93332 20.0987 L-7.9287 18.38 L-8.92409 16.6612 L-9.91947 14.9424 L-7.93406 14.9399 L-5.94865 14.9373 L-3.96324 14.9347 L-1.97783 14.9321 L0.00758077 14.9295 Z " />
<path stroke="rgb(200,255,200)" stroke-opacity="1" fill="rgb(200,255,200)" fill-opacity="1" id="tri_5_3_" d="M5.05852 23.5302 L6.04748 21.8102 L7.03643 20.0903 L8.02539 18.3704 L9.01435 16.6504 L10.0033 14.9305 L10.9982 16.6474 L11.9932 18.3644 L12.9881 20.0813 L13.983 21.7983 L14.9779 23.5152 L12.9941 23.5182 L11.0102 23.5212 L9.02629 23.5242 L7.0424 23.5272 L5.05852 23.5302 Z " />
<path stroke="rgb(200,255,200)" stroke-opacity="1" fill="rgb(200,255,200)" fill-opacity="1" id="tri_4_2_" d="M9.98051 14.9121 L8.99131 16.6325 L8.00212 18.3528 L7.01293 20.0732 L6.02373 21.7935 L5.03454 23.5139 L4.03937 21.7971 L3.04421 20.0804 L2.04905 18.3636 L1.05389 16.6468 L0.0587229 14.9301 L2.04308 14.9265 L4.02744 14.9229 L6.01179 14.9193 L7.99615 14.9157 L9.98051 14.9121 Z " />
<path stroke="rgb(200,255,200)" stroke-opacity="1" fill="rgb(200,255,200)" fill-opacity="1" id="tri_6_3_" d="M15.0337 23.5145 L16.023 21.7948 L17.0123 20.0751 L18.0016 18.3554 L18.9909 16.6356 L19.9802 14.9159 L20.9749 16.6321 L21.9696 18.3482 L22.9643 20.0643 L23.959 21.7805 L24.9537 23.4966 L22.9697 23.5002 L20.9857 23.5038 L19.0017 23.5073 L17.0177 23.5109 L15.0337 23.5145 Z " />
<path stroke="rgb(200,255,200)" stroke-opacity="1" fill="rgb(200,255,200)" fill-opacity="1" id="tri_5_2_" d="M19.9564 14.8968 L18.9668 16.6169 L17.9773 18.3371 L16.9877 20.0572 L15.9982 21.7773 L15.0086 23.4975 L14.0137 21.7805 L13.0188 20.0636 L12.0238 18.3466 L11.0289 16.6297 L10.034 14.9127 L12.0185 14.9095 L14.0029 14.9063 L15.9874 14.9032 L17.9719 14.9 L19.9564 14.8968 Z " />
<path stroke="rgb(200,255,200)" stroke-opacity="1" fill="rgb(200,255,200)" fill-opacity="1" id="tri_7_3_" d="M25.0118 23.4958 L26.0009 21.7763 L26.99 20.0569 L27.979 18.3374 L28.9681 16.6179 L29.9572 14.8984 L30.951 16.6143 L31.9448 18.3302 L32.9387 20.0461 L33.9325 21.762 L34.9263 23.4779 L32.9434 23.4815 L30.9605 23.4851 L28.9776 23.4887 L26.9947 23.4922 L25.0118 23.4958 Z " />
<path stroke="rgb(200,255,200)" stroke-opacity="1" fill="rgb(200,255,200)" fill-opacity="1" id="tri_6_2_" d="M29.9323 14.8785 L28.943 16.5984 L27.9536 18.3183 L26.9643 20.0382 L25.975 21.7581 L24.9857 23.478 L23.991 21.7619 L22.9963 20.0458 L22.0016 18.3296 L21.007 16.6135 L20.0123 14.8973 L21.9963 14.8936 L23.9803 14.8898 L25.9643 14.886 L27.9483 14.8822 L29.9323 14.8785 Z " />
<path stroke="rgb(200,255,200)" stroke-opacity="1" fill="rgb(200,255,200)" fill-opacity="1" id="tri_8_2_" d="M34.987 23.4772 L35.9754 21.7583 L36.9638 20.0395 L37.9523 18.3206 L38.9407 16.6018 L39.9291 14.8829 L40.9237 16.5986 L41.9183 18.3142 L42.9128 20.0299 L43.9074 21.7456 L44.902 23.4612 L42.919 23.4644 L40.936 23.4676 L38.953 23.4708 L36.97 23.474 L34.987 23.4772 Z " />
<path stroke="rgb(200,255,200)" stroke-opacity="1" fill="rgb(200,255,200)" fill-opacity="1" id="tri_7_2_" d="M39.9031 14.8621 L38.9145 16.5814 L37.9258 18.3007 L36.9371 20.02 L35.9484 21.7393 L34.9598 23.4586 L33.9659 21.7427 L32.9721 20.0267 L31.9783 18.3108 L30.9844 16.5949 L29.9906 14.879 L31.9731 14.8756 L33.9556 14.8723 L35.9381 14.8689 L37.9206 14.8655 L39.9031 14.8621 Z " />
<path stroke="rgb(200,255,200)" stroke-opacity="1" fill="rgb(200,255,200)" fill-opacity="1" id="tri_0_2_" d="M-49.7973 32.247 L-48.8034 30.5326 L-47.8095 28.8182 L-46.8156 27.1038 L-45.8216 25.3894 L-44.8277 23.675 L-43.8397 25.3932 L-42.8516 27.1114 L-41.8635 28.8296 L-40.8755 30.5477 L-39.8874 32.2659 L-41.8694 32.2621 L-43.8514 32.2583 L-45.8334 32.2546 L-47.8153 32.2508 L-49.7973 32.247 Z " />
<path stroke="rgb(200,255,200)" stroke-opacity="1" fill="rgb(200,255,200)" fill-opacity="1" id="tri_1_1_" d="M-39.8203 32.2447 L-38.8291 30.5252 L-37.8379 28.8057 L-36.8467 27.0862 L-35.8555 25.3667 L-34.8643 23.6473 L-33.871 25.3654 L-32.8777 27.0836 L-31.8845 28.8017 L-30.8912 30.5199 L-29.8979 32.2381 L-31.8823 32.2394 L-33.8668 32.2407 L-35.8513 32.242 L-37.8358 32.2433 L-39.8203 32.2447 Z " />
<path stroke="rgb(200,255,200)" stroke-opacity="1" fill="rgb(200,255,200)" fill-opacity="1" id="tri_0_1_" d="M-34.8918 23.65 L-35.8857 25.3648 L-36.8796 27.0796 L-37.8735 28.7943 L-38.8674 30.5091 L-39.8614 32.2239 L-40.8494 30.5057 L-41.8375 28.7876 L-42.8255 27.0694 L-43.8136 25.3512 L-44.8017 23.633 L-42.8197 23.6364 L-40.8377 23.6398 L-38.8557 23.6432 L-36.8737 23.6466 L-34.8918 23.65 Z " />
<path stroke="rgb(200,255,200)" stroke-opacity="1" fill="rgb(200,255,200)" fill-opacity="1" id="tri_2_1_" d="M-29.8436 32.2316 L-28.8541 30.5107 L-27.8646 28.7899 L-26.8751 27.069 L-25.8856 25.3482 L-24.8961 23.6273 L-23.9003 25.3458 L-22.9044 27.0644 L-21.9085 28.7829 L-20.9127 30.5014 L-19.9168 32.2199 L-21.9022 32.2222 L-23.8875 32.2246 L-25.8729 32.2269 L-27.8583 32.2292 L-29.8436 32.2316 Z " />
<path stroke="rgb(200,255,200)" stroke-opacity="1" fill="rgb(200,255,200)" fill-opacity="1" id="tri_1" d="M-24.9178 23.6183 L-25.9086 25.3374 L-26.8994 27.0564 L-27.8902 28.7755 L-28.881 30.4946 L-29.8718 32.2137 L-30.865 30.4955 L-31.8583 28.7774 L-32.8516 27.0592 L-33.8449 25.341 L-34.8382 23.6229 L-32.8541 23.622 L-30.87 23.621 L-28.886 23.6201 L-26.9019 23.6192 L-24.9178 23.6183 Z " />
<path stroke="rgb(200,255,200)" stroke-opacity="1" fill="rgb(200,255,200)" fill-opacity="1" id="tri_3_1_" d="M-19.8667 32.2184 L-18.8774 30.4969 L-17.8882 28.7753 L-16.899 27.0538 L-15.9097 25.3323 L-14.9205 23.6107 L-13.9249 25.3287 L-12.9294 27.0466 L-11.9338 28.7646 L-10.9382 30.4826 L-9.9426 32.2005 L-11.9274 32.2041 L-13.9122 32.2077 L-15.897 32.2112 L-17.8819 32.2148 L-19.8667 32.2184 Z " />
<path stroke="rgb(200,255,200)" stroke-opacity="1" fill="rgb(200,255,200)" fill-opacity="1" id="tri_2" d="M-14.9414 23.5954 L-15.9311 25.3168 L-16.9208 27.0383 L-17.9105 28.7597 L-18.9002 30.4812 L-19.8899 32.2026 L-20.8858 30.4841 L-21.8817 28.7656 L-22.8775 27.0471 L-23.8734 25.3285 L-24.8693 23.61 L-22.8837 23.6071 L-20.8981 23.6042 L-18.9126 23.6012 L-16.927 23.5983 L-14.9414 23.5954 Z " />
<path stroke="rgb(200,255,200)" stroke-opacity="1" fill="rgb(200,255,200)" fill-opacity="1" id="tri_4_1_" d="M-9.89159 32.1998 L-8.90239 30.4793 L-7.9132 28.7587 L-6.924 27.0382 L-5.93481 25.3176 L-4.94561 23.5971 L-3.95025 25.3138 L-2.95489 27.0306 L-1.95953 28.7474 L-0.964167 30.4641 L0.0311935 32.1809 L-1.95336 32.1847 L-3.93792 32.1885 L-5.92247 32.1922 L-7.90703 32.196 L-9.89159 32.1998 Z " />
<path stroke="rgb(200,255,200)" stroke-opacity="1" fill="rgb(200,255,200)" fill-opacity="1" id="tri_3" d="M-4.96741 23.5795 L-5.95684 25.3005 L-6.94627 27.0214 L-7.9357 28.7424 L-8.92512 30.4633 L-9.91455 32.1842 L-10.9101 30.4663 L-11.9057 28.7483 L-12.9013 27.0304 L-13.8969 25.3124 L-14.8925 23.5944 L-12.9075 23.5914 L-10.9225 23.5885 L-8.93744 23.5855 L-6.95242 23.5825 L-4.96741 23.5795 Z " />
<path stroke="rgb(200,255,200)" stroke-opacity="1" fill="rgb(200,255,200)" fill-opacity="1" id="tri_5_1_" d="M0.0845246 32.1802 L1.07388 30.4596 L2.06324 28.7391 L3.05259 27.0186 L4.04195 25.298 L5.03131 23.5775 L6.02623 25.2948 L7.02116 27.0122 L8.01609 28.7295 L9.01101 30.4469 L10.0059 32.1642 L8.02166 32.1674 L6.03737 32.1706 L4.05309 32.1738 L2.06881 32.177 L0.0845246 32.1802 Z " />
<path stroke="rgb(200,255,200)" stroke-opacity="1" fill="rgb(200,255,200)" fill-opacity="1" id="tri_4" d="M5.0085 23.5592 L4.01891 25.2801 L3.02932 27.001 L2.03972 28.722 L1.05013 30.4429 L0.0605399 32.1639 L-0.934821 30.4471 L-1.93018 28.7303 L-2.92555 27.0136 L-3.92091 25.2968 L-4.91627 23.58 L-2.93131 23.5759 L-0.94636 23.5717 L1.03859 23.5675 L3.02355 23.5633 L5.0085 23.5592 Z " />
<path stroke="rgb(200,255,200)" stroke-opacity="1" fill="rgb(200,255,200)" fill-opacity="1" id="tri_6_1_" d="M10.0617 32.1635 L11.0504 30.4436 L12.0391 28.7237 L13.0278 27.0038 L14.0165 25.2838 L15.0052 23.5639 L16.0007 25.2803 L16.9962 26.9966 L17.9917 28.7129 L18.9872 30.4293 L19.9826 32.1456 L17.9984 32.1492 L16.0142 32.1528 L14.0301 32.1563 L12.0459 32.1599 L10.0617 32.1635 Z " />
<path stroke="rgb(200,255,200)" stroke-opacity="1" fill="rgb(200,255,200)" fill-opacity="1" id="tri_5" d="M14.9814 23.5448 L13.9924 25.2651 L13.0035 26.9855 L12.0145 28.7058 L11.0256 30.4261 L10.0366 32.1465 L9.04169 30.4291 L8.04676 28.7118 L7.05183 26.9944 L6.05691 25.2771 L5.06198 23.5597 L7.04586 23.5567 L9.02975 23.5537 L11.0136 23.5508 L12.9975 23.5478 L14.9814 23.5448 Z " />
<path stroke="rgb(200,255,200)" stroke-opacity="1" fill="rgb(200,255,200)" fill-opacity="1" id="tri_7_1_" d="M20.0408 32.1448 L21.0291 30.4253 L22.0174 28.7059 L23.0056 26.9864 L23.9939 25.2669 L24.9822 23.5474 L25.9766 25.2637 L26.971 26.98 L27.9655 28.6963 L28.9599 30.4126 L29.9543 32.1289 L27.9716 32.1321 L25.9889 32.1353 L24.0062 32.1385 L22.0235 32.1416 L20.0408 32.1448 Z " />
<path stroke="rgb(200,255,200)" stroke-opacity="1" fill="rgb(200,255,200)" fill-opacity="1" id="tri_6" d="M24.9573 23.5274 L23.9688 25.2474 L22.9802 26.9673 L21.9917 28.6872 L21.0032 30.4071 L20.0147 32.127 L19.0192 30.4107 L18.0237 28.6944 L17.0282 26.978 L16.0328 25.2617 L15.0373 23.5454 L17.0213 23.5418 L19.0053 23.5382 L20.9893 23.5346 L22.9733 23.531 L24.9573 23.5274 Z " />
<path stroke="rgb(200,255,200)" stroke-opacity="1" fill="rgb(200,255,200)" fill-opacity="1" id="tri_8_1_" d="M30.015 32.1281 L31.0032 30.4087 L31.9914 28.6893 L32.9797 26.9698 L33.9679 25.2504 L34.9561 23.5309 L35.9509 25.2468 L36.9457 26.9626 L37.9404 28.6785 L38.9352 30.3944 L39.93 32.1102 L37.947 32.1138 L35.964 32.1174 L33.981 32.121 L31.998 32.1246 L30.015 32.1281 Z " />
<path stroke="rgb(200,255,200)" stroke-opacity="1" fill="rgb(200,255,200)" fill-opacity="1" id="tri_7" d="M34.9301 23.5101 L33.9416 25.23 L32.9532 26.9499 L31.9647 28.6698 L30.9762 30.3897 L29.9878 32.1096 L28.9933 30.3932 L27.9989 28.6769 L27.0045 26.9606 L26.01 25.2443 L25.0156 23.528 L26.9985 23.5244 L28.9814 23.5209 L30.9643 23.5173 L32.9472 23.5137 L34.9301 23.5101 Z " />
<path stroke="rgb(200,255,200)" stroke-opacity="1" fill="rgb(200,255,200)" fill-opacity="1" id="tri_9" d="M39.9932 32.1094 L40.9812 30.3908 L41.9691 28.6722 L42.9571 26.9536 L43.9451 25.235 L44.933 23.5164 L45.9271 25.2313 L46.9213 26.9461 L47.9154 28.6609 L48.9095 30.3757 L49.9036 32.0906 L47.9215 32.0943 L45.9395 32.0981 L43.9574 32.1019 L41.9753 32.1057 L39.9932 32.1094 Z " />
<path stroke="rgb(200,255,200)" stroke-opacity="1" fill="rgb(200,255,200)" fill-opacity="1" id="tri_8" d="M44.9059 23.4948 L43.9177 25.2139 L42.9295 26.9329 L41.9413 28.652 L40.9531 30.371 L39.9648 32.09 L38.9701 30.3742 L37.9753 28.6583 L36.9805 26.9424 L35.9857 25.2266 L34.9909 23.5107 L36.9739 23.5075 L38.9569 23.5043 L40.9399 23.5012 L42.9229 23.498 L44.9059 23.4948 Z " />
</g>
</g>
</svg>
