<!DOCTYPE svg>
<svg xmlns="http://www.w3.org/2000/svg" xmlns:xlink="http://www.w3.org/1999/xlink" width="600" height="600">
<g transform="translate(300.000000,300.000000)">
<g transform="scale(3.000000,3.000000)">
<path stroke="rgb(0,0,0)" stroke-opacity="1" fill="rgb(255,255,255)" fill-opacity="1" id="Layer_1" d="M107.411 107.089 L105.406 107.092 L103.402 107.095 L101.397 107.098 L99.3922 107.101 L97.3875 107.104 L95.3828 107.107 L93.3782 107.11 L91.3735 107.113 L89.3688 107.116 L87.3641 107.119 L85.3595 107.122 L83.3548 107.125 L81.3501 107.128 L79.3455 107.131 L77.3408 107.134 L75.3361 107.137 L73.3314 107.14 L71.3268 107.143 L69.3221 107.146 L67.3174 107.149 L65.3127 107.152 L63.3081 107.155 L61.3034 107.158 L59.2987 107.161 L57.2941 107.164 L55.2894 107.167 L53.2847 107.17 L51.28 107.173 L49.2754 107.176 L47.2707 107.179 L45.266 107.182 L43.2613 107.185 L41.2567 107.188 L39.252 107.191 L37.2473 107.194 L35.2426 107.197 L33.238 107.2 L31.2333 107.203 L29.2286 107.206 L27.224 107.209 L25.2193 107.212 L23.2146 107.215 L21.2099 107.218 L19.2053 107.221 L17.2006 107.224 L15.1959 107.227 L13.1912 107.23 L11.1866 107.233 L9.1819 107.236 L7.17723 107.239 L5.17256 107.242 L3.16788 107.245 L1.16321 107.248 L-0.841463 107.252 L-2.84614 107.255 L-4.85081 107.258 L-6.85548 107.261 L-8.86015 107.264 L-10.8648 107.267 L-12.8695 107.27 L-14.8742 107.273 L-16.8788 107.276 L-18.8835 107.279 L-20.8882 107.282 L-22.8929 107.285 L-24.8975 107.288 L-26.9022 107.291 L-28.9069 107.294 L-30.9116 107.297 L-32.9162 107.3 L-34.9209 107.303 L-36.9256 107.306 L-38.9302 107.309 L-40.9349 107.312 L-42.9396 107.315 L-44.9443 107.318 L-46.9489 107.321 L-48.9536 107.324 L-50.9583 107.327 L-52.963 107.33 L-54.9676 107.333 L-56.9723 107.336 L-58.977 107.339 L-60.9816 107.342 L-62.9863 107.345 L-64.991 107.348 L-66.9957 107.351 L-69.0003 107.354 L-71.005 107.357 L-73.0097 107.36 L-75.0144 107.363 L-77.019 107.366 L-79.0237 107.369 L-81.0284 107.372 L-83.0331 107.375 L-85.0377 107.378 L-87.0424 107.381 L-89.0471 107.384 L-91.0517 107.387 L-93.0564 107.39 L-95.0611 107.393 L-97.0658 107.396 L-99.0704 107.399 L-101.075 107.402 L-103.08 107.405 L-105.084 107.408 L-107.089 107.411 L-107.092 105.406 L-107.095 103.402 L-107.098 101.397 L-107.101 99.3922 L-107.104 97.3875 L-107.107 95.3828 L-107.11 93.3782 L-107.113 91.3735 L-107.116 89.3688 L-107.119 87.3641 L-107.122 85.3595 L-107.125 83.3548 L-107.128 81.3501 L-107.131 79.3455 L-107.134 77.3408 L-107.137 75.3361 L-107.14 73.3314 L-107.143 71.3268 L-107.146 69.3221 L-107.149 67.3174 L-107.152 65.3127 L-107.155 63.3081 L-107.158 61.3034 L-107.161 59.2987 L-107.164 57.2941 L-107.167 55.2894 L-107.17 53.2847 L-107.173 51.28 L-107.176 49.2754 L-107.179 47.2707 L-107.182 45.266 L-107.185 43.2613 L-107.188 41.2567 L-107.191 39.252 L-107.194 37.2473 L-107.197 35.2426 L-107.2 33.238 L-107.203 31.2333 L-107.206 29.2286 L-107.209 27.224 L-107.212 25.2193 L-107.215 23.2146 L-107.218 21.2099 L-107.221 19.2053 L-107.224 17.2006 L-107.227 15.1959 L-107.23 13.1912 L-107.233 11.1866 L-107.236 9.1819 L-107.239 7.17722 L-107.242 5.17255 L-107.245 3.16788 L-107.248 1.1632 L-107.251 -0.841469 L-107.255 -2.84614 L-107.258 -4.85081 L-107.261 -6.85549 L-107.264 -8.86016 L-107.267 -10.8648 L-107.27 -12.8695 L-107.273 -14.8742 L-107.276 -16.8789 L-107.279 -18.8835 L-107.282 -20.8882 L-107.285 -22.8929 L-107.288 -24.8975 L-107.291 -26.9022 L-107.294 -28.9069 L-107.297 -30.9116 L-107.3 -32.9162 L-107.303 -34.9209 L-107.306 -36.9256 L-107.309 -38.9303 L-107.312 -40.9349 L-107.315 -42.9396 L-107.318 -44.9443 L-107.321 -46.9489 L-107.324 -48.9536 L-107.327 -50.9583 L-107.33 -52.963 L-107.333 -54.9676 L-107.336 -56.9723 L-107.339 -58.977 L-107.342 -60.9817 L-107.345 -62.9863 L-107.348 -64.991 L-107.351 -66.9957 L-107.354 -69.0003 L-107.357 -71.005 L-107.36 -73.0097 L-107.363 -75.0144 L-107.366 -77.019 L-107.369 -79.0237 L-107.372 -81.0284 L-107.375 -83.0331 L-107.378 -85.0377 L-107.381 -87.0424 L-107.384 -89.0471 L-107.387 -91.0518 L-107.39 -93.0564 L-107.393 -95.0611 L-107.396 -97.0658 L-107.399 -99.0704 L-107.402 -101.075 L-107.405 -103.08 L-107.408 -105.084 L-107.411 -107.089 L-105.406 -107.092 L-103.402 -107.095 L-101.397 -107.098 L-99.3922 -107.101 L-97.3875 -107.104 L-95.3828 -107.107 L-93.3782 -107.11 L-91.3735 -107.113 L-89.3688 -107.116 L-87.3641 -107.119 L-85.3595 -107.122 L-83.3548 -107.125 L-81.3501 -107.128 L-79.3455 -107.131 L-77.3408 -107.134 L-75.3361 -107.137 L-73.3314 -107.14 L-71.3268 -107.143 L-69.3221 -107.146 L-67.3174 -107.149 L-65.3127 -107.152 L-63.3081 -107.155 L-61.3034 -107.158 L-59.2987 -107.161 L-57.2941 -107.164 L-55.2894 -107.167 L-53.2847 -107.17 L-51.28 -107.173 L-49.2754 -107.176 L-47.2707 -107.179 L-45.266 -107.182 L-43.2613 -107.185 L-41.2567 -107.188 L-39.252 -107.191 L-37.2473 -107.194 L-35.2426 -107.197 L-33.238 -107.2 L-31.2333 -107.203 L-29.2286 -107.206 L-27.224 -107.209 L-25.2193 -107.212 L-23.2146 -107.215 L-21.2099 -107.218 L-19.2053 -107.221 L-17.2006 -107.224 L-15.1959 -107.227 L-13.1912 -107.23 L-11.1866 -107.233 L-9.1819 -107.236 L-7.17723 -107.239 L-5.17256 -107.242 L-3.16788 -107.245 L-1.16321 -107.248 L0.841463 -107.252 L2.84614 -107.255 L4.85081 -107.258 L6.85548 -107.261 L8.86015 -107.264 L10.8648 -107.267 L12.8695 -107.27 L14.8742 -107.273 L16.8788 -107.276 L18.8835 -107.279 L20.8882 -107.282 L22.8929 -107.285 L24.8975 -107.288 L26.9022 -107.291 L28.9069 -107.294 L30.9116 -107.297 L32.9162 -107.3 L34.9209 -107.303 L36.9256 -107.306 L38.9302 -107.309 L40.9349 -107.312 L42.9396 -107.315 L44.9443 -107.318 L46.9489 -107.321 L48.9536 -107.324 L50.9583 -107.327 L52.963 -107.33 L54.9676 -107.333 L56.9723 -107.336 L58.977 -107.339 L60.9816 -107.342 L62.9863 -107.345 L64.991 -107.348 L66.9957 -107.351 L69.0003 -107.354 L71.005 -107.357 L73.0097 -107.36 L75.0144 -107.363 L77.019 -107.366 L79.0237 -107.369 L81.0284 -107.372 L83.0331 -107.375 L85.0377 -107.378 L87.0424 -107.381 L89.0471 -107.384 L91.0517 -107.387 L93.0564 -107.39 L95.0611 -107.393 L97.0658 -107.396 L99.0704 -107.399 L101.075 -107.402 L103.08 -107.405 L105.084 -107.408 L107.089 -107.411 L107.092 -105.406 L107.095 -103.402 L107.098 -101.397 L107.101 -99.3922 L107.104 -97.3875 L107.107 -95.3828 L107.11 -93.3782 L107.113 -91.3735 L107.116 -89.3688 L107.119 -87.3642 L107.122 -85.3595 L107.125 -83.3548 L107.128 -81.3501 L107.131 -79.3455 L107.134 -77.3408 L107.137 -75.3361 L107.14 -73.3314 L107.143 -71.3268 L107.146 -69.3221 L107.149 -67.3174 L107.152 -65.3128 L107.155 -63.3081 L107.158 -61.3034 L107.161 -59.2987 L107.164 -57.2941 L107.167 -55.2894 L107.17 -53.2847 L107.173 -51.28 L107.176 -49.2754 L107.179 -47.2707 L107.182 -45.266 L107.185 -43.2613 L107.188 -41.2567 L107.191 -39.252 L107.194 -37.2473 L107.197 -35.2427 L107.2 -33.238 L107.203 -31.2333 L107.206 -29.2286 L107.209 -27.224 L107.212 -25.2193 L107.215 -23.2146 L107.218 -21.2099 L107.221 -19.2053 L107.224 -17.2006 L107.227 -15.1959 L107.23 -13.1913 L107.233 -11.1866 L107.236 -9.18191 L107.239 -7.17724 L107.242 -5.17256 L107.245 -3.16789 L107.248 -1.16322 L107.251 0.841455 L107.255 2.84613 L107.258 4.8508 L107.261 6.85547 L107.264 8.86015 L107.267 10.8648 L107.27 12.8695 L107.273 14.8742 L107.276 16.8788 L107.279 18.8835 L107.282 20.8882 L107.285 22.8929 L107.288 24.8975 L107.291 26.9022 L107.294 28.9069 L107.297 30.9115 L107.3 32.9162 L107.303 34.9209 L107.306 36.9256 L107.309 38.9302 L107.312 40.9349 L107.315 42.9396 L107.318 44.9443 L107.321 46.9489 L107.324 48.9536 L107.327 50.9583 L107.33 52.963 L107.333 54.9676 L107.336 56.9723 L107.339 58.977 L107.342 60.9816 L107.345 62.9863 L107.348 64.991 L107.351 66.9957 L107.354 69.0003 L107.357 71.005 L107.36 73.0097 L107.363 75.0144 L107.366 77.019 L107.369 79.0237 L107.372 81.0284 L107.375 83.033 L107.378 85.0377 L107.381 87.0424 L107.384 89.0471 L107.387 91.0517 L107.39 93.0564 L107.393 95.0611 L107.396 97.0658 L107.399 99.0704 L107.402 101.075 L107.405 103.08 L107.408 105.084 L107.411 107.089 Z " />
<path stroke="rgb(169,255,187)" stroke-opacity="1" fill="rgb(169,255,187)" fill-opacity="1" id="scalebar" d="M-3.69904 -94.609 L-1.65554 -94.609 L0.387962 -94.609 L2.43146 -94.609 L4.47496 -94.609 L4.47496 -92.6686 L4.47496 -90.7281 L4.47496 -88.7876 L4.47496 -86.8472 L4.47496 -84.9067 L4.47496 -82.9663 L4.47496 -81.0258 L4.47496 -79.0853 L4.47496 -77.1449 L4.47496 -75.2044 L4.47496 -73.2639 L4.47496 -71.3235 L4.47496 -69.383 L2.43146 -69.383 L0.387962 -69.383 L-1.65554 -69.383 L-3.69904 -69.383 L-3.69904 -71.3235 L-3.69904 -73.2639 L-3.69904 -75.2044 L-3.69904 -77.1449 L-3.69904 -79.0853 L-3.69904 -81.0258 L-3.69904 -82.9663 L-3.69904 -84.9067 L-3.69904 -86.8472 L-3.69904 -88.7876 L-3.69904 -90.7281 L-3.69904 -92.6686 L-3.69904 -94.609 Z " />
<path stroke="rgb(200,255,200)" stroke-opacity="1" fill="rgb(200,255,200)" fill-opacity="1" id="scaleslider" d="M-6.69904 -82.758 L-4.67418 -82.758 L-2.64932 -82.758 L-0.624466 -82.758 L1.40039 -82.758 L3.42525 -82.758 L5.4501 -82.758 L7.47496 -82.758 L7.47496 -81.0314 L7.47496 -79.3047 L7.47496 -77.578 L5.4501 -77.578 L3.42525 -77.578 L1.40039 -77.578 L-0.624466 -77.578 L-2.64932 -77.578 L-4.67418 -77.578 L-6.69904 -77.578 L-6.69904 -79.3047 L-6.69904 -81.0314 L-6.69904 -82.758 Z " />
<path stroke="rgb(255,134,106)" stroke-opacity="1" fill="rgb(255,134,106)" fill-opacity="1" id="tranbar" d="M-49.142 -86.146 L-47.0675 -86.146 L-44.993 -86.146 L-42.9185 -86.146 L-40.844 -86.146 L-40.844 -88.2208 L-40.844 -90.2955 L-40.844 -92.3703 L-40.844 -94.445 L-38.7685 -94.445 L-36.693 -94.445 L-34.6175 -94.445 L-32.542 -94.445 L-32.542 -92.3703 L-32.542 -90.2955 L-32.542 -88.2208 L-32.542 -86.146 L-30.4673 -86.146 L-28.3925 -86.146 L-26.3178 -86.146 L-24.243 -86.146 L-24.243 -84.0715 L-24.243 -81.997 L-24.243 -79.9225 L-24.243 -77.848 L-26.3178 -77.848 L-28.3925 -77.848 L-30.4673 -77.848 L-32.542 -77.848 L-32.542 -75.773 L-32.542 -73.698 L-32.542 -71.623 L-32.542 -69.548 L-34.6175 -69.548 L-36.693 -69.548 L-38.7685 -69.548 L-40.844 -69.548 L-40.844 -71.623 L-40.844 -73.698 L-40.844 -75.773 L-40.844 -77.848 L-42.9185 -77.848 L-44.993 -77.848 L-47.0675 -77.848 L-49.142 -77.848 L-49.142 -79.9225 L-49.142 -81.997 L-49.142 -84.0715 L-49.142 -86.146 Z " />
<path stroke="rgb(255,250,159)" stroke-opacity="1" fill="rgb(255,250,159)" fill-opacity="1" id="translider" d="M-39.248 -84.553 L-37.5447 -84.553 L-35.8414 -84.553 L-34.138 -84.553 L-34.138 -82.85 L-34.138 -81.147 L-34.138 -79.444 L-35.8414 -79.444 L-37.5447 -79.444 L-39.248 -79.444 L-39.248 -81.147 L-39.248 -82.85 L-39.248 -84.553 Z " />
<path stroke="rgb(254,204,128)" stroke-opacity="1" fill="rgb(254,204,128)" fill-opacity="1" id="rotate" d="M36.4025 -72.4711 L34.84 -73.5901 L33.2774 -74.7091 L31.7149 -75.8281 L30.1524 -76.9471 L28.5898 -78.066 L28.7779 -79.9789 L28.966 -81.8917 L29.1541 -83.8045 L29.3422 -85.7173 L29.5303 -87.6302 L31.2811 -88.4238 L33.0318 -89.2175 L34.7825 -90.0112 L36.5332 -90.8048 L38.2839 -91.5985 L39.8465 -90.4793 L41.4092 -89.3602 L42.9718 -88.241 L44.5344 -87.1218 L46.097 -86.0027 L45.9088 -84.09 L45.7206 -82.1774 L45.5324 -80.2647 L45.3443 -78.3521 L45.1561 -76.4394 L43.4054 -75.6458 L41.6546 -74.8521 L39.9039 -74.0584 L38.1532 -73.2648 L36.4025 -72.4711 Z " />
<path stroke="rgb(200,255,200)" stroke-opacity="1" fill="rgb(200,255,200)" fill-opacity="1" id="tri_0" d="M-4.9789 -45.7007 L-3.96215 -47.3617 L-2.94541 -49.0228 L-1.92866 -50.6838 L-0.911909 -52.3449 L0.104838 -54.0059 L1.03426 -52.2971 L1.96368 -50.5884 L2.8931 -48.8796 L3.82252 -47.1708 L4.75194 -45.4621 L2.80577 -45.5098 L0.859604 -45.5575 L-1.08656 -45.6052 L-3.03273 -45.653 L-4.9789 -45.7007 Z " />
<path stroke="rgb(200,255,200)" stroke-opacity="1" fill="rgb(200,255,200)" fill-opacity="1" id="tri_0_18_" d="M-9.95163 -37.0663 L-8.93586 -38.7274 L-7.92009 -40.3884 L-6.90432 -42.0495 L-5.88855 -43.7106 L-4.87278 -45.3716 L-3.94297 -43.6626 L-3.01317 -41.9537 L-2.08336 -40.2447 L-1.15355 -38.5357 L-0.223748 -36.8268 L-2.16932 -36.8747 L-4.1149 -36.9226 L-6.06048 -36.9705 L-8.00605 -37.0184 L-9.95163 -37.0663 Z " />
<path stroke="rgb(200,255,200)" stroke-opacity="1" fill="rgb(200,255,200)" fill-opacity="1" id="tri_1_16_" d="M0.0227984 -37.1719 L1.05389 -38.8001 L2.08497 -40.4284 L3.11606 -42.0567 L4.14714 -43.685 L5.17823 -45.3133 L6.07196 -43.6079 L6.9657 -41.9024 L7.85943 -40.197 L8.75316 -38.4915 L9.6469 -36.7861 L7.72208 -36.8633 L5.79726 -36.9404 L3.87244 -37.0176 L1.94762 -37.0947 L0.0227984 -37.1719 Z " />
<path stroke="rgb(200,255,200)" stroke-opacity="1" fill="rgb(200,255,200)" fill-opacity="1" id="tri_0_17_" d="M4.90695 -45.3494 L3.89058 -43.6881 L2.87422 -42.0269 L1.85786 -40.3656 L0.841499 -38.7044 L-0.174864 -37.0431 L-1.10467 -38.7521 L-2.03448 -40.4611 L-2.96428 -42.17 L-3.89409 -43.879 L-4.8239 -45.588 L-2.87773 -45.5403 L-0.931559 -45.4925 L1.01461 -45.4448 L2.96078 -45.3971 L4.90695 -45.3494 Z " />
<path stroke="rgb(200,255,200)" stroke-opacity="1" fill="rgb(200,255,200)" fill-opacity="1" id="tri_0_16_" d="M-14.9283 -28.429 L-13.9117 -30.0907 L-12.8951 -31.7523 L-11.8786 -33.4139 L-10.862 -35.0756 L-9.84544 -36.7372 L-8.91585 -35.0274 L-7.98626 -33.3177 L-7.05667 -31.6079 L-6.12708 -29.8982 L-5.1975 -28.1884 L-7.14365 -28.2366 L-9.08981 -28.2847 L-11.036 -28.3328 L-12.9821 -28.3809 L-14.9283 -28.429 Z " />
<path stroke="rgb(200,255,200)" stroke-opacity="1" fill="rgb(200,255,200)" fill-opacity="1" id="tri_1_15_" d="M-4.95096 -28.5335 L-3.92023 -30.1624 L-2.88951 -31.7913 L-1.85878 -33.4202 L-0.828056 -35.0491 L0.202669 -36.6779 L1.09657 -34.9719 L1.99047 -33.2659 L2.88437 -31.5599 L3.77827 -29.8538 L4.67217 -28.1478 L2.74755 -28.225 L0.822921 -28.3021 L-1.10171 -28.3792 L-3.02633 -28.4564 L-4.95096 -28.5335 Z " />
<path stroke="rgb(200,255,200)" stroke-opacity="1" fill="rgb(200,255,200)" fill-opacity="1" id="tri_0_15_" d="M-0.0686831 -36.714 L-1.08467 -35.0522 L-2.10066 -33.3904 L-3.11665 -31.7285 L-4.13264 -30.0667 L-5.14862 -28.4048 L-6.07821 -30.1146 L-7.0078 -31.8243 L-7.93739 -33.5341 L-8.86698 -35.2438 L-9.79657 -36.9536 L-7.85099 -36.9057 L-5.90541 -36.8578 L-3.95984 -36.8099 L-2.01426 -36.762 L-0.0686831 -36.714 Z " />
<path stroke="rgb(200,255,200)" stroke-opacity="1" fill="rgb(200,255,200)" fill-opacity="1" id="tri_2_14_" d="M5.02893 -28.6639 L6.07773 -30.251 L7.12653 -31.8381 L8.17533 -33.4253 L9.22414 -35.0124 L10.2729 -36.5995 L11.1214 -34.8987 L11.9698 -33.1979 L12.8183 -31.4971 L13.6668 -29.7963 L14.5152 -28.0955 L12.618 -28.2092 L10.7207 -28.3229 L8.82345 -28.4365 L6.92619 -28.5502 L5.02893 -28.6639 Z " />
<path stroke="rgb(200,255,200)" stroke-opacity="1" fill="rgb(200,255,200)" fill-opacity="1" id="tri_1_14_" d="M9.88764 -36.6252 L8.85672 -34.9963 L7.8258 -33.3674 L6.79488 -31.7386 L5.76397 -30.1097 L4.73305 -28.4808 L3.83915 -30.1868 L2.94524 -31.8929 L2.05134 -33.5989 L1.15744 -35.3049 L0.263542 -37.0109 L2.18836 -36.9338 L4.11318 -36.8566 L6.038 -36.7795 L7.96282 -36.7023 L9.88764 -36.6252 Z " />
<path stroke="rgb(200,255,200)" stroke-opacity="1" fill="rgb(200,255,200)" fill-opacity="1" id="tri_0_14_" d="M-19.904 -19.7907 L-18.8876 -21.4525 L-17.8713 -23.1144 L-16.8549 -24.7762 L-15.8385 -26.438 L-14.8221 -28.0999 L-13.8929 -26.3903 L-12.9637 -24.6808 L-12.0345 -22.9712 L-11.1053 -21.2617 L-10.1761 -19.5521 L-12.1217 -19.5999 L-14.0673 -19.6476 L-16.0129 -19.6953 L-17.9584 -19.743 L-19.904 -19.7907 Z " />
<path stroke="rgb(200,255,200)" stroke-opacity="1" fill="rgb(200,255,200)" fill-opacity="1" id="tri_1_13_" d="M-9.92953 -19.8973 L-8.89786 -21.5258 L-7.86619 -23.1542 L-6.83451 -24.7827 L-5.80284 -26.4111 L-4.77116 -28.0396 L-3.87743 -26.3341 L-2.9837 -24.6287 L-2.08996 -22.9233 L-1.19623 -21.2178 L-0.302496 -19.5124 L-2.2279 -19.5894 L-4.15331 -19.6664 L-6.07872 -19.7433 L-8.00413 -19.8203 L-9.92953 -19.8973 Z " />
<path stroke="rgb(200,255,200)" stroke-opacity="1" fill="rgb(200,255,200)" fill-opacity="1" id="tri_0_13_" d="M-5.04245 -28.0757 L-6.05941 -26.4143 L-7.07636 -24.7528 L-8.09331 -23.0914 L-9.11027 -21.43 L-10.1272 -19.7686 L-11.0564 -21.4781 L-11.9856 -23.1876 L-12.9148 -24.8972 L-13.844 -26.6067 L-14.7732 -28.3163 L-12.8271 -28.2681 L-10.8809 -28.22 L-8.93477 -28.1719 L-6.98861 -28.1238 L-5.04245 -28.0757 Z " />
<path stroke="rgb(200,255,200)" stroke-opacity="1" fill="rgb(200,255,200)" fill-opacity="1" id="tri_2_13_" d="M0.054321 -20.0285 L1.10309 -21.615 L2.15185 -23.2016 L3.20062 -24.7882 L4.24938 -26.3747 L5.29815 -27.9613 L6.14663 -26.2609 L6.99511 -24.5604 L7.84359 -22.86 L8.69207 -21.1596 L9.54055 -19.4592 L7.6433 -19.573 L5.74606 -19.6869 L3.84881 -19.8008 L1.95157 -19.9146 L0.054321 -20.0285 Z " />
<path stroke="rgb(200,255,200)" stroke-opacity="1" fill="rgb(200,255,200)" fill-opacity="1" id="tri_1_12_" d="M4.91293 -27.9869 L3.88203 -26.3586 L2.85114 -24.7303 L1.82025 -23.102 L0.789352 -21.4737 L-0.241542 -19.8454 L-1.13527 -21.5509 L-2.02901 -23.2563 L-2.92274 -24.9617 L-3.81647 -26.6672 L-4.71021 -28.3726 L-2.78558 -28.2955 L-0.860954 -28.2183 L1.06367 -28.1412 L2.9883 -28.064 L4.91293 -27.9869 Z " />
<path stroke="rgb(200,255,200)" stroke-opacity="1" fill="rgb(200,255,200)" fill-opacity="1" id="tri_3_12_" d="M10.0394 -20.1838 L11.109 -21.7191 L12.1786 -23.2543 L13.2482 -24.7896 L14.3177 -26.3249 L15.3873 -27.8602 L16.1815 -26.1682 L16.9757 -24.4762 L17.7699 -22.7842 L18.564 -21.0922 L19.3582 -19.4003 L17.4945 -19.557 L15.6307 -19.7137 L13.767 -19.8704 L11.9032 -20.0271 L10.0394 -20.1838 Z " />
<path stroke="rgb(200,255,200)" stroke-opacity="1" fill="rgb(200,255,200)" fill-opacity="1" id="tri_2_12_" d="M14.8628 -27.8723 L13.814 -26.2855 L12.7652 -24.6988 L11.7165 -23.112 L10.6677 -21.5253 L9.6189 -19.9385 L8.77042 -21.6389 L7.92194 -23.3394 L7.07346 -25.0398 L6.22498 -26.7402 L5.3765 -28.4406 L7.27376 -28.3269 L9.17101 -28.2133 L11.0683 -28.0996 L12.9655 -27.9859 L14.8628 -27.8723 Z " />
<path stroke="rgb(200,255,200)" stroke-opacity="1" fill="rgb(200,255,200)" fill-opacity="1" id="tri_0_12_" d="M-24.8786 -11.1583 L-23.8625 -12.819 L-22.8463 -14.4796 L-21.8302 -16.1403 L-20.814 -17.801 L-19.7979 -19.4616 L-18.8683 -17.7525 L-17.9387 -16.0433 L-17.0091 -14.3341 L-16.0794 -12.625 L-15.1498 -10.9158 L-17.0956 -10.9643 L-19.0414 -11.0128 L-20.9871 -11.0613 L-22.9329 -11.1098 L-24.8786 -11.1583 Z " />
<path stroke="rgb(200,255,200)" stroke-opacity="1" fill="rgb(200,255,200)" fill-opacity="1" id="tri_1_11_" d="M-14.9033 -11.2609 L-13.8726 -12.8894 L-12.8419 -14.5178 L-11.8112 -16.1463 L-10.7805 -17.7748 L-9.74976 -19.4033 L-8.85584 -17.6977 L-7.96192 -15.9921 L-7.068 -14.2864 L-6.17408 -12.5808 L-5.28016 -10.8751 L-7.20479 -10.9523 L-9.12942 -11.0294 L-11.054 -11.1066 L-12.9787 -11.1837 L-14.9033 -11.2609 Z " />
<path stroke="rgb(200,255,200)" stroke-opacity="1" fill="rgb(200,255,200)" fill-opacity="1" id="tri_0_11_" d="M-10.0211 -19.4394 L-11.037 -17.778 L-12.053 -16.1165 L-13.069 -14.4551 L-14.085 -12.7936 L-15.1009 -11.1322 L-16.0305 -12.8413 L-16.9602 -14.5505 L-17.8898 -16.2596 L-18.8194 -17.9688 L-19.749 -19.678 L-17.8034 -19.6302 L-15.8578 -19.5825 L-13.9122 -19.5348 L-11.9666 -19.4871 L-10.0211 -19.4394 Z " />
<path stroke="rgb(200,255,200)" stroke-opacity="1" fill="rgb(200,255,200)" fill-opacity="1" id="tri_2_11_" d="M-4.92339 -11.3913 L-3.87403 -12.9782 L-2.82467 -14.5651 L-1.77531 -16.152 L-0.725953 -17.7389 L0.323407 -19.3258 L1.17152 -17.6256 L2.01963 -15.9254 L2.86774 -14.2252 L3.71585 -12.525 L4.56396 -10.8248 L2.66649 -10.9381 L0.769023 -11.0514 L-1.12845 -11.1647 L-3.02592 -11.278 L-4.92339 -11.3913 Z " />
<path stroke="rgb(200,255,200)" stroke-opacity="1" fill="rgb(200,255,200)" fill-opacity="1" id="tri_1_10_" d="M-0.061794 -19.3515 L-1.09328 -17.7228 L-2.12477 -16.0941 L-3.15626 -14.4655 L-4.18775 -12.8368 L-5.21924 -11.2082 L-6.11316 -12.9138 L-7.00707 -14.6195 L-7.90099 -16.3251 L-8.79491 -18.0307 L-9.68883 -19.7364 L-7.76343 -19.6594 L-5.83802 -19.5824 L-3.91261 -19.5054 L-1.9872 -19.4284 L-0.061794 -19.3515 Z " />
<path stroke="rgb(200,255,200)" stroke-opacity="1" fill="rgb(200,255,200)" fill-opacity="1" id="tri_3_11_" d="M5.06295 -11.5494 L6.13286 -13.0842 L7.20278 -14.6191 L8.27269 -16.154 L9.3426 -17.6889 L10.4125 -19.2237 L11.2063 -17.5314 L12.0001 -15.8391 L12.7939 -14.1468 L13.5876 -12.4544 L14.3814 -10.7621 L12.5177 -10.9196 L10.654 -11.077 L8.79034 -11.2345 L6.92664 -11.3919 L5.06295 -11.5494 Z " />
<path stroke="rgb(200,255,200)" stroke-opacity="1" fill="rgb(200,255,200)" fill-opacity="1" id="tri_2_10_" d="M9.88802 -19.2359 L8.83888 -17.6496 L7.78975 -16.0632 L6.74061 -14.4769 L5.69148 -12.8906 L4.64235 -11.3042 L3.79424 -13.0044 L2.94613 -14.7046 L2.09801 -16.4048 L1.2499 -18.105 L0.40179 -19.8052 L2.29904 -19.6914 L4.19628 -19.5775 L6.09353 -19.4637 L7.99077 -19.3498 L9.88802 -19.2359 Z " />
<path stroke="rgb(200,255,200)" stroke-opacity="1" fill="rgb(200,255,200)" fill-opacity="1" id="tri_4_10_" d="M15.0605 -11.7385 L16.1543 -13.2103 L17.2481 -14.6822 L18.3419 -16.154 L19.4357 -17.6259 L20.5295 -19.0977 L21.256 -17.4161 L21.9825 -15.7345 L22.709 -14.0529 L23.4354 -12.3713 L24.1619 -10.6897 L22.3416 -10.8994 L20.5214 -11.1092 L18.7011 -11.3189 L16.8808 -11.5287 L15.0605 -11.7385 Z " />
<path stroke="rgb(200,255,200)" stroke-opacity="1" fill="rgb(200,255,200)" fill-opacity="1" id="tri_3_10_" d="M19.8347 -19.0983 L18.7647 -17.5627 L17.6947 -16.027 L16.6248 -14.4914 L15.5548 -12.9558 L14.4848 -11.4202 L13.691 -13.1125 L12.8972 -14.8048 L12.1035 -16.4971 L11.3097 -18.1895 L10.5159 -19.8818 L12.3797 -19.7251 L14.2434 -19.5684 L16.1072 -19.4117 L17.9709 -19.255 L19.8347 -19.0983 Z " />
<path stroke="rgb(200,255,200)" stroke-opacity="1" fill="rgb(200,255,200)" fill-opacity="1" id="tri_0_10_" d="M-29.8543 -2.52004 L-28.838 -4.18187 L-27.8216 -5.8437 L-26.8052 -7.50553 L-25.7888 -9.16736 L-24.7725 -10.8292 L-23.8429 -9.11905 L-22.9133 -7.40892 L-21.9837 -5.69878 L-21.0541 -3.98864 L-20.1246 -2.2785 L-22.0705 -2.32681 L-24.0165 -2.37512 L-25.9624 -2.42342 L-27.9084 -2.47173 L-29.8543 -2.52004 Z " />
<path stroke="rgb(200,255,200)" stroke-opacity="1" fill="rgb(200,255,200)" fill-opacity="1" id="tri_1_9_" d="M-19.878 -2.62356 L-18.8471 -4.25224 L-17.8162 -5.88092 L-16.7853 -7.5096 L-15.7544 -9.13828 L-14.7234 -10.767 L-13.8297 -9.06133 L-12.936 -7.3557 L-12.0423 -5.65006 L-11.1485 -3.94443 L-10.2548 -2.2388 L-12.1795 -2.31575 L-14.1041 -2.3927 L-16.0287 -2.46965 L-17.9534 -2.54661 L-19.878 -2.62356 Z " />
<path stroke="rgb(200,255,200)" stroke-opacity="1" fill="rgb(200,255,200)" fill-opacity="1" id="tri_0_9_" d="M-14.9948 -10.8031 L-16.011 -9.14144 L-17.0271 -7.4798 L-18.0433 -5.81816 L-19.0595 -4.15652 L-20.0757 -2.49488 L-21.0052 -4.20502 L-21.9348 -5.91515 L-22.8644 -7.62529 L-23.794 -9.33543 L-24.7236 -11.0456 L-22.7778 -10.9971 L-20.8321 -10.9486 L-18.8863 -10.9001 L-16.9405 -10.8516 L-14.9948 -10.8031 Z " />
<path stroke="rgb(200,255,200)" stroke-opacity="1" fill="rgb(200,255,200)" fill-opacity="1" id="tri_2_9_" d="M-9.89809 -2.75492 L-8.84931 -4.34167 L-7.80053 -5.92842 L-6.75175 -7.51517 L-5.70298 -9.10192 L-4.6542 -10.6887 L-3.80532 -8.9886 L-2.95643 -7.28854 L-2.10755 -5.58848 L-1.25866 -3.88842 L-0.40978 -2.18836 L-2.30744 -2.30167 L-4.2051 -2.41498 L-6.10276 -2.5283 L-8.00043 -2.64161 L-9.89809 -2.75492 Z " />
<path stroke="rgb(200,255,200)" stroke-opacity="1" fill="rgb(200,255,200)" fill-opacity="1" id="tri_1_8_" d="M-5.03942 -10.7142 L-6.07033 -9.08575 L-7.10123 -7.45726 L-8.13213 -5.82877 L-9.16303 -4.20028 L-10.1939 -2.5718 L-11.0877 -4.27743 L-11.9814 -5.98306 L-12.8751 -7.68869 L-13.7688 -9.39433 L-14.6626 -11.1 L-12.7379 -11.0228 L-10.8133 -10.9457 L-8.88868 -10.8685 L-6.96405 -10.7914 L-5.03942 -10.7142 Z " />
<path stroke="rgb(200,255,200)" stroke-opacity="1" fill="rgb(200,255,200)" fill-opacity="1" id="tri_3_9_" d="M0.0890677 -2.91295 L1.15845 -4.44824 L2.22784 -5.98354 L3.29723 -7.51883 L4.36661 -9.05413 L5.436 -10.5894 L6.22976 -8.89691 L7.02352 -7.2044 L7.81729 -5.51189 L8.61105 -3.81938 L9.40481 -2.12687 L7.54166 -2.28409 L5.67851 -2.4413 L3.81537 -2.59852 L1.95222 -2.75574 L0.0890677 -2.91295 Z " />
<path stroke="rgb(200,255,200)" stroke-opacity="1" fill="rgb(200,255,200)" fill-opacity="1" id="tri_2_8_" d="M4.91146 -10.6016 L3.86287 -9.01481 L2.81428 -7.42805 L1.7657 -5.84129 L0.717109 -4.25453 L-0.331477 -2.66777 L-1.18036 -4.36783 L-2.02925 -6.06789 L-2.87813 -7.76795 L-3.72701 -9.46802 L-4.5759 -11.1681 L-2.67843 -11.0548 L-0.780955 -10.9415 L1.11652 -10.8282 L3.01399 -10.7149 L4.91146 -10.6016 Z " />
<path stroke="rgb(200,255,200)" stroke-opacity="1" fill="rgb(200,255,200)" fill-opacity="1" id="tri_4_9_" d="M10.084 -3.10311 L11.1777 -4.57442 L12.2714 -6.04573 L13.3652 -7.51704 L14.4589 -8.98835 L15.5527 -10.4597 L16.2796 -8.77855 L17.0065 -7.09745 L17.7334 -5.41634 L18.4603 -3.73523 L19.1872 -2.05413 L17.3666 -2.26392 L15.5459 -2.47372 L13.7253 -2.68352 L11.9046 -2.89332 L10.084 -3.10311 Z " />
<path stroke="rgb(200,255,200)" stroke-opacity="1" fill="rgb(200,255,200)" fill-opacity="1" id="tri_3_8_" d="M14.8578 -10.4601 L13.7879 -8.92503 L12.718 -7.38997 L11.648 -5.85491 L10.5781 -4.31985 L9.50818 -2.78479 L8.71442 -4.4773 L7.92066 -6.16981 L7.12689 -7.86232 L6.33313 -9.55483 L5.53937 -11.2473 L7.40306 -11.0899 L9.26675 -10.9324 L11.1304 -10.775 L12.9941 -10.6175 L14.8578 -10.4601 Z " />
<path stroke="rgb(200,255,200)" stroke-opacity="1" fill="rgb(200,255,200)" fill-opacity="1" id="tri_5_8_" d="M20.0947 -3.32282 L21.2135 -4.71859 L22.3323 -6.11437 L23.4511 -7.51015 L24.57 -8.90592 L25.6888 -10.3017 L26.3372 -8.63639 L26.9857 -6.97107 L27.6341 -5.30575 L28.2826 -3.64044 L28.931 -1.97512 L27.1638 -2.24466 L25.3965 -2.5142 L23.6292 -2.78374 L21.862 -3.05328 L20.0947 -3.32282 Z " />
<path stroke="rgb(200,255,200)" stroke-opacity="1" fill="rgb(200,255,200)" fill-opacity="1" id="tri_4_8_" d="M24.7939 -10.2868 L23.7006 -8.8155 L22.6072 -7.34415 L21.5138 -5.87279 L20.4205 -4.40144 L19.3271 -2.93009 L18.6002 -4.61119 L17.8733 -6.2923 L17.1463 -7.97341 L16.4194 -9.65451 L15.6925 -11.3356 L17.5128 -11.1259 L19.3331 -10.9161 L21.1534 -10.7064 L22.9737 -10.4966 L24.7939 -10.2868 Z " />
<path stroke="rgb(200,255,200)" stroke-opacity="1" fill="rgb(200,255,200)" fill-opacity="1" id="tri_0_8_" d="M-34.832 6.11725 L-33.8153 4.45563 L-32.7985 2.794 L-31.7817 1.13237 L-30.765 -0.529253 L-29.7482 -2.19088 L-28.8188 -0.481526 L-27.8894 1.22783 L-26.96 2.93718 L-26.0306 4.64653 L-25.1012 6.35588 L-27.0474 6.30815 L-28.9935 6.26043 L-30.9397 6.2127 L-32.8859 6.16498 L-34.832 6.11725 Z " />
<path stroke="rgb(200,255,200)" stroke-opacity="1" fill="rgb(200,255,200)" fill-opacity="1" id="tri_1_7_" d="M-24.8546 6.01081 L-23.8233 4.38272 L-22.7921 2.75464 L-21.7608 1.12655 L-20.7295 -0.501531 L-19.6982 -2.12962 L-18.8051 -0.424202 L-17.9119 1.28121 L-17.0188 2.98663 L-16.1256 4.69204 L-15.2325 6.39745 L-17.1569 6.32013 L-19.0813 6.2428 L-21.0058 6.16547 L-22.9302 6.08814 L-24.8546 6.01081 Z " />
<path stroke="rgb(200,255,200)" stroke-opacity="1" fill="rgb(200,255,200)" fill-opacity="1" id="tri_0_7_" d="M-19.9695 -2.16575 L-20.9861 -0.504702 L-22.0026 1.15634 L-23.0192 2.81739 L-24.0357 4.47843 L-25.0523 6.13948 L-25.9817 4.43012 L-26.9111 2.72077 L-27.8405 1.01142 L-28.7699 -0.697929 L-29.6993 -2.40728 L-27.7533 -2.35897 L-25.8074 -2.31067 L-23.8614 -2.26236 L-21.9155 -2.21405 L-19.9695 -2.16575 Z " />
<path stroke="rgb(200,255,200)" stroke-opacity="1" fill="rgb(200,255,200)" fill-opacity="1" id="tri_2_7_" d="M-14.8757 5.88134 L-13.8263 4.29463 L-12.777 2.70792 L-11.7276 1.12121 L-10.6783 -0.465507 L-9.62895 -2.05222 L-8.78046 -0.351991 L-7.93197 1.34824 L-7.08347 3.04846 L-6.23498 4.74869 L-5.38649 6.44892 L-7.28433 6.3354 L-9.18217 6.22189 L-11.08 6.10837 L-12.9778 5.99486 L-14.8757 5.88134 Z " />
<path stroke="rgb(200,255,200)" stroke-opacity="1" fill="rgb(200,255,200)" fill-opacity="1" id="tri_1_6_" d="M-10.0141 -2.07786 L-11.0456 -0.449395 L-12.0771 1.17907 L-13.1086 2.80753 L-14.14 4.43599 L-15.1715 6.06445 L-16.0647 4.35904 L-16.9578 2.65363 L-17.851 0.948212 L-18.7441 -0.757202 L-19.6373 -2.46262 L-17.7127 -2.38566 L-15.788 -2.30871 L-13.8634 -2.23176 L-11.9388 -2.15481 L-10.0141 -2.07786 Z " />
<path stroke="rgb(200,255,200)" stroke-opacity="1" fill="rgb(200,255,200)" fill-opacity="1" id="tri_3_7_" d="M-4.88756 5.72426 L-3.8176 4.18883 L-2.74763 2.65339 L-1.67767 1.11796 L-0.607708 -0.417475 L0.462253 -1.95291 L1.25563 -0.260241 L2.049 1.43242 L2.84237 3.12509 L3.63575 4.81775 L4.42912 6.51042 L2.56578 6.35319 L0.702449 6.19596 L-1.16089 6.03872 L-3.02422 5.88149 L-4.88756 5.72426 Z " />
<path stroke="rgb(200,255,200)" stroke-opacity="1" fill="rgb(200,255,200)" fill-opacity="1" id="tri_2_6_" d="M-0.0622682 -1.96516 L-1.11144 -0.378244 L-2.16061 1.20867 L-3.20978 2.79559 L-4.25895 4.38251 L-5.30812 5.96942 L-6.15661 4.26919 L-7.0051 2.56897 L-7.85359 0.868739 L-8.70208 -0.831488 L-9.55057 -2.53172 L-7.65291 -2.41841 L-5.75525 -2.30509 L-3.85759 -2.19178 L-1.95993 -2.07847 L-0.0622682 -1.96516 Z " />
<path stroke="rgb(200,255,200)" stroke-opacity="1" fill="rgb(200,255,200)" fill-opacity="1" id="tri_4_7_" d="M5.1081 5.53417 L6.2017 4.06248 L7.2953 2.59078 L8.38889 1.11909 L9.48249 -0.352608 L10.5761 -1.8243 L11.303 -0.143198 L12.0299 1.53791 L12.7568 3.21901 L13.4837 4.90011 L14.2107 6.58122 L12.3901 6.37181 L10.5696 6.1624 L8.74913 5.95299 L6.92861 5.74358 L5.1081 5.53417 Z " />
<path stroke="rgb(200,255,200)" stroke-opacity="1" fill="rgb(200,255,200)" fill-opacity="1" id="tri_3_6_" d="M9.88131 -1.8248 L8.81153 -0.289349 L7.74176 1.2461 L6.67198 2.78155 L5.60221 4.317 L4.53243 5.85245 L3.73906 4.15978 L2.94568 2.46712 L2.15231 0.774453 L1.35894 -0.918212 L0.565564 -2.61088 L2.42871 -2.45366 L4.29186 -2.29645 L6.15501 -2.13923 L8.01816 -1.98201 L9.88131 -1.8248 Z " />
<path stroke="rgb(200,255,200)" stroke-opacity="1" fill="rgb(200,255,200)" fill-opacity="1" id="tri_5_7_" d="M15.1183 5.31252 L16.2374 3.9168 L17.3566 2.52108 L18.4758 1.12536 L19.595 -0.270363 L20.7141 -1.66608 L21.3623 -8.7033e-05 L22.0105 1.66591 L22.6586 3.33191 L23.3068 4.9979 L23.955 6.6639 L22.1876 6.39362 L20.4203 6.12335 L18.653 5.85307 L16.8856 5.58279 L15.1183 5.31252 Z " />
<path stroke="rgb(200,255,200)" stroke-opacity="1" fill="rgb(200,255,200)" fill-opacity="1" id="tri_4_6_" d="M19.8192 -1.65138 L18.7254 -0.180076 L17.6317 1.29123 L16.5379 2.76254 L15.4442 4.23385 L14.3505 5.70515 L13.6235 4.02405 L12.8966 2.34295 L12.1697 0.661841 L11.4428 -1.01926 L10.7159 -2.70037 L12.5365 -2.49057 L14.3572 -2.28077 L16.1778 -2.07098 L17.9985 -1.86118 L19.8192 -1.65138 Z " />
<path stroke="rgb(200,255,200)" stroke-opacity="1" fill="rgb(200,255,200)" fill-opacity="1" id="tri_6_6_" d="M25.1416 5.06603 L26.2866 3.75773 L27.4316 2.44944 L28.5766 1.14114 L29.7216 -0.167153 L30.8666 -1.47545 L31.4262 0.168273 L31.9858 1.81199 L32.5455 3.45572 L33.1051 5.09944 L33.6647 6.74316 L31.9601 6.40773 L30.2555 6.07231 L28.5509 5.73688 L26.8462 5.40145 L25.1416 5.06603 Z " />
<path stroke="rgb(200,255,200)" stroke-opacity="1" fill="rgb(200,255,200)" fill-opacity="1" id="tri_5_6_" d="M29.7413 -1.44817 L28.6222 -0.0517149 L27.5031 1.34474 L26.384 2.7412 L25.2649 4.13766 L24.1458 5.53411 L23.4976 3.86812 L22.8495 2.20212 L22.2013 0.536126 L21.5531 -1.12987 L20.905 -2.79587 L22.6722 -2.52633 L24.4395 -2.25679 L26.2068 -1.98725 L27.974 -1.71771 L29.7413 -1.44817 Z " />
<path stroke="rgb(200,255,200)" stroke-opacity="1" fill="rgb(200,255,200)" fill-opacity="1" id="tri_0_6_" d="M-39.8067 14.7546 L-38.7905 13.093 L-37.7744 11.4313 L-36.7582 9.76968 L-35.742 8.10804 L-34.7258 6.4464 L-33.7956 8.15596 L-32.8655 9.86553 L-31.9353 11.5751 L-31.0051 13.2847 L-30.0749 14.9942 L-32.0213 14.9463 L-33.9676 14.8984 L-35.914 14.8505 L-37.8604 14.8025 L-39.8067 14.7546 Z " />
<path stroke="rgb(200,255,200)" stroke-opacity="1" fill="rgb(200,255,200)" fill-opacity="1" id="tri_1_5_" d="M-29.8284 14.6491 L-28.7977 13.0203 L-27.767 11.3914 L-26.7362 9.7625 L-25.7055 8.13362 L-24.6748 6.50474 L-23.7815 8.21074 L-22.8881 9.91674 L-21.9948 11.6227 L-21.1015 13.3287 L-20.2082 15.0347 L-22.1322 14.9576 L-24.0563 14.8805 L-25.9803 14.8034 L-27.9044 14.7263 L-29.8284 14.6491 Z " />
<path stroke="rgb(200,255,200)" stroke-opacity="1" fill="rgb(200,255,200)" fill-opacity="1" id="tri_0_5_" d="M-24.9461 6.46861 L-25.9621 8.13046 L-26.9781 9.7923 L-27.9941 11.4541 L-29.0101 13.116 L-30.0261 14.7778 L-30.9562 13.0683 L-31.8864 11.3587 L-32.8166 9.64912 L-33.7468 7.93955 L-34.677 6.22998 L-32.7308 6.27771 L-30.7846 6.32544 L-28.8385 6.37316 L-26.8923 6.42089 L-24.9461 6.46861 Z " />
<path stroke="rgb(200,255,200)" stroke-opacity="1" fill="rgb(200,255,200)" fill-opacity="1" id="tri_2_5_" d="M-19.8515 14.5186 L-18.8025 12.9317 L-17.7535 11.3448 L-16.7046 9.75785 L-15.6556 8.17092 L-14.6066 6.58399 L-13.7577 8.28368 L-12.9088 9.98336 L-12.0599 11.683 L-11.211 13.3827 L-10.3621 15.0824 L-12.2599 14.9697 L-14.1578 14.8569 L-16.0557 14.7441 L-17.9536 14.6314 L-19.8515 14.5186 Z " />
<path stroke="rgb(200,255,200)" stroke-opacity="1" fill="rgb(200,255,200)" fill-opacity="1" id="tri_1_4_" d="M-14.9918 6.55842 L-16.0229 8.18709 L-17.054 9.81576 L-18.0851 11.4444 L-19.1162 13.0731 L-20.1473 14.7018 L-21.0406 12.9958 L-21.934 11.2898 L-22.8273 9.58377 L-23.7206 7.87777 L-24.6139 6.17177 L-22.6895 6.2491 L-20.7651 6.32643 L-18.8406 6.40376 L-16.9162 6.48109 L-14.9918 6.55842 Z " />
<path stroke="rgb(200,255,200)" stroke-opacity="1" fill="rgb(200,255,200)" fill-opacity="1" id="tri_3_5_" d="M-9.86302 14.3577 L-8.7933 12.823 L-7.72359 11.2883 L-6.65388 9.75363 L-5.58417 8.21892 L-4.51446 6.68422 L-3.72053 8.37693 L-2.9266 10.0696 L-2.13266 11.7624 L-1.33873 13.4551 L-0.544798 15.1478 L-2.40844 14.9898 L-4.27209 14.8318 L-6.13573 14.6738 L-7.99937 14.5157 L-9.86302 14.3577 Z " />
<path stroke="rgb(200,255,200)" stroke-opacity="1" fill="rgb(200,255,200)" fill-opacity="1" id="tri_2_4_" d="M-5.03904 6.67209 L-6.08797 8.25826 L-7.13691 9.84443 L-8.18584 11.4306 L-9.23477 13.0168 L-10.2837 14.6029 L-11.1326 12.9032 L-11.9815 11.2036 L-12.8304 9.50388 L-13.6793 7.8042 L-14.5282 6.10452 L-12.6304 6.21803 L-10.7326 6.33155 L-8.83472 6.44506 L-6.93688 6.55858 L-5.03904 6.67209 Z " />
<path stroke="rgb(200,255,200)" stroke-opacity="1" fill="rgb(200,255,200)" fill-opacity="1" id="tri_4_5_" d="M0.134314 14.1717 L1.22755 12.7 L2.32078 11.2282 L3.41401 9.75648 L4.50725 8.28474 L5.60048 6.81301 L6.32719 8.49427 L7.0539 10.1755 L7.78061 11.8568 L8.50732 13.5381 L9.23403 15.2193 L7.41409 15.0098 L5.59414 14.8003 L3.7742 14.5908 L1.95426 14.3812 L0.134314 14.1717 Z " />
<path stroke="rgb(200,255,200)" stroke-opacity="1" fill="rgb(200,255,200)" fill-opacity="1" id="tri_3_4_" d="M4.90565 6.81251 L3.83624 8.34799 L2.76684 9.88347 L1.69744 11.419 L0.628036 12.9544 L-0.441366 14.4899 L-1.2353 12.7972 L-2.02923 11.1045 L-2.82317 9.41178 L-3.6171 7.71906 L-4.41103 6.02635 L-2.5477 6.18358 L-0.684361 6.34081 L1.17897 6.49804 L3.04231 6.65528 L4.90565 6.81251 Z " />
<path stroke="rgb(200,255,200)" stroke-opacity="1" fill="rgb(200,255,200)" fill-opacity="1" id="tri_5_5_" d="M10.1414 13.9505 L11.2607 12.5543 L12.3799 11.158 L13.4992 9.76179 L14.6184 8.36553 L15.7377 6.96928 L16.3862 8.63533 L17.0347 10.3014 L17.6832 11.9674 L18.3318 13.6335 L18.9803 15.2995 L17.2125 15.0297 L15.4447 14.7599 L13.677 14.4901 L11.9092 14.2203 L10.1414 13.9505 Z " />
<path stroke="rgb(200,255,200)" stroke-opacity="1" fill="rgb(200,255,200)" fill-opacity="1" id="tri_4_4_" d="M14.8427 6.98404 L13.7489 8.4559 L12.6551 9.92775 L11.5613 11.3996 L10.4675 12.8715 L9.37365 14.3433 L8.64694 12.6621 L7.92023 10.9808 L7.19352 9.29953 L6.46681 7.61826 L5.7401 5.937 L7.56061 6.14641 L9.38112 6.35581 L11.2016 6.56522 L13.0221 6.77463 L14.8427 6.98404 Z " />
<path stroke="rgb(200,255,200)" stroke-opacity="1" fill="rgb(200,255,200)" fill-opacity="1" id="tri_6_5_" d="M20.1672 13.7017 L21.3119 12.394 L22.4566 11.0864 L23.6013 9.77874 L24.7459 8.4711 L25.8906 7.16345 L26.4505 8.80687 L27.0104 10.4503 L27.5702 12.0937 L28.1301 13.7371 L28.69 15.3805 L26.9854 15.0448 L25.2809 14.709 L23.5763 14.3732 L21.8718 14.0374 L20.1672 13.7017 Z " />
<path stroke="rgb(200,255,200)" stroke-opacity="1" fill="rgb(200,255,200)" fill-opacity="1" id="tri_5_4_" d="M24.7653 7.19087 L23.6465 8.58664 L22.5277 9.98242 L21.4088 11.3782 L20.29 12.774 L19.1712 14.1697 L18.5227 12.5037 L17.8741 10.8376 L17.2256 9.17159 L16.5771 7.50554 L15.9286 5.83949 L17.6959 6.10976 L19.4633 6.38004 L21.2306 6.65032 L22.998 6.92059 L24.7653 7.19087 Z " />
<path stroke="rgb(200,255,200)" stroke-opacity="1" fill="rgb(200,255,200)" fill-opacity="1" id="tri_7_4_" d="M30.2137 13.4199 L31.3832 12.2135 L32.5527 11.0072 L33.7222 9.80089 L34.8918 8.59456 L36.0613 7.38824 L36.5198 9.00276 L36.9784 10.6173 L37.437 12.2318 L37.8956 13.8463 L38.3541 15.4608 L36.726 15.0526 L35.098 14.6444 L33.4699 14.2362 L31.8418 13.828 L30.2137 13.4199 Z " />
<path stroke="rgb(200,255,200)" stroke-opacity="1" fill="rgb(200,255,200)" fill-opacity="1" id="tri_6_4_" d="M34.6746 7.42062 L33.5298 8.72861 L32.3851 10.0366 L31.2403 11.3446 L30.0956 12.6526 L28.9508 13.9606 L28.3909 12.3171 L27.8311 10.6737 L27.2712 9.03032 L26.7113 7.3869 L26.1514 5.74349 L27.8561 6.07891 L29.5607 6.41434 L31.2653 6.74977 L32.9699 7.08519 L34.6746 7.42062 Z " />
<path stroke="rgb(200,255,200)" stroke-opacity="1" fill="rgb(200,255,200)" fill-opacity="1" id="tri_0_4_" d="M-44.7834 23.3919 L-43.7668 21.7303 L-42.7503 20.0686 L-41.7337 18.407 L-40.7171 16.7454 L-39.7006 15.0838 L-38.771 16.7929 L-37.8414 18.5021 L-36.9118 20.2112 L-35.9821 21.9204 L-35.0525 23.6296 L-36.9987 23.582 L-38.9449 23.5345 L-40.8911 23.487 L-42.8372 23.4394 L-44.7834 23.3919 Z " />
<path stroke="rgb(200,255,200)" stroke-opacity="1" fill="rgb(200,255,200)" fill-opacity="1" id="tri_1_3_" d="M-34.806 23.2844 L-33.7745 21.6562 L-32.743 20.0279 L-31.7116 18.3996 L-30.6801 16.7713 L-29.6486 15.1431 L-28.7557 16.8485 L-27.8627 18.5539 L-26.9697 20.2593 L-26.0768 21.9647 L-25.1838 23.6701 L-27.1083 23.593 L-29.0327 23.5158 L-30.9571 23.4387 L-32.8816 23.3616 L-34.806 23.2844 Z " />
<path stroke="rgb(200,255,200)" stroke-opacity="1" fill="rgb(200,255,200)" fill-opacity="1" id="tri_0_3_" d="M-29.9199 15.107 L-30.9366 16.7682 L-31.9534 18.4294 L-32.9701 20.0907 L-33.9869 21.7519 L-35.0036 23.4131 L-35.9332 21.704 L-36.8628 19.9948 L-37.7924 18.2856 L-38.7221 16.5765 L-39.6517 14.8673 L-37.7053 14.9152 L-35.7589 14.9632 L-33.8126 15.0111 L-31.8662 15.059 L-29.9199 15.107 Z " />
<path stroke="rgb(200,255,200)" stroke-opacity="1" fill="rgb(200,255,200)" fill-opacity="1" id="tri_2_3_" d="M-24.8271 23.154 L-23.7781 21.5675 L-22.7292 19.981 L-21.6802 18.3944 L-20.6312 16.8079 L-19.5823 15.2213 L-18.7334 16.9214 L-17.8845 18.6214 L-17.0356 20.3215 L-16.1868 22.0216 L-15.3379 23.7216 L-17.2357 23.6081 L-19.1335 23.4946 L-21.0314 23.3811 L-22.9292 23.2676 L-24.8271 23.154 Z " />
<path stroke="rgb(200,255,200)" stroke-opacity="1" fill="rgb(200,255,200)" fill-opacity="1" id="tri_1_2_" d="M-19.9675 15.1957 L-20.9985 16.824 L-22.0296 18.4523 L-23.0607 20.0806 L-24.0918 21.7089 L-25.1229 23.3371 L-26.0159 21.6317 L-26.9088 19.9263 L-27.8018 18.2209 L-28.6947 16.5155 L-29.5877 14.8101 L-27.6637 14.8872 L-25.7396 14.9643 L-23.8156 15.0415 L-21.8915 15.1186 L-19.9675 15.1957 Z " />
<path stroke="rgb(200,255,200)" stroke-opacity="1" fill="rgb(200,255,200)" fill-opacity="1" id="tri_3_3_" d="M-14.8389 22.9969 L-13.7691 21.4611 L-12.6993 19.9253 L-11.6295 18.3895 L-10.5597 16.8537 L-9.4899 15.3178 L-8.69641 17.0113 L-7.90291 18.7047 L-7.10942 20.3981 L-6.31592 22.0915 L-5.52243 23.785 L-7.38573 23.6274 L-9.24903 23.4698 L-11.1123 23.3122 L-12.9756 23.1545 L-14.8389 22.9969 Z " />
<path stroke="rgb(200,255,200)" stroke-opacity="1" fill="rgb(200,255,200)" fill-opacity="1" id="tri_2_2_" d="M-10.0145 15.3056 L-11.0635 16.8929 L-12.1125 18.4802 L-13.1615 20.0675 L-14.2106 21.6548 L-15.2596 23.2421 L-16.1084 21.542 L-16.9573 19.842 L-17.8062 18.1419 L-18.6551 16.4419 L-19.504 14.7418 L-17.6061 14.8546 L-15.7082 14.9673 L-13.8103 15.0801 L-11.9124 15.1928 L-10.0145 15.3056 Z " />
<path stroke="rgb(200,255,200)" stroke-opacity="1" fill="rgb(200,255,200)" fill-opacity="1" id="tri_4_3_" d="M-4.84328 22.8087 L-3.74931 21.3371 L-2.65535 19.8654 L-1.56139 18.3937 L-0.467428 16.9221 L0.626534 15.4504 L1.35313 17.1311 L2.07972 18.8118 L2.80631 20.4925 L3.5329 22.1732 L4.2595 23.8539 L2.43894 23.6449 L0.618387 23.4358 L-1.20217 23.2268 L-3.02272 23.0177 L-4.84328 22.8087 Z " />
<path stroke="rgb(200,255,200)" stroke-opacity="1" fill="rgb(200,255,200)" fill-opacity="1" id="tri_3_2_" d="M-0.0682639 15.4499 L-1.13841 16.9853 L-2.20856 18.5207 L-3.27871 20.0562 L-4.34886 21.5916 L-5.41901 23.127 L-6.2125 21.4336 L-7.006 19.7401 L-7.79949 18.0467 L-8.59299 16.3533 L-9.38648 14.6599 L-7.52284 14.8179 L-5.65919 14.9759 L-3.79555 15.1339 L-1.93191 15.2919 L-0.0682639 15.4499 Z " />
<path stroke="rgb(200,255,200)" stroke-opacity="1" fill="rgb(200,255,200)" fill-opacity="1" id="tri_5_3_" d="M5.16676 22.5853 L6.28555 21.1897 L7.40434 19.7941 L8.52313 18.3985 L9.64193 17.0029 L10.7607 15.6073 L11.4091 17.2728 L12.0576 18.9383 L12.706 20.6037 L13.3544 22.2692 L14.0028 23.9347 L12.2356 23.6648 L10.4684 23.3949 L8.70119 23.1251 L6.93397 22.8552 L5.16676 22.5853 Z " />
<path stroke="rgb(200,255,200)" stroke-opacity="1" fill="rgb(200,255,200)" fill-opacity="1" id="tri_4_2_" d="M9.86595 15.6221 L8.77259 17.0932 L7.67924 18.5644 L6.58589 20.0356 L5.49254 21.5067 L4.39919 22.9779 L3.6726 21.2972 L2.94601 19.6165 L2.21942 17.9358 L1.49282 16.2551 L0.76623 14.5744 L2.58617 14.784 L4.40612 14.9935 L6.22606 15.203 L8.046 15.4125 L9.86595 15.6221 Z " />
<path stroke="rgb(200,255,200)" stroke-opacity="1" fill="rgb(200,255,200)" fill-opacity="1" id="tri_6_3_" d="M15.1897 22.3369 L16.3349 21.0293 L17.4801 19.7218 L18.6253 18.4143 L19.7705 17.1067 L20.9157 15.7992 L21.475 17.4427 L22.0343 19.0861 L22.5937 20.7296 L23.153 22.3731 L23.7123 24.0166 L22.0078 23.6806 L20.3033 23.3447 L18.5988 23.0088 L16.8942 22.6728 L15.1897 22.3369 Z " />
<path stroke="rgb(200,255,200)" stroke-opacity="1" fill="rgb(200,255,200)" fill-opacity="1" id="tri_5_2_" d="M19.7906 15.8265 L18.6712 17.2222 L17.5519 18.6179 L16.4325 20.0136 L15.3131 21.4093 L14.1938 22.805 L13.5454 21.1395 L12.8969 19.474 L12.2485 17.8085 L11.6001 16.143 L10.9517 14.4775 L12.7194 14.7473 L14.4872 15.0171 L16.255 15.2869 L18.0228 15.5567 L19.7906 15.8265 Z " />
<path stroke="rgb(200,255,200)" stroke-opacity="1" fill="rgb(200,255,200)" fill-opacity="1" id="tri_7_3_" d="M25.2363 22.0559 L26.4063 20.8498 L27.5762 19.6438 L28.7462 18.4378 L29.9161 17.2317 L31.0861 16.0257 L31.5446 17.6398 L32.0031 19.254 L32.4616 20.8681 L32.9201 22.4823 L33.3786 24.0964 L31.7501 23.6883 L30.1217 23.2802 L28.4932 22.8721 L26.8647 22.464 L25.2363 22.0559 Z " />
<path stroke="rgb(200,255,200)" stroke-opacity="1" fill="rgb(200,255,200)" fill-opacity="1" id="tri_6_2_" d="M29.6996 16.058 L28.5543 17.3657 L27.4091 18.6734 L26.2639 19.9811 L25.1187 21.2888 L23.9734 22.5965 L23.4141 20.9531 L22.8548 19.3096 L22.2955 17.6661 L21.7361 16.0226 L21.1768 14.3791 L22.8814 14.7149 L24.5859 15.0507 L26.2905 15.3864 L27.995 15.7222 L29.6996 16.058 Z " />
<path stroke="rgb(200,255,200)" stroke-opacity="1" fill="rgb(200,255,200)" fill-opacity="1" id="tri_8_2_" d="M35.3053 21.7503 L36.4962 20.6585 L37.6871 19.5666 L38.8779 18.4748 L40.0688 17.3829 L41.2597 16.2911 L41.6096 17.867 L41.9595 19.443 L42.3094 21.0189 L42.6593 22.5948 L43.0092 24.1708 L41.4684 23.6867 L39.9276 23.2026 L38.3869 22.7185 L36.8461 22.2344 L35.3053 21.7503 Z " />
<path stroke="rgb(200,255,200)" stroke-opacity="1" fill="rgb(200,255,200)" fill-opacity="1" id="tri_7_2_" d="M39.5827 16.3209 L38.4131 17.5268 L37.2435 18.7328 L36.0739 19.9387 L34.9043 21.1447 L33.7347 22.3506 L33.2762 20.7365 L32.8178 19.1223 L32.3593 17.5082 L31.9008 15.894 L31.4423 14.2799 L33.0704 14.6881 L34.6985 15.0963 L36.3266 15.5045 L37.9546 15.9127 L39.5827 16.3209 Z " />
<path stroke="rgb(200,255,200)" stroke-opacity="1" fill="rgb(200,255,200)" fill-opacity="1" id="tri_0_2_" d="M-49.7581 32.0273 L-48.7419 30.366 L-47.7257 28.7048 L-46.7096 27.0435 L-45.6934 25.3823 L-44.6772 23.721 L-43.7472 25.4302 L-42.8172 27.1394 L-41.8873 28.8485 L-40.9573 30.5577 L-40.0273 32.2669 L-41.9734 32.219 L-43.9196 32.171 L-45.8657 32.1231 L-47.8119 32.0752 L-49.7581 32.0273 Z " />
<path stroke="rgb(200,255,200)" stroke-opacity="1" fill="rgb(200,255,200)" fill-opacity="1" id="tri_1_1_" d="M-39.7807 31.9217 L-38.7498 30.2931 L-37.7189 28.6644 L-36.688 27.0357 L-35.6571 25.407 L-34.6262 23.7783 L-33.7323 25.4838 L-32.8383 27.1892 L-31.9444 28.8947 L-31.0505 30.6001 L-30.1565 32.3056 L-32.0814 32.2288 L-34.0062 32.152 L-35.9311 32.0753 L-37.8559 31.9985 L-39.7807 31.9217 Z " />
<path stroke="rgb(200,255,200)" stroke-opacity="1" fill="rgb(200,255,200)" fill-opacity="1" id="tri_0_1_" d="M-34.8975 23.7423 L-35.9137 25.4039 L-36.9298 27.0656 L-37.946 28.7272 L-38.9622 30.3888 L-39.9784 32.0505 L-40.9084 30.3413 L-41.8384 28.6321 L-42.7684 26.923 L-43.6984 25.2138 L-44.6284 23.5046 L-42.6822 23.5522 L-40.736 23.5997 L-38.7898 23.6472 L-36.8437 23.6947 L-34.8975 23.7423 Z " />
<path stroke="rgb(200,255,200)" stroke-opacity="1" fill="rgb(200,255,200)" fill-opacity="1" id="tri_2_1_" d="M-29.7998 31.7895 L-28.7514 30.2029 L-27.703 28.6163 L-26.6546 27.0298 L-25.6062 25.4432 L-24.5578 23.8566 L-23.7086 25.5572 L-22.8594 27.2579 L-22.0101 28.9586 L-21.1609 30.6592 L-20.3117 32.3599 L-22.2093 32.2458 L-24.1069 32.1317 L-26.0045 32.0176 L-27.9021 31.9036 L-29.7998 31.7895 Z " />
<path stroke="rgb(200,255,200)" stroke-opacity="1" fill="rgb(200,255,200)" fill-opacity="1" id="tri_1" d="M-24.9431 23.831 L-25.9736 25.4593 L-27.0042 27.0876 L-28.0347 28.716 L-29.0652 30.3443 L-30.0957 31.9726 L-30.9896 30.2671 L-31.8835 28.5617 L-32.7775 26.8562 L-33.6714 25.1508 L-34.5653 23.4453 L-32.6409 23.5225 L-30.7164 23.5996 L-28.792 23.6767 L-26.8676 23.7539 L-24.9431 23.831 Z " />
<path stroke="rgb(200,255,200)" stroke-opacity="1" fill="rgb(200,255,200)" fill-opacity="1" id="tri_3_1_" d="M-19.8127 31.6353 L-18.7433 30.0996 L-17.6739 28.564 L-16.6045 27.0283 L-15.5351 25.4926 L-14.4656 23.957 L-13.6719 25.6497 L-12.8782 27.3424 L-12.0844 29.0351 L-11.2907 30.7278 L-10.4969 32.4205 L-12.3601 32.2634 L-14.2232 32.1064 L-16.0864 31.9494 L-17.9496 31.7923 L-19.8127 31.6353 Z " />
<path stroke="rgb(200,255,200)" stroke-opacity="1" fill="rgb(200,255,200)" fill-opacity="1" id="tri_2" d="M-14.9903 23.9448 L-16.0389 25.5319 L-17.0875 27.1191 L-18.1361 28.7062 L-19.1847 30.2933 L-20.2333 31.8805 L-21.0826 30.1798 L-21.9318 28.4792 L-22.781 26.7785 L-23.6303 25.0779 L-24.4795 23.3772 L-22.5816 23.4907 L-20.6838 23.6042 L-18.786 23.7178 L-16.8881 23.8313 L-14.9903 23.9448 Z " />
<path stroke="rgb(200,255,200)" stroke-opacity="1" fill="rgb(200,255,200)" fill-opacity="1" id="tri_4_1_" d="M-9.81796 31.4443 L-8.72459 29.973 L-7.63122 28.5016 L-6.53785 27.0303 L-5.44447 25.5589 L-4.3511 24.0875 L-3.62433 25.7683 L-2.89755 27.449 L-2.17078 29.1297 L-1.444 30.8104 L-0.717227 32.4911 L-2.53737 32.2818 L-4.35752 32.0724 L-6.17767 31.863 L-7.99782 31.6537 L-9.81796 31.4443 Z " />
<path stroke="rgb(200,255,200)" stroke-opacity="1" fill="rgb(200,255,200)" fill-opacity="1" id="tri_3" d="M-5.04584 24.0871 L-6.1154 25.6222 L-7.18495 27.1573 L-8.25451 28.6924 L-9.32407 30.2275 L-10.3936 31.7626 L-11.1874 30.0699 L-11.9811 28.3772 L-12.7749 26.6845 L-13.5686 24.9918 L-14.3624 23.2991 L-12.4991 23.4567 L-10.6358 23.6143 L-8.77245 23.7719 L-6.90914 23.9295 L-5.04584 24.0871 Z " />
<path stroke="rgb(200,255,200)" stroke-opacity="1" fill="rgb(200,255,200)" fill-opacity="1" id="tri_5_1_" d="M0.190045 31.2223 L1.30927 29.8262 L2.4285 28.4301 L3.54773 27.0341 L4.66696 25.638 L5.78619 24.2419 L6.43456 25.9078 L7.08293 27.5736 L7.73131 29.2394 L8.37968 30.9053 L9.02805 32.5711 L7.26045 32.3014 L5.49285 32.0316 L3.72525 31.7618 L1.95765 31.4921 L0.190045 31.2223 Z " />
<path stroke="rgb(200,255,200)" stroke-opacity="1" fill="rgb(200,255,200)" fill-opacity="1" id="tri_4" d="M4.89133 24.2567 L3.79755 25.7284 L2.70377 27.2001 L1.60999 28.6717 L0.516208 30.1434 L-0.577571 31.6151 L-1.30435 29.9344 L-2.03112 28.2537 L-2.7579 26.5729 L-3.48467 24.8922 L-4.21145 23.2115 L-2.39089 23.4205 L-0.570336 23.6296 L1.25022 23.8386 L3.07077 24.0477 L4.89133 24.2567 Z " />
<path stroke="rgb(200,255,200)" stroke-opacity="1" fill="rgb(200,255,200)" fill-opacity="1" id="tri_6_1_" d="M10.2149 30.9733 L11.3596 29.6655 L12.5043 28.3577 L13.649 27.0498 L14.7938 25.742 L15.9385 24.4342 L16.4984 26.078 L17.0584 27.7218 L17.6184 29.3656 L18.1784 31.0094 L18.7383 32.6531 L17.0336 32.3172 L15.329 31.9812 L13.6243 31.6452 L11.9196 31.3093 L10.2149 30.9733 Z " />
<path stroke="rgb(200,255,200)" stroke-opacity="1" fill="rgb(200,255,200)" fill-opacity="1" id="tri_5" d="M14.8131 24.4616 L13.6942 25.8575 L12.5754 27.2535 L11.4565 28.6494 L10.3377 30.0454 L9.21885 31.4414 L8.57048 29.7755 L7.92211 28.1097 L7.27374 26.4438 L6.62537 24.778 L5.97699 23.1121 L7.74421 23.382 L9.51143 23.6519 L11.2786 23.9218 L13.0459 24.1917 L14.8131 24.4616 Z " />
<path stroke="rgb(200,255,200)" stroke-opacity="1" fill="rgb(200,255,200)" fill-opacity="1" id="tri_7_1_" d="M20.2624 30.6926 L21.4318 29.4864 L22.6011 28.2802 L23.7704 27.074 L24.9397 25.8678 L26.109 24.6616 L26.5679 26.2762 L27.0268 27.8908 L27.4857 29.5054 L27.9446 31.12 L28.4035 32.7346 L26.7753 32.3262 L25.1471 31.9178 L23.5189 31.5094 L21.8907 31.101 L20.2624 30.6926 Z " />
<path stroke="rgb(200,255,200)" stroke-opacity="1" fill="rgb(200,255,200)" fill-opacity="1" id="tri_6" d="M24.722 24.694 L23.5775 26.0019 L22.4329 27.3097 L21.2884 28.6176 L20.1438 29.9254 L18.9993 31.2333 L18.4393 29.5895 L17.8793 27.9457 L17.3194 26.3019 L16.7594 24.6581 L16.1994 23.0143 L17.9039 23.3503 L19.6085 23.6862 L21.313 24.0222 L23.0175 24.3581 L24.722 24.694 Z " />
<path stroke="rgb(200,255,200)" stroke-opacity="1" fill="rgb(200,255,200)" fill-opacity="1" id="tri_8_1_" d="M30.3302 30.3884 L31.521 29.296 L32.7119 28.2037 L33.9028 27.1113 L35.0937 26.0189 L36.2845 24.9266 L36.6345 26.5027 L36.9845 28.0789 L37.3345 29.655 L37.6845 31.2311 L38.0345 32.8073 L36.4937 32.3235 L34.9528 31.8397 L33.4119 31.3559 L31.871 30.8722 L30.3302 30.3884 Z " />
<path stroke="rgb(200,255,200)" stroke-opacity="1" fill="rgb(200,255,200)" fill-opacity="1" id="tri_7" d="M34.6072 24.9565 L33.4377 26.163 L32.2681 27.3695 L31.0986 28.5759 L29.929 29.7824 L28.7595 30.9889 L28.3006 29.3743 L27.8417 27.7597 L27.3828 26.1451 L26.9239 24.5305 L26.465 22.9159 L28.0934 23.324 L29.7219 23.7321 L31.3503 24.1403 L32.9788 24.5484 L34.6072 24.9565 Z " />
<path stroke="rgb(200,255,200)" stroke-opacity="1" fill="rgb(200,255,200)" fill-opacity="1" id="tri_9" d="M40.4332 30.0594 L41.6395 29.0948 L42.8459 28.1302 L44.0523 27.1656 L45.2586 26.201 L46.465 25.2364 L46.6968 26.7618 L46.9286 28.2872 L47.1604 29.8126 L47.3922 31.338 L47.624 32.8634 L46.1858 32.3026 L44.7477 31.7418 L43.3095 31.181 L41.8713 30.6202 L40.4332 30.0594 Z " />
<path stroke="rgb(200,255,200)" stroke-opacity="1" fill="rgb(200,255,200)" fill-opacity="1" id="tri_8" d="M44.4698 25.2454 L43.2791 26.3374 L42.0883 27.4295 L40.8975 28.5215 L39.7067 29.6136 L38.516 30.7056 L38.166 29.1295 L37.816 27.5534 L37.466 25.9772 L37.116 24.4011 L36.766 22.825 L38.3067 23.3091 L39.8475 23.7931 L41.3883 24.2772 L42.9291 24.7613 L44.4698 25.2454 Z " />
</g>
</g>
</svg>
