<!DOCTYPE svg>
<svg xmlns="http://www.w3.org/2000/svg" xmlns:xlink="http://www.w3.org/1999/xlink" width="600" height="600">
<g transform="translate(300.000000,300.000000)">
<g transform="scale(3.000000,3.000000)">
<path stroke="rgb(0,0,0)" stroke-opacity="1" fill="rgb(255,255,255)" fill-opacity="1" id="Layer_1" d="M107.411 107.089 L105.406 107.092 L103.402 107.095 L101.397 107.098 L99.3922 107.101 L97.3875 107.104 L95.3828 107.107 L93.3782 107.11 L91.3735 107.113 L89.3688 107.116 L87.3641 107.119 L85.3595 107.122 L83.3548 107.125 L81.3501 107.128 L79.3455 107.131 L77.3408 107.134 L75.3361 107.137 L73.3314 107.14 L71.3268 107.143 L69.3221 107.146 L67.3174 107.149 L65.3127 107.152 L63.3081 107.155 L61.3034 107.158 L59.2987 107.161 L57.2941 107.164 L55.2894 107.167 L53.2847 107.17 L51.28 107.173 L49.2754 107.176 L47.2707 107.179 L45.266 107.182 L43.2613 107.185 L41.2567 107.188 L39.252 107.191 L37.2473 107.194 L35.2426 107.197 L33.238 107.2 L31.2333 107.203 L29.2286 107.206 L27.224 107.209 L25.2193 107.212 L23.2146 107.215 L21.2099 107.218 L19.2053 107.221 L17.2006 107.224 L15.1959 107.227 L13.1912 107.23 L11.1866 107.233 L9.1819 107.236 L7.17723 107.239 L5.17256 107.242 L3.16788 107.245 L1.16321 107.248 L-0.841463 107.252 L-2.84614 107.255 L-4.85081 107.258 L-6.85548 107.261 L-8.86015 107.264 L-10.8648 107.267 L-12.8695 107.27 L-14.8742 107.273 L-16.8788 107.276 L-18.8835 107.279 L-20.8882 107.282 L-22.8929 107.285 L-24.8975 107.288 L-26.9022 107.291 L-28.9069 107.294 L-30.9116 107.297 L-32.9162 107.3 L-34.9209 107.303 L-36.9256 107.306 L-38.9302 107.309 L-40.9349 107.312 L-42.9396 107.315 L-44.9443 107.318 L-46.9489 107.321 L-48.9536 107.324 L-50.9583 107.327 L-52.963 107.33 L-54.9676 107.333 L-56.9723 107.336 L-58.977 107.339 L-60.9816 107.342 L-62.9863 107.345 L-64.991 107.348 L-66.9957 107.351 L-69.0003 107.354 L-71.005 107.357 L-73.0097 107.36 L-75.0144 107.363 L-77.019 107.366 L-79.0237 107.369 L-81.0284 107.372 L-83.0331 107.375 L-85.0377 107.378 L-87.0424 107.381 L-89.0471 107.384 L-91.0517 107.387 L-93.0564 107.39 L-95.0611 107.393 L-97.0658 107.396 L-99.0704 107.399 L-101.075 107.402 L-103.08 107.405 L-105.084 107.408 L-107.089 107.411 L-107.092 105.406 L-107.095 103.402 L-107.098 101.397 L-107.101 99.3922 L-107.104 97.3875 L-107.107 95.3828 L-107.11 93.3782 L-107.113 91.3735 L-107.116 89.3688 L-107.119 87.3641 L-107.122 85.3595 L-107.125 83.3548 L-107.128 81.3501 L-107.131 79.3455 L-107.134 77.3408 L-107.137 75.3361 L-107.14 73.3314 L-107.143 71.3268 L-107.146 69.3221 L-107.149 67.3174 L-107.152 65.3127 L-107.155 63.3081 L-107.158 61.3034 L-107.161 59.2987 L-107.164 57.2941 L-107.167 55.2894 L-107.17 53.2847 L-107.173 51.28 L-107.176 49.2754 L-107.179 47.2707 L-107.182 45.266 L-107.185 43.2613 L-107.188 41.2567 L-107.191 39.252 L-107.194 37.2473 L-107.197 35.2426 L-107.2 33.238 L-107.203 31.2333 L-107.206 29.2286 L-107.209 27.224 L-107.212 25.2193 L-107.215 23.2146 L-107.218 21.2099 L-107.221 19.2053 L-107.224 17.2006 L-107.227 15.1959 L-107.23 13.1912 L-107.233 11.1866 L-107.236 9.1819 L-107.239 7.17722 L-107.242 5.17255 L-107.245 3.16788 L-107.248 1.1632 L-107.251 -0.841469 L-107.255 -2.84614 L-107.258 -4.85081 L-107.261 -6.85549 L-107.264 -8.86016 L-107.267 -10.8648 L-107.27 -12.8695 L-107.273 -14.8742 L-107.276 -16.8789 L-107.279 -18.8835 L-107.282 -20.8882 L-107.285 -22.8929 L-107.288 -24.8975 L-107.291 -26.9022 L-107.294 -28.9069 L-107.297 -30.9116 L-107.3 -32.9162 L-107.303 -34.9209 L-107.306 -36.9256 L-107.309 -38.9303 L-107.312 -40.9349 L-107.315 -42.9396 L-107.318 -44.9443 L-107.321 -46.9489 L-107.324 -48.9536 L-107.327 -50.9583 L-107.33 -52.963 L-107.333 -54.9676 L-107.336 -56.9723 L-107.339 -58.977 L-107.342 -60.9817 L-107.345 -62.9863 L-107.348 -64.991 L-107.351 -66.9957 L-107.354 -69.0003 L-107.357 -71.005 L-107.36 -73.0097 L-107.363 -75.0144 L-107.366 -77.019 L-107.369 -79.0237 L-107.372 -81.0284 L-107.375 -83.0331 L-107.378 -85.0377 L-107.381 -87.0424 L-107.384 -89.0471 L-107.387 -91.0518 L-107.39 -93.0564 L-107.393 -95.0611 L-107.396 -97.0658 L-107.399 -99.0704 L-107.402 -101.075 L-107.405 -103.08 L-107.408 -105.084 L-107.411 -107.089 L-105.406 -107.092 L-103.402 -107.095 L-101.397 -107.098 L-99.3922 -107.101 L-97.3875 -107.104 L-95.3828 -107.107 L-93.3782 -107.11 L-91.3735 -107.113 L-89.3688 -107.116 L-87.3641 -107.119 L-85.3595 -107.122 L-83.3548 -107.125 L-81.3501 -107.128 L-79.3455 -107.131 L-77.3408 -107.134 L-75.3361 -107.137 L-73.3314 -107.14 L-71.3268 -107.143 L-69.3221 -107.146 L-67.3174 -107.149 L-65.3127 -107.152 L-63.3081 -107.155 L-61.3034 -107.158 L-59.2987 -107.161 L-57.2941 -107.164 L-55.2894 -107.167 L-53.2847 -107.17 L-51.28 -107.173 L-49.2754 -107.176 L-47.2707 -107.179 L-45.266 -107.182 L-43.2613 -107.185 L-41.2567 -107.188 L-39.252 -107.191 L-37.2473 -107.194 L-35.2426 -107.197 L-33.238 -107.2 L-31.2333 -107.203 L-29.2286 -107.206 L-27.224 -107.209 L-25.2193 -107.212 L-23.2146 -107.215 L-21.2099 -107.218 L-19.2053 -107.221 L-17.2006 -107.224 L-15.1959 -107.227 L-13.1912 -107.23 L-11.1866 -107.233 L-9.1819 -107.236 L-7.17723 -107.239 L-5.17256 -107.242 L-3.16788 -107.245 L-1.16321 -107.248 L0.841463 -107.252 L2.84614 -107.255 L4.85081 -107.258 L6.85548 -107.261 L8.86015 -107.264 L10.8648 -107.267 L12.8695 -107.27 L14.8742 -107.273 L16.8788 -107.276 L18.8835 -107.279 L20.8882 -107.282 L22.8929 -107.285 L24.8975 -107.288 L26.9022 -107.291 L28.9069 -107.294 L30.9116 -107.297 L32.9162 -107.3 L34.9209 -107.303 L36.9256 -107.306 L38.9302 -107.309 L40.9349 -107.312 L42.9396 -107.315 L44.9443 -107.318 L46.9489 -107.321 L48.9536 -107.324 L50.9583 -107.327 L52.963 -107.33 L54.9676 -107.333 L56.9723 -107.336 L58.977 -107.339 L60.9816 -107.342 L62.9863 -107.345 L64.991 -107.348 L66.9957 -107.351 L69.0003 -107.354 L71.005 -107.357 L73.0097 -107.36 L75.0144 -107.363 L77.019 -107.366 L79.0237 -107.369 L81.0284 -107.372 L83.0331 -107.375 L85.0377 -107.378 L87.0424 -107.381 L89.0471 -107.384 L91.0517 -107.387 L93.0564 -107.39 L95.0611 -107.393 L97.0658 -107.396 L99.0704 -107.399 L101.075 -107.402 L103.08 -107.405 L105.084 -107.408 L107.089 -107.411 L107.092 -105.406 L107.095 -103.402 L107.098 -101.397 L107.101 -99.3922 L107.104 -97.3875 L107.107 -95.3828 L107.11 -93.3782 L107.113 -91.3735 L107.116 -89.3688 L107.119 -87.3642 L107.122 -85.3595 L107.125 -83.3548 L107.128 -81.3501 L107.131 -79.3455 L107.134 -77.3408 L107.137 -75.3361 L107.14 -73.3314 L107.143 -71.3268 L107.146 -69.3221 L107.149 -67.3174 L107.152 -65.3128 L107.155 -63.3081 L107.158 -61.3034 L107.161 -59.2987 L107.164 -57.2941 L107.167 -55.2894 L107.17 -53.2847 L107.173 -51.28 L107.176 -49.2754 L107.179 -47.2707 L107.182 -45.266 L107.185 -43.2613 L107.188 -41.2567 L107.191 -39.252 L107.194 -37.2473 L107.197 -35.2427 L107.2 -33.238 L107.203 -31.2333 L107.206 -29.2286 L107.209 -27.224 L107.212 -25.2193 L107.215 -23.2146 L107.218 -21.2099 L107.221 -19.2053 L107.224 -17.2006 L107.227 -15.1959 L107.23 -13.1913 L107.233 -11.1866 L107.236 -9.18191 L107.239 -7.17724 L107.242 -5.17256 L107.245 -3.16789 L107.248 -1.16322 L107.251 0.841455 L107.255 2.84613 L107.258 4.8508 L107.261 6.85547 L107.264 8.86015 L107.267 10.8648 L107.27 12.8695 L107.273 14.8742 L107.276 16.8788 L107.279 18.8835 L107.282 20.8882 L107.285 22.8929 L107.288 24.8975 L107.291 26.9022 L107.294 28.9069 L107.297 30.9115 L107.3 32.9162 L107.303 34.9209 L107.306 36.9256 L107.309 38.9302 L107.312 40.9349 L107.315 42.9396 L107.318 44.9443 L107.321 46.9489 L107.324 48.9536 L107.327 50.9583 L107.33 52.963 L107.333 54.9676 L107.336 56.9723 L107.339 58.977 L107.342 60.9816 L107.345 62.9863 L107.348 64.991 L107.351 66.9957 L107.354 69.0003 L107.357 71.005 L107.36 73.0097 L107.363 75.0144 L107.366 77.019 L107.369 79.0237 L107.372 81.0284 L107.375 83.033 L107.378 85.0377 L107.381 87.0424 L107.384 89.0471 L107.387 91.0517 L107.39 93.0564 L107.393 95.0611 L107.396 97.0658 L107.399 99.0704 L107.402 101.075 L107.405 103.08 L107.408 105.084 L107.411 107.089 Z " />
<path stroke="rgb(169,255,187)" stroke-opacity="1" fill="rgb(169,255,187)" fill-opacity="1" id="scalebar" d="M-3.69904 -94.609 L-1.65554 -94.609 L0.387962 -94.609 L2.43146 -94.609 L4.47496 -94.609 L4.47496 -92.6686 L4.47496 -90.7281 L4.47496 -88.7876 L4.47496 -86.8472 L4.47496 -84.9067 L4.47496 -82.9663 L4.47496 -81.0258 L4.47496 -79.0853 L4.47496 -77.1449 L4.47496 -75.2044 L4.47496 -73.2639 L4.47496 -71.3235 L4.47496 -69.383 L2.43146 -69.383 L0.387962 -69.383 L-1.65554 -69.383 L-3.69904 -69.383 L-3.69904 -71.3235 L-3.69904 -73.2639 L-3.69904 -75.2044 L-3.69904 -77.1449 L-3.69904 -79.0853 L-3.69904 -81.0258 L-3.69904 -82.9663 L-3.69904 -84.9067 L-3.69904 -86.8472 L-3.69904 -88.7876 L-3.69904 -90.7281 L-3.69904 -92.6686 L-3.69904 -94.609 Z " />
<path stroke="rgb(200,255,200)" stroke-opacity="1" fill="rgb(200,255,200)" fill-opacity="1" id="scaleslider" d="M-6.69904 -77.4599 L-4.67418 -77.4599 L-2.64932 -77.4599 L-0.624466 -77.4599 L1.40039 -77.4599 L3.42525 -77.4599 L5.4501 -77.4599 L7.47496 -77.4599 L7.47496 -75.7332 L7.47496 -74.0066 L7.47496 -72.2799 L5.4501 -72.2799 L3.42525 -72.2799 L1.40039 -72.2799 L-0.624466 -72.2799 L-2.64932 -72.2799 L-4.67418 -72.2799 L-6.69904 -72.2799 L-6.69904 -74.0066 L-6.69904 -75.7332 L-6.69904 -77.4599 Z " />
<path stroke="rgb(255,134,106)" stroke-opacity="1" fill="rgb(255,134,106)" fill-opacity="1" id="tranbar" d="M-49.142 -86.146 L-47.0675 -86.146 L-44.993 -86.146 L-42.9185 -86.146 L-40.844 -86.146 L-40.844 -88.2208 L-40.844 -90.2955 L-40.844 -92.3703 L-40.844 -94.445 L-38.7685 -94.445 L-36.693 -94.445 L-34.6175 -94.445 L-32.542 -94.445 L-32.542 -92.3703 L-32.542 -90.2955 L-32.542 -88.2208 L-32.542 -86.146 L-30.4673 -86.146 L-28.3925 -86.146 L-26.3178 -86.146 L-24.243 -86.146 L-24.243 -84.0715 L-24.243 -81.997 L-24.243 -79.9225 L-24.243 -77.848 L-26.3178 -77.848 L-28.3925 -77.848 L-30.4673 -77.848 L-32.542 -77.848 L-32.542 -75.773 L-32.542 -73.698 L-32.542 -71.623 L-32.542 -69.548 L-34.6175 -69.548 L-36.693 -69.548 L-38.7685 -69.548 L-40.844 -69.548 L-40.844 -71.623 L-40.844 -73.698 L-40.844 -75.773 L-40.844 -77.848 L-42.9185 -77.848 L-44.993 -77.848 L-47.0675 -77.848 L-49.142 -77.848 L-49.142 -79.9225 L-49.142 -81.997 L-49.142 -84.0715 L-49.142 -86.146 Z " />
<path stroke="rgb(255,250,159)" stroke-opacity="1" fill="rgb(255,250,159)" fill-opacity="1" id="translider" d="M-39.248 -84.553 L-37.5447 -84.553 L-35.8414 -84.553 L-34.138 -84.553 L-34.138 -82.85 L-34.138 -81.147 L-34.138 -79.444 L-35.8414 -79.444 L-37.5447 -79.444 L-39.248 -79.444 L-39.248 -81.147 L-39.248 -82.85 L-39.248 -84.553 Z " />
<path stroke="rgb(254,204,128)" stroke-opacity="1" fill="rgb(254,204,128)" fill-opacity="1" id="rotate" d="M46.5664 -82.7376 L45.7916 -80.9769 L45.0168 -79.2161 L44.242 -77.4553 L43.4672 -75.6945 L42.6923 -73.9337 L40.7798 -73.7246 L38.8674 -73.5155 L36.9549 -73.3064 L35.0424 -73.0972 L33.1299 -72.8881 L31.9924 -74.4399 L30.8548 -75.9917 L29.7173 -77.5435 L28.5798 -79.0953 L27.4423 -80.647 L28.2173 -82.4079 L28.9922 -84.1688 L29.7672 -85.9297 L30.5422 -87.6906 L31.3172 -89.4515 L33.2295 -89.6605 L35.1418 -89.8695 L37.0542 -90.0786 L38.9665 -90.2876 L40.8788 -90.4966 L42.0163 -88.9448 L43.1539 -87.393 L44.2914 -85.8412 L45.4289 -84.2894 L46.5664 -82.7376 Z " />
<path stroke="rgb(200,255,200)" stroke-opacity="1" fill="rgb(200,255,200)" fill-opacity="1" id="tri_0" d="M-2.5054 -49.6366 L-1.5111 -49.6356 L-0.516806 -49.6345 L0.477492 -49.6335 L1.47179 -49.6324 L2.46609 -49.6314 L1.96884 -48.7717 L1.47159 -47.9121 L0.974336 -47.0524 L0.477085 -46.1928 L-0.0201644 -45.3331 L-0.517212 -46.1938 L-1.01426 -47.0545 L-1.51131 -47.9152 L-2.00835 -48.7759 L-2.5054 -49.6366 Z " />
<path stroke="rgb(200,255,200)" stroke-opacity="1" fill="rgb(200,255,200)" fill-opacity="1" id="tri_0_18_" d="M-7.51805 -41.0069 L-6.524 -41.0063 L-5.52995 -41.0057 L-4.5359 -41.0051 L-3.54186 -41.0045 L-2.54781 -41.0038 L-3.04504 -40.144 L-3.54228 -39.2841 L-4.03952 -38.4242 L-4.53676 -37.5644 L-5.03399 -36.7045 L-5.53081 -37.565 L-6.02762 -38.4255 L-6.52443 -39.2859 L-7.02124 -40.1464 L-7.51805 -41.0069 Z " />
<path stroke="rgb(200,255,200)" stroke-opacity="1" fill="rgb(200,255,200)" fill-opacity="1" id="tri_1_16_" d="M2.64057 -41.0368 L3.63602 -41.0314 L4.63147 -41.026 L5.62693 -41.0206 L6.62238 -41.0152 L7.61784 -41.0099 L7.11593 -40.1513 L6.61402 -39.2927 L6.11211 -38.4342 L5.6102 -37.5756 L5.10829 -36.717 L4.61475 -37.581 L4.1212 -38.4449 L3.62766 -39.3089 L3.13411 -40.1729 L2.64057 -41.0368 Z " />
<path stroke="rgb(200,255,200)" stroke-opacity="1" fill="rgb(200,255,200)" fill-opacity="1" id="tri_0_17_" d="M2.76371 -41.5409 L1.76943 -41.5418 L0.775141 -41.5426 L-0.219143 -41.5434 L-1.21343 -41.5442 L-2.20771 -41.5451 L-1.71047 -42.4049 L-1.21324 -43.2648 L-0.716 -44.1247 L-0.218763 -44.9845 L0.278474 -45.8444 L0.775522 -44.9837 L1.27257 -44.123 L1.76962 -43.2623 L2.26666 -42.4016 L2.76371 -41.5409 Z " />
<path stroke="rgb(200,255,200)" stroke-opacity="1" fill="rgb(200,255,200)" fill-opacity="1" id="tri_0_16_" d="M-12.5316 -32.377 L-11.5371 -32.3761 L-10.5426 -32.3753 L-9.54807 -32.3745 L-8.55357 -32.3737 L-7.55906 -32.3729 L-8.05669 -31.5129 L-8.55432 -30.6529 L-9.05196 -29.7929 L-9.54959 -28.933 L-10.0472 -28.073 L-10.5441 -28.9338 L-11.041 -29.7946 L-11.5378 -30.6554 L-12.0347 -31.5162 L-12.5316 -32.377 Z " />
<path stroke="rgb(200,255,200)" stroke-opacity="1" fill="rgb(200,255,200)" fill-opacity="1" id="tri_1_15_" d="M-2.41724 -32.4119 L-1.42163 -32.4068 L-0.426012 -32.4017 L0.569604 -32.3967 L1.56522 -32.3916 L2.56084 -32.3865 L2.05872 -31.5277 L1.5566 -30.6689 L1.05448 -29.8101 L0.552358 -28.9513 L0.0502384 -28.0925 L-0.443258 -28.9564 L-0.936754 -29.8203 L-1.43025 -30.6841 L-1.92375 -31.548 L-2.41724 -32.4119 Z " />
<path stroke="rgb(200,255,200)" stroke-opacity="1" fill="rgb(200,255,200)" fill-opacity="1" id="tri_0_15_" d="M-2.24876 -32.9118 L-3.2432 -32.9123 L-4.23765 -32.9128 L-5.23209 -32.9133 L-6.22653 -32.9138 L-7.22098 -32.9143 L-6.72335 -33.7743 L-6.22571 -34.6342 L-5.72808 -35.4942 L-5.23045 -36.3542 L-4.73281 -37.2142 L-4.236 -36.3537 L-3.73919 -35.4932 L-3.24238 -34.6327 L-2.74557 -33.7722 L-2.24876 -32.9118 Z " />
<path stroke="rgb(200,255,200)" stroke-opacity="1" fill="rgb(200,255,200)" fill-opacity="1" id="tri_2_14_" d="M7.82528 -32.3751 L8.82329 -32.3629 L9.82131 -32.3507 L10.8193 -32.3385 L11.8173 -32.3263 L12.8153 -32.3141 L12.3058 -31.4569 L11.7962 -30.5997 L11.2866 -29.7425 L10.777 -28.8854 L10.2674 -28.0282 L9.779 -28.8976 L9.29057 -29.767 L8.80214 -30.6364 L8.31371 -31.5057 L7.82528 -32.3751 Z " />
<path stroke="rgb(200,255,200)" stroke-opacity="1" fill="rgb(200,255,200)" fill-opacity="1" id="tri_1_14_" d="M7.88134 -32.9044 L6.88567 -32.9095 L5.89001 -32.9147 L4.89434 -32.9198 L3.89868 -32.925 L2.90301 -32.9301 L3.40513 -33.7889 L3.90725 -34.6477 L4.40937 -35.5065 L4.91149 -36.3653 L5.41361 -37.2241 L5.90716 -36.3602 L6.4007 -35.4962 L6.89425 -34.6323 L7.38779 -33.7683 L7.88134 -32.9044 Z " />
<path stroke="rgb(200,255,200)" stroke-opacity="1" fill="rgb(200,255,200)" fill-opacity="1" id="tri_0_14_" d="M-17.5469 -23.7448 L-16.5523 -23.7441 L-15.5578 -23.7434 L-14.5632 -23.7427 L-13.5687 -23.742 L-12.5741 -23.7414 L-13.0718 -22.8816 L-13.5694 -22.0219 L-14.0671 -21.1621 L-14.5647 -20.3023 L-15.0624 -19.4426 L-15.5593 -20.303 L-16.0562 -21.1634 L-16.5531 -22.0239 L-17.05 -22.8843 L-17.5469 -23.7448 Z " />
<path stroke="rgb(200,255,200)" stroke-opacity="1" fill="rgb(200,255,200)" fill-opacity="1" id="tri_1_13_" d="M-7.47668 -23.7896 L-6.48099 -23.784 L-5.4853 -23.7784 L-4.48962 -23.7728 L-3.49393 -23.7672 L-2.49824 -23.7616 L-3.00015 -22.9031 L-3.50206 -22.0445 L-4.00396 -21.1859 L-4.50587 -20.3274 L-5.00778 -19.4688 L-5.50156 -20.333 L-5.99534 -21.1971 L-6.48912 -22.0613 L-6.9829 -22.9255 L-7.47668 -23.7896 Z " />
<path stroke="rgb(200,255,200)" stroke-opacity="1" fill="rgb(200,255,200)" fill-opacity="1" id="tri_0_13_" d="M-7.26297 -24.279 L-8.25749 -24.2801 L-9.252 -24.2811 L-10.2465 -24.2821 L-11.241 -24.2832 L-12.2356 -24.2842 L-11.7379 -25.144 L-11.2403 -26.0037 L-10.7426 -26.8635 L-10.245 -27.7232 L-9.74734 -28.583 L-9.25046 -27.7222 L-8.75359 -26.8614 L-8.25671 -26.0006 L-7.75984 -25.1398 L-7.26297 -24.279 Z " />
<path stroke="rgb(200,255,200)" stroke-opacity="1" fill="rgb(200,255,200)" fill-opacity="1" id="tri_2_13_" d="M2.69438 -23.7642 L3.69213 -23.7518 L4.68988 -23.7394 L5.68763 -23.7271 L6.68538 -23.7147 L7.68313 -23.7024 L7.17373 -22.8453 L6.66432 -21.9882 L6.15491 -21.1311 L5.6455 -20.2741 L5.1361 -19.417 L4.64775 -20.2864 L4.15941 -21.1559 L3.67107 -22.0253 L3.18272 -22.8947 L2.69438 -23.7642 Z " />
<path stroke="rgb(200,255,200)" stroke-opacity="1" fill="rgb(200,255,200)" fill-opacity="1" id="tri_1_12_" d="M2.82347 -24.28 L1.82807 -24.2853 L0.832663 -24.2906 L-0.162742 -24.2959 L-1.15815 -24.3012 L-2.15355 -24.3065 L-1.65164 -25.1651 L-1.14973 -26.0236 L-0.647826 -26.8822 L-0.145917 -27.7407 L0.355991 -28.5993 L0.849488 -27.7354 L1.34298 -26.8716 L1.83648 -26.0077 L2.32998 -25.1438 L2.82347 -24.28 Z " />
<path stroke="rgb(200,255,200)" stroke-opacity="1" fill="rgb(200,255,200)" fill-opacity="1" id="tri_3_12_" d="M12.9941 -23.5872 L13.9955 -23.5653 L14.9969 -23.5434 L15.9983 -23.5215 L16.9997 -23.4995 L18.0011 -23.4776 L17.4821 -22.6222 L16.9631 -21.7668 L16.4441 -20.9114 L15.9251 -20.056 L15.4061 -19.2005 L14.9237 -20.0779 L14.4413 -20.9552 L13.9589 -21.8325 L13.4765 -22.7098 L12.9941 -23.5872 Z " />
<path stroke="rgb(200,255,200)" stroke-opacity="1" fill="rgb(200,255,200)" fill-opacity="1" id="tri_2_12_" d="M13.0208 -24.1846 L12.0229 -24.1969 L11.0251 -24.2092 L10.0273 -24.2215 L9.02942 -24.2338 L8.03158 -24.2461 L8.54099 -25.1032 L9.0504 -25.9603 L9.55981 -26.8174 L10.0692 -27.6744 L10.5786 -28.5315 L11.0671 -27.6621 L11.5555 -26.7927 L12.0439 -25.9234 L12.5323 -25.054 L13.0208 -24.1846 Z " />
<path stroke="rgb(200,255,200)" stroke-opacity="1" fill="rgb(200,255,200)" fill-opacity="1" id="tri_0_12_" d="M-22.5584 -15.116 L-21.5644 -15.1151 L-20.5705 -15.1143 L-19.5765 -15.1134 L-18.5825 -15.1125 L-17.5885 -15.1116 L-18.0859 -14.2518 L-18.5833 -13.3919 L-19.0807 -12.5321 L-19.578 -11.6723 L-20.0754 -10.8124 L-20.572 -11.6731 L-21.0686 -12.5339 L-21.5652 -13.3946 L-22.0618 -14.2553 L-22.5584 -15.116 Z " />
<path stroke="rgb(200,255,200)" stroke-opacity="1" fill="rgb(200,255,200)" fill-opacity="1" id="tri_1_11_" d="M-12.5354 -15.165 L-11.5399 -15.1598 L-10.5445 -15.1546 L-9.54903 -15.1495 L-8.55359 -15.1443 L-7.55814 -15.1391 L-8.06009 -14.2804 L-8.56204 -13.4217 L-9.06398 -12.563 L-9.56593 -11.7043 L-10.0679 -10.8456 L-10.5614 -11.7095 L-11.0549 -12.5734 L-11.5484 -13.4372 L-12.0419 -14.3011 L-12.5354 -15.165 Z " />
<path stroke="rgb(200,255,200)" stroke-opacity="1" fill="rgb(200,255,200)" fill-opacity="1" id="tri_0_11_" d="M-12.2777 -15.6493 L-13.272 -15.6499 L-14.2663 -15.6505 L-15.2605 -15.6511 L-16.2548 -15.6517 L-17.2491 -15.6523 L-16.7517 -16.5121 L-16.2543 -17.3719 L-15.757 -18.2318 L-15.2596 -19.0916 L-14.7622 -19.9514 L-14.2653 -19.091 L-13.7684 -18.2306 L-13.2715 -17.3701 L-12.7746 -16.5097 L-12.2777 -15.6493 Z " />
<path stroke="rgb(200,255,200)" stroke-opacity="1" fill="rgb(200,255,200)" fill-opacity="1" id="tri_2_11_" d="M-2.43979 -15.1539 L-1.44172 -15.1414 L-0.443651 -15.1289 L0.554421 -15.1163 L1.55249 -15.1038 L2.55056 -15.0913 L2.04115 -14.2344 L1.53173 -13.3776 L1.02231 -12.5207 L0.512892 -11.6639 L0.00347431 -10.807 L-0.485179 -11.6764 L-0.973833 -12.5458 L-1.46249 -13.4151 L-1.95114 -14.2845 L-2.43979 -15.1539 Z " />
<path stroke="rgb(200,255,200)" stroke-opacity="1" fill="rgb(200,255,200)" fill-opacity="1" id="tri_1_10_" d="M-2.23546 -15.6561 L-3.23119 -15.6616 L-4.22691 -15.667 L-5.22264 -15.6725 L-6.21837 -15.678 L-7.21409 -15.6834 L-6.71215 -16.5421 L-6.2102 -17.4008 L-5.70825 -18.2595 L-5.20631 -19.1182 L-4.70436 -19.9769 L-4.21058 -19.1128 L-3.7168 -18.2486 L-3.22302 -17.3844 L-2.72924 -16.5203 L-2.23546 -15.6561 Z " />
<path stroke="rgb(200,255,200)" stroke-opacity="1" fill="rgb(200,255,200)" fill-opacity="1" id="tri_3_11_" d="M7.75835 -14.9951 L8.75966 -14.9729 L9.76096 -14.9507 L10.7623 -14.9285 L11.7636 -14.9064 L12.7649 -14.8842 L12.2456 -14.0288 L11.7264 -13.1735 L11.2071 -12.3182 L10.6878 -11.4628 L10.1686 -10.6075 L9.68654 -11.485 L9.20449 -12.3625 L8.72245 -13.24 L8.2404 -14.1176 L7.75835 -14.9951 Z " />
<path stroke="rgb(200,255,200)" stroke-opacity="1" fill="rgb(200,255,200)" fill-opacity="1" id="tri_2_10_" d="M7.88846 -15.574 L6.8907 -15.5866 L5.89294 -15.5992 L4.89518 -15.6117 L3.89742 -15.6243 L2.89966 -15.6369 L3.40908 -16.4938 L3.91849 -17.3506 L4.42791 -18.2075 L4.93733 -19.0643 L5.44675 -19.9212 L5.93509 -19.0517 L6.42343 -18.1823 L6.91178 -17.3129 L7.40012 -16.4434 L7.88846 -15.574 Z " />
<path stroke="rgb(200,255,200)" stroke-opacity="1" fill="rgb(200,255,200)" fill-opacity="1" id="tri_4_10_" d="M18.1195 -14.5854 L19.1258 -14.5491 L20.1321 -14.5128 L21.1384 -14.4765 L22.1447 -14.4402 L23.151 -14.4039 L22.6167 -13.5517 L22.0824 -12.6994 L21.5482 -11.8472 L21.0139 -10.9949 L20.4796 -10.1427 L20.0076 -11.0312 L19.5356 -11.9198 L19.0636 -12.8083 L18.5915 -13.6969 L18.1195 -14.5854 Z " />
<path stroke="rgb(200,255,200)" stroke-opacity="1" fill="rgb(200,255,200)" fill-opacity="1" id="tri_3_10_" d="M18.1313 -15.3173 L17.1297 -15.3393 L16.128 -15.3612 L15.1264 -15.3832 L14.1247 -15.4052 L13.1231 -15.4272 L13.6423 -16.2825 L14.1616 -17.1379 L14.6808 -17.9932 L15.2001 -18.8486 L15.7193 -19.7039 L16.2017 -18.8266 L16.6841 -17.9493 L17.1665 -17.0719 L17.6489 -16.1946 L18.1313 -15.3173 Z " />
<path stroke="rgb(200,255,200)" stroke-opacity="1" fill="rgb(200,255,200)" fill-opacity="1" id="tri_0_10_" d="M-27.5728 -6.48557 L-26.5783 -6.48489 L-25.5837 -6.48422 L-24.5892 -6.48354 L-23.5946 -6.48286 L-22.6001 -6.48219 L-23.0979 -5.62211 L-23.5957 -4.76203 L-24.0935 -3.90195 L-24.5913 -3.04186 L-25.0891 -2.18178 L-25.5859 -3.04254 L-26.0826 -3.9033 L-26.5793 -4.76406 L-27.0761 -5.62481 L-27.5728 -6.48557 Z " />
<path stroke="rgb(200,255,200)" stroke-opacity="1" fill="rgb(200,255,200)" fill-opacity="1" id="tri_1_9_" d="M-17.5931 -6.54136 L-16.5975 -6.53615 L-15.6019 -6.53094 L-14.6063 -6.52574 L-13.6108 -6.52053 L-12.6152 -6.51532 L-13.1172 -5.65671 L-13.6192 -4.7981 L-14.1212 -3.93949 L-14.6232 -3.08087 L-15.1252 -2.22226 L-15.6187 -3.08608 L-16.1123 -3.9499 L-16.6059 -4.81372 L-17.0995 -5.67754 L-17.5931 -6.54136 Z " />
<path stroke="rgb(200,255,200)" stroke-opacity="1" fill="rgb(200,255,200)" fill-opacity="1" id="tri_0_9_" d="M-17.2905 -7.01932 L-18.2849 -7.01996 L-19.2793 -7.0206 L-20.2737 -7.02123 L-21.2681 -7.02187 L-22.2626 -7.02251 L-21.7647 -7.8826 L-21.2669 -8.74268 L-20.7691 -9.60276 L-20.2713 -10.4628 L-19.7735 -11.3229 L-19.2769 -10.4622 L-18.7803 -9.60148 L-18.2837 -8.74076 L-17.7871 -7.88004 L-17.2905 -7.01932 Z " />
<path stroke="rgb(200,255,200)" stroke-opacity="1" fill="rgb(200,255,200)" fill-opacity="1" id="tri_2_9_" d="M-7.57158 -6.54238 L-6.57374 -6.53007 L-5.5759 -6.51776 L-4.57807 -6.50545 L-3.58023 -6.49314 L-2.58239 -6.48083 L-3.09152 -5.62367 L-3.60066 -4.76652 L-4.10979 -3.90936 L-4.61893 -3.05221 L-5.12806 -2.19505 L-5.61677 -3.06452 L-6.10547 -3.93398 L-6.59417 -4.80345 L-7.08288 -5.67291 L-7.57158 -6.54238 Z " />
<path stroke="rgb(200,255,200)" stroke-opacity="1" fill="rgb(200,255,200)" fill-opacity="1" id="tri_1_8_" d="M-7.29477 -7.0333 L-8.29026 -7.03856 L-9.28575 -7.04381 L-10.2812 -7.04907 L-11.2767 -7.05432 L-12.2722 -7.05958 L-11.7702 -7.91819 L-11.2682 -8.7768 L-10.7662 -9.63542 L-10.2642 -10.494 L-9.76225 -11.3526 L-9.26875 -10.4888 L-8.77526 -9.62491 L-8.28176 -8.76104 L-7.78827 -7.89717 L-7.29477 -7.0333 Z " />
<path stroke="rgb(200,255,200)" stroke-opacity="1" fill="rgb(200,255,200)" fill-opacity="1" id="tri_3_9_" d="M2.52246 -6.40201 L3.5238 -6.38019 L4.52513 -6.35837 L5.52647 -6.33655 L6.5278 -6.31473 L7.52914 -6.29291 L7.00979 -5.43752 L6.49045 -4.58213 L5.9711 -3.72674 L5.45175 -2.87136 L4.93241 -2.01597 L4.45042 -2.89318 L3.96843 -3.77039 L3.48644 -4.64759 L3.00445 -5.5248 L2.52246 -6.40201 Z " />
<path stroke="rgb(200,255,200)" stroke-opacity="1" fill="rgb(200,255,200)" fill-opacity="1" id="tri_2_8_" d="M2.75618 -6.96409 L1.75839 -6.97631 L0.760601 -6.98854 L-0.237188 -7.00076 L-1.23498 -7.01298 L-2.23276 -7.0252 L-1.72363 -7.88236 L-1.2145 -8.73952 L-0.70536 -9.59667 L-0.196226 -10.4538 L0.312909 -11.311 L0.801562 -10.4416 L1.29022 -9.57223 L1.77887 -8.70285 L2.26752 -7.83347 L2.75618 -6.96409 Z " />
<path stroke="rgb(200,255,200)" stroke-opacity="1" fill="rgb(200,255,200)" fill-opacity="1" id="tri_4_9_" d="M12.7354 -6.02065 L13.7414 -5.9842 L14.7474 -5.94776 L15.7534 -5.91132 L16.7595 -5.87488 L17.7655 -5.83844 L17.2316 -4.98615 L16.6977 -4.13386 L16.1638 -3.28156 L15.6299 -2.42927 L15.096 -1.57698 L14.6238 -2.46571 L14.1517 -3.35445 L13.6796 -4.24318 L13.2075 -5.13191 L12.7354 -6.02065 Z " />
<path stroke="rgb(200,255,200)" stroke-opacity="1" fill="rgb(200,255,200)" fill-opacity="1" id="tri_3_8_" d="M12.8933 -6.724 L11.8919 -6.74613 L10.8905 -6.76826 L9.88911 -6.79039 L8.88772 -6.81252 L7.88633 -6.83466 L8.40568 -7.69004 L8.92502 -8.54543 L9.44437 -9.40082 L9.96371 -10.2562 L10.4831 -11.1116 L10.9651 -10.2341 L11.4472 -9.35656 L11.9292 -8.47904 L12.4112 -7.60152 L12.8933 -6.724 Z " />
<path stroke="rgb(200,255,200)" stroke-opacity="1" fill="rgb(200,255,200)" fill-opacity="1" id="tri_5_8_" d="M23.1046 -5.26259 L24.1165 -5.20781 L25.1284 -5.15302 L26.1403 -5.09823 L27.1522 -5.04344 L28.1641 -4.98865 L27.6111 -4.14063 L27.0581 -3.2926 L26.5051 -2.44458 L25.952 -1.59655 L25.399 -0.748532 L24.9401 -1.65134 L24.4813 -2.55416 L24.0224 -3.45697 L23.5635 -4.35978 L23.1046 -5.26259 Z " />
<path stroke="rgb(200,255,200)" stroke-opacity="1" fill="rgb(200,255,200)" fill-opacity="1" id="tri_4_8_" d="M23.1646 -6.19888 L22.1586 -6.23514 L21.1527 -6.2714 L20.1468 -6.30766 L19.1408 -6.34392 L18.1349 -6.38018 L18.6688 -7.23248 L19.2027 -8.08477 L19.7366 -8.93706 L20.2705 -9.78935 L20.8044 -10.6416 L21.2765 -9.75309 L21.7485 -8.86454 L22.2205 -7.97598 L22.6925 -7.08743 L23.1646 -6.19888 Z " />
<path stroke="rgb(200,255,200)" stroke-opacity="1" fill="rgb(200,255,200)" fill-opacity="1" id="tri_0_8_" d="M-32.5883 2.14492 L-31.5937 2.14582 L-30.5992 2.14672 L-29.6046 2.14762 L-28.6101 2.14852 L-27.6155 2.14942 L-28.113 3.00921 L-28.6105 3.86901 L-29.108 4.7288 L-29.6056 5.5886 L-30.1031 6.44839 L-30.6001 5.5877 L-31.0972 4.727 L-31.5942 3.86631 L-32.0912 3.00562 L-32.5883 2.14492 Z " />
<path stroke="rgb(200,255,200)" stroke-opacity="1" fill="rgb(200,255,200)" fill-opacity="1" id="tri_1_7_" d="M-22.6519 2.08089 L-21.6564 2.08642 L-20.661 2.09195 L-19.6656 2.09748 L-18.6702 2.103 L-17.6748 2.10853 L-18.1768 2.96684 L-18.6789 3.82514 L-19.1809 4.68344 L-19.683 5.54175 L-20.1851 6.40005 L-20.6784 5.53622 L-21.1718 4.67239 L-21.6651 3.80856 L-22.1585 2.94472 L-22.6519 2.08089 Z " />
<path stroke="rgb(200,255,200)" stroke-opacity="1" fill="rgb(200,255,200)" fill-opacity="1" id="tri_0_7_" d="M-22.3044 1.61199 L-23.2987 1.61103 L-24.2929 1.61007 L-25.2872 1.60911 L-26.2814 1.60814 L-27.2756 1.60718 L-26.7781 0.747386 L-26.2806 -0.112409 L-25.7831 -0.972204 L-25.2856 -1.832 L-24.7881 -2.69179 L-24.2914 -1.83104 L-23.7946 -0.97028 L-23.2979 -0.109523 L-22.8011 0.751234 L-22.3044 1.61199 Z " />
<path stroke="rgb(200,255,200)" stroke-opacity="1" fill="rgb(200,255,200)" fill-opacity="1" id="tri_2_7_" d="M-12.7049 2.06831 L-11.707 2.08088 L-10.709 2.09345 L-9.711 2.10602 L-8.71301 2.11859 L-7.71503 2.13117 L-8.22435 2.9882 L-8.73367 3.84523 L-9.24299 4.70226 L-9.75231 5.55928 L-10.2616 6.41632 L-10.7503 5.54671 L-11.239 4.67711 L-11.7276 3.80751 L-12.2163 2.93791 L-12.7049 2.06831 Z " />
<path stroke="rgb(200,255,200)" stroke-opacity="1" fill="rgb(200,255,200)" fill-opacity="1" id="tri_1_6_" d="M-12.353 1.59056 L-13.3487 1.58504 L-14.3443 1.57953 L-15.3399 1.57401 L-16.3356 1.5685 L-17.3312 1.56298 L-16.8292 0.704677 L-16.3271 -0.153626 L-15.8251 -1.01193 L-15.323 -1.87023 L-14.8209 -2.72854 L-14.3274 -1.86472 L-13.8338 -1.0009 L-13.3402 -0.137079 L-12.8466 0.72674 L-12.353 1.59056 Z " />
<path stroke="rgb(200,255,200)" stroke-opacity="1" fill="rgb(200,255,200)" fill-opacity="1" id="tri_3_7_" d="M-2.71383 2.19117 L-1.71226 2.21321 L-0.710691 2.23524 L0.290878 2.25728 L1.29245 2.27931 L2.29401 2.30135 L1.77448 3.15661 L1.25495 4.01187 L0.735422 4.86713 L0.215891 5.7224 L-0.30364 6.57766 L-0.785678 5.70036 L-1.26772 4.82306 L-1.74975 3.94577 L-2.23179 3.06847 L-2.71383 2.19117 Z " />
<path stroke="rgb(200,255,200)" stroke-opacity="1" fill="rgb(200,255,200)" fill-opacity="1" id="tri_2_6_" d="M-2.37508 1.64771 L-3.3731 1.63527 L-4.37112 1.62284 L-5.36914 1.6104 L-6.36717 1.59797 L-7.36519 1.58553 L-6.85587 0.728501 L-6.34655 -0.128528 L-5.83723 -0.985558 L-5.32791 -1.84259 L-4.81859 -2.69962 L-4.32989 -1.83015 L-3.84118 -0.960687 L-3.35248 -0.0912224 L-2.86378 0.778243 L-2.37508 1.64771 Z " />
<path stroke="rgb(200,255,200)" stroke-opacity="1" fill="rgb(200,255,200)" fill-opacity="1" id="tri_4_7_" d="M7.3503 2.54503 L8.35645 2.58129 L9.36261 2.61755 L10.3688 2.6538 L11.3749 2.69006 L12.3811 2.72632 L11.8472 3.57861 L11.3133 4.4309 L10.7794 5.28319 L10.2455 6.13548 L9.71155 6.98778 L9.2393 6.09923 L8.76705 5.21068 L8.2948 4.32213 L7.82255 3.43358 L7.3503 2.54503 Z " />
<path stroke="rgb(200,255,200)" stroke-opacity="1" fill="rgb(200,255,200)" fill-opacity="1" id="tri_3_6_" d="M7.65757 1.86813 L6.65605 1.84618 L5.65453 1.82424 L4.65301 1.80229 L3.65149 1.78034 L2.64997 1.75839 L3.1695 0.903131 L3.68903 0.0478693 L4.20856 -0.807392 L4.72809 -1.66265 L5.24762 -2.51792 L5.72961 -1.64071 L6.2116 -0.763497 L6.69359 0.113712 L7.17558 0.990921 L7.65757 1.86813 Z " />
<path stroke="rgb(200,255,200)" stroke-opacity="1" fill="rgb(200,255,200)" fill-opacity="1" id="tri_5_7_" d="M17.5284 3.26327 L18.5404 3.31824 L19.5524 3.37321 L20.5644 3.42818 L21.5764 3.48316 L22.5884 3.53813 L22.035 4.38624 L21.4815 5.23436 L20.9281 6.08248 L20.3747 6.93059 L19.8213 7.77871 L19.3627 6.87562 L18.9041 5.97253 L18.4456 5.06945 L17.987 4.16636 L17.5284 3.26327 Z " />
<path stroke="rgb(200,255,200)" stroke-opacity="1" fill="rgb(200,255,200)" fill-opacity="1" id="tri_4_6_" d="M17.7806 2.36604 L16.7746 2.3296 L15.7685 2.29316 L14.7625 2.25672 L13.7565 2.22028 L12.7505 2.18384 L13.2844 1.33154 L13.8183 0.479253 L14.3522 -0.373039 L14.8861 -1.22533 L15.42 -2.07762 L15.8921 -1.18889 L16.3642 -0.300156 L16.8364 0.588577 L17.3085 1.47731 L17.7806 2.36604 Z " />
<path stroke="rgb(200,255,200)" stroke-opacity="1" fill="rgb(200,255,200)" fill-opacity="1" id="tri_6_6_" d="M27.8481 4.50129 L28.8677 4.57962 L29.8873 4.65794 L30.9069 4.73627 L31.9265 4.81459 L32.9461 4.89292 L32.3691 5.73562 L31.7921 6.57833 L31.2152 7.42104 L30.6382 8.26375 L30.0612 9.10645 L29.6186 8.18542 L29.176 7.26439 L28.7333 6.34336 L28.2907 5.42233 L27.8481 4.50129 Z " />
<path stroke="rgb(200,255,200)" stroke-opacity="1" fill="rgb(200,255,200)" fill-opacity="1" id="tri_5_6_" d="M28.03 3.27192 L27.0177 3.21723 L26.0054 3.16253 L24.993 3.10784 L23.9807 3.05314 L22.9684 2.99844 L23.5218 2.15033 L24.0753 1.30221 L24.6287 0.454095 L25.1821 -0.394022 L25.7355 -1.24214 L26.1944 -0.339325 L26.6533 0.563488 L27.1122 1.4663 L27.5711 2.36911 L28.03 3.27192 Z " />
<path stroke="rgb(200,255,200)" stroke-opacity="1" fill="rgb(200,255,200)" fill-opacity="1" id="tri_0_6_" d="M-37.6016 10.7768 L-36.6071 10.7774 L-35.6127 10.7781 L-34.6183 10.7787 L-33.6239 10.7794 L-32.6295 10.78 L-33.1269 11.6402 L-33.6243 12.5004 L-34.1217 13.3606 L-34.6191 14.2208 L-35.1165 15.081 L-35.6135 14.2201 L-36.1105 13.3593 L-36.6075 12.4985 L-37.1045 11.6376 L-37.6016 10.7768 Z " />
<path stroke="rgb(200,255,200)" stroke-opacity="1" fill="rgb(200,255,200)" fill-opacity="1" id="tri_1_5_" d="M-27.7104 10.7056 L-26.7148 10.7107 L-25.7192 10.7158 L-24.7235 10.7208 L-23.7279 10.7259 L-22.7323 10.731 L-23.2346 11.5895 L-23.7369 12.448 L-24.2391 13.3066 L-24.7414 14.1651 L-25.2437 15.0237 L-25.737 14.16 L-26.2304 13.2964 L-26.7237 12.4328 L-27.217 11.5692 L-27.7104 10.7056 Z " />
<path stroke="rgb(200,255,200)" stroke-opacity="1" fill="rgb(200,255,200)" fill-opacity="1" id="tri_0_5_" d="M-27.3179 10.2417 L-28.3124 10.2412 L-29.3068 10.2407 L-30.3012 10.2402 L-31.2957 10.2397 L-32.2901 10.2392 L-31.7927 9.37902 L-31.2953 8.51883 L-30.7979 7.65864 L-30.3005 6.79845 L-29.8031 5.93826 L-29.3061 6.79896 L-28.8091 7.65965 L-28.312 8.52034 L-27.815 9.38104 L-27.3179 10.2417 Z " />
<path stroke="rgb(200,255,200)" stroke-opacity="1" fill="rgb(200,255,200)" fill-opacity="1" id="tri_2_5_" d="M-17.8385 10.6794 L-16.8406 10.6917 L-15.8426 10.7041 L-14.8446 10.7164 L-13.8466 10.7288 L-12.8487 10.7411 L-13.3576 11.5982 L-13.8666 12.4553 L-14.3756 13.3123 L-14.8845 14.1694 L-15.3935 15.0264 L-15.8825 14.157 L-16.3715 13.2876 L-16.8605 12.4182 L-17.3495 11.5488 L-17.8385 10.6794 Z " />
<path stroke="rgb(200,255,200)" stroke-opacity="1" fill="rgb(200,255,200)" fill-opacity="1" id="tri_1_4_" d="M-17.4131 10.2131 L-18.4088 10.2078 L-19.4044 10.2025 L-20.4 10.1972 L-21.3957 10.192 L-22.3913 10.1867 L-21.889 9.32812 L-21.3868 8.46958 L-20.8845 7.61104 L-20.3822 6.7525 L-19.8799 5.89397 L-19.3866 6.7578 L-18.8932 7.62163 L-18.3999 8.48546 L-17.9065 9.34929 L-17.4131 10.2131 Z " />
<path stroke="rgb(200,255,200)" stroke-opacity="1" fill="rgb(200,255,200)" fill-opacity="1" id="tri_3_5_" d="M-7.94856 10.7829 L-6.94739 10.805 L-5.94622 10.8272 L-4.94505 10.8493 L-3.94389 10.8715 L-2.94272 10.8936 L-3.4621 11.7491 L-3.98149 12.6046 L-4.50088 13.4602 L-5.02026 14.3157 L-5.53965 15.1712 L-6.02143 14.2936 L-6.50321 13.4159 L-6.985 12.5382 L-7.46678 11.6606 L-7.94856 10.7829 Z " />
<path stroke="rgb(200,255,200)" stroke-opacity="1" fill="rgb(200,255,200)" fill-opacity="1" id="tri_2_4_" d="M-7.5092 10.2585 L-8.50682 10.246 L-9.50445 10.2334 L-10.5021 10.2209 L-11.4997 10.2083 L-12.4973 10.1958 L-11.9884 9.33874 L-11.4794 8.48168 L-10.9704 7.62462 L-10.4615 6.76757 L-9.95252 5.91051 L-9.46385 6.78011 L-8.97519 7.64971 L-8.48653 8.51931 L-7.99786 9.38891 L-7.5092 10.2585 Z " />
<path stroke="rgb(200,255,200)" stroke-opacity="1" fill="rgb(200,255,200)" fill-opacity="1" id="tri_4_5_" d="M1.96716 11.1124 L2.97322 11.1485 L3.97928 11.1845 L4.98535 11.2206 L5.99141 11.2567 L6.99747 11.2928 L6.46343 12.145 L5.92939 12.9973 L5.39534 13.8495 L4.8613 14.7018 L4.32726 15.554 L3.85524 14.6657 L3.38322 13.7774 L2.9112 12.889 L2.43918 12.0007 L1.96716 11.1124 Z " />
<path stroke="rgb(200,255,200)" stroke-opacity="1" fill="rgb(200,255,200)" fill-opacity="1" id="tri_3_4_" d="M2.4217 10.462 L1.42028 10.4402 L0.418854 10.4184 L-0.58257 10.3967 L-1.58399 10.3749 L-2.58542 10.3531 L-2.06603 9.49759 L-1.54665 8.64206 L-1.02726 7.78654 L-0.507873 6.93101 L0.0115141 6.07548 L0.493552 6.95278 L0.975589 7.83008 L1.45763 8.70738 L1.93966 9.58467 L2.4217 10.462 Z " />
<path stroke="rgb(200,255,200)" stroke-opacity="1" fill="rgb(200,255,200)" fill-opacity="1" id="tri_5_5_" d="M11.9506 11.7898 L12.9628 11.8447 L13.9751 11.8995 L14.9874 11.9544 L15.9996 12.0092 L17.0119 12.064 L16.4586 12.9123 L15.9053 13.7606 L15.3519 14.6089 L14.7986 15.4572 L14.2453 16.3055 L13.7863 15.4024 L13.3274 14.4992 L12.8685 13.5961 L12.4095 12.693 L11.9506 11.7898 Z " />
<path stroke="rgb(200,255,200)" stroke-opacity="1" fill="rgb(200,255,200)" fill-opacity="1" id="tri_4_4_" d="M12.3965 10.9315 L11.3902 10.8952 L10.3839 10.8589 L9.37759 10.8226 L8.3713 10.7863 L7.365 10.75 L7.89905 9.89771 L8.43309 9.04546 L8.96713 8.19321 L9.50117 7.34096 L10.0352 6.48871 L10.5075 7.37726 L10.9797 8.26581 L11.452 9.15436 L11.9242 10.0429 L12.3965 10.9315 Z " />
<path stroke="rgb(200,255,200)" stroke-opacity="1" fill="rgb(200,255,200)" fill-opacity="1" id="tri_6_5_" d="M22.0292 12.9736 L23.0484 13.052 L24.0676 13.1304 L25.0868 13.2088 L26.106 13.2872 L27.1252 13.3656 L26.5484 14.2083 L25.9716 15.051 L25.3949 15.8938 L24.8181 16.7365 L24.2413 17.5792 L23.7989 16.6581 L23.3565 15.7369 L22.9141 14.8158 L22.4717 13.8947 L22.0292 12.9736 Z " />
<path stroke="rgb(200,255,200)" stroke-opacity="1" fill="rgb(200,255,200)" fill-opacity="1" id="tri_5_4_" d="M22.4524 11.7993 L21.4405 11.7445 L20.4286 11.6898 L19.4167 11.635 L18.4048 11.5802 L17.3929 11.5254 L17.9462 10.6771 L18.4995 9.82879 L19.0528 8.98049 L19.6062 8.1322 L20.1595 7.2839 L20.6181 8.18699 L21.0766 9.09008 L21.5352 9.99316 L21.9938 10.8963 L22.4524 11.7993 Z " />
<path stroke="rgb(200,255,200)" stroke-opacity="1" fill="rgb(200,255,200)" fill-opacity="1" id="tri_7_4_" d="M32.2246 14.8535 L33.2523 14.962 L34.28 15.0706 L35.3077 15.1791 L36.3354 15.2876 L37.363 15.3962 L36.7554 16.2307 L36.1478 17.0652 L35.5401 17.8997 L34.9325 18.7342 L34.3248 19.5687 L33.9048 18.6257 L33.4848 17.6826 L33.0647 16.7396 L32.6447 15.7965 L32.2246 14.8535 Z " />
<path stroke="rgb(200,255,200)" stroke-opacity="1" fill="rgb(200,255,200)" fill-opacity="1" id="tri_6_4_" d="M32.6224 13.2209 L31.603 13.1426 L30.5836 13.0643 L29.5642 12.986 L28.5449 12.9076 L27.5255 12.8293 L28.1023 11.9866 L28.679 11.1439 L29.2558 10.3012 L29.8326 9.45847 L30.4093 8.61576 L30.8519 9.53679 L31.2945 10.4578 L31.7371 11.3789 L32.1798 12.2999 L32.6224 13.2209 Z " />
<path stroke="rgb(200,255,200)" stroke-opacity="1" fill="rgb(200,255,200)" fill-opacity="1" id="tri_0_4_" d="M-42.6165 19.4076 L-41.622 19.4084 L-40.6275 19.4092 L-39.633 19.41 L-38.6385 19.4108 L-37.644 19.4116 L-38.1413 20.2715 L-38.6387 21.1313 L-39.1361 21.9911 L-39.6335 22.851 L-40.1308 23.7108 L-40.628 22.8501 L-41.1251 21.9895 L-41.6222 21.1289 L-42.1194 20.2682 L-42.6165 19.4076 Z " />
<path stroke="rgb(200,255,200)" stroke-opacity="1" fill="rgb(200,255,200)" fill-opacity="1" id="tri_1_3_" d="M-32.7693 19.3277 L-31.7737 19.3333 L-30.7782 19.3389 L-29.7826 19.3444 L-28.7871 19.35 L-27.7915 19.3555 L-28.2936 20.2138 L-28.7957 21.072 L-29.2978 21.9302 L-29.7999 22.7884 L-30.302 23.6466 L-30.7955 22.7828 L-31.2889 21.9191 L-31.7824 21.0553 L-32.2758 20.1915 L-32.7693 19.3277 Z " />
<path stroke="rgb(200,255,200)" stroke-opacity="1" fill="rgb(200,255,200)" fill-opacity="1" id="tri_0_3_" d="M-32.3315 18.8738 L-33.3259 18.8728 L-34.3203 18.8718 L-35.3147 18.8708 L-36.3091 18.8698 L-37.3035 18.8688 L-36.8061 18.009 L-36.3087 17.1492 L-35.8113 16.2894 L-35.314 15.4295 L-34.8166 14.5697 L-34.3196 15.4305 L-33.8226 16.2914 L-33.3256 17.1522 L-32.8286 18.013 L-32.3315 18.8738 Z " />
<path stroke="rgb(200,255,200)" stroke-opacity="1" fill="rgb(200,255,200)" fill-opacity="1" id="tri_2_3_" d="M-22.9702 19.2908 L-21.9724 19.3033 L-20.9746 19.3157 L-19.9768 19.3282 L-18.979 19.3406 L-17.9812 19.353 L-18.4903 20.2102 L-18.9995 21.0674 L-19.5086 21.9245 L-20.0177 22.7817 L-20.5269 23.6388 L-21.0155 22.7692 L-21.5042 21.8996 L-21.9929 21.03 L-22.4815 20.1604 L-22.9702 19.2908 Z " />
<path stroke="rgb(200,255,200)" stroke-opacity="1" fill="rgb(200,255,200)" fill-opacity="1" id="tri_1_2_" d="M-22.4715 18.8368 L-23.467 18.8314 L-24.4624 18.8261 L-25.4579 18.8207 L-26.4533 18.8153 L-27.4488 18.8099 L-26.9467 17.9517 L-26.4446 17.0934 L-25.9425 16.2352 L-25.4404 15.377 L-24.9382 14.5188 L-24.4449 15.3824 L-23.9516 16.246 L-23.4582 17.1096 L-22.9649 17.9732 L-22.4715 18.8368 Z " />
<path stroke="rgb(200,255,200)" stroke-opacity="1" fill="rgb(200,255,200)" fill-opacity="1" id="tri_3_3_" d="M-13.1862 19.3772 L-12.1845 19.3991 L-11.1828 19.4209 L-10.1811 19.4428 L-9.17945 19.4646 L-8.17775 19.4865 L-8.69759 20.342 L-9.21742 21.1976 L-9.73726 22.0531 L-10.2571 22.9086 L-10.7769 23.7642 L-11.2588 22.8868 L-11.7406 22.0094 L-12.2225 21.132 L-12.7044 20.2546 L-13.1862 19.3772 Z " />
<path stroke="rgb(200,255,200)" stroke-opacity="1" fill="rgb(200,255,200)" fill-opacity="1" id="tri_2_2_" d="M-12.6403 18.8689 L-13.6384 18.8566 L-14.6366 18.8444 L-15.6347 18.8321 L-16.6329 18.8199 L-17.631 18.8076 L-17.1219 17.9505 L-16.6128 17.0933 L-16.1036 16.2362 L-15.5945 15.379 L-15.0853 14.5219 L-14.5963 15.3913 L-14.1073 16.2607 L-13.6183 17.1301 L-13.1293 17.9995 L-12.6403 18.8689 Z " />
<path stroke="rgb(200,255,200)" stroke-opacity="1" fill="rgb(200,255,200)" fill-opacity="1" id="tri_4_3_" d="M-3.41762 19.6771 L-2.41137 19.7135 L-1.40512 19.75 L-0.398872 19.7864 L0.607377 19.8228 L1.61363 19.8593 L1.07981 20.7113 L0.545985 21.5633 L0.0121643 22.4153 L-0.521656 23.2673 L-1.05548 24.1194 L-1.52791 23.2309 L-2.00033 22.3424 L-2.47276 21.454 L-2.94519 20.5655 L-3.41762 19.6771 Z " />
<path stroke="rgb(200,255,200)" stroke-opacity="1" fill="rgb(200,255,200)" fill-opacity="1" id="tri_3_2_" d="M-2.81435 19.0558 L-3.81596 19.0337 L-4.81758 19.0116 L-5.8192 18.9894 L-6.82081 18.9673 L-7.82243 18.9452 L-7.30259 18.0896 L-6.78276 17.2341 L-6.26293 16.3786 L-5.74309 15.523 L-5.22326 14.6675 L-4.74148 15.5451 L-4.25969 16.4228 L-3.77791 17.3005 L-3.29613 18.1781 L-2.81435 19.0558 Z " />
<path stroke="rgb(200,255,200)" stroke-opacity="1" fill="rgb(200,255,200)" fill-opacity="1" id="tri_5_3_" d="M6.37464 20.3161 L7.38646 20.3709 L8.39827 20.4257 L9.41008 20.4806 L10.4219 20.5354 L11.4337 20.5902 L10.8806 21.4383 L10.3275 22.2864 L9.7744 23.1344 L9.2213 23.9825 L8.66819 24.8306 L8.20948 23.9277 L7.75077 23.0248 L7.29206 22.1219 L6.83336 21.219 L6.37464 20.3161 Z " />
<path stroke="rgb(200,255,200)" stroke-opacity="1" fill="rgb(200,255,200)" fill-opacity="1" id="tri_4_2_" d="M7.01191 19.497 L6.00607 19.4607 L5.00023 19.4244 L3.99439 19.388 L2.98855 19.3517 L1.98271 19.3154 L2.51653 18.4634 L3.05035 17.6114 L3.58417 16.7594 L4.11799 15.9074 L4.65181 15.0553 L5.12383 15.9437 L5.59585 16.832 L6.06787 17.7203 L6.53989 18.6086 L7.01191 19.497 Z " />
<path stroke="rgb(200,255,200)" stroke-opacity="1" fill="rgb(200,255,200)" fill-opacity="1" id="tri_6_3_" d="M16.2076 21.4439 L17.227 21.5226 L18.2463 21.6012 L19.2656 21.6799 L20.2849 21.7586 L21.3042 21.8373 L20.7273 22.6798 L20.1503 23.5223 L19.5733 24.3647 L18.9963 25.2072 L18.4193 26.0497 L17.977 25.1285 L17.5346 24.2074 L17.0923 23.2862 L16.65 22.365 L16.2076 21.4439 Z " />
<path stroke="rgb(200,255,200)" stroke-opacity="1" fill="rgb(200,255,200)" fill-opacity="1" id="tri_5_2_" d="M16.8761 20.3261 L15.8641 20.271 L14.8521 20.2159 L13.84 20.1609 L12.828 20.1058 L11.8159 20.0508 L12.369 19.2027 L12.9221 18.3546 L13.4752 17.5065 L14.0283 16.6585 L14.5814 15.8104 L15.0404 16.7135 L15.4993 17.6167 L15.9583 18.5198 L16.4172 19.4229 L16.8761 20.3261 Z " />
<path stroke="rgb(200,255,200)" stroke-opacity="1" fill="rgb(200,255,200)" fill-opacity="1" id="tri_7_3_" d="M26.0976 23.2474 L27.1253 23.3563 L28.153 23.4651 L29.1807 23.574 L30.2084 23.6829 L31.2361 23.7917 L30.6286 24.6261 L30.0211 25.4604 L29.4136 26.2947 L28.8061 27.129 L28.1986 27.9634 L27.7784 27.0202 L27.3582 26.077 L26.938 25.1338 L26.5178 24.1906 L26.0976 23.2474 Z " />
<path stroke="rgb(200,255,200)" stroke-opacity="1" fill="rgb(200,255,200)" fill-opacity="1" id="tri_6_2_" d="M26.8017 21.6932 L25.7823 21.6146 L24.7629 21.5359 L23.7435 21.4573 L22.7241 21.3787 L21.7047 21.3 L22.2816 20.4575 L22.8586 19.6151 L23.4356 18.7726 L24.0126 17.9301 L24.5896 17.0876 L25.032 18.0087 L25.4744 18.9299 L25.9169 19.851 L26.3593 20.7721 L26.8017 21.6932 Z " />
<path stroke="rgb(200,255,200)" stroke-opacity="1" fill="rgb(200,255,200)" fill-opacity="1" id="tri_8_2_" d="M36.0495 25.9285 L37.0863 26.0739 L38.1231 26.2193 L39.1599 26.3648 L40.1966 26.5102 L41.2334 26.6556 L40.5897 27.4801 L39.9459 28.3047 L39.3021 29.1292 L38.6583 29.9537 L38.0146 30.7782 L37.6215 29.8083 L37.2285 28.8383 L36.8355 27.8684 L36.4425 26.8984 L36.0495 25.9285 Z " />
<path stroke="rgb(200,255,200)" stroke-opacity="1" fill="rgb(200,255,200)" fill-opacity="1" id="tri_7_2_" d="M36.793 23.8023 L35.7654 23.6936 L34.7379 23.5849 L33.7104 23.4762 L32.6828 23.3675 L31.6553 23.2588 L32.2628 22.4244 L32.8703 21.5901 L33.4778 20.7558 L34.0853 19.9215 L34.6928 19.0871 L35.1128 20.0302 L35.5329 20.9732 L35.9529 21.9163 L36.3729 22.8593 L36.793 23.8023 Z " />
<path stroke="rgb(200,255,200)" stroke-opacity="1" fill="rgb(200,255,200)" fill-opacity="1" id="tri_0_2_" d="M-47.6293 28.0381 L-46.6351 28.0389 L-45.6409 28.0396 L-44.6466 28.0404 L-43.6524 28.0411 L-42.6582 28.0418 L-43.1555 28.9019 L-43.6527 29.7619 L-44.15 30.6219 L-44.6473 31.4819 L-45.1445 32.3419 L-45.6415 31.4811 L-46.1385 30.6204 L-46.6354 29.7596 L-47.1324 28.8989 L-47.6293 28.0381 Z " />
<path stroke="rgb(200,255,200)" stroke-opacity="1" fill="rgb(200,255,200)" fill-opacity="1" id="tri_1_1_" d="M-37.8277 27.9511 L-36.8322 27.9564 L-35.8366 27.9616 L-34.841 27.9668 L-33.8454 27.972 L-32.8498 27.9772 L-33.3517 28.8358 L-33.8536 29.6945 L-34.3554 30.5531 L-34.8573 31.4118 L-35.3591 32.2704 L-35.8529 31.4066 L-36.3466 30.5427 L-36.8403 29.6789 L-37.334 28.815 L-37.8277 27.9511 Z " />
<path stroke="rgb(200,255,200)" stroke-opacity="1" fill="rgb(200,255,200)" fill-opacity="1" id="tri_0_1_" d="M-37.346 27.5036 L-38.3404 27.503 L-39.3348 27.5023 L-40.3292 27.5017 L-41.3236 27.5011 L-42.318 27.5004 L-41.8207 26.6404 L-41.3235 25.7804 L-40.8262 24.9204 L-40.3289 24.0604 L-39.8317 23.2004 L-39.3345 24.061 L-38.8374 24.9217 L-38.3403 25.7823 L-37.8431 26.643 L-37.346 27.5036 Z " />
<path stroke="rgb(200,255,200)" stroke-opacity="1" fill="rgb(200,255,200)" fill-opacity="1" id="tri_2_1_" d="M-28.1002 27.9021 L-27.1025 27.9143 L-26.1049 27.9265 L-25.1072 27.9387 L-24.1095 27.9508 L-23.1119 27.963 L-23.6212 28.8205 L-24.1305 29.678 L-24.6398 30.5355 L-25.1491 31.3929 L-25.6584 32.2504 L-26.1467 31.3808 L-26.6351 30.5111 L-27.1234 29.6414 L-27.6118 28.7718 L-28.1002 27.9021 Z " />
<path stroke="rgb(200,255,200)" stroke-opacity="1" fill="rgb(200,255,200)" fill-opacity="1" id="tri_1" d="M-27.53 27.4589 L-28.5253 27.4538 L-29.5206 27.4487 L-30.5159 27.4435 L-31.5112 27.4384 L-32.5065 27.4333 L-32.0046 26.5746 L-31.5028 25.716 L-31.0009 24.8573 L-30.499 23.9987 L-29.9972 23.14 L-29.5037 24.0038 L-29.0103 24.8676 L-28.5168 25.7314 L-28.0234 26.5951 L-27.53 27.4589 Z " />
<path stroke="rgb(200,255,200)" stroke-opacity="1" fill="rgb(200,255,200)" fill-opacity="1" id="tri_3_1_" d="M-18.4213 27.9722 L-17.4198 27.9939 L-16.4183 28.0156 L-15.4168 28.0373 L-14.4153 28.059 L-13.4138 28.0808 L-13.9332 28.9362 L-14.4526 29.7916 L-14.9721 30.6471 L-15.4915 31.5025 L-16.0109 32.358 L-16.493 31.4808 L-16.9751 30.6036 L-17.4572 29.7265 L-17.9393 28.8493 L-18.4213 27.9722 Z " />
<path stroke="rgb(200,255,200)" stroke-opacity="1" fill="rgb(200,255,200)" fill-opacity="1" id="tri_2" d="M-17.773 27.4814 L-18.7709 27.4693 L-19.7689 27.4572 L-20.7668 27.4451 L-21.7648 27.4329 L-22.7628 27.4208 L-22.2535 26.5633 L-21.7442 25.7059 L-21.2349 24.8484 L-20.7256 23.9909 L-20.2163 23.1334 L-19.7276 24.003 L-19.2389 24.8726 L-18.7503 25.7422 L-18.2616 26.6118 L-17.773 27.4814 Z " />
<path stroke="rgb(200,255,200)" stroke-opacity="1" fill="rgb(200,255,200)" fill-opacity="1" id="tri_4_1_" d="M-8.80132 28.2431 L-7.79538 28.2794 L-6.78945 28.3156 L-5.78352 28.3519 L-4.77759 28.3881 L-3.77166 28.4244 L-4.30543 29.2765 L-4.83921 30.1286 L-5.37298 30.9807 L-5.90676 31.8328 L-6.44053 32.6849 L-6.91269 31.7966 L-7.38484 30.9082 L-7.857 30.0198 L-8.32916 29.1315 L-8.80132 28.2431 Z " />
<path stroke="rgb(200,255,200)" stroke-opacity="1" fill="rgb(200,255,200)" fill-opacity="1" id="tri_3" d="M-8.05127 27.6491 L-9.05257 27.6271 L-10.0539 27.6052 L-11.0552 27.5832 L-12.0565 27.5613 L-13.0578 27.5393 L-12.5383 26.6839 L-12.0189 25.8284 L-11.4995 24.973 L-10.98 24.1175 L-10.4606 23.2621 L-9.97872 24.1395 L-9.49686 25.0169 L-9.015 25.8943 L-8.53313 26.7717 L-8.05127 27.6491 Z " />
<path stroke="rgb(200,255,200)" stroke-opacity="1" fill="rgb(200,255,200)" fill-opacity="1" id="tri_5_1_" d="M0.797617 28.8419 L1.80979 28.8967 L2.82197 28.9516 L3.83414 29.0065 L4.84632 29.0614 L5.8585 29.1163 L5.30521 29.9644 L4.75193 30.8126 L4.19864 31.6607 L3.64536 32.5089 L3.09208 33.3571 L2.63319 32.454 L2.17429 31.551 L1.7154 30.6479 L1.25651 29.7449 L0.797617 28.8419 Z " />
<path stroke="rgb(200,255,200)" stroke-opacity="1" fill="rgb(200,255,200)" fill-opacity="1" id="tri_4" d="M1.62851 28.0625 L0.622313 28.0261 L-0.38389 27.9898 L-1.39009 27.9534 L-2.39629 27.9171 L-3.4025 27.8807 L-2.86872 27.0286 L-2.33495 26.1765 L-1.80118 25.3244 L-1.2674 24.4723 L-0.733629 23.6202 L-0.261199 24.5086 L0.211229 25.3971 L0.683657 26.2856 L1.15609 27.174 L1.62851 28.0625 Z " />
<path stroke="rgb(200,255,200)" stroke-opacity="1" fill="rgb(200,255,200)" fill-opacity="1" id="tri_6_1_" d="M10.3876 29.9155 L11.4069 29.9939 L12.4261 30.0723 L13.4454 30.1506 L14.4647 30.229 L15.484 30.3074 L14.9071 31.1502 L14.3302 31.9931 L13.7532 32.836 L13.1763 33.6789 L12.5994 34.5218 L12.1571 33.6006 L11.7147 32.6793 L11.2723 31.758 L10.8299 30.8368 L10.3876 29.9155 Z " />
<path stroke="rgb(200,255,200)" stroke-opacity="1" fill="rgb(200,255,200)" fill-opacity="1" id="tri_5" d="M11.2992 28.8505 L10.2872 28.7958 L9.2752 28.741 L8.2632 28.6863 L7.25121 28.6315 L6.23922 28.5768 L6.7925 27.7286 L7.34578 26.8805 L7.89907 26.0323 L8.45235 25.1842 L9.00563 24.336 L9.46435 25.2389 L9.92305 26.1418 L10.3818 27.0447 L10.8405 27.9476 L11.2992 28.8505 Z " />
<path stroke="rgb(200,255,200)" stroke-opacity="1" fill="rgb(200,255,200)" fill-opacity="1" id="tri_7_1_" d="M19.9723 31.6434 L20.9998 31.7519 L22.0273 31.8604 L23.0549 31.9689 L24.0824 32.0774 L25.11 32.1859 L24.5024 33.0206 L23.8949 33.8552 L23.2873 34.6899 L22.6797 35.5246 L22.0722 36.3593 L21.6522 35.4162 L21.2322 34.473 L20.8122 33.5298 L20.3922 32.5866 L19.9723 31.6434 Z " />
<path stroke="rgb(200,255,200)" stroke-opacity="1" fill="rgb(200,255,200)" fill-opacity="1" id="tri_6" d="M20.9801 30.1639 L19.9608 30.0857 L18.9416 30.0074 L17.9224 29.9291 L16.9031 29.8508 L15.8839 29.7726 L16.4608 28.9297 L17.0377 28.0868 L17.6146 27.2439 L18.1915 26.401 L18.7684 25.5581 L19.2107 26.4793 L19.6531 27.4004 L20.0954 28.3216 L20.5377 29.2428 L20.9801 30.1639 Z " />
<path stroke="rgb(200,255,200)" stroke-opacity="1" fill="rgb(200,255,200)" fill-opacity="1" id="tri_8_1_" d="M29.5543 34.2191 L30.5913 34.3643 L31.6284 34.5095 L32.6654 34.6548 L33.7025 34.8 L34.7395 34.9452 L34.0957 35.7698 L33.4519 36.5945 L32.808 37.4191 L32.1642 38.2438 L31.5203 39.0684 L31.1271 38.0986 L30.7339 37.1287 L30.3407 36.1588 L29.9475 35.189 L29.5543 34.2191 Z " />
<path stroke="rgb(200,255,200)" stroke-opacity="1" fill="rgb(200,255,200)" fill-opacity="1" id="tri_7" d="M30.667 32.1972 L29.6392 32.0887 L28.6114 31.9802 L27.5837 31.8717 L26.5559 31.7632 L25.5281 31.6547 L26.1357 30.82 L26.7432 29.9853 L27.3508 29.1506 L27.9583 28.3159 L28.5659 27.4812 L28.9861 28.4244 L29.4063 29.3676 L29.8265 30.3108 L30.2468 31.254 L30.667 32.1972 Z " />
<path stroke="rgb(200,255,200)" stroke-opacity="1" fill="rgb(200,255,200)" fill-opacity="1" id="tri_9" d="M39.0962 37.92 L40.1423 38.1111 L41.1885 38.3022 L42.2346 38.4933 L43.2807 38.6844 L44.3269 38.8755 L43.639 39.685 L42.9511 40.4945 L42.2632 41.304 L41.5753 42.1135 L40.8875 42.9229 L40.5292 41.9224 L40.171 40.9218 L39.8127 39.9212 L39.4544 38.9206 L39.0962 37.92 Z " />
<path stroke="rgb(200,255,200)" stroke-opacity="1" fill="rgb(200,255,200)" fill-opacity="1" id="tri_8" d="M40.3686 35.1503 L39.3318 35.005 L38.2949 34.8597 L37.258 34.7144 L36.2212 34.5691 L35.1843 34.4238 L35.8282 33.5992 L36.472 32.7745 L37.1158 31.9499 L37.7597 31.1252 L38.4035 30.3006 L38.7965 31.2705 L39.1896 32.2405 L39.5826 33.2104 L39.9756 34.1803 L40.3686 35.1503 Z " />
</g>
</g>
</svg>
