<!DOCTYPE svg>
<svg xmlns="http://www.w3.org/2000/svg" xmlns:xlink="http://www.w3.org/1999/xlink" width="600" height="600">
<g transform="translate(300.000000,300.000000)">
<g transform="scale(3.000000,3.000000)">
<path stroke="rgb(0,0,0)" stroke-opacity="1" fill="rgb(255,255,255)" fill-opacity="1" id="Layer_1" d="M107.411 107.089 L105.406 107.092 L103.402 107.095 L101.397 107.098 L99.3922 107.101 L97.3875 107.104 L95.3828 107.107 L93.3782 107.11 L91.3735 107.113 L89.3688 107.116 L87.3641 107.119 L85.3595 107.122 L83.3548 107.125 L81.3501 107.128 L79.3455 107.131 L77.3408 107.134 L75.3361 107.137 L73.3314 107.14 L71.3268 107.143 L69.3221 107.146 L67.3174 107.149 L65.3127 107.152 L63.3081 107.155 L61.3034 107.158 L59.2987 107.161 L57.2941 107.164 L55.2894 107.167 L53.2847 107.17 L51.28 107.173 L49.2754 107.176 L47.2707 107.179 L45.266 107.182 L43.2613 107.185 L41.2567 107.188 L39.252 107.191 L37.2473 107.194 L35.2426 107.197 L33.238 107.2 L31.2333 107.203 L29.2286 107.206 L27.224 107.209 L25.2193 107.212 L23.2146 107.215 L21.2099 107.218 L19.2053 107.221 L17.2006 107.224 L15.1959 107.227 L13.1912 107.23 L11.1866 107.233 L9.1819 107.236 L7.17723 107.239 L5.17256 107.242 L3.16788 107.245 L1.16321 107.248 L-0.841463 107.252 L-2.84614 107.255 L-4.85081 107.258 L-6.85548 107.261 L-8.86015 107.264 L-10.8648 107.267 L-12.8695 107.27 L-14.8742 107.273 L-16.8788 107.276 L-18.8835 107.279 L-20.8882 107.282 L-22.8929 107.285 L-24.8975 107.288 L-26.9022 107.291 L-28.9069 107.294 L-30.9116 107.297 L-32.9162 107.3 L-34.9209 107.303 L-36.9256 107.306 L-38.9302 107.309 L-40.9349 107.312 L-42.9396 107.315 L-44.9443 107.318 L-46.9489 107.321 L-48.9536 107.324 L-50.9583 107.327 L-52.963 107.33 L-54.9676 107.333 L-56.9723 107.336 L-58.977 107.339 L-60.9816 107.342 L-62.9863 107.345 L-64.991 107.348 L-66.9957 107.351 L-69.0003 107.354 L-71.005 107.357 L-73.0097 107.36 L-75.0144 107.363 L-77.019 107.366 L-79.0237 107.369 L-81.0284 107.372 L-83.0331 107.375 L-85.0377 107.378 L-87.0424 107.381 L-89.0471 107.384 L-91.0517 107.387 L-93.0564 107.39 L-95.0611 107.393 L-97.0658 107.396 L-99.0704 107.399 L-101.075 107.402 L-103.08 107.405 L-105.084 107.408 L-107.089 107.411 L-107.092 105.406 L-107.095 103.402 L-107.098 101.397 L-107.101 99.3922 L-107.104 97.3875 L-107.107 95.3828 L-107.11 93.3782 L-107.113 91.3735 L-107.116 89.3688 L-107.119 87.3641 L-107.122 85.3595 L-107.125 83.3548 L-107.128 81.3501 L-107.131 79.3455 L-107.134 77.3408 L-107.137 75.3361 L-107.14 73.3314 L-107.143 71.3268 L-107.146 69.3221 L-107.149 67.3174 L-107.152 65.3127 L-107.155 63.3081 L-107.158 61.3034 L-107.161 59.2987 L-107.164 57.2941 L-107.167 55.2894 L-107.17 53.2847 L-107.173 51.28 L-107.176 49.2754 L-107.179 47.2707 L-107.182 45.266 L-107.185 43.2613 L-107.188 41.2567 L-107.191 39.252 L-107.194 37.2473 L-107.197 35.2426 L-107.2 33.238 L-107.203 31.2333 L-107.206 29.2286 L-107.209 27.224 L-107.212 25.2193 L-107.215 23.2146 L-107.218 21.2099 L-107.221 19.2053 L-107.224 17.2006 L-107.227 15.1959 L-107.23 13.1912 L-107.233 11.1866 L-107.236 9.1819 L-107.239 7.17722 L-107.242 5.17255 L-107.245 3.16788 L-107.248 1.1632 L-107.251 -0.841469 L-107.255 -2.84614 L-107.258 -4.85081 L-107.261 -6.85549 L-107.264 -8.86016 L-107.267 -10.8648 L-107.27 -12.8695 L-107.273 -14.8742 L-107.276 -16.8789 L-107.279 -18.8835 L-107.282 -20.8882 L-107.285 -22.8929 L-107.288 -24.8975 L-107.291 -26.9022 L-107.294 -28.9069 L-107.297 -30.9116 L-107.3 -32.9162 L-107.303 -34.9209 L-107.306 -36.9256 L-107.309 -38.9303 L-107.312 -40.9349 L-107.315 -42.9396 L-107.318 -44.9443 L-107.321 -46.9489 L-107.324 -48.9536 L-107.327 -50.9583 L-107.33 -52.963 L-107.333 -54.9676 L-107.336 -56.9723 L-107.339 -58.977 L-107.342 -60.9817 L-107.345 -62.9863 L-107.348 -64.991 L-107.351 -66.9957 L-107.354 -69.0003 L-107.357 -71.005 L-107.36 -73.0097 L-107.363 -75.0144 L-107.366 -77.019 L-107.369 -79.0237 L-107.372 -81.0284 L-107.375 -83.0331 L-107.378 -85.0377 L-107.381 -87.0424 L-107.384 -89.0471 L-107.387 -91.0518 L-107.39 -93.0564 L-107.393 -95.0611 L-107.396 -97.0658 L-107.399 -99.0704 L-107.402 -101.075 L-107.405 -103.08 L-107.408 -105.084 L-107.411 -107.089 L-105.406 -107.092 L-103.402 -107.095 L-101.397 -107.098 L-99.3922 -107.101 L-97.3875 -107.104 L-95.3828 -107.107 L-93.3782 -107.11 L-91.3735 -107.113 L-89.3688 -107.116 L-87.3641 -107.119 L-85.3595 -107.122 L-83.3548 -107.125 L-81.3501 -107.128 L-79.3455 -107.131 L-77.3408 -107.134 L-75.3361 -107.137 L-73.3314 -107.14 L-71.3268 -107.143 L-69.3221 -107.146 L-67.3174 -107.149 L-65.3127 -107.152 L-63.3081 -107.155 L-61.3034 -107.158 L-59.2987 -107.161 L-57.2941 -107.164 L-55.2894 -107.167 L-53.2847 -107.17 L-51.28 -107.173 L-49.2754 -107.176 L-47.2707 -107.179 L-45.266 -107.182 L-43.2613 -107.185 L-41.2567 -107.188 L-39.252 -107.191 L-37.2473 -107.194 L-35.2426 -107.197 L-33.238 -107.2 L-31.2333 -107.203 L-29.2286 -107.206 L-27.224 -107.209 L-25.2193 -107.212 L-23.2146 -107.215 L-21.2099 -107.218 L-19.2053 -107.221 L-17.2006 -107.224 L-15.1959 -107.227 L-13.1912 -107.23 L-11.1866 -107.233 L-9.1819 -107.236 L-7.17723 -107.239 L-5.17256 -107.242 L-3.16788 -107.245 L-1.16321 -107.248 L0.841463 -107.252 L2.84614 -107.255 L4.85081 -107.258 L6.85548 -107.261 L8.86015 -107.264 L10.8648 -107.267 L12.8695 -107.27 L14.8742 -107.273 L16.8788 -107.276 L18.8835 -107.279 L20.8882 -107.282 L22.8929 -107.285 L24.8975 -107.288 L26.9022 -107.291 L28.9069 -107.294 L30.9116 -107.297 L32.9162 -107.3 L34.9209 -107.303 L36.9256 -107.306 L38.9302 -107.309 L40.9349 -107.312 L42.9396 -107.315 L44.9443 -107.318 L46.9489 -107.321 L48.9536 -107.324 L50.9583 -107.327 L52.963 -107.33 L54.9676 -107.333 L56.9723 -107.336 L58.977 -107.339 L60.9816 -107.342 L62.9863 -107.345 L64.991 -107.348 L66.9957 -107.351 L69.0003 -107.354 L71.005 -107.357 L73.0097 -107.36 L75.0144 -107.363 L77.019 -107.366 L79.0237 -107.369 L81.0284 -107.372 L83.0331 -107.375 L85.0377 -107.378 L87.0424 -107.381 L89.0471 -107.384 L91.0517 -107.387 L93.0564 -107.39 L95.0611 -107.393 L97.0658 -107.396 L99.0704 -107.399 L101.075 -107.402 L103.08 -107.405 L105.084 -107.408 L107.089 -107.411 L107.092 -105.406 L107.095 -103.402 L107.098 -101.397 L107.101 -99.3922 L107.104 -97.3875 L107.107 -95.3828 L107.11 -93.3782 L107.113 -91.3735 L107.116 -89.3688 L107.119 -87.3642 L107.122 -85.3595 L107.125 -83.3548 L107.128 -81.3501 L107.131 -79.3455 L107.134 -77.3408 L107.137 -75.3361 L107.14 -73.3314 L107.143 -71.3268 L107.146 -69.3221 L107.149 -67.3174 L107.152 -65.3128 L107.155 -63.3081 L107.158 -61.3034 L107.161 -59.2987 L107.164 -57.2941 L107.167 -55.2894 L107.17 -53.2847 L107.173 -51.28 L107.176 -49.2754 L107.179 -47.2707 L107.182 -45.266 L107.185 -43.2613 L107.188 -41.2567 L107.191 -39.252 L107.194 -37.2473 L107.197 -35.2427 L107.2 -33.238 L107.203 -31.2333 L107.206 -29.2286 L107.209 -27.224 L107.212 -25.2193 L107.215 -23.2146 L107.218 -21.2099 L107.221 -19.2053 L107.224 -17.2006 L107.227 -15.1959 L107.23 -13.1913 L107.233 -11.1866 L107.236 -9.18191 L107.239 -7.17724 L107.242 -5.17256 L107.245 -3.16789 L107.248 -1.16322 L107.251 0.841455 L107.255 2.84613 L107.258 4.8508 L107.261 6.85547 L107.264 8.86015 L107.267 10.8648 L107.27 12.8695 L107.273 14.8742 L107.276 16.8788 L107.279 18.8835 L107.282 20.8882 L107.285 22.8929 L107.288 24.8975 L107.291 26.9022 L107.294 28.9069 L107.297 30.9115 L107.3 32.9162 L107.303 34.9209 L107.306 36.9256 L107.309 38.9302 L107.312 40.9349 L107.315 42.9396 L107.318 44.9443 L107.321 46.9489 L107.324 48.9536 L107.327 50.9583 L107.33 52.963 L107.333 54.9676 L107.336 56.9723 L107.339 58.977 L107.342 60.9816 L107.345 62.9863 L107.348 64.991 L107.351 66.9957 L107.354 69.0003 L107.357 71.005 L107.36 73.0097 L107.363 75.0144 L107.366 77.019 L107.369 79.0237 L107.372 81.0284 L107.375 83.033 L107.378 85.0377 L107.381 87.0424 L107.384 89.0471 L107.387 91.0517 L107.39 93.0564 L107.393 95.0611 L107.396 97.0658 L107.399 99.0704 L107.402 101.075 L107.405 103.08 L107.408 105.084 L107.411 107.089 Z " />
<path stroke="rgb(169,255,187)" stroke-opacity="1" fill="rgb(169,255,187)" fill-opacity="1" id="scalebar" d="M-3.69904 -94.609 L-1.65554 -94.609 L0.387962 -94.609 L2.43146 -94.609 L4.47496 -94.609 L4.47496 -92.6686 L4.47496 -90.7281 L4.47496 -88.7876 L4.47496 -86.8472 L4.47496 -84.9067 L4.47496 -82.9663 L4.47496 -81.0258 L4.47496 -79.0853 L4.47496 -77.1449 L4.47496 -75.2044 L4.47496 -73.2639 L4.47496 -71.3235 L4.47496 -69.383 L2.43146 -69.383 L0.387962 -69.383 L-1.65554 -69.383 L-3.69904 -69.383 L-3.69904 -71.3235 L-3.69904 -73.2639 L-3.69904 -75.2044 L-3.69904 -77.1449 L-3.69904 -79.0853 L-3.69904 -81.0258 L-3.69904 -82.9663 L-3.69904 -84.9067 L-3.69904 -86.8472 L-3.69904 -88.7876 L-3.69904 -90.7281 L-3.69904 -92.6686 L-3.69904 -94.609 Z " />
<path stroke="rgb(200,255,200)" stroke-opacity="1" fill="rgb(200,255,200)" fill-opacity="1" id="scaleslider" d="M-6.69904 -84.587 L-4.67418 -84.587 L-2.64932 -84.587 L-0.624466 -84.587 L1.40039 -84.587 L3.42525 -84.587 L5.4501 -84.587 L7.47496 -84.587 L7.47496 -82.8604 L7.47496 -81.1337 L7.47496 -79.407 L5.4501 -79.407 L3.42525 -79.407 L1.40039 -79.407 L-0.624466 -79.407 L-2.64932 -79.407 L-4.67418 -79.407 L-6.69904 -79.407 L-6.69904 -81.1337 L-6.69904 -82.8604 L-6.69904 -84.587 Z " />
<path stroke="rgb(255,134,106)" stroke-opacity="1" fill="rgb(255,134,106)" fill-opacity="1" id="tranbar" d="M-49.142 -86.146 L-47.0675 -86.146 L-44.993 -86.146 L-42.9185 -86.146 L-40.844 -86.146 L-40.844 -88.2208 L-40.844 -90.2955 L-40.844 -92.3703 L-40.844 -94.445 L-38.7685 -94.445 L-36.693 -94.445 L-34.6175 -94.445 L-32.542 -94.445 L-32.542 -92.3703 L-32.542 -90.2955 L-32.542 -88.2208 L-32.542 -86.146 L-30.4673 -86.146 L-28.3925 -86.146 L-26.3178 -86.146 L-24.243 -86.146 L-24.243 -84.0715 L-24.243 -81.997 L-24.243 -79.9225 L-24.243 -77.848 L-26.3178 -77.848 L-28.3925 -77.848 L-30.4673 -77.848 L-32.542 -77.848 L-32.542 -75.773 L-32.542 -73.698 L-32.542 -71.623 L-32.542 -69.548 L-34.6175 -69.548 L-36.693 -69.548 L-38.7685 -69.548 L-40.844 -69.548 L-40.844 -71.623 L-40.844 -73.698 L-40.844 -75.773 L-40.844 -77.848 L-42.9185 -77.848 L-44.993 -77.848 L-47.0675 -77.848 L-49.142 -77.848 L-49.142 -79.9225 L-49.142 -81.997 L-49.142 -84.0715 L-49.142 -86.146 Z " />
<path stroke="rgb(255,250,159)" stroke-opacity="1" fill="rgb(255,250,159)" fill-opacity="1" id="translider" d="M-39.248 -84.553 L-37.5447 -84.553 L-35.8414 -84.553 L-34.138 -84.553 L-34.138 -82.85 L-34.138 -81.147 L-34.138 -79.444 L-35.8414 -79.444 L-37.5447 -79.444 L-39.248 -79.444 L-39.248 -81.147 L-39.248 -82.85 L-39.248 -84.553 Z " />
<path stroke="rgb(254,204,128)" stroke-opacity="1" fill="rgb(254,204,128)" fill-opacity="1" id="rotate" d="M34.1212 -72.9368 L32.8777 -74.416 L31.6341 -75.8952 L30.3906 -77.3744 L29.1471 -78.8537 L27.9036 -80.3329 L28.5632 -82.1495 L29.2228 -83.9661 L29.8824 -85.7827 L30.542 -87.5993 L31.2016 -89.4159 L33.1047 -89.7531 L35.0079 -90.0902 L36.9111 -90.4274 L38.8142 -90.7646 L40.7174 -91.1018 L41.961 -89.6224 L43.2045 -88.143 L44.4481 -86.6636 L45.6916 -85.1842 L46.9352 -83.7047 L46.2756 -81.8883 L45.6159 -80.0719 L44.9563 -78.2555 L44.2967 -76.4391 L43.637 -74.6227 L41.7339 -74.2855 L39.8307 -73.9483 L37.9275 -73.6112 L36.0244 -73.274 L34.1212 -72.9368 Z " />
<path stroke="rgb(200,255,200)" stroke-opacity="1" fill="rgb(200,255,200)" fill-opacity="1" id="tri_0" d="M-4.50246 -44.8012 L-3.8273 -46.6697 L-3.15214 -48.5382 L-2.47698 -50.4067 L-1.80182 -52.2752 L-1.12666 -54.1437 L0.154013 -52.6253 L1.43468 -51.107 L2.71535 -49.5887 L3.99602 -48.0703 L5.27669 -46.552 L3.32086 -46.2018 L1.36503 -45.8517 L-0.5908 -45.5015 L-2.54663 -45.1514 L-4.50246 -44.8012 Z " />
<path stroke="rgb(200,255,200)" stroke-opacity="1" fill="rgb(200,255,200)" fill-opacity="1" id="tri_0_18_" d="M-9.47256 -36.1546 L-8.79838 -38.0229 L-8.1242 -39.8913 L-7.45003 -41.7596 L-6.77585 -43.6279 L-6.10167 -45.4962 L-4.82057 -43.9778 L-3.53947 -42.4593 L-2.25837 -40.9408 L-0.977274 -39.4224 L0.303824 -37.9039 L-1.65145 -37.5541 L-3.60673 -37.2042 L-5.56201 -36.8543 L-7.51728 -36.5045 L-9.47256 -36.1546 Z " />
<path stroke="rgb(200,255,200)" stroke-opacity="1" fill="rgb(200,255,200)" fill-opacity="1" id="tri_1_16_" d="M0.502412 -36.1721 L1.177 -38.0403 L1.85159 -39.9085 L2.52617 -41.7768 L3.20076 -43.645 L3.87535 -45.5132 L5.156 -43.9948 L6.43666 -42.4765 L7.71732 -40.9581 L8.99798 -39.4397 L10.2786 -37.9214 L8.3234 -37.5715 L6.36815 -37.2217 L4.4129 -36.8718 L2.45766 -36.522 L0.502412 -36.1721 Z " />
<path stroke="rgb(200,255,200)" stroke-opacity="1" fill="rgb(200,255,200)" fill-opacity="1" id="tri_0_17_" d="M4.35134 -46.3367 L3.67661 -44.4681 L3.00188 -42.5995 L2.32715 -40.7309 L1.65241 -38.8623 L0.977681 -36.9936 L-0.303418 -38.5121 L-1.58452 -40.0306 L-2.86562 -41.549 L-4.14672 -43.0675 L-5.42781 -44.5859 L-3.47198 -44.9361 L-1.51615 -45.2863 L0.439681 -45.6364 L2.39551 -45.9866 L4.35134 -46.3367 Z " />
<path stroke="rgb(200,255,200)" stroke-opacity="1" fill="rgb(200,255,200)" fill-opacity="1" id="tri_0_16_" d="M-14.4464 -27.5043 L-13.7716 -29.3733 L-13.0967 -31.2423 L-12.4218 -33.1114 L-11.747 -34.9804 L-11.0721 -36.8495 L-9.79107 -35.3302 L-8.51003 -33.8109 L-7.22899 -32.2916 L-5.94795 -30.7724 L-4.66691 -29.2531 L-6.62281 -28.9033 L-8.57871 -28.5536 L-10.5346 -28.2038 L-12.4905 -27.854 L-14.4464 -27.5043 Z " />
<path stroke="rgb(200,255,200)" stroke-opacity="1" fill="rgb(200,255,200)" fill-opacity="1" id="tri_1_15_" d="M-4.46844 -27.5213 L-3.79435 -29.39 L-3.12026 -31.2588 L-2.44617 -33.1275 L-1.77208 -34.9962 L-1.09799 -36.865 L0.182969 -35.346 L1.46393 -33.8271 L2.74489 -32.3082 L4.02585 -30.7893 L5.30681 -29.2704 L3.35176 -28.9206 L1.39671 -28.5707 L-0.558344 -28.2209 L-2.51339 -27.8711 L-4.46844 -27.5213 Z " />
<path stroke="rgb(200,255,200)" stroke-opacity="1" fill="rgb(200,255,200)" fill-opacity="1" id="tri_0_15_" d="M-0.621733 -37.6885 L-1.29597 -35.8193 L-1.97021 -33.9502 L-2.64444 -32.081 L-3.31868 -30.2119 L-3.99292 -28.3428 L-5.27396 -29.862 L-6.555 -31.3813 L-7.83604 -32.9006 L-9.11708 -34.4199 L-10.3981 -35.9392 L-8.44284 -36.289 L-6.48756 -36.6389 L-4.53229 -36.9887 L-2.57701 -37.3386 L-0.621733 -37.6885 Z " />
<path stroke="rgb(200,255,200)" stroke-opacity="1" fill="rgb(200,255,200)" fill-opacity="1" id="tri_2_14_" d="M5.50741 -27.5391 L6.18155 -29.4074 L6.85569 -31.2758 L7.52982 -33.1441 L8.20396 -35.0125 L8.8781 -36.8808 L10.1584 -35.362 L11.4387 -33.8431 L12.7191 -32.3243 L13.9994 -30.8054 L15.2797 -29.2866 L13.3252 -28.9371 L11.3708 -28.5876 L9.41632 -28.2381 L7.46187 -27.8886 L5.50741 -27.5391 Z " />
<path stroke="rgb(200,255,200)" stroke-opacity="1" fill="rgb(200,255,200)" fill-opacity="1" id="tri_1_14_" d="M9.35336 -37.7049 L8.67907 -35.8361 L8.00478 -33.9673 L7.3305 -32.0986 L6.65621 -30.2298 L5.98192 -28.361 L4.70096 -29.8799 L3.42001 -31.3989 L2.13905 -32.9178 L0.858087 -34.4367 L-0.422872 -35.9556 L1.53237 -36.3055 L3.48762 -36.6553 L5.44287 -37.0052 L7.39811 -37.355 L9.35336 -37.7049 Z " />
<path stroke="rgb(200,255,200)" stroke-opacity="1" fill="rgb(200,255,200)" fill-opacity="1" id="tri_0_14_" d="M-19.4193 -18.8535 L-18.7446 -20.7227 L-18.07 -22.5919 L-17.3954 -24.4611 L-16.7208 -26.3303 L-16.0461 -28.1995 L-14.7655 -26.6804 L-13.4849 -25.1612 L-12.2043 -23.6421 L-10.9237 -22.1229 L-9.64307 -20.6038 L-11.5983 -20.2537 L-13.5536 -19.9037 L-15.5088 -19.5536 L-17.464 -19.2035 L-19.4193 -18.8535 Z " />
<path stroke="rgb(200,255,200)" stroke-opacity="1" fill="rgb(200,255,200)" fill-opacity="1" id="tri_1_13_" d="M-9.44445 -18.8718 L-8.76931 -20.7403 L-8.09417 -22.6088 L-7.41902 -24.4773 L-6.74388 -26.3459 L-6.06874 -28.2144 L-4.78808 -26.696 L-3.50742 -25.1776 L-2.22676 -23.6593 L-0.946104 -22.1409 L0.334554 -20.6226 L-1.62125 -20.2724 L-3.57705 -19.9223 L-5.53285 -19.5721 L-7.48865 -19.2219 L-9.44445 -18.8718 Z " />
<path stroke="rgb(200,255,200)" stroke-opacity="1" fill="rgb(200,255,200)" fill-opacity="1" id="tri_0_13_" d="M-5.59262 -29.0379 L-6.26791 -27.169 L-6.9432 -25.3001 L-7.61848 -23.4312 L-8.29377 -21.5622 L-8.96906 -19.6933 L-10.2497 -21.2125 L-11.5303 -22.7316 L-12.8109 -24.2508 L-14.0915 -25.7699 L-15.3721 -27.2891 L-13.4162 -27.6388 L-11.4603 -27.9886 L-9.50442 -28.3384 L-7.54852 -28.6881 L-5.59262 -29.0379 Z " />
<path stroke="rgb(200,255,200)" stroke-opacity="1" fill="rgb(200,255,200)" fill-opacity="1" id="tri_2_13_" d="M0.535194 -18.891 L1.20944 -20.7588 L1.88368 -22.6266 L2.55792 -24.4943 L3.23216 -26.3621 L3.9064 -28.2299 L5.18665 -26.7114 L6.4669 -25.193 L7.74715 -23.6745 L9.02739 -22.156 L10.3076 -20.6376 L8.35315 -20.2883 L6.39866 -19.939 L4.44417 -19.5897 L2.48968 -19.2403 L0.535194 -18.891 Z " />
<path stroke="rgb(200,255,200)" stroke-opacity="1" fill="rgb(200,255,200)" fill-opacity="1" id="tri_1_12_" d="M4.38153 -29.0538 L3.70714 -27.1857 L3.03274 -25.3175 L2.35835 -23.4493 L1.68396 -21.5811 L1.00957 -19.7129 L-0.271086 -21.2313 L-1.55175 -22.7497 L-2.83241 -24.268 L-4.11306 -25.7864 L-5.39372 -27.3047 L-3.43867 -27.6546 L-1.48362 -28.0044 L0.471427 -28.3542 L2.42648 -28.704 L4.38153 -29.0538 Z " />
<path stroke="rgb(200,255,200)" stroke-opacity="1" fill="rgb(200,255,200)" fill-opacity="1" id="tri_3_12_" d="M10.5105 -18.9067 L11.1845 -20.7742 L11.8586 -22.6418 L12.5326 -24.5093 L13.2067 -26.3768 L13.8807 -28.2444 L15.1611 -26.7272 L16.4416 -25.2099 L17.722 -23.6927 L19.0024 -22.1755 L20.2828 -20.6583 L18.3283 -20.308 L16.3739 -19.9576 L14.4194 -19.6073 L12.4649 -19.257 L10.5105 -18.9067 Z " />
<path stroke="rgb(200,255,200)" stroke-opacity="1" fill="rgb(200,255,200)" fill-opacity="1" id="tri_2_12_" d="M14.3546 -29.069 L13.6804 -27.201 L13.0062 -25.3331 L12.332 -23.4651 L11.6578 -21.5972 L10.9836 -19.7292 L9.70334 -21.2477 L8.42309 -22.7661 L7.14284 -24.2846 L5.86259 -25.803 L4.58234 -27.3215 L6.5368 -27.671 L8.49125 -28.0205 L10.4457 -28.37 L12.4002 -28.7195 L14.3546 -29.069 Z " />
<path stroke="rgb(200,255,200)" stroke-opacity="1" fill="rgb(200,255,200)" fill-opacity="1" id="tri_0_12_" d="M-24.3918 -10.2084 L-23.7172 -12.0764 L-23.0425 -13.9444 L-22.3679 -15.8124 L-21.6933 -17.6804 L-21.0186 -19.5484 L-19.7377 -18.0297 L-18.4567 -16.511 L-17.1758 -14.9923 L-15.8949 -13.4736 L-14.6139 -11.955 L-16.5695 -11.6056 L-18.5251 -11.2563 L-20.4807 -10.907 L-22.4362 -10.5577 L-24.3918 -10.2084 Z " />
<path stroke="rgb(200,255,200)" stroke-opacity="1" fill="rgb(200,255,200)" fill-opacity="1" id="tri_1_11_" d="M-14.4156 -10.2233 L-13.7414 -12.0916 L-13.0672 -13.96 L-12.3931 -15.8283 L-11.7189 -17.6966 L-11.0448 -19.565 L-9.76387 -18.0465 L-8.48298 -16.5279 L-7.20208 -15.0094 L-5.92119 -13.4909 L-4.6403 -11.9724 L-6.59535 -11.6225 L-8.5504 -11.2727 L-10.5055 -10.9229 L-12.4605 -10.5731 L-14.4156 -10.2233 Z " />
<path stroke="rgb(200,255,200)" stroke-opacity="1" fill="rgb(200,255,200)" fill-opacity="1" id="tri_0_11_" d="M-10.5687 -20.3885 L-11.243 -18.5197 L-11.9173 -16.651 L-12.5916 -14.7822 L-13.2659 -12.9135 L-13.9402 -11.0447 L-15.2211 -12.5634 L-16.5021 -14.0821 L-17.783 -15.6008 L-19.064 -17.1195 L-20.3449 -18.6382 L-18.3897 -18.9882 L-16.4344 -19.3383 L-14.4792 -19.6884 L-12.5239 -20.0384 L-10.5687 -20.3885 Z " />
<path stroke="rgb(200,255,200)" stroke-opacity="1" fill="rgb(200,255,200)" fill-opacity="1" id="tri_2_11_" d="M-4.43951 -10.2408 L-3.76475 -12.1091 L-3.08999 -13.9774 L-2.41523 -15.8456 L-1.74047 -17.7139 L-1.06571 -19.5822 L0.214111 -18.0638 L1.49393 -16.5455 L2.77376 -15.0272 L4.05358 -13.5088 L5.3334 -11.9905 L3.37882 -11.6406 L1.42424 -11.2906 L-0.530345 -10.9407 L-2.48493 -10.5908 L-4.43951 -10.2408 Z " />
<path stroke="rgb(200,255,200)" stroke-opacity="1" fill="rgb(200,255,200)" fill-opacity="1" id="tri_1_10_" d="M-0.59068 -20.4062 L-1.26559 -18.5375 L-1.9405 -16.6688 L-2.61541 -14.8002 L-3.29032 -12.9315 L-3.96523 -11.0628 L-5.24612 -12.5813 L-6.52701 -14.0999 L-7.8079 -15.6184 L-9.08879 -17.1369 L-10.3697 -18.6554 L-8.41388 -19.0056 L-6.45808 -19.3557 L-4.50228 -19.7059 L-2.54648 -20.056 L-0.59068 -20.4062 Z " />
<path stroke="rgb(200,255,200)" stroke-opacity="1" fill="rgb(200,255,200)" fill-opacity="1" id="tri_3_11_" d="M5.53616 -10.2595 L6.21067 -12.1268 L6.88519 -13.994 L7.5597 -15.8612 L8.23422 -17.7284 L8.90873 -19.5956 L10.1888 -18.0779 L11.4689 -16.5603 L12.749 -15.0426 L14.0291 -13.5249 L15.3092 -12.0072 L13.3546 -11.6577 L11.4 -11.3081 L9.44536 -10.9586 L7.49076 -10.6091 L5.53616 -10.2595 Z " />
<path stroke="rgb(200,255,200)" stroke-opacity="1" fill="rgb(200,255,200)" fill-opacity="1" id="tri_2_10_" d="M9.38277 -20.4201 L8.7081 -18.5525 L8.03344 -16.6849 L7.35877 -14.8172 L6.6841 -12.9496 L6.00943 -11.0819 L4.72961 -12.6003 L3.44979 -14.1186 L2.16996 -15.6369 L0.890142 -17.1552 L-0.389679 -18.6736 L1.56481 -19.0229 L3.5193 -19.3722 L5.47379 -19.7215 L7.42828 -20.0708 L9.38277 -20.4201 Z " />
<path stroke="rgb(200,255,200)" stroke-opacity="1" fill="rgb(200,255,200)" fill-opacity="1" id="tri_4_10_" d="M15.5144 -10.2764 L16.1886 -12.144 L16.8628 -14.0116 L17.537 -15.8791 L18.2113 -17.7467 L18.8855 -19.6143 L20.1652 -18.0963 L21.4449 -16.5784 L22.7246 -15.0604 L24.0042 -13.5425 L25.2839 -12.0245 L23.33 -11.6749 L21.3761 -11.3253 L19.4222 -10.9757 L17.4683 -10.6261 L15.5144 -10.2764 Z " />
<path stroke="rgb(200,255,200)" stroke-opacity="1" fill="rgb(200,255,200)" fill-opacity="1" id="tri_3_10_" d="M19.3583 -20.4395 L18.684 -18.5715 L18.0096 -16.7035 L17.3352 -14.8355 L16.6608 -12.9675 L15.9864 -11.0995 L14.7064 -12.6171 L13.4263 -14.1348 L12.1462 -15.6525 L10.8661 -17.1702 L9.58603 -18.6879 L11.5405 -19.0382 L13.4949 -19.3885 L15.4494 -19.7388 L17.4039 -20.0891 L19.3583 -20.4395 Z " />
<path stroke="rgb(200,255,200)" stroke-opacity="1" fill="rgb(200,255,200)" fill-opacity="1" id="tri_0_10_" d="M-29.3644 -1.55736 L-28.6898 -3.42657 L-28.0152 -5.29578 L-27.3405 -7.16499 L-26.6659 -9.03419 L-25.9913 -10.9034 L-24.7102 -9.38373 L-23.4291 -7.86406 L-22.148 -6.34439 L-20.8668 -4.82471 L-19.5857 -3.30504 L-21.5415 -2.95551 L-23.4972 -2.60597 L-25.4529 -2.25643 L-27.4087 -1.9069 L-29.3644 -1.55736 Z " />
<path stroke="rgb(200,255,200)" stroke-opacity="1" fill="rgb(200,255,200)" fill-opacity="1" id="tri_1_9_" d="M-19.3874 -1.57323 L-18.7131 -3.44181 L-18.0388 -5.31038 L-17.3645 -7.17895 L-16.6902 -9.04753 L-16.0158 -10.9161 L-14.7351 -9.39754 L-13.4544 -7.87898 L-12.1737 -6.36042 L-10.8931 -4.84186 L-9.61236 -3.3233 L-11.5674 -2.97329 L-13.5224 -2.62327 L-15.4774 -2.27326 L-17.4324 -1.92325 L-19.3874 -1.57323 Z " />
<path stroke="rgb(200,255,200)" stroke-opacity="1" fill="rgb(200,255,200)" fill-opacity="1" id="tri_0_9_" d="M-15.5395 -11.7396 L-16.214 -9.87061 L-16.8885 -8.00164 L-17.5629 -6.13266 L-18.2374 -4.26368 L-18.9119 -2.39471 L-20.193 -3.91438 L-21.4741 -5.43405 L-22.7552 -6.95372 L-24.0363 -8.47339 L-25.3174 -9.99307 L-23.3618 -10.3424 L-21.4063 -10.6917 L-19.4507 -11.041 L-17.4951 -11.3903 L-15.5395 -11.7396 Z " />
<path stroke="rgb(200,255,200)" stroke-opacity="1" fill="rgb(200,255,200)" fill-opacity="1" id="tri_2_9_" d="M-9.41157 -1.59194 L-8.73737 -3.4599 L-8.06316 -5.32787 L-7.38895 -7.19583 L-6.71475 -9.06379 L-6.04054 -10.9318 L-4.75997 -9.41376 L-3.4794 -7.89577 L-2.19883 -6.37778 L-0.918258 -4.85979 L0.362312 -3.3418 L-1.59246 -2.99182 L-3.54724 -2.64185 L-5.50202 -2.29188 L-7.4568 -1.94191 L-9.41157 -1.59194 Z " />
<path stroke="rgb(200,255,200)" stroke-opacity="1" fill="rgb(200,255,200)" fill-opacity="1" id="tri_1_8_" d="M-5.56553 -11.7558 L-6.23988 -9.88745 L-6.91424 -8.01907 L-7.58859 -6.1507 L-8.26295 -4.28232 L-8.93731 -2.41394 L-10.218 -3.9325 L-11.4987 -5.45106 L-12.7794 -6.96962 L-14.0601 -8.48818 L-15.3408 -10.0067 L-13.3857 -10.3566 L-11.4307 -10.7064 L-9.47563 -11.0562 L-7.52058 -11.406 L-5.56553 -11.7558 Z " />
<path stroke="rgb(200,255,200)" stroke-opacity="1" fill="rgb(200,255,200)" fill-opacity="1" id="tri_3_9_" d="M0.565283 -1.61089 L1.23914 -3.47839 L1.913 -5.34589 L2.58686 -7.2134 L3.26071 -9.0809 L3.93457 -10.9484 L5.21469 -9.43052 L6.49481 -7.91264 L7.77493 -6.39477 L9.05505 -4.87689 L10.3352 -3.35901 L8.38119 -3.00939 L6.42721 -2.65976 L4.47324 -2.31014 L2.51926 -1.96051 L0.565283 -1.61089 Z " />
<path stroke="rgb(200,255,200)" stroke-opacity="1" fill="rgb(200,255,200)" fill-opacity="1" id="tri_2_8_" d="M4.40851 -11.773 L3.7345 -9.90507 L3.06049 -8.03714 L2.38648 -6.16922 L1.71247 -4.30129 L1.03846 -2.43336 L-0.242112 -3.95135 L-1.52268 -5.46935 L-2.80325 -6.98734 L-4.08382 -8.50533 L-5.3644 -10.0233 L-3.40981 -10.3733 L-1.45523 -10.7232 L0.49935 -11.0731 L2.45393 -11.4231 L4.40851 -11.773 Z " />
<path stroke="rgb(200,255,200)" stroke-opacity="1" fill="rgb(200,255,200)" fill-opacity="1" id="tri_4_9_" d="M10.5402 -1.62831 L11.2146 -3.49528 L11.8889 -5.36226 L12.5632 -7.22924 L13.2375 -9.09622 L13.9118 -10.9632 L15.1918 -9.4459 L16.4718 -7.9286 L17.7518 -6.41131 L19.0318 -4.89401 L20.3118 -3.37672 L18.3575 -3.02704 L16.4031 -2.67736 L14.4488 -2.32767 L12.4945 -1.97799 L10.5402 -1.62831 Z " />
<path stroke="rgb(200,255,200)" stroke-opacity="1" fill="rgb(200,255,200)" fill-opacity="1" id="tri_3_8_" d="M14.3847 -11.7885 L13.7102 -9.92109 L13.0357 -8.05368 L12.3613 -6.18627 L11.6868 -4.31886 L11.0123 -2.45145 L9.73219 -3.96932 L8.45207 -5.4872 L7.17195 -7.00508 L5.89183 -8.52295 L4.61172 -10.0408 L6.56631 -10.3904 L8.52091 -10.7399 L10.4755 -11.0894 L12.4301 -11.439 L14.3847 -11.7885 Z " />
<path stroke="rgb(200,255,200)" stroke-opacity="1" fill="rgb(200,255,200)" fill-opacity="1" id="tri_5_8_" d="M20.5192 -1.64646 L21.1929 -3.51292 L21.8667 -5.37938 L22.5405 -7.24584 L23.2142 -9.11231 L23.888 -10.9788 L25.1673 -9.46177 L26.4466 -7.94477 L27.7259 -6.42776 L29.0052 -4.91076 L30.2844 -3.39376 L28.3314 -3.0443 L26.3783 -2.69484 L24.4253 -2.34538 L22.4722 -1.99592 L20.5192 -1.64646 Z " />
<path stroke="rgb(200,255,200)" stroke-opacity="1" fill="rgb(200,255,200)" fill-opacity="1" id="tri_4_8_" d="M24.3597 -11.8045 L23.6858 -9.93762 L23.0119 -8.07071 L22.3379 -6.2038 L21.664 -4.3369 L20.9901 -2.46999 L19.7101 -3.98728 L18.4301 -5.50458 L17.1501 -7.02187 L15.8701 -8.53917 L14.5901 -10.0565 L16.5441 -10.4061 L18.498 -10.7557 L20.4519 -11.1053 L22.4058 -11.4549 L24.3597 -11.8045 Z " />
<path stroke="rgb(200,255,200)" stroke-opacity="1" fill="rgb(200,255,200)" fill-opacity="1" id="tri_0_8_" d="M-34.3393 7.09279 L-33.6642 5.22371 L-32.9892 3.35463 L-32.3141 1.48554 L-31.6391 -0.383538 L-30.964 -2.25262 L-29.6832 -0.733696 L-28.4025 0.785226 L-27.1217 2.30415 L-25.8409 3.82307 L-24.5601 5.34199 L-26.516 5.69215 L-28.4718 6.04231 L-30.4276 6.39247 L-32.3835 6.74263 L-34.3393 7.09279 Z " />
<path stroke="rgb(200,255,200)" stroke-opacity="1" fill="rgb(200,255,200)" fill-opacity="1" id="tri_1_7_" d="M-24.3617 7.07385 L-23.6869 5.20579 L-23.0121 3.33774 L-22.3373 1.46969 L-21.6624 -0.398365 L-20.9876 -2.26642 L-19.7075 -0.747952 L-18.4275 0.770515 L-17.1474 2.28898 L-15.8673 3.80745 L-14.5873 5.32592 L-16.5421 5.6755 L-18.497 6.02509 L-20.4519 6.37467 L-22.4068 6.72426 L-24.3617 7.07385 Z " />
<path stroke="rgb(200,255,200)" stroke-opacity="1" fill="rgb(200,255,200)" fill-opacity="1" id="tri_0_7_" d="M-20.5114 -3.08976 L-21.1864 -1.22131 L-21.8614 0.64715 L-22.5363 2.51561 L-23.2113 4.38406 L-23.8863 6.25252 L-25.167 4.7336 L-26.4478 3.21468 L-27.7286 1.69576 L-29.0094 0.176835 L-30.2901 -1.34209 L-28.3344 -1.69162 L-26.3787 -2.04116 L-24.4229 -2.39069 L-22.4672 -2.74023 L-20.5114 -3.08976 Z " />
<path stroke="rgb(200,255,200)" stroke-opacity="1" fill="rgb(200,255,200)" fill-opacity="1" id="tri_2_7_" d="M-14.3866 7.05728 L-13.7118 5.18921 L-13.037 3.32115 L-12.3622 1.45308 L-11.6874 -0.414984 L-11.0126 -2.28305 L-9.73242 -0.764792 L-8.4522 0.753465 L-7.17199 2.27172 L-5.89178 3.78998 L-4.61156 5.30823 L-6.56657 5.65804 L-8.52158 6.00785 L-10.4766 6.35766 L-12.4316 6.70747 L-14.3866 7.05728 Z " />
<path stroke="rgb(200,255,200)" stroke-opacity="1" fill="rgb(200,255,200)" fill-opacity="1" id="tri_1_6_" d="M-10.5376 -3.10698 L-11.2125 -1.2385 L-11.8875 0.629978 L-12.5624 2.49846 L-13.2374 4.36694 L-13.9123 6.23542 L-15.1924 4.71695 L-16.4725 3.19848 L-17.7525 1.68002 L-19.0326 0.16155 L-20.3127 -1.35692 L-18.3577 -1.70693 L-16.4026 -2.05694 L-14.4476 -2.40696 L-12.4926 -2.75697 L-10.5376 -3.10698 Z " />
<path stroke="rgb(200,255,200)" stroke-opacity="1" fill="rgb(200,255,200)" fill-opacity="1" id="tri_3_7_" d="M-4.40864 7.03932 L-3.73423 5.17152 L-3.05982 3.30372 L-2.3854 1.43591 L-1.71099 -0.431892 L-1.03658 -2.29969 L0.243177 -0.78155 L1.52294 0.736593 L2.8027 2.25474 L4.08246 3.77288 L5.36223 5.29102 L3.40805 5.64068 L1.45388 5.99034 L-0.500292 6.34 L-2.45446 6.68966 L-4.40864 7.03932 Z " />
<path stroke="rgb(200,255,200)" stroke-opacity="1" fill="rgb(200,255,200)" fill-opacity="1" id="tri_2_6_" d="M-0.562567 -3.12421 L-1.23713 -1.25598 L-1.91169 0.612244 L-2.58626 2.48047 L-3.26082 4.3487 L-3.93539 6.21693 L-5.2156 4.69867 L-6.49581 3.18041 L-7.77603 1.66216 L-9.05624 0.143903 L-10.3365 -1.37435 L-8.38168 -1.72433 L-6.4269 -2.0743 L-4.47212 -2.42427 L-2.51734 -2.77424 L-0.562567 -3.12421 Z " />
<path stroke="rgb(200,255,200)" stroke-opacity="1" fill="rgb(200,255,200)" fill-opacity="1" id="tri_4_7_" d="M5.56743 7.02156 L6.24149 5.15423 L6.91555 3.28689 L7.58961 1.41956 L8.26366 -0.447777 L8.93772 -2.31511 L10.2177 -0.797817 L11.4977 0.719476 L12.7777 2.23677 L14.0576 3.75406 L15.3376 5.27136 L13.3836 5.6214 L11.4296 5.97144 L9.47551 6.32148 L7.52147 6.67152 L5.56743 7.02156 Z " />
<path stroke="rgb(200,255,200)" stroke-opacity="1" fill="rgb(200,255,200)" fill-opacity="1" id="tri_3_6_" d="M9.41057 -3.14027 L8.73636 -1.2725 L8.06214 0.595271 L7.38793 2.46304 L6.71371 4.33081 L6.0395 6.19858 L4.75974 4.68043 L3.47998 3.16229 L2.20021 1.64415 L0.920452 0.126004 L-0.359311 -1.39214 L1.59467 -1.74177 L3.54864 -2.09139 L5.50262 -2.44102 L7.45659 -2.79064 L9.41057 -3.14027 Z " />
<path stroke="rgb(200,255,200)" stroke-opacity="1" fill="rgb(200,255,200)" fill-opacity="1" id="tri_5_7_" d="M15.545 7.00173 L16.2191 5.1352 L16.8933 3.26867 L17.5675 1.40214 L18.2416 -0.464395 L18.9158 -2.33093 L20.195 -0.813107 L21.4742 0.704713 L22.7535 2.22253 L24.0327 3.74035 L25.3119 5.25817 L23.3585 5.60688 L21.4051 5.9556 L19.4518 6.30431 L17.4984 6.65302 L15.545 7.00173 Z " />
<path stroke="rgb(200,255,200)" stroke-opacity="1" fill="rgb(200,255,200)" fill-opacity="1" id="tri_4_6_" d="M19.3877 -3.15674 L18.7134 -1.28977 L18.039 0.57721 L17.3647 2.44418 L16.6904 4.31116 L16.0161 6.17814 L14.7361 4.66084 L13.4561 3.14355 L12.1761 1.62626 L10.8961 0.108964 L9.61617 -1.40833 L11.5705 -1.75801 L13.5248 -2.10769 L15.4791 -2.45738 L17.4334 -2.80706 L19.3877 -3.15674 Z " />
<path stroke="rgb(200,255,200)" stroke-opacity="1" fill="rgb(200,255,200)" fill-opacity="1" id="tri_6_6_" d="M25.5216 6.98787 L26.1953 5.12104 L26.869 3.25422 L27.5426 1.38739 L28.2163 -0.479433 L28.8899 -2.34626 L30.1693 -0.829697 L31.4487 0.686863 L32.728 2.20342 L34.0074 3.71998 L35.2868 5.23655 L33.3338 5.58681 L31.3807 5.93707 L29.4277 6.28734 L27.4747 6.6376 L25.5216 6.98787 Z " />
<path stroke="rgb(200,255,200)" stroke-opacity="1" fill="rgb(200,255,200)" fill-opacity="1" id="tri_5_6_" d="M29.3605 -3.17262 L28.6867 -1.30534 L28.0129 0.561944 L27.339 2.42922 L26.6652 4.2965 L25.9914 6.16378 L24.7122 4.64596 L23.4329 3.12814 L22.1537 1.61032 L20.8745 0.0925041 L19.5953 -1.42532 L21.5483 -1.77478 L23.5014 -2.12424 L25.4544 -2.4737 L27.4075 -2.82316 L29.3605 -3.17262 Z " />
<path stroke="rgb(200,255,200)" stroke-opacity="1" fill="rgb(200,255,200)" fill-opacity="1" id="tri_0_6_" d="M-39.3114 15.7427 L-38.6369 13.8737 L-37.9624 12.0047 L-37.288 10.1358 L-36.6135 8.26678 L-35.939 6.3978 L-34.6574 7.91678 L-33.3758 9.43576 L-32.0942 10.9547 L-30.8126 12.4737 L-29.5311 13.9927 L-31.4871 14.3427 L-33.4432 14.6927 L-35.3992 15.0427 L-37.3553 15.3927 L-39.3114 15.7427 Z " />
<path stroke="rgb(200,255,200)" stroke-opacity="1" fill="rgb(200,255,200)" fill-opacity="1" id="tri_1_5_" d="M-29.3325 15.7245 L-28.6584 13.8558 L-27.9843 11.9871 L-27.3102 10.1183 L-26.6361 8.24961 L-25.962 6.38088 L-24.6816 7.8999 L-23.4013 9.41892 L-22.1209 10.9379 L-20.8405 12.457 L-19.5602 13.976 L-21.5146 14.3257 L-23.4691 14.6754 L-25.4235 15.0251 L-27.378 15.3748 L-29.3325 15.7245 Z " />
<path stroke="rgb(200,255,200)" stroke-opacity="1" fill="rgb(200,255,200)" fill-opacity="1" id="tri_0_5_" d="M-25.4858 5.55738 L-26.16 7.42652 L-26.8343 9.29566 L-27.5085 11.1648 L-28.1828 13.0339 L-28.857 14.9031 L-30.1386 13.3841 L-31.4202 11.8651 L-32.7018 10.3461 L-33.9834 8.82716 L-35.265 7.30818 L-33.3091 6.95802 L-31.3533 6.60786 L-29.3975 6.2577 L-27.4416 5.90754 L-25.4858 5.55738 Z " />
<path stroke="rgb(200,255,200)" stroke-opacity="1" fill="rgb(200,255,200)" fill-opacity="1" id="tri_2_5_" d="M-19.3593 15.7071 L-18.685 13.8389 L-18.0106 11.9708 L-17.3362 10.1026 L-16.6619 8.23437 L-15.9875 6.36617 L-14.707 7.88377 L-13.4265 9.40138 L-12.146 10.919 L-10.8655 12.4366 L-9.585 13.9542 L-11.5399 14.3048 L-13.4947 14.6554 L-15.4496 15.006 L-17.4045 15.3565 L-19.3593 15.7071 Z " />
<path stroke="rgb(200,255,200)" stroke-opacity="1" fill="rgb(200,255,200)" fill-opacity="1" id="tri_1_4_" d="M-15.5125 5.54217 L-16.187 7.41078 L-16.8616 9.27938 L-17.5361 11.148 L-18.2106 13.0166 L-18.8851 14.8852 L-20.1655 13.3662 L-21.4459 11.8472 L-22.7262 10.3281 L-24.0066 8.80912 L-25.287 7.2901 L-23.3321 6.94052 L-21.3772 6.59093 L-19.4223 6.24134 L-17.4674 5.89176 L-15.5125 5.54217 Z " />
<path stroke="rgb(200,255,200)" stroke-opacity="1" fill="rgb(200,255,200)" fill-opacity="1" id="tri_3_5_" d="M-9.38206 15.6854 L-8.70771 13.8184 L-8.03336 11.9515 L-7.359 10.0845 L-6.68465 8.21749 L-6.0103 6.3505 L-4.72995 7.86855 L-3.4496 9.38658 L-2.16925 10.9046 L-0.888899 12.4227 L0.391451 13.9407 L-1.56325 14.2896 L-3.51796 14.6386 L-5.47266 14.9875 L-7.42736 15.3365 L-9.38206 15.6854 Z " />
<path stroke="rgb(200,255,200)" stroke-opacity="1" fill="rgb(200,255,200)" fill-opacity="1" id="tri_2_4_" d="M-5.53629 5.52576 L-6.2108 7.39317 L-6.88531 9.26058 L-7.55981 11.128 L-8.23432 12.9954 L-8.90883 14.8628 L-10.1893 13.3452 L-11.4698 11.8276 L-12.7503 10.31 L-14.0308 8.7924 L-15.3113 7.2748 L-13.3563 6.92499 L-11.4013 6.57518 L-9.44631 6.22538 L-7.4913 5.87557 L-5.53629 5.52576 Z " />
<path stroke="rgb(200,255,200)" stroke-opacity="1" fill="rgb(200,255,200)" fill-opacity="1" id="tri_4_5_" d="M0.596347 15.6713 L1.27001 13.804 L1.94368 11.9368 L2.61734 10.0695 L3.29101 8.20224 L3.96468 6.33497 L5.2445 7.8525 L6.52432 9.37002 L7.80414 10.8875 L9.08396 12.4051 L10.3638 13.9226 L8.41029 14.2723 L6.45681 14.6221 L4.50332 14.9718 L2.54983 15.3216 L0.596347 15.6713 Z " />
<path stroke="rgb(200,255,200)" stroke-opacity="1" fill="rgb(200,255,200)" fill-opacity="1" id="tri_3_4_" d="M4.43758 5.50979 L3.76376 7.37749 L3.08993 9.24519 L2.41611 11.1129 L1.74229 12.9806 L1.06846 14.8483 L-0.211885 13.3302 L-1.49223 11.8122 L-2.77258 10.2942 L-4.05293 8.77613 L-5.33328 7.25809 L-3.37911 6.90843 L-1.42494 6.55877 L0.529234 6.20911 L2.48341 5.85945 L4.43758 5.50979 Z " />
<path stroke="rgb(200,255,200)" stroke-opacity="1" fill="rgb(200,255,200)" fill-opacity="1" id="tri_5_5_" d="M10.5713 15.6528 L11.2454 13.7857 L11.9194 11.9186 L12.5935 10.0514 L13.2675 8.18432 L13.9416 6.3172 L15.2212 7.83495 L16.5008 9.3527 L17.7805 10.8705 L19.0601 12.3882 L20.3397 13.906 L18.386 14.2553 L16.4323 14.6047 L14.4787 14.9541 L12.525 15.3034 L10.5713 15.6528 Z " />
<path stroke="rgb(200,255,200)" stroke-opacity="1" fill="rgb(200,255,200)" fill-opacity="1" id="tri_4_4_" d="M14.4134 5.49134 L13.7392 7.3589 L13.065 9.22647 L12.3908 11.094 L11.7165 12.9616 L11.0423 14.8292 L9.76251 13.3116 L8.48269 11.7941 L7.20287 10.2766 L5.92305 8.75907 L4.64323 7.24154 L6.59727 6.8915 L8.55131 6.54146 L10.5053 6.19142 L12.4594 5.84138 L14.4134 5.49134 Z " />
<path stroke="rgb(200,255,200)" stroke-opacity="1" fill="rgb(200,255,200)" fill-opacity="1" id="tri_6_5_" d="M20.5493 15.6358 L21.2229 13.7698 L21.8965 11.9038 L22.5701 10.0378 L23.2437 8.17182 L23.9173 6.30582 L25.1968 7.82195 L26.4763 9.33809 L27.7558 10.8542 L29.0353 12.3704 L30.3148 13.8865 L28.3617 14.2364 L26.4086 14.5862 L24.4555 14.9361 L22.5024 15.286 L20.5493 15.6358 Z " />
<path stroke="rgb(200,255,200)" stroke-opacity="1" fill="rgb(200,255,200)" fill-opacity="1" id="tri_5_4_" d="M24.388 5.47933 L23.7142 7.34579 L23.0404 9.21225 L22.3667 11.0787 L21.6929 12.9452 L21.0191 14.8116 L19.7395 13.2939 L18.4599 11.7761 L17.1802 10.2584 L15.9006 8.74064 L14.621 7.22288 L16.5744 6.87417 L18.5278 6.52546 L20.4812 6.17675 L22.4346 5.82804 L24.388 5.47933 Z " />
<path stroke="rgb(200,255,200)" stroke-opacity="1" fill="rgb(200,255,200)" fill-opacity="1" id="tri_7_4_" d="M30.5273 15.6157 L31.2007 13.7498 L31.874 11.8838 L32.5474 10.0179 L33.2208 8.15198 L33.8941 6.28605 L35.1725 7.80276 L36.4508 9.31948 L37.7291 10.8362 L39.0075 12.3529 L40.2858 13.8696 L38.3341 14.2188 L36.3824 14.5681 L34.4307 14.9173 L32.479 15.2665 L30.5273 15.6157 Z " />
<path stroke="rgb(200,255,200)" stroke-opacity="1" fill="rgb(200,255,200)" fill-opacity="1" id="tri_6_4_" d="M34.3634 5.45913 L33.6899 7.32553 L33.0163 9.19193 L32.3428 11.0583 L31.6693 12.9247 L30.9957 14.7911 L29.7162 13.275 L28.4367 11.7589 L27.1573 10.2427 L25.8778 8.72658 L24.5983 7.21045 L26.5513 6.86018 L28.5043 6.50992 L30.4574 6.15966 L32.4104 5.80939 L34.3634 5.45913 Z " />
<path stroke="rgb(200,255,200)" stroke-opacity="1" fill="rgb(200,255,200)" fill-opacity="1" id="tri_0_4_" d="M-44.2852 24.3927 L-43.6104 22.5237 L-42.9355 20.6546 L-42.2607 18.7856 L-41.5858 16.9165 L-40.911 15.0475 L-39.63 16.5662 L-38.3491 18.0849 L-37.0681 19.6036 L-35.7872 21.1223 L-34.5063 22.6409 L-36.4621 22.9913 L-38.4179 23.3417 L-40.3737 23.692 L-42.3295 24.0424 L-44.2852 24.3927 Z " />
<path stroke="rgb(200,255,200)" stroke-opacity="1" fill="rgb(200,255,200)" fill-opacity="1" id="tri_1_3_" d="M-34.3076 24.3729 L-33.6326 22.5046 L-32.9576 20.6363 L-32.2827 18.768 L-31.6077 16.8997 L-30.9327 15.0315 L-29.6528 16.55 L-28.3729 18.0685 L-27.0931 19.587 L-25.8132 21.1055 L-24.5333 22.624 L-26.4882 22.9738 L-28.443 23.3235 L-30.3979 23.6733 L-32.3527 24.0231 L-34.3076 24.3729 Z " />
<path stroke="rgb(200,255,200)" stroke-opacity="1" fill="rgb(200,255,200)" fill-opacity="1" id="tri_0_3_" d="M-30.4566 14.2081 L-31.1317 16.0768 L-31.8069 17.9455 L-32.482 19.8142 L-33.1571 21.6828 L-33.8323 23.5515 L-35.1132 22.0328 L-36.3941 20.5141 L-37.6751 18.9955 L-38.956 17.4768 L-40.2369 15.9581 L-38.2809 15.6081 L-36.3248 15.2581 L-34.3687 14.9081 L-32.4127 14.5581 L-30.4566 14.2081 Z " />
<path stroke="rgb(200,255,200)" stroke-opacity="1" fill="rgb(200,255,200)" fill-opacity="1" id="tri_2_3_" d="M-24.3327 24.3552 L-23.6582 22.4874 L-22.9838 20.6196 L-22.3094 18.7518 L-21.6349 16.884 L-20.9605 15.0162 L-19.6799 16.5342 L-18.3993 18.0522 L-17.1188 19.5701 L-15.8382 21.0881 L-14.5576 22.6061 L-16.5126 22.9559 L-18.4676 23.3057 L-20.4227 23.6556 L-22.3777 24.0054 L-24.3327 24.3552 Z " />
<path stroke="rgb(200,255,200)" stroke-opacity="1" fill="rgb(200,255,200)" fill-opacity="1" id="tri_1_2_" d="M-20.4855 14.1923 L-21.16 16.0605 L-21.8346 17.9287 L-22.5092 19.7969 L-23.1838 21.6651 L-23.8584 23.5333 L-25.1383 22.0148 L-26.4181 20.4963 L-27.698 18.9778 L-28.9779 17.4593 L-30.2578 15.9408 L-28.3033 15.5911 L-26.3488 15.2414 L-24.3944 14.8917 L-22.4399 14.542 L-20.4855 14.1923 Z " />
<path stroke="rgb(200,255,200)" stroke-opacity="1" fill="rgb(200,255,200)" fill-opacity="1" id="tri_3_3_" d="M-14.3546 24.3373 L-13.6805 22.4691 L-13.0064 20.6009 L-12.3322 18.7328 L-11.6581 16.8646 L-10.9839 14.9965 L-9.70382 16.5154 L-8.42372 18.0343 L-7.14363 19.5531 L-5.86353 21.072 L-4.58343 22.5909 L-6.53767 22.9402 L-8.49192 23.2895 L-10.4462 23.6387 L-12.4004 23.988 L-14.3546 24.3373 Z " />
<path stroke="rgb(200,255,200)" stroke-opacity="1" fill="rgb(200,255,200)" fill-opacity="1" id="tri_2_2_" d="M-10.5098 14.1718 L-11.1841 16.0404 L-11.8584 17.909 L-12.5327 19.7776 L-13.207 21.6462 L-13.8813 23.5147 L-15.1619 21.9968 L-16.4425 20.4788 L-17.723 18.9608 L-19.0036 17.4428 L-20.2842 15.9248 L-18.3293 15.5742 L-16.3744 15.2236 L-14.4196 14.873 L-12.4647 14.5224 L-10.5098 14.1718 Z " />
<path stroke="rgb(200,255,200)" stroke-opacity="1" fill="rgb(200,255,200)" fill-opacity="1" id="tri_4_3_" d="M-4.37845 24.3217 L-3.704 22.4542 L-3.02955 20.5868 L-2.3551 18.7194 L-1.68065 16.852 L-1.0062 14.9846 L0.273323 16.5016 L1.55284 18.0186 L2.83236 19.5356 L4.11188 21.0525 L5.39141 22.5695 L3.43743 22.9199 L1.48346 23.2704 L-0.470505 23.6208 L-2.42447 23.9712 L-4.37845 24.3217 Z " />
<path stroke="rgb(200,255,200)" stroke-opacity="1" fill="rgb(200,255,200)" fill-opacity="1" id="tri_3_2_" d="M-0.533243 14.1594 L-1.20785 16.0273 L-1.88246 17.8951 L-2.55706 19.763 L-3.23167 21.6308 L-3.90628 23.4986 L-5.18637 21.9797 L-6.46647 20.4608 L-7.74656 18.942 L-9.02666 17.4231 L-10.3068 15.9042 L-8.35205 15.5552 L-6.39735 15.2063 L-4.44265 14.8573 L-2.48795 14.5084 L-0.533243 14.1594 Z " />
<path stroke="rgb(200,255,200)" stroke-opacity="1" fill="rgb(200,255,200)" fill-opacity="1" id="tri_5_3_" d="M5.599 24.2996 L6.27281 22.4333 L6.94662 20.567 L7.62042 18.7008 L8.29423 16.8345 L8.96803 14.9682 L10.2474 16.4854 L11.5267 18.0026 L12.806 19.5198 L14.0853 21.037 L15.3646 22.5542 L13.4115 22.9033 L11.4584 23.2524 L9.50526 23.6014 L7.55213 23.9505 L5.599 24.2996 Z " />
<path stroke="rgb(200,255,200)" stroke-opacity="1" fill="rgb(200,255,200)" fill-opacity="1" id="tri_4_2_" d="M9.43973 14.1426 L8.76576 16.0093 L8.0918 17.876 L7.41783 19.7427 L6.74387 21.6094 L6.0699 23.4761 L4.79038 21.9592 L3.51086 20.4422 L2.23134 18.9252 L0.951817 17.4083 L-0.327704 15.8913 L1.62578 15.5415 L3.57927 15.1918 L5.53276 14.8421 L7.48624 14.4923 L9.43973 14.1426 Z " />
<path stroke="rgb(200,255,200)" stroke-opacity="1" fill="rgb(200,255,200)" fill-opacity="1" id="tri_6_3_" d="M15.5743 24.284 L16.2485 22.4179 L16.9227 20.5518 L17.5968 18.6857 L18.271 16.8196 L18.9452 14.9535 L20.2242 16.4699 L21.5031 17.9863 L22.7821 19.5028 L24.061 21.0192 L25.3399 22.5356 L23.3868 22.8853 L21.4337 23.235 L19.4805 23.5847 L17.5274 23.9343 L15.5743 24.284 Z " />
<path stroke="rgb(200,255,200)" stroke-opacity="1" fill="rgb(200,255,200)" fill-opacity="1" id="tri_5_2_" d="M19.4158 14.1271 L18.7414 15.9936 L18.0671 17.8602 L17.3927 19.7268 L16.7183 21.5933 L16.044 23.4599 L14.7647 21.9427 L13.4853 20.4255 L12.206 18.9083 L10.9267 17.3911 L9.64737 15.8739 L11.6011 15.5245 L13.5547 15.1752 L15.5084 14.8258 L17.4621 14.4764 L19.4158 14.1271 Z " />
<path stroke="rgb(200,255,200)" stroke-opacity="1" fill="rgb(200,255,200)" fill-opacity="1" id="tri_7_3_" d="M25.5523 24.265 L26.2263 22.3991 L26.9003 20.5333 L27.5743 18.6675 L28.2483 16.8016 L28.9223 14.9358 L30.2004 16.4521 L31.4784 17.9685 L32.7565 19.4849 L34.0345 21.0012 L35.3126 22.5176 L33.3606 22.8671 L31.4085 23.2165 L29.4564 23.566 L27.5044 23.9155 L25.5523 24.265 Z " />
<path stroke="rgb(200,255,200)" stroke-opacity="1" fill="rgb(200,255,200)" fill-opacity="1" id="tri_6_2_" d="M29.3916 14.1089 L28.7174 15.9753 L28.0432 17.8416 L27.3691 19.7079 L26.6949 21.5742 L26.0208 23.4405 L24.7418 21.924 L23.4629 20.4076 L22.1839 18.8912 L20.905 17.3747 L19.6261 15.8583 L21.5792 15.5084 L23.5323 15.1586 L25.4854 14.8087 L27.4385 14.4588 L29.3916 14.1089 Z " />
<path stroke="rgb(200,255,200)" stroke-opacity="1" fill="rgb(200,255,200)" fill-opacity="1" id="tri_8_2_" d="M35.5272 24.2462 L36.2007 22.3811 L36.8741 20.516 L37.5476 18.6509 L38.2211 16.7858 L38.8945 14.9207 L40.1733 16.4367 L41.452 17.9527 L42.7308 19.4687 L44.0095 20.9846 L45.2883 22.5006 L43.3361 22.8497 L41.3839 23.1989 L39.4316 23.548 L37.4794 23.8971 L35.5272 24.2462 Z " />
<path stroke="rgb(200,255,200)" stroke-opacity="1" fill="rgb(200,255,200)" fill-opacity="1" id="tri_7_2_" d="M39.3627 14.0932 L38.6891 15.9587 L38.0155 17.8243 L37.3418 19.6899 L36.6682 21.5555 L35.9946 23.4211 L34.7165 21.9047 L33.4384 20.3883 L32.1604 18.872 L30.8823 17.3556 L29.6042 15.8393 L31.5559 15.49 L33.5076 15.1408 L35.4593 14.7916 L37.411 14.4424 L39.3627 14.0932 Z " />
<path stroke="rgb(200,255,200)" stroke-opacity="1" fill="rgb(200,255,200)" fill-opacity="1" id="tri_0_2_" d="M-49.2575 33.0406 L-48.5829 31.1721 L-47.9084 29.3035 L-47.2339 27.4349 L-46.5593 25.5663 L-45.8848 23.6977 L-44.6035 25.2163 L-43.3221 26.735 L-42.0408 28.2536 L-40.7595 29.7722 L-39.4782 31.2908 L-41.434 31.6408 L-43.3899 31.9908 L-45.3458 32.3407 L-47.3016 32.6907 L-49.2575 33.0406 Z " />
<path stroke="rgb(200,255,200)" stroke-opacity="1" fill="rgb(200,255,200)" fill-opacity="1" id="tri_1_1_" d="M-39.2794 33.0228 L-38.6051 31.1542 L-37.9307 29.2857 L-37.2564 27.4171 L-36.5821 25.5485 L-35.9078 23.6799 L-34.6269 25.1983 L-33.3461 26.7166 L-32.0652 28.2349 L-30.7843 29.7533 L-29.5035 31.2716 L-31.4587 31.6218 L-33.4138 31.9721 L-35.369 32.3223 L-37.3242 32.6726 L-39.2794 33.0228 Z " />
<path stroke="rgb(200,255,200)" stroke-opacity="1" fill="rgb(200,255,200)" fill-opacity="1" id="tri_0_1_" d="M-35.4318 22.8563 L-36.1063 24.7253 L-36.7808 26.5943 L-37.4552 28.4633 L-38.1297 30.3322 L-38.8042 32.2012 L-40.0855 30.6826 L-41.3668 29.164 L-42.6481 27.6454 L-43.9295 26.1267 L-45.2108 24.6081 L-43.255 24.2578 L-41.2992 23.9074 L-39.3434 23.557 L-37.3876 23.2067 L-35.4318 22.8563 Z " />
<path stroke="rgb(200,255,200)" stroke-opacity="1" fill="rgb(200,255,200)" fill-opacity="1" id="tri_2_1_" d="M-29.3029 33.003 L-28.629 31.1353 L-27.9552 29.2676 L-27.2813 27.3999 L-26.6075 25.5322 L-25.9336 23.6645 L-24.6525 25.183 L-23.3715 26.7015 L-22.0904 28.22 L-20.8093 29.7385 L-19.5283 31.257 L-21.4832 31.6062 L-23.4381 31.9554 L-25.393 32.3046 L-27.3479 32.6538 L-29.3029 33.003 Z " />
<path stroke="rgb(200,255,200)" stroke-opacity="1" fill="rgb(200,255,200)" fill-opacity="1" id="tri_1" d="M-25.4585 22.8403 L-26.1325 24.7084 L-26.8065 26.5765 L-27.4805 28.4447 L-28.1544 30.3128 L-28.8284 32.1809 L-30.1093 30.6626 L-31.3902 29.1442 L-32.671 27.6259 L-33.9519 26.1076 L-35.2327 24.5892 L-33.2779 24.2395 L-31.323 23.8897 L-29.3682 23.5399 L-27.4133 23.1901 L-25.4585 22.8403 Z " />
<path stroke="rgb(200,255,200)" stroke-opacity="1" fill="rgb(200,255,200)" fill-opacity="1" id="tri_3_1_" d="M-19.3256 32.9881 L-18.6518 31.1202 L-17.978 29.2523 L-17.3042 27.3844 L-16.6304 25.5165 L-15.9566 23.6486 L-14.6765 25.1667 L-13.3963 26.6848 L-12.1162 28.2028 L-10.836 29.7209 L-9.55584 31.239 L-11.5098 31.5888 L-13.4637 31.9386 L-15.4177 32.2885 L-17.3716 32.6383 L-19.3256 32.9881 Z " />
<path stroke="rgb(200,255,200)" stroke-opacity="1" fill="rgb(200,255,200)" fill-opacity="1" id="tri_2" d="M-15.4826 22.8239 L-16.1565 24.6922 L-16.8304 26.5605 L-17.5044 28.4289 L-18.1783 30.2972 L-18.8523 32.1655 L-20.1333 30.647 L-21.4144 29.1285 L-22.6955 27.61 L-23.9765 26.0915 L-25.2576 24.5729 L-23.3026 24.2231 L-21.3476 23.8733 L-19.3926 23.5235 L-17.4376 23.1737 L-15.4826 22.8239 Z " />
<path stroke="rgb(200,255,200)" stroke-opacity="1" fill="rgb(200,255,200)" fill-opacity="1" id="tri_4_1_" d="M-9.35069 32.9694 L-8.67676 31.1025 L-8.00283 29.2356 L-7.3289 27.3687 L-6.65497 25.5018 L-5.98104 23.6349 L-4.70132 25.1518 L-3.42161 26.6687 L-2.14189 28.1857 L-0.862171 29.7026 L0.417545 31.2196 L-1.5361 31.5695 L-3.48975 31.9195 L-5.4434 32.2695 L-7.39705 32.6194 L-9.35069 32.9694 Z " />
<path stroke="rgb(200,255,200)" stroke-opacity="1" fill="rgb(200,255,200)" fill-opacity="1" id="tri_3" d="M-5.50821 22.8097 L-6.1823 24.6771 L-6.85639 26.5444 L-7.53047 28.4117 L-8.20456 30.2791 L-8.87865 32.1464 L-10.1588 30.6283 L-11.439 29.1103 L-12.7191 27.5922 L-13.9993 26.0741 L-15.2794 24.556 L-13.3252 24.2068 L-11.3709 23.8575 L-9.41669 23.5082 L-7.46245 23.159 L-5.50821 22.8097 Z " />
<path stroke="rgb(200,255,200)" stroke-opacity="1" fill="rgb(200,255,200)" fill-opacity="1" id="tri_5_1_" d="M0.625248 32.9497 L1.29934 31.0828 L1.97343 29.2159 L2.64753 27.349 L3.32162 25.4821 L3.99571 23.6151 L5.2751 25.1327 L6.55449 26.6503 L7.83389 28.1679 L9.11328 29.6855 L10.3927 31.2031 L8.43918 31.5524 L6.4857 31.9017 L4.53222 32.2511 L2.57873 32.6004 L0.625248 32.9497 Z " />
<path stroke="rgb(200,255,200)" stroke-opacity="1" fill="rgb(200,255,200)" fill-opacity="1" id="tri_4" d="M4.46737 22.7893 L3.79312 24.6567 L3.11887 26.5241 L2.44461 28.3915 L1.77036 30.2588 L1.0961 32.1262 L-0.183611 30.6093 L-1.46333 29.0923 L-2.74305 27.5754 L-4.02276 26.0584 L-5.30248 24.5415 L-3.34851 24.1911 L-1.39454 23.8406 L0.559432 23.4902 L2.5134 23.1398 L4.46737 22.7893 Z " />
<path stroke="rgb(200,255,200)" stroke-opacity="1" fill="rgb(200,255,200)" fill-opacity="1" id="tri_6_1_" d="M10.6023 32.9329 L11.2759 31.0667 L11.9495 29.2005 L12.623 27.3343 L13.2966 25.4681 L13.9702 23.6019 L15.2499 25.1184 L16.5297 26.6349 L17.8094 28.1514 L19.0892 29.6679 L20.3689 31.1843 L18.4156 31.5341 L16.4623 31.8838 L14.509 32.2335 L12.5556 32.5832 L10.6023 32.9329 Z " />
<path stroke="rgb(200,255,200)" stroke-opacity="1" fill="rgb(200,255,200)" fill-opacity="1" id="tri_5" d="M14.4408 22.7754 L13.7671 24.6421 L13.0933 26.5087 L12.4196 28.3754 L11.7459 30.242 L11.0721 32.1087 L9.79274 30.5911 L8.51335 29.0735 L7.23396 27.5559 L5.95457 26.0383 L4.67518 24.5207 L6.6283 24.1717 L8.58143 23.8226 L10.5346 23.4735 L12.4877 23.1245 L14.4408 22.7754 Z " />
<path stroke="rgb(200,255,200)" stroke-opacity="1" fill="rgb(200,255,200)" fill-opacity="1" id="tri_7_1_" d="M20.5812 32.9137 L21.2544 31.048 L21.9276 29.1823 L22.6008 27.3166 L23.274 25.4509 L23.9472 23.5852 L25.2259 25.1019 L26.5047 26.6185 L27.7834 28.1351 L29.0621 29.6518 L30.3408 31.1684 L28.3889 31.5175 L26.437 31.8666 L24.485 32.2156 L22.5331 32.5647 L20.5812 32.9137 Z " />
<path stroke="rgb(200,255,200)" stroke-opacity="1" fill="rgb(200,255,200)" fill-opacity="1" id="tri_6" d="M24.4166 22.7582 L23.7433 24.6243 L23.0699 26.4905 L22.3965 28.3567 L21.7231 30.2228 L21.0498 32.089 L19.77 30.5725 L18.4902 29.056 L17.2105 27.5395 L15.9307 26.023 L14.651 24.5065 L16.6041 24.1569 L18.5572 23.8072 L20.5104 23.4575 L22.4635 23.1078 L24.4166 22.7582 Z " />
<path stroke="rgb(200,255,200)" stroke-opacity="1" fill="rgb(200,255,200)" fill-opacity="1" id="tri_8_1_" d="M30.5555 32.8971 L31.2286 31.0314 L31.9018 29.1658 L32.575 27.3001 L33.2481 25.4345 L33.9213 23.5688 L35.2003 25.085 L36.4793 26.6011 L37.7582 28.1173 L39.0372 29.6334 L40.3162 31.1496 L38.3641 31.4991 L36.4119 31.8486 L34.4598 32.1981 L32.5076 32.5476 L30.5555 32.8971 Z " />
<path stroke="rgb(200,255,200)" stroke-opacity="1" fill="rgb(200,255,200)" fill-opacity="1" id="tri_7" d="M34.3895 22.7411 L33.7162 24.6073 L33.0428 26.4734 L32.3695 28.3395 L31.6962 30.2057 L31.0228 32.0718 L29.7441 30.5551 L28.4654 29.0385 L27.1867 27.5219 L25.9079 26.0052 L24.6292 24.4886 L26.5813 24.1391 L28.5333 23.7896 L30.4854 23.4401 L32.4375 23.0906 L34.3895 22.7411 Z " />
<path stroke="rgb(200,255,200)" stroke-opacity="1" fill="rgb(200,255,200)" fill-opacity="1" id="tri_9" d="M40.5335 32.8781 L41.2065 31.0133 L41.8796 29.1485 L42.5527 27.2838 L43.2257 25.419 L43.8988 23.5542 L45.1769 25.0694 L46.4551 26.5847 L47.7332 28.0999 L49.0114 29.6152 L50.2895 31.1304 L48.3383 31.48 L46.3871 31.8295 L44.4359 32.179 L42.4847 32.5286 L40.5335 32.8781 Z " />
<path stroke="rgb(200,255,200)" stroke-opacity="1" fill="rgb(200,255,200)" fill-opacity="1" id="tri_8" d="M44.3657 22.7258 L43.6924 24.5911 L43.0192 26.4564 L42.346 28.3216 L41.6727 30.1869 L40.9995 32.0521 L39.7205 30.536 L38.4415 29.0198 L37.1626 27.5037 L35.8836 25.9875 L34.6046 24.4714 L36.5568 24.1223 L38.509 23.7732 L40.4612 23.4241 L42.4135 23.0749 L44.3657 22.7258 Z " />
</g>
</g>
</svg>
