<!DOCTYPE svg>
<svg xmlns="http://www.w3.org/2000/svg" xmlns:xlink="http://www.w3.org/1999/xlink" width="600" height="600">
<g transform="translate(300.000000,300.000000)">
<g transform="scale(3.000000,3.000000)">
<path stroke="rgb(0,0,0)" stroke-opacity="1" fill="rgb(255,255,255)" fill-opacity="1" id="Layer_1" d="M107.411 107.089 L105.406 107.092 L103.402 107.095 L101.397 107.098 L99.3922 107.101 L97.3875 107.104 L95.3828 107.107 L93.3782 107.11 L91.3735 107.113 L89.3688 107.116 L87.3641 107.119 L85.3595 107.122 L83.3548 107.125 L81.3501 107.128 L79.3455 107.131 L77.3408 107.134 L75.3361 107.137 L73.3314 107.14 L71.3268 107.143 L69.3221 107.146 L67.3174 107.149 L65.3127 107.152 L63.3081 107.155 L61.3034 107.158 L59.2987 107.161 L57.2941 107.164 L55.2894 107.167 L53.2847 107.17 L51.28 107.173 L49.2754 107.176 L47.2707 107.179 L45.266 107.182 L43.2613 107.185 L41.2567 107.188 L39.252 107.191 L37.2473 107.194 L35.2426 107.197 L33.238 107.2 L31.2333 107.203 L29.2286 107.206 L27.224 107.209 L25.2193 107.212 L23.2146 107.215 L21.2099 107.218 L19.2053 107.221 L17.2006 107.224 L15.1959 107.227 L13.1912 107.23 L11.1866 107.233 L9.1819 107.236 L7.17723 107.239 L5.17256 107.242 L3.16788 107.245 L1.16321 107.248 L-0.841463 107.252 L-2.84614 107.255 L-4.85081 107.258 L-6.85548 107.261 L-8.86015 107.264 L-10.8648 107.267 L-12.8695 107.27 L-14.8742 107.273 L-16.8788 107.276 L-18.8835 107.279 L-20.8882 107.282 L-22.8929 107.285 L-24.8975 107.288 L-26.9022 107.291 L-28.9069 107.294 L-30.9116 107.297 L-32.9162 107.3 L-34.9209 107.303 L-36.9256 107.306 L-38.9302 107.309 L-40.9349 107.312 L-42.9396 107.315 L-44.9443 107.318 L-46.9489 107.321 L-48.9536 107.324 L-50.9583 107.327 L-52.963 107.33 L-54.9676 107.333 L-56.9723 107.336 L-58.977 107.339 L-60.9816 107.342 L-62.9863 107.345 L-64.991 107.348 L-66.9957 107.351 L-69.0003 107.354 L-71.005 107.357 L-73.0097 107.36 L-75.0144 107.363 L-77.019 107.366 L-79.0237 107.369 L-81.0284 107.372 L-83.0331 107.375 L-85.0377 107.378 L-87.0424 107.381 L-89.0471 107.384 L-91.0517 107.387 L-93.0564 107.39 L-95.0611 107.393 L-97.0658 107.396 L-99.0704 107.399 L-101.075 107.402 L-103.08 107.405 L-105.084 107.408 L-107.089 107.411 L-107.092 105.406 L-107.095 103.402 L-107.098 101.397 L-107.101 99.3922 L-107.104 97.3875 L-107.107 95.3828 L-107.11 93.3782 L-107.113 91.3735 L-107.116 89.3688 L-107.119 87.3641 L-107.122 85.3595 L-107.125 83.3548 L-107.128 81.3501 L-107.131 79.3455 L-107.134 77.3408 L-107.137 75.3361 L-107.14 73.3314 L-107.143 71.3268 L-107.146 69.3221 L-107.149 67.3174 L-107.152 65.3127 L-107.155 63.3081 L-107.158 61.3034 L-107.161 59.2987 L-107.164 57.2941 L-107.167 55.2894 L-107.17 53.2847 L-107.173 51.28 L-107.176 49.2754 L-107.179 47.2707 L-107.182 45.266 L-107.185 43.2613 L-107.188 41.2567 L-107.191 39.252 L-107.194 37.2473 L-107.197 35.2426 L-107.2 33.238 L-107.203 31.2333 L-107.206 29.2286 L-107.209 27.224 L-107.212 25.2193 L-107.215 23.2146 L-107.218 21.2099 L-107.221 19.2053 L-107.224 17.2006 L-107.227 15.1959 L-107.23 13.1912 L-107.233 11.1866 L-107.236 9.1819 L-107.239 7.17722 L-107.242 5.17255 L-107.245 3.16788 L-107.248 1.1632 L-107.251 -0.841469 L-107.255 -2.84614 L-107.258 -4.85081 L-107.261 -6.85549 L-107.264 -8.86016 L-107.267 -10.8648 L-107.27 -12.8695 L-107.273 -14.8742 L-107.276 -16.8789 L-107.279 -18.8835 L-107.282 -20.8882 L-107.285 -22.8929 L-107.288 -24.8975 L-107.291 -26.9022 L-107.294 -28.9069 L-107.297 -30.9116 L-107.3 -32.9162 L-107.303 -34.9209 L-107.306 -36.9256 L-107.309 -38.9303 L-107.312 -40.9349 L-107.315 -42.9396 L-107.318 -44.9443 L-107.321 -46.9489 L-107.324 -48.9536 L-107.327 -50.9583 L-107.33 -52.963 L-107.333 -54.9676 L-107.336 -56.9723 L-107.339 -58.977 L-107.342 -60.9817 L-107.345 -62.9863 L-107.348 -64.991 L-107.351 -66.9957 L-107.354 -69.0003 L-107.357 -71.005 L-107.36 -73.0097 L-107.363 -75.0144 L-107.366 -77.019 L-107.369 -79.0237 L-107.372 -81.0284 L-107.375 -83.0331 L-107.378 -85.0377 L-107.381 -87.0424 L-107.384 -89.0471 L-107.387 -91.0518 L-107.39 -93.0564 L-107.393 -95.0611 L-107.396 -97.0658 L-107.399 -99.0704 L-107.402 -101.075 L-107.405 -103.08 L-107.408 -105.084 L-107.411 -107.089 L-105.406 -107.092 L-103.402 -107.095 L-101.397 -107.098 L-99.3922 -107.101 L-97.3875 -107.104 L-95.3828 -107.107 L-93.3782 -107.11 L-91.3735 -107.113 L-89.3688 -107.116 L-87.3641 -107.119 L-85.3595 -107.122 L-83.3548 -107.125 L-81.3501 -107.128 L-79.3455 -107.131 L-77.3408 -107.134 L-75.3361 -107.137 L-73.3314 -107.14 L-71.3268 -107.143 L-69.3221 -107.146 L-67.3174 -107.149 L-65.3127 -107.152 L-63.3081 -107.155 L-61.3034 -107.158 L-59.2987 -107.161 L-57.2941 -107.164 L-55.2894 -107.167 L-53.2847 -107.17 L-51.28 -107.173 L-49.2754 -107.176 L-47.2707 -107.179 L-45.266 -107.182 L-43.2613 -107.185 L-41.2567 -107.188 L-39.252 -107.191 L-37.2473 -107.194 L-35.2426 -107.197 L-33.238 -107.2 L-31.2333 -107.203 L-29.2286 -107.206 L-27.224 -107.209 L-25.2193 -107.212 L-23.2146 -107.215 L-21.2099 -107.218 L-19.2053 -107.221 L-17.2006 -107.224 L-15.1959 -107.227 L-13.1912 -107.23 L-11.1866 -107.233 L-9.1819 -107.236 L-7.17723 -107.239 L-5.17256 -107.242 L-3.16788 -107.245 L-1.16321 -107.248 L0.841463 -107.252 L2.84614 -107.255 L4.85081 -107.258 L6.85548 -107.261 L8.86015 -107.264 L10.8648 -107.267 L12.8695 -107.27 L14.8742 -107.273 L16.8788 -107.276 L18.8835 -107.279 L20.8882 -107.282 L22.8929 -107.285 L24.8975 -107.288 L26.9022 -107.291 L28.9069 -107.294 L30.9116 -107.297 L32.9162 -107.3 L34.9209 -107.303 L36.9256 -107.306 L38.9302 -107.309 L40.9349 -107.312 L42.9396 -107.315 L44.9443 -107.318 L46.9489 -107.321 L48.9536 -107.324 L50.9583 -107.327 L52.963 -107.33 L54.9676 -107.333 L56.9723 -107.336 L58.977 -107.339 L60.9816 -107.342 L62.9863 -107.345 L64.991 -107.348 L66.9957 -107.351 L69.0003 -107.354 L71.005 -107.357 L73.0097 -107.36 L75.0144 -107.363 L77.019 -107.366 L79.0237 -107.369 L81.0284 -107.372 L83.0331 -107.375 L85.0377 -107.378 L87.0424 -107.381 L89.0471 -107.384 L91.0517 -107.387 L93.0564 -107.39 L95.0611 -107.393 L97.0658 -107.396 L99.0704 -107.399 L101.075 -107.402 L103.08 -107.405 L105.084 -107.408 L107.089 -107.411 L107.092 -105.406 L107.095 -103.402 L107.098 -101.397 L107.101 -99.3922 L107.104 -97.3875 L107.107 -95.3828 L107.11 -93.3782 L107.113 -91.3735 L107.116 -89.3688 L107.119 -87.3642 L107.122 -85.3595 L107.125 -83.3548 L107.128 -81.3501 L107.131 -79.3455 L107.134 -77.3408 L107.137 -75.3361 L107.14 -73.3314 L107.143 -71.3268 L107.146 -69.3221 L107.149 -67.3174 L107.152 -65.3128 L107.155 -63.3081 L107.158 -61.3034 L107.161 -59.2987 L107.164 -57.2941 L107.167 -55.2894 L107.17 -53.2847 L107.173 -51.28 L107.176 -49.2754 L107.179 -47.2707 L107.182 -45.266 L107.185 -43.2613 L107.188 -41.2567 L107.191 -39.252 L107.194 -37.2473 L107.197 -35.2427 L107.2 -33.238 L107.203 -31.2333 L107.206 -29.2286 L107.209 -27.224 L107.212 -25.2193 L107.215 -23.2146 L107.218 -21.2099 L107.221 -19.2053 L107.224 -17.2006 L107.227 -15.1959 L107.23 -13.1913 L107.233 -11.1866 L107.236 -9.18191 L107.239 -7.17724 L107.242 -5.17256 L107.245 -3.16789 L107.248 -1.16322 L107.251 0.841455 L107.255 2.84613 L107.258 4.8508 L107.261 6.85547 L107.264 8.86015 L107.267 10.8648 L107.27 12.8695 L107.273 14.8742 L107.276 16.8788 L107.279 18.8835 L107.282 20.8882 L107.285 22.8929 L107.288 24.8975 L107.291 26.9022 L107.294 28.9069 L107.297 30.9115 L107.3 32.9162 L107.303 34.9209 L107.306 36.9256 L107.309 38.9302 L107.312 40.9349 L107.315 42.9396 L107.318 44.9443 L107.321 46.9489 L107.324 48.9536 L107.327 50.9583 L107.33 52.963 L107.333 54.9676 L107.336 56.9723 L107.339 58.977 L107.342 60.9816 L107.345 62.9863 L107.348 64.991 L107.351 66.9957 L107.354 69.0003 L107.357 71.005 L107.36 73.0097 L107.363 75.0144 L107.366 77.019 L107.369 79.0237 L107.372 81.0284 L107.375 83.033 L107.378 85.0377 L107.381 87.0424 L107.384 89.0471 L107.387 91.0517 L107.39 93.0564 L107.393 95.0611 L107.396 97.0658 L107.399 99.0704 L107.402 101.075 L107.405 103.08 L107.408 105.084 L107.411 107.089 Z " />
<path stroke="rgb(169,255,187)" stroke-opacity="1" fill="rgb(169,255,187)" fill-opacity="1" id="scalebar" d="M-3.69904 -94.609 L-1.65554 -94.609 L0.387962 -94.609 L2.43146 -94.609 L4.47496 -94.609 L4.47496 -92.6686 L4.47496 -90.7281 L4.47496 -88.7876 L4.47496 -86.8472 L4.47496 -84.9067 L4.47496 -82.9663 L4.47496 -81.0258 L4.47496 -79.0853 L4.47496 -77.1449 L4.47496 -75.2044 L4.47496 -73.2639 L4.47496 -71.3235 L4.47496 -69.383 L2.43146 -69.383 L0.387962 -69.383 L-1.65554 -69.383 L-3.69904 -69.383 L-3.69904 -71.3235 L-3.69904 -73.2639 L-3.69904 -75.2044 L-3.69904 -77.1449 L-3.69904 -79.0853 L-3.69904 -81.0258 L-3.69904 -82.9663 L-3.69904 -84.9067 L-3.69904 -86.8472 L-3.69904 -88.7876 L-3.69904 -90.7281 L-3.69904 -92.6686 L-3.69904 -94.609 Z " />
<path stroke="rgb(200,255,200)" stroke-opacity="1" fill="rgb(200,255,200)" fill-opacity="1" id="scaleslider" d="M-6.69904 -84.587 L-4.67418 -84.587 L-2.64932 -84.587 L-0.624466 -84.587 L1.40039 -84.587 L3.42525 -84.587 L5.4501 -84.587 L7.47496 -84.587 L7.47496 -82.8604 L7.47496 -81.1337 L7.47496 -79.407 L5.4501 -79.407 L3.42525 -79.407 L1.40039 -79.407 L-0.624466 -79.407 L-2.64932 -79.407 L-4.67418 -79.407 L-6.69904 -79.407 L-6.69904 -81.1337 L-6.69904 -82.8604 L-6.69904 -84.587 Z " />
<path stroke="rgb(255,134,106)" stroke-opacity="1" fill="rgb(255,134,106)" fill-opacity="1" id="tranbar" d="M-49.142 -86.146 L-47.0675 -86.146 L-44.993 -86.146 L-42.9185 -86.146 L-40.844 -86.146 L-40.844 -88.2208 L-40.844 -90.2955 L-40.844 -92.3703 L-40.844 -94.445 L-38.7685 -94.445 L-36.693 -94.445 L-34.6175 -94.445 L-32.542 -94.445 L-32.542 -92.3703 L-32.542 -90.2955 L-32.542 -88.2208 L-32.542 -86.146 L-30.4673 -86.146 L-28.3925 -86.146 L-26.3178 -86.146 L-24.243 -86.146 L-24.243 -84.0715 L-24.243 -81.997 L-24.243 -79.9225 L-24.243 -77.848 L-26.3178 -77.848 L-28.3925 -77.848 L-30.4673 -77.848 L-32.542 -77.848 L-32.542 -75.773 L-32.542 -73.698 L-32.542 -71.623 L-32.542 -69.548 L-34.6175 -69.548 L-36.693 -69.548 L-38.7685 -69.548 L-40.844 -69.548 L-40.844 -71.623 L-40.844 -73.698 L-40.844 -75.773 L-40.844 -77.848 L-42.9185 -77.848 L-44.993 -77.848 L-47.0675 -77.848 L-49.142 -77.848 L-49.142 -79.9225 L-49.142 -81.997 L-49.142 -84.0715 L-49.142 -86.146 Z " />
<path stroke="rgb(255,250,159)" stroke-opacity="1" fill="rgb(255,250,159)" fill-opacity="1" id="translider" d="M-32.5348 -84.553 L-30.8314 -84.553 L-29.1281 -84.553 L-27.4248 -84.553 L-27.4248 -82.85 L-27.4248 -81.147 L-27.4248 -79.444 L-29.1281 -79.444 L-30.8314 -79.444 L-32.5348 -79.444 L-32.5348 -81.147 L-32.5348 -82.85 L-32.5348 -84.553 Z " />
<path stroke="rgb(254,204,128)" stroke-opacity="1" fill="rgb(254,204,128)" fill-opacity="1" id="rotate" d="M32.632 -73.62 L31.6646 -75.2952 L30.6972 -76.9704 L29.7298 -78.6456 L28.7624 -80.3208 L27.795 -81.996 L28.7624 -83.6714 L29.7298 -85.3468 L30.6972 -87.0222 L31.6646 -88.6976 L32.632 -90.373 L34.5668 -90.373 L36.5016 -90.373 L38.4364 -90.373 L40.3712 -90.373 L42.306 -90.373 L43.2734 -88.6976 L44.2408 -87.0222 L45.2082 -85.3468 L46.1756 -83.6714 L47.143 -81.996 L46.1756 -80.3208 L45.2082 -78.6456 L44.2408 -76.9704 L43.2734 -75.2952 L42.306 -73.62 L40.3712 -73.62 L38.4364 -73.62 L36.5016 -73.62 L34.5668 -73.62 L32.632 -73.62 Z " />
<path stroke="rgb(200,255,200)" stroke-opacity="1" fill="rgb(200,255,200)" fill-opacity="1" id="tri_0" d="M1.64924 -45.56 L2.64424 -47.2894 L3.63924 -49.0188 L4.63424 -50.7482 L5.62924 -52.4776 L6.62425 -54.207 L7.62465 -52.4812 L8.62505 -50.7554 L9.62544 -49.0296 L10.6258 -47.3038 L11.6262 -45.578 L9.63084 -45.5744 L7.63544 -45.5708 L5.64004 -45.5672 L3.64464 -45.5636 L1.64924 -45.56 Z " />
<path stroke="rgb(200,255,200)" stroke-opacity="1" fill="rgb(200,255,200)" fill-opacity="1" id="tri_0_18_" d="M-3.32075 -36.913 L-2.32676 -38.6424 L-1.33276 -40.3718 L-0.338758 -42.1012 L0.655241 -43.8306 L1.64924 -45.56 L2.65004 -43.834 L3.65084 -42.108 L4.65164 -40.382 L5.65244 -38.656 L6.65324 -36.93 L4.65844 -36.9266 L2.66364 -36.9232 L0.668846 -36.9198 L-1.32595 -36.9164 L-3.32075 -36.913 Z " />
<path stroke="rgb(200,255,200)" stroke-opacity="1" fill="rgb(200,255,200)" fill-opacity="1" id="tri_1_16_" d="M6.65324 -36.93 L7.64785 -38.6596 L8.64244 -40.3892 L9.63704 -42.1188 L10.6316 -43.8484 L11.6262 -45.578 L12.6268 -43.8518 L13.6274 -42.1256 L14.628 -40.3994 L15.6286 -38.6732 L16.6292 -36.947 L14.634 -36.9436 L12.6388 -36.9402 L10.6436 -36.9368 L8.64844 -36.9334 L6.65324 -36.93 Z " />
<path stroke="rgb(200,255,200)" stroke-opacity="1" fill="rgb(200,255,200)" fill-opacity="1" id="tri_0_17_" d="M11.6262 -45.578 L10.6316 -43.8484 L9.63704 -42.1188 L8.64244 -40.3892 L7.64785 -38.6596 L6.65324 -36.93 L5.65244 -38.656 L4.65164 -40.382 L3.65084 -42.108 L2.65004 -43.834 L1.64924 -45.56 L3.64464 -45.5636 L5.64004 -45.5672 L7.63544 -45.5708 L9.63084 -45.5744 L11.6262 -45.578 Z " />
<path stroke="rgb(200,255,200)" stroke-opacity="1" fill="rgb(200,255,200)" fill-opacity="1" id="tri_0_16_" d="M-8.29476 -28.263 L-7.29996 -29.993 L-6.30516 -31.723 L-5.31036 -33.453 L-4.31556 -35.183 L-3.32075 -36.913 L-2.32016 -35.1862 L-1.31956 -33.4594 L-0.318955 -31.7326 L0.681645 -30.0058 L1.68224 -28.279 L-0.313157 -28.2758 L-2.30856 -28.2726 L-4.30396 -28.2694 L-6.29936 -28.2662 L-8.29476 -28.263 Z " />
<path stroke="rgb(200,255,200)" stroke-opacity="1" fill="rgb(200,255,200)" fill-opacity="1" id="tri_1_15_" d="M1.68224 -28.279 L2.67644 -30.0092 L3.67064 -31.7394 L4.66484 -33.4696 L5.65905 -35.1998 L6.65324 -36.93 L7.65404 -35.2032 L8.65484 -33.4764 L9.65564 -31.7496 L10.6564 -30.0228 L11.6572 -28.296 L9.66224 -28.2926 L7.66724 -28.2892 L5.67224 -28.2858 L3.67724 -28.2824 L1.68224 -28.279 Z " />
<path stroke="rgb(200,255,200)" stroke-opacity="1" fill="rgb(200,255,200)" fill-opacity="1" id="tri_0_15_" d="M6.65324 -36.93 L5.65905 -35.1998 L4.66484 -33.4696 L3.67064 -31.7394 L2.67644 -30.0092 L1.68224 -28.279 L0.681645 -30.0058 L-0.318955 -31.7326 L-1.31956 -33.4594 L-2.32016 -35.1862 L-3.32075 -36.913 L-1.32595 -36.9164 L0.668846 -36.9198 L2.66364 -36.9232 L4.65844 -36.9266 L6.65324 -36.93 Z " />
<path stroke="rgb(200,255,200)" stroke-opacity="1" fill="rgb(200,255,200)" fill-opacity="1" id="tri_2_14_" d="M11.6572 -28.296 L12.6516 -30.0262 L13.646 -31.7564 L14.6404 -33.4866 L15.6348 -35.2168 L16.6292 -36.947 L17.6296 -35.22 L18.63 -33.493 L19.6304 -31.766 L20.6308 -30.039 L21.6312 -28.312 L19.6364 -28.3088 L17.6416 -28.3056 L15.6468 -28.3024 L13.652 -28.2992 L11.6572 -28.296 Z " />
<path stroke="rgb(200,255,200)" stroke-opacity="1" fill="rgb(200,255,200)" fill-opacity="1" id="tri_1_14_" d="M16.6292 -36.947 L15.6348 -35.2168 L14.6404 -33.4866 L13.646 -31.7564 L12.6516 -30.0262 L11.6572 -28.296 L10.6564 -30.0228 L9.65564 -31.7496 L8.65484 -33.4764 L7.65404 -35.2032 L6.65324 -36.93 L8.64844 -36.9334 L10.6436 -36.9368 L12.6388 -36.9402 L14.634 -36.9436 L16.6292 -36.947 Z " />
<path stroke="rgb(200,255,200)" stroke-opacity="1" fill="rgb(200,255,200)" fill-opacity="1" id="tri_0_14_" d="M-13.2678 -19.612 L-12.2732 -21.3422 L-11.2786 -23.0724 L-10.284 -24.8026 L-9.28936 -26.5328 L-8.29476 -28.263 L-7.29456 -26.5364 L-6.29436 -24.8098 L-5.29416 -23.0832 L-4.29396 -21.3566 L-3.29376 -19.63 L-5.28856 -19.6264 L-7.28336 -19.6228 L-9.27816 -19.6192 L-11.273 -19.6156 L-13.2678 -19.612 Z " />
<path stroke="rgb(200,255,200)" stroke-opacity="1" fill="rgb(200,255,200)" fill-opacity="1" id="tri_1_13_" d="M-3.29376 -19.63 L-2.29856 -21.3598 L-1.30336 -23.0896 L-0.308158 -24.8194 L0.687043 -26.5492 L1.68224 -28.279 L2.68284 -26.5528 L3.68344 -24.8266 L4.68404 -23.1004 L5.68464 -21.3742 L6.68524 -19.648 L4.68944 -19.6444 L2.69364 -19.6408 L0.69784 -19.6372 L-1.29796 -19.6336 L-3.29376 -19.63 Z " />
<path stroke="rgb(200,255,200)" stroke-opacity="1" fill="rgb(200,255,200)" fill-opacity="1" id="tri_0_13_" d="M1.68224 -28.279 L0.687043 -26.5492 L-0.308158 -24.8194 L-1.30336 -23.0896 L-2.29856 -21.3598 L-3.29376 -19.63 L-4.29396 -21.3566 L-5.29416 -23.0832 L-6.29436 -24.8098 L-7.29456 -26.5364 L-8.29476 -28.263 L-6.29936 -28.2662 L-4.30396 -28.2694 L-2.30856 -28.2726 L-0.313157 -28.2758 L1.68224 -28.279 Z " />
<path stroke="rgb(200,255,200)" stroke-opacity="1" fill="rgb(200,255,200)" fill-opacity="1" id="tri_2_13_" d="M6.68524 -19.648 L7.67964 -21.3776 L8.67404 -23.1072 L9.66844 -24.8368 L10.6628 -26.5664 L11.6572 -28.296 L12.6576 -26.5694 L13.658 -24.8428 L14.6584 -23.1162 L15.6588 -21.3896 L16.6592 -19.663 L14.6644 -19.66 L12.6696 -19.657 L10.6748 -19.654 L8.68004 -19.651 L6.68524 -19.648 Z " />
<path stroke="rgb(200,255,200)" stroke-opacity="1" fill="rgb(200,255,200)" fill-opacity="1" id="tri_1_12_" d="M11.6572 -28.296 L10.6628 -26.5664 L9.66844 -24.8368 L8.67404 -23.1072 L7.67964 -21.3776 L6.68524 -19.648 L5.68464 -21.3742 L4.68404 -23.1004 L3.68344 -24.8266 L2.68284 -26.5528 L1.68224 -28.279 L3.67724 -28.2824 L5.67224 -28.2858 L7.66724 -28.2892 L9.66224 -28.2926 L11.6572 -28.296 Z " />
<path stroke="rgb(200,255,200)" stroke-opacity="1" fill="rgb(200,255,200)" fill-opacity="1" id="tri_3_12_" d="M16.6592 -19.663 L17.6536 -21.3928 L18.648 -23.1226 L19.6424 -24.8524 L20.6368 -26.5822 L21.6312 -28.312 L22.6322 -26.5862 L23.6332 -24.8604 L24.6342 -23.1346 L25.6352 -21.4088 L26.6362 -19.683 L24.6408 -19.679 L22.6454 -19.675 L20.65 -19.671 L18.6546 -19.667 L16.6592 -19.663 Z " />
<path stroke="rgb(200,255,200)" stroke-opacity="1" fill="rgb(200,255,200)" fill-opacity="1" id="tri_2_12_" d="M21.6312 -28.312 L20.6368 -26.5822 L19.6424 -24.8524 L18.648 -23.1226 L17.6536 -21.3928 L16.6592 -19.663 L15.6588 -21.3896 L14.6584 -23.1162 L13.658 -24.8428 L12.6576 -26.5694 L11.6572 -28.296 L13.652 -28.2992 L15.6468 -28.3024 L17.6416 -28.3056 L19.6364 -28.3088 L21.6312 -28.312 Z " />
<path stroke="rgb(200,255,200)" stroke-opacity="1" fill="rgb(200,255,200)" fill-opacity="1" id="tri_0_12_" d="M-18.2398 -10.967 L-17.2454 -12.696 L-16.251 -14.425 L-15.2566 -16.154 L-14.2622 -17.883 L-13.2678 -19.612 L-12.2672 -17.8858 L-11.2666 -16.1596 L-10.266 -14.4334 L-9.26536 -12.7072 L-8.26475 -10.981 L-10.2598 -10.9782 L-12.2548 -10.9754 L-14.2498 -10.9726 L-16.2448 -10.9698 L-18.2398 -10.967 Z " />
<path stroke="rgb(200,255,200)" stroke-opacity="1" fill="rgb(200,255,200)" fill-opacity="1" id="tri_1_11_" d="M-8.26475 -10.981 L-7.27056 -12.7108 L-6.27636 -14.4406 L-5.28216 -16.1704 L-4.28796 -17.9002 L-3.29376 -19.63 L-2.29296 -17.9036 L-1.29216 -16.1772 L-0.291358 -14.4508 L0.709444 -12.7244 L1.71024 -10.998 L-0.284755 -10.9946 L-2.27976 -10.9912 L-4.27476 -10.9878 L-6.26976 -10.9844 L-8.26475 -10.981 Z " />
<path stroke="rgb(200,255,200)" stroke-opacity="1" fill="rgb(200,255,200)" fill-opacity="1" id="tri_0_11_" d="M-3.29376 -19.63 L-4.28796 -17.9002 L-5.28216 -16.1704 L-6.27636 -14.4406 L-7.27056 -12.7108 L-8.26475 -10.981 L-9.26536 -12.7072 L-10.266 -14.4334 L-11.2666 -16.1596 L-12.2672 -17.8858 L-13.2678 -19.612 L-11.273 -19.6156 L-9.27816 -19.6192 L-7.28336 -19.6228 L-5.28856 -19.6264 L-3.29376 -19.63 Z " />
<path stroke="rgb(200,255,200)" stroke-opacity="1" fill="rgb(200,255,200)" fill-opacity="1" id="tri_2_11_" d="M1.71024 -10.998 L2.70524 -12.728 L3.70024 -14.458 L4.69524 -16.188 L5.69024 -17.918 L6.68524 -19.648 L7.68524 -17.9216 L8.68524 -16.1952 L9.68524 -14.4688 L10.6852 -12.7424 L11.6852 -11.016 L9.69024 -11.0124 L7.69524 -11.0088 L5.70024 -11.0052 L3.70524 -11.0016 L1.71024 -10.998 Z " />
<path stroke="rgb(200,255,200)" stroke-opacity="1" fill="rgb(200,255,200)" fill-opacity="1" id="tri_1_10_" d="M6.68524 -19.648 L5.69024 -17.918 L4.69524 -16.188 L3.70024 -14.458 L2.70524 -12.728 L1.71024 -10.998 L0.709444 -12.7244 L-0.291358 -14.4508 L-1.29216 -16.1772 L-2.29296 -17.9036 L-3.29376 -19.63 L-1.29796 -19.6336 L0.69784 -19.6372 L2.69364 -19.6408 L4.68944 -19.6444 L6.68524 -19.648 Z " />
<path stroke="rgb(200,255,200)" stroke-opacity="1" fill="rgb(200,255,200)" fill-opacity="1" id="tri_3_11_" d="M11.6852 -11.016 L12.68 -12.7454 L13.6748 -14.4748 L14.6696 -16.2042 L15.6644 -17.9336 L16.6592 -19.663 L17.6598 -17.9368 L18.6604 -16.2106 L19.661 -14.4844 L20.6616 -12.7582 L21.6622 -11.032 L19.6668 -11.0288 L17.6714 -11.0256 L15.676 -11.0224 L13.6806 -11.0192 L11.6852 -11.016 Z " />
<path stroke="rgb(200,255,200)" stroke-opacity="1" fill="rgb(200,255,200)" fill-opacity="1" id="tri_2_10_" d="M16.6592 -19.663 L15.6644 -17.9336 L14.6696 -16.2042 L13.6748 -14.4748 L12.68 -12.7454 L11.6852 -11.016 L10.6852 -12.7424 L9.68524 -14.4688 L8.68524 -16.1952 L7.68524 -17.9216 L6.68524 -19.648 L8.68004 -19.651 L10.6748 -19.654 L12.6696 -19.657 L14.6644 -19.66 L16.6592 -19.663 Z " />
<path stroke="rgb(200,255,200)" stroke-opacity="1" fill="rgb(200,255,200)" fill-opacity="1" id="tri_4_10_" d="M21.6622 -11.032 L22.657 -12.7622 L23.6518 -14.4924 L24.6466 -16.2226 L25.6414 -17.9528 L26.6362 -19.683 L27.6366 -17.9562 L28.637 -16.2294 L29.6374 -14.5026 L30.6378 -12.7758 L31.6382 -11.049 L29.643 -11.0456 L27.6478 -11.0422 L25.6526 -11.0388 L23.6574 -11.0354 L21.6622 -11.032 Z " />
<path stroke="rgb(200,255,200)" stroke-opacity="1" fill="rgb(200,255,200)" fill-opacity="1" id="tri_3_10_" d="M26.6362 -19.683 L25.6414 -17.9528 L24.6466 -16.2226 L23.6518 -14.4924 L22.657 -12.7622 L21.6622 -11.032 L20.6616 -12.7582 L19.661 -14.4844 L18.6604 -16.2106 L17.6598 -17.9368 L16.6592 -19.663 L18.6546 -19.667 L20.65 -19.671 L22.6454 -19.675 L24.6408 -19.679 L26.6362 -19.683 Z " />
<path stroke="rgb(200,255,200)" stroke-opacity="1" fill="rgb(200,255,200)" fill-opacity="1" id="tri_0_10_" d="M-23.2128 -2.31602 L-22.2182 -4.04622 L-21.2236 -5.77643 L-20.229 -7.50663 L-19.2344 -9.23683 L-18.2398 -10.967 L-17.2392 -9.23982 L-16.2386 -7.51262 L-15.238 -5.78543 L-14.2374 -4.05823 L-13.2368 -2.33102 L-15.232 -2.32803 L-17.2272 -2.32502 L-19.2224 -2.32202 L-21.2176 -2.31902 L-23.2128 -2.31602 Z " />
<path stroke="rgb(200,255,200)" stroke-opacity="1" fill="rgb(200,255,200)" fill-opacity="1" id="tri_1_9_" d="M-13.2368 -2.33102 L-12.2424 -4.06102 L-11.248 -5.79102 L-10.2536 -7.52103 L-9.25915 -9.25103 L-8.26475 -10.981 L-7.26416 -9.25462 L-6.26356 -7.52822 L-5.26296 -5.80182 L-4.26236 -4.07542 L-3.26176 -2.34902 L-5.25676 -2.34542 L-7.25176 -2.34182 L-9.24676 -2.33822 L-11.2418 -2.33462 L-13.2368 -2.33102 Z " />
<path stroke="rgb(200,255,200)" stroke-opacity="1" fill="rgb(200,255,200)" fill-opacity="1" id="tri_0_9_" d="M-8.26475 -10.981 L-9.25915 -9.25103 L-10.2536 -7.52103 L-11.248 -5.79102 L-12.2424 -4.06102 L-13.2368 -2.33102 L-14.2374 -4.05823 L-15.238 -5.78543 L-16.2386 -7.51262 L-17.2392 -9.23982 L-18.2398 -10.967 L-16.2448 -10.9698 L-14.2498 -10.9726 L-12.2548 -10.9754 L-10.2598 -10.9782 L-8.26475 -10.981 Z " />
<path stroke="rgb(200,255,200)" stroke-opacity="1" fill="rgb(200,255,200)" fill-opacity="1" id="tri_2_9_" d="M-3.26176 -2.34902 L-2.26736 -4.07882 L-1.27296 -5.80862 L-0.278556 -7.53842 L0.715844 -9.26822 L1.71024 -10.998 L2.71104 -9.27182 L3.71184 -7.54563 L4.71264 -5.81943 L5.71344 -4.09323 L6.71424 -2.36703 L4.71904 -2.36343 L2.72384 -2.35982 L0.728643 -2.35622 L-1.26656 -2.35262 L-3.26176 -2.34902 Z " />
<path stroke="rgb(200,255,200)" stroke-opacity="1" fill="rgb(200,255,200)" fill-opacity="1" id="tri_1_8_" d="M1.71024 -10.998 L0.715844 -9.26822 L-0.278556 -7.53842 L-1.27296 -5.80862 L-2.26736 -4.07882 L-3.26176 -2.34902 L-4.26236 -4.07542 L-5.26296 -5.80182 L-6.26356 -7.52822 L-7.26416 -9.25462 L-8.26475 -10.981 L-6.26976 -10.9844 L-4.27476 -10.9878 L-2.27976 -10.9912 L-0.284755 -10.9946 L1.71024 -10.998 Z " />
<path stroke="rgb(200,255,200)" stroke-opacity="1" fill="rgb(200,255,200)" fill-opacity="1" id="tri_3_9_" d="M6.71424 -2.36703 L7.70844 -4.09683 L8.70264 -5.82662 L9.69684 -7.55642 L10.691 -9.28622 L11.6852 -11.016 L12.6858 -9.28962 L13.6864 -7.56322 L14.687 -5.83682 L15.6876 -4.11043 L16.6882 -2.38403 L14.6934 -2.38063 L12.6986 -2.37723 L10.7038 -2.37383 L8.70904 -2.37043 L6.71424 -2.36703 Z " />
<path stroke="rgb(200,255,200)" stroke-opacity="1" fill="rgb(200,255,200)" fill-opacity="1" id="tri_2_8_" d="M11.6852 -11.016 L10.691 -9.28622 L9.69684 -7.55642 L8.70264 -5.82662 L7.70844 -4.09683 L6.71424 -2.36703 L5.71344 -4.09323 L4.71264 -5.81943 L3.71184 -7.54563 L2.71104 -9.27182 L1.71024 -10.998 L3.70524 -11.0016 L5.70024 -11.0052 L7.69524 -11.0088 L9.69024 -11.0124 L11.6852 -11.016 Z " />
<path stroke="rgb(200,255,200)" stroke-opacity="1" fill="rgb(200,255,200)" fill-opacity="1" id="tri_4_9_" d="M16.6882 -2.38403 L17.683 -4.11363 L18.6778 -5.84323 L19.6726 -7.57283 L20.6674 -9.30243 L21.6622 -11.032 L22.663 -9.30583 L23.6638 -7.57963 L24.6646 -5.85343 L25.6654 -4.12722 L26.6662 -2.40102 L24.6706 -2.39762 L22.675 -2.39422 L20.6794 -2.39083 L18.6838 -2.38743 L16.6882 -2.38403 Z " />
<path stroke="rgb(200,255,200)" stroke-opacity="1" fill="rgb(200,255,200)" fill-opacity="1" id="tri_3_8_" d="M21.6622 -11.032 L20.6674 -9.30243 L19.6726 -7.57283 L18.6778 -5.84323 L17.683 -4.11363 L16.6882 -2.38403 L15.6876 -4.11043 L14.687 -5.83682 L13.6864 -7.56322 L12.6858 -9.28962 L11.6852 -11.016 L13.6806 -11.0192 L15.676 -11.0224 L17.6714 -11.0256 L19.6668 -11.0288 L21.6622 -11.032 Z " />
<path stroke="rgb(200,255,200)" stroke-opacity="1" fill="rgb(200,255,200)" fill-opacity="1" id="tri_5_8_" d="M26.6662 -2.40102 L27.6606 -4.13062 L28.655 -5.86022 L29.6494 -7.58983 L30.6438 -9.31943 L31.6382 -11.049 L32.6386 -9.32283 L33.639 -7.59663 L34.6394 -5.87042 L35.6398 -4.14422 L36.6402 -2.41802 L34.6454 -2.41462 L32.6506 -2.41122 L30.6558 -2.40782 L28.661 -2.40442 L26.6662 -2.40102 Z " />
<path stroke="rgb(200,255,200)" stroke-opacity="1" fill="rgb(200,255,200)" fill-opacity="1" id="tri_4_8_" d="M31.6382 -11.049 L30.6438 -9.31943 L29.6494 -7.58983 L28.655 -5.86022 L27.6606 -4.13062 L26.6662 -2.40102 L25.6654 -4.12722 L24.6646 -5.85343 L23.6638 -7.57963 L22.663 -9.30583 L21.6622 -11.032 L23.6574 -11.0354 L25.6526 -11.0388 L27.6478 -11.0422 L29.643 -11.0456 L31.6382 -11.049 Z " />
<path stroke="rgb(200,255,200)" stroke-opacity="1" fill="rgb(200,255,200)" fill-opacity="1" id="tri_0_8_" d="M-28.1878 6.33398 L-27.1928 4.60398 L-26.1978 2.87398 L-25.2028 1.14398 L-24.2078 -0.586025 L-23.2128 -2.31602 L-22.2124 -0.589625 L-21.212 1.13677 L-20.2116 2.86317 L-19.2112 4.58957 L-18.2108 6.31597 L-20.2062 6.31957 L-22.2016 6.32317 L-24.197 6.32677 L-26.1924 6.33037 L-28.1878 6.33398 Z " />
<path stroke="rgb(200,255,200)" stroke-opacity="1" fill="rgb(200,255,200)" fill-opacity="1" id="tri_1_7_" d="M-18.2108 6.31597 L-17.216 4.58657 L-16.2212 2.85717 L-15.2264 1.12777 L-14.2316 -0.601625 L-13.2368 -2.33102 L-12.2368 -0.604825 L-11.2368 1.12137 L-10.2368 2.84757 L-9.23675 4.57377 L-8.23675 6.29997 L-10.2316 6.30317 L-12.2264 6.30637 L-14.2212 6.30957 L-16.216 6.31277 L-18.2108 6.31597 Z " />
<path stroke="rgb(200,255,200)" stroke-opacity="1" fill="rgb(200,255,200)" fill-opacity="1" id="tri_0_7_" d="M-13.2368 -2.33102 L-14.2316 -0.601625 L-15.2264 1.12777 L-16.2212 2.85717 L-17.216 4.58657 L-18.2108 6.31597 L-19.2112 4.58957 L-20.2116 2.86317 L-21.212 1.13677 L-22.2124 -0.589625 L-23.2128 -2.31602 L-21.2176 -2.31902 L-19.2224 -2.32202 L-17.2272 -2.32502 L-15.232 -2.32803 L-13.2368 -2.33102 Z " />
<path stroke="rgb(200,255,200)" stroke-opacity="1" fill="rgb(200,255,200)" fill-opacity="1" id="tri_2_7_" d="M-8.23675 6.29997 L-7.24175 4.57017 L-6.24676 2.84038 L-5.25176 1.11058 L-4.25676 -0.619224 L-3.26176 -2.34902 L-2.26136 -0.622622 L-1.26096 1.10378 L-0.260557 2.83018 L0.739842 4.55657 L1.74024 6.28297 L-0.255157 6.28637 L-2.25056 6.28977 L-4.24596 6.29317 L-6.24135 6.29657 L-8.23675 6.29997 Z " />
<path stroke="rgb(200,255,200)" stroke-opacity="1" fill="rgb(200,255,200)" fill-opacity="1" id="tri_1_6_" d="M-3.26176 -2.34902 L-4.25676 -0.619224 L-5.25176 1.11058 L-6.24676 2.84038 L-7.24175 4.57017 L-8.23675 6.29997 L-9.23675 4.57377 L-10.2368 2.84757 L-11.2368 1.12137 L-12.2368 -0.604825 L-13.2368 -2.33102 L-11.2418 -2.33462 L-9.24676 -2.33822 L-7.25176 -2.34182 L-5.25676 -2.34542 L-3.26176 -2.34902 Z " />
<path stroke="rgb(200,255,200)" stroke-opacity="1" fill="rgb(200,255,200)" fill-opacity="1" id="tri_3_7_" d="M1.74024 6.28297 L2.73504 4.55297 L3.72984 2.82297 L4.72464 1.09297 L5.71944 -0.637028 L6.71424 -2.36703 L7.71444 -0.640426 L8.71464 1.08617 L9.71484 2.81277 L10.715 4.53937 L11.7152 6.26598 L9.72024 6.26938 L7.72524 6.27278 L5.73024 6.27617 L3.73524 6.27957 L1.74024 6.28297 Z " />
<path stroke="rgb(200,255,200)" stroke-opacity="1" fill="rgb(200,255,200)" fill-opacity="1" id="tri_2_6_" d="M6.71424 -2.36703 L5.71944 -0.637028 L4.72464 1.09297 L3.72984 2.82297 L2.73504 4.55297 L1.74024 6.28297 L0.739842 4.55657 L-0.260557 2.83018 L-1.26096 1.10378 L-2.26136 -0.622622 L-3.26176 -2.34902 L-1.26656 -2.35262 L0.728643 -2.35622 L2.72384 -2.35982 L4.71904 -2.36343 L6.71424 -2.36703 Z " />
<path stroke="rgb(200,255,200)" stroke-opacity="1" fill="rgb(200,255,200)" fill-opacity="1" id="tri_4_7_" d="M11.7152 6.26598 L12.7098 4.53598 L13.7044 2.80598 L14.699 1.07597 L15.6936 -0.654026 L16.6882 -2.38403 L17.689 -0.657826 L18.6898 1.06837 L19.6906 2.79457 L20.6914 4.52077 L21.6922 6.24697 L19.6968 6.25077 L17.7014 6.25457 L15.706 6.25837 L13.7106 6.26218 L11.7152 6.26598 Z " />
<path stroke="rgb(200,255,200)" stroke-opacity="1" fill="rgb(200,255,200)" fill-opacity="1" id="tri_3_6_" d="M16.6882 -2.38403 L15.6936 -0.654026 L14.699 1.07597 L13.7044 2.80598 L12.7098 4.53598 L11.7152 6.26598 L10.715 4.53937 L9.71484 2.81277 L8.71464 1.08617 L7.71444 -0.640426 L6.71424 -2.36703 L8.70904 -2.37043 L10.7038 -2.37383 L12.6986 -2.37723 L14.6934 -2.38063 L16.6882 -2.38403 Z " />
<path stroke="rgb(200,255,200)" stroke-opacity="1" fill="rgb(200,255,200)" fill-opacity="1" id="tri_5_7_" d="M21.6922 6.24697 L22.687 4.51737 L23.6818 2.78777 L24.6766 1.05817 L25.6714 -0.671424 L26.6662 -2.40102 L27.6664 -0.674023 L28.6666 1.05298 L29.6668 2.77998 L30.667 4.50698 L31.6672 6.23398 L29.6722 6.23658 L27.6772 6.23918 L25.6822 6.24177 L23.6872 6.24437 L21.6922 6.24697 Z " />
<path stroke="rgb(200,255,200)" stroke-opacity="1" fill="rgb(200,255,200)" fill-opacity="1" id="tri_4_6_" d="M26.6662 -2.40102 L25.6714 -0.671424 L24.6766 1.05817 L23.6818 2.78777 L22.687 4.51737 L21.6922 6.24697 L20.6914 4.52077 L19.6906 2.79457 L18.6898 1.06837 L17.689 -0.657826 L16.6882 -2.38403 L18.6838 -2.38743 L20.6794 -2.39083 L22.675 -2.39422 L24.6706 -2.39762 L26.6662 -2.40102 Z " />
<path stroke="rgb(200,255,200)" stroke-opacity="1" fill="rgb(200,255,200)" fill-opacity="1" id="tri_6_6_" d="M31.6672 6.23398 L32.6618 4.50358 L33.6564 2.77318 L34.651 1.04278 L35.6456 -0.687621 L36.6402 -2.41802 L37.641 -0.691823 L38.6418 1.03438 L39.6426 2.76058 L40.6434 4.48678 L41.6442 6.21297 L39.6488 6.21718 L37.6534 6.22138 L35.658 6.22558 L33.6626 6.22978 L31.6672 6.23398 Z " />
<path stroke="rgb(200,255,200)" stroke-opacity="1" fill="rgb(200,255,200)" fill-opacity="1" id="tri_5_6_" d="M36.6402 -2.41802 L35.6456 -0.687621 L34.651 1.04278 L33.6564 2.77318 L32.6618 4.50358 L31.6672 6.23398 L30.667 4.50698 L29.6668 2.77998 L28.6666 1.05298 L27.6664 -0.674023 L26.6662 -2.40102 L28.661 -2.40442 L30.6558 -2.40782 L32.6506 -2.41122 L34.6454 -2.41462 L36.6402 -2.41802 Z " />
<path stroke="rgb(200,255,200)" stroke-opacity="1" fill="rgb(200,255,200)" fill-opacity="1" id="tri_0_6_" d="M-33.1598 14.984 L-32.1654 13.254 L-31.171 11.524 L-30.1766 9.79398 L-29.1822 8.06398 L-28.1878 6.33398 L-27.1866 8.06058 L-26.1854 9.78717 L-25.1842 11.5138 L-24.183 13.2404 L-23.1818 14.967 L-25.1774 14.9704 L-27.173 14.9738 L-29.1686 14.9772 L-31.1642 14.9806 L-33.1598 14.984 Z " />
<path stroke="rgb(200,255,200)" stroke-opacity="1" fill="rgb(200,255,200)" fill-opacity="1" id="tri_1_5_" d="M-23.1818 14.967 L-22.1876 13.2368 L-21.1934 11.5066 L-20.1992 9.77637 L-19.205 8.04617 L-18.2108 6.31597 L-17.2106 8.04277 L-16.2104 9.76957 L-15.2102 11.4964 L-14.21 13.2232 L-13.2098 14.95 L-15.2042 14.9534 L-17.1986 14.9568 L-19.193 14.9602 L-21.1874 14.9636 L-23.1818 14.967 Z " />
<path stroke="rgb(200,255,200)" stroke-opacity="1" fill="rgb(200,255,200)" fill-opacity="1" id="tri_0_5_" d="M-18.2108 6.31597 L-19.205 8.04617 L-20.1992 9.77637 L-21.1934 11.5066 L-22.1876 13.2368 L-23.1818 14.967 L-24.183 13.2404 L-25.1842 11.5138 L-26.1854 9.78717 L-27.1866 8.06058 L-28.1878 6.33398 L-26.1924 6.33037 L-24.197 6.32677 L-22.2016 6.32317 L-20.2062 6.31957 L-18.2108 6.31597 Z " />
<path stroke="rgb(200,255,200)" stroke-opacity="1" fill="rgb(200,255,200)" fill-opacity="1" id="tri_2_5_" d="M-13.2098 14.95 L-12.2152 13.22 L-11.2206 11.49 L-10.226 9.75997 L-9.23136 8.02997 L-8.23675 6.29997 L-7.23596 8.02577 L-6.23516 9.75157 L-5.23436 11.4774 L-4.23356 13.2032 L-3.23276 14.929 L-5.22816 14.9332 L-7.22356 14.9374 L-9.21895 14.9416 L-11.2144 14.9458 L-13.2098 14.95 Z " />
<path stroke="rgb(200,255,200)" stroke-opacity="1" fill="rgb(200,255,200)" fill-opacity="1" id="tri_1_4_" d="M-8.23675 6.29997 L-9.23136 8.02997 L-10.226 9.75997 L-11.2206 11.49 L-12.2152 13.22 L-13.2098 14.95 L-14.21 13.2232 L-15.2102 11.4964 L-16.2104 9.76957 L-17.2106 8.04277 L-18.2108 6.31597 L-16.216 6.31277 L-14.2212 6.30957 L-12.2264 6.30637 L-10.2316 6.30317 L-8.23675 6.29997 Z " />
<path stroke="rgb(200,255,200)" stroke-opacity="1" fill="rgb(200,255,200)" fill-opacity="1" id="tri_3_5_" d="M-3.23276 14.929 L-2.23816 13.1998 L-1.24356 11.4706 L-0.248957 9.74138 L0.745642 8.01218 L1.74024 6.28297 L2.74104 8.00958 L3.74184 9.73618 L4.74264 11.4628 L5.74344 13.1894 L6.74424 14.916 L4.74884 14.9186 L2.75344 14.9212 L0.758043 14.9238 L-1.23736 14.9264 L-3.23276 14.929 Z " />
<path stroke="rgb(200,255,200)" stroke-opacity="1" fill="rgb(200,255,200)" fill-opacity="1" id="tri_2_4_" d="M1.74024 6.28297 L0.745642 8.01218 L-0.248957 9.74138 L-1.24356 11.4706 L-2.23816 13.1998 L-3.23276 14.929 L-4.23356 13.2032 L-5.23436 11.4774 L-6.23516 9.75157 L-7.23596 8.02577 L-8.23675 6.29997 L-6.24135 6.29657 L-4.24596 6.29317 L-2.25056 6.28977 L-0.255157 6.28637 L1.74024 6.28297 Z " />
<path stroke="rgb(200,255,200)" stroke-opacity="1" fill="rgb(200,255,200)" fill-opacity="1" id="tri_4_5_" d="M6.74424 14.916 L7.73844 13.186 L8.73264 11.456 L9.72684 9.72598 L10.721 7.99598 L11.7152 6.26598 L12.7158 7.99238 L13.7164 9.71877 L14.717 11.4452 L15.7176 13.1716 L16.7182 14.898 L14.7234 14.9016 L12.7286 14.9052 L10.7338 14.9088 L8.73904 14.9124 L6.74424 14.916 Z " />
<path stroke="rgb(200,255,200)" stroke-opacity="1" fill="rgb(200,255,200)" fill-opacity="1" id="tri_3_4_" d="M11.7152 6.26598 L10.721 7.99598 L9.72684 9.72598 L8.73264 11.456 L7.73844 13.186 L6.74424 14.916 L5.74344 13.1894 L4.74264 11.4628 L3.74184 9.73618 L2.74104 8.00958 L1.74024 6.28297 L3.73524 6.27957 L5.73024 6.27617 L7.72524 6.27278 L9.72024 6.26938 L11.7152 6.26598 Z " />
<path stroke="rgb(200,255,200)" stroke-opacity="1" fill="rgb(200,255,200)" fill-opacity="1" id="tri_5_5_" d="M16.7182 14.898 L17.713 13.1678 L18.7078 11.4376 L19.7026 9.70737 L20.6974 7.97717 L21.6922 6.24697 L22.6928 7.97397 L23.6934 9.70097 L24.694 11.428 L25.6946 13.155 L26.6952 14.882 L24.6998 14.8852 L22.7044 14.8884 L20.709 14.8916 L18.7136 14.8948 L16.7182 14.898 Z " />
<path stroke="rgb(200,255,200)" stroke-opacity="1" fill="rgb(200,255,200)" fill-opacity="1" id="tri_4_4_" d="M21.6922 6.24697 L20.6974 7.97717 L19.7026 9.70737 L18.7078 11.4376 L17.713 13.1678 L16.7182 14.898 L15.7176 13.1716 L14.717 11.4452 L13.7164 9.71877 L12.7158 7.99238 L11.7152 6.26598 L13.7106 6.26218 L15.706 6.25837 L17.7014 6.25457 L19.6968 6.25077 L21.6922 6.24697 Z " />
<path stroke="rgb(200,255,200)" stroke-opacity="1" fill="rgb(200,255,200)" fill-opacity="1" id="tri_6_5_" d="M26.6952 14.882 L27.6896 13.1524 L28.684 11.4228 L29.6784 9.69318 L30.6728 7.96358 L31.6672 6.23398 L32.6682 7.95978 L33.6692 9.68558 L34.6702 11.4114 L35.6712 13.1372 L36.6722 14.863 L34.6768 14.8668 L32.6814 14.8706 L30.686 14.8744 L28.6906 14.8782 L26.6952 14.882 Z " />
<path stroke="rgb(200,255,200)" stroke-opacity="1" fill="rgb(200,255,200)" fill-opacity="1" id="tri_5_4_" d="M31.6672 6.23398 L30.6728 7.96358 L29.6784 9.69318 L28.684 11.4228 L27.6896 13.1524 L26.6952 14.882 L25.6946 13.155 L24.694 11.428 L23.6934 9.70097 L22.6928 7.97397 L21.6922 6.24697 L23.6872 6.24437 L25.6822 6.24177 L27.6772 6.23918 L29.6722 6.23658 L31.6672 6.23398 Z " />
<path stroke="rgb(200,255,200)" stroke-opacity="1" fill="rgb(200,255,200)" fill-opacity="1" id="tri_7_4_" d="M36.6722 14.863 L37.6666 13.133 L38.661 11.403 L39.6554 9.67297 L40.6498 7.94297 L41.6442 6.21297 L42.6443 7.93958 L43.6443 9.66618 L44.6442 11.3928 L45.6442 13.1194 L46.6442 14.846 L44.6498 14.8494 L42.6554 14.8528 L40.6611 14.8562 L38.6667 14.8596 L36.6722 14.863 Z " />
<path stroke="rgb(200,255,200)" stroke-opacity="1" fill="rgb(200,255,200)" fill-opacity="1" id="tri_6_4_" d="M41.6442 6.21297 L40.6498 7.94297 L39.6554 9.67297 L38.661 11.403 L37.6666 13.133 L36.6722 14.863 L35.6712 13.1372 L34.6702 11.4114 L33.6692 9.68558 L32.6682 7.95978 L31.6672 6.23398 L33.6626 6.22978 L35.658 6.22558 L37.6534 6.22138 L39.6488 6.21718 L41.6442 6.21297 Z " />
<path stroke="rgb(200,255,200)" stroke-opacity="1" fill="rgb(200,255,200)" fill-opacity="1" id="tri_0_4_" d="M-38.1338 23.634 L-37.139 21.904 L-36.1442 20.174 L-35.1494 18.444 L-34.1546 16.714 L-33.1598 14.984 L-32.1592 16.7102 L-31.1586 18.4364 L-30.158 20.1626 L-29.1574 21.8888 L-28.1568 23.615 L-30.1522 23.6188 L-32.1476 23.6226 L-34.143 23.6264 L-36.1384 23.6302 L-38.1338 23.634 Z " />
<path stroke="rgb(200,255,200)" stroke-opacity="1" fill="rgb(200,255,200)" fill-opacity="1" id="tri_1_3_" d="M-28.1568 23.615 L-27.1618 21.8854 L-26.1668 20.1558 L-25.1718 18.4262 L-24.1768 16.6966 L-23.1818 14.967 L-22.182 16.6932 L-21.1822 18.4194 L-20.1824 20.1456 L-19.1826 21.8718 L-18.1828 23.598 L-20.1776 23.6014 L-22.1724 23.6048 L-24.1672 23.6082 L-26.162 23.6116 L-28.1568 23.615 Z " />
<path stroke="rgb(200,255,200)" stroke-opacity="1" fill="rgb(200,255,200)" fill-opacity="1" id="tri_0_3_" d="M-23.1818 14.967 L-24.1768 16.6966 L-25.1718 18.4262 L-26.1668 20.1558 L-27.1618 21.8854 L-28.1568 23.615 L-29.1574 21.8888 L-30.158 20.1626 L-31.1586 18.4364 L-32.1592 16.7102 L-33.1598 14.984 L-31.1642 14.9806 L-29.1686 14.9772 L-27.173 14.9738 L-25.1774 14.9704 L-23.1818 14.967 Z " />
<path stroke="rgb(200,255,200)" stroke-opacity="1" fill="rgb(200,255,200)" fill-opacity="1" id="tri_2_3_" d="M-18.1828 23.598 L-17.1882 21.8684 L-16.1936 20.1388 L-15.199 18.4092 L-14.2044 16.6796 L-13.2098 14.95 L-12.209 16.6762 L-11.2082 18.4024 L-10.2074 20.1286 L-9.20656 21.8548 L-8.20576 23.581 L-10.2012 23.5844 L-12.1966 23.5878 L-14.192 23.5912 L-16.1874 23.5946 L-18.1828 23.598 Z " />
<path stroke="rgb(200,255,200)" stroke-opacity="1" fill="rgb(200,255,200)" fill-opacity="1" id="tri_1_2_" d="M-13.2098 14.95 L-14.2044 16.6796 L-15.199 18.4092 L-16.1936 20.1388 L-17.1882 21.8684 L-18.1828 23.598 L-19.1826 21.8718 L-20.1824 20.1456 L-21.1822 18.4194 L-22.182 16.6932 L-23.1818 14.967 L-21.1874 14.9636 L-19.193 14.9602 L-17.1986 14.9568 L-15.2042 14.9534 L-13.2098 14.95 Z " />
<path stroke="rgb(200,255,200)" stroke-opacity="1" fill="rgb(200,255,200)" fill-opacity="1" id="tri_3_3_" d="M-8.20576 23.581 L-7.21116 21.8506 L-6.21656 20.1202 L-5.22196 18.3898 L-4.22736 16.6594 L-3.23276 14.929 L-2.23236 16.6564 L-1.23196 18.3838 L-0.231558 20.1112 L0.768842 21.8386 L1.76924 23.566 L-0.225757 23.569 L-2.22076 23.572 L-4.21576 23.575 L-6.21076 23.578 L-8.20576 23.581 Z " />
<path stroke="rgb(200,255,200)" stroke-opacity="1" fill="rgb(200,255,200)" fill-opacity="1" id="tri_2_2_" d="M-3.23276 14.929 L-4.22736 16.6594 L-5.22196 18.3898 L-6.21656 20.1202 L-7.21116 21.8506 L-8.20576 23.581 L-9.20656 21.8548 L-10.2074 20.1286 L-11.2082 18.4024 L-12.209 16.6762 L-13.2098 14.95 L-11.2144 14.9458 L-9.21895 14.9416 L-7.22356 14.9374 L-5.22816 14.9332 L-3.23276 14.929 Z " />
<path stroke="rgb(200,255,200)" stroke-opacity="1" fill="rgb(200,255,200)" fill-opacity="1" id="tri_4_3_" d="M1.76924 23.566 L2.76424 21.836 L3.75924 20.106 L4.75424 18.376 L5.74924 16.646 L6.74424 14.916 L7.74464 16.6418 L8.74504 18.3676 L9.74544 20.0934 L10.7458 21.8192 L11.7462 23.545 L9.75084 23.5492 L7.75544 23.5534 L5.76004 23.5576 L3.76464 23.5618 L1.76924 23.566 Z " />
<path stroke="rgb(200,255,200)" stroke-opacity="1" fill="rgb(200,255,200)" fill-opacity="1" id="tri_3_2_" d="M6.74424 14.916 L5.74924 16.646 L4.75424 18.376 L3.75924 20.106 L2.76424 21.836 L1.76924 23.566 L0.768842 21.8386 L-0.231558 20.1112 L-1.23196 18.3838 L-2.23236 16.6564 L-3.23276 14.929 L-1.23736 14.9264 L0.758043 14.9238 L2.75344 14.9212 L4.74884 14.9186 L6.74424 14.916 Z " />
<path stroke="rgb(200,255,200)" stroke-opacity="1" fill="rgb(200,255,200)" fill-opacity="1" id="tri_5_3_" d="M11.7462 23.545 L12.7406 21.8156 L13.735 20.0862 L14.7294 18.3568 L15.7238 16.6274 L16.7182 14.898 L17.7186 16.6244 L18.719 18.3508 L19.7194 20.0772 L20.7198 21.8036 L21.7202 23.53 L19.7254 23.533 L17.7306 23.536 L15.7358 23.539 L13.741 23.542 L11.7462 23.545 Z " />
<path stroke="rgb(200,255,200)" stroke-opacity="1" fill="rgb(200,255,200)" fill-opacity="1" id="tri_4_2_" d="M16.7182 14.898 L15.7238 16.6274 L14.7294 18.3568 L13.735 20.0862 L12.7406 21.8156 L11.7462 23.545 L10.7458 21.8192 L9.74544 20.0934 L8.74504 18.3676 L7.74464 16.6418 L6.74424 14.916 L8.73904 14.9124 L10.7338 14.9088 L12.7286 14.9052 L14.7234 14.9016 L16.7182 14.898 Z " />
<path stroke="rgb(200,255,200)" stroke-opacity="1" fill="rgb(200,255,200)" fill-opacity="1" id="tri_6_3_" d="M21.7202 23.53 L22.7152 21.8004 L23.7102 20.0708 L24.7052 18.3412 L25.7002 16.6116 L26.6952 14.882 L27.6956 16.608 L28.696 18.334 L29.6964 20.06 L30.6968 21.786 L31.6972 23.512 L29.7018 23.5156 L27.7064 23.5192 L25.711 23.5228 L23.7156 23.5264 L21.7202 23.53 Z " />
<path stroke="rgb(200,255,200)" stroke-opacity="1" fill="rgb(200,255,200)" fill-opacity="1" id="tri_5_2_" d="M26.6952 14.882 L25.7002 16.6116 L24.7052 18.3412 L23.7102 20.0708 L22.7152 21.8004 L21.7202 23.53 L20.7198 21.8036 L19.7194 20.0772 L18.719 18.3508 L17.7186 16.6244 L16.7182 14.898 L18.7136 14.8948 L20.709 14.8916 L22.7044 14.8884 L24.6998 14.8852 L26.6952 14.882 Z " />
<path stroke="rgb(200,255,200)" stroke-opacity="1" fill="rgb(200,255,200)" fill-opacity="1" id="tri_7_3_" d="M31.6972 23.512 L32.6922 21.7822 L33.6872 20.0524 L34.6822 18.3226 L35.6772 16.5928 L36.6722 14.863 L37.672 16.5892 L38.6718 18.3154 L39.6716 20.0416 L40.6714 21.7678 L41.6712 23.494 L39.6764 23.4976 L37.6816 23.5012 L35.6868 23.5048 L33.692 23.5084 L31.6972 23.512 Z " />
<path stroke="rgb(200,255,200)" stroke-opacity="1" fill="rgb(200,255,200)" fill-opacity="1" id="tri_6_2_" d="M36.6722 14.863 L35.6772 16.5928 L34.6822 18.3226 L33.6872 20.0524 L32.6922 21.7822 L31.6972 23.512 L30.6968 21.786 L29.6964 20.06 L28.696 18.334 L27.6956 16.608 L26.6952 14.882 L28.6906 14.8782 L30.686 14.8744 L32.6814 14.8706 L34.6768 14.8668 L36.6722 14.863 Z " />
<path stroke="rgb(200,255,200)" stroke-opacity="1" fill="rgb(200,255,200)" fill-opacity="1" id="tri_8_2_" d="M41.6712 23.494 L42.6658 21.7644 L43.6604 20.0348 L44.655 18.3052 L45.6496 16.5756 L46.6442 14.846 L47.645 16.5724 L48.6458 18.2988 L49.6466 20.0252 L50.6474 21.7516 L51.6482 23.478 L49.6528 23.4812 L47.6574 23.4844 L45.662 23.4876 L43.6666 23.4908 L41.6712 23.494 Z " />
<path stroke="rgb(200,255,200)" stroke-opacity="1" fill="rgb(200,255,200)" fill-opacity="1" id="tri_7_2_" d="M46.6442 14.846 L45.6496 16.5756 L44.655 18.3052 L43.6604 20.0348 L42.6658 21.7644 L41.6712 23.494 L40.6714 21.7678 L39.6716 20.0416 L38.6718 18.3154 L37.672 16.5892 L36.6722 14.863 L38.6667 14.8596 L40.6611 14.8562 L42.6554 14.8528 L44.6498 14.8494 L46.6442 14.846 Z " />
<path stroke="rgb(200,255,200)" stroke-opacity="1" fill="rgb(200,255,200)" fill-opacity="1" id="tri_0_2_" d="M-43.1058 32.282 L-42.1114 30.5524 L-41.117 28.8228 L-40.1226 27.0932 L-39.1282 25.3636 L-38.1338 23.634 L-37.1328 25.3602 L-36.1318 27.0864 L-35.1308 28.8126 L-34.1298 30.5388 L-33.1288 32.265 L-35.1242 32.2684 L-37.1196 32.2718 L-39.115 32.2752 L-41.1104 32.2786 L-43.1058 32.282 Z " />
<path stroke="rgb(200,255,200)" stroke-opacity="1" fill="rgb(200,255,200)" fill-opacity="1" id="tri_1_1_" d="M-33.1288 32.265 L-32.1344 30.535 L-31.14 28.805 L-30.1456 27.075 L-29.1512 25.345 L-28.1568 23.615 L-27.156 25.3412 L-26.1552 27.0674 L-25.1544 28.7936 L-24.1536 30.5198 L-23.1528 32.246 L-25.148 32.2498 L-27.1432 32.2536 L-29.1384 32.2574 L-31.1336 32.2612 L-33.1288 32.265 Z " />
<path stroke="rgb(200,255,200)" stroke-opacity="1" fill="rgb(200,255,200)" fill-opacity="1" id="tri_0_1_" d="M-28.1568 23.615 L-29.1512 25.345 L-30.1456 27.075 L-31.14 28.805 L-32.1344 30.535 L-33.1288 32.265 L-34.1298 30.5388 L-35.1308 28.8126 L-36.1318 27.0864 L-37.1328 25.3602 L-38.1338 23.634 L-36.1384 23.6302 L-34.143 23.6264 L-32.1476 23.6226 L-30.1522 23.6188 L-28.1568 23.615 Z " />
<path stroke="rgb(200,255,200)" stroke-opacity="1" fill="rgb(200,255,200)" fill-opacity="1" id="tri_2_1_" d="M-23.1528 32.246 L-22.1588 30.5164 L-21.1648 28.7868 L-20.1708 27.0572 L-19.1768 25.3276 L-18.1828 23.598 L-17.1816 25.3248 L-16.1804 27.0516 L-15.1792 28.7784 L-14.178 30.5052 L-13.1768 32.232 L-15.172 32.2348 L-17.1672 32.2376 L-19.1624 32.2404 L-21.1576 32.2432 L-23.1528 32.246 Z " />
<path stroke="rgb(200,255,200)" stroke-opacity="1" fill="rgb(200,255,200)" fill-opacity="1" id="tri_1" d="M-18.1828 23.598 L-19.1768 25.3276 L-20.1708 27.0572 L-21.1648 28.7868 L-22.1588 30.5164 L-23.1528 32.246 L-24.1536 30.5198 L-25.1544 28.7936 L-26.1552 27.0674 L-27.156 25.3412 L-28.1568 23.615 L-26.162 23.6116 L-24.1672 23.6082 L-22.1724 23.6048 L-20.1776 23.6014 L-18.1828 23.598 Z " />
<path stroke="rgb(200,255,200)" stroke-opacity="1" fill="rgb(200,255,200)" fill-opacity="1" id="tri_3_1_" d="M-13.1768 32.232 L-12.1826 30.5018 L-11.1884 28.7716 L-10.1942 27.0414 L-9.19996 25.3112 L-8.20576 23.581 L-7.20516 25.3076 L-6.20456 27.0342 L-5.20396 28.7608 L-4.20336 30.4874 L-3.20276 32.214 L-5.19756 32.2176 L-7.19236 32.2212 L-9.18716 32.2248 L-11.182 32.2284 L-13.1768 32.232 Z " />
<path stroke="rgb(200,255,200)" stroke-opacity="1" fill="rgb(200,255,200)" fill-opacity="1" id="tri_2" d="M-8.20576 23.581 L-9.19996 25.3112 L-10.1942 27.0414 L-11.1884 28.7716 L-12.1826 30.5018 L-13.1768 32.232 L-14.178 30.5052 L-15.1792 28.7784 L-16.1804 27.0516 L-17.1816 25.3248 L-18.1828 23.598 L-16.1874 23.5946 L-14.192 23.5912 L-12.1966 23.5878 L-10.2012 23.5844 L-8.20576 23.581 Z " />
<path stroke="rgb(200,255,200)" stroke-opacity="1" fill="rgb(200,255,200)" fill-opacity="1" id="tri_4_1_" d="M-3.20276 32.214 L-2.20836 30.4844 L-1.21396 28.7548 L-0.219558 27.0252 L0.774842 25.2956 L1.76924 23.566 L2.76984 25.2918 L3.77044 27.0176 L4.77104 28.7434 L5.77164 30.4692 L6.77224 32.195 L4.77724 32.1988 L2.78224 32.2026 L0.787241 32.2064 L-1.20776 32.2102 L-3.20276 32.214 Z " />
<path stroke="rgb(200,255,200)" stroke-opacity="1" fill="rgb(200,255,200)" fill-opacity="1" id="tri_3" d="M1.76924 23.566 L0.774842 25.2956 L-0.219558 27.0252 L-1.21396 28.7548 L-2.20836 30.4844 L-3.20276 32.214 L-4.20336 30.4874 L-5.20396 28.7608 L-6.20456 27.0342 L-7.20516 25.3076 L-8.20576 23.581 L-6.21076 23.578 L-4.21576 23.575 L-2.22076 23.572 L-0.225757 23.569 L1.76924 23.566 Z " />
<path stroke="rgb(200,255,200)" stroke-opacity="1" fill="rgb(200,255,200)" fill-opacity="1" id="tri_5_1_" d="M6.77224 32.195 L7.76704 30.465 L8.76184 28.735 L9.75664 27.005 L10.7514 25.275 L11.7462 23.545 L12.7466 25.2718 L13.747 26.9986 L14.7474 28.7254 L15.7478 30.4522 L16.7482 32.179 L14.753 32.1822 L12.7578 32.1854 L10.7626 32.1886 L8.76744 32.1918 L6.77224 32.195 Z " />
<path stroke="rgb(200,255,200)" stroke-opacity="1" fill="rgb(200,255,200)" fill-opacity="1" id="tri_4" d="M11.7462 23.545 L10.7514 25.275 L9.75664 27.005 L8.76184 28.735 L7.76704 30.465 L6.77224 32.195 L5.77164 30.4692 L4.77104 28.7434 L3.77044 27.0176 L2.76984 25.2918 L1.76924 23.566 L3.76464 23.5618 L5.76004 23.5576 L7.75544 23.5534 L9.75084 23.5492 L11.7462 23.545 Z " />
<path stroke="rgb(200,255,200)" stroke-opacity="1" fill="rgb(200,255,200)" fill-opacity="1" id="tri_6_1_" d="M16.7482 32.179 L17.7426 30.4492 L18.737 28.7194 L19.7314 26.9896 L20.7258 25.2598 L21.7202 23.53 L22.7214 25.2562 L23.7226 26.9824 L24.7238 28.7086 L25.725 30.4348 L26.7262 32.161 L24.7306 32.1646 L22.735 32.1682 L20.7394 32.1718 L18.7438 32.1754 L16.7482 32.179 Z " />
<path stroke="rgb(200,255,200)" stroke-opacity="1" fill="rgb(200,255,200)" fill-opacity="1" id="tri_5" d="M21.7202 23.53 L20.7258 25.2598 L19.7314 26.9896 L18.737 28.7194 L17.7426 30.4492 L16.7482 32.179 L15.7478 30.4522 L14.7474 28.7254 L13.747 26.9986 L12.7466 25.2718 L11.7462 23.545 L13.741 23.542 L15.7358 23.539 L17.7306 23.536 L19.7254 23.533 L21.7202 23.53 Z " />
<path stroke="rgb(200,255,200)" stroke-opacity="1" fill="rgb(200,255,200)" fill-opacity="1" id="tri_7_1_" d="M26.7262 32.161 L27.7204 30.4312 L28.7146 28.7014 L29.7088 26.9716 L30.703 25.2418 L31.6972 23.512 L32.6976 25.2386 L33.698 26.9652 L34.6984 28.6918 L35.6988 30.4184 L36.6992 32.145 L34.7046 32.1482 L32.71 32.1514 L30.7154 32.1546 L28.7208 32.1578 L26.7262 32.161 Z " />
<path stroke="rgb(200,255,200)" stroke-opacity="1" fill="rgb(200,255,200)" fill-opacity="1" id="tri_6" d="M31.6972 23.512 L30.703 25.2418 L29.7088 26.9716 L28.7146 28.7014 L27.7204 30.4312 L26.7262 32.161 L25.725 30.4348 L24.7238 28.7086 L23.7226 26.9824 L22.7214 25.2562 L21.7202 23.53 L23.7156 23.5264 L25.711 23.5228 L27.7064 23.5192 L29.7018 23.5156 L31.6972 23.512 Z " />
<path stroke="rgb(200,255,200)" stroke-opacity="1" fill="rgb(200,255,200)" fill-opacity="1" id="tri_8_1_" d="M36.6992 32.145 L37.6936 30.4148 L38.688 28.6846 L39.6824 26.9544 L40.6768 25.2242 L41.6712 23.494 L42.6722 25.2206 L43.6732 26.9472 L44.6742 28.6738 L45.6752 30.4004 L46.6762 32.127 L44.6808 32.1306 L42.6854 32.1342 L40.69 32.1378 L38.6946 32.1414 L36.6992 32.145 Z " />
<path stroke="rgb(200,255,200)" stroke-opacity="1" fill="rgb(200,255,200)" fill-opacity="1" id="tri_7" d="M41.6712 23.494 L40.6768 25.2242 L39.6824 26.9544 L38.688 28.6846 L37.6936 30.4148 L36.6992 32.145 L35.6988 30.4184 L34.6984 28.6918 L33.698 26.9652 L32.6976 25.2386 L31.6972 23.512 L33.692 23.5084 L35.6868 23.5048 L37.6816 23.5012 L39.6764 23.4976 L41.6712 23.494 Z " />
<path stroke="rgb(200,255,200)" stroke-opacity="1" fill="rgb(200,255,200)" fill-opacity="1" id="tri_9" d="M46.6762 32.127 L47.6706 30.3972 L48.665 28.6674 L49.6594 26.9376 L50.6538 25.2078 L51.6482 23.478 L52.6488 25.204 L53.6494 26.93 L54.65 28.656 L55.6506 30.382 L56.6512 32.108 L54.6562 32.1118 L52.6612 32.1156 L50.6662 32.1194 L48.6712 32.1232 L46.6762 32.127 Z " />
<path stroke="rgb(200,255,200)" stroke-opacity="1" fill="rgb(200,255,200)" fill-opacity="1" id="tri_8" d="M51.6482 23.478 L50.6538 25.2078 L49.6594 26.9376 L48.665 28.6674 L47.6706 30.3972 L46.6762 32.127 L45.6752 30.4004 L44.6742 28.6738 L43.6732 26.9472 L42.6722 25.2206 L41.6712 23.494 L43.6666 23.4908 L45.662 23.4876 L47.6574 23.4844 L49.6528 23.4812 L51.6482 23.478 Z " />
</g>
</g>
</svg>
