<!DOCTYPE svg>
<svg xmlns="http://www.w3.org/2000/svg" xmlns:xlink="http://www.w3.org/1999/xlink" width="600" height="600">
<g transform="translate(300.000000,300.000000)">
<g transform="scale(3.000000,3.000000)">
<path stroke="rgb(0,0,0)" stroke-opacity="1" fill="rgb(255,255,255)" fill-opacity="1" id="Layer_1" d="M107.411 107.089 L105.406 107.092 L103.402 107.095 L101.397 107.098 L99.3922 107.101 L97.3875 107.104 L95.3828 107.107 L93.3782 107.11 L91.3735 107.113 L89.3688 107.116 L87.3641 107.119 L85.3595 107.122 L83.3548 107.125 L81.3501 107.128 L79.3455 107.131 L77.3408 107.134 L75.3361 107.137 L73.3314 107.14 L71.3268 107.143 L69.3221 107.146 L67.3174 107.149 L65.3127 107.152 L63.3081 107.155 L61.3034 107.158 L59.2987 107.161 L57.2941 107.164 L55.2894 107.167 L53.2847 107.17 L51.28 107.173 L49.2754 107.176 L47.2707 107.179 L45.266 107.182 L43.2613 107.185 L41.2567 107.188 L39.252 107.191 L37.2473 107.194 L35.2426 107.197 L33.238 107.2 L31.2333 107.203 L29.2286 107.206 L27.224 107.209 L25.2193 107.212 L23.2146 107.215 L21.2099 107.218 L19.2053 107.221 L17.2006 107.224 L15.1959 107.227 L13.1912 107.23 L11.1866 107.233 L9.1819 107.236 L7.17723 107.239 L5.17256 107.242 L3.16788 107.245 L1.16321 107.248 L-0.841463 107.252 L-2.84614 107.255 L-4.85081 107.258 L-6.85548 107.261 L-8.86015 107.264 L-10.8648 107.267 L-12.8695 107.27 L-14.8742 107.273 L-16.8788 107.276 L-18.8835 107.279 L-20.8882 107.282 L-22.8929 107.285 L-24.8975 107.288 L-26.9022 107.291 L-28.9069 107.294 L-30.9116 107.297 L-32.9162 107.3 L-34.9209 107.303 L-36.9256 107.306 L-38.9302 107.309 L-40.9349 107.312 L-42.9396 107.315 L-44.9443 107.318 L-46.9489 107.321 L-48.9536 107.324 L-50.9583 107.327 L-52.963 107.33 L-54.9676 107.333 L-56.9723 107.336 L-58.977 107.339 L-60.9816 107.342 L-62.9863 107.345 L-64.991 107.348 L-66.9957 107.351 L-69.0003 107.354 L-71.005 107.357 L-73.0097 107.36 L-75.0144 107.363 L-77.019 107.366 L-79.0237 107.369 L-81.0284 107.372 L-83.0331 107.375 L-85.0377 107.378 L-87.0424 107.381 L-89.0471 107.384 L-91.0517 107.387 L-93.0564 107.39 L-95.0611 107.393 L-97.0658 107.396 L-99.0704 107.399 L-101.075 107.402 L-103.08 107.405 L-105.084 107.408 L-107.089 107.411 L-107.092 105.406 L-107.095 103.402 L-107.098 101.397 L-107.101 99.3922 L-107.104 97.3875 L-107.107 95.3828 L-107.11 93.3782 L-107.113 91.3735 L-107.116 89.3688 L-107.119 87.3641 L-107.122 85.3595 L-107.125 83.3548 L-107.128 81.3501 L-107.131 79.3455 L-107.134 77.3408 L-107.137 75.3361 L-107.14 73.3314 L-107.143 71.3268 L-107.146 69.3221 L-107.149 67.3174 L-107.152 65.3127 L-107.155 63.3081 L-107.158 61.3034 L-107.161 59.2987 L-107.164 57.2941 L-107.167 55.2894 L-107.17 53.2847 L-107.173 51.28 L-107.176 49.2754 L-107.179 47.2707 L-107.182 45.266 L-107.185 43.2613 L-107.188 41.2567 L-107.191 39.252 L-107.194 37.2473 L-107.197 35.2426 L-107.2 33.238 L-107.203 31.2333 L-107.206 29.2286 L-107.209 27.224 L-107.212 25.2193 L-107.215 23.2146 L-107.218 21.2099 L-107.221 19.2053 L-107.224 17.2006 L-107.227 15.1959 L-107.23 13.1912 L-107.233 11.1866 L-107.236 9.1819 L-107.239 7.17722 L-107.242 5.17255 L-107.245 3.16788 L-107.248 1.1632 L-107.251 -0.841469 L-107.255 -2.84614 L-107.258 -4.85081 L-107.261 -6.85549 L-107.264 -8.86016 L-107.267 -10.8648 L-107.27 -12.8695 L-107.273 -14.8742 L-107.276 -16.8789 L-107.279 -18.8835 L-107.282 -20.8882 L-107.285 -22.8929 L-107.288 -24.8975 L-107.291 -26.9022 L-107.294 -28.9069 L-107.297 -30.9116 L-107.3 -32.9162 L-107.303 -34.9209 L-107.306 -36.9256 L-107.309 -38.9303 L-107.312 -40.9349 L-107.315 -42.9396 L-107.318 -44.9443 L-107.321 -46.9489 L-107.324 -48.9536 L-107.327 -50.9583 L-107.33 -52.963 L-107.333 -54.9676 L-107.336 -56.9723 L-107.339 -58.977 L-107.342 -60.9817 L-107.345 -62.9863 L-107.348 -64.991 L-107.351 -66.9957 L-107.354 -69.0003 L-107.357 -71.005 L-107.36 -73.0097 L-107.363 -75.0144 L-107.366 -77.019 L-107.369 -79.0237 L-107.372 -81.0284 L-107.375 -83.0331 L-107.378 -85.0377 L-107.381 -87.0424 L-107.384 -89.0471 L-107.387 -91.0518 L-107.39 -93.0564 L-107.393 -95.0611 L-107.396 -97.0658 L-107.399 -99.0704 L-107.402 -101.075 L-107.405 -103.08 L-107.408 -105.084 L-107.411 -107.089 L-105.406 -107.092 L-103.402 -107.095 L-101.397 -107.098 L-99.3922 -107.101 L-97.3875 -107.104 L-95.3828 -107.107 L-93.3782 -107.11 L-91.3735 -107.113 L-89.3688 -107.116 L-87.3641 -107.119 L-85.3595 -107.122 L-83.3548 -107.125 L-81.3501 -107.128 L-79.3455 -107.131 L-77.3408 -107.134 L-75.3361 -107.137 L-73.3314 -107.14 L-71.3268 -107.143 L-69.3221 -107.146 L-67.3174 -107.149 L-65.3127 -107.152 L-63.3081 -107.155 L-61.3034 -107.158 L-59.2987 -107.161 L-57.2941 -107.164 L-55.2894 -107.167 L-53.2847 -107.17 L-51.28 -107.173 L-49.2754 -107.176 L-47.2707 -107.179 L-45.266 -107.182 L-43.2613 -107.185 L-41.2567 -107.188 L-39.252 -107.191 L-37.2473 -107.194 L-35.2426 -107.197 L-33.238 -107.2 L-31.2333 -107.203 L-29.2286 -107.206 L-27.224 -107.209 L-25.2193 -107.212 L-23.2146 -107.215 L-21.2099 -107.218 L-19.2053 -107.221 L-17.2006 -107.224 L-15.1959 -107.227 L-13.1912 -107.23 L-11.1866 -107.233 L-9.1819 -107.236 L-7.17723 -107.239 L-5.17256 -107.242 L-3.16788 -107.245 L-1.16321 -107.248 L0.841463 -107.252 L2.84614 -107.255 L4.85081 -107.258 L6.85548 -107.261 L8.86015 -107.264 L10.8648 -107.267 L12.8695 -107.27 L14.8742 -107.273 L16.8788 -107.276 L18.8835 -107.279 L20.8882 -107.282 L22.8929 -107.285 L24.8975 -107.288 L26.9022 -107.291 L28.9069 -107.294 L30.9116 -107.297 L32.9162 -107.3 L34.9209 -107.303 L36.9256 -107.306 L38.9302 -107.309 L40.9349 -107.312 L42.9396 -107.315 L44.9443 -107.318 L46.9489 -107.321 L48.9536 -107.324 L50.9583 -107.327 L52.963 -107.33 L54.9676 -107.333 L56.9723 -107.336 L58.977 -107.339 L60.9816 -107.342 L62.9863 -107.345 L64.991 -107.348 L66.9957 -107.351 L69.0003 -107.354 L71.005 -107.357 L73.0097 -107.36 L75.0144 -107.363 L77.019 -107.366 L79.0237 -107.369 L81.0284 -107.372 L83.0331 -107.375 L85.0377 -107.378 L87.0424 -107.381 L89.0471 -107.384 L91.0517 -107.387 L93.0564 -107.39 L95.0611 -107.393 L97.0658 -107.396 L99.0704 -107.399 L101.075 -107.402 L103.08 -107.405 L105.084 -107.408 L107.089 -107.411 L107.092 -105.406 L107.095 -103.402 L107.098 -101.397 L107.101 -99.3922 L107.104 -97.3875 L107.107 -95.3828 L107.11 -93.3782 L107.113 -91.3735 L107.116 -89.3688 L107.119 -87.3642 L107.122 -85.3595 L107.125 -83.3548 L107.128 -81.3501 L107.131 -79.3455 L107.134 -77.3408 L107.137 -75.3361 L107.14 -73.3314 L107.143 -71.3268 L107.146 -69.3221 L107.149 -67.3174 L107.152 -65.3128 L107.155 -63.3081 L107.158 -61.3034 L107.161 -59.2987 L107.164 -57.2941 L107.167 -55.2894 L107.17 -53.2847 L107.173 -51.28 L107.176 -49.2754 L107.179 -47.2707 L107.182 -45.266 L107.185 -43.2613 L107.188 -41.2567 L107.191 -39.252 L107.194 -37.2473 L107.197 -35.2427 L107.2 -33.238 L107.203 -31.2333 L107.206 -29.2286 L107.209 -27.224 L107.212 -25.2193 L107.215 -23.2146 L107.218 -21.2099 L107.221 -19.2053 L107.224 -17.2006 L107.227 -15.1959 L107.23 -13.1913 L107.233 -11.1866 L107.236 -9.18191 L107.239 -7.17724 L107.242 -5.17256 L107.245 -3.16789 L107.248 -1.16322 L107.251 0.841455 L107.255 2.84613 L107.258 4.8508 L107.261 6.85547 L107.264 8.86015 L107.267 10.8648 L107.27 12.8695 L107.273 14.8742 L107.276 16.8788 L107.279 18.8835 L107.282 20.8882 L107.285 22.8929 L107.288 24.8975 L107.291 26.9022 L107.294 28.9069 L107.297 30.9115 L107.3 32.9162 L107.303 34.9209 L107.306 36.9256 L107.309 38.9302 L107.312 40.9349 L107.315 42.9396 L107.318 44.9443 L107.321 46.9489 L107.324 48.9536 L107.327 50.9583 L107.33 52.963 L107.333 54.9676 L107.336 56.9723 L107.339 58.977 L107.342 60.9816 L107.345 62.9863 L107.348 64.991 L107.351 66.9957 L107.354 69.0003 L107.357 71.005 L107.36 73.0097 L107.363 75.0144 L107.366 77.019 L107.369 79.0237 L107.372 81.0284 L107.375 83.033 L107.378 85.0377 L107.381 87.0424 L107.384 89.0471 L107.387 91.0517 L107.39 93.0564 L107.393 95.0611 L107.396 97.0658 L107.399 99.0704 L107.402 101.075 L107.405 103.08 L107.408 105.084 L107.411 107.089 Z " />
<path stroke="rgb(169,255,187)" stroke-opacity="1" fill="rgb(169,255,187)" fill-opacity="1" id="scalebar" d="M-3.69904 -94.609 L-1.65554 -94.609 L0.387962 -94.609 L2.43146 -94.609 L4.47496 -94.609 L4.47496 -92.6686 L4.47496 -90.7281 L4.47496 -88.7876 L4.47496 -86.8472 L4.47496 -84.9067 L4.47496 -82.9663 L4.47496 -81.0258 L4.47496 -79.0853 L4.47496 -77.1449 L4.47496 -75.2044 L4.47496 -73.2639 L4.47496 -71.3235 L4.47496 -69.383 L2.43146 -69.383 L0.387962 -69.383 L-1.65554 -69.383 L-3.69904 -69.383 L-3.69904 -71.3235 L-3.69904 -73.2639 L-3.69904 -75.2044 L-3.69904 -77.1449 L-3.69904 -79.0853 L-3.69904 -81.0258 L-3.69904 -82.9663 L-3.69904 -84.9067 L-3.69904 -86.8472 L-3.69904 -88.7876 L-3.69904 -90.7281 L-3.69904 -92.6686 L-3.69904 -94.609 Z " />
<path stroke="rgb(200,255,200)" stroke-opacity="1" fill="rgb(200,255,200)" fill-opacity="1" id="scaleslider" d="M-6.69904 -84.587 L-4.67418 -84.587 L-2.64932 -84.587 L-0.624466 -84.587 L1.40039 -84.587 L3.42525 -84.587 L5.4501 -84.587 L7.47496 -84.587 L7.47496 -82.8604 L7.47496 -81.1337 L7.47496 -79.407 L5.4501 -79.407 L3.42525 -79.407 L1.40039 -79.407 L-0.624466 -79.407 L-2.64932 -79.407 L-4.67418 -79.407 L-6.69904 -79.407 L-6.69904 -81.1337 L-6.69904 -82.8604 L-6.69904 -84.587 Z " />
<path stroke="rgb(255,134,106)" stroke-opacity="1" fill="rgb(255,134,106)" fill-opacity="1" id="tranbar" d="M-49.142 -86.146 L-47.0675 -86.146 L-44.993 -86.146 L-42.9185 -86.146 L-40.844 -86.146 L-40.844 -88.2208 L-40.844 -90.2955 L-40.844 -92.3703 L-40.844 -94.445 L-38.7685 -94.445 L-36.693 -94.445 L-34.6175 -94.445 L-32.542 -94.445 L-32.542 -92.3703 L-32.542 -90.2955 L-32.542 -88.2208 L-32.542 -86.146 L-30.4673 -86.146 L-28.3925 -86.146 L-26.3178 -86.146 L-24.243 -86.146 L-24.243 -84.0715 L-24.243 -81.997 L-24.243 -79.9225 L-24.243 -77.848 L-26.3178 -77.848 L-28.3925 -77.848 L-30.4673 -77.848 L-32.542 -77.848 L-32.542 -75.773 L-32.542 -73.698 L-32.542 -71.623 L-32.542 -69.548 L-34.6175 -69.548 L-36.693 -69.548 L-38.7685 -69.548 L-40.844 -69.548 L-40.844 -71.623 L-40.844 -73.698 L-40.844 -75.773 L-40.844 -77.848 L-42.9185 -77.848 L-44.993 -77.848 L-47.0675 -77.848 L-49.142 -77.848 L-49.142 -79.9225 L-49.142 -81.997 L-49.142 -84.0715 L-49.142 -86.146 Z " />
<path stroke="rgb(255,250,159)" stroke-opacity="1" fill="rgb(255,250,159)" fill-opacity="1" id="translider" d="M-32.6419 -84.553 L-30.9386 -84.553 L-29.2353 -84.553 L-27.5319 -84.553 L-27.5319 -82.85 L-27.5319 -81.147 L-27.5319 -79.444 L-29.2353 -79.444 L-30.9386 -79.444 L-32.6419 -79.444 L-32.6419 -81.147 L-32.6419 -82.85 L-32.6419 -84.553 Z " />
<path stroke="rgb(254,204,128)" stroke-opacity="1" fill="rgb(254,204,128)" fill-opacity="1" id="rotate" d="M32.632 -73.62 L31.6646 -75.2952 L30.6972 -76.9704 L29.7298 -78.6456 L28.7624 -80.3208 L27.795 -81.996 L28.7624 -83.6714 L29.7298 -85.3468 L30.6972 -87.0222 L31.6646 -88.6976 L32.632 -90.373 L34.5668 -90.373 L36.5016 -90.373 L38.4364 -90.373 L40.3712 -90.373 L42.306 -90.373 L43.2734 -88.6976 L44.2408 -87.0222 L45.2082 -85.3468 L46.1756 -83.6714 L47.143 -81.996 L46.1756 -80.3208 L45.2082 -78.6456 L44.2408 -76.9704 L43.2734 -75.2952 L42.306 -73.62 L40.3712 -73.62 L38.4364 -73.62 L36.5016 -73.62 L34.5668 -73.62 L32.632 -73.62 Z " />
<path stroke="rgb(200,255,200)" stroke-opacity="1" fill="rgb(200,255,200)" fill-opacity="1" id="tri_0" d="M1.54207 -45.56 L2.53707 -47.2894 L3.53207 -49.0188 L4.52707 -50.7482 L5.52207 -52.4776 L6.51707 -54.207 L7.51747 -52.4812 L8.51787 -50.7554 L9.51827 -49.0296 L10.5187 -47.3038 L11.5191 -45.578 L9.52367 -45.5744 L7.52827 -45.5708 L5.53287 -45.5672 L3.53747 -45.5636 L1.54207 -45.56 Z " />
<path stroke="rgb(200,255,200)" stroke-opacity="1" fill="rgb(200,255,200)" fill-opacity="1" id="tri_0_18_" d="M-3.42793 -36.913 L-2.43393 -38.6424 L-1.43993 -40.3718 L-0.445931 -42.1012 L0.548068 -43.8306 L1.54207 -45.56 L2.54287 -43.834 L3.54367 -42.108 L4.54447 -40.382 L5.54527 -38.656 L6.54607 -36.93 L4.55127 -36.9266 L2.55647 -36.9232 L0.561672 -36.9198 L-1.43313 -36.9164 L-3.42793 -36.913 Z " />
<path stroke="rgb(200,255,200)" stroke-opacity="1" fill="rgb(200,255,200)" fill-opacity="1" id="tri_1_16_" d="M6.54607 -36.93 L7.54067 -38.6596 L8.53527 -40.3892 L9.52987 -42.1188 L10.5245 -43.8484 L11.5191 -45.578 L12.5197 -43.8518 L13.5203 -42.1256 L14.5209 -40.3994 L15.5215 -38.6732 L16.5221 -36.947 L14.5269 -36.9436 L12.5317 -36.9402 L10.5365 -36.9368 L8.54127 -36.9334 L6.54607 -36.93 Z " />
<path stroke="rgb(200,255,200)" stroke-opacity="1" fill="rgb(200,255,200)" fill-opacity="1" id="tri_0_17_" d="M11.5191 -45.578 L10.5245 -43.8484 L9.52987 -42.1188 L8.53527 -40.3892 L7.54067 -38.6596 L6.54607 -36.93 L5.54527 -38.656 L4.54447 -40.382 L3.54367 -42.108 L2.54287 -43.834 L1.54207 -45.56 L3.53747 -45.5636 L5.53287 -45.5672 L7.52827 -45.5708 L9.52367 -45.5744 L11.5191 -45.578 Z " />
<path stroke="rgb(200,255,200)" stroke-opacity="1" fill="rgb(200,255,200)" fill-opacity="1" id="tri_0_16_" d="M-8.40193 -28.263 L-7.40713 -29.993 L-6.41233 -31.723 L-5.41753 -33.453 L-4.42273 -35.183 L-3.42793 -36.913 L-2.42733 -35.1862 L-1.42673 -33.4594 L-0.426129 -31.7326 L0.574471 -30.0058 L1.57507 -28.279 L-0.420331 -28.2758 L-2.41573 -28.2726 L-4.41113 -28.2694 L-6.40653 -28.2662 L-8.40193 -28.263 Z " />
<path stroke="rgb(200,255,200)" stroke-opacity="1" fill="rgb(200,255,200)" fill-opacity="1" id="tri_1_15_" d="M1.57507 -28.279 L2.56927 -30.0092 L3.56347 -31.7394 L4.55767 -33.4696 L5.55187 -35.1998 L6.54607 -36.93 L7.54687 -35.2032 L8.54767 -33.4764 L9.54847 -31.7496 L10.5493 -30.0228 L11.5501 -28.296 L9.55507 -28.2926 L7.56007 -28.2892 L5.56507 -28.2858 L3.57007 -28.2824 L1.57507 -28.279 Z " />
<path stroke="rgb(200,255,200)" stroke-opacity="1" fill="rgb(200,255,200)" fill-opacity="1" id="tri_0_15_" d="M6.54607 -36.93 L5.55187 -35.1998 L4.55767 -33.4696 L3.56347 -31.7394 L2.56927 -30.0092 L1.57507 -28.279 L0.574471 -30.0058 L-0.426129 -31.7326 L-1.42673 -33.4594 L-2.42733 -35.1862 L-3.42793 -36.913 L-1.43313 -36.9164 L0.561672 -36.9198 L2.55647 -36.9232 L4.55127 -36.9266 L6.54607 -36.93 Z " />
<path stroke="rgb(200,255,200)" stroke-opacity="1" fill="rgb(200,255,200)" fill-opacity="1" id="tri_2_14_" d="M11.5501 -28.296 L12.5445 -30.0262 L13.5389 -31.7564 L14.5333 -33.4866 L15.5277 -35.2168 L16.5221 -36.947 L17.5225 -35.22 L18.5229 -33.493 L19.5233 -31.766 L20.5237 -30.039 L21.5241 -28.312 L19.5293 -28.3088 L17.5345 -28.3056 L15.5397 -28.3024 L13.5449 -28.2992 L11.5501 -28.296 Z " />
<path stroke="rgb(200,255,200)" stroke-opacity="1" fill="rgb(200,255,200)" fill-opacity="1" id="tri_1_14_" d="M16.5221 -36.947 L15.5277 -35.2168 L14.5333 -33.4866 L13.5389 -31.7564 L12.5445 -30.0262 L11.5501 -28.296 L10.5493 -30.0228 L9.54847 -31.7496 L8.54767 -33.4764 L7.54687 -35.2032 L6.54607 -36.93 L8.54127 -36.9334 L10.5365 -36.9368 L12.5317 -36.9402 L14.5269 -36.9436 L16.5221 -36.947 Z " />
<path stroke="rgb(200,255,200)" stroke-opacity="1" fill="rgb(200,255,200)" fill-opacity="1" id="tri_0_14_" d="M-13.3749 -19.612 L-12.3803 -21.3422 L-11.3857 -23.0724 L-10.3911 -24.8026 L-9.39654 -26.5328 L-8.40193 -28.263 L-7.40173 -26.5364 L-6.40153 -24.8098 L-5.40133 -23.0832 L-4.40114 -21.3566 L-3.40094 -19.63 L-5.39574 -19.6264 L-7.39054 -19.6228 L-9.38533 -19.6192 L-11.3801 -19.6156 L-13.3749 -19.612 Z " />
<path stroke="rgb(200,255,200)" stroke-opacity="1" fill="rgb(200,255,200)" fill-opacity="1" id="tri_1_13_" d="M-3.40094 -19.63 L-2.40573 -21.3598 L-1.41053 -23.0896 L-0.415332 -24.8194 L0.579869 -26.5492 L1.57507 -28.279 L2.57567 -26.5528 L3.57627 -24.8266 L4.57687 -23.1004 L5.57747 -21.3742 L6.57807 -19.648 L4.58227 -19.6444 L2.58647 -19.6408 L0.590666 -19.6372 L-1.40514 -19.6336 L-3.40094 -19.63 Z " />
<path stroke="rgb(200,255,200)" stroke-opacity="1" fill="rgb(200,255,200)" fill-opacity="1" id="tri_0_13_" d="M1.57507 -28.279 L0.579869 -26.5492 L-0.415332 -24.8194 L-1.41053 -23.0896 L-2.40573 -21.3598 L-3.40094 -19.63 L-4.40114 -21.3566 L-5.40133 -23.0832 L-6.40153 -24.8098 L-7.40173 -26.5364 L-8.40193 -28.263 L-6.40653 -28.2662 L-4.41113 -28.2694 L-2.41573 -28.2726 L-0.420331 -28.2758 L1.57507 -28.279 Z " />
<path stroke="rgb(200,255,200)" stroke-opacity="1" fill="rgb(200,255,200)" fill-opacity="1" id="tri_2_13_" d="M6.57807 -19.648 L7.57247 -21.3776 L8.56687 -23.1072 L9.56127 -24.8368 L10.5557 -26.5664 L11.5501 -28.296 L12.5505 -26.5694 L13.5509 -24.8428 L14.5513 -23.1162 L15.5517 -21.3896 L16.5521 -19.663 L14.5573 -19.66 L12.5625 -19.657 L10.5677 -19.654 L8.57287 -19.651 L6.57807 -19.648 Z " />
<path stroke="rgb(200,255,200)" stroke-opacity="1" fill="rgb(200,255,200)" fill-opacity="1" id="tri_1_12_" d="M11.5501 -28.296 L10.5557 -26.5664 L9.56127 -24.8368 L8.56687 -23.1072 L7.57247 -21.3776 L6.57807 -19.648 L5.57747 -21.3742 L4.57687 -23.1004 L3.57627 -24.8266 L2.57567 -26.5528 L1.57507 -28.279 L3.57007 -28.2824 L5.56507 -28.2858 L7.56007 -28.2892 L9.55507 -28.2926 L11.5501 -28.296 Z " />
<path stroke="rgb(200,255,200)" stroke-opacity="1" fill="rgb(200,255,200)" fill-opacity="1" id="tri_3_12_" d="M16.5521 -19.663 L17.5465 -21.3928 L18.5409 -23.1226 L19.5353 -24.8524 L20.5297 -26.5822 L21.5241 -28.312 L22.5251 -26.5862 L23.5261 -24.8604 L24.5271 -23.1346 L25.5281 -21.4088 L26.5291 -19.683 L24.5337 -19.679 L22.5383 -19.675 L20.5429 -19.671 L18.5475 -19.667 L16.5521 -19.663 Z " />
<path stroke="rgb(200,255,200)" stroke-opacity="1" fill="rgb(200,255,200)" fill-opacity="1" id="tri_2_12_" d="M21.5241 -28.312 L20.5297 -26.5822 L19.5353 -24.8524 L18.5409 -23.1226 L17.5465 -21.3928 L16.5521 -19.663 L15.5517 -21.3896 L14.5513 -23.1162 L13.5509 -24.8428 L12.5505 -26.5694 L11.5501 -28.296 L13.5449 -28.2992 L15.5397 -28.3024 L17.5345 -28.3056 L19.5293 -28.3088 L21.5241 -28.312 Z " />
<path stroke="rgb(200,255,200)" stroke-opacity="1" fill="rgb(200,255,200)" fill-opacity="1" id="tri_0_12_" d="M-18.3469 -10.967 L-17.3525 -12.696 L-16.3581 -14.425 L-15.3637 -16.154 L-14.3693 -17.883 L-13.3749 -19.612 L-12.3743 -17.8858 L-11.3737 -16.1596 L-10.3731 -14.4334 L-9.37253 -12.7072 L-8.37193 -10.981 L-10.3669 -10.9782 L-12.3619 -10.9754 L-14.3569 -10.9726 L-16.3519 -10.9698 L-18.3469 -10.967 Z " />
<path stroke="rgb(200,255,200)" stroke-opacity="1" fill="rgb(200,255,200)" fill-opacity="1" id="tri_1_11_" d="M-8.37193 -10.981 L-7.37773 -12.7108 L-6.38353 -14.4406 L-5.38933 -16.1704 L-4.39513 -17.9002 L-3.40094 -19.63 L-2.40013 -17.9036 L-1.39933 -16.1772 L-0.398532 -14.4508 L0.60227 -12.7244 L1.60307 -10.998 L-0.391929 -10.9946 L-2.38693 -10.9912 L-4.38193 -10.9878 L-6.37693 -10.9844 L-8.37193 -10.981 Z " />
<path stroke="rgb(200,255,200)" stroke-opacity="1" fill="rgb(200,255,200)" fill-opacity="1" id="tri_0_11_" d="M-3.40094 -19.63 L-4.39513 -17.9002 L-5.38933 -16.1704 L-6.38353 -14.4406 L-7.37773 -12.7108 L-8.37193 -10.981 L-9.37253 -12.7072 L-10.3731 -14.4334 L-11.3737 -16.1596 L-12.3743 -17.8858 L-13.3749 -19.612 L-11.3801 -19.6156 L-9.38533 -19.6192 L-7.39054 -19.6228 L-5.39574 -19.6264 L-3.40094 -19.63 Z " />
<path stroke="rgb(200,255,200)" stroke-opacity="1" fill="rgb(200,255,200)" fill-opacity="1" id="tri_2_11_" d="M1.60307 -10.998 L2.59807 -12.728 L3.59307 -14.458 L4.58807 -16.188 L5.58307 -17.918 L6.57807 -19.648 L7.57807 -17.9216 L8.57807 -16.1952 L9.57807 -14.4688 L10.5781 -12.7424 L11.5781 -11.016 L9.58307 -11.0124 L7.58807 -11.0088 L5.59307 -11.0052 L3.59807 -11.0016 L1.60307 -10.998 Z " />
<path stroke="rgb(200,255,200)" stroke-opacity="1" fill="rgb(200,255,200)" fill-opacity="1" id="tri_1_10_" d="M6.57807 -19.648 L5.58307 -17.918 L4.58807 -16.188 L3.59307 -14.458 L2.59807 -12.728 L1.60307 -10.998 L0.60227 -12.7244 L-0.398532 -14.4508 L-1.39933 -16.1772 L-2.40013 -17.9036 L-3.40094 -19.63 L-1.40514 -19.6336 L0.590666 -19.6372 L2.58647 -19.6408 L4.58227 -19.6444 L6.57807 -19.648 Z " />
<path stroke="rgb(200,255,200)" stroke-opacity="1" fill="rgb(200,255,200)" fill-opacity="1" id="tri_3_11_" d="M11.5781 -11.016 L12.5729 -12.7454 L13.5677 -14.4748 L14.5625 -16.2042 L15.5573 -17.9336 L16.5521 -19.663 L17.5527 -17.9368 L18.5533 -16.2106 L19.5539 -14.4844 L20.5545 -12.7582 L21.5551 -11.032 L19.5597 -11.0288 L17.5643 -11.0256 L15.5689 -11.0224 L13.5735 -11.0192 L11.5781 -11.016 Z " />
<path stroke="rgb(200,255,200)" stroke-opacity="1" fill="rgb(200,255,200)" fill-opacity="1" id="tri_2_10_" d="M16.5521 -19.663 L15.5573 -17.9336 L14.5625 -16.2042 L13.5677 -14.4748 L12.5729 -12.7454 L11.5781 -11.016 L10.5781 -12.7424 L9.57807 -14.4688 L8.57807 -16.1952 L7.57807 -17.9216 L6.57807 -19.648 L8.57287 -19.651 L10.5677 -19.654 L12.5625 -19.657 L14.5573 -19.66 L16.5521 -19.663 Z " />
<path stroke="rgb(200,255,200)" stroke-opacity="1" fill="rgb(200,255,200)" fill-opacity="1" id="tri_4_10_" d="M21.5551 -11.032 L22.5499 -12.7622 L23.5447 -14.4924 L24.5395 -16.2226 L25.5343 -17.9528 L26.5291 -19.683 L27.5295 -17.9562 L28.5299 -16.2294 L29.5303 -14.5026 L30.5307 -12.7758 L31.5311 -11.049 L29.5359 -11.0456 L27.5407 -11.0422 L25.5455 -11.0388 L23.5503 -11.0354 L21.5551 -11.032 Z " />
<path stroke="rgb(200,255,200)" stroke-opacity="1" fill="rgb(200,255,200)" fill-opacity="1" id="tri_3_10_" d="M26.5291 -19.683 L25.5343 -17.9528 L24.5395 -16.2226 L23.5447 -14.4924 L22.5499 -12.7622 L21.5551 -11.032 L20.5545 -12.7582 L19.5539 -14.4844 L18.5533 -16.2106 L17.5527 -17.9368 L16.5521 -19.663 L18.5475 -19.667 L20.5429 -19.671 L22.5383 -19.675 L24.5337 -19.679 L26.5291 -19.683 Z " />
<path stroke="rgb(200,255,200)" stroke-opacity="1" fill="rgb(200,255,200)" fill-opacity="1" id="tri_0_10_" d="M-23.3199 -2.31602 L-22.3253 -4.04622 L-21.3307 -5.77643 L-20.3361 -7.50663 L-19.3415 -9.23683 L-18.3469 -10.967 L-17.3463 -9.23982 L-16.3457 -7.51262 L-15.3451 -5.78543 L-14.3445 -4.05823 L-13.3439 -2.33102 L-15.3391 -2.32803 L-17.3343 -2.32502 L-19.3295 -2.32202 L-21.3247 -2.31902 L-23.3199 -2.31602 Z " />
<path stroke="rgb(200,255,200)" stroke-opacity="1" fill="rgb(200,255,200)" fill-opacity="1" id="tri_1_9_" d="M-13.3439 -2.33102 L-12.3495 -4.06102 L-11.3551 -5.79102 L-10.3607 -7.52103 L-9.36633 -9.25103 L-8.37193 -10.981 L-7.37133 -9.25462 L-6.37073 -7.52822 L-5.37013 -5.80182 L-4.36953 -4.07542 L-3.36893 -2.34902 L-5.36393 -2.34542 L-7.35893 -2.34182 L-9.35393 -2.33822 L-11.3489 -2.33462 L-13.3439 -2.33102 Z " />
<path stroke="rgb(200,255,200)" stroke-opacity="1" fill="rgb(200,255,200)" fill-opacity="1" id="tri_0_9_" d="M-8.37193 -10.981 L-9.36633 -9.25103 L-10.3607 -7.52103 L-11.3551 -5.79102 L-12.3495 -4.06102 L-13.3439 -2.33102 L-14.3445 -4.05823 L-15.3451 -5.78543 L-16.3457 -7.51262 L-17.3463 -9.23982 L-18.3469 -10.967 L-16.3519 -10.9698 L-14.3569 -10.9726 L-12.3619 -10.9754 L-10.3669 -10.9782 L-8.37193 -10.981 Z " />
<path stroke="rgb(200,255,200)" stroke-opacity="1" fill="rgb(200,255,200)" fill-opacity="1" id="tri_2_9_" d="M-3.36893 -2.34902 L-2.37453 -4.07882 L-1.38013 -5.80862 L-0.38573 -7.53842 L0.60867 -9.26822 L1.60307 -10.998 L2.60387 -9.27182 L3.60467 -7.54563 L4.60547 -5.81943 L5.60627 -4.09323 L6.60707 -2.36703 L4.61187 -2.36343 L2.61667 -2.35982 L0.621469 -2.35622 L-1.37373 -2.35262 L-3.36893 -2.34902 Z " />
<path stroke="rgb(200,255,200)" stroke-opacity="1" fill="rgb(200,255,200)" fill-opacity="1" id="tri_1_8_" d="M1.60307 -10.998 L0.60867 -9.26822 L-0.38573 -7.53842 L-1.38013 -5.80862 L-2.37453 -4.07882 L-3.36893 -2.34902 L-4.36953 -4.07542 L-5.37013 -5.80182 L-6.37073 -7.52822 L-7.37133 -9.25462 L-8.37193 -10.981 L-6.37693 -10.9844 L-4.38193 -10.9878 L-2.38693 -10.9912 L-0.391929 -10.9946 L1.60307 -10.998 Z " />
<path stroke="rgb(200,255,200)" stroke-opacity="1" fill="rgb(200,255,200)" fill-opacity="1" id="tri_3_9_" d="M6.60707 -2.36703 L7.60127 -4.09683 L8.59547 -5.82662 L9.58967 -7.55642 L10.5839 -9.28622 L11.5781 -11.016 L12.5787 -9.28962 L13.5793 -7.56322 L14.5799 -5.83682 L15.5805 -4.11043 L16.5811 -2.38403 L14.5863 -2.38063 L12.5915 -2.37723 L10.5967 -2.37383 L8.60187 -2.37043 L6.60707 -2.36703 Z " />
<path stroke="rgb(200,255,200)" stroke-opacity="1" fill="rgb(200,255,200)" fill-opacity="1" id="tri_2_8_" d="M11.5781 -11.016 L10.5839 -9.28622 L9.58967 -7.55642 L8.59547 -5.82662 L7.60127 -4.09683 L6.60707 -2.36703 L5.60627 -4.09323 L4.60547 -5.81943 L3.60467 -7.54563 L2.60387 -9.27182 L1.60307 -10.998 L3.59807 -11.0016 L5.59307 -11.0052 L7.58807 -11.0088 L9.58307 -11.0124 L11.5781 -11.016 Z " />
<path stroke="rgb(200,255,200)" stroke-opacity="1" fill="rgb(200,255,200)" fill-opacity="1" id="tri_4_9_" d="M16.5811 -2.38403 L17.5759 -4.11363 L18.5707 -5.84323 L19.5655 -7.57283 L20.5603 -9.30243 L21.5551 -11.032 L22.5559 -9.30583 L23.5567 -7.57963 L24.5575 -5.85343 L25.5583 -4.12722 L26.5591 -2.40102 L24.5635 -2.39762 L22.5679 -2.39422 L20.5723 -2.39083 L18.5767 -2.38743 L16.5811 -2.38403 Z " />
<path stroke="rgb(200,255,200)" stroke-opacity="1" fill="rgb(200,255,200)" fill-opacity="1" id="tri_3_8_" d="M21.5551 -11.032 L20.5603 -9.30243 L19.5655 -7.57283 L18.5707 -5.84323 L17.5759 -4.11363 L16.5811 -2.38403 L15.5805 -4.11043 L14.5799 -5.83682 L13.5793 -7.56322 L12.5787 -9.28962 L11.5781 -11.016 L13.5735 -11.0192 L15.5689 -11.0224 L17.5643 -11.0256 L19.5597 -11.0288 L21.5551 -11.032 Z " />
<path stroke="rgb(200,255,200)" stroke-opacity="1" fill="rgb(200,255,200)" fill-opacity="1" id="tri_5_8_" d="M26.5591 -2.40102 L27.5535 -4.13062 L28.5479 -5.86022 L29.5423 -7.58983 L30.5367 -9.31943 L31.5311 -11.049 L32.5315 -9.32283 L33.5319 -7.59663 L34.5323 -5.87042 L35.5327 -4.14422 L36.5331 -2.41802 L34.5383 -2.41462 L32.5435 -2.41122 L30.5487 -2.40782 L28.5539 -2.40442 L26.5591 -2.40102 Z " />
<path stroke="rgb(200,255,200)" stroke-opacity="1" fill="rgb(200,255,200)" fill-opacity="1" id="tri_4_8_" d="M31.5311 -11.049 L30.5367 -9.31943 L29.5423 -7.58983 L28.5479 -5.86022 L27.5535 -4.13062 L26.5591 -2.40102 L25.5583 -4.12722 L24.5575 -5.85343 L23.5567 -7.57963 L22.5559 -9.30583 L21.5551 -11.032 L23.5503 -11.0354 L25.5455 -11.0388 L27.5407 -11.0422 L29.5359 -11.0456 L31.5311 -11.049 Z " />
<path stroke="rgb(200,255,200)" stroke-opacity="1" fill="rgb(200,255,200)" fill-opacity="1" id="tri_0_8_" d="M-28.2949 6.33398 L-27.2999 4.60398 L-26.3049 2.87398 L-25.3099 1.14398 L-24.3149 -0.586025 L-23.3199 -2.31602 L-22.3195 -0.589625 L-21.3191 1.13677 L-20.3187 2.86317 L-19.3183 4.58957 L-18.3179 6.31597 L-20.3133 6.31957 L-22.3087 6.32317 L-24.3041 6.32677 L-26.2995 6.33037 L-28.2949 6.33398 Z " />
<path stroke="rgb(200,255,200)" stroke-opacity="1" fill="rgb(200,255,200)" fill-opacity="1" id="tri_1_7_" d="M-18.3179 6.31597 L-17.3231 4.58657 L-16.3283 2.85717 L-15.3335 1.12777 L-14.3387 -0.601625 L-13.3439 -2.33102 L-12.3439 -0.604825 L-11.3439 1.12137 L-10.3439 2.84757 L-9.34393 4.57377 L-8.34393 6.29997 L-10.3387 6.30317 L-12.3335 6.30637 L-14.3283 6.30957 L-16.3231 6.31277 L-18.3179 6.31597 Z " />
<path stroke="rgb(200,255,200)" stroke-opacity="1" fill="rgb(200,255,200)" fill-opacity="1" id="tri_0_7_" d="M-13.3439 -2.33102 L-14.3387 -0.601625 L-15.3335 1.12777 L-16.3283 2.85717 L-17.3231 4.58657 L-18.3179 6.31597 L-19.3183 4.58957 L-20.3187 2.86317 L-21.3191 1.13677 L-22.3195 -0.589625 L-23.3199 -2.31602 L-21.3247 -2.31902 L-19.3295 -2.32202 L-17.3343 -2.32502 L-15.3391 -2.32803 L-13.3439 -2.33102 Z " />
<path stroke="rgb(200,255,200)" stroke-opacity="1" fill="rgb(200,255,200)" fill-opacity="1" id="tri_2_7_" d="M-8.34393 6.29997 L-7.34893 4.57017 L-6.35393 2.84038 L-5.35893 1.11058 L-4.36393 -0.619224 L-3.36893 -2.34902 L-2.36853 -0.622622 L-1.36813 1.10378 L-0.367731 2.83018 L0.632669 4.55657 L1.63307 6.28297 L-0.362331 6.28637 L-2.35773 6.28977 L-4.35313 6.29317 L-6.34853 6.29657 L-8.34393 6.29997 Z " />
<path stroke="rgb(200,255,200)" stroke-opacity="1" fill="rgb(200,255,200)" fill-opacity="1" id="tri_1_6_" d="M-3.36893 -2.34902 L-4.36393 -0.619224 L-5.35893 1.11058 L-6.35393 2.84038 L-7.34893 4.57017 L-8.34393 6.29997 L-9.34393 4.57377 L-10.3439 2.84757 L-11.3439 1.12137 L-12.3439 -0.604825 L-13.3439 -2.33102 L-11.3489 -2.33462 L-9.35393 -2.33822 L-7.35893 -2.34182 L-5.36393 -2.34542 L-3.36893 -2.34902 Z " />
<path stroke="rgb(200,255,200)" stroke-opacity="1" fill="rgb(200,255,200)" fill-opacity="1" id="tri_3_7_" d="M1.63307 6.28297 L2.62787 4.55297 L3.62267 2.82297 L4.61747 1.09297 L5.61227 -0.637028 L6.60707 -2.36703 L7.60727 -0.640426 L8.60747 1.08617 L9.60767 2.81277 L10.6079 4.53937 L11.6081 6.26598 L9.61307 6.26938 L7.61807 6.27278 L5.62307 6.27617 L3.62807 6.27957 L1.63307 6.28297 Z " />
<path stroke="rgb(200,255,200)" stroke-opacity="1" fill="rgb(200,255,200)" fill-opacity="1" id="tri_2_6_" d="M6.60707 -2.36703 L5.61227 -0.637028 L4.61747 1.09297 L3.62267 2.82297 L2.62787 4.55297 L1.63307 6.28297 L0.632669 4.55657 L-0.367731 2.83018 L-1.36813 1.10378 L-2.36853 -0.622622 L-3.36893 -2.34902 L-1.37373 -2.35262 L0.621469 -2.35622 L2.61667 -2.35982 L4.61187 -2.36343 L6.60707 -2.36703 Z " />
<path stroke="rgb(200,255,200)" stroke-opacity="1" fill="rgb(200,255,200)" fill-opacity="1" id="tri_4_7_" d="M11.6081 6.26598 L12.6027 4.53598 L13.5973 2.80598 L14.5919 1.07597 L15.5865 -0.654026 L16.5811 -2.38403 L17.5819 -0.657826 L18.5827 1.06837 L19.5835 2.79457 L20.5843 4.52077 L21.5851 6.24697 L19.5897 6.25077 L17.5943 6.25457 L15.5989 6.25837 L13.6035 6.26218 L11.6081 6.26598 Z " />
<path stroke="rgb(200,255,200)" stroke-opacity="1" fill="rgb(200,255,200)" fill-opacity="1" id="tri_3_6_" d="M16.5811 -2.38403 L15.5865 -0.654026 L14.5919 1.07597 L13.5973 2.80598 L12.6027 4.53598 L11.6081 6.26598 L10.6079 4.53937 L9.60767 2.81277 L8.60747 1.08617 L7.60727 -0.640426 L6.60707 -2.36703 L8.60187 -2.37043 L10.5967 -2.37383 L12.5915 -2.37723 L14.5863 -2.38063 L16.5811 -2.38403 Z " />
<path stroke="rgb(200,255,200)" stroke-opacity="1" fill="rgb(200,255,200)" fill-opacity="1" id="tri_5_7_" d="M21.5851 6.24697 L22.5799 4.51737 L23.5747 2.78777 L24.5695 1.05817 L25.5643 -0.671424 L26.5591 -2.40102 L27.5593 -0.674023 L28.5595 1.05298 L29.5597 2.77998 L30.5599 4.50698 L31.5601 6.23398 L29.5651 6.23658 L27.5701 6.23918 L25.5751 6.24177 L23.5801 6.24437 L21.5851 6.24697 Z " />
<path stroke="rgb(200,255,200)" stroke-opacity="1" fill="rgb(200,255,200)" fill-opacity="1" id="tri_4_6_" d="M26.5591 -2.40102 L25.5643 -0.671424 L24.5695 1.05817 L23.5747 2.78777 L22.5799 4.51737 L21.5851 6.24697 L20.5843 4.52077 L19.5835 2.79457 L18.5827 1.06837 L17.5819 -0.657826 L16.5811 -2.38403 L18.5767 -2.38743 L20.5723 -2.39083 L22.5679 -2.39422 L24.5635 -2.39762 L26.5591 -2.40102 Z " />
<path stroke="rgb(200,255,200)" stroke-opacity="1" fill="rgb(200,255,200)" fill-opacity="1" id="tri_6_6_" d="M31.5601 6.23398 L32.5547 4.50358 L33.5493 2.77318 L34.5439 1.04278 L35.5385 -0.687621 L36.5331 -2.41802 L37.5339 -0.691823 L38.5347 1.03438 L39.5355 2.76058 L40.5363 4.48678 L41.5371 6.21297 L39.5417 6.21718 L37.5463 6.22138 L35.5509 6.22558 L33.5555 6.22978 L31.5601 6.23398 Z " />
<path stroke="rgb(200,255,200)" stroke-opacity="1" fill="rgb(200,255,200)" fill-opacity="1" id="tri_5_6_" d="M36.5331 -2.41802 L35.5385 -0.687621 L34.5439 1.04278 L33.5493 2.77318 L32.5547 4.50358 L31.5601 6.23398 L30.5599 4.50698 L29.5597 2.77998 L28.5595 1.05298 L27.5593 -0.674023 L26.5591 -2.40102 L28.5539 -2.40442 L30.5487 -2.40782 L32.5435 -2.41122 L34.5383 -2.41462 L36.5331 -2.41802 Z " />
<path stroke="rgb(200,255,200)" stroke-opacity="1" fill="rgb(200,255,200)" fill-opacity="1" id="tri_0_6_" d="M-33.2669 14.984 L-32.2725 13.254 L-31.2781 11.524 L-30.2837 9.79398 L-29.2893 8.06398 L-28.2949 6.33398 L-27.2937 8.06058 L-26.2925 9.78717 L-25.2913 11.5138 L-24.2901 13.2404 L-23.2889 14.967 L-25.2845 14.9704 L-27.2801 14.9738 L-29.2757 14.9772 L-31.2713 14.9806 L-33.2669 14.984 Z " />
<path stroke="rgb(200,255,200)" stroke-opacity="1" fill="rgb(200,255,200)" fill-opacity="1" id="tri_1_5_" d="M-23.2889 14.967 L-22.2947 13.2368 L-21.3005 11.5066 L-20.3063 9.77637 L-19.3121 8.04617 L-18.3179 6.31597 L-17.3177 8.04277 L-16.3175 9.76957 L-15.3173 11.4964 L-14.3171 13.2232 L-13.3169 14.95 L-15.3113 14.9534 L-17.3057 14.9568 L-19.3001 14.9602 L-21.2945 14.9636 L-23.2889 14.967 Z " />
<path stroke="rgb(200,255,200)" stroke-opacity="1" fill="rgb(200,255,200)" fill-opacity="1" id="tri_0_5_" d="M-18.3179 6.31597 L-19.3121 8.04617 L-20.3063 9.77637 L-21.3005 11.5066 L-22.2947 13.2368 L-23.2889 14.967 L-24.2901 13.2404 L-25.2913 11.5138 L-26.2925 9.78717 L-27.2937 8.06058 L-28.2949 6.33398 L-26.2995 6.33037 L-24.3041 6.32677 L-22.3087 6.32317 L-20.3133 6.31957 L-18.3179 6.31597 Z " />
<path stroke="rgb(200,255,200)" stroke-opacity="1" fill="rgb(200,255,200)" fill-opacity="1" id="tri_2_5_" d="M-13.3169 14.95 L-12.3223 13.22 L-11.3277 11.49 L-10.3331 9.75997 L-9.33853 8.02997 L-8.34393 6.29997 L-7.34313 8.02577 L-6.34233 9.75157 L-5.34153 11.4774 L-4.34073 13.2032 L-3.33993 14.929 L-5.33533 14.9332 L-7.33073 14.9374 L-9.32613 14.9416 L-11.3215 14.9458 L-13.3169 14.95 Z " />
<path stroke="rgb(200,255,200)" stroke-opacity="1" fill="rgb(200,255,200)" fill-opacity="1" id="tri_1_4_" d="M-8.34393 6.29997 L-9.33853 8.02997 L-10.3331 9.75997 L-11.3277 11.49 L-12.3223 13.22 L-13.3169 14.95 L-14.3171 13.2232 L-15.3173 11.4964 L-16.3175 9.76957 L-17.3177 8.04277 L-18.3179 6.31597 L-16.3231 6.31277 L-14.3283 6.30957 L-12.3335 6.30637 L-10.3387 6.30317 L-8.34393 6.29997 Z " />
<path stroke="rgb(200,255,200)" stroke-opacity="1" fill="rgb(200,255,200)" fill-opacity="1" id="tri_3_5_" d="M-3.33993 14.929 L-2.34533 13.1998 L-1.35073 11.4706 L-0.356131 9.74138 L0.638468 8.01218 L1.63307 6.28297 L2.63387 8.00958 L3.63467 9.73618 L4.63547 11.4628 L5.63627 13.1894 L6.63707 14.916 L4.64167 14.9186 L2.64627 14.9212 L0.650869 14.9238 L-1.34453 14.9264 L-3.33993 14.929 Z " />
<path stroke="rgb(200,255,200)" stroke-opacity="1" fill="rgb(200,255,200)" fill-opacity="1" id="tri_2_4_" d="M1.63307 6.28297 L0.638468 8.01218 L-0.356131 9.74138 L-1.35073 11.4706 L-2.34533 13.1998 L-3.33993 14.929 L-4.34073 13.2032 L-5.34153 11.4774 L-6.34233 9.75157 L-7.34313 8.02577 L-8.34393 6.29997 L-6.34853 6.29657 L-4.35313 6.29317 L-2.35773 6.28977 L-0.362331 6.28637 L1.63307 6.28297 Z " />
<path stroke="rgb(200,255,200)" stroke-opacity="1" fill="rgb(200,255,200)" fill-opacity="1" id="tri_4_5_" d="M6.63707 14.916 L7.63127 13.186 L8.62547 11.456 L9.61967 9.72598 L10.6139 7.99598 L11.6081 6.26598 L12.6087 7.99238 L13.6093 9.71877 L14.6099 11.4452 L15.6105 13.1716 L16.6111 14.898 L14.6163 14.9016 L12.6215 14.9052 L10.6267 14.9088 L8.63187 14.9124 L6.63707 14.916 Z " />
<path stroke="rgb(200,255,200)" stroke-opacity="1" fill="rgb(200,255,200)" fill-opacity="1" id="tri_3_4_" d="M11.6081 6.26598 L10.6139 7.99598 L9.61967 9.72598 L8.62547 11.456 L7.63127 13.186 L6.63707 14.916 L5.63627 13.1894 L4.63547 11.4628 L3.63467 9.73618 L2.63387 8.00958 L1.63307 6.28297 L3.62807 6.27957 L5.62307 6.27617 L7.61807 6.27278 L9.61307 6.26938 L11.6081 6.26598 Z " />
<path stroke="rgb(200,255,200)" stroke-opacity="1" fill="rgb(200,255,200)" fill-opacity="1" id="tri_5_5_" d="M16.6111 14.898 L17.6059 13.1678 L18.6007 11.4376 L19.5955 9.70737 L20.5903 7.97717 L21.5851 6.24697 L22.5857 7.97397 L23.5863 9.70097 L24.5869 11.428 L25.5875 13.155 L26.5881 14.882 L24.5927 14.8852 L22.5973 14.8884 L20.6019 14.8916 L18.6065 14.8948 L16.6111 14.898 Z " />
<path stroke="rgb(200,255,200)" stroke-opacity="1" fill="rgb(200,255,200)" fill-opacity="1" id="tri_4_4_" d="M21.5851 6.24697 L20.5903 7.97717 L19.5955 9.70737 L18.6007 11.4376 L17.6059 13.1678 L16.6111 14.898 L15.6105 13.1716 L14.6099 11.4452 L13.6093 9.71877 L12.6087 7.99238 L11.6081 6.26598 L13.6035 6.26218 L15.5989 6.25837 L17.5943 6.25457 L19.5897 6.25077 L21.5851 6.24697 Z " />
<path stroke="rgb(200,255,200)" stroke-opacity="1" fill="rgb(200,255,200)" fill-opacity="1" id="tri_6_5_" d="M26.5881 14.882 L27.5825 13.1524 L28.5769 11.4228 L29.5713 9.69318 L30.5657 7.96358 L31.5601 6.23398 L32.5611 7.95978 L33.5621 9.68558 L34.5631 11.4114 L35.5641 13.1372 L36.5651 14.863 L34.5697 14.8668 L32.5743 14.8706 L30.5789 14.8744 L28.5835 14.8782 L26.5881 14.882 Z " />
<path stroke="rgb(200,255,200)" stroke-opacity="1" fill="rgb(200,255,200)" fill-opacity="1" id="tri_5_4_" d="M31.5601 6.23398 L30.5657 7.96358 L29.5713 9.69318 L28.5769 11.4228 L27.5825 13.1524 L26.5881 14.882 L25.5875 13.155 L24.5869 11.428 L23.5863 9.70097 L22.5857 7.97397 L21.5851 6.24697 L23.5801 6.24437 L25.5751 6.24177 L27.5701 6.23918 L29.5651 6.23658 L31.5601 6.23398 Z " />
<path stroke="rgb(200,255,200)" stroke-opacity="1" fill="rgb(200,255,200)" fill-opacity="1" id="tri_7_4_" d="M36.5651 14.863 L37.5595 13.133 L38.5539 11.403 L39.5483 9.67297 L40.5427 7.94297 L41.5371 6.21297 L42.5371 7.93958 L43.5371 9.66618 L44.5371 11.3928 L45.5371 13.1194 L46.5371 14.846 L44.5427 14.8494 L42.5483 14.8528 L40.5539 14.8562 L38.5595 14.8596 L36.5651 14.863 Z " />
<path stroke="rgb(200,255,200)" stroke-opacity="1" fill="rgb(200,255,200)" fill-opacity="1" id="tri_6_4_" d="M41.5371 6.21297 L40.5427 7.94297 L39.5483 9.67297 L38.5539 11.403 L37.5595 13.133 L36.5651 14.863 L35.5641 13.1372 L34.5631 11.4114 L33.5621 9.68558 L32.5611 7.95978 L31.5601 6.23398 L33.5555 6.22978 L35.5509 6.22558 L37.5463 6.22138 L39.5417 6.21718 L41.5371 6.21297 Z " />
<path stroke="rgb(200,255,200)" stroke-opacity="1" fill="rgb(200,255,200)" fill-opacity="1" id="tri_0_4_" d="M-38.2409 23.634 L-37.2461 21.904 L-36.2513 20.174 L-35.2565 18.444 L-34.2617 16.714 L-33.2669 14.984 L-32.2663 16.7102 L-31.2657 18.4364 L-30.2651 20.1626 L-29.2645 21.8888 L-28.2639 23.615 L-30.2593 23.6188 L-32.2547 23.6226 L-34.2501 23.6264 L-36.2455 23.6302 L-38.2409 23.634 Z " />
<path stroke="rgb(200,255,200)" stroke-opacity="1" fill="rgb(200,255,200)" fill-opacity="1" id="tri_1_3_" d="M-28.2639 23.615 L-27.2689 21.8854 L-26.2739 20.1558 L-25.2789 18.4262 L-24.2839 16.6966 L-23.2889 14.967 L-22.2891 16.6932 L-21.2893 18.4194 L-20.2895 20.1456 L-19.2897 21.8718 L-18.2899 23.598 L-20.2847 23.6014 L-22.2795 23.6048 L-24.2743 23.6082 L-26.2691 23.6116 L-28.2639 23.615 Z " />
<path stroke="rgb(200,255,200)" stroke-opacity="1" fill="rgb(200,255,200)" fill-opacity="1" id="tri_0_3_" d="M-23.2889 14.967 L-24.2839 16.6966 L-25.2789 18.4262 L-26.2739 20.1558 L-27.2689 21.8854 L-28.2639 23.615 L-29.2645 21.8888 L-30.2651 20.1626 L-31.2657 18.4364 L-32.2663 16.7102 L-33.2669 14.984 L-31.2713 14.9806 L-29.2757 14.9772 L-27.2801 14.9738 L-25.2845 14.9704 L-23.2889 14.967 Z " />
<path stroke="rgb(200,255,200)" stroke-opacity="1" fill="rgb(200,255,200)" fill-opacity="1" id="tri_2_3_" d="M-18.2899 23.598 L-17.2953 21.8684 L-16.3007 20.1388 L-15.3061 18.4092 L-14.3115 16.6796 L-13.3169 14.95 L-12.3161 16.6762 L-11.3153 18.4024 L-10.3145 20.1286 L-9.31373 21.8548 L-8.31293 23.581 L-10.3083 23.5844 L-12.3037 23.5878 L-14.2991 23.5912 L-16.2945 23.5946 L-18.2899 23.598 Z " />
<path stroke="rgb(200,255,200)" stroke-opacity="1" fill="rgb(200,255,200)" fill-opacity="1" id="tri_1_2_" d="M-13.3169 14.95 L-14.3115 16.6796 L-15.3061 18.4092 L-16.3007 20.1388 L-17.2953 21.8684 L-18.2899 23.598 L-19.2897 21.8718 L-20.2895 20.1456 L-21.2893 18.4194 L-22.2891 16.6932 L-23.2889 14.967 L-21.2945 14.9636 L-19.3001 14.9602 L-17.3057 14.9568 L-15.3113 14.9534 L-13.3169 14.95 Z " />
<path stroke="rgb(200,255,200)" stroke-opacity="1" fill="rgb(200,255,200)" fill-opacity="1" id="tri_3_3_" d="M-8.31293 23.581 L-7.31833 21.8506 L-6.32373 20.1202 L-5.32913 18.3898 L-4.33453 16.6594 L-3.33993 14.929 L-2.33953 16.6564 L-1.33913 18.3838 L-0.338732 20.1112 L0.661668 21.8386 L1.66207 23.566 L-0.332931 23.569 L-2.32793 23.572 L-4.32293 23.575 L-6.31793 23.578 L-8.31293 23.581 Z " />
<path stroke="rgb(200,255,200)" stroke-opacity="1" fill="rgb(200,255,200)" fill-opacity="1" id="tri_2_2_" d="M-3.33993 14.929 L-4.33453 16.6594 L-5.32913 18.3898 L-6.32373 20.1202 L-7.31833 21.8506 L-8.31293 23.581 L-9.31373 21.8548 L-10.3145 20.1286 L-11.3153 18.4024 L-12.3161 16.6762 L-13.3169 14.95 L-11.3215 14.9458 L-9.32613 14.9416 L-7.33073 14.9374 L-5.33533 14.9332 L-3.33993 14.929 Z " />
<path stroke="rgb(200,255,200)" stroke-opacity="1" fill="rgb(200,255,200)" fill-opacity="1" id="tri_4_3_" d="M1.66207 23.566 L2.65707 21.836 L3.65207 20.106 L4.64707 18.376 L5.64207 16.646 L6.63707 14.916 L7.63747 16.6418 L8.63787 18.3676 L9.63827 20.0934 L10.6387 21.8192 L11.6391 23.545 L9.64367 23.5492 L7.64827 23.5534 L5.65287 23.5576 L3.65747 23.5618 L1.66207 23.566 Z " />
<path stroke="rgb(200,255,200)" stroke-opacity="1" fill="rgb(200,255,200)" fill-opacity="1" id="tri_3_2_" d="M6.63707 14.916 L5.64207 16.646 L4.64707 18.376 L3.65207 20.106 L2.65707 21.836 L1.66207 23.566 L0.661668 21.8386 L-0.338732 20.1112 L-1.33913 18.3838 L-2.33953 16.6564 L-3.33993 14.929 L-1.34453 14.9264 L0.650869 14.9238 L2.64627 14.9212 L4.64167 14.9186 L6.63707 14.916 Z " />
<path stroke="rgb(200,255,200)" stroke-opacity="1" fill="rgb(200,255,200)" fill-opacity="1" id="tri_5_3_" d="M11.6391 23.545 L12.6335 21.8156 L13.6279 20.0862 L14.6223 18.3568 L15.6167 16.6274 L16.6111 14.898 L17.6115 16.6244 L18.6119 18.3508 L19.6123 20.0772 L20.6127 21.8036 L21.6131 23.53 L19.6183 23.533 L17.6235 23.536 L15.6287 23.539 L13.6339 23.542 L11.6391 23.545 Z " />
<path stroke="rgb(200,255,200)" stroke-opacity="1" fill="rgb(200,255,200)" fill-opacity="1" id="tri_4_2_" d="M16.6111 14.898 L15.6167 16.6274 L14.6223 18.3568 L13.6279 20.0862 L12.6335 21.8156 L11.6391 23.545 L10.6387 21.8192 L9.63827 20.0934 L8.63787 18.3676 L7.63747 16.6418 L6.63707 14.916 L8.63187 14.9124 L10.6267 14.9088 L12.6215 14.9052 L14.6163 14.9016 L16.6111 14.898 Z " />
<path stroke="rgb(200,255,200)" stroke-opacity="1" fill="rgb(200,255,200)" fill-opacity="1" id="tri_6_3_" d="M21.6131 23.53 L22.6081 21.8004 L23.6031 20.0708 L24.5981 18.3412 L25.5931 16.6116 L26.5881 14.882 L27.5885 16.608 L28.5889 18.334 L29.5893 20.06 L30.5897 21.786 L31.5901 23.512 L29.5947 23.5156 L27.5993 23.5192 L25.6039 23.5228 L23.6085 23.5264 L21.6131 23.53 Z " />
<path stroke="rgb(200,255,200)" stroke-opacity="1" fill="rgb(200,255,200)" fill-opacity="1" id="tri_5_2_" d="M26.5881 14.882 L25.5931 16.6116 L24.5981 18.3412 L23.6031 20.0708 L22.6081 21.8004 L21.6131 23.53 L20.6127 21.8036 L19.6123 20.0772 L18.6119 18.3508 L17.6115 16.6244 L16.6111 14.898 L18.6065 14.8948 L20.6019 14.8916 L22.5973 14.8884 L24.5927 14.8852 L26.5881 14.882 Z " />
<path stroke="rgb(200,255,200)" stroke-opacity="1" fill="rgb(200,255,200)" fill-opacity="1" id="tri_7_3_" d="M31.5901 23.512 L32.5851 21.7822 L33.5801 20.0524 L34.5751 18.3226 L35.5701 16.5928 L36.5651 14.863 L37.5649 16.5892 L38.5647 18.3154 L39.5645 20.0416 L40.5643 21.7678 L41.5641 23.494 L39.5693 23.4976 L37.5745 23.5012 L35.5797 23.5048 L33.5849 23.5084 L31.5901 23.512 Z " />
<path stroke="rgb(200,255,200)" stroke-opacity="1" fill="rgb(200,255,200)" fill-opacity="1" id="tri_6_2_" d="M36.5651 14.863 L35.5701 16.5928 L34.5751 18.3226 L33.5801 20.0524 L32.5851 21.7822 L31.5901 23.512 L30.5897 21.786 L29.5893 20.06 L28.5889 18.334 L27.5885 16.608 L26.5881 14.882 L28.5835 14.8782 L30.5789 14.8744 L32.5743 14.8706 L34.5697 14.8668 L36.5651 14.863 Z " />
<path stroke="rgb(200,255,200)" stroke-opacity="1" fill="rgb(200,255,200)" fill-opacity="1" id="tri_8_2_" d="M41.5641 23.494 L42.5587 21.7644 L43.5533 20.0348 L44.5479 18.3052 L45.5425 16.5756 L46.5371 14.846 L47.5379 16.5724 L48.5387 18.2988 L49.5395 20.0252 L50.5403 21.7516 L51.5411 23.478 L49.5457 23.4812 L47.5503 23.4844 L45.5549 23.4876 L43.5595 23.4908 L41.5641 23.494 Z " />
<path stroke="rgb(200,255,200)" stroke-opacity="1" fill="rgb(200,255,200)" fill-opacity="1" id="tri_7_2_" d="M46.5371 14.846 L45.5425 16.5756 L44.5479 18.3052 L43.5533 20.0348 L42.5587 21.7644 L41.5641 23.494 L40.5643 21.7678 L39.5645 20.0416 L38.5647 18.3154 L37.5649 16.5892 L36.5651 14.863 L38.5595 14.8596 L40.5539 14.8562 L42.5483 14.8528 L44.5427 14.8494 L46.5371 14.846 Z " />
<path stroke="rgb(200,255,200)" stroke-opacity="1" fill="rgb(200,255,200)" fill-opacity="1" id="tri_0_2_" d="M-43.2129 32.282 L-42.2185 30.5524 L-41.2241 28.8228 L-40.2297 27.0932 L-39.2353 25.3636 L-38.2409 23.634 L-37.2399 25.3602 L-36.2389 27.0864 L-35.2379 28.8126 L-34.2369 30.5388 L-33.2359 32.265 L-35.2313 32.2684 L-37.2267 32.2718 L-39.2221 32.2752 L-41.2175 32.2786 L-43.2129 32.282 Z " />
<path stroke="rgb(200,255,200)" stroke-opacity="1" fill="rgb(200,255,200)" fill-opacity="1" id="tri_1_1_" d="M-33.2359 32.265 L-32.2415 30.535 L-31.2471 28.805 L-30.2527 27.075 L-29.2583 25.345 L-28.2639 23.615 L-27.2631 25.3412 L-26.2623 27.0674 L-25.2615 28.7936 L-24.2607 30.5198 L-23.2599 32.246 L-25.2551 32.2498 L-27.2503 32.2536 L-29.2455 32.2574 L-31.2407 32.2612 L-33.2359 32.265 Z " />
<path stroke="rgb(200,255,200)" stroke-opacity="1" fill="rgb(200,255,200)" fill-opacity="1" id="tri_0_1_" d="M-28.2639 23.615 L-29.2583 25.345 L-30.2527 27.075 L-31.2471 28.805 L-32.2415 30.535 L-33.2359 32.265 L-34.2369 30.5388 L-35.2379 28.8126 L-36.2389 27.0864 L-37.2399 25.3602 L-38.2409 23.634 L-36.2455 23.6302 L-34.2501 23.6264 L-32.2547 23.6226 L-30.2593 23.6188 L-28.2639 23.615 Z " />
<path stroke="rgb(200,255,200)" stroke-opacity="1" fill="rgb(200,255,200)" fill-opacity="1" id="tri_2_1_" d="M-23.2599 32.246 L-22.2659 30.5164 L-21.2719 28.7868 L-20.2779 27.0572 L-19.2839 25.3276 L-18.2899 23.598 L-17.2887 25.3248 L-16.2875 27.0516 L-15.2863 28.7784 L-14.2851 30.5052 L-13.2839 32.232 L-15.2791 32.2348 L-17.2743 32.2376 L-19.2695 32.2404 L-21.2647 32.2432 L-23.2599 32.246 Z " />
<path stroke="rgb(200,255,200)" stroke-opacity="1" fill="rgb(200,255,200)" fill-opacity="1" id="tri_1" d="M-18.2899 23.598 L-19.2839 25.3276 L-20.2779 27.0572 L-21.2719 28.7868 L-22.2659 30.5164 L-23.2599 32.246 L-24.2607 30.5198 L-25.2615 28.7936 L-26.2623 27.0674 L-27.2631 25.3412 L-28.2639 23.615 L-26.2691 23.6116 L-24.2743 23.6082 L-22.2795 23.6048 L-20.2847 23.6014 L-18.2899 23.598 Z " />
<path stroke="rgb(200,255,200)" stroke-opacity="1" fill="rgb(200,255,200)" fill-opacity="1" id="tri_3_1_" d="M-13.2839 32.232 L-12.2897 30.5018 L-11.2955 28.7716 L-10.3013 27.0414 L-9.30713 25.3112 L-8.31293 23.581 L-7.31233 25.3076 L-6.31173 27.0342 L-5.31113 28.7608 L-4.31053 30.4874 L-3.30993 32.214 L-5.30473 32.2176 L-7.29953 32.2212 L-9.29433 32.2248 L-11.2891 32.2284 L-13.2839 32.232 Z " />
<path stroke="rgb(200,255,200)" stroke-opacity="1" fill="rgb(200,255,200)" fill-opacity="1" id="tri_2" d="M-8.31293 23.581 L-9.30713 25.3112 L-10.3013 27.0414 L-11.2955 28.7716 L-12.2897 30.5018 L-13.2839 32.232 L-14.2851 30.5052 L-15.2863 28.7784 L-16.2875 27.0516 L-17.2887 25.3248 L-18.2899 23.598 L-16.2945 23.5946 L-14.2991 23.5912 L-12.3037 23.5878 L-10.3083 23.5844 L-8.31293 23.581 Z " />
<path stroke="rgb(200,255,200)" stroke-opacity="1" fill="rgb(200,255,200)" fill-opacity="1" id="tri_4_1_" d="M-3.30993 32.214 L-2.31553 30.4844 L-1.32113 28.7548 L-0.326732 27.0252 L0.667668 25.2956 L1.66207 23.566 L2.66267 25.2918 L3.66327 27.0176 L4.66387 28.7434 L5.66447 30.4692 L6.66507 32.195 L4.67007 32.1988 L2.67507 32.2026 L0.680067 32.2064 L-1.31493 32.2102 L-3.30993 32.214 Z " />
<path stroke="rgb(200,255,200)" stroke-opacity="1" fill="rgb(200,255,200)" fill-opacity="1" id="tri_3" d="M1.66207 23.566 L0.667668 25.2956 L-0.326732 27.0252 L-1.32113 28.7548 L-2.31553 30.4844 L-3.30993 32.214 L-4.31053 30.4874 L-5.31113 28.7608 L-6.31173 27.0342 L-7.31233 25.3076 L-8.31293 23.581 L-6.31793 23.578 L-4.32293 23.575 L-2.32793 23.572 L-0.332931 23.569 L1.66207 23.566 Z " />
<path stroke="rgb(200,255,200)" stroke-opacity="1" fill="rgb(200,255,200)" fill-opacity="1" id="tri_5_1_" d="M6.66507 32.195 L7.65987 30.465 L8.65467 28.735 L9.64947 27.005 L10.6443 25.275 L11.6391 23.545 L12.6395 25.2718 L13.6399 26.9986 L14.6403 28.7254 L15.6407 30.4522 L16.6411 32.179 L14.6459 32.1822 L12.6507 32.1854 L10.6555 32.1886 L8.66027 32.1918 L6.66507 32.195 Z " />
<path stroke="rgb(200,255,200)" stroke-opacity="1" fill="rgb(200,255,200)" fill-opacity="1" id="tri_4" d="M11.6391 23.545 L10.6443 25.275 L9.64947 27.005 L8.65467 28.735 L7.65987 30.465 L6.66507 32.195 L5.66447 30.4692 L4.66387 28.7434 L3.66327 27.0176 L2.66267 25.2918 L1.66207 23.566 L3.65747 23.5618 L5.65287 23.5576 L7.64827 23.5534 L9.64367 23.5492 L11.6391 23.545 Z " />
<path stroke="rgb(200,255,200)" stroke-opacity="1" fill="rgb(200,255,200)" fill-opacity="1" id="tri_6_1_" d="M16.6411 32.179 L17.6355 30.4492 L18.6299 28.7194 L19.6243 26.9896 L20.6187 25.2598 L21.6131 23.53 L22.6143 25.2562 L23.6155 26.9824 L24.6167 28.7086 L25.6179 30.4348 L26.6191 32.161 L24.6235 32.1646 L22.6279 32.1682 L20.6323 32.1718 L18.6367 32.1754 L16.6411 32.179 Z " />
<path stroke="rgb(200,255,200)" stroke-opacity="1" fill="rgb(200,255,200)" fill-opacity="1" id="tri_5" d="M21.6131 23.53 L20.6187 25.2598 L19.6243 26.9896 L18.6299 28.7194 L17.6355 30.4492 L16.6411 32.179 L15.6407 30.4522 L14.6403 28.7254 L13.6399 26.9986 L12.6395 25.2718 L11.6391 23.545 L13.6339 23.542 L15.6287 23.539 L17.6235 23.536 L19.6183 23.533 L21.6131 23.53 Z " />
<path stroke="rgb(200,255,200)" stroke-opacity="1" fill="rgb(200,255,200)" fill-opacity="1" id="tri_7_1_" d="M26.6191 32.161 L27.6133 30.4312 L28.6075 28.7014 L29.6017 26.9716 L30.5959 25.2418 L31.5901 23.512 L32.5905 25.2386 L33.5909 26.9652 L34.5913 28.6918 L35.5917 30.4184 L36.5921 32.145 L34.5975 32.1482 L32.6029 32.1514 L30.6083 32.1546 L28.6137 32.1578 L26.6191 32.161 Z " />
<path stroke="rgb(200,255,200)" stroke-opacity="1" fill="rgb(200,255,200)" fill-opacity="1" id="tri_6" d="M31.5901 23.512 L30.5959 25.2418 L29.6017 26.9716 L28.6075 28.7014 L27.6133 30.4312 L26.6191 32.161 L25.6179 30.4348 L24.6167 28.7086 L23.6155 26.9824 L22.6143 25.2562 L21.6131 23.53 L23.6085 23.5264 L25.6039 23.5228 L27.5993 23.5192 L29.5947 23.5156 L31.5901 23.512 Z " />
<path stroke="rgb(200,255,200)" stroke-opacity="1" fill="rgb(200,255,200)" fill-opacity="1" id="tri_8_1_" d="M36.5921 32.145 L37.5865 30.4148 L38.5809 28.6846 L39.5753 26.9544 L40.5697 25.2242 L41.5641 23.494 L42.5651 25.2206 L43.5661 26.9472 L44.5671 28.6738 L45.5681 30.4004 L46.5691 32.127 L44.5737 32.1306 L42.5783 32.1342 L40.5829 32.1378 L38.5875 32.1414 L36.5921 32.145 Z " />
<path stroke="rgb(200,255,200)" stroke-opacity="1" fill="rgb(200,255,200)" fill-opacity="1" id="tri_7" d="M41.5641 23.494 L40.5697 25.2242 L39.5753 26.9544 L38.5809 28.6846 L37.5865 30.4148 L36.5921 32.145 L35.5917 30.4184 L34.5913 28.6918 L33.5909 26.9652 L32.5905 25.2386 L31.5901 23.512 L33.5849 23.5084 L35.5797 23.5048 L37.5745 23.5012 L39.5693 23.4976 L41.5641 23.494 Z " />
<path stroke="rgb(200,255,200)" stroke-opacity="1" fill="rgb(200,255,200)" fill-opacity="1" id="tri_9" d="M46.5691 32.127 L47.5635 30.3972 L48.5579 28.6674 L49.5523 26.9376 L50.5467 25.2078 L51.5411 23.478 L52.5417 25.204 L53.5423 26.93 L54.5429 28.656 L55.5435 30.382 L56.5441 32.108 L54.5491 32.1118 L52.5541 32.1156 L50.5591 32.1194 L48.5641 32.1232 L46.5691 32.127 Z " />
<path stroke="rgb(200,255,200)" stroke-opacity="1" fill="rgb(200,255,200)" fill-opacity="1" id="tri_8" d="M51.5411 23.478 L50.5467 25.2078 L49.5523 26.9376 L48.5579 28.6674 L47.5635 30.3972 L46.5691 32.127 L45.5681 30.4004 L44.5671 28.6738 L43.5661 26.9472 L42.5651 25.2206 L41.5641 23.494 L43.5595 23.4908 L45.5549 23.4876 L47.5503 23.4844 L49.5457 23.4812 L51.5411 23.478 Z " />
</g>
</g>
</svg>
