<!DOCTYPE svg>
<svg xmlns="http://www.w3.org/2000/svg" xmlns:xlink="http://www.w3.org/1999/xlink" width="600" height="600">
<g transform="translate(300.000000,300.000000)">
<g transform="scale(3.000000,3.000000)">
<path stroke="rgb(0,0,0)" stroke-opacity="1" fill="rgb(255,255,255)" fill-opacity="1" id="Layer_1" d="M107.411 107.089 L105.406 107.092 L103.402 107.095 L101.397 107.098 L99.3922 107.101 L97.3875 107.104 L95.3828 107.107 L93.3782 107.11 L91.3735 107.113 L89.3688 107.116 L87.3641 107.119 L85.3595 107.122 L83.3548 107.125 L81.3501 107.128 L79.3455 107.131 L77.3408 107.134 L75.3361 107.137 L73.3314 107.14 L71.3268 107.143 L69.3221 107.146 L67.3174 107.149 L65.3127 107.152 L63.3081 107.155 L61.3034 107.158 L59.2987 107.161 L57.2941 107.164 L55.2894 107.167 L53.2847 107.17 L51.28 107.173 L49.2754 107.176 L47.2707 107.179 L45.266 107.182 L43.2613 107.185 L41.2567 107.188 L39.252 107.191 L37.2473 107.194 L35.2426 107.197 L33.238 107.2 L31.2333 107.203 L29.2286 107.206 L27.224 107.209 L25.2193 107.212 L23.2146 107.215 L21.2099 107.218 L19.2053 107.221 L17.2006 107.224 L15.1959 107.227 L13.1912 107.23 L11.1866 107.233 L9.1819 107.236 L7.17723 107.239 L5.17256 107.242 L3.16788 107.245 L1.16321 107.248 L-0.841463 107.252 L-2.84614 107.255 L-4.85081 107.258 L-6.85548 107.261 L-8.86015 107.264 L-10.8648 107.267 L-12.8695 107.27 L-14.8742 107.273 L-16.8788 107.276 L-18.8835 107.279 L-20.8882 107.282 L-22.8929 107.285 L-24.8975 107.288 L-26.9022 107.291 L-28.9069 107.294 L-30.9116 107.297 L-32.9162 107.3 L-34.9209 107.303 L-36.9256 107.306 L-38.9302 107.309 L-40.9349 107.312 L-42.9396 107.315 L-44.9443 107.318 L-46.9489 107.321 L-48.9536 107.324 L-50.9583 107.327 L-52.963 107.33 L-54.9676 107.333 L-56.9723 107.336 L-58.977 107.339 L-60.9816 107.342 L-62.9863 107.345 L-64.991 107.348 L-66.9957 107.351 L-69.0003 107.354 L-71.005 107.357 L-73.0097 107.36 L-75.0144 107.363 L-77.019 107.366 L-79.0237 107.369 L-81.0284 107.372 L-83.0331 107.375 L-85.0377 107.378 L-87.0424 107.381 L-89.0471 107.384 L-91.0517 107.387 L-93.0564 107.39 L-95.0611 107.393 L-97.0658 107.396 L-99.0704 107.399 L-101.075 107.402 L-103.08 107.405 L-105.084 107.408 L-107.089 107.411 L-107.092 105.406 L-107.095 103.402 L-107.098 101.397 L-107.101 99.3922 L-107.104 97.3875 L-107.107 95.3828 L-107.11 93.3782 L-107.113 91.3735 L-107.116 89.3688 L-107.119 87.3641 L-107.122 85.3595 L-107.125 83.3548 L-107.128 81.3501 L-107.131 79.3455 L-107.134 77.3408 L-107.137 75.3361 L-107.14 73.3314 L-107.143 71.3268 L-107.146 69.3221 L-107.149 67.3174 L-107.152 65.3127 L-107.155 63.3081 L-107.158 61.3034 L-107.161 59.2987 L-107.164 57.2941 L-107.167 55.2894 L-107.17 53.2847 L-107.173 51.28 L-107.176 49.2754 L-107.179 47.2707 L-107.182 45.266 L-107.185 43.2613 L-107.188 41.2567 L-107.191 39.252 L-107.194 37.2473 L-107.197 35.2426 L-107.2 33.238 L-107.203 31.2333 L-107.206 29.2286 L-107.209 27.224 L-107.212 25.2193 L-107.215 23.2146 L-107.218 21.2099 L-107.221 19.2053 L-107.224 17.2006 L-107.227 15.1959 L-107.23 13.1912 L-107.233 11.1866 L-107.236 9.1819 L-107.239 7.17722 L-107.242 5.17255 L-107.245 3.16788 L-107.248 1.1632 L-107.251 -0.841469 L-107.255 -2.84614 L-107.258 -4.85081 L-107.261 -6.85549 L-107.264 -8.86016 L-107.267 -10.8648 L-107.27 -12.8695 L-107.273 -14.8742 L-107.276 -16.8789 L-107.279 -18.8835 L-107.282 -20.8882 L-107.285 -22.8929 L-107.288 -24.8975 L-107.291 -26.9022 L-107.294 -28.9069 L-107.297 -30.9116 L-107.3 -32.9162 L-107.303 -34.9209 L-107.306 -36.9256 L-107.309 -38.9303 L-107.312 -40.9349 L-107.315 -42.9396 L-107.318 -44.9443 L-107.321 -46.9489 L-107.324 -48.9536 L-107.327 -50.9583 L-107.33 -52.963 L-107.333 -54.9676 L-107.336 -56.9723 L-107.339 -58.977 L-107.342 -60.9817 L-107.345 -62.9863 L-107.348 -64.991 L-107.351 -66.9957 L-107.354 -69.0003 L-107.357 -71.005 L-107.36 -73.0097 L-107.363 -75.0144 L-107.366 -77.019 L-107.369 -79.0237 L-107.372 -81.0284 L-107.375 -83.0331 L-107.378 -85.0377 L-107.381 -87.0424 L-107.384 -89.0471 L-107.387 -91.0518 L-107.39 -93.0564 L-107.393 -95.0611 L-107.396 -97.0658 L-107.399 -99.0704 L-107.402 -101.075 L-107.405 -103.08 L-107.408 -105.084 L-107.411 -107.089 L-105.406 -107.092 L-103.402 -107.095 L-101.397 -107.098 L-99.3922 -107.101 L-97.3875 -107.104 L-95.3828 -107.107 L-93.3782 -107.11 L-91.3735 -107.113 L-89.3688 -107.116 L-87.3641 -107.119 L-85.3595 -107.122 L-83.3548 -107.125 L-81.3501 -107.128 L-79.3455 -107.131 L-77.3408 -107.134 L-75.3361 -107.137 L-73.3314 -107.14 L-71.3268 -107.143 L-69.3221 -107.146 L-67.3174 -107.149 L-65.3127 -107.152 L-63.3081 -107.155 L-61.3034 -107.158 L-59.2987 -107.161 L-57.2941 -107.164 L-55.2894 -107.167 L-53.2847 -107.17 L-51.28 -107.173 L-49.2754 -107.176 L-47.2707 -107.179 L-45.266 -107.182 L-43.2613 -107.185 L-41.2567 -107.188 L-39.252 -107.191 L-37.2473 -107.194 L-35.2426 -107.197 L-33.238 -107.2 L-31.2333 -107.203 L-29.2286 -107.206 L-27.224 -107.209 L-25.2193 -107.212 L-23.2146 -107.215 L-21.2099 -107.218 L-19.2053 -107.221 L-17.2006 -107.224 L-15.1959 -107.227 L-13.1912 -107.23 L-11.1866 -107.233 L-9.1819 -107.236 L-7.17723 -107.239 L-5.17256 -107.242 L-3.16788 -107.245 L-1.16321 -107.248 L0.841463 -107.252 L2.84614 -107.255 L4.85081 -107.258 L6.85548 -107.261 L8.86015 -107.264 L10.8648 -107.267 L12.8695 -107.27 L14.8742 -107.273 L16.8788 -107.276 L18.8835 -107.279 L20.8882 -107.282 L22.8929 -107.285 L24.8975 -107.288 L26.9022 -107.291 L28.9069 -107.294 L30.9116 -107.297 L32.9162 -107.3 L34.9209 -107.303 L36.9256 -107.306 L38.9302 -107.309 L40.9349 -107.312 L42.9396 -107.315 L44.9443 -107.318 L46.9489 -107.321 L48.9536 -107.324 L50.9583 -107.327 L52.963 -107.33 L54.9676 -107.333 L56.9723 -107.336 L58.977 -107.339 L60.9816 -107.342 L62.9863 -107.345 L64.991 -107.348 L66.9957 -107.351 L69.0003 -107.354 L71.005 -107.357 L73.0097 -107.36 L75.0144 -107.363 L77.019 -107.366 L79.0237 -107.369 L81.0284 -107.372 L83.0331 -107.375 L85.0377 -107.378 L87.0424 -107.381 L89.0471 -107.384 L91.0517 -107.387 L93.0564 -107.39 L95.0611 -107.393 L97.0658 -107.396 L99.0704 -107.399 L101.075 -107.402 L103.08 -107.405 L105.084 -107.408 L107.089 -107.411 L107.092 -105.406 L107.095 -103.402 L107.098 -101.397 L107.101 -99.3922 L107.104 -97.3875 L107.107 -95.3828 L107.11 -93.3782 L107.113 -91.3735 L107.116 -89.3688 L107.119 -87.3642 L107.122 -85.3595 L107.125 -83.3548 L107.128 -81.3501 L107.131 -79.3455 L107.134 -77.3408 L107.137 -75.3361 L107.14 -73.3314 L107.143 -71.3268 L107.146 -69.3221 L107.149 -67.3174 L107.152 -65.3128 L107.155 -63.3081 L107.158 -61.3034 L107.161 -59.2987 L107.164 -57.2941 L107.167 -55.2894 L107.17 -53.2847 L107.173 -51.28 L107.176 -49.2754 L107.179 -47.2707 L107.182 -45.266 L107.185 -43.2613 L107.188 -41.2567 L107.191 -39.252 L107.194 -37.2473 L107.197 -35.2427 L107.2 -33.238 L107.203 -31.2333 L107.206 -29.2286 L107.209 -27.224 L107.212 -25.2193 L107.215 -23.2146 L107.218 -21.2099 L107.221 -19.2053 L107.224 -17.2006 L107.227 -15.1959 L107.23 -13.1913 L107.233 -11.1866 L107.236 -9.18191 L107.239 -7.17724 L107.242 -5.17256 L107.245 -3.16789 L107.248 -1.16322 L107.251 0.841455 L107.255 2.84613 L107.258 4.8508 L107.261 6.85547 L107.264 8.86015 L107.267 10.8648 L107.27 12.8695 L107.273 14.8742 L107.276 16.8788 L107.279 18.8835 L107.282 20.8882 L107.285 22.8929 L107.288 24.8975 L107.291 26.9022 L107.294 28.9069 L107.297 30.9115 L107.3 32.9162 L107.303 34.9209 L107.306 36.9256 L107.309 38.9302 L107.312 40.9349 L107.315 42.9396 L107.318 44.9443 L107.321 46.9489 L107.324 48.9536 L107.327 50.9583 L107.33 52.963 L107.333 54.9676 L107.336 56.9723 L107.339 58.977 L107.342 60.9816 L107.345 62.9863 L107.348 64.991 L107.351 66.9957 L107.354 69.0003 L107.357 71.005 L107.36 73.0097 L107.363 75.0144 L107.366 77.019 L107.369 79.0237 L107.372 81.0284 L107.375 83.033 L107.378 85.0377 L107.381 87.0424 L107.384 89.0471 L107.387 91.0517 L107.39 93.0564 L107.393 95.0611 L107.396 97.0658 L107.399 99.0704 L107.402 101.075 L107.405 103.08 L107.408 105.084 L107.411 107.089 Z " />
<path stroke="rgb(169,255,187)" stroke-opacity="1" fill="rgb(169,255,187)" fill-opacity="1" id="scalebar" d="M-3.69904 -94.609 L-1.65554 -94.609 L0.387962 -94.609 L2.43146 -94.609 L4.47496 -94.609 L4.47496 -92.6686 L4.47496 -90.7281 L4.47496 -88.7876 L4.47496 -86.8472 L4.47496 -84.9067 L4.47496 -82.9663 L4.47496 -81.0258 L4.47496 -79.0853 L4.47496 -77.1449 L4.47496 -75.2044 L4.47496 -73.2639 L4.47496 -71.3235 L4.47496 -69.383 L2.43146 -69.383 L0.387962 -69.383 L-1.65554 -69.383 L-3.69904 -69.383 L-3.69904 -71.3235 L-3.69904 -73.2639 L-3.69904 -75.2044 L-3.69904 -77.1449 L-3.69904 -79.0853 L-3.69904 -81.0258 L-3.69904 -82.9663 L-3.69904 -84.9067 L-3.69904 -86.8472 L-3.69904 -88.7876 L-3.69904 -90.7281 L-3.69904 -92.6686 L-3.69904 -94.609 Z " />
<path stroke="rgb(200,255,200)" stroke-opacity="1" fill="rgb(200,255,200)" fill-opacity="1" id="scaleslider" d="M-6.69904 -75.6858 L-4.67418 -75.6858 L-2.64932 -75.6858 L-0.624466 -75.6858 L1.40039 -75.6858 L3.42525 -75.6858 L5.4501 -75.6858 L7.47496 -75.6858 L7.47496 -73.9591 L7.47496 -72.2325 L7.47496 -70.5058 L5.4501 -70.5058 L3.42525 -70.5058 L1.40039 -70.5058 L-0.624466 -70.5058 L-2.64932 -70.5058 L-4.67418 -70.5058 L-6.69904 -70.5058 L-6.69904 -72.2325 L-6.69904 -73.9591 L-6.69904 -75.6858 Z " />
<path stroke="rgb(255,134,106)" stroke-opacity="1" fill="rgb(255,134,106)" fill-opacity="1" id="tranbar" d="M-49.142 -86.146 L-47.0675 -86.146 L-44.993 -86.146 L-42.9185 -86.146 L-40.844 -86.146 L-40.844 -88.2208 L-40.844 -90.2955 L-40.844 -92.3703 L-40.844 -94.445 L-38.7685 -94.445 L-36.693 -94.445 L-34.6175 -94.445 L-32.542 -94.445 L-32.542 -92.3703 L-32.542 -90.2955 L-32.542 -88.2208 L-32.542 -86.146 L-30.4673 -86.146 L-28.3925 -86.146 L-26.3178 -86.146 L-24.243 -86.146 L-24.243 -84.0715 L-24.243 -81.997 L-24.243 -79.9225 L-24.243 -77.848 L-26.3178 -77.848 L-28.3925 -77.848 L-30.4673 -77.848 L-32.542 -77.848 L-32.542 -75.773 L-32.542 -73.698 L-32.542 -71.623 L-32.542 -69.548 L-34.6175 -69.548 L-36.693 -69.548 L-38.7685 -69.548 L-40.844 -69.548 L-40.844 -71.623 L-40.844 -73.698 L-40.844 -75.773 L-40.844 -77.848 L-42.9185 -77.848 L-44.993 -77.848 L-47.0675 -77.848 L-49.142 -77.848 L-49.142 -79.9225 L-49.142 -81.997 L-49.142 -84.0715 L-49.142 -86.146 Z " />
<path stroke="rgb(255,250,159)" stroke-opacity="1" fill="rgb(255,250,159)" fill-opacity="1" id="translider" d="M-39.248 -84.553 L-37.5447 -84.553 L-35.8414 -84.553 L-34.138 -84.553 L-34.138 -82.85 L-34.138 -81.147 L-34.138 -79.444 L-35.8414 -79.444 L-37.5447 -79.444 L-39.248 -79.444 L-39.248 -81.147 L-39.248 -82.85 L-39.248 -84.553 Z " />
<path stroke="rgb(254,204,128)" stroke-opacity="1" fill="rgb(254,204,128)" fill-opacity="1" id="rotate" d="M46.6523 -81.779 L45.697 -80.1019 L44.7418 -78.4248 L43.7865 -76.7476 L42.8312 -75.0705 L41.876 -73.3934 L39.9457 -73.3824 L38.0155 -73.3714 L36.0852 -73.3604 L34.155 -73.3494 L32.2247 -73.3384 L31.2499 -75.0046 L30.2751 -76.6709 L29.3003 -78.3371 L28.3255 -80.0033 L27.3507 -81.6696 L28.3061 -83.3468 L29.2615 -85.024 L30.217 -86.7013 L31.1724 -88.3785 L32.1279 -90.0558 L34.0579 -90.0666 L35.988 -90.0775 L37.9181 -90.0884 L39.8482 -90.0993 L41.7782 -90.1102 L42.7531 -88.444 L43.7279 -86.7778 L44.7027 -85.1115 L45.6775 -83.4453 L46.6523 -81.779 Z " />
<path stroke="rgb(200,255,200)" stroke-opacity="1" fill="rgb(200,255,200)" fill-opacity="1" id="tri_0" d="M-2.12734 -49.8701 L-1.12943 -49.8606 L-0.131519 -49.851 L0.866393 -49.8415 L1.8643 -49.832 L2.86222 -49.8225 L2.35533 -48.9631 L1.84844 -48.1037 L1.34155 -47.2443 L0.834657 -46.3849 L0.327768 -45.5255 L-0.163254 -46.3944 L-0.654276 -47.2633 L-1.1453 -48.1322 L-1.63632 -49.0012 L-2.12734 -49.8701 Z " />
<path stroke="rgb(200,255,200)" stroke-opacity="1" fill="rgb(200,255,200)" fill-opacity="1" id="tri_0_18_" d="M-7.2284 -41.2425 L-6.23074 -41.2334 L-5.23307 -41.2243 L-4.2354 -41.2153 L-3.23774 -41.2062 L-2.24007 -41.1971 L-2.74695 -40.3375 L-3.25383 -39.4778 L-3.76071 -38.6182 L-4.26759 -37.7586 L-4.77447 -36.899 L-5.26525 -37.7677 L-5.75604 -38.6364 L-6.24683 -39.5051 L-6.73761 -40.3738 L-7.2284 -41.2425 Z " />
<path stroke="rgb(200,255,200)" stroke-opacity="1" fill="rgb(200,255,200)" fill-opacity="1" id="tri_1_16_" d="M2.54368 -41.0594 L3.53887 -41.0558 L4.53406 -41.0521 L5.52925 -41.0484 L6.52444 -41.0447 L7.51963 -41.041 L7.01883 -40.181 L6.51802 -39.3209 L6.01722 -38.4609 L5.51641 -37.6008 L5.01561 -36.7408 L4.52122 -37.6045 L4.02684 -38.4683 L3.53245 -39.332 L3.03807 -40.1957 L2.54368 -41.0594 Z " />
<path stroke="rgb(200,255,200)" stroke-opacity="1" fill="rgb(200,255,200)" fill-opacity="1" id="tri_0_17_" d="M3.09487 -41.6945 L2.09697 -41.7038 L1.09907 -41.7131 L0.10117 -41.7224 L-0.896731 -41.7316 L-1.89463 -41.7409 L-1.38775 -42.6006 L-0.880873 -43.4602 L-0.373995 -44.3198 L0.132883 -45.1794 L0.639762 -46.039 L1.13078 -45.1701 L1.62181 -44.3012 L2.11283 -43.4323 L2.60385 -42.5634 L3.09487 -41.6945 Z " />
<path stroke="rgb(200,255,200)" stroke-opacity="1" fill="rgb(200,255,200)" fill-opacity="1" id="tri_0_16_" d="M-12.3304 -32.6147 L-11.3322 -32.6054 L-10.3341 -32.5961 L-9.33599 -32.5868 L-8.33786 -32.5775 L-7.33974 -32.5682 L-7.84701 -31.7085 L-8.35429 -30.8488 L-8.86157 -29.989 L-9.36884 -29.1293 L-9.87612 -28.2696 L-10.367 -29.1386 L-10.8578 -30.0076 L-11.3487 -30.8766 L-11.8395 -31.7456 L-12.3304 -32.6147 Z " />
<path stroke="rgb(200,255,200)" stroke-opacity="1" fill="rgb(200,255,200)" fill-opacity="1" id="tri_1_15_" d="M-2.49461 -32.4191 L-1.49926 -32.4158 L-0.503908 -32.4124 L0.491444 -32.409 L1.4868 -32.4057 L2.48215 -32.4023 L1.98113 -31.542 L1.48012 -30.6818 L0.979103 -29.8215 L0.478087 -28.9612 L-0.0229277 -28.1009 L-0.517264 -28.9646 L-1.0116 -29.8282 L-1.50594 -30.6919 L-2.00027 -31.5555 L-2.49461 -32.4191 Z " />
<path stroke="rgb(200,255,200)" stroke-opacity="1" fill="rgb(200,255,200)" fill-opacity="1" id="tri_0_15_" d="M-2.006 -33.0674 L-3.00406 -33.0764 L-4.00213 -33.0854 L-5.00019 -33.0943 L-5.99825 -33.1033 L-6.99632 -33.1123 L-6.48904 -33.972 L-5.98176 -34.8317 L-5.47449 -35.6915 L-4.96721 -36.5512 L-4.45993 -37.4109 L-3.96915 -36.5422 L-3.47836 -35.6735 L-2.98757 -34.8048 L-2.49679 -33.9361 L-2.006 -33.0674 Z " />
<path stroke="rgb(200,255,200)" stroke-opacity="1" fill="rgb(200,255,200)" fill-opacity="1" id="tri_2_14_" d="M7.37793 -32.3549 L8.37166 -32.355 L9.3654 -32.355 L10.3591 -32.3551 L11.3529 -32.3551 L12.3466 -32.3552 L11.8493 -31.4947 L11.3519 -30.6343 L10.8546 -29.7738 L10.3573 -28.9133 L9.85995 -28.0529 L9.36354 -28.9133 L8.86714 -29.7737 L8.37074 -30.6341 L7.87433 -31.4945 L7.37793 -32.3549 Z " />
<path stroke="rgb(200,255,200)" stroke-opacity="1" fill="rgb(200,255,200)" fill-opacity="1" id="tri_1_14_" d="M7.79978 -32.9326 L6.80438 -32.9361 L5.80898 -32.9395 L4.81358 -32.943 L3.81818 -32.9465 L2.82278 -32.9499 L3.3238 -33.8102 L3.82481 -34.6705 L4.32583 -35.5307 L4.82684 -36.391 L5.32786 -37.2513 L5.82224 -36.3875 L6.31663 -35.5238 L6.81101 -34.6601 L7.3054 -33.7964 L7.79978 -32.9326 Z " />
<path stroke="rgb(200,255,200)" stroke-opacity="1" fill="rgb(200,255,200)" fill-opacity="1" id="tri_0_14_" d="M-17.4341 -23.9846 L-16.4359 -23.9754 L-15.4377 -23.9663 L-14.4396 -23.9571 L-13.4414 -23.948 L-12.4433 -23.9388 L-12.9505 -23.0793 L-13.4578 -22.2198 L-13.9651 -21.3603 L-14.4724 -20.5008 L-14.9797 -19.6413 L-15.4706 -20.51 L-15.9614 -21.3786 L-16.4523 -22.2473 L-16.9432 -23.1159 L-17.4341 -23.9846 Z " />
<path stroke="rgb(200,255,200)" stroke-opacity="1" fill="rgb(200,255,200)" fill-opacity="1" id="tri_1_13_" d="M-7.53454 -23.7815 L-6.53911 -23.7776 L-5.54369 -23.7737 L-4.54826 -23.7698 L-3.55284 -23.766 L-2.55741 -23.7621 L-3.05821 -22.902 L-3.55902 -22.042 L-4.05982 -21.1819 L-4.56063 -20.3219 L-5.06143 -19.4619 L-5.55605 -20.3258 L-6.05067 -21.1897 L-6.5453 -22.0537 L-7.03992 -22.9176 L-7.53454 -23.7815 Z " />
<path stroke="rgb(200,255,200)" stroke-opacity="1" fill="rgb(200,255,200)" fill-opacity="1" id="tri_0_13_" d="M-7.10865 -24.4368 L-8.10678 -24.4463 L-9.10492 -24.4558 L-10.1031 -24.4653 L-11.1012 -24.4748 L-12.0993 -24.4843 L-11.592 -25.3438 L-11.0847 -26.2033 L-10.5775 -27.0628 L-10.0702 -27.9223 L-9.56288 -28.7818 L-9.07204 -27.9128 L-8.58119 -27.0438 L-8.09034 -26.1748 L-7.59949 -25.3058 L-7.10865 -24.4368 Z " />
<path stroke="rgb(200,255,200)" stroke-opacity="1" fill="rgb(200,255,200)" fill-opacity="1" id="tri_2_13_" d="M2.37856 -23.7103 L3.37204 -23.7102 L4.36551 -23.7101 L5.35899 -23.71 L6.35246 -23.7099 L7.34594 -23.7098 L6.84878 -22.8495 L6.35162 -21.9891 L5.85446 -21.1287 L5.35731 -20.2684 L4.86015 -19.408 L4.36383 -20.2685 L3.86751 -21.1289 L3.3712 -21.9894 L2.87488 -22.8498 L2.37856 -23.7103 Z " />
<path stroke="rgb(200,255,200)" stroke-opacity="1" fill="rgb(200,255,200)" fill-opacity="1" id="tri_1_12_" d="M2.76144 -24.2929 L1.7663 -24.2965 L0.771154 -24.3001 L-0.223987 -24.3037 L-1.21913 -24.3073 L-2.21427 -24.3109 L-1.71346 -25.1709 L-1.21266 -26.031 L-0.711856 -26.891 L-0.211051 -27.751 L0.289753 -28.6111 L0.78409 -27.7474 L1.27843 -26.8838 L1.77276 -26.0202 L2.2671 -25.1565 L2.76144 -24.2929 Z " />
<path stroke="rgb(200,255,200)" stroke-opacity="1" fill="rgb(200,255,200)" fill-opacity="1" id="tri_3_12_" d="M12.3096 -23.706 L13.3024 -23.7081 L14.2952 -23.7101 L15.288 -23.7121 L16.2807 -23.7141 L17.2735 -23.7162 L16.779 -22.8554 L16.2845 -21.9946 L15.7901 -21.1338 L15.2956 -20.2731 L14.8011 -19.4123 L14.3028 -20.271 L13.8045 -21.1298 L13.3062 -21.9885 L12.8079 -22.8473 L12.3096 -23.706 Z " />
<path stroke="rgb(200,255,200)" stroke-opacity="1" fill="rgb(200,255,200)" fill-opacity="1" id="tri_2_12_" d="M12.6535 -24.2587 L11.6599 -24.2588 L10.6663 -24.2588 L9.67278 -24.2589 L8.67922 -24.2589 L7.68566 -24.259 L8.18282 -25.1193 L8.67997 -25.9797 L9.17713 -26.84 L9.67429 -27.7004 L10.1715 -28.5608 L10.6679 -27.7004 L11.1643 -26.84 L11.6607 -25.9795 L12.1571 -25.1191 L12.6535 -24.2587 Z " />
<path stroke="rgb(200,255,200)" stroke-opacity="1" fill="rgb(200,255,200)" fill-opacity="1" id="tri_0_12_" d="M-22.534 -15.358 L-21.5364 -15.3486 L-20.5388 -15.3392 L-19.5413 -15.3299 L-18.5437 -15.3205 L-17.5461 -15.3112 L-18.0531 -14.4516 L-18.5601 -13.592 L-19.0671 -12.7324 L-19.5741 -11.8729 L-20.0811 -11.0133 L-20.5717 -11.8822 L-21.0623 -12.7511 L-21.5529 -13.6201 L-22.0434 -14.489 L-22.534 -15.358 Z " />
<path stroke="rgb(200,255,200)" stroke-opacity="1" fill="rgb(200,255,200)" fill-opacity="1" id="tri_1_11_" d="M-12.5737 -15.1415 L-11.5785 -15.138 L-10.5833 -15.1346 L-9.58816 -15.1311 L-8.59298 -15.1276 L-7.5978 -15.1242 L-8.09865 -14.264 L-8.59949 -13.4038 L-9.10033 -12.5437 L-9.60117 -11.6835 L-10.102 -10.8233 L-10.5964 -11.6869 L-11.0907 -12.5506 L-11.585 -13.4142 L-12.0794 -14.2779 L-12.5737 -15.1415 Z " />
<path stroke="rgb(200,255,200)" stroke-opacity="1" fill="rgb(200,255,200)" fill-opacity="1" id="tri_0_11_" d="M-12.2118 -15.8091 L-13.2097 -15.8182 L-14.2076 -15.8273 L-15.2055 -15.8364 L-16.2034 -15.8454 L-17.2013 -15.8545 L-16.6943 -16.7141 L-16.1872 -17.5737 L-15.6802 -18.4332 L-15.1732 -19.2928 L-14.6662 -20.1524 L-14.1753 -19.2838 L-13.6845 -18.4151 L-13.1936 -17.5465 L-12.7027 -16.6778 L-12.2118 -15.8091 Z " />
<path stroke="rgb(200,255,200)" stroke-opacity="1" fill="rgb(200,255,200)" fill-opacity="1" id="tri_2_11_" d="M-2.62408 -15.0664 L-1.63028 -15.0661 L-0.636482 -15.0658 L0.357315 -15.0656 L1.35111 -15.0653 L2.34491 -15.0651 L1.84774 -14.2049 L1.35057 -13.3448 L0.853394 -12.4847 L0.356223 -11.6245 L-0.140949 -10.7644 L-0.637574 -11.6248 L-1.1342 -12.4852 L-1.63083 -13.3456 L-2.12745 -14.206 L-2.62408 -15.0664 Z " />
<path stroke="rgb(200,255,200)" stroke-opacity="1" fill="rgb(200,255,200)" fill-opacity="1" id="tri_1_10_" d="M-2.27798 -15.6537 L-3.27345 -15.6574 L-4.26891 -15.6612 L-5.26437 -15.6649 L-6.25983 -15.6687 L-7.2553 -15.6725 L-6.75445 -16.5326 L-6.25361 -17.3928 L-5.75277 -18.253 L-5.25193 -19.1132 L-4.75109 -19.9733 L-4.25647 -19.1094 L-3.76184 -18.2455 L-3.26722 -17.3815 L-2.7726 -16.5176 L-2.27798 -15.6537 Z " />
<path stroke="rgb(200,255,200)" stroke-opacity="1" fill="rgb(200,255,200)" fill-opacity="1" id="tri_3_11_" d="M7.32866 -15.0592 L8.32135 -15.0609 L9.31405 -15.0627 L10.3068 -15.0644 L11.2994 -15.0662 L12.2921 -15.0679 L11.7974 -14.2072 L11.3027 -13.3465 L10.8079 -12.4858 L10.3132 -11.6251 L9.81841 -10.7644 L9.32046 -11.6234 L8.82251 -12.4823 L8.32456 -13.3413 L7.82661 -14.2002 L7.32866 -15.0592 Z " />
<path stroke="rgb(200,255,200)" stroke-opacity="1" fill="rgb(200,255,200)" fill-opacity="1" id="tri_2_10_" d="M7.65269 -15.6145 L6.6592 -15.6148 L5.66571 -15.6151 L4.67222 -15.6155 L3.67874 -15.6158 L2.68525 -15.6161 L3.18242 -16.4762 L3.67959 -17.3364 L4.17676 -18.1965 L4.67393 -19.0566 L5.1711 -19.9168 L5.66742 -19.0563 L6.16374 -18.1959 L6.66006 -17.3354 L7.15637 -16.475 L7.65269 -15.6145 Z " />
<path stroke="rgb(200,255,200)" stroke-opacity="1" fill="rgb(200,255,200)" fill-opacity="1" id="tri_4_10_" d="M17.294 -15.0763 L18.2864 -15.0787 L19.2788 -15.0811 L20.2713 -15.0835 L21.2637 -15.086 L22.2561 -15.0884 L21.7618 -14.2279 L21.2674 -13.3675 L20.7731 -12.507 L20.2788 -11.6466 L19.7844 -10.7861 L19.2864 -11.6441 L18.7883 -12.5022 L18.2902 -13.3602 L17.7921 -14.2182 L17.294 -15.0763 Z " />
<path stroke="rgb(200,255,200)" stroke-opacity="1" fill="rgb(200,255,200)" fill-opacity="1" id="tri_3_10_" d="M17.5989 -15.6278 L16.6058 -15.6258 L15.6128 -15.6239 L14.6197 -15.6219 L13.6267 -15.62 L12.6337 -15.618 L13.1284 -16.4787 L13.6232 -17.3394 L14.1179 -18.2001 L14.6126 -19.0608 L15.1074 -19.9215 L15.6057 -19.0628 L16.104 -18.204 L16.6023 -17.3453 L17.1006 -16.4865 L17.5989 -15.6278 Z " />
<path stroke="rgb(200,255,200)" stroke-opacity="1" fill="rgb(200,255,200)" fill-opacity="1" id="tri_0_10_" d="M-27.6368 -6.72961 L-26.6387 -6.72047 L-25.6405 -6.71132 L-24.6423 -6.70218 L-23.6442 -6.69303 L-22.646 -6.68389 L-23.1535 -5.82406 L-23.6609 -4.96423 L-24.1684 -4.1044 L-24.6758 -3.24457 L-25.1833 -2.38474 L-25.674 -3.25372 L-26.1647 -4.12269 L-26.6554 -4.99167 L-27.1461 -5.86064 L-27.6368 -6.72961 Z " />
<path stroke="rgb(200,255,200)" stroke-opacity="1" fill="rgb(200,255,200)" fill-opacity="1" id="tri_1_9_" d="M-17.6119 -6.50251 L-16.6166 -6.49901 L-15.6213 -6.49551 L-14.626 -6.49201 L-13.6306 -6.48851 L-12.6353 -6.48501 L-13.1362 -5.62492 L-13.6371 -4.76483 L-14.138 -3.90474 L-14.6389 -3.04465 L-15.1398 -2.18456 L-15.6342 -3.04815 L-16.1286 -3.91174 L-16.6231 -4.77533 L-17.1175 -5.63892 L-17.6119 -6.50251 Z " />
<path stroke="rgb(200,255,200)" stroke-opacity="1" fill="rgb(200,255,200)" fill-opacity="1" id="tri_0_9_" d="M-17.313 -7.18131 L-18.311 -7.19042 L-19.3091 -7.19953 L-20.3071 -7.20864 L-21.3051 -7.21775 L-22.3032 -7.22685 L-21.7957 -8.08668 L-21.2883 -8.94651 L-20.7808 -9.80634 L-20.2734 -10.6662 L-19.7659 -11.526 L-19.2753 -10.6571 L-18.7847 -9.78812 L-18.2942 -8.91919 L-17.8036 -8.05025 L-17.313 -7.18131 Z " />
<path stroke="rgb(200,255,200)" stroke-opacity="1" fill="rgb(200,255,200)" fill-opacity="1" id="tri_2_9_" d="M-7.62432 -6.42119 L-6.63076 -6.42114 L-5.63719 -6.4211 L-4.64363 -6.42105 L-3.65007 -6.42101 L-2.65651 -6.42096 L-3.1534 -5.56053 L-3.65028 -4.70009 L-4.14717 -3.83966 L-4.64405 -2.97922 L-5.14094 -2.11878 L-5.63762 -2.97927 L-6.13429 -3.83975 L-6.63097 -4.70023 L-7.12764 -5.56071 L-7.62432 -6.42119 Z " />
<path stroke="rgb(200,255,200)" stroke-opacity="1" fill="rgb(200,255,200)" fill-opacity="1" id="tri_1_8_" d="M-7.31778 -7.01548 L-8.31301 -7.01903 L-9.30824 -7.02258 L-10.3035 -7.02613 L-11.2987 -7.02968 L-12.2939 -7.03323 L-11.793 -7.89332 L-11.2921 -8.75341 L-10.7912 -9.6135 L-10.2904 -10.4736 L-9.78946 -11.3337 L-9.29512 -10.47 L-8.80079 -9.6064 L-8.30645 -8.74276 L-7.81212 -7.87912 L-7.31778 -7.01548 Z " />
<path stroke="rgb(200,255,200)" stroke-opacity="1" fill="rgb(200,255,200)" fill-opacity="1" id="tri_3_9_" d="M2.34758 -6.41135 L3.3403 -6.41347 L4.33302 -6.41558 L5.32574 -6.41769 L6.31846 -6.4198 L7.31118 -6.42191 L6.81635 -5.56116 L6.32151 -4.70041 L5.82668 -3.83966 L5.33185 -2.97891 L4.83701 -2.11816 L4.33913 -2.9768 L3.84124 -3.83544 L3.34335 -4.69408 L2.84547 -5.55272 L2.34758 -6.41135 Z " />
<path stroke="rgb(200,255,200)" stroke-opacity="1" fill="rgb(200,255,200)" fill-opacity="1" id="tri_2_8_" d="M2.65193 -6.97094 L1.65842 -6.9709 L0.664905 -6.97086 L-0.328607 -6.97082 L-1.32212 -6.97077 L-2.31563 -6.97073 L-1.81874 -7.83117 L-1.32186 -8.6916 L-0.824971 -9.55204 L-0.328085 -10.4125 L0.168801 -11.2729 L0.665426 -10.4125 L1.16205 -9.55212 L1.65868 -8.69173 L2.1553 -7.83133 L2.65193 -6.97094 Z " />
<path stroke="rgb(200,255,200)" stroke-opacity="1" fill="rgb(200,255,200)" fill-opacity="1" id="tri_4_9_" d="M12.3199 -6.42798 L13.312 -6.43026 L14.3042 -6.43254 L15.2963 -6.43482 L16.2885 -6.4371 L17.2806 -6.43938 L16.7867 -5.57889 L16.2927 -4.71841 L15.7987 -3.85793 L15.3048 -2.99745 L14.8108 -2.13697 L14.3126 -2.99517 L13.8144 -3.85337 L13.3162 -4.71157 L12.818 -5.56978 L12.3199 -6.42798 Z " />
<path stroke="rgb(200,255,200)" stroke-opacity="1" fill="rgb(200,255,200)" fill-opacity="1" id="tri_3_8_" d="M12.6157 -6.97971 L11.6229 -6.97791 L10.6301 -6.97611 L9.63731 -6.97431 L8.64452 -6.9725 L7.65174 -6.9707 L8.14657 -7.83145 L8.64141 -8.6922 L9.13624 -9.55295 L9.63107 -10.4137 L10.1259 -11.2744 L10.6239 -10.4155 L11.1218 -9.55655 L11.6198 -8.69761 L12.1177 -7.83866 L12.6157 -6.97971 Z " />
<path stroke="rgb(200,255,200)" stroke-opacity="1" fill="rgb(200,255,200)" fill-opacity="1" id="tri_5_8_" d="M22.296 -6.44485 L23.2878 -6.44737 L24.2795 -6.44989 L25.2713 -6.45241 L26.263 -6.45493 L27.2548 -6.45745 L26.7609 -5.59736 L26.2671 -4.73727 L25.7732 -3.87718 L25.2793 -3.01709 L24.7855 -2.15701 L24.2876 -3.01457 L23.7897 -3.87214 L23.2918 -4.72971 L22.7939 -5.58728 L22.296 -6.44485 Z " />
<path stroke="rgb(200,255,200)" stroke-opacity="1" fill="rgb(200,255,200)" fill-opacity="1" id="tri_4_8_" d="M22.5836 -7.00271 L21.5916 -7.00026 L20.5995 -6.99781 L19.6075 -6.99535 L18.6154 -6.9929 L17.6234 -6.99045 L18.1173 -7.85093 L18.6113 -8.71141 L19.1053 -9.57189 L19.5992 -10.4324 L20.0932 -11.2929 L20.5913 -10.4348 L21.0894 -9.5768 L21.5875 -8.71877 L22.0856 -7.86074 L22.5836 -7.00271 Z " />
<path stroke="rgb(200,255,200)" stroke-opacity="1" fill="rgb(200,255,200)" fill-opacity="1" id="tri_0_8_" d="M-32.7407 1.89875 L-31.7426 1.90812 L-30.7444 1.91749 L-29.7462 1.92686 L-28.748 1.93622 L-27.7499 1.94559 L-28.257 2.80514 L-28.7642 3.66468 L-29.2713 4.52423 L-29.7785 5.38377 L-30.2856 6.24332 L-30.7767 5.3744 L-31.2677 4.50549 L-31.7587 3.63658 L-32.2497 2.76766 L-32.7407 1.89875 Z " />
<path stroke="rgb(200,255,200)" stroke-opacity="1" fill="rgb(200,255,200)" fill-opacity="1" id="tri_1_7_" d="M-22.6512 2.13511 L-21.656 2.13893 L-20.6609 2.14275 L-19.6657 2.14658 L-18.6706 2.1504 L-17.6754 2.15422 L-18.1764 3.014 L-18.6773 3.87378 L-19.1783 4.73356 L-19.6792 5.59334 L-20.1802 6.45312 L-20.6744 5.58952 L-21.1686 4.72591 L-21.6628 3.86231 L-22.157 2.99871 L-22.6512 2.13511 Z " />
<path stroke="rgb(200,255,200)" stroke-opacity="1" fill="rgb(200,255,200)" fill-opacity="1" id="tri_0_7_" d="M-22.4153 1.44788 L-23.4132 1.43845 L-24.4111 1.42902 L-25.4089 1.41959 L-26.4068 1.41016 L-27.4047 1.40073 L-26.8975 0.541183 L-26.3904 -0.318361 L-25.8832 -1.17791 L-25.3761 -2.03745 L-24.8689 -2.89699 L-24.3782 -2.02802 L-23.8875 -1.15905 L-23.3968 -0.290071 L-22.9061 0.578904 L-22.4153 1.44788 Z " />
<path stroke="rgb(200,255,200)" stroke-opacity="1" fill="rgb(200,255,200)" fill-opacity="1" id="tri_2_7_" d="M-12.6261 2.22316 L-11.6324 2.22347 L-10.6387 2.22377 L-9.64502 2.22408 L-8.65131 2.22438 L-7.6576 2.22469 L-8.15467 3.085 L-8.65174 3.94531 L-9.14881 4.80562 L-9.64588 5.66594 L-10.143 6.52625 L-10.6396 5.66563 L-11.1362 4.80502 L-11.6329 3.9444 L-12.1295 3.08378 L-12.6261 2.22316 Z " />
<path stroke="rgb(200,255,200)" stroke-opacity="1" fill="rgb(200,255,200)" fill-opacity="1" id="tri_1_6_" d="M-12.3565 1.62375 L-13.3519 1.61994 L-14.3473 1.61613 L-15.3427 1.61232 L-16.338 1.60851 L-17.3334 1.60469 L-16.8325 0.744916 L-16.3315 -0.114864 L-15.8305 -0.974643 L-15.3296 -1.83442 L-14.8286 -2.6942 L-14.3342 -1.83061 L-13.8398 -0.967021 L-13.3454 -0.103431 L-12.8509 0.760159 L-12.3565 1.62375 Z " />
<path stroke="rgb(200,255,200)" stroke-opacity="1" fill="rgb(200,255,200)" fill-opacity="1" id="tri_3_7_" d="M-2.63388 2.23659 L-1.64093 2.23469 L-0.64797 2.23279 L0.344987 2.23089 L1.33794 2.22899 L2.3309 2.22708 L1.83588 3.08771 L1.34086 3.94834 L0.845839 4.80897 L0.350819 5.66959 L-0.144201 6.53022 L-0.642138 5.6715 L-1.14007 4.81277 L-1.63801 3.95404 L-2.13595 3.09532 L-2.63388 2.23659 Z " />
<path stroke="rgb(200,255,200)" stroke-opacity="1" fill="rgb(200,255,200)" fill-opacity="1" id="tri_2_6_" d="M-2.34778 1.6745 L-3.34153 1.67433 L-4.33527 1.67416 L-5.32902 1.67399 L-6.32277 1.67382 L-7.31652 1.67366 L-6.81945 0.813344 L-6.32237 -0.0469685 L-5.8253 -0.907281 L-5.32823 -1.76759 L-4.83116 -2.62791 L-4.33448 -1.76743 L-3.83781 -0.906945 L-3.34113 -0.0464638 L-2.84446 0.814017 L-2.34778 1.6745 Z " />
<path stroke="rgb(200,255,200)" stroke-opacity="1" fill="rgb(200,255,200)" fill-opacity="1" id="tri_4_7_" d="M7.34481 2.22119 L8.33709 2.21873 L9.32937 2.21626 L10.3216 2.2138 L11.3139 2.21133 L12.3062 2.20887 L11.8122 3.06935 L11.3183 3.92983 L10.8243 4.79031 L10.3303 5.65079 L9.83635 6.51127 L9.33804 5.65325 L8.83973 4.79524 L8.34143 3.93722 L7.84312 3.07921 L7.34481 2.22119 Z " />
<path stroke="rgb(200,255,200)" stroke-opacity="1" fill="rgb(200,255,200)" fill-opacity="1" id="tri_3_6_" d="M7.63474 1.66717 L6.64183 1.66916 L5.64892 1.67115 L4.65602 1.67314 L3.66311 1.67513 L2.6702 1.67712 L3.16522 0.816489 L3.66024 -0.0441381 L4.15526 -0.904765 L4.65028 -1.76539 L5.1453 -2.62602 L5.64319 -1.76738 L6.14108 -0.908742 L6.63896 -0.0501029 L7.13685 0.808536 L7.63474 1.66717 Z " />
<path stroke="rgb(200,255,200)" stroke-opacity="1" fill="rgb(200,255,200)" fill-opacity="1" id="tri_5_7_" d="M17.3232 2.20368 L18.3151 2.20133 L19.307 2.19899 L20.2988 2.19664 L21.2907 2.19429 L22.2826 2.19195 L21.7883 3.05215 L21.294 3.91235 L20.7998 4.77255 L20.3055 5.63276 L19.8112 6.49296 L19.3136 5.6351 L18.816 4.77725 L18.3184 3.91939 L17.8208 3.06153 L17.3232 2.20368 Z " />
<path stroke="rgb(200,255,200)" stroke-opacity="1" fill="rgb(200,255,200)" fill-opacity="1" id="tri_4_6_" d="M17.6097 1.64567 L16.6175 1.64795 L15.6254 1.65023 L14.6332 1.65251 L13.641 1.65479 L12.6489 1.65706 L13.1429 0.796584 L13.6368 -0.0638965 L14.1308 -0.924377 L14.6248 -1.78486 L15.1187 -2.64534 L15.6169 -1.78714 L16.1151 -0.928933 L16.6133 -0.0707317 L17.1115 0.78747 L17.6097 1.64567 Z " />
<path stroke="rgb(200,255,200)" stroke-opacity="1" fill="rgb(200,255,200)" fill-opacity="1" id="tri_6_6_" d="M27.2971 2.1882 L28.2891 2.18547 L29.2811 2.18274 L30.2731 2.18001 L31.2651 2.17728 L32.257 2.17455 L31.7634 3.03471 L31.2699 3.89487 L30.7763 4.75502 L30.2827 5.61518 L29.7891 6.47533 L29.2907 5.61791 L28.7923 4.76048 L28.2939 3.90305 L27.7955 3.04563 L27.2971 2.1882 Z " />
<path stroke="rgb(200,255,200)" stroke-opacity="1" fill="rgb(200,255,200)" fill-opacity="1" id="tri_5_6_" d="M27.5842 1.62688 L26.5921 1.62951 L25.5999 1.63214 L24.6078 1.63478 L23.6156 1.63741 L22.6234 1.64004 L23.1177 0.77984 L23.612 -0.080361 L24.1062 -0.940563 L24.6005 -1.80077 L25.0947 -2.66097 L25.5926 -1.8034 L26.0905 -0.945828 L26.5884 -0.0882593 L27.0863 0.769309 L27.5842 1.62688 Z " />
<path stroke="rgb(200,255,200)" stroke-opacity="1" fill="rgb(200,255,200)" fill-opacity="1" id="tri_0_6_" d="M-37.8424 10.5285 L-36.8444 10.5376 L-35.8464 10.5467 L-34.8483 10.5558 L-33.8503 10.565 L-32.8523 10.5741 L-33.3593 11.434 L-33.8664 12.2939 L-34.3734 13.1539 L-34.8805 14.0138 L-35.3875 14.8738 L-35.8785 14.0047 L-36.3695 13.1357 L-36.8605 12.2666 L-37.3514 11.3976 L-37.8424 10.5285 Z " />
<path stroke="rgb(200,255,200)" stroke-opacity="1" fill="rgb(200,255,200)" fill-opacity="1" id="tri_1_5_" d="M-27.6902 10.7752 L-26.6948 10.7786 L-25.6995 10.7819 L-24.7041 10.7853 L-23.7088 10.7887 L-22.7134 10.792 L-23.2146 11.652 L-23.7158 12.5121 L-24.2169 13.3721 L-24.7181 14.2321 L-25.2193 15.0921 L-25.7134 14.2287 L-26.2076 13.3653 L-26.7018 12.502 L-27.196 11.6386 L-27.6902 10.7752 Z " />
<path stroke="rgb(200,255,200)" stroke-opacity="1" fill="rgb(200,255,200)" fill-opacity="1" id="tri_0_5_" d="M-27.5173 10.0755 L-28.5153 10.0665 L-29.5134 10.0576 L-30.5114 10.0486 L-31.5095 10.0396 L-32.5076 10.0306 L-32.0005 9.1707 L-31.4935 8.31076 L-30.9865 7.45082 L-30.4794 6.59088 L-29.9724 5.73093 L-29.4813 6.59985 L-28.9903 7.46876 L-28.4993 8.33767 L-28.0083 9.20659 L-27.5173 10.0755 Z " />
<path stroke="rgb(200,255,200)" stroke-opacity="1" fill="rgb(200,255,200)" fill-opacity="1" id="tri_2_5_" d="M-17.6282 10.8679 L-16.6345 10.868 L-15.6408 10.8681 L-14.6471 10.8682 L-13.6534 10.8682 L-12.6597 10.8683 L-13.1564 11.7287 L-13.6531 12.589 L-14.1499 13.4493 L-14.6466 14.3097 L-15.1433 15.17 L-15.6403 14.3096 L-16.1372 13.4492 L-16.6342 12.5888 L-17.1312 11.7283 L-17.6282 10.8679 Z " />
<path stroke="rgb(200,255,200)" stroke-opacity="1" fill="rgb(200,255,200)" fill-opacity="1" id="tri_1_4_" d="M-17.3971 10.2617 L-18.3925 10.2581 L-19.3879 10.2545 L-20.3832 10.2509 L-21.3786 10.2473 L-22.374 10.2437 L-21.8728 9.38373 L-21.3716 8.52372 L-20.8705 7.6637 L-20.3693 6.80369 L-19.8681 5.94367 L-19.3739 6.80727 L-18.8797 7.67088 L-18.3855 8.53448 L-17.8913 9.39808 L-17.3971 10.2617 Z " />
<path stroke="rgb(200,255,200)" stroke-opacity="1" fill="rgb(200,255,200)" fill-opacity="1" id="tri_3_5_" d="M-7.61384 10.8831 L-6.62127 10.8813 L-5.62871 10.8795 L-4.63615 10.8777 L-3.64359 10.8759 L-2.65103 10.8741 L-3.1459 11.735 L-3.64077 12.5959 L-4.13564 13.4568 L-4.63051 14.3177 L-5.12538 15.1785 L-5.62307 14.3194 L-6.12076 13.4604 L-6.61845 12.6013 L-7.11615 11.7422 L-7.61384 10.8831 Z " />
<path stroke="rgb(200,255,200)" stroke-opacity="1" fill="rgb(200,255,200)" fill-opacity="1" id="tri_2_4_" d="M-7.35036 10.319 L-8.34371 10.3187 L-9.33707 10.3184 L-10.3304 10.3181 L-11.3238 10.3179 L-12.3171 10.3176 L-11.8204 9.45724 L-11.3237 8.59691 L-10.827 7.73657 L-10.3303 6.87623 L-9.83355 6.0159 L-9.33691 6.87651 L-8.84027 7.73713 L-8.34364 8.59775 L-7.847 9.45836 L-7.35036 10.319 Z " />
<path stroke="rgb(200,255,200)" stroke-opacity="1" fill="rgb(200,255,200)" fill-opacity="1" id="tri_4_5_" d="M2.37174 10.8719 L3.36392 10.8693 L4.3561 10.8667 L5.34828 10.864 L6.34046 10.8614 L7.33264 10.8588 L6.83853 11.7192 L6.34442 12.5796 L5.85031 13.4401 L5.35621 14.3005 L4.8621 15.161 L4.36403 14.3032 L3.86596 13.4454 L3.36788 12.5876 L2.86981 11.7298 L2.37174 10.8719 Z " />
<path stroke="rgb(200,255,200)" stroke-opacity="1" fill="rgb(200,255,200)" fill-opacity="1" id="tri_3_4_" d="M2.6537 10.3158 L1.6609 10.3179 L0.668089 10.3201 L-0.324718 10.3222 L-1.31753 10.3244 L-2.31033 10.3266 L-1.81546 9.46568 L-1.32059 8.6048 L-0.82572 7.74391 L-0.330849 6.88303 L0.164022 6.02214 L0.661959 6.88086 L1.15989 7.73959 L1.65783 8.59832 L2.15577 9.45704 L2.6537 10.3158 Z " />
<path stroke="rgb(200,255,200)" stroke-opacity="1" fill="rgb(200,255,200)" fill-opacity="1" id="tri_5_5_" d="M12.3489 10.853 L13.341 10.8505 L14.3331 10.848 L15.3253 10.8455 L16.3174 10.843 L17.3095 10.8405 L16.8153 11.7009 L16.3212 12.5613 L15.827 13.4216 L15.3329 14.282 L14.8387 15.1424 L14.3407 14.2845 L13.8428 13.4266 L13.3448 12.5688 L12.8469 11.7109 L12.3489 10.853 Z " />
<path stroke="rgb(200,255,200)" stroke-opacity="1" fill="rgb(200,255,200)" fill-opacity="1" id="tri_4_4_" d="M12.6355 10.2945 L11.6431 10.297 L10.6507 10.2994 L9.6583 10.3018 L8.66588 10.3043 L7.67347 10.3067 L8.16757 9.44625 L8.66168 8.5858 L9.15579 7.72536 L9.64989 6.86492 L10.144 6.00447 L10.6423 6.86249 L11.1406 7.7205 L11.6389 8.57852 L12.1372 9.43653 L12.6355 10.2945 Z " />
<path stroke="rgb(200,255,200)" stroke-opacity="1" fill="rgb(200,255,200)" fill-opacity="1" id="tri_6_5_" d="M22.3257 10.8377 L23.3173 10.8351 L24.3089 10.8325 L25.3005 10.8299 L26.2921 10.8273 L27.2836 10.8247 L26.7903 11.6848 L26.2969 12.5449 L25.8035 13.4051 L25.3102 14.2652 L24.8168 15.1254 L24.3186 14.2678 L23.8204 13.4103 L23.3221 12.5528 L22.8239 11.6953 L22.3257 10.8377 Z " />
<path stroke="rgb(200,255,200)" stroke-opacity="1" fill="rgb(200,255,200)" fill-opacity="1" id="tri_5_4_" d="M22.6102 10.277 L21.6184 10.2795 L20.6266 10.282 L19.6349 10.2846 L18.6431 10.2871 L17.6513 10.2896 L18.1455 9.42922 L18.6397 8.56885 L19.1338 7.70847 L19.628 6.8481 L20.1221 5.98772 L20.6197 6.84558 L21.1174 7.70343 L21.615 8.56129 L22.1126 9.41915 L22.6102 10.277 Z " />
<path stroke="rgb(200,255,200)" stroke-opacity="1" fill="rgb(200,255,200)" fill-opacity="1" id="tri_7_4_" d="M32.3024 10.8196 L33.2938 10.817 L34.2853 10.8144 L35.2767 10.8117 L36.2682 10.8091 L37.2596 10.8065 L36.7658 11.6661 L36.2719 12.5257 L35.778 13.3853 L35.2841 14.2449 L34.7902 15.1045 L34.2926 14.2475 L33.7951 13.3905 L33.2975 12.5336 L32.8 11.6766 L32.3024 10.8196 Z " />
<path stroke="rgb(200,255,200)" stroke-opacity="1" fill="rgb(200,255,200)" fill-opacity="1" id="tri_6_4_" d="M32.5878 10.2582 L31.596 10.2609 L30.6042 10.2636 L29.6125 10.2663 L28.6207 10.269 L27.629 10.2717 L28.1223 9.41158 L28.6157 8.55144 L29.1091 7.6913 L29.6025 6.83116 L30.0958 5.97102 L30.5942 6.82844 L31.0926 7.68587 L31.591 8.5433 L32.0894 9.40072 L32.5878 10.2582 Z " />
<path stroke="rgb(200,255,200)" stroke-opacity="1" fill="rgb(200,255,200)" fill-opacity="1" id="tri_0_4_" d="M-42.9458 19.1572 L-41.9477 19.1664 L-40.9496 19.1757 L-39.9514 19.185 L-38.9533 19.1943 L-37.9552 19.2036 L-38.4622 20.0632 L-38.9692 20.9227 L-39.4762 21.7823 L-39.9832 22.6419 L-40.4903 23.5015 L-40.9814 22.6326 L-41.4725 21.7638 L-41.9636 20.8949 L-42.4547 20.026 L-42.9458 19.1572 Z " />
<path stroke="rgb(200,255,200)" stroke-opacity="1" fill="rgb(200,255,200)" fill-opacity="1" id="tri_1_3_" d="M-32.7296 19.4127 L-31.7343 19.4165 L-30.739 19.4204 L-29.7437 19.4243 L-28.7484 19.4281 L-27.7531 19.432 L-28.2541 20.2917 L-28.7551 21.1514 L-29.2561 22.0111 L-29.7571 22.8707 L-30.2581 23.7304 L-30.7524 22.8669 L-31.2467 22.0033 L-31.741 21.1398 L-32.2353 20.2762 L-32.7296 19.4127 Z " />
<path stroke="rgb(200,255,200)" stroke-opacity="1" fill="rgb(200,255,200)" fill-opacity="1" id="tri_0_3_" d="M-32.6193 18.7055 L-33.6173 18.696 L-34.6153 18.6866 L-35.6133 18.6771 L-36.6113 18.6676 L-37.6093 18.6582 L-37.1023 17.7986 L-36.5953 16.939 L-36.0883 16.0794 L-35.5813 15.2198 L-35.0742 14.3603 L-34.5833 15.2293 L-34.0923 16.0984 L-33.6013 16.9674 L-33.1103 17.8365 L-32.6193 18.7055 Z " />
<path stroke="rgb(200,255,200)" stroke-opacity="1" fill="rgb(200,255,200)" fill-opacity="1" id="tri_2_3_" d="M-22.6283 19.513 L-21.6348 19.5132 L-20.6412 19.5133 L-19.6477 19.5135 L-18.6542 19.5137 L-17.6607 19.5139 L-18.1576 20.3743 L-18.6544 21.2348 L-19.1513 22.0952 L-19.6482 22.9556 L-20.1451 23.8161 L-20.6417 22.9555 L-21.1384 22.0948 L-21.635 21.2342 L-22.1317 20.3736 L-22.6283 19.513 Z " />
<path stroke="rgb(200,255,200)" stroke-opacity="1" fill="rgb(200,255,200)" fill-opacity="1" id="tri_1_2_" d="M-22.436 18.9008 L-23.4312 18.8971 L-24.4264 18.8934 L-25.4215 18.8897 L-26.4167 18.886 L-27.4119 18.8823 L-26.9109 18.0226 L-26.4099 17.1629 L-25.9089 16.3033 L-25.4079 15.4436 L-24.9069 14.5839 L-24.4127 15.4473 L-23.9185 16.3106 L-23.4244 17.174 L-22.9302 18.0374 L-22.436 18.9008 Z " />
<path stroke="rgb(200,255,200)" stroke-opacity="1" fill="rgb(200,255,200)" fill-opacity="1" id="tri_3_3_" d="M-12.5966 19.5322 L-11.6036 19.5301 L-10.6105 19.528 L-9.61741 19.5259 L-8.62434 19.5238 L-7.63126 19.5217 L-8.12657 20.3826 L-8.62189 21.2436 L-9.1172 22.1045 L-9.61251 22.9654 L-10.1078 23.8263 L-10.6056 22.9675 L-11.1034 22.1086 L-11.6011 21.2498 L-12.0989 20.391 L-12.5966 19.5322 Z " />
<path stroke="rgb(200,255,200)" stroke-opacity="1" fill="rgb(200,255,200)" fill-opacity="1" id="tri_2_2_" d="M-12.3499 18.963 L-13.3438 18.963 L-14.3377 18.963 L-15.3315 18.963 L-16.3254 18.9631 L-17.3193 18.9631 L-16.8224 18.1026 L-16.3255 17.2422 L-15.8286 16.3818 L-15.3317 15.5213 L-14.8348 14.6609 L-14.3379 15.5213 L-13.8409 16.3817 L-13.3439 17.2422 L-12.8469 18.1026 L-12.3499 18.963 Z " />
<path stroke="rgb(200,255,200)" stroke-opacity="1" fill="rgb(200,255,200)" fill-opacity="1" id="tri_4_3_" d="M-2.60305 19.5201 L-1.61067 19.5178 L-0.618297 19.5156 L0.374081 19.5133 L1.36646 19.511 L2.35884 19.5087 L1.86494 20.3689 L1.37104 21.2291 L0.87714 22.0893 L0.383242 22.9495 L-0.110657 23.8097 L-0.609137 22.9518 L-1.10762 22.0939 L-1.60609 21.236 L-2.10457 20.3781 L-2.60305 19.5201 Z " />
<path stroke="rgb(200,255,200)" stroke-opacity="1" fill="rgb(200,255,200)" fill-opacity="1" id="tri_3_2_" d="M-2.32751 18.9644 L-3.32052 18.9662 L-4.31352 18.968 L-5.30653 18.9698 L-6.29953 18.9716 L-7.29254 18.9734 L-6.79722 18.1125 L-6.30191 17.2516 L-5.8066 16.3907 L-5.31128 15.5298 L-4.81597 14.6689 L-4.31828 15.528 L-3.82058 16.3871 L-3.32289 17.2462 L-2.8252 18.1053 L-2.32751 18.9644 Z " />
<path stroke="rgb(200,255,200)" stroke-opacity="1" fill="rgb(200,255,200)" fill-opacity="1" id="tri_5_3_" d="M7.37639 19.5018 L8.36807 19.4994 L9.35975 19.4969 L10.3514 19.4944 L11.3431 19.492 L12.3348 19.4895 L11.8408 20.3496 L11.3469 21.2098 L10.8529 22.0699 L10.359 22.9301 L9.86502 23.7902 L9.36729 22.9325 L8.86957 22.0749 L8.37184 21.2172 L7.87412 20.3595 L7.37639 19.5018 Z " />
<path stroke="rgb(200,255,200)" stroke-opacity="1" fill="rgb(200,255,200)" fill-opacity="1" id="tri_4_2_" d="M7.66101 18.9435 L6.66904 18.9459 L5.67707 18.9483 L4.68509 18.9507 L3.69312 18.9532 L2.70115 18.9556 L3.19505 18.0953 L3.68895 17.2351 L4.18285 16.3749 L4.67675 15.5147 L5.17065 14.6545 L5.66872 15.5123 L6.16679 16.3701 L6.66486 17.2279 L7.16293 18.0857 L7.66101 18.9435 Z " />
<path stroke="rgb(200,255,200)" stroke-opacity="1" fill="rgb(200,255,200)" fill-opacity="1" id="tri_6_3_" d="M17.3515 19.4856 L18.3433 19.4832 L19.335 19.4809 L20.3268 19.4785 L21.3185 19.4761 L22.3102 19.4738 L21.8166 20.3337 L21.323 21.1936 L20.8294 22.0536 L20.3358 22.9135 L19.8422 23.7734 L19.3441 22.9159 L18.8459 22.0583 L18.3478 21.2007 L17.8497 20.3431 L17.3515 19.4856 Z " />
<path stroke="rgb(200,255,200)" stroke-opacity="1" fill="rgb(200,255,200)" fill-opacity="1" id="tri_5_2_" d="M17.6374 18.9264 L16.6455 18.9286 L15.6536 18.9309 L14.6616 18.9332 L13.6697 18.9354 L12.6778 18.9377 L13.1718 18.0775 L13.6657 17.2174 L14.1597 16.3573 L14.6536 15.4971 L15.1476 14.637 L15.6455 15.4949 L16.1435 16.3527 L16.6415 17.2106 L17.1394 18.0685 L17.6374 18.9264 Z " />
<path stroke="rgb(200,255,200)" stroke-opacity="1" fill="rgb(200,255,200)" fill-opacity="1" id="tri_7_3_" d="M27.3286 19.4679 L28.3201 19.4656 L29.3116 19.4633 L30.3031 19.461 L31.2946 19.4587 L32.2861 19.4564 L31.7924 20.3158 L31.2986 21.1752 L30.8048 22.0346 L30.311 22.894 L29.8173 23.7534 L29.3195 22.8963 L28.8218 22.0392 L28.3241 21.1821 L27.8263 20.325 L27.3286 19.4679 Z " />
<path stroke="rgb(200,255,200)" stroke-opacity="1" fill="rgb(200,255,200)" fill-opacity="1" id="tri_6_2_" d="M27.6146 18.9078 L26.6228 18.9103 L25.631 18.9127 L24.6392 18.9151 L23.6474 18.9175 L22.6555 18.9199 L23.1491 18.0599 L23.6428 17.2 L24.1364 16.3401 L24.63 15.4801 L25.1236 14.6202 L25.6218 15.4777 L26.12 16.3353 L26.6182 17.1928 L27.1164 18.0503 L27.6146 18.9078 Z " />
<path stroke="rgb(200,255,200)" stroke-opacity="1" fill="rgb(200,255,200)" fill-opacity="1" id="tri_8_2_" d="M37.3031 19.4512 L38.2944 19.4485 L39.2856 19.4459 L40.2768 19.4432 L41.268 19.4405 L42.2593 19.4379 L41.7659 20.2978 L41.2725 21.1577 L40.7792 22.0176 L40.2858 22.8775 L39.7925 23.7374 L39.2946 22.8802 L38.7967 22.0229 L38.2989 21.1657 L37.801 20.3084 L37.3031 19.4512 Z " />
<path stroke="rgb(200,255,200)" stroke-opacity="1" fill="rgb(200,255,200)" fill-opacity="1" id="tri_7_2_" d="M37.587 18.889 L36.5957 18.8914 L35.6044 18.8939 L34.6131 18.8963 L33.6217 18.8987 L32.6304 18.9012 L33.1242 18.0418 L33.6179 17.1824 L34.1117 16.323 L34.6055 15.4635 L35.0993 14.6041 L35.5968 15.4611 L36.0944 16.3181 L36.5919 17.1751 L37.0895 18.032 L37.587 18.889 Z " />
<path stroke="rgb(200,255,200)" stroke-opacity="1" fill="rgb(200,255,200)" fill-opacity="1" id="tri_0_2_" d="M-48.0471 27.7856 L-47.0492 27.7948 L-46.0514 27.804 L-45.0535 27.8133 L-44.0557 27.8225 L-43.0578 27.8317 L-43.5647 28.6914 L-44.0716 29.5512 L-44.5786 30.4109 L-45.0855 31.2707 L-45.5924 32.1305 L-46.0833 31.2615 L-46.5743 30.3925 L-47.0652 29.5236 L-47.5561 28.6546 L-48.0471 27.7856 Z " />
<path stroke="rgb(200,255,200)" stroke-opacity="1" fill="rgb(200,255,200)" fill-opacity="1" id="tri_1_1_" d="M-37.7685 28.0515 L-36.7732 28.055 L-35.7779 28.0585 L-34.7826 28.062 L-33.7872 28.0655 L-32.7919 28.069 L-33.2927 28.9291 L-33.7934 29.7892 L-34.2942 30.6494 L-34.795 31.5095 L-35.2957 32.3696 L-35.7903 31.506 L-36.2848 30.6423 L-36.7794 29.7787 L-37.2739 28.9151 L-37.7685 28.0515 Z " />
<path stroke="rgb(200,255,200)" stroke-opacity="1" fill="rgb(200,255,200)" fill-opacity="1" id="tri_0_1_" d="M-37.7222 27.3331 L-38.7202 27.324 L-39.7182 27.3149 L-40.7163 27.3058 L-41.7143 27.2967 L-42.7123 27.2876 L-42.2054 26.4279 L-41.6985 25.5681 L-41.1916 24.7083 L-40.6846 23.8486 L-40.1777 22.9888 L-39.6866 23.8577 L-39.1955 24.7266 L-38.7044 25.5954 L-38.2133 26.4643 L-37.7222 27.3331 Z " />
<path stroke="rgb(200,255,200)" stroke-opacity="1" fill="rgb(200,255,200)" fill-opacity="1" id="tri_2_1_" d="M-27.6267 28.1579 L-26.6334 28.1578 L-25.64 28.1577 L-24.6466 28.1577 L-23.6532 28.1576 L-22.6599 28.1575 L-23.1569 29.0183 L-23.6539 29.879 L-24.151 30.7398 L-24.648 31.6005 L-25.1451 32.4613 L-25.6414 31.6006 L-26.1377 30.7399 L-26.6341 29.8793 L-27.1304 29.0186 L-27.6267 28.1579 Z " />
<path stroke="rgb(200,255,200)" stroke-opacity="1" fill="rgb(200,255,200)" fill-opacity="1" id="tri_1" d="M-27.4749 27.5382 L-28.47 27.5348 L-29.465 27.5314 L-30.46 27.5279 L-31.4551 27.5245 L-32.4501 27.5211 L-31.9494 26.661 L-31.4486 25.8008 L-30.9479 24.9407 L-30.4471 24.0806 L-29.9463 23.2205 L-29.4521 24.084 L-28.9578 24.9476 L-28.4635 25.8111 L-27.9692 26.6747 L-27.4749 27.5382 Z " />
<path stroke="rgb(200,255,200)" stroke-opacity="1" fill="rgb(200,255,200)" fill-opacity="1" id="tri_3_1_" d="M-17.5769 28.1818 L-16.584 28.1796 L-15.5911 28.1774 L-14.5982 28.1752 L-13.6053 28.173 L-12.6124 28.1708 L-13.1073 29.0316 L-13.6023 29.8924 L-14.0972 30.7532 L-14.5921 31.614 L-15.087 32.4748 L-15.585 31.6162 L-16.083 30.7576 L-16.5809 29.899 L-17.0789 29.0404 L-17.5769 28.1818 Z " />
<path stroke="rgb(200,255,200)" stroke-opacity="1" fill="rgb(200,255,200)" fill-opacity="1" id="tri_2" d="M-17.351 27.6092 L-18.3447 27.6093 L-19.3384 27.6095 L-20.3321 27.6096 L-21.3258 27.6098 L-22.3195 27.6099 L-21.8224 26.7492 L-21.3254 25.8884 L-20.8283 25.0276 L-20.3313 24.1669 L-19.8342 23.3061 L-19.3376 24.1667 L-18.8409 25.0274 L-18.3443 25.888 L-17.8477 26.7486 L-17.351 27.6092 Z " />
<path stroke="rgb(200,255,200)" stroke-opacity="1" fill="rgb(200,255,200)" fill-opacity="1" id="tri_4_1_" d="M-7.57672 28.1696 L-6.58467 28.1671 L-5.59261 28.1647 L-4.60055 28.1622 L-3.60849 28.1598 L-2.61644 28.1573 L-3.11028 29.0176 L-3.60413 29.8779 L-4.09798 30.7382 L-4.59183 31.5985 L-5.08568 32.4588 L-5.58389 31.601 L-6.0821 30.7431 L-6.58031 29.8853 L-7.07852 29.0274 L-7.57672 28.1696 Z " />
<path stroke="rgb(200,255,200)" stroke-opacity="1" fill="rgb(200,255,200)" fill-opacity="1" id="tri_3" d="M-7.3096 27.6124 L-8.30229 27.6144 L-9.29497 27.6164 L-10.2877 27.6183 L-11.2803 27.6203 L-12.273 27.6223 L-11.7781 26.7615 L-11.2832 25.9007 L-10.7883 25.0399 L-10.2933 24.1791 L-9.79842 23.3183 L-9.30066 24.1771 L-8.80289 25.0359 L-8.30513 25.8948 L-7.80737 26.7536 L-7.3096 27.6124 Z " />
<path stroke="rgb(200,255,200)" stroke-opacity="1" fill="rgb(200,255,200)" fill-opacity="1" id="tri_5_1_" d="M2.4028 28.1504 L3.39483 28.1479 L4.38687 28.1455 L5.3789 28.143 L6.37094 28.1406 L7.36297 28.1381 L6.86885 28.9984 L6.37472 29.8586 L5.8806 30.7189 L5.38647 31.5791 L4.89235 32.4393 L4.39444 31.5815 L3.89653 30.7237 L3.39862 29.866 L2.90071 29.0082 L2.4028 28.1504 Z " />
<path stroke="rgb(200,255,200)" stroke-opacity="1" fill="rgb(200,255,200)" fill-opacity="1" id="tri_4" d="M2.68761 27.5925 L1.69528 27.5948 L0.70295 27.5972 L-0.289378 27.5996 L-1.28171 27.602 L-2.27403 27.6044 L-1.78019 26.7441 L-1.28634 25.8838 L-0.792487 25.0235 L-0.298638 24.1632 L0.195211 23.3029 L0.693691 24.1608 L1.19217 25.0187 L1.69065 25.8766 L2.18913 26.7345 L2.68761 27.5925 Z " />
<path stroke="rgb(200,255,200)" stroke-opacity="1" fill="rgb(200,255,200)" fill-opacity="1" id="tri_6_1_" d="M12.3789 28.1346 L13.3706 28.1319 L14.3623 28.1293 L15.354 28.1266 L16.3456 28.1239 L17.3373 28.1213 L16.8438 28.9816 L16.3503 29.8419 L15.8568 30.7023 L15.3633 31.5626 L14.8698 32.4229 L14.3717 31.5653 L13.8735 30.7076 L13.3753 29.8499 L12.8771 28.9923 L12.3789 28.1346 Z " />
<path stroke="rgb(200,255,200)" stroke-opacity="1" fill="rgb(200,255,200)" fill-opacity="1" id="tri_5" d="M12.6638 27.5736 L11.6719 27.5761 L10.6801 27.5787 L9.68825 27.5813 L8.6964 27.5838 L7.70455 27.5864 L8.19867 26.7262 L8.6928 25.8659 L9.18692 25.0057 L9.68104 24.1455 L10.1752 23.2852 L10.6729 24.1429 L11.1706 25.0006 L11.6683 25.8582 L12.1661 26.7159 L12.6638 27.5736 Z " />
<path stroke="rgb(200,255,200)" stroke-opacity="1" fill="rgb(200,255,200)" fill-opacity="1" id="tri_7_1_" d="M22.3567 28.1181 L23.348 28.1154 L24.3393 28.1128 L25.3306 28.1101 L26.3219 28.1074 L27.3132 28.1048 L26.8194 28.9646 L26.3256 29.8243 L25.8318 30.6841 L25.3381 31.5439 L24.8443 32.4036 L24.3467 31.5465 L23.8492 30.6894 L23.3517 29.8323 L22.8542 28.9752 L22.3567 28.1181 Z " />
<path stroke="rgb(200,255,200)" stroke-opacity="1" fill="rgb(200,255,200)" fill-opacity="1" id="tri_6" d="M22.6404 27.5561 L21.6488 27.5588 L20.6572 27.5616 L19.6656 27.5643 L18.674 27.5671 L17.6823 27.5698 L18.1758 26.7095 L18.6693 25.8492 L19.1628 24.9888 L19.6563 24.1285 L20.1498 23.2682 L20.6479 24.1258 L21.1461 24.9833 L21.6442 25.8409 L22.1423 26.6985 L22.6404 27.5561 Z " />
<path stroke="rgb(200,255,200)" stroke-opacity="1" fill="rgb(200,255,200)" fill-opacity="1" id="tri_8_1_" d="M32.3302 28.1011 L33.3217 28.0982 L34.3131 28.0953 L35.3045 28.0925 L36.296 28.0896 L37.2874 28.0867 L36.794 28.9467 L36.3006 29.8068 L35.8072 30.6668 L35.3138 31.5269 L34.8204 32.3869 L34.3224 31.5298 L33.8243 30.6726 L33.3263 29.8154 L32.8283 28.9583 L32.3302 28.1011 Z " />
<path stroke="rgb(200,255,200)" stroke-opacity="1" fill="rgb(200,255,200)" fill-opacity="1" id="tri_7" d="M32.6143 27.5381 L31.6228 27.5408 L30.6313 27.5434 L29.6397 27.5461 L28.6482 27.5488 L27.6567 27.5514 L28.1505 26.6917 L28.6442 25.8319 L29.138 24.9721 L29.6318 24.1124 L30.1256 23.2526 L30.6234 24.1097 L31.1211 24.9668 L31.6188 25.8239 L32.1166 26.681 L32.6143 27.5381 Z " />
<path stroke="rgb(200,255,200)" stroke-opacity="1" fill="rgb(200,255,200)" fill-opacity="1" id="tri_9" d="M42.3081 28.0837 L43.299 28.0811 L44.2898 28.0785 L45.2807 28.0759 L46.2716 28.0733 L47.2624 28.0707 L46.7692 28.93 L46.276 29.7893 L45.7828 30.6486 L45.2896 31.5079 L44.7963 32.3672 L44.2987 31.5105 L43.801 30.6538 L43.3034 29.7971 L42.8057 28.9404 L42.3081 28.0837 Z " />
<path stroke="rgb(200,255,200)" stroke-opacity="1" fill="rgb(200,255,200)" fill-opacity="1" id="tri_8" d="M42.5902 27.5209 L41.5989 27.5237 L40.6076 27.5265 L39.6164 27.5293 L38.6251 27.5321 L37.6339 27.5349 L38.1273 26.6748 L38.6207 25.8148 L39.114 24.9547 L39.6074 24.0947 L40.1008 23.2346 L40.5987 24.0919 L41.0966 24.9491 L41.5944 25.8064 L42.0923 26.6636 L42.5902 27.5209 Z " />
</g>
</g>
</svg>
