<!DOCTYPE svg>
<svg xmlns="http://www.w3.org/2000/svg" xmlns:xlink="http://www.w3.org/1999/xlink" width="600" height="600">
<g transform="translate(300.000000,300.000000)">
<g transform="scale(3.000000,3.000000)">
<path stroke="rgb(0,0,0)" stroke-opacity="1" fill="rgb(255,255,255)" fill-opacity="1" id="Layer_1" d="M107.411 107.089 L105.406 107.092 L103.402 107.095 L101.397 107.098 L99.3922 107.101 L97.3875 107.104 L95.3828 107.107 L93.3782 107.11 L91.3735 107.113 L89.3688 107.116 L87.3641 107.119 L85.3595 107.122 L83.3548 107.125 L81.3501 107.128 L79.3455 107.131 L77.3408 107.134 L75.3361 107.137 L73.3314 107.14 L71.3268 107.143 L69.3221 107.146 L67.3174 107.149 L65.3127 107.152 L63.3081 107.155 L61.3034 107.158 L59.2987 107.161 L57.2941 107.164 L55.2894 107.167 L53.2847 107.17 L51.28 107.173 L49.2754 107.176 L47.2707 107.179 L45.266 107.182 L43.2613 107.185 L41.2567 107.188 L39.252 107.191 L37.2473 107.194 L35.2426 107.197 L33.238 107.2 L31.2333 107.203 L29.2286 107.206 L27.224 107.209 L25.2193 107.212 L23.2146 107.215 L21.2099 107.218 L19.2053 107.221 L17.2006 107.224 L15.1959 107.227 L13.1912 107.23 L11.1866 107.233 L9.1819 107.236 L7.17723 107.239 L5.17256 107.242 L3.16788 107.245 L1.16321 107.248 L-0.841463 107.252 L-2.84614 107.255 L-4.85081 107.258 L-6.85548 107.261 L-8.86015 107.264 L-10.8648 107.267 L-12.8695 107.27 L-14.8742 107.273 L-16.8788 107.276 L-18.8835 107.279 L-20.8882 107.282 L-22.8929 107.285 L-24.8975 107.288 L-26.9022 107.291 L-28.9069 107.294 L-30.9116 107.297 L-32.9162 107.3 L-34.9209 107.303 L-36.9256 107.306 L-38.9302 107.309 L-40.9349 107.312 L-42.9396 107.315 L-44.9443 107.318 L-46.9489 107.321 L-48.9536 107.324 L-50.9583 107.327 L-52.963 107.33 L-54.9676 107.333 L-56.9723 107.336 L-58.977 107.339 L-60.9816 107.342 L-62.9863 107.345 L-64.991 107.348 L-66.9957 107.351 L-69.0003 107.354 L-71.005 107.357 L-73.0097 107.36 L-75.0144 107.363 L-77.019 107.366 L-79.0237 107.369 L-81.0284 107.372 L-83.0331 107.375 L-85.0377 107.378 L-87.0424 107.381 L-89.0471 107.384 L-91.0517 107.387 L-93.0564 107.39 L-95.0611 107.393 L-97.0658 107.396 L-99.0704 107.399 L-101.075 107.402 L-103.08 107.405 L-105.084 107.408 L-107.089 107.411 L-107.092 105.406 L-107.095 103.402 L-107.098 101.397 L-107.101 99.3922 L-107.104 97.3875 L-107.107 95.3828 L-107.11 93.3782 L-107.113 91.3735 L-107.116 89.3688 L-107.119 87.3641 L-107.122 85.3595 L-107.125 83.3548 L-107.128 81.3501 L-107.131 79.3455 L-107.134 77.3408 L-107.137 75.3361 L-107.14 73.3314 L-107.143 71.3268 L-107.146 69.3221 L-107.149 67.3174 L-107.152 65.3127 L-107.155 63.3081 L-107.158 61.3034 L-107.161 59.2987 L-107.164 57.2941 L-107.167 55.2894 L-107.17 53.2847 L-107.173 51.28 L-107.176 49.2754 L-107.179 47.2707 L-107.182 45.266 L-107.185 43.2613 L-107.188 41.2567 L-107.191 39.252 L-107.194 37.2473 L-107.197 35.2426 L-107.2 33.238 L-107.203 31.2333 L-107.206 29.2286 L-107.209 27.224 L-107.212 25.2193 L-107.215 23.2146 L-107.218 21.2099 L-107.221 19.2053 L-107.224 17.2006 L-107.227 15.1959 L-107.23 13.1912 L-107.233 11.1866 L-107.236 9.1819 L-107.239 7.17722 L-107.242 5.17255 L-107.245 3.16788 L-107.248 1.1632 L-107.251 -0.841469 L-107.255 -2.84614 L-107.258 -4.85081 L-107.261 -6.85549 L-107.264 -8.86016 L-107.267 -10.8648 L-107.27 -12.8695 L-107.273 -14.8742 L-107.276 -16.8789 L-107.279 -18.8835 L-107.282 -20.8882 L-107.285 -22.8929 L-107.288 -24.8975 L-107.291 -26.9022 L-107.294 -28.9069 L-107.297 -30.9116 L-107.3 -32.9162 L-107.303 -34.9209 L-107.306 -36.9256 L-107.309 -38.9303 L-107.312 -40.9349 L-107.315 -42.9396 L-107.318 -44.9443 L-107.321 -46.9489 L-107.324 -48.9536 L-107.327 -50.9583 L-107.33 -52.963 L-107.333 -54.9676 L-107.336 -56.9723 L-107.339 -58.977 L-107.342 -60.9817 L-107.345 -62.9863 L-107.348 -64.991 L-107.351 -66.9957 L-107.354 -69.0003 L-107.357 -71.005 L-107.36 -73.0097 L-107.363 -75.0144 L-107.366 -77.019 L-107.369 -79.0237 L-107.372 -81.0284 L-107.375 -83.0331 L-107.378 -85.0377 L-107.381 -87.0424 L-107.384 -89.0471 L-107.387 -91.0518 L-107.39 -93.0564 L-107.393 -95.0611 L-107.396 -97.0658 L-107.399 -99.0704 L-107.402 -101.075 L-107.405 -103.08 L-107.408 -105.084 L-107.411 -107.089 L-105.406 -107.092 L-103.402 -107.095 L-101.397 -107.098 L-99.3922 -107.101 L-97.3875 -107.104 L-95.3828 -107.107 L-93.3782 -107.11 L-91.3735 -107.113 L-89.3688 -107.116 L-87.3641 -107.119 L-85.3595 -107.122 L-83.3548 -107.125 L-81.3501 -107.128 L-79.3455 -107.131 L-77.3408 -107.134 L-75.3361 -107.137 L-73.3314 -107.14 L-71.3268 -107.143 L-69.3221 -107.146 L-67.3174 -107.149 L-65.3127 -107.152 L-63.3081 -107.155 L-61.3034 -107.158 L-59.2987 -107.161 L-57.2941 -107.164 L-55.2894 -107.167 L-53.2847 -107.17 L-51.28 -107.173 L-49.2754 -107.176 L-47.2707 -107.179 L-45.266 -107.182 L-43.2613 -107.185 L-41.2567 -107.188 L-39.252 -107.191 L-37.2473 -107.194 L-35.2426 -107.197 L-33.238 -107.2 L-31.2333 -107.203 L-29.2286 -107.206 L-27.224 -107.209 L-25.2193 -107.212 L-23.2146 -107.215 L-21.2099 -107.218 L-19.2053 -107.221 L-17.2006 -107.224 L-15.1959 -107.227 L-13.1912 -107.23 L-11.1866 -107.233 L-9.1819 -107.236 L-7.17723 -107.239 L-5.17256 -107.242 L-3.16788 -107.245 L-1.16321 -107.248 L0.841463 -107.252 L2.84614 -107.255 L4.85081 -107.258 L6.85548 -107.261 L8.86015 -107.264 L10.8648 -107.267 L12.8695 -107.27 L14.8742 -107.273 L16.8788 -107.276 L18.8835 -107.279 L20.8882 -107.282 L22.8929 -107.285 L24.8975 -107.288 L26.9022 -107.291 L28.9069 -107.294 L30.9116 -107.297 L32.9162 -107.3 L34.9209 -107.303 L36.9256 -107.306 L38.9302 -107.309 L40.9349 -107.312 L42.9396 -107.315 L44.9443 -107.318 L46.9489 -107.321 L48.9536 -107.324 L50.9583 -107.327 L52.963 -107.33 L54.9676 -107.333 L56.9723 -107.336 L58.977 -107.339 L60.9816 -107.342 L62.9863 -107.345 L64.991 -107.348 L66.9957 -107.351 L69.0003 -107.354 L71.005 -107.357 L73.0097 -107.36 L75.0144 -107.363 L77.019 -107.366 L79.0237 -107.369 L81.0284 -107.372 L83.0331 -107.375 L85.0377 -107.378 L87.0424 -107.381 L89.0471 -107.384 L91.0517 -107.387 L93.0564 -107.39 L95.0611 -107.393 L97.0658 -107.396 L99.0704 -107.399 L101.075 -107.402 L103.08 -107.405 L105.084 -107.408 L107.089 -107.411 L107.092 -105.406 L107.095 -103.402 L107.098 -101.397 L107.101 -99.3922 L107.104 -97.3875 L107.107 -95.3828 L107.11 -93.3782 L107.113 -91.3735 L107.116 -89.3688 L107.119 -87.3642 L107.122 -85.3595 L107.125 -83.3548 L107.128 -81.3501 L107.131 -79.3455 L107.134 -77.3408 L107.137 -75.3361 L107.14 -73.3314 L107.143 -71.3268 L107.146 -69.3221 L107.149 -67.3174 L107.152 -65.3128 L107.155 -63.3081 L107.158 -61.3034 L107.161 -59.2987 L107.164 -57.2941 L107.167 -55.2894 L107.17 -53.2847 L107.173 -51.28 L107.176 -49.2754 L107.179 -47.2707 L107.182 -45.266 L107.185 -43.2613 L107.188 -41.2567 L107.191 -39.252 L107.194 -37.2473 L107.197 -35.2427 L107.2 -33.238 L107.203 -31.2333 L107.206 -29.2286 L107.209 -27.224 L107.212 -25.2193 L107.215 -23.2146 L107.218 -21.2099 L107.221 -19.2053 L107.224 -17.2006 L107.227 -15.1959 L107.23 -13.1913 L107.233 -11.1866 L107.236 -9.18191 L107.239 -7.17724 L107.242 -5.17256 L107.245 -3.16789 L107.248 -1.16322 L107.251 0.841455 L107.255 2.84613 L107.258 4.8508 L107.261 6.85547 L107.264 8.86015 L107.267 10.8648 L107.27 12.8695 L107.273 14.8742 L107.276 16.8788 L107.279 18.8835 L107.282 20.8882 L107.285 22.8929 L107.288 24.8975 L107.291 26.9022 L107.294 28.9069 L107.297 30.9115 L107.3 32.9162 L107.303 34.9209 L107.306 36.9256 L107.309 38.9302 L107.312 40.9349 L107.315 42.9396 L107.318 44.9443 L107.321 46.9489 L107.324 48.9536 L107.327 50.9583 L107.33 52.963 L107.333 54.9676 L107.336 56.9723 L107.339 58.977 L107.342 60.9816 L107.345 62.9863 L107.348 64.991 L107.351 66.9957 L107.354 69.0003 L107.357 71.005 L107.36 73.0097 L107.363 75.0144 L107.366 77.019 L107.369 79.0237 L107.372 81.0284 L107.375 83.033 L107.378 85.0377 L107.381 87.0424 L107.384 89.0471 L107.387 91.0517 L107.39 93.0564 L107.393 95.0611 L107.396 97.0658 L107.399 99.0704 L107.402 101.075 L107.405 103.08 L107.408 105.084 L107.411 107.089 Z " />
<path stroke="rgb(169,255,187)" stroke-opacity="1" fill="rgb(169,255,187)" fill-opacity="1" id="scalebar" d="M-3.69904 -94.609 L-1.65554 -94.609 L0.387962 -94.609 L2.43146 -94.609 L4.47496 -94.609 L4.47496 -92.6686 L4.47496 -90.7281 L4.47496 -88.7876 L4.47496 -86.8472 L4.47496 -84.9067 L4.47496 -82.9663 L4.47496 -81.0258 L4.47496 -79.0853 L4.47496 -77.1449 L4.47496 -75.2044 L4.47496 -73.2639 L4.47496 -71.3235 L4.47496 -69.383 L2.43146 -69.383 L0.387962 -69.383 L-1.65554 -69.383 L-3.69904 -69.383 L-3.69904 -71.3235 L-3.69904 -73.2639 L-3.69904 -75.2044 L-3.69904 -77.1449 L-3.69904 -79.0853 L-3.69904 -81.0258 L-3.69904 -82.9663 L-3.69904 -84.9067 L-3.69904 -86.8472 L-3.69904 -88.7876 L-3.69904 -90.7281 L-3.69904 -92.6686 L-3.69904 -94.609 Z " />
<path stroke="rgb(200,255,200)" stroke-opacity="1" fill="rgb(200,255,200)" fill-opacity="1" id="scaleslider" d="M-6.69904 -76.0443 L-4.67418 -76.0443 L-2.64932 -76.0443 L-0.624466 -76.0443 L1.40039 -76.0443 L3.42525 -76.0443 L5.4501 -76.0443 L7.47496 -76.0443 L7.47496 -74.3176 L7.47496 -72.5909 L7.47496 -70.8643 L5.4501 -70.8643 L3.42525 -70.8643 L1.40039 -70.8643 L-0.624466 -70.8643 L-2.64932 -70.8643 L-4.67418 -70.8643 L-6.69904 -70.8643 L-6.69904 -72.5909 L-6.69904 -74.3176 L-6.69904 -76.0443 Z " />
<path stroke="rgb(255,134,106)" stroke-opacity="1" fill="rgb(255,134,106)" fill-opacity="1" id="tranbar" d="M-49.142 -86.146 L-47.0675 -86.146 L-44.993 -86.146 L-42.9185 -86.146 L-40.844 -86.146 L-40.844 -88.2208 L-40.844 -90.2955 L-40.844 -92.3703 L-40.844 -94.445 L-38.7685 -94.445 L-36.693 -94.445 L-34.6175 -94.445 L-32.542 -94.445 L-32.542 -92.3703 L-32.542 -90.2955 L-32.542 -88.2208 L-32.542 -86.146 L-30.4673 -86.146 L-28.3925 -86.146 L-26.3178 -86.146 L-24.243 -86.146 L-24.243 -84.0715 L-24.243 -81.997 L-24.243 -79.9225 L-24.243 -77.848 L-26.3178 -77.848 L-28.3925 -77.848 L-30.4673 -77.848 L-32.542 -77.848 L-32.542 -75.773 L-32.542 -73.698 L-32.542 -71.623 L-32.542 -69.548 L-34.6175 -69.548 L-36.693 -69.548 L-38.7685 -69.548 L-40.844 -69.548 L-40.844 -71.623 L-40.844 -73.698 L-40.844 -75.773 L-40.844 -77.848 L-42.9185 -77.848 L-44.993 -77.848 L-47.0675 -77.848 L-49.142 -77.848 L-49.142 -79.9225 L-49.142 -81.997 L-49.142 -84.0715 L-49.142 -86.146 Z " />
<path stroke="rgb(255,250,159)" stroke-opacity="1" fill="rgb(255,250,159)" fill-opacity="1" id="translider" d="M-39.248 -84.553 L-37.5447 -84.553 L-35.8414 -84.553 L-34.138 -84.553 L-34.138 -82.85 L-34.138 -81.147 L-34.138 -79.444 L-35.8414 -79.444 L-37.5447 -79.444 L-39.248 -79.444 L-39.248 -81.147 L-39.248 -82.85 L-39.248 -84.553 Z " />
<path stroke="rgb(254,204,128)" stroke-opacity="1" fill="rgb(254,204,128)" fill-opacity="1" id="rotate" d="M46.6178 -81.973 L45.7008 -80.282 L44.7838 -78.591 L43.8668 -76.9 L42.9498 -75.209 L42.0329 -73.518 L40.1097 -73.4669 L38.1866 -73.4158 L36.2635 -73.3647 L34.3403 -73.3137 L32.4172 -73.2626 L31.4113 -74.9026 L30.4053 -76.5426 L29.3993 -78.1827 L28.3934 -79.8227 L27.3874 -81.4627 L28.3046 -83.1538 L29.2217 -84.8449 L30.1389 -86.536 L31.0561 -88.2271 L31.9732 -89.9182 L33.8962 -89.9692 L35.8192 -90.0202 L37.7421 -90.0712 L39.6651 -90.1221 L41.588 -90.1731 L42.594 -88.5331 L43.6 -86.893 L44.6059 -85.253 L45.6119 -83.613 L46.6178 -81.973 Z " />
<path stroke="rgb(200,255,200)" stroke-opacity="1" fill="rgb(200,255,200)" fill-opacity="1" id="tri_0" d="M-2.68115 -49.5577 L-1.68825 -49.5602 L-0.695351 -49.5627 L0.297551 -49.5653 L1.29045 -49.5678 L2.28335 -49.5704 L1.78991 -48.7101 L1.29646 -47.8499 L0.803017 -46.9897 L0.309572 -46.1295 L-0.183873 -45.2692 L-0.683329 -46.1269 L-1.18278 -46.9846 L-1.68224 -47.8423 L-2.1817 -48.7 L-2.68115 -49.5577 Z " />
<path stroke="rgb(200,255,200)" stroke-opacity="1" fill="rgb(200,255,200)" fill-opacity="1" id="tri_0_18_" d="M-7.65557 -40.922 L-6.66292 -40.925 L-5.67027 -40.928 L-4.67762 -40.9309 L-3.68497 -40.9339 L-2.69232 -40.9369 L-3.18575 -40.0764 L-3.67918 -39.216 L-4.17261 -38.3555 L-4.66604 -37.4951 L-5.15948 -36.6346 L-5.6587 -37.4921 L-6.15792 -38.3496 L-6.65713 -39.2071 L-7.15635 -40.0645 L-7.65557 -40.922 Z " />
<path stroke="rgb(200,255,200)" stroke-opacity="1" fill="rgb(200,255,200)" fill-opacity="1" id="tri_1_16_" d="M2.31135 -40.9315 L3.30379 -40.9339 L4.29623 -40.9363 L5.28867 -40.9387 L6.28112 -40.9411 L7.27356 -40.9436 L6.77991 -40.0837 L6.28626 -39.2239 L5.7926 -38.364 L5.29895 -37.5041 L4.8053 -36.6443 L4.30651 -37.5017 L3.80772 -38.3592 L3.30893 -39.2166 L2.81014 -40.074 L2.31135 -40.9315 Z " />
<path stroke="rgb(200,255,200)" stroke-opacity="1" fill="rgb(200,255,200)" fill-opacity="1" id="tri_0_17_" d="M2.60978 -41.4924 L1.61689 -41.4897 L0.624004 -41.4869 L-0.368883 -41.4841 L-1.36177 -41.4813 L-2.35466 -41.4786 L-1.86123 -42.339 L-1.36779 -43.1995 L-0.874363 -44.0599 L-0.380933 -44.9204 L0.112499 -45.7809 L0.611955 -44.9232 L1.11141 -44.0655 L1.61087 -43.2078 L2.11032 -42.3501 L2.60978 -41.4924 Z " />
<path stroke="rgb(200,255,200)" stroke-opacity="1" fill="rgb(200,255,200)" fill-opacity="1" id="tri_0_16_" d="M-12.6309 -32.2861 L-11.6378 -32.2889 L-10.6447 -32.2917 L-9.65156 -32.2944 L-8.65845 -32.2972 L-7.66534 -32.3 L-8.15917 -31.4394 L-8.65299 -30.5789 L-9.14682 -29.7183 L-9.64064 -28.8577 L-10.1345 -27.9972 L-10.6338 -28.8549 L-11.133 -29.7127 L-11.6323 -30.5705 L-12.1316 -31.4283 L-12.6309 -32.2861 Z " />
<path stroke="rgb(200,255,200)" stroke-opacity="1" fill="rgb(200,255,200)" fill-opacity="1" id="tri_1_15_" d="M-2.66344 -32.2935 L-1.67084 -32.2962 L-0.678242 -32.2989 L0.314357 -32.3017 L1.30696 -32.3044 L2.29956 -32.3071 L1.8057 -31.4471 L1.31184 -30.587 L0.817981 -29.7269 L0.324123 -28.8668 L-0.169735 -28.0067 L-0.668476 -28.864 L-1.16722 -29.7214 L-1.66596 -30.5788 L-2.1647 -31.4361 L-2.66344 -32.2935 Z " />
<path stroke="rgb(200,255,200)" stroke-opacity="1" fill="rgb(200,255,200)" fill-opacity="1" id="tri_0_15_" d="M-2.36446 -32.8573 L-3.35751 -32.8542 L-4.35055 -32.8511 L-5.3436 -32.848 L-6.33665 -32.8449 L-7.32969 -32.8418 L-6.83587 -33.7024 L-6.34204 -34.563 L-5.84821 -35.4235 L-5.35439 -36.2841 L-4.86056 -37.1447 L-4.36134 -36.2872 L-3.86212 -35.4297 L-3.3629 -34.5722 L-2.86368 -33.7148 L-2.36446 -32.8573 Z " />
<path stroke="rgb(200,255,200)" stroke-opacity="1" fill="rgb(200,255,200)" fill-opacity="1" id="tri_2_14_" d="M7.30285 -32.3014 L8.29522 -32.304 L9.28759 -32.3065 L10.28 -32.3091 L11.2723 -32.3116 L12.2647 -32.3142 L11.7707 -31.4545 L11.2767 -30.5948 L10.7827 -29.7352 L10.2887 -28.8755 L9.79476 -28.0158 L9.29638 -28.8729 L8.798 -29.73 L8.29962 -30.5872 L7.80123 -31.4443 L7.30285 -32.3014 Z " />
<path stroke="rgb(200,255,200)" stroke-opacity="1" fill="rgb(200,255,200)" fill-opacity="1" id="tri_1_14_" d="M7.59967 -32.865 L6.60702 -32.8624 L5.61437 -32.8597 L4.62173 -32.8571 L3.62908 -32.8544 L2.63643 -32.8518 L3.13029 -33.7119 L3.62415 -34.5719 L4.118 -35.432 L4.61186 -36.2921 L5.10572 -37.1522 L5.60451 -36.2948 L6.1033 -35.4373 L6.60209 -34.5799 L7.10088 -33.7225 L7.59967 -32.865 Z " />
<path stroke="rgb(200,255,200)" stroke-opacity="1" fill="rgb(200,255,200)" fill-opacity="1" id="tri_0_14_" d="M-17.6079 -23.6479 L-16.6148 -23.6509 L-15.6216 -23.6538 L-14.6285 -23.6567 L-13.6353 -23.6596 L-12.6422 -23.6625 L-13.136 -22.8022 L-13.6299 -21.9418 L-14.1237 -21.0815 L-14.6175 -20.2211 L-15.1114 -19.3608 L-15.6107 -20.2182 L-16.11 -21.0757 L-16.6093 -21.9331 L-17.1086 -22.7905 L-17.6079 -23.6479 Z " />
<path stroke="rgb(200,255,200)" stroke-opacity="1" fill="rgb(200,255,200)" fill-opacity="1" id="tri_1_13_" d="M-7.63988 -23.6581 L-6.6472 -23.6603 L-5.65453 -23.6625 L-4.66185 -23.6647 L-3.66917 -23.6669 L-2.6765 -23.6691 L-3.17015 -22.8093 L-3.6638 -21.9494 L-4.15745 -21.0896 L-4.6511 -20.2297 L-5.14475 -19.3699 L-5.64377 -20.2275 L-6.1428 -21.0852 L-6.64183 -21.9428 L-7.14085 -22.8005 L-7.63988 -23.6581 Z " />
<path stroke="rgb(200,255,200)" stroke-opacity="1" fill="rgb(200,255,200)" fill-opacity="1" id="tri_0_13_" d="M-7.34043 -24.2186 L-8.33355 -24.216 L-9.32668 -24.2135 L-10.3198 -24.2109 L-11.3129 -24.2084 L-12.306 -24.2058 L-11.8122 -25.0661 L-11.3184 -25.9265 L-10.8245 -26.7868 L-10.3307 -27.6472 L-9.83685 -28.5075 L-9.33756 -27.6497 L-8.83828 -26.792 L-8.339 -25.9342 L-7.83971 -25.0764 L-7.34043 -24.2186 Z " />
<path stroke="rgb(200,255,200)" stroke-opacity="1" fill="rgb(200,255,200)" fill-opacity="1" id="tri_2_13_" d="M2.3287 -23.6651 L3.32081 -23.6675 L4.31292 -23.67 L5.30503 -23.6724 L6.29714 -23.6748 L7.28925 -23.6772 L6.79544 -22.8176 L6.30162 -21.958 L5.80781 -21.0984 L5.314 -20.2389 L4.82019 -19.3793 L4.32189 -20.2365 L3.82359 -21.0936 L3.3253 -21.9508 L2.827 -22.808 L2.3287 -23.6651 Z " />
<path stroke="rgb(200,255,200)" stroke-opacity="1" fill="rgb(200,255,200)" fill-opacity="1" id="tri_1_12_" d="M2.62482 -24.2275 L1.63243 -24.225 L0.640038 -24.2225 L-0.352353 -24.22 L-1.34474 -24.2175 L-2.33713 -24.215 L-1.84348 -25.0749 L-1.34983 -25.9347 L-0.856185 -26.7946 L-0.362536 -27.6544 L0.131114 -28.5143 L0.629855 -27.6569 L1.1286 -26.7996 L1.62734 -25.9422 L2.12608 -25.0849 L2.62482 -24.2275 Z " />
<path stroke="rgb(200,255,200)" stroke-opacity="1" fill="rgb(200,255,200)" fill-opacity="1" id="tri_3_12_" d="M12.2928 -23.6727 L13.285 -23.6754 L14.2771 -23.678 L15.2692 -23.6807 L16.2613 -23.6834 L17.2534 -23.6861 L16.7603 -22.8264 L16.2673 -21.9667 L15.7742 -21.107 L15.2811 -20.2473 L14.788 -19.3877 L14.289 -20.2447 L13.7899 -21.1017 L13.2909 -21.9587 L12.7919 -22.8157 L12.2928 -23.6727 Z " />
<path stroke="rgb(200,255,200)" stroke-opacity="1" fill="rgb(200,255,200)" fill-opacity="1" id="tri_2_12_" d="M12.5886 -24.2352 L11.5964 -24.2327 L10.6042 -24.2302 L9.61205 -24.2278 L8.61985 -24.2253 L7.62766 -24.2229 L8.12147 -25.0825 L8.61528 -25.942 L9.1091 -26.8016 L9.60291 -27.6612 L10.0967 -28.5208 L10.5951 -27.6636 L11.0935 -26.8065 L11.5919 -25.9494 L12.0903 -25.0923 L12.5886 -24.2352 Z " />
<path stroke="rgb(200,255,200)" stroke-opacity="1" fill="rgb(200,255,200)" fill-opacity="1" id="tri_0_12_" d="M-22.5813 -15.0133 L-21.5887 -15.016 L-20.5961 -15.0187 L-19.6035 -15.0214 L-18.6109 -15.0241 L-17.6184 -15.0268 L-18.1119 -14.1664 L-18.6055 -13.3059 L-19.0991 -12.4455 L-19.5926 -11.5851 L-20.0862 -10.7247 L-20.5852 -11.5824 L-21.0842 -12.4401 L-21.5832 -13.2978 L-22.0822 -14.1555 L-22.5813 -15.0133 Z " />
<path stroke="rgb(200,255,200)" stroke-opacity="1" fill="rgb(200,255,200)" fill-opacity="1" id="tri_1_11_" d="M-12.6155 -15.0203 L-11.6231 -15.023 L-10.6307 -15.0256 L-9.63826 -15.0282 L-8.64583 -15.0309 L-7.6534 -15.0335 L-8.14709 -14.1735 L-8.64078 -13.3135 L-9.13446 -12.4535 L-9.62815 -11.5936 L-10.1218 -10.7336 L-10.6206 -11.5909 L-11.1193 -12.4483 L-11.6181 -13.3056 L-12.1168 -14.163 L-12.6155 -15.0203 Z " />
<path stroke="rgb(200,255,200)" stroke-opacity="1" fill="rgb(200,255,200)" fill-opacity="1" id="tri_0_11_" d="M-12.317 -15.5829 L-13.3098 -15.5799 L-14.3027 -15.5769 L-15.2956 -15.5739 L-16.2885 -15.5709 L-17.2813 -15.5679 L-16.7878 -16.4283 L-16.2942 -17.2888 L-15.8006 -18.1492 L-15.3071 -19.0096 L-14.8135 -19.87 L-14.3142 -19.0126 L-13.8149 -18.1552 L-13.3156 -17.2977 L-12.8163 -16.4403 L-12.317 -15.5829 Z " />
<path stroke="rgb(200,255,200)" stroke-opacity="1" fill="rgb(200,255,200)" fill-opacity="1" id="tri_2_11_" d="M-2.64871 -15.0295 L-1.65628 -15.0318 L-0.663849 -15.034 L0.328582 -15.0363 L1.32101 -15.0385 L2.31344 -15.0408 L1.81962 -14.1814 L1.32579 -13.3221 L0.831964 -12.4627 L0.338137 -11.6033 L-0.15569 -10.744 L-0.654293 -11.6011 L-1.1529 -12.4582 L-1.6515 -13.3153 L-2.15011 -14.1724 L-2.64871 -15.0295 Z " />
<path stroke="rgb(200,255,200)" stroke-opacity="1" fill="rgb(200,255,200)" fill-opacity="1" id="tri_1_10_" d="M-2.3511 -15.5905 L-3.34382 -15.5882 L-4.33653 -15.5859 L-5.32924 -15.5835 L-6.32195 -15.5812 L-7.31466 -15.5788 L-6.82098 -16.4388 L-6.32729 -17.2988 L-5.83361 -18.1588 L-5.33992 -19.0188 L-4.84623 -19.8788 L-4.34721 -19.0211 L-3.84818 -18.1635 L-3.34916 -17.3058 L-2.85013 -16.4482 L-2.3511 -15.5905 Z " />
<path stroke="rgb(200,255,200)" stroke-opacity="1" fill="rgb(200,255,200)" fill-opacity="1" id="tri_3_11_" d="M7.31743 -15.0372 L8.30948 -15.0396 L9.30153 -15.042 L10.2936 -15.0444 L11.2856 -15.0468 L12.2777 -15.0493 L11.7843 -14.1896 L11.291 -13.33 L10.7976 -12.4704 L10.3042 -11.6108 L9.81088 -10.7512 L9.31219 -11.6084 L8.8135 -12.4656 L8.31481 -13.3228 L7.81612 -14.18 L7.31743 -15.0372 Z " />
<path stroke="rgb(200,255,200)" stroke-opacity="1" fill="rgb(200,255,200)" fill-opacity="1" id="tri_2_10_" d="M7.61308 -15.5993 L6.62096 -15.5971 L5.62883 -15.5949 L4.63671 -15.5927 L3.64459 -15.5905 L2.65246 -15.5883 L3.14629 -16.4477 L3.64012 -17.3071 L4.13394 -18.1664 L4.62777 -19.0258 L5.1216 -19.8851 L5.61989 -19.0279 L6.11819 -18.1708 L6.61649 -17.3136 L7.11478 -16.4564 L7.61308 -15.5993 Z " />
<path stroke="rgb(200,255,200)" stroke-opacity="1" fill="rgb(200,255,200)" fill-opacity="1" id="tri_4_10_" d="M17.3114 -15.0317 L18.3039 -15.0329 L19.2964 -15.0341 L20.2889 -15.0353 L21.2813 -15.0365 L22.2738 -15.0377 L21.7789 -14.1786 L21.284 -13.3196 L20.7891 -12.4605 L20.2941 -11.6014 L19.7992 -10.7424 L19.3016 -11.6002 L18.8041 -12.4581 L18.3065 -13.316 L17.8089 -14.1738 L17.3114 -15.0317 Z " />
<path stroke="rgb(200,255,200)" stroke-opacity="1" fill="rgb(200,255,200)" fill-opacity="1" id="tri_3_10_" d="M17.5811 -15.6087 L16.5887 -15.6061 L15.5963 -15.6035 L14.6039 -15.6009 L13.6115 -15.5983 L12.6191 -15.5957 L13.1125 -16.4553 L13.6058 -17.3149 L14.0992 -18.1745 L14.5926 -19.0341 L15.0859 -19.8937 L15.5849 -19.0367 L16.084 -18.1797 L16.583 -17.3227 L17.082 -16.4657 L17.5811 -15.6087 Z " />
<path stroke="rgb(200,255,200)" stroke-opacity="1" fill="rgb(200,255,200)" fill-opacity="1" id="tri_0_10_" d="M-27.5574 -6.37685 L-26.5643 -6.37976 L-25.5711 -6.38268 L-24.578 -6.3856 L-23.5848 -6.38851 L-22.5917 -6.39143 L-23.0857 -5.53076 L-23.5797 -4.6701 L-24.0737 -3.80943 L-24.5677 -2.94876 L-25.0617 -2.08809 L-25.5608 -2.94584 L-26.06 -3.80359 L-26.5591 -4.66135 L-27.0583 -5.5191 L-27.5574 -6.37685 Z " />
<path stroke="rgb(200,255,200)" stroke-opacity="1" fill="rgb(200,255,200)" fill-opacity="1" id="tri_1_9_" d="M-17.5903 -6.38361 L-16.5977 -6.38621 L-15.6051 -6.38881 L-14.6126 -6.39141 L-13.62 -6.39401 L-12.6274 -6.39661 L-13.1212 -5.53671 L-13.6149 -4.6768 L-14.1086 -3.8169 L-14.6024 -2.95699 L-15.0961 -2.09709 L-15.5949 -2.95439 L-16.0938 -3.8117 L-16.5926 -4.669 L-17.0914 -5.52631 L-17.5903 -6.38361 Z " />
<path stroke="rgb(200,255,200)" stroke-opacity="1" fill="rgb(200,255,200)" fill-opacity="1" id="tri_0_9_" d="M-17.2915 -6.94698 L-18.2845 -6.94403 L-19.2775 -6.94107 L-20.2705 -6.93812 L-21.2636 -6.93517 L-22.2566 -6.93222 L-21.7626 -7.79288 L-21.2686 -8.65355 L-20.7746 -9.51422 L-20.2806 -10.3749 L-19.7866 -11.2356 L-19.2876 -10.3778 L-18.7886 -9.52012 L-18.2895 -8.66241 L-17.7905 -7.80469 L-17.2915 -6.94698 Z " />
<path stroke="rgb(200,255,200)" stroke-opacity="1" fill="rgb(200,255,200)" fill-opacity="1" id="tri_2_9_" d="M-7.62373 -6.39269 L-6.63153 -6.39515 L-5.63934 -6.3976 L-4.64714 -6.40006 L-3.65495 -6.40252 L-2.66275 -6.40497 L-3.15629 -5.54532 L-3.64983 -4.68567 L-4.14338 -3.82602 L-4.63692 -2.96637 L-5.13046 -2.10672 L-5.62911 -2.96392 L-6.12777 -3.82111 L-6.62642 -4.6783 L-7.12507 -5.5355 L-7.62373 -6.39269 Z " />
<path stroke="rgb(200,255,200)" stroke-opacity="1" fill="rgb(200,255,200)" fill-opacity="1" id="tri_1_8_" d="M-7.32741 -6.95463 L-8.31989 -6.95208 L-9.31236 -6.94953 L-10.3048 -6.94698 L-11.2973 -6.94443 L-12.2898 -6.94188 L-11.7961 -7.80178 L-11.3023 -8.66169 L-10.8086 -9.52159 L-10.3148 -10.3815 L-9.82111 -11.2414 L-9.32237 -10.384 L-8.82363 -9.52669 L-8.32489 -8.66934 L-7.82615 -7.81198 L-7.32741 -6.95463 Z " />
<path stroke="rgb(200,255,200)" stroke-opacity="1" fill="rgb(200,255,200)" fill-opacity="1" id="tri_3_9_" d="M2.34194 -6.40077 L3.33401 -6.40354 L4.32608 -6.4063 L5.31815 -6.40907 L6.31022 -6.41184 L7.30228 -6.41461 L6.80884 -5.55495 L6.3154 -4.69528 L5.82196 -3.83562 L5.32851 -2.97596 L4.83507 -2.1163 L4.33645 -2.9732 L3.83782 -3.83009 L3.33919 -4.68698 L2.84057 -5.54387 L2.34194 -6.40077 Z " />
<path stroke="rgb(200,255,200)" stroke-opacity="1" fill="rgb(200,255,200)" fill-opacity="1" id="tri_2_8_" d="M2.63754 -6.96403 L1.64539 -6.96149 L0.653248 -6.95895 L-0.338897 -6.95641 L-1.33104 -6.95386 L-2.32319 -6.95132 L-1.82965 -7.81097 L-1.3361 -8.67062 L-0.842564 -9.53027 L-0.349023 -10.3899 L0.144518 -11.2496 L0.643121 -10.3925 L1.14173 -9.53536 L1.64033 -8.67825 L2.13893 -7.82114 L2.63754 -6.96403 Z " />
<path stroke="rgb(200,255,200)" stroke-opacity="1" fill="rgb(200,255,200)" fill-opacity="1" id="tri_4_9_" d="M12.3228 -6.39788 L13.315 -6.39894 L14.3072 -6.4 L15.2995 -6.40105 L16.2917 -6.40211 L17.2839 -6.40317 L16.7894 -5.54408 L16.2948 -4.68499 L15.8002 -3.82591 L15.3056 -2.96682 L14.8111 -2.10773 L14.3134 -2.96576 L13.8157 -3.82379 L13.3181 -4.68182 L12.8204 -5.53985 L12.3228 -6.39788 Z " />
<path stroke="rgb(200,255,200)" stroke-opacity="1" fill="rgb(200,255,200)" fill-opacity="1" id="tri_3_8_" d="M12.6035 -6.97204 L11.6113 -6.96958 L10.6192 -6.96712 L9.62706 -6.96466 L8.63493 -6.9622 L7.64279 -6.95974 L8.13624 -7.8194 L8.62968 -8.67906 L9.12312 -9.53872 L9.61656 -10.3984 L10.11 -11.258 L10.6087 -10.4008 L11.1074 -9.54365 L11.6061 -8.68645 L12.1048 -7.82925 L12.6035 -6.97204 Z " />
<path stroke="rgb(200,255,200)" stroke-opacity="1" fill="rgb(200,255,200)" fill-opacity="1" id="tri_5_8_" d="M22.3312 -6.34533 L23.324 -6.34414 L24.3168 -6.34296 L25.3096 -6.34177 L26.3024 -6.34059 L27.2952 -6.3394 L26.7981 -5.48111 L26.301 -4.62283 L25.8039 -3.76454 L25.3068 -2.90625 L24.8097 -2.04796 L24.314 -2.90743 L23.8183 -3.76691 L23.3226 -4.62638 L22.8269 -5.48585 L22.3312 -6.34533 Z " />
<path stroke="rgb(200,255,200)" stroke-opacity="1" fill="rgb(200,255,200)" fill-opacity="1" id="tri_4_8_" d="M22.5886 -6.95649 L21.5964 -6.95526 L20.6043 -6.95403 L19.6122 -6.9528 L18.62 -6.95157 L17.6279 -6.95033 L18.1225 -7.80942 L18.617 -8.66851 L19.1116 -9.5276 L19.6062 -10.3867 L20.1008 -11.2458 L20.5983 -10.3879 L21.0959 -9.53006 L21.5935 -8.6722 L22.091 -7.81434 L22.5886 -6.95649 Z " />
<path stroke="rgb(200,255,200)" stroke-opacity="1" fill="rgb(200,255,200)" fill-opacity="1" id="tri_0_8_" d="M-32.5347 2.25961 L-31.5415 2.25691 L-30.5483 2.25422 L-29.5552 2.25152 L-28.562 2.24883 L-27.5689 2.24613 L-28.0626 3.10651 L-28.5563 3.9669 L-29.05 4.82728 L-29.5437 5.68766 L-30.0374 6.54804 L-30.5368 5.69035 L-31.0363 4.83267 L-31.5357 3.97498 L-32.0352 3.11729 L-32.5347 2.25961 Z " />
<path stroke="rgb(200,255,200)" stroke-opacity="1" fill="rgb(200,255,200)" fill-opacity="1" id="tri_1_7_" d="M-22.566 2.25175 L-21.5736 2.24947 L-20.5812 2.2472 L-19.5888 2.24492 L-18.5964 2.24264 L-17.604 2.24036 L-18.0978 3.09996 L-18.5916 3.95955 L-19.0854 4.81915 L-19.5792 5.67875 L-20.073 6.53835 L-20.5716 5.68103 L-21.0702 4.82371 L-21.5688 3.96639 L-22.0674 3.10907 L-22.566 2.25175 Z " />
<path stroke="rgb(200,255,200)" stroke-opacity="1" fill="rgb(200,255,200)" fill-opacity="1" id="tri_0_7_" d="M-22.2672 1.69028 L-23.26 1.69291 L-24.2529 1.69554 L-25.2457 1.69817 L-26.2386 1.7008 L-27.2314 1.70343 L-26.7377 0.843052 L-26.244 -0.0173291 L-25.7503 -0.87771 L-25.2566 -1.73809 L-24.7629 -2.59847 L-24.2638 -1.74072 L-23.7646 -0.882971 L-23.2655 -0.0252201 L-22.7663 0.832531 L-22.2672 1.69028 Z " />
<path stroke="rgb(200,255,200)" stroke-opacity="1" fill="rgb(200,255,200)" fill-opacity="1" id="tri_2_7_" d="M-12.6003 2.24333 L-11.608 2.24113 L-10.6156 2.23893 L-9.6233 2.23674 L-8.63096 2.23454 L-7.63862 2.23234 L-8.13234 3.09187 L-8.62607 3.95139 L-9.11979 4.81092 L-9.61352 5.67045 L-10.1072 6.52998 L-10.6059 5.67265 L-11.1045 4.81532 L-11.6031 3.95799 L-12.1017 3.10066 L-12.6003 2.24333 Z " />
<path stroke="rgb(200,255,200)" stroke-opacity="1" fill="rgb(200,255,200)" fill-opacity="1" id="tri_1_6_" d="M-12.3027 1.68234 L-13.2953 1.68463 L-14.2879 1.68692 L-15.2805 1.68921 L-16.2732 1.6915 L-17.2658 1.6938 L-16.772 0.834199 L-16.2782 -0.0253977 L-15.7844 -0.884995 L-15.2906 -1.74459 L-14.7968 -2.60419 L-14.298 -1.74688 L-13.7991 -0.889579 L-13.3003 -0.0322739 L-12.8015 0.825031 L-12.3027 1.68234 Z " />
<path stroke="rgb(200,255,200)" stroke-opacity="1" fill="rgb(200,255,200)" fill-opacity="1" id="tri_3_7_" d="M-2.63394 2.23579 L-1.64163 2.23323 L-0.649328 2.23067 L0.342977 2.22811 L1.33528 2.22555 L2.32759 2.22299 L1.83396 3.08253 L1.34033 3.94207 L0.846699 4.80161 L0.35307 5.66115 L-0.140559 6.52069 L-0.639235 5.66371 L-1.13791 4.80673 L-1.63659 3.94975 L-2.13526 3.09277 L-2.63394 2.23579 Z " />
<path stroke="rgb(200,255,200)" stroke-opacity="1" fill="rgb(200,255,200)" fill-opacity="1" id="tri_2_6_" d="M-2.33695 1.67307 L-3.32933 1.6754 L-4.32171 1.67773 L-5.31409 1.68007 L-6.30647 1.6824 L-7.29885 1.68474 L-6.80513 0.825209 L-6.3114 -0.0343189 L-5.81767 -0.893846 L-5.32395 -1.75337 L-4.83022 -2.6129 L-4.33157 -1.75571 L-3.83291 -0.898515 L-3.33426 -0.0413214 L-2.8356 0.815872 L-2.33695 1.67307 Z " />
<path stroke="rgb(200,255,200)" stroke-opacity="1" fill="rgb(200,255,200)" fill-opacity="1" id="tri_4_7_" d="M7.33326 2.2368 L8.32562 2.23555 L9.31798 2.23431 L10.3103 2.23307 L11.3027 2.23182 L12.2951 2.23058 L11.8005 3.08967 L11.3059 3.94876 L10.8113 4.80784 L10.3168 5.66693 L9.82219 6.52602 L9.32441 5.66817 L8.82662 4.81033 L8.32883 3.95248 L7.83105 3.09464 L7.33326 2.2368 Z " />
<path stroke="rgb(200,255,200)" stroke-opacity="1" fill="rgb(200,255,200)" fill-opacity="1" id="tri_3_6_" d="M7.62811 1.66345 L6.63586 1.6661 L5.64361 1.66875 L4.65135 1.67139 L3.6591 1.67404 L2.66684 1.67668 L3.16047 0.817143 L3.6541 -0.0423956 L4.14773 -0.901934 L4.64136 -1.76147 L5.13499 -2.62101 L5.63361 -1.76412 L6.13224 -0.907226 L6.63086 -0.0503329 L7.12949 0.80656 L7.62811 1.66345 Z " />
<path stroke="rgb(200,255,200)" stroke-opacity="1" fill="rgb(200,255,200)" fill-opacity="1" id="tri_5_7_" d="M17.3175 2.28457 L18.3104 2.28593 L19.3033 2.28729 L20.2962 2.28865 L21.2891 2.29001 L22.282 2.29137 L21.7845 3.14977 L21.2871 4.00817 L20.7896 4.86657 L20.2921 5.72497 L19.7946 6.58337 L19.2992 5.72361 L18.8037 4.86385 L18.3083 4.00409 L17.8129 3.14433 L17.3175 2.28457 Z " />
<path stroke="rgb(200,255,200)" stroke-opacity="1" fill="rgb(200,255,200)" fill-opacity="1" id="tri_4_6_" d="M17.6002 1.6774 L16.6079 1.67846 L15.6157 1.67952 L14.6235 1.68057 L13.6312 1.68163 L12.639 1.68269 L13.1336 0.8236 L13.6281 -0.0354869 L14.1227 -0.894574 L14.6173 -1.75366 L15.1118 -2.61275 L15.6095 -1.75472 L16.1072 -0.896687 L16.6048 -0.038657 L17.1025 0.819373 L17.6002 1.6774 Z " />
<path stroke="rgb(200,255,200)" stroke-opacity="1" fill="rgb(200,255,200)" fill-opacity="1" id="tri_6_6_" d="M27.3305 2.43331 L28.3252 2.4385 L29.3198 2.44368 L30.3144 2.44887 L31.3091 2.45406 L32.3037 2.45925 L31.8024 3.3169 L31.3012 4.17455 L30.7999 5.0322 L30.2986 5.88986 L29.7973 6.74751 L29.304 5.88467 L28.8106 5.02183 L28.3172 4.15899 L27.8239 3.29615 L27.3305 2.43331 Z " />
<path stroke="rgb(200,255,200)" stroke-opacity="1" fill="rgb(200,255,200)" fill-opacity="1" id="tri_5_6_" d="M27.5919 1.74907 L26.5987 1.74799 L25.6055 1.74692 L24.6123 1.74585 L23.6191 1.74477 L22.6259 1.7437 L23.1234 0.885299 L23.6209 0.0269003 L24.1184 -0.831499 L24.6159 -1.6899 L25.1133 -2.5483 L25.6091 -1.68882 L26.1048 -0.829351 L26.6005 0.0301217 L27.0962 0.889594 L27.5919 1.74907 Z " />
<path stroke="rgb(200,255,200)" stroke-opacity="1" fill="rgb(200,255,200)" fill-opacity="1" id="tri_0_6_" d="M-37.5097 10.8974 L-36.5167 10.8945 L-35.5237 10.8915 L-34.5306 10.8886 L-33.5376 10.8856 L-32.5446 10.8827 L-33.0382 11.7434 L-33.5318 12.6042 L-34.0254 13.465 L-34.519 14.3258 L-35.0126 15.1866 L-35.512 14.3287 L-36.0114 13.4709 L-36.5108 12.6131 L-37.0103 11.7553 L-37.5097 10.8974 Z " />
<path stroke="rgb(200,255,200)" stroke-opacity="1" fill="rgb(200,255,200)" fill-opacity="1" id="tri_1_5_" d="M-27.5416 10.8896 L-26.549 10.8868 L-25.5564 10.8841 L-24.5638 10.8814 L-23.5712 10.8786 L-22.5786 10.8759 L-23.0726 11.7357 L-23.5666 12.5956 L-24.0606 13.4554 L-24.5546 14.3152 L-25.0486 15.1751 L-25.5472 14.318 L-26.0458 13.4609 L-26.5444 12.6038 L-27.043 11.7467 L-27.5416 10.8896 Z " />
<path stroke="rgb(200,255,200)" stroke-opacity="1" fill="rgb(200,255,200)" fill-opacity="1" id="tri_0_5_" d="M-27.2425 10.326 L-28.2355 10.3291 L-29.2285 10.3322 L-30.2216 10.3352 L-31.2146 10.3383 L-32.2077 10.3414 L-31.7141 9.48065 L-31.2205 8.61987 L-30.7269 7.7591 L-30.2333 6.89832 L-29.7397 6.03754 L-29.2403 6.89523 L-28.7408 7.75292 L-28.2414 8.6106 L-27.7419 9.46829 L-27.2425 10.326 Z " />
<path stroke="rgb(200,255,200)" stroke-opacity="1" fill="rgb(200,255,200)" fill-opacity="1" id="tri_2_5_" d="M-17.5772 10.8798 L-16.5848 10.8773 L-15.5925 10.8749 L-14.6002 10.8725 L-13.6078 10.8701 L-12.6155 10.8677 L-13.1089 11.7272 L-13.6022 12.5868 L-14.0956 13.4463 L-14.589 14.3059 L-15.0824 15.1654 L-15.5813 14.3083 L-16.0803 13.4511 L-16.5792 12.594 L-17.0782 11.7369 L-17.5772 10.8798 Z " />
<path stroke="rgb(200,255,200)" stroke-opacity="1" fill="rgb(200,255,200)" fill-opacity="1" id="tri_1_4_" d="M-17.2798 10.318 L-18.2724 10.3205 L-19.265 10.3231 L-20.2576 10.3256 L-21.2502 10.3281 L-22.2428 10.3306 L-21.7488 9.47076 L-21.2548 8.61093 L-20.7608 7.75109 L-20.2668 6.89126 L-19.7728 6.03143 L-19.2742 6.88875 L-18.7756 7.74607 L-18.277 8.60339 L-17.7784 9.4607 L-17.2798 10.318 Z " />
<path stroke="rgb(200,255,200)" stroke-opacity="1" fill="rgb(200,255,200)" fill-opacity="1" id="tri_3_5_" d="M-7.60831 10.8709 L-6.6164 10.8684 L-5.62449 10.866 L-4.63258 10.8635 L-3.64067 10.8611 L-2.64876 10.8586 L-3.14224 11.7184 L-3.63572 12.5782 L-4.12919 13.438 L-4.62267 14.2978 L-5.11615 15.1576 L-5.61458 14.3003 L-6.11302 13.4429 L-6.61145 12.5856 L-7.10988 11.7282 L-7.60831 10.8709 Z " />
<path stroke="rgb(200,255,200)" stroke-opacity="1" fill="rgb(200,255,200)" fill-opacity="1" id="tri_2_4_" d="M-7.3143 10.3092 L-8.30629 10.3114 L-9.29828 10.3137 L-10.2903 10.3159 L-11.2822 10.3181 L-12.2742 10.3203 L-11.7809 9.46077 L-11.2875 8.60122 L-10.7941 7.74167 L-10.3008 6.88212 L-9.80739 6.02257 L-9.30877 6.8799 L-8.81015 7.73723 L-8.31154 8.59456 L-7.81292 9.45189 L-7.3143 10.3092 Z " />
<path stroke="rgb(200,255,200)" stroke-opacity="1" fill="rgb(200,255,200)" fill-opacity="1" id="tri_4_5_" d="M2.34573 10.8731 L3.33799 10.8716 L4.33025 10.8702 L5.32251 10.8688 L6.31477 10.8674 L7.30703 10.866 L6.81232 11.725 L6.31761 12.5841 L5.82291 13.4431 L5.3282 14.3022 L4.83349 15.1612 L4.33594 14.3036 L3.83838 13.446 L3.34083 12.5883 L2.84328 11.7307 L2.34573 10.8731 Z " />
<path stroke="rgb(200,255,200)" stroke-opacity="1" fill="rgb(200,255,200)" fill-opacity="1" id="tri_3_4_" d="M2.65267 10.3007 L1.66051 10.3035 L0.668356 10.3063 L-0.3238 10.3091 L-1.31595 10.3119 L-2.30811 10.3147 L-1.81463 9.45494 L-1.32115 8.59514 L-0.827671 7.73535 L-0.334192 6.87555 L0.159288 6.01575 L0.657963 6.87273 L1.15664 7.72971 L1.65531 8.58669 L2.15399 9.44367 L2.65267 10.3007 Z " />
<path stroke="rgb(200,255,200)" stroke-opacity="1" fill="rgb(200,255,200)" fill-opacity="1" id="tri_5_5_" d="M12.3022 10.9153 L13.2954 10.9165 L14.2886 10.9177 L15.2817 10.9189 L16.2749 10.9201 L17.2681 10.9213 L16.7707 11.7799 L16.2733 12.6385 L15.7759 13.497 L15.2785 14.3556 L14.7811 15.2142 L14.2853 14.3544 L13.7896 13.4946 L13.2938 12.6348 L12.798 11.775 L12.3022 10.9153 Z " />
<path stroke="rgb(200,255,200)" stroke-opacity="1" fill="rgb(200,255,200)" fill-opacity="1" id="tri_4_4_" d="M12.6116 10.3118 L11.6191 10.313 L10.6266 10.3142 L9.6341 10.3154 L8.6416 10.3166 L7.6491 10.3178 L8.14381 9.45877 L8.63852 8.59972 L9.13323 7.74067 L9.62794 6.88162 L10.1227 6.02257 L10.6204 6.88041 L11.1182 7.73826 L11.616 8.5961 L12.1138 9.45394 L12.6116 10.3118 Z " />
<path stroke="rgb(200,255,200)" stroke-opacity="1" fill="rgb(200,255,200)" fill-opacity="1" id="tri_6_5_" d="M22.2734 11.0571 L23.2676 11.0624 L24.2619 11.0677 L25.2561 11.073 L26.2504 11.0783 L27.2446 11.0836 L26.7436 11.9412 L26.2425 12.7989 L25.7415 13.6565 L25.2404 14.5141 L24.7394 15.3718 L24.2462 14.5088 L23.753 13.6459 L23.2598 12.783 L22.7666 11.92 L22.2734 11.0571 Z " />
<path stroke="rgb(200,255,200)" stroke-opacity="1" fill="rgb(200,255,200)" fill-opacity="1" id="tri_5_4_" d="M22.5769 10.3806 L21.5841 10.3794 L20.5913 10.3782 L19.5985 10.377 L18.6057 10.3758 L17.6129 10.3746 L18.1103 9.51605 L18.6076 8.65748 L19.105 7.79891 L19.6024 6.94034 L20.0998 6.08176 L20.5952 6.94152 L21.0907 7.80128 L21.5861 8.66104 L22.0815 9.5208 L22.5769 10.3806 Z " />
<path stroke="rgb(200,255,200)" stroke-opacity="1" fill="rgb(200,255,200)" fill-opacity="1" id="tri_7_4_" d="M32.2794 11.3812 L33.2761 11.3934 L34.2729 11.4056 L35.2696 11.4179 L36.2663 11.4301 L37.2631 11.4424 L36.7542 12.2983 L36.2453 13.1542 L35.7364 14.01 L35.2275 14.8659 L34.7186 15.7218 L34.2307 14.8537 L33.7429 13.9855 L33.2551 13.1174 L32.7672 12.2493 L32.2794 11.3812 Z " />
<path stroke="rgb(200,255,200)" stroke-opacity="1" fill="rgb(200,255,200)" fill-opacity="1" id="tri_6_4_" d="M32.5679 10.5615 L31.5735 10.5563 L30.5791 10.5511 L29.5846 10.5459 L28.5902 10.5407 L27.5958 10.5355 L28.0969 9.67783 L28.5979 8.82019 L29.099 7.96255 L29.6 7.10491 L30.1011 6.24727 L30.5944 7.11011 L31.0878 7.97295 L31.5812 8.83579 L32.0745 9.69863 L32.5679 10.5615 Z " />
<path stroke="rgb(200,255,200)" stroke-opacity="1" fill="rgb(200,255,200)" fill-opacity="1" id="tri_0_4_" d="M-42.4864 19.5342 L-41.4933 19.5314 L-40.5002 19.5286 L-39.5071 19.5258 L-38.514 19.523 L-37.5208 19.5203 L-38.0144 20.3807 L-38.508 21.2411 L-39.0015 22.1015 L-39.4951 22.9619 L-39.9887 23.8223 L-40.4882 22.9647 L-40.9878 22.1071 L-41.4873 21.2494 L-41.9869 20.3918 L-42.4864 19.5342 Z " />
<path stroke="rgb(200,255,200)" stroke-opacity="1" fill="rgb(200,255,200)" fill-opacity="1" id="tri_1_3_" d="M-32.5174 19.5248 L-31.5249 19.5226 L-30.5324 19.5203 L-29.5398 19.5181 L-28.5473 19.5158 L-27.5547 19.5136 L-28.0486 20.3731 L-28.5424 21.2326 L-29.0363 22.0921 L-29.5301 22.9516 L-30.024 23.8111 L-30.5227 22.9539 L-31.0214 22.0966 L-31.5201 21.2393 L-32.0187 20.3821 L-32.5174 19.5248 Z " />
<path stroke="rgb(200,255,200)" stroke-opacity="1" fill="rgb(200,255,200)" fill-opacity="1" id="tri_0_3_" d="M-32.2178 18.964 L-33.2108 18.9666 L-34.2038 18.9692 L-35.1968 18.9718 L-36.1898 18.9744 L-37.1828 18.977 L-36.6892 18.1166 L-36.1956 17.2562 L-35.7021 16.3958 L-35.2085 15.5353 L-34.7149 14.6749 L-34.2155 15.5327 L-33.7161 16.3906 L-33.2167 17.2484 L-32.7173 18.1062 L-32.2178 18.964 Z " />
<path stroke="rgb(200,255,200)" stroke-opacity="1" fill="rgb(200,255,200)" fill-opacity="1" id="tri_2_3_" d="M-22.552 19.5165 L-21.5599 19.5142 L-20.5677 19.5118 L-19.5756 19.5095 L-18.5834 19.5072 L-17.5912 19.5049 L-18.0848 20.3645 L-18.5783 21.2242 L-19.0719 22.0838 L-19.5654 22.9435 L-20.0589 23.8031 L-20.5576 22.9458 L-21.0562 22.0885 L-21.5548 21.2311 L-22.0534 20.3738 L-22.552 19.5165 Z " />
<path stroke="rgb(200,255,200)" stroke-opacity="1" fill="rgb(200,255,200)" fill-opacity="1" id="tri_1_2_" d="M-22.2551 18.9548 L-23.2476 18.9573 L-24.24 18.9597 L-25.2324 18.9621 L-26.2249 18.9645 L-27.2173 18.9669 L-26.7235 18.1074 L-26.2296 17.2479 L-25.7358 16.3884 L-25.2419 15.5289 L-24.7481 14.6694 L-24.2495 15.5265 L-23.7509 16.3836 L-23.2523 17.2407 L-22.7537 18.0978 L-22.2551 18.9548 Z " />
<path stroke="rgb(200,255,200)" stroke-opacity="1" fill="rgb(200,255,200)" fill-opacity="1" id="tri_3_3_" d="M-12.5855 19.5086 L-11.5931 19.5058 L-10.6007 19.5031 L-9.60826 19.5003 L-8.61583 19.4976 L-7.6234 19.4949 L-8.11733 20.3547 L-8.61125 21.2145 L-9.10517 22.0743 L-9.59909 22.9342 L-10.093 23.794 L-10.5915 22.9369 L-11.09 22.0798 L-11.5885 21.2227 L-12.087 20.3657 L-12.5855 19.5086 Z " />
<path stroke="rgb(200,255,200)" stroke-opacity="1" fill="rgb(200,255,200)" fill-opacity="1" id="tri_2_2_" d="M-12.2886 18.9449 L-13.2811 18.9474 L-14.2736 18.9499 L-15.2661 18.9525 L-16.2587 18.955 L-17.2512 18.9575 L-16.7576 18.0978 L-16.2641 17.2382 L-15.7705 16.3785 L-15.277 15.5189 L-14.7835 14.6592 L-14.2845 15.5164 L-13.7855 16.3735 L-13.2866 17.2306 L-12.7876 18.0878 L-12.2886 18.9449 Z " />
<path stroke="rgb(200,255,200)" stroke-opacity="1" fill="rgb(200,255,200)" fill-opacity="1" id="tri_4_3_" d="M-2.64351 19.5068 L-1.65105 19.5057 L-0.658597 19.5046 L0.333862 19.5035 L1.32632 19.5025 L2.31878 19.5014 L1.82428 20.3602 L1.32978 21.219 L0.835277 22.0778 L0.340776 22.9367 L-0.153725 23.7955 L-0.651683 22.9377 L-1.14964 22.08 L-1.6476 21.2222 L-2.14555 20.3645 L-2.64351 19.5068 Z " />
<path stroke="rgb(200,255,200)" stroke-opacity="1" fill="rgb(200,255,200)" fill-opacity="1" id="tri_3_2_" d="M-2.32296 18.9378 L-3.31532 18.9403 L-4.30767 18.9428 L-5.30002 18.9453 L-6.29238 18.9477 L-7.28473 18.9502 L-6.79081 18.0904 L-6.29689 17.2306 L-5.80296 16.3707 L-5.30904 15.5109 L-4.81512 14.6511 L-4.31669 15.5084 L-3.81826 16.3658 L-3.31983 17.2231 L-2.82139 18.0805 L-2.32296 18.9378 Z " />
<path stroke="rgb(200,255,200)" stroke-opacity="1" fill="rgb(200,255,200)" fill-opacity="1" id="tri_5_3_" d="M7.28883 19.5455 L8.28155 19.5467 L9.27427 19.548 L10.267 19.5492 L11.2597 19.5504 L12.2524 19.5517 L11.7553 20.41 L11.2581 21.2683 L10.7609 22.1267 L10.2637 22.985 L9.76651 23.8433 L9.27098 22.9838 L8.77544 22.1242 L8.2799 21.2646 L7.78437 20.4051 L7.28883 19.5455 Z " />
<path stroke="rgb(200,255,200)" stroke-opacity="1" fill="rgb(200,255,200)" fill-opacity="1" id="tri_4_2_" d="M7.62259 18.9463 L6.63054 18.9475 L5.63849 18.9487 L4.64644 18.9498 L3.65439 18.951 L2.66234 18.9522 L3.15684 18.0934 L3.65134 17.2346 L4.14584 16.3757 L4.64034 15.5169 L5.13484 14.6581 L5.63239 15.5157 L6.12994 16.3734 L6.62749 17.231 L7.12504 18.0887 L7.62259 18.9463 Z " />
<path stroke="rgb(200,255,200)" stroke-opacity="1" fill="rgb(200,255,200)" fill-opacity="1" id="tri_6_3_" d="M17.2135 19.6791 L18.2079 19.6847 L19.2023 19.6902 L20.1967 19.6958 L21.1911 19.7014 L22.1855 19.7069 L21.6842 20.5643 L21.1829 21.4218 L20.6817 22.2792 L20.1804 23.1366 L19.6791 23.9941 L19.186 23.1311 L18.6929 22.2681 L18.1998 21.4051 L17.7067 20.5421 L17.2135 19.6791 Z " />
<path stroke="rgb(200,255,200)" stroke-opacity="1" fill="rgb(200,255,200)" fill-opacity="1" id="tri_5_2_" d="M17.5632 19.0113 L16.5703 19.0099 L15.5773 19.0084 L14.5843 19.007 L13.5914 19.0055 L12.5984 19.0041 L13.0956 18.1457 L13.5928 17.2874 L14.09 16.4291 L14.5872 15.5707 L15.0843 14.7124 L15.5801 15.5722 L16.0759 16.432 L16.5717 17.2917 L17.0674 18.1515 L17.5632 19.0113 Z " />
<path stroke="rgb(200,255,200)" stroke-opacity="1" fill="rgb(200,255,200)" fill-opacity="1" id="tri_7_3_" d="M27.1461 19.9915 L28.1429 20.004 L29.1397 20.0166 L30.1365 20.0291 L31.1333 20.0417 L32.1301 20.0543 L31.6213 20.91 L31.1125 21.7657 L30.6038 22.6214 L30.095 23.4771 L29.5862 24.3328 L29.0982 23.4645 L28.6102 22.5962 L28.1222 21.728 L27.6341 20.8597 L27.1461 19.9915 Z " />
<path stroke="rgb(200,255,200)" stroke-opacity="1" fill="rgb(200,255,200)" fill-opacity="1" id="tri_6_2_" d="M27.5091 19.1854 L26.5146 19.1799 L25.5201 19.1744 L24.5257 19.1689 L23.5312 19.1633 L22.5367 19.1578 L23.038 18.3004 L23.5393 17.443 L24.0406 16.5855 L24.5418 15.7281 L25.0431 14.8707 L25.5363 15.7336 L26.0295 16.5966 L26.5227 17.4595 L27.0159 18.3224 L27.5091 19.1854 Z " />
<path stroke="rgb(200,255,200)" stroke-opacity="1" fill="rgb(200,255,200)" fill-opacity="1" id="tri_8_2_" d="M37.1094 20.5715 L38.1095 20.5935 L39.1097 20.6156 L40.1098 20.6376 L41.1099 20.6596 L42.11 20.6816 L41.5914 21.536 L41.0727 22.3905 L40.554 23.2449 L40.0354 24.0994 L39.5167 24.9538 L39.0352 24.0773 L38.5538 23.2009 L38.0723 22.3244 L37.5909 21.448 L37.1094 20.5715 Z " />
<path stroke="rgb(200,255,200)" stroke-opacity="1" fill="rgb(200,255,200)" fill-opacity="1" id="tri_7_2_" d="M37.4681 19.567 L36.4715 19.5546 L35.4748 19.5421 L34.4782 19.5297 L33.4816 19.5173 L32.485 19.5049 L32.9938 18.6492 L33.5026 17.7935 L34.0113 16.9378 L34.5201 16.0821 L35.0289 15.2264 L35.5167 16.0945 L36.0046 16.9626 L36.4924 17.8307 L36.9802 18.6989 L37.4681 19.567 Z " />
<path stroke="rgb(200,255,200)" stroke-opacity="1" fill="rgb(200,255,200)" fill-opacity="1" id="tri_0_2_" d="M-47.461 28.1707 L-46.4682 28.1678 L-45.4753 28.165 L-44.4825 28.1621 L-43.4897 28.1593 L-42.4968 28.1564 L-42.9903 29.017 L-43.4838 29.8776 L-43.9772 30.7382 L-44.4707 31.5988 L-44.9642 32.4594 L-45.4635 31.6016 L-45.9629 30.7439 L-46.4623 29.8862 L-46.9616 29.0284 L-47.461 28.1707 Z " />
<path stroke="rgb(200,255,200)" stroke-opacity="1" fill="rgb(200,255,200)" fill-opacity="1" id="tri_1_1_" d="M-37.4929 28.1613 L-36.5003 28.1587 L-35.5078 28.1561 L-34.5152 28.1535 L-33.5226 28.1509 L-32.5301 28.1483 L-33.0237 29.0083 L-33.5173 29.8682 L-34.0109 30.7282 L-34.5045 31.5881 L-34.9981 32.448 L-35.497 31.5907 L-35.996 30.7334 L-36.495 29.876 L-36.9939 29.0187 L-37.4929 28.1613 Z " />
<path stroke="rgb(200,255,200)" stroke-opacity="1" fill="rgb(200,255,200)" fill-opacity="1" id="tri_0_1_" d="M-37.1941 27.5998 L-38.1871 27.6027 L-39.1801 27.6057 L-40.1731 27.6086 L-41.1661 27.6116 L-42.1591 27.6145 L-41.6656 26.7539 L-41.1722 25.8934 L-40.6787 25.0328 L-40.1852 24.1722 L-39.6918 23.3116 L-39.1922 24.1692 L-38.6927 25.0269 L-38.1931 25.8845 L-37.6936 26.7421 L-37.1941 27.5998 Z " />
<path stroke="rgb(200,255,200)" stroke-opacity="1" fill="rgb(200,255,200)" fill-opacity="1" id="tri_2_1_" d="M-27.5253 28.1531 L-26.5333 28.1505 L-25.5412 28.1479 L-24.5492 28.1453 L-23.5572 28.1427 L-22.5652 28.1402 L-23.0589 29.0001 L-23.5526 29.8601 L-24.0463 30.7201 L-24.54 31.58 L-25.0337 32.44 L-25.532 31.5826 L-26.0303 30.7252 L-26.5286 29.8678 L-27.027 29.0105 L-27.5253 28.1531 Z " />
<path stroke="rgb(200,255,200)" stroke-opacity="1" fill="rgb(200,255,200)" fill-opacity="1" id="tri_1" d="M-27.2306 27.59 L-28.2229 27.5927 L-29.2152 27.5954 L-30.2074 27.5981 L-31.1997 27.6007 L-32.192 27.6034 L-31.6984 26.7435 L-31.2048 25.8835 L-30.7112 25.0236 L-30.2176 24.1636 L-29.724 23.3037 L-29.2253 24.161 L-28.7266 25.0182 L-28.228 25.8755 L-27.7293 26.7328 L-27.2306 27.59 Z " />
<path stroke="rgb(200,255,200)" stroke-opacity="1" fill="rgb(200,255,200)" fill-opacity="1" id="tri_3_1_" d="M-17.5602 28.1468 L-16.568 28.144 L-15.5757 28.1411 L-14.5835 28.1382 L-13.5912 28.1354 L-12.599 28.1325 L-13.0925 28.9922 L-13.586 29.8519 L-14.0796 30.7116 L-14.5731 31.5714 L-15.0666 32.4311 L-15.5653 31.5742 L-16.0641 30.7174 L-16.5628 29.8605 L-17.0615 29.0037 L-17.5602 28.1468 Z " />
<path stroke="rgb(200,255,200)" stroke-opacity="1" fill="rgb(200,255,200)" fill-opacity="1" id="tri_2" d="M-17.2645 27.5828 L-18.2568 27.5854 L-19.2492 27.5881 L-20.2415 27.5907 L-21.2338 27.5933 L-22.2261 27.596 L-21.7324 26.736 L-21.2387 25.876 L-20.745 25.0161 L-20.2513 24.1561 L-19.7576 23.2961 L-19.259 24.1535 L-18.7604 25.0108 L-18.2618 25.8681 L-17.7631 26.7254 L-17.2645 27.5828 Z " />
<path stroke="rgb(200,255,200)" stroke-opacity="1" fill="rgb(200,255,200)" fill-opacity="1" id="tri_4_1_" d="M-7.63164 28.1417 L-6.6395 28.1405 L-5.64736 28.1393 L-4.65523 28.138 L-3.66309 28.1368 L-2.67095 28.1356 L-3.1654 28.9945 L-3.65985 29.8534 L-4.1543 30.7123 L-4.64875 31.5712 L-5.1432 32.4301 L-5.64089 31.5724 L-6.13858 30.7147 L-6.63627 29.8571 L-7.13395 28.9994 L-7.63164 28.1417 Z " />
<path stroke="rgb(200,255,200)" stroke-opacity="1" fill="rgb(200,255,200)" fill-opacity="1" id="tri_3" d="M-7.29947 27.5745 L-8.2915 27.5771 L-9.28354 27.5798 L-10.2756 27.5824 L-11.2676 27.585 L-12.2596 27.5877 L-11.7661 26.728 L-11.2726 25.8682 L-10.779 25.0085 L-10.2855 24.1488 L-9.79199 23.2891 L-9.29348 24.1462 L-8.79498 25.0033 L-8.29648 25.8603 L-7.79797 26.7174 L-7.29947 27.5745 Z " />
<path stroke="rgb(200,255,200)" stroke-opacity="1" fill="rgb(200,255,200)" fill-opacity="1" id="tri_5_1_" d="M2.27432 28.1754 L3.2674 28.1766 L4.26048 28.1779 L5.25356 28.1792 L6.24664 28.1804 L7.23971 28.1817 L6.74236 29.0401 L6.245 29.8985 L5.74764 30.757 L5.25029 31.6154 L4.75293 32.4739 L4.25721 31.6142 L3.76149 30.7545 L3.26576 29.8948 L2.77004 29.0351 L2.27432 28.1754 Z " />
<path stroke="rgb(200,255,200)" stroke-opacity="1" fill="rgb(200,255,200)" fill-opacity="1" id="tri_4" d="M2.63474 27.5807 L1.64233 27.5819 L0.649922 27.583 L-0.342487 27.5842 L-1.3349 27.5853 L-2.3273 27.5865 L-1.83285 26.7276 L-1.3384 25.8687 L-0.843951 25.0098 L-0.3495 24.1509 L0.144951 23.292 L0.642909 24.1497 L1.14087 25.0075 L1.63882 25.8652 L2.13678 26.723 L2.63474 27.5807 Z " />
<path stroke="rgb(200,255,200)" stroke-opacity="1" fill="rgb(200,255,200)" fill-opacity="1" id="tri_6_1_" d="M12.1553 28.3024 L13.1496 28.3076 L14.1439 28.3129 L15.1383 28.3181 L16.1326 28.3234 L17.1269 28.3286 L16.6257 29.1864 L16.1246 30.0443 L15.6234 30.9021 L15.1222 31.7599 L14.621 32.6177 L14.1279 31.7547 L13.6347 30.8916 L13.1416 30.0285 L12.6484 29.1654 L12.1553 28.3024 Z " />
<path stroke="rgb(200,255,200)" stroke-opacity="1" fill="rgb(200,255,200)" fill-opacity="1" id="tri_5" d="M12.5487 27.6399 L11.5558 27.6387 L10.5629 27.6376 L9.57002 27.6365 L8.57713 27.6353 L7.58424 27.6342 L8.08159 26.7757 L8.57895 25.9173 L9.07631 25.0589 L9.57366 24.2004 L10.071 23.342 L10.5666 24.2016 L11.0621 25.0611 L11.5576 25.9207 L12.0532 26.7803 L12.5487 27.6399 Z " />
<path stroke="rgb(200,255,200)" stroke-opacity="1" fill="rgb(200,255,200)" fill-opacity="1" id="tri_7_1_" d="M22.0148 28.6036 L23.0114 28.6159 L24.008 28.6281 L25.0046 28.6403 L26.0012 28.6525 L26.9978 28.6647 L26.489 29.5207 L25.9802 30.3768 L25.4714 31.2329 L24.9626 32.0889 L24.4538 32.945 L23.966 32.0767 L23.4782 31.2084 L22.9904 30.3402 L22.5026 29.4719 L22.0148 28.6036 Z " />
<path stroke="rgb(200,255,200)" stroke-opacity="1" fill="rgb(200,255,200)" fill-opacity="1" id="tri_6" d="M22.4492 27.8078 L21.4549 27.8027 L20.4606 27.7975 L19.4664 27.7923 L18.4721 27.7872 L17.4778 27.782 L17.979 26.9242 L18.4801 26.0664 L18.9813 25.2085 L19.4825 24.3507 L19.9837 23.4929 L20.4768 24.3559 L20.9699 25.2189 L21.463 26.0818 L21.9561 26.9448 L22.4492 27.8078 Z " />
<path stroke="rgb(200,255,200)" stroke-opacity="1" fill="rgb(200,255,200)" fill-opacity="1" id="tri_8_1_" d="M31.8734 29.1655 L32.8737 29.1872 L33.8741 29.209 L34.8744 29.2308 L35.8747 29.2526 L36.8751 29.2744 L36.3564 30.129 L35.8377 30.9835 L35.319 31.8381 L34.8003 32.6927 L34.2816 33.5472 L33.7999 32.6709 L33.3183 31.7945 L32.8367 30.9182 L32.355 30.0418 L31.8734 29.1655 Z " />
<path stroke="rgb(200,255,200)" stroke-opacity="1" fill="rgb(200,255,200)" fill-opacity="1" id="tri_7" d="M32.3359 28.1781 L31.3391 28.1659 L30.3423 28.1537 L29.3454 28.1415 L28.3486 28.1293 L27.3518 28.1171 L27.8606 27.261 L28.3694 26.405 L28.8782 25.5489 L29.387 24.6929 L29.8958 23.8368 L30.3838 24.7051 L30.8719 25.5733 L31.3599 26.4416 L31.8479 27.3098 L32.3359 28.1781 Z " />
<path stroke="rgb(200,255,200)" stroke-opacity="1" fill="rgb(200,255,200)" fill-opacity="1" id="tri_9" d="M41.7458 30.1464 L42.7506 30.1826 L43.7554 30.2187 L44.7601 30.2549 L45.7649 30.2911 L46.7697 30.3272 L46.2365 31.1783 L45.7033 32.0294 L45.1701 32.8805 L44.6369 33.7316 L44.1037 34.5827 L43.6321 33.6954 L43.1605 32.8082 L42.689 31.9209 L42.2174 31.0336 L41.7458 30.1464 Z " />
<path stroke="rgb(200,255,200)" stroke-opacity="1" fill="rgb(200,255,200)" fill-opacity="1" id="tri_8" d="M42.2397 28.8393 L41.2395 28.8174 L40.2393 28.7955 L39.2392 28.7736 L38.239 28.7518 L37.2389 28.7299 L37.7576 27.8753 L38.2763 27.0207 L38.795 26.1662 L39.3137 25.3116 L39.8324 24.457 L40.3138 25.3335 L40.7953 26.2099 L41.2768 27.0864 L41.7582 27.9628 L42.2397 28.8393 Z " />
</g>
</g>
</svg>
