<!DOCTYPE svg>
<svg xmlns="http://www.w3.org/2000/svg" xmlns:xlink="http://www.w3.org/1999/xlink" width="560" height="560">
<g transform="translate(280.000000,280.000000)">
<g transform="scale(3.000000,3.000000)">
<path stroke="rgb(0,0,0)" stroke-opacity="1" fill="rgb(255,255,255)" fill-opacity="1" d="M-988.3 -988 L-989.3 -988 L-990.3 -988 L-991.2 -988 L-992.2 -988 L-993.2 -988 L-994.2 -988 L-995.1 -988 L-996.1 -988.1 L-997.1 -988.1 L-998.1 -988.1 L-999.1 -988.1 L-1000 -988.1 L-1001 -988.1 L-1002 -988.1 L-1003 -988.2 L-1004 -988.2 L-1005 -988.2 L-1006 -988.2 L-1007 -988.2 L-1008 -988.2 L-1009 -988.2 L-1010 -988.3 L-1011 -988.3 L-1012 -988.3 L-1013 -988.3 L-1013 -989.3 L-1013 -990.3 L-1013 -991.2 L-1013 -992.2 L-1013 -993.2 L-1013 -994.2 L-1013 -995.1 L-1013 -996.1 L-1013 -997.1 L-1013 -998.1 L-1013 -999.1 L-1013 -1000 L-1013 -1001 L-1013 -1002 L-1013 -1003 L-1013 -1004 L-1013 -1005 L-1013 -1006 L-1012 -1007 L-1012 -1008 L-1012 -1009 L-1012 -1010 L-1012 -1011 L-1012 -1012 L-1012 -1013 L-1011 -1013 L-1010 -1013 L-1009 -1013 L-1008 -1013 L-1008 -1013 L-1007 -1013 L-1006 -1013 L-1005 -1013 L-1004 -1013 L-1003 -1013 L-1002 -1013 L-1001 -1013 L-999.7 -1013 L-998.7 -1013 L-997.7 -1013 L-996.8 -1013 L-995.8 -1013 L-994.8 -1013 L-993.8 -1012 L-992.8 -1012 L-991.9 -1012 L-990.9 -1012 L-989.9 -1012 L-988.9 -1012 L-987.9 -1012 L-988 -1011 L-988 -1010 L-988 -1009 L-988 -1008 L-988 -1008 L-988 -1007 L-988 -1006 L-988.1 -1005 L-988.1 -1004 L-988.1 -1003 L-988.1 -1002 L-988.1 -1001 L-988.1 -999.7 L-988.1 -998.7 L-988.2 -997.7 L-988.2 -996.8 L-988.2 -995.8 L-988.2 -994.8 L-988.2 -993.8 L-988.2 -992.8 L-988.2 -991.9 L-988.3 -990.9 L-988.3 -989.9 L-988.3 -988.9 L-988.3 -988 Z " />
<path stroke="rgb(0,0,0)" stroke-opacity="1" fill="rgb(255,255,255)" fill-opacity="1" d="M-209.1 -319.6 L-210.1 -317.9 L-211.2 -316.3 L-212.5 -314.8 L-213.8 -313.4 L-215.3 -312.1 L-216.8 -310.9 L-218.5 -309.8 L-220.2 -308.9 L-222 -308.1 L-223.8 -307.5 L-225.7 -307 L-227.7 -306.7 L-229.6 -306.5 L-231.6 -306.5 L-233.5 -306.6 L-235.4 -306.9 L-237.3 -307.3 L-239.2 -307.9 L-241 -308.7 L-242.8 -309.5 L-244.4 -310.6 L-246 -311.7 L-247.5 -313 L-248.9 -314.3 L-250.2 -315.8 L-251.3 -317.4 L-252.3 -319.1 L-253.2 -320.8 L-254 -322.6 L-254.6 -324.5 L-255 -326.4 L-255.3 -328.3 L-255.4 -330.3 L-255.4 -332.2 L-255.2 -334.2 L-254.9 -336.1 L-254.4 -338 L-253.8 -339.8 L-253 -341.6 L-252.1 -343.4 L-251.1 -345 L-249.9 -346.6 L-248.6 -348 L-247.2 -349.4 L-245.7 -350.6 L-244.1 -351.8 L-242.4 -352.7 L-240.6 -353.6 L-238.8 -354.3 L-237 -354.9 L-235 -355.3 L-233.1 -355.5 L-231.2 -355.6 L-229.2 -355.6 L-227.3 -355.4 L-225.3 -355 L-223.4 -354.5 L-221.6 -353.8 L-219.8 -353 L-218.1 -352.1 L-216.5 -351 L-215 -349.8 L-213.5 -348.5 L-212.2 -347 L-211 -345.5 L-209.9 -343.9 L-208.9 -342.2 L-208.1 -340.4 L-207.5 -338.5 L-206.9 -336.7 L-206.6 -334.7 L-206.3 -332.8 L-206.3 -330.8 L-206.4 -328.9 L-206.6 -327 L-207 -325 L-207.6 -323.2 L-208.3 -321.3 L-209.1 -319.6 Z " />
<path stroke="rgb(0,0,0)" stroke-opacity="1" fill="rgb(255,255,255)" fill-opacity="1" d="M-788.3 -988 L-789.3 -988 L-790.3 -988 L-791.2 -988 L-792.2 -988 L-793.2 -988 L-794.2 -988 L-795.1 -988 L-796.1 -988.1 L-797.1 -988.1 L-798.1 -988.1 L-799.1 -988.1 L-800 -988.1 L-801 -988.1 L-802 -988.1 L-803 -988.2 L-803.9 -988.2 L-804.9 -988.2 L-805.9 -988.2 L-806.9 -988.2 L-807.9 -988.2 L-808.8 -988.2 L-809.8 -988.3 L-810.8 -988.3 L-811.8 -988.3 L-812.8 -988.3 L-812.7 -989.3 L-812.7 -990.3 L-812.7 -991.2 L-812.7 -992.2 L-812.7 -993.2 L-812.7 -994.2 L-812.7 -995.1 L-812.6 -996.1 L-812.6 -997.1 L-812.6 -998.1 L-812.6 -999.1 L-812.6 -1000 L-812.6 -1001 L-812.6 -1002 L-812.5 -1003 L-812.5 -1004 L-812.5 -1005 L-812.5 -1006 L-812.5 -1007 L-812.5 -1008 L-812.5 -1009 L-812.5 -1010 L-812.4 -1011 L-812.4 -1012 L-812.4 -1013 L-811.4 -1013 L-810.5 -1013 L-809.5 -1013 L-808.5 -1013 L-807.5 -1013 L-806.5 -1013 L-805.6 -1013 L-804.6 -1013 L-803.6 -1013 L-802.6 -1013 L-801.6 -1013 L-800.7 -1013 L-799.7 -1013 L-798.7 -1013 L-797.7 -1013 L-796.8 -1013 L-795.8 -1013 L-794.8 -1013 L-793.8 -1012 L-792.8 -1012 L-791.9 -1012 L-790.9 -1012 L-789.9 -1012 L-788.9 -1012 L-787.9 -1012 L-788 -1011 L-788 -1010 L-788 -1009 L-788 -1008 L-788 -1008 L-788 -1007 L-788 -1006 L-788.1 -1005 L-788.1 -1004 L-788.1 -1003 L-788.1 -1002 L-788.1 -1001 L-788.1 -999.7 L-788.1 -998.7 L-788.2 -997.7 L-788.2 -996.8 L-788.2 -995.8 L-788.2 -994.8 L-788.2 -993.8 L-788.2 -992.8 L-788.2 -991.9 L-788.3 -990.9 L-788.3 -989.9 L-788.3 -988.9 L-788.3 -988 Z " />
<path stroke="rgb(0,0,0)" stroke-opacity="1" fill="rgb(255,255,255)" fill-opacity="1" d="M-45.82 -340.6 L-47.45 -339.5 L-49.16 -338.6 L-50.94 -337.8 L-52.78 -337.1 L-54.67 -336.6 L-56.59 -336.2 L-58.53 -336 L-60.49 -336 L-62.44 -336.1 L-64.38 -336.3 L-66.29 -336.7 L-68.16 -337.3 L-69.98 -338 L-71.74 -338.9 L-73.43 -339.8 L-75.03 -341 L-76.54 -342.2 L-77.95 -343.6 L-79.24 -345 L-80.42 -346.6 L-81.46 -348.3 L-82.37 -350 L-83.14 -351.8 L-83.77 -353.6 L-84.24 -355.5 L-84.57 -357.5 L-84.73 -359.4 L-84.75 -361.4 L-84.61 -363.3 L-84.31 -365.2 L-83.86 -367.1 L-83.26 -369 L-82.52 -370.8 L-81.63 -372.6 L-80.61 -374.2 L-79.46 -375.8 L-78.19 -377.3 L-76.8 -378.7 L-75.31 -379.9 L-73.72 -381.1 L-72.05 -382.1 L-70.3 -383 L-68.49 -383.7 L-66.63 -384.3 L-64.72 -384.7 L-62.79 -385 L-60.84 -385.1 L-58.88 -385.1 L-56.94 -384.9 L-55.01 -384.6 L-53.12 -384.1 L-51.27 -383.5 L-49.47 -382.7 L-47.75 -381.8 L-46.1 -380.7 L-44.54 -379.5 L-43.09 -378.2 L-41.73 -376.8 L-40.5 -375.3 L-39.39 -373.7 L-38.41 -372 L-37.57 -370.2 L-36.87 -368.4 L-36.32 -366.5 L-35.92 -364.6 L-35.68 -362.7 L-35.58 -360.7 L-35.65 -358.8 L-35.87 -356.8 L-36.24 -354.9 L-36.76 -353 L-37.44 -351.2 L-38.25 -349.4 L-39.21 -347.7 L-40.29 -346.1 L-41.5 -344.6 L-42.84 -343.1 L-44.28 -341.8 L-45.82 -340.6 Z " />
<path stroke="rgb(0,0,0)" stroke-opacity="1" fill="rgb(255,255,255)" fill-opacity="1" d="M-588.3 -988 L-589.3 -988 L-590.3 -988 L-591.2 -988 L-592.2 -988 L-593.2 -988 L-594.2 -988 L-595.1 -988 L-596.1 -988.1 L-597.1 -988.1 L-598.1 -988.1 L-599.1 -988.1 L-600 -988.1 L-601 -988.1 L-602 -988.1 L-603 -988.2 L-603.9 -988.2 L-604.9 -988.2 L-605.9 -988.2 L-606.9 -988.2 L-607.9 -988.2 L-608.8 -988.2 L-609.8 -988.3 L-610.8 -988.3 L-611.8 -988.3 L-612.8 -988.3 L-612.7 -989.3 L-612.7 -990.3 L-612.7 -991.2 L-612.7 -992.2 L-612.7 -993.2 L-612.7 -994.2 L-612.7 -995.1 L-612.6 -996.1 L-612.6 -997.1 L-612.6 -998.1 L-612.6 -999.1 L-612.6 -1000 L-612.6 -1001 L-612.6 -1002 L-612.5 -1003 L-612.5 -1004 L-612.5 -1005 L-612.5 -1006 L-612.5 -1007 L-612.5 -1008 L-612.5 -1009 L-612.5 -1010 L-612.4 -1011 L-612.4 -1012 L-612.4 -1013 L-611.4 -1013 L-610.5 -1013 L-609.5 -1013 L-608.5 -1013 L-607.5 -1013 L-606.5 -1013 L-605.6 -1013 L-604.6 -1013 L-603.6 -1013 L-602.6 -1013 L-601.6 -1013 L-600.7 -1013 L-599.7 -1013 L-598.7 -1013 L-597.7 -1013 L-596.8 -1013 L-595.8 -1013 L-594.8 -1013 L-593.8 -1012 L-592.8 -1012 L-591.9 -1012 L-590.9 -1012 L-589.9 -1012 L-588.9 -1012 L-587.9 -1012 L-588 -1011 L-588 -1010 L-588 -1009 L-588 -1008 L-588 -1008 L-588 -1007 L-588 -1006 L-588.1 -1005 L-588.1 -1004 L-588.1 -1003 L-588.1 -1002 L-588.1 -1001 L-588.1 -999.7 L-588.1 -998.7 L-588.2 -997.7 L-588.2 -996.8 L-588.2 -995.8 L-588.2 -994.8 L-588.2 -993.8 L-588.2 -992.8 L-588.2 -991.9 L-588.3 -990.9 L-588.3 -989.9 L-588.3 -988.9 L-588.3 -988 Z " />
<path stroke="rgb(0,0,0)" stroke-opacity="1" fill="rgb(255,255,255)" fill-opacity="1" d="M124.3 -359.2 L122.4 -358.7 L120.5 -358.4 L118.5 -358.3 L116.6 -358.3 L114.6 -358.5 L112.7 -358.8 L110.8 -359.3 L108.9 -359.9 L107.1 -360.6 L105.4 -361.5 L103.7 -362.6 L102.2 -363.8 L100.7 -365 L99.35 -366.4 L98.1 -368 L96.98 -369.6 L95.98 -371.2 L95.13 -373 L94.41 -374.8 L93.85 -376.7 L93.43 -378.6 L93.17 -380.5 L93.06 -382.5 L93.11 -384.4 L93.31 -386.4 L93.67 -388.3 L94.18 -390.2 L94.84 -392 L95.64 -393.8 L96.58 -395.5 L97.65 -397.2 L98.85 -398.7 L100.2 -400.2 L101.6 -401.5 L103.1 -402.7 L104.8 -403.8 L106.5 -404.8 L108.2 -405.6 L110.1 -406.3 L112 -406.8 L113.9 -407.2 L115.8 -407.4 L117.8 -407.5 L119.7 -407.4 L121.7 -407.1 L123.6 -406.7 L125.5 -406.2 L127.3 -405.5 L129.1 -404.7 L130.7 -403.7 L132.4 -402.6 L133.9 -401.4 L135.3 -400 L136.6 -398.5 L137.8 -397 L138.8 -395.4 L139.8 -393.6 L140.6 -391.8 L141.2 -390 L141.7 -388.1 L142 -386.2 L142.2 -384.2 L142.2 -382.3 L142.1 -380.3 L141.8 -378.4 L141.4 -376.5 L140.8 -374.6 L140.1 -372.8 L139.2 -371 L138.2 -369.4 L137.1 -367.8 L135.8 -366.3 L134.4 -364.9 L133 -363.6 L131.4 -362.5 L129.7 -361.4 L128 -360.5 L126.2 -359.8 L124.3 -359.2 Z " />
<path stroke="rgb(0,0,0)" stroke-opacity="1" fill="rgb(255,255,255)" fill-opacity="1" d="M-388.3 -988 L-389.3 -988 L-390.3 -988 L-391.2 -988 L-392.2 -988 L-393.2 -988 L-394.2 -988 L-395.1 -988 L-396.1 -988.1 L-397.1 -988.1 L-398.1 -988.1 L-399.1 -988.1 L-400 -988.1 L-401 -988.1 L-402 -988.1 L-403 -988.2 L-403.9 -988.2 L-404.9 -988.2 L-405.9 -988.2 L-406.9 -988.2 L-407.9 -988.2 L-408.8 -988.2 L-409.8 -988.3 L-410.8 -988.3 L-411.8 -988.3 L-412.8 -988.3 L-412.7 -989.3 L-412.7 -990.3 L-412.7 -991.2 L-412.7 -992.2 L-412.7 -993.2 L-412.7 -994.2 L-412.7 -995.1 L-412.6 -996.1 L-412.6 -997.1 L-412.6 -998.1 L-412.6 -999.1 L-412.6 -1000 L-412.6 -1001 L-412.6 -1002 L-412.5 -1003 L-412.5 -1004 L-412.5 -1005 L-412.5 -1006 L-412.5 -1007 L-412.5 -1008 L-412.5 -1009 L-412.5 -1010 L-412.4 -1011 L-412.4 -1012 L-412.4 -1013 L-411.4 -1013 L-410.5 -1013 L-409.5 -1013 L-408.5 -1013 L-407.5 -1013 L-406.5 -1013 L-405.6 -1013 L-404.6 -1013 L-403.6 -1013 L-402.6 -1013 L-401.6 -1013 L-400.7 -1013 L-399.7 -1013 L-398.7 -1013 L-397.7 -1013 L-396.8 -1013 L-395.8 -1013 L-394.8 -1013 L-393.8 -1012 L-392.8 -1012 L-391.9 -1012 L-390.9 -1012 L-389.9 -1012 L-388.9 -1012 L-387.9 -1012 L-388 -1011 L-388 -1010 L-388 -1009 L-388 -1008 L-388 -1008 L-388 -1007 L-388 -1006 L-388.1 -1005 L-388.1 -1004 L-388.1 -1003 L-388.1 -1002 L-388.1 -1001 L-388.1 -999.7 L-388.1 -998.7 L-388.2 -997.7 L-388.2 -996.8 L-388.2 -995.8 L-388.2 -994.8 L-388.2 -993.8 L-388.2 -992.8 L-388.2 -991.9 L-388.3 -990.9 L-388.3 -989.9 L-388.3 -988.9 L-388.3 -988 Z " />
<path stroke="rgb(0,0,0)" stroke-opacity="1" fill="rgb(255,255,255)" fill-opacity="1" d="M-309.1 -219.6 L-310.1 -217.9 L-311.2 -216.3 L-312.5 -214.8 L-313.8 -213.4 L-315.3 -212.1 L-316.8 -210.9 L-318.5 -209.8 L-320.2 -208.9 L-322 -208.1 L-323.8 -207.5 L-325.7 -207 L-327.7 -206.7 L-329.6 -206.5 L-331.6 -206.5 L-333.5 -206.6 L-335.4 -206.9 L-337.3 -207.3 L-339.2 -207.9 L-341 -208.7 L-342.8 -209.5 L-344.4 -210.6 L-346 -211.7 L-347.5 -213 L-348.9 -214.3 L-350.2 -215.8 L-351.3 -217.4 L-352.3 -219.1 L-353.2 -220.8 L-354 -222.6 L-354.6 -224.5 L-355 -226.4 L-355.3 -228.3 L-355.4 -230.3 L-355.4 -232.2 L-355.2 -234.2 L-354.9 -236.1 L-354.4 -238 L-353.8 -239.8 L-353 -241.6 L-352.1 -243.4 L-351.1 -245 L-349.9 -246.6 L-348.6 -248 L-347.2 -249.4 L-345.7 -250.6 L-344.1 -251.8 L-342.4 -252.7 L-340.6 -253.6 L-338.8 -254.3 L-337 -254.9 L-335 -255.3 L-333.1 -255.5 L-331.2 -255.6 L-329.2 -255.6 L-327.3 -255.4 L-325.3 -255 L-323.4 -254.5 L-321.6 -253.8 L-319.8 -253 L-318.1 -252.1 L-316.5 -251 L-315 -249.8 L-313.5 -248.5 L-312.2 -247 L-311 -245.5 L-309.9 -243.9 L-308.9 -242.2 L-308.1 -240.4 L-307.5 -238.5 L-306.9 -236.7 L-306.6 -234.7 L-306.3 -232.8 L-306.3 -230.8 L-306.4 -228.9 L-306.6 -227 L-307 -225 L-307.6 -223.2 L-308.3 -221.3 L-309.1 -219.6 Z " />
<path stroke="rgb(0,0,0)" stroke-opacity="1" fill="rgb(255,255,255)" fill-opacity="1" d="M-888.3 -888 L-889.3 -888 L-890.3 -888 L-891.2 -888 L-892.2 -888 L-893.2 -888 L-894.2 -888 L-895.1 -888 L-896.1 -888.1 L-897.1 -888.1 L-898.1 -888.1 L-899.1 -888.1 L-900 -888.1 L-901 -888.1 L-902 -888.1 L-903 -888.2 L-903.9 -888.2 L-904.9 -888.2 L-905.9 -888.2 L-906.9 -888.2 L-907.9 -888.2 L-908.8 -888.2 L-909.8 -888.3 L-910.8 -888.3 L-911.8 -888.3 L-912.8 -888.3 L-912.7 -889.3 L-912.7 -890.3 L-912.7 -891.2 L-912.7 -892.2 L-912.7 -893.2 L-912.7 -894.2 L-912.7 -895.1 L-912.6 -896.1 L-912.6 -897.1 L-912.6 -898.1 L-912.6 -899.1 L-912.6 -900 L-912.6 -901 L-912.6 -902 L-912.5 -903 L-912.5 -904 L-912.5 -904.9 L-912.5 -905.9 L-912.5 -906.9 L-912.5 -907.9 L-912.5 -908.8 L-912.5 -909.8 L-912.4 -910.8 L-912.4 -911.8 L-912.4 -912.8 L-911.4 -912.7 L-910.5 -912.7 L-909.5 -912.7 L-908.5 -912.7 L-907.5 -912.7 L-906.5 -912.7 L-905.6 -912.7 L-904.6 -912.6 L-903.6 -912.6 L-902.6 -912.6 L-901.6 -912.6 L-900.7 -912.6 L-899.7 -912.6 L-898.7 -912.6 L-897.7 -912.6 L-896.8 -912.5 L-895.8 -912.5 L-894.8 -912.5 L-893.8 -912.5 L-892.8 -912.5 L-891.9 -912.5 L-890.9 -912.5 L-889.9 -912.4 L-888.9 -912.4 L-887.9 -912.4 L-888 -911.4 L-888 -910.5 L-888 -909.5 L-888 -908.5 L-888 -907.5 L-888 -906.5 L-888 -905.6 L-888.1 -904.6 L-888.1 -903.6 L-888.1 -902.6 L-888.1 -901.7 L-888.1 -900.7 L-888.1 -899.7 L-888.1 -898.7 L-888.2 -897.7 L-888.2 -896.8 L-888.2 -895.8 L-888.2 -894.8 L-888.2 -893.8 L-888.2 -892.8 L-888.2 -891.9 L-888.3 -890.9 L-888.3 -889.9 L-888.3 -888.9 L-888.3 -888 Z " />
<path stroke="rgb(0,0,0)" stroke-opacity="1" fill="rgb(255,255,255)" fill-opacity="1" d="M-145.8 -240.6 L-147.4 -239.5 L-149.2 -238.6 L-150.9 -237.8 L-152.8 -237.1 L-154.7 -236.6 L-156.6 -236.2 L-158.5 -236 L-160.5 -236 L-162.4 -236.1 L-164.4 -236.3 L-166.3 -236.7 L-168.2 -237.3 L-170 -238 L-171.7 -238.9 L-173.4 -239.8 L-175 -241 L-176.5 -242.2 L-177.9 -243.6 L-179.2 -245 L-180.4 -246.6 L-181.5 -248.3 L-182.4 -250 L-183.1 -251.8 L-183.8 -253.6 L-184.2 -255.5 L-184.6 -257.5 L-184.7 -259.4 L-184.7 -261.4 L-184.6 -263.3 L-184.3 -265.2 L-183.9 -267.1 L-183.3 -269 L-182.5 -270.8 L-181.6 -272.6 L-180.6 -274.2 L-179.5 -275.8 L-178.2 -277.3 L-176.8 -278.7 L-175.3 -279.9 L-173.7 -281.1 L-172.1 -282.1 L-170.3 -283 L-168.5 -283.7 L-166.6 -284.3 L-164.7 -284.7 L-162.8 -285 L-160.8 -285.1 L-158.9 -285.1 L-156.9 -284.9 L-155 -284.6 L-153.1 -284.1 L-151.3 -283.5 L-149.5 -282.7 L-147.7 -281.8 L-146.1 -280.7 L-144.5 -279.5 L-143.1 -278.2 L-141.7 -276.8 L-140.5 -275.3 L-139.4 -273.7 L-138.4 -272 L-137.6 -270.2 L-136.9 -268.4 L-136.3 -266.5 L-135.9 -264.6 L-135.7 -262.7 L-135.6 -260.7 L-135.6 -258.8 L-135.9 -256.8 L-136.2 -254.9 L-136.8 -253 L-137.4 -251.2 L-138.3 -249.4 L-139.2 -247.7 L-140.3 -246.1 L-141.5 -244.6 L-142.8 -243.1 L-144.3 -241.8 L-145.8 -240.6 Z " />
<path stroke="rgb(0,0,0)" stroke-opacity="1" fill="rgb(255,255,255)" fill-opacity="1" d="M-688.3 -888 L-689.3 -888 L-690.3 -888 L-691.2 -888 L-692.2 -888 L-693.2 -888 L-694.2 -888 L-695.1 -888 L-696.1 -888.1 L-697.1 -888.1 L-698.1 -888.1 L-699.1 -888.1 L-700 -888.1 L-701 -888.1 L-702 -888.1 L-703 -888.2 L-703.9 -888.2 L-704.9 -888.2 L-705.9 -888.2 L-706.9 -888.2 L-707.9 -888.2 L-708.8 -888.2 L-709.8 -888.3 L-710.8 -888.3 L-711.8 -888.3 L-712.8 -888.3 L-712.7 -889.3 L-712.7 -890.3 L-712.7 -891.2 L-712.7 -892.2 L-712.7 -893.2 L-712.7 -894.2 L-712.7 -895.1 L-712.6 -896.1 L-712.6 -897.1 L-712.6 -898.1 L-712.6 -899.1 L-712.6 -900 L-712.6 -901 L-712.6 -902 L-712.5 -903 L-712.5 -904 L-712.5 -904.9 L-712.5 -905.9 L-712.5 -906.9 L-712.5 -907.9 L-712.5 -908.8 L-712.5 -909.8 L-712.4 -910.8 L-712.4 -911.8 L-712.4 -912.8 L-711.4 -912.7 L-710.5 -912.7 L-709.5 -912.7 L-708.5 -912.7 L-707.5 -912.7 L-706.5 -912.7 L-705.6 -912.7 L-704.6 -912.6 L-703.6 -912.6 L-702.6 -912.6 L-701.6 -912.6 L-700.7 -912.6 L-699.7 -912.6 L-698.7 -912.6 L-697.7 -912.6 L-696.8 -912.5 L-695.8 -912.5 L-694.8 -912.5 L-693.8 -912.5 L-692.8 -912.5 L-691.9 -912.5 L-690.9 -912.5 L-689.9 -912.4 L-688.9 -912.4 L-687.9 -912.4 L-688 -911.4 L-688 -910.5 L-688 -909.5 L-688 -908.5 L-688 -907.5 L-688 -906.5 L-688 -905.6 L-688.1 -904.6 L-688.1 -903.6 L-688.1 -902.6 L-688.1 -901.7 L-688.1 -900.7 L-688.1 -899.7 L-688.1 -898.7 L-688.2 -897.7 L-688.2 -896.8 L-688.2 -895.8 L-688.2 -894.8 L-688.2 -893.8 L-688.2 -892.8 L-688.2 -891.9 L-688.3 -890.9 L-688.3 -889.9 L-688.3 -888.9 L-688.3 -888 Z " />
<path stroke="rgb(0,0,0)" stroke-opacity="1" fill="rgb(255,255,255)" fill-opacity="1" d="M24.3 -259.2 L22.4 -258.7 L20.47 -258.4 L18.52 -258.3 L16.56 -258.3 L14.62 -258.5 L12.69 -258.8 L10.79 -259.3 L8.933 -259.9 L7.133 -260.6 L5.4 -261.5 L3.745 -262.6 L2.177 -263.8 L0.7076 -265 L-0.6549 -266.4 L-1.902 -268 L-3.025 -269.6 L-4.017 -271.2 L-4.873 -273 L-5.585 -274.8 L-6.151 -276.7 L-6.567 -278.6 L-6.829 -280.5 L-6.937 -282.5 L-6.889 -284.4 L-6.686 -286.4 L-6.329 -288.3 L-5.82 -290.2 L-5.163 -292 L-4.362 -293.8 L-3.421 -295.5 L-2.347 -297.2 L-1.147 -298.7 L0.1721 -300.2 L1.602 -301.5 L3.133 -302.7 L4.756 -303.8 L6.461 -304.8 L8.236 -305.6 L10.07 -306.3 L11.95 -306.8 L13.87 -307.2 L15.82 -307.4 L17.77 -307.5 L19.72 -307.4 L21.66 -307.1 L23.58 -306.7 L25.46 -306.2 L27.29 -305.5 L29.05 -304.7 L30.75 -303.7 L32.36 -302.6 L33.88 -301.4 L35.3 -300 L36.6 -298.5 L37.79 -297 L38.85 -295.4 L39.77 -293.6 L40.56 -291.8 L41.2 -290 L41.69 -288.1 L42.03 -286.2 L42.21 -284.2 L42.24 -282.3 L42.12 -280.3 L41.84 -278.4 L41.4 -276.5 L40.82 -274.6 L40.09 -272.8 L39.22 -271 L38.21 -269.4 L37.07 -267.8 L35.81 -266.3 L34.44 -264.9 L32.96 -263.6 L31.38 -262.5 L29.71 -261.4 L27.97 -260.5 L26.16 -259.8 L24.3 -259.2 Z " />
<path stroke="rgb(0,0,0)" stroke-opacity="1" fill="rgb(255,255,255)" fill-opacity="1" d="M-488.3 -888 L-489.3 -888 L-490.3 -888 L-491.2 -888 L-492.2 -888 L-493.2 -888 L-494.2 -888 L-495.1 -888 L-496.1 -888.1 L-497.1 -888.1 L-498.1 -888.1 L-499.1 -888.1 L-500 -888.1 L-501 -888.1 L-502 -888.1 L-503 -888.2 L-503.9 -888.2 L-504.9 -888.2 L-505.9 -888.2 L-506.9 -888.2 L-507.9 -888.2 L-508.8 -888.2 L-509.8 -888.3 L-510.8 -888.3 L-511.8 -888.3 L-512.8 -888.3 L-512.7 -889.3 L-512.7 -890.3 L-512.7 -891.2 L-512.7 -892.2 L-512.7 -893.2 L-512.7 -894.2 L-512.7 -895.1 L-512.6 -896.1 L-512.6 -897.1 L-512.6 -898.1 L-512.6 -899.1 L-512.6 -900 L-512.6 -901 L-512.6 -902 L-512.5 -903 L-512.5 -904 L-512.5 -904.9 L-512.5 -905.9 L-512.5 -906.9 L-512.5 -907.9 L-512.5 -908.8 L-512.5 -909.8 L-512.4 -910.8 L-512.4 -911.8 L-512.4 -912.8 L-511.4 -912.7 L-510.5 -912.7 L-509.5 -912.7 L-508.5 -912.7 L-507.5 -912.7 L-506.5 -912.7 L-505.6 -912.7 L-504.6 -912.6 L-503.6 -912.6 L-502.6 -912.6 L-501.6 -912.6 L-500.7 -912.6 L-499.7 -912.6 L-498.7 -912.6 L-497.7 -912.6 L-496.8 -912.5 L-495.8 -912.5 L-494.8 -912.5 L-493.8 -912.5 L-492.8 -912.5 L-491.9 -912.5 L-490.9 -912.5 L-489.9 -912.4 L-488.9 -912.4 L-487.9 -912.4 L-488 -911.4 L-488 -910.5 L-488 -909.5 L-488 -908.5 L-488 -907.5 L-488 -906.5 L-488 -905.6 L-488.1 -904.6 L-488.1 -903.6 L-488.1 -902.6 L-488.1 -901.7 L-488.1 -900.7 L-488.1 -899.7 L-488.1 -898.7 L-488.2 -897.7 L-488.2 -896.8 L-488.2 -895.8 L-488.2 -894.8 L-488.2 -893.8 L-488.2 -892.8 L-488.2 -891.9 L-488.3 -890.9 L-488.3 -889.9 L-488.3 -888.9 L-488.3 -888 Z " />
<path stroke="rgb(0,0,0)" stroke-opacity="1" fill="rgb(255,255,255)" fill-opacity="1" d="M208 -270.2 L206.1 -270.1 L204.1 -270.2 L202.2 -270.4 L200.3 -270.8 L198.4 -271.3 L196.5 -272 L194.7 -272.8 L193 -273.7 L191.4 -274.8 L189.9 -276 L188.4 -277.4 L187.1 -278.8 L185.9 -280.3 L184.8 -282 L183.9 -283.7 L183.1 -285.5 L182.4 -287.3 L181.9 -289.2 L181.5 -291.1 L181.3 -293.1 L181.3 -295 L181.4 -297 L181.6 -298.9 L182 -300.8 L182.6 -302.7 L183.3 -304.5 L184.2 -306.3 L185.1 -308 L186.3 -309.6 L187.5 -311.1 L188.9 -312.5 L190.3 -313.8 L191.9 -315 L193.5 -316 L195.3 -316.9 L197.1 -317.7 L198.9 -318.3 L200.8 -318.8 L202.7 -319.1 L204.7 -319.3 L206.6 -319.3 L208.6 -319.2 L210.5 -318.9 L212.4 -318.4 L214.3 -317.8 L216.1 -317.1 L217.9 -316.2 L219.5 -315.2 L221.1 -314 L222.6 -312.8 L224 -311.4 L225.2 -309.9 L226.4 -308.3 L227.4 -306.6 L228.3 -304.9 L229 -303.1 L229.6 -301.2 L230 -299.3 L230.3 -297.4 L230.5 -295.4 L230.4 -293.5 L230.3 -291.5 L229.9 -289.6 L229.4 -287.7 L228.8 -285.8 L228 -284 L227.1 -282.3 L226.1 -280.7 L224.9 -279.1 L223.6 -277.6 L222.2 -276.3 L220.6 -275.1 L219 -273.9 L217.3 -273 L215.6 -272.1 L213.8 -271.4 L211.9 -270.9 L210 -270.5 L208 -270.2 Z " />
<path stroke="rgb(0,0,0)" stroke-opacity="1" fill="rgb(255,255,255)" fill-opacity="1" d="M-988.3 -788 L-989.3 -788 L-990.3 -788 L-991.2 -788 L-992.2 -788 L-993.2 -788 L-994.2 -788 L-995.1 -788 L-996.1 -788.1 L-997.1 -788.1 L-998.1 -788.1 L-999.1 -788.1 L-1000 -788.1 L-1001 -788.1 L-1002 -788.1 L-1003 -788.2 L-1004 -788.2 L-1005 -788.2 L-1006 -788.2 L-1007 -788.2 L-1008 -788.2 L-1009 -788.2 L-1010 -788.3 L-1011 -788.3 L-1012 -788.3 L-1013 -788.3 L-1013 -789.3 L-1013 -790.3 L-1013 -791.2 L-1013 -792.2 L-1013 -793.2 L-1013 -794.2 L-1013 -795.1 L-1013 -796.1 L-1013 -797.1 L-1013 -798.1 L-1013 -799.1 L-1013 -800 L-1013 -801 L-1013 -802 L-1013 -803 L-1013 -804 L-1013 -804.9 L-1013 -805.9 L-1012 -806.9 L-1012 -807.9 L-1012 -808.8 L-1012 -809.8 L-1012 -810.8 L-1012 -811.8 L-1012 -812.8 L-1011 -812.7 L-1010 -812.7 L-1009 -812.7 L-1008 -812.7 L-1008 -812.7 L-1007 -812.7 L-1006 -812.7 L-1005 -812.6 L-1004 -812.6 L-1003 -812.6 L-1002 -812.6 L-1001 -812.6 L-999.7 -812.6 L-998.7 -812.6 L-997.7 -812.6 L-996.8 -812.5 L-995.8 -812.5 L-994.8 -812.5 L-993.8 -812.5 L-992.8 -812.5 L-991.9 -812.5 L-990.9 -812.5 L-989.9 -812.4 L-988.9 -812.4 L-987.9 -812.4 L-988 -811.4 L-988 -810.5 L-988 -809.5 L-988 -808.5 L-988 -807.5 L-988 -806.5 L-988 -805.6 L-988.1 -804.6 L-988.1 -803.6 L-988.1 -802.6 L-988.1 -801.7 L-988.1 -800.7 L-988.1 -799.7 L-988.1 -798.7 L-988.2 -797.7 L-988.2 -796.8 L-988.2 -795.8 L-988.2 -794.8 L-988.2 -793.8 L-988.2 -792.8 L-988.2 -791.9 L-988.3 -790.9 L-988.3 -789.9 L-988.3 -788.9 L-988.3 -788 Z " />
<path stroke="rgb(0,0,0)" stroke-opacity="1" fill="rgb(255,255,255)" fill-opacity="1" d="M-245.8 -140.6 L-247.4 -139.5 L-249.2 -138.6 L-250.9 -137.8 L-252.8 -137.1 L-254.7 -136.6 L-256.6 -136.2 L-258.5 -136 L-260.5 -136 L-262.4 -136.1 L-264.4 -136.3 L-266.3 -136.7 L-268.2 -137.3 L-270 -138 L-271.7 -138.9 L-273.4 -139.8 L-275 -141 L-276.5 -142.2 L-277.9 -143.6 L-279.2 -145 L-280.4 -146.6 L-281.5 -148.3 L-282.4 -150 L-283.1 -151.8 L-283.8 -153.6 L-284.2 -155.5 L-284.6 -157.5 L-284.7 -159.4 L-284.7 -161.4 L-284.6 -163.3 L-284.3 -165.2 L-283.9 -167.1 L-283.3 -169 L-282.5 -170.8 L-281.6 -172.6 L-280.6 -174.2 L-279.5 -175.8 L-278.2 -177.3 L-276.8 -178.7 L-275.3 -179.9 L-273.7 -181.1 L-272.1 -182.1 L-270.3 -183 L-268.5 -183.7 L-266.6 -184.3 L-264.7 -184.7 L-262.8 -185 L-260.8 -185.1 L-258.9 -185.1 L-256.9 -184.9 L-255 -184.6 L-253.1 -184.1 L-251.3 -183.5 L-249.5 -182.7 L-247.7 -181.8 L-246.1 -180.7 L-244.5 -179.5 L-243.1 -178.2 L-241.7 -176.8 L-240.5 -175.3 L-239.4 -173.7 L-238.4 -172 L-237.6 -170.2 L-236.9 -168.4 L-236.3 -166.5 L-235.9 -164.6 L-235.7 -162.7 L-235.6 -160.7 L-235.6 -158.8 L-235.9 -156.8 L-236.2 -154.9 L-236.8 -153 L-237.4 -151.2 L-238.3 -149.4 L-239.2 -147.7 L-240.3 -146.1 L-241.5 -144.6 L-242.8 -143.1 L-244.3 -141.8 L-245.8 -140.6 Z " />
<path stroke="rgb(0,0,0)" stroke-opacity="1" fill="rgb(255,255,255)" fill-opacity="1" d="M-788.3 -788 L-789.3 -788 L-790.3 -788 L-791.2 -788 L-792.2 -788 L-793.2 -788 L-794.2 -788 L-795.1 -788 L-796.1 -788.1 L-797.1 -788.1 L-798.1 -788.1 L-799.1 -788.1 L-800 -788.1 L-801 -788.1 L-802 -788.1 L-803 -788.2 L-803.9 -788.2 L-804.9 -788.2 L-805.9 -788.2 L-806.9 -788.2 L-807.9 -788.2 L-808.8 -788.2 L-809.8 -788.3 L-810.8 -788.3 L-811.8 -788.3 L-812.8 -788.3 L-812.7 -789.3 L-812.7 -790.3 L-812.7 -791.2 L-812.7 -792.2 L-812.7 -793.2 L-812.7 -794.2 L-812.7 -795.1 L-812.6 -796.1 L-812.6 -797.1 L-812.6 -798.1 L-812.6 -799.1 L-812.6 -800 L-812.6 -801 L-812.6 -802 L-812.5 -803 L-812.5 -804 L-812.5 -804.9 L-812.5 -805.9 L-812.5 -806.9 L-812.5 -807.9 L-812.5 -808.8 L-812.5 -809.8 L-812.4 -810.8 L-812.4 -811.8 L-812.4 -812.8 L-811.4 -812.7 L-810.5 -812.7 L-809.5 -812.7 L-808.5 -812.7 L-807.5 -812.7 L-806.5 -812.7 L-805.6 -812.7 L-804.6 -812.6 L-803.6 -812.6 L-802.6 -812.6 L-801.6 -812.6 L-800.7 -812.6 L-799.7 -812.6 L-798.7 -812.6 L-797.7 -812.6 L-796.8 -812.5 L-795.8 -812.5 L-794.8 -812.5 L-793.8 -812.5 L-792.8 -812.5 L-791.9 -812.5 L-790.9 -812.5 L-789.9 -812.4 L-788.9 -812.4 L-787.9 -812.4 L-788 -811.4 L-788 -810.5 L-788 -809.5 L-788 -808.5 L-788 -807.5 L-788 -806.5 L-788 -805.6 L-788.1 -804.6 L-788.1 -803.6 L-788.1 -802.6 L-788.1 -801.7 L-788.1 -800.7 L-788.1 -799.7 L-788.1 -798.7 L-788.2 -797.7 L-788.2 -796.8 L-788.2 -795.8 L-788.2 -794.8 L-788.2 -793.8 L-788.2 -792.8 L-788.2 -791.9 L-788.3 -790.9 L-788.3 -789.9 L-788.3 -788.9 L-788.3 -788 Z " />
<path stroke="rgb(0,0,0)" stroke-opacity="1" fill="rgb(255,255,255)" fill-opacity="1" d="M-75.7 -159.2 L-77.6 -158.7 L-79.53 -158.4 L-81.48 -158.3 L-83.44 -158.3 L-85.38 -158.5 L-87.31 -158.8 L-89.21 -159.3 L-91.07 -159.9 L-92.87 -160.6 L-94.6 -161.5 L-96.26 -162.6 L-97.82 -163.8 L-99.29 -165 L-100.7 -166.4 L-101.9 -168 L-103 -169.6 L-104 -171.2 L-104.9 -173 L-105.6 -174.8 L-106.2 -176.7 L-106.6 -178.6 L-106.8 -180.5 L-106.9 -182.5 L-106.9 -184.4 L-106.7 -186.4 L-106.3 -188.3 L-105.8 -190.2 L-105.2 -192 L-104.4 -193.8 L-103.4 -195.5 L-102.3 -197.2 L-101.1 -198.7 L-99.83 -200.2 L-98.4 -201.5 L-96.87 -202.7 L-95.24 -203.8 L-93.54 -204.8 L-91.76 -205.6 L-89.93 -206.3 L-88.05 -206.8 L-86.13 -207.2 L-84.18 -207.4 L-82.23 -207.5 L-80.28 -207.4 L-78.34 -207.1 L-76.42 -206.7 L-74.54 -206.2 L-72.71 -205.5 L-70.95 -204.7 L-69.25 -203.7 L-67.64 -202.6 L-66.12 -201.4 L-64.7 -200 L-63.4 -198.5 L-62.21 -197 L-61.15 -195.4 L-60.23 -193.6 L-59.44 -191.8 L-58.8 -190 L-58.31 -188.1 L-57.97 -186.2 L-57.79 -184.2 L-57.76 -182.3 L-57.88 -180.3 L-58.16 -178.4 L-58.6 -176.5 L-59.18 -174.6 L-59.91 -172.8 L-60.78 -171 L-61.79 -169.4 L-62.93 -167.8 L-64.19 -166.3 L-65.56 -164.9 L-67.04 -163.6 L-68.62 -162.5 L-70.29 -161.4 L-72.03 -160.5 L-73.84 -159.8 L-75.7 -159.2 Z " />
<path stroke="rgb(0,0,0)" stroke-opacity="1" fill="rgb(255,255,255)" fill-opacity="1" d="M-588.3 -788 L-589.3 -788 L-590.3 -788 L-591.2 -788 L-592.2 -788 L-593.2 -788 L-594.2 -788 L-595.1 -788 L-596.1 -788.1 L-597.1 -788.1 L-598.1 -788.1 L-599.1 -788.1 L-600 -788.1 L-601 -788.1 L-602 -788.1 L-603 -788.2 L-603.9 -788.2 L-604.9 -788.2 L-605.9 -788.2 L-606.9 -788.2 L-607.9 -788.2 L-608.8 -788.2 L-609.8 -788.3 L-610.8 -788.3 L-611.8 -788.3 L-612.8 -788.3 L-612.7 -789.3 L-612.7 -790.3 L-612.7 -791.2 L-612.7 -792.2 L-612.7 -793.2 L-612.7 -794.2 L-612.7 -795.1 L-612.6 -796.1 L-612.6 -797.1 L-612.6 -798.1 L-612.6 -799.1 L-612.6 -800 L-612.6 -801 L-612.6 -802 L-612.5 -803 L-612.5 -804 L-612.5 -804.9 L-612.5 -805.9 L-612.5 -806.9 L-612.5 -807.9 L-612.5 -808.8 L-612.5 -809.8 L-612.4 -810.8 L-612.4 -811.8 L-612.4 -812.8 L-611.4 -812.7 L-610.5 -812.7 L-609.5 -812.7 L-608.5 -812.7 L-607.5 -812.7 L-606.5 -812.7 L-605.6 -812.7 L-604.6 -812.6 L-603.6 -812.6 L-602.6 -812.6 L-601.6 -812.6 L-600.7 -812.6 L-599.7 -812.6 L-598.7 -812.6 L-597.7 -812.6 L-596.8 -812.5 L-595.8 -812.5 L-594.8 -812.5 L-593.8 -812.5 L-592.8 -812.5 L-591.9 -812.5 L-590.9 -812.5 L-589.9 -812.4 L-588.9 -812.4 L-587.9 -812.4 L-588 -811.4 L-588 -810.5 L-588 -809.5 L-588 -808.5 L-588 -807.5 L-588 -806.5 L-588 -805.6 L-588.1 -804.6 L-588.1 -803.6 L-588.1 -802.6 L-588.1 -801.7 L-588.1 -800.7 L-588.1 -799.7 L-588.1 -798.7 L-588.2 -797.7 L-588.2 -796.8 L-588.2 -795.8 L-588.2 -794.8 L-588.2 -793.8 L-588.2 -792.8 L-588.2 -791.9 L-588.3 -790.9 L-588.3 -789.9 L-588.3 -788.9 L-588.3 -788 Z " />
<path stroke="rgb(0,0,0)" stroke-opacity="1" fill="rgb(255,255,255)" fill-opacity="1" d="M108 -170.2 L106.1 -170.1 L104.1 -170.2 L102.2 -170.4 L100.3 -170.8 L98.37 -171.3 L96.53 -172 L94.75 -172.8 L93.04 -173.7 L91.41 -174.8 L89.88 -176 L88.44 -177.4 L87.12 -178.8 L85.91 -180.3 L84.83 -182 L83.89 -183.7 L83.08 -185.5 L82.42 -187.3 L81.9 -189.2 L81.54 -191.1 L81.33 -193.1 L81.27 -195 L81.37 -197 L81.63 -198.9 L82.04 -200.8 L82.6 -202.7 L83.3 -204.5 L84.15 -206.3 L85.14 -208 L86.26 -209.6 L87.5 -211.1 L88.86 -212.5 L90.32 -213.8 L91.88 -215 L93.54 -216 L95.27 -216.9 L97.06 -217.7 L98.92 -218.3 L100.8 -218.8 L102.7 -219.1 L104.7 -219.3 L106.6 -219.3 L108.6 -219.2 L110.5 -218.9 L112.4 -218.4 L114.3 -217.8 L116.1 -217.1 L117.9 -216.2 L119.5 -215.2 L121.1 -214 L122.6 -212.8 L124 -211.4 L125.2 -209.9 L126.4 -208.3 L127.4 -206.6 L128.3 -204.9 L129 -203.1 L129.6 -201.2 L130 -199.3 L130.3 -197.4 L130.5 -195.4 L130.4 -193.5 L130.3 -191.5 L129.9 -189.6 L129.4 -187.7 L128.8 -185.8 L128 -184 L127.1 -182.3 L126.1 -180.7 L124.9 -179.1 L123.6 -177.6 L122.2 -176.3 L120.6 -175.1 L119 -173.9 L117.3 -173 L115.6 -172.1 L113.8 -171.4 L111.9 -170.9 L110 -170.5 L108 -170.2 Z " />
<path stroke="rgb(0,0,0)" stroke-opacity="1" fill="rgb(255,255,255)" fill-opacity="1" d="M-388.3 -788 L-389.3 -788 L-390.3 -788 L-391.2 -788 L-392.2 -788 L-393.2 -788 L-394.2 -788 L-395.1 -788 L-396.1 -788.1 L-397.1 -788.1 L-398.1 -788.1 L-399.1 -788.1 L-400 -788.1 L-401 -788.1 L-402 -788.1 L-403 -788.2 L-403.9 -788.2 L-404.9 -788.2 L-405.9 -788.2 L-406.9 -788.2 L-407.9 -788.2 L-408.8 -788.2 L-409.8 -788.3 L-410.8 -788.3 L-411.8 -788.3 L-412.8 -788.3 L-412.7 -789.3 L-412.7 -790.3 L-412.7 -791.2 L-412.7 -792.2 L-412.7 -793.2 L-412.7 -794.2 L-412.7 -795.1 L-412.6 -796.1 L-412.6 -797.1 L-412.6 -798.1 L-412.6 -799.1 L-412.6 -800 L-412.6 -801 L-412.6 -802 L-412.5 -803 L-412.5 -804 L-412.5 -804.9 L-412.5 -805.9 L-412.5 -806.9 L-412.5 -807.9 L-412.5 -808.8 L-412.5 -809.8 L-412.4 -810.8 L-412.4 -811.8 L-412.4 -812.8 L-411.4 -812.7 L-410.5 -812.7 L-409.5 -812.7 L-408.5 -812.7 L-407.5 -812.7 L-406.5 -812.7 L-405.6 -812.7 L-404.6 -812.6 L-403.6 -812.6 L-402.6 -812.6 L-401.6 -812.6 L-400.7 -812.6 L-399.7 -812.6 L-398.7 -812.6 L-397.7 -812.6 L-396.8 -812.5 L-395.8 -812.5 L-394.8 -812.5 L-393.8 -812.5 L-392.8 -812.5 L-391.9 -812.5 L-390.9 -812.5 L-389.9 -812.4 L-388.9 -812.4 L-387.9 -812.4 L-388 -811.4 L-388 -810.5 L-388 -809.5 L-388 -808.5 L-388 -807.5 L-388 -806.5 L-388 -805.6 L-388.1 -804.6 L-388.1 -803.6 L-388.1 -802.6 L-388.1 -801.7 L-388.1 -800.7 L-388.1 -799.7 L-388.1 -798.7 L-388.2 -797.7 L-388.2 -796.8 L-388.2 -795.8 L-388.2 -794.8 L-388.2 -793.8 L-388.2 -792.8 L-388.2 -791.9 L-388.3 -790.9 L-388.3 -789.9 L-388.3 -788.9 L-388.3 -788 Z " />
<path stroke="rgb(0,0,0)" stroke-opacity="1" fill="rgb(255,255,255)" fill-opacity="1" d="M-345.8 -40.59 L-347.4 -39.52 L-349.2 -38.57 L-350.9 -37.77 L-352.8 -37.1 L-354.7 -36.59 L-356.6 -36.23 L-358.5 -36.02 L-360.5 -35.97 L-362.4 -36.07 L-364.4 -36.33 L-366.3 -36.74 L-368.2 -37.3 L-370 -38.01 L-371.7 -38.86 L-373.4 -39.85 L-375 -40.97 L-376.5 -42.21 L-377.9 -43.57 L-379.2 -45.03 L-380.4 -46.6 L-381.5 -48.25 L-382.4 -49.98 L-383.1 -51.78 L-383.8 -53.63 L-384.2 -55.53 L-384.6 -57.45 L-384.7 -59.4 L-384.7 -61.36 L-384.6 -63.31 L-384.3 -65.24 L-383.9 -67.14 L-383.3 -69 L-382.5 -70.81 L-381.6 -72.56 L-380.6 -74.22 L-379.5 -75.8 L-378.2 -77.29 L-376.8 -78.67 L-375.3 -79.93 L-373.7 -81.07 L-372.1 -82.08 L-370.3 -82.96 L-368.5 -83.69 L-366.6 -84.28 L-364.7 -84.72 L-362.8 -85 L-360.8 -85.13 L-358.9 -85.11 L-356.9 -84.93 L-355 -84.6 L-353.1 -84.11 L-351.3 -83.47 L-349.5 -82.69 L-347.7 -81.77 L-346.1 -80.72 L-344.5 -79.54 L-343.1 -78.24 L-341.7 -76.82 L-340.5 -75.31 L-339.4 -73.7 L-338.4 -72 L-337.6 -70.24 L-336.9 -68.41 L-336.3 -66.54 L-335.9 -64.62 L-335.7 -62.68 L-335.6 -60.73 L-335.6 -58.78 L-335.9 -56.83 L-336.2 -54.91 L-336.8 -53.03 L-337.4 -51.19 L-338.3 -49.42 L-339.2 -47.71 L-340.3 -46.09 L-341.5 -44.55 L-342.8 -43.12 L-344.3 -41.8 L-345.8 -40.59 Z " />
<path stroke="rgb(0,0,0)" stroke-opacity="1" fill="rgb(255,255,255)" fill-opacity="1" d="M-888.3 -688 L-889.3 -688 L-890.3 -688 L-891.2 -688 L-892.2 -688 L-893.2 -688 L-894.2 -688 L-895.1 -688 L-896.1 -688.1 L-897.1 -688.1 L-898.1 -688.1 L-899.1 -688.1 L-900 -688.1 L-901 -688.1 L-902 -688.1 L-903 -688.2 L-903.9 -688.2 L-904.9 -688.2 L-905.9 -688.2 L-906.9 -688.2 L-907.9 -688.2 L-908.8 -688.2 L-909.8 -688.3 L-910.8 -688.3 L-911.8 -688.3 L-912.8 -688.3 L-912.7 -689.3 L-912.7 -690.3 L-912.7 -691.2 L-912.7 -692.2 L-912.7 -693.2 L-912.7 -694.2 L-912.7 -695.1 L-912.6 -696.1 L-912.6 -697.1 L-912.6 -698.1 L-912.6 -699.1 L-912.6 -700 L-912.6 -701 L-912.6 -702 L-912.5 -703 L-912.5 -704 L-912.5 -704.9 L-912.5 -705.9 L-912.5 -706.9 L-912.5 -707.9 L-912.5 -708.8 L-912.5 -709.8 L-912.4 -710.8 L-912.4 -711.8 L-912.4 -712.8 L-911.4 -712.7 L-910.5 -712.7 L-909.5 -712.7 L-908.5 -712.7 L-907.5 -712.7 L-906.5 -712.7 L-905.6 -712.7 L-904.6 -712.6 L-903.6 -712.6 L-902.6 -712.6 L-901.6 -712.6 L-900.7 -712.6 L-899.7 -712.6 L-898.7 -712.6 L-897.7 -712.6 L-896.8 -712.5 L-895.8 -712.5 L-894.8 -712.5 L-893.8 -712.5 L-892.8 -712.5 L-891.9 -712.5 L-890.9 -712.5 L-889.9 -712.4 L-888.9 -712.4 L-887.9 -712.4 L-888 -711.4 L-888 -710.5 L-888 -709.5 L-888 -708.5 L-888 -707.5 L-888 -706.5 L-888 -705.6 L-888.1 -704.6 L-888.1 -703.6 L-888.1 -702.6 L-888.1 -701.7 L-888.1 -700.7 L-888.1 -699.7 L-888.1 -698.7 L-888.2 -697.7 L-888.2 -696.8 L-888.2 -695.8 L-888.2 -694.8 L-888.2 -693.8 L-888.2 -692.8 L-888.2 -691.9 L-888.3 -690.9 L-888.3 -689.9 L-888.3 -688.9 L-888.3 -688 Z " />
<path stroke="rgb(0,0,0)" stroke-opacity="1" fill="rgb(255,255,255)" fill-opacity="1" d="M-175.7 -59.19 L-177.6 -58.74 L-179.5 -58.44 L-181.5 -58.29 L-183.4 -58.3 L-185.4 -58.46 L-187.3 -58.78 L-189.2 -59.25 L-191.1 -59.87 L-192.9 -60.64 L-194.6 -61.55 L-196.3 -62.59 L-197.8 -63.76 L-199.3 -65.05 L-200.7 -66.45 L-201.9 -67.96 L-203 -69.56 L-204 -71.24 L-204.9 -73 L-205.6 -74.82 L-206.2 -76.69 L-206.6 -78.6 L-206.8 -80.54 L-206.9 -82.49 L-206.9 -84.45 L-206.7 -86.39 L-206.3 -88.32 L-205.8 -90.21 L-205.2 -92.05 L-204.4 -93.83 L-203.4 -95.55 L-202.3 -97.18 L-201.1 -98.73 L-199.8 -100.2 L-198.4 -101.5 L-196.9 -102.7 L-195.2 -103.8 L-193.5 -104.8 L-191.8 -105.6 L-189.9 -106.3 L-188 -106.8 L-186.1 -107.2 L-184.2 -107.4 L-182.2 -107.5 L-180.3 -107.4 L-178.3 -107.1 L-176.4 -106.7 L-174.5 -106.2 L-172.7 -105.5 L-170.9 -104.7 L-169.3 -103.7 L-167.6 -102.6 L-166.1 -101.4 L-164.7 -100 L-163.4 -98.55 L-162.2 -96.99 L-161.2 -95.35 L-160.2 -93.63 L-159.4 -91.84 L-158.8 -89.99 L-158.3 -88.1 L-158 -86.17 L-157.8 -84.22 L-157.8 -82.27 L-157.9 -80.32 L-158.2 -78.38 L-158.6 -76.47 L-159.2 -74.61 L-159.9 -72.79 L-160.8 -71.04 L-161.8 -69.37 L-162.9 -67.77 L-164.2 -66.28 L-165.6 -64.89 L-167 -63.61 L-168.6 -62.46 L-170.3 -61.43 L-172 -60.54 L-173.8 -59.79 L-175.7 -59.19 Z " />
<path stroke="rgb(0,0,0)" stroke-opacity="1" fill="rgb(255,255,255)" fill-opacity="1" d="M-688.3 -688 L-689.3 -688 L-690.3 -688 L-691.2 -688 L-692.2 -688 L-693.2 -688 L-694.2 -688 L-695.1 -688 L-696.1 -688.1 L-697.1 -688.1 L-698.1 -688.1 L-699.1 -688.1 L-700 -688.1 L-701 -688.1 L-702 -688.1 L-703 -688.2 L-703.9 -688.2 L-704.9 -688.2 L-705.9 -688.2 L-706.9 -688.2 L-707.9 -688.2 L-708.8 -688.2 L-709.8 -688.3 L-710.8 -688.3 L-711.8 -688.3 L-712.8 -688.3 L-712.7 -689.3 L-712.7 -690.3 L-712.7 -691.2 L-712.7 -692.2 L-712.7 -693.2 L-712.7 -694.2 L-712.7 -695.1 L-712.6 -696.1 L-712.6 -697.1 L-712.6 -698.1 L-712.6 -699.1 L-712.6 -700 L-712.6 -701 L-712.6 -702 L-712.5 -703 L-712.5 -704 L-712.5 -704.9 L-712.5 -705.9 L-712.5 -706.9 L-712.5 -707.9 L-712.5 -708.8 L-712.5 -709.8 L-712.4 -710.8 L-712.4 -711.8 L-712.4 -712.8 L-711.4 -712.7 L-710.5 -712.7 L-709.5 -712.7 L-708.5 -712.7 L-707.5 -712.7 L-706.5 -712.7 L-705.6 -712.7 L-704.6 -712.6 L-703.6 -712.6 L-702.6 -712.6 L-701.6 -712.6 L-700.7 -712.6 L-699.7 -712.6 L-698.7 -712.6 L-697.7 -712.6 L-696.8 -712.5 L-695.8 -712.5 L-694.8 -712.5 L-693.8 -712.5 L-692.8 -712.5 L-691.9 -712.5 L-690.9 -712.5 L-689.9 -712.4 L-688.9 -712.4 L-687.9 -712.4 L-688 -711.4 L-688 -710.5 L-688 -709.5 L-688 -708.5 L-688 -707.5 L-688 -706.5 L-688 -705.6 L-688.1 -704.6 L-688.1 -703.6 L-688.1 -702.6 L-688.1 -701.7 L-688.1 -700.7 L-688.1 -699.7 L-688.1 -698.7 L-688.2 -697.7 L-688.2 -696.8 L-688.2 -695.8 L-688.2 -694.8 L-688.2 -693.8 L-688.2 -692.8 L-688.2 -691.9 L-688.3 -690.9 L-688.3 -689.9 L-688.3 -688.9 L-688.3 -688 Z " />
<path stroke="rgb(0,0,0)" stroke-opacity="1" fill="rgb(255,255,255)" fill-opacity="1" d="M8.024 -70.22 L6.07 -70.12 L4.115 -70.19 L2.171 -70.4 L0.2508 -70.77 L-1.634 -71.3 L-3.472 -71.97 L-5.25 -72.78 L-6.958 -73.73 L-8.585 -74.82 L-10.12 -76.03 L-11.56 -77.36 L-12.88 -78.8 L-14.09 -80.34 L-15.17 -81.97 L-16.11 -83.68 L-16.92 -85.46 L-17.58 -87.3 L-18.1 -89.19 L-18.46 -91.11 L-18.67 -93.06 L-18.73 -95.01 L-18.63 -96.96 L-18.37 -98.9 L-17.96 -100.8 L-17.4 -102.7 L-16.7 -104.5 L-15.85 -106.3 L-14.86 -108 L-13.74 -109.6 L-12.5 -111.1 L-11.14 -112.5 L-9.679 -113.8 L-8.115 -115 L-6.463 -116 L-4.733 -116.9 L-2.936 -117.7 L-1.083 -118.3 L0.8132 -118.8 L2.742 -119.1 L4.69 -119.3 L6.646 -119.3 L8.597 -119.2 L10.53 -118.9 L12.44 -118.4 L14.3 -117.8 L16.11 -117.1 L17.85 -116.2 L19.52 -115.2 L21.1 -114 L22.59 -112.8 L23.97 -111.4 L25.24 -109.9 L26.38 -108.3 L27.39 -106.6 L28.27 -104.9 L29.01 -103.1 L29.6 -101.2 L30.04 -99.3 L30.33 -97.36 L30.46 -95.41 L30.44 -93.46 L30.26 -91.51 L29.92 -89.58 L29.44 -87.69 L28.81 -85.84 L28.03 -84.04 L27.11 -82.32 L26.06 -80.67 L24.88 -79.11 L23.58 -77.65 L22.16 -76.29 L20.65 -75.06 L19.04 -73.95 L17.35 -72.97 L15.58 -72.12 L13.75 -71.42 L11.88 -70.87 L9.964 -70.47 L8.024 -70.22 Z " />
<path stroke="rgb(0,0,0)" stroke-opacity="1" fill="rgb(255,255,255)" fill-opacity="1" d="M-488.3 -688 L-489.3 -688 L-490.3 -688 L-491.2 -688 L-492.2 -688 L-493.2 -688 L-494.2 -688 L-495.1 -688 L-496.1 -688.1 L-497.1 -688.1 L-498.1 -688.1 L-499.1 -688.1 L-500 -688.1 L-501 -688.1 L-502 -688.1 L-503 -688.2 L-503.9 -688.2 L-504.9 -688.2 L-505.9 -688.2 L-506.9 -688.2 L-507.9 -688.2 L-508.8 -688.2 L-509.8 -688.3 L-510.8 -688.3 L-511.8 -688.3 L-512.8 -688.3 L-512.7 -689.3 L-512.7 -690.3 L-512.7 -691.2 L-512.7 -692.2 L-512.7 -693.2 L-512.7 -694.2 L-512.7 -695.1 L-512.6 -696.1 L-512.6 -697.1 L-512.6 -698.1 L-512.6 -699.1 L-512.6 -700 L-512.6 -701 L-512.6 -702 L-512.5 -703 L-512.5 -704 L-512.5 -704.9 L-512.5 -705.9 L-512.5 -706.9 L-512.5 -707.9 L-512.5 -708.8 L-512.5 -709.8 L-512.4 -710.8 L-512.4 -711.8 L-512.4 -712.8 L-511.4 -712.7 L-510.5 -712.7 L-509.5 -712.7 L-508.5 -712.7 L-507.5 -712.7 L-506.5 -712.7 L-505.6 -712.7 L-504.6 -712.6 L-503.6 -712.6 L-502.6 -712.6 L-501.6 -712.6 L-500.7 -712.6 L-499.7 -712.6 L-498.7 -712.6 L-497.7 -712.6 L-496.8 -712.5 L-495.8 -712.5 L-494.8 -712.5 L-493.8 -712.5 L-492.8 -712.5 L-491.9 -712.5 L-490.9 -712.5 L-489.9 -712.4 L-488.9 -712.4 L-487.9 -712.4 L-488 -711.4 L-488 -710.5 L-488 -709.5 L-488 -708.5 L-488 -707.5 L-488 -706.5 L-488 -705.6 L-488.1 -704.6 L-488.1 -703.6 L-488.1 -702.6 L-488.1 -701.7 L-488.1 -700.7 L-488.1 -699.7 L-488.1 -698.7 L-488.2 -697.7 L-488.2 -696.8 L-488.2 -695.8 L-488.2 -694.8 L-488.2 -693.8 L-488.2 -692.8 L-488.2 -691.9 L-488.3 -690.9 L-488.3 -689.9 L-488.3 -688.9 L-488.3 -688 Z " />
<path stroke="rgb(0,0,0)" stroke-opacity="1" fill="rgb(255,255,255)" fill-opacity="1" d="M201.5 -74.84 L199.6 -74.89 L197.6 -75.09 L195.7 -75.45 L193.8 -75.96 L192 -76.62 L190.2 -77.43 L188.5 -78.37 L186.8 -79.45 L185.3 -80.65 L183.9 -81.97 L182.5 -83.4 L181.3 -84.94 L180.2 -86.56 L179.3 -88.27 L178.4 -90.05 L177.8 -91.88 L177.2 -93.77 L176.9 -95.69 L176.6 -97.63 L176.6 -99.59 L176.7 -101.5 L176.9 -103.5 L177.3 -105.4 L177.9 -107.3 L178.6 -109.1 L179.4 -110.9 L180.4 -112.6 L181.5 -114.2 L182.7 -115.7 L184.1 -117.1 L185.5 -118.4 L187.1 -119.6 L188.7 -120.7 L190.5 -121.6 L192.2 -122.4 L194.1 -123 L196 -123.5 L197.9 -123.8 L199.9 -124 L201.8 -124 L203.8 -123.9 L205.7 -123.6 L207.6 -123.2 L209.5 -122.6 L211.3 -121.9 L213 -121 L214.7 -120 L216.3 -118.8 L217.8 -117.6 L219.2 -116.2 L220.5 -114.7 L221.6 -113.1 L222.6 -111.5 L223.5 -109.7 L224.3 -107.9 L224.9 -106 L225.3 -104.1 L225.6 -102.2 L225.8 -100.3 L225.8 -98.3 L225.6 -96.36 L225.3 -94.43 L224.8 -92.53 L224.2 -90.67 L223.4 -88.88 L222.5 -87.14 L221.4 -85.49 L220.3 -83.92 L219 -82.46 L217.6 -81.09 L216.1 -79.85 L214.5 -78.73 L212.8 -77.74 L211 -76.89 L209.2 -76.18 L207.3 -75.61 L205.4 -75.2 L203.5 -74.94 L201.5 -74.84 Z " />
<path stroke="rgb(0,0,0)" stroke-opacity="1" fill="rgb(255,255,255)" fill-opacity="1" d="M-988.3 -588 L-989.3 -588 L-990.3 -588 L-991.2 -588 L-992.2 -588 L-993.2 -588 L-994.2 -588 L-995.1 -588 L-996.1 -588.1 L-997.1 -588.1 L-998.1 -588.1 L-999.1 -588.1 L-1000 -588.1 L-1001 -588.1 L-1002 -588.1 L-1003 -588.2 L-1004 -588.2 L-1005 -588.2 L-1006 -588.2 L-1007 -588.2 L-1008 -588.2 L-1009 -588.2 L-1010 -588.3 L-1011 -588.3 L-1012 -588.3 L-1013 -588.3 L-1013 -589.3 L-1013 -590.3 L-1013 -591.2 L-1013 -592.2 L-1013 -593.2 L-1013 -594.2 L-1013 -595.1 L-1013 -596.1 L-1013 -597.1 L-1013 -598.1 L-1013 -599.1 L-1013 -600 L-1013 -601 L-1013 -602 L-1013 -603 L-1013 -604 L-1013 -604.9 L-1013 -605.9 L-1012 -606.9 L-1012 -607.9 L-1012 -608.8 L-1012 -609.8 L-1012 -610.8 L-1012 -611.8 L-1012 -612.8 L-1011 -612.7 L-1010 -612.7 L-1009 -612.7 L-1008 -612.7 L-1008 -612.7 L-1007 -612.7 L-1006 -612.7 L-1005 -612.6 L-1004 -612.6 L-1003 -612.6 L-1002 -612.6 L-1001 -612.6 L-999.7 -612.6 L-998.7 -612.6 L-997.7 -612.6 L-996.8 -612.5 L-995.8 -612.5 L-994.8 -612.5 L-993.8 -612.5 L-992.8 -612.5 L-991.9 -612.5 L-990.9 -612.5 L-989.9 -612.4 L-988.9 -612.4 L-987.9 -612.4 L-988 -611.4 L-988 -610.5 L-988 -609.5 L-988 -608.5 L-988 -607.5 L-988 -606.5 L-988 -605.6 L-988.1 -604.6 L-988.1 -603.6 L-988.1 -602.6 L-988.1 -601.7 L-988.1 -600.7 L-988.1 -599.7 L-988.1 -598.7 L-988.2 -597.7 L-988.2 -596.8 L-988.2 -595.8 L-988.2 -594.8 L-988.2 -593.8 L-988.2 -592.8 L-988.2 -591.9 L-988.3 -590.9 L-988.3 -589.9 L-988.3 -588.9 L-988.3 -588 Z " />
<path stroke="rgb(0,0,0)" stroke-opacity="1" fill="rgb(255,255,255)" fill-opacity="1" d="M-275.7 40.81 L-277.6 41.26 L-279.5 41.56 L-281.5 41.71 L-283.4 41.7 L-285.4 41.54 L-287.3 41.22 L-289.2 40.75 L-291.1 40.13 L-292.9 39.36 L-294.6 38.45 L-296.3 37.41 L-297.8 36.24 L-299.3 34.95 L-300.7 33.55 L-301.9 32.04 L-303 30.44 L-304 28.76 L-304.9 27 L-305.6 25.18 L-306.2 23.31 L-306.6 21.4 L-306.8 19.46 L-306.9 17.51 L-306.9 15.55 L-306.7 13.61 L-306.3 11.68 L-305.8 9.794 L-305.2 7.952 L-304.4 6.168 L-303.4 4.453 L-302.3 2.819 L-301.1 1.275 L-299.8 -0.1688 L-298.4 -1.503 L-296.9 -2.72 L-295.2 -3.811 L-293.5 -4.769 L-291.8 -5.59 L-289.9 -6.266 L-288 -6.795 L-286.1 -7.172 L-284.2 -7.396 L-282.2 -7.465 L-280.3 -7.378 L-278.3 -7.136 L-276.4 -6.741 L-274.5 -6.195 L-272.7 -5.501 L-270.9 -4.665 L-269.3 -3.69 L-267.6 -2.584 L-266.1 -1.353 L-264.7 -0.005855 L-263.4 1.45 L-262.2 3.005 L-261.2 4.649 L-260.2 6.373 L-259.4 8.164 L-258.8 10.01 L-258.3 11.9 L-258 13.83 L-257.8 15.78 L-257.8 17.73 L-257.9 19.68 L-258.2 21.62 L-258.6 23.53 L-259.2 25.39 L-259.9 27.21 L-260.8 28.96 L-261.8 30.63 L-262.9 32.23 L-264.2 33.72 L-265.6 35.11 L-267 36.39 L-268.6 37.54 L-270.3 38.57 L-272 39.46 L-273.8 40.21 L-275.7 40.81 Z " />
<path stroke="rgb(0,0,0)" stroke-opacity="1" fill="rgb(255,255,255)" fill-opacity="1" d="M-788.3 -588 L-789.3 -588 L-790.3 -588 L-791.2 -588 L-792.2 -588 L-793.2 -588 L-794.2 -588 L-795.1 -588 L-796.1 -588.1 L-797.1 -588.1 L-798.1 -588.1 L-799.1 -588.1 L-800 -588.1 L-801 -588.1 L-802 -588.1 L-803 -588.2 L-803.9 -588.2 L-804.9 -588.2 L-805.9 -588.2 L-806.9 -588.2 L-807.9 -588.2 L-808.8 -588.2 L-809.8 -588.3 L-810.8 -588.3 L-811.8 -588.3 L-812.8 -588.3 L-812.7 -589.3 L-812.7 -590.3 L-812.7 -591.2 L-812.7 -592.2 L-812.7 -593.2 L-812.7 -594.2 L-812.7 -595.1 L-812.6 -596.1 L-812.6 -597.1 L-812.6 -598.1 L-812.6 -599.1 L-812.6 -600 L-812.6 -601 L-812.6 -602 L-812.5 -603 L-812.5 -604 L-812.5 -604.9 L-812.5 -605.9 L-812.5 -606.9 L-812.5 -607.9 L-812.5 -608.8 L-812.5 -609.8 L-812.4 -610.8 L-812.4 -611.8 L-812.4 -612.8 L-811.4 -612.7 L-810.5 -612.7 L-809.5 -612.7 L-808.5 -612.7 L-807.5 -612.7 L-806.5 -612.7 L-805.6 -612.7 L-804.6 -612.6 L-803.6 -612.6 L-802.6 -612.6 L-801.6 -612.6 L-800.7 -612.6 L-799.7 -612.6 L-798.7 -612.6 L-797.7 -612.6 L-796.8 -612.5 L-795.8 -612.5 L-794.8 -612.5 L-793.8 -612.5 L-792.8 -612.5 L-791.9 -612.5 L-790.9 -612.5 L-789.9 -612.4 L-788.9 -612.4 L-787.9 -612.4 L-788 -611.4 L-788 -610.5 L-788 -609.5 L-788 -608.5 L-788 -607.5 L-788 -606.5 L-788 -605.6 L-788.1 -604.6 L-788.1 -603.6 L-788.1 -602.6 L-788.1 -601.7 L-788.1 -600.7 L-788.1 -599.7 L-788.1 -598.7 L-788.2 -597.7 L-788.2 -596.8 L-788.2 -595.8 L-788.2 -594.8 L-788.2 -593.8 L-788.2 -592.8 L-788.2 -591.9 L-788.3 -590.9 L-788.3 -589.9 L-788.3 -588.9 L-788.3 -588 Z " />
<path stroke="rgb(0,0,0)" stroke-opacity="1" fill="rgb(255,255,255)" fill-opacity="1" d="M-91.98 29.78 L-93.93 29.88 L-95.88 29.81 L-97.83 29.6 L-99.75 29.23 L-101.6 28.7 L-103.5 28.03 L-105.3 27.22 L-107 26.27 L-108.6 25.18 L-110.1 23.97 L-111.6 22.64 L-112.9 21.2 L-114.1 19.66 L-115.2 18.03 L-116.1 16.32 L-116.9 14.54 L-117.6 12.7 L-118.1 10.81 L-118.5 8.889 L-118.7 6.944 L-118.7 4.989 L-118.6 3.036 L-118.4 1.097 L-118 -0.8161 L-117.4 -2.69 L-116.7 -4.514 L-115.8 -6.276 L-114.9 -7.965 L-113.7 -9.57 L-112.5 -11.08 L-111.1 -12.49 L-109.7 -13.78 L-108.1 -14.96 L-106.5 -16.01 L-104.7 -16.92 L-102.9 -17.69 L-101.1 -18.32 L-99.19 -18.8 L-97.26 -19.12 L-95.31 -19.29 L-93.35 -19.31 L-91.4 -19.17 L-89.47 -18.88 L-87.56 -18.43 L-85.7 -17.83 L-83.89 -17.09 L-82.15 -16.21 L-80.48 -15.19 L-78.9 -14.04 L-77.41 -12.77 L-76.03 -11.38 L-74.76 -9.889 L-73.62 -8.302 L-72.61 -6.63 L-71.73 -4.882 L-70.99 -3.07 L-70.4 -1.205 L-69.96 0.701 L-69.67 2.636 L-69.54 4.587 L-69.56 6.543 L-69.74 8.491 L-70.08 10.42 L-70.56 12.31 L-71.19 14.16 L-71.97 15.96 L-72.89 17.68 L-73.94 19.33 L-75.12 20.89 L-76.42 22.35 L-77.84 23.71 L-79.35 24.94 L-80.96 26.05 L-82.65 27.03 L-84.42 27.88 L-86.25 28.58 L-88.12 29.13 L-90.04 29.53 L-91.98 29.78 Z " />
<path stroke="rgb(0,0,0)" stroke-opacity="1" fill="rgb(255,255,255)" fill-opacity="1" d="M-588.3 -588 L-589.3 -588 L-590.3 -588 L-591.2 -588 L-592.2 -588 L-593.2 -588 L-594.2 -588 L-595.1 -588 L-596.1 -588.1 L-597.1 -588.1 L-598.1 -588.1 L-599.1 -588.1 L-600 -588.1 L-601 -588.1 L-602 -588.1 L-603 -588.2 L-603.9 -588.2 L-604.9 -588.2 L-605.9 -588.2 L-606.9 -588.2 L-607.9 -588.2 L-608.8 -588.2 L-609.8 -588.3 L-610.8 -588.3 L-611.8 -588.3 L-612.8 -588.3 L-612.7 -589.3 L-612.7 -590.3 L-612.7 -591.2 L-612.7 -592.2 L-612.7 -593.2 L-612.7 -594.2 L-612.7 -595.1 L-612.6 -596.1 L-612.6 -597.1 L-612.6 -598.1 L-612.6 -599.1 L-612.6 -600 L-612.6 -601 L-612.6 -602 L-612.5 -603 L-612.5 -604 L-612.5 -604.9 L-612.5 -605.9 L-612.5 -606.9 L-612.5 -607.9 L-612.5 -608.8 L-612.5 -609.8 L-612.4 -610.8 L-612.4 -611.8 L-612.4 -612.8 L-611.4 -612.7 L-610.5 -612.7 L-609.5 -612.7 L-608.5 -612.7 L-607.5 -612.7 L-606.5 -612.7 L-605.6 -612.7 L-604.6 -612.6 L-603.6 -612.6 L-602.6 -612.6 L-601.6 -612.6 L-600.7 -612.6 L-599.7 -612.6 L-598.7 -612.6 L-597.7 -612.6 L-596.8 -612.5 L-595.8 -612.5 L-594.8 -612.5 L-593.8 -612.5 L-592.8 -612.5 L-591.9 -612.5 L-590.9 -612.5 L-589.9 -612.4 L-588.9 -612.4 L-587.9 -612.4 L-588 -611.4 L-588 -610.5 L-588 -609.5 L-588 -608.5 L-588 -607.5 L-588 -606.5 L-588 -605.6 L-588.1 -604.6 L-588.1 -603.6 L-588.1 -602.6 L-588.1 -601.7 L-588.1 -600.7 L-588.1 -599.7 L-588.1 -598.7 L-588.2 -597.7 L-588.2 -596.8 L-588.2 -595.8 L-588.2 -594.8 L-588.2 -593.8 L-588.2 -592.8 L-588.2 -591.9 L-588.3 -590.9 L-588.3 -589.9 L-588.3 -588.9 L-588.3 -588 Z " />
<path stroke="rgb(0,0,0)" stroke-opacity="1" fill="rgb(255,255,255)" fill-opacity="1" d="M101.5 25.16 L99.56 25.11 L97.62 24.91 L95.7 24.55 L93.81 24.04 L91.97 23.38 L90.18 22.57 L88.47 21.63 L86.84 20.55 L85.3 19.35 L83.85 18.03 L82.52 16.6 L81.31 15.06 L80.22 13.44 L79.26 11.73 L78.44 9.954 L77.77 8.117 L77.24 6.233 L76.87 4.313 L76.65 2.37 L76.58 0.4149 L76.67 -1.539 L76.92 -3.48 L77.32 -5.395 L77.86 -7.272 L78.56 -9.1 L79.4 -10.87 L80.38 -12.56 L81.49 -14.17 L82.72 -15.69 L84.07 -17.11 L85.53 -18.41 L87.08 -19.59 L88.73 -20.65 L90.46 -21.57 L92.25 -22.35 L94.1 -22.99 L95.99 -23.48 L97.92 -23.82 L99.87 -24 L101.8 -24.03 L103.8 -23.9 L105.7 -23.61 L107.6 -23.18 L109.5 -22.59 L111.3 -21.86 L113 -20.98 L114.7 -19.97 L116.3 -18.83 L117.8 -17.57 L119.2 -16.19 L120.5 -14.71 L121.6 -13.13 L122.6 -11.46 L123.5 -9.717 L124.3 -7.909 L124.9 -6.048 L125.3 -4.144 L125.6 -2.211 L125.8 -0.2603 L125.8 1.696 L125.6 3.645 L125.3 5.574 L124.8 7.472 L124.2 9.326 L123.4 11.12 L122.5 12.86 L121.4 14.51 L120.3 16.08 L119 17.54 L117.6 18.91 L116.1 20.15 L114.5 21.27 L112.8 22.26 L111 23.11 L109.2 23.82 L107.3 24.39 L105.4 24.8 L103.5 25.06 L101.5 25.16 Z " />
<path stroke="rgb(0,0,0)" stroke-opacity="1" fill="rgb(255,255,255)" fill-opacity="1" d="M-388 -587.7 L-389 -587.7 L-389.9 -587.8 L-390.9 -587.8 L-391.9 -587.8 L-392.9 -587.8 L-393.8 -587.8 L-394.8 -587.8 L-395.8 -587.8 L-396.8 -587.8 L-397.8 -587.8 L-398.7 -587.8 L-399.7 -587.8 L-400.7 -587.9 L-401.7 -587.9 L-402.7 -587.9 L-403.6 -587.9 L-404.6 -587.9 L-405.6 -587.9 L-406.6 -587.9 L-407.5 -587.9 L-408.5 -587.9 L-409.5 -587.9 L-410.5 -588 L-411.5 -588 L-412.4 -588 L-412.4 -589 L-412.4 -589.9 L-412.4 -590.9 L-412.4 -591.9 L-412.4 -592.9 L-412.4 -593.8 L-412.4 -594.8 L-412.4 -595.8 L-412.4 -596.8 L-412.3 -597.8 L-412.3 -598.7 L-412.3 -599.7 L-412.3 -600.7 L-412.3 -601.7 L-412.3 -602.7 L-412.3 -603.6 L-412.3 -604.6 L-412.3 -605.6 L-412.3 -606.6 L-412.2 -607.5 L-412.2 -608.5 L-412.2 -609.5 L-412.2 -610.5 L-412.2 -611.5 L-412.2 -612.4 L-411.2 -612.4 L-410.2 -612.4 L-409.3 -612.4 L-408.3 -612.4 L-407.3 -612.4 L-406.3 -612.4 L-405.3 -612.4 L-404.4 -612.4 L-403.4 -612.4 L-402.4 -612.3 L-401.4 -612.3 L-400.5 -612.3 L-399.5 -612.3 L-398.5 -612.3 L-397.5 -612.3 L-396.5 -612.3 L-395.6 -612.3 L-394.6 -612.3 L-393.6 -612.3 L-392.6 -612.2 L-391.6 -612.2 L-390.7 -612.2 L-389.7 -612.2 L-388.7 -612.2 L-387.7 -612.2 L-387.7 -611.2 L-387.8 -610.2 L-387.8 -609.3 L-387.8 -608.3 L-387.8 -607.3 L-387.8 -606.3 L-387.8 -605.3 L-387.8 -604.4 L-387.8 -603.4 L-387.8 -602.4 L-387.8 -601.4 L-387.8 -600.5 L-387.9 -599.5 L-387.9 -598.5 L-387.9 -597.5 L-387.9 -596.5 L-387.9 -595.6 L-387.9 -594.6 L-387.9 -593.6 L-387.9 -592.6 L-387.9 -591.6 L-387.9 -590.7 L-388 -589.7 L-388 -588.7 L-388 -587.7 Z " />
<path stroke="rgb(0,0,0)" stroke-opacity="1" fill="rgb(255,255,255)" fill-opacity="1" d="M-375.7 140.8 L-377.6 141.3 L-379.5 141.6 L-381.5 141.7 L-383.4 141.7 L-385.4 141.5 L-387.3 141.2 L-389.2 140.7 L-391.1 140.1 L-392.9 139.4 L-394.6 138.5 L-396.3 137.4 L-397.8 136.2 L-399.3 135 L-400.7 133.6 L-401.9 132 L-403 130.4 L-404 128.8 L-404.9 127 L-405.6 125.2 L-406.2 123.3 L-406.6 121.4 L-406.8 119.5 L-406.9 117.5 L-406.9 115.6 L-406.7 113.6 L-406.3 111.7 L-405.8 109.8 L-405.2 108 L-404.4 106.2 L-403.4 104.5 L-402.3 102.8 L-401.1 101.3 L-399.8 99.83 L-398.4 98.5 L-396.9 97.28 L-395.2 96.19 L-393.5 95.23 L-391.8 94.41 L-389.9 93.73 L-388 93.21 L-386.1 92.83 L-384.2 92.6 L-382.2 92.54 L-380.3 92.62 L-378.3 92.86 L-376.4 93.26 L-374.5 93.81 L-372.7 94.5 L-370.9 95.34 L-369.3 96.31 L-367.6 97.42 L-366.1 98.65 L-364.7 99.99 L-363.4 101.5 L-362.2 103 L-361.2 104.6 L-360.2 106.4 L-359.4 108.2 L-358.8 110 L-358.3 111.9 L-358 113.8 L-357.8 115.8 L-357.8 117.7 L-357.9 119.7 L-358.2 121.6 L-358.6 123.5 L-359.2 125.4 L-359.9 127.2 L-360.8 129 L-361.8 130.6 L-362.9 132.2 L-364.2 133.7 L-365.6 135.1 L-367 136.4 L-368.6 137.5 L-370.3 138.6 L-372 139.5 L-373.8 140.2 L-375.7 140.8 Z " />
<path stroke="rgb(0,0,0)" stroke-opacity="1" fill="rgb(255,255,255)" fill-opacity="1" d="M-888.3 -488 L-889.3 -488 L-890.3 -488 L-891.2 -488 L-892.2 -488 L-893.2 -488 L-894.2 -488 L-895.1 -488 L-896.1 -488.1 L-897.1 -488.1 L-898.1 -488.1 L-899.1 -488.1 L-900 -488.1 L-901 -488.1 L-902 -488.1 L-903 -488.2 L-903.9 -488.2 L-904.9 -488.2 L-905.9 -488.2 L-906.9 -488.2 L-907.9 -488.2 L-908.8 -488.2 L-909.8 -488.3 L-910.8 -488.3 L-911.8 -488.3 L-912.8 -488.3 L-912.7 -489.3 L-912.7 -490.3 L-912.7 -491.2 L-912.7 -492.2 L-912.7 -493.2 L-912.7 -494.2 L-912.7 -495.1 L-912.6 -496.1 L-912.6 -497.1 L-912.6 -498.1 L-912.6 -499.1 L-912.6 -500 L-912.6 -501 L-912.6 -502 L-912.5 -503 L-912.5 -504 L-912.5 -504.9 L-912.5 -505.9 L-912.5 -506.9 L-912.5 -507.9 L-912.5 -508.8 L-912.5 -509.8 L-912.4 -510.8 L-912.4 -511.8 L-912.4 -512.8 L-911.4 -512.7 L-910.5 -512.7 L-909.5 -512.7 L-908.5 -512.7 L-907.5 -512.7 L-906.5 -512.7 L-905.6 -512.7 L-904.6 -512.6 L-903.6 -512.6 L-902.6 -512.6 L-901.6 -512.6 L-900.7 -512.6 L-899.7 -512.6 L-898.7 -512.6 L-897.7 -512.6 L-896.8 -512.5 L-895.8 -512.5 L-894.8 -512.5 L-893.8 -512.5 L-892.8 -512.5 L-891.9 -512.5 L-890.9 -512.5 L-889.9 -512.4 L-888.9 -512.4 L-887.9 -512.4 L-888 -511.4 L-888 -510.5 L-888 -509.5 L-888 -508.5 L-888 -507.5 L-888 -506.5 L-888 -505.6 L-888.1 -504.6 L-888.1 -503.6 L-888.1 -502.6 L-888.1 -501.7 L-888.1 -500.7 L-888.1 -499.7 L-888.1 -498.7 L-888.2 -497.7 L-888.2 -496.8 L-888.2 -495.8 L-888.2 -494.8 L-888.2 -493.8 L-888.2 -492.8 L-888.2 -491.9 L-888.3 -490.9 L-888.3 -489.9 L-888.3 -488.9 L-888.3 -488 Z " />
<path stroke="rgb(0,0,0)" stroke-opacity="1" fill="rgb(255,255,255)" fill-opacity="1" d="M-192 129.8 L-193.9 129.9 L-195.9 129.8 L-197.8 129.6 L-199.7 129.2 L-201.6 128.7 L-203.5 128 L-205.3 127.2 L-207 126.3 L-208.6 125.2 L-210.1 124 L-211.6 122.6 L-212.9 121.2 L-214.1 119.7 L-215.2 118 L-216.1 116.3 L-216.9 114.5 L-217.6 112.7 L-218.1 110.8 L-218.5 108.9 L-218.7 106.9 L-218.7 105 L-218.6 103 L-218.4 101.1 L-218 99.18 L-217.4 97.31 L-216.7 95.49 L-215.8 93.72 L-214.9 92.03 L-213.7 90.43 L-212.5 88.92 L-211.1 87.51 L-209.7 86.22 L-208.1 85.04 L-206.5 83.99 L-204.7 83.08 L-202.9 82.31 L-201.1 81.68 L-199.2 81.2 L-197.3 80.88 L-195.3 80.71 L-193.4 80.69 L-191.4 80.83 L-189.5 81.12 L-187.6 81.57 L-185.7 82.17 L-183.9 82.91 L-182.1 83.79 L-180.5 84.81 L-178.9 85.96 L-177.4 87.23 L-176 88.62 L-174.8 90.11 L-173.6 91.7 L-172.6 93.37 L-171.7 95.12 L-171 96.93 L-170.4 98.8 L-170 100.7 L-169.7 102.6 L-169.5 104.6 L-169.6 106.5 L-169.7 108.5 L-170.1 110.4 L-170.6 112.3 L-171.2 114.2 L-172 116 L-172.9 117.7 L-173.9 119.3 L-175.1 120.9 L-176.4 122.4 L-177.8 123.7 L-179.4 124.9 L-181 126.1 L-182.7 127 L-184.4 127.9 L-186.2 128.6 L-188.1 129.1 L-190 129.5 L-192 129.8 Z " />
<path stroke="rgb(0,0,0)" stroke-opacity="1" fill="rgb(255,255,255)" fill-opacity="1" d="M-688.3 -488 L-689.3 -488 L-690.3 -488 L-691.2 -488 L-692.2 -488 L-693.2 -488 L-694.2 -488 L-695.1 -488 L-696.1 -488.1 L-697.1 -488.1 L-698.1 -488.1 L-699.1 -488.1 L-700 -488.1 L-701 -488.1 L-702 -488.1 L-703 -488.2 L-703.9 -488.2 L-704.9 -488.2 L-705.9 -488.2 L-706.9 -488.2 L-707.9 -488.2 L-708.8 -488.2 L-709.8 -488.3 L-710.8 -488.3 L-711.8 -488.3 L-712.8 -488.3 L-712.7 -489.3 L-712.7 -490.3 L-712.7 -491.2 L-712.7 -492.2 L-712.7 -493.2 L-712.7 -494.2 L-712.7 -495.1 L-712.6 -496.1 L-712.6 -497.1 L-712.6 -498.1 L-712.6 -499.1 L-712.6 -500 L-712.6 -501 L-712.6 -502 L-712.5 -503 L-712.5 -504 L-712.5 -504.9 L-712.5 -505.9 L-712.5 -506.9 L-712.5 -507.9 L-712.5 -508.8 L-712.5 -509.8 L-712.4 -510.8 L-712.4 -511.8 L-712.4 -512.8 L-711.4 -512.7 L-710.5 -512.7 L-709.5 -512.7 L-708.5 -512.7 L-707.5 -512.7 L-706.5 -512.7 L-705.6 -512.7 L-704.6 -512.6 L-703.6 -512.6 L-702.6 -512.6 L-701.6 -512.6 L-700.7 -512.6 L-699.7 -512.6 L-698.7 -512.6 L-697.7 -512.6 L-696.8 -512.5 L-695.8 -512.5 L-694.8 -512.5 L-693.8 -512.5 L-692.8 -512.5 L-691.9 -512.5 L-690.9 -512.5 L-689.9 -512.4 L-688.9 -512.4 L-687.9 -512.4 L-688 -511.4 L-688 -510.5 L-688 -509.5 L-688 -508.5 L-688 -507.5 L-688 -506.5 L-688 -505.6 L-688.1 -504.6 L-688.1 -503.6 L-688.1 -502.6 L-688.1 -501.7 L-688.1 -500.7 L-688.1 -499.7 L-688.1 -498.7 L-688.2 -497.7 L-688.2 -496.8 L-688.2 -495.8 L-688.2 -494.8 L-688.2 -493.8 L-688.2 -492.8 L-688.2 -491.9 L-688.3 -490.9 L-688.3 -489.9 L-688.3 -488.9 L-688.3 -488 Z " />
<path stroke="rgb(0,0,0)" stroke-opacity="1" fill="rgb(255,255,255)" fill-opacity="1" d="M1.52 125.2 L-0.4356 125.1 L-2.381 124.9 L-4.303 124.5 L-6.191 124 L-8.033 123.4 L-9.816 122.6 L-11.53 121.6 L-13.16 120.6 L-14.7 119.3 L-16.15 118 L-17.48 116.6 L-18.69 115.1 L-19.78 113.4 L-20.74 111.7 L-21.56 110 L-22.23 108.1 L-22.76 106.2 L-23.13 104.3 L-23.35 102.4 L-23.42 100.4 L-23.33 98.46 L-23.08 96.52 L-22.68 94.61 L-22.14 92.73 L-21.44 90.9 L-20.6 89.13 L-19.62 87.44 L-18.51 85.83 L-17.28 84.31 L-15.93 82.89 L-14.47 81.59 L-12.92 80.41 L-11.27 79.35 L-9.544 78.43 L-7.751 77.65 L-5.902 77.01 L-4.008 76.52 L-2.081 76.18 L-0.1332 76 L1.823 75.97 L3.774 76.1 L5.71 76.39 L7.617 76.82 L9.483 77.41 L11.3 78.14 L13.05 79.02 L14.72 80.03 L16.31 81.17 L17.8 82.43 L19.19 83.81 L20.47 85.29 L21.62 86.87 L22.64 88.54 L23.53 90.28 L24.28 92.09 L24.88 93.95 L25.33 95.86 L25.63 97.79 L25.77 99.74 L25.76 101.7 L25.59 103.6 L25.27 105.6 L24.79 107.5 L24.17 109.3 L23.4 111.1 L22.49 112.9 L21.45 114.5 L20.28 116.1 L18.98 117.5 L17.58 118.9 L16.07 120.2 L14.47 121.3 L12.78 122.3 L11.02 123.1 L9.197 123.8 L7.324 124.4 L5.412 124.8 L3.473 125.1 L1.52 125.2 Z " />
<path stroke="rgb(0,0,0)" stroke-opacity="1" fill="rgb(255,255,255)" fill-opacity="1" d="M-488 -487.7 L-489 -487.7 L-489.9 -487.8 L-490.9 -487.8 L-491.9 -487.8 L-492.9 -487.8 L-493.8 -487.8 L-494.8 -487.8 L-495.8 -487.8 L-496.8 -487.8 L-497.8 -487.8 L-498.7 -487.8 L-499.7 -487.8 L-500.7 -487.9 L-501.7 -487.9 L-502.7 -487.9 L-503.6 -487.9 L-504.6 -487.9 L-505.6 -487.9 L-506.6 -487.9 L-507.5 -487.9 L-508.5 -487.9 L-509.5 -487.9 L-510.5 -488 L-511.5 -488 L-512.4 -488 L-512.4 -489 L-512.4 -489.9 L-512.4 -490.9 L-512.4 -491.9 L-512.4 -492.9 L-512.4 -493.8 L-512.4 -494.8 L-512.4 -495.8 L-512.4 -496.8 L-512.3 -497.8 L-512.3 -498.7 L-512.3 -499.7 L-512.3 -500.7 L-512.3 -501.7 L-512.3 -502.7 L-512.3 -503.6 L-512.3 -504.6 L-512.3 -505.6 L-512.3 -506.6 L-512.2 -507.5 L-512.2 -508.5 L-512.2 -509.5 L-512.2 -510.5 L-512.2 -511.5 L-512.2 -512.4 L-511.2 -512.4 L-510.2 -512.4 L-509.3 -512.4 L-508.3 -512.4 L-507.3 -512.4 L-506.3 -512.4 L-505.3 -512.4 L-504.4 -512.4 L-503.4 -512.4 L-502.4 -512.3 L-501.4 -512.3 L-500.5 -512.3 L-499.5 -512.3 L-498.5 -512.3 L-497.5 -512.3 L-496.5 -512.3 L-495.6 -512.3 L-494.6 -512.3 L-493.6 -512.3 L-492.6 -512.2 L-491.6 -512.2 L-490.7 -512.2 L-489.7 -512.2 L-488.7 -512.2 L-487.7 -512.2 L-487.7 -511.2 L-487.8 -510.2 L-487.8 -509.3 L-487.8 -508.3 L-487.8 -507.3 L-487.8 -506.3 L-487.8 -505.3 L-487.8 -504.4 L-487.8 -503.4 L-487.8 -502.4 L-487.8 -501.4 L-487.8 -500.5 L-487.9 -499.5 L-487.9 -498.5 L-487.9 -497.5 L-487.9 -496.5 L-487.9 -495.6 L-487.9 -494.6 L-487.9 -493.6 L-487.9 -492.6 L-487.9 -491.6 L-487.9 -490.7 L-488 -489.7 L-488 -488.7 L-488 -487.7 Z " />
<path stroke="rgb(0,0,0)" stroke-opacity="1" fill="rgb(255,255,255)" fill-opacity="1" d="M200.3 124.3 L198.4 124.2 L196.4 124 L194.5 123.6 L192.6 123.1 L190.8 122.4 L189 121.6 L187.3 120.6 L185.7 119.5 L184.2 118.3 L182.8 116.9 L181.4 115.5 L180.2 113.9 L179.2 112.3 L178.2 110.6 L177.5 108.8 L176.8 106.9 L176.3 105 L176 103.1 L175.8 101.2 L175.7 99.21 L175.8 97.26 L176.1 95.32 L176.5 93.41 L177.1 91.54 L177.8 89.72 L178.7 87.97 L179.7 86.29 L180.8 84.69 L182.1 83.19 L183.4 81.79 L184.9 80.51 L186.5 79.35 L188.2 78.31 L189.9 77.41 L191.7 76.66 L193.6 76.04 L195.5 75.58 L197.4 75.27 L199.3 75.12 L201.3 75.12 L203.2 75.27 L205.2 75.58 L207.1 76.04 L208.9 76.66 L210.7 77.41 L212.5 78.31 L214.1 79.34 L215.7 80.51 L217.2 81.79 L218.6 83.19 L219.8 84.69 L220.9 86.28 L221.9 87.96 L222.8 89.72 L223.5 91.54 L224.1 93.41 L224.5 95.32 L224.8 97.25 L224.9 99.21 L224.9 101.2 L224.7 103.1 L224.3 105 L223.8 106.9 L223.2 108.8 L222.4 110.6 L221.5 112.3 L220.4 113.9 L219.2 115.5 L217.9 116.9 L216.5 118.3 L214.9 119.5 L213.3 120.6 L211.6 121.5 L209.8 122.4 L208 123.1 L206.1 123.6 L204.2 124 L202.3 124.2 L200.3 124.3 Z " />
<path stroke="rgb(0,0,0)" stroke-opacity="1" fill="rgb(255,255,255)" fill-opacity="1" d="M-988.3 -388 L-989.3 -388 L-990.3 -388 L-991.2 -388 L-992.2 -388 L-993.2 -388 L-994.2 -388 L-995.1 -388 L-996.1 -388.1 L-997.1 -388.1 L-998.1 -388.1 L-999.1 -388.1 L-1000 -388.1 L-1001 -388.1 L-1002 -388.1 L-1003 -388.2 L-1004 -388.2 L-1005 -388.2 L-1006 -388.2 L-1007 -388.2 L-1008 -388.2 L-1009 -388.2 L-1010 -388.3 L-1011 -388.3 L-1012 -388.3 L-1013 -388.3 L-1013 -389.3 L-1013 -390.3 L-1013 -391.2 L-1013 -392.2 L-1013 -393.2 L-1013 -394.2 L-1013 -395.1 L-1013 -396.1 L-1013 -397.1 L-1013 -398.1 L-1013 -399.1 L-1013 -400 L-1013 -401 L-1013 -402 L-1013 -403 L-1013 -404 L-1013 -404.9 L-1013 -405.9 L-1012 -406.9 L-1012 -407.9 L-1012 -408.8 L-1012 -409.8 L-1012 -410.8 L-1012 -411.8 L-1012 -412.8 L-1011 -412.7 L-1010 -412.7 L-1009 -412.7 L-1008 -412.7 L-1008 -412.7 L-1007 -412.7 L-1006 -412.7 L-1005 -412.6 L-1004 -412.6 L-1003 -412.6 L-1002 -412.6 L-1001 -412.6 L-999.7 -412.6 L-998.7 -412.6 L-997.7 -412.6 L-996.8 -412.5 L-995.8 -412.5 L-994.8 -412.5 L-993.8 -412.5 L-992.8 -412.5 L-991.9 -412.5 L-990.9 -412.5 L-989.9 -412.4 L-988.9 -412.4 L-987.9 -412.4 L-988 -411.4 L-988 -410.5 L-988 -409.5 L-988 -408.5 L-988 -407.5 L-988 -406.5 L-988 -405.6 L-988.1 -404.6 L-988.1 -403.6 L-988.1 -402.6 L-988.1 -401.7 L-988.1 -400.7 L-988.1 -399.7 L-988.1 -398.7 L-988.2 -397.7 L-988.2 -396.8 L-988.2 -395.8 L-988.2 -394.8 L-988.2 -393.8 L-988.2 -392.8 L-988.2 -391.9 L-988.3 -390.9 L-988.3 -389.9 L-988.3 -388.9 L-988.3 -388 Z " />
<path stroke="rgb(0,0,0)" stroke-opacity="1" fill="rgb(255,255,255)" fill-opacity="1" d="M-292 229.8 L-293.9 229.9 L-295.9 229.8 L-297.8 229.6 L-299.7 229.2 L-301.6 228.7 L-303.5 228 L-305.3 227.2 L-307 226.3 L-308.6 225.2 L-310.1 224 L-311.6 222.6 L-312.9 221.2 L-314.1 219.7 L-315.2 218 L-316.1 216.3 L-316.9 214.5 L-317.6 212.7 L-318.1 210.8 L-318.5 208.9 L-318.7 206.9 L-318.7 205 L-318.6 203 L-318.4 201.1 L-318 199.2 L-317.4 197.3 L-316.7 195.5 L-315.8 193.7 L-314.9 192 L-313.7 190.4 L-312.5 188.9 L-311.1 187.5 L-309.7 186.2 L-308.1 185 L-306.5 184 L-304.7 183.1 L-302.9 182.3 L-301.1 181.7 L-299.2 181.2 L-297.3 180.9 L-295.3 180.7 L-293.4 180.7 L-291.4 180.8 L-289.5 181.1 L-287.6 181.6 L-285.7 182.2 L-283.9 182.9 L-282.1 183.8 L-280.5 184.8 L-278.9 186 L-277.4 187.2 L-276 188.6 L-274.8 190.1 L-273.6 191.7 L-272.6 193.4 L-271.7 195.1 L-271 196.9 L-270.4 198.8 L-270 200.7 L-269.7 202.6 L-269.5 204.6 L-269.6 206.5 L-269.7 208.5 L-270.1 210.4 L-270.6 212.3 L-271.2 214.2 L-272 216 L-272.9 217.7 L-273.9 219.3 L-275.1 220.9 L-276.4 222.4 L-277.8 223.7 L-279.4 224.9 L-281 226.1 L-282.7 227 L-284.4 227.9 L-286.2 228.6 L-288.1 229.1 L-290 229.5 L-292 229.8 Z " />
<path stroke="rgb(0,0,0)" stroke-opacity="1" fill="rgb(255,255,255)" fill-opacity="1" d="M-788.3 -388 L-789.3 -388 L-790.3 -388 L-791.2 -388 L-792.2 -388 L-793.2 -388 L-794.2 -388 L-795.1 -388 L-796.1 -388.1 L-797.1 -388.1 L-798.1 -388.1 L-799.1 -388.1 L-800 -388.1 L-801 -388.1 L-802 -388.1 L-803 -388.2 L-803.9 -388.2 L-804.9 -388.2 L-805.9 -388.2 L-806.9 -388.2 L-807.9 -388.2 L-808.8 -388.2 L-809.8 -388.3 L-810.8 -388.3 L-811.8 -388.3 L-812.8 -388.3 L-812.7 -389.3 L-812.7 -390.3 L-812.7 -391.2 L-812.7 -392.2 L-812.7 -393.2 L-812.7 -394.2 L-812.7 -395.1 L-812.6 -396.1 L-812.6 -397.1 L-812.6 -398.1 L-812.6 -399.1 L-812.6 -400 L-812.6 -401 L-812.6 -402 L-812.5 -403 L-812.5 -404 L-812.5 -404.9 L-812.5 -405.9 L-812.5 -406.9 L-812.5 -407.9 L-812.5 -408.8 L-812.5 -409.8 L-812.4 -410.8 L-812.4 -411.8 L-812.4 -412.8 L-811.4 -412.7 L-810.5 -412.7 L-809.5 -412.7 L-808.5 -412.7 L-807.5 -412.7 L-806.5 -412.7 L-805.6 -412.7 L-804.6 -412.6 L-803.6 -412.6 L-802.6 -412.6 L-801.6 -412.6 L-800.7 -412.6 L-799.7 -412.6 L-798.7 -412.6 L-797.7 -412.6 L-796.8 -412.5 L-795.8 -412.5 L-794.8 -412.5 L-793.8 -412.5 L-792.8 -412.5 L-791.9 -412.5 L-790.9 -412.5 L-789.9 -412.4 L-788.9 -412.4 L-787.9 -412.4 L-788 -411.4 L-788 -410.5 L-788 -409.5 L-788 -408.5 L-788 -407.5 L-788 -406.5 L-788 -405.6 L-788.1 -404.6 L-788.1 -403.6 L-788.1 -402.6 L-788.1 -401.7 L-788.1 -400.7 L-788.1 -399.7 L-788.1 -398.7 L-788.2 -397.7 L-788.2 -396.8 L-788.2 -395.8 L-788.2 -394.8 L-788.2 -393.8 L-788.2 -392.8 L-788.2 -391.9 L-788.3 -390.9 L-788.3 -389.9 L-788.3 -388.9 L-788.3 -388 Z " />
<path stroke="rgb(0,0,0)" stroke-opacity="1" fill="rgb(255,255,255)" fill-opacity="1" d="M-98.48 225.2 L-100.4 225.1 L-102.4 224.9 L-104.3 224.5 L-106.2 224 L-108 223.4 L-109.8 222.6 L-111.5 221.6 L-113.2 220.6 L-114.7 219.3 L-116.1 218 L-117.5 216.6 L-118.7 215.1 L-119.8 213.4 L-120.7 211.7 L-121.6 210 L-122.2 208.1 L-122.8 206.2 L-123.1 204.3 L-123.4 202.4 L-123.4 200.4 L-123.3 198.5 L-123.1 196.5 L-122.7 194.6 L-122.1 192.7 L-121.4 190.9 L-120.6 189.1 L-119.6 187.4 L-118.5 185.8 L-117.3 184.3 L-115.9 182.9 L-114.5 181.6 L-112.9 180.4 L-111.3 179.3 L-109.5 178.4 L-107.8 177.6 L-105.9 177 L-104 176.5 L-102.1 176.2 L-100.1 176 L-98.18 176 L-96.23 176.1 L-94.29 176.4 L-92.38 176.8 L-90.52 177.4 L-88.7 178.1 L-86.95 179 L-85.28 180 L-83.69 181.2 L-82.2 182.4 L-80.81 183.8 L-79.53 185.3 L-78.38 186.9 L-77.36 188.5 L-76.47 190.3 L-75.72 192.1 L-75.12 194 L-74.67 195.9 L-74.37 197.8 L-74.23 199.7 L-74.24 201.7 L-74.41 203.6 L-74.73 205.6 L-75.21 207.5 L-75.83 209.3 L-76.6 211.1 L-77.51 212.9 L-78.55 214.5 L-79.72 216.1 L-81.02 217.5 L-82.42 218.9 L-83.93 220.2 L-85.53 221.3 L-87.22 222.3 L-88.98 223.1 L-90.8 223.8 L-92.68 224.4 L-94.59 224.8 L-96.53 225.1 L-98.48 225.2 Z " />
<path stroke="rgb(0,0,0)" stroke-opacity="1" fill="rgb(255,255,255)" fill-opacity="1" d="M-588 -387.7 L-589 -387.7 L-589.9 -387.8 L-590.9 -387.8 L-591.9 -387.8 L-592.9 -387.8 L-593.8 -387.8 L-594.8 -387.8 L-595.8 -387.8 L-596.8 -387.8 L-597.8 -387.8 L-598.7 -387.8 L-599.7 -387.8 L-600.7 -387.9 L-601.7 -387.9 L-602.7 -387.9 L-603.6 -387.9 L-604.6 -387.9 L-605.6 -387.9 L-606.6 -387.9 L-607.5 -387.9 L-608.5 -387.9 L-609.5 -387.9 L-610.5 -388 L-611.5 -388 L-612.4 -388 L-612.4 -389 L-612.4 -389.9 L-612.4 -390.9 L-612.4 -391.9 L-612.4 -392.9 L-612.4 -393.8 L-612.4 -394.8 L-612.4 -395.8 L-612.4 -396.8 L-612.3 -397.8 L-612.3 -398.7 L-612.3 -399.7 L-612.3 -400.7 L-612.3 -401.7 L-612.3 -402.7 L-612.3 -403.6 L-612.3 -404.6 L-612.3 -405.6 L-612.3 -406.6 L-612.2 -407.5 L-612.2 -408.5 L-612.2 -409.5 L-612.2 -410.5 L-612.2 -411.5 L-612.2 -412.4 L-611.2 -412.4 L-610.2 -412.4 L-609.3 -412.4 L-608.3 -412.4 L-607.3 -412.4 L-606.3 -412.4 L-605.3 -412.4 L-604.4 -412.4 L-603.4 -412.4 L-602.4 -412.3 L-601.4 -412.3 L-600.5 -412.3 L-599.5 -412.3 L-598.5 -412.3 L-597.5 -412.3 L-596.5 -412.3 L-595.6 -412.3 L-594.6 -412.3 L-593.6 -412.3 L-592.6 -412.2 L-591.6 -412.2 L-590.7 -412.2 L-589.7 -412.2 L-588.7 -412.2 L-587.7 -412.2 L-587.7 -411.2 L-587.8 -410.2 L-587.8 -409.3 L-587.8 -408.3 L-587.8 -407.3 L-587.8 -406.3 L-587.8 -405.3 L-587.8 -404.4 L-587.8 -403.4 L-587.8 -402.4 L-587.8 -401.4 L-587.8 -400.5 L-587.9 -399.5 L-587.9 -398.5 L-587.9 -397.5 L-587.9 -396.5 L-587.9 -395.6 L-587.9 -394.6 L-587.9 -393.6 L-587.9 -392.6 L-587.9 -391.6 L-587.9 -390.7 L-588 -389.7 L-588 -388.7 L-588 -387.7 Z " />
<path stroke="rgb(0,0,0)" stroke-opacity="1" fill="rgb(255,255,255)" fill-opacity="1" d="M100.3 224.3 L98.37 224.2 L96.42 224 L94.51 223.6 L92.62 223.1 L90.79 222.4 L89.02 221.6 L87.32 220.6 L85.7 219.5 L84.18 218.3 L82.75 216.9 L81.44 215.5 L80.25 213.9 L79.18 212.3 L78.25 210.6 L77.45 208.8 L76.8 206.9 L76.3 205 L75.96 203.1 L75.76 201.2 L75.72 199.2 L75.84 197.3 L76.11 195.3 L76.53 193.4 L77.11 191.5 L77.83 189.7 L78.69 188 L79.69 186.3 L80.82 184.7 L82.08 183.2 L83.45 181.8 L84.92 180.5 L86.5 179.3 L88.16 178.3 L89.89 177.4 L91.7 176.7 L93.56 176 L95.46 175.6 L97.39 175.3 L99.34 175.1 L101.3 175.1 L103.2 175.3 L105.2 175.6 L107.1 176 L108.9 176.7 L110.7 177.4 L112.5 178.3 L114.1 179.3 L115.7 180.5 L117.2 181.8 L118.6 183.2 L119.8 184.7 L120.9 186.3 L121.9 188 L122.8 189.7 L123.5 191.5 L124.1 193.4 L124.5 195.3 L124.8 197.3 L124.9 199.2 L124.9 201.2 L124.7 203.1 L124.3 205 L123.8 206.9 L123.2 208.8 L122.4 210.6 L121.5 212.3 L120.4 213.9 L119.2 215.5 L117.9 216.9 L116.5 218.3 L114.9 219.5 L113.3 220.6 L111.6 221.5 L109.8 222.4 L108 223.1 L106.1 223.6 L104.2 224 L102.3 224.2 L100.3 224.3 Z " />
<path stroke="rgb(0,0,0)" stroke-opacity="1" fill="rgb(255,255,255)" fill-opacity="1" d="M-384.9 -385.6 L-385.9 -385.6 L-386.8 -385.6 L-387.8 -385.5 L-388.8 -385.5 L-389.8 -385.5 L-390.7 -385.4 L-391.7 -385.4 L-392.7 -385.4 L-393.7 -385.4 L-394.7 -385.3 L-395.6 -385.3 L-396.6 -385.3 L-397.6 -385.2 L-398.6 -385.2 L-399.6 -385.2 L-400.5 -385.1 L-401.5 -385.1 L-402.5 -385.1 L-403.5 -385.1 L-404.4 -385 L-405.4 -385 L-406.4 -385 L-407.4 -384.9 L-408.4 -384.9 L-409.3 -384.9 L-409.4 -385.8 L-409.4 -386.8 L-409.4 -387.8 L-409.5 -388.8 L-409.5 -389.8 L-409.5 -390.7 L-409.5 -391.7 L-409.6 -392.7 L-409.6 -393.7 L-409.6 -394.7 L-409.7 -395.6 L-409.7 -396.6 L-409.7 -397.6 L-409.8 -398.6 L-409.8 -399.5 L-409.8 -400.5 L-409.8 -401.5 L-409.9 -402.5 L-409.9 -403.5 L-409.9 -404.4 L-410 -405.4 L-410 -406.4 L-410 -407.4 L-410.1 -408.3 L-410.1 -409.3 L-409.1 -409.4 L-408.1 -409.4 L-407.2 -409.4 L-406.2 -409.4 L-405.2 -409.5 L-404.2 -409.5 L-403.2 -409.5 L-402.3 -409.6 L-401.3 -409.6 L-400.3 -409.6 L-399.3 -409.7 L-398.4 -409.7 L-397.4 -409.7 L-396.4 -409.7 L-395.4 -409.8 L-394.4 -409.8 L-393.5 -409.8 L-392.5 -409.9 L-391.5 -409.9 L-390.5 -409.9 L-389.5 -410 L-388.6 -410 L-387.6 -410 L-386.6 -410.1 L-385.6 -410.1 L-385.6 -409.1 L-385.6 -408.1 L-385.5 -407.1 L-385.5 -406.2 L-385.5 -405.2 L-385.5 -404.2 L-385.4 -403.2 L-385.4 -402.3 L-385.4 -401.3 L-385.3 -400.3 L-385.3 -399.3 L-385.3 -398.3 L-385.2 -397.4 L-385.2 -396.4 L-385.2 -395.4 L-385.2 -394.4 L-385.1 -393.5 L-385.1 -392.5 L-385.1 -391.5 L-385 -390.5 L-385 -389.5 L-385 -388.6 L-384.9 -387.6 L-384.9 -386.6 L-384.9 -385.6 Z " />
</g>
</g>
</svg>
