<!DOCTYPE svg>
<svg xmlns="http://www.w3.org/2000/svg" xmlns:xlink="http://www.w3.org/1999/xlink" width="1000" height="1000">
<g transform="translate(500.000000,500.000000)">
<g transform="scale(3.000000,3.000000)">
<path stroke="rgb(0,0,0)" stroke-opacity="1" fill="rgb(255,255,255)" fill-opacity="1" d="M-775.6 -824.3 L-775.6 -822.4 L-775.7 -820.4 L-775.7 -818.4 L-775.7 -816.5 L-775.7 -814.5 L-775.7 -812.5 L-775.8 -810.6 L-775.8 -808.6 L-775.8 -806.6 L-775.8 -804.7 L-775.9 -802.7 L-775.9 -800.7 L-775.9 -798.7 L-775.9 -796.8 L-775.9 -794.8 L-776 -792.8 L-776 -790.9 L-776 -788.9 L-776 -786.9 L-776 -785 L-776.1 -783 L-776.1 -781 L-776.1 -779.1 L-776.1 -777.1 L-776.2 -775.1 L-778.1 -775.2 L-780.1 -775.2 L-782.1 -775.2 L-784 -775.2 L-786 -775.2 L-788 -775.3 L-789.9 -775.3 L-791.9 -775.3 L-793.9 -775.3 L-795.8 -775.3 L-797.8 -775.4 L-799.8 -775.4 L-801.7 -775.4 L-803.7 -775.4 L-805.7 -775.5 L-807.6 -775.5 L-809.6 -775.5 L-811.6 -775.5 L-813.5 -775.5 L-815.5 -775.6 L-817.5 -775.6 L-819.4 -775.6 L-821.4 -775.6 L-823.4 -775.6 L-825.3 -775.7 L-825.3 -777.6 L-825.3 -779.6 L-825.3 -781.6 L-825.3 -783.5 L-825.2 -785.5 L-825.2 -787.5 L-825.2 -789.4 L-825.2 -791.4 L-825.2 -793.4 L-825.1 -795.3 L-825.1 -797.3 L-825.1 -799.3 L-825.1 -801.2 L-825 -803.2 L-825 -805.2 L-825 -807.1 L-825 -809.1 L-825 -811.1 L-824.9 -813.1 L-824.9 -815 L-824.9 -817 L-824.9 -819 L-824.9 -820.9 L-824.8 -822.9 L-824.8 -824.9 L-822.8 -824.8 L-820.9 -824.8 L-818.9 -824.8 L-816.9 -824.8 L-815 -824.8 L-813 -824.7 L-811 -824.7 L-809.1 -824.7 L-807.1 -824.7 L-805.1 -824.6 L-803.2 -824.6 L-801.2 -824.6 L-799.2 -824.6 L-797.3 -824.6 L-795.3 -824.5 L-793.3 -824.5 L-791.4 -824.5 L-789.4 -824.5 L-787.4 -824.5 L-785.5 -824.4 L-783.5 -824.4 L-781.5 -824.4 L-779.6 -824.4 L-777.6 -824.3 L-775.6 -824.3 Z " />
<path stroke="rgb(0,0,0)" stroke-opacity="0.852" fill="rgb(255,255,255)" fill-opacity="1" d="M-175.2 -299.7 L-175.3 -297.8 L-175.6 -295.8 L-176 -293.9 L-176.6 -292 L-177.3 -290.2 L-178.1 -288.4 L-179.1 -286.7 L-180.3 -285.1 L-181.5 -283.6 L-182.9 -282.1 L-184.3 -280.8 L-185.9 -279.7 L-187.6 -278.6 L-189.3 -277.7 L-191.1 -276.9 L-193 -276.3 L-194.9 -275.8 L-196.8 -275.5 L-198.8 -275.3 L-200.8 -275.3 L-202.7 -275.4 L-204.7 -275.7 L-206.6 -276.1 L-208.5 -276.7 L-210.3 -277.5 L-212 -278.4 L-213.7 -279.4 L-215.3 -280.6 L-216.8 -281.8 L-218.2 -283.2 L-219.5 -284.7 L-220.6 -286.3 L-221.6 -288 L-222.5 -289.8 L-223.3 -291.6 L-223.9 -293.5 L-224.3 -295.4 L-224.6 -297.3 L-224.7 -299.3 L-224.7 -301.3 L-224.5 -303.2 L-224.2 -305.2 L-223.7 -307.1 L-223.1 -308.9 L-222.3 -310.7 L-221.4 -312.5 L-220.3 -314.1 L-219.1 -315.7 L-217.8 -317.2 L-216.4 -318.5 L-214.9 -319.8 L-213.3 -320.9 L-211.6 -321.9 L-209.8 -322.7 L-207.9 -323.4 L-206.1 -324 L-204.1 -324.4 L-202.2 -324.7 L-200.2 -324.8 L-198.3 -324.7 L-196.3 -324.5 L-194.4 -324.1 L-192.5 -323.6 L-190.6 -322.9 L-188.8 -322.1 L-187.1 -321.1 L-185.5 -320 L-183.9 -318.8 L-182.5 -317.5 L-181.1 -316 L-179.9 -314.5 L-178.8 -312.9 L-177.9 -311.1 L-177.1 -309.3 L-176.4 -307.5 L-175.9 -305.6 L-175.5 -303.7 L-175.3 -301.7 L-175.2 -299.7 Z " />
<path stroke="rgb(0,0,0)" stroke-opacity="1" fill="rgb(255,255,255)" fill-opacity="1" d="M-577.7 -825.1 L-577.6 -823.2 L-577.5 -821.3 L-577.4 -819.4 L-577.3 -817.4 L-577.2 -815.5 L-577.1 -813.6 L-577 -811.7 L-577 -809.8 L-576.9 -807.9 L-576.8 -805.9 L-576.7 -804 L-576.6 -802.1 L-576.5 -800.2 L-576.4 -798.3 L-576.3 -796.4 L-576.2 -794.5 L-576.1 -792.5 L-576 -790.6 L-575.9 -788.7 L-575.8 -786.8 L-575.7 -784.9 L-575.6 -783 L-575.5 -781.1 L-575.5 -779.1 L-575.4 -777.2 L-577.3 -777.1 L-579.2 -777 L-581.1 -777 L-583 -776.9 L-584.9 -776.8 L-586.8 -776.7 L-588.8 -776.6 L-590.7 -776.5 L-592.6 -776.4 L-594.5 -776.3 L-596.4 -776.2 L-598.3 -776.1 L-600.2 -776 L-602.2 -775.9 L-604.1 -775.8 L-606 -775.7 L-607.9 -775.6 L-609.8 -775.5 L-611.7 -775.4 L-613.6 -775.4 L-615.6 -775.3 L-617.5 -775.2 L-619.4 -775.1 L-621.3 -775 L-623.2 -774.9 L-623.3 -776.8 L-623.4 -778.7 L-623.5 -780.6 L-623.6 -782.5 L-623.7 -784.5 L-623.8 -786.4 L-623.9 -788.3 L-624 -790.2 L-624.1 -792.1 L-624.2 -794 L-624.3 -795.9 L-624.3 -797.9 L-624.4 -799.8 L-624.5 -801.7 L-624.6 -803.6 L-624.7 -805.5 L-624.8 -807.4 L-624.9 -809.3 L-625 -811.3 L-625.1 -813.2 L-625.2 -815.1 L-625.3 -817 L-625.4 -818.9 L-625.5 -820.8 L-625.6 -822.7 L-623.7 -822.8 L-621.7 -822.9 L-619.8 -823 L-617.9 -823.1 L-616 -823.2 L-614.1 -823.3 L-612.2 -823.4 L-610.3 -823.5 L-608.3 -823.6 L-606.4 -823.7 L-604.5 -823.8 L-602.6 -823.9 L-600.7 -824 L-598.8 -824.1 L-596.9 -824.2 L-594.9 -824.2 L-593 -824.3 L-591.1 -824.4 L-589.2 -824.5 L-587.3 -824.6 L-585.4 -824.7 L-583.5 -824.8 L-581.5 -824.9 L-579.6 -825 L-577.7 -825.1 Z " />
<path stroke="rgb(0,0,0)" stroke-opacity="0.852" fill="rgb(255,255,255)" fill-opacity="1" d="M24.75 -299.7 L24.65 -297.8 L24.4 -295.8 L23.99 -293.9 L23.43 -292 L22.72 -290.2 L21.86 -288.4 L20.87 -286.7 L19.75 -285.1 L18.5 -283.6 L17.14 -282.1 L15.66 -280.8 L14.09 -279.7 L12.43 -278.6 L10.69 -277.7 L8.881 -276.9 L7.018 -276.3 L5.11 -275.8 L3.169 -275.5 L1.209 -275.3 L-0.7591 -275.3 L-2.722 -275.4 L-4.668 -275.7 L-6.584 -276.1 L-8.459 -276.7 L-10.28 -277.5 L-12.04 -278.4 L-13.72 -279.4 L-15.31 -280.6 L-16.81 -281.8 L-18.2 -283.2 L-19.47 -284.7 L-20.62 -286.3 L-21.65 -288 L-22.53 -289.8 L-23.27 -291.6 L-23.87 -293.5 L-24.31 -295.4 L-24.6 -297.3 L-24.74 -299.3 L-24.72 -301.3 L-24.54 -303.2 L-24.21 -305.2 L-23.72 -307.1 L-23.08 -308.9 L-22.3 -310.7 L-21.38 -312.5 L-20.32 -314.1 L-19.13 -315.7 L-17.83 -317.2 L-16.41 -318.5 L-14.88 -319.8 L-13.26 -320.9 L-11.56 -321.9 L-9.786 -322.7 L-7.949 -323.4 L-6.062 -324 L-4.136 -324.4 L-2.185 -324.7 L-0.2188 -324.8 L1.748 -324.7 L3.704 -324.5 L5.637 -324.1 L7.534 -323.6 L9.383 -322.9 L11.17 -322.1 L12.89 -321.1 L14.53 -320 L16.08 -318.8 L17.52 -317.5 L18.86 -316 L20.07 -314.5 L21.16 -312.9 L22.11 -311.1 L22.93 -309.3 L23.6 -307.5 L24.12 -305.6 L24.48 -303.7 L24.7 -301.7 L24.75 -299.7 Z " />
<path stroke="rgb(0,0,0)" stroke-opacity="1" fill="rgb(255,255,255)" fill-opacity="1" d="M-388.6 -826.9 L-388 -825.3 L-387.4 -823.8 L-386.8 -822.2 L-386.2 -820.7 L-385.6 -819.2 L-385 -817.6 L-384.3 -816.1 L-383.7 -814.5 L-383.1 -813 L-382.5 -811.4 L-381.9 -809.9 L-381.3 -808.3 L-380.7 -806.8 L-380.1 -805.2 L-379.5 -803.7 L-378.9 -802.1 L-378.3 -800.6 L-377.7 -799 L-377.1 -797.5 L-376.5 -795.9 L-375.9 -794.4 L-375.3 -792.9 L-374.6 -791.3 L-374 -789.8 L-373.4 -788.2 L-375 -787.6 L-376.5 -787 L-378.1 -786.4 L-379.6 -785.8 L-381.2 -785.2 L-382.7 -784.6 L-384.3 -784 L-385.8 -783.4 L-387.4 -782.8 L-388.9 -782.1 L-390.5 -781.5 L-392 -780.9 L-393.5 -780.3 L-395.1 -779.7 L-396.6 -779.1 L-398.2 -778.5 L-399.7 -777.9 L-401.3 -777.3 L-402.8 -776.7 L-404.4 -776.1 L-405.9 -775.5 L-407.5 -774.9 L-409 -774.3 L-410.6 -773.7 L-412.1 -773.1 L-412.7 -774.6 L-413.3 -776.1 L-413.9 -777.7 L-414.5 -779.2 L-415.1 -780.8 L-415.8 -782.3 L-416.4 -783.9 L-417 -785.4 L-417.6 -787 L-418.2 -788.5 L-418.8 -790.1 L-419.4 -791.6 L-420 -793.2 L-420.6 -794.7 L-421.2 -796.3 L-421.8 -797.8 L-422.4 -799.4 L-423 -800.9 L-423.6 -802.4 L-424.2 -804 L-424.8 -805.5 L-425.5 -807.1 L-426.1 -808.6 L-426.7 -810.2 L-427.3 -811.7 L-425.7 -812.3 L-424.2 -812.9 L-422.6 -813.5 L-421.1 -814.2 L-419.5 -814.8 L-418 -815.4 L-416.4 -816 L-414.9 -816.6 L-413.3 -817.2 L-411.8 -817.8 L-410.3 -818.4 L-408.7 -819 L-407.2 -819.6 L-405.6 -820.2 L-404.1 -820.8 L-402.5 -821.4 L-401 -822 L-399.4 -822.6 L-397.9 -823.2 L-396.3 -823.9 L-394.8 -824.5 L-393.2 -825.1 L-391.7 -825.7 L-390.1 -826.3 L-388.6 -826.9 Z " />
<path stroke="rgb(0,0,0)" stroke-opacity="0.852" fill="rgb(255,255,255)" fill-opacity="1" d="M224.8 -299.7 L224.7 -297.8 L224.4 -295.8 L224 -293.9 L223.4 -292 L222.7 -290.2 L221.9 -288.4 L220.9 -286.7 L219.7 -285.1 L218.5 -283.6 L217.1 -282.1 L215.7 -280.8 L214.1 -279.7 L212.4 -278.6 L210.7 -277.7 L208.9 -276.9 L207 -276.3 L205.1 -275.8 L203.2 -275.5 L201.2 -275.3 L199.2 -275.3 L197.3 -275.4 L195.3 -275.7 L193.4 -276.1 L191.5 -276.7 L189.7 -277.5 L188 -278.4 L186.3 -279.4 L184.7 -280.6 L183.2 -281.8 L181.8 -283.2 L180.5 -284.7 L179.4 -286.3 L178.4 -288 L177.5 -289.8 L176.7 -291.6 L176.1 -293.5 L175.7 -295.4 L175.4 -297.3 L175.3 -299.3 L175.3 -301.3 L175.5 -303.2 L175.8 -305.2 L176.3 -307.1 L176.9 -308.9 L177.7 -310.7 L178.6 -312.5 L179.7 -314.1 L180.9 -315.7 L182.2 -317.2 L183.6 -318.5 L185.1 -319.8 L186.7 -320.9 L188.4 -321.9 L190.2 -322.7 L192.1 -323.4 L193.9 -324 L195.9 -324.4 L197.8 -324.7 L199.8 -324.8 L201.7 -324.7 L203.7 -324.5 L205.6 -324.1 L207.5 -323.6 L209.4 -322.9 L211.2 -322.1 L212.9 -321.1 L214.5 -320 L216.1 -318.8 L217.5 -317.5 L218.9 -316 L220.1 -314.5 L221.2 -312.9 L222.1 -311.1 L222.9 -309.3 L223.6 -307.5 L224.1 -305.6 L224.5 -303.7 L224.7 -301.7 L224.8 -299.7 Z " />
<path stroke="rgb(0,0,0)" stroke-opacity="1" fill="rgb(255,255,255)" fill-opacity="1" d="M-206.4 -820.6 L-205.4 -820 L-204.3 -819.5 L-203.2 -818.9 L-202.1 -818.3 L-201.1 -817.7 L-200 -817.2 L-198.9 -816.6 L-197.8 -816 L-196.8 -815.5 L-195.7 -814.9 L-194.6 -814.3 L-193.6 -813.7 L-192.5 -813.2 L-191.4 -812.6 L-190.3 -812 L-189.3 -811.5 L-188.2 -810.9 L-187.1 -810.3 L-186 -809.7 L-185 -809.2 L-183.9 -808.6 L-182.8 -808 L-181.7 -807.4 L-180.7 -806.9 L-179.6 -806.3 L-180.2 -805.2 L-180.7 -804.1 L-181.3 -803.1 L-181.9 -802 L-182.5 -800.9 L-183 -799.9 L-183.6 -798.8 L-184.2 -797.7 L-184.7 -796.6 L-185.3 -795.6 L-185.9 -794.5 L-186.5 -793.4 L-187 -792.3 L-187.6 -791.3 L-188.2 -790.2 L-188.8 -789.1 L-189.3 -788 L-189.9 -787 L-190.5 -785.9 L-191 -784.8 L-191.6 -783.7 L-192.2 -782.7 L-192.8 -781.6 L-193.3 -780.5 L-193.9 -779.5 L-195 -780 L-196.1 -780.6 L-197.1 -781.2 L-198.2 -781.7 L-199.3 -782.3 L-200.4 -782.9 L-201.4 -783.5 L-202.5 -784 L-203.6 -784.6 L-204.6 -785.2 L-205.7 -785.8 L-206.8 -786.3 L-207.9 -786.9 L-208.9 -787.5 L-210 -788 L-211.1 -788.6 L-212.2 -789.2 L-213.2 -789.8 L-214.3 -790.3 L-215.4 -790.9 L-216.5 -791.5 L-217.5 -792.1 L-218.6 -792.6 L-219.7 -793.2 L-220.8 -793.8 L-220.2 -794.8 L-219.6 -795.9 L-219 -797 L-218.5 -798.1 L-217.9 -799.1 L-217.3 -800.2 L-216.7 -801.3 L-216.2 -802.4 L-215.6 -803.4 L-215 -804.5 L-214.5 -805.6 L-213.9 -806.7 L-213.3 -807.7 L-212.7 -808.8 L-212.2 -809.9 L-211.6 -810.9 L-211 -812 L-210.4 -813.1 L-209.9 -814.2 L-209.3 -815.2 L-208.7 -816.3 L-208.2 -817.4 L-207.6 -818.5 L-207 -819.5 L-206.4 -820.6 Z " />
<path stroke="rgb(0,0,0)" stroke-opacity="0.852" fill="rgb(255,255,255)" fill-opacity="1" d="M-275.2 -199.7 L-275.3 -197.8 L-275.6 -195.8 L-276 -193.9 L-276.6 -192 L-277.3 -190.2 L-278.1 -188.4 L-279.1 -186.7 L-280.3 -185.1 L-281.5 -183.6 L-282.9 -182.1 L-284.3 -180.8 L-285.9 -179.7 L-287.6 -178.6 L-289.3 -177.7 L-291.1 -176.9 L-293 -176.3 L-294.9 -175.8 L-296.8 -175.5 L-298.8 -175.3 L-300.8 -175.3 L-302.7 -175.4 L-304.7 -175.7 L-306.6 -176.1 L-308.5 -176.7 L-310.3 -177.5 L-312 -178.4 L-313.7 -179.4 L-315.3 -180.6 L-316.8 -181.8 L-318.2 -183.2 L-319.5 -184.7 L-320.6 -186.3 L-321.6 -188 L-322.5 -189.8 L-323.3 -191.6 L-323.9 -193.5 L-324.3 -195.4 L-324.6 -197.3 L-324.7 -199.3 L-324.7 -201.3 L-324.5 -203.2 L-324.2 -205.2 L-323.7 -207.1 L-323.1 -208.9 L-322.3 -210.7 L-321.4 -212.5 L-320.3 -214.1 L-319.1 -215.7 L-317.8 -217.2 L-316.4 -218.5 L-314.9 -219.8 L-313.3 -220.9 L-311.6 -221.9 L-309.8 -222.7 L-307.9 -223.4 L-306.1 -224 L-304.1 -224.4 L-302.2 -224.7 L-300.2 -224.8 L-298.3 -224.7 L-296.3 -224.5 L-294.4 -224.1 L-292.5 -223.6 L-290.6 -222.9 L-288.8 -222.1 L-287.1 -221.1 L-285.5 -220 L-283.9 -218.8 L-282.5 -217.5 L-281.1 -216 L-279.9 -214.5 L-278.8 -212.9 L-277.9 -211.1 L-277.1 -209.3 L-276.4 -207.5 L-275.9 -205.6 L-275.5 -203.7 L-275.3 -201.7 L-275.2 -199.7 Z " />
<path stroke="rgb(0,0,0)" stroke-opacity="1" fill="rgb(255,255,255)" fill-opacity="1" d="M-677.7 -725.1 L-677.6 -723.2 L-677.5 -721.3 L-677.4 -719.4 L-677.3 -717.4 L-677.2 -715.5 L-677.1 -713.6 L-677 -711.7 L-677 -709.8 L-676.9 -707.9 L-676.8 -705.9 L-676.7 -704 L-676.6 -702.1 L-676.5 -700.2 L-676.4 -698.3 L-676.3 -696.4 L-676.2 -694.5 L-676.1 -692.5 L-676 -690.6 L-675.9 -688.7 L-675.8 -686.8 L-675.7 -684.9 L-675.6 -683 L-675.5 -681.1 L-675.5 -679.1 L-675.4 -677.2 L-677.3 -677.1 L-679.2 -677 L-681.1 -677 L-683 -676.9 L-684.9 -676.8 L-686.8 -676.7 L-688.8 -676.6 L-690.7 -676.5 L-692.6 -676.4 L-694.5 -676.3 L-696.4 -676.2 L-698.3 -676.1 L-700.2 -676 L-702.2 -675.9 L-704.1 -675.8 L-706 -675.7 L-707.9 -675.6 L-709.8 -675.5 L-711.7 -675.4 L-713.6 -675.4 L-715.6 -675.3 L-717.5 -675.2 L-719.4 -675.1 L-721.3 -675 L-723.2 -674.9 L-723.3 -676.8 L-723.4 -678.7 L-723.5 -680.6 L-723.6 -682.5 L-723.7 -684.5 L-723.8 -686.4 L-723.9 -688.3 L-724 -690.2 L-724.1 -692.1 L-724.2 -694 L-724.3 -695.9 L-724.3 -697.9 L-724.4 -699.8 L-724.5 -701.7 L-724.6 -703.6 L-724.7 -705.5 L-724.8 -707.4 L-724.9 -709.3 L-725 -711.3 L-725.1 -713.2 L-725.2 -715.1 L-725.3 -717 L-725.4 -718.9 L-725.5 -720.8 L-725.6 -722.7 L-723.7 -722.8 L-721.7 -722.9 L-719.8 -723 L-717.9 -723.1 L-716 -723.2 L-714.1 -723.3 L-712.2 -723.4 L-710.3 -723.5 L-708.3 -723.6 L-706.4 -723.7 L-704.5 -723.8 L-702.6 -723.9 L-700.7 -724 L-698.8 -724.1 L-696.9 -724.2 L-694.9 -724.2 L-693 -724.3 L-691.1 -724.4 L-689.2 -724.5 L-687.3 -724.6 L-685.4 -724.7 L-683.5 -724.8 L-681.5 -724.9 L-679.6 -725 L-677.7 -725.1 Z " />
<path stroke="rgb(0,0,0)" stroke-opacity="0.852" fill="rgb(255,255,255)" fill-opacity="1" d="M-75.25 -199.7 L-75.35 -197.8 L-75.6 -195.8 L-76.01 -193.9 L-76.57 -192 L-77.28 -190.2 L-78.14 -188.4 L-79.13 -186.7 L-80.25 -185.1 L-81.5 -183.6 L-82.86 -182.1 L-84.34 -180.8 L-85.91 -179.7 L-87.57 -178.6 L-89.31 -177.7 L-91.12 -176.9 L-92.98 -176.3 L-94.89 -175.8 L-96.83 -175.5 L-98.79 -175.3 L-100.8 -175.3 L-102.7 -175.4 L-104.7 -175.7 L-106.6 -176.1 L-108.5 -176.7 L-110.3 -177.5 L-112 -178.4 L-113.7 -179.4 L-115.3 -180.6 L-116.8 -181.8 L-118.2 -183.2 L-119.5 -184.7 L-120.6 -186.3 L-121.6 -188 L-122.5 -189.8 L-123.3 -191.6 L-123.9 -193.5 L-124.3 -195.4 L-124.6 -197.3 L-124.7 -199.3 L-124.7 -201.3 L-124.5 -203.2 L-124.2 -205.2 L-123.7 -207.1 L-123.1 -208.9 L-122.3 -210.7 L-121.4 -212.5 L-120.3 -214.1 L-119.1 -215.7 L-117.8 -217.2 L-116.4 -218.5 L-114.9 -219.8 L-113.3 -220.9 L-111.6 -221.9 L-109.8 -222.7 L-107.9 -223.4 L-106.1 -224 L-104.1 -224.4 L-102.2 -224.7 L-100.2 -224.8 L-98.25 -224.7 L-96.3 -224.5 L-94.36 -224.1 L-92.47 -223.6 L-90.62 -222.9 L-88.83 -222.1 L-87.11 -221.1 L-85.47 -220 L-83.92 -218.8 L-82.48 -217.5 L-81.14 -216 L-79.93 -214.5 L-78.84 -212.9 L-77.89 -211.1 L-77.07 -209.3 L-76.4 -207.5 L-75.88 -205.6 L-75.52 -203.7 L-75.3 -201.7 L-75.25 -199.7 Z " />
<path stroke="rgb(0,0,0)" stroke-opacity="1" fill="rgb(255,255,255)" fill-opacity="1" d="M-488.6 -726.9 L-488 -725.3 L-487.4 -723.8 L-486.8 -722.2 L-486.2 -720.7 L-485.6 -719.2 L-485 -717.6 L-484.3 -716.1 L-483.7 -714.5 L-483.1 -713 L-482.5 -711.4 L-481.9 -709.9 L-481.3 -708.3 L-480.7 -706.8 L-480.1 -705.2 L-479.5 -703.7 L-478.9 -702.1 L-478.3 -700.6 L-477.7 -699 L-477.1 -697.5 L-476.5 -695.9 L-475.9 -694.4 L-475.3 -692.9 L-474.6 -691.3 L-474 -689.8 L-473.4 -688.2 L-475 -687.6 L-476.5 -687 L-478.1 -686.4 L-479.6 -685.8 L-481.2 -685.2 L-482.7 -684.6 L-484.3 -684 L-485.8 -683.4 L-487.4 -682.8 L-488.9 -682.1 L-490.5 -681.5 L-492 -680.9 L-493.5 -680.3 L-495.1 -679.7 L-496.6 -679.1 L-498.2 -678.5 L-499.7 -677.9 L-501.3 -677.3 L-502.8 -676.7 L-504.4 -676.1 L-505.9 -675.5 L-507.5 -674.9 L-509 -674.3 L-510.6 -673.7 L-512.1 -673.1 L-512.7 -674.6 L-513.3 -676.1 L-513.9 -677.7 L-514.5 -679.2 L-515.1 -680.8 L-515.8 -682.3 L-516.4 -683.9 L-517 -685.4 L-517.6 -687 L-518.2 -688.5 L-518.8 -690.1 L-519.4 -691.6 L-520 -693.2 L-520.6 -694.7 L-521.2 -696.3 L-521.8 -697.8 L-522.4 -699.4 L-523 -700.9 L-523.6 -702.4 L-524.2 -704 L-524.8 -705.5 L-525.5 -707.1 L-526.1 -708.6 L-526.7 -710.2 L-527.3 -711.7 L-525.7 -712.3 L-524.2 -712.9 L-522.6 -713.5 L-521.1 -714.2 L-519.5 -714.8 L-518 -715.4 L-516.4 -716 L-514.9 -716.6 L-513.3 -717.2 L-511.8 -717.8 L-510.3 -718.4 L-508.7 -719 L-507.2 -719.6 L-505.6 -720.2 L-504.1 -720.8 L-502.5 -721.4 L-501 -722 L-499.4 -722.6 L-497.9 -723.2 L-496.3 -723.9 L-494.8 -724.5 L-493.2 -725.1 L-491.7 -725.7 L-490.1 -726.3 L-488.6 -726.9 Z " />
<path stroke="rgb(0,0,0)" stroke-opacity="0.852" fill="rgb(255,255,255)" fill-opacity="1" d="M124.8 -199.7 L124.7 -197.8 L124.4 -195.8 L124 -193.9 L123.4 -192 L122.7 -190.2 L121.9 -188.4 L120.9 -186.7 L119.7 -185.1 L118.5 -183.6 L117.1 -182.1 L115.7 -180.8 L114.1 -179.7 L112.4 -178.6 L110.7 -177.7 L108.9 -176.9 L107 -176.3 L105.1 -175.8 L103.2 -175.5 L101.2 -175.3 L99.24 -175.3 L97.28 -175.4 L95.33 -175.7 L93.42 -176.1 L91.54 -176.7 L89.72 -177.5 L87.96 -178.4 L86.28 -179.4 L84.69 -180.6 L83.19 -181.8 L81.8 -183.2 L80.53 -184.7 L79.38 -186.3 L78.35 -188 L77.47 -189.8 L76.73 -191.6 L76.13 -193.5 L75.69 -195.4 L75.4 -197.3 L75.26 -199.3 L75.28 -201.3 L75.46 -203.2 L75.79 -205.2 L76.28 -207.1 L76.92 -208.9 L77.7 -210.7 L78.62 -212.5 L79.68 -214.1 L80.87 -215.7 L82.17 -217.2 L83.59 -218.5 L85.12 -219.8 L86.74 -220.9 L88.44 -221.9 L90.21 -222.7 L92.05 -223.4 L93.94 -224 L95.86 -224.4 L97.82 -224.7 L99.78 -224.8 L101.7 -224.7 L103.7 -224.5 L105.6 -224.1 L107.5 -223.6 L109.4 -222.9 L111.2 -222.1 L112.9 -221.1 L114.5 -220 L116.1 -218.8 L117.5 -217.5 L118.9 -216 L120.1 -214.5 L121.2 -212.9 L122.1 -211.1 L122.9 -209.3 L123.6 -207.5 L124.1 -205.6 L124.5 -203.7 L124.7 -201.7 L124.8 -199.7 Z " />
<path stroke="rgb(0,0,0)" stroke-opacity="1" fill="rgb(255,255,255)" fill-opacity="1" d="M-306.4 -720.6 L-305.4 -720 L-304.3 -719.5 L-303.2 -718.9 L-302.1 -718.3 L-301.1 -717.7 L-300 -717.2 L-298.9 -716.6 L-297.8 -716 L-296.8 -715.5 L-295.7 -714.9 L-294.6 -714.3 L-293.6 -713.7 L-292.5 -713.2 L-291.4 -712.6 L-290.3 -712 L-289.3 -711.5 L-288.2 -710.9 L-287.1 -710.3 L-286 -709.7 L-285 -709.2 L-283.9 -708.6 L-282.8 -708 L-281.7 -707.4 L-280.7 -706.9 L-279.6 -706.3 L-280.2 -705.2 L-280.7 -704.1 L-281.3 -703.1 L-281.9 -702 L-282.5 -700.9 L-283 -699.9 L-283.6 -698.8 L-284.2 -697.7 L-284.7 -696.6 L-285.3 -695.6 L-285.9 -694.5 L-286.5 -693.4 L-287 -692.3 L-287.6 -691.3 L-288.2 -690.2 L-288.8 -689.1 L-289.3 -688 L-289.9 -687 L-290.5 -685.9 L-291 -684.8 L-291.6 -683.7 L-292.2 -682.7 L-292.8 -681.6 L-293.3 -680.5 L-293.9 -679.5 L-295 -680 L-296.1 -680.6 L-297.1 -681.2 L-298.2 -681.7 L-299.3 -682.3 L-300.4 -682.9 L-301.4 -683.5 L-302.5 -684 L-303.6 -684.6 L-304.6 -685.2 L-305.7 -685.8 L-306.8 -686.3 L-307.9 -686.9 L-308.9 -687.5 L-310 -688 L-311.1 -688.6 L-312.2 -689.2 L-313.2 -689.8 L-314.3 -690.3 L-315.4 -690.9 L-316.5 -691.5 L-317.5 -692.1 L-318.6 -692.6 L-319.7 -693.2 L-320.8 -693.8 L-320.2 -694.8 L-319.6 -695.9 L-319 -697 L-318.5 -698.1 L-317.9 -699.1 L-317.3 -700.2 L-316.7 -701.3 L-316.2 -702.4 L-315.6 -703.4 L-315 -704.5 L-314.5 -705.6 L-313.9 -706.7 L-313.3 -707.7 L-312.7 -708.8 L-312.2 -709.9 L-311.6 -710.9 L-311 -712 L-310.4 -713.1 L-309.9 -714.2 L-309.3 -715.2 L-308.7 -716.3 L-308.2 -717.4 L-307.6 -718.5 L-307 -719.5 L-306.4 -720.6 Z " />
<path stroke="rgb(0,0,0)" stroke-opacity="0.852" fill="rgb(255,255,255)" fill-opacity="1" d="M324.8 -199.7 L324.7 -197.8 L324.4 -195.8 L324 -193.9 L323.4 -192 L322.7 -190.2 L321.9 -188.4 L320.9 -186.7 L319.7 -185.1 L318.5 -183.6 L317.1 -182.1 L315.7 -180.8 L314.1 -179.7 L312.4 -178.6 L310.7 -177.7 L308.9 -176.9 L307 -176.3 L305.1 -175.8 L303.2 -175.5 L301.2 -175.3 L299.2 -175.3 L297.3 -175.4 L295.3 -175.7 L293.4 -176.1 L291.5 -176.7 L289.7 -177.5 L288 -178.4 L286.3 -179.4 L284.7 -180.6 L283.2 -181.8 L281.8 -183.2 L280.5 -184.7 L279.4 -186.3 L278.4 -188 L277.5 -189.8 L276.7 -191.6 L276.1 -193.5 L275.7 -195.4 L275.4 -197.3 L275.3 -199.3 L275.3 -201.3 L275.5 -203.2 L275.8 -205.2 L276.3 -207.1 L276.9 -208.9 L277.7 -210.7 L278.6 -212.5 L279.7 -214.1 L280.9 -215.7 L282.2 -217.2 L283.6 -218.5 L285.1 -219.8 L286.7 -220.9 L288.4 -221.9 L290.2 -222.7 L292.1 -223.4 L293.9 -224 L295.9 -224.4 L297.8 -224.7 L299.8 -224.8 L301.7 -224.7 L303.7 -224.5 L305.6 -224.1 L307.5 -223.6 L309.4 -222.9 L311.2 -222.1 L312.9 -221.1 L314.5 -220 L316.1 -218.8 L317.5 -217.5 L318.9 -216 L320.1 -214.5 L321.2 -212.9 L322.1 -211.1 L322.9 -209.3 L323.6 -207.5 L324.1 -205.6 L324.5 -203.7 L324.7 -201.7 L324.8 -199.7 Z " />
<path stroke="rgb(0,0,0)" stroke-opacity="1" fill="rgb(255,255,255)" fill-opacity="1" d="M-777.7 -625.1 L-777.6 -623.2 L-777.5 -621.3 L-777.4 -619.4 L-777.3 -617.4 L-777.2 -615.5 L-777.1 -613.6 L-777 -611.7 L-777 -609.8 L-776.9 -607.9 L-776.8 -605.9 L-776.7 -604 L-776.6 -602.1 L-776.5 -600.2 L-776.4 -598.3 L-776.3 -596.4 L-776.2 -594.5 L-776.1 -592.5 L-776 -590.6 L-775.9 -588.7 L-775.8 -586.8 L-775.7 -584.9 L-775.6 -583 L-775.5 -581.1 L-775.5 -579.1 L-775.4 -577.2 L-777.3 -577.1 L-779.2 -577 L-781.1 -577 L-783 -576.9 L-784.9 -576.8 L-786.8 -576.7 L-788.8 -576.6 L-790.7 -576.5 L-792.6 -576.4 L-794.5 -576.3 L-796.4 -576.2 L-798.3 -576.1 L-800.2 -576 L-802.2 -575.9 L-804.1 -575.8 L-806 -575.7 L-807.9 -575.6 L-809.8 -575.5 L-811.7 -575.4 L-813.6 -575.4 L-815.6 -575.3 L-817.5 -575.2 L-819.4 -575.1 L-821.3 -575 L-823.2 -574.9 L-823.3 -576.8 L-823.4 -578.7 L-823.5 -580.6 L-823.6 -582.5 L-823.7 -584.5 L-823.8 -586.4 L-823.9 -588.3 L-824 -590.2 L-824.1 -592.1 L-824.2 -594 L-824.3 -595.9 L-824.3 -597.9 L-824.4 -599.8 L-824.5 -601.7 L-824.6 -603.6 L-824.7 -605.5 L-824.8 -607.4 L-824.9 -609.3 L-825 -611.3 L-825.1 -613.2 L-825.2 -615.1 L-825.3 -617 L-825.4 -618.9 L-825.5 -620.8 L-825.6 -622.7 L-823.7 -622.8 L-821.7 -622.9 L-819.8 -623 L-817.9 -623.1 L-816 -623.2 L-814.1 -623.3 L-812.2 -623.4 L-810.3 -623.5 L-808.3 -623.6 L-806.4 -623.7 L-804.5 -623.8 L-802.6 -623.9 L-800.7 -624 L-798.8 -624.1 L-796.9 -624.2 L-794.9 -624.2 L-793 -624.3 L-791.1 -624.4 L-789.2 -624.5 L-787.3 -624.6 L-785.4 -624.7 L-783.5 -624.8 L-781.5 -624.9 L-779.6 -625 L-777.7 -625.1 Z " />
<path stroke="rgb(0,0,0)" stroke-opacity="0.852" fill="rgb(255,255,255)" fill-opacity="1" d="M-175.2 -99.73 L-175.3 -97.77 L-175.6 -95.82 L-176 -93.89 L-176.6 -92.01 L-177.3 -90.17 L-178.1 -88.4 L-179.1 -86.7 L-180.3 -85.08 L-181.5 -83.56 L-182.9 -82.14 L-184.3 -80.84 L-185.9 -79.65 L-187.6 -78.6 L-189.3 -77.68 L-191.1 -76.9 L-193 -76.27 L-194.9 -75.78 L-196.8 -75.46 L-198.8 -75.28 L-200.8 -75.26 L-202.7 -75.4 L-204.7 -75.7 L-206.6 -76.15 L-208.5 -76.74 L-210.3 -77.49 L-212 -78.38 L-213.7 -79.4 L-215.3 -80.56 L-216.8 -81.84 L-218.2 -83.23 L-219.5 -84.73 L-220.6 -86.32 L-221.6 -88.01 L-222.5 -89.76 L-223.3 -91.59 L-223.9 -93.46 L-224.3 -95.38 L-224.6 -97.33 L-224.7 -99.29 L-224.7 -101.3 L-224.5 -103.2 L-224.2 -105.2 L-223.7 -107.1 L-223.1 -108.9 L-222.3 -110.7 L-221.4 -112.5 L-220.3 -114.1 L-219.1 -115.7 L-217.8 -117.2 L-216.4 -118.5 L-214.9 -119.8 L-213.3 -120.9 L-211.6 -121.9 L-209.8 -122.7 L-207.9 -123.4 L-206.1 -124 L-204.1 -124.4 L-202.2 -124.7 L-200.2 -124.8 L-198.3 -124.7 L-196.3 -124.5 L-194.4 -124.1 L-192.5 -123.6 L-190.6 -122.9 L-188.8 -122.1 L-187.1 -121.1 L-185.5 -120 L-183.9 -118.8 L-182.5 -117.5 L-181.1 -116 L-179.9 -114.5 L-178.8 -112.9 L-177.9 -111.1 L-177.1 -109.3 L-176.4 -107.5 L-175.9 -105.6 L-175.5 -103.7 L-175.3 -101.7 L-175.2 -99.73 Z " />
<path stroke="rgb(0,0,0)" stroke-opacity="1" fill="rgb(255,255,255)" fill-opacity="1" d="M-588.6 -626.9 L-588 -625.3 L-587.4 -623.8 L-586.8 -622.2 L-586.2 -620.7 L-585.6 -619.2 L-585 -617.6 L-584.3 -616.1 L-583.7 -614.5 L-583.1 -613 L-582.5 -611.4 L-581.9 -609.9 L-581.3 -608.3 L-580.7 -606.8 L-580.1 -605.2 L-579.5 -603.7 L-578.9 -602.1 L-578.3 -600.6 L-577.7 -599 L-577.1 -597.5 L-576.5 -595.9 L-575.9 -594.4 L-575.3 -592.9 L-574.6 -591.3 L-574 -589.8 L-573.4 -588.2 L-575 -587.6 L-576.5 -587 L-578.1 -586.4 L-579.6 -585.8 L-581.2 -585.2 L-582.7 -584.6 L-584.3 -584 L-585.8 -583.4 L-587.4 -582.8 L-588.9 -582.1 L-590.5 -581.5 L-592 -580.9 L-593.5 -580.3 L-595.1 -579.7 L-596.6 -579.1 L-598.2 -578.5 L-599.7 -577.9 L-601.3 -577.3 L-602.8 -576.7 L-604.4 -576.1 L-605.9 -575.5 L-607.5 -574.9 L-609 -574.3 L-610.6 -573.7 L-612.1 -573.1 L-612.7 -574.6 L-613.3 -576.1 L-613.9 -577.7 L-614.5 -579.2 L-615.1 -580.8 L-615.8 -582.3 L-616.4 -583.9 L-617 -585.4 L-617.6 -587 L-618.2 -588.5 L-618.8 -590.1 L-619.4 -591.6 L-620 -593.2 L-620.6 -594.7 L-621.2 -596.3 L-621.8 -597.8 L-622.4 -599.4 L-623 -600.9 L-623.6 -602.4 L-624.2 -604 L-624.8 -605.5 L-625.5 -607.1 L-626.1 -608.6 L-626.7 -610.2 L-627.3 -611.7 L-625.7 -612.3 L-624.2 -612.9 L-622.6 -613.5 L-621.1 -614.2 L-619.5 -614.8 L-618 -615.4 L-616.4 -616 L-614.9 -616.6 L-613.3 -617.2 L-611.8 -617.8 L-610.3 -618.4 L-608.7 -619 L-607.2 -619.6 L-605.6 -620.2 L-604.1 -620.8 L-602.5 -621.4 L-601 -622 L-599.4 -622.6 L-597.9 -623.2 L-596.3 -623.9 L-594.8 -624.5 L-593.2 -625.1 L-591.7 -625.7 L-590.1 -626.3 L-588.6 -626.9 Z " />
<path stroke="rgb(0,0,0)" stroke-opacity="0.852" fill="rgb(255,255,255)" fill-opacity="1" d="M24.75 -99.73 L24.65 -97.77 L24.4 -95.82 L23.99 -93.89 L23.43 -92.01 L22.72 -90.17 L21.86 -88.4 L20.87 -86.7 L19.75 -85.08 L18.5 -83.56 L17.14 -82.14 L15.66 -80.84 L14.09 -79.65 L12.43 -78.6 L10.69 -77.68 L8.881 -76.9 L7.018 -76.27 L5.11 -75.78 L3.169 -75.46 L1.209 -75.28 L-0.7591 -75.26 L-2.722 -75.4 L-4.668 -75.7 L-6.584 -76.15 L-8.459 -76.74 L-10.28 -77.49 L-12.04 -78.38 L-13.72 -79.4 L-15.31 -80.56 L-16.81 -81.84 L-18.2 -83.23 L-19.47 -84.73 L-20.62 -86.32 L-21.65 -88.01 L-22.53 -89.76 L-23.27 -91.59 L-23.87 -93.46 L-24.31 -95.38 L-24.6 -97.33 L-24.74 -99.29 L-24.72 -101.3 L-24.54 -103.2 L-24.21 -105.2 L-23.72 -107.1 L-23.08 -108.9 L-22.3 -110.7 L-21.38 -112.5 L-20.32 -114.1 L-19.13 -115.7 L-17.83 -117.2 L-16.41 -118.5 L-14.88 -119.8 L-13.26 -120.9 L-11.56 -121.9 L-9.786 -122.7 L-7.949 -123.4 L-6.062 -124 L-4.136 -124.4 L-2.185 -124.7 L-0.2188 -124.8 L1.748 -124.7 L3.704 -124.5 L5.637 -124.1 L7.534 -123.6 L9.383 -122.9 L11.17 -122.1 L12.89 -121.1 L14.53 -120 L16.08 -118.8 L17.52 -117.5 L18.86 -116 L20.07 -114.5 L21.16 -112.9 L22.11 -111.1 L22.93 -109.3 L23.6 -107.5 L24.12 -105.6 L24.48 -103.7 L24.7 -101.7 L24.75 -99.73 Z " />
<path stroke="rgb(0,0,0)" stroke-opacity="1" fill="rgb(255,255,255)" fill-opacity="1" d="M-406.4 -620.6 L-405.4 -620 L-404.3 -619.5 L-403.2 -618.9 L-402.1 -618.3 L-401.1 -617.7 L-400 -617.2 L-398.9 -616.6 L-397.8 -616 L-396.8 -615.5 L-395.7 -614.9 L-394.6 -614.3 L-393.6 -613.7 L-392.5 -613.2 L-391.4 -612.6 L-390.3 -612 L-389.3 -611.5 L-388.2 -610.9 L-387.1 -610.3 L-386 -609.7 L-385 -609.2 L-383.9 -608.6 L-382.8 -608 L-381.7 -607.4 L-380.7 -606.9 L-379.6 -606.3 L-380.2 -605.2 L-380.7 -604.1 L-381.3 -603.1 L-381.9 -602 L-382.5 -600.9 L-383 -599.9 L-383.6 -598.8 L-384.2 -597.7 L-384.7 -596.6 L-385.3 -595.6 L-385.9 -594.5 L-386.5 -593.4 L-387 -592.3 L-387.6 -591.3 L-388.2 -590.2 L-388.8 -589.1 L-389.3 -588 L-389.9 -587 L-390.5 -585.9 L-391 -584.8 L-391.6 -583.7 L-392.2 -582.7 L-392.8 -581.6 L-393.3 -580.5 L-393.9 -579.5 L-395 -580 L-396.1 -580.6 L-397.1 -581.2 L-398.2 -581.7 L-399.3 -582.3 L-400.4 -582.9 L-401.4 -583.5 L-402.5 -584 L-403.6 -584.6 L-404.6 -585.2 L-405.7 -585.8 L-406.8 -586.3 L-407.9 -586.9 L-408.9 -587.5 L-410 -588 L-411.1 -588.6 L-412.2 -589.2 L-413.2 -589.8 L-414.3 -590.3 L-415.4 -590.9 L-416.5 -591.5 L-417.5 -592.1 L-418.6 -592.6 L-419.7 -593.2 L-420.8 -593.8 L-420.2 -594.8 L-419.6 -595.9 L-419 -597 L-418.5 -598.1 L-417.9 -599.1 L-417.3 -600.2 L-416.7 -601.3 L-416.2 -602.4 L-415.6 -603.4 L-415 -604.5 L-414.5 -605.6 L-413.9 -606.7 L-413.3 -607.7 L-412.7 -608.8 L-412.2 -609.9 L-411.6 -610.9 L-411 -612 L-410.4 -613.1 L-409.9 -614.2 L-409.3 -615.2 L-408.7 -616.3 L-408.2 -617.4 L-407.6 -618.5 L-407 -619.5 L-406.4 -620.6 Z " />
<path stroke="rgb(0,0,0)" stroke-opacity="0.852" fill="rgb(255,255,255)" fill-opacity="1" d="M224.8 -99.73 L224.7 -97.77 L224.4 -95.82 L224 -93.89 L223.4 -92.01 L222.7 -90.17 L221.9 -88.4 L220.9 -86.7 L219.7 -85.08 L218.5 -83.56 L217.1 -82.14 L215.7 -80.84 L214.1 -79.65 L212.4 -78.6 L210.7 -77.68 L208.9 -76.9 L207 -76.27 L205.1 -75.78 L203.2 -75.46 L201.2 -75.28 L199.2 -75.26 L197.3 -75.4 L195.3 -75.7 L193.4 -76.15 L191.5 -76.74 L189.7 -77.49 L188 -78.38 L186.3 -79.4 L184.7 -80.56 L183.2 -81.84 L181.8 -83.23 L180.5 -84.73 L179.4 -86.32 L178.4 -88.01 L177.5 -89.76 L176.7 -91.59 L176.1 -93.46 L175.7 -95.38 L175.4 -97.33 L175.3 -99.29 L175.3 -101.3 L175.5 -103.2 L175.8 -105.2 L176.3 -107.1 L176.9 -108.9 L177.7 -110.7 L178.6 -112.5 L179.7 -114.1 L180.9 -115.7 L182.2 -117.2 L183.6 -118.5 L185.1 -119.8 L186.7 -120.9 L188.4 -121.9 L190.2 -122.7 L192.1 -123.4 L193.9 -124 L195.9 -124.4 L197.8 -124.7 L199.8 -124.8 L201.7 -124.7 L203.7 -124.5 L205.6 -124.1 L207.5 -123.6 L209.4 -122.9 L211.2 -122.1 L212.9 -121.1 L214.5 -120 L216.1 -118.8 L217.5 -117.5 L218.9 -116 L220.1 -114.5 L221.2 -112.9 L222.1 -111.1 L222.9 -109.3 L223.6 -107.5 L224.1 -105.6 L224.5 -103.7 L224.7 -101.7 L224.8 -99.73 Z " />
<path stroke="rgb(0,0,0)" stroke-opacity="1" fill="rgb(255,255,255)" fill-opacity="1" d="M-211.6 -614.1 L-210.6 -614 L-209.6 -613.9 L-208.5 -613.8 L-207.5 -613.7 L-206.5 -613.6 L-205.5 -613.5 L-204.5 -613.4 L-203.4 -613.3 L-202.4 -613.2 L-201.4 -613.1 L-200.4 -613 L-199.4 -612.9 L-198.3 -612.8 L-197.3 -612.7 L-196.3 -612.6 L-195.3 -612.5 L-194.3 -612.4 L-193.2 -612.3 L-192.2 -612.2 L-191.2 -612.1 L-190.2 -612 L-189.2 -611.9 L-188.1 -611.8 L-187.1 -611.7 L-186.1 -611.6 L-186.2 -610.6 L-186.3 -609.5 L-186.4 -608.5 L-186.5 -607.5 L-186.6 -606.5 L-186.7 -605.5 L-186.8 -604.4 L-186.9 -603.4 L-187 -602.4 L-187.1 -601.4 L-187.2 -600.4 L-187.3 -599.3 L-187.4 -598.3 L-187.5 -597.3 L-187.6 -596.3 L-187.7 -595.3 L-187.8 -594.2 L-187.9 -593.2 L-188 -592.2 L-188.1 -591.2 L-188.2 -590.2 L-188.3 -589.1 L-188.4 -588.1 L-188.5 -587.1 L-188.6 -586.1 L-189.7 -586.2 L-190.7 -586.3 L-191.7 -586.4 L-192.7 -586.5 L-193.7 -586.6 L-194.8 -586.7 L-195.8 -586.8 L-196.8 -586.9 L-197.8 -587 L-198.8 -587.1 L-199.9 -587.2 L-200.9 -587.3 L-201.9 -587.4 L-202.9 -587.5 L-203.9 -587.6 L-205 -587.7 L-206 -587.8 L-207 -587.9 L-208 -588 L-209 -588.1 L-210.1 -588.2 L-211.1 -588.3 L-212.1 -588.4 L-213.1 -588.5 L-214.1 -588.6 L-214 -589.6 L-213.9 -590.7 L-213.8 -591.7 L-213.7 -592.7 L-213.6 -593.7 L-213.5 -594.7 L-213.4 -595.8 L-213.3 -596.8 L-213.2 -597.8 L-213.1 -598.8 L-213 -599.8 L-212.9 -600.9 L-212.8 -601.9 L-212.7 -602.9 L-212.6 -603.9 L-212.5 -604.9 L-212.4 -606 L-212.3 -607 L-212.2 -608 L-212.1 -609 L-212 -610 L-211.9 -611.1 L-211.8 -612.1 L-211.7 -613.1 L-211.6 -614.1 Z " />
<path stroke="rgb(0,0,0)" stroke-opacity="0.852" fill="rgb(255,255,255)" fill-opacity="1" d="M-275.2 0.2668 L-275.3 2.232 L-275.6 4.184 L-276 6.109 L-276.6 7.995 L-277.3 9.83 L-278.1 11.6 L-279.1 13.3 L-280.3 14.92 L-281.5 16.44 L-282.9 17.86 L-284.3 19.16 L-285.9 20.35 L-287.6 21.4 L-289.3 22.32 L-291.1 23.1 L-293 23.73 L-294.9 24.22 L-296.8 24.54 L-298.8 24.72 L-300.8 24.74 L-302.7 24.6 L-304.7 24.3 L-306.6 23.85 L-308.5 23.26 L-310.3 22.51 L-312 21.62 L-313.7 20.6 L-315.3 19.44 L-316.8 18.16 L-318.2 16.77 L-319.5 15.27 L-320.6 13.68 L-321.6 11.99 L-322.5 10.24 L-323.3 8.414 L-323.9 6.538 L-324.3 4.62 L-324.6 2.674 L-324.7 0.7106 L-324.7 -1.257 L-324.5 -3.217 L-324.2 -5.157 L-323.7 -7.064 L-323.1 -8.926 L-322.3 -10.73 L-321.4 -12.47 L-320.3 -14.13 L-319.1 -15.7 L-317.8 -17.17 L-316.4 -18.53 L-314.9 -19.78 L-313.3 -20.9 L-311.6 -21.89 L-309.8 -22.74 L-307.9 -23.44 L-306.1 -24 L-304.1 -24.41 L-302.2 -24.66 L-300.2 -24.75 L-298.3 -24.69 L-296.3 -24.48 L-294.4 -24.1 L-292.5 -23.58 L-290.6 -22.91 L-288.8 -22.09 L-287.1 -21.13 L-285.5 -20.04 L-283.9 -18.82 L-282.5 -17.49 L-281.1 -16.04 L-279.9 -14.49 L-278.8 -12.85 L-277.9 -11.13 L-277.1 -9.339 L-276.4 -7.488 L-275.9 -5.59 L-275.5 -3.657 L-275.3 -1.7 L-275.2 0.2668 Z " />
<path stroke="rgb(0,0,0)" stroke-opacity="1" fill="rgb(255,255,255)" fill-opacity="1" d="M-688.6 -526.9 L-688 -525.3 L-687.4 -523.8 L-686.8 -522.2 L-686.2 -520.7 L-685.6 -519.2 L-685 -517.6 L-684.3 -516.1 L-683.7 -514.5 L-683.1 -513 L-682.5 -511.4 L-681.9 -509.9 L-681.3 -508.3 L-680.7 -506.8 L-680.1 -505.2 L-679.5 -503.7 L-678.9 -502.1 L-678.3 -500.6 L-677.7 -499 L-677.1 -497.5 L-676.5 -495.9 L-675.9 -494.4 L-675.3 -492.9 L-674.6 -491.3 L-674 -489.8 L-673.4 -488.2 L-675 -487.6 L-676.5 -487 L-678.1 -486.4 L-679.6 -485.8 L-681.2 -485.2 L-682.7 -484.6 L-684.3 -484 L-685.8 -483.4 L-687.4 -482.8 L-688.9 -482.1 L-690.5 -481.5 L-692 -480.9 L-693.5 -480.3 L-695.1 -479.7 L-696.6 -479.1 L-698.2 -478.5 L-699.7 -477.9 L-701.3 -477.3 L-702.8 -476.7 L-704.4 -476.1 L-705.9 -475.5 L-707.5 -474.9 L-709 -474.3 L-710.6 -473.7 L-712.1 -473.1 L-712.7 -474.6 L-713.3 -476.1 L-713.9 -477.7 L-714.5 -479.2 L-715.1 -480.8 L-715.8 -482.3 L-716.4 -483.9 L-717 -485.4 L-717.6 -487 L-718.2 -488.5 L-718.8 -490.1 L-719.4 -491.6 L-720 -493.2 L-720.6 -494.7 L-721.2 -496.3 L-721.8 -497.8 L-722.4 -499.4 L-723 -500.9 L-723.6 -502.4 L-724.2 -504 L-724.8 -505.5 L-725.5 -507.1 L-726.1 -508.6 L-726.7 -510.2 L-727.3 -511.7 L-725.7 -512.3 L-724.2 -512.9 L-722.6 -513.5 L-721.1 -514.2 L-719.5 -514.8 L-718 -515.4 L-716.4 -516 L-714.9 -516.6 L-713.3 -517.2 L-711.8 -517.8 L-710.3 -518.4 L-708.7 -519 L-707.2 -519.6 L-705.6 -520.2 L-704.1 -520.8 L-702.5 -521.4 L-701 -522 L-699.4 -522.6 L-697.9 -523.2 L-696.3 -523.9 L-694.8 -524.5 L-693.2 -525.1 L-691.7 -525.7 L-690.1 -526.3 L-688.6 -526.9 Z " />
<path stroke="rgb(0,0,0)" stroke-opacity="0.852" fill="rgb(255,255,255)" fill-opacity="1" d="M-75.25 0.2668 L-75.35 2.232 L-75.6 4.184 L-76.01 6.109 L-76.57 7.995 L-77.28 9.83 L-78.14 11.6 L-79.13 13.3 L-80.25 14.92 L-81.5 16.44 L-82.86 17.86 L-84.34 19.16 L-85.91 20.35 L-87.57 21.4 L-89.31 22.32 L-91.12 23.1 L-92.98 23.73 L-94.89 24.22 L-96.83 24.54 L-98.79 24.72 L-100.8 24.74 L-102.7 24.6 L-104.7 24.3 L-106.6 23.85 L-108.5 23.26 L-110.3 22.51 L-112 21.62 L-113.7 20.6 L-115.3 19.44 L-116.8 18.16 L-118.2 16.77 L-119.5 15.27 L-120.6 13.68 L-121.6 11.99 L-122.5 10.24 L-123.3 8.414 L-123.9 6.538 L-124.3 4.62 L-124.6 2.674 L-124.7 0.7106 L-124.7 -1.257 L-124.5 -3.217 L-124.2 -5.157 L-123.7 -7.064 L-123.1 -8.926 L-122.3 -10.73 L-121.4 -12.47 L-120.3 -14.13 L-119.1 -15.7 L-117.8 -17.17 L-116.4 -18.53 L-114.9 -19.78 L-113.3 -20.9 L-111.6 -21.89 L-109.8 -22.74 L-107.9 -23.44 L-106.1 -24 L-104.1 -24.41 L-102.2 -24.66 L-100.2 -24.75 L-98.25 -24.69 L-96.3 -24.48 L-94.36 -24.1 L-92.47 -23.58 L-90.62 -22.91 L-88.83 -22.09 L-87.11 -21.13 L-85.47 -20.04 L-83.92 -18.82 L-82.48 -17.49 L-81.14 -16.04 L-79.93 -14.49 L-78.84 -12.85 L-77.89 -11.13 L-77.07 -9.339 L-76.4 -7.488 L-75.88 -5.59 L-75.52 -3.657 L-75.3 -1.7 L-75.25 0.2668 Z " />
<path stroke="rgb(0,0,0)" stroke-opacity="1" fill="rgb(255,255,255)" fill-opacity="1" d="M-506.4 -520.6 L-505.4 -520 L-504.3 -519.5 L-503.2 -518.9 L-502.1 -518.3 L-501.1 -517.7 L-500 -517.2 L-498.9 -516.6 L-497.8 -516 L-496.8 -515.5 L-495.7 -514.9 L-494.6 -514.3 L-493.6 -513.7 L-492.5 -513.2 L-491.4 -512.6 L-490.3 -512 L-489.3 -511.5 L-488.2 -510.9 L-487.1 -510.3 L-486 -509.7 L-485 -509.2 L-483.9 -508.6 L-482.8 -508 L-481.7 -507.4 L-480.7 -506.9 L-479.6 -506.3 L-480.2 -505.2 L-480.7 -504.1 L-481.3 -503.1 L-481.9 -502 L-482.5 -500.9 L-483 -499.9 L-483.6 -498.8 L-484.2 -497.7 L-484.7 -496.6 L-485.3 -495.6 L-485.9 -494.5 L-486.5 -493.4 L-487 -492.3 L-487.6 -491.3 L-488.2 -490.2 L-488.8 -489.1 L-489.3 -488 L-489.9 -487 L-490.5 -485.9 L-491 -484.8 L-491.6 -483.7 L-492.2 -482.7 L-492.8 -481.6 L-493.3 -480.5 L-493.9 -479.5 L-495 -480 L-496.1 -480.6 L-497.1 -481.2 L-498.2 -481.7 L-499.3 -482.3 L-500.4 -482.9 L-501.4 -483.5 L-502.5 -484 L-503.6 -484.6 L-504.6 -485.2 L-505.7 -485.8 L-506.8 -486.3 L-507.9 -486.9 L-508.9 -487.5 L-510 -488 L-511.1 -488.6 L-512.2 -489.2 L-513.2 -489.8 L-514.3 -490.3 L-515.4 -490.9 L-516.5 -491.5 L-517.5 -492.1 L-518.6 -492.6 L-519.7 -493.2 L-520.8 -493.8 L-520.2 -494.8 L-519.6 -495.9 L-519 -497 L-518.5 -498.1 L-517.9 -499.1 L-517.3 -500.2 L-516.7 -501.3 L-516.2 -502.4 L-515.6 -503.4 L-515 -504.5 L-514.5 -505.6 L-513.9 -506.7 L-513.3 -507.7 L-512.7 -508.8 L-512.2 -509.9 L-511.6 -510.9 L-511 -512 L-510.4 -513.1 L-509.9 -514.2 L-509.3 -515.2 L-508.7 -516.3 L-508.2 -517.4 L-507.6 -518.5 L-507 -519.5 L-506.4 -520.6 Z " />
<path stroke="rgb(0,0,0)" stroke-opacity="0.852" fill="rgb(255,255,255)" fill-opacity="1" d="M124.8 0.2668 L124.7 2.232 L124.4 4.184 L124 6.109 L123.4 7.995 L122.7 9.83 L121.9 11.6 L120.9 13.3 L119.7 14.92 L118.5 16.44 L117.1 17.86 L115.7 19.16 L114.1 20.35 L112.4 21.4 L110.7 22.32 L108.9 23.1 L107 23.73 L105.1 24.22 L103.2 24.54 L101.2 24.72 L99.24 24.74 L97.28 24.6 L95.33 24.3 L93.42 23.85 L91.54 23.26 L89.72 22.51 L87.96 21.62 L86.28 20.6 L84.69 19.44 L83.19 18.16 L81.8 16.77 L80.53 15.27 L79.38 13.68 L78.35 11.99 L77.47 10.24 L76.73 8.414 L76.13 6.538 L75.69 4.62 L75.4 2.674 L75.26 0.7106 L75.28 -1.257 L75.46 -3.217 L75.79 -5.157 L76.28 -7.064 L76.92 -8.926 L77.7 -10.73 L78.62 -12.47 L79.68 -14.13 L80.87 -15.7 L82.17 -17.17 L83.59 -18.53 L85.12 -19.78 L86.74 -20.9 L88.44 -21.89 L90.21 -22.74 L92.05 -23.44 L93.94 -24 L95.86 -24.41 L97.82 -24.66 L99.78 -24.75 L101.7 -24.69 L103.7 -24.48 L105.6 -24.1 L107.5 -23.58 L109.4 -22.91 L111.2 -22.09 L112.9 -21.13 L114.5 -20.04 L116.1 -18.82 L117.5 -17.49 L118.9 -16.04 L120.1 -14.49 L121.2 -12.85 L122.1 -11.13 L122.9 -9.339 L123.6 -7.488 L124.1 -5.59 L124.5 -3.657 L124.7 -1.7 L124.8 0.2668 Z " />
<path stroke="rgb(0,0,0)" stroke-opacity="1" fill="rgb(255,255,255)" fill-opacity="1" d="M-311.6 -514.1 L-310.6 -514 L-309.6 -513.9 L-308.5 -513.8 L-307.5 -513.7 L-306.5 -513.6 L-305.5 -513.5 L-304.5 -513.4 L-303.4 -513.3 L-302.4 -513.2 L-301.4 -513.1 L-300.4 -513 L-299.4 -512.9 L-298.3 -512.8 L-297.3 -512.7 L-296.3 -512.6 L-295.3 -512.5 L-294.3 -512.4 L-293.2 -512.3 L-292.2 -512.2 L-291.2 -512.1 L-290.2 -512 L-289.2 -511.9 L-288.1 -511.8 L-287.1 -511.7 L-286.1 -511.6 L-286.2 -510.6 L-286.3 -509.5 L-286.4 -508.5 L-286.5 -507.5 L-286.6 -506.5 L-286.7 -505.5 L-286.8 -504.4 L-286.9 -503.4 L-287 -502.4 L-287.1 -501.4 L-287.2 -500.4 L-287.3 -499.3 L-287.4 -498.3 L-287.5 -497.3 L-287.6 -496.3 L-287.7 -495.3 L-287.8 -494.2 L-287.9 -493.2 L-288 -492.2 L-288.1 -491.2 L-288.2 -490.2 L-288.3 -489.1 L-288.4 -488.1 L-288.5 -487.1 L-288.6 -486.1 L-289.7 -486.2 L-290.7 -486.3 L-291.7 -486.4 L-292.7 -486.5 L-293.7 -486.6 L-294.8 -486.7 L-295.8 -486.8 L-296.8 -486.9 L-297.8 -487 L-298.8 -487.1 L-299.9 -487.2 L-300.9 -487.3 L-301.9 -487.4 L-302.9 -487.5 L-303.9 -487.6 L-305 -487.7 L-306 -487.8 L-307 -487.9 L-308 -488 L-309 -488.1 L-310.1 -488.2 L-311.1 -488.3 L-312.1 -488.4 L-313.1 -488.5 L-314.1 -488.6 L-314 -489.6 L-313.9 -490.7 L-313.8 -491.7 L-313.7 -492.7 L-313.6 -493.7 L-313.5 -494.7 L-313.4 -495.8 L-313.3 -496.8 L-313.2 -497.8 L-313.1 -498.8 L-313 -499.8 L-312.9 -500.9 L-312.8 -501.9 L-312.7 -502.9 L-312.6 -503.9 L-312.5 -504.9 L-312.4 -506 L-312.3 -507 L-312.2 -508 L-312.1 -509 L-312 -510 L-311.9 -511.1 L-311.8 -512.1 L-311.7 -513.1 L-311.6 -514.1 Z " />
<path stroke="rgb(0,0,0)" stroke-opacity="0.852" fill="rgb(255,255,255)" fill-opacity="1" d="M324.8 0.2668 L324.7 2.232 L324.4 4.184 L324 6.109 L323.4 7.995 L322.7 9.83 L321.9 11.6 L320.9 13.3 L319.7 14.92 L318.5 16.44 L317.1 17.86 L315.7 19.16 L314.1 20.35 L312.4 21.4 L310.7 22.32 L308.9 23.1 L307 23.73 L305.1 24.22 L303.2 24.54 L301.2 24.72 L299.2 24.74 L297.3 24.6 L295.3 24.3 L293.4 23.85 L291.5 23.26 L289.7 22.51 L288 21.62 L286.3 20.6 L284.7 19.44 L283.2 18.16 L281.8 16.77 L280.5 15.27 L279.4 13.68 L278.4 11.99 L277.5 10.24 L276.7 8.414 L276.1 6.538 L275.7 4.62 L275.4 2.674 L275.3 0.7106 L275.3 -1.257 L275.5 -3.217 L275.8 -5.157 L276.3 -7.064 L276.9 -8.926 L277.7 -10.73 L278.6 -12.47 L279.7 -14.13 L280.9 -15.7 L282.2 -17.17 L283.6 -18.53 L285.1 -19.78 L286.7 -20.9 L288.4 -21.89 L290.2 -22.74 L292.1 -23.44 L293.9 -24 L295.9 -24.41 L297.8 -24.66 L299.8 -24.75 L301.7 -24.69 L303.7 -24.48 L305.6 -24.1 L307.5 -23.58 L309.4 -22.91 L311.2 -22.09 L312.9 -21.13 L314.5 -20.04 L316.1 -18.82 L317.5 -17.49 L318.9 -16.04 L320.1 -14.49 L321.2 -12.85 L322.1 -11.13 L322.9 -9.339 L323.6 -7.488 L324.1 -5.59 L324.5 -3.657 L324.7 -1.7 L324.8 0.2668 Z " />
<path stroke="rgb(0,0,0)" stroke-opacity="1" fill="rgb(255,255,255)" fill-opacity="1" d="M-788.6 -426.9 L-788 -425.3 L-787.4 -423.8 L-786.8 -422.2 L-786.2 -420.7 L-785.6 -419.2 L-785 -417.6 L-784.3 -416.1 L-783.7 -414.5 L-783.1 -413 L-782.5 -411.4 L-781.9 -409.9 L-781.3 -408.3 L-780.7 -406.8 L-780.1 -405.2 L-779.5 -403.7 L-778.9 -402.1 L-778.3 -400.6 L-777.7 -399 L-777.1 -397.5 L-776.5 -395.9 L-775.9 -394.4 L-775.3 -392.9 L-774.6 -391.3 L-774 -389.8 L-773.4 -388.2 L-775 -387.6 L-776.5 -387 L-778.1 -386.4 L-779.6 -385.8 L-781.2 -385.2 L-782.7 -384.6 L-784.3 -384 L-785.8 -383.4 L-787.4 -382.8 L-788.9 -382.1 L-790.5 -381.5 L-792 -380.9 L-793.5 -380.3 L-795.1 -379.7 L-796.6 -379.1 L-798.2 -378.5 L-799.7 -377.9 L-801.3 -377.3 L-802.8 -376.7 L-804.4 -376.1 L-805.9 -375.5 L-807.5 -374.9 L-809 -374.3 L-810.6 -373.7 L-812.1 -373.1 L-812.7 -374.6 L-813.3 -376.1 L-813.9 -377.7 L-814.5 -379.2 L-815.1 -380.8 L-815.8 -382.3 L-816.4 -383.9 L-817 -385.4 L-817.6 -387 L-818.2 -388.5 L-818.8 -390.1 L-819.4 -391.6 L-820 -393.2 L-820.6 -394.7 L-821.2 -396.3 L-821.8 -397.8 L-822.4 -399.4 L-823 -400.9 L-823.6 -402.4 L-824.2 -404 L-824.8 -405.5 L-825.5 -407.1 L-826.1 -408.6 L-826.7 -410.2 L-827.3 -411.7 L-825.7 -412.3 L-824.2 -412.9 L-822.6 -413.5 L-821.1 -414.2 L-819.5 -414.8 L-818 -415.4 L-816.4 -416 L-814.9 -416.6 L-813.3 -417.2 L-811.8 -417.8 L-810.3 -418.4 L-808.7 -419 L-807.2 -419.6 L-805.6 -420.2 L-804.1 -420.8 L-802.5 -421.4 L-801 -422 L-799.4 -422.6 L-797.9 -423.2 L-796.3 -423.9 L-794.8 -424.5 L-793.2 -425.1 L-791.7 -425.7 L-790.1 -426.3 L-788.6 -426.9 Z " />
<path stroke="rgb(0,0,0)" stroke-opacity="0.852" fill="rgb(255,255,255)" fill-opacity="1" d="M-175.2 100.3 L-175.3 102.2 L-175.6 104.2 L-176 106.1 L-176.6 108 L-177.3 109.8 L-178.1 111.6 L-179.1 113.3 L-180.3 114.9 L-181.5 116.4 L-182.9 117.9 L-184.3 119.2 L-185.9 120.3 L-187.6 121.4 L-189.3 122.3 L-191.1 123.1 L-193 123.7 L-194.9 124.2 L-196.8 124.5 L-198.8 124.7 L-200.8 124.7 L-202.7 124.6 L-204.7 124.3 L-206.6 123.9 L-208.5 123.3 L-210.3 122.5 L-212 121.6 L-213.7 120.6 L-215.3 119.4 L-216.8 118.2 L-218.2 116.8 L-219.5 115.3 L-220.6 113.7 L-221.6 112 L-222.5 110.2 L-223.3 108.4 L-223.9 106.5 L-224.3 104.6 L-224.6 102.7 L-224.7 100.7 L-224.7 98.74 L-224.5 96.78 L-224.2 94.84 L-223.7 92.94 L-223.1 91.07 L-222.3 89.27 L-221.4 87.53 L-220.3 85.87 L-219.1 84.3 L-217.8 82.83 L-216.4 81.47 L-214.9 80.22 L-213.3 79.1 L-211.6 78.11 L-209.8 77.26 L-207.9 76.56 L-206.1 76 L-204.1 75.59 L-202.2 75.34 L-200.2 75.25 L-198.3 75.31 L-196.3 75.52 L-194.4 75.9 L-192.5 76.42 L-190.6 77.09 L-188.8 77.91 L-187.1 78.87 L-185.5 79.96 L-183.9 81.18 L-182.5 82.51 L-181.1 83.96 L-179.9 85.51 L-178.8 87.15 L-177.9 88.87 L-177.1 90.66 L-176.4 92.51 L-175.9 94.41 L-175.5 96.34 L-175.3 98.3 L-175.2 100.3 Z " />
<path stroke="rgb(0,0,0)" stroke-opacity="1" fill="rgb(255,255,255)" fill-opacity="1" d="M-606.4 -420.6 L-605.4 -420 L-604.3 -419.5 L-603.2 -418.9 L-602.1 -418.3 L-601.1 -417.7 L-600 -417.2 L-598.9 -416.6 L-597.8 -416 L-596.8 -415.5 L-595.7 -414.9 L-594.6 -414.3 L-593.6 -413.7 L-592.5 -413.2 L-591.4 -412.6 L-590.3 -412 L-589.3 -411.5 L-588.2 -410.9 L-587.1 -410.3 L-586 -409.7 L-585 -409.2 L-583.9 -408.6 L-582.8 -408 L-581.7 -407.4 L-580.7 -406.9 L-579.6 -406.3 L-580.2 -405.2 L-580.7 -404.1 L-581.3 -403.1 L-581.9 -402 L-582.5 -400.9 L-583 -399.9 L-583.6 -398.8 L-584.2 -397.7 L-584.7 -396.6 L-585.3 -395.6 L-585.9 -394.5 L-586.5 -393.4 L-587 -392.3 L-587.6 -391.3 L-588.2 -390.2 L-588.8 -389.1 L-589.3 -388 L-589.9 -387 L-590.5 -385.9 L-591 -384.8 L-591.6 -383.7 L-592.2 -382.7 L-592.8 -381.6 L-593.3 -380.5 L-593.9 -379.5 L-595 -380 L-596.1 -380.6 L-597.1 -381.2 L-598.2 -381.7 L-599.3 -382.3 L-600.4 -382.9 L-601.4 -383.5 L-602.5 -384 L-603.6 -384.6 L-604.6 -385.2 L-605.7 -385.8 L-606.8 -386.3 L-607.9 -386.9 L-608.9 -387.5 L-610 -388 L-611.1 -388.6 L-612.2 -389.2 L-613.2 -389.8 L-614.3 -390.3 L-615.4 -390.9 L-616.5 -391.5 L-617.5 -392.1 L-618.6 -392.6 L-619.7 -393.2 L-620.8 -393.8 L-620.2 -394.8 L-619.6 -395.9 L-619 -397 L-618.5 -398.1 L-617.9 -399.1 L-617.3 -400.2 L-616.7 -401.3 L-616.2 -402.4 L-615.6 -403.4 L-615 -404.5 L-614.5 -405.6 L-613.9 -406.7 L-613.3 -407.7 L-612.7 -408.8 L-612.2 -409.9 L-611.6 -410.9 L-611 -412 L-610.4 -413.1 L-609.9 -414.2 L-609.3 -415.2 L-608.7 -416.3 L-608.2 -417.4 L-607.6 -418.5 L-607 -419.5 L-606.4 -420.6 Z " />
<path stroke="rgb(0,0,0)" stroke-opacity="0.852" fill="rgb(255,255,255)" fill-opacity="1" d="M24.75 100.3 L24.65 102.2 L24.4 104.2 L23.99 106.1 L23.43 108 L22.72 109.8 L21.86 111.6 L20.87 113.3 L19.75 114.9 L18.5 116.4 L17.14 117.9 L15.66 119.2 L14.09 120.3 L12.43 121.4 L10.69 122.3 L8.881 123.1 L7.018 123.7 L5.11 124.2 L3.169 124.5 L1.209 124.7 L-0.7591 124.7 L-2.722 124.6 L-4.668 124.3 L-6.584 123.9 L-8.459 123.3 L-10.28 122.5 L-12.04 121.6 L-13.72 120.6 L-15.31 119.4 L-16.81 118.2 L-18.2 116.8 L-19.47 115.3 L-20.62 113.7 L-21.65 112 L-22.53 110.2 L-23.27 108.4 L-23.87 106.5 L-24.31 104.6 L-24.6 102.7 L-24.74 100.7 L-24.72 98.74 L-24.54 96.78 L-24.21 94.84 L-23.72 92.94 L-23.08 91.07 L-22.3 89.27 L-21.38 87.53 L-20.32 85.87 L-19.13 84.3 L-17.83 82.83 L-16.41 81.47 L-14.88 80.22 L-13.26 79.1 L-11.56 78.11 L-9.786 77.26 L-7.949 76.56 L-6.062 76 L-4.136 75.59 L-2.185 75.34 L-0.2188 75.25 L1.748 75.31 L3.704 75.52 L5.637 75.9 L7.534 76.42 L9.383 77.09 L11.17 77.91 L12.89 78.87 L14.53 79.96 L16.08 81.18 L17.52 82.51 L18.86 83.96 L20.07 85.51 L21.16 87.15 L22.11 88.87 L22.93 90.66 L23.6 92.51 L24.12 94.41 L24.48 96.34 L24.7 98.3 L24.75 100.3 Z " />
<path stroke="rgb(0,0,0)" stroke-opacity="1" fill="rgb(255,255,255)" fill-opacity="1" d="M-411.6 -414.1 L-410.6 -414 L-409.6 -413.9 L-408.5 -413.8 L-407.5 -413.7 L-406.5 -413.6 L-405.5 -413.5 L-404.5 -413.4 L-403.4 -413.3 L-402.4 -413.2 L-401.4 -413.1 L-400.4 -413 L-399.4 -412.9 L-398.3 -412.8 L-397.3 -412.7 L-396.3 -412.6 L-395.3 -412.5 L-394.3 -412.4 L-393.2 -412.3 L-392.2 -412.2 L-391.2 -412.1 L-390.2 -412 L-389.2 -411.9 L-388.1 -411.8 L-387.1 -411.7 L-386.1 -411.6 L-386.2 -410.6 L-386.3 -409.5 L-386.4 -408.5 L-386.5 -407.5 L-386.6 -406.5 L-386.7 -405.5 L-386.8 -404.4 L-386.9 -403.4 L-387 -402.4 L-387.1 -401.4 L-387.2 -400.4 L-387.3 -399.3 L-387.4 -398.3 L-387.5 -397.3 L-387.6 -396.3 L-387.7 -395.3 L-387.8 -394.2 L-387.9 -393.2 L-388 -392.2 L-388.1 -391.2 L-388.2 -390.2 L-388.3 -389.1 L-388.4 -388.1 L-388.5 -387.1 L-388.6 -386.1 L-389.7 -386.2 L-390.7 -386.3 L-391.7 -386.4 L-392.7 -386.5 L-393.7 -386.6 L-394.8 -386.7 L-395.8 -386.8 L-396.8 -386.9 L-397.8 -387 L-398.8 -387.1 L-399.9 -387.2 L-400.9 -387.3 L-401.9 -387.4 L-402.9 -387.5 L-403.9 -387.6 L-405 -387.7 L-406 -387.8 L-407 -387.9 L-408 -388 L-409 -388.1 L-410.1 -388.2 L-411.1 -388.3 L-412.1 -388.4 L-413.1 -388.5 L-414.1 -388.6 L-414 -389.6 L-413.9 -390.7 L-413.8 -391.7 L-413.7 -392.7 L-413.6 -393.7 L-413.5 -394.7 L-413.4 -395.8 L-413.3 -396.8 L-413.2 -397.8 L-413.1 -398.8 L-413 -399.8 L-412.9 -400.9 L-412.8 -401.9 L-412.7 -402.9 L-412.6 -403.9 L-412.5 -404.9 L-412.4 -406 L-412.3 -407 L-412.2 -408 L-412.1 -409 L-412 -410 L-411.9 -411.1 L-411.8 -412.1 L-411.7 -413.1 L-411.6 -414.1 Z " />
<path stroke="rgb(0,0,0)" stroke-opacity="0.852" fill="rgb(255,255,255)" fill-opacity="1" d="M224.8 100.3 L224.7 102.2 L224.4 104.2 L224 106.1 L223.4 108 L222.7 109.8 L221.9 111.6 L220.9 113.3 L219.7 114.9 L218.5 116.4 L217.1 117.9 L215.7 119.2 L214.1 120.3 L212.4 121.4 L210.7 122.3 L208.9 123.1 L207 123.7 L205.1 124.2 L203.2 124.5 L201.2 124.7 L199.2 124.7 L197.3 124.6 L195.3 124.3 L193.4 123.9 L191.5 123.3 L189.7 122.5 L188 121.6 L186.3 120.6 L184.7 119.4 L183.2 118.2 L181.8 116.8 L180.5 115.3 L179.4 113.7 L178.4 112 L177.5 110.2 L176.7 108.4 L176.1 106.5 L175.7 104.6 L175.4 102.7 L175.3 100.7 L175.3 98.74 L175.5 96.78 L175.8 94.84 L176.3 92.94 L176.9 91.07 L177.7 89.27 L178.6 87.53 L179.7 85.87 L180.9 84.3 L182.2 82.83 L183.6 81.47 L185.1 80.22 L186.7 79.1 L188.4 78.11 L190.2 77.26 L192.1 76.56 L193.9 76 L195.9 75.59 L197.8 75.34 L199.8 75.25 L201.7 75.31 L203.7 75.52 L205.6 75.9 L207.5 76.42 L209.4 77.09 L211.2 77.91 L212.9 78.87 L214.5 79.96 L216.1 81.18 L217.5 82.51 L218.9 83.96 L220.1 85.51 L221.2 87.15 L222.1 88.87 L222.9 90.66 L223.6 92.51 L224.1 94.41 L224.5 96.34 L224.7 98.3 L224.8 100.3 Z " />
<path stroke="rgb(0,0,0)" stroke-opacity="1" fill="rgb(255,255,255)" fill-opacity="1" d="M-212.3 -412.6 L-211.3 -412.6 L-210.3 -412.5 L-209.3 -412.5 L-208.4 -412.5 L-207.4 -412.5 L-206.4 -412.5 L-205.4 -412.5 L-204.4 -412.5 L-203.4 -412.5 L-202.4 -412.5 L-201.5 -412.4 L-200.5 -412.4 L-199.5 -412.4 L-198.5 -412.4 L-197.5 -412.4 L-196.5 -412.4 L-195.5 -412.4 L-194.6 -412.4 L-193.6 -412.4 L-192.6 -412.3 L-191.6 -412.3 L-190.6 -412.3 L-189.6 -412.3 L-188.6 -412.3 L-187.7 -412.3 L-187.7 -411.3 L-187.7 -410.3 L-187.7 -409.3 L-187.7 -408.4 L-187.7 -407.4 L-187.7 -406.4 L-187.7 -405.4 L-187.7 -404.4 L-187.8 -403.4 L-187.8 -402.4 L-187.8 -401.5 L-187.8 -400.5 L-187.8 -399.5 L-187.8 -398.5 L-187.8 -397.5 L-187.8 -396.5 L-187.8 -395.5 L-187.9 -394.6 L-187.9 -393.6 L-187.9 -392.6 L-187.9 -391.6 L-187.9 -390.6 L-187.9 -389.6 L-187.9 -388.6 L-187.9 -387.7 L-188.9 -387.7 L-189.9 -387.7 L-190.9 -387.7 L-191.9 -387.7 L-192.9 -387.7 L-193.8 -387.7 L-194.8 -387.7 L-195.8 -387.7 L-196.8 -387.8 L-197.8 -387.8 L-198.8 -387.8 L-199.8 -387.8 L-200.7 -387.8 L-201.7 -387.8 L-202.7 -387.8 L-203.7 -387.8 L-204.7 -387.8 L-205.7 -387.9 L-206.7 -387.9 L-207.6 -387.9 L-208.6 -387.9 L-209.6 -387.9 L-210.6 -387.9 L-211.6 -387.9 L-212.6 -387.9 L-212.6 -388.9 L-212.6 -389.9 L-212.5 -390.9 L-212.5 -391.9 L-212.5 -392.9 L-212.5 -393.8 L-212.5 -394.8 L-212.5 -395.8 L-212.5 -396.8 L-212.5 -397.8 L-212.5 -398.8 L-212.4 -399.8 L-212.4 -400.7 L-212.4 -401.7 L-212.4 -402.7 L-212.4 -403.7 L-212.4 -404.7 L-212.4 -405.7 L-212.4 -406.7 L-212.4 -407.6 L-212.3 -408.6 L-212.3 -409.6 L-212.3 -410.6 L-212.3 -411.6 L-212.3 -412.6 Z " />
<path stroke="rgb(0,0,0)" stroke-opacity="0.852" fill="rgb(255,255,255)" fill-opacity="1" d="M-275.2 200.3 L-275.3 202.2 L-275.6 204.2 L-276 206.1 L-276.6 208 L-277.3 209.8 L-278.1 211.6 L-279.1 213.3 L-280.3 214.9 L-281.5 216.4 L-282.9 217.9 L-284.3 219.2 L-285.9 220.3 L-287.6 221.4 L-289.3 222.3 L-291.1 223.1 L-293 223.7 L-294.9 224.2 L-296.8 224.5 L-298.8 224.7 L-300.8 224.7 L-302.7 224.6 L-304.7 224.3 L-306.6 223.9 L-308.5 223.3 L-310.3 222.5 L-312 221.6 L-313.7 220.6 L-315.3 219.4 L-316.8 218.2 L-318.2 216.8 L-319.5 215.3 L-320.6 213.7 L-321.6 212 L-322.5 210.2 L-323.3 208.4 L-323.9 206.5 L-324.3 204.6 L-324.6 202.7 L-324.7 200.7 L-324.7 198.7 L-324.5 196.8 L-324.2 194.8 L-323.7 192.9 L-323.1 191.1 L-322.3 189.3 L-321.4 187.5 L-320.3 185.9 L-319.1 184.3 L-317.8 182.8 L-316.4 181.5 L-314.9 180.2 L-313.3 179.1 L-311.6 178.1 L-309.8 177.3 L-307.9 176.6 L-306.1 176 L-304.1 175.6 L-302.2 175.3 L-300.2 175.2 L-298.3 175.3 L-296.3 175.5 L-294.4 175.9 L-292.5 176.4 L-290.6 177.1 L-288.8 177.9 L-287.1 178.9 L-285.5 180 L-283.9 181.2 L-282.5 182.5 L-281.1 184 L-279.9 185.5 L-278.8 187.1 L-277.9 188.9 L-277.1 190.7 L-276.4 192.5 L-275.9 194.4 L-275.5 196.3 L-275.3 198.3 L-275.2 200.3 Z " />
<path stroke="rgb(0,0,0)" stroke-opacity="1" fill="rgb(255,255,255)" fill-opacity="1" d="M-706.4 -320.6 L-705.4 -320 L-704.3 -319.5 L-703.2 -318.9 L-702.1 -318.3 L-701.1 -317.7 L-700 -317.2 L-698.9 -316.6 L-697.8 -316 L-696.8 -315.5 L-695.7 -314.9 L-694.6 -314.3 L-693.6 -313.7 L-692.5 -313.2 L-691.4 -312.6 L-690.3 -312 L-689.3 -311.5 L-688.2 -310.9 L-687.1 -310.3 L-686 -309.7 L-685 -309.2 L-683.9 -308.6 L-682.8 -308 L-681.7 -307.4 L-680.7 -306.9 L-679.6 -306.3 L-680.2 -305.2 L-680.7 -304.1 L-681.3 -303.1 L-681.9 -302 L-682.5 -300.9 L-683 -299.9 L-683.6 -298.8 L-684.2 -297.7 L-684.7 -296.6 L-685.3 -295.6 L-685.9 -294.5 L-686.5 -293.4 L-687 -292.3 L-687.6 -291.3 L-688.2 -290.2 L-688.8 -289.1 L-689.3 -288 L-689.9 -287 L-690.5 -285.9 L-691 -284.8 L-691.6 -283.7 L-692.2 -282.7 L-692.8 -281.6 L-693.3 -280.5 L-693.9 -279.5 L-695 -280 L-696.1 -280.6 L-697.1 -281.2 L-698.2 -281.7 L-699.3 -282.3 L-700.4 -282.9 L-701.4 -283.5 L-702.5 -284 L-703.6 -284.6 L-704.6 -285.2 L-705.7 -285.8 L-706.8 -286.3 L-707.9 -286.9 L-708.9 -287.5 L-710 -288 L-711.1 -288.6 L-712.2 -289.2 L-713.2 -289.8 L-714.3 -290.3 L-715.4 -290.9 L-716.5 -291.5 L-717.5 -292.1 L-718.6 -292.6 L-719.7 -293.2 L-720.8 -293.8 L-720.2 -294.8 L-719.6 -295.9 L-719 -297 L-718.5 -298.1 L-717.9 -299.1 L-717.3 -300.2 L-716.7 -301.3 L-716.2 -302.4 L-715.6 -303.4 L-715 -304.5 L-714.5 -305.6 L-713.9 -306.7 L-713.3 -307.7 L-712.7 -308.8 L-712.2 -309.9 L-711.6 -310.9 L-711 -312 L-710.4 -313.1 L-709.9 -314.2 L-709.3 -315.2 L-708.7 -316.3 L-708.2 -317.4 L-707.6 -318.5 L-707 -319.5 L-706.4 -320.6 Z " />
<path stroke="rgb(0,0,0)" stroke-opacity="0.852" fill="rgb(255,255,255)" fill-opacity="1" d="M-75.25 200.3 L-75.35 202.2 L-75.6 204.2 L-76.01 206.1 L-76.57 208 L-77.28 209.8 L-78.14 211.6 L-79.13 213.3 L-80.25 214.9 L-81.5 216.4 L-82.86 217.9 L-84.34 219.2 L-85.91 220.3 L-87.57 221.4 L-89.31 222.3 L-91.12 223.1 L-92.98 223.7 L-94.89 224.2 L-96.83 224.5 L-98.79 224.7 L-100.8 224.7 L-102.7 224.6 L-104.7 224.3 L-106.6 223.9 L-108.5 223.3 L-110.3 222.5 L-112 221.6 L-113.7 220.6 L-115.3 219.4 L-116.8 218.2 L-118.2 216.8 L-119.5 215.3 L-120.6 213.7 L-121.6 212 L-122.5 210.2 L-123.3 208.4 L-123.9 206.5 L-124.3 204.6 L-124.6 202.7 L-124.7 200.7 L-124.7 198.7 L-124.5 196.8 L-124.2 194.8 L-123.7 192.9 L-123.1 191.1 L-122.3 189.3 L-121.4 187.5 L-120.3 185.9 L-119.1 184.3 L-117.8 182.8 L-116.4 181.5 L-114.9 180.2 L-113.3 179.1 L-111.6 178.1 L-109.8 177.3 L-107.9 176.6 L-106.1 176 L-104.1 175.6 L-102.2 175.3 L-100.2 175.2 L-98.25 175.3 L-96.3 175.5 L-94.36 175.9 L-92.47 176.4 L-90.62 177.1 L-88.83 177.9 L-87.11 178.9 L-85.47 180 L-83.92 181.2 L-82.48 182.5 L-81.14 184 L-79.93 185.5 L-78.84 187.1 L-77.89 188.9 L-77.07 190.7 L-76.4 192.5 L-75.88 194.4 L-75.52 196.3 L-75.3 198.3 L-75.25 200.3 Z " />
<path stroke="rgb(0,0,0)" stroke-opacity="1" fill="rgb(255,255,255)" fill-opacity="1" d="M-511.6 -314.1 L-510.6 -314 L-509.6 -313.9 L-508.5 -313.8 L-507.5 -313.7 L-506.5 -313.6 L-505.5 -313.5 L-504.5 -313.4 L-503.4 -313.3 L-502.4 -313.2 L-501.4 -313.1 L-500.4 -313 L-499.4 -312.9 L-498.3 -312.8 L-497.3 -312.7 L-496.3 -312.6 L-495.3 -312.5 L-494.3 -312.4 L-493.2 -312.3 L-492.2 -312.2 L-491.2 -312.1 L-490.2 -312 L-489.2 -311.9 L-488.1 -311.8 L-487.1 -311.7 L-486.1 -311.6 L-486.2 -310.6 L-486.3 -309.5 L-486.4 -308.5 L-486.5 -307.5 L-486.6 -306.5 L-486.7 -305.5 L-486.8 -304.4 L-486.9 -303.4 L-487 -302.4 L-487.1 -301.4 L-487.2 -300.4 L-487.3 -299.3 L-487.4 -298.3 L-487.5 -297.3 L-487.6 -296.3 L-487.7 -295.3 L-487.8 -294.2 L-487.9 -293.2 L-488 -292.2 L-488.1 -291.2 L-488.2 -290.2 L-488.3 -289.1 L-488.4 -288.1 L-488.5 -287.1 L-488.6 -286.1 L-489.7 -286.2 L-490.7 -286.3 L-491.7 -286.4 L-492.7 -286.5 L-493.7 -286.6 L-494.8 -286.7 L-495.8 -286.8 L-496.8 -286.9 L-497.8 -287 L-498.8 -287.1 L-499.9 -287.2 L-500.9 -287.3 L-501.9 -287.4 L-502.9 -287.5 L-503.9 -287.6 L-505 -287.7 L-506 -287.8 L-507 -287.9 L-508 -288 L-509 -288.1 L-510.1 -288.2 L-511.1 -288.3 L-512.1 -288.4 L-513.1 -288.5 L-514.1 -288.6 L-514 -289.6 L-513.9 -290.7 L-513.8 -291.7 L-513.7 -292.7 L-513.6 -293.7 L-513.5 -294.7 L-513.4 -295.8 L-513.3 -296.8 L-513.2 -297.8 L-513.1 -298.8 L-513 -299.8 L-512.9 -300.9 L-512.8 -301.9 L-512.7 -302.9 L-512.6 -303.9 L-512.5 -304.9 L-512.4 -306 L-512.3 -307 L-512.2 -308 L-512.1 -309 L-512 -310 L-511.9 -311.1 L-511.8 -312.1 L-511.7 -313.1 L-511.6 -314.1 Z " />
<path stroke="rgb(0,0,0)" stroke-opacity="0.852" fill="rgb(255,255,255)" fill-opacity="1" d="M124.8 200.3 L124.7 202.2 L124.4 204.2 L124 206.1 L123.4 208 L122.7 209.8 L121.9 211.6 L120.9 213.3 L119.7 214.9 L118.5 216.4 L117.1 217.9 L115.7 219.2 L114.1 220.3 L112.4 221.4 L110.7 222.3 L108.9 223.1 L107 223.7 L105.1 224.2 L103.2 224.5 L101.2 224.7 L99.24 224.7 L97.28 224.6 L95.33 224.3 L93.42 223.9 L91.54 223.3 L89.72 222.5 L87.96 221.6 L86.28 220.6 L84.69 219.4 L83.19 218.2 L81.8 216.8 L80.53 215.3 L79.38 213.7 L78.35 212 L77.47 210.2 L76.73 208.4 L76.13 206.5 L75.69 204.6 L75.4 202.7 L75.26 200.7 L75.28 198.7 L75.46 196.8 L75.79 194.8 L76.28 192.9 L76.92 191.1 L77.7 189.3 L78.62 187.5 L79.68 185.9 L80.87 184.3 L82.17 182.8 L83.59 181.5 L85.12 180.2 L86.74 179.1 L88.44 178.1 L90.21 177.3 L92.05 176.6 L93.94 176 L95.86 175.6 L97.82 175.3 L99.78 175.2 L101.7 175.3 L103.7 175.5 L105.6 175.9 L107.5 176.4 L109.4 177.1 L111.2 177.9 L112.9 178.9 L114.5 180 L116.1 181.2 L117.5 182.5 L118.9 184 L120.1 185.5 L121.2 187.1 L122.1 188.9 L122.9 190.7 L123.6 192.5 L124.1 194.4 L124.5 196.3 L124.7 198.3 L124.8 200.3 Z " />
<path stroke="rgb(0,0,0)" stroke-opacity="1" fill="rgb(255,255,255)" fill-opacity="1" d="M-312.3 -312.6 L-311.3 -312.6 L-310.3 -312.5 L-309.3 -312.5 L-308.4 -312.5 L-307.4 -312.5 L-306.4 -312.5 L-305.4 -312.5 L-304.4 -312.5 L-303.4 -312.5 L-302.4 -312.5 L-301.5 -312.4 L-300.5 -312.4 L-299.5 -312.4 L-298.5 -312.4 L-297.5 -312.4 L-296.5 -312.4 L-295.5 -312.4 L-294.6 -312.4 L-293.6 -312.4 L-292.6 -312.3 L-291.6 -312.3 L-290.6 -312.3 L-289.6 -312.3 L-288.6 -312.3 L-287.7 -312.3 L-287.7 -311.3 L-287.7 -310.3 L-287.7 -309.3 L-287.7 -308.4 L-287.7 -307.4 L-287.7 -306.4 L-287.7 -305.4 L-287.7 -304.4 L-287.8 -303.4 L-287.8 -302.4 L-287.8 -301.5 L-287.8 -300.5 L-287.8 -299.5 L-287.8 -298.5 L-287.8 -297.5 L-287.8 -296.5 L-287.8 -295.5 L-287.9 -294.6 L-287.9 -293.6 L-287.9 -292.6 L-287.9 -291.6 L-287.9 -290.6 L-287.9 -289.6 L-287.9 -288.6 L-287.9 -287.7 L-288.9 -287.7 L-289.9 -287.7 L-290.9 -287.7 L-291.9 -287.7 L-292.9 -287.7 L-293.8 -287.7 L-294.8 -287.7 L-295.8 -287.7 L-296.8 -287.8 L-297.8 -287.8 L-298.8 -287.8 L-299.8 -287.8 L-300.7 -287.8 L-301.7 -287.8 L-302.7 -287.8 L-303.7 -287.8 L-304.7 -287.8 L-305.7 -287.9 L-306.7 -287.9 L-307.6 -287.9 L-308.6 -287.9 L-309.6 -287.9 L-310.6 -287.9 L-311.6 -287.9 L-312.6 -287.9 L-312.6 -288.9 L-312.6 -289.9 L-312.5 -290.9 L-312.5 -291.9 L-312.5 -292.9 L-312.5 -293.8 L-312.5 -294.8 L-312.5 -295.8 L-312.5 -296.8 L-312.5 -297.8 L-312.5 -298.8 L-312.4 -299.8 L-312.4 -300.7 L-312.4 -301.7 L-312.4 -302.7 L-312.4 -303.7 L-312.4 -304.7 L-312.4 -305.7 L-312.4 -306.7 L-312.4 -307.6 L-312.3 -308.6 L-312.3 -309.6 L-312.3 -310.6 L-312.3 -311.6 L-312.3 -312.6 Z " />
<path stroke="rgb(0,0,0)" stroke-opacity="0.852" fill="rgb(255,255,255)" fill-opacity="1" d="M324.8 200.3 L324.7 202.2 L324.4 204.2 L324 206.1 L323.4 208 L322.7 209.8 L321.9 211.6 L320.9 213.3 L319.7 214.9 L318.5 216.4 L317.1 217.9 L315.7 219.2 L314.1 220.3 L312.4 221.4 L310.7 222.3 L308.9 223.1 L307 223.7 L305.1 224.2 L303.2 224.5 L301.2 224.7 L299.2 224.7 L297.3 224.6 L295.3 224.3 L293.4 223.9 L291.5 223.3 L289.7 222.5 L288 221.6 L286.3 220.6 L284.7 219.4 L283.2 218.2 L281.8 216.8 L280.5 215.3 L279.4 213.7 L278.4 212 L277.5 210.2 L276.7 208.4 L276.1 206.5 L275.7 204.6 L275.4 202.7 L275.3 200.7 L275.3 198.7 L275.5 196.8 L275.8 194.8 L276.3 192.9 L276.9 191.1 L277.7 189.3 L278.6 187.5 L279.7 185.9 L280.9 184.3 L282.2 182.8 L283.6 181.5 L285.1 180.2 L286.7 179.1 L288.4 178.1 L290.2 177.3 L292.1 176.6 L293.9 176 L295.9 175.6 L297.8 175.3 L299.8 175.2 L301.7 175.3 L303.7 175.5 L305.6 175.9 L307.5 176.4 L309.4 177.1 L311.2 177.9 L312.9 178.9 L314.5 180 L316.1 181.2 L317.5 182.5 L318.9 184 L320.1 185.5 L321.2 187.1 L322.1 188.9 L322.9 190.7 L323.6 192.5 L324.1 194.4 L324.5 196.3 L324.7 198.3 L324.8 200.3 Z " />
<path stroke="rgb(0,0,0)" stroke-opacity="1" fill="rgb(255,255,255)" fill-opacity="1" d="M-806.4 -220.6 L-805.4 -220 L-804.3 -219.5 L-803.2 -218.9 L-802.1 -218.3 L-801.1 -217.7 L-800 -217.2 L-798.9 -216.6 L-797.8 -216 L-796.8 -215.5 L-795.7 -214.9 L-794.6 -214.3 L-793.6 -213.7 L-792.5 -213.2 L-791.4 -212.6 L-790.3 -212 L-789.3 -211.5 L-788.2 -210.9 L-787.1 -210.3 L-786 -209.7 L-785 -209.2 L-783.9 -208.6 L-782.8 -208 L-781.7 -207.4 L-780.7 -206.9 L-779.6 -206.3 L-780.2 -205.2 L-780.7 -204.1 L-781.3 -203.1 L-781.9 -202 L-782.5 -200.9 L-783 -199.9 L-783.6 -198.8 L-784.2 -197.7 L-784.7 -196.6 L-785.3 -195.6 L-785.9 -194.5 L-786.5 -193.4 L-787 -192.3 L-787.6 -191.3 L-788.2 -190.2 L-788.8 -189.1 L-789.3 -188 L-789.9 -187 L-790.5 -185.9 L-791 -184.8 L-791.6 -183.7 L-792.2 -182.7 L-792.8 -181.6 L-793.3 -180.5 L-793.9 -179.5 L-795 -180 L-796.1 -180.6 L-797.1 -181.2 L-798.2 -181.7 L-799.3 -182.3 L-800.4 -182.9 L-801.4 -183.5 L-802.5 -184 L-803.6 -184.6 L-804.6 -185.2 L-805.7 -185.8 L-806.8 -186.3 L-807.9 -186.9 L-808.9 -187.5 L-810 -188 L-811.1 -188.6 L-812.2 -189.2 L-813.2 -189.8 L-814.3 -190.3 L-815.4 -190.9 L-816.5 -191.5 L-817.5 -192.1 L-818.6 -192.6 L-819.7 -193.2 L-820.8 -193.8 L-820.2 -194.8 L-819.6 -195.9 L-819 -197 L-818.5 -198.1 L-817.9 -199.1 L-817.3 -200.2 L-816.7 -201.3 L-816.2 -202.4 L-815.6 -203.4 L-815 -204.5 L-814.5 -205.6 L-813.9 -206.7 L-813.3 -207.7 L-812.7 -208.8 L-812.2 -209.9 L-811.6 -210.9 L-811 -212 L-810.4 -213.1 L-809.9 -214.2 L-809.3 -215.2 L-808.7 -216.3 L-808.2 -217.4 L-807.6 -218.5 L-807 -219.5 L-806.4 -220.6 Z " />
<path stroke="rgb(0,0,0)" stroke-opacity="0.852" fill="rgb(255,255,255)" fill-opacity="1" d="M-175.2 300.3 L-175.3 302.2 L-175.6 304.2 L-176 306.1 L-176.6 308 L-177.3 309.8 L-178.1 311.6 L-179.1 313.3 L-180.3 314.9 L-181.5 316.4 L-182.9 317.9 L-184.3 319.2 L-185.9 320.3 L-187.6 321.4 L-189.3 322.3 L-191.1 323.1 L-193 323.7 L-194.9 324.2 L-196.8 324.5 L-198.8 324.7 L-200.8 324.7 L-202.7 324.6 L-204.7 324.3 L-206.6 323.9 L-208.5 323.3 L-210.3 322.5 L-212 321.6 L-213.7 320.6 L-215.3 319.4 L-216.8 318.2 L-218.2 316.8 L-219.5 315.3 L-220.6 313.7 L-221.6 312 L-222.5 310.2 L-223.3 308.4 L-223.9 306.5 L-224.3 304.6 L-224.6 302.7 L-224.7 300.7 L-224.7 298.7 L-224.5 296.8 L-224.2 294.8 L-223.7 292.9 L-223.1 291.1 L-222.3 289.3 L-221.4 287.5 L-220.3 285.9 L-219.1 284.3 L-217.8 282.8 L-216.4 281.5 L-214.9 280.2 L-213.3 279.1 L-211.6 278.1 L-209.8 277.3 L-207.9 276.6 L-206.1 276 L-204.1 275.6 L-202.2 275.3 L-200.2 275.2 L-198.3 275.3 L-196.3 275.5 L-194.4 275.9 L-192.5 276.4 L-190.6 277.1 L-188.8 277.9 L-187.1 278.9 L-185.5 280 L-183.9 281.2 L-182.5 282.5 L-181.1 284 L-179.9 285.5 L-178.8 287.1 L-177.9 288.9 L-177.1 290.7 L-176.4 292.5 L-175.9 294.4 L-175.5 296.3 L-175.3 298.3 L-175.2 300.3 Z " />
<path stroke="rgb(0,0,0)" stroke-opacity="1" fill="rgb(255,255,255)" fill-opacity="1" d="M-611.6 -214.1 L-610.6 -214 L-609.6 -213.9 L-608.5 -213.8 L-607.5 -213.7 L-606.5 -213.6 L-605.5 -213.5 L-604.5 -213.4 L-603.4 -213.3 L-602.4 -213.2 L-601.4 -213.1 L-600.4 -213 L-599.4 -212.9 L-598.3 -212.8 L-597.3 -212.7 L-596.3 -212.6 L-595.3 -212.5 L-594.3 -212.4 L-593.2 -212.3 L-592.2 -212.2 L-591.2 -212.1 L-590.2 -212 L-589.2 -211.9 L-588.1 -211.8 L-587.1 -211.7 L-586.1 -211.6 L-586.2 -210.6 L-586.3 -209.5 L-586.4 -208.5 L-586.5 -207.5 L-586.6 -206.5 L-586.7 -205.5 L-586.8 -204.4 L-586.9 -203.4 L-587 -202.4 L-587.1 -201.4 L-587.2 -200.4 L-587.3 -199.3 L-587.4 -198.3 L-587.5 -197.3 L-587.6 -196.3 L-587.7 -195.3 L-587.8 -194.2 L-587.9 -193.2 L-588 -192.2 L-588.1 -191.2 L-588.2 -190.2 L-588.3 -189.1 L-588.4 -188.1 L-588.5 -187.1 L-588.6 -186.1 L-589.7 -186.2 L-590.7 -186.3 L-591.7 -186.4 L-592.7 -186.5 L-593.7 -186.6 L-594.8 -186.7 L-595.8 -186.8 L-596.8 -186.9 L-597.8 -187 L-598.8 -187.1 L-599.9 -187.2 L-600.9 -187.3 L-601.9 -187.4 L-602.9 -187.5 L-603.9 -187.6 L-605 -187.7 L-606 -187.8 L-607 -187.9 L-608 -188 L-609 -188.1 L-610.1 -188.2 L-611.1 -188.3 L-612.1 -188.4 L-613.1 -188.5 L-614.1 -188.6 L-614 -189.6 L-613.9 -190.7 L-613.8 -191.7 L-613.7 -192.7 L-613.6 -193.7 L-613.5 -194.7 L-613.4 -195.8 L-613.3 -196.8 L-613.2 -197.8 L-613.1 -198.8 L-613 -199.8 L-612.9 -200.9 L-612.8 -201.9 L-612.7 -202.9 L-612.6 -203.9 L-612.5 -204.9 L-612.4 -206 L-612.3 -207 L-612.2 -208 L-612.1 -209 L-612 -210 L-611.9 -211.1 L-611.8 -212.1 L-611.7 -213.1 L-611.6 -214.1 Z " />
<path stroke="rgb(0,0,0)" stroke-opacity="0.852" fill="rgb(255,255,255)" fill-opacity="1" d="M24.75 300.3 L24.65 302.2 L24.4 304.2 L23.99 306.1 L23.43 308 L22.72 309.8 L21.86 311.6 L20.87 313.3 L19.75 314.9 L18.5 316.4 L17.14 317.9 L15.66 319.2 L14.09 320.3 L12.43 321.4 L10.69 322.3 L8.881 323.1 L7.018 323.7 L5.11 324.2 L3.169 324.5 L1.209 324.7 L-0.7591 324.7 L-2.722 324.6 L-4.668 324.3 L-6.584 323.9 L-8.459 323.3 L-10.28 322.5 L-12.04 321.6 L-13.72 320.6 L-15.31 319.4 L-16.81 318.2 L-18.2 316.8 L-19.47 315.3 L-20.62 313.7 L-21.65 312 L-22.53 310.2 L-23.27 308.4 L-23.87 306.5 L-24.31 304.6 L-24.6 302.7 L-24.74 300.7 L-24.72 298.7 L-24.54 296.8 L-24.21 294.8 L-23.72 292.9 L-23.08 291.1 L-22.3 289.3 L-21.38 287.5 L-20.32 285.9 L-19.13 284.3 L-17.83 282.8 L-16.41 281.5 L-14.88 280.2 L-13.26 279.1 L-11.56 278.1 L-9.786 277.3 L-7.949 276.6 L-6.062 276 L-4.136 275.6 L-2.185 275.3 L-0.2188 275.2 L1.748 275.3 L3.704 275.5 L5.637 275.9 L7.534 276.4 L9.383 277.1 L11.17 277.9 L12.89 278.9 L14.53 280 L16.08 281.2 L17.52 282.5 L18.86 284 L20.07 285.5 L21.16 287.1 L22.11 288.9 L22.93 290.7 L23.6 292.5 L24.12 294.4 L24.48 296.3 L24.7 298.3 L24.75 300.3 Z " />
<path stroke="rgb(0,0,0)" stroke-opacity="1" fill="rgb(255,255,255)" fill-opacity="1" d="M-412.3 -212.6 L-411.3 -212.6 L-410.3 -212.5 L-409.3 -212.5 L-408.4 -212.5 L-407.4 -212.5 L-406.4 -212.5 L-405.4 -212.5 L-404.4 -212.5 L-403.4 -212.5 L-402.4 -212.5 L-401.5 -212.4 L-400.5 -212.4 L-399.5 -212.4 L-398.5 -212.4 L-397.5 -212.4 L-396.5 -212.4 L-395.5 -212.4 L-394.6 -212.4 L-393.6 -212.4 L-392.6 -212.3 L-391.6 -212.3 L-390.6 -212.3 L-389.6 -212.3 L-388.6 -212.3 L-387.7 -212.3 L-387.7 -211.3 L-387.7 -210.3 L-387.7 -209.3 L-387.7 -208.4 L-387.7 -207.4 L-387.7 -206.4 L-387.7 -205.4 L-387.7 -204.4 L-387.8 -203.4 L-387.8 -202.4 L-387.8 -201.5 L-387.8 -200.5 L-387.8 -199.5 L-387.8 -198.5 L-387.8 -197.5 L-387.8 -196.5 L-387.8 -195.5 L-387.9 -194.6 L-387.9 -193.6 L-387.9 -192.6 L-387.9 -191.6 L-387.9 -190.6 L-387.9 -189.6 L-387.9 -188.6 L-387.9 -187.7 L-388.9 -187.7 L-389.9 -187.7 L-390.9 -187.7 L-391.9 -187.7 L-392.9 -187.7 L-393.8 -187.7 L-394.8 -187.7 L-395.8 -187.7 L-396.8 -187.8 L-397.8 -187.8 L-398.8 -187.8 L-399.8 -187.8 L-400.7 -187.8 L-401.7 -187.8 L-402.7 -187.8 L-403.7 -187.8 L-404.7 -187.8 L-405.7 -187.9 L-406.7 -187.9 L-407.6 -187.9 L-408.6 -187.9 L-409.6 -187.9 L-410.6 -187.9 L-411.6 -187.9 L-412.6 -187.9 L-412.6 -188.9 L-412.6 -189.9 L-412.5 -190.9 L-412.5 -191.9 L-412.5 -192.9 L-412.5 -193.8 L-412.5 -194.8 L-412.5 -195.8 L-412.5 -196.8 L-412.5 -197.8 L-412.5 -198.8 L-412.4 -199.8 L-412.4 -200.7 L-412.4 -201.7 L-412.4 -202.7 L-412.4 -203.7 L-412.4 -204.7 L-412.4 -205.7 L-412.4 -206.7 L-412.4 -207.6 L-412.3 -208.6 L-412.3 -209.6 L-412.3 -210.6 L-412.3 -211.6 L-412.3 -212.6 Z " />
<path stroke="rgb(0,0,0)" stroke-opacity="0.852" fill="rgb(255,255,255)" fill-opacity="1" d="M224.8 300.3 L224.7 302.2 L224.4 304.2 L224 306.1 L223.4 308 L222.7 309.8 L221.9 311.6 L220.9 313.3 L219.7 314.9 L218.5 316.4 L217.1 317.9 L215.7 319.2 L214.1 320.3 L212.4 321.4 L210.7 322.3 L208.9 323.1 L207 323.7 L205.1 324.2 L203.2 324.5 L201.2 324.7 L199.2 324.7 L197.3 324.6 L195.3 324.3 L193.4 323.9 L191.5 323.3 L189.7 322.5 L188 321.6 L186.3 320.6 L184.7 319.4 L183.2 318.2 L181.8 316.8 L180.5 315.3 L179.4 313.7 L178.4 312 L177.5 310.2 L176.7 308.4 L176.1 306.5 L175.7 304.6 L175.4 302.7 L175.3 300.7 L175.3 298.7 L175.5 296.8 L175.8 294.8 L176.3 292.9 L176.9 291.1 L177.7 289.3 L178.6 287.5 L179.7 285.9 L180.9 284.3 L182.2 282.8 L183.6 281.5 L185.1 280.2 L186.7 279.1 L188.4 278.1 L190.2 277.3 L192.1 276.6 L193.9 276 L195.9 275.6 L197.8 275.3 L199.8 275.2 L201.7 275.3 L203.7 275.5 L205.6 275.9 L207.5 276.4 L209.4 277.1 L211.2 277.9 L212.9 278.9 L214.5 280 L216.1 281.2 L217.5 282.5 L218.9 284 L220.1 285.5 L221.2 287.1 L222.1 288.9 L222.9 290.7 L223.6 292.5 L224.1 294.4 L224.5 296.3 L224.7 298.3 L224.8 300.3 Z " />
<path stroke="rgb(0,0,0)" stroke-opacity="1" fill="rgb(255,255,255)" fill-opacity="1" d="M-212.3 -212.5 L-211.3 -212.5 L-210.3 -212.5 L-209.4 -212.5 L-208.4 -212.5 L-207.4 -212.5 L-206.4 -212.5 L-205.4 -212.5 L-204.4 -212.5 L-203.4 -212.5 L-202.5 -212.4 L-201.5 -212.4 L-200.5 -212.4 L-199.5 -212.4 L-198.5 -212.4 L-197.5 -212.4 L-196.5 -212.4 L-195.6 -212.4 L-194.6 -212.4 L-193.6 -212.4 L-192.6 -212.4 L-191.6 -212.3 L-190.6 -212.3 L-189.7 -212.3 L-188.7 -212.3 L-187.7 -212.3 L-187.7 -211.3 L-187.7 -210.3 L-187.7 -209.3 L-187.7 -208.4 L-187.7 -207.4 L-187.7 -206.4 L-187.8 -205.4 L-187.8 -204.4 L-187.8 -203.4 L-187.8 -202.5 L-187.8 -201.5 L-187.8 -200.5 L-187.8 -199.5 L-187.8 -198.5 L-187.8 -197.5 L-187.8 -196.5 L-187.8 -195.6 L-187.9 -194.6 L-187.9 -193.6 L-187.9 -192.6 L-187.9 -191.6 L-187.9 -190.6 L-187.9 -189.7 L-187.9 -188.7 L-187.9 -187.7 L-188.9 -187.7 L-189.9 -187.7 L-190.9 -187.7 L-191.9 -187.7 L-192.8 -187.7 L-193.8 -187.7 L-194.8 -187.7 L-195.8 -187.8 L-196.8 -187.8 L-197.8 -187.8 L-198.8 -187.8 L-199.7 -187.8 L-200.7 -187.8 L-201.7 -187.8 L-202.7 -187.8 L-203.7 -187.8 L-204.7 -187.8 L-205.7 -187.9 L-206.6 -187.9 L-207.6 -187.9 L-208.6 -187.9 L-209.6 -187.9 L-210.6 -187.9 L-211.6 -187.9 L-212.5 -187.9 L-212.5 -188.9 L-212.5 -189.9 L-212.5 -190.9 L-212.5 -191.9 L-212.5 -192.8 L-212.5 -193.8 L-212.5 -194.8 L-212.5 -195.8 L-212.5 -196.8 L-212.5 -197.8 L-212.4 -198.8 L-212.4 -199.7 L-212.4 -200.7 L-212.4 -201.7 L-212.4 -202.7 L-212.4 -203.7 L-212.4 -204.7 L-212.4 -205.7 L-212.4 -206.6 L-212.4 -207.6 L-212.3 -208.6 L-212.3 -209.6 L-212.3 -210.6 L-212.3 -211.6 L-212.3 -212.5 Z " />
</g>
</g>
</svg>
