<!DOCTYPE svg>
<svg xmlns="http://www.w3.org/2000/svg" xmlns:xlink="http://www.w3.org/1999/xlink" width="1000" height="1000">
<g transform="translate(500.000000,500.000000)">
<g transform="scale(3.000000,3.000000)">
<path stroke="rgb(0,0,0)" stroke-opacity="1" fill="rgb(255,255,255)" fill-opacity="1" d="M-312.6 -287.9 L-312.6 -288.9 L-312.6 -289.9 L-312.6 -290.9 L-312.6 -291.9 L-312.6 -292.9 L-312.6 -293.9 L-312.6 -294.9 L-312.6 -295.9 L-312.6 -296.9 L-312.6 -297.9 L-312.6 -298.9 L-312.6 -299.9 L-312.6 -300.9 L-312.6 -301.9 L-312.6 -302.9 L-312.6 -303.9 L-312.6 -304.9 L-312.6 -305.9 L-312.6 -306.9 L-312.6 -307.9 L-312.6 -308.9 L-312.6 -309.9 L-312.6 -310.9 L-312.6 -311.9 L-312.6 -312.9 L-311.6 -312.9 L-310.6 -312.9 L-309.6 -312.9 L-308.6 -312.9 L-307.6 -312.9 L-306.6 -312.9 L-305.6 -312.9 L-304.6 -312.9 L-303.6 -312.9 L-302.6 -312.9 L-301.6 -312.9 L-300.6 -312.9 L-299.6 -312.9 L-298.6 -312.9 L-297.6 -312.9 L-296.6 -312.9 L-295.6 -312.9 L-294.6 -312.9 L-293.6 -312.9 L-292.6 -312.8 L-291.6 -312.8 L-290.6 -312.8 L-289.6 -312.8 L-288.6 -312.8 L-287.6 -312.8 L-287.6 -311.8 L-287.6 -310.8 L-287.6 -309.8 L-287.6 -308.8 L-287.6 -307.8 L-287.6 -306.8 L-287.6 -305.9 L-287.6 -304.9 L-287.6 -303.9 L-287.6 -302.9 L-287.6 -301.9 L-287.6 -300.9 L-287.6 -299.9 L-287.6 -298.9 L-287.6 -297.9 L-287.6 -296.9 L-287.6 -295.9 L-287.6 -294.9 L-287.6 -293.9 L-287.6 -292.9 L-287.6 -291.9 L-287.6 -290.9 L-287.6 -289.9 L-287.6 -288.9 L-287.7 -287.9 L-288.7 -287.9 L-289.6 -287.9 L-290.6 -287.9 L-291.6 -287.9 L-292.6 -287.9 L-293.6 -287.9 L-294.6 -287.9 L-295.6 -287.9 L-296.6 -287.9 L-297.6 -287.9 L-298.6 -287.9 L-299.6 -287.9 L-300.6 -287.9 L-301.6 -287.9 L-302.6 -287.9 L-303.6 -287.9 L-304.6 -287.9 L-305.6 -287.9 L-306.6 -287.9 L-307.6 -287.9 L-308.6 -287.9 L-309.6 -287.9 L-310.6 -287.9 L-311.6 -287.9 L-312.6 -287.9 Z " />
<path stroke="rgb(0,0,0)" stroke-opacity="0.996" fill="rgb(255,255,255)" fill-opacity="1" d="M-175 -300 L-175.1 -298 L-175.3 -296 L-175.7 -294.1 L-176.3 -292.2 L-177 -290.3 L-177.8 -288.5 L-178.8 -286.8 L-179.9 -285.1 L-181.1 -283.6 L-182.5 -282.1 L-184 -280.8 L-185.5 -279.6 L-187.2 -278.5 L-189 -277.6 L-190.8 -276.8 L-192.7 -276.1 L-194.6 -275.6 L-196.5 -275.2 L-198.5 -275 L-200.5 -275 L-202.5 -275.1 L-204.4 -275.4 L-206.4 -275.8 L-208.3 -276.4 L-210.1 -277.1 L-211.9 -278 L-213.6 -279 L-215.3 -280.2 L-216.8 -281.5 L-218.2 -282.9 L-219.5 -284.4 L-220.7 -286 L-221.7 -287.6 L-222.6 -289.4 L-223.4 -291.2 L-224 -293.1 L-224.5 -295.1 L-224.8 -297 L-225 -299 L-225 -301 L-224.8 -303 L-224.5 -304.9 L-224 -306.9 L-223.4 -308.8 L-222.6 -310.6 L-221.7 -312.4 L-220.7 -314 L-219.5 -315.6 L-218.2 -317.1 L-216.8 -318.5 L-215.3 -319.8 L-213.6 -321 L-211.9 -322 L-210.1 -322.9 L-208.3 -323.6 L-206.4 -324.2 L-204.4 -324.6 L-202.5 -324.9 L-200.5 -325 L-198.5 -325 L-196.5 -324.8 L-194.6 -324.4 L-192.7 -323.9 L-190.8 -323.2 L-189 -322.4 L-187.2 -321.5 L-185.5 -320.4 L-184 -319.2 L-182.5 -317.9 L-181.1 -316.4 L-179.9 -314.9 L-178.8 -313.2 L-177.8 -311.5 L-177 -309.7 L-176.3 -307.8 L-175.7 -305.9 L-175.3 -304 L-175.1 -302 L-175 -300 Z " />
<path stroke="rgb(0,0,0)" stroke-opacity="1" fill="rgb(255,255,255)" fill-opacity="1" d="M-112.6 -287.9 L-112.6 -288.9 L-112.6 -289.9 L-112.6 -290.9 L-112.6 -291.9 L-112.6 -292.9 L-112.6 -293.9 L-112.6 -294.9 L-112.6 -295.9 L-112.6 -296.9 L-112.6 -297.9 L-112.6 -298.9 L-112.6 -299.9 L-112.6 -300.9 L-112.6 -301.9 L-112.6 -302.9 L-112.6 -303.9 L-112.6 -304.9 L-112.6 -305.9 L-112.6 -306.9 L-112.6 -307.9 L-112.6 -308.9 L-112.6 -309.9 L-112.6 -310.9 L-112.6 -311.9 L-112.6 -312.9 L-111.6 -312.9 L-110.6 -312.9 L-109.6 -312.9 L-108.6 -312.9 L-107.6 -312.9 L-106.6 -312.9 L-105.6 -312.9 L-104.6 -312.9 L-103.6 -312.9 L-102.6 -312.9 L-101.6 -312.9 L-100.6 -312.9 L-99.61 -312.9 L-98.61 -312.9 L-97.61 -312.9 L-96.61 -312.9 L-95.61 -312.9 L-94.61 -312.9 L-93.61 -312.9 L-92.61 -312.8 L-91.62 -312.8 L-90.62 -312.8 L-89.62 -312.8 L-88.62 -312.8 L-87.62 -312.8 L-87.62 -311.8 L-87.62 -310.8 L-87.62 -309.8 L-87.62 -308.8 L-87.63 -307.8 L-87.63 -306.8 L-87.63 -305.9 L-87.63 -304.9 L-87.63 -303.9 L-87.63 -302.9 L-87.63 -301.9 L-87.63 -300.9 L-87.64 -299.9 L-87.64 -298.9 L-87.64 -297.9 L-87.64 -296.9 L-87.64 -295.9 L-87.64 -294.9 L-87.64 -293.9 L-87.64 -292.9 L-87.65 -291.9 L-87.65 -290.9 L-87.65 -289.9 L-87.65 -288.9 L-87.65 -287.9 L-88.65 -287.9 L-89.65 -287.9 L-90.65 -287.9 L-91.65 -287.9 L-92.65 -287.9 L-93.65 -287.9 L-94.64 -287.9 L-95.64 -287.9 L-96.64 -287.9 L-97.64 -287.9 L-98.64 -287.9 L-99.64 -287.9 L-100.6 -287.9 L-101.6 -287.9 L-102.6 -287.9 L-103.6 -287.9 L-104.6 -287.9 L-105.6 -287.9 L-106.6 -287.9 L-107.6 -287.9 L-108.6 -287.9 L-109.6 -287.9 L-110.6 -287.9 L-111.6 -287.9 L-112.6 -287.9 Z " />
<path stroke="rgb(0,0,0)" stroke-opacity="0.996" fill="rgb(255,255,255)" fill-opacity="1" d="M25 -300 L24.92 -298 L24.68 -296 L24.29 -294.1 L23.75 -292.2 L23.05 -290.3 L22.21 -288.5 L21.22 -286.8 L20.11 -285.1 L18.86 -283.6 L17.5 -282.1 L16.03 -280.8 L14.45 -279.6 L12.79 -278.5 L11.04 -277.6 L9.222 -276.8 L7.346 -276.1 L5.424 -275.6 L3.468 -275.2 L1.49 -275 L-0.4971 -275 L-2.481 -275.1 L-4.45 -275.4 L-6.39 -275.8 L-8.29 -276.4 L-10.14 -277.1 L-11.92 -278 L-13.63 -279 L-15.25 -280.2 L-16.78 -281.5 L-18.2 -282.9 L-19.5 -284.4 L-20.68 -286 L-21.73 -287.6 L-22.65 -289.4 L-23.42 -291.2 L-24.04 -293.1 L-24.51 -295.1 L-24.82 -297 L-24.98 -299 L-24.98 -301 L-24.82 -303 L-24.51 -304.9 L-24.04 -306.9 L-23.42 -308.8 L-22.65 -310.6 L-21.73 -312.4 L-20.68 -314 L-19.5 -315.6 L-18.2 -317.1 L-16.78 -318.5 L-15.25 -319.8 L-13.63 -321 L-11.92 -322 L-10.14 -322.9 L-8.29 -323.6 L-6.39 -324.2 L-4.45 -324.6 L-2.481 -324.9 L-0.4971 -325 L1.49 -325 L3.468 -324.8 L5.424 -324.4 L7.346 -323.9 L9.222 -323.2 L11.04 -322.4 L12.79 -321.5 L14.45 -320.4 L16.03 -319.2 L17.5 -317.9 L18.86 -316.4 L20.11 -314.9 L21.22 -313.2 L22.21 -311.5 L23.05 -309.7 L23.75 -307.8 L24.29 -305.9 L24.68 -304 L24.92 -302 L25 -300 Z " />
<path stroke="rgb(0,0,0)" stroke-opacity="1" fill="rgb(255,255,255)" fill-opacity="1" d="M87.37 -287.9 L87.37 -288.9 L87.37 -289.9 L87.38 -290.9 L87.38 -291.9 L87.38 -292.9 L87.38 -293.9 L87.38 -294.9 L87.38 -295.9 L87.38 -296.9 L87.38 -297.9 L87.39 -298.9 L87.39 -299.9 L87.39 -300.9 L87.39 -301.9 L87.39 -302.9 L87.39 -303.9 L87.39 -304.9 L87.39 -305.9 L87.4 -306.9 L87.4 -307.9 L87.4 -308.9 L87.4 -309.9 L87.4 -310.9 L87.4 -311.9 L87.4 -312.9 L88.4 -312.9 L89.4 -312.9 L90.4 -312.9 L91.4 -312.9 L92.4 -312.9 L93.4 -312.9 L94.4 -312.9 L95.4 -312.9 L96.4 -312.9 L97.39 -312.9 L98.39 -312.9 L99.39 -312.9 L100.4 -312.9 L101.4 -312.9 L102.4 -312.9 L103.4 -312.9 L104.4 -312.9 L105.4 -312.9 L106.4 -312.9 L107.4 -312.8 L108.4 -312.8 L109.4 -312.8 L110.4 -312.8 L111.4 -312.8 L112.4 -312.8 L112.4 -311.8 L112.4 -310.8 L112.4 -309.8 L112.4 -308.8 L112.4 -307.8 L112.4 -306.8 L112.4 -305.9 L112.4 -304.9 L112.4 -303.9 L112.4 -302.9 L112.4 -301.9 L112.4 -300.9 L112.4 -299.9 L112.4 -298.9 L112.4 -297.9 L112.4 -296.9 L112.4 -295.9 L112.4 -294.9 L112.4 -293.9 L112.4 -292.9 L112.4 -291.9 L112.4 -290.9 L112.4 -289.9 L112.4 -288.9 L112.3 -287.9 L111.3 -287.9 L110.4 -287.9 L109.4 -287.9 L108.4 -287.9 L107.4 -287.9 L106.4 -287.9 L105.4 -287.9 L104.4 -287.9 L103.4 -287.9 L102.4 -287.9 L101.4 -287.9 L100.4 -287.9 L99.36 -287.9 L98.36 -287.9 L97.36 -287.9 L96.36 -287.9 L95.36 -287.9 L94.37 -287.9 L93.37 -287.9 L92.37 -287.9 L91.37 -287.9 L90.37 -287.9 L89.37 -287.9 L88.37 -287.9 L87.37 -287.9 Z " />
<path stroke="rgb(0,0,0)" stroke-opacity="0.996" fill="rgb(255,255,255)" fill-opacity="1" d="M225 -300 L224.9 -298 L224.7 -296 L224.3 -294.1 L223.7 -292.2 L223 -290.3 L222.2 -288.5 L221.2 -286.8 L220.1 -285.1 L218.9 -283.6 L217.5 -282.1 L216 -280.8 L214.5 -279.6 L212.8 -278.5 L211 -277.6 L209.2 -276.8 L207.3 -276.1 L205.4 -275.6 L203.5 -275.2 L201.5 -275 L199.5 -275 L197.5 -275.1 L195.6 -275.4 L193.6 -275.8 L191.7 -276.4 L189.9 -277.1 L188.1 -278 L186.4 -279 L184.7 -280.2 L183.2 -281.5 L181.8 -282.9 L180.5 -284.4 L179.3 -286 L178.3 -287.6 L177.4 -289.4 L176.6 -291.2 L176 -293.1 L175.5 -295.1 L175.2 -297 L175 -299 L175 -301 L175.2 -303 L175.5 -304.9 L176 -306.9 L176.6 -308.8 L177.4 -310.6 L178.3 -312.4 L179.3 -314 L180.5 -315.6 L181.8 -317.1 L183.2 -318.5 L184.7 -319.8 L186.4 -321 L188.1 -322 L189.9 -322.9 L191.7 -323.6 L193.6 -324.2 L195.6 -324.6 L197.5 -324.9 L199.5 -325 L201.5 -325 L203.5 -324.8 L205.4 -324.4 L207.3 -323.9 L209.2 -323.2 L211 -322.4 L212.8 -321.5 L214.5 -320.4 L216 -319.2 L217.5 -317.9 L218.9 -316.4 L220.1 -314.9 L221.2 -313.2 L222.2 -311.5 L223 -309.7 L223.7 -307.8 L224.3 -305.9 L224.7 -304 L224.9 -302 L225 -300 Z " />
<path stroke="rgb(0,0,0)" stroke-opacity="1" fill="rgb(255,255,255)" fill-opacity="1" d="M287.4 -287.9 L287.4 -288.9 L287.4 -289.9 L287.4 -290.9 L287.4 -291.9 L287.4 -292.9 L287.4 -293.9 L287.4 -294.9 L287.4 -295.9 L287.4 -296.9 L287.4 -297.9 L287.4 -298.9 L287.4 -299.9 L287.4 -300.9 L287.4 -301.9 L287.4 -302.9 L287.4 -303.9 L287.4 -304.9 L287.4 -305.9 L287.4 -306.9 L287.4 -307.9 L287.4 -308.9 L287.4 -309.9 L287.4 -310.9 L287.4 -311.9 L287.4 -312.9 L288.4 -312.9 L289.4 -312.9 L290.4 -312.9 L291.4 -312.9 L292.4 -312.9 L293.4 -312.9 L294.4 -312.9 L295.4 -312.9 L296.4 -312.9 L297.4 -312.9 L298.4 -312.9 L299.4 -312.9 L300.4 -312.9 L301.4 -312.9 L302.4 -312.9 L303.4 -312.9 L304.4 -312.9 L305.4 -312.9 L306.4 -312.9 L307.4 -312.8 L308.4 -312.8 L309.4 -312.8 L310.4 -312.8 L311.4 -312.8 L312.4 -312.8 L312.4 -311.8 L312.4 -310.8 L312.4 -309.8 L312.4 -308.8 L312.4 -307.8 L312.4 -306.8 L312.4 -305.9 L312.4 -304.9 L312.4 -303.9 L312.4 -302.9 L312.4 -301.9 L312.4 -300.9 L312.4 -299.9 L312.4 -298.9 L312.4 -297.9 L312.4 -296.9 L312.4 -295.9 L312.4 -294.9 L312.4 -293.9 L312.4 -292.9 L312.4 -291.9 L312.4 -290.9 L312.4 -289.9 L312.4 -288.9 L312.3 -287.9 L311.3 -287.9 L310.4 -287.9 L309.4 -287.9 L308.4 -287.9 L307.4 -287.9 L306.4 -287.9 L305.4 -287.9 L304.4 -287.9 L303.4 -287.9 L302.4 -287.9 L301.4 -287.9 L300.4 -287.9 L299.4 -287.9 L298.4 -287.9 L297.4 -287.9 L296.4 -287.9 L295.4 -287.9 L294.4 -287.9 L293.4 -287.9 L292.4 -287.9 L291.4 -287.9 L290.4 -287.9 L289.4 -287.9 L288.4 -287.9 L287.4 -287.9 Z " />
<path stroke="rgb(0,0,0)" stroke-opacity="0.996" fill="rgb(255,255,255)" fill-opacity="1" d="M-275 -200 L-275.1 -198 L-275.3 -196 L-275.7 -194.1 L-276.3 -192.2 L-277 -190.3 L-277.8 -188.5 L-278.8 -186.8 L-279.9 -185.1 L-281.1 -183.6 L-282.5 -182.1 L-284 -180.8 L-285.5 -179.6 L-287.2 -178.5 L-289 -177.6 L-290.8 -176.8 L-292.7 -176.1 L-294.6 -175.6 L-296.5 -175.2 L-298.5 -175 L-300.5 -175 L-302.5 -175.1 L-304.4 -175.4 L-306.4 -175.8 L-308.3 -176.4 L-310.1 -177.1 L-311.9 -178 L-313.6 -179 L-315.3 -180.2 L-316.8 -181.5 L-318.2 -182.9 L-319.5 -184.4 L-320.7 -186 L-321.7 -187.6 L-322.6 -189.4 L-323.4 -191.2 L-324 -193.1 L-324.5 -195.1 L-324.8 -197 L-325 -199 L-325 -201 L-324.8 -203 L-324.5 -204.9 L-324 -206.9 L-323.4 -208.8 L-322.6 -210.6 L-321.7 -212.4 L-320.7 -214 L-319.5 -215.6 L-318.2 -217.1 L-316.8 -218.5 L-315.3 -219.8 L-313.6 -221 L-311.9 -222 L-310.1 -222.9 L-308.3 -223.6 L-306.4 -224.2 L-304.4 -224.6 L-302.5 -224.9 L-300.5 -225 L-298.5 -225 L-296.5 -224.8 L-294.6 -224.4 L-292.7 -223.9 L-290.8 -223.2 L-289 -222.4 L-287.2 -221.5 L-285.5 -220.4 L-284 -219.2 L-282.5 -217.9 L-281.1 -216.4 L-279.9 -214.9 L-278.8 -213.2 L-277.8 -211.5 L-277 -209.7 L-276.3 -207.8 L-275.7 -205.9 L-275.3 -204 L-275.1 -202 L-275 -200 Z " />
<path stroke="rgb(0,0,0)" stroke-opacity="1" fill="rgb(255,255,255)" fill-opacity="1" d="M-212.6 -187.9 L-212.6 -188.9 L-212.6 -189.9 L-212.6 -190.9 L-212.6 -191.9 L-212.6 -192.9 L-212.6 -193.9 L-212.6 -194.9 L-212.6 -195.9 L-212.6 -196.9 L-212.6 -197.9 L-212.6 -198.9 L-212.6 -199.9 L-212.6 -200.9 L-212.6 -201.9 L-212.6 -202.9 L-212.6 -203.9 L-212.6 -204.9 L-212.6 -205.9 L-212.6 -206.9 L-212.6 -207.9 L-212.6 -208.9 L-212.6 -209.9 L-212.6 -210.9 L-212.6 -211.9 L-212.6 -212.9 L-211.6 -212.9 L-210.6 -212.9 L-209.6 -212.9 L-208.6 -212.9 L-207.6 -212.9 L-206.6 -212.9 L-205.6 -212.9 L-204.6 -212.9 L-203.6 -212.9 L-202.6 -212.9 L-201.6 -212.9 L-200.6 -212.9 L-199.6 -212.9 L-198.6 -212.9 L-197.6 -212.9 L-196.6 -212.9 L-195.6 -212.9 L-194.6 -212.9 L-193.6 -212.9 L-192.6 -212.8 L-191.6 -212.8 L-190.6 -212.8 L-189.6 -212.8 L-188.6 -212.8 L-187.6 -212.8 L-187.6 -211.8 L-187.6 -210.8 L-187.6 -209.8 L-187.6 -208.8 L-187.6 -207.8 L-187.6 -206.8 L-187.6 -205.9 L-187.6 -204.9 L-187.6 -203.9 L-187.6 -202.9 L-187.6 -201.9 L-187.6 -200.9 L-187.6 -199.9 L-187.6 -198.9 L-187.6 -197.9 L-187.6 -196.9 L-187.6 -195.9 L-187.6 -194.9 L-187.6 -193.9 L-187.6 -192.9 L-187.6 -191.9 L-187.6 -190.9 L-187.6 -189.9 L-187.6 -188.9 L-187.7 -187.9 L-188.7 -187.9 L-189.6 -187.9 L-190.6 -187.9 L-191.6 -187.9 L-192.6 -187.9 L-193.6 -187.9 L-194.6 -187.9 L-195.6 -187.9 L-196.6 -187.9 L-197.6 -187.9 L-198.6 -187.9 L-199.6 -187.9 L-200.6 -187.9 L-201.6 -187.9 L-202.6 -187.9 L-203.6 -187.9 L-204.6 -187.9 L-205.6 -187.9 L-206.6 -187.9 L-207.6 -187.9 L-208.6 -187.9 L-209.6 -187.9 L-210.6 -187.9 L-211.6 -187.9 L-212.6 -187.9 Z " />
<path stroke="rgb(0,0,0)" stroke-opacity="0.996" fill="rgb(255,255,255)" fill-opacity="1" d="M-75 -200 L-75.08 -198 L-75.32 -196 L-75.71 -194.1 L-76.25 -192.2 L-76.95 -190.3 L-77.79 -188.5 L-78.78 -186.8 L-79.89 -185.1 L-81.14 -183.6 L-82.5 -182.1 L-83.97 -180.8 L-85.55 -179.6 L-87.21 -178.5 L-88.96 -177.6 L-90.78 -176.8 L-92.65 -176.1 L-94.58 -175.6 L-96.53 -175.2 L-98.51 -175 L-100.5 -175 L-102.5 -175.1 L-104.4 -175.4 L-106.4 -175.8 L-108.3 -176.4 L-110.1 -177.1 L-111.9 -178 L-113.6 -179 L-115.3 -180.2 L-116.8 -181.5 L-118.2 -182.9 L-119.5 -184.4 L-120.7 -186 L-121.7 -187.6 L-122.6 -189.4 L-123.4 -191.2 L-124 -193.1 L-124.5 -195.1 L-124.8 -197 L-125 -199 L-125 -201 L-124.8 -203 L-124.5 -204.9 L-124 -206.9 L-123.4 -208.8 L-122.6 -210.6 L-121.7 -212.4 L-120.7 -214 L-119.5 -215.6 L-118.2 -217.1 L-116.8 -218.5 L-115.3 -219.8 L-113.6 -221 L-111.9 -222 L-110.1 -222.9 L-108.3 -223.6 L-106.4 -224.2 L-104.4 -224.6 L-102.5 -224.9 L-100.5 -225 L-98.51 -225 L-96.53 -224.8 L-94.58 -224.4 L-92.65 -223.9 L-90.78 -223.2 L-88.96 -222.4 L-87.21 -221.5 L-85.55 -220.4 L-83.97 -219.2 L-82.5 -217.9 L-81.14 -216.4 L-79.89 -214.9 L-78.78 -213.2 L-77.79 -211.5 L-76.95 -209.7 L-76.25 -207.8 L-75.71 -205.9 L-75.32 -204 L-75.08 -202 L-75 -200 Z " />
<path stroke="rgb(0,0,0)" stroke-opacity="1" fill="rgb(255,255,255)" fill-opacity="1" d="M-12.63 -187.9 L-12.63 -188.9 L-12.63 -189.9 L-12.62 -190.9 L-12.62 -191.9 L-12.62 -192.9 L-12.62 -193.9 L-12.62 -194.9 L-12.62 -195.9 L-12.62 -196.9 L-12.62 -197.9 L-12.61 -198.9 L-12.61 -199.9 L-12.61 -200.9 L-12.61 -201.9 L-12.61 -202.9 L-12.61 -203.9 L-12.61 -204.9 L-12.61 -205.9 L-12.6 -206.9 L-12.6 -207.9 L-12.6 -208.9 L-12.6 -209.9 L-12.6 -210.9 L-12.6 -211.9 L-12.6 -212.9 L-11.6 -212.9 L-10.6 -212.9 L-9.599 -212.9 L-8.6 -212.9 L-7.601 -212.9 L-6.602 -212.9 L-5.603 -212.9 L-4.604 -212.9 L-3.605 -212.9 L-2.606 -212.9 L-1.607 -212.9 L-0.6074 -212.9 L0.3916 -212.9 L1.391 -212.9 L2.39 -212.9 L3.389 -212.9 L4.388 -212.9 L5.387 -212.9 L6.386 -212.9 L7.385 -212.8 L8.384 -212.8 L9.383 -212.8 L10.38 -212.8 L11.38 -212.8 L12.38 -212.8 L12.38 -211.8 L12.38 -210.8 L12.38 -209.8 L12.38 -208.8 L12.37 -207.8 L12.37 -206.8 L12.37 -205.9 L12.37 -204.9 L12.37 -203.9 L12.37 -202.9 L12.37 -201.9 L12.37 -200.9 L12.36 -199.9 L12.36 -198.9 L12.36 -197.9 L12.36 -196.9 L12.36 -195.9 L12.36 -194.9 L12.36 -193.9 L12.36 -192.9 L12.35 -191.9 L12.35 -190.9 L12.35 -189.9 L12.35 -188.9 L12.35 -187.9 L11.35 -187.9 L10.35 -187.9 L9.352 -187.9 L8.353 -187.9 L7.354 -187.9 L6.354 -187.9 L5.355 -187.9 L4.356 -187.9 L3.357 -187.9 L2.358 -187.9 L1.359 -187.9 L0.36 -187.9 L-0.6391 -187.9 L-1.638 -187.9 L-2.637 -187.9 L-3.636 -187.9 L-4.635 -187.9 L-5.634 -187.9 L-6.634 -187.9 L-7.633 -187.9 L-8.632 -187.9 L-9.631 -187.9 L-10.63 -187.9 L-11.63 -187.9 L-12.63 -187.9 Z " />
<path stroke="rgb(0,0,0)" stroke-opacity="0.996" fill="rgb(255,255,255)" fill-opacity="1" d="M125 -200 L124.9 -198 L124.7 -196 L124.3 -194.1 L123.7 -192.2 L123 -190.3 L122.2 -188.5 L121.2 -186.8 L120.1 -185.1 L118.9 -183.6 L117.5 -182.1 L116 -180.8 L114.5 -179.6 L112.8 -178.5 L111 -177.6 L109.2 -176.8 L107.3 -176.1 L105.4 -175.6 L103.5 -175.2 L101.5 -175 L99.5 -175 L97.52 -175.1 L95.55 -175.4 L93.61 -175.8 L91.71 -176.4 L89.86 -177.1 L88.08 -178 L86.37 -179 L84.75 -180.2 L83.22 -181.5 L81.8 -182.9 L80.5 -184.4 L79.32 -186 L78.27 -187.6 L77.35 -189.4 L76.58 -191.2 L75.96 -193.1 L75.49 -195.1 L75.18 -197 L75.02 -199 L75.02 -201 L75.18 -203 L75.49 -204.9 L75.96 -206.9 L76.58 -208.8 L77.35 -210.6 L78.27 -212.4 L79.32 -214 L80.5 -215.6 L81.8 -217.1 L83.22 -218.5 L84.75 -219.8 L86.37 -221 L88.08 -222 L89.86 -222.9 L91.71 -223.6 L93.61 -224.2 L95.55 -224.6 L97.52 -224.9 L99.5 -225 L101.5 -225 L103.5 -224.8 L105.4 -224.4 L107.3 -223.9 L109.2 -223.2 L111 -222.4 L112.8 -221.5 L114.5 -220.4 L116 -219.2 L117.5 -217.9 L118.9 -216.4 L120.1 -214.9 L121.2 -213.2 L122.2 -211.5 L123 -209.7 L123.7 -207.8 L124.3 -205.9 L124.7 -204 L124.9 -202 L125 -200 Z " />
<path stroke="rgb(0,0,0)" stroke-opacity="1" fill="rgb(255,255,255)" fill-opacity="1" d="M187.4 -187.9 L187.4 -188.9 L187.4 -189.9 L187.4 -190.9 L187.4 -191.9 L187.4 -192.9 L187.4 -193.9 L187.4 -194.9 L187.4 -195.9 L187.4 -196.9 L187.4 -197.9 L187.4 -198.9 L187.4 -199.9 L187.4 -200.9 L187.4 -201.9 L187.4 -202.9 L187.4 -203.9 L187.4 -204.9 L187.4 -205.9 L187.4 -206.9 L187.4 -207.9 L187.4 -208.9 L187.4 -209.9 L187.4 -210.9 L187.4 -211.9 L187.4 -212.9 L188.4 -212.9 L189.4 -212.9 L190.4 -212.9 L191.4 -212.9 L192.4 -212.9 L193.4 -212.9 L194.4 -212.9 L195.4 -212.9 L196.4 -212.9 L197.4 -212.9 L198.4 -212.9 L199.4 -212.9 L200.4 -212.9 L201.4 -212.9 L202.4 -212.9 L203.4 -212.9 L204.4 -212.9 L205.4 -212.9 L206.4 -212.9 L207.4 -212.8 L208.4 -212.8 L209.4 -212.8 L210.4 -212.8 L211.4 -212.8 L212.4 -212.8 L212.4 -211.8 L212.4 -210.8 L212.4 -209.8 L212.4 -208.8 L212.4 -207.8 L212.4 -206.8 L212.4 -205.9 L212.4 -204.9 L212.4 -203.9 L212.4 -202.9 L212.4 -201.9 L212.4 -200.9 L212.4 -199.9 L212.4 -198.9 L212.4 -197.9 L212.4 -196.9 L212.4 -195.9 L212.4 -194.9 L212.4 -193.9 L212.4 -192.9 L212.4 -191.9 L212.4 -190.9 L212.4 -189.9 L212.4 -188.9 L212.3 -187.9 L211.3 -187.9 L210.4 -187.9 L209.4 -187.9 L208.4 -187.9 L207.4 -187.9 L206.4 -187.9 L205.4 -187.9 L204.4 -187.9 L203.4 -187.9 L202.4 -187.9 L201.4 -187.9 L200.4 -187.9 L199.4 -187.9 L198.4 -187.9 L197.4 -187.9 L196.4 -187.9 L195.4 -187.9 L194.4 -187.9 L193.4 -187.9 L192.4 -187.9 L191.4 -187.9 L190.4 -187.9 L189.4 -187.9 L188.4 -187.9 L187.4 -187.9 Z " />
<path stroke="rgb(0,0,0)" stroke-opacity="0.996" fill="rgb(255,255,255)" fill-opacity="1" d="M325 -200 L324.9 -198 L324.7 -196 L324.3 -194.1 L323.7 -192.2 L323 -190.3 L322.2 -188.5 L321.2 -186.8 L320.1 -185.1 L318.9 -183.6 L317.5 -182.1 L316 -180.8 L314.5 -179.6 L312.8 -178.5 L311 -177.6 L309.2 -176.8 L307.3 -176.1 L305.4 -175.6 L303.5 -175.2 L301.5 -175 L299.5 -175 L297.5 -175.1 L295.6 -175.4 L293.6 -175.8 L291.7 -176.4 L289.9 -177.1 L288.1 -178 L286.4 -179 L284.7 -180.2 L283.2 -181.5 L281.8 -182.9 L280.5 -184.4 L279.3 -186 L278.3 -187.6 L277.4 -189.4 L276.6 -191.2 L276 -193.1 L275.5 -195.1 L275.2 -197 L275 -199 L275 -201 L275.2 -203 L275.5 -204.9 L276 -206.9 L276.6 -208.8 L277.4 -210.6 L278.3 -212.4 L279.3 -214 L280.5 -215.6 L281.8 -217.1 L283.2 -218.5 L284.7 -219.8 L286.4 -221 L288.1 -222 L289.9 -222.9 L291.7 -223.6 L293.6 -224.2 L295.6 -224.6 L297.5 -224.9 L299.5 -225 L301.5 -225 L303.5 -224.8 L305.4 -224.4 L307.3 -223.9 L309.2 -223.2 L311 -222.4 L312.8 -221.5 L314.5 -220.4 L316 -219.2 L317.5 -217.9 L318.9 -216.4 L320.1 -214.9 L321.2 -213.2 L322.2 -211.5 L323 -209.7 L323.7 -207.8 L324.3 -205.9 L324.7 -204 L324.9 -202 L325 -200 Z " />
<path stroke="rgb(0,0,0)" stroke-opacity="1" fill="rgb(255,255,255)" fill-opacity="1" d="M-312.6 -87.9 L-312.6 -88.9 L-312.6 -89.9 L-312.6 -90.9 L-312.6 -91.89 L-312.6 -92.89 L-312.6 -93.89 L-312.6 -94.89 L-312.6 -95.89 L-312.6 -96.89 L-312.6 -97.89 L-312.6 -98.89 L-312.6 -99.89 L-312.6 -100.9 L-312.6 -101.9 L-312.6 -102.9 L-312.6 -103.9 L-312.6 -104.9 L-312.6 -105.9 L-312.6 -106.9 L-312.6 -107.9 L-312.6 -108.9 L-312.6 -109.9 L-312.6 -110.9 L-312.6 -111.9 L-312.6 -112.9 L-311.6 -112.9 L-310.6 -112.9 L-309.6 -112.9 L-308.6 -112.9 L-307.6 -112.9 L-306.6 -112.9 L-305.6 -112.9 L-304.6 -112.9 L-303.6 -112.9 L-302.6 -112.9 L-301.6 -112.9 L-300.6 -112.9 L-299.6 -112.9 L-298.6 -112.9 L-297.6 -112.9 L-296.6 -112.9 L-295.6 -112.9 L-294.6 -112.9 L-293.6 -112.9 L-292.6 -112.8 L-291.6 -112.8 L-290.6 -112.8 L-289.6 -112.8 L-288.6 -112.8 L-287.6 -112.8 L-287.6 -111.8 L-287.6 -110.8 L-287.6 -109.8 L-287.6 -108.8 L-287.6 -107.8 L-287.6 -106.8 L-287.6 -105.9 L-287.6 -104.9 L-287.6 -103.9 L-287.6 -102.9 L-287.6 -101.9 L-287.6 -100.9 L-287.6 -99.86 L-287.6 -98.86 L-287.6 -97.86 L-287.6 -96.86 L-287.6 -95.86 L-287.6 -94.86 L-287.6 -93.86 L-287.6 -92.86 L-287.6 -91.86 L-287.6 -90.86 L-287.6 -89.86 L-287.6 -88.87 L-287.7 -87.87 L-288.7 -87.87 L-289.6 -87.87 L-290.6 -87.87 L-291.6 -87.87 L-292.6 -87.87 L-293.6 -87.87 L-294.6 -87.88 L-295.6 -87.88 L-296.6 -87.88 L-297.6 -87.88 L-298.6 -87.88 L-299.6 -87.88 L-300.6 -87.88 L-301.6 -87.88 L-302.6 -87.89 L-303.6 -87.89 L-304.6 -87.89 L-305.6 -87.89 L-306.6 -87.89 L-307.6 -87.89 L-308.6 -87.89 L-309.6 -87.89 L-310.6 -87.9 L-311.6 -87.9 L-312.6 -87.9 Z " />
<path stroke="rgb(0,0,0)" stroke-opacity="0.996" fill="rgb(255,255,255)" fill-opacity="1" d="M-175 -100 L-175.1 -98.01 L-175.3 -96.04 L-175.7 -94.09 L-176.3 -92.18 L-177 -90.32 L-177.8 -88.52 L-178.8 -86.79 L-179.9 -85.14 L-181.1 -83.59 L-182.5 -82.15 L-184 -80.81 L-185.5 -79.6 L-187.2 -78.52 L-189 -77.57 L-190.8 -76.76 L-192.7 -76.1 L-194.6 -75.6 L-196.5 -75.24 L-198.5 -75.04 L-200.5 -75 L-202.5 -75.12 L-204.4 -75.4 L-206.4 -75.83 L-208.3 -76.41 L-210.1 -77.15 L-211.9 -78.03 L-213.6 -79.04 L-215.3 -80.19 L-216.8 -81.47 L-218.2 -82.86 L-219.5 -84.36 L-220.7 -85.96 L-221.7 -87.64 L-222.6 -89.41 L-223.4 -91.24 L-224 -93.13 L-224.5 -95.06 L-224.8 -97.02 L-225 -99.01 L-225 -101 L-224.8 -103 L-224.5 -104.9 L-224 -106.9 L-223.4 -108.8 L-222.6 -110.6 L-221.7 -112.4 L-220.7 -114 L-219.5 -115.6 L-218.2 -117.1 L-216.8 -118.5 L-215.3 -119.8 L-213.6 -121 L-211.9 -122 L-210.1 -122.9 L-208.3 -123.6 L-206.4 -124.2 L-204.4 -124.6 L-202.5 -124.9 L-200.5 -125 L-198.5 -125 L-196.5 -124.8 L-194.6 -124.4 L-192.7 -123.9 L-190.8 -123.2 L-189 -122.4 L-187.2 -121.5 L-185.5 -120.4 L-184 -119.2 L-182.5 -117.9 L-181.1 -116.4 L-179.9 -114.9 L-178.8 -113.2 L-177.8 -111.5 L-177 -109.7 L-176.3 -107.8 L-175.7 -105.9 L-175.3 -104 L-175.1 -102 L-175 -100 Z " />
<path stroke="rgb(0,0,0)" stroke-opacity="1" fill="rgb(255,255,255)" fill-opacity="1" d="M-112.6 -87.9 L-112.6 -88.9 L-112.6 -89.9 L-112.6 -90.9 L-112.6 -91.89 L-112.6 -92.89 L-112.6 -93.89 L-112.6 -94.89 L-112.6 -95.89 L-112.6 -96.89 L-112.6 -97.89 L-112.6 -98.89 L-112.6 -99.89 L-112.6 -100.9 L-112.6 -101.9 L-112.6 -102.9 L-112.6 -103.9 L-112.6 -104.9 L-112.6 -105.9 L-112.6 -106.9 L-112.6 -107.9 L-112.6 -108.9 L-112.6 -109.9 L-112.6 -110.9 L-112.6 -111.9 L-112.6 -112.9 L-111.6 -112.9 L-110.6 -112.9 L-109.6 -112.9 L-108.6 -112.9 L-107.6 -112.9 L-106.6 -112.9 L-105.6 -112.9 L-104.6 -112.9 L-103.6 -112.9 L-102.6 -112.9 L-101.6 -112.9 L-100.6 -112.9 L-99.61 -112.9 L-98.61 -112.9 L-97.61 -112.9 L-96.61 -112.9 L-95.61 -112.9 L-94.61 -112.9 L-93.61 -112.9 L-92.61 -112.8 L-91.62 -112.8 L-90.62 -112.8 L-89.62 -112.8 L-88.62 -112.8 L-87.62 -112.8 L-87.62 -111.8 L-87.62 -110.8 L-87.62 -109.8 L-87.62 -108.8 L-87.63 -107.8 L-87.63 -106.8 L-87.63 -105.9 L-87.63 -104.9 L-87.63 -103.9 L-87.63 -102.9 L-87.63 -101.9 L-87.63 -100.9 L-87.64 -99.86 L-87.64 -98.86 L-87.64 -97.86 L-87.64 -96.86 L-87.64 -95.86 L-87.64 -94.86 L-87.64 -93.86 L-87.64 -92.86 L-87.65 -91.86 L-87.65 -90.86 L-87.65 -89.86 L-87.65 -88.87 L-87.65 -87.87 L-88.65 -87.87 L-89.65 -87.87 L-90.65 -87.87 L-91.65 -87.87 L-92.65 -87.87 L-93.65 -87.87 L-94.64 -87.88 L-95.64 -87.88 L-96.64 -87.88 L-97.64 -87.88 L-98.64 -87.88 L-99.64 -87.88 L-100.6 -87.88 L-101.6 -87.88 L-102.6 -87.89 L-103.6 -87.89 L-104.6 -87.89 L-105.6 -87.89 L-106.6 -87.89 L-107.6 -87.89 L-108.6 -87.89 L-109.6 -87.89 L-110.6 -87.9 L-111.6 -87.9 L-112.6 -87.9 Z " />
<path stroke="rgb(0,0,0)" stroke-opacity="0.996" fill="rgb(255,255,255)" fill-opacity="1" d="M25 -100 L24.92 -98.01 L24.68 -96.04 L24.29 -94.09 L23.75 -92.18 L23.05 -90.32 L22.21 -88.52 L21.22 -86.79 L20.11 -85.14 L18.86 -83.59 L17.5 -82.15 L16.03 -80.81 L14.45 -79.6 L12.79 -78.52 L11.04 -77.57 L9.222 -76.76 L7.346 -76.1 L5.424 -75.6 L3.468 -75.24 L1.49 -75.04 L-0.4971 -75 L-2.481 -75.12 L-4.45 -75.4 L-6.39 -75.83 L-8.29 -76.41 L-10.14 -77.15 L-11.92 -78.03 L-13.63 -79.04 L-15.25 -80.19 L-16.78 -81.47 L-18.2 -82.86 L-19.5 -84.36 L-20.68 -85.96 L-21.73 -87.64 L-22.65 -89.41 L-23.42 -91.24 L-24.04 -93.13 L-24.51 -95.06 L-24.82 -97.02 L-24.98 -99.01 L-24.98 -101 L-24.82 -103 L-24.51 -104.9 L-24.04 -106.9 L-23.42 -108.8 L-22.65 -110.6 L-21.73 -112.4 L-20.68 -114 L-19.5 -115.6 L-18.2 -117.1 L-16.78 -118.5 L-15.25 -119.8 L-13.63 -121 L-11.92 -122 L-10.14 -122.9 L-8.29 -123.6 L-6.39 -124.2 L-4.45 -124.6 L-2.481 -124.9 L-0.4971 -125 L1.49 -125 L3.468 -124.8 L5.424 -124.4 L7.346 -123.9 L9.222 -123.2 L11.04 -122.4 L12.79 -121.5 L14.45 -120.4 L16.03 -119.2 L17.5 -117.9 L18.86 -116.4 L20.11 -114.9 L21.22 -113.2 L22.21 -111.5 L23.05 -109.7 L23.75 -107.8 L24.29 -105.9 L24.68 -104 L24.92 -102 L25 -100 Z " />
<path stroke="rgb(0,0,0)" stroke-opacity="1" fill="rgb(255,255,255)" fill-opacity="1" d="M87.37 -87.9 L87.37 -88.9 L87.37 -89.9 L87.38 -90.9 L87.38 -91.89 L87.38 -92.89 L87.38 -93.89 L87.38 -94.89 L87.38 -95.89 L87.38 -96.89 L87.38 -97.89 L87.39 -98.89 L87.39 -99.89 L87.39 -100.9 L87.39 -101.9 L87.39 -102.9 L87.39 -103.9 L87.39 -104.9 L87.39 -105.9 L87.4 -106.9 L87.4 -107.9 L87.4 -108.9 L87.4 -109.9 L87.4 -110.9 L87.4 -111.9 L87.4 -112.9 L88.4 -112.9 L89.4 -112.9 L90.4 -112.9 L91.4 -112.9 L92.4 -112.9 L93.4 -112.9 L94.4 -112.9 L95.4 -112.9 L96.4 -112.9 L97.39 -112.9 L98.39 -112.9 L99.39 -112.9 L100.4 -112.9 L101.4 -112.9 L102.4 -112.9 L103.4 -112.9 L104.4 -112.9 L105.4 -112.9 L106.4 -112.9 L107.4 -112.8 L108.4 -112.8 L109.4 -112.8 L110.4 -112.8 L111.4 -112.8 L112.4 -112.8 L112.4 -111.8 L112.4 -110.8 L112.4 -109.8 L112.4 -108.8 L112.4 -107.8 L112.4 -106.8 L112.4 -105.9 L112.4 -104.9 L112.4 -103.9 L112.4 -102.9 L112.4 -101.9 L112.4 -100.9 L112.4 -99.86 L112.4 -98.86 L112.4 -97.86 L112.4 -96.86 L112.4 -95.86 L112.4 -94.86 L112.4 -93.86 L112.4 -92.86 L112.4 -91.86 L112.4 -90.86 L112.4 -89.86 L112.4 -88.87 L112.3 -87.87 L111.3 -87.87 L110.4 -87.87 L109.4 -87.87 L108.4 -87.87 L107.4 -87.87 L106.4 -87.87 L105.4 -87.88 L104.4 -87.88 L103.4 -87.88 L102.4 -87.88 L101.4 -87.88 L100.4 -87.88 L99.36 -87.88 L98.36 -87.88 L97.36 -87.89 L96.36 -87.89 L95.36 -87.89 L94.37 -87.89 L93.37 -87.89 L92.37 -87.89 L91.37 -87.89 L90.37 -87.89 L89.37 -87.9 L88.37 -87.9 L87.37 -87.9 Z " />
<path stroke="rgb(0,0,0)" stroke-opacity="0.996" fill="rgb(255,255,255)" fill-opacity="1" d="M225 -100 L224.9 -98.01 L224.7 -96.04 L224.3 -94.09 L223.7 -92.18 L223 -90.32 L222.2 -88.52 L221.2 -86.79 L220.1 -85.14 L218.9 -83.59 L217.5 -82.15 L216 -80.81 L214.5 -79.6 L212.8 -78.52 L211 -77.57 L209.2 -76.76 L207.3 -76.1 L205.4 -75.6 L203.5 -75.24 L201.5 -75.04 L199.5 -75 L197.5 -75.12 L195.6 -75.4 L193.6 -75.83 L191.7 -76.41 L189.9 -77.15 L188.1 -78.03 L186.4 -79.04 L184.7 -80.19 L183.2 -81.47 L181.8 -82.86 L180.5 -84.36 L179.3 -85.96 L178.3 -87.64 L177.4 -89.41 L176.6 -91.24 L176 -93.13 L175.5 -95.06 L175.2 -97.02 L175 -99.01 L175 -101 L175.2 -103 L175.5 -104.9 L176 -106.9 L176.6 -108.8 L177.4 -110.6 L178.3 -112.4 L179.3 -114 L180.5 -115.6 L181.8 -117.1 L183.2 -118.5 L184.7 -119.8 L186.4 -121 L188.1 -122 L189.9 -122.9 L191.7 -123.6 L193.6 -124.2 L195.6 -124.6 L197.5 -124.9 L199.5 -125 L201.5 -125 L203.5 -124.8 L205.4 -124.4 L207.3 -123.9 L209.2 -123.2 L211 -122.4 L212.8 -121.5 L214.5 -120.4 L216 -119.2 L217.5 -117.9 L218.9 -116.4 L220.1 -114.9 L221.2 -113.2 L222.2 -111.5 L223 -109.7 L223.7 -107.8 L224.3 -105.9 L224.7 -104 L224.9 -102 L225 -100 Z " />
<path stroke="rgb(0,0,0)" stroke-opacity="1" fill="rgb(255,255,255)" fill-opacity="1" d="M287.3 -87.93 L287.3 -88.93 L287.3 -89.93 L287.3 -90.93 L287.3 -91.93 L287.3 -92.94 L287.3 -93.94 L287.3 -94.94 L287.3 -95.94 L287.3 -96.94 L287.3 -97.94 L287.4 -98.94 L287.4 -99.94 L287.4 -100.9 L287.4 -101.9 L287.4 -102.9 L287.4 -103.9 L287.4 -104.9 L287.4 -105.9 L287.4 -107 L287.4 -108 L287.4 -109 L287.4 -110 L287.4 -111 L287.4 -112 L287.4 -113 L288.4 -113 L289.4 -112.9 L290.4 -112.9 L291.4 -112.9 L292.4 -112.9 L293.4 -112.9 L294.4 -112.9 L295.4 -112.9 L296.4 -112.9 L297.4 -112.9 L298.4 -112.9 L299.4 -112.9 L300.5 -112.9 L301.5 -112.9 L302.5 -112.9 L303.5 -112.9 L304.5 -112.9 L305.5 -112.9 L306.5 -112.8 L307.5 -112.8 L308.5 -112.8 L309.5 -112.8 L310.5 -112.8 L311.5 -112.8 L312.5 -112.8 L312.5 -111.8 L312.5 -110.8 L312.4 -109.8 L312.4 -108.8 L312.4 -107.8 L312.4 -106.8 L312.4 -105.8 L312.4 -104.8 L312.4 -103.8 L312.4 -102.8 L312.4 -101.8 L312.4 -100.8 L312.4 -99.8 L312.4 -98.8 L312.4 -97.8 L312.4 -96.79 L312.4 -95.79 L312.4 -94.79 L312.4 -93.79 L312.3 -92.79 L312.3 -91.79 L312.3 -90.79 L312.3 -89.79 L312.3 -88.79 L312.3 -87.78 L311.3 -87.79 L310.3 -87.8 L309.3 -87.8 L308.3 -87.81 L307.3 -87.81 L306.3 -87.82 L305.3 -87.83 L304.3 -87.83 L303.3 -87.84 L302.3 -87.84 L301.3 -87.85 L300.3 -87.85 L299.3 -87.86 L298.3 -87.87 L297.3 -87.87 L296.3 -87.88 L295.3 -87.88 L294.3 -87.89 L293.3 -87.9 L292.3 -87.9 L291.3 -87.91 L290.3 -87.91 L289.3 -87.92 L288.3 -87.92 L287.3 -87.93 Z " />
<path stroke="rgb(0,0,0)" stroke-opacity="0.996" fill="rgb(255,255,255)" fill-opacity="1" d="M-275 0 L-275.1 1.986 L-275.3 3.96 L-275.7 5.909 L-276.3 7.82 L-277 9.682 L-277.8 11.48 L-278.8 13.21 L-279.9 14.86 L-281.1 16.41 L-282.5 17.85 L-284 19.19 L-285.5 20.4 L-287.2 21.48 L-289 22.43 L-290.8 23.24 L-292.7 23.9 L-294.6 24.4 L-296.5 24.76 L-298.5 24.96 L-300.5 25 L-302.5 24.88 L-304.4 24.6 L-306.4 24.17 L-308.3 23.59 L-310.1 22.85 L-311.9 21.97 L-313.6 20.96 L-315.3 19.81 L-316.8 18.53 L-318.2 17.14 L-319.5 15.64 L-320.7 14.04 L-321.7 12.36 L-322.6 10.59 L-323.4 8.758 L-324 6.87 L-324.5 4.938 L-324.8 2.975 L-325 0.9939 L-325 -0.9939 L-324.8 -2.975 L-324.5 -4.938 L-324 -6.87 L-323.4 -8.758 L-322.6 -10.59 L-321.7 -12.36 L-320.7 -14.04 L-319.5 -15.64 L-318.2 -17.14 L-316.8 -18.53 L-315.3 -19.81 L-313.6 -20.96 L-311.9 -21.97 L-310.1 -22.85 L-308.3 -23.59 L-306.4 -24.17 L-304.4 -24.6 L-302.5 -24.88 L-300.5 -25 L-298.5 -24.96 L-296.5 -24.76 L-294.6 -24.4 L-292.7 -23.9 L-290.8 -23.24 L-289 -22.43 L-287.2 -21.48 L-285.5 -20.4 L-284 -19.19 L-282.5 -17.85 L-281.1 -16.41 L-279.9 -14.86 L-278.8 -13.21 L-277.8 -11.48 L-277 -9.682 L-276.3 -7.82 L-275.7 -5.909 L-275.3 -3.96 L-275.1 -1.986 L-275 0 Z " />
<path stroke="rgb(0,0,0)" stroke-opacity="1" fill="rgb(255,255,255)" fill-opacity="1" d="M-212.6 12.1 L-212.6 11.1 L-212.6 10.1 L-212.6 9.104 L-212.6 8.105 L-212.6 7.106 L-212.6 6.107 L-212.6 5.108 L-212.6 4.109 L-212.6 3.11 L-212.6 2.111 L-212.6 1.112 L-212.6 0.1127 L-212.6 -0.8864 L-212.6 -1.885 L-212.6 -2.885 L-212.6 -3.884 L-212.6 -4.883 L-212.6 -5.882 L-212.6 -6.881 L-212.6 -7.88 L-212.6 -8.879 L-212.6 -9.878 L-212.6 -10.88 L-212.6 -11.88 L-212.6 -12.88 L-211.6 -12.87 L-210.6 -12.87 L-209.6 -12.87 L-208.6 -12.87 L-207.6 -12.87 L-206.6 -12.87 L-205.6 -12.87 L-204.6 -12.87 L-203.6 -12.86 L-202.6 -12.86 L-201.6 -12.86 L-200.6 -12.86 L-199.6 -12.86 L-198.6 -12.86 L-197.6 -12.86 L-196.6 -12.86 L-195.6 -12.85 L-194.6 -12.85 L-193.6 -12.85 L-192.6 -12.85 L-191.6 -12.85 L-190.6 -12.85 L-189.6 -12.85 L-188.6 -12.84 L-187.6 -12.84 L-187.6 -11.84 L-187.6 -10.85 L-187.6 -9.846 L-187.6 -8.847 L-187.6 -7.848 L-187.6 -6.849 L-187.6 -5.85 L-187.6 -4.851 L-187.6 -3.852 L-187.6 -2.853 L-187.6 -1.854 L-187.6 -0.8547 L-187.6 0.1443 L-187.6 1.143 L-187.6 2.142 L-187.6 3.142 L-187.6 4.141 L-187.6 5.14 L-187.6 6.139 L-187.6 7.138 L-187.6 8.137 L-187.6 9.136 L-187.6 10.14 L-187.6 11.13 L-187.7 12.13 L-188.7 12.13 L-189.6 12.13 L-190.6 12.13 L-191.6 12.13 L-192.6 12.13 L-193.6 12.13 L-194.6 12.12 L-195.6 12.12 L-196.6 12.12 L-197.6 12.12 L-198.6 12.12 L-199.6 12.12 L-200.6 12.12 L-201.6 12.12 L-202.6 12.11 L-203.6 12.11 L-204.6 12.11 L-205.6 12.11 L-206.6 12.11 L-207.6 12.11 L-208.6 12.11 L-209.6 12.11 L-210.6 12.1 L-211.6 12.1 L-212.6 12.1 Z " />
<path stroke="rgb(0,0,0)" stroke-opacity="0.996" fill="rgb(255,255,255)" fill-opacity="1" d="M-75 0 L-75.08 1.986 L-75.32 3.96 L-75.71 5.909 L-76.25 7.82 L-76.95 9.682 L-77.79 11.48 L-78.78 13.21 L-79.89 14.86 L-81.14 16.41 L-82.5 17.85 L-83.97 19.19 L-85.55 20.4 L-87.21 21.48 L-88.96 22.43 L-90.78 23.24 L-92.65 23.9 L-94.58 24.4 L-96.53 24.76 L-98.51 24.96 L-100.5 25 L-102.5 24.88 L-104.4 24.6 L-106.4 24.17 L-108.3 23.59 L-110.1 22.85 L-111.9 21.97 L-113.6 20.96 L-115.3 19.81 L-116.8 18.53 L-118.2 17.14 L-119.5 15.64 L-120.7 14.04 L-121.7 12.36 L-122.6 10.59 L-123.4 8.758 L-124 6.87 L-124.5 4.938 L-124.8 2.975 L-125 0.9939 L-125 -0.9939 L-124.8 -2.975 L-124.5 -4.938 L-124 -6.87 L-123.4 -8.758 L-122.6 -10.59 L-121.7 -12.36 L-120.7 -14.04 L-119.5 -15.64 L-118.2 -17.14 L-116.8 -18.53 L-115.3 -19.81 L-113.6 -20.96 L-111.9 -21.97 L-110.1 -22.85 L-108.3 -23.59 L-106.4 -24.17 L-104.4 -24.6 L-102.5 -24.88 L-100.5 -25 L-98.51 -24.96 L-96.53 -24.76 L-94.58 -24.4 L-92.65 -23.9 L-90.78 -23.24 L-88.96 -22.43 L-87.21 -21.48 L-85.55 -20.4 L-83.97 -19.19 L-82.5 -17.85 L-81.14 -16.41 L-79.89 -14.86 L-78.78 -13.21 L-77.79 -11.48 L-76.95 -9.682 L-76.25 -7.82 L-75.71 -5.909 L-75.32 -3.96 L-75.08 -1.986 L-75 0 Z " />
<path stroke="rgb(0,0,0)" stroke-opacity="1" fill="rgb(255,255,255)" fill-opacity="1" d="M-12.63 12.1 L-12.63 11.1 L-12.63 10.1 L-12.62 9.104 L-12.62 8.105 L-12.62 7.106 L-12.62 6.107 L-12.62 5.108 L-12.62 4.109 L-12.62 3.11 L-12.62 2.111 L-12.61 1.112 L-12.61 0.1127 L-12.61 -0.8864 L-12.61 -1.885 L-12.61 -2.885 L-12.61 -3.884 L-12.61 -4.883 L-12.61 -5.882 L-12.6 -6.881 L-12.6 -7.88 L-12.6 -8.879 L-12.6 -9.878 L-12.6 -10.88 L-12.6 -11.88 L-12.6 -12.88 L-11.6 -12.87 L-10.6 -12.87 L-9.599 -12.87 L-8.6 -12.87 L-7.601 -12.87 L-6.602 -12.87 L-5.603 -12.87 L-4.604 -12.87 L-3.605 -12.86 L-2.606 -12.86 L-1.607 -12.86 L-0.6074 -12.86 L0.3916 -12.86 L1.391 -12.86 L2.39 -12.86 L3.389 -12.86 L4.388 -12.85 L5.387 -12.85 L6.386 -12.85 L7.385 -12.85 L8.384 -12.85 L9.383 -12.85 L10.38 -12.85 L11.38 -12.84 L12.38 -12.84 L12.38 -11.84 L12.38 -10.85 L12.38 -9.846 L12.38 -8.847 L12.37 -7.848 L12.37 -6.849 L12.37 -5.85 L12.37 -4.851 L12.37 -3.852 L12.37 -2.853 L12.37 -1.854 L12.37 -0.8547 L12.36 0.1443 L12.36 1.143 L12.36 2.142 L12.36 3.142 L12.36 4.141 L12.36 5.14 L12.36 6.139 L12.36 7.138 L12.35 8.137 L12.35 9.136 L12.35 10.14 L12.35 11.13 L12.35 12.13 L11.35 12.13 L10.35 12.13 L9.352 12.13 L8.353 12.13 L7.354 12.13 L6.354 12.13 L5.355 12.12 L4.356 12.12 L3.357 12.12 L2.358 12.12 L1.359 12.12 L0.36 12.12 L-0.6391 12.12 L-1.638 12.12 L-2.637 12.11 L-3.636 12.11 L-4.635 12.11 L-5.634 12.11 L-6.634 12.11 L-7.633 12.11 L-8.632 12.11 L-9.631 12.11 L-10.63 12.1 L-11.63 12.1 L-12.63 12.1 Z " />
<path stroke="rgb(0,0,0)" stroke-opacity="0.996" fill="rgb(255,255,255)" fill-opacity="1" d="M125 0 L124.9 1.986 L124.7 3.96 L124.3 5.909 L123.7 7.82 L123 9.682 L122.2 11.48 L121.2 13.21 L120.1 14.86 L118.9 16.41 L117.5 17.85 L116 19.19 L114.5 20.4 L112.8 21.48 L111 22.43 L109.2 23.24 L107.3 23.9 L105.4 24.4 L103.5 24.76 L101.5 24.96 L99.5 25 L97.52 24.88 L95.55 24.6 L93.61 24.17 L91.71 23.59 L89.86 22.85 L88.08 21.97 L86.37 20.96 L84.75 19.81 L83.22 18.53 L81.8 17.14 L80.5 15.64 L79.32 14.04 L78.27 12.36 L77.35 10.59 L76.58 8.758 L75.96 6.87 L75.49 4.938 L75.18 2.975 L75.02 0.9939 L75.02 -0.9939 L75.18 -2.975 L75.49 -4.938 L75.96 -6.87 L76.58 -8.758 L77.35 -10.59 L78.27 -12.36 L79.32 -14.04 L80.5 -15.64 L81.8 -17.14 L83.22 -18.53 L84.75 -19.81 L86.37 -20.96 L88.08 -21.97 L89.86 -22.85 L91.71 -23.59 L93.61 -24.17 L95.55 -24.6 L97.52 -24.88 L99.5 -25 L101.5 -24.96 L103.5 -24.76 L105.4 -24.4 L107.3 -23.9 L109.2 -23.24 L111 -22.43 L112.8 -21.48 L114.5 -20.4 L116 -19.19 L117.5 -17.85 L118.9 -16.41 L120.1 -14.86 L121.2 -13.21 L122.2 -11.48 L123 -9.682 L123.7 -7.82 L124.3 -5.909 L124.7 -3.96 L124.9 -1.986 L125 0 Z " />
<path stroke="rgb(0,0,0)" stroke-opacity="1" fill="rgb(255,255,255)" fill-opacity="1" d="M187.3 12.07 L187.3 11.07 L187.3 10.07 L187.3 9.067 L187.3 8.066 L187.3 7.065 L187.3 6.064 L187.3 5.062 L187.3 4.061 L187.3 3.06 L187.3 2.059 L187.4 1.058 L187.4 0.05714 L187.4 -0.9439 L187.4 -1.945 L187.4 -2.946 L187.4 -3.947 L187.4 -4.948 L187.4 -5.949 L187.4 -6.95 L187.4 -7.951 L187.4 -8.952 L187.4 -9.954 L187.4 -10.95 L187.4 -11.96 L187.4 -12.96 L188.4 -12.95 L189.4 -12.95 L190.4 -12.94 L191.4 -12.93 L192.4 -12.93 L193.4 -12.92 L194.4 -12.92 L195.4 -12.91 L196.4 -12.9 L197.4 -12.9 L198.4 -12.89 L199.4 -12.89 L200.5 -12.88 L201.5 -12.88 L202.5 -12.87 L203.5 -12.86 L204.5 -12.86 L205.5 -12.85 L206.5 -12.85 L207.5 -12.84 L208.5 -12.83 L209.5 -12.83 L210.5 -12.82 L211.5 -12.82 L212.5 -12.81 L212.5 -11.81 L212.5 -10.81 L212.4 -9.808 L212.4 -8.807 L212.4 -7.806 L212.4 -6.805 L212.4 -5.804 L212.4 -4.803 L212.4 -3.802 L212.4 -2.801 L212.4 -1.8 L212.4 -0.7985 L212.4 0.2025 L212.4 1.204 L212.4 2.205 L212.4 3.206 L212.4 4.207 L212.4 5.208 L212.4 6.209 L212.3 7.21 L212.3 8.211 L212.3 9.212 L212.3 10.21 L212.3 11.21 L212.3 12.22 L211.3 12.21 L210.3 12.2 L209.3 12.2 L208.3 12.19 L207.3 12.19 L206.3 12.18 L205.3 12.17 L204.3 12.17 L203.3 12.16 L202.3 12.16 L201.3 12.15 L200.3 12.15 L199.3 12.14 L198.3 12.13 L197.3 12.13 L196.3 12.12 L195.3 12.12 L194.3 12.11 L193.3 12.1 L192.3 12.1 L191.3 12.09 L190.3 12.09 L189.3 12.08 L188.3 12.08 L187.3 12.07 Z " />
<path stroke="rgb(0,0,0)" stroke-opacity="0.996" fill="rgb(255,255,255)" fill-opacity="1" d="M325 0 L324.9 1.986 L324.7 3.96 L324.3 5.909 L323.7 7.82 L323 9.682 L322.2 11.48 L321.2 13.21 L320.1 14.86 L318.9 16.41 L317.5 17.85 L316 19.19 L314.5 20.4 L312.8 21.48 L311 22.43 L309.2 23.24 L307.3 23.9 L305.4 24.4 L303.5 24.76 L301.5 24.96 L299.5 25 L297.5 24.88 L295.6 24.6 L293.6 24.17 L291.7 23.59 L289.9 22.85 L288.1 21.97 L286.4 20.96 L284.7 19.81 L283.2 18.53 L281.8 17.14 L280.5 15.64 L279.3 14.04 L278.3 12.36 L277.4 10.59 L276.6 8.758 L276 6.87 L275.5 4.938 L275.2 2.975 L275 0.9939 L275 -0.9939 L275.2 -2.975 L275.5 -4.938 L276 -6.87 L276.6 -8.758 L277.4 -10.59 L278.3 -12.36 L279.3 -14.04 L280.5 -15.64 L281.8 -17.14 L283.2 -18.53 L284.7 -19.81 L286.4 -20.96 L288.1 -21.97 L289.9 -22.85 L291.7 -23.59 L293.6 -24.17 L295.6 -24.6 L297.5 -24.88 L299.5 -25 L301.5 -24.96 L303.5 -24.76 L305.4 -24.4 L307.3 -23.9 L309.2 -23.24 L311 -22.43 L312.8 -21.48 L314.5 -20.4 L316 -19.19 L317.5 -17.85 L318.9 -16.41 L320.1 -14.86 L321.2 -13.21 L322.2 -11.48 L323 -9.682 L323.7 -7.82 L324.3 -5.909 L324.7 -3.96 L324.9 -1.986 L325 0 Z " />
<path stroke="rgb(0,0,0)" stroke-opacity="1" fill="rgb(255,255,255)" fill-opacity="1" d="M-312.6 112.1 L-312.6 111.1 L-312.6 110.1 L-312.6 109.1 L-312.6 108.1 L-312.6 107.1 L-312.6 106.1 L-312.6 105.1 L-312.6 104.1 L-312.6 103.1 L-312.6 102.1 L-312.6 101.1 L-312.6 100.1 L-312.6 99.11 L-312.6 98.11 L-312.6 97.12 L-312.6 96.12 L-312.6 95.12 L-312.6 94.12 L-312.6 93.12 L-312.6 92.12 L-312.6 91.12 L-312.6 90.12 L-312.6 89.12 L-312.6 88.12 L-312.6 87.12 L-311.6 87.13 L-310.6 87.13 L-309.6 87.13 L-308.6 87.13 L-307.6 87.13 L-306.6 87.13 L-305.6 87.13 L-304.6 87.13 L-303.6 87.14 L-302.6 87.14 L-301.6 87.14 L-300.6 87.14 L-299.6 87.14 L-298.6 87.14 L-297.6 87.14 L-296.6 87.14 L-295.6 87.15 L-294.6 87.15 L-293.6 87.15 L-292.6 87.15 L-291.6 87.15 L-290.6 87.15 L-289.6 87.15 L-288.6 87.16 L-287.6 87.16 L-287.6 88.16 L-287.6 89.15 L-287.6 90.15 L-287.6 91.15 L-287.6 92.15 L-287.6 93.15 L-287.6 94.15 L-287.6 95.15 L-287.6 96.15 L-287.6 97.15 L-287.6 98.15 L-287.6 99.15 L-287.6 100.1 L-287.6 101.1 L-287.6 102.1 L-287.6 103.1 L-287.6 104.1 L-287.6 105.1 L-287.6 106.1 L-287.6 107.1 L-287.6 108.1 L-287.6 109.1 L-287.6 110.1 L-287.6 111.1 L-287.7 112.1 L-288.7 112.1 L-289.6 112.1 L-290.6 112.1 L-291.6 112.1 L-292.6 112.1 L-293.6 112.1 L-294.6 112.1 L-295.6 112.1 L-296.6 112.1 L-297.6 112.1 L-298.6 112.1 L-299.6 112.1 L-300.6 112.1 L-301.6 112.1 L-302.6 112.1 L-303.6 112.1 L-304.6 112.1 L-305.6 112.1 L-306.6 112.1 L-307.6 112.1 L-308.6 112.1 L-309.6 112.1 L-310.6 112.1 L-311.6 112.1 L-312.6 112.1 Z " />
<path stroke="rgb(0,0,0)" stroke-opacity="0.996" fill="rgb(255,255,255)" fill-opacity="1" d="M-175 100 L-175.1 102 L-175.3 104 L-175.7 105.9 L-176.3 107.8 L-177 109.7 L-177.8 111.5 L-178.8 113.2 L-179.9 114.9 L-181.1 116.4 L-182.5 117.9 L-184 119.2 L-185.5 120.4 L-187.2 121.5 L-189 122.4 L-190.8 123.2 L-192.7 123.9 L-194.6 124.4 L-196.5 124.8 L-198.5 125 L-200.5 125 L-202.5 124.9 L-204.4 124.6 L-206.4 124.2 L-208.3 123.6 L-210.1 122.9 L-211.9 122 L-213.6 121 L-215.3 119.8 L-216.8 118.5 L-218.2 117.1 L-219.5 115.6 L-220.7 114 L-221.7 112.4 L-222.6 110.6 L-223.4 108.8 L-224 106.9 L-224.5 104.9 L-224.8 103 L-225 101 L-225 99.01 L-224.8 97.02 L-224.5 95.06 L-224 93.13 L-223.4 91.24 L-222.6 89.41 L-221.7 87.64 L-220.7 85.96 L-219.5 84.36 L-218.2 82.86 L-216.8 81.47 L-215.3 80.19 L-213.6 79.04 L-211.9 78.03 L-210.1 77.15 L-208.3 76.41 L-206.4 75.83 L-204.4 75.4 L-202.5 75.12 L-200.5 75 L-198.5 75.04 L-196.5 75.24 L-194.6 75.6 L-192.7 76.1 L-190.8 76.76 L-189 77.57 L-187.2 78.52 L-185.5 79.6 L-184 80.81 L-182.5 82.15 L-181.1 83.59 L-179.9 85.14 L-178.8 86.79 L-177.8 88.52 L-177 90.32 L-176.3 92.18 L-175.7 94.09 L-175.3 96.04 L-175.1 98.01 L-175 100 Z " />
<path stroke="rgb(0,0,0)" stroke-opacity="1" fill="rgb(255,255,255)" fill-opacity="1" d="M-112.6 112.1 L-112.6 111.1 L-112.6 110.1 L-112.6 109.1 L-112.6 108.1 L-112.6 107.1 L-112.6 106.1 L-112.6 105.1 L-112.6 104.1 L-112.6 103.1 L-112.6 102.1 L-112.6 101.1 L-112.6 100.1 L-112.6 99.11 L-112.6 98.11 L-112.6 97.12 L-112.6 96.12 L-112.6 95.12 L-112.6 94.12 L-112.6 93.12 L-112.6 92.12 L-112.6 91.12 L-112.6 90.12 L-112.6 89.12 L-112.6 88.12 L-112.6 87.12 L-111.6 87.13 L-110.6 87.13 L-109.6 87.13 L-108.6 87.13 L-107.6 87.13 L-106.6 87.13 L-105.6 87.13 L-104.6 87.13 L-103.6 87.14 L-102.6 87.14 L-101.6 87.14 L-100.6 87.14 L-99.61 87.14 L-98.61 87.14 L-97.61 87.14 L-96.61 87.14 L-95.61 87.15 L-94.61 87.15 L-93.61 87.15 L-92.61 87.15 L-91.62 87.15 L-90.62 87.15 L-89.62 87.15 L-88.62 87.16 L-87.62 87.16 L-87.62 88.16 L-87.62 89.15 L-87.62 90.15 L-87.62 91.15 L-87.63 92.15 L-87.63 93.15 L-87.63 94.15 L-87.63 95.15 L-87.63 96.15 L-87.63 97.15 L-87.63 98.15 L-87.63 99.15 L-87.64 100.1 L-87.64 101.1 L-87.64 102.1 L-87.64 103.1 L-87.64 104.1 L-87.64 105.1 L-87.64 106.1 L-87.64 107.1 L-87.65 108.1 L-87.65 109.1 L-87.65 110.1 L-87.65 111.1 L-87.65 112.1 L-88.65 112.1 L-89.65 112.1 L-90.65 112.1 L-91.65 112.1 L-92.65 112.1 L-93.65 112.1 L-94.64 112.1 L-95.64 112.1 L-96.64 112.1 L-97.64 112.1 L-98.64 112.1 L-99.64 112.1 L-100.6 112.1 L-101.6 112.1 L-102.6 112.1 L-103.6 112.1 L-104.6 112.1 L-105.6 112.1 L-106.6 112.1 L-107.6 112.1 L-108.6 112.1 L-109.6 112.1 L-110.6 112.1 L-111.6 112.1 L-112.6 112.1 Z " />
<path stroke="rgb(0,0,0)" stroke-opacity="0.996" fill="rgb(255,255,255)" fill-opacity="1" d="M25 100 L24.92 102 L24.68 104 L24.29 105.9 L23.75 107.8 L23.05 109.7 L22.21 111.5 L21.22 113.2 L20.11 114.9 L18.86 116.4 L17.5 117.9 L16.03 119.2 L14.45 120.4 L12.79 121.5 L11.04 122.4 L9.222 123.2 L7.346 123.9 L5.424 124.4 L3.468 124.8 L1.49 125 L-0.4971 125 L-2.481 124.9 L-4.45 124.6 L-6.39 124.2 L-8.29 123.6 L-10.14 122.9 L-11.92 122 L-13.63 121 L-15.25 119.8 L-16.78 118.5 L-18.2 117.1 L-19.5 115.6 L-20.68 114 L-21.73 112.4 L-22.65 110.6 L-23.42 108.8 L-24.04 106.9 L-24.51 104.9 L-24.82 103 L-24.98 101 L-24.98 99.01 L-24.82 97.02 L-24.51 95.06 L-24.04 93.13 L-23.42 91.24 L-22.65 89.41 L-21.73 87.64 L-20.68 85.96 L-19.5 84.36 L-18.2 82.86 L-16.78 81.47 L-15.25 80.19 L-13.63 79.04 L-11.92 78.03 L-10.14 77.15 L-8.29 76.41 L-6.39 75.83 L-4.45 75.4 L-2.481 75.12 L-0.4971 75 L1.49 75.04 L3.468 75.24 L5.424 75.6 L7.346 76.1 L9.222 76.76 L11.04 77.57 L12.79 78.52 L14.45 79.6 L16.03 80.81 L17.5 82.15 L18.86 83.59 L20.11 85.14 L21.22 86.79 L22.21 88.52 L23.05 90.32 L23.75 92.18 L24.29 94.09 L24.68 96.04 L24.92 98.01 L25 100 Z " />
<path stroke="rgb(0,0,0)" stroke-opacity="1" fill="rgb(255,255,255)" fill-opacity="1" d="M87.29 112.1 L87.3 111.1 L87.3 110.1 L87.31 109.1 L87.31 108.1 L87.32 107.1 L87.33 106.1 L87.33 105.1 L87.34 104.1 L87.34 103.1 L87.35 102.1 L87.35 101.1 L87.36 100.1 L87.37 99.06 L87.37 98.05 L87.38 97.05 L87.38 96.05 L87.39 95.05 L87.4 94.05 L87.4 93.05 L87.41 92.05 L87.41 91.05 L87.42 90.05 L87.42 89.05 L87.43 88.04 L87.44 87.04 L88.44 87.05 L89.44 87.05 L90.44 87.06 L91.44 87.07 L92.44 87.07 L93.44 87.08 L94.44 87.08 L95.44 87.09 L96.45 87.1 L97.45 87.1 L98.45 87.11 L99.45 87.11 L100.5 87.12 L101.5 87.12 L102.5 87.13 L103.5 87.14 L104.5 87.14 L105.5 87.15 L106.5 87.15 L107.5 87.16 L108.5 87.17 L109.5 87.17 L110.5 87.18 L111.5 87.18 L112.5 87.19 L112.5 88.19 L112.5 89.19 L112.4 90.19 L112.4 91.19 L112.4 92.19 L112.4 93.2 L112.4 94.2 L112.4 95.2 L112.4 96.2 L112.4 97.2 L112.4 98.2 L112.4 99.2 L112.4 100.2 L112.4 101.2 L112.4 102.2 L112.4 103.2 L112.4 104.2 L112.4 105.2 L112.4 106.2 L112.3 107.2 L112.3 108.2 L112.3 109.2 L112.3 110.2 L112.3 111.2 L112.3 112.2 L111.3 112.2 L110.3 112.2 L109.3 112.2 L108.3 112.2 L107.3 112.2 L106.3 112.2 L105.3 112.2 L104.3 112.2 L103.3 112.2 L102.3 112.2 L101.3 112.2 L100.3 112.1 L99.3 112.1 L98.3 112.1 L97.3 112.1 L96.3 112.1 L95.3 112.1 L94.3 112.1 L93.3 112.1 L92.3 112.1 L91.3 112.1 L90.29 112.1 L89.29 112.1 L88.29 112.1 L87.29 112.1 Z " />
<path stroke="rgb(0,0,0)" stroke-opacity="0.996" fill="rgb(255,255,255)" fill-opacity="1" d="M225 100 L224.9 102 L224.7 104 L224.3 105.9 L223.7 107.8 L223 109.7 L222.2 111.5 L221.2 113.2 L220.1 114.9 L218.9 116.4 L217.5 117.9 L216 119.2 L214.5 120.4 L212.8 121.5 L211 122.4 L209.2 123.2 L207.3 123.9 L205.4 124.4 L203.5 124.8 L201.5 125 L199.5 125 L197.5 124.9 L195.6 124.6 L193.6 124.2 L191.7 123.6 L189.9 122.9 L188.1 122 L186.4 121 L184.7 119.8 L183.2 118.5 L181.8 117.1 L180.5 115.6 L179.3 114 L178.3 112.4 L177.4 110.6 L176.6 108.8 L176 106.9 L175.5 104.9 L175.2 103 L175 101 L175 99.01 L175.2 97.02 L175.5 95.06 L176 93.13 L176.6 91.24 L177.4 89.41 L178.3 87.64 L179.3 85.96 L180.5 84.36 L181.8 82.86 L183.2 81.47 L184.7 80.19 L186.4 79.04 L188.1 78.03 L189.9 77.15 L191.7 76.41 L193.6 75.83 L195.6 75.4 L197.5 75.12 L199.5 75 L201.5 75.04 L203.5 75.24 L205.4 75.6 L207.3 76.1 L209.2 76.76 L211 77.57 L212.8 78.52 L214.5 79.6 L216 80.81 L217.5 82.15 L218.9 83.59 L220.1 85.14 L221.2 86.79 L222.2 88.52 L223 90.32 L223.7 92.18 L224.3 94.09 L224.7 96.04 L224.9 98.01 L225 100 Z " />
<path stroke="rgb(0,0,0)" stroke-opacity="1" fill="rgb(255,255,255)" fill-opacity="1" d="M285.1 111 L285.2 110 L285.4 109 L285.5 107.9 L285.6 106.9 L285.8 105.8 L285.9 104.8 L286.1 103.7 L286.2 102.7 L286.3 101.6 L286.5 100.6 L286.6 99.52 L286.7 98.47 L286.9 97.42 L287 96.37 L287.1 95.33 L287.3 94.28 L287.4 93.23 L287.5 92.18 L287.7 91.13 L287.8 90.09 L287.9 89.04 L288.1 87.99 L288.2 86.94 L288.4 85.89 L288.5 84.84 L289.5 84.98 L290.6 85.12 L291.6 85.25 L292.7 85.39 L293.7 85.52 L294.8 85.66 L295.8 85.79 L296.9 85.93 L297.9 86.06 L299 86.2 L300 86.33 L301.1 86.47 L302.1 86.61 L303.2 86.74 L304.2 86.88 L305.3 87.01 L306.3 87.15 L307.4 87.28 L308.4 87.42 L309.5 87.55 L310.5 87.69 L311.5 87.82 L312.6 87.96 L313.6 88.09 L314.7 88.23 L314.6 89.28 L314.4 90.33 L314.3 91.37 L314.2 92.42 L314 93.47 L313.9 94.52 L313.7 95.57 L313.6 96.62 L313.5 97.66 L313.3 98.71 L313.2 99.76 L313.1 100.8 L312.9 101.9 L312.8 102.9 L312.7 104 L312.5 105 L312.4 106 L312.3 107.1 L312.1 108.1 L312 109.2 L311.9 110.2 L311.7 111.3 L311.6 112.3 L311.4 113.4 L311.3 114.4 L310.3 114.3 L309.2 114.2 L308.2 114 L307.1 113.9 L306.1 113.8 L305 113.6 L304 113.5 L302.9 113.4 L301.9 113.2 L300.8 113.1 L299.8 112.9 L298.7 112.8 L297.7 112.7 L296.6 112.5 L295.6 112.4 L294.5 112.3 L293.5 112.1 L292.4 112 L291.4 111.9 L290.3 111.7 L289.3 111.6 L288.2 111.5 L287.2 111.3 L286.2 111.2 L285.1 111 Z " />
<path stroke="rgb(0,0,0)" stroke-opacity="0.996" fill="rgb(255,255,255)" fill-opacity="1" d="M-275 200 L-275.1 202 L-275.3 204 L-275.7 205.9 L-276.3 207.8 L-277 209.7 L-277.8 211.5 L-278.8 213.2 L-279.9 214.9 L-281.1 216.4 L-282.5 217.9 L-284 219.2 L-285.5 220.4 L-287.2 221.5 L-289 222.4 L-290.8 223.2 L-292.7 223.9 L-294.6 224.4 L-296.5 224.8 L-298.5 225 L-300.5 225 L-302.5 224.9 L-304.4 224.6 L-306.4 224.2 L-308.3 223.6 L-310.1 222.9 L-311.9 222 L-313.6 221 L-315.3 219.8 L-316.8 218.5 L-318.2 217.1 L-319.5 215.6 L-320.7 214 L-321.7 212.4 L-322.6 210.6 L-323.4 208.8 L-324 206.9 L-324.5 204.9 L-324.8 203 L-325 201 L-325 199 L-324.8 197 L-324.5 195.1 L-324 193.1 L-323.4 191.2 L-322.6 189.4 L-321.7 187.6 L-320.7 186 L-319.5 184.4 L-318.2 182.9 L-316.8 181.5 L-315.3 180.2 L-313.6 179 L-311.9 178 L-310.1 177.1 L-308.3 176.4 L-306.4 175.8 L-304.4 175.4 L-302.5 175.1 L-300.5 175 L-298.5 175 L-296.5 175.2 L-294.6 175.6 L-292.7 176.1 L-290.8 176.8 L-289 177.6 L-287.2 178.5 L-285.5 179.6 L-284 180.8 L-282.5 182.1 L-281.1 183.6 L-279.9 185.1 L-278.8 186.8 L-277.8 188.5 L-277 190.3 L-276.3 192.2 L-275.7 194.1 L-275.3 196 L-275.1 198 L-275 200 Z " />
<path stroke="rgb(0,0,0)" stroke-opacity="1" fill="rgb(255,255,255)" fill-opacity="1" d="M-212.6 212.1 L-212.6 211.1 L-212.6 210.1 L-212.6 209.1 L-212.6 208.1 L-212.6 207.1 L-212.6 206.1 L-212.6 205.1 L-212.6 204.1 L-212.6 203.1 L-212.6 202.1 L-212.6 201.1 L-212.6 200.1 L-212.6 199.1 L-212.6 198.1 L-212.6 197.1 L-212.6 196.1 L-212.6 195.1 L-212.6 194.1 L-212.6 193.1 L-212.6 192.1 L-212.6 191.1 L-212.6 190.1 L-212.6 189.1 L-212.6 188.1 L-212.6 187.1 L-211.6 187.1 L-210.6 187.1 L-209.6 187.1 L-208.6 187.1 L-207.6 187.1 L-206.6 187.1 L-205.6 187.1 L-204.6 187.1 L-203.6 187.1 L-202.6 187.1 L-201.6 187.1 L-200.6 187.1 L-199.6 187.1 L-198.6 187.1 L-197.6 187.1 L-196.6 187.1 L-195.6 187.1 L-194.6 187.1 L-193.6 187.1 L-192.6 187.2 L-191.6 187.2 L-190.6 187.2 L-189.6 187.2 L-188.6 187.2 L-187.6 187.2 L-187.6 188.2 L-187.6 189.2 L-187.6 190.2 L-187.6 191.2 L-187.6 192.2 L-187.6 193.2 L-187.6 194.1 L-187.6 195.1 L-187.6 196.1 L-187.6 197.1 L-187.6 198.1 L-187.6 199.1 L-187.6 200.1 L-187.6 201.1 L-187.6 202.1 L-187.6 203.1 L-187.6 204.1 L-187.6 205.1 L-187.6 206.1 L-187.6 207.1 L-187.6 208.1 L-187.6 209.1 L-187.6 210.1 L-187.6 211.1 L-187.7 212.1 L-188.7 212.1 L-189.6 212.1 L-190.6 212.1 L-191.6 212.1 L-192.6 212.1 L-193.6 212.1 L-194.6 212.1 L-195.6 212.1 L-196.6 212.1 L-197.6 212.1 L-198.6 212.1 L-199.6 212.1 L-200.6 212.1 L-201.6 212.1 L-202.6 212.1 L-203.6 212.1 L-204.6 212.1 L-205.6 212.1 L-206.6 212.1 L-207.6 212.1 L-208.6 212.1 L-209.6 212.1 L-210.6 212.1 L-211.6 212.1 L-212.6 212.1 Z " />
<path stroke="rgb(0,0,0)" stroke-opacity="0.996" fill="rgb(255,255,255)" fill-opacity="1" d="M-75 200 L-75.08 202 L-75.32 204 L-75.71 205.9 L-76.25 207.8 L-76.95 209.7 L-77.79 211.5 L-78.78 213.2 L-79.89 214.9 L-81.14 216.4 L-82.5 217.9 L-83.97 219.2 L-85.55 220.4 L-87.21 221.5 L-88.96 222.4 L-90.78 223.2 L-92.65 223.9 L-94.58 224.4 L-96.53 224.8 L-98.51 225 L-100.5 225 L-102.5 224.9 L-104.4 224.6 L-106.4 224.2 L-108.3 223.6 L-110.1 222.9 L-111.9 222 L-113.6 221 L-115.3 219.8 L-116.8 218.5 L-118.2 217.1 L-119.5 215.6 L-120.7 214 L-121.7 212.4 L-122.6 210.6 L-123.4 208.8 L-124 206.9 L-124.5 204.9 L-124.8 203 L-125 201 L-125 199 L-124.8 197 L-124.5 195.1 L-124 193.1 L-123.4 191.2 L-122.6 189.4 L-121.7 187.6 L-120.7 186 L-119.5 184.4 L-118.2 182.9 L-116.8 181.5 L-115.3 180.2 L-113.6 179 L-111.9 178 L-110.1 177.1 L-108.3 176.4 L-106.4 175.8 L-104.4 175.4 L-102.5 175.1 L-100.5 175 L-98.51 175 L-96.53 175.2 L-94.58 175.6 L-92.65 176.1 L-90.78 176.8 L-88.96 177.6 L-87.21 178.5 L-85.55 179.6 L-83.97 180.8 L-82.5 182.1 L-81.14 183.6 L-79.89 185.1 L-78.78 186.8 L-77.79 188.5 L-76.95 190.3 L-76.25 192.2 L-75.71 194.1 L-75.32 196 L-75.08 198 L-75 200 Z " />
<path stroke="rgb(0,0,0)" stroke-opacity="1" fill="rgb(255,255,255)" fill-opacity="1" d="M-12.71 212.1 L-12.7 211.1 L-12.7 210.1 L-12.69 209.1 L-12.69 208.1 L-12.68 207.1 L-12.67 206.1 L-12.67 205.1 L-12.66 204.1 L-12.66 203.1 L-12.65 202.1 L-12.65 201.1 L-12.64 200.1 L-12.63 199.1 L-12.63 198.1 L-12.62 197.1 L-12.62 196.1 L-12.61 195.1 L-12.6 194.1 L-12.6 193 L-12.59 192 L-12.59 191 L-12.58 190 L-12.58 189 L-12.57 188 L-12.56 187 L-11.56 187 L-10.56 187.1 L-9.56 187.1 L-8.559 187.1 L-7.558 187.1 L-6.557 187.1 L-5.556 187.1 L-4.555 187.1 L-3.554 187.1 L-2.553 187.1 L-1.552 187.1 L-0.5507 187.1 L0.4503 187.1 L1.451 187.1 L2.452 187.1 L3.454 187.1 L4.455 187.1 L5.456 187.1 L6.457 187.2 L7.458 187.2 L8.459 187.2 L9.46 187.2 L10.46 187.2 L11.46 187.2 L12.46 187.2 L12.46 188.2 L12.45 189.2 L12.45 190.2 L12.44 191.2 L12.43 192.2 L12.43 193.2 L12.42 194.2 L12.42 195.2 L12.41 196.2 L12.4 197.2 L12.4 198.2 L12.39 199.2 L12.39 200.2 L12.38 201.2 L12.38 202.2 L12.37 203.2 L12.36 204.2 L12.36 205.2 L12.35 206.2 L12.35 207.2 L12.34 208.2 L12.34 209.2 L12.33 210.2 L12.32 211.2 L12.32 212.2 L11.32 212.2 L10.32 212.2 L9.315 212.2 L8.313 212.2 L7.312 212.2 L6.311 212.2 L5.31 212.2 L4.309 212.2 L3.308 212.2 L2.307 212.2 L1.306 212.2 L0.3049 212.1 L-0.6961 212.1 L-1.697 212.1 L-2.698 212.1 L-3.699 212.1 L-4.7 212.1 L-5.701 212.1 L-6.703 212.1 L-7.704 212.1 L-8.705 212.1 L-9.706 212.1 L-10.71 212.1 L-11.71 212.1 L-12.71 212.1 Z " />
<path stroke="rgb(0,0,0)" stroke-opacity="0.996" fill="rgb(255,255,255)" fill-opacity="1" d="M125 200 L124.9 202 L124.7 204 L124.3 205.9 L123.7 207.8 L123 209.7 L122.2 211.5 L121.2 213.2 L120.1 214.9 L118.9 216.4 L117.5 217.9 L116 219.2 L114.5 220.4 L112.8 221.5 L111 222.4 L109.2 223.2 L107.3 223.9 L105.4 224.4 L103.5 224.8 L101.5 225 L99.5 225 L97.52 224.9 L95.55 224.6 L93.61 224.2 L91.71 223.6 L89.86 222.9 L88.08 222 L86.37 221 L84.75 219.8 L83.22 218.5 L81.8 217.1 L80.5 215.6 L79.32 214 L78.27 212.4 L77.35 210.6 L76.58 208.8 L75.96 206.9 L75.49 204.9 L75.18 203 L75.02 201 L75.02 199 L75.18 197 L75.49 195.1 L75.96 193.1 L76.58 191.2 L77.35 189.4 L78.27 187.6 L79.32 186 L80.5 184.4 L81.8 182.9 L83.22 181.5 L84.75 180.2 L86.37 179 L88.08 178 L89.86 177.1 L91.71 176.4 L93.61 175.8 L95.55 175.4 L97.52 175.1 L99.5 175 L101.5 175 L103.5 175.2 L105.4 175.6 L107.3 176.1 L109.2 176.8 L111 177.6 L112.8 178.5 L114.5 179.6 L116 180.8 L117.5 182.1 L118.9 183.6 L120.1 185.1 L121.2 186.8 L122.2 188.5 L123 190.3 L123.7 192.2 L124.3 194.1 L124.7 196 L124.9 198 L125 200 Z " />
<path stroke="rgb(0,0,0)" stroke-opacity="1" fill="rgb(255,255,255)" fill-opacity="1" d="M185.1 211 L185.2 210 L185.4 209 L185.5 207.9 L185.6 206.9 L185.8 205.8 L185.9 204.8 L186.1 203.7 L186.2 202.7 L186.3 201.6 L186.5 200.6 L186.6 199.5 L186.7 198.5 L186.9 197.4 L187 196.4 L187.1 195.3 L187.3 194.3 L187.4 193.2 L187.5 192.2 L187.7 191.1 L187.8 190.1 L187.9 189 L188.1 188 L188.2 186.9 L188.4 185.9 L188.5 184.8 L189.5 185 L190.6 185.1 L191.6 185.3 L192.7 185.4 L193.7 185.5 L194.8 185.7 L195.8 185.8 L196.9 185.9 L197.9 186.1 L199 186.2 L200 186.3 L201.1 186.5 L202.1 186.6 L203.2 186.7 L204.2 186.9 L205.3 187 L206.3 187.1 L207.4 187.3 L208.4 187.4 L209.5 187.6 L210.5 187.7 L211.5 187.8 L212.6 188 L213.6 188.1 L214.7 188.2 L214.6 189.3 L214.4 190.3 L214.3 191.4 L214.2 192.4 L214 193.5 L213.9 194.5 L213.7 195.6 L213.6 196.6 L213.5 197.7 L213.3 198.7 L213.2 199.8 L213.1 200.8 L212.9 201.9 L212.8 202.9 L212.7 204 L212.5 205 L212.4 206 L212.3 207.1 L212.1 208.1 L212 209.2 L211.9 210.2 L211.7 211.3 L211.6 212.3 L211.4 213.4 L211.3 214.4 L210.3 214.3 L209.2 214.2 L208.2 214 L207.1 213.9 L206.1 213.8 L205 213.6 L204 213.5 L202.9 213.4 L201.9 213.2 L200.8 213.1 L199.8 212.9 L198.7 212.8 L197.7 212.7 L196.6 212.5 L195.6 212.4 L194.5 212.3 L193.5 212.1 L192.4 212 L191.4 211.9 L190.3 211.7 L189.3 211.6 L188.2 211.5 L187.2 211.3 L186.2 211.2 L185.1 211 Z " />
<path stroke="rgb(0,0,0)" stroke-opacity="0.996" fill="rgb(255,255,255)" fill-opacity="1" d="M325 200 L324.9 202 L324.7 204 L324.3 205.9 L323.7 207.8 L323 209.7 L322.2 211.5 L321.2 213.2 L320.1 214.9 L318.9 216.4 L317.5 217.9 L316 219.2 L314.5 220.4 L312.8 221.5 L311 222.4 L309.2 223.2 L307.3 223.9 L305.4 224.4 L303.5 224.8 L301.5 225 L299.5 225 L297.5 224.9 L295.6 224.6 L293.6 224.2 L291.7 223.6 L289.9 222.9 L288.1 222 L286.4 221 L284.7 219.8 L283.2 218.5 L281.8 217.1 L280.5 215.6 L279.3 214 L278.3 212.4 L277.4 210.6 L276.6 208.8 L276 206.9 L275.5 204.9 L275.2 203 L275 201 L275 199 L275.2 197 L275.5 195.1 L276 193.1 L276.6 191.2 L277.4 189.4 L278.3 187.6 L279.3 186 L280.5 184.4 L281.8 182.9 L283.2 181.5 L284.7 180.2 L286.4 179 L288.1 178 L289.9 177.1 L291.7 176.4 L293.6 175.8 L295.6 175.4 L297.5 175.1 L299.5 175 L301.5 175 L303.5 175.2 L305.4 175.6 L307.3 176.1 L309.2 176.8 L311 177.6 L312.8 178.5 L314.5 179.6 L316 180.8 L317.5 182.1 L318.9 183.6 L320.1 185.1 L321.2 186.8 L322.2 188.5 L323 190.3 L323.7 192.2 L324.3 194.1 L324.7 196 L324.9 198 L325 200 Z " />
<path stroke="rgb(0,0,0)" stroke-opacity="1" fill="rgb(255,255,255)" fill-opacity="1" d="M-312.6 312.1 L-312.6 311.1 L-312.6 310.1 L-312.6 309.1 L-312.6 308.1 L-312.6 307.1 L-312.6 306.1 L-312.6 305.1 L-312.6 304.1 L-312.6 303.1 L-312.6 302.1 L-312.6 301.1 L-312.6 300.1 L-312.6 299.1 L-312.6 298.1 L-312.6 297.1 L-312.6 296.1 L-312.6 295.1 L-312.6 294.1 L-312.6 293.1 L-312.6 292.1 L-312.6 291.1 L-312.6 290.1 L-312.6 289.1 L-312.6 288.1 L-312.6 287.1 L-311.6 287.1 L-310.6 287.1 L-309.6 287.1 L-308.6 287.1 L-307.6 287.1 L-306.6 287.1 L-305.6 287.1 L-304.6 287.1 L-303.6 287.1 L-302.6 287.1 L-301.6 287.1 L-300.6 287.1 L-299.6 287.1 L-298.6 287.1 L-297.6 287.1 L-296.6 287.1 L-295.6 287.1 L-294.6 287.1 L-293.6 287.1 L-292.6 287.2 L-291.6 287.2 L-290.6 287.2 L-289.6 287.2 L-288.6 287.2 L-287.6 287.2 L-287.6 288.2 L-287.6 289.2 L-287.6 290.2 L-287.6 291.2 L-287.6 292.2 L-287.6 293.2 L-287.6 294.1 L-287.6 295.1 L-287.6 296.1 L-287.6 297.1 L-287.6 298.1 L-287.6 299.1 L-287.6 300.1 L-287.6 301.1 L-287.6 302.1 L-287.6 303.1 L-287.6 304.1 L-287.6 305.1 L-287.6 306.1 L-287.6 307.1 L-287.6 308.1 L-287.6 309.1 L-287.6 310.1 L-287.6 311.1 L-287.7 312.1 L-288.7 312.1 L-289.6 312.1 L-290.6 312.1 L-291.6 312.1 L-292.6 312.1 L-293.6 312.1 L-294.6 312.1 L-295.6 312.1 L-296.6 312.1 L-297.6 312.1 L-298.6 312.1 L-299.6 312.1 L-300.6 312.1 L-301.6 312.1 L-302.6 312.1 L-303.6 312.1 L-304.6 312.1 L-305.6 312.1 L-306.6 312.1 L-307.6 312.1 L-308.6 312.1 L-309.6 312.1 L-310.6 312.1 L-311.6 312.1 L-312.6 312.1 Z " />
<path stroke="rgb(0,0,0)" stroke-opacity="0.996" fill="rgb(255,255,255)" fill-opacity="1" d="M-175 300 L-175.1 302 L-175.3 304 L-175.7 305.9 L-176.3 307.8 L-177 309.7 L-177.8 311.5 L-178.8 313.2 L-179.9 314.9 L-181.1 316.4 L-182.5 317.9 L-184 319.2 L-185.5 320.4 L-187.2 321.5 L-189 322.4 L-190.8 323.2 L-192.7 323.9 L-194.6 324.4 L-196.5 324.8 L-198.5 325 L-200.5 325 L-202.5 324.9 L-204.4 324.6 L-206.4 324.2 L-208.3 323.6 L-210.1 322.9 L-211.9 322 L-213.6 321 L-215.3 319.8 L-216.8 318.5 L-218.2 317.1 L-219.5 315.6 L-220.7 314 L-221.7 312.4 L-222.6 310.6 L-223.4 308.8 L-224 306.9 L-224.5 304.9 L-224.8 303 L-225 301 L-225 299 L-224.8 297 L-224.5 295.1 L-224 293.1 L-223.4 291.2 L-222.6 289.4 L-221.7 287.6 L-220.7 286 L-219.5 284.4 L-218.2 282.9 L-216.8 281.5 L-215.3 280.2 L-213.6 279 L-211.9 278 L-210.1 277.1 L-208.3 276.4 L-206.4 275.8 L-204.4 275.4 L-202.5 275.1 L-200.5 275 L-198.5 275 L-196.5 275.2 L-194.6 275.6 L-192.7 276.1 L-190.8 276.8 L-189 277.6 L-187.2 278.5 L-185.5 279.6 L-184 280.8 L-182.5 282.1 L-181.1 283.6 L-179.9 285.1 L-178.8 286.8 L-177.8 288.5 L-177 290.3 L-176.3 292.2 L-175.7 294.1 L-175.3 296 L-175.1 298 L-175 300 Z " />
<path stroke="rgb(0,0,0)" stroke-opacity="1" fill="rgb(255,255,255)" fill-opacity="1" d="M-112.7 312.1 L-112.7 311.1 L-112.7 310.1 L-112.7 309.1 L-112.7 308.1 L-112.7 307.1 L-112.7 306.1 L-112.7 305.1 L-112.7 304.1 L-112.7 303.1 L-112.7 302.1 L-112.6 301.1 L-112.6 300.1 L-112.6 299.1 L-112.6 298.1 L-112.6 297.1 L-112.6 296.1 L-112.6 295.1 L-112.6 294.1 L-112.6 293 L-112.6 292 L-112.6 291 L-112.6 290 L-112.6 289 L-112.6 288 L-112.6 287 L-111.6 287 L-110.6 287.1 L-109.6 287.1 L-108.6 287.1 L-107.6 287.1 L-106.6 287.1 L-105.6 287.1 L-104.6 287.1 L-103.6 287.1 L-102.6 287.1 L-101.6 287.1 L-100.6 287.1 L-99.55 287.1 L-98.55 287.1 L-97.55 287.1 L-96.55 287.1 L-95.55 287.1 L-94.54 287.1 L-93.54 287.2 L-92.54 287.2 L-91.54 287.2 L-90.54 287.2 L-89.54 287.2 L-88.54 287.2 L-87.54 287.2 L-87.54 288.2 L-87.55 289.2 L-87.55 290.2 L-87.56 291.2 L-87.57 292.2 L-87.57 293.2 L-87.58 294.2 L-87.58 295.2 L-87.59 296.2 L-87.6 297.2 L-87.6 298.2 L-87.61 299.2 L-87.61 300.2 L-87.62 301.2 L-87.62 302.2 L-87.63 303.2 L-87.64 304.2 L-87.64 305.2 L-87.65 306.2 L-87.65 307.2 L-87.66 308.2 L-87.66 309.2 L-87.67 310.2 L-87.68 311.2 L-87.68 312.2 L-88.68 312.2 L-89.68 312.2 L-90.69 312.2 L-91.69 312.2 L-92.69 312.2 L-93.69 312.2 L-94.69 312.2 L-95.69 312.2 L-96.69 312.2 L-97.69 312.2 L-98.69 312.2 L-99.7 312.1 L-100.7 312.1 L-101.7 312.1 L-102.7 312.1 L-103.7 312.1 L-104.7 312.1 L-105.7 312.1 L-106.7 312.1 L-107.7 312.1 L-108.7 312.1 L-109.7 312.1 L-110.7 312.1 L-111.7 312.1 L-112.7 312.1 Z " />
<path stroke="rgb(0,0,0)" stroke-opacity="0.996" fill="rgb(255,255,255)" fill-opacity="1" d="M25 300 L24.92 302 L24.68 304 L24.29 305.9 L23.75 307.8 L23.05 309.7 L22.21 311.5 L21.22 313.2 L20.11 314.9 L18.86 316.4 L17.5 317.9 L16.03 319.2 L14.45 320.4 L12.79 321.5 L11.04 322.4 L9.222 323.2 L7.346 323.9 L5.424 324.4 L3.468 324.8 L1.49 325 L-0.4971 325 L-2.481 324.9 L-4.45 324.6 L-6.39 324.2 L-8.29 323.6 L-10.14 322.9 L-11.92 322 L-13.63 321 L-15.25 319.8 L-16.78 318.5 L-18.2 317.1 L-19.5 315.6 L-20.68 314 L-21.73 312.4 L-22.65 310.6 L-23.42 308.8 L-24.04 306.9 L-24.51 304.9 L-24.82 303 L-24.98 301 L-24.98 299 L-24.82 297 L-24.51 295.1 L-24.04 293.1 L-23.42 291.2 L-22.65 289.4 L-21.73 287.6 L-20.68 286 L-19.5 284.4 L-18.2 282.9 L-16.78 281.5 L-15.25 280.2 L-13.63 279 L-11.92 278 L-10.14 277.1 L-8.29 276.4 L-6.39 275.8 L-4.45 275.4 L-2.481 275.1 L-0.4971 275 L1.49 275 L3.468 275.2 L5.424 275.6 L7.346 276.1 L9.222 276.8 L11.04 277.6 L12.79 278.5 L14.45 279.6 L16.03 280.8 L17.5 282.1 L18.86 283.6 L20.11 285.1 L21.22 286.8 L22.21 288.5 L23.05 290.3 L23.75 292.2 L24.29 294.1 L24.68 296 L24.92 298 L25 300 Z " />
<path stroke="rgb(0,0,0)" stroke-opacity="1" fill="rgb(255,255,255)" fill-opacity="1" d="M85.1 311 L85.24 310 L85.38 309 L85.51 307.9 L85.65 306.9 L85.78 305.8 L85.92 304.8 L86.05 303.7 L86.19 302.7 L86.32 301.6 L86.46 300.6 L86.59 299.5 L86.73 298.5 L86.86 297.4 L87 296.4 L87.14 295.3 L87.27 294.3 L87.41 293.2 L87.54 292.2 L87.68 291.1 L87.81 290.1 L87.95 289 L88.08 288 L88.22 286.9 L88.35 285.9 L88.49 284.8 L89.54 285 L90.59 285.1 L91.63 285.3 L92.68 285.4 L93.73 285.5 L94.78 285.7 L95.83 285.8 L96.87 285.9 L97.92 286.1 L98.97 286.2 L100 286.3 L101.1 286.5 L102.1 286.6 L103.2 286.7 L104.2 286.9 L105.3 287 L106.3 287.1 L107.4 287.3 L108.4 287.4 L109.5 287.6 L110.5 287.7 L111.5 287.8 L112.6 288 L113.6 288.1 L114.7 288.2 L114.6 289.3 L114.4 290.3 L114.3 291.4 L114.2 292.4 L114 293.5 L113.9 294.5 L113.7 295.6 L113.6 296.6 L113.5 297.7 L113.3 298.7 L113.2 299.8 L113.1 300.8 L112.9 301.9 L112.8 302.9 L112.7 304 L112.5 305 L112.4 306 L112.3 307.1 L112.1 308.1 L112 309.2 L111.9 310.2 L111.7 311.3 L111.6 312.3 L111.4 313.4 L111.3 314.4 L110.3 314.3 L109.2 314.2 L108.2 314 L107.1 313.9 L106.1 313.8 L105 313.6 L104 313.5 L102.9 313.4 L101.9 313.2 L100.8 313.1 L99.78 312.9 L98.73 312.8 L97.68 312.7 L96.63 312.5 L95.59 312.4 L94.54 312.3 L93.49 312.1 L92.44 312 L91.39 311.9 L90.35 311.7 L89.3 311.6 L88.25 311.5 L87.2 311.3 L86.15 311.2 L85.1 311 Z " />
<path stroke="rgb(0,0,0)" stroke-opacity="0.996" fill="rgb(255,255,255)" fill-opacity="1" d="M225 300 L224.9 302 L224.7 304 L224.3 305.9 L223.7 307.8 L223 309.7 L222.2 311.5 L221.2 313.2 L220.1 314.9 L218.9 316.4 L217.5 317.9 L216 319.2 L214.5 320.4 L212.8 321.5 L211 322.4 L209.2 323.2 L207.3 323.9 L205.4 324.4 L203.5 324.8 L201.5 325 L199.5 325 L197.5 324.9 L195.6 324.6 L193.6 324.2 L191.7 323.6 L189.9 322.9 L188.1 322 L186.4 321 L184.7 319.8 L183.2 318.5 L181.8 317.1 L180.5 315.6 L179.3 314 L178.3 312.4 L177.4 310.6 L176.6 308.8 L176 306.9 L175.5 304.9 L175.2 303 L175 301 L175 299 L175.2 297 L175.5 295.1 L176 293.1 L176.6 291.2 L177.4 289.4 L178.3 287.6 L179.3 286 L180.5 284.4 L181.8 282.9 L183.2 281.5 L184.7 280.2 L186.4 279 L188.1 278 L189.9 277.1 L191.7 276.4 L193.6 275.8 L195.6 275.4 L197.5 275.1 L199.5 275 L201.5 275 L203.5 275.2 L205.4 275.6 L207.3 276.1 L209.2 276.8 L211 277.6 L212.8 278.5 L214.5 279.6 L216 280.8 L217.5 282.1 L218.9 283.6 L220.1 285.1 L221.2 286.8 L222.2 288.5 L223 290.3 L223.7 292.2 L224.3 294.1 L224.7 296 L224.9 298 L225 300 Z " />
<path stroke="rgb(0,0,0)" stroke-opacity="1" fill="rgb(255,255,255)" fill-opacity="1" d="M277.5 304.1 L278.2 303.1 L278.9 302 L279.7 300.9 L280.4 299.8 L281.1 298.8 L281.8 297.7 L282.5 296.6 L283.3 295.5 L284 294.4 L284.7 293.4 L285.4 292.3 L286.2 291.2 L286.9 290.1 L287.6 289.1 L288.3 288 L289 286.9 L289.8 285.8 L290.5 284.8 L291.2 283.7 L291.9 282.6 L292.7 281.5 L293.4 280.5 L294.1 279.4 L294.8 278.3 L295.5 277.2 L296.6 277.9 L297.7 278.7 L298.8 279.4 L299.8 280.1 L300.9 280.8 L302 281.6 L303.1 282.3 L304.2 283 L305.2 283.7 L306.3 284.4 L307.4 285.2 L308.5 285.9 L309.5 286.6 L310.6 287.3 L311.7 288.1 L312.8 288.8 L313.8 289.5 L314.9 290.2 L316 290.9 L317.1 291.7 L318.2 292.4 L319.2 293.1 L320.3 293.8 L321.4 294.6 L322.5 295.3 L321.7 296.4 L321 297.4 L320.3 298.5 L319.6 299.6 L318.9 300.7 L318.1 301.7 L317.4 302.8 L316.7 303.9 L316 305 L315.2 306 L314.5 307.1 L313.8 308.2 L313.1 309.3 L312.4 310.4 L311.6 311.4 L310.9 312.5 L310.2 313.6 L309.5 314.7 L308.7 315.7 L308 316.8 L307.3 317.9 L306.6 319 L305.9 320 L305.1 321.1 L304.4 322.2 L303.3 321.5 L302.3 320.8 L301.2 320 L300.1 319.3 L299 318.6 L297.9 317.9 L296.9 317.1 L295.8 316.4 L294.7 315.7 L293.6 315 L292.6 314.3 L291.5 313.5 L290.4 312.8 L289.3 312.1 L288.3 311.4 L287.2 310.6 L286.1 309.9 L285 309.2 L283.9 308.5 L282.9 307.8 L281.8 307 L280.7 306.3 L279.6 305.6 L278.6 304.9 L277.5 304.1 Z " />
</g>
</g>
</svg>
