<!DOCTYPE svg>
<svg xmlns="http://www.w3.org/2000/svg" xmlns:xlink="http://www.w3.org/1999/xlink" width="1000" height="1000">
<g transform="translate(500.000000,500.000000)">
<g transform="scale(3.000000,3.000000)">
<path stroke="rgb(0,0,0)" stroke-opacity="1" fill="rgb(255,255,255)" fill-opacity="1" d="M-312.6 -287.9 L-312.6 -288.9 L-312.6 -289.9 L-312.6 -290.9 L-312.6 -291.9 L-312.6 -292.9 L-312.6 -293.9 L-312.6 -294.9 L-312.6 -295.9 L-312.6 -296.9 L-312.6 -297.9 L-312.6 -298.9 L-312.6 -299.9 L-312.6 -300.9 L-312.6 -301.9 L-312.6 -302.9 L-312.6 -303.9 L-312.6 -304.9 L-312.6 -305.9 L-312.6 -306.9 L-312.6 -307.9 L-312.6 -308.9 L-312.6 -309.9 L-312.6 -310.9 L-312.6 -311.9 L-312.6 -312.9 L-311.6 -312.9 L-310.6 -312.9 L-309.6 -312.9 L-308.6 -312.9 L-307.6 -312.9 L-306.6 -312.9 L-305.6 -312.9 L-304.6 -312.9 L-303.6 -312.9 L-302.6 -312.9 L-301.6 -312.9 L-300.6 -312.9 L-299.6 -312.9 L-298.6 -312.9 L-297.6 -312.9 L-296.6 -312.9 L-295.6 -312.9 L-294.6 -312.9 L-293.6 -312.9 L-292.6 -312.8 L-291.6 -312.8 L-290.6 -312.8 L-289.6 -312.8 L-288.6 -312.8 L-287.6 -312.8 L-287.6 -311.8 L-287.6 -310.8 L-287.6 -309.8 L-287.6 -308.8 L-287.6 -307.8 L-287.6 -306.8 L-287.6 -305.9 L-287.6 -304.9 L-287.6 -303.9 L-287.6 -302.9 L-287.6 -301.9 L-287.6 -300.9 L-287.6 -299.9 L-287.6 -298.9 L-287.6 -297.9 L-287.6 -296.9 L-287.6 -295.9 L-287.6 -294.9 L-287.6 -293.9 L-287.6 -292.9 L-287.6 -291.9 L-287.6 -290.9 L-287.6 -289.9 L-287.6 -288.9 L-287.7 -287.9 L-288.7 -287.9 L-289.6 -287.9 L-290.6 -287.9 L-291.6 -287.9 L-292.6 -287.9 L-293.6 -287.9 L-294.6 -287.9 L-295.6 -287.9 L-296.6 -287.9 L-297.6 -287.9 L-298.6 -287.9 L-299.6 -287.9 L-300.6 -287.9 L-301.6 -287.9 L-302.6 -287.9 L-303.6 -287.9 L-304.6 -287.9 L-305.6 -287.9 L-306.6 -287.9 L-307.6 -287.9 L-308.6 -287.9 L-309.6 -287.9 L-310.6 -287.9 L-311.6 -287.9 L-312.6 -287.9 Z " />
<path stroke="rgb(0,0,0)" stroke-opacity="0.949" fill="rgb(255,255,255)" fill-opacity="1" d="M-175 -300 L-175.1 -298 L-175.3 -296 L-175.7 -294.1 L-176.3 -292.2 L-177 -290.3 L-177.8 -288.5 L-178.8 -286.8 L-179.9 -285.1 L-181.1 -283.6 L-182.5 -282.1 L-184 -280.8 L-185.5 -279.6 L-187.2 -278.5 L-189 -277.6 L-190.8 -276.8 L-192.7 -276.1 L-194.6 -275.6 L-196.5 -275.2 L-198.5 -275 L-200.5 -275 L-202.5 -275.1 L-204.4 -275.4 L-206.4 -275.8 L-208.3 -276.4 L-210.1 -277.1 L-211.9 -278 L-213.6 -279 L-215.3 -280.2 L-216.8 -281.5 L-218.2 -282.9 L-219.5 -284.4 L-220.7 -286 L-221.7 -287.6 L-222.6 -289.4 L-223.4 -291.2 L-224 -293.1 L-224.5 -295.1 L-224.8 -297 L-225 -299 L-225 -301 L-224.8 -303 L-224.5 -304.9 L-224 -306.9 L-223.4 -308.8 L-222.6 -310.6 L-221.7 -312.4 L-220.7 -314 L-219.5 -315.6 L-218.2 -317.1 L-216.8 -318.5 L-215.3 -319.8 L-213.6 -321 L-211.9 -322 L-210.1 -322.9 L-208.3 -323.6 L-206.4 -324.2 L-204.4 -324.6 L-202.5 -324.9 L-200.5 -325 L-198.5 -325 L-196.5 -324.8 L-194.6 -324.4 L-192.7 -323.9 L-190.8 -323.2 L-189 -322.4 L-187.2 -321.5 L-185.5 -320.4 L-184 -319.2 L-182.5 -317.9 L-181.1 -316.4 L-179.9 -314.9 L-178.8 -313.2 L-177.8 -311.5 L-177 -309.7 L-176.3 -307.8 L-175.7 -305.9 L-175.3 -304 L-175.1 -302 L-175 -300 Z " />
<path stroke="rgb(0,0,0)" stroke-opacity="1" fill="rgb(255,255,255)" fill-opacity="1" d="M-112.6 -287.9 L-112.6 -288.9 L-112.6 -289.9 L-112.6 -290.9 L-112.6 -291.9 L-112.6 -292.9 L-112.6 -293.9 L-112.6 -294.9 L-112.6 -295.9 L-112.6 -296.9 L-112.6 -297.9 L-112.6 -298.9 L-112.6 -299.9 L-112.6 -300.9 L-112.6 -301.9 L-112.6 -302.9 L-112.6 -303.9 L-112.6 -304.9 L-112.6 -305.9 L-112.6 -306.9 L-112.6 -307.9 L-112.6 -308.9 L-112.6 -309.9 L-112.6 -310.9 L-112.6 -311.9 L-112.6 -312.9 L-111.6 -312.9 L-110.6 -312.9 L-109.6 -312.9 L-108.6 -312.9 L-107.6 -312.9 L-106.6 -312.9 L-105.6 -312.9 L-104.6 -312.9 L-103.6 -312.9 L-102.6 -312.9 L-101.6 -312.9 L-100.6 -312.9 L-99.61 -312.9 L-98.61 -312.9 L-97.61 -312.9 L-96.61 -312.9 L-95.61 -312.9 L-94.61 -312.9 L-93.61 -312.9 L-92.61 -312.8 L-91.62 -312.8 L-90.62 -312.8 L-89.62 -312.8 L-88.62 -312.8 L-87.62 -312.8 L-87.62 -311.8 L-87.62 -310.8 L-87.62 -309.8 L-87.62 -308.8 L-87.63 -307.8 L-87.63 -306.8 L-87.63 -305.9 L-87.63 -304.9 L-87.63 -303.9 L-87.63 -302.9 L-87.63 -301.9 L-87.63 -300.9 L-87.64 -299.9 L-87.64 -298.9 L-87.64 -297.9 L-87.64 -296.9 L-87.64 -295.9 L-87.64 -294.9 L-87.64 -293.9 L-87.64 -292.9 L-87.65 -291.9 L-87.65 -290.9 L-87.65 -289.9 L-87.65 -288.9 L-87.65 -287.9 L-88.65 -287.9 L-89.65 -287.9 L-90.65 -287.9 L-91.65 -287.9 L-92.65 -287.9 L-93.65 -287.9 L-94.64 -287.9 L-95.64 -287.9 L-96.64 -287.9 L-97.64 -287.9 L-98.64 -287.9 L-99.64 -287.9 L-100.6 -287.9 L-101.6 -287.9 L-102.6 -287.9 L-103.6 -287.9 L-104.6 -287.9 L-105.6 -287.9 L-106.6 -287.9 L-107.6 -287.9 L-108.6 -287.9 L-109.6 -287.9 L-110.6 -287.9 L-111.6 -287.9 L-112.6 -287.9 Z " />
<path stroke="rgb(0,0,0)" stroke-opacity="0.949" fill="rgb(255,255,255)" fill-opacity="1" d="M25 -300 L24.92 -298 L24.68 -296 L24.29 -294.1 L23.75 -292.2 L23.05 -290.3 L22.21 -288.5 L21.22 -286.8 L20.11 -285.1 L18.86 -283.6 L17.5 -282.1 L16.03 -280.8 L14.45 -279.6 L12.79 -278.5 L11.04 -277.6 L9.222 -276.8 L7.346 -276.1 L5.424 -275.6 L3.468 -275.2 L1.49 -275 L-0.4971 -275 L-2.481 -275.1 L-4.45 -275.4 L-6.39 -275.8 L-8.29 -276.4 L-10.14 -277.1 L-11.92 -278 L-13.63 -279 L-15.25 -280.2 L-16.78 -281.5 L-18.2 -282.9 L-19.5 -284.4 L-20.68 -286 L-21.73 -287.6 L-22.65 -289.4 L-23.42 -291.2 L-24.04 -293.1 L-24.51 -295.1 L-24.82 -297 L-24.98 -299 L-24.98 -301 L-24.82 -303 L-24.51 -304.9 L-24.04 -306.9 L-23.42 -308.8 L-22.65 -310.6 L-21.73 -312.4 L-20.68 -314 L-19.5 -315.6 L-18.2 -317.1 L-16.78 -318.5 L-15.25 -319.8 L-13.63 -321 L-11.92 -322 L-10.14 -322.9 L-8.29 -323.6 L-6.39 -324.2 L-4.45 -324.6 L-2.481 -324.9 L-0.4971 -325 L1.49 -325 L3.468 -324.8 L5.424 -324.4 L7.346 -323.9 L9.222 -323.2 L11.04 -322.4 L12.79 -321.5 L14.45 -320.4 L16.03 -319.2 L17.5 -317.9 L18.86 -316.4 L20.11 -314.9 L21.22 -313.2 L22.21 -311.5 L23.05 -309.7 L23.75 -307.8 L24.29 -305.9 L24.68 -304 L24.92 -302 L25 -300 Z " />
<path stroke="rgb(0,0,0)" stroke-opacity="1" fill="rgb(255,255,255)" fill-opacity="1" d="M87.37 -287.9 L87.37 -288.9 L87.37 -289.9 L87.38 -290.9 L87.38 -291.9 L87.38 -292.9 L87.38 -293.9 L87.38 -294.9 L87.38 -295.9 L87.38 -296.9 L87.38 -297.9 L87.39 -298.9 L87.39 -299.9 L87.39 -300.9 L87.39 -301.9 L87.39 -302.9 L87.39 -303.9 L87.39 -304.9 L87.39 -305.9 L87.4 -306.9 L87.4 -307.9 L87.4 -308.9 L87.4 -309.9 L87.4 -310.9 L87.4 -311.9 L87.4 -312.9 L88.4 -312.9 L89.4 -312.9 L90.4 -312.9 L91.4 -312.9 L92.4 -312.9 L93.4 -312.9 L94.4 -312.9 L95.4 -312.9 L96.4 -312.9 L97.39 -312.9 L98.39 -312.9 L99.39 -312.9 L100.4 -312.9 L101.4 -312.9 L102.4 -312.9 L103.4 -312.9 L104.4 -312.9 L105.4 -312.9 L106.4 -312.9 L107.4 -312.8 L108.4 -312.8 L109.4 -312.8 L110.4 -312.8 L111.4 -312.8 L112.4 -312.8 L112.4 -311.8 L112.4 -310.8 L112.4 -309.8 L112.4 -308.8 L112.4 -307.8 L112.4 -306.8 L112.4 -305.9 L112.4 -304.9 L112.4 -303.9 L112.4 -302.9 L112.4 -301.9 L112.4 -300.9 L112.4 -299.9 L112.4 -298.9 L112.4 -297.9 L112.4 -296.9 L112.4 -295.9 L112.4 -294.9 L112.4 -293.9 L112.4 -292.9 L112.4 -291.9 L112.4 -290.9 L112.4 -289.9 L112.4 -288.9 L112.3 -287.9 L111.3 -287.9 L110.4 -287.9 L109.4 -287.9 L108.4 -287.9 L107.4 -287.9 L106.4 -287.9 L105.4 -287.9 L104.4 -287.9 L103.4 -287.9 L102.4 -287.9 L101.4 -287.9 L100.4 -287.9 L99.36 -287.9 L98.36 -287.9 L97.36 -287.9 L96.36 -287.9 L95.36 -287.9 L94.37 -287.9 L93.37 -287.9 L92.37 -287.9 L91.37 -287.9 L90.37 -287.9 L89.37 -287.9 L88.37 -287.9 L87.37 -287.9 Z " />
<path stroke="rgb(0,0,0)" stroke-opacity="0.949" fill="rgb(255,255,255)" fill-opacity="1" d="M225 -300 L224.9 -298 L224.7 -296 L224.3 -294.1 L223.7 -292.2 L223 -290.3 L222.2 -288.5 L221.2 -286.8 L220.1 -285.1 L218.9 -283.6 L217.5 -282.1 L216 -280.8 L214.5 -279.6 L212.8 -278.5 L211 -277.6 L209.2 -276.8 L207.3 -276.1 L205.4 -275.6 L203.5 -275.2 L201.5 -275 L199.5 -275 L197.5 -275.1 L195.6 -275.4 L193.6 -275.8 L191.7 -276.4 L189.9 -277.1 L188.1 -278 L186.4 -279 L184.7 -280.2 L183.2 -281.5 L181.8 -282.9 L180.5 -284.4 L179.3 -286 L178.3 -287.6 L177.4 -289.4 L176.6 -291.2 L176 -293.1 L175.5 -295.1 L175.2 -297 L175 -299 L175 -301 L175.2 -303 L175.5 -304.9 L176 -306.9 L176.6 -308.8 L177.4 -310.6 L178.3 -312.4 L179.3 -314 L180.5 -315.6 L181.8 -317.1 L183.2 -318.5 L184.7 -319.8 L186.4 -321 L188.1 -322 L189.9 -322.9 L191.7 -323.6 L193.6 -324.2 L195.6 -324.6 L197.5 -324.9 L199.5 -325 L201.5 -325 L203.5 -324.8 L205.4 -324.4 L207.3 -323.9 L209.2 -323.2 L211 -322.4 L212.8 -321.5 L214.5 -320.4 L216 -319.2 L217.5 -317.9 L218.9 -316.4 L220.1 -314.9 L221.2 -313.2 L222.2 -311.5 L223 -309.7 L223.7 -307.8 L224.3 -305.9 L224.7 -304 L224.9 -302 L225 -300 Z " />
<path stroke="rgb(0,0,0)" stroke-opacity="1" fill="rgb(255,255,255)" fill-opacity="1" d="M287 -288.1 L287 -289.1 L287 -290.1 L287.1 -291.1 L287.1 -292.1 L287.1 -293.1 L287.1 -294.1 L287.1 -295.1 L287.2 -296.1 L287.2 -297.1 L287.2 -298.1 L287.2 -299.1 L287.3 -300.2 L287.3 -301.2 L287.3 -302.2 L287.3 -303.2 L287.4 -304.2 L287.4 -305.2 L287.4 -306.2 L287.4 -307.2 L287.4 -308.2 L287.5 -309.2 L287.5 -310.2 L287.5 -311.2 L287.5 -312.3 L287.6 -313.3 L288.6 -313.2 L289.6 -313.2 L290.6 -313.2 L291.6 -313.2 L292.6 -313.1 L293.6 -313.1 L294.6 -313.1 L295.6 -313.1 L296.6 -313.1 L297.6 -313 L298.7 -313 L299.7 -313 L300.7 -313 L301.7 -312.9 L302.7 -312.9 L303.7 -312.9 L304.7 -312.9 L305.7 -312.8 L306.7 -312.8 L307.7 -312.8 L308.7 -312.8 L309.7 -312.8 L310.8 -312.7 L311.8 -312.7 L312.8 -312.7 L312.8 -311.7 L312.7 -310.7 L312.7 -309.7 L312.7 -308.7 L312.7 -307.6 L312.6 -306.6 L312.6 -305.6 L312.6 -304.6 L312.6 -303.6 L312.5 -302.6 L312.5 -301.6 L312.5 -300.6 L312.5 -299.6 L312.5 -298.6 L312.4 -297.6 L312.4 -296.6 L312.4 -295.5 L312.4 -294.5 L312.3 -293.5 L312.3 -292.5 L312.3 -291.5 L312.3 -290.5 L312.2 -289.5 L312.2 -288.5 L312.2 -287.5 L311.2 -287.5 L310.2 -287.5 L309.2 -287.5 L308.2 -287.6 L307.2 -287.6 L306.1 -287.6 L305.1 -287.6 L304.1 -287.7 L303.1 -287.7 L302.1 -287.7 L301.1 -287.7 L300.1 -287.8 L299.1 -287.8 L298.1 -287.8 L297.1 -287.8 L296.1 -287.8 L295.1 -287.9 L294 -287.9 L293 -287.9 L292 -287.9 L291 -288 L290 -288 L289 -288 L288 -288 L287 -288.1 Z " />
<path stroke="rgb(0,0,0)" stroke-opacity="0.949" fill="rgb(255,255,255)" fill-opacity="1" d="M-275 -200 L-275.1 -198 L-275.3 -196 L-275.7 -194.1 L-276.3 -192.2 L-277 -190.3 L-277.8 -188.5 L-278.8 -186.8 L-279.9 -185.1 L-281.1 -183.6 L-282.5 -182.1 L-284 -180.8 L-285.5 -179.6 L-287.2 -178.5 L-289 -177.6 L-290.8 -176.8 L-292.7 -176.1 L-294.6 -175.6 L-296.5 -175.2 L-298.5 -175 L-300.5 -175 L-302.5 -175.1 L-304.4 -175.4 L-306.4 -175.8 L-308.3 -176.4 L-310.1 -177.1 L-311.9 -178 L-313.6 -179 L-315.3 -180.2 L-316.8 -181.5 L-318.2 -182.9 L-319.5 -184.4 L-320.7 -186 L-321.7 -187.6 L-322.6 -189.4 L-323.4 -191.2 L-324 -193.1 L-324.5 -195.1 L-324.8 -197 L-325 -199 L-325 -201 L-324.8 -203 L-324.5 -204.9 L-324 -206.9 L-323.4 -208.8 L-322.6 -210.6 L-321.7 -212.4 L-320.7 -214 L-319.5 -215.6 L-318.2 -217.1 L-316.8 -218.5 L-315.3 -219.8 L-313.6 -221 L-311.9 -222 L-310.1 -222.9 L-308.3 -223.6 L-306.4 -224.2 L-304.4 -224.6 L-302.5 -224.9 L-300.5 -225 L-298.5 -225 L-296.5 -224.8 L-294.6 -224.4 L-292.7 -223.9 L-290.8 -223.2 L-289 -222.4 L-287.2 -221.5 L-285.5 -220.4 L-284 -219.2 L-282.5 -217.9 L-281.1 -216.4 L-279.9 -214.9 L-278.8 -213.2 L-277.8 -211.5 L-277 -209.7 L-276.3 -207.8 L-275.7 -205.9 L-275.3 -204 L-275.1 -202 L-275 -200 Z " />
<path stroke="rgb(0,0,0)" stroke-opacity="1" fill="rgb(255,255,255)" fill-opacity="1" d="M-212.6 -187.9 L-212.6 -188.9 L-212.6 -189.9 L-212.6 -190.9 L-212.6 -191.9 L-212.6 -192.9 L-212.6 -193.9 L-212.6 -194.9 L-212.6 -195.9 L-212.6 -196.9 L-212.6 -197.9 L-212.6 -198.9 L-212.6 -199.9 L-212.6 -200.9 L-212.6 -201.9 L-212.6 -202.9 L-212.6 -203.9 L-212.6 -204.9 L-212.6 -205.9 L-212.6 -206.9 L-212.6 -207.9 L-212.6 -208.9 L-212.6 -209.9 L-212.6 -210.9 L-212.6 -211.9 L-212.6 -212.9 L-211.6 -212.9 L-210.6 -212.9 L-209.6 -212.9 L-208.6 -212.9 L-207.6 -212.9 L-206.6 -212.9 L-205.6 -212.9 L-204.6 -212.9 L-203.6 -212.9 L-202.6 -212.9 L-201.6 -212.9 L-200.6 -212.9 L-199.6 -212.9 L-198.6 -212.9 L-197.6 -212.9 L-196.6 -212.9 L-195.6 -212.9 L-194.6 -212.9 L-193.6 -212.9 L-192.6 -212.8 L-191.6 -212.8 L-190.6 -212.8 L-189.6 -212.8 L-188.6 -212.8 L-187.6 -212.8 L-187.6 -211.8 L-187.6 -210.8 L-187.6 -209.8 L-187.6 -208.8 L-187.6 -207.8 L-187.6 -206.8 L-187.6 -205.9 L-187.6 -204.9 L-187.6 -203.9 L-187.6 -202.9 L-187.6 -201.9 L-187.6 -200.9 L-187.6 -199.9 L-187.6 -198.9 L-187.6 -197.9 L-187.6 -196.9 L-187.6 -195.9 L-187.6 -194.9 L-187.6 -193.9 L-187.6 -192.9 L-187.6 -191.9 L-187.6 -190.9 L-187.6 -189.9 L-187.6 -188.9 L-187.7 -187.9 L-188.7 -187.9 L-189.6 -187.9 L-190.6 -187.9 L-191.6 -187.9 L-192.6 -187.9 L-193.6 -187.9 L-194.6 -187.9 L-195.6 -187.9 L-196.6 -187.9 L-197.6 -187.9 L-198.6 -187.9 L-199.6 -187.9 L-200.6 -187.9 L-201.6 -187.9 L-202.6 -187.9 L-203.6 -187.9 L-204.6 -187.9 L-205.6 -187.9 L-206.6 -187.9 L-207.6 -187.9 L-208.6 -187.9 L-209.6 -187.9 L-210.6 -187.9 L-211.6 -187.9 L-212.6 -187.9 Z " />
<path stroke="rgb(0,0,0)" stroke-opacity="0.949" fill="rgb(255,255,255)" fill-opacity="1" d="M-75 -200 L-75.08 -198 L-75.32 -196 L-75.71 -194.1 L-76.25 -192.2 L-76.95 -190.3 L-77.79 -188.5 L-78.78 -186.8 L-79.89 -185.1 L-81.14 -183.6 L-82.5 -182.1 L-83.97 -180.8 L-85.55 -179.6 L-87.21 -178.5 L-88.96 -177.6 L-90.78 -176.8 L-92.65 -176.1 L-94.58 -175.6 L-96.53 -175.2 L-98.51 -175 L-100.5 -175 L-102.5 -175.1 L-104.4 -175.4 L-106.4 -175.8 L-108.3 -176.4 L-110.1 -177.1 L-111.9 -178 L-113.6 -179 L-115.3 -180.2 L-116.8 -181.5 L-118.2 -182.9 L-119.5 -184.4 L-120.7 -186 L-121.7 -187.6 L-122.6 -189.4 L-123.4 -191.2 L-124 -193.1 L-124.5 -195.1 L-124.8 -197 L-125 -199 L-125 -201 L-124.8 -203 L-124.5 -204.9 L-124 -206.9 L-123.4 -208.8 L-122.6 -210.6 L-121.7 -212.4 L-120.7 -214 L-119.5 -215.6 L-118.2 -217.1 L-116.8 -218.5 L-115.3 -219.8 L-113.6 -221 L-111.9 -222 L-110.1 -222.9 L-108.3 -223.6 L-106.4 -224.2 L-104.4 -224.6 L-102.5 -224.9 L-100.5 -225 L-98.51 -225 L-96.53 -224.8 L-94.58 -224.4 L-92.65 -223.9 L-90.78 -223.2 L-88.96 -222.4 L-87.21 -221.5 L-85.55 -220.4 L-83.97 -219.2 L-82.5 -217.9 L-81.14 -216.4 L-79.89 -214.9 L-78.78 -213.2 L-77.79 -211.5 L-76.95 -209.7 L-76.25 -207.8 L-75.71 -205.9 L-75.32 -204 L-75.08 -202 L-75 -200 Z " />
<path stroke="rgb(0,0,0)" stroke-opacity="1" fill="rgb(255,255,255)" fill-opacity="1" d="M-12.63 -187.9 L-12.63 -188.9 L-12.63 -189.9 L-12.62 -190.9 L-12.62 -191.9 L-12.62 -192.9 L-12.62 -193.9 L-12.62 -194.9 L-12.62 -195.9 L-12.62 -196.9 L-12.62 -197.9 L-12.61 -198.9 L-12.61 -199.9 L-12.61 -200.9 L-12.61 -201.9 L-12.61 -202.9 L-12.61 -203.9 L-12.61 -204.9 L-12.61 -205.9 L-12.6 -206.9 L-12.6 -207.9 L-12.6 -208.9 L-12.6 -209.9 L-12.6 -210.9 L-12.6 -211.9 L-12.6 -212.9 L-11.6 -212.9 L-10.6 -212.9 L-9.599 -212.9 L-8.6 -212.9 L-7.601 -212.9 L-6.602 -212.9 L-5.603 -212.9 L-4.604 -212.9 L-3.605 -212.9 L-2.606 -212.9 L-1.607 -212.9 L-0.6074 -212.9 L0.3916 -212.9 L1.391 -212.9 L2.39 -212.9 L3.389 -212.9 L4.388 -212.9 L5.387 -212.9 L6.386 -212.9 L7.385 -212.8 L8.384 -212.8 L9.383 -212.8 L10.38 -212.8 L11.38 -212.8 L12.38 -212.8 L12.38 -211.8 L12.38 -210.8 L12.38 -209.8 L12.38 -208.8 L12.37 -207.8 L12.37 -206.8 L12.37 -205.9 L12.37 -204.9 L12.37 -203.9 L12.37 -202.9 L12.37 -201.9 L12.37 -200.9 L12.36 -199.9 L12.36 -198.9 L12.36 -197.9 L12.36 -196.9 L12.36 -195.9 L12.36 -194.9 L12.36 -193.9 L12.36 -192.9 L12.35 -191.9 L12.35 -190.9 L12.35 -189.9 L12.35 -188.9 L12.35 -187.9 L11.35 -187.9 L10.35 -187.9 L9.352 -187.9 L8.353 -187.9 L7.354 -187.9 L6.354 -187.9 L5.355 -187.9 L4.356 -187.9 L3.357 -187.9 L2.358 -187.9 L1.359 -187.9 L0.36 -187.9 L-0.6391 -187.9 L-1.638 -187.9 L-2.637 -187.9 L-3.636 -187.9 L-4.635 -187.9 L-5.634 -187.9 L-6.634 -187.9 L-7.633 -187.9 L-8.632 -187.9 L-9.631 -187.9 L-10.63 -187.9 L-11.63 -187.9 L-12.63 -187.9 Z " />
<path stroke="rgb(0,0,0)" stroke-opacity="0.949" fill="rgb(255,255,255)" fill-opacity="1" d="M125 -200 L124.9 -198 L124.7 -196 L124.3 -194.1 L123.7 -192.2 L123 -190.3 L122.2 -188.5 L121.2 -186.8 L120.1 -185.1 L118.9 -183.6 L117.5 -182.1 L116 -180.8 L114.5 -179.6 L112.8 -178.5 L111 -177.6 L109.2 -176.8 L107.3 -176.1 L105.4 -175.6 L103.5 -175.2 L101.5 -175 L99.5 -175 L97.52 -175.1 L95.55 -175.4 L93.61 -175.8 L91.71 -176.4 L89.86 -177.1 L88.08 -178 L86.37 -179 L84.75 -180.2 L83.22 -181.5 L81.8 -182.9 L80.5 -184.4 L79.32 -186 L78.27 -187.6 L77.35 -189.4 L76.58 -191.2 L75.96 -193.1 L75.49 -195.1 L75.18 -197 L75.02 -199 L75.02 -201 L75.18 -203 L75.49 -204.9 L75.96 -206.9 L76.58 -208.8 L77.35 -210.6 L78.27 -212.4 L79.32 -214 L80.5 -215.6 L81.8 -217.1 L83.22 -218.5 L84.75 -219.8 L86.37 -221 L88.08 -222 L89.86 -222.9 L91.71 -223.6 L93.61 -224.2 L95.55 -224.6 L97.52 -224.9 L99.5 -225 L101.5 -225 L103.5 -224.8 L105.4 -224.4 L107.3 -223.9 L109.2 -223.2 L111 -222.4 L112.8 -221.5 L114.5 -220.4 L116 -219.2 L117.5 -217.9 L118.9 -216.4 L120.1 -214.9 L121.2 -213.2 L122.2 -211.5 L123 -209.7 L123.7 -207.8 L124.3 -205.9 L124.7 -204 L124.9 -202 L125 -200 Z " />
<path stroke="rgb(0,0,0)" stroke-opacity="1" fill="rgb(255,255,255)" fill-opacity="1" d="M187 -188.1 L187 -189.1 L187 -190.1 L187.1 -191.1 L187.1 -192.1 L187.1 -193.1 L187.1 -194.1 L187.1 -195.1 L187.2 -196.1 L187.2 -197.1 L187.2 -198.1 L187.2 -199.1 L187.3 -200.2 L187.3 -201.2 L187.3 -202.2 L187.3 -203.2 L187.4 -204.2 L187.4 -205.2 L187.4 -206.2 L187.4 -207.2 L187.4 -208.2 L187.5 -209.2 L187.5 -210.2 L187.5 -211.2 L187.5 -212.3 L187.6 -213.3 L188.6 -213.2 L189.6 -213.2 L190.6 -213.2 L191.6 -213.2 L192.6 -213.1 L193.6 -213.1 L194.6 -213.1 L195.6 -213.1 L196.6 -213.1 L197.6 -213 L198.7 -213 L199.7 -213 L200.7 -213 L201.7 -212.9 L202.7 -212.9 L203.7 -212.9 L204.7 -212.9 L205.7 -212.8 L206.7 -212.8 L207.7 -212.8 L208.7 -212.8 L209.7 -212.8 L210.8 -212.7 L211.8 -212.7 L212.8 -212.7 L212.8 -211.7 L212.7 -210.7 L212.7 -209.7 L212.7 -208.7 L212.7 -207.6 L212.6 -206.6 L212.6 -205.6 L212.6 -204.6 L212.6 -203.6 L212.5 -202.6 L212.5 -201.6 L212.5 -200.6 L212.5 -199.6 L212.5 -198.6 L212.4 -197.6 L212.4 -196.6 L212.4 -195.5 L212.4 -194.5 L212.3 -193.5 L212.3 -192.5 L212.3 -191.5 L212.3 -190.5 L212.2 -189.5 L212.2 -188.5 L212.2 -187.5 L211.2 -187.5 L210.2 -187.5 L209.2 -187.5 L208.2 -187.6 L207.2 -187.6 L206.1 -187.6 L205.1 -187.6 L204.1 -187.7 L203.1 -187.7 L202.1 -187.7 L201.1 -187.7 L200.1 -187.8 L199.1 -187.8 L198.1 -187.8 L197.1 -187.8 L196.1 -187.8 L195.1 -187.9 L194 -187.9 L193 -187.9 L192 -187.9 L191 -188 L190 -188 L189 -188 L188 -188 L187 -188.1 Z " />
<path stroke="rgb(0,0,0)" stroke-opacity="0.949" fill="rgb(255,255,255)" fill-opacity="1" d="M325 -200 L324.9 -198 L324.7 -196 L324.3 -194.1 L323.7 -192.2 L323 -190.3 L322.2 -188.5 L321.2 -186.8 L320.1 -185.1 L318.9 -183.6 L317.5 -182.1 L316 -180.8 L314.5 -179.6 L312.8 -178.5 L311 -177.6 L309.2 -176.8 L307.3 -176.1 L305.4 -175.6 L303.5 -175.2 L301.5 -175 L299.5 -175 L297.5 -175.1 L295.6 -175.4 L293.6 -175.8 L291.7 -176.4 L289.9 -177.1 L288.1 -178 L286.4 -179 L284.7 -180.2 L283.2 -181.5 L281.8 -182.9 L280.5 -184.4 L279.3 -186 L278.3 -187.6 L277.4 -189.4 L276.6 -191.2 L276 -193.1 L275.5 -195.1 L275.2 -197 L275 -199 L275 -201 L275.2 -203 L275.5 -204.9 L276 -206.9 L276.6 -208.8 L277.4 -210.6 L278.3 -212.4 L279.3 -214 L280.5 -215.6 L281.8 -217.1 L283.2 -218.5 L284.7 -219.8 L286.4 -221 L288.1 -222 L289.9 -222.9 L291.7 -223.6 L293.6 -224.2 L295.6 -224.6 L297.5 -224.9 L299.5 -225 L301.5 -225 L303.5 -224.8 L305.4 -224.4 L307.3 -223.9 L309.2 -223.2 L311 -222.4 L312.8 -221.5 L314.5 -220.4 L316 -219.2 L317.5 -217.9 L318.9 -216.4 L320.1 -214.9 L321.2 -213.2 L322.2 -211.5 L323 -209.7 L323.7 -207.8 L324.3 -205.9 L324.7 -204 L324.9 -202 L325 -200 Z " />
<path stroke="rgb(0,0,0)" stroke-opacity="1" fill="rgb(255,255,255)" fill-opacity="1" d="M-312.6 -87.9 L-312.6 -88.9 L-312.6 -89.9 L-312.6 -90.9 L-312.6 -91.89 L-312.6 -92.89 L-312.6 -93.89 L-312.6 -94.89 L-312.6 -95.89 L-312.6 -96.89 L-312.6 -97.89 L-312.6 -98.89 L-312.6 -99.89 L-312.6 -100.9 L-312.6 -101.9 L-312.6 -102.9 L-312.6 -103.9 L-312.6 -104.9 L-312.6 -105.9 L-312.6 -106.9 L-312.6 -107.9 L-312.6 -108.9 L-312.6 -109.9 L-312.6 -110.9 L-312.6 -111.9 L-312.6 -112.9 L-311.6 -112.9 L-310.6 -112.9 L-309.6 -112.9 L-308.6 -112.9 L-307.6 -112.9 L-306.6 -112.9 L-305.6 -112.9 L-304.6 -112.9 L-303.6 -112.9 L-302.6 -112.9 L-301.6 -112.9 L-300.6 -112.9 L-299.6 -112.9 L-298.6 -112.9 L-297.6 -112.9 L-296.6 -112.9 L-295.6 -112.9 L-294.6 -112.9 L-293.6 -112.9 L-292.6 -112.8 L-291.6 -112.8 L-290.6 -112.8 L-289.6 -112.8 L-288.6 -112.8 L-287.6 -112.8 L-287.6 -111.8 L-287.6 -110.8 L-287.6 -109.8 L-287.6 -108.8 L-287.6 -107.8 L-287.6 -106.8 L-287.6 -105.9 L-287.6 -104.9 L-287.6 -103.9 L-287.6 -102.9 L-287.6 -101.9 L-287.6 -100.9 L-287.6 -99.86 L-287.6 -98.86 L-287.6 -97.86 L-287.6 -96.86 L-287.6 -95.86 L-287.6 -94.86 L-287.6 -93.86 L-287.6 -92.86 L-287.6 -91.86 L-287.6 -90.86 L-287.6 -89.86 L-287.6 -88.87 L-287.7 -87.87 L-288.7 -87.87 L-289.6 -87.87 L-290.6 -87.87 L-291.6 -87.87 L-292.6 -87.87 L-293.6 -87.87 L-294.6 -87.88 L-295.6 -87.88 L-296.6 -87.88 L-297.6 -87.88 L-298.6 -87.88 L-299.6 -87.88 L-300.6 -87.88 L-301.6 -87.88 L-302.6 -87.89 L-303.6 -87.89 L-304.6 -87.89 L-305.6 -87.89 L-306.6 -87.89 L-307.6 -87.89 L-308.6 -87.89 L-309.6 -87.89 L-310.6 -87.9 L-311.6 -87.9 L-312.6 -87.9 Z " />
<path stroke="rgb(0,0,0)" stroke-opacity="0.949" fill="rgb(255,255,255)" fill-opacity="1" d="M-175 -100 L-175.1 -98.01 L-175.3 -96.04 L-175.7 -94.09 L-176.3 -92.18 L-177 -90.32 L-177.8 -88.52 L-178.8 -86.79 L-179.9 -85.14 L-181.1 -83.59 L-182.5 -82.15 L-184 -80.81 L-185.5 -79.6 L-187.2 -78.52 L-189 -77.57 L-190.8 -76.76 L-192.7 -76.1 L-194.6 -75.6 L-196.5 -75.24 L-198.5 -75.04 L-200.5 -75 L-202.5 -75.12 L-204.4 -75.4 L-206.4 -75.83 L-208.3 -76.41 L-210.1 -77.15 L-211.9 -78.03 L-213.6 -79.04 L-215.3 -80.19 L-216.8 -81.47 L-218.2 -82.86 L-219.5 -84.36 L-220.7 -85.96 L-221.7 -87.64 L-222.6 -89.41 L-223.4 -91.24 L-224 -93.13 L-224.5 -95.06 L-224.8 -97.02 L-225 -99.01 L-225 -101 L-224.8 -103 L-224.5 -104.9 L-224 -106.9 L-223.4 -108.8 L-222.6 -110.6 L-221.7 -112.4 L-220.7 -114 L-219.5 -115.6 L-218.2 -117.1 L-216.8 -118.5 L-215.3 -119.8 L-213.6 -121 L-211.9 -122 L-210.1 -122.9 L-208.3 -123.6 L-206.4 -124.2 L-204.4 -124.6 L-202.5 -124.9 L-200.5 -125 L-198.5 -125 L-196.5 -124.8 L-194.6 -124.4 L-192.7 -123.9 L-190.8 -123.2 L-189 -122.4 L-187.2 -121.5 L-185.5 -120.4 L-184 -119.2 L-182.5 -117.9 L-181.1 -116.4 L-179.9 -114.9 L-178.8 -113.2 L-177.8 -111.5 L-177 -109.7 L-176.3 -107.8 L-175.7 -105.9 L-175.3 -104 L-175.1 -102 L-175 -100 Z " />
<path stroke="rgb(0,0,0)" stroke-opacity="1" fill="rgb(255,255,255)" fill-opacity="1" d="M-112.6 -87.9 L-112.6 -88.9 L-112.6 -89.9 L-112.6 -90.9 L-112.6 -91.89 L-112.6 -92.89 L-112.6 -93.89 L-112.6 -94.89 L-112.6 -95.89 L-112.6 -96.89 L-112.6 -97.89 L-112.6 -98.89 L-112.6 -99.89 L-112.6 -100.9 L-112.6 -101.9 L-112.6 -102.9 L-112.6 -103.9 L-112.6 -104.9 L-112.6 -105.9 L-112.6 -106.9 L-112.6 -107.9 L-112.6 -108.9 L-112.6 -109.9 L-112.6 -110.9 L-112.6 -111.9 L-112.6 -112.9 L-111.6 -112.9 L-110.6 -112.9 L-109.6 -112.9 L-108.6 -112.9 L-107.6 -112.9 L-106.6 -112.9 L-105.6 -112.9 L-104.6 -112.9 L-103.6 -112.9 L-102.6 -112.9 L-101.6 -112.9 L-100.6 -112.9 L-99.61 -112.9 L-98.61 -112.9 L-97.61 -112.9 L-96.61 -112.9 L-95.61 -112.9 L-94.61 -112.9 L-93.61 -112.9 L-92.61 -112.8 L-91.62 -112.8 L-90.62 -112.8 L-89.62 -112.8 L-88.62 -112.8 L-87.62 -112.8 L-87.62 -111.8 L-87.62 -110.8 L-87.62 -109.8 L-87.62 -108.8 L-87.63 -107.8 L-87.63 -106.8 L-87.63 -105.9 L-87.63 -104.9 L-87.63 -103.9 L-87.63 -102.9 L-87.63 -101.9 L-87.63 -100.9 L-87.64 -99.86 L-87.64 -98.86 L-87.64 -97.86 L-87.64 -96.86 L-87.64 -95.86 L-87.64 -94.86 L-87.64 -93.86 L-87.64 -92.86 L-87.65 -91.86 L-87.65 -90.86 L-87.65 -89.86 L-87.65 -88.87 L-87.65 -87.87 L-88.65 -87.87 L-89.65 -87.87 L-90.65 -87.87 L-91.65 -87.87 L-92.65 -87.87 L-93.65 -87.87 L-94.64 -87.88 L-95.64 -87.88 L-96.64 -87.88 L-97.64 -87.88 L-98.64 -87.88 L-99.64 -87.88 L-100.6 -87.88 L-101.6 -87.88 L-102.6 -87.89 L-103.6 -87.89 L-104.6 -87.89 L-105.6 -87.89 L-106.6 -87.89 L-107.6 -87.89 L-108.6 -87.89 L-109.6 -87.89 L-110.6 -87.9 L-111.6 -87.9 L-112.6 -87.9 Z " />
<path stroke="rgb(0,0,0)" stroke-opacity="0.949" fill="rgb(255,255,255)" fill-opacity="1" d="M25 -100 L24.92 -98.01 L24.68 -96.04 L24.29 -94.09 L23.75 -92.18 L23.05 -90.32 L22.21 -88.52 L21.22 -86.79 L20.11 -85.14 L18.86 -83.59 L17.5 -82.15 L16.03 -80.81 L14.45 -79.6 L12.79 -78.52 L11.04 -77.57 L9.222 -76.76 L7.346 -76.1 L5.424 -75.6 L3.468 -75.24 L1.49 -75.04 L-0.4971 -75 L-2.481 -75.12 L-4.45 -75.4 L-6.39 -75.83 L-8.29 -76.41 L-10.14 -77.15 L-11.92 -78.03 L-13.63 -79.04 L-15.25 -80.19 L-16.78 -81.47 L-18.2 -82.86 L-19.5 -84.36 L-20.68 -85.96 L-21.73 -87.64 L-22.65 -89.41 L-23.42 -91.24 L-24.04 -93.13 L-24.51 -95.06 L-24.82 -97.02 L-24.98 -99.01 L-24.98 -101 L-24.82 -103 L-24.51 -104.9 L-24.04 -106.9 L-23.42 -108.8 L-22.65 -110.6 L-21.73 -112.4 L-20.68 -114 L-19.5 -115.6 L-18.2 -117.1 L-16.78 -118.5 L-15.25 -119.8 L-13.63 -121 L-11.92 -122 L-10.14 -122.9 L-8.29 -123.6 L-6.39 -124.2 L-4.45 -124.6 L-2.481 -124.9 L-0.4971 -125 L1.49 -125 L3.468 -124.8 L5.424 -124.4 L7.346 -123.9 L9.222 -123.2 L11.04 -122.4 L12.79 -121.5 L14.45 -120.4 L16.03 -119.2 L17.5 -117.9 L18.86 -116.4 L20.11 -114.9 L21.22 -113.2 L22.21 -111.5 L23.05 -109.7 L23.75 -107.8 L24.29 -105.9 L24.68 -104 L24.92 -102 L25 -100 Z " />
<path stroke="rgb(0,0,0)" stroke-opacity="1" fill="rgb(255,255,255)" fill-opacity="1" d="M86.99 -88.05 L87.01 -89.06 L87.03 -90.07 L87.06 -91.08 L87.08 -92.09 L87.1 -93.1 L87.12 -94.1 L87.15 -95.11 L87.17 -96.12 L87.19 -97.13 L87.22 -98.14 L87.24 -99.15 L87.26 -100.2 L87.29 -101.2 L87.31 -102.2 L87.33 -103.2 L87.36 -104.2 L87.38 -105.2 L87.4 -106.2 L87.43 -107.2 L87.45 -108.2 L87.47 -109.2 L87.49 -110.2 L87.52 -111.2 L87.54 -112.3 L87.56 -113.3 L88.57 -113.2 L89.58 -113.2 L90.59 -113.2 L91.6 -113.2 L92.61 -113.1 L93.61 -113.1 L94.62 -113.1 L95.63 -113.1 L96.64 -113.1 L97.65 -113 L98.66 -113 L99.67 -113 L100.7 -113 L101.7 -112.9 L102.7 -112.9 L103.7 -112.9 L104.7 -112.9 L105.7 -112.8 L106.7 -112.8 L107.7 -112.8 L108.7 -112.8 L109.7 -112.8 L110.8 -112.7 L111.8 -112.7 L112.8 -112.7 L112.8 -111.7 L112.7 -110.7 L112.7 -109.7 L112.7 -108.7 L112.7 -107.6 L112.6 -106.6 L112.6 -105.6 L112.6 -104.6 L112.6 -103.6 L112.5 -102.6 L112.5 -101.6 L112.5 -100.6 L112.5 -99.58 L112.5 -98.57 L112.4 -97.56 L112.4 -96.55 L112.4 -95.54 L112.4 -94.53 L112.3 -93.53 L112.3 -92.52 L112.3 -91.51 L112.3 -90.5 L112.2 -89.49 L112.2 -88.48 L112.2 -87.47 L111.2 -87.5 L110.2 -87.52 L109.2 -87.54 L108.2 -87.57 L107.2 -87.59 L106.1 -87.61 L105.1 -87.64 L104.1 -87.66 L103.1 -87.68 L102.1 -87.71 L101.1 -87.73 L100.1 -87.75 L99.09 -87.78 L98.08 -87.8 L97.07 -87.82 L96.06 -87.85 L95.05 -87.87 L94.04 -87.89 L93.04 -87.91 L92.03 -87.94 L91.02 -87.96 L90.01 -87.98 L89 -88.01 L87.99 -88.03 L86.99 -88.05 Z " />
<path stroke="rgb(0,0,0)" stroke-opacity="0.949" fill="rgb(255,255,255)" fill-opacity="1" d="M225 -100 L224.9 -98.01 L224.7 -96.04 L224.3 -94.09 L223.7 -92.18 L223 -90.32 L222.2 -88.52 L221.2 -86.79 L220.1 -85.14 L218.9 -83.59 L217.5 -82.15 L216 -80.81 L214.5 -79.6 L212.8 -78.52 L211 -77.57 L209.2 -76.76 L207.3 -76.1 L205.4 -75.6 L203.5 -75.24 L201.5 -75.04 L199.5 -75 L197.5 -75.12 L195.6 -75.4 L193.6 -75.83 L191.7 -76.41 L189.9 -77.15 L188.1 -78.03 L186.4 -79.04 L184.7 -80.19 L183.2 -81.47 L181.8 -82.86 L180.5 -84.36 L179.3 -85.96 L178.3 -87.64 L177.4 -89.41 L176.6 -91.24 L176 -93.13 L175.5 -95.06 L175.2 -97.02 L175 -99.01 L175 -101 L175.2 -103 L175.5 -104.9 L176 -106.9 L176.6 -108.8 L177.4 -110.6 L178.3 -112.4 L179.3 -114 L180.5 -115.6 L181.8 -117.1 L183.2 -118.5 L184.7 -119.8 L186.4 -121 L188.1 -122 L189.9 -122.9 L191.7 -123.6 L193.6 -124.2 L195.6 -124.6 L197.5 -124.9 L199.5 -125 L201.5 -125 L203.5 -124.8 L205.4 -124.4 L207.3 -123.9 L209.2 -123.2 L211 -122.4 L212.8 -121.5 L214.5 -120.4 L216 -119.2 L217.5 -117.9 L218.9 -116.4 L220.1 -114.9 L221.2 -113.2 L222.2 -111.5 L223 -109.7 L223.7 -107.8 L224.3 -105.9 L224.7 -104 L224.9 -102 L225 -100 Z " />
<path stroke="rgb(0,0,0)" stroke-opacity="1" fill="rgb(255,255,255)" fill-opacity="1" d="M283.2 -90.09 L283.5 -91.17 L283.8 -92.24 L284 -93.32 L284.3 -94.4 L284.5 -95.47 L284.8 -96.55 L285 -97.63 L285.3 -98.71 L285.6 -99.78 L285.8 -100.9 L286.1 -101.9 L286.3 -103 L286.6 -104.1 L286.8 -105.2 L287.1 -106.2 L287.4 -107.3 L287.6 -108.4 L287.9 -109.5 L288.1 -110.6 L288.4 -111.6 L288.6 -112.7 L288.9 -113.8 L289.1 -114.9 L289.4 -115.9 L289.7 -117 L290.7 -116.8 L291.8 -116.5 L292.9 -116.2 L294 -116 L295 -115.7 L296.1 -115.5 L297.2 -115.2 L298.3 -115 L299.4 -114.7 L300.4 -114.5 L301.5 -114.2 L302.6 -113.9 L303.7 -113.7 L304.7 -113.4 L305.8 -113.2 L306.9 -112.9 L308 -112.7 L309 -112.4 L310.1 -112.1 L311.2 -111.9 L312.3 -111.6 L313.4 -111.4 L314.4 -111.1 L315.5 -110.9 L316.6 -110.6 L316.3 -109.5 L316.1 -108.5 L315.8 -107.4 L315.6 -106.3 L315.3 -105.2 L315 -104.1 L314.8 -103.1 L314.5 -102 L314.3 -100.9 L314 -99.84 L313.8 -98.76 L313.5 -97.68 L313.3 -96.61 L313 -95.53 L312.7 -94.45 L312.5 -93.37 L312.2 -92.3 L312 -91.22 L311.7 -90.14 L311.5 -89.07 L311.2 -87.99 L310.9 -86.91 L310.7 -85.84 L310.4 -84.76 L310.2 -83.68 L309.1 -83.94 L308 -84.19 L306.9 -84.45 L305.9 -84.71 L304.8 -84.96 L303.7 -85.22 L302.6 -85.48 L301.6 -85.73 L300.5 -85.99 L299.4 -86.24 L298.3 -86.5 L297.3 -86.76 L296.2 -87.01 L295.1 -87.27 L294 -87.53 L292.9 -87.78 L291.9 -88.04 L290.8 -88.29 L289.7 -88.55 L288.6 -88.81 L287.6 -89.06 L286.5 -89.32 L285.4 -89.58 L284.3 -89.83 L283.2 -90.09 Z " />
<path stroke="rgb(0,0,0)" stroke-opacity="0.949" fill="rgb(255,255,255)" fill-opacity="1" d="M-275 0 L-275.1 1.986 L-275.3 3.96 L-275.7 5.909 L-276.3 7.82 L-277 9.682 L-277.8 11.48 L-278.8 13.21 L-279.9 14.86 L-281.1 16.41 L-282.5 17.85 L-284 19.19 L-285.5 20.4 L-287.2 21.48 L-289 22.43 L-290.8 23.24 L-292.7 23.9 L-294.6 24.4 L-296.5 24.76 L-298.5 24.96 L-300.5 25 L-302.5 24.88 L-304.4 24.6 L-306.4 24.17 L-308.3 23.59 L-310.1 22.85 L-311.9 21.97 L-313.6 20.96 L-315.3 19.81 L-316.8 18.53 L-318.2 17.14 L-319.5 15.64 L-320.7 14.04 L-321.7 12.36 L-322.6 10.59 L-323.4 8.758 L-324 6.87 L-324.5 4.938 L-324.8 2.975 L-325 0.9939 L-325 -0.9939 L-324.8 -2.975 L-324.5 -4.938 L-324 -6.87 L-323.4 -8.758 L-322.6 -10.59 L-321.7 -12.36 L-320.7 -14.04 L-319.5 -15.64 L-318.2 -17.14 L-316.8 -18.53 L-315.3 -19.81 L-313.6 -20.96 L-311.9 -21.97 L-310.1 -22.85 L-308.3 -23.59 L-306.4 -24.17 L-304.4 -24.6 L-302.5 -24.88 L-300.5 -25 L-298.5 -24.96 L-296.5 -24.76 L-294.6 -24.4 L-292.7 -23.9 L-290.8 -23.24 L-289 -22.43 L-287.2 -21.48 L-285.5 -20.4 L-284 -19.19 L-282.5 -17.85 L-281.1 -16.41 L-279.9 -14.86 L-278.8 -13.21 L-277.8 -11.48 L-277 -9.682 L-276.3 -7.82 L-275.7 -5.909 L-275.3 -3.96 L-275.1 -1.986 L-275 0 Z " />
<path stroke="rgb(0,0,0)" stroke-opacity="1" fill="rgb(255,255,255)" fill-opacity="1" d="M-212.6 12.1 L-212.6 11.1 L-212.6 10.1 L-212.6 9.104 L-212.6 8.105 L-212.6 7.106 L-212.6 6.107 L-212.6 5.108 L-212.6 4.109 L-212.6 3.11 L-212.6 2.111 L-212.6 1.112 L-212.6 0.1127 L-212.6 -0.8864 L-212.6 -1.885 L-212.6 -2.885 L-212.6 -3.884 L-212.6 -4.883 L-212.6 -5.882 L-212.6 -6.881 L-212.6 -7.88 L-212.6 -8.879 L-212.6 -9.878 L-212.6 -10.88 L-212.6 -11.88 L-212.6 -12.88 L-211.6 -12.87 L-210.6 -12.87 L-209.6 -12.87 L-208.6 -12.87 L-207.6 -12.87 L-206.6 -12.87 L-205.6 -12.87 L-204.6 -12.87 L-203.6 -12.86 L-202.6 -12.86 L-201.6 -12.86 L-200.6 -12.86 L-199.6 -12.86 L-198.6 -12.86 L-197.6 -12.86 L-196.6 -12.86 L-195.6 -12.85 L-194.6 -12.85 L-193.6 -12.85 L-192.6 -12.85 L-191.6 -12.85 L-190.6 -12.85 L-189.6 -12.85 L-188.6 -12.84 L-187.6 -12.84 L-187.6 -11.84 L-187.6 -10.85 L-187.6 -9.846 L-187.6 -8.847 L-187.6 -7.848 L-187.6 -6.849 L-187.6 -5.85 L-187.6 -4.851 L-187.6 -3.852 L-187.6 -2.853 L-187.6 -1.854 L-187.6 -0.8547 L-187.6 0.1443 L-187.6 1.143 L-187.6 2.142 L-187.6 3.142 L-187.6 4.141 L-187.6 5.14 L-187.6 6.139 L-187.6 7.138 L-187.6 8.137 L-187.6 9.136 L-187.6 10.14 L-187.6 11.13 L-187.7 12.13 L-188.7 12.13 L-189.6 12.13 L-190.6 12.13 L-191.6 12.13 L-192.6 12.13 L-193.6 12.13 L-194.6 12.12 L-195.6 12.12 L-196.6 12.12 L-197.6 12.12 L-198.6 12.12 L-199.6 12.12 L-200.6 12.12 L-201.6 12.12 L-202.6 12.11 L-203.6 12.11 L-204.6 12.11 L-205.6 12.11 L-206.6 12.11 L-207.6 12.11 L-208.6 12.11 L-209.6 12.11 L-210.6 12.1 L-211.6 12.1 L-212.6 12.1 Z " />
<path stroke="rgb(0,0,0)" stroke-opacity="0.949" fill="rgb(255,255,255)" fill-opacity="1" d="M-75 0 L-75.08 1.986 L-75.32 3.96 L-75.71 5.909 L-76.25 7.82 L-76.95 9.682 L-77.79 11.48 L-78.78 13.21 L-79.89 14.86 L-81.14 16.41 L-82.5 17.85 L-83.97 19.19 L-85.55 20.4 L-87.21 21.48 L-88.96 22.43 L-90.78 23.24 L-92.65 23.9 L-94.58 24.4 L-96.53 24.76 L-98.51 24.96 L-100.5 25 L-102.5 24.88 L-104.4 24.6 L-106.4 24.17 L-108.3 23.59 L-110.1 22.85 L-111.9 21.97 L-113.6 20.96 L-115.3 19.81 L-116.8 18.53 L-118.2 17.14 L-119.5 15.64 L-120.7 14.04 L-121.7 12.36 L-122.6 10.59 L-123.4 8.758 L-124 6.87 L-124.5 4.938 L-124.8 2.975 L-125 0.9939 L-125 -0.9939 L-124.8 -2.975 L-124.5 -4.938 L-124 -6.87 L-123.4 -8.758 L-122.6 -10.59 L-121.7 -12.36 L-120.7 -14.04 L-119.5 -15.64 L-118.2 -17.14 L-116.8 -18.53 L-115.3 -19.81 L-113.6 -20.96 L-111.9 -21.97 L-110.1 -22.85 L-108.3 -23.59 L-106.4 -24.17 L-104.4 -24.6 L-102.5 -24.88 L-100.5 -25 L-98.51 -24.96 L-96.53 -24.76 L-94.58 -24.4 L-92.65 -23.9 L-90.78 -23.24 L-88.96 -22.43 L-87.21 -21.48 L-85.55 -20.4 L-83.97 -19.19 L-82.5 -17.85 L-81.14 -16.41 L-79.89 -14.86 L-78.78 -13.21 L-77.79 -11.48 L-76.95 -9.682 L-76.25 -7.82 L-75.71 -5.909 L-75.32 -3.96 L-75.08 -1.986 L-75 0 Z " />
<path stroke="rgb(0,0,0)" stroke-opacity="1" fill="rgb(255,255,255)" fill-opacity="1" d="M-13.01 11.95 L-12.99 10.94 L-12.97 9.93 L-12.94 8.922 L-12.92 7.913 L-12.9 6.905 L-12.88 5.896 L-12.85 4.888 L-12.83 3.879 L-12.81 2.871 L-12.78 1.862 L-12.76 0.8541 L-12.74 -0.1544 L-12.71 -1.163 L-12.69 -2.171 L-12.67 -3.18 L-12.64 -4.188 L-12.62 -5.197 L-12.6 -6.205 L-12.57 -7.213 L-12.55 -8.222 L-12.53 -9.23 L-12.51 -10.24 L-12.48 -11.25 L-12.46 -12.26 L-12.44 -13.26 L-11.43 -13.24 L-10.42 -13.22 L-9.411 -13.19 L-8.402 -13.17 L-7.394 -13.15 L-6.386 -13.13 L-5.377 -13.1 L-4.369 -13.08 L-3.36 -13.06 L-2.352 -13.03 L-1.343 -13.01 L-0.335 -12.99 L0.6735 -12.96 L1.682 -12.94 L2.69 -12.92 L3.699 -12.89 L4.707 -12.87 L5.716 -12.85 L6.724 -12.82 L7.732 -12.8 L8.741 -12.78 L9.749 -12.76 L10.76 -12.73 L11.77 -12.71 L12.77 -12.69 L12.75 -11.68 L12.73 -10.67 L12.71 -9.66 L12.68 -8.652 L12.66 -7.644 L12.64 -6.635 L12.61 -5.627 L12.59 -4.618 L12.57 -3.61 L12.54 -2.601 L12.52 -1.593 L12.5 -0.5846 L12.47 0.4239 L12.45 1.432 L12.43 2.441 L12.4 3.449 L12.38 4.458 L12.36 5.466 L12.34 6.474 L12.31 7.483 L12.29 8.491 L12.27 9.5 L12.24 10.51 L12.22 11.52 L12.2 12.53 L11.19 12.5 L10.18 12.48 L9.171 12.46 L8.163 12.43 L7.154 12.41 L6.146 12.39 L5.137 12.36 L4.129 12.34 L3.121 12.32 L2.112 12.29 L1.104 12.27 L0.09524 12.25 L-0.9132 12.22 L-1.922 12.2 L-2.93 12.18 L-3.938 12.15 L-4.947 12.13 L-5.955 12.11 L-6.964 12.09 L-7.972 12.06 L-8.981 12.04 L-9.989 12.02 L-11 11.99 L-12.01 11.97 L-13.01 11.95 Z " />
<path stroke="rgb(0,0,0)" stroke-opacity="0.949" fill="rgb(255,255,255)" fill-opacity="1" d="M125 0 L124.9 1.986 L124.7 3.96 L124.3 5.909 L123.7 7.82 L123 9.682 L122.2 11.48 L121.2 13.21 L120.1 14.86 L118.9 16.41 L117.5 17.85 L116 19.19 L114.5 20.4 L112.8 21.48 L111 22.43 L109.2 23.24 L107.3 23.9 L105.4 24.4 L103.5 24.76 L101.5 24.96 L99.5 25 L97.52 24.88 L95.55 24.6 L93.61 24.17 L91.71 23.59 L89.86 22.85 L88.08 21.97 L86.37 20.96 L84.75 19.81 L83.22 18.53 L81.8 17.14 L80.5 15.64 L79.32 14.04 L78.27 12.36 L77.35 10.59 L76.58 8.758 L75.96 6.87 L75.49 4.938 L75.18 2.975 L75.02 0.9939 L75.02 -0.9939 L75.18 -2.975 L75.49 -4.938 L75.96 -6.87 L76.58 -8.758 L77.35 -10.59 L78.27 -12.36 L79.32 -14.04 L80.5 -15.64 L81.8 -17.14 L83.22 -18.53 L84.75 -19.81 L86.37 -20.96 L88.08 -21.97 L89.86 -22.85 L91.71 -23.59 L93.61 -24.17 L95.55 -24.6 L97.52 -24.88 L99.5 -25 L101.5 -24.96 L103.5 -24.76 L105.4 -24.4 L107.3 -23.9 L109.2 -23.24 L111 -22.43 L112.8 -21.48 L114.5 -20.4 L116 -19.19 L117.5 -17.85 L118.9 -16.41 L120.1 -14.86 L121.2 -13.21 L122.2 -11.48 L123 -9.682 L123.7 -7.82 L124.3 -5.909 L124.7 -3.96 L124.9 -1.986 L125 0 Z " />
<path stroke="rgb(0,0,0)" stroke-opacity="1" fill="rgb(255,255,255)" fill-opacity="1" d="M183.2 9.911 L183.5 8.834 L183.8 7.756 L184 6.679 L184.3 5.602 L184.5 4.525 L184.8 3.448 L185 2.371 L185.3 1.294 L185.6 0.2166 L185.8 -0.8606 L186.1 -1.938 L186.3 -3.015 L186.6 -4.092 L186.8 -5.169 L187.1 -6.246 L187.4 -7.323 L187.6 -8.4 L187.9 -9.478 L188.1 -10.55 L188.4 -11.63 L188.6 -12.71 L188.9 -13.79 L189.1 -14.86 L189.4 -15.94 L189.7 -17.02 L190.7 -16.76 L191.8 -16.5 L192.9 -16.25 L194 -15.99 L195 -15.74 L196.1 -15.48 L197.2 -15.22 L198.3 -14.97 L199.4 -14.71 L200.4 -14.45 L201.5 -14.2 L202.6 -13.94 L203.7 -13.68 L204.7 -13.43 L205.8 -13.17 L206.9 -12.92 L208 -12.66 L209 -12.4 L210.1 -12.15 L211.2 -11.89 L212.3 -11.63 L213.4 -11.38 L214.4 -11.12 L215.5 -10.87 L216.6 -10.61 L216.3 -9.532 L216.1 -8.455 L215.8 -7.377 L215.6 -6.3 L215.3 -5.223 L215 -4.146 L214.8 -3.069 L214.5 -1.992 L214.3 -0.9148 L214 0.1624 L213.8 1.239 L213.5 2.317 L213.3 3.394 L213 4.471 L212.7 5.548 L212.5 6.625 L212.2 7.702 L212 8.779 L211.7 9.856 L211.5 10.93 L211.2 12.01 L210.9 13.09 L210.7 14.16 L210.4 15.24 L210.2 16.32 L209.1 16.06 L208 15.81 L206.9 15.55 L205.9 15.29 L204.8 15.04 L203.7 14.78 L202.6 14.52 L201.6 14.27 L200.5 14.01 L199.4 13.76 L198.3 13.5 L197.3 13.24 L196.2 12.99 L195.1 12.73 L194 12.47 L192.9 12.22 L191.9 11.96 L190.8 11.71 L189.7 11.45 L188.6 11.19 L187.6 10.94 L186.5 10.68 L185.4 10.42 L184.3 10.17 L183.2 9.911 Z " />
<path stroke="rgb(0,0,0)" stroke-opacity="0.949" fill="rgb(255,255,255)" fill-opacity="1" d="M325 0 L324.9 1.986 L324.7 3.96 L324.3 5.909 L323.7 7.82 L323 9.682 L322.2 11.48 L321.2 13.21 L320.1 14.86 L318.9 16.41 L317.5 17.85 L316 19.19 L314.5 20.4 L312.8 21.48 L311 22.43 L309.2 23.24 L307.3 23.9 L305.4 24.4 L303.5 24.76 L301.5 24.96 L299.5 25 L297.5 24.88 L295.6 24.6 L293.6 24.17 L291.7 23.59 L289.9 22.85 L288.1 21.97 L286.4 20.96 L284.7 19.81 L283.2 18.53 L281.8 17.14 L280.5 15.64 L279.3 14.04 L278.3 12.36 L277.4 10.59 L276.6 8.758 L276 6.87 L275.5 4.938 L275.2 2.975 L275 0.9939 L275 -0.9939 L275.2 -2.975 L275.5 -4.938 L276 -6.87 L276.6 -8.758 L277.4 -10.59 L278.3 -12.36 L279.3 -14.04 L280.5 -15.64 L281.8 -17.14 L283.2 -18.53 L284.7 -19.81 L286.4 -20.96 L288.1 -21.97 L289.9 -22.85 L291.7 -23.59 L293.6 -24.17 L295.6 -24.6 L297.5 -24.88 L299.5 -25 L301.5 -24.96 L303.5 -24.76 L305.4 -24.4 L307.3 -23.9 L309.2 -23.24 L311 -22.43 L312.8 -21.48 L314.5 -20.4 L316 -19.19 L317.5 -17.85 L318.9 -16.41 L320.1 -14.86 L321.2 -13.21 L322.2 -11.48 L323 -9.682 L323.7 -7.82 L324.3 -5.909 L324.7 -3.96 L324.9 -1.986 L325 0 Z " />
<path stroke="rgb(0,0,0)" stroke-opacity="1" fill="rgb(255,255,255)" fill-opacity="1" d="M-312.6 112.1 L-312.6 111.1 L-312.6 110.1 L-312.6 109.1 L-312.6 108.1 L-312.6 107.1 L-312.6 106.1 L-312.6 105.1 L-312.6 104.1 L-312.6 103.1 L-312.6 102.1 L-312.6 101.1 L-312.6 100.1 L-312.6 99.11 L-312.6 98.11 L-312.6 97.12 L-312.6 96.12 L-312.6 95.12 L-312.6 94.12 L-312.6 93.12 L-312.6 92.12 L-312.6 91.12 L-312.6 90.12 L-312.6 89.12 L-312.6 88.12 L-312.6 87.12 L-311.6 87.13 L-310.6 87.13 L-309.6 87.13 L-308.6 87.13 L-307.6 87.13 L-306.6 87.13 L-305.6 87.13 L-304.6 87.13 L-303.6 87.14 L-302.6 87.14 L-301.6 87.14 L-300.6 87.14 L-299.6 87.14 L-298.6 87.14 L-297.6 87.14 L-296.6 87.14 L-295.6 87.15 L-294.6 87.15 L-293.6 87.15 L-292.6 87.15 L-291.6 87.15 L-290.6 87.15 L-289.6 87.15 L-288.6 87.16 L-287.6 87.16 L-287.6 88.16 L-287.6 89.15 L-287.6 90.15 L-287.6 91.15 L-287.6 92.15 L-287.6 93.15 L-287.6 94.15 L-287.6 95.15 L-287.6 96.15 L-287.6 97.15 L-287.6 98.15 L-287.6 99.15 L-287.6 100.1 L-287.6 101.1 L-287.6 102.1 L-287.6 103.1 L-287.6 104.1 L-287.6 105.1 L-287.6 106.1 L-287.6 107.1 L-287.6 108.1 L-287.6 109.1 L-287.6 110.1 L-287.6 111.1 L-287.7 112.1 L-288.7 112.1 L-289.6 112.1 L-290.6 112.1 L-291.6 112.1 L-292.6 112.1 L-293.6 112.1 L-294.6 112.1 L-295.6 112.1 L-296.6 112.1 L-297.6 112.1 L-298.6 112.1 L-299.6 112.1 L-300.6 112.1 L-301.6 112.1 L-302.6 112.1 L-303.6 112.1 L-304.6 112.1 L-305.6 112.1 L-306.6 112.1 L-307.6 112.1 L-308.6 112.1 L-309.6 112.1 L-310.6 112.1 L-311.6 112.1 L-312.6 112.1 Z " />
<path stroke="rgb(0,0,0)" stroke-opacity="0.949" fill="rgb(255,255,255)" fill-opacity="1" d="M-175 100 L-175.1 102 L-175.3 104 L-175.7 105.9 L-176.3 107.8 L-177 109.7 L-177.8 111.5 L-178.8 113.2 L-179.9 114.9 L-181.1 116.4 L-182.5 117.9 L-184 119.2 L-185.5 120.4 L-187.2 121.5 L-189 122.4 L-190.8 123.2 L-192.7 123.9 L-194.6 124.4 L-196.5 124.8 L-198.5 125 L-200.5 125 L-202.5 124.9 L-204.4 124.6 L-206.4 124.2 L-208.3 123.6 L-210.1 122.9 L-211.9 122 L-213.6 121 L-215.3 119.8 L-216.8 118.5 L-218.2 117.1 L-219.5 115.6 L-220.7 114 L-221.7 112.4 L-222.6 110.6 L-223.4 108.8 L-224 106.9 L-224.5 104.9 L-224.8 103 L-225 101 L-225 99.01 L-224.8 97.02 L-224.5 95.06 L-224 93.13 L-223.4 91.24 L-222.6 89.41 L-221.7 87.64 L-220.7 85.96 L-219.5 84.36 L-218.2 82.86 L-216.8 81.47 L-215.3 80.19 L-213.6 79.04 L-211.9 78.03 L-210.1 77.15 L-208.3 76.41 L-206.4 75.83 L-204.4 75.4 L-202.5 75.12 L-200.5 75 L-198.5 75.04 L-196.5 75.24 L-194.6 75.6 L-192.7 76.1 L-190.8 76.76 L-189 77.57 L-187.2 78.52 L-185.5 79.6 L-184 80.81 L-182.5 82.15 L-181.1 83.59 L-179.9 85.14 L-178.8 86.79 L-177.8 88.52 L-177 90.32 L-176.3 92.18 L-175.7 94.09 L-175.3 96.04 L-175.1 98.01 L-175 100 Z " />
<path stroke="rgb(0,0,0)" stroke-opacity="1" fill="rgb(255,255,255)" fill-opacity="1" d="M-113 111.9 L-113 110.9 L-113 109.9 L-112.9 108.9 L-112.9 107.9 L-112.9 106.9 L-112.9 105.9 L-112.9 104.9 L-112.8 103.9 L-112.8 102.9 L-112.8 101.9 L-112.8 100.9 L-112.7 99.85 L-112.7 98.84 L-112.7 97.83 L-112.7 96.82 L-112.6 95.81 L-112.6 94.8 L-112.6 93.8 L-112.6 92.79 L-112.6 91.78 L-112.5 90.77 L-112.5 89.76 L-112.5 88.75 L-112.5 87.74 L-112.4 86.74 L-111.4 86.76 L-110.4 86.78 L-109.4 86.81 L-108.4 86.83 L-107.4 86.85 L-106.4 86.87 L-105.4 86.9 L-104.4 86.92 L-103.4 86.94 L-102.4 86.97 L-101.3 86.99 L-100.3 87.01 L-99.33 87.04 L-98.32 87.06 L-97.31 87.08 L-96.3 87.11 L-95.29 87.13 L-94.28 87.15 L-93.28 87.18 L-92.27 87.2 L-91.26 87.22 L-90.25 87.24 L-89.24 87.27 L-88.23 87.29 L-87.23 87.31 L-87.25 88.32 L-87.27 89.33 L-87.29 90.34 L-87.32 91.35 L-87.34 92.36 L-87.36 93.36 L-87.39 94.37 L-87.41 95.38 L-87.43 96.39 L-87.46 97.4 L-87.48 98.41 L-87.5 99.42 L-87.53 100.4 L-87.55 101.4 L-87.57 102.4 L-87.6 103.4 L-87.62 104.5 L-87.64 105.5 L-87.66 106.5 L-87.69 107.5 L-87.71 108.5 L-87.73 109.5 L-87.76 110.5 L-87.78 111.5 L-87.8 112.5 L-88.81 112.5 L-89.82 112.5 L-90.83 112.5 L-91.84 112.4 L-92.85 112.4 L-93.85 112.4 L-94.86 112.4 L-95.87 112.3 L-96.88 112.3 L-97.89 112.3 L-98.9 112.3 L-99.9 112.2 L-100.9 112.2 L-101.9 112.2 L-102.9 112.2 L-103.9 112.2 L-104.9 112.1 L-106 112.1 L-107 112.1 L-108 112.1 L-109 112 L-110 112 L-111 112 L-112 112 L-113 111.9 Z " />
<path stroke="rgb(0,0,0)" stroke-opacity="0.949" fill="rgb(255,255,255)" fill-opacity="1" d="M25 100 L24.92 102 L24.68 104 L24.29 105.9 L23.75 107.8 L23.05 109.7 L22.21 111.5 L21.22 113.2 L20.11 114.9 L18.86 116.4 L17.5 117.9 L16.03 119.2 L14.45 120.4 L12.79 121.5 L11.04 122.4 L9.222 123.2 L7.346 123.9 L5.424 124.4 L3.468 124.8 L1.49 125 L-0.4971 125 L-2.481 124.9 L-4.45 124.6 L-6.39 124.2 L-8.29 123.6 L-10.14 122.9 L-11.92 122 L-13.63 121 L-15.25 119.8 L-16.78 118.5 L-18.2 117.1 L-19.5 115.6 L-20.68 114 L-21.73 112.4 L-22.65 110.6 L-23.42 108.8 L-24.04 106.9 L-24.51 104.9 L-24.82 103 L-24.98 101 L-24.98 99.01 L-24.82 97.02 L-24.51 95.06 L-24.04 93.13 L-23.42 91.24 L-22.65 89.41 L-21.73 87.64 L-20.68 85.96 L-19.5 84.36 L-18.2 82.86 L-16.78 81.47 L-15.25 80.19 L-13.63 79.04 L-11.92 78.03 L-10.14 77.15 L-8.29 76.41 L-6.39 75.83 L-4.45 75.4 L-2.481 75.12 L-0.4971 75 L1.49 75.04 L3.468 75.24 L5.424 75.6 L7.346 76.1 L9.222 76.76 L11.04 77.57 L12.79 78.52 L14.45 79.6 L16.03 80.81 L17.5 82.15 L18.86 83.59 L20.11 85.14 L21.22 86.79 L22.21 88.52 L23.05 90.32 L23.75 92.18 L24.29 94.09 L24.68 96.04 L24.92 98.01 L25 100 Z " />
<path stroke="rgb(0,0,0)" stroke-opacity="1" fill="rgb(255,255,255)" fill-opacity="1" d="M83.25 109.9 L83.51 108.8 L83.76 107.8 L84.02 106.7 L84.27 105.6 L84.53 104.5 L84.79 103.4 L85.04 102.4 L85.3 101.3 L85.56 100.2 L85.81 99.14 L86.07 98.06 L86.33 96.99 L86.58 95.91 L86.84 94.83 L87.09 93.75 L87.35 92.68 L87.61 91.6 L87.86 90.52 L88.12 89.45 L88.38 88.37 L88.63 87.29 L88.89 86.21 L89.15 85.14 L89.4 84.06 L89.66 82.98 L90.73 83.24 L91.81 83.5 L92.89 83.75 L93.97 84.01 L95.04 84.26 L96.12 84.52 L97.2 84.78 L98.27 85.03 L99.35 85.29 L100.4 85.55 L101.5 85.8 L102.6 86.06 L103.7 86.32 L104.7 86.57 L105.8 86.83 L106.9 87.08 L108 87.34 L109 87.6 L110.1 87.85 L111.2 88.11 L112.3 88.37 L113.4 88.62 L114.4 88.88 L115.5 89.13 L116.6 89.39 L116.3 90.47 L116.1 91.55 L115.8 92.62 L115.6 93.7 L115.3 94.78 L115 95.85 L114.8 96.93 L114.5 98.01 L114.3 99.09 L114 100.2 L113.8 101.2 L113.5 102.3 L113.3 103.4 L113 104.5 L112.7 105.5 L112.5 106.6 L112.2 107.7 L112 108.8 L111.7 109.9 L111.5 110.9 L111.2 112 L110.9 113.1 L110.7 114.2 L110.4 115.2 L110.2 116.3 L109.1 116.1 L108 115.8 L106.9 115.6 L105.9 115.3 L104.8 115 L103.7 114.8 L102.6 114.5 L101.6 114.3 L100.5 114 L99.41 113.8 L98.33 113.5 L97.25 113.2 L96.17 113 L95.1 112.7 L94.02 112.5 L92.94 112.2 L91.87 112 L90.79 111.7 L89.71 111.4 L88.63 111.2 L87.56 110.9 L86.48 110.7 L85.4 110.4 L84.33 110.2 L83.25 109.9 Z " />
<path stroke="rgb(0,0,0)" stroke-opacity="0.949" fill="rgb(255,255,255)" fill-opacity="1" d="M225 100 L224.9 102 L224.7 104 L224.3 105.9 L223.7 107.8 L223 109.7 L222.2 111.5 L221.2 113.2 L220.1 114.9 L218.9 116.4 L217.5 117.9 L216 119.2 L214.5 120.4 L212.8 121.5 L211 122.4 L209.2 123.2 L207.3 123.9 L205.4 124.4 L203.5 124.8 L201.5 125 L199.5 125 L197.5 124.9 L195.6 124.6 L193.6 124.2 L191.7 123.6 L189.9 122.9 L188.1 122 L186.4 121 L184.7 119.8 L183.2 118.5 L181.8 117.1 L180.5 115.6 L179.3 114 L178.3 112.4 L177.4 110.6 L176.6 108.8 L176 106.9 L175.5 104.9 L175.2 103 L175 101 L175 99.01 L175.2 97.02 L175.5 95.06 L176 93.13 L176.6 91.24 L177.4 89.41 L178.3 87.64 L179.3 85.96 L180.5 84.36 L181.8 82.86 L183.2 81.47 L184.7 80.19 L186.4 79.04 L188.1 78.03 L189.9 77.15 L191.7 76.41 L193.6 75.83 L195.6 75.4 L197.5 75.12 L199.5 75 L201.5 75.04 L203.5 75.24 L205.4 75.6 L207.3 76.1 L209.2 76.76 L211 77.57 L212.8 78.52 L214.5 79.6 L216 80.81 L217.5 82.15 L218.9 83.59 L220.1 85.14 L221.2 86.79 L222.2 88.52 L223 90.32 L223.7 92.18 L224.3 94.09 L224.7 96.04 L224.9 98.01 L225 100 Z " />
<path stroke="rgb(0,0,0)" stroke-opacity="1" fill="rgb(255,255,255)" fill-opacity="1" d="M274.3 97.97 L275.4 97.02 L276.5 96.06 L277.6 95.11 L278.7 94.15 L279.8 93.19 L280.9 92.24 L282 91.28 L283.1 90.32 L284.2 89.37 L285.3 88.41 L286.4 87.46 L287.5 86.5 L288.6 85.54 L289.7 84.59 L290.8 83.63 L291.9 82.67 L293 81.72 L294.1 80.76 L295.2 79.81 L296.3 78.85 L297.4 77.89 L298.5 76.94 L299.6 75.98 L300.7 75.03 L301.8 74.07 L302.8 75.17 L303.7 76.27 L304.7 77.37 L305.6 78.47 L306.6 79.57 L307.5 80.67 L308.5 81.77 L309.5 82.87 L310.4 83.97 L311.4 85.07 L312.3 86.17 L313.3 87.27 L314.2 88.37 L315.2 89.47 L316.1 90.57 L317.1 91.67 L318.1 92.77 L319 93.87 L320 94.97 L320.9 96.07 L321.9 97.17 L322.8 98.27 L323.8 99.37 L324.8 100.5 L325.7 101.6 L324.6 102.5 L323.5 103.5 L322.4 104.4 L321.3 105.4 L320.2 106.3 L319.1 107.3 L318 108.3 L316.9 109.2 L315.8 110.2 L314.7 111.1 L313.6 112.1 L312.5 113 L311.4 114 L310.3 115 L309.2 115.9 L308.1 116.9 L307 117.8 L305.9 118.8 L304.8 119.7 L303.7 120.7 L302.6 121.6 L301.5 122.6 L300.4 123.6 L299.3 124.5 L298.2 125.5 L297.3 124.4 L296.3 123.3 L295.3 122.2 L294.4 121.1 L293.4 120 L292.5 118.9 L291.5 117.8 L290.6 116.7 L289.6 115.6 L288.6 114.5 L287.7 113.4 L286.7 112.3 L285.8 111.2 L284.8 110.1 L283.9 109 L282.9 107.9 L282 106.8 L281 105.7 L280 104.6 L279.1 103.5 L278.1 102.4 L277.2 101.3 L276.2 100.2 L275.3 99.07 L274.3 97.97 Z " />
<path stroke="rgb(0,0,0)" stroke-opacity="0.949" fill="rgb(255,255,255)" fill-opacity="1" d="M-275 200 L-275.1 202 L-275.3 204 L-275.7 205.9 L-276.3 207.8 L-277 209.7 L-277.8 211.5 L-278.8 213.2 L-279.9 214.9 L-281.1 216.4 L-282.5 217.9 L-284 219.2 L-285.5 220.4 L-287.2 221.5 L-289 222.4 L-290.8 223.2 L-292.7 223.9 L-294.6 224.4 L-296.5 224.8 L-298.5 225 L-300.5 225 L-302.5 224.9 L-304.4 224.6 L-306.4 224.2 L-308.3 223.6 L-310.1 222.9 L-311.9 222 L-313.6 221 L-315.3 219.8 L-316.8 218.5 L-318.2 217.1 L-319.5 215.6 L-320.7 214 L-321.7 212.4 L-322.6 210.6 L-323.4 208.8 L-324 206.9 L-324.5 204.9 L-324.8 203 L-325 201 L-325 199 L-324.8 197 L-324.5 195.1 L-324 193.1 L-323.4 191.2 L-322.6 189.4 L-321.7 187.6 L-320.7 186 L-319.5 184.4 L-318.2 182.9 L-316.8 181.5 L-315.3 180.2 L-313.6 179 L-311.9 178 L-310.1 177.1 L-308.3 176.4 L-306.4 175.8 L-304.4 175.4 L-302.5 175.1 L-300.5 175 L-298.5 175 L-296.5 175.2 L-294.6 175.6 L-292.7 176.1 L-290.8 176.8 L-289 177.6 L-287.2 178.5 L-285.5 179.6 L-284 180.8 L-282.5 182.1 L-281.1 183.6 L-279.9 185.1 L-278.8 186.8 L-277.8 188.5 L-277 190.3 L-276.3 192.2 L-275.7 194.1 L-275.3 196 L-275.1 198 L-275 200 Z " />
<path stroke="rgb(0,0,0)" stroke-opacity="1" fill="rgb(255,255,255)" fill-opacity="1" d="M-213 211.9 L-213 210.9 L-213 209.9 L-212.9 208.9 L-212.9 207.9 L-212.9 206.9 L-212.9 205.9 L-212.9 204.9 L-212.8 203.9 L-212.8 202.9 L-212.8 201.9 L-212.8 200.9 L-212.7 199.8 L-212.7 198.8 L-212.7 197.8 L-212.7 196.8 L-212.6 195.8 L-212.6 194.8 L-212.6 193.8 L-212.6 192.8 L-212.6 191.8 L-212.5 190.8 L-212.5 189.8 L-212.5 188.8 L-212.5 187.7 L-212.4 186.7 L-211.4 186.8 L-210.4 186.8 L-209.4 186.8 L-208.4 186.8 L-207.4 186.9 L-206.4 186.9 L-205.4 186.9 L-204.4 186.9 L-203.4 186.9 L-202.4 187 L-201.3 187 L-200.3 187 L-199.3 187 L-198.3 187.1 L-197.3 187.1 L-196.3 187.1 L-195.3 187.1 L-194.3 187.2 L-193.3 187.2 L-192.3 187.2 L-191.3 187.2 L-190.3 187.2 L-189.2 187.3 L-188.2 187.3 L-187.2 187.3 L-187.2 188.3 L-187.3 189.3 L-187.3 190.3 L-187.3 191.3 L-187.3 192.4 L-187.4 193.4 L-187.4 194.4 L-187.4 195.4 L-187.4 196.4 L-187.5 197.4 L-187.5 198.4 L-187.5 199.4 L-187.5 200.4 L-187.5 201.4 L-187.6 202.4 L-187.6 203.4 L-187.6 204.5 L-187.6 205.5 L-187.7 206.5 L-187.7 207.5 L-187.7 208.5 L-187.7 209.5 L-187.8 210.5 L-187.8 211.5 L-187.8 212.5 L-188.8 212.5 L-189.8 212.5 L-190.8 212.5 L-191.8 212.4 L-192.8 212.4 L-193.9 212.4 L-194.9 212.4 L-195.9 212.3 L-196.9 212.3 L-197.9 212.3 L-198.9 212.3 L-199.9 212.2 L-200.9 212.2 L-201.9 212.2 L-202.9 212.2 L-203.9 212.2 L-204.9 212.1 L-206 212.1 L-207 212.1 L-208 212.1 L-209 212 L-210 212 L-211 212 L-212 212 L-213 211.9 Z " />
<path stroke="rgb(0,0,0)" stroke-opacity="0.949" fill="rgb(255,255,255)" fill-opacity="1" d="M-75 200 L-75.08 202 L-75.32 204 L-75.71 205.9 L-76.25 207.8 L-76.95 209.7 L-77.79 211.5 L-78.78 213.2 L-79.89 214.9 L-81.14 216.4 L-82.5 217.9 L-83.97 219.2 L-85.55 220.4 L-87.21 221.5 L-88.96 222.4 L-90.78 223.2 L-92.65 223.9 L-94.58 224.4 L-96.53 224.8 L-98.51 225 L-100.5 225 L-102.5 224.9 L-104.4 224.6 L-106.4 224.2 L-108.3 223.6 L-110.1 222.9 L-111.9 222 L-113.6 221 L-115.3 219.8 L-116.8 218.5 L-118.2 217.1 L-119.5 215.6 L-120.7 214 L-121.7 212.4 L-122.6 210.6 L-123.4 208.8 L-124 206.9 L-124.5 204.9 L-124.8 203 L-125 201 L-125 199 L-124.8 197 L-124.5 195.1 L-124 193.1 L-123.4 191.2 L-122.6 189.4 L-121.7 187.6 L-120.7 186 L-119.5 184.4 L-118.2 182.9 L-116.8 181.5 L-115.3 180.2 L-113.6 179 L-111.9 178 L-110.1 177.1 L-108.3 176.4 L-106.4 175.8 L-104.4 175.4 L-102.5 175.1 L-100.5 175 L-98.51 175 L-96.53 175.2 L-94.58 175.6 L-92.65 176.1 L-90.78 176.8 L-88.96 177.6 L-87.21 178.5 L-85.55 179.6 L-83.97 180.8 L-82.5 182.1 L-81.14 183.6 L-79.89 185.1 L-78.78 186.8 L-77.79 188.5 L-76.95 190.3 L-76.25 192.2 L-75.71 194.1 L-75.32 196 L-75.08 198 L-75 200 Z " />
<path stroke="rgb(0,0,0)" stroke-opacity="1" fill="rgb(255,255,255)" fill-opacity="1" d="M-16.75 209.9 L-16.49 208.8 L-16.24 207.8 L-15.98 206.7 L-15.73 205.6 L-15.47 204.5 L-15.21 203.4 L-14.96 202.4 L-14.7 201.3 L-14.44 200.2 L-14.19 199.1 L-13.93 198.1 L-13.67 197 L-13.42 195.9 L-13.16 194.8 L-12.91 193.8 L-12.65 192.7 L-12.39 191.6 L-12.14 190.5 L-11.88 189.4 L-11.62 188.4 L-11.37 187.3 L-11.11 186.2 L-10.85 185.1 L-10.6 184.1 L-10.34 183 L-9.265 183.2 L-8.188 183.5 L-7.111 183.8 L-6.034 184 L-4.957 184.3 L-3.88 184.5 L-2.802 184.8 L-1.725 185 L-0.6482 185.3 L0.429 185.5 L1.506 185.8 L2.583 186.1 L3.66 186.3 L4.737 186.6 L5.815 186.8 L6.892 187.1 L7.969 187.3 L9.046 187.6 L10.12 187.9 L11.2 188.1 L12.28 188.4 L13.35 188.6 L14.43 188.9 L15.51 189.1 L16.59 189.4 L16.33 190.5 L16.07 191.5 L15.82 192.6 L15.56 193.7 L15.3 194.8 L15.05 195.9 L14.79 196.9 L14.54 198 L14.28 199.1 L14.02 200.2 L13.77 201.2 L13.51 202.3 L13.25 203.4 L13 204.5 L12.74 205.5 L12.48 206.6 L12.23 207.7 L11.97 208.8 L11.72 209.9 L11.46 210.9 L11.2 212 L10.95 213.1 L10.69 214.2 L10.43 215.2 L10.18 216.3 L9.1 216.1 L8.023 215.8 L6.946 215.6 L5.869 215.3 L4.792 215 L3.715 214.8 L2.637 214.5 L1.56 214.3 L0.4832 214 L-0.594 213.8 L-1.671 213.5 L-2.748 213.2 L-3.825 213 L-4.902 212.7 L-5.98 212.5 L-7.057 212.2 L-8.134 212 L-9.211 211.7 L-10.29 211.4 L-11.37 211.2 L-12.44 210.9 L-13.52 210.7 L-14.6 210.4 L-15.67 210.2 L-16.75 209.9 Z " />
<path stroke="rgb(0,0,0)" stroke-opacity="0.949" fill="rgb(255,255,255)" fill-opacity="1" d="M125 200 L124.9 202 L124.7 204 L124.3 205.9 L123.7 207.8 L123 209.7 L122.2 211.5 L121.2 213.2 L120.1 214.9 L118.9 216.4 L117.5 217.9 L116 219.2 L114.5 220.4 L112.8 221.5 L111 222.4 L109.2 223.2 L107.3 223.9 L105.4 224.4 L103.5 224.8 L101.5 225 L99.5 225 L97.52 224.9 L95.55 224.6 L93.61 224.2 L91.71 223.6 L89.86 222.9 L88.08 222 L86.37 221 L84.75 219.8 L83.22 218.5 L81.8 217.1 L80.5 215.6 L79.32 214 L78.27 212.4 L77.35 210.6 L76.58 208.8 L75.96 206.9 L75.49 204.9 L75.18 203 L75.02 201 L75.02 199 L75.18 197 L75.49 195.1 L75.96 193.1 L76.58 191.2 L77.35 189.4 L78.27 187.6 L79.32 186 L80.5 184.4 L81.8 182.9 L83.22 181.5 L84.75 180.2 L86.37 179 L88.08 178 L89.86 177.1 L91.71 176.4 L93.61 175.8 L95.55 175.4 L97.52 175.1 L99.5 175 L101.5 175 L103.5 175.2 L105.4 175.6 L107.3 176.1 L109.2 176.8 L111 177.6 L112.8 178.5 L114.5 179.6 L116 180.8 L117.5 182.1 L118.9 183.6 L120.1 185.1 L121.2 186.8 L122.2 188.5 L123 190.3 L123.7 192.2 L124.3 194.1 L124.7 196 L124.9 198 L125 200 Z " />
<path stroke="rgb(0,0,0)" stroke-opacity="1" fill="rgb(255,255,255)" fill-opacity="1" d="M174.3 198 L175.4 197 L176.5 196.1 L177.6 195.1 L178.7 194.1 L179.8 193.2 L180.9 192.2 L182 191.3 L183.1 190.3 L184.2 189.4 L185.3 188.4 L186.4 187.5 L187.5 186.5 L188.6 185.5 L189.7 184.6 L190.8 183.6 L191.9 182.7 L193 181.7 L194.1 180.8 L195.2 179.8 L196.3 178.8 L197.4 177.9 L198.5 176.9 L199.6 176 L200.7 175 L201.8 174.1 L202.8 175.2 L203.7 176.3 L204.7 177.4 L205.6 178.5 L206.6 179.6 L207.5 180.7 L208.5 181.8 L209.5 182.9 L210.4 184 L211.4 185.1 L212.3 186.2 L213.3 187.3 L214.2 188.4 L215.2 189.5 L216.1 190.6 L217.1 191.7 L218.1 192.8 L219 193.9 L220 195 L220.9 196.1 L221.9 197.2 L222.8 198.3 L223.8 199.4 L224.8 200.5 L225.7 201.6 L224.6 202.5 L223.5 203.5 L222.4 204.4 L221.3 205.4 L220.2 206.3 L219.1 207.3 L218 208.3 L216.9 209.2 L215.8 210.2 L214.7 211.1 L213.6 212.1 L212.5 213 L211.4 214 L210.3 215 L209.2 215.9 L208.1 216.9 L207 217.8 L205.9 218.8 L204.8 219.7 L203.7 220.7 L202.6 221.6 L201.5 222.6 L200.4 223.6 L199.3 224.5 L198.2 225.5 L197.3 224.4 L196.3 223.3 L195.3 222.2 L194.4 221.1 L193.4 220 L192.5 218.9 L191.5 217.8 L190.6 216.7 L189.6 215.6 L188.6 214.5 L187.7 213.4 L186.7 212.3 L185.8 211.2 L184.8 210.1 L183.9 209 L182.9 207.9 L182 206.8 L181 205.7 L180 204.6 L179.1 203.5 L178.1 202.4 L177.2 201.3 L176.2 200.2 L175.3 199.1 L174.3 198 Z " />
<path stroke="rgb(0,0,0)" stroke-opacity="0.949" fill="rgb(255,255,255)" fill-opacity="1" d="M325 200 L324.9 202 L324.7 204 L324.3 205.9 L323.7 207.8 L323 209.7 L322.2 211.5 L321.2 213.2 L320.1 214.9 L318.9 216.4 L317.5 217.9 L316 219.2 L314.5 220.4 L312.8 221.5 L311 222.4 L309.2 223.2 L307.3 223.9 L305.4 224.4 L303.5 224.8 L301.5 225 L299.5 225 L297.5 224.9 L295.6 224.6 L293.6 224.2 L291.7 223.6 L289.9 222.9 L288.1 222 L286.4 221 L284.7 219.8 L283.2 218.5 L281.8 217.1 L280.5 215.6 L279.3 214 L278.3 212.4 L277.4 210.6 L276.6 208.8 L276 206.9 L275.5 204.9 L275.2 203 L275 201 L275 199 L275.2 197 L275.5 195.1 L276 193.1 L276.6 191.2 L277.4 189.4 L278.3 187.6 L279.3 186 L280.5 184.4 L281.8 182.9 L283.2 181.5 L284.7 180.2 L286.4 179 L288.1 178 L289.9 177.1 L291.7 176.4 L293.6 175.8 L295.6 175.4 L297.5 175.1 L299.5 175 L301.5 175 L303.5 175.2 L305.4 175.6 L307.3 176.1 L309.2 176.8 L311 177.6 L312.8 178.5 L314.5 179.6 L316 180.8 L317.5 182.1 L318.9 183.6 L320.1 185.1 L321.2 186.8 L322.2 188.5 L323 190.3 L323.7 192.2 L324.3 194.1 L324.7 196 L324.9 198 L325 200 Z " />
<path stroke="rgb(0,0,0)" stroke-opacity="1" fill="rgb(255,255,255)" fill-opacity="1" d="M-313 311.9 L-313 310.9 L-313 309.9 L-312.9 308.9 L-312.9 307.9 L-312.9 306.9 L-312.9 305.9 L-312.9 304.9 L-312.8 303.9 L-312.8 302.9 L-312.8 301.9 L-312.8 300.9 L-312.7 299.8 L-312.7 298.8 L-312.7 297.8 L-312.7 296.8 L-312.6 295.8 L-312.6 294.8 L-312.6 293.8 L-312.6 292.8 L-312.6 291.8 L-312.5 290.8 L-312.5 289.8 L-312.5 288.8 L-312.5 287.7 L-312.4 286.7 L-311.4 286.8 L-310.4 286.8 L-309.4 286.8 L-308.4 286.8 L-307.4 286.9 L-306.4 286.9 L-305.4 286.9 L-304.4 286.9 L-303.4 286.9 L-302.4 287 L-301.3 287 L-300.3 287 L-299.3 287 L-298.3 287.1 L-297.3 287.1 L-296.3 287.1 L-295.3 287.1 L-294.3 287.2 L-293.3 287.2 L-292.3 287.2 L-291.3 287.2 L-290.3 287.2 L-289.2 287.3 L-288.2 287.3 L-287.2 287.3 L-287.2 288.3 L-287.3 289.3 L-287.3 290.3 L-287.3 291.3 L-287.3 292.4 L-287.4 293.4 L-287.4 294.4 L-287.4 295.4 L-287.4 296.4 L-287.5 297.4 L-287.5 298.4 L-287.5 299.4 L-287.5 300.4 L-287.5 301.4 L-287.6 302.4 L-287.6 303.4 L-287.6 304.5 L-287.6 305.5 L-287.7 306.5 L-287.7 307.5 L-287.7 308.5 L-287.7 309.5 L-287.8 310.5 L-287.8 311.5 L-287.8 312.5 L-288.8 312.5 L-289.8 312.5 L-290.8 312.5 L-291.8 312.4 L-292.8 312.4 L-293.9 312.4 L-294.9 312.4 L-295.9 312.3 L-296.9 312.3 L-297.9 312.3 L-298.9 312.3 L-299.9 312.2 L-300.9 312.2 L-301.9 312.2 L-302.9 312.2 L-303.9 312.2 L-304.9 312.1 L-306 312.1 L-307 312.1 L-308 312.1 L-309 312 L-310 312 L-311 312 L-312 312 L-313 311.9 Z " />
<path stroke="rgb(0,0,0)" stroke-opacity="0.949" fill="rgb(255,255,255)" fill-opacity="1" d="M-175 300 L-175.1 302 L-175.3 304 L-175.7 305.9 L-176.3 307.8 L-177 309.7 L-177.8 311.5 L-178.8 313.2 L-179.9 314.9 L-181.1 316.4 L-182.5 317.9 L-184 319.2 L-185.5 320.4 L-187.2 321.5 L-189 322.4 L-190.8 323.2 L-192.7 323.9 L-194.6 324.4 L-196.5 324.8 L-198.5 325 L-200.5 325 L-202.5 324.9 L-204.4 324.6 L-206.4 324.2 L-208.3 323.6 L-210.1 322.9 L-211.9 322 L-213.6 321 L-215.3 319.8 L-216.8 318.5 L-218.2 317.1 L-219.5 315.6 L-220.7 314 L-221.7 312.4 L-222.6 310.6 L-223.4 308.8 L-224 306.9 L-224.5 304.9 L-224.8 303 L-225 301 L-225 299 L-224.8 297 L-224.5 295.1 L-224 293.1 L-223.4 291.2 L-222.6 289.4 L-221.7 287.6 L-220.7 286 L-219.5 284.4 L-218.2 282.9 L-216.8 281.5 L-215.3 280.2 L-213.6 279 L-211.9 278 L-210.1 277.1 L-208.3 276.4 L-206.4 275.8 L-204.4 275.4 L-202.5 275.1 L-200.5 275 L-198.5 275 L-196.5 275.2 L-194.6 275.6 L-192.7 276.1 L-190.8 276.8 L-189 277.6 L-187.2 278.5 L-185.5 279.6 L-184 280.8 L-182.5 282.1 L-181.1 283.6 L-179.9 285.1 L-178.8 286.8 L-177.8 288.5 L-177 290.3 L-176.3 292.2 L-175.7 294.1 L-175.3 296 L-175.1 298 L-175 300 Z " />
<path stroke="rgb(0,0,0)" stroke-opacity="1" fill="rgb(255,255,255)" fill-opacity="1" d="M-116.8 309.9 L-116.5 308.8 L-116.2 307.8 L-116 306.7 L-115.7 305.6 L-115.5 304.5 L-115.2 303.4 L-115 302.4 L-114.7 301.3 L-114.4 300.2 L-114.2 299.1 L-113.9 298.1 L-113.7 297 L-113.4 295.9 L-113.2 294.8 L-112.9 293.8 L-112.6 292.7 L-112.4 291.6 L-112.1 290.5 L-111.9 289.4 L-111.6 288.4 L-111.4 287.3 L-111.1 286.2 L-110.9 285.1 L-110.6 284.1 L-110.3 283 L-109.3 283.2 L-108.2 283.5 L-107.1 283.8 L-106 284 L-105 284.3 L-103.9 284.5 L-102.8 284.8 L-101.7 285 L-100.6 285.3 L-99.57 285.5 L-98.49 285.8 L-97.42 286.1 L-96.34 286.3 L-95.26 286.6 L-94.19 286.8 L-93.11 287.1 L-92.03 287.3 L-90.95 287.6 L-89.88 287.9 L-88.8 288.1 L-87.72 288.4 L-86.65 288.6 L-85.57 288.9 L-84.49 289.1 L-83.41 289.4 L-83.67 290.5 L-83.93 291.5 L-84.18 292.6 L-84.44 293.7 L-84.7 294.8 L-84.95 295.9 L-85.21 296.9 L-85.46 298 L-85.72 299.1 L-85.98 300.2 L-86.23 301.2 L-86.49 302.3 L-86.75 303.4 L-87 304.5 L-87.26 305.5 L-87.52 306.6 L-87.77 307.7 L-88.03 308.8 L-88.28 309.9 L-88.54 310.9 L-88.8 312 L-89.05 313.1 L-89.31 314.2 L-89.57 315.2 L-89.82 316.3 L-90.9 316.1 L-91.98 315.8 L-93.05 315.6 L-94.13 315.3 L-95.21 315 L-96.29 314.8 L-97.36 314.5 L-98.44 314.3 L-99.52 314 L-100.6 313.8 L-101.7 313.5 L-102.7 313.2 L-103.8 313 L-104.9 312.7 L-106 312.5 L-107.1 312.2 L-108.1 312 L-109.2 311.7 L-110.3 311.4 L-111.4 311.2 L-112.4 310.9 L-113.5 310.7 L-114.6 310.4 L-115.7 310.2 L-116.8 309.9 Z " />
<path stroke="rgb(0,0,0)" stroke-opacity="0.949" fill="rgb(255,255,255)" fill-opacity="1" d="M25 300 L24.92 302 L24.68 304 L24.29 305.9 L23.75 307.8 L23.05 309.7 L22.21 311.5 L21.22 313.2 L20.11 314.9 L18.86 316.4 L17.5 317.9 L16.03 319.2 L14.45 320.4 L12.79 321.5 L11.04 322.4 L9.222 323.2 L7.346 323.9 L5.424 324.4 L3.468 324.8 L1.49 325 L-0.4971 325 L-2.481 324.9 L-4.45 324.6 L-6.39 324.2 L-8.29 323.6 L-10.14 322.9 L-11.92 322 L-13.63 321 L-15.25 319.8 L-16.78 318.5 L-18.2 317.1 L-19.5 315.6 L-20.68 314 L-21.73 312.4 L-22.65 310.6 L-23.42 308.8 L-24.04 306.9 L-24.51 304.9 L-24.82 303 L-24.98 301 L-24.98 299 L-24.82 297 L-24.51 295.1 L-24.04 293.1 L-23.42 291.2 L-22.65 289.4 L-21.73 287.6 L-20.68 286 L-19.5 284.4 L-18.2 282.9 L-16.78 281.5 L-15.25 280.2 L-13.63 279 L-11.92 278 L-10.14 277.1 L-8.29 276.4 L-6.39 275.8 L-4.45 275.4 L-2.481 275.1 L-0.4971 275 L1.49 275 L3.468 275.2 L5.424 275.6 L7.346 276.1 L9.222 276.8 L11.04 277.6 L12.79 278.5 L14.45 279.6 L16.03 280.8 L17.5 282.1 L18.86 283.6 L20.11 285.1 L21.22 286.8 L22.21 288.5 L23.05 290.3 L23.75 292.2 L24.29 294.1 L24.68 296 L24.92 298 L25 300 Z " />
<path stroke="rgb(0,0,0)" stroke-opacity="1" fill="rgb(255,255,255)" fill-opacity="1" d="M74.31 298 L75.41 297 L76.51 296.1 L77.61 295.1 L78.71 294.1 L79.8 293.2 L80.9 292.2 L82 291.3 L83.1 290.3 L84.2 289.4 L85.3 288.4 L86.4 287.5 L87.5 286.5 L88.6 285.5 L89.7 284.6 L90.8 283.6 L91.9 282.7 L93 281.7 L94.1 280.8 L95.2 279.8 L96.3 278.8 L97.4 277.9 L98.5 276.9 L99.6 276 L100.7 275 L101.8 274.1 L102.8 275.2 L103.7 276.3 L104.7 277.4 L105.6 278.5 L106.6 279.6 L107.5 280.7 L108.5 281.8 L109.5 282.9 L110.4 284 L111.4 285.1 L112.3 286.2 L113.3 287.3 L114.2 288.4 L115.2 289.5 L116.1 290.6 L117.1 291.7 L118.1 292.8 L119 293.9 L120 295 L120.9 296.1 L121.9 297.2 L122.8 298.3 L123.8 299.4 L124.8 300.5 L125.7 301.6 L124.6 302.5 L123.5 303.5 L122.4 304.4 L121.3 305.4 L120.2 306.3 L119.1 307.3 L118 308.3 L116.9 309.2 L115.8 310.2 L114.7 311.1 L113.6 312.1 L112.5 313 L111.4 314 L110.3 315 L109.2 315.9 L108.1 316.9 L107 317.8 L105.9 318.8 L104.8 319.7 L103.7 320.7 L102.6 321.6 L101.5 322.6 L100.4 323.6 L99.31 324.5 L98.21 325.5 L97.25 324.4 L96.3 323.3 L95.34 322.2 L94.39 321.1 L93.43 320 L92.47 318.9 L91.52 317.8 L90.56 316.7 L89.61 315.6 L88.65 314.5 L87.69 313.4 L86.74 312.3 L85.78 311.2 L84.82 310.1 L83.87 309 L82.91 307.9 L81.96 306.8 L81 305.7 L80.04 304.6 L79.09 303.5 L78.13 302.4 L77.17 301.3 L76.22 300.2 L75.26 299.1 L74.31 298 Z " />
<path stroke="rgb(0,0,0)" stroke-opacity="0.949" fill="rgb(255,255,255)" fill-opacity="1" d="M225 300 L224.9 302 L224.7 304 L224.3 305.9 L223.7 307.8 L223 309.7 L222.2 311.5 L221.2 313.2 L220.1 314.9 L218.9 316.4 L217.5 317.9 L216 319.2 L214.5 320.4 L212.8 321.5 L211 322.4 L209.2 323.2 L207.3 323.9 L205.4 324.4 L203.5 324.8 L201.5 325 L199.5 325 L197.5 324.9 L195.6 324.6 L193.6 324.2 L191.7 323.6 L189.9 322.9 L188.1 322 L186.4 321 L184.7 319.8 L183.2 318.5 L181.8 317.1 L180.5 315.6 L179.3 314 L178.3 312.4 L177.4 310.6 L176.6 308.8 L176 306.9 L175.5 304.9 L175.2 303 L175 301 L175 299 L175.2 297 L175.5 295.1 L176 293.1 L176.6 291.2 L177.4 289.4 L178.3 287.6 L179.3 286 L180.5 284.4 L181.8 282.9 L183.2 281.5 L184.7 280.2 L186.4 279 L188.1 278 L189.9 277.1 L191.7 276.4 L193.6 275.8 L195.6 275.4 L197.5 275.1 L199.5 275 L201.5 275 L203.5 275.2 L205.4 275.6 L207.3 276.1 L209.2 276.8 L211 277.6 L212.8 278.5 L214.5 279.6 L216 280.8 L217.5 282.1 L218.9 283.6 L220.1 285.1 L221.2 286.8 L222.2 288.5 L223 290.3 L223.7 292.2 L224.3 294.1 L224.7 296 L224.9 298 L225 300 Z " />
<path stroke="rgb(0,0,0)" stroke-opacity="1" fill="rgb(255,255,255)" fill-opacity="1" d="M273.2 281.2 L275 280.9 L276.9 280.5 L278.7 280.2 L280.5 279.9 L282.3 279.6 L284.1 279.2 L286 278.9 L287.8 278.6 L289.6 278.3 L291.4 278 L293.3 277.6 L295.1 277.3 L296.9 277 L298.7 276.7 L300.6 276.3 L302.4 276 L304.2 275.7 L306 275.4 L307.8 275.1 L309.7 274.7 L311.5 274.4 L313.3 274.1 L315.1 273.8 L317 273.4 L318.8 273.1 L319.1 274.9 L319.4 276.8 L319.7 278.6 L320.1 280.4 L320.4 282.2 L320.7 284.1 L321 285.9 L321.4 287.7 L321.7 289.5 L322 291.4 L322.3 293.2 L322.6 295 L323 296.8 L323.3 298.7 L323.6 300.5 L323.9 302.3 L324.3 304.1 L324.6 305.9 L324.9 307.8 L325.2 309.6 L325.5 311.4 L325.9 313.2 L326.2 315.1 L326.5 316.9 L326.8 318.7 L325 319 L323.2 319.3 L321.4 319.7 L319.5 320 L317.7 320.3 L315.9 320.6 L314.1 321 L312.2 321.3 L310.4 321.6 L308.6 321.9 L306.8 322.2 L305 322.6 L303.1 322.9 L301.3 323.2 L299.5 323.5 L297.7 323.9 L295.8 324.2 L294 324.5 L292.2 324.8 L290.4 325.1 L288.5 325.5 L286.7 325.8 L284.9 326.1 L283.1 326.4 L281.3 326.7 L280.9 324.9 L280.6 323.1 L280.3 321.3 L280 319.5 L279.6 317.6 L279.3 315.8 L279 314 L278.7 312.2 L278.4 310.3 L278 308.5 L277.7 306.7 L277.4 304.9 L277.1 303 L276.7 301.2 L276.4 299.4 L276.1 297.6 L275.8 295.8 L275.5 293.9 L275.1 292.1 L274.8 290.3 L274.5 288.5 L274.2 286.6 L273.9 284.8 L273.5 283 L273.2 281.2 Z " />
</g>
</g>
</svg>
