<!DOCTYPE svg>
<svg xmlns="http://www.w3.org/2000/svg" xmlns:xlink="http://www.w3.org/1999/xlink" width="1000" height="1000">
<g transform="translate(500.000000,500.000000)">
<g transform="scale(3.000000,3.000000)">
<path stroke="rgb(0,0,0)" stroke-opacity="1" fill="rgb(255,255,255)" fill-opacity="1" d="M-1017 -974.2 L-1017 -975.9 L-1018 -977.6 L-1018 -979.4 L-1018 -981.1 L-1019 -982.8 L-1019 -984.5 L-1020 -986.3 L-1020 -988 L-1020 -989.7 L-1021 -991.4 L-1021 -993.1 L-1021 -994.9 L-1022 -996.6 L-1022 -998.3 L-1023 -1000 L-1023 -1002 L-1023 -1003 L-1024 -1005 L-1024 -1007 L-1024 -1009 L-1025 -1010 L-1025 -1012 L-1026 -1014 L-1026 -1016 L-1026 -1017 L-1025 -1018 L-1023 -1018 L-1021 -1018 L-1019 -1019 L-1018 -1019 L-1016 -1020 L-1014 -1020 L-1013 -1020 L-1011 -1021 L-1009 -1021 L-1007 -1021 L-1006 -1022 L-1004 -1022 L-1002 -1023 L-1001 -1023 L-998.8 -1023 L-997.1 -1024 L-995.4 -1024 L-993.6 -1025 L-991.9 -1025 L-990.2 -1025 L-988.5 -1026 L-986.7 -1026 L-985 -1026 L-983.3 -1027 L-982.9 -1025 L-982.5 -1023 L-982.1 -1022 L-981.8 -1020 L-981.4 -1018 L-981 -1016 L-980.6 -1015 L-980.2 -1013 L-979.9 -1011 L-979.5 -1010 L-979.1 -1008 L-978.7 -1006 L-978.3 -1004 L-978 -1003 L-977.6 -1001 L-977.2 -999.2 L-976.8 -997.5 L-976.4 -995.8 L-976.1 -994.1 L-975.7 -992.3 L-975.3 -990.6 L-974.9 -988.9 L-974.5 -987.2 L-974.1 -985.4 L-973.8 -983.7 L-975.5 -983.3 L-977.2 -983 L-978.9 -982.6 L-980.7 -982.2 L-982.4 -981.8 L-984.1 -981.4 L-985.8 -981.1 L-987.5 -980.7 L-989.3 -980.3 L-991 -979.9 L-992.7 -979.5 L-994.4 -979.1 L-996.2 -978.8 L-997.9 -978.4 L-999.6 -978 L-1001 -977.6 L-1003 -977.2 L-1005 -976.9 L-1007 -976.5 L-1008 -976.1 L-1010 -975.7 L-1012 -975.3 L-1013 -975 L-1015 -974.6 L-1017 -974.2 Z " />
<path stroke="rgb(0,0,0)" stroke-opacity="0.981" fill="rgb(255,255,255)" fill-opacity="1" d="M-175.3 -299.6 L-175.5 -297.7 L-175.7 -295.7 L-176.1 -293.8 L-176.7 -291.9 L-177.4 -290.1 L-178.3 -288.3 L-179.3 -286.7 L-180.4 -285.1 L-181.6 -283.5 L-183 -282.1 L-184.5 -280.8 L-186.1 -279.7 L-187.7 -278.6 L-189.4 -277.7 L-191.3 -277 L-193.1 -276.3 L-195 -275.9 L-196.9 -275.5 L-198.9 -275.4 L-200.9 -275.4 L-202.8 -275.5 L-204.8 -275.8 L-206.7 -276.3 L-208.5 -276.9 L-210.3 -277.6 L-212.1 -278.5 L-213.8 -279.5 L-215.3 -280.7 L-216.8 -282 L-218.2 -283.4 L-219.5 -284.9 L-220.6 -286.5 L-221.6 -288.1 L-222.5 -289.9 L-223.2 -291.7 L-223.8 -293.6 L-224.2 -295.5 L-224.5 -297.4 L-224.6 -299.4 L-224.6 -301.4 L-224.4 -303.3 L-224.1 -305.2 L-223.6 -307.1 L-223 -309 L-222.2 -310.8 L-221.2 -312.5 L-220.2 -314.2 L-219 -315.7 L-217.7 -317.2 L-216.3 -318.5 L-214.7 -319.8 L-213.1 -320.9 L-211.4 -321.9 L-209.6 -322.7 L-207.8 -323.4 L-205.9 -323.9 L-204 -324.3 L-202.1 -324.6 L-200.1 -324.7 L-198.2 -324.6 L-196.2 -324.4 L-194.3 -324 L-192.4 -323.5 L-190.6 -322.8 L-188.8 -322 L-187.1 -321 L-185.4 -319.9 L-183.9 -318.7 L-182.5 -317.3 L-181.1 -315.9 L-179.9 -314.3 L-178.9 -312.7 L-177.9 -311 L-177.1 -309.2 L-176.5 -307.4 L-176 -305.5 L-175.6 -303.5 L-175.4 -301.6 L-175.3 -299.6 Z " />
<path stroke="rgb(0,0,0)" stroke-opacity="1" fill="rgb(255,255,255)" fill-opacity="1" d="M-799 -976.8 L-799.9 -977.7 L-800.9 -978.6 L-801.9 -979.5 L-802.9 -980.4 L-803.9 -981.3 L-804.9 -982.2 L-805.9 -983.1 L-806.9 -983.9 L-807.9 -984.8 L-808.9 -985.7 L-809.9 -986.6 L-810.9 -987.5 L-811.9 -988.4 L-812.9 -989.3 L-813.9 -990.2 L-814.9 -991.1 L-815.9 -992 L-816.9 -992.9 L-817.9 -993.8 L-818.9 -994.7 L-819.9 -995.6 L-820.9 -996.5 L-821.9 -997.4 L-822.9 -998.3 L-823.9 -999.2 L-823 -1000 L-822.1 -1001 L-821.2 -1002 L-820.3 -1003 L-819.5 -1004 L-818.6 -1005 L-817.7 -1006 L-816.8 -1007 L-815.9 -1008 L-815 -1009 L-814.1 -1010 L-813.2 -1011 L-812.3 -1012 L-811.4 -1013 L-810.5 -1014 L-809.6 -1015 L-808.7 -1016 L-807.8 -1017 L-806.9 -1018 L-806 -1019 L-805.1 -1020 L-804.2 -1021 L-803.3 -1022 L-802.4 -1023 L-801.5 -1024 L-800.5 -1023 L-799.5 -1022 L-798.5 -1021 L-797.5 -1021 L-796.5 -1020 L-795.5 -1019 L-794.5 -1018 L-793.5 -1017 L-792.5 -1016 L-791.5 -1015 L-790.6 -1014 L-789.6 -1013 L-788.6 -1013 L-787.6 -1012 L-786.6 -1011 L-785.6 -1010 L-784.6 -1009 L-783.6 -1008 L-782.6 -1007 L-781.6 -1006 L-780.6 -1005 L-779.6 -1004 L-778.6 -1004 L-777.6 -1003 L-776.6 -1002 L-777.5 -1001 L-778.4 -999.8 L-779.2 -998.8 L-780.1 -997.8 L-781 -996.8 L-781.9 -995.8 L-782.8 -994.8 L-783.7 -993.8 L-784.6 -992.8 L-785.5 -991.8 L-786.4 -990.8 L-787.3 -989.8 L-788.2 -988.8 L-789.1 -987.8 L-790 -986.8 L-790.9 -985.8 L-791.8 -984.8 L-792.7 -983.8 L-793.6 -982.8 L-794.5 -981.8 L-795.4 -980.8 L-796.3 -979.8 L-797.2 -978.8 L-798.1 -977.8 L-799 -976.8 Z " />
<path stroke="rgb(0,0,0)" stroke-opacity="0.981" fill="rgb(255,255,255)" fill-opacity="1" d="M24.65 -299.6 L24.55 -297.7 L24.28 -295.7 L23.87 -293.8 L23.3 -291.9 L22.58 -290.1 L21.73 -288.3 L20.73 -286.7 L19.61 -285.1 L18.36 -283.5 L16.99 -282.1 L15.52 -280.8 L13.95 -279.7 L12.29 -278.6 L10.55 -277.7 L8.746 -277 L6.887 -276.3 L4.985 -275.9 L3.051 -275.5 L1.098 -275.4 L-0.8623 -275.4 L-2.817 -275.5 L-4.754 -275.8 L-6.661 -276.3 L-8.525 -276.9 L-10.34 -277.6 L-12.08 -278.5 L-13.75 -279.5 L-15.33 -280.7 L-16.82 -282 L-18.2 -283.4 L-19.46 -284.9 L-20.6 -286.5 L-21.61 -288.1 L-22.48 -289.9 L-23.21 -291.7 L-23.8 -293.6 L-24.23 -295.5 L-24.51 -297.4 L-24.64 -299.4 L-24.61 -301.4 L-24.42 -303.3 L-24.08 -305.2 L-23.59 -307.1 L-22.95 -309 L-22.16 -310.8 L-21.24 -312.5 L-20.18 -314.2 L-18.99 -315.7 L-17.68 -317.2 L-16.26 -318.5 L-14.74 -319.8 L-13.12 -320.9 L-11.42 -321.9 L-9.647 -322.7 L-7.814 -323.4 L-5.932 -323.9 L-4.012 -324.3 L-2.067 -324.6 L-0.1091 -324.7 L1.85 -324.6 L3.797 -324.4 L5.72 -324 L7.608 -323.5 L9.447 -322.8 L11.23 -322 L12.93 -321 L14.56 -319.9 L16.1 -318.7 L17.53 -317.3 L18.85 -315.9 L20.05 -314.3 L21.13 -312.7 L22.07 -311 L22.88 -309.2 L23.53 -307.4 L24.04 -305.5 L24.4 -303.5 L24.61 -301.6 L24.65 -299.6 Z " />
<path stroke="rgb(0,0,0)" stroke-opacity="1" fill="rgb(255,255,255)" fill-opacity="1" d="M-589.8 -984.9 L-590.9 -985.1 L-591.9 -985.3 L-593 -985.5 L-594 -985.7 L-595 -985.9 L-596.1 -986.1 L-597.1 -986.3 L-598.1 -986.5 L-599.2 -986.7 L-600.2 -986.9 L-601.3 -987.1 L-602.3 -987.3 L-603.3 -987.5 L-604.4 -987.7 L-605.4 -987.9 L-606.5 -988.1 L-607.5 -988.3 L-608.5 -988.5 L-609.6 -988.7 L-610.6 -988.9 L-611.6 -989.1 L-612.7 -989.3 L-613.7 -989.5 L-614.8 -989.7 L-615.8 -989.9 L-615.6 -990.9 L-615.4 -992 L-615.2 -993 L-615 -994 L-614.8 -995.1 L-614.6 -996.1 L-614.4 -997.2 L-614.2 -998.2 L-614 -999.2 L-613.8 -1000 L-613.6 -1001 L-613.4 -1002 L-613.2 -1003 L-613 -1004 L-612.8 -1005 L-612.6 -1007 L-612.4 -1008 L-612.2 -1009 L-612 -1010 L-611.8 -1011 L-611.6 -1012 L-611.4 -1013 L-611.2 -1014 L-611 -1015 L-610.8 -1016 L-609.8 -1016 L-608.8 -1015 L-607.7 -1015 L-606.7 -1015 L-605.6 -1015 L-604.6 -1015 L-603.6 -1014 L-602.5 -1014 L-601.5 -1014 L-600.4 -1014 L-599.4 -1014 L-598.4 -1013 L-597.3 -1013 L-596.3 -1013 L-595.3 -1013 L-594.2 -1013 L-593.2 -1012 L-592.1 -1012 L-591.1 -1012 L-590.1 -1012 L-589 -1012 L-588 -1011 L-587 -1011 L-585.9 -1011 L-584.9 -1011 L-585.1 -1010 L-585.3 -1009 L-585.5 -1008 L-585.7 -1007 L-585.9 -1006 L-586.1 -1005 L-586.3 -1004 L-586.5 -1003 L-586.7 -1002 L-586.9 -1000 L-587.1 -999.5 L-587.3 -998.4 L-587.5 -997.4 L-587.7 -996.3 L-587.9 -995.3 L-588.1 -994.3 L-588.3 -993.2 L-588.5 -992.2 L-588.7 -991.2 L-588.8 -990.1 L-589 -989.1 L-589.2 -988 L-589.4 -987 L-589.6 -986 L-589.8 -984.9 Z " />
<path stroke="rgb(0,0,0)" stroke-opacity="0.981" fill="rgb(255,255,255)" fill-opacity="1" d="M224.7 -299.6 L224.5 -297.7 L224.3 -295.7 L223.9 -293.8 L223.3 -291.9 L222.6 -290.1 L221.7 -288.3 L220.7 -286.7 L219.6 -285.1 L218.4 -283.5 L217 -282.1 L215.5 -280.8 L213.9 -279.7 L212.3 -278.6 L210.6 -277.7 L208.7 -277 L206.9 -276.3 L205 -275.9 L203.1 -275.5 L201.1 -275.4 L199.1 -275.4 L197.2 -275.5 L195.2 -275.8 L193.3 -276.3 L191.5 -276.9 L189.7 -277.6 L187.9 -278.5 L186.2 -279.5 L184.7 -280.7 L183.2 -282 L181.8 -283.4 L180.5 -284.9 L179.4 -286.5 L178.4 -288.1 L177.5 -289.9 L176.8 -291.7 L176.2 -293.6 L175.8 -295.5 L175.5 -297.4 L175.4 -299.4 L175.4 -301.4 L175.6 -303.3 L175.9 -305.2 L176.4 -307.1 L177 -309 L177.8 -310.8 L178.8 -312.5 L179.8 -314.2 L181 -315.7 L182.3 -317.2 L183.7 -318.5 L185.3 -319.8 L186.9 -320.9 L188.6 -321.9 L190.4 -322.7 L192.2 -323.4 L194.1 -323.9 L196 -324.3 L197.9 -324.6 L199.9 -324.7 L201.8 -324.6 L203.8 -324.4 L205.7 -324 L207.6 -323.5 L209.4 -322.8 L211.2 -322 L212.9 -321 L214.6 -319.9 L216.1 -318.7 L217.5 -317.3 L218.9 -315.9 L220.1 -314.3 L221.1 -312.7 L222.1 -311 L222.9 -309.2 L223.5 -307.4 L224 -305.5 L224.4 -303.5 L224.6 -301.6 L224.7 -299.6 Z " />
<path stroke="rgb(0,0,0)" stroke-opacity="1" fill="rgb(255,255,255)" fill-opacity="1" d="M-388.4 -987.8 L-389.4 -987.8 L-390.3 -987.8 L-391.3 -987.8 L-392.3 -987.9 L-393.3 -987.9 L-394.3 -987.9 L-395.3 -987.9 L-396.2 -988 L-397.2 -988 L-398.2 -988 L-399.2 -988 L-400.2 -988.1 L-401.2 -988.1 L-402.1 -988.1 L-403.1 -988.1 L-404.1 -988.2 L-405.1 -988.2 L-406.1 -988.2 L-407.1 -988.2 L-408 -988.3 L-409 -988.3 L-410 -988.3 L-411 -988.3 L-412 -988.4 L-413 -988.4 L-412.9 -989.4 L-412.9 -990.3 L-412.9 -991.3 L-412.9 -992.3 L-412.8 -993.3 L-412.8 -994.3 L-412.8 -995.3 L-412.8 -996.2 L-412.7 -997.2 L-412.7 -998.2 L-412.7 -999.2 L-412.7 -1000 L-412.6 -1001 L-412.6 -1002 L-412.6 -1003 L-412.6 -1004 L-412.5 -1005 L-412.5 -1006 L-412.5 -1007 L-412.5 -1008 L-412.4 -1009 L-412.4 -1010 L-412.4 -1011 L-412.4 -1012 L-412.3 -1013 L-411.3 -1013 L-410.4 -1013 L-409.4 -1013 L-408.4 -1013 L-407.4 -1013 L-406.4 -1013 L-405.4 -1013 L-404.5 -1013 L-403.5 -1013 L-402.5 -1013 L-401.5 -1013 L-400.5 -1013 L-399.5 -1013 L-398.6 -1013 L-397.6 -1013 L-396.6 -1013 L-395.6 -1013 L-394.6 -1013 L-393.6 -1012 L-392.7 -1012 L-391.7 -1012 L-390.7 -1012 L-389.7 -1012 L-388.7 -1012 L-387.8 -1012 L-387.8 -1011 L-387.8 -1010 L-387.8 -1009 L-387.9 -1008 L-387.9 -1007 L-387.9 -1006 L-387.9 -1005 L-387.9 -1004 L-388 -1003 L-388 -1003 L-388 -1002 L-388 -1001 L-388.1 -999.6 L-388.1 -998.6 L-388.1 -997.6 L-388.1 -996.6 L-388.2 -995.6 L-388.2 -994.6 L-388.2 -993.7 L-388.2 -992.7 L-388.3 -991.7 L-388.3 -990.7 L-388.3 -989.7 L-388.3 -988.7 L-388.4 -987.8 Z " />
<path stroke="rgb(0,0,0)" stroke-opacity="0.981" fill="rgb(255,255,255)" fill-opacity="1" d="M-275.3 -199.6 L-275.5 -197.7 L-275.7 -195.7 L-276.1 -193.8 L-276.7 -191.9 L-277.4 -190.1 L-278.3 -188.3 L-279.3 -186.7 L-280.4 -185.1 L-281.6 -183.5 L-283 -182.1 L-284.5 -180.8 L-286.1 -179.7 L-287.7 -178.6 L-289.4 -177.7 L-291.3 -177 L-293.1 -176.3 L-295 -175.9 L-296.9 -175.5 L-298.9 -175.4 L-300.9 -175.4 L-302.8 -175.5 L-304.8 -175.8 L-306.7 -176.3 L-308.5 -176.9 L-310.3 -177.6 L-312.1 -178.5 L-313.8 -179.5 L-315.3 -180.7 L-316.8 -182 L-318.2 -183.4 L-319.5 -184.9 L-320.6 -186.5 L-321.6 -188.1 L-322.5 -189.9 L-323.2 -191.7 L-323.8 -193.6 L-324.2 -195.5 L-324.5 -197.4 L-324.6 -199.4 L-324.6 -201.4 L-324.4 -203.3 L-324.1 -205.2 L-323.6 -207.1 L-323 -209 L-322.2 -210.8 L-321.2 -212.5 L-320.2 -214.2 L-319 -215.7 L-317.7 -217.2 L-316.3 -218.5 L-314.7 -219.8 L-313.1 -220.9 L-311.4 -221.9 L-309.6 -222.7 L-307.8 -223.4 L-305.9 -223.9 L-304 -224.3 L-302.1 -224.6 L-300.1 -224.7 L-298.2 -224.6 L-296.2 -224.4 L-294.3 -224 L-292.4 -223.5 L-290.6 -222.8 L-288.8 -222 L-287.1 -221 L-285.4 -219.9 L-283.9 -218.7 L-282.5 -217.3 L-281.1 -215.9 L-279.9 -214.3 L-278.9 -212.7 L-277.9 -211 L-277.1 -209.2 L-276.5 -207.4 L-276 -205.5 L-275.6 -203.5 L-275.4 -201.6 L-275.3 -199.6 Z " />
<path stroke="rgb(0,0,0)" stroke-opacity="1" fill="rgb(255,255,255)" fill-opacity="1" d="M-899 -876.8 L-899.9 -877.7 L-900.9 -878.6 L-901.9 -879.5 L-902.9 -880.4 L-903.9 -881.3 L-904.9 -882.2 L-905.9 -883.1 L-906.9 -883.9 L-907.9 -884.8 L-908.9 -885.7 L-909.9 -886.6 L-910.9 -887.5 L-911.9 -888.4 L-912.9 -889.3 L-913.9 -890.2 L-914.9 -891.1 L-915.9 -892 L-916.9 -892.9 L-917.9 -893.8 L-918.9 -894.7 L-919.9 -895.6 L-920.9 -896.5 L-921.9 -897.4 L-922.9 -898.3 L-923.9 -899.2 L-923 -900.2 L-922.1 -901.2 L-921.2 -902.2 L-920.3 -903.2 L-919.5 -904.2 L-918.6 -905.2 L-917.7 -906.2 L-916.8 -907.2 L-915.9 -908.2 L-915 -909.2 L-914.1 -910.2 L-913.2 -911.2 L-912.3 -912.2 L-911.4 -913.2 L-910.5 -914.2 L-909.6 -915.2 L-908.7 -916.2 L-907.8 -917.2 L-906.9 -918.2 L-906 -919.2 L-905.1 -920.2 L-904.2 -921.2 L-903.3 -922.2 L-902.4 -923.2 L-901.5 -924.1 L-900.5 -923.3 L-899.5 -922.4 L-898.5 -921.5 L-897.5 -920.6 L-896.5 -919.7 L-895.5 -918.8 L-894.5 -917.9 L-893.5 -917 L-892.5 -916.1 L-891.5 -915.2 L-890.6 -914.3 L-889.6 -913.4 L-888.6 -912.5 L-887.6 -911.6 L-886.6 -910.7 L-885.6 -909.8 L-884.6 -908.9 L-883.6 -908 L-882.6 -907.1 L-881.6 -906.2 L-880.6 -905.3 L-879.6 -904.4 L-878.6 -903.6 L-877.6 -902.7 L-876.6 -901.8 L-877.5 -900.8 L-878.4 -899.8 L-879.2 -898.8 L-880.1 -897.8 L-881 -896.8 L-881.9 -895.8 L-882.8 -894.8 L-883.7 -893.8 L-884.6 -892.8 L-885.5 -891.8 L-886.4 -890.8 L-887.3 -889.8 L-888.2 -888.8 L-889.1 -887.8 L-890 -886.8 L-890.9 -885.8 L-891.8 -884.8 L-892.7 -883.8 L-893.6 -882.8 L-894.5 -881.8 L-895.4 -880.8 L-896.3 -879.8 L-897.2 -878.8 L-898.1 -877.8 L-899 -876.8 Z " />
<path stroke="rgb(0,0,0)" stroke-opacity="0.981" fill="rgb(255,255,255)" fill-opacity="1" d="M-75.35 -199.6 L-75.45 -197.7 L-75.72 -195.7 L-76.13 -193.8 L-76.7 -191.9 L-77.42 -190.1 L-78.27 -188.3 L-79.27 -186.7 L-80.39 -185.1 L-81.64 -183.5 L-83.01 -182.1 L-84.48 -180.8 L-86.05 -179.7 L-87.71 -178.6 L-89.45 -177.7 L-91.25 -177 L-93.11 -176.3 L-95.01 -175.9 L-96.95 -175.5 L-98.9 -175.4 L-100.9 -175.4 L-102.8 -175.5 L-104.8 -175.8 L-106.7 -176.3 L-108.5 -176.9 L-110.3 -177.6 L-112.1 -178.5 L-113.8 -179.5 L-115.3 -180.7 L-116.8 -182 L-118.2 -183.4 L-119.5 -184.9 L-120.6 -186.5 L-121.6 -188.1 L-122.5 -189.9 L-123.2 -191.7 L-123.8 -193.6 L-124.2 -195.5 L-124.5 -197.4 L-124.6 -199.4 L-124.6 -201.4 L-124.4 -203.3 L-124.1 -205.2 L-123.6 -207.1 L-123 -209 L-122.2 -210.8 L-121.2 -212.5 L-120.2 -214.2 L-119 -215.7 L-117.7 -217.2 L-116.3 -218.5 L-114.7 -219.8 L-113.1 -220.9 L-111.4 -221.9 L-109.6 -222.7 L-107.8 -223.4 L-105.9 -223.9 L-104 -224.3 L-102.1 -224.6 L-100.1 -224.7 L-98.15 -224.6 L-96.2 -224.4 L-94.28 -224 L-92.39 -223.5 L-90.55 -222.8 L-88.77 -222 L-87.07 -221 L-85.44 -219.9 L-83.9 -218.7 L-82.47 -217.3 L-81.15 -215.9 L-79.95 -214.3 L-78.87 -212.7 L-77.93 -211 L-77.12 -209.2 L-76.47 -207.4 L-75.96 -205.5 L-75.6 -203.5 L-75.39 -201.6 L-75.35 -199.6 Z " />
<path stroke="rgb(0,0,0)" stroke-opacity="1" fill="rgb(255,255,255)" fill-opacity="1" d="M-689.8 -884.9 L-690.9 -885.1 L-691.9 -885.3 L-693 -885.5 L-694 -885.7 L-695 -885.9 L-696.1 -886.1 L-697.1 -886.3 L-698.1 -886.5 L-699.2 -886.7 L-700.2 -886.9 L-701.3 -887.1 L-702.3 -887.3 L-703.3 -887.5 L-704.4 -887.7 L-705.4 -887.9 L-706.5 -888.1 L-707.5 -888.3 L-708.5 -888.5 L-709.6 -888.7 L-710.6 -888.9 L-711.6 -889.1 L-712.7 -889.3 L-713.7 -889.5 L-714.8 -889.7 L-715.8 -889.9 L-715.6 -890.9 L-715.4 -892 L-715.2 -893 L-715 -894 L-714.8 -895.1 L-714.6 -896.1 L-714.4 -897.2 L-714.2 -898.2 L-714 -899.2 L-713.8 -900.3 L-713.6 -901.3 L-713.4 -902.3 L-713.2 -903.4 L-713 -904.4 L-712.8 -905.5 L-712.6 -906.5 L-712.4 -907.5 L-712.2 -908.6 L-712 -909.6 L-711.8 -910.7 L-711.6 -911.7 L-711.4 -912.7 L-711.2 -913.8 L-711 -914.8 L-710.8 -915.8 L-709.8 -915.6 L-708.8 -915.4 L-707.7 -915.2 L-706.7 -915.1 L-705.6 -914.9 L-704.6 -914.7 L-703.6 -914.5 L-702.5 -914.3 L-701.5 -914.1 L-700.4 -913.9 L-699.4 -913.7 L-698.4 -913.5 L-697.3 -913.3 L-696.3 -913.1 L-695.3 -912.9 L-694.2 -912.7 L-693.2 -912.5 L-692.1 -912.3 L-691.1 -912.1 L-690.1 -911.9 L-689 -911.7 L-688 -911.5 L-687 -911.3 L-685.9 -911.1 L-684.9 -910.9 L-685.1 -909.8 L-685.3 -908.8 L-685.5 -907.8 L-685.7 -906.7 L-685.9 -905.7 L-686.1 -904.7 L-686.3 -903.6 L-686.5 -902.6 L-686.7 -901.5 L-686.9 -900.5 L-687.1 -899.5 L-687.3 -898.4 L-687.5 -897.4 L-687.7 -896.3 L-687.9 -895.3 L-688.1 -894.3 L-688.3 -893.2 L-688.5 -892.2 L-688.7 -891.2 L-688.8 -890.1 L-689 -889.1 L-689.2 -888 L-689.4 -887 L-689.6 -886 L-689.8 -884.9 Z " />
<path stroke="rgb(0,0,0)" stroke-opacity="0.981" fill="rgb(255,255,255)" fill-opacity="1" d="M124.7 -199.6 L124.5 -197.7 L124.3 -195.7 L123.9 -193.8 L123.3 -191.9 L122.6 -190.1 L121.7 -188.3 L120.7 -186.7 L119.6 -185.1 L118.4 -183.5 L117 -182.1 L115.5 -180.8 L113.9 -179.7 L112.3 -178.6 L110.6 -177.7 L108.7 -177 L106.9 -176.3 L105 -175.9 L103.1 -175.5 L101.1 -175.4 L99.14 -175.4 L97.18 -175.5 L95.25 -175.8 L93.34 -176.3 L91.47 -176.9 L89.66 -177.6 L87.92 -178.5 L86.25 -179.5 L84.67 -180.7 L83.18 -182 L81.8 -183.4 L80.54 -184.9 L79.4 -186.5 L78.39 -188.1 L77.52 -189.9 L76.79 -191.7 L76.2 -193.6 L75.77 -195.5 L75.49 -197.4 L75.36 -199.4 L75.39 -201.4 L75.58 -203.3 L75.92 -205.2 L76.41 -207.1 L77.05 -209 L77.84 -210.8 L78.76 -212.5 L79.82 -214.2 L81.01 -215.7 L82.32 -217.2 L83.74 -218.5 L85.26 -219.8 L86.88 -220.9 L88.58 -221.9 L90.35 -222.7 L92.19 -223.4 L94.07 -223.9 L95.99 -224.3 L97.93 -224.6 L99.89 -224.7 L101.8 -224.6 L103.8 -224.4 L105.7 -224 L107.6 -223.5 L109.4 -222.8 L111.2 -222 L112.9 -221 L114.6 -219.9 L116.1 -218.7 L117.5 -217.3 L118.9 -215.9 L120.1 -214.3 L121.1 -212.7 L122.1 -211 L122.9 -209.2 L123.5 -207.4 L124 -205.5 L124.4 -203.5 L124.6 -201.6 L124.7 -199.6 Z " />
<path stroke="rgb(0,0,0)" stroke-opacity="1" fill="rgb(255,255,255)" fill-opacity="1" d="M-488.4 -887.8 L-489.4 -887.8 L-490.3 -887.8 L-491.3 -887.8 L-492.3 -887.9 L-493.3 -887.9 L-494.3 -887.9 L-495.3 -887.9 L-496.2 -888 L-497.2 -888 L-498.2 -888 L-499.2 -888 L-500.2 -888.1 L-501.2 -888.1 L-502.1 -888.1 L-503.1 -888.1 L-504.1 -888.2 L-505.1 -888.2 L-506.1 -888.2 L-507.1 -888.2 L-508 -888.3 L-509 -888.3 L-510 -888.3 L-511 -888.3 L-512 -888.4 L-513 -888.4 L-512.9 -889.4 L-512.9 -890.3 L-512.9 -891.3 L-512.9 -892.3 L-512.8 -893.3 L-512.8 -894.3 L-512.8 -895.3 L-512.8 -896.2 L-512.7 -897.2 L-512.7 -898.2 L-512.7 -899.2 L-512.7 -900.2 L-512.6 -901.2 L-512.6 -902.1 L-512.6 -903.1 L-512.6 -904.1 L-512.5 -905.1 L-512.5 -906.1 L-512.5 -907.1 L-512.5 -908 L-512.4 -909 L-512.4 -910 L-512.4 -911 L-512.4 -912 L-512.3 -913 L-511.3 -912.9 L-510.4 -912.9 L-509.4 -912.9 L-508.4 -912.9 L-507.4 -912.8 L-506.4 -912.8 L-505.4 -912.8 L-504.5 -912.8 L-503.5 -912.7 L-502.5 -912.7 L-501.5 -912.7 L-500.5 -912.7 L-499.5 -912.6 L-498.6 -912.6 L-497.6 -912.6 L-496.6 -912.6 L-495.6 -912.5 L-494.6 -912.5 L-493.6 -912.5 L-492.7 -912.5 L-491.7 -912.4 L-490.7 -912.4 L-489.7 -912.4 L-488.7 -912.4 L-487.8 -912.3 L-487.8 -911.4 L-487.8 -910.4 L-487.8 -909.4 L-487.9 -908.4 L-487.9 -907.4 L-487.9 -906.4 L-487.9 -905.5 L-487.9 -904.5 L-488 -903.5 L-488 -902.5 L-488 -901.5 L-488 -900.5 L-488.1 -899.6 L-488.1 -898.6 L-488.1 -897.6 L-488.1 -896.6 L-488.2 -895.6 L-488.2 -894.6 L-488.2 -893.7 L-488.2 -892.7 L-488.3 -891.7 L-488.3 -890.7 L-488.3 -889.7 L-488.3 -888.7 L-488.4 -887.8 Z " />
<path stroke="rgb(0,0,0)" stroke-opacity="0.981" fill="rgb(255,255,255)" fill-opacity="1" d="M324.7 -199.6 L324.5 -197.7 L324.3 -195.7 L323.9 -193.8 L323.3 -191.9 L322.6 -190.1 L321.7 -188.3 L320.7 -186.7 L319.6 -185.1 L318.4 -183.5 L317 -182.1 L315.5 -180.8 L313.9 -179.7 L312.3 -178.6 L310.6 -177.7 L308.7 -177 L306.9 -176.3 L305 -175.9 L303.1 -175.5 L301.1 -175.4 L299.1 -175.4 L297.2 -175.5 L295.2 -175.8 L293.3 -176.3 L291.5 -176.9 L289.7 -177.6 L287.9 -178.5 L286.2 -179.5 L284.7 -180.7 L283.2 -182 L281.8 -183.4 L280.5 -184.9 L279.4 -186.5 L278.4 -188.1 L277.5 -189.9 L276.8 -191.7 L276.2 -193.6 L275.8 -195.5 L275.5 -197.4 L275.4 -199.4 L275.4 -201.4 L275.6 -203.3 L275.9 -205.2 L276.4 -207.1 L277 -209 L277.8 -210.8 L278.8 -212.5 L279.8 -214.2 L281 -215.7 L282.3 -217.2 L283.7 -218.5 L285.3 -219.8 L286.9 -220.9 L288.6 -221.9 L290.4 -222.7 L292.2 -223.4 L294.1 -223.9 L296 -224.3 L297.9 -224.6 L299.9 -224.7 L301.8 -224.6 L303.8 -224.4 L305.7 -224 L307.6 -223.5 L309.4 -222.8 L311.2 -222 L312.9 -221 L314.6 -219.9 L316.1 -218.7 L317.5 -217.3 L318.9 -215.9 L320.1 -214.3 L321.1 -212.7 L322.1 -211 L322.9 -209.2 L323.5 -207.4 L324 -205.5 L324.4 -203.5 L324.6 -201.6 L324.7 -199.6 Z " />
<path stroke="rgb(0,0,0)" stroke-opacity="1" fill="rgb(255,255,255)" fill-opacity="1" d="M-999 -776.8 L-999.9 -777.7 L-1001 -778.6 L-1002 -779.5 L-1003 -780.4 L-1004 -781.3 L-1005 -782.2 L-1006 -783.1 L-1007 -783.9 L-1008 -784.8 L-1009 -785.7 L-1010 -786.6 L-1011 -787.5 L-1012 -788.4 L-1013 -789.3 L-1014 -790.2 L-1015 -791.1 L-1016 -792 L-1017 -792.9 L-1018 -793.8 L-1019 -794.7 L-1020 -795.6 L-1021 -796.5 L-1022 -797.4 L-1023 -798.3 L-1024 -799.2 L-1023 -800.2 L-1022 -801.2 L-1021 -802.2 L-1020 -803.2 L-1019 -804.2 L-1019 -805.2 L-1018 -806.2 L-1017 -807.2 L-1016 -808.2 L-1015 -809.2 L-1014 -810.2 L-1013 -811.2 L-1012 -812.2 L-1011 -813.2 L-1010 -814.2 L-1010 -815.2 L-1009 -816.2 L-1008 -817.2 L-1007 -818.2 L-1006 -819.2 L-1005 -820.2 L-1004 -821.2 L-1003 -822.2 L-1002 -823.2 L-1002 -824.1 L-1001 -823.3 L-999.5 -822.4 L-998.5 -821.5 L-997.5 -820.6 L-996.5 -819.7 L-995.5 -818.8 L-994.5 -817.9 L-993.5 -817 L-992.5 -816.1 L-991.5 -815.2 L-990.6 -814.3 L-989.6 -813.4 L-988.6 -812.5 L-987.6 -811.6 L-986.6 -810.7 L-985.6 -809.8 L-984.6 -808.9 L-983.6 -808 L-982.6 -807.1 L-981.6 -806.2 L-980.6 -805.3 L-979.6 -804.4 L-978.6 -803.6 L-977.6 -802.7 L-976.6 -801.8 L-977.5 -800.8 L-978.4 -799.8 L-979.2 -798.8 L-980.1 -797.8 L-981 -796.8 L-981.9 -795.8 L-982.8 -794.8 L-983.7 -793.8 L-984.6 -792.8 L-985.5 -791.8 L-986.4 -790.8 L-987.3 -789.8 L-988.2 -788.8 L-989.1 -787.8 L-990 -786.8 L-990.9 -785.8 L-991.8 -784.8 L-992.7 -783.8 L-993.6 -782.8 L-994.5 -781.8 L-995.4 -780.8 L-996.3 -779.8 L-997.2 -778.8 L-998.1 -777.8 L-999 -776.8 Z " />
<path stroke="rgb(0,0,0)" stroke-opacity="0.981" fill="rgb(255,255,255)" fill-opacity="1" d="M-175.3 -99.63 L-175.5 -97.67 L-175.7 -95.73 L-176.1 -93.81 L-176.7 -91.94 L-177.4 -90.11 L-178.3 -88.35 L-179.3 -86.66 L-180.4 -85.06 L-181.6 -83.54 L-183 -82.14 L-184.5 -80.85 L-186.1 -79.67 L-187.7 -78.63 L-189.4 -77.72 L-191.3 -76.95 L-193.1 -76.33 L-195 -75.86 L-196.9 -75.54 L-198.9 -75.38 L-200.9 -75.37 L-202.8 -75.51 L-204.8 -75.82 L-206.7 -76.27 L-208.5 -76.88 L-210.3 -77.63 L-212.1 -78.52 L-213.8 -79.55 L-215.3 -80.7 L-216.8 -81.98 L-218.2 -83.38 L-219.5 -84.88 L-220.6 -86.47 L-221.6 -88.15 L-222.5 -89.9 L-223.2 -91.72 L-223.8 -93.59 L-224.2 -95.51 L-224.5 -97.45 L-224.6 -99.4 L-224.6 -101.4 L-224.4 -103.3 L-224.1 -105.2 L-223.6 -107.1 L-223 -109 L-222.2 -110.8 L-221.2 -112.5 L-220.2 -114.2 L-219 -115.7 L-217.7 -117.2 L-216.3 -118.5 L-214.7 -119.8 L-213.1 -120.9 L-211.4 -121.9 L-209.6 -122.7 L-207.8 -123.4 L-205.9 -123.9 L-204 -124.3 L-202.1 -124.6 L-200.1 -124.7 L-198.2 -124.6 L-196.2 -124.4 L-194.3 -124 L-192.4 -123.5 L-190.6 -122.8 L-188.8 -122 L-187.1 -121 L-185.4 -119.9 L-183.9 -118.7 L-182.5 -117.3 L-181.1 -115.9 L-179.9 -114.3 L-178.9 -112.7 L-177.9 -111 L-177.1 -109.2 L-176.5 -107.4 L-176 -105.5 L-175.6 -103.5 L-175.4 -101.6 L-175.3 -99.63 Z " />
<path stroke="rgb(0,0,0)" stroke-opacity="1" fill="rgb(255,255,255)" fill-opacity="1" d="M-789.8 -784.9 L-790.9 -785.1 L-791.9 -785.3 L-793 -785.5 L-794 -785.7 L-795 -785.9 L-796.1 -786.1 L-797.1 -786.3 L-798.1 -786.5 L-799.2 -786.7 L-800.2 -786.9 L-801.3 -787.1 L-802.3 -787.3 L-803.3 -787.5 L-804.4 -787.7 L-805.4 -787.9 L-806.5 -788.1 L-807.5 -788.3 L-808.5 -788.5 L-809.6 -788.7 L-810.6 -788.9 L-811.6 -789.1 L-812.7 -789.3 L-813.7 -789.5 L-814.8 -789.7 L-815.8 -789.9 L-815.6 -790.9 L-815.4 -792 L-815.2 -793 L-815 -794 L-814.8 -795.1 L-814.6 -796.1 L-814.4 -797.2 L-814.2 -798.2 L-814 -799.2 L-813.8 -800.3 L-813.6 -801.3 L-813.4 -802.3 L-813.2 -803.4 L-813 -804.4 L-812.8 -805.5 L-812.6 -806.5 L-812.4 -807.5 L-812.2 -808.6 L-812 -809.6 L-811.8 -810.7 L-811.6 -811.7 L-811.4 -812.7 L-811.2 -813.8 L-811 -814.8 L-810.8 -815.8 L-809.8 -815.6 L-808.8 -815.4 L-807.7 -815.2 L-806.7 -815.1 L-805.6 -814.9 L-804.6 -814.7 L-803.6 -814.5 L-802.5 -814.3 L-801.5 -814.1 L-800.4 -813.9 L-799.4 -813.7 L-798.4 -813.5 L-797.3 -813.3 L-796.3 -813.1 L-795.3 -812.9 L-794.2 -812.7 L-793.2 -812.5 L-792.1 -812.3 L-791.1 -812.1 L-790.1 -811.9 L-789 -811.7 L-788 -811.5 L-787 -811.3 L-785.9 -811.1 L-784.9 -810.9 L-785.1 -809.8 L-785.3 -808.8 L-785.5 -807.8 L-785.7 -806.7 L-785.9 -805.7 L-786.1 -804.7 L-786.3 -803.6 L-786.5 -802.6 L-786.7 -801.5 L-786.9 -800.5 L-787.1 -799.5 L-787.3 -798.4 L-787.5 -797.4 L-787.7 -796.3 L-787.9 -795.3 L-788.1 -794.3 L-788.3 -793.2 L-788.5 -792.2 L-788.7 -791.2 L-788.8 -790.1 L-789 -789.1 L-789.2 -788 L-789.4 -787 L-789.6 -786 L-789.8 -784.9 Z " />
<path stroke="rgb(0,0,0)" stroke-opacity="0.981" fill="rgb(255,255,255)" fill-opacity="1" d="M24.65 -99.63 L24.55 -97.67 L24.28 -95.73 L23.87 -93.81 L23.3 -91.94 L22.58 -90.11 L21.73 -88.35 L20.73 -86.66 L19.61 -85.06 L18.36 -83.54 L16.99 -82.14 L15.52 -80.85 L13.95 -79.67 L12.29 -78.63 L10.55 -77.72 L8.746 -76.95 L6.887 -76.33 L4.985 -75.86 L3.051 -75.54 L1.098 -75.38 L-0.8623 -75.37 L-2.817 -75.51 L-4.754 -75.82 L-6.661 -76.27 L-8.525 -76.88 L-10.34 -77.63 L-12.08 -78.52 L-13.75 -79.55 L-15.33 -80.7 L-16.82 -81.98 L-18.2 -83.38 L-19.46 -84.88 L-20.6 -86.47 L-21.61 -88.15 L-22.48 -89.9 L-23.21 -91.72 L-23.8 -93.59 L-24.23 -95.51 L-24.51 -97.45 L-24.64 -99.4 L-24.61 -101.4 L-24.42 -103.3 L-24.08 -105.2 L-23.59 -107.1 L-22.95 -109 L-22.16 -110.8 L-21.24 -112.5 L-20.18 -114.2 L-18.99 -115.7 L-17.68 -117.2 L-16.26 -118.5 L-14.74 -119.8 L-13.12 -120.9 L-11.42 -121.9 L-9.647 -122.7 L-7.814 -123.4 L-5.932 -123.9 L-4.012 -124.3 L-2.067 -124.6 L-0.1091 -124.7 L1.85 -124.6 L3.797 -124.4 L5.72 -124 L7.608 -123.5 L9.447 -122.8 L11.23 -122 L12.93 -121 L14.56 -119.9 L16.1 -118.7 L17.53 -117.3 L18.85 -115.9 L20.05 -114.3 L21.13 -112.7 L22.07 -111 L22.88 -109.2 L23.53 -107.4 L24.04 -105.5 L24.4 -103.5 L24.61 -101.6 L24.65 -99.63 Z " />
<path stroke="rgb(0,0,0)" stroke-opacity="1" fill="rgb(255,255,255)" fill-opacity="1" d="M-588.4 -787.8 L-589.4 -787.8 L-590.3 -787.8 L-591.3 -787.8 L-592.3 -787.9 L-593.3 -787.9 L-594.3 -787.9 L-595.3 -787.9 L-596.2 -788 L-597.2 -788 L-598.2 -788 L-599.2 -788 L-600.2 -788.1 L-601.2 -788.1 L-602.1 -788.1 L-603.1 -788.1 L-604.1 -788.2 L-605.1 -788.2 L-606.1 -788.2 L-607.1 -788.2 L-608 -788.3 L-609 -788.3 L-610 -788.3 L-611 -788.3 L-612 -788.4 L-613 -788.4 L-612.9 -789.4 L-612.9 -790.3 L-612.9 -791.3 L-612.9 -792.3 L-612.8 -793.3 L-612.8 -794.3 L-612.8 -795.3 L-612.8 -796.2 L-612.7 -797.2 L-612.7 -798.2 L-612.7 -799.2 L-612.7 -800.2 L-612.6 -801.2 L-612.6 -802.1 L-612.6 -803.1 L-612.6 -804.1 L-612.5 -805.1 L-612.5 -806.1 L-612.5 -807.1 L-612.5 -808 L-612.4 -809 L-612.4 -810 L-612.4 -811 L-612.4 -812 L-612.3 -813 L-611.3 -812.9 L-610.4 -812.9 L-609.4 -812.9 L-608.4 -812.9 L-607.4 -812.8 L-606.4 -812.8 L-605.4 -812.8 L-604.5 -812.8 L-603.5 -812.7 L-602.5 -812.7 L-601.5 -812.7 L-600.5 -812.7 L-599.5 -812.6 L-598.6 -812.6 L-597.6 -812.6 L-596.6 -812.6 L-595.6 -812.5 L-594.6 -812.5 L-593.6 -812.5 L-592.7 -812.5 L-591.7 -812.4 L-590.7 -812.4 L-589.7 -812.4 L-588.7 -812.4 L-587.8 -812.3 L-587.8 -811.4 L-587.8 -810.4 L-587.8 -809.4 L-587.9 -808.4 L-587.9 -807.4 L-587.9 -806.4 L-587.9 -805.5 L-587.9 -804.5 L-588 -803.5 L-588 -802.5 L-588 -801.5 L-588 -800.5 L-588.1 -799.6 L-588.1 -798.6 L-588.1 -797.6 L-588.1 -796.6 L-588.2 -795.6 L-588.2 -794.6 L-588.2 -793.7 L-588.2 -792.7 L-588.3 -791.7 L-588.3 -790.7 L-588.3 -789.7 L-588.3 -788.7 L-588.4 -787.8 Z " />
<path stroke="rgb(0,0,0)" stroke-opacity="0.981" fill="rgb(255,255,255)" fill-opacity="1" d="M224.7 -99.63 L224.5 -97.67 L224.3 -95.73 L223.9 -93.81 L223.3 -91.94 L222.6 -90.11 L221.7 -88.35 L220.7 -86.66 L219.6 -85.06 L218.4 -83.54 L217 -82.14 L215.5 -80.85 L213.9 -79.67 L212.3 -78.63 L210.6 -77.72 L208.7 -76.95 L206.9 -76.33 L205 -75.86 L203.1 -75.54 L201.1 -75.38 L199.1 -75.37 L197.2 -75.51 L195.2 -75.82 L193.3 -76.27 L191.5 -76.88 L189.7 -77.63 L187.9 -78.52 L186.2 -79.55 L184.7 -80.7 L183.2 -81.98 L181.8 -83.38 L180.5 -84.88 L179.4 -86.47 L178.4 -88.15 L177.5 -89.9 L176.8 -91.72 L176.2 -93.59 L175.8 -95.51 L175.5 -97.45 L175.4 -99.4 L175.4 -101.4 L175.6 -103.3 L175.9 -105.2 L176.4 -107.1 L177 -109 L177.8 -110.8 L178.8 -112.5 L179.8 -114.2 L181 -115.7 L182.3 -117.2 L183.7 -118.5 L185.3 -119.8 L186.9 -120.9 L188.6 -121.9 L190.4 -122.7 L192.2 -123.4 L194.1 -123.9 L196 -124.3 L197.9 -124.6 L199.9 -124.7 L201.8 -124.6 L203.8 -124.4 L205.7 -124 L207.6 -123.5 L209.4 -122.8 L211.2 -122 L212.9 -121 L214.6 -119.9 L216.1 -118.7 L217.5 -117.3 L218.9 -115.9 L220.1 -114.3 L221.1 -112.7 L222.1 -111 L222.9 -109.2 L223.5 -107.4 L224 -105.5 L224.4 -103.5 L224.6 -101.6 L224.7 -99.63 Z " />
<path stroke="rgb(0,0,0)" stroke-opacity="1" fill="rgb(255,255,255)" fill-opacity="1" d="M-388.3 -788 L-389.3 -788 L-390.3 -788 L-391.2 -788 L-392.2 -788 L-393.2 -788 L-394.2 -788 L-395.1 -788 L-396.1 -788.1 L-397.1 -788.1 L-398.1 -788.1 L-399.1 -788.1 L-400 -788.1 L-401 -788.1 L-402 -788.1 L-403 -788.2 L-403.9 -788.2 L-404.9 -788.2 L-405.9 -788.2 L-406.9 -788.2 L-407.9 -788.2 L-408.8 -788.2 L-409.8 -788.3 L-410.8 -788.3 L-411.8 -788.3 L-412.8 -788.3 L-412.7 -789.3 L-412.7 -790.3 L-412.7 -791.2 L-412.7 -792.2 L-412.7 -793.2 L-412.7 -794.2 L-412.7 -795.1 L-412.6 -796.1 L-412.6 -797.1 L-412.6 -798.1 L-412.6 -799.1 L-412.6 -800 L-412.6 -801 L-412.6 -802 L-412.5 -803 L-412.5 -804 L-412.5 -804.9 L-412.5 -805.9 L-412.5 -806.9 L-412.5 -807.9 L-412.5 -808.8 L-412.5 -809.8 L-412.4 -810.8 L-412.4 -811.8 L-412.4 -812.8 L-411.4 -812.7 L-410.5 -812.7 L-409.5 -812.7 L-408.5 -812.7 L-407.5 -812.7 L-406.5 -812.7 L-405.6 -812.7 L-404.6 -812.6 L-403.6 -812.6 L-402.6 -812.6 L-401.6 -812.6 L-400.7 -812.6 L-399.7 -812.6 L-398.7 -812.6 L-397.7 -812.6 L-396.8 -812.5 L-395.8 -812.5 L-394.8 -812.5 L-393.8 -812.5 L-392.8 -812.5 L-391.9 -812.5 L-390.9 -812.5 L-389.9 -812.4 L-388.9 -812.4 L-387.9 -812.4 L-388 -811.4 L-388 -810.5 L-388 -809.5 L-388 -808.5 L-388 -807.5 L-388 -806.5 L-388 -805.6 L-388.1 -804.6 L-388.1 -803.6 L-388.1 -802.6 L-388.1 -801.7 L-388.1 -800.7 L-388.1 -799.7 L-388.1 -798.7 L-388.2 -797.7 L-388.2 -796.8 L-388.2 -795.8 L-388.2 -794.8 L-388.2 -793.8 L-388.2 -792.8 L-388.2 -791.9 L-388.3 -790.9 L-388.3 -789.9 L-388.3 -788.9 L-388.3 -788 Z " />
<path stroke="rgb(0,0,0)" stroke-opacity="0.981" fill="rgb(255,255,255)" fill-opacity="1" d="M-275.3 0.372 L-275.5 2.329 L-275.7 4.272 L-276.1 6.187 L-276.7 8.063 L-277.4 9.889 L-278.3 11.65 L-279.3 13.34 L-280.4 14.94 L-281.6 16.46 L-283 17.86 L-284.5 19.15 L-286.1 20.33 L-287.7 21.37 L-289.4 22.28 L-291.3 23.05 L-293.1 23.67 L-295 24.14 L-296.9 24.46 L-298.9 24.62 L-300.9 24.63 L-302.8 24.49 L-304.8 24.18 L-306.7 23.73 L-308.5 23.12 L-310.3 22.37 L-312.1 21.48 L-313.8 20.45 L-315.3 19.3 L-316.8 18.02 L-318.2 16.62 L-319.5 15.12 L-320.6 13.53 L-321.6 11.85 L-322.5 10.1 L-323.2 8.277 L-323.8 6.406 L-324.2 4.495 L-324.5 2.555 L-324.6 0.5989 L-324.6 -1.361 L-324.4 -3.312 L-324.1 -5.243 L-323.6 -7.14 L-323 -8.992 L-322.2 -10.79 L-321.2 -12.52 L-320.2 -14.16 L-319 -15.72 L-317.7 -17.18 L-316.3 -18.53 L-314.7 -19.77 L-313.1 -20.87 L-311.4 -21.85 L-309.6 -22.69 L-307.8 -23.38 L-305.9 -23.93 L-304 -24.33 L-302.1 -24.57 L-300.1 -24.66 L-298.2 -24.59 L-296.2 -24.36 L-294.3 -23.98 L-292.4 -23.46 L-290.6 -22.78 L-288.8 -21.95 L-287.1 -20.99 L-285.4 -19.9 L-283.9 -18.68 L-282.5 -17.34 L-281.1 -15.9 L-279.9 -14.35 L-278.9 -12.71 L-277.9 -10.99 L-277.1 -9.203 L-276.5 -7.357 L-276 -5.464 L-275.6 -3.537 L-275.4 -1.588 L-275.3 0.372 Z " />
<path stroke="rgb(0,0,0)" stroke-opacity="1" fill="rgb(255,255,255)" fill-opacity="1" d="M-889.8 -684.9 L-890.9 -685.1 L-891.9 -685.3 L-893 -685.5 L-894 -685.7 L-895 -685.9 L-896.1 -686.1 L-897.1 -686.3 L-898.1 -686.5 L-899.2 -686.7 L-900.2 -686.9 L-901.3 -687.1 L-902.3 -687.3 L-903.3 -687.5 L-904.4 -687.7 L-905.4 -687.9 L-906.5 -688.1 L-907.5 -688.3 L-908.5 -688.5 L-909.6 -688.7 L-910.6 -688.9 L-911.6 -689.1 L-912.7 -689.3 L-913.7 -689.5 L-914.8 -689.7 L-915.8 -689.9 L-915.6 -690.9 L-915.4 -692 L-915.2 -693 L-915 -694 L-914.8 -695.1 L-914.6 -696.1 L-914.4 -697.2 L-914.2 -698.2 L-914 -699.2 L-913.8 -700.3 L-913.6 -701.3 L-913.4 -702.3 L-913.2 -703.4 L-913 -704.4 L-912.8 -705.5 L-912.6 -706.5 L-912.4 -707.5 L-912.2 -708.6 L-912 -709.6 L-911.8 -710.7 L-911.6 -711.7 L-911.4 -712.7 L-911.2 -713.8 L-911 -714.8 L-910.8 -715.8 L-909.8 -715.6 L-908.8 -715.4 L-907.7 -715.2 L-906.7 -715.1 L-905.6 -714.9 L-904.6 -714.7 L-903.6 -714.5 L-902.5 -714.3 L-901.5 -714.1 L-900.4 -713.9 L-899.4 -713.7 L-898.4 -713.5 L-897.3 -713.3 L-896.3 -713.1 L-895.3 -712.9 L-894.2 -712.7 L-893.2 -712.5 L-892.1 -712.3 L-891.1 -712.1 L-890.1 -711.9 L-889 -711.7 L-888 -711.5 L-887 -711.3 L-885.9 -711.1 L-884.9 -710.9 L-885.1 -709.8 L-885.3 -708.8 L-885.5 -707.8 L-885.7 -706.7 L-885.9 -705.7 L-886.1 -704.7 L-886.3 -703.6 L-886.5 -702.6 L-886.7 -701.5 L-886.9 -700.5 L-887.1 -699.5 L-887.3 -698.4 L-887.5 -697.4 L-887.7 -696.3 L-887.9 -695.3 L-888.1 -694.3 L-888.3 -693.2 L-888.5 -692.2 L-888.7 -691.2 L-888.8 -690.1 L-889 -689.1 L-889.2 -688 L-889.4 -687 L-889.6 -686 L-889.8 -684.9 Z " />
<path stroke="rgb(0,0,0)" stroke-opacity="0.981" fill="rgb(255,255,255)" fill-opacity="1" d="M-75.35 0.372 L-75.45 2.329 L-75.72 4.272 L-76.13 6.187 L-76.7 8.063 L-77.42 9.889 L-78.27 11.65 L-79.27 13.34 L-80.39 14.94 L-81.64 16.46 L-83.01 17.86 L-84.48 19.15 L-86.05 20.33 L-87.71 21.37 L-89.45 22.28 L-91.25 23.05 L-93.11 23.67 L-95.01 24.14 L-96.95 24.46 L-98.9 24.62 L-100.9 24.63 L-102.8 24.49 L-104.8 24.18 L-106.7 23.73 L-108.5 23.12 L-110.3 22.37 L-112.1 21.48 L-113.8 20.45 L-115.3 19.3 L-116.8 18.02 L-118.2 16.62 L-119.5 15.12 L-120.6 13.53 L-121.6 11.85 L-122.5 10.1 L-123.2 8.277 L-123.8 6.406 L-124.2 4.495 L-124.5 2.555 L-124.6 0.5989 L-124.6 -1.361 L-124.4 -3.312 L-124.1 -5.243 L-123.6 -7.14 L-123 -8.992 L-122.2 -10.79 L-121.2 -12.52 L-120.2 -14.16 L-119 -15.72 L-117.7 -17.18 L-116.3 -18.53 L-114.7 -19.77 L-113.1 -20.87 L-111.4 -21.85 L-109.6 -22.69 L-107.8 -23.38 L-105.9 -23.93 L-104 -24.33 L-102.1 -24.57 L-100.1 -24.66 L-98.15 -24.59 L-96.2 -24.36 L-94.28 -23.98 L-92.39 -23.46 L-90.55 -22.78 L-88.77 -21.95 L-87.07 -20.99 L-85.44 -19.9 L-83.9 -18.68 L-82.47 -17.34 L-81.15 -15.9 L-79.95 -14.35 L-78.87 -12.71 L-77.93 -10.99 L-77.12 -9.203 L-76.47 -7.357 L-75.96 -5.464 L-75.6 -3.537 L-75.39 -1.588 L-75.35 0.372 Z " />
<path stroke="rgb(0,0,0)" stroke-opacity="1" fill="rgb(255,255,255)" fill-opacity="1" d="M-688.4 -687.8 L-689.4 -687.8 L-690.3 -687.8 L-691.3 -687.8 L-692.3 -687.9 L-693.3 -687.9 L-694.3 -687.9 L-695.3 -687.9 L-696.2 -688 L-697.2 -688 L-698.2 -688 L-699.2 -688 L-700.2 -688.1 L-701.2 -688.1 L-702.1 -688.1 L-703.1 -688.1 L-704.1 -688.2 L-705.1 -688.2 L-706.1 -688.2 L-707.1 -688.2 L-708 -688.3 L-709 -688.3 L-710 -688.3 L-711 -688.3 L-712 -688.4 L-713 -688.4 L-712.9 -689.4 L-712.9 -690.3 L-712.9 -691.3 L-712.9 -692.3 L-712.8 -693.3 L-712.8 -694.3 L-712.8 -695.3 L-712.8 -696.2 L-712.7 -697.2 L-712.7 -698.2 L-712.7 -699.2 L-712.7 -700.2 L-712.6 -701.2 L-712.6 -702.1 L-712.6 -703.1 L-712.6 -704.1 L-712.5 -705.1 L-712.5 -706.1 L-712.5 -707.1 L-712.5 -708 L-712.4 -709 L-712.4 -710 L-712.4 -711 L-712.4 -712 L-712.3 -713 L-711.3 -712.9 L-710.4 -712.9 L-709.4 -712.9 L-708.4 -712.9 L-707.4 -712.8 L-706.4 -712.8 L-705.4 -712.8 L-704.5 -712.8 L-703.5 -712.7 L-702.5 -712.7 L-701.5 -712.7 L-700.5 -712.7 L-699.5 -712.6 L-698.6 -712.6 L-697.6 -712.6 L-696.6 -712.6 L-695.6 -712.5 L-694.6 -712.5 L-693.6 -712.5 L-692.7 -712.5 L-691.7 -712.4 L-690.7 -712.4 L-689.7 -712.4 L-688.7 -712.4 L-687.8 -712.3 L-687.8 -711.4 L-687.8 -710.4 L-687.8 -709.4 L-687.9 -708.4 L-687.9 -707.4 L-687.9 -706.4 L-687.9 -705.5 L-687.9 -704.5 L-688 -703.5 L-688 -702.5 L-688 -701.5 L-688 -700.5 L-688.1 -699.6 L-688.1 -698.6 L-688.1 -697.6 L-688.1 -696.6 L-688.2 -695.6 L-688.2 -694.6 L-688.2 -693.7 L-688.2 -692.7 L-688.3 -691.7 L-688.3 -690.7 L-688.3 -689.7 L-688.3 -688.7 L-688.4 -687.8 Z " />
<path stroke="rgb(0,0,0)" stroke-opacity="0.981" fill="rgb(255,255,255)" fill-opacity="1" d="M124.7 0.372 L124.5 2.329 L124.3 4.272 L123.9 6.187 L123.3 8.063 L122.6 9.889 L121.7 11.65 L120.7 13.34 L119.6 14.94 L118.4 16.46 L117 17.86 L115.5 19.15 L113.9 20.33 L112.3 21.37 L110.6 22.28 L108.7 23.05 L106.9 23.67 L105 24.14 L103.1 24.46 L101.1 24.62 L99.14 24.63 L97.18 24.49 L95.25 24.18 L93.34 23.73 L91.47 23.12 L89.66 22.37 L87.92 21.48 L86.25 20.45 L84.67 19.3 L83.18 18.02 L81.8 16.62 L80.54 15.12 L79.4 13.53 L78.39 11.85 L77.52 10.1 L76.79 8.277 L76.2 6.406 L75.77 4.495 L75.49 2.555 L75.36 0.5989 L75.39 -1.361 L75.58 -3.312 L75.92 -5.243 L76.41 -7.14 L77.05 -8.992 L77.84 -10.79 L78.76 -12.52 L79.82 -14.16 L81.01 -15.72 L82.32 -17.18 L83.74 -18.53 L85.26 -19.77 L86.88 -20.87 L88.58 -21.85 L90.35 -22.69 L92.19 -23.38 L94.07 -23.93 L95.99 -24.33 L97.93 -24.57 L99.89 -24.66 L101.8 -24.59 L103.8 -24.36 L105.7 -23.98 L107.6 -23.46 L109.4 -22.78 L111.2 -21.95 L112.9 -20.99 L114.6 -19.9 L116.1 -18.68 L117.5 -17.34 L118.9 -15.9 L120.1 -14.35 L121.1 -12.71 L122.1 -10.99 L122.9 -9.203 L123.5 -7.357 L124 -5.464 L124.4 -3.537 L124.6 -1.588 L124.7 0.372 Z " />
<path stroke="rgb(0,0,0)" stroke-opacity="1" fill="rgb(255,255,255)" fill-opacity="1" d="M-488.3 -688 L-489.3 -688 L-490.3 -688 L-491.2 -688 L-492.2 -688 L-493.2 -688 L-494.2 -688 L-495.1 -688 L-496.1 -688.1 L-497.1 -688.1 L-498.1 -688.1 L-499.1 -688.1 L-500 -688.1 L-501 -688.1 L-502 -688.1 L-503 -688.2 L-503.9 -688.2 L-504.9 -688.2 L-505.9 -688.2 L-506.9 -688.2 L-507.9 -688.2 L-508.8 -688.2 L-509.8 -688.3 L-510.8 -688.3 L-511.8 -688.3 L-512.8 -688.3 L-512.7 -689.3 L-512.7 -690.3 L-512.7 -691.2 L-512.7 -692.2 L-512.7 -693.2 L-512.7 -694.2 L-512.7 -695.1 L-512.6 -696.1 L-512.6 -697.1 L-512.6 -698.1 L-512.6 -699.1 L-512.6 -700 L-512.6 -701 L-512.6 -702 L-512.5 -703 L-512.5 -704 L-512.5 -704.9 L-512.5 -705.9 L-512.5 -706.9 L-512.5 -707.9 L-512.5 -708.8 L-512.5 -709.8 L-512.4 -710.8 L-512.4 -711.8 L-512.4 -712.8 L-511.4 -712.7 L-510.5 -712.7 L-509.5 -712.7 L-508.5 -712.7 L-507.5 -712.7 L-506.5 -712.7 L-505.6 -712.7 L-504.6 -712.6 L-503.6 -712.6 L-502.6 -712.6 L-501.6 -712.6 L-500.7 -712.6 L-499.7 -712.6 L-498.7 -712.6 L-497.7 -712.6 L-496.8 -712.5 L-495.8 -712.5 L-494.8 -712.5 L-493.8 -712.5 L-492.8 -712.5 L-491.9 -712.5 L-490.9 -712.5 L-489.9 -712.4 L-488.9 -712.4 L-487.9 -712.4 L-488 -711.4 L-488 -710.5 L-488 -709.5 L-488 -708.5 L-488 -707.5 L-488 -706.5 L-488 -705.6 L-488.1 -704.6 L-488.1 -703.6 L-488.1 -702.6 L-488.1 -701.7 L-488.1 -700.7 L-488.1 -699.7 L-488.1 -698.7 L-488.2 -697.7 L-488.2 -696.8 L-488.2 -695.8 L-488.2 -694.8 L-488.2 -693.8 L-488.2 -692.8 L-488.2 -691.9 L-488.3 -690.9 L-488.3 -689.9 L-488.3 -688.9 L-488.3 -688 Z " />
<path stroke="rgb(0,0,0)" stroke-opacity="0.981" fill="rgb(255,255,255)" fill-opacity="1" d="M324.7 0.372 L324.5 2.329 L324.3 4.272 L323.9 6.187 L323.3 8.063 L322.6 9.889 L321.7 11.65 L320.7 13.34 L319.6 14.94 L318.4 16.46 L317 17.86 L315.5 19.15 L313.9 20.33 L312.3 21.37 L310.6 22.28 L308.7 23.05 L306.9 23.67 L305 24.14 L303.1 24.46 L301.1 24.62 L299.1 24.63 L297.2 24.49 L295.2 24.18 L293.3 23.73 L291.5 23.12 L289.7 22.37 L287.9 21.48 L286.2 20.45 L284.7 19.3 L283.2 18.02 L281.8 16.62 L280.5 15.12 L279.4 13.53 L278.4 11.85 L277.5 10.1 L276.8 8.277 L276.2 6.406 L275.8 4.495 L275.5 2.555 L275.4 0.5989 L275.4 -1.361 L275.6 -3.312 L275.9 -5.243 L276.4 -7.14 L277 -8.992 L277.8 -10.79 L278.8 -12.52 L279.8 -14.16 L281 -15.72 L282.3 -17.18 L283.7 -18.53 L285.3 -19.77 L286.9 -20.87 L288.6 -21.85 L290.4 -22.69 L292.2 -23.38 L294.1 -23.93 L296 -24.33 L297.9 -24.57 L299.9 -24.66 L301.8 -24.59 L303.8 -24.36 L305.7 -23.98 L307.6 -23.46 L309.4 -22.78 L311.2 -21.95 L312.9 -20.99 L314.6 -19.9 L316.1 -18.68 L317.5 -17.34 L318.9 -15.9 L320.1 -14.35 L321.1 -12.71 L322.1 -10.99 L322.9 -9.203 L323.5 -7.357 L324 -5.464 L324.4 -3.537 L324.6 -1.588 L324.7 0.372 Z " />
<path stroke="rgb(0,0,0)" stroke-opacity="1" fill="rgb(255,255,255)" fill-opacity="1" d="M-989.8 -584.9 L-990.9 -585.1 L-991.9 -585.3 L-993 -585.5 L-994 -585.7 L-995 -585.9 L-996.1 -586.1 L-997.1 -586.3 L-998.1 -586.5 L-999.2 -586.7 L-1000 -586.9 L-1001 -587.1 L-1002 -587.3 L-1003 -587.5 L-1004 -587.7 L-1005 -587.9 L-1006 -588.1 L-1007 -588.3 L-1009 -588.5 L-1010 -588.7 L-1011 -588.9 L-1012 -589.1 L-1013 -589.3 L-1014 -589.5 L-1015 -589.7 L-1016 -589.9 L-1016 -590.9 L-1015 -592 L-1015 -593 L-1015 -594 L-1015 -595.1 L-1015 -596.1 L-1014 -597.2 L-1014 -598.2 L-1014 -599.2 L-1014 -600.3 L-1014 -601.3 L-1013 -602.3 L-1013 -603.4 L-1013 -604.4 L-1013 -605.5 L-1013 -606.5 L-1012 -607.5 L-1012 -608.6 L-1012 -609.6 L-1012 -610.7 L-1012 -611.7 L-1011 -612.7 L-1011 -613.8 L-1011 -614.8 L-1011 -615.8 L-1010 -615.6 L-1009 -615.4 L-1008 -615.2 L-1007 -615.1 L-1006 -614.9 L-1005 -614.7 L-1004 -614.5 L-1003 -614.3 L-1001 -614.1 L-1000 -613.9 L-999.4 -613.7 L-998.4 -613.5 L-997.3 -613.3 L-996.3 -613.1 L-995.3 -612.9 L-994.2 -612.7 L-993.2 -612.5 L-992.1 -612.3 L-991.1 -612.1 L-990.1 -611.9 L-989 -611.7 L-988 -611.5 L-987 -611.3 L-985.9 -611.1 L-984.9 -610.9 L-985.1 -609.8 L-985.3 -608.8 L-985.5 -607.8 L-985.7 -606.7 L-985.9 -605.7 L-986.1 -604.7 L-986.3 -603.6 L-986.5 -602.6 L-986.7 -601.5 L-986.9 -600.5 L-987.1 -599.5 L-987.3 -598.4 L-987.5 -597.4 L-987.7 -596.3 L-987.9 -595.3 L-988.1 -594.3 L-988.3 -593.2 L-988.5 -592.2 L-988.7 -591.2 L-988.8 -590.1 L-989 -589.1 L-989.2 -588 L-989.4 -587 L-989.6 -586 L-989.8 -584.9 Z " />
<path stroke="rgb(0,0,0)" stroke-opacity="0.981" fill="rgb(255,255,255)" fill-opacity="1" d="M-175.3 100.4 L-175.5 102.3 L-175.7 104.3 L-176.1 106.2 L-176.7 108.1 L-177.4 109.9 L-178.3 111.7 L-179.3 113.3 L-180.4 114.9 L-181.6 116.5 L-183 117.9 L-184.5 119.2 L-186.1 120.3 L-187.7 121.4 L-189.4 122.3 L-191.3 123 L-193.1 123.7 L-195 124.1 L-196.9 124.5 L-198.9 124.6 L-200.9 124.6 L-202.8 124.5 L-204.8 124.2 L-206.7 123.7 L-208.5 123.1 L-210.3 122.4 L-212.1 121.5 L-213.8 120.5 L-215.3 119.3 L-216.8 118 L-218.2 116.6 L-219.5 115.1 L-220.6 113.5 L-221.6 111.9 L-222.5 110.1 L-223.2 108.3 L-223.8 106.4 L-224.2 104.5 L-224.5 102.6 L-224.6 100.6 L-224.6 98.64 L-224.4 96.69 L-224.1 94.76 L-223.6 92.86 L-223 91.01 L-222.2 89.21 L-221.2 87.48 L-220.2 85.84 L-219 84.28 L-217.7 82.82 L-216.3 81.47 L-214.7 80.23 L-213.1 79.13 L-211.4 78.15 L-209.6 77.31 L-207.8 76.62 L-205.9 76.07 L-204 75.67 L-202.1 75.43 L-200.1 75.34 L-198.2 75.41 L-196.2 75.64 L-194.3 76.02 L-192.4 76.54 L-190.6 77.22 L-188.8 78.05 L-187.1 79.01 L-185.4 80.1 L-183.9 81.32 L-182.5 82.66 L-181.1 84.1 L-179.9 85.65 L-178.9 87.29 L-177.9 89.01 L-177.1 90.8 L-176.5 92.64 L-176 94.54 L-175.6 96.46 L-175.4 98.41 L-175.3 100.4 Z " />
<path stroke="rgb(0,0,0)" stroke-opacity="1" fill="rgb(255,255,255)" fill-opacity="1" d="M-788.4 -587.8 L-789.4 -587.8 L-790.3 -587.8 L-791.3 -587.8 L-792.3 -587.9 L-793.3 -587.9 L-794.3 -587.9 L-795.3 -587.9 L-796.2 -588 L-797.2 -588 L-798.2 -588 L-799.2 -588 L-800.2 -588.1 L-801.2 -588.1 L-802.1 -588.1 L-803.1 -588.1 L-804.1 -588.2 L-805.1 -588.2 L-806.1 -588.2 L-807.1 -588.2 L-808 -588.3 L-809 -588.3 L-810 -588.3 L-811 -588.3 L-812 -588.4 L-813 -588.4 L-812.9 -589.4 L-812.9 -590.3 L-812.9 -591.3 L-812.9 -592.3 L-812.8 -593.3 L-812.8 -594.3 L-812.8 -595.3 L-812.8 -596.2 L-812.7 -597.2 L-812.7 -598.2 L-812.7 -599.2 L-812.7 -600.2 L-812.6 -601.2 L-812.6 -602.1 L-812.6 -603.1 L-812.6 -604.1 L-812.5 -605.1 L-812.5 -606.1 L-812.5 -607.1 L-812.5 -608 L-812.4 -609 L-812.4 -610 L-812.4 -611 L-812.4 -612 L-812.3 -613 L-811.3 -612.9 L-810.4 -612.9 L-809.4 -612.9 L-808.4 -612.9 L-807.4 -612.8 L-806.4 -612.8 L-805.4 -612.8 L-804.5 -612.8 L-803.5 -612.7 L-802.5 -612.7 L-801.5 -612.7 L-800.5 -612.7 L-799.5 -612.6 L-798.6 -612.6 L-797.6 -612.6 L-796.6 -612.6 L-795.6 -612.5 L-794.6 -612.5 L-793.6 -612.5 L-792.7 -612.5 L-791.7 -612.4 L-790.7 -612.4 L-789.7 -612.4 L-788.7 -612.4 L-787.8 -612.3 L-787.8 -611.4 L-787.8 -610.4 L-787.8 -609.4 L-787.9 -608.4 L-787.9 -607.4 L-787.9 -606.4 L-787.9 -605.5 L-787.9 -604.5 L-788 -603.5 L-788 -602.5 L-788 -601.5 L-788 -600.5 L-788.1 -599.6 L-788.1 -598.6 L-788.1 -597.6 L-788.1 -596.6 L-788.2 -595.6 L-788.2 -594.6 L-788.2 -593.7 L-788.2 -592.7 L-788.3 -591.7 L-788.3 -590.7 L-788.3 -589.7 L-788.3 -588.7 L-788.4 -587.8 Z " />
<path stroke="rgb(0,0,0)" stroke-opacity="0.981" fill="rgb(255,255,255)" fill-opacity="1" d="M24.65 100.4 L24.55 102.3 L24.28 104.3 L23.87 106.2 L23.3 108.1 L22.58 109.9 L21.73 111.7 L20.73 113.3 L19.61 114.9 L18.36 116.5 L16.99 117.9 L15.52 119.2 L13.95 120.3 L12.29 121.4 L10.55 122.3 L8.746 123 L6.887 123.7 L4.985 124.1 L3.051 124.5 L1.098 124.6 L-0.8623 124.6 L-2.817 124.5 L-4.754 124.2 L-6.661 123.7 L-8.525 123.1 L-10.34 122.4 L-12.08 121.5 L-13.75 120.5 L-15.33 119.3 L-16.82 118 L-18.2 116.6 L-19.46 115.1 L-20.6 113.5 L-21.61 111.9 L-22.48 110.1 L-23.21 108.3 L-23.8 106.4 L-24.23 104.5 L-24.51 102.6 L-24.64 100.6 L-24.61 98.64 L-24.42 96.69 L-24.08 94.76 L-23.59 92.86 L-22.95 91.01 L-22.16 89.21 L-21.24 87.48 L-20.18 85.84 L-18.99 84.28 L-17.68 82.82 L-16.26 81.47 L-14.74 80.23 L-13.12 79.13 L-11.42 78.15 L-9.647 77.31 L-7.814 76.62 L-5.932 76.07 L-4.012 75.67 L-2.067 75.43 L-0.1091 75.34 L1.85 75.41 L3.797 75.64 L5.72 76.02 L7.608 76.54 L9.447 77.22 L11.23 78.05 L12.93 79.01 L14.56 80.1 L16.1 81.32 L17.53 82.66 L18.85 84.1 L20.05 85.65 L21.13 87.29 L22.07 89.01 L22.88 90.8 L23.53 92.64 L24.04 94.54 L24.4 96.46 L24.61 98.41 L24.65 100.4 Z " />
<path stroke="rgb(0,0,0)" stroke-opacity="1" fill="rgb(255,255,255)" fill-opacity="1" d="M-588.3 -588 L-589.3 -588 L-590.3 -588 L-591.2 -588 L-592.2 -588 L-593.2 -588 L-594.2 -588 L-595.1 -588 L-596.1 -588.1 L-597.1 -588.1 L-598.1 -588.1 L-599.1 -588.1 L-600 -588.1 L-601 -588.1 L-602 -588.1 L-603 -588.2 L-603.9 -588.2 L-604.9 -588.2 L-605.9 -588.2 L-606.9 -588.2 L-607.9 -588.2 L-608.8 -588.2 L-609.8 -588.3 L-610.8 -588.3 L-611.8 -588.3 L-612.8 -588.3 L-612.7 -589.3 L-612.7 -590.3 L-612.7 -591.2 L-612.7 -592.2 L-612.7 -593.2 L-612.7 -594.2 L-612.7 -595.1 L-612.6 -596.1 L-612.6 -597.1 L-612.6 -598.1 L-612.6 -599.1 L-612.6 -600 L-612.6 -601 L-612.6 -602 L-612.5 -603 L-612.5 -604 L-612.5 -604.9 L-612.5 -605.9 L-612.5 -606.9 L-612.5 -607.9 L-612.5 -608.8 L-612.5 -609.8 L-612.4 -610.8 L-612.4 -611.8 L-612.4 -612.8 L-611.4 -612.7 L-610.5 -612.7 L-609.5 -612.7 L-608.5 -612.7 L-607.5 -612.7 L-606.5 -612.7 L-605.6 -612.7 L-604.6 -612.6 L-603.6 -612.6 L-602.6 -612.6 L-601.6 -612.6 L-600.7 -612.6 L-599.7 -612.6 L-598.7 -612.6 L-597.7 -612.6 L-596.8 -612.5 L-595.8 -612.5 L-594.8 -612.5 L-593.8 -612.5 L-592.8 -612.5 L-591.9 -612.5 L-590.9 -612.5 L-589.9 -612.4 L-588.9 -612.4 L-587.9 -612.4 L-588 -611.4 L-588 -610.5 L-588 -609.5 L-588 -608.5 L-588 -607.5 L-588 -606.5 L-588 -605.6 L-588.1 -604.6 L-588.1 -603.6 L-588.1 -602.6 L-588.1 -601.7 L-588.1 -600.7 L-588.1 -599.7 L-588.1 -598.7 L-588.2 -597.7 L-588.2 -596.8 L-588.2 -595.8 L-588.2 -594.8 L-588.2 -593.8 L-588.2 -592.8 L-588.2 -591.9 L-588.3 -590.9 L-588.3 -589.9 L-588.3 -588.9 L-588.3 -588 Z " />
<path stroke="rgb(0,0,0)" stroke-opacity="0.981" fill="rgb(255,255,255)" fill-opacity="1" d="M224.7 100.4 L224.5 102.3 L224.3 104.3 L223.9 106.2 L223.3 108.1 L222.6 109.9 L221.7 111.7 L220.7 113.3 L219.6 114.9 L218.4 116.5 L217 117.9 L215.5 119.2 L213.9 120.3 L212.3 121.4 L210.6 122.3 L208.7 123 L206.9 123.7 L205 124.1 L203.1 124.5 L201.1 124.6 L199.1 124.6 L197.2 124.5 L195.2 124.2 L193.3 123.7 L191.5 123.1 L189.7 122.4 L187.9 121.5 L186.2 120.5 L184.7 119.3 L183.2 118 L181.8 116.6 L180.5 115.1 L179.4 113.5 L178.4 111.9 L177.5 110.1 L176.8 108.3 L176.2 106.4 L175.8 104.5 L175.5 102.6 L175.4 100.6 L175.4 98.64 L175.6 96.69 L175.9 94.76 L176.4 92.86 L177 91.01 L177.8 89.21 L178.8 87.48 L179.8 85.84 L181 84.28 L182.3 82.82 L183.7 81.47 L185.3 80.23 L186.9 79.13 L188.6 78.15 L190.4 77.31 L192.2 76.62 L194.1 76.07 L196 75.67 L197.9 75.43 L199.9 75.34 L201.8 75.41 L203.8 75.64 L205.7 76.02 L207.6 76.54 L209.4 77.22 L211.2 78.05 L212.9 79.01 L214.6 80.1 L216.1 81.32 L217.5 82.66 L218.9 84.1 L220.1 85.65 L221.1 87.29 L222.1 89.01 L222.9 90.8 L223.5 92.64 L224 94.54 L224.4 96.46 L224.6 98.41 L224.7 100.4 Z " />
<path stroke="rgb(0,0,0)" stroke-opacity="1" fill="rgb(255,255,255)" fill-opacity="1" d="M-388.3 -588 L-389.3 -588 L-390.3 -588 L-391.2 -588 L-392.2 -588 L-393.2 -588 L-394.2 -588 L-395.1 -588 L-396.1 -588.1 L-397.1 -588.1 L-398.1 -588.1 L-399.1 -588.1 L-400 -588.1 L-401 -588.1 L-402 -588.1 L-403 -588.2 L-403.9 -588.2 L-404.9 -588.2 L-405.9 -588.2 L-406.9 -588.2 L-407.9 -588.2 L-408.8 -588.2 L-409.8 -588.3 L-410.8 -588.3 L-411.8 -588.3 L-412.8 -588.3 L-412.7 -589.3 L-412.7 -590.3 L-412.7 -591.2 L-412.7 -592.2 L-412.7 -593.2 L-412.7 -594.2 L-412.7 -595.1 L-412.6 -596.1 L-412.6 -597.1 L-412.6 -598.1 L-412.6 -599.1 L-412.6 -600 L-412.6 -601 L-412.6 -602 L-412.5 -603 L-412.5 -604 L-412.5 -604.9 L-412.5 -605.9 L-412.5 -606.9 L-412.5 -607.9 L-412.5 -608.8 L-412.5 -609.8 L-412.4 -610.8 L-412.4 -611.8 L-412.4 -612.8 L-411.4 -612.7 L-410.5 -612.7 L-409.5 -612.7 L-408.5 -612.7 L-407.5 -612.7 L-406.5 -612.7 L-405.6 -612.7 L-404.6 -612.6 L-403.6 -612.6 L-402.6 -612.6 L-401.6 -612.6 L-400.7 -612.6 L-399.7 -612.6 L-398.7 -612.6 L-397.7 -612.6 L-396.8 -612.5 L-395.8 -612.5 L-394.8 -612.5 L-393.8 -612.5 L-392.8 -612.5 L-391.9 -612.5 L-390.9 -612.5 L-389.9 -612.4 L-388.9 -612.4 L-387.9 -612.4 L-388 -611.4 L-388 -610.5 L-388 -609.5 L-388 -608.5 L-388 -607.5 L-388 -606.5 L-388 -605.6 L-388.1 -604.6 L-388.1 -603.6 L-388.1 -602.6 L-388.1 -601.7 L-388.1 -600.7 L-388.1 -599.7 L-388.1 -598.7 L-388.2 -597.7 L-388.2 -596.8 L-388.2 -595.8 L-388.2 -594.8 L-388.2 -593.8 L-388.2 -592.8 L-388.2 -591.9 L-388.3 -590.9 L-388.3 -589.9 L-388.3 -588.9 L-388.3 -588 Z " />
<path stroke="rgb(0,0,0)" stroke-opacity="0.981" fill="rgb(255,255,255)" fill-opacity="1" d="M-275.3 200.4 L-275.5 202.3 L-275.7 204.3 L-276.1 206.2 L-276.7 208.1 L-277.4 209.9 L-278.3 211.7 L-279.3 213.3 L-280.4 214.9 L-281.6 216.5 L-283 217.9 L-284.5 219.2 L-286.1 220.3 L-287.7 221.4 L-289.4 222.3 L-291.3 223 L-293.1 223.7 L-295 224.1 L-296.9 224.5 L-298.9 224.6 L-300.9 224.6 L-302.8 224.5 L-304.8 224.2 L-306.7 223.7 L-308.5 223.1 L-310.3 222.4 L-312.1 221.5 L-313.8 220.5 L-315.3 219.3 L-316.8 218 L-318.2 216.6 L-319.5 215.1 L-320.6 213.5 L-321.6 211.9 L-322.5 210.1 L-323.2 208.3 L-323.8 206.4 L-324.2 204.5 L-324.5 202.6 L-324.6 200.6 L-324.6 198.6 L-324.4 196.7 L-324.1 194.8 L-323.6 192.9 L-323 191 L-322.2 189.2 L-321.2 187.5 L-320.2 185.8 L-319 184.3 L-317.7 182.8 L-316.3 181.5 L-314.7 180.2 L-313.1 179.1 L-311.4 178.1 L-309.6 177.3 L-307.8 176.6 L-305.9 176.1 L-304 175.7 L-302.1 175.4 L-300.1 175.3 L-298.2 175.4 L-296.2 175.6 L-294.3 176 L-292.4 176.5 L-290.6 177.2 L-288.8 178 L-287.1 179 L-285.4 180.1 L-283.9 181.3 L-282.5 182.7 L-281.1 184.1 L-279.9 185.7 L-278.9 187.3 L-277.9 189 L-277.1 190.8 L-276.5 192.6 L-276 194.5 L-275.6 196.5 L-275.4 198.4 L-275.3 200.4 Z " />
<path stroke="rgb(0,0,0)" stroke-opacity="1" fill="rgb(255,255,255)" fill-opacity="1" d="M-888.4 -487.8 L-889.4 -487.8 L-890.3 -487.8 L-891.3 -487.8 L-892.3 -487.9 L-893.3 -487.9 L-894.3 -487.9 L-895.3 -487.9 L-896.2 -488 L-897.2 -488 L-898.2 -488 L-899.2 -488 L-900.2 -488.1 L-901.2 -488.1 L-902.1 -488.1 L-903.1 -488.1 L-904.1 -488.2 L-905.1 -488.2 L-906.1 -488.2 L-907.1 -488.2 L-908 -488.3 L-909 -488.3 L-910 -488.3 L-911 -488.3 L-912 -488.4 L-913 -488.4 L-912.9 -489.4 L-912.9 -490.3 L-912.9 -491.3 L-912.9 -492.3 L-912.8 -493.3 L-912.8 -494.3 L-912.8 -495.3 L-912.8 -496.2 L-912.7 -497.2 L-912.7 -498.2 L-912.7 -499.2 L-912.7 -500.2 L-912.6 -501.2 L-912.6 -502.1 L-912.6 -503.1 L-912.6 -504.1 L-912.5 -505.1 L-912.5 -506.1 L-912.5 -507.1 L-912.5 -508 L-912.4 -509 L-912.4 -510 L-912.4 -511 L-912.4 -512 L-912.3 -513 L-911.3 -512.9 L-910.4 -512.9 L-909.4 -512.9 L-908.4 -512.9 L-907.4 -512.8 L-906.4 -512.8 L-905.4 -512.8 L-904.5 -512.8 L-903.5 -512.7 L-902.5 -512.7 L-901.5 -512.7 L-900.5 -512.7 L-899.5 -512.6 L-898.6 -512.6 L-897.6 -512.6 L-896.6 -512.6 L-895.6 -512.5 L-894.6 -512.5 L-893.6 -512.5 L-892.7 -512.5 L-891.7 -512.4 L-890.7 -512.4 L-889.7 -512.4 L-888.7 -512.4 L-887.8 -512.3 L-887.8 -511.4 L-887.8 -510.4 L-887.8 -509.4 L-887.9 -508.4 L-887.9 -507.4 L-887.9 -506.4 L-887.9 -505.5 L-887.9 -504.5 L-888 -503.5 L-888 -502.5 L-888 -501.5 L-888 -500.5 L-888.1 -499.6 L-888.1 -498.6 L-888.1 -497.6 L-888.1 -496.6 L-888.2 -495.6 L-888.2 -494.6 L-888.2 -493.7 L-888.2 -492.7 L-888.3 -491.7 L-888.3 -490.7 L-888.3 -489.7 L-888.3 -488.7 L-888.4 -487.8 Z " />
<path stroke="rgb(0,0,0)" stroke-opacity="0.981" fill="rgb(255,255,255)" fill-opacity="1" d="M-75.35 200.4 L-75.45 202.3 L-75.72 204.3 L-76.13 206.2 L-76.7 208.1 L-77.42 209.9 L-78.27 211.7 L-79.27 213.3 L-80.39 214.9 L-81.64 216.5 L-83.01 217.9 L-84.48 219.2 L-86.05 220.3 L-87.71 221.4 L-89.45 222.3 L-91.25 223 L-93.11 223.7 L-95.01 224.1 L-96.95 224.5 L-98.9 224.6 L-100.9 224.6 L-102.8 224.5 L-104.8 224.2 L-106.7 223.7 L-108.5 223.1 L-110.3 222.4 L-112.1 221.5 L-113.8 220.5 L-115.3 219.3 L-116.8 218 L-118.2 216.6 L-119.5 215.1 L-120.6 213.5 L-121.6 211.9 L-122.5 210.1 L-123.2 208.3 L-123.8 206.4 L-124.2 204.5 L-124.5 202.6 L-124.6 200.6 L-124.6 198.6 L-124.4 196.7 L-124.1 194.8 L-123.6 192.9 L-123 191 L-122.2 189.2 L-121.2 187.5 L-120.2 185.8 L-119 184.3 L-117.7 182.8 L-116.3 181.5 L-114.7 180.2 L-113.1 179.1 L-111.4 178.1 L-109.6 177.3 L-107.8 176.6 L-105.9 176.1 L-104 175.7 L-102.1 175.4 L-100.1 175.3 L-98.15 175.4 L-96.2 175.6 L-94.28 176 L-92.39 176.5 L-90.55 177.2 L-88.77 178 L-87.07 179 L-85.44 180.1 L-83.9 181.3 L-82.47 182.7 L-81.15 184.1 L-79.95 185.7 L-78.87 187.3 L-77.93 189 L-77.12 190.8 L-76.47 192.6 L-75.96 194.5 L-75.6 196.5 L-75.39 198.4 L-75.35 200.4 Z " />
<path stroke="rgb(0,0,0)" stroke-opacity="1" fill="rgb(255,255,255)" fill-opacity="1" d="M-688.3 -488 L-689.3 -488 L-690.3 -488 L-691.2 -488 L-692.2 -488 L-693.2 -488 L-694.2 -488 L-695.1 -488 L-696.1 -488.1 L-697.1 -488.1 L-698.1 -488.1 L-699.1 -488.1 L-700 -488.1 L-701 -488.1 L-702 -488.1 L-703 -488.2 L-703.9 -488.2 L-704.9 -488.2 L-705.9 -488.2 L-706.9 -488.2 L-707.9 -488.2 L-708.8 -488.2 L-709.8 -488.3 L-710.8 -488.3 L-711.8 -488.3 L-712.8 -488.3 L-712.7 -489.3 L-712.7 -490.3 L-712.7 -491.2 L-712.7 -492.2 L-712.7 -493.2 L-712.7 -494.2 L-712.7 -495.1 L-712.6 -496.1 L-712.6 -497.1 L-712.6 -498.1 L-712.6 -499.1 L-712.6 -500 L-712.6 -501 L-712.6 -502 L-712.5 -503 L-712.5 -504 L-712.5 -504.9 L-712.5 -505.9 L-712.5 -506.9 L-712.5 -507.9 L-712.5 -508.8 L-712.5 -509.8 L-712.4 -510.8 L-712.4 -511.8 L-712.4 -512.8 L-711.4 -512.7 L-710.5 -512.7 L-709.5 -512.7 L-708.5 -512.7 L-707.5 -512.7 L-706.5 -512.7 L-705.6 -512.7 L-704.6 -512.6 L-703.6 -512.6 L-702.6 -512.6 L-701.6 -512.6 L-700.7 -512.6 L-699.7 -512.6 L-698.7 -512.6 L-697.7 -512.6 L-696.8 -512.5 L-695.8 -512.5 L-694.8 -512.5 L-693.8 -512.5 L-692.8 -512.5 L-691.9 -512.5 L-690.9 -512.5 L-689.9 -512.4 L-688.9 -512.4 L-687.9 -512.4 L-688 -511.4 L-688 -510.5 L-688 -509.5 L-688 -508.5 L-688 -507.5 L-688 -506.5 L-688 -505.6 L-688.1 -504.6 L-688.1 -503.6 L-688.1 -502.6 L-688.1 -501.7 L-688.1 -500.7 L-688.1 -499.7 L-688.1 -498.7 L-688.2 -497.7 L-688.2 -496.8 L-688.2 -495.8 L-688.2 -494.8 L-688.2 -493.8 L-688.2 -492.8 L-688.2 -491.9 L-688.3 -490.9 L-688.3 -489.9 L-688.3 -488.9 L-688.3 -488 Z " />
<path stroke="rgb(0,0,0)" stroke-opacity="0.981" fill="rgb(255,255,255)" fill-opacity="1" d="M124.7 200.4 L124.5 202.3 L124.3 204.3 L123.9 206.2 L123.3 208.1 L122.6 209.9 L121.7 211.7 L120.7 213.3 L119.6 214.9 L118.4 216.5 L117 217.9 L115.5 219.2 L113.9 220.3 L112.3 221.4 L110.6 222.3 L108.7 223 L106.9 223.7 L105 224.1 L103.1 224.5 L101.1 224.6 L99.14 224.6 L97.18 224.5 L95.25 224.2 L93.34 223.7 L91.47 223.1 L89.66 222.4 L87.92 221.5 L86.25 220.5 L84.67 219.3 L83.18 218 L81.8 216.6 L80.54 215.1 L79.4 213.5 L78.39 211.9 L77.52 210.1 L76.79 208.3 L76.2 206.4 L75.77 204.5 L75.49 202.6 L75.36 200.6 L75.39 198.6 L75.58 196.7 L75.92 194.8 L76.41 192.9 L77.05 191 L77.84 189.2 L78.76 187.5 L79.82 185.8 L81.01 184.3 L82.32 182.8 L83.74 181.5 L85.26 180.2 L86.88 179.1 L88.58 178.1 L90.35 177.3 L92.19 176.6 L94.07 176.1 L95.99 175.7 L97.93 175.4 L99.89 175.3 L101.8 175.4 L103.8 175.6 L105.7 176 L107.6 176.5 L109.4 177.2 L111.2 178 L112.9 179 L114.6 180.1 L116.1 181.3 L117.5 182.7 L118.9 184.1 L120.1 185.7 L121.1 187.3 L122.1 189 L122.9 190.8 L123.5 192.6 L124 194.5 L124.4 196.5 L124.6 198.4 L124.7 200.4 Z " />
<path stroke="rgb(0,0,0)" stroke-opacity="1" fill="rgb(255,255,255)" fill-opacity="1" d="M-488.3 -488 L-489.3 -488 L-490.3 -488 L-491.2 -488 L-492.2 -488 L-493.2 -488 L-494.2 -488 L-495.1 -488 L-496.1 -488.1 L-497.1 -488.1 L-498.1 -488.1 L-499.1 -488.1 L-500 -488.1 L-501 -488.1 L-502 -488.1 L-503 -488.2 L-503.9 -488.2 L-504.9 -488.2 L-505.9 -488.2 L-506.9 -488.2 L-507.9 -488.2 L-508.8 -488.2 L-509.8 -488.3 L-510.8 -488.3 L-511.8 -488.3 L-512.8 -488.3 L-512.7 -489.3 L-512.7 -490.3 L-512.7 -491.2 L-512.7 -492.2 L-512.7 -493.2 L-512.7 -494.2 L-512.7 -495.1 L-512.6 -496.1 L-512.6 -497.1 L-512.6 -498.1 L-512.6 -499.1 L-512.6 -500 L-512.6 -501 L-512.6 -502 L-512.5 -503 L-512.5 -504 L-512.5 -504.9 L-512.5 -505.9 L-512.5 -506.9 L-512.5 -507.9 L-512.5 -508.8 L-512.5 -509.8 L-512.4 -510.8 L-512.4 -511.8 L-512.4 -512.8 L-511.4 -512.7 L-510.5 -512.7 L-509.5 -512.7 L-508.5 -512.7 L-507.5 -512.7 L-506.5 -512.7 L-505.6 -512.7 L-504.6 -512.6 L-503.6 -512.6 L-502.6 -512.6 L-501.6 -512.6 L-500.7 -512.6 L-499.7 -512.6 L-498.7 -512.6 L-497.7 -512.6 L-496.8 -512.5 L-495.8 -512.5 L-494.8 -512.5 L-493.8 -512.5 L-492.8 -512.5 L-491.9 -512.5 L-490.9 -512.5 L-489.9 -512.4 L-488.9 -512.4 L-487.9 -512.4 L-488 -511.4 L-488 -510.5 L-488 -509.5 L-488 -508.5 L-488 -507.5 L-488 -506.5 L-488 -505.6 L-488.1 -504.6 L-488.1 -503.6 L-488.1 -502.6 L-488.1 -501.7 L-488.1 -500.7 L-488.1 -499.7 L-488.1 -498.7 L-488.2 -497.7 L-488.2 -496.8 L-488.2 -495.8 L-488.2 -494.8 L-488.2 -493.8 L-488.2 -492.8 L-488.2 -491.9 L-488.3 -490.9 L-488.3 -489.9 L-488.3 -488.9 L-488.3 -488 Z " />
<path stroke="rgb(0,0,0)" stroke-opacity="0.981" fill="rgb(255,255,255)" fill-opacity="1" d="M324.7 200.4 L324.5 202.3 L324.3 204.3 L323.9 206.2 L323.3 208.1 L322.6 209.9 L321.7 211.7 L320.7 213.3 L319.6 214.9 L318.4 216.5 L317 217.9 L315.5 219.2 L313.9 220.3 L312.3 221.4 L310.6 222.3 L308.7 223 L306.9 223.7 L305 224.1 L303.1 224.5 L301.1 224.6 L299.1 224.6 L297.2 224.5 L295.2 224.2 L293.3 223.7 L291.5 223.1 L289.7 222.4 L287.9 221.5 L286.2 220.5 L284.7 219.3 L283.2 218 L281.8 216.6 L280.5 215.1 L279.4 213.5 L278.4 211.9 L277.5 210.1 L276.8 208.3 L276.2 206.4 L275.8 204.5 L275.5 202.6 L275.4 200.6 L275.4 198.6 L275.6 196.7 L275.9 194.8 L276.4 192.9 L277 191 L277.8 189.2 L278.8 187.5 L279.8 185.8 L281 184.3 L282.3 182.8 L283.7 181.5 L285.3 180.2 L286.9 179.1 L288.6 178.1 L290.4 177.3 L292.2 176.6 L294.1 176.1 L296 175.7 L297.9 175.4 L299.9 175.3 L301.8 175.4 L303.8 175.6 L305.7 176 L307.6 176.5 L309.4 177.2 L311.2 178 L312.9 179 L314.6 180.1 L316.1 181.3 L317.5 182.7 L318.9 184.1 L320.1 185.7 L321.1 187.3 L322.1 189 L322.9 190.8 L323.5 192.6 L324 194.5 L324.4 196.5 L324.6 198.4 L324.7 200.4 Z " />
<path stroke="rgb(0,0,0)" stroke-opacity="1" fill="rgb(255,255,255)" fill-opacity="1" d="M-988.4 -387.8 L-989.4 -387.8 L-990.3 -387.8 L-991.3 -387.8 L-992.3 -387.9 L-993.3 -387.9 L-994.3 -387.9 L-995.3 -387.9 L-996.2 -388 L-997.2 -388 L-998.2 -388 L-999.2 -388 L-1000 -388.1 L-1001 -388.1 L-1002 -388.1 L-1003 -388.1 L-1004 -388.2 L-1005 -388.2 L-1006 -388.2 L-1007 -388.2 L-1008 -388.3 L-1009 -388.3 L-1010 -388.3 L-1011 -388.3 L-1012 -388.4 L-1013 -388.4 L-1013 -389.4 L-1013 -390.3 L-1013 -391.3 L-1013 -392.3 L-1013 -393.3 L-1013 -394.3 L-1013 -395.3 L-1013 -396.2 L-1013 -397.2 L-1013 -398.2 L-1013 -399.2 L-1013 -400.2 L-1013 -401.2 L-1013 -402.1 L-1013 -403.1 L-1013 -404.1 L-1013 -405.1 L-1013 -406.1 L-1012 -407.1 L-1012 -408 L-1012 -409 L-1012 -410 L-1012 -411 L-1012 -412 L-1012 -413 L-1011 -412.9 L-1010 -412.9 L-1009 -412.9 L-1008 -412.9 L-1007 -412.8 L-1006 -412.8 L-1005 -412.8 L-1004 -412.8 L-1003 -412.7 L-1002 -412.7 L-1002 -412.7 L-1001 -412.7 L-999.5 -412.6 L-998.6 -412.6 L-997.6 -412.6 L-996.6 -412.6 L-995.6 -412.5 L-994.6 -412.5 L-993.6 -412.5 L-992.7 -412.5 L-991.7 -412.4 L-990.7 -412.4 L-989.7 -412.4 L-988.7 -412.4 L-987.8 -412.3 L-987.8 -411.4 L-987.8 -410.4 L-987.8 -409.4 L-987.9 -408.4 L-987.9 -407.4 L-987.9 -406.4 L-987.9 -405.5 L-987.9 -404.5 L-988 -403.5 L-988 -402.5 L-988 -401.5 L-988 -400.5 L-988.1 -399.6 L-988.1 -398.6 L-988.1 -397.6 L-988.1 -396.6 L-988.2 -395.6 L-988.2 -394.6 L-988.2 -393.7 L-988.2 -392.7 L-988.3 -391.7 L-988.3 -390.7 L-988.3 -389.7 L-988.3 -388.7 L-988.4 -387.8 Z " />
<path stroke="rgb(0,0,0)" stroke-opacity="0.981" fill="rgb(255,255,255)" fill-opacity="1" d="M-175.3 300.4 L-175.5 302.3 L-175.7 304.3 L-176.1 306.2 L-176.7 308.1 L-177.4 309.9 L-178.3 311.7 L-179.3 313.3 L-180.4 314.9 L-181.6 316.5 L-183 317.9 L-184.5 319.2 L-186.1 320.3 L-187.7 321.4 L-189.4 322.3 L-191.3 323 L-193.1 323.7 L-195 324.1 L-196.9 324.5 L-198.9 324.6 L-200.9 324.6 L-202.8 324.5 L-204.8 324.2 L-206.7 323.7 L-208.5 323.1 L-210.3 322.4 L-212.1 321.5 L-213.8 320.5 L-215.3 319.3 L-216.8 318 L-218.2 316.6 L-219.5 315.1 L-220.6 313.5 L-221.6 311.9 L-222.5 310.1 L-223.2 308.3 L-223.8 306.4 L-224.2 304.5 L-224.5 302.6 L-224.6 300.6 L-224.6 298.6 L-224.4 296.7 L-224.1 294.8 L-223.6 292.9 L-223 291 L-222.2 289.2 L-221.2 287.5 L-220.2 285.8 L-219 284.3 L-217.7 282.8 L-216.3 281.5 L-214.7 280.2 L-213.1 279.1 L-211.4 278.1 L-209.6 277.3 L-207.8 276.6 L-205.9 276.1 L-204 275.7 L-202.1 275.4 L-200.1 275.3 L-198.2 275.4 L-196.2 275.6 L-194.3 276 L-192.4 276.5 L-190.6 277.2 L-188.8 278 L-187.1 279 L-185.4 280.1 L-183.9 281.3 L-182.5 282.7 L-181.1 284.1 L-179.9 285.7 L-178.9 287.3 L-177.9 289 L-177.1 290.8 L-176.5 292.6 L-176 294.5 L-175.6 296.5 L-175.4 298.4 L-175.3 300.4 Z " />
<path stroke="rgb(0,0,0)" stroke-opacity="1" fill="rgb(255,255,255)" fill-opacity="1" d="M-788.3 -388 L-789.3 -388 L-790.3 -388 L-791.2 -388 L-792.2 -388 L-793.2 -388 L-794.2 -388 L-795.1 -388 L-796.1 -388.1 L-797.1 -388.1 L-798.1 -388.1 L-799.1 -388.1 L-800 -388.1 L-801 -388.1 L-802 -388.1 L-803 -388.2 L-803.9 -388.2 L-804.9 -388.2 L-805.9 -388.2 L-806.9 -388.2 L-807.9 -388.2 L-808.8 -388.2 L-809.8 -388.3 L-810.8 -388.3 L-811.8 -388.3 L-812.8 -388.3 L-812.7 -389.3 L-812.7 -390.3 L-812.7 -391.2 L-812.7 -392.2 L-812.7 -393.2 L-812.7 -394.2 L-812.7 -395.1 L-812.6 -396.1 L-812.6 -397.1 L-812.6 -398.1 L-812.6 -399.1 L-812.6 -400 L-812.6 -401 L-812.6 -402 L-812.5 -403 L-812.5 -404 L-812.5 -404.9 L-812.5 -405.9 L-812.5 -406.9 L-812.5 -407.9 L-812.5 -408.8 L-812.5 -409.8 L-812.4 -410.8 L-812.4 -411.8 L-812.4 -412.8 L-811.4 -412.7 L-810.5 -412.7 L-809.5 -412.7 L-808.5 -412.7 L-807.5 -412.7 L-806.5 -412.7 L-805.6 -412.7 L-804.6 -412.6 L-803.6 -412.6 L-802.6 -412.6 L-801.6 -412.6 L-800.7 -412.6 L-799.7 -412.6 L-798.7 -412.6 L-797.7 -412.6 L-796.8 -412.5 L-795.8 -412.5 L-794.8 -412.5 L-793.8 -412.5 L-792.8 -412.5 L-791.9 -412.5 L-790.9 -412.5 L-789.9 -412.4 L-788.9 -412.4 L-787.9 -412.4 L-788 -411.4 L-788 -410.5 L-788 -409.5 L-788 -408.5 L-788 -407.5 L-788 -406.5 L-788 -405.6 L-788.1 -404.6 L-788.1 -403.6 L-788.1 -402.6 L-788.1 -401.7 L-788.1 -400.7 L-788.1 -399.7 L-788.1 -398.7 L-788.2 -397.7 L-788.2 -396.8 L-788.2 -395.8 L-788.2 -394.8 L-788.2 -393.8 L-788.2 -392.8 L-788.2 -391.9 L-788.3 -390.9 L-788.3 -389.9 L-788.3 -388.9 L-788.3 -388 Z " />
<path stroke="rgb(0,0,0)" stroke-opacity="0.981" fill="rgb(255,255,255)" fill-opacity="1" d="M24.65 300.4 L24.55 302.3 L24.28 304.3 L23.87 306.2 L23.3 308.1 L22.58 309.9 L21.73 311.7 L20.73 313.3 L19.61 314.9 L18.36 316.5 L16.99 317.9 L15.52 319.2 L13.95 320.3 L12.29 321.4 L10.55 322.3 L8.746 323 L6.887 323.7 L4.985 324.1 L3.051 324.5 L1.098 324.6 L-0.8623 324.6 L-2.817 324.5 L-4.754 324.2 L-6.661 323.7 L-8.525 323.1 L-10.34 322.4 L-12.08 321.5 L-13.75 320.5 L-15.33 319.3 L-16.82 318 L-18.2 316.6 L-19.46 315.1 L-20.6 313.5 L-21.61 311.9 L-22.48 310.1 L-23.21 308.3 L-23.8 306.4 L-24.23 304.5 L-24.51 302.6 L-24.64 300.6 L-24.61 298.6 L-24.42 296.7 L-24.08 294.8 L-23.59 292.9 L-22.95 291 L-22.16 289.2 L-21.24 287.5 L-20.18 285.8 L-18.99 284.3 L-17.68 282.8 L-16.26 281.5 L-14.74 280.2 L-13.12 279.1 L-11.42 278.1 L-9.647 277.3 L-7.814 276.6 L-5.932 276.1 L-4.012 275.7 L-2.067 275.4 L-0.1091 275.3 L1.85 275.4 L3.797 275.6 L5.72 276 L7.608 276.5 L9.447 277.2 L11.23 278 L12.93 279 L14.56 280.1 L16.1 281.3 L17.53 282.7 L18.85 284.1 L20.05 285.7 L21.13 287.3 L22.07 289 L22.88 290.8 L23.53 292.6 L24.04 294.5 L24.4 296.5 L24.61 298.4 L24.65 300.4 Z " />
<path stroke="rgb(0,0,0)" stroke-opacity="1" fill="rgb(255,255,255)" fill-opacity="1" d="M-588.3 -388 L-589.3 -388 L-590.3 -388 L-591.2 -388 L-592.2 -388 L-593.2 -388 L-594.2 -388 L-595.1 -388 L-596.1 -388.1 L-597.1 -388.1 L-598.1 -388.1 L-599.1 -388.1 L-600 -388.1 L-601 -388.1 L-602 -388.1 L-603 -388.2 L-603.9 -388.2 L-604.9 -388.2 L-605.9 -388.2 L-606.9 -388.2 L-607.9 -388.2 L-608.8 -388.2 L-609.8 -388.3 L-610.8 -388.3 L-611.8 -388.3 L-612.8 -388.3 L-612.7 -389.3 L-612.7 -390.3 L-612.7 -391.2 L-612.7 -392.2 L-612.7 -393.2 L-612.7 -394.2 L-612.7 -395.1 L-612.6 -396.1 L-612.6 -397.1 L-612.6 -398.1 L-612.6 -399.1 L-612.6 -400 L-612.6 -401 L-612.6 -402 L-612.5 -403 L-612.5 -404 L-612.5 -404.9 L-612.5 -405.9 L-612.5 -406.9 L-612.5 -407.9 L-612.5 -408.8 L-612.5 -409.8 L-612.4 -410.8 L-612.4 -411.8 L-612.4 -412.8 L-611.4 -412.7 L-610.5 -412.7 L-609.5 -412.7 L-608.5 -412.7 L-607.5 -412.7 L-606.5 -412.7 L-605.6 -412.7 L-604.6 -412.6 L-603.6 -412.6 L-602.6 -412.6 L-601.6 -412.6 L-600.7 -412.6 L-599.7 -412.6 L-598.7 -412.6 L-597.7 -412.6 L-596.8 -412.5 L-595.8 -412.5 L-594.8 -412.5 L-593.8 -412.5 L-592.8 -412.5 L-591.9 -412.5 L-590.9 -412.5 L-589.9 -412.4 L-588.9 -412.4 L-587.9 -412.4 L-588 -411.4 L-588 -410.5 L-588 -409.5 L-588 -408.5 L-588 -407.5 L-588 -406.5 L-588 -405.6 L-588.1 -404.6 L-588.1 -403.6 L-588.1 -402.6 L-588.1 -401.7 L-588.1 -400.7 L-588.1 -399.7 L-588.1 -398.7 L-588.2 -397.7 L-588.2 -396.8 L-588.2 -395.8 L-588.2 -394.8 L-588.2 -393.8 L-588.2 -392.8 L-588.2 -391.9 L-588.3 -390.9 L-588.3 -389.9 L-588.3 -388.9 L-588.3 -388 Z " />
<path stroke="rgb(0,0,0)" stroke-opacity="0.981" fill="rgb(255,255,255)" fill-opacity="1" d="M224.7 300.4 L224.5 302.3 L224.3 304.3 L223.9 306.2 L223.3 308.1 L222.6 309.9 L221.7 311.7 L220.7 313.3 L219.6 314.9 L218.4 316.5 L217 317.9 L215.5 319.2 L213.9 320.3 L212.3 321.4 L210.6 322.3 L208.7 323 L206.9 323.7 L205 324.1 L203.1 324.5 L201.1 324.6 L199.1 324.6 L197.2 324.5 L195.2 324.2 L193.3 323.7 L191.5 323.1 L189.7 322.4 L187.9 321.5 L186.2 320.5 L184.7 319.3 L183.2 318 L181.8 316.6 L180.5 315.1 L179.4 313.5 L178.4 311.9 L177.5 310.1 L176.8 308.3 L176.2 306.4 L175.8 304.5 L175.5 302.6 L175.4 300.6 L175.4 298.6 L175.6 296.7 L175.9 294.8 L176.4 292.9 L177 291 L177.8 289.2 L178.8 287.5 L179.8 285.8 L181 284.3 L182.3 282.8 L183.7 281.5 L185.3 280.2 L186.9 279.1 L188.6 278.1 L190.4 277.3 L192.2 276.6 L194.1 276.1 L196 275.7 L197.9 275.4 L199.9 275.3 L201.8 275.4 L203.8 275.6 L205.7 276 L207.6 276.5 L209.4 277.2 L211.2 278 L212.9 279 L214.6 280.1 L216.1 281.3 L217.5 282.7 L218.9 284.1 L220.1 285.7 L221.1 287.3 L222.1 289 L222.9 290.8 L223.5 292.6 L224 294.5 L224.4 296.5 L224.6 298.4 L224.7 300.4 Z " />
<path stroke="rgb(0,0,0)" stroke-opacity="1" fill="rgb(255,255,255)" fill-opacity="1" d="M-388.3 -388 L-389.3 -388 L-390.3 -388 L-391.2 -388 L-392.2 -388 L-393.2 -388 L-394.2 -388 L-395.1 -388 L-396.1 -388.1 L-397.1 -388.1 L-398.1 -388.1 L-399.1 -388.1 L-400 -388.1 L-401 -388.1 L-402 -388.1 L-403 -388.2 L-403.9 -388.2 L-404.9 -388.2 L-405.9 -388.2 L-406.9 -388.2 L-407.9 -388.2 L-408.8 -388.2 L-409.8 -388.3 L-410.8 -388.3 L-411.8 -388.3 L-412.8 -388.3 L-412.7 -389.3 L-412.7 -390.3 L-412.7 -391.2 L-412.7 -392.2 L-412.7 -393.2 L-412.7 -394.2 L-412.7 -395.1 L-412.6 -396.1 L-412.6 -397.1 L-412.6 -398.1 L-412.6 -399.1 L-412.6 -400 L-412.6 -401 L-412.6 -402 L-412.5 -403 L-412.5 -404 L-412.5 -404.9 L-412.5 -405.9 L-412.5 -406.9 L-412.5 -407.9 L-412.5 -408.8 L-412.5 -409.8 L-412.4 -410.8 L-412.4 -411.8 L-412.4 -412.8 L-411.4 -412.7 L-410.5 -412.7 L-409.5 -412.7 L-408.5 -412.7 L-407.5 -412.7 L-406.5 -412.7 L-405.6 -412.7 L-404.6 -412.6 L-403.6 -412.6 L-402.6 -412.6 L-401.6 -412.6 L-400.7 -412.6 L-399.7 -412.6 L-398.7 -412.6 L-397.7 -412.6 L-396.8 -412.5 L-395.8 -412.5 L-394.8 -412.5 L-393.8 -412.5 L-392.8 -412.5 L-391.9 -412.5 L-390.9 -412.5 L-389.9 -412.4 L-388.9 -412.4 L-387.9 -412.4 L-388 -411.4 L-388 -410.5 L-388 -409.5 L-388 -408.5 L-388 -407.5 L-388 -406.5 L-388 -405.6 L-388.1 -404.6 L-388.1 -403.6 L-388.1 -402.6 L-388.1 -401.7 L-388.1 -400.7 L-388.1 -399.7 L-388.1 -398.7 L-388.2 -397.7 L-388.2 -396.8 L-388.2 -395.8 L-388.2 -394.8 L-388.2 -393.8 L-388.2 -392.8 L-388.2 -391.9 L-388.3 -390.9 L-388.3 -389.9 L-388.3 -388.9 L-388.3 -388 Z " />
</g>
</g>
</svg>
