<!DOCTYPE svg>
<svg xmlns="http://www.w3.org/2000/svg" xmlns:xlink="http://www.w3.org/1999/xlink" width="1000" height="1000">
<g transform="translate(500.000000,500.000000)">
<g transform="scale(3.000000,3.000000)">
<path stroke="rgb(0,0,0)" stroke-opacity="1" fill="rgb(255,255,255)" fill-opacity="1" d="M-812.3 -812.5 L-811.3 -812.5 L-810.3 -812.5 L-809.3 -812.5 L-808.3 -812.5 L-807.3 -812.5 L-806.4 -812.5 L-805.4 -812.5 L-804.4 -812.5 L-803.4 -812.4 L-802.4 -812.4 L-801.4 -812.4 L-800.5 -812.4 L-799.5 -812.4 L-798.5 -812.4 L-797.5 -812.4 L-796.5 -812.4 L-795.5 -812.3 L-794.6 -812.3 L-793.6 -812.3 L-792.6 -812.3 L-791.6 -812.3 L-790.6 -812.3 L-789.6 -812.3 L-788.7 -812.3 L-787.7 -812.3 L-787.7 -811.3 L-787.7 -810.3 L-787.7 -809.3 L-787.7 -808.3 L-787.7 -807.3 L-787.8 -806.4 L-787.8 -805.4 L-787.8 -804.4 L-787.8 -803.4 L-787.8 -802.4 L-787.8 -801.4 L-787.8 -800.5 L-787.8 -799.5 L-787.8 -798.5 L-787.9 -797.5 L-787.9 -796.5 L-787.9 -795.5 L-787.9 -794.6 L-787.9 -793.6 L-787.9 -792.6 L-787.9 -791.6 L-787.9 -790.6 L-788 -789.6 L-788 -788.7 L-788 -787.7 L-789 -787.7 L-789.9 -787.7 L-790.9 -787.7 L-791.9 -787.7 L-792.9 -787.7 L-793.9 -787.8 L-794.9 -787.8 L-795.8 -787.8 L-796.8 -787.8 L-797.8 -787.8 L-798.8 -787.8 L-799.8 -787.8 L-800.8 -787.8 L-801.7 -787.8 L-802.7 -787.9 L-803.7 -787.9 L-804.7 -787.9 L-805.7 -787.9 L-806.7 -787.9 L-807.6 -787.9 L-808.6 -787.9 L-809.6 -787.9 L-810.6 -788 L-811.6 -788 L-812.6 -788 L-812.5 -789 L-812.5 -789.9 L-812.5 -790.9 L-812.5 -791.9 L-812.5 -792.9 L-812.5 -793.9 L-812.5 -794.9 L-812.5 -795.8 L-812.4 -796.8 L-812.4 -797.8 L-812.4 -798.8 L-812.4 -799.8 L-812.4 -800.8 L-812.4 -801.7 L-812.4 -802.7 L-812.4 -803.7 L-812.4 -804.7 L-812.3 -805.7 L-812.3 -806.7 L-812.3 -807.6 L-812.3 -808.6 L-812.3 -809.6 L-812.3 -810.6 L-812.3 -811.6 L-812.3 -812.5 Z " />
<path stroke="rgb(0,0,0)" stroke-opacity="0.593" fill="rgb(255,255,255)" fill-opacity="1" d="M-175.2 -299.7 L-175.3 -297.8 L-175.6 -295.8 L-176 -293.9 L-176.6 -292 L-177.3 -290.2 L-178.1 -288.4 L-179.1 -286.7 L-180.3 -285.1 L-181.5 -283.6 L-182.9 -282.1 L-184.3 -280.8 L-185.9 -279.7 L-187.6 -278.6 L-189.3 -277.7 L-191.1 -276.9 L-193 -276.3 L-194.9 -275.8 L-196.8 -275.5 L-198.8 -275.3 L-200.8 -275.3 L-202.7 -275.4 L-204.7 -275.7 L-206.6 -276.1 L-208.5 -276.7 L-210.3 -277.5 L-212 -278.4 L-213.7 -279.4 L-215.3 -280.6 L-216.8 -281.8 L-218.2 -283.2 L-219.5 -284.7 L-220.6 -286.3 L-221.6 -288 L-222.5 -289.8 L-223.3 -291.6 L-223.9 -293.5 L-224.3 -295.4 L-224.6 -297.3 L-224.7 -299.3 L-224.7 -301.3 L-224.5 -303.2 L-224.2 -305.2 L-223.7 -307.1 L-223.1 -308.9 L-222.3 -310.7 L-221.4 -312.5 L-220.3 -314.1 L-219.1 -315.7 L-217.8 -317.2 L-216.4 -318.5 L-214.9 -319.8 L-213.3 -320.9 L-211.6 -321.9 L-209.8 -322.7 L-207.9 -323.4 L-206.1 -324 L-204.1 -324.4 L-202.2 -324.7 L-200.2 -324.8 L-198.3 -324.7 L-196.3 -324.5 L-194.4 -324.1 L-192.5 -323.6 L-190.6 -322.9 L-188.8 -322.1 L-187.1 -321.1 L-185.5 -320 L-183.9 -318.8 L-182.5 -317.5 L-181.1 -316 L-179.9 -314.5 L-178.8 -312.9 L-177.9 -311.1 L-177.1 -309.3 L-176.4 -307.5 L-175.9 -305.6 L-175.5 -303.7 L-175.3 -301.7 L-175.2 -299.7 Z " />
<path stroke="rgb(0,0,0)" stroke-opacity="1" fill="rgb(255,255,255)" fill-opacity="1" d="M-611.8 -813.6 L-610.8 -813.5 L-609.8 -813.4 L-608.8 -813.4 L-607.8 -813.3 L-606.8 -813.2 L-605.8 -813.2 L-604.8 -813.1 L-603.7 -813 L-602.7 -812.9 L-601.7 -812.9 L-600.7 -812.8 L-599.7 -812.7 L-598.7 -812.7 L-597.7 -812.6 L-596.7 -812.5 L-595.7 -812.4 L-594.7 -812.4 L-593.7 -812.3 L-592.7 -812.2 L-591.7 -812.1 L-590.7 -812.1 L-589.7 -812 L-588.6 -811.9 L-587.6 -811.9 L-586.6 -811.8 L-586.7 -810.8 L-586.8 -809.8 L-586.8 -808.8 L-586.9 -807.8 L-587 -806.7 L-587.1 -805.7 L-587.1 -804.7 L-587.2 -803.7 L-587.3 -802.7 L-587.4 -801.7 L-587.4 -800.7 L-587.5 -799.7 L-587.6 -798.7 L-587.6 -797.7 L-587.7 -796.7 L-587.8 -795.7 L-587.9 -794.7 L-587.9 -793.7 L-588 -792.7 L-588.1 -791.6 L-588.2 -790.6 L-588.2 -789.6 L-588.3 -788.6 L-588.4 -787.6 L-588.4 -786.6 L-589.4 -786.7 L-590.5 -786.8 L-591.5 -786.8 L-592.5 -786.9 L-593.5 -787 L-594.5 -787 L-595.5 -787.1 L-596.5 -787.2 L-597.5 -787.3 L-598.5 -787.3 L-599.5 -787.4 L-600.5 -787.5 L-601.5 -787.6 L-602.5 -787.6 L-603.5 -787.7 L-604.5 -787.8 L-605.6 -787.8 L-606.6 -787.9 L-607.6 -788 L-608.6 -788.1 L-609.6 -788.1 L-610.6 -788.2 L-611.6 -788.3 L-612.6 -788.4 L-613.6 -788.4 L-613.5 -789.4 L-613.5 -790.4 L-613.4 -791.4 L-613.3 -792.5 L-613.2 -793.5 L-613.2 -794.5 L-613.1 -795.5 L-613 -796.5 L-613 -797.5 L-612.9 -798.5 L-612.8 -799.5 L-612.7 -800.5 L-612.7 -801.5 L-612.6 -802.5 L-612.5 -803.5 L-612.5 -804.5 L-612.4 -805.5 L-612.3 -806.5 L-612.2 -807.6 L-612.2 -808.6 L-612.1 -809.6 L-612 -810.6 L-611.9 -811.6 L-611.9 -812.6 L-611.8 -813.6 Z " />
<path stroke="rgb(0,0,0)" stroke-opacity="0.593" fill="rgb(255,255,255)" fill-opacity="1" d="M24.75 -299.7 L24.65 -297.8 L24.4 -295.8 L23.99 -293.9 L23.43 -292 L22.72 -290.2 L21.86 -288.4 L20.87 -286.7 L19.75 -285.1 L18.5 -283.6 L17.14 -282.1 L15.66 -280.8 L14.09 -279.7 L12.43 -278.6 L10.69 -277.7 L8.881 -276.9 L7.018 -276.3 L5.11 -275.8 L3.169 -275.5 L1.209 -275.3 L-0.7591 -275.3 L-2.722 -275.4 L-4.668 -275.7 L-6.584 -276.1 L-8.459 -276.7 L-10.28 -277.5 L-12.04 -278.4 L-13.72 -279.4 L-15.31 -280.6 L-16.81 -281.8 L-18.2 -283.2 L-19.47 -284.7 L-20.62 -286.3 L-21.65 -288 L-22.53 -289.8 L-23.27 -291.6 L-23.87 -293.5 L-24.31 -295.4 L-24.6 -297.3 L-24.74 -299.3 L-24.72 -301.3 L-24.54 -303.2 L-24.21 -305.2 L-23.72 -307.1 L-23.08 -308.9 L-22.3 -310.7 L-21.38 -312.5 L-20.32 -314.1 L-19.13 -315.7 L-17.83 -317.2 L-16.41 -318.5 L-14.88 -319.8 L-13.26 -320.9 L-11.56 -321.9 L-9.786 -322.7 L-7.949 -323.4 L-6.062 -324 L-4.136 -324.4 L-2.185 -324.7 L-0.2188 -324.8 L1.748 -324.7 L3.704 -324.5 L5.637 -324.1 L7.534 -323.6 L9.383 -322.9 L11.17 -322.1 L12.89 -321.1 L14.53 -320 L16.08 -318.8 L17.52 -317.5 L18.86 -316 L20.07 -314.5 L21.16 -312.9 L22.11 -311.1 L22.93 -309.3 L23.6 -307.5 L24.12 -305.6 L24.48 -303.7 L24.7 -301.7 L24.75 -299.7 Z " />
<path stroke="rgb(0,0,0)" stroke-opacity="1" fill="rgb(255,255,255)" fill-opacity="1" d="M-408 -819.1 L-406.9 -818.6 L-405.8 -818.2 L-404.8 -817.7 L-403.7 -817.3 L-402.6 -816.9 L-401.5 -816.4 L-400.5 -816 L-399.4 -815.5 L-398.3 -815.1 L-397.2 -814.6 L-396.2 -814.2 L-395.1 -813.7 L-394 -813.3 L-392.9 -812.8 L-391.9 -812.4 L-390.8 -811.9 L-389.7 -811.5 L-388.6 -811 L-387.6 -810.6 L-386.5 -810.1 L-385.4 -809.7 L-384.3 -809.2 L-383.3 -808.8 L-382.2 -808.3 L-381.1 -807.9 L-381.6 -806.8 L-382 -805.7 L-382.5 -804.6 L-382.9 -803.6 L-383.4 -802.5 L-383.8 -801.4 L-384.3 -800.3 L-384.7 -799.3 L-385.2 -798.2 L-385.6 -797.1 L-386.1 -796 L-386.5 -795 L-386.9 -793.9 L-387.4 -792.8 L-387.8 -791.7 L-388.3 -790.7 L-388.7 -789.6 L-389.2 -788.5 L-389.6 -787.4 L-390.1 -786.4 L-390.5 -785.3 L-391 -784.2 L-391.4 -783.2 L-391.9 -782.1 L-392.3 -781 L-393.4 -781.5 L-394.5 -781.9 L-395.6 -782.3 L-396.6 -782.8 L-397.7 -783.2 L-398.8 -783.7 L-399.9 -784.1 L-400.9 -784.6 L-402 -785 L-403.1 -785.5 L-404.2 -785.9 L-405.2 -786.4 L-406.3 -786.8 L-407.4 -787.3 L-408.5 -787.7 L-409.5 -788.2 L-410.6 -788.6 L-411.7 -789.1 L-412.8 -789.5 L-413.8 -790 L-414.9 -790.4 L-416 -790.9 L-417.1 -791.3 L-418.1 -791.8 L-419.2 -792.2 L-418.8 -793.3 L-418.3 -794.4 L-417.9 -795.4 L-417.4 -796.5 L-417 -797.6 L-416.5 -798.7 L-416.1 -799.7 L-415.6 -800.8 L-415.2 -801.9 L-414.7 -803 L-414.3 -804 L-413.8 -805.1 L-413.4 -806.2 L-412.9 -807.3 L-412.5 -808.3 L-412 -809.4 L-411.6 -810.5 L-411.1 -811.6 L-410.7 -812.6 L-410.2 -813.7 L-409.8 -814.8 L-409.3 -815.9 L-408.9 -816.9 L-408.4 -818 L-408 -819.1 Z " />
<path stroke="rgb(0,0,0)" stroke-opacity="0.593" fill="rgb(255,255,255)" fill-opacity="1" d="M224.8 -299.7 L224.7 -297.8 L224.4 -295.8 L224 -293.9 L223.4 -292 L222.7 -290.2 L221.9 -288.4 L220.9 -286.7 L219.7 -285.1 L218.5 -283.6 L217.1 -282.1 L215.7 -280.8 L214.1 -279.7 L212.4 -278.6 L210.7 -277.7 L208.9 -276.9 L207 -276.3 L205.1 -275.8 L203.2 -275.5 L201.2 -275.3 L199.2 -275.3 L197.3 -275.4 L195.3 -275.7 L193.4 -276.1 L191.5 -276.7 L189.7 -277.5 L188 -278.4 L186.3 -279.4 L184.7 -280.6 L183.2 -281.8 L181.8 -283.2 L180.5 -284.7 L179.4 -286.3 L178.4 -288 L177.5 -289.8 L176.7 -291.6 L176.1 -293.5 L175.7 -295.4 L175.4 -297.3 L175.3 -299.3 L175.3 -301.3 L175.5 -303.2 L175.8 -305.2 L176.3 -307.1 L176.9 -308.9 L177.7 -310.7 L178.6 -312.5 L179.7 -314.1 L180.9 -315.7 L182.2 -317.2 L183.6 -318.5 L185.1 -319.8 L186.7 -320.9 L188.4 -321.9 L190.2 -322.7 L192.1 -323.4 L193.9 -324 L195.9 -324.4 L197.8 -324.7 L199.8 -324.8 L201.7 -324.7 L203.7 -324.5 L205.6 -324.1 L207.5 -323.6 L209.4 -322.9 L211.2 -322.1 L212.9 -321.1 L214.5 -320 L216.1 -318.8 L217.5 -317.5 L218.9 -316 L220.1 -314.5 L221.2 -312.9 L222.1 -311.1 L222.9 -309.3 L223.6 -307.5 L224.1 -305.6 L224.5 -303.7 L224.7 -301.7 L224.8 -299.7 Z " />
<path stroke="rgb(0,0,0)" stroke-opacity="1" fill="rgb(255,255,255)" fill-opacity="1" d="M-191.6 -826.7 L-190.8 -825.3 L-190.1 -823.9 L-189.4 -822.5 L-188.7 -821 L-188 -819.6 L-187.2 -818.2 L-186.5 -816.8 L-185.8 -815.4 L-185.1 -813.9 L-184.4 -812.5 L-183.6 -811.1 L-182.9 -809.7 L-182.2 -808.3 L-181.5 -806.8 L-180.8 -805.4 L-180.1 -804 L-179.3 -802.6 L-178.6 -801.1 L-177.9 -799.7 L-177.2 -798.3 L-176.5 -796.9 L-175.7 -795.5 L-175 -794 L-174.3 -792.6 L-173.6 -791.2 L-175 -790.5 L-176.4 -789.8 L-177.8 -789.1 L-179.3 -788.3 L-180.7 -787.6 L-182.1 -786.9 L-183.5 -786.2 L-184.9 -785.5 L-186.4 -784.7 L-187.8 -784 L-189.2 -783.3 L-190.6 -782.6 L-192 -781.9 L-193.5 -781.1 L-194.9 -780.4 L-196.3 -779.7 L-197.7 -779 L-199.1 -778.3 L-200.6 -777.5 L-202 -776.8 L-203.4 -776.1 L-204.8 -775.4 L-206.2 -774.7 L-207.7 -773.9 L-209.1 -773.2 L-209.8 -774.7 L-210.5 -776.1 L-211.2 -777.5 L-212 -778.9 L-212.7 -780.3 L-213.4 -781.8 L-214.1 -783.2 L-214.8 -784.6 L-215.6 -786 L-216.3 -787.4 L-217 -788.9 L-217.7 -790.3 L-218.4 -791.7 L-219.2 -793.1 L-219.9 -794.5 L-220.6 -796 L-221.3 -797.4 L-222 -798.8 L-222.8 -800.2 L-223.5 -801.6 L-224.2 -803.1 L-224.9 -804.5 L-225.6 -805.9 L-226.3 -807.3 L-227.1 -808.7 L-225.6 -809.5 L-224.2 -810.2 L-222.8 -810.9 L-221.4 -811.6 L-220 -812.3 L-218.5 -813.1 L-217.1 -813.8 L-215.7 -814.5 L-214.3 -815.2 L-212.9 -815.9 L-211.4 -816.6 L-210 -817.4 L-208.6 -818.1 L-207.2 -818.8 L-205.8 -819.5 L-204.3 -820.2 L-202.9 -821 L-201.5 -821.7 L-200.1 -822.4 L-198.7 -823.1 L-197.2 -823.8 L-195.8 -824.6 L-194.4 -825.3 L-193 -826 L-191.6 -826.7 Z " />
<path stroke="rgb(0,0,0)" stroke-opacity="0.593" fill="rgb(255,255,255)" fill-opacity="1" d="M-275.2 -199.7 L-275.3 -197.8 L-275.6 -195.8 L-276 -193.9 L-276.6 -192 L-277.3 -190.2 L-278.1 -188.4 L-279.1 -186.7 L-280.3 -185.1 L-281.5 -183.6 L-282.9 -182.1 L-284.3 -180.8 L-285.9 -179.7 L-287.6 -178.6 L-289.3 -177.7 L-291.1 -176.9 L-293 -176.3 L-294.9 -175.8 L-296.8 -175.5 L-298.8 -175.3 L-300.8 -175.3 L-302.7 -175.4 L-304.7 -175.7 L-306.6 -176.1 L-308.5 -176.7 L-310.3 -177.5 L-312 -178.4 L-313.7 -179.4 L-315.3 -180.6 L-316.8 -181.8 L-318.2 -183.2 L-319.5 -184.7 L-320.6 -186.3 L-321.6 -188 L-322.5 -189.8 L-323.3 -191.6 L-323.9 -193.5 L-324.3 -195.4 L-324.6 -197.3 L-324.7 -199.3 L-324.7 -201.3 L-324.5 -203.2 L-324.2 -205.2 L-323.7 -207.1 L-323.1 -208.9 L-322.3 -210.7 L-321.4 -212.5 L-320.3 -214.1 L-319.1 -215.7 L-317.8 -217.2 L-316.4 -218.5 L-314.9 -219.8 L-313.3 -220.9 L-311.6 -221.9 L-309.8 -222.7 L-307.9 -223.4 L-306.1 -224 L-304.1 -224.4 L-302.2 -224.7 L-300.2 -224.8 L-298.3 -224.7 L-296.3 -224.5 L-294.4 -224.1 L-292.5 -223.6 L-290.6 -222.9 L-288.8 -222.1 L-287.1 -221.1 L-285.5 -220 L-283.9 -218.8 L-282.5 -217.5 L-281.1 -216 L-279.9 -214.5 L-278.8 -212.9 L-277.9 -211.1 L-277.1 -209.3 L-276.4 -207.5 L-275.9 -205.6 L-275.5 -203.7 L-275.3 -201.7 L-275.2 -199.7 Z " />
<path stroke="rgb(0,0,0)" stroke-opacity="1" fill="rgb(255,255,255)" fill-opacity="1" d="M-711.8 -713.6 L-710.8 -713.5 L-709.8 -713.4 L-708.8 -713.4 L-707.8 -713.3 L-706.8 -713.2 L-705.8 -713.2 L-704.8 -713.1 L-703.7 -713 L-702.7 -712.9 L-701.7 -712.9 L-700.7 -712.8 L-699.7 -712.7 L-698.7 -712.7 L-697.7 -712.6 L-696.7 -712.5 L-695.7 -712.4 L-694.7 -712.4 L-693.7 -712.3 L-692.7 -712.2 L-691.7 -712.1 L-690.7 -712.1 L-689.7 -712 L-688.6 -711.9 L-687.6 -711.9 L-686.6 -711.8 L-686.7 -710.8 L-686.8 -709.8 L-686.8 -708.8 L-686.9 -707.8 L-687 -706.7 L-687.1 -705.7 L-687.1 -704.7 L-687.2 -703.7 L-687.3 -702.7 L-687.4 -701.7 L-687.4 -700.7 L-687.5 -699.7 L-687.6 -698.7 L-687.6 -697.7 L-687.7 -696.7 L-687.8 -695.7 L-687.9 -694.7 L-687.9 -693.7 L-688 -692.7 L-688.1 -691.6 L-688.2 -690.6 L-688.2 -689.6 L-688.3 -688.6 L-688.4 -687.6 L-688.4 -686.6 L-689.4 -686.7 L-690.5 -686.8 L-691.5 -686.8 L-692.5 -686.9 L-693.5 -687 L-694.5 -687 L-695.5 -687.1 L-696.5 -687.2 L-697.5 -687.3 L-698.5 -687.3 L-699.5 -687.4 L-700.5 -687.5 L-701.5 -687.6 L-702.5 -687.6 L-703.5 -687.7 L-704.5 -687.8 L-705.6 -687.8 L-706.6 -687.9 L-707.6 -688 L-708.6 -688.1 L-709.6 -688.1 L-710.6 -688.2 L-711.6 -688.3 L-712.6 -688.4 L-713.6 -688.4 L-713.5 -689.4 L-713.5 -690.4 L-713.4 -691.4 L-713.3 -692.5 L-713.2 -693.5 L-713.2 -694.5 L-713.1 -695.5 L-713 -696.5 L-713 -697.5 L-712.9 -698.5 L-712.8 -699.5 L-712.7 -700.5 L-712.7 -701.5 L-712.6 -702.5 L-712.5 -703.5 L-712.5 -704.5 L-712.4 -705.5 L-712.3 -706.5 L-712.2 -707.6 L-712.2 -708.6 L-712.1 -709.6 L-712 -710.6 L-711.9 -711.6 L-711.9 -712.6 L-711.8 -713.6 Z " />
<path stroke="rgb(0,0,0)" stroke-opacity="0.593" fill="rgb(255,255,255)" fill-opacity="1" d="M-75.25 -199.7 L-75.35 -197.8 L-75.6 -195.8 L-76.01 -193.9 L-76.57 -192 L-77.28 -190.2 L-78.14 -188.4 L-79.13 -186.7 L-80.25 -185.1 L-81.5 -183.6 L-82.86 -182.1 L-84.34 -180.8 L-85.91 -179.7 L-87.57 -178.6 L-89.31 -177.7 L-91.12 -176.9 L-92.98 -176.3 L-94.89 -175.8 L-96.83 -175.5 L-98.79 -175.3 L-100.8 -175.3 L-102.7 -175.4 L-104.7 -175.7 L-106.6 -176.1 L-108.5 -176.7 L-110.3 -177.5 L-112 -178.4 L-113.7 -179.4 L-115.3 -180.6 L-116.8 -181.8 L-118.2 -183.2 L-119.5 -184.7 L-120.6 -186.3 L-121.6 -188 L-122.5 -189.8 L-123.3 -191.6 L-123.9 -193.5 L-124.3 -195.4 L-124.6 -197.3 L-124.7 -199.3 L-124.7 -201.3 L-124.5 -203.2 L-124.2 -205.2 L-123.7 -207.1 L-123.1 -208.9 L-122.3 -210.7 L-121.4 -212.5 L-120.3 -214.1 L-119.1 -215.7 L-117.8 -217.2 L-116.4 -218.5 L-114.9 -219.8 L-113.3 -220.9 L-111.6 -221.9 L-109.8 -222.7 L-107.9 -223.4 L-106.1 -224 L-104.1 -224.4 L-102.2 -224.7 L-100.2 -224.8 L-98.25 -224.7 L-96.3 -224.5 L-94.36 -224.1 L-92.47 -223.6 L-90.62 -222.9 L-88.83 -222.1 L-87.11 -221.1 L-85.47 -220 L-83.92 -218.8 L-82.48 -217.5 L-81.14 -216 L-79.93 -214.5 L-78.84 -212.9 L-77.89 -211.1 L-77.07 -209.3 L-76.4 -207.5 L-75.88 -205.6 L-75.52 -203.7 L-75.3 -201.7 L-75.25 -199.7 Z " />
<path stroke="rgb(0,0,0)" stroke-opacity="1" fill="rgb(255,255,255)" fill-opacity="1" d="M-508 -719.1 L-506.9 -718.6 L-505.8 -718.2 L-504.8 -717.7 L-503.7 -717.3 L-502.6 -716.9 L-501.5 -716.4 L-500.5 -716 L-499.4 -715.5 L-498.3 -715.1 L-497.2 -714.6 L-496.2 -714.2 L-495.1 -713.7 L-494 -713.3 L-492.9 -712.8 L-491.9 -712.4 L-490.8 -711.9 L-489.7 -711.5 L-488.6 -711 L-487.6 -710.6 L-486.5 -710.1 L-485.4 -709.7 L-484.3 -709.2 L-483.3 -708.8 L-482.2 -708.3 L-481.1 -707.9 L-481.6 -706.8 L-482 -705.7 L-482.5 -704.6 L-482.9 -703.6 L-483.4 -702.5 L-483.8 -701.4 L-484.3 -700.3 L-484.7 -699.3 L-485.2 -698.2 L-485.6 -697.1 L-486.1 -696 L-486.5 -695 L-486.9 -693.9 L-487.4 -692.8 L-487.8 -691.7 L-488.3 -690.7 L-488.7 -689.6 L-489.2 -688.5 L-489.6 -687.4 L-490.1 -686.4 L-490.5 -685.3 L-491 -684.2 L-491.4 -683.2 L-491.9 -682.1 L-492.3 -681 L-493.4 -681.5 L-494.5 -681.9 L-495.6 -682.3 L-496.6 -682.8 L-497.7 -683.2 L-498.8 -683.7 L-499.9 -684.1 L-500.9 -684.6 L-502 -685 L-503.1 -685.5 L-504.2 -685.9 L-505.2 -686.4 L-506.3 -686.8 L-507.4 -687.3 L-508.5 -687.7 L-509.5 -688.2 L-510.6 -688.6 L-511.7 -689.1 L-512.8 -689.5 L-513.8 -690 L-514.9 -690.4 L-516 -690.9 L-517.1 -691.3 L-518.1 -691.8 L-519.2 -692.2 L-518.8 -693.3 L-518.3 -694.4 L-517.9 -695.4 L-517.4 -696.5 L-517 -697.6 L-516.5 -698.7 L-516.1 -699.7 L-515.6 -700.8 L-515.2 -701.9 L-514.7 -703 L-514.3 -704 L-513.8 -705.1 L-513.4 -706.2 L-512.9 -707.3 L-512.5 -708.3 L-512 -709.4 L-511.6 -710.5 L-511.1 -711.6 L-510.7 -712.6 L-510.2 -713.7 L-509.8 -714.8 L-509.3 -715.9 L-508.9 -716.9 L-508.4 -718 L-508 -719.1 Z " />
<path stroke="rgb(0,0,0)" stroke-opacity="0.593" fill="rgb(255,255,255)" fill-opacity="1" d="M124.8 -199.7 L124.7 -197.8 L124.4 -195.8 L124 -193.9 L123.4 -192 L122.7 -190.2 L121.9 -188.4 L120.9 -186.7 L119.7 -185.1 L118.5 -183.6 L117.1 -182.1 L115.7 -180.8 L114.1 -179.7 L112.4 -178.6 L110.7 -177.7 L108.9 -176.9 L107 -176.3 L105.1 -175.8 L103.2 -175.5 L101.2 -175.3 L99.24 -175.3 L97.28 -175.4 L95.33 -175.7 L93.42 -176.1 L91.54 -176.7 L89.72 -177.5 L87.96 -178.4 L86.28 -179.4 L84.69 -180.6 L83.19 -181.8 L81.8 -183.2 L80.53 -184.7 L79.38 -186.3 L78.35 -188 L77.47 -189.8 L76.73 -191.6 L76.13 -193.5 L75.69 -195.4 L75.4 -197.3 L75.26 -199.3 L75.28 -201.3 L75.46 -203.2 L75.79 -205.2 L76.28 -207.1 L76.92 -208.9 L77.7 -210.7 L78.62 -212.5 L79.68 -214.1 L80.87 -215.7 L82.17 -217.2 L83.59 -218.5 L85.12 -219.8 L86.74 -220.9 L88.44 -221.9 L90.21 -222.7 L92.05 -223.4 L93.94 -224 L95.86 -224.4 L97.82 -224.7 L99.78 -224.8 L101.7 -224.7 L103.7 -224.5 L105.6 -224.1 L107.5 -223.6 L109.4 -222.9 L111.2 -222.1 L112.9 -221.1 L114.5 -220 L116.1 -218.8 L117.5 -217.5 L118.9 -216 L120.1 -214.5 L121.2 -212.9 L122.1 -211.1 L122.9 -209.3 L123.6 -207.5 L124.1 -205.6 L124.5 -203.7 L124.7 -201.7 L124.8 -199.7 Z " />
<path stroke="rgb(0,0,0)" stroke-opacity="1" fill="rgb(255,255,255)" fill-opacity="1" d="M-291.6 -726.7 L-290.8 -725.3 L-290.1 -723.9 L-289.4 -722.5 L-288.7 -721 L-288 -719.6 L-287.2 -718.2 L-286.5 -716.8 L-285.8 -715.4 L-285.1 -713.9 L-284.4 -712.5 L-283.6 -711.1 L-282.9 -709.7 L-282.2 -708.3 L-281.5 -706.8 L-280.8 -705.4 L-280.1 -704 L-279.3 -702.6 L-278.6 -701.1 L-277.9 -699.7 L-277.2 -698.3 L-276.5 -696.9 L-275.7 -695.5 L-275 -694 L-274.3 -692.6 L-273.6 -691.2 L-275 -690.5 L-276.4 -689.8 L-277.8 -689.1 L-279.3 -688.3 L-280.7 -687.6 L-282.1 -686.9 L-283.5 -686.2 L-284.9 -685.5 L-286.4 -684.7 L-287.8 -684 L-289.2 -683.3 L-290.6 -682.6 L-292 -681.9 L-293.5 -681.1 L-294.9 -680.4 L-296.3 -679.7 L-297.7 -679 L-299.1 -678.3 L-300.6 -677.5 L-302 -676.8 L-303.4 -676.1 L-304.8 -675.4 L-306.2 -674.7 L-307.7 -673.9 L-309.1 -673.2 L-309.8 -674.7 L-310.5 -676.1 L-311.2 -677.5 L-312 -678.9 L-312.7 -680.3 L-313.4 -681.8 L-314.1 -683.2 L-314.8 -684.6 L-315.6 -686 L-316.3 -687.4 L-317 -688.9 L-317.7 -690.3 L-318.4 -691.7 L-319.2 -693.1 L-319.9 -694.5 L-320.6 -696 L-321.3 -697.4 L-322 -698.8 L-322.8 -700.2 L-323.5 -701.6 L-324.2 -703.1 L-324.9 -704.5 L-325.6 -705.9 L-326.3 -707.3 L-327.1 -708.7 L-325.6 -709.5 L-324.2 -710.2 L-322.8 -710.9 L-321.4 -711.6 L-320 -712.3 L-318.5 -713.1 L-317.1 -713.8 L-315.7 -714.5 L-314.3 -715.2 L-312.9 -715.9 L-311.4 -716.6 L-310 -717.4 L-308.6 -718.1 L-307.2 -718.8 L-305.8 -719.5 L-304.3 -720.2 L-302.9 -721 L-301.5 -721.7 L-300.1 -722.4 L-298.7 -723.1 L-297.2 -723.8 L-295.8 -724.6 L-294.4 -725.3 L-293 -726 L-291.6 -726.7 Z " />
<path stroke="rgb(0,0,0)" stroke-opacity="0.593" fill="rgb(255,255,255)" fill-opacity="1" d="M324.8 -199.7 L324.7 -197.8 L324.4 -195.8 L324 -193.9 L323.4 -192 L322.7 -190.2 L321.9 -188.4 L320.9 -186.7 L319.7 -185.1 L318.5 -183.6 L317.1 -182.1 L315.7 -180.8 L314.1 -179.7 L312.4 -178.6 L310.7 -177.7 L308.9 -176.9 L307 -176.3 L305.1 -175.8 L303.2 -175.5 L301.2 -175.3 L299.2 -175.3 L297.3 -175.4 L295.3 -175.7 L293.4 -176.1 L291.5 -176.7 L289.7 -177.5 L288 -178.4 L286.3 -179.4 L284.7 -180.6 L283.2 -181.8 L281.8 -183.2 L280.5 -184.7 L279.4 -186.3 L278.4 -188 L277.5 -189.8 L276.7 -191.6 L276.1 -193.5 L275.7 -195.4 L275.4 -197.3 L275.3 -199.3 L275.3 -201.3 L275.5 -203.2 L275.8 -205.2 L276.3 -207.1 L276.9 -208.9 L277.7 -210.7 L278.6 -212.5 L279.7 -214.1 L280.9 -215.7 L282.2 -217.2 L283.6 -218.5 L285.1 -219.8 L286.7 -220.9 L288.4 -221.9 L290.2 -222.7 L292.1 -223.4 L293.9 -224 L295.9 -224.4 L297.8 -224.7 L299.8 -224.8 L301.7 -224.7 L303.7 -224.5 L305.6 -224.1 L307.5 -223.6 L309.4 -222.9 L311.2 -222.1 L312.9 -221.1 L314.5 -220 L316.1 -218.8 L317.5 -217.5 L318.9 -216 L320.1 -214.5 L321.2 -212.9 L322.1 -211.1 L322.9 -209.3 L323.6 -207.5 L324.1 -205.6 L324.5 -203.7 L324.7 -201.7 L324.8 -199.7 Z " />
<path stroke="rgb(0,0,0)" stroke-opacity="1" fill="rgb(255,255,255)" fill-opacity="1" d="M-811.8 -613.6 L-810.8 -613.5 L-809.8 -613.4 L-808.8 -613.4 L-807.8 -613.3 L-806.8 -613.2 L-805.8 -613.2 L-804.8 -613.1 L-803.7 -613 L-802.7 -612.9 L-801.7 -612.9 L-800.7 -612.8 L-799.7 -612.7 L-798.7 -612.7 L-797.7 -612.6 L-796.7 -612.5 L-795.7 -612.4 L-794.7 -612.4 L-793.7 -612.3 L-792.7 -612.2 L-791.7 -612.1 L-790.7 -612.1 L-789.7 -612 L-788.6 -611.9 L-787.6 -611.9 L-786.6 -611.8 L-786.7 -610.8 L-786.8 -609.8 L-786.8 -608.8 L-786.9 -607.8 L-787 -606.7 L-787.1 -605.7 L-787.1 -604.7 L-787.2 -603.7 L-787.3 -602.7 L-787.4 -601.7 L-787.4 -600.7 L-787.5 -599.7 L-787.6 -598.7 L-787.6 -597.7 L-787.7 -596.7 L-787.8 -595.7 L-787.9 -594.7 L-787.9 -593.7 L-788 -592.7 L-788.1 -591.6 L-788.2 -590.6 L-788.2 -589.6 L-788.3 -588.6 L-788.4 -587.6 L-788.4 -586.6 L-789.4 -586.7 L-790.5 -586.8 L-791.5 -586.8 L-792.5 -586.9 L-793.5 -587 L-794.5 -587 L-795.5 -587.1 L-796.5 -587.2 L-797.5 -587.3 L-798.5 -587.3 L-799.5 -587.4 L-800.5 -587.5 L-801.5 -587.6 L-802.5 -587.6 L-803.5 -587.7 L-804.5 -587.8 L-805.6 -587.8 L-806.6 -587.9 L-807.6 -588 L-808.6 -588.1 L-809.6 -588.1 L-810.6 -588.2 L-811.6 -588.3 L-812.6 -588.4 L-813.6 -588.4 L-813.5 -589.4 L-813.5 -590.4 L-813.4 -591.4 L-813.3 -592.5 L-813.2 -593.5 L-813.2 -594.5 L-813.1 -595.5 L-813 -596.5 L-813 -597.5 L-812.9 -598.5 L-812.8 -599.5 L-812.7 -600.5 L-812.7 -601.5 L-812.6 -602.5 L-812.5 -603.5 L-812.5 -604.5 L-812.4 -605.5 L-812.3 -606.5 L-812.2 -607.6 L-812.2 -608.6 L-812.1 -609.6 L-812 -610.6 L-811.9 -611.6 L-811.9 -612.6 L-811.8 -613.6 Z " />
<path stroke="rgb(0,0,0)" stroke-opacity="0.593" fill="rgb(255,255,255)" fill-opacity="1" d="M-175.2 -99.73 L-175.3 -97.77 L-175.6 -95.82 L-176 -93.89 L-176.6 -92.01 L-177.3 -90.17 L-178.1 -88.4 L-179.1 -86.7 L-180.3 -85.08 L-181.5 -83.56 L-182.9 -82.14 L-184.3 -80.84 L-185.9 -79.65 L-187.6 -78.6 L-189.3 -77.68 L-191.1 -76.9 L-193 -76.27 L-194.9 -75.78 L-196.8 -75.46 L-198.8 -75.28 L-200.8 -75.26 L-202.7 -75.4 L-204.7 -75.7 L-206.6 -76.15 L-208.5 -76.74 L-210.3 -77.49 L-212 -78.38 L-213.7 -79.4 L-215.3 -80.56 L-216.8 -81.84 L-218.2 -83.23 L-219.5 -84.73 L-220.6 -86.32 L-221.6 -88.01 L-222.5 -89.76 L-223.3 -91.59 L-223.9 -93.46 L-224.3 -95.38 L-224.6 -97.33 L-224.7 -99.29 L-224.7 -101.3 L-224.5 -103.2 L-224.2 -105.2 L-223.7 -107.1 L-223.1 -108.9 L-222.3 -110.7 L-221.4 -112.5 L-220.3 -114.1 L-219.1 -115.7 L-217.8 -117.2 L-216.4 -118.5 L-214.9 -119.8 L-213.3 -120.9 L-211.6 -121.9 L-209.8 -122.7 L-207.9 -123.4 L-206.1 -124 L-204.1 -124.4 L-202.2 -124.7 L-200.2 -124.8 L-198.3 -124.7 L-196.3 -124.5 L-194.4 -124.1 L-192.5 -123.6 L-190.6 -122.9 L-188.8 -122.1 L-187.1 -121.1 L-185.5 -120 L-183.9 -118.8 L-182.5 -117.5 L-181.1 -116 L-179.9 -114.5 L-178.8 -112.9 L-177.9 -111.1 L-177.1 -109.3 L-176.4 -107.5 L-175.9 -105.6 L-175.5 -103.7 L-175.3 -101.7 L-175.2 -99.73 Z " />
<path stroke="rgb(0,0,0)" stroke-opacity="1" fill="rgb(255,255,255)" fill-opacity="1" d="M-608 -619.1 L-606.9 -618.6 L-605.8 -618.2 L-604.8 -617.7 L-603.7 -617.3 L-602.6 -616.9 L-601.5 -616.4 L-600.5 -616 L-599.4 -615.5 L-598.3 -615.1 L-597.2 -614.6 L-596.2 -614.2 L-595.1 -613.7 L-594 -613.3 L-592.9 -612.8 L-591.9 -612.4 L-590.8 -611.9 L-589.7 -611.5 L-588.6 -611 L-587.6 -610.6 L-586.5 -610.1 L-585.4 -609.7 L-584.3 -609.2 L-583.3 -608.8 L-582.2 -608.3 L-581.1 -607.9 L-581.6 -606.8 L-582 -605.7 L-582.5 -604.6 L-582.9 -603.6 L-583.4 -602.5 L-583.8 -601.4 L-584.3 -600.3 L-584.7 -599.3 L-585.2 -598.2 L-585.6 -597.1 L-586.1 -596 L-586.5 -595 L-586.9 -593.9 L-587.4 -592.8 L-587.8 -591.7 L-588.3 -590.7 L-588.7 -589.6 L-589.2 -588.5 L-589.6 -587.4 L-590.1 -586.4 L-590.5 -585.3 L-591 -584.2 L-591.4 -583.2 L-591.9 -582.1 L-592.3 -581 L-593.4 -581.5 L-594.5 -581.9 L-595.6 -582.3 L-596.6 -582.8 L-597.7 -583.2 L-598.8 -583.7 L-599.9 -584.1 L-600.9 -584.6 L-602 -585 L-603.1 -585.5 L-604.2 -585.9 L-605.2 -586.4 L-606.3 -586.8 L-607.4 -587.3 L-608.5 -587.7 L-609.5 -588.2 L-610.6 -588.6 L-611.7 -589.1 L-612.8 -589.5 L-613.8 -590 L-614.9 -590.4 L-616 -590.9 L-617.1 -591.3 L-618.1 -591.8 L-619.2 -592.2 L-618.8 -593.3 L-618.3 -594.4 L-617.9 -595.4 L-617.4 -596.5 L-617 -597.6 L-616.5 -598.7 L-616.1 -599.7 L-615.6 -600.8 L-615.2 -601.9 L-614.7 -603 L-614.3 -604 L-613.8 -605.1 L-613.4 -606.2 L-612.9 -607.3 L-612.5 -608.3 L-612 -609.4 L-611.6 -610.5 L-611.1 -611.6 L-610.7 -612.6 L-610.2 -613.7 L-609.8 -614.8 L-609.3 -615.9 L-608.9 -616.9 L-608.4 -618 L-608 -619.1 Z " />
<path stroke="rgb(0,0,0)" stroke-opacity="0.593" fill="rgb(255,255,255)" fill-opacity="1" d="M24.75 -99.73 L24.65 -97.77 L24.4 -95.82 L23.99 -93.89 L23.43 -92.01 L22.72 -90.17 L21.86 -88.4 L20.87 -86.7 L19.75 -85.08 L18.5 -83.56 L17.14 -82.14 L15.66 -80.84 L14.09 -79.65 L12.43 -78.6 L10.69 -77.68 L8.881 -76.9 L7.018 -76.27 L5.11 -75.78 L3.169 -75.46 L1.209 -75.28 L-0.7591 -75.26 L-2.722 -75.4 L-4.668 -75.7 L-6.584 -76.15 L-8.459 -76.74 L-10.28 -77.49 L-12.04 -78.38 L-13.72 -79.4 L-15.31 -80.56 L-16.81 -81.84 L-18.2 -83.23 L-19.47 -84.73 L-20.62 -86.32 L-21.65 -88.01 L-22.53 -89.76 L-23.27 -91.59 L-23.87 -93.46 L-24.31 -95.38 L-24.6 -97.33 L-24.74 -99.29 L-24.72 -101.3 L-24.54 -103.2 L-24.21 -105.2 L-23.72 -107.1 L-23.08 -108.9 L-22.3 -110.7 L-21.38 -112.5 L-20.32 -114.1 L-19.13 -115.7 L-17.83 -117.2 L-16.41 -118.5 L-14.88 -119.8 L-13.26 -120.9 L-11.56 -121.9 L-9.786 -122.7 L-7.949 -123.4 L-6.062 -124 L-4.136 -124.4 L-2.185 -124.7 L-0.2188 -124.8 L1.748 -124.7 L3.704 -124.5 L5.637 -124.1 L7.534 -123.6 L9.383 -122.9 L11.17 -122.1 L12.89 -121.1 L14.53 -120 L16.08 -118.8 L17.52 -117.5 L18.86 -116 L20.07 -114.5 L21.16 -112.9 L22.11 -111.1 L22.93 -109.3 L23.6 -107.5 L24.12 -105.6 L24.48 -103.7 L24.7 -101.7 L24.75 -99.73 Z " />
<path stroke="rgb(0,0,0)" stroke-opacity="1" fill="rgb(255,255,255)" fill-opacity="1" d="M-391.6 -626.7 L-390.8 -625.3 L-390.1 -623.9 L-389.4 -622.5 L-388.7 -621 L-388 -619.6 L-387.2 -618.2 L-386.5 -616.8 L-385.8 -615.4 L-385.1 -613.9 L-384.4 -612.5 L-383.6 -611.1 L-382.9 -609.7 L-382.2 -608.3 L-381.5 -606.8 L-380.8 -605.4 L-380.1 -604 L-379.3 -602.6 L-378.6 -601.1 L-377.9 -599.7 L-377.2 -598.3 L-376.5 -596.9 L-375.7 -595.5 L-375 -594 L-374.3 -592.6 L-373.6 -591.2 L-375 -590.5 L-376.4 -589.8 L-377.8 -589.1 L-379.3 -588.3 L-380.7 -587.6 L-382.1 -586.9 L-383.5 -586.2 L-384.9 -585.5 L-386.4 -584.7 L-387.8 -584 L-389.2 -583.3 L-390.6 -582.6 L-392 -581.9 L-393.5 -581.1 L-394.9 -580.4 L-396.3 -579.7 L-397.7 -579 L-399.1 -578.3 L-400.6 -577.5 L-402 -576.8 L-403.4 -576.1 L-404.8 -575.4 L-406.2 -574.7 L-407.7 -573.9 L-409.1 -573.2 L-409.8 -574.7 L-410.5 -576.1 L-411.2 -577.5 L-412 -578.9 L-412.7 -580.3 L-413.4 -581.8 L-414.1 -583.2 L-414.8 -584.6 L-415.6 -586 L-416.3 -587.4 L-417 -588.9 L-417.7 -590.3 L-418.4 -591.7 L-419.2 -593.1 L-419.9 -594.5 L-420.6 -596 L-421.3 -597.4 L-422 -598.8 L-422.8 -600.2 L-423.5 -601.6 L-424.2 -603.1 L-424.9 -604.5 L-425.6 -605.9 L-426.3 -607.3 L-427.1 -608.7 L-425.6 -609.5 L-424.2 -610.2 L-422.8 -610.9 L-421.4 -611.6 L-420 -612.3 L-418.5 -613.1 L-417.1 -613.8 L-415.7 -614.5 L-414.3 -615.2 L-412.9 -615.9 L-411.4 -616.6 L-410 -617.4 L-408.6 -618.1 L-407.2 -618.8 L-405.8 -619.5 L-404.3 -620.2 L-402.9 -621 L-401.5 -621.7 L-400.1 -622.4 L-398.7 -623.1 L-397.2 -623.8 L-395.8 -624.6 L-394.4 -625.3 L-393 -626 L-391.6 -626.7 Z " />
<path stroke="rgb(0,0,0)" stroke-opacity="0.593" fill="rgb(255,255,255)" fill-opacity="1" d="M224.8 -99.73 L224.7 -97.77 L224.4 -95.82 L224 -93.89 L223.4 -92.01 L222.7 -90.17 L221.9 -88.4 L220.9 -86.7 L219.7 -85.08 L218.5 -83.56 L217.1 -82.14 L215.7 -80.84 L214.1 -79.65 L212.4 -78.6 L210.7 -77.68 L208.9 -76.9 L207 -76.27 L205.1 -75.78 L203.2 -75.46 L201.2 -75.28 L199.2 -75.26 L197.3 -75.4 L195.3 -75.7 L193.4 -76.15 L191.5 -76.74 L189.7 -77.49 L188 -78.38 L186.3 -79.4 L184.7 -80.56 L183.2 -81.84 L181.8 -83.23 L180.5 -84.73 L179.4 -86.32 L178.4 -88.01 L177.5 -89.76 L176.7 -91.59 L176.1 -93.46 L175.7 -95.38 L175.4 -97.33 L175.3 -99.29 L175.3 -101.3 L175.5 -103.2 L175.8 -105.2 L176.3 -107.1 L176.9 -108.9 L177.7 -110.7 L178.6 -112.5 L179.7 -114.1 L180.9 -115.7 L182.2 -117.2 L183.6 -118.5 L185.1 -119.8 L186.7 -120.9 L188.4 -121.9 L190.2 -122.7 L192.1 -123.4 L193.9 -124 L195.9 -124.4 L197.8 -124.7 L199.8 -124.8 L201.7 -124.7 L203.7 -124.5 L205.6 -124.1 L207.5 -123.6 L209.4 -122.9 L211.2 -122.1 L212.9 -121.1 L214.5 -120 L216.1 -118.8 L217.5 -117.5 L218.9 -116 L220.1 -114.5 L221.2 -112.9 L222.1 -111.1 L222.9 -109.3 L223.6 -107.5 L224.1 -105.6 L224.5 -103.7 L224.7 -101.7 L224.8 -99.73 Z " />
<path stroke="rgb(0,0,0)" stroke-opacity="1" fill="rgb(255,255,255)" fill-opacity="1" d="M-178.7 -625.4 L-178.6 -623.5 L-178.4 -621.6 L-178.3 -619.8 L-178.1 -617.9 L-178 -616 L-177.8 -614.1 L-177.7 -612.2 L-177.6 -610.3 L-177.4 -608.4 L-177.3 -606.6 L-177.1 -604.7 L-177 -602.8 L-176.8 -600.9 L-176.7 -599 L-176.5 -597.1 L-176.4 -595.2 L-176.2 -593.4 L-176.1 -591.5 L-175.9 -589.6 L-175.8 -587.7 L-175.6 -585.8 L-175.5 -583.9 L-175.3 -582 L-175.2 -580.2 L-175 -578.3 L-176.9 -578.1 L-178.8 -578 L-180.7 -577.8 L-182.6 -577.7 L-184.5 -577.5 L-186.3 -577.4 L-188.2 -577.2 L-190.1 -577.1 L-192 -576.9 L-193.9 -576.8 L-195.8 -576.6 L-197.6 -576.5 L-199.5 -576.3 L-201.4 -576.2 L-203.3 -576 L-205.2 -575.9 L-207.1 -575.7 L-209 -575.6 L-210.8 -575.4 L-212.7 -575.3 L-214.6 -575.1 L-216.5 -575 L-218.4 -574.9 L-220.3 -574.7 L-222.2 -574.6 L-222.3 -576.4 L-222.5 -578.3 L-222.6 -580.2 L-222.8 -582.1 L-222.9 -584 L-223.1 -585.9 L-223.2 -587.8 L-223.4 -589.6 L-223.5 -591.5 L-223.7 -593.4 L-223.8 -595.3 L-223.9 -597.2 L-224.1 -599.1 L-224.2 -601 L-224.4 -602.8 L-224.5 -604.7 L-224.7 -606.6 L-224.8 -608.5 L-225 -610.4 L-225.1 -612.3 L-225.3 -614.2 L-225.4 -616 L-225.6 -617.9 L-225.7 -619.8 L-225.9 -621.7 L-224 -621.8 L-222.1 -622 L-220.2 -622.1 L-218.3 -622.3 L-216.5 -622.4 L-214.6 -622.6 L-212.7 -622.7 L-210.8 -622.9 L-208.9 -623 L-207 -623.2 L-205.1 -623.3 L-203.3 -623.5 L-201.4 -623.6 L-199.5 -623.8 L-197.6 -623.9 L-195.7 -624.1 L-193.8 -624.2 L-191.9 -624.4 L-190.1 -624.5 L-188.2 -624.7 L-186.3 -624.8 L-184.4 -625 L-182.5 -625.1 L-180.6 -625.3 L-178.7 -625.4 Z " />
<path stroke="rgb(0,0,0)" stroke-opacity="0.593" fill="rgb(255,255,255)" fill-opacity="1" d="M-275.2 0.2668 L-275.3 2.232 L-275.6 4.184 L-276 6.109 L-276.6 7.995 L-277.3 9.83 L-278.1 11.6 L-279.1 13.3 L-280.3 14.92 L-281.5 16.44 L-282.9 17.86 L-284.3 19.16 L-285.9 20.35 L-287.6 21.4 L-289.3 22.32 L-291.1 23.1 L-293 23.73 L-294.9 24.22 L-296.8 24.54 L-298.8 24.72 L-300.8 24.74 L-302.7 24.6 L-304.7 24.3 L-306.6 23.85 L-308.5 23.26 L-310.3 22.51 L-312 21.62 L-313.7 20.6 L-315.3 19.44 L-316.8 18.16 L-318.2 16.77 L-319.5 15.27 L-320.6 13.68 L-321.6 11.99 L-322.5 10.24 L-323.3 8.414 L-323.9 6.538 L-324.3 4.62 L-324.6 2.674 L-324.7 0.7106 L-324.7 -1.257 L-324.5 -3.217 L-324.2 -5.157 L-323.7 -7.064 L-323.1 -8.926 L-322.3 -10.73 L-321.4 -12.47 L-320.3 -14.13 L-319.1 -15.7 L-317.8 -17.17 L-316.4 -18.53 L-314.9 -19.78 L-313.3 -20.9 L-311.6 -21.89 L-309.8 -22.74 L-307.9 -23.44 L-306.1 -24 L-304.1 -24.41 L-302.2 -24.66 L-300.2 -24.75 L-298.3 -24.69 L-296.3 -24.48 L-294.4 -24.1 L-292.5 -23.58 L-290.6 -22.91 L-288.8 -22.09 L-287.1 -21.13 L-285.5 -20.04 L-283.9 -18.82 L-282.5 -17.49 L-281.1 -16.04 L-279.9 -14.49 L-278.8 -12.85 L-277.9 -11.13 L-277.1 -9.339 L-276.4 -7.488 L-275.9 -5.59 L-275.5 -3.657 L-275.3 -1.7 L-275.2 0.2668 Z " />
<path stroke="rgb(0,0,0)" stroke-opacity="1" fill="rgb(255,255,255)" fill-opacity="1" d="M-708 -519.1 L-706.9 -518.6 L-705.8 -518.2 L-704.8 -517.7 L-703.7 -517.3 L-702.6 -516.9 L-701.5 -516.4 L-700.5 -516 L-699.4 -515.5 L-698.3 -515.1 L-697.2 -514.6 L-696.2 -514.2 L-695.1 -513.7 L-694 -513.3 L-692.9 -512.8 L-691.9 -512.4 L-690.8 -511.9 L-689.7 -511.5 L-688.6 -511 L-687.6 -510.6 L-686.5 -510.1 L-685.4 -509.7 L-684.3 -509.2 L-683.3 -508.8 L-682.2 -508.3 L-681.1 -507.9 L-681.6 -506.8 L-682 -505.7 L-682.5 -504.6 L-682.9 -503.6 L-683.4 -502.5 L-683.8 -501.4 L-684.3 -500.3 L-684.7 -499.3 L-685.2 -498.2 L-685.6 -497.1 L-686.1 -496 L-686.5 -495 L-686.9 -493.9 L-687.4 -492.8 L-687.8 -491.7 L-688.3 -490.7 L-688.7 -489.6 L-689.2 -488.5 L-689.6 -487.4 L-690.1 -486.4 L-690.5 -485.3 L-691 -484.2 L-691.4 -483.2 L-691.9 -482.1 L-692.3 -481 L-693.4 -481.5 L-694.5 -481.9 L-695.6 -482.3 L-696.6 -482.8 L-697.7 -483.2 L-698.8 -483.7 L-699.9 -484.1 L-700.9 -484.6 L-702 -485 L-703.1 -485.5 L-704.2 -485.9 L-705.2 -486.4 L-706.3 -486.8 L-707.4 -487.3 L-708.5 -487.7 L-709.5 -488.2 L-710.6 -488.6 L-711.7 -489.1 L-712.8 -489.5 L-713.8 -490 L-714.9 -490.4 L-716 -490.9 L-717.1 -491.3 L-718.1 -491.8 L-719.2 -492.2 L-718.8 -493.3 L-718.3 -494.4 L-717.9 -495.4 L-717.4 -496.5 L-717 -497.6 L-716.5 -498.7 L-716.1 -499.7 L-715.6 -500.8 L-715.2 -501.9 L-714.7 -503 L-714.3 -504 L-713.8 -505.1 L-713.4 -506.2 L-712.9 -507.3 L-712.5 -508.3 L-712 -509.4 L-711.6 -510.5 L-711.1 -511.6 L-710.7 -512.6 L-710.2 -513.7 L-709.8 -514.8 L-709.3 -515.9 L-708.9 -516.9 L-708.4 -518 L-708 -519.1 Z " />
<path stroke="rgb(0,0,0)" stroke-opacity="0.593" fill="rgb(255,255,255)" fill-opacity="1" d="M-75.25 0.2668 L-75.35 2.232 L-75.6 4.184 L-76.01 6.109 L-76.57 7.995 L-77.28 9.83 L-78.14 11.6 L-79.13 13.3 L-80.25 14.92 L-81.5 16.44 L-82.86 17.86 L-84.34 19.16 L-85.91 20.35 L-87.57 21.4 L-89.31 22.32 L-91.12 23.1 L-92.98 23.73 L-94.89 24.22 L-96.83 24.54 L-98.79 24.72 L-100.8 24.74 L-102.7 24.6 L-104.7 24.3 L-106.6 23.85 L-108.5 23.26 L-110.3 22.51 L-112 21.62 L-113.7 20.6 L-115.3 19.44 L-116.8 18.16 L-118.2 16.77 L-119.5 15.27 L-120.6 13.68 L-121.6 11.99 L-122.5 10.24 L-123.3 8.414 L-123.9 6.538 L-124.3 4.62 L-124.6 2.674 L-124.7 0.7106 L-124.7 -1.257 L-124.5 -3.217 L-124.2 -5.157 L-123.7 -7.064 L-123.1 -8.926 L-122.3 -10.73 L-121.4 -12.47 L-120.3 -14.13 L-119.1 -15.7 L-117.8 -17.17 L-116.4 -18.53 L-114.9 -19.78 L-113.3 -20.9 L-111.6 -21.89 L-109.8 -22.74 L-107.9 -23.44 L-106.1 -24 L-104.1 -24.41 L-102.2 -24.66 L-100.2 -24.75 L-98.25 -24.69 L-96.3 -24.48 L-94.36 -24.1 L-92.47 -23.58 L-90.62 -22.91 L-88.83 -22.09 L-87.11 -21.13 L-85.47 -20.04 L-83.92 -18.82 L-82.48 -17.49 L-81.14 -16.04 L-79.93 -14.49 L-78.84 -12.85 L-77.89 -11.13 L-77.07 -9.339 L-76.4 -7.488 L-75.88 -5.59 L-75.52 -3.657 L-75.3 -1.7 L-75.25 0.2668 Z " />
<path stroke="rgb(0,0,0)" stroke-opacity="1" fill="rgb(255,255,255)" fill-opacity="1" d="M-491.6 -526.7 L-490.8 -525.3 L-490.1 -523.9 L-489.4 -522.5 L-488.7 -521 L-488 -519.6 L-487.2 -518.2 L-486.5 -516.8 L-485.8 -515.4 L-485.1 -513.9 L-484.4 -512.5 L-483.6 -511.1 L-482.9 -509.7 L-482.2 -508.3 L-481.5 -506.8 L-480.8 -505.4 L-480.1 -504 L-479.3 -502.6 L-478.6 -501.1 L-477.9 -499.7 L-477.2 -498.3 L-476.5 -496.9 L-475.7 -495.5 L-475 -494 L-474.3 -492.6 L-473.6 -491.2 L-475 -490.5 L-476.4 -489.8 L-477.8 -489.1 L-479.3 -488.3 L-480.7 -487.6 L-482.1 -486.9 L-483.5 -486.2 L-484.9 -485.5 L-486.4 -484.7 L-487.8 -484 L-489.2 -483.3 L-490.6 -482.6 L-492 -481.9 L-493.5 -481.1 L-494.9 -480.4 L-496.3 -479.7 L-497.7 -479 L-499.1 -478.3 L-500.6 -477.5 L-502 -476.8 L-503.4 -476.1 L-504.8 -475.4 L-506.2 -474.7 L-507.7 -473.9 L-509.1 -473.2 L-509.8 -474.7 L-510.5 -476.1 L-511.2 -477.5 L-512 -478.9 L-512.7 -480.3 L-513.4 -481.8 L-514.1 -483.2 L-514.8 -484.6 L-515.6 -486 L-516.3 -487.4 L-517 -488.9 L-517.7 -490.3 L-518.4 -491.7 L-519.2 -493.1 L-519.9 -494.5 L-520.6 -496 L-521.3 -497.4 L-522 -498.8 L-522.8 -500.2 L-523.5 -501.6 L-524.2 -503.1 L-524.9 -504.5 L-525.6 -505.9 L-526.3 -507.3 L-527.1 -508.7 L-525.6 -509.5 L-524.2 -510.2 L-522.8 -510.9 L-521.4 -511.6 L-520 -512.3 L-518.5 -513.1 L-517.1 -513.8 L-515.7 -514.5 L-514.3 -515.2 L-512.9 -515.9 L-511.4 -516.6 L-510 -517.4 L-508.6 -518.1 L-507.2 -518.8 L-505.8 -519.5 L-504.3 -520.2 L-502.9 -521 L-501.5 -521.7 L-500.1 -522.4 L-498.7 -523.1 L-497.2 -523.8 L-495.8 -524.6 L-494.4 -525.3 L-493 -526 L-491.6 -526.7 Z " />
<path stroke="rgb(0,0,0)" stroke-opacity="0.593" fill="rgb(255,255,255)" fill-opacity="1" d="M124.8 0.2668 L124.7 2.232 L124.4 4.184 L124 6.109 L123.4 7.995 L122.7 9.83 L121.9 11.6 L120.9 13.3 L119.7 14.92 L118.5 16.44 L117.1 17.86 L115.7 19.16 L114.1 20.35 L112.4 21.4 L110.7 22.32 L108.9 23.1 L107 23.73 L105.1 24.22 L103.2 24.54 L101.2 24.72 L99.24 24.74 L97.28 24.6 L95.33 24.3 L93.42 23.85 L91.54 23.26 L89.72 22.51 L87.96 21.62 L86.28 20.6 L84.69 19.44 L83.19 18.16 L81.8 16.77 L80.53 15.27 L79.38 13.68 L78.35 11.99 L77.47 10.24 L76.73 8.414 L76.13 6.538 L75.69 4.62 L75.4 2.674 L75.26 0.7106 L75.28 -1.257 L75.46 -3.217 L75.79 -5.157 L76.28 -7.064 L76.92 -8.926 L77.7 -10.73 L78.62 -12.47 L79.68 -14.13 L80.87 -15.7 L82.17 -17.17 L83.59 -18.53 L85.12 -19.78 L86.74 -20.9 L88.44 -21.89 L90.21 -22.74 L92.05 -23.44 L93.94 -24 L95.86 -24.41 L97.82 -24.66 L99.78 -24.75 L101.7 -24.69 L103.7 -24.48 L105.6 -24.1 L107.5 -23.58 L109.4 -22.91 L111.2 -22.09 L112.9 -21.13 L114.5 -20.04 L116.1 -18.82 L117.5 -17.49 L118.9 -16.04 L120.1 -14.49 L121.2 -12.85 L122.1 -11.13 L122.9 -9.339 L123.6 -7.488 L124.1 -5.59 L124.5 -3.657 L124.7 -1.7 L124.8 0.2668 Z " />
<path stroke="rgb(0,0,0)" stroke-opacity="1" fill="rgb(255,255,255)" fill-opacity="1" d="M-278.7 -525.4 L-278.6 -523.5 L-278.4 -521.6 L-278.3 -519.8 L-278.1 -517.9 L-278 -516 L-277.8 -514.1 L-277.7 -512.2 L-277.6 -510.3 L-277.4 -508.4 L-277.3 -506.6 L-277.1 -504.7 L-277 -502.8 L-276.8 -500.9 L-276.7 -499 L-276.5 -497.1 L-276.4 -495.2 L-276.2 -493.4 L-276.1 -491.5 L-275.9 -489.6 L-275.8 -487.7 L-275.6 -485.8 L-275.5 -483.9 L-275.3 -482 L-275.2 -480.2 L-275 -478.3 L-276.9 -478.1 L-278.8 -478 L-280.7 -477.8 L-282.6 -477.7 L-284.5 -477.5 L-286.3 -477.4 L-288.2 -477.2 L-290.1 -477.1 L-292 -476.9 L-293.9 -476.8 L-295.8 -476.6 L-297.6 -476.5 L-299.5 -476.3 L-301.4 -476.2 L-303.3 -476 L-305.2 -475.9 L-307.1 -475.7 L-309 -475.6 L-310.8 -475.4 L-312.7 -475.3 L-314.6 -475.1 L-316.5 -475 L-318.4 -474.9 L-320.3 -474.7 L-322.2 -474.6 L-322.3 -476.4 L-322.5 -478.3 L-322.6 -480.2 L-322.8 -482.1 L-322.9 -484 L-323.1 -485.9 L-323.2 -487.8 L-323.4 -489.6 L-323.5 -491.5 L-323.7 -493.4 L-323.8 -495.3 L-323.9 -497.2 L-324.1 -499.1 L-324.2 -501 L-324.4 -502.8 L-324.5 -504.7 L-324.7 -506.6 L-324.8 -508.5 L-325 -510.4 L-325.1 -512.3 L-325.3 -514.2 L-325.4 -516 L-325.6 -517.9 L-325.7 -519.8 L-325.9 -521.7 L-324 -521.8 L-322.1 -522 L-320.2 -522.1 L-318.3 -522.3 L-316.5 -522.4 L-314.6 -522.6 L-312.7 -522.7 L-310.8 -522.9 L-308.9 -523 L-307 -523.2 L-305.1 -523.3 L-303.3 -523.5 L-301.4 -523.6 L-299.5 -523.8 L-297.6 -523.9 L-295.7 -524.1 L-293.8 -524.2 L-291.9 -524.4 L-290.1 -524.5 L-288.2 -524.7 L-286.3 -524.8 L-284.4 -525 L-282.5 -525.1 L-280.6 -525.3 L-278.7 -525.4 Z " />
<path stroke="rgb(0,0,0)" stroke-opacity="0.593" fill="rgb(255,255,255)" fill-opacity="1" d="M324.8 0.2668 L324.7 2.232 L324.4 4.184 L324 6.109 L323.4 7.995 L322.7 9.83 L321.9 11.6 L320.9 13.3 L319.7 14.92 L318.5 16.44 L317.1 17.86 L315.7 19.16 L314.1 20.35 L312.4 21.4 L310.7 22.32 L308.9 23.1 L307 23.73 L305.1 24.22 L303.2 24.54 L301.2 24.72 L299.2 24.74 L297.3 24.6 L295.3 24.3 L293.4 23.85 L291.5 23.26 L289.7 22.51 L288 21.62 L286.3 20.6 L284.7 19.44 L283.2 18.16 L281.8 16.77 L280.5 15.27 L279.4 13.68 L278.4 11.99 L277.5 10.24 L276.7 8.414 L276.1 6.538 L275.7 4.62 L275.4 2.674 L275.3 0.7106 L275.3 -1.257 L275.5 -3.217 L275.8 -5.157 L276.3 -7.064 L276.9 -8.926 L277.7 -10.73 L278.6 -12.47 L279.7 -14.13 L280.9 -15.7 L282.2 -17.17 L283.6 -18.53 L285.1 -19.78 L286.7 -20.9 L288.4 -21.89 L290.2 -22.74 L292.1 -23.44 L293.9 -24 L295.9 -24.41 L297.8 -24.66 L299.8 -24.75 L301.7 -24.69 L303.7 -24.48 L305.6 -24.1 L307.5 -23.58 L309.4 -22.91 L311.2 -22.09 L312.9 -21.13 L314.5 -20.04 L316.1 -18.82 L317.5 -17.49 L318.9 -16.04 L320.1 -14.49 L321.2 -12.85 L322.1 -11.13 L322.9 -9.339 L323.6 -7.488 L324.1 -5.59 L324.5 -3.657 L324.7 -1.7 L324.8 0.2668 Z " />
<path stroke="rgb(0,0,0)" stroke-opacity="1" fill="rgb(255,255,255)" fill-opacity="1" d="M-808 -419.1 L-806.9 -418.6 L-805.8 -418.2 L-804.8 -417.7 L-803.7 -417.3 L-802.6 -416.9 L-801.5 -416.4 L-800.5 -416 L-799.4 -415.5 L-798.3 -415.1 L-797.2 -414.6 L-796.2 -414.2 L-795.1 -413.7 L-794 -413.3 L-792.9 -412.8 L-791.9 -412.4 L-790.8 -411.9 L-789.7 -411.5 L-788.6 -411 L-787.6 -410.6 L-786.5 -410.1 L-785.4 -409.7 L-784.3 -409.2 L-783.3 -408.8 L-782.2 -408.3 L-781.1 -407.9 L-781.6 -406.8 L-782 -405.7 L-782.5 -404.6 L-782.9 -403.6 L-783.4 -402.5 L-783.8 -401.4 L-784.3 -400.3 L-784.7 -399.3 L-785.2 -398.2 L-785.6 -397.1 L-786.1 -396 L-786.5 -395 L-786.9 -393.9 L-787.4 -392.8 L-787.8 -391.7 L-788.3 -390.7 L-788.7 -389.6 L-789.2 -388.5 L-789.6 -387.4 L-790.1 -386.4 L-790.5 -385.3 L-791 -384.2 L-791.4 -383.2 L-791.9 -382.1 L-792.3 -381 L-793.4 -381.5 L-794.5 -381.9 L-795.6 -382.3 L-796.6 -382.8 L-797.7 -383.2 L-798.8 -383.7 L-799.9 -384.1 L-800.9 -384.6 L-802 -385 L-803.1 -385.5 L-804.2 -385.9 L-805.2 -386.4 L-806.3 -386.8 L-807.4 -387.3 L-808.5 -387.7 L-809.5 -388.2 L-810.6 -388.6 L-811.7 -389.1 L-812.8 -389.5 L-813.8 -390 L-814.9 -390.4 L-816 -390.9 L-817.1 -391.3 L-818.1 -391.8 L-819.2 -392.2 L-818.8 -393.3 L-818.3 -394.4 L-817.9 -395.4 L-817.4 -396.5 L-817 -397.6 L-816.5 -398.7 L-816.1 -399.7 L-815.6 -400.8 L-815.2 -401.9 L-814.7 -403 L-814.3 -404 L-813.8 -405.1 L-813.4 -406.2 L-812.9 -407.3 L-812.5 -408.3 L-812 -409.4 L-811.6 -410.5 L-811.1 -411.6 L-810.7 -412.6 L-810.2 -413.7 L-809.8 -414.8 L-809.3 -415.9 L-808.9 -416.9 L-808.4 -418 L-808 -419.1 Z " />
<path stroke="rgb(0,0,0)" stroke-opacity="0.593" fill="rgb(255,255,255)" fill-opacity="1" d="M-175.2 100.3 L-175.3 102.2 L-175.6 104.2 L-176 106.1 L-176.6 108 L-177.3 109.8 L-178.1 111.6 L-179.1 113.3 L-180.3 114.9 L-181.5 116.4 L-182.9 117.9 L-184.3 119.2 L-185.9 120.3 L-187.6 121.4 L-189.3 122.3 L-191.1 123.1 L-193 123.7 L-194.9 124.2 L-196.8 124.5 L-198.8 124.7 L-200.8 124.7 L-202.7 124.6 L-204.7 124.3 L-206.6 123.9 L-208.5 123.3 L-210.3 122.5 L-212 121.6 L-213.7 120.6 L-215.3 119.4 L-216.8 118.2 L-218.2 116.8 L-219.5 115.3 L-220.6 113.7 L-221.6 112 L-222.5 110.2 L-223.3 108.4 L-223.9 106.5 L-224.3 104.6 L-224.6 102.7 L-224.7 100.7 L-224.7 98.74 L-224.5 96.78 L-224.2 94.84 L-223.7 92.94 L-223.1 91.07 L-222.3 89.27 L-221.4 87.53 L-220.3 85.87 L-219.1 84.3 L-217.8 82.83 L-216.4 81.47 L-214.9 80.22 L-213.3 79.1 L-211.6 78.11 L-209.8 77.26 L-207.9 76.56 L-206.1 76 L-204.1 75.59 L-202.2 75.34 L-200.2 75.25 L-198.3 75.31 L-196.3 75.52 L-194.4 75.9 L-192.5 76.42 L-190.6 77.09 L-188.8 77.91 L-187.1 78.87 L-185.5 79.96 L-183.9 81.18 L-182.5 82.51 L-181.1 83.96 L-179.9 85.51 L-178.8 87.15 L-177.9 88.87 L-177.1 90.66 L-176.4 92.51 L-175.9 94.41 L-175.5 96.34 L-175.3 98.3 L-175.2 100.3 Z " />
<path stroke="rgb(0,0,0)" stroke-opacity="1" fill="rgb(255,255,255)" fill-opacity="1" d="M-591.6 -426.7 L-590.8 -425.3 L-590.1 -423.9 L-589.4 -422.5 L-588.7 -421 L-588 -419.6 L-587.2 -418.2 L-586.5 -416.8 L-585.8 -415.4 L-585.1 -413.9 L-584.4 -412.5 L-583.6 -411.1 L-582.9 -409.7 L-582.2 -408.3 L-581.5 -406.8 L-580.8 -405.4 L-580.1 -404 L-579.3 -402.6 L-578.6 -401.1 L-577.9 -399.7 L-577.2 -398.3 L-576.5 -396.9 L-575.7 -395.5 L-575 -394 L-574.3 -392.6 L-573.6 -391.2 L-575 -390.5 L-576.4 -389.8 L-577.8 -389.1 L-579.3 -388.3 L-580.7 -387.6 L-582.1 -386.9 L-583.5 -386.2 L-584.9 -385.5 L-586.4 -384.7 L-587.8 -384 L-589.2 -383.3 L-590.6 -382.6 L-592 -381.9 L-593.5 -381.1 L-594.9 -380.4 L-596.3 -379.7 L-597.7 -379 L-599.1 -378.3 L-600.6 -377.5 L-602 -376.8 L-603.4 -376.1 L-604.8 -375.4 L-606.2 -374.7 L-607.7 -373.9 L-609.1 -373.2 L-609.8 -374.7 L-610.5 -376.1 L-611.2 -377.5 L-612 -378.9 L-612.7 -380.3 L-613.4 -381.8 L-614.1 -383.2 L-614.8 -384.6 L-615.6 -386 L-616.3 -387.4 L-617 -388.9 L-617.7 -390.3 L-618.4 -391.7 L-619.2 -393.1 L-619.9 -394.5 L-620.6 -396 L-621.3 -397.4 L-622 -398.8 L-622.8 -400.2 L-623.5 -401.6 L-624.2 -403.1 L-624.9 -404.5 L-625.6 -405.9 L-626.3 -407.3 L-627.1 -408.7 L-625.6 -409.5 L-624.2 -410.2 L-622.8 -410.9 L-621.4 -411.6 L-620 -412.3 L-618.5 -413.1 L-617.1 -413.8 L-615.7 -414.5 L-614.3 -415.2 L-612.9 -415.9 L-611.4 -416.6 L-610 -417.4 L-608.6 -418.1 L-607.2 -418.8 L-605.8 -419.5 L-604.3 -420.2 L-602.9 -421 L-601.5 -421.7 L-600.1 -422.4 L-598.7 -423.1 L-597.2 -423.8 L-595.8 -424.6 L-594.4 -425.3 L-593 -426 L-591.6 -426.7 Z " />
<path stroke="rgb(0,0,0)" stroke-opacity="0.593" fill="rgb(255,255,255)" fill-opacity="1" d="M24.75 100.3 L24.65 102.2 L24.4 104.2 L23.99 106.1 L23.43 108 L22.72 109.8 L21.86 111.6 L20.87 113.3 L19.75 114.9 L18.5 116.4 L17.14 117.9 L15.66 119.2 L14.09 120.3 L12.43 121.4 L10.69 122.3 L8.881 123.1 L7.018 123.7 L5.11 124.2 L3.169 124.5 L1.209 124.7 L-0.7591 124.7 L-2.722 124.6 L-4.668 124.3 L-6.584 123.9 L-8.459 123.3 L-10.28 122.5 L-12.04 121.6 L-13.72 120.6 L-15.31 119.4 L-16.81 118.2 L-18.2 116.8 L-19.47 115.3 L-20.62 113.7 L-21.65 112 L-22.53 110.2 L-23.27 108.4 L-23.87 106.5 L-24.31 104.6 L-24.6 102.7 L-24.74 100.7 L-24.72 98.74 L-24.54 96.78 L-24.21 94.84 L-23.72 92.94 L-23.08 91.07 L-22.3 89.27 L-21.38 87.53 L-20.32 85.87 L-19.13 84.3 L-17.83 82.83 L-16.41 81.47 L-14.88 80.22 L-13.26 79.1 L-11.56 78.11 L-9.786 77.26 L-7.949 76.56 L-6.062 76 L-4.136 75.59 L-2.185 75.34 L-0.2188 75.25 L1.748 75.31 L3.704 75.52 L5.637 75.9 L7.534 76.42 L9.383 77.09 L11.17 77.91 L12.89 78.87 L14.53 79.96 L16.08 81.18 L17.52 82.51 L18.86 83.96 L20.07 85.51 L21.16 87.15 L22.11 88.87 L22.93 90.66 L23.6 92.51 L24.12 94.41 L24.48 96.34 L24.7 98.3 L24.75 100.3 Z " />
<path stroke="rgb(0,0,0)" stroke-opacity="1" fill="rgb(255,255,255)" fill-opacity="1" d="M-378.7 -425.4 L-378.6 -423.5 L-378.4 -421.6 L-378.3 -419.8 L-378.1 -417.9 L-378 -416 L-377.8 -414.1 L-377.7 -412.2 L-377.6 -410.3 L-377.4 -408.4 L-377.3 -406.6 L-377.1 -404.7 L-377 -402.8 L-376.8 -400.9 L-376.7 -399 L-376.5 -397.1 L-376.4 -395.2 L-376.2 -393.4 L-376.1 -391.5 L-375.9 -389.6 L-375.8 -387.7 L-375.6 -385.8 L-375.5 -383.9 L-375.3 -382 L-375.2 -380.2 L-375 -378.3 L-376.9 -378.1 L-378.8 -378 L-380.7 -377.8 L-382.6 -377.7 L-384.5 -377.5 L-386.3 -377.4 L-388.2 -377.2 L-390.1 -377.1 L-392 -376.9 L-393.9 -376.8 L-395.8 -376.6 L-397.6 -376.5 L-399.5 -376.3 L-401.4 -376.2 L-403.3 -376 L-405.2 -375.9 L-407.1 -375.7 L-409 -375.6 L-410.8 -375.4 L-412.7 -375.3 L-414.6 -375.1 L-416.5 -375 L-418.4 -374.9 L-420.3 -374.7 L-422.2 -374.6 L-422.3 -376.4 L-422.5 -378.3 L-422.6 -380.2 L-422.8 -382.1 L-422.9 -384 L-423.1 -385.9 L-423.2 -387.8 L-423.4 -389.6 L-423.5 -391.5 L-423.7 -393.4 L-423.8 -395.3 L-423.9 -397.2 L-424.1 -399.1 L-424.2 -401 L-424.4 -402.8 L-424.5 -404.7 L-424.7 -406.6 L-424.8 -408.5 L-425 -410.4 L-425.1 -412.3 L-425.3 -414.2 L-425.4 -416 L-425.6 -417.9 L-425.7 -419.8 L-425.9 -421.7 L-424 -421.8 L-422.1 -422 L-420.2 -422.1 L-418.3 -422.3 L-416.5 -422.4 L-414.6 -422.6 L-412.7 -422.7 L-410.8 -422.9 L-408.9 -423 L-407 -423.2 L-405.1 -423.3 L-403.3 -423.5 L-401.4 -423.6 L-399.5 -423.8 L-397.6 -423.9 L-395.7 -424.1 L-393.8 -424.2 L-391.9 -424.4 L-390.1 -424.5 L-388.2 -424.7 L-386.3 -424.8 L-384.4 -425 L-382.5 -425.1 L-380.6 -425.3 L-378.7 -425.4 Z " />
<path stroke="rgb(0,0,0)" stroke-opacity="0.593" fill="rgb(255,255,255)" fill-opacity="1" d="M224.8 100.3 L224.7 102.2 L224.4 104.2 L224 106.1 L223.4 108 L222.7 109.8 L221.9 111.6 L220.9 113.3 L219.7 114.9 L218.5 116.4 L217.1 117.9 L215.7 119.2 L214.1 120.3 L212.4 121.4 L210.7 122.3 L208.9 123.1 L207 123.7 L205.1 124.2 L203.2 124.5 L201.2 124.7 L199.2 124.7 L197.3 124.6 L195.3 124.3 L193.4 123.9 L191.5 123.3 L189.7 122.5 L188 121.6 L186.3 120.6 L184.7 119.4 L183.2 118.2 L181.8 116.8 L180.5 115.3 L179.4 113.7 L178.4 112 L177.5 110.2 L176.7 108.4 L176.1 106.5 L175.7 104.6 L175.4 102.7 L175.3 100.7 L175.3 98.74 L175.5 96.78 L175.8 94.84 L176.3 92.94 L176.9 91.07 L177.7 89.27 L178.6 87.53 L179.7 85.87 L180.9 84.3 L182.2 82.83 L183.6 81.47 L185.1 80.22 L186.7 79.1 L188.4 78.11 L190.2 77.26 L192.1 76.56 L193.9 76 L195.9 75.59 L197.8 75.34 L199.8 75.25 L201.7 75.31 L203.7 75.52 L205.6 75.9 L207.5 76.42 L209.4 77.09 L211.2 77.91 L212.9 78.87 L214.5 79.96 L216.1 81.18 L217.5 82.51 L218.9 83.96 L220.1 85.51 L221.2 87.15 L222.1 88.87 L222.9 90.66 L223.6 92.51 L224.1 94.41 L224.5 96.34 L224.7 98.3 L224.8 100.3 Z " />
<path stroke="rgb(0,0,0)" stroke-opacity="1" fill="rgb(255,255,255)" fill-opacity="1" d="M-175.7 -424.3 L-175.7 -422.4 L-175.7 -420.4 L-175.7 -418.4 L-175.7 -416.5 L-175.8 -414.5 L-175.8 -412.5 L-175.8 -410.6 L-175.8 -408.6 L-175.8 -406.6 L-175.9 -404.7 L-175.9 -402.7 L-175.9 -400.7 L-175.9 -398.8 L-175.9 -396.8 L-175.9 -394.8 L-176 -392.9 L-176 -390.9 L-176 -388.9 L-176 -387 L-176 -385 L-176.1 -383.1 L-176.1 -381.1 L-176.1 -379.1 L-176.1 -377.2 L-176.1 -375.2 L-178.1 -375.2 L-180.1 -375.2 L-182 -375.2 L-184 -375.3 L-186 -375.3 L-187.9 -375.3 L-189.9 -375.3 L-191.9 -375.3 L-193.8 -375.3 L-195.8 -375.4 L-197.8 -375.4 L-199.7 -375.4 L-201.7 -375.4 L-203.7 -375.4 L-205.6 -375.5 L-207.6 -375.5 L-209.6 -375.5 L-211.5 -375.5 L-213.5 -375.5 L-215.5 -375.6 L-217.4 -375.6 L-219.4 -375.6 L-221.4 -375.6 L-223.3 -375.6 L-225.3 -375.6 L-225.3 -377.6 L-225.3 -379.6 L-225.2 -381.5 L-225.2 -383.5 L-225.2 -385.5 L-225.2 -387.4 L-225.2 -389.4 L-225.1 -391.4 L-225.1 -393.3 L-225.1 -395.3 L-225.1 -397.3 L-225.1 -399.2 L-225.1 -401.2 L-225 -403.2 L-225 -405.1 L-225 -407.1 L-225 -409.1 L-225 -411 L-224.9 -413 L-224.9 -415 L-224.9 -416.9 L-224.9 -418.9 L-224.9 -420.9 L-224.9 -422.8 L-224.8 -424.8 L-222.9 -424.8 L-220.9 -424.8 L-218.9 -424.8 L-217 -424.7 L-215 -424.7 L-213 -424.7 L-211.1 -424.7 L-209.1 -424.7 L-207.1 -424.6 L-205.2 -424.6 L-203.2 -424.6 L-201.2 -424.6 L-199.3 -424.6 L-197.3 -424.5 L-195.3 -424.5 L-193.4 -424.5 L-191.4 -424.5 L-189.4 -424.5 L-187.5 -424.5 L-185.5 -424.4 L-183.5 -424.4 L-181.6 -424.4 L-179.6 -424.4 L-177.6 -424.4 L-175.7 -424.3 Z " />
<path stroke="rgb(0,0,0)" stroke-opacity="0.593" fill="rgb(255,255,255)" fill-opacity="1" d="M-275.2 200.3 L-275.3 202.2 L-275.6 204.2 L-276 206.1 L-276.6 208 L-277.3 209.8 L-278.1 211.6 L-279.1 213.3 L-280.3 214.9 L-281.5 216.4 L-282.9 217.9 L-284.3 219.2 L-285.9 220.3 L-287.6 221.4 L-289.3 222.3 L-291.1 223.1 L-293 223.7 L-294.9 224.2 L-296.8 224.5 L-298.8 224.7 L-300.8 224.7 L-302.7 224.6 L-304.7 224.3 L-306.6 223.9 L-308.5 223.3 L-310.3 222.5 L-312 221.6 L-313.7 220.6 L-315.3 219.4 L-316.8 218.2 L-318.2 216.8 L-319.5 215.3 L-320.6 213.7 L-321.6 212 L-322.5 210.2 L-323.3 208.4 L-323.9 206.5 L-324.3 204.6 L-324.6 202.7 L-324.7 200.7 L-324.7 198.7 L-324.5 196.8 L-324.2 194.8 L-323.7 192.9 L-323.1 191.1 L-322.3 189.3 L-321.4 187.5 L-320.3 185.9 L-319.1 184.3 L-317.8 182.8 L-316.4 181.5 L-314.9 180.2 L-313.3 179.1 L-311.6 178.1 L-309.8 177.3 L-307.9 176.6 L-306.1 176 L-304.1 175.6 L-302.2 175.3 L-300.2 175.2 L-298.3 175.3 L-296.3 175.5 L-294.4 175.9 L-292.5 176.4 L-290.6 177.1 L-288.8 177.9 L-287.1 178.9 L-285.5 180 L-283.9 181.2 L-282.5 182.5 L-281.1 184 L-279.9 185.5 L-278.8 187.1 L-277.9 188.9 L-277.1 190.7 L-276.4 192.5 L-275.9 194.4 L-275.5 196.3 L-275.3 198.3 L-275.2 200.3 Z " />
<path stroke="rgb(0,0,0)" stroke-opacity="1" fill="rgb(255,255,255)" fill-opacity="1" d="M-691.6 -326.7 L-690.8 -325.3 L-690.1 -323.9 L-689.4 -322.5 L-688.7 -321 L-688 -319.6 L-687.2 -318.2 L-686.5 -316.8 L-685.8 -315.4 L-685.1 -313.9 L-684.4 -312.5 L-683.6 -311.1 L-682.9 -309.7 L-682.2 -308.3 L-681.5 -306.8 L-680.8 -305.4 L-680.1 -304 L-679.3 -302.6 L-678.6 -301.1 L-677.9 -299.7 L-677.2 -298.3 L-676.5 -296.9 L-675.7 -295.5 L-675 -294 L-674.3 -292.6 L-673.6 -291.2 L-675 -290.5 L-676.4 -289.8 L-677.8 -289.1 L-679.3 -288.3 L-680.7 -287.6 L-682.1 -286.9 L-683.5 -286.2 L-684.9 -285.5 L-686.4 -284.7 L-687.8 -284 L-689.2 -283.3 L-690.6 -282.6 L-692 -281.9 L-693.5 -281.1 L-694.9 -280.4 L-696.3 -279.7 L-697.7 -279 L-699.1 -278.3 L-700.6 -277.5 L-702 -276.8 L-703.4 -276.1 L-704.8 -275.4 L-706.2 -274.7 L-707.7 -273.9 L-709.1 -273.2 L-709.8 -274.7 L-710.5 -276.1 L-711.2 -277.5 L-712 -278.9 L-712.7 -280.3 L-713.4 -281.8 L-714.1 -283.2 L-714.8 -284.6 L-715.6 -286 L-716.3 -287.4 L-717 -288.9 L-717.7 -290.3 L-718.4 -291.7 L-719.2 -293.1 L-719.9 -294.5 L-720.6 -296 L-721.3 -297.4 L-722 -298.8 L-722.8 -300.2 L-723.5 -301.6 L-724.2 -303.1 L-724.9 -304.5 L-725.6 -305.9 L-726.3 -307.3 L-727.1 -308.7 L-725.6 -309.5 L-724.2 -310.2 L-722.8 -310.9 L-721.4 -311.6 L-720 -312.3 L-718.5 -313.1 L-717.1 -313.8 L-715.7 -314.5 L-714.3 -315.2 L-712.9 -315.9 L-711.4 -316.6 L-710 -317.4 L-708.6 -318.1 L-707.2 -318.8 L-705.8 -319.5 L-704.3 -320.2 L-702.9 -321 L-701.5 -321.7 L-700.1 -322.4 L-698.7 -323.1 L-697.2 -323.8 L-695.8 -324.6 L-694.4 -325.3 L-693 -326 L-691.6 -326.7 Z " />
<path stroke="rgb(0,0,0)" stroke-opacity="0.593" fill="rgb(255,255,255)" fill-opacity="1" d="M-75.25 200.3 L-75.35 202.2 L-75.6 204.2 L-76.01 206.1 L-76.57 208 L-77.28 209.8 L-78.14 211.6 L-79.13 213.3 L-80.25 214.9 L-81.5 216.4 L-82.86 217.9 L-84.34 219.2 L-85.91 220.3 L-87.57 221.4 L-89.31 222.3 L-91.12 223.1 L-92.98 223.7 L-94.89 224.2 L-96.83 224.5 L-98.79 224.7 L-100.8 224.7 L-102.7 224.6 L-104.7 224.3 L-106.6 223.9 L-108.5 223.3 L-110.3 222.5 L-112 221.6 L-113.7 220.6 L-115.3 219.4 L-116.8 218.2 L-118.2 216.8 L-119.5 215.3 L-120.6 213.7 L-121.6 212 L-122.5 210.2 L-123.3 208.4 L-123.9 206.5 L-124.3 204.6 L-124.6 202.7 L-124.7 200.7 L-124.7 198.7 L-124.5 196.8 L-124.2 194.8 L-123.7 192.9 L-123.1 191.1 L-122.3 189.3 L-121.4 187.5 L-120.3 185.9 L-119.1 184.3 L-117.8 182.8 L-116.4 181.5 L-114.9 180.2 L-113.3 179.1 L-111.6 178.1 L-109.8 177.3 L-107.9 176.6 L-106.1 176 L-104.1 175.6 L-102.2 175.3 L-100.2 175.2 L-98.25 175.3 L-96.3 175.5 L-94.36 175.9 L-92.47 176.4 L-90.62 177.1 L-88.83 177.9 L-87.11 178.9 L-85.47 180 L-83.92 181.2 L-82.48 182.5 L-81.14 184 L-79.93 185.5 L-78.84 187.1 L-77.89 188.9 L-77.07 190.7 L-76.4 192.5 L-75.88 194.4 L-75.52 196.3 L-75.3 198.3 L-75.25 200.3 Z " />
<path stroke="rgb(0,0,0)" stroke-opacity="1" fill="rgb(255,255,255)" fill-opacity="1" d="M-478.7 -325.4 L-478.6 -323.5 L-478.4 -321.6 L-478.3 -319.8 L-478.1 -317.9 L-478 -316 L-477.8 -314.1 L-477.7 -312.2 L-477.6 -310.3 L-477.4 -308.4 L-477.3 -306.6 L-477.1 -304.7 L-477 -302.8 L-476.8 -300.9 L-476.7 -299 L-476.5 -297.1 L-476.4 -295.2 L-476.2 -293.4 L-476.1 -291.5 L-475.9 -289.6 L-475.8 -287.7 L-475.6 -285.8 L-475.5 -283.9 L-475.3 -282 L-475.2 -280.2 L-475 -278.3 L-476.9 -278.1 L-478.8 -278 L-480.7 -277.8 L-482.6 -277.7 L-484.5 -277.5 L-486.3 -277.4 L-488.2 -277.2 L-490.1 -277.1 L-492 -276.9 L-493.9 -276.8 L-495.8 -276.6 L-497.6 -276.5 L-499.5 -276.3 L-501.4 -276.2 L-503.3 -276 L-505.2 -275.9 L-507.1 -275.7 L-509 -275.6 L-510.8 -275.4 L-512.7 -275.3 L-514.6 -275.1 L-516.5 -275 L-518.4 -274.9 L-520.3 -274.7 L-522.2 -274.6 L-522.3 -276.4 L-522.5 -278.3 L-522.6 -280.2 L-522.8 -282.1 L-522.9 -284 L-523.1 -285.9 L-523.2 -287.8 L-523.4 -289.6 L-523.5 -291.5 L-523.7 -293.4 L-523.8 -295.3 L-523.9 -297.2 L-524.1 -299.1 L-524.2 -301 L-524.4 -302.8 L-524.5 -304.7 L-524.7 -306.6 L-524.8 -308.5 L-525 -310.4 L-525.1 -312.3 L-525.3 -314.2 L-525.4 -316 L-525.6 -317.9 L-525.7 -319.8 L-525.9 -321.7 L-524 -321.8 L-522.1 -322 L-520.2 -322.1 L-518.3 -322.3 L-516.5 -322.4 L-514.6 -322.6 L-512.7 -322.7 L-510.8 -322.9 L-508.9 -323 L-507 -323.2 L-505.1 -323.3 L-503.3 -323.5 L-501.4 -323.6 L-499.5 -323.8 L-497.6 -323.9 L-495.7 -324.1 L-493.8 -324.2 L-491.9 -324.4 L-490.1 -324.5 L-488.2 -324.7 L-486.3 -324.8 L-484.4 -325 L-482.5 -325.1 L-480.6 -325.3 L-478.7 -325.4 Z " />
<path stroke="rgb(0,0,0)" stroke-opacity="0.593" fill="rgb(255,255,255)" fill-opacity="1" d="M124.8 200.3 L124.7 202.2 L124.4 204.2 L124 206.1 L123.4 208 L122.7 209.8 L121.9 211.6 L120.9 213.3 L119.7 214.9 L118.5 216.4 L117.1 217.9 L115.7 219.2 L114.1 220.3 L112.4 221.4 L110.7 222.3 L108.9 223.1 L107 223.7 L105.1 224.2 L103.2 224.5 L101.2 224.7 L99.24 224.7 L97.28 224.6 L95.33 224.3 L93.42 223.9 L91.54 223.3 L89.72 222.5 L87.96 221.6 L86.28 220.6 L84.69 219.4 L83.19 218.2 L81.8 216.8 L80.53 215.3 L79.38 213.7 L78.35 212 L77.47 210.2 L76.73 208.4 L76.13 206.5 L75.69 204.6 L75.4 202.7 L75.26 200.7 L75.28 198.7 L75.46 196.8 L75.79 194.8 L76.28 192.9 L76.92 191.1 L77.7 189.3 L78.62 187.5 L79.68 185.9 L80.87 184.3 L82.17 182.8 L83.59 181.5 L85.12 180.2 L86.74 179.1 L88.44 178.1 L90.21 177.3 L92.05 176.6 L93.94 176 L95.86 175.6 L97.82 175.3 L99.78 175.2 L101.7 175.3 L103.7 175.5 L105.6 175.9 L107.5 176.4 L109.4 177.1 L111.2 177.9 L112.9 178.9 L114.5 180 L116.1 181.2 L117.5 182.5 L118.9 184 L120.1 185.5 L121.2 187.1 L122.1 188.9 L122.9 190.7 L123.6 192.5 L124.1 194.4 L124.5 196.3 L124.7 198.3 L124.8 200.3 Z " />
<path stroke="rgb(0,0,0)" stroke-opacity="1" fill="rgb(255,255,255)" fill-opacity="1" d="M-275.7 -324.3 L-275.7 -322.4 L-275.7 -320.4 L-275.7 -318.4 L-275.7 -316.5 L-275.8 -314.5 L-275.8 -312.5 L-275.8 -310.6 L-275.8 -308.6 L-275.8 -306.6 L-275.9 -304.7 L-275.9 -302.7 L-275.9 -300.7 L-275.9 -298.8 L-275.9 -296.8 L-275.9 -294.8 L-276 -292.9 L-276 -290.9 L-276 -288.9 L-276 -287 L-276 -285 L-276.1 -283.1 L-276.1 -281.1 L-276.1 -279.1 L-276.1 -277.2 L-276.1 -275.2 L-278.1 -275.2 L-280.1 -275.2 L-282 -275.2 L-284 -275.3 L-286 -275.3 L-287.9 -275.3 L-289.9 -275.3 L-291.9 -275.3 L-293.8 -275.3 L-295.8 -275.4 L-297.8 -275.4 L-299.7 -275.4 L-301.7 -275.4 L-303.7 -275.4 L-305.6 -275.5 L-307.6 -275.5 L-309.6 -275.5 L-311.5 -275.5 L-313.5 -275.5 L-315.5 -275.6 L-317.4 -275.6 L-319.4 -275.6 L-321.4 -275.6 L-323.3 -275.6 L-325.3 -275.6 L-325.3 -277.6 L-325.3 -279.6 L-325.2 -281.5 L-325.2 -283.5 L-325.2 -285.5 L-325.2 -287.4 L-325.2 -289.4 L-325.1 -291.4 L-325.1 -293.3 L-325.1 -295.3 L-325.1 -297.3 L-325.1 -299.2 L-325.1 -301.2 L-325 -303.2 L-325 -305.1 L-325 -307.1 L-325 -309.1 L-325 -311 L-324.9 -313 L-324.9 -315 L-324.9 -316.9 L-324.9 -318.9 L-324.9 -320.9 L-324.9 -322.8 L-324.8 -324.8 L-322.9 -324.8 L-320.9 -324.8 L-318.9 -324.8 L-317 -324.7 L-315 -324.7 L-313 -324.7 L-311.1 -324.7 L-309.1 -324.7 L-307.1 -324.6 L-305.2 -324.6 L-303.2 -324.6 L-301.2 -324.6 L-299.3 -324.6 L-297.3 -324.5 L-295.3 -324.5 L-293.4 -324.5 L-291.4 -324.5 L-289.4 -324.5 L-287.5 -324.5 L-285.5 -324.4 L-283.5 -324.4 L-281.6 -324.4 L-279.6 -324.4 L-277.6 -324.4 L-275.7 -324.3 Z " />
<path stroke="rgb(0,0,0)" stroke-opacity="0.593" fill="rgb(255,255,255)" fill-opacity="1" d="M324.8 200.3 L324.7 202.2 L324.4 204.2 L324 206.1 L323.4 208 L322.7 209.8 L321.9 211.6 L320.9 213.3 L319.7 214.9 L318.5 216.4 L317.1 217.9 L315.7 219.2 L314.1 220.3 L312.4 221.4 L310.7 222.3 L308.9 223.1 L307 223.7 L305.1 224.2 L303.2 224.5 L301.2 224.7 L299.2 224.7 L297.3 224.6 L295.3 224.3 L293.4 223.9 L291.5 223.3 L289.7 222.5 L288 221.6 L286.3 220.6 L284.7 219.4 L283.2 218.2 L281.8 216.8 L280.5 215.3 L279.4 213.7 L278.4 212 L277.5 210.2 L276.7 208.4 L276.1 206.5 L275.7 204.6 L275.4 202.7 L275.3 200.7 L275.3 198.7 L275.5 196.8 L275.8 194.8 L276.3 192.9 L276.9 191.1 L277.7 189.3 L278.6 187.5 L279.7 185.9 L280.9 184.3 L282.2 182.8 L283.6 181.5 L285.1 180.2 L286.7 179.1 L288.4 178.1 L290.2 177.3 L292.1 176.6 L293.9 176 L295.9 175.6 L297.8 175.3 L299.8 175.2 L301.7 175.3 L303.7 175.5 L305.6 175.9 L307.5 176.4 L309.4 177.1 L311.2 177.9 L312.9 178.9 L314.5 180 L316.1 181.2 L317.5 182.5 L318.9 184 L320.1 185.5 L321.2 187.1 L322.1 188.9 L322.9 190.7 L323.6 192.5 L324.1 194.4 L324.5 196.3 L324.7 198.3 L324.8 200.3 Z " />
<path stroke="rgb(0,0,0)" stroke-opacity="1" fill="rgb(255,255,255)" fill-opacity="1" d="M-791.6 -226.7 L-790.8 -225.3 L-790.1 -223.9 L-789.4 -222.5 L-788.7 -221 L-788 -219.6 L-787.2 -218.2 L-786.5 -216.8 L-785.8 -215.4 L-785.1 -213.9 L-784.4 -212.5 L-783.6 -211.1 L-782.9 -209.7 L-782.2 -208.3 L-781.5 -206.8 L-780.8 -205.4 L-780.1 -204 L-779.3 -202.6 L-778.6 -201.1 L-777.9 -199.7 L-777.2 -198.3 L-776.5 -196.9 L-775.7 -195.5 L-775 -194 L-774.3 -192.6 L-773.6 -191.2 L-775 -190.5 L-776.4 -189.8 L-777.8 -189.1 L-779.3 -188.3 L-780.7 -187.6 L-782.1 -186.9 L-783.5 -186.2 L-784.9 -185.5 L-786.4 -184.7 L-787.8 -184 L-789.2 -183.3 L-790.6 -182.6 L-792 -181.9 L-793.5 -181.1 L-794.9 -180.4 L-796.3 -179.7 L-797.7 -179 L-799.1 -178.3 L-800.6 -177.5 L-802 -176.8 L-803.4 -176.1 L-804.8 -175.4 L-806.2 -174.7 L-807.7 -173.9 L-809.1 -173.2 L-809.8 -174.7 L-810.5 -176.1 L-811.2 -177.5 L-812 -178.9 L-812.7 -180.3 L-813.4 -181.8 L-814.1 -183.2 L-814.8 -184.6 L-815.6 -186 L-816.3 -187.4 L-817 -188.9 L-817.7 -190.3 L-818.4 -191.7 L-819.2 -193.1 L-819.9 -194.5 L-820.6 -196 L-821.3 -197.4 L-822 -198.8 L-822.8 -200.2 L-823.5 -201.6 L-824.2 -203.1 L-824.9 -204.5 L-825.6 -205.9 L-826.3 -207.3 L-827.1 -208.7 L-825.6 -209.5 L-824.2 -210.2 L-822.8 -210.9 L-821.4 -211.6 L-820 -212.3 L-818.5 -213.1 L-817.1 -213.8 L-815.7 -214.5 L-814.3 -215.2 L-812.9 -215.9 L-811.4 -216.6 L-810 -217.4 L-808.6 -218.1 L-807.2 -218.8 L-805.8 -219.5 L-804.3 -220.2 L-802.9 -221 L-801.5 -221.7 L-800.1 -222.4 L-798.7 -223.1 L-797.2 -223.8 L-795.8 -224.6 L-794.4 -225.3 L-793 -226 L-791.6 -226.7 Z " />
<path stroke="rgb(0,0,0)" stroke-opacity="0.593" fill="rgb(255,255,255)" fill-opacity="1" d="M-175.2 300.3 L-175.3 302.2 L-175.6 304.2 L-176 306.1 L-176.6 308 L-177.3 309.8 L-178.1 311.6 L-179.1 313.3 L-180.3 314.9 L-181.5 316.4 L-182.9 317.9 L-184.3 319.2 L-185.9 320.3 L-187.6 321.4 L-189.3 322.3 L-191.1 323.1 L-193 323.7 L-194.9 324.2 L-196.8 324.5 L-198.8 324.7 L-200.8 324.7 L-202.7 324.6 L-204.7 324.3 L-206.6 323.9 L-208.5 323.3 L-210.3 322.5 L-212 321.6 L-213.7 320.6 L-215.3 319.4 L-216.8 318.2 L-218.2 316.8 L-219.5 315.3 L-220.6 313.7 L-221.6 312 L-222.5 310.2 L-223.3 308.4 L-223.9 306.5 L-224.3 304.6 L-224.6 302.7 L-224.7 300.7 L-224.7 298.7 L-224.5 296.8 L-224.2 294.8 L-223.7 292.9 L-223.1 291.1 L-222.3 289.3 L-221.4 287.5 L-220.3 285.9 L-219.1 284.3 L-217.8 282.8 L-216.4 281.5 L-214.9 280.2 L-213.3 279.1 L-211.6 278.1 L-209.8 277.3 L-207.9 276.6 L-206.1 276 L-204.1 275.6 L-202.2 275.3 L-200.2 275.2 L-198.3 275.3 L-196.3 275.5 L-194.4 275.9 L-192.5 276.4 L-190.6 277.1 L-188.8 277.9 L-187.1 278.9 L-185.5 280 L-183.9 281.2 L-182.5 282.5 L-181.1 284 L-179.9 285.5 L-178.8 287.1 L-177.9 288.9 L-177.1 290.7 L-176.4 292.5 L-175.9 294.4 L-175.5 296.3 L-175.3 298.3 L-175.2 300.3 Z " />
<path stroke="rgb(0,0,0)" stroke-opacity="1" fill="rgb(255,255,255)" fill-opacity="1" d="M-578.7 -225.4 L-578.6 -223.5 L-578.4 -221.6 L-578.3 -219.8 L-578.1 -217.9 L-578 -216 L-577.8 -214.1 L-577.7 -212.2 L-577.6 -210.3 L-577.4 -208.4 L-577.3 -206.6 L-577.1 -204.7 L-577 -202.8 L-576.8 -200.9 L-576.7 -199 L-576.5 -197.1 L-576.4 -195.2 L-576.2 -193.4 L-576.1 -191.5 L-575.9 -189.6 L-575.8 -187.7 L-575.6 -185.8 L-575.5 -183.9 L-575.3 -182 L-575.2 -180.2 L-575 -178.3 L-576.9 -178.1 L-578.8 -178 L-580.7 -177.8 L-582.6 -177.7 L-584.5 -177.5 L-586.3 -177.4 L-588.2 -177.2 L-590.1 -177.1 L-592 -176.9 L-593.9 -176.8 L-595.8 -176.6 L-597.6 -176.5 L-599.5 -176.3 L-601.4 -176.2 L-603.3 -176 L-605.2 -175.9 L-607.1 -175.7 L-609 -175.6 L-610.8 -175.4 L-612.7 -175.3 L-614.6 -175.1 L-616.5 -175 L-618.4 -174.9 L-620.3 -174.7 L-622.2 -174.6 L-622.3 -176.4 L-622.5 -178.3 L-622.6 -180.2 L-622.8 -182.1 L-622.9 -184 L-623.1 -185.9 L-623.2 -187.8 L-623.4 -189.6 L-623.5 -191.5 L-623.7 -193.4 L-623.8 -195.3 L-623.9 -197.2 L-624.1 -199.1 L-624.2 -201 L-624.4 -202.8 L-624.5 -204.7 L-624.7 -206.6 L-624.8 -208.5 L-625 -210.4 L-625.1 -212.3 L-625.3 -214.2 L-625.4 -216 L-625.6 -217.9 L-625.7 -219.8 L-625.9 -221.7 L-624 -221.8 L-622.1 -222 L-620.2 -222.1 L-618.3 -222.3 L-616.5 -222.4 L-614.6 -222.6 L-612.7 -222.7 L-610.8 -222.9 L-608.9 -223 L-607 -223.2 L-605.1 -223.3 L-603.3 -223.5 L-601.4 -223.6 L-599.5 -223.8 L-597.6 -223.9 L-595.7 -224.1 L-593.8 -224.2 L-591.9 -224.4 L-590.1 -224.5 L-588.2 -224.7 L-586.3 -224.8 L-584.4 -225 L-582.5 -225.1 L-580.6 -225.3 L-578.7 -225.4 Z " />
<path stroke="rgb(0,0,0)" stroke-opacity="0.593" fill="rgb(255,255,255)" fill-opacity="1" d="M24.75 300.3 L24.65 302.2 L24.4 304.2 L23.99 306.1 L23.43 308 L22.72 309.8 L21.86 311.6 L20.87 313.3 L19.75 314.9 L18.5 316.4 L17.14 317.9 L15.66 319.2 L14.09 320.3 L12.43 321.4 L10.69 322.3 L8.881 323.1 L7.018 323.7 L5.11 324.2 L3.169 324.5 L1.209 324.7 L-0.7591 324.7 L-2.722 324.6 L-4.668 324.3 L-6.584 323.9 L-8.459 323.3 L-10.28 322.5 L-12.04 321.6 L-13.72 320.6 L-15.31 319.4 L-16.81 318.2 L-18.2 316.8 L-19.47 315.3 L-20.62 313.7 L-21.65 312 L-22.53 310.2 L-23.27 308.4 L-23.87 306.5 L-24.31 304.6 L-24.6 302.7 L-24.74 300.7 L-24.72 298.7 L-24.54 296.8 L-24.21 294.8 L-23.72 292.9 L-23.08 291.1 L-22.3 289.3 L-21.38 287.5 L-20.32 285.9 L-19.13 284.3 L-17.83 282.8 L-16.41 281.5 L-14.88 280.2 L-13.26 279.1 L-11.56 278.1 L-9.786 277.3 L-7.949 276.6 L-6.062 276 L-4.136 275.6 L-2.185 275.3 L-0.2188 275.2 L1.748 275.3 L3.704 275.5 L5.637 275.9 L7.534 276.4 L9.383 277.1 L11.17 277.9 L12.89 278.9 L14.53 280 L16.08 281.2 L17.52 282.5 L18.86 284 L20.07 285.5 L21.16 287.1 L22.11 288.9 L22.93 290.7 L23.6 292.5 L24.12 294.4 L24.48 296.3 L24.7 298.3 L24.75 300.3 Z " />
<path stroke="rgb(0,0,0)" stroke-opacity="1" fill="rgb(255,255,255)" fill-opacity="1" d="M-375.7 -224.3 L-375.7 -222.4 L-375.7 -220.4 L-375.7 -218.4 L-375.7 -216.5 L-375.8 -214.5 L-375.8 -212.5 L-375.8 -210.6 L-375.8 -208.6 L-375.8 -206.6 L-375.9 -204.7 L-375.9 -202.7 L-375.9 -200.7 L-375.9 -198.8 L-375.9 -196.8 L-375.9 -194.8 L-376 -192.9 L-376 -190.9 L-376 -188.9 L-376 -187 L-376 -185 L-376.1 -183.1 L-376.1 -181.1 L-376.1 -179.1 L-376.1 -177.2 L-376.1 -175.2 L-378.1 -175.2 L-380.1 -175.2 L-382 -175.2 L-384 -175.3 L-386 -175.3 L-387.9 -175.3 L-389.9 -175.3 L-391.9 -175.3 L-393.8 -175.3 L-395.8 -175.4 L-397.8 -175.4 L-399.7 -175.4 L-401.7 -175.4 L-403.7 -175.4 L-405.6 -175.5 L-407.6 -175.5 L-409.6 -175.5 L-411.5 -175.5 L-413.5 -175.5 L-415.5 -175.6 L-417.4 -175.6 L-419.4 -175.6 L-421.4 -175.6 L-423.3 -175.6 L-425.3 -175.6 L-425.3 -177.6 L-425.3 -179.6 L-425.2 -181.5 L-425.2 -183.5 L-425.2 -185.5 L-425.2 -187.4 L-425.2 -189.4 L-425.1 -191.4 L-425.1 -193.3 L-425.1 -195.3 L-425.1 -197.3 L-425.1 -199.2 L-425.1 -201.2 L-425 -203.2 L-425 -205.1 L-425 -207.1 L-425 -209.1 L-425 -211 L-424.9 -213 L-424.9 -215 L-424.9 -216.9 L-424.9 -218.9 L-424.9 -220.9 L-424.9 -222.8 L-424.8 -224.8 L-422.9 -224.8 L-420.9 -224.8 L-418.9 -224.8 L-417 -224.7 L-415 -224.7 L-413 -224.7 L-411.1 -224.7 L-409.1 -224.7 L-407.1 -224.6 L-405.2 -224.6 L-403.2 -224.6 L-401.2 -224.6 L-399.3 -224.6 L-397.3 -224.5 L-395.3 -224.5 L-393.4 -224.5 L-391.4 -224.5 L-389.4 -224.5 L-387.5 -224.5 L-385.5 -224.4 L-383.5 -224.4 L-381.6 -224.4 L-379.6 -224.4 L-377.6 -224.4 L-375.7 -224.3 Z " />
<path stroke="rgb(0,0,0)" stroke-opacity="0.593" fill="rgb(255,255,255)" fill-opacity="1" d="M224.8 300.3 L224.7 302.2 L224.4 304.2 L224 306.1 L223.4 308 L222.7 309.8 L221.9 311.6 L220.9 313.3 L219.7 314.9 L218.5 316.4 L217.1 317.9 L215.7 319.2 L214.1 320.3 L212.4 321.4 L210.7 322.3 L208.9 323.1 L207 323.7 L205.1 324.2 L203.2 324.5 L201.2 324.7 L199.2 324.7 L197.3 324.6 L195.3 324.3 L193.4 323.9 L191.5 323.3 L189.7 322.5 L188 321.6 L186.3 320.6 L184.7 319.4 L183.2 318.2 L181.8 316.8 L180.5 315.3 L179.4 313.7 L178.4 312 L177.5 310.2 L176.7 308.4 L176.1 306.5 L175.7 304.6 L175.4 302.7 L175.3 300.7 L175.3 298.7 L175.5 296.8 L175.8 294.8 L176.3 292.9 L176.9 291.1 L177.7 289.3 L178.6 287.5 L179.7 285.9 L180.9 284.3 L182.2 282.8 L183.6 281.5 L185.1 280.2 L186.7 279.1 L188.4 278.1 L190.2 277.3 L192.1 276.6 L193.9 276 L195.9 275.6 L197.8 275.3 L199.8 275.2 L201.7 275.3 L203.7 275.5 L205.6 275.9 L207.5 276.4 L209.4 277.1 L211.2 277.9 L212.9 278.9 L214.5 280 L216.1 281.2 L217.5 282.5 L218.9 284 L220.1 285.5 L221.2 287.1 L222.1 288.9 L222.9 290.7 L223.6 292.5 L224.1 294.4 L224.5 296.3 L224.7 298.3 L224.8 300.3 Z " />
<path stroke="rgb(0,0,0)" stroke-opacity="1" fill="rgb(255,255,255)" fill-opacity="1" d="M-175.6 -224.3 L-175.6 -222.4 L-175.7 -220.4 L-175.7 -218.4 L-175.7 -216.5 L-175.7 -214.5 L-175.7 -212.5 L-175.8 -210.6 L-175.8 -208.6 L-175.8 -206.6 L-175.8 -204.7 L-175.9 -202.7 L-175.9 -200.7 L-175.9 -198.7 L-175.9 -196.8 L-175.9 -194.8 L-176 -192.8 L-176 -190.9 L-176 -188.9 L-176 -186.9 L-176 -185 L-176.1 -183 L-176.1 -181 L-176.1 -179.1 L-176.1 -177.1 L-176.2 -175.1 L-178.1 -175.2 L-180.1 -175.2 L-182.1 -175.2 L-184 -175.2 L-186 -175.2 L-188 -175.3 L-189.9 -175.3 L-191.9 -175.3 L-193.9 -175.3 L-195.8 -175.3 L-197.8 -175.4 L-199.8 -175.4 L-201.7 -175.4 L-203.7 -175.4 L-205.7 -175.5 L-207.6 -175.5 L-209.6 -175.5 L-211.6 -175.5 L-213.5 -175.5 L-215.5 -175.6 L-217.5 -175.6 L-219.4 -175.6 L-221.4 -175.6 L-223.4 -175.6 L-225.3 -175.7 L-225.3 -177.6 L-225.3 -179.6 L-225.3 -181.6 L-225.3 -183.5 L-225.2 -185.5 L-225.2 -187.5 L-225.2 -189.4 L-225.2 -191.4 L-225.2 -193.4 L-225.1 -195.3 L-225.1 -197.3 L-225.1 -199.3 L-225.1 -201.2 L-225 -203.2 L-225 -205.2 L-225 -207.1 L-225 -209.1 L-225 -211.1 L-224.9 -213.1 L-224.9 -215 L-224.9 -217 L-224.9 -219 L-224.9 -220.9 L-224.8 -222.9 L-224.8 -224.9 L-222.8 -224.8 L-220.9 -224.8 L-218.9 -224.8 L-216.9 -224.8 L-215 -224.8 L-213 -224.7 L-211 -224.7 L-209.1 -224.7 L-207.1 -224.7 L-205.1 -224.6 L-203.2 -224.6 L-201.2 -224.6 L-199.2 -224.6 L-197.3 -224.6 L-195.3 -224.5 L-193.3 -224.5 L-191.4 -224.5 L-189.4 -224.5 L-187.4 -224.5 L-185.5 -224.4 L-183.5 -224.4 L-181.5 -224.4 L-179.6 -224.4 L-177.6 -224.3 L-175.6 -224.3 Z " />
</g>
</g>
</svg>
