<!DOCTYPE svg>
<svg xmlns="http://www.w3.org/2000/svg" xmlns:xlink="http://www.w3.org/1999/xlink" width="1000" height="1000">
<g transform="translate(500.000000,500.000000)">
<g transform="scale(3.000000,3.000000)">
<path stroke="rgb(0,0,0)" stroke-opacity="1" fill="rgb(255,255,255)" fill-opacity="1" d="M-624.9 -575.9 L-624.9 -577.9 L-624.9 -579.8 L-624.9 -581.8 L-624.9 -583.8 L-624.8 -585.8 L-624.8 -587.8 L-624.8 -589.8 L-624.8 -591.7 L-624.8 -593.7 L-624.8 -595.7 L-624.8 -597.7 L-624.8 -599.7 L-624.7 -601.6 L-624.7 -603.6 L-624.7 -605.6 L-624.7 -607.6 L-624.7 -609.6 L-624.7 -611.5 L-624.7 -613.5 L-624.7 -615.5 L-624.6 -617.5 L-624.6 -619.5 L-624.6 -621.4 L-624.6 -623.4 L-624.6 -625.4 L-622.6 -625.4 L-620.6 -625.4 L-618.7 -625.4 L-616.7 -625.4 L-614.7 -625.3 L-612.7 -625.3 L-610.7 -625.3 L-608.7 -625.3 L-606.8 -625.3 L-604.8 -625.3 L-602.8 -625.3 L-600.8 -625.2 L-598.8 -625.2 L-596.9 -625.2 L-594.9 -625.2 L-592.9 -625.2 L-590.9 -625.2 L-588.9 -625.2 L-587 -625.2 L-585 -625.1 L-583 -625.1 L-581 -625.1 L-579 -625.1 L-577.1 -625.1 L-575.1 -625.1 L-575.1 -623.1 L-575.1 -621.1 L-575.1 -619.1 L-575.1 -617.2 L-575.1 -615.2 L-575.2 -613.2 L-575.2 -611.2 L-575.2 -609.2 L-575.2 -607.3 L-575.2 -605.3 L-575.2 -603.3 L-575.2 -601.3 L-575.2 -599.3 L-575.3 -597.4 L-575.3 -595.4 L-575.3 -593.4 L-575.3 -591.4 L-575.3 -589.4 L-575.3 -587.5 L-575.3 -585.5 L-575.3 -583.5 L-575.4 -581.5 L-575.4 -579.5 L-575.4 -577.5 L-575.4 -575.6 L-577.4 -575.6 L-579.4 -575.6 L-581.3 -575.6 L-583.3 -575.6 L-585.3 -575.6 L-587.3 -575.6 L-589.3 -575.7 L-591.2 -575.7 L-593.2 -575.7 L-595.2 -575.7 L-597.2 -575.7 L-599.2 -575.7 L-601.1 -575.7 L-603.1 -575.7 L-605.1 -575.8 L-607.1 -575.8 L-609.1 -575.8 L-611 -575.8 L-613 -575.8 L-615 -575.8 L-617 -575.8 L-619 -575.8 L-621 -575.9 L-622.9 -575.9 L-624.9 -575.9 Z " />
<path stroke="rgb(0,0,0)" stroke-opacity="0.256" fill="rgb(255,255,255)" fill-opacity="1" d="M-175.1 -299.8 L-175.2 -297.9 L-175.5 -295.9 L-175.9 -294 L-176.4 -292.1 L-177.2 -290.2 L-178 -288.4 L-179 -286.7 L-180.1 -285.1 L-181.4 -283.6 L-182.7 -282.1 L-184.2 -280.8 L-185.8 -279.6 L-187.4 -278.6 L-189.2 -277.6 L-191 -276.8 L-192.9 -276.2 L-194.8 -275.7 L-196.7 -275.4 L-198.7 -275.2 L-200.7 -275.2 L-202.6 -275.3 L-204.6 -275.6 L-206.5 -276 L-208.4 -276.6 L-210.2 -277.4 L-212 -278.2 L-213.7 -279.3 L-215.3 -280.4 L-216.8 -281.7 L-218.2 -283.1 L-219.5 -284.6 L-220.6 -286.2 L-221.7 -287.9 L-222.6 -289.6 L-223.3 -291.4 L-223.9 -293.3 L-224.4 -295.3 L-224.7 -297.2 L-224.8 -299.2 L-224.8 -301.2 L-224.7 -303.1 L-224.3 -305.1 L-223.8 -307 L-223.2 -308.9 L-222.4 -310.7 L-221.5 -312.4 L-220.5 -314.1 L-219.3 -315.7 L-218 -317.2 L-216.6 -318.5 L-215 -319.8 L-213.4 -320.9 L-211.7 -321.9 L-209.9 -322.8 L-208.1 -323.5 L-206.2 -324.1 L-204.3 -324.5 L-202.3 -324.7 L-200.3 -324.9 L-198.4 -324.8 L-196.4 -324.6 L-194.4 -324.2 L-192.5 -323.7 L-190.7 -323 L-188.9 -322.2 L-187.1 -321.3 L-185.5 -320.2 L-183.9 -319 L-182.5 -317.6 L-181.1 -316.2 L-179.9 -314.6 L-178.8 -313 L-177.8 -311.3 L-177 -309.5 L-176.3 -307.6 L-175.8 -305.7 L-175.4 -303.8 L-175.2 -301.8 L-175.1 -299.8 Z " />
<path stroke="rgb(0,0,0)" stroke-opacity="1" fill="rgb(255,255,255)" fill-opacity="1" d="M-424.9 -575.9 L-424.9 -577.9 L-424.9 -579.8 L-424.9 -581.8 L-424.9 -583.8 L-424.8 -585.8 L-424.8 -587.8 L-424.8 -589.8 L-424.8 -591.7 L-424.8 -593.7 L-424.8 -595.7 L-424.8 -597.7 L-424.8 -599.7 L-424.7 -601.6 L-424.7 -603.6 L-424.7 -605.6 L-424.7 -607.6 L-424.7 -609.6 L-424.7 -611.5 L-424.7 -613.5 L-424.7 -615.5 L-424.6 -617.5 L-424.6 -619.5 L-424.6 -621.4 L-424.6 -623.4 L-424.6 -625.4 L-422.6 -625.4 L-420.6 -625.4 L-418.7 -625.4 L-416.7 -625.4 L-414.7 -625.3 L-412.7 -625.3 L-410.7 -625.3 L-408.7 -625.3 L-406.8 -625.3 L-404.8 -625.3 L-402.8 -625.3 L-400.8 -625.2 L-398.8 -625.2 L-396.9 -625.2 L-394.9 -625.2 L-392.9 -625.2 L-390.9 -625.2 L-388.9 -625.2 L-387 -625.2 L-385 -625.1 L-383 -625.1 L-381 -625.1 L-379 -625.1 L-377.1 -625.1 L-375.1 -625.1 L-375.1 -623.1 L-375.1 -621.1 L-375.1 -619.1 L-375.1 -617.2 L-375.1 -615.2 L-375.2 -613.2 L-375.2 -611.2 L-375.2 -609.2 L-375.2 -607.3 L-375.2 -605.3 L-375.2 -603.3 L-375.2 -601.3 L-375.2 -599.3 L-375.3 -597.4 L-375.3 -595.4 L-375.3 -593.4 L-375.3 -591.4 L-375.3 -589.4 L-375.3 -587.5 L-375.3 -585.5 L-375.3 -583.5 L-375.4 -581.5 L-375.4 -579.5 L-375.4 -577.5 L-375.4 -575.6 L-377.4 -575.6 L-379.4 -575.6 L-381.3 -575.6 L-383.3 -575.6 L-385.3 -575.6 L-387.3 -575.6 L-389.3 -575.7 L-391.2 -575.7 L-393.2 -575.7 L-395.2 -575.7 L-397.2 -575.7 L-399.2 -575.7 L-401.1 -575.7 L-403.1 -575.7 L-405.1 -575.8 L-407.1 -575.8 L-409.1 -575.8 L-411 -575.8 L-413 -575.8 L-415 -575.8 L-417 -575.8 L-419 -575.8 L-421 -575.9 L-422.9 -575.9 L-424.9 -575.9 Z " />
<path stroke="rgb(0,0,0)" stroke-opacity="0.256" fill="rgb(255,255,255)" fill-opacity="1" d="M24.85 -299.8 L24.76 -297.9 L24.51 -295.9 L24.11 -294 L23.55 -292.1 L22.85 -290.2 L22 -288.4 L21.01 -286.7 L19.89 -285.1 L18.65 -283.6 L17.28 -282.1 L15.81 -280.8 L14.23 -279.6 L12.57 -278.6 L10.83 -277.6 L9.017 -276.8 L7.148 -276.2 L5.235 -275.7 L3.288 -275.4 L1.321 -275.2 L-0.6549 -275.2 L-2.627 -275.3 L-4.581 -275.6 L-6.507 -276 L-8.392 -276.6 L-10.22 -277.4 L-11.99 -278.2 L-13.68 -279.3 L-15.29 -280.4 L-16.8 -281.7 L-18.2 -283.1 L-19.48 -284.6 L-20.65 -286.2 L-21.68 -287.9 L-22.58 -289.6 L-23.33 -291.4 L-23.94 -293.3 L-24.39 -295.3 L-24.69 -297.2 L-24.83 -299.2 L-24.82 -301.2 L-24.65 -303.1 L-24.33 -305.1 L-23.85 -307 L-23.22 -308.9 L-22.44 -310.7 L-21.52 -312.4 L-20.47 -314.1 L-19.28 -315.7 L-17.97 -317.2 L-16.55 -318.5 L-15.03 -319.8 L-13.41 -320.9 L-11.71 -321.9 L-9.927 -322.8 L-8.085 -323.5 L-6.193 -324.1 L-4.261 -324.5 L-2.303 -324.7 L-0.3295 -324.9 L1.646 -324.8 L3.611 -324.6 L5.553 -324.2 L7.46 -323.7 L9.319 -323 L11.12 -322.2 L12.85 -321.3 L14.5 -320.2 L16.06 -319 L17.51 -317.6 L18.86 -316.2 L20.09 -314.6 L21.18 -313 L22.15 -311.3 L22.98 -309.5 L23.66 -307.6 L24.19 -305.7 L24.56 -303.8 L24.79 -301.8 L24.85 -299.8 Z " />
<path stroke="rgb(0,0,0)" stroke-opacity="1" fill="rgb(255,255,255)" fill-opacity="1" d="M-224.9 -575.9 L-224.9 -577.9 L-224.9 -579.8 L-224.9 -581.8 L-224.9 -583.8 L-224.8 -585.8 L-224.8 -587.8 L-224.8 -589.8 L-224.8 -591.7 L-224.8 -593.7 L-224.8 -595.7 L-224.8 -597.7 L-224.8 -599.7 L-224.7 -601.6 L-224.7 -603.6 L-224.7 -605.6 L-224.7 -607.6 L-224.7 -609.6 L-224.7 -611.5 L-224.7 -613.5 L-224.7 -615.5 L-224.6 -617.5 L-224.6 -619.5 L-224.6 -621.4 L-224.6 -623.4 L-224.6 -625.4 L-222.6 -625.4 L-220.6 -625.4 L-218.7 -625.4 L-216.7 -625.4 L-214.7 -625.3 L-212.7 -625.3 L-210.7 -625.3 L-208.7 -625.3 L-206.8 -625.3 L-204.8 -625.3 L-202.8 -625.3 L-200.8 -625.2 L-198.8 -625.2 L-196.9 -625.2 L-194.9 -625.2 L-192.9 -625.2 L-190.9 -625.2 L-188.9 -625.2 L-187 -625.2 L-185 -625.1 L-183 -625.1 L-181 -625.1 L-179 -625.1 L-177.1 -625.1 L-175.1 -625.1 L-175.1 -623.1 L-175.1 -621.1 L-175.1 -619.1 L-175.1 -617.2 L-175.1 -615.2 L-175.2 -613.2 L-175.2 -611.2 L-175.2 -609.2 L-175.2 -607.3 L-175.2 -605.3 L-175.2 -603.3 L-175.2 -601.3 L-175.2 -599.3 L-175.3 -597.4 L-175.3 -595.4 L-175.3 -593.4 L-175.3 -591.4 L-175.3 -589.4 L-175.3 -587.5 L-175.3 -585.5 L-175.3 -583.5 L-175.4 -581.5 L-175.4 -579.5 L-175.4 -577.5 L-175.4 -575.6 L-177.4 -575.6 L-179.4 -575.6 L-181.3 -575.6 L-183.3 -575.6 L-185.3 -575.6 L-187.3 -575.6 L-189.3 -575.7 L-191.2 -575.7 L-193.2 -575.7 L-195.2 -575.7 L-197.2 -575.7 L-199.2 -575.7 L-201.1 -575.7 L-203.1 -575.7 L-205.1 -575.8 L-207.1 -575.8 L-209.1 -575.8 L-211 -575.8 L-213 -575.8 L-215 -575.8 L-217 -575.8 L-219 -575.8 L-221 -575.9 L-222.9 -575.9 L-224.9 -575.9 Z " />
<path stroke="rgb(0,0,0)" stroke-opacity="0.256" fill="rgb(255,255,255)" fill-opacity="1" d="M224.9 -299.8 L224.8 -297.9 L224.5 -295.9 L224.1 -294 L223.6 -292.1 L222.8 -290.2 L222 -288.4 L221 -286.7 L219.9 -285.1 L218.6 -283.6 L217.3 -282.1 L215.8 -280.8 L214.2 -279.6 L212.6 -278.6 L210.8 -277.6 L209 -276.8 L207.1 -276.2 L205.2 -275.7 L203.3 -275.4 L201.3 -275.2 L199.3 -275.2 L197.4 -275.3 L195.4 -275.6 L193.5 -276 L191.6 -276.6 L189.8 -277.4 L188 -278.2 L186.3 -279.3 L184.7 -280.4 L183.2 -281.7 L181.8 -283.1 L180.5 -284.6 L179.4 -286.2 L178.3 -287.9 L177.4 -289.6 L176.7 -291.4 L176.1 -293.3 L175.6 -295.3 L175.3 -297.2 L175.2 -299.2 L175.2 -301.2 L175.3 -303.1 L175.7 -305.1 L176.2 -307 L176.8 -308.9 L177.6 -310.7 L178.5 -312.4 L179.5 -314.1 L180.7 -315.7 L182 -317.2 L183.4 -318.5 L185 -319.8 L186.6 -320.9 L188.3 -321.9 L190.1 -322.8 L191.9 -323.5 L193.8 -324.1 L195.7 -324.5 L197.7 -324.7 L199.7 -324.9 L201.6 -324.8 L203.6 -324.6 L205.6 -324.2 L207.5 -323.7 L209.3 -323 L211.1 -322.2 L212.9 -321.3 L214.5 -320.2 L216.1 -319 L217.5 -317.6 L218.9 -316.2 L220.1 -314.6 L221.2 -313 L222.2 -311.3 L223 -309.5 L223.7 -307.6 L224.2 -305.7 L224.6 -303.8 L224.8 -301.8 L224.9 -299.8 Z " />
<path stroke="rgb(0,0,0)" stroke-opacity="1" fill="rgb(255,255,255)" fill-opacity="1" d="M-24.75 -575.8 L-24.75 -577.8 L-24.74 -579.8 L-24.74 -581.8 L-24.74 -583.7 L-24.73 -585.7 L-24.73 -587.7 L-24.73 -589.7 L-24.72 -591.6 L-24.72 -593.6 L-24.71 -595.6 L-24.71 -597.6 L-24.71 -599.5 L-24.7 -601.5 L-24.7 -603.5 L-24.7 -605.5 L-24.69 -607.5 L-24.69 -609.4 L-24.68 -611.4 L-24.68 -613.4 L-24.68 -615.4 L-24.67 -617.3 L-24.67 -619.3 L-24.67 -621.3 L-24.66 -623.3 L-24.66 -625.2 L-22.68 -625.2 L-20.7 -625.2 L-18.73 -625.2 L-16.75 -625.2 L-14.77 -625.2 L-12.8 -625.2 L-10.82 -625.2 L-8.844 -625.2 L-6.867 -625.2 L-4.891 -625.2 L-2.914 -625.2 L-0.9374 -625.2 L1.039 -625.2 L3.016 -625.2 L4.993 -625.2 L6.969 -625.2 L8.946 -625.2 L10.92 -625.2 L12.9 -625.2 L14.88 -625.2 L16.85 -625.2 L18.83 -625.2 L20.81 -625.2 L22.78 -625.2 L24.76 -625.1 L24.76 -623.2 L24.75 -621.2 L24.75 -619.2 L24.74 -617.2 L24.74 -615.3 L24.74 -613.3 L24.73 -611.3 L24.73 -609.3 L24.73 -607.4 L24.72 -605.4 L24.72 -603.4 L24.71 -601.4 L24.71 -599.4 L24.71 -597.5 L24.7 -595.5 L24.7 -593.5 L24.7 -591.5 L24.69 -589.6 L24.69 -587.6 L24.68 -585.6 L24.68 -583.6 L24.68 -581.7 L24.67 -579.7 L24.67 -577.7 L24.67 -575.7 L22.69 -575.7 L20.71 -575.7 L18.74 -575.7 L16.76 -575.7 L14.78 -575.7 L12.81 -575.8 L10.83 -575.8 L8.852 -575.8 L6.876 -575.8 L4.899 -575.8 L2.922 -575.8 L0.9455 -575.8 L-1.031 -575.8 L-3.008 -575.8 L-4.985 -575.8 L-6.961 -575.8 L-8.938 -575.8 L-10.91 -575.8 L-12.89 -575.8 L-14.87 -575.8 L-16.84 -575.8 L-18.82 -575.8 L-20.8 -575.8 L-22.77 -575.8 L-24.75 -575.8 Z " />
<path stroke="rgb(0,0,0)" stroke-opacity="0.256" fill="rgb(255,255,255)" fill-opacity="1" d="M-275.1 -199.8 L-275.2 -197.9 L-275.5 -195.9 L-275.9 -194 L-276.4 -192.1 L-277.2 -190.2 L-278 -188.4 L-279 -186.7 L-280.1 -185.1 L-281.4 -183.6 L-282.7 -182.1 L-284.2 -180.8 L-285.8 -179.6 L-287.4 -178.6 L-289.2 -177.6 L-291 -176.8 L-292.9 -176.2 L-294.8 -175.7 L-296.7 -175.4 L-298.7 -175.2 L-300.7 -175.2 L-302.6 -175.3 L-304.6 -175.6 L-306.5 -176 L-308.4 -176.6 L-310.2 -177.4 L-312 -178.2 L-313.7 -179.3 L-315.3 -180.4 L-316.8 -181.7 L-318.2 -183.1 L-319.5 -184.6 L-320.6 -186.2 L-321.7 -187.9 L-322.6 -189.6 L-323.3 -191.4 L-323.9 -193.3 L-324.4 -195.3 L-324.7 -197.2 L-324.8 -199.2 L-324.8 -201.2 L-324.7 -203.1 L-324.3 -205.1 L-323.8 -207 L-323.2 -208.9 L-322.4 -210.7 L-321.5 -212.4 L-320.5 -214.1 L-319.3 -215.7 L-318 -217.2 L-316.6 -218.5 L-315 -219.8 L-313.4 -220.9 L-311.7 -221.9 L-309.9 -222.8 L-308.1 -223.5 L-306.2 -224.1 L-304.3 -224.5 L-302.3 -224.7 L-300.3 -224.9 L-298.4 -224.8 L-296.4 -224.6 L-294.4 -224.2 L-292.5 -223.7 L-290.7 -223 L-288.9 -222.2 L-287.1 -221.3 L-285.5 -220.2 L-283.9 -219 L-282.5 -217.6 L-281.1 -216.2 L-279.9 -214.6 L-278.8 -213 L-277.8 -211.3 L-277 -209.5 L-276.3 -207.6 L-275.8 -205.7 L-275.4 -203.8 L-275.2 -201.8 L-275.1 -199.8 Z " />
<path stroke="rgb(0,0,0)" stroke-opacity="1" fill="rgb(255,255,255)" fill-opacity="1" d="M-524.9 -475.9 L-524.9 -477.9 L-524.9 -479.8 L-524.9 -481.8 L-524.9 -483.8 L-524.8 -485.8 L-524.8 -487.8 L-524.8 -489.8 L-524.8 -491.7 L-524.8 -493.7 L-524.8 -495.7 L-524.8 -497.7 L-524.8 -499.7 L-524.7 -501.6 L-524.7 -503.6 L-524.7 -505.6 L-524.7 -507.6 L-524.7 -509.6 L-524.7 -511.5 L-524.7 -513.5 L-524.7 -515.5 L-524.6 -517.5 L-524.6 -519.5 L-524.6 -521.4 L-524.6 -523.4 L-524.6 -525.4 L-522.6 -525.4 L-520.6 -525.4 L-518.7 -525.4 L-516.7 -525.4 L-514.7 -525.3 L-512.7 -525.3 L-510.7 -525.3 L-508.7 -525.3 L-506.8 -525.3 L-504.8 -525.3 L-502.8 -525.3 L-500.8 -525.2 L-498.8 -525.2 L-496.9 -525.2 L-494.9 -525.2 L-492.9 -525.2 L-490.9 -525.2 L-488.9 -525.2 L-487 -525.2 L-485 -525.1 L-483 -525.1 L-481 -525.1 L-479 -525.1 L-477.1 -525.1 L-475.1 -525.1 L-475.1 -523.1 L-475.1 -521.1 L-475.1 -519.1 L-475.1 -517.2 L-475.1 -515.2 L-475.2 -513.2 L-475.2 -511.2 L-475.2 -509.2 L-475.2 -507.3 L-475.2 -505.3 L-475.2 -503.3 L-475.2 -501.3 L-475.2 -499.3 L-475.3 -497.4 L-475.3 -495.4 L-475.3 -493.4 L-475.3 -491.4 L-475.3 -489.4 L-475.3 -487.5 L-475.3 -485.5 L-475.3 -483.5 L-475.4 -481.5 L-475.4 -479.5 L-475.4 -477.5 L-475.4 -475.6 L-477.4 -475.6 L-479.4 -475.6 L-481.3 -475.6 L-483.3 -475.6 L-485.3 -475.6 L-487.3 -475.6 L-489.3 -475.7 L-491.2 -475.7 L-493.2 -475.7 L-495.2 -475.7 L-497.2 -475.7 L-499.2 -475.7 L-501.1 -475.7 L-503.1 -475.7 L-505.1 -475.8 L-507.1 -475.8 L-509.1 -475.8 L-511 -475.8 L-513 -475.8 L-515 -475.8 L-517 -475.8 L-519 -475.8 L-521 -475.9 L-522.9 -475.9 L-524.9 -475.9 Z " />
<path stroke="rgb(0,0,0)" stroke-opacity="0.256" fill="rgb(255,255,255)" fill-opacity="1" d="M-75.15 -199.8 L-75.24 -197.9 L-75.49 -195.9 L-75.89 -194 L-76.45 -192.1 L-77.15 -190.2 L-78 -188.4 L-78.99 -186.7 L-80.11 -185.1 L-81.35 -183.6 L-82.72 -182.1 L-84.19 -180.8 L-85.77 -179.6 L-87.43 -178.6 L-89.17 -177.6 L-90.98 -176.8 L-92.85 -176.2 L-94.77 -175.7 L-96.71 -175.4 L-98.68 -175.2 L-100.7 -175.2 L-102.6 -175.3 L-104.6 -175.6 L-106.5 -176 L-108.4 -176.6 L-110.2 -177.4 L-112 -178.2 L-113.7 -179.3 L-115.3 -180.4 L-116.8 -181.7 L-118.2 -183.1 L-119.5 -184.6 L-120.6 -186.2 L-121.7 -187.9 L-122.6 -189.6 L-123.3 -191.4 L-123.9 -193.3 L-124.4 -195.3 L-124.7 -197.2 L-124.8 -199.2 L-124.8 -201.2 L-124.7 -203.1 L-124.3 -205.1 L-123.8 -207 L-123.2 -208.9 L-122.4 -210.7 L-121.5 -212.4 L-120.5 -214.1 L-119.3 -215.7 L-118 -217.2 L-116.6 -218.5 L-115 -219.8 L-113.4 -220.9 L-111.7 -221.9 L-109.9 -222.8 L-108.1 -223.5 L-106.2 -224.1 L-104.3 -224.5 L-102.3 -224.7 L-100.3 -224.9 L-98.35 -224.8 L-96.39 -224.6 L-94.45 -224.2 L-92.54 -223.7 L-90.68 -223 L-88.88 -222.2 L-87.15 -221.3 L-85.5 -220.2 L-83.94 -219 L-82.49 -217.6 L-81.14 -216.2 L-79.91 -214.6 L-78.82 -213 L-77.85 -211.3 L-77.02 -209.5 L-76.34 -207.6 L-75.81 -205.7 L-75.44 -203.8 L-75.21 -201.8 L-75.15 -199.8 Z " />
<path stroke="rgb(0,0,0)" stroke-opacity="1" fill="rgb(255,255,255)" fill-opacity="1" d="M-324.9 -475.9 L-324.9 -477.9 L-324.9 -479.8 L-324.9 -481.8 L-324.9 -483.8 L-324.8 -485.8 L-324.8 -487.8 L-324.8 -489.8 L-324.8 -491.7 L-324.8 -493.7 L-324.8 -495.7 L-324.8 -497.7 L-324.8 -499.7 L-324.7 -501.6 L-324.7 -503.6 L-324.7 -505.6 L-324.7 -507.6 L-324.7 -509.6 L-324.7 -511.5 L-324.7 -513.5 L-324.7 -515.5 L-324.6 -517.5 L-324.6 -519.5 L-324.6 -521.4 L-324.6 -523.4 L-324.6 -525.4 L-322.6 -525.4 L-320.6 -525.4 L-318.7 -525.4 L-316.7 -525.4 L-314.7 -525.3 L-312.7 -525.3 L-310.7 -525.3 L-308.7 -525.3 L-306.8 -525.3 L-304.8 -525.3 L-302.8 -525.3 L-300.8 -525.2 L-298.8 -525.2 L-296.9 -525.2 L-294.9 -525.2 L-292.9 -525.2 L-290.9 -525.2 L-288.9 -525.2 L-287 -525.2 L-285 -525.1 L-283 -525.1 L-281 -525.1 L-279 -525.1 L-277.1 -525.1 L-275.1 -525.1 L-275.1 -523.1 L-275.1 -521.1 L-275.1 -519.1 L-275.1 -517.2 L-275.1 -515.2 L-275.2 -513.2 L-275.2 -511.2 L-275.2 -509.2 L-275.2 -507.3 L-275.2 -505.3 L-275.2 -503.3 L-275.2 -501.3 L-275.2 -499.3 L-275.3 -497.4 L-275.3 -495.4 L-275.3 -493.4 L-275.3 -491.4 L-275.3 -489.4 L-275.3 -487.5 L-275.3 -485.5 L-275.3 -483.5 L-275.4 -481.5 L-275.4 -479.5 L-275.4 -477.5 L-275.4 -475.6 L-277.4 -475.6 L-279.4 -475.6 L-281.3 -475.6 L-283.3 -475.6 L-285.3 -475.6 L-287.3 -475.6 L-289.3 -475.7 L-291.2 -475.7 L-293.2 -475.7 L-295.2 -475.7 L-297.2 -475.7 L-299.2 -475.7 L-301.1 -475.7 L-303.1 -475.7 L-305.1 -475.8 L-307.1 -475.8 L-309.1 -475.8 L-311 -475.8 L-313 -475.8 L-315 -475.8 L-317 -475.8 L-319 -475.8 L-321 -475.9 L-322.9 -475.9 L-324.9 -475.9 Z " />
<path stroke="rgb(0,0,0)" stroke-opacity="0.256" fill="rgb(255,255,255)" fill-opacity="1" d="M124.9 -199.8 L124.8 -197.9 L124.5 -195.9 L124.1 -194 L123.6 -192.1 L122.8 -190.2 L122 -188.4 L121 -186.7 L119.9 -185.1 L118.6 -183.6 L117.3 -182.1 L115.8 -180.8 L114.2 -179.6 L112.6 -178.6 L110.8 -177.6 L109 -176.8 L107.1 -176.2 L105.2 -175.7 L103.3 -175.4 L101.3 -175.2 L99.35 -175.2 L97.37 -175.3 L95.42 -175.6 L93.49 -176 L91.61 -176.6 L89.78 -177.4 L88.01 -178.2 L86.32 -179.3 L84.71 -180.4 L83.2 -181.7 L81.8 -183.1 L80.52 -184.6 L79.35 -186.2 L78.32 -187.9 L77.42 -189.6 L76.67 -191.4 L76.06 -193.3 L75.61 -195.3 L75.31 -197.2 L75.17 -199.2 L75.18 -201.2 L75.35 -203.1 L75.67 -205.1 L76.15 -207 L76.78 -208.9 L77.56 -210.7 L78.48 -212.4 L79.53 -214.1 L80.72 -215.7 L82.03 -217.2 L83.45 -218.5 L84.97 -219.8 L86.59 -220.9 L88.29 -221.9 L90.07 -222.8 L91.91 -223.5 L93.81 -224.1 L95.74 -224.5 L97.7 -224.7 L99.67 -224.9 L101.6 -224.8 L103.6 -224.6 L105.6 -224.2 L107.5 -223.7 L109.3 -223 L111.1 -222.2 L112.9 -221.3 L114.5 -220.2 L116.1 -219 L117.5 -217.6 L118.9 -216.2 L120.1 -214.6 L121.2 -213 L122.2 -211.3 L123 -209.5 L123.7 -207.6 L124.2 -205.7 L124.6 -203.8 L124.8 -201.8 L124.9 -199.8 Z " />
<path stroke="rgb(0,0,0)" stroke-opacity="1" fill="rgb(255,255,255)" fill-opacity="1" d="M-124.8 -475.8 L-124.7 -477.8 L-124.7 -479.8 L-124.7 -481.8 L-124.7 -483.7 L-124.7 -485.7 L-124.7 -487.7 L-124.7 -489.7 L-124.7 -491.6 L-124.7 -493.6 L-124.7 -495.6 L-124.7 -497.6 L-124.7 -499.5 L-124.7 -501.5 L-124.7 -503.5 L-124.7 -505.5 L-124.7 -507.5 L-124.7 -509.4 L-124.7 -511.4 L-124.7 -513.4 L-124.7 -515.4 L-124.7 -517.3 L-124.7 -519.3 L-124.7 -521.3 L-124.7 -523.3 L-124.7 -525.2 L-122.7 -525.2 L-120.7 -525.2 L-118.7 -525.2 L-116.8 -525.2 L-114.8 -525.2 L-112.8 -525.2 L-110.8 -525.2 L-108.8 -525.2 L-106.9 -525.2 L-104.9 -525.2 L-102.9 -525.2 L-100.9 -525.2 L-98.96 -525.2 L-96.98 -525.2 L-95.01 -525.2 L-93.03 -525.2 L-91.05 -525.2 L-89.08 -525.2 L-87.1 -525.2 L-85.12 -525.2 L-83.15 -525.2 L-81.17 -525.2 L-79.19 -525.2 L-77.22 -525.2 L-75.24 -525.1 L-75.24 -523.2 L-75.25 -521.2 L-75.25 -519.2 L-75.26 -517.2 L-75.26 -515.3 L-75.26 -513.3 L-75.27 -511.3 L-75.27 -509.3 L-75.27 -507.4 L-75.28 -505.4 L-75.28 -503.4 L-75.29 -501.4 L-75.29 -499.4 L-75.29 -497.5 L-75.3 -495.5 L-75.3 -493.5 L-75.3 -491.5 L-75.31 -489.6 L-75.31 -487.6 L-75.32 -485.6 L-75.32 -483.6 L-75.32 -481.7 L-75.33 -479.7 L-75.33 -477.7 L-75.33 -475.7 L-77.31 -475.7 L-79.29 -475.7 L-81.26 -475.7 L-83.24 -475.7 L-85.22 -475.7 L-87.19 -475.8 L-89.17 -475.8 L-91.15 -475.8 L-93.12 -475.8 L-95.1 -475.8 L-97.08 -475.8 L-99.05 -475.8 L-101 -475.8 L-103 -475.8 L-105 -475.8 L-107 -475.8 L-108.9 -475.8 L-110.9 -475.8 L-112.9 -475.8 L-114.9 -475.8 L-116.8 -475.8 L-118.8 -475.8 L-120.8 -475.8 L-122.8 -475.8 L-124.8 -475.8 Z " />
<path stroke="rgb(0,0,0)" stroke-opacity="0.256" fill="rgb(255,255,255)" fill-opacity="1" d="M324.9 -199.8 L324.8 -197.9 L324.5 -195.9 L324.1 -194 L323.6 -192.1 L322.8 -190.2 L322 -188.4 L321 -186.7 L319.9 -185.1 L318.6 -183.6 L317.3 -182.1 L315.8 -180.8 L314.2 -179.6 L312.6 -178.6 L310.8 -177.6 L309 -176.8 L307.1 -176.2 L305.2 -175.7 L303.3 -175.4 L301.3 -175.2 L299.3 -175.2 L297.4 -175.3 L295.4 -175.6 L293.5 -176 L291.6 -176.6 L289.8 -177.4 L288 -178.2 L286.3 -179.3 L284.7 -180.4 L283.2 -181.7 L281.8 -183.1 L280.5 -184.6 L279.4 -186.2 L278.3 -187.9 L277.4 -189.6 L276.7 -191.4 L276.1 -193.3 L275.6 -195.3 L275.3 -197.2 L275.2 -199.2 L275.2 -201.2 L275.3 -203.1 L275.7 -205.1 L276.2 -207 L276.8 -208.9 L277.6 -210.7 L278.5 -212.4 L279.5 -214.1 L280.7 -215.7 L282 -217.2 L283.4 -218.5 L285 -219.8 L286.6 -220.9 L288.3 -221.9 L290.1 -222.8 L291.9 -223.5 L293.8 -224.1 L295.7 -224.5 L297.7 -224.7 L299.7 -224.9 L301.6 -224.8 L303.6 -224.6 L305.6 -224.2 L307.5 -223.7 L309.3 -223 L311.1 -222.2 L312.9 -221.3 L314.5 -220.2 L316.1 -219 L317.5 -217.6 L318.9 -216.2 L320.1 -214.6 L321.2 -213 L322.2 -211.3 L323 -209.5 L323.7 -207.6 L324.2 -205.7 L324.6 -203.8 L324.8 -201.8 L324.9 -199.8 Z " />
<path stroke="rgb(0,0,0)" stroke-opacity="1" fill="rgb(255,255,255)" fill-opacity="1" d="M-624.9 -375.9 L-624.9 -377.9 L-624.9 -379.8 L-624.9 -381.8 L-624.9 -383.8 L-624.8 -385.8 L-624.8 -387.8 L-624.8 -389.8 L-624.8 -391.7 L-624.8 -393.7 L-624.8 -395.7 L-624.8 -397.7 L-624.8 -399.7 L-624.7 -401.6 L-624.7 -403.6 L-624.7 -405.6 L-624.7 -407.6 L-624.7 -409.6 L-624.7 -411.5 L-624.7 -413.5 L-624.7 -415.5 L-624.6 -417.5 L-624.6 -419.5 L-624.6 -421.4 L-624.6 -423.4 L-624.6 -425.4 L-622.6 -425.4 L-620.6 -425.4 L-618.7 -425.4 L-616.7 -425.4 L-614.7 -425.3 L-612.7 -425.3 L-610.7 -425.3 L-608.7 -425.3 L-606.8 -425.3 L-604.8 -425.3 L-602.8 -425.3 L-600.8 -425.2 L-598.8 -425.2 L-596.9 -425.2 L-594.9 -425.2 L-592.9 -425.2 L-590.9 -425.2 L-588.9 -425.2 L-587 -425.2 L-585 -425.1 L-583 -425.1 L-581 -425.1 L-579 -425.1 L-577.1 -425.1 L-575.1 -425.1 L-575.1 -423.1 L-575.1 -421.1 L-575.1 -419.1 L-575.1 -417.2 L-575.1 -415.2 L-575.2 -413.2 L-575.2 -411.2 L-575.2 -409.2 L-575.2 -407.3 L-575.2 -405.3 L-575.2 -403.3 L-575.2 -401.3 L-575.2 -399.3 L-575.3 -397.4 L-575.3 -395.4 L-575.3 -393.4 L-575.3 -391.4 L-575.3 -389.4 L-575.3 -387.5 L-575.3 -385.5 L-575.3 -383.5 L-575.4 -381.5 L-575.4 -379.5 L-575.4 -377.5 L-575.4 -375.6 L-577.4 -375.6 L-579.4 -375.6 L-581.3 -375.6 L-583.3 -375.6 L-585.3 -375.6 L-587.3 -375.6 L-589.3 -375.7 L-591.2 -375.7 L-593.2 -375.7 L-595.2 -375.7 L-597.2 -375.7 L-599.2 -375.7 L-601.1 -375.7 L-603.1 -375.7 L-605.1 -375.8 L-607.1 -375.8 L-609.1 -375.8 L-611 -375.8 L-613 -375.8 L-615 -375.8 L-617 -375.8 L-619 -375.8 L-621 -375.9 L-622.9 -375.9 L-624.9 -375.9 Z " />
<path stroke="rgb(0,0,0)" stroke-opacity="0.256" fill="rgb(255,255,255)" fill-opacity="1" d="M-175.1 -99.84 L-175.2 -97.87 L-175.5 -95.91 L-175.9 -93.97 L-176.4 -92.07 L-177.2 -90.23 L-178 -88.44 L-179 -86.73 L-180.1 -85.11 L-181.4 -83.57 L-182.7 -82.14 L-184.2 -80.83 L-185.8 -79.63 L-187.4 -78.56 L-189.2 -77.63 L-191 -76.84 L-192.9 -76.2 L-194.8 -75.71 L-196.7 -75.37 L-198.7 -75.19 L-200.7 -75.16 L-202.6 -75.29 L-204.6 -75.58 L-206.5 -76.02 L-208.4 -76.61 L-210.2 -77.35 L-212 -78.24 L-213.7 -79.26 L-215.3 -80.41 L-216.8 -81.69 L-218.2 -83.08 L-219.5 -84.58 L-220.6 -86.18 L-221.7 -87.86 L-222.6 -89.62 L-223.3 -91.45 L-223.9 -93.33 L-224.4 -95.25 L-224.7 -97.21 L-224.8 -99.18 L-224.8 -101.2 L-224.7 -103.1 L-224.3 -105.1 L-223.8 -107 L-223.2 -108.9 L-222.4 -110.7 L-221.5 -112.4 L-220.5 -114.1 L-219.3 -115.7 L-218 -117.2 L-216.6 -118.5 L-215 -119.8 L-213.4 -120.9 L-211.7 -121.9 L-209.9 -122.8 L-208.1 -123.5 L-206.2 -124.1 L-204.3 -124.5 L-202.3 -124.7 L-200.3 -124.9 L-198.4 -124.8 L-196.4 -124.6 L-194.4 -124.2 L-192.5 -123.7 L-190.7 -123 L-188.9 -122.2 L-187.1 -121.3 L-185.5 -120.2 L-183.9 -119 L-182.5 -117.6 L-181.1 -116.2 L-179.9 -114.6 L-178.8 -113 L-177.8 -111.3 L-177 -109.5 L-176.3 -107.6 L-175.8 -105.7 L-175.4 -103.8 L-175.2 -101.8 L-175.1 -99.84 Z " />
<path stroke="rgb(0,0,0)" stroke-opacity="1" fill="rgb(255,255,255)" fill-opacity="1" d="M-424.9 -375.9 L-424.9 -377.9 L-424.9 -379.8 L-424.9 -381.8 L-424.9 -383.8 L-424.8 -385.8 L-424.8 -387.8 L-424.8 -389.8 L-424.8 -391.7 L-424.8 -393.7 L-424.8 -395.7 L-424.8 -397.7 L-424.8 -399.7 L-424.7 -401.6 L-424.7 -403.6 L-424.7 -405.6 L-424.7 -407.6 L-424.7 -409.6 L-424.7 -411.5 L-424.7 -413.5 L-424.7 -415.5 L-424.6 -417.5 L-424.6 -419.5 L-424.6 -421.4 L-424.6 -423.4 L-424.6 -425.4 L-422.6 -425.4 L-420.6 -425.4 L-418.7 -425.4 L-416.7 -425.4 L-414.7 -425.3 L-412.7 -425.3 L-410.7 -425.3 L-408.7 -425.3 L-406.8 -425.3 L-404.8 -425.3 L-402.8 -425.3 L-400.8 -425.2 L-398.8 -425.2 L-396.9 -425.2 L-394.9 -425.2 L-392.9 -425.2 L-390.9 -425.2 L-388.9 -425.2 L-387 -425.2 L-385 -425.1 L-383 -425.1 L-381 -425.1 L-379 -425.1 L-377.1 -425.1 L-375.1 -425.1 L-375.1 -423.1 L-375.1 -421.1 L-375.1 -419.1 L-375.1 -417.2 L-375.1 -415.2 L-375.2 -413.2 L-375.2 -411.2 L-375.2 -409.2 L-375.2 -407.3 L-375.2 -405.3 L-375.2 -403.3 L-375.2 -401.3 L-375.2 -399.3 L-375.3 -397.4 L-375.3 -395.4 L-375.3 -393.4 L-375.3 -391.4 L-375.3 -389.4 L-375.3 -387.5 L-375.3 -385.5 L-375.3 -383.5 L-375.4 -381.5 L-375.4 -379.5 L-375.4 -377.5 L-375.4 -375.6 L-377.4 -375.6 L-379.4 -375.6 L-381.3 -375.6 L-383.3 -375.6 L-385.3 -375.6 L-387.3 -375.6 L-389.3 -375.7 L-391.2 -375.7 L-393.2 -375.7 L-395.2 -375.7 L-397.2 -375.7 L-399.2 -375.7 L-401.1 -375.7 L-403.1 -375.7 L-405.1 -375.8 L-407.1 -375.8 L-409.1 -375.8 L-411 -375.8 L-413 -375.8 L-415 -375.8 L-417 -375.8 L-419 -375.8 L-421 -375.9 L-422.9 -375.9 L-424.9 -375.9 Z " />
<path stroke="rgb(0,0,0)" stroke-opacity="0.256" fill="rgb(255,255,255)" fill-opacity="1" d="M24.85 -99.84 L24.76 -97.87 L24.51 -95.91 L24.11 -93.97 L23.55 -92.07 L22.85 -90.23 L22 -88.44 L21.01 -86.73 L19.89 -85.11 L18.65 -83.57 L17.28 -82.14 L15.81 -80.83 L14.23 -79.63 L12.57 -78.56 L10.83 -77.63 L9.017 -76.84 L7.148 -76.2 L5.235 -75.71 L3.288 -75.37 L1.321 -75.19 L-0.6549 -75.16 L-2.627 -75.29 L-4.581 -75.58 L-6.507 -76.02 L-8.392 -76.61 L-10.22 -77.35 L-11.99 -78.24 L-13.68 -79.26 L-15.29 -80.41 L-16.8 -81.69 L-18.2 -83.08 L-19.48 -84.58 L-20.65 -86.18 L-21.68 -87.86 L-22.58 -89.62 L-23.33 -91.45 L-23.94 -93.33 L-24.39 -95.25 L-24.69 -97.21 L-24.83 -99.18 L-24.82 -101.2 L-24.65 -103.1 L-24.33 -105.1 L-23.85 -107 L-23.22 -108.9 L-22.44 -110.7 L-21.52 -112.4 L-20.47 -114.1 L-19.28 -115.7 L-17.97 -117.2 L-16.55 -118.5 L-15.03 -119.8 L-13.41 -120.9 L-11.71 -121.9 L-9.927 -122.8 L-8.085 -123.5 L-6.193 -124.1 L-4.261 -124.5 L-2.303 -124.7 L-0.3295 -124.9 L1.646 -124.8 L3.611 -124.6 L5.553 -124.2 L7.46 -123.7 L9.319 -123 L11.12 -122.2 L12.85 -121.3 L14.5 -120.2 L16.06 -119 L17.51 -117.6 L18.86 -116.2 L20.09 -114.6 L21.18 -113 L22.15 -111.3 L22.98 -109.5 L23.66 -107.6 L24.19 -105.7 L24.56 -103.8 L24.79 -101.8 L24.85 -99.84 Z " />
<path stroke="rgb(0,0,0)" stroke-opacity="1" fill="rgb(255,255,255)" fill-opacity="1" d="M-224.8 -375.8 L-224.7 -377.8 L-224.7 -379.8 L-224.7 -381.8 L-224.7 -383.7 L-224.7 -385.7 L-224.7 -387.7 L-224.7 -389.7 L-224.7 -391.6 L-224.7 -393.6 L-224.7 -395.6 L-224.7 -397.6 L-224.7 -399.5 L-224.7 -401.5 L-224.7 -403.5 L-224.7 -405.5 L-224.7 -407.5 L-224.7 -409.4 L-224.7 -411.4 L-224.7 -413.4 L-224.7 -415.4 L-224.7 -417.3 L-224.7 -419.3 L-224.7 -421.3 L-224.7 -423.3 L-224.7 -425.2 L-222.7 -425.2 L-220.7 -425.2 L-218.7 -425.2 L-216.8 -425.2 L-214.8 -425.2 L-212.8 -425.2 L-210.8 -425.2 L-208.8 -425.2 L-206.9 -425.2 L-204.9 -425.2 L-202.9 -425.2 L-200.9 -425.2 L-199 -425.2 L-197 -425.2 L-195 -425.2 L-193 -425.2 L-191.1 -425.2 L-189.1 -425.2 L-187.1 -425.2 L-185.1 -425.2 L-183.1 -425.2 L-181.2 -425.2 L-179.2 -425.2 L-177.2 -425.2 L-175.2 -425.1 L-175.2 -423.2 L-175.2 -421.2 L-175.3 -419.2 L-175.3 -417.2 L-175.3 -415.3 L-175.3 -413.3 L-175.3 -411.3 L-175.3 -409.3 L-175.3 -407.4 L-175.3 -405.4 L-175.3 -403.4 L-175.3 -401.4 L-175.3 -399.4 L-175.3 -397.5 L-175.3 -395.5 L-175.3 -393.5 L-175.3 -391.5 L-175.3 -389.6 L-175.3 -387.6 L-175.3 -385.6 L-175.3 -383.6 L-175.3 -381.7 L-175.3 -379.7 L-175.3 -377.7 L-175.3 -375.7 L-177.3 -375.7 L-179.3 -375.7 L-181.3 -375.7 L-183.2 -375.7 L-185.2 -375.7 L-187.2 -375.8 L-189.2 -375.8 L-191.1 -375.8 L-193.1 -375.8 L-195.1 -375.8 L-197.1 -375.8 L-199.1 -375.8 L-201 -375.8 L-203 -375.8 L-205 -375.8 L-207 -375.8 L-208.9 -375.8 L-210.9 -375.8 L-212.9 -375.8 L-214.9 -375.8 L-216.8 -375.8 L-218.8 -375.8 L-220.8 -375.8 L-222.8 -375.8 L-224.8 -375.8 Z " />
<path stroke="rgb(0,0,0)" stroke-opacity="0.256" fill="rgb(255,255,255)" fill-opacity="1" d="M224.9 -99.84 L224.8 -97.87 L224.5 -95.91 L224.1 -93.97 L223.6 -92.07 L222.8 -90.23 L222 -88.44 L221 -86.73 L219.9 -85.11 L218.6 -83.57 L217.3 -82.14 L215.8 -80.83 L214.2 -79.63 L212.6 -78.56 L210.8 -77.63 L209 -76.84 L207.1 -76.2 L205.2 -75.71 L203.3 -75.37 L201.3 -75.19 L199.3 -75.16 L197.4 -75.29 L195.4 -75.58 L193.5 -76.02 L191.6 -76.61 L189.8 -77.35 L188 -78.24 L186.3 -79.26 L184.7 -80.41 L183.2 -81.69 L181.8 -83.08 L180.5 -84.58 L179.4 -86.18 L178.3 -87.86 L177.4 -89.62 L176.7 -91.45 L176.1 -93.33 L175.6 -95.25 L175.3 -97.21 L175.2 -99.18 L175.2 -101.2 L175.3 -103.1 L175.7 -105.1 L176.2 -107 L176.8 -108.9 L177.6 -110.7 L178.5 -112.4 L179.5 -114.1 L180.7 -115.7 L182 -117.2 L183.4 -118.5 L185 -119.8 L186.6 -120.9 L188.3 -121.9 L190.1 -122.8 L191.9 -123.5 L193.8 -124.1 L195.7 -124.5 L197.7 -124.7 L199.7 -124.9 L201.6 -124.8 L203.6 -124.6 L205.6 -124.2 L207.5 -123.7 L209.3 -123 L211.1 -122.2 L212.9 -121.3 L214.5 -120.2 L216.1 -119 L217.5 -117.6 L218.9 -116.2 L220.1 -114.6 L221.2 -113 L222.2 -111.3 L223 -109.5 L223.7 -107.6 L224.2 -105.7 L224.6 -103.8 L224.8 -101.8 L224.9 -99.84 Z " />
<path stroke="rgb(0,0,0)" stroke-opacity="1" fill="rgb(255,255,255)" fill-opacity="1" d="M-20.45 -374.4 L-20.68 -376.3 L-20.9 -378.2 L-21.13 -380 L-21.36 -381.9 L-21.58 -383.7 L-21.81 -385.6 L-22.03 -387.5 L-22.26 -389.3 L-22.49 -391.2 L-22.71 -393 L-22.94 -394.9 L-23.16 -396.7 L-23.39 -398.6 L-23.61 -400.5 L-23.84 -402.3 L-24.07 -404.2 L-24.29 -406 L-24.52 -407.9 L-24.74 -409.8 L-24.97 -411.6 L-25.2 -413.5 L-25.42 -415.3 L-25.65 -417.2 L-25.87 -419.1 L-26.1 -420.9 L-24.24 -421.1 L-22.38 -421.4 L-20.52 -421.6 L-18.66 -421.8 L-16.8 -422 L-14.95 -422.3 L-13.09 -422.5 L-11.23 -422.7 L-9.369 -422.9 L-7.51 -423.2 L-5.651 -423.4 L-3.792 -423.6 L-1.933 -423.8 L-0.0742 -424.1 L1.785 -424.3 L3.644 -424.5 L5.503 -424.8 L7.362 -425 L9.221 -425.2 L11.08 -425.4 L12.94 -425.7 L14.8 -425.9 L16.66 -426.1 L18.52 -426.3 L20.37 -426.6 L20.6 -424.7 L20.83 -422.8 L21.05 -421 L21.28 -419.1 L21.5 -417.3 L21.73 -415.4 L21.96 -413.5 L22.18 -411.7 L22.41 -409.8 L22.63 -408 L22.86 -406.1 L23.08 -404.3 L23.31 -402.4 L23.54 -400.5 L23.76 -398.7 L23.99 -396.8 L24.21 -395 L24.44 -393.1 L24.67 -391.2 L24.89 -389.4 L25.12 -387.5 L25.34 -385.7 L25.57 -383.8 L25.8 -381.9 L26.02 -380.1 L24.16 -379.9 L22.3 -379.6 L20.44 -379.4 L18.59 -379.2 L16.73 -379 L14.87 -378.7 L13.01 -378.5 L11.15 -378.3 L9.291 -378.1 L7.432 -377.8 L5.573 -377.6 L3.714 -377.4 L1.855 -377.1 L-0.003673 -376.9 L-1.863 -376.7 L-3.722 -376.5 L-5.581 -376.2 L-7.439 -376 L-9.298 -375.8 L-11.16 -375.6 L-13.02 -375.3 L-14.88 -375.1 L-16.73 -374.9 L-18.59 -374.7 L-20.45 -374.4 Z " />
<path stroke="rgb(0,0,0)" stroke-opacity="0.256" fill="rgb(255,255,255)" fill-opacity="1" d="M-275.1 0.1607 L-275.2 2.135 L-275.5 4.095 L-275.9 6.029 L-276.4 7.925 L-277.2 9.772 L-278 11.56 L-279 13.27 L-280.1 14.89 L-281.4 16.43 L-282.7 17.86 L-284.2 19.17 L-285.8 20.37 L-287.4 21.44 L-289.2 22.37 L-291 23.16 L-292.9 23.8 L-294.8 24.29 L-296.7 24.63 L-298.7 24.81 L-300.7 24.84 L-302.6 24.71 L-304.6 24.42 L-306.5 23.98 L-308.4 23.39 L-310.2 22.65 L-312 21.76 L-313.7 20.74 L-315.3 19.59 L-316.8 18.31 L-318.2 16.92 L-319.5 15.42 L-320.6 13.82 L-321.7 12.14 L-322.6 10.38 L-323.3 8.551 L-323.9 6.67 L-324.4 4.747 L-324.7 2.794 L-324.8 0.8233 L-324.8 -1.153 L-324.7 -3.121 L-324.3 -5.07 L-323.8 -6.987 L-323.2 -8.86 L-322.4 -10.68 L-321.5 -12.43 L-320.5 -14.1 L-319.3 -15.68 L-318 -17.16 L-316.6 -18.53 L-315 -19.79 L-313.4 -20.92 L-311.7 -21.92 L-309.9 -22.78 L-308.1 -23.5 L-306.2 -24.07 L-304.3 -24.48 L-302.3 -24.75 L-300.3 -24.85 L-298.4 -24.8 L-296.4 -24.59 L-294.4 -24.22 L-292.5 -23.71 L-290.7 -23.04 L-288.9 -22.23 L-287.1 -21.27 L-285.5 -20.18 L-283.9 -18.97 L-282.5 -17.63 L-281.1 -16.19 L-279.9 -14.64 L-278.8 -12.99 L-277.8 -11.27 L-277 -9.476 L-276.3 -7.62 L-275.8 -5.717 L-275.4 -3.777 L-275.2 -1.814 L-275.1 0.1607 Z " />
<path stroke="rgb(0,0,0)" stroke-opacity="1" fill="rgb(255,255,255)" fill-opacity="1" d="M-524.9 -275.9 L-524.9 -277.9 L-524.9 -279.8 L-524.9 -281.8 L-524.9 -283.8 L-524.8 -285.8 L-524.8 -287.8 L-524.8 -289.8 L-524.8 -291.7 L-524.8 -293.7 L-524.8 -295.7 L-524.8 -297.7 L-524.8 -299.7 L-524.7 -301.6 L-524.7 -303.6 L-524.7 -305.6 L-524.7 -307.6 L-524.7 -309.6 L-524.7 -311.5 L-524.7 -313.5 L-524.7 -315.5 L-524.6 -317.5 L-524.6 -319.5 L-524.6 -321.4 L-524.6 -323.4 L-524.6 -325.4 L-522.6 -325.4 L-520.6 -325.4 L-518.7 -325.4 L-516.7 -325.4 L-514.7 -325.3 L-512.7 -325.3 L-510.7 -325.3 L-508.7 -325.3 L-506.8 -325.3 L-504.8 -325.3 L-502.8 -325.3 L-500.8 -325.2 L-498.8 -325.2 L-496.9 -325.2 L-494.9 -325.2 L-492.9 -325.2 L-490.9 -325.2 L-488.9 -325.2 L-487 -325.2 L-485 -325.1 L-483 -325.1 L-481 -325.1 L-479 -325.1 L-477.1 -325.1 L-475.1 -325.1 L-475.1 -323.1 L-475.1 -321.1 L-475.1 -319.1 L-475.1 -317.2 L-475.1 -315.2 L-475.2 -313.2 L-475.2 -311.2 L-475.2 -309.2 L-475.2 -307.3 L-475.2 -305.3 L-475.2 -303.3 L-475.2 -301.3 L-475.2 -299.3 L-475.3 -297.4 L-475.3 -295.4 L-475.3 -293.4 L-475.3 -291.4 L-475.3 -289.4 L-475.3 -287.5 L-475.3 -285.5 L-475.3 -283.5 L-475.4 -281.5 L-475.4 -279.5 L-475.4 -277.5 L-475.4 -275.6 L-477.4 -275.6 L-479.4 -275.6 L-481.3 -275.6 L-483.3 -275.6 L-485.3 -275.6 L-487.3 -275.6 L-489.3 -275.7 L-491.2 -275.7 L-493.2 -275.7 L-495.2 -275.7 L-497.2 -275.7 L-499.2 -275.7 L-501.1 -275.7 L-503.1 -275.7 L-505.1 -275.8 L-507.1 -275.8 L-509.1 -275.8 L-511 -275.8 L-513 -275.8 L-515 -275.8 L-517 -275.8 L-519 -275.8 L-521 -275.9 L-522.9 -275.9 L-524.9 -275.9 Z " />
<path stroke="rgb(0,0,0)" stroke-opacity="0.256" fill="rgb(255,255,255)" fill-opacity="1" d="M-75.15 0.1607 L-75.24 2.135 L-75.49 4.095 L-75.89 6.029 L-76.45 7.925 L-77.15 9.772 L-78 11.56 L-78.99 13.27 L-80.11 14.89 L-81.35 16.43 L-82.72 17.86 L-84.19 19.17 L-85.77 20.37 L-87.43 21.44 L-89.17 22.37 L-90.98 23.16 L-92.85 23.8 L-94.77 24.29 L-96.71 24.63 L-98.68 24.81 L-100.7 24.84 L-102.6 24.71 L-104.6 24.42 L-106.5 23.98 L-108.4 23.39 L-110.2 22.65 L-112 21.76 L-113.7 20.74 L-115.3 19.59 L-116.8 18.31 L-118.2 16.92 L-119.5 15.42 L-120.6 13.82 L-121.7 12.14 L-122.6 10.38 L-123.3 8.551 L-123.9 6.67 L-124.4 4.747 L-124.7 2.794 L-124.8 0.8233 L-124.8 -1.153 L-124.7 -3.121 L-124.3 -5.07 L-123.8 -6.987 L-123.2 -8.86 L-122.4 -10.68 L-121.5 -12.43 L-120.5 -14.1 L-119.3 -15.68 L-118 -17.16 L-116.6 -18.53 L-115 -19.79 L-113.4 -20.92 L-111.7 -21.92 L-109.9 -22.78 L-108.1 -23.5 L-106.2 -24.07 L-104.3 -24.48 L-102.3 -24.75 L-100.3 -24.85 L-98.35 -24.8 L-96.39 -24.59 L-94.45 -24.22 L-92.54 -23.71 L-90.68 -23.04 L-88.88 -22.23 L-87.15 -21.27 L-85.5 -20.18 L-83.94 -18.97 L-82.49 -17.63 L-81.14 -16.19 L-79.91 -14.64 L-78.82 -12.99 L-77.85 -11.27 L-77.02 -9.476 L-76.34 -7.62 L-75.81 -5.717 L-75.44 -3.777 L-75.21 -1.814 L-75.15 0.1607 Z " />
<path stroke="rgb(0,0,0)" stroke-opacity="1" fill="rgb(255,255,255)" fill-opacity="1" d="M-324.8 -275.8 L-324.7 -277.8 L-324.7 -279.8 L-324.7 -281.8 L-324.7 -283.7 L-324.7 -285.7 L-324.7 -287.7 L-324.7 -289.7 L-324.7 -291.6 L-324.7 -293.6 L-324.7 -295.6 L-324.7 -297.6 L-324.7 -299.5 L-324.7 -301.5 L-324.7 -303.5 L-324.7 -305.5 L-324.7 -307.5 L-324.7 -309.4 L-324.7 -311.4 L-324.7 -313.4 L-324.7 -315.4 L-324.7 -317.3 L-324.7 -319.3 L-324.7 -321.3 L-324.7 -323.3 L-324.7 -325.2 L-322.7 -325.2 L-320.7 -325.2 L-318.7 -325.2 L-316.8 -325.2 L-314.8 -325.2 L-312.8 -325.2 L-310.8 -325.2 L-308.8 -325.2 L-306.9 -325.2 L-304.9 -325.2 L-302.9 -325.2 L-300.9 -325.2 L-299 -325.2 L-297 -325.2 L-295 -325.2 L-293 -325.2 L-291.1 -325.2 L-289.1 -325.2 L-287.1 -325.2 L-285.1 -325.2 L-283.1 -325.2 L-281.2 -325.2 L-279.2 -325.2 L-277.2 -325.2 L-275.2 -325.1 L-275.2 -323.2 L-275.2 -321.2 L-275.3 -319.2 L-275.3 -317.2 L-275.3 -315.3 L-275.3 -313.3 L-275.3 -311.3 L-275.3 -309.3 L-275.3 -307.4 L-275.3 -305.4 L-275.3 -303.4 L-275.3 -301.4 L-275.3 -299.4 L-275.3 -297.5 L-275.3 -295.5 L-275.3 -293.5 L-275.3 -291.5 L-275.3 -289.6 L-275.3 -287.6 L-275.3 -285.6 L-275.3 -283.6 L-275.3 -281.7 L-275.3 -279.7 L-275.3 -277.7 L-275.3 -275.7 L-277.3 -275.7 L-279.3 -275.7 L-281.3 -275.7 L-283.2 -275.7 L-285.2 -275.7 L-287.2 -275.8 L-289.2 -275.8 L-291.1 -275.8 L-293.1 -275.8 L-295.1 -275.8 L-297.1 -275.8 L-299.1 -275.8 L-301 -275.8 L-303 -275.8 L-305 -275.8 L-307 -275.8 L-308.9 -275.8 L-310.9 -275.8 L-312.9 -275.8 L-314.9 -275.8 L-316.8 -275.8 L-318.8 -275.8 L-320.8 -275.8 L-322.8 -275.8 L-324.8 -275.8 Z " />
<path stroke="rgb(0,0,0)" stroke-opacity="0.256" fill="rgb(255,255,255)" fill-opacity="1" d="M124.9 0.1607 L124.8 2.135 L124.5 4.095 L124.1 6.029 L123.6 7.925 L122.8 9.772 L122 11.56 L121 13.27 L119.9 14.89 L118.6 16.43 L117.3 17.86 L115.8 19.17 L114.2 20.37 L112.6 21.44 L110.8 22.37 L109 23.16 L107.1 23.8 L105.2 24.29 L103.3 24.63 L101.3 24.81 L99.35 24.84 L97.37 24.71 L95.42 24.42 L93.49 23.98 L91.61 23.39 L89.78 22.65 L88.01 21.76 L86.32 20.74 L84.71 19.59 L83.2 18.31 L81.8 16.92 L80.52 15.42 L79.35 13.82 L78.32 12.14 L77.42 10.38 L76.67 8.551 L76.06 6.67 L75.61 4.747 L75.31 2.794 L75.17 0.8233 L75.18 -1.153 L75.35 -3.121 L75.67 -5.07 L76.15 -6.987 L76.78 -8.86 L77.56 -10.68 L78.48 -12.43 L79.53 -14.1 L80.72 -15.68 L82.03 -17.16 L83.45 -18.53 L84.97 -19.79 L86.59 -20.92 L88.29 -21.92 L90.07 -22.78 L91.91 -23.5 L93.81 -24.07 L95.74 -24.48 L97.7 -24.75 L99.67 -24.85 L101.6 -24.8 L103.6 -24.59 L105.6 -24.22 L107.5 -23.71 L109.3 -23.04 L111.1 -22.23 L112.9 -21.27 L114.5 -20.18 L116.1 -18.97 L117.5 -17.63 L118.9 -16.19 L120.1 -14.64 L121.2 -12.99 L122.2 -11.27 L123 -9.476 L123.7 -7.62 L124.2 -5.717 L124.6 -3.777 L124.8 -1.814 L124.9 0.1607 Z " />
<path stroke="rgb(0,0,0)" stroke-opacity="1" fill="rgb(255,255,255)" fill-opacity="1" d="M-120.5 -274.4 L-120.7 -276.3 L-120.9 -278.2 L-121.1 -280 L-121.4 -281.9 L-121.6 -283.7 L-121.8 -285.6 L-122 -287.5 L-122.3 -289.3 L-122.5 -291.2 L-122.7 -293 L-122.9 -294.9 L-123.2 -296.7 L-123.4 -298.6 L-123.6 -300.5 L-123.8 -302.3 L-124.1 -304.2 L-124.3 -306 L-124.5 -307.9 L-124.7 -309.8 L-125 -311.6 L-125.2 -313.5 L-125.4 -315.3 L-125.6 -317.2 L-125.9 -319.1 L-126.1 -320.9 L-124.2 -321.1 L-122.4 -321.4 L-120.5 -321.6 L-118.7 -321.8 L-116.8 -322 L-114.9 -322.3 L-113.1 -322.5 L-111.2 -322.7 L-109.4 -322.9 L-107.5 -323.2 L-105.7 -323.4 L-103.8 -323.6 L-101.9 -323.8 L-100.1 -324.1 L-98.22 -324.3 L-96.36 -324.5 L-94.5 -324.8 L-92.64 -325 L-90.78 -325.2 L-88.92 -325.4 L-87.06 -325.7 L-85.2 -325.9 L-83.34 -326.1 L-81.48 -326.3 L-79.63 -326.6 L-79.4 -324.7 L-79.17 -322.8 L-78.95 -321 L-78.72 -319.1 L-78.5 -317.3 L-78.27 -315.4 L-78.04 -313.5 L-77.82 -311.7 L-77.59 -309.8 L-77.37 -308 L-77.14 -306.1 L-76.92 -304.3 L-76.69 -302.4 L-76.46 -300.5 L-76.24 -298.7 L-76.01 -296.8 L-75.79 -295 L-75.56 -293.1 L-75.33 -291.2 L-75.11 -289.4 L-74.88 -287.5 L-74.66 -285.7 L-74.43 -283.8 L-74.2 -281.9 L-73.98 -280.1 L-75.84 -279.9 L-77.7 -279.6 L-79.56 -279.4 L-81.41 -279.2 L-83.27 -279 L-85.13 -278.7 L-86.99 -278.5 L-88.85 -278.3 L-90.71 -278.1 L-92.57 -277.8 L-94.43 -277.6 L-96.29 -277.4 L-98.14 -277.1 L-100 -276.9 L-101.9 -276.7 L-103.7 -276.5 L-105.6 -276.2 L-107.4 -276 L-109.3 -275.8 L-111.2 -275.6 L-113 -275.3 L-114.9 -275.1 L-116.7 -274.9 L-118.6 -274.7 L-120.5 -274.4 Z " />
<path stroke="rgb(0,0,0)" stroke-opacity="0.256" fill="rgb(255,255,255)" fill-opacity="1" d="M324.9 0.1607 L324.8 2.135 L324.5 4.095 L324.1 6.029 L323.6 7.925 L322.8 9.772 L322 11.56 L321 13.27 L319.9 14.89 L318.6 16.43 L317.3 17.86 L315.8 19.17 L314.2 20.37 L312.6 21.44 L310.8 22.37 L309 23.16 L307.1 23.8 L305.2 24.29 L303.3 24.63 L301.3 24.81 L299.3 24.84 L297.4 24.71 L295.4 24.42 L293.5 23.98 L291.6 23.39 L289.8 22.65 L288 21.76 L286.3 20.74 L284.7 19.59 L283.2 18.31 L281.8 16.92 L280.5 15.42 L279.4 13.82 L278.3 12.14 L277.4 10.38 L276.7 8.551 L276.1 6.67 L275.6 4.747 L275.3 2.794 L275.2 0.8233 L275.2 -1.153 L275.3 -3.121 L275.7 -5.07 L276.2 -6.987 L276.8 -8.86 L277.6 -10.68 L278.5 -12.43 L279.5 -14.1 L280.7 -15.68 L282 -17.16 L283.4 -18.53 L285 -19.79 L286.6 -20.92 L288.3 -21.92 L290.1 -22.78 L291.9 -23.5 L293.8 -24.07 L295.7 -24.48 L297.7 -24.75 L299.7 -24.85 L301.6 -24.8 L303.6 -24.59 L305.6 -24.22 L307.5 -23.71 L309.3 -23.04 L311.1 -22.23 L312.9 -21.27 L314.5 -20.18 L316.1 -18.97 L317.5 -17.63 L318.9 -16.19 L320.1 -14.64 L321.2 -12.99 L322.2 -11.27 L323 -9.476 L323.7 -7.62 L324.2 -5.717 L324.6 -3.777 L324.8 -1.814 L324.9 0.1607 Z " />
<path stroke="rgb(0,0,0)" stroke-opacity="1" fill="rgb(255,255,255)" fill-opacity="1" d="M-624.9 -175.9 L-624.9 -177.9 L-624.9 -179.8 L-624.9 -181.8 L-624.9 -183.8 L-624.8 -185.8 L-624.8 -187.8 L-624.8 -189.8 L-624.8 -191.7 L-624.8 -193.7 L-624.8 -195.7 L-624.8 -197.7 L-624.8 -199.7 L-624.7 -201.6 L-624.7 -203.6 L-624.7 -205.6 L-624.7 -207.6 L-624.7 -209.6 L-624.7 -211.5 L-624.7 -213.5 L-624.7 -215.5 L-624.6 -217.5 L-624.6 -219.5 L-624.6 -221.4 L-624.6 -223.4 L-624.6 -225.4 L-622.6 -225.4 L-620.6 -225.4 L-618.7 -225.4 L-616.7 -225.4 L-614.7 -225.3 L-612.7 -225.3 L-610.7 -225.3 L-608.7 -225.3 L-606.8 -225.3 L-604.8 -225.3 L-602.8 -225.3 L-600.8 -225.2 L-598.8 -225.2 L-596.9 -225.2 L-594.9 -225.2 L-592.9 -225.2 L-590.9 -225.2 L-588.9 -225.2 L-587 -225.2 L-585 -225.1 L-583 -225.1 L-581 -225.1 L-579 -225.1 L-577.1 -225.1 L-575.1 -225.1 L-575.1 -223.1 L-575.1 -221.1 L-575.1 -219.1 L-575.1 -217.2 L-575.1 -215.2 L-575.2 -213.2 L-575.2 -211.2 L-575.2 -209.2 L-575.2 -207.3 L-575.2 -205.3 L-575.2 -203.3 L-575.2 -201.3 L-575.2 -199.3 L-575.3 -197.4 L-575.3 -195.4 L-575.3 -193.4 L-575.3 -191.4 L-575.3 -189.4 L-575.3 -187.5 L-575.3 -185.5 L-575.3 -183.5 L-575.4 -181.5 L-575.4 -179.5 L-575.4 -177.5 L-575.4 -175.6 L-577.4 -175.6 L-579.4 -175.6 L-581.3 -175.6 L-583.3 -175.6 L-585.3 -175.6 L-587.3 -175.6 L-589.3 -175.7 L-591.2 -175.7 L-593.2 -175.7 L-595.2 -175.7 L-597.2 -175.7 L-599.2 -175.7 L-601.1 -175.7 L-603.1 -175.7 L-605.1 -175.8 L-607.1 -175.8 L-609.1 -175.8 L-611 -175.8 L-613 -175.8 L-615 -175.8 L-617 -175.8 L-619 -175.8 L-621 -175.9 L-622.9 -175.9 L-624.9 -175.9 Z " />
<path stroke="rgb(0,0,0)" stroke-opacity="0.256" fill="rgb(255,255,255)" fill-opacity="1" d="M-175.1 100.2 L-175.2 102.1 L-175.5 104.1 L-175.9 106 L-176.4 107.9 L-177.2 109.8 L-178 111.6 L-179 113.3 L-180.1 114.9 L-181.4 116.4 L-182.7 117.9 L-184.2 119.2 L-185.8 120.4 L-187.4 121.4 L-189.2 122.4 L-191 123.2 L-192.9 123.8 L-194.8 124.3 L-196.7 124.6 L-198.7 124.8 L-200.7 124.8 L-202.6 124.7 L-204.6 124.4 L-206.5 124 L-208.4 123.4 L-210.2 122.6 L-212 121.8 L-213.7 120.7 L-215.3 119.6 L-216.8 118.3 L-218.2 116.9 L-219.5 115.4 L-220.6 113.8 L-221.7 112.1 L-222.6 110.4 L-223.3 108.6 L-223.9 106.7 L-224.4 104.7 L-224.7 102.8 L-224.8 100.8 L-224.8 98.85 L-224.7 96.88 L-224.3 94.93 L-223.8 93.01 L-223.2 91.14 L-222.4 89.32 L-221.5 87.57 L-220.5 85.9 L-219.3 84.32 L-218 82.84 L-216.6 81.47 L-215 80.21 L-213.4 79.08 L-211.7 78.08 L-209.9 77.22 L-208.1 76.5 L-206.2 75.93 L-204.3 75.52 L-202.3 75.25 L-200.3 75.15 L-198.4 75.2 L-196.4 75.41 L-194.4 75.78 L-192.5 76.29 L-190.7 76.96 L-188.9 77.77 L-187.1 78.73 L-185.5 79.82 L-183.9 81.03 L-182.5 82.37 L-181.1 83.81 L-179.9 85.36 L-178.8 87.01 L-177.8 88.73 L-177 90.52 L-176.3 92.38 L-175.8 94.28 L-175.4 96.22 L-175.2 98.19 L-175.1 100.2 Z " />
<path stroke="rgb(0,0,0)" stroke-opacity="1" fill="rgb(255,255,255)" fill-opacity="1" d="M-424.8 -175.8 L-424.7 -177.8 L-424.7 -179.8 L-424.7 -181.8 L-424.7 -183.7 L-424.7 -185.7 L-424.7 -187.7 L-424.7 -189.7 L-424.7 -191.6 L-424.7 -193.6 L-424.7 -195.6 L-424.7 -197.6 L-424.7 -199.5 L-424.7 -201.5 L-424.7 -203.5 L-424.7 -205.5 L-424.7 -207.5 L-424.7 -209.4 L-424.7 -211.4 L-424.7 -213.4 L-424.7 -215.4 L-424.7 -217.3 L-424.7 -219.3 L-424.7 -221.3 L-424.7 -223.3 L-424.7 -225.2 L-422.7 -225.2 L-420.7 -225.2 L-418.7 -225.2 L-416.8 -225.2 L-414.8 -225.2 L-412.8 -225.2 L-410.8 -225.2 L-408.8 -225.2 L-406.9 -225.2 L-404.9 -225.2 L-402.9 -225.2 L-400.9 -225.2 L-399 -225.2 L-397 -225.2 L-395 -225.2 L-393 -225.2 L-391.1 -225.2 L-389.1 -225.2 L-387.1 -225.2 L-385.1 -225.2 L-383.1 -225.2 L-381.2 -225.2 L-379.2 -225.2 L-377.2 -225.2 L-375.2 -225.1 L-375.2 -223.2 L-375.2 -221.2 L-375.3 -219.2 L-375.3 -217.2 L-375.3 -215.3 L-375.3 -213.3 L-375.3 -211.3 L-375.3 -209.3 L-375.3 -207.4 L-375.3 -205.4 L-375.3 -203.4 L-375.3 -201.4 L-375.3 -199.4 L-375.3 -197.5 L-375.3 -195.5 L-375.3 -193.5 L-375.3 -191.5 L-375.3 -189.6 L-375.3 -187.6 L-375.3 -185.6 L-375.3 -183.6 L-375.3 -181.7 L-375.3 -179.7 L-375.3 -177.7 L-375.3 -175.7 L-377.3 -175.7 L-379.3 -175.7 L-381.3 -175.7 L-383.2 -175.7 L-385.2 -175.7 L-387.2 -175.8 L-389.2 -175.8 L-391.1 -175.8 L-393.1 -175.8 L-395.1 -175.8 L-397.1 -175.8 L-399.1 -175.8 L-401 -175.8 L-403 -175.8 L-405 -175.8 L-407 -175.8 L-408.9 -175.8 L-410.9 -175.8 L-412.9 -175.8 L-414.9 -175.8 L-416.8 -175.8 L-418.8 -175.8 L-420.8 -175.8 L-422.8 -175.8 L-424.8 -175.8 Z " />
<path stroke="rgb(0,0,0)" stroke-opacity="0.256" fill="rgb(255,255,255)" fill-opacity="1" d="M24.85 100.2 L24.76 102.1 L24.51 104.1 L24.11 106 L23.55 107.9 L22.85 109.8 L22 111.6 L21.01 113.3 L19.89 114.9 L18.65 116.4 L17.28 117.9 L15.81 119.2 L14.23 120.4 L12.57 121.4 L10.83 122.4 L9.017 123.2 L7.148 123.8 L5.235 124.3 L3.288 124.6 L1.321 124.8 L-0.6549 124.8 L-2.627 124.7 L-4.581 124.4 L-6.507 124 L-8.392 123.4 L-10.22 122.6 L-11.99 121.8 L-13.68 120.7 L-15.29 119.6 L-16.8 118.3 L-18.2 116.9 L-19.48 115.4 L-20.65 113.8 L-21.68 112.1 L-22.58 110.4 L-23.33 108.6 L-23.94 106.7 L-24.39 104.7 L-24.69 102.8 L-24.83 100.8 L-24.82 98.85 L-24.65 96.88 L-24.33 94.93 L-23.85 93.01 L-23.22 91.14 L-22.44 89.32 L-21.52 87.57 L-20.47 85.9 L-19.28 84.32 L-17.97 82.84 L-16.55 81.47 L-15.03 80.21 L-13.41 79.08 L-11.71 78.08 L-9.927 77.22 L-8.085 76.5 L-6.193 75.93 L-4.261 75.52 L-2.303 75.25 L-0.3295 75.15 L1.646 75.2 L3.611 75.41 L5.553 75.78 L7.46 76.29 L9.319 76.96 L11.12 77.77 L12.85 78.73 L14.5 79.82 L16.06 81.03 L17.51 82.37 L18.86 83.81 L20.09 85.36 L21.18 87.01 L22.15 88.73 L22.98 90.52 L23.66 92.38 L24.19 94.28 L24.56 96.22 L24.79 98.19 L24.85 100.2 Z " />
<path stroke="rgb(0,0,0)" stroke-opacity="1" fill="rgb(255,255,255)" fill-opacity="1" d="M-220.5 -174.4 L-220.7 -176.3 L-220.9 -178.2 L-221.1 -180 L-221.4 -181.9 L-221.6 -183.7 L-221.8 -185.6 L-222 -187.5 L-222.3 -189.3 L-222.5 -191.2 L-222.7 -193 L-222.9 -194.9 L-223.2 -196.7 L-223.4 -198.6 L-223.6 -200.5 L-223.8 -202.3 L-224.1 -204.2 L-224.3 -206 L-224.5 -207.9 L-224.7 -209.8 L-225 -211.6 L-225.2 -213.5 L-225.4 -215.3 L-225.6 -217.2 L-225.9 -219.1 L-226.1 -220.9 L-224.2 -221.1 L-222.4 -221.4 L-220.5 -221.6 L-218.7 -221.8 L-216.8 -222 L-214.9 -222.3 L-213.1 -222.5 L-211.2 -222.7 L-209.4 -222.9 L-207.5 -223.2 L-205.7 -223.4 L-203.8 -223.6 L-201.9 -223.8 L-200.1 -224.1 L-198.2 -224.3 L-196.4 -224.5 L-194.5 -224.8 L-192.6 -225 L-190.8 -225.2 L-188.9 -225.4 L-187.1 -225.7 L-185.2 -225.9 L-183.3 -226.1 L-181.5 -226.3 L-179.6 -226.6 L-179.4 -224.7 L-179.2 -222.8 L-178.9 -221 L-178.7 -219.1 L-178.5 -217.3 L-178.3 -215.4 L-178 -213.5 L-177.8 -211.7 L-177.6 -209.8 L-177.4 -208 L-177.1 -206.1 L-176.9 -204.3 L-176.7 -202.4 L-176.5 -200.5 L-176.2 -198.7 L-176 -196.8 L-175.8 -195 L-175.6 -193.1 L-175.3 -191.2 L-175.1 -189.4 L-174.9 -187.5 L-174.7 -185.7 L-174.4 -183.8 L-174.2 -181.9 L-174 -180.1 L-175.8 -179.9 L-177.7 -179.6 L-179.6 -179.4 L-181.4 -179.2 L-183.3 -179 L-185.1 -178.7 L-187 -178.5 L-188.8 -178.3 L-190.7 -178.1 L-192.6 -177.8 L-194.4 -177.6 L-196.3 -177.4 L-198.1 -177.1 L-200 -176.9 L-201.9 -176.7 L-203.7 -176.5 L-205.6 -176.2 L-207.4 -176 L-209.3 -175.8 L-211.2 -175.6 L-213 -175.3 L-214.9 -175.1 L-216.7 -174.9 L-218.6 -174.7 L-220.5 -174.4 Z " />
<path stroke="rgb(0,0,0)" stroke-opacity="0.256" fill="rgb(255,255,255)" fill-opacity="1" d="M224.9 100.2 L224.8 102.1 L224.5 104.1 L224.1 106 L223.6 107.9 L222.8 109.8 L222 111.6 L221 113.3 L219.9 114.9 L218.6 116.4 L217.3 117.9 L215.8 119.2 L214.2 120.4 L212.6 121.4 L210.8 122.4 L209 123.2 L207.1 123.8 L205.2 124.3 L203.3 124.6 L201.3 124.8 L199.3 124.8 L197.4 124.7 L195.4 124.4 L193.5 124 L191.6 123.4 L189.8 122.6 L188 121.8 L186.3 120.7 L184.7 119.6 L183.2 118.3 L181.8 116.9 L180.5 115.4 L179.4 113.8 L178.3 112.1 L177.4 110.4 L176.7 108.6 L176.1 106.7 L175.6 104.7 L175.3 102.8 L175.2 100.8 L175.2 98.85 L175.3 96.88 L175.7 94.93 L176.2 93.01 L176.8 91.14 L177.6 89.32 L178.5 87.57 L179.5 85.9 L180.7 84.32 L182 82.84 L183.4 81.47 L185 80.21 L186.6 79.08 L188.3 78.08 L190.1 77.22 L191.9 76.5 L193.8 75.93 L195.7 75.52 L197.7 75.25 L199.7 75.15 L201.6 75.2 L203.6 75.41 L205.6 75.78 L207.5 76.29 L209.3 76.96 L211.1 77.77 L212.9 78.73 L214.5 79.82 L216.1 81.03 L217.5 82.37 L218.9 83.81 L220.1 85.36 L221.2 87.01 L222.2 88.73 L223 90.52 L223.7 92.38 L224.2 94.28 L224.6 96.22 L224.8 98.19 L224.9 100.2 Z " />
<path stroke="rgb(0,0,0)" stroke-opacity="1" fill="rgb(255,255,255)" fill-opacity="1" d="M-5.592 -174.1 L-6.434 -175.3 L-7.276 -176.6 L-8.118 -177.9 L-8.96 -179.1 L-9.801 -180.4 L-10.64 -181.7 L-11.49 -183 L-12.33 -184.2 L-13.17 -185.5 L-14.01 -186.8 L-14.85 -188.1 L-15.69 -189.3 L-16.54 -190.6 L-17.38 -191.9 L-18.22 -193.2 L-19.06 -194.4 L-19.9 -195.7 L-20.75 -197 L-21.59 -198.3 L-22.43 -199.5 L-23.27 -200.8 L-24.11 -202.1 L-24.96 -203.4 L-25.8 -204.6 L-26.64 -205.9 L-25.37 -206.7 L-24.09 -207.6 L-22.82 -208.4 L-21.54 -209.3 L-20.27 -210.1 L-18.99 -211 L-17.72 -211.8 L-16.45 -212.6 L-15.17 -213.5 L-13.9 -214.3 L-12.62 -215.2 L-11.35 -216 L-10.07 -216.9 L-8.8 -217.7 L-7.526 -218.5 L-6.252 -219.4 L-4.977 -220.2 L-3.703 -221.1 L-2.429 -221.9 L-1.155 -222.7 L0.1197 -223.6 L1.394 -224.4 L2.668 -225.3 L3.942 -226.1 L5.217 -227 L6.059 -225.7 L6.901 -224.4 L7.743 -223.1 L8.584 -221.9 L9.426 -220.6 L10.27 -219.3 L11.11 -218 L11.95 -216.8 L12.79 -215.5 L13.64 -214.2 L14.48 -212.9 L15.32 -211.7 L16.16 -210.4 L17 -209.1 L17.85 -207.8 L18.69 -206.6 L19.53 -205.3 L20.37 -204 L21.21 -202.7 L22.06 -201.5 L22.9 -200.2 L23.74 -198.9 L24.58 -197.6 L25.42 -196.4 L26.26 -195.1 L24.99 -194.3 L23.72 -193.4 L22.44 -192.6 L21.17 -191.7 L19.89 -190.9 L18.62 -190 L17.35 -189.2 L16.07 -188.4 L14.8 -187.5 L13.52 -186.7 L12.25 -185.8 L10.97 -185 L9.699 -184.2 L8.425 -183.3 L7.151 -182.5 L5.877 -181.6 L4.602 -180.8 L3.328 -179.9 L2.054 -179.1 L0.7795 -178.3 L-0.4947 -177.4 L-1.769 -176.6 L-3.043 -175.7 L-4.318 -174.9 L-5.592 -174.1 Z " />
<path stroke="rgb(0,0,0)" stroke-opacity="0.256" fill="rgb(255,255,255)" fill-opacity="1" d="M-275.1 200.2 L-275.2 202.1 L-275.5 204.1 L-275.9 206 L-276.4 207.9 L-277.2 209.8 L-278 211.6 L-279 213.3 L-280.1 214.9 L-281.4 216.4 L-282.7 217.9 L-284.2 219.2 L-285.8 220.4 L-287.4 221.4 L-289.2 222.4 L-291 223.2 L-292.9 223.8 L-294.8 224.3 L-296.7 224.6 L-298.7 224.8 L-300.7 224.8 L-302.6 224.7 L-304.6 224.4 L-306.5 224 L-308.4 223.4 L-310.2 222.6 L-312 221.8 L-313.7 220.7 L-315.3 219.6 L-316.8 218.3 L-318.2 216.9 L-319.5 215.4 L-320.6 213.8 L-321.7 212.1 L-322.6 210.4 L-323.3 208.6 L-323.9 206.7 L-324.4 204.7 L-324.7 202.8 L-324.8 200.8 L-324.8 198.8 L-324.7 196.9 L-324.3 194.9 L-323.8 193 L-323.2 191.1 L-322.4 189.3 L-321.5 187.6 L-320.5 185.9 L-319.3 184.3 L-318 182.8 L-316.6 181.5 L-315 180.2 L-313.4 179.1 L-311.7 178.1 L-309.9 177.2 L-308.1 176.5 L-306.2 175.9 L-304.3 175.5 L-302.3 175.3 L-300.3 175.1 L-298.4 175.2 L-296.4 175.4 L-294.4 175.8 L-292.5 176.3 L-290.7 177 L-288.9 177.8 L-287.1 178.7 L-285.5 179.8 L-283.9 181 L-282.5 182.4 L-281.1 183.8 L-279.9 185.4 L-278.8 187 L-277.8 188.7 L-277 190.5 L-276.3 192.4 L-275.8 194.3 L-275.4 196.2 L-275.2 198.2 L-275.1 200.2 Z " />
<path stroke="rgb(0,0,0)" stroke-opacity="1" fill="rgb(255,255,255)" fill-opacity="1" d="M-524.8 -75.82 L-524.7 -77.8 L-524.7 -79.78 L-524.7 -81.75 L-524.7 -83.73 L-524.7 -85.71 L-524.7 -87.68 L-524.7 -89.66 L-524.7 -91.64 L-524.7 -93.61 L-524.7 -95.59 L-524.7 -97.57 L-524.7 -99.54 L-524.7 -101.5 L-524.7 -103.5 L-524.7 -105.5 L-524.7 -107.5 L-524.7 -109.4 L-524.7 -111.4 L-524.7 -113.4 L-524.7 -115.4 L-524.7 -117.3 L-524.7 -119.3 L-524.7 -121.3 L-524.7 -123.3 L-524.7 -125.2 L-522.7 -125.2 L-520.7 -125.2 L-518.7 -125.2 L-516.8 -125.2 L-514.8 -125.2 L-512.8 -125.2 L-510.8 -125.2 L-508.8 -125.2 L-506.9 -125.2 L-504.9 -125.2 L-502.9 -125.2 L-500.9 -125.2 L-499 -125.2 L-497 -125.2 L-495 -125.2 L-493 -125.2 L-491.1 -125.2 L-489.1 -125.2 L-487.1 -125.2 L-485.1 -125.2 L-483.1 -125.2 L-481.2 -125.2 L-479.2 -125.2 L-477.2 -125.2 L-475.2 -125.1 L-475.2 -123.2 L-475.2 -121.2 L-475.3 -119.2 L-475.3 -117.2 L-475.3 -115.3 L-475.3 -113.3 L-475.3 -111.3 L-475.3 -109.3 L-475.3 -107.4 L-475.3 -105.4 L-475.3 -103.4 L-475.3 -101.4 L-475.3 -99.45 L-475.3 -97.47 L-475.3 -95.5 L-475.3 -93.52 L-475.3 -91.54 L-475.3 -89.57 L-475.3 -87.59 L-475.3 -85.61 L-475.3 -83.64 L-475.3 -81.66 L-475.3 -79.68 L-475.3 -77.71 L-475.3 -75.73 L-477.3 -75.73 L-479.3 -75.74 L-481.3 -75.74 L-483.2 -75.74 L-485.2 -75.75 L-487.2 -75.75 L-489.2 -75.76 L-491.1 -75.76 L-493.1 -75.76 L-495.1 -75.77 L-497.1 -75.77 L-499.1 -75.77 L-501 -75.78 L-503 -75.78 L-505 -75.79 L-507 -75.79 L-508.9 -75.79 L-510.9 -75.8 L-512.9 -75.8 L-514.9 -75.8 L-516.8 -75.81 L-518.8 -75.81 L-520.8 -75.82 L-522.8 -75.82 L-524.8 -75.82 Z " />
<path stroke="rgb(0,0,0)" stroke-opacity="0.256" fill="rgb(255,255,255)" fill-opacity="1" d="M-75.15 200.2 L-75.24 202.1 L-75.49 204.1 L-75.89 206 L-76.45 207.9 L-77.15 209.8 L-78 211.6 L-78.99 213.3 L-80.11 214.9 L-81.35 216.4 L-82.72 217.9 L-84.19 219.2 L-85.77 220.4 L-87.43 221.4 L-89.17 222.4 L-90.98 223.2 L-92.85 223.8 L-94.77 224.3 L-96.71 224.6 L-98.68 224.8 L-100.7 224.8 L-102.6 224.7 L-104.6 224.4 L-106.5 224 L-108.4 223.4 L-110.2 222.6 L-112 221.8 L-113.7 220.7 L-115.3 219.6 L-116.8 218.3 L-118.2 216.9 L-119.5 215.4 L-120.6 213.8 L-121.7 212.1 L-122.6 210.4 L-123.3 208.6 L-123.9 206.7 L-124.4 204.7 L-124.7 202.8 L-124.8 200.8 L-124.8 198.8 L-124.7 196.9 L-124.3 194.9 L-123.8 193 L-123.2 191.1 L-122.4 189.3 L-121.5 187.6 L-120.5 185.9 L-119.3 184.3 L-118 182.8 L-116.6 181.5 L-115 180.2 L-113.4 179.1 L-111.7 178.1 L-109.9 177.2 L-108.1 176.5 L-106.2 175.9 L-104.3 175.5 L-102.3 175.3 L-100.3 175.1 L-98.35 175.2 L-96.39 175.4 L-94.45 175.8 L-92.54 176.3 L-90.68 177 L-88.88 177.8 L-87.15 178.7 L-85.5 179.8 L-83.94 181 L-82.49 182.4 L-81.14 183.8 L-79.91 185.4 L-78.82 187 L-77.85 188.7 L-77.02 190.5 L-76.34 192.4 L-75.81 194.3 L-75.44 196.2 L-75.21 198.2 L-75.15 200.2 Z " />
<path stroke="rgb(0,0,0)" stroke-opacity="1" fill="rgb(255,255,255)" fill-opacity="1" d="M-320.5 -74.44 L-320.7 -76.3 L-320.9 -78.16 L-321.1 -80.02 L-321.4 -81.87 L-321.6 -83.73 L-321.8 -85.59 L-322 -87.45 L-322.3 -89.31 L-322.5 -91.17 L-322.7 -93.03 L-322.9 -94.89 L-323.2 -96.75 L-323.4 -98.6 L-323.6 -100.5 L-323.8 -102.3 L-324.1 -104.2 L-324.3 -106 L-324.5 -107.9 L-324.7 -109.8 L-325 -111.6 L-325.2 -113.5 L-325.4 -115.3 L-325.6 -117.2 L-325.9 -119.1 L-326.1 -120.9 L-324.2 -121.1 L-322.4 -121.4 L-320.5 -121.6 L-318.7 -121.8 L-316.8 -122 L-314.9 -122.3 L-313.1 -122.5 L-311.2 -122.7 L-309.4 -122.9 L-307.5 -123.2 L-305.7 -123.4 L-303.8 -123.6 L-301.9 -123.8 L-300.1 -124.1 L-298.2 -124.3 L-296.4 -124.5 L-294.5 -124.8 L-292.6 -125 L-290.8 -125.2 L-288.9 -125.4 L-287.1 -125.7 L-285.2 -125.9 L-283.3 -126.1 L-281.5 -126.3 L-279.6 -126.6 L-279.4 -124.7 L-279.2 -122.8 L-278.9 -121 L-278.7 -119.1 L-278.5 -117.3 L-278.3 -115.4 L-278 -113.5 L-277.8 -111.7 L-277.6 -109.8 L-277.4 -108 L-277.1 -106.1 L-276.9 -104.3 L-276.7 -102.4 L-276.5 -100.5 L-276.2 -98.68 L-276 -96.82 L-275.8 -94.96 L-275.6 -93.1 L-275.3 -91.24 L-275.1 -89.38 L-274.9 -87.52 L-274.7 -85.66 L-274.4 -83.8 L-274.2 -81.94 L-274 -80.09 L-275.8 -79.86 L-277.7 -79.63 L-279.6 -79.41 L-281.4 -79.18 L-283.3 -78.96 L-285.1 -78.73 L-287 -78.5 L-288.8 -78.28 L-290.7 -78.05 L-292.6 -77.83 L-294.4 -77.6 L-296.3 -77.38 L-298.1 -77.15 L-300 -76.92 L-301.9 -76.7 L-303.7 -76.47 L-305.6 -76.25 L-307.4 -76.02 L-309.3 -75.79 L-311.2 -75.57 L-313 -75.34 L-314.9 -75.12 L-316.7 -74.89 L-318.6 -74.66 L-320.5 -74.44 Z " />
<path stroke="rgb(0,0,0)" stroke-opacity="0.256" fill="rgb(255,255,255)" fill-opacity="1" d="M124.9 200.2 L124.8 202.1 L124.5 204.1 L124.1 206 L123.6 207.9 L122.8 209.8 L122 211.6 L121 213.3 L119.9 214.9 L118.6 216.4 L117.3 217.9 L115.8 219.2 L114.2 220.4 L112.6 221.4 L110.8 222.4 L109 223.2 L107.1 223.8 L105.2 224.3 L103.3 224.6 L101.3 224.8 L99.35 224.8 L97.37 224.7 L95.42 224.4 L93.49 224 L91.61 223.4 L89.78 222.6 L88.01 221.8 L86.32 220.7 L84.71 219.6 L83.2 218.3 L81.8 216.9 L80.52 215.4 L79.35 213.8 L78.32 212.1 L77.42 210.4 L76.67 208.6 L76.06 206.7 L75.61 204.7 L75.31 202.8 L75.17 200.8 L75.18 198.8 L75.35 196.9 L75.67 194.9 L76.15 193 L76.78 191.1 L77.56 189.3 L78.48 187.6 L79.53 185.9 L80.72 184.3 L82.03 182.8 L83.45 181.5 L84.97 180.2 L86.59 179.1 L88.29 178.1 L90.07 177.2 L91.91 176.5 L93.81 175.9 L95.74 175.5 L97.7 175.3 L99.67 175.1 L101.6 175.2 L103.6 175.4 L105.6 175.8 L107.5 176.3 L109.3 177 L111.1 177.8 L112.9 178.7 L114.5 179.8 L116.1 181 L117.5 182.4 L118.9 183.8 L120.1 185.4 L121.2 187 L122.2 188.7 L123 190.5 L123.7 192.4 L124.2 194.3 L124.6 196.2 L124.8 198.2 L124.9 200.2 Z " />
<path stroke="rgb(0,0,0)" stroke-opacity="1" fill="rgb(255,255,255)" fill-opacity="1" d="M-105.6 -74.05 L-106.4 -75.32 L-107.3 -76.6 L-108.1 -77.87 L-109 -79.15 L-109.8 -80.42 L-110.6 -81.7 L-111.5 -82.97 L-112.3 -84.24 L-113.2 -85.52 L-114 -86.79 L-114.9 -88.07 L-115.7 -89.34 L-116.5 -90.62 L-117.4 -91.89 L-118.2 -93.16 L-119.1 -94.44 L-119.9 -95.71 L-120.7 -96.99 L-121.6 -98.26 L-122.4 -99.54 L-123.3 -100.8 L-124.1 -102.1 L-125 -103.4 L-125.8 -104.6 L-126.6 -105.9 L-125.4 -106.7 L-124.1 -107.6 L-122.8 -108.4 L-121.5 -109.3 L-120.3 -110.1 L-119 -111 L-117.7 -111.8 L-116.4 -112.6 L-115.2 -113.5 L-113.9 -114.3 L-112.6 -115.2 L-111.3 -116 L-110.1 -116.9 L-108.8 -117.7 L-107.5 -118.5 L-106.3 -119.4 L-105 -120.2 L-103.7 -121.1 L-102.4 -121.9 L-101.2 -122.7 L-99.88 -123.6 L-98.61 -124.4 L-97.33 -125.3 L-96.06 -126.1 L-94.78 -127 L-93.94 -125.7 L-93.1 -124.4 L-92.26 -123.1 L-91.42 -121.9 L-90.57 -120.6 L-89.73 -119.3 L-88.89 -118 L-88.05 -116.8 L-87.21 -115.5 L-86.36 -114.2 L-85.52 -112.9 L-84.68 -111.7 L-83.84 -110.4 L-83 -109.1 L-82.15 -107.8 L-81.31 -106.6 L-80.47 -105.3 L-79.63 -104 L-78.79 -102.7 L-77.94 -101.5 L-77.1 -100.2 L-76.26 -98.92 L-75.42 -97.65 L-74.58 -96.37 L-73.74 -95.1 L-75.01 -94.26 L-76.28 -93.41 L-77.56 -92.57 L-78.83 -91.73 L-80.11 -90.89 L-81.38 -90.05 L-82.65 -89.21 L-83.93 -88.36 L-85.2 -87.52 L-86.48 -86.68 L-87.75 -85.84 L-89.03 -85 L-90.3 -84.15 L-91.57 -83.31 L-92.85 -82.47 L-94.12 -81.63 L-95.4 -80.79 L-96.67 -79.94 L-97.95 -79.1 L-99.22 -78.26 L-100.5 -77.42 L-101.8 -76.58 L-103 -75.73 L-104.3 -74.89 L-105.6 -74.05 Z " />
<path stroke="rgb(0,0,0)" stroke-opacity="0.256" fill="rgb(255,255,255)" fill-opacity="1" d="M324.9 200.2 L324.8 202.1 L324.5 204.1 L324.1 206 L323.6 207.9 L322.8 209.8 L322 211.6 L321 213.3 L319.9 214.9 L318.6 216.4 L317.3 217.9 L315.8 219.2 L314.2 220.4 L312.6 221.4 L310.8 222.4 L309 223.2 L307.1 223.8 L305.2 224.3 L303.3 224.6 L301.3 224.8 L299.3 224.8 L297.4 224.7 L295.4 224.4 L293.5 224 L291.6 223.4 L289.8 222.6 L288 221.8 L286.3 220.7 L284.7 219.6 L283.2 218.3 L281.8 216.9 L280.5 215.4 L279.4 213.8 L278.3 212.1 L277.4 210.4 L276.7 208.6 L276.1 206.7 L275.6 204.7 L275.3 202.8 L275.2 200.8 L275.2 198.8 L275.3 196.9 L275.7 194.9 L276.2 193 L276.8 191.1 L277.6 189.3 L278.5 187.6 L279.5 185.9 L280.7 184.3 L282 182.8 L283.4 181.5 L285 180.2 L286.6 179.1 L288.3 178.1 L290.1 177.2 L291.9 176.5 L293.8 175.9 L295.7 175.5 L297.7 175.3 L299.7 175.1 L301.6 175.2 L303.6 175.4 L305.6 175.8 L307.5 176.3 L309.3 177 L311.1 177.8 L312.9 178.7 L314.5 179.8 L316.1 181 L317.5 182.4 L318.9 183.8 L320.1 185.4 L321.2 187 L322.2 188.7 L323 190.5 L323.7 192.4 L324.2 194.3 L324.6 196.2 L324.8 198.2 L324.9 200.2 Z " />
<path stroke="rgb(0,0,0)" stroke-opacity="1" fill="rgb(255,255,255)" fill-opacity="1" d="M-624.8 24.18 L-624.7 22.2 L-624.7 20.22 L-624.7 18.25 L-624.7 16.27 L-624.7 14.29 L-624.7 12.32 L-624.7 10.34 L-624.7 8.363 L-624.7 6.386 L-624.7 4.41 L-624.7 2.433 L-624.7 0.4562 L-624.7 -1.52 L-624.7 -3.497 L-624.7 -5.474 L-624.7 -7.45 L-624.7 -9.427 L-624.7 -11.4 L-624.7 -13.38 L-624.7 -15.36 L-624.7 -17.33 L-624.7 -19.31 L-624.7 -21.29 L-624.7 -23.26 L-624.7 -25.24 L-622.7 -25.24 L-620.7 -25.23 L-618.7 -25.23 L-616.8 -25.23 L-614.8 -25.22 L-612.8 -25.22 L-610.8 -25.21 L-608.8 -25.21 L-606.9 -25.21 L-604.9 -25.2 L-602.9 -25.2 L-600.9 -25.2 L-599 -25.19 L-597 -25.19 L-595 -25.18 L-593 -25.18 L-591.1 -25.18 L-589.1 -25.17 L-587.1 -25.17 L-585.1 -25.17 L-583.1 -25.16 L-581.2 -25.16 L-579.2 -25.15 L-577.2 -25.15 L-575.2 -25.15 L-575.2 -23.17 L-575.2 -21.19 L-575.3 -19.22 L-575.3 -17.24 L-575.3 -15.26 L-575.3 -13.29 L-575.3 -11.31 L-575.3 -9.333 L-575.3 -7.357 L-575.3 -5.38 L-575.3 -3.403 L-575.3 -1.427 L-575.3 0.55 L-575.3 2.527 L-575.3 4.503 L-575.3 6.48 L-575.3 8.457 L-575.3 10.43 L-575.3 12.41 L-575.3 14.39 L-575.3 16.36 L-575.3 18.34 L-575.3 20.32 L-575.3 22.29 L-575.3 24.27 L-577.3 24.27 L-579.3 24.26 L-581.3 24.26 L-583.2 24.26 L-585.2 24.25 L-587.2 24.25 L-589.2 24.24 L-591.1 24.24 L-593.1 24.24 L-595.1 24.23 L-597.1 24.23 L-599.1 24.23 L-601 24.22 L-603 24.22 L-605 24.21 L-607 24.21 L-608.9 24.21 L-610.9 24.2 L-612.9 24.2 L-614.9 24.2 L-616.8 24.19 L-618.8 24.19 L-620.8 24.18 L-622.8 24.18 L-624.8 24.18 Z " />
<path stroke="rgb(0,0,0)" stroke-opacity="0.256" fill="rgb(255,255,255)" fill-opacity="1" d="M-175.1 300.2 L-175.2 302.1 L-175.5 304.1 L-175.9 306 L-176.4 307.9 L-177.2 309.8 L-178 311.6 L-179 313.3 L-180.1 314.9 L-181.4 316.4 L-182.7 317.9 L-184.2 319.2 L-185.8 320.4 L-187.4 321.4 L-189.2 322.4 L-191 323.2 L-192.9 323.8 L-194.8 324.3 L-196.7 324.6 L-198.7 324.8 L-200.7 324.8 L-202.6 324.7 L-204.6 324.4 L-206.5 324 L-208.4 323.4 L-210.2 322.6 L-212 321.8 L-213.7 320.7 L-215.3 319.6 L-216.8 318.3 L-218.2 316.9 L-219.5 315.4 L-220.6 313.8 L-221.7 312.1 L-222.6 310.4 L-223.3 308.6 L-223.9 306.7 L-224.4 304.7 L-224.7 302.8 L-224.8 300.8 L-224.8 298.8 L-224.7 296.9 L-224.3 294.9 L-223.8 293 L-223.2 291.1 L-222.4 289.3 L-221.5 287.6 L-220.5 285.9 L-219.3 284.3 L-218 282.8 L-216.6 281.5 L-215 280.2 L-213.4 279.1 L-211.7 278.1 L-209.9 277.2 L-208.1 276.5 L-206.2 275.9 L-204.3 275.5 L-202.3 275.3 L-200.3 275.1 L-198.4 275.2 L-196.4 275.4 L-194.4 275.8 L-192.5 276.3 L-190.7 277 L-188.9 277.8 L-187.1 278.7 L-185.5 279.8 L-183.9 281 L-182.5 282.4 L-181.1 283.8 L-179.9 285.4 L-178.8 287 L-177.8 288.7 L-177 290.5 L-176.3 292.4 L-175.8 294.3 L-175.4 296.2 L-175.2 298.2 L-175.1 300.2 Z " />
<path stroke="rgb(0,0,0)" stroke-opacity="1" fill="rgb(255,255,255)" fill-opacity="1" d="M-420.5 25.56 L-420.7 23.7 L-420.9 21.84 L-421.1 19.98 L-421.4 18.13 L-421.6 16.27 L-421.8 14.41 L-422 12.55 L-422.3 10.69 L-422.5 8.831 L-422.7 6.972 L-422.9 5.113 L-423.2 3.254 L-423.4 1.395 L-423.6 -0.4638 L-423.8 -2.323 L-424.1 -4.182 L-424.3 -6.041 L-424.5 -7.9 L-424.7 -9.759 L-425 -11.62 L-425.2 -13.48 L-425.4 -15.34 L-425.6 -17.19 L-425.9 -19.05 L-426.1 -20.91 L-424.2 -21.14 L-422.4 -21.36 L-420.5 -21.59 L-418.7 -21.82 L-416.8 -22.04 L-414.9 -22.27 L-413.1 -22.49 L-411.2 -22.72 L-409.4 -22.95 L-407.5 -23.17 L-405.7 -23.4 L-403.8 -23.62 L-401.9 -23.85 L-400.1 -24.07 L-398.2 -24.3 L-396.4 -24.53 L-394.5 -24.75 L-392.6 -24.98 L-390.8 -25.2 L-388.9 -25.43 L-387.1 -25.66 L-385.2 -25.88 L-383.3 -26.11 L-381.5 -26.33 L-379.6 -26.56 L-379.4 -24.7 L-379.2 -22.84 L-378.9 -20.98 L-378.7 -19.12 L-378.5 -17.26 L-378.3 -15.41 L-378 -13.55 L-377.8 -11.69 L-377.6 -9.829 L-377.4 -7.97 L-377.1 -6.111 L-376.9 -4.252 L-376.7 -2.393 L-376.5 -0.5343 L-376.2 1.325 L-376 3.184 L-375.8 5.043 L-375.6 6.901 L-375.3 8.76 L-375.1 10.62 L-374.9 12.48 L-374.7 14.34 L-374.4 16.2 L-374.2 18.06 L-374 19.91 L-375.8 20.14 L-377.7 20.37 L-379.6 20.59 L-381.4 20.82 L-383.3 21.04 L-385.1 21.27 L-387 21.5 L-388.8 21.72 L-390.7 21.95 L-392.6 22.17 L-394.4 22.4 L-396.3 22.62 L-398.1 22.85 L-400 23.08 L-401.9 23.3 L-403.7 23.53 L-405.6 23.75 L-407.4 23.98 L-409.3 24.21 L-411.2 24.43 L-413 24.66 L-414.9 24.88 L-416.7 25.11 L-418.6 25.34 L-420.5 25.56 Z " />
<path stroke="rgb(0,0,0)" stroke-opacity="0.256" fill="rgb(255,255,255)" fill-opacity="1" d="M24.85 300.2 L24.76 302.1 L24.51 304.1 L24.11 306 L23.55 307.9 L22.85 309.8 L22 311.6 L21.01 313.3 L19.89 314.9 L18.65 316.4 L17.28 317.9 L15.81 319.2 L14.23 320.4 L12.57 321.4 L10.83 322.4 L9.017 323.2 L7.148 323.8 L5.235 324.3 L3.288 324.6 L1.321 324.8 L-0.6549 324.8 L-2.627 324.7 L-4.581 324.4 L-6.507 324 L-8.392 323.4 L-10.22 322.6 L-11.99 321.8 L-13.68 320.7 L-15.29 319.6 L-16.8 318.3 L-18.2 316.9 L-19.48 315.4 L-20.65 313.8 L-21.68 312.1 L-22.58 310.4 L-23.33 308.6 L-23.94 306.7 L-24.39 304.7 L-24.69 302.8 L-24.83 300.8 L-24.82 298.8 L-24.65 296.9 L-24.33 294.9 L-23.85 293 L-23.22 291.1 L-22.44 289.3 L-21.52 287.6 L-20.47 285.9 L-19.28 284.3 L-17.97 282.8 L-16.55 281.5 L-15.03 280.2 L-13.41 279.1 L-11.71 278.1 L-9.927 277.2 L-8.085 276.5 L-6.193 275.9 L-4.261 275.5 L-2.303 275.3 L-0.3295 275.1 L1.646 275.2 L3.611 275.4 L5.553 275.8 L7.46 276.3 L9.319 277 L11.12 277.8 L12.85 278.7 L14.5 279.8 L16.06 281 L17.51 282.4 L18.86 283.8 L20.09 285.4 L21.18 287 L22.15 288.7 L22.98 290.5 L23.66 292.4 L24.19 294.3 L24.56 296.2 L24.79 298.2 L24.85 300.2 Z " />
<path stroke="rgb(0,0,0)" stroke-opacity="1" fill="rgb(255,255,255)" fill-opacity="1" d="M-205.6 25.95 L-206.4 24.68 L-207.3 23.4 L-208.1 22.13 L-209 20.85 L-209.8 19.58 L-210.6 18.3 L-211.5 17.03 L-212.3 15.76 L-213.2 14.48 L-214 13.21 L-214.9 11.93 L-215.7 10.66 L-216.5 9.384 L-217.4 8.11 L-218.2 6.835 L-219.1 5.561 L-219.9 4.287 L-220.7 3.013 L-221.6 1.738 L-222.4 0.4641 L-223.3 -0.8102 L-224.1 -2.084 L-225 -3.359 L-225.8 -4.633 L-226.6 -5.907 L-225.4 -6.749 L-224.1 -7.591 L-222.8 -8.433 L-221.5 -9.275 L-220.3 -10.12 L-219 -10.96 L-217.7 -11.8 L-216.4 -12.64 L-215.2 -13.48 L-213.9 -14.33 L-212.6 -15.17 L-211.3 -16.01 L-210.1 -16.85 L-208.8 -17.69 L-207.5 -18.54 L-206.3 -19.38 L-205 -20.22 L-203.7 -21.06 L-202.4 -21.9 L-201.2 -22.75 L-199.9 -23.59 L-198.6 -24.43 L-197.3 -25.27 L-196.1 -26.11 L-194.8 -26.96 L-193.9 -25.68 L-193.1 -24.41 L-192.3 -23.13 L-191.4 -21.86 L-190.6 -20.58 L-189.7 -19.31 L-188.9 -18.04 L-188 -16.76 L-187.2 -15.49 L-186.4 -14.21 L-185.5 -12.94 L-184.7 -11.66 L-183.8 -10.39 L-183 -9.116 L-182.2 -7.841 L-181.3 -6.567 L-180.5 -5.293 L-179.6 -4.019 L-178.8 -2.744 L-177.9 -1.47 L-177.1 -0.1957 L-176.3 1.079 L-175.4 2.353 L-174.6 3.627 L-173.7 4.901 L-175 5.743 L-176.3 6.585 L-177.6 7.427 L-178.8 8.269 L-180.1 9.111 L-181.4 9.953 L-182.7 10.79 L-183.9 11.64 L-185.2 12.48 L-186.5 13.32 L-187.8 14.16 L-189 15 L-190.3 15.85 L-191.6 16.69 L-192.8 17.53 L-194.1 18.37 L-195.4 19.21 L-196.7 20.06 L-197.9 20.9 L-199.2 21.74 L-200.5 22.58 L-201.8 23.42 L-203 24.27 L-204.3 25.11 L-205.6 25.95 Z " />
<path stroke="rgb(0,0,0)" stroke-opacity="0.256" fill="rgb(255,255,255)" fill-opacity="1" d="M224.9 300.2 L224.8 302.1 L224.5 304.1 L224.1 306 L223.6 307.9 L222.8 309.8 L222 311.6 L221 313.3 L219.9 314.9 L218.6 316.4 L217.3 317.9 L215.8 319.2 L214.2 320.4 L212.6 321.4 L210.8 322.4 L209 323.2 L207.1 323.8 L205.2 324.3 L203.3 324.6 L201.3 324.8 L199.3 324.8 L197.4 324.7 L195.4 324.4 L193.5 324 L191.6 323.4 L189.8 322.6 L188 321.8 L186.3 320.7 L184.7 319.6 L183.2 318.3 L181.8 316.9 L180.5 315.4 L179.4 313.8 L178.3 312.1 L177.4 310.4 L176.7 308.6 L176.1 306.7 L175.6 304.7 L175.3 302.8 L175.2 300.8 L175.2 298.8 L175.3 296.9 L175.7 294.9 L176.2 293 L176.8 291.1 L177.6 289.3 L178.5 287.6 L179.5 285.9 L180.7 284.3 L182 282.8 L183.4 281.5 L185 280.2 L186.6 279.1 L188.3 278.1 L190.1 277.2 L191.9 276.5 L193.8 275.9 L195.7 275.5 L197.7 275.3 L199.7 275.1 L201.6 275.2 L203.6 275.4 L205.6 275.8 L207.5 276.3 L209.3 277 L211.1 277.8 L212.9 278.7 L214.5 279.8 L216.1 281 L217.5 282.4 L218.9 283.8 L220.1 285.4 L221.2 287 L222.2 288.7 L223 290.5 L223.7 292.4 L224.2 294.3 L224.6 296.2 L224.8 298.2 L224.9 300.2 Z " />
<path stroke="rgb(0,0,0)" stroke-opacity="1" fill="rgb(255,255,255)" fill-opacity="1" d="M8.869 17.36 L7.79 17.02 L6.711 16.68 L5.631 16.33 L4.552 15.99 L3.473 15.65 L2.394 15.31 L1.314 14.96 L0.2349 14.62 L-0.8444 14.28 L-1.924 13.93 L-3.003 13.59 L-4.082 13.25 L-5.162 12.9 L-6.241 12.56 L-7.32 12.22 L-8.4 11.87 L-9.479 11.53 L-10.56 11.19 L-11.64 10.84 L-12.72 10.5 L-13.8 10.16 L-14.88 9.814 L-15.95 9.471 L-17.03 9.128 L-18.11 8.784 L-17.77 7.705 L-17.43 6.626 L-17.08 5.546 L-16.74 4.467 L-16.4 3.388 L-16.05 2.309 L-15.71 1.229 L-15.37 0.1499 L-15.02 -0.9294 L-14.68 -2.009 L-14.34 -3.088 L-14 -4.167 L-13.65 -5.247 L-13.31 -6.326 L-12.97 -7.405 L-12.62 -8.485 L-12.28 -9.564 L-11.94 -10.64 L-11.59 -11.72 L-11.25 -12.8 L-10.91 -13.88 L-10.56 -14.96 L-10.22 -16.04 L-9.877 -17.12 L-9.534 -18.2 L-8.454 -17.86 L-7.375 -17.51 L-6.296 -17.17 L-5.216 -16.83 L-4.137 -16.48 L-3.058 -16.14 L-1.978 -15.8 L-0.8992 -15.45 L0.1801 -15.11 L1.259 -14.77 L2.339 -14.42 L3.418 -14.08 L4.497 -13.74 L5.577 -13.39 L6.656 -13.05 L7.735 -12.71 L8.815 -12.36 L9.894 -12.02 L10.97 -11.68 L12.05 -11.33 L13.13 -10.99 L14.21 -10.65 L15.29 -10.3 L16.37 -9.962 L17.45 -9.619 L17.11 -8.539 L16.76 -7.46 L16.42 -6.381 L16.08 -5.301 L15.73 -4.222 L15.39 -3.143 L15.05 -2.063 L14.7 -0.9841 L14.36 0.09519 L14.02 1.174 L13.67 2.254 L13.33 3.333 L12.99 4.412 L12.64 5.492 L12.3 6.571 L11.96 7.65 L11.61 8.73 L11.27 9.809 L10.93 10.89 L10.59 11.97 L10.24 13.05 L9.899 14.13 L9.556 15.21 L9.213 16.28 L8.869 17.36 Z " />
</g>
</g>
</svg>
