<!DOCTYPE svg>
<svg xmlns="http://www.w3.org/2000/svg" xmlns:xlink="http://www.w3.org/1999/xlink" width="1000" height="1000">
<g transform="translate(500.000000,500.000000)">
<g transform="scale(3.000000,3.000000)">
<path stroke="rgb(0,0,0)" stroke-opacity="1" fill="rgb(255,255,255)" fill-opacity="1" d="M-441.4 -455.3 L-440.6 -454.8 L-439.8 -454.2 L-439 -453.6 L-438.1 -453.1 L-437.3 -452.5 L-436.5 -452 L-435.7 -451.4 L-434.9 -450.8 L-434 -450.3 L-433.2 -449.7 L-432.4 -449.2 L-431.6 -448.6 L-430.7 -448 L-429.9 -447.5 L-429.1 -446.9 L-428.3 -446.3 L-427.5 -445.8 L-426.6 -445.2 L-425.8 -444.7 L-425 -444.1 L-424.2 -443.5 L-423.3 -443 L-422.5 -442.4 L-421.7 -441.8 L-420.9 -441.3 L-421.4 -440.5 L-422 -439.6 L-422.6 -438.8 L-423.1 -438 L-423.7 -437.2 L-424.3 -436.4 L-424.8 -435.5 L-425.4 -434.7 L-425.9 -433.9 L-426.5 -433.1 L-427.1 -432.2 L-427.6 -431.4 L-428.2 -430.6 L-428.7 -429.8 L-429.3 -429 L-429.9 -428.1 L-430.4 -427.3 L-431 -426.5 L-431.6 -425.7 L-432.1 -424.9 L-432.7 -424 L-433.2 -423.2 L-433.8 -422.4 L-434.4 -421.6 L-434.9 -420.7 L-435.7 -421.3 L-436.6 -421.9 L-437.4 -422.4 L-438.2 -423 L-439 -423.6 L-439.9 -424.1 L-440.7 -424.7 L-441.5 -425.2 L-442.3 -425.8 L-443.1 -426.4 L-444 -426.9 L-444.8 -427.5 L-445.6 -428 L-446.4 -428.6 L-447.3 -429.2 L-448.1 -429.7 L-448.9 -430.3 L-449.7 -430.9 L-450.5 -431.4 L-451.4 -432 L-452.2 -432.5 L-453 -433.1 L-453.8 -433.7 L-454.6 -434.2 L-455.5 -434.8 L-454.9 -435.6 L-454.3 -436.4 L-453.8 -437.3 L-453.2 -438.1 L-452.7 -438.9 L-452.1 -439.7 L-451.5 -440.5 L-451 -441.4 L-450.4 -442.2 L-449.9 -443 L-449.3 -443.8 L-448.7 -444.6 L-448.2 -445.5 L-447.6 -446.3 L-447 -447.1 L-446.5 -447.9 L-445.9 -448.8 L-445.4 -449.6 L-444.8 -450.4 L-444.2 -451.2 L-443.7 -452 L-443.1 -452.9 L-442.5 -453.7 L-442 -454.5 L-441.4 -455.3 Z " />
<path stroke="rgb(0,0,0)" stroke-opacity="1" fill="rgb(255,255,255)" fill-opacity="1" d="M-199.6 -312.3 L-198.7 -312.3 L-197.7 -312.1 L-196.7 -311.9 L-195.7 -311.7 L-194.8 -311.3 L-193.9 -310.9 L-193.1 -310.4 L-192.2 -309.8 L-191.5 -309.2 L-190.8 -308.5 L-190.1 -307.8 L-189.5 -307 L-189 -306.2 L-188.5 -305.3 L-188.1 -304.4 L-187.8 -303.5 L-187.5 -302.5 L-187.3 -301.5 L-187.2 -300.5 L-187.2 -299.5 L-187.3 -298.6 L-187.4 -297.6 L-187.6 -296.6 L-187.9 -295.7 L-188.3 -294.7 L-188.8 -293.9 L-189.3 -293 L-189.8 -292.2 L-190.5 -291.4 L-191.2 -290.7 L-191.9 -290.1 L-192.7 -289.5 L-193.6 -289 L-194.4 -288.5 L-195.4 -288.2 L-196.3 -287.8 L-197.3 -287.6 L-198.3 -287.5 L-199.2 -287.4 L-200.2 -287.4 L-201.2 -287.5 L-202.2 -287.6 L-203.2 -287.9 L-204.1 -288.2 L-205 -288.6 L-205.9 -289 L-206.7 -289.6 L-207.5 -290.1 L-208.3 -290.8 L-209 -291.5 L-209.6 -292.3 L-210.2 -293.1 L-210.7 -293.9 L-211.1 -294.8 L-211.5 -295.8 L-211.8 -296.7 L-212 -297.7 L-212.1 -298.7 L-212.2 -299.6 L-212.1 -300.6 L-212 -301.6 L-211.8 -302.6 L-211.6 -303.6 L-211.3 -304.5 L-210.9 -305.4 L-210.4 -306.3 L-209.8 -307.1 L-209.2 -307.9 L-208.6 -308.6 L-207.8 -309.3 L-207.1 -309.9 L-206.2 -310.5 L-205.4 -310.9 L-204.5 -311.4 L-203.5 -311.7 L-202.6 -312 L-201.6 -312.2 L-200.6 -312.3 L-199.6 -312.3 Z " />
<path stroke="rgb(0,0,0)" stroke-opacity="1" fill="rgb(255,255,255)" fill-opacity="1" d="M-226 -432.7 L-225.1 -432.5 L-224.1 -432.2 L-223.2 -431.9 L-222.2 -431.6 L-221.2 -431.4 L-220.3 -431.1 L-219.3 -430.8 L-218.4 -430.6 L-217.4 -430.3 L-216.5 -430 L-215.5 -429.8 L-214.5 -429.5 L-213.6 -429.2 L-212.6 -428.9 L-211.7 -428.7 L-210.7 -428.4 L-209.7 -428.1 L-208.8 -427.9 L-207.8 -427.6 L-206.9 -427.3 L-205.9 -427.1 L-205 -426.8 L-204 -426.5 L-203 -426.2 L-202.1 -426 L-202.4 -425 L-202.6 -424.1 L-202.9 -423.1 L-203.2 -422.1 L-203.4 -421.2 L-203.7 -420.2 L-204 -419.3 L-204.2 -418.3 L-204.5 -417.3 L-204.8 -416.4 L-205.1 -415.4 L-205.3 -414.5 L-205.6 -413.5 L-205.9 -412.6 L-206.1 -411.6 L-206.4 -410.6 L-206.7 -409.7 L-206.9 -408.7 L-207.2 -407.8 L-207.5 -406.8 L-207.8 -405.8 L-208 -404.9 L-208.3 -403.9 L-208.6 -403 L-208.8 -402 L-209.8 -402.3 L-210.8 -402.6 L-211.7 -402.8 L-212.7 -403.1 L-213.6 -403.4 L-214.6 -403.6 L-215.5 -403.9 L-216.5 -404.2 L-217.5 -404.4 L-218.4 -404.7 L-219.4 -405 L-220.3 -405.3 L-221.3 -405.5 L-222.3 -405.8 L-223.2 -406.1 L-224.2 -406.3 L-225.1 -406.6 L-226.1 -406.9 L-227 -407.2 L-228 -407.4 L-229 -407.7 L-229.9 -408 L-230.9 -408.2 L-231.8 -408.5 L-232.8 -408.8 L-232.5 -409.7 L-232.3 -410.7 L-232 -411.6 L-231.7 -412.6 L-231.4 -413.6 L-231.2 -414.5 L-230.9 -415.5 L-230.6 -416.4 L-230.4 -417.4 L-230.1 -418.4 L-229.8 -419.3 L-229.6 -420.3 L-229.3 -421.2 L-229 -422.2 L-228.7 -423.1 L-228.5 -424.1 L-228.2 -425.1 L-227.9 -426 L-227.7 -427 L-227.4 -427.9 L-227.1 -428.9 L-226.9 -429.9 L-226.6 -430.8 L-226.3 -431.8 L-226 -432.7 Z " />
<path stroke="rgb(0,0,0)" stroke-opacity="1" fill="rgb(255,255,255)" fill-opacity="1" d="M0.3584 -312.3 L1.349 -312.3 L2.332 -312.1 L3.303 -311.9 L4.255 -311.7 L5.182 -311.3 L6.078 -310.9 L6.938 -310.4 L7.756 -309.8 L8.527 -309.2 L9.246 -308.5 L9.908 -307.8 L10.51 -307 L11.05 -306.2 L11.52 -305.3 L11.92 -304.4 L12.24 -303.5 L12.49 -302.5 L12.66 -301.5 L12.76 -300.5 L12.77 -299.5 L12.71 -298.6 L12.57 -297.6 L12.35 -296.6 L12.06 -295.7 L11.69 -294.7 L11.25 -293.9 L10.74 -293 L10.16 -292.2 L9.522 -291.4 L8.825 -290.7 L8.075 -290.1 L7.276 -289.5 L6.432 -289 L5.55 -288.5 L4.635 -288.2 L3.692 -287.8 L2.729 -287.6 L1.749 -287.5 L0.761 -287.4 L-0.2301 -287.4 L-1.218 -287.5 L-2.196 -287.6 L-3.158 -287.9 L-4.098 -288.2 L-5.011 -288.6 L-5.889 -289 L-6.729 -289.6 L-7.524 -290.1 L-8.269 -290.8 L-8.96 -291.5 L-9.593 -292.3 L-10.16 -293.1 L-10.67 -293.9 L-11.1 -294.8 L-11.46 -295.8 L-11.75 -296.7 L-11.96 -297.7 L-12.1 -298.7 L-12.15 -299.6 L-12.13 -300.6 L-12.03 -301.6 L-11.85 -302.6 L-11.59 -303.6 L-11.26 -304.5 L-10.85 -305.4 L-10.38 -306.3 L-9.832 -307.1 L-9.225 -307.9 L-8.557 -308.6 L-7.833 -309.3 L-7.057 -309.9 L-6.235 -310.5 L-5.372 -310.9 L-4.473 -311.4 L-3.543 -311.7 L-2.589 -312 L-1.617 -312.2 L-0.6321 -312.3 L0.3584 -312.3 Z " />
<path stroke="rgb(0,0,0)" stroke-opacity="1" fill="rgb(255,255,255)" fill-opacity="1" d="M-17.25 -419.6 L-16.26 -419.5 L-15.27 -419.4 L-14.28 -419.3 L-13.29 -419.2 L-12.3 -419.1 L-11.3 -419.1 L-10.31 -419 L-9.322 -418.9 L-8.331 -418.8 L-7.34 -418.7 L-6.349 -418.6 L-5.357 -418.5 L-4.366 -418.4 L-3.375 -418.3 L-2.384 -418.2 L-1.393 -418.1 L-0.4018 -418 L0.5893 -417.9 L1.58 -417.8 L2.572 -417.7 L3.563 -417.6 L4.554 -417.5 L5.545 -417.4 L6.536 -417.3 L7.527 -417.2 L7.431 -416.2 L7.335 -415.2 L7.239 -414.3 L7.143 -413.3 L7.048 -412.3 L6.952 -411.3 L6.856 -410.3 L6.76 -409.3 L6.664 -408.3 L6.568 -407.3 L6.472 -406.3 L6.376 -405.3 L6.28 -404.3 L6.184 -403.4 L6.088 -402.4 L5.992 -401.4 L5.896 -400.4 L5.8 -399.4 L5.704 -398.4 L5.608 -397.4 L5.512 -396.4 L5.416 -395.4 L5.32 -394.4 L5.224 -393.4 L5.128 -392.4 L4.137 -392.5 L3.146 -392.6 L2.155 -392.7 L1.164 -392.8 L0.1727 -392.9 L-0.8184 -393 L-1.81 -393.1 L-2.801 -393.2 L-3.792 -393.3 L-4.783 -393.4 L-5.774 -393.5 L-6.765 -393.6 L-7.756 -393.7 L-8.748 -393.8 L-9.739 -393.9 L-10.73 -394 L-11.72 -394.1 L-12.71 -394.2 L-13.7 -394.3 L-14.69 -394.4 L-15.69 -394.5 L-16.68 -394.6 L-17.67 -394.7 L-18.66 -394.8 L-19.65 -394.8 L-19.55 -395.8 L-19.46 -396.8 L-19.36 -397.8 L-19.27 -398.8 L-19.17 -399.8 L-19.07 -400.8 L-18.98 -401.8 L-18.88 -402.8 L-18.79 -403.8 L-18.69 -404.8 L-18.59 -405.8 L-18.5 -406.7 L-18.4 -407.7 L-18.31 -408.7 L-18.21 -409.7 L-18.11 -410.7 L-18.02 -411.7 L-17.92 -412.7 L-17.83 -413.7 L-17.73 -414.7 L-17.63 -415.7 L-17.54 -416.7 L-17.44 -417.6 L-17.35 -418.6 L-17.25 -419.6 Z " />
<path stroke="rgb(0,0,0)" stroke-opacity="1" fill="rgb(255,255,255)" fill-opacity="1" d="M200.4 -312.3 L201.3 -312.3 L202.3 -312.1 L203.3 -311.9 L204.3 -311.7 L205.2 -311.3 L206.1 -310.9 L206.9 -310.4 L207.8 -309.8 L208.5 -309.2 L209.2 -308.5 L209.9 -307.8 L210.5 -307 L211 -306.2 L211.5 -305.3 L211.9 -304.4 L212.2 -303.5 L212.5 -302.5 L212.7 -301.5 L212.8 -300.5 L212.8 -299.5 L212.7 -298.6 L212.6 -297.6 L212.4 -296.6 L212.1 -295.7 L211.7 -294.7 L211.2 -293.9 L210.7 -293 L210.2 -292.2 L209.5 -291.4 L208.8 -290.7 L208.1 -290.1 L207.3 -289.5 L206.4 -289 L205.6 -288.5 L204.6 -288.2 L203.7 -287.8 L202.7 -287.6 L201.7 -287.5 L200.8 -287.4 L199.8 -287.4 L198.8 -287.5 L197.8 -287.6 L196.8 -287.9 L195.9 -288.2 L195 -288.6 L194.1 -289 L193.3 -289.6 L192.5 -290.1 L191.7 -290.8 L191 -291.5 L190.4 -292.3 L189.8 -293.1 L189.3 -293.9 L188.9 -294.8 L188.5 -295.8 L188.2 -296.7 L188 -297.7 L187.9 -298.7 L187.8 -299.6 L187.9 -300.6 L188 -301.6 L188.2 -302.6 L188.4 -303.6 L188.7 -304.5 L189.1 -305.4 L189.6 -306.3 L190.2 -307.1 L190.8 -307.9 L191.4 -308.6 L192.2 -309.3 L192.9 -309.9 L193.8 -310.5 L194.6 -310.9 L195.5 -311.4 L196.5 -311.7 L197.4 -312 L198.4 -312.2 L199.4 -312.3 L200.4 -312.3 Z " />
<path stroke="rgb(0,0,0)" stroke-opacity="1" fill="rgb(255,255,255)" fill-opacity="1" d="M186.6 -413.9 L187.6 -413.9 L188.6 -413.9 L189.6 -413.9 L190.6 -413.8 L191.6 -413.8 L192.6 -413.8 L193.6 -413.8 L194.5 -413.8 L195.5 -413.7 L196.5 -413.7 L197.5 -413.7 L198.5 -413.7 L199.5 -413.7 L200.5 -413.6 L201.5 -413.6 L202.5 -413.6 L203.5 -413.6 L204.5 -413.6 L205.5 -413.5 L206.5 -413.5 L207.5 -413.5 L208.5 -413.5 L209.5 -413.5 L210.5 -413.4 L211.5 -413.4 L211.5 -412.4 L211.4 -411.4 L211.4 -410.4 L211.4 -409.4 L211.4 -408.4 L211.3 -407.4 L211.3 -406.4 L211.3 -405.4 L211.3 -404.5 L211.3 -403.5 L211.2 -402.5 L211.2 -401.5 L211.2 -400.5 L211.2 -399.5 L211.2 -398.5 L211.1 -397.5 L211.1 -396.5 L211.1 -395.5 L211.1 -394.5 L211.1 -393.5 L211 -392.5 L211 -391.5 L211 -390.5 L211 -389.5 L211 -388.5 L210 -388.5 L209 -388.6 L208 -388.6 L207 -388.6 L206 -388.6 L205 -388.6 L204 -388.7 L203 -388.7 L202 -388.7 L201 -388.7 L200 -388.7 L199 -388.8 L198 -388.8 L197 -388.8 L196 -388.8 L195 -388.9 L194 -388.9 L193 -388.9 L192 -388.9 L191 -388.9 L190 -389 L189.1 -389 L188.1 -389 L187.1 -389 L186.1 -389 L186.1 -390 L186.1 -391 L186.1 -392 L186.1 -393 L186.2 -394 L186.2 -395 L186.2 -396 L186.2 -397 L186.3 -398 L186.3 -399 L186.3 -400 L186.3 -401 L186.3 -402 L186.4 -403 L186.4 -404 L186.4 -405 L186.4 -406 L186.4 -407 L186.5 -408 L186.5 -409 L186.5 -409.9 L186.5 -410.9 L186.5 -411.9 L186.6 -412.9 L186.6 -413.9 Z " />
<path stroke="rgb(0,0,0)" stroke-opacity="1" fill="rgb(255,255,255)" fill-opacity="1" d="M-299.6 -212.3 L-298.7 -212.3 L-297.7 -212.1 L-296.7 -211.9 L-295.7 -211.7 L-294.8 -211.3 L-293.9 -210.9 L-293.1 -210.4 L-292.2 -209.8 L-291.5 -209.2 L-290.8 -208.5 L-290.1 -207.8 L-289.5 -207 L-289 -206.2 L-288.5 -205.3 L-288.1 -204.4 L-287.8 -203.5 L-287.5 -202.5 L-287.3 -201.5 L-287.2 -200.5 L-287.2 -199.5 L-287.3 -198.6 L-287.4 -197.6 L-287.6 -196.6 L-287.9 -195.7 L-288.3 -194.7 L-288.8 -193.9 L-289.3 -193 L-289.8 -192.2 L-290.5 -191.4 L-291.2 -190.7 L-291.9 -190.1 L-292.7 -189.5 L-293.6 -189 L-294.4 -188.5 L-295.4 -188.2 L-296.3 -187.8 L-297.3 -187.6 L-298.3 -187.5 L-299.2 -187.4 L-300.2 -187.4 L-301.2 -187.5 L-302.2 -187.6 L-303.2 -187.9 L-304.1 -188.2 L-305 -188.6 L-305.9 -189 L-306.7 -189.6 L-307.5 -190.1 L-308.3 -190.8 L-309 -191.5 L-309.6 -192.3 L-310.2 -193.1 L-310.7 -193.9 L-311.1 -194.8 L-311.5 -195.8 L-311.8 -196.7 L-312 -197.7 L-312.1 -198.7 L-312.2 -199.6 L-312.1 -200.6 L-312 -201.6 L-311.8 -202.6 L-311.6 -203.6 L-311.3 -204.5 L-310.9 -205.4 L-310.4 -206.3 L-309.8 -207.1 L-309.2 -207.9 L-308.6 -208.6 L-307.8 -209.3 L-307.1 -209.9 L-306.2 -210.5 L-305.4 -210.9 L-304.5 -211.4 L-303.5 -211.7 L-302.6 -212 L-301.6 -212.2 L-300.6 -212.3 L-299.6 -212.3 Z " />
<path stroke="rgb(0,0,0)" stroke-opacity="1" fill="rgb(255,255,255)" fill-opacity="1" d="M-326 -332.7 L-325.1 -332.5 L-324.1 -332.2 L-323.2 -331.9 L-322.2 -331.6 L-321.2 -331.4 L-320.3 -331.1 L-319.3 -330.8 L-318.4 -330.6 L-317.4 -330.3 L-316.5 -330 L-315.5 -329.8 L-314.5 -329.5 L-313.6 -329.2 L-312.6 -328.9 L-311.7 -328.7 L-310.7 -328.4 L-309.7 -328.1 L-308.8 -327.9 L-307.8 -327.6 L-306.9 -327.3 L-305.9 -327.1 L-305 -326.8 L-304 -326.5 L-303 -326.2 L-302.1 -326 L-302.4 -325 L-302.6 -324.1 L-302.9 -323.1 L-303.2 -322.1 L-303.4 -321.2 L-303.7 -320.2 L-304 -319.3 L-304.2 -318.3 L-304.5 -317.3 L-304.8 -316.4 L-305.1 -315.4 L-305.3 -314.5 L-305.6 -313.5 L-305.9 -312.6 L-306.1 -311.6 L-306.4 -310.6 L-306.7 -309.7 L-306.9 -308.7 L-307.2 -307.8 L-307.5 -306.8 L-307.8 -305.8 L-308 -304.9 L-308.3 -303.9 L-308.6 -303 L-308.8 -302 L-309.8 -302.3 L-310.8 -302.6 L-311.7 -302.8 L-312.7 -303.1 L-313.6 -303.4 L-314.6 -303.6 L-315.5 -303.9 L-316.5 -304.2 L-317.5 -304.4 L-318.4 -304.7 L-319.4 -305 L-320.3 -305.3 L-321.3 -305.5 L-322.3 -305.8 L-323.2 -306.1 L-324.2 -306.3 L-325.1 -306.6 L-326.1 -306.9 L-327 -307.2 L-328 -307.4 L-329 -307.7 L-329.9 -308 L-330.9 -308.2 L-331.8 -308.5 L-332.8 -308.8 L-332.5 -309.7 L-332.3 -310.7 L-332 -311.6 L-331.7 -312.6 L-331.4 -313.6 L-331.2 -314.5 L-330.9 -315.5 L-330.6 -316.4 L-330.4 -317.4 L-330.1 -318.4 L-329.8 -319.3 L-329.6 -320.3 L-329.3 -321.2 L-329 -322.2 L-328.7 -323.1 L-328.5 -324.1 L-328.2 -325.1 L-327.9 -326 L-327.7 -327 L-327.4 -327.9 L-327.1 -328.9 L-326.9 -329.9 L-326.6 -330.8 L-326.3 -331.8 L-326 -332.7 Z " />
<path stroke="rgb(0,0,0)" stroke-opacity="1" fill="rgb(255,255,255)" fill-opacity="1" d="M-99.64 -212.3 L-98.65 -212.3 L-97.67 -212.1 L-96.7 -211.9 L-95.74 -211.7 L-94.82 -211.3 L-93.92 -210.9 L-93.06 -210.4 L-92.24 -209.8 L-91.47 -209.2 L-90.75 -208.5 L-90.09 -207.8 L-89.49 -207 L-88.95 -206.2 L-88.48 -205.3 L-88.08 -204.4 L-87.76 -203.5 L-87.51 -202.5 L-87.34 -201.5 L-87.24 -200.5 L-87.23 -199.5 L-87.29 -198.6 L-87.43 -197.6 L-87.65 -196.6 L-87.94 -195.7 L-88.31 -194.7 L-88.75 -193.9 L-89.26 -193 L-89.84 -192.2 L-90.48 -191.4 L-91.17 -190.7 L-91.92 -190.1 L-92.72 -189.5 L-93.57 -189 L-94.45 -188.5 L-95.37 -188.2 L-96.31 -187.8 L-97.27 -187.6 L-98.25 -187.5 L-99.24 -187.4 L-100.2 -187.4 L-101.2 -187.5 L-102.2 -187.6 L-103.2 -187.9 L-104.1 -188.2 L-105 -188.6 L-105.9 -189 L-106.7 -189.6 L-107.5 -190.1 L-108.3 -190.8 L-109 -191.5 L-109.6 -192.3 L-110.2 -193.1 L-110.7 -193.9 L-111.1 -194.8 L-111.5 -195.8 L-111.8 -196.7 L-112 -197.7 L-112.1 -198.7 L-112.2 -199.6 L-112.1 -200.6 L-112 -201.6 L-111.8 -202.6 L-111.6 -203.6 L-111.3 -204.5 L-110.9 -205.4 L-110.4 -206.3 L-109.8 -207.1 L-109.2 -207.9 L-108.6 -208.6 L-107.8 -209.3 L-107.1 -209.9 L-106.2 -210.5 L-105.4 -210.9 L-104.5 -211.4 L-103.5 -211.7 L-102.6 -212 L-101.6 -212.2 L-100.6 -212.3 L-99.64 -212.3 Z " />
<path stroke="rgb(0,0,0)" stroke-opacity="1" fill="rgb(255,255,255)" fill-opacity="1" d="M-117.3 -319.6 L-116.3 -319.5 L-115.3 -319.4 L-114.3 -319.3 L-113.3 -319.2 L-112.3 -319.1 L-111.3 -319.1 L-110.3 -319 L-109.3 -318.9 L-108.3 -318.8 L-107.3 -318.7 L-106.3 -318.6 L-105.4 -318.5 L-104.4 -318.4 L-103.4 -318.3 L-102.4 -318.2 L-101.4 -318.1 L-100.4 -318 L-99.41 -317.9 L-98.42 -317.8 L-97.43 -317.7 L-96.44 -317.6 L-95.45 -317.5 L-94.45 -317.4 L-93.46 -317.3 L-92.47 -317.2 L-92.57 -316.2 L-92.66 -315.2 L-92.76 -314.3 L-92.86 -313.3 L-92.95 -312.3 L-93.05 -311.3 L-93.14 -310.3 L-93.24 -309.3 L-93.34 -308.3 L-93.43 -307.3 L-93.53 -306.3 L-93.62 -305.3 L-93.72 -304.3 L-93.82 -303.4 L-93.91 -302.4 L-94.01 -301.4 L-94.1 -300.4 L-94.2 -299.4 L-94.3 -298.4 L-94.39 -297.4 L-94.49 -296.4 L-94.58 -295.4 L-94.68 -294.4 L-94.78 -293.4 L-94.87 -292.4 L-95.86 -292.5 L-96.85 -292.6 L-97.85 -292.7 L-98.84 -292.8 L-99.83 -292.9 L-100.8 -293 L-101.8 -293.1 L-102.8 -293.2 L-103.8 -293.3 L-104.8 -293.4 L-105.8 -293.5 L-106.8 -293.6 L-107.8 -293.7 L-108.7 -293.8 L-109.7 -293.9 L-110.7 -294 L-111.7 -294.1 L-112.7 -294.2 L-113.7 -294.3 L-114.7 -294.4 L-115.7 -294.5 L-116.7 -294.6 L-117.7 -294.7 L-118.7 -294.8 L-119.7 -294.8 L-119.6 -295.8 L-119.5 -296.8 L-119.4 -297.8 L-119.3 -298.8 L-119.2 -299.8 L-119.1 -300.8 L-119 -301.8 L-118.9 -302.8 L-118.8 -303.8 L-118.7 -304.8 L-118.6 -305.8 L-118.5 -306.7 L-118.4 -307.7 L-118.3 -308.7 L-118.2 -309.7 L-118.1 -310.7 L-118 -311.7 L-117.9 -312.7 L-117.8 -313.7 L-117.7 -314.7 L-117.6 -315.7 L-117.5 -316.7 L-117.4 -317.6 L-117.3 -318.6 L-117.3 -319.6 Z " />
<path stroke="rgb(0,0,0)" stroke-opacity="1" fill="rgb(255,255,255)" fill-opacity="1" d="M100.4 -212.3 L101.3 -212.3 L102.3 -212.1 L103.3 -211.9 L104.3 -211.7 L105.2 -211.3 L106.1 -210.9 L106.9 -210.4 L107.8 -209.8 L108.5 -209.2 L109.2 -208.5 L109.9 -207.8 L110.5 -207 L111 -206.2 L111.5 -205.3 L111.9 -204.4 L112.2 -203.5 L112.5 -202.5 L112.7 -201.5 L112.8 -200.5 L112.8 -199.5 L112.7 -198.6 L112.6 -197.6 L112.4 -196.6 L112.1 -195.7 L111.7 -194.7 L111.2 -193.9 L110.7 -193 L110.2 -192.2 L109.5 -191.4 L108.8 -190.7 L108.1 -190.1 L107.3 -189.5 L106.4 -189 L105.6 -188.5 L104.6 -188.2 L103.7 -187.8 L102.7 -187.6 L101.7 -187.5 L100.8 -187.4 L99.77 -187.4 L98.78 -187.5 L97.8 -187.6 L96.84 -187.9 L95.9 -188.2 L94.99 -188.6 L94.11 -189 L93.27 -189.6 L92.48 -190.1 L91.73 -190.8 L91.04 -191.5 L90.41 -192.3 L89.84 -193.1 L89.33 -193.9 L88.9 -194.8 L88.54 -195.8 L88.25 -196.7 L88.04 -197.7 L87.9 -198.7 L87.85 -199.6 L87.87 -200.6 L87.97 -201.6 L88.15 -202.6 L88.41 -203.6 L88.74 -204.5 L89.15 -205.4 L89.62 -206.3 L90.17 -207.1 L90.78 -207.9 L91.44 -208.6 L92.17 -209.3 L92.94 -209.9 L93.76 -210.5 L94.63 -210.9 L95.53 -211.4 L96.46 -211.7 L97.41 -212 L98.38 -212.2 L99.37 -212.3 L100.4 -212.3 Z " />
<path stroke="rgb(0,0,0)" stroke-opacity="1" fill="rgb(255,255,255)" fill-opacity="1" d="M86.58 -313.9 L87.58 -313.9 L88.57 -313.9 L89.57 -313.9 L90.57 -313.8 L91.56 -313.8 L92.56 -313.8 L93.55 -313.8 L94.55 -313.8 L95.54 -313.7 L96.54 -313.7 L97.53 -313.7 L98.53 -313.7 L99.53 -313.7 L100.5 -313.6 L101.5 -313.6 L102.5 -313.6 L103.5 -313.6 L104.5 -313.6 L105.5 -313.5 L106.5 -313.5 L107.5 -313.5 L108.5 -313.5 L109.5 -313.5 L110.5 -313.4 L111.5 -313.4 L111.5 -312.4 L111.4 -311.4 L111.4 -310.4 L111.4 -309.4 L111.4 -308.4 L111.3 -307.4 L111.3 -306.4 L111.3 -305.4 L111.3 -304.5 L111.3 -303.5 L111.2 -302.5 L111.2 -301.5 L111.2 -300.5 L111.2 -299.5 L111.2 -298.5 L111.1 -297.5 L111.1 -296.5 L111.1 -295.5 L111.1 -294.5 L111.1 -293.5 L111 -292.5 L111 -291.5 L111 -290.5 L111 -289.5 L111 -288.5 L110 -288.5 L109 -288.6 L108 -288.6 L107 -288.6 L106 -288.6 L105 -288.6 L104 -288.7 L103 -288.7 L102 -288.7 L101 -288.7 L100 -288.7 L99.01 -288.8 L98.01 -288.8 L97.02 -288.8 L96.02 -288.8 L95.03 -288.9 L94.03 -288.9 L93.03 -288.9 L92.04 -288.9 L91.04 -288.9 L90.05 -289 L89.05 -289 L88.06 -289 L87.06 -289 L86.07 -289 L86.09 -290 L86.11 -291 L86.13 -292 L86.15 -293 L86.17 -294 L86.19 -295 L86.21 -296 L86.23 -297 L86.25 -298 L86.27 -299 L86.29 -300 L86.31 -301 L86.33 -302 L86.36 -303 L86.38 -304 L86.4 -305 L86.42 -306 L86.44 -307 L86.46 -308 L86.48 -309 L86.5 -309.9 L86.52 -310.9 L86.54 -311.9 L86.56 -312.9 L86.58 -313.9 Z " />
<path stroke="rgb(0,0,0)" stroke-opacity="1" fill="rgb(255,255,255)" fill-opacity="1" d="M302.4 -213 L303.4 -212.8 L304.5 -212.5 L305.5 -212.1 L306.4 -211.7 L307.3 -211.2 L308.2 -210.6 L309 -209.9 L309.8 -209.2 L310.5 -208.4 L311.2 -207.6 L311.8 -206.7 L312.3 -205.7 L312.7 -204.8 L313 -203.8 L313.3 -202.7 L313.5 -201.7 L313.6 -200.6 L313.6 -199.6 L313.6 -198.5 L313.4 -197.5 L313.2 -196.4 L312.9 -195.4 L312.5 -194.4 L312 -193.5 L311.5 -192.6 L310.9 -191.7 L310.2 -190.9 L309.4 -190.1 L308.6 -189.4 L307.8 -188.8 L306.9 -188.2 L305.9 -187.7 L305 -187.3 L304 -187 L302.9 -186.7 L301.9 -186.6 L300.8 -186.5 L299.8 -186.5 L298.7 -186.6 L297.6 -186.7 L296.6 -187 L295.6 -187.3 L294.6 -187.7 L293.7 -188.2 L292.8 -188.8 L291.9 -189.4 L291.1 -190.1 L290.4 -190.9 L289.7 -191.7 L289.1 -192.6 L288.6 -193.5 L288.1 -194.4 L287.7 -195.4 L287.4 -196.4 L287.1 -197.5 L287 -198.5 L286.9 -199.6 L287 -200.6 L287.1 -201.7 L287.3 -202.7 L287.5 -203.8 L287.9 -204.8 L288.3 -205.7 L288.8 -206.7 L289.4 -207.6 L290 -208.4 L290.8 -209.2 L291.5 -209.9 L292.4 -210.6 L293.2 -211.2 L294.2 -211.7 L295.1 -212.1 L296.1 -212.5 L297.1 -212.8 L298.2 -213 L299.2 -213.1 L300.3 -213.2 L301.3 -213.1 L302.4 -213 Z " />
<path stroke="rgb(0,0,0)" stroke-opacity="1" fill="rgb(255,255,255)" fill-opacity="1" d="M-426 -232.7 L-425.1 -232.5 L-424.1 -232.2 L-423.2 -231.9 L-422.2 -231.6 L-421.2 -231.4 L-420.3 -231.1 L-419.3 -230.8 L-418.4 -230.6 L-417.4 -230.3 L-416.5 -230 L-415.5 -229.8 L-414.5 -229.5 L-413.6 -229.2 L-412.6 -228.9 L-411.7 -228.7 L-410.7 -228.4 L-409.7 -228.1 L-408.8 -227.9 L-407.8 -227.6 L-406.9 -227.3 L-405.9 -227.1 L-405 -226.8 L-404 -226.5 L-403 -226.2 L-402.1 -226 L-402.4 -225 L-402.6 -224.1 L-402.9 -223.1 L-403.2 -222.1 L-403.4 -221.2 L-403.7 -220.2 L-404 -219.3 L-404.2 -218.3 L-404.5 -217.3 L-404.8 -216.4 L-405.1 -215.4 L-405.3 -214.5 L-405.6 -213.5 L-405.9 -212.6 L-406.1 -211.6 L-406.4 -210.6 L-406.7 -209.7 L-406.9 -208.7 L-407.2 -207.8 L-407.5 -206.8 L-407.8 -205.8 L-408 -204.9 L-408.3 -203.9 L-408.6 -203 L-408.8 -202 L-409.8 -202.3 L-410.8 -202.6 L-411.7 -202.8 L-412.7 -203.1 L-413.6 -203.4 L-414.6 -203.6 L-415.5 -203.9 L-416.5 -204.2 L-417.5 -204.4 L-418.4 -204.7 L-419.4 -205 L-420.3 -205.3 L-421.3 -205.5 L-422.3 -205.8 L-423.2 -206.1 L-424.2 -206.3 L-425.1 -206.6 L-426.1 -206.9 L-427 -207.2 L-428 -207.4 L-429 -207.7 L-429.9 -208 L-430.9 -208.2 L-431.8 -208.5 L-432.8 -208.8 L-432.5 -209.7 L-432.3 -210.7 L-432 -211.6 L-431.7 -212.6 L-431.4 -213.6 L-431.2 -214.5 L-430.9 -215.5 L-430.6 -216.4 L-430.4 -217.4 L-430.1 -218.4 L-429.8 -219.3 L-429.6 -220.3 L-429.3 -221.2 L-429 -222.2 L-428.7 -223.1 L-428.5 -224.1 L-428.2 -225.1 L-427.9 -226 L-427.7 -227 L-427.4 -227.9 L-427.1 -228.9 L-426.9 -229.9 L-426.6 -230.8 L-426.3 -231.8 L-426 -232.7 Z " />
<path stroke="rgb(0,0,0)" stroke-opacity="1" fill="rgb(255,255,255)" fill-opacity="1" d="M-199.6 -112.3 L-198.7 -112.3 L-197.7 -112.1 L-196.7 -111.9 L-195.7 -111.7 L-194.8 -111.3 L-193.9 -110.9 L-193.1 -110.4 L-192.2 -109.8 L-191.5 -109.2 L-190.8 -108.5 L-190.1 -107.8 L-189.5 -107 L-189 -106.2 L-188.5 -105.3 L-188.1 -104.4 L-187.8 -103.5 L-187.5 -102.5 L-187.3 -101.5 L-187.2 -100.5 L-187.2 -99.55 L-187.3 -98.56 L-187.4 -97.58 L-187.6 -96.61 L-187.9 -95.67 L-188.3 -94.75 L-188.8 -93.86 L-189.3 -93.01 L-189.8 -92.2 L-190.5 -91.44 L-191.2 -90.74 L-191.9 -90.09 L-192.7 -89.51 L-193.6 -88.99 L-194.4 -88.53 L-195.4 -88.15 L-196.3 -87.85 L-197.3 -87.62 L-198.3 -87.46 L-199.2 -87.39 L-200.2 -87.39 L-201.2 -87.47 L-202.2 -87.63 L-203.2 -87.87 L-204.1 -88.19 L-205 -88.57 L-205.9 -89.03 L-206.7 -89.56 L-207.5 -90.15 L-208.3 -90.8 L-209 -91.51 L-209.6 -92.28 L-210.2 -93.09 L-210.7 -93.94 L-211.1 -94.83 L-211.5 -95.75 L-211.8 -96.7 L-212 -97.67 L-212.1 -98.65 L-212.2 -99.64 L-212.1 -100.6 L-212 -101.6 L-211.8 -102.6 L-211.6 -103.6 L-211.3 -104.5 L-210.9 -105.4 L-210.4 -106.3 L-209.8 -107.1 L-209.2 -107.9 L-208.6 -108.6 L-207.8 -109.3 L-207.1 -109.9 L-206.2 -110.5 L-205.4 -110.9 L-204.5 -111.4 L-203.5 -111.7 L-202.6 -112 L-201.6 -112.2 L-200.6 -112.3 L-199.6 -112.3 Z " />
<path stroke="rgb(0,0,0)" stroke-opacity="1" fill="rgb(255,255,255)" fill-opacity="1" d="M-217.3 -219.6 L-216.3 -219.5 L-215.3 -219.4 L-214.3 -219.3 L-213.3 -219.2 L-212.3 -219.1 L-211.3 -219.1 L-210.3 -219 L-209.3 -218.9 L-208.3 -218.8 L-207.3 -218.7 L-206.3 -218.6 L-205.4 -218.5 L-204.4 -218.4 L-203.4 -218.3 L-202.4 -218.2 L-201.4 -218.1 L-200.4 -218 L-199.4 -217.9 L-198.4 -217.8 L-197.4 -217.7 L-196.4 -217.6 L-195.4 -217.5 L-194.5 -217.4 L-193.5 -217.3 L-192.5 -217.2 L-192.6 -216.2 L-192.7 -215.2 L-192.8 -214.3 L-192.9 -213.3 L-193 -212.3 L-193 -211.3 L-193.1 -210.3 L-193.2 -209.3 L-193.3 -208.3 L-193.4 -207.3 L-193.5 -206.3 L-193.6 -205.3 L-193.7 -204.3 L-193.8 -203.4 L-193.9 -202.4 L-194 -201.4 L-194.1 -200.4 L-194.2 -199.4 L-194.3 -198.4 L-194.4 -197.4 L-194.5 -196.4 L-194.6 -195.4 L-194.7 -194.4 L-194.8 -193.4 L-194.9 -192.4 L-195.9 -192.5 L-196.9 -192.6 L-197.8 -192.7 L-198.8 -192.8 L-199.8 -192.9 L-200.8 -193 L-201.8 -193.1 L-202.8 -193.2 L-203.8 -193.3 L-204.8 -193.4 L-205.8 -193.5 L-206.8 -193.6 L-207.8 -193.7 L-208.7 -193.8 L-209.7 -193.9 L-210.7 -194 L-211.7 -194.1 L-212.7 -194.2 L-213.7 -194.3 L-214.7 -194.4 L-215.7 -194.5 L-216.7 -194.6 L-217.7 -194.7 L-218.7 -194.8 L-219.7 -194.8 L-219.6 -195.8 L-219.5 -196.8 L-219.4 -197.8 L-219.3 -198.8 L-219.2 -199.8 L-219.1 -200.8 L-219 -201.8 L-218.9 -202.8 L-218.8 -203.8 L-218.7 -204.8 L-218.6 -205.8 L-218.5 -206.7 L-218.4 -207.7 L-218.3 -208.7 L-218.2 -209.7 L-218.1 -210.7 L-218 -211.7 L-217.9 -212.7 L-217.8 -213.7 L-217.7 -214.7 L-217.6 -215.7 L-217.5 -216.7 L-217.4 -217.6 L-217.3 -218.6 L-217.3 -219.6 Z " />
<path stroke="rgb(0,0,0)" stroke-opacity="1" fill="rgb(255,255,255)" fill-opacity="1" d="M0.3584 -112.3 L1.349 -112.3 L2.332 -112.1 L3.303 -111.9 L4.255 -111.7 L5.182 -111.3 L6.078 -110.9 L6.938 -110.4 L7.756 -109.8 L8.527 -109.2 L9.246 -108.5 L9.908 -107.8 L10.51 -107 L11.05 -106.2 L11.52 -105.3 L11.92 -104.4 L12.24 -103.5 L12.49 -102.5 L12.66 -101.5 L12.76 -100.5 L12.77 -99.55 L12.71 -98.56 L12.57 -97.58 L12.35 -96.61 L12.06 -95.67 L11.69 -94.75 L11.25 -93.86 L10.74 -93.01 L10.16 -92.2 L9.522 -91.44 L8.825 -90.74 L8.075 -90.09 L7.276 -89.51 L6.432 -88.99 L5.55 -88.53 L4.635 -88.15 L3.692 -87.85 L2.729 -87.62 L1.749 -87.46 L0.761 -87.39 L-0.2301 -87.39 L-1.218 -87.47 L-2.196 -87.63 L-3.158 -87.87 L-4.098 -88.19 L-5.011 -88.57 L-5.889 -89.03 L-6.729 -89.56 L-7.524 -90.15 L-8.269 -90.8 L-8.96 -91.51 L-9.593 -92.28 L-10.16 -93.09 L-10.67 -93.94 L-11.1 -94.83 L-11.46 -95.75 L-11.75 -96.7 L-11.96 -97.67 L-12.1 -98.65 L-12.15 -99.64 L-12.13 -100.6 L-12.03 -101.6 L-11.85 -102.6 L-11.59 -103.6 L-11.26 -104.5 L-10.85 -105.4 L-10.38 -106.3 L-9.832 -107.1 L-9.225 -107.9 L-8.557 -108.6 L-7.833 -109.3 L-7.057 -109.9 L-6.235 -110.5 L-5.372 -110.9 L-4.473 -111.4 L-3.543 -111.7 L-2.589 -112 L-1.617 -112.2 L-0.6321 -112.3 L0.3584 -112.3 Z " />
<path stroke="rgb(0,0,0)" stroke-opacity="1" fill="rgb(255,255,255)" fill-opacity="1" d="M-13.42 -213.9 L-12.42 -213.9 L-11.43 -213.9 L-10.43 -213.9 L-9.435 -213.8 L-8.439 -213.8 L-7.443 -213.8 L-6.448 -213.8 L-5.452 -213.8 L-4.457 -213.7 L-3.461 -213.7 L-2.465 -213.7 L-1.47 -213.7 L-0.474 -213.7 L0.5216 -213.6 L1.517 -213.6 L2.513 -213.6 L3.508 -213.6 L4.504 -213.6 L5.5 -213.5 L6.495 -213.5 L7.491 -213.5 L8.486 -213.5 L9.482 -213.5 L10.48 -213.4 L11.47 -213.4 L11.45 -212.4 L11.43 -211.4 L11.41 -210.4 L11.39 -209.4 L11.37 -208.4 L11.35 -207.4 L11.33 -206.4 L11.31 -205.4 L11.29 -204.5 L11.27 -203.5 L11.25 -202.5 L11.22 -201.5 L11.2 -200.5 L11.18 -199.5 L11.16 -198.5 L11.14 -197.5 L11.12 -196.5 L11.1 -195.5 L11.08 -194.5 L11.06 -193.5 L11.04 -192.5 L11.02 -191.5 L11 -190.5 L10.98 -189.5 L10.96 -188.5 L9.96 -188.5 L8.965 -188.6 L7.969 -188.6 L6.973 -188.6 L5.978 -188.6 L4.982 -188.6 L3.987 -188.7 L2.991 -188.7 L1.995 -188.7 L0.9997 -188.7 L0.004111 -188.7 L-0.9915 -188.8 L-1.987 -188.8 L-2.983 -188.8 L-3.978 -188.8 L-4.974 -188.9 L-5.97 -188.9 L-6.965 -188.9 L-7.961 -188.9 L-8.956 -188.9 L-9.952 -189 L-10.95 -189 L-11.94 -189 L-12.94 -189 L-13.93 -189 L-13.91 -190 L-13.89 -191 L-13.87 -192 L-13.85 -193 L-13.83 -194 L-13.81 -195 L-13.79 -196 L-13.77 -197 L-13.75 -198 L-13.73 -199 L-13.71 -200 L-13.69 -201 L-13.67 -202 L-13.64 -203 L-13.62 -204 L-13.6 -205 L-13.58 -206 L-13.56 -207 L-13.54 -208 L-13.52 -209 L-13.5 -209.9 L-13.48 -210.9 L-13.46 -211.9 L-13.44 -212.9 L-13.42 -213.9 Z " />
<path stroke="rgb(0,0,0)" stroke-opacity="1" fill="rgb(255,255,255)" fill-opacity="1" d="M202.4 -113 L203.4 -112.8 L204.5 -112.5 L205.5 -112.1 L206.4 -111.7 L207.3 -111.2 L208.2 -110.6 L209 -109.9 L209.8 -109.2 L210.5 -108.4 L211.2 -107.6 L211.8 -106.7 L212.3 -105.7 L212.7 -104.8 L213 -103.8 L213.3 -102.7 L213.5 -101.7 L213.6 -100.6 L213.6 -99.57 L213.6 -98.51 L213.4 -97.46 L213.2 -96.42 L212.9 -95.41 L212.5 -94.42 L212 -93.47 L211.5 -92.56 L210.9 -91.69 L210.2 -90.88 L209.4 -90.12 L208.6 -89.42 L207.8 -88.79 L206.9 -88.23 L205.9 -87.74 L205 -87.33 L204 -87 L202.9 -86.75 L201.9 -86.58 L200.8 -86.49 L199.8 -86.49 L198.7 -86.58 L197.6 -86.75 L196.6 -87 L195.6 -87.33 L194.6 -87.74 L193.7 -88.23 L192.8 -88.79 L191.9 -89.42 L191.1 -90.12 L190.4 -90.88 L189.7 -91.69 L189.1 -92.56 L188.6 -93.47 L188.1 -94.42 L187.7 -95.41 L187.4 -96.42 L187.1 -97.46 L187 -98.51 L186.9 -99.57 L187 -100.6 L187.1 -101.7 L187.3 -102.7 L187.5 -103.8 L187.9 -104.8 L188.3 -105.7 L188.8 -106.7 L189.4 -107.6 L190 -108.4 L190.8 -109.2 L191.5 -109.9 L192.4 -110.6 L193.2 -111.2 L194.2 -111.7 L195.1 -112.1 L196.1 -112.5 L197.1 -112.8 L198.2 -113 L199.2 -113.1 L200.3 -113.2 L201.3 -113.1 L202.4 -113 Z " />
<path stroke="rgb(0,0,0)" stroke-opacity="1" fill="rgb(255,255,255)" fill-opacity="1" d="M187.5 -212.6 L188.5 -212.6 L189.4 -212.6 L190.4 -212.6 L191.4 -212.6 L192.4 -212.6 L193.4 -212.6 L194.4 -212.6 L195.4 -212.6 L196.4 -212.6 L197.4 -212.6 L198.4 -212.6 L199.4 -212.6 L200.4 -212.6 L201.4 -212.6 L202.4 -212.6 L203.4 -212.6 L204.4 -212.6 L205.4 -212.6 L206.4 -212.6 L207.4 -212.6 L208.4 -212.6 L209.4 -212.6 L210.4 -212.5 L211.4 -212.5 L212.4 -212.5 L212.4 -211.5 L212.3 -210.5 L212.3 -209.6 L212.3 -208.6 L212.3 -207.6 L212.3 -206.6 L212.3 -205.6 L212.3 -204.6 L212.3 -203.6 L212.3 -202.6 L212.3 -201.6 L212.3 -200.6 L212.3 -199.6 L212.3 -198.6 L212.3 -197.6 L212.3 -196.6 L212.3 -195.6 L212.3 -194.6 L212.3 -193.6 L212.3 -192.6 L212.3 -191.6 L212.3 -190.6 L212.3 -189.6 L212.3 -188.6 L212.3 -187.6 L211.3 -187.6 L210.3 -187.7 L209.3 -187.7 L208.3 -187.7 L207.3 -187.7 L206.3 -187.7 L205.3 -187.7 L204.3 -187.7 L203.3 -187.7 L202.3 -187.7 L201.3 -187.7 L200.3 -187.7 L199.3 -187.7 L198.3 -187.7 L197.3 -187.7 L196.3 -187.7 L195.3 -187.7 L194.3 -187.7 L193.3 -187.7 L192.3 -187.7 L191.3 -187.7 L190.4 -187.7 L189.4 -187.7 L188.4 -187.7 L187.4 -187.7 L187.4 -188.7 L187.4 -189.7 L187.4 -190.7 L187.4 -191.7 L187.4 -192.7 L187.4 -193.7 L187.4 -194.7 L187.4 -195.7 L187.4 -196.7 L187.4 -197.7 L187.4 -198.7 L187.4 -199.7 L187.4 -200.7 L187.4 -201.7 L187.4 -202.7 L187.4 -203.7 L187.4 -204.7 L187.4 -205.7 L187.4 -206.7 L187.4 -207.7 L187.4 -208.6 L187.4 -209.6 L187.5 -210.6 L187.5 -211.6 L187.5 -212.6 Z " />
<path stroke="rgb(0,0,0)" stroke-opacity="1" fill="rgb(255,255,255)" fill-opacity="1" d="M-299.6 -12.31 L-298.7 -12.27 L-297.7 -12.14 L-296.7 -11.95 L-295.7 -11.67 L-294.8 -11.32 L-293.9 -10.9 L-293.1 -10.4 L-292.2 -9.842 L-291.5 -9.219 L-290.8 -8.537 L-290.1 -7.8 L-289.5 -7.012 L-289 -6.179 L-288.5 -5.306 L-288.1 -4.399 L-287.8 -3.463 L-287.5 -2.503 L-287.3 -1.527 L-287.2 -0.5409 L-287.2 0.4501 L-287.3 1.439 L-287.4 2.42 L-287.6 3.387 L-287.9 4.333 L-288.3 5.253 L-288.8 6.141 L-289.3 6.991 L-289.8 7.797 L-290.5 8.555 L-291.2 9.261 L-291.9 9.908 L-292.7 10.49 L-293.6 11.01 L-294.4 11.47 L-295.4 11.85 L-296.3 12.15 L-297.3 12.38 L-298.3 12.54 L-299.2 12.61 L-300.2 12.61 L-301.2 12.53 L-302.2 12.37 L-303.2 12.13 L-304.1 11.81 L-305 11.43 L-305.9 10.97 L-306.7 10.44 L-307.5 9.85 L-308.3 9.197 L-309 8.487 L-309.6 7.724 L-310.2 6.913 L-310.7 6.059 L-311.1 5.168 L-311.5 4.246 L-311.8 3.297 L-312 2.329 L-312.1 1.347 L-312.2 0.3572 L-312.1 -0.6337 L-312 -1.62 L-311.8 -2.594 L-311.6 -3.551 L-311.3 -4.485 L-310.9 -5.39 L-310.4 -6.259 L-309.8 -7.088 L-309.2 -7.871 L-308.6 -8.603 L-307.8 -9.28 L-307.1 -9.898 L-306.2 -10.45 L-305.4 -10.94 L-304.5 -11.35 L-303.5 -11.7 L-302.6 -11.97 L-301.6 -12.16 L-300.6 -12.27 L-299.6 -12.31 Z " />
<path stroke="rgb(0,0,0)" stroke-opacity="1" fill="rgb(255,255,255)" fill-opacity="1" d="M-317.3 -119.6 L-316.3 -119.5 L-315.3 -119.4 L-314.3 -119.3 L-313.3 -119.2 L-312.3 -119.1 L-311.3 -119.1 L-310.3 -119 L-309.3 -118.9 L-308.3 -118.8 L-307.3 -118.7 L-306.3 -118.6 L-305.4 -118.5 L-304.4 -118.4 L-303.4 -118.3 L-302.4 -118.2 L-301.4 -118.1 L-300.4 -118 L-299.4 -117.9 L-298.4 -117.8 L-297.4 -117.7 L-296.4 -117.6 L-295.4 -117.5 L-294.5 -117.4 L-293.5 -117.3 L-292.5 -117.2 L-292.6 -116.2 L-292.7 -115.2 L-292.8 -114.3 L-292.9 -113.3 L-293 -112.3 L-293 -111.3 L-293.1 -110.3 L-293.2 -109.3 L-293.3 -108.3 L-293.4 -107.3 L-293.5 -106.3 L-293.6 -105.3 L-293.7 -104.3 L-293.8 -103.4 L-293.9 -102.4 L-294 -101.4 L-294.1 -100.4 L-294.2 -99.39 L-294.3 -98.4 L-294.4 -97.4 L-294.5 -96.41 L-294.6 -95.42 L-294.7 -94.43 L-294.8 -93.44 L-294.9 -92.45 L-295.9 -92.54 L-296.9 -92.64 L-297.8 -92.74 L-298.8 -92.83 L-299.8 -92.93 L-300.8 -93.02 L-301.8 -93.12 L-302.8 -93.22 L-303.8 -93.31 L-304.8 -93.41 L-305.8 -93.5 L-306.8 -93.6 L-307.8 -93.7 L-308.7 -93.79 L-309.7 -93.89 L-310.7 -93.98 L-311.7 -94.08 L-312.7 -94.18 L-313.7 -94.27 L-314.7 -94.37 L-315.7 -94.46 L-316.7 -94.56 L-317.7 -94.66 L-318.7 -94.75 L-319.7 -94.85 L-319.6 -95.84 L-319.5 -96.83 L-319.4 -97.82 L-319.3 -98.81 L-319.2 -99.8 L-319.1 -100.8 L-319 -101.8 L-318.9 -102.8 L-318.8 -103.8 L-318.7 -104.8 L-318.6 -105.8 L-318.5 -106.7 L-318.4 -107.7 L-318.3 -108.7 L-318.2 -109.7 L-318.1 -110.7 L-318 -111.7 L-317.9 -112.7 L-317.8 -113.7 L-317.7 -114.7 L-317.6 -115.7 L-317.5 -116.7 L-317.4 -117.6 L-317.3 -118.6 L-317.3 -119.6 Z " />
<path stroke="rgb(0,0,0)" stroke-opacity="1" fill="rgb(255,255,255)" fill-opacity="1" d="M-99.64 -12.31 L-98.65 -12.27 L-97.67 -12.14 L-96.7 -11.95 L-95.74 -11.67 L-94.82 -11.32 L-93.92 -10.9 L-93.06 -10.4 L-92.24 -9.842 L-91.47 -9.219 L-90.75 -8.537 L-90.09 -7.8 L-89.49 -7.012 L-88.95 -6.179 L-88.48 -5.306 L-88.08 -4.399 L-87.76 -3.463 L-87.51 -2.503 L-87.34 -1.527 L-87.24 -0.5409 L-87.23 0.4501 L-87.29 1.439 L-87.43 2.42 L-87.65 3.387 L-87.94 4.333 L-88.31 5.253 L-88.75 6.141 L-89.26 6.991 L-89.84 7.797 L-90.48 8.555 L-91.17 9.261 L-91.92 9.908 L-92.72 10.49 L-93.57 11.01 L-94.45 11.47 L-95.37 11.85 L-96.31 12.15 L-97.27 12.38 L-98.25 12.54 L-99.24 12.61 L-100.2 12.61 L-101.2 12.53 L-102.2 12.37 L-103.2 12.13 L-104.1 11.81 L-105 11.43 L-105.9 10.97 L-106.7 10.44 L-107.5 9.85 L-108.3 9.197 L-109 8.487 L-109.6 7.724 L-110.2 6.913 L-110.7 6.059 L-111.1 5.168 L-111.5 4.246 L-111.8 3.297 L-112 2.329 L-112.1 1.347 L-112.2 0.3572 L-112.1 -0.6337 L-112 -1.62 L-111.8 -2.594 L-111.6 -3.551 L-111.3 -4.485 L-110.9 -5.39 L-110.4 -6.259 L-109.8 -7.088 L-109.2 -7.871 L-108.6 -8.603 L-107.8 -9.28 L-107.1 -9.898 L-106.2 -10.45 L-105.4 -10.94 L-104.5 -11.35 L-103.5 -11.7 L-102.6 -11.97 L-101.6 -12.16 L-100.6 -12.27 L-99.64 -12.31 Z " />
<path stroke="rgb(0,0,0)" stroke-opacity="1" fill="rgb(255,255,255)" fill-opacity="1" d="M-113.4 -113.9 L-112.4 -113.9 L-111.4 -113.9 L-110.4 -113.9 L-109.4 -113.8 L-108.4 -113.8 L-107.4 -113.8 L-106.4 -113.8 L-105.5 -113.8 L-104.5 -113.7 L-103.5 -113.7 L-102.5 -113.7 L-101.5 -113.7 L-100.5 -113.7 L-99.48 -113.6 L-98.48 -113.6 L-97.49 -113.6 L-96.49 -113.6 L-95.5 -113.6 L-94.5 -113.5 L-93.5 -113.5 L-92.51 -113.5 L-91.51 -113.5 L-90.52 -113.5 L-89.52 -113.4 L-88.53 -113.4 L-88.55 -112.4 L-88.57 -111.4 L-88.59 -110.4 L-88.61 -109.4 L-88.63 -108.4 L-88.65 -107.4 L-88.67 -106.4 L-88.69 -105.4 L-88.71 -104.5 L-88.73 -103.5 L-88.75 -102.5 L-88.78 -101.5 L-88.8 -100.5 L-88.82 -99.47 L-88.84 -98.48 L-88.86 -97.48 L-88.88 -96.49 L-88.9 -95.49 L-88.92 -94.5 L-88.94 -93.5 L-88.96 -92.5 L-88.98 -91.51 L-89 -90.51 L-89.02 -89.52 L-89.04 -88.52 L-90.04 -88.54 L-91.04 -88.56 L-92.03 -88.58 L-93.03 -88.6 L-94.02 -88.63 L-95.02 -88.65 L-96.01 -88.67 L-97.01 -88.69 L-98 -88.71 L-99 -88.73 L-100 -88.75 L-101 -88.77 L-102 -88.79 L-103 -88.81 L-104 -88.83 L-105 -88.85 L-106 -88.87 L-107 -88.89 L-108 -88.91 L-109 -88.94 L-110 -88.96 L-110.9 -88.98 L-111.9 -89 L-112.9 -89.02 L-113.9 -89.04 L-113.9 -90.03 L-113.9 -91.03 L-113.9 -92.03 L-113.9 -93.02 L-113.8 -94.02 L-113.8 -95.01 L-113.8 -96.01 L-113.8 -97 L-113.7 -98 L-113.7 -99 L-113.7 -99.99 L-113.7 -101 L-113.7 -102 L-113.6 -103 L-113.6 -104 L-113.6 -105 L-113.6 -106 L-113.6 -107 L-113.5 -108 L-113.5 -109 L-113.5 -109.9 L-113.5 -110.9 L-113.5 -111.9 L-113.4 -112.9 L-113.4 -113.9 Z " />
<path stroke="rgb(0,0,0)" stroke-opacity="1" fill="rgb(255,255,255)" fill-opacity="1" d="M102.4 -13.02 L103.4 -12.81 L104.5 -12.52 L105.5 -12.14 L106.4 -11.7 L107.3 -11.17 L108.2 -10.57 L109 -9.91 L109.8 -9.182 L110.5 -8.395 L111.2 -7.554 L111.8 -6.664 L112.3 -5.73 L112.7 -4.76 L113 -3.759 L113.3 -2.732 L113.5 -1.688 L113.6 -0.6312 L113.6 0.4302 L113.6 1.49 L113.4 2.541 L113.2 3.578 L112.9 4.592 L112.5 5.579 L112 6.532 L111.5 7.444 L110.9 8.31 L110.2 9.125 L109.4 9.883 L108.6 10.58 L107.8 11.21 L106.9 11.77 L105.9 12.26 L105 12.67 L104 13 L102.9 13.25 L101.9 13.42 L100.8 13.51 L99.76 13.51 L98.7 13.42 L97.65 13.25 L96.62 13 L95.61 12.67 L94.63 12.26 L93.69 11.77 L92.79 11.21 L91.93 10.58 L91.13 9.883 L90.39 9.125 L89.71 8.31 L89.09 7.444 L88.55 6.532 L88.08 5.579 L87.69 4.592 L87.38 3.578 L87.15 2.541 L87 1.49 L86.94 0.4303 L86.96 -0.6311 L87.06 -1.687 L87.25 -2.732 L87.52 -3.758 L87.88 -4.76 L88.31 -5.73 L88.81 -6.664 L89.39 -7.553 L90.04 -8.395 L90.75 -9.182 L91.52 -9.91 L92.35 -10.57 L93.23 -11.17 L94.15 -11.69 L95.12 -12.14 L96.11 -12.52 L97.13 -12.81 L98.17 -13.02 L99.23 -13.14 L100.3 -13.19 L101.3 -13.14 L102.4 -13.02 Z " />
<path stroke="rgb(0,0,0)" stroke-opacity="1" fill="rgb(255,255,255)" fill-opacity="1" d="M87.46 -112.6 L88.45 -112.6 L89.45 -112.6 L90.45 -112.6 L91.44 -112.6 L92.44 -112.6 L93.43 -112.6 L94.43 -112.6 L95.42 -112.6 L96.42 -112.6 L97.42 -112.6 L98.41 -112.6 L99.41 -112.6 L100.4 -112.6 L101.4 -112.6 L102.4 -112.6 L103.4 -112.6 L104.4 -112.6 L105.4 -112.6 L106.4 -112.6 L107.4 -112.6 L108.4 -112.6 L109.4 -112.6 L110.4 -112.5 L111.4 -112.5 L112.4 -112.5 L112.4 -111.5 L112.3 -110.5 L112.3 -109.6 L112.3 -108.6 L112.3 -107.6 L112.3 -106.6 L112.3 -105.6 L112.3 -104.6 L112.3 -103.6 L112.3 -102.6 L112.3 -101.6 L112.3 -100.6 L112.3 -99.6 L112.3 -98.6 L112.3 -97.6 L112.3 -96.61 L112.3 -95.61 L112.3 -94.62 L112.3 -93.62 L112.3 -92.62 L112.3 -91.63 L112.3 -90.63 L112.3 -89.64 L112.3 -88.64 L112.3 -87.65 L111.3 -87.65 L110.3 -87.65 L109.3 -87.66 L108.3 -87.66 L107.3 -87.66 L106.3 -87.67 L105.3 -87.67 L104.3 -87.67 L103.3 -87.68 L102.3 -87.68 L101.3 -87.69 L100.3 -87.69 L99.32 -87.69 L98.32 -87.7 L97.32 -87.7 L96.33 -87.7 L95.33 -87.71 L94.34 -87.71 L93.34 -87.71 L92.35 -87.72 L91.35 -87.72 L90.35 -87.73 L89.36 -87.73 L88.36 -87.73 L87.37 -87.74 L87.37 -88.73 L87.37 -89.73 L87.38 -90.72 L87.38 -91.72 L87.38 -92.72 L87.39 -93.71 L87.39 -94.71 L87.4 -95.7 L87.4 -96.7 L87.4 -97.7 L87.41 -98.69 L87.41 -99.69 L87.41 -100.7 L87.42 -101.7 L87.42 -102.7 L87.43 -103.7 L87.43 -104.7 L87.43 -105.7 L87.44 -106.7 L87.44 -107.7 L87.44 -108.6 L87.45 -109.6 L87.45 -110.6 L87.45 -111.6 L87.46 -112.6 Z " />
<path stroke="rgb(0,0,0)" stroke-opacity="1" fill="rgb(255,255,255)" fill-opacity="1" d="M315.9 -10.68 L316.7 -9.4 L317.4 -8.056 L318 -6.659 L318.4 -5.22 L318.8 -3.746 L319.1 -2.249 L319.2 -0.7356 L319.2 0.7829 L319.1 2.297 L318.9 3.798 L318.5 5.275 L318 6.72 L317.5 8.124 L316.8 9.477 L316 10.77 L315.1 12 L314.1 13.15 L313 14.22 L311.9 15.2 L310.6 16.08 L309.3 16.87 L308 17.55 L306.6 18.11 L305.1 18.57 L303.6 18.91 L302.1 19.13 L300.6 19.23 L299.1 19.2 L297.6 19.06 L296.1 18.8 L294.6 18.42 L293.2 17.93 L291.8 17.32 L290.4 16.6 L289.2 15.78 L288 14.86 L286.8 13.85 L285.8 12.75 L284.8 11.57 L284 10.32 L283.2 9.006 L282.6 7.634 L282 6.215 L281.6 4.757 L281.3 3.27 L281.1 1.764 L281 0.2469 L281.1 -1.271 L281.2 -2.779 L281.5 -4.27 L281.9 -5.732 L282.5 -7.157 L283.1 -8.537 L283.8 -9.861 L284.7 -11.12 L285.6 -12.31 L286.7 -13.42 L287.8 -14.45 L289 -15.38 L290.3 -16.22 L291.6 -16.95 L293 -17.57 L294.4 -18.09 L295.9 -18.48 L297.4 -18.76 L298.9 -18.92 L300.4 -18.96 L301.9 -18.88 L303.4 -18.68 L304.9 -18.36 L306.3 -17.92 L307.8 -17.37 L309.1 -16.7 L310.4 -15.93 L311.7 -15.06 L312.8 -14.1 L313.9 -13.04 L314.9 -11.9 L315.9 -10.68 Z " />
<path stroke="rgb(0,0,0)" stroke-opacity="1" fill="rgb(255,255,255)" fill-opacity="1" d="M-417.3 -19.63 L-416.3 -19.53 L-415.3 -19.43 L-414.3 -19.34 L-413.3 -19.24 L-412.3 -19.15 L-411.3 -19.05 L-410.3 -18.95 L-409.3 -18.86 L-408.3 -18.76 L-407.3 -18.67 L-406.3 -18.57 L-405.4 -18.47 L-404.4 -18.38 L-403.4 -18.28 L-402.4 -18.19 L-401.4 -18.09 L-400.4 -18 L-399.4 -17.9 L-398.4 -17.8 L-397.4 -17.71 L-396.4 -17.61 L-395.4 -17.52 L-394.5 -17.42 L-393.5 -17.32 L-392.5 -17.23 L-392.6 -16.24 L-392.7 -15.25 L-392.8 -14.25 L-392.9 -13.26 L-393 -12.27 L-393 -11.28 L-393.1 -10.29 L-393.2 -9.298 L-393.3 -8.307 L-393.4 -7.316 L-393.5 -6.325 L-393.6 -5.334 L-393.7 -4.343 L-393.8 -3.351 L-393.9 -2.36 L-394 -1.369 L-394.1 -0.378 L-394.2 0.6131 L-394.3 1.604 L-394.4 2.595 L-394.5 3.587 L-394.6 4.578 L-394.7 5.569 L-394.8 6.56 L-394.9 7.551 L-395.9 7.455 L-396.9 7.359 L-397.8 7.263 L-398.8 7.167 L-399.8 7.071 L-400.8 6.975 L-401.8 6.879 L-402.8 6.783 L-403.8 6.687 L-404.8 6.591 L-405.8 6.496 L-406.8 6.4 L-407.8 6.304 L-408.7 6.208 L-409.7 6.112 L-410.7 6.016 L-411.7 5.92 L-412.7 5.824 L-413.7 5.728 L-414.7 5.632 L-415.7 5.536 L-416.7 5.44 L-417.7 5.344 L-418.7 5.248 L-419.7 5.152 L-419.6 4.161 L-419.5 3.17 L-419.4 2.179 L-419.3 1.188 L-419.2 0.1965 L-419.1 -0.7947 L-419 -1.786 L-418.9 -2.777 L-418.8 -3.768 L-418.7 -4.759 L-418.6 -5.75 L-418.5 -6.741 L-418.4 -7.733 L-418.3 -8.724 L-418.2 -9.715 L-418.1 -10.71 L-418 -11.7 L-417.9 -12.69 L-417.8 -13.68 L-417.7 -14.67 L-417.6 -15.66 L-417.5 -16.65 L-417.4 -17.64 L-417.3 -18.64 L-417.3 -19.63 Z " />
<path stroke="rgb(0,0,0)" stroke-opacity="1" fill="rgb(255,255,255)" fill-opacity="1" d="M-199.6 87.69 L-198.7 87.73 L-197.7 87.86 L-196.7 88.05 L-195.7 88.33 L-194.8 88.68 L-193.9 89.1 L-193.1 89.6 L-192.2 90.16 L-191.5 90.78 L-190.8 91.46 L-190.1 92.2 L-189.5 92.99 L-189 93.82 L-188.5 94.69 L-188.1 95.6 L-187.8 96.54 L-187.5 97.5 L-187.3 98.47 L-187.2 99.46 L-187.2 100.5 L-187.3 101.4 L-187.4 102.4 L-187.6 103.4 L-187.9 104.3 L-188.3 105.3 L-188.8 106.1 L-189.3 107 L-189.8 107.8 L-190.5 108.6 L-191.2 109.3 L-191.9 109.9 L-192.7 110.5 L-193.6 111 L-194.4 111.5 L-195.4 111.8 L-196.3 112.2 L-197.3 112.4 L-198.3 112.5 L-199.2 112.6 L-200.2 112.6 L-201.2 112.5 L-202.2 112.4 L-203.2 112.1 L-204.1 111.8 L-205 111.4 L-205.9 111 L-206.7 110.4 L-207.5 109.9 L-208.3 109.2 L-209 108.5 L-209.6 107.7 L-210.2 106.9 L-210.7 106.1 L-211.1 105.2 L-211.5 104.2 L-211.8 103.3 L-212 102.3 L-212.1 101.3 L-212.2 100.4 L-212.1 99.37 L-212 98.38 L-211.8 97.41 L-211.6 96.45 L-211.3 95.51 L-210.9 94.61 L-210.4 93.74 L-209.8 92.91 L-209.2 92.13 L-208.6 91.4 L-207.8 90.72 L-207.1 90.1 L-206.2 89.55 L-205.4 89.06 L-204.5 88.65 L-203.5 88.3 L-202.6 88.03 L-201.6 87.84 L-200.6 87.73 L-199.6 87.69 Z " />
<path stroke="rgb(0,0,0)" stroke-opacity="1" fill="rgb(255,255,255)" fill-opacity="1" d="M-213.4 -13.93 L-212.4 -13.91 L-211.4 -13.89 L-210.4 -13.87 L-209.4 -13.85 L-208.4 -13.83 L-207.4 -13.81 L-206.4 -13.78 L-205.5 -13.76 L-204.5 -13.74 L-203.5 -13.72 L-202.5 -13.7 L-201.5 -13.68 L-200.5 -13.66 L-199.5 -13.64 L-198.5 -13.62 L-197.5 -13.6 L-196.5 -13.58 L-195.5 -13.56 L-194.5 -13.54 L-193.5 -13.52 L-192.5 -13.49 L-191.5 -13.47 L-190.5 -13.45 L-189.5 -13.43 L-188.5 -13.41 L-188.5 -12.42 L-188.6 -11.42 L-188.6 -10.43 L-188.6 -9.429 L-188.6 -8.434 L-188.7 -7.438 L-188.7 -6.443 L-188.7 -5.447 L-188.7 -4.451 L-188.7 -3.456 L-188.8 -2.46 L-188.8 -1.465 L-188.8 -0.4689 L-188.8 0.5267 L-188.8 1.522 L-188.9 2.518 L-188.9 3.514 L-188.9 4.509 L-188.9 5.505 L-188.9 6.5 L-189 7.496 L-189 8.492 L-189 9.487 L-189 10.48 L-189 11.48 L-190 11.46 L-191 11.44 L-192 11.42 L-193 11.4 L-194 11.37 L-195 11.35 L-196 11.33 L-197 11.31 L-198 11.29 L-199 11.27 L-200 11.25 L-201 11.23 L-202 11.21 L-203 11.19 L-204 11.17 L-205 11.15 L-206 11.13 L-207 11.11 L-208 11.09 L-209 11.06 L-210 11.04 L-210.9 11.02 L-211.9 11 L-212.9 10.98 L-213.9 10.96 L-213.9 9.965 L-213.9 8.97 L-213.9 7.974 L-213.9 6.979 L-213.8 5.983 L-213.8 4.987 L-213.8 3.992 L-213.8 2.996 L-213.7 2 L-213.7 1.005 L-213.7 0.009235 L-213.7 -0.9864 L-213.7 -1.982 L-213.6 -2.978 L-213.6 -3.973 L-213.6 -4.969 L-213.6 -5.964 L-213.6 -6.96 L-213.5 -7.956 L-213.5 -8.951 L-213.5 -9.947 L-213.5 -10.94 L-213.5 -11.94 L-213.4 -12.93 L-213.4 -13.93 Z " />
<path stroke="rgb(0,0,0)" stroke-opacity="1" fill="rgb(255,255,255)" fill-opacity="1" d="M2.401 86.98 L3.442 87.19 L4.462 87.48 L5.457 87.86 L6.418 88.3 L7.341 88.83 L8.219 89.43 L9.048 90.09 L9.82 90.82 L10.53 91.61 L11.18 92.45 L11.76 93.34 L12.27 94.27 L12.7 95.24 L13.05 96.24 L13.32 97.27 L13.51 98.31 L13.61 99.37 L13.63 100.4 L13.57 101.5 L13.42 102.5 L13.19 103.6 L12.88 104.6 L12.49 105.6 L12.02 106.5 L11.48 107.4 L10.86 108.3 L10.18 109.1 L9.441 109.9 L8.64 110.6 L7.786 111.2 L6.885 111.8 L5.942 112.3 L4.963 112.7 L3.955 113 L2.923 113.3 L1.875 113.4 L0.8169 113.5 L-0.2447 113.5 L-1.303 113.4 L-2.351 113.3 L-3.383 113 L-4.391 112.7 L-5.37 112.3 L-6.313 111.8 L-7.214 111.2 L-8.068 110.6 L-8.869 109.9 L-9.612 109.1 L-10.29 108.3 L-10.91 107.4 L-11.45 106.5 L-11.92 105.6 L-12.31 104.6 L-12.62 103.6 L-12.85 102.5 L-13 101.5 L-13.06 100.4 L-13.04 99.37 L-12.94 98.31 L-12.75 97.27 L-12.48 96.24 L-12.12 95.24 L-11.69 94.27 L-11.19 93.34 L-10.61 92.45 L-9.961 91.61 L-9.248 90.82 L-8.475 90.09 L-7.647 89.43 L-6.769 88.83 L-5.846 88.31 L-4.885 87.86 L-3.89 87.48 L-2.869 87.19 L-1.829 86.98 L-0.7747 86.86 L0.286 86.81 L1.347 86.86 L2.401 86.98 Z " />
<path stroke="rgb(0,0,0)" stroke-opacity="1" fill="rgb(255,255,255)" fill-opacity="1" d="M-12.54 -12.63 L-11.55 -12.63 L-10.55 -12.63 L-9.554 -12.62 L-8.559 -12.62 L-7.563 -12.61 L-6.567 -12.61 L-5.571 -12.61 L-4.575 -12.6 L-3.579 -12.6 L-2.584 -12.6 L-1.588 -12.59 L-0.5919 -12.59 L0.404 -12.59 L1.4 -12.58 L2.396 -12.58 L3.391 -12.57 L4.387 -12.57 L5.383 -12.57 L6.379 -12.56 L7.375 -12.56 L8.371 -12.56 L9.367 -12.55 L10.36 -12.55 L11.36 -12.54 L12.35 -12.54 L12.35 -11.55 L12.35 -10.55 L12.34 -9.554 L12.34 -8.558 L12.34 -7.562 L12.33 -6.566 L12.33 -5.57 L12.32 -4.574 L12.32 -3.578 L12.32 -2.583 L12.31 -1.587 L12.31 -0.591 L12.31 0.4049 L12.3 1.401 L12.3 2.397 L12.3 3.392 L12.29 4.388 L12.29 5.384 L12.28 6.38 L12.28 7.376 L12.28 8.372 L12.27 9.367 L12.27 10.36 L12.27 11.36 L12.26 12.35 L11.27 12.35 L10.27 12.35 L9.275 12.34 L8.279 12.34 L7.283 12.34 L6.287 12.33 L5.291 12.33 L4.296 12.33 L3.3 12.32 L2.304 12.32 L1.308 12.31 L0.3122 12.31 L-0.6837 12.31 L-1.68 12.3 L-2.675 12.3 L-3.671 12.3 L-4.667 12.29 L-5.663 12.29 L-6.659 12.29 L-7.655 12.28 L-8.65 12.28 L-9.646 12.27 L-10.64 12.27 L-11.64 12.27 L-12.63 12.26 L-12.63 11.27 L-12.63 10.27 L-12.62 9.276 L-12.62 8.28 L-12.62 7.284 L-12.61 6.288 L-12.61 5.292 L-12.6 4.296 L-12.6 3.301 L-12.6 2.305 L-12.59 1.309 L-12.59 0.3131 L-12.59 -0.6828 L-12.58 -1.679 L-12.58 -2.674 L-12.57 -3.67 L-12.57 -4.666 L-12.57 -5.662 L-12.56 -6.658 L-12.56 -7.654 L-12.56 -8.649 L-12.55 -9.645 L-12.55 -10.64 L-12.55 -11.64 L-12.54 -12.63 Z " />
<path stroke="rgb(0,0,0)" stroke-opacity="1" fill="rgb(255,255,255)" fill-opacity="1" d="M215.9 89.32 L216.7 90.6 L217.4 91.94 L218 93.34 L218.4 94.78 L218.8 96.25 L219.1 97.75 L219.2 99.26 L219.2 100.8 L219.1 102.3 L218.9 103.8 L218.5 105.3 L218 106.7 L217.5 108.1 L216.8 109.5 L216 110.8 L215.1 112 L214.1 113.1 L213 114.2 L211.9 115.2 L210.6 116.1 L209.3 116.9 L208 117.5 L206.6 118.1 L205.1 118.6 L203.6 118.9 L202.1 119.1 L200.6 119.2 L199.1 119.2 L197.6 119.1 L196.1 118.8 L194.6 118.4 L193.2 117.9 L191.8 117.3 L190.4 116.6 L189.2 115.8 L188 114.9 L186.8 113.9 L185.8 112.8 L184.8 111.6 L184 110.3 L183.2 109 L182.6 107.6 L182 106.2 L181.6 104.8 L181.3 103.3 L181.1 101.8 L181 100.2 L181.1 98.73 L181.2 97.22 L181.5 95.73 L181.9 94.27 L182.5 92.84 L183.1 91.46 L183.8 90.14 L184.7 88.88 L185.6 87.69 L186.7 86.58 L187.8 85.55 L189 84.62 L190.3 83.78 L191.6 83.05 L193 82.43 L194.4 81.91 L195.9 81.52 L197.4 81.24 L198.9 81.08 L200.4 81.04 L201.9 81.12 L203.4 81.32 L204.9 81.64 L206.3 82.08 L207.8 82.63 L209.1 83.3 L210.4 84.07 L211.7 84.94 L212.8 85.9 L213.9 86.96 L214.9 88.1 L215.9 89.32 Z " />
<path stroke="rgb(0,0,0)" stroke-opacity="1" fill="rgb(255,255,255)" fill-opacity="1" d="M187.5 -12.61 L188.5 -12.61 L189.5 -12.61 L190.5 -12.6 L191.5 -12.6 L192.5 -12.6 L193.4 -12.59 L194.4 -12.59 L195.4 -12.58 L196.4 -12.58 L197.4 -12.58 L198.4 -12.57 L199.4 -12.57 L200.4 -12.57 L201.4 -12.56 L202.4 -12.56 L203.4 -12.56 L204.4 -12.55 L205.4 -12.55 L206.4 -12.55 L207.4 -12.54 L208.4 -12.54 L209.4 -12.54 L210.4 -12.53 L211.4 -12.53 L212.4 -12.53 L212.4 -11.53 L212.4 -10.54 L212.4 -9.54 L212.4 -8.544 L212.4 -7.548 L212.3 -6.552 L212.3 -5.556 L212.3 -4.56 L212.3 -3.565 L212.3 -2.569 L212.3 -1.573 L212.3 -0.5771 L212.3 0.4187 L212.3 1.415 L212.3 2.41 L212.3 3.406 L212.3 4.402 L212.3 5.398 L212.3 6.394 L212.3 7.39 L212.3 8.385 L212.3 9.381 L212.3 10.38 L212.3 11.37 L212.3 12.37 L211.3 12.37 L210.3 12.36 L209.3 12.36 L208.3 12.36 L207.3 12.35 L206.3 12.35 L205.3 12.34 L204.3 12.34 L203.3 12.34 L202.3 12.33 L201.3 12.33 L200.3 12.33 L199.3 12.32 L198.3 12.32 L197.3 12.32 L196.3 12.31 L195.4 12.31 L194.4 12.31 L193.4 12.3 L192.4 12.3 L191.4 12.3 L190.4 12.29 L189.4 12.29 L188.4 12.29 L187.4 12.28 L187.4 11.29 L187.4 10.29 L187.4 9.296 L187.4 8.3 L187.4 7.305 L187.4 6.309 L187.4 5.313 L187.4 4.317 L187.4 3.321 L187.4 2.325 L187.4 1.33 L187.4 0.3337 L187.4 -0.6621 L187.4 -1.658 L187.4 -2.654 L187.4 -3.65 L187.4 -4.645 L187.4 -5.641 L187.5 -6.637 L187.5 -7.633 L187.5 -8.629 L187.5 -9.625 L187.5 -10.62 L187.5 -11.62 L187.5 -12.61 Z " />
<path stroke="rgb(0,0,0)" stroke-opacity="1" fill="rgb(255,255,255)" fill-opacity="1" d="M-299.6 187.7 L-298.7 187.7 L-297.7 187.9 L-296.7 188.1 L-295.7 188.3 L-294.8 188.7 L-293.9 189.1 L-293.1 189.6 L-292.2 190.2 L-291.5 190.8 L-290.8 191.5 L-290.1 192.2 L-289.5 193 L-289 193.8 L-288.5 194.7 L-288.1 195.6 L-287.8 196.5 L-287.5 197.5 L-287.3 198.5 L-287.2 199.5 L-287.2 200.5 L-287.3 201.4 L-287.4 202.4 L-287.6 203.4 L-287.9 204.3 L-288.3 205.3 L-288.8 206.1 L-289.3 207 L-289.8 207.8 L-290.5 208.6 L-291.2 209.3 L-291.9 209.9 L-292.7 210.5 L-293.6 211 L-294.4 211.5 L-295.4 211.8 L-296.3 212.2 L-297.3 212.4 L-298.3 212.5 L-299.2 212.6 L-300.2 212.6 L-301.2 212.5 L-302.2 212.4 L-303.2 212.1 L-304.1 211.8 L-305 211.4 L-305.9 211 L-306.7 210.4 L-307.5 209.9 L-308.3 209.2 L-309 208.5 L-309.6 207.7 L-310.2 206.9 L-310.7 206.1 L-311.1 205.2 L-311.5 204.2 L-311.8 203.3 L-312 202.3 L-312.1 201.3 L-312.2 200.4 L-312.1 199.4 L-312 198.4 L-311.8 197.4 L-311.6 196.4 L-311.3 195.5 L-310.9 194.6 L-310.4 193.7 L-309.8 192.9 L-309.2 192.1 L-308.6 191.4 L-307.8 190.7 L-307.1 190.1 L-306.2 189.5 L-305.4 189.1 L-304.5 188.6 L-303.5 188.3 L-302.6 188 L-301.6 187.8 L-300.6 187.7 L-299.6 187.7 Z " />
<path stroke="rgb(0,0,0)" stroke-opacity="1" fill="rgb(255,255,255)" fill-opacity="1" d="M-313.4 86.07 L-312.4 86.09 L-311.4 86.11 L-310.4 86.13 L-309.4 86.15 L-308.4 86.17 L-307.4 86.19 L-306.4 86.22 L-305.5 86.24 L-304.5 86.26 L-303.5 86.28 L-302.5 86.3 L-301.5 86.32 L-300.5 86.34 L-299.5 86.36 L-298.5 86.38 L-297.5 86.4 L-296.5 86.42 L-295.5 86.44 L-294.5 86.46 L-293.5 86.48 L-292.5 86.51 L-291.5 86.53 L-290.5 86.55 L-289.5 86.57 L-288.5 86.59 L-288.5 87.58 L-288.6 88.58 L-288.6 89.57 L-288.6 90.57 L-288.6 91.57 L-288.7 92.56 L-288.7 93.56 L-288.7 94.55 L-288.7 95.55 L-288.7 96.54 L-288.8 97.54 L-288.8 98.54 L-288.8 99.53 L-288.8 100.5 L-288.8 101.5 L-288.9 102.5 L-288.9 103.5 L-288.9 104.5 L-288.9 105.5 L-288.9 106.5 L-289 107.5 L-289 108.5 L-289 109.5 L-289 110.5 L-289 111.5 L-290 111.5 L-291 111.4 L-292 111.4 L-293 111.4 L-294 111.4 L-295 111.4 L-296 111.3 L-297 111.3 L-298 111.3 L-299 111.3 L-300 111.3 L-301 111.2 L-302 111.2 L-303 111.2 L-304 111.2 L-305 111.1 L-306 111.1 L-307 111.1 L-308 111.1 L-309 111.1 L-310 111 L-310.9 111 L-311.9 111 L-312.9 111 L-313.9 111 L-313.9 110 L-313.9 109 L-313.9 108 L-313.9 107 L-313.8 106 L-313.8 105 L-313.8 104 L-313.8 103 L-313.7 102 L-313.7 101 L-313.7 100 L-313.7 99.01 L-313.7 98.02 L-313.6 97.02 L-313.6 96.03 L-313.6 95.03 L-313.6 94.04 L-313.6 93.04 L-313.5 92.04 L-313.5 91.05 L-313.5 90.05 L-313.5 89.06 L-313.5 88.06 L-313.4 87.07 L-313.4 86.07 Z " />
<path stroke="rgb(0,0,0)" stroke-opacity="1" fill="rgb(255,255,255)" fill-opacity="1" d="M-97.6 187 L-96.56 187.2 L-95.54 187.5 L-94.54 187.9 L-93.58 188.3 L-92.66 188.8 L-91.78 189.4 L-90.95 190.1 L-90.18 190.8 L-89.47 191.6 L-88.82 192.4 L-88.24 193.3 L-87.73 194.3 L-87.3 195.2 L-86.95 196.2 L-86.68 197.3 L-86.49 198.3 L-86.39 199.4 L-86.37 200.4 L-86.43 201.5 L-86.58 202.5 L-86.81 203.6 L-87.12 204.6 L-87.51 205.6 L-87.98 206.5 L-88.52 207.4 L-89.14 208.3 L-89.82 209.1 L-90.56 209.9 L-91.36 210.6 L-92.21 211.2 L-93.11 211.8 L-94.06 212.3 L-95.04 212.7 L-96.05 213 L-97.08 213.3 L-98.12 213.4 L-99.18 213.5 L-100.2 213.5 L-101.3 213.4 L-102.4 213.3 L-103.4 213 L-104.4 212.7 L-105.4 212.3 L-106.3 211.8 L-107.2 211.2 L-108.1 210.6 L-108.9 209.9 L-109.6 209.1 L-110.3 208.3 L-110.9 207.4 L-111.4 206.5 L-111.9 205.6 L-112.3 204.6 L-112.6 203.6 L-112.9 202.5 L-113 201.5 L-113.1 200.4 L-113 199.4 L-112.9 198.3 L-112.7 197.3 L-112.5 196.2 L-112.1 195.2 L-111.7 194.3 L-111.2 193.3 L-110.6 192.4 L-110 191.6 L-109.2 190.8 L-108.5 190.1 L-107.6 189.4 L-106.8 188.8 L-105.8 188.3 L-104.9 187.9 L-103.9 187.5 L-102.9 187.2 L-101.8 187 L-100.8 186.9 L-99.71 186.8 L-98.65 186.9 L-97.6 187 Z " />
<path stroke="rgb(0,0,0)" stroke-opacity="1" fill="rgb(255,255,255)" fill-opacity="1" d="M-112.5 87.37 L-111.5 87.37 L-110.6 87.37 L-109.6 87.38 L-108.6 87.38 L-107.6 87.39 L-106.6 87.39 L-105.6 87.39 L-104.6 87.4 L-103.6 87.4 L-102.6 87.4 L-101.6 87.41 L-100.6 87.41 L-99.6 87.41 L-98.6 87.42 L-97.6 87.42 L-96.61 87.43 L-95.61 87.43 L-94.62 87.43 L-93.62 87.44 L-92.63 87.44 L-91.63 87.44 L-90.63 87.45 L-89.64 87.45 L-88.64 87.46 L-87.65 87.46 L-87.65 88.45 L-87.65 89.45 L-87.66 90.45 L-87.66 91.44 L-87.66 92.44 L-87.67 93.43 L-87.67 94.43 L-87.68 95.43 L-87.68 96.42 L-87.68 97.42 L-87.69 98.41 L-87.69 99.41 L-87.69 100.4 L-87.7 101.4 L-87.7 102.4 L-87.7 103.4 L-87.71 104.4 L-87.71 105.4 L-87.72 106.4 L-87.72 107.4 L-87.72 108.4 L-87.73 109.4 L-87.73 110.4 L-87.73 111.4 L-87.74 112.4 L-88.73 112.4 L-89.73 112.3 L-90.73 112.3 L-91.72 112.3 L-92.72 112.3 L-93.71 112.3 L-94.71 112.3 L-95.7 112.3 L-96.7 112.3 L-97.7 112.3 L-98.69 112.3 L-99.69 112.3 L-100.7 112.3 L-101.7 112.3 L-102.7 112.3 L-103.7 112.3 L-104.7 112.3 L-105.7 112.3 L-106.7 112.3 L-107.7 112.3 L-108.7 112.3 L-109.6 112.3 L-110.6 112.3 L-111.6 112.3 L-112.6 112.3 L-112.6 111.3 L-112.6 110.3 L-112.6 109.3 L-112.6 108.3 L-112.6 107.3 L-112.6 106.3 L-112.6 105.3 L-112.6 104.3 L-112.6 103.3 L-112.6 102.3 L-112.6 101.3 L-112.6 100.3 L-112.6 99.32 L-112.6 98.32 L-112.6 97.33 L-112.6 96.33 L-112.6 95.33 L-112.6 94.34 L-112.6 93.34 L-112.6 92.35 L-112.6 91.35 L-112.6 90.35 L-112.5 89.36 L-112.5 88.36 L-112.5 87.37 Z " />
<path stroke="rgb(0,0,0)" stroke-opacity="1" fill="rgb(255,255,255)" fill-opacity="1" d="M115.9 189.3 L116.7 190.6 L117.4 191.9 L118 193.3 L118.4 194.8 L118.8 196.3 L119.1 197.8 L119.2 199.3 L119.2 200.8 L119.1 202.3 L118.9 203.8 L118.5 205.3 L118 206.7 L117.5 208.1 L116.8 209.5 L116 210.8 L115.1 212 L114.1 213.1 L113 214.2 L111.9 215.2 L110.6 216.1 L109.3 216.9 L108 217.5 L106.6 218.1 L105.1 218.6 L103.6 218.9 L102.1 219.1 L100.6 219.2 L99.09 219.2 L97.58 219.1 L96.08 218.8 L94.61 218.4 L93.18 217.9 L91.78 217.3 L90.44 216.6 L89.17 215.8 L87.96 214.9 L86.83 213.9 L85.78 212.8 L84.82 211.6 L83.96 210.3 L83.2 209 L82.55 207.6 L82.01 206.2 L81.59 204.8 L81.28 203.3 L81.09 201.8 L81.02 200.2 L81.07 198.7 L81.24 197.2 L81.53 195.7 L81.94 194.3 L82.47 192.8 L83.1 191.5 L83.84 190.1 L84.69 188.9 L85.63 187.7 L86.67 186.6 L87.79 185.6 L88.98 184.6 L90.25 183.8 L91.58 183.1 L92.97 182.4 L94.4 181.9 L95.86 181.5 L97.36 181.2 L98.87 181.1 L100.4 181 L101.9 181.1 L103.4 181.3 L104.9 181.6 L106.3 182.1 L107.8 182.6 L109.1 183.3 L110.4 184.1 L111.7 184.9 L112.8 185.9 L113.9 187 L114.9 188.1 L115.9 189.3 Z " />
<path stroke="rgb(0,0,0)" stroke-opacity="1" fill="rgb(255,255,255)" fill-opacity="1" d="M87.47 87.39 L88.47 87.39 L89.46 87.39 L90.46 87.4 L91.46 87.4 L92.45 87.4 L93.45 87.41 L94.44 87.41 L95.44 87.42 L96.43 87.42 L97.43 87.42 L98.43 87.43 L99.42 87.43 L100.4 87.43 L101.4 87.44 L102.4 87.44 L103.4 87.44 L104.4 87.45 L105.4 87.45 L106.4 87.45 L107.4 87.46 L108.4 87.46 L109.4 87.46 L110.4 87.47 L111.4 87.47 L112.4 87.47 L112.4 88.47 L112.4 89.46 L112.4 90.46 L112.4 91.46 L112.4 92.45 L112.3 93.45 L112.3 94.44 L112.3 95.44 L112.3 96.44 L112.3 97.43 L112.3 98.43 L112.3 99.42 L112.3 100.4 L112.3 101.4 L112.3 102.4 L112.3 103.4 L112.3 104.4 L112.3 105.4 L112.3 106.4 L112.3 107.4 L112.3 108.4 L112.3 109.4 L112.3 110.4 L112.3 111.4 L112.3 112.4 L111.3 112.4 L110.3 112.4 L109.3 112.4 L108.3 112.4 L107.3 112.4 L106.3 112.3 L105.3 112.3 L104.3 112.3 L103.3 112.3 L102.3 112.3 L101.3 112.3 L100.3 112.3 L99.34 112.3 L98.34 112.3 L97.35 112.3 L96.35 112.3 L95.35 112.3 L94.36 112.3 L93.36 112.3 L92.37 112.3 L91.37 112.3 L90.37 112.3 L89.38 112.3 L88.38 112.3 L87.39 112.3 L87.39 111.3 L87.39 110.3 L87.4 109.3 L87.4 108.3 L87.4 107.3 L87.41 106.3 L87.41 105.3 L87.41 104.3 L87.42 103.3 L87.42 102.3 L87.42 101.3 L87.43 100.3 L87.43 99.34 L87.43 98.34 L87.44 97.35 L87.44 96.35 L87.44 95.35 L87.45 94.36 L87.45 93.36 L87.45 92.37 L87.46 91.37 L87.46 90.38 L87.47 89.38 L87.47 88.38 L87.47 87.39 Z " />
<path stroke="rgb(0,0,0)" stroke-opacity="1" fill="rgb(255,255,255)" fill-opacity="1" d="M324.3 198.7 L324.3 200.6 L324.2 202.6 L323.9 204.5 L323.5 206.4 L322.9 208.2 L322.2 210 L321.3 211.7 L320.3 213.4 L319.2 215 L318 216.4 L316.6 217.8 L315.1 219.1 L313.6 220.2 L311.9 221.2 L310.2 222.1 L308.4 222.8 L306.6 223.4 L304.7 223.9 L302.8 224.2 L300.9 224.3 L298.9 224.3 L297 224.2 L295.1 223.8 L293.2 223.4 L291.4 222.8 L289.6 222 L287.9 221.1 L286.2 220.1 L284.7 218.9 L283.2 217.6 L281.9 216.3 L280.7 214.8 L279.5 213.2 L278.6 211.5 L277.7 209.8 L277 208 L276.5 206.1 L276 204.2 L275.8 202.3 L275.7 200.4 L275.7 198.4 L275.9 196.5 L276.3 194.6 L276.8 192.7 L277.4 190.9 L278.2 189.2 L279.2 187.5 L280.2 185.9 L281.4 184.3 L282.7 182.9 L284.1 181.6 L285.7 180.4 L287.3 179.3 L288.9 178.3 L290.7 177.5 L292.5 176.9 L294.4 176.3 L296.3 176 L298.2 175.8 L300.1 175.7 L302.1 175.8 L304 176 L305.9 176.4 L307.7 176.9 L309.5 177.6 L311.3 178.5 L313 179.4 L314.6 180.5 L316.1 181.7 L317.5 183.1 L318.8 184.5 L319.9 186.1 L321 187.7 L321.9 189.4 L322.7 191.2 L323.3 193 L323.8 194.9 L324.1 196.8 L324.3 198.7 Z " />
<path stroke="rgb(0,0,0)" stroke-opacity="1" fill="rgb(255,255,255)" fill-opacity="1" d="M-413.4 186.1 L-412.4 186.1 L-411.4 186.1 L-410.4 186.1 L-409.4 186.2 L-408.4 186.2 L-407.4 186.2 L-406.4 186.2 L-405.5 186.2 L-404.5 186.3 L-403.5 186.3 L-402.5 186.3 L-401.5 186.3 L-400.5 186.3 L-399.5 186.4 L-398.5 186.4 L-397.5 186.4 L-396.5 186.4 L-395.5 186.4 L-394.5 186.5 L-393.5 186.5 L-392.5 186.5 L-391.5 186.5 L-390.5 186.5 L-389.5 186.6 L-388.5 186.6 L-388.5 187.6 L-388.6 188.6 L-388.6 189.6 L-388.6 190.6 L-388.6 191.6 L-388.7 192.6 L-388.7 193.6 L-388.7 194.6 L-388.7 195.5 L-388.7 196.5 L-388.8 197.5 L-388.8 198.5 L-388.8 199.5 L-388.8 200.5 L-388.8 201.5 L-388.9 202.5 L-388.9 203.5 L-388.9 204.5 L-388.9 205.5 L-388.9 206.5 L-389 207.5 L-389 208.5 L-389 209.5 L-389 210.5 L-389 211.5 L-390 211.5 L-391 211.4 L-392 211.4 L-393 211.4 L-394 211.4 L-395 211.4 L-396 211.3 L-397 211.3 L-398 211.3 L-399 211.3 L-400 211.3 L-401 211.2 L-402 211.2 L-403 211.2 L-404 211.2 L-405 211.1 L-406 211.1 L-407 211.1 L-408 211.1 L-409 211.1 L-410 211 L-410.9 211 L-411.9 211 L-412.9 211 L-413.9 211 L-413.9 210 L-413.9 209 L-413.9 208 L-413.9 207 L-413.8 206 L-413.8 205 L-413.8 204 L-413.8 203 L-413.7 202 L-413.7 201 L-413.7 200 L-413.7 199 L-413.7 198 L-413.6 197 L-413.6 196 L-413.6 195 L-413.6 194 L-413.6 193 L-413.5 192 L-413.5 191 L-413.5 190.1 L-413.5 189.1 L-413.5 188.1 L-413.4 187.1 L-413.4 186.1 Z " />
<path stroke="rgb(0,0,0)" stroke-opacity="1" fill="rgb(255,255,255)" fill-opacity="1" d="M-197.6 287 L-196.6 287.2 L-195.5 287.5 L-194.5 287.9 L-193.6 288.3 L-192.7 288.8 L-191.8 289.4 L-191 290.1 L-190.2 290.8 L-189.5 291.6 L-188.8 292.4 L-188.2 293.3 L-187.7 294.3 L-187.3 295.2 L-187 296.2 L-186.7 297.3 L-186.5 298.3 L-186.4 299.4 L-186.4 300.4 L-186.4 301.5 L-186.6 302.5 L-186.8 303.6 L-187.1 304.6 L-187.5 305.6 L-188 306.5 L-188.5 307.4 L-189.1 308.3 L-189.8 309.1 L-190.6 309.9 L-191.4 310.6 L-192.2 311.2 L-193.1 311.8 L-194.1 312.3 L-195 312.7 L-196 313 L-197.1 313.3 L-198.1 313.4 L-199.2 313.5 L-200.2 313.5 L-201.3 313.4 L-202.4 313.3 L-203.4 313 L-204.4 312.7 L-205.4 312.3 L-206.3 311.8 L-207.2 311.2 L-208.1 310.6 L-208.9 309.9 L-209.6 309.1 L-210.3 308.3 L-210.9 307.4 L-211.4 306.5 L-211.9 305.6 L-212.3 304.6 L-212.6 303.6 L-212.9 302.5 L-213 301.5 L-213.1 300.4 L-213 299.4 L-212.9 298.3 L-212.7 297.3 L-212.5 296.2 L-212.1 295.2 L-211.7 294.3 L-211.2 293.3 L-210.6 292.4 L-210 291.6 L-209.2 290.8 L-208.5 290.1 L-207.6 289.4 L-206.8 288.8 L-205.8 288.3 L-204.9 287.9 L-203.9 287.5 L-202.9 287.2 L-201.8 287 L-200.8 286.9 L-199.7 286.8 L-198.7 286.9 L-197.6 287 Z " />
<path stroke="rgb(0,0,0)" stroke-opacity="1" fill="rgb(255,255,255)" fill-opacity="1" d="M-212.5 187.4 L-211.5 187.4 L-210.6 187.4 L-209.6 187.4 L-208.6 187.4 L-207.6 187.4 L-206.6 187.4 L-205.6 187.4 L-204.6 187.4 L-203.6 187.4 L-202.6 187.4 L-201.6 187.4 L-200.6 187.4 L-199.6 187.4 L-198.6 187.4 L-197.6 187.4 L-196.6 187.4 L-195.6 187.4 L-194.6 187.4 L-193.6 187.4 L-192.6 187.4 L-191.6 187.4 L-190.6 187.4 L-189.6 187.5 L-188.6 187.5 L-187.6 187.5 L-187.6 188.5 L-187.7 189.5 L-187.7 190.4 L-187.7 191.4 L-187.7 192.4 L-187.7 193.4 L-187.7 194.4 L-187.7 195.4 L-187.7 196.4 L-187.7 197.4 L-187.7 198.4 L-187.7 199.4 L-187.7 200.4 L-187.7 201.4 L-187.7 202.4 L-187.7 203.4 L-187.7 204.4 L-187.7 205.4 L-187.7 206.4 L-187.7 207.4 L-187.7 208.4 L-187.7 209.4 L-187.7 210.4 L-187.7 211.4 L-187.7 212.4 L-188.7 212.4 L-189.7 212.3 L-190.7 212.3 L-191.7 212.3 L-192.7 212.3 L-193.7 212.3 L-194.7 212.3 L-195.7 212.3 L-196.7 212.3 L-197.7 212.3 L-198.7 212.3 L-199.7 212.3 L-200.7 212.3 L-201.7 212.3 L-202.7 212.3 L-203.7 212.3 L-204.7 212.3 L-205.7 212.3 L-206.7 212.3 L-207.7 212.3 L-208.7 212.3 L-209.6 212.3 L-210.6 212.3 L-211.6 212.3 L-212.6 212.3 L-212.6 211.3 L-212.6 210.3 L-212.6 209.3 L-212.6 208.3 L-212.6 207.3 L-212.6 206.3 L-212.6 205.3 L-212.6 204.3 L-212.6 203.3 L-212.6 202.3 L-212.6 201.3 L-212.6 200.3 L-212.6 199.3 L-212.6 198.3 L-212.6 197.3 L-212.6 196.3 L-212.6 195.3 L-212.6 194.3 L-212.6 193.3 L-212.6 192.3 L-212.6 191.4 L-212.6 190.4 L-212.5 189.4 L-212.5 188.4 L-212.5 187.4 Z " />
<path stroke="rgb(0,0,0)" stroke-opacity="1" fill="rgb(255,255,255)" fill-opacity="1" d="M15.85 289.3 L16.66 290.6 L17.37 291.9 L17.96 293.3 L18.45 294.8 L18.81 296.3 L19.06 297.8 L19.19 299.3 L19.2 300.8 L19.09 302.3 L18.86 303.8 L18.51 305.3 L18.04 306.7 L17.46 308.1 L16.77 309.5 L15.98 310.8 L15.08 312 L14.09 313.1 L13.01 314.2 L11.85 315.2 L10.62 316.1 L9.321 316.9 L7.962 317.5 L6.554 318.1 L5.105 318.6 L3.625 318.9 L2.122 319.1 L0.6071 319.2 L-0.9112 319.2 L-2.423 319.1 L-3.919 318.8 L-5.389 318.4 L-6.825 317.9 L-8.216 317.3 L-9.555 316.6 L-10.83 315.8 L-12.04 314.9 L-13.17 313.9 L-14.22 312.8 L-15.18 311.6 L-16.04 310.3 L-16.8 309 L-17.45 307.6 L-17.99 306.2 L-18.41 304.8 L-18.72 303.3 L-18.91 301.8 L-18.98 300.2 L-18.93 298.7 L-18.76 297.2 L-18.47 295.7 L-18.06 294.3 L-17.53 292.8 L-16.9 291.5 L-16.16 290.1 L-15.31 288.9 L-14.37 287.7 L-13.33 286.6 L-12.21 285.6 L-11.02 284.6 L-9.747 283.8 L-8.417 283.1 L-7.032 282.4 L-5.603 281.9 L-4.137 281.5 L-2.644 281.2 L-1.134 281.1 L0.3838 281 L1.9 281.1 L3.405 281.3 L4.889 281.6 L6.343 282.1 L7.758 282.6 L9.124 283.3 L10.43 284.1 L11.68 284.9 L12.85 285.9 L13.94 287 L14.94 288.1 L15.85 289.3 Z " />
<path stroke="rgb(0,0,0)" stroke-opacity="1" fill="rgb(255,255,255)" fill-opacity="1" d="M-12.53 187.4 L-11.53 187.4 L-10.54 187.4 L-9.54 187.4 L-8.545 187.4 L-7.549 187.4 L-6.553 187.4 L-5.557 187.4 L-4.561 187.4 L-3.565 187.4 L-2.57 187.4 L-1.574 187.4 L-0.5779 187.4 L0.4179 187.4 L1.414 187.4 L2.41 187.4 L3.405 187.4 L4.401 187.4 L5.397 187.4 L6.393 187.5 L7.389 187.5 L8.385 187.5 L9.38 187.5 L10.38 187.5 L11.37 187.5 L12.37 187.5 L12.36 188.5 L12.36 189.5 L12.36 190.5 L12.35 191.5 L12.35 192.5 L12.35 193.4 L12.34 194.4 L12.34 195.4 L12.34 196.4 L12.33 197.4 L12.33 198.4 L12.33 199.4 L12.32 200.4 L12.32 201.4 L12.32 202.4 L12.31 203.4 L12.31 204.4 L12.31 205.4 L12.3 206.4 L12.3 207.4 L12.3 208.4 L12.29 209.4 L12.29 210.4 L12.29 211.4 L12.28 212.4 L11.29 212.4 L10.29 212.4 L9.295 212.4 L8.3 212.4 L7.304 212.4 L6.308 212.3 L5.312 212.3 L4.316 212.3 L3.32 212.3 L2.325 212.3 L1.329 212.3 L0.3329 212.3 L-0.663 212.3 L-1.659 212.3 L-2.655 212.3 L-3.65 212.3 L-4.646 212.3 L-5.642 212.3 L-6.638 212.3 L-7.634 212.3 L-8.63 212.3 L-9.626 212.3 L-10.62 212.3 L-11.62 212.3 L-12.61 212.3 L-12.61 211.3 L-12.61 210.3 L-12.6 209.3 L-12.6 208.3 L-12.6 207.3 L-12.59 206.3 L-12.59 205.3 L-12.59 204.3 L-12.58 203.3 L-12.58 202.3 L-12.58 201.3 L-12.57 200.3 L-12.57 199.3 L-12.57 198.3 L-12.56 197.3 L-12.56 196.4 L-12.56 195.4 L-12.55 194.4 L-12.55 193.4 L-12.55 192.4 L-12.54 191.4 L-12.54 190.4 L-12.53 189.4 L-12.53 188.4 L-12.53 187.4 Z " />
<path stroke="rgb(0,0,0)" stroke-opacity="1" fill="rgb(255,255,255)" fill-opacity="1" d="M224.3 298.7 L224.3 300.6 L224.2 302.6 L223.9 304.5 L223.5 306.4 L222.9 308.2 L222.2 310 L221.3 311.7 L220.3 313.4 L219.2 315 L218 316.4 L216.6 317.8 L215.1 319.1 L213.6 320.2 L211.9 321.2 L210.2 322.1 L208.4 322.8 L206.6 323.4 L204.7 323.9 L202.8 324.2 L200.9 324.3 L198.9 324.3 L197 324.2 L195.1 323.8 L193.2 323.4 L191.4 322.8 L189.6 322 L187.9 321.1 L186.2 320.1 L184.7 318.9 L183.2 317.6 L181.9 316.3 L180.7 314.8 L179.5 313.2 L178.6 311.5 L177.7 309.8 L177 308 L176.5 306.1 L176 304.2 L175.8 302.3 L175.7 300.4 L175.7 298.4 L175.9 296.5 L176.3 294.6 L176.8 292.7 L177.4 290.9 L178.2 289.2 L179.2 287.5 L180.2 285.9 L181.4 284.3 L182.7 282.9 L184.1 281.6 L185.7 280.4 L187.3 279.3 L188.9 278.3 L190.7 277.5 L192.5 276.9 L194.4 276.3 L196.3 276 L198.2 275.8 L200.1 275.7 L202.1 275.8 L204 276 L205.9 276.4 L207.7 276.9 L209.5 277.6 L211.3 278.5 L213 279.4 L214.6 280.5 L216.1 281.7 L217.5 283.1 L218.8 284.5 L219.9 286.1 L221 287.7 L221.9 289.4 L222.7 291.2 L223.3 293 L223.8 294.9 L224.1 296.8 L224.3 298.7 Z " />
<path stroke="rgb(0,0,0)" stroke-opacity="1" fill="rgb(255,255,255)" fill-opacity="1" d="M187.5 187.4 L188.5 187.4 L189.5 187.4 L190.5 187.4 L191.5 187.4 L192.5 187.4 L193.4 187.4 L194.4 187.4 L195.4 187.4 L196.4 187.4 L197.4 187.4 L198.4 187.4 L199.4 187.4 L200.4 187.4 L201.4 187.4 L202.4 187.4 L203.4 187.4 L204.4 187.4 L205.4 187.4 L206.4 187.5 L207.4 187.5 L208.4 187.5 L209.4 187.5 L210.4 187.5 L211.4 187.5 L212.4 187.5 L212.4 188.5 L212.4 189.5 L212.4 190.5 L212.4 191.5 L212.4 192.5 L212.3 193.4 L212.3 194.4 L212.3 195.4 L212.3 196.4 L212.3 197.4 L212.3 198.4 L212.3 199.4 L212.3 200.4 L212.3 201.4 L212.3 202.4 L212.3 203.4 L212.3 204.4 L212.3 205.4 L212.3 206.4 L212.3 207.4 L212.3 208.4 L212.3 209.4 L212.3 210.4 L212.3 211.4 L212.3 212.4 L211.3 212.4 L210.3 212.4 L209.3 212.4 L208.3 212.4 L207.3 212.4 L206.3 212.3 L205.3 212.3 L204.3 212.3 L203.3 212.3 L202.3 212.3 L201.3 212.3 L200.3 212.3 L199.3 212.3 L198.3 212.3 L197.3 212.3 L196.3 212.3 L195.4 212.3 L194.4 212.3 L193.4 212.3 L192.4 212.3 L191.4 212.3 L190.4 212.3 L189.4 212.3 L188.4 212.3 L187.4 212.3 L187.4 211.3 L187.4 210.3 L187.4 209.3 L187.4 208.3 L187.4 207.3 L187.4 206.3 L187.4 205.3 L187.4 204.3 L187.4 203.3 L187.4 202.3 L187.4 201.3 L187.4 200.3 L187.4 199.3 L187.4 198.3 L187.4 197.3 L187.4 196.4 L187.4 195.4 L187.4 194.4 L187.5 193.4 L187.5 192.4 L187.5 191.4 L187.5 190.4 L187.5 189.4 L187.5 188.4 L187.5 187.4 Z " />
</g>
</g>
</svg>
