<!DOCTYPE svg>
<svg xmlns="http://www.w3.org/2000/svg" xmlns:xlink="http://www.w3.org/1999/xlink" width="1000" height="1000">
<g transform="translate(500.000000,500.000000)">
<g transform="scale(3.000000,3.000000)">
<path stroke="rgb(0,0,0)" stroke-opacity="1" fill="rgb(255,255,255)" fill-opacity="1" d="M-588 -587.9 L-589 -587.9 L-590 -587.9 L-591 -587.9 L-592 -587.9 L-593 -587.9 L-594 -587.9 L-595 -587.9 L-596 -587.9 L-597 -588 L-598 -588 L-598.9 -588 L-599.9 -588 L-600.9 -588 L-601.9 -588 L-602.9 -588 L-603.9 -588 L-604.9 -588 L-605.9 -588 L-606.9 -588 L-607.9 -588 L-608.9 -588 L-609.8 -588 L-610.8 -588 L-611.8 -588 L-612.8 -588 L-612.8 -589 L-612.8 -590 L-612.8 -591 L-612.8 -592 L-612.8 -593 L-612.8 -594 L-612.8 -595 L-612.8 -596 L-612.8 -597 L-612.8 -598 L-612.8 -598.9 L-612.8 -599.9 L-612.8 -600.9 L-612.7 -601.9 L-612.7 -602.9 L-612.7 -603.9 L-612.7 -604.9 L-612.7 -605.9 L-612.7 -606.9 L-612.7 -607.9 L-612.7 -608.9 L-612.7 -609.9 L-612.7 -610.8 L-612.7 -611.8 L-612.7 -612.8 L-611.7 -612.8 L-610.7 -612.8 L-609.7 -612.8 L-608.7 -612.8 L-607.7 -612.8 L-606.7 -612.8 L-605.7 -612.8 L-604.8 -612.8 L-603.8 -612.8 L-602.8 -612.8 L-601.8 -612.8 L-600.8 -612.8 L-599.8 -612.8 L-598.8 -612.7 L-597.8 -612.7 L-596.8 -612.7 L-595.8 -612.7 L-594.8 -612.7 L-593.9 -612.7 L-592.9 -612.7 L-591.9 -612.7 L-590.9 -612.7 L-589.9 -612.7 L-588.9 -612.7 L-587.9 -612.7 L-587.9 -611.7 L-587.9 -610.7 L-587.9 -609.7 L-587.9 -608.7 L-587.9 -607.7 L-587.9 -606.7 L-587.9 -605.7 L-587.9 -604.8 L-588 -603.8 L-588 -602.8 L-588 -601.8 L-588 -600.8 L-588 -599.8 L-588 -598.8 L-588 -597.8 L-588 -596.8 L-588 -595.8 L-588 -594.8 L-588 -593.9 L-588 -592.9 L-588 -591.9 L-588 -590.9 L-588 -589.9 L-588 -588.9 L-588 -587.9 Z " />
<path stroke="rgb(0,0,0)" stroke-opacity="1" fill="rgb(255,255,255)" fill-opacity="1" d="M-175.1 -299.8 L-175.2 -297.9 L-175.5 -295.9 L-175.9 -294 L-176.4 -292.1 L-177.2 -290.2 L-178 -288.4 L-179 -286.7 L-180.1 -285.1 L-181.4 -283.6 L-182.7 -282.1 L-184.2 -280.8 L-185.8 -279.6 L-187.4 -278.6 L-189.2 -277.6 L-191 -276.8 L-192.9 -276.2 L-194.8 -275.7 L-196.7 -275.4 L-198.7 -275.2 L-200.7 -275.2 L-202.6 -275.3 L-204.6 -275.6 L-206.5 -276 L-208.4 -276.6 L-210.2 -277.4 L-212 -278.2 L-213.7 -279.3 L-215.3 -280.4 L-216.8 -281.7 L-218.2 -283.1 L-219.5 -284.6 L-220.6 -286.2 L-221.7 -287.9 L-222.6 -289.6 L-223.3 -291.4 L-223.9 -293.3 L-224.4 -295.3 L-224.7 -297.2 L-224.8 -299.2 L-224.8 -301.2 L-224.7 -303.1 L-224.3 -305.1 L-223.8 -307 L-223.2 -308.9 L-222.4 -310.7 L-221.5 -312.4 L-220.5 -314.1 L-219.3 -315.7 L-218 -317.2 L-216.6 -318.5 L-215 -319.8 L-213.4 -320.9 L-211.7 -321.9 L-209.9 -322.8 L-208.1 -323.5 L-206.2 -324.1 L-204.3 -324.5 L-202.3 -324.7 L-200.3 -324.9 L-198.4 -324.8 L-196.4 -324.6 L-194.4 -324.2 L-192.5 -323.7 L-190.7 -323 L-188.9 -322.2 L-187.1 -321.3 L-185.5 -320.2 L-183.9 -319 L-182.5 -317.6 L-181.1 -316.2 L-179.9 -314.6 L-178.8 -313 L-177.8 -311.3 L-177 -309.5 L-176.3 -307.6 L-175.8 -305.7 L-175.4 -303.8 L-175.2 -301.8 L-175.1 -299.8 Z " />
<path stroke="rgb(0,0,0)" stroke-opacity="1" fill="rgb(255,255,255)" fill-opacity="1" d="M-388 -587.9 L-389 -587.9 L-390 -587.9 L-391 -587.9 L-392 -587.9 L-393 -587.9 L-394 -587.9 L-395 -587.9 L-396 -587.9 L-397 -588 L-398 -588 L-398.9 -588 L-399.9 -588 L-400.9 -588 L-401.9 -588 L-402.9 -588 L-403.9 -588 L-404.9 -588 L-405.9 -588 L-406.9 -588 L-407.9 -588 L-408.9 -588 L-409.8 -588 L-410.8 -588 L-411.8 -588 L-412.8 -588 L-412.8 -589 L-412.8 -590 L-412.8 -591 L-412.8 -592 L-412.8 -593 L-412.8 -594 L-412.8 -595 L-412.8 -596 L-412.8 -597 L-412.8 -598 L-412.8 -598.9 L-412.8 -599.9 L-412.8 -600.9 L-412.7 -601.9 L-412.7 -602.9 L-412.7 -603.9 L-412.7 -604.9 L-412.7 -605.9 L-412.7 -606.9 L-412.7 -607.9 L-412.7 -608.9 L-412.7 -609.9 L-412.7 -610.8 L-412.7 -611.8 L-412.7 -612.8 L-411.7 -612.8 L-410.7 -612.8 L-409.7 -612.8 L-408.7 -612.8 L-407.7 -612.8 L-406.7 -612.8 L-405.7 -612.8 L-404.8 -612.8 L-403.8 -612.8 L-402.8 -612.8 L-401.8 -612.8 L-400.8 -612.8 L-399.8 -612.8 L-398.8 -612.7 L-397.8 -612.7 L-396.8 -612.7 L-395.8 -612.7 L-394.8 -612.7 L-393.9 -612.7 L-392.9 -612.7 L-391.9 -612.7 L-390.9 -612.7 L-389.9 -612.7 L-388.9 -612.7 L-387.9 -612.7 L-387.9 -611.7 L-387.9 -610.7 L-387.9 -609.7 L-387.9 -608.7 L-387.9 -607.7 L-387.9 -606.7 L-387.9 -605.7 L-387.9 -604.8 L-388 -603.8 L-388 -602.8 L-388 -601.8 L-388 -600.8 L-388 -599.8 L-388 -598.8 L-388 -597.8 L-388 -596.8 L-388 -595.8 L-388 -594.8 L-388 -593.9 L-388 -592.9 L-388 -591.9 L-388 -590.9 L-388 -589.9 L-388 -588.9 L-388 -587.9 Z " />
<path stroke="rgb(0,0,0)" stroke-opacity="1" fill="rgb(255,255,255)" fill-opacity="1" d="M22.97 -303.4 L23.17 -301.6 L23.23 -299.7 L23.14 -297.9 L22.9 -296.1 L22.52 -294.2 L21.99 -292.5 L21.33 -290.8 L20.53 -289.1 L19.6 -287.5 L18.55 -286 L17.38 -284.6 L16.1 -283.2 L14.72 -282 L13.25 -280.9 L11.69 -279.9 L10.06 -279 L8.368 -278.3 L6.621 -277.7 L4.832 -277.3 L3.014 -276.9 L1.176 -276.8 L-0.6692 -276.8 L-2.51 -276.9 L-4.334 -277.2 L-6.132 -277.6 L-7.89 -278.1 L-9.598 -278.8 L-11.24 -279.7 L-12.82 -280.6 L-14.32 -281.7 L-15.72 -282.9 L-17.02 -284.2 L-18.22 -285.6 L-19.3 -287.1 L-20.26 -288.7 L-21.09 -290.3 L-21.79 -292 L-22.35 -293.8 L-22.77 -295.6 L-23.04 -297.4 L-23.17 -299.3 L-23.15 -301.1 L-22.99 -303 L-22.68 -304.8 L-22.22 -306.6 L-21.63 -308.3 L-20.89 -310 L-20.03 -311.6 L-19.04 -313.2 L-17.93 -314.7 L-16.7 -316 L-15.37 -317.3 L-13.95 -318.5 L-12.43 -319.5 L-10.83 -320.5 L-9.171 -321.3 L-7.449 -321.9 L-5.68 -322.4 L-3.875 -322.8 L-2.045 -323.1 L-0.2022 -323.2 L1.642 -323.1 L3.476 -322.9 L5.288 -322.6 L7.067 -322.1 L8.802 -321.4 L10.48 -320.7 L12.09 -319.8 L13.63 -318.8 L15.08 -317.6 L16.44 -316.4 L17.69 -315 L18.83 -313.6 L19.85 -312 L20.74 -310.4 L21.51 -308.7 L22.14 -307 L22.63 -305.2 L22.97 -303.4 Z " />
<path stroke="rgb(0,0,0)" stroke-opacity="1" fill="rgb(255,255,255)" fill-opacity="1" d="M-188 -587.9 L-189 -587.9 L-190 -587.9 L-191 -587.9 L-192 -587.9 L-193 -587.9 L-194 -587.9 L-195 -587.9 L-196 -587.9 L-197 -588 L-198 -588 L-198.9 -588 L-199.9 -588 L-200.9 -588 L-201.9 -588 L-202.9 -588 L-203.9 -588 L-204.9 -588 L-205.9 -588 L-206.9 -588 L-207.9 -588 L-208.9 -588 L-209.8 -588 L-210.8 -588 L-211.8 -588 L-212.8 -588 L-212.8 -589 L-212.8 -590 L-212.8 -591 L-212.8 -592 L-212.8 -593 L-212.8 -594 L-212.8 -595 L-212.8 -596 L-212.8 -597 L-212.8 -598 L-212.8 -598.9 L-212.8 -599.9 L-212.8 -600.9 L-212.7 -601.9 L-212.7 -602.9 L-212.7 -603.9 L-212.7 -604.9 L-212.7 -605.9 L-212.7 -606.9 L-212.7 -607.9 L-212.7 -608.9 L-212.7 -609.9 L-212.7 -610.8 L-212.7 -611.8 L-212.7 -612.8 L-211.7 -612.8 L-210.7 -612.8 L-209.7 -612.8 L-208.7 -612.8 L-207.7 -612.8 L-206.7 -612.8 L-205.7 -612.8 L-204.8 -612.8 L-203.8 -612.8 L-202.8 -612.8 L-201.8 -612.8 L-200.8 -612.8 L-199.8 -612.8 L-198.8 -612.7 L-197.8 -612.7 L-196.8 -612.7 L-195.8 -612.7 L-194.8 -612.7 L-193.9 -612.7 L-192.9 -612.7 L-191.9 -612.7 L-190.9 -612.7 L-189.9 -612.7 L-188.9 -612.7 L-187.9 -612.7 L-187.9 -611.7 L-187.9 -610.7 L-187.9 -609.7 L-187.9 -608.7 L-187.9 -607.7 L-187.9 -606.7 L-187.9 -605.7 L-187.9 -604.8 L-188 -603.8 L-188 -602.8 L-188 -601.8 L-188 -600.8 L-188 -599.8 L-188 -598.8 L-188 -597.8 L-188 -596.8 L-188 -595.8 L-188 -594.8 L-188 -593.9 L-188 -592.9 L-188 -591.9 L-188 -590.9 L-188 -589.9 L-188 -588.9 L-188 -587.9 Z " />
<path stroke="rgb(0,0,0)" stroke-opacity="1" fill="rgb(255,255,255)" fill-opacity="1" d="M209.5 -313.1 L210.5 -312.4 L211.5 -311.5 L212.4 -310.6 L213.2 -309.6 L213.9 -308.5 L214.6 -307.4 L215.1 -306.2 L215.6 -305 L216 -303.8 L216.2 -302.5 L216.4 -301.2 L216.4 -299.9 L216.4 -298.6 L216.2 -297.3 L216 -296.1 L215.6 -294.8 L215.2 -293.6 L214.7 -292.4 L214 -291.3 L213.3 -290.3 L212.5 -289.2 L211.6 -288.3 L210.7 -287.4 L209.7 -286.6 L208.6 -285.9 L207.4 -285.3 L206.3 -284.8 L205 -284.3 L203.8 -284 L202.5 -283.8 L201.2 -283.6 L200 -283.6 L198.7 -283.7 L197.4 -283.8 L196.1 -284.1 L194.9 -284.5 L193.7 -285 L192.5 -285.5 L191.4 -286.2 L190.4 -286.9 L189.4 -287.7 L188.4 -288.6 L187.6 -289.6 L186.8 -290.6 L186.1 -291.7 L185.5 -292.9 L185 -294.1 L184.6 -295.3 L184.3 -296.5 L184.1 -297.8 L184 -299.1 L184 -300.4 L184.1 -301.7 L184.3 -303 L184.6 -304.2 L185 -305.4 L185.5 -306.6 L186 -307.8 L186.7 -308.9 L187.5 -309.9 L188.3 -310.9 L189.2 -311.8 L190.2 -312.7 L191.3 -313.4 L192.4 -314.1 L193.5 -314.6 L194.7 -315.1 L196 -315.5 L197.2 -315.8 L198.5 -316 L199.8 -316.1 L201.1 -316 L202.4 -315.9 L203.6 -315.7 L204.9 -315.4 L206.1 -315 L207.3 -314.4 L208.4 -313.8 L209.5 -313.1 Z " />
<path stroke="rgb(0,0,0)" stroke-opacity="1" fill="rgb(255,255,255)" fill-opacity="1" d="M11.96 -587.9 L10.97 -587.9 L9.978 -587.9 L8.986 -587.9 L7.995 -587.9 L7.004 -587.9 L6.012 -587.9 L5.021 -587.9 L4.03 -587.9 L3.038 -588 L2.047 -588 L1.055 -588 L0.0641 -588 L-0.9273 -588 L-1.919 -588 L-2.91 -588 L-3.901 -588 L-4.893 -588 L-5.884 -588 L-6.876 -588 L-7.867 -588 L-8.858 -588 L-9.85 -588 L-10.84 -588 L-11.83 -588 L-12.82 -588 L-12.82 -589 L-12.81 -590 L-12.81 -591 L-12.8 -592 L-12.8 -593 L-12.79 -594 L-12.79 -595 L-12.78 -596 L-12.77 -597 L-12.77 -598 L-12.76 -598.9 L-12.76 -599.9 L-12.75 -600.9 L-12.75 -601.9 L-12.74 -602.9 L-12.74 -603.9 L-12.73 -604.9 L-12.73 -605.9 L-12.72 -606.9 L-12.71 -607.9 L-12.71 -608.9 L-12.7 -609.9 L-12.7 -610.8 L-12.69 -611.8 L-12.69 -612.8 L-11.7 -612.8 L-10.7 -612.8 L-9.713 -612.8 L-8.721 -612.8 L-7.73 -612.8 L-6.738 -612.8 L-5.747 -612.8 L-4.756 -612.8 L-3.764 -612.8 L-2.773 -612.8 L-1.782 -612.8 L-0.7902 -612.8 L0.2012 -612.8 L1.193 -612.7 L2.184 -612.7 L3.175 -612.7 L4.167 -612.7 L5.158 -612.7 L6.149 -612.7 L7.141 -612.7 L8.132 -612.7 L9.124 -612.7 L10.11 -612.7 L11.11 -612.7 L12.1 -612.7 L12.09 -611.7 L12.09 -610.7 L12.08 -609.7 L12.08 -608.7 L12.07 -607.7 L12.06 -606.7 L12.06 -605.7 L12.05 -604.8 L12.05 -603.8 L12.04 -602.8 L12.04 -601.8 L12.03 -600.8 L12.03 -599.8 L12.02 -598.8 L12.02 -597.8 L12.01 -596.8 L12 -595.8 L12 -594.8 L11.99 -593.9 L11.99 -592.9 L11.98 -591.9 L11.98 -590.9 L11.97 -589.9 L11.97 -588.9 L11.96 -587.9 Z " />
<path stroke="rgb(0,0,0)" stroke-opacity="1" fill="rgb(255,255,255)" fill-opacity="1" d="M-275.1 -199.8 L-275.2 -197.9 L-275.5 -195.9 L-275.9 -194 L-276.4 -192.1 L-277.2 -190.2 L-278 -188.4 L-279 -186.7 L-280.1 -185.1 L-281.4 -183.6 L-282.7 -182.1 L-284.2 -180.8 L-285.8 -179.6 L-287.4 -178.6 L-289.2 -177.6 L-291 -176.8 L-292.9 -176.2 L-294.8 -175.7 L-296.7 -175.4 L-298.7 -175.2 L-300.7 -175.2 L-302.6 -175.3 L-304.6 -175.6 L-306.5 -176 L-308.4 -176.6 L-310.2 -177.4 L-312 -178.2 L-313.7 -179.3 L-315.3 -180.4 L-316.8 -181.7 L-318.2 -183.1 L-319.5 -184.6 L-320.6 -186.2 L-321.7 -187.9 L-322.6 -189.6 L-323.3 -191.4 L-323.9 -193.3 L-324.4 -195.3 L-324.7 -197.2 L-324.8 -199.2 L-324.8 -201.2 L-324.7 -203.1 L-324.3 -205.1 L-323.8 -207 L-323.2 -208.9 L-322.4 -210.7 L-321.5 -212.4 L-320.5 -214.1 L-319.3 -215.7 L-318 -217.2 L-316.6 -218.5 L-315 -219.8 L-313.4 -220.9 L-311.7 -221.9 L-309.9 -222.8 L-308.1 -223.5 L-306.2 -224.1 L-304.3 -224.5 L-302.3 -224.7 L-300.3 -224.9 L-298.4 -224.8 L-296.4 -224.6 L-294.4 -224.2 L-292.5 -223.7 L-290.7 -223 L-288.9 -222.2 L-287.1 -221.3 L-285.5 -220.2 L-283.9 -219 L-282.5 -217.6 L-281.1 -216.2 L-279.9 -214.6 L-278.8 -213 L-277.8 -211.3 L-277 -209.5 L-276.3 -207.6 L-275.8 -205.7 L-275.4 -203.8 L-275.2 -201.8 L-275.1 -199.8 Z " />
<path stroke="rgb(0,0,0)" stroke-opacity="1" fill="rgb(255,255,255)" fill-opacity="1" d="M-488 -487.9 L-489 -487.9 L-490 -487.9 L-491 -487.9 L-492 -487.9 L-493 -487.9 L-494 -487.9 L-495 -487.9 L-496 -487.9 L-497 -488 L-498 -488 L-498.9 -488 L-499.9 -488 L-500.9 -488 L-501.9 -488 L-502.9 -488 L-503.9 -488 L-504.9 -488 L-505.9 -488 L-506.9 -488 L-507.9 -488 L-508.9 -488 L-509.8 -488 L-510.8 -488 L-511.8 -488 L-512.8 -488 L-512.8 -489 L-512.8 -490 L-512.8 -491 L-512.8 -492 L-512.8 -493 L-512.8 -494 L-512.8 -495 L-512.8 -496 L-512.8 -497 L-512.8 -498 L-512.8 -498.9 L-512.8 -499.9 L-512.8 -500.9 L-512.7 -501.9 L-512.7 -502.9 L-512.7 -503.9 L-512.7 -504.9 L-512.7 -505.9 L-512.7 -506.9 L-512.7 -507.9 L-512.7 -508.9 L-512.7 -509.9 L-512.7 -510.8 L-512.7 -511.8 L-512.7 -512.8 L-511.7 -512.8 L-510.7 -512.8 L-509.7 -512.8 L-508.7 -512.8 L-507.7 -512.8 L-506.7 -512.8 L-505.7 -512.8 L-504.8 -512.8 L-503.8 -512.8 L-502.8 -512.8 L-501.8 -512.8 L-500.8 -512.8 L-499.8 -512.8 L-498.8 -512.7 L-497.8 -512.7 L-496.8 -512.7 L-495.8 -512.7 L-494.8 -512.7 L-493.9 -512.7 L-492.9 -512.7 L-491.9 -512.7 L-490.9 -512.7 L-489.9 -512.7 L-488.9 -512.7 L-487.9 -512.7 L-487.9 -511.7 L-487.9 -510.7 L-487.9 -509.7 L-487.9 -508.7 L-487.9 -507.7 L-487.9 -506.7 L-487.9 -505.7 L-487.9 -504.8 L-488 -503.8 L-488 -502.8 L-488 -501.8 L-488 -500.8 L-488 -499.8 L-488 -498.8 L-488 -497.8 L-488 -496.8 L-488 -495.8 L-488 -494.8 L-488 -493.9 L-488 -492.9 L-488 -491.9 L-488 -490.9 L-488 -489.9 L-488 -488.9 L-488 -487.9 Z " />
<path stroke="rgb(0,0,0)" stroke-opacity="1" fill="rgb(255,255,255)" fill-opacity="1" d="M-77.03 -203.4 L-76.83 -201.6 L-76.77 -199.7 L-76.86 -197.9 L-77.1 -196.1 L-77.48 -194.2 L-78.01 -192.5 L-78.67 -190.8 L-79.47 -189.1 L-80.4 -187.5 L-81.45 -186 L-82.62 -184.6 L-83.9 -183.2 L-85.28 -182 L-86.75 -180.9 L-88.31 -179.9 L-89.94 -179 L-91.63 -178.3 L-93.38 -177.7 L-95.17 -177.3 L-96.99 -176.9 L-98.82 -176.8 L-100.7 -176.8 L-102.5 -176.9 L-104.3 -177.2 L-106.1 -177.6 L-107.9 -178.1 L-109.6 -178.8 L-111.2 -179.7 L-112.8 -180.6 L-114.3 -181.7 L-115.7 -182.9 L-117 -184.2 L-118.2 -185.6 L-119.3 -187.1 L-120.3 -188.7 L-121.1 -190.3 L-121.8 -192 L-122.3 -193.8 L-122.8 -195.6 L-123 -197.4 L-123.2 -199.3 L-123.2 -201.1 L-123 -203 L-122.7 -204.8 L-122.2 -206.6 L-121.6 -208.3 L-120.9 -210 L-120 -211.6 L-119 -213.2 L-117.9 -214.7 L-116.7 -216 L-115.4 -217.3 L-113.9 -218.5 L-112.4 -219.5 L-110.8 -220.5 L-109.2 -221.3 L-107.4 -221.9 L-105.7 -222.4 L-103.9 -222.8 L-102 -223.1 L-100.2 -223.2 L-98.36 -223.1 L-96.52 -222.9 L-94.71 -222.6 L-92.93 -222.1 L-91.2 -221.4 L-89.52 -220.7 L-87.91 -219.8 L-86.37 -218.8 L-84.92 -217.6 L-83.56 -216.4 L-82.31 -215 L-81.17 -213.6 L-80.15 -212 L-79.26 -210.4 L-78.49 -208.7 L-77.86 -207 L-77.37 -205.2 L-77.03 -203.4 Z " />
<path stroke="rgb(0,0,0)" stroke-opacity="1" fill="rgb(255,255,255)" fill-opacity="1" d="M-288 -487.9 L-289 -487.9 L-290 -487.9 L-291 -487.9 L-292 -487.9 L-293 -487.9 L-294 -487.9 L-295 -487.9 L-296 -487.9 L-297 -488 L-298 -488 L-298.9 -488 L-299.9 -488 L-300.9 -488 L-301.9 -488 L-302.9 -488 L-303.9 -488 L-304.9 -488 L-305.9 -488 L-306.9 -488 L-307.9 -488 L-308.9 -488 L-309.8 -488 L-310.8 -488 L-311.8 -488 L-312.8 -488 L-312.8 -489 L-312.8 -490 L-312.8 -491 L-312.8 -492 L-312.8 -493 L-312.8 -494 L-312.8 -495 L-312.8 -496 L-312.8 -497 L-312.8 -498 L-312.8 -498.9 L-312.8 -499.9 L-312.8 -500.9 L-312.7 -501.9 L-312.7 -502.9 L-312.7 -503.9 L-312.7 -504.9 L-312.7 -505.9 L-312.7 -506.9 L-312.7 -507.9 L-312.7 -508.9 L-312.7 -509.9 L-312.7 -510.8 L-312.7 -511.8 L-312.7 -512.8 L-311.7 -512.8 L-310.7 -512.8 L-309.7 -512.8 L-308.7 -512.8 L-307.7 -512.8 L-306.7 -512.8 L-305.7 -512.8 L-304.8 -512.8 L-303.8 -512.8 L-302.8 -512.8 L-301.8 -512.8 L-300.8 -512.8 L-299.8 -512.8 L-298.8 -512.7 L-297.8 -512.7 L-296.8 -512.7 L-295.8 -512.7 L-294.8 -512.7 L-293.9 -512.7 L-292.9 -512.7 L-291.9 -512.7 L-290.9 -512.7 L-289.9 -512.7 L-288.9 -512.7 L-287.9 -512.7 L-287.9 -511.7 L-287.9 -510.7 L-287.9 -509.7 L-287.9 -508.7 L-287.9 -507.7 L-287.9 -506.7 L-287.9 -505.7 L-287.9 -504.8 L-288 -503.8 L-288 -502.8 L-288 -501.8 L-288 -500.8 L-288 -499.8 L-288 -498.8 L-288 -497.8 L-288 -496.8 L-288 -495.8 L-288 -494.8 L-288 -493.9 L-288 -492.9 L-288 -491.9 L-288 -490.9 L-288 -489.9 L-288 -488.9 L-288 -487.9 Z " />
<path stroke="rgb(0,0,0)" stroke-opacity="1" fill="rgb(255,255,255)" fill-opacity="1" d="M109.5 -213.1 L110.5 -212.4 L111.5 -211.5 L112.4 -210.6 L113.2 -209.6 L113.9 -208.5 L114.6 -207.4 L115.1 -206.2 L115.6 -205 L116 -203.8 L116.2 -202.5 L116.4 -201.2 L116.4 -199.9 L116.4 -198.6 L116.2 -197.3 L116 -196.1 L115.6 -194.8 L115.2 -193.6 L114.7 -192.4 L114 -191.3 L113.3 -190.3 L112.5 -189.2 L111.6 -188.3 L110.7 -187.4 L109.7 -186.6 L108.6 -185.9 L107.4 -185.3 L106.3 -184.8 L105 -184.3 L103.8 -184 L102.5 -183.8 L101.2 -183.6 L99.96 -183.6 L98.67 -183.7 L97.39 -183.8 L96.12 -184.1 L94.89 -184.5 L93.69 -185 L92.52 -185.5 L91.41 -186.2 L90.35 -186.9 L89.36 -187.7 L88.43 -188.6 L87.58 -189.6 L86.81 -190.6 L86.12 -191.7 L85.52 -192.9 L85.01 -194.1 L84.6 -195.3 L84.29 -196.5 L84.08 -197.8 L83.97 -199.1 L83.97 -200.4 L84.06 -201.7 L84.26 -203 L84.56 -204.2 L84.96 -205.4 L85.45 -206.6 L86.04 -207.8 L86.71 -208.9 L87.48 -209.9 L88.32 -210.9 L89.24 -211.8 L90.22 -212.7 L91.27 -213.4 L92.38 -214.1 L93.53 -214.6 L94.73 -215.1 L95.96 -215.5 L97.22 -215.8 L98.5 -216 L99.79 -216.1 L101.1 -216 L102.4 -215.9 L103.6 -215.7 L104.9 -215.4 L106.1 -215 L107.3 -214.4 L108.4 -213.8 L109.5 -213.1 Z " />
<path stroke="rgb(0,0,0)" stroke-opacity="1" fill="rgb(255,255,255)" fill-opacity="1" d="M-88.04 -487.9 L-89.03 -487.9 L-90.02 -487.9 L-91.01 -487.9 L-92 -487.9 L-93 -487.9 L-93.99 -487.9 L-94.98 -487.9 L-95.97 -487.9 L-96.96 -488 L-97.95 -488 L-98.94 -488 L-99.94 -488 L-100.9 -488 L-101.9 -488 L-102.9 -488 L-103.9 -488 L-104.9 -488 L-105.9 -488 L-106.9 -488 L-107.9 -488 L-108.9 -488 L-109.8 -488 L-110.8 -488 L-111.8 -488 L-112.8 -488 L-112.8 -489 L-112.8 -490 L-112.8 -491 L-112.8 -492 L-112.8 -493 L-112.8 -494 L-112.8 -495 L-112.8 -496 L-112.8 -497 L-112.8 -498 L-112.8 -498.9 L-112.8 -499.9 L-112.8 -500.9 L-112.7 -501.9 L-112.7 -502.9 L-112.7 -503.9 L-112.7 -504.9 L-112.7 -505.9 L-112.7 -506.9 L-112.7 -507.9 L-112.7 -508.9 L-112.7 -509.9 L-112.7 -510.8 L-112.7 -511.8 L-112.7 -512.8 L-111.7 -512.8 L-110.7 -512.8 L-109.7 -512.8 L-108.7 -512.8 L-107.7 -512.8 L-106.7 -512.8 L-105.7 -512.8 L-104.8 -512.8 L-103.8 -512.8 L-102.8 -512.8 L-101.8 -512.8 L-100.8 -512.8 L-99.8 -512.8 L-98.81 -512.7 L-97.82 -512.7 L-96.82 -512.7 L-95.83 -512.7 L-94.84 -512.7 L-93.85 -512.7 L-92.86 -512.7 L-91.87 -512.7 L-90.88 -512.7 L-89.89 -512.7 L-88.89 -512.7 L-87.9 -512.7 L-87.91 -511.7 L-87.91 -510.7 L-87.92 -509.7 L-87.92 -508.7 L-87.93 -507.7 L-87.94 -506.7 L-87.94 -505.7 L-87.95 -504.8 L-87.95 -503.8 L-87.96 -502.8 L-87.96 -501.8 L-87.97 -500.8 L-87.97 -499.8 L-87.98 -498.8 L-87.98 -497.8 L-87.99 -496.8 L-88 -495.8 L-88 -494.8 L-88.01 -493.9 L-88.01 -492.9 L-88.02 -491.9 L-88.02 -490.9 L-88.03 -489.9 L-88.03 -488.9 L-88.04 -487.9 Z " />
<path stroke="rgb(0,0,0)" stroke-opacity="1" fill="rgb(255,255,255)" fill-opacity="1" d="M301.1 -212.6 L302.1 -212.5 L303.1 -212.3 L304.1 -212 L305 -211.7 L306 -211.3 L306.9 -210.8 L307.7 -210.2 L308.5 -209.6 L309.3 -208.9 L310 -208.2 L310.6 -207.4 L311.2 -206.5 L311.7 -205.7 L312.1 -204.7 L312.4 -203.8 L312.7 -202.8 L312.9 -201.8 L313 -200.8 L313.1 -199.8 L313 -198.8 L312.9 -197.8 L312.7 -196.8 L312.4 -195.8 L312 -194.9 L311.6 -193.9 L311.1 -193.1 L310.5 -192.2 L309.9 -191.4 L309.2 -190.7 L308.4 -190 L307.6 -189.4 L306.8 -188.9 L305.9 -188.4 L305 -188 L304 -187.6 L303 -187.4 L302 -187.2 L301 -187.1 L300 -187.1 L299 -187.2 L298 -187.3 L297 -187.5 L296 -187.8 L295.1 -188.2 L294.2 -188.6 L293.3 -189.2 L292.5 -189.8 L291.7 -190.4 L291 -191.1 L290.3 -191.9 L289.7 -192.7 L289.2 -193.6 L288.7 -194.5 L288.3 -195.4 L288 -196.4 L287.8 -197.4 L287.6 -198.4 L287.6 -199.4 L287.6 -200.4 L287.6 -201.4 L287.8 -202.4 L288 -203.4 L288.4 -204.3 L288.8 -205.3 L289.2 -206.2 L289.8 -207 L290.4 -207.9 L291 -208.6 L291.8 -209.3 L292.6 -210 L293.4 -210.6 L294.3 -211.1 L295.2 -211.5 L296.1 -211.9 L297.1 -212.2 L298.1 -212.4 L299.1 -212.5 L300.1 -212.6 L301.1 -212.6 Z " />
<path stroke="rgb(0,0,0)" stroke-opacity="1" fill="rgb(255,255,255)" fill-opacity="1" d="M-588 -387.9 L-589 -387.9 L-590 -387.9 L-591 -387.9 L-592 -387.9 L-593 -387.9 L-594 -387.9 L-595 -387.9 L-596 -387.9 L-597 -388 L-598 -388 L-598.9 -388 L-599.9 -388 L-600.9 -388 L-601.9 -388 L-602.9 -388 L-603.9 -388 L-604.9 -388 L-605.9 -388 L-606.9 -388 L-607.9 -388 L-608.9 -388 L-609.8 -388 L-610.8 -388 L-611.8 -388 L-612.8 -388 L-612.8 -389 L-612.8 -390 L-612.8 -391 L-612.8 -392 L-612.8 -393 L-612.8 -394 L-612.8 -395 L-612.8 -396 L-612.8 -397 L-612.8 -398 L-612.8 -398.9 L-612.8 -399.9 L-612.8 -400.9 L-612.7 -401.9 L-612.7 -402.9 L-612.7 -403.9 L-612.7 -404.9 L-612.7 -405.9 L-612.7 -406.9 L-612.7 -407.9 L-612.7 -408.9 L-612.7 -409.9 L-612.7 -410.8 L-612.7 -411.8 L-612.7 -412.8 L-611.7 -412.8 L-610.7 -412.8 L-609.7 -412.8 L-608.7 -412.8 L-607.7 -412.8 L-606.7 -412.8 L-605.7 -412.8 L-604.8 -412.8 L-603.8 -412.8 L-602.8 -412.8 L-601.8 -412.8 L-600.8 -412.8 L-599.8 -412.8 L-598.8 -412.7 L-597.8 -412.7 L-596.8 -412.7 L-595.8 -412.7 L-594.8 -412.7 L-593.9 -412.7 L-592.9 -412.7 L-591.9 -412.7 L-590.9 -412.7 L-589.9 -412.7 L-588.9 -412.7 L-587.9 -412.7 L-587.9 -411.7 L-587.9 -410.7 L-587.9 -409.7 L-587.9 -408.7 L-587.9 -407.7 L-587.9 -406.7 L-587.9 -405.7 L-587.9 -404.8 L-588 -403.8 L-588 -402.8 L-588 -401.8 L-588 -400.8 L-588 -399.8 L-588 -398.8 L-588 -397.8 L-588 -396.8 L-588 -395.8 L-588 -394.8 L-588 -393.9 L-588 -392.9 L-588 -391.9 L-588 -390.9 L-588 -389.9 L-588 -388.9 L-588 -387.9 Z " />
<path stroke="rgb(0,0,0)" stroke-opacity="1" fill="rgb(255,255,255)" fill-opacity="1" d="M-177 -103.4 L-176.8 -101.6 L-176.8 -99.72 L-176.9 -97.88 L-177.1 -96.05 L-177.5 -94.25 L-178 -92.48 L-178.7 -90.76 L-179.5 -89.09 L-180.4 -87.5 L-181.4 -85.98 L-182.6 -84.55 L-183.9 -83.22 L-185.3 -82 L-186.8 -80.89 L-188.3 -79.9 L-189.9 -79.03 L-191.6 -78.3 L-193.4 -77.71 L-195.2 -77.26 L-197 -76.94 L-198.8 -76.78 L-200.7 -76.76 L-202.5 -76.89 L-204.3 -77.17 L-206.1 -77.58 L-207.9 -78.14 L-209.6 -78.84 L-211.2 -79.67 L-212.8 -80.63 L-214.3 -81.71 L-215.7 -82.91 L-217 -84.22 L-218.2 -85.62 L-219.3 -87.12 L-220.3 -88.69 L-221.1 -90.34 L-221.8 -92.05 L-222.3 -93.81 L-222.8 -95.6 L-223 -97.43 L-223.2 -99.27 L-223.2 -101.1 L-223 -103 L-222.7 -104.8 L-222.2 -106.6 L-221.6 -108.3 L-220.9 -110 L-220 -111.6 L-219 -113.2 L-217.9 -114.7 L-216.7 -116 L-215.4 -117.3 L-213.9 -118.5 L-212.4 -119.5 L-210.8 -120.5 L-209.2 -121.3 L-207.4 -121.9 L-205.7 -122.4 L-203.9 -122.8 L-202 -123.1 L-200.2 -123.2 L-198.4 -123.1 L-196.5 -122.9 L-194.7 -122.6 L-192.9 -122.1 L-191.2 -121.4 L-189.5 -120.7 L-187.9 -119.8 L-186.4 -118.8 L-184.9 -117.6 L-183.6 -116.4 L-182.3 -115 L-181.2 -113.6 L-180.2 -112 L-179.3 -110.4 L-178.5 -108.7 L-177.9 -107 L-177.4 -105.2 L-177 -103.4 Z " />
<path stroke="rgb(0,0,0)" stroke-opacity="1" fill="rgb(255,255,255)" fill-opacity="1" d="M-388 -387.9 L-389 -387.9 L-390 -387.9 L-391 -387.9 L-392 -387.9 L-393 -387.9 L-394 -387.9 L-395 -387.9 L-396 -387.9 L-397 -388 L-398 -388 L-398.9 -388 L-399.9 -388 L-400.9 -388 L-401.9 -388 L-402.9 -388 L-403.9 -388 L-404.9 -388 L-405.9 -388 L-406.9 -388 L-407.9 -388 L-408.9 -388 L-409.8 -388 L-410.8 -388 L-411.8 -388 L-412.8 -388 L-412.8 -389 L-412.8 -390 L-412.8 -391 L-412.8 -392 L-412.8 -393 L-412.8 -394 L-412.8 -395 L-412.8 -396 L-412.8 -397 L-412.8 -398 L-412.8 -398.9 L-412.8 -399.9 L-412.8 -400.9 L-412.7 -401.9 L-412.7 -402.9 L-412.7 -403.9 L-412.7 -404.9 L-412.7 -405.9 L-412.7 -406.9 L-412.7 -407.9 L-412.7 -408.9 L-412.7 -409.9 L-412.7 -410.8 L-412.7 -411.8 L-412.7 -412.8 L-411.7 -412.8 L-410.7 -412.8 L-409.7 -412.8 L-408.7 -412.8 L-407.7 -412.8 L-406.7 -412.8 L-405.7 -412.8 L-404.8 -412.8 L-403.8 -412.8 L-402.8 -412.8 L-401.8 -412.8 L-400.8 -412.8 L-399.8 -412.8 L-398.8 -412.7 L-397.8 -412.7 L-396.8 -412.7 L-395.8 -412.7 L-394.8 -412.7 L-393.9 -412.7 L-392.9 -412.7 L-391.9 -412.7 L-390.9 -412.7 L-389.9 -412.7 L-388.9 -412.7 L-387.9 -412.7 L-387.9 -411.7 L-387.9 -410.7 L-387.9 -409.7 L-387.9 -408.7 L-387.9 -407.7 L-387.9 -406.7 L-387.9 -405.7 L-387.9 -404.8 L-388 -403.8 L-388 -402.8 L-388 -401.8 L-388 -400.8 L-388 -399.8 L-388 -398.8 L-388 -397.8 L-388 -396.8 L-388 -395.8 L-388 -394.8 L-388 -393.9 L-388 -392.9 L-388 -391.9 L-388 -390.9 L-388 -389.9 L-388 -388.9 L-388 -387.9 Z " />
<path stroke="rgb(0,0,0)" stroke-opacity="1" fill="rgb(255,255,255)" fill-opacity="1" d="M9.517 -113.1 L10.54 -112.4 L11.51 -111.5 L12.4 -110.6 L13.21 -109.6 L13.94 -108.5 L14.58 -107.4 L15.14 -106.2 L15.6 -105 L15.96 -103.8 L16.22 -102.5 L16.38 -101.2 L16.44 -99.92 L16.39 -98.63 L16.24 -97.34 L16 -96.08 L15.65 -94.83 L15.2 -93.62 L14.66 -92.45 L14.03 -91.32 L13.31 -90.25 L12.5 -89.24 L11.62 -88.29 L10.67 -87.42 L9.652 -86.63 L8.573 -85.92 L7.441 -85.3 L6.263 -84.77 L5.047 -84.34 L3.801 -84 L2.531 -83.76 L1.247 -83.63 L-0.0441 -83.6 L-1.333 -83.67 L-2.613 -83.84 L-3.875 -84.11 L-5.111 -84.49 L-6.314 -84.96 L-7.476 -85.52 L-8.589 -86.17 L-9.646 -86.92 L-10.64 -87.74 L-11.57 -88.64 L-12.42 -89.61 L-13.19 -90.64 L-13.88 -91.74 L-14.48 -92.88 L-14.99 -94.07 L-15.4 -95.29 L-15.71 -96.54 L-15.92 -97.82 L-16.03 -99.11 L-16.03 -100.4 L-15.94 -101.7 L-15.74 -103 L-15.44 -104.2 L-15.04 -105.4 L-14.55 -106.6 L-13.96 -107.8 L-13.29 -108.9 L-12.52 -109.9 L-11.68 -110.9 L-10.76 -111.8 L-9.777 -112.7 L-8.727 -113.4 L-7.621 -114.1 L-6.465 -114.6 L-5.268 -115.1 L-4.035 -115.5 L-2.776 -115.8 L-1.498 -116 L-0.2097 -116.1 L1.081 -116 L2.367 -115.9 L3.639 -115.7 L4.889 -115.4 L6.109 -115 L7.292 -114.4 L8.431 -113.8 L9.517 -113.1 Z " />
<path stroke="rgb(0,0,0)" stroke-opacity="1" fill="rgb(255,255,255)" fill-opacity="1" d="M-188 -387.9 L-189 -387.9 L-190 -387.9 L-191 -387.9 L-192 -387.9 L-193 -387.9 L-194 -387.9 L-195 -387.9 L-196 -387.9 L-197 -388 L-198 -388 L-198.9 -388 L-199.9 -388 L-200.9 -388 L-201.9 -388 L-202.9 -388 L-203.9 -388 L-204.9 -388 L-205.9 -388 L-206.9 -388 L-207.9 -388 L-208.9 -388 L-209.8 -388 L-210.8 -388 L-211.8 -388 L-212.8 -388 L-212.8 -389 L-212.8 -390 L-212.8 -391 L-212.8 -392 L-212.8 -393 L-212.8 -394 L-212.8 -395 L-212.8 -396 L-212.8 -397 L-212.8 -398 L-212.8 -398.9 L-212.8 -399.9 L-212.8 -400.9 L-212.7 -401.9 L-212.7 -402.9 L-212.7 -403.9 L-212.7 -404.9 L-212.7 -405.9 L-212.7 -406.9 L-212.7 -407.9 L-212.7 -408.9 L-212.7 -409.9 L-212.7 -410.8 L-212.7 -411.8 L-212.7 -412.8 L-211.7 -412.8 L-210.7 -412.8 L-209.7 -412.8 L-208.7 -412.8 L-207.7 -412.8 L-206.7 -412.8 L-205.7 -412.8 L-204.8 -412.8 L-203.8 -412.8 L-202.8 -412.8 L-201.8 -412.8 L-200.8 -412.8 L-199.8 -412.8 L-198.8 -412.7 L-197.8 -412.7 L-196.8 -412.7 L-195.8 -412.7 L-194.8 -412.7 L-193.9 -412.7 L-192.9 -412.7 L-191.9 -412.7 L-190.9 -412.7 L-189.9 -412.7 L-188.9 -412.7 L-187.9 -412.7 L-187.9 -411.7 L-187.9 -410.7 L-187.9 -409.7 L-187.9 -408.7 L-187.9 -407.7 L-187.9 -406.7 L-187.9 -405.7 L-187.9 -404.8 L-188 -403.8 L-188 -402.8 L-188 -401.8 L-188 -400.8 L-188 -399.8 L-188 -398.8 L-188 -397.8 L-188 -396.8 L-188 -395.8 L-188 -394.8 L-188 -393.9 L-188 -392.9 L-188 -391.9 L-188 -390.9 L-188 -389.9 L-188 -388.9 L-188 -387.9 Z " />
<path stroke="rgb(0,0,0)" stroke-opacity="1" fill="rgb(255,255,255)" fill-opacity="1" d="M201.1 -112.6 L202.1 -112.5 L203.1 -112.3 L204.1 -112 L205 -111.7 L206 -111.3 L206.9 -110.8 L207.7 -110.2 L208.5 -109.6 L209.3 -108.9 L210 -108.2 L210.6 -107.4 L211.2 -106.5 L211.7 -105.7 L212.1 -104.7 L212.4 -103.8 L212.7 -102.8 L212.9 -101.8 L213 -100.8 L213.1 -99.8 L213 -98.79 L212.9 -97.78 L212.7 -96.79 L212.4 -95.81 L212 -94.86 L211.6 -93.95 L211.1 -93.07 L210.5 -92.23 L209.9 -91.44 L209.2 -90.7 L208.4 -90.03 L207.6 -89.41 L206.8 -88.86 L205.9 -88.38 L205 -87.97 L204 -87.64 L203 -87.38 L202 -87.2 L201 -87.11 L200 -87.09 L199 -87.15 L198 -87.3 L197 -87.52 L196 -87.82 L195.1 -88.2 L194.2 -88.65 L193.3 -89.17 L192.5 -89.76 L191.7 -90.41 L191 -91.12 L190.3 -91.89 L189.7 -92.71 L189.2 -93.57 L188.7 -94.47 L188.3 -95.41 L188 -96.37 L187.8 -97.36 L187.6 -98.36 L187.6 -99.37 L187.6 -100.4 L187.6 -101.4 L187.8 -102.4 L188 -103.4 L188.4 -104.3 L188.8 -105.3 L189.2 -106.2 L189.8 -107 L190.4 -107.9 L191 -108.6 L191.8 -109.3 L192.6 -110 L193.4 -110.6 L194.3 -111.1 L195.2 -111.5 L196.1 -111.9 L197.1 -112.2 L198.1 -112.4 L199.1 -112.5 L200.1 -112.6 L201.1 -112.6 Z " />
<path stroke="rgb(0,0,0)" stroke-opacity="1" fill="rgb(255,255,255)" fill-opacity="1" d="M12.84 -387.3 L11.85 -387.3 L10.86 -387.3 L9.868 -387.3 L8.876 -387.3 L7.885 -387.3 L6.893 -387.3 L5.902 -387.3 L4.911 -387.3 L3.919 -387.3 L2.928 -387.2 L1.937 -387.2 L0.9452 -387.2 L-0.04623 -387.2 L-1.038 -387.2 L-2.029 -387.2 L-3.02 -387.2 L-4.012 -387.2 L-5.003 -387.2 L-5.995 -387.2 L-6.986 -387.2 L-7.977 -387.2 L-8.969 -387.2 L-9.96 -387.2 L-10.95 -387.2 L-11.94 -387.2 L-11.95 -388.1 L-11.95 -389.1 L-11.96 -390.1 L-11.97 -391.1 L-11.97 -392.1 L-11.98 -393.1 L-11.98 -394.1 L-11.99 -395.1 L-12 -396.1 L-12 -397.1 L-12.01 -398.1 L-12.02 -399.1 L-12.02 -400 L-12.03 -401 L-12.03 -402 L-12.04 -403 L-12.05 -404 L-12.05 -405 L-12.06 -406 L-12.06 -407 L-12.07 -408 L-12.08 -409 L-12.08 -410 L-12.09 -410.9 L-12.09 -411.9 L-11.1 -411.9 L-10.11 -412 L-9.119 -412 L-8.128 -412 L-7.136 -412 L-6.145 -412 L-5.154 -412 L-4.162 -412 L-3.171 -412 L-2.18 -412 L-1.188 -412 L-0.1968 -412 L0.7946 -412 L1.786 -412 L2.777 -412 L3.769 -412 L4.76 -412 L5.752 -412 L6.743 -412.1 L7.734 -412.1 L8.726 -412.1 L9.717 -412.1 L10.71 -412.1 L11.7 -412.1 L12.69 -412.1 L12.7 -411.1 L12.7 -410.1 L12.71 -409.1 L12.72 -408.1 L12.72 -407.1 L12.73 -406.1 L12.73 -405.2 L12.74 -404.2 L12.75 -403.2 L12.75 -402.2 L12.76 -401.2 L12.76 -400.2 L12.77 -399.2 L12.78 -398.2 L12.78 -397.2 L12.79 -396.2 L12.79 -395.2 L12.8 -394.2 L12.81 -393.3 L12.81 -392.3 L12.82 -391.3 L12.82 -390.3 L12.83 -389.3 L12.84 -388.3 L12.84 -387.3 Z " />
<path stroke="rgb(0,0,0)" stroke-opacity="1" fill="rgb(255,255,255)" fill-opacity="1" d="M-277 -3.402 L-276.8 -1.568 L-276.8 0.2766 L-276.9 2.119 L-277.1 3.949 L-277.5 5.754 L-278 7.523 L-278.7 9.245 L-279.5 10.91 L-280.4 12.5 L-281.4 14.02 L-282.6 15.45 L-283.9 16.78 L-285.3 18 L-286.8 19.11 L-288.3 20.1 L-289.9 20.97 L-291.6 21.7 L-293.4 22.29 L-295.2 22.74 L-297 23.06 L-298.8 23.22 L-300.7 23.24 L-302.5 23.11 L-304.3 22.83 L-306.1 22.42 L-307.9 21.86 L-309.6 21.16 L-311.2 20.33 L-312.8 19.37 L-314.3 18.29 L-315.7 17.09 L-317 15.78 L-318.2 14.38 L-319.3 12.88 L-320.3 11.31 L-321.1 9.661 L-321.8 7.953 L-322.3 6.195 L-322.8 4.398 L-323 2.573 L-323.2 0.7322 L-323.2 -1.113 L-323 -2.951 L-322.7 -4.769 L-322.2 -6.558 L-321.6 -8.304 L-320.9 -9.998 L-320 -11.63 L-319 -13.19 L-317.9 -14.66 L-316.7 -16.04 L-315.4 -17.32 L-313.9 -18.49 L-312.4 -19.54 L-310.8 -20.46 L-309.2 -21.26 L-307.4 -21.93 L-305.7 -22.45 L-303.9 -22.83 L-302 -23.07 L-300.2 -23.16 L-298.4 -23.11 L-296.5 -22.9 L-294.7 -22.56 L-292.9 -22.07 L-291.2 -21.44 L-289.5 -20.67 L-287.9 -19.78 L-286.4 -18.76 L-284.9 -17.62 L-283.6 -16.36 L-282.3 -15.01 L-281.2 -13.56 L-280.2 -12.02 L-279.3 -10.41 L-278.5 -8.728 L-277.9 -6.993 L-277.4 -5.214 L-277 -3.402 Z " />
<path stroke="rgb(0,0,0)" stroke-opacity="1" fill="rgb(255,255,255)" fill-opacity="1" d="M-488 -287.9 L-489 -287.9 L-490 -287.9 L-491 -287.9 L-492 -287.9 L-493 -287.9 L-494 -287.9 L-495 -287.9 L-496 -287.9 L-497 -288 L-498 -288 L-498.9 -288 L-499.9 -288 L-500.9 -288 L-501.9 -288 L-502.9 -288 L-503.9 -288 L-504.9 -288 L-505.9 -288 L-506.9 -288 L-507.9 -288 L-508.9 -288 L-509.8 -288 L-510.8 -288 L-511.8 -288 L-512.8 -288 L-512.8 -289 L-512.8 -290 L-512.8 -291 L-512.8 -292 L-512.8 -293 L-512.8 -294 L-512.8 -295 L-512.8 -296 L-512.8 -297 L-512.8 -298 L-512.8 -298.9 L-512.8 -299.9 L-512.8 -300.9 L-512.7 -301.9 L-512.7 -302.9 L-512.7 -303.9 L-512.7 -304.9 L-512.7 -305.9 L-512.7 -306.9 L-512.7 -307.9 L-512.7 -308.9 L-512.7 -309.9 L-512.7 -310.8 L-512.7 -311.8 L-512.7 -312.8 L-511.7 -312.8 L-510.7 -312.8 L-509.7 -312.8 L-508.7 -312.8 L-507.7 -312.8 L-506.7 -312.8 L-505.7 -312.8 L-504.8 -312.8 L-503.8 -312.8 L-502.8 -312.8 L-501.8 -312.8 L-500.8 -312.8 L-499.8 -312.8 L-498.8 -312.7 L-497.8 -312.7 L-496.8 -312.7 L-495.8 -312.7 L-494.8 -312.7 L-493.9 -312.7 L-492.9 -312.7 L-491.9 -312.7 L-490.9 -312.7 L-489.9 -312.7 L-488.9 -312.7 L-487.9 -312.7 L-487.9 -311.7 L-487.9 -310.7 L-487.9 -309.7 L-487.9 -308.7 L-487.9 -307.7 L-487.9 -306.7 L-487.9 -305.7 L-487.9 -304.8 L-488 -303.8 L-488 -302.8 L-488 -301.8 L-488 -300.8 L-488 -299.8 L-488 -298.8 L-488 -297.8 L-488 -296.8 L-488 -295.8 L-488 -294.8 L-488 -293.9 L-488 -292.9 L-488 -291.9 L-488 -290.9 L-488 -289.9 L-488 -288.9 L-488 -287.9 Z " />
<path stroke="rgb(0,0,0)" stroke-opacity="1" fill="rgb(255,255,255)" fill-opacity="1" d="M-90.48 -13.13 L-89.46 -12.35 L-88.49 -11.49 L-87.6 -10.55 L-86.79 -9.55 L-86.06 -8.486 L-85.42 -7.366 L-84.86 -6.199 L-84.4 -4.992 L-84.04 -3.752 L-83.78 -2.488 L-83.62 -1.207 L-83.56 0.08343 L-83.61 1.374 L-83.76 2.657 L-84 3.924 L-84.35 5.167 L-84.8 6.379 L-85.34 7.552 L-85.97 8.677 L-86.69 9.749 L-87.5 10.76 L-88.38 11.71 L-89.33 12.58 L-90.35 13.37 L-91.43 14.08 L-92.56 14.7 L-93.74 15.23 L-94.95 15.66 L-96.2 16 L-97.47 16.24 L-98.75 16.37 L-100 16.4 L-101.3 16.33 L-102.6 16.16 L-103.9 15.89 L-105.1 15.51 L-106.3 15.04 L-107.5 14.48 L-108.6 13.83 L-109.6 13.08 L-110.6 12.26 L-111.6 11.36 L-112.4 10.39 L-113.2 9.358 L-113.9 8.265 L-114.5 7.121 L-115 5.933 L-115.4 4.708 L-115.7 3.455 L-115.9 2.181 L-116 0.8946 L-116 -0.3967 L-115.9 -1.684 L-115.7 -2.96 L-115.4 -4.217 L-115 -5.445 L-114.5 -6.638 L-114 -7.788 L-113.3 -8.888 L-112.5 -9.931 L-111.7 -10.91 L-110.8 -11.82 L-109.8 -12.65 L-108.7 -13.4 L-107.6 -14.07 L-106.5 -14.64 L-105.3 -15.13 L-104 -15.51 L-102.8 -15.8 L-101.5 -15.99 L-100.2 -16.07 L-98.92 -16.05 L-97.63 -15.93 L-96.36 -15.7 L-95.11 -15.38 L-93.89 -14.96 L-92.71 -14.44 L-91.57 -13.83 L-90.48 -13.13 Z " />
<path stroke="rgb(0,0,0)" stroke-opacity="1" fill="rgb(255,255,255)" fill-opacity="1" d="M-288 -287.9 L-289 -287.9 L-290 -287.9 L-291 -287.9 L-292 -287.9 L-293 -287.9 L-294 -287.9 L-295 -287.9 L-296 -287.9 L-297 -288 L-298 -288 L-298.9 -288 L-299.9 -288 L-300.9 -288 L-301.9 -288 L-302.9 -288 L-303.9 -288 L-304.9 -288 L-305.9 -288 L-306.9 -288 L-307.9 -288 L-308.9 -288 L-309.8 -288 L-310.8 -288 L-311.8 -288 L-312.8 -288 L-312.8 -289 L-312.8 -290 L-312.8 -291 L-312.8 -292 L-312.8 -293 L-312.8 -294 L-312.8 -295 L-312.8 -296 L-312.8 -297 L-312.8 -298 L-312.8 -298.9 L-312.8 -299.9 L-312.8 -300.9 L-312.7 -301.9 L-312.7 -302.9 L-312.7 -303.9 L-312.7 -304.9 L-312.7 -305.9 L-312.7 -306.9 L-312.7 -307.9 L-312.7 -308.9 L-312.7 -309.9 L-312.7 -310.8 L-312.7 -311.8 L-312.7 -312.8 L-311.7 -312.8 L-310.7 -312.8 L-309.7 -312.8 L-308.7 -312.8 L-307.7 -312.8 L-306.7 -312.8 L-305.7 -312.8 L-304.8 -312.8 L-303.8 -312.8 L-302.8 -312.8 L-301.8 -312.8 L-300.8 -312.8 L-299.8 -312.8 L-298.8 -312.7 L-297.8 -312.7 L-296.8 -312.7 L-295.8 -312.7 L-294.8 -312.7 L-293.9 -312.7 L-292.9 -312.7 L-291.9 -312.7 L-290.9 -312.7 L-289.9 -312.7 L-288.9 -312.7 L-287.9 -312.7 L-287.9 -311.7 L-287.9 -310.7 L-287.9 -309.7 L-287.9 -308.7 L-287.9 -307.7 L-287.9 -306.7 L-287.9 -305.7 L-287.9 -304.8 L-288 -303.8 L-288 -302.8 L-288 -301.8 L-288 -300.8 L-288 -299.8 L-288 -298.8 L-288 -297.8 L-288 -296.8 L-288 -295.8 L-288 -294.8 L-288 -293.9 L-288 -292.9 L-288 -291.9 L-288 -290.9 L-288 -289.9 L-288 -288.9 L-288 -287.9 Z " />
<path stroke="rgb(0,0,0)" stroke-opacity="1" fill="rgb(255,255,255)" fill-opacity="1" d="M101.1 -12.57 L102.1 -12.47 L103.1 -12.28 L104.1 -12.02 L105 -11.68 L106 -11.27 L106.9 -10.78 L107.7 -10.23 L108.5 -9.605 L109.3 -8.922 L110 -8.181 L110.6 -7.388 L111.2 -6.547 L111.7 -5.664 L112.1 -4.744 L112.4 -3.793 L112.7 -2.817 L112.9 -1.822 L113 -0.8147 L113.1 0.1989 L113 1.212 L112.9 2.219 L112.7 3.212 L112.4 4.187 L112 5.136 L111.6 6.053 L111.1 6.933 L110.5 7.77 L109.9 8.56 L109.2 9.296 L108.4 9.974 L107.6 10.59 L106.8 11.14 L105.9 11.62 L105 12.03 L104 12.36 L103 12.62 L102 12.8 L101 12.89 L100 12.91 L99 12.85 L97.99 12.7 L97 12.48 L96.04 12.18 L95.09 11.8 L94.18 11.35 L93.32 10.83 L92.49 10.24 L91.71 9.589 L90.99 8.877 L90.33 8.109 L89.73 7.292 L89.19 6.429 L88.73 5.527 L88.34 4.59 L88.03 3.626 L87.79 2.64 L87.63 1.638 L87.56 0.6265 L87.56 -0.3877 L87.64 -1.398 L87.81 -2.399 L88.05 -3.384 L88.37 -4.346 L88.76 -5.28 L89.23 -6.18 L89.77 -7.039 L90.38 -7.853 L91.05 -8.616 L91.77 -9.324 L92.55 -9.972 L93.38 -10.56 L94.25 -11.07 L95.17 -11.52 L96.11 -11.89 L97.08 -12.18 L98.07 -12.4 L99.08 -12.54 L100.1 -12.59 L101.1 -12.57 Z " />
<path stroke="rgb(0,0,0)" stroke-opacity="1" fill="rgb(255,255,255)" fill-opacity="1" d="M-87.16 -287.3 L-88.15 -287.3 L-89.14 -287.3 L-90.13 -287.3 L-91.12 -287.3 L-92.12 -287.3 L-93.11 -287.3 L-94.1 -287.3 L-95.09 -287.3 L-96.08 -287.3 L-97.07 -287.2 L-98.06 -287.2 L-99.05 -287.2 L-100 -287.2 L-101 -287.2 L-102 -287.2 L-103 -287.2 L-104 -287.2 L-105 -287.2 L-106 -287.2 L-107 -287.2 L-108 -287.2 L-109 -287.2 L-110 -287.2 L-111 -287.2 L-111.9 -287.2 L-111.9 -288.1 L-112 -289.1 L-112 -290.1 L-112 -291.1 L-112 -292.1 L-112 -293.1 L-112 -294.1 L-112 -295.1 L-112 -296.1 L-112 -297.1 L-112 -298.1 L-112 -299.1 L-112 -300 L-112 -301 L-112 -302 L-112 -303 L-112 -304 L-112.1 -305 L-112.1 -306 L-112.1 -307 L-112.1 -308 L-112.1 -309 L-112.1 -310 L-112.1 -310.9 L-112.1 -311.9 L-111.1 -311.9 L-110.1 -312 L-109.1 -312 L-108.1 -312 L-107.1 -312 L-106.1 -312 L-105.2 -312 L-104.2 -312 L-103.2 -312 L-102.2 -312 L-101.2 -312 L-100.2 -312 L-99.21 -312 L-98.21 -312 L-97.22 -312 L-96.23 -312 L-95.24 -312 L-94.25 -312 L-93.26 -312.1 L-92.27 -312.1 L-91.27 -312.1 L-90.28 -312.1 L-89.29 -312.1 L-88.3 -312.1 L-87.31 -312.1 L-87.3 -311.1 L-87.3 -310.1 L-87.29 -309.1 L-87.28 -308.1 L-87.28 -307.1 L-87.27 -306.1 L-87.27 -305.2 L-87.26 -304.2 L-87.25 -303.2 L-87.25 -302.2 L-87.24 -301.2 L-87.24 -300.2 L-87.23 -299.2 L-87.22 -298.2 L-87.22 -297.2 L-87.21 -296.2 L-87.21 -295.2 L-87.2 -294.2 L-87.19 -293.3 L-87.19 -292.3 L-87.18 -291.3 L-87.18 -290.3 L-87.17 -289.3 L-87.16 -288.3 L-87.16 -287.3 Z " />
<path stroke="rgb(0,0,0)" stroke-opacity="1" fill="rgb(255,255,255)" fill-opacity="1" d="M300.4 -12.28 L301.4 -12.24 L302.4 -12.12 L303.3 -11.91 L304.3 -11.64 L305.2 -11.29 L306.1 -10.86 L306.9 -10.37 L307.8 -9.806 L308.5 -9.183 L309.2 -8.5 L309.9 -7.763 L310.5 -6.976 L311 -6.143 L311.5 -5.271 L311.9 -4.365 L312.2 -3.43 L312.5 -2.472 L312.6 -1.498 L312.7 -0.5127 L312.7 0.4764 L312.7 1.463 L312.5 2.442 L312.3 3.406 L312 4.35 L311.7 5.267 L311.2 6.152 L310.7 6.999 L310.1 7.803 L309.5 8.558 L308.8 9.261 L308 9.905 L307.2 10.49 L306.4 11.01 L305.5 11.46 L304.6 11.83 L303.7 12.14 L302.7 12.36 L301.7 12.52 L300.7 12.59 L299.7 12.58 L298.8 12.5 L297.8 12.34 L296.8 12.1 L295.9 11.78 L295 11.39 L294.1 10.93 L293.3 10.41 L292.5 9.813 L291.7 9.16 L291 8.449 L290.4 7.686 L289.8 6.876 L289.3 6.023 L288.9 5.133 L288.6 4.211 L288.3 3.264 L288.1 2.297 L287.9 1.317 L287.9 0.3293 L287.9 -0.6595 L288 -1.643 L288.2 -2.615 L288.4 -3.57 L288.8 -4.501 L289.2 -5.403 L289.7 -6.27 L290.2 -7.096 L290.8 -7.876 L291.5 -8.605 L292.2 -9.279 L293 -9.894 L293.8 -10.44 L294.7 -10.93 L295.6 -11.34 L296.5 -11.68 L297.4 -11.95 L298.4 -12.14 L299.4 -12.25 L300.4 -12.28 Z " />
<path stroke="rgb(0,0,0)" stroke-opacity="1" fill="rgb(255,255,255)" fill-opacity="1" d="M-588 -187.9 L-589 -187.9 L-590 -187.9 L-591 -187.9 L-592 -187.9 L-593 -187.9 L-594 -187.9 L-595 -187.9 L-596 -187.9 L-597 -188 L-598 -188 L-598.9 -188 L-599.9 -188 L-600.9 -188 L-601.9 -188 L-602.9 -188 L-603.9 -188 L-604.9 -188 L-605.9 -188 L-606.9 -188 L-607.9 -188 L-608.9 -188 L-609.8 -188 L-610.8 -188 L-611.8 -188 L-612.8 -188 L-612.8 -189 L-612.8 -190 L-612.8 -191 L-612.8 -192 L-612.8 -193 L-612.8 -194 L-612.8 -195 L-612.8 -196 L-612.8 -197 L-612.8 -198 L-612.8 -198.9 L-612.8 -199.9 L-612.8 -200.9 L-612.7 -201.9 L-612.7 -202.9 L-612.7 -203.9 L-612.7 -204.9 L-612.7 -205.9 L-612.7 -206.9 L-612.7 -207.9 L-612.7 -208.9 L-612.7 -209.9 L-612.7 -210.8 L-612.7 -211.8 L-612.7 -212.8 L-611.7 -212.8 L-610.7 -212.8 L-609.7 -212.8 L-608.7 -212.8 L-607.7 -212.8 L-606.7 -212.8 L-605.7 -212.8 L-604.8 -212.8 L-603.8 -212.8 L-602.8 -212.8 L-601.8 -212.8 L-600.8 -212.8 L-599.8 -212.8 L-598.8 -212.7 L-597.8 -212.7 L-596.8 -212.7 L-595.8 -212.7 L-594.8 -212.7 L-593.9 -212.7 L-592.9 -212.7 L-591.9 -212.7 L-590.9 -212.7 L-589.9 -212.7 L-588.9 -212.7 L-587.9 -212.7 L-587.9 -211.7 L-587.9 -210.7 L-587.9 -209.7 L-587.9 -208.7 L-587.9 -207.7 L-587.9 -206.7 L-587.9 -205.7 L-587.9 -204.8 L-588 -203.8 L-588 -202.8 L-588 -201.8 L-588 -200.8 L-588 -199.8 L-588 -198.8 L-588 -197.8 L-588 -196.8 L-588 -195.8 L-588 -194.8 L-588 -193.9 L-588 -192.9 L-588 -191.9 L-588 -190.9 L-588 -189.9 L-588 -188.9 L-588 -187.9 Z " />
<path stroke="rgb(0,0,0)" stroke-opacity="1" fill="rgb(255,255,255)" fill-opacity="1" d="M-190.5 86.87 L-189.5 87.65 L-188.5 88.51 L-187.6 89.45 L-186.8 90.45 L-186.1 91.51 L-185.4 92.63 L-184.9 93.8 L-184.4 95.01 L-184 96.25 L-183.8 97.51 L-183.6 98.79 L-183.6 100.1 L-183.6 101.4 L-183.8 102.7 L-184 103.9 L-184.4 105.2 L-184.8 106.4 L-185.3 107.6 L-186 108.7 L-186.7 109.7 L-187.5 110.8 L-188.4 111.7 L-189.3 112.6 L-190.3 113.4 L-191.4 114.1 L-192.6 114.7 L-193.7 115.2 L-195 115.7 L-196.2 116 L-197.5 116.2 L-198.8 116.4 L-200 116.4 L-201.3 116.3 L-202.6 116.2 L-203.9 115.9 L-205.1 115.5 L-206.3 115 L-207.5 114.5 L-208.6 113.8 L-209.6 113.1 L-210.6 112.3 L-211.6 111.4 L-212.4 110.4 L-213.2 109.4 L-213.9 108.3 L-214.5 107.1 L-215 105.9 L-215.4 104.7 L-215.7 103.5 L-215.9 102.2 L-216 100.9 L-216 99.6 L-215.9 98.32 L-215.7 97.04 L-215.4 95.78 L-215 94.55 L-214.5 93.36 L-214 92.21 L-213.3 91.11 L-212.5 90.07 L-211.7 89.09 L-210.8 88.18 L-209.8 87.35 L-208.7 86.6 L-207.6 85.93 L-206.5 85.36 L-205.3 84.87 L-204 84.49 L-202.8 84.2 L-201.5 84.01 L-200.2 83.93 L-198.9 83.95 L-197.6 84.07 L-196.4 84.3 L-195.1 84.62 L-193.9 85.04 L-192.7 85.56 L-191.6 86.17 L-190.5 86.87 Z " />
<path stroke="rgb(0,0,0)" stroke-opacity="1" fill="rgb(255,255,255)" fill-opacity="1" d="M-388 -187.9 L-389 -187.9 L-390 -187.9 L-391 -187.9 L-392 -187.9 L-393 -187.9 L-394 -187.9 L-395 -187.9 L-396 -187.9 L-397 -188 L-398 -188 L-398.9 -188 L-399.9 -188 L-400.9 -188 L-401.9 -188 L-402.9 -188 L-403.9 -188 L-404.9 -188 L-405.9 -188 L-406.9 -188 L-407.9 -188 L-408.9 -188 L-409.8 -188 L-410.8 -188 L-411.8 -188 L-412.8 -188 L-412.8 -189 L-412.8 -190 L-412.8 -191 L-412.8 -192 L-412.8 -193 L-412.8 -194 L-412.8 -195 L-412.8 -196 L-412.8 -197 L-412.8 -198 L-412.8 -198.9 L-412.8 -199.9 L-412.8 -200.9 L-412.7 -201.9 L-412.7 -202.9 L-412.7 -203.9 L-412.7 -204.9 L-412.7 -205.9 L-412.7 -206.9 L-412.7 -207.9 L-412.7 -208.9 L-412.7 -209.9 L-412.7 -210.8 L-412.7 -211.8 L-412.7 -212.8 L-411.7 -212.8 L-410.7 -212.8 L-409.7 -212.8 L-408.7 -212.8 L-407.7 -212.8 L-406.7 -212.8 L-405.7 -212.8 L-404.8 -212.8 L-403.8 -212.8 L-402.8 -212.8 L-401.8 -212.8 L-400.8 -212.8 L-399.8 -212.8 L-398.8 -212.7 L-397.8 -212.7 L-396.8 -212.7 L-395.8 -212.7 L-394.8 -212.7 L-393.9 -212.7 L-392.9 -212.7 L-391.9 -212.7 L-390.9 -212.7 L-389.9 -212.7 L-388.9 -212.7 L-387.9 -212.7 L-387.9 -211.7 L-387.9 -210.7 L-387.9 -209.7 L-387.9 -208.7 L-387.9 -207.7 L-387.9 -206.7 L-387.9 -205.7 L-387.9 -204.8 L-388 -203.8 L-388 -202.8 L-388 -201.8 L-388 -200.8 L-388 -199.8 L-388 -198.8 L-388 -197.8 L-388 -196.8 L-388 -195.8 L-388 -194.8 L-388 -193.9 L-388 -192.9 L-388 -191.9 L-388 -190.9 L-388 -189.9 L-388 -188.9 L-388 -187.9 Z " />
<path stroke="rgb(0,0,0)" stroke-opacity="1" fill="rgb(255,255,255)" fill-opacity="1" d="M1.103 87.43 L2.111 87.53 L3.109 87.72 L4.089 87.98 L5.044 88.32 L5.97 88.73 L6.86 89.22 L7.709 89.77 L8.51 90.4 L9.26 91.08 L9.953 91.82 L10.59 92.61 L11.15 93.45 L11.65 94.34 L12.08 95.26 L12.43 96.21 L12.71 97.18 L12.9 98.18 L13.02 99.19 L13.06 100.2 L13.01 101.2 L12.89 102.2 L12.69 103.2 L12.41 104.2 L12.05 105.1 L11.61 106.1 L11.11 106.9 L10.54 107.8 L9.901 108.6 L9.203 109.3 L8.449 110 L7.644 110.6 L6.792 111.1 L5.899 111.6 L4.971 112 L4.013 112.4 L3.031 112.6 L2.033 112.8 L1.023 112.9 L0.009161 112.9 L-1.003 112.8 L-2.007 112.7 L-2.996 112.5 L-3.965 112.2 L-4.906 111.8 L-5.815 111.4 L-6.685 110.8 L-7.511 110.2 L-8.287 109.6 L-9.009 108.9 L-9.672 108.1 L-10.27 107.3 L-10.81 106.4 L-11.27 105.5 L-11.66 104.6 L-11.97 103.6 L-12.21 102.6 L-12.37 101.6 L-12.44 100.6 L-12.44 99.61 L-12.36 98.6 L-12.19 97.6 L-11.95 96.62 L-11.63 95.65 L-11.24 94.72 L-10.77 93.82 L-10.23 92.96 L-9.623 92.15 L-8.955 91.38 L-8.228 90.68 L-7.448 90.03 L-6.618 89.44 L-5.745 88.93 L-4.834 88.48 L-3.89 88.11 L-2.92 87.82 L-1.929 87.6 L-0.924 87.46 L0.08863 87.41 L1.103 87.43 Z " />
<path stroke="rgb(0,0,0)" stroke-opacity="1" fill="rgb(255,255,255)" fill-opacity="1" d="M-187.2 -187.3 L-188.1 -187.3 L-189.1 -187.3 L-190.1 -187.3 L-191.1 -187.3 L-192.1 -187.3 L-193.1 -187.3 L-194.1 -187.3 L-195.1 -187.3 L-196.1 -187.3 L-197.1 -187.2 L-198.1 -187.2 L-199.1 -187.2 L-200 -187.2 L-201 -187.2 L-202 -187.2 L-203 -187.2 L-204 -187.2 L-205 -187.2 L-206 -187.2 L-207 -187.2 L-208 -187.2 L-209 -187.2 L-210 -187.2 L-211 -187.2 L-211.9 -187.2 L-211.9 -188.1 L-212 -189.1 L-212 -190.1 L-212 -191.1 L-212 -192.1 L-212 -193.1 L-212 -194.1 L-212 -195.1 L-212 -196.1 L-212 -197.1 L-212 -198.1 L-212 -199.1 L-212 -200 L-212 -201 L-212 -202 L-212 -203 L-212 -204 L-212.1 -205 L-212.1 -206 L-212.1 -207 L-212.1 -208 L-212.1 -209 L-212.1 -210 L-212.1 -210.9 L-212.1 -211.9 L-211.1 -211.9 L-210.1 -212 L-209.1 -212 L-208.1 -212 L-207.1 -212 L-206.1 -212 L-205.2 -212 L-204.2 -212 L-203.2 -212 L-202.2 -212 L-201.2 -212 L-200.2 -212 L-199.2 -212 L-198.2 -212 L-197.2 -212 L-196.2 -212 L-195.2 -212 L-194.2 -212 L-193.3 -212.1 L-192.3 -212.1 L-191.3 -212.1 L-190.3 -212.1 L-189.3 -212.1 L-188.3 -212.1 L-187.3 -212.1 L-187.3 -211.1 L-187.3 -210.1 L-187.3 -209.1 L-187.3 -208.1 L-187.3 -207.1 L-187.3 -206.1 L-187.3 -205.2 L-187.3 -204.2 L-187.3 -203.2 L-187.2 -202.2 L-187.2 -201.2 L-187.2 -200.2 L-187.2 -199.2 L-187.2 -198.2 L-187.2 -197.2 L-187.2 -196.2 L-187.2 -195.2 L-187.2 -194.2 L-187.2 -193.3 L-187.2 -192.3 L-187.2 -191.3 L-187.2 -190.3 L-187.2 -189.3 L-187.2 -188.3 L-187.2 -187.3 Z " />
<path stroke="rgb(0,0,0)" stroke-opacity="1" fill="rgb(255,255,255)" fill-opacity="1" d="M200.4 87.72 L201.4 87.76 L202.4 87.88 L203.3 88.09 L204.3 88.36 L205.2 88.71 L206.1 89.14 L206.9 89.63 L207.8 90.19 L208.5 90.82 L209.2 91.5 L209.9 92.24 L210.5 93.02 L211 93.86 L211.5 94.73 L211.9 95.64 L212.2 96.57 L212.5 97.53 L212.6 98.5 L212.7 99.49 L212.7 100.5 L212.7 101.5 L212.5 102.4 L212.3 103.4 L212 104.4 L211.7 105.3 L211.2 106.2 L210.7 107 L210.1 107.8 L209.5 108.6 L208.8 109.3 L208 109.9 L207.2 110.5 L206.4 111 L205.5 111.5 L204.6 111.8 L203.7 112.1 L202.7 112.4 L201.7 112.5 L200.7 112.6 L199.7 112.6 L198.8 112.5 L197.8 112.3 L196.8 112.1 L195.9 111.8 L195 111.4 L194.1 110.9 L193.3 110.4 L192.5 109.8 L191.7 109.2 L191 108.4 L190.4 107.7 L189.8 106.9 L189.3 106 L188.9 105.1 L188.6 104.2 L188.3 103.3 L188.1 102.3 L187.9 101.3 L187.9 100.3 L187.9 99.34 L188 98.36 L188.2 97.38 L188.4 96.43 L188.8 95.5 L189.2 94.6 L189.7 93.73 L190.2 92.9 L190.8 92.12 L191.5 91.39 L192.2 90.72 L193 90.11 L193.8 89.56 L194.7 89.07 L195.6 88.66 L196.5 88.32 L197.4 88.05 L198.4 87.86 L199.4 87.75 L200.4 87.72 Z " />
<path stroke="rgb(0,0,0)" stroke-opacity="1" fill="rgb(255,255,255)" fill-opacity="1" d="M17.59 -184.1 L16.6 -184 L15.61 -184 L14.62 -183.9 L13.63 -183.8 L12.64 -183.8 L11.65 -183.7 L10.67 -183.6 L9.676 -183.6 L8.687 -183.5 L7.698 -183.4 L6.709 -183.4 L5.72 -183.3 L4.731 -183.2 L3.742 -183.1 L2.753 -183.1 L1.764 -183 L0.7745 -182.9 L-0.2146 -182.9 L-1.204 -182.8 L-2.193 -182.7 L-3.182 -182.7 L-4.171 -182.6 L-5.16 -182.5 L-6.149 -182.5 L-7.138 -182.4 L-7.207 -183.4 L-7.275 -184.4 L-7.343 -185.4 L-7.412 -186.4 L-7.48 -187.3 L-7.548 -188.3 L-7.617 -189.3 L-7.685 -190.3 L-7.753 -191.3 L-7.822 -192.3 L-7.89 -193.3 L-7.958 -194.3 L-8.027 -195.3 L-8.095 -196.2 L-8.163 -197.2 L-8.232 -198.2 L-8.3 -199.2 L-8.368 -200.2 L-8.437 -201.2 L-8.505 -202.2 L-8.573 -203.2 L-8.642 -204.2 L-8.71 -205.1 L-8.778 -206.1 L-8.847 -207.1 L-7.857 -207.2 L-6.868 -207.3 L-5.879 -207.3 L-4.89 -207.4 L-3.901 -207.5 L-2.912 -207.5 L-1.923 -207.6 L-0.9338 -207.7 L0.05527 -207.7 L1.044 -207.8 L2.033 -207.9 L3.023 -207.9 L4.012 -208 L5.001 -208.1 L5.99 -208.1 L6.979 -208.2 L7.968 -208.3 L8.957 -208.4 L9.946 -208.4 L10.94 -208.5 L11.92 -208.6 L12.91 -208.6 L13.9 -208.7 L14.89 -208.8 L15.88 -208.8 L15.95 -207.8 L16.02 -206.9 L16.09 -205.9 L16.15 -204.9 L16.22 -203.9 L16.29 -202.9 L16.36 -201.9 L16.43 -200.9 L16.5 -199.9 L16.56 -198.9 L16.63 -197.9 L16.7 -197 L16.77 -196 L16.84 -195 L16.91 -194 L16.97 -193 L17.04 -192 L17.11 -191 L17.18 -190 L17.25 -189 L17.32 -188.1 L17.38 -187.1 L17.45 -186.1 L17.52 -185.1 L17.59 -184.1 Z " />
<path stroke="rgb(0,0,0)" stroke-opacity="1" fill="rgb(255,255,255)" fill-opacity="1" d="M-290.5 186.9 L-289.5 187.6 L-288.5 188.5 L-287.6 189.4 L-286.8 190.4 L-286.1 191.5 L-285.4 192.6 L-284.9 193.8 L-284.4 195 L-284 196.2 L-283.8 197.5 L-283.6 198.8 L-283.6 200.1 L-283.6 201.4 L-283.8 202.7 L-284 203.9 L-284.4 205.2 L-284.8 206.4 L-285.3 207.6 L-286 208.7 L-286.7 209.7 L-287.5 210.8 L-288.4 211.7 L-289.3 212.6 L-290.3 213.4 L-291.4 214.1 L-292.6 214.7 L-293.7 215.2 L-295 215.7 L-296.2 216 L-297.5 216.2 L-298.8 216.4 L-300 216.4 L-301.3 216.3 L-302.6 216.2 L-303.9 215.9 L-305.1 215.5 L-306.3 215 L-307.5 214.5 L-308.6 213.8 L-309.6 213.1 L-310.6 212.3 L-311.6 211.4 L-312.4 210.4 L-313.2 209.4 L-313.9 208.3 L-314.5 207.1 L-315 205.9 L-315.4 204.7 L-315.7 203.5 L-315.9 202.2 L-316 200.9 L-316 199.6 L-315.9 198.3 L-315.7 197 L-315.4 195.8 L-315 194.6 L-314.5 193.4 L-314 192.2 L-313.3 191.1 L-312.5 190.1 L-311.7 189.1 L-310.8 188.2 L-309.8 187.3 L-308.7 186.6 L-307.6 185.9 L-306.5 185.4 L-305.3 184.9 L-304 184.5 L-302.8 184.2 L-301.5 184 L-300.2 183.9 L-298.9 184 L-297.6 184.1 L-296.4 184.3 L-295.1 184.6 L-293.9 185 L-292.7 185.6 L-291.6 186.2 L-290.5 186.9 Z " />
<path stroke="rgb(0,0,0)" stroke-opacity="1" fill="rgb(255,255,255)" fill-opacity="1" d="M-488 -87.9 L-489 -87.91 L-490 -87.91 L-491 -87.92 L-492 -87.93 L-493 -87.93 L-494 -87.94 L-495 -87.94 L-496 -87.95 L-497 -87.95 L-498 -87.96 L-498.9 -87.96 L-499.9 -87.97 L-500.9 -87.97 L-501.9 -87.98 L-502.9 -87.99 L-503.9 -87.99 L-504.9 -88 L-505.9 -88 L-506.9 -88.01 L-507.9 -88.01 L-508.9 -88.02 L-509.8 -88.02 L-510.8 -88.03 L-511.8 -88.04 L-512.8 -88.04 L-512.8 -89.03 L-512.8 -90.02 L-512.8 -91.01 L-512.8 -92.01 L-512.8 -93 L-512.8 -93.99 L-512.8 -94.98 L-512.8 -95.97 L-512.8 -96.96 L-512.8 -97.95 L-512.8 -98.95 L-512.8 -99.94 L-512.8 -100.9 L-512.7 -101.9 L-512.7 -102.9 L-512.7 -103.9 L-512.7 -104.9 L-512.7 -105.9 L-512.7 -106.9 L-512.7 -107.9 L-512.7 -108.9 L-512.7 -109.9 L-512.7 -110.8 L-512.7 -111.8 L-512.7 -112.8 L-511.7 -112.8 L-510.7 -112.8 L-509.7 -112.8 L-508.7 -112.8 L-507.7 -112.8 L-506.7 -112.8 L-505.7 -112.8 L-504.8 -112.8 L-503.8 -112.8 L-502.8 -112.8 L-501.8 -112.8 L-500.8 -112.8 L-499.8 -112.8 L-498.8 -112.7 L-497.8 -112.7 L-496.8 -112.7 L-495.8 -112.7 L-494.8 -112.7 L-493.9 -112.7 L-492.9 -112.7 L-491.9 -112.7 L-490.9 -112.7 L-489.9 -112.7 L-488.9 -112.7 L-487.9 -112.7 L-487.9 -111.7 L-487.9 -110.7 L-487.9 -109.7 L-487.9 -108.7 L-487.9 -107.7 L-487.9 -106.7 L-487.9 -105.7 L-487.9 -104.8 L-488 -103.8 L-488 -102.8 L-488 -101.8 L-488 -100.8 L-488 -99.8 L-488 -98.81 L-488 -97.82 L-488 -96.83 L-488 -95.83 L-488 -94.84 L-488 -93.85 L-488 -92.86 L-488 -91.87 L-488 -90.88 L-488 -89.89 L-488 -88.9 L-488 -87.9 Z " />
<path stroke="rgb(0,0,0)" stroke-opacity="1" fill="rgb(255,255,255)" fill-opacity="1" d="M-98.9 187.4 L-97.89 187.5 L-96.89 187.7 L-95.91 188 L-94.96 188.3 L-94.03 188.7 L-93.14 189.2 L-92.29 189.8 L-91.49 190.4 L-90.74 191.1 L-90.05 191.8 L-89.41 192.6 L-88.85 193.5 L-88.35 194.3 L-87.92 195.3 L-87.57 196.2 L-87.29 197.2 L-87.1 198.2 L-86.98 199.2 L-86.94 200.2 L-86.99 201.2 L-87.11 202.2 L-87.31 203.2 L-87.59 204.2 L-87.95 205.1 L-88.39 206.1 L-88.89 206.9 L-89.46 207.8 L-90.1 208.6 L-90.8 209.3 L-91.55 210 L-92.36 210.6 L-93.21 211.1 L-94.1 211.6 L-95.03 212 L-95.99 212.4 L-96.97 212.6 L-97.97 212.8 L-98.98 212.9 L-99.99 212.9 L-101 212.8 L-102 212.7 L-103 212.5 L-104 212.2 L-104.9 211.8 L-105.8 211.4 L-106.7 210.8 L-107.5 210.2 L-108.3 209.6 L-109 208.9 L-109.7 208.1 L-110.3 207.3 L-110.8 206.4 L-111.3 205.5 L-111.7 204.6 L-112 203.6 L-112.2 202.6 L-112.4 201.6 L-112.4 200.6 L-112.4 199.6 L-112.4 198.6 L-112.2 197.6 L-112 196.6 L-111.6 195.7 L-111.2 194.7 L-110.8 193.8 L-110.2 193 L-109.6 192.1 L-109 191.4 L-108.2 190.7 L-107.4 190 L-106.6 189.4 L-105.7 188.9 L-104.8 188.5 L-103.9 188.1 L-102.9 187.8 L-101.9 187.6 L-100.9 187.5 L-99.91 187.4 L-98.9 187.4 Z " />
<path stroke="rgb(0,0,0)" stroke-opacity="1" fill="rgb(255,255,255)" fill-opacity="1" d="M-287.2 -87.31 L-288.1 -87.3 L-289.1 -87.3 L-290.1 -87.29 L-291.1 -87.28 L-292.1 -87.28 L-293.1 -87.27 L-294.1 -87.27 L-295.1 -87.26 L-296.1 -87.25 L-297.1 -87.25 L-298.1 -87.24 L-299.1 -87.24 L-300 -87.23 L-301 -87.22 L-302 -87.22 L-303 -87.21 L-304 -87.2 L-305 -87.2 L-306 -87.19 L-307 -87.19 L-308 -87.18 L-309 -87.17 L-310 -87.17 L-311 -87.16 L-311.9 -87.16 L-311.9 -88.15 L-312 -89.14 L-312 -90.13 L-312 -91.12 L-312 -92.11 L-312 -93.11 L-312 -94.1 L-312 -95.09 L-312 -96.08 L-312 -97.07 L-312 -98.06 L-312 -99.05 L-312 -100 L-312 -101 L-312 -102 L-312 -103 L-312 -104 L-312.1 -105 L-312.1 -106 L-312.1 -107 L-312.1 -108 L-312.1 -109 L-312.1 -110 L-312.1 -110.9 L-312.1 -111.9 L-311.1 -111.9 L-310.1 -112 L-309.1 -112 L-308.1 -112 L-307.1 -112 L-306.1 -112 L-305.2 -112 L-304.2 -112 L-303.2 -112 L-302.2 -112 L-301.2 -112 L-300.2 -112 L-299.2 -112 L-298.2 -112 L-297.2 -112 L-296.2 -112 L-295.2 -112 L-294.2 -112 L-293.3 -112.1 L-292.3 -112.1 L-291.3 -112.1 L-290.3 -112.1 L-289.3 -112.1 L-288.3 -112.1 L-287.3 -112.1 L-287.3 -111.1 L-287.3 -110.1 L-287.3 -109.1 L-287.3 -108.1 L-287.3 -107.1 L-287.3 -106.1 L-287.3 -105.2 L-287.3 -104.2 L-287.3 -103.2 L-287.2 -102.2 L-287.2 -101.2 L-287.2 -100.2 L-287.2 -99.2 L-287.2 -98.21 L-287.2 -97.22 L-287.2 -96.23 L-287.2 -95.24 L-287.2 -94.25 L-287.2 -93.26 L-287.2 -92.26 L-287.2 -91.27 L-287.2 -90.28 L-287.2 -89.29 L-287.2 -88.3 L-287.2 -87.31 Z " />
<path stroke="rgb(0,0,0)" stroke-opacity="1" fill="rgb(255,255,255)" fill-opacity="1" d="M100.4 187.7 L101.4 187.8 L102.4 187.9 L103.3 188.1 L104.3 188.4 L105.2 188.7 L106.1 189.1 L106.9 189.6 L107.8 190.2 L108.5 190.8 L109.2 191.5 L109.9 192.2 L110.5 193 L111 193.9 L111.5 194.7 L111.9 195.6 L112.2 196.6 L112.5 197.5 L112.6 198.5 L112.7 199.5 L112.7 200.5 L112.7 201.5 L112.5 202.4 L112.3 203.4 L112 204.4 L111.7 205.3 L111.2 206.2 L110.7 207 L110.1 207.8 L109.5 208.6 L108.8 209.3 L108 209.9 L107.2 210.5 L106.4 211 L105.5 211.5 L104.6 211.8 L103.7 212.1 L102.7 212.4 L101.7 212.5 L100.7 212.6 L99.74 212.6 L98.76 212.5 L97.78 212.3 L96.82 212.1 L95.88 211.8 L94.98 211.4 L94.1 210.9 L93.26 210.4 L92.47 209.8 L91.73 209.2 L91.04 208.4 L90.41 207.7 L89.84 206.9 L89.34 206 L88.91 205.1 L88.55 204.2 L88.27 203.3 L88.06 202.3 L87.93 201.3 L87.87 200.3 L87.9 199.3 L88 198.4 L88.18 197.4 L88.44 196.4 L88.78 195.5 L89.18 194.6 L89.66 193.7 L90.2 192.9 L90.81 192.1 L91.48 191.4 L92.2 190.7 L92.98 190.1 L93.8 189.6 L94.66 189.1 L95.56 188.7 L96.49 188.3 L97.44 188.1 L98.41 187.9 L99.4 187.7 L100.4 187.7 Z " />
<path stroke="rgb(0,0,0)" stroke-opacity="1" fill="rgb(255,255,255)" fill-opacity="1" d="M-82.41 -84.1 L-83.4 -84.03 L-84.39 -83.97 L-85.38 -83.9 L-86.37 -83.83 L-87.36 -83.76 L-88.35 -83.69 L-89.33 -83.62 L-90.32 -83.56 L-91.31 -83.49 L-92.3 -83.42 L-93.29 -83.35 L-94.28 -83.28 L-95.27 -83.21 L-96.26 -83.15 L-97.25 -83.08 L-98.24 -83.01 L-99.23 -82.94 L-100.2 -82.87 L-101.2 -82.8 L-102.2 -82.74 L-103.2 -82.67 L-104.2 -82.6 L-105.2 -82.53 L-106.1 -82.46 L-107.1 -82.39 L-107.2 -83.38 L-107.3 -84.37 L-107.3 -85.36 L-107.4 -86.35 L-107.5 -87.34 L-107.5 -88.33 L-107.6 -89.32 L-107.7 -90.31 L-107.8 -91.3 L-107.8 -92.28 L-107.9 -93.27 L-108 -94.26 L-108 -95.25 L-108.1 -96.24 L-108.2 -97.23 L-108.2 -98.22 L-108.3 -99.21 L-108.4 -100.2 L-108.4 -101.2 L-108.5 -102.2 L-108.6 -103.2 L-108.6 -104.2 L-108.7 -105.1 L-108.8 -106.1 L-108.8 -107.1 L-107.9 -107.2 L-106.9 -107.3 L-105.9 -107.3 L-104.9 -107.4 L-103.9 -107.5 L-102.9 -107.5 L-101.9 -107.6 L-100.9 -107.7 L-99.94 -107.7 L-98.96 -107.8 L-97.97 -107.9 L-96.98 -107.9 L-95.99 -108 L-95 -108.1 L-94.01 -108.1 L-93.02 -108.2 L-92.03 -108.3 L-91.04 -108.4 L-90.05 -108.4 L-89.06 -108.5 L-88.08 -108.6 L-87.09 -108.6 L-86.1 -108.7 L-85.11 -108.8 L-84.12 -108.8 L-84.05 -107.8 L-83.98 -106.9 L-83.91 -105.9 L-83.85 -104.9 L-83.78 -103.9 L-83.71 -102.9 L-83.64 -101.9 L-83.57 -100.9 L-83.5 -99.93 L-83.44 -98.94 L-83.37 -97.95 L-83.3 -96.96 L-83.23 -95.97 L-83.16 -94.98 L-83.09 -93.99 L-83.03 -93 L-82.96 -92.02 L-82.89 -91.03 L-82.82 -90.04 L-82.75 -89.05 L-82.68 -88.06 L-82.62 -87.07 L-82.55 -86.08 L-82.48 -85.09 L-82.41 -84.1 Z " />
<path stroke="rgb(0,0,0)" stroke-opacity="1" fill="rgb(255,255,255)" fill-opacity="1" d="M300.4 187.7 L301.4 187.8 L302.4 187.9 L303.3 188.1 L304.3 188.4 L305.2 188.7 L306.1 189.1 L306.9 189.6 L307.8 190.2 L308.5 190.8 L309.2 191.5 L309.9 192.2 L310.5 193 L311 193.9 L311.5 194.7 L311.9 195.6 L312.2 196.6 L312.5 197.5 L312.6 198.5 L312.7 199.5 L312.7 200.5 L312.7 201.5 L312.5 202.4 L312.3 203.4 L312 204.4 L311.7 205.3 L311.2 206.2 L310.7 207 L310.1 207.8 L309.5 208.6 L308.8 209.3 L308 209.9 L307.2 210.5 L306.4 211 L305.5 211.5 L304.6 211.8 L303.7 212.1 L302.7 212.4 L301.7 212.5 L300.7 212.6 L299.7 212.6 L298.8 212.5 L297.8 212.3 L296.8 212.1 L295.9 211.8 L295 211.4 L294.1 210.9 L293.3 210.4 L292.5 209.8 L291.7 209.2 L291 208.4 L290.4 207.7 L289.8 206.9 L289.3 206 L288.9 205.1 L288.6 204.2 L288.3 203.3 L288.1 202.3 L287.9 201.3 L287.9 200.3 L287.9 199.3 L288 198.4 L288.2 197.4 L288.4 196.4 L288.8 195.5 L289.2 194.6 L289.7 193.7 L290.2 192.9 L290.8 192.1 L291.5 191.4 L292.2 190.7 L293 190.1 L293.8 189.6 L294.7 189.1 L295.6 188.7 L296.5 188.3 L297.4 188.1 L298.4 187.9 L299.4 187.7 L300.4 187.7 Z " />
<path stroke="rgb(0,0,0)" stroke-opacity="1" fill="rgb(255,255,255)" fill-opacity="1" d="M-588 12.1 L-589 12.09 L-590 12.09 L-591 12.08 L-592 12.07 L-593 12.07 L-594 12.06 L-595 12.06 L-596 12.05 L-597 12.05 L-598 12.04 L-598.9 12.04 L-599.9 12.03 L-600.9 12.03 L-601.9 12.02 L-602.9 12.01 L-603.9 12.01 L-604.9 12 L-605.9 12 L-606.9 11.99 L-607.9 11.99 L-608.9 11.98 L-609.8 11.98 L-610.8 11.97 L-611.8 11.96 L-612.8 11.96 L-612.8 10.97 L-612.8 9.977 L-612.8 8.985 L-612.8 7.994 L-612.8 7.002 L-612.8 6.011 L-612.8 5.02 L-612.8 4.028 L-612.8 3.037 L-612.8 2.045 L-612.8 1.054 L-612.8 0.06274 L-612.8 -0.9286 L-612.7 -1.92 L-612.7 -2.911 L-612.7 -3.903 L-612.7 -4.894 L-612.7 -5.886 L-612.7 -6.877 L-612.7 -7.868 L-612.7 -8.86 L-612.7 -9.851 L-612.7 -10.84 L-612.7 -11.83 L-612.7 -12.83 L-611.7 -12.82 L-610.7 -12.81 L-609.7 -12.81 L-608.7 -12.8 L-607.7 -12.8 L-606.7 -12.79 L-605.7 -12.79 L-604.8 -12.78 L-603.8 -12.78 L-602.8 -12.77 L-601.8 -12.76 L-600.8 -12.76 L-599.8 -12.75 L-598.8 -12.75 L-597.8 -12.74 L-596.8 -12.74 L-595.8 -12.73 L-594.8 -12.73 L-593.9 -12.72 L-592.9 -12.72 L-591.9 -12.71 L-590.9 -12.7 L-589.9 -12.7 L-588.9 -12.69 L-587.9 -12.69 L-587.9 -11.7 L-587.9 -10.71 L-587.9 -9.714 L-587.9 -8.723 L-587.9 -7.731 L-587.9 -6.74 L-587.9 -5.748 L-587.9 -4.757 L-588 -3.766 L-588 -2.774 L-588 -1.783 L-588 -0.7916 L-588 0.1998 L-588 1.191 L-588 2.183 L-588 3.174 L-588 4.165 L-588 5.157 L-588 6.148 L-588 7.139 L-588 8.131 L-588 9.122 L-588 10.11 L-588 11.1 L-588 12.1 Z " />
<path stroke="rgb(0,0,0)" stroke-opacity="1" fill="rgb(255,255,255)" fill-opacity="1" d="M-198.9 287.4 L-197.9 287.5 L-196.9 287.7 L-195.9 288 L-195 288.3 L-194 288.7 L-193.1 289.2 L-192.3 289.8 L-191.5 290.4 L-190.7 291.1 L-190 291.8 L-189.4 292.6 L-188.8 293.5 L-188.3 294.3 L-187.9 295.3 L-187.6 296.2 L-187.3 297.2 L-187.1 298.2 L-187 299.2 L-186.9 300.2 L-187 301.2 L-187.1 302.2 L-187.3 303.2 L-187.6 304.2 L-188 305.1 L-188.4 306.1 L-188.9 306.9 L-189.5 307.8 L-190.1 308.6 L-190.8 309.3 L-191.6 310 L-192.4 310.6 L-193.2 311.1 L-194.1 311.6 L-195 312 L-196 312.4 L-197 312.6 L-198 312.8 L-199 312.9 L-200 312.9 L-201 312.8 L-202 312.7 L-203 312.5 L-204 312.2 L-204.9 311.8 L-205.8 311.4 L-206.7 310.8 L-207.5 310.2 L-208.3 309.6 L-209 308.9 L-209.7 308.1 L-210.3 307.3 L-210.8 306.4 L-211.3 305.5 L-211.7 304.6 L-212 303.6 L-212.2 302.6 L-212.4 301.6 L-212.4 300.6 L-212.4 299.6 L-212.4 298.6 L-212.2 297.6 L-212 296.6 L-211.6 295.7 L-211.2 294.7 L-210.8 293.8 L-210.2 293 L-209.6 292.1 L-209 291.4 L-208.2 290.7 L-207.4 290 L-206.6 289.4 L-205.7 288.9 L-204.8 288.5 L-203.9 288.1 L-202.9 287.8 L-201.9 287.6 L-200.9 287.5 L-199.9 287.4 L-198.9 287.4 Z " />
<path stroke="rgb(0,0,0)" stroke-opacity="1" fill="rgb(255,255,255)" fill-opacity="1" d="M-387.2 12.69 L-388.1 12.7 L-389.1 12.7 L-390.1 12.71 L-391.1 12.72 L-392.1 12.72 L-393.1 12.73 L-394.1 12.73 L-395.1 12.74 L-396.1 12.75 L-397.1 12.75 L-398.1 12.76 L-399.1 12.76 L-400 12.77 L-401 12.78 L-402 12.78 L-403 12.79 L-404 12.8 L-405 12.8 L-406 12.81 L-407 12.81 L-408 12.82 L-409 12.83 L-410 12.83 L-411 12.84 L-411.9 12.84 L-411.9 11.85 L-412 10.86 L-412 9.869 L-412 8.878 L-412 7.886 L-412 6.895 L-412 5.904 L-412 4.912 L-412 3.921 L-412 2.929 L-412 1.938 L-412 0.9466 L-412 -0.04474 L-412 -1.036 L-412 -2.028 L-412 -3.019 L-412 -4.01 L-412.1 -5.002 L-412.1 -5.993 L-412.1 -6.984 L-412.1 -7.976 L-412.1 -8.967 L-412.1 -9.959 L-412.1 -10.95 L-412.1 -11.94 L-411.1 -11.95 L-410.1 -11.95 L-409.1 -11.96 L-408.1 -11.97 L-407.1 -11.97 L-406.1 -11.98 L-405.2 -11.98 L-404.2 -11.99 L-403.2 -12 L-402.2 -12 L-401.2 -12.01 L-400.2 -12.01 L-399.2 -12.02 L-398.2 -12.03 L-397.2 -12.03 L-396.2 -12.04 L-395.2 -12.04 L-394.2 -12.05 L-393.3 -12.06 L-392.3 -12.06 L-391.3 -12.07 L-390.3 -12.07 L-389.3 -12.08 L-388.3 -12.09 L-387.3 -12.09 L-387.3 -11.1 L-387.3 -10.11 L-387.3 -9.118 L-387.3 -8.126 L-387.3 -7.135 L-387.3 -6.144 L-387.3 -5.152 L-387.3 -4.161 L-387.3 -3.169 L-387.2 -2.178 L-387.2 -1.187 L-387.2 -0.1953 L-387.2 0.7961 L-387.2 1.788 L-387.2 2.779 L-387.2 3.77 L-387.2 4.762 L-387.2 5.753 L-387.2 6.744 L-387.2 7.736 L-387.2 8.727 L-387.2 9.719 L-387.2 10.71 L-387.2 11.7 L-387.2 12.69 Z " />
<path stroke="rgb(0,0,0)" stroke-opacity="1" fill="rgb(255,255,255)" fill-opacity="1" d="M0.3851 287.7 L1.373 287.8 L2.355 287.9 L3.323 288.1 L4.273 288.4 L5.197 288.7 L6.091 289.1 L6.948 289.6 L7.763 290.2 L8.53 290.8 L9.246 291.5 L9.906 292.2 L10.5 293 L11.04 293.9 L11.51 294.7 L11.9 295.6 L12.22 296.6 L12.47 297.5 L12.64 298.5 L12.73 299.5 L12.75 300.5 L12.68 301.5 L12.54 302.4 L12.32 303.4 L12.02 304.4 L11.65 305.3 L11.21 306.2 L10.7 307 L10.12 307.8 L9.485 308.6 L8.788 309.3 L8.038 309.9 L7.239 310.5 L6.396 311 L5.515 311.5 L4.601 311.8 L3.659 312.1 L2.697 312.4 L1.719 312.5 L0.7327 312.6 L-0.2565 312.6 L-1.242 312.5 L-2.218 312.3 L-3.177 312.1 L-4.115 311.8 L-5.025 311.4 L-5.901 310.9 L-6.737 310.4 L-7.53 309.8 L-8.272 309.2 L-8.96 308.4 L-9.59 307.7 L-10.16 306.9 L-10.66 306 L-11.09 305.1 L-11.45 304.2 L-11.73 303.3 L-11.94 302.3 L-12.07 301.3 L-12.13 300.3 L-12.1 299.3 L-12 298.4 L-11.82 297.4 L-11.56 296.4 L-11.22 295.5 L-10.82 294.6 L-10.34 293.7 L-9.796 292.9 L-9.188 292.1 L-8.52 291.4 L-7.796 290.7 L-7.021 290.1 L-6.199 289.6 L-5.337 289.1 L-4.438 288.7 L-3.51 288.3 L-2.557 288.1 L-1.586 287.9 L-0.6034 287.7 L0.3851 287.7 Z " />
<path stroke="rgb(0,0,0)" stroke-opacity="1" fill="rgb(255,255,255)" fill-opacity="1" d="M-182.4 15.9 L-183.4 15.97 L-184.4 16.03 L-185.4 16.1 L-186.4 16.17 L-187.4 16.24 L-188.3 16.31 L-189.3 16.38 L-190.3 16.44 L-191.3 16.51 L-192.3 16.58 L-193.3 16.65 L-194.3 16.72 L-195.3 16.79 L-196.3 16.85 L-197.2 16.92 L-198.2 16.99 L-199.2 17.06 L-200.2 17.13 L-201.2 17.2 L-202.2 17.26 L-203.2 17.33 L-204.2 17.4 L-205.2 17.47 L-206.1 17.54 L-207.1 17.61 L-207.2 16.62 L-207.3 15.63 L-207.3 14.64 L-207.4 13.65 L-207.5 12.66 L-207.5 11.67 L-207.6 10.68 L-207.7 9.693 L-207.8 8.704 L-207.8 7.715 L-207.9 6.726 L-208 5.737 L-208 4.748 L-208.1 3.759 L-208.2 2.77 L-208.2 1.78 L-208.3 0.7914 L-208.4 -0.1977 L-208.4 -1.187 L-208.5 -2.176 L-208.6 -3.165 L-208.6 -4.154 L-208.7 -5.143 L-208.8 -6.132 L-208.8 -7.121 L-207.9 -7.19 L-206.9 -7.258 L-205.9 -7.326 L-204.9 -7.395 L-203.9 -7.463 L-202.9 -7.531 L-201.9 -7.6 L-200.9 -7.668 L-199.9 -7.736 L-199 -7.805 L-198 -7.873 L-197 -7.941 L-196 -8.01 L-195 -8.078 L-194 -8.146 L-193 -8.215 L-192 -8.283 L-191 -8.351 L-190.1 -8.42 L-189.1 -8.488 L-188.1 -8.556 L-187.1 -8.625 L-186.1 -8.693 L-185.1 -8.761 L-184.1 -8.83 L-184.1 -7.841 L-184 -6.851 L-183.9 -5.862 L-183.8 -4.873 L-183.8 -3.884 L-183.7 -2.895 L-183.6 -1.906 L-183.6 -0.9169 L-183.5 0.07219 L-183.4 1.061 L-183.4 2.05 L-183.3 3.039 L-183.2 4.029 L-183.2 5.018 L-183.1 6.007 L-183 6.996 L-183 7.985 L-182.9 8.974 L-182.8 9.963 L-182.8 10.95 L-182.7 11.94 L-182.6 12.93 L-182.5 13.92 L-182.5 14.91 L-182.4 15.9 Z " />
<path stroke="rgb(0,0,0)" stroke-opacity="1" fill="rgb(255,255,255)" fill-opacity="1" d="M200.4 287.7 L201.4 287.8 L202.4 287.9 L203.3 288.1 L204.3 288.4 L205.2 288.7 L206.1 289.1 L206.9 289.6 L207.8 290.2 L208.5 290.8 L209.2 291.5 L209.9 292.2 L210.5 293 L211 293.9 L211.5 294.7 L211.9 295.6 L212.2 296.6 L212.5 297.5 L212.6 298.5 L212.7 299.5 L212.7 300.5 L212.7 301.5 L212.5 302.4 L212.3 303.4 L212 304.4 L211.7 305.3 L211.2 306.2 L210.7 307 L210.1 307.8 L209.5 308.6 L208.8 309.3 L208 309.9 L207.2 310.5 L206.4 311 L205.5 311.5 L204.6 311.8 L203.7 312.1 L202.7 312.4 L201.7 312.5 L200.7 312.6 L199.7 312.6 L198.8 312.5 L197.8 312.3 L196.8 312.1 L195.9 311.8 L195 311.4 L194.1 310.9 L193.3 310.4 L192.5 309.8 L191.7 309.2 L191 308.4 L190.4 307.7 L189.8 306.9 L189.3 306 L188.9 305.1 L188.6 304.2 L188.3 303.3 L188.1 302.3 L187.9 301.3 L187.9 300.3 L187.9 299.3 L188 298.4 L188.2 297.4 L188.4 296.4 L188.8 295.5 L189.2 294.6 L189.7 293.7 L190.2 292.9 L190.8 292.1 L191.5 291.4 L192.2 290.7 L193 290.1 L193.8 289.6 L194.7 289.1 L195.6 288.7 L196.5 288.3 L197.4 288.1 L198.4 287.9 L199.4 287.7 L200.4 287.7 Z " />
<path stroke="rgb(0,0,0)" stroke-opacity="1" fill="rgb(255,255,255)" fill-opacity="1" d="M29.29 23.76 L28.33 23.99 L27.36 24.21 L26.39 24.43 L25.43 24.66 L24.46 24.88 L23.5 25.1 L22.53 25.33 L21.56 25.55 L20.6 25.77 L19.63 26 L18.66 26.22 L17.7 26.44 L16.73 26.67 L15.77 26.89 L14.8 27.11 L13.83 27.34 L12.87 27.56 L11.9 27.78 L10.94 28.01 L9.97 28.23 L9.004 28.45 L8.038 28.68 L7.072 28.9 L6.105 29.12 L5.139 29.35 L4.916 28.38 L4.693 27.42 L4.469 26.45 L4.246 25.48 L4.023 24.52 L3.8 23.55 L3.576 22.58 L3.353 21.62 L3.13 20.65 L2.906 19.69 L2.683 18.72 L2.46 17.75 L2.236 16.79 L2.013 15.82 L1.79 14.86 L1.567 13.89 L1.343 12.92 L1.12 11.96 L0.8966 10.99 L0.6733 10.03 L0.45 9.059 L0.2267 8.093 L0.003444 7.127 L-0.2199 6.161 L-0.4432 5.195 L0.5229 4.971 L1.489 4.748 L2.455 4.525 L3.421 4.301 L4.387 4.078 L5.353 3.855 L6.32 3.632 L7.286 3.408 L8.252 3.185 L9.218 2.962 L10.18 2.738 L11.15 2.515 L12.12 2.292 L13.08 2.068 L14.05 1.845 L15.01 1.622 L15.98 1.399 L16.95 1.175 L17.91 0.9519 L18.88 0.7286 L19.85 0.5053 L20.81 0.282 L21.78 0.05872 L22.74 -0.1646 L23.71 -0.3879 L23.93 0.5782 L24.16 1.544 L24.38 2.51 L24.6 3.477 L24.83 4.443 L25.05 5.409 L25.27 6.375 L25.5 7.341 L25.72 8.307 L25.94 9.273 L26.17 10.24 L26.39 11.21 L26.61 12.17 L26.84 13.14 L27.06 14.1 L27.28 15.07 L27.51 16.04 L27.73 17 L27.95 17.97 L28.18 18.93 L28.4 19.9 L28.62 20.87 L28.85 21.83 L29.07 22.8 L29.29 23.76 Z " />
</g>
</g>
</svg>
