<!DOCTYPE svg>
<svg xmlns="http://www.w3.org/2000/svg" xmlns:xlink="http://www.w3.org/1999/xlink" width="560" height="560">
<g transform="translate(280.000000,280.000000)">
<g transform="scale(3.000000,3.000000)">
<path stroke="rgb(0,0,0)" stroke-opacity="1" fill="rgb(255,255,255)" fill-opacity="1" d="M-988.3 -988 L-989.3 -988 L-990.3 -988 L-991.2 -988 L-992.2 -988 L-993.2 -988 L-994.2 -988 L-995.1 -988 L-996.1 -988.1 L-997.1 -988.1 L-998.1 -988.1 L-999.1 -988.1 L-1000 -988.1 L-1001 -988.1 L-1002 -988.1 L-1003 -988.2 L-1004 -988.2 L-1005 -988.2 L-1006 -988.2 L-1007 -988.2 L-1008 -988.2 L-1009 -988.2 L-1010 -988.3 L-1011 -988.3 L-1012 -988.3 L-1013 -988.3 L-1013 -989.3 L-1013 -990.3 L-1013 -991.2 L-1013 -992.2 L-1013 -993.2 L-1013 -994.2 L-1013 -995.1 L-1013 -996.1 L-1013 -997.1 L-1013 -998.1 L-1013 -999.1 L-1013 -1000 L-1013 -1001 L-1013 -1002 L-1013 -1003 L-1013 -1004 L-1013 -1005 L-1013 -1006 L-1012 -1007 L-1012 -1008 L-1012 -1009 L-1012 -1010 L-1012 -1011 L-1012 -1012 L-1012 -1013 L-1011 -1013 L-1010 -1013 L-1009 -1013 L-1008 -1013 L-1008 -1013 L-1007 -1013 L-1006 -1013 L-1005 -1013 L-1004 -1013 L-1003 -1013 L-1002 -1013 L-1001 -1013 L-999.7 -1013 L-998.7 -1013 L-997.7 -1013 L-996.8 -1013 L-995.8 -1013 L-994.8 -1013 L-993.8 -1012 L-992.8 -1012 L-991.9 -1012 L-990.9 -1012 L-989.9 -1012 L-988.9 -1012 L-987.9 -1012 L-988 -1011 L-988 -1010 L-988 -1009 L-988 -1008 L-988 -1008 L-988 -1007 L-988 -1006 L-988.1 -1005 L-988.1 -1004 L-988.1 -1003 L-988.1 -1002 L-988.1 -1001 L-988.1 -999.7 L-988.1 -998.7 L-988.2 -997.7 L-988.2 -996.8 L-988.2 -995.8 L-988.2 -994.8 L-988.2 -993.8 L-988.2 -992.8 L-988.2 -991.9 L-988.3 -990.9 L-988.3 -989.9 L-988.3 -988.9 L-988.3 -988 Z " />
<path stroke="rgb(0,0,0)" stroke-opacity="1" fill="rgb(255,255,255)" fill-opacity="1" d="M-257.4 -347.6 L-259.2 -346.8 L-261 -346.1 L-262.9 -345.5 L-264.8 -345.1 L-266.8 -344.9 L-268.7 -344.8 L-270.7 -344.8 L-272.6 -345 L-274.5 -345.4 L-276.4 -345.9 L-278.3 -346.6 L-280 -347.4 L-281.7 -348.4 L-283.4 -349.5 L-284.9 -350.7 L-286.3 -352 L-287.7 -353.4 L-288.9 -355 L-289.9 -356.6 L-290.9 -358.3 L-291.7 -360.1 L-292.4 -361.9 L-292.9 -363.8 L-293.2 -365.7 L-293.5 -367.7 L-293.5 -369.6 L-293.4 -371.6 L-293.2 -373.5 L-292.7 -375.4 L-292.2 -377.3 L-291.5 -379.1 L-290.6 -380.9 L-289.6 -382.6 L-288.5 -384.2 L-287.3 -385.7 L-285.9 -387.1 L-284.5 -388.4 L-282.9 -389.6 L-281.3 -390.6 L-279.5 -391.6 L-277.7 -392.3 L-275.9 -392.9 L-274 -393.4 L-272.1 -393.8 L-270.1 -393.9 L-268.1 -393.9 L-266.2 -393.8 L-264.3 -393.5 L-262.4 -393.1 L-260.5 -392.5 L-258.7 -391.7 L-256.9 -390.8 L-255.3 -389.8 L-253.7 -388.7 L-252.2 -387.4 L-250.8 -386 L-249.6 -384.5 L-248.4 -382.9 L-247.4 -381.3 L-246.5 -379.5 L-245.8 -377.7 L-245.2 -375.8 L-244.8 -373.9 L-244.5 -372 L-244.3 -370.1 L-244.4 -368.1 L-244.5 -366.2 L-244.9 -364.2 L-245.4 -362.3 L-246 -360.5 L-246.8 -358.7 L-247.7 -357 L-248.7 -355.3 L-249.9 -353.8 L-251.2 -352.3 L-252.6 -350.9 L-254.1 -349.7 L-255.8 -348.6 L-257.4 -347.6 Z " />
<path stroke="rgb(0,0,0)" stroke-opacity="1" fill="rgb(255,255,255)" fill-opacity="1" d="M-788.3 -988 L-789.3 -988 L-790.3 -988 L-791.2 -988 L-792.2 -988 L-793.2 -988 L-794.2 -988 L-795.1 -988 L-796.1 -988.1 L-797.1 -988.1 L-798.1 -988.1 L-799.1 -988.1 L-800 -988.1 L-801 -988.1 L-802 -988.1 L-803 -988.2 L-803.9 -988.2 L-804.9 -988.2 L-805.9 -988.2 L-806.9 -988.2 L-807.9 -988.2 L-808.8 -988.2 L-809.8 -988.3 L-810.8 -988.3 L-811.8 -988.3 L-812.8 -988.3 L-812.7 -989.3 L-812.7 -990.3 L-812.7 -991.2 L-812.7 -992.2 L-812.7 -993.2 L-812.7 -994.2 L-812.7 -995.1 L-812.6 -996.1 L-812.6 -997.1 L-812.6 -998.1 L-812.6 -999.1 L-812.6 -1000 L-812.6 -1001 L-812.6 -1002 L-812.5 -1003 L-812.5 -1004 L-812.5 -1005 L-812.5 -1006 L-812.5 -1007 L-812.5 -1008 L-812.5 -1009 L-812.5 -1010 L-812.4 -1011 L-812.4 -1012 L-812.4 -1013 L-811.4 -1013 L-810.5 -1013 L-809.5 -1013 L-808.5 -1013 L-807.5 -1013 L-806.5 -1013 L-805.6 -1013 L-804.6 -1013 L-803.6 -1013 L-802.6 -1013 L-801.6 -1013 L-800.7 -1013 L-799.7 -1013 L-798.7 -1013 L-797.7 -1013 L-796.8 -1013 L-795.8 -1013 L-794.8 -1013 L-793.8 -1012 L-792.8 -1012 L-791.9 -1012 L-790.9 -1012 L-789.9 -1012 L-788.9 -1012 L-787.9 -1012 L-788 -1011 L-788 -1010 L-788 -1009 L-788 -1008 L-788 -1008 L-788 -1007 L-788 -1006 L-788.1 -1005 L-788.1 -1004 L-788.1 -1003 L-788.1 -1002 L-788.1 -1001 L-788.1 -999.7 L-788.1 -998.7 L-788.2 -997.7 L-788.2 -996.8 L-788.2 -995.8 L-788.2 -994.8 L-788.2 -993.8 L-788.2 -992.8 L-788.2 -991.9 L-788.3 -990.9 L-788.3 -989.9 L-788.3 -988.9 L-788.3 -988 Z " />
<path stroke="rgb(0,0,0)" stroke-opacity="1" fill="rgb(255,255,255)" fill-opacity="1" d="M-82.47 -363.7 L-84.4 -363.4 L-86.35 -363.2 L-88.31 -363.2 L-90.26 -363.4 L-92.19 -363.7 L-94.09 -364.2 L-95.94 -364.8 L-97.75 -365.6 L-99.48 -366.5 L-101.1 -367.5 L-102.7 -368.7 L-104.2 -370 L-105.5 -371.4 L-106.8 -372.9 L-107.9 -374.5 L-108.9 -376.1 L-109.8 -377.9 L-110.5 -379.7 L-111.1 -381.6 L-111.5 -383.5 L-111.7 -385.4 L-111.9 -387.4 L-111.8 -389.4 L-111.6 -391.3 L-111.3 -393.2 L-110.8 -395.1 L-110.1 -397 L-109.3 -398.7 L-108.4 -400.5 L-107.3 -402.1 L-106.1 -403.6 L-104.8 -405.1 L-103.4 -406.4 L-101.8 -407.6 L-100.2 -408.7 L-98.5 -409.7 L-96.73 -410.5 L-94.89 -411.2 L-93.01 -411.7 L-91.09 -412.1 L-89.15 -412.3 L-87.2 -412.4 L-85.24 -412.3 L-83.3 -412.1 L-81.39 -411.7 L-79.51 -411.2 L-77.68 -410.5 L-75.91 -409.6 L-74.21 -408.7 L-72.59 -407.6 L-71.07 -406.3 L-69.65 -405 L-68.34 -403.5 L-67.16 -402 L-66.09 -400.3 L-65.17 -398.6 L-64.38 -396.8 L-63.73 -395 L-63.24 -393.1 L-62.9 -391.2 L-62.71 -389.2 L-62.67 -387.3 L-62.8 -385.3 L-63.07 -383.4 L-63.5 -381.5 L-64.08 -379.6 L-64.81 -377.8 L-65.68 -376 L-66.68 -374.4 L-67.82 -372.8 L-69.07 -371.3 L-70.45 -369.9 L-71.93 -368.6 L-73.5 -367.4 L-75.17 -366.4 L-76.91 -365.5 L-78.71 -364.8 L-80.57 -364.2 L-82.47 -363.7 Z " />
<path stroke="rgb(0,0,0)" stroke-opacity="1" fill="rgb(255,255,255)" fill-opacity="1" d="M-588.3 -988 L-589.3 -988 L-590.3 -988 L-591.2 -988 L-592.2 -988 L-593.2 -988 L-594.2 -988 L-595.1 -988 L-596.1 -988.1 L-597.1 -988.1 L-598.1 -988.1 L-599.1 -988.1 L-600 -988.1 L-601 -988.1 L-602 -988.1 L-603 -988.2 L-603.9 -988.2 L-604.9 -988.2 L-605.9 -988.2 L-606.9 -988.2 L-607.9 -988.2 L-608.8 -988.2 L-609.8 -988.3 L-610.8 -988.3 L-611.8 -988.3 L-612.8 -988.3 L-612.7 -989.3 L-612.7 -990.3 L-612.7 -991.2 L-612.7 -992.2 L-612.7 -993.2 L-612.7 -994.2 L-612.7 -995.1 L-612.6 -996.1 L-612.6 -997.1 L-612.6 -998.1 L-612.6 -999.1 L-612.6 -1000 L-612.6 -1001 L-612.6 -1002 L-612.5 -1003 L-612.5 -1004 L-612.5 -1005 L-612.5 -1006 L-612.5 -1007 L-612.5 -1008 L-612.5 -1009 L-612.5 -1010 L-612.4 -1011 L-612.4 -1012 L-612.4 -1013 L-611.4 -1013 L-610.5 -1013 L-609.5 -1013 L-608.5 -1013 L-607.5 -1013 L-606.5 -1013 L-605.6 -1013 L-604.6 -1013 L-603.6 -1013 L-602.6 -1013 L-601.6 -1013 L-600.7 -1013 L-599.7 -1013 L-598.7 -1013 L-597.7 -1013 L-596.8 -1013 L-595.8 -1013 L-594.8 -1013 L-593.8 -1012 L-592.8 -1012 L-591.9 -1012 L-590.9 -1012 L-589.9 -1012 L-588.9 -1012 L-587.9 -1012 L-588 -1011 L-588 -1010 L-588 -1009 L-588 -1008 L-588 -1008 L-588 -1007 L-588 -1006 L-588.1 -1005 L-588.1 -1004 L-588.1 -1003 L-588.1 -1002 L-588.1 -1001 L-588.1 -999.7 L-588.1 -998.7 L-588.2 -997.7 L-588.2 -996.8 L-588.2 -995.8 L-588.2 -994.8 L-588.2 -993.8 L-588.2 -992.8 L-588.2 -991.9 L-588.3 -990.9 L-588.3 -989.9 L-588.3 -988.9 L-588.3 -988 Z " />
<path stroke="rgb(0,0,0)" stroke-opacity="1" fill="rgb(255,255,255)" fill-opacity="1" d="M105 -372.4 L103 -372.3 L101.1 -372.5 L99.14 -372.7 L97.24 -373.2 L95.37 -373.8 L93.56 -374.5 L91.81 -375.4 L90.13 -376.4 L88.55 -377.5 L87.05 -378.8 L85.67 -380.2 L84.39 -381.7 L83.24 -383.2 L82.22 -384.9 L81.33 -386.6 L80.58 -388.5 L79.98 -390.3 L79.53 -392.2 L79.24 -394.2 L79.09 -396.1 L79.11 -398.1 L79.27 -400 L79.6 -401.9 L80.07 -403.8 L80.7 -405.7 L81.46 -407.5 L82.37 -409.2 L83.42 -410.9 L84.59 -412.4 L85.88 -413.9 L87.29 -415.3 L88.8 -416.5 L90.4 -417.6 L92.09 -418.6 L93.85 -419.5 L95.67 -420.2 L97.55 -420.7 L99.46 -421.2 L101.4 -421.4 L103.4 -421.5 L105.3 -421.5 L107.3 -421.3 L109.2 -420.9 L111.1 -420.4 L112.9 -419.7 L114.7 -418.9 L116.4 -418 L118 -416.9 L119.6 -415.7 L121 -414.4 L122.3 -412.9 L123.6 -411.4 L124.6 -409.8 L125.6 -408.1 L126.4 -406.3 L127.1 -404.5 L127.6 -402.6 L128 -400.7 L128.2 -398.7 L128.3 -396.8 L128.2 -394.8 L127.9 -392.9 L127.5 -391 L127 -389.1 L126.3 -387.2 L125.5 -385.5 L124.5 -383.8 L123.4 -382.2 L122.1 -380.7 L120.8 -379.2 L119.3 -377.9 L117.8 -376.8 L116.1 -375.7 L114.4 -374.8 L112.6 -374 L110.8 -373.4 L108.9 -372.9 L106.9 -372.5 L105 -372.4 Z " />
<path stroke="rgb(0,0,0)" stroke-opacity="1" fill="rgb(255,255,255)" fill-opacity="1" d="M-388.3 -988 L-389.3 -988 L-390.3 -988 L-391.2 -988 L-392.2 -988 L-393.2 -988 L-394.2 -988 L-395.1 -988 L-396.1 -988.1 L-397.1 -988.1 L-398.1 -988.1 L-399.1 -988.1 L-400 -988.1 L-401 -988.1 L-402 -988.1 L-403 -988.2 L-403.9 -988.2 L-404.9 -988.2 L-405.9 -988.2 L-406.9 -988.2 L-407.9 -988.2 L-408.8 -988.2 L-409.8 -988.3 L-410.8 -988.3 L-411.8 -988.3 L-412.8 -988.3 L-412.7 -989.3 L-412.7 -990.3 L-412.7 -991.2 L-412.7 -992.2 L-412.7 -993.2 L-412.7 -994.2 L-412.7 -995.1 L-412.6 -996.1 L-412.6 -997.1 L-412.6 -998.1 L-412.6 -999.1 L-412.6 -1000 L-412.6 -1001 L-412.6 -1002 L-412.5 -1003 L-412.5 -1004 L-412.5 -1005 L-412.5 -1006 L-412.5 -1007 L-412.5 -1008 L-412.5 -1009 L-412.5 -1010 L-412.4 -1011 L-412.4 -1012 L-412.4 -1013 L-411.4 -1013 L-410.5 -1013 L-409.5 -1013 L-408.5 -1013 L-407.5 -1013 L-406.5 -1013 L-405.6 -1013 L-404.6 -1013 L-403.6 -1013 L-402.6 -1013 L-401.6 -1013 L-400.7 -1013 L-399.7 -1013 L-398.7 -1013 L-397.7 -1013 L-396.8 -1013 L-395.8 -1013 L-394.8 -1013 L-393.8 -1012 L-392.8 -1012 L-391.9 -1012 L-390.9 -1012 L-389.9 -1012 L-388.9 -1012 L-387.9 -1012 L-388 -1011 L-388 -1010 L-388 -1009 L-388 -1008 L-388 -1008 L-388 -1007 L-388 -1006 L-388.1 -1005 L-388.1 -1004 L-388.1 -1003 L-388.1 -1002 L-388.1 -1001 L-388.1 -999.7 L-388.1 -998.7 L-388.2 -997.7 L-388.2 -996.8 L-388.2 -995.8 L-388.2 -994.8 L-388.2 -993.8 L-388.2 -992.8 L-388.2 -991.9 L-388.3 -990.9 L-388.3 -989.9 L-388.3 -988.9 L-388.3 -988 Z " />
<path stroke="rgb(0,0,0)" stroke-opacity="1" fill="rgb(255,255,255)" fill-opacity="1" d="M-357.4 -247.6 L-359.2 -246.8 L-361 -246.1 L-362.9 -245.5 L-364.8 -245.1 L-366.8 -244.9 L-368.7 -244.8 L-370.7 -244.8 L-372.6 -245 L-374.5 -245.4 L-376.4 -245.9 L-378.3 -246.6 L-380 -247.4 L-381.7 -248.4 L-383.4 -249.5 L-384.9 -250.7 L-386.3 -252 L-387.7 -253.4 L-388.9 -255 L-389.9 -256.6 L-390.9 -258.3 L-391.7 -260.1 L-392.4 -261.9 L-392.9 -263.8 L-393.2 -265.7 L-393.5 -267.7 L-393.5 -269.6 L-393.4 -271.6 L-393.2 -273.5 L-392.7 -275.4 L-392.2 -277.3 L-391.5 -279.1 L-390.6 -280.9 L-389.6 -282.6 L-388.5 -284.2 L-387.3 -285.7 L-385.9 -287.1 L-384.5 -288.4 L-382.9 -289.6 L-381.3 -290.6 L-379.5 -291.6 L-377.7 -292.3 L-375.9 -292.9 L-374 -293.4 L-372.1 -293.8 L-370.1 -293.9 L-368.1 -293.9 L-366.2 -293.8 L-364.3 -293.5 L-362.4 -293.1 L-360.5 -292.5 L-358.7 -291.7 L-356.9 -290.8 L-355.3 -289.8 L-353.7 -288.7 L-352.2 -287.4 L-350.8 -286 L-349.6 -284.5 L-348.4 -282.9 L-347.4 -281.3 L-346.5 -279.5 L-345.8 -277.7 L-345.2 -275.8 L-344.8 -273.9 L-344.5 -272 L-344.3 -270.1 L-344.4 -268.1 L-344.5 -266.2 L-344.9 -264.2 L-345.4 -262.3 L-346 -260.5 L-346.8 -258.7 L-347.7 -257 L-348.7 -255.3 L-349.9 -253.8 L-351.2 -252.3 L-352.6 -250.9 L-354.1 -249.7 L-355.8 -248.6 L-357.4 -247.6 Z " />
<path stroke="rgb(0,0,0)" stroke-opacity="1" fill="rgb(255,255,255)" fill-opacity="1" d="M-888.3 -888 L-889.3 -888 L-890.3 -888 L-891.2 -888 L-892.2 -888 L-893.2 -888 L-894.2 -888 L-895.1 -888 L-896.1 -888.1 L-897.1 -888.1 L-898.1 -888.1 L-899.1 -888.1 L-900 -888.1 L-901 -888.1 L-902 -888.1 L-903 -888.2 L-903.9 -888.2 L-904.9 -888.2 L-905.9 -888.2 L-906.9 -888.2 L-907.9 -888.2 L-908.8 -888.2 L-909.8 -888.3 L-910.8 -888.3 L-911.8 -888.3 L-912.8 -888.3 L-912.7 -889.3 L-912.7 -890.3 L-912.7 -891.2 L-912.7 -892.2 L-912.7 -893.2 L-912.7 -894.2 L-912.7 -895.1 L-912.6 -896.1 L-912.6 -897.1 L-912.6 -898.1 L-912.6 -899.1 L-912.6 -900 L-912.6 -901 L-912.6 -902 L-912.5 -903 L-912.5 -904 L-912.5 -904.9 L-912.5 -905.9 L-912.5 -906.9 L-912.5 -907.9 L-912.5 -908.8 L-912.5 -909.8 L-912.4 -910.8 L-912.4 -911.8 L-912.4 -912.8 L-911.4 -912.7 L-910.5 -912.7 L-909.5 -912.7 L-908.5 -912.7 L-907.5 -912.7 L-906.5 -912.7 L-905.6 -912.7 L-904.6 -912.6 L-903.6 -912.6 L-902.6 -912.6 L-901.6 -912.6 L-900.7 -912.6 L-899.7 -912.6 L-898.7 -912.6 L-897.7 -912.6 L-896.8 -912.5 L-895.8 -912.5 L-894.8 -912.5 L-893.8 -912.5 L-892.8 -912.5 L-891.9 -912.5 L-890.9 -912.5 L-889.9 -912.4 L-888.9 -912.4 L-887.9 -912.4 L-888 -911.4 L-888 -910.5 L-888 -909.5 L-888 -908.5 L-888 -907.5 L-888 -906.5 L-888 -905.6 L-888.1 -904.6 L-888.1 -903.6 L-888.1 -902.6 L-888.1 -901.7 L-888.1 -900.7 L-888.1 -899.7 L-888.1 -898.7 L-888.2 -897.7 L-888.2 -896.8 L-888.2 -895.8 L-888.2 -894.8 L-888.2 -893.8 L-888.2 -892.8 L-888.2 -891.9 L-888.3 -890.9 L-888.3 -889.9 L-888.3 -888.9 L-888.3 -888 Z " />
<path stroke="rgb(0,0,0)" stroke-opacity="1" fill="rgb(255,255,255)" fill-opacity="1" d="M-182.5 -263.7 L-184.4 -263.4 L-186.4 -263.2 L-188.3 -263.2 L-190.3 -263.4 L-192.2 -263.7 L-194.1 -264.2 L-195.9 -264.8 L-197.7 -265.6 L-199.5 -266.5 L-201.1 -267.5 L-202.7 -268.7 L-204.2 -270 L-205.5 -271.4 L-206.8 -272.9 L-207.9 -274.5 L-208.9 -276.1 L-209.8 -277.9 L-210.5 -279.7 L-211.1 -281.6 L-211.5 -283.5 L-211.7 -285.4 L-211.9 -287.4 L-211.8 -289.4 L-211.6 -291.3 L-211.3 -293.2 L-210.8 -295.1 L-210.1 -297 L-209.3 -298.7 L-208.4 -300.5 L-207.3 -302.1 L-206.1 -303.6 L-204.8 -305.1 L-203.4 -306.4 L-201.8 -307.6 L-200.2 -308.7 L-198.5 -309.7 L-196.7 -310.5 L-194.9 -311.2 L-193 -311.7 L-191.1 -312.1 L-189.2 -312.3 L-187.2 -312.4 L-185.2 -312.3 L-183.3 -312.1 L-181.4 -311.7 L-179.5 -311.2 L-177.7 -310.5 L-175.9 -309.6 L-174.2 -308.7 L-172.6 -307.6 L-171.1 -306.3 L-169.7 -305 L-168.3 -303.5 L-167.2 -302 L-166.1 -300.3 L-165.2 -298.6 L-164.4 -296.8 L-163.7 -295 L-163.2 -293.1 L-162.9 -291.2 L-162.7 -289.2 L-162.7 -287.3 L-162.8 -285.3 L-163.1 -283.4 L-163.5 -281.5 L-164.1 -279.6 L-164.8 -277.8 L-165.7 -276 L-166.7 -274.4 L-167.8 -272.8 L-169.1 -271.3 L-170.4 -269.9 L-171.9 -268.6 L-173.5 -267.4 L-175.2 -266.4 L-176.9 -265.5 L-178.7 -264.8 L-180.6 -264.2 L-182.5 -263.7 Z " />
<path stroke="rgb(0,0,0)" stroke-opacity="1" fill="rgb(255,255,255)" fill-opacity="1" d="M-688.3 -888 L-689.3 -888 L-690.3 -888 L-691.2 -888 L-692.2 -888 L-693.2 -888 L-694.2 -888 L-695.1 -888 L-696.1 -888.1 L-697.1 -888.1 L-698.1 -888.1 L-699.1 -888.1 L-700 -888.1 L-701 -888.1 L-702 -888.1 L-703 -888.2 L-703.9 -888.2 L-704.9 -888.2 L-705.9 -888.2 L-706.9 -888.2 L-707.9 -888.2 L-708.8 -888.2 L-709.8 -888.3 L-710.8 -888.3 L-711.8 -888.3 L-712.8 -888.3 L-712.7 -889.3 L-712.7 -890.3 L-712.7 -891.2 L-712.7 -892.2 L-712.7 -893.2 L-712.7 -894.2 L-712.7 -895.1 L-712.6 -896.1 L-712.6 -897.1 L-712.6 -898.1 L-712.6 -899.1 L-712.6 -900 L-712.6 -901 L-712.6 -902 L-712.5 -903 L-712.5 -904 L-712.5 -904.9 L-712.5 -905.9 L-712.5 -906.9 L-712.5 -907.9 L-712.5 -908.8 L-712.5 -909.8 L-712.4 -910.8 L-712.4 -911.8 L-712.4 -912.8 L-711.4 -912.7 L-710.5 -912.7 L-709.5 -912.7 L-708.5 -912.7 L-707.5 -912.7 L-706.5 -912.7 L-705.6 -912.7 L-704.6 -912.6 L-703.6 -912.6 L-702.6 -912.6 L-701.6 -912.6 L-700.7 -912.6 L-699.7 -912.6 L-698.7 -912.6 L-697.7 -912.6 L-696.8 -912.5 L-695.8 -912.5 L-694.8 -912.5 L-693.8 -912.5 L-692.8 -912.5 L-691.9 -912.5 L-690.9 -912.5 L-689.9 -912.4 L-688.9 -912.4 L-687.9 -912.4 L-688 -911.4 L-688 -910.5 L-688 -909.5 L-688 -908.5 L-688 -907.5 L-688 -906.5 L-688 -905.6 L-688.1 -904.6 L-688.1 -903.6 L-688.1 -902.6 L-688.1 -901.7 L-688.1 -900.7 L-688.1 -899.7 L-688.1 -898.7 L-688.2 -897.7 L-688.2 -896.8 L-688.2 -895.8 L-688.2 -894.8 L-688.2 -893.8 L-688.2 -892.8 L-688.2 -891.9 L-688.3 -890.9 L-688.3 -889.9 L-688.3 -888.9 L-688.3 -888 Z " />
<path stroke="rgb(0,0,0)" stroke-opacity="1" fill="rgb(255,255,255)" fill-opacity="1" d="M4.987 -272.4 L3.031 -272.3 L1.079 -272.5 L-0.8561 -272.7 L-2.763 -273.2 L-4.629 -273.8 L-6.442 -274.5 L-8.191 -275.4 L-9.866 -276.4 L-11.45 -277.5 L-12.95 -278.8 L-14.33 -280.2 L-15.61 -281.7 L-16.76 -283.2 L-17.78 -284.9 L-18.67 -286.6 L-19.42 -288.5 L-20.02 -290.3 L-20.47 -292.2 L-20.76 -294.2 L-20.91 -296.1 L-20.89 -298.1 L-20.73 -300 L-20.4 -301.9 L-19.93 -303.8 L-19.3 -305.7 L-18.54 -307.5 L-17.63 -309.2 L-16.58 -310.9 L-15.41 -312.4 L-14.12 -313.9 L-12.71 -315.3 L-11.2 -316.5 L-9.597 -317.6 L-7.91 -318.6 L-6.15 -319.5 L-4.327 -320.2 L-2.454 -320.7 L-0.5414 -321.2 L1.397 -321.4 L3.351 -321.5 L5.306 -321.5 L7.251 -321.3 L9.173 -320.9 L11.06 -320.4 L12.9 -319.7 L14.68 -318.9 L16.4 -318 L18.03 -316.9 L19.57 -315.7 L21.01 -314.4 L22.35 -312.9 L23.56 -311.4 L24.65 -309.8 L25.6 -308.1 L26.42 -306.3 L27.09 -304.5 L27.62 -302.6 L27.99 -300.7 L28.21 -298.7 L28.28 -296.8 L28.19 -294.8 L27.94 -292.9 L27.54 -291 L26.99 -289.1 L26.3 -287.2 L25.46 -285.5 L24.48 -283.8 L23.37 -282.2 L22.14 -280.7 L20.79 -279.2 L19.33 -277.9 L17.77 -276.8 L16.12 -275.7 L14.4 -274.8 L12.6 -274 L10.76 -273.4 L8.861 -272.9 L6.934 -272.5 L4.987 -272.4 Z " />
<path stroke="rgb(0,0,0)" stroke-opacity="1" fill="rgb(255,255,255)" fill-opacity="1" d="M-488.3 -888 L-489.3 -888 L-490.3 -888 L-491.2 -888 L-492.2 -888 L-493.2 -888 L-494.2 -888 L-495.1 -888 L-496.1 -888.1 L-497.1 -888.1 L-498.1 -888.1 L-499.1 -888.1 L-500 -888.1 L-501 -888.1 L-502 -888.1 L-503 -888.2 L-503.9 -888.2 L-504.9 -888.2 L-505.9 -888.2 L-506.9 -888.2 L-507.9 -888.2 L-508.8 -888.2 L-509.8 -888.3 L-510.8 -888.3 L-511.8 -888.3 L-512.8 -888.3 L-512.7 -889.3 L-512.7 -890.3 L-512.7 -891.2 L-512.7 -892.2 L-512.7 -893.2 L-512.7 -894.2 L-512.7 -895.1 L-512.6 -896.1 L-512.6 -897.1 L-512.6 -898.1 L-512.6 -899.1 L-512.6 -900 L-512.6 -901 L-512.6 -902 L-512.5 -903 L-512.5 -904 L-512.5 -904.9 L-512.5 -905.9 L-512.5 -906.9 L-512.5 -907.9 L-512.5 -908.8 L-512.5 -909.8 L-512.4 -910.8 L-512.4 -911.8 L-512.4 -912.8 L-511.4 -912.7 L-510.5 -912.7 L-509.5 -912.7 L-508.5 -912.7 L-507.5 -912.7 L-506.5 -912.7 L-505.6 -912.7 L-504.6 -912.6 L-503.6 -912.6 L-502.6 -912.6 L-501.6 -912.6 L-500.7 -912.6 L-499.7 -912.6 L-498.7 -912.6 L-497.7 -912.6 L-496.8 -912.5 L-495.8 -912.5 L-494.8 -912.5 L-493.8 -912.5 L-492.8 -912.5 L-491.9 -912.5 L-490.9 -912.5 L-489.9 -912.4 L-488.9 -912.4 L-487.9 -912.4 L-488 -911.4 L-488 -910.5 L-488 -909.5 L-488 -908.5 L-488 -907.5 L-488 -906.5 L-488 -905.6 L-488.1 -904.6 L-488.1 -903.6 L-488.1 -902.6 L-488.1 -901.7 L-488.1 -900.7 L-488.1 -899.7 L-488.1 -898.7 L-488.2 -897.7 L-488.2 -896.8 L-488.2 -895.8 L-488.2 -894.8 L-488.2 -893.8 L-488.2 -892.8 L-488.2 -891.9 L-488.3 -890.9 L-488.3 -889.9 L-488.3 -888.9 L-488.3 -888 Z " />
<path stroke="rgb(0,0,0)" stroke-opacity="1" fill="rgb(255,255,255)" fill-opacity="1" d="M200.8 -275.4 L198.8 -275.5 L196.9 -275.7 L194.9 -276.1 L193.1 -276.6 L191.2 -277.3 L189.4 -278.1 L187.7 -279 L186.1 -280.1 L184.6 -281.3 L183.2 -282.7 L181.8 -284.1 L180.6 -285.7 L179.6 -287.3 L178.6 -289 L177.8 -290.8 L177.2 -292.6 L176.6 -294.5 L176.3 -296.5 L176.1 -298.4 L176 -300.4 L176.1 -302.3 L176.4 -304.2 L176.8 -306.2 L177.4 -308 L178.1 -309.9 L178.9 -311.6 L179.9 -313.3 L181.1 -314.9 L182.3 -316.4 L183.7 -317.8 L185.1 -319.1 L186.7 -320.3 L188.4 -321.3 L190.1 -322.2 L191.9 -323 L193.8 -323.6 L195.7 -324.1 L197.6 -324.4 L199.5 -324.6 L201.5 -324.6 L203.4 -324.4 L205.4 -324.1 L207.3 -323.7 L209.1 -323.1 L210.9 -322.3 L212.7 -321.4 L214.3 -320.4 L215.9 -319.3 L217.4 -318 L218.8 -316.6 L220 -315.1 L221.2 -313.5 L222.2 -311.8 L223.1 -310.1 L223.8 -308.3 L224.4 -306.4 L224.8 -304.5 L225.1 -302.6 L225.2 -300.6 L225.2 -298.6 L225 -296.7 L224.7 -294.8 L224.2 -292.9 L223.5 -291 L222.8 -289.2 L221.8 -287.5 L220.8 -285.9 L219.6 -284.3 L218.3 -282.9 L216.9 -281.5 L215.3 -280.3 L213.7 -279.2 L212 -278.2 L210.3 -277.4 L208.4 -276.7 L206.6 -276.1 L204.6 -275.7 L202.7 -275.5 L200.8 -275.4 Z " />
<path stroke="rgb(0,0,0)" stroke-opacity="1" fill="rgb(255,255,255)" fill-opacity="1" d="M-988.3 -788 L-989.3 -788 L-990.3 -788 L-991.2 -788 L-992.2 -788 L-993.2 -788 L-994.2 -788 L-995.1 -788 L-996.1 -788.1 L-997.1 -788.1 L-998.1 -788.1 L-999.1 -788.1 L-1000 -788.1 L-1001 -788.1 L-1002 -788.1 L-1003 -788.2 L-1004 -788.2 L-1005 -788.2 L-1006 -788.2 L-1007 -788.2 L-1008 -788.2 L-1009 -788.2 L-1010 -788.3 L-1011 -788.3 L-1012 -788.3 L-1013 -788.3 L-1013 -789.3 L-1013 -790.3 L-1013 -791.2 L-1013 -792.2 L-1013 -793.2 L-1013 -794.2 L-1013 -795.1 L-1013 -796.1 L-1013 -797.1 L-1013 -798.1 L-1013 -799.1 L-1013 -800 L-1013 -801 L-1013 -802 L-1013 -803 L-1013 -804 L-1013 -804.9 L-1013 -805.9 L-1012 -806.9 L-1012 -807.9 L-1012 -808.8 L-1012 -809.8 L-1012 -810.8 L-1012 -811.8 L-1012 -812.8 L-1011 -812.7 L-1010 -812.7 L-1009 -812.7 L-1008 -812.7 L-1008 -812.7 L-1007 -812.7 L-1006 -812.7 L-1005 -812.6 L-1004 -812.6 L-1003 -812.6 L-1002 -812.6 L-1001 -812.6 L-999.7 -812.6 L-998.7 -812.6 L-997.7 -812.6 L-996.8 -812.5 L-995.8 -812.5 L-994.8 -812.5 L-993.8 -812.5 L-992.8 -812.5 L-991.9 -812.5 L-990.9 -812.5 L-989.9 -812.4 L-988.9 -812.4 L-987.9 -812.4 L-988 -811.4 L-988 -810.5 L-988 -809.5 L-988 -808.5 L-988 -807.5 L-988 -806.5 L-988 -805.6 L-988.1 -804.6 L-988.1 -803.6 L-988.1 -802.6 L-988.1 -801.7 L-988.1 -800.7 L-988.1 -799.7 L-988.1 -798.7 L-988.2 -797.7 L-988.2 -796.8 L-988.2 -795.8 L-988.2 -794.8 L-988.2 -793.8 L-988.2 -792.8 L-988.2 -791.9 L-988.3 -790.9 L-988.3 -789.9 L-988.3 -788.9 L-988.3 -788 Z " />
<path stroke="rgb(0,0,0)" stroke-opacity="1" fill="rgb(255,255,255)" fill-opacity="1" d="M-282.5 -163.7 L-284.4 -163.4 L-286.4 -163.2 L-288.3 -163.2 L-290.3 -163.4 L-292.2 -163.7 L-294.1 -164.2 L-295.9 -164.8 L-297.7 -165.6 L-299.5 -166.5 L-301.1 -167.5 L-302.7 -168.7 L-304.2 -170 L-305.5 -171.4 L-306.8 -172.9 L-307.9 -174.5 L-308.9 -176.1 L-309.8 -177.9 L-310.5 -179.7 L-311.1 -181.6 L-311.5 -183.5 L-311.7 -185.4 L-311.9 -187.4 L-311.8 -189.4 L-311.6 -191.3 L-311.3 -193.2 L-310.8 -195.1 L-310.1 -197 L-309.3 -198.7 L-308.4 -200.5 L-307.3 -202.1 L-306.1 -203.6 L-304.8 -205.1 L-303.4 -206.4 L-301.8 -207.6 L-300.2 -208.7 L-298.5 -209.7 L-296.7 -210.5 L-294.9 -211.2 L-293 -211.7 L-291.1 -212.1 L-289.2 -212.3 L-287.2 -212.4 L-285.2 -212.3 L-283.3 -212.1 L-281.4 -211.7 L-279.5 -211.2 L-277.7 -210.5 L-275.9 -209.6 L-274.2 -208.7 L-272.6 -207.6 L-271.1 -206.3 L-269.7 -205 L-268.3 -203.5 L-267.2 -202 L-266.1 -200.3 L-265.2 -198.6 L-264.4 -196.8 L-263.7 -195 L-263.2 -193.1 L-262.9 -191.2 L-262.7 -189.2 L-262.7 -187.3 L-262.8 -185.3 L-263.1 -183.4 L-263.5 -181.5 L-264.1 -179.6 L-264.8 -177.8 L-265.7 -176 L-266.7 -174.4 L-267.8 -172.8 L-269.1 -171.3 L-270.4 -169.9 L-271.9 -168.6 L-273.5 -167.4 L-275.2 -166.4 L-276.9 -165.5 L-278.7 -164.8 L-280.6 -164.2 L-282.5 -163.7 Z " />
<path stroke="rgb(0,0,0)" stroke-opacity="1" fill="rgb(255,255,255)" fill-opacity="1" d="M-788.3 -788 L-789.3 -788 L-790.3 -788 L-791.2 -788 L-792.2 -788 L-793.2 -788 L-794.2 -788 L-795.1 -788 L-796.1 -788.1 L-797.1 -788.1 L-798.1 -788.1 L-799.1 -788.1 L-800 -788.1 L-801 -788.1 L-802 -788.1 L-803 -788.2 L-803.9 -788.2 L-804.9 -788.2 L-805.9 -788.2 L-806.9 -788.2 L-807.9 -788.2 L-808.8 -788.2 L-809.8 -788.3 L-810.8 -788.3 L-811.8 -788.3 L-812.8 -788.3 L-812.7 -789.3 L-812.7 -790.3 L-812.7 -791.2 L-812.7 -792.2 L-812.7 -793.2 L-812.7 -794.2 L-812.7 -795.1 L-812.6 -796.1 L-812.6 -797.1 L-812.6 -798.1 L-812.6 -799.1 L-812.6 -800 L-812.6 -801 L-812.6 -802 L-812.5 -803 L-812.5 -804 L-812.5 -804.9 L-812.5 -805.9 L-812.5 -806.9 L-812.5 -807.9 L-812.5 -808.8 L-812.5 -809.8 L-812.4 -810.8 L-812.4 -811.8 L-812.4 -812.8 L-811.4 -812.7 L-810.5 -812.7 L-809.5 -812.7 L-808.5 -812.7 L-807.5 -812.7 L-806.5 -812.7 L-805.6 -812.7 L-804.6 -812.6 L-803.6 -812.6 L-802.6 -812.6 L-801.6 -812.6 L-800.7 -812.6 L-799.7 -812.6 L-798.7 -812.6 L-797.7 -812.6 L-796.8 -812.5 L-795.8 -812.5 L-794.8 -812.5 L-793.8 -812.5 L-792.8 -812.5 L-791.9 -812.5 L-790.9 -812.5 L-789.9 -812.4 L-788.9 -812.4 L-787.9 -812.4 L-788 -811.4 L-788 -810.5 L-788 -809.5 L-788 -808.5 L-788 -807.5 L-788 -806.5 L-788 -805.6 L-788.1 -804.6 L-788.1 -803.6 L-788.1 -802.6 L-788.1 -801.7 L-788.1 -800.7 L-788.1 -799.7 L-788.1 -798.7 L-788.2 -797.7 L-788.2 -796.8 L-788.2 -795.8 L-788.2 -794.8 L-788.2 -793.8 L-788.2 -792.8 L-788.2 -791.9 L-788.3 -790.9 L-788.3 -789.9 L-788.3 -788.9 L-788.3 -788 Z " />
<path stroke="rgb(0,0,0)" stroke-opacity="1" fill="rgb(255,255,255)" fill-opacity="1" d="M-95.01 -172.4 L-96.97 -172.3 L-98.92 -172.5 L-100.9 -172.7 L-102.8 -173.2 L-104.6 -173.8 L-106.4 -174.5 L-108.2 -175.4 L-109.9 -176.4 L-111.5 -177.5 L-112.9 -178.8 L-114.3 -180.2 L-115.6 -181.7 L-116.8 -183.2 L-117.8 -184.9 L-118.7 -186.6 L-119.4 -188.5 L-120 -190.3 L-120.5 -192.2 L-120.8 -194.2 L-120.9 -196.1 L-120.9 -198.1 L-120.7 -200 L-120.4 -201.9 L-119.9 -203.8 L-119.3 -205.7 L-118.5 -207.5 L-117.6 -209.2 L-116.6 -210.9 L-115.4 -212.4 L-114.1 -213.9 L-112.7 -215.3 L-111.2 -216.5 L-109.6 -217.6 L-107.9 -218.6 L-106.1 -219.5 L-104.3 -220.2 L-102.5 -220.7 L-100.5 -221.2 L-98.6 -221.4 L-96.65 -221.5 L-94.69 -221.5 L-92.75 -221.3 L-90.83 -220.9 L-88.94 -220.4 L-87.1 -219.7 L-85.32 -218.9 L-83.6 -218 L-81.97 -216.9 L-80.43 -215.7 L-78.99 -214.4 L-77.65 -212.9 L-76.44 -211.4 L-75.35 -209.8 L-74.4 -208.1 L-73.58 -206.3 L-72.91 -204.5 L-72.38 -202.6 L-72.01 -200.7 L-71.79 -198.7 L-71.72 -196.8 L-71.81 -194.8 L-72.06 -192.9 L-72.46 -191 L-73.01 -189.1 L-73.7 -187.2 L-74.54 -185.5 L-75.52 -183.8 L-76.63 -182.2 L-77.86 -180.7 L-79.21 -179.2 L-80.67 -177.9 L-82.23 -176.8 L-83.88 -175.7 L-85.6 -174.8 L-87.4 -174 L-89.24 -173.4 L-91.14 -172.9 L-93.07 -172.5 L-95.01 -172.4 Z " />
<path stroke="rgb(0,0,0)" stroke-opacity="1" fill="rgb(255,255,255)" fill-opacity="1" d="M-588.3 -788 L-589.3 -788 L-590.3 -788 L-591.2 -788 L-592.2 -788 L-593.2 -788 L-594.2 -788 L-595.1 -788 L-596.1 -788.1 L-597.1 -788.1 L-598.1 -788.1 L-599.1 -788.1 L-600 -788.1 L-601 -788.1 L-602 -788.1 L-603 -788.2 L-603.9 -788.2 L-604.9 -788.2 L-605.9 -788.2 L-606.9 -788.2 L-607.9 -788.2 L-608.8 -788.2 L-609.8 -788.3 L-610.8 -788.3 L-611.8 -788.3 L-612.8 -788.3 L-612.7 -789.3 L-612.7 -790.3 L-612.7 -791.2 L-612.7 -792.2 L-612.7 -793.2 L-612.7 -794.2 L-612.7 -795.1 L-612.6 -796.1 L-612.6 -797.1 L-612.6 -798.1 L-612.6 -799.1 L-612.6 -800 L-612.6 -801 L-612.6 -802 L-612.5 -803 L-612.5 -804 L-612.5 -804.9 L-612.5 -805.9 L-612.5 -806.9 L-612.5 -807.9 L-612.5 -808.8 L-612.5 -809.8 L-612.4 -810.8 L-612.4 -811.8 L-612.4 -812.8 L-611.4 -812.7 L-610.5 -812.7 L-609.5 -812.7 L-608.5 -812.7 L-607.5 -812.7 L-606.5 -812.7 L-605.6 -812.7 L-604.6 -812.6 L-603.6 -812.6 L-602.6 -812.6 L-601.6 -812.6 L-600.7 -812.6 L-599.7 -812.6 L-598.7 -812.6 L-597.7 -812.6 L-596.8 -812.5 L-595.8 -812.5 L-594.8 -812.5 L-593.8 -812.5 L-592.8 -812.5 L-591.9 -812.5 L-590.9 -812.5 L-589.9 -812.4 L-588.9 -812.4 L-587.9 -812.4 L-588 -811.4 L-588 -810.5 L-588 -809.5 L-588 -808.5 L-588 -807.5 L-588 -806.5 L-588 -805.6 L-588.1 -804.6 L-588.1 -803.6 L-588.1 -802.6 L-588.1 -801.7 L-588.1 -800.7 L-588.1 -799.7 L-588.1 -798.7 L-588.2 -797.7 L-588.2 -796.8 L-588.2 -795.8 L-588.2 -794.8 L-588.2 -793.8 L-588.2 -792.8 L-588.2 -791.9 L-588.3 -790.9 L-588.3 -789.9 L-588.3 -788.9 L-588.3 -788 Z " />
<path stroke="rgb(0,0,0)" stroke-opacity="1" fill="rgb(255,255,255)" fill-opacity="1" d="M100.8 -175.4 L98.8 -175.5 L96.86 -175.7 L94.94 -176.1 L93.05 -176.6 L91.22 -177.3 L89.44 -178.1 L87.74 -179 L86.11 -180.1 L84.58 -181.3 L83.15 -182.7 L81.83 -184.1 L80.63 -185.7 L79.55 -187.3 L78.61 -189 L77.81 -190.8 L77.15 -192.6 L76.64 -194.5 L76.29 -196.5 L76.08 -198.4 L76.03 -200.4 L76.14 -202.3 L76.4 -204.2 L76.82 -206.2 L77.38 -208 L78.09 -209.9 L78.95 -211.6 L79.94 -213.3 L81.06 -214.9 L82.31 -216.4 L83.67 -217.8 L85.14 -219.1 L86.71 -220.3 L88.36 -221.3 L90.1 -222.2 L91.9 -223 L93.75 -223.6 L95.65 -224.1 L97.58 -224.4 L99.53 -224.6 L101.5 -224.6 L103.4 -224.4 L105.4 -224.1 L107.3 -223.7 L109.1 -223.1 L110.9 -222.3 L112.7 -221.4 L114.3 -220.4 L115.9 -219.3 L117.4 -218 L118.8 -216.6 L120 -215.1 L121.2 -213.5 L122.2 -211.8 L123.1 -210.1 L123.8 -208.3 L124.4 -206.4 L124.8 -204.5 L125.1 -202.6 L125.2 -200.6 L125.2 -198.6 L125 -196.7 L124.7 -194.8 L124.2 -192.9 L123.5 -191 L122.8 -189.2 L121.8 -187.5 L120.8 -185.9 L119.6 -184.3 L118.3 -182.9 L116.9 -181.5 L115.3 -180.3 L113.7 -179.2 L112 -178.2 L110.3 -177.4 L108.4 -176.7 L106.6 -176.1 L104.6 -175.7 L102.7 -175.5 L100.8 -175.4 Z " />
<path stroke="rgb(0,0,0)" stroke-opacity="1" fill="rgb(255,255,255)" fill-opacity="1" d="M-387.4 -787.4 L-388.4 -787.4 L-389.4 -787.4 L-390.3 -787.4 L-391.3 -787.4 L-392.3 -787.4 L-393.3 -787.4 L-394.3 -787.4 L-395.2 -787.4 L-396.2 -787.4 L-397.2 -787.4 L-398.2 -787.4 L-399.2 -787.4 L-400.1 -787.4 L-401.1 -787.4 L-402.1 -787.4 L-403.1 -787.4 L-404 -787.4 L-405 -787.4 L-406 -787.4 L-407 -787.4 L-408 -787.4 L-408.9 -787.4 L-409.9 -787.4 L-410.9 -787.4 L-411.9 -787.4 L-411.9 -788.4 L-411.9 -789.4 L-411.9 -790.3 L-411.9 -791.3 L-411.9 -792.3 L-411.9 -793.3 L-411.9 -794.3 L-411.9 -795.2 L-411.9 -796.2 L-411.9 -797.2 L-411.9 -798.2 L-411.8 -799.2 L-411.8 -800.1 L-411.8 -801.1 L-411.8 -802.1 L-411.8 -803.1 L-411.8 -804 L-411.8 -805 L-411.8 -806 L-411.8 -807 L-411.8 -808 L-411.8 -808.9 L-411.8 -809.9 L-411.8 -810.9 L-411.8 -811.9 L-410.8 -811.9 L-409.9 -811.9 L-408.9 -811.9 L-407.9 -811.9 L-406.9 -811.9 L-405.9 -811.9 L-405 -811.9 L-404 -811.9 L-403 -811.9 L-402 -811.9 L-401.1 -811.9 L-400.1 -811.8 L-399.1 -811.8 L-398.1 -811.8 L-397.1 -811.8 L-396.2 -811.8 L-395.2 -811.8 L-394.2 -811.8 L-393.2 -811.8 L-392.2 -811.8 L-391.3 -811.8 L-390.3 -811.8 L-389.3 -811.8 L-388.3 -811.8 L-387.4 -811.8 L-387.4 -810.8 L-387.4 -809.9 L-387.4 -808.9 L-387.4 -807.9 L-387.4 -806.9 L-387.4 -805.9 L-387.4 -805 L-387.4 -804 L-387.4 -803 L-387.4 -802 L-387.4 -801.1 L-387.4 -800.1 L-387.4 -799.1 L-387.4 -798.1 L-387.4 -797.1 L-387.4 -796.2 L-387.4 -795.2 L-387.4 -794.2 L-387.4 -793.2 L-387.4 -792.2 L-387.4 -791.3 L-387.4 -790.3 L-387.4 -789.3 L-387.4 -788.3 L-387.4 -787.4 Z " />
<path stroke="rgb(0,0,0)" stroke-opacity="1" fill="rgb(255,255,255)" fill-opacity="1" d="M-382.5 -63.69 L-384.4 -63.39 L-386.4 -63.24 L-388.3 -63.24 L-390.3 -63.4 L-392.2 -63.72 L-394.1 -64.19 L-395.9 -64.8 L-397.7 -65.57 L-399.5 -66.47 L-401.1 -67.51 L-402.7 -68.67 L-404.2 -69.96 L-405.5 -71.36 L-406.8 -72.87 L-407.9 -74.47 L-408.9 -76.15 L-409.8 -77.91 L-410.5 -79.73 L-411.1 -81.6 L-411.5 -83.51 L-411.7 -85.44 L-411.9 -87.4 L-411.8 -89.35 L-411.6 -91.3 L-411.3 -93.22 L-410.8 -95.11 L-410.1 -96.95 L-409.3 -98.74 L-408.4 -100.5 L-407.3 -102.1 L-406.1 -103.6 L-404.8 -105.1 L-403.4 -106.4 L-401.8 -107.6 L-400.2 -108.7 L-398.5 -109.7 L-396.7 -110.5 L-394.9 -111.2 L-393 -111.7 L-391.1 -112.1 L-389.2 -112.3 L-387.2 -112.4 L-385.2 -112.3 L-383.3 -112.1 L-381.4 -111.7 L-379.5 -111.2 L-377.7 -110.5 L-375.9 -109.6 L-374.2 -108.7 L-372.6 -107.6 L-371.1 -106.3 L-369.7 -105 L-368.3 -103.5 L-367.2 -102 L-366.1 -100.3 L-365.2 -98.62 L-364.4 -96.83 L-363.7 -94.98 L-363.2 -93.09 L-362.9 -91.16 L-362.7 -89.22 L-362.7 -87.26 L-362.8 -85.31 L-363.1 -83.37 L-363.5 -81.47 L-364.1 -79.6 L-364.8 -77.78 L-365.7 -76.03 L-366.7 -74.35 L-367.8 -72.76 L-369.1 -71.26 L-370.4 -69.87 L-371.9 -68.59 L-373.5 -67.43 L-375.2 -66.4 L-376.9 -65.51 L-378.7 -64.76 L-380.6 -64.15 L-382.5 -63.69 Z " />
<path stroke="rgb(0,0,0)" stroke-opacity="1" fill="rgb(255,255,255)" fill-opacity="1" d="M-888.3 -688 L-889.3 -688 L-890.3 -688 L-891.2 -688 L-892.2 -688 L-893.2 -688 L-894.2 -688 L-895.1 -688 L-896.1 -688.1 L-897.1 -688.1 L-898.1 -688.1 L-899.1 -688.1 L-900 -688.1 L-901 -688.1 L-902 -688.1 L-903 -688.2 L-903.9 -688.2 L-904.9 -688.2 L-905.9 -688.2 L-906.9 -688.2 L-907.9 -688.2 L-908.8 -688.2 L-909.8 -688.3 L-910.8 -688.3 L-911.8 -688.3 L-912.8 -688.3 L-912.7 -689.3 L-912.7 -690.3 L-912.7 -691.2 L-912.7 -692.2 L-912.7 -693.2 L-912.7 -694.2 L-912.7 -695.1 L-912.6 -696.1 L-912.6 -697.1 L-912.6 -698.1 L-912.6 -699.1 L-912.6 -700 L-912.6 -701 L-912.6 -702 L-912.5 -703 L-912.5 -704 L-912.5 -704.9 L-912.5 -705.9 L-912.5 -706.9 L-912.5 -707.9 L-912.5 -708.8 L-912.5 -709.8 L-912.4 -710.8 L-912.4 -711.8 L-912.4 -712.8 L-911.4 -712.7 L-910.5 -712.7 L-909.5 -712.7 L-908.5 -712.7 L-907.5 -712.7 L-906.5 -712.7 L-905.6 -712.7 L-904.6 -712.6 L-903.6 -712.6 L-902.6 -712.6 L-901.6 -712.6 L-900.7 -712.6 L-899.7 -712.6 L-898.7 -712.6 L-897.7 -712.6 L-896.8 -712.5 L-895.8 -712.5 L-894.8 -712.5 L-893.8 -712.5 L-892.8 -712.5 L-891.9 -712.5 L-890.9 -712.5 L-889.9 -712.4 L-888.9 -712.4 L-887.9 -712.4 L-888 -711.4 L-888 -710.5 L-888 -709.5 L-888 -708.5 L-888 -707.5 L-888 -706.5 L-888 -705.6 L-888.1 -704.6 L-888.1 -703.6 L-888.1 -702.6 L-888.1 -701.7 L-888.1 -700.7 L-888.1 -699.7 L-888.1 -698.7 L-888.2 -697.7 L-888.2 -696.8 L-888.2 -695.8 L-888.2 -694.8 L-888.2 -693.8 L-888.2 -692.8 L-888.2 -691.9 L-888.3 -690.9 L-888.3 -689.9 L-888.3 -688.9 L-888.3 -688 Z " />
<path stroke="rgb(0,0,0)" stroke-opacity="1" fill="rgb(255,255,255)" fill-opacity="1" d="M-195 -72.36 L-197 -72.33 L-198.9 -72.46 L-200.9 -72.75 L-202.8 -73.18 L-204.6 -73.77 L-206.4 -74.5 L-208.2 -75.38 L-209.9 -76.39 L-211.5 -77.53 L-212.9 -78.79 L-214.3 -80.17 L-215.6 -81.66 L-216.8 -83.24 L-217.8 -84.9 L-218.7 -86.65 L-219.4 -88.46 L-220 -90.32 L-220.5 -92.22 L-220.8 -94.15 L-220.9 -96.11 L-220.9 -98.06 L-220.7 -100 L-220.4 -101.9 L-219.9 -103.8 L-219.3 -105.7 L-218.5 -107.5 L-217.6 -109.2 L-216.6 -110.9 L-215.4 -112.4 L-214.1 -113.9 L-212.7 -115.3 L-211.2 -116.5 L-209.6 -117.6 L-207.9 -118.6 L-206.1 -119.5 L-204.3 -120.2 L-202.5 -120.7 L-200.5 -121.2 L-198.6 -121.4 L-196.6 -121.5 L-194.7 -121.5 L-192.7 -121.3 L-190.8 -120.9 L-188.9 -120.4 L-187.1 -119.7 L-185.3 -118.9 L-183.6 -118 L-182 -116.9 L-180.4 -115.7 L-179 -114.4 L-177.7 -112.9 L-176.4 -111.4 L-175.4 -109.8 L-174.4 -108.1 L-173.6 -106.3 L-172.9 -104.5 L-172.4 -102.6 L-172 -100.7 L-171.8 -98.72 L-171.7 -96.76 L-171.8 -94.81 L-172.1 -92.87 L-172.5 -90.95 L-173 -89.08 L-173.7 -87.25 L-174.5 -85.48 L-175.5 -83.79 L-176.6 -82.18 L-177.9 -80.66 L-179.2 -79.25 L-180.7 -77.94 L-182.2 -76.76 L-183.9 -75.7 L-185.6 -74.78 L-187.4 -74 L-189.2 -73.36 L-191.1 -72.88 L-193.1 -72.54 L-195 -72.36 Z " />
<path stroke="rgb(0,0,0)" stroke-opacity="1" fill="rgb(255,255,255)" fill-opacity="1" d="M-688.3 -688 L-689.3 -688 L-690.3 -688 L-691.2 -688 L-692.2 -688 L-693.2 -688 L-694.2 -688 L-695.1 -688 L-696.1 -688.1 L-697.1 -688.1 L-698.1 -688.1 L-699.1 -688.1 L-700 -688.1 L-701 -688.1 L-702 -688.1 L-703 -688.2 L-703.9 -688.2 L-704.9 -688.2 L-705.9 -688.2 L-706.9 -688.2 L-707.9 -688.2 L-708.8 -688.2 L-709.8 -688.3 L-710.8 -688.3 L-711.8 -688.3 L-712.8 -688.3 L-712.7 -689.3 L-712.7 -690.3 L-712.7 -691.2 L-712.7 -692.2 L-712.7 -693.2 L-712.7 -694.2 L-712.7 -695.1 L-712.6 -696.1 L-712.6 -697.1 L-712.6 -698.1 L-712.6 -699.1 L-712.6 -700 L-712.6 -701 L-712.6 -702 L-712.5 -703 L-712.5 -704 L-712.5 -704.9 L-712.5 -705.9 L-712.5 -706.9 L-712.5 -707.9 L-712.5 -708.8 L-712.5 -709.8 L-712.4 -710.8 L-712.4 -711.8 L-712.4 -712.8 L-711.4 -712.7 L-710.5 -712.7 L-709.5 -712.7 L-708.5 -712.7 L-707.5 -712.7 L-706.5 -712.7 L-705.6 -712.7 L-704.6 -712.6 L-703.6 -712.6 L-702.6 -712.6 L-701.6 -712.6 L-700.7 -712.6 L-699.7 -712.6 L-698.7 -712.6 L-697.7 -712.6 L-696.8 -712.5 L-695.8 -712.5 L-694.8 -712.5 L-693.8 -712.5 L-692.8 -712.5 L-691.9 -712.5 L-690.9 -712.5 L-689.9 -712.4 L-688.9 -712.4 L-687.9 -712.4 L-688 -711.4 L-688 -710.5 L-688 -709.5 L-688 -708.5 L-688 -707.5 L-688 -706.5 L-688 -705.6 L-688.1 -704.6 L-688.1 -703.6 L-688.1 -702.6 L-688.1 -701.7 L-688.1 -700.7 L-688.1 -699.7 L-688.1 -698.7 L-688.2 -697.7 L-688.2 -696.8 L-688.2 -695.8 L-688.2 -694.8 L-688.2 -693.8 L-688.2 -692.8 L-688.2 -691.9 L-688.3 -690.9 L-688.3 -689.9 L-688.3 -688.9 L-688.3 -688 Z " />
<path stroke="rgb(0,0,0)" stroke-opacity="1" fill="rgb(255,255,255)" fill-opacity="1" d="M0.7547 -75.39 L-1.2 -75.46 L-3.143 -75.68 L-5.063 -76.05 L-6.946 -76.58 L-8.782 -77.26 L-10.56 -78.08 L-12.26 -79.04 L-13.89 -80.13 L-15.42 -81.34 L-16.85 -82.68 L-18.17 -84.12 L-19.37 -85.67 L-20.45 -87.3 L-21.39 -89.01 L-22.19 -90.8 L-22.85 -92.64 L-23.36 -94.53 L-23.71 -96.45 L-23.92 -98.4 L-23.97 -100.4 L-23.86 -102.3 L-23.6 -104.2 L-23.18 -106.2 L-22.62 -108 L-21.91 -109.9 L-21.05 -111.6 L-20.06 -113.3 L-18.94 -114.9 L-17.69 -116.4 L-16.33 -117.8 L-14.86 -119.1 L-13.29 -120.3 L-11.64 -121.3 L-9.902 -122.2 L-8.103 -123 L-6.248 -123.6 L-4.349 -124.1 L-2.42 -124.4 L-0.4706 -124.6 L1.485 -124.6 L3.436 -124.4 L5.369 -124.1 L7.272 -123.7 L9.133 -123.1 L10.94 -122.3 L12.68 -121.4 L14.35 -120.4 L15.93 -119.3 L17.41 -118 L18.79 -116.6 L20.05 -115.1 L21.19 -113.5 L22.19 -111.8 L23.07 -110.1 L23.8 -108.3 L24.38 -106.4 L24.82 -104.5 L25.1 -102.6 L25.22 -100.6 L25.19 -98.64 L25.01 -96.7 L24.67 -94.77 L24.18 -92.88 L23.54 -91.03 L22.76 -89.24 L21.83 -87.51 L20.78 -85.87 L19.59 -84.31 L18.28 -82.85 L16.87 -81.51 L15.35 -80.27 L13.74 -79.17 L12.04 -78.19 L10.27 -77.35 L8.443 -76.66 L6.565 -76.11 L4.65 -75.72 L2.709 -75.47 L0.7547 -75.39 Z " />
<path stroke="rgb(0,0,0)" stroke-opacity="1" fill="rgb(255,255,255)" fill-opacity="1" d="M-487.4 -687.4 L-488.4 -687.4 L-489.4 -687.4 L-490.3 -687.4 L-491.3 -687.4 L-492.3 -687.4 L-493.3 -687.4 L-494.3 -687.4 L-495.2 -687.4 L-496.2 -687.4 L-497.2 -687.4 L-498.2 -687.4 L-499.2 -687.4 L-500.1 -687.4 L-501.1 -687.4 L-502.1 -687.4 L-503.1 -687.4 L-504 -687.4 L-505 -687.4 L-506 -687.4 L-507 -687.4 L-508 -687.4 L-508.9 -687.4 L-509.9 -687.4 L-510.9 -687.4 L-511.9 -687.4 L-511.9 -688.4 L-511.9 -689.4 L-511.9 -690.3 L-511.9 -691.3 L-511.9 -692.3 L-511.9 -693.3 L-511.9 -694.3 L-511.9 -695.2 L-511.9 -696.2 L-511.9 -697.2 L-511.9 -698.2 L-511.8 -699.2 L-511.8 -700.1 L-511.8 -701.1 L-511.8 -702.1 L-511.8 -703.1 L-511.8 -704 L-511.8 -705 L-511.8 -706 L-511.8 -707 L-511.8 -708 L-511.8 -708.9 L-511.8 -709.9 L-511.8 -710.9 L-511.8 -711.9 L-510.8 -711.9 L-509.9 -711.9 L-508.9 -711.9 L-507.9 -711.9 L-506.9 -711.9 L-505.9 -711.9 L-505 -711.9 L-504 -711.9 L-503 -711.9 L-502 -711.9 L-501.1 -711.9 L-500.1 -711.8 L-499.1 -711.8 L-498.1 -711.8 L-497.1 -711.8 L-496.2 -711.8 L-495.2 -711.8 L-494.2 -711.8 L-493.2 -711.8 L-492.2 -711.8 L-491.3 -711.8 L-490.3 -711.8 L-489.3 -711.8 L-488.3 -711.8 L-487.4 -711.8 L-487.4 -710.8 L-487.4 -709.9 L-487.4 -708.9 L-487.4 -707.9 L-487.4 -706.9 L-487.4 -705.9 L-487.4 -705 L-487.4 -704 L-487.4 -703 L-487.4 -702 L-487.4 -701.1 L-487.4 -700.1 L-487.4 -699.1 L-487.4 -698.1 L-487.4 -697.1 L-487.4 -696.2 L-487.4 -695.2 L-487.4 -694.2 L-487.4 -693.2 L-487.4 -692.2 L-487.4 -691.3 L-487.4 -690.3 L-487.4 -689.3 L-487.4 -688.3 L-487.4 -687.4 Z " />
<path stroke="rgb(0,0,0)" stroke-opacity="1" fill="rgb(255,255,255)" fill-opacity="1" d="M200.3 -75.7 L198.4 -75.78 L196.4 -76.01 L194.5 -76.4 L192.6 -76.94 L190.8 -77.62 L189 -78.45 L187.3 -79.42 L185.7 -80.52 L184.2 -81.74 L182.7 -83.08 L181.4 -84.53 L180.2 -86.08 L179.2 -87.72 L178.2 -89.44 L177.4 -91.23 L176.8 -93.08 L176.3 -94.97 L176 -96.89 L175.8 -98.84 L175.7 -100.8 L175.8 -102.7 L176.1 -104.7 L176.5 -106.6 L177.1 -108.5 L177.8 -110.3 L178.7 -112 L179.7 -113.7 L180.8 -115.3 L182.1 -116.8 L183.4 -118.2 L184.9 -119.5 L186.5 -120.7 L188.2 -121.7 L189.9 -122.6 L191.7 -123.3 L193.6 -124 L195.5 -124.4 L197.4 -124.7 L199.3 -124.9 L201.3 -124.9 L203.2 -124.7 L205.2 -124.4 L207.1 -124 L208.9 -123.3 L210.7 -122.6 L212.5 -121.7 L214.1 -120.7 L215.7 -119.5 L217.2 -118.2 L218.6 -116.8 L219.8 -115.3 L220.9 -113.7 L221.9 -112 L222.8 -110.3 L223.5 -108.5 L224.1 -106.6 L224.5 -104.7 L224.8 -102.7 L224.9 -100.8 L224.9 -98.84 L224.7 -96.89 L224.3 -94.97 L223.8 -93.08 L223.2 -91.23 L222.4 -89.44 L221.5 -87.72 L220.4 -86.08 L219.2 -84.53 L217.9 -83.08 L216.5 -81.74 L214.9 -80.52 L213.3 -79.42 L211.6 -78.45 L209.8 -77.62 L208 -76.94 L206.1 -76.4 L204.2 -76.02 L202.3 -75.78 L200.3 -75.7 Z " />
<path stroke="rgb(0,0,0)" stroke-opacity="1" fill="rgb(255,255,255)" fill-opacity="1" d="M-988.3 -588 L-989.3 -588 L-990.3 -588 L-991.2 -588 L-992.2 -588 L-993.2 -588 L-994.2 -588 L-995.1 -588 L-996.1 -588.1 L-997.1 -588.1 L-998.1 -588.1 L-999.1 -588.1 L-1000 -588.1 L-1001 -588.1 L-1002 -588.1 L-1003 -588.2 L-1004 -588.2 L-1005 -588.2 L-1006 -588.2 L-1007 -588.2 L-1008 -588.2 L-1009 -588.2 L-1010 -588.3 L-1011 -588.3 L-1012 -588.3 L-1013 -588.3 L-1013 -589.3 L-1013 -590.3 L-1013 -591.2 L-1013 -592.2 L-1013 -593.2 L-1013 -594.2 L-1013 -595.1 L-1013 -596.1 L-1013 -597.1 L-1013 -598.1 L-1013 -599.1 L-1013 -600 L-1013 -601 L-1013 -602 L-1013 -603 L-1013 -604 L-1013 -604.9 L-1013 -605.9 L-1012 -606.9 L-1012 -607.9 L-1012 -608.8 L-1012 -609.8 L-1012 -610.8 L-1012 -611.8 L-1012 -612.8 L-1011 -612.7 L-1010 -612.7 L-1009 -612.7 L-1008 -612.7 L-1008 -612.7 L-1007 -612.7 L-1006 -612.7 L-1005 -612.6 L-1004 -612.6 L-1003 -612.6 L-1002 -612.6 L-1001 -612.6 L-999.7 -612.6 L-998.7 -612.6 L-997.7 -612.6 L-996.8 -612.5 L-995.8 -612.5 L-994.8 -612.5 L-993.8 -612.5 L-992.8 -612.5 L-991.9 -612.5 L-990.9 -612.5 L-989.9 -612.4 L-988.9 -612.4 L-987.9 -612.4 L-988 -611.4 L-988 -610.5 L-988 -609.5 L-988 -608.5 L-988 -607.5 L-988 -606.5 L-988 -605.6 L-988.1 -604.6 L-988.1 -603.6 L-988.1 -602.6 L-988.1 -601.7 L-988.1 -600.7 L-988.1 -599.7 L-988.1 -598.7 L-988.2 -597.7 L-988.2 -596.8 L-988.2 -595.8 L-988.2 -594.8 L-988.2 -593.8 L-988.2 -592.8 L-988.2 -591.9 L-988.3 -590.9 L-988.3 -589.9 L-988.3 -588.9 L-988.3 -588 Z " />
<path stroke="rgb(0,0,0)" stroke-opacity="1" fill="rgb(255,255,255)" fill-opacity="1" d="M-295 27.64 L-297 27.67 L-298.9 27.54 L-300.9 27.25 L-302.8 26.82 L-304.6 26.23 L-306.4 25.5 L-308.2 24.62 L-309.9 23.61 L-311.5 22.47 L-312.9 21.21 L-314.3 19.83 L-315.6 18.34 L-316.8 16.76 L-317.8 15.1 L-318.7 13.35 L-319.4 11.54 L-320 9.682 L-320.5 7.779 L-320.8 5.846 L-320.9 3.895 L-320.9 1.939 L-320.7 -0.009919 L-320.4 -1.939 L-319.9 -3.837 L-319.3 -5.69 L-318.5 -7.489 L-317.6 -9.22 L-316.6 -10.87 L-315.4 -12.44 L-314.1 -13.91 L-312.7 -15.27 L-311.2 -16.51 L-309.6 -17.63 L-307.9 -18.62 L-306.1 -19.47 L-304.3 -20.18 L-302.5 -20.75 L-300.5 -21.16 L-298.6 -21.42 L-296.6 -21.52 L-294.7 -21.47 L-292.7 -21.26 L-290.8 -20.9 L-288.9 -20.39 L-287.1 -19.73 L-285.3 -18.92 L-283.6 -17.98 L-282 -16.9 L-280.4 -15.7 L-279 -14.38 L-277.7 -12.95 L-276.4 -11.41 L-275.4 -9.786 L-274.4 -8.08 L-273.6 -6.303 L-272.9 -4.466 L-272.4 -2.582 L-272 -0.662 L-271.8 1.282 L-271.7 3.236 L-271.8 5.19 L-272.1 7.131 L-272.5 9.046 L-273 10.92 L-273.7 12.75 L-274.5 14.52 L-275.5 16.21 L-276.6 17.82 L-277.9 19.34 L-279.2 20.75 L-280.7 22.06 L-282.2 23.24 L-283.9 24.3 L-285.6 25.22 L-287.4 26 L-289.2 26.64 L-291.1 27.12 L-293.1 27.46 L-295 27.64 Z " />
<path stroke="rgb(0,0,0)" stroke-opacity="1" fill="rgb(255,255,255)" fill-opacity="1" d="M-788.3 -588 L-789.3 -588 L-790.3 -588 L-791.2 -588 L-792.2 -588 L-793.2 -588 L-794.2 -588 L-795.1 -588 L-796.1 -588.1 L-797.1 -588.1 L-798.1 -588.1 L-799.1 -588.1 L-800 -588.1 L-801 -588.1 L-802 -588.1 L-803 -588.2 L-803.9 -588.2 L-804.9 -588.2 L-805.9 -588.2 L-806.9 -588.2 L-807.9 -588.2 L-808.8 -588.2 L-809.8 -588.3 L-810.8 -588.3 L-811.8 -588.3 L-812.8 -588.3 L-812.7 -589.3 L-812.7 -590.3 L-812.7 -591.2 L-812.7 -592.2 L-812.7 -593.2 L-812.7 -594.2 L-812.7 -595.1 L-812.6 -596.1 L-812.6 -597.1 L-812.6 -598.1 L-812.6 -599.1 L-812.6 -600 L-812.6 -601 L-812.6 -602 L-812.5 -603 L-812.5 -604 L-812.5 -604.9 L-812.5 -605.9 L-812.5 -606.9 L-812.5 -607.9 L-812.5 -608.8 L-812.5 -609.8 L-812.4 -610.8 L-812.4 -611.8 L-812.4 -612.8 L-811.4 -612.7 L-810.5 -612.7 L-809.5 -612.7 L-808.5 -612.7 L-807.5 -612.7 L-806.5 -612.7 L-805.6 -612.7 L-804.6 -612.6 L-803.6 -612.6 L-802.6 -612.6 L-801.6 -612.6 L-800.7 -612.6 L-799.7 -612.6 L-798.7 -612.6 L-797.7 -612.6 L-796.8 -612.5 L-795.8 -612.5 L-794.8 -612.5 L-793.8 -612.5 L-792.8 -612.5 L-791.9 -612.5 L-790.9 -612.5 L-789.9 -612.4 L-788.9 -612.4 L-787.9 -612.4 L-788 -611.4 L-788 -610.5 L-788 -609.5 L-788 -608.5 L-788 -607.5 L-788 -606.5 L-788 -605.6 L-788.1 -604.6 L-788.1 -603.6 L-788.1 -602.6 L-788.1 -601.7 L-788.1 -600.7 L-788.1 -599.7 L-788.1 -598.7 L-788.2 -597.7 L-788.2 -596.8 L-788.2 -595.8 L-788.2 -594.8 L-788.2 -593.8 L-788.2 -592.8 L-788.2 -591.9 L-788.3 -590.9 L-788.3 -589.9 L-788.3 -588.9 L-788.3 -588 Z " />
<path stroke="rgb(0,0,0)" stroke-opacity="1" fill="rgb(255,255,255)" fill-opacity="1" d="M-99.25 24.61 L-101.2 24.54 L-103.1 24.32 L-105.1 23.95 L-106.9 23.42 L-108.8 22.74 L-110.6 21.92 L-112.3 20.96 L-113.9 19.87 L-115.4 18.66 L-116.8 17.32 L-118.2 15.88 L-119.4 14.33 L-120.4 12.7 L-121.4 10.99 L-122.2 9.202 L-122.8 7.36 L-123.4 5.471 L-123.7 3.548 L-123.9 1.603 L-124 -0.3529 L-123.9 -2.306 L-123.6 -4.244 L-123.2 -6.156 L-122.6 -8.029 L-121.9 -9.85 L-121.1 -11.61 L-120.1 -13.3 L-118.9 -14.9 L-117.7 -16.4 L-116.3 -17.81 L-114.9 -19.1 L-113.3 -20.27 L-111.6 -21.31 L-109.9 -22.22 L-108.1 -22.99 L-106.2 -23.61 L-104.3 -24.08 L-102.4 -24.4 L-100.5 -24.56 L-98.51 -24.57 L-96.56 -24.43 L-94.63 -24.13 L-92.73 -23.67 L-90.87 -23.07 L-89.06 -22.32 L-87.32 -21.43 L-85.65 -20.41 L-84.07 -19.25 L-82.59 -17.98 L-81.21 -16.59 L-79.95 -15.09 L-78.81 -13.5 L-77.81 -11.83 L-76.93 -10.08 L-76.2 -8.262 L-75.62 -6.395 L-75.18 -4.488 L-74.9 -2.552 L-74.78 -0.6002 L-74.81 1.356 L-74.99 3.303 L-75.33 5.23 L-75.82 7.123 L-76.46 8.972 L-77.24 10.76 L-78.17 12.49 L-79.22 14.13 L-80.41 15.69 L-81.72 17.15 L-83.13 18.49 L-84.65 19.73 L-86.26 20.83 L-87.96 21.81 L-89.73 22.65 L-91.56 23.34 L-93.43 23.89 L-95.35 24.28 L-97.29 24.53 L-99.25 24.61 Z " />
<path stroke="rgb(0,0,0)" stroke-opacity="1" fill="rgb(255,255,255)" fill-opacity="1" d="M-587.4 -587.4 L-588.4 -587.4 L-589.4 -587.4 L-590.3 -587.4 L-591.3 -587.4 L-592.3 -587.4 L-593.3 -587.4 L-594.3 -587.4 L-595.2 -587.4 L-596.2 -587.4 L-597.2 -587.4 L-598.2 -587.4 L-599.2 -587.4 L-600.1 -587.4 L-601.1 -587.4 L-602.1 -587.4 L-603.1 -587.4 L-604 -587.4 L-605 -587.4 L-606 -587.4 L-607 -587.4 L-608 -587.4 L-608.9 -587.4 L-609.9 -587.4 L-610.9 -587.4 L-611.9 -587.4 L-611.9 -588.4 L-611.9 -589.4 L-611.9 -590.3 L-611.9 -591.3 L-611.9 -592.3 L-611.9 -593.3 L-611.9 -594.3 L-611.9 -595.2 L-611.9 -596.2 L-611.9 -597.2 L-611.9 -598.2 L-611.8 -599.2 L-611.8 -600.1 L-611.8 -601.1 L-611.8 -602.1 L-611.8 -603.1 L-611.8 -604 L-611.8 -605 L-611.8 -606 L-611.8 -607 L-611.8 -608 L-611.8 -608.9 L-611.8 -609.9 L-611.8 -610.9 L-611.8 -611.9 L-610.8 -611.9 L-609.9 -611.9 L-608.9 -611.9 L-607.9 -611.9 L-606.9 -611.9 L-605.9 -611.9 L-605 -611.9 L-604 -611.9 L-603 -611.9 L-602 -611.9 L-601.1 -611.9 L-600.1 -611.8 L-599.1 -611.8 L-598.1 -611.8 L-597.1 -611.8 L-596.2 -611.8 L-595.2 -611.8 L-594.2 -611.8 L-593.2 -611.8 L-592.2 -611.8 L-591.3 -611.8 L-590.3 -611.8 L-589.3 -611.8 L-588.3 -611.8 L-587.4 -611.8 L-587.4 -610.8 L-587.4 -609.9 L-587.4 -608.9 L-587.4 -607.9 L-587.4 -606.9 L-587.4 -605.9 L-587.4 -605 L-587.4 -604 L-587.4 -603 L-587.4 -602 L-587.4 -601.1 L-587.4 -600.1 L-587.4 -599.1 L-587.4 -598.1 L-587.4 -597.1 L-587.4 -596.2 L-587.4 -595.2 L-587.4 -594.2 L-587.4 -593.2 L-587.4 -592.2 L-587.4 -591.3 L-587.4 -590.3 L-587.4 -589.3 L-587.4 -588.3 L-587.4 -587.4 Z " />
<path stroke="rgb(0,0,0)" stroke-opacity="1" fill="rgb(255,255,255)" fill-opacity="1" d="M100.3 24.3 L98.36 24.22 L96.42 23.99 L94.5 23.6 L92.62 23.06 L90.79 22.38 L89.02 21.55 L87.32 20.58 L85.7 19.48 L84.17 18.26 L82.75 16.92 L81.44 15.47 L80.24 13.92 L79.18 12.28 L78.24 10.56 L77.45 8.77 L76.8 6.925 L76.3 5.034 L75.95 3.109 L75.76 1.163 L75.72 -0.7931 L75.84 -2.746 L76.11 -4.683 L76.53 -6.592 L77.11 -8.462 L77.83 -10.28 L78.69 -12.04 L79.69 -13.72 L80.82 -15.31 L82.08 -16.81 L83.45 -18.21 L84.92 -19.49 L86.49 -20.66 L88.16 -21.69 L89.89 -22.59 L91.7 -23.35 L93.55 -23.96 L95.45 -24.42 L97.39 -24.73 L99.34 -24.89 L101.3 -24.89 L103.2 -24.73 L105.2 -24.42 L107.1 -23.96 L108.9 -23.35 L110.7 -22.59 L112.5 -21.69 L114.1 -20.66 L115.7 -19.5 L117.2 -18.21 L118.6 -16.82 L119.8 -15.31 L120.9 -13.72 L121.9 -12.04 L122.8 -10.28 L123.5 -8.464 L124.1 -6.594 L124.5 -4.685 L124.8 -2.748 L124.9 -0.7951 L124.9 1.161 L124.7 3.107 L124.3 5.032 L123.8 6.923 L123.2 8.768 L122.4 10.56 L121.5 12.28 L120.4 13.92 L119.2 15.47 L117.9 16.92 L116.5 18.26 L114.9 19.48 L113.3 20.58 L111.6 21.55 L109.8 22.38 L108 23.06 L106.1 23.6 L104.2 23.98 L102.3 24.22 L100.3 24.3 Z " />
<path stroke="rgb(0,0,0)" stroke-opacity="1" fill="rgb(255,255,255)" fill-opacity="1" d="M-382.7 -584.1 L-383.6 -584.1 L-384.6 -584 L-385.6 -584 L-386.6 -583.9 L-387.6 -583.8 L-388.5 -583.8 L-389.5 -583.7 L-390.5 -583.7 L-391.5 -583.6 L-392.4 -583.5 L-393.4 -583.5 L-394.4 -583.4 L-395.4 -583.4 L-396.3 -583.3 L-397.3 -583.2 L-398.3 -583.2 L-399.3 -583.1 L-400.3 -583.1 L-401.2 -583 L-402.2 -582.9 L-403.2 -582.9 L-404.2 -582.8 L-405.1 -582.8 L-406.1 -582.7 L-407.1 -582.7 L-407.1 -583.6 L-407.2 -584.6 L-407.3 -585.6 L-407.3 -586.6 L-407.4 -587.5 L-407.4 -588.5 L-407.5 -589.5 L-407.6 -590.5 L-407.6 -591.4 L-407.7 -592.4 L-407.7 -593.4 L-407.8 -594.4 L-407.9 -595.4 L-407.9 -596.3 L-408 -597.3 L-408 -598.3 L-408.1 -599.3 L-408.2 -600.2 L-408.2 -601.2 L-408.3 -602.2 L-408.3 -603.2 L-408.4 -604.1 L-408.4 -605.1 L-408.5 -606.1 L-408.6 -607.1 L-407.6 -607.1 L-406.6 -607.2 L-405.6 -607.3 L-404.7 -607.3 L-403.7 -607.4 L-402.7 -607.4 L-401.7 -607.5 L-400.8 -607.5 L-399.8 -607.6 L-398.8 -607.7 L-397.8 -607.7 L-396.8 -607.8 L-395.9 -607.8 L-394.9 -607.9 L-393.9 -608 L-392.9 -608 L-392 -608.1 L-391 -608.1 L-390 -608.2 L-389 -608.3 L-388.1 -608.3 L-387.1 -608.4 L-386.1 -608.4 L-385.1 -608.5 L-384.1 -608.6 L-384.1 -607.6 L-384 -606.6 L-384 -605.6 L-383.9 -604.6 L-383.8 -603.7 L-383.8 -602.7 L-383.7 -601.7 L-383.7 -600.7 L-383.6 -599.8 L-383.6 -598.8 L-383.5 -597.8 L-383.4 -596.8 L-383.4 -595.9 L-383.3 -594.9 L-383.3 -593.9 L-383.2 -592.9 L-383.1 -591.9 L-383.1 -591 L-383 -590 L-383 -589 L-382.9 -588 L-382.8 -587.1 L-382.8 -586.1 L-382.7 -585.1 L-382.7 -584.1 Z " />
<path stroke="rgb(0,0,0)" stroke-opacity="1" fill="rgb(255,255,255)" fill-opacity="1" d="M-395 127.6 L-397 127.7 L-398.9 127.5 L-400.9 127.3 L-402.8 126.8 L-404.6 126.2 L-406.4 125.5 L-408.2 124.6 L-409.9 123.6 L-411.5 122.5 L-412.9 121.2 L-414.3 119.8 L-415.6 118.3 L-416.8 116.8 L-417.8 115.1 L-418.7 113.4 L-419.4 111.5 L-420 109.7 L-420.5 107.8 L-420.8 105.8 L-420.9 103.9 L-420.9 101.9 L-420.7 99.99 L-420.4 98.06 L-419.9 96.16 L-419.3 94.31 L-418.5 92.51 L-417.6 90.78 L-416.6 89.13 L-415.4 87.56 L-414.1 86.09 L-412.7 84.73 L-411.2 83.49 L-409.6 82.37 L-407.9 81.38 L-406.1 80.53 L-404.3 79.82 L-402.5 79.25 L-400.5 78.84 L-398.6 78.58 L-396.6 78.48 L-394.7 78.53 L-392.7 78.74 L-390.8 79.1 L-388.9 79.61 L-387.1 80.27 L-385.3 81.08 L-383.6 82.02 L-382 83.1 L-380.4 84.3 L-379 85.62 L-377.7 87.05 L-376.4 88.59 L-375.4 90.21 L-374.4 91.92 L-373.6 93.7 L-372.9 95.53 L-372.4 97.42 L-372 99.34 L-371.8 101.3 L-371.7 103.2 L-371.8 105.2 L-372.1 107.1 L-372.5 109 L-373 110.9 L-373.7 112.8 L-374.5 114.5 L-375.5 116.2 L-376.6 117.8 L-377.9 119.3 L-379.2 120.8 L-380.7 122.1 L-382.2 123.2 L-383.9 124.3 L-385.6 125.2 L-387.4 126 L-389.2 126.6 L-391.1 127.1 L-393.1 127.5 L-395 127.6 Z " />
<path stroke="rgb(0,0,0)" stroke-opacity="1" fill="rgb(255,255,255)" fill-opacity="1" d="M-888.3 -488 L-889.3 -488 L-890.3 -488 L-891.2 -488 L-892.2 -488 L-893.2 -488 L-894.2 -488 L-895.1 -488 L-896.1 -488.1 L-897.1 -488.1 L-898.1 -488.1 L-899.1 -488.1 L-900 -488.1 L-901 -488.1 L-902 -488.1 L-903 -488.2 L-903.9 -488.2 L-904.9 -488.2 L-905.9 -488.2 L-906.9 -488.2 L-907.9 -488.2 L-908.8 -488.2 L-909.8 -488.3 L-910.8 -488.3 L-911.8 -488.3 L-912.8 -488.3 L-912.7 -489.3 L-912.7 -490.3 L-912.7 -491.2 L-912.7 -492.2 L-912.7 -493.2 L-912.7 -494.2 L-912.7 -495.1 L-912.6 -496.1 L-912.6 -497.1 L-912.6 -498.1 L-912.6 -499.1 L-912.6 -500 L-912.6 -501 L-912.6 -502 L-912.5 -503 L-912.5 -504 L-912.5 -504.9 L-912.5 -505.9 L-912.5 -506.9 L-912.5 -507.9 L-912.5 -508.8 L-912.5 -509.8 L-912.4 -510.8 L-912.4 -511.8 L-912.4 -512.8 L-911.4 -512.7 L-910.5 -512.7 L-909.5 -512.7 L-908.5 -512.7 L-907.5 -512.7 L-906.5 -512.7 L-905.6 -512.7 L-904.6 -512.6 L-903.6 -512.6 L-902.6 -512.6 L-901.6 -512.6 L-900.7 -512.6 L-899.7 -512.6 L-898.7 -512.6 L-897.7 -512.6 L-896.8 -512.5 L-895.8 -512.5 L-894.8 -512.5 L-893.8 -512.5 L-892.8 -512.5 L-891.9 -512.5 L-890.9 -512.5 L-889.9 -512.4 L-888.9 -512.4 L-887.9 -512.4 L-888 -511.4 L-888 -510.5 L-888 -509.5 L-888 -508.5 L-888 -507.5 L-888 -506.5 L-888 -505.6 L-888.1 -504.6 L-888.1 -503.6 L-888.1 -502.6 L-888.1 -501.7 L-888.1 -500.7 L-888.1 -499.7 L-888.1 -498.7 L-888.2 -497.7 L-888.2 -496.8 L-888.2 -495.8 L-888.2 -494.8 L-888.2 -493.8 L-888.2 -492.8 L-888.2 -491.9 L-888.3 -490.9 L-888.3 -489.9 L-888.3 -488.9 L-888.3 -488 Z " />
<path stroke="rgb(0,0,0)" stroke-opacity="1" fill="rgb(255,255,255)" fill-opacity="1" d="M-199.2 124.6 L-201.2 124.5 L-203.1 124.3 L-205.1 123.9 L-206.9 123.4 L-208.8 122.7 L-210.6 121.9 L-212.3 121 L-213.9 119.9 L-215.4 118.7 L-216.8 117.3 L-218.2 115.9 L-219.4 114.3 L-220.4 112.7 L-221.4 111 L-222.2 109.2 L-222.8 107.4 L-223.4 105.5 L-223.7 103.5 L-223.9 101.6 L-224 99.65 L-223.9 97.69 L-223.6 95.76 L-223.2 93.84 L-222.6 91.97 L-221.9 90.15 L-221.1 88.39 L-220.1 86.7 L-218.9 85.1 L-217.7 83.6 L-216.3 82.19 L-214.9 80.9 L-213.3 79.73 L-211.6 78.69 L-209.9 77.78 L-208.1 77.01 L-206.2 76.39 L-204.3 75.92 L-202.4 75.6 L-200.5 75.44 L-198.5 75.43 L-196.6 75.57 L-194.6 75.87 L-192.7 76.33 L-190.9 76.93 L-189.1 77.68 L-187.3 78.57 L-185.7 79.59 L-184.1 80.75 L-182.6 82.02 L-181.2 83.41 L-180 84.91 L-178.8 86.5 L-177.8 88.17 L-176.9 89.92 L-176.2 91.74 L-175.6 93.6 L-175.2 95.51 L-174.9 97.45 L-174.8 99.4 L-174.8 101.4 L-175 103.3 L-175.3 105.2 L-175.8 107.1 L-176.5 109 L-177.2 110.8 L-178.2 112.5 L-179.2 114.1 L-180.4 115.7 L-181.7 117.1 L-183.1 118.5 L-184.7 119.7 L-186.3 120.8 L-188 121.8 L-189.7 122.6 L-191.6 123.3 L-193.4 123.9 L-195.4 124.3 L-197.3 124.5 L-199.2 124.6 Z " />
<path stroke="rgb(0,0,0)" stroke-opacity="1" fill="rgb(255,255,255)" fill-opacity="1" d="M-687.4 -487.4 L-688.4 -487.4 L-689.4 -487.4 L-690.3 -487.4 L-691.3 -487.4 L-692.3 -487.4 L-693.3 -487.4 L-694.3 -487.4 L-695.2 -487.4 L-696.2 -487.4 L-697.2 -487.4 L-698.2 -487.4 L-699.2 -487.4 L-700.1 -487.4 L-701.1 -487.4 L-702.1 -487.4 L-703.1 -487.4 L-704 -487.4 L-705 -487.4 L-706 -487.4 L-707 -487.4 L-708 -487.4 L-708.9 -487.4 L-709.9 -487.4 L-710.9 -487.4 L-711.9 -487.4 L-711.9 -488.4 L-711.9 -489.4 L-711.9 -490.3 L-711.9 -491.3 L-711.9 -492.3 L-711.9 -493.3 L-711.9 -494.3 L-711.9 -495.2 L-711.9 -496.2 L-711.9 -497.2 L-711.9 -498.2 L-711.8 -499.2 L-711.8 -500.1 L-711.8 -501.1 L-711.8 -502.1 L-711.8 -503.1 L-711.8 -504 L-711.8 -505 L-711.8 -506 L-711.8 -507 L-711.8 -508 L-711.8 -508.9 L-711.8 -509.9 L-711.8 -510.9 L-711.8 -511.9 L-710.8 -511.9 L-709.9 -511.9 L-708.9 -511.9 L-707.9 -511.9 L-706.9 -511.9 L-705.9 -511.9 L-705 -511.9 L-704 -511.9 L-703 -511.9 L-702 -511.9 L-701.1 -511.9 L-700.1 -511.8 L-699.1 -511.8 L-698.1 -511.8 L-697.1 -511.8 L-696.2 -511.8 L-695.2 -511.8 L-694.2 -511.8 L-693.2 -511.8 L-692.2 -511.8 L-691.3 -511.8 L-690.3 -511.8 L-689.3 -511.8 L-688.3 -511.8 L-687.4 -511.8 L-687.4 -510.8 L-687.4 -509.9 L-687.4 -508.9 L-687.4 -507.9 L-687.4 -506.9 L-687.4 -505.9 L-687.4 -505 L-687.4 -504 L-687.4 -503 L-687.4 -502 L-687.4 -501.1 L-687.4 -500.1 L-687.4 -499.1 L-687.4 -498.1 L-687.4 -497.1 L-687.4 -496.2 L-687.4 -495.2 L-687.4 -494.2 L-687.4 -493.2 L-687.4 -492.2 L-687.4 -491.3 L-687.4 -490.3 L-687.4 -489.3 L-687.4 -488.3 L-687.4 -487.4 Z " />
<path stroke="rgb(0,0,0)" stroke-opacity="1" fill="rgb(255,255,255)" fill-opacity="1" d="M0.316 124.3 L-1.638 124.2 L-3.581 124 L-5.498 123.6 L-7.379 123.1 L-9.211 122.4 L-10.98 121.5 L-12.68 120.6 L-14.3 119.5 L-15.83 118.3 L-17.25 116.9 L-18.56 115.5 L-19.76 113.9 L-20.82 112.3 L-21.76 110.6 L-22.55 108.8 L-23.2 106.9 L-23.7 105 L-24.05 103.1 L-24.24 101.2 L-24.28 99.21 L-24.16 97.25 L-23.89 95.32 L-23.47 93.41 L-22.89 91.54 L-22.17 89.72 L-21.31 87.96 L-20.31 86.28 L-19.18 84.69 L-17.92 83.19 L-16.55 81.79 L-15.08 80.51 L-13.51 79.34 L-11.84 78.31 L-10.11 77.41 L-8.304 76.65 L-6.446 76.04 L-4.545 75.58 L-2.614 75.27 L-0.664 75.11 L1.292 75.11 L3.242 75.27 L5.173 75.58 L7.074 76.04 L8.932 76.65 L10.74 77.41 L12.47 78.31 L14.13 79.34 L15.71 80.5 L17.18 81.79 L18.55 83.18 L19.81 84.69 L20.94 86.28 L21.94 87.96 L22.8 89.72 L23.52 91.54 L24.1 93.41 L24.52 95.32 L24.79 97.25 L24.91 99.2 L24.87 101.2 L24.68 103.1 L24.33 105 L23.83 106.9 L23.18 108.8 L22.39 110.6 L21.46 112.3 L20.39 113.9 L19.2 115.5 L17.88 116.9 L16.46 118.3 L14.93 119.5 L13.32 120.6 L11.61 121.5 L9.843 122.4 L8.011 123.1 L6.13 123.6 L4.213 124 L2.271 124.2 L0.316 124.3 Z " />
<path stroke="rgb(0,0,0)" stroke-opacity="1" fill="rgb(255,255,255)" fill-opacity="1" d="M-482.7 -484.1 L-483.6 -484.1 L-484.6 -484 L-485.6 -484 L-486.6 -483.9 L-487.6 -483.8 L-488.5 -483.8 L-489.5 -483.7 L-490.5 -483.7 L-491.5 -483.6 L-492.4 -483.5 L-493.4 -483.5 L-494.4 -483.4 L-495.4 -483.4 L-496.3 -483.3 L-497.3 -483.2 L-498.3 -483.2 L-499.3 -483.1 L-500.3 -483.1 L-501.2 -483 L-502.2 -482.9 L-503.2 -482.9 L-504.2 -482.8 L-505.1 -482.8 L-506.1 -482.7 L-507.1 -482.7 L-507.1 -483.6 L-507.2 -484.6 L-507.3 -485.6 L-507.3 -486.6 L-507.4 -487.5 L-507.4 -488.5 L-507.5 -489.5 L-507.6 -490.5 L-507.6 -491.4 L-507.7 -492.4 L-507.7 -493.4 L-507.8 -494.4 L-507.9 -495.4 L-507.9 -496.3 L-508 -497.3 L-508 -498.3 L-508.1 -499.3 L-508.2 -500.2 L-508.2 -501.2 L-508.3 -502.2 L-508.3 -503.2 L-508.4 -504.1 L-508.4 -505.1 L-508.5 -506.1 L-508.6 -507.1 L-507.6 -507.1 L-506.6 -507.2 L-505.6 -507.3 L-504.7 -507.3 L-503.7 -507.4 L-502.7 -507.4 L-501.7 -507.5 L-500.8 -507.5 L-499.8 -507.6 L-498.8 -507.7 L-497.8 -507.7 L-496.8 -507.8 L-495.9 -507.8 L-494.9 -507.9 L-493.9 -508 L-492.9 -508 L-492 -508.1 L-491 -508.1 L-490 -508.2 L-489 -508.3 L-488.1 -508.3 L-487.1 -508.4 L-486.1 -508.4 L-485.1 -508.5 L-484.1 -508.6 L-484.1 -507.6 L-484 -506.6 L-484 -505.6 L-483.9 -504.6 L-483.8 -503.7 L-483.8 -502.7 L-483.7 -501.7 L-483.7 -500.7 L-483.6 -499.8 L-483.6 -498.8 L-483.5 -497.8 L-483.4 -496.8 L-483.4 -495.9 L-483.3 -494.9 L-483.3 -493.9 L-483.2 -492.9 L-483.1 -491.9 L-483.1 -491 L-483 -490 L-483 -489 L-482.9 -488 L-482.8 -487.1 L-482.8 -486.1 L-482.7 -485.1 L-482.7 -484.1 Z " />
<path stroke="rgb(0,0,0)" stroke-opacity="1" fill="rgb(255,255,255)" fill-opacity="1" d="M200.3 124.3 L198.4 124.2 L196.4 124 L194.5 123.6 L192.6 123.1 L190.8 122.4 L189 121.5 L187.3 120.6 L185.7 119.5 L184.2 118.3 L182.7 116.9 L181.4 115.5 L180.2 113.9 L179.2 112.3 L178.2 110.6 L177.4 108.8 L176.8 106.9 L176.3 105 L176 103.1 L175.8 101.2 L175.7 99.21 L175.8 97.25 L176.1 95.32 L176.5 93.41 L177.1 91.54 L177.8 89.72 L178.7 87.96 L179.7 86.28 L180.8 84.69 L182.1 83.19 L183.4 81.79 L184.9 80.51 L186.5 79.34 L188.2 78.31 L189.9 77.41 L191.7 76.65 L193.6 76.04 L195.5 75.58 L197.4 75.27 L199.3 75.11 L201.3 75.11 L203.2 75.27 L205.2 75.58 L207.1 76.04 L208.9 76.65 L210.7 77.41 L212.5 78.31 L214.1 79.34 L215.7 80.5 L217.2 81.79 L218.6 83.18 L219.8 84.69 L220.9 86.28 L221.9 87.96 L222.8 89.72 L223.5 91.54 L224.1 93.41 L224.5 95.32 L224.8 97.25 L224.9 99.2 L224.9 101.2 L224.7 103.1 L224.3 105 L223.8 106.9 L223.2 108.8 L222.4 110.6 L221.5 112.3 L220.4 113.9 L219.2 115.5 L217.9 116.9 L216.5 118.3 L214.9 119.5 L213.3 120.6 L211.6 121.5 L209.8 122.4 L208 123.1 L206.1 123.6 L204.2 124 L202.3 124.2 L200.3 124.3 Z " />
<path stroke="rgb(0,0,0)" stroke-opacity="1" fill="rgb(255,255,255)" fill-opacity="1" d="M-988.3 -388 L-989.3 -388 L-990.3 -388 L-991.2 -388 L-992.2 -388 L-993.2 -388 L-994.2 -388 L-995.1 -388 L-996.1 -388.1 L-997.1 -388.1 L-998.1 -388.1 L-999.1 -388.1 L-1000 -388.1 L-1001 -388.1 L-1002 -388.1 L-1003 -388.2 L-1004 -388.2 L-1005 -388.2 L-1006 -388.2 L-1007 -388.2 L-1008 -388.2 L-1009 -388.2 L-1010 -388.3 L-1011 -388.3 L-1012 -388.3 L-1013 -388.3 L-1013 -389.3 L-1013 -390.3 L-1013 -391.2 L-1013 -392.2 L-1013 -393.2 L-1013 -394.2 L-1013 -395.1 L-1013 -396.1 L-1013 -397.1 L-1013 -398.1 L-1013 -399.1 L-1013 -400 L-1013 -401 L-1013 -402 L-1013 -403 L-1013 -404 L-1013 -404.9 L-1013 -405.9 L-1012 -406.9 L-1012 -407.9 L-1012 -408.8 L-1012 -409.8 L-1012 -410.8 L-1012 -411.8 L-1012 -412.8 L-1011 -412.7 L-1010 -412.7 L-1009 -412.7 L-1008 -412.7 L-1008 -412.7 L-1007 -412.7 L-1006 -412.7 L-1005 -412.6 L-1004 -412.6 L-1003 -412.6 L-1002 -412.6 L-1001 -412.6 L-999.7 -412.6 L-998.7 -412.6 L-997.7 -412.6 L-996.8 -412.5 L-995.8 -412.5 L-994.8 -412.5 L-993.8 -412.5 L-992.8 -412.5 L-991.9 -412.5 L-990.9 -412.5 L-989.9 -412.4 L-988.9 -412.4 L-987.9 -412.4 L-988 -411.4 L-988 -410.5 L-988 -409.5 L-988 -408.5 L-988 -407.5 L-988 -406.5 L-988 -405.6 L-988.1 -404.6 L-988.1 -403.6 L-988.1 -402.6 L-988.1 -401.7 L-988.1 -400.7 L-988.1 -399.7 L-988.1 -398.7 L-988.2 -397.7 L-988.2 -396.8 L-988.2 -395.8 L-988.2 -394.8 L-988.2 -393.8 L-988.2 -392.8 L-988.2 -391.9 L-988.3 -390.9 L-988.3 -389.9 L-988.3 -388.9 L-988.3 -388 Z " />
<path stroke="rgb(0,0,0)" stroke-opacity="1" fill="rgb(255,255,255)" fill-opacity="1" d="M-299.2 224.6 L-301.2 224.5 L-303.1 224.3 L-305.1 223.9 L-306.9 223.4 L-308.8 222.7 L-310.6 221.9 L-312.3 221 L-313.9 219.9 L-315.4 218.7 L-316.8 217.3 L-318.2 215.9 L-319.4 214.3 L-320.4 212.7 L-321.4 211 L-322.2 209.2 L-322.8 207.4 L-323.4 205.5 L-323.7 203.5 L-323.9 201.6 L-324 199.6 L-323.9 197.7 L-323.6 195.8 L-323.2 193.8 L-322.6 192 L-321.9 190.1 L-321.1 188.4 L-320.1 186.7 L-318.9 185.1 L-317.7 183.6 L-316.3 182.2 L-314.9 180.9 L-313.3 179.7 L-311.6 178.7 L-309.9 177.8 L-308.1 177 L-306.2 176.4 L-304.3 175.9 L-302.4 175.6 L-300.5 175.4 L-298.5 175.4 L-296.6 175.6 L-294.6 175.9 L-292.7 176.3 L-290.9 176.9 L-289.1 177.7 L-287.3 178.6 L-285.7 179.6 L-284.1 180.7 L-282.6 182 L-281.2 183.4 L-280 184.9 L-278.8 186.5 L-277.8 188.2 L-276.9 189.9 L-276.2 191.7 L-275.6 193.6 L-275.2 195.5 L-274.9 197.4 L-274.8 199.4 L-274.8 201.4 L-275 203.3 L-275.3 205.2 L-275.8 207.1 L-276.5 209 L-277.2 210.8 L-278.2 212.5 L-279.2 214.1 L-280.4 215.7 L-281.7 217.1 L-283.1 218.5 L-284.7 219.7 L-286.3 220.8 L-288 221.8 L-289.7 222.6 L-291.6 223.3 L-293.4 223.9 L-295.4 224.3 L-297.3 224.5 L-299.2 224.6 Z " />
<path stroke="rgb(0,0,0)" stroke-opacity="1" fill="rgb(255,255,255)" fill-opacity="1" d="M-787.4 -387.4 L-788.4 -387.4 L-789.4 -387.4 L-790.3 -387.4 L-791.3 -387.4 L-792.3 -387.4 L-793.3 -387.4 L-794.3 -387.4 L-795.2 -387.4 L-796.2 -387.4 L-797.2 -387.4 L-798.2 -387.4 L-799.2 -387.4 L-800.1 -387.4 L-801.1 -387.4 L-802.1 -387.4 L-803.1 -387.4 L-804 -387.4 L-805 -387.4 L-806 -387.4 L-807 -387.4 L-808 -387.4 L-808.9 -387.4 L-809.9 -387.4 L-810.9 -387.4 L-811.9 -387.4 L-811.9 -388.4 L-811.9 -389.4 L-811.9 -390.3 L-811.9 -391.3 L-811.9 -392.3 L-811.9 -393.3 L-811.9 -394.3 L-811.9 -395.2 L-811.9 -396.2 L-811.9 -397.2 L-811.9 -398.2 L-811.8 -399.2 L-811.8 -400.1 L-811.8 -401.1 L-811.8 -402.1 L-811.8 -403.1 L-811.8 -404 L-811.8 -405 L-811.8 -406 L-811.8 -407 L-811.8 -408 L-811.8 -408.9 L-811.8 -409.9 L-811.8 -410.9 L-811.8 -411.9 L-810.8 -411.9 L-809.9 -411.9 L-808.9 -411.9 L-807.9 -411.9 L-806.9 -411.9 L-805.9 -411.9 L-805 -411.9 L-804 -411.9 L-803 -411.9 L-802 -411.9 L-801.1 -411.9 L-800.1 -411.8 L-799.1 -411.8 L-798.1 -411.8 L-797.1 -411.8 L-796.2 -411.8 L-795.2 -411.8 L-794.2 -411.8 L-793.2 -411.8 L-792.2 -411.8 L-791.3 -411.8 L-790.3 -411.8 L-789.3 -411.8 L-788.3 -411.8 L-787.4 -411.8 L-787.4 -410.8 L-787.4 -409.9 L-787.4 -408.9 L-787.4 -407.9 L-787.4 -406.9 L-787.4 -405.9 L-787.4 -405 L-787.4 -404 L-787.4 -403 L-787.4 -402 L-787.4 -401.1 L-787.4 -400.1 L-787.4 -399.1 L-787.4 -398.1 L-787.4 -397.1 L-787.4 -396.2 L-787.4 -395.2 L-787.4 -394.2 L-787.4 -393.2 L-787.4 -392.2 L-787.4 -391.3 L-787.4 -390.3 L-787.4 -389.3 L-787.4 -388.3 L-787.4 -387.4 Z " />
<path stroke="rgb(0,0,0)" stroke-opacity="1" fill="rgb(255,255,255)" fill-opacity="1" d="M-99.68 224.3 L-101.6 224.2 L-103.6 224 L-105.5 223.6 L-107.4 223.1 L-109.2 222.4 L-111 221.5 L-112.7 220.6 L-114.3 219.5 L-115.8 218.3 L-117.3 216.9 L-118.6 215.5 L-119.8 213.9 L-120.8 212.3 L-121.8 210.6 L-122.6 208.8 L-123.2 206.9 L-123.7 205 L-124 203.1 L-124.2 201.2 L-124.3 199.2 L-124.2 197.3 L-123.9 195.3 L-123.5 193.4 L-122.9 191.5 L-122.2 189.7 L-121.3 188 L-120.3 186.3 L-119.2 184.7 L-117.9 183.2 L-116.6 181.8 L-115.1 180.5 L-113.5 179.3 L-111.8 178.3 L-110.1 177.4 L-108.3 176.7 L-106.4 176 L-104.5 175.6 L-102.6 175.3 L-100.7 175.1 L-98.71 175.1 L-96.76 175.3 L-94.83 175.6 L-92.93 176 L-91.07 176.7 L-89.26 177.4 L-87.53 178.3 L-85.87 179.3 L-84.29 180.5 L-82.82 181.8 L-81.45 183.2 L-80.19 184.7 L-79.06 186.3 L-78.06 188 L-77.2 189.7 L-76.48 191.5 L-75.9 193.4 L-75.48 195.3 L-75.21 197.3 L-75.09 199.2 L-75.13 201.2 L-75.32 203.1 L-75.67 205 L-76.17 206.9 L-76.82 208.8 L-77.61 210.6 L-78.54 212.3 L-79.61 213.9 L-80.8 215.5 L-82.12 216.9 L-83.54 218.3 L-85.07 219.5 L-86.68 220.6 L-88.39 221.5 L-90.16 222.4 L-91.99 223.1 L-93.87 223.6 L-95.79 224 L-97.73 224.2 L-99.68 224.3 Z " />
<path stroke="rgb(0,0,0)" stroke-opacity="1" fill="rgb(255,255,255)" fill-opacity="1" d="M-582.7 -384.1 L-583.6 -384.1 L-584.6 -384 L-585.6 -384 L-586.6 -383.9 L-587.6 -383.8 L-588.5 -383.8 L-589.5 -383.7 L-590.5 -383.7 L-591.5 -383.6 L-592.4 -383.5 L-593.4 -383.5 L-594.4 -383.4 L-595.4 -383.4 L-596.3 -383.3 L-597.3 -383.2 L-598.3 -383.2 L-599.3 -383.1 L-600.3 -383.1 L-601.2 -383 L-602.2 -382.9 L-603.2 -382.9 L-604.2 -382.8 L-605.1 -382.8 L-606.1 -382.7 L-607.1 -382.7 L-607.1 -383.6 L-607.2 -384.6 L-607.3 -385.6 L-607.3 -386.6 L-607.4 -387.5 L-607.4 -388.5 L-607.5 -389.5 L-607.6 -390.5 L-607.6 -391.4 L-607.7 -392.4 L-607.7 -393.4 L-607.8 -394.4 L-607.9 -395.4 L-607.9 -396.3 L-608 -397.3 L-608 -398.3 L-608.1 -399.3 L-608.2 -400.2 L-608.2 -401.2 L-608.3 -402.2 L-608.3 -403.2 L-608.4 -404.1 L-608.4 -405.1 L-608.5 -406.1 L-608.6 -407.1 L-607.6 -407.1 L-606.6 -407.2 L-605.6 -407.3 L-604.7 -407.3 L-603.7 -407.4 L-602.7 -407.4 L-601.7 -407.5 L-600.8 -407.5 L-599.8 -407.6 L-598.8 -407.7 L-597.8 -407.7 L-596.8 -407.8 L-595.9 -407.8 L-594.9 -407.9 L-593.9 -408 L-592.9 -408 L-592 -408.1 L-591 -408.1 L-590 -408.2 L-589 -408.3 L-588.1 -408.3 L-587.1 -408.4 L-586.1 -408.4 L-585.1 -408.5 L-584.1 -408.6 L-584.1 -407.6 L-584 -406.6 L-584 -405.6 L-583.9 -404.6 L-583.8 -403.7 L-583.8 -402.7 L-583.7 -401.7 L-583.7 -400.7 L-583.6 -399.8 L-583.6 -398.8 L-583.5 -397.8 L-583.4 -396.8 L-583.4 -395.9 L-583.3 -394.9 L-583.3 -393.9 L-583.2 -392.9 L-583.1 -391.9 L-583.1 -391 L-583 -390 L-583 -389 L-582.9 -388 L-582.8 -387.1 L-582.8 -386.1 L-582.7 -385.1 L-582.7 -384.1 Z " />
<path stroke="rgb(0,0,0)" stroke-opacity="1" fill="rgb(255,255,255)" fill-opacity="1" d="M100.3 224.3 L98.36 224.2 L96.42 224 L94.5 223.6 L92.62 223.1 L90.79 222.4 L89.02 221.5 L87.32 220.6 L85.7 219.5 L84.17 218.3 L82.75 216.9 L81.44 215.5 L80.24 213.9 L79.18 212.3 L78.24 210.6 L77.45 208.8 L76.8 206.9 L76.3 205 L75.95 203.1 L75.76 201.2 L75.72 199.2 L75.84 197.3 L76.11 195.3 L76.53 193.4 L77.11 191.5 L77.83 189.7 L78.69 188 L79.69 186.3 L80.82 184.7 L82.08 183.2 L83.45 181.8 L84.92 180.5 L86.49 179.3 L88.16 178.3 L89.89 177.4 L91.7 176.7 L93.55 176 L95.45 175.6 L97.39 175.3 L99.34 175.1 L101.3 175.1 L103.2 175.3 L105.2 175.6 L107.1 176 L108.9 176.7 L110.7 177.4 L112.5 178.3 L114.1 179.3 L115.7 180.5 L117.2 181.8 L118.6 183.2 L119.8 184.7 L120.9 186.3 L121.9 188 L122.8 189.7 L123.5 191.5 L124.1 193.4 L124.5 195.3 L124.8 197.3 L124.9 199.2 L124.9 201.2 L124.7 203.1 L124.3 205 L123.8 206.9 L123.2 208.8 L122.4 210.6 L121.5 212.3 L120.4 213.9 L119.2 215.5 L117.9 216.9 L116.5 218.3 L114.9 219.5 L113.3 220.6 L111.6 221.5 L109.8 222.4 L108 223.1 L106.1 223.6 L104.2 224 L102.3 224.2 L100.3 224.3 Z " />
<path stroke="rgb(0,0,0)" stroke-opacity="1" fill="rgb(255,255,255)" fill-opacity="1" d="M-371 -376.2 L-371.9 -376 L-372.9 -375.8 L-373.8 -375.6 L-374.8 -375.4 L-375.7 -375.2 L-376.7 -374.9 L-377.7 -374.7 L-378.6 -374.5 L-379.6 -374.3 L-380.5 -374.1 L-381.5 -373.9 L-382.4 -373.7 L-383.4 -373.5 L-384.3 -373.2 L-385.3 -373 L-386.3 -372.8 L-387.2 -372.6 L-388.2 -372.4 L-389.1 -372.2 L-390.1 -372 L-391 -371.8 L-392 -371.6 L-392.9 -371.3 L-393.9 -371.1 L-394.9 -370.9 L-395.1 -371.9 L-395.3 -372.8 L-395.5 -373.8 L-395.7 -374.7 L-395.9 -375.7 L-396.1 -376.6 L-396.3 -377.6 L-396.6 -378.6 L-396.8 -379.5 L-397 -380.5 L-397.2 -381.4 L-397.4 -382.4 L-397.6 -383.3 L-397.8 -384.3 L-398 -385.2 L-398.3 -386.2 L-398.5 -387.2 L-398.7 -388.1 L-398.9 -389.1 L-399.1 -390 L-399.3 -391 L-399.5 -391.9 L-399.7 -392.9 L-399.9 -393.8 L-400.2 -394.8 L-399.2 -395 L-398.2 -395.2 L-397.3 -395.4 L-396.3 -395.7 L-395.4 -395.9 L-394.4 -396.1 L-393.5 -396.3 L-392.5 -396.5 L-391.6 -396.7 L-390.6 -396.9 L-389.7 -397.1 L-388.7 -397.3 L-387.7 -397.6 L-386.8 -397.8 L-385.8 -398 L-384.9 -398.2 L-383.9 -398.4 L-383 -398.6 L-382 -398.8 L-381.1 -399 L-380.1 -399.3 L-379.1 -399.5 L-378.2 -399.7 L-377.2 -399.9 L-376.3 -400.1 L-376.1 -399.2 L-375.8 -398.2 L-375.6 -397.2 L-375.4 -396.3 L-375.2 -395.3 L-375 -394.4 L-374.8 -393.4 L-374.6 -392.5 L-374.4 -391.5 L-374.2 -390.6 L-373.9 -389.6 L-373.7 -388.6 L-373.5 -387.7 L-373.3 -386.7 L-373.1 -385.8 L-372.9 -384.8 L-372.7 -383.9 L-372.5 -382.9 L-372.2 -382 L-372 -381 L-371.8 -380 L-371.6 -379.1 L-371.4 -378.1 L-371.2 -377.2 L-371 -376.2 Z " />
</g>
</g>
</svg>
