<!DOCTYPE svg>
<svg xmlns="http://www.w3.org/2000/svg" xmlns:xlink="http://www.w3.org/1999/xlink" width="1000" height="1000">
<g transform="translate(500.000000,500.000000)">
<g transform="scale(3.000000,3.000000)">
<path stroke="rgb(0,0,0)" stroke-opacity="1" fill="rgb(255,255,255)" fill-opacity="1" d="M-712.6 -688.1 L-712.6 -689.1 L-712.5 -690.1 L-712.5 -691.1 L-712.5 -692.1 L-712.5 -693 L-712.5 -694 L-712.5 -695 L-712.5 -696 L-712.5 -697 L-712.5 -698 L-712.5 -699 L-712.5 -700 L-712.5 -700.9 L-712.5 -701.9 L-712.4 -702.9 L-712.4 -703.9 L-712.4 -704.9 L-712.4 -705.9 L-712.4 -706.9 L-712.4 -707.9 L-712.4 -708.9 L-712.4 -709.8 L-712.4 -710.8 L-712.4 -711.8 L-712.4 -712.8 L-711.4 -712.8 L-710.4 -712.8 L-709.4 -712.8 L-708.4 -712.8 L-707.4 -712.8 L-706.4 -712.8 L-705.5 -712.8 L-704.5 -712.7 L-703.5 -712.7 L-702.5 -712.7 L-701.5 -712.7 L-700.5 -712.7 L-699.5 -712.7 L-698.5 -712.7 L-697.6 -712.7 L-696.6 -712.7 L-695.6 -712.7 L-694.6 -712.7 L-693.6 -712.7 L-692.6 -712.7 L-691.6 -712.6 L-690.6 -712.6 L-689.6 -712.6 L-688.7 -712.6 L-687.7 -712.6 L-687.7 -711.6 L-687.7 -710.6 L-687.7 -709.7 L-687.7 -708.7 L-687.7 -707.7 L-687.7 -706.7 L-687.7 -705.7 L-687.7 -704.7 L-687.7 -703.7 L-687.7 -702.7 L-687.8 -701.7 L-687.8 -700.8 L-687.8 -699.8 L-687.8 -698.8 L-687.8 -697.8 L-687.8 -696.8 L-687.8 -695.8 L-687.8 -694.8 L-687.8 -693.8 L-687.8 -692.9 L-687.8 -691.9 L-687.8 -690.9 L-687.8 -689.9 L-687.9 -688.9 L-687.9 -687.9 L-688.8 -687.9 L-689.8 -687.9 L-690.8 -687.9 L-691.8 -687.9 L-692.8 -688 L-693.8 -688 L-694.8 -688 L-695.8 -688 L-696.8 -688 L-697.7 -688 L-698.7 -688 L-699.7 -688 L-700.7 -688 L-701.7 -688 L-702.7 -688 L-703.7 -688 L-704.7 -688 L-705.6 -688.1 L-706.6 -688.1 L-707.6 -688.1 L-708.6 -688.1 L-709.6 -688.1 L-710.6 -688.1 L-711.6 -688.1 L-712.6 -688.1 Z " />
<path stroke="rgb(0,0,0)" stroke-opacity="1" fill="rgb(255,255,255)" fill-opacity="1" d="M-175.8 -301.1 L-175.8 -299.2 L-175.9 -297.3 L-176.2 -295.4 L-176.7 -293.5 L-177.3 -291.7 L-178 -289.9 L-178.9 -288.2 L-179.9 -286.6 L-181 -285 L-182.3 -283.5 L-183.6 -282.2 L-185.1 -280.9 L-186.6 -279.8 L-188.3 -278.8 L-190 -277.9 L-191.8 -277.2 L-193.6 -276.6 L-195.5 -276.2 L-197.4 -275.9 L-199.3 -275.8 L-201.2 -275.8 L-203.2 -276 L-205.1 -276.3 L-206.9 -276.8 L-208.7 -277.4 L-210.5 -278.2 L-212.2 -279.1 L-213.8 -280.1 L-215.4 -281.3 L-216.8 -282.6 L-218.1 -284 L-219.3 -285.5 L-220.4 -287 L-221.4 -288.7 L-222.2 -290.4 L-222.9 -292.2 L-223.5 -294.1 L-223.8 -296 L-224.1 -297.9 L-224.2 -299.8 L-224.1 -301.7 L-223.9 -303.6 L-223.5 -305.5 L-223 -307.4 L-222.4 -309.2 L-221.6 -310.9 L-220.6 -312.6 L-219.6 -314.2 L-218.4 -315.7 L-217.1 -317.1 L-215.6 -318.4 L-214.1 -319.6 L-212.5 -320.7 L-210.8 -321.6 L-209.1 -322.4 L-207.3 -323.1 L-205.4 -323.6 L-203.5 -323.9 L-201.6 -324.1 L-199.7 -324.2 L-197.8 -324.1 L-195.9 -323.8 L-194 -323.4 L-192.1 -322.9 L-190.4 -322.2 L-188.6 -321.3 L-187 -320.4 L-185.4 -319.3 L-183.9 -318 L-182.5 -316.7 L-181.2 -315.3 L-180.1 -313.7 L-179.1 -312.1 L-178.2 -310.4 L-177.4 -308.6 L-176.8 -306.8 L-176.3 -305 L-176 -303.1 L-175.8 -301.1 Z " />
<path stroke="rgb(0,0,0)" stroke-opacity="1" fill="rgb(255,255,255)" fill-opacity="1" d="M-512.6 -688.1 L-512.6 -689.1 L-512.5 -690.1 L-512.5 -691.1 L-512.5 -692.1 L-512.5 -693 L-512.5 -694 L-512.5 -695 L-512.5 -696 L-512.5 -697 L-512.5 -698 L-512.5 -699 L-512.5 -700 L-512.5 -700.9 L-512.5 -701.9 L-512.4 -702.9 L-512.4 -703.9 L-512.4 -704.9 L-512.4 -705.9 L-512.4 -706.9 L-512.4 -707.9 L-512.4 -708.9 L-512.4 -709.8 L-512.4 -710.8 L-512.4 -711.8 L-512.4 -712.8 L-511.4 -712.8 L-510.4 -712.8 L-509.4 -712.8 L-508.4 -712.8 L-507.4 -712.8 L-506.4 -712.8 L-505.5 -712.8 L-504.5 -712.7 L-503.5 -712.7 L-502.5 -712.7 L-501.5 -712.7 L-500.5 -712.7 L-499.5 -712.7 L-498.5 -712.7 L-497.6 -712.7 L-496.6 -712.7 L-495.6 -712.7 L-494.6 -712.7 L-493.6 -712.7 L-492.6 -712.7 L-491.6 -712.6 L-490.6 -712.6 L-489.6 -712.6 L-488.7 -712.6 L-487.7 -712.6 L-487.7 -711.6 L-487.7 -710.6 L-487.7 -709.7 L-487.7 -708.7 L-487.7 -707.7 L-487.7 -706.7 L-487.7 -705.7 L-487.7 -704.7 L-487.7 -703.7 L-487.7 -702.7 L-487.8 -701.7 L-487.8 -700.8 L-487.8 -699.8 L-487.8 -698.8 L-487.8 -697.8 L-487.8 -696.8 L-487.8 -695.8 L-487.8 -694.8 L-487.8 -693.8 L-487.8 -692.9 L-487.8 -691.9 L-487.8 -690.9 L-487.8 -689.9 L-487.9 -688.9 L-487.9 -687.9 L-488.8 -687.9 L-489.8 -687.9 L-490.8 -687.9 L-491.8 -687.9 L-492.8 -688 L-493.8 -688 L-494.8 -688 L-495.8 -688 L-496.8 -688 L-497.7 -688 L-498.7 -688 L-499.7 -688 L-500.7 -688 L-501.7 -688 L-502.7 -688 L-503.7 -688 L-504.7 -688 L-505.6 -688.1 L-506.6 -688.1 L-507.6 -688.1 L-508.6 -688.1 L-509.6 -688.1 L-510.6 -688.1 L-511.6 -688.1 L-512.6 -688.1 Z " />
<path stroke="rgb(0,0,0)" stroke-opacity="1" fill="rgb(255,255,255)" fill-opacity="1" d="M15.84 -310.5 L16.64 -309.3 L17.33 -307.9 L17.92 -306.5 L18.39 -305.1 L18.74 -303.6 L18.98 -302.1 L19.1 -300.6 L19.1 -299.1 L18.98 -297.6 L18.74 -296.1 L18.38 -294.6 L17.91 -293.2 L17.33 -291.8 L16.63 -290.5 L15.83 -289.2 L14.93 -288 L13.94 -286.8 L12.86 -285.8 L11.7 -284.8 L10.47 -283.9 L9.172 -283.2 L7.816 -282.5 L6.411 -281.9 L4.967 -281.5 L3.492 -281.2 L1.996 -281 L0.4878 -280.9 L-1.023 -280.9 L-2.526 -281 L-4.013 -281.3 L-5.473 -281.7 L-6.898 -282.2 L-8.279 -282.8 L-9.607 -283.5 L-10.87 -284.4 L-12.07 -285.3 L-13.19 -286.3 L-14.23 -287.4 L-15.17 -288.6 L-16.02 -289.8 L-16.77 -291.1 L-17.4 -292.5 L-17.93 -293.9 L-18.35 -295.4 L-18.65 -296.9 L-18.83 -298.4 L-18.89 -299.9 L-18.82 -301.4 L-18.64 -302.9 L-18.35 -304.4 L-17.93 -305.8 L-17.4 -307.2 L-16.76 -308.6 L-16.01 -309.9 L-15.16 -311.2 L-14.22 -312.3 L-13.18 -313.4 L-12.06 -314.5 L-10.86 -315.4 L-9.597 -316.2 L-8.269 -316.9 L-6.887 -317.5 L-5.462 -318 L-4.001 -318.4 L-2.514 -318.7 L-1.011 -318.8 L0.4997 -318.9 L2.008 -318.8 L3.504 -318.6 L4.979 -318.2 L6.423 -317.8 L7.827 -317.2 L9.182 -316.6 L10.48 -315.8 L11.71 -314.9 L12.87 -313.9 L13.95 -312.9 L14.94 -311.8 L15.84 -310.5 Z " />
<path stroke="rgb(0,0,0)" stroke-opacity="1" fill="rgb(255,255,255)" fill-opacity="1" d="M-312.6 -688.1 L-312.6 -689.1 L-312.5 -690.1 L-312.5 -691.1 L-312.5 -692.1 L-312.5 -693 L-312.5 -694 L-312.5 -695 L-312.5 -696 L-312.5 -697 L-312.5 -698 L-312.5 -699 L-312.5 -700 L-312.5 -700.9 L-312.5 -701.9 L-312.4 -702.9 L-312.4 -703.9 L-312.4 -704.9 L-312.4 -705.9 L-312.4 -706.9 L-312.4 -707.9 L-312.4 -708.9 L-312.4 -709.8 L-312.4 -710.8 L-312.4 -711.8 L-312.4 -712.8 L-311.4 -712.8 L-310.4 -712.8 L-309.4 -712.8 L-308.4 -712.8 L-307.4 -712.8 L-306.4 -712.8 L-305.5 -712.8 L-304.5 -712.7 L-303.5 -712.7 L-302.5 -712.7 L-301.5 -712.7 L-300.5 -712.7 L-299.5 -712.7 L-298.5 -712.7 L-297.6 -712.7 L-296.6 -712.7 L-295.6 -712.7 L-294.6 -712.7 L-293.6 -712.7 L-292.6 -712.7 L-291.6 -712.6 L-290.6 -712.6 L-289.6 -712.6 L-288.7 -712.6 L-287.7 -712.6 L-287.7 -711.6 L-287.7 -710.6 L-287.7 -709.7 L-287.7 -708.7 L-287.7 -707.7 L-287.7 -706.7 L-287.7 -705.7 L-287.7 -704.7 L-287.7 -703.7 L-287.7 -702.7 L-287.8 -701.7 L-287.8 -700.8 L-287.8 -699.8 L-287.8 -698.8 L-287.8 -697.8 L-287.8 -696.8 L-287.8 -695.8 L-287.8 -694.8 L-287.8 -693.8 L-287.8 -692.9 L-287.8 -691.9 L-287.8 -690.9 L-287.8 -689.9 L-287.9 -688.9 L-287.9 -687.9 L-288.8 -687.9 L-289.8 -687.9 L-290.8 -687.9 L-291.8 -687.9 L-292.8 -688 L-293.8 -688 L-294.8 -688 L-295.8 -688 L-296.8 -688 L-297.7 -688 L-298.7 -688 L-299.7 -688 L-300.7 -688 L-301.7 -688 L-302.7 -688 L-303.7 -688 L-304.7 -688 L-305.6 -688.1 L-306.6 -688.1 L-307.6 -688.1 L-308.6 -688.1 L-309.6 -688.1 L-310.6 -688.1 L-311.6 -688.1 L-312.6 -688.1 Z " />
<path stroke="rgb(0,0,0)" stroke-opacity="1" fill="rgb(255,255,255)" fill-opacity="1" d="M202.5 -313 L203.5 -312.7 L204.5 -312.4 L205.5 -312.1 L206.5 -311.6 L207.4 -311.1 L208.2 -310.5 L209.1 -309.8 L209.8 -309.1 L210.5 -308.3 L211.2 -307.5 L211.7 -306.6 L212.2 -305.6 L212.7 -304.7 L213 -303.7 L213.3 -302.7 L213.5 -301.6 L213.6 -300.6 L213.6 -299.5 L213.5 -298.4 L213.4 -297.4 L213.1 -296.4 L212.8 -295.4 L212.4 -294.4 L211.9 -293.4 L211.4 -292.5 L210.8 -291.7 L210.1 -290.9 L209.4 -290.1 L208.6 -289.4 L207.7 -288.8 L206.8 -288.2 L205.9 -287.8 L204.9 -287.4 L203.9 -287 L202.8 -286.8 L201.8 -286.6 L200.7 -286.5 L199.7 -286.6 L198.6 -286.6 L197.6 -286.8 L196.6 -287.1 L195.6 -287.4 L194.6 -287.8 L193.7 -288.3 L192.8 -288.9 L191.9 -289.5 L191.1 -290.2 L190.4 -291 L189.7 -291.8 L189.1 -292.6 L188.6 -293.6 L188.1 -294.5 L187.7 -295.5 L187.4 -296.5 L187.2 -297.5 L187 -298.6 L187 -299.6 L187 -300.7 L187.1 -301.7 L187.3 -302.8 L187.6 -303.8 L187.9 -304.8 L188.4 -305.8 L188.9 -306.7 L189.5 -307.6 L190.1 -308.4 L190.8 -309.2 L191.6 -309.9 L192.4 -310.6 L193.3 -311.2 L194.2 -311.7 L195.2 -312.1 L196.2 -312.5 L197.2 -312.8 L198.2 -313 L199.3 -313.1 L200.4 -313.1 L201.4 -313.1 L202.5 -313 Z " />
<path stroke="rgb(0,0,0)" stroke-opacity="1" fill="rgb(255,255,255)" fill-opacity="1" d="M-112.2 -687.8 L-112.2 -688.8 L-112.2 -689.8 L-112.2 -690.7 L-112.2 -691.7 L-112.2 -692.7 L-112.2 -693.7 L-112.2 -694.7 L-112.2 -695.7 L-112.2 -696.7 L-112.2 -697.7 L-112.2 -698.7 L-112.2 -699.6 L-112.2 -700.6 L-112.2 -701.6 L-112.2 -702.6 L-112.2 -703.6 L-112.2 -704.6 L-112.2 -705.6 L-112.2 -706.6 L-112.2 -707.5 L-112.2 -708.5 L-112.2 -709.5 L-112.2 -710.5 L-112.2 -711.5 L-112.2 -712.5 L-111.2 -712.5 L-110.2 -712.5 L-109.2 -712.5 L-108.2 -712.5 L-107.2 -712.5 L-106.2 -712.5 L-105.2 -712.5 L-104.3 -712.5 L-103.3 -712.5 L-102.3 -712.5 L-101.3 -712.5 L-100.3 -712.4 L-99.31 -712.4 L-98.32 -712.4 L-97.33 -712.4 L-96.35 -712.4 L-95.36 -712.4 L-94.37 -712.4 L-93.38 -712.4 L-92.39 -712.4 L-91.41 -712.4 L-90.42 -712.4 L-89.43 -712.4 L-88.44 -712.4 L-87.45 -712.4 L-87.46 -711.4 L-87.46 -710.4 L-87.46 -709.4 L-87.47 -708.4 L-87.47 -707.5 L-87.47 -706.5 L-87.48 -705.5 L-87.48 -704.5 L-87.48 -703.5 L-87.49 -702.5 L-87.49 -701.5 L-87.49 -700.5 L-87.5 -699.6 L-87.5 -698.6 L-87.5 -697.6 L-87.51 -696.6 L-87.51 -695.6 L-87.51 -694.6 L-87.52 -693.6 L-87.52 -692.6 L-87.53 -691.7 L-87.53 -690.7 L-87.53 -689.7 L-87.54 -688.7 L-87.54 -687.7 L-88.53 -687.7 L-89.52 -687.7 L-90.5 -687.7 L-91.49 -687.7 L-92.48 -687.7 L-93.47 -687.7 L-94.46 -687.7 L-95.44 -687.7 L-96.43 -687.7 L-97.42 -687.7 L-98.41 -687.7 L-99.4 -687.7 L-100.4 -687.7 L-101.4 -687.7 L-102.4 -687.7 L-103.3 -687.8 L-104.3 -687.8 L-105.3 -687.8 L-106.3 -687.8 L-107.3 -687.8 L-108.3 -687.8 L-109.3 -687.8 L-110.3 -687.8 L-111.3 -687.8 L-112.2 -687.8 Z " />
<path stroke="rgb(0,0,0)" stroke-opacity="1" fill="rgb(255,255,255)" fill-opacity="1" d="M-275.8 -201.1 L-275.8 -199.2 L-275.9 -197.3 L-276.2 -195.4 L-276.7 -193.5 L-277.3 -191.7 L-278 -189.9 L-278.9 -188.2 L-279.9 -186.6 L-281 -185 L-282.3 -183.5 L-283.6 -182.2 L-285.1 -180.9 L-286.6 -179.8 L-288.3 -178.8 L-290 -177.9 L-291.8 -177.2 L-293.6 -176.6 L-295.5 -176.2 L-297.4 -175.9 L-299.3 -175.8 L-301.2 -175.8 L-303.2 -176 L-305.1 -176.3 L-306.9 -176.8 L-308.7 -177.4 L-310.5 -178.2 L-312.2 -179.1 L-313.8 -180.1 L-315.4 -181.3 L-316.8 -182.6 L-318.1 -184 L-319.3 -185.5 L-320.4 -187 L-321.4 -188.7 L-322.2 -190.4 L-322.9 -192.2 L-323.5 -194.1 L-323.8 -196 L-324.1 -197.9 L-324.2 -199.8 L-324.1 -201.7 L-323.9 -203.6 L-323.5 -205.5 L-323 -207.4 L-322.4 -209.2 L-321.6 -210.9 L-320.6 -212.6 L-319.6 -214.2 L-318.4 -215.7 L-317.1 -217.1 L-315.6 -218.4 L-314.1 -219.6 L-312.5 -220.7 L-310.8 -221.6 L-309.1 -222.4 L-307.3 -223.1 L-305.4 -223.6 L-303.5 -223.9 L-301.6 -224.1 L-299.7 -224.2 L-297.8 -224.1 L-295.9 -223.8 L-294 -223.4 L-292.1 -222.9 L-290.4 -222.2 L-288.6 -221.3 L-287 -220.4 L-285.4 -219.3 L-283.9 -218 L-282.5 -216.7 L-281.2 -215.3 L-280.1 -213.7 L-279.1 -212.1 L-278.2 -210.4 L-277.4 -208.6 L-276.8 -206.8 L-276.3 -205 L-276 -203.1 L-275.8 -201.1 Z " />
<path stroke="rgb(0,0,0)" stroke-opacity="1" fill="rgb(255,255,255)" fill-opacity="1" d="M-612.6 -588.1 L-612.6 -589.1 L-612.5 -590.1 L-612.5 -591.1 L-612.5 -592.1 L-612.5 -593 L-612.5 -594 L-612.5 -595 L-612.5 -596 L-612.5 -597 L-612.5 -598 L-612.5 -599 L-612.5 -600 L-612.5 -600.9 L-612.5 -601.9 L-612.4 -602.9 L-612.4 -603.9 L-612.4 -604.9 L-612.4 -605.9 L-612.4 -606.9 L-612.4 -607.9 L-612.4 -608.9 L-612.4 -609.8 L-612.4 -610.8 L-612.4 -611.8 L-612.4 -612.8 L-611.4 -612.8 L-610.4 -612.8 L-609.4 -612.8 L-608.4 -612.8 L-607.4 -612.8 L-606.4 -612.8 L-605.5 -612.8 L-604.5 -612.7 L-603.5 -612.7 L-602.5 -612.7 L-601.5 -612.7 L-600.5 -612.7 L-599.5 -612.7 L-598.5 -612.7 L-597.6 -612.7 L-596.6 -612.7 L-595.6 -612.7 L-594.6 -612.7 L-593.6 -612.7 L-592.6 -612.7 L-591.6 -612.6 L-590.6 -612.6 L-589.6 -612.6 L-588.7 -612.6 L-587.7 -612.6 L-587.7 -611.6 L-587.7 -610.6 L-587.7 -609.7 L-587.7 -608.7 L-587.7 -607.7 L-587.7 -606.7 L-587.7 -605.7 L-587.7 -604.7 L-587.7 -603.7 L-587.7 -602.7 L-587.8 -601.7 L-587.8 -600.8 L-587.8 -599.8 L-587.8 -598.8 L-587.8 -597.8 L-587.8 -596.8 L-587.8 -595.8 L-587.8 -594.8 L-587.8 -593.8 L-587.8 -592.9 L-587.8 -591.9 L-587.8 -590.9 L-587.8 -589.9 L-587.9 -588.9 L-587.9 -587.9 L-588.8 -587.9 L-589.8 -587.9 L-590.8 -587.9 L-591.8 -587.9 L-592.8 -588 L-593.8 -588 L-594.8 -588 L-595.8 -588 L-596.8 -588 L-597.7 -588 L-598.7 -588 L-599.7 -588 L-600.7 -588 L-601.7 -588 L-602.7 -588 L-603.7 -588 L-604.7 -588 L-605.6 -588.1 L-606.6 -588.1 L-607.6 -588.1 L-608.6 -588.1 L-609.6 -588.1 L-610.6 -588.1 L-611.6 -588.1 L-612.6 -588.1 Z " />
<path stroke="rgb(0,0,0)" stroke-opacity="1" fill="rgb(255,255,255)" fill-opacity="1" d="M-84.16 -210.5 L-83.36 -209.3 L-82.67 -207.9 L-82.08 -206.5 L-81.61 -205.1 L-81.26 -203.6 L-81.02 -202.1 L-80.9 -200.6 L-80.9 -199.1 L-81.02 -197.6 L-81.26 -196.1 L-81.62 -194.6 L-82.09 -193.2 L-82.67 -191.8 L-83.37 -190.5 L-84.17 -189.2 L-85.07 -188 L-86.06 -186.8 L-87.14 -185.8 L-88.3 -184.8 L-89.53 -183.9 L-90.83 -183.2 L-92.18 -182.5 L-93.59 -181.9 L-95.03 -181.5 L-96.51 -181.2 L-98 -181 L-99.51 -180.9 L-101 -180.9 L-102.5 -181 L-104 -181.3 L-105.5 -181.7 L-106.9 -182.2 L-108.3 -182.8 L-109.6 -183.5 L-110.9 -184.4 L-112.1 -185.3 L-113.2 -186.3 L-114.2 -187.4 L-115.2 -188.6 L-116 -189.8 L-116.8 -191.1 L-117.4 -192.5 L-117.9 -193.9 L-118.3 -195.4 L-118.6 -196.9 L-118.8 -198.4 L-118.9 -199.9 L-118.8 -201.4 L-118.6 -202.9 L-118.3 -204.4 L-117.9 -205.8 L-117.4 -207.2 L-116.8 -208.6 L-116 -209.9 L-115.2 -211.2 L-114.2 -212.3 L-113.2 -213.4 L-112.1 -214.5 L-110.9 -215.4 L-109.6 -216.2 L-108.3 -216.9 L-106.9 -217.5 L-105.5 -218 L-104 -218.4 L-102.5 -218.7 L-101 -218.8 L-99.5 -218.9 L-97.99 -218.8 L-96.5 -218.6 L-95.02 -218.2 L-93.58 -217.8 L-92.17 -217.2 L-90.82 -216.6 L-89.52 -215.8 L-88.29 -214.9 L-87.13 -213.9 L-86.05 -212.9 L-85.06 -211.8 L-84.16 -210.5 Z " />
<path stroke="rgb(0,0,0)" stroke-opacity="1" fill="rgb(255,255,255)" fill-opacity="1" d="M-412.6 -588.1 L-412.6 -589.1 L-412.5 -590.1 L-412.5 -591.1 L-412.5 -592.1 L-412.5 -593 L-412.5 -594 L-412.5 -595 L-412.5 -596 L-412.5 -597 L-412.5 -598 L-412.5 -599 L-412.5 -600 L-412.5 -600.9 L-412.5 -601.9 L-412.4 -602.9 L-412.4 -603.9 L-412.4 -604.9 L-412.4 -605.9 L-412.4 -606.9 L-412.4 -607.9 L-412.4 -608.9 L-412.4 -609.8 L-412.4 -610.8 L-412.4 -611.8 L-412.4 -612.8 L-411.4 -612.8 L-410.4 -612.8 L-409.4 -612.8 L-408.4 -612.8 L-407.4 -612.8 L-406.4 -612.8 L-405.5 -612.8 L-404.5 -612.7 L-403.5 -612.7 L-402.5 -612.7 L-401.5 -612.7 L-400.5 -612.7 L-399.5 -612.7 L-398.5 -612.7 L-397.6 -612.7 L-396.6 -612.7 L-395.6 -612.7 L-394.6 -612.7 L-393.6 -612.7 L-392.6 -612.7 L-391.6 -612.6 L-390.6 -612.6 L-389.6 -612.6 L-388.7 -612.6 L-387.7 -612.6 L-387.7 -611.6 L-387.7 -610.6 L-387.7 -609.7 L-387.7 -608.7 L-387.7 -607.7 L-387.7 -606.7 L-387.7 -605.7 L-387.7 -604.7 L-387.7 -603.7 L-387.7 -602.7 L-387.8 -601.7 L-387.8 -600.8 L-387.8 -599.8 L-387.8 -598.8 L-387.8 -597.8 L-387.8 -596.8 L-387.8 -595.8 L-387.8 -594.8 L-387.8 -593.8 L-387.8 -592.9 L-387.8 -591.9 L-387.8 -590.9 L-387.8 -589.9 L-387.9 -588.9 L-387.9 -587.9 L-388.8 -587.9 L-389.8 -587.9 L-390.8 -587.9 L-391.8 -587.9 L-392.8 -588 L-393.8 -588 L-394.8 -588 L-395.8 -588 L-396.8 -588 L-397.7 -588 L-398.7 -588 L-399.7 -588 L-400.7 -588 L-401.7 -588 L-402.7 -588 L-403.7 -588 L-404.7 -588 L-405.6 -588.1 L-406.6 -588.1 L-407.6 -588.1 L-408.6 -588.1 L-409.6 -588.1 L-410.6 -588.1 L-411.6 -588.1 L-412.6 -588.1 Z " />
<path stroke="rgb(0,0,0)" stroke-opacity="1" fill="rgb(255,255,255)" fill-opacity="1" d="M102.5 -213 L103.5 -212.7 L104.5 -212.4 L105.5 -212.1 L106.5 -211.6 L107.4 -211.1 L108.2 -210.5 L109.1 -209.8 L109.8 -209.1 L110.5 -208.3 L111.2 -207.5 L111.7 -206.6 L112.2 -205.6 L112.7 -204.7 L113 -203.7 L113.3 -202.7 L113.5 -201.6 L113.6 -200.6 L113.6 -199.5 L113.5 -198.4 L113.4 -197.4 L113.1 -196.4 L112.8 -195.4 L112.4 -194.4 L111.9 -193.4 L111.4 -192.5 L110.8 -191.7 L110.1 -190.9 L109.4 -190.1 L108.6 -189.4 L107.7 -188.8 L106.8 -188.2 L105.9 -187.8 L104.9 -187.4 L103.9 -187 L102.8 -186.8 L101.8 -186.6 L100.7 -186.5 L99.69 -186.6 L98.64 -186.6 L97.59 -186.8 L96.57 -187.1 L95.56 -187.4 L94.59 -187.8 L93.65 -188.3 L92.76 -188.9 L91.91 -189.5 L91.12 -190.2 L90.38 -191 L89.71 -191.8 L89.1 -192.6 L88.56 -193.6 L88.1 -194.5 L87.72 -195.5 L87.41 -196.5 L87.19 -197.5 L87.05 -198.6 L86.99 -199.6 L87.02 -200.7 L87.13 -201.7 L87.32 -202.8 L87.59 -203.8 L87.95 -204.8 L88.38 -205.8 L88.89 -206.7 L89.47 -207.6 L90.12 -208.4 L90.84 -209.2 L91.61 -209.9 L92.44 -210.6 L93.32 -211.2 L94.24 -211.7 L95.2 -212.1 L96.19 -212.5 L97.21 -212.8 L98.25 -213 L99.3 -213.1 L100.4 -213.1 L101.4 -213.1 L102.5 -213 Z " />
<path stroke="rgb(0,0,0)" stroke-opacity="1" fill="rgb(255,255,255)" fill-opacity="1" d="M-212.2 -587.8 L-212.2 -588.8 L-212.2 -589.8 L-212.2 -590.7 L-212.2 -591.7 L-212.2 -592.7 L-212.2 -593.7 L-212.2 -594.7 L-212.2 -595.7 L-212.2 -596.7 L-212.2 -597.7 L-212.2 -598.7 L-212.2 -599.6 L-212.2 -600.6 L-212.2 -601.6 L-212.2 -602.6 L-212.2 -603.6 L-212.2 -604.6 L-212.2 -605.6 L-212.2 -606.6 L-212.2 -607.5 L-212.2 -608.5 L-212.2 -609.5 L-212.2 -610.5 L-212.2 -611.5 L-212.2 -612.5 L-211.2 -612.5 L-210.2 -612.5 L-209.2 -612.5 L-208.2 -612.5 L-207.2 -612.5 L-206.2 -612.5 L-205.2 -612.5 L-204.3 -612.5 L-203.3 -612.5 L-202.3 -612.5 L-201.3 -612.5 L-200.3 -612.4 L-199.3 -612.4 L-198.3 -612.4 L-197.3 -612.4 L-196.3 -612.4 L-195.4 -612.4 L-194.4 -612.4 L-193.4 -612.4 L-192.4 -612.4 L-191.4 -612.4 L-190.4 -612.4 L-189.4 -612.4 L-188.4 -612.4 L-187.5 -612.4 L-187.5 -611.4 L-187.5 -610.4 L-187.5 -609.4 L-187.5 -608.4 L-187.5 -607.5 L-187.5 -606.5 L-187.5 -605.5 L-187.5 -604.5 L-187.5 -603.5 L-187.5 -602.5 L-187.5 -601.5 L-187.5 -600.5 L-187.5 -599.6 L-187.5 -598.6 L-187.5 -597.6 L-187.5 -596.6 L-187.5 -595.6 L-187.5 -594.6 L-187.5 -593.6 L-187.5 -592.6 L-187.5 -591.7 L-187.5 -590.7 L-187.5 -589.7 L-187.5 -588.7 L-187.5 -587.7 L-188.5 -587.7 L-189.5 -587.7 L-190.5 -587.7 L-191.5 -587.7 L-192.5 -587.7 L-193.5 -587.7 L-194.5 -587.7 L-195.4 -587.7 L-196.4 -587.7 L-197.4 -587.7 L-198.4 -587.7 L-199.4 -587.7 L-200.4 -587.7 L-201.4 -587.7 L-202.4 -587.7 L-203.3 -587.8 L-204.3 -587.8 L-205.3 -587.8 L-206.3 -587.8 L-207.3 -587.8 L-208.3 -587.8 L-209.3 -587.8 L-210.3 -587.8 L-211.3 -587.8 L-212.2 -587.8 Z " />
<path stroke="rgb(0,0,0)" stroke-opacity="1" fill="rgb(255,255,255)" fill-opacity="1" d="M300.4 -212.3 L301.4 -212.2 L302.4 -212.1 L303.3 -211.9 L304.3 -211.6 L305.2 -211.3 L306.1 -210.8 L307 -210.3 L307.8 -209.8 L308.5 -209.1 L309.3 -208.5 L309.9 -207.7 L310.5 -206.9 L311 -206.1 L311.5 -205.2 L311.9 -204.3 L312.2 -203.4 L312.5 -202.4 L312.6 -201.5 L312.7 -200.5 L312.7 -199.5 L312.7 -198.5 L312.5 -197.5 L312.3 -196.6 L312 -195.6 L311.6 -194.7 L311.2 -193.8 L310.7 -193 L310.1 -192.2 L309.4 -191.4 L308.7 -190.7 L308 -190.1 L307.2 -189.5 L306.4 -189 L305.5 -188.6 L304.6 -188.2 L303.6 -187.9 L302.7 -187.7 L301.7 -187.5 L300.7 -187.4 L299.7 -187.4 L298.7 -187.5 L297.8 -187.7 L296.8 -187.9 L295.9 -188.3 L295 -188.6 L294.1 -189.1 L293.2 -189.6 L292.5 -190.2 L291.7 -190.9 L291 -191.6 L290.4 -192.4 L289.8 -193.2 L289.3 -194 L288.9 -194.9 L288.6 -195.8 L288.3 -196.8 L288.1 -197.7 L287.9 -198.7 L287.9 -199.7 L287.9 -200.7 L288 -201.7 L288.2 -202.6 L288.5 -203.6 L288.8 -204.5 L289.2 -205.4 L289.7 -206.3 L290.2 -207.1 L290.8 -207.9 L291.5 -208.6 L292.2 -209.3 L293 -209.9 L293.8 -210.4 L294.7 -210.9 L295.6 -211.3 L296.5 -211.7 L297.5 -211.9 L298.4 -212.1 L299.4 -212.2 L300.4 -212.3 Z " />
<path stroke="rgb(0,0,0)" stroke-opacity="1" fill="rgb(255,255,255)" fill-opacity="1" d="M-712.6 -488.1 L-712.6 -489.1 L-712.5 -490.1 L-712.5 -491.1 L-712.5 -492.1 L-712.5 -493 L-712.5 -494 L-712.5 -495 L-712.5 -496 L-712.5 -497 L-712.5 -498 L-712.5 -499 L-712.5 -500 L-712.5 -500.9 L-712.5 -501.9 L-712.4 -502.9 L-712.4 -503.9 L-712.4 -504.9 L-712.4 -505.9 L-712.4 -506.9 L-712.4 -507.9 L-712.4 -508.9 L-712.4 -509.8 L-712.4 -510.8 L-712.4 -511.8 L-712.4 -512.8 L-711.4 -512.8 L-710.4 -512.8 L-709.4 -512.8 L-708.4 -512.8 L-707.4 -512.8 L-706.4 -512.8 L-705.5 -512.8 L-704.5 -512.7 L-703.5 -512.7 L-702.5 -512.7 L-701.5 -512.7 L-700.5 -512.7 L-699.5 -512.7 L-698.5 -512.7 L-697.6 -512.7 L-696.6 -512.7 L-695.6 -512.7 L-694.6 -512.7 L-693.6 -512.7 L-692.6 -512.7 L-691.6 -512.6 L-690.6 -512.6 L-689.6 -512.6 L-688.7 -512.6 L-687.7 -512.6 L-687.7 -511.6 L-687.7 -510.6 L-687.7 -509.7 L-687.7 -508.7 L-687.7 -507.7 L-687.7 -506.7 L-687.7 -505.7 L-687.7 -504.7 L-687.7 -503.7 L-687.7 -502.7 L-687.8 -501.7 L-687.8 -500.8 L-687.8 -499.8 L-687.8 -498.8 L-687.8 -497.8 L-687.8 -496.8 L-687.8 -495.8 L-687.8 -494.8 L-687.8 -493.8 L-687.8 -492.9 L-687.8 -491.9 L-687.8 -490.9 L-687.8 -489.9 L-687.9 -488.9 L-687.9 -487.9 L-688.8 -487.9 L-689.8 -487.9 L-690.8 -487.9 L-691.8 -487.9 L-692.8 -488 L-693.8 -488 L-694.8 -488 L-695.8 -488 L-696.8 -488 L-697.7 -488 L-698.7 -488 L-699.7 -488 L-700.7 -488 L-701.7 -488 L-702.7 -488 L-703.7 -488 L-704.7 -488 L-705.6 -488.1 L-706.6 -488.1 L-707.6 -488.1 L-708.6 -488.1 L-709.6 -488.1 L-710.6 -488.1 L-711.6 -488.1 L-712.6 -488.1 Z " />
<path stroke="rgb(0,0,0)" stroke-opacity="1" fill="rgb(255,255,255)" fill-opacity="1" d="M-184.2 -110.5 L-183.4 -109.3 L-182.7 -107.9 L-182.1 -106.5 L-181.6 -105.1 L-181.3 -103.6 L-181 -102.1 L-180.9 -100.6 L-180.9 -99.11 L-181 -97.6 L-181.3 -96.11 L-181.6 -94.64 L-182.1 -93.2 L-182.7 -91.81 L-183.4 -90.47 L-184.2 -89.19 L-185.1 -87.97 L-186.1 -86.83 L-187.1 -85.78 L-188.3 -84.81 L-189.5 -83.93 L-190.8 -83.16 L-192.2 -82.5 L-193.6 -81.94 L-195 -81.5 L-196.5 -81.17 L-198 -80.96 L-199.5 -80.87 L-201 -80.9 L-202.5 -81.05 L-204 -81.32 L-205.5 -81.71 L-206.9 -82.21 L-208.3 -82.82 L-209.6 -83.54 L-210.9 -84.37 L-212.1 -85.29 L-213.2 -86.3 L-214.2 -87.4 L-215.2 -88.58 L-216 -89.83 L-216.8 -91.14 L-217.4 -92.51 L-217.9 -93.93 L-218.3 -95.38 L-218.6 -96.86 L-218.8 -98.36 L-218.9 -99.87 L-218.8 -101.4 L-218.6 -102.9 L-218.3 -104.4 L-217.9 -105.8 L-217.4 -107.2 L-216.8 -108.6 L-216 -109.9 L-215.2 -111.2 L-214.2 -112.3 L-213.2 -113.4 L-212.1 -114.5 L-210.9 -115.4 L-209.6 -116.2 L-208.3 -116.9 L-206.9 -117.5 L-205.5 -118 L-204 -118.4 L-202.5 -118.7 L-201 -118.8 L-199.5 -118.9 L-198 -118.8 L-196.5 -118.6 L-195 -118.2 L-193.6 -117.8 L-192.2 -117.2 L-190.8 -116.6 L-189.5 -115.8 L-188.3 -114.9 L-187.1 -113.9 L-186 -112.9 L-185.1 -111.8 L-184.2 -110.5 Z " />
<path stroke="rgb(0,0,0)" stroke-opacity="1" fill="rgb(255,255,255)" fill-opacity="1" d="M-512.6 -488.1 L-512.6 -489.1 L-512.5 -490.1 L-512.5 -491.1 L-512.5 -492.1 L-512.5 -493 L-512.5 -494 L-512.5 -495 L-512.5 -496 L-512.5 -497 L-512.5 -498 L-512.5 -499 L-512.5 -500 L-512.5 -500.9 L-512.5 -501.9 L-512.4 -502.9 L-512.4 -503.9 L-512.4 -504.9 L-512.4 -505.9 L-512.4 -506.9 L-512.4 -507.9 L-512.4 -508.9 L-512.4 -509.8 L-512.4 -510.8 L-512.4 -511.8 L-512.4 -512.8 L-511.4 -512.8 L-510.4 -512.8 L-509.4 -512.8 L-508.4 -512.8 L-507.4 -512.8 L-506.4 -512.8 L-505.5 -512.8 L-504.5 -512.7 L-503.5 -512.7 L-502.5 -512.7 L-501.5 -512.7 L-500.5 -512.7 L-499.5 -512.7 L-498.5 -512.7 L-497.6 -512.7 L-496.6 -512.7 L-495.6 -512.7 L-494.6 -512.7 L-493.6 -512.7 L-492.6 -512.7 L-491.6 -512.6 L-490.6 -512.6 L-489.6 -512.6 L-488.7 -512.6 L-487.7 -512.6 L-487.7 -511.6 L-487.7 -510.6 L-487.7 -509.7 L-487.7 -508.7 L-487.7 -507.7 L-487.7 -506.7 L-487.7 -505.7 L-487.7 -504.7 L-487.7 -503.7 L-487.7 -502.7 L-487.8 -501.7 L-487.8 -500.8 L-487.8 -499.8 L-487.8 -498.8 L-487.8 -497.8 L-487.8 -496.8 L-487.8 -495.8 L-487.8 -494.8 L-487.8 -493.8 L-487.8 -492.9 L-487.8 -491.9 L-487.8 -490.9 L-487.8 -489.9 L-487.9 -488.9 L-487.9 -487.9 L-488.8 -487.9 L-489.8 -487.9 L-490.8 -487.9 L-491.8 -487.9 L-492.8 -488 L-493.8 -488 L-494.8 -488 L-495.8 -488 L-496.8 -488 L-497.7 -488 L-498.7 -488 L-499.7 -488 L-500.7 -488 L-501.7 -488 L-502.7 -488 L-503.7 -488 L-504.7 -488 L-505.6 -488.1 L-506.6 -488.1 L-507.6 -488.1 L-508.6 -488.1 L-509.6 -488.1 L-510.6 -488.1 L-511.6 -488.1 L-512.6 -488.1 Z " />
<path stroke="rgb(0,0,0)" stroke-opacity="1" fill="rgb(255,255,255)" fill-opacity="1" d="M2.458 -113 L3.493 -112.7 L4.508 -112.4 L5.497 -112.1 L6.452 -111.6 L7.369 -111.1 L8.241 -110.5 L9.062 -109.8 L9.828 -109.1 L10.53 -108.3 L11.17 -107.5 L11.75 -106.6 L12.25 -105.6 L12.67 -104.7 L13.02 -103.7 L13.28 -102.7 L13.46 -101.6 L13.56 -100.6 L13.58 -99.5 L13.51 -98.45 L13.36 -97.4 L13.12 -96.37 L12.81 -95.36 L12.41 -94.38 L11.94 -93.44 L11.4 -92.53 L10.78 -91.67 L10.1 -90.86 L9.355 -90.11 L8.554 -89.42 L7.7 -88.8 L6.8 -88.24 L5.858 -87.76 L4.881 -87.36 L3.875 -87.03 L2.846 -86.79 L1.802 -86.62 L0.7471 -86.55 L-0.3102 -86.55 L-1.364 -86.64 L-2.407 -86.81 L-3.433 -87.07 L-4.436 -87.4 L-5.409 -87.82 L-6.345 -88.31 L-7.24 -88.87 L-8.087 -89.5 L-8.882 -90.2 L-9.618 -90.96 L-10.29 -91.78 L-10.9 -92.64 L-11.44 -93.55 L-11.9 -94.5 L-12.28 -95.49 L-12.59 -96.5 L-12.81 -97.53 L-12.95 -98.58 L-13.01 -99.64 L-12.98 -100.7 L-12.87 -101.7 L-12.68 -102.8 L-12.41 -103.8 L-12.05 -104.8 L-11.62 -105.8 L-11.11 -106.7 L-10.53 -107.6 L-9.877 -108.4 L-9.164 -109.2 L-8.391 -109.9 L-7.562 -110.6 L-6.685 -111.2 L-5.763 -111.7 L-4.803 -112.1 L-3.811 -112.5 L-2.792 -112.8 L-1.755 -113 L-0.7044 -113.1 L0.3523 -113.1 L1.409 -113.1 L2.458 -113 Z " />
<path stroke="rgb(0,0,0)" stroke-opacity="1" fill="rgb(255,255,255)" fill-opacity="1" d="M-312.2 -487.8 L-312.2 -488.8 L-312.2 -489.8 L-312.2 -490.7 L-312.2 -491.7 L-312.2 -492.7 L-312.2 -493.7 L-312.2 -494.7 L-312.2 -495.7 L-312.2 -496.7 L-312.2 -497.7 L-312.2 -498.7 L-312.2 -499.6 L-312.2 -500.6 L-312.2 -501.6 L-312.2 -502.6 L-312.2 -503.6 L-312.2 -504.6 L-312.2 -505.6 L-312.2 -506.6 L-312.2 -507.5 L-312.2 -508.5 L-312.2 -509.5 L-312.2 -510.5 L-312.2 -511.5 L-312.2 -512.5 L-311.2 -512.5 L-310.2 -512.5 L-309.2 -512.5 L-308.2 -512.5 L-307.2 -512.5 L-306.2 -512.5 L-305.2 -512.5 L-304.3 -512.5 L-303.3 -512.5 L-302.3 -512.5 L-301.3 -512.5 L-300.3 -512.4 L-299.3 -512.4 L-298.3 -512.4 L-297.3 -512.4 L-296.3 -512.4 L-295.4 -512.4 L-294.4 -512.4 L-293.4 -512.4 L-292.4 -512.4 L-291.4 -512.4 L-290.4 -512.4 L-289.4 -512.4 L-288.4 -512.4 L-287.5 -512.4 L-287.5 -511.4 L-287.5 -510.4 L-287.5 -509.4 L-287.5 -508.4 L-287.5 -507.5 L-287.5 -506.5 L-287.5 -505.5 L-287.5 -504.5 L-287.5 -503.5 L-287.5 -502.5 L-287.5 -501.5 L-287.5 -500.5 L-287.5 -499.6 L-287.5 -498.6 L-287.5 -497.6 L-287.5 -496.6 L-287.5 -495.6 L-287.5 -494.6 L-287.5 -493.6 L-287.5 -492.6 L-287.5 -491.7 L-287.5 -490.7 L-287.5 -489.7 L-287.5 -488.7 L-287.5 -487.7 L-288.5 -487.7 L-289.5 -487.7 L-290.5 -487.7 L-291.5 -487.7 L-292.5 -487.7 L-293.5 -487.7 L-294.5 -487.7 L-295.4 -487.7 L-296.4 -487.7 L-297.4 -487.7 L-298.4 -487.7 L-299.4 -487.7 L-300.4 -487.7 L-301.4 -487.7 L-302.4 -487.7 L-303.3 -487.8 L-304.3 -487.8 L-305.3 -487.8 L-306.3 -487.8 L-307.3 -487.8 L-308.3 -487.8 L-309.3 -487.8 L-310.3 -487.8 L-311.3 -487.8 L-312.2 -487.8 Z " />
<path stroke="rgb(0,0,0)" stroke-opacity="1" fill="rgb(255,255,255)" fill-opacity="1" d="M200.4 -112.3 L201.4 -112.2 L202.4 -112.1 L203.3 -111.9 L204.3 -111.6 L205.2 -111.3 L206.1 -110.8 L207 -110.3 L207.8 -109.8 L208.5 -109.1 L209.3 -108.5 L209.9 -107.7 L210.5 -106.9 L211 -106.1 L211.5 -105.2 L211.9 -104.3 L212.2 -103.4 L212.5 -102.4 L212.6 -101.5 L212.7 -100.5 L212.7 -99.49 L212.7 -98.51 L212.5 -97.53 L212.3 -96.57 L212 -95.63 L211.6 -94.71 L211.2 -93.83 L210.7 -92.99 L210.1 -92.19 L209.4 -91.43 L208.7 -90.73 L208 -90.09 L207.2 -89.51 L206.4 -89 L205.5 -88.55 L204.6 -88.18 L203.6 -87.88 L202.7 -87.65 L201.7 -87.5 L200.7 -87.43 L199.7 -87.44 L198.7 -87.53 L197.8 -87.69 L196.8 -87.93 L195.9 -88.25 L195 -88.64 L194.1 -89.1 L193.2 -89.63 L192.5 -90.23 L191.7 -90.88 L191 -91.59 L190.4 -92.35 L189.8 -93.16 L189.3 -94.02 L188.9 -94.91 L188.6 -95.83 L188.3 -96.77 L188.1 -97.74 L187.9 -98.72 L187.9 -99.7 L187.9 -100.7 L188 -101.7 L188.2 -102.6 L188.5 -103.6 L188.8 -104.5 L189.2 -105.4 L189.7 -106.3 L190.2 -107.1 L190.8 -107.9 L191.5 -108.6 L192.2 -109.3 L193 -109.9 L193.8 -110.4 L194.7 -110.9 L195.6 -111.3 L196.5 -111.7 L197.5 -111.9 L198.4 -112.1 L199.4 -112.2 L200.4 -112.3 Z " />
<path stroke="rgb(0,0,0)" stroke-opacity="1" fill="rgb(255,255,255)" fill-opacity="1" d="M-109.1 -484.7 L-109.2 -485.7 L-109.2 -486.7 L-109.2 -487.6 L-109.3 -488.6 L-109.3 -489.6 L-109.4 -490.6 L-109.4 -491.6 L-109.4 -492.6 L-109.5 -493.6 L-109.5 -494.6 L-109.5 -495.5 L-109.6 -496.5 L-109.6 -497.5 L-109.6 -498.5 L-109.7 -499.5 L-109.7 -500.5 L-109.8 -501.5 L-109.8 -502.5 L-109.8 -503.4 L-109.9 -504.4 L-109.9 -505.4 L-109.9 -506.4 L-110 -507.4 L-110 -508.4 L-110.1 -509.4 L-109.1 -509.4 L-108.1 -509.4 L-107.1 -509.5 L-106.1 -509.5 L-105.1 -509.6 L-104.1 -509.6 L-103.1 -509.6 L-102.2 -509.7 L-101.2 -509.7 L-100.2 -509.7 L-99.19 -509.8 L-98.2 -509.8 L-97.22 -509.9 L-96.23 -509.9 L-95.24 -509.9 L-94.25 -510 L-93.27 -510 L-92.28 -510 L-91.29 -510.1 L-90.3 -510.1 L-89.32 -510.2 L-88.33 -510.2 L-87.34 -510.2 L-86.35 -510.3 L-85.37 -510.3 L-85.33 -509.3 L-85.29 -508.3 L-85.26 -507.3 L-85.22 -506.3 L-85.18 -505.4 L-85.14 -504.4 L-85.11 -503.4 L-85.07 -502.4 L-85.03 -501.4 L-85 -500.4 L-84.96 -499.4 L-84.92 -498.4 L-84.89 -497.5 L-84.85 -496.5 L-84.81 -495.5 L-84.77 -494.5 L-84.74 -493.5 L-84.7 -492.5 L-84.66 -491.5 L-84.63 -490.5 L-84.59 -489.6 L-84.55 -488.6 L-84.52 -487.6 L-84.48 -486.6 L-84.44 -485.6 L-85.43 -485.6 L-86.42 -485.5 L-87.4 -485.5 L-88.39 -485.5 L-89.38 -485.4 L-90.37 -485.4 L-91.35 -485.4 L-92.34 -485.3 L-93.33 -485.3 L-94.32 -485.2 L-95.3 -485.2 L-96.29 -485.2 L-97.28 -485.1 L-98.27 -485.1 L-99.25 -485.1 L-100.2 -485 L-101.2 -485 L-102.2 -484.9 L-103.2 -484.9 L-104.2 -484.9 L-105.2 -484.8 L-106.2 -484.8 L-107.2 -484.8 L-108.1 -484.7 L-109.1 -484.7 Z " />
<path stroke="rgb(0,0,0)" stroke-opacity="1" fill="rgb(255,255,255)" fill-opacity="1" d="M-284.2 -10.54 L-283.4 -9.253 L-282.7 -7.911 L-282.1 -6.517 L-281.6 -5.082 L-281.3 -3.614 L-281 -2.122 L-280.9 -0.6161 L-280.9 0.8948 L-281 2.401 L-281.3 3.892 L-281.6 5.36 L-282.1 6.795 L-282.7 8.188 L-283.4 9.53 L-284.2 10.81 L-285.1 12.03 L-286.1 13.17 L-287.1 14.22 L-288.3 15.19 L-289.5 16.07 L-290.8 16.84 L-292.2 17.5 L-293.6 18.06 L-295 18.5 L-296.5 18.83 L-298 19.04 L-299.5 19.13 L-301 19.1 L-302.5 18.95 L-304 18.68 L-305.5 18.29 L-306.9 17.79 L-308.3 17.18 L-309.6 16.46 L-310.9 15.63 L-312.1 14.71 L-313.2 13.7 L-314.2 12.6 L-315.2 11.42 L-316 10.17 L-316.8 8.855 L-317.4 7.486 L-317.9 6.071 L-318.3 4.618 L-318.6 3.137 L-318.8 1.637 L-318.9 0.1274 L-318.8 -1.382 L-318.6 -2.882 L-318.3 -4.363 L-317.9 -5.816 L-317.4 -7.231 L-316.8 -8.599 L-316 -9.912 L-315.2 -11.16 L-314.2 -12.34 L-313.2 -13.44 L-312.1 -14.45 L-310.9 -15.37 L-309.6 -16.2 L-308.3 -16.92 L-306.9 -17.53 L-305.5 -18.03 L-304 -18.42 L-302.5 -18.68 L-301 -18.83 L-299.5 -18.86 L-298 -18.77 L-296.5 -18.56 L-295 -18.24 L-293.6 -17.79 L-292.2 -17.23 L-290.8 -16.57 L-289.5 -15.79 L-288.3 -14.92 L-287.1 -13.95 L-286 -12.89 L-285.1 -11.75 L-284.2 -10.54 Z " />
<path stroke="rgb(0,0,0)" stroke-opacity="1" fill="rgb(255,255,255)" fill-opacity="1" d="M-612.6 -388.1 L-612.6 -389.1 L-612.5 -390.1 L-612.5 -391.1 L-612.5 -392.1 L-612.5 -393 L-612.5 -394 L-612.5 -395 L-612.5 -396 L-612.5 -397 L-612.5 -398 L-612.5 -399 L-612.5 -400 L-612.5 -400.9 L-612.5 -401.9 L-612.4 -402.9 L-612.4 -403.9 L-612.4 -404.9 L-612.4 -405.9 L-612.4 -406.9 L-612.4 -407.9 L-612.4 -408.9 L-612.4 -409.8 L-612.4 -410.8 L-612.4 -411.8 L-612.4 -412.8 L-611.4 -412.8 L-610.4 -412.8 L-609.4 -412.8 L-608.4 -412.8 L-607.4 -412.8 L-606.4 -412.8 L-605.5 -412.8 L-604.5 -412.7 L-603.5 -412.7 L-602.5 -412.7 L-601.5 -412.7 L-600.5 -412.7 L-599.5 -412.7 L-598.5 -412.7 L-597.6 -412.7 L-596.6 -412.7 L-595.6 -412.7 L-594.6 -412.7 L-593.6 -412.7 L-592.6 -412.7 L-591.6 -412.6 L-590.6 -412.6 L-589.6 -412.6 L-588.7 -412.6 L-587.7 -412.6 L-587.7 -411.6 L-587.7 -410.6 L-587.7 -409.7 L-587.7 -408.7 L-587.7 -407.7 L-587.7 -406.7 L-587.7 -405.7 L-587.7 -404.7 L-587.7 -403.7 L-587.7 -402.7 L-587.8 -401.7 L-587.8 -400.8 L-587.8 -399.8 L-587.8 -398.8 L-587.8 -397.8 L-587.8 -396.8 L-587.8 -395.8 L-587.8 -394.8 L-587.8 -393.8 L-587.8 -392.9 L-587.8 -391.9 L-587.8 -390.9 L-587.8 -389.9 L-587.9 -388.9 L-587.9 -387.9 L-588.8 -387.9 L-589.8 -387.9 L-590.8 -387.9 L-591.8 -387.9 L-592.8 -388 L-593.8 -388 L-594.8 -388 L-595.8 -388 L-596.8 -388 L-597.7 -388 L-598.7 -388 L-599.7 -388 L-600.7 -388 L-601.7 -388 L-602.7 -388 L-603.7 -388 L-604.7 -388 L-605.6 -388.1 L-606.6 -388.1 L-607.6 -388.1 L-608.6 -388.1 L-609.6 -388.1 L-610.6 -388.1 L-611.6 -388.1 L-612.6 -388.1 Z " />
<path stroke="rgb(0,0,0)" stroke-opacity="1" fill="rgb(255,255,255)" fill-opacity="1" d="M-97.54 -12.96 L-96.51 -12.74 L-95.49 -12.45 L-94.5 -12.07 L-93.55 -11.62 L-92.63 -11.09 L-91.76 -10.49 L-90.94 -9.826 L-90.17 -9.097 L-89.47 -8.31 L-88.83 -7.469 L-88.25 -6.579 L-87.75 -5.648 L-87.33 -4.679 L-86.98 -3.68 L-86.72 -2.656 L-86.54 -1.615 L-86.44 -0.5619 L-86.42 0.4953 L-86.49 1.55 L-86.64 2.597 L-86.88 3.628 L-87.19 4.637 L-87.59 5.618 L-88.06 6.564 L-88.6 7.47 L-89.22 8.33 L-89.9 9.138 L-90.64 9.889 L-91.45 10.58 L-92.3 11.2 L-93.2 11.76 L-94.14 12.24 L-95.12 12.64 L-96.12 12.97 L-97.15 13.21 L-98.2 13.38 L-99.25 13.45 L-100.3 13.45 L-101.4 13.36 L-102.4 13.19 L-103.4 12.93 L-104.4 12.6 L-105.4 12.18 L-106.3 11.69 L-107.2 11.13 L-108.1 10.5 L-108.9 9.797 L-109.6 9.039 L-110.3 8.224 L-110.9 7.358 L-111.4 6.446 L-111.9 5.495 L-112.3 4.511 L-112.6 3.498 L-112.8 2.465 L-113 1.417 L-113 0.3615 L-113 -0.6956 L-112.9 -1.747 L-112.7 -2.787 L-112.4 -3.808 L-112.1 -4.803 L-111.6 -5.768 L-111.1 -6.695 L-110.5 -7.578 L-109.9 -8.413 L-109.2 -9.193 L-108.4 -9.914 L-107.6 -10.57 L-106.7 -11.16 L-105.8 -11.68 L-104.8 -12.12 L-103.8 -12.49 L-102.8 -12.77 L-101.8 -12.98 L-100.7 -13.1 L-99.65 -13.13 L-98.59 -13.09 L-97.54 -12.96 Z " />
<path stroke="rgb(0,0,0)" stroke-opacity="1" fill="rgb(255,255,255)" fill-opacity="1" d="M-412.2 -387.8 L-412.2 -388.8 L-412.2 -389.8 L-412.2 -390.7 L-412.2 -391.7 L-412.2 -392.7 L-412.2 -393.7 L-412.2 -394.7 L-412.2 -395.7 L-412.2 -396.7 L-412.2 -397.7 L-412.2 -398.7 L-412.2 -399.6 L-412.2 -400.6 L-412.2 -401.6 L-412.2 -402.6 L-412.2 -403.6 L-412.2 -404.6 L-412.2 -405.6 L-412.2 -406.6 L-412.2 -407.5 L-412.2 -408.5 L-412.2 -409.5 L-412.2 -410.5 L-412.2 -411.5 L-412.2 -412.5 L-411.2 -412.5 L-410.2 -412.5 L-409.2 -412.5 L-408.2 -412.5 L-407.2 -412.5 L-406.2 -412.5 L-405.2 -412.5 L-404.3 -412.5 L-403.3 -412.5 L-402.3 -412.5 L-401.3 -412.5 L-400.3 -412.4 L-399.3 -412.4 L-398.3 -412.4 L-397.3 -412.4 L-396.3 -412.4 L-395.4 -412.4 L-394.4 -412.4 L-393.4 -412.4 L-392.4 -412.4 L-391.4 -412.4 L-390.4 -412.4 L-389.4 -412.4 L-388.4 -412.4 L-387.5 -412.4 L-387.5 -411.4 L-387.5 -410.4 L-387.5 -409.4 L-387.5 -408.4 L-387.5 -407.5 L-387.5 -406.5 L-387.5 -405.5 L-387.5 -404.5 L-387.5 -403.5 L-387.5 -402.5 L-387.5 -401.5 L-387.5 -400.5 L-387.5 -399.6 L-387.5 -398.6 L-387.5 -397.6 L-387.5 -396.6 L-387.5 -395.6 L-387.5 -394.6 L-387.5 -393.6 L-387.5 -392.6 L-387.5 -391.7 L-387.5 -390.7 L-387.5 -389.7 L-387.5 -388.7 L-387.5 -387.7 L-388.5 -387.7 L-389.5 -387.7 L-390.5 -387.7 L-391.5 -387.7 L-392.5 -387.7 L-393.5 -387.7 L-394.5 -387.7 L-395.4 -387.7 L-396.4 -387.7 L-397.4 -387.7 L-398.4 -387.7 L-399.4 -387.7 L-400.4 -387.7 L-401.4 -387.7 L-402.4 -387.7 L-403.3 -387.8 L-404.3 -387.8 L-405.3 -387.8 L-406.3 -387.8 L-407.3 -387.8 L-408.3 -387.8 L-409.3 -387.8 L-410.3 -387.8 L-411.3 -387.8 L-412.2 -387.8 Z " />
<path stroke="rgb(0,0,0)" stroke-opacity="1" fill="rgb(255,255,255)" fill-opacity="1" d="M100.4 -12.26 L101.4 -12.21 L102.4 -12.09 L103.3 -11.89 L104.3 -11.61 L105.2 -11.25 L106.1 -10.83 L107 -10.33 L107.8 -9.769 L108.5 -9.145 L109.3 -8.462 L109.9 -7.724 L110.5 -6.936 L111 -6.104 L111.5 -5.232 L111.9 -4.326 L112.2 -3.392 L112.5 -2.435 L112.6 -1.462 L112.7 -0.4791 L112.7 0.5083 L112.7 1.493 L112.5 2.47 L112.3 3.432 L112 4.373 L111.6 5.288 L111.2 6.17 L110.7 7.014 L110.1 7.815 L109.4 8.567 L108.7 9.266 L108 9.908 L107.2 10.49 L106.4 11 L105.5 11.45 L104.6 11.82 L103.6 12.12 L102.7 12.35 L101.7 12.5 L100.7 12.57 L99.71 12.56 L98.73 12.47 L97.75 12.31 L96.8 12.07 L95.86 11.75 L94.95 11.36 L94.08 10.9 L93.25 10.37 L92.46 9.775 L91.72 9.121 L91.03 8.41 L90.41 7.647 L89.84 6.836 L89.35 5.983 L88.92 5.094 L88.56 4.173 L88.28 3.227 L88.07 2.261 L87.94 1.282 L87.89 0.2959 L87.92 -0.691 L88.03 -1.673 L88.21 -2.643 L88.47 -3.595 L88.81 -4.524 L89.22 -5.423 L89.7 -6.287 L90.24 -7.11 L90.85 -7.887 L91.52 -8.613 L92.24 -9.284 L93.02 -9.895 L93.84 -10.44 L94.7 -10.92 L95.6 -11.33 L96.53 -11.67 L97.48 -11.94 L98.45 -12.12 L99.43 -12.23 L100.4 -12.26 Z " />
<path stroke="rgb(0,0,0)" stroke-opacity="1" fill="rgb(255,255,255)" fill-opacity="1" d="M-209.1 -384.7 L-209.2 -385.7 L-209.2 -386.7 L-209.2 -387.6 L-209.3 -388.6 L-209.3 -389.6 L-209.4 -390.6 L-209.4 -391.6 L-209.4 -392.6 L-209.5 -393.6 L-209.5 -394.6 L-209.5 -395.5 L-209.6 -396.5 L-209.6 -397.5 L-209.6 -398.5 L-209.7 -399.5 L-209.7 -400.5 L-209.8 -401.5 L-209.8 -402.5 L-209.8 -403.4 L-209.9 -404.4 L-209.9 -405.4 L-209.9 -406.4 L-210 -407.4 L-210 -408.4 L-210.1 -409.4 L-209.1 -409.4 L-208.1 -409.4 L-207.1 -409.5 L-206.1 -409.5 L-205.1 -409.6 L-204.1 -409.6 L-203.1 -409.6 L-202.2 -409.7 L-201.2 -409.7 L-200.2 -409.7 L-199.2 -409.8 L-198.2 -409.8 L-197.2 -409.9 L-196.2 -409.9 L-195.2 -409.9 L-194.3 -410 L-193.3 -410 L-192.3 -410 L-191.3 -410.1 L-190.3 -410.1 L-189.3 -410.2 L-188.3 -410.2 L-187.3 -410.2 L-186.4 -410.3 L-185.4 -410.3 L-185.3 -409.3 L-185.3 -408.3 L-185.3 -407.3 L-185.2 -406.3 L-185.2 -405.4 L-185.1 -404.4 L-185.1 -403.4 L-185.1 -402.4 L-185 -401.4 L-185 -400.4 L-185 -399.4 L-184.9 -398.4 L-184.9 -397.5 L-184.8 -396.5 L-184.8 -395.5 L-184.8 -394.5 L-184.7 -393.5 L-184.7 -392.5 L-184.7 -391.5 L-184.6 -390.5 L-184.6 -389.6 L-184.6 -388.6 L-184.5 -387.6 L-184.5 -386.6 L-184.4 -385.6 L-185.4 -385.6 L-186.4 -385.5 L-187.4 -385.5 L-188.4 -385.5 L-189.4 -385.4 L-190.4 -385.4 L-191.4 -385.4 L-192.3 -385.3 L-193.3 -385.3 L-194.3 -385.2 L-195.3 -385.2 L-196.3 -385.2 L-197.3 -385.1 L-198.3 -385.1 L-199.3 -385.1 L-200.2 -385 L-201.2 -385 L-202.2 -384.9 L-203.2 -384.9 L-204.2 -384.9 L-205.2 -384.8 L-206.2 -384.8 L-207.2 -384.8 L-208.1 -384.7 L-209.1 -384.7 Z " />
<path stroke="rgb(0,0,0)" stroke-opacity="1" fill="rgb(255,255,255)" fill-opacity="1" d="M300.4 -12.26 L301.4 -12.21 L302.4 -12.09 L303.3 -11.88 L304.3 -11.61 L305.2 -11.25 L306.1 -10.83 L307 -10.33 L307.8 -9.771 L308.5 -9.147 L309.2 -8.464 L309.9 -7.727 L310.5 -6.94 L311 -6.108 L311.5 -5.236 L311.9 -4.331 L312.2 -3.397 L312.5 -2.44 L312.6 -1.468 L312.7 -0.4846 L312.7 0.5025 L312.7 1.487 L312.5 2.464 L312.3 3.426 L312 4.367 L311.6 5.282 L311.2 6.164 L310.7 7.008 L310.1 7.809 L309.4 8.561 L308.8 9.261 L308 9.902 L307.2 10.48 L306.4 11 L305.5 11.44 L304.6 11.82 L303.6 12.12 L302.7 12.35 L301.7 12.49 L300.7 12.56 L299.7 12.56 L298.7 12.47 L297.8 12.31 L296.8 12.06 L295.9 11.75 L295 11.36 L294.1 10.9 L293.3 10.37 L292.5 9.777 L291.7 9.123 L291 8.412 L290.4 7.65 L289.8 6.839 L289.4 5.987 L288.9 5.098 L288.6 4.177 L288.3 3.231 L288.1 2.266 L287.9 1.287 L287.9 0.3015 L287.9 -0.6853 L288 -1.667 L288.2 -2.637 L288.5 -3.589 L288.8 -4.518 L289.2 -5.417 L289.7 -6.281 L290.2 -7.104 L290.8 -7.881 L291.5 -8.607 L292.2 -9.279 L293 -9.89 L293.8 -10.44 L294.7 -10.92 L295.6 -11.33 L296.5 -11.67 L297.5 -11.93 L298.4 -12.12 L299.4 -12.23 L300.4 -12.26 Z " />
<path stroke="rgb(0,0,0)" stroke-opacity="1" fill="rgb(255,255,255)" fill-opacity="1" d="M-712.6 -288.1 L-712.6 -289.1 L-712.5 -290.1 L-712.5 -291.1 L-712.5 -292.1 L-712.5 -293 L-712.5 -294 L-712.5 -295 L-712.5 -296 L-712.5 -297 L-712.5 -298 L-712.5 -299 L-712.5 -300 L-712.5 -300.9 L-712.5 -301.9 L-712.4 -302.9 L-712.4 -303.9 L-712.4 -304.9 L-712.4 -305.9 L-712.4 -306.9 L-712.4 -307.9 L-712.4 -308.9 L-712.4 -309.8 L-712.4 -310.8 L-712.4 -311.8 L-712.4 -312.8 L-711.4 -312.8 L-710.4 -312.8 L-709.4 -312.8 L-708.4 -312.8 L-707.4 -312.8 L-706.4 -312.8 L-705.5 -312.8 L-704.5 -312.7 L-703.5 -312.7 L-702.5 -312.7 L-701.5 -312.7 L-700.5 -312.7 L-699.5 -312.7 L-698.5 -312.7 L-697.6 -312.7 L-696.6 -312.7 L-695.6 -312.7 L-694.6 -312.7 L-693.6 -312.7 L-692.6 -312.7 L-691.6 -312.6 L-690.6 -312.6 L-689.6 -312.6 L-688.7 -312.6 L-687.7 -312.6 L-687.7 -311.6 L-687.7 -310.6 L-687.7 -309.7 L-687.7 -308.7 L-687.7 -307.7 L-687.7 -306.7 L-687.7 -305.7 L-687.7 -304.7 L-687.7 -303.7 L-687.7 -302.7 L-687.8 -301.7 L-687.8 -300.8 L-687.8 -299.8 L-687.8 -298.8 L-687.8 -297.8 L-687.8 -296.8 L-687.8 -295.8 L-687.8 -294.8 L-687.8 -293.8 L-687.8 -292.9 L-687.8 -291.9 L-687.8 -290.9 L-687.8 -289.9 L-687.9 -288.9 L-687.9 -287.9 L-688.8 -287.9 L-689.8 -287.9 L-690.8 -287.9 L-691.8 -287.9 L-692.8 -288 L-693.8 -288 L-694.8 -288 L-695.8 -288 L-696.8 -288 L-697.7 -288 L-698.7 -288 L-699.7 -288 L-700.7 -288 L-701.7 -288 L-702.7 -288 L-703.7 -288 L-704.7 -288 L-705.6 -288.1 L-706.6 -288.1 L-707.6 -288.1 L-708.6 -288.1 L-709.6 -288.1 L-710.6 -288.1 L-711.6 -288.1 L-712.6 -288.1 Z " />
<path stroke="rgb(0,0,0)" stroke-opacity="1" fill="rgb(255,255,255)" fill-opacity="1" d="M-197.5 87.04 L-196.5 87.26 L-195.5 87.55 L-194.5 87.93 L-193.5 88.38 L-192.6 88.91 L-191.8 89.51 L-190.9 90.17 L-190.2 90.9 L-189.5 91.69 L-188.8 92.53 L-188.3 93.42 L-187.8 94.35 L-187.3 95.32 L-187 96.32 L-186.7 97.34 L-186.5 98.39 L-186.4 99.44 L-186.4 100.5 L-186.5 101.6 L-186.6 102.6 L-186.9 103.6 L-187.2 104.6 L-187.6 105.6 L-188.1 106.6 L-188.6 107.5 L-189.2 108.3 L-189.9 109.1 L-190.6 109.9 L-191.4 110.6 L-192.3 111.2 L-193.2 111.8 L-194.1 112.2 L-195.1 112.6 L-196.1 113 L-197.2 113.2 L-198.2 113.4 L-199.3 113.5 L-200.3 113.4 L-201.4 113.4 L-202.4 113.2 L-203.4 112.9 L-204.4 112.6 L-205.4 112.2 L-206.3 111.7 L-207.2 111.1 L-208.1 110.5 L-208.9 109.8 L-209.6 109 L-210.3 108.2 L-210.9 107.4 L-211.4 106.4 L-211.9 105.5 L-212.3 104.5 L-212.6 103.5 L-212.8 102.5 L-213 101.4 L-213 100.4 L-213 99.3 L-212.9 98.25 L-212.7 97.21 L-212.4 96.19 L-212.1 95.2 L-211.6 94.23 L-211.1 93.31 L-210.5 92.42 L-209.9 91.59 L-209.2 90.81 L-208.4 90.09 L-207.6 89.43 L-206.7 88.84 L-205.8 88.32 L-204.8 87.88 L-203.8 87.51 L-202.8 87.23 L-201.8 87.02 L-200.7 86.9 L-199.6 86.87 L-198.6 86.91 L-197.5 87.04 Z " />
<path stroke="rgb(0,0,0)" stroke-opacity="1" fill="rgb(255,255,255)" fill-opacity="1" d="M-512.2 -287.8 L-512.2 -288.8 L-512.2 -289.8 L-512.2 -290.7 L-512.2 -291.7 L-512.2 -292.7 L-512.2 -293.7 L-512.2 -294.7 L-512.2 -295.7 L-512.2 -296.7 L-512.2 -297.7 L-512.2 -298.7 L-512.2 -299.6 L-512.2 -300.6 L-512.2 -301.6 L-512.2 -302.6 L-512.2 -303.6 L-512.2 -304.6 L-512.2 -305.6 L-512.2 -306.6 L-512.2 -307.5 L-512.2 -308.5 L-512.2 -309.5 L-512.2 -310.5 L-512.2 -311.5 L-512.2 -312.5 L-511.2 -312.5 L-510.2 -312.5 L-509.2 -312.5 L-508.2 -312.5 L-507.2 -312.5 L-506.2 -312.5 L-505.2 -312.5 L-504.3 -312.5 L-503.3 -312.5 L-502.3 -312.5 L-501.3 -312.5 L-500.3 -312.4 L-499.3 -312.4 L-498.3 -312.4 L-497.3 -312.4 L-496.3 -312.4 L-495.4 -312.4 L-494.4 -312.4 L-493.4 -312.4 L-492.4 -312.4 L-491.4 -312.4 L-490.4 -312.4 L-489.4 -312.4 L-488.4 -312.4 L-487.5 -312.4 L-487.5 -311.4 L-487.5 -310.4 L-487.5 -309.4 L-487.5 -308.4 L-487.5 -307.5 L-487.5 -306.5 L-487.5 -305.5 L-487.5 -304.5 L-487.5 -303.5 L-487.5 -302.5 L-487.5 -301.5 L-487.5 -300.5 L-487.5 -299.6 L-487.5 -298.6 L-487.5 -297.6 L-487.5 -296.6 L-487.5 -295.6 L-487.5 -294.6 L-487.5 -293.6 L-487.5 -292.6 L-487.5 -291.7 L-487.5 -290.7 L-487.5 -289.7 L-487.5 -288.7 L-487.5 -287.7 L-488.5 -287.7 L-489.5 -287.7 L-490.5 -287.7 L-491.5 -287.7 L-492.5 -287.7 L-493.5 -287.7 L-494.5 -287.7 L-495.4 -287.7 L-496.4 -287.7 L-497.4 -287.7 L-498.4 -287.7 L-499.4 -287.7 L-500.4 -287.7 L-501.4 -287.7 L-502.4 -287.7 L-503.3 -287.8 L-504.3 -287.8 L-505.3 -287.8 L-506.3 -287.8 L-507.3 -287.8 L-508.3 -287.8 L-509.3 -287.8 L-510.3 -287.8 L-511.3 -287.8 L-512.2 -287.8 Z " />
<path stroke="rgb(0,0,0)" stroke-opacity="1" fill="rgb(255,255,255)" fill-opacity="1" d="M0.4173 87.74 L1.404 87.79 L2.383 87.91 L3.349 88.11 L4.296 88.39 L5.218 88.75 L6.109 89.17 L6.963 89.67 L7.775 90.23 L8.54 90.86 L9.253 91.54 L9.909 92.28 L10.5 93.06 L11.04 93.9 L11.5 94.77 L11.89 95.67 L12.21 96.61 L12.46 97.56 L12.62 98.54 L12.71 99.52 L12.72 100.5 L12.66 101.5 L12.51 102.5 L12.29 103.4 L11.99 104.4 L11.62 105.3 L11.18 106.2 L10.66 107 L10.09 107.8 L9.446 108.6 L8.748 109.3 L7.998 109.9 L7.199 110.5 L6.356 111 L5.475 111.4 L4.562 111.8 L3.621 112.1 L2.66 112.3 L1.684 112.5 L0.6987 112.6 L-0.2886 112.6 L-1.272 112.5 L-2.246 112.3 L-3.203 112.1 L-4.138 111.7 L-5.045 111.4 L-5.918 110.9 L-6.752 110.4 L-7.541 109.8 L-8.281 109.1 L-8.966 108.4 L-9.592 107.6 L-10.16 106.8 L-10.65 106 L-11.08 105.1 L-11.44 104.2 L-11.72 103.2 L-11.93 102.3 L-12.06 101.3 L-12.11 100.3 L-12.08 99.31 L-11.97 98.33 L-11.79 97.36 L-11.53 96.4 L-11.19 95.48 L-10.78 94.58 L-10.3 93.71 L-9.76 92.89 L-9.151 92.11 L-8.482 91.39 L-7.757 90.72 L-6.982 90.1 L-6.16 89.56 L-5.298 89.08 L-4.4 88.67 L-3.472 88.33 L-2.52 88.06 L-1.551 87.88 L-0.5695 87.77 L0.4173 87.74 Z " />
<path stroke="rgb(0,0,0)" stroke-opacity="1" fill="rgb(255,255,255)" fill-opacity="1" d="M-309.1 -284.7 L-309.2 -285.7 L-309.2 -286.7 L-309.2 -287.6 L-309.3 -288.6 L-309.3 -289.6 L-309.4 -290.6 L-309.4 -291.6 L-309.4 -292.6 L-309.5 -293.6 L-309.5 -294.6 L-309.5 -295.5 L-309.6 -296.5 L-309.6 -297.5 L-309.6 -298.5 L-309.7 -299.5 L-309.7 -300.5 L-309.8 -301.5 L-309.8 -302.5 L-309.8 -303.4 L-309.9 -304.4 L-309.9 -305.4 L-309.9 -306.4 L-310 -307.4 L-310 -308.4 L-310.1 -309.4 L-309.1 -309.4 L-308.1 -309.4 L-307.1 -309.5 L-306.1 -309.5 L-305.1 -309.6 L-304.1 -309.6 L-303.1 -309.6 L-302.2 -309.7 L-301.2 -309.7 L-300.2 -309.7 L-299.2 -309.8 L-298.2 -309.8 L-297.2 -309.9 L-296.2 -309.9 L-295.2 -309.9 L-294.3 -310 L-293.3 -310 L-292.3 -310 L-291.3 -310.1 L-290.3 -310.1 L-289.3 -310.2 L-288.3 -310.2 L-287.3 -310.2 L-286.4 -310.3 L-285.4 -310.3 L-285.3 -309.3 L-285.3 -308.3 L-285.3 -307.3 L-285.2 -306.3 L-285.2 -305.4 L-285.1 -304.4 L-285.1 -303.4 L-285.1 -302.4 L-285 -301.4 L-285 -300.4 L-285 -299.4 L-284.9 -298.4 L-284.9 -297.5 L-284.8 -296.5 L-284.8 -295.5 L-284.8 -294.5 L-284.7 -293.5 L-284.7 -292.5 L-284.7 -291.5 L-284.6 -290.5 L-284.6 -289.6 L-284.6 -288.6 L-284.5 -287.6 L-284.5 -286.6 L-284.4 -285.6 L-285.4 -285.6 L-286.4 -285.5 L-287.4 -285.5 L-288.4 -285.5 L-289.4 -285.4 L-290.4 -285.4 L-291.4 -285.4 L-292.3 -285.3 L-293.3 -285.3 L-294.3 -285.2 L-295.3 -285.2 L-296.3 -285.2 L-297.3 -285.1 L-298.3 -285.1 L-299.3 -285.1 L-300.2 -285 L-301.2 -285 L-302.2 -284.9 L-303.2 -284.9 L-304.2 -284.9 L-305.2 -284.8 L-306.2 -284.8 L-307.2 -284.8 L-308.1 -284.7 L-309.1 -284.7 Z " />
<path stroke="rgb(0,0,0)" stroke-opacity="1" fill="rgb(255,255,255)" fill-opacity="1" d="M200.4 87.74 L201.4 87.79 L202.4 87.91 L203.3 88.12 L204.3 88.39 L205.2 88.75 L206.1 89.17 L207 89.67 L207.8 90.23 L208.5 90.85 L209.2 91.54 L209.9 92.27 L210.5 93.06 L211 93.89 L211.5 94.76 L211.9 95.67 L212.2 96.6 L212.5 97.56 L212.6 98.53 L212.7 99.52 L212.7 100.5 L212.7 101.5 L212.5 102.5 L212.3 103.4 L212 104.4 L211.6 105.3 L211.2 106.2 L210.7 107 L210.1 107.8 L209.4 108.6 L208.8 109.3 L208 109.9 L207.2 110.5 L206.4 111 L205.5 111.4 L204.6 111.8 L203.6 112.1 L202.7 112.3 L201.7 112.5 L200.7 112.6 L199.7 112.6 L198.7 112.5 L197.8 112.3 L196.8 112.1 L195.9 111.7 L195 111.4 L194.1 110.9 L193.3 110.4 L192.5 109.8 L191.7 109.1 L191 108.4 L190.4 107.6 L189.8 106.8 L189.4 106 L188.9 105.1 L188.6 104.2 L188.3 103.2 L188.1 102.3 L187.9 101.3 L187.9 100.3 L187.9 99.31 L188 98.33 L188.2 97.36 L188.5 96.41 L188.8 95.48 L189.2 94.58 L189.7 93.72 L190.2 92.9 L190.8 92.12 L191.5 91.39 L192.2 90.72 L193 90.11 L193.8 89.56 L194.7 89.08 L195.6 88.67 L196.5 88.33 L197.5 88.07 L198.4 87.88 L199.4 87.77 L200.4 87.74 Z " />
<path stroke="rgb(0,0,0)" stroke-opacity="1" fill="rgb(255,255,255)" fill-opacity="1" d="M-99.77 -275.6 L-99.93 -276.6 L-100.1 -277.6 L-100.2 -278.5 L-100.4 -279.5 L-100.6 -280.5 L-100.7 -281.5 L-100.9 -282.4 L-101 -283.4 L-101.2 -284.4 L-101.3 -285.4 L-101.5 -286.4 L-101.6 -287.3 L-101.8 -288.3 L-102 -289.3 L-102.1 -290.3 L-102.3 -291.2 L-102.4 -292.2 L-102.6 -293.2 L-102.7 -294.2 L-102.9 -295.1 L-103.1 -296.1 L-103.2 -297.1 L-103.4 -298.1 L-103.5 -299 L-103.7 -300 L-102.7 -300.2 L-101.7 -300.3 L-100.8 -300.5 L-99.78 -300.6 L-98.8 -300.8 L-97.83 -301 L-96.85 -301.1 L-95.88 -301.3 L-94.9 -301.4 L-93.92 -301.6 L-92.95 -301.7 L-91.97 -301.9 L-91 -302 L-90.02 -302.2 L-89.04 -302.4 L-88.07 -302.5 L-87.09 -302.7 L-86.12 -302.8 L-85.14 -303 L-84.16 -303.1 L-83.19 -303.3 L-82.21 -303.5 L-81.24 -303.6 L-80.26 -303.8 L-79.29 -303.9 L-79.13 -302.9 L-78.97 -302 L-78.82 -301 L-78.66 -300 L-78.5 -299 L-78.35 -298.1 L-78.19 -297.1 L-78.03 -296.1 L-77.88 -295.1 L-77.72 -294.2 L-77.56 -293.2 L-77.41 -292.2 L-77.25 -291.2 L-77.1 -290.3 L-76.94 -289.3 L-76.78 -288.3 L-76.63 -287.3 L-76.47 -286.4 L-76.31 -285.4 L-76.16 -284.4 L-76 -283.4 L-75.84 -282.5 L-75.69 -281.5 L-75.53 -280.5 L-75.37 -279.5 L-76.35 -279.4 L-77.33 -279.2 L-78.3 -279.1 L-79.28 -278.9 L-80.25 -278.7 L-81.23 -278.6 L-82.21 -278.4 L-83.18 -278.3 L-84.16 -278.1 L-85.13 -278 L-86.11 -277.8 L-87.08 -277.6 L-88.06 -277.5 L-89.04 -277.3 L-90.01 -277.2 L-90.99 -277 L-91.96 -276.9 L-92.94 -276.7 L-93.92 -276.6 L-94.89 -276.4 L-95.87 -276.2 L-96.84 -276.1 L-97.82 -275.9 L-98.79 -275.8 L-99.77 -275.6 Z " />
<path stroke="rgb(0,0,0)" stroke-opacity="1" fill="rgb(255,255,255)" fill-opacity="1" d="M-297.5 187 L-296.5 187.3 L-295.5 187.6 L-294.5 187.9 L-293.5 188.4 L-292.6 188.9 L-291.8 189.5 L-290.9 190.2 L-290.2 190.9 L-289.5 191.7 L-288.8 192.5 L-288.3 193.4 L-287.8 194.4 L-287.3 195.3 L-287 196.3 L-286.7 197.3 L-286.5 198.4 L-286.4 199.4 L-286.4 200.5 L-286.5 201.6 L-286.6 202.6 L-286.9 203.6 L-287.2 204.6 L-287.6 205.6 L-288.1 206.6 L-288.6 207.5 L-289.2 208.3 L-289.9 209.1 L-290.6 209.9 L-291.4 210.6 L-292.3 211.2 L-293.2 211.8 L-294.1 212.2 L-295.1 212.6 L-296.1 213 L-297.2 213.2 L-298.2 213.4 L-299.3 213.5 L-300.3 213.4 L-301.4 213.4 L-302.4 213.2 L-303.4 212.9 L-304.4 212.6 L-305.4 212.2 L-306.3 211.7 L-307.2 211.1 L-308.1 210.5 L-308.9 209.8 L-309.6 209 L-310.3 208.2 L-310.9 207.4 L-311.4 206.4 L-311.9 205.5 L-312.3 204.5 L-312.6 203.5 L-312.8 202.5 L-313 201.4 L-313 200.4 L-313 199.3 L-312.9 198.3 L-312.7 197.2 L-312.4 196.2 L-312.1 195.2 L-311.6 194.2 L-311.1 193.3 L-310.5 192.4 L-309.9 191.6 L-309.2 190.8 L-308.4 190.1 L-307.6 189.4 L-306.7 188.8 L-305.8 188.3 L-304.8 187.9 L-303.8 187.5 L-302.8 187.2 L-301.8 187 L-300.7 186.9 L-299.6 186.9 L-298.6 186.9 L-297.5 187 Z " />
<path stroke="rgb(0,0,0)" stroke-opacity="1" fill="rgb(255,255,255)" fill-opacity="1" d="M-612.2 -187.8 L-612.2 -188.8 L-612.2 -189.8 L-612.2 -190.7 L-612.2 -191.7 L-612.2 -192.7 L-612.2 -193.7 L-612.2 -194.7 L-612.2 -195.7 L-612.2 -196.7 L-612.2 -197.7 L-612.2 -198.7 L-612.2 -199.6 L-612.2 -200.6 L-612.2 -201.6 L-612.2 -202.6 L-612.2 -203.6 L-612.2 -204.6 L-612.2 -205.6 L-612.2 -206.6 L-612.2 -207.5 L-612.2 -208.5 L-612.2 -209.5 L-612.2 -210.5 L-612.2 -211.5 L-612.2 -212.5 L-611.2 -212.5 L-610.2 -212.5 L-609.2 -212.5 L-608.2 -212.5 L-607.2 -212.5 L-606.2 -212.5 L-605.2 -212.5 L-604.3 -212.5 L-603.3 -212.5 L-602.3 -212.5 L-601.3 -212.5 L-600.3 -212.4 L-599.3 -212.4 L-598.3 -212.4 L-597.3 -212.4 L-596.3 -212.4 L-595.4 -212.4 L-594.4 -212.4 L-593.4 -212.4 L-592.4 -212.4 L-591.4 -212.4 L-590.4 -212.4 L-589.4 -212.4 L-588.4 -212.4 L-587.5 -212.4 L-587.5 -211.4 L-587.5 -210.4 L-587.5 -209.4 L-587.5 -208.4 L-587.5 -207.5 L-587.5 -206.5 L-587.5 -205.5 L-587.5 -204.5 L-587.5 -203.5 L-587.5 -202.5 L-587.5 -201.5 L-587.5 -200.5 L-587.5 -199.6 L-587.5 -198.6 L-587.5 -197.6 L-587.5 -196.6 L-587.5 -195.6 L-587.5 -194.6 L-587.5 -193.6 L-587.5 -192.6 L-587.5 -191.7 L-587.5 -190.7 L-587.5 -189.7 L-587.5 -188.7 L-587.5 -187.7 L-588.5 -187.7 L-589.5 -187.7 L-590.5 -187.7 L-591.5 -187.7 L-592.5 -187.7 L-593.5 -187.7 L-594.5 -187.7 L-595.4 -187.7 L-596.4 -187.7 L-597.4 -187.7 L-598.4 -187.7 L-599.4 -187.7 L-600.4 -187.7 L-601.4 -187.7 L-602.4 -187.7 L-603.3 -187.8 L-604.3 -187.8 L-605.3 -187.8 L-606.3 -187.8 L-607.3 -187.8 L-608.3 -187.8 L-609.3 -187.8 L-610.3 -187.8 L-611.3 -187.8 L-612.2 -187.8 Z " />
<path stroke="rgb(0,0,0)" stroke-opacity="1" fill="rgb(255,255,255)" fill-opacity="1" d="M-99.58 187.7 L-98.6 187.8 L-97.62 187.9 L-96.65 188.1 L-95.7 188.4 L-94.78 188.7 L-93.89 189.2 L-93.04 189.7 L-92.23 190.2 L-91.46 190.9 L-90.75 191.5 L-90.09 192.3 L-89.5 193.1 L-88.96 193.9 L-88.5 194.8 L-88.11 195.7 L-87.79 196.6 L-87.54 197.6 L-87.38 198.5 L-87.29 199.5 L-87.28 200.5 L-87.34 201.5 L-87.49 202.5 L-87.71 203.4 L-88.01 204.4 L-88.38 205.3 L-88.82 206.2 L-89.34 207 L-89.91 207.8 L-90.55 208.6 L-91.25 209.3 L-92 209.9 L-92.8 210.5 L-93.64 211 L-94.52 211.4 L-95.44 211.8 L-96.38 212.1 L-97.34 212.3 L-98.32 212.5 L-99.3 212.6 L-100.3 212.6 L-101.3 212.5 L-102.2 212.3 L-103.2 212.1 L-104.1 211.7 L-105 211.4 L-105.9 210.9 L-106.8 210.4 L-107.5 209.8 L-108.3 209.1 L-109 208.4 L-109.6 207.6 L-110.2 206.8 L-110.7 206 L-111.1 205.1 L-111.4 204.2 L-111.7 203.2 L-111.9 202.3 L-112.1 201.3 L-112.1 200.3 L-112.1 199.3 L-112 198.3 L-111.8 197.4 L-111.5 196.4 L-111.2 195.5 L-110.8 194.6 L-110.3 193.7 L-109.8 192.9 L-109.2 192.1 L-108.5 191.4 L-107.8 190.7 L-107 190.1 L-106.2 189.6 L-105.3 189.1 L-104.4 188.7 L-103.5 188.3 L-102.5 188.1 L-101.6 187.9 L-100.6 187.8 L-99.58 187.7 Z " />
<path stroke="rgb(0,0,0)" stroke-opacity="1" fill="rgb(255,255,255)" fill-opacity="1" d="M-409.1 -184.7 L-409.2 -185.7 L-409.2 -186.7 L-409.2 -187.6 L-409.3 -188.6 L-409.3 -189.6 L-409.4 -190.6 L-409.4 -191.6 L-409.4 -192.6 L-409.5 -193.6 L-409.5 -194.6 L-409.5 -195.5 L-409.6 -196.5 L-409.6 -197.5 L-409.6 -198.5 L-409.7 -199.5 L-409.7 -200.5 L-409.8 -201.5 L-409.8 -202.5 L-409.8 -203.4 L-409.9 -204.4 L-409.9 -205.4 L-409.9 -206.4 L-410 -207.4 L-410 -208.4 L-410.1 -209.4 L-409.1 -209.4 L-408.1 -209.4 L-407.1 -209.5 L-406.1 -209.5 L-405.1 -209.6 L-404.1 -209.6 L-403.1 -209.6 L-402.2 -209.7 L-401.2 -209.7 L-400.2 -209.7 L-399.2 -209.8 L-398.2 -209.8 L-397.2 -209.9 L-396.2 -209.9 L-395.2 -209.9 L-394.3 -210 L-393.3 -210 L-392.3 -210 L-391.3 -210.1 L-390.3 -210.1 L-389.3 -210.2 L-388.3 -210.2 L-387.3 -210.2 L-386.4 -210.3 L-385.4 -210.3 L-385.3 -209.3 L-385.3 -208.3 L-385.3 -207.3 L-385.2 -206.3 L-385.2 -205.4 L-385.1 -204.4 L-385.1 -203.4 L-385.1 -202.4 L-385 -201.4 L-385 -200.4 L-385 -199.4 L-384.9 -198.4 L-384.9 -197.5 L-384.8 -196.5 L-384.8 -195.5 L-384.8 -194.5 L-384.7 -193.5 L-384.7 -192.5 L-384.7 -191.5 L-384.6 -190.5 L-384.6 -189.6 L-384.6 -188.6 L-384.5 -187.6 L-384.5 -186.6 L-384.4 -185.6 L-385.4 -185.6 L-386.4 -185.5 L-387.4 -185.5 L-388.4 -185.5 L-389.4 -185.4 L-390.4 -185.4 L-391.4 -185.4 L-392.3 -185.3 L-393.3 -185.3 L-394.3 -185.2 L-395.3 -185.2 L-396.3 -185.2 L-397.3 -185.1 L-398.3 -185.1 L-399.3 -185.1 L-400.2 -185 L-401.2 -185 L-402.2 -184.9 L-403.2 -184.9 L-404.2 -184.9 L-405.2 -184.8 L-406.2 -184.8 L-407.2 -184.8 L-408.1 -184.7 L-409.1 -184.7 Z " />
<path stroke="rgb(0,0,0)" stroke-opacity="1" fill="rgb(255,255,255)" fill-opacity="1" d="M100.4 187.7 L101.4 187.8 L102.4 187.9 L103.3 188.1 L104.3 188.4 L105.2 188.7 L106.1 189.2 L107 189.7 L107.8 190.2 L108.5 190.9 L109.2 191.5 L109.9 192.3 L110.5 193.1 L111 193.9 L111.5 194.8 L111.9 195.7 L112.2 196.6 L112.5 197.6 L112.6 198.5 L112.7 199.5 L112.7 200.5 L112.7 201.5 L112.5 202.5 L112.3 203.4 L112 204.4 L111.6 205.3 L111.2 206.2 L110.7 207 L110.1 207.8 L109.4 208.6 L108.8 209.3 L108 209.9 L107.2 210.5 L106.4 211 L105.5 211.4 L104.6 211.8 L103.6 212.1 L102.7 212.3 L101.7 212.5 L100.7 212.6 L99.72 212.6 L98.73 212.5 L97.76 212.3 L96.8 212.1 L95.87 211.7 L94.96 211.4 L94.09 210.9 L93.25 210.4 L92.46 209.8 L91.73 209.1 L91.04 208.4 L90.41 207.6 L89.85 206.8 L89.35 206 L88.92 205.1 L88.57 204.2 L88.28 203.2 L88.08 202.3 L87.95 201.3 L87.9 200.3 L87.92 199.3 L88.03 198.3 L88.21 197.4 L88.47 196.4 L88.81 195.5 L89.22 194.6 L89.69 193.7 L90.24 192.9 L90.85 192.1 L91.52 191.4 L92.24 190.7 L93.02 190.1 L93.84 189.6 L94.7 189.1 L95.6 188.7 L96.52 188.3 L97.47 188.1 L98.44 187.9 L99.43 187.8 L100.4 187.7 Z " />
<path stroke="rgb(0,0,0)" stroke-opacity="1" fill="rgb(255,255,255)" fill-opacity="1" d="M-199.8 -175.6 L-199.9 -176.6 L-200.1 -177.6 L-200.2 -178.5 L-200.4 -179.5 L-200.6 -180.5 L-200.7 -181.5 L-200.9 -182.4 L-201 -183.4 L-201.2 -184.4 L-201.3 -185.4 L-201.5 -186.4 L-201.6 -187.3 L-201.8 -188.3 L-202 -189.3 L-202.1 -190.3 L-202.3 -191.2 L-202.4 -192.2 L-202.6 -193.2 L-202.7 -194.2 L-202.9 -195.1 L-203.1 -196.1 L-203.2 -197.1 L-203.4 -198.1 L-203.5 -199 L-203.7 -200 L-202.7 -200.2 L-201.7 -200.3 L-200.8 -200.5 L-199.8 -200.6 L-198.8 -200.8 L-197.8 -201 L-196.9 -201.1 L-195.9 -201.3 L-194.9 -201.4 L-193.9 -201.6 L-192.9 -201.7 L-192 -201.9 L-191 -202 L-190 -202.2 L-189 -202.4 L-188.1 -202.5 L-187.1 -202.7 L-186.1 -202.8 L-185.1 -203 L-184.2 -203.1 L-183.2 -203.3 L-182.2 -203.5 L-181.2 -203.6 L-180.3 -203.8 L-179.3 -203.9 L-179.1 -202.9 L-179 -202 L-178.8 -201 L-178.7 -200 L-178.5 -199 L-178.3 -198.1 L-178.2 -197.1 L-178 -196.1 L-177.9 -195.1 L-177.7 -194.2 L-177.6 -193.2 L-177.4 -192.2 L-177.3 -191.2 L-177.1 -190.3 L-176.9 -189.3 L-176.8 -188.3 L-176.6 -187.3 L-176.5 -186.4 L-176.3 -185.4 L-176.2 -184.4 L-176 -183.4 L-175.8 -182.5 L-175.7 -181.5 L-175.5 -180.5 L-175.4 -179.5 L-176.4 -179.4 L-177.3 -179.2 L-178.3 -179.1 L-179.3 -178.9 L-180.3 -178.7 L-181.2 -178.6 L-182.2 -178.4 L-183.2 -178.3 L-184.2 -178.1 L-185.1 -178 L-186.1 -177.8 L-187.1 -177.6 L-188.1 -177.5 L-189 -177.3 L-190 -177.2 L-191 -177 L-192 -176.9 L-192.9 -176.7 L-193.9 -176.6 L-194.9 -176.4 L-195.9 -176.2 L-196.8 -176.1 L-197.8 -175.9 L-198.8 -175.8 L-199.8 -175.6 Z " />
<path stroke="rgb(0,0,0)" stroke-opacity="1" fill="rgb(255,255,255)" fill-opacity="1" d="M300.4 187.7 L301.4 187.8 L302.4 187.9 L303.3 188.1 L304.3 188.4 L305.2 188.7 L306.1 189.2 L307 189.7 L307.8 190.2 L308.5 190.9 L309.2 191.5 L309.9 192.3 L310.5 193.1 L311 193.9 L311.5 194.8 L311.9 195.7 L312.2 196.6 L312.5 197.6 L312.6 198.5 L312.7 199.5 L312.7 200.5 L312.7 201.5 L312.5 202.5 L312.3 203.4 L312 204.4 L311.6 205.3 L311.2 206.2 L310.7 207 L310.1 207.8 L309.4 208.6 L308.8 209.3 L308 209.9 L307.2 210.5 L306.4 211 L305.5 211.4 L304.6 211.8 L303.6 212.1 L302.7 212.3 L301.7 212.5 L300.7 212.6 L299.7 212.6 L298.7 212.5 L297.8 212.3 L296.8 212.1 L295.9 211.7 L295 211.4 L294.1 210.9 L293.3 210.4 L292.5 209.8 L291.7 209.1 L291 208.4 L290.4 207.6 L289.8 206.8 L289.4 206 L288.9 205.1 L288.6 204.2 L288.3 203.2 L288.1 202.3 L287.9 201.3 L287.9 200.3 L287.9 199.3 L288 198.3 L288.2 197.4 L288.5 196.4 L288.8 195.5 L289.2 194.6 L289.7 193.7 L290.2 192.9 L290.8 192.1 L291.5 191.4 L292.2 190.7 L293 190.1 L293.8 189.6 L294.7 189.1 L295.6 188.7 L296.5 188.3 L297.5 188.1 L298.4 187.9 L299.4 187.8 L300.4 187.7 Z " />
<path stroke="rgb(0,0,0)" stroke-opacity="1" fill="rgb(255,255,255)" fill-opacity="1" d="M-712.2 -87.78 L-712.2 -88.77 L-712.2 -89.76 L-712.2 -90.75 L-712.2 -91.74 L-712.2 -92.72 L-712.2 -93.71 L-712.2 -94.7 L-712.2 -95.69 L-712.2 -96.68 L-712.2 -97.67 L-712.2 -98.65 L-712.2 -99.64 L-712.2 -100.6 L-712.2 -101.6 L-712.2 -102.6 L-712.2 -103.6 L-712.2 -104.6 L-712.2 -105.6 L-712.2 -106.6 L-712.2 -107.5 L-712.2 -108.5 L-712.2 -109.5 L-712.2 -110.5 L-712.2 -111.5 L-712.2 -112.5 L-711.2 -112.5 L-710.2 -112.5 L-709.2 -112.5 L-708.2 -112.5 L-707.2 -112.5 L-706.2 -112.5 L-705.2 -112.5 L-704.3 -112.5 L-703.3 -112.5 L-702.3 -112.5 L-701.3 -112.5 L-700.3 -112.4 L-699.3 -112.4 L-698.3 -112.4 L-697.3 -112.4 L-696.3 -112.4 L-695.4 -112.4 L-694.4 -112.4 L-693.4 -112.4 L-692.4 -112.4 L-691.4 -112.4 L-690.4 -112.4 L-689.4 -112.4 L-688.4 -112.4 L-687.5 -112.4 L-687.5 -111.4 L-687.5 -110.4 L-687.5 -109.4 L-687.5 -108.4 L-687.5 -107.5 L-687.5 -106.5 L-687.5 -105.5 L-687.5 -104.5 L-687.5 -103.5 L-687.5 -102.5 L-687.5 -101.5 L-687.5 -100.5 L-687.5 -99.56 L-687.5 -98.57 L-687.5 -97.58 L-687.5 -96.59 L-687.5 -95.6 L-687.5 -94.62 L-687.5 -93.63 L-687.5 -92.64 L-687.5 -91.65 L-687.5 -90.66 L-687.5 -89.67 L-687.5 -88.69 L-687.5 -87.7 L-688.5 -87.7 L-689.5 -87.7 L-690.5 -87.71 L-691.5 -87.71 L-692.5 -87.71 L-693.5 -87.72 L-694.5 -87.72 L-695.4 -87.73 L-696.4 -87.73 L-697.4 -87.73 L-698.4 -87.74 L-699.4 -87.74 L-700.4 -87.74 L-701.4 -87.75 L-702.4 -87.75 L-703.3 -87.75 L-704.3 -87.76 L-705.3 -87.76 L-706.3 -87.76 L-707.3 -87.77 L-708.3 -87.77 L-709.3 -87.77 L-710.3 -87.78 L-711.3 -87.78 L-712.2 -87.78 Z " />
<path stroke="rgb(0,0,0)" stroke-opacity="1" fill="rgb(255,255,255)" fill-opacity="1" d="M-199.6 287.7 L-198.6 287.8 L-197.6 287.9 L-196.7 288.1 L-195.7 288.4 L-194.8 288.7 L-193.9 289.2 L-193 289.7 L-192.2 290.2 L-191.5 290.9 L-190.7 291.5 L-190.1 292.3 L-189.5 293.1 L-189 293.9 L-188.5 294.8 L-188.1 295.7 L-187.8 296.6 L-187.5 297.6 L-187.4 298.5 L-187.3 299.5 L-187.3 300.5 L-187.3 301.5 L-187.5 302.5 L-187.7 303.4 L-188 304.4 L-188.4 305.3 L-188.8 306.2 L-189.3 307 L-189.9 307.8 L-190.6 308.6 L-191.3 309.3 L-192 309.9 L-192.8 310.5 L-193.6 311 L-194.5 311.4 L-195.4 311.8 L-196.4 312.1 L-197.3 312.3 L-198.3 312.5 L-199.3 312.6 L-200.3 312.6 L-201.3 312.5 L-202.2 312.3 L-203.2 312.1 L-204.1 311.7 L-205 311.4 L-205.9 310.9 L-206.8 310.4 L-207.5 309.8 L-208.3 309.1 L-209 308.4 L-209.6 307.6 L-210.2 306.8 L-210.7 306 L-211.1 305.1 L-211.4 304.2 L-211.7 303.2 L-211.9 302.3 L-212.1 301.3 L-212.1 300.3 L-212.1 299.3 L-212 298.3 L-211.8 297.4 L-211.5 296.4 L-211.2 295.5 L-210.8 294.6 L-210.3 293.7 L-209.8 292.9 L-209.2 292.1 L-208.5 291.4 L-207.8 290.7 L-207 290.1 L-206.2 289.6 L-205.3 289.1 L-204.4 288.7 L-203.5 288.3 L-202.5 288.1 L-201.6 287.9 L-200.6 287.8 L-199.6 287.7 Z " />
<path stroke="rgb(0,0,0)" stroke-opacity="1" fill="rgb(255,255,255)" fill-opacity="1" d="M-509.1 -84.69 L-509.2 -85.67 L-509.2 -86.66 L-509.2 -87.65 L-509.3 -88.64 L-509.3 -89.62 L-509.4 -90.61 L-509.4 -91.6 L-509.4 -92.59 L-509.5 -93.57 L-509.5 -94.56 L-509.5 -95.55 L-509.6 -96.54 L-509.6 -97.52 L-509.6 -98.51 L-509.7 -99.5 L-509.7 -100.5 L-509.8 -101.5 L-509.8 -102.5 L-509.8 -103.4 L-509.9 -104.4 L-509.9 -105.4 L-509.9 -106.4 L-510 -107.4 L-510 -108.4 L-510.1 -109.4 L-509.1 -109.4 L-508.1 -109.4 L-507.1 -109.5 L-506.1 -109.5 L-505.1 -109.6 L-504.1 -109.6 L-503.1 -109.6 L-502.2 -109.7 L-501.2 -109.7 L-500.2 -109.7 L-499.2 -109.8 L-498.2 -109.8 L-497.2 -109.9 L-496.2 -109.9 L-495.2 -109.9 L-494.3 -110 L-493.3 -110 L-492.3 -110 L-491.3 -110.1 L-490.3 -110.1 L-489.3 -110.2 L-488.3 -110.2 L-487.3 -110.2 L-486.4 -110.3 L-485.4 -110.3 L-485.3 -109.3 L-485.3 -108.3 L-485.3 -107.3 L-485.2 -106.3 L-485.2 -105.4 L-485.1 -104.4 L-485.1 -103.4 L-485.1 -102.4 L-485 -101.4 L-485 -100.4 L-485 -99.44 L-484.9 -98.45 L-484.9 -97.46 L-484.8 -96.47 L-484.8 -95.49 L-484.8 -94.5 L-484.7 -93.51 L-484.7 -92.52 L-484.7 -91.54 L-484.6 -90.55 L-484.6 -89.56 L-484.6 -88.57 L-484.5 -87.59 L-484.5 -86.6 L-484.4 -85.61 L-485.4 -85.57 L-486.4 -85.54 L-487.4 -85.5 L-488.4 -85.46 L-489.4 -85.43 L-490.4 -85.39 L-491.4 -85.35 L-492.3 -85.32 L-493.3 -85.28 L-494.3 -85.24 L-495.3 -85.2 L-496.3 -85.17 L-497.3 -85.13 L-498.3 -85.09 L-499.3 -85.06 L-500.2 -85.02 L-501.2 -84.98 L-502.2 -84.95 L-503.2 -84.91 L-504.2 -84.87 L-505.2 -84.83 L-506.2 -84.8 L-507.2 -84.76 L-508.1 -84.72 L-509.1 -84.69 Z " />
<path stroke="rgb(0,0,0)" stroke-opacity="1" fill="rgb(255,255,255)" fill-opacity="1" d="M0.4118 287.7 L1.398 287.8 L2.377 287.9 L3.343 288.1 L4.29 288.4 L5.212 288.7 L6.103 289.2 L6.957 289.7 L7.769 290.2 L8.534 290.9 L9.247 291.5 L9.904 292.3 L10.5 293.1 L11.03 293.9 L11.49 294.8 L11.89 295.7 L12.21 296.6 L12.45 297.6 L12.62 298.5 L12.71 299.5 L12.72 300.5 L12.65 301.5 L12.51 302.5 L12.29 303.4 L11.99 304.4 L11.62 305.3 L11.18 306.2 L10.66 307 L10.09 307.8 L9.448 308.6 L8.751 309.3 L8.001 309.9 L7.202 310.5 L6.36 311 L5.479 311.4 L4.566 311.8 L3.626 312.1 L2.665 312.3 L1.689 312.5 L0.7044 312.6 L-0.2828 312.6 L-1.266 312.5 L-2.24 312.3 L-3.197 312.1 L-4.132 311.7 L-5.039 311.4 L-5.912 310.9 L-6.746 310.4 L-7.535 309.8 L-8.275 309.1 L-8.96 308.4 L-9.587 307.6 L-10.15 306.8 L-10.65 306 L-11.08 305.1 L-11.43 304.2 L-11.72 303.2 L-11.92 302.3 L-12.05 301.3 L-12.1 300.3 L-12.08 299.3 L-11.97 298.3 L-11.79 297.4 L-11.53 296.4 L-11.19 295.5 L-10.78 294.6 L-10.31 293.7 L-9.761 292.9 L-9.152 292.1 L-8.484 291.4 L-7.76 290.7 L-6.985 290.1 L-6.164 289.6 L-5.302 289.1 L-4.404 288.7 L-3.477 288.3 L-2.525 288.1 L-1.556 287.9 L-0.5749 287.8 L0.4118 287.7 Z " />
<path stroke="rgb(0,0,0)" stroke-opacity="1" fill="rgb(255,255,255)" fill-opacity="1" d="M-299.8 -75.62 L-299.9 -76.59 L-300.1 -77.57 L-300.2 -78.54 L-300.4 -79.52 L-300.6 -80.49 L-300.7 -81.47 L-300.9 -82.45 L-301 -83.42 L-301.2 -84.4 L-301.3 -85.37 L-301.5 -86.35 L-301.6 -87.33 L-301.8 -88.3 L-302 -89.28 L-302.1 -90.25 L-302.3 -91.23 L-302.4 -92.21 L-302.6 -93.18 L-302.7 -94.16 L-302.9 -95.13 L-303.1 -96.11 L-303.2 -97.08 L-303.4 -98.06 L-303.5 -99.04 L-303.7 -100 L-302.7 -100.2 L-301.7 -100.3 L-300.8 -100.5 L-299.8 -100.6 L-298.8 -100.8 L-297.8 -101 L-296.9 -101.1 L-295.9 -101.3 L-294.9 -101.4 L-293.9 -101.6 L-292.9 -101.7 L-292 -101.9 L-291 -102 L-290 -102.2 L-289 -102.4 L-288.1 -102.5 L-287.1 -102.7 L-286.1 -102.8 L-285.1 -103 L-284.2 -103.1 L-283.2 -103.3 L-282.2 -103.5 L-281.2 -103.6 L-280.3 -103.8 L-279.3 -103.9 L-279.1 -102.9 L-279 -102 L-278.8 -101 L-278.7 -100 L-278.5 -99.04 L-278.3 -98.07 L-278.2 -97.09 L-278 -96.12 L-277.9 -95.14 L-277.7 -94.16 L-277.6 -93.19 L-277.4 -92.21 L-277.3 -91.24 L-277.1 -90.26 L-276.9 -89.29 L-276.8 -88.31 L-276.6 -87.33 L-276.5 -86.36 L-276.3 -85.38 L-276.2 -84.41 L-276 -83.43 L-275.8 -82.45 L-275.7 -81.48 L-275.5 -80.5 L-275.4 -79.53 L-276.4 -79.37 L-277.3 -79.21 L-278.3 -79.06 L-279.3 -78.9 L-280.3 -78.74 L-281.2 -78.59 L-282.2 -78.43 L-283.2 -78.28 L-284.2 -78.12 L-285.1 -77.96 L-286.1 -77.81 L-287.1 -77.65 L-288.1 -77.49 L-289 -77.34 L-290 -77.18 L-291 -77.02 L-292 -76.87 L-292.9 -76.71 L-293.9 -76.55 L-294.9 -76.4 L-295.9 -76.24 L-296.8 -76.09 L-297.8 -75.93 L-298.8 -75.77 L-299.8 -75.62 Z " />
<path stroke="rgb(0,0,0)" stroke-opacity="1" fill="rgb(255,255,255)" fill-opacity="1" d="M200.4 287.7 L201.4 287.8 L202.4 287.9 L203.3 288.1 L204.3 288.4 L205.2 288.7 L206.1 289.2 L207 289.7 L207.8 290.2 L208.5 290.9 L209.2 291.5 L209.9 292.3 L210.5 293.1 L211 293.9 L211.5 294.8 L211.9 295.7 L212.2 296.6 L212.5 297.6 L212.6 298.5 L212.7 299.5 L212.7 300.5 L212.7 301.5 L212.5 302.5 L212.3 303.4 L212 304.4 L211.6 305.3 L211.2 306.2 L210.7 307 L210.1 307.8 L209.4 308.6 L208.8 309.3 L208 309.9 L207.2 310.5 L206.4 311 L205.5 311.4 L204.6 311.8 L203.6 312.1 L202.7 312.3 L201.7 312.5 L200.7 312.6 L199.7 312.6 L198.7 312.5 L197.8 312.3 L196.8 312.1 L195.9 311.7 L195 311.4 L194.1 310.9 L193.3 310.4 L192.5 309.8 L191.7 309.1 L191 308.4 L190.4 307.6 L189.8 306.8 L189.4 306 L188.9 305.1 L188.6 304.2 L188.3 303.2 L188.1 302.3 L187.9 301.3 L187.9 300.3 L187.9 299.3 L188 298.3 L188.2 297.4 L188.5 296.4 L188.8 295.5 L189.2 294.6 L189.7 293.7 L190.2 292.9 L190.8 292.1 L191.5 291.4 L192.2 290.7 L193 290.1 L193.8 289.6 L194.7 289.1 L195.6 288.7 L196.5 288.3 L197.5 288.1 L198.4 287.9 L199.4 287.8 L200.4 287.7 Z " />
<path stroke="rgb(0,0,0)" stroke-opacity="1" fill="rgb(255,255,255)" fill-opacity="1" d="M-80.38 -57.9 L-80.77 -58.8 L-81.16 -59.71 L-81.55 -60.62 L-81.94 -61.53 L-82.33 -62.44 L-82.72 -63.35 L-83.11 -64.26 L-83.5 -65.16 L-83.89 -66.07 L-84.28 -66.98 L-84.67 -67.89 L-85.06 -68.8 L-85.45 -69.71 L-85.84 -70.62 L-86.23 -71.52 L-86.62 -72.43 L-87.01 -73.34 L-87.4 -74.25 L-87.79 -75.16 L-88.18 -76.07 L-88.56 -76.97 L-88.95 -77.88 L-89.34 -78.79 L-89.73 -79.7 L-90.12 -80.61 L-89.21 -81 L-88.31 -81.39 L-87.4 -81.78 L-86.49 -82.17 L-85.58 -82.56 L-84.67 -82.95 L-83.76 -83.34 L-82.86 -83.73 L-81.95 -84.11 L-81.04 -84.5 L-80.13 -84.89 L-79.22 -85.28 L-78.31 -85.67 L-77.4 -86.06 L-76.5 -86.45 L-75.59 -86.84 L-74.68 -87.23 L-73.77 -87.62 L-72.86 -88.01 L-71.95 -88.4 L-71.04 -88.79 L-70.14 -89.18 L-69.23 -89.57 L-68.32 -89.96 L-67.41 -90.35 L-67.02 -89.44 L-66.63 -88.53 L-66.24 -87.62 L-65.85 -86.71 L-65.46 -85.81 L-65.07 -84.9 L-64.68 -83.99 L-64.29 -83.08 L-63.9 -82.17 L-63.51 -81.26 L-63.13 -80.35 L-62.74 -79.45 L-62.35 -78.54 L-61.96 -77.63 L-61.57 -76.72 L-61.18 -75.81 L-60.79 -74.9 L-60.4 -73.99 L-60.01 -73.09 L-59.62 -72.18 L-59.23 -71.27 L-58.84 -70.36 L-58.45 -69.45 L-58.06 -68.54 L-57.67 -67.64 L-58.58 -67.25 L-59.49 -66.86 L-60.4 -66.47 L-61.31 -66.08 L-62.21 -65.69 L-63.12 -65.3 L-64.03 -64.91 L-64.94 -64.52 L-65.85 -64.13 L-66.76 -63.74 L-67.66 -63.35 L-68.57 -62.96 L-69.48 -62.57 L-70.39 -62.18 L-71.3 -61.79 L-72.21 -61.4 L-73.12 -61.01 L-74.02 -60.62 L-74.93 -60.23 L-75.84 -59.84 L-76.75 -59.45 L-77.66 -59.06 L-78.57 -58.68 L-79.48 -58.29 L-80.38 -57.9 Z " />
</g>
</g>
</svg>
