<!DOCTYPE svg>
<svg xmlns="http://www.w3.org/2000/svg" xmlns:xlink="http://www.w3.org/1999/xlink" width="1000" height="1000">
<g transform="translate(500.000000,500.000000)">
<g transform="scale(3.000000,3.000000)">
<path stroke="rgb(0,0,0)" stroke-opacity="1" fill="rgb(255,255,255)" fill-opacity="1" d="M-885.7 -911.1 L-885.9 -910.1 L-886 -909.1 L-886.2 -908 L-886.3 -907 L-886.5 -906 L-886.6 -905 L-886.7 -903.9 L-886.9 -902.9 L-887 -901.9 L-887.2 -900.9 L-887.3 -899.8 L-887.5 -898.8 L-887.6 -897.8 L-887.8 -896.8 L-887.9 -895.7 L-888.1 -894.7 L-888.2 -893.7 L-888.4 -892.7 L-888.5 -891.6 L-888.6 -890.6 L-888.8 -889.6 L-888.9 -888.6 L-889.1 -887.5 L-889.2 -886.5 L-889.4 -885.5 L-890.4 -885.6 L-891.4 -885.8 L-892.5 -885.9 L-893.5 -886.1 L-894.5 -886.2 L-895.5 -886.3 L-896.6 -886.5 L-897.6 -886.6 L-898.6 -886.8 L-899.6 -886.9 L-900.7 -887.1 L-901.7 -887.2 L-902.7 -887.4 L-903.7 -887.5 L-904.8 -887.7 L-905.8 -887.8 L-906.8 -888 L-907.8 -888.1 L-908.9 -888.2 L-909.9 -888.4 L-910.9 -888.5 L-912 -888.7 L-913 -888.8 L-914 -889 L-915 -889.1 L-914.9 -890.1 L-914.7 -891.2 L-914.6 -892.2 L-914.4 -893.2 L-914.3 -894.3 L-914.2 -895.3 L-914 -896.3 L-913.9 -897.3 L-913.7 -898.4 L-913.6 -899.4 L-913.4 -900.4 L-913.3 -901.4 L-913.1 -902.5 L-913 -903.5 L-912.8 -904.5 L-912.7 -905.5 L-912.5 -906.6 L-912.4 -907.6 L-912.3 -908.6 L-912.1 -909.6 L-912 -910.7 L-911.8 -911.7 L-911.7 -912.7 L-911.5 -913.8 L-911.4 -914.8 L-910.4 -914.6 L-909.3 -914.5 L-908.3 -914.3 L-907.3 -914.2 L-906.3 -914 L-905.2 -913.9 L-904.2 -913.8 L-903.2 -913.6 L-902.1 -913.5 L-901.1 -913.3 L-900.1 -913.2 L-899.1 -913 L-898 -912.9 L-897 -912.7 L-896 -912.6 L-895 -912.4 L-893.9 -912.3 L-892.9 -912.1 L-891.9 -912 L-890.9 -911.9 L-889.8 -911.7 L-888.8 -911.6 L-887.8 -911.4 L-886.8 -911.3 L-885.7 -911.1 Z " />
<path stroke="rgb(0,0,0)" stroke-opacity="0.256" fill="rgb(255,255,255)" fill-opacity="1" d="M-175.3 -299.7 L-175.4 -297.7 L-175.7 -295.8 L-176.1 -293.9 L-176.6 -292 L-177.3 -290.1 L-178.2 -288.4 L-179.2 -286.7 L-180.3 -285.1 L-181.6 -283.6 L-182.9 -282.1 L-184.4 -280.8 L-186 -279.7 L-187.6 -278.6 L-189.4 -277.7 L-191.2 -276.9 L-193 -276.3 L-195 -275.8 L-196.9 -275.5 L-198.8 -275.3 L-200.8 -275.3 L-202.8 -275.5 L-204.7 -275.8 L-206.6 -276.2 L-208.5 -276.8 L-210.3 -277.6 L-212.1 -278.4 L-213.7 -279.5 L-215.3 -280.6 L-216.8 -281.9 L-218.2 -283.3 L-219.5 -284.8 L-220.6 -286.4 L-221.6 -288.1 L-222.5 -289.8 L-223.2 -291.7 L-223.8 -293.5 L-224.3 -295.4 L-224.6 -297.4 L-224.7 -299.3 L-224.7 -301.3 L-224.5 -303.3 L-224.1 -305.2 L-223.7 -307.1 L-223 -309 L-222.2 -310.8 L-221.3 -312.5 L-220.2 -314.1 L-219.1 -315.7 L-217.8 -317.2 L-216.3 -318.5 L-214.8 -319.8 L-213.2 -320.9 L-211.5 -321.9 L-209.7 -322.7 L-207.9 -323.4 L-206 -324 L-204.1 -324.4 L-202.1 -324.6 L-200.2 -324.7 L-198.2 -324.6 L-196.2 -324.4 L-194.3 -324 L-192.4 -323.5 L-190.6 -322.8 L-188.8 -322 L-187.1 -321.1 L-185.5 -320 L-183.9 -318.8 L-182.5 -317.4 L-181.1 -316 L-179.9 -314.4 L-178.9 -312.8 L-177.9 -311.1 L-177.1 -309.3 L-176.4 -307.4 L-175.9 -305.5 L-175.6 -303.6 L-175.3 -301.6 L-175.3 -299.7 Z " />
<path stroke="rgb(0,0,0)" stroke-opacity="1" fill="rgb(255,255,255)" fill-opacity="1" d="M-678.3 -904.3 L-679.1 -903.2 L-679.8 -902.2 L-680.5 -901.1 L-681.2 -900.1 L-682 -899 L-682.7 -898 L-683.4 -896.9 L-684.1 -895.9 L-684.8 -894.8 L-685.6 -893.8 L-686.3 -892.7 L-687 -891.7 L-687.7 -890.6 L-688.4 -889.6 L-689.2 -888.6 L-689.9 -887.5 L-690.6 -886.5 L-691.3 -885.4 L-692.1 -884.4 L-692.8 -883.3 L-693.5 -882.3 L-694.2 -881.2 L-694.9 -880.2 L-695.7 -879.1 L-696.4 -878.1 L-697.4 -878.8 L-698.5 -879.5 L-699.5 -880.3 L-700.6 -881 L-701.6 -881.7 L-702.7 -882.4 L-703.7 -883.1 L-704.8 -883.9 L-705.8 -884.6 L-706.9 -885.3 L-707.9 -886 L-709 -886.7 L-710 -887.5 L-711 -888.2 L-712.1 -888.9 L-713.1 -889.6 L-714.2 -890.4 L-715.2 -891.1 L-716.3 -891.8 L-717.3 -892.5 L-718.4 -893.2 L-719.4 -894 L-720.5 -894.7 L-721.5 -895.4 L-722.6 -896.1 L-721.8 -897.2 L-721.1 -898.2 L-720.4 -899.3 L-719.7 -900.3 L-719 -901.4 L-718.2 -902.4 L-717.5 -903.5 L-716.8 -904.5 L-716.1 -905.6 L-715.3 -906.6 L-714.6 -907.6 L-713.9 -908.7 L-713.2 -909.7 L-712.5 -910.8 L-711.7 -911.8 L-711 -912.9 L-710.3 -913.9 L-709.6 -915 L-708.8 -916 L-708.1 -917.1 L-707.4 -918.1 L-706.7 -919.2 L-706 -920.2 L-705.2 -921.3 L-704.5 -922.3 L-703.5 -921.6 L-702.4 -920.9 L-701.4 -920.1 L-700.3 -919.4 L-699.3 -918.7 L-698.2 -918 L-697.2 -917.3 L-696.1 -916.5 L-695.1 -915.8 L-694 -915.1 L-693 -914.4 L-692 -913.6 L-690.9 -912.9 L-689.9 -912.2 L-688.8 -911.5 L-687.8 -910.8 L-686.7 -910 L-685.7 -909.3 L-684.6 -908.6 L-683.6 -907.9 L-682.5 -907.1 L-681.5 -906.4 L-680.4 -905.7 L-679.4 -905 L-678.3 -904.3 Z " />
<path stroke="rgb(0,0,0)" stroke-opacity="0.256" fill="rgb(255,255,255)" fill-opacity="1" d="M24.7 -299.7 L24.6 -297.7 L24.34 -295.8 L23.93 -293.9 L23.36 -292 L22.65 -290.1 L21.8 -288.4 L20.8 -286.7 L19.68 -285.1 L18.43 -283.6 L17.06 -282.1 L15.59 -280.8 L14.02 -279.7 L12.36 -278.6 L10.62 -277.7 L8.814 -276.9 L6.952 -276.3 L5.047 -275.8 L3.11 -275.5 L1.153 -275.3 L-0.8108 -275.3 L-2.77 -275.5 L-4.711 -275.8 L-6.623 -276.2 L-8.492 -276.8 L-10.31 -277.6 L-12.06 -278.4 L-13.73 -279.5 L-15.32 -280.6 L-16.81 -281.9 L-18.2 -283.3 L-19.47 -284.8 L-20.61 -286.4 L-21.63 -288.1 L-22.51 -289.8 L-23.24 -291.7 L-23.83 -293.5 L-24.27 -295.4 L-24.56 -297.4 L-24.69 -299.3 L-24.66 -301.3 L-24.48 -303.3 L-24.15 -305.2 L-23.66 -307.1 L-23.02 -309 L-22.23 -310.8 L-21.31 -312.5 L-20.25 -314.1 L-19.06 -315.7 L-17.75 -317.2 L-16.33 -318.5 L-14.81 -319.8 L-13.19 -320.9 L-11.49 -321.9 L-9.717 -322.7 L-7.882 -323.4 L-5.997 -324 L-4.074 -324.4 L-2.126 -324.6 L-0.1638 -324.7 L1.799 -324.6 L3.751 -324.4 L5.679 -324 L7.571 -323.5 L9.415 -322.8 L11.2 -322 L12.91 -321.1 L14.55 -320 L16.09 -318.8 L17.53 -317.4 L18.85 -316 L20.06 -314.4 L21.14 -312.8 L22.09 -311.1 L22.9 -309.3 L23.56 -307.4 L24.08 -305.5 L24.44 -303.6 L24.65 -301.6 L24.7 -299.7 Z " />
<path stroke="rgb(0,0,0)" stroke-opacity="1" fill="rgb(255,255,255)" fill-opacity="1" d="M-473.8 -885.9 L-475.5 -885.4 L-477.1 -884.9 L-478.8 -884.5 L-480.4 -884 L-482 -883.5 L-483.7 -883 L-485.3 -882.5 L-487 -882 L-488.6 -881.5 L-490.3 -881 L-491.9 -880.5 L-493.6 -880.1 L-495.2 -879.6 L-496.9 -879.1 L-498.5 -878.6 L-500.1 -878.1 L-501.8 -877.6 L-503.4 -877.1 L-505.1 -876.6 L-506.7 -876.1 L-508.4 -875.7 L-510 -875.2 L-511.7 -874.7 L-513.3 -874.2 L-514.9 -873.7 L-515.4 -875.3 L-515.9 -877 L-516.4 -878.6 L-516.9 -880.3 L-517.4 -881.9 L-517.9 -883.6 L-518.4 -885.2 L-518.9 -886.9 L-519.4 -888.5 L-519.8 -890.2 L-520.3 -891.8 L-520.8 -893.4 L-521.3 -895.1 L-521.8 -896.7 L-522.3 -898.4 L-522.8 -900 L-523.3 -901.7 L-523.8 -903.3 L-524.2 -905 L-524.7 -906.6 L-525.2 -908.2 L-525.7 -909.9 L-526.2 -911.5 L-526.7 -913.2 L-527.2 -914.8 L-525.5 -915.3 L-523.9 -915.8 L-522.2 -916.3 L-520.6 -916.8 L-519 -917.3 L-517.3 -917.8 L-515.7 -918.3 L-514 -918.7 L-512.4 -919.2 L-510.7 -919.7 L-509.1 -920.2 L-507.4 -920.7 L-505.8 -921.2 L-504.1 -921.7 L-502.5 -922.2 L-500.9 -922.7 L-499.2 -923.1 L-497.6 -923.6 L-495.9 -924.1 L-494.3 -924.6 L-492.6 -925.1 L-491 -925.6 L-489.3 -926.1 L-487.7 -926.6 L-486 -927.1 L-485.6 -925.4 L-485.1 -923.8 L-484.6 -922.1 L-484.1 -920.5 L-483.6 -918.8 L-483.1 -917.2 L-482.6 -915.5 L-482.1 -913.9 L-481.6 -912.3 L-481.2 -910.6 L-480.7 -909 L-480.2 -907.3 L-479.7 -905.7 L-479.2 -904 L-478.7 -902.4 L-478.2 -900.7 L-477.7 -899.1 L-477.2 -897.4 L-476.8 -895.8 L-476.3 -894.2 L-475.8 -892.5 L-475.3 -890.9 L-474.8 -889.2 L-474.3 -887.6 L-473.8 -885.9 Z " />
<path stroke="rgb(0,0,0)" stroke-opacity="0.256" fill="rgb(255,255,255)" fill-opacity="1" d="M224.7 -299.7 L224.6 -297.7 L224.3 -295.8 L223.9 -293.9 L223.4 -292 L222.7 -290.1 L221.8 -288.4 L220.8 -286.7 L219.7 -285.1 L218.4 -283.6 L217.1 -282.1 L215.6 -280.8 L214 -279.7 L212.4 -278.6 L210.6 -277.7 L208.8 -276.9 L207 -276.3 L205 -275.8 L203.1 -275.5 L201.2 -275.3 L199.2 -275.3 L197.2 -275.5 L195.3 -275.8 L193.4 -276.2 L191.5 -276.8 L189.7 -277.6 L187.9 -278.4 L186.3 -279.5 L184.7 -280.6 L183.2 -281.9 L181.8 -283.3 L180.5 -284.8 L179.4 -286.4 L178.4 -288.1 L177.5 -289.8 L176.8 -291.7 L176.2 -293.5 L175.7 -295.4 L175.4 -297.4 L175.3 -299.3 L175.3 -301.3 L175.5 -303.3 L175.9 -305.2 L176.3 -307.1 L177 -309 L177.8 -310.8 L178.7 -312.5 L179.8 -314.1 L180.9 -315.7 L182.2 -317.2 L183.7 -318.5 L185.2 -319.8 L186.8 -320.9 L188.5 -321.9 L190.3 -322.7 L192.1 -323.4 L194 -324 L195.9 -324.4 L197.9 -324.6 L199.8 -324.7 L201.8 -324.6 L203.8 -324.4 L205.7 -324 L207.6 -323.5 L209.4 -322.8 L211.2 -322 L212.9 -321.1 L214.5 -320 L216.1 -318.8 L217.5 -317.4 L218.9 -316 L220.1 -314.4 L221.1 -312.8 L222.1 -311.1 L222.9 -309.3 L223.6 -307.4 L224.1 -305.5 L224.4 -303.6 L224.7 -301.6 L224.7 -299.7 Z " />
<path stroke="rgb(0,0,0)" stroke-opacity="1" fill="rgb(255,255,255)" fill-opacity="1" d="M-275.8 -877 L-277.7 -876.9 L-279.6 -876.9 L-281.6 -876.8 L-283.5 -876.8 L-285.4 -876.7 L-287.3 -876.7 L-289.3 -876.6 L-291.2 -876.6 L-293.1 -876.5 L-295.1 -876.5 L-297 -876.4 L-298.9 -876.4 L-300.8 -876.3 L-302.8 -876.3 L-304.7 -876.2 L-306.6 -876.2 L-308.6 -876.1 L-310.5 -876.1 L-312.4 -876.1 L-314.3 -876 L-316.3 -876 L-318.2 -875.9 L-320.1 -875.9 L-322.1 -875.8 L-324 -875.8 L-324 -877.7 L-324.1 -879.6 L-324.1 -881.5 L-324.2 -883.5 L-324.2 -885.4 L-324.3 -887.3 L-324.3 -889.3 L-324.4 -891.2 L-324.4 -893.1 L-324.5 -895 L-324.5 -897 L-324.6 -898.9 L-324.6 -900.8 L-324.7 -902.8 L-324.7 -904.7 L-324.8 -906.6 L-324.8 -908.5 L-324.8 -910.5 L-324.9 -912.4 L-324.9 -914.3 L-325 -916.3 L-325 -918.2 L-325.1 -920.1 L-325.1 -922 L-325.2 -924 L-323.3 -924 L-321.3 -924.1 L-319.4 -924.1 L-317.5 -924.2 L-315.5 -924.2 L-313.6 -924.3 L-311.7 -924.3 L-309.8 -924.4 L-307.8 -924.4 L-305.9 -924.5 L-304 -924.5 L-302 -924.5 L-300.1 -924.6 L-298.2 -924.6 L-296.3 -924.7 L-294.3 -924.7 L-292.4 -924.8 L-290.5 -924.8 L-288.5 -924.9 L-286.6 -924.9 L-284.7 -925 L-282.8 -925 L-280.8 -925.1 L-278.9 -925.1 L-277 -925.2 L-276.9 -923.2 L-276.9 -921.3 L-276.8 -919.4 L-276.8 -917.5 L-276.7 -915.5 L-276.7 -913.6 L-276.6 -911.7 L-276.6 -909.7 L-276.5 -907.8 L-276.5 -905.9 L-276.4 -904 L-276.4 -902 L-276.3 -900.1 L-276.3 -898.2 L-276.3 -896.2 L-276.2 -894.3 L-276.2 -892.4 L-276.1 -890.5 L-276.1 -888.5 L-276 -886.6 L-276 -884.7 L-275.9 -882.7 L-275.9 -880.8 L-275.8 -878.9 L-275.8 -877 Z " />
<path stroke="rgb(0,0,0)" stroke-opacity="0.256" fill="rgb(255,255,255)" fill-opacity="1" d="M-275.3 -199.7 L-275.4 -197.7 L-275.7 -195.8 L-276.1 -193.9 L-276.6 -192 L-277.3 -190.1 L-278.2 -188.4 L-279.2 -186.7 L-280.3 -185.1 L-281.6 -183.6 L-282.9 -182.1 L-284.4 -180.8 L-286 -179.7 L-287.6 -178.6 L-289.4 -177.7 L-291.2 -176.9 L-293 -176.3 L-295 -175.8 L-296.9 -175.5 L-298.8 -175.3 L-300.8 -175.3 L-302.8 -175.5 L-304.7 -175.8 L-306.6 -176.2 L-308.5 -176.8 L-310.3 -177.6 L-312.1 -178.4 L-313.7 -179.5 L-315.3 -180.6 L-316.8 -181.9 L-318.2 -183.3 L-319.5 -184.8 L-320.6 -186.4 L-321.6 -188.1 L-322.5 -189.8 L-323.2 -191.7 L-323.8 -193.5 L-324.3 -195.4 L-324.6 -197.4 L-324.7 -199.3 L-324.7 -201.3 L-324.5 -203.3 L-324.1 -205.2 L-323.7 -207.1 L-323 -209 L-322.2 -210.8 L-321.3 -212.5 L-320.2 -214.1 L-319.1 -215.7 L-317.8 -217.2 L-316.3 -218.5 L-314.8 -219.8 L-313.2 -220.9 L-311.5 -221.9 L-309.7 -222.7 L-307.9 -223.4 L-306 -224 L-304.1 -224.4 L-302.1 -224.6 L-300.2 -224.7 L-298.2 -224.6 L-296.2 -224.4 L-294.3 -224 L-292.4 -223.5 L-290.6 -222.8 L-288.8 -222 L-287.1 -221.1 L-285.5 -220 L-283.9 -218.8 L-282.5 -217.4 L-281.1 -216 L-279.9 -214.4 L-278.9 -212.8 L-277.9 -211.1 L-277.1 -209.3 L-276.4 -207.4 L-275.9 -205.5 L-275.6 -203.6 L-275.3 -201.6 L-275.3 -199.7 Z " />
<path stroke="rgb(0,0,0)" stroke-opacity="1" fill="rgb(255,255,255)" fill-opacity="1" d="M-778.3 -804.3 L-779.1 -803.2 L-779.8 -802.2 L-780.5 -801.1 L-781.2 -800.1 L-782 -799 L-782.7 -798 L-783.4 -796.9 L-784.1 -795.9 L-784.8 -794.8 L-785.6 -793.8 L-786.3 -792.7 L-787 -791.7 L-787.7 -790.6 L-788.4 -789.6 L-789.2 -788.6 L-789.9 -787.5 L-790.6 -786.5 L-791.3 -785.4 L-792.1 -784.4 L-792.8 -783.3 L-793.5 -782.3 L-794.2 -781.2 L-794.9 -780.2 L-795.7 -779.1 L-796.4 -778.1 L-797.4 -778.8 L-798.5 -779.5 L-799.5 -780.3 L-800.6 -781 L-801.6 -781.7 L-802.7 -782.4 L-803.7 -783.1 L-804.8 -783.9 L-805.8 -784.6 L-806.9 -785.3 L-807.9 -786 L-809 -786.7 L-810 -787.5 L-811 -788.2 L-812.1 -788.9 L-813.1 -789.6 L-814.2 -790.4 L-815.2 -791.1 L-816.3 -791.8 L-817.3 -792.5 L-818.4 -793.2 L-819.4 -794 L-820.5 -794.7 L-821.5 -795.4 L-822.6 -796.1 L-821.8 -797.2 L-821.1 -798.2 L-820.4 -799.3 L-819.7 -800.3 L-819 -801.4 L-818.2 -802.4 L-817.5 -803.5 L-816.8 -804.5 L-816.1 -805.6 L-815.3 -806.6 L-814.6 -807.6 L-813.9 -808.7 L-813.2 -809.7 L-812.5 -810.8 L-811.7 -811.8 L-811 -812.9 L-810.3 -813.9 L-809.6 -815 L-808.8 -816 L-808.1 -817.1 L-807.4 -818.1 L-806.7 -819.2 L-806 -820.2 L-805.2 -821.3 L-804.5 -822.3 L-803.5 -821.6 L-802.4 -820.9 L-801.4 -820.1 L-800.3 -819.4 L-799.3 -818.7 L-798.2 -818 L-797.2 -817.3 L-796.1 -816.5 L-795.1 -815.8 L-794 -815.1 L-793 -814.4 L-792 -813.6 L-790.9 -812.9 L-789.9 -812.2 L-788.8 -811.5 L-787.8 -810.8 L-786.7 -810 L-785.7 -809.3 L-784.6 -808.6 L-783.6 -807.9 L-782.5 -807.1 L-781.5 -806.4 L-780.4 -805.7 L-779.4 -805 L-778.3 -804.3 Z " />
<path stroke="rgb(0,0,0)" stroke-opacity="0.256" fill="rgb(255,255,255)" fill-opacity="1" d="M-75.3 -199.7 L-75.4 -197.7 L-75.66 -195.8 L-76.07 -193.9 L-76.64 -192 L-77.35 -190.1 L-78.2 -188.4 L-79.2 -186.7 L-80.32 -185.1 L-81.57 -183.6 L-82.94 -182.1 L-84.41 -180.8 L-85.98 -179.7 L-87.64 -178.6 L-89.38 -177.7 L-91.19 -176.9 L-93.05 -176.3 L-94.95 -175.8 L-96.89 -175.5 L-98.85 -175.3 L-100.8 -175.3 L-102.8 -175.5 L-104.7 -175.8 L-106.6 -176.2 L-108.5 -176.8 L-110.3 -177.6 L-112.1 -178.4 L-113.7 -179.5 L-115.3 -180.6 L-116.8 -181.9 L-118.2 -183.3 L-119.5 -184.8 L-120.6 -186.4 L-121.6 -188.1 L-122.5 -189.8 L-123.2 -191.7 L-123.8 -193.5 L-124.3 -195.4 L-124.6 -197.4 L-124.7 -199.3 L-124.7 -201.3 L-124.5 -203.3 L-124.1 -205.2 L-123.7 -207.1 L-123 -209 L-122.2 -210.8 L-121.3 -212.5 L-120.2 -214.1 L-119.1 -215.7 L-117.8 -217.2 L-116.3 -218.5 L-114.8 -219.8 L-113.2 -220.9 L-111.5 -221.9 L-109.7 -222.7 L-107.9 -223.4 L-106 -224 L-104.1 -224.4 L-102.1 -224.6 L-100.2 -224.7 L-98.2 -224.6 L-96.25 -224.4 L-94.32 -224 L-92.43 -223.5 L-90.58 -222.8 L-88.8 -222 L-87.09 -221.1 L-85.45 -220 L-83.91 -218.8 L-82.47 -217.4 L-81.15 -216 L-79.94 -214.4 L-78.86 -212.8 L-77.91 -211.1 L-77.1 -209.3 L-76.44 -207.4 L-75.92 -205.5 L-75.56 -203.6 L-75.35 -201.6 L-75.3 -199.7 Z " />
<path stroke="rgb(0,0,0)" stroke-opacity="1" fill="rgb(255,255,255)" fill-opacity="1" d="M-573.8 -785.9 L-575.5 -785.4 L-577.1 -784.9 L-578.8 -784.5 L-580.4 -784 L-582 -783.5 L-583.7 -783 L-585.3 -782.5 L-587 -782 L-588.6 -781.5 L-590.3 -781 L-591.9 -780.5 L-593.6 -780.1 L-595.2 -779.6 L-596.9 -779.1 L-598.5 -778.6 L-600.1 -778.1 L-601.8 -777.6 L-603.4 -777.1 L-605.1 -776.6 L-606.7 -776.1 L-608.4 -775.7 L-610 -775.2 L-611.7 -774.7 L-613.3 -774.2 L-614.9 -773.7 L-615.4 -775.3 L-615.9 -777 L-616.4 -778.6 L-616.9 -780.3 L-617.4 -781.9 L-617.9 -783.6 L-618.4 -785.2 L-618.9 -786.9 L-619.4 -788.5 L-619.8 -790.2 L-620.3 -791.8 L-620.8 -793.4 L-621.3 -795.1 L-621.8 -796.7 L-622.3 -798.4 L-622.8 -800 L-623.3 -801.7 L-623.8 -803.3 L-624.2 -805 L-624.7 -806.6 L-625.2 -808.2 L-625.7 -809.9 L-626.2 -811.5 L-626.7 -813.2 L-627.2 -814.8 L-625.5 -815.3 L-623.9 -815.8 L-622.2 -816.3 L-620.6 -816.8 L-619 -817.3 L-617.3 -817.8 L-615.7 -818.3 L-614 -818.7 L-612.4 -819.2 L-610.7 -819.7 L-609.1 -820.2 L-607.4 -820.7 L-605.8 -821.2 L-604.1 -821.7 L-602.5 -822.2 L-600.9 -822.7 L-599.2 -823.1 L-597.6 -823.6 L-595.9 -824.1 L-594.3 -824.6 L-592.6 -825.1 L-591 -825.6 L-589.3 -826.1 L-587.7 -826.6 L-586 -827.1 L-585.6 -825.4 L-585.1 -823.8 L-584.6 -822.1 L-584.1 -820.5 L-583.6 -818.8 L-583.1 -817.2 L-582.6 -815.5 L-582.1 -813.9 L-581.6 -812.3 L-581.2 -810.6 L-580.7 -809 L-580.2 -807.3 L-579.7 -805.7 L-579.2 -804 L-578.7 -802.4 L-578.2 -800.7 L-577.7 -799.1 L-577.2 -797.4 L-576.8 -795.8 L-576.3 -794.2 L-575.8 -792.5 L-575.3 -790.9 L-574.8 -789.2 L-574.3 -787.6 L-573.8 -785.9 Z " />
<path stroke="rgb(0,0,0)" stroke-opacity="0.256" fill="rgb(255,255,255)" fill-opacity="1" d="M124.7 -199.7 L124.6 -197.7 L124.3 -195.8 L123.9 -193.9 L123.4 -192 L122.7 -190.1 L121.8 -188.4 L120.8 -186.7 L119.7 -185.1 L118.4 -183.6 L117.1 -182.1 L115.6 -180.8 L114 -179.7 L112.4 -178.6 L110.6 -177.7 L108.8 -176.9 L107 -176.3 L105 -175.8 L103.1 -175.5 L101.2 -175.3 L99.19 -175.3 L97.23 -175.5 L95.29 -175.8 L93.38 -176.2 L91.51 -176.8 L89.69 -177.6 L87.94 -178.4 L86.27 -179.5 L84.68 -180.6 L83.19 -181.9 L81.8 -183.3 L80.53 -184.8 L79.39 -186.4 L78.37 -188.1 L77.49 -189.8 L76.76 -191.7 L76.17 -193.5 L75.73 -195.4 L75.44 -197.4 L75.31 -199.3 L75.34 -201.3 L75.52 -203.3 L75.85 -205.2 L76.34 -207.1 L76.98 -209 L77.77 -210.8 L78.69 -212.5 L79.75 -214.1 L80.94 -215.7 L82.25 -217.2 L83.67 -218.5 L85.19 -219.8 L86.81 -220.9 L88.51 -221.9 L90.28 -222.7 L92.12 -223.4 L94 -224 L95.93 -224.4 L97.87 -224.6 L99.84 -224.7 L101.8 -224.6 L103.8 -224.4 L105.7 -224 L107.6 -223.5 L109.4 -222.8 L111.2 -222 L112.9 -221.1 L114.5 -220 L116.1 -218.8 L117.5 -217.4 L118.9 -216 L120.1 -214.4 L121.1 -212.8 L122.1 -211.1 L122.9 -209.3 L123.6 -207.4 L124.1 -205.5 L124.4 -203.6 L124.7 -201.6 L124.7 -199.7 Z " />
<path stroke="rgb(0,0,0)" stroke-opacity="1" fill="rgb(255,255,255)" fill-opacity="1" d="M-375.8 -777 L-377.7 -776.9 L-379.6 -776.9 L-381.6 -776.8 L-383.5 -776.8 L-385.4 -776.7 L-387.3 -776.7 L-389.3 -776.6 L-391.2 -776.6 L-393.1 -776.5 L-395.1 -776.5 L-397 -776.4 L-398.9 -776.4 L-400.8 -776.3 L-402.8 -776.3 L-404.7 -776.2 L-406.6 -776.2 L-408.6 -776.1 L-410.5 -776.1 L-412.4 -776.1 L-414.3 -776 L-416.3 -776 L-418.2 -775.9 L-420.1 -775.9 L-422.1 -775.8 L-424 -775.8 L-424 -777.7 L-424.1 -779.6 L-424.1 -781.5 L-424.2 -783.5 L-424.2 -785.4 L-424.3 -787.3 L-424.3 -789.3 L-424.4 -791.2 L-424.4 -793.1 L-424.5 -795 L-424.5 -797 L-424.6 -798.9 L-424.6 -800.8 L-424.7 -802.8 L-424.7 -804.7 L-424.8 -806.6 L-424.8 -808.5 L-424.8 -810.5 L-424.9 -812.4 L-424.9 -814.3 L-425 -816.3 L-425 -818.2 L-425.1 -820.1 L-425.1 -822 L-425.2 -824 L-423.3 -824 L-421.3 -824.1 L-419.4 -824.1 L-417.5 -824.2 L-415.5 -824.2 L-413.6 -824.3 L-411.7 -824.3 L-409.8 -824.4 L-407.8 -824.4 L-405.9 -824.5 L-404 -824.5 L-402 -824.5 L-400.1 -824.6 L-398.2 -824.6 L-396.3 -824.7 L-394.3 -824.7 L-392.4 -824.8 L-390.5 -824.8 L-388.5 -824.9 L-386.6 -824.9 L-384.7 -825 L-382.8 -825 L-380.8 -825.1 L-378.9 -825.1 L-377 -825.2 L-376.9 -823.2 L-376.9 -821.3 L-376.8 -819.4 L-376.8 -817.5 L-376.7 -815.5 L-376.7 -813.6 L-376.6 -811.7 L-376.6 -809.7 L-376.5 -807.8 L-376.5 -805.9 L-376.4 -804 L-376.4 -802 L-376.3 -800.1 L-376.3 -798.2 L-376.3 -796.2 L-376.2 -794.3 L-376.2 -792.4 L-376.1 -790.5 L-376.1 -788.5 L-376 -786.6 L-376 -784.7 L-375.9 -782.7 L-375.9 -780.8 L-375.8 -778.9 L-375.8 -777 Z " />
<path stroke="rgb(0,0,0)" stroke-opacity="0.256" fill="rgb(255,255,255)" fill-opacity="1" d="M324.7 -199.7 L324.6 -197.7 L324.3 -195.8 L323.9 -193.9 L323.4 -192 L322.7 -190.1 L321.8 -188.4 L320.8 -186.7 L319.7 -185.1 L318.4 -183.6 L317.1 -182.1 L315.6 -180.8 L314 -179.7 L312.4 -178.6 L310.6 -177.7 L308.8 -176.9 L307 -176.3 L305 -175.8 L303.1 -175.5 L301.2 -175.3 L299.2 -175.3 L297.2 -175.5 L295.3 -175.8 L293.4 -176.2 L291.5 -176.8 L289.7 -177.6 L287.9 -178.4 L286.3 -179.5 L284.7 -180.6 L283.2 -181.9 L281.8 -183.3 L280.5 -184.8 L279.4 -186.4 L278.4 -188.1 L277.5 -189.8 L276.8 -191.7 L276.2 -193.5 L275.7 -195.4 L275.4 -197.4 L275.3 -199.3 L275.3 -201.3 L275.5 -203.3 L275.9 -205.2 L276.3 -207.1 L277 -209 L277.8 -210.8 L278.7 -212.5 L279.8 -214.1 L280.9 -215.7 L282.2 -217.2 L283.7 -218.5 L285.2 -219.8 L286.8 -220.9 L288.5 -221.9 L290.3 -222.7 L292.1 -223.4 L294 -224 L295.9 -224.4 L297.9 -224.6 L299.8 -224.7 L301.8 -224.6 L303.8 -224.4 L305.7 -224 L307.6 -223.5 L309.4 -222.8 L311.2 -222 L312.9 -221.1 L314.5 -220 L316.1 -218.8 L317.5 -217.4 L318.9 -216 L320.1 -214.4 L321.1 -212.8 L322.1 -211.1 L322.9 -209.3 L323.6 -207.4 L324.1 -205.5 L324.4 -203.6 L324.7 -201.6 L324.7 -199.7 Z " />
<path stroke="rgb(0,0,0)" stroke-opacity="1" fill="rgb(255,255,255)" fill-opacity="1" d="M-878.3 -704.3 L-879.1 -703.2 L-879.8 -702.2 L-880.5 -701.1 L-881.2 -700.1 L-882 -699 L-882.7 -698 L-883.4 -696.9 L-884.1 -695.9 L-884.8 -694.8 L-885.6 -693.8 L-886.3 -692.7 L-887 -691.7 L-887.7 -690.6 L-888.4 -689.6 L-889.2 -688.6 L-889.9 -687.5 L-890.6 -686.5 L-891.3 -685.4 L-892.1 -684.4 L-892.8 -683.3 L-893.5 -682.3 L-894.2 -681.2 L-894.9 -680.2 L-895.7 -679.1 L-896.4 -678.1 L-897.4 -678.8 L-898.5 -679.5 L-899.5 -680.3 L-900.6 -681 L-901.6 -681.7 L-902.7 -682.4 L-903.7 -683.1 L-904.8 -683.9 L-905.8 -684.6 L-906.9 -685.3 L-907.9 -686 L-909 -686.7 L-910 -687.5 L-911 -688.2 L-912.1 -688.9 L-913.1 -689.6 L-914.2 -690.4 L-915.2 -691.1 L-916.3 -691.8 L-917.3 -692.5 L-918.4 -693.2 L-919.4 -694 L-920.5 -694.7 L-921.5 -695.4 L-922.6 -696.1 L-921.8 -697.2 L-921.1 -698.2 L-920.4 -699.3 L-919.7 -700.3 L-919 -701.4 L-918.2 -702.4 L-917.5 -703.5 L-916.8 -704.5 L-916.1 -705.6 L-915.3 -706.6 L-914.6 -707.6 L-913.9 -708.7 L-913.2 -709.7 L-912.5 -710.8 L-911.7 -711.8 L-911 -712.9 L-910.3 -713.9 L-909.6 -715 L-908.8 -716 L-908.1 -717.1 L-907.4 -718.1 L-906.7 -719.2 L-906 -720.2 L-905.2 -721.3 L-904.5 -722.3 L-903.5 -721.6 L-902.4 -720.9 L-901.4 -720.1 L-900.3 -719.4 L-899.3 -718.7 L-898.2 -718 L-897.2 -717.3 L-896.1 -716.5 L-895.1 -715.8 L-894 -715.1 L-893 -714.4 L-892 -713.6 L-890.9 -712.9 L-889.9 -712.2 L-888.8 -711.5 L-887.8 -710.8 L-886.7 -710 L-885.7 -709.3 L-884.6 -708.6 L-883.6 -707.9 L-882.5 -707.1 L-881.5 -706.4 L-880.4 -705.7 L-879.4 -705 L-878.3 -704.3 Z " />
<path stroke="rgb(0,0,0)" stroke-opacity="0.256" fill="rgb(255,255,255)" fill-opacity="1" d="M-175.3 -99.68 L-175.4 -97.72 L-175.7 -95.77 L-176.1 -93.85 L-176.6 -91.97 L-177.3 -90.14 L-178.2 -88.37 L-179.2 -86.68 L-180.3 -85.07 L-181.6 -83.55 L-182.9 -82.14 L-184.4 -80.84 L-186 -79.66 L-187.6 -78.61 L-189.4 -77.7 L-191.2 -76.93 L-193 -76.3 L-195 -75.82 L-196.9 -75.5 L-198.8 -75.33 L-200.8 -75.32 L-202.8 -75.46 L-204.7 -75.76 L-206.6 -76.21 L-208.5 -76.81 L-210.3 -77.56 L-212.1 -78.45 L-213.7 -79.47 L-215.3 -80.63 L-216.8 -81.91 L-218.2 -83.3 L-219.5 -84.8 L-220.6 -86.4 L-221.6 -88.08 L-222.5 -89.83 L-223.2 -91.65 L-223.8 -93.53 L-224.3 -95.44 L-224.6 -97.39 L-224.7 -99.35 L-224.7 -101.3 L-224.5 -103.3 L-224.1 -105.2 L-223.7 -107.1 L-223 -109 L-222.2 -110.8 L-221.3 -112.5 L-220.2 -114.1 L-219.1 -115.7 L-217.8 -117.2 L-216.3 -118.5 L-214.8 -119.8 L-213.2 -120.9 L-211.5 -121.9 L-209.7 -122.7 L-207.9 -123.4 L-206 -124 L-204.1 -124.4 L-202.1 -124.6 L-200.2 -124.7 L-198.2 -124.6 L-196.2 -124.4 L-194.3 -124 L-192.4 -123.5 L-190.6 -122.8 L-188.8 -122 L-187.1 -121.1 L-185.5 -120 L-183.9 -118.8 L-182.5 -117.4 L-181.1 -116 L-179.9 -114.4 L-178.9 -112.8 L-177.9 -111.1 L-177.1 -109.3 L-176.4 -107.4 L-175.9 -105.5 L-175.6 -103.6 L-175.3 -101.6 L-175.3 -99.68 Z " />
<path stroke="rgb(0,0,0)" stroke-opacity="1" fill="rgb(255,255,255)" fill-opacity="1" d="M-673.8 -685.9 L-675.5 -685.4 L-677.1 -684.9 L-678.8 -684.5 L-680.4 -684 L-682 -683.5 L-683.7 -683 L-685.3 -682.5 L-687 -682 L-688.6 -681.5 L-690.3 -681 L-691.9 -680.5 L-693.6 -680.1 L-695.2 -679.6 L-696.9 -679.1 L-698.5 -678.6 L-700.1 -678.1 L-701.8 -677.6 L-703.4 -677.1 L-705.1 -676.6 L-706.7 -676.1 L-708.4 -675.7 L-710 -675.2 L-711.7 -674.7 L-713.3 -674.2 L-714.9 -673.7 L-715.4 -675.3 L-715.9 -677 L-716.4 -678.6 L-716.9 -680.3 L-717.4 -681.9 L-717.9 -683.6 L-718.4 -685.2 L-718.9 -686.9 L-719.4 -688.5 L-719.8 -690.2 L-720.3 -691.8 L-720.8 -693.4 L-721.3 -695.1 L-721.8 -696.7 L-722.3 -698.4 L-722.8 -700 L-723.3 -701.7 L-723.8 -703.3 L-724.2 -705 L-724.7 -706.6 L-725.2 -708.2 L-725.7 -709.9 L-726.2 -711.5 L-726.7 -713.2 L-727.2 -714.8 L-725.5 -715.3 L-723.9 -715.8 L-722.2 -716.3 L-720.6 -716.8 L-719 -717.3 L-717.3 -717.8 L-715.7 -718.3 L-714 -718.7 L-712.4 -719.2 L-710.7 -719.7 L-709.1 -720.2 L-707.4 -720.7 L-705.8 -721.2 L-704.1 -721.7 L-702.5 -722.2 L-700.9 -722.7 L-699.2 -723.1 L-697.6 -723.6 L-695.9 -724.1 L-694.3 -724.6 L-692.6 -725.1 L-691 -725.6 L-689.3 -726.1 L-687.7 -726.6 L-686 -727.1 L-685.6 -725.4 L-685.1 -723.8 L-684.6 -722.1 L-684.1 -720.5 L-683.6 -718.8 L-683.1 -717.2 L-682.6 -715.5 L-682.1 -713.9 L-681.6 -712.3 L-681.2 -710.6 L-680.7 -709 L-680.2 -707.3 L-679.7 -705.7 L-679.2 -704 L-678.7 -702.4 L-678.2 -700.7 L-677.7 -699.1 L-677.2 -697.4 L-676.8 -695.8 L-676.3 -694.2 L-675.8 -692.5 L-675.3 -690.9 L-674.8 -689.2 L-674.3 -687.6 L-673.8 -685.9 Z " />
<path stroke="rgb(0,0,0)" stroke-opacity="0.256" fill="rgb(255,255,255)" fill-opacity="1" d="M24.7 -99.68 L24.6 -97.72 L24.34 -95.77 L23.93 -93.85 L23.36 -91.97 L22.65 -90.14 L21.8 -88.37 L20.8 -86.68 L19.68 -85.07 L18.43 -83.55 L17.06 -82.14 L15.59 -80.84 L14.02 -79.66 L12.36 -78.61 L10.62 -77.7 L8.814 -76.93 L6.952 -76.3 L5.047 -75.82 L3.11 -75.5 L1.153 -75.33 L-0.8108 -75.32 L-2.77 -75.46 L-4.711 -75.76 L-6.623 -76.21 L-8.492 -76.81 L-10.31 -77.56 L-12.06 -78.45 L-13.73 -79.47 L-15.32 -80.63 L-16.81 -81.91 L-18.2 -83.3 L-19.47 -84.8 L-20.61 -86.4 L-21.63 -88.08 L-22.51 -89.83 L-23.24 -91.65 L-23.83 -93.53 L-24.27 -95.44 L-24.56 -97.39 L-24.69 -99.35 L-24.66 -101.3 L-24.48 -103.3 L-24.15 -105.2 L-23.66 -107.1 L-23.02 -109 L-22.23 -110.8 L-21.31 -112.5 L-20.25 -114.1 L-19.06 -115.7 L-17.75 -117.2 L-16.33 -118.5 L-14.81 -119.8 L-13.19 -120.9 L-11.49 -121.9 L-9.717 -122.7 L-7.882 -123.4 L-5.997 -124 L-4.074 -124.4 L-2.126 -124.6 L-0.1638 -124.7 L1.799 -124.6 L3.751 -124.4 L5.679 -124 L7.571 -123.5 L9.415 -122.8 L11.2 -122 L12.91 -121.1 L14.55 -120 L16.09 -118.8 L17.53 -117.4 L18.85 -116 L20.06 -114.4 L21.14 -112.8 L22.09 -111.1 L22.9 -109.3 L23.56 -107.4 L24.08 -105.5 L24.44 -103.6 L24.65 -101.6 L24.7 -99.68 Z " />
<path stroke="rgb(0,0,0)" stroke-opacity="1" fill="rgb(255,255,255)" fill-opacity="1" d="M-475.8 -677 L-477.7 -676.9 L-479.6 -676.9 L-481.6 -676.8 L-483.5 -676.8 L-485.4 -676.7 L-487.3 -676.7 L-489.3 -676.6 L-491.2 -676.6 L-493.1 -676.5 L-495.1 -676.5 L-497 -676.4 L-498.9 -676.4 L-500.8 -676.3 L-502.8 -676.3 L-504.7 -676.2 L-506.6 -676.2 L-508.6 -676.1 L-510.5 -676.1 L-512.4 -676.1 L-514.3 -676 L-516.3 -676 L-518.2 -675.9 L-520.1 -675.9 L-522.1 -675.8 L-524 -675.8 L-524 -677.7 L-524.1 -679.6 L-524.1 -681.5 L-524.2 -683.5 L-524.2 -685.4 L-524.3 -687.3 L-524.3 -689.3 L-524.4 -691.2 L-524.4 -693.1 L-524.5 -695 L-524.5 -697 L-524.6 -698.9 L-524.6 -700.8 L-524.7 -702.8 L-524.7 -704.7 L-524.8 -706.6 L-524.8 -708.5 L-524.8 -710.5 L-524.9 -712.4 L-524.9 -714.3 L-525 -716.3 L-525 -718.2 L-525.1 -720.1 L-525.1 -722 L-525.2 -724 L-523.3 -724 L-521.3 -724.1 L-519.4 -724.1 L-517.5 -724.2 L-515.5 -724.2 L-513.6 -724.3 L-511.7 -724.3 L-509.8 -724.4 L-507.8 -724.4 L-505.9 -724.5 L-504 -724.5 L-502 -724.5 L-500.1 -724.6 L-498.2 -724.6 L-496.3 -724.7 L-494.3 -724.7 L-492.4 -724.8 L-490.5 -724.8 L-488.5 -724.9 L-486.6 -724.9 L-484.7 -725 L-482.8 -725 L-480.8 -725.1 L-478.9 -725.1 L-477 -725.2 L-476.9 -723.2 L-476.9 -721.3 L-476.8 -719.4 L-476.8 -717.5 L-476.7 -715.5 L-476.7 -713.6 L-476.6 -711.7 L-476.6 -709.7 L-476.5 -707.8 L-476.5 -705.9 L-476.4 -704 L-476.4 -702 L-476.3 -700.1 L-476.3 -698.2 L-476.3 -696.2 L-476.2 -694.3 L-476.2 -692.4 L-476.1 -690.5 L-476.1 -688.5 L-476 -686.6 L-476 -684.7 L-475.9 -682.7 L-475.9 -680.8 L-475.8 -678.9 L-475.8 -677 Z " />
<path stroke="rgb(0,0,0)" stroke-opacity="0.256" fill="rgb(255,255,255)" fill-opacity="1" d="M224.7 -99.68 L224.6 -97.72 L224.3 -95.77 L223.9 -93.85 L223.4 -91.97 L222.7 -90.14 L221.8 -88.37 L220.8 -86.68 L219.7 -85.07 L218.4 -83.55 L217.1 -82.14 L215.6 -80.84 L214 -79.66 L212.4 -78.61 L210.6 -77.7 L208.8 -76.93 L207 -76.3 L205 -75.82 L203.1 -75.5 L201.2 -75.33 L199.2 -75.32 L197.2 -75.46 L195.3 -75.76 L193.4 -76.21 L191.5 -76.81 L189.7 -77.56 L187.9 -78.45 L186.3 -79.47 L184.7 -80.63 L183.2 -81.91 L181.8 -83.3 L180.5 -84.8 L179.4 -86.4 L178.4 -88.08 L177.5 -89.83 L176.8 -91.65 L176.2 -93.53 L175.7 -95.44 L175.4 -97.39 L175.3 -99.35 L175.3 -101.3 L175.5 -103.3 L175.9 -105.2 L176.3 -107.1 L177 -109 L177.8 -110.8 L178.7 -112.5 L179.8 -114.1 L180.9 -115.7 L182.2 -117.2 L183.7 -118.5 L185.2 -119.8 L186.8 -120.9 L188.5 -121.9 L190.3 -122.7 L192.1 -123.4 L194 -124 L195.9 -124.4 L197.9 -124.6 L199.8 -124.7 L201.8 -124.6 L203.8 -124.4 L205.7 -124 L207.6 -123.5 L209.4 -122.8 L211.2 -122 L212.9 -121.1 L214.5 -120 L216.1 -118.8 L217.5 -117.4 L218.9 -116 L220.1 -114.4 L221.1 -112.8 L222.1 -111.1 L222.9 -109.3 L223.6 -107.4 L224.1 -105.5 L224.4 -103.6 L224.7 -101.6 L224.7 -99.68 Z " />
<path stroke="rgb(0,0,0)" stroke-opacity="1" fill="rgb(255,255,255)" fill-opacity="1" d="M-276.3 -675.6 L-278.2 -675.7 L-280.2 -675.7 L-282.2 -675.7 L-284.1 -675.7 L-286.1 -675.8 L-288 -675.8 L-290 -675.8 L-292 -675.9 L-293.9 -675.9 L-295.9 -675.9 L-297.8 -675.9 L-299.8 -676 L-301.8 -676 L-303.7 -676 L-305.7 -676 L-307.7 -676.1 L-309.6 -676.1 L-311.6 -676.1 L-313.5 -676.1 L-315.5 -676.2 L-317.5 -676.2 L-319.4 -676.2 L-321.4 -676.2 L-323.3 -676.3 L-325.3 -676.3 L-325.3 -678.2 L-325.3 -680.2 L-325.2 -682.2 L-325.2 -684.1 L-325.2 -686.1 L-325.2 -688 L-325.1 -690 L-325.1 -692 L-325.1 -693.9 L-325.1 -695.9 L-325 -697.9 L-325 -699.8 L-325 -701.8 L-325 -703.7 L-324.9 -705.7 L-324.9 -707.7 L-324.9 -709.6 L-324.9 -711.6 L-324.8 -713.5 L-324.8 -715.5 L-324.8 -717.5 L-324.8 -719.4 L-324.7 -721.4 L-324.7 -723.4 L-324.7 -725.3 L-322.7 -725.3 L-320.8 -725.3 L-318.8 -725.2 L-316.8 -725.2 L-314.9 -725.2 L-312.9 -725.2 L-310.9 -725.1 L-309 -725.1 L-307 -725.1 L-305.1 -725.1 L-303.1 -725 L-301.1 -725 L-299.2 -725 L-297.2 -725 L-295.3 -724.9 L-293.3 -724.9 L-291.3 -724.9 L-289.4 -724.9 L-287.4 -724.8 L-285.4 -724.8 L-283.5 -724.8 L-281.5 -724.8 L-279.6 -724.7 L-277.6 -724.7 L-275.6 -724.7 L-275.7 -722.7 L-275.7 -720.8 L-275.7 -718.8 L-275.7 -716.8 L-275.8 -714.9 L-275.8 -712.9 L-275.8 -711 L-275.8 -709 L-275.9 -707 L-275.9 -705.1 L-275.9 -703.1 L-275.9 -701.1 L-276 -699.2 L-276 -697.2 L-276 -695.3 L-276 -693.3 L-276.1 -691.3 L-276.1 -689.4 L-276.1 -687.4 L-276.1 -685.5 L-276.2 -683.5 L-276.2 -681.5 L-276.2 -679.6 L-276.2 -677.6 L-276.3 -675.6 Z " />
<path stroke="rgb(0,0,0)" stroke-opacity="0.256" fill="rgb(255,255,255)" fill-opacity="1" d="M-275.3 0.3195 L-275.4 2.281 L-275.7 4.228 L-276.1 6.148 L-276.6 8.029 L-277.3 9.86 L-278.2 11.63 L-279.2 13.32 L-280.3 14.93 L-281.6 16.45 L-282.9 17.86 L-284.4 19.16 L-286 20.34 L-287.6 21.39 L-289.4 22.3 L-291.2 23.07 L-293 23.7 L-295 24.18 L-296.9 24.5 L-298.8 24.67 L-300.8 24.68 L-302.8 24.54 L-304.7 24.24 L-306.6 23.79 L-308.5 23.19 L-310.3 22.44 L-312.1 21.55 L-313.7 20.53 L-315.3 19.37 L-316.8 18.09 L-318.2 16.7 L-319.5 15.2 L-320.6 13.6 L-321.6 11.92 L-322.5 10.17 L-323.2 8.345 L-323.8 6.472 L-324.3 4.558 L-324.6 2.614 L-324.7 0.6546 L-324.7 -1.309 L-324.5 -3.265 L-324.1 -5.2 L-323.7 -7.102 L-323 -8.96 L-322.2 -10.76 L-321.3 -12.49 L-320.2 -14.15 L-319.1 -15.71 L-317.8 -17.18 L-316.3 -18.53 L-314.8 -19.77 L-313.2 -20.89 L-311.5 -21.87 L-309.7 -22.71 L-307.9 -23.41 L-306 -23.97 L-304.1 -24.37 L-302.1 -24.61 L-300.2 -24.7 L-298.2 -24.64 L-296.2 -24.42 L-294.3 -24.04 L-292.4 -23.52 L-290.6 -22.84 L-288.8 -22.02 L-287.1 -21.06 L-285.5 -19.97 L-283.9 -18.75 L-282.5 -17.42 L-281.1 -15.97 L-279.9 -14.42 L-278.9 -12.78 L-277.9 -11.06 L-277.1 -9.271 L-276.4 -7.423 L-275.9 -5.527 L-275.6 -3.597 L-275.3 -1.644 L-275.3 0.3195 Z " />
<path stroke="rgb(0,0,0)" stroke-opacity="1" fill="rgb(255,255,255)" fill-opacity="1" d="M-773.8 -585.9 L-775.5 -585.4 L-777.1 -584.9 L-778.8 -584.5 L-780.4 -584 L-782 -583.5 L-783.7 -583 L-785.3 -582.5 L-787 -582 L-788.6 -581.5 L-790.3 -581 L-791.9 -580.5 L-793.6 -580.1 L-795.2 -579.6 L-796.9 -579.1 L-798.5 -578.6 L-800.1 -578.1 L-801.8 -577.6 L-803.4 -577.1 L-805.1 -576.6 L-806.7 -576.1 L-808.4 -575.7 L-810 -575.2 L-811.7 -574.7 L-813.3 -574.2 L-814.9 -573.7 L-815.4 -575.3 L-815.9 -577 L-816.4 -578.6 L-816.9 -580.3 L-817.4 -581.9 L-817.9 -583.6 L-818.4 -585.2 L-818.9 -586.9 L-819.4 -588.5 L-819.8 -590.2 L-820.3 -591.8 L-820.8 -593.4 L-821.3 -595.1 L-821.8 -596.7 L-822.3 -598.4 L-822.8 -600 L-823.3 -601.7 L-823.8 -603.3 L-824.2 -605 L-824.7 -606.6 L-825.2 -608.2 L-825.7 -609.9 L-826.2 -611.5 L-826.7 -613.2 L-827.2 -614.8 L-825.5 -615.3 L-823.9 -615.8 L-822.2 -616.3 L-820.6 -616.8 L-819 -617.3 L-817.3 -617.8 L-815.7 -618.3 L-814 -618.7 L-812.4 -619.2 L-810.7 -619.7 L-809.1 -620.2 L-807.4 -620.7 L-805.8 -621.2 L-804.1 -621.7 L-802.5 -622.2 L-800.9 -622.7 L-799.2 -623.1 L-797.6 -623.6 L-795.9 -624.1 L-794.3 -624.6 L-792.6 -625.1 L-791 -625.6 L-789.3 -626.1 L-787.7 -626.6 L-786 -627.1 L-785.6 -625.4 L-785.1 -623.8 L-784.6 -622.1 L-784.1 -620.5 L-783.6 -618.8 L-783.1 -617.2 L-782.6 -615.5 L-782.1 -613.9 L-781.6 -612.3 L-781.2 -610.6 L-780.7 -609 L-780.2 -607.3 L-779.7 -605.7 L-779.2 -604 L-778.7 -602.4 L-778.2 -600.7 L-777.7 -599.1 L-777.2 -597.4 L-776.8 -595.8 L-776.3 -594.2 L-775.8 -592.5 L-775.3 -590.9 L-774.8 -589.2 L-774.3 -587.6 L-773.8 -585.9 Z " />
<path stroke="rgb(0,0,0)" stroke-opacity="0.256" fill="rgb(255,255,255)" fill-opacity="1" d="M-75.3 0.3195 L-75.4 2.281 L-75.66 4.228 L-76.07 6.148 L-76.64 8.029 L-77.35 9.86 L-78.2 11.63 L-79.2 13.32 L-80.32 14.93 L-81.57 16.45 L-82.94 17.86 L-84.41 19.16 L-85.98 20.34 L-87.64 21.39 L-89.38 22.3 L-91.19 23.07 L-93.05 23.7 L-94.95 24.18 L-96.89 24.5 L-98.85 24.67 L-100.8 24.68 L-102.8 24.54 L-104.7 24.24 L-106.6 23.79 L-108.5 23.19 L-110.3 22.44 L-112.1 21.55 L-113.7 20.53 L-115.3 19.37 L-116.8 18.09 L-118.2 16.7 L-119.5 15.2 L-120.6 13.6 L-121.6 11.92 L-122.5 10.17 L-123.2 8.345 L-123.8 6.472 L-124.3 4.558 L-124.6 2.614 L-124.7 0.6546 L-124.7 -1.309 L-124.5 -3.265 L-124.1 -5.2 L-123.7 -7.102 L-123 -8.96 L-122.2 -10.76 L-121.3 -12.49 L-120.2 -14.15 L-119.1 -15.71 L-117.8 -17.18 L-116.3 -18.53 L-114.8 -19.77 L-113.2 -20.89 L-111.5 -21.87 L-109.7 -22.71 L-107.9 -23.41 L-106 -23.97 L-104.1 -24.37 L-102.1 -24.61 L-100.2 -24.7 L-98.2 -24.64 L-96.25 -24.42 L-94.32 -24.04 L-92.43 -23.52 L-90.58 -22.84 L-88.8 -22.02 L-87.09 -21.06 L-85.45 -19.97 L-83.91 -18.75 L-82.47 -17.42 L-81.15 -15.97 L-79.94 -14.42 L-78.86 -12.78 L-77.91 -11.06 L-77.1 -9.271 L-76.44 -7.423 L-75.92 -5.527 L-75.56 -3.597 L-75.35 -1.644 L-75.3 0.3195 Z " />
<path stroke="rgb(0,0,0)" stroke-opacity="1" fill="rgb(255,255,255)" fill-opacity="1" d="M-575.8 -577 L-577.7 -576.9 L-579.6 -576.9 L-581.6 -576.8 L-583.5 -576.8 L-585.4 -576.7 L-587.3 -576.7 L-589.3 -576.6 L-591.2 -576.6 L-593.1 -576.5 L-595.1 -576.5 L-597 -576.4 L-598.9 -576.4 L-600.8 -576.3 L-602.8 -576.3 L-604.7 -576.2 L-606.6 -576.2 L-608.6 -576.1 L-610.5 -576.1 L-612.4 -576.1 L-614.3 -576 L-616.3 -576 L-618.2 -575.9 L-620.1 -575.9 L-622.1 -575.8 L-624 -575.8 L-624 -577.7 L-624.1 -579.6 L-624.1 -581.5 L-624.2 -583.5 L-624.2 -585.4 L-624.3 -587.3 L-624.3 -589.3 L-624.4 -591.2 L-624.4 -593.1 L-624.5 -595 L-624.5 -597 L-624.6 -598.9 L-624.6 -600.8 L-624.7 -602.8 L-624.7 -604.7 L-624.8 -606.6 L-624.8 -608.5 L-624.8 -610.5 L-624.9 -612.4 L-624.9 -614.3 L-625 -616.3 L-625 -618.2 L-625.1 -620.1 L-625.1 -622 L-625.2 -624 L-623.3 -624 L-621.3 -624.1 L-619.4 -624.1 L-617.5 -624.2 L-615.5 -624.2 L-613.6 -624.3 L-611.7 -624.3 L-609.8 -624.4 L-607.8 -624.4 L-605.9 -624.5 L-604 -624.5 L-602 -624.5 L-600.1 -624.6 L-598.2 -624.6 L-596.3 -624.7 L-594.3 -624.7 L-592.4 -624.8 L-590.5 -624.8 L-588.5 -624.9 L-586.6 -624.9 L-584.7 -625 L-582.8 -625 L-580.8 -625.1 L-578.9 -625.1 L-577 -625.2 L-576.9 -623.2 L-576.9 -621.3 L-576.8 -619.4 L-576.8 -617.5 L-576.7 -615.5 L-576.7 -613.6 L-576.6 -611.7 L-576.6 -609.7 L-576.5 -607.8 L-576.5 -605.9 L-576.4 -604 L-576.4 -602 L-576.3 -600.1 L-576.3 -598.2 L-576.3 -596.2 L-576.2 -594.3 L-576.2 -592.4 L-576.1 -590.5 L-576.1 -588.5 L-576 -586.6 L-576 -584.7 L-575.9 -582.7 L-575.9 -580.8 L-575.8 -578.9 L-575.8 -577 Z " />
<path stroke="rgb(0,0,0)" stroke-opacity="0.256" fill="rgb(255,255,255)" fill-opacity="1" d="M124.7 0.3195 L124.6 2.281 L124.3 4.228 L123.9 6.148 L123.4 8.029 L122.7 9.86 L121.8 11.63 L120.8 13.32 L119.7 14.93 L118.4 16.45 L117.1 17.86 L115.6 19.16 L114 20.34 L112.4 21.39 L110.6 22.3 L108.8 23.07 L107 23.7 L105 24.18 L103.1 24.5 L101.2 24.67 L99.19 24.68 L97.23 24.54 L95.29 24.24 L93.38 23.79 L91.51 23.19 L89.69 22.44 L87.94 21.55 L86.27 20.53 L84.68 19.37 L83.19 18.09 L81.8 16.7 L80.53 15.2 L79.39 13.6 L78.37 11.92 L77.49 10.17 L76.76 8.345 L76.17 6.472 L75.73 4.558 L75.44 2.614 L75.31 0.6546 L75.34 -1.309 L75.52 -3.265 L75.85 -5.2 L76.34 -7.102 L76.98 -8.96 L77.77 -10.76 L78.69 -12.49 L79.75 -14.15 L80.94 -15.71 L82.25 -17.18 L83.67 -18.53 L85.19 -19.77 L86.81 -20.89 L88.51 -21.87 L90.28 -22.71 L92.12 -23.41 L94 -23.97 L95.93 -24.37 L97.87 -24.61 L99.84 -24.7 L101.8 -24.64 L103.8 -24.42 L105.7 -24.04 L107.6 -23.52 L109.4 -22.84 L111.2 -22.02 L112.9 -21.06 L114.5 -19.97 L116.1 -18.75 L117.5 -17.42 L118.9 -15.97 L120.1 -14.42 L121.1 -12.78 L122.1 -11.06 L122.9 -9.271 L123.6 -7.423 L124.1 -5.527 L124.4 -3.597 L124.7 -1.644 L124.7 0.3195 Z " />
<path stroke="rgb(0,0,0)" stroke-opacity="1" fill="rgb(255,255,255)" fill-opacity="1" d="M-376.3 -575.6 L-378.2 -575.7 L-380.2 -575.7 L-382.2 -575.7 L-384.1 -575.7 L-386.1 -575.8 L-388 -575.8 L-390 -575.8 L-392 -575.9 L-393.9 -575.9 L-395.9 -575.9 L-397.8 -575.9 L-399.8 -576 L-401.8 -576 L-403.7 -576 L-405.7 -576 L-407.7 -576.1 L-409.6 -576.1 L-411.6 -576.1 L-413.5 -576.1 L-415.5 -576.2 L-417.5 -576.2 L-419.4 -576.2 L-421.4 -576.2 L-423.3 -576.3 L-425.3 -576.3 L-425.3 -578.2 L-425.3 -580.2 L-425.2 -582.2 L-425.2 -584.1 L-425.2 -586.1 L-425.2 -588 L-425.1 -590 L-425.1 -592 L-425.1 -593.9 L-425.1 -595.9 L-425 -597.9 L-425 -599.8 L-425 -601.8 L-425 -603.7 L-424.9 -605.7 L-424.9 -607.7 L-424.9 -609.6 L-424.9 -611.6 L-424.8 -613.5 L-424.8 -615.5 L-424.8 -617.5 L-424.8 -619.4 L-424.7 -621.4 L-424.7 -623.4 L-424.7 -625.3 L-422.7 -625.3 L-420.8 -625.3 L-418.8 -625.2 L-416.8 -625.2 L-414.9 -625.2 L-412.9 -625.2 L-410.9 -625.1 L-409 -625.1 L-407 -625.1 L-405.1 -625.1 L-403.1 -625 L-401.1 -625 L-399.2 -625 L-397.2 -625 L-395.3 -624.9 L-393.3 -624.9 L-391.3 -624.9 L-389.4 -624.9 L-387.4 -624.8 L-385.4 -624.8 L-383.5 -624.8 L-381.5 -624.8 L-379.6 -624.7 L-377.6 -624.7 L-375.6 -624.7 L-375.7 -622.7 L-375.7 -620.8 L-375.7 -618.8 L-375.7 -616.8 L-375.8 -614.9 L-375.8 -612.9 L-375.8 -611 L-375.8 -609 L-375.9 -607 L-375.9 -605.1 L-375.9 -603.1 L-375.9 -601.1 L-376 -599.2 L-376 -597.2 L-376 -595.3 L-376 -593.3 L-376.1 -591.3 L-376.1 -589.4 L-376.1 -587.4 L-376.1 -585.5 L-376.2 -583.5 L-376.2 -581.5 L-376.2 -579.6 L-376.2 -577.6 L-376.3 -575.6 Z " />
<path stroke="rgb(0,0,0)" stroke-opacity="0.256" fill="rgb(255,255,255)" fill-opacity="1" d="M324.7 0.3195 L324.6 2.281 L324.3 4.228 L323.9 6.148 L323.4 8.029 L322.7 9.86 L321.8 11.63 L320.8 13.32 L319.7 14.93 L318.4 16.45 L317.1 17.86 L315.6 19.16 L314 20.34 L312.4 21.39 L310.6 22.3 L308.8 23.07 L307 23.7 L305 24.18 L303.1 24.5 L301.2 24.67 L299.2 24.68 L297.2 24.54 L295.3 24.24 L293.4 23.79 L291.5 23.19 L289.7 22.44 L287.9 21.55 L286.3 20.53 L284.7 19.37 L283.2 18.09 L281.8 16.7 L280.5 15.2 L279.4 13.6 L278.4 11.92 L277.5 10.17 L276.8 8.345 L276.2 6.472 L275.7 4.558 L275.4 2.614 L275.3 0.6546 L275.3 -1.309 L275.5 -3.265 L275.9 -5.2 L276.3 -7.102 L277 -8.96 L277.8 -10.76 L278.7 -12.49 L279.8 -14.15 L280.9 -15.71 L282.2 -17.18 L283.7 -18.53 L285.2 -19.77 L286.8 -20.89 L288.5 -21.87 L290.3 -22.71 L292.1 -23.41 L294 -23.97 L295.9 -24.37 L297.9 -24.61 L299.8 -24.7 L301.8 -24.64 L303.8 -24.42 L305.7 -24.04 L307.6 -23.52 L309.4 -22.84 L311.2 -22.02 L312.9 -21.06 L314.5 -19.97 L316.1 -18.75 L317.5 -17.42 L318.9 -15.97 L320.1 -14.42 L321.1 -12.78 L322.1 -11.06 L322.9 -9.271 L323.6 -7.423 L324.1 -5.527 L324.4 -3.597 L324.7 -1.644 L324.7 0.3195 Z " />
<path stroke="rgb(0,0,0)" stroke-opacity="1" fill="rgb(255,255,255)" fill-opacity="1" d="M-873.8 -485.9 L-875.5 -485.4 L-877.1 -484.9 L-878.8 -484.5 L-880.4 -484 L-882 -483.5 L-883.7 -483 L-885.3 -482.5 L-887 -482 L-888.6 -481.5 L-890.3 -481 L-891.9 -480.5 L-893.6 -480.1 L-895.2 -479.6 L-896.9 -479.1 L-898.5 -478.6 L-900.1 -478.1 L-901.8 -477.6 L-903.4 -477.1 L-905.1 -476.6 L-906.7 -476.1 L-908.4 -475.7 L-910 -475.2 L-911.7 -474.7 L-913.3 -474.2 L-914.9 -473.7 L-915.4 -475.3 L-915.9 -477 L-916.4 -478.6 L-916.9 -480.3 L-917.4 -481.9 L-917.9 -483.6 L-918.4 -485.2 L-918.9 -486.9 L-919.4 -488.5 L-919.8 -490.2 L-920.3 -491.8 L-920.8 -493.4 L-921.3 -495.1 L-921.8 -496.7 L-922.3 -498.4 L-922.8 -500 L-923.3 -501.7 L-923.8 -503.3 L-924.2 -505 L-924.7 -506.6 L-925.2 -508.2 L-925.7 -509.9 L-926.2 -511.5 L-926.7 -513.2 L-927.2 -514.8 L-925.5 -515.3 L-923.9 -515.8 L-922.2 -516.3 L-920.6 -516.8 L-919 -517.3 L-917.3 -517.8 L-915.7 -518.3 L-914 -518.7 L-912.4 -519.2 L-910.7 -519.7 L-909.1 -520.2 L-907.4 -520.7 L-905.8 -521.2 L-904.1 -521.7 L-902.5 -522.2 L-900.9 -522.7 L-899.2 -523.1 L-897.6 -523.6 L-895.9 -524.1 L-894.3 -524.6 L-892.6 -525.1 L-891 -525.6 L-889.3 -526.1 L-887.7 -526.6 L-886 -527.1 L-885.6 -525.4 L-885.1 -523.8 L-884.6 -522.1 L-884.1 -520.5 L-883.6 -518.8 L-883.1 -517.2 L-882.6 -515.5 L-882.1 -513.9 L-881.6 -512.3 L-881.2 -510.6 L-880.7 -509 L-880.2 -507.3 L-879.7 -505.7 L-879.2 -504 L-878.7 -502.4 L-878.2 -500.7 L-877.7 -499.1 L-877.2 -497.4 L-876.8 -495.8 L-876.3 -494.2 L-875.8 -492.5 L-875.3 -490.9 L-874.8 -489.2 L-874.3 -487.6 L-873.8 -485.9 Z " />
<path stroke="rgb(0,0,0)" stroke-opacity="0.256" fill="rgb(255,255,255)" fill-opacity="1" d="M-175.3 100.3 L-175.4 102.3 L-175.7 104.2 L-176.1 106.1 L-176.6 108 L-177.3 109.9 L-178.2 111.6 L-179.2 113.3 L-180.3 114.9 L-181.6 116.4 L-182.9 117.9 L-184.4 119.2 L-186 120.3 L-187.6 121.4 L-189.4 122.3 L-191.2 123.1 L-193 123.7 L-195 124.2 L-196.9 124.5 L-198.8 124.7 L-200.8 124.7 L-202.8 124.5 L-204.7 124.2 L-206.6 123.8 L-208.5 123.2 L-210.3 122.4 L-212.1 121.6 L-213.7 120.5 L-215.3 119.4 L-216.8 118.1 L-218.2 116.7 L-219.5 115.2 L-220.6 113.6 L-221.6 111.9 L-222.5 110.2 L-223.2 108.3 L-223.8 106.5 L-224.3 104.6 L-224.6 102.6 L-224.7 100.7 L-224.7 98.69 L-224.5 96.74 L-224.1 94.8 L-223.7 92.9 L-223 91.04 L-222.2 89.24 L-221.3 87.51 L-220.2 85.85 L-219.1 84.29 L-217.8 82.82 L-216.3 81.47 L-214.8 80.23 L-213.2 79.11 L-211.5 78.13 L-209.7 77.29 L-207.9 76.59 L-206 76.03 L-204.1 75.63 L-202.1 75.39 L-200.2 75.3 L-198.2 75.36 L-196.2 75.58 L-194.3 75.96 L-192.4 76.48 L-190.6 77.16 L-188.8 77.98 L-187.1 78.94 L-185.5 80.03 L-183.9 81.25 L-182.5 82.58 L-181.1 84.03 L-179.9 85.58 L-178.9 87.22 L-177.9 88.94 L-177.1 90.73 L-176.4 92.58 L-175.9 94.47 L-175.6 96.4 L-175.3 98.36 L-175.3 100.3 Z " />
<path stroke="rgb(0,0,0)" stroke-opacity="1" fill="rgb(255,255,255)" fill-opacity="1" d="M-675.8 -477 L-677.7 -476.9 L-679.6 -476.9 L-681.6 -476.8 L-683.5 -476.8 L-685.4 -476.7 L-687.3 -476.7 L-689.3 -476.6 L-691.2 -476.6 L-693.1 -476.5 L-695.1 -476.5 L-697 -476.4 L-698.9 -476.4 L-700.8 -476.3 L-702.8 -476.3 L-704.7 -476.2 L-706.6 -476.2 L-708.6 -476.1 L-710.5 -476.1 L-712.4 -476.1 L-714.3 -476 L-716.3 -476 L-718.2 -475.9 L-720.1 -475.9 L-722.1 -475.8 L-724 -475.8 L-724 -477.7 L-724.1 -479.6 L-724.1 -481.5 L-724.2 -483.5 L-724.2 -485.4 L-724.3 -487.3 L-724.3 -489.3 L-724.4 -491.2 L-724.4 -493.1 L-724.5 -495 L-724.5 -497 L-724.6 -498.9 L-724.6 -500.8 L-724.7 -502.8 L-724.7 -504.7 L-724.8 -506.6 L-724.8 -508.5 L-724.8 -510.5 L-724.9 -512.4 L-724.9 -514.3 L-725 -516.3 L-725 -518.2 L-725.1 -520.1 L-725.1 -522 L-725.2 -524 L-723.3 -524 L-721.3 -524.1 L-719.4 -524.1 L-717.5 -524.2 L-715.5 -524.2 L-713.6 -524.3 L-711.7 -524.3 L-709.8 -524.4 L-707.8 -524.4 L-705.9 -524.5 L-704 -524.5 L-702 -524.5 L-700.1 -524.6 L-698.2 -524.6 L-696.3 -524.7 L-694.3 -524.7 L-692.4 -524.8 L-690.5 -524.8 L-688.5 -524.9 L-686.6 -524.9 L-684.7 -525 L-682.8 -525 L-680.8 -525.1 L-678.9 -525.1 L-677 -525.2 L-676.9 -523.2 L-676.9 -521.3 L-676.8 -519.4 L-676.8 -517.5 L-676.7 -515.5 L-676.7 -513.6 L-676.6 -511.7 L-676.6 -509.7 L-676.5 -507.8 L-676.5 -505.9 L-676.4 -504 L-676.4 -502 L-676.3 -500.1 L-676.3 -498.2 L-676.3 -496.2 L-676.2 -494.3 L-676.2 -492.4 L-676.1 -490.5 L-676.1 -488.5 L-676 -486.6 L-676 -484.7 L-675.9 -482.7 L-675.9 -480.8 L-675.8 -478.9 L-675.8 -477 Z " />
<path stroke="rgb(0,0,0)" stroke-opacity="0.256" fill="rgb(255,255,255)" fill-opacity="1" d="M24.7 100.3 L24.6 102.3 L24.34 104.2 L23.93 106.1 L23.36 108 L22.65 109.9 L21.8 111.6 L20.8 113.3 L19.68 114.9 L18.43 116.4 L17.06 117.9 L15.59 119.2 L14.02 120.3 L12.36 121.4 L10.62 122.3 L8.814 123.1 L6.952 123.7 L5.047 124.2 L3.11 124.5 L1.153 124.7 L-0.8108 124.7 L-2.77 124.5 L-4.711 124.2 L-6.623 123.8 L-8.492 123.2 L-10.31 122.4 L-12.06 121.6 L-13.73 120.5 L-15.32 119.4 L-16.81 118.1 L-18.2 116.7 L-19.47 115.2 L-20.61 113.6 L-21.63 111.9 L-22.51 110.2 L-23.24 108.3 L-23.83 106.5 L-24.27 104.6 L-24.56 102.6 L-24.69 100.7 L-24.66 98.69 L-24.48 96.74 L-24.15 94.8 L-23.66 92.9 L-23.02 91.04 L-22.23 89.24 L-21.31 87.51 L-20.25 85.85 L-19.06 84.29 L-17.75 82.82 L-16.33 81.47 L-14.81 80.23 L-13.19 79.11 L-11.49 78.13 L-9.717 77.29 L-7.882 76.59 L-5.997 76.03 L-4.074 75.63 L-2.126 75.39 L-0.1638 75.3 L1.799 75.36 L3.751 75.58 L5.679 75.96 L7.571 76.48 L9.415 77.16 L11.2 77.98 L12.91 78.94 L14.55 80.03 L16.09 81.25 L17.53 82.58 L18.85 84.03 L20.06 85.58 L21.14 87.22 L22.09 88.94 L22.9 90.73 L23.56 92.58 L24.08 94.47 L24.44 96.4 L24.65 98.36 L24.7 100.3 Z " />
<path stroke="rgb(0,0,0)" stroke-opacity="1" fill="rgb(255,255,255)" fill-opacity="1" d="M-476.3 -475.6 L-478.2 -475.7 L-480.2 -475.7 L-482.2 -475.7 L-484.1 -475.7 L-486.1 -475.8 L-488 -475.8 L-490 -475.8 L-492 -475.9 L-493.9 -475.9 L-495.9 -475.9 L-497.8 -475.9 L-499.8 -476 L-501.8 -476 L-503.7 -476 L-505.7 -476 L-507.7 -476.1 L-509.6 -476.1 L-511.6 -476.1 L-513.5 -476.1 L-515.5 -476.2 L-517.5 -476.2 L-519.4 -476.2 L-521.4 -476.2 L-523.3 -476.3 L-525.3 -476.3 L-525.3 -478.2 L-525.3 -480.2 L-525.2 -482.2 L-525.2 -484.1 L-525.2 -486.1 L-525.2 -488 L-525.1 -490 L-525.1 -492 L-525.1 -493.9 L-525.1 -495.9 L-525 -497.9 L-525 -499.8 L-525 -501.8 L-525 -503.7 L-524.9 -505.7 L-524.9 -507.7 L-524.9 -509.6 L-524.9 -511.6 L-524.8 -513.5 L-524.8 -515.5 L-524.8 -517.5 L-524.8 -519.4 L-524.7 -521.4 L-524.7 -523.4 L-524.7 -525.3 L-522.7 -525.3 L-520.8 -525.3 L-518.8 -525.2 L-516.8 -525.2 L-514.9 -525.2 L-512.9 -525.2 L-510.9 -525.1 L-509 -525.1 L-507 -525.1 L-505.1 -525.1 L-503.1 -525 L-501.1 -525 L-499.2 -525 L-497.2 -525 L-495.3 -524.9 L-493.3 -524.9 L-491.3 -524.9 L-489.4 -524.9 L-487.4 -524.8 L-485.4 -524.8 L-483.5 -524.8 L-481.5 -524.8 L-479.6 -524.7 L-477.6 -524.7 L-475.6 -524.7 L-475.7 -522.7 L-475.7 -520.8 L-475.7 -518.8 L-475.7 -516.8 L-475.8 -514.9 L-475.8 -512.9 L-475.8 -511 L-475.8 -509 L-475.9 -507 L-475.9 -505.1 L-475.9 -503.1 L-475.9 -501.1 L-476 -499.2 L-476 -497.2 L-476 -495.3 L-476 -493.3 L-476.1 -491.3 L-476.1 -489.4 L-476.1 -487.4 L-476.1 -485.5 L-476.2 -483.5 L-476.2 -481.5 L-476.2 -479.6 L-476.2 -477.6 L-476.3 -475.6 Z " />
<path stroke="rgb(0,0,0)" stroke-opacity="0.256" fill="rgb(255,255,255)" fill-opacity="1" d="M224.7 100.3 L224.6 102.3 L224.3 104.2 L223.9 106.1 L223.4 108 L222.7 109.9 L221.8 111.6 L220.8 113.3 L219.7 114.9 L218.4 116.4 L217.1 117.9 L215.6 119.2 L214 120.3 L212.4 121.4 L210.6 122.3 L208.8 123.1 L207 123.7 L205 124.2 L203.1 124.5 L201.2 124.7 L199.2 124.7 L197.2 124.5 L195.3 124.2 L193.4 123.8 L191.5 123.2 L189.7 122.4 L187.9 121.6 L186.3 120.5 L184.7 119.4 L183.2 118.1 L181.8 116.7 L180.5 115.2 L179.4 113.6 L178.4 111.9 L177.5 110.2 L176.8 108.3 L176.2 106.5 L175.7 104.6 L175.4 102.6 L175.3 100.7 L175.3 98.69 L175.5 96.74 L175.9 94.8 L176.3 92.9 L177 91.04 L177.8 89.24 L178.7 87.51 L179.8 85.85 L180.9 84.29 L182.2 82.82 L183.7 81.47 L185.2 80.23 L186.8 79.11 L188.5 78.13 L190.3 77.29 L192.1 76.59 L194 76.03 L195.9 75.63 L197.9 75.39 L199.8 75.3 L201.8 75.36 L203.8 75.58 L205.7 75.96 L207.6 76.48 L209.4 77.16 L211.2 77.98 L212.9 78.94 L214.5 80.03 L216.1 81.25 L217.5 82.58 L218.9 84.03 L220.1 85.58 L221.1 87.22 L222.1 88.94 L222.9 90.73 L223.6 92.58 L224.1 94.47 L224.4 96.4 L224.7 98.36 L224.7 100.3 Z " />
<path stroke="rgb(0,0,0)" stroke-opacity="1" fill="rgb(255,255,255)" fill-opacity="1" d="M-276.3 -475.6 L-278.2 -475.7 L-280.2 -475.7 L-282.2 -475.7 L-284.1 -475.7 L-286.1 -475.8 L-288 -475.8 L-290 -475.8 L-292 -475.9 L-293.9 -475.9 L-295.9 -475.9 L-297.8 -475.9 L-299.8 -476 L-301.8 -476 L-303.7 -476 L-305.7 -476 L-307.7 -476.1 L-309.6 -476.1 L-311.6 -476.1 L-313.5 -476.1 L-315.5 -476.2 L-317.5 -476.2 L-319.4 -476.2 L-321.4 -476.2 L-323.3 -476.3 L-325.3 -476.3 L-325.3 -478.2 L-325.3 -480.2 L-325.2 -482.2 L-325.2 -484.1 L-325.2 -486.1 L-325.2 -488 L-325.1 -490 L-325.1 -492 L-325.1 -493.9 L-325.1 -495.9 L-325 -497.9 L-325 -499.8 L-325 -501.8 L-325 -503.7 L-324.9 -505.7 L-324.9 -507.7 L-324.9 -509.6 L-324.9 -511.6 L-324.8 -513.5 L-324.8 -515.5 L-324.8 -517.5 L-324.8 -519.4 L-324.7 -521.4 L-324.7 -523.4 L-324.7 -525.3 L-322.7 -525.3 L-320.8 -525.3 L-318.8 -525.2 L-316.8 -525.2 L-314.9 -525.2 L-312.9 -525.2 L-310.9 -525.1 L-309 -525.1 L-307 -525.1 L-305.1 -525.1 L-303.1 -525 L-301.1 -525 L-299.2 -525 L-297.2 -525 L-295.3 -524.9 L-293.3 -524.9 L-291.3 -524.9 L-289.4 -524.9 L-287.4 -524.8 L-285.4 -524.8 L-283.5 -524.8 L-281.5 -524.8 L-279.6 -524.7 L-277.6 -524.7 L-275.6 -524.7 L-275.7 -522.7 L-275.7 -520.8 L-275.7 -518.8 L-275.7 -516.8 L-275.8 -514.9 L-275.8 -512.9 L-275.8 -511 L-275.8 -509 L-275.9 -507 L-275.9 -505.1 L-275.9 -503.1 L-275.9 -501.1 L-276 -499.2 L-276 -497.2 L-276 -495.3 L-276 -493.3 L-276.1 -491.3 L-276.1 -489.4 L-276.1 -487.4 L-276.1 -485.5 L-276.2 -483.5 L-276.2 -481.5 L-276.2 -479.6 L-276.2 -477.6 L-276.3 -475.6 Z " />
<path stroke="rgb(0,0,0)" stroke-opacity="0.256" fill="rgb(255,255,255)" fill-opacity="1" d="M-275.3 200.3 L-275.4 202.3 L-275.7 204.2 L-276.1 206.1 L-276.6 208 L-277.3 209.9 L-278.2 211.6 L-279.2 213.3 L-280.3 214.9 L-281.6 216.4 L-282.9 217.9 L-284.4 219.2 L-286 220.3 L-287.6 221.4 L-289.4 222.3 L-291.2 223.1 L-293 223.7 L-295 224.2 L-296.9 224.5 L-298.8 224.7 L-300.8 224.7 L-302.8 224.5 L-304.7 224.2 L-306.6 223.8 L-308.5 223.2 L-310.3 222.4 L-312.1 221.6 L-313.7 220.5 L-315.3 219.4 L-316.8 218.1 L-318.2 216.7 L-319.5 215.2 L-320.6 213.6 L-321.6 211.9 L-322.5 210.2 L-323.2 208.3 L-323.8 206.5 L-324.3 204.6 L-324.6 202.6 L-324.7 200.7 L-324.7 198.7 L-324.5 196.7 L-324.1 194.8 L-323.7 192.9 L-323 191 L-322.2 189.2 L-321.3 187.5 L-320.2 185.9 L-319.1 184.3 L-317.8 182.8 L-316.3 181.5 L-314.8 180.2 L-313.2 179.1 L-311.5 178.1 L-309.7 177.3 L-307.9 176.6 L-306 176 L-304.1 175.6 L-302.1 175.4 L-300.2 175.3 L-298.2 175.4 L-296.2 175.6 L-294.3 176 L-292.4 176.5 L-290.6 177.2 L-288.8 178 L-287.1 178.9 L-285.5 180 L-283.9 181.2 L-282.5 182.6 L-281.1 184 L-279.9 185.6 L-278.9 187.2 L-277.9 188.9 L-277.1 190.7 L-276.4 192.6 L-275.9 194.5 L-275.6 196.4 L-275.3 198.4 L-275.3 200.3 Z " />
<path stroke="rgb(0,0,0)" stroke-opacity="1" fill="rgb(255,255,255)" fill-opacity="1" d="M-775.8 -377 L-777.7 -376.9 L-779.6 -376.9 L-781.6 -376.8 L-783.5 -376.8 L-785.4 -376.7 L-787.3 -376.7 L-789.3 -376.6 L-791.2 -376.6 L-793.1 -376.5 L-795.1 -376.5 L-797 -376.4 L-798.9 -376.4 L-800.8 -376.3 L-802.8 -376.3 L-804.7 -376.2 L-806.6 -376.2 L-808.6 -376.1 L-810.5 -376.1 L-812.4 -376.1 L-814.3 -376 L-816.3 -376 L-818.2 -375.9 L-820.1 -375.9 L-822.1 -375.8 L-824 -375.8 L-824 -377.7 L-824.1 -379.6 L-824.1 -381.5 L-824.2 -383.5 L-824.2 -385.4 L-824.3 -387.3 L-824.3 -389.3 L-824.4 -391.2 L-824.4 -393.1 L-824.5 -395 L-824.5 -397 L-824.6 -398.9 L-824.6 -400.8 L-824.7 -402.8 L-824.7 -404.7 L-824.8 -406.6 L-824.8 -408.5 L-824.8 -410.5 L-824.9 -412.4 L-824.9 -414.3 L-825 -416.3 L-825 -418.2 L-825.1 -420.1 L-825.1 -422 L-825.2 -424 L-823.3 -424 L-821.3 -424.1 L-819.4 -424.1 L-817.5 -424.2 L-815.5 -424.2 L-813.6 -424.3 L-811.7 -424.3 L-809.8 -424.4 L-807.8 -424.4 L-805.9 -424.5 L-804 -424.5 L-802 -424.5 L-800.1 -424.6 L-798.2 -424.6 L-796.3 -424.7 L-794.3 -424.7 L-792.4 -424.8 L-790.5 -424.8 L-788.5 -424.9 L-786.6 -424.9 L-784.7 -425 L-782.8 -425 L-780.8 -425.1 L-778.9 -425.1 L-777 -425.2 L-776.9 -423.2 L-776.9 -421.3 L-776.8 -419.4 L-776.8 -417.5 L-776.7 -415.5 L-776.7 -413.6 L-776.6 -411.7 L-776.6 -409.7 L-776.5 -407.8 L-776.5 -405.9 L-776.4 -404 L-776.4 -402 L-776.3 -400.1 L-776.3 -398.2 L-776.3 -396.2 L-776.2 -394.3 L-776.2 -392.4 L-776.1 -390.5 L-776.1 -388.5 L-776 -386.6 L-776 -384.7 L-775.9 -382.7 L-775.9 -380.8 L-775.8 -378.9 L-775.8 -377 Z " />
<path stroke="rgb(0,0,0)" stroke-opacity="0.256" fill="rgb(255,255,255)" fill-opacity="1" d="M-75.3 200.3 L-75.4 202.3 L-75.66 204.2 L-76.07 206.1 L-76.64 208 L-77.35 209.9 L-78.2 211.6 L-79.2 213.3 L-80.32 214.9 L-81.57 216.4 L-82.94 217.9 L-84.41 219.2 L-85.98 220.3 L-87.64 221.4 L-89.38 222.3 L-91.19 223.1 L-93.05 223.7 L-94.95 224.2 L-96.89 224.5 L-98.85 224.7 L-100.8 224.7 L-102.8 224.5 L-104.7 224.2 L-106.6 223.8 L-108.5 223.2 L-110.3 222.4 L-112.1 221.6 L-113.7 220.5 L-115.3 219.4 L-116.8 218.1 L-118.2 216.7 L-119.5 215.2 L-120.6 213.6 L-121.6 211.9 L-122.5 210.2 L-123.2 208.3 L-123.8 206.5 L-124.3 204.6 L-124.6 202.6 L-124.7 200.7 L-124.7 198.7 L-124.5 196.7 L-124.1 194.8 L-123.7 192.9 L-123 191 L-122.2 189.2 L-121.3 187.5 L-120.2 185.9 L-119.1 184.3 L-117.8 182.8 L-116.3 181.5 L-114.8 180.2 L-113.2 179.1 L-111.5 178.1 L-109.7 177.3 L-107.9 176.6 L-106 176 L-104.1 175.6 L-102.1 175.4 L-100.2 175.3 L-98.2 175.4 L-96.25 175.6 L-94.32 176 L-92.43 176.5 L-90.58 177.2 L-88.8 178 L-87.09 178.9 L-85.45 180 L-83.91 181.2 L-82.47 182.6 L-81.15 184 L-79.94 185.6 L-78.86 187.2 L-77.91 188.9 L-77.1 190.7 L-76.44 192.6 L-75.92 194.5 L-75.56 196.4 L-75.35 198.4 L-75.3 200.3 Z " />
<path stroke="rgb(0,0,0)" stroke-opacity="1" fill="rgb(255,255,255)" fill-opacity="1" d="M-576.3 -375.6 L-578.2 -375.7 L-580.2 -375.7 L-582.2 -375.7 L-584.1 -375.7 L-586.1 -375.8 L-588 -375.8 L-590 -375.8 L-592 -375.9 L-593.9 -375.9 L-595.9 -375.9 L-597.8 -375.9 L-599.8 -376 L-601.8 -376 L-603.7 -376 L-605.7 -376 L-607.7 -376.1 L-609.6 -376.1 L-611.6 -376.1 L-613.5 -376.1 L-615.5 -376.2 L-617.5 -376.2 L-619.4 -376.2 L-621.4 -376.2 L-623.3 -376.3 L-625.3 -376.3 L-625.3 -378.2 L-625.3 -380.2 L-625.2 -382.2 L-625.2 -384.1 L-625.2 -386.1 L-625.2 -388 L-625.1 -390 L-625.1 -392 L-625.1 -393.9 L-625.1 -395.9 L-625 -397.9 L-625 -399.8 L-625 -401.8 L-625 -403.7 L-624.9 -405.7 L-624.9 -407.7 L-624.9 -409.6 L-624.9 -411.6 L-624.8 -413.5 L-624.8 -415.5 L-624.8 -417.5 L-624.8 -419.4 L-624.7 -421.4 L-624.7 -423.4 L-624.7 -425.3 L-622.7 -425.3 L-620.8 -425.3 L-618.8 -425.2 L-616.8 -425.2 L-614.9 -425.2 L-612.9 -425.2 L-610.9 -425.1 L-609 -425.1 L-607 -425.1 L-605.1 -425.1 L-603.1 -425 L-601.1 -425 L-599.2 -425 L-597.2 -425 L-595.3 -424.9 L-593.3 -424.9 L-591.3 -424.9 L-589.4 -424.9 L-587.4 -424.8 L-585.4 -424.8 L-583.5 -424.8 L-581.5 -424.8 L-579.6 -424.7 L-577.6 -424.7 L-575.6 -424.7 L-575.7 -422.7 L-575.7 -420.8 L-575.7 -418.8 L-575.7 -416.8 L-575.8 -414.9 L-575.8 -412.9 L-575.8 -411 L-575.8 -409 L-575.9 -407 L-575.9 -405.1 L-575.9 -403.1 L-575.9 -401.1 L-576 -399.2 L-576 -397.2 L-576 -395.3 L-576 -393.3 L-576.1 -391.3 L-576.1 -389.4 L-576.1 -387.4 L-576.1 -385.5 L-576.2 -383.5 L-576.2 -381.5 L-576.2 -379.6 L-576.2 -377.6 L-576.3 -375.6 Z " />
<path stroke="rgb(0,0,0)" stroke-opacity="0.256" fill="rgb(255,255,255)" fill-opacity="1" d="M124.7 200.3 L124.6 202.3 L124.3 204.2 L123.9 206.1 L123.4 208 L122.7 209.9 L121.8 211.6 L120.8 213.3 L119.7 214.9 L118.4 216.4 L117.1 217.9 L115.6 219.2 L114 220.3 L112.4 221.4 L110.6 222.3 L108.8 223.1 L107 223.7 L105 224.2 L103.1 224.5 L101.2 224.7 L99.19 224.7 L97.23 224.5 L95.29 224.2 L93.38 223.8 L91.51 223.2 L89.69 222.4 L87.94 221.6 L86.27 220.5 L84.68 219.4 L83.19 218.1 L81.8 216.7 L80.53 215.2 L79.39 213.6 L78.37 211.9 L77.49 210.2 L76.76 208.3 L76.17 206.5 L75.73 204.6 L75.44 202.6 L75.31 200.7 L75.34 198.7 L75.52 196.7 L75.85 194.8 L76.34 192.9 L76.98 191 L77.77 189.2 L78.69 187.5 L79.75 185.9 L80.94 184.3 L82.25 182.8 L83.67 181.5 L85.19 180.2 L86.81 179.1 L88.51 178.1 L90.28 177.3 L92.12 176.6 L94 176 L95.93 175.6 L97.87 175.4 L99.84 175.3 L101.8 175.4 L103.8 175.6 L105.7 176 L107.6 176.5 L109.4 177.2 L111.2 178 L112.9 178.9 L114.5 180 L116.1 181.2 L117.5 182.6 L118.9 184 L120.1 185.6 L121.1 187.2 L122.1 188.9 L122.9 190.7 L123.6 192.6 L124.1 194.5 L124.4 196.4 L124.7 198.4 L124.7 200.3 Z " />
<path stroke="rgb(0,0,0)" stroke-opacity="1" fill="rgb(255,255,255)" fill-opacity="1" d="M-376.3 -375.6 L-378.2 -375.7 L-380.2 -375.7 L-382.2 -375.7 L-384.1 -375.7 L-386.1 -375.8 L-388 -375.8 L-390 -375.8 L-392 -375.9 L-393.9 -375.9 L-395.9 -375.9 L-397.8 -375.9 L-399.8 -376 L-401.8 -376 L-403.7 -376 L-405.7 -376 L-407.7 -376.1 L-409.6 -376.1 L-411.6 -376.1 L-413.5 -376.1 L-415.5 -376.2 L-417.5 -376.2 L-419.4 -376.2 L-421.4 -376.2 L-423.3 -376.3 L-425.3 -376.3 L-425.3 -378.2 L-425.3 -380.2 L-425.2 -382.2 L-425.2 -384.1 L-425.2 -386.1 L-425.2 -388 L-425.1 -390 L-425.1 -392 L-425.1 -393.9 L-425.1 -395.9 L-425 -397.9 L-425 -399.8 L-425 -401.8 L-425 -403.7 L-424.9 -405.7 L-424.9 -407.7 L-424.9 -409.6 L-424.9 -411.6 L-424.8 -413.5 L-424.8 -415.5 L-424.8 -417.5 L-424.8 -419.4 L-424.7 -421.4 L-424.7 -423.4 L-424.7 -425.3 L-422.7 -425.3 L-420.8 -425.3 L-418.8 -425.2 L-416.8 -425.2 L-414.9 -425.2 L-412.9 -425.2 L-410.9 -425.1 L-409 -425.1 L-407 -425.1 L-405.1 -425.1 L-403.1 -425 L-401.1 -425 L-399.2 -425 L-397.2 -425 L-395.3 -424.9 L-393.3 -424.9 L-391.3 -424.9 L-389.4 -424.9 L-387.4 -424.8 L-385.4 -424.8 L-383.5 -424.8 L-381.5 -424.8 L-379.6 -424.7 L-377.6 -424.7 L-375.6 -424.7 L-375.7 -422.7 L-375.7 -420.8 L-375.7 -418.8 L-375.7 -416.8 L-375.8 -414.9 L-375.8 -412.9 L-375.8 -411 L-375.8 -409 L-375.9 -407 L-375.9 -405.1 L-375.9 -403.1 L-375.9 -401.1 L-376 -399.2 L-376 -397.2 L-376 -395.3 L-376 -393.3 L-376.1 -391.3 L-376.1 -389.4 L-376.1 -387.4 L-376.1 -385.5 L-376.2 -383.5 L-376.2 -381.5 L-376.2 -379.6 L-376.2 -377.6 L-376.3 -375.6 Z " />
<path stroke="rgb(0,0,0)" stroke-opacity="0.256" fill="rgb(255,255,255)" fill-opacity="1" d="M324.7 200.3 L324.6 202.3 L324.3 204.2 L323.9 206.1 L323.4 208 L322.7 209.9 L321.8 211.6 L320.8 213.3 L319.7 214.9 L318.4 216.4 L317.1 217.9 L315.6 219.2 L314 220.3 L312.4 221.4 L310.6 222.3 L308.8 223.1 L307 223.7 L305 224.2 L303.1 224.5 L301.2 224.7 L299.2 224.7 L297.2 224.5 L295.3 224.2 L293.4 223.8 L291.5 223.2 L289.7 222.4 L287.9 221.6 L286.3 220.5 L284.7 219.4 L283.2 218.1 L281.8 216.7 L280.5 215.2 L279.4 213.6 L278.4 211.9 L277.5 210.2 L276.8 208.3 L276.2 206.5 L275.7 204.6 L275.4 202.6 L275.3 200.7 L275.3 198.7 L275.5 196.7 L275.9 194.8 L276.3 192.9 L277 191 L277.8 189.2 L278.7 187.5 L279.8 185.9 L280.9 184.3 L282.2 182.8 L283.7 181.5 L285.2 180.2 L286.8 179.1 L288.5 178.1 L290.3 177.3 L292.1 176.6 L294 176 L295.9 175.6 L297.9 175.4 L299.8 175.3 L301.8 175.4 L303.8 175.6 L305.7 176 L307.6 176.5 L309.4 177.2 L311.2 178 L312.9 178.9 L314.5 180 L316.1 181.2 L317.5 182.6 L318.9 184 L320.1 185.6 L321.1 187.2 L322.1 188.9 L322.9 190.7 L323.6 192.6 L324.1 194.5 L324.4 196.4 L324.7 198.4 L324.7 200.3 Z " />
<path stroke="rgb(0,0,0)" stroke-opacity="1" fill="rgb(255,255,255)" fill-opacity="1" d="M-875.8 -277 L-877.7 -276.9 L-879.6 -276.9 L-881.6 -276.8 L-883.5 -276.8 L-885.4 -276.7 L-887.3 -276.7 L-889.3 -276.6 L-891.2 -276.6 L-893.1 -276.5 L-895.1 -276.5 L-897 -276.4 L-898.9 -276.4 L-900.8 -276.3 L-902.8 -276.3 L-904.7 -276.2 L-906.6 -276.2 L-908.6 -276.1 L-910.5 -276.1 L-912.4 -276.1 L-914.3 -276 L-916.3 -276 L-918.2 -275.9 L-920.1 -275.9 L-922.1 -275.8 L-924 -275.8 L-924 -277.7 L-924.1 -279.6 L-924.1 -281.5 L-924.2 -283.5 L-924.2 -285.4 L-924.3 -287.3 L-924.3 -289.3 L-924.4 -291.2 L-924.4 -293.1 L-924.5 -295 L-924.5 -297 L-924.6 -298.9 L-924.6 -300.8 L-924.7 -302.8 L-924.7 -304.7 L-924.8 -306.6 L-924.8 -308.5 L-924.8 -310.5 L-924.9 -312.4 L-924.9 -314.3 L-925 -316.3 L-925 -318.2 L-925.1 -320.1 L-925.1 -322 L-925.2 -324 L-923.3 -324 L-921.3 -324.1 L-919.4 -324.1 L-917.5 -324.2 L-915.5 -324.2 L-913.6 -324.3 L-911.7 -324.3 L-909.8 -324.4 L-907.8 -324.4 L-905.9 -324.5 L-904 -324.5 L-902 -324.5 L-900.1 -324.6 L-898.2 -324.6 L-896.3 -324.7 L-894.3 -324.7 L-892.4 -324.8 L-890.5 -324.8 L-888.5 -324.9 L-886.6 -324.9 L-884.7 -325 L-882.8 -325 L-880.8 -325.1 L-878.9 -325.1 L-877 -325.2 L-876.9 -323.2 L-876.9 -321.3 L-876.8 -319.4 L-876.8 -317.5 L-876.7 -315.5 L-876.7 -313.6 L-876.6 -311.7 L-876.6 -309.7 L-876.5 -307.8 L-876.5 -305.9 L-876.4 -304 L-876.4 -302 L-876.3 -300.1 L-876.3 -298.2 L-876.3 -296.2 L-876.2 -294.3 L-876.2 -292.4 L-876.1 -290.5 L-876.1 -288.5 L-876 -286.6 L-876 -284.7 L-875.9 -282.7 L-875.9 -280.8 L-875.8 -278.9 L-875.8 -277 Z " />
<path stroke="rgb(0,0,0)" stroke-opacity="0.256" fill="rgb(255,255,255)" fill-opacity="1" d="M-175.3 300.3 L-175.4 302.3 L-175.7 304.2 L-176.1 306.1 L-176.6 308 L-177.3 309.9 L-178.2 311.6 L-179.2 313.3 L-180.3 314.9 L-181.6 316.4 L-182.9 317.9 L-184.4 319.2 L-186 320.3 L-187.6 321.4 L-189.4 322.3 L-191.2 323.1 L-193 323.7 L-195 324.2 L-196.9 324.5 L-198.8 324.7 L-200.8 324.7 L-202.8 324.5 L-204.7 324.2 L-206.6 323.8 L-208.5 323.2 L-210.3 322.4 L-212.1 321.6 L-213.7 320.5 L-215.3 319.4 L-216.8 318.1 L-218.2 316.7 L-219.5 315.2 L-220.6 313.6 L-221.6 311.9 L-222.5 310.2 L-223.2 308.3 L-223.8 306.5 L-224.3 304.6 L-224.6 302.6 L-224.7 300.7 L-224.7 298.7 L-224.5 296.7 L-224.1 294.8 L-223.7 292.9 L-223 291 L-222.2 289.2 L-221.3 287.5 L-220.2 285.9 L-219.1 284.3 L-217.8 282.8 L-216.3 281.5 L-214.8 280.2 L-213.2 279.1 L-211.5 278.1 L-209.7 277.3 L-207.9 276.6 L-206 276 L-204.1 275.6 L-202.1 275.4 L-200.2 275.3 L-198.2 275.4 L-196.2 275.6 L-194.3 276 L-192.4 276.5 L-190.6 277.2 L-188.8 278 L-187.1 278.9 L-185.5 280 L-183.9 281.2 L-182.5 282.6 L-181.1 284 L-179.9 285.6 L-178.9 287.2 L-177.9 288.9 L-177.1 290.7 L-176.4 292.6 L-175.9 294.5 L-175.6 296.4 L-175.3 298.4 L-175.3 300.3 Z " />
<path stroke="rgb(0,0,0)" stroke-opacity="1" fill="rgb(255,255,255)" fill-opacity="1" d="M-676.3 -275.6 L-678.2 -275.7 L-680.2 -275.7 L-682.2 -275.7 L-684.1 -275.7 L-686.1 -275.8 L-688 -275.8 L-690 -275.8 L-692 -275.9 L-693.9 -275.9 L-695.9 -275.9 L-697.8 -275.9 L-699.8 -276 L-701.8 -276 L-703.7 -276 L-705.7 -276 L-707.7 -276.1 L-709.6 -276.1 L-711.6 -276.1 L-713.5 -276.1 L-715.5 -276.2 L-717.5 -276.2 L-719.4 -276.2 L-721.4 -276.2 L-723.3 -276.3 L-725.3 -276.3 L-725.3 -278.2 L-725.3 -280.2 L-725.2 -282.2 L-725.2 -284.1 L-725.2 -286.1 L-725.2 -288 L-725.1 -290 L-725.1 -292 L-725.1 -293.9 L-725.1 -295.9 L-725 -297.9 L-725 -299.8 L-725 -301.8 L-725 -303.7 L-724.9 -305.7 L-724.9 -307.7 L-724.9 -309.6 L-724.9 -311.6 L-724.8 -313.5 L-724.8 -315.5 L-724.8 -317.5 L-724.8 -319.4 L-724.7 -321.4 L-724.7 -323.4 L-724.7 -325.3 L-722.7 -325.3 L-720.8 -325.3 L-718.8 -325.2 L-716.8 -325.2 L-714.9 -325.2 L-712.9 -325.2 L-710.9 -325.1 L-709 -325.1 L-707 -325.1 L-705.1 -325.1 L-703.1 -325 L-701.1 -325 L-699.2 -325 L-697.2 -325 L-695.3 -324.9 L-693.3 -324.9 L-691.3 -324.9 L-689.4 -324.9 L-687.4 -324.8 L-685.4 -324.8 L-683.5 -324.8 L-681.5 -324.8 L-679.6 -324.7 L-677.6 -324.7 L-675.6 -324.7 L-675.7 -322.7 L-675.7 -320.8 L-675.7 -318.8 L-675.7 -316.8 L-675.8 -314.9 L-675.8 -312.9 L-675.8 -311 L-675.8 -309 L-675.9 -307 L-675.9 -305.1 L-675.9 -303.1 L-675.9 -301.1 L-676 -299.2 L-676 -297.2 L-676 -295.3 L-676 -293.3 L-676.1 -291.3 L-676.1 -289.4 L-676.1 -287.4 L-676.1 -285.5 L-676.2 -283.5 L-676.2 -281.5 L-676.2 -279.6 L-676.2 -277.6 L-676.3 -275.6 Z " />
<path stroke="rgb(0,0,0)" stroke-opacity="0.256" fill="rgb(255,255,255)" fill-opacity="1" d="M24.7 300.3 L24.6 302.3 L24.34 304.2 L23.93 306.1 L23.36 308 L22.65 309.9 L21.8 311.6 L20.8 313.3 L19.68 314.9 L18.43 316.4 L17.06 317.9 L15.59 319.2 L14.02 320.3 L12.36 321.4 L10.62 322.3 L8.814 323.1 L6.952 323.7 L5.047 324.2 L3.11 324.5 L1.153 324.7 L-0.8108 324.7 L-2.77 324.5 L-4.711 324.2 L-6.623 323.8 L-8.492 323.2 L-10.31 322.4 L-12.06 321.6 L-13.73 320.5 L-15.32 319.4 L-16.81 318.1 L-18.2 316.7 L-19.47 315.2 L-20.61 313.6 L-21.63 311.9 L-22.51 310.2 L-23.24 308.3 L-23.83 306.5 L-24.27 304.6 L-24.56 302.6 L-24.69 300.7 L-24.66 298.7 L-24.48 296.7 L-24.15 294.8 L-23.66 292.9 L-23.02 291 L-22.23 289.2 L-21.31 287.5 L-20.25 285.9 L-19.06 284.3 L-17.75 282.8 L-16.33 281.5 L-14.81 280.2 L-13.19 279.1 L-11.49 278.1 L-9.717 277.3 L-7.882 276.6 L-5.997 276 L-4.074 275.6 L-2.126 275.4 L-0.1638 275.3 L1.799 275.4 L3.751 275.6 L5.679 276 L7.571 276.5 L9.415 277.2 L11.2 278 L12.91 278.9 L14.55 280 L16.09 281.2 L17.53 282.6 L18.85 284 L20.06 285.6 L21.14 287.2 L22.09 288.9 L22.9 290.7 L23.56 292.6 L24.08 294.5 L24.44 296.4 L24.65 298.4 L24.7 300.3 Z " />
<path stroke="rgb(0,0,0)" stroke-opacity="1" fill="rgb(255,255,255)" fill-opacity="1" d="M-476.3 -275.6 L-478.2 -275.7 L-480.2 -275.7 L-482.2 -275.7 L-484.1 -275.7 L-486.1 -275.8 L-488 -275.8 L-490 -275.8 L-492 -275.9 L-493.9 -275.9 L-495.9 -275.9 L-497.8 -275.9 L-499.8 -276 L-501.8 -276 L-503.7 -276 L-505.7 -276 L-507.7 -276.1 L-509.6 -276.1 L-511.6 -276.1 L-513.5 -276.1 L-515.5 -276.2 L-517.5 -276.2 L-519.4 -276.2 L-521.4 -276.2 L-523.3 -276.3 L-525.3 -276.3 L-525.3 -278.2 L-525.3 -280.2 L-525.2 -282.2 L-525.2 -284.1 L-525.2 -286.1 L-525.2 -288 L-525.1 -290 L-525.1 -292 L-525.1 -293.9 L-525.1 -295.9 L-525 -297.9 L-525 -299.8 L-525 -301.8 L-525 -303.7 L-524.9 -305.7 L-524.9 -307.7 L-524.9 -309.6 L-524.9 -311.6 L-524.8 -313.5 L-524.8 -315.5 L-524.8 -317.5 L-524.8 -319.4 L-524.7 -321.4 L-524.7 -323.4 L-524.7 -325.3 L-522.7 -325.3 L-520.8 -325.3 L-518.8 -325.2 L-516.8 -325.2 L-514.9 -325.2 L-512.9 -325.2 L-510.9 -325.1 L-509 -325.1 L-507 -325.1 L-505.1 -325.1 L-503.1 -325 L-501.1 -325 L-499.2 -325 L-497.2 -325 L-495.3 -324.9 L-493.3 -324.9 L-491.3 -324.9 L-489.4 -324.9 L-487.4 -324.8 L-485.4 -324.8 L-483.5 -324.8 L-481.5 -324.8 L-479.6 -324.7 L-477.6 -324.7 L-475.6 -324.7 L-475.7 -322.7 L-475.7 -320.8 L-475.7 -318.8 L-475.7 -316.8 L-475.8 -314.9 L-475.8 -312.9 L-475.8 -311 L-475.8 -309 L-475.9 -307 L-475.9 -305.1 L-475.9 -303.1 L-475.9 -301.1 L-476 -299.2 L-476 -297.2 L-476 -295.3 L-476 -293.3 L-476.1 -291.3 L-476.1 -289.4 L-476.1 -287.4 L-476.1 -285.5 L-476.2 -283.5 L-476.2 -281.5 L-476.2 -279.6 L-476.2 -277.6 L-476.3 -275.6 Z " />
<path stroke="rgb(0,0,0)" stroke-opacity="0.256" fill="rgb(255,255,255)" fill-opacity="1" d="M224.7 300.3 L224.6 302.3 L224.3 304.2 L223.9 306.1 L223.4 308 L222.7 309.9 L221.8 311.6 L220.8 313.3 L219.7 314.9 L218.4 316.4 L217.1 317.9 L215.6 319.2 L214 320.3 L212.4 321.4 L210.6 322.3 L208.8 323.1 L207 323.7 L205 324.2 L203.1 324.5 L201.2 324.7 L199.2 324.7 L197.2 324.5 L195.3 324.2 L193.4 323.8 L191.5 323.2 L189.7 322.4 L187.9 321.6 L186.3 320.5 L184.7 319.4 L183.2 318.1 L181.8 316.7 L180.5 315.2 L179.4 313.6 L178.4 311.9 L177.5 310.2 L176.8 308.3 L176.2 306.5 L175.7 304.6 L175.4 302.6 L175.3 300.7 L175.3 298.7 L175.5 296.7 L175.9 294.8 L176.3 292.9 L177 291 L177.8 289.2 L178.7 287.5 L179.8 285.9 L180.9 284.3 L182.2 282.8 L183.7 281.5 L185.2 280.2 L186.8 279.1 L188.5 278.1 L190.3 277.3 L192.1 276.6 L194 276 L195.9 275.6 L197.9 275.4 L199.8 275.3 L201.8 275.4 L203.8 275.6 L205.7 276 L207.6 276.5 L209.4 277.2 L211.2 278 L212.9 278.9 L214.5 280 L216.1 281.2 L217.5 282.6 L218.9 284 L220.1 285.6 L221.1 287.2 L222.1 288.9 L222.9 290.7 L223.6 292.6 L224.1 294.5 L224.4 296.4 L224.7 298.4 L224.7 300.3 Z " />
<path stroke="rgb(0,0,0)" stroke-opacity="1" fill="rgb(255,255,255)" fill-opacity="1" d="M-276.3 -275.6 L-278.2 -275.7 L-280.2 -275.7 L-282.2 -275.7 L-284.1 -275.7 L-286.1 -275.8 L-288 -275.8 L-290 -275.8 L-292 -275.9 L-293.9 -275.9 L-295.9 -275.9 L-297.8 -275.9 L-299.8 -276 L-301.8 -276 L-303.7 -276 L-305.7 -276 L-307.7 -276.1 L-309.6 -276.1 L-311.6 -276.1 L-313.5 -276.1 L-315.5 -276.2 L-317.5 -276.2 L-319.4 -276.2 L-321.4 -276.2 L-323.3 -276.3 L-325.3 -276.3 L-325.3 -278.2 L-325.3 -280.2 L-325.2 -282.2 L-325.2 -284.1 L-325.2 -286.1 L-325.2 -288 L-325.1 -290 L-325.1 -292 L-325.1 -293.9 L-325.1 -295.9 L-325 -297.9 L-325 -299.8 L-325 -301.8 L-325 -303.7 L-324.9 -305.7 L-324.9 -307.7 L-324.9 -309.6 L-324.9 -311.6 L-324.8 -313.5 L-324.8 -315.5 L-324.8 -317.5 L-324.8 -319.4 L-324.7 -321.4 L-324.7 -323.4 L-324.7 -325.3 L-322.7 -325.3 L-320.8 -325.3 L-318.8 -325.2 L-316.8 -325.2 L-314.9 -325.2 L-312.9 -325.2 L-310.9 -325.1 L-309 -325.1 L-307 -325.1 L-305.1 -325.1 L-303.1 -325 L-301.1 -325 L-299.2 -325 L-297.2 -325 L-295.3 -324.9 L-293.3 -324.9 L-291.3 -324.9 L-289.4 -324.9 L-287.4 -324.8 L-285.4 -324.8 L-283.5 -324.8 L-281.5 -324.8 L-279.6 -324.7 L-277.6 -324.7 L-275.6 -324.7 L-275.7 -322.7 L-275.7 -320.8 L-275.7 -318.8 L-275.7 -316.8 L-275.8 -314.9 L-275.8 -312.9 L-275.8 -311 L-275.8 -309 L-275.9 -307 L-275.9 -305.1 L-275.9 -303.1 L-275.9 -301.1 L-276 -299.2 L-276 -297.2 L-276 -295.3 L-276 -293.3 L-276.1 -291.3 L-276.1 -289.4 L-276.1 -287.4 L-276.1 -285.5 L-276.2 -283.5 L-276.2 -281.5 L-276.2 -279.6 L-276.2 -277.6 L-276.3 -275.6 Z " />
</g>
</g>
</svg>
