<!DOCTYPE svg>
<svg xmlns="http://www.w3.org/2000/svg" xmlns:xlink="http://www.w3.org/1999/xlink" width="1000" height="1000">
<g transform="translate(500.000000,500.000000)">
<g transform="scale(3.000000,3.000000)">
<path stroke="rgb(0,0,0)" stroke-opacity="1" fill="rgb(255,255,255)" fill-opacity="1" d="M-475.8 -475.5 L-477.7 -475.6 L-479.7 -475.6 L-481.7 -475.6 L-483.7 -475.6 L-485.7 -475.6 L-487.7 -475.6 L-489.7 -475.6 L-491.7 -475.6 L-493.6 -475.6 L-495.6 -475.6 L-497.6 -475.6 L-499.6 -475.6 L-501.6 -475.7 L-503.6 -475.7 L-505.6 -475.7 L-507.5 -475.7 L-509.5 -475.7 L-511.5 -475.7 L-513.5 -475.7 L-515.5 -475.7 L-517.5 -475.7 L-519.5 -475.7 L-521.5 -475.7 L-523.4 -475.8 L-525.4 -475.8 L-525.4 -477.7 L-525.4 -479.7 L-525.4 -481.7 L-525.4 -483.7 L-525.4 -485.7 L-525.4 -487.7 L-525.4 -489.7 L-525.4 -491.7 L-525.4 -493.6 L-525.3 -495.6 L-525.3 -497.6 L-525.3 -499.6 L-525.3 -501.6 L-525.3 -503.6 L-525.3 -505.6 L-525.3 -507.6 L-525.3 -509.5 L-525.3 -511.5 L-525.3 -513.5 L-525.3 -515.5 L-525.3 -517.5 L-525.2 -519.5 L-525.2 -521.5 L-525.2 -523.4 L-525.2 -525.4 L-523.2 -525.4 L-521.2 -525.4 L-519.3 -525.4 L-517.3 -525.4 L-515.3 -525.4 L-513.3 -525.4 L-511.3 -525.4 L-509.3 -525.4 L-507.3 -525.4 L-505.3 -525.3 L-503.4 -525.3 L-501.4 -525.3 L-499.4 -525.3 L-497.4 -525.3 L-495.4 -525.3 L-493.4 -525.3 L-491.4 -525.3 L-489.5 -525.3 L-487.5 -525.3 L-485.5 -525.3 L-483.5 -525.3 L-481.5 -525.2 L-479.5 -525.2 L-477.5 -525.2 L-475.5 -525.2 L-475.6 -523.2 L-475.6 -521.2 L-475.6 -519.3 L-475.6 -517.3 L-475.6 -515.3 L-475.6 -513.3 L-475.6 -511.3 L-475.6 -509.3 L-475.6 -507.3 L-475.6 -505.4 L-475.6 -503.4 L-475.6 -501.4 L-475.7 -499.4 L-475.7 -497.4 L-475.7 -495.4 L-475.7 -493.4 L-475.7 -491.4 L-475.7 -489.5 L-475.7 -487.5 L-475.7 -485.5 L-475.7 -483.5 L-475.7 -481.5 L-475.7 -479.5 L-475.7 -477.5 L-475.8 -475.5 Z " />
<path stroke="rgb(0,0,0)" stroke-opacity="0.803" fill="rgb(255,255,255)" fill-opacity="1" d="M-175.1 -299.9 L-175.2 -297.9 L-175.4 -295.9 L-175.8 -294 L-176.4 -292.1 L-177.1 -290.3 L-177.9 -288.5 L-178.9 -286.8 L-180 -285.1 L-181.3 -283.6 L-182.6 -282.1 L-184.1 -280.8 L-185.7 -279.6 L-187.4 -278.5 L-189.1 -277.6 L-190.9 -276.8 L-192.8 -276.2 L-194.7 -275.7 L-196.7 -275.3 L-198.6 -275.1 L-200.6 -275.1 L-202.6 -275.2 L-204.5 -275.5 L-206.5 -276 L-208.4 -276.5 L-210.2 -277.3 L-212 -278.2 L-213.7 -279.2 L-215.3 -280.3 L-216.8 -281.6 L-218.2 -283 L-219.5 -284.5 L-220.7 -286.1 L-221.7 -287.8 L-222.6 -289.6 L-223.4 -291.4 L-224 -293.3 L-224.4 -295.2 L-224.7 -297.1 L-224.9 -299.1 L-224.9 -301.1 L-224.7 -303.1 L-224.4 -305 L-223.9 -306.9 L-223.3 -308.8 L-222.5 -310.6 L-221.6 -312.4 L-220.5 -314.1 L-219.4 -315.7 L-218 -317.2 L-216.6 -318.5 L-215.1 -319.8 L-213.5 -320.9 L-211.8 -321.9 L-210 -322.8 L-208.2 -323.5 L-206.3 -324.1 L-204.3 -324.5 L-202.4 -324.8 L-200.4 -324.9 L-198.4 -324.9 L-196.4 -324.6 L-194.5 -324.3 L-192.6 -323.8 L-190.7 -323.1 L-188.9 -322.3 L-187.2 -321.3 L-185.5 -320.3 L-184 -319 L-182.5 -317.7 L-181.1 -316.3 L-179.9 -314.7 L-178.8 -313.1 L-177.8 -311.3 L-177 -309.5 L-176.3 -307.7 L-175.8 -305.8 L-175.4 -303.8 L-175.2 -301.9 L-175.1 -299.9 Z " />
<path stroke="rgb(0,0,0)" stroke-opacity="1" fill="rgb(255,255,255)" fill-opacity="1" d="M-275.5 -476.3 L-277.4 -476.3 L-279.4 -476.2 L-281.4 -476.2 L-283.3 -476.2 L-285.3 -476.1 L-287.3 -476.1 L-289.2 -476.1 L-291.2 -476 L-293.2 -476 L-295.1 -476 L-297.1 -475.9 L-299.1 -475.9 L-301 -475.9 L-303 -475.8 L-305 -475.8 L-307 -475.8 L-308.9 -475.7 L-310.9 -475.7 L-312.9 -475.7 L-314.8 -475.6 L-316.8 -475.6 L-318.8 -475.6 L-320.7 -475.5 L-322.7 -475.5 L-324.7 -475.5 L-324.7 -477.4 L-324.7 -479.4 L-324.8 -481.4 L-324.8 -483.3 L-324.8 -485.3 L-324.9 -487.3 L-324.9 -489.2 L-324.9 -491.2 L-325 -493.2 L-325 -495.1 L-325 -497.1 L-325.1 -499.1 L-325.1 -501 L-325.1 -503 L-325.2 -505 L-325.2 -506.9 L-325.2 -508.9 L-325.3 -510.9 L-325.3 -512.8 L-325.3 -514.8 L-325.4 -516.8 L-325.4 -518.7 L-325.4 -520.7 L-325.5 -522.7 L-325.5 -524.7 L-323.5 -524.7 L-321.6 -524.7 L-319.6 -524.8 L-317.6 -524.8 L-315.7 -524.8 L-313.7 -524.9 L-311.7 -524.9 L-309.8 -524.9 L-307.8 -525 L-305.8 -525 L-303.9 -525 L-301.9 -525.1 L-299.9 -525.1 L-298 -525.1 L-296 -525.2 L-294 -525.2 L-292.1 -525.2 L-290.1 -525.3 L-288.1 -525.3 L-286.2 -525.3 L-284.2 -525.4 L-282.2 -525.4 L-280.3 -525.4 L-278.3 -525.5 L-276.3 -525.5 L-276.3 -523.5 L-276.3 -521.6 L-276.2 -519.6 L-276.2 -517.6 L-276.1 -515.7 L-276.1 -513.7 L-276.1 -511.7 L-276 -509.8 L-276 -507.8 L-276 -505.8 L-275.9 -503.9 L-275.9 -501.9 L-275.9 -499.9 L-275.8 -498 L-275.8 -496 L-275.8 -494 L-275.7 -492.1 L-275.7 -490.1 L-275.7 -488.1 L-275.6 -486.2 L-275.6 -484.2 L-275.6 -482.2 L-275.5 -480.2 L-275.5 -478.3 L-275.5 -476.3 Z " />
<path stroke="rgb(0,0,0)" stroke-opacity="0.803" fill="rgb(255,255,255)" fill-opacity="1" d="M24.9 -299.9 L24.81 -297.9 L24.57 -295.9 L24.17 -294 L23.62 -292.1 L22.92 -290.3 L22.07 -288.5 L21.08 -286.8 L19.96 -285.1 L18.72 -283.6 L17.35 -282.1 L15.88 -280.8 L14.31 -279.6 L12.64 -278.5 L10.9 -277.6 L9.085 -276.8 L7.214 -276.2 L5.298 -275.7 L3.348 -275.3 L1.377 -275.1 L-0.6025 -275.1 L-2.578 -275.2 L-4.538 -275.5 L-6.469 -276 L-8.359 -276.5 L-10.2 -277.3 L-11.97 -278.2 L-13.67 -279.2 L-15.28 -280.3 L-16.79 -281.6 L-18.2 -283 L-19.49 -284.5 L-20.66 -286.1 L-21.7 -287.8 L-22.6 -289.6 L-23.36 -291.4 L-23.97 -293.3 L-24.43 -295.2 L-24.73 -297.1 L-24.88 -299.1 L-24.87 -301.1 L-24.71 -303.1 L-24.39 -305 L-23.91 -306.9 L-23.28 -308.8 L-22.51 -310.6 L-21.59 -312.4 L-20.54 -314.1 L-19.35 -315.7 L-18.05 -317.2 L-16.63 -318.5 L-15.1 -319.8 L-13.48 -320.9 L-11.78 -321.9 L-9.997 -322.8 L-8.153 -323.5 L-6.258 -324.1 L-4.324 -324.5 L-2.362 -324.8 L-0.3851 -324.9 L1.594 -324.9 L3.563 -324.6 L5.51 -324.3 L7.422 -323.8 L9.287 -323.1 L11.09 -322.3 L12.83 -321.3 L14.48 -320.3 L16.05 -319 L17.51 -317.7 L18.86 -316.3 L20.09 -314.7 L21.2 -313.1 L22.17 -311.3 L23 -309.5 L23.69 -307.7 L24.22 -305.8 L24.6 -303.8 L24.83 -301.9 L24.9 -299.9 Z " />
<path stroke="rgb(0,0,0)" stroke-opacity="1" fill="rgb(255,255,255)" fill-opacity="1" d="M-73.6 -483.6 L-75.34 -483.2 L-77.09 -482.8 L-78.84 -482.4 L-80.58 -482 L-82.33 -481.6 L-84.08 -481.2 L-85.83 -480.8 L-87.57 -480.4 L-89.32 -480 L-91.07 -479.6 L-92.81 -479.2 L-94.56 -478.8 L-96.31 -478.4 L-98.05 -478 L-99.8 -477.6 L-101.5 -477.2 L-103.3 -476.7 L-105 -476.3 L-106.8 -475.9 L-108.5 -475.5 L-110.3 -475.1 L-112 -474.7 L-113.8 -474.3 L-115.5 -473.9 L-117.3 -473.5 L-117.7 -475.2 L-118.1 -477 L-118.5 -478.7 L-118.9 -480.5 L-119.3 -482.2 L-119.7 -484 L-120.1 -485.7 L-120.5 -487.5 L-120.9 -489.2 L-121.3 -491 L-121.7 -492.7 L-122.1 -494.5 L-122.5 -496.2 L-123 -498 L-123.4 -499.7 L-123.8 -501.4 L-124.2 -503.2 L-124.6 -504.9 L-125 -506.7 L-125.4 -508.4 L-125.8 -510.2 L-126.2 -511.9 L-126.6 -513.7 L-127 -515.4 L-127.4 -517.2 L-125.7 -517.6 L-123.9 -518 L-122.2 -518.4 L-120.4 -518.8 L-118.7 -519.2 L-116.9 -519.6 L-115.2 -520 L-113.4 -520.4 L-111.7 -520.8 L-110 -521.2 L-108.2 -521.6 L-106.5 -522 L-104.7 -522.4 L-103 -522.9 L-101.2 -523.3 L-99.47 -523.7 L-97.72 -524.1 L-95.98 -524.5 L-94.23 -524.9 L-92.48 -525.3 L-90.74 -525.7 L-88.99 -526.1 L-87.24 -526.5 L-85.5 -526.9 L-83.75 -527.3 L-83.34 -525.6 L-82.94 -523.8 L-82.53 -522.1 L-82.12 -520.3 L-81.72 -518.6 L-81.31 -516.8 L-80.91 -515.1 L-80.5 -513.3 L-80.09 -511.6 L-79.69 -509.9 L-79.28 -508.1 L-78.88 -506.4 L-78.47 -504.6 L-78.06 -502.9 L-77.66 -501.1 L-77.25 -499.4 L-76.84 -497.6 L-76.44 -495.9 L-76.03 -494.1 L-75.63 -492.4 L-75.22 -490.6 L-74.81 -488.9 L-74.41 -487.1 L-74 -485.4 L-73.6 -483.6 Z " />
<path stroke="rgb(0,0,0)" stroke-opacity="0.803" fill="rgb(255,255,255)" fill-opacity="1" d="M224.9 -299.9 L224.8 -297.9 L224.6 -295.9 L224.2 -294 L223.6 -292.1 L222.9 -290.3 L222.1 -288.5 L221.1 -286.8 L220 -285.1 L218.7 -283.6 L217.4 -282.1 L215.9 -280.8 L214.3 -279.6 L212.6 -278.5 L210.9 -277.6 L209.1 -276.8 L207.2 -276.2 L205.3 -275.7 L203.3 -275.3 L201.4 -275.1 L199.4 -275.1 L197.4 -275.2 L195.5 -275.5 L193.5 -276 L191.6 -276.5 L189.8 -277.3 L188 -278.2 L186.3 -279.2 L184.7 -280.3 L183.2 -281.6 L181.8 -283 L180.5 -284.5 L179.3 -286.1 L178.3 -287.8 L177.4 -289.6 L176.6 -291.4 L176 -293.3 L175.6 -295.2 L175.3 -297.1 L175.1 -299.1 L175.1 -301.1 L175.3 -303.1 L175.6 -305 L176.1 -306.9 L176.7 -308.8 L177.5 -310.6 L178.4 -312.4 L179.5 -314.1 L180.6 -315.7 L182 -317.2 L183.4 -318.5 L184.9 -319.8 L186.5 -320.9 L188.2 -321.9 L190 -322.8 L191.8 -323.5 L193.7 -324.1 L195.7 -324.5 L197.6 -324.8 L199.6 -324.9 L201.6 -324.9 L203.6 -324.6 L205.5 -324.3 L207.4 -323.8 L209.3 -323.1 L211.1 -322.3 L212.8 -321.3 L214.5 -320.3 L216 -319 L217.5 -317.7 L218.9 -316.3 L220.1 -314.7 L221.2 -313.1 L222.2 -311.3 L223 -309.5 L223.7 -307.7 L224.2 -305.8 L224.6 -303.8 L224.8 -301.9 L224.9 -299.9 Z " />
<path stroke="rgb(0,0,0)" stroke-opacity="1" fill="rgb(255,255,255)" fill-opacity="1" d="M123.6 -501.8 L122.7 -500.8 L121.8 -499.8 L120.9 -498.7 L120 -497.7 L119.1 -496.7 L118.2 -495.7 L117.3 -494.6 L116.4 -493.6 L115.5 -492.6 L114.6 -491.6 L113.7 -490.5 L112.8 -489.5 L111.9 -488.5 L111 -487.5 L110.1 -486.4 L109.2 -485.4 L108.3 -484.4 L107.4 -483.3 L106.5 -482.3 L105.6 -481.3 L104.7 -480.3 L103.8 -479.2 L102.9 -478.2 L102 -477.2 L101.1 -476.2 L100.1 -477.1 L99.04 -478 L98.02 -478.9 L96.99 -479.8 L95.97 -480.7 L94.94 -481.6 L93.92 -482.5 L92.89 -483.4 L91.87 -484.3 L90.84 -485.2 L89.82 -486.1 L88.79 -487 L87.77 -487.9 L86.74 -488.8 L85.72 -489.7 L84.69 -490.6 L83.67 -491.5 L82.64 -492.4 L81.62 -493.3 L80.59 -494.2 L79.56 -495.1 L78.54 -496 L77.51 -496.9 L76.49 -497.8 L75.46 -498.7 L76.36 -499.7 L77.26 -500.7 L78.16 -501.7 L79.06 -502.8 L79.96 -503.8 L80.86 -504.8 L81.76 -505.8 L82.66 -506.9 L83.56 -507.9 L84.46 -508.9 L85.36 -509.9 L86.25 -511 L87.15 -512 L88.05 -513 L88.95 -514 L89.85 -515.1 L90.75 -516.1 L91.65 -517.1 L92.55 -518.1 L93.45 -519.2 L94.35 -520.2 L95.25 -521.2 L96.15 -522.2 L97.04 -523.3 L97.94 -524.3 L98.97 -523.4 L99.99 -522.5 L101 -521.6 L102 -520.7 L103.1 -519.8 L104.1 -518.9 L105.1 -518 L106.1 -517.1 L107.2 -516.2 L108.2 -515.3 L109.2 -514.4 L110.2 -513.5 L111.3 -512.6 L112.3 -511.7 L113.3 -510.8 L114.3 -509.9 L115.4 -509 L116.4 -508.1 L117.4 -507.2 L118.4 -506.3 L119.5 -505.4 L120.5 -504.5 L121.5 -503.6 L122.5 -502.7 L123.6 -501.8 Z " />
<path stroke="rgb(0,0,0)" stroke-opacity="0.803" fill="rgb(255,255,255)" fill-opacity="1" d="M-275.1 -199.9 L-275.2 -197.9 L-275.4 -195.9 L-275.8 -194 L-276.4 -192.1 L-277.1 -190.3 L-277.9 -188.5 L-278.9 -186.8 L-280 -185.1 L-281.3 -183.6 L-282.6 -182.1 L-284.1 -180.8 L-285.7 -179.6 L-287.4 -178.5 L-289.1 -177.6 L-290.9 -176.8 L-292.8 -176.2 L-294.7 -175.7 L-296.7 -175.3 L-298.6 -175.1 L-300.6 -175.1 L-302.6 -175.2 L-304.5 -175.5 L-306.5 -176 L-308.4 -176.5 L-310.2 -177.3 L-312 -178.2 L-313.7 -179.2 L-315.3 -180.3 L-316.8 -181.6 L-318.2 -183 L-319.5 -184.5 L-320.7 -186.1 L-321.7 -187.8 L-322.6 -189.6 L-323.4 -191.4 L-324 -193.3 L-324.4 -195.2 L-324.7 -197.1 L-324.9 -199.1 L-324.9 -201.1 L-324.7 -203.1 L-324.4 -205 L-323.9 -206.9 L-323.3 -208.8 L-322.5 -210.6 L-321.6 -212.4 L-320.5 -214.1 L-319.4 -215.7 L-318 -217.2 L-316.6 -218.5 L-315.1 -219.8 L-313.5 -220.9 L-311.8 -221.9 L-310 -222.8 L-308.2 -223.5 L-306.3 -224.1 L-304.3 -224.5 L-302.4 -224.8 L-300.4 -224.9 L-298.4 -224.9 L-296.4 -224.6 L-294.5 -224.3 L-292.6 -223.8 L-290.7 -223.1 L-288.9 -222.3 L-287.2 -221.3 L-285.5 -220.3 L-284 -219 L-282.5 -217.7 L-281.1 -216.3 L-279.9 -214.7 L-278.8 -213.1 L-277.8 -211.3 L-277 -209.5 L-276.3 -207.7 L-275.8 -205.8 L-275.4 -203.8 L-275.2 -201.9 L-275.1 -199.9 Z " />
<path stroke="rgb(0,0,0)" stroke-opacity="1" fill="rgb(255,255,255)" fill-opacity="1" d="M-375.5 -376.3 L-377.4 -376.3 L-379.4 -376.2 L-381.4 -376.2 L-383.3 -376.2 L-385.3 -376.1 L-387.3 -376.1 L-389.2 -376.1 L-391.2 -376 L-393.2 -376 L-395.1 -376 L-397.1 -375.9 L-399.1 -375.9 L-401 -375.9 L-403 -375.8 L-405 -375.8 L-407 -375.8 L-408.9 -375.7 L-410.9 -375.7 L-412.9 -375.7 L-414.8 -375.6 L-416.8 -375.6 L-418.8 -375.6 L-420.7 -375.5 L-422.7 -375.5 L-424.7 -375.5 L-424.7 -377.4 L-424.7 -379.4 L-424.8 -381.4 L-424.8 -383.3 L-424.8 -385.3 L-424.9 -387.3 L-424.9 -389.2 L-424.9 -391.2 L-425 -393.2 L-425 -395.1 L-425 -397.1 L-425.1 -399.1 L-425.1 -401 L-425.1 -403 L-425.2 -405 L-425.2 -406.9 L-425.2 -408.9 L-425.3 -410.9 L-425.3 -412.8 L-425.3 -414.8 L-425.4 -416.8 L-425.4 -418.7 L-425.4 -420.7 L-425.5 -422.7 L-425.5 -424.7 L-423.5 -424.7 L-421.6 -424.7 L-419.6 -424.8 L-417.6 -424.8 L-415.7 -424.8 L-413.7 -424.9 L-411.7 -424.9 L-409.8 -424.9 L-407.8 -425 L-405.8 -425 L-403.9 -425 L-401.9 -425.1 L-399.9 -425.1 L-398 -425.1 L-396 -425.2 L-394 -425.2 L-392.1 -425.2 L-390.1 -425.3 L-388.1 -425.3 L-386.2 -425.3 L-384.2 -425.4 L-382.2 -425.4 L-380.3 -425.4 L-378.3 -425.5 L-376.3 -425.5 L-376.3 -423.5 L-376.3 -421.6 L-376.2 -419.6 L-376.2 -417.6 L-376.1 -415.7 L-376.1 -413.7 L-376.1 -411.7 L-376 -409.8 L-376 -407.8 L-376 -405.8 L-375.9 -403.9 L-375.9 -401.9 L-375.9 -399.9 L-375.8 -398 L-375.8 -396 L-375.8 -394 L-375.7 -392.1 L-375.7 -390.1 L-375.7 -388.1 L-375.6 -386.2 L-375.6 -384.2 L-375.6 -382.2 L-375.5 -380.2 L-375.5 -378.3 L-375.5 -376.3 Z " />
<path stroke="rgb(0,0,0)" stroke-opacity="0.803" fill="rgb(255,255,255)" fill-opacity="1" d="M-75.1 -199.9 L-75.19 -197.9 L-75.43 -195.9 L-75.83 -194 L-76.38 -192.1 L-77.08 -190.3 L-77.93 -188.5 L-78.92 -186.8 L-80.04 -185.1 L-81.28 -183.6 L-82.65 -182.1 L-84.12 -180.8 L-85.69 -179.6 L-87.36 -178.5 L-89.1 -177.6 L-90.92 -176.8 L-92.79 -176.2 L-94.7 -175.7 L-96.65 -175.3 L-98.62 -175.1 L-100.6 -175.1 L-102.6 -175.2 L-104.5 -175.5 L-106.5 -176 L-108.4 -176.5 L-110.2 -177.3 L-112 -178.2 L-113.7 -179.2 L-115.3 -180.3 L-116.8 -181.6 L-118.2 -183 L-119.5 -184.5 L-120.7 -186.1 L-121.7 -187.8 L-122.6 -189.6 L-123.4 -191.4 L-124 -193.3 L-124.4 -195.2 L-124.7 -197.1 L-124.9 -199.1 L-124.9 -201.1 L-124.7 -203.1 L-124.4 -205 L-123.9 -206.9 L-123.3 -208.8 L-122.5 -210.6 L-121.6 -212.4 L-120.5 -214.1 L-119.4 -215.7 L-118 -217.2 L-116.6 -218.5 L-115.1 -219.8 L-113.5 -220.9 L-111.8 -221.9 L-110 -222.8 L-108.2 -223.5 L-106.3 -224.1 L-104.3 -224.5 L-102.4 -224.8 L-100.4 -224.9 L-98.41 -224.9 L-96.44 -224.6 L-94.49 -224.3 L-92.58 -223.8 L-90.71 -223.1 L-88.91 -222.3 L-87.17 -221.3 L-85.52 -220.3 L-83.95 -219 L-82.49 -217.7 L-81.14 -216.3 L-79.91 -214.7 L-78.8 -213.1 L-77.83 -211.3 L-77 -209.5 L-76.31 -207.7 L-75.78 -205.8 L-75.4 -203.8 L-75.17 -201.9 L-75.1 -199.9 Z " />
<path stroke="rgb(0,0,0)" stroke-opacity="1" fill="rgb(255,255,255)" fill-opacity="1" d="M-173.6 -383.6 L-175.3 -383.2 L-177.1 -382.8 L-178.8 -382.4 L-180.6 -382 L-182.3 -381.6 L-184.1 -381.2 L-185.8 -380.8 L-187.6 -380.4 L-189.3 -380 L-191.1 -379.6 L-192.8 -379.2 L-194.6 -378.8 L-196.3 -378.4 L-198.1 -378 L-199.8 -377.6 L-201.5 -377.2 L-203.3 -376.7 L-205 -376.3 L-206.8 -375.9 L-208.5 -375.5 L-210.3 -375.1 L-212 -374.7 L-213.8 -374.3 L-215.5 -373.9 L-217.3 -373.5 L-217.7 -375.2 L-218.1 -377 L-218.5 -378.7 L-218.9 -380.5 L-219.3 -382.2 L-219.7 -384 L-220.1 -385.7 L-220.5 -387.5 L-220.9 -389.2 L-221.3 -391 L-221.7 -392.7 L-222.1 -394.5 L-222.5 -396.2 L-223 -398 L-223.4 -399.7 L-223.8 -401.4 L-224.2 -403.2 L-224.6 -404.9 L-225 -406.7 L-225.4 -408.4 L-225.8 -410.2 L-226.2 -411.9 L-226.6 -413.7 L-227 -415.4 L-227.4 -417.2 L-225.7 -417.6 L-223.9 -418 L-222.2 -418.4 L-220.4 -418.8 L-218.7 -419.2 L-216.9 -419.6 L-215.2 -420 L-213.4 -420.4 L-211.7 -420.8 L-210 -421.2 L-208.2 -421.6 L-206.5 -422 L-204.7 -422.4 L-203 -422.9 L-201.2 -423.3 L-199.5 -423.7 L-197.7 -424.1 L-196 -424.5 L-194.2 -424.9 L-192.5 -425.3 L-190.7 -425.7 L-189 -426.1 L-187.2 -426.5 L-185.5 -426.9 L-183.7 -427.3 L-183.3 -425.6 L-182.9 -423.8 L-182.5 -422.1 L-182.1 -420.3 L-181.7 -418.6 L-181.3 -416.8 L-180.9 -415.1 L-180.5 -413.3 L-180.1 -411.6 L-179.7 -409.9 L-179.3 -408.1 L-178.9 -406.4 L-178.5 -404.6 L-178.1 -402.9 L-177.7 -401.1 L-177.3 -399.4 L-176.8 -397.6 L-176.4 -395.9 L-176 -394.1 L-175.6 -392.4 L-175.2 -390.6 L-174.8 -388.9 L-174.4 -387.1 L-174 -385.4 L-173.6 -383.6 Z " />
<path stroke="rgb(0,0,0)" stroke-opacity="0.803" fill="rgb(255,255,255)" fill-opacity="1" d="M124.9 -199.9 L124.8 -197.9 L124.6 -195.9 L124.2 -194 L123.6 -192.1 L122.9 -190.3 L122.1 -188.5 L121.1 -186.8 L120 -185.1 L118.7 -183.6 L117.4 -182.1 L115.9 -180.8 L114.3 -179.6 L112.6 -178.5 L110.9 -177.6 L109.1 -176.8 L107.2 -176.2 L105.3 -175.7 L103.3 -175.3 L101.4 -175.1 L99.4 -175.1 L97.42 -175.2 L95.46 -175.5 L93.53 -176 L91.64 -176.5 L89.8 -177.3 L88.03 -178.2 L86.33 -179.2 L84.72 -180.3 L83.21 -181.6 L81.8 -183 L80.51 -184.5 L79.34 -186.1 L78.3 -187.8 L77.4 -189.6 L76.64 -191.4 L76.03 -193.3 L75.57 -195.2 L75.27 -197.1 L75.12 -199.1 L75.13 -201.1 L75.29 -203.1 L75.61 -205 L76.09 -206.9 L76.72 -208.8 L77.49 -210.6 L78.41 -212.4 L79.46 -214.1 L80.65 -215.7 L81.95 -217.2 L83.37 -218.5 L84.9 -219.8 L86.52 -220.9 L88.22 -221.9 L90 -222.8 L91.85 -223.5 L93.74 -224.1 L95.68 -224.5 L97.64 -224.8 L99.61 -224.9 L101.6 -224.9 L103.6 -224.6 L105.5 -224.3 L107.4 -223.8 L109.3 -223.1 L111.1 -222.3 L112.8 -221.3 L114.5 -220.3 L116 -219 L117.5 -217.7 L118.9 -216.3 L120.1 -214.7 L121.2 -213.1 L122.2 -211.3 L123 -209.5 L123.7 -207.7 L124.2 -205.8 L124.6 -203.8 L124.8 -201.9 L124.9 -199.9 Z " />
<path stroke="rgb(0,0,0)" stroke-opacity="1" fill="rgb(255,255,255)" fill-opacity="1" d="M23.57 -401.8 L22.67 -400.8 L21.77 -399.8 L20.88 -398.7 L19.98 -397.7 L19.08 -396.7 L18.18 -395.7 L17.28 -394.6 L16.38 -393.6 L15.48 -392.6 L14.58 -391.6 L13.68 -390.5 L12.78 -389.5 L11.88 -388.5 L10.98 -387.5 L10.09 -386.4 L9.186 -385.4 L8.287 -384.4 L7.388 -383.3 L6.489 -382.3 L5.589 -381.3 L4.69 -380.3 L3.791 -379.2 L2.892 -378.2 L1.993 -377.2 L1.094 -376.2 L0.06836 -377.1 L-0.9568 -378 L-1.982 -378.9 L-3.007 -379.8 L-4.032 -380.7 L-5.057 -381.6 L-6.083 -382.5 L-7.108 -383.4 L-8.133 -384.3 L-9.158 -385.2 L-10.18 -386.1 L-11.21 -387 L-12.23 -387.9 L-13.26 -388.8 L-14.28 -389.7 L-15.31 -390.6 L-16.33 -391.5 L-17.36 -392.4 L-18.38 -393.3 L-19.41 -394.2 L-20.44 -395.1 L-21.46 -396 L-22.49 -396.9 L-23.51 -397.8 L-24.54 -398.7 L-23.64 -399.7 L-22.74 -400.7 L-21.84 -401.7 L-20.94 -402.8 L-20.04 -403.8 L-19.14 -404.8 L-18.24 -405.8 L-17.34 -406.9 L-16.44 -407.9 L-15.54 -408.9 L-14.64 -409.9 L-13.75 -411 L-12.85 -412 L-11.95 -413 L-11.05 -414 L-10.15 -415.1 L-9.25 -416.1 L-8.351 -417.1 L-7.451 -418.1 L-6.552 -419.2 L-5.653 -420.2 L-4.754 -421.2 L-3.855 -422.2 L-2.955 -423.3 L-2.056 -424.3 L-1.031 -423.4 L-0.005928 -422.5 L1.019 -421.6 L2.044 -420.7 L3.07 -419.8 L4.095 -418.9 L5.12 -418 L6.145 -417.1 L7.17 -416.2 L8.195 -415.3 L9.221 -414.4 L10.25 -413.5 L11.27 -412.6 L12.3 -411.7 L13.32 -410.8 L14.35 -409.9 L15.37 -409 L16.4 -408.1 L17.42 -407.2 L18.45 -406.3 L19.47 -405.4 L20.5 -404.5 L21.52 -403.6 L22.55 -402.7 L23.57 -401.8 Z " />
<path stroke="rgb(0,0,0)" stroke-opacity="0.803" fill="rgb(255,255,255)" fill-opacity="1" d="M324.9 -199.9 L324.8 -197.9 L324.6 -195.9 L324.2 -194 L323.6 -192.1 L322.9 -190.3 L322.1 -188.5 L321.1 -186.8 L320 -185.1 L318.7 -183.6 L317.4 -182.1 L315.9 -180.8 L314.3 -179.6 L312.6 -178.5 L310.9 -177.6 L309.1 -176.8 L307.2 -176.2 L305.3 -175.7 L303.3 -175.3 L301.4 -175.1 L299.4 -175.1 L297.4 -175.2 L295.5 -175.5 L293.5 -176 L291.6 -176.5 L289.8 -177.3 L288 -178.2 L286.3 -179.2 L284.7 -180.3 L283.2 -181.6 L281.8 -183 L280.5 -184.5 L279.3 -186.1 L278.3 -187.8 L277.4 -189.6 L276.6 -191.4 L276 -193.3 L275.6 -195.2 L275.3 -197.1 L275.1 -199.1 L275.1 -201.1 L275.3 -203.1 L275.6 -205 L276.1 -206.9 L276.7 -208.8 L277.5 -210.6 L278.4 -212.4 L279.5 -214.1 L280.6 -215.7 L282 -217.2 L283.4 -218.5 L284.9 -219.8 L286.5 -220.9 L288.2 -221.9 L290 -222.8 L291.8 -223.5 L293.7 -224.1 L295.7 -224.5 L297.6 -224.8 L299.6 -224.9 L301.6 -224.9 L303.6 -224.6 L305.5 -224.3 L307.4 -223.8 L309.3 -223.1 L311.1 -222.3 L312.8 -221.3 L314.5 -220.3 L316 -219 L317.5 -217.7 L318.9 -216.3 L320.1 -214.7 L321.2 -213.1 L322.2 -211.3 L323 -209.5 L323.7 -207.7 L324.2 -205.8 L324.6 -203.8 L324.8 -201.9 L324.9 -199.9 Z " />
<path stroke="rgb(0,0,0)" stroke-opacity="1" fill="rgb(255,255,255)" fill-opacity="1" d="M-475.5 -276.3 L-477.4 -276.3 L-479.4 -276.2 L-481.4 -276.2 L-483.3 -276.2 L-485.3 -276.1 L-487.3 -276.1 L-489.2 -276.1 L-491.2 -276 L-493.2 -276 L-495.1 -276 L-497.1 -275.9 L-499.1 -275.9 L-501 -275.9 L-503 -275.8 L-505 -275.8 L-507 -275.8 L-508.9 -275.7 L-510.9 -275.7 L-512.9 -275.7 L-514.8 -275.6 L-516.8 -275.6 L-518.8 -275.6 L-520.7 -275.5 L-522.7 -275.5 L-524.7 -275.5 L-524.7 -277.4 L-524.7 -279.4 L-524.8 -281.4 L-524.8 -283.3 L-524.8 -285.3 L-524.9 -287.3 L-524.9 -289.2 L-524.9 -291.2 L-525 -293.2 L-525 -295.1 L-525 -297.1 L-525.1 -299.1 L-525.1 -301 L-525.1 -303 L-525.2 -305 L-525.2 -306.9 L-525.2 -308.9 L-525.3 -310.9 L-525.3 -312.8 L-525.3 -314.8 L-525.4 -316.8 L-525.4 -318.7 L-525.4 -320.7 L-525.5 -322.7 L-525.5 -324.7 L-523.5 -324.7 L-521.6 -324.7 L-519.6 -324.8 L-517.6 -324.8 L-515.7 -324.8 L-513.7 -324.9 L-511.7 -324.9 L-509.8 -324.9 L-507.8 -325 L-505.8 -325 L-503.9 -325 L-501.9 -325.1 L-499.9 -325.1 L-498 -325.1 L-496 -325.2 L-494 -325.2 L-492.1 -325.2 L-490.1 -325.3 L-488.1 -325.3 L-486.2 -325.3 L-484.2 -325.4 L-482.2 -325.4 L-480.3 -325.4 L-478.3 -325.5 L-476.3 -325.5 L-476.3 -323.5 L-476.3 -321.6 L-476.2 -319.6 L-476.2 -317.6 L-476.1 -315.7 L-476.1 -313.7 L-476.1 -311.7 L-476 -309.8 L-476 -307.8 L-476 -305.8 L-475.9 -303.9 L-475.9 -301.9 L-475.9 -299.9 L-475.8 -298 L-475.8 -296 L-475.8 -294 L-475.7 -292.1 L-475.7 -290.1 L-475.7 -288.1 L-475.6 -286.2 L-475.6 -284.2 L-475.6 -282.2 L-475.5 -280.2 L-475.5 -278.3 L-475.5 -276.3 Z " />
<path stroke="rgb(0,0,0)" stroke-opacity="0.803" fill="rgb(255,255,255)" fill-opacity="1" d="M-175.1 -99.89 L-175.2 -97.91 L-175.4 -95.95 L-175.8 -94.01 L-176.4 -92.11 L-177.1 -90.26 L-177.9 -88.47 L-178.9 -86.75 L-180 -85.12 L-181.3 -83.58 L-182.6 -82.14 L-184.1 -80.82 L-185.7 -79.62 L-187.4 -78.55 L-189.1 -77.61 L-190.9 -76.82 L-192.8 -76.17 L-194.7 -75.67 L-196.7 -75.33 L-198.6 -75.14 L-200.6 -75.11 L-202.6 -75.24 L-204.5 -75.52 L-206.5 -75.96 L-208.4 -76.55 L-210.2 -77.28 L-212 -78.17 L-213.7 -79.19 L-215.3 -80.34 L-216.8 -81.61 L-218.2 -83.01 L-219.5 -84.51 L-220.7 -86.1 L-221.7 -87.79 L-222.6 -89.55 L-223.4 -91.38 L-224 -93.26 L-224.4 -95.19 L-224.7 -97.15 L-224.9 -99.12 L-224.9 -101.1 L-224.7 -103.1 L-224.4 -105 L-223.9 -106.9 L-223.3 -108.8 L-222.5 -110.6 L-221.6 -112.4 L-220.5 -114.1 L-219.4 -115.7 L-218 -117.2 L-216.6 -118.5 L-215.1 -119.8 L-213.5 -120.9 L-211.8 -121.9 L-210 -122.8 L-208.2 -123.5 L-206.3 -124.1 L-204.3 -124.5 L-202.4 -124.8 L-200.4 -124.9 L-198.4 -124.9 L-196.4 -124.6 L-194.5 -124.3 L-192.6 -123.8 L-190.7 -123.1 L-188.9 -122.3 L-187.2 -121.3 L-185.5 -120.3 L-184 -119 L-182.5 -117.7 L-181.1 -116.3 L-179.9 -114.7 L-178.8 -113.1 L-177.8 -111.3 L-177 -109.5 L-176.3 -107.7 L-175.8 -105.8 L-175.4 -103.8 L-175.2 -101.9 L-175.1 -99.89 Z " />
<path stroke="rgb(0,0,0)" stroke-opacity="1" fill="rgb(255,255,255)" fill-opacity="1" d="M-273.6 -283.6 L-275.3 -283.2 L-277.1 -282.8 L-278.8 -282.4 L-280.6 -282 L-282.3 -281.6 L-284.1 -281.2 L-285.8 -280.8 L-287.6 -280.4 L-289.3 -280 L-291.1 -279.6 L-292.8 -279.2 L-294.6 -278.8 L-296.3 -278.4 L-298.1 -278 L-299.8 -277.6 L-301.5 -277.2 L-303.3 -276.7 L-305 -276.3 L-306.8 -275.9 L-308.5 -275.5 L-310.3 -275.1 L-312 -274.7 L-313.8 -274.3 L-315.5 -273.9 L-317.3 -273.5 L-317.7 -275.2 L-318.1 -277 L-318.5 -278.7 L-318.9 -280.5 L-319.3 -282.2 L-319.7 -284 L-320.1 -285.7 L-320.5 -287.5 L-320.9 -289.2 L-321.3 -291 L-321.7 -292.7 L-322.1 -294.5 L-322.5 -296.2 L-323 -298 L-323.4 -299.7 L-323.8 -301.4 L-324.2 -303.2 L-324.6 -304.9 L-325 -306.7 L-325.4 -308.4 L-325.8 -310.2 L-326.2 -311.9 L-326.6 -313.7 L-327 -315.4 L-327.4 -317.2 L-325.7 -317.6 L-323.9 -318 L-322.2 -318.4 L-320.4 -318.8 L-318.7 -319.2 L-316.9 -319.6 L-315.2 -320 L-313.4 -320.4 L-311.7 -320.8 L-310 -321.2 L-308.2 -321.6 L-306.5 -322 L-304.7 -322.4 L-303 -322.9 L-301.2 -323.3 L-299.5 -323.7 L-297.7 -324.1 L-296 -324.5 L-294.2 -324.9 L-292.5 -325.3 L-290.7 -325.7 L-289 -326.1 L-287.2 -326.5 L-285.5 -326.9 L-283.7 -327.3 L-283.3 -325.6 L-282.9 -323.8 L-282.5 -322.1 L-282.1 -320.3 L-281.7 -318.6 L-281.3 -316.8 L-280.9 -315.1 L-280.5 -313.3 L-280.1 -311.6 L-279.7 -309.9 L-279.3 -308.1 L-278.9 -306.4 L-278.5 -304.6 L-278.1 -302.9 L-277.7 -301.1 L-277.3 -299.4 L-276.8 -297.6 L-276.4 -295.9 L-276 -294.1 L-275.6 -292.4 L-275.2 -290.6 L-274.8 -288.9 L-274.4 -287.1 L-274 -285.4 L-273.6 -283.6 Z " />
<path stroke="rgb(0,0,0)" stroke-opacity="0.803" fill="rgb(255,255,255)" fill-opacity="1" d="M24.9 -99.89 L24.81 -97.91 L24.57 -95.95 L24.17 -94.01 L23.62 -92.11 L22.92 -90.26 L22.07 -88.47 L21.08 -86.75 L19.96 -85.12 L18.72 -83.58 L17.35 -82.14 L15.88 -80.82 L14.31 -79.62 L12.64 -78.55 L10.9 -77.61 L9.085 -76.82 L7.214 -76.17 L5.298 -75.67 L3.348 -75.33 L1.377 -75.14 L-0.6025 -75.11 L-2.578 -75.24 L-4.538 -75.52 L-6.469 -75.96 L-8.359 -76.55 L-10.2 -77.28 L-11.97 -78.17 L-13.67 -79.19 L-15.28 -80.34 L-16.79 -81.61 L-18.2 -83.01 L-19.49 -84.51 L-20.66 -86.1 L-21.7 -87.79 L-22.6 -89.55 L-23.36 -91.38 L-23.97 -93.26 L-24.43 -95.19 L-24.73 -97.15 L-24.88 -99.12 L-24.87 -101.1 L-24.71 -103.1 L-24.39 -105 L-23.91 -106.9 L-23.28 -108.8 L-22.51 -110.6 L-21.59 -112.4 L-20.54 -114.1 L-19.35 -115.7 L-18.05 -117.2 L-16.63 -118.5 L-15.1 -119.8 L-13.48 -120.9 L-11.78 -121.9 L-9.997 -122.8 L-8.153 -123.5 L-6.258 -124.1 L-4.324 -124.5 L-2.362 -124.8 L-0.3851 -124.9 L1.594 -124.9 L3.563 -124.6 L5.51 -124.3 L7.422 -123.8 L9.287 -123.1 L11.09 -122.3 L12.83 -121.3 L14.48 -120.3 L16.05 -119 L17.51 -117.7 L18.86 -116.3 L20.09 -114.7 L21.2 -113.1 L22.17 -111.3 L23 -109.5 L23.69 -107.7 L24.22 -105.8 L24.6 -103.8 L24.83 -101.9 L24.9 -99.89 Z " />
<path stroke="rgb(0,0,0)" stroke-opacity="1" fill="rgb(255,255,255)" fill-opacity="1" d="M-76.43 -301.8 L-77.33 -300.8 L-78.23 -299.8 L-79.12 -298.7 L-80.02 -297.7 L-80.92 -296.7 L-81.82 -295.7 L-82.72 -294.6 L-83.62 -293.6 L-84.52 -292.6 L-85.42 -291.6 L-86.32 -290.5 L-87.22 -289.5 L-88.12 -288.5 L-89.02 -287.5 L-89.91 -286.4 L-90.81 -285.4 L-91.71 -284.4 L-92.61 -283.3 L-93.51 -282.3 L-94.41 -281.3 L-95.31 -280.3 L-96.21 -279.2 L-97.11 -278.2 L-98.01 -277.2 L-98.91 -276.2 L-99.93 -277.1 L-101 -278 L-102 -278.9 L-103 -279.8 L-104 -280.7 L-105.1 -281.6 L-106.1 -282.5 L-107.1 -283.4 L-108.1 -284.3 L-109.2 -285.2 L-110.2 -286.1 L-111.2 -287 L-112.2 -287.9 L-113.3 -288.8 L-114.3 -289.7 L-115.3 -290.6 L-116.3 -291.5 L-117.4 -292.4 L-118.4 -293.3 L-119.4 -294.2 L-120.4 -295.1 L-121.5 -296 L-122.5 -296.9 L-123.5 -297.8 L-124.5 -298.7 L-123.6 -299.7 L-122.7 -300.7 L-121.8 -301.7 L-120.9 -302.8 L-120 -303.8 L-119.1 -304.8 L-118.2 -305.8 L-117.3 -306.9 L-116.4 -307.9 L-115.5 -308.9 L-114.6 -309.9 L-113.7 -311 L-112.8 -312 L-111.9 -313 L-111 -314 L-110.1 -315.1 L-109.2 -316.1 L-108.4 -317.1 L-107.5 -318.1 L-106.6 -319.2 L-105.7 -320.2 L-104.8 -321.2 L-103.9 -322.2 L-103 -323.3 L-102.1 -324.3 L-101 -323.4 L-100 -322.5 L-98.98 -321.6 L-97.96 -320.7 L-96.93 -319.8 L-95.91 -318.9 L-94.88 -318 L-93.85 -317.1 L-92.83 -316.2 L-91.8 -315.3 L-90.78 -314.4 L-89.75 -313.5 L-88.73 -312.6 L-87.7 -311.7 L-86.68 -310.8 L-85.65 -309.9 L-84.63 -309 L-83.6 -308.1 L-82.58 -307.2 L-81.55 -306.3 L-80.53 -305.4 L-79.5 -304.5 L-78.48 -303.6 L-77.45 -302.7 L-76.43 -301.8 Z " />
<path stroke="rgb(0,0,0)" stroke-opacity="0.803" fill="rgb(255,255,255)" fill-opacity="1" d="M224.9 -99.89 L224.8 -97.91 L224.6 -95.95 L224.2 -94.01 L223.6 -92.11 L222.9 -90.26 L222.1 -88.47 L221.1 -86.75 L220 -85.12 L218.7 -83.58 L217.4 -82.14 L215.9 -80.82 L214.3 -79.62 L212.6 -78.55 L210.9 -77.61 L209.1 -76.82 L207.2 -76.17 L205.3 -75.67 L203.3 -75.33 L201.4 -75.14 L199.4 -75.11 L197.4 -75.24 L195.5 -75.52 L193.5 -75.96 L191.6 -76.55 L189.8 -77.28 L188 -78.17 L186.3 -79.19 L184.7 -80.34 L183.2 -81.61 L181.8 -83.01 L180.5 -84.51 L179.3 -86.1 L178.3 -87.79 L177.4 -89.55 L176.6 -91.38 L176 -93.26 L175.6 -95.19 L175.3 -97.15 L175.1 -99.12 L175.1 -101.1 L175.3 -103.1 L175.6 -105 L176.1 -106.9 L176.7 -108.8 L177.5 -110.6 L178.4 -112.4 L179.5 -114.1 L180.6 -115.7 L182 -117.2 L183.4 -118.5 L184.9 -119.8 L186.5 -120.9 L188.2 -121.9 L190 -122.8 L191.8 -123.5 L193.7 -124.1 L195.7 -124.5 L197.6 -124.8 L199.6 -124.9 L201.6 -124.9 L203.6 -124.6 L205.5 -124.3 L207.4 -123.8 L209.3 -123.1 L211.1 -122.3 L212.8 -121.3 L214.5 -120.3 L216 -119 L217.5 -117.7 L218.9 -116.3 L220.1 -114.7 L221.2 -113.1 L222.2 -111.3 L223 -109.5 L223.7 -107.7 L224.2 -105.8 L224.6 -103.8 L224.8 -101.9 L224.9 -99.89 Z " />
<path stroke="rgb(0,0,0)" stroke-opacity="1" fill="rgb(255,255,255)" fill-opacity="1" d="M115.2 -311 L115 -309.9 L114.8 -308.9 L114.6 -307.8 L114.4 -306.7 L114.2 -305.7 L114.1 -304.6 L113.9 -303.6 L113.7 -302.5 L113.5 -301.5 L113.3 -300.4 L113.1 -299.3 L112.9 -298.3 L112.7 -297.2 L112.5 -296.2 L112.3 -295.1 L112.2 -294.1 L112 -293 L111.8 -291.9 L111.6 -290.9 L111.4 -289.8 L111.2 -288.8 L111 -287.7 L110.8 -286.7 L110.6 -285.6 L110.4 -284.5 L109.4 -284.7 L108.3 -284.9 L107.3 -285.1 L106.2 -285.3 L105.1 -285.5 L104.1 -285.7 L103 -285.9 L102 -286.1 L100.9 -286.3 L99.86 -286.4 L98.81 -286.6 L97.75 -286.8 L96.69 -287 L95.63 -287.2 L94.58 -287.4 L93.52 -287.6 L92.46 -287.8 L91.41 -288 L90.35 -288.2 L89.29 -288.3 L88.23 -288.5 L87.18 -288.7 L86.12 -288.9 L85.06 -289.1 L84 -289.3 L84.2 -290.4 L84.39 -291.4 L84.58 -292.5 L84.77 -293.5 L84.96 -294.6 L85.15 -295.6 L85.34 -296.7 L85.53 -297.8 L85.72 -298.8 L85.91 -299.9 L86.1 -300.9 L86.29 -302 L86.48 -303 L86.67 -304.1 L86.86 -305.2 L87.05 -306.2 L87.24 -307.3 L87.44 -308.3 L87.63 -309.4 L87.82 -310.4 L88.01 -311.5 L88.2 -312.6 L88.39 -313.6 L88.58 -314.7 L88.77 -315.7 L89.83 -315.5 L90.88 -315.4 L91.94 -315.2 L93 -315 L94.06 -314.8 L95.11 -314.6 L96.17 -314.4 L97.23 -314.2 L98.28 -314 L99.34 -313.8 L100.4 -313.6 L101.5 -313.4 L102.5 -313.3 L103.6 -313.1 L104.6 -312.9 L105.7 -312.7 L106.7 -312.5 L107.8 -312.3 L108.9 -312.1 L109.9 -311.9 L111 -311.7 L112 -311.5 L113.1 -311.4 L114.1 -311.2 L115.2 -311 Z " />
<path stroke="rgb(0,0,0)" stroke-opacity="0.803" fill="rgb(255,255,255)" fill-opacity="1" d="M-275.1 0.1074 L-275.2 2.085 L-275.4 4.05 L-275.8 5.989 L-276.4 7.89 L-277.1 9.742 L-277.9 11.53 L-278.9 13.25 L-280 14.88 L-281.3 16.42 L-282.6 17.86 L-284.1 19.18 L-285.7 20.38 L-287.4 21.45 L-289.1 22.39 L-290.9 23.18 L-292.8 23.83 L-294.7 24.33 L-296.7 24.67 L-298.6 24.86 L-300.6 24.89 L-302.6 24.76 L-304.5 24.48 L-306.5 24.04 L-308.4 23.45 L-310.2 22.72 L-312 21.83 L-313.7 20.81 L-315.3 19.66 L-316.8 18.39 L-318.2 16.99 L-319.5 15.49 L-320.7 13.9 L-321.7 12.21 L-322.6 10.45 L-323.4 8.62 L-324 6.736 L-324.4 4.81 L-324.7 2.854 L-324.9 0.8799 L-324.9 -1.1 L-324.7 -3.073 L-324.4 -5.026 L-323.9 -6.948 L-323.3 -8.826 L-322.5 -10.65 L-321.6 -12.4 L-320.5 -14.08 L-319.4 -15.67 L-318 -17.15 L-316.6 -18.53 L-315.1 -19.8 L-313.5 -20.93 L-311.8 -21.94 L-310 -22.81 L-308.2 -23.53 L-306.3 -24.1 L-304.3 -24.52 L-302.4 -24.79 L-300.4 -24.9 L-298.4 -24.85 L-296.4 -24.65 L-294.5 -24.28 L-292.6 -23.77 L-290.7 -23.11 L-288.9 -22.29 L-287.2 -21.34 L-285.5 -20.26 L-284 -19.04 L-282.5 -17.71 L-281.1 -16.26 L-279.9 -14.71 L-278.8 -13.07 L-277.8 -11.34 L-277 -9.544 L-276.3 -7.687 L-275.8 -5.781 L-275.4 -3.838 L-275.2 -1.871 L-275.1 0.1074 Z " />
<path stroke="rgb(0,0,0)" stroke-opacity="1" fill="rgb(255,255,255)" fill-opacity="1" d="M-373.6 -183.6 L-375.3 -183.2 L-377.1 -182.8 L-378.8 -182.4 L-380.6 -182 L-382.3 -181.6 L-384.1 -181.2 L-385.8 -180.8 L-387.6 -180.4 L-389.3 -180 L-391.1 -179.6 L-392.8 -179.2 L-394.6 -178.8 L-396.3 -178.4 L-398.1 -178 L-399.8 -177.6 L-401.5 -177.2 L-403.3 -176.7 L-405 -176.3 L-406.8 -175.9 L-408.5 -175.5 L-410.3 -175.1 L-412 -174.7 L-413.8 -174.3 L-415.5 -173.9 L-417.3 -173.5 L-417.7 -175.2 L-418.1 -177 L-418.5 -178.7 L-418.9 -180.5 L-419.3 -182.2 L-419.7 -184 L-420.1 -185.7 L-420.5 -187.5 L-420.9 -189.2 L-421.3 -191 L-421.7 -192.7 L-422.1 -194.5 L-422.5 -196.2 L-423 -198 L-423.4 -199.7 L-423.8 -201.4 L-424.2 -203.2 L-424.6 -204.9 L-425 -206.7 L-425.4 -208.4 L-425.8 -210.2 L-426.2 -211.9 L-426.6 -213.7 L-427 -215.4 L-427.4 -217.2 L-425.7 -217.6 L-423.9 -218 L-422.2 -218.4 L-420.4 -218.8 L-418.7 -219.2 L-416.9 -219.6 L-415.2 -220 L-413.4 -220.4 L-411.7 -220.8 L-410 -221.2 L-408.2 -221.6 L-406.5 -222 L-404.7 -222.4 L-403 -222.9 L-401.2 -223.3 L-399.5 -223.7 L-397.7 -224.1 L-396 -224.5 L-394.2 -224.9 L-392.5 -225.3 L-390.7 -225.7 L-389 -226.1 L-387.2 -226.5 L-385.5 -226.9 L-383.7 -227.3 L-383.3 -225.6 L-382.9 -223.8 L-382.5 -222.1 L-382.1 -220.3 L-381.7 -218.6 L-381.3 -216.8 L-380.9 -215.1 L-380.5 -213.3 L-380.1 -211.6 L-379.7 -209.9 L-379.3 -208.1 L-378.9 -206.4 L-378.5 -204.6 L-378.1 -202.9 L-377.7 -201.1 L-377.3 -199.4 L-376.8 -197.6 L-376.4 -195.9 L-376 -194.1 L-375.6 -192.4 L-375.2 -190.6 L-374.8 -188.9 L-374.4 -187.1 L-374 -185.4 L-373.6 -183.6 Z " />
<path stroke="rgb(0,0,0)" stroke-opacity="0.803" fill="rgb(255,255,255)" fill-opacity="1" d="M-75.1 0.1074 L-75.19 2.085 L-75.43 4.05 L-75.83 5.989 L-76.38 7.89 L-77.08 9.742 L-77.93 11.53 L-78.92 13.25 L-80.04 14.88 L-81.28 16.42 L-82.65 17.86 L-84.12 19.18 L-85.69 20.38 L-87.36 21.45 L-89.1 22.39 L-90.92 23.18 L-92.79 23.83 L-94.7 24.33 L-96.65 24.67 L-98.62 24.86 L-100.6 24.89 L-102.6 24.76 L-104.5 24.48 L-106.5 24.04 L-108.4 23.45 L-110.2 22.72 L-112 21.83 L-113.7 20.81 L-115.3 19.66 L-116.8 18.39 L-118.2 16.99 L-119.5 15.49 L-120.7 13.9 L-121.7 12.21 L-122.6 10.45 L-123.4 8.62 L-124 6.736 L-124.4 4.81 L-124.7 2.854 L-124.9 0.8799 L-124.9 -1.1 L-124.7 -3.073 L-124.4 -5.026 L-123.9 -6.948 L-123.3 -8.826 L-122.5 -10.65 L-121.6 -12.4 L-120.5 -14.08 L-119.4 -15.67 L-118 -17.15 L-116.6 -18.53 L-115.1 -19.8 L-113.5 -20.93 L-111.8 -21.94 L-110 -22.81 L-108.2 -23.53 L-106.3 -24.1 L-104.3 -24.52 L-102.4 -24.79 L-100.4 -24.9 L-98.41 -24.85 L-96.44 -24.65 L-94.49 -24.28 L-92.58 -23.77 L-90.71 -23.11 L-88.91 -22.29 L-87.17 -21.34 L-85.52 -20.26 L-83.95 -19.04 L-82.49 -17.71 L-81.14 -16.26 L-79.91 -14.71 L-78.8 -13.07 L-77.83 -11.34 L-77 -9.544 L-76.31 -7.687 L-75.78 -5.781 L-75.4 -3.838 L-75.17 -1.871 L-75.1 0.1074 Z " />
<path stroke="rgb(0,0,0)" stroke-opacity="1" fill="rgb(255,255,255)" fill-opacity="1" d="M-176.4 -201.8 L-177.3 -200.8 L-178.2 -199.8 L-179.1 -198.7 L-180 -197.7 L-180.9 -196.7 L-181.8 -195.7 L-182.7 -194.6 L-183.6 -193.6 L-184.5 -192.6 L-185.4 -191.6 L-186.3 -190.5 L-187.2 -189.5 L-188.1 -188.5 L-189 -187.5 L-189.9 -186.4 L-190.8 -185.4 L-191.7 -184.4 L-192.6 -183.3 L-193.5 -182.3 L-194.4 -181.3 L-195.3 -180.3 L-196.2 -179.2 L-197.1 -178.2 L-198 -177.2 L-198.9 -176.2 L-199.9 -177.1 L-201 -178 L-202 -178.9 L-203 -179.8 L-204 -180.7 L-205.1 -181.6 L-206.1 -182.5 L-207.1 -183.4 L-208.1 -184.3 L-209.2 -185.2 L-210.2 -186.1 L-211.2 -187 L-212.2 -187.9 L-213.3 -188.8 L-214.3 -189.7 L-215.3 -190.6 L-216.3 -191.5 L-217.4 -192.4 L-218.4 -193.3 L-219.4 -194.2 L-220.4 -195.1 L-221.5 -196 L-222.5 -196.9 L-223.5 -197.8 L-224.5 -198.7 L-223.6 -199.7 L-222.7 -200.7 L-221.8 -201.7 L-220.9 -202.8 L-220 -203.8 L-219.1 -204.8 L-218.2 -205.8 L-217.3 -206.9 L-216.4 -207.9 L-215.5 -208.9 L-214.6 -209.9 L-213.7 -211 L-212.8 -212 L-211.9 -213 L-211 -214 L-210.1 -215.1 L-209.2 -216.1 L-208.4 -217.1 L-207.5 -218.1 L-206.6 -219.2 L-205.7 -220.2 L-204.8 -221.2 L-203.9 -222.2 L-203 -223.3 L-202.1 -224.3 L-201 -223.4 L-200 -222.5 L-199 -221.6 L-198 -220.7 L-196.9 -219.8 L-195.9 -218.9 L-194.9 -218 L-193.9 -217.1 L-192.8 -216.2 L-191.8 -215.3 L-190.8 -214.4 L-189.8 -213.5 L-188.7 -212.6 L-187.7 -211.7 L-186.7 -210.8 L-185.7 -209.9 L-184.6 -209 L-183.6 -208.1 L-182.6 -207.2 L-181.6 -206.3 L-180.5 -205.4 L-179.5 -204.5 L-178.5 -203.6 L-177.5 -202.7 L-176.4 -201.8 Z " />
<path stroke="rgb(0,0,0)" stroke-opacity="0.803" fill="rgb(255,255,255)" fill-opacity="1" d="M124.9 0.1074 L124.8 2.085 L124.6 4.05 L124.2 5.989 L123.6 7.89 L122.9 9.742 L122.1 11.53 L121.1 13.25 L120 14.88 L118.7 16.42 L117.4 17.86 L115.9 19.18 L114.3 20.38 L112.6 21.45 L110.9 22.39 L109.1 23.18 L107.2 23.83 L105.3 24.33 L103.3 24.67 L101.4 24.86 L99.4 24.89 L97.42 24.76 L95.46 24.48 L93.53 24.04 L91.64 23.45 L89.8 22.72 L88.03 21.83 L86.33 20.81 L84.72 19.66 L83.21 18.39 L81.8 16.99 L80.51 15.49 L79.34 13.9 L78.3 12.21 L77.4 10.45 L76.64 8.62 L76.03 6.736 L75.57 4.81 L75.27 2.854 L75.12 0.8799 L75.13 -1.1 L75.29 -3.073 L75.61 -5.026 L76.09 -6.948 L76.72 -8.826 L77.49 -10.65 L78.41 -12.4 L79.46 -14.08 L80.65 -15.67 L81.95 -17.15 L83.37 -18.53 L84.9 -19.8 L86.52 -20.93 L88.22 -21.94 L90 -22.81 L91.85 -23.53 L93.74 -24.1 L95.68 -24.52 L97.64 -24.79 L99.61 -24.9 L101.6 -24.85 L103.6 -24.65 L105.5 -24.28 L107.4 -23.77 L109.3 -23.11 L111.1 -22.29 L112.8 -21.34 L114.5 -20.26 L116 -19.04 L117.5 -17.71 L118.9 -16.26 L120.1 -14.71 L121.2 -13.07 L122.2 -11.34 L123 -9.544 L123.7 -7.687 L124.2 -5.781 L124.6 -3.838 L124.8 -1.871 L124.9 0.1074 Z " />
<path stroke="rgb(0,0,0)" stroke-opacity="1" fill="rgb(255,255,255)" fill-opacity="1" d="M15.2 -211 L15.01 -209.9 L14.82 -208.9 L14.63 -207.8 L14.44 -206.7 L14.25 -205.7 L14.06 -204.6 L13.87 -203.6 L13.68 -202.5 L13.48 -201.5 L13.29 -200.4 L13.1 -199.3 L12.91 -198.3 L12.72 -197.2 L12.53 -196.2 L12.34 -195.1 L12.15 -194.1 L11.96 -193 L11.77 -191.9 L11.58 -190.9 L11.39 -189.8 L11.2 -188.8 L11.01 -187.7 L10.82 -186.7 L10.63 -185.6 L10.44 -184.5 L9.378 -184.7 L8.321 -184.9 L7.264 -185.1 L6.207 -185.3 L5.149 -185.5 L4.092 -185.7 L3.035 -185.9 L1.978 -186.1 L0.9205 -186.3 L-0.1367 -186.4 L-1.194 -186.6 L-2.251 -186.8 L-3.308 -187 L-4.366 -187.2 L-5.423 -187.4 L-6.48 -187.6 L-7.537 -187.8 L-8.595 -188 L-9.652 -188.2 L-10.71 -188.3 L-11.77 -188.5 L-12.82 -188.7 L-13.88 -188.9 L-14.94 -189.1 L-16 -189.3 L-15.8 -190.4 L-15.61 -191.4 L-15.42 -192.5 L-15.23 -193.5 L-15.04 -194.6 L-14.85 -195.6 L-14.66 -196.7 L-14.47 -197.8 L-14.28 -198.8 L-14.09 -199.9 L-13.9 -200.9 L-13.71 -202 L-13.52 -203 L-13.33 -204.1 L-13.14 -205.2 L-12.95 -206.2 L-12.76 -207.3 L-12.56 -208.3 L-12.37 -209.4 L-12.18 -210.4 L-11.99 -211.5 L-11.8 -212.6 L-11.61 -213.6 L-11.42 -214.7 L-11.23 -215.7 L-10.17 -215.5 L-9.116 -215.4 L-8.059 -215.2 L-7.002 -215 L-5.945 -214.8 L-4.887 -214.6 L-3.83 -214.4 L-2.773 -214.2 L-1.716 -214 L-0.6586 -213.8 L0.3987 -213.6 L1.456 -213.4 L2.513 -213.3 L3.57 -213.1 L4.628 -212.9 L5.685 -212.7 L6.742 -212.5 L7.799 -212.3 L8.856 -212.1 L9.914 -211.9 L10.97 -211.7 L12.03 -211.5 L13.09 -211.4 L14.14 -211.2 L15.2 -211 Z " />
<path stroke="rgb(0,0,0)" stroke-opacity="0.803" fill="rgb(255,255,255)" fill-opacity="1" d="M324.9 0.1074 L324.8 2.085 L324.6 4.05 L324.2 5.989 L323.6 7.89 L322.9 9.742 L322.1 11.53 L321.1 13.25 L320 14.88 L318.7 16.42 L317.4 17.86 L315.9 19.18 L314.3 20.38 L312.6 21.45 L310.9 22.39 L309.1 23.18 L307.2 23.83 L305.3 24.33 L303.3 24.67 L301.4 24.86 L299.4 24.89 L297.4 24.76 L295.5 24.48 L293.5 24.04 L291.6 23.45 L289.8 22.72 L288 21.83 L286.3 20.81 L284.7 19.66 L283.2 18.39 L281.8 16.99 L280.5 15.49 L279.3 13.9 L278.3 12.21 L277.4 10.45 L276.6 8.62 L276 6.736 L275.6 4.81 L275.3 2.854 L275.1 0.8799 L275.1 -1.1 L275.3 -3.073 L275.6 -5.026 L276.1 -6.948 L276.7 -8.826 L277.5 -10.65 L278.4 -12.4 L279.5 -14.08 L280.6 -15.67 L282 -17.15 L283.4 -18.53 L284.9 -19.8 L286.5 -20.93 L288.2 -21.94 L290 -22.81 L291.8 -23.53 L293.7 -24.1 L295.7 -24.52 L297.6 -24.79 L299.6 -24.9 L301.6 -24.85 L303.6 -24.65 L305.5 -24.28 L307.4 -23.77 L309.3 -23.11 L311.1 -22.29 L312.8 -21.34 L314.5 -20.26 L316 -19.04 L317.5 -17.71 L318.9 -16.26 L320.1 -14.71 L321.2 -13.07 L322.2 -11.34 L323 -9.544 L323.7 -7.687 L324.2 -5.781 L324.6 -3.838 L324.8 -1.871 L324.9 0.1074 Z " />
<path stroke="rgb(0,0,0)" stroke-opacity="1" fill="rgb(255,255,255)" fill-opacity="1" d="M-473.6 -83.65 L-475.3 -83.24 L-477.1 -82.84 L-478.8 -82.43 L-480.6 -82.02 L-482.3 -81.62 L-484.1 -81.21 L-485.8 -80.81 L-487.6 -80.4 L-489.3 -79.99 L-491.1 -79.59 L-492.8 -79.18 L-494.6 -78.77 L-496.3 -78.37 L-498.1 -77.96 L-499.8 -77.56 L-501.5 -77.15 L-503.3 -76.74 L-505 -76.34 L-506.8 -75.93 L-508.5 -75.53 L-510.3 -75.12 L-512 -74.71 L-513.8 -74.31 L-515.5 -73.9 L-517.3 -73.5 L-517.7 -75.24 L-518.1 -76.99 L-518.5 -78.74 L-518.9 -80.48 L-519.3 -82.23 L-519.7 -83.98 L-520.1 -85.72 L-520.5 -87.47 L-520.9 -89.22 L-521.3 -90.97 L-521.7 -92.71 L-522.1 -94.46 L-522.5 -96.21 L-523 -97.95 L-523.4 -99.7 L-523.8 -101.4 L-524.2 -103.2 L-524.6 -104.9 L-525 -106.7 L-525.4 -108.4 L-525.8 -110.2 L-526.2 -111.9 L-526.6 -113.7 L-527 -115.4 L-527.4 -117.2 L-525.7 -117.6 L-523.9 -118 L-522.2 -118.4 L-520.4 -118.8 L-518.7 -119.2 L-516.9 -119.6 L-515.2 -120 L-513.4 -120.4 L-511.7 -120.8 L-510 -121.2 L-508.2 -121.6 L-506.5 -122 L-504.7 -122.4 L-503 -122.9 L-501.2 -123.3 L-499.5 -123.7 L-497.7 -124.1 L-496 -124.5 L-494.2 -124.9 L-492.5 -125.3 L-490.7 -125.7 L-489 -126.1 L-487.2 -126.5 L-485.5 -126.9 L-483.7 -127.3 L-483.3 -125.6 L-482.9 -123.8 L-482.5 -122.1 L-482.1 -120.3 L-481.7 -118.6 L-481.3 -116.8 L-480.9 -115.1 L-480.5 -113.3 L-480.1 -111.6 L-479.7 -109.9 L-479.3 -108.1 L-478.9 -106.4 L-478.5 -104.6 L-478.1 -102.9 L-477.7 -101.1 L-477.3 -99.37 L-476.8 -97.62 L-476.4 -95.88 L-476 -94.13 L-475.6 -92.38 L-475.2 -90.64 L-474.8 -88.89 L-474.4 -87.14 L-474 -85.4 L-473.6 -83.65 Z " />
<path stroke="rgb(0,0,0)" stroke-opacity="0.803" fill="rgb(255,255,255)" fill-opacity="1" d="M-175.1 100.1 L-175.2 102.1 L-175.4 104.1 L-175.8 106 L-176.4 107.9 L-177.1 109.7 L-177.9 111.5 L-178.9 113.2 L-180 114.9 L-181.3 116.4 L-182.6 117.9 L-184.1 119.2 L-185.7 120.4 L-187.4 121.5 L-189.1 122.4 L-190.9 123.2 L-192.8 123.8 L-194.7 124.3 L-196.7 124.7 L-198.6 124.9 L-200.6 124.9 L-202.6 124.8 L-204.5 124.5 L-206.5 124 L-208.4 123.5 L-210.2 122.7 L-212 121.8 L-213.7 120.8 L-215.3 119.7 L-216.8 118.4 L-218.2 117 L-219.5 115.5 L-220.7 113.9 L-221.7 112.2 L-222.6 110.4 L-223.4 108.6 L-224 106.7 L-224.4 104.8 L-224.7 102.9 L-224.9 100.9 L-224.9 98.9 L-224.7 96.93 L-224.4 94.97 L-223.9 93.05 L-223.3 91.17 L-222.5 89.35 L-221.6 87.6 L-220.5 85.92 L-219.4 84.33 L-218 82.85 L-216.6 81.47 L-215.1 80.2 L-213.5 79.07 L-211.8 78.06 L-210 77.19 L-208.2 76.47 L-206.3 75.9 L-204.3 75.48 L-202.4 75.21 L-200.4 75.1 L-198.4 75.15 L-196.4 75.35 L-194.5 75.72 L-192.6 76.23 L-190.7 76.89 L-188.9 77.71 L-187.2 78.66 L-185.5 79.74 L-184 80.96 L-182.5 82.29 L-181.1 83.74 L-179.9 85.29 L-178.8 86.93 L-177.8 88.66 L-177 90.46 L-176.3 92.31 L-175.8 94.22 L-175.4 96.16 L-175.2 98.13 L-175.1 100.1 Z " />
<path stroke="rgb(0,0,0)" stroke-opacity="1" fill="rgb(255,255,255)" fill-opacity="1" d="M-276.4 -101.8 L-277.3 -100.8 L-278.2 -99.75 L-279.1 -98.73 L-280 -97.7 L-280.9 -96.68 L-281.8 -95.65 L-282.7 -94.63 L-283.6 -93.6 L-284.5 -92.58 L-285.4 -91.55 L-286.3 -90.53 L-287.2 -89.5 L-288.1 -88.48 L-289 -87.45 L-289.9 -86.42 L-290.8 -85.4 L-291.7 -84.37 L-292.6 -83.35 L-293.5 -82.32 L-294.4 -81.3 L-295.3 -80.27 L-296.2 -79.25 L-297.1 -78.22 L-298 -77.2 L-298.9 -76.17 L-299.9 -77.07 L-301 -77.97 L-302 -78.87 L-303 -79.77 L-304 -80.67 L-305.1 -81.57 L-306.1 -82.47 L-307.1 -83.37 L-308.1 -84.27 L-309.2 -85.17 L-310.2 -86.06 L-311.2 -86.96 L-312.2 -87.86 L-313.3 -88.76 L-314.3 -89.66 L-315.3 -90.56 L-316.3 -91.46 L-317.4 -92.36 L-318.4 -93.26 L-319.4 -94.16 L-320.4 -95.06 L-321.5 -95.96 L-322.5 -96.85 L-323.5 -97.75 L-324.5 -98.65 L-323.6 -99.68 L-322.7 -100.7 L-321.8 -101.7 L-320.9 -102.8 L-320 -103.8 L-319.1 -104.8 L-318.2 -105.8 L-317.3 -106.9 L-316.4 -107.9 L-315.5 -108.9 L-314.6 -109.9 L-313.7 -111 L-312.8 -112 L-311.9 -113 L-311 -114 L-310.1 -115.1 L-309.2 -116.1 L-308.4 -117.1 L-307.5 -118.1 L-306.6 -119.2 L-305.7 -120.2 L-304.8 -121.2 L-303.9 -122.2 L-303 -123.3 L-302.1 -124.3 L-301 -123.4 L-300 -122.5 L-299 -121.6 L-298 -120.7 L-296.9 -119.8 L-295.9 -118.9 L-294.9 -118 L-293.9 -117.1 L-292.8 -116.2 L-291.8 -115.3 L-290.8 -114.4 L-289.8 -113.5 L-288.7 -112.6 L-287.7 -111.7 L-286.7 -110.8 L-285.7 -109.9 L-284.6 -109 L-283.6 -108.1 L-282.6 -107.2 L-281.6 -106.3 L-280.5 -105.4 L-279.5 -104.5 L-278.5 -103.6 L-277.5 -102.7 L-276.4 -101.8 Z " />
<path stroke="rgb(0,0,0)" stroke-opacity="0.803" fill="rgb(255,255,255)" fill-opacity="1" d="M24.9 100.1 L24.81 102.1 L24.57 104.1 L24.17 106 L23.62 107.9 L22.92 109.7 L22.07 111.5 L21.08 113.2 L19.96 114.9 L18.72 116.4 L17.35 117.9 L15.88 119.2 L14.31 120.4 L12.64 121.5 L10.9 122.4 L9.085 123.2 L7.214 123.8 L5.298 124.3 L3.348 124.7 L1.377 124.9 L-0.6025 124.9 L-2.578 124.8 L-4.538 124.5 L-6.469 124 L-8.359 123.5 L-10.2 122.7 L-11.97 121.8 L-13.67 120.8 L-15.28 119.7 L-16.79 118.4 L-18.2 117 L-19.49 115.5 L-20.66 113.9 L-21.7 112.2 L-22.6 110.4 L-23.36 108.6 L-23.97 106.7 L-24.43 104.8 L-24.73 102.9 L-24.88 100.9 L-24.87 98.9 L-24.71 96.93 L-24.39 94.97 L-23.91 93.05 L-23.28 91.17 L-22.51 89.35 L-21.59 87.6 L-20.54 85.92 L-19.35 84.33 L-18.05 82.85 L-16.63 81.47 L-15.1 80.2 L-13.48 79.07 L-11.78 78.06 L-9.997 77.19 L-8.153 76.47 L-6.258 75.9 L-4.324 75.48 L-2.362 75.21 L-0.3851 75.1 L1.594 75.15 L3.563 75.35 L5.51 75.72 L7.422 76.23 L9.287 76.89 L11.09 77.71 L12.83 78.66 L14.48 79.74 L16.05 80.96 L17.51 82.29 L18.86 83.74 L20.09 85.29 L21.2 86.93 L22.17 88.66 L23 90.46 L23.69 92.31 L24.22 94.22 L24.6 96.16 L24.83 98.13 L24.9 100.1 Z " />
<path stroke="rgb(0,0,0)" stroke-opacity="1" fill="rgb(255,255,255)" fill-opacity="1" d="M-84.8 -111 L-84.99 -109.9 L-85.18 -108.9 L-85.37 -107.8 L-85.56 -106.7 L-85.75 -105.7 L-85.94 -104.6 L-86.13 -103.6 L-86.32 -102.5 L-86.52 -101.5 L-86.71 -100.4 L-86.9 -99.34 L-87.09 -98.28 L-87.28 -97.23 L-87.47 -96.17 L-87.66 -95.11 L-87.85 -94.05 L-88.04 -93 L-88.23 -91.94 L-88.42 -90.88 L-88.61 -89.82 L-88.8 -88.77 L-88.99 -87.71 L-89.18 -86.65 L-89.37 -85.6 L-89.56 -84.54 L-90.62 -84.73 L-91.68 -84.92 L-92.74 -85.11 L-93.79 -85.3 L-94.85 -85.49 L-95.91 -85.68 L-96.97 -85.87 L-98.02 -86.06 L-99.08 -86.25 L-100.1 -86.44 L-101.2 -86.63 L-102.3 -86.83 L-103.3 -87.02 L-104.4 -87.21 L-105.4 -87.4 L-106.5 -87.59 L-107.5 -87.78 L-108.6 -87.97 L-109.7 -88.16 L-110.7 -88.35 L-111.8 -88.54 L-112.8 -88.73 L-113.9 -88.92 L-114.9 -89.11 L-116 -89.3 L-115.8 -90.36 L-115.6 -91.42 L-115.4 -92.47 L-115.2 -93.53 L-115 -94.59 L-114.9 -95.65 L-114.7 -96.7 L-114.5 -97.76 L-114.3 -98.82 L-114.1 -99.88 L-113.9 -100.9 L-113.7 -102 L-113.5 -103 L-113.3 -104.1 L-113.1 -105.2 L-112.9 -106.2 L-112.8 -107.3 L-112.6 -108.3 L-112.4 -109.4 L-112.2 -110.4 L-112 -111.5 L-111.8 -112.6 L-111.6 -113.6 L-111.4 -114.7 L-111.2 -115.7 L-110.2 -115.5 L-109.1 -115.4 L-108.1 -115.2 L-107 -115 L-105.9 -114.8 L-104.9 -114.6 L-103.8 -114.4 L-102.8 -114.2 L-101.7 -114 L-100.7 -113.8 L-99.6 -113.6 L-98.54 -113.4 L-97.49 -113.3 L-96.43 -113.1 L-95.37 -112.9 L-94.32 -112.7 L-93.26 -112.5 L-92.2 -112.3 L-91.14 -112.1 L-90.09 -111.9 L-89.03 -111.7 L-87.97 -111.5 L-86.91 -111.4 L-85.86 -111.2 L-84.8 -111 Z " />
<path stroke="rgb(0,0,0)" stroke-opacity="0.803" fill="rgb(255,255,255)" fill-opacity="1" d="M224.9 100.1 L224.8 102.1 L224.6 104.1 L224.2 106 L223.6 107.9 L222.9 109.7 L222.1 111.5 L221.1 113.2 L220 114.9 L218.7 116.4 L217.4 117.9 L215.9 119.2 L214.3 120.4 L212.6 121.5 L210.9 122.4 L209.1 123.2 L207.2 123.8 L205.3 124.3 L203.3 124.7 L201.4 124.9 L199.4 124.9 L197.4 124.8 L195.5 124.5 L193.5 124 L191.6 123.5 L189.8 122.7 L188 121.8 L186.3 120.8 L184.7 119.7 L183.2 118.4 L181.8 117 L180.5 115.5 L179.3 113.9 L178.3 112.2 L177.4 110.4 L176.6 108.6 L176 106.7 L175.6 104.8 L175.3 102.9 L175.1 100.9 L175.1 98.9 L175.3 96.93 L175.6 94.97 L176.1 93.05 L176.7 91.17 L177.5 89.35 L178.4 87.6 L179.5 85.92 L180.6 84.33 L182 82.85 L183.4 81.47 L184.9 80.2 L186.5 79.07 L188.2 78.06 L190 77.19 L191.8 76.47 L193.7 75.9 L195.7 75.48 L197.6 75.21 L199.6 75.1 L201.6 75.15 L203.6 75.35 L205.5 75.72 L207.4 76.23 L209.3 76.89 L211.1 77.71 L212.8 78.66 L214.5 79.74 L216 80.96 L217.5 82.29 L218.9 83.74 L220.1 85.29 L221.2 86.93 L222.2 88.66 L223 90.46 L223.7 92.31 L224.2 94.22 L224.6 96.16 L224.8 98.13 L224.9 100.1 Z " />
<path stroke="rgb(0,0,0)" stroke-opacity="1" fill="rgb(255,255,255)" fill-opacity="1" d="M112.3 -112.4 L112.3 -111.4 L112.3 -110.4 L112.3 -109.4 L112.2 -108.4 L112.2 -107.4 L112.2 -106.4 L112.2 -105.4 L112.2 -104.4 L112.2 -103.4 L112.2 -102.4 L112.1 -101.4 L112.1 -100.4 L112.1 -99.44 L112.1 -98.44 L112.1 -97.44 L112.1 -96.44 L112.1 -95.44 L112 -94.44 L112 -93.44 L112 -92.44 L112 -91.44 L112 -90.44 L112 -89.45 L112 -88.45 L111.9 -87.45 L110.9 -87.46 L109.9 -87.48 L108.9 -87.49 L107.9 -87.5 L106.9 -87.52 L105.9 -87.53 L104.9 -87.55 L103.9 -87.56 L102.9 -87.58 L101.9 -87.59 L100.9 -87.61 L99.95 -87.62 L98.95 -87.64 L97.95 -87.65 L96.95 -87.66 L95.95 -87.68 L94.95 -87.69 L93.95 -87.71 L92.95 -87.72 L91.95 -87.74 L90.95 -87.75 L89.95 -87.77 L88.96 -87.78 L87.96 -87.8 L86.96 -87.81 L86.97 -88.81 L86.99 -89.81 L87 -90.81 L87.01 -91.81 L87.03 -92.81 L87.04 -93.81 L87.06 -94.81 L87.07 -95.81 L87.09 -96.81 L87.1 -97.8 L87.12 -98.8 L87.13 -99.8 L87.15 -100.8 L87.16 -101.8 L87.17 -102.8 L87.19 -103.8 L87.2 -104.8 L87.22 -105.8 L87.23 -106.8 L87.25 -107.8 L87.26 -108.8 L87.28 -109.8 L87.29 -110.8 L87.31 -111.8 L87.32 -112.8 L88.32 -112.8 L89.32 -112.8 L90.32 -112.8 L91.32 -112.7 L92.32 -112.7 L93.32 -112.7 L94.32 -112.7 L95.32 -112.7 L96.32 -112.7 L97.31 -112.7 L98.31 -112.6 L99.31 -112.6 L100.3 -112.6 L101.3 -112.6 L102.3 -112.6 L103.3 -112.6 L104.3 -112.5 L105.3 -112.5 L106.3 -112.5 L107.3 -112.5 L108.3 -112.5 L109.3 -112.5 L110.3 -112.5 L111.3 -112.4 L112.3 -112.4 Z " />
<path stroke="rgb(0,0,0)" stroke-opacity="0.803" fill="rgb(255,255,255)" fill-opacity="1" d="M-275.1 200.1 L-275.2 202.1 L-275.4 204.1 L-275.8 206 L-276.4 207.9 L-277.1 209.7 L-277.9 211.5 L-278.9 213.2 L-280 214.9 L-281.3 216.4 L-282.6 217.9 L-284.1 219.2 L-285.7 220.4 L-287.4 221.5 L-289.1 222.4 L-290.9 223.2 L-292.8 223.8 L-294.7 224.3 L-296.7 224.7 L-298.6 224.9 L-300.6 224.9 L-302.6 224.8 L-304.5 224.5 L-306.5 224 L-308.4 223.5 L-310.2 222.7 L-312 221.8 L-313.7 220.8 L-315.3 219.7 L-316.8 218.4 L-318.2 217 L-319.5 215.5 L-320.7 213.9 L-321.7 212.2 L-322.6 210.4 L-323.4 208.6 L-324 206.7 L-324.4 204.8 L-324.7 202.9 L-324.9 200.9 L-324.9 198.9 L-324.7 196.9 L-324.4 195 L-323.9 193.1 L-323.3 191.2 L-322.5 189.4 L-321.6 187.6 L-320.5 185.9 L-319.4 184.3 L-318 182.8 L-316.6 181.5 L-315.1 180.2 L-313.5 179.1 L-311.8 178.1 L-310 177.2 L-308.2 176.5 L-306.3 175.9 L-304.3 175.5 L-302.4 175.2 L-300.4 175.1 L-298.4 175.1 L-296.4 175.4 L-294.5 175.7 L-292.6 176.2 L-290.7 176.9 L-288.9 177.7 L-287.2 178.7 L-285.5 179.7 L-284 181 L-282.5 182.3 L-281.1 183.7 L-279.9 185.3 L-278.8 186.9 L-277.8 188.7 L-277 190.5 L-276.3 192.3 L-275.8 194.2 L-275.4 196.2 L-275.2 198.1 L-275.1 200.1 Z " />
<path stroke="rgb(0,0,0)" stroke-opacity="1" fill="rgb(255,255,255)" fill-opacity="1" d="M-376.4 -1.803 L-377.3 -0.7773 L-378.2 0.2478 L-379.1 1.273 L-380 2.298 L-380.9 3.323 L-381.8 4.349 L-382.7 5.374 L-383.6 6.399 L-384.5 7.424 L-385.4 8.449 L-386.3 9.474 L-387.2 10.5 L-388.1 11.52 L-389 12.55 L-389.9 13.58 L-390.8 14.6 L-391.7 15.63 L-392.6 16.65 L-393.5 17.68 L-394.4 18.7 L-395.3 19.73 L-396.2 20.75 L-397.1 21.78 L-398 22.8 L-398.9 23.83 L-399.9 22.93 L-401 22.03 L-402 21.13 L-403 20.23 L-404 19.33 L-405.1 18.43 L-406.1 17.53 L-407.1 16.63 L-408.1 15.73 L-409.2 14.83 L-410.2 13.94 L-411.2 13.04 L-412.2 12.14 L-413.3 11.24 L-414.3 10.34 L-415.3 9.44 L-416.3 8.541 L-417.4 7.642 L-418.4 6.742 L-419.4 5.843 L-420.4 4.944 L-421.5 4.045 L-422.5 3.146 L-423.5 2.246 L-424.5 1.347 L-423.6 0.3221 L-422.7 -0.7031 L-421.8 -1.728 L-420.9 -2.753 L-420 -3.779 L-419.1 -4.804 L-418.2 -5.829 L-417.3 -6.854 L-416.4 -7.879 L-415.5 -8.904 L-414.6 -9.93 L-413.7 -10.95 L-412.8 -11.98 L-411.9 -13.01 L-411 -14.03 L-410.1 -15.06 L-409.2 -16.08 L-408.4 -17.11 L-407.5 -18.13 L-406.6 -19.16 L-405.7 -20.18 L-404.8 -21.21 L-403.9 -22.23 L-403 -23.26 L-402.1 -24.28 L-401 -23.38 L-400 -22.48 L-399 -21.58 L-398 -20.69 L-396.9 -19.79 L-395.9 -18.89 L-394.9 -17.99 L-393.9 -17.09 L-392.8 -16.19 L-391.8 -15.29 L-390.8 -14.39 L-389.8 -13.49 L-388.7 -12.59 L-387.7 -11.69 L-386.7 -10.79 L-385.7 -9.895 L-384.6 -8.996 L-383.6 -8.097 L-382.6 -7.198 L-381.6 -6.298 L-380.5 -5.399 L-379.5 -4.5 L-378.5 -3.601 L-377.5 -2.702 L-376.4 -1.803 Z " />
<path stroke="rgb(0,0,0)" stroke-opacity="0.803" fill="rgb(255,255,255)" fill-opacity="1" d="M-75.1 200.1 L-75.19 202.1 L-75.43 204.1 L-75.83 206 L-76.38 207.9 L-77.08 209.7 L-77.93 211.5 L-78.92 213.2 L-80.04 214.9 L-81.28 216.4 L-82.65 217.9 L-84.12 219.2 L-85.69 220.4 L-87.36 221.5 L-89.1 222.4 L-90.92 223.2 L-92.79 223.8 L-94.7 224.3 L-96.65 224.7 L-98.62 224.9 L-100.6 224.9 L-102.6 224.8 L-104.5 224.5 L-106.5 224 L-108.4 223.5 L-110.2 222.7 L-112 221.8 L-113.7 220.8 L-115.3 219.7 L-116.8 218.4 L-118.2 217 L-119.5 215.5 L-120.7 213.9 L-121.7 212.2 L-122.6 210.4 L-123.4 208.6 L-124 206.7 L-124.4 204.8 L-124.7 202.9 L-124.9 200.9 L-124.9 198.9 L-124.7 196.9 L-124.4 195 L-123.9 193.1 L-123.3 191.2 L-122.5 189.4 L-121.6 187.6 L-120.5 185.9 L-119.4 184.3 L-118 182.8 L-116.6 181.5 L-115.1 180.2 L-113.5 179.1 L-111.8 178.1 L-110 177.2 L-108.2 176.5 L-106.3 175.9 L-104.3 175.5 L-102.4 175.2 L-100.4 175.1 L-98.41 175.1 L-96.44 175.4 L-94.49 175.7 L-92.58 176.2 L-90.71 176.9 L-88.91 177.7 L-87.17 178.7 L-85.52 179.7 L-83.95 181 L-82.49 182.3 L-81.14 183.7 L-79.91 185.3 L-78.8 186.9 L-77.83 188.7 L-77 190.5 L-76.31 192.3 L-75.78 194.2 L-75.4 196.2 L-75.17 198.1 L-75.1 200.1 Z " />
<path stroke="rgb(0,0,0)" stroke-opacity="1" fill="rgb(255,255,255)" fill-opacity="1" d="M-184.8 -10.97 L-185 -9.912 L-185.2 -8.855 L-185.4 -7.797 L-185.6 -6.74 L-185.8 -5.683 L-185.9 -4.626 L-186.1 -3.569 L-186.3 -2.511 L-186.5 -1.454 L-186.7 -0.3969 L-186.9 0.6604 L-187.1 1.718 L-187.3 2.775 L-187.5 3.832 L-187.7 4.889 L-187.8 5.946 L-188 7.004 L-188.2 8.061 L-188.4 9.118 L-188.6 10.18 L-188.8 11.23 L-189 12.29 L-189.2 13.35 L-189.4 14.4 L-189.6 15.46 L-190.6 15.27 L-191.7 15.08 L-192.7 14.89 L-193.8 14.7 L-194.9 14.51 L-195.9 14.32 L-197 14.13 L-198 13.94 L-199.1 13.75 L-200.1 13.56 L-201.2 13.37 L-202.3 13.17 L-203.3 12.98 L-204.4 12.79 L-205.4 12.6 L-206.5 12.41 L-207.5 12.22 L-208.6 12.03 L-209.7 11.84 L-210.7 11.65 L-211.8 11.46 L-212.8 11.27 L-213.9 11.08 L-214.9 10.89 L-216 10.7 L-215.8 9.64 L-215.6 8.583 L-215.4 7.526 L-215.2 6.468 L-215 5.411 L-214.9 4.354 L-214.7 3.297 L-214.5 2.239 L-214.3 1.182 L-214.1 0.125 L-213.9 -0.9323 L-213.7 -1.989 L-213.5 -3.047 L-213.3 -4.104 L-213.1 -5.161 L-212.9 -6.218 L-212.8 -7.276 L-212.6 -8.333 L-212.4 -9.39 L-212.2 -10.45 L-212 -11.5 L-211.8 -12.56 L-211.6 -13.62 L-211.4 -14.68 L-211.2 -15.73 L-210.2 -15.54 L-209.1 -15.35 L-208.1 -15.16 L-207 -14.97 L-205.9 -14.78 L-204.9 -14.59 L-203.8 -14.4 L-202.8 -14.21 L-201.7 -14.02 L-200.7 -13.83 L-199.6 -13.64 L-198.5 -13.45 L-197.5 -13.26 L-196.4 -13.07 L-195.4 -12.87 L-194.3 -12.68 L-193.3 -12.49 L-192.2 -12.3 L-191.1 -12.11 L-190.1 -11.92 L-189 -11.73 L-188 -11.54 L-186.9 -11.35 L-185.9 -11.16 L-184.8 -10.97 Z " />
<path stroke="rgb(0,0,0)" stroke-opacity="0.803" fill="rgb(255,255,255)" fill-opacity="1" d="M124.9 200.1 L124.8 202.1 L124.6 204.1 L124.2 206 L123.6 207.9 L122.9 209.7 L122.1 211.5 L121.1 213.2 L120 214.9 L118.7 216.4 L117.4 217.9 L115.9 219.2 L114.3 220.4 L112.6 221.5 L110.9 222.4 L109.1 223.2 L107.2 223.8 L105.3 224.3 L103.3 224.7 L101.4 224.9 L99.4 224.9 L97.42 224.8 L95.46 224.5 L93.53 224 L91.64 223.5 L89.8 222.7 L88.03 221.8 L86.33 220.8 L84.72 219.7 L83.21 218.4 L81.8 217 L80.51 215.5 L79.34 213.9 L78.3 212.2 L77.4 210.4 L76.64 208.6 L76.03 206.7 L75.57 204.8 L75.27 202.9 L75.12 200.9 L75.13 198.9 L75.29 196.9 L75.61 195 L76.09 193.1 L76.72 191.2 L77.49 189.4 L78.41 187.6 L79.46 185.9 L80.65 184.3 L81.95 182.8 L83.37 181.5 L84.9 180.2 L86.52 179.1 L88.22 178.1 L90 177.2 L91.85 176.5 L93.74 175.9 L95.68 175.5 L97.64 175.2 L99.61 175.1 L101.6 175.1 L103.6 175.4 L105.5 175.7 L107.4 176.2 L109.3 176.9 L111.1 177.7 L112.8 178.7 L114.5 179.7 L116 181 L117.5 182.3 L118.9 183.7 L120.1 185.3 L121.2 186.9 L122.2 188.7 L123 190.5 L123.7 192.3 L124.2 194.2 L124.6 196.2 L124.8 198.1 L124.9 200.1 Z " />
<path stroke="rgb(0,0,0)" stroke-opacity="1" fill="rgb(255,255,255)" fill-opacity="1" d="M12.31 -12.43 L12.29 -11.43 L12.28 -10.43 L12.26 -9.434 L12.25 -8.434 L12.23 -7.435 L12.22 -6.435 L12.2 -5.436 L12.19 -4.437 L12.18 -3.437 L12.16 -2.438 L12.15 -1.438 L12.13 -0.4389 L12.12 0.5605 L12.1 1.56 L12.09 2.559 L12.07 3.559 L12.06 4.558 L12.04 5.558 L12.03 6.557 L12.01 7.556 L12 8.556 L11.99 9.555 L11.97 10.55 L11.96 11.55 L11.94 12.55 L10.94 12.54 L9.943 12.52 L8.944 12.51 L7.944 12.5 L6.945 12.48 L5.945 12.47 L4.946 12.45 L3.947 12.44 L2.947 12.42 L1.948 12.41 L0.9483 12.39 L-0.05113 12.38 L-1.051 12.36 L-2.05 12.35 L-3.049 12.34 L-4.049 12.32 L-5.048 12.31 L-6.048 12.29 L-7.047 12.28 L-8.046 12.26 L-9.046 12.25 L-10.05 12.23 L-11.04 12.22 L-12.04 12.2 L-13.04 12.19 L-13.03 11.19 L-13.01 10.19 L-13 9.191 L-12.99 8.192 L-12.97 7.192 L-12.96 6.193 L-12.94 5.193 L-12.93 4.194 L-12.91 3.195 L-12.9 2.195 L-12.88 1.196 L-12.87 0.1963 L-12.85 -0.8032 L-12.84 -1.803 L-12.83 -2.802 L-12.81 -3.801 L-12.8 -4.801 L-12.78 -5.8 L-12.77 -6.8 L-12.75 -7.799 L-12.74 -8.799 L-12.72 -9.798 L-12.71 -10.8 L-12.69 -11.8 L-12.68 -12.8 L-11.68 -12.78 L-10.68 -12.77 L-9.681 -12.75 L-8.682 -12.74 L-7.682 -12.72 L-6.683 -12.71 L-5.683 -12.69 L-4.684 -12.68 L-3.685 -12.67 L-2.685 -12.65 L-1.686 -12.64 L-0.6863 -12.62 L0.3132 -12.61 L1.313 -12.59 L2.312 -12.58 L3.311 -12.56 L4.311 -12.55 L5.31 -12.53 L6.31 -12.52 L7.309 -12.5 L8.309 -12.49 L9.308 -12.48 L10.31 -12.46 L11.31 -12.45 L12.31 -12.43 Z " />
<path stroke="rgb(0,0,0)" stroke-opacity="0.803" fill="rgb(255,255,255)" fill-opacity="1" d="M324.9 200.1 L324.8 202.1 L324.6 204.1 L324.2 206 L323.6 207.9 L322.9 209.7 L322.1 211.5 L321.1 213.2 L320 214.9 L318.7 216.4 L317.4 217.9 L315.9 219.2 L314.3 220.4 L312.6 221.5 L310.9 222.4 L309.1 223.2 L307.2 223.8 L305.3 224.3 L303.3 224.7 L301.4 224.9 L299.4 224.9 L297.4 224.8 L295.5 224.5 L293.5 224 L291.6 223.5 L289.8 222.7 L288 221.8 L286.3 220.8 L284.7 219.7 L283.2 218.4 L281.8 217 L280.5 215.5 L279.3 213.9 L278.3 212.2 L277.4 210.4 L276.6 208.6 L276 206.7 L275.6 204.8 L275.3 202.9 L275.1 200.9 L275.1 198.9 L275.3 196.9 L275.6 195 L276.1 193.1 L276.7 191.2 L277.5 189.4 L278.4 187.6 L279.5 185.9 L280.6 184.3 L282 182.8 L283.4 181.5 L284.9 180.2 L286.5 179.1 L288.2 178.1 L290 177.2 L291.8 176.5 L293.7 175.9 L295.7 175.5 L297.6 175.2 L299.6 175.1 L301.6 175.1 L303.6 175.4 L305.5 175.7 L307.4 176.2 L309.3 176.9 L311.1 177.7 L312.8 178.7 L314.5 179.7 L316 181 L317.5 182.3 L318.9 183.7 L320.1 185.3 L321.2 186.9 L322.2 188.7 L323 190.5 L323.7 192.3 L324.2 194.2 L324.6 196.2 L324.8 198.1 L324.9 200.1 Z " />
<path stroke="rgb(0,0,0)" stroke-opacity="1" fill="rgb(255,255,255)" fill-opacity="1" d="M-476.4 98.2 L-477.3 99.22 L-478.2 100.2 L-479.1 101.3 L-480 102.3 L-480.9 103.3 L-481.8 104.3 L-482.7 105.4 L-483.6 106.4 L-484.5 107.4 L-485.4 108.4 L-486.3 109.5 L-487.2 110.5 L-488.1 111.5 L-489 112.5 L-489.9 113.6 L-490.8 114.6 L-491.7 115.6 L-492.6 116.7 L-493.5 117.7 L-494.4 118.7 L-495.3 119.7 L-496.2 120.8 L-497.1 121.8 L-498 122.8 L-498.9 123.8 L-499.9 122.9 L-501 122 L-502 121.1 L-503 120.2 L-504 119.3 L-505.1 118.4 L-506.1 117.5 L-507.1 116.6 L-508.1 115.7 L-509.2 114.8 L-510.2 113.9 L-511.2 113 L-512.2 112.1 L-513.3 111.2 L-514.3 110.3 L-515.3 109.4 L-516.3 108.5 L-517.4 107.6 L-518.4 106.7 L-519.4 105.8 L-520.4 104.9 L-521.5 104 L-522.5 103.1 L-523.5 102.2 L-524.5 101.3 L-523.6 100.3 L-522.7 99.3 L-521.8 98.27 L-520.9 97.25 L-520 96.22 L-519.1 95.2 L-518.2 94.17 L-517.3 93.15 L-516.4 92.12 L-515.5 91.1 L-514.6 90.07 L-513.7 89.05 L-512.8 88.02 L-511.9 86.99 L-511 85.97 L-510.1 84.94 L-509.2 83.92 L-508.4 82.89 L-507.5 81.87 L-506.6 80.84 L-505.7 79.82 L-504.8 78.79 L-503.9 77.77 L-503 76.74 L-502.1 75.72 L-501 76.62 L-500 77.52 L-499 78.42 L-498 79.31 L-496.9 80.21 L-495.9 81.11 L-494.9 82.01 L-493.9 82.91 L-492.8 83.81 L-491.8 84.71 L-490.8 85.61 L-489.8 86.51 L-488.7 87.41 L-487.7 88.31 L-486.7 89.21 L-485.7 90.1 L-484.6 91 L-483.6 91.9 L-482.6 92.8 L-481.6 93.7 L-480.5 94.6 L-479.5 95.5 L-478.5 96.4 L-477.5 97.3 L-476.4 98.2 Z " />
<path stroke="rgb(0,0,0)" stroke-opacity="0.803" fill="rgb(255,255,255)" fill-opacity="1" d="M-175.1 300.1 L-175.2 302.1 L-175.4 304.1 L-175.8 306 L-176.4 307.9 L-177.1 309.7 L-177.9 311.5 L-178.9 313.2 L-180 314.9 L-181.3 316.4 L-182.6 317.9 L-184.1 319.2 L-185.7 320.4 L-187.4 321.5 L-189.1 322.4 L-190.9 323.2 L-192.8 323.8 L-194.7 324.3 L-196.7 324.7 L-198.6 324.9 L-200.6 324.9 L-202.6 324.8 L-204.5 324.5 L-206.5 324 L-208.4 323.5 L-210.2 322.7 L-212 321.8 L-213.7 320.8 L-215.3 319.7 L-216.8 318.4 L-218.2 317 L-219.5 315.5 L-220.7 313.9 L-221.7 312.2 L-222.6 310.4 L-223.4 308.6 L-224 306.7 L-224.4 304.8 L-224.7 302.9 L-224.9 300.9 L-224.9 298.9 L-224.7 296.9 L-224.4 295 L-223.9 293.1 L-223.3 291.2 L-222.5 289.4 L-221.6 287.6 L-220.5 285.9 L-219.4 284.3 L-218 282.8 L-216.6 281.5 L-215.1 280.2 L-213.5 279.1 L-211.8 278.1 L-210 277.2 L-208.2 276.5 L-206.3 275.9 L-204.3 275.5 L-202.4 275.2 L-200.4 275.1 L-198.4 275.1 L-196.4 275.4 L-194.5 275.7 L-192.6 276.2 L-190.7 276.9 L-188.9 277.7 L-187.2 278.7 L-185.5 279.7 L-184 281 L-182.5 282.3 L-181.1 283.7 L-179.9 285.3 L-178.8 286.9 L-177.8 288.7 L-177 290.5 L-176.3 292.3 L-175.8 294.2 L-175.4 296.2 L-175.2 298.1 L-175.1 300.1 Z " />
<path stroke="rgb(0,0,0)" stroke-opacity="1" fill="rgb(255,255,255)" fill-opacity="1" d="M-284.8 89.03 L-285 90.09 L-285.2 91.15 L-285.4 92.2 L-285.6 93.26 L-285.8 94.32 L-285.9 95.37 L-286.1 96.43 L-286.3 97.49 L-286.5 98.55 L-286.7 99.6 L-286.9 100.7 L-287.1 101.7 L-287.3 102.8 L-287.5 103.8 L-287.7 104.9 L-287.8 105.9 L-288 107 L-288.2 108.1 L-288.4 109.1 L-288.6 110.2 L-288.8 111.2 L-289 112.3 L-289.2 113.3 L-289.4 114.4 L-289.6 115.5 L-290.6 115.3 L-291.7 115.1 L-292.7 114.9 L-293.8 114.7 L-294.9 114.5 L-295.9 114.3 L-297 114.1 L-298 113.9 L-299.1 113.7 L-300.1 113.6 L-301.2 113.4 L-302.3 113.2 L-303.3 113 L-304.4 112.8 L-305.4 112.6 L-306.5 112.4 L-307.5 112.2 L-308.6 112 L-309.7 111.8 L-310.7 111.7 L-311.8 111.5 L-312.8 111.3 L-313.9 111.1 L-314.9 110.9 L-316 110.7 L-315.8 109.6 L-315.6 108.6 L-315.4 107.5 L-315.2 106.5 L-315 105.4 L-314.9 104.4 L-314.7 103.3 L-314.5 102.2 L-314.3 101.2 L-314.1 100.1 L-313.9 99.07 L-313.7 98.01 L-313.5 96.95 L-313.3 95.9 L-313.1 94.84 L-312.9 93.78 L-312.8 92.72 L-312.6 91.67 L-312.4 90.61 L-312.2 89.55 L-312 88.5 L-311.8 87.44 L-311.6 86.38 L-311.4 85.32 L-311.2 84.27 L-310.2 84.46 L-309.1 84.65 L-308.1 84.84 L-307 85.03 L-305.9 85.22 L-304.9 85.41 L-303.8 85.6 L-302.8 85.79 L-301.7 85.98 L-300.7 86.17 L-299.6 86.36 L-298.5 86.55 L-297.5 86.74 L-296.4 86.93 L-295.4 87.13 L-294.3 87.32 L-293.3 87.51 L-292.2 87.7 L-291.1 87.89 L-290.1 88.08 L-289 88.27 L-288 88.46 L-286.9 88.65 L-285.9 88.84 L-284.8 89.03 Z " />
<path stroke="rgb(0,0,0)" stroke-opacity="0.803" fill="rgb(255,255,255)" fill-opacity="1" d="M24.9 300.1 L24.81 302.1 L24.57 304.1 L24.17 306 L23.62 307.9 L22.92 309.7 L22.07 311.5 L21.08 313.2 L19.96 314.9 L18.72 316.4 L17.35 317.9 L15.88 319.2 L14.31 320.4 L12.64 321.5 L10.9 322.4 L9.085 323.2 L7.214 323.8 L5.298 324.3 L3.348 324.7 L1.377 324.9 L-0.6025 324.9 L-2.578 324.8 L-4.538 324.5 L-6.469 324 L-8.359 323.5 L-10.2 322.7 L-11.97 321.8 L-13.67 320.8 L-15.28 319.7 L-16.79 318.4 L-18.2 317 L-19.49 315.5 L-20.66 313.9 L-21.7 312.2 L-22.6 310.4 L-23.36 308.6 L-23.97 306.7 L-24.43 304.8 L-24.73 302.9 L-24.88 300.9 L-24.87 298.9 L-24.71 296.9 L-24.39 295 L-23.91 293.1 L-23.28 291.2 L-22.51 289.4 L-21.59 287.6 L-20.54 285.9 L-19.35 284.3 L-18.05 282.8 L-16.63 281.5 L-15.1 280.2 L-13.48 279.1 L-11.78 278.1 L-9.997 277.2 L-8.153 276.5 L-6.258 275.9 L-4.324 275.5 L-2.362 275.2 L-0.3851 275.1 L1.594 275.1 L3.563 275.4 L5.51 275.7 L7.422 276.2 L9.287 276.9 L11.09 277.7 L12.83 278.7 L14.48 279.7 L16.05 281 L17.51 282.3 L18.86 283.7 L20.09 285.3 L21.2 286.9 L22.17 288.7 L23 290.5 L23.69 292.3 L24.22 294.2 L24.6 296.2 L24.83 298.1 L24.9 300.1 Z " />
<path stroke="rgb(0,0,0)" stroke-opacity="1" fill="rgb(255,255,255)" fill-opacity="1" d="M-87.69 87.57 L-87.71 88.57 L-87.72 89.57 L-87.74 90.57 L-87.75 91.57 L-87.77 92.57 L-87.78 93.56 L-87.8 94.56 L-87.81 95.56 L-87.82 96.56 L-87.84 97.56 L-87.85 98.56 L-87.87 99.56 L-87.88 100.6 L-87.9 101.6 L-87.91 102.6 L-87.93 103.6 L-87.94 104.6 L-87.96 105.6 L-87.97 106.6 L-87.99 107.6 L-88 108.6 L-88.01 109.6 L-88.03 110.6 L-88.04 111.6 L-88.06 112.6 L-89.06 112.5 L-90.06 112.5 L-91.06 112.5 L-92.06 112.5 L-93.06 112.5 L-94.05 112.5 L-95.05 112.5 L-96.05 112.4 L-97.05 112.4 L-98.05 112.4 L-99.05 112.4 L-100.1 112.4 L-101.1 112.4 L-102 112.3 L-103 112.3 L-104 112.3 L-105 112.3 L-106 112.3 L-107 112.3 L-108 112.3 L-109 112.2 L-110 112.2 L-111 112.2 L-112 112.2 L-113 112.2 L-113 111.2 L-113 110.2 L-113 109.2 L-113 108.2 L-113 107.2 L-113 106.2 L-112.9 105.2 L-112.9 104.2 L-112.9 103.2 L-112.9 102.2 L-112.9 101.2 L-112.9 100.2 L-112.9 99.2 L-112.8 98.2 L-112.8 97.2 L-112.8 96.2 L-112.8 95.2 L-112.8 94.2 L-112.8 93.2 L-112.8 92.2 L-112.7 91.2 L-112.7 90.2 L-112.7 89.2 L-112.7 88.2 L-112.7 87.2 L-111.7 87.22 L-110.7 87.23 L-109.7 87.25 L-108.7 87.26 L-107.7 87.28 L-106.7 87.29 L-105.7 87.31 L-104.7 87.32 L-103.7 87.33 L-102.7 87.35 L-101.7 87.36 L-100.7 87.38 L-99.69 87.39 L-98.69 87.41 L-97.69 87.42 L-96.69 87.44 L-95.69 87.45 L-94.69 87.47 L-93.69 87.48 L-92.69 87.5 L-91.69 87.51 L-90.69 87.52 L-89.69 87.54 L-88.69 87.55 L-87.69 87.57 Z " />
<path stroke="rgb(0,0,0)" stroke-opacity="0.803" fill="rgb(255,255,255)" fill-opacity="1" d="M224.9 300.1 L224.8 302.1 L224.6 304.1 L224.2 306 L223.6 307.9 L222.9 309.7 L222.1 311.5 L221.1 313.2 L220 314.9 L218.7 316.4 L217.4 317.9 L215.9 319.2 L214.3 320.4 L212.6 321.5 L210.9 322.4 L209.1 323.2 L207.2 323.8 L205.3 324.3 L203.3 324.7 L201.4 324.9 L199.4 324.9 L197.4 324.8 L195.5 324.5 L193.5 324 L191.6 323.5 L189.8 322.7 L188 321.8 L186.3 320.8 L184.7 319.7 L183.2 318.4 L181.8 317 L180.5 315.5 L179.3 313.9 L178.3 312.2 L177.4 310.4 L176.6 308.6 L176 306.7 L175.6 304.8 L175.3 302.9 L175.1 300.9 L175.1 298.9 L175.3 296.9 L175.6 295 L176.1 293.1 L176.7 291.2 L177.5 289.4 L178.4 287.6 L179.5 285.9 L180.6 284.3 L182 282.8 L183.4 281.5 L184.9 280.2 L186.5 279.1 L188.2 278.1 L190 277.2 L191.8 276.5 L193.7 275.9 L195.7 275.5 L197.6 275.2 L199.6 275.1 L201.6 275.1 L203.6 275.4 L205.5 275.7 L207.4 276.2 L209.3 276.9 L211.1 277.7 L212.8 278.7 L214.5 279.7 L216 281 L217.5 282.3 L218.9 283.7 L220.1 285.3 L221.2 286.9 L222.2 288.7 L223 290.5 L223.7 292.3 L224.2 294.2 L224.6 296.2 L224.8 298.1 L224.9 300.1 Z " />
<path stroke="rgb(0,0,0)" stroke-opacity="1" fill="rgb(255,255,255)" fill-opacity="1" d="M112.1 87.49 L112.1 88.48 L112.1 89.48 L112.1 90.47 L112.1 91.47 L112.1 92.46 L112.1 93.46 L112.1 94.45 L112.1 95.45 L112.1 96.44 L112.1 97.43 L112.1 98.43 L112.1 99.42 L112.1 100.4 L112.1 101.4 L112.1 102.4 L112.1 103.4 L112.1 104.4 L112 105.4 L112 106.4 L112 107.4 L112 108.4 L112 109.4 L112 110.4 L112 111.4 L112 112.4 L111 112.4 L110 112.3 L109 112.3 L108 112.3 L107.1 112.3 L106.1 112.3 L105.1 112.3 L104.1 112.3 L103.1 112.3 L102.1 112.3 L101.1 112.3 L100.1 112.3 L99.09 112.3 L98.1 112.3 L97.1 112.3 L96.11 112.3 L95.12 112.3 L94.12 112.3 L93.13 112.3 L92.13 112.3 L91.14 112.3 L90.14 112.3 L89.15 112.3 L88.15 112.3 L87.16 112.3 L87.16 111.3 L87.17 110.3 L87.17 109.3 L87.17 108.3 L87.18 107.3 L87.18 106.3 L87.18 105.3 L87.19 104.3 L87.19 103.3 L87.19 102.3 L87.2 101.3 L87.2 100.3 L87.2 99.34 L87.21 98.35 L87.21 97.35 L87.21 96.36 L87.22 95.36 L87.22 94.37 L87.22 93.37 L87.23 92.38 L87.23 91.38 L87.23 90.39 L87.24 89.39 L87.24 88.4 L87.24 87.4 L88.24 87.41 L89.23 87.41 L90.23 87.41 L91.22 87.42 L92.22 87.42 L93.21 87.43 L94.2 87.43 L95.2 87.43 L96.19 87.44 L97.19 87.44 L98.18 87.44 L99.18 87.45 L100.2 87.45 L101.2 87.45 L102.2 87.46 L103.2 87.46 L104.2 87.46 L105.1 87.47 L106.1 87.47 L107.1 87.47 L108.1 87.48 L109.1 87.48 L110.1 87.48 L111.1 87.49 L112.1 87.49 Z " />
</g>
</g>
</svg>
