<!DOCTYPE svg>
<svg xmlns="http://www.w3.org/2000/svg" xmlns:xlink="http://www.w3.org/1999/xlink" width="1000" height="1000">
<g transform="translate(500.000000,500.000000)">
<g transform="scale(3.000000,3.000000)">
<path stroke="rgb(0,0,0)" stroke-opacity="1" fill="rgb(255,255,255)" fill-opacity="1" d="M-713.9 -689.5 L-713.9 -690.5 L-713.8 -691.4 L-713.8 -692.4 L-713.8 -693.4 L-713.7 -694.4 L-713.7 -695.4 L-713.7 -696.4 L-713.7 -697.4 L-713.6 -698.3 L-713.6 -699.3 L-713.6 -700.3 L-713.6 -701.3 L-713.5 -702.3 L-713.5 -703.3 L-713.5 -704.3 L-713.4 -705.2 L-713.4 -706.2 L-713.4 -707.2 L-713.4 -708.2 L-713.3 -709.2 L-713.3 -710.2 L-713.3 -711.2 L-713.3 -712.2 L-713.2 -713.1 L-713.2 -714.1 L-712.2 -714.1 L-711.2 -714.1 L-710.2 -714 L-709.3 -714 L-708.3 -714 L-707.3 -714 L-706.3 -713.9 L-705.3 -713.9 L-704.3 -713.9 L-703.3 -713.9 L-702.4 -713.8 L-701.4 -713.8 L-700.4 -713.8 L-699.4 -713.7 L-698.4 -713.7 L-697.4 -713.7 L-696.4 -713.7 L-695.5 -713.6 L-694.5 -713.6 L-693.5 -713.6 L-692.5 -713.6 L-691.5 -713.5 L-690.5 -713.5 L-689.5 -713.5 L-688.6 -713.5 L-688.6 -712.5 L-688.6 -711.5 L-688.6 -710.5 L-688.7 -709.5 L-688.7 -708.5 L-688.7 -707.5 L-688.7 -706.5 L-688.8 -705.6 L-688.8 -704.6 L-688.8 -703.6 L-688.9 -702.6 L-688.9 -701.6 L-688.9 -700.6 L-688.9 -699.6 L-689 -698.7 L-689 -697.7 L-689 -696.7 L-689 -695.7 L-689.1 -694.7 L-689.1 -693.7 L-689.1 -692.7 L-689.2 -691.8 L-689.2 -690.8 L-689.2 -689.8 L-689.2 -688.8 L-690.2 -688.8 L-691.2 -688.9 L-692.2 -688.9 L-693.2 -688.9 L-694.2 -688.9 L-695.1 -689 L-696.1 -689 L-697.1 -689 L-698.1 -689 L-699.1 -689.1 L-700.1 -689.1 L-701.1 -689.1 L-702 -689.2 L-703 -689.2 L-704 -689.2 L-705 -689.2 L-706 -689.3 L-707 -689.3 L-708 -689.3 L-708.9 -689.3 L-709.9 -689.4 L-710.9 -689.4 L-711.9 -689.4 L-712.9 -689.4 L-713.9 -689.5 Z " />
<path stroke="rgb(0,0,0)" stroke-opacity="1" fill="rgb(255,255,255)" fill-opacity="1" d="M-197.5 -312.9 L-196.5 -312.7 L-195.5 -312.4 L-194.5 -312 L-193.5 -311.6 L-192.6 -311.1 L-191.8 -310.5 L-190.9 -309.8 L-190.2 -309.1 L-189.5 -308.3 L-188.8 -307.4 L-188.3 -306.5 L-187.8 -305.6 L-187.3 -304.7 L-187 -303.7 L-186.7 -302.6 L-186.6 -301.6 L-186.5 -300.5 L-186.4 -299.5 L-186.5 -298.4 L-186.7 -297.4 L-186.9 -296.4 L-187.2 -295.4 L-187.6 -294.4 L-188.1 -293.4 L-188.6 -292.5 L-189.3 -291.7 L-189.9 -290.9 L-190.7 -290.1 L-191.5 -289.4 L-192.3 -288.8 L-193.2 -288.3 L-194.2 -287.8 L-195.1 -287.4 L-196.2 -287.1 L-197.2 -286.8 L-198.2 -286.6 L-199.3 -286.6 L-200.3 -286.6 L-201.4 -286.7 L-202.4 -286.8 L-203.4 -287.1 L-204.4 -287.4 L-205.4 -287.9 L-206.3 -288.3 L-207.2 -288.9 L-208.1 -289.5 L-208.9 -290.2 L-209.6 -291 L-210.3 -291.8 L-210.9 -292.7 L-211.4 -293.6 L-211.9 -294.5 L-212.3 -295.5 L-212.6 -296.5 L-212.8 -297.6 L-212.9 -298.6 L-213 -299.7 L-213 -300.7 L-212.8 -301.8 L-212.7 -302.8 L-212.4 -303.8 L-212 -304.8 L-211.6 -305.8 L-211.1 -306.7 L-210.5 -307.6 L-209.8 -308.4 L-209.1 -309.2 L-208.4 -309.9 L-207.5 -310.6 L-206.7 -311.1 L-205.7 -311.7 L-204.8 -312.1 L-203.8 -312.5 L-202.8 -312.8 L-201.7 -313 L-200.7 -313.1 L-199.6 -313.1 L-198.6 -313.1 L-197.5 -312.9 Z " />
<path stroke="rgb(0,0,0)" stroke-opacity="1" fill="rgb(255,255,255)" fill-opacity="1" d="M-512.6 -688.2 L-512.6 -689.2 L-512.6 -690.1 L-512.6 -691.1 L-512.5 -692.1 L-512.5 -693.1 L-512.5 -694.1 L-512.5 -695.1 L-512.5 -696.1 L-512.5 -697.1 L-512.5 -698 L-512.5 -699 L-512.5 -700 L-512.5 -701 L-512.4 -702 L-512.4 -703 L-512.4 -704 L-512.4 -704.9 L-512.4 -705.9 L-512.4 -706.9 L-512.4 -707.9 L-512.4 -708.9 L-512.4 -709.9 L-512.4 -710.9 L-512.3 -711.8 L-512.3 -712.8 L-511.3 -712.8 L-510.4 -712.8 L-509.4 -712.8 L-508.4 -712.8 L-507.4 -712.8 L-506.4 -712.8 L-505.4 -712.8 L-504.4 -712.7 L-503.5 -712.7 L-502.5 -712.7 L-501.5 -712.7 L-500.5 -712.7 L-499.5 -712.7 L-498.5 -712.7 L-497.5 -712.7 L-496.6 -712.7 L-495.6 -712.7 L-494.6 -712.6 L-493.6 -712.6 L-492.6 -712.6 L-491.6 -712.6 L-490.6 -712.6 L-489.7 -712.6 L-488.7 -712.6 L-487.7 -712.6 L-487.7 -711.6 L-487.7 -710.6 L-487.7 -709.6 L-487.7 -708.6 L-487.7 -707.6 L-487.7 -706.7 L-487.8 -705.7 L-487.8 -704.7 L-487.8 -703.7 L-487.8 -702.7 L-487.8 -701.7 L-487.8 -700.7 L-487.8 -699.8 L-487.8 -698.8 L-487.8 -697.8 L-487.8 -696.8 L-487.9 -695.8 L-487.9 -694.8 L-487.9 -693.8 L-487.9 -692.9 L-487.9 -691.9 L-487.9 -690.9 L-487.9 -689.9 L-487.9 -688.9 L-487.9 -687.9 L-488.9 -687.9 L-489.9 -687.9 L-490.9 -688 L-491.9 -688 L-492.9 -688 L-493.8 -688 L-494.8 -688 L-495.8 -688 L-496.8 -688 L-497.8 -688 L-498.8 -688 L-499.8 -688 L-500.8 -688.1 L-501.7 -688.1 L-502.7 -688.1 L-503.7 -688.1 L-504.7 -688.1 L-505.7 -688.1 L-506.7 -688.1 L-507.7 -688.1 L-508.6 -688.1 L-509.6 -688.1 L-510.6 -688.2 L-511.6 -688.2 L-512.6 -688.2 Z " />
<path stroke="rgb(0,0,0)" stroke-opacity="1" fill="rgb(255,255,255)" fill-opacity="1" d="M15.83 -310.5 L16.62 -309.2 L17.32 -307.9 L17.9 -306.5 L18.37 -305.1 L18.73 -303.6 L18.97 -302.1 L19.08 -300.6 L19.08 -299.1 L18.96 -297.6 L18.72 -296.1 L18.36 -294.6 L17.89 -293.2 L17.31 -291.8 L16.61 -290.5 L15.81 -289.2 L14.92 -288 L13.92 -286.8 L12.85 -285.8 L11.69 -284.8 L10.45 -283.9 L9.157 -283.2 L7.802 -282.5 L6.399 -282 L4.956 -281.5 L3.482 -281.2 L1.987 -281 L0.4802 -280.9 L-1.029 -280.9 L-2.531 -281.1 L-4.016 -281.3 L-5.475 -281.7 L-6.898 -282.2 L-8.278 -282.8 L-9.604 -283.6 L-10.87 -284.4 L-12.06 -285.3 L-13.18 -286.3 L-14.22 -287.4 L-15.16 -288.6 L-16.01 -289.8 L-16.75 -291.2 L-17.39 -292.5 L-17.92 -293.9 L-18.33 -295.4 L-18.63 -296.9 L-18.81 -298.4 L-18.87 -299.9 L-18.81 -301.4 L-18.62 -302.9 L-18.33 -304.4 L-17.91 -305.8 L-17.38 -307.2 L-16.74 -308.6 L-15.99 -309.9 L-15.14 -311.2 L-14.2 -312.3 L-13.16 -313.4 L-12.04 -314.4 L-10.85 -315.4 L-9.581 -316.2 L-8.254 -316.9 L-6.874 -317.5 L-5.449 -318 L-3.99 -318.4 L-2.504 -318.7 L-1.002 -318.8 L0.5068 -318.8 L2.013 -318.8 L3.508 -318.5 L4.981 -318.2 L6.424 -317.8 L7.826 -317.2 L9.18 -316.5 L10.48 -315.8 L11.71 -314.9 L12.87 -313.9 L13.94 -312.9 L14.93 -311.7 L15.83 -310.5 Z " />
<path stroke="rgb(0,0,0)" stroke-opacity="1" fill="rgb(255,255,255)" fill-opacity="1" d="M-312.6 -688.2 L-312.6 -689.1 L-312.5 -690.1 L-312.5 -691.1 L-312.5 -692.1 L-312.5 -693.1 L-312.5 -694.1 L-312.5 -695.1 L-312.5 -696 L-312.5 -697 L-312.5 -698 L-312.5 -699 L-312.4 -700 L-312.4 -701 L-312.4 -702 L-312.4 -702.9 L-312.4 -703.9 L-312.4 -704.9 L-312.4 -705.9 L-312.4 -706.9 L-312.4 -707.9 L-312.4 -708.9 L-312.4 -709.8 L-312.3 -710.8 L-312.3 -711.8 L-312.3 -712.8 L-311.3 -712.8 L-310.3 -712.8 L-309.4 -712.8 L-308.4 -712.8 L-307.4 -712.8 L-306.4 -712.7 L-305.4 -712.7 L-304.4 -712.7 L-303.4 -712.7 L-302.5 -712.7 L-301.5 -712.7 L-300.5 -712.7 L-299.5 -712.7 L-298.5 -712.7 L-297.5 -712.7 L-296.5 -712.7 L-295.6 -712.6 L-294.6 -712.6 L-293.6 -712.6 L-292.6 -712.6 L-291.6 -712.6 L-290.6 -712.6 L-289.6 -712.6 L-288.7 -712.6 L-287.7 -712.6 L-287.7 -711.6 L-287.7 -710.6 L-287.7 -709.6 L-287.7 -708.6 L-287.7 -707.6 L-287.7 -706.6 L-287.7 -705.7 L-287.7 -704.7 L-287.8 -703.7 L-287.8 -702.7 L-287.8 -701.7 L-287.8 -700.7 L-287.8 -699.7 L-287.8 -698.8 L-287.8 -697.8 L-287.8 -696.8 L-287.8 -695.8 L-287.8 -694.8 L-287.9 -693.8 L-287.9 -692.8 L-287.9 -691.9 L-287.9 -690.9 L-287.9 -689.9 L-287.9 -688.9 L-287.9 -687.9 L-288.9 -687.9 L-289.9 -687.9 L-290.9 -687.9 L-291.9 -688 L-292.8 -688 L-293.8 -688 L-294.8 -688 L-295.8 -688 L-296.8 -688 L-297.8 -688 L-298.8 -688 L-299.7 -688 L-300.7 -688 L-301.7 -688 L-302.7 -688.1 L-303.7 -688.1 L-304.7 -688.1 L-305.7 -688.1 L-306.6 -688.1 L-307.6 -688.1 L-308.6 -688.1 L-309.6 -688.1 L-310.6 -688.1 L-311.6 -688.1 L-312.6 -688.2 Z " />
<path stroke="rgb(0,0,0)" stroke-opacity="1" fill="rgb(255,255,255)" fill-opacity="1" d="M224.2 -301.1 L224.2 -299.2 L224 -297.3 L223.8 -295.4 L223.3 -293.5 L222.7 -291.7 L222 -289.9 L221.1 -288.2 L220.1 -286.6 L219 -285 L217.8 -283.5 L216.4 -282.2 L214.9 -280.9 L213.4 -279.8 L211.7 -278.8 L210 -278 L208.2 -277.2 L206.4 -276.7 L204.5 -276.2 L202.6 -275.9 L200.7 -275.8 L198.8 -275.8 L196.9 -276 L195 -276.3 L193.1 -276.8 L191.3 -277.4 L189.5 -278.2 L187.8 -279.1 L186.2 -280.1 L184.7 -281.3 L183.2 -282.6 L181.9 -284 L180.7 -285.5 L179.6 -287 L178.6 -288.7 L177.8 -290.4 L177.1 -292.2 L176.6 -294.1 L176.2 -296 L175.9 -297.9 L175.8 -299.8 L175.9 -301.7 L176.1 -303.6 L176.5 -305.5 L177 -307.4 L177.6 -309.2 L178.4 -310.9 L179.4 -312.6 L180.4 -314.2 L181.6 -315.7 L182.9 -317.1 L184.4 -318.4 L185.9 -319.6 L187.5 -320.7 L189.2 -321.6 L190.9 -322.4 L192.7 -323 L194.6 -323.6 L196.5 -323.9 L198.4 -324.1 L200.3 -324.2 L202.2 -324.1 L204.1 -323.8 L206 -323.4 L207.8 -322.9 L209.6 -322.2 L211.4 -321.3 L213 -320.4 L214.6 -319.3 L216.1 -318 L217.5 -316.7 L218.8 -315.3 L219.9 -313.7 L220.9 -312.1 L221.8 -310.4 L222.6 -308.6 L223.2 -306.8 L223.7 -305 L224 -303.1 L224.2 -301.1 Z " />
<path stroke="rgb(0,0,0)" stroke-opacity="1" fill="rgb(255,255,255)" fill-opacity="1" d="M-112.6 -688.2 L-112.6 -689.1 L-112.5 -690.1 L-112.5 -691.1 L-112.5 -692.1 L-112.5 -693.1 L-112.5 -694.1 L-112.5 -695.1 L-112.5 -696 L-112.5 -697 L-112.5 -698 L-112.5 -699 L-112.4 -700 L-112.4 -701 L-112.4 -702 L-112.4 -702.9 L-112.4 -703.9 L-112.4 -704.9 L-112.4 -705.9 L-112.4 -706.9 L-112.4 -707.9 L-112.4 -708.9 L-112.4 -709.8 L-112.3 -710.8 L-112.3 -711.8 L-112.3 -712.8 L-111.3 -712.8 L-110.3 -712.8 L-109.4 -712.8 L-108.4 -712.8 L-107.4 -712.8 L-106.4 -712.7 L-105.4 -712.7 L-104.4 -712.7 L-103.4 -712.7 L-102.5 -712.7 L-101.5 -712.7 L-100.5 -712.7 L-99.5 -712.7 L-98.51 -712.7 L-97.53 -712.7 L-96.54 -712.7 L-95.56 -712.6 L-94.57 -712.6 L-93.58 -712.6 L-92.6 -712.6 L-91.61 -712.6 L-90.63 -712.6 L-89.64 -712.6 L-88.65 -712.6 L-87.67 -712.6 L-87.68 -711.6 L-87.69 -710.6 L-87.7 -709.6 L-87.71 -708.6 L-87.72 -707.6 L-87.73 -706.6 L-87.74 -705.7 L-87.74 -704.7 L-87.75 -703.7 L-87.76 -702.7 L-87.77 -701.7 L-87.78 -700.7 L-87.79 -699.7 L-87.8 -698.8 L-87.81 -697.8 L-87.82 -696.8 L-87.83 -695.8 L-87.84 -694.8 L-87.85 -693.8 L-87.86 -692.8 L-87.87 -691.9 L-87.88 -690.9 L-87.89 -689.9 L-87.9 -688.9 L-87.91 -687.9 L-88.9 -687.9 L-89.88 -687.9 L-90.87 -687.9 L-91.85 -688 L-92.84 -688 L-93.83 -688 L-94.81 -688 L-95.8 -688 L-96.79 -688 L-97.77 -688 L-98.76 -688 L-99.74 -688 L-100.7 -688 L-101.7 -688 L-102.7 -688.1 L-103.7 -688.1 L-104.7 -688.1 L-105.7 -688.1 L-106.6 -688.1 L-107.6 -688.1 L-108.6 -688.1 L-109.6 -688.1 L-110.6 -688.1 L-111.6 -688.1 L-112.6 -688.2 Z " />
<path stroke="rgb(0,0,0)" stroke-opacity="1" fill="rgb(255,255,255)" fill-opacity="1" d="M-297.5 -212.9 L-296.5 -212.7 L-295.5 -212.4 L-294.5 -212 L-293.5 -211.6 L-292.6 -211.1 L-291.8 -210.5 L-290.9 -209.8 L-290.2 -209.1 L-289.5 -208.3 L-288.8 -207.4 L-288.3 -206.5 L-287.8 -205.6 L-287.3 -204.7 L-287 -203.7 L-286.7 -202.6 L-286.6 -201.6 L-286.5 -200.5 L-286.4 -199.5 L-286.5 -198.4 L-286.7 -197.4 L-286.9 -196.4 L-287.2 -195.4 L-287.6 -194.4 L-288.1 -193.4 L-288.6 -192.5 L-289.3 -191.7 L-289.9 -190.9 L-290.7 -190.1 L-291.5 -189.4 L-292.3 -188.8 L-293.2 -188.3 L-294.2 -187.8 L-295.1 -187.4 L-296.2 -187.1 L-297.2 -186.8 L-298.2 -186.6 L-299.3 -186.6 L-300.3 -186.6 L-301.4 -186.7 L-302.4 -186.8 L-303.4 -187.1 L-304.4 -187.4 L-305.4 -187.9 L-306.3 -188.3 L-307.2 -188.9 L-308.1 -189.5 L-308.9 -190.2 L-309.6 -191 L-310.3 -191.8 L-310.9 -192.7 L-311.4 -193.6 L-311.9 -194.5 L-312.3 -195.5 L-312.6 -196.5 L-312.8 -197.6 L-312.9 -198.6 L-313 -199.7 L-313 -200.7 L-312.8 -201.8 L-312.7 -202.8 L-312.4 -203.8 L-312 -204.8 L-311.6 -205.8 L-311.1 -206.7 L-310.5 -207.6 L-309.8 -208.4 L-309.1 -209.2 L-308.4 -209.9 L-307.5 -210.6 L-306.7 -211.1 L-305.7 -211.7 L-304.8 -212.1 L-303.8 -212.5 L-302.8 -212.8 L-301.7 -213 L-300.7 -213.1 L-299.6 -213.1 L-298.6 -213.1 L-297.5 -212.9 Z " />
<path stroke="rgb(0,0,0)" stroke-opacity="1" fill="rgb(255,255,255)" fill-opacity="1" d="M-612.6 -588.2 L-612.6 -589.2 L-612.6 -590.1 L-612.6 -591.1 L-612.5 -592.1 L-612.5 -593.1 L-612.5 -594.1 L-612.5 -595.1 L-612.5 -596.1 L-612.5 -597.1 L-612.5 -598 L-612.5 -599 L-612.5 -600 L-612.5 -601 L-612.4 -602 L-612.4 -603 L-612.4 -604 L-612.4 -604.9 L-612.4 -605.9 L-612.4 -606.9 L-612.4 -607.9 L-612.4 -608.9 L-612.4 -609.9 L-612.4 -610.9 L-612.3 -611.8 L-612.3 -612.8 L-611.3 -612.8 L-610.4 -612.8 L-609.4 -612.8 L-608.4 -612.8 L-607.4 -612.8 L-606.4 -612.8 L-605.4 -612.8 L-604.4 -612.7 L-603.5 -612.7 L-602.5 -612.7 L-601.5 -612.7 L-600.5 -612.7 L-599.5 -612.7 L-598.5 -612.7 L-597.5 -612.7 L-596.6 -612.7 L-595.6 -612.7 L-594.6 -612.6 L-593.6 -612.6 L-592.6 -612.6 L-591.6 -612.6 L-590.6 -612.6 L-589.7 -612.6 L-588.7 -612.6 L-587.7 -612.6 L-587.7 -611.6 L-587.7 -610.6 L-587.7 -609.6 L-587.7 -608.6 L-587.7 -607.6 L-587.7 -606.7 L-587.8 -605.7 L-587.8 -604.7 L-587.8 -603.7 L-587.8 -602.7 L-587.8 -601.7 L-587.8 -600.7 L-587.8 -599.8 L-587.8 -598.8 L-587.8 -597.8 L-587.8 -596.8 L-587.9 -595.8 L-587.9 -594.8 L-587.9 -593.8 L-587.9 -592.9 L-587.9 -591.9 L-587.9 -590.9 L-587.9 -589.9 L-587.9 -588.9 L-587.9 -587.9 L-588.9 -587.9 L-589.9 -587.9 L-590.9 -588 L-591.9 -588 L-592.9 -588 L-593.8 -588 L-594.8 -588 L-595.8 -588 L-596.8 -588 L-597.8 -588 L-598.8 -588 L-599.8 -588 L-600.8 -588.1 L-601.7 -588.1 L-602.7 -588.1 L-603.7 -588.1 L-604.7 -588.1 L-605.7 -588.1 L-606.7 -588.1 L-607.7 -588.1 L-608.6 -588.1 L-609.6 -588.1 L-610.6 -588.2 L-611.6 -588.2 L-612.6 -588.2 Z " />
<path stroke="rgb(0,0,0)" stroke-opacity="1" fill="rgb(255,255,255)" fill-opacity="1" d="M-84.17 -210.5 L-83.38 -209.2 L-82.68 -207.9 L-82.1 -206.5 L-81.63 -205.1 L-81.27 -203.6 L-81.03 -202.1 L-80.92 -200.6 L-80.92 -199.1 L-81.04 -197.6 L-81.28 -196.1 L-81.64 -194.6 L-82.11 -193.2 L-82.69 -191.8 L-83.39 -190.5 L-84.19 -189.2 L-85.08 -188 L-86.08 -186.8 L-87.15 -185.8 L-88.31 -184.8 L-89.55 -183.9 L-90.84 -183.2 L-92.2 -182.5 L-93.6 -182 L-95.04 -181.5 L-96.52 -181.2 L-98.01 -181 L-99.52 -180.9 L-101 -180.9 L-102.5 -181.1 L-104 -181.3 L-105.5 -181.7 L-106.9 -182.2 L-108.3 -182.8 L-109.6 -183.6 L-110.9 -184.4 L-112.1 -185.3 L-113.2 -186.3 L-114.2 -187.4 L-115.2 -188.6 L-116 -189.8 L-116.8 -191.2 L-117.4 -192.5 L-117.9 -193.9 L-118.3 -195.4 L-118.6 -196.9 L-118.8 -198.4 L-118.9 -199.9 L-118.8 -201.4 L-118.6 -202.9 L-118.3 -204.4 L-117.9 -205.8 L-117.4 -207.2 L-116.7 -208.6 L-116 -209.9 L-115.1 -211.2 L-114.2 -212.3 L-113.2 -213.4 L-112 -214.4 L-110.8 -215.4 L-109.6 -216.2 L-108.3 -216.9 L-106.9 -217.5 L-105.4 -218 L-104 -218.4 L-102.5 -218.7 L-101 -218.8 L-99.49 -218.8 L-97.99 -218.8 L-96.49 -218.5 L-95.02 -218.2 L-93.58 -217.8 L-92.17 -217.2 L-90.82 -216.5 L-89.52 -215.8 L-88.29 -214.9 L-87.13 -213.9 L-86.06 -212.9 L-85.07 -211.7 L-84.17 -210.5 Z " />
<path stroke="rgb(0,0,0)" stroke-opacity="1" fill="rgb(255,255,255)" fill-opacity="1" d="M-412.6 -588.2 L-412.6 -589.1 L-412.5 -590.1 L-412.5 -591.1 L-412.5 -592.1 L-412.5 -593.1 L-412.5 -594.1 L-412.5 -595.1 L-412.5 -596 L-412.5 -597 L-412.5 -598 L-412.5 -599 L-412.4 -600 L-412.4 -601 L-412.4 -602 L-412.4 -602.9 L-412.4 -603.9 L-412.4 -604.9 L-412.4 -605.9 L-412.4 -606.9 L-412.4 -607.9 L-412.4 -608.9 L-412.4 -609.8 L-412.3 -610.8 L-412.3 -611.8 L-412.3 -612.8 L-411.3 -612.8 L-410.3 -612.8 L-409.4 -612.8 L-408.4 -612.8 L-407.4 -612.8 L-406.4 -612.7 L-405.4 -612.7 L-404.4 -612.7 L-403.4 -612.7 L-402.5 -612.7 L-401.5 -612.7 L-400.5 -612.7 L-399.5 -612.7 L-398.5 -612.7 L-397.5 -612.7 L-396.5 -612.7 L-395.6 -612.6 L-394.6 -612.6 L-393.6 -612.6 L-392.6 -612.6 L-391.6 -612.6 L-390.6 -612.6 L-389.6 -612.6 L-388.7 -612.6 L-387.7 -612.6 L-387.7 -611.6 L-387.7 -610.6 L-387.7 -609.6 L-387.7 -608.6 L-387.7 -607.6 L-387.7 -606.6 L-387.7 -605.7 L-387.7 -604.7 L-387.8 -603.7 L-387.8 -602.7 L-387.8 -601.7 L-387.8 -600.7 L-387.8 -599.7 L-387.8 -598.8 L-387.8 -597.8 L-387.8 -596.8 L-387.8 -595.8 L-387.8 -594.8 L-387.9 -593.8 L-387.9 -592.8 L-387.9 -591.9 L-387.9 -590.9 L-387.9 -589.9 L-387.9 -588.9 L-387.9 -587.9 L-388.9 -587.9 L-389.9 -587.9 L-390.9 -587.9 L-391.9 -588 L-392.8 -588 L-393.8 -588 L-394.8 -588 L-395.8 -588 L-396.8 -588 L-397.8 -588 L-398.8 -588 L-399.7 -588 L-400.7 -588 L-401.7 -588 L-402.7 -588.1 L-403.7 -588.1 L-404.7 -588.1 L-405.7 -588.1 L-406.6 -588.1 L-407.6 -588.1 L-408.6 -588.1 L-409.6 -588.1 L-410.6 -588.1 L-411.6 -588.1 L-412.6 -588.2 Z " />
<path stroke="rgb(0,0,0)" stroke-opacity="1" fill="rgb(255,255,255)" fill-opacity="1" d="M124.2 -201.1 L124.2 -199.2 L124 -197.3 L123.8 -195.4 L123.3 -193.5 L122.7 -191.7 L122 -189.9 L121.1 -188.2 L120.1 -186.6 L119 -185 L117.8 -183.5 L116.4 -182.2 L114.9 -180.9 L113.4 -179.8 L111.7 -178.8 L110 -178 L108.2 -177.2 L106.4 -176.7 L104.5 -176.2 L102.6 -175.9 L100.7 -175.8 L98.77 -175.8 L96.85 -176 L94.96 -176.3 L93.1 -176.8 L91.28 -177.4 L89.51 -178.2 L87.81 -179.1 L86.19 -180.1 L84.66 -181.3 L83.22 -182.6 L81.89 -184 L80.68 -185.5 L79.58 -187 L78.62 -188.7 L77.79 -190.4 L77.1 -192.2 L76.56 -194.1 L76.16 -196 L75.92 -197.9 L75.83 -199.8 L75.89 -201.7 L76.1 -203.6 L76.46 -205.5 L76.98 -207.4 L77.64 -209.2 L78.44 -210.9 L79.37 -212.6 L80.44 -214.2 L81.63 -215.7 L82.94 -217.1 L84.35 -218.4 L85.87 -219.6 L87.47 -220.7 L89.15 -221.6 L90.9 -222.4 L92.71 -223 L94.57 -223.6 L96.46 -223.9 L98.37 -224.1 L100.3 -224.2 L102.2 -224.1 L104.1 -223.8 L106 -223.4 L107.8 -222.9 L109.6 -222.2 L111.4 -221.3 L113 -220.4 L114.6 -219.3 L116.1 -218 L117.5 -216.7 L118.8 -215.3 L119.9 -213.7 L120.9 -212.1 L121.8 -210.4 L122.6 -208.6 L123.2 -206.8 L123.7 -205 L124 -203.1 L124.2 -201.1 Z " />
<path stroke="rgb(0,0,0)" stroke-opacity="1" fill="rgb(255,255,255)" fill-opacity="1" d="M-212.6 -588.2 L-212.6 -589.1 L-212.5 -590.1 L-212.5 -591.1 L-212.5 -592.1 L-212.5 -593.1 L-212.5 -594.1 L-212.5 -595.1 L-212.5 -596 L-212.5 -597 L-212.5 -598 L-212.5 -599 L-212.4 -600 L-212.4 -601 L-212.4 -602 L-212.4 -602.9 L-212.4 -603.9 L-212.4 -604.9 L-212.4 -605.9 L-212.4 -606.9 L-212.4 -607.9 L-212.4 -608.9 L-212.4 -609.8 L-212.3 -610.8 L-212.3 -611.8 L-212.3 -612.8 L-211.3 -612.8 L-210.3 -612.8 L-209.4 -612.8 L-208.4 -612.8 L-207.4 -612.8 L-206.4 -612.7 L-205.4 -612.7 L-204.4 -612.7 L-203.4 -612.7 L-202.5 -612.7 L-201.5 -612.7 L-200.5 -612.7 L-199.5 -612.7 L-198.5 -612.7 L-197.5 -612.7 L-196.5 -612.7 L-195.6 -612.6 L-194.6 -612.6 L-193.6 -612.6 L-192.6 -612.6 L-191.6 -612.6 L-190.6 -612.6 L-189.6 -612.6 L-188.7 -612.6 L-187.7 -612.6 L-187.7 -611.6 L-187.7 -610.6 L-187.7 -609.6 L-187.7 -608.6 L-187.7 -607.6 L-187.7 -606.6 L-187.7 -605.7 L-187.7 -604.7 L-187.8 -603.7 L-187.8 -602.7 L-187.8 -601.7 L-187.8 -600.7 L-187.8 -599.7 L-187.8 -598.8 L-187.8 -597.8 L-187.8 -596.8 L-187.8 -595.8 L-187.8 -594.8 L-187.9 -593.8 L-187.9 -592.8 L-187.9 -591.9 L-187.9 -590.9 L-187.9 -589.9 L-187.9 -588.9 L-187.9 -587.9 L-188.9 -587.9 L-189.9 -587.9 L-190.9 -587.9 L-191.9 -588 L-192.8 -588 L-193.8 -588 L-194.8 -588 L-195.8 -588 L-196.8 -588 L-197.8 -588 L-198.8 -588 L-199.7 -588 L-200.7 -588 L-201.7 -588 L-202.7 -588.1 L-203.7 -588.1 L-204.7 -588.1 L-205.7 -588.1 L-206.6 -588.1 L-207.6 -588.1 L-208.6 -588.1 L-209.6 -588.1 L-210.6 -588.1 L-211.6 -588.1 L-212.6 -588.2 Z " />
<path stroke="rgb(0,0,0)" stroke-opacity="1" fill="rgb(255,255,255)" fill-opacity="1" d="M324.8 -199.8 L324.7 -197.8 L324.5 -195.9 L324 -193.9 L323.5 -192 L322.8 -190.2 L321.9 -188.4 L320.9 -186.7 L319.8 -185.1 L318.6 -183.6 L317.2 -182.1 L315.7 -180.8 L314.2 -179.6 L312.5 -178.6 L310.8 -177.7 L308.9 -176.9 L307.1 -176.2 L305.2 -175.7 L303.2 -175.4 L301.3 -175.2 L299.3 -175.2 L297.3 -175.3 L295.4 -175.6 L293.5 -176.1 L291.6 -176.7 L289.7 -177.4 L288 -178.3 L286.3 -179.3 L284.7 -180.5 L283.2 -181.8 L281.8 -183.2 L280.5 -184.7 L279.4 -186.3 L278.3 -187.9 L277.4 -189.7 L276.7 -191.5 L276.1 -193.4 L275.6 -195.3 L275.4 -197.3 L275.2 -199.2 L275.2 -201.2 L275.4 -203.2 L275.7 -205.1 L276.2 -207 L276.9 -208.9 L277.6 -210.7 L278.6 -212.4 L279.6 -214.1 L280.8 -215.7 L282.1 -217.2 L283.5 -218.5 L285 -219.8 L286.7 -220.9 L288.4 -221.9 L290.1 -222.8 L292 -223.5 L293.9 -224 L295.8 -224.4 L297.8 -224.7 L299.7 -224.8 L301.7 -224.7 L303.7 -224.5 L305.6 -224.2 L307.5 -223.6 L309.4 -223 L311.1 -222.2 L312.9 -221.2 L314.5 -220.1 L316.1 -218.9 L317.5 -217.6 L318.9 -216.1 L320.1 -214.6 L321.2 -212.9 L322.1 -211.2 L323 -209.4 L323.6 -207.6 L324.2 -205.7 L324.5 -203.7 L324.7 -201.8 L324.8 -199.8 Z " />
<path stroke="rgb(0,0,0)" stroke-opacity="1" fill="rgb(255,255,255)" fill-opacity="1" d="M-712.6 -488.2 L-712.6 -489.2 L-712.6 -490.1 L-712.6 -491.1 L-712.5 -492.1 L-712.5 -493.1 L-712.5 -494.1 L-712.5 -495.1 L-712.5 -496.1 L-712.5 -497.1 L-712.5 -498 L-712.5 -499 L-712.5 -500 L-712.5 -501 L-712.4 -502 L-712.4 -503 L-712.4 -504 L-712.4 -504.9 L-712.4 -505.9 L-712.4 -506.9 L-712.4 -507.9 L-712.4 -508.9 L-712.4 -509.9 L-712.4 -510.9 L-712.3 -511.8 L-712.3 -512.8 L-711.3 -512.8 L-710.4 -512.8 L-709.4 -512.8 L-708.4 -512.8 L-707.4 -512.8 L-706.4 -512.8 L-705.4 -512.8 L-704.4 -512.7 L-703.5 -512.7 L-702.5 -512.7 L-701.5 -512.7 L-700.5 -512.7 L-699.5 -512.7 L-698.5 -512.7 L-697.5 -512.7 L-696.6 -512.7 L-695.6 -512.7 L-694.6 -512.6 L-693.6 -512.6 L-692.6 -512.6 L-691.6 -512.6 L-690.6 -512.6 L-689.7 -512.6 L-688.7 -512.6 L-687.7 -512.6 L-687.7 -511.6 L-687.7 -510.6 L-687.7 -509.6 L-687.7 -508.6 L-687.7 -507.6 L-687.7 -506.7 L-687.8 -505.7 L-687.8 -504.7 L-687.8 -503.7 L-687.8 -502.7 L-687.8 -501.7 L-687.8 -500.7 L-687.8 -499.8 L-687.8 -498.8 L-687.8 -497.8 L-687.8 -496.8 L-687.9 -495.8 L-687.9 -494.8 L-687.9 -493.8 L-687.9 -492.9 L-687.9 -491.9 L-687.9 -490.9 L-687.9 -489.9 L-687.9 -488.9 L-687.9 -487.9 L-688.9 -487.9 L-689.9 -487.9 L-690.9 -488 L-691.9 -488 L-692.9 -488 L-693.8 -488 L-694.8 -488 L-695.8 -488 L-696.8 -488 L-697.8 -488 L-698.8 -488 L-699.8 -488 L-700.8 -488.1 L-701.7 -488.1 L-702.7 -488.1 L-703.7 -488.1 L-704.7 -488.1 L-705.7 -488.1 L-706.7 -488.1 L-707.7 -488.1 L-708.6 -488.1 L-709.6 -488.1 L-710.6 -488.2 L-711.6 -488.2 L-712.6 -488.2 Z " />
<path stroke="rgb(0,0,0)" stroke-opacity="1" fill="rgb(255,255,255)" fill-opacity="1" d="M-184.2 -110.5 L-183.4 -109.2 L-182.7 -107.9 L-182.1 -106.5 L-181.6 -105.1 L-181.3 -103.6 L-181 -102.1 L-180.9 -100.6 L-180.9 -99.1 L-181 -97.59 L-181.3 -96.1 L-181.6 -94.64 L-182.1 -93.2 L-182.7 -91.81 L-183.4 -90.47 L-184.2 -89.19 L-185.1 -87.98 L-186.1 -86.84 L-187.2 -85.78 L-188.3 -84.82 L-189.5 -83.95 L-190.8 -83.18 L-192.2 -82.51 L-193.6 -81.95 L-195 -81.51 L-196.5 -81.18 L-198 -80.98 L-199.5 -80.89 L-201 -80.92 L-202.5 -81.07 L-204 -81.34 L-205.5 -81.73 L-206.9 -82.23 L-208.3 -82.84 L-209.6 -83.56 L-210.9 -84.39 L-212.1 -85.31 L-213.2 -86.32 L-214.2 -87.42 L-215.2 -88.6 L-216 -89.85 L-216.8 -91.16 L-217.4 -92.53 L-217.9 -93.94 L-218.3 -95.39 L-218.6 -96.87 L-218.8 -98.37 L-218.9 -99.88 L-218.8 -101.4 L-218.6 -102.9 L-218.3 -104.4 L-217.9 -105.8 L-217.4 -107.2 L-216.7 -108.6 L-216 -109.9 L-215.1 -111.2 L-214.2 -112.3 L-213.2 -113.4 L-212 -114.4 L-210.8 -115.4 L-209.6 -116.2 L-208.3 -116.9 L-206.9 -117.5 L-205.4 -118 L-204 -118.4 L-202.5 -118.7 L-201 -118.8 L-199.5 -118.8 L-198 -118.8 L-196.5 -118.5 L-195 -118.2 L-193.6 -117.8 L-192.2 -117.2 L-190.8 -116.5 L-189.5 -115.8 L-188.3 -114.9 L-187.1 -113.9 L-186.1 -112.9 L-185.1 -111.7 L-184.2 -110.5 Z " />
<path stroke="rgb(0,0,0)" stroke-opacity="1" fill="rgb(255,255,255)" fill-opacity="1" d="M-512.6 -488.2 L-512.6 -489.1 L-512.5 -490.1 L-512.5 -491.1 L-512.5 -492.1 L-512.5 -493.1 L-512.5 -494.1 L-512.5 -495.1 L-512.5 -496 L-512.5 -497 L-512.5 -498 L-512.5 -499 L-512.4 -500 L-512.4 -501 L-512.4 -502 L-512.4 -502.9 L-512.4 -503.9 L-512.4 -504.9 L-512.4 -505.9 L-512.4 -506.9 L-512.4 -507.9 L-512.4 -508.9 L-512.4 -509.8 L-512.3 -510.8 L-512.3 -511.8 L-512.3 -512.8 L-511.3 -512.8 L-510.3 -512.8 L-509.4 -512.8 L-508.4 -512.8 L-507.4 -512.8 L-506.4 -512.7 L-505.4 -512.7 L-504.4 -512.7 L-503.4 -512.7 L-502.5 -512.7 L-501.5 -512.7 L-500.5 -512.7 L-499.5 -512.7 L-498.5 -512.7 L-497.5 -512.7 L-496.5 -512.7 L-495.6 -512.6 L-494.6 -512.6 L-493.6 -512.6 L-492.6 -512.6 L-491.6 -512.6 L-490.6 -512.6 L-489.6 -512.6 L-488.7 -512.6 L-487.7 -512.6 L-487.7 -511.6 L-487.7 -510.6 L-487.7 -509.6 L-487.7 -508.6 L-487.7 -507.6 L-487.7 -506.6 L-487.7 -505.7 L-487.7 -504.7 L-487.8 -503.7 L-487.8 -502.7 L-487.8 -501.7 L-487.8 -500.7 L-487.8 -499.7 L-487.8 -498.8 L-487.8 -497.8 L-487.8 -496.8 L-487.8 -495.8 L-487.8 -494.8 L-487.9 -493.8 L-487.9 -492.8 L-487.9 -491.9 L-487.9 -490.9 L-487.9 -489.9 L-487.9 -488.9 L-487.9 -487.9 L-488.9 -487.9 L-489.9 -487.9 L-490.9 -487.9 L-491.9 -488 L-492.8 -488 L-493.8 -488 L-494.8 -488 L-495.8 -488 L-496.8 -488 L-497.8 -488 L-498.8 -488 L-499.7 -488 L-500.7 -488 L-501.7 -488 L-502.7 -488.1 L-503.7 -488.1 L-504.7 -488.1 L-505.7 -488.1 L-506.6 -488.1 L-507.6 -488.1 L-508.6 -488.1 L-509.6 -488.1 L-510.6 -488.1 L-511.6 -488.1 L-512.6 -488.2 Z " />
<path stroke="rgb(0,0,0)" stroke-opacity="1" fill="rgb(255,255,255)" fill-opacity="1" d="M24.17 -101.1 L24.18 -99.22 L24.05 -97.31 L23.76 -95.4 L23.32 -93.53 L22.73 -91.7 L22 -89.92 L21.13 -88.21 L20.13 -86.57 L19 -85.01 L17.75 -83.55 L16.39 -82.19 L14.92 -80.94 L13.36 -79.82 L11.72 -78.82 L10 -77.96 L8.22 -77.24 L6.386 -76.66 L4.512 -76.22 L2.61 -75.94 L0.6915 -75.81 L-1.231 -75.83 L-3.147 -76.01 L-5.042 -76.33 L-6.905 -76.81 L-8.724 -77.43 L-10.49 -78.2 L-12.19 -79.1 L-13.81 -80.14 L-15.34 -81.3 L-16.78 -82.57 L-18.11 -83.96 L-19.32 -85.45 L-20.42 -87.04 L-21.38 -88.7 L-22.21 -90.43 L-22.9 -92.23 L-23.44 -94.08 L-23.84 -95.96 L-24.08 -97.86 L-24.17 -99.79 L-24.11 -101.7 L-23.9 -103.6 L-23.54 -105.5 L-23.02 -107.4 L-22.36 -109.2 L-21.56 -110.9 L-20.63 -112.6 L-19.56 -114.2 L-18.37 -115.7 L-17.06 -117.1 L-15.65 -118.4 L-14.13 -119.6 L-12.53 -120.7 L-10.85 -121.6 L-9.096 -122.4 L-7.288 -123 L-5.432 -123.6 L-3.543 -123.9 L-1.631 -124.1 L0.2913 -124.2 L2.212 -124.1 L4.118 -123.8 L5.999 -123.4 L7.842 -122.9 L9.635 -122.2 L11.37 -121.3 L13.03 -120.4 L14.61 -119.3 L16.09 -118 L17.48 -116.7 L18.75 -115.3 L19.91 -113.7 L20.94 -112.1 L21.83 -110.4 L22.59 -108.6 L23.21 -106.8 L23.68 -105 L24 -103.1 L24.17 -101.1 Z " />
<path stroke="rgb(0,0,0)" stroke-opacity="1" fill="rgb(255,255,255)" fill-opacity="1" d="M-312.6 -488.2 L-312.6 -489.1 L-312.5 -490.1 L-312.5 -491.1 L-312.5 -492.1 L-312.5 -493.1 L-312.5 -494.1 L-312.5 -495.1 L-312.5 -496 L-312.5 -497 L-312.5 -498 L-312.5 -499 L-312.4 -500 L-312.4 -501 L-312.4 -502 L-312.4 -502.9 L-312.4 -503.9 L-312.4 -504.9 L-312.4 -505.9 L-312.4 -506.9 L-312.4 -507.9 L-312.4 -508.9 L-312.4 -509.8 L-312.3 -510.8 L-312.3 -511.8 L-312.3 -512.8 L-311.3 -512.8 L-310.3 -512.8 L-309.4 -512.8 L-308.4 -512.8 L-307.4 -512.8 L-306.4 -512.7 L-305.4 -512.7 L-304.4 -512.7 L-303.4 -512.7 L-302.5 -512.7 L-301.5 -512.7 L-300.5 -512.7 L-299.5 -512.7 L-298.5 -512.7 L-297.5 -512.7 L-296.5 -512.7 L-295.6 -512.6 L-294.6 -512.6 L-293.6 -512.6 L-292.6 -512.6 L-291.6 -512.6 L-290.6 -512.6 L-289.6 -512.6 L-288.7 -512.6 L-287.7 -512.6 L-287.7 -511.6 L-287.7 -510.6 L-287.7 -509.6 L-287.7 -508.6 L-287.7 -507.6 L-287.7 -506.6 L-287.7 -505.7 L-287.7 -504.7 L-287.8 -503.7 L-287.8 -502.7 L-287.8 -501.7 L-287.8 -500.7 L-287.8 -499.7 L-287.8 -498.8 L-287.8 -497.8 L-287.8 -496.8 L-287.8 -495.8 L-287.8 -494.8 L-287.9 -493.8 L-287.9 -492.8 L-287.9 -491.9 L-287.9 -490.9 L-287.9 -489.9 L-287.9 -488.9 L-287.9 -487.9 L-288.9 -487.9 L-289.9 -487.9 L-290.9 -487.9 L-291.9 -488 L-292.8 -488 L-293.8 -488 L-294.8 -488 L-295.8 -488 L-296.8 -488 L-297.8 -488 L-298.8 -488 L-299.7 -488 L-300.7 -488 L-301.7 -488 L-302.7 -488.1 L-303.7 -488.1 L-304.7 -488.1 L-305.7 -488.1 L-306.6 -488.1 L-307.6 -488.1 L-308.6 -488.1 L-309.6 -488.1 L-310.6 -488.1 L-311.6 -488.1 L-312.6 -488.2 Z " />
<path stroke="rgb(0,0,0)" stroke-opacity="1" fill="rgb(255,255,255)" fill-opacity="1" d="M224.8 -99.79 L224.7 -97.82 L224.5 -95.86 L224 -93.93 L223.5 -92.04 L222.8 -90.2 L221.9 -88.42 L220.9 -86.71 L219.8 -85.09 L218.6 -83.57 L217.2 -82.14 L215.7 -80.83 L214.2 -79.64 L212.5 -78.58 L210.8 -77.66 L208.9 -76.87 L207.1 -76.23 L205.2 -75.75 L203.2 -75.41 L201.3 -75.23 L199.3 -75.21 L197.3 -75.35 L195.4 -75.64 L193.5 -76.08 L191.6 -76.68 L189.7 -77.42 L188 -78.31 L186.3 -79.33 L184.7 -80.48 L183.2 -81.76 L181.8 -83.16 L180.5 -84.65 L179.4 -86.25 L178.3 -87.93 L177.4 -89.69 L176.7 -91.52 L176.1 -93.4 L175.6 -95.32 L175.4 -97.27 L175.2 -99.23 L175.2 -101.2 L175.4 -103.2 L175.7 -105.1 L176.2 -107 L176.9 -108.9 L177.6 -110.7 L178.6 -112.4 L179.6 -114.1 L180.8 -115.7 L182.1 -117.2 L183.5 -118.5 L185 -119.8 L186.7 -120.9 L188.4 -121.9 L190.1 -122.8 L192 -123.5 L193.9 -124 L195.8 -124.4 L197.8 -124.7 L199.7 -124.8 L201.7 -124.7 L203.7 -124.5 L205.6 -124.2 L207.5 -123.6 L209.4 -123 L211.1 -122.2 L212.9 -121.2 L214.5 -120.1 L216.1 -118.9 L217.5 -117.6 L218.9 -116.1 L220.1 -114.6 L221.2 -112.9 L222.1 -111.2 L223 -109.4 L223.6 -107.6 L224.2 -105.7 L224.5 -103.7 L224.7 -101.8 L224.8 -99.79 Z " />
<path stroke="rgb(0,0,0)" stroke-opacity="1" fill="rgb(255,255,255)" fill-opacity="1" d="M-112.6 -488.2 L-112.6 -489.1 L-112.5 -490.1 L-112.5 -491.1 L-112.5 -492.1 L-112.5 -493.1 L-112.5 -494.1 L-112.5 -495.1 L-112.5 -496 L-112.5 -497 L-112.5 -498 L-112.5 -499 L-112.4 -500 L-112.4 -501 L-112.4 -502 L-112.4 -502.9 L-112.4 -503.9 L-112.4 -504.9 L-112.4 -505.9 L-112.4 -506.9 L-112.4 -507.9 L-112.4 -508.9 L-112.4 -509.8 L-112.3 -510.8 L-112.3 -511.8 L-112.3 -512.8 L-111.3 -512.8 L-110.3 -512.8 L-109.4 -512.8 L-108.4 -512.8 L-107.4 -512.8 L-106.4 -512.7 L-105.4 -512.7 L-104.4 -512.7 L-103.4 -512.7 L-102.5 -512.7 L-101.5 -512.7 L-100.5 -512.7 L-99.5 -512.7 L-98.51 -512.7 L-97.53 -512.7 L-96.54 -512.7 L-95.56 -512.6 L-94.57 -512.6 L-93.58 -512.6 L-92.6 -512.6 L-91.61 -512.6 L-90.63 -512.6 L-89.64 -512.6 L-88.65 -512.6 L-87.67 -512.6 L-87.68 -511.6 L-87.69 -510.6 L-87.7 -509.6 L-87.71 -508.6 L-87.72 -507.6 L-87.73 -506.6 L-87.74 -505.7 L-87.74 -504.7 L-87.75 -503.7 L-87.76 -502.7 L-87.77 -501.7 L-87.78 -500.7 L-87.79 -499.7 L-87.8 -498.8 L-87.81 -497.8 L-87.82 -496.8 L-87.83 -495.8 L-87.84 -494.8 L-87.85 -493.8 L-87.86 -492.8 L-87.87 -491.9 L-87.88 -490.9 L-87.89 -489.9 L-87.9 -488.9 L-87.91 -487.9 L-88.9 -487.9 L-89.88 -487.9 L-90.87 -487.9 L-91.85 -488 L-92.84 -488 L-93.83 -488 L-94.81 -488 L-95.8 -488 L-96.79 -488 L-97.77 -488 L-98.76 -488 L-99.74 -488 L-100.7 -488 L-101.7 -488 L-102.7 -488.1 L-103.7 -488.1 L-104.7 -488.1 L-105.7 -488.1 L-106.6 -488.1 L-107.6 -488.1 L-108.6 -488.1 L-109.6 -488.1 L-110.6 -488.1 L-111.6 -488.1 L-112.6 -488.2 Z " />
<path stroke="rgb(0,0,0)" stroke-opacity="1" fill="rgb(255,255,255)" fill-opacity="1" d="M-284.2 -10.52 L-283.4 -9.238 L-282.7 -7.896 L-282.1 -6.504 L-281.6 -5.07 L-281.3 -3.603 L-281 -2.113 L-280.9 -0.6082 L-280.9 0.9011 L-281 2.406 L-281.3 3.896 L-281.6 5.362 L-282.1 6.796 L-282.7 8.187 L-283.4 9.527 L-284.2 10.81 L-285.1 12.02 L-286.1 13.16 L-287.2 14.22 L-288.3 15.18 L-289.5 16.05 L-290.8 16.82 L-292.2 17.49 L-293.6 18.05 L-295 18.49 L-296.5 18.82 L-298 19.02 L-299.5 19.11 L-301 19.08 L-302.5 18.93 L-304 18.66 L-305.5 18.27 L-306.9 17.77 L-308.3 17.16 L-309.6 16.44 L-310.9 15.61 L-312.1 14.69 L-313.2 13.68 L-314.2 12.58 L-315.2 11.4 L-316 10.15 L-316.8 8.84 L-317.4 7.472 L-317.9 6.058 L-318.3 4.607 L-318.6 3.127 L-318.8 1.628 L-318.9 0.1198 L-318.8 -1.388 L-318.6 -2.887 L-318.3 -4.366 L-317.9 -5.817 L-317.4 -7.231 L-316.7 -8.597 L-316 -9.909 L-315.1 -11.16 L-314.2 -12.33 L-313.2 -13.43 L-312 -14.44 L-310.8 -15.36 L-309.6 -16.19 L-308.3 -16.9 L-306.9 -17.52 L-305.4 -18.02 L-304 -18.4 L-302.5 -18.67 L-301 -18.82 L-299.5 -18.85 L-298 -18.75 L-296.5 -18.54 L-295 -18.22 L-293.6 -17.77 L-292.2 -17.21 L-290.8 -16.55 L-289.5 -15.77 L-288.3 -14.9 L-287.1 -13.93 L-286.1 -12.87 L-285.1 -11.73 L-284.2 -10.52 Z " />
<path stroke="rgb(0,0,0)" stroke-opacity="1" fill="rgb(255,255,255)" fill-opacity="1" d="M-612.6 -388.2 L-612.6 -389.1 L-612.5 -390.1 L-612.5 -391.1 L-612.5 -392.1 L-612.5 -393.1 L-612.5 -394.1 L-612.5 -395.1 L-612.5 -396 L-612.5 -397 L-612.5 -398 L-612.5 -399 L-612.4 -400 L-612.4 -401 L-612.4 -402 L-612.4 -402.9 L-612.4 -403.9 L-612.4 -404.9 L-612.4 -405.9 L-612.4 -406.9 L-612.4 -407.9 L-612.4 -408.9 L-612.4 -409.8 L-612.3 -410.8 L-612.3 -411.8 L-612.3 -412.8 L-611.3 -412.8 L-610.3 -412.8 L-609.4 -412.8 L-608.4 -412.8 L-607.4 -412.8 L-606.4 -412.7 L-605.4 -412.7 L-604.4 -412.7 L-603.4 -412.7 L-602.5 -412.7 L-601.5 -412.7 L-600.5 -412.7 L-599.5 -412.7 L-598.5 -412.7 L-597.5 -412.7 L-596.5 -412.7 L-595.6 -412.6 L-594.6 -412.6 L-593.6 -412.6 L-592.6 -412.6 L-591.6 -412.6 L-590.6 -412.6 L-589.6 -412.6 L-588.7 -412.6 L-587.7 -412.6 L-587.7 -411.6 L-587.7 -410.6 L-587.7 -409.6 L-587.7 -408.6 L-587.7 -407.6 L-587.7 -406.6 L-587.7 -405.7 L-587.7 -404.7 L-587.8 -403.7 L-587.8 -402.7 L-587.8 -401.7 L-587.8 -400.7 L-587.8 -399.7 L-587.8 -398.8 L-587.8 -397.8 L-587.8 -396.8 L-587.8 -395.8 L-587.8 -394.8 L-587.9 -393.8 L-587.9 -392.8 L-587.9 -391.9 L-587.9 -390.9 L-587.9 -389.9 L-587.9 -388.9 L-587.9 -387.9 L-588.9 -387.9 L-589.9 -387.9 L-590.9 -387.9 L-591.9 -388 L-592.8 -388 L-593.8 -388 L-594.8 -388 L-595.8 -388 L-596.8 -388 L-597.8 -388 L-598.8 -388 L-599.7 -388 L-600.7 -388 L-601.7 -388 L-602.7 -388.1 L-603.7 -388.1 L-604.7 -388.1 L-605.7 -388.1 L-606.6 -388.1 L-607.6 -388.1 L-608.6 -388.1 L-609.6 -388.1 L-610.6 -388.1 L-611.6 -388.1 L-612.6 -388.2 Z " />
<path stroke="rgb(0,0,0)" stroke-opacity="1" fill="rgb(255,255,255)" fill-opacity="1" d="M-75.83 -1.147 L-75.82 0.776 L-75.95 2.694 L-76.24 4.595 L-76.68 6.468 L-77.27 8.299 L-78 10.08 L-78.87 11.79 L-79.87 13.43 L-81 14.99 L-82.25 16.45 L-83.61 17.81 L-85.08 19.06 L-86.64 20.18 L-88.28 21.18 L-90 22.04 L-91.78 22.76 L-93.61 23.34 L-95.49 23.78 L-97.39 24.06 L-99.31 24.19 L-101.2 24.17 L-103.1 23.99 L-105 23.67 L-106.9 23.19 L-108.7 22.57 L-110.5 21.8 L-112.2 20.9 L-113.8 19.86 L-115.3 18.7 L-116.8 17.43 L-118.1 16.04 L-119.3 14.55 L-120.4 12.96 L-121.4 11.3 L-122.2 9.565 L-122.9 7.77 L-123.4 5.925 L-123.8 4.043 L-124.1 2.136 L-124.2 0.2147 L-124.1 -1.707 L-123.9 -3.619 L-123.5 -5.507 L-123 -7.36 L-122.4 -9.167 L-121.6 -10.92 L-120.6 -12.6 L-119.6 -14.2 L-118.4 -15.71 L-117.1 -17.12 L-115.6 -18.42 L-114.1 -19.6 L-112.5 -20.67 L-110.8 -21.6 L-109.1 -22.39 L-107.3 -23.04 L-105.4 -23.55 L-103.5 -23.91 L-101.6 -24.12 L-99.71 -24.17 L-97.79 -24.07 L-95.88 -23.82 L-94 -23.42 L-92.16 -22.87 L-90.36 -22.17 L-88.63 -21.34 L-86.97 -20.37 L-85.39 -19.27 L-83.91 -18.05 L-82.52 -16.71 L-81.25 -15.27 L-80.09 -13.74 L-79.06 -12.11 L-78.17 -10.41 L-77.41 -8.645 L-76.79 -6.824 L-76.32 -4.959 L-76 -3.063 L-75.83 -1.147 Z " />
<path stroke="rgb(0,0,0)" stroke-opacity="1" fill="rgb(255,255,255)" fill-opacity="1" d="M-412.6 -388.2 L-412.6 -389.1 L-412.5 -390.1 L-412.5 -391.1 L-412.5 -392.1 L-412.5 -393.1 L-412.5 -394.1 L-412.5 -395.1 L-412.5 -396 L-412.5 -397 L-412.5 -398 L-412.5 -399 L-412.4 -400 L-412.4 -401 L-412.4 -402 L-412.4 -402.9 L-412.4 -403.9 L-412.4 -404.9 L-412.4 -405.9 L-412.4 -406.9 L-412.4 -407.9 L-412.4 -408.9 L-412.4 -409.8 L-412.3 -410.8 L-412.3 -411.8 L-412.3 -412.8 L-411.3 -412.8 L-410.3 -412.8 L-409.4 -412.8 L-408.4 -412.8 L-407.4 -412.8 L-406.4 -412.7 L-405.4 -412.7 L-404.4 -412.7 L-403.4 -412.7 L-402.5 -412.7 L-401.5 -412.7 L-400.5 -412.7 L-399.5 -412.7 L-398.5 -412.7 L-397.5 -412.7 L-396.5 -412.7 L-395.6 -412.6 L-394.6 -412.6 L-393.6 -412.6 L-392.6 -412.6 L-391.6 -412.6 L-390.6 -412.6 L-389.6 -412.6 L-388.7 -412.6 L-387.7 -412.6 L-387.7 -411.6 L-387.7 -410.6 L-387.7 -409.6 L-387.7 -408.6 L-387.7 -407.6 L-387.7 -406.6 L-387.7 -405.7 L-387.7 -404.7 L-387.8 -403.7 L-387.8 -402.7 L-387.8 -401.7 L-387.8 -400.7 L-387.8 -399.7 L-387.8 -398.8 L-387.8 -397.8 L-387.8 -396.8 L-387.8 -395.8 L-387.8 -394.8 L-387.9 -393.8 L-387.9 -392.8 L-387.9 -391.9 L-387.9 -390.9 L-387.9 -389.9 L-387.9 -388.9 L-387.9 -387.9 L-388.9 -387.9 L-389.9 -387.9 L-390.9 -387.9 L-391.9 -388 L-392.8 -388 L-393.8 -388 L-394.8 -388 L-395.8 -388 L-396.8 -388 L-397.8 -388 L-398.8 -388 L-399.7 -388 L-400.7 -388 L-401.7 -388 L-402.7 -388.1 L-403.7 -388.1 L-404.7 -388.1 L-405.7 -388.1 L-406.6 -388.1 L-407.6 -388.1 L-408.6 -388.1 L-409.6 -388.1 L-410.6 -388.1 L-411.6 -388.1 L-412.6 -388.2 Z " />
<path stroke="rgb(0,0,0)" stroke-opacity="1" fill="rgb(255,255,255)" fill-opacity="1" d="M124.8 0.2139 L124.7 2.184 L124.5 4.139 L124 6.069 L123.5 7.96 L122.8 9.801 L121.9 11.58 L120.9 13.29 L119.8 14.91 L118.6 16.43 L117.2 17.86 L115.7 19.17 L114.2 20.36 L112.5 21.42 L110.8 22.34 L108.9 23.13 L107.1 23.77 L105.2 24.25 L103.2 24.59 L101.3 24.77 L99.29 24.79 L97.33 24.65 L95.38 24.36 L93.45 23.92 L91.57 23.32 L89.75 22.58 L87.99 21.69 L86.3 20.67 L84.7 19.52 L83.2 18.24 L81.8 16.84 L80.52 15.35 L79.36 13.75 L78.34 12.07 L77.45 10.31 L76.7 8.482 L76.1 6.604 L75.65 4.684 L75.35 2.734 L75.21 0.7668 L75.23 -1.205 L75.4 -3.169 L75.73 -5.114 L76.22 -7.026 L76.85 -8.893 L77.63 -10.7 L78.55 -12.45 L79.61 -14.11 L80.79 -15.69 L82.1 -17.17 L83.52 -18.53 L85.04 -19.78 L86.66 -20.91 L88.37 -21.9 L90.14 -22.76 L91.98 -23.47 L93.87 -24.03 L95.8 -24.44 L97.76 -24.7 L99.73 -24.8 L101.7 -24.75 L103.7 -24.53 L105.6 -24.16 L107.5 -23.64 L109.4 -22.97 L111.1 -22.16 L112.9 -21.2 L114.5 -20.11 L116.1 -18.9 L117.5 -17.56 L118.9 -16.11 L120.1 -14.56 L121.2 -12.92 L122.1 -11.2 L123 -9.407 L123.6 -7.554 L124.2 -5.654 L124.5 -3.717 L124.7 -1.757 L124.8 0.2139 Z " />
<path stroke="rgb(0,0,0)" stroke-opacity="1" fill="rgb(255,255,255)" fill-opacity="1" d="M-212.6 -388.2 L-212.6 -389.1 L-212.5 -390.1 L-212.5 -391.1 L-212.5 -392.1 L-212.5 -393.1 L-212.5 -394.1 L-212.5 -395.1 L-212.5 -396 L-212.5 -397 L-212.5 -398 L-212.5 -399 L-212.4 -400 L-212.4 -401 L-212.4 -402 L-212.4 -402.9 L-212.4 -403.9 L-212.4 -404.9 L-212.4 -405.9 L-212.4 -406.9 L-212.4 -407.9 L-212.4 -408.9 L-212.4 -409.8 L-212.3 -410.8 L-212.3 -411.8 L-212.3 -412.8 L-211.3 -412.8 L-210.3 -412.8 L-209.4 -412.8 L-208.4 -412.8 L-207.4 -412.8 L-206.4 -412.7 L-205.4 -412.7 L-204.4 -412.7 L-203.4 -412.7 L-202.5 -412.7 L-201.5 -412.7 L-200.5 -412.7 L-199.5 -412.7 L-198.5 -412.7 L-197.5 -412.7 L-196.5 -412.7 L-195.6 -412.6 L-194.6 -412.6 L-193.6 -412.6 L-192.6 -412.6 L-191.6 -412.6 L-190.6 -412.6 L-189.6 -412.6 L-188.7 -412.6 L-187.7 -412.6 L-187.7 -411.6 L-187.7 -410.6 L-187.7 -409.6 L-187.7 -408.6 L-187.7 -407.6 L-187.7 -406.6 L-187.7 -405.7 L-187.7 -404.7 L-187.8 -403.7 L-187.8 -402.7 L-187.8 -401.7 L-187.8 -400.7 L-187.8 -399.7 L-187.8 -398.8 L-187.8 -397.8 L-187.8 -396.8 L-187.8 -395.8 L-187.8 -394.8 L-187.9 -393.8 L-187.9 -392.8 L-187.9 -391.9 L-187.9 -390.9 L-187.9 -389.9 L-187.9 -388.9 L-187.9 -387.9 L-188.9 -387.9 L-189.9 -387.9 L-190.9 -387.9 L-191.9 -388 L-192.8 -388 L-193.8 -388 L-194.8 -388 L-195.8 -388 L-196.8 -388 L-197.8 -388 L-198.8 -388 L-199.7 -388 L-200.7 -388 L-201.7 -388 L-202.7 -388.1 L-203.7 -388.1 L-204.7 -388.1 L-205.7 -388.1 L-206.6 -388.1 L-207.6 -388.1 L-208.6 -388.1 L-209.6 -388.1 L-210.6 -388.1 L-211.6 -388.1 L-212.6 -388.2 Z " />
<path stroke="rgb(0,0,0)" stroke-opacity="1" fill="rgb(255,255,255)" fill-opacity="1" d="M324.8 0.2139 L324.7 2.184 L324.5 4.139 L324 6.069 L323.5 7.96 L322.8 9.801 L321.9 11.58 L320.9 13.29 L319.8 14.91 L318.6 16.43 L317.2 17.86 L315.7 19.17 L314.2 20.36 L312.5 21.42 L310.8 22.34 L308.9 23.13 L307.1 23.77 L305.2 24.25 L303.2 24.59 L301.3 24.77 L299.3 24.79 L297.3 24.65 L295.4 24.36 L293.5 23.92 L291.6 23.32 L289.7 22.58 L288 21.69 L286.3 20.67 L284.7 19.52 L283.2 18.24 L281.8 16.84 L280.5 15.35 L279.4 13.75 L278.3 12.07 L277.4 10.31 L276.7 8.482 L276.1 6.604 L275.6 4.684 L275.4 2.734 L275.2 0.7668 L275.2 -1.205 L275.4 -3.169 L275.7 -5.114 L276.2 -7.026 L276.9 -8.893 L277.6 -10.7 L278.6 -12.45 L279.6 -14.11 L280.8 -15.69 L282.1 -17.17 L283.5 -18.53 L285 -19.78 L286.7 -20.91 L288.4 -21.9 L290.1 -22.76 L292 -23.47 L293.9 -24.03 L295.8 -24.44 L297.8 -24.7 L299.7 -24.8 L301.7 -24.75 L303.7 -24.53 L305.6 -24.16 L307.5 -23.64 L309.4 -22.97 L311.1 -22.16 L312.9 -21.2 L314.5 -20.11 L316.1 -18.9 L317.5 -17.56 L318.9 -16.11 L320.1 -14.56 L321.2 -12.92 L322.1 -11.2 L323 -9.407 L323.6 -7.554 L324.2 -5.654 L324.5 -3.717 L324.7 -1.757 L324.8 0.2139 Z " />
<path stroke="rgb(0,0,0)" stroke-opacity="1" fill="rgb(255,255,255)" fill-opacity="1" d="M-712.6 -288.2 L-712.6 -289.1 L-712.5 -290.1 L-712.5 -291.1 L-712.5 -292.1 L-712.5 -293.1 L-712.5 -294.1 L-712.5 -295.1 L-712.5 -296 L-712.5 -297 L-712.5 -298 L-712.5 -299 L-712.4 -300 L-712.4 -301 L-712.4 -302 L-712.4 -302.9 L-712.4 -303.9 L-712.4 -304.9 L-712.4 -305.9 L-712.4 -306.9 L-712.4 -307.9 L-712.4 -308.9 L-712.4 -309.8 L-712.3 -310.8 L-712.3 -311.8 L-712.3 -312.8 L-711.3 -312.8 L-710.3 -312.8 L-709.4 -312.8 L-708.4 -312.8 L-707.4 -312.8 L-706.4 -312.7 L-705.4 -312.7 L-704.4 -312.7 L-703.4 -312.7 L-702.5 -312.7 L-701.5 -312.7 L-700.5 -312.7 L-699.5 -312.7 L-698.5 -312.7 L-697.5 -312.7 L-696.5 -312.7 L-695.6 -312.6 L-694.6 -312.6 L-693.6 -312.6 L-692.6 -312.6 L-691.6 -312.6 L-690.6 -312.6 L-689.6 -312.6 L-688.7 -312.6 L-687.7 -312.6 L-687.7 -311.6 L-687.7 -310.6 L-687.7 -309.6 L-687.7 -308.6 L-687.7 -307.6 L-687.7 -306.6 L-687.7 -305.7 L-687.7 -304.7 L-687.8 -303.7 L-687.8 -302.7 L-687.8 -301.7 L-687.8 -300.7 L-687.8 -299.7 L-687.8 -298.8 L-687.8 -297.8 L-687.8 -296.8 L-687.8 -295.8 L-687.8 -294.8 L-687.9 -293.8 L-687.9 -292.8 L-687.9 -291.9 L-687.9 -290.9 L-687.9 -289.9 L-687.9 -288.9 L-687.9 -287.9 L-688.9 -287.9 L-689.9 -287.9 L-690.9 -287.9 L-691.9 -288 L-692.8 -288 L-693.8 -288 L-694.8 -288 L-695.8 -288 L-696.8 -288 L-697.8 -288 L-698.8 -288 L-699.7 -288 L-700.7 -288 L-701.7 -288 L-702.7 -288.1 L-703.7 -288.1 L-704.7 -288.1 L-705.7 -288.1 L-706.6 -288.1 L-707.6 -288.1 L-708.6 -288.1 L-709.6 -288.1 L-710.6 -288.1 L-711.6 -288.1 L-712.6 -288.2 Z " />
<path stroke="rgb(0,0,0)" stroke-opacity="1" fill="rgb(255,255,255)" fill-opacity="1" d="M-175.8 98.85 L-175.8 100.8 L-176 102.7 L-176.2 104.6 L-176.7 106.5 L-177.3 108.3 L-178 110.1 L-178.9 111.8 L-179.9 113.4 L-181 115 L-182.2 116.5 L-183.6 117.8 L-185.1 119.1 L-186.6 120.2 L-188.3 121.2 L-190 122 L-191.8 122.8 L-193.6 123.3 L-195.5 123.8 L-197.4 124.1 L-199.3 124.2 L-201.2 124.2 L-203.1 124 L-205 123.7 L-206.9 123.2 L-208.7 122.6 L-210.5 121.8 L-212.2 120.9 L-213.8 119.9 L-215.3 118.7 L-216.8 117.4 L-218.1 116 L-219.3 114.5 L-220.4 113 L-221.4 111.3 L-222.2 109.6 L-222.9 107.8 L-223.4 105.9 L-223.8 104 L-224.1 102.1 L-224.2 100.2 L-224.1 98.29 L-223.9 96.38 L-223.5 94.49 L-223 92.64 L-222.4 90.83 L-221.6 89.08 L-220.6 87.4 L-219.6 85.8 L-218.4 84.29 L-217.1 82.88 L-215.6 81.58 L-214.1 80.4 L-212.5 79.33 L-210.8 78.4 L-209.1 77.61 L-207.3 76.96 L-205.4 76.45 L-203.5 76.09 L-201.6 75.88 L-199.7 75.83 L-197.8 75.93 L-195.9 76.18 L-194 76.58 L-192.2 77.13 L-190.4 77.83 L-188.6 78.66 L-187 79.63 L-185.4 80.73 L-183.9 81.95 L-182.5 83.29 L-181.2 84.73 L-180.1 86.26 L-179.1 87.89 L-178.2 89.59 L-177.4 91.35 L-176.8 93.18 L-176.3 95.04 L-176 96.94 L-175.8 98.85 Z " />
<path stroke="rgb(0,0,0)" stroke-opacity="1" fill="rgb(255,255,255)" fill-opacity="1" d="M-512.6 -288.2 L-512.6 -289.1 L-512.5 -290.1 L-512.5 -291.1 L-512.5 -292.1 L-512.5 -293.1 L-512.5 -294.1 L-512.5 -295.1 L-512.5 -296 L-512.5 -297 L-512.5 -298 L-512.5 -299 L-512.4 -300 L-512.4 -301 L-512.4 -302 L-512.4 -302.9 L-512.4 -303.9 L-512.4 -304.9 L-512.4 -305.9 L-512.4 -306.9 L-512.4 -307.9 L-512.4 -308.9 L-512.4 -309.8 L-512.3 -310.8 L-512.3 -311.8 L-512.3 -312.8 L-511.3 -312.8 L-510.3 -312.8 L-509.4 -312.8 L-508.4 -312.8 L-507.4 -312.8 L-506.4 -312.7 L-505.4 -312.7 L-504.4 -312.7 L-503.4 -312.7 L-502.5 -312.7 L-501.5 -312.7 L-500.5 -312.7 L-499.5 -312.7 L-498.5 -312.7 L-497.5 -312.7 L-496.5 -312.7 L-495.6 -312.6 L-494.6 -312.6 L-493.6 -312.6 L-492.6 -312.6 L-491.6 -312.6 L-490.6 -312.6 L-489.6 -312.6 L-488.7 -312.6 L-487.7 -312.6 L-487.7 -311.6 L-487.7 -310.6 L-487.7 -309.6 L-487.7 -308.6 L-487.7 -307.6 L-487.7 -306.6 L-487.7 -305.7 L-487.7 -304.7 L-487.8 -303.7 L-487.8 -302.7 L-487.8 -301.7 L-487.8 -300.7 L-487.8 -299.7 L-487.8 -298.8 L-487.8 -297.8 L-487.8 -296.8 L-487.8 -295.8 L-487.8 -294.8 L-487.9 -293.8 L-487.9 -292.8 L-487.9 -291.9 L-487.9 -290.9 L-487.9 -289.9 L-487.9 -288.9 L-487.9 -287.9 L-488.9 -287.9 L-489.9 -287.9 L-490.9 -287.9 L-491.9 -288 L-492.8 -288 L-493.8 -288 L-494.8 -288 L-495.8 -288 L-496.8 -288 L-497.8 -288 L-498.8 -288 L-499.7 -288 L-500.7 -288 L-501.7 -288 L-502.7 -288.1 L-503.7 -288.1 L-504.7 -288.1 L-505.7 -288.1 L-506.6 -288.1 L-507.6 -288.1 L-508.6 -288.1 L-509.6 -288.1 L-510.6 -288.1 L-511.6 -288.1 L-512.6 -288.2 Z " />
<path stroke="rgb(0,0,0)" stroke-opacity="1" fill="rgb(255,255,255)" fill-opacity="1" d="M24.8 100.2 L24.71 102.2 L24.45 104.1 L24.05 106.1 L23.49 108 L22.78 109.8 L21.93 111.6 L20.94 113.3 L19.82 114.9 L18.57 116.4 L17.21 117.9 L15.74 119.2 L14.16 120.4 L12.5 121.4 L10.76 122.3 L8.949 123.1 L7.083 123.8 L5.172 124.3 L3.229 124.6 L1.265 124.8 L-0.7071 124.8 L-2.674 124.7 L-4.625 124.4 L-6.546 123.9 L-8.426 123.3 L-10.25 122.6 L-12.01 121.7 L-13.7 120.7 L-15.3 119.5 L-16.8 118.2 L-18.2 116.8 L-19.48 115.3 L-20.64 113.7 L-21.66 112.1 L-22.55 110.3 L-23.3 108.5 L-23.9 106.6 L-24.35 104.7 L-24.65 102.7 L-24.79 100.8 L-24.77 98.79 L-24.6 96.83 L-24.27 94.89 L-23.78 92.97 L-23.15 91.11 L-22.37 89.3 L-21.45 87.55 L-20.39 85.89 L-19.21 84.31 L-17.9 82.83 L-16.48 81.47 L-14.96 80.22 L-13.34 79.09 L-11.63 78.1 L-9.856 77.24 L-8.017 76.53 L-6.127 75.97 L-4.199 75.56 L-2.243 75.3 L-0.274 75.2 L1.697 75.25 L3.658 75.47 L5.595 75.84 L7.497 76.36 L9.352 77.03 L11.15 77.84 L12.87 78.8 L14.52 79.89 L16.07 81.1 L17.52 82.44 L18.86 83.89 L20.08 85.44 L21.17 87.08 L22.13 88.8 L22.95 90.59 L23.63 92.45 L24.15 94.35 L24.52 96.28 L24.74 98.24 L24.8 100.2 Z " />
<path stroke="rgb(0,0,0)" stroke-opacity="1" fill="rgb(255,255,255)" fill-opacity="1" d="M-312.6 -288.2 L-312.6 -289.1 L-312.5 -290.1 L-312.5 -291.1 L-312.5 -292.1 L-312.5 -293.1 L-312.5 -294.1 L-312.5 -295.1 L-312.5 -296 L-312.5 -297 L-312.5 -298 L-312.5 -299 L-312.4 -300 L-312.4 -301 L-312.4 -302 L-312.4 -302.9 L-312.4 -303.9 L-312.4 -304.9 L-312.4 -305.9 L-312.4 -306.9 L-312.4 -307.9 L-312.4 -308.9 L-312.4 -309.8 L-312.3 -310.8 L-312.3 -311.8 L-312.3 -312.8 L-311.3 -312.8 L-310.3 -312.8 L-309.4 -312.8 L-308.4 -312.8 L-307.4 -312.8 L-306.4 -312.7 L-305.4 -312.7 L-304.4 -312.7 L-303.4 -312.7 L-302.5 -312.7 L-301.5 -312.7 L-300.5 -312.7 L-299.5 -312.7 L-298.5 -312.7 L-297.5 -312.7 L-296.5 -312.7 L-295.6 -312.6 L-294.6 -312.6 L-293.6 -312.6 L-292.6 -312.6 L-291.6 -312.6 L-290.6 -312.6 L-289.6 -312.6 L-288.7 -312.6 L-287.7 -312.6 L-287.7 -311.6 L-287.7 -310.6 L-287.7 -309.6 L-287.7 -308.6 L-287.7 -307.6 L-287.7 -306.6 L-287.7 -305.7 L-287.7 -304.7 L-287.8 -303.7 L-287.8 -302.7 L-287.8 -301.7 L-287.8 -300.7 L-287.8 -299.7 L-287.8 -298.8 L-287.8 -297.8 L-287.8 -296.8 L-287.8 -295.8 L-287.8 -294.8 L-287.9 -293.8 L-287.9 -292.8 L-287.9 -291.9 L-287.9 -290.9 L-287.9 -289.9 L-287.9 -288.9 L-287.9 -287.9 L-288.9 -287.9 L-289.9 -287.9 L-290.9 -287.9 L-291.9 -288 L-292.8 -288 L-293.8 -288 L-294.8 -288 L-295.8 -288 L-296.8 -288 L-297.8 -288 L-298.8 -288 L-299.7 -288 L-300.7 -288 L-301.7 -288 L-302.7 -288.1 L-303.7 -288.1 L-304.7 -288.1 L-305.7 -288.1 L-306.6 -288.1 L-307.6 -288.1 L-308.6 -288.1 L-309.6 -288.1 L-310.6 -288.1 L-311.6 -288.1 L-312.6 -288.2 Z " />
<path stroke="rgb(0,0,0)" stroke-opacity="1" fill="rgb(255,255,255)" fill-opacity="1" d="M224.8 100.2 L224.7 102.2 L224.5 104.1 L224 106.1 L223.5 108 L222.8 109.8 L221.9 111.6 L220.9 113.3 L219.8 114.9 L218.6 116.4 L217.2 117.9 L215.7 119.2 L214.2 120.4 L212.5 121.4 L210.8 122.3 L208.9 123.1 L207.1 123.8 L205.2 124.3 L203.2 124.6 L201.3 124.8 L199.3 124.8 L197.3 124.7 L195.4 124.4 L193.5 123.9 L191.6 123.3 L189.7 122.6 L188 121.7 L186.3 120.7 L184.7 119.5 L183.2 118.2 L181.8 116.8 L180.5 115.3 L179.4 113.7 L178.3 112.1 L177.4 110.3 L176.7 108.5 L176.1 106.6 L175.6 104.7 L175.4 102.7 L175.2 100.8 L175.2 98.79 L175.4 96.83 L175.7 94.89 L176.2 92.97 L176.9 91.11 L177.6 89.3 L178.6 87.55 L179.6 85.89 L180.8 84.31 L182.1 82.83 L183.5 81.47 L185 80.22 L186.7 79.09 L188.4 78.1 L190.1 77.24 L192 76.53 L193.9 75.97 L195.8 75.56 L197.8 75.3 L199.7 75.2 L201.7 75.25 L203.7 75.47 L205.6 75.84 L207.5 76.36 L209.4 77.03 L211.1 77.84 L212.9 78.8 L214.5 79.89 L216.1 81.1 L217.5 82.44 L218.9 83.89 L220.1 85.44 L221.2 87.08 L222.1 88.8 L223 90.59 L223.6 92.45 L224.2 94.35 L224.5 96.28 L224.7 98.24 L224.8 100.2 Z " />
<path stroke="rgb(0,0,0)" stroke-opacity="1" fill="rgb(255,255,255)" fill-opacity="1" d="M-112.6 -288.2 L-112.6 -289.1 L-112.5 -290.1 L-112.5 -291.1 L-112.5 -292.1 L-112.5 -293.1 L-112.5 -294.1 L-112.5 -295.1 L-112.5 -296 L-112.5 -297 L-112.5 -298 L-112.5 -299 L-112.4 -300 L-112.4 -301 L-112.4 -302 L-112.4 -302.9 L-112.4 -303.9 L-112.4 -304.9 L-112.4 -305.9 L-112.4 -306.9 L-112.4 -307.9 L-112.4 -308.9 L-112.4 -309.8 L-112.3 -310.8 L-112.3 -311.8 L-112.3 -312.8 L-111.3 -312.8 L-110.3 -312.8 L-109.4 -312.8 L-108.4 -312.8 L-107.4 -312.8 L-106.4 -312.7 L-105.4 -312.7 L-104.4 -312.7 L-103.4 -312.7 L-102.5 -312.7 L-101.5 -312.7 L-100.5 -312.7 L-99.5 -312.7 L-98.51 -312.7 L-97.53 -312.7 L-96.54 -312.7 L-95.56 -312.6 L-94.57 -312.6 L-93.58 -312.6 L-92.6 -312.6 L-91.61 -312.6 L-90.63 -312.6 L-89.64 -312.6 L-88.65 -312.6 L-87.67 -312.6 L-87.68 -311.6 L-87.69 -310.6 L-87.7 -309.6 L-87.71 -308.6 L-87.72 -307.6 L-87.73 -306.6 L-87.74 -305.7 L-87.74 -304.7 L-87.75 -303.7 L-87.76 -302.7 L-87.77 -301.7 L-87.78 -300.7 L-87.79 -299.7 L-87.8 -298.8 L-87.81 -297.8 L-87.82 -296.8 L-87.83 -295.8 L-87.84 -294.8 L-87.85 -293.8 L-87.86 -292.8 L-87.87 -291.9 L-87.88 -290.9 L-87.89 -289.9 L-87.9 -288.9 L-87.91 -287.9 L-88.9 -287.9 L-89.88 -287.9 L-90.87 -287.9 L-91.85 -288 L-92.84 -288 L-93.83 -288 L-94.81 -288 L-95.8 -288 L-96.79 -288 L-97.77 -288 L-98.76 -288 L-99.74 -288 L-100.7 -288 L-101.7 -288 L-102.7 -288.1 L-103.7 -288.1 L-104.7 -288.1 L-105.7 -288.1 L-106.6 -288.1 L-107.6 -288.1 L-108.6 -288.1 L-109.6 -288.1 L-110.6 -288.1 L-111.6 -288.1 L-112.6 -288.2 Z " />
<path stroke="rgb(0,0,0)" stroke-opacity="1" fill="rgb(255,255,255)" fill-opacity="1" d="M-275.8 198.9 L-275.8 200.8 L-276 202.7 L-276.2 204.6 L-276.7 206.5 L-277.3 208.3 L-278 210.1 L-278.9 211.8 L-279.9 213.4 L-281 215 L-282.2 216.5 L-283.6 217.8 L-285.1 219.1 L-286.6 220.2 L-288.3 221.2 L-290 222 L-291.8 222.8 L-293.6 223.3 L-295.5 223.8 L-297.4 224.1 L-299.3 224.2 L-301.2 224.2 L-303.1 224 L-305 223.7 L-306.9 223.2 L-308.7 222.6 L-310.5 221.8 L-312.2 220.9 L-313.8 219.9 L-315.3 218.7 L-316.8 217.4 L-318.1 216 L-319.3 214.5 L-320.4 213 L-321.4 211.3 L-322.2 209.6 L-322.9 207.8 L-323.4 205.9 L-323.8 204 L-324.1 202.1 L-324.2 200.2 L-324.1 198.3 L-323.9 196.4 L-323.5 194.5 L-323 192.6 L-322.4 190.8 L-321.6 189.1 L-320.6 187.4 L-319.6 185.8 L-318.4 184.3 L-317.1 182.9 L-315.6 181.6 L-314.1 180.4 L-312.5 179.3 L-310.8 178.4 L-309.1 177.6 L-307.3 177 L-305.4 176.4 L-303.5 176.1 L-301.6 175.9 L-299.7 175.8 L-297.8 175.9 L-295.9 176.2 L-294 176.6 L-292.2 177.1 L-290.4 177.8 L-288.6 178.7 L-287 179.6 L-285.4 180.7 L-283.9 182 L-282.5 183.3 L-281.2 184.7 L-280.1 186.3 L-279.1 187.9 L-278.2 189.6 L-277.4 191.4 L-276.8 193.2 L-276.3 195 L-276 196.9 L-275.8 198.9 Z " />
<path stroke="rgb(0,0,0)" stroke-opacity="1" fill="rgb(255,255,255)" fill-opacity="1" d="M-612.6 -188.2 L-612.6 -189.1 L-612.5 -190.1 L-612.5 -191.1 L-612.5 -192.1 L-612.5 -193.1 L-612.5 -194.1 L-612.5 -195.1 L-612.5 -196 L-612.5 -197 L-612.5 -198 L-612.5 -199 L-612.4 -200 L-612.4 -201 L-612.4 -202 L-612.4 -202.9 L-612.4 -203.9 L-612.4 -204.9 L-612.4 -205.9 L-612.4 -206.9 L-612.4 -207.9 L-612.4 -208.9 L-612.4 -209.8 L-612.3 -210.8 L-612.3 -211.8 L-612.3 -212.8 L-611.3 -212.8 L-610.3 -212.8 L-609.4 -212.8 L-608.4 -212.8 L-607.4 -212.8 L-606.4 -212.7 L-605.4 -212.7 L-604.4 -212.7 L-603.4 -212.7 L-602.5 -212.7 L-601.5 -212.7 L-600.5 -212.7 L-599.5 -212.7 L-598.5 -212.7 L-597.5 -212.7 L-596.5 -212.7 L-595.6 -212.6 L-594.6 -212.6 L-593.6 -212.6 L-592.6 -212.6 L-591.6 -212.6 L-590.6 -212.6 L-589.6 -212.6 L-588.7 -212.6 L-587.7 -212.6 L-587.7 -211.6 L-587.7 -210.6 L-587.7 -209.6 L-587.7 -208.6 L-587.7 -207.6 L-587.7 -206.6 L-587.7 -205.7 L-587.7 -204.7 L-587.8 -203.7 L-587.8 -202.7 L-587.8 -201.7 L-587.8 -200.7 L-587.8 -199.7 L-587.8 -198.8 L-587.8 -197.8 L-587.8 -196.8 L-587.8 -195.8 L-587.8 -194.8 L-587.9 -193.8 L-587.9 -192.8 L-587.9 -191.9 L-587.9 -190.9 L-587.9 -189.9 L-587.9 -188.9 L-587.9 -187.9 L-588.9 -187.9 L-589.9 -187.9 L-590.9 -187.9 L-591.9 -188 L-592.8 -188 L-593.8 -188 L-594.8 -188 L-595.8 -188 L-596.8 -188 L-597.8 -188 L-598.8 -188 L-599.7 -188 L-600.7 -188 L-601.7 -188 L-602.7 -188.1 L-603.7 -188.1 L-604.7 -188.1 L-605.7 -188.1 L-606.6 -188.1 L-607.6 -188.1 L-608.6 -188.1 L-609.6 -188.1 L-610.6 -188.1 L-611.6 -188.1 L-612.6 -188.2 Z " />
<path stroke="rgb(0,0,0)" stroke-opacity="1" fill="rgb(255,255,255)" fill-opacity="1" d="M-75.2 200.2 L-75.29 202.2 L-75.55 204.1 L-75.95 206.1 L-76.51 208 L-77.22 209.8 L-78.07 211.6 L-79.06 213.3 L-80.18 214.9 L-81.43 216.4 L-82.79 217.9 L-84.26 219.2 L-85.84 220.4 L-87.5 221.4 L-89.24 222.3 L-91.05 223.1 L-92.92 223.8 L-94.83 224.3 L-96.77 224.6 L-98.74 224.8 L-100.7 224.8 L-102.7 224.7 L-104.6 224.4 L-106.5 223.9 L-108.4 223.3 L-110.3 222.6 L-112 221.7 L-113.7 220.7 L-115.3 219.5 L-116.8 218.2 L-118.2 216.8 L-119.5 215.3 L-120.6 213.7 L-121.7 212.1 L-122.6 210.3 L-123.3 208.5 L-123.9 206.6 L-124.4 204.7 L-124.6 202.7 L-124.8 200.8 L-124.8 198.8 L-124.6 196.8 L-124.3 194.9 L-123.8 193 L-123.1 191.1 L-122.4 189.3 L-121.4 187.6 L-120.4 185.9 L-119.2 184.3 L-117.9 182.8 L-116.5 181.5 L-115 180.2 L-113.3 179.1 L-111.6 178.1 L-109.9 177.2 L-108 176.5 L-106.1 176 L-104.2 175.6 L-102.2 175.3 L-100.3 175.2 L-98.3 175.3 L-96.34 175.5 L-94.41 175.8 L-92.5 176.4 L-90.65 177 L-88.85 177.8 L-87.13 178.8 L-85.48 179.9 L-83.93 181.1 L-82.48 182.4 L-81.14 183.9 L-79.92 185.4 L-78.83 187.1 L-77.87 188.8 L-77.05 190.6 L-76.37 192.4 L-75.85 194.3 L-75.48 196.3 L-75.26 198.2 L-75.2 200.2 Z " />
<path stroke="rgb(0,0,0)" stroke-opacity="1" fill="rgb(255,255,255)" fill-opacity="1" d="M-412.6 -188.2 L-412.6 -189.1 L-412.5 -190.1 L-412.5 -191.1 L-412.5 -192.1 L-412.5 -193.1 L-412.5 -194.1 L-412.5 -195.1 L-412.5 -196 L-412.5 -197 L-412.5 -198 L-412.5 -199 L-412.4 -200 L-412.4 -201 L-412.4 -202 L-412.4 -202.9 L-412.4 -203.9 L-412.4 -204.9 L-412.4 -205.9 L-412.4 -206.9 L-412.4 -207.9 L-412.4 -208.9 L-412.4 -209.8 L-412.3 -210.8 L-412.3 -211.8 L-412.3 -212.8 L-411.3 -212.8 L-410.3 -212.8 L-409.4 -212.8 L-408.4 -212.8 L-407.4 -212.8 L-406.4 -212.7 L-405.4 -212.7 L-404.4 -212.7 L-403.4 -212.7 L-402.5 -212.7 L-401.5 -212.7 L-400.5 -212.7 L-399.5 -212.7 L-398.5 -212.7 L-397.5 -212.7 L-396.5 -212.7 L-395.6 -212.6 L-394.6 -212.6 L-393.6 -212.6 L-392.6 -212.6 L-391.6 -212.6 L-390.6 -212.6 L-389.6 -212.6 L-388.7 -212.6 L-387.7 -212.6 L-387.7 -211.6 L-387.7 -210.6 L-387.7 -209.6 L-387.7 -208.6 L-387.7 -207.6 L-387.7 -206.6 L-387.7 -205.7 L-387.7 -204.7 L-387.8 -203.7 L-387.8 -202.7 L-387.8 -201.7 L-387.8 -200.7 L-387.8 -199.7 L-387.8 -198.8 L-387.8 -197.8 L-387.8 -196.8 L-387.8 -195.8 L-387.8 -194.8 L-387.9 -193.8 L-387.9 -192.8 L-387.9 -191.9 L-387.9 -190.9 L-387.9 -189.9 L-387.9 -188.9 L-387.9 -187.9 L-388.9 -187.9 L-389.9 -187.9 L-390.9 -187.9 L-391.9 -188 L-392.8 -188 L-393.8 -188 L-394.8 -188 L-395.8 -188 L-396.8 -188 L-397.8 -188 L-398.8 -188 L-399.7 -188 L-400.7 -188 L-401.7 -188 L-402.7 -188.1 L-403.7 -188.1 L-404.7 -188.1 L-405.7 -188.1 L-406.6 -188.1 L-407.6 -188.1 L-408.6 -188.1 L-409.6 -188.1 L-410.6 -188.1 L-411.6 -188.1 L-412.6 -188.2 Z " />
<path stroke="rgb(0,0,0)" stroke-opacity="1" fill="rgb(255,255,255)" fill-opacity="1" d="M124.8 200.2 L124.7 202.2 L124.5 204.1 L124 206.1 L123.5 208 L122.8 209.8 L121.9 211.6 L120.9 213.3 L119.8 214.9 L118.6 216.4 L117.2 217.9 L115.7 219.2 L114.2 220.4 L112.5 221.4 L110.8 222.3 L108.9 223.1 L107.1 223.8 L105.2 224.3 L103.2 224.6 L101.3 224.8 L99.29 224.8 L97.33 224.7 L95.38 224.4 L93.45 223.9 L91.57 223.3 L89.75 222.6 L87.99 221.7 L86.3 220.7 L84.7 219.5 L83.2 218.2 L81.8 216.8 L80.52 215.3 L79.36 213.7 L78.34 212.1 L77.45 210.3 L76.7 208.5 L76.1 206.6 L75.65 204.7 L75.35 202.7 L75.21 200.8 L75.23 198.8 L75.4 196.8 L75.73 194.9 L76.22 193 L76.85 191.1 L77.63 189.3 L78.55 187.6 L79.61 185.9 L80.79 184.3 L82.1 182.8 L83.52 181.5 L85.04 180.2 L86.66 179.1 L88.37 178.1 L90.14 177.2 L91.98 176.5 L93.87 176 L95.8 175.6 L97.76 175.3 L99.73 175.2 L101.7 175.3 L103.7 175.5 L105.6 175.8 L107.5 176.4 L109.4 177 L111.1 177.8 L112.9 178.8 L114.5 179.9 L116.1 181.1 L117.5 182.4 L118.9 183.9 L120.1 185.4 L121.2 187.1 L122.1 188.8 L123 190.6 L123.6 192.4 L124.2 194.3 L124.5 196.3 L124.7 198.2 L124.8 200.2 Z " />
<path stroke="rgb(0,0,0)" stroke-opacity="1" fill="rgb(255,255,255)" fill-opacity="1" d="M-212.6 -188.2 L-212.6 -189.1 L-212.5 -190.1 L-212.5 -191.1 L-212.5 -192.1 L-212.5 -193.1 L-212.5 -194.1 L-212.5 -195.1 L-212.5 -196 L-212.5 -197 L-212.5 -198 L-212.5 -199 L-212.4 -200 L-212.4 -201 L-212.4 -202 L-212.4 -202.9 L-212.4 -203.9 L-212.4 -204.9 L-212.4 -205.9 L-212.4 -206.9 L-212.4 -207.9 L-212.4 -208.9 L-212.4 -209.8 L-212.3 -210.8 L-212.3 -211.8 L-212.3 -212.8 L-211.3 -212.8 L-210.3 -212.8 L-209.4 -212.8 L-208.4 -212.8 L-207.4 -212.8 L-206.4 -212.7 L-205.4 -212.7 L-204.4 -212.7 L-203.4 -212.7 L-202.5 -212.7 L-201.5 -212.7 L-200.5 -212.7 L-199.5 -212.7 L-198.5 -212.7 L-197.5 -212.7 L-196.5 -212.7 L-195.6 -212.6 L-194.6 -212.6 L-193.6 -212.6 L-192.6 -212.6 L-191.6 -212.6 L-190.6 -212.6 L-189.6 -212.6 L-188.7 -212.6 L-187.7 -212.6 L-187.7 -211.6 L-187.7 -210.6 L-187.7 -209.6 L-187.7 -208.6 L-187.7 -207.6 L-187.7 -206.6 L-187.7 -205.7 L-187.7 -204.7 L-187.8 -203.7 L-187.8 -202.7 L-187.8 -201.7 L-187.8 -200.7 L-187.8 -199.7 L-187.8 -198.8 L-187.8 -197.8 L-187.8 -196.8 L-187.8 -195.8 L-187.8 -194.8 L-187.9 -193.8 L-187.9 -192.8 L-187.9 -191.9 L-187.9 -190.9 L-187.9 -189.9 L-187.9 -188.9 L-187.9 -187.9 L-188.9 -187.9 L-189.9 -187.9 L-190.9 -187.9 L-191.9 -188 L-192.8 -188 L-193.8 -188 L-194.8 -188 L-195.8 -188 L-196.8 -188 L-197.8 -188 L-198.8 -188 L-199.7 -188 L-200.7 -188 L-201.7 -188 L-202.7 -188.1 L-203.7 -188.1 L-204.7 -188.1 L-205.7 -188.1 L-206.6 -188.1 L-207.6 -188.1 L-208.6 -188.1 L-209.6 -188.1 L-210.6 -188.1 L-211.6 -188.1 L-212.6 -188.2 Z " />
<path stroke="rgb(0,0,0)" stroke-opacity="1" fill="rgb(255,255,255)" fill-opacity="1" d="M324.8 200.2 L324.7 202.2 L324.5 204.1 L324 206.1 L323.5 208 L322.8 209.8 L321.9 211.6 L320.9 213.3 L319.8 214.9 L318.6 216.4 L317.2 217.9 L315.7 219.2 L314.2 220.4 L312.5 221.4 L310.8 222.3 L308.9 223.1 L307.1 223.8 L305.2 224.3 L303.2 224.6 L301.3 224.8 L299.3 224.8 L297.3 224.7 L295.4 224.4 L293.5 223.9 L291.6 223.3 L289.7 222.6 L288 221.7 L286.3 220.7 L284.7 219.5 L283.2 218.2 L281.8 216.8 L280.5 215.3 L279.4 213.7 L278.3 212.1 L277.4 210.3 L276.7 208.5 L276.1 206.6 L275.6 204.7 L275.4 202.7 L275.2 200.8 L275.2 198.8 L275.4 196.8 L275.7 194.9 L276.2 193 L276.9 191.1 L277.6 189.3 L278.6 187.6 L279.6 185.9 L280.8 184.3 L282.1 182.8 L283.5 181.5 L285 180.2 L286.7 179.1 L288.4 178.1 L290.1 177.2 L292 176.5 L293.9 176 L295.8 175.6 L297.8 175.3 L299.7 175.2 L301.7 175.3 L303.7 175.5 L305.6 175.8 L307.5 176.4 L309.4 177 L311.1 177.8 L312.9 178.8 L314.5 179.9 L316.1 181.1 L317.5 182.4 L318.9 183.9 L320.1 185.4 L321.2 187.1 L322.1 188.8 L323 190.6 L323.6 192.4 L324.2 194.3 L324.5 196.3 L324.7 198.2 L324.8 200.2 Z " />
<path stroke="rgb(0,0,0)" stroke-opacity="1" fill="rgb(255,255,255)" fill-opacity="1" d="M-712.6 -88.15 L-712.6 -89.14 L-712.5 -90.13 L-712.5 -91.11 L-712.5 -92.1 L-712.5 -93.09 L-712.5 -94.07 L-712.5 -95.06 L-712.5 -96.04 L-712.5 -97.03 L-712.5 -98.02 L-712.5 -99 L-712.4 -99.99 L-712.4 -101 L-712.4 -102 L-712.4 -102.9 L-712.4 -103.9 L-712.4 -104.9 L-712.4 -105.9 L-712.4 -106.9 L-712.4 -107.9 L-712.4 -108.9 L-712.4 -109.8 L-712.3 -110.8 L-712.3 -111.8 L-712.3 -112.8 L-711.3 -112.8 L-710.3 -112.8 L-709.4 -112.8 L-708.4 -112.8 L-707.4 -112.8 L-706.4 -112.7 L-705.4 -112.7 L-704.4 -112.7 L-703.4 -112.7 L-702.5 -112.7 L-701.5 -112.7 L-700.5 -112.7 L-699.5 -112.7 L-698.5 -112.7 L-697.5 -112.7 L-696.5 -112.7 L-695.6 -112.6 L-694.6 -112.6 L-693.6 -112.6 L-692.6 -112.6 L-691.6 -112.6 L-690.6 -112.6 L-689.6 -112.6 L-688.7 -112.6 L-687.7 -112.6 L-687.7 -111.6 L-687.7 -110.6 L-687.7 -109.6 L-687.7 -108.6 L-687.7 -107.6 L-687.7 -106.6 L-687.7 -105.7 L-687.7 -104.7 L-687.8 -103.7 L-687.8 -102.7 L-687.8 -101.7 L-687.8 -100.7 L-687.8 -99.75 L-687.8 -98.76 L-687.8 -97.77 L-687.8 -96.79 L-687.8 -95.8 L-687.8 -94.81 L-687.9 -93.83 L-687.9 -92.84 L-687.9 -91.86 L-687.9 -90.87 L-687.9 -89.88 L-687.9 -88.9 L-687.9 -87.91 L-688.9 -87.92 L-689.9 -87.93 L-690.9 -87.94 L-691.9 -87.95 L-692.8 -87.96 L-693.8 -87.97 L-694.8 -87.98 L-695.8 -87.99 L-696.8 -88 L-697.8 -88.01 L-698.8 -88.02 L-699.7 -88.03 L-700.7 -88.04 L-701.7 -88.05 L-702.7 -88.06 L-703.7 -88.07 L-704.7 -88.08 L-705.7 -88.09 L-706.6 -88.1 L-707.6 -88.11 L-708.6 -88.12 L-709.6 -88.13 L-710.6 -88.13 L-711.6 -88.14 L-712.6 -88.15 Z " />
<path stroke="rgb(0,0,0)" stroke-opacity="1" fill="rgb(255,255,255)" fill-opacity="1" d="M-175.2 300.2 L-175.3 302.2 L-175.5 304.1 L-176 306.1 L-176.5 308 L-177.2 309.8 L-178.1 311.6 L-179.1 313.3 L-180.2 314.9 L-181.4 316.4 L-182.8 317.9 L-184.3 319.2 L-185.8 320.4 L-187.5 321.4 L-189.2 322.3 L-191.1 323.1 L-192.9 323.8 L-194.8 324.3 L-196.8 324.6 L-198.7 324.8 L-200.7 324.8 L-202.7 324.7 L-204.6 324.4 L-206.5 323.9 L-208.4 323.3 L-210.3 322.6 L-212 321.7 L-213.7 320.7 L-215.3 319.5 L-216.8 318.2 L-218.2 316.8 L-219.5 315.3 L-220.6 313.7 L-221.7 312.1 L-222.6 310.3 L-223.3 308.5 L-223.9 306.6 L-224.4 304.7 L-224.6 302.7 L-224.8 300.8 L-224.8 298.8 L-224.6 296.8 L-224.3 294.9 L-223.8 293 L-223.1 291.1 L-222.4 289.3 L-221.4 287.6 L-220.4 285.9 L-219.2 284.3 L-217.9 282.8 L-216.5 281.5 L-215 280.2 L-213.3 279.1 L-211.6 278.1 L-209.9 277.2 L-208 276.5 L-206.1 276 L-204.2 275.6 L-202.2 275.3 L-200.3 275.2 L-198.3 275.3 L-196.3 275.5 L-194.4 275.8 L-192.5 276.4 L-190.6 277 L-188.9 277.8 L-187.1 278.8 L-185.5 279.9 L-183.9 281.1 L-182.5 282.4 L-181.1 283.9 L-179.9 285.4 L-178.8 287.1 L-177.9 288.8 L-177 290.6 L-176.4 292.4 L-175.8 294.3 L-175.5 296.3 L-175.3 298.2 L-175.2 300.2 Z " />
<path stroke="rgb(0,0,0)" stroke-opacity="1" fill="rgb(255,255,255)" fill-opacity="1" d="M-512.6 -88.15 L-512.6 -89.14 L-512.5 -90.13 L-512.5 -91.11 L-512.5 -92.1 L-512.5 -93.09 L-512.5 -94.07 L-512.5 -95.06 L-512.5 -96.04 L-512.5 -97.03 L-512.5 -98.02 L-512.5 -99 L-512.4 -99.99 L-512.4 -101 L-512.4 -102 L-512.4 -102.9 L-512.4 -103.9 L-512.4 -104.9 L-512.4 -105.9 L-512.4 -106.9 L-512.4 -107.9 L-512.4 -108.9 L-512.4 -109.8 L-512.3 -110.8 L-512.3 -111.8 L-512.3 -112.8 L-511.3 -112.8 L-510.3 -112.8 L-509.4 -112.8 L-508.4 -112.8 L-507.4 -112.8 L-506.4 -112.7 L-505.4 -112.7 L-504.4 -112.7 L-503.4 -112.7 L-502.5 -112.7 L-501.5 -112.7 L-500.5 -112.7 L-499.5 -112.7 L-498.5 -112.7 L-497.5 -112.7 L-496.5 -112.7 L-495.6 -112.6 L-494.6 -112.6 L-493.6 -112.6 L-492.6 -112.6 L-491.6 -112.6 L-490.6 -112.6 L-489.6 -112.6 L-488.7 -112.6 L-487.7 -112.6 L-487.7 -111.6 L-487.7 -110.6 L-487.7 -109.6 L-487.7 -108.6 L-487.7 -107.6 L-487.7 -106.6 L-487.7 -105.7 L-487.7 -104.7 L-487.8 -103.7 L-487.8 -102.7 L-487.8 -101.7 L-487.8 -100.7 L-487.8 -99.75 L-487.8 -98.76 L-487.8 -97.77 L-487.8 -96.79 L-487.8 -95.8 L-487.8 -94.81 L-487.9 -93.83 L-487.9 -92.84 L-487.9 -91.86 L-487.9 -90.87 L-487.9 -89.88 L-487.9 -88.9 L-487.9 -87.91 L-488.9 -87.92 L-489.9 -87.93 L-490.9 -87.94 L-491.9 -87.95 L-492.8 -87.96 L-493.8 -87.97 L-494.8 -87.98 L-495.8 -87.99 L-496.8 -88 L-497.8 -88.01 L-498.8 -88.02 L-499.7 -88.03 L-500.7 -88.04 L-501.7 -88.05 L-502.7 -88.06 L-503.7 -88.07 L-504.7 -88.08 L-505.7 -88.09 L-506.6 -88.1 L-507.6 -88.11 L-508.6 -88.12 L-509.6 -88.13 L-510.6 -88.13 L-511.6 -88.14 L-512.6 -88.15 Z " />
<path stroke="rgb(0,0,0)" stroke-opacity="1" fill="rgb(255,255,255)" fill-opacity="1" d="M24.8 300.2 L24.71 302.2 L24.45 304.1 L24.05 306.1 L23.49 308 L22.78 309.8 L21.93 311.6 L20.94 313.3 L19.82 314.9 L18.57 316.4 L17.21 317.9 L15.74 319.2 L14.16 320.4 L12.5 321.4 L10.76 322.3 L8.949 323.1 L7.083 323.8 L5.172 324.3 L3.229 324.6 L1.265 324.8 L-0.7071 324.8 L-2.674 324.7 L-4.625 324.4 L-6.546 323.9 L-8.426 323.3 L-10.25 322.6 L-12.01 321.7 L-13.7 320.7 L-15.3 319.5 L-16.8 318.2 L-18.2 316.8 L-19.48 315.3 L-20.64 313.7 L-21.66 312.1 L-22.55 310.3 L-23.3 308.5 L-23.9 306.6 L-24.35 304.7 L-24.65 302.7 L-24.79 300.8 L-24.77 298.8 L-24.6 296.8 L-24.27 294.9 L-23.78 293 L-23.15 291.1 L-22.37 289.3 L-21.45 287.6 L-20.39 285.9 L-19.21 284.3 L-17.9 282.8 L-16.48 281.5 L-14.96 280.2 L-13.34 279.1 L-11.63 278.1 L-9.856 277.2 L-8.017 276.5 L-6.127 276 L-4.199 275.6 L-2.243 275.3 L-0.274 275.2 L1.697 275.3 L3.658 275.5 L5.595 275.8 L7.497 276.4 L9.352 277 L11.15 277.8 L12.87 278.8 L14.52 279.9 L16.07 281.1 L17.52 282.4 L18.86 283.9 L20.08 285.4 L21.17 287.1 L22.13 288.8 L22.95 290.6 L23.63 292.4 L24.15 294.3 L24.52 296.3 L24.74 298.2 L24.8 300.2 Z " />
<path stroke="rgb(0,0,0)" stroke-opacity="1" fill="rgb(255,255,255)" fill-opacity="1" d="M-312.6 -88.15 L-312.6 -89.14 L-312.5 -90.13 L-312.5 -91.11 L-312.5 -92.1 L-312.5 -93.09 L-312.5 -94.07 L-312.5 -95.06 L-312.5 -96.04 L-312.5 -97.03 L-312.5 -98.02 L-312.5 -99 L-312.4 -99.99 L-312.4 -101 L-312.4 -102 L-312.4 -102.9 L-312.4 -103.9 L-312.4 -104.9 L-312.4 -105.9 L-312.4 -106.9 L-312.4 -107.9 L-312.4 -108.9 L-312.4 -109.8 L-312.3 -110.8 L-312.3 -111.8 L-312.3 -112.8 L-311.3 -112.8 L-310.3 -112.8 L-309.4 -112.8 L-308.4 -112.8 L-307.4 -112.8 L-306.4 -112.7 L-305.4 -112.7 L-304.4 -112.7 L-303.4 -112.7 L-302.5 -112.7 L-301.5 -112.7 L-300.5 -112.7 L-299.5 -112.7 L-298.5 -112.7 L-297.5 -112.7 L-296.5 -112.7 L-295.6 -112.6 L-294.6 -112.6 L-293.6 -112.6 L-292.6 -112.6 L-291.6 -112.6 L-290.6 -112.6 L-289.6 -112.6 L-288.7 -112.6 L-287.7 -112.6 L-287.7 -111.6 L-287.7 -110.6 L-287.7 -109.6 L-287.7 -108.6 L-287.7 -107.6 L-287.7 -106.6 L-287.7 -105.7 L-287.7 -104.7 L-287.8 -103.7 L-287.8 -102.7 L-287.8 -101.7 L-287.8 -100.7 L-287.8 -99.75 L-287.8 -98.76 L-287.8 -97.77 L-287.8 -96.79 L-287.8 -95.8 L-287.8 -94.81 L-287.9 -93.83 L-287.9 -92.84 L-287.9 -91.86 L-287.9 -90.87 L-287.9 -89.88 L-287.9 -88.9 L-287.9 -87.91 L-288.9 -87.92 L-289.9 -87.93 L-290.9 -87.94 L-291.9 -87.95 L-292.8 -87.96 L-293.8 -87.97 L-294.8 -87.98 L-295.8 -87.99 L-296.8 -88 L-297.8 -88.01 L-298.8 -88.02 L-299.7 -88.03 L-300.7 -88.04 L-301.7 -88.05 L-302.7 -88.06 L-303.7 -88.07 L-304.7 -88.08 L-305.7 -88.09 L-306.6 -88.1 L-307.6 -88.11 L-308.6 -88.12 L-309.6 -88.13 L-310.6 -88.13 L-311.6 -88.14 L-312.6 -88.15 Z " />
<path stroke="rgb(0,0,0)" stroke-opacity="1" fill="rgb(255,255,255)" fill-opacity="1" d="M224.8 300.2 L224.7 302.2 L224.5 304.1 L224 306.1 L223.5 308 L222.8 309.8 L221.9 311.6 L220.9 313.3 L219.8 314.9 L218.6 316.4 L217.2 317.9 L215.7 319.2 L214.2 320.4 L212.5 321.4 L210.8 322.3 L208.9 323.1 L207.1 323.8 L205.2 324.3 L203.2 324.6 L201.3 324.8 L199.3 324.8 L197.3 324.7 L195.4 324.4 L193.5 323.9 L191.6 323.3 L189.7 322.6 L188 321.7 L186.3 320.7 L184.7 319.5 L183.2 318.2 L181.8 316.8 L180.5 315.3 L179.4 313.7 L178.3 312.1 L177.4 310.3 L176.7 308.5 L176.1 306.6 L175.6 304.7 L175.4 302.7 L175.2 300.8 L175.2 298.8 L175.4 296.8 L175.7 294.9 L176.2 293 L176.9 291.1 L177.6 289.3 L178.6 287.6 L179.6 285.9 L180.8 284.3 L182.1 282.8 L183.5 281.5 L185 280.2 L186.7 279.1 L188.4 278.1 L190.1 277.2 L192 276.5 L193.9 276 L195.8 275.6 L197.8 275.3 L199.7 275.2 L201.7 275.3 L203.7 275.5 L205.6 275.8 L207.5 276.4 L209.4 277 L211.1 277.8 L212.9 278.8 L214.5 279.9 L216.1 281.1 L217.5 282.4 L218.9 283.9 L220.1 285.4 L221.2 287.1 L222.1 288.8 L223 290.6 L223.6 292.4 L224.2 294.3 L224.5 296.3 L224.7 298.2 L224.8 300.2 Z " />
<path stroke="rgb(0,0,0)" stroke-opacity="1" fill="rgb(255,255,255)" fill-opacity="1" d="M-112.6 -88.15 L-112.6 -89.14 L-112.5 -90.13 L-112.5 -91.11 L-112.5 -92.1 L-112.5 -93.09 L-112.5 -94.07 L-112.5 -95.06 L-112.5 -96.04 L-112.5 -97.03 L-112.5 -98.02 L-112.5 -99 L-112.4 -99.99 L-112.4 -101 L-112.4 -102 L-112.4 -102.9 L-112.4 -103.9 L-112.4 -104.9 L-112.4 -105.9 L-112.4 -106.9 L-112.4 -107.9 L-112.4 -108.9 L-112.4 -109.8 L-112.3 -110.8 L-112.3 -111.8 L-112.3 -112.8 L-111.3 -112.8 L-110.3 -112.8 L-109.4 -112.8 L-108.4 -112.8 L-107.4 -112.8 L-106.4 -112.7 L-105.4 -112.7 L-104.4 -112.7 L-103.4 -112.7 L-102.5 -112.7 L-101.5 -112.7 L-100.5 -112.7 L-99.5 -112.7 L-98.51 -112.7 L-97.53 -112.7 L-96.54 -112.7 L-95.56 -112.6 L-94.57 -112.6 L-93.58 -112.6 L-92.6 -112.6 L-91.61 -112.6 L-90.63 -112.6 L-89.64 -112.6 L-88.65 -112.6 L-87.67 -112.6 L-87.68 -111.6 L-87.69 -110.6 L-87.7 -109.6 L-87.71 -108.6 L-87.72 -107.6 L-87.73 -106.6 L-87.74 -105.7 L-87.74 -104.7 L-87.75 -103.7 L-87.76 -102.7 L-87.77 -101.7 L-87.78 -100.7 L-87.79 -99.75 L-87.8 -98.76 L-87.81 -97.77 L-87.82 -96.79 L-87.83 -95.8 L-87.84 -94.81 L-87.85 -93.83 L-87.86 -92.84 L-87.87 -91.86 L-87.88 -90.87 L-87.89 -89.88 L-87.9 -88.9 L-87.91 -87.91 L-88.9 -87.92 L-89.88 -87.93 L-90.87 -87.94 L-91.85 -87.95 L-92.84 -87.96 L-93.83 -87.97 L-94.81 -87.98 L-95.8 -87.99 L-96.79 -88 L-97.77 -88.01 L-98.76 -88.02 L-99.74 -88.03 L-100.7 -88.04 L-101.7 -88.05 L-102.7 -88.06 L-103.7 -88.07 L-104.7 -88.08 L-105.7 -88.09 L-106.6 -88.1 L-107.6 -88.11 L-108.6 -88.12 L-109.6 -88.13 L-110.6 -88.13 L-111.6 -88.14 L-112.6 -88.15 Z " />
</g>
</g>
</svg>
