<!DOCTYPE svg>
<svg xmlns="http://www.w3.org/2000/svg" xmlns:xlink="http://www.w3.org/1999/xlink" width="1000" height="1000">
<g transform="translate(500.000000,500.000000)">
<g transform="scale(3.000000,3.000000)">
<path stroke="rgb(0,0,0)" stroke-opacity="1" fill="rgb(255,255,255)" fill-opacity="1" d="M-487.9 -512.5 L-487.9 -511.5 L-487.9 -510.5 L-487.9 -509.5 L-487.9 -508.5 L-487.9 -507.5 L-487.9 -506.5 L-487.9 -505.5 L-487.9 -504.6 L-487.9 -503.6 L-487.9 -502.6 L-487.9 -501.6 L-487.9 -500.6 L-487.9 -499.6 L-487.9 -498.6 L-487.9 -497.6 L-487.9 -496.6 L-487.9 -495.6 L-488 -494.6 L-488 -493.6 L-488 -492.6 L-488 -491.6 L-488 -490.6 L-488 -489.6 L-488 -488.6 L-488 -487.6 L-489 -487.6 L-490 -487.7 L-491 -487.7 L-492 -487.7 L-492.9 -487.7 L-493.9 -487.7 L-494.9 -487.7 L-495.9 -487.7 L-496.9 -487.7 L-497.9 -487.7 L-498.9 -487.7 L-499.9 -487.7 L-500.9 -487.7 L-501.9 -487.7 L-502.9 -487.7 L-503.9 -487.7 L-504.9 -487.7 L-505.9 -487.7 L-506.9 -487.7 L-507.9 -487.7 L-508.9 -487.7 L-509.9 -487.7 L-510.9 -487.7 L-511.8 -487.7 L-512.8 -487.7 L-512.8 -488.7 L-512.8 -489.7 L-512.8 -490.7 L-512.8 -491.7 L-512.8 -492.7 L-512.8 -493.7 L-512.8 -494.7 L-512.8 -495.7 L-512.8 -496.7 L-512.8 -497.7 L-512.8 -498.7 L-512.8 -499.7 L-512.8 -500.7 L-512.8 -501.7 L-512.8 -502.6 L-512.8 -503.6 L-512.8 -504.6 L-512.8 -505.6 L-512.8 -506.6 L-512.8 -507.6 L-512.8 -508.6 L-512.8 -509.6 L-512.8 -510.6 L-512.8 -511.6 L-512.8 -512.6 L-511.8 -512.6 L-510.8 -512.6 L-509.8 -512.6 L-508.8 -512.6 L-507.8 -512.6 L-506.8 -512.6 L-505.8 -512.6 L-504.8 -512.6 L-503.8 -512.6 L-502.8 -512.6 L-501.8 -512.6 L-500.8 -512.6 L-499.8 -512.6 L-498.8 -512.5 L-497.8 -512.5 L-496.8 -512.5 L-495.8 -512.5 L-494.9 -512.5 L-493.9 -512.5 L-492.9 -512.5 L-491.9 -512.5 L-490.9 -512.5 L-489.9 -512.5 L-488.9 -512.5 L-487.9 -512.5 Z " />
<path stroke="rgb(0,0,0)" stroke-opacity="1" fill="rgb(255,255,255)" fill-opacity="1" d="M-175.1 -299.9 L-175.2 -297.9 L-175.4 -295.9 L-175.8 -294 L-176.4 -292.1 L-177.1 -290.3 L-177.9 -288.5 L-178.9 -286.8 L-180 -285.1 L-181.3 -283.6 L-182.6 -282.1 L-184.1 -280.8 L-185.7 -279.6 L-187.4 -278.5 L-189.1 -277.6 L-190.9 -276.8 L-192.8 -276.2 L-194.7 -275.7 L-196.7 -275.3 L-198.6 -275.1 L-200.6 -275.1 L-202.6 -275.2 L-204.5 -275.5 L-206.5 -276 L-208.4 -276.5 L-210.2 -277.3 L-212 -278.2 L-213.7 -279.2 L-215.3 -280.3 L-216.8 -281.6 L-218.2 -283 L-219.5 -284.5 L-220.7 -286.1 L-221.7 -287.8 L-222.6 -289.6 L-223.4 -291.4 L-224 -293.3 L-224.4 -295.2 L-224.7 -297.1 L-224.9 -299.1 L-224.9 -301.1 L-224.7 -303.1 L-224.4 -305 L-223.9 -306.9 L-223.3 -308.8 L-222.5 -310.6 L-221.6 -312.4 L-220.5 -314.1 L-219.4 -315.7 L-218 -317.2 L-216.6 -318.5 L-215.1 -319.8 L-213.5 -320.9 L-211.8 -321.9 L-210 -322.8 L-208.2 -323.5 L-206.3 -324.1 L-204.3 -324.5 L-202.4 -324.8 L-200.4 -324.9 L-198.4 -324.9 L-196.4 -324.6 L-194.5 -324.3 L-192.6 -323.8 L-190.7 -323.1 L-188.9 -322.3 L-187.2 -321.3 L-185.5 -320.3 L-184 -319 L-182.5 -317.7 L-181.1 -316.3 L-179.9 -314.7 L-178.8 -313.1 L-177.8 -311.3 L-177 -309.5 L-176.3 -307.7 L-175.8 -305.8 L-175.4 -303.8 L-175.2 -301.9 L-175.1 -299.9 Z " />
<path stroke="rgb(0,0,0)" stroke-opacity="1" fill="rgb(255,255,255)" fill-opacity="1" d="M-287.9 -512.5 L-287.9 -511.5 L-287.9 -510.5 L-287.9 -509.5 L-287.9 -508.5 L-287.9 -507.5 L-287.9 -506.5 L-287.9 -505.5 L-287.9 -504.6 L-287.9 -503.6 L-287.9 -502.6 L-287.9 -501.6 L-287.9 -500.6 L-287.9 -499.6 L-287.9 -498.6 L-287.9 -497.6 L-287.9 -496.6 L-287.9 -495.6 L-288 -494.6 L-288 -493.6 L-288 -492.6 L-288 -491.6 L-288 -490.6 L-288 -489.6 L-288 -488.6 L-288 -487.6 L-289 -487.6 L-290 -487.7 L-291 -487.7 L-292 -487.7 L-292.9 -487.7 L-293.9 -487.7 L-294.9 -487.7 L-295.9 -487.7 L-296.9 -487.7 L-297.9 -487.7 L-298.9 -487.7 L-299.9 -487.7 L-300.9 -487.7 L-301.9 -487.7 L-302.9 -487.7 L-303.9 -487.7 L-304.9 -487.7 L-305.9 -487.7 L-306.9 -487.7 L-307.9 -487.7 L-308.9 -487.7 L-309.9 -487.7 L-310.9 -487.7 L-311.8 -487.7 L-312.8 -487.7 L-312.8 -488.7 L-312.8 -489.7 L-312.8 -490.7 L-312.8 -491.7 L-312.8 -492.7 L-312.8 -493.7 L-312.8 -494.7 L-312.8 -495.7 L-312.8 -496.7 L-312.8 -497.7 L-312.8 -498.7 L-312.8 -499.7 L-312.8 -500.7 L-312.8 -501.7 L-312.8 -502.6 L-312.8 -503.6 L-312.8 -504.6 L-312.8 -505.6 L-312.8 -506.6 L-312.8 -507.6 L-312.8 -508.6 L-312.8 -509.6 L-312.8 -510.6 L-312.8 -511.6 L-312.8 -512.6 L-311.8 -512.6 L-310.8 -512.6 L-309.8 -512.6 L-308.8 -512.6 L-307.8 -512.6 L-306.8 -512.6 L-305.8 -512.6 L-304.8 -512.6 L-303.8 -512.6 L-302.8 -512.6 L-301.8 -512.6 L-300.8 -512.6 L-299.8 -512.6 L-298.8 -512.5 L-297.8 -512.5 L-296.8 -512.5 L-295.8 -512.5 L-294.9 -512.5 L-293.9 -512.5 L-292.9 -512.5 L-291.9 -512.5 L-290.9 -512.5 L-289.9 -512.5 L-288.9 -512.5 L-287.9 -512.5 Z " />
<path stroke="rgb(0,0,0)" stroke-opacity="1" fill="rgb(255,255,255)" fill-opacity="1" d="M24.9 -299.9 L24.81 -297.9 L24.57 -295.9 L24.17 -294 L23.62 -292.1 L22.92 -290.3 L22.07 -288.5 L21.08 -286.8 L19.96 -285.1 L18.72 -283.6 L17.35 -282.1 L15.88 -280.8 L14.31 -279.6 L12.64 -278.5 L10.9 -277.6 L9.085 -276.8 L7.214 -276.2 L5.298 -275.7 L3.348 -275.3 L1.377 -275.1 L-0.6025 -275.1 L-2.578 -275.2 L-4.538 -275.5 L-6.469 -276 L-8.359 -276.5 L-10.2 -277.3 L-11.97 -278.2 L-13.67 -279.2 L-15.28 -280.3 L-16.79 -281.6 L-18.2 -283 L-19.49 -284.5 L-20.66 -286.1 L-21.7 -287.8 L-22.6 -289.6 L-23.36 -291.4 L-23.97 -293.3 L-24.43 -295.2 L-24.73 -297.1 L-24.88 -299.1 L-24.87 -301.1 L-24.71 -303.1 L-24.39 -305 L-23.91 -306.9 L-23.28 -308.8 L-22.51 -310.6 L-21.59 -312.4 L-20.54 -314.1 L-19.35 -315.7 L-18.05 -317.2 L-16.63 -318.5 L-15.1 -319.8 L-13.48 -320.9 L-11.78 -321.9 L-9.997 -322.8 L-8.153 -323.5 L-6.258 -324.1 L-4.324 -324.5 L-2.362 -324.8 L-0.3851 -324.9 L1.594 -324.9 L3.563 -324.6 L5.51 -324.3 L7.422 -323.8 L9.287 -323.1 L11.09 -322.3 L12.83 -321.3 L14.48 -320.3 L16.05 -319 L17.51 -317.7 L18.86 -316.3 L20.09 -314.7 L21.2 -313.1 L22.17 -311.3 L23 -309.5 L23.69 -307.7 L24.22 -305.8 L24.6 -303.8 L24.83 -301.9 L24.9 -299.9 Z " />
<path stroke="rgb(0,0,0)" stroke-opacity="1" fill="rgb(255,255,255)" fill-opacity="1" d="M-87.89 -512.5 L-87.9 -511.5 L-87.9 -510.5 L-87.9 -509.5 L-87.91 -508.5 L-87.91 -507.5 L-87.91 -506.5 L-87.92 -505.5 L-87.92 -504.6 L-87.92 -503.6 L-87.93 -502.6 L-87.93 -501.6 L-87.93 -500.6 L-87.94 -499.6 L-87.94 -498.6 L-87.94 -497.6 L-87.95 -496.6 L-87.95 -495.6 L-87.95 -494.6 L-87.96 -493.6 L-87.96 -492.6 L-87.96 -491.6 L-87.97 -490.6 L-87.97 -489.6 L-87.97 -488.6 L-87.98 -487.6 L-88.97 -487.6 L-89.97 -487.7 L-90.96 -487.7 L-91.95 -487.7 L-92.95 -487.7 L-93.94 -487.7 L-94.94 -487.7 L-95.93 -487.7 L-96.93 -487.7 L-97.92 -487.7 L-98.92 -487.7 L-99.91 -487.7 L-100.9 -487.7 L-101.9 -487.7 L-102.9 -487.7 L-103.9 -487.7 L-104.9 -487.7 L-105.9 -487.7 L-106.9 -487.7 L-107.9 -487.7 L-108.9 -487.7 L-109.9 -487.7 L-110.9 -487.7 L-111.8 -487.7 L-112.8 -487.7 L-112.8 -488.7 L-112.8 -489.7 L-112.8 -490.7 L-112.8 -491.7 L-112.8 -492.7 L-112.8 -493.7 L-112.8 -494.7 L-112.8 -495.7 L-112.8 -496.7 L-112.8 -497.7 L-112.8 -498.7 L-112.8 -499.7 L-112.8 -500.7 L-112.8 -501.7 L-112.8 -502.6 L-112.8 -503.6 L-112.8 -504.6 L-112.8 -505.6 L-112.8 -506.6 L-112.8 -507.6 L-112.8 -508.6 L-112.8 -509.6 L-112.8 -510.6 L-112.8 -511.6 L-112.8 -512.6 L-111.8 -512.6 L-110.8 -512.6 L-109.8 -512.6 L-108.8 -512.6 L-107.8 -512.6 L-106.8 -512.6 L-105.8 -512.6 L-104.8 -512.6 L-103.8 -512.6 L-102.8 -512.6 L-101.8 -512.6 L-100.8 -512.6 L-99.83 -512.6 L-98.83 -512.5 L-97.84 -512.5 L-96.84 -512.5 L-95.85 -512.5 L-94.85 -512.5 L-93.86 -512.5 L-92.87 -512.5 L-91.87 -512.5 L-90.88 -512.5 L-89.88 -512.5 L-88.89 -512.5 L-87.89 -512.5 Z " />
<path stroke="rgb(0,0,0)" stroke-opacity="1" fill="rgb(255,255,255)" fill-opacity="1" d="M223 -303.5 L223.2 -301.6 L223.3 -299.8 L223.2 -297.9 L223 -296.1 L222.6 -294.3 L222.1 -292.5 L221.4 -290.8 L220.6 -289.1 L219.7 -287.5 L218.6 -286 L217.4 -284.6 L216.2 -283.2 L214.8 -282 L213.3 -280.9 L211.8 -279.9 L210.1 -279 L208.4 -278.3 L206.7 -277.7 L204.9 -277.2 L203.1 -276.9 L201.2 -276.7 L199.4 -276.7 L197.5 -276.8 L195.7 -277.1 L193.9 -277.5 L192.1 -278.1 L190.4 -278.8 L188.8 -279.6 L187.2 -280.6 L185.7 -281.6 L184.3 -282.8 L183 -284.1 L181.8 -285.6 L180.7 -287 L179.7 -288.6 L178.9 -290.3 L178.2 -292 L177.6 -293.7 L177.2 -295.5 L176.9 -297.4 L176.8 -299.2 L176.8 -301.1 L177 -302.9 L177.3 -304.7 L177.7 -306.5 L178.3 -308.3 L179 -310 L179.9 -311.6 L180.9 -313.2 L182 -314.6 L183.2 -316 L184.6 -317.3 L186 -318.5 L187.5 -319.5 L189.1 -320.5 L190.8 -321.3 L192.5 -322 L194.3 -322.5 L196.1 -322.9 L197.9 -323.1 L199.7 -323.2 L201.6 -323.2 L203.4 -323 L205.2 -322.6 L207 -322.1 L208.8 -321.5 L210.5 -320.7 L212.1 -319.8 L213.6 -318.8 L215.1 -317.7 L216.4 -316.4 L217.7 -315.1 L218.8 -313.6 L219.9 -312.1 L220.8 -310.5 L221.5 -308.8 L222.2 -307.1 L222.7 -305.3 L223 -303.5 Z " />
<path stroke="rgb(0,0,0)" stroke-opacity="1" fill="rgb(255,255,255)" fill-opacity="1" d="M112.1 -512.5 L112.1 -511.5 L112.1 -510.5 L112.1 -509.5 L112.1 -508.5 L112.1 -507.5 L112.1 -506.5 L112.1 -505.5 L112.1 -504.6 L112.1 -503.6 L112.1 -502.6 L112.1 -501.6 L112.1 -500.6 L112.1 -499.6 L112.1 -498.6 L112.1 -497.6 L112.1 -496.6 L112.1 -495.6 L112 -494.6 L112 -493.6 L112 -492.6 L112 -491.6 L112 -490.6 L112 -489.6 L112 -488.6 L112 -487.6 L111 -487.6 L110 -487.7 L109 -487.7 L108 -487.7 L107.1 -487.7 L106.1 -487.7 L105.1 -487.7 L104.1 -487.7 L103.1 -487.7 L102.1 -487.7 L101.1 -487.7 L100.1 -487.7 L99.09 -487.7 L98.1 -487.7 L97.1 -487.7 L96.11 -487.7 L95.12 -487.7 L94.12 -487.7 L93.13 -487.7 L92.13 -487.7 L91.14 -487.7 L90.14 -487.7 L89.15 -487.7 L88.15 -487.7 L87.16 -487.7 L87.16 -488.7 L87.17 -489.7 L87.17 -490.7 L87.17 -491.7 L87.18 -492.7 L87.18 -493.7 L87.18 -494.7 L87.19 -495.7 L87.19 -496.7 L87.19 -497.7 L87.2 -498.7 L87.2 -499.7 L87.2 -500.7 L87.21 -501.7 L87.21 -502.6 L87.21 -503.6 L87.22 -504.6 L87.22 -505.6 L87.22 -506.6 L87.23 -507.6 L87.23 -508.6 L87.23 -509.6 L87.24 -510.6 L87.24 -511.6 L87.24 -512.6 L88.24 -512.6 L89.23 -512.6 L90.23 -512.6 L91.22 -512.6 L92.22 -512.6 L93.21 -512.6 L94.2 -512.6 L95.2 -512.6 L96.19 -512.6 L97.19 -512.6 L98.18 -512.6 L99.18 -512.6 L100.2 -512.6 L101.2 -512.5 L102.2 -512.5 L103.2 -512.5 L104.2 -512.5 L105.1 -512.5 L106.1 -512.5 L107.1 -512.5 L108.1 -512.5 L109.1 -512.5 L110.1 -512.5 L111.1 -512.5 L112.1 -512.5 Z " />
<path stroke="rgb(0,0,0)" stroke-opacity="1" fill="rgb(255,255,255)" fill-opacity="1" d="M-275.1 -199.9 L-275.2 -197.9 L-275.4 -195.9 L-275.8 -194 L-276.4 -192.1 L-277.1 -190.3 L-277.9 -188.5 L-278.9 -186.8 L-280 -185.1 L-281.3 -183.6 L-282.6 -182.1 L-284.1 -180.8 L-285.7 -179.6 L-287.4 -178.5 L-289.1 -177.6 L-290.9 -176.8 L-292.8 -176.2 L-294.7 -175.7 L-296.7 -175.3 L-298.6 -175.1 L-300.6 -175.1 L-302.6 -175.2 L-304.5 -175.5 L-306.5 -176 L-308.4 -176.5 L-310.2 -177.3 L-312 -178.2 L-313.7 -179.2 L-315.3 -180.3 L-316.8 -181.6 L-318.2 -183 L-319.5 -184.5 L-320.7 -186.1 L-321.7 -187.8 L-322.6 -189.6 L-323.4 -191.4 L-324 -193.3 L-324.4 -195.2 L-324.7 -197.1 L-324.9 -199.1 L-324.9 -201.1 L-324.7 -203.1 L-324.4 -205 L-323.9 -206.9 L-323.3 -208.8 L-322.5 -210.6 L-321.6 -212.4 L-320.5 -214.1 L-319.4 -215.7 L-318 -217.2 L-316.6 -218.5 L-315.1 -219.8 L-313.5 -220.9 L-311.8 -221.9 L-310 -222.8 L-308.2 -223.5 L-306.3 -224.1 L-304.3 -224.5 L-302.4 -224.8 L-300.4 -224.9 L-298.4 -224.9 L-296.4 -224.6 L-294.5 -224.3 L-292.6 -223.8 L-290.7 -223.1 L-288.9 -222.3 L-287.2 -221.3 L-285.5 -220.3 L-284 -219 L-282.5 -217.7 L-281.1 -216.3 L-279.9 -214.7 L-278.8 -213.1 L-277.8 -211.3 L-277 -209.5 L-276.3 -207.7 L-275.8 -205.8 L-275.4 -203.8 L-275.2 -201.9 L-275.1 -199.9 Z " />
<path stroke="rgb(0,0,0)" stroke-opacity="1" fill="rgb(255,255,255)" fill-opacity="1" d="M-387.9 -412.5 L-387.9 -411.5 L-387.9 -410.5 L-387.9 -409.5 L-387.9 -408.5 L-387.9 -407.5 L-387.9 -406.5 L-387.9 -405.5 L-387.9 -404.6 L-387.9 -403.6 L-387.9 -402.6 L-387.9 -401.6 L-387.9 -400.6 L-387.9 -399.6 L-387.9 -398.6 L-387.9 -397.6 L-387.9 -396.6 L-387.9 -395.6 L-388 -394.6 L-388 -393.6 L-388 -392.6 L-388 -391.6 L-388 -390.6 L-388 -389.6 L-388 -388.6 L-388 -387.6 L-389 -387.6 L-390 -387.7 L-391 -387.7 L-392 -387.7 L-392.9 -387.7 L-393.9 -387.7 L-394.9 -387.7 L-395.9 -387.7 L-396.9 -387.7 L-397.9 -387.7 L-398.9 -387.7 L-399.9 -387.7 L-400.9 -387.7 L-401.9 -387.7 L-402.9 -387.7 L-403.9 -387.7 L-404.9 -387.7 L-405.9 -387.7 L-406.9 -387.7 L-407.9 -387.7 L-408.9 -387.7 L-409.9 -387.7 L-410.9 -387.7 L-411.8 -387.7 L-412.8 -387.7 L-412.8 -388.7 L-412.8 -389.7 L-412.8 -390.7 L-412.8 -391.7 L-412.8 -392.7 L-412.8 -393.7 L-412.8 -394.7 L-412.8 -395.7 L-412.8 -396.7 L-412.8 -397.7 L-412.8 -398.7 L-412.8 -399.7 L-412.8 -400.7 L-412.8 -401.7 L-412.8 -402.6 L-412.8 -403.6 L-412.8 -404.6 L-412.8 -405.6 L-412.8 -406.6 L-412.8 -407.6 L-412.8 -408.6 L-412.8 -409.6 L-412.8 -410.6 L-412.8 -411.6 L-412.8 -412.6 L-411.8 -412.6 L-410.8 -412.6 L-409.8 -412.6 L-408.8 -412.6 L-407.8 -412.6 L-406.8 -412.6 L-405.8 -412.6 L-404.8 -412.6 L-403.8 -412.6 L-402.8 -412.6 L-401.8 -412.6 L-400.8 -412.6 L-399.8 -412.6 L-398.8 -412.5 L-397.8 -412.5 L-396.8 -412.5 L-395.8 -412.5 L-394.9 -412.5 L-393.9 -412.5 L-392.9 -412.5 L-391.9 -412.5 L-390.9 -412.5 L-389.9 -412.5 L-388.9 -412.5 L-387.9 -412.5 Z " />
<path stroke="rgb(0,0,0)" stroke-opacity="1" fill="rgb(255,255,255)" fill-opacity="1" d="M-75.1 -199.9 L-75.19 -197.9 L-75.43 -195.9 L-75.83 -194 L-76.38 -192.1 L-77.08 -190.3 L-77.93 -188.5 L-78.92 -186.8 L-80.04 -185.1 L-81.28 -183.6 L-82.65 -182.1 L-84.12 -180.8 L-85.69 -179.6 L-87.36 -178.5 L-89.1 -177.6 L-90.92 -176.8 L-92.79 -176.2 L-94.7 -175.7 L-96.65 -175.3 L-98.62 -175.1 L-100.6 -175.1 L-102.6 -175.2 L-104.5 -175.5 L-106.5 -176 L-108.4 -176.5 L-110.2 -177.3 L-112 -178.2 L-113.7 -179.2 L-115.3 -180.3 L-116.8 -181.6 L-118.2 -183 L-119.5 -184.5 L-120.7 -186.1 L-121.7 -187.8 L-122.6 -189.6 L-123.4 -191.4 L-124 -193.3 L-124.4 -195.2 L-124.7 -197.1 L-124.9 -199.1 L-124.9 -201.1 L-124.7 -203.1 L-124.4 -205 L-123.9 -206.9 L-123.3 -208.8 L-122.5 -210.6 L-121.6 -212.4 L-120.5 -214.1 L-119.4 -215.7 L-118 -217.2 L-116.6 -218.5 L-115.1 -219.8 L-113.5 -220.9 L-111.8 -221.9 L-110 -222.8 L-108.2 -223.5 L-106.3 -224.1 L-104.3 -224.5 L-102.4 -224.8 L-100.4 -224.9 L-98.41 -224.9 L-96.44 -224.6 L-94.49 -224.3 L-92.58 -223.8 L-90.71 -223.1 L-88.91 -222.3 L-87.17 -221.3 L-85.52 -220.3 L-83.95 -219 L-82.49 -217.7 L-81.14 -216.3 L-79.91 -214.7 L-78.8 -213.1 L-77.83 -211.3 L-77 -209.5 L-76.31 -207.7 L-75.78 -205.8 L-75.4 -203.8 L-75.17 -201.9 L-75.1 -199.9 Z " />
<path stroke="rgb(0,0,0)" stroke-opacity="1" fill="rgb(255,255,255)" fill-opacity="1" d="M-187.9 -412.5 L-187.9 -411.5 L-187.9 -410.5 L-187.9 -409.5 L-187.9 -408.5 L-187.9 -407.5 L-187.9 -406.5 L-187.9 -405.5 L-187.9 -404.6 L-187.9 -403.6 L-187.9 -402.6 L-187.9 -401.6 L-187.9 -400.6 L-187.9 -399.6 L-187.9 -398.6 L-187.9 -397.6 L-187.9 -396.6 L-187.9 -395.6 L-188 -394.6 L-188 -393.6 L-188 -392.6 L-188 -391.6 L-188 -390.6 L-188 -389.6 L-188 -388.6 L-188 -387.6 L-189 -387.6 L-190 -387.7 L-191 -387.7 L-192 -387.7 L-192.9 -387.7 L-193.9 -387.7 L-194.9 -387.7 L-195.9 -387.7 L-196.9 -387.7 L-197.9 -387.7 L-198.9 -387.7 L-199.9 -387.7 L-200.9 -387.7 L-201.9 -387.7 L-202.9 -387.7 L-203.9 -387.7 L-204.9 -387.7 L-205.9 -387.7 L-206.9 -387.7 L-207.9 -387.7 L-208.9 -387.7 L-209.9 -387.7 L-210.9 -387.7 L-211.8 -387.7 L-212.8 -387.7 L-212.8 -388.7 L-212.8 -389.7 L-212.8 -390.7 L-212.8 -391.7 L-212.8 -392.7 L-212.8 -393.7 L-212.8 -394.7 L-212.8 -395.7 L-212.8 -396.7 L-212.8 -397.7 L-212.8 -398.7 L-212.8 -399.7 L-212.8 -400.7 L-212.8 -401.7 L-212.8 -402.6 L-212.8 -403.6 L-212.8 -404.6 L-212.8 -405.6 L-212.8 -406.6 L-212.8 -407.6 L-212.8 -408.6 L-212.8 -409.6 L-212.8 -410.6 L-212.8 -411.6 L-212.8 -412.6 L-211.8 -412.6 L-210.8 -412.6 L-209.8 -412.6 L-208.8 -412.6 L-207.8 -412.6 L-206.8 -412.6 L-205.8 -412.6 L-204.8 -412.6 L-203.8 -412.6 L-202.8 -412.6 L-201.8 -412.6 L-200.8 -412.6 L-199.8 -412.6 L-198.8 -412.5 L-197.8 -412.5 L-196.8 -412.5 L-195.8 -412.5 L-194.9 -412.5 L-193.9 -412.5 L-192.9 -412.5 L-191.9 -412.5 L-190.9 -412.5 L-189.9 -412.5 L-188.9 -412.5 L-187.9 -412.5 Z " />
<path stroke="rgb(0,0,0)" stroke-opacity="1" fill="rgb(255,255,255)" fill-opacity="1" d="M123 -203.5 L123.2 -201.6 L123.3 -199.8 L123.2 -197.9 L123 -196.1 L122.6 -194.3 L122.1 -192.5 L121.4 -190.8 L120.6 -189.1 L119.7 -187.5 L118.6 -186 L117.4 -184.6 L116.2 -183.2 L114.8 -182 L113.3 -180.9 L111.8 -179.9 L110.1 -179 L108.4 -178.3 L106.7 -177.7 L104.9 -177.2 L103.1 -176.9 L101.2 -176.7 L99.38 -176.7 L97.54 -176.8 L95.71 -177.1 L93.9 -177.5 L92.14 -178.1 L90.43 -178.8 L88.78 -179.6 L87.2 -180.6 L85.7 -181.6 L84.29 -182.8 L82.98 -184.1 L81.77 -185.6 L80.69 -187 L79.72 -188.6 L78.89 -190.3 L78.18 -192 L77.62 -193.7 L77.2 -195.5 L76.92 -197.4 L76.79 -199.2 L76.8 -201.1 L76.96 -202.9 L77.27 -204.7 L77.72 -206.5 L78.31 -208.3 L79.04 -210 L79.9 -211.6 L80.89 -213.2 L82 -214.6 L83.23 -216 L84.56 -217.3 L85.99 -218.5 L87.5 -219.5 L89.1 -220.5 L90.76 -221.3 L92.49 -222 L94.26 -222.5 L96.07 -222.9 L97.9 -223.1 L99.75 -223.2 L101.6 -223.2 L103.4 -223 L105.2 -222.6 L107 -222.1 L108.8 -221.5 L110.5 -220.7 L112.1 -219.8 L113.6 -218.8 L115.1 -217.7 L116.4 -216.4 L117.7 -215.1 L118.8 -213.6 L119.9 -212.1 L120.8 -210.5 L121.5 -208.8 L122.2 -207.1 L122.7 -205.3 L123 -203.5 Z " />
<path stroke="rgb(0,0,0)" stroke-opacity="1" fill="rgb(255,255,255)" fill-opacity="1" d="M12.11 -412.5 L12.1 -411.5 L12.1 -410.5 L12.1 -409.5 L12.09 -408.5 L12.09 -407.5 L12.09 -406.5 L12.08 -405.5 L12.08 -404.6 L12.08 -403.6 L12.07 -402.6 L12.07 -401.6 L12.07 -400.6 L12.06 -399.6 L12.06 -398.6 L12.06 -397.6 L12.05 -396.6 L12.05 -395.6 L12.05 -394.6 L12.04 -393.6 L12.04 -392.6 L12.04 -391.6 L12.03 -390.6 L12.03 -389.6 L12.03 -388.6 L12.02 -387.6 L11.03 -387.6 L10.03 -387.7 L9.04 -387.7 L8.045 -387.7 L7.051 -387.7 L6.056 -387.7 L5.062 -387.7 L4.067 -387.7 L3.072 -387.7 L2.078 -387.7 L1.083 -387.7 L0.08855 -387.7 L-0.9061 -387.7 L-1.901 -387.7 L-2.895 -387.7 L-3.89 -387.7 L-4.884 -387.7 L-5.879 -387.7 L-6.874 -387.7 L-7.868 -387.7 L-8.863 -387.7 L-9.858 -387.7 L-10.85 -387.7 L-11.85 -387.7 L-12.84 -387.7 L-12.84 -388.7 L-12.83 -389.7 L-12.83 -390.7 L-12.83 -391.7 L-12.82 -392.7 L-12.82 -393.7 L-12.82 -394.7 L-12.81 -395.7 L-12.81 -396.7 L-12.81 -397.7 L-12.8 -398.7 L-12.8 -399.7 L-12.8 -400.7 L-12.79 -401.7 L-12.79 -402.6 L-12.79 -403.6 L-12.78 -404.6 L-12.78 -405.6 L-12.78 -406.6 L-12.77 -407.6 L-12.77 -408.6 L-12.77 -409.6 L-12.76 -410.6 L-12.76 -411.6 L-12.76 -412.6 L-11.76 -412.6 L-10.77 -412.6 L-9.773 -412.6 L-8.779 -412.6 L-7.784 -412.6 L-6.79 -412.6 L-5.795 -412.6 L-4.8 -412.6 L-3.806 -412.6 L-2.811 -412.6 L-1.817 -412.6 L-0.822 -412.6 L0.1726 -412.6 L1.167 -412.5 L2.162 -412.5 L3.156 -412.5 L4.151 -412.5 L5.146 -412.5 L6.14 -412.5 L7.135 -412.5 L8.129 -412.5 L9.124 -412.5 L10.12 -412.5 L11.11 -412.5 L12.11 -412.5 Z " />
<path stroke="rgb(0,0,0)" stroke-opacity="1" fill="rgb(255,255,255)" fill-opacity="1" d="M309.5 -213.2 L310.5 -212.4 L311.5 -211.5 L312.4 -210.6 L313.2 -209.6 L313.9 -208.5 L314.6 -207.4 L315.2 -206.2 L315.6 -205 L316 -203.8 L316.2 -202.5 L316.4 -201.2 L316.5 -200 L316.4 -198.7 L316.3 -197.4 L316 -196.1 L315.7 -194.9 L315.2 -193.6 L314.7 -192.5 L314.1 -191.3 L313.4 -190.3 L312.6 -189.2 L311.7 -188.3 L310.7 -187.4 L309.7 -186.6 L308.6 -185.9 L307.5 -185.3 L306.3 -184.8 L305.1 -184.3 L303.8 -184 L302.6 -183.7 L301.3 -183.6 L300 -183.6 L298.7 -183.6 L297.4 -183.8 L296.2 -184.1 L294.9 -184.4 L293.7 -184.9 L292.5 -185.5 L291.4 -186.1 L290.4 -186.9 L289.4 -187.7 L288.4 -188.6 L287.6 -189.6 L286.8 -190.6 L286.1 -191.7 L285.5 -192.8 L285 -194 L284.6 -195.2 L284.3 -196.5 L284.1 -197.8 L283.9 -199.1 L283.9 -200.4 L284 -201.7 L284.2 -202.9 L284.5 -204.2 L284.9 -205.4 L285.4 -206.6 L286 -207.8 L286.7 -208.9 L287.4 -209.9 L288.3 -210.9 L289.2 -211.8 L290.2 -212.7 L291.2 -213.4 L292.3 -214.1 L293.5 -214.7 L294.7 -215.1 L295.9 -215.5 L297.2 -215.8 L298.5 -216 L299.8 -216.1 L301 -216.1 L302.3 -216 L303.6 -215.7 L304.9 -215.4 L306.1 -215 L307.3 -214.5 L308.4 -213.9 L309.5 -213.2 Z " />
<path stroke="rgb(0,0,0)" stroke-opacity="1" fill="rgb(255,255,255)" fill-opacity="1" d="M-487.9 -312.5 L-487.9 -311.5 L-487.9 -310.5 L-487.9 -309.5 L-487.9 -308.5 L-487.9 -307.5 L-487.9 -306.5 L-487.9 -305.5 L-487.9 -304.6 L-487.9 -303.6 L-487.9 -302.6 L-487.9 -301.6 L-487.9 -300.6 L-487.9 -299.6 L-487.9 -298.6 L-487.9 -297.6 L-487.9 -296.6 L-487.9 -295.6 L-488 -294.6 L-488 -293.6 L-488 -292.6 L-488 -291.6 L-488 -290.6 L-488 -289.6 L-488 -288.6 L-488 -287.6 L-489 -287.6 L-490 -287.7 L-491 -287.7 L-492 -287.7 L-492.9 -287.7 L-493.9 -287.7 L-494.9 -287.7 L-495.9 -287.7 L-496.9 -287.7 L-497.9 -287.7 L-498.9 -287.7 L-499.9 -287.7 L-500.9 -287.7 L-501.9 -287.7 L-502.9 -287.7 L-503.9 -287.7 L-504.9 -287.7 L-505.9 -287.7 L-506.9 -287.7 L-507.9 -287.7 L-508.9 -287.7 L-509.9 -287.7 L-510.9 -287.7 L-511.8 -287.7 L-512.8 -287.7 L-512.8 -288.7 L-512.8 -289.7 L-512.8 -290.7 L-512.8 -291.7 L-512.8 -292.7 L-512.8 -293.7 L-512.8 -294.7 L-512.8 -295.7 L-512.8 -296.7 L-512.8 -297.7 L-512.8 -298.7 L-512.8 -299.7 L-512.8 -300.7 L-512.8 -301.7 L-512.8 -302.6 L-512.8 -303.6 L-512.8 -304.6 L-512.8 -305.6 L-512.8 -306.6 L-512.8 -307.6 L-512.8 -308.6 L-512.8 -309.6 L-512.8 -310.6 L-512.8 -311.6 L-512.8 -312.6 L-511.8 -312.6 L-510.8 -312.6 L-509.8 -312.6 L-508.8 -312.6 L-507.8 -312.6 L-506.8 -312.6 L-505.8 -312.6 L-504.8 -312.6 L-503.8 -312.6 L-502.8 -312.6 L-501.8 -312.6 L-500.8 -312.6 L-499.8 -312.6 L-498.8 -312.5 L-497.8 -312.5 L-496.8 -312.5 L-495.8 -312.5 L-494.9 -312.5 L-493.9 -312.5 L-492.9 -312.5 L-491.9 -312.5 L-490.9 -312.5 L-489.9 -312.5 L-488.9 -312.5 L-487.9 -312.5 Z " />
<path stroke="rgb(0,0,0)" stroke-opacity="1" fill="rgb(255,255,255)" fill-opacity="1" d="M-175.1 -99.89 L-175.2 -97.91 L-175.4 -95.95 L-175.8 -94.01 L-176.4 -92.11 L-177.1 -90.26 L-177.9 -88.47 L-178.9 -86.75 L-180 -85.12 L-181.3 -83.58 L-182.6 -82.14 L-184.1 -80.82 L-185.7 -79.62 L-187.4 -78.55 L-189.1 -77.61 L-190.9 -76.82 L-192.8 -76.17 L-194.7 -75.67 L-196.7 -75.33 L-198.6 -75.14 L-200.6 -75.11 L-202.6 -75.24 L-204.5 -75.52 L-206.5 -75.96 L-208.4 -76.55 L-210.2 -77.28 L-212 -78.17 L-213.7 -79.19 L-215.3 -80.34 L-216.8 -81.61 L-218.2 -83.01 L-219.5 -84.51 L-220.7 -86.1 L-221.7 -87.79 L-222.6 -89.55 L-223.4 -91.38 L-224 -93.26 L-224.4 -95.19 L-224.7 -97.15 L-224.9 -99.12 L-224.9 -101.1 L-224.7 -103.1 L-224.4 -105 L-223.9 -106.9 L-223.3 -108.8 L-222.5 -110.6 L-221.6 -112.4 L-220.5 -114.1 L-219.4 -115.7 L-218 -117.2 L-216.6 -118.5 L-215.1 -119.8 L-213.5 -120.9 L-211.8 -121.9 L-210 -122.8 L-208.2 -123.5 L-206.3 -124.1 L-204.3 -124.5 L-202.4 -124.8 L-200.4 -124.9 L-198.4 -124.9 L-196.4 -124.6 L-194.5 -124.3 L-192.6 -123.8 L-190.7 -123.1 L-188.9 -122.3 L-187.2 -121.3 L-185.5 -120.3 L-184 -119 L-182.5 -117.7 L-181.1 -116.3 L-179.9 -114.7 L-178.8 -113.1 L-177.8 -111.3 L-177 -109.5 L-176.3 -107.7 L-175.8 -105.8 L-175.4 -103.8 L-175.2 -101.9 L-175.1 -99.89 Z " />
<path stroke="rgb(0,0,0)" stroke-opacity="1" fill="rgb(255,255,255)" fill-opacity="1" d="M-287.9 -312.5 L-287.9 -311.5 L-287.9 -310.5 L-287.9 -309.5 L-287.9 -308.5 L-287.9 -307.5 L-287.9 -306.5 L-287.9 -305.5 L-287.9 -304.6 L-287.9 -303.6 L-287.9 -302.6 L-287.9 -301.6 L-287.9 -300.6 L-287.9 -299.6 L-287.9 -298.6 L-287.9 -297.6 L-287.9 -296.6 L-287.9 -295.6 L-288 -294.6 L-288 -293.6 L-288 -292.6 L-288 -291.6 L-288 -290.6 L-288 -289.6 L-288 -288.6 L-288 -287.6 L-289 -287.6 L-290 -287.7 L-291 -287.7 L-292 -287.7 L-292.9 -287.7 L-293.9 -287.7 L-294.9 -287.7 L-295.9 -287.7 L-296.9 -287.7 L-297.9 -287.7 L-298.9 -287.7 L-299.9 -287.7 L-300.9 -287.7 L-301.9 -287.7 L-302.9 -287.7 L-303.9 -287.7 L-304.9 -287.7 L-305.9 -287.7 L-306.9 -287.7 L-307.9 -287.7 L-308.9 -287.7 L-309.9 -287.7 L-310.9 -287.7 L-311.8 -287.7 L-312.8 -287.7 L-312.8 -288.7 L-312.8 -289.7 L-312.8 -290.7 L-312.8 -291.7 L-312.8 -292.7 L-312.8 -293.7 L-312.8 -294.7 L-312.8 -295.7 L-312.8 -296.7 L-312.8 -297.7 L-312.8 -298.7 L-312.8 -299.7 L-312.8 -300.7 L-312.8 -301.7 L-312.8 -302.6 L-312.8 -303.6 L-312.8 -304.6 L-312.8 -305.6 L-312.8 -306.6 L-312.8 -307.6 L-312.8 -308.6 L-312.8 -309.6 L-312.8 -310.6 L-312.8 -311.6 L-312.8 -312.6 L-311.8 -312.6 L-310.8 -312.6 L-309.8 -312.6 L-308.8 -312.6 L-307.8 -312.6 L-306.8 -312.6 L-305.8 -312.6 L-304.8 -312.6 L-303.8 -312.6 L-302.8 -312.6 L-301.8 -312.6 L-300.8 -312.6 L-299.8 -312.6 L-298.8 -312.5 L-297.8 -312.5 L-296.8 -312.5 L-295.8 -312.5 L-294.9 -312.5 L-293.9 -312.5 L-292.9 -312.5 L-291.9 -312.5 L-290.9 -312.5 L-289.9 -312.5 L-288.9 -312.5 L-287.9 -312.5 Z " />
<path stroke="rgb(0,0,0)" stroke-opacity="1" fill="rgb(255,255,255)" fill-opacity="1" d="M23.01 -103.5 L23.22 -101.6 L23.28 -99.77 L23.19 -97.93 L22.95 -96.09 L22.57 -94.28 L22.05 -92.51 L21.39 -90.78 L20.59 -89.11 L19.67 -87.51 L18.62 -85.99 L17.45 -84.56 L16.17 -83.22 L14.79 -81.99 L13.32 -80.88 L11.76 -79.88 L10.13 -79.01 L8.431 -78.28 L6.682 -77.68 L4.891 -77.22 L3.069 -76.9 L1.228 -76.74 L-0.6204 -76.71 L-2.465 -76.84 L-4.294 -77.11 L-6.095 -77.52 L-7.858 -78.08 L-9.571 -78.78 L-11.22 -79.61 L-12.8 -80.56 L-14.3 -81.65 L-15.71 -82.84 L-17.02 -84.15 L-18.23 -85.55 L-19.31 -87.05 L-20.28 -88.62 L-21.11 -90.27 L-21.82 -91.98 L-22.38 -93.74 L-22.8 -95.54 L-23.08 -97.37 L-23.21 -99.21 L-23.2 -101.1 L-23.04 -102.9 L-22.73 -104.7 L-22.28 -106.5 L-21.69 -108.3 L-20.96 -110 L-20.1 -111.6 L-19.11 -113.2 L-18 -114.6 L-16.77 -116 L-15.44 -117.3 L-14.01 -118.5 L-12.5 -119.5 L-10.9 -120.5 L-9.236 -121.3 L-7.512 -122 L-5.741 -122.5 L-3.933 -122.9 L-2.1 -123.1 L-0.2539 -123.2 L1.594 -123.2 L3.432 -123 L5.249 -122.6 L7.033 -122.1 L8.772 -121.5 L10.46 -120.7 L12.07 -119.8 L13.62 -118.8 L15.07 -117.7 L16.43 -116.4 L17.69 -115.1 L18.84 -113.6 L19.86 -112.1 L20.76 -110.5 L21.53 -108.8 L22.17 -107.1 L22.66 -105.3 L23.01 -103.5 Z " />
<path stroke="rgb(0,0,0)" stroke-opacity="1" fill="rgb(255,255,255)" fill-opacity="1" d="M-87.89 -312.5 L-87.9 -311.5 L-87.9 -310.5 L-87.9 -309.5 L-87.91 -308.5 L-87.91 -307.5 L-87.91 -306.5 L-87.92 -305.5 L-87.92 -304.6 L-87.92 -303.6 L-87.93 -302.6 L-87.93 -301.6 L-87.93 -300.6 L-87.94 -299.6 L-87.94 -298.6 L-87.94 -297.6 L-87.95 -296.6 L-87.95 -295.6 L-87.95 -294.6 L-87.96 -293.6 L-87.96 -292.6 L-87.96 -291.6 L-87.97 -290.6 L-87.97 -289.6 L-87.97 -288.6 L-87.98 -287.6 L-88.97 -287.6 L-89.97 -287.7 L-90.96 -287.7 L-91.95 -287.7 L-92.95 -287.7 L-93.94 -287.7 L-94.94 -287.7 L-95.93 -287.7 L-96.93 -287.7 L-97.92 -287.7 L-98.92 -287.7 L-99.91 -287.7 L-100.9 -287.7 L-101.9 -287.7 L-102.9 -287.7 L-103.9 -287.7 L-104.9 -287.7 L-105.9 -287.7 L-106.9 -287.7 L-107.9 -287.7 L-108.9 -287.7 L-109.9 -287.7 L-110.9 -287.7 L-111.8 -287.7 L-112.8 -287.7 L-112.8 -288.7 L-112.8 -289.7 L-112.8 -290.7 L-112.8 -291.7 L-112.8 -292.7 L-112.8 -293.7 L-112.8 -294.7 L-112.8 -295.7 L-112.8 -296.7 L-112.8 -297.7 L-112.8 -298.7 L-112.8 -299.7 L-112.8 -300.7 L-112.8 -301.7 L-112.8 -302.6 L-112.8 -303.6 L-112.8 -304.6 L-112.8 -305.6 L-112.8 -306.6 L-112.8 -307.6 L-112.8 -308.6 L-112.8 -309.6 L-112.8 -310.6 L-112.8 -311.6 L-112.8 -312.6 L-111.8 -312.6 L-110.8 -312.6 L-109.8 -312.6 L-108.8 -312.6 L-107.8 -312.6 L-106.8 -312.6 L-105.8 -312.6 L-104.8 -312.6 L-103.8 -312.6 L-102.8 -312.6 L-101.8 -312.6 L-100.8 -312.6 L-99.83 -312.6 L-98.83 -312.5 L-97.84 -312.5 L-96.84 -312.5 L-95.85 -312.5 L-94.85 -312.5 L-93.86 -312.5 L-92.87 -312.5 L-91.87 -312.5 L-90.88 -312.5 L-89.88 -312.5 L-88.89 -312.5 L-87.89 -312.5 Z " />
<path stroke="rgb(0,0,0)" stroke-opacity="1" fill="rgb(255,255,255)" fill-opacity="1" d="M209.5 -113.2 L210.5 -112.4 L211.5 -111.5 L212.4 -110.6 L213.2 -109.6 L213.9 -108.5 L214.6 -107.4 L215.2 -106.2 L215.6 -105 L216 -103.8 L216.2 -102.5 L216.4 -101.2 L216.5 -99.95 L216.4 -98.66 L216.3 -97.37 L216 -96.1 L215.7 -94.86 L215.2 -93.64 L214.7 -92.46 L214.1 -91.34 L213.4 -90.26 L212.6 -89.24 L211.7 -88.3 L210.7 -87.42 L209.7 -86.62 L208.6 -85.91 L207.5 -85.29 L206.3 -84.75 L205.1 -84.31 L203.8 -83.97 L202.6 -83.73 L201.3 -83.6 L200 -83.56 L198.7 -83.63 L197.4 -83.8 L196.2 -84.07 L194.9 -84.44 L193.7 -84.91 L192.5 -85.47 L191.4 -86.13 L190.4 -86.87 L189.4 -87.69 L188.4 -88.59 L187.6 -89.56 L186.8 -90.59 L186.1 -91.69 L185.5 -92.83 L185 -94.02 L184.6 -95.25 L184.3 -96.5 L184.1 -97.78 L183.9 -99.07 L183.9 -100.4 L184 -101.7 L184.2 -102.9 L184.5 -104.2 L184.9 -105.4 L185.4 -106.6 L186 -107.8 L186.7 -108.9 L187.4 -109.9 L188.3 -110.9 L189.2 -111.8 L190.2 -112.7 L191.2 -113.4 L192.3 -114.1 L193.5 -114.7 L194.7 -115.1 L195.9 -115.5 L197.2 -115.8 L198.5 -116 L199.8 -116.1 L201 -116.1 L202.3 -116 L203.6 -115.7 L204.9 -115.4 L206.1 -115 L207.3 -114.5 L208.4 -113.9 L209.5 -113.2 Z " />
<path stroke="rgb(0,0,0)" stroke-opacity="1" fill="rgb(255,255,255)" fill-opacity="1" d="M112.1 -312.5 L112.1 -311.5 L112.1 -310.5 L112.1 -309.5 L112.1 -308.5 L112.1 -307.5 L112.1 -306.5 L112.1 -305.5 L112.1 -304.6 L112.1 -303.6 L112.1 -302.6 L112.1 -301.6 L112.1 -300.6 L112.1 -299.6 L112.1 -298.6 L112.1 -297.6 L112.1 -296.6 L112.1 -295.6 L112 -294.6 L112 -293.6 L112 -292.6 L112 -291.6 L112 -290.6 L112 -289.6 L112 -288.6 L112 -287.6 L111 -287.6 L110 -287.7 L109 -287.7 L108 -287.7 L107.1 -287.7 L106.1 -287.7 L105.1 -287.7 L104.1 -287.7 L103.1 -287.7 L102.1 -287.7 L101.1 -287.7 L100.1 -287.7 L99.09 -287.7 L98.1 -287.7 L97.1 -287.7 L96.11 -287.7 L95.12 -287.7 L94.12 -287.7 L93.13 -287.7 L92.13 -287.7 L91.14 -287.7 L90.14 -287.7 L89.15 -287.7 L88.15 -287.7 L87.16 -287.7 L87.16 -288.7 L87.17 -289.7 L87.17 -290.7 L87.17 -291.7 L87.18 -292.7 L87.18 -293.7 L87.18 -294.7 L87.19 -295.7 L87.19 -296.7 L87.19 -297.7 L87.2 -298.7 L87.2 -299.7 L87.2 -300.7 L87.21 -301.7 L87.21 -302.6 L87.21 -303.6 L87.22 -304.6 L87.22 -305.6 L87.22 -306.6 L87.23 -307.6 L87.23 -308.6 L87.23 -309.6 L87.24 -310.6 L87.24 -311.6 L87.24 -312.6 L88.24 -312.6 L89.23 -312.6 L90.23 -312.6 L91.22 -312.6 L92.22 -312.6 L93.21 -312.6 L94.2 -312.6 L95.2 -312.6 L96.19 -312.6 L97.19 -312.6 L98.18 -312.6 L99.18 -312.6 L100.2 -312.6 L101.2 -312.5 L102.2 -312.5 L103.2 -312.5 L104.2 -312.5 L105.1 -312.5 L106.1 -312.5 L107.1 -312.5 L108.1 -312.5 L109.1 -312.5 L110.1 -312.5 L111.1 -312.5 L112.1 -312.5 Z " />
<path stroke="rgb(0,0,0)" stroke-opacity="1" fill="rgb(255,255,255)" fill-opacity="1" d="M-275.1 0.1074 L-275.2 2.085 L-275.4 4.05 L-275.8 5.989 L-276.4 7.89 L-277.1 9.742 L-277.9 11.53 L-278.9 13.25 L-280 14.88 L-281.3 16.42 L-282.6 17.86 L-284.1 19.18 L-285.7 20.38 L-287.4 21.45 L-289.1 22.39 L-290.9 23.18 L-292.8 23.83 L-294.7 24.33 L-296.7 24.67 L-298.6 24.86 L-300.6 24.89 L-302.6 24.76 L-304.5 24.48 L-306.5 24.04 L-308.4 23.45 L-310.2 22.72 L-312 21.83 L-313.7 20.81 L-315.3 19.66 L-316.8 18.39 L-318.2 16.99 L-319.5 15.49 L-320.7 13.9 L-321.7 12.21 L-322.6 10.45 L-323.4 8.62 L-324 6.736 L-324.4 4.81 L-324.7 2.854 L-324.9 0.8799 L-324.9 -1.1 L-324.7 -3.073 L-324.4 -5.026 L-323.9 -6.948 L-323.3 -8.826 L-322.5 -10.65 L-321.6 -12.4 L-320.5 -14.08 L-319.4 -15.67 L-318 -17.15 L-316.6 -18.53 L-315.1 -19.8 L-313.5 -20.93 L-311.8 -21.94 L-310 -22.81 L-308.2 -23.53 L-306.3 -24.1 L-304.3 -24.52 L-302.4 -24.79 L-300.4 -24.9 L-298.4 -24.85 L-296.4 -24.65 L-294.5 -24.28 L-292.6 -23.77 L-290.7 -23.11 L-288.9 -22.29 L-287.2 -21.34 L-285.5 -20.26 L-284 -19.04 L-282.5 -17.71 L-281.1 -16.26 L-279.9 -14.71 L-278.8 -13.07 L-277.8 -11.34 L-277 -9.544 L-276.3 -7.687 L-275.8 -5.781 L-275.4 -3.838 L-275.2 -1.871 L-275.1 0.1074 Z " />
<path stroke="rgb(0,0,0)" stroke-opacity="1" fill="rgb(255,255,255)" fill-opacity="1" d="M-387.9 -212.5 L-387.9 -211.5 L-387.9 -210.5 L-387.9 -209.5 L-387.9 -208.5 L-387.9 -207.5 L-387.9 -206.5 L-387.9 -205.5 L-387.9 -204.6 L-387.9 -203.6 L-387.9 -202.6 L-387.9 -201.6 L-387.9 -200.6 L-387.9 -199.6 L-387.9 -198.6 L-387.9 -197.6 L-387.9 -196.6 L-387.9 -195.6 L-388 -194.6 L-388 -193.6 L-388 -192.6 L-388 -191.6 L-388 -190.6 L-388 -189.6 L-388 -188.6 L-388 -187.6 L-389 -187.6 L-390 -187.7 L-391 -187.7 L-392 -187.7 L-392.9 -187.7 L-393.9 -187.7 L-394.9 -187.7 L-395.9 -187.7 L-396.9 -187.7 L-397.9 -187.7 L-398.9 -187.7 L-399.9 -187.7 L-400.9 -187.7 L-401.9 -187.7 L-402.9 -187.7 L-403.9 -187.7 L-404.9 -187.7 L-405.9 -187.7 L-406.9 -187.7 L-407.9 -187.7 L-408.9 -187.7 L-409.9 -187.7 L-410.9 -187.7 L-411.8 -187.7 L-412.8 -187.7 L-412.8 -188.7 L-412.8 -189.7 L-412.8 -190.7 L-412.8 -191.7 L-412.8 -192.7 L-412.8 -193.7 L-412.8 -194.7 L-412.8 -195.7 L-412.8 -196.7 L-412.8 -197.7 L-412.8 -198.7 L-412.8 -199.7 L-412.8 -200.7 L-412.8 -201.7 L-412.8 -202.6 L-412.8 -203.6 L-412.8 -204.6 L-412.8 -205.6 L-412.8 -206.6 L-412.8 -207.6 L-412.8 -208.6 L-412.8 -209.6 L-412.8 -210.6 L-412.8 -211.6 L-412.8 -212.6 L-411.8 -212.6 L-410.8 -212.6 L-409.8 -212.6 L-408.8 -212.6 L-407.8 -212.6 L-406.8 -212.6 L-405.8 -212.6 L-404.8 -212.6 L-403.8 -212.6 L-402.8 -212.6 L-401.8 -212.6 L-400.8 -212.6 L-399.8 -212.6 L-398.8 -212.5 L-397.8 -212.5 L-396.8 -212.5 L-395.8 -212.5 L-394.9 -212.5 L-393.9 -212.5 L-392.9 -212.5 L-391.9 -212.5 L-390.9 -212.5 L-389.9 -212.5 L-388.9 -212.5 L-387.9 -212.5 Z " />
<path stroke="rgb(0,0,0)" stroke-opacity="1" fill="rgb(255,255,255)" fill-opacity="1" d="M-76.99 -3.458 L-76.78 -1.621 L-76.72 0.2271 L-76.81 2.074 L-77.05 3.908 L-77.43 5.717 L-77.95 7.491 L-78.61 9.217 L-79.41 10.89 L-80.33 12.49 L-81.38 14.01 L-82.55 15.44 L-83.83 16.78 L-85.21 18.01 L-86.68 19.12 L-88.24 20.12 L-89.87 20.99 L-91.57 21.72 L-93.32 22.32 L-95.11 22.78 L-96.93 23.1 L-98.77 23.26 L-100.6 23.29 L-102.5 23.16 L-104.3 22.89 L-106.1 22.48 L-107.9 21.92 L-109.6 21.22 L-111.2 20.39 L-112.8 19.44 L-114.3 18.35 L-115.7 17.16 L-117 15.85 L-118.2 14.45 L-119.3 12.95 L-120.3 11.38 L-121.1 9.727 L-121.8 8.017 L-122.4 6.257 L-122.8 4.457 L-123.1 2.629 L-123.2 0.785 L-123.2 -1.064 L-123 -2.905 L-122.7 -4.729 L-122.3 -6.522 L-121.7 -8.273 L-121 -9.972 L-120.1 -11.61 L-119.1 -13.17 L-118 -14.65 L-116.8 -16.03 L-115.4 -17.32 L-114 -18.49 L-112.5 -19.55 L-110.9 -20.48 L-109.2 -21.28 L-107.5 -21.95 L-105.7 -22.48 L-103.9 -22.87 L-102.1 -23.11 L-100.3 -23.21 L-98.41 -23.15 L-96.57 -22.96 L-94.75 -22.61 L-92.97 -22.13 L-91.23 -21.5 L-89.54 -20.74 L-87.93 -19.84 L-86.38 -18.82 L-84.93 -17.68 L-83.57 -16.43 L-82.31 -15.08 L-81.16 -13.62 L-80.14 -12.09 L-79.24 -10.47 L-78.47 -8.792 L-77.83 -7.055 L-77.34 -5.273 L-76.99 -3.458 Z " />
<path stroke="rgb(0,0,0)" stroke-opacity="1" fill="rgb(255,255,255)" fill-opacity="1" d="M-187.9 -212.5 L-187.9 -211.5 L-187.9 -210.5 L-187.9 -209.5 L-187.9 -208.5 L-187.9 -207.5 L-187.9 -206.5 L-187.9 -205.5 L-187.9 -204.6 L-187.9 -203.6 L-187.9 -202.6 L-187.9 -201.6 L-187.9 -200.6 L-187.9 -199.6 L-187.9 -198.6 L-187.9 -197.6 L-187.9 -196.6 L-187.9 -195.6 L-188 -194.6 L-188 -193.6 L-188 -192.6 L-188 -191.6 L-188 -190.6 L-188 -189.6 L-188 -188.6 L-188 -187.6 L-189 -187.6 L-190 -187.7 L-191 -187.7 L-192 -187.7 L-192.9 -187.7 L-193.9 -187.7 L-194.9 -187.7 L-195.9 -187.7 L-196.9 -187.7 L-197.9 -187.7 L-198.9 -187.7 L-199.9 -187.7 L-200.9 -187.7 L-201.9 -187.7 L-202.9 -187.7 L-203.9 -187.7 L-204.9 -187.7 L-205.9 -187.7 L-206.9 -187.7 L-207.9 -187.7 L-208.9 -187.7 L-209.9 -187.7 L-210.9 -187.7 L-211.8 -187.7 L-212.8 -187.7 L-212.8 -188.7 L-212.8 -189.7 L-212.8 -190.7 L-212.8 -191.7 L-212.8 -192.7 L-212.8 -193.7 L-212.8 -194.7 L-212.8 -195.7 L-212.8 -196.7 L-212.8 -197.7 L-212.8 -198.7 L-212.8 -199.7 L-212.8 -200.7 L-212.8 -201.7 L-212.8 -202.6 L-212.8 -203.6 L-212.8 -204.6 L-212.8 -205.6 L-212.8 -206.6 L-212.8 -207.6 L-212.8 -208.6 L-212.8 -209.6 L-212.8 -210.6 L-212.8 -211.6 L-212.8 -212.6 L-211.8 -212.6 L-210.8 -212.6 L-209.8 -212.6 L-208.8 -212.6 L-207.8 -212.6 L-206.8 -212.6 L-205.8 -212.6 L-204.8 -212.6 L-203.8 -212.6 L-202.8 -212.6 L-201.8 -212.6 L-200.8 -212.6 L-199.8 -212.6 L-198.8 -212.5 L-197.8 -212.5 L-196.8 -212.5 L-195.8 -212.5 L-194.9 -212.5 L-193.9 -212.5 L-192.9 -212.5 L-191.9 -212.5 L-190.9 -212.5 L-189.9 -212.5 L-188.9 -212.5 L-187.9 -212.5 Z " />
<path stroke="rgb(0,0,0)" stroke-opacity="1" fill="rgb(255,255,255)" fill-opacity="1" d="M109.5 -13.18 L110.5 -12.4 L111.5 -11.54 L112.4 -10.6 L113.2 -9.598 L113.9 -8.532 L114.6 -7.412 L115.2 -6.244 L115.6 -5.036 L116 -3.794 L116.2 -2.528 L116.4 -1.244 L116.5 0.04833 L116.4 1.342 L116.3 2.627 L116 3.898 L115.7 5.144 L115.2 6.359 L114.7 7.535 L114.1 8.665 L113.4 9.741 L112.6 10.76 L111.7 11.7 L110.7 12.58 L109.7 13.38 L108.6 14.09 L107.5 14.71 L106.3 15.25 L105.1 15.69 L103.8 16.03 L102.6 16.27 L101.3 16.4 L99.99 16.44 L98.7 16.37 L97.42 16.2 L96.15 15.93 L94.91 15.56 L93.71 15.09 L92.54 14.53 L91.42 13.87 L90.36 13.13 L89.36 12.31 L88.43 11.41 L87.58 10.44 L86.8 9.406 L86.11 8.312 L85.51 7.167 L85 5.978 L84.58 4.752 L84.27 3.497 L84.05 2.221 L83.94 0.9322 L83.93 -0.3617 L84.03 -1.652 L84.22 -2.931 L84.52 -4.191 L84.91 -5.423 L85.41 -6.619 L85.99 -7.773 L86.67 -8.876 L87.43 -9.922 L88.27 -10.9 L89.19 -11.82 L90.17 -12.65 L91.23 -13.41 L92.33 -14.08 L93.49 -14.66 L94.69 -15.15 L95.92 -15.53 L97.18 -15.82 L98.46 -16.01 L99.75 -16.1 L101 -16.08 L102.3 -15.96 L103.6 -15.74 L104.9 -15.42 L106.1 -15 L107.3 -14.49 L108.4 -13.88 L109.5 -13.18 Z " />
<path stroke="rgb(0,0,0)" stroke-opacity="1" fill="rgb(255,255,255)" fill-opacity="1" d="M12.11 -212.5 L12.1 -211.5 L12.1 -210.5 L12.1 -209.5 L12.09 -208.5 L12.09 -207.5 L12.09 -206.5 L12.08 -205.5 L12.08 -204.6 L12.08 -203.6 L12.07 -202.6 L12.07 -201.6 L12.07 -200.6 L12.06 -199.6 L12.06 -198.6 L12.06 -197.6 L12.05 -196.6 L12.05 -195.6 L12.05 -194.6 L12.04 -193.6 L12.04 -192.6 L12.04 -191.6 L12.03 -190.6 L12.03 -189.6 L12.03 -188.6 L12.02 -187.6 L11.03 -187.6 L10.03 -187.7 L9.04 -187.7 L8.045 -187.7 L7.051 -187.7 L6.056 -187.7 L5.062 -187.7 L4.067 -187.7 L3.072 -187.7 L2.078 -187.7 L1.083 -187.7 L0.08855 -187.7 L-0.9061 -187.7 L-1.901 -187.7 L-2.895 -187.7 L-3.89 -187.7 L-4.884 -187.7 L-5.879 -187.7 L-6.874 -187.7 L-7.868 -187.7 L-8.863 -187.7 L-9.858 -187.7 L-10.85 -187.7 L-11.85 -187.7 L-12.84 -187.7 L-12.84 -188.7 L-12.83 -189.7 L-12.83 -190.7 L-12.83 -191.7 L-12.82 -192.7 L-12.82 -193.7 L-12.82 -194.7 L-12.81 -195.7 L-12.81 -196.7 L-12.81 -197.7 L-12.8 -198.7 L-12.8 -199.7 L-12.8 -200.7 L-12.79 -201.7 L-12.79 -202.6 L-12.79 -203.6 L-12.78 -204.6 L-12.78 -205.6 L-12.78 -206.6 L-12.77 -207.6 L-12.77 -208.6 L-12.77 -209.6 L-12.76 -210.6 L-12.76 -211.6 L-12.76 -212.6 L-11.76 -212.6 L-10.77 -212.6 L-9.773 -212.6 L-8.779 -212.6 L-7.784 -212.6 L-6.79 -212.6 L-5.795 -212.6 L-4.8 -212.6 L-3.806 -212.6 L-2.811 -212.6 L-1.817 -212.6 L-0.822 -212.6 L0.1726 -212.6 L1.167 -212.5 L2.162 -212.5 L3.156 -212.5 L4.151 -212.5 L5.146 -212.5 L6.14 -212.5 L7.135 -212.5 L8.129 -212.5 L9.124 -212.5 L10.12 -212.5 L11.11 -212.5 L12.11 -212.5 Z " />
<path stroke="rgb(0,0,0)" stroke-opacity="1" fill="rgb(255,255,255)" fill-opacity="1" d="M301.1 -12.6 L302.1 -12.5 L303.1 -12.31 L304.1 -12.05 L305 -11.72 L306 -11.3 L306.8 -10.82 L307.7 -10.26 L308.5 -9.642 L309.3 -8.959 L310 -8.219 L310.6 -7.425 L311.2 -6.584 L311.7 -5.7 L312.1 -4.779 L312.4 -3.827 L312.7 -2.85 L312.9 -1.853 L313 -0.8441 L313.1 0.1714 L313 1.187 L312.9 2.196 L312.7 3.192 L312.4 4.169 L312.1 5.12 L311.7 6.04 L311.1 6.923 L310.6 7.764 L309.9 8.556 L309.2 9.295 L308.5 9.976 L307.7 10.6 L306.8 11.15 L305.9 11.63 L305 12.04 L304 12.38 L303.1 12.64 L302.1 12.82 L301.1 12.92 L300 12.94 L299 12.88 L298 12.73 L297 12.51 L296.1 12.21 L295.1 11.84 L294.2 11.39 L293.3 10.87 L292.5 10.28 L291.7 9.627 L291 8.915 L290.3 8.147 L289.7 7.329 L289.2 6.466 L288.7 5.563 L288.3 4.626 L288 3.66 L287.8 2.672 L287.6 1.669 L287.5 0.6557 L287.5 -0.3606 L287.6 -1.374 L287.8 -2.377 L288 -3.364 L288.3 -4.329 L288.7 -5.266 L289.2 -6.168 L289.7 -7.03 L290.3 -7.847 L291 -8.613 L291.7 -9.324 L292.5 -9.975 L293.3 -10.56 L294.2 -11.08 L295.1 -11.53 L296.1 -11.9 L297 -12.2 L298 -12.42 L299 -12.56 L300.1 -12.62 L301.1 -12.6 Z " />
<path stroke="rgb(0,0,0)" stroke-opacity="1" fill="rgb(255,255,255)" fill-opacity="1" d="M-487.9 -112.5 L-487.9 -111.5 L-487.9 -110.5 L-487.9 -109.5 L-487.9 -108.5 L-487.9 -107.5 L-487.9 -106.5 L-487.9 -105.5 L-487.9 -104.6 L-487.9 -103.6 L-487.9 -102.6 L-487.9 -101.6 L-487.9 -100.6 L-487.9 -99.58 L-487.9 -98.59 L-487.9 -97.59 L-487.9 -96.6 L-487.9 -95.6 L-488 -94.61 L-488 -93.61 L-488 -92.62 L-488 -91.62 L-488 -90.63 L-488 -89.64 L-488 -88.64 L-488 -87.65 L-489 -87.65 L-490 -87.65 L-491 -87.66 L-492 -87.66 L-492.9 -87.66 L-493.9 -87.67 L-494.9 -87.67 L-495.9 -87.67 L-496.9 -87.68 L-497.9 -87.68 L-498.9 -87.68 L-499.9 -87.69 L-500.9 -87.69 L-501.9 -87.69 L-502.9 -87.7 L-503.9 -87.7 L-504.9 -87.7 L-505.9 -87.71 L-506.9 -87.71 L-507.9 -87.71 L-508.9 -87.72 L-509.9 -87.72 L-510.9 -87.72 L-511.8 -87.73 L-512.8 -87.73 L-512.8 -88.72 L-512.8 -89.72 L-512.8 -90.71 L-512.8 -91.71 L-512.8 -92.7 L-512.8 -93.7 L-512.8 -94.69 L-512.8 -95.69 L-512.8 -96.68 L-512.8 -97.68 L-512.8 -98.67 L-512.8 -99.67 L-512.8 -100.7 L-512.8 -101.7 L-512.8 -102.6 L-512.8 -103.6 L-512.8 -104.6 L-512.8 -105.6 L-512.8 -106.6 L-512.8 -107.6 L-512.8 -108.6 L-512.8 -109.6 L-512.8 -110.6 L-512.8 -111.6 L-512.8 -112.6 L-511.8 -112.6 L-510.8 -112.6 L-509.8 -112.6 L-508.8 -112.6 L-507.8 -112.6 L-506.8 -112.6 L-505.8 -112.6 L-504.8 -112.6 L-503.8 -112.6 L-502.8 -112.6 L-501.8 -112.6 L-500.8 -112.6 L-499.8 -112.6 L-498.8 -112.5 L-497.8 -112.5 L-496.8 -112.5 L-495.8 -112.5 L-494.9 -112.5 L-493.9 -112.5 L-492.9 -112.5 L-491.9 -112.5 L-490.9 -112.5 L-489.9 -112.5 L-488.9 -112.5 L-487.9 -112.5 Z " />
<path stroke="rgb(0,0,0)" stroke-opacity="1" fill="rgb(255,255,255)" fill-opacity="1" d="M-177 96.54 L-176.8 98.38 L-176.7 100.2 L-176.8 102.1 L-177 103.9 L-177.4 105.7 L-177.9 107.5 L-178.6 109.2 L-179.4 110.9 L-180.3 112.5 L-181.4 114 L-182.6 115.4 L-183.8 116.8 L-185.2 118 L-186.7 119.1 L-188.2 120.1 L-189.9 121 L-191.6 121.7 L-193.3 122.3 L-195.1 122.8 L-196.9 123.1 L-198.8 123.3 L-200.6 123.3 L-202.5 123.2 L-204.3 122.9 L-206.1 122.5 L-207.9 121.9 L-209.6 121.2 L-211.2 120.4 L-212.8 119.4 L-214.3 118.4 L-215.7 117.2 L-217 115.9 L-218.2 114.4 L-219.3 113 L-220.3 111.4 L-221.1 109.7 L-221.8 108 L-222.4 106.3 L-222.8 104.5 L-223.1 102.6 L-223.2 100.8 L-223.2 98.94 L-223 97.09 L-222.7 95.27 L-222.3 93.48 L-221.7 91.73 L-221 90.03 L-220.1 88.39 L-219.1 86.83 L-218 85.35 L-216.8 83.97 L-215.4 82.68 L-214 81.51 L-212.5 80.45 L-210.9 79.52 L-209.2 78.72 L-207.5 78.05 L-205.7 77.52 L-203.9 77.13 L-202.1 76.89 L-200.3 76.79 L-198.4 76.85 L-196.6 77.04 L-194.8 77.39 L-193 77.87 L-191.2 78.5 L-189.5 79.26 L-187.9 80.16 L-186.4 81.18 L-184.9 82.32 L-183.6 83.57 L-182.3 84.92 L-181.2 86.38 L-180.1 87.91 L-179.2 89.53 L-178.5 91.21 L-177.8 92.95 L-177.3 94.73 L-177 96.54 Z " />
<path stroke="rgb(0,0,0)" stroke-opacity="1" fill="rgb(255,255,255)" fill-opacity="1" d="M-287.9 -112.5 L-287.9 -111.5 L-287.9 -110.5 L-287.9 -109.5 L-287.9 -108.5 L-287.9 -107.5 L-287.9 -106.5 L-287.9 -105.5 L-287.9 -104.6 L-287.9 -103.6 L-287.9 -102.6 L-287.9 -101.6 L-287.9 -100.6 L-287.9 -99.58 L-287.9 -98.59 L-287.9 -97.59 L-287.9 -96.6 L-287.9 -95.6 L-288 -94.61 L-288 -93.61 L-288 -92.62 L-288 -91.62 L-288 -90.63 L-288 -89.64 L-288 -88.64 L-288 -87.65 L-289 -87.65 L-290 -87.65 L-291 -87.66 L-292 -87.66 L-292.9 -87.66 L-293.9 -87.67 L-294.9 -87.67 L-295.9 -87.67 L-296.9 -87.68 L-297.9 -87.68 L-298.9 -87.68 L-299.9 -87.69 L-300.9 -87.69 L-301.9 -87.69 L-302.9 -87.7 L-303.9 -87.7 L-304.9 -87.7 L-305.9 -87.71 L-306.9 -87.71 L-307.9 -87.71 L-308.9 -87.72 L-309.9 -87.72 L-310.9 -87.72 L-311.8 -87.73 L-312.8 -87.73 L-312.8 -88.72 L-312.8 -89.72 L-312.8 -90.71 L-312.8 -91.71 L-312.8 -92.7 L-312.8 -93.7 L-312.8 -94.69 L-312.8 -95.69 L-312.8 -96.68 L-312.8 -97.68 L-312.8 -98.67 L-312.8 -99.67 L-312.8 -100.7 L-312.8 -101.7 L-312.8 -102.6 L-312.8 -103.6 L-312.8 -104.6 L-312.8 -105.6 L-312.8 -106.6 L-312.8 -107.6 L-312.8 -108.6 L-312.8 -109.6 L-312.8 -110.6 L-312.8 -111.6 L-312.8 -112.6 L-311.8 -112.6 L-310.8 -112.6 L-309.8 -112.6 L-308.8 -112.6 L-307.8 -112.6 L-306.8 -112.6 L-305.8 -112.6 L-304.8 -112.6 L-303.8 -112.6 L-302.8 -112.6 L-301.8 -112.6 L-300.8 -112.6 L-299.8 -112.6 L-298.8 -112.5 L-297.8 -112.5 L-296.8 -112.5 L-295.8 -112.5 L-294.9 -112.5 L-293.9 -112.5 L-292.9 -112.5 L-291.9 -112.5 L-290.9 -112.5 L-289.9 -112.5 L-288.9 -112.5 L-287.9 -112.5 Z " />
<path stroke="rgb(0,0,0)" stroke-opacity="1" fill="rgb(255,255,255)" fill-opacity="1" d="M9.506 86.82 L10.54 87.6 L11.5 88.46 L12.4 89.4 L13.21 90.4 L13.95 91.47 L14.6 92.59 L15.15 93.76 L15.61 94.96 L15.98 96.21 L16.24 97.47 L16.41 98.76 L16.47 100 L16.43 101.3 L16.28 102.6 L16.04 103.9 L15.69 105.1 L15.24 106.4 L14.7 107.5 L14.07 108.7 L13.35 109.7 L12.55 110.8 L11.67 111.7 L10.72 112.6 L9.7 113.4 L8.62 114.1 L7.487 114.7 L6.309 115.2 L5.091 115.7 L3.843 116 L2.571 116.3 L1.284 116.4 L-0.008932 116.4 L-1.301 116.4 L-2.584 116.2 L-3.849 115.9 L-5.088 115.6 L-6.294 115.1 L-7.459 114.5 L-8.576 113.9 L-9.637 113.1 L-10.64 112.3 L-11.57 111.4 L-12.42 110.4 L-13.2 109.4 L-13.89 108.3 L-14.49 107.2 L-15 106 L-15.42 104.8 L-15.73 103.5 L-15.95 102.2 L-16.06 100.9 L-16.07 99.64 L-15.97 98.35 L-15.78 97.07 L-15.48 95.81 L-15.09 94.58 L-14.59 93.38 L-14.01 92.23 L-13.33 91.12 L-12.57 90.08 L-11.73 89.1 L-10.81 88.18 L-9.825 87.35 L-8.775 86.59 L-7.668 85.92 L-6.511 85.34 L-5.312 84.85 L-4.078 84.47 L-2.817 84.18 L-1.537 83.99 L-0.2459 83.9 L1.048 83.92 L2.336 84.04 L3.611 84.26 L4.864 84.58 L6.088 85 L7.275 85.51 L8.417 86.12 L9.506 86.82 Z " />
<path stroke="rgb(0,0,0)" stroke-opacity="1" fill="rgb(255,255,255)" fill-opacity="1" d="M-87.89 -112.5 L-87.9 -111.5 L-87.9 -110.5 L-87.9 -109.5 L-87.91 -108.5 L-87.91 -107.5 L-87.91 -106.5 L-87.92 -105.5 L-87.92 -104.6 L-87.92 -103.6 L-87.93 -102.6 L-87.93 -101.6 L-87.93 -100.6 L-87.94 -99.58 L-87.94 -98.59 L-87.94 -97.59 L-87.95 -96.6 L-87.95 -95.6 L-87.95 -94.61 L-87.96 -93.61 L-87.96 -92.62 L-87.96 -91.62 L-87.97 -90.63 L-87.97 -89.64 L-87.97 -88.64 L-87.98 -87.65 L-88.97 -87.65 L-89.97 -87.65 L-90.96 -87.66 L-91.95 -87.66 L-92.95 -87.66 L-93.94 -87.67 L-94.94 -87.67 L-95.93 -87.67 L-96.93 -87.68 L-97.92 -87.68 L-98.92 -87.68 L-99.91 -87.69 L-100.9 -87.69 L-101.9 -87.69 L-102.9 -87.7 L-103.9 -87.7 L-104.9 -87.7 L-105.9 -87.71 L-106.9 -87.71 L-107.9 -87.71 L-108.9 -87.72 L-109.9 -87.72 L-110.9 -87.72 L-111.8 -87.73 L-112.8 -87.73 L-112.8 -88.72 L-112.8 -89.72 L-112.8 -90.71 L-112.8 -91.71 L-112.8 -92.7 L-112.8 -93.7 L-112.8 -94.69 L-112.8 -95.69 L-112.8 -96.68 L-112.8 -97.68 L-112.8 -98.67 L-112.8 -99.67 L-112.8 -100.7 L-112.8 -101.7 L-112.8 -102.6 L-112.8 -103.6 L-112.8 -104.6 L-112.8 -105.6 L-112.8 -106.6 L-112.8 -107.6 L-112.8 -108.6 L-112.8 -109.6 L-112.8 -110.6 L-112.8 -111.6 L-112.8 -112.6 L-111.8 -112.6 L-110.8 -112.6 L-109.8 -112.6 L-108.8 -112.6 L-107.8 -112.6 L-106.8 -112.6 L-105.8 -112.6 L-104.8 -112.6 L-103.8 -112.6 L-102.8 -112.6 L-101.8 -112.6 L-100.8 -112.6 L-99.83 -112.6 L-98.83 -112.5 L-97.84 -112.5 L-96.84 -112.5 L-95.85 -112.5 L-94.85 -112.5 L-93.86 -112.5 L-92.87 -112.5 L-91.87 -112.5 L-90.88 -112.5 L-89.88 -112.5 L-88.89 -112.5 L-87.89 -112.5 Z " />
<path stroke="rgb(0,0,0)" stroke-opacity="1" fill="rgb(255,255,255)" fill-opacity="1" d="M201.1 87.4 L202.1 87.5 L203.1 87.69 L204.1 87.95 L205 88.28 L206 88.7 L206.8 89.18 L207.7 89.74 L208.5 90.36 L209.3 91.04 L210 91.78 L210.6 92.57 L211.2 93.42 L211.7 94.3 L212.1 95.22 L212.4 96.17 L212.7 97.15 L212.9 98.15 L213 99.16 L213.1 100.2 L213 101.2 L212.9 102.2 L212.7 103.2 L212.4 104.2 L212.1 105.1 L211.7 106 L211.1 106.9 L210.6 107.8 L209.9 108.6 L209.2 109.3 L208.5 110 L207.7 110.6 L206.8 111.1 L205.9 111.6 L205 112 L204 112.4 L203.1 112.6 L202.1 112.8 L201.1 112.9 L200 112.9 L199 112.9 L198 112.7 L197 112.5 L196.1 112.2 L195.1 111.8 L194.2 111.4 L193.3 110.9 L192.5 110.3 L191.7 109.6 L191 108.9 L190.3 108.1 L189.7 107.3 L189.2 106.5 L188.7 105.6 L188.3 104.6 L188 103.7 L187.8 102.7 L187.6 101.7 L187.5 100.7 L187.5 99.64 L187.6 98.63 L187.8 97.62 L188 96.64 L188.3 95.67 L188.7 94.73 L189.2 93.83 L189.7 92.97 L190.3 92.15 L191 91.39 L191.7 90.68 L192.5 90.03 L193.3 89.44 L194.2 88.92 L195.1 88.47 L196.1 88.1 L197 87.8 L198 87.58 L199 87.44 L200.1 87.38 L201.1 87.4 Z " />
<path stroke="rgb(0,0,0)" stroke-opacity="1" fill="rgb(255,255,255)" fill-opacity="1" d="M112.7 -111.9 L112.7 -110.9 L112.7 -109.9 L112.7 -108.9 L112.7 -107.9 L112.7 -106.9 L112.8 -105.9 L112.8 -105 L112.8 -104 L112.8 -103 L112.8 -102 L112.8 -101 L112.8 -99.98 L112.8 -98.99 L112.8 -97.99 L112.8 -97 L112.8 -96 L112.8 -95.01 L112.9 -94.01 L112.9 -93.02 L112.9 -92.02 L112.9 -91.03 L112.9 -90.03 L112.9 -89.04 L112.9 -88.04 L112.9 -87.05 L111.9 -87.04 L110.9 -87.03 L109.9 -87.03 L108.9 -87.02 L107.9 -87.01 L106.9 -87 L105.9 -86.99 L105 -86.98 L104 -86.98 L103 -86.97 L102 -86.96 L101 -86.95 L99.98 -86.94 L98.98 -86.94 L97.99 -86.93 L96.99 -86.92 L96 -86.91 L95.01 -86.9 L94.01 -86.89 L93.02 -86.89 L92.02 -86.88 L91.03 -86.87 L90.03 -86.86 L89.04 -86.85 L88.04 -86.85 L88.04 -87.84 L88.03 -88.84 L88.02 -89.83 L88.01 -90.82 L88 -91.82 L87.99 -92.81 L87.99 -93.81 L87.98 -94.8 L87.97 -95.8 L87.96 -96.79 L87.95 -97.79 L87.95 -98.78 L87.94 -99.78 L87.93 -100.8 L87.92 -101.8 L87.91 -102.8 L87.9 -103.8 L87.9 -104.7 L87.89 -105.7 L87.88 -106.7 L87.87 -107.7 L87.86 -108.7 L87.86 -109.7 L87.85 -110.7 L87.84 -111.7 L88.83 -111.7 L89.83 -111.7 L90.82 -111.7 L91.82 -111.7 L92.81 -111.8 L93.81 -111.8 L94.8 -111.8 L95.8 -111.8 L96.79 -111.8 L97.78 -111.8 L98.78 -111.8 L99.77 -111.8 L100.8 -111.8 L101.8 -111.8 L102.8 -111.8 L103.8 -111.8 L104.7 -111.8 L105.7 -111.9 L106.7 -111.9 L107.7 -111.9 L108.7 -111.9 L109.7 -111.9 L110.7 -111.9 L111.7 -111.9 L112.7 -111.9 Z " />
<path stroke="rgb(0,0,0)" stroke-opacity="1" fill="rgb(255,255,255)" fill-opacity="1" d="M-277 196.5 L-276.8 198.4 L-276.7 200.2 L-276.8 202.1 L-277 203.9 L-277.4 205.7 L-277.9 207.5 L-278.6 209.2 L-279.4 210.9 L-280.3 212.5 L-281.4 214 L-282.6 215.4 L-283.8 216.8 L-285.2 218 L-286.7 219.1 L-288.2 220.1 L-289.9 221 L-291.6 221.7 L-293.3 222.3 L-295.1 222.8 L-296.9 223.1 L-298.8 223.3 L-300.6 223.3 L-302.5 223.2 L-304.3 222.9 L-306.1 222.5 L-307.9 221.9 L-309.6 221.2 L-311.2 220.4 L-312.8 219.4 L-314.3 218.4 L-315.7 217.2 L-317 215.9 L-318.2 214.4 L-319.3 213 L-320.3 211.4 L-321.1 209.7 L-321.8 208 L-322.4 206.3 L-322.8 204.5 L-323.1 202.6 L-323.2 200.8 L-323.2 198.9 L-323 197.1 L-322.7 195.3 L-322.3 193.5 L-321.7 191.7 L-321 190 L-320.1 188.4 L-319.1 186.8 L-318 185.4 L-316.8 184 L-315.4 182.7 L-314 181.5 L-312.5 180.5 L-310.9 179.5 L-309.2 178.7 L-307.5 178 L-305.7 177.5 L-303.9 177.1 L-302.1 176.9 L-300.3 176.8 L-298.4 176.8 L-296.6 177 L-294.8 177.4 L-293 177.9 L-291.2 178.5 L-289.5 179.3 L-287.9 180.2 L-286.4 181.2 L-284.9 182.3 L-283.6 183.6 L-282.3 184.9 L-281.2 186.4 L-280.1 187.9 L-279.2 189.5 L-278.5 191.2 L-277.8 192.9 L-277.3 194.7 L-277 196.5 Z " />
<path stroke="rgb(0,0,0)" stroke-opacity="1" fill="rgb(255,255,255)" fill-opacity="1" d="M-387.9 -12.51 L-387.9 -11.52 L-387.9 -10.52 L-387.9 -9.527 L-387.9 -8.533 L-387.9 -7.538 L-387.9 -6.543 L-387.9 -5.549 L-387.9 -4.554 L-387.9 -3.56 L-387.9 -2.565 L-387.9 -1.57 L-387.9 -0.5758 L-387.9 0.4188 L-387.9 1.413 L-387.9 2.408 L-387.9 3.403 L-387.9 4.397 L-388 5.392 L-388 6.386 L-388 7.381 L-388 8.376 L-388 9.37 L-388 10.36 L-388 11.36 L-388 12.35 L-389 12.35 L-390 12.35 L-391 12.34 L-392 12.34 L-392.9 12.34 L-393.9 12.33 L-394.9 12.33 L-395.9 12.33 L-396.9 12.32 L-397.9 12.32 L-398.9 12.32 L-399.9 12.31 L-400.9 12.31 L-401.9 12.31 L-402.9 12.3 L-403.9 12.3 L-404.9 12.3 L-405.9 12.29 L-406.9 12.29 L-407.9 12.29 L-408.9 12.28 L-409.9 12.28 L-410.9 12.28 L-411.8 12.27 L-412.8 12.27 L-412.8 11.28 L-412.8 10.28 L-412.8 9.286 L-412.8 8.292 L-412.8 7.297 L-412.8 6.302 L-412.8 5.308 L-412.8 4.313 L-412.8 3.319 L-412.8 2.324 L-412.8 1.329 L-412.8 0.3347 L-412.8 -0.6599 L-412.8 -1.654 L-412.8 -2.649 L-412.8 -3.644 L-412.8 -4.638 L-412.8 -5.633 L-412.8 -6.627 L-412.8 -7.622 L-412.8 -8.617 L-412.8 -9.611 L-412.8 -10.61 L-412.8 -11.6 L-412.8 -12.6 L-411.8 -12.59 L-410.8 -12.59 L-409.8 -12.59 L-408.8 -12.58 L-407.8 -12.58 L-406.8 -12.57 L-405.8 -12.57 L-404.8 -12.57 L-403.8 -12.56 L-402.8 -12.56 L-401.8 -12.56 L-400.8 -12.55 L-399.8 -12.55 L-398.8 -12.55 L-397.8 -12.54 L-396.8 -12.54 L-395.8 -12.54 L-394.9 -12.53 L-393.9 -12.53 L-392.9 -12.53 L-391.9 -12.52 L-390.9 -12.52 L-389.9 -12.52 L-388.9 -12.51 L-387.9 -12.51 Z " />
<path stroke="rgb(0,0,0)" stroke-opacity="1" fill="rgb(255,255,255)" fill-opacity="1" d="M-90.49 186.8 L-89.46 187.6 L-88.5 188.5 L-87.6 189.4 L-86.79 190.4 L-86.05 191.5 L-85.4 192.6 L-84.85 193.8 L-84.39 195 L-84.02 196.2 L-83.76 197.5 L-83.59 198.8 L-83.53 200 L-83.57 201.3 L-83.72 202.6 L-83.96 203.9 L-84.31 205.1 L-84.76 206.4 L-85.3 207.5 L-85.93 208.7 L-86.65 209.7 L-87.45 210.8 L-88.33 211.7 L-89.28 212.6 L-90.3 213.4 L-91.38 214.1 L-92.51 214.7 L-93.69 215.2 L-94.91 215.7 L-96.16 216 L-97.43 216.3 L-98.72 216.4 L-100 216.4 L-101.3 216.4 L-102.6 216.2 L-103.8 215.9 L-105.1 215.6 L-106.3 215.1 L-107.5 214.5 L-108.6 213.9 L-109.6 213.1 L-110.6 212.3 L-111.6 211.4 L-112.4 210.4 L-113.2 209.4 L-113.9 208.3 L-114.5 207.2 L-115 206 L-115.4 204.8 L-115.7 203.5 L-115.9 202.2 L-116.1 200.9 L-116.1 199.6 L-116 198.3 L-115.8 197.1 L-115.5 195.8 L-115.1 194.6 L-114.6 193.4 L-114 192.2 L-113.3 191.1 L-112.6 190.1 L-111.7 189.1 L-110.8 188.2 L-109.8 187.3 L-108.8 186.6 L-107.7 185.9 L-106.5 185.3 L-105.3 184.9 L-104.1 184.5 L-102.8 184.2 L-101.5 184 L-100.2 183.9 L-98.95 183.9 L-97.66 184 L-96.39 184.3 L-95.14 184.6 L-93.91 185 L-92.73 185.5 L-91.58 186.1 L-90.49 186.8 Z " />
<path stroke="rgb(0,0,0)" stroke-opacity="1" fill="rgb(255,255,255)" fill-opacity="1" d="M-187.9 -12.51 L-187.9 -11.52 L-187.9 -10.52 L-187.9 -9.527 L-187.9 -8.533 L-187.9 -7.538 L-187.9 -6.543 L-187.9 -5.549 L-187.9 -4.554 L-187.9 -3.56 L-187.9 -2.565 L-187.9 -1.57 L-187.9 -0.5758 L-187.9 0.4188 L-187.9 1.413 L-187.9 2.408 L-187.9 3.403 L-187.9 4.397 L-188 5.392 L-188 6.386 L-188 7.381 L-188 8.376 L-188 9.37 L-188 10.36 L-188 11.36 L-188 12.35 L-189 12.35 L-190 12.35 L-191 12.34 L-192 12.34 L-192.9 12.34 L-193.9 12.33 L-194.9 12.33 L-195.9 12.33 L-196.9 12.32 L-197.9 12.32 L-198.9 12.32 L-199.9 12.31 L-200.9 12.31 L-201.9 12.31 L-202.9 12.3 L-203.9 12.3 L-204.9 12.3 L-205.9 12.29 L-206.9 12.29 L-207.9 12.29 L-208.9 12.28 L-209.9 12.28 L-210.9 12.28 L-211.8 12.27 L-212.8 12.27 L-212.8 11.28 L-212.8 10.28 L-212.8 9.286 L-212.8 8.292 L-212.8 7.297 L-212.8 6.302 L-212.8 5.308 L-212.8 4.313 L-212.8 3.319 L-212.8 2.324 L-212.8 1.329 L-212.8 0.3347 L-212.8 -0.6599 L-212.8 -1.654 L-212.8 -2.649 L-212.8 -3.644 L-212.8 -4.638 L-212.8 -5.633 L-212.8 -6.627 L-212.8 -7.622 L-212.8 -8.617 L-212.8 -9.611 L-212.8 -10.61 L-212.8 -11.6 L-212.8 -12.6 L-211.8 -12.59 L-210.8 -12.59 L-209.8 -12.59 L-208.8 -12.58 L-207.8 -12.58 L-206.8 -12.57 L-205.8 -12.57 L-204.8 -12.57 L-203.8 -12.56 L-202.8 -12.56 L-201.8 -12.56 L-200.8 -12.55 L-199.8 -12.55 L-198.8 -12.55 L-197.8 -12.54 L-196.8 -12.54 L-195.8 -12.54 L-194.9 -12.53 L-193.9 -12.53 L-192.9 -12.53 L-191.9 -12.52 L-190.9 -12.52 L-189.9 -12.52 L-188.9 -12.51 L-187.9 -12.51 Z " />
<path stroke="rgb(0,0,0)" stroke-opacity="1" fill="rgb(255,255,255)" fill-opacity="1" d="M101.1 187.4 L102.1 187.5 L103.1 187.7 L104.1 187.9 L105 188.3 L106 188.7 L106.8 189.2 L107.7 189.7 L108.5 190.4 L109.3 191 L110 191.8 L110.6 192.6 L111.2 193.4 L111.7 194.3 L112.1 195.2 L112.4 196.2 L112.7 197.2 L112.9 198.1 L113 199.2 L113.1 200.2 L113 201.2 L112.9 202.2 L112.7 203.2 L112.4 204.2 L112.1 205.1 L111.7 206 L111.1 206.9 L110.6 207.8 L109.9 208.6 L109.2 209.3 L108.5 210 L107.7 210.6 L106.8 211.1 L105.9 211.6 L105 212 L104 212.4 L103.1 212.6 L102.1 212.8 L101.1 212.9 L100 212.9 L99.02 212.9 L98.02 212.7 L97.02 212.5 L96.05 212.2 L95.11 211.8 L94.2 211.4 L93.32 210.9 L92.5 210.3 L91.72 209.6 L90.99 208.9 L90.33 208.1 L89.72 207.3 L89.19 206.5 L88.72 205.6 L88.33 204.6 L88.01 203.7 L87.77 202.7 L87.61 201.7 L87.53 200.7 L87.53 199.6 L87.61 198.6 L87.78 197.6 L88.02 196.6 L88.34 195.7 L88.73 194.7 L89.2 193.8 L89.74 193 L90.34 192.2 L91.01 191.4 L91.73 190.7 L92.51 190 L93.34 189.4 L94.22 188.9 L95.13 188.5 L96.08 188.1 L97.05 187.8 L98.04 187.6 L99.05 187.4 L100.1 187.4 L101.1 187.4 Z " />
<path stroke="rgb(0,0,0)" stroke-opacity="1" fill="rgb(255,255,255)" fill-opacity="1" d="M12.7 -11.91 L12.71 -10.92 L12.72 -9.926 L12.73 -8.931 L12.74 -7.937 L12.74 -6.942 L12.75 -5.947 L12.76 -4.953 L12.77 -3.958 L12.78 -2.964 L12.79 -1.969 L12.79 -0.9745 L12.8 0.02007 L12.81 1.015 L12.82 2.009 L12.83 3.004 L12.83 3.998 L12.84 4.993 L12.85 5.988 L12.86 6.982 L12.87 7.977 L12.88 8.971 L12.88 9.966 L12.89 10.96 L12.9 11.96 L12.91 12.95 L11.91 12.96 L10.92 12.97 L9.924 12.97 L8.93 12.98 L7.935 12.99 L6.94 13 L5.946 13.01 L4.951 13.02 L3.957 13.02 L2.962 13.03 L1.968 13.04 L0.9729 13.05 L-0.02167 13.06 L-1.016 13.06 L-2.011 13.07 L-3.005 13.08 L-4 13.09 L-4.995 13.1 L-5.989 13.11 L-6.984 13.11 L-7.978 13.12 L-8.973 13.13 L-9.968 13.14 L-10.96 13.15 L-11.96 13.15 L-11.96 12.16 L-11.97 11.16 L-11.98 10.17 L-11.99 9.176 L-12 8.181 L-12.01 7.187 L-12.01 6.192 L-12.02 5.197 L-12.03 4.203 L-12.04 3.208 L-12.05 2.214 L-12.05 1.219 L-12.06 0.2245 L-12.07 -0.7701 L-12.08 -1.765 L-12.09 -2.759 L-12.1 -3.754 L-12.1 -4.748 L-12.11 -5.743 L-12.12 -6.738 L-12.13 -7.732 L-12.14 -8.727 L-12.14 -9.721 L-12.15 -10.72 L-12.16 -11.71 L-11.17 -11.72 L-10.17 -11.73 L-9.177 -11.74 L-8.183 -11.74 L-7.188 -11.75 L-6.194 -11.76 L-5.199 -11.77 L-4.204 -11.78 L-3.21 -11.78 L-2.215 -11.79 L-1.221 -11.8 L-0.2261 -11.81 L0.7685 -11.82 L1.763 -11.83 L2.758 -11.83 L3.752 -11.84 L4.747 -11.85 L5.741 -11.86 L6.736 -11.87 L7.731 -11.87 L8.725 -11.88 L9.72 -11.89 L10.71 -11.9 L11.71 -11.91 L12.7 -11.91 Z " />
<path stroke="rgb(0,0,0)" stroke-opacity="1" fill="rgb(255,255,255)" fill-opacity="1" d="M300.4 187.7 L301.3 187.7 L302.3 187.9 L303.3 188.1 L304.3 188.3 L305.2 188.7 L306.1 189.1 L306.9 189.6 L307.8 190.2 L308.5 190.8 L309.2 191.5 L309.9 192.2 L310.5 193 L311 193.8 L311.5 194.7 L311.9 195.6 L312.2 196.5 L312.5 197.5 L312.7 198.5 L312.8 199.5 L312.8 200.5 L312.7 201.4 L312.6 202.4 L312.4 203.4 L312.1 204.3 L311.7 205.3 L311.2 206.1 L310.7 207 L310.2 207.8 L309.5 208.6 L308.8 209.3 L308.1 209.9 L307.3 210.5 L306.4 211 L305.6 211.5 L304.6 211.8 L303.7 212.2 L302.7 212.4 L301.7 212.5 L300.8 212.6 L299.8 212.6 L298.8 212.5 L297.8 212.4 L296.8 212.1 L295.9 211.8 L295 211.4 L294.1 211 L293.3 210.4 L292.5 209.9 L291.7 209.2 L291 208.5 L290.4 207.7 L289.8 206.9 L289.3 206.1 L288.9 205.2 L288.5 204.2 L288.2 203.3 L288 202.3 L287.9 201.3 L287.8 200.4 L287.9 199.4 L288 198.4 L288.2 197.4 L288.4 196.4 L288.7 195.5 L289.1 194.6 L289.6 193.7 L290.2 192.9 L290.8 192.1 L291.4 191.4 L292.2 190.7 L292.9 190.1 L293.8 189.5 L294.6 189.1 L295.5 188.6 L296.5 188.3 L297.4 188 L298.4 187.8 L299.4 187.7 L300.4 187.7 Z " />
<path stroke="rgb(0,0,0)" stroke-opacity="1" fill="rgb(255,255,255)" fill-opacity="1" d="M-487.9 87.49 L-487.9 88.48 L-487.9 89.48 L-487.9 90.47 L-487.9 91.47 L-487.9 92.46 L-487.9 93.46 L-487.9 94.45 L-487.9 95.45 L-487.9 96.44 L-487.9 97.43 L-487.9 98.43 L-487.9 99.42 L-487.9 100.4 L-487.9 101.4 L-487.9 102.4 L-487.9 103.4 L-487.9 104.4 L-488 105.4 L-488 106.4 L-488 107.4 L-488 108.4 L-488 109.4 L-488 110.4 L-488 111.4 L-488 112.4 L-489 112.4 L-490 112.3 L-491 112.3 L-492 112.3 L-492.9 112.3 L-493.9 112.3 L-494.9 112.3 L-495.9 112.3 L-496.9 112.3 L-497.9 112.3 L-498.9 112.3 L-499.9 112.3 L-500.9 112.3 L-501.9 112.3 L-502.9 112.3 L-503.9 112.3 L-504.9 112.3 L-505.9 112.3 L-506.9 112.3 L-507.9 112.3 L-508.9 112.3 L-509.9 112.3 L-510.9 112.3 L-511.8 112.3 L-512.8 112.3 L-512.8 111.3 L-512.8 110.3 L-512.8 109.3 L-512.8 108.3 L-512.8 107.3 L-512.8 106.3 L-512.8 105.3 L-512.8 104.3 L-512.8 103.3 L-512.8 102.3 L-512.8 101.3 L-512.8 100.3 L-512.8 99.34 L-512.8 98.35 L-512.8 97.35 L-512.8 96.36 L-512.8 95.36 L-512.8 94.37 L-512.8 93.37 L-512.8 92.38 L-512.8 91.38 L-512.8 90.39 L-512.8 89.39 L-512.8 88.4 L-512.8 87.4 L-511.8 87.41 L-510.8 87.41 L-509.8 87.41 L-508.8 87.42 L-507.8 87.42 L-506.8 87.43 L-505.8 87.43 L-504.8 87.43 L-503.8 87.44 L-502.8 87.44 L-501.8 87.44 L-500.8 87.45 L-499.8 87.45 L-498.8 87.45 L-497.8 87.46 L-496.8 87.46 L-495.8 87.46 L-494.9 87.47 L-493.9 87.47 L-492.9 87.47 L-491.9 87.48 L-490.9 87.48 L-489.9 87.48 L-488.9 87.49 L-487.9 87.49 Z " />
<path stroke="rgb(0,0,0)" stroke-opacity="1" fill="rgb(255,255,255)" fill-opacity="1" d="M-190.5 286.8 L-189.5 287.6 L-188.5 288.5 L-187.6 289.4 L-186.8 290.4 L-186.1 291.5 L-185.4 292.6 L-184.8 293.8 L-184.4 295 L-184 296.2 L-183.8 297.5 L-183.6 298.8 L-183.5 300 L-183.6 301.3 L-183.7 302.6 L-184 303.9 L-184.3 305.1 L-184.8 306.4 L-185.3 307.5 L-185.9 308.7 L-186.6 309.7 L-187.4 310.8 L-188.3 311.7 L-189.3 312.6 L-190.3 313.4 L-191.4 314.1 L-192.5 314.7 L-193.7 315.2 L-194.9 315.7 L-196.2 316 L-197.4 316.3 L-198.7 316.4 L-200 316.4 L-201.3 316.4 L-202.6 316.2 L-203.8 315.9 L-205.1 315.6 L-206.3 315.1 L-207.5 314.5 L-208.6 313.9 L-209.6 313.1 L-210.6 312.3 L-211.6 311.4 L-212.4 310.4 L-213.2 309.4 L-213.9 308.3 L-214.5 307.2 L-215 306 L-215.4 304.8 L-215.7 303.5 L-215.9 302.2 L-216.1 300.9 L-216.1 299.6 L-216 298.3 L-215.8 297.1 L-215.5 295.8 L-215.1 294.6 L-214.6 293.4 L-214 292.2 L-213.3 291.1 L-212.6 290.1 L-211.7 289.1 L-210.8 288.2 L-209.8 287.3 L-208.8 286.6 L-207.7 285.9 L-206.5 285.3 L-205.3 284.9 L-204.1 284.5 L-202.8 284.2 L-201.5 284 L-200.2 283.9 L-199 283.9 L-197.7 284 L-196.4 284.3 L-195.1 284.6 L-193.9 285 L-192.7 285.5 L-191.6 286.1 L-190.5 286.8 Z " />
<path stroke="rgb(0,0,0)" stroke-opacity="1" fill="rgb(255,255,255)" fill-opacity="1" d="M-287.9 87.49 L-287.9 88.48 L-287.9 89.48 L-287.9 90.47 L-287.9 91.47 L-287.9 92.46 L-287.9 93.46 L-287.9 94.45 L-287.9 95.45 L-287.9 96.44 L-287.9 97.43 L-287.9 98.43 L-287.9 99.42 L-287.9 100.4 L-287.9 101.4 L-287.9 102.4 L-287.9 103.4 L-287.9 104.4 L-288 105.4 L-288 106.4 L-288 107.4 L-288 108.4 L-288 109.4 L-288 110.4 L-288 111.4 L-288 112.4 L-289 112.4 L-290 112.3 L-291 112.3 L-292 112.3 L-292.9 112.3 L-293.9 112.3 L-294.9 112.3 L-295.9 112.3 L-296.9 112.3 L-297.9 112.3 L-298.9 112.3 L-299.9 112.3 L-300.9 112.3 L-301.9 112.3 L-302.9 112.3 L-303.9 112.3 L-304.9 112.3 L-305.9 112.3 L-306.9 112.3 L-307.9 112.3 L-308.9 112.3 L-309.9 112.3 L-310.9 112.3 L-311.8 112.3 L-312.8 112.3 L-312.8 111.3 L-312.8 110.3 L-312.8 109.3 L-312.8 108.3 L-312.8 107.3 L-312.8 106.3 L-312.8 105.3 L-312.8 104.3 L-312.8 103.3 L-312.8 102.3 L-312.8 101.3 L-312.8 100.3 L-312.8 99.34 L-312.8 98.35 L-312.8 97.35 L-312.8 96.36 L-312.8 95.36 L-312.8 94.37 L-312.8 93.37 L-312.8 92.38 L-312.8 91.38 L-312.8 90.39 L-312.8 89.39 L-312.8 88.4 L-312.8 87.4 L-311.8 87.41 L-310.8 87.41 L-309.8 87.41 L-308.8 87.42 L-307.8 87.42 L-306.8 87.43 L-305.8 87.43 L-304.8 87.43 L-303.8 87.44 L-302.8 87.44 L-301.8 87.44 L-300.8 87.45 L-299.8 87.45 L-298.8 87.45 L-297.8 87.46 L-296.8 87.46 L-295.8 87.46 L-294.9 87.47 L-293.9 87.47 L-292.9 87.47 L-291.9 87.48 L-290.9 87.48 L-289.9 87.48 L-288.9 87.49 L-287.9 87.49 Z " />
<path stroke="rgb(0,0,0)" stroke-opacity="1" fill="rgb(255,255,255)" fill-opacity="1" d="M1.077 287.4 L2.088 287.5 L3.088 287.7 L4.07 287.9 L5.028 288.3 L5.957 288.7 L6.85 289.2 L7.701 289.7 L8.506 290.4 L9.259 291 L9.955 291.8 L10.59 292.6 L11.16 293.4 L11.66 294.3 L12.09 295.2 L12.45 296.2 L12.72 297.2 L12.92 298.1 L13.04 299.2 L13.08 300.2 L13.04 301.2 L12.92 302.2 L12.72 303.2 L12.44 304.2 L12.08 305.1 L11.65 306 L11.15 306.9 L10.58 307.8 L9.939 308.6 L9.242 309.3 L8.488 310 L7.682 310.6 L6.829 311.1 L5.936 311.6 L5.006 312 L4.047 312.4 L3.064 312.6 L2.064 312.8 L1.053 312.9 L0.0368 312.9 L-0.9776 312.9 L-1.984 312.7 L-2.976 312.5 L-3.947 312.2 L-4.891 311.8 L-5.803 311.4 L-6.675 310.9 L-7.504 310.3 L-8.283 309.6 L-9.008 308.9 L-9.675 308.1 L-10.28 307.3 L-10.81 306.5 L-11.28 305.6 L-11.67 304.6 L-11.99 303.7 L-12.23 302.7 L-12.39 301.7 L-12.47 300.7 L-12.47 299.6 L-12.39 298.6 L-12.22 297.6 L-11.98 296.6 L-11.66 295.7 L-11.27 294.7 L-10.8 293.8 L-10.26 293 L-9.66 292.2 L-8.992 291.4 L-8.266 290.7 L-7.485 290 L-6.655 289.4 L-5.782 288.9 L-4.869 288.5 L-3.924 288.1 L-2.953 287.8 L-1.96 287.6 L-0.9539 287.4 L0.06063 287.4 L1.077 287.4 Z " />
<path stroke="rgb(0,0,0)" stroke-opacity="1" fill="rgb(255,255,255)" fill-opacity="1" d="M-87.3 88.09 L-87.29 89.08 L-87.28 90.07 L-87.27 91.07 L-87.26 92.06 L-87.26 93.06 L-87.25 94.05 L-87.24 95.05 L-87.23 96.04 L-87.22 97.04 L-87.21 98.03 L-87.21 99.03 L-87.2 100 L-87.19 101 L-87.18 102 L-87.17 103 L-87.17 104 L-87.16 105 L-87.15 106 L-87.14 107 L-87.13 108 L-87.12 109 L-87.12 110 L-87.11 111 L-87.1 112 L-87.09 112.9 L-88.09 113 L-89.08 113 L-90.08 113 L-91.07 113 L-92.06 113 L-93.06 113 L-94.05 113 L-95.05 113 L-96.04 113 L-97.04 113 L-98.03 113 L-99.03 113 L-100 113.1 L-101 113.1 L-102 113.1 L-103 113.1 L-104 113.1 L-105 113.1 L-106 113.1 L-107 113.1 L-108 113.1 L-109 113.1 L-110 113.1 L-111 113.1 L-112 113.2 L-112 112.2 L-112 111.2 L-112 110.2 L-112 109.2 L-112 108.2 L-112 107.2 L-112 106.2 L-112 105.2 L-112 104.2 L-112 103.2 L-112 102.2 L-112.1 101.2 L-112.1 100.2 L-112.1 99.23 L-112.1 98.24 L-112.1 97.24 L-112.1 96.25 L-112.1 95.25 L-112.1 94.26 L-112.1 93.26 L-112.1 92.27 L-112.1 91.27 L-112.1 90.28 L-112.2 89.28 L-112.2 88.29 L-111.2 88.28 L-110.2 88.27 L-109.2 88.26 L-108.2 88.26 L-107.2 88.25 L-106.2 88.24 L-105.2 88.23 L-104.2 88.22 L-103.2 88.22 L-102.2 88.21 L-101.2 88.2 L-100.2 88.19 L-99.23 88.18 L-98.24 88.17 L-97.24 88.17 L-96.25 88.16 L-95.25 88.15 L-94.26 88.14 L-93.26 88.13 L-92.27 88.13 L-91.27 88.12 L-90.28 88.11 L-89.29 88.1 L-88.29 88.09 L-87.3 88.09 Z " />
<path stroke="rgb(0,0,0)" stroke-opacity="1" fill="rgb(255,255,255)" fill-opacity="1" d="M200.4 287.7 L201.3 287.7 L202.3 287.9 L203.3 288.1 L204.3 288.3 L205.2 288.7 L206.1 289.1 L206.9 289.6 L207.8 290.2 L208.5 290.8 L209.2 291.5 L209.9 292.2 L210.5 293 L211 293.8 L211.5 294.7 L211.9 295.6 L212.2 296.5 L212.5 297.5 L212.7 298.5 L212.8 299.5 L212.8 300.5 L212.7 301.4 L212.6 302.4 L212.4 303.4 L212.1 304.3 L211.7 305.3 L211.2 306.1 L210.7 307 L210.2 307.8 L209.5 308.6 L208.8 309.3 L208.1 309.9 L207.3 310.5 L206.4 311 L205.6 311.5 L204.6 311.8 L203.7 312.2 L202.7 312.4 L201.7 312.5 L200.8 312.6 L199.8 312.6 L198.8 312.5 L197.8 312.4 L196.8 312.1 L195.9 311.8 L195 311.4 L194.1 311 L193.3 310.4 L192.5 309.9 L191.7 309.2 L191 308.5 L190.4 307.7 L189.8 306.9 L189.3 306.1 L188.9 305.2 L188.5 304.2 L188.2 303.3 L188 302.3 L187.9 301.3 L187.8 300.4 L187.9 299.4 L188 298.4 L188.2 297.4 L188.4 296.4 L188.7 295.5 L189.1 294.6 L189.6 293.7 L190.2 292.9 L190.8 292.1 L191.4 291.4 L192.2 290.7 L192.9 290.1 L193.8 289.5 L194.6 289.1 L195.5 288.6 L196.5 288.3 L197.4 288 L198.4 287.8 L199.4 287.7 L200.4 287.7 Z " />
<path stroke="rgb(0,0,0)" stroke-opacity="1" fill="rgb(255,255,255)" fill-opacity="1" d="M115.9 91.35 L116 92.34 L116 93.33 L116.1 94.32 L116.2 95.31 L116.3 96.31 L116.3 97.3 L116.4 98.29 L116.5 99.28 L116.5 100.3 L116.6 101.3 L116.7 102.3 L116.8 103.3 L116.8 104.2 L116.9 105.2 L117 106.2 L117 107.2 L117.1 108.2 L117.2 109.2 L117.2 110.2 L117.3 111.2 L117.4 112.2 L117.5 113.2 L117.5 114.2 L117.6 115.2 L117.7 116.1 L116.7 116.2 L115.7 116.3 L114.7 116.4 L113.7 116.4 L112.7 116.5 L111.7 116.6 L110.7 116.6 L109.7 116.7 L108.7 116.8 L107.7 116.9 L106.8 116.9 L105.8 117 L104.8 117.1 L103.8 117.1 L102.8 117.2 L101.8 117.3 L100.8 117.4 L99.81 117.4 L98.82 117.5 L97.83 117.6 L96.84 117.6 L95.84 117.7 L94.85 117.8 L93.86 117.8 L92.87 117.9 L92.8 116.9 L92.73 115.9 L92.66 114.9 L92.58 113.9 L92.51 113 L92.44 112 L92.37 111 L92.3 110 L92.23 109 L92.16 108 L92.09 107 L92.02 106 L91.95 105 L91.88 104 L91.81 103 L91.74 102 L91.67 101.1 L91.6 100.1 L91.52 99.07 L91.45 98.07 L91.38 97.08 L91.31 96.09 L91.24 95.1 L91.17 94.11 L91.1 93.11 L92.09 93.04 L93.08 92.97 L94.08 92.9 L95.07 92.83 L96.06 92.76 L97.05 92.69 L98.05 92.62 L99.04 92.55 L100 92.48 L101 92.41 L102 92.34 L103 92.26 L104 92.19 L105 92.12 L106 92.05 L107 91.98 L108 91.91 L109 91.84 L110 91.77 L110.9 91.7 L111.9 91.63 L112.9 91.56 L113.9 91.49 L114.9 91.42 L115.9 91.35 Z " />
</g>
</g>
</svg>
