<!DOCTYPE svg>
<svg xmlns="http://www.w3.org/2000/svg" xmlns:xlink="http://www.w3.org/1999/xlink" width="1000" height="1000">
<g transform="translate(500.000000,500.000000)">
<g transform="scale(3.000000,3.000000)">
<path stroke="rgb(0,0,0)" stroke-opacity="1" fill="rgb(255,255,255)" fill-opacity="1" d="M-476.2 -500.2 L-476 -499.2 L-475.8 -498.3 L-475.6 -497.3 L-475.3 -496.3 L-475.1 -495.4 L-474.9 -494.4 L-474.7 -493.4 L-474.4 -492.5 L-474.2 -491.5 L-474 -490.5 L-473.8 -489.6 L-473.5 -488.6 L-473.3 -487.6 L-473.1 -486.7 L-472.8 -485.7 L-472.6 -484.7 L-472.4 -483.7 L-472.2 -482.8 L-471.9 -481.8 L-471.7 -480.8 L-471.5 -479.9 L-471.3 -478.9 L-471 -477.9 L-470.8 -477 L-470.6 -476 L-471.6 -475.8 L-472.5 -475.5 L-473.5 -475.3 L-474.5 -475.1 L-475.4 -474.9 L-476.4 -474.6 L-477.4 -474.4 L-478.3 -474.2 L-479.3 -474 L-480.3 -473.7 L-481.2 -473.5 L-482.2 -473.3 L-483.2 -473.1 L-484.1 -472.8 L-485.1 -472.6 L-486.1 -472.4 L-487.1 -472.2 L-488 -471.9 L-489 -471.7 L-490 -471.5 L-490.9 -471.3 L-491.9 -471 L-492.9 -470.8 L-493.8 -470.6 L-494.8 -470.3 L-495 -471.3 L-495.3 -472.3 L-495.5 -473.3 L-495.7 -474.2 L-495.9 -475.2 L-496.2 -476.2 L-496.4 -477.1 L-496.6 -478.1 L-496.8 -479.1 L-497.1 -480 L-497.3 -481 L-497.5 -482 L-497.7 -482.9 L-498 -483.9 L-498.2 -484.9 L-498.4 -485.8 L-498.6 -486.8 L-498.9 -487.8 L-499.1 -488.8 L-499.3 -489.7 L-499.6 -490.7 L-499.8 -491.7 L-500 -492.6 L-500.2 -493.6 L-500.5 -494.6 L-499.5 -494.8 L-498.5 -495 L-497.6 -495.2 L-496.6 -495.5 L-495.6 -495.7 L-494.6 -495.9 L-493.7 -496.1 L-492.7 -496.4 L-491.7 -496.6 L-490.8 -496.8 L-489.8 -497.1 L-488.8 -497.3 L-487.9 -497.5 L-486.9 -497.7 L-485.9 -498 L-485 -498.2 L-484 -498.4 L-483 -498.6 L-482.1 -498.9 L-481.1 -499.1 L-480.1 -499.3 L-479.1 -499.5 L-478.2 -499.8 L-477.2 -500 L-476.2 -500.2 Z " />
<path stroke="rgb(0,0,0)" stroke-opacity="1" fill="rgb(255,255,255)" fill-opacity="1" d="M-199.6 -312.3 L-198.7 -312.3 L-197.7 -312.1 L-196.7 -311.9 L-195.7 -311.7 L-194.8 -311.3 L-193.9 -310.9 L-193.1 -310.4 L-192.2 -309.8 L-191.5 -309.2 L-190.8 -308.5 L-190.1 -307.8 L-189.5 -307 L-189 -306.2 L-188.5 -305.3 L-188.1 -304.4 L-187.8 -303.5 L-187.5 -302.5 L-187.3 -301.5 L-187.2 -300.5 L-187.2 -299.5 L-187.3 -298.6 L-187.4 -297.6 L-187.6 -296.6 L-187.9 -295.7 L-188.3 -294.7 L-188.8 -293.9 L-189.3 -293 L-189.8 -292.2 L-190.5 -291.4 L-191.2 -290.7 L-191.9 -290.1 L-192.7 -289.5 L-193.6 -289 L-194.4 -288.5 L-195.4 -288.2 L-196.3 -287.8 L-197.3 -287.6 L-198.3 -287.5 L-199.2 -287.4 L-200.2 -287.4 L-201.2 -287.5 L-202.2 -287.6 L-203.2 -287.9 L-204.1 -288.2 L-205 -288.6 L-205.9 -289 L-206.7 -289.6 L-207.5 -290.1 L-208.3 -290.8 L-209 -291.5 L-209.6 -292.3 L-210.2 -293.1 L-210.7 -293.9 L-211.1 -294.8 L-211.5 -295.8 L-211.8 -296.7 L-212 -297.7 L-212.1 -298.7 L-212.2 -299.6 L-212.1 -300.6 L-212 -301.6 L-211.8 -302.6 L-211.6 -303.6 L-211.3 -304.5 L-210.9 -305.4 L-210.4 -306.3 L-209.8 -307.1 L-209.2 -307.9 L-208.6 -308.6 L-207.8 -309.3 L-207.1 -309.9 L-206.2 -310.5 L-205.4 -310.9 L-204.5 -311.4 L-203.5 -311.7 L-202.6 -312 L-201.6 -312.2 L-200.6 -312.3 L-199.6 -312.3 Z " />
<path stroke="rgb(0,0,0)" stroke-opacity="1" fill="rgb(255,255,255)" fill-opacity="1" d="M-262 -483.3 L-261.5 -482.5 L-261 -481.6 L-260.5 -480.8 L-260 -479.9 L-259.5 -479 L-259 -478.2 L-258.5 -477.3 L-258 -476.5 L-257.5 -475.6 L-257 -474.7 L-256.5 -473.9 L-256 -473 L-255.5 -472.2 L-255 -471.3 L-254.5 -470.4 L-254 -469.6 L-253.5 -468.7 L-253 -467.8 L-252.5 -467 L-252 -466.1 L-251.5 -465.3 L-251 -464.4 L-250.5 -463.5 L-250 -462.7 L-249.5 -461.8 L-250.4 -461.3 L-251.3 -460.8 L-252.1 -460.3 L-253 -459.8 L-253.8 -459.3 L-254.7 -458.8 L-255.6 -458.3 L-256.4 -457.8 L-257.3 -457.3 L-258.1 -456.8 L-259 -456.3 L-259.9 -455.8 L-260.7 -455.3 L-261.6 -454.8 L-262.4 -454.3 L-263.3 -453.8 L-264.2 -453.3 L-265 -452.8 L-265.9 -452.3 L-266.7 -451.8 L-267.6 -451.3 L-268.5 -450.8 L-269.3 -450.3 L-270.2 -449.8 L-271 -449.3 L-271.5 -450.2 L-272 -451 L-272.5 -451.9 L-273 -452.8 L-273.5 -453.6 L-274 -454.5 L-274.5 -455.3 L-275 -456.2 L-275.5 -457.1 L-276 -457.9 L-276.5 -458.8 L-277 -459.6 L-277.5 -460.5 L-278 -461.4 L-278.5 -462.2 L-279 -463.1 L-279.5 -463.9 L-280 -464.8 L-280.5 -465.7 L-281 -466.5 L-281.5 -467.4 L-282 -468.2 L-282.5 -469.1 L-283 -470 L-283.5 -470.8 L-282.7 -471.3 L-281.8 -471.8 L-281 -472.3 L-280.1 -472.8 L-279.2 -473.3 L-278.4 -473.8 L-277.5 -474.3 L-276.7 -474.8 L-275.8 -475.3 L-274.9 -475.8 L-274.1 -476.3 L-273.2 -476.8 L-272.4 -477.3 L-271.5 -477.8 L-270.6 -478.3 L-269.8 -478.8 L-268.9 -479.3 L-268.1 -479.8 L-267.2 -480.3 L-266.3 -480.8 L-265.5 -481.3 L-264.6 -481.8 L-263.8 -482.3 L-262.9 -482.8 L-262 -483.3 Z " />
<path stroke="rgb(0,0,0)" stroke-opacity="1" fill="rgb(255,255,255)" fill-opacity="1" d="M0.3584 -312.3 L1.349 -312.3 L2.332 -312.1 L3.303 -311.9 L4.255 -311.7 L5.182 -311.3 L6.078 -310.9 L6.938 -310.4 L7.756 -309.8 L8.527 -309.2 L9.246 -308.5 L9.908 -307.8 L10.51 -307 L11.05 -306.2 L11.52 -305.3 L11.92 -304.4 L12.24 -303.5 L12.49 -302.5 L12.66 -301.5 L12.76 -300.5 L12.77 -299.5 L12.71 -298.6 L12.57 -297.6 L12.35 -296.6 L12.06 -295.7 L11.69 -294.7 L11.25 -293.9 L10.74 -293 L10.16 -292.2 L9.522 -291.4 L8.825 -290.7 L8.075 -290.1 L7.276 -289.5 L6.432 -289 L5.55 -288.5 L4.635 -288.2 L3.692 -287.8 L2.729 -287.6 L1.749 -287.5 L0.761 -287.4 L-0.2301 -287.4 L-1.218 -287.5 L-2.196 -287.6 L-3.158 -287.9 L-4.098 -288.2 L-5.011 -288.6 L-5.889 -289 L-6.729 -289.6 L-7.524 -290.1 L-8.269 -290.8 L-8.96 -291.5 L-9.593 -292.3 L-10.16 -293.1 L-10.67 -293.9 L-11.1 -294.8 L-11.46 -295.8 L-11.75 -296.7 L-11.96 -297.7 L-12.1 -298.7 L-12.15 -299.6 L-12.13 -300.6 L-12.03 -301.6 L-11.85 -302.6 L-11.59 -303.6 L-11.26 -304.5 L-10.85 -305.4 L-10.38 -306.3 L-9.832 -307.1 L-9.225 -307.9 L-8.557 -308.6 L-7.833 -309.3 L-7.057 -309.9 L-6.235 -310.5 L-5.372 -310.9 L-4.473 -311.4 L-3.543 -311.7 L-2.589 -312 L-1.617 -312.2 L-0.6321 -312.3 L0.3584 -312.3 Z " />
<path stroke="rgb(0,0,0)" stroke-opacity="1" fill="rgb(255,255,255)" fill-opacity="1" d="M-41.42 -455.3 L-40.6 -454.8 L-39.78 -454.2 L-38.96 -453.6 L-38.14 -453.1 L-37.32 -452.5 L-36.49 -452 L-35.67 -451.4 L-34.85 -450.8 L-34.03 -450.3 L-33.21 -449.7 L-32.39 -449.2 L-31.56 -448.6 L-30.74 -448 L-29.92 -447.5 L-29.1 -446.9 L-28.28 -446.3 L-27.46 -445.8 L-26.63 -445.2 L-25.81 -444.7 L-24.99 -444.1 L-24.17 -443.5 L-23.35 -443 L-22.53 -442.4 L-21.7 -441.8 L-20.88 -441.3 L-21.44 -440.5 L-22.01 -439.6 L-22.57 -438.8 L-23.13 -438 L-23.69 -437.2 L-24.25 -436.4 L-24.81 -435.5 L-25.38 -434.7 L-25.94 -433.9 L-26.5 -433.1 L-27.06 -432.2 L-27.62 -431.4 L-28.19 -430.6 L-28.75 -429.8 L-29.31 -429 L-29.87 -428.1 L-30.43 -427.3 L-30.99 -426.5 L-31.56 -425.7 L-32.12 -424.9 L-32.68 -424 L-33.24 -423.2 L-33.8 -422.4 L-34.37 -421.6 L-34.93 -420.7 L-35.75 -421.3 L-36.57 -421.9 L-37.39 -422.4 L-38.21 -423 L-39.04 -423.6 L-39.86 -424.1 L-40.68 -424.7 L-41.5 -425.2 L-42.32 -425.8 L-43.14 -426.4 L-43.97 -426.9 L-44.79 -427.5 L-45.61 -428 L-46.43 -428.6 L-47.25 -429.2 L-48.07 -429.7 L-48.9 -430.3 L-49.72 -430.9 L-50.54 -431.4 L-51.36 -432 L-52.18 -432.5 L-53 -433.1 L-53.83 -433.7 L-54.65 -434.2 L-55.47 -434.8 L-54.91 -435.6 L-54.35 -436.4 L-53.78 -437.3 L-53.22 -438.1 L-52.66 -438.9 L-52.1 -439.7 L-51.54 -440.5 L-50.97 -441.4 L-50.41 -442.2 L-49.85 -443 L-49.29 -443.8 L-48.73 -444.6 L-48.17 -445.5 L-47.6 -446.3 L-47.04 -447.1 L-46.48 -447.9 L-45.92 -448.8 L-45.36 -449.6 L-44.79 -450.4 L-44.23 -451.2 L-43.67 -452 L-43.11 -452.9 L-42.55 -453.7 L-41.99 -454.5 L-41.42 -455.3 Z " />
<path stroke="rgb(0,0,0)" stroke-opacity="1" fill="rgb(255,255,255)" fill-opacity="1" d="M200.4 -312.3 L201.3 -312.3 L202.3 -312.1 L203.3 -311.9 L204.3 -311.7 L205.2 -311.3 L206.1 -310.9 L206.9 -310.4 L207.8 -309.8 L208.5 -309.2 L209.2 -308.5 L209.9 -307.8 L210.5 -307 L211 -306.2 L211.5 -305.3 L211.9 -304.4 L212.2 -303.5 L212.5 -302.5 L212.7 -301.5 L212.8 -300.5 L212.8 -299.5 L212.7 -298.6 L212.6 -297.6 L212.4 -296.6 L212.1 -295.7 L211.7 -294.7 L211.2 -293.9 L210.7 -293 L210.2 -292.2 L209.5 -291.4 L208.8 -290.7 L208.1 -290.1 L207.3 -289.5 L206.4 -289 L205.6 -288.5 L204.6 -288.2 L203.7 -287.8 L202.7 -287.6 L201.7 -287.5 L200.8 -287.4 L199.8 -287.4 L198.8 -287.5 L197.8 -287.6 L196.8 -287.9 L195.9 -288.2 L195 -288.6 L194.1 -289 L193.3 -289.6 L192.5 -290.1 L191.7 -290.8 L191 -291.5 L190.4 -292.3 L189.8 -293.1 L189.3 -293.9 L188.9 -294.8 L188.5 -295.8 L188.2 -296.7 L188 -297.7 L187.9 -298.7 L187.8 -299.6 L187.9 -300.6 L188 -301.6 L188.2 -302.6 L188.4 -303.6 L188.7 -304.5 L189.1 -305.4 L189.6 -306.3 L190.2 -307.1 L190.8 -307.9 L191.4 -308.6 L192.2 -309.3 L192.9 -309.9 L193.8 -310.5 L194.6 -310.9 L195.5 -311.4 L196.5 -311.7 L197.4 -312 L198.4 -312.2 L199.4 -312.3 L200.4 -312.3 Z " />
<path stroke="rgb(0,0,0)" stroke-opacity="1" fill="rgb(255,255,255)" fill-opacity="1" d="M174 -432.7 L174.9 -432.5 L175.9 -432.2 L176.8 -431.9 L177.8 -431.6 L178.8 -431.4 L179.7 -431.1 L180.7 -430.8 L181.6 -430.6 L182.6 -430.3 L183.5 -430 L184.5 -429.8 L185.5 -429.5 L186.4 -429.2 L187.4 -428.9 L188.3 -428.7 L189.3 -428.4 L190.3 -428.1 L191.2 -427.9 L192.2 -427.6 L193.1 -427.3 L194.1 -427.1 L195 -426.8 L196 -426.5 L197 -426.2 L197.9 -426 L197.6 -425 L197.4 -424.1 L197.1 -423.1 L196.8 -422.1 L196.6 -421.2 L196.3 -420.2 L196 -419.3 L195.8 -418.3 L195.5 -417.3 L195.2 -416.4 L194.9 -415.4 L194.7 -414.5 L194.4 -413.5 L194.1 -412.6 L193.9 -411.6 L193.6 -410.6 L193.3 -409.7 L193.1 -408.7 L192.8 -407.8 L192.5 -406.8 L192.2 -405.8 L192 -404.9 L191.7 -403.9 L191.4 -403 L191.2 -402 L190.2 -402.3 L189.2 -402.6 L188.3 -402.8 L187.3 -403.1 L186.4 -403.4 L185.4 -403.6 L184.5 -403.9 L183.5 -404.2 L182.5 -404.4 L181.6 -404.7 L180.6 -405 L179.7 -405.3 L178.7 -405.5 L177.7 -405.8 L176.8 -406.1 L175.8 -406.3 L174.9 -406.6 L173.9 -406.9 L173 -407.2 L172 -407.4 L171 -407.7 L170.1 -408 L169.1 -408.2 L168.2 -408.5 L167.2 -408.8 L167.5 -409.7 L167.7 -410.7 L168 -411.6 L168.3 -412.6 L168.6 -413.6 L168.8 -414.5 L169.1 -415.5 L169.4 -416.4 L169.6 -417.4 L169.9 -418.4 L170.2 -419.3 L170.4 -420.3 L170.7 -421.2 L171 -422.2 L171.3 -423.1 L171.5 -424.1 L171.8 -425.1 L172.1 -426 L172.3 -427 L172.6 -427.9 L172.9 -428.9 L173.1 -429.9 L173.4 -430.8 L173.7 -431.8 L174 -432.7 Z " />
<path stroke="rgb(0,0,0)" stroke-opacity="1" fill="rgb(255,255,255)" fill-opacity="1" d="M-299.6 -212.3 L-298.7 -212.3 L-297.7 -212.1 L-296.7 -211.9 L-295.7 -211.7 L-294.8 -211.3 L-293.9 -210.9 L-293.1 -210.4 L-292.2 -209.8 L-291.5 -209.2 L-290.8 -208.5 L-290.1 -207.8 L-289.5 -207 L-289 -206.2 L-288.5 -205.3 L-288.1 -204.4 L-287.8 -203.5 L-287.5 -202.5 L-287.3 -201.5 L-287.2 -200.5 L-287.2 -199.5 L-287.3 -198.6 L-287.4 -197.6 L-287.6 -196.6 L-287.9 -195.7 L-288.3 -194.7 L-288.8 -193.9 L-289.3 -193 L-289.8 -192.2 L-290.5 -191.4 L-291.2 -190.7 L-291.9 -190.1 L-292.7 -189.5 L-293.6 -189 L-294.4 -188.5 L-295.4 -188.2 L-296.3 -187.8 L-297.3 -187.6 L-298.3 -187.5 L-299.2 -187.4 L-300.2 -187.4 L-301.2 -187.5 L-302.2 -187.6 L-303.2 -187.9 L-304.1 -188.2 L-305 -188.6 L-305.9 -189 L-306.7 -189.6 L-307.5 -190.1 L-308.3 -190.8 L-309 -191.5 L-309.6 -192.3 L-310.2 -193.1 L-310.7 -193.9 L-311.1 -194.8 L-311.5 -195.8 L-311.8 -196.7 L-312 -197.7 L-312.1 -198.7 L-312.2 -199.6 L-312.1 -200.6 L-312 -201.6 L-311.8 -202.6 L-311.6 -203.6 L-311.3 -204.5 L-310.9 -205.4 L-310.4 -206.3 L-309.8 -207.1 L-309.2 -207.9 L-308.6 -208.6 L-307.8 -209.3 L-307.1 -209.9 L-306.2 -210.5 L-305.4 -210.9 L-304.5 -211.4 L-303.5 -211.7 L-302.6 -212 L-301.6 -212.2 L-300.6 -212.3 L-299.6 -212.3 Z " />
<path stroke="rgb(0,0,0)" stroke-opacity="1" fill="rgb(255,255,255)" fill-opacity="1" d="M-362 -383.3 L-361.5 -382.5 L-361 -381.6 L-360.5 -380.8 L-360 -379.9 L-359.5 -379 L-359 -378.2 L-358.5 -377.3 L-358 -376.5 L-357.5 -375.6 L-357 -374.7 L-356.5 -373.9 L-356 -373 L-355.5 -372.2 L-355 -371.3 L-354.5 -370.4 L-354 -369.6 L-353.5 -368.7 L-353 -367.8 L-352.5 -367 L-352 -366.1 L-351.5 -365.3 L-351 -364.4 L-350.5 -363.5 L-350 -362.7 L-349.5 -361.8 L-350.4 -361.3 L-351.3 -360.8 L-352.1 -360.3 L-353 -359.8 L-353.8 -359.3 L-354.7 -358.8 L-355.6 -358.3 L-356.4 -357.8 L-357.3 -357.3 L-358.1 -356.8 L-359 -356.3 L-359.9 -355.8 L-360.7 -355.3 L-361.6 -354.8 L-362.4 -354.3 L-363.3 -353.8 L-364.2 -353.3 L-365 -352.8 L-365.9 -352.3 L-366.7 -351.8 L-367.6 -351.3 L-368.5 -350.8 L-369.3 -350.3 L-370.2 -349.8 L-371 -349.3 L-371.5 -350.2 L-372 -351 L-372.5 -351.9 L-373 -352.8 L-373.5 -353.6 L-374 -354.5 L-374.5 -355.3 L-375 -356.2 L-375.5 -357.1 L-376 -357.9 L-376.5 -358.8 L-377 -359.6 L-377.5 -360.5 L-378 -361.4 L-378.5 -362.2 L-379 -363.1 L-379.5 -363.9 L-380 -364.8 L-380.5 -365.7 L-381 -366.5 L-381.5 -367.4 L-382 -368.2 L-382.5 -369.1 L-383 -370 L-383.5 -370.8 L-382.7 -371.3 L-381.8 -371.8 L-381 -372.3 L-380.1 -372.8 L-379.2 -373.3 L-378.4 -373.8 L-377.5 -374.3 L-376.7 -374.8 L-375.8 -375.3 L-374.9 -375.8 L-374.1 -376.3 L-373.2 -376.8 L-372.4 -377.3 L-371.5 -377.8 L-370.6 -378.3 L-369.8 -378.8 L-368.9 -379.3 L-368.1 -379.8 L-367.2 -380.3 L-366.3 -380.8 L-365.5 -381.3 L-364.6 -381.8 L-363.8 -382.3 L-362.9 -382.8 L-362 -383.3 Z " />
<path stroke="rgb(0,0,0)" stroke-opacity="1" fill="rgb(255,255,255)" fill-opacity="1" d="M-99.64 -212.3 L-98.65 -212.3 L-97.67 -212.1 L-96.7 -211.9 L-95.74 -211.7 L-94.82 -211.3 L-93.92 -210.9 L-93.06 -210.4 L-92.24 -209.8 L-91.47 -209.2 L-90.75 -208.5 L-90.09 -207.8 L-89.49 -207 L-88.95 -206.2 L-88.48 -205.3 L-88.08 -204.4 L-87.76 -203.5 L-87.51 -202.5 L-87.34 -201.5 L-87.24 -200.5 L-87.23 -199.5 L-87.29 -198.6 L-87.43 -197.6 L-87.65 -196.6 L-87.94 -195.7 L-88.31 -194.7 L-88.75 -193.9 L-89.26 -193 L-89.84 -192.2 L-90.48 -191.4 L-91.17 -190.7 L-91.92 -190.1 L-92.72 -189.5 L-93.57 -189 L-94.45 -188.5 L-95.37 -188.2 L-96.31 -187.8 L-97.27 -187.6 L-98.25 -187.5 L-99.24 -187.4 L-100.2 -187.4 L-101.2 -187.5 L-102.2 -187.6 L-103.2 -187.9 L-104.1 -188.2 L-105 -188.6 L-105.9 -189 L-106.7 -189.6 L-107.5 -190.1 L-108.3 -190.8 L-109 -191.5 L-109.6 -192.3 L-110.2 -193.1 L-110.7 -193.9 L-111.1 -194.8 L-111.5 -195.8 L-111.8 -196.7 L-112 -197.7 L-112.1 -198.7 L-112.2 -199.6 L-112.1 -200.6 L-112 -201.6 L-111.8 -202.6 L-111.6 -203.6 L-111.3 -204.5 L-110.9 -205.4 L-110.4 -206.3 L-109.8 -207.1 L-109.2 -207.9 L-108.6 -208.6 L-107.8 -209.3 L-107.1 -209.9 L-106.2 -210.5 L-105.4 -210.9 L-104.5 -211.4 L-103.5 -211.7 L-102.6 -212 L-101.6 -212.2 L-100.6 -212.3 L-99.64 -212.3 Z " />
<path stroke="rgb(0,0,0)" stroke-opacity="1" fill="rgb(255,255,255)" fill-opacity="1" d="M-141.4 -355.3 L-140.6 -354.8 L-139.8 -354.2 L-139 -353.6 L-138.1 -353.1 L-137.3 -352.5 L-136.5 -352 L-135.7 -351.4 L-134.9 -350.8 L-134 -350.3 L-133.2 -349.7 L-132.4 -349.2 L-131.6 -348.6 L-130.7 -348 L-129.9 -347.5 L-129.1 -346.9 L-128.3 -346.3 L-127.5 -345.8 L-126.6 -345.2 L-125.8 -344.7 L-125 -344.1 L-124.2 -343.5 L-123.3 -343 L-122.5 -342.4 L-121.7 -341.8 L-120.9 -341.3 L-121.4 -340.5 L-122 -339.6 L-122.6 -338.8 L-123.1 -338 L-123.7 -337.2 L-124.3 -336.4 L-124.8 -335.5 L-125.4 -334.7 L-125.9 -333.9 L-126.5 -333.1 L-127.1 -332.2 L-127.6 -331.4 L-128.2 -330.6 L-128.7 -329.8 L-129.3 -329 L-129.9 -328.1 L-130.4 -327.3 L-131 -326.5 L-131.6 -325.7 L-132.1 -324.9 L-132.7 -324 L-133.2 -323.2 L-133.8 -322.4 L-134.4 -321.6 L-134.9 -320.7 L-135.7 -321.3 L-136.6 -321.9 L-137.4 -322.4 L-138.2 -323 L-139 -323.6 L-139.9 -324.1 L-140.7 -324.7 L-141.5 -325.2 L-142.3 -325.8 L-143.1 -326.4 L-144 -326.9 L-144.8 -327.5 L-145.6 -328 L-146.4 -328.6 L-147.3 -329.2 L-148.1 -329.7 L-148.9 -330.3 L-149.7 -330.9 L-150.5 -331.4 L-151.4 -332 L-152.2 -332.5 L-153 -333.1 L-153.8 -333.7 L-154.6 -334.2 L-155.5 -334.8 L-154.9 -335.6 L-154.3 -336.4 L-153.8 -337.3 L-153.2 -338.1 L-152.7 -338.9 L-152.1 -339.7 L-151.5 -340.5 L-151 -341.4 L-150.4 -342.2 L-149.9 -343 L-149.3 -343.8 L-148.7 -344.6 L-148.2 -345.5 L-147.6 -346.3 L-147 -347.1 L-146.5 -347.9 L-145.9 -348.8 L-145.4 -349.6 L-144.8 -350.4 L-144.2 -351.2 L-143.7 -352 L-143.1 -352.9 L-142.5 -353.7 L-142 -354.5 L-141.4 -355.3 Z " />
<path stroke="rgb(0,0,0)" stroke-opacity="1" fill="rgb(255,255,255)" fill-opacity="1" d="M100.4 -212.3 L101.3 -212.3 L102.3 -212.1 L103.3 -211.9 L104.3 -211.7 L105.2 -211.3 L106.1 -210.9 L106.9 -210.4 L107.8 -209.8 L108.5 -209.2 L109.2 -208.5 L109.9 -207.8 L110.5 -207 L111 -206.2 L111.5 -205.3 L111.9 -204.4 L112.2 -203.5 L112.5 -202.5 L112.7 -201.5 L112.8 -200.5 L112.8 -199.5 L112.7 -198.6 L112.6 -197.6 L112.4 -196.6 L112.1 -195.7 L111.7 -194.7 L111.2 -193.9 L110.7 -193 L110.2 -192.2 L109.5 -191.4 L108.8 -190.7 L108.1 -190.1 L107.3 -189.5 L106.4 -189 L105.6 -188.5 L104.6 -188.2 L103.7 -187.8 L102.7 -187.6 L101.7 -187.5 L100.8 -187.4 L99.77 -187.4 L98.78 -187.5 L97.8 -187.6 L96.84 -187.9 L95.9 -188.2 L94.99 -188.6 L94.11 -189 L93.27 -189.6 L92.48 -190.1 L91.73 -190.8 L91.04 -191.5 L90.41 -192.3 L89.84 -193.1 L89.33 -193.9 L88.9 -194.8 L88.54 -195.8 L88.25 -196.7 L88.04 -197.7 L87.9 -198.7 L87.85 -199.6 L87.87 -200.6 L87.97 -201.6 L88.15 -202.6 L88.41 -203.6 L88.74 -204.5 L89.15 -205.4 L89.62 -206.3 L90.17 -207.1 L90.78 -207.9 L91.44 -208.6 L92.17 -209.3 L92.94 -209.9 L93.76 -210.5 L94.63 -210.9 L95.53 -211.4 L96.46 -211.7 L97.41 -212 L98.38 -212.2 L99.37 -212.3 L100.4 -212.3 Z " />
<path stroke="rgb(0,0,0)" stroke-opacity="1" fill="rgb(255,255,255)" fill-opacity="1" d="M73.96 -332.7 L74.92 -332.5 L75.88 -332.2 L76.83 -331.9 L77.79 -331.6 L78.75 -331.4 L79.71 -331.1 L80.67 -330.8 L81.63 -330.6 L82.58 -330.3 L83.54 -330 L84.5 -329.8 L85.46 -329.5 L86.42 -329.2 L87.38 -328.9 L88.33 -328.7 L89.29 -328.4 L90.25 -328.1 L91.21 -327.9 L92.17 -327.6 L93.13 -327.3 L94.08 -327.1 L95.04 -326.8 L96 -326.5 L96.96 -326.2 L97.92 -326 L97.65 -325 L97.38 -324.1 L97.11 -323.1 L96.84 -322.1 L96.57 -321.2 L96.3 -320.2 L96.02 -319.3 L95.75 -318.3 L95.48 -317.3 L95.21 -316.4 L94.94 -315.4 L94.67 -314.5 L94.4 -313.5 L94.13 -312.6 L93.86 -311.6 L93.59 -310.6 L93.32 -309.7 L93.05 -308.7 L92.78 -307.8 L92.51 -306.8 L92.24 -305.8 L91.97 -304.9 L91.7 -303.9 L91.43 -303 L91.16 -302 L90.2 -302.3 L89.24 -302.6 L88.29 -302.8 L87.33 -303.1 L86.37 -303.4 L85.41 -303.6 L84.45 -303.9 L83.5 -304.2 L82.54 -304.4 L81.58 -304.7 L80.62 -305 L79.66 -305.3 L78.7 -305.5 L77.75 -305.8 L76.79 -306.1 L75.83 -306.3 L74.87 -306.6 L73.91 -306.9 L72.95 -307.2 L72 -307.4 L71.04 -307.7 L70.08 -308 L69.12 -308.2 L68.16 -308.5 L67.2 -308.8 L67.47 -309.7 L67.75 -310.7 L68.02 -311.6 L68.29 -312.6 L68.56 -313.6 L68.83 -314.5 L69.1 -315.5 L69.37 -316.4 L69.64 -317.4 L69.91 -318.4 L70.18 -319.3 L70.45 -320.3 L70.72 -321.2 L70.99 -322.2 L71.26 -323.1 L71.53 -324.1 L71.8 -325.1 L72.07 -326 L72.34 -327 L72.61 -327.9 L72.88 -328.9 L73.15 -329.9 L73.42 -330.8 L73.69 -331.8 L73.96 -332.7 Z " />
<path stroke="rgb(0,0,0)" stroke-opacity="1" fill="rgb(255,255,255)" fill-opacity="1" d="M300.4 -212.3 L301.3 -212.3 L302.3 -212.1 L303.3 -211.9 L304.3 -211.7 L305.2 -211.3 L306.1 -210.9 L306.9 -210.4 L307.8 -209.8 L308.5 -209.2 L309.2 -208.5 L309.9 -207.8 L310.5 -207 L311 -206.2 L311.5 -205.3 L311.9 -204.4 L312.2 -203.5 L312.5 -202.5 L312.7 -201.5 L312.8 -200.5 L312.8 -199.5 L312.7 -198.6 L312.6 -197.6 L312.4 -196.6 L312.1 -195.7 L311.7 -194.7 L311.2 -193.9 L310.7 -193 L310.2 -192.2 L309.5 -191.4 L308.8 -190.7 L308.1 -190.1 L307.3 -189.5 L306.4 -189 L305.6 -188.5 L304.6 -188.2 L303.7 -187.8 L302.7 -187.6 L301.7 -187.5 L300.8 -187.4 L299.8 -187.4 L298.8 -187.5 L297.8 -187.6 L296.8 -187.9 L295.9 -188.2 L295 -188.6 L294.1 -189 L293.3 -189.6 L292.5 -190.1 L291.7 -190.8 L291 -191.5 L290.4 -192.3 L289.8 -193.1 L289.3 -193.9 L288.9 -194.8 L288.5 -195.8 L288.2 -196.7 L288 -197.7 L287.9 -198.7 L287.8 -199.6 L287.9 -200.6 L288 -201.6 L288.2 -202.6 L288.4 -203.6 L288.7 -204.5 L289.1 -205.4 L289.6 -206.3 L290.2 -207.1 L290.8 -207.9 L291.4 -208.6 L292.2 -209.3 L292.9 -209.9 L293.8 -210.5 L294.6 -210.9 L295.5 -211.4 L296.5 -211.7 L297.4 -212 L298.4 -212.2 L299.4 -212.3 L300.4 -212.3 Z " />
<path stroke="rgb(0,0,0)" stroke-opacity="1" fill="rgb(255,255,255)" fill-opacity="1" d="M-462 -283.3 L-461.5 -282.5 L-461 -281.6 L-460.5 -280.8 L-460 -279.9 L-459.5 -279 L-459 -278.2 L-458.5 -277.3 L-458 -276.5 L-457.5 -275.6 L-457 -274.7 L-456.5 -273.9 L-456 -273 L-455.5 -272.2 L-455 -271.3 L-454.5 -270.4 L-454 -269.6 L-453.5 -268.7 L-453 -267.8 L-452.5 -267 L-452 -266.1 L-451.5 -265.3 L-451 -264.4 L-450.5 -263.5 L-450 -262.7 L-449.5 -261.8 L-450.4 -261.3 L-451.3 -260.8 L-452.1 -260.3 L-453 -259.8 L-453.8 -259.3 L-454.7 -258.8 L-455.6 -258.3 L-456.4 -257.8 L-457.3 -257.3 L-458.1 -256.8 L-459 -256.3 L-459.9 -255.8 L-460.7 -255.3 L-461.6 -254.8 L-462.4 -254.3 L-463.3 -253.8 L-464.2 -253.3 L-465 -252.8 L-465.9 -252.3 L-466.7 -251.8 L-467.6 -251.3 L-468.5 -250.8 L-469.3 -250.3 L-470.2 -249.8 L-471 -249.3 L-471.5 -250.2 L-472 -251 L-472.5 -251.9 L-473 -252.8 L-473.5 -253.6 L-474 -254.5 L-474.5 -255.3 L-475 -256.2 L-475.5 -257.1 L-476 -257.9 L-476.5 -258.8 L-477 -259.6 L-477.5 -260.5 L-478 -261.4 L-478.5 -262.2 L-479 -263.1 L-479.5 -263.9 L-480 -264.8 L-480.5 -265.7 L-481 -266.5 L-481.5 -267.4 L-482 -268.2 L-482.5 -269.1 L-483 -270 L-483.5 -270.8 L-482.7 -271.3 L-481.8 -271.8 L-481 -272.3 L-480.1 -272.8 L-479.2 -273.3 L-478.4 -273.8 L-477.5 -274.3 L-476.7 -274.8 L-475.8 -275.3 L-474.9 -275.8 L-474.1 -276.3 L-473.2 -276.8 L-472.4 -277.3 L-471.5 -277.8 L-470.6 -278.3 L-469.8 -278.8 L-468.9 -279.3 L-468.1 -279.8 L-467.2 -280.3 L-466.3 -280.8 L-465.5 -281.3 L-464.6 -281.8 L-463.8 -282.3 L-462.9 -282.8 L-462 -283.3 Z " />
<path stroke="rgb(0,0,0)" stroke-opacity="1" fill="rgb(255,255,255)" fill-opacity="1" d="M-199.6 -112.3 L-198.7 -112.3 L-197.7 -112.1 L-196.7 -111.9 L-195.7 -111.7 L-194.8 -111.3 L-193.9 -110.9 L-193.1 -110.4 L-192.2 -109.8 L-191.5 -109.2 L-190.8 -108.5 L-190.1 -107.8 L-189.5 -107 L-189 -106.2 L-188.5 -105.3 L-188.1 -104.4 L-187.8 -103.5 L-187.5 -102.5 L-187.3 -101.5 L-187.2 -100.5 L-187.2 -99.55 L-187.3 -98.56 L-187.4 -97.58 L-187.6 -96.61 L-187.9 -95.67 L-188.3 -94.75 L-188.8 -93.86 L-189.3 -93.01 L-189.8 -92.2 L-190.5 -91.44 L-191.2 -90.74 L-191.9 -90.09 L-192.7 -89.51 L-193.6 -88.99 L-194.4 -88.53 L-195.4 -88.15 L-196.3 -87.85 L-197.3 -87.62 L-198.3 -87.46 L-199.2 -87.39 L-200.2 -87.39 L-201.2 -87.47 L-202.2 -87.63 L-203.2 -87.87 L-204.1 -88.19 L-205 -88.57 L-205.9 -89.03 L-206.7 -89.56 L-207.5 -90.15 L-208.3 -90.8 L-209 -91.51 L-209.6 -92.28 L-210.2 -93.09 L-210.7 -93.94 L-211.1 -94.83 L-211.5 -95.75 L-211.8 -96.7 L-212 -97.67 L-212.1 -98.65 L-212.2 -99.64 L-212.1 -100.6 L-212 -101.6 L-211.8 -102.6 L-211.6 -103.6 L-211.3 -104.5 L-210.9 -105.4 L-210.4 -106.3 L-209.8 -107.1 L-209.2 -107.9 L-208.6 -108.6 L-207.8 -109.3 L-207.1 -109.9 L-206.2 -110.5 L-205.4 -110.9 L-204.5 -111.4 L-203.5 -111.7 L-202.6 -112 L-201.6 -112.2 L-200.6 -112.3 L-199.6 -112.3 Z " />
<path stroke="rgb(0,0,0)" stroke-opacity="1" fill="rgb(255,255,255)" fill-opacity="1" d="M-241.4 -255.3 L-240.6 -254.8 L-239.8 -254.2 L-239 -253.6 L-238.1 -253.1 L-237.3 -252.5 L-236.5 -252 L-235.7 -251.4 L-234.9 -250.8 L-234 -250.3 L-233.2 -249.7 L-232.4 -249.2 L-231.6 -248.6 L-230.7 -248 L-229.9 -247.5 L-229.1 -246.9 L-228.3 -246.3 L-227.5 -245.8 L-226.6 -245.2 L-225.8 -244.7 L-225 -244.1 L-224.2 -243.5 L-223.3 -243 L-222.5 -242.4 L-221.7 -241.8 L-220.9 -241.3 L-221.4 -240.5 L-222 -239.6 L-222.6 -238.8 L-223.1 -238 L-223.7 -237.2 L-224.3 -236.4 L-224.8 -235.5 L-225.4 -234.7 L-225.9 -233.9 L-226.5 -233.1 L-227.1 -232.2 L-227.6 -231.4 L-228.2 -230.6 L-228.7 -229.8 L-229.3 -229 L-229.9 -228.1 L-230.4 -227.3 L-231 -226.5 L-231.6 -225.7 L-232.1 -224.9 L-232.7 -224 L-233.2 -223.2 L-233.8 -222.4 L-234.4 -221.6 L-234.9 -220.7 L-235.7 -221.3 L-236.6 -221.9 L-237.4 -222.4 L-238.2 -223 L-239 -223.6 L-239.9 -224.1 L-240.7 -224.7 L-241.5 -225.2 L-242.3 -225.8 L-243.1 -226.4 L-244 -226.9 L-244.8 -227.5 L-245.6 -228 L-246.4 -228.6 L-247.3 -229.2 L-248.1 -229.7 L-248.9 -230.3 L-249.7 -230.9 L-250.5 -231.4 L-251.4 -232 L-252.2 -232.5 L-253 -233.1 L-253.8 -233.7 L-254.6 -234.2 L-255.5 -234.8 L-254.9 -235.6 L-254.3 -236.4 L-253.8 -237.3 L-253.2 -238.1 L-252.7 -238.9 L-252.1 -239.7 L-251.5 -240.5 L-251 -241.4 L-250.4 -242.2 L-249.9 -243 L-249.3 -243.8 L-248.7 -244.6 L-248.2 -245.5 L-247.6 -246.3 L-247 -247.1 L-246.5 -247.9 L-245.9 -248.8 L-245.4 -249.6 L-244.8 -250.4 L-244.2 -251.2 L-243.7 -252 L-243.1 -252.9 L-242.5 -253.7 L-242 -254.5 L-241.4 -255.3 Z " />
<path stroke="rgb(0,0,0)" stroke-opacity="1" fill="rgb(255,255,255)" fill-opacity="1" d="M0.3584 -112.3 L1.349 -112.3 L2.332 -112.1 L3.303 -111.9 L4.255 -111.7 L5.182 -111.3 L6.078 -110.9 L6.938 -110.4 L7.756 -109.8 L8.527 -109.2 L9.246 -108.5 L9.908 -107.8 L10.51 -107 L11.05 -106.2 L11.52 -105.3 L11.92 -104.4 L12.24 -103.5 L12.49 -102.5 L12.66 -101.5 L12.76 -100.5 L12.77 -99.55 L12.71 -98.56 L12.57 -97.58 L12.35 -96.61 L12.06 -95.67 L11.69 -94.75 L11.25 -93.86 L10.74 -93.01 L10.16 -92.2 L9.522 -91.44 L8.825 -90.74 L8.075 -90.09 L7.276 -89.51 L6.432 -88.99 L5.55 -88.53 L4.635 -88.15 L3.692 -87.85 L2.729 -87.62 L1.749 -87.46 L0.761 -87.39 L-0.2301 -87.39 L-1.218 -87.47 L-2.196 -87.63 L-3.158 -87.87 L-4.098 -88.19 L-5.011 -88.57 L-5.889 -89.03 L-6.729 -89.56 L-7.524 -90.15 L-8.269 -90.8 L-8.96 -91.51 L-9.593 -92.28 L-10.16 -93.09 L-10.67 -93.94 L-11.1 -94.83 L-11.46 -95.75 L-11.75 -96.7 L-11.96 -97.67 L-12.1 -98.65 L-12.15 -99.64 L-12.13 -100.6 L-12.03 -101.6 L-11.85 -102.6 L-11.59 -103.6 L-11.26 -104.5 L-10.85 -105.4 L-10.38 -106.3 L-9.832 -107.1 L-9.225 -107.9 L-8.557 -108.6 L-7.833 -109.3 L-7.057 -109.9 L-6.235 -110.5 L-5.372 -110.9 L-4.473 -111.4 L-3.543 -111.7 L-2.589 -112 L-1.617 -112.2 L-0.6321 -112.3 L0.3584 -112.3 Z " />
<path stroke="rgb(0,0,0)" stroke-opacity="1" fill="rgb(255,255,255)" fill-opacity="1" d="M-26.04 -232.7 L-25.08 -232.5 L-24.12 -232.2 L-23.17 -231.9 L-22.21 -231.6 L-21.25 -231.4 L-20.29 -231.1 L-19.33 -230.8 L-18.37 -230.6 L-17.42 -230.3 L-16.46 -230 L-15.5 -229.8 L-14.54 -229.5 L-13.58 -229.2 L-12.62 -228.9 L-11.67 -228.7 L-10.71 -228.4 L-9.75 -228.1 L-8.791 -227.9 L-7.833 -227.6 L-6.875 -227.3 L-5.917 -227.1 L-4.958 -226.8 L-4 -226.5 L-3.042 -226.2 L-2.084 -226 L-2.354 -225 L-2.624 -224.1 L-2.894 -223.1 L-3.164 -222.1 L-3.435 -221.2 L-3.705 -220.2 L-3.975 -219.3 L-4.245 -218.3 L-4.515 -217.3 L-4.786 -216.4 L-5.056 -215.4 L-5.326 -214.5 L-5.596 -213.5 L-5.866 -212.6 L-6.137 -211.6 L-6.407 -210.6 L-6.677 -209.7 L-6.947 -208.7 L-7.218 -207.8 L-7.488 -206.8 L-7.758 -205.8 L-8.028 -204.9 L-8.298 -203.9 L-8.569 -203 L-8.839 -202 L-9.797 -202.3 L-10.76 -202.6 L-11.71 -202.8 L-12.67 -203.1 L-13.63 -203.4 L-14.59 -203.6 L-15.55 -203.9 L-16.5 -204.2 L-17.46 -204.4 L-18.42 -204.7 L-19.38 -205 L-20.34 -205.3 L-21.3 -205.5 L-22.25 -205.8 L-23.21 -206.1 L-24.17 -206.3 L-25.13 -206.6 L-26.09 -206.9 L-27.05 -207.2 L-28 -207.4 L-28.96 -207.7 L-29.92 -208 L-30.88 -208.2 L-31.84 -208.5 L-32.8 -208.8 L-32.53 -209.7 L-32.25 -210.7 L-31.98 -211.6 L-31.71 -212.6 L-31.44 -213.6 L-31.17 -214.5 L-30.9 -215.5 L-30.63 -216.4 L-30.36 -217.4 L-30.09 -218.4 L-29.82 -219.3 L-29.55 -220.3 L-29.28 -221.2 L-29.01 -222.2 L-28.74 -223.1 L-28.47 -224.1 L-28.2 -225.1 L-27.93 -226 L-27.66 -227 L-27.39 -227.9 L-27.12 -228.9 L-26.85 -229.9 L-26.58 -230.8 L-26.31 -231.8 L-26.04 -232.7 Z " />
<path stroke="rgb(0,0,0)" stroke-opacity="1" fill="rgb(255,255,255)" fill-opacity="1" d="M200.4 -112.3 L201.3 -112.3 L202.3 -112.1 L203.3 -111.9 L204.3 -111.7 L205.2 -111.3 L206.1 -110.9 L206.9 -110.4 L207.8 -109.8 L208.5 -109.2 L209.2 -108.5 L209.9 -107.8 L210.5 -107 L211 -106.2 L211.5 -105.3 L211.9 -104.4 L212.2 -103.5 L212.5 -102.5 L212.7 -101.5 L212.8 -100.5 L212.8 -99.55 L212.7 -98.56 L212.6 -97.58 L212.4 -96.61 L212.1 -95.67 L211.7 -94.75 L211.2 -93.86 L210.7 -93.01 L210.2 -92.2 L209.5 -91.44 L208.8 -90.74 L208.1 -90.09 L207.3 -89.51 L206.4 -88.99 L205.6 -88.53 L204.6 -88.15 L203.7 -87.85 L202.7 -87.62 L201.7 -87.46 L200.8 -87.39 L199.8 -87.39 L198.8 -87.47 L197.8 -87.63 L196.8 -87.87 L195.9 -88.19 L195 -88.57 L194.1 -89.03 L193.3 -89.56 L192.5 -90.15 L191.7 -90.8 L191 -91.51 L190.4 -92.28 L189.8 -93.09 L189.3 -93.94 L188.9 -94.83 L188.5 -95.75 L188.2 -96.7 L188 -97.67 L187.9 -98.65 L187.8 -99.64 L187.9 -100.6 L188 -101.6 L188.2 -102.6 L188.4 -103.6 L188.7 -104.5 L189.1 -105.4 L189.6 -106.3 L190.2 -107.1 L190.8 -107.9 L191.4 -108.6 L192.2 -109.3 L192.9 -109.9 L193.8 -110.5 L194.6 -110.9 L195.5 -111.4 L196.5 -111.7 L197.4 -112 L198.4 -112.2 L199.4 -112.3 L200.4 -112.3 Z " />
<path stroke="rgb(0,0,0)" stroke-opacity="1" fill="rgb(255,255,255)" fill-opacity="1" d="M182.7 -219.6 L183.7 -219.5 L184.7 -219.4 L185.7 -219.3 L186.7 -219.2 L187.7 -219.1 L188.7 -219.1 L189.7 -219 L190.7 -218.9 L191.7 -218.8 L192.7 -218.7 L193.7 -218.6 L194.6 -218.5 L195.6 -218.4 L196.6 -218.3 L197.6 -218.2 L198.6 -218.1 L199.6 -218 L200.6 -217.9 L201.6 -217.8 L202.6 -217.7 L203.6 -217.6 L204.6 -217.5 L205.5 -217.4 L206.5 -217.3 L207.5 -217.2 L207.4 -216.2 L207.3 -215.2 L207.2 -214.3 L207.1 -213.3 L207 -212.3 L207 -211.3 L206.9 -210.3 L206.8 -209.3 L206.7 -208.3 L206.6 -207.3 L206.5 -206.3 L206.4 -205.3 L206.3 -204.3 L206.2 -203.4 L206.1 -202.4 L206 -201.4 L205.9 -200.4 L205.8 -199.4 L205.7 -198.4 L205.6 -197.4 L205.5 -196.4 L205.4 -195.4 L205.3 -194.4 L205.2 -193.4 L205.1 -192.4 L204.1 -192.5 L203.1 -192.6 L202.2 -192.7 L201.2 -192.8 L200.2 -192.9 L199.2 -193 L198.2 -193.1 L197.2 -193.2 L196.2 -193.3 L195.2 -193.4 L194.2 -193.5 L193.2 -193.6 L192.2 -193.7 L191.3 -193.8 L190.3 -193.9 L189.3 -194 L188.3 -194.1 L187.3 -194.2 L186.3 -194.3 L185.3 -194.4 L184.3 -194.5 L183.3 -194.6 L182.3 -194.7 L181.3 -194.8 L180.3 -194.8 L180.4 -195.8 L180.5 -196.8 L180.6 -197.8 L180.7 -198.8 L180.8 -199.8 L180.9 -200.8 L181 -201.8 L181.1 -202.8 L181.2 -203.8 L181.3 -204.8 L181.4 -205.8 L181.5 -206.7 L181.6 -207.7 L181.7 -208.7 L181.8 -209.7 L181.9 -210.7 L182 -211.7 L182.1 -212.7 L182.2 -213.7 L182.3 -214.7 L182.4 -215.7 L182.5 -216.7 L182.6 -217.6 L182.7 -218.6 L182.7 -219.6 Z " />
<path stroke="rgb(0,0,0)" stroke-opacity="1" fill="rgb(255,255,255)" fill-opacity="1" d="M-299.6 -12.31 L-298.7 -12.27 L-297.7 -12.14 L-296.7 -11.95 L-295.7 -11.67 L-294.8 -11.32 L-293.9 -10.9 L-293.1 -10.4 L-292.2 -9.842 L-291.5 -9.219 L-290.8 -8.537 L-290.1 -7.8 L-289.5 -7.012 L-289 -6.179 L-288.5 -5.306 L-288.1 -4.399 L-287.8 -3.463 L-287.5 -2.503 L-287.3 -1.527 L-287.2 -0.5409 L-287.2 0.4501 L-287.3 1.439 L-287.4 2.42 L-287.6 3.387 L-287.9 4.333 L-288.3 5.253 L-288.8 6.141 L-289.3 6.991 L-289.8 7.797 L-290.5 8.555 L-291.2 9.261 L-291.9 9.908 L-292.7 10.49 L-293.6 11.01 L-294.4 11.47 L-295.4 11.85 L-296.3 12.15 L-297.3 12.38 L-298.3 12.54 L-299.2 12.61 L-300.2 12.61 L-301.2 12.53 L-302.2 12.37 L-303.2 12.13 L-304.1 11.81 L-305 11.43 L-305.9 10.97 L-306.7 10.44 L-307.5 9.85 L-308.3 9.197 L-309 8.487 L-309.6 7.724 L-310.2 6.913 L-310.7 6.059 L-311.1 5.168 L-311.5 4.246 L-311.8 3.297 L-312 2.329 L-312.1 1.347 L-312.2 0.3572 L-312.1 -0.6337 L-312 -1.62 L-311.8 -2.594 L-311.6 -3.551 L-311.3 -4.485 L-310.9 -5.39 L-310.4 -6.259 L-309.8 -7.088 L-309.2 -7.871 L-308.6 -8.603 L-307.8 -9.28 L-307.1 -9.898 L-306.2 -10.45 L-305.4 -10.94 L-304.5 -11.35 L-303.5 -11.7 L-302.6 -11.97 L-301.6 -12.16 L-300.6 -12.27 L-299.6 -12.31 Z " />
<path stroke="rgb(0,0,0)" stroke-opacity="1" fill="rgb(255,255,255)" fill-opacity="1" d="M-341.4 -155.3 L-340.6 -154.8 L-339.8 -154.2 L-339 -153.6 L-338.1 -153.1 L-337.3 -152.5 L-336.5 -152 L-335.7 -151.4 L-334.9 -150.8 L-334 -150.3 L-333.2 -149.7 L-332.4 -149.2 L-331.6 -148.6 L-330.7 -148 L-329.9 -147.5 L-329.1 -146.9 L-328.3 -146.3 L-327.5 -145.8 L-326.6 -145.2 L-325.8 -144.7 L-325 -144.1 L-324.2 -143.5 L-323.3 -143 L-322.5 -142.4 L-321.7 -141.8 L-320.9 -141.3 L-321.4 -140.5 L-322 -139.6 L-322.6 -138.8 L-323.1 -138 L-323.7 -137.2 L-324.3 -136.4 L-324.8 -135.5 L-325.4 -134.7 L-325.9 -133.9 L-326.5 -133.1 L-327.1 -132.2 L-327.6 -131.4 L-328.2 -130.6 L-328.7 -129.8 L-329.3 -129 L-329.9 -128.1 L-330.4 -127.3 L-331 -126.5 L-331.6 -125.7 L-332.1 -124.9 L-332.7 -124 L-333.2 -123.2 L-333.8 -122.4 L-334.4 -121.6 L-334.9 -120.7 L-335.7 -121.3 L-336.6 -121.9 L-337.4 -122.4 L-338.2 -123 L-339 -123.6 L-339.9 -124.1 L-340.7 -124.7 L-341.5 -125.2 L-342.3 -125.8 L-343.1 -126.4 L-344 -126.9 L-344.8 -127.5 L-345.6 -128 L-346.4 -128.6 L-347.3 -129.2 L-348.1 -129.7 L-348.9 -130.3 L-349.7 -130.9 L-350.5 -131.4 L-351.4 -132 L-352.2 -132.5 L-353 -133.1 L-353.8 -133.7 L-354.6 -134.2 L-355.5 -134.8 L-354.9 -135.6 L-354.3 -136.4 L-353.8 -137.3 L-353.2 -138.1 L-352.7 -138.9 L-352.1 -139.7 L-351.5 -140.5 L-351 -141.4 L-350.4 -142.2 L-349.9 -143 L-349.3 -143.8 L-348.7 -144.6 L-348.2 -145.5 L-347.6 -146.3 L-347 -147.1 L-346.5 -147.9 L-345.9 -148.8 L-345.4 -149.6 L-344.8 -150.4 L-344.2 -151.2 L-343.7 -152 L-343.1 -152.9 L-342.5 -153.7 L-342 -154.5 L-341.4 -155.3 Z " />
<path stroke="rgb(0,0,0)" stroke-opacity="1" fill="rgb(255,255,255)" fill-opacity="1" d="M-99.64 -12.31 L-98.65 -12.27 L-97.67 -12.14 L-96.7 -11.95 L-95.74 -11.67 L-94.82 -11.32 L-93.92 -10.9 L-93.06 -10.4 L-92.24 -9.842 L-91.47 -9.219 L-90.75 -8.537 L-90.09 -7.8 L-89.49 -7.012 L-88.95 -6.179 L-88.48 -5.306 L-88.08 -4.399 L-87.76 -3.463 L-87.51 -2.503 L-87.34 -1.527 L-87.24 -0.5409 L-87.23 0.4501 L-87.29 1.439 L-87.43 2.42 L-87.65 3.387 L-87.94 4.333 L-88.31 5.253 L-88.75 6.141 L-89.26 6.991 L-89.84 7.797 L-90.48 8.555 L-91.17 9.261 L-91.92 9.908 L-92.72 10.49 L-93.57 11.01 L-94.45 11.47 L-95.37 11.85 L-96.31 12.15 L-97.27 12.38 L-98.25 12.54 L-99.24 12.61 L-100.2 12.61 L-101.2 12.53 L-102.2 12.37 L-103.2 12.13 L-104.1 11.81 L-105 11.43 L-105.9 10.97 L-106.7 10.44 L-107.5 9.85 L-108.3 9.197 L-109 8.487 L-109.6 7.724 L-110.2 6.913 L-110.7 6.059 L-111.1 5.168 L-111.5 4.246 L-111.8 3.297 L-112 2.329 L-112.1 1.347 L-112.2 0.3572 L-112.1 -0.6337 L-112 -1.62 L-111.8 -2.594 L-111.6 -3.551 L-111.3 -4.485 L-110.9 -5.39 L-110.4 -6.259 L-109.8 -7.088 L-109.2 -7.871 L-108.6 -8.603 L-107.8 -9.28 L-107.1 -9.898 L-106.2 -10.45 L-105.4 -10.94 L-104.5 -11.35 L-103.5 -11.7 L-102.6 -11.97 L-101.6 -12.16 L-100.6 -12.27 L-99.64 -12.31 Z " />
<path stroke="rgb(0,0,0)" stroke-opacity="1" fill="rgb(255,255,255)" fill-opacity="1" d="M-126 -132.7 L-125.1 -132.5 L-124.1 -132.2 L-123.2 -131.9 L-122.2 -131.6 L-121.2 -131.4 L-120.3 -131.1 L-119.3 -130.8 L-118.4 -130.6 L-117.4 -130.3 L-116.5 -130 L-115.5 -129.8 L-114.5 -129.5 L-113.6 -129.2 L-112.6 -128.9 L-111.7 -128.7 L-110.7 -128.4 L-109.7 -128.1 L-108.8 -127.9 L-107.8 -127.6 L-106.9 -127.3 L-105.9 -127.1 L-105 -126.8 L-104 -126.5 L-103 -126.2 L-102.1 -126 L-102.4 -125 L-102.6 -124.1 L-102.9 -123.1 L-103.2 -122.1 L-103.4 -121.2 L-103.7 -120.2 L-104 -119.3 L-104.2 -118.3 L-104.5 -117.3 L-104.8 -116.4 L-105.1 -115.4 L-105.3 -114.5 L-105.6 -113.5 L-105.9 -112.6 L-106.1 -111.6 L-106.4 -110.6 L-106.7 -109.7 L-106.9 -108.7 L-107.2 -107.8 L-107.5 -106.8 L-107.8 -105.8 L-108 -104.9 L-108.3 -103.9 L-108.6 -103 L-108.8 -102 L-109.8 -102.3 L-110.8 -102.6 L-111.7 -102.8 L-112.7 -103.1 L-113.6 -103.4 L-114.6 -103.6 L-115.5 -103.9 L-116.5 -104.2 L-117.5 -104.4 L-118.4 -104.7 L-119.4 -105 L-120.3 -105.3 L-121.3 -105.5 L-122.3 -105.8 L-123.2 -106.1 L-124.2 -106.3 L-125.1 -106.6 L-126.1 -106.9 L-127 -107.2 L-128 -107.4 L-129 -107.7 L-129.9 -108 L-130.9 -108.2 L-131.8 -108.5 L-132.8 -108.8 L-132.5 -109.7 L-132.3 -110.7 L-132 -111.6 L-131.7 -112.6 L-131.4 -113.6 L-131.2 -114.5 L-130.9 -115.5 L-130.6 -116.4 L-130.4 -117.4 L-130.1 -118.4 L-129.8 -119.3 L-129.6 -120.3 L-129.3 -121.2 L-129 -122.2 L-128.7 -123.1 L-128.5 -124.1 L-128.2 -125.1 L-127.9 -126 L-127.7 -127 L-127.4 -127.9 L-127.1 -128.9 L-126.9 -129.9 L-126.6 -130.8 L-126.3 -131.8 L-126 -132.7 Z " />
<path stroke="rgb(0,0,0)" stroke-opacity="1" fill="rgb(255,255,255)" fill-opacity="1" d="M100.4 -12.31 L101.3 -12.27 L102.3 -12.14 L103.3 -11.95 L104.3 -11.67 L105.2 -11.32 L106.1 -10.9 L106.9 -10.4 L107.8 -9.842 L108.5 -9.219 L109.2 -8.537 L109.9 -7.8 L110.5 -7.012 L111 -6.179 L111.5 -5.306 L111.9 -4.399 L112.2 -3.463 L112.5 -2.503 L112.7 -1.527 L112.8 -0.5409 L112.8 0.4501 L112.7 1.439 L112.6 2.42 L112.4 3.387 L112.1 4.333 L111.7 5.253 L111.2 6.141 L110.7 6.991 L110.2 7.797 L109.5 8.555 L108.8 9.261 L108.1 9.908 L107.3 10.49 L106.4 11.01 L105.6 11.47 L104.6 11.85 L103.7 12.15 L102.7 12.38 L101.7 12.54 L100.8 12.61 L99.77 12.61 L98.78 12.53 L97.8 12.37 L96.84 12.13 L95.9 11.81 L94.99 11.43 L94.11 10.97 L93.27 10.44 L92.48 9.85 L91.73 9.197 L91.04 8.487 L90.41 7.724 L89.84 6.913 L89.33 6.059 L88.9 5.168 L88.54 4.246 L88.25 3.297 L88.04 2.329 L87.9 1.347 L87.85 0.3572 L87.87 -0.6337 L87.97 -1.62 L88.15 -2.594 L88.41 -3.551 L88.74 -4.485 L89.15 -5.39 L89.62 -6.259 L90.17 -7.088 L90.78 -7.871 L91.44 -8.603 L92.17 -9.28 L92.94 -9.898 L93.76 -10.45 L94.63 -10.94 L95.53 -11.35 L96.46 -11.7 L97.41 -11.97 L98.38 -12.16 L99.37 -12.27 L100.4 -12.31 Z " />
<path stroke="rgb(0,0,0)" stroke-opacity="1" fill="rgb(255,255,255)" fill-opacity="1" d="M82.75 -119.6 L83.74 -119.5 L84.73 -119.4 L85.72 -119.3 L86.71 -119.2 L87.7 -119.1 L88.7 -119.1 L89.69 -119 L90.68 -118.9 L91.67 -118.8 L92.66 -118.7 L93.65 -118.6 L94.64 -118.5 L95.63 -118.4 L96.62 -118.3 L97.62 -118.2 L98.61 -118.1 L99.6 -118 L100.6 -117.9 L101.6 -117.8 L102.6 -117.7 L103.6 -117.6 L104.6 -117.5 L105.5 -117.4 L106.5 -117.3 L107.5 -117.2 L107.4 -116.2 L107.3 -115.2 L107.2 -114.3 L107.1 -113.3 L107 -112.3 L107 -111.3 L106.9 -110.3 L106.8 -109.3 L106.7 -108.3 L106.6 -107.3 L106.5 -106.3 L106.4 -105.3 L106.3 -104.3 L106.2 -103.4 L106.1 -102.4 L106 -101.4 L105.9 -100.4 L105.8 -99.39 L105.7 -98.4 L105.6 -97.4 L105.5 -96.41 L105.4 -95.42 L105.3 -94.43 L105.2 -93.44 L105.1 -92.45 L104.1 -92.54 L103.1 -92.64 L102.2 -92.74 L101.2 -92.83 L100.2 -92.93 L99.18 -93.02 L98.19 -93.12 L97.2 -93.22 L96.21 -93.31 L95.22 -93.41 L94.23 -93.5 L93.23 -93.6 L92.24 -93.7 L91.25 -93.79 L90.26 -93.89 L89.27 -93.98 L88.28 -94.08 L87.29 -94.18 L86.3 -94.27 L85.31 -94.37 L84.31 -94.46 L83.32 -94.56 L82.33 -94.66 L81.34 -94.75 L80.35 -94.85 L80.45 -95.84 L80.54 -96.83 L80.64 -97.82 L80.73 -98.81 L80.83 -99.8 L80.93 -100.8 L81.02 -101.8 L81.12 -102.8 L81.21 -103.8 L81.31 -104.8 L81.41 -105.8 L81.5 -106.7 L81.6 -107.7 L81.69 -108.7 L81.79 -109.7 L81.89 -110.7 L81.98 -111.7 L82.08 -112.7 L82.17 -113.7 L82.27 -114.7 L82.37 -115.7 L82.46 -116.7 L82.56 -117.6 L82.65 -118.6 L82.75 -119.6 Z " />
<path stroke="rgb(0,0,0)" stroke-opacity="1" fill="rgb(255,255,255)" fill-opacity="1" d="M300.4 -12.31 L301.3 -12.27 L302.3 -12.14 L303.3 -11.95 L304.3 -11.67 L305.2 -11.32 L306.1 -10.9 L306.9 -10.4 L307.8 -9.842 L308.5 -9.219 L309.2 -8.537 L309.9 -7.8 L310.5 -7.012 L311 -6.179 L311.5 -5.306 L311.9 -4.399 L312.2 -3.463 L312.5 -2.503 L312.7 -1.527 L312.8 -0.5409 L312.8 0.4501 L312.7 1.439 L312.6 2.42 L312.4 3.387 L312.1 4.333 L311.7 5.253 L311.2 6.141 L310.7 6.991 L310.2 7.797 L309.5 8.555 L308.8 9.261 L308.1 9.908 L307.3 10.49 L306.4 11.01 L305.6 11.47 L304.6 11.85 L303.7 12.15 L302.7 12.38 L301.7 12.54 L300.8 12.61 L299.8 12.61 L298.8 12.53 L297.8 12.37 L296.8 12.13 L295.9 11.81 L295 11.43 L294.1 10.97 L293.3 10.44 L292.5 9.85 L291.7 9.197 L291 8.487 L290.4 7.724 L289.8 6.913 L289.3 6.059 L288.9 5.168 L288.5 4.246 L288.2 3.297 L288 2.329 L287.9 1.347 L287.8 0.3572 L287.9 -0.6337 L288 -1.62 L288.2 -2.594 L288.4 -3.551 L288.7 -4.485 L289.1 -5.39 L289.6 -6.259 L290.2 -7.088 L290.8 -7.871 L291.4 -8.603 L292.2 -9.28 L292.9 -9.898 L293.8 -10.45 L294.6 -10.94 L295.5 -11.35 L296.5 -11.7 L297.4 -11.97 L298.4 -12.16 L299.4 -12.27 L300.4 -12.31 Z " />
<path stroke="rgb(0,0,0)" stroke-opacity="1" fill="rgb(255,255,255)" fill-opacity="1" d="M-441.4 -55.33 L-440.6 -54.77 L-439.8 -54.21 L-439 -53.64 L-438.1 -53.08 L-437.3 -52.52 L-436.5 -51.96 L-435.7 -51.4 L-434.9 -50.84 L-434 -50.27 L-433.2 -49.71 L-432.4 -49.15 L-431.6 -48.59 L-430.7 -48.03 L-429.9 -47.46 L-429.1 -46.9 L-428.3 -46.34 L-427.5 -45.78 L-426.6 -45.22 L-425.8 -44.66 L-425 -44.09 L-424.2 -43.53 L-423.3 -42.97 L-422.5 -42.41 L-421.7 -41.85 L-420.9 -41.28 L-421.4 -40.46 L-422 -39.64 L-422.6 -38.82 L-423.1 -38 L-423.7 -37.18 L-424.3 -36.35 L-424.8 -35.53 L-425.4 -34.71 L-425.9 -33.89 L-426.5 -33.07 L-427.1 -32.25 L-427.6 -31.42 L-428.2 -30.6 L-428.7 -29.78 L-429.3 -28.96 L-429.9 -28.14 L-430.4 -27.32 L-431 -26.49 L-431.6 -25.67 L-432.1 -24.85 L-432.7 -24.03 L-433.2 -23.21 L-433.8 -22.39 L-434.4 -21.56 L-434.9 -20.74 L-435.7 -21.3 L-436.6 -21.87 L-437.4 -22.43 L-438.2 -22.99 L-439 -23.55 L-439.9 -24.11 L-440.7 -24.68 L-441.5 -25.24 L-442.3 -25.8 L-443.1 -26.36 L-444 -26.92 L-444.8 -27.48 L-445.6 -28.05 L-446.4 -28.61 L-447.3 -29.17 L-448.1 -29.73 L-448.9 -30.29 L-449.7 -30.86 L-450.5 -31.42 L-451.4 -31.98 L-452.2 -32.54 L-453 -33.1 L-453.8 -33.66 L-454.6 -34.23 L-455.5 -34.79 L-454.9 -35.61 L-454.3 -36.43 L-453.8 -37.25 L-453.2 -38.08 L-452.7 -38.9 L-452.1 -39.72 L-451.5 -40.54 L-451 -41.36 L-450.4 -42.18 L-449.9 -43.01 L-449.3 -43.83 L-448.7 -44.65 L-448.2 -45.47 L-447.6 -46.29 L-447 -47.11 L-446.5 -47.94 L-445.9 -48.76 L-445.4 -49.58 L-444.8 -50.4 L-444.2 -51.22 L-443.7 -52.04 L-443.1 -52.87 L-442.5 -53.69 L-442 -54.51 L-441.4 -55.33 Z " />
<path stroke="rgb(0,0,0)" stroke-opacity="1" fill="rgb(255,255,255)" fill-opacity="1" d="M-199.6 87.69 L-198.7 87.73 L-197.7 87.86 L-196.7 88.05 L-195.7 88.33 L-194.8 88.68 L-193.9 89.1 L-193.1 89.6 L-192.2 90.16 L-191.5 90.78 L-190.8 91.46 L-190.1 92.2 L-189.5 92.99 L-189 93.82 L-188.5 94.69 L-188.1 95.6 L-187.8 96.54 L-187.5 97.5 L-187.3 98.47 L-187.2 99.46 L-187.2 100.5 L-187.3 101.4 L-187.4 102.4 L-187.6 103.4 L-187.9 104.3 L-188.3 105.3 L-188.8 106.1 L-189.3 107 L-189.8 107.8 L-190.5 108.6 L-191.2 109.3 L-191.9 109.9 L-192.7 110.5 L-193.6 111 L-194.4 111.5 L-195.4 111.8 L-196.3 112.2 L-197.3 112.4 L-198.3 112.5 L-199.2 112.6 L-200.2 112.6 L-201.2 112.5 L-202.2 112.4 L-203.2 112.1 L-204.1 111.8 L-205 111.4 L-205.9 111 L-206.7 110.4 L-207.5 109.9 L-208.3 109.2 L-209 108.5 L-209.6 107.7 L-210.2 106.9 L-210.7 106.1 L-211.1 105.2 L-211.5 104.2 L-211.8 103.3 L-212 102.3 L-212.1 101.3 L-212.2 100.4 L-212.1 99.37 L-212 98.38 L-211.8 97.41 L-211.6 96.45 L-211.3 95.51 L-210.9 94.61 L-210.4 93.74 L-209.8 92.91 L-209.2 92.13 L-208.6 91.4 L-207.8 90.72 L-207.1 90.1 L-206.2 89.55 L-205.4 89.06 L-204.5 88.65 L-203.5 88.3 L-202.6 88.03 L-201.6 87.84 L-200.6 87.73 L-199.6 87.69 Z " />
<path stroke="rgb(0,0,0)" stroke-opacity="1" fill="rgb(255,255,255)" fill-opacity="1" d="M-226 -32.73 L-225.1 -32.46 L-224.1 -32.19 L-223.2 -31.92 L-222.2 -31.65 L-221.2 -31.38 L-220.3 -31.11 L-219.3 -30.84 L-218.4 -30.57 L-217.4 -30.3 L-216.5 -30.03 L-215.5 -29.76 L-214.5 -29.49 L-213.6 -29.22 L-212.6 -28.95 L-211.7 -28.68 L-210.7 -28.41 L-209.7 -28.13 L-208.8 -27.86 L-207.8 -27.59 L-206.9 -27.32 L-205.9 -27.05 L-205 -26.78 L-204 -26.51 L-203 -26.24 L-202.1 -25.97 L-202.4 -25.02 L-202.6 -24.06 L-202.9 -23.1 L-203.2 -22.14 L-203.4 -21.18 L-203.7 -20.22 L-204 -19.27 L-204.2 -18.31 L-204.5 -17.35 L-204.8 -16.39 L-205.1 -15.43 L-205.3 -14.47 L-205.6 -13.52 L-205.9 -12.56 L-206.1 -11.6 L-206.4 -10.64 L-206.7 -9.683 L-206.9 -8.725 L-207.2 -7.766 L-207.5 -6.808 L-207.8 -5.85 L-208 -4.892 L-208.3 -3.933 L-208.6 -2.975 L-208.8 -2.017 L-209.8 -2.287 L-210.8 -2.557 L-211.7 -2.827 L-212.7 -3.098 L-213.6 -3.368 L-214.6 -3.638 L-215.5 -3.908 L-216.5 -4.178 L-217.5 -4.449 L-218.4 -4.719 L-219.4 -4.989 L-220.3 -5.259 L-221.3 -5.529 L-222.3 -5.8 L-223.2 -6.07 L-224.2 -6.34 L-225.1 -6.61 L-226.1 -6.88 L-227 -7.151 L-228 -7.421 L-229 -7.691 L-229.9 -7.961 L-230.9 -8.231 L-231.8 -8.502 L-232.8 -8.772 L-232.5 -9.73 L-232.3 -10.69 L-232 -11.65 L-231.7 -12.6 L-231.4 -13.56 L-231.2 -14.52 L-230.9 -15.48 L-230.6 -16.44 L-230.4 -17.4 L-230.1 -18.35 L-229.8 -19.31 L-229.6 -20.27 L-229.3 -21.23 L-229 -22.19 L-228.7 -23.15 L-228.5 -24.1 L-228.2 -25.06 L-227.9 -26.02 L-227.7 -26.98 L-227.4 -27.94 L-227.1 -28.9 L-226.9 -29.85 L-226.6 -30.81 L-226.3 -31.77 L-226 -32.73 Z " />
<path stroke="rgb(0,0,0)" stroke-opacity="1" fill="rgb(255,255,255)" fill-opacity="1" d="M0.3584 87.69 L1.349 87.73 L2.332 87.86 L3.303 88.05 L4.255 88.33 L5.182 88.68 L6.078 89.1 L6.938 89.6 L7.756 90.16 L8.527 90.78 L9.246 91.46 L9.908 92.2 L10.51 92.99 L11.05 93.82 L11.52 94.69 L11.92 95.6 L12.24 96.54 L12.49 97.5 L12.66 98.47 L12.76 99.46 L12.77 100.5 L12.71 101.4 L12.57 102.4 L12.35 103.4 L12.06 104.3 L11.69 105.3 L11.25 106.1 L10.74 107 L10.16 107.8 L9.522 108.6 L8.825 109.3 L8.075 109.9 L7.276 110.5 L6.432 111 L5.55 111.5 L4.635 111.8 L3.692 112.2 L2.729 112.4 L1.749 112.5 L0.761 112.6 L-0.2301 112.6 L-1.218 112.5 L-2.196 112.4 L-3.158 112.1 L-4.098 111.8 L-5.011 111.4 L-5.889 111 L-6.729 110.4 L-7.524 109.9 L-8.269 109.2 L-8.96 108.5 L-9.593 107.7 L-10.16 106.9 L-10.67 106.1 L-11.1 105.2 L-11.46 104.2 L-11.75 103.3 L-11.96 102.3 L-12.1 101.3 L-12.15 100.4 L-12.13 99.37 L-12.03 98.38 L-11.85 97.41 L-11.59 96.45 L-11.26 95.51 L-10.85 94.61 L-10.38 93.74 L-9.832 92.91 L-9.225 92.13 L-8.557 91.4 L-7.833 90.72 L-7.057 90.1 L-6.235 89.55 L-5.372 89.06 L-4.473 88.65 L-3.543 88.3 L-2.589 88.03 L-1.617 87.84 L-0.6321 87.73 L0.3584 87.69 Z " />
<path stroke="rgb(0,0,0)" stroke-opacity="1" fill="rgb(255,255,255)" fill-opacity="1" d="M-17.25 -19.63 L-16.26 -19.53 L-15.27 -19.43 L-14.28 -19.34 L-13.29 -19.24 L-12.3 -19.15 L-11.3 -19.05 L-10.31 -18.95 L-9.322 -18.86 L-8.331 -18.76 L-7.34 -18.67 L-6.349 -18.57 L-5.357 -18.47 L-4.366 -18.38 L-3.375 -18.28 L-2.384 -18.19 L-1.393 -18.09 L-0.4018 -18 L0.5893 -17.9 L1.58 -17.8 L2.572 -17.71 L3.563 -17.61 L4.554 -17.52 L5.545 -17.42 L6.536 -17.32 L7.527 -17.23 L7.431 -16.24 L7.335 -15.25 L7.239 -14.25 L7.143 -13.26 L7.048 -12.27 L6.952 -11.28 L6.856 -10.29 L6.76 -9.298 L6.664 -8.307 L6.568 -7.316 L6.472 -6.325 L6.376 -5.334 L6.28 -4.343 L6.184 -3.351 L6.088 -2.36 L5.992 -1.369 L5.896 -0.378 L5.8 0.6131 L5.704 1.604 L5.608 2.595 L5.512 3.587 L5.416 4.578 L5.32 5.569 L5.224 6.56 L5.128 7.551 L4.137 7.455 L3.146 7.359 L2.155 7.263 L1.164 7.167 L0.1727 7.071 L-0.8184 6.975 L-1.81 6.879 L-2.801 6.783 L-3.792 6.687 L-4.783 6.591 L-5.774 6.496 L-6.765 6.4 L-7.756 6.304 L-8.748 6.208 L-9.739 6.112 L-10.73 6.016 L-11.72 5.92 L-12.71 5.824 L-13.7 5.728 L-14.69 5.632 L-15.69 5.536 L-16.68 5.44 L-17.67 5.344 L-18.66 5.248 L-19.65 5.152 L-19.55 4.161 L-19.46 3.17 L-19.36 2.179 L-19.27 1.188 L-19.17 0.1965 L-19.07 -0.7947 L-18.98 -1.786 L-18.88 -2.777 L-18.79 -3.768 L-18.69 -4.759 L-18.59 -5.75 L-18.5 -6.741 L-18.4 -7.733 L-18.31 -8.724 L-18.21 -9.715 L-18.11 -10.71 L-18.02 -11.7 L-17.92 -12.69 L-17.83 -13.68 L-17.73 -14.67 L-17.63 -15.66 L-17.54 -16.65 L-17.44 -17.64 L-17.35 -18.64 L-17.25 -19.63 Z " />
<path stroke="rgb(0,0,0)" stroke-opacity="1" fill="rgb(255,255,255)" fill-opacity="1" d="M200.4 87.69 L201.3 87.73 L202.3 87.86 L203.3 88.05 L204.3 88.33 L205.2 88.68 L206.1 89.1 L206.9 89.6 L207.8 90.16 L208.5 90.78 L209.2 91.46 L209.9 92.2 L210.5 92.99 L211 93.82 L211.5 94.69 L211.9 95.6 L212.2 96.54 L212.5 97.5 L212.7 98.47 L212.8 99.46 L212.8 100.5 L212.7 101.4 L212.6 102.4 L212.4 103.4 L212.1 104.3 L211.7 105.3 L211.2 106.1 L210.7 107 L210.2 107.8 L209.5 108.6 L208.8 109.3 L208.1 109.9 L207.3 110.5 L206.4 111 L205.6 111.5 L204.6 111.8 L203.7 112.2 L202.7 112.4 L201.7 112.5 L200.8 112.6 L199.8 112.6 L198.8 112.5 L197.8 112.4 L196.8 112.1 L195.9 111.8 L195 111.4 L194.1 111 L193.3 110.4 L192.5 109.9 L191.7 109.2 L191 108.5 L190.4 107.7 L189.8 106.9 L189.3 106.1 L188.9 105.2 L188.5 104.2 L188.2 103.3 L188 102.3 L187.9 101.3 L187.8 100.4 L187.9 99.37 L188 98.38 L188.2 97.41 L188.4 96.45 L188.7 95.51 L189.1 94.61 L189.6 93.74 L190.2 92.91 L190.8 92.13 L191.4 91.4 L192.2 90.72 L192.9 90.1 L193.8 89.55 L194.6 89.06 L195.5 88.65 L196.5 88.3 L197.4 88.03 L198.4 87.84 L199.4 87.73 L200.4 87.69 Z " />
<path stroke="rgb(0,0,0)" stroke-opacity="1" fill="rgb(255,255,255)" fill-opacity="1" d="M186.6 -13.93 L187.6 -13.91 L188.6 -13.89 L189.6 -13.87 L190.6 -13.85 L191.6 -13.83 L192.6 -13.81 L193.6 -13.78 L194.5 -13.76 L195.5 -13.74 L196.5 -13.72 L197.5 -13.7 L198.5 -13.68 L199.5 -13.66 L200.5 -13.64 L201.5 -13.62 L202.5 -13.6 L203.5 -13.58 L204.5 -13.56 L205.5 -13.54 L206.5 -13.52 L207.5 -13.49 L208.5 -13.47 L209.5 -13.45 L210.5 -13.43 L211.5 -13.41 L211.5 -12.42 L211.4 -11.42 L211.4 -10.43 L211.4 -9.429 L211.4 -8.434 L211.3 -7.438 L211.3 -6.443 L211.3 -5.447 L211.3 -4.451 L211.3 -3.456 L211.2 -2.46 L211.2 -1.465 L211.2 -0.4689 L211.2 0.5267 L211.2 1.522 L211.1 2.518 L211.1 3.514 L211.1 4.509 L211.1 5.505 L211.1 6.5 L211 7.496 L211 8.492 L211 9.487 L211 10.48 L211 11.48 L210 11.46 L209 11.44 L208 11.42 L207 11.4 L206 11.37 L205 11.35 L204 11.33 L203 11.31 L202 11.29 L201 11.27 L200 11.25 L199 11.23 L198 11.21 L197 11.19 L196 11.17 L195 11.15 L194 11.13 L193 11.11 L192 11.09 L191 11.06 L190 11.04 L189.1 11.02 L188.1 11 L187.1 10.98 L186.1 10.96 L186.1 9.965 L186.1 8.97 L186.1 7.974 L186.1 6.979 L186.2 5.983 L186.2 4.987 L186.2 3.992 L186.2 2.996 L186.3 2 L186.3 1.005 L186.3 0.009235 L186.3 -0.9864 L186.3 -1.982 L186.4 -2.978 L186.4 -3.973 L186.4 -4.969 L186.4 -5.964 L186.4 -6.96 L186.5 -7.956 L186.5 -8.951 L186.5 -9.947 L186.5 -10.94 L186.5 -11.94 L186.6 -12.93 L186.6 -13.93 Z " />
<path stroke="rgb(0,0,0)" stroke-opacity="1" fill="rgb(255,255,255)" fill-opacity="1" d="M-299.6 187.7 L-298.7 187.7 L-297.7 187.9 L-296.7 188.1 L-295.7 188.3 L-294.8 188.7 L-293.9 189.1 L-293.1 189.6 L-292.2 190.2 L-291.5 190.8 L-290.8 191.5 L-290.1 192.2 L-289.5 193 L-289 193.8 L-288.5 194.7 L-288.1 195.6 L-287.8 196.5 L-287.5 197.5 L-287.3 198.5 L-287.2 199.5 L-287.2 200.5 L-287.3 201.4 L-287.4 202.4 L-287.6 203.4 L-287.9 204.3 L-288.3 205.3 L-288.8 206.1 L-289.3 207 L-289.8 207.8 L-290.5 208.6 L-291.2 209.3 L-291.9 209.9 L-292.7 210.5 L-293.6 211 L-294.4 211.5 L-295.4 211.8 L-296.3 212.2 L-297.3 212.4 L-298.3 212.5 L-299.2 212.6 L-300.2 212.6 L-301.2 212.5 L-302.2 212.4 L-303.2 212.1 L-304.1 211.8 L-305 211.4 L-305.9 211 L-306.7 210.4 L-307.5 209.9 L-308.3 209.2 L-309 208.5 L-309.6 207.7 L-310.2 206.9 L-310.7 206.1 L-311.1 205.2 L-311.5 204.2 L-311.8 203.3 L-312 202.3 L-312.1 201.3 L-312.2 200.4 L-312.1 199.4 L-312 198.4 L-311.8 197.4 L-311.6 196.4 L-311.3 195.5 L-310.9 194.6 L-310.4 193.7 L-309.8 192.9 L-309.2 192.1 L-308.6 191.4 L-307.8 190.7 L-307.1 190.1 L-306.2 189.5 L-305.4 189.1 L-304.5 188.6 L-303.5 188.3 L-302.6 188 L-301.6 187.8 L-300.6 187.7 L-299.6 187.7 Z " />
<path stroke="rgb(0,0,0)" stroke-opacity="1" fill="rgb(255,255,255)" fill-opacity="1" d="M-326 67.27 L-325.1 67.54 L-324.1 67.81 L-323.2 68.08 L-322.2 68.35 L-321.2 68.62 L-320.3 68.89 L-319.3 69.16 L-318.4 69.43 L-317.4 69.7 L-316.5 69.97 L-315.5 70.24 L-314.5 70.51 L-313.6 70.78 L-312.6 71.05 L-311.7 71.32 L-310.7 71.59 L-309.7 71.87 L-308.8 72.14 L-307.8 72.41 L-306.9 72.68 L-305.9 72.95 L-305 73.22 L-304 73.49 L-303 73.76 L-302.1 74.03 L-302.4 74.98 L-302.6 75.94 L-302.9 76.9 L-303.2 77.86 L-303.4 78.82 L-303.7 79.78 L-304 80.73 L-304.2 81.69 L-304.5 82.65 L-304.8 83.61 L-305.1 84.57 L-305.3 85.53 L-305.6 86.48 L-305.9 87.44 L-306.1 88.4 L-306.4 89.36 L-306.7 90.32 L-306.9 91.28 L-307.2 92.23 L-307.5 93.19 L-307.8 94.15 L-308 95.11 L-308.3 96.07 L-308.6 97.03 L-308.8 97.98 L-309.8 97.71 L-310.8 97.44 L-311.7 97.17 L-312.7 96.9 L-313.6 96.63 L-314.6 96.36 L-315.5 96.09 L-316.5 95.82 L-317.5 95.55 L-318.4 95.28 L-319.4 95.01 L-320.3 94.74 L-321.3 94.47 L-322.3 94.2 L-323.2 93.93 L-324.2 93.66 L-325.1 93.39 L-326.1 93.12 L-327 92.85 L-328 92.58 L-329 92.31 L-329.9 92.04 L-330.9 91.77 L-331.8 91.5 L-332.8 91.23 L-332.5 90.27 L-332.3 89.31 L-332 88.35 L-331.7 87.4 L-331.4 86.44 L-331.2 85.48 L-330.9 84.52 L-330.6 83.56 L-330.4 82.6 L-330.1 81.65 L-329.8 80.69 L-329.6 79.73 L-329.3 78.77 L-329 77.81 L-328.7 76.85 L-328.5 75.9 L-328.2 74.94 L-327.9 73.98 L-327.7 73.02 L-327.4 72.06 L-327.1 71.1 L-326.9 70.15 L-326.6 69.19 L-326.3 68.23 L-326 67.27 Z " />
<path stroke="rgb(0,0,0)" stroke-opacity="1" fill="rgb(255,255,255)" fill-opacity="1" d="M-99.64 187.7 L-98.65 187.7 L-97.67 187.9 L-96.7 188.1 L-95.74 188.3 L-94.82 188.7 L-93.92 189.1 L-93.06 189.6 L-92.24 190.2 L-91.47 190.8 L-90.75 191.5 L-90.09 192.2 L-89.49 193 L-88.95 193.8 L-88.48 194.7 L-88.08 195.6 L-87.76 196.5 L-87.51 197.5 L-87.34 198.5 L-87.24 199.5 L-87.23 200.5 L-87.29 201.4 L-87.43 202.4 L-87.65 203.4 L-87.94 204.3 L-88.31 205.3 L-88.75 206.1 L-89.26 207 L-89.84 207.8 L-90.48 208.6 L-91.17 209.3 L-91.92 209.9 L-92.72 210.5 L-93.57 211 L-94.45 211.5 L-95.37 211.8 L-96.31 212.2 L-97.27 212.4 L-98.25 212.5 L-99.24 212.6 L-100.2 212.6 L-101.2 212.5 L-102.2 212.4 L-103.2 212.1 L-104.1 211.8 L-105 211.4 L-105.9 211 L-106.7 210.4 L-107.5 209.9 L-108.3 209.2 L-109 208.5 L-109.6 207.7 L-110.2 206.9 L-110.7 206.1 L-111.1 205.2 L-111.5 204.2 L-111.8 203.3 L-112 202.3 L-112.1 201.3 L-112.2 200.4 L-112.1 199.4 L-112 198.4 L-111.8 197.4 L-111.6 196.4 L-111.3 195.5 L-110.9 194.6 L-110.4 193.7 L-109.8 192.9 L-109.2 192.1 L-108.6 191.4 L-107.8 190.7 L-107.1 190.1 L-106.2 189.5 L-105.4 189.1 L-104.5 188.6 L-103.5 188.3 L-102.6 188 L-101.6 187.8 L-100.6 187.7 L-99.64 187.7 Z " />
<path stroke="rgb(0,0,0)" stroke-opacity="1" fill="rgb(255,255,255)" fill-opacity="1" d="M-117.3 80.37 L-116.3 80.47 L-115.3 80.57 L-114.3 80.66 L-113.3 80.76 L-112.3 80.85 L-111.3 80.95 L-110.3 81.05 L-109.3 81.14 L-108.3 81.24 L-107.3 81.33 L-106.3 81.43 L-105.4 81.53 L-104.4 81.62 L-103.4 81.72 L-102.4 81.81 L-101.4 81.91 L-100.4 82 L-99.41 82.1 L-98.42 82.2 L-97.43 82.29 L-96.44 82.39 L-95.45 82.48 L-94.45 82.58 L-93.46 82.68 L-92.47 82.77 L-92.57 83.76 L-92.66 84.75 L-92.76 85.75 L-92.86 86.74 L-92.95 87.73 L-93.05 88.72 L-93.14 89.71 L-93.24 90.7 L-93.34 91.69 L-93.43 92.68 L-93.53 93.68 L-93.62 94.67 L-93.72 95.66 L-93.82 96.65 L-93.91 97.64 L-94.01 98.63 L-94.1 99.62 L-94.2 100.6 L-94.3 101.6 L-94.39 102.6 L-94.49 103.6 L-94.58 104.6 L-94.68 105.6 L-94.78 106.6 L-94.87 107.6 L-95.86 107.5 L-96.85 107.4 L-97.85 107.3 L-98.84 107.2 L-99.83 107.1 L-100.8 107 L-101.8 106.9 L-102.8 106.8 L-103.8 106.7 L-104.8 106.6 L-105.8 106.5 L-106.8 106.4 L-107.8 106.3 L-108.7 106.2 L-109.7 106.1 L-110.7 106 L-111.7 105.9 L-112.7 105.8 L-113.7 105.7 L-114.7 105.6 L-115.7 105.5 L-116.7 105.4 L-117.7 105.3 L-118.7 105.2 L-119.7 105.2 L-119.6 104.2 L-119.5 103.2 L-119.4 102.2 L-119.3 101.2 L-119.2 100.2 L-119.1 99.21 L-119 98.21 L-118.9 97.22 L-118.8 96.23 L-118.7 95.24 L-118.6 94.25 L-118.5 93.26 L-118.4 92.27 L-118.3 91.28 L-118.2 90.29 L-118.1 89.29 L-118 88.3 L-117.9 87.31 L-117.8 86.32 L-117.7 85.33 L-117.6 84.34 L-117.5 83.35 L-117.4 82.36 L-117.3 81.36 L-117.3 80.37 Z " />
<path stroke="rgb(0,0,0)" stroke-opacity="1" fill="rgb(255,255,255)" fill-opacity="1" d="M100.4 187.7 L101.3 187.7 L102.3 187.9 L103.3 188.1 L104.3 188.3 L105.2 188.7 L106.1 189.1 L106.9 189.6 L107.8 190.2 L108.5 190.8 L109.2 191.5 L109.9 192.2 L110.5 193 L111 193.8 L111.5 194.7 L111.9 195.6 L112.2 196.5 L112.5 197.5 L112.7 198.5 L112.8 199.5 L112.8 200.5 L112.7 201.4 L112.6 202.4 L112.4 203.4 L112.1 204.3 L111.7 205.3 L111.2 206.1 L110.7 207 L110.2 207.8 L109.5 208.6 L108.8 209.3 L108.1 209.9 L107.3 210.5 L106.4 211 L105.6 211.5 L104.6 211.8 L103.7 212.2 L102.7 212.4 L101.7 212.5 L100.8 212.6 L99.77 212.6 L98.78 212.5 L97.8 212.4 L96.84 212.1 L95.9 211.8 L94.99 211.4 L94.11 211 L93.27 210.4 L92.48 209.9 L91.73 209.2 L91.04 208.5 L90.41 207.7 L89.84 206.9 L89.33 206.1 L88.9 205.2 L88.54 204.2 L88.25 203.3 L88.04 202.3 L87.9 201.3 L87.85 200.4 L87.87 199.4 L87.97 198.4 L88.15 197.4 L88.41 196.4 L88.74 195.5 L89.15 194.6 L89.62 193.7 L90.17 192.9 L90.78 192.1 L91.44 191.4 L92.17 190.7 L92.94 190.1 L93.76 189.5 L94.63 189.1 L95.53 188.6 L96.46 188.3 L97.41 188 L98.38 187.8 L99.37 187.7 L100.4 187.7 Z " />
<path stroke="rgb(0,0,0)" stroke-opacity="1" fill="rgb(255,255,255)" fill-opacity="1" d="M86.58 86.07 L87.58 86.09 L88.57 86.11 L89.57 86.13 L90.57 86.15 L91.56 86.17 L92.56 86.19 L93.55 86.22 L94.55 86.24 L95.54 86.26 L96.54 86.28 L97.53 86.3 L98.53 86.32 L99.53 86.34 L100.5 86.36 L101.5 86.38 L102.5 86.4 L103.5 86.42 L104.5 86.44 L105.5 86.46 L106.5 86.48 L107.5 86.51 L108.5 86.53 L109.5 86.55 L110.5 86.57 L111.5 86.59 L111.5 87.58 L111.4 88.58 L111.4 89.57 L111.4 90.57 L111.4 91.57 L111.3 92.56 L111.3 93.56 L111.3 94.55 L111.3 95.55 L111.3 96.54 L111.2 97.54 L111.2 98.54 L111.2 99.53 L111.2 100.5 L111.2 101.5 L111.1 102.5 L111.1 103.5 L111.1 104.5 L111.1 105.5 L111.1 106.5 L111 107.5 L111 108.5 L111 109.5 L111 110.5 L111 111.5 L110 111.5 L109 111.4 L108 111.4 L107 111.4 L106 111.4 L105 111.4 L104 111.3 L103 111.3 L102 111.3 L101 111.3 L100 111.3 L99.01 111.2 L98.01 111.2 L97.02 111.2 L96.02 111.2 L95.03 111.1 L94.03 111.1 L93.03 111.1 L92.04 111.1 L91.04 111.1 L90.05 111 L89.05 111 L88.06 111 L87.06 111 L86.07 111 L86.09 110 L86.11 109 L86.13 108 L86.15 107 L86.17 106 L86.19 105 L86.21 104 L86.23 103 L86.25 102 L86.27 101 L86.29 100 L86.31 99.01 L86.33 98.02 L86.36 97.02 L86.38 96.03 L86.4 95.03 L86.42 94.04 L86.44 93.04 L86.46 92.04 L86.48 91.05 L86.5 90.05 L86.52 89.06 L86.54 88.06 L86.56 87.07 L86.58 86.07 Z " />
<path stroke="rgb(0,0,0)" stroke-opacity="1" fill="rgb(255,255,255)" fill-opacity="1" d="M302.4 187 L303.4 187.2 L304.5 187.5 L305.5 187.9 L306.4 188.3 L307.3 188.8 L308.2 189.4 L309 190.1 L309.8 190.8 L310.5 191.6 L311.2 192.4 L311.8 193.3 L312.3 194.3 L312.7 195.2 L313 196.2 L313.3 197.3 L313.5 198.3 L313.6 199.4 L313.6 200.4 L313.6 201.5 L313.4 202.5 L313.2 203.6 L312.9 204.6 L312.5 205.6 L312 206.5 L311.5 207.4 L310.9 208.3 L310.2 209.1 L309.4 209.9 L308.6 210.6 L307.8 211.2 L306.9 211.8 L305.9 212.3 L305 212.7 L304 213 L302.9 213.3 L301.9 213.4 L300.8 213.5 L299.8 213.5 L298.7 213.4 L297.6 213.3 L296.6 213 L295.6 212.7 L294.6 212.3 L293.7 211.8 L292.8 211.2 L291.9 210.6 L291.1 209.9 L290.4 209.1 L289.7 208.3 L289.1 207.4 L288.6 206.5 L288.1 205.6 L287.7 204.6 L287.4 203.6 L287.1 202.5 L287 201.5 L286.9 200.4 L287 199.4 L287.1 198.3 L287.3 197.3 L287.5 196.2 L287.9 195.2 L288.3 194.3 L288.8 193.3 L289.4 192.4 L290 191.6 L290.8 190.8 L291.5 190.1 L292.4 189.4 L293.2 188.8 L294.2 188.3 L295.1 187.9 L296.1 187.5 L297.1 187.2 L298.2 187 L299.2 186.9 L300.3 186.8 L301.3 186.9 L302.4 187 Z " />
<path stroke="rgb(0,0,0)" stroke-opacity="1" fill="rgb(255,255,255)" fill-opacity="1" d="M-426 167.3 L-425.1 167.5 L-424.1 167.8 L-423.2 168.1 L-422.2 168.4 L-421.2 168.6 L-420.3 168.9 L-419.3 169.2 L-418.4 169.4 L-417.4 169.7 L-416.5 170 L-415.5 170.2 L-414.5 170.5 L-413.6 170.8 L-412.6 171.1 L-411.7 171.3 L-410.7 171.6 L-409.7 171.9 L-408.8 172.1 L-407.8 172.4 L-406.9 172.7 L-405.9 172.9 L-405 173.2 L-404 173.5 L-403 173.8 L-402.1 174 L-402.4 175 L-402.6 175.9 L-402.9 176.9 L-403.2 177.9 L-403.4 178.8 L-403.7 179.8 L-404 180.7 L-404.2 181.7 L-404.5 182.7 L-404.8 183.6 L-405.1 184.6 L-405.3 185.5 L-405.6 186.5 L-405.9 187.4 L-406.1 188.4 L-406.4 189.4 L-406.7 190.3 L-406.9 191.3 L-407.2 192.2 L-407.5 193.2 L-407.8 194.2 L-408 195.1 L-408.3 196.1 L-408.6 197 L-408.8 198 L-409.8 197.7 L-410.8 197.4 L-411.7 197.2 L-412.7 196.9 L-413.6 196.6 L-414.6 196.4 L-415.5 196.1 L-416.5 195.8 L-417.5 195.6 L-418.4 195.3 L-419.4 195 L-420.3 194.7 L-421.3 194.5 L-422.3 194.2 L-423.2 193.9 L-424.2 193.7 L-425.1 193.4 L-426.1 193.1 L-427 192.8 L-428 192.6 L-429 192.3 L-429.9 192 L-430.9 191.8 L-431.8 191.5 L-432.8 191.2 L-432.5 190.3 L-432.3 189.3 L-432 188.4 L-431.7 187.4 L-431.4 186.4 L-431.2 185.5 L-430.9 184.5 L-430.6 183.6 L-430.4 182.6 L-430.1 181.6 L-429.8 180.7 L-429.6 179.7 L-429.3 178.8 L-429 177.8 L-428.7 176.9 L-428.5 175.9 L-428.2 174.9 L-427.9 174 L-427.7 173 L-427.4 172.1 L-427.1 171.1 L-426.9 170.1 L-426.6 169.2 L-426.3 168.2 L-426 167.3 Z " />
<path stroke="rgb(0,0,0)" stroke-opacity="1" fill="rgb(255,255,255)" fill-opacity="1" d="M-199.6 287.7 L-198.7 287.7 L-197.7 287.9 L-196.7 288.1 L-195.7 288.3 L-194.8 288.7 L-193.9 289.1 L-193.1 289.6 L-192.2 290.2 L-191.5 290.8 L-190.8 291.5 L-190.1 292.2 L-189.5 293 L-189 293.8 L-188.5 294.7 L-188.1 295.6 L-187.8 296.5 L-187.5 297.5 L-187.3 298.5 L-187.2 299.5 L-187.2 300.5 L-187.3 301.4 L-187.4 302.4 L-187.6 303.4 L-187.9 304.3 L-188.3 305.3 L-188.8 306.1 L-189.3 307 L-189.8 307.8 L-190.5 308.6 L-191.2 309.3 L-191.9 309.9 L-192.7 310.5 L-193.6 311 L-194.4 311.5 L-195.4 311.8 L-196.3 312.2 L-197.3 312.4 L-198.3 312.5 L-199.2 312.6 L-200.2 312.6 L-201.2 312.5 L-202.2 312.4 L-203.2 312.1 L-204.1 311.8 L-205 311.4 L-205.9 311 L-206.7 310.4 L-207.5 309.9 L-208.3 309.2 L-209 308.5 L-209.6 307.7 L-210.2 306.9 L-210.7 306.1 L-211.1 305.2 L-211.5 304.2 L-211.8 303.3 L-212 302.3 L-212.1 301.3 L-212.2 300.4 L-212.1 299.4 L-212 298.4 L-211.8 297.4 L-211.6 296.4 L-211.3 295.5 L-210.9 294.6 L-210.4 293.7 L-209.8 292.9 L-209.2 292.1 L-208.6 291.4 L-207.8 290.7 L-207.1 290.1 L-206.2 289.5 L-205.4 289.1 L-204.5 288.6 L-203.5 288.3 L-202.6 288 L-201.6 287.8 L-200.6 287.7 L-199.6 287.7 Z " />
<path stroke="rgb(0,0,0)" stroke-opacity="1" fill="rgb(255,255,255)" fill-opacity="1" d="M-217.3 180.4 L-216.3 180.5 L-215.3 180.6 L-214.3 180.7 L-213.3 180.8 L-212.3 180.9 L-211.3 180.9 L-210.3 181 L-209.3 181.1 L-208.3 181.2 L-207.3 181.3 L-206.3 181.4 L-205.4 181.5 L-204.4 181.6 L-203.4 181.7 L-202.4 181.8 L-201.4 181.9 L-200.4 182 L-199.4 182.1 L-198.4 182.2 L-197.4 182.3 L-196.4 182.4 L-195.4 182.5 L-194.5 182.6 L-193.5 182.7 L-192.5 182.8 L-192.6 183.8 L-192.7 184.8 L-192.8 185.7 L-192.9 186.7 L-193 187.7 L-193 188.7 L-193.1 189.7 L-193.2 190.7 L-193.3 191.7 L-193.4 192.7 L-193.5 193.7 L-193.6 194.7 L-193.7 195.7 L-193.8 196.6 L-193.9 197.6 L-194 198.6 L-194.1 199.6 L-194.2 200.6 L-194.3 201.6 L-194.4 202.6 L-194.5 203.6 L-194.6 204.6 L-194.7 205.6 L-194.8 206.6 L-194.9 207.6 L-195.9 207.5 L-196.9 207.4 L-197.8 207.3 L-198.8 207.2 L-199.8 207.1 L-200.8 207 L-201.8 206.9 L-202.8 206.8 L-203.8 206.7 L-204.8 206.6 L-205.8 206.5 L-206.8 206.4 L-207.8 206.3 L-208.7 206.2 L-209.7 206.1 L-210.7 206 L-211.7 205.9 L-212.7 205.8 L-213.7 205.7 L-214.7 205.6 L-215.7 205.5 L-216.7 205.4 L-217.7 205.3 L-218.7 205.2 L-219.7 205.2 L-219.6 204.2 L-219.5 203.2 L-219.4 202.2 L-219.3 201.2 L-219.2 200.2 L-219.1 199.2 L-219 198.2 L-218.9 197.2 L-218.8 196.2 L-218.7 195.2 L-218.6 194.2 L-218.5 193.3 L-218.4 192.3 L-218.3 191.3 L-218.2 190.3 L-218.1 189.3 L-218 188.3 L-217.9 187.3 L-217.8 186.3 L-217.7 185.3 L-217.6 184.3 L-217.5 183.3 L-217.4 182.4 L-217.3 181.4 L-217.3 180.4 Z " />
<path stroke="rgb(0,0,0)" stroke-opacity="1" fill="rgb(255,255,255)" fill-opacity="1" d="M0.3584 287.7 L1.349 287.7 L2.332 287.9 L3.303 288.1 L4.255 288.3 L5.182 288.7 L6.078 289.1 L6.938 289.6 L7.756 290.2 L8.527 290.8 L9.246 291.5 L9.908 292.2 L10.51 293 L11.05 293.8 L11.52 294.7 L11.92 295.6 L12.24 296.5 L12.49 297.5 L12.66 298.5 L12.76 299.5 L12.77 300.5 L12.71 301.4 L12.57 302.4 L12.35 303.4 L12.06 304.3 L11.69 305.3 L11.25 306.1 L10.74 307 L10.16 307.8 L9.522 308.6 L8.825 309.3 L8.075 309.9 L7.276 310.5 L6.432 311 L5.55 311.5 L4.635 311.8 L3.692 312.2 L2.729 312.4 L1.749 312.5 L0.761 312.6 L-0.2301 312.6 L-1.218 312.5 L-2.196 312.4 L-3.158 312.1 L-4.098 311.8 L-5.011 311.4 L-5.889 311 L-6.729 310.4 L-7.524 309.9 L-8.269 309.2 L-8.96 308.5 L-9.593 307.7 L-10.16 306.9 L-10.67 306.1 L-11.1 305.2 L-11.46 304.2 L-11.75 303.3 L-11.96 302.3 L-12.1 301.3 L-12.15 300.4 L-12.13 299.4 L-12.03 298.4 L-11.85 297.4 L-11.59 296.4 L-11.26 295.5 L-10.85 294.6 L-10.38 293.7 L-9.832 292.9 L-9.225 292.1 L-8.557 291.4 L-7.833 290.7 L-7.057 290.1 L-6.235 289.5 L-5.372 289.1 L-4.473 288.6 L-3.543 288.3 L-2.589 288 L-1.617 287.8 L-0.6321 287.7 L0.3584 287.7 Z " />
<path stroke="rgb(0,0,0)" stroke-opacity="1" fill="rgb(255,255,255)" fill-opacity="1" d="M-13.42 186.1 L-12.42 186.1 L-11.43 186.1 L-10.43 186.1 L-9.435 186.2 L-8.439 186.2 L-7.443 186.2 L-6.448 186.2 L-5.452 186.2 L-4.457 186.3 L-3.461 186.3 L-2.465 186.3 L-1.47 186.3 L-0.474 186.3 L0.5216 186.4 L1.517 186.4 L2.513 186.4 L3.508 186.4 L4.504 186.4 L5.5 186.5 L6.495 186.5 L7.491 186.5 L8.486 186.5 L9.482 186.5 L10.48 186.6 L11.47 186.6 L11.45 187.6 L11.43 188.6 L11.41 189.6 L11.39 190.6 L11.37 191.6 L11.35 192.6 L11.33 193.6 L11.31 194.6 L11.29 195.5 L11.27 196.5 L11.25 197.5 L11.22 198.5 L11.2 199.5 L11.18 200.5 L11.16 201.5 L11.14 202.5 L11.12 203.5 L11.1 204.5 L11.08 205.5 L11.06 206.5 L11.04 207.5 L11.02 208.5 L11 209.5 L10.98 210.5 L10.96 211.5 L9.96 211.5 L8.965 211.4 L7.969 211.4 L6.973 211.4 L5.978 211.4 L4.982 211.4 L3.987 211.3 L2.991 211.3 L1.995 211.3 L0.9997 211.3 L0.004111 211.3 L-0.9915 211.2 L-1.987 211.2 L-2.983 211.2 L-3.978 211.2 L-4.974 211.1 L-5.97 211.1 L-6.965 211.1 L-7.961 211.1 L-8.956 211.1 L-9.952 211 L-10.95 211 L-11.94 211 L-12.94 211 L-13.93 211 L-13.91 210 L-13.89 209 L-13.87 208 L-13.85 207 L-13.83 206 L-13.81 205 L-13.79 204 L-13.77 203 L-13.75 202 L-13.73 201 L-13.71 200 L-13.69 199 L-13.67 198 L-13.64 197 L-13.62 196 L-13.6 195 L-13.58 194 L-13.56 193 L-13.54 192 L-13.52 191 L-13.5 190.1 L-13.48 189.1 L-13.46 188.1 L-13.44 187.1 L-13.42 186.1 Z " />
<path stroke="rgb(0,0,0)" stroke-opacity="1" fill="rgb(255,255,255)" fill-opacity="1" d="M202.4 287 L203.4 287.2 L204.5 287.5 L205.5 287.9 L206.4 288.3 L207.3 288.8 L208.2 289.4 L209 290.1 L209.8 290.8 L210.5 291.6 L211.2 292.4 L211.8 293.3 L212.3 294.3 L212.7 295.2 L213 296.2 L213.3 297.3 L213.5 298.3 L213.6 299.4 L213.6 300.4 L213.6 301.5 L213.4 302.5 L213.2 303.6 L212.9 304.6 L212.5 305.6 L212 306.5 L211.5 307.4 L210.9 308.3 L210.2 309.1 L209.4 309.9 L208.6 310.6 L207.8 311.2 L206.9 311.8 L205.9 312.3 L205 312.7 L204 313 L202.9 313.3 L201.9 313.4 L200.8 313.5 L199.8 313.5 L198.7 313.4 L197.6 313.3 L196.6 313 L195.6 312.7 L194.6 312.3 L193.7 311.8 L192.8 311.2 L191.9 310.6 L191.1 309.9 L190.4 309.1 L189.7 308.3 L189.1 307.4 L188.6 306.5 L188.1 305.6 L187.7 304.6 L187.4 303.6 L187.1 302.5 L187 301.5 L186.9 300.4 L187 299.4 L187.1 298.3 L187.3 297.3 L187.5 296.2 L187.9 295.2 L188.3 294.3 L188.8 293.3 L189.4 292.4 L190 291.6 L190.8 290.8 L191.5 290.1 L192.4 289.4 L193.2 288.8 L194.2 288.3 L195.1 287.9 L196.1 287.5 L197.1 287.2 L198.2 287 L199.2 286.9 L200.3 286.8 L201.3 286.9 L202.4 287 Z " />
<path stroke="rgb(0,0,0)" stroke-opacity="1" fill="rgb(255,255,255)" fill-opacity="1" d="M187.5 187.4 L188.5 187.4 L189.4 187.4 L190.4 187.4 L191.4 187.4 L192.4 187.4 L193.4 187.4 L194.4 187.4 L195.4 187.4 L196.4 187.4 L197.4 187.4 L198.4 187.4 L199.4 187.4 L200.4 187.4 L201.4 187.4 L202.4 187.4 L203.4 187.4 L204.4 187.4 L205.4 187.4 L206.4 187.4 L207.4 187.4 L208.4 187.4 L209.4 187.4 L210.4 187.5 L211.4 187.5 L212.4 187.5 L212.4 188.5 L212.3 189.5 L212.3 190.4 L212.3 191.4 L212.3 192.4 L212.3 193.4 L212.3 194.4 L212.3 195.4 L212.3 196.4 L212.3 197.4 L212.3 198.4 L212.3 199.4 L212.3 200.4 L212.3 201.4 L212.3 202.4 L212.3 203.4 L212.3 204.4 L212.3 205.4 L212.3 206.4 L212.3 207.4 L212.3 208.4 L212.3 209.4 L212.3 210.4 L212.3 211.4 L212.3 212.4 L211.3 212.4 L210.3 212.3 L209.3 212.3 L208.3 212.3 L207.3 212.3 L206.3 212.3 L205.3 212.3 L204.3 212.3 L203.3 212.3 L202.3 212.3 L201.3 212.3 L200.3 212.3 L199.3 212.3 L198.3 212.3 L197.3 212.3 L196.3 212.3 L195.3 212.3 L194.3 212.3 L193.3 212.3 L192.3 212.3 L191.3 212.3 L190.4 212.3 L189.4 212.3 L188.4 212.3 L187.4 212.3 L187.4 211.3 L187.4 210.3 L187.4 209.3 L187.4 208.3 L187.4 207.3 L187.4 206.3 L187.4 205.3 L187.4 204.3 L187.4 203.3 L187.4 202.3 L187.4 201.3 L187.4 200.3 L187.4 199.3 L187.4 198.3 L187.4 197.3 L187.4 196.3 L187.4 195.3 L187.4 194.3 L187.4 193.3 L187.4 192.3 L187.4 191.4 L187.4 190.4 L187.5 189.4 L187.5 188.4 L187.5 187.4 Z " />
</g>
</g>
</svg>
