<!DOCTYPE svg>
<svg xmlns="http://www.w3.org/2000/svg" xmlns:xlink="http://www.w3.org/1999/xlink" width="560" height="560">
<g transform="translate(280.000000,280.000000)">
<g transform="scale(3.000000,3.000000)">
<path stroke="rgb(0,0,0)" stroke-opacity="0.999" fill="rgb(255,255,255)" fill-opacity="1" d="M-324.3 -325 L-322.3 -325 L-320.3 -325 L-318.4 -324.9 L-316.4 -324.9 L-314.4 -324.9 L-312.4 -324.8 L-310.5 -324.8 L-308.5 -324.8 L-306.5 -324.8 L-304.6 -324.7 L-302.6 -324.7 L-300.6 -324.7 L-298.6 -324.6 L-296.7 -324.6 L-294.7 -324.6 L-292.7 -324.5 L-290.8 -324.5 L-288.8 -324.5 L-286.8 -324.5 L-284.8 -324.4 L-282.9 -324.4 L-280.9 -324.4 L-278.9 -324.3 L-277 -324.3 L-275 -324.3 L-275 -322.3 L-275 -320.3 L-275.1 -318.4 L-275.1 -316.4 L-275.1 -314.4 L-275.2 -312.4 L-275.2 -310.5 L-275.2 -308.5 L-275.3 -306.5 L-275.3 -304.6 L-275.3 -302.6 L-275.3 -300.6 L-275.4 -298.6 L-275.4 -296.7 L-275.4 -294.7 L-275.5 -292.7 L-275.5 -290.7 L-275.5 -288.8 L-275.6 -286.8 L-275.6 -284.8 L-275.6 -282.9 L-275.6 -280.9 L-275.7 -278.9 L-275.7 -276.9 L-275.7 -275 L-277.7 -275 L-279.7 -275 L-281.7 -275.1 L-283.6 -275.1 L-285.6 -275.1 L-287.6 -275.2 L-289.5 -275.2 L-291.5 -275.2 L-293.5 -275.2 L-295.5 -275.3 L-297.4 -275.3 L-299.4 -275.3 L-301.4 -275.4 L-303.3 -275.4 L-305.3 -275.4 L-307.3 -275.5 L-309.3 -275.5 L-311.2 -275.5 L-313.2 -275.5 L-315.2 -275.6 L-317.1 -275.6 L-319.1 -275.6 L-321.1 -275.7 L-323.1 -275.7 L-325 -275.7 L-325 -277.7 L-325 -279.7 L-324.9 -281.6 L-324.9 -283.6 L-324.9 -285.6 L-324.9 -287.6 L-324.8 -289.5 L-324.8 -291.5 L-324.8 -293.5 L-324.7 -295.4 L-324.7 -297.4 L-324.7 -299.4 L-324.6 -301.4 L-324.6 -303.3 L-324.6 -305.3 L-324.6 -307.3 L-324.5 -309.3 L-324.5 -311.2 L-324.5 -313.2 L-324.4 -315.2 L-324.4 -317.1 L-324.4 -319.1 L-324.3 -321.1 L-324.3 -323.1 L-324.3 -325 Z " />
<path stroke="rgb(0,0,0)" stroke-opacity="1" fill="rgb(255,255,255)" fill-opacity="1" d="M-851.3 -999.2 L-851.5 -995.3 L-852 -991.5 L-852.8 -987.7 L-853.9 -983.9 L-855.3 -980.3 L-857 -976.8 L-859 -973.5 L-861.2 -970.3 L-863.7 -967.3 L-866.4 -964.5 L-869.3 -961.9 L-872.4 -959.6 L-875.7 -957.5 L-879.1 -955.7 L-882.7 -954.2 L-886.3 -953 L-890.1 -952 L-893.9 -951.4 L-897.8 -951 L-901.7 -951 L-905.6 -951.3 L-909.4 -951.9 L-913.2 -952.8 L-916.9 -954 L-920.5 -955.4 L-923.9 -957.2 L-927.2 -959.2 L-930.4 -961.5 L-933.3 -964 L-936.1 -966.8 L-938.6 -969.7 L-940.8 -972.9 L-942.8 -976.2 L-944.6 -979.7 L-946 -983.3 L-947.2 -987 L-948.1 -990.8 L-948.6 -994.6 L-948.9 -998.5 L-948.8 -1002 L-948.5 -1006 L-947.8 -1010 L-946.9 -1014 L-945.6 -1017 L-944.1 -1021 L-942.2 -1024 L-940.1 -1028 L-937.8 -1031 L-935.2 -1034 L-932.4 -1036 L-929.4 -1039 L-926.2 -1041 L-922.8 -1043 L-919.3 -1045 L-915.7 -1046 L-912 -1047 L-908.2 -1048 L-904.3 -1048 L-900.4 -1049 L-896.6 -1048 L-892.7 -1048 L-888.9 -1047 L-885.2 -1046 L-881.5 -1045 L-878 -1043 L-874.6 -1041 L-871.4 -1039 L-868.3 -1037 L-865.5 -1034 L-862.9 -1031 L-860.5 -1028 L-858.3 -1025 L-856.4 -1022 L-854.8 -1018 L-853.5 -1014 L-852.5 -1011 L-851.8 -1007 L-851.4 -1003 L-851.3 -999.2 Z " />
<path stroke="rgb(0,0,0)" stroke-opacity="0.999" fill="rgb(255,255,255)" fill-opacity="1" d="M-124.3 -325 L-122.3 -325 L-120.3 -325 L-118.4 -324.9 L-116.4 -324.9 L-114.4 -324.9 L-112.4 -324.8 L-110.5 -324.8 L-108.5 -324.8 L-106.5 -324.8 L-104.6 -324.7 L-102.6 -324.7 L-100.6 -324.7 L-98.64 -324.6 L-96.67 -324.6 L-94.7 -324.6 L-92.73 -324.5 L-90.76 -324.5 L-88.78 -324.5 L-86.81 -324.5 L-84.84 -324.4 L-82.87 -324.4 L-80.9 -324.4 L-78.93 -324.3 L-76.95 -324.3 L-74.98 -324.3 L-75.01 -322.3 L-75.04 -320.3 L-75.07 -318.4 L-75.1 -316.4 L-75.13 -314.4 L-75.16 -312.4 L-75.19 -310.5 L-75.22 -308.5 L-75.25 -306.5 L-75.28 -304.6 L-75.31 -302.6 L-75.34 -300.6 L-75.37 -298.6 L-75.4 -296.7 L-75.43 -294.7 L-75.46 -292.7 L-75.49 -290.7 L-75.52 -288.8 L-75.55 -286.8 L-75.58 -284.8 L-75.61 -282.9 L-75.64 -280.9 L-75.67 -278.9 L-75.7 -276.9 L-75.73 -275 L-77.71 -275 L-79.68 -275 L-81.65 -275.1 L-83.62 -275.1 L-85.59 -275.1 L-87.57 -275.2 L-89.54 -275.2 L-91.51 -275.2 L-93.48 -275.2 L-95.45 -275.3 L-97.43 -275.3 L-99.4 -275.3 L-101.4 -275.4 L-103.3 -275.4 L-105.3 -275.4 L-107.3 -275.5 L-109.3 -275.5 L-111.2 -275.5 L-113.2 -275.5 L-115.2 -275.6 L-117.1 -275.6 L-119.1 -275.6 L-121.1 -275.7 L-123.1 -275.7 L-125 -275.7 L-125 -277.7 L-125 -279.7 L-124.9 -281.6 L-124.9 -283.6 L-124.9 -285.6 L-124.9 -287.6 L-124.8 -289.5 L-124.8 -291.5 L-124.8 -293.5 L-124.7 -295.4 L-124.7 -297.4 L-124.7 -299.4 L-124.6 -301.4 L-124.6 -303.3 L-124.6 -305.3 L-124.6 -307.3 L-124.5 -309.3 L-124.5 -311.2 L-124.5 -313.2 L-124.4 -315.2 L-124.4 -317.1 L-124.4 -319.1 L-124.3 -321.1 L-124.3 -323.1 L-124.3 -325 Z " />
<path stroke="rgb(0,0,0)" stroke-opacity="1" fill="rgb(255,255,255)" fill-opacity="1" d="M-654.9 -1006 L-654.6 -1003 L-654.5 -999 L-654.7 -995.4 L-655.2 -991.8 L-655.9 -988.2 L-657 -984.8 L-658.3 -981.4 L-659.9 -978.1 L-661.7 -975 L-663.8 -972 L-666.1 -969.2 L-668.7 -966.6 L-671.4 -964.3 L-674.3 -962.1 L-677.4 -960.2 L-680.6 -958.5 L-683.9 -957.1 L-687.4 -955.9 L-690.9 -955.1 L-694.5 -954.5 L-698.1 -954.2 L-701.7 -954.2 L-705.3 -954.4 L-708.9 -955 L-712.4 -955.8 L-715.9 -957 L-719.2 -958.4 L-722.4 -960 L-725.5 -961.9 L-728.4 -964.1 L-731.2 -966.4 L-733.7 -969 L-736.1 -971.8 L-738.2 -974.7 L-740 -977.8 L-741.7 -981.1 L-743 -984.4 L-744.1 -987.9 L-744.9 -991.4 L-745.4 -995 L-745.6 -998.6 L-745.6 -1002 L-745.2 -1006 L-744.6 -1009 L-743.7 -1013 L-742.5 -1016 L-741 -1020 L-739.3 -1023 L-737.3 -1026 L-735.1 -1029 L-732.7 -1032 L-730.1 -1034 L-727.3 -1036 L-724.3 -1038 L-721.1 -1040 L-717.9 -1042 L-714.5 -1043 L-711 -1044 L-707.4 -1045 L-703.8 -1045 L-700.2 -1045 L-696.6 -1045 L-693 -1045 L-689.4 -1044 L-685.9 -1043 L-682.5 -1042 L-679.3 -1040 L-676.1 -1039 L-673.1 -1036 L-670.3 -1034 L-667.6 -1032 L-665.2 -1029 L-662.9 -1026 L-661 -1023 L-659.2 -1020 L-657.7 -1017 L-656.5 -1013 L-655.6 -1010 L-654.9 -1006 Z " />
<path stroke="rgb(0,0,0)" stroke-opacity="0.999" fill="rgb(255,255,255)" fill-opacity="1" d="M75.72 -325 L77.69 -325 L79.66 -325 L81.64 -324.9 L83.61 -324.9 L85.58 -324.9 L87.55 -324.8 L89.52 -324.8 L91.5 -324.8 L93.47 -324.8 L95.44 -324.7 L97.41 -324.7 L99.38 -324.7 L101.4 -324.6 L103.3 -324.6 L105.3 -324.6 L107.3 -324.5 L109.2 -324.5 L111.2 -324.5 L113.2 -324.5 L115.2 -324.4 L117.1 -324.4 L119.1 -324.4 L121.1 -324.3 L123 -324.3 L125 -324.3 L125 -322.3 L125 -320.3 L124.9 -318.4 L124.9 -316.4 L124.9 -314.4 L124.8 -312.4 L124.8 -310.5 L124.8 -308.5 L124.7 -306.5 L124.7 -304.6 L124.7 -302.6 L124.7 -300.6 L124.6 -298.6 L124.6 -296.7 L124.6 -294.7 L124.5 -292.7 L124.5 -290.7 L124.5 -288.8 L124.4 -286.8 L124.4 -284.8 L124.4 -282.9 L124.4 -280.9 L124.3 -278.9 L124.3 -276.9 L124.3 -275 L122.3 -275 L120.3 -275 L118.3 -275.1 L116.4 -275.1 L114.4 -275.1 L112.4 -275.2 L110.5 -275.2 L108.5 -275.2 L106.5 -275.2 L104.5 -275.3 L102.6 -275.3 L100.6 -275.3 L98.63 -275.4 L96.66 -275.4 L94.69 -275.4 L92.71 -275.5 L90.74 -275.5 L88.77 -275.5 L86.8 -275.5 L84.83 -275.6 L82.85 -275.6 L80.88 -275.6 L78.91 -275.7 L76.94 -275.7 L74.97 -275.7 L75 -277.7 L75.03 -279.7 L75.06 -281.6 L75.09 -283.6 L75.12 -285.6 L75.15 -287.6 L75.18 -289.5 L75.21 -291.5 L75.24 -293.5 L75.27 -295.4 L75.3 -297.4 L75.33 -299.4 L75.36 -301.4 L75.39 -303.3 L75.42 -305.3 L75.45 -307.3 L75.48 -309.3 L75.51 -311.2 L75.54 -313.2 L75.57 -315.2 L75.6 -317.1 L75.63 -319.1 L75.66 -321.1 L75.69 -323.1 L75.72 -325 Z " />
<path stroke="rgb(0,0,0)" stroke-opacity="1" fill="rgb(255,255,255)" fill-opacity="1" d="M-481.2 -1025 L-479.2 -1024 L-477.4 -1022 L-475.6 -1020 L-474 -1018 L-472.6 -1016 L-471.4 -1014 L-470.3 -1012 L-469.4 -1009 L-468.7 -1007 L-468.2 -1004 L-467.9 -1002 L-467.8 -999.4 L-467.9 -996.9 L-468.2 -994.4 L-468.7 -991.9 L-469.4 -989.5 L-470.3 -987.1 L-471.4 -984.8 L-472.6 -982.6 L-474.1 -980.5 L-475.7 -978.5 L-477.4 -976.7 L-479.3 -975 L-481.3 -973.4 L-483.4 -972 L-485.7 -970.8 L-488 -969.8 L-490.4 -969 L-492.8 -968.3 L-495.3 -967.9 L-497.8 -967.6 L-500.4 -967.6 L-502.9 -967.7 L-505.4 -968.1 L-507.9 -968.6 L-510.3 -969.4 L-512.7 -970.3 L-515 -971.4 L-517.1 -972.7 L-519.2 -974.2 L-521.2 -975.8 L-523 -977.6 L-524.6 -979.5 L-526.1 -981.6 L-527.5 -983.7 L-528.6 -986 L-529.6 -988.3 L-530.4 -990.7 L-531 -993.2 L-531.4 -995.7 L-531.6 -998.2 L-531.6 -1001 L-531.4 -1003 L-531 -1006 L-530.4 -1008 L-529.6 -1011 L-528.6 -1013 L-527.4 -1015 L-526.1 -1017 L-524.6 -1019 L-522.9 -1021 L-521.1 -1023 L-519.2 -1025 L-517.1 -1026 L-514.9 -1028 L-512.6 -1029 L-510.3 -1030 L-507.8 -1030 L-505.4 -1031 L-502.8 -1031 L-500.3 -1031 L-497.8 -1031 L-495.3 -1031 L-492.8 -1031 L-490.3 -1030 L-487.9 -1029 L-485.6 -1028 L-483.4 -1027 L-481.2 -1025 Z " />
<path stroke="rgb(0,0,0)" stroke-opacity="0.999" fill="rgb(255,255,255)" fill-opacity="1" d="M275.7 -325 L277.7 -325 L279.7 -325 L281.6 -324.9 L283.6 -324.9 L285.6 -324.9 L287.6 -324.8 L289.5 -324.8 L291.5 -324.8 L293.5 -324.8 L295.4 -324.7 L297.4 -324.7 L299.4 -324.7 L301.4 -324.6 L303.3 -324.6 L305.3 -324.6 L307.3 -324.5 L309.2 -324.5 L311.2 -324.5 L313.2 -324.5 L315.2 -324.4 L317.1 -324.4 L319.1 -324.4 L321.1 -324.3 L323 -324.3 L325 -324.3 L325 -322.3 L325 -320.3 L324.9 -318.4 L324.9 -316.4 L324.9 -314.4 L324.8 -312.4 L324.8 -310.5 L324.8 -308.5 L324.7 -306.5 L324.7 -304.6 L324.7 -302.6 L324.7 -300.6 L324.6 -298.6 L324.6 -296.7 L324.6 -294.7 L324.5 -292.7 L324.5 -290.7 L324.5 -288.8 L324.4 -286.8 L324.4 -284.8 L324.4 -282.9 L324.4 -280.9 L324.3 -278.9 L324.3 -276.9 L324.3 -275 L322.3 -275 L320.3 -275 L318.3 -275.1 L316.4 -275.1 L314.4 -275.1 L312.4 -275.2 L310.5 -275.2 L308.5 -275.2 L306.5 -275.2 L304.5 -275.3 L302.6 -275.3 L300.6 -275.3 L298.6 -275.4 L296.7 -275.4 L294.7 -275.4 L292.7 -275.5 L290.7 -275.5 L288.8 -275.5 L286.8 -275.5 L284.8 -275.6 L282.9 -275.6 L280.9 -275.6 L278.9 -275.7 L276.9 -275.7 L275 -275.7 L275 -277.7 L275 -279.7 L275.1 -281.6 L275.1 -283.6 L275.1 -285.6 L275.1 -287.6 L275.2 -289.5 L275.2 -291.5 L275.2 -293.5 L275.3 -295.4 L275.3 -297.4 L275.3 -299.4 L275.4 -301.4 L275.4 -303.3 L275.4 -305.3 L275.4 -307.3 L275.5 -309.3 L275.5 -311.2 L275.5 -313.2 L275.6 -315.2 L275.6 -317.1 L275.6 -319.1 L275.7 -321.1 L275.7 -323.1 L275.7 -325 Z " />
<path stroke="rgb(0,0,0)" stroke-opacity="1" fill="rgb(255,255,255)" fill-opacity="1" d="M-951.3 -899.2 L-951.5 -895.3 L-952 -891.5 L-952.8 -887.7 L-953.9 -883.9 L-955.3 -880.3 L-957 -876.8 L-959 -873.5 L-961.2 -870.3 L-963.7 -867.3 L-966.4 -864.5 L-969.3 -861.9 L-972.4 -859.6 L-975.7 -857.5 L-979.1 -855.7 L-982.7 -854.2 L-986.3 -853 L-990.1 -852 L-993.9 -851.4 L-997.8 -851 L-1002 -851 L-1006 -851.3 L-1009 -851.9 L-1013 -852.8 L-1017 -854 L-1020 -855.4 L-1024 -857.2 L-1027 -859.2 L-1030 -861.5 L-1033 -864 L-1036 -866.8 L-1039 -869.7 L-1041 -872.9 L-1043 -876.2 L-1045 -879.7 L-1046 -883.3 L-1047 -887 L-1048 -890.8 L-1049 -894.6 L-1049 -898.5 L-1049 -902.4 L-1048 -906.2 L-1048 -910.1 L-1047 -913.8 L-1046 -917.5 L-1044 -921 L-1042 -924.5 L-1040 -927.7 L-1038 -930.8 L-1035 -933.7 L-1032 -936.4 L-1029 -938.9 L-1026 -941.1 L-1023 -943 L-1019 -944.7 L-1016 -946.1 L-1012 -947.2 L-1008 -948 L-1004 -948.4 L-1000 -948.6 L-996.6 -948.5 L-992.7 -948.1 L-988.9 -947.3 L-985.2 -946.3 L-981.5 -944.9 L-978 -943.3 L-974.6 -941.4 L-971.4 -939.3 L-968.3 -936.9 L-965.5 -934.2 L-962.9 -931.4 L-960.5 -928.3 L-958.3 -925.1 L-956.4 -921.7 L-954.8 -918.1 L-953.5 -914.5 L-952.5 -910.7 L-951.8 -906.9 L-951.4 -903.1 L-951.3 -899.2 Z " />
<path stroke="rgb(0,0,0)" stroke-opacity="0.999" fill="rgb(255,255,255)" fill-opacity="1" d="M-224.3 -225 L-222.3 -225 L-220.3 -225 L-218.4 -224.9 L-216.4 -224.9 L-214.4 -224.9 L-212.4 -224.8 L-210.5 -224.8 L-208.5 -224.8 L-206.5 -224.8 L-204.6 -224.7 L-202.6 -224.7 L-200.6 -224.7 L-198.6 -224.6 L-196.7 -224.6 L-194.7 -224.6 L-192.7 -224.5 L-190.8 -224.5 L-188.8 -224.5 L-186.8 -224.5 L-184.8 -224.4 L-182.9 -224.4 L-180.9 -224.4 L-178.9 -224.3 L-177 -224.3 L-175 -224.3 L-175 -222.3 L-175 -220.3 L-175.1 -218.4 L-175.1 -216.4 L-175.1 -214.4 L-175.2 -212.4 L-175.2 -210.5 L-175.2 -208.5 L-175.3 -206.5 L-175.3 -204.6 L-175.3 -202.6 L-175.3 -200.6 L-175.4 -198.6 L-175.4 -196.7 L-175.4 -194.7 L-175.5 -192.7 L-175.5 -190.7 L-175.5 -188.8 L-175.6 -186.8 L-175.6 -184.8 L-175.6 -182.9 L-175.6 -180.9 L-175.7 -178.9 L-175.7 -176.9 L-175.7 -175 L-177.7 -175 L-179.7 -175 L-181.7 -175.1 L-183.6 -175.1 L-185.6 -175.1 L-187.6 -175.2 L-189.5 -175.2 L-191.5 -175.2 L-193.5 -175.2 L-195.5 -175.3 L-197.4 -175.3 L-199.4 -175.3 L-201.4 -175.4 L-203.3 -175.4 L-205.3 -175.4 L-207.3 -175.5 L-209.3 -175.5 L-211.2 -175.5 L-213.2 -175.5 L-215.2 -175.6 L-217.1 -175.6 L-219.1 -175.6 L-221.1 -175.7 L-223.1 -175.7 L-225 -175.7 L-225 -177.7 L-225 -179.7 L-224.9 -181.6 L-224.9 -183.6 L-224.9 -185.6 L-224.9 -187.6 L-224.8 -189.5 L-224.8 -191.5 L-224.8 -193.5 L-224.7 -195.4 L-224.7 -197.4 L-224.7 -199.4 L-224.6 -201.4 L-224.6 -203.3 L-224.6 -205.3 L-224.6 -207.3 L-224.5 -209.3 L-224.5 -211.2 L-224.5 -213.2 L-224.4 -215.2 L-224.4 -217.1 L-224.4 -219.1 L-224.3 -221.1 L-224.3 -223.1 L-224.3 -225 Z " />
<path stroke="rgb(0,0,0)" stroke-opacity="1" fill="rgb(255,255,255)" fill-opacity="1" d="M-754.9 -906.2 L-754.6 -902.6 L-754.5 -899 L-754.7 -895.4 L-755.2 -891.8 L-755.9 -888.2 L-757 -884.8 L-758.3 -881.4 L-759.9 -878.1 L-761.7 -875 L-763.8 -872 L-766.1 -869.2 L-768.7 -866.6 L-771.4 -864.3 L-774.3 -862.1 L-777.4 -860.2 L-780.6 -858.5 L-783.9 -857.1 L-787.4 -855.9 L-790.9 -855.1 L-794.5 -854.5 L-798.1 -854.2 L-801.7 -854.2 L-805.3 -854.4 L-808.9 -855 L-812.4 -855.8 L-815.9 -857 L-819.2 -858.4 L-822.4 -860 L-825.5 -861.9 L-828.4 -864.1 L-831.2 -866.4 L-833.7 -869 L-836.1 -871.8 L-838.2 -874.7 L-840 -877.8 L-841.7 -881.1 L-843 -884.4 L-844.1 -887.9 L-844.9 -891.4 L-845.4 -895 L-845.6 -898.6 L-845.6 -902.3 L-845.2 -905.9 L-844.6 -909.4 L-843.7 -913 L-842.5 -916.4 L-841 -919.7 L-839.3 -922.9 L-837.3 -925.9 L-835.1 -928.8 L-832.7 -931.5 L-830.1 -934 L-827.3 -936.3 L-824.3 -938.3 L-821.1 -940.1 L-817.9 -941.7 L-814.5 -943 L-811 -944 L-807.4 -944.7 L-803.8 -945.1 L-800.2 -945.3 L-796.6 -945.2 L-793 -944.8 L-789.4 -944.1 L-785.9 -943.1 L-782.5 -941.8 L-779.3 -940.3 L-776.1 -938.5 L-773.1 -936.5 L-770.3 -934.2 L-767.6 -931.7 L-765.2 -929.1 L-762.9 -926.2 L-761 -923.2 L-759.2 -920 L-757.7 -916.7 L-756.5 -913.3 L-755.6 -909.8 L-754.9 -906.2 Z " />
<path stroke="rgb(0,0,0)" stroke-opacity="0.999" fill="rgb(255,255,255)" fill-opacity="1" d="M-24.28 -225 L-22.31 -225 L-20.34 -225 L-18.36 -224.9 L-16.39 -224.9 L-14.42 -224.9 L-12.45 -224.8 L-10.48 -224.8 L-8.504 -224.8 L-6.532 -224.8 L-4.56 -224.7 L-2.588 -224.7 L-0.6165 -224.7 L1.355 -224.6 L3.327 -224.6 L5.299 -224.6 L7.271 -224.5 L9.243 -224.5 L11.22 -224.5 L13.19 -224.5 L15.16 -224.4 L17.13 -224.4 L19.1 -224.4 L21.07 -224.3 L23.05 -224.3 L25.02 -224.3 L24.99 -222.3 L24.96 -220.3 L24.93 -218.4 L24.9 -216.4 L24.87 -214.4 L24.84 -212.4 L24.81 -210.5 L24.78 -208.5 L24.75 -206.5 L24.72 -204.6 L24.69 -202.6 L24.66 -200.6 L24.63 -198.6 L24.6 -196.7 L24.57 -194.7 L24.54 -192.7 L24.51 -190.7 L24.48 -188.8 L24.45 -186.8 L24.42 -184.8 L24.39 -182.9 L24.36 -180.9 L24.33 -178.9 L24.3 -176.9 L24.27 -175 L22.29 -175 L20.32 -175 L18.35 -175.1 L16.38 -175.1 L14.41 -175.1 L12.43 -175.2 L10.46 -175.2 L8.49 -175.2 L6.518 -175.2 L4.546 -175.3 L2.574 -175.3 L0.6021 -175.3 L-1.37 -175.4 L-3.342 -175.4 L-5.314 -175.4 L-7.286 -175.5 L-9.258 -175.5 L-11.23 -175.5 L-13.2 -175.5 L-15.17 -175.6 L-17.15 -175.6 L-19.12 -175.6 L-21.09 -175.7 L-23.06 -175.7 L-25.03 -175.7 L-25 -177.7 L-24.97 -179.7 L-24.94 -181.6 L-24.91 -183.6 L-24.88 -185.6 L-24.85 -187.6 L-24.82 -189.5 L-24.79 -191.5 L-24.76 -193.5 L-24.73 -195.4 L-24.7 -197.4 L-24.67 -199.4 L-24.64 -201.4 L-24.61 -203.3 L-24.58 -205.3 L-24.55 -207.3 L-24.52 -209.3 L-24.49 -211.2 L-24.46 -213.2 L-24.43 -215.2 L-24.4 -217.1 L-24.37 -219.1 L-24.34 -221.1 L-24.31 -223.1 L-24.28 -225 Z " />
<path stroke="rgb(0,0,0)" stroke-opacity="1" fill="rgb(255,255,255)" fill-opacity="1" d="M-581.2 -925.5 L-579.2 -923.9 L-577.4 -922.2 L-575.6 -920.4 L-574 -918.4 L-572.6 -916.3 L-571.4 -914.1 L-570.3 -911.8 L-569.4 -909.4 L-568.7 -907 L-568.2 -904.5 L-567.9 -902 L-567.8 -899.4 L-567.9 -896.9 L-568.2 -894.4 L-568.7 -891.9 L-569.4 -889.5 L-570.3 -887.1 L-571.4 -884.8 L-572.6 -882.6 L-574.1 -880.5 L-575.7 -878.5 L-577.4 -876.7 L-579.3 -875 L-581.3 -873.4 L-583.4 -872 L-585.7 -870.8 L-588 -869.8 L-590.4 -869 L-592.8 -868.3 L-595.3 -867.9 L-597.8 -867.6 L-600.4 -867.6 L-602.9 -867.7 L-605.4 -868.1 L-607.9 -868.6 L-610.3 -869.4 L-612.7 -870.3 L-615 -871.4 L-617.1 -872.7 L-619.2 -874.2 L-621.2 -875.8 L-623 -877.6 L-624.6 -879.5 L-626.1 -881.6 L-627.5 -883.7 L-628.6 -886 L-629.6 -888.3 L-630.4 -890.7 L-631 -893.2 L-631.4 -895.7 L-631.6 -898.2 L-631.6 -900.8 L-631.4 -903.3 L-631 -905.8 L-630.4 -908.3 L-629.6 -910.7 L-628.6 -913 L-627.4 -915.3 L-626.1 -917.4 L-624.6 -919.5 L-622.9 -921.4 L-621.1 -923.1 L-619.2 -924.8 L-617.1 -926.2 L-614.9 -927.5 L-612.6 -928.6 L-610.3 -929.6 L-607.8 -930.3 L-605.4 -930.9 L-602.8 -931.2 L-600.3 -931.4 L-597.8 -931.3 L-595.3 -931.1 L-592.8 -930.6 L-590.3 -930 L-587.9 -929.1 L-585.6 -928.1 L-583.4 -926.9 L-581.2 -925.5 Z " />
<path stroke="rgb(0,0,0)" stroke-opacity="0.999" fill="rgb(255,255,255)" fill-opacity="1" d="M175.7 -225 L177.7 -225 L179.7 -225 L181.6 -224.9 L183.6 -224.9 L185.6 -224.9 L187.6 -224.8 L189.5 -224.8 L191.5 -224.8 L193.5 -224.8 L195.4 -224.7 L197.4 -224.7 L199.4 -224.7 L201.4 -224.6 L203.3 -224.6 L205.3 -224.6 L207.3 -224.5 L209.2 -224.5 L211.2 -224.5 L213.2 -224.5 L215.2 -224.4 L217.1 -224.4 L219.1 -224.4 L221.1 -224.3 L223 -224.3 L225 -224.3 L225 -222.3 L225 -220.3 L224.9 -218.4 L224.9 -216.4 L224.9 -214.4 L224.8 -212.4 L224.8 -210.5 L224.8 -208.5 L224.7 -206.5 L224.7 -204.6 L224.7 -202.6 L224.7 -200.6 L224.6 -198.6 L224.6 -196.7 L224.6 -194.7 L224.5 -192.7 L224.5 -190.7 L224.5 -188.8 L224.4 -186.8 L224.4 -184.8 L224.4 -182.9 L224.4 -180.9 L224.3 -178.9 L224.3 -176.9 L224.3 -175 L222.3 -175 L220.3 -175 L218.3 -175.1 L216.4 -175.1 L214.4 -175.1 L212.4 -175.2 L210.5 -175.2 L208.5 -175.2 L206.5 -175.2 L204.5 -175.3 L202.6 -175.3 L200.6 -175.3 L198.6 -175.4 L196.7 -175.4 L194.7 -175.4 L192.7 -175.5 L190.7 -175.5 L188.8 -175.5 L186.8 -175.5 L184.8 -175.6 L182.9 -175.6 L180.9 -175.6 L178.9 -175.7 L176.9 -175.7 L175 -175.7 L175 -177.7 L175 -179.7 L175.1 -181.6 L175.1 -183.6 L175.1 -185.6 L175.1 -187.6 L175.2 -189.5 L175.2 -191.5 L175.2 -193.5 L175.3 -195.4 L175.3 -197.4 L175.3 -199.4 L175.4 -201.4 L175.4 -203.3 L175.4 -205.3 L175.4 -207.3 L175.5 -209.3 L175.5 -211.2 L175.5 -213.2 L175.6 -215.2 L175.6 -217.1 L175.6 -219.1 L175.7 -221.1 L175.7 -223.1 L175.7 -225 Z " />
<path stroke="rgb(0,0,0)" stroke-opacity="1" fill="rgb(255,255,255)" fill-opacity="1" d="M-397.8 -924.5 L-395.8 -924.3 L-393.8 -923.9 L-391.9 -923.4 L-390 -922.7 L-388.2 -921.9 L-386.5 -920.9 L-384.8 -919.8 L-383.3 -918.6 L-381.8 -917.2 L-380.4 -915.8 L-379.2 -914.2 L-378.1 -912.5 L-377.1 -910.8 L-376.3 -909 L-375.6 -907.1 L-375.1 -905.2 L-374.7 -903.2 L-374.5 -901.2 L-374.4 -899.3 L-374.5 -897.3 L-374.8 -895.3 L-375.2 -893.3 L-375.8 -891.4 L-376.5 -889.6 L-377.4 -887.8 L-378.4 -886 L-379.5 -884.4 L-380.8 -882.9 L-382.1 -881.4 L-383.6 -880.1 L-385.2 -878.9 L-386.9 -877.8 L-388.7 -876.9 L-390.5 -876.1 L-392.4 -875.5 L-394.3 -875 L-396.3 -874.6 L-398.2 -874.5 L-400.2 -874.4 L-402.2 -874.6 L-404.2 -874.9 L-406.1 -875.3 L-408 -875.9 L-409.9 -876.7 L-411.7 -877.6 L-413.4 -878.6 L-415 -879.8 L-416.5 -881.1 L-417.9 -882.5 L-419.2 -884 L-420.4 -885.6 L-421.4 -887.3 L-422.3 -889.1 L-423.1 -890.9 L-423.7 -892.8 L-424.1 -894.8 L-424.4 -896.7 L-424.6 -898.7 L-424.5 -900.7 L-424.4 -902.7 L-424 -904.7 L-423.5 -906.6 L-422.9 -908.5 L-422.1 -910.3 L-421.2 -912.1 L-420.1 -913.8 L-418.9 -915.3 L-417.6 -916.8 L-416.2 -918.2 L-414.6 -919.5 L-413 -920.6 L-411.3 -921.6 L-409.5 -922.5 L-407.6 -923.2 L-405.7 -923.8 L-403.7 -924.2 L-401.8 -924.4 L-399.8 -924.5 L-397.8 -924.5 Z " />
<path stroke="rgb(0,0,0)" stroke-opacity="0.999" fill="rgb(255,255,255)" fill-opacity="1" d="M-324.3 -125 L-322.3 -125 L-320.3 -125 L-318.4 -124.9 L-316.4 -124.9 L-314.4 -124.9 L-312.4 -124.8 L-310.5 -124.8 L-308.5 -124.8 L-306.5 -124.8 L-304.6 -124.7 L-302.6 -124.7 L-300.6 -124.7 L-298.6 -124.6 L-296.7 -124.6 L-294.7 -124.6 L-292.7 -124.5 L-290.8 -124.5 L-288.8 -124.5 L-286.8 -124.5 L-284.8 -124.4 L-282.9 -124.4 L-280.9 -124.4 L-278.9 -124.3 L-277 -124.3 L-275 -124.3 L-275 -122.3 L-275 -120.3 L-275.1 -118.4 L-275.1 -116.4 L-275.1 -114.4 L-275.2 -112.4 L-275.2 -110.5 L-275.2 -108.5 L-275.3 -106.5 L-275.3 -104.6 L-275.3 -102.6 L-275.3 -100.6 L-275.4 -98.64 L-275.4 -96.67 L-275.4 -94.69 L-275.5 -92.72 L-275.5 -90.75 L-275.5 -88.78 L-275.6 -86.81 L-275.6 -84.83 L-275.6 -82.86 L-275.6 -80.89 L-275.7 -78.92 L-275.7 -76.95 L-275.7 -74.97 L-277.7 -75 L-279.7 -75.03 L-281.7 -75.06 L-283.6 -75.09 L-285.6 -75.12 L-287.6 -75.15 L-289.5 -75.18 L-291.5 -75.21 L-293.5 -75.24 L-295.5 -75.28 L-297.4 -75.31 L-299.4 -75.34 L-301.4 -75.37 L-303.3 -75.4 L-305.3 -75.43 L-307.3 -75.46 L-309.3 -75.49 L-311.2 -75.52 L-313.2 -75.55 L-315.2 -75.58 L-317.1 -75.61 L-319.1 -75.64 L-321.1 -75.67 L-323.1 -75.7 L-325 -75.73 L-325 -77.7 L-325 -79.67 L-324.9 -81.64 L-324.9 -83.61 L-324.9 -85.59 L-324.9 -87.56 L-324.8 -89.53 L-324.8 -91.5 L-324.8 -93.47 L-324.7 -95.45 L-324.7 -97.42 L-324.7 -99.39 L-324.6 -101.4 L-324.6 -103.3 L-324.6 -105.3 L-324.6 -107.3 L-324.5 -109.3 L-324.5 -111.2 L-324.5 -113.2 L-324.4 -115.2 L-324.4 -117.1 L-324.4 -119.1 L-324.3 -121.1 L-324.3 -123.1 L-324.3 -125 Z " />
<path stroke="rgb(0,0,0)" stroke-opacity="1" fill="rgb(255,255,255)" fill-opacity="1" d="M-854.9 -806.2 L-854.6 -802.6 L-854.5 -799 L-854.7 -795.4 L-855.2 -791.8 L-855.9 -788.2 L-857 -784.8 L-858.3 -781.4 L-859.9 -778.1 L-861.7 -775 L-863.8 -772 L-866.1 -769.2 L-868.7 -766.6 L-871.4 -764.3 L-874.3 -762.1 L-877.4 -760.2 L-880.6 -758.5 L-883.9 -757.1 L-887.4 -755.9 L-890.9 -755.1 L-894.5 -754.5 L-898.1 -754.2 L-901.7 -754.2 L-905.3 -754.4 L-908.9 -755 L-912.4 -755.8 L-915.9 -757 L-919.2 -758.4 L-922.4 -760 L-925.5 -761.9 L-928.4 -764.1 L-931.2 -766.4 L-933.7 -769 L-936.1 -771.8 L-938.2 -774.7 L-940 -777.8 L-941.7 -781.1 L-943 -784.4 L-944.1 -787.9 L-944.9 -791.4 L-945.4 -795 L-945.6 -798.6 L-945.6 -802.3 L-945.2 -805.9 L-944.6 -809.4 L-943.7 -813 L-942.5 -816.4 L-941 -819.7 L-939.3 -822.9 L-937.3 -825.9 L-935.1 -828.8 L-932.7 -831.5 L-930.1 -834 L-927.3 -836.3 L-924.3 -838.3 L-921.1 -840.1 L-917.9 -841.7 L-914.5 -843 L-911 -844 L-907.4 -844.7 L-903.8 -845.1 L-900.2 -845.3 L-896.6 -845.2 L-893 -844.8 L-889.4 -844.1 L-885.9 -843.1 L-882.5 -841.8 L-879.3 -840.3 L-876.1 -838.5 L-873.1 -836.5 L-870.3 -834.2 L-867.6 -831.7 L-865.2 -829.1 L-862.9 -826.2 L-861 -823.2 L-859.2 -820 L-857.7 -816.7 L-856.5 -813.3 L-855.6 -809.8 L-854.9 -806.2 Z " />
<path stroke="rgb(0,0,0)" stroke-opacity="0.999" fill="rgb(255,255,255)" fill-opacity="1" d="M-124.3 -125 L-122.3 -125 L-120.3 -125 L-118.4 -124.9 L-116.4 -124.9 L-114.4 -124.9 L-112.4 -124.8 L-110.5 -124.8 L-108.5 -124.8 L-106.5 -124.8 L-104.6 -124.7 L-102.6 -124.7 L-100.6 -124.7 L-98.64 -124.6 L-96.67 -124.6 L-94.7 -124.6 L-92.73 -124.5 L-90.76 -124.5 L-88.78 -124.5 L-86.81 -124.5 L-84.84 -124.4 L-82.87 -124.4 L-80.9 -124.4 L-78.93 -124.3 L-76.95 -124.3 L-74.98 -124.3 L-75.01 -122.3 L-75.04 -120.3 L-75.07 -118.4 L-75.1 -116.4 L-75.13 -114.4 L-75.16 -112.4 L-75.19 -110.5 L-75.22 -108.5 L-75.25 -106.5 L-75.28 -104.6 L-75.31 -102.6 L-75.34 -100.6 L-75.37 -98.64 L-75.4 -96.67 L-75.43 -94.69 L-75.46 -92.72 L-75.49 -90.75 L-75.52 -88.78 L-75.55 -86.81 L-75.58 -84.83 L-75.61 -82.86 L-75.64 -80.89 L-75.67 -78.92 L-75.7 -76.95 L-75.73 -74.97 L-77.71 -75 L-79.68 -75.03 L-81.65 -75.06 L-83.62 -75.09 L-85.59 -75.12 L-87.57 -75.15 L-89.54 -75.18 L-91.51 -75.21 L-93.48 -75.24 L-95.45 -75.28 L-97.43 -75.31 L-99.4 -75.34 L-101.4 -75.37 L-103.3 -75.4 L-105.3 -75.43 L-107.3 -75.46 L-109.3 -75.49 L-111.2 -75.52 L-113.2 -75.55 L-115.2 -75.58 L-117.1 -75.61 L-119.1 -75.64 L-121.1 -75.67 L-123.1 -75.7 L-125 -75.73 L-125 -77.7 L-125 -79.67 L-124.9 -81.64 L-124.9 -83.61 L-124.9 -85.59 L-124.9 -87.56 L-124.8 -89.53 L-124.8 -91.5 L-124.8 -93.47 L-124.7 -95.45 L-124.7 -97.42 L-124.7 -99.39 L-124.6 -101.4 L-124.6 -103.3 L-124.6 -105.3 L-124.6 -107.3 L-124.5 -109.3 L-124.5 -111.2 L-124.5 -113.2 L-124.4 -115.2 L-124.4 -117.1 L-124.4 -119.1 L-124.3 -121.1 L-124.3 -123.1 L-124.3 -125 Z " />
<path stroke="rgb(0,0,0)" stroke-opacity="1" fill="rgb(255,255,255)" fill-opacity="1" d="M-681.2 -825.5 L-679.2 -823.9 L-677.4 -822.2 L-675.6 -820.4 L-674 -818.4 L-672.6 -816.3 L-671.4 -814.1 L-670.3 -811.8 L-669.4 -809.4 L-668.7 -807 L-668.2 -804.5 L-667.9 -802 L-667.8 -799.4 L-667.9 -796.9 L-668.2 -794.4 L-668.7 -791.9 L-669.4 -789.5 L-670.3 -787.1 L-671.4 -784.8 L-672.6 -782.6 L-674.1 -780.5 L-675.7 -778.5 L-677.4 -776.7 L-679.3 -775 L-681.3 -773.4 L-683.4 -772 L-685.7 -770.8 L-688 -769.8 L-690.4 -769 L-692.8 -768.3 L-695.3 -767.9 L-697.8 -767.6 L-700.4 -767.6 L-702.9 -767.7 L-705.4 -768.1 L-707.9 -768.6 L-710.3 -769.4 L-712.7 -770.3 L-715 -771.4 L-717.1 -772.7 L-719.2 -774.2 L-721.2 -775.8 L-723 -777.6 L-724.6 -779.5 L-726.1 -781.6 L-727.5 -783.7 L-728.6 -786 L-729.6 -788.3 L-730.4 -790.7 L-731 -793.2 L-731.4 -795.7 L-731.6 -798.2 L-731.6 -800.8 L-731.4 -803.3 L-731 -805.8 L-730.4 -808.3 L-729.6 -810.7 L-728.6 -813 L-727.4 -815.3 L-726.1 -817.4 L-724.6 -819.5 L-722.9 -821.4 L-721.1 -823.1 L-719.2 -824.8 L-717.1 -826.2 L-714.9 -827.5 L-712.6 -828.6 L-710.3 -829.6 L-707.8 -830.3 L-705.4 -830.9 L-702.8 -831.2 L-700.3 -831.4 L-697.8 -831.3 L-695.3 -831.1 L-692.8 -830.6 L-690.3 -830 L-687.9 -829.1 L-685.6 -828.1 L-683.4 -826.9 L-681.2 -825.5 Z " />
<path stroke="rgb(0,0,0)" stroke-opacity="0.999" fill="rgb(255,255,255)" fill-opacity="1" d="M75.72 -125 L77.69 -125 L79.66 -125 L81.64 -124.9 L83.61 -124.9 L85.58 -124.9 L87.55 -124.8 L89.52 -124.8 L91.5 -124.8 L93.47 -124.8 L95.44 -124.7 L97.41 -124.7 L99.38 -124.7 L101.4 -124.6 L103.3 -124.6 L105.3 -124.6 L107.3 -124.5 L109.2 -124.5 L111.2 -124.5 L113.2 -124.5 L115.2 -124.4 L117.1 -124.4 L119.1 -124.4 L121.1 -124.3 L123 -124.3 L125 -124.3 L125 -122.3 L125 -120.3 L124.9 -118.4 L124.9 -116.4 L124.9 -114.4 L124.8 -112.4 L124.8 -110.5 L124.8 -108.5 L124.7 -106.5 L124.7 -104.6 L124.7 -102.6 L124.7 -100.6 L124.6 -98.64 L124.6 -96.67 L124.6 -94.69 L124.5 -92.72 L124.5 -90.75 L124.5 -88.78 L124.4 -86.81 L124.4 -84.83 L124.4 -82.86 L124.4 -80.89 L124.3 -78.92 L124.3 -76.95 L124.3 -74.97 L122.3 -75 L120.3 -75.03 L118.3 -75.06 L116.4 -75.09 L114.4 -75.12 L112.4 -75.15 L110.5 -75.18 L108.5 -75.21 L106.5 -75.24 L104.5 -75.28 L102.6 -75.31 L100.6 -75.34 L98.63 -75.37 L96.66 -75.4 L94.69 -75.43 L92.71 -75.46 L90.74 -75.49 L88.77 -75.52 L86.8 -75.55 L84.83 -75.58 L82.85 -75.61 L80.88 -75.64 L78.91 -75.67 L76.94 -75.7 L74.97 -75.73 L75 -77.7 L75.03 -79.67 L75.06 -81.64 L75.09 -83.61 L75.12 -85.59 L75.15 -87.56 L75.18 -89.53 L75.21 -91.5 L75.24 -93.47 L75.27 -95.45 L75.3 -97.42 L75.33 -99.39 L75.36 -101.4 L75.39 -103.3 L75.42 -105.3 L75.45 -107.3 L75.48 -109.3 L75.51 -111.2 L75.54 -113.2 L75.57 -115.2 L75.6 -117.1 L75.63 -119.1 L75.66 -121.1 L75.69 -123.1 L75.72 -125 Z " />
<path stroke="rgb(0,0,0)" stroke-opacity="1" fill="rgb(255,255,255)" fill-opacity="1" d="M-497.8 -824.5 L-495.8 -824.3 L-493.8 -823.9 L-491.9 -823.4 L-490 -822.7 L-488.2 -821.9 L-486.5 -820.9 L-484.8 -819.8 L-483.3 -818.6 L-481.8 -817.2 L-480.4 -815.8 L-479.2 -814.2 L-478.1 -812.5 L-477.1 -810.8 L-476.3 -809 L-475.6 -807.1 L-475.1 -805.2 L-474.7 -803.2 L-474.5 -801.2 L-474.4 -799.3 L-474.5 -797.3 L-474.8 -795.3 L-475.2 -793.3 L-475.8 -791.4 L-476.5 -789.6 L-477.4 -787.8 L-478.4 -786 L-479.5 -784.4 L-480.8 -782.9 L-482.1 -781.4 L-483.6 -780.1 L-485.2 -778.9 L-486.9 -777.8 L-488.7 -776.9 L-490.5 -776.1 L-492.4 -775.5 L-494.3 -775 L-496.3 -774.6 L-498.2 -774.5 L-500.2 -774.4 L-502.2 -774.6 L-504.2 -774.9 L-506.1 -775.3 L-508 -775.9 L-509.9 -776.7 L-511.7 -777.6 L-513.4 -778.6 L-515 -779.8 L-516.5 -781.1 L-517.9 -782.5 L-519.2 -784 L-520.4 -785.6 L-521.4 -787.3 L-522.3 -789.1 L-523.1 -790.9 L-523.7 -792.8 L-524.1 -794.8 L-524.4 -796.7 L-524.6 -798.7 L-524.5 -800.7 L-524.4 -802.7 L-524 -804.7 L-523.5 -806.6 L-522.9 -808.5 L-522.1 -810.3 L-521.2 -812.1 L-520.1 -813.8 L-518.9 -815.3 L-517.6 -816.8 L-516.2 -818.2 L-514.6 -819.5 L-513 -820.6 L-511.3 -821.6 L-509.5 -822.5 L-507.6 -823.2 L-505.7 -823.8 L-503.7 -824.2 L-501.8 -824.4 L-499.8 -824.5 L-497.8 -824.5 Z " />
<path stroke="rgb(0,0,0)" stroke-opacity="0.999" fill="rgb(255,255,255)" fill-opacity="1" d="M275.7 -125 L277.7 -125 L279.7 -125 L281.6 -124.9 L283.6 -124.9 L285.6 -124.9 L287.6 -124.8 L289.5 -124.8 L291.5 -124.8 L293.5 -124.8 L295.4 -124.7 L297.4 -124.7 L299.4 -124.7 L301.4 -124.6 L303.3 -124.6 L305.3 -124.6 L307.3 -124.5 L309.2 -124.5 L311.2 -124.5 L313.2 -124.5 L315.2 -124.4 L317.1 -124.4 L319.1 -124.4 L321.1 -124.3 L323 -124.3 L325 -124.3 L325 -122.3 L325 -120.3 L324.9 -118.4 L324.9 -116.4 L324.9 -114.4 L324.8 -112.4 L324.8 -110.5 L324.8 -108.5 L324.7 -106.5 L324.7 -104.6 L324.7 -102.6 L324.7 -100.6 L324.6 -98.64 L324.6 -96.67 L324.6 -94.69 L324.5 -92.72 L324.5 -90.75 L324.5 -88.78 L324.4 -86.81 L324.4 -84.83 L324.4 -82.86 L324.4 -80.89 L324.3 -78.92 L324.3 -76.95 L324.3 -74.97 L322.3 -75 L320.3 -75.03 L318.3 -75.06 L316.4 -75.09 L314.4 -75.12 L312.4 -75.15 L310.5 -75.18 L308.5 -75.21 L306.5 -75.24 L304.5 -75.28 L302.6 -75.31 L300.6 -75.34 L298.6 -75.37 L296.7 -75.4 L294.7 -75.43 L292.7 -75.46 L290.7 -75.49 L288.8 -75.52 L286.8 -75.55 L284.8 -75.58 L282.9 -75.61 L280.9 -75.64 L278.9 -75.67 L276.9 -75.7 L275 -75.73 L275 -77.7 L275 -79.67 L275.1 -81.64 L275.1 -83.61 L275.1 -85.59 L275.1 -87.56 L275.2 -89.53 L275.2 -91.5 L275.2 -93.47 L275.3 -95.45 L275.3 -97.42 L275.3 -99.39 L275.4 -101.4 L275.4 -103.3 L275.4 -105.3 L275.4 -107.3 L275.5 -109.3 L275.5 -111.2 L275.5 -113.2 L275.6 -115.2 L275.6 -117.1 L275.6 -119.1 L275.7 -121.1 L275.7 -123.1 L275.7 -125 Z " />
<path stroke="rgb(0,0,0)" stroke-opacity="1" fill="rgb(255,255,255)" fill-opacity="1" d="M-954.9 -706.2 L-954.6 -702.6 L-954.5 -699 L-954.7 -695.4 L-955.2 -691.8 L-955.9 -688.2 L-957 -684.8 L-958.3 -681.4 L-959.9 -678.1 L-961.7 -675 L-963.8 -672 L-966.1 -669.2 L-968.7 -666.6 L-971.4 -664.3 L-974.3 -662.1 L-977.4 -660.2 L-980.6 -658.5 L-983.9 -657.1 L-987.4 -655.9 L-990.9 -655.1 L-994.5 -654.5 L-998.1 -654.2 L-1002 -654.2 L-1005 -654.4 L-1009 -655 L-1012 -655.8 L-1016 -657 L-1019 -658.4 L-1022 -660 L-1026 -661.9 L-1028 -664.1 L-1031 -666.4 L-1034 -669 L-1036 -671.8 L-1038 -674.7 L-1040 -677.8 L-1042 -681.1 L-1043 -684.4 L-1044 -687.9 L-1045 -691.4 L-1045 -695 L-1046 -698.6 L-1046 -702.3 L-1045 -705.9 L-1045 -709.4 L-1044 -713 L-1042 -716.4 L-1041 -719.7 L-1039 -722.9 L-1037 -725.9 L-1035 -728.8 L-1033 -731.5 L-1030 -734 L-1027 -736.3 L-1024 -738.3 L-1021 -740.1 L-1018 -741.7 L-1014 -743 L-1011 -744 L-1007 -744.7 L-1004 -745.1 L-1000 -745.3 L-996.6 -745.2 L-993 -744.8 L-989.4 -744.1 L-985.9 -743.1 L-982.5 -741.8 L-979.3 -740.3 L-976.1 -738.5 L-973.1 -736.5 L-970.3 -734.2 L-967.6 -731.7 L-965.2 -729.1 L-962.9 -726.2 L-961 -723.2 L-959.2 -720 L-957.7 -716.7 L-956.5 -713.3 L-955.6 -709.8 L-954.9 -706.2 Z " />
<path stroke="rgb(0,0,0)" stroke-opacity="0.999" fill="rgb(255,255,255)" fill-opacity="1" d="M-224.3 -25.03 L-222.3 -25 L-220.3 -24.97 L-218.4 -24.94 L-216.4 -24.91 L-214.4 -24.88 L-212.4 -24.84 L-210.5 -24.81 L-208.5 -24.78 L-206.5 -24.75 L-204.6 -24.72 L-202.6 -24.69 L-200.6 -24.66 L-198.6 -24.63 L-196.7 -24.6 L-194.7 -24.57 L-192.7 -24.54 L-190.8 -24.51 L-188.8 -24.48 L-186.8 -24.45 L-184.8 -24.42 L-182.9 -24.39 L-180.9 -24.36 L-178.9 -24.33 L-177 -24.3 L-175 -24.27 L-175 -22.3 L-175 -20.33 L-175.1 -18.36 L-175.1 -16.38 L-175.1 -14.41 L-175.2 -12.44 L-175.2 -10.47 L-175.2 -8.497 L-175.3 -6.525 L-175.3 -4.553 L-175.3 -2.581 L-175.3 -0.6091 L-175.4 1.363 L-175.4 3.335 L-175.4 5.307 L-175.5 7.279 L-175.5 9.251 L-175.5 11.22 L-175.6 13.19 L-175.6 15.17 L-175.6 17.14 L-175.6 19.11 L-175.7 21.08 L-175.7 23.05 L-175.7 25.03 L-177.7 25 L-179.7 24.97 L-181.7 24.94 L-183.6 24.91 L-185.6 24.88 L-187.6 24.85 L-189.5 24.82 L-191.5 24.79 L-193.5 24.76 L-195.5 24.72 L-197.4 24.69 L-199.4 24.66 L-201.4 24.63 L-203.3 24.6 L-205.3 24.57 L-207.3 24.54 L-209.3 24.51 L-211.2 24.48 L-213.2 24.45 L-215.2 24.42 L-217.1 24.39 L-219.1 24.36 L-221.1 24.33 L-223.1 24.3 L-225 24.27 L-225 22.3 L-225 20.33 L-224.9 18.36 L-224.9 16.39 L-224.9 14.41 L-224.9 12.44 L-224.8 10.47 L-224.8 8.497 L-224.8 6.525 L-224.7 4.553 L-224.7 2.582 L-224.7 0.6096 L-224.6 -1.362 L-224.6 -3.334 L-224.6 -5.306 L-224.6 -7.278 L-224.5 -9.25 L-224.5 -11.22 L-224.5 -13.19 L-224.4 -15.17 L-224.4 -17.14 L-224.4 -19.11 L-224.3 -21.08 L-224.3 -23.05 L-224.3 -25.03 Z " />
<path stroke="rgb(0,0,0)" stroke-opacity="1" fill="rgb(255,255,255)" fill-opacity="1" d="M-781.2 -725.5 L-779.2 -723.9 L-777.4 -722.2 L-775.6 -720.4 L-774 -718.4 L-772.6 -716.3 L-771.4 -714.1 L-770.3 -711.8 L-769.4 -709.4 L-768.7 -707 L-768.2 -704.5 L-767.9 -702 L-767.8 -699.4 L-767.9 -696.9 L-768.2 -694.4 L-768.7 -691.9 L-769.4 -689.5 L-770.3 -687.1 L-771.4 -684.8 L-772.6 -682.6 L-774.1 -680.5 L-775.7 -678.5 L-777.4 -676.7 L-779.3 -675 L-781.3 -673.4 L-783.4 -672 L-785.7 -670.8 L-788 -669.8 L-790.4 -669 L-792.8 -668.3 L-795.3 -667.9 L-797.8 -667.6 L-800.4 -667.6 L-802.9 -667.7 L-805.4 -668.1 L-807.9 -668.6 L-810.3 -669.4 L-812.7 -670.3 L-815 -671.4 L-817.1 -672.7 L-819.2 -674.2 L-821.2 -675.8 L-823 -677.6 L-824.6 -679.5 L-826.1 -681.6 L-827.5 -683.7 L-828.6 -686 L-829.6 -688.3 L-830.4 -690.7 L-831 -693.2 L-831.4 -695.7 L-831.6 -698.2 L-831.6 -700.8 L-831.4 -703.3 L-831 -705.8 L-830.4 -708.3 L-829.6 -710.7 L-828.6 -713 L-827.4 -715.3 L-826.1 -717.4 L-824.6 -719.5 L-822.9 -721.4 L-821.1 -723.1 L-819.2 -724.8 L-817.1 -726.2 L-814.9 -727.5 L-812.6 -728.6 L-810.3 -729.6 L-807.8 -730.3 L-805.4 -730.9 L-802.8 -731.2 L-800.3 -731.4 L-797.8 -731.3 L-795.3 -731.1 L-792.8 -730.6 L-790.3 -730 L-787.9 -729.1 L-785.6 -728.1 L-783.4 -726.9 L-781.2 -725.5 Z " />
<path stroke="rgb(0,0,0)" stroke-opacity="0.999" fill="rgb(255,255,255)" fill-opacity="1" d="M-24.28 -25.03 L-22.31 -25 L-20.34 -24.97 L-18.36 -24.94 L-16.39 -24.91 L-14.42 -24.88 L-12.45 -24.84 L-10.48 -24.81 L-8.504 -24.78 L-6.532 -24.75 L-4.56 -24.72 L-2.588 -24.69 L-0.6165 -24.66 L1.355 -24.63 L3.327 -24.6 L5.299 -24.57 L7.271 -24.54 L9.243 -24.51 L11.22 -24.48 L13.19 -24.45 L15.16 -24.42 L17.13 -24.39 L19.1 -24.36 L21.07 -24.33 L23.05 -24.3 L25.02 -24.27 L24.99 -22.3 L24.96 -20.33 L24.93 -18.36 L24.9 -16.38 L24.87 -14.41 L24.84 -12.44 L24.81 -10.47 L24.78 -8.497 L24.75 -6.525 L24.72 -4.553 L24.69 -2.581 L24.66 -0.6091 L24.63 1.363 L24.6 3.335 L24.57 5.307 L24.54 7.279 L24.51 9.251 L24.48 11.22 L24.45 13.19 L24.42 15.17 L24.39 17.14 L24.36 19.11 L24.33 21.08 L24.3 23.05 L24.27 25.03 L22.29 25 L20.32 24.97 L18.35 24.94 L16.38 24.91 L14.41 24.88 L12.43 24.85 L10.46 24.82 L8.49 24.79 L6.518 24.76 L4.546 24.72 L2.574 24.69 L0.6021 24.66 L-1.37 24.63 L-3.342 24.6 L-5.314 24.57 L-7.286 24.54 L-9.258 24.51 L-11.23 24.48 L-13.2 24.45 L-15.17 24.42 L-17.15 24.39 L-19.12 24.36 L-21.09 24.33 L-23.06 24.3 L-25.03 24.27 L-25 22.3 L-24.97 20.33 L-24.94 18.36 L-24.91 16.39 L-24.88 14.41 L-24.85 12.44 L-24.82 10.47 L-24.79 8.497 L-24.76 6.525 L-24.73 4.553 L-24.7 2.582 L-24.67 0.6096 L-24.64 -1.362 L-24.61 -3.334 L-24.58 -5.306 L-24.55 -7.278 L-24.52 -9.25 L-24.49 -11.22 L-24.46 -13.19 L-24.43 -15.17 L-24.4 -17.14 L-24.37 -19.11 L-24.34 -21.08 L-24.31 -23.05 L-24.28 -25.03 Z " />
<path stroke="rgb(0,0,0)" stroke-opacity="1" fill="rgb(255,255,255)" fill-opacity="1" d="M-597.8 -724.5 L-595.8 -724.3 L-593.8 -723.9 L-591.9 -723.4 L-590 -722.7 L-588.2 -721.9 L-586.5 -720.9 L-584.8 -719.8 L-583.3 -718.6 L-581.8 -717.2 L-580.4 -715.8 L-579.2 -714.2 L-578.1 -712.5 L-577.1 -710.8 L-576.3 -709 L-575.6 -707.1 L-575.1 -705.2 L-574.7 -703.2 L-574.5 -701.2 L-574.4 -699.3 L-574.5 -697.3 L-574.8 -695.3 L-575.2 -693.3 L-575.8 -691.4 L-576.5 -689.6 L-577.4 -687.8 L-578.4 -686 L-579.5 -684.4 L-580.8 -682.9 L-582.1 -681.4 L-583.6 -680.1 L-585.2 -678.9 L-586.9 -677.8 L-588.7 -676.9 L-590.5 -676.1 L-592.4 -675.5 L-594.3 -675 L-596.3 -674.6 L-598.2 -674.5 L-600.2 -674.4 L-602.2 -674.6 L-604.2 -674.9 L-606.1 -675.3 L-608 -675.9 L-609.9 -676.7 L-611.7 -677.6 L-613.4 -678.6 L-615 -679.8 L-616.5 -681.1 L-617.9 -682.5 L-619.2 -684 L-620.4 -685.6 L-621.4 -687.3 L-622.3 -689.1 L-623.1 -690.9 L-623.7 -692.8 L-624.1 -694.8 L-624.4 -696.7 L-624.6 -698.7 L-624.5 -700.7 L-624.4 -702.7 L-624 -704.7 L-623.5 -706.6 L-622.9 -708.5 L-622.1 -710.3 L-621.2 -712.1 L-620.1 -713.8 L-618.9 -715.3 L-617.6 -716.8 L-616.2 -718.2 L-614.6 -719.5 L-613 -720.6 L-611.3 -721.6 L-609.5 -722.5 L-607.6 -723.2 L-605.7 -723.8 L-603.7 -724.2 L-601.8 -724.4 L-599.8 -724.5 L-597.8 -724.5 Z " />
<path stroke="rgb(0,0,0)" stroke-opacity="0.999" fill="rgb(255,255,255)" fill-opacity="1" d="M175.7 -25.03 L177.7 -25 L179.7 -24.97 L181.6 -24.94 L183.6 -24.91 L185.6 -24.88 L187.6 -24.84 L189.5 -24.81 L191.5 -24.78 L193.5 -24.75 L195.4 -24.72 L197.4 -24.69 L199.4 -24.66 L201.4 -24.63 L203.3 -24.6 L205.3 -24.57 L207.3 -24.54 L209.2 -24.51 L211.2 -24.48 L213.2 -24.45 L215.2 -24.42 L217.1 -24.39 L219.1 -24.36 L221.1 -24.33 L223 -24.3 L225 -24.27 L225 -22.3 L225 -20.33 L224.9 -18.36 L224.9 -16.38 L224.9 -14.41 L224.8 -12.44 L224.8 -10.47 L224.8 -8.497 L224.7 -6.525 L224.7 -4.553 L224.7 -2.581 L224.7 -0.6091 L224.6 1.363 L224.6 3.335 L224.6 5.307 L224.5 7.279 L224.5 9.251 L224.5 11.22 L224.4 13.19 L224.4 15.17 L224.4 17.14 L224.4 19.11 L224.3 21.08 L224.3 23.05 L224.3 25.03 L222.3 25 L220.3 24.97 L218.3 24.94 L216.4 24.91 L214.4 24.88 L212.4 24.85 L210.5 24.82 L208.5 24.79 L206.5 24.76 L204.5 24.72 L202.6 24.69 L200.6 24.66 L198.6 24.63 L196.7 24.6 L194.7 24.57 L192.7 24.54 L190.7 24.51 L188.8 24.48 L186.8 24.45 L184.8 24.42 L182.9 24.39 L180.9 24.36 L178.9 24.33 L176.9 24.3 L175 24.27 L175 22.3 L175 20.33 L175.1 18.36 L175.1 16.39 L175.1 14.41 L175.1 12.44 L175.2 10.47 L175.2 8.497 L175.2 6.525 L175.3 4.553 L175.3 2.582 L175.3 0.6096 L175.4 -1.362 L175.4 -3.334 L175.4 -5.306 L175.4 -7.278 L175.5 -9.25 L175.5 -11.22 L175.5 -13.19 L175.6 -15.17 L175.6 -17.14 L175.6 -19.11 L175.7 -21.08 L175.7 -23.05 L175.7 -25.03 Z " />
<path stroke="rgb(0,0,0)" stroke-opacity="1" fill="rgb(255,255,255)" fill-opacity="1" d="M-399.2 -723.9 L-397.3 -723.8 L-395.3 -723.6 L-393.4 -723.2 L-391.6 -722.6 L-389.8 -721.9 L-388 -721.1 L-386.3 -720.1 L-384.7 -719 L-383.2 -717.7 L-381.8 -716.4 L-380.5 -714.9 L-379.4 -713.4 L-378.3 -711.7 L-377.4 -710 L-376.7 -708.2 L-376 -706.4 L-375.6 -704.5 L-375.2 -702.6 L-375.1 -700.7 L-375.1 -698.7 L-375.2 -696.8 L-375.5 -694.9 L-375.9 -693 L-376.5 -691.1 L-377.3 -689.3 L-378.1 -687.6 L-379.2 -685.9 L-380.3 -684.3 L-381.6 -682.9 L-382.9 -681.5 L-384.4 -680.2 L-386 -679.1 L-387.7 -678.1 L-389.4 -677.2 L-391.2 -676.5 L-393.1 -675.9 L-395 -675.5 L-396.9 -675.2 L-398.8 -675.1 L-400.8 -675.1 L-402.7 -675.3 L-404.6 -675.6 L-406.5 -676.1 L-408.3 -676.7 L-410.1 -677.5 L-411.8 -678.4 L-413.5 -679.4 L-415 -680.6 L-416.5 -681.9 L-417.8 -683.3 L-419 -684.8 L-420.1 -686.4 L-421.1 -688.1 L-421.9 -689.9 L-422.6 -691.7 L-423.2 -693.5 L-423.6 -695.4 L-423.8 -697.4 L-423.9 -699.3 L-423.9 -701.2 L-423.6 -703.2 L-423.3 -705.1 L-422.8 -707 L-422.1 -708.8 L-421.3 -710.5 L-420.3 -712.2 L-419.3 -713.9 L-418.1 -715.4 L-416.7 -716.8 L-415.3 -718.1 L-413.8 -719.3 L-412.2 -720.4 L-410.5 -721.3 L-408.7 -722.1 L-406.9 -722.8 L-405 -723.3 L-403.1 -723.7 L-401.1 -723.9 L-399.2 -723.9 Z " />
<path stroke="rgb(0,0,0)" stroke-opacity="0.999" fill="rgb(255,255,255)" fill-opacity="1" d="M-324.3 74.97 L-322.3 75 L-320.3 75.03 L-318.4 75.06 L-316.4 75.09 L-314.4 75.12 L-312.4 75.16 L-310.5 75.19 L-308.5 75.22 L-306.5 75.25 L-304.6 75.28 L-302.6 75.31 L-300.6 75.34 L-298.6 75.37 L-296.7 75.4 L-294.7 75.43 L-292.7 75.46 L-290.8 75.49 L-288.8 75.52 L-286.8 75.55 L-284.8 75.58 L-282.9 75.61 L-280.9 75.64 L-278.9 75.67 L-277 75.7 L-275 75.73 L-275 77.7 L-275 79.67 L-275.1 81.64 L-275.1 83.62 L-275.1 85.59 L-275.2 87.56 L-275.2 89.53 L-275.2 91.5 L-275.3 93.48 L-275.3 95.45 L-275.3 97.42 L-275.3 99.39 L-275.4 101.4 L-275.4 103.3 L-275.4 105.3 L-275.5 107.3 L-275.5 109.3 L-275.5 111.2 L-275.6 113.2 L-275.6 115.2 L-275.6 117.1 L-275.6 119.1 L-275.7 121.1 L-275.7 123.1 L-275.7 125 L-277.7 125 L-279.7 125 L-281.7 124.9 L-283.6 124.9 L-285.6 124.9 L-287.6 124.8 L-289.5 124.8 L-291.5 124.8 L-293.5 124.8 L-295.5 124.7 L-297.4 124.7 L-299.4 124.7 L-301.4 124.6 L-303.3 124.6 L-305.3 124.6 L-307.3 124.5 L-309.3 124.5 L-311.2 124.5 L-313.2 124.5 L-315.2 124.4 L-317.1 124.4 L-319.1 124.4 L-321.1 124.3 L-323.1 124.3 L-325 124.3 L-325 122.3 L-325 120.3 L-324.9 118.4 L-324.9 116.4 L-324.9 114.4 L-324.9 112.4 L-324.8 110.5 L-324.8 108.5 L-324.8 106.5 L-324.7 104.6 L-324.7 102.6 L-324.7 100.6 L-324.6 98.64 L-324.6 96.67 L-324.6 94.69 L-324.6 92.72 L-324.5 90.75 L-324.5 88.78 L-324.5 86.81 L-324.4 84.83 L-324.4 82.86 L-324.4 80.89 L-324.3 78.92 L-324.3 76.95 L-324.3 74.97 Z " />
<path stroke="rgb(0,0,0)" stroke-opacity="1" fill="rgb(255,255,255)" fill-opacity="1" d="M-881.2 -625.5 L-879.2 -623.9 L-877.4 -622.2 L-875.6 -620.4 L-874 -618.4 L-872.6 -616.3 L-871.4 -614.1 L-870.3 -611.8 L-869.4 -609.4 L-868.7 -607 L-868.2 -604.5 L-867.9 -602 L-867.8 -599.4 L-867.9 -596.9 L-868.2 -594.4 L-868.7 -591.9 L-869.4 -589.5 L-870.3 -587.1 L-871.4 -584.8 L-872.6 -582.6 L-874.1 -580.5 L-875.7 -578.5 L-877.4 -576.7 L-879.3 -575 L-881.3 -573.4 L-883.4 -572 L-885.7 -570.8 L-888 -569.8 L-890.4 -569 L-892.8 -568.3 L-895.3 -567.9 L-897.8 -567.6 L-900.4 -567.6 L-902.9 -567.7 L-905.4 -568.1 L-907.9 -568.6 L-910.3 -569.4 L-912.7 -570.3 L-915 -571.4 L-917.1 -572.7 L-919.2 -574.2 L-921.2 -575.8 L-923 -577.6 L-924.6 -579.5 L-926.1 -581.6 L-927.5 -583.7 L-928.6 -586 L-929.6 -588.3 L-930.4 -590.7 L-931 -593.2 L-931.4 -595.7 L-931.6 -598.2 L-931.6 -600.8 L-931.4 -603.3 L-931 -605.8 L-930.4 -608.3 L-929.6 -610.7 L-928.6 -613 L-927.4 -615.3 L-926.1 -617.4 L-924.6 -619.5 L-922.9 -621.4 L-921.1 -623.1 L-919.2 -624.8 L-917.1 -626.2 L-914.9 -627.5 L-912.6 -628.6 L-910.3 -629.6 L-907.8 -630.3 L-905.4 -630.9 L-902.8 -631.2 L-900.3 -631.4 L-897.8 -631.3 L-895.3 -631.1 L-892.8 -630.6 L-890.3 -630 L-887.9 -629.1 L-885.6 -628.1 L-883.4 -626.9 L-881.2 -625.5 Z " />
<path stroke="rgb(0,0,0)" stroke-opacity="0.999" fill="rgb(255,255,255)" fill-opacity="1" d="M-124.3 74.97 L-122.3 75 L-120.3 75.03 L-118.4 75.06 L-116.4 75.09 L-114.4 75.12 L-112.4 75.16 L-110.5 75.19 L-108.5 75.22 L-106.5 75.25 L-104.6 75.28 L-102.6 75.31 L-100.6 75.34 L-98.64 75.37 L-96.67 75.4 L-94.7 75.43 L-92.73 75.46 L-90.76 75.49 L-88.78 75.52 L-86.81 75.55 L-84.84 75.58 L-82.87 75.61 L-80.9 75.64 L-78.93 75.67 L-76.95 75.7 L-74.98 75.73 L-75.01 77.7 L-75.04 79.67 L-75.07 81.64 L-75.1 83.62 L-75.13 85.59 L-75.16 87.56 L-75.19 89.53 L-75.22 91.5 L-75.25 93.48 L-75.28 95.45 L-75.31 97.42 L-75.34 99.39 L-75.37 101.4 L-75.4 103.3 L-75.43 105.3 L-75.46 107.3 L-75.49 109.3 L-75.52 111.2 L-75.55 113.2 L-75.58 115.2 L-75.61 117.1 L-75.64 119.1 L-75.67 121.1 L-75.7 123.1 L-75.73 125 L-77.71 125 L-79.68 125 L-81.65 124.9 L-83.62 124.9 L-85.59 124.9 L-87.57 124.8 L-89.54 124.8 L-91.51 124.8 L-93.48 124.8 L-95.45 124.7 L-97.43 124.7 L-99.4 124.7 L-101.4 124.6 L-103.3 124.6 L-105.3 124.6 L-107.3 124.5 L-109.3 124.5 L-111.2 124.5 L-113.2 124.5 L-115.2 124.4 L-117.1 124.4 L-119.1 124.4 L-121.1 124.3 L-123.1 124.3 L-125 124.3 L-125 122.3 L-125 120.3 L-124.9 118.4 L-124.9 116.4 L-124.9 114.4 L-124.9 112.4 L-124.8 110.5 L-124.8 108.5 L-124.8 106.5 L-124.7 104.6 L-124.7 102.6 L-124.7 100.6 L-124.6 98.64 L-124.6 96.67 L-124.6 94.69 L-124.6 92.72 L-124.5 90.75 L-124.5 88.78 L-124.5 86.81 L-124.4 84.83 L-124.4 82.86 L-124.4 80.89 L-124.3 78.92 L-124.3 76.95 L-124.3 74.97 Z " />
<path stroke="rgb(0,0,0)" stroke-opacity="1" fill="rgb(255,255,255)" fill-opacity="1" d="M-697.8 -624.5 L-695.8 -624.3 L-693.8 -623.9 L-691.9 -623.4 L-690 -622.7 L-688.2 -621.9 L-686.5 -620.9 L-684.8 -619.8 L-683.3 -618.6 L-681.8 -617.2 L-680.4 -615.8 L-679.2 -614.2 L-678.1 -612.5 L-677.1 -610.8 L-676.3 -609 L-675.6 -607.1 L-675.1 -605.2 L-674.7 -603.2 L-674.5 -601.2 L-674.4 -599.3 L-674.5 -597.3 L-674.8 -595.3 L-675.2 -593.3 L-675.8 -591.4 L-676.5 -589.6 L-677.4 -587.8 L-678.4 -586 L-679.5 -584.4 L-680.8 -582.9 L-682.1 -581.4 L-683.6 -580.1 L-685.2 -578.9 L-686.9 -577.8 L-688.7 -576.9 L-690.5 -576.1 L-692.4 -575.5 L-694.3 -575 L-696.3 -574.6 L-698.2 -574.5 L-700.2 -574.4 L-702.2 -574.6 L-704.2 -574.9 L-706.1 -575.3 L-708 -575.9 L-709.9 -576.7 L-711.7 -577.6 L-713.4 -578.6 L-715 -579.8 L-716.5 -581.1 L-717.9 -582.5 L-719.2 -584 L-720.4 -585.6 L-721.4 -587.3 L-722.3 -589.1 L-723.1 -590.9 L-723.7 -592.8 L-724.1 -594.8 L-724.4 -596.7 L-724.6 -598.7 L-724.5 -600.7 L-724.4 -602.7 L-724 -604.7 L-723.5 -606.6 L-722.9 -608.5 L-722.1 -610.3 L-721.2 -612.1 L-720.1 -613.8 L-718.9 -615.3 L-717.6 -616.8 L-716.2 -618.2 L-714.6 -619.5 L-713 -620.6 L-711.3 -621.6 L-709.5 -622.5 L-707.6 -623.2 L-705.7 -623.8 L-703.7 -624.2 L-701.8 -624.4 L-699.8 -624.5 L-697.8 -624.5 Z " />
<path stroke="rgb(0,0,0)" stroke-opacity="0.999" fill="rgb(255,255,255)" fill-opacity="1" d="M75.72 74.97 L77.69 75 L79.66 75.03 L81.64 75.06 L83.61 75.09 L85.58 75.12 L87.55 75.16 L89.52 75.19 L91.5 75.22 L93.47 75.25 L95.44 75.28 L97.41 75.31 L99.38 75.34 L101.4 75.37 L103.3 75.4 L105.3 75.43 L107.3 75.46 L109.2 75.49 L111.2 75.52 L113.2 75.55 L115.2 75.58 L117.1 75.61 L119.1 75.64 L121.1 75.67 L123 75.7 L125 75.73 L125 77.7 L125 79.67 L124.9 81.64 L124.9 83.62 L124.9 85.59 L124.8 87.56 L124.8 89.53 L124.8 91.5 L124.7 93.48 L124.7 95.45 L124.7 97.42 L124.7 99.39 L124.6 101.4 L124.6 103.3 L124.6 105.3 L124.5 107.3 L124.5 109.3 L124.5 111.2 L124.4 113.2 L124.4 115.2 L124.4 117.1 L124.4 119.1 L124.3 121.1 L124.3 123.1 L124.3 125 L122.3 125 L120.3 125 L118.3 124.9 L116.4 124.9 L114.4 124.9 L112.4 124.8 L110.5 124.8 L108.5 124.8 L106.5 124.8 L104.5 124.7 L102.6 124.7 L100.6 124.7 L98.63 124.6 L96.66 124.6 L94.69 124.6 L92.71 124.5 L90.74 124.5 L88.77 124.5 L86.8 124.5 L84.83 124.4 L82.85 124.4 L80.88 124.4 L78.91 124.3 L76.94 124.3 L74.97 124.3 L75 122.3 L75.03 120.3 L75.06 118.4 L75.09 116.4 L75.12 114.4 L75.15 112.4 L75.18 110.5 L75.21 108.5 L75.24 106.5 L75.27 104.6 L75.3 102.6 L75.33 100.6 L75.36 98.64 L75.39 96.67 L75.42 94.69 L75.45 92.72 L75.48 90.75 L75.51 88.78 L75.54 86.81 L75.57 84.83 L75.6 82.86 L75.63 80.89 L75.66 78.92 L75.69 76.95 L75.72 74.97 Z " />
<path stroke="rgb(0,0,0)" stroke-opacity="1" fill="rgb(255,255,255)" fill-opacity="1" d="M-499.2 -623.9 L-497.3 -623.8 L-495.3 -623.6 L-493.4 -623.2 L-491.6 -622.6 L-489.8 -621.9 L-488 -621.1 L-486.3 -620.1 L-484.7 -619 L-483.2 -617.7 L-481.8 -616.4 L-480.5 -614.9 L-479.4 -613.4 L-478.3 -611.7 L-477.4 -610 L-476.7 -608.2 L-476 -606.4 L-475.6 -604.5 L-475.2 -602.6 L-475.1 -600.7 L-475.1 -598.7 L-475.2 -596.8 L-475.5 -594.9 L-475.9 -593 L-476.5 -591.1 L-477.3 -589.3 L-478.1 -587.6 L-479.2 -585.9 L-480.3 -584.3 L-481.6 -582.9 L-482.9 -581.5 L-484.4 -580.2 L-486 -579.1 L-487.7 -578.1 L-489.4 -577.2 L-491.2 -576.5 L-493.1 -575.9 L-495 -575.5 L-496.9 -575.2 L-498.8 -575.1 L-500.8 -575.1 L-502.7 -575.3 L-504.6 -575.6 L-506.5 -576.1 L-508.3 -576.7 L-510.1 -577.5 L-511.8 -578.4 L-513.5 -579.4 L-515 -580.6 L-516.5 -581.9 L-517.8 -583.3 L-519 -584.8 L-520.1 -586.4 L-521.1 -588.1 L-521.9 -589.9 L-522.6 -591.7 L-523.2 -593.5 L-523.6 -595.4 L-523.8 -597.4 L-523.9 -599.3 L-523.9 -601.2 L-523.6 -603.2 L-523.3 -605.1 L-522.8 -607 L-522.1 -608.8 L-521.3 -610.5 L-520.3 -612.2 L-519.3 -613.9 L-518.1 -615.4 L-516.7 -616.8 L-515.3 -618.1 L-513.8 -619.3 L-512.2 -620.4 L-510.5 -621.3 L-508.7 -622.1 L-506.9 -622.8 L-505 -623.3 L-503.1 -623.7 L-501.1 -623.9 L-499.2 -623.9 Z " />
<path stroke="rgb(0,0,0)" stroke-opacity="0.999" fill="rgb(255,255,255)" fill-opacity="1" d="M275.7 74.97 L277.7 75 L279.7 75.03 L281.6 75.06 L283.6 75.09 L285.6 75.12 L287.6 75.16 L289.5 75.19 L291.5 75.22 L293.5 75.25 L295.4 75.28 L297.4 75.31 L299.4 75.34 L301.4 75.37 L303.3 75.4 L305.3 75.43 L307.3 75.46 L309.2 75.49 L311.2 75.52 L313.2 75.55 L315.2 75.58 L317.1 75.61 L319.1 75.64 L321.1 75.67 L323 75.7 L325 75.73 L325 77.7 L325 79.67 L324.9 81.64 L324.9 83.62 L324.9 85.59 L324.8 87.56 L324.8 89.53 L324.8 91.5 L324.7 93.48 L324.7 95.45 L324.7 97.42 L324.7 99.39 L324.6 101.4 L324.6 103.3 L324.6 105.3 L324.5 107.3 L324.5 109.3 L324.5 111.2 L324.4 113.2 L324.4 115.2 L324.4 117.1 L324.4 119.1 L324.3 121.1 L324.3 123.1 L324.3 125 L322.3 125 L320.3 125 L318.3 124.9 L316.4 124.9 L314.4 124.9 L312.4 124.8 L310.5 124.8 L308.5 124.8 L306.5 124.8 L304.5 124.7 L302.6 124.7 L300.6 124.7 L298.6 124.6 L296.7 124.6 L294.7 124.6 L292.7 124.5 L290.7 124.5 L288.8 124.5 L286.8 124.5 L284.8 124.4 L282.9 124.4 L280.9 124.4 L278.9 124.3 L276.9 124.3 L275 124.3 L275 122.3 L275 120.3 L275.1 118.4 L275.1 116.4 L275.1 114.4 L275.1 112.4 L275.2 110.5 L275.2 108.5 L275.2 106.5 L275.3 104.6 L275.3 102.6 L275.3 100.6 L275.4 98.64 L275.4 96.67 L275.4 94.69 L275.4 92.72 L275.5 90.75 L275.5 88.78 L275.5 86.81 L275.6 84.83 L275.6 82.86 L275.6 80.89 L275.7 78.92 L275.7 76.95 L275.7 74.97 Z " />
<path stroke="rgb(0,0,0)" stroke-opacity="1" fill="rgb(255,255,255)" fill-opacity="1" d="M-981.2 -525.5 L-979.2 -523.9 L-977.4 -522.2 L-975.6 -520.4 L-974 -518.4 L-972.6 -516.3 L-971.4 -514.1 L-970.3 -511.8 L-969.4 -509.4 L-968.7 -507 L-968.2 -504.5 L-967.9 -502 L-967.8 -499.4 L-967.9 -496.9 L-968.2 -494.4 L-968.7 -491.9 L-969.4 -489.5 L-970.3 -487.1 L-971.4 -484.8 L-972.6 -482.6 L-974.1 -480.5 L-975.7 -478.5 L-977.4 -476.7 L-979.3 -475 L-981.3 -473.4 L-983.4 -472 L-985.7 -470.8 L-988 -469.8 L-990.4 -469 L-992.8 -468.3 L-995.3 -467.9 L-997.8 -467.6 L-1000 -467.6 L-1003 -467.7 L-1005 -468.1 L-1008 -468.6 L-1010 -469.4 L-1013 -470.3 L-1015 -471.4 L-1017 -472.7 L-1019 -474.2 L-1021 -475.8 L-1023 -477.6 L-1025 -479.5 L-1026 -481.6 L-1027 -483.7 L-1029 -486 L-1030 -488.3 L-1030 -490.7 L-1031 -493.2 L-1031 -495.7 L-1032 -498.2 L-1032 -500.8 L-1031 -503.3 L-1031 -505.8 L-1030 -508.3 L-1030 -510.7 L-1029 -513 L-1027 -515.3 L-1026 -517.4 L-1025 -519.5 L-1023 -521.4 L-1021 -523.1 L-1019 -524.8 L-1017 -526.2 L-1015 -527.5 L-1013 -528.6 L-1010 -529.6 L-1008 -530.3 L-1005 -530.9 L-1003 -531.2 L-1000 -531.4 L-997.8 -531.3 L-995.3 -531.1 L-992.8 -530.6 L-990.3 -530 L-987.9 -529.1 L-985.6 -528.1 L-983.4 -526.9 L-981.2 -525.5 Z " />
<path stroke="rgb(0,0,0)" stroke-opacity="0.999" fill="rgb(255,255,255)" fill-opacity="1" d="M-224.3 175 L-222.3 175 L-220.3 175 L-218.4 175.1 L-216.4 175.1 L-214.4 175.1 L-212.4 175.2 L-210.5 175.2 L-208.5 175.2 L-206.5 175.2 L-204.6 175.3 L-202.6 175.3 L-200.6 175.3 L-198.6 175.4 L-196.7 175.4 L-194.7 175.4 L-192.7 175.5 L-190.8 175.5 L-188.8 175.5 L-186.8 175.5 L-184.8 175.6 L-182.9 175.6 L-180.9 175.6 L-178.9 175.7 L-177 175.7 L-175 175.7 L-175 177.7 L-175 179.7 L-175.1 181.6 L-175.1 183.6 L-175.1 185.6 L-175.2 187.6 L-175.2 189.5 L-175.2 191.5 L-175.3 193.5 L-175.3 195.4 L-175.3 197.4 L-175.3 199.4 L-175.4 201.4 L-175.4 203.3 L-175.4 205.3 L-175.5 207.3 L-175.5 209.3 L-175.5 211.2 L-175.6 213.2 L-175.6 215.2 L-175.6 217.1 L-175.6 219.1 L-175.7 221.1 L-175.7 223.1 L-175.7 225 L-177.7 225 L-179.7 225 L-181.7 224.9 L-183.6 224.9 L-185.6 224.9 L-187.6 224.8 L-189.5 224.8 L-191.5 224.8 L-193.5 224.8 L-195.5 224.7 L-197.4 224.7 L-199.4 224.7 L-201.4 224.6 L-203.3 224.6 L-205.3 224.6 L-207.3 224.5 L-209.3 224.5 L-211.2 224.5 L-213.2 224.5 L-215.2 224.4 L-217.1 224.4 L-219.1 224.4 L-221.1 224.3 L-223.1 224.3 L-225 224.3 L-225 222.3 L-225 220.3 L-224.9 218.4 L-224.9 216.4 L-224.9 214.4 L-224.9 212.4 L-224.8 210.5 L-224.8 208.5 L-224.8 206.5 L-224.7 204.6 L-224.7 202.6 L-224.7 200.6 L-224.6 198.6 L-224.6 196.7 L-224.6 194.7 L-224.6 192.7 L-224.5 190.7 L-224.5 188.8 L-224.5 186.8 L-224.4 184.8 L-224.4 182.9 L-224.4 180.9 L-224.3 178.9 L-224.3 176.9 L-224.3 175 Z " />
<path stroke="rgb(0,0,0)" stroke-opacity="1" fill="rgb(255,255,255)" fill-opacity="1" d="M-797.8 -524.5 L-795.8 -524.3 L-793.8 -523.9 L-791.9 -523.4 L-790 -522.7 L-788.2 -521.9 L-786.5 -520.9 L-784.8 -519.8 L-783.3 -518.6 L-781.8 -517.2 L-780.4 -515.8 L-779.2 -514.2 L-778.1 -512.5 L-777.1 -510.8 L-776.3 -509 L-775.6 -507.1 L-775.1 -505.2 L-774.7 -503.2 L-774.5 -501.2 L-774.4 -499.3 L-774.5 -497.3 L-774.8 -495.3 L-775.2 -493.3 L-775.8 -491.4 L-776.5 -489.6 L-777.4 -487.8 L-778.4 -486 L-779.5 -484.4 L-780.8 -482.9 L-782.1 -481.4 L-783.6 -480.1 L-785.2 -478.9 L-786.9 -477.8 L-788.7 -476.9 L-790.5 -476.1 L-792.4 -475.5 L-794.3 -475 L-796.3 -474.6 L-798.2 -474.5 L-800.2 -474.4 L-802.2 -474.6 L-804.2 -474.9 L-806.1 -475.3 L-808 -475.9 L-809.9 -476.7 L-811.7 -477.6 L-813.4 -478.6 L-815 -479.8 L-816.5 -481.1 L-817.9 -482.5 L-819.2 -484 L-820.4 -485.6 L-821.4 -487.3 L-822.3 -489.1 L-823.1 -490.9 L-823.7 -492.8 L-824.1 -494.8 L-824.4 -496.7 L-824.6 -498.7 L-824.5 -500.7 L-824.4 -502.7 L-824 -504.7 L-823.5 -506.6 L-822.9 -508.5 L-822.1 -510.3 L-821.2 -512.1 L-820.1 -513.8 L-818.9 -515.3 L-817.6 -516.8 L-816.2 -518.2 L-814.6 -519.5 L-813 -520.6 L-811.3 -521.6 L-809.5 -522.5 L-807.6 -523.2 L-805.7 -523.8 L-803.7 -524.2 L-801.8 -524.4 L-799.8 -524.5 L-797.8 -524.5 Z " />
<path stroke="rgb(0,0,0)" stroke-opacity="0.999" fill="rgb(255,255,255)" fill-opacity="1" d="M-24.28 175 L-22.31 175 L-20.34 175 L-18.36 175.1 L-16.39 175.1 L-14.42 175.1 L-12.45 175.2 L-10.48 175.2 L-8.504 175.2 L-6.532 175.2 L-4.56 175.3 L-2.588 175.3 L-0.6165 175.3 L1.355 175.4 L3.327 175.4 L5.299 175.4 L7.271 175.5 L9.243 175.5 L11.22 175.5 L13.19 175.5 L15.16 175.6 L17.13 175.6 L19.1 175.6 L21.07 175.7 L23.05 175.7 L25.02 175.7 L24.99 177.7 L24.96 179.7 L24.93 181.6 L24.9 183.6 L24.87 185.6 L24.84 187.6 L24.81 189.5 L24.78 191.5 L24.75 193.5 L24.72 195.4 L24.69 197.4 L24.66 199.4 L24.63 201.4 L24.6 203.3 L24.57 205.3 L24.54 207.3 L24.51 209.3 L24.48 211.2 L24.45 213.2 L24.42 215.2 L24.39 217.1 L24.36 219.1 L24.33 221.1 L24.3 223.1 L24.27 225 L22.29 225 L20.32 225 L18.35 224.9 L16.38 224.9 L14.41 224.9 L12.43 224.8 L10.46 224.8 L8.49 224.8 L6.518 224.8 L4.546 224.7 L2.574 224.7 L0.6021 224.7 L-1.37 224.6 L-3.342 224.6 L-5.314 224.6 L-7.286 224.5 L-9.258 224.5 L-11.23 224.5 L-13.2 224.5 L-15.17 224.4 L-17.15 224.4 L-19.12 224.4 L-21.09 224.3 L-23.06 224.3 L-25.03 224.3 L-25 222.3 L-24.97 220.3 L-24.94 218.4 L-24.91 216.4 L-24.88 214.4 L-24.85 212.4 L-24.82 210.5 L-24.79 208.5 L-24.76 206.5 L-24.73 204.6 L-24.7 202.6 L-24.67 200.6 L-24.64 198.6 L-24.61 196.7 L-24.58 194.7 L-24.55 192.7 L-24.52 190.7 L-24.49 188.8 L-24.46 186.8 L-24.43 184.8 L-24.4 182.9 L-24.37 180.9 L-24.34 178.9 L-24.31 176.9 L-24.28 175 Z " />
<path stroke="rgb(0,0,0)" stroke-opacity="1" fill="rgb(255,255,255)" fill-opacity="1" d="M-599.2 -523.9 L-597.3 -523.8 L-595.3 -523.6 L-593.4 -523.2 L-591.6 -522.6 L-589.8 -521.9 L-588 -521.1 L-586.3 -520.1 L-584.7 -519 L-583.2 -517.7 L-581.8 -516.4 L-580.5 -514.9 L-579.4 -513.4 L-578.3 -511.7 L-577.4 -510 L-576.7 -508.2 L-576 -506.4 L-575.6 -504.5 L-575.2 -502.6 L-575.1 -500.7 L-575.1 -498.7 L-575.2 -496.8 L-575.5 -494.9 L-575.9 -493 L-576.5 -491.1 L-577.3 -489.3 L-578.1 -487.6 L-579.2 -485.9 L-580.3 -484.3 L-581.6 -482.9 L-582.9 -481.5 L-584.4 -480.2 L-586 -479.1 L-587.7 -478.1 L-589.4 -477.2 L-591.2 -476.5 L-593.1 -475.9 L-595 -475.5 L-596.9 -475.2 L-598.8 -475.1 L-600.8 -475.1 L-602.7 -475.3 L-604.6 -475.6 L-606.5 -476.1 L-608.3 -476.7 L-610.1 -477.5 L-611.8 -478.4 L-613.5 -479.4 L-615 -480.6 L-616.5 -481.9 L-617.8 -483.3 L-619 -484.8 L-620.1 -486.4 L-621.1 -488.1 L-621.9 -489.9 L-622.6 -491.7 L-623.2 -493.5 L-623.6 -495.4 L-623.8 -497.4 L-623.9 -499.3 L-623.9 -501.2 L-623.6 -503.2 L-623.3 -505.1 L-622.8 -507 L-622.1 -508.8 L-621.3 -510.5 L-620.3 -512.2 L-619.3 -513.9 L-618.1 -515.4 L-616.7 -516.8 L-615.3 -518.1 L-613.8 -519.3 L-612.2 -520.4 L-610.5 -521.3 L-608.7 -522.1 L-606.9 -522.8 L-605 -523.3 L-603.1 -523.7 L-601.1 -523.9 L-599.2 -523.9 Z " />
<path stroke="rgb(0,0,0)" stroke-opacity="0.999" fill="rgb(255,255,255)" fill-opacity="1" d="M175.7 175 L177.7 175 L179.7 175 L181.6 175.1 L183.6 175.1 L185.6 175.1 L187.6 175.2 L189.5 175.2 L191.5 175.2 L193.5 175.2 L195.4 175.3 L197.4 175.3 L199.4 175.3 L201.4 175.4 L203.3 175.4 L205.3 175.4 L207.3 175.5 L209.2 175.5 L211.2 175.5 L213.2 175.5 L215.2 175.6 L217.1 175.6 L219.1 175.6 L221.1 175.7 L223 175.7 L225 175.7 L225 177.7 L225 179.7 L224.9 181.6 L224.9 183.6 L224.9 185.6 L224.8 187.6 L224.8 189.5 L224.8 191.5 L224.7 193.5 L224.7 195.4 L224.7 197.4 L224.7 199.4 L224.6 201.4 L224.6 203.3 L224.6 205.3 L224.5 207.3 L224.5 209.3 L224.5 211.2 L224.4 213.2 L224.4 215.2 L224.4 217.1 L224.4 219.1 L224.3 221.1 L224.3 223.1 L224.3 225 L222.3 225 L220.3 225 L218.3 224.9 L216.4 224.9 L214.4 224.9 L212.4 224.8 L210.5 224.8 L208.5 224.8 L206.5 224.8 L204.5 224.7 L202.6 224.7 L200.6 224.7 L198.6 224.6 L196.7 224.6 L194.7 224.6 L192.7 224.5 L190.7 224.5 L188.8 224.5 L186.8 224.5 L184.8 224.4 L182.9 224.4 L180.9 224.4 L178.9 224.3 L176.9 224.3 L175 224.3 L175 222.3 L175 220.3 L175.1 218.4 L175.1 216.4 L175.1 214.4 L175.1 212.4 L175.2 210.5 L175.2 208.5 L175.2 206.5 L175.3 204.6 L175.3 202.6 L175.3 200.6 L175.4 198.6 L175.4 196.7 L175.4 194.7 L175.4 192.7 L175.5 190.7 L175.5 188.8 L175.5 186.8 L175.6 184.8 L175.6 182.9 L175.6 180.9 L175.7 178.9 L175.7 176.9 L175.7 175 Z " />
<path stroke="rgb(0,0,0)" stroke-opacity="1" fill="rgb(255,255,255)" fill-opacity="1" d="M-399.2 -523.9 L-397.3 -523.8 L-395.3 -523.6 L-393.4 -523.2 L-391.6 -522.6 L-389.8 -521.9 L-388 -521.1 L-386.3 -520.1 L-384.7 -519 L-383.2 -517.7 L-381.8 -516.4 L-380.5 -514.9 L-379.4 -513.4 L-378.3 -511.7 L-377.4 -510 L-376.7 -508.2 L-376 -506.4 L-375.6 -504.5 L-375.2 -502.6 L-375.1 -500.7 L-375.1 -498.7 L-375.2 -496.8 L-375.5 -494.9 L-375.9 -493 L-376.5 -491.1 L-377.3 -489.3 L-378.1 -487.6 L-379.2 -485.9 L-380.3 -484.3 L-381.6 -482.9 L-382.9 -481.5 L-384.4 -480.2 L-386 -479.1 L-387.7 -478.1 L-389.4 -477.2 L-391.2 -476.5 L-393.1 -475.9 L-395 -475.5 L-396.9 -475.2 L-398.8 -475.1 L-400.8 -475.1 L-402.7 -475.3 L-404.6 -475.6 L-406.5 -476.1 L-408.3 -476.7 L-410.1 -477.5 L-411.8 -478.4 L-413.5 -479.4 L-415 -480.6 L-416.5 -481.9 L-417.8 -483.3 L-419 -484.8 L-420.1 -486.4 L-421.1 -488.1 L-421.9 -489.9 L-422.6 -491.7 L-423.2 -493.5 L-423.6 -495.4 L-423.8 -497.4 L-423.9 -499.3 L-423.9 -501.2 L-423.6 -503.2 L-423.3 -505.1 L-422.8 -507 L-422.1 -508.8 L-421.3 -510.5 L-420.3 -512.2 L-419.3 -513.9 L-418.1 -515.4 L-416.7 -516.8 L-415.3 -518.1 L-413.8 -519.3 L-412.2 -520.4 L-410.5 -521.3 L-408.7 -522.1 L-406.9 -522.8 L-405 -523.3 L-403.1 -523.7 L-401.1 -523.9 L-399.2 -523.9 Z " />
<path stroke="rgb(0,0,0)" stroke-opacity="0.999" fill="rgb(255,255,255)" fill-opacity="1" d="M-324.3 275 L-322.3 275 L-320.3 275 L-318.4 275.1 L-316.4 275.1 L-314.4 275.1 L-312.4 275.2 L-310.5 275.2 L-308.5 275.2 L-306.5 275.2 L-304.6 275.3 L-302.6 275.3 L-300.6 275.3 L-298.6 275.4 L-296.7 275.4 L-294.7 275.4 L-292.7 275.5 L-290.8 275.5 L-288.8 275.5 L-286.8 275.5 L-284.8 275.6 L-282.9 275.6 L-280.9 275.6 L-278.9 275.7 L-277 275.7 L-275 275.7 L-275 277.7 L-275 279.7 L-275.1 281.6 L-275.1 283.6 L-275.1 285.6 L-275.2 287.6 L-275.2 289.5 L-275.2 291.5 L-275.3 293.5 L-275.3 295.4 L-275.3 297.4 L-275.3 299.4 L-275.4 301.4 L-275.4 303.3 L-275.4 305.3 L-275.5 307.3 L-275.5 309.3 L-275.5 311.2 L-275.6 313.2 L-275.6 315.2 L-275.6 317.1 L-275.6 319.1 L-275.7 321.1 L-275.7 323.1 L-275.7 325 L-277.7 325 L-279.7 325 L-281.7 324.9 L-283.6 324.9 L-285.6 324.9 L-287.6 324.8 L-289.5 324.8 L-291.5 324.8 L-293.5 324.8 L-295.5 324.7 L-297.4 324.7 L-299.4 324.7 L-301.4 324.6 L-303.3 324.6 L-305.3 324.6 L-307.3 324.5 L-309.3 324.5 L-311.2 324.5 L-313.2 324.5 L-315.2 324.4 L-317.1 324.4 L-319.1 324.4 L-321.1 324.3 L-323.1 324.3 L-325 324.3 L-325 322.3 L-325 320.3 L-324.9 318.4 L-324.9 316.4 L-324.9 314.4 L-324.9 312.4 L-324.8 310.5 L-324.8 308.5 L-324.8 306.5 L-324.7 304.6 L-324.7 302.6 L-324.7 300.6 L-324.6 298.6 L-324.6 296.7 L-324.6 294.7 L-324.6 292.7 L-324.5 290.7 L-324.5 288.8 L-324.5 286.8 L-324.4 284.8 L-324.4 282.9 L-324.4 280.9 L-324.3 278.9 L-324.3 276.9 L-324.3 275 Z " />
<path stroke="rgb(0,0,0)" stroke-opacity="1" fill="rgb(255,255,255)" fill-opacity="1" d="M-897.8 -424.5 L-895.8 -424.3 L-893.8 -423.9 L-891.9 -423.4 L-890 -422.7 L-888.2 -421.9 L-886.5 -420.9 L-884.8 -419.8 L-883.3 -418.6 L-881.8 -417.2 L-880.4 -415.8 L-879.2 -414.2 L-878.1 -412.5 L-877.1 -410.8 L-876.3 -409 L-875.6 -407.1 L-875.1 -405.2 L-874.7 -403.2 L-874.5 -401.2 L-874.4 -399.3 L-874.5 -397.3 L-874.8 -395.3 L-875.2 -393.3 L-875.8 -391.4 L-876.5 -389.6 L-877.4 -387.8 L-878.4 -386 L-879.5 -384.4 L-880.8 -382.9 L-882.1 -381.4 L-883.6 -380.1 L-885.2 -378.9 L-886.9 -377.8 L-888.7 -376.9 L-890.5 -376.1 L-892.4 -375.5 L-894.3 -375 L-896.3 -374.6 L-898.2 -374.5 L-900.2 -374.4 L-902.2 -374.6 L-904.2 -374.9 L-906.1 -375.3 L-908 -375.9 L-909.9 -376.7 L-911.7 -377.6 L-913.4 -378.6 L-915 -379.8 L-916.5 -381.1 L-917.9 -382.5 L-919.2 -384 L-920.4 -385.6 L-921.4 -387.3 L-922.3 -389.1 L-923.1 -390.9 L-923.7 -392.8 L-924.1 -394.8 L-924.4 -396.7 L-924.6 -398.7 L-924.5 -400.7 L-924.4 -402.7 L-924 -404.7 L-923.5 -406.6 L-922.9 -408.5 L-922.1 -410.3 L-921.2 -412.1 L-920.1 -413.8 L-918.9 -415.3 L-917.6 -416.8 L-916.2 -418.2 L-914.6 -419.5 L-913 -420.6 L-911.3 -421.6 L-909.5 -422.5 L-907.6 -423.2 L-905.7 -423.8 L-903.7 -424.2 L-901.8 -424.4 L-899.8 -424.5 L-897.8 -424.5 Z " />
<path stroke="rgb(0,0,0)" stroke-opacity="0.999" fill="rgb(255,255,255)" fill-opacity="1" d="M-124.3 275 L-122.3 275 L-120.3 275 L-118.4 275.1 L-116.4 275.1 L-114.4 275.1 L-112.4 275.2 L-110.5 275.2 L-108.5 275.2 L-106.5 275.2 L-104.6 275.3 L-102.6 275.3 L-100.6 275.3 L-98.64 275.4 L-96.67 275.4 L-94.7 275.4 L-92.73 275.5 L-90.76 275.5 L-88.78 275.5 L-86.81 275.5 L-84.84 275.6 L-82.87 275.6 L-80.9 275.6 L-78.93 275.7 L-76.95 275.7 L-74.98 275.7 L-75.01 277.7 L-75.04 279.7 L-75.07 281.6 L-75.1 283.6 L-75.13 285.6 L-75.16 287.6 L-75.19 289.5 L-75.22 291.5 L-75.25 293.5 L-75.28 295.4 L-75.31 297.4 L-75.34 299.4 L-75.37 301.4 L-75.4 303.3 L-75.43 305.3 L-75.46 307.3 L-75.49 309.3 L-75.52 311.2 L-75.55 313.2 L-75.58 315.2 L-75.61 317.1 L-75.64 319.1 L-75.67 321.1 L-75.7 323.1 L-75.73 325 L-77.71 325 L-79.68 325 L-81.65 324.9 L-83.62 324.9 L-85.59 324.9 L-87.57 324.8 L-89.54 324.8 L-91.51 324.8 L-93.48 324.8 L-95.45 324.7 L-97.43 324.7 L-99.4 324.7 L-101.4 324.6 L-103.3 324.6 L-105.3 324.6 L-107.3 324.5 L-109.3 324.5 L-111.2 324.5 L-113.2 324.5 L-115.2 324.4 L-117.1 324.4 L-119.1 324.4 L-121.1 324.3 L-123.1 324.3 L-125 324.3 L-125 322.3 L-125 320.3 L-124.9 318.4 L-124.9 316.4 L-124.9 314.4 L-124.9 312.4 L-124.8 310.5 L-124.8 308.5 L-124.8 306.5 L-124.7 304.6 L-124.7 302.6 L-124.7 300.6 L-124.6 298.6 L-124.6 296.7 L-124.6 294.7 L-124.6 292.7 L-124.5 290.7 L-124.5 288.8 L-124.5 286.8 L-124.4 284.8 L-124.4 282.9 L-124.4 280.9 L-124.3 278.9 L-124.3 276.9 L-124.3 275 Z " />
<path stroke="rgb(0,0,0)" stroke-opacity="1" fill="rgb(255,255,255)" fill-opacity="1" d="M-699.2 -423.9 L-697.3 -423.8 L-695.3 -423.6 L-693.4 -423.2 L-691.6 -422.6 L-689.8 -421.9 L-688 -421.1 L-686.3 -420.1 L-684.7 -419 L-683.2 -417.7 L-681.8 -416.4 L-680.5 -414.9 L-679.4 -413.4 L-678.3 -411.7 L-677.4 -410 L-676.7 -408.2 L-676 -406.4 L-675.6 -404.5 L-675.2 -402.6 L-675.1 -400.7 L-675.1 -398.7 L-675.2 -396.8 L-675.5 -394.9 L-675.9 -393 L-676.5 -391.1 L-677.3 -389.3 L-678.1 -387.6 L-679.2 -385.9 L-680.3 -384.3 L-681.6 -382.9 L-682.9 -381.5 L-684.4 -380.2 L-686 -379.1 L-687.7 -378.1 L-689.4 -377.2 L-691.2 -376.5 L-693.1 -375.9 L-695 -375.5 L-696.9 -375.2 L-698.8 -375.1 L-700.8 -375.1 L-702.7 -375.3 L-704.6 -375.6 L-706.5 -376.1 L-708.3 -376.7 L-710.1 -377.5 L-711.8 -378.4 L-713.5 -379.4 L-715 -380.6 L-716.5 -381.9 L-717.8 -383.3 L-719 -384.8 L-720.1 -386.4 L-721.1 -388.1 L-721.9 -389.9 L-722.6 -391.7 L-723.2 -393.5 L-723.6 -395.4 L-723.8 -397.4 L-723.9 -399.3 L-723.9 -401.2 L-723.6 -403.2 L-723.3 -405.1 L-722.8 -407 L-722.1 -408.8 L-721.3 -410.5 L-720.3 -412.2 L-719.3 -413.9 L-718.1 -415.4 L-716.7 -416.8 L-715.3 -418.1 L-713.8 -419.3 L-712.2 -420.4 L-710.5 -421.3 L-708.7 -422.1 L-706.9 -422.8 L-705 -423.3 L-703.1 -423.7 L-701.1 -423.9 L-699.2 -423.9 Z " />
<path stroke="rgb(0,0,0)" stroke-opacity="0.999" fill="rgb(255,255,255)" fill-opacity="1" d="M75.72 275 L77.69 275 L79.66 275 L81.64 275.1 L83.61 275.1 L85.58 275.1 L87.55 275.2 L89.52 275.2 L91.5 275.2 L93.47 275.2 L95.44 275.3 L97.41 275.3 L99.38 275.3 L101.4 275.4 L103.3 275.4 L105.3 275.4 L107.3 275.5 L109.2 275.5 L111.2 275.5 L113.2 275.5 L115.2 275.6 L117.1 275.6 L119.1 275.6 L121.1 275.7 L123 275.7 L125 275.7 L125 277.7 L125 279.7 L124.9 281.6 L124.9 283.6 L124.9 285.6 L124.8 287.6 L124.8 289.5 L124.8 291.5 L124.7 293.5 L124.7 295.4 L124.7 297.4 L124.7 299.4 L124.6 301.4 L124.6 303.3 L124.6 305.3 L124.5 307.3 L124.5 309.3 L124.5 311.2 L124.4 313.2 L124.4 315.2 L124.4 317.1 L124.4 319.1 L124.3 321.1 L124.3 323.1 L124.3 325 L122.3 325 L120.3 325 L118.3 324.9 L116.4 324.9 L114.4 324.9 L112.4 324.8 L110.5 324.8 L108.5 324.8 L106.5 324.8 L104.5 324.7 L102.6 324.7 L100.6 324.7 L98.63 324.6 L96.66 324.6 L94.69 324.6 L92.71 324.5 L90.74 324.5 L88.77 324.5 L86.8 324.5 L84.83 324.4 L82.85 324.4 L80.88 324.4 L78.91 324.3 L76.94 324.3 L74.97 324.3 L75 322.3 L75.03 320.3 L75.06 318.4 L75.09 316.4 L75.12 314.4 L75.15 312.4 L75.18 310.5 L75.21 308.5 L75.24 306.5 L75.27 304.6 L75.3 302.6 L75.33 300.6 L75.36 298.6 L75.39 296.7 L75.42 294.7 L75.45 292.7 L75.48 290.7 L75.51 288.8 L75.54 286.8 L75.57 284.8 L75.6 282.9 L75.63 280.9 L75.66 278.9 L75.69 276.9 L75.72 275 Z " />
<path stroke="rgb(0,0,0)" stroke-opacity="1" fill="rgb(255,255,255)" fill-opacity="1" d="M-499.2 -423.9 L-497.3 -423.8 L-495.3 -423.6 L-493.4 -423.2 L-491.6 -422.6 L-489.8 -421.9 L-488 -421.1 L-486.3 -420.1 L-484.7 -419 L-483.2 -417.7 L-481.8 -416.4 L-480.5 -414.9 L-479.4 -413.4 L-478.3 -411.7 L-477.4 -410 L-476.7 -408.2 L-476 -406.4 L-475.6 -404.5 L-475.2 -402.6 L-475.1 -400.7 L-475.1 -398.7 L-475.2 -396.8 L-475.5 -394.9 L-475.9 -393 L-476.5 -391.1 L-477.3 -389.3 L-478.1 -387.6 L-479.2 -385.9 L-480.3 -384.3 L-481.6 -382.9 L-482.9 -381.5 L-484.4 -380.2 L-486 -379.1 L-487.7 -378.1 L-489.4 -377.2 L-491.2 -376.5 L-493.1 -375.9 L-495 -375.5 L-496.9 -375.2 L-498.8 -375.1 L-500.8 -375.1 L-502.7 -375.3 L-504.6 -375.6 L-506.5 -376.1 L-508.3 -376.7 L-510.1 -377.5 L-511.8 -378.4 L-513.5 -379.4 L-515 -380.6 L-516.5 -381.9 L-517.8 -383.3 L-519 -384.8 L-520.1 -386.4 L-521.1 -388.1 L-521.9 -389.9 L-522.6 -391.7 L-523.2 -393.5 L-523.6 -395.4 L-523.8 -397.4 L-523.9 -399.3 L-523.9 -401.2 L-523.6 -403.2 L-523.3 -405.1 L-522.8 -407 L-522.1 -408.8 L-521.3 -410.5 L-520.3 -412.2 L-519.3 -413.9 L-518.1 -415.4 L-516.7 -416.8 L-515.3 -418.1 L-513.8 -419.3 L-512.2 -420.4 L-510.5 -421.3 L-508.7 -422.1 L-506.9 -422.8 L-505 -423.3 L-503.1 -423.7 L-501.1 -423.9 L-499.2 -423.9 Z " />
<path stroke="rgb(0,0,0)" stroke-opacity="0.999" fill="rgb(255,255,255)" fill-opacity="1" d="M275.7 275 L277.7 275 L279.7 275 L281.6 275.1 L283.6 275.1 L285.6 275.1 L287.6 275.2 L289.5 275.2 L291.5 275.2 L293.5 275.2 L295.4 275.3 L297.4 275.3 L299.4 275.3 L301.4 275.4 L303.3 275.4 L305.3 275.4 L307.3 275.5 L309.2 275.5 L311.2 275.5 L313.2 275.5 L315.2 275.6 L317.1 275.6 L319.1 275.6 L321.1 275.7 L323 275.7 L325 275.7 L325 277.7 L325 279.7 L324.9 281.6 L324.9 283.6 L324.9 285.6 L324.8 287.6 L324.8 289.5 L324.8 291.5 L324.7 293.5 L324.7 295.4 L324.7 297.4 L324.7 299.4 L324.6 301.4 L324.6 303.3 L324.6 305.3 L324.5 307.3 L324.5 309.3 L324.5 311.2 L324.4 313.2 L324.4 315.2 L324.4 317.1 L324.4 319.1 L324.3 321.1 L324.3 323.1 L324.3 325 L322.3 325 L320.3 325 L318.3 324.9 L316.4 324.9 L314.4 324.9 L312.4 324.8 L310.5 324.8 L308.5 324.8 L306.5 324.8 L304.5 324.7 L302.6 324.7 L300.6 324.7 L298.6 324.6 L296.7 324.6 L294.7 324.6 L292.7 324.5 L290.7 324.5 L288.8 324.5 L286.8 324.5 L284.8 324.4 L282.9 324.4 L280.9 324.4 L278.9 324.3 L276.9 324.3 L275 324.3 L275 322.3 L275 320.3 L275.1 318.4 L275.1 316.4 L275.1 314.4 L275.1 312.4 L275.2 310.5 L275.2 308.5 L275.2 306.5 L275.3 304.6 L275.3 302.6 L275.3 300.6 L275.4 298.6 L275.4 296.7 L275.4 294.7 L275.4 292.7 L275.5 290.7 L275.5 288.8 L275.5 286.8 L275.6 284.8 L275.6 282.9 L275.6 280.9 L275.7 278.9 L275.7 276.9 L275.7 275 Z " />
</g>
</g>
</svg>
