<!DOCTYPE svg>
<svg xmlns="http://www.w3.org/2000/svg" xmlns:xlink="http://www.w3.org/1999/xlink" width="1000" height="1000">
<g transform="translate(500.000000,500.000000)">
<g transform="scale(3.000000,3.000000)">
<path stroke="rgb(0,0,0)" stroke-opacity="1" fill="rgb(255,255,255)" fill-opacity="1" d="M-813.1 -813.9 L-812.2 -813.8 L-811.2 -813.8 L-810.2 -813.8 L-809.2 -813.7 L-808.2 -813.7 L-807.3 -813.7 L-806.3 -813.7 L-805.3 -813.6 L-804.3 -813.6 L-803.3 -813.6 L-802.3 -813.5 L-801.4 -813.5 L-800.4 -813.5 L-799.4 -813.5 L-798.4 -813.4 L-797.4 -813.4 L-796.4 -813.4 L-795.5 -813.3 L-794.5 -813.3 L-793.5 -813.3 L-792.5 -813.3 L-791.5 -813.2 L-790.5 -813.2 L-789.6 -813.2 L-788.6 -813.1 L-788.6 -812.2 L-788.6 -811.2 L-788.7 -810.2 L-788.7 -809.2 L-788.7 -808.2 L-788.8 -807.2 L-788.8 -806.3 L-788.8 -805.3 L-788.8 -804.3 L-788.9 -803.3 L-788.9 -802.3 L-788.9 -801.3 L-789 -800.4 L-789 -799.4 L-789 -798.4 L-789 -797.4 L-789.1 -796.4 L-789.1 -795.5 L-789.1 -794.5 L-789.2 -793.5 L-789.2 -792.5 L-789.2 -791.5 L-789.2 -790.5 L-789.3 -789.6 L-789.3 -788.6 L-790.3 -788.6 L-791.3 -788.6 L-792.3 -788.7 L-793.2 -788.7 L-794.2 -788.7 L-795.2 -788.7 L-796.2 -788.8 L-797.2 -788.8 L-798.1 -788.8 L-799.1 -788.9 L-800.1 -788.9 L-801.1 -788.9 L-802.1 -788.9 L-803.1 -789 L-804 -789 L-805 -789 L-806 -789.1 L-807 -789.1 L-808 -789.1 L-809 -789.2 L-809.9 -789.2 L-810.9 -789.2 L-811.9 -789.2 L-812.9 -789.3 L-813.9 -789.3 L-813.8 -790.3 L-813.8 -791.3 L-813.8 -792.2 L-813.8 -793.2 L-813.7 -794.2 L-813.7 -795.2 L-813.7 -796.2 L-813.6 -797.2 L-813.6 -798.1 L-813.6 -799.1 L-813.6 -800.1 L-813.5 -801.1 L-813.5 -802.1 L-813.5 -803.1 L-813.4 -804 L-813.4 -805 L-813.4 -806 L-813.3 -807 L-813.3 -808 L-813.3 -808.9 L-813.3 -809.9 L-813.2 -810.9 L-813.2 -811.9 L-813.2 -812.9 L-813.1 -813.9 Z " />
<path stroke="rgb(0,0,0)" stroke-opacity="1" fill="rgb(255,255,255)" fill-opacity="1" d="M-197.5 -312.9 L-196.5 -312.7 L-195.5 -312.4 L-194.5 -312 L-193.5 -311.5 L-192.6 -311 L-191.8 -310.4 L-190.9 -309.8 L-190.2 -309 L-189.5 -308.2 L-188.8 -307.4 L-188.3 -306.5 L-187.8 -305.6 L-187.4 -304.6 L-187 -303.6 L-186.8 -302.6 L-186.6 -301.6 L-186.5 -300.5 L-186.5 -299.5 L-186.5 -298.4 L-186.7 -297.4 L-186.9 -296.3 L-187.3 -295.3 L-187.7 -294.4 L-188.1 -293.4 L-188.7 -292.5 L-189.3 -291.7 L-190 -290.9 L-190.7 -290.1 L-191.5 -289.4 L-192.4 -288.8 L-193.3 -288.3 L-194.2 -287.8 L-195.2 -287.4 L-196.2 -287.1 L-197.2 -286.8 L-198.3 -286.7 L-199.3 -286.6 L-200.4 -286.6 L-201.4 -286.7 L-202.4 -286.9 L-203.5 -287.1 L-204.5 -287.5 L-205.4 -287.9 L-206.4 -288.4 L-207.3 -288.9 L-208.1 -289.6 L-208.9 -290.3 L-209.6 -291 L-210.3 -291.8 L-210.9 -292.7 L-211.4 -293.6 L-211.9 -294.6 L-212.2 -295.6 L-212.5 -296.6 L-212.8 -297.6 L-212.9 -298.6 L-213 -299.7 L-212.9 -300.7 L-212.8 -301.8 L-212.6 -302.8 L-212.3 -303.8 L-212 -304.8 L-211.5 -305.8 L-211 -306.7 L-210.5 -307.6 L-209.8 -308.4 L-209.1 -309.2 L-208.3 -309.9 L-207.5 -310.6 L-206.6 -311.1 L-205.7 -311.7 L-204.7 -312.1 L-203.7 -312.5 L-202.7 -312.7 L-201.7 -312.9 L-200.7 -313 L-199.6 -313.1 L-198.5 -313 L-197.5 -312.9 Z " />
<path stroke="rgb(0,0,0)" stroke-opacity="1" fill="rgb(255,255,255)" fill-opacity="1" d="M-612.3 -812.6 L-611.3 -812.6 L-610.3 -812.5 L-609.3 -812.5 L-608.3 -812.5 L-607.4 -812.5 L-606.4 -812.5 L-605.4 -812.5 L-604.4 -812.5 L-603.4 -812.5 L-602.4 -812.4 L-601.5 -812.4 L-600.5 -812.4 L-599.5 -812.4 L-598.5 -812.4 L-597.5 -812.4 L-596.5 -812.4 L-595.6 -812.4 L-594.6 -812.4 L-593.6 -812.3 L-592.6 -812.3 L-591.6 -812.3 L-590.6 -812.3 L-589.7 -812.3 L-588.7 -812.3 L-587.7 -812.3 L-587.7 -811.3 L-587.7 -810.3 L-587.7 -809.3 L-587.7 -808.3 L-587.8 -807.4 L-587.8 -806.4 L-587.8 -805.4 L-587.8 -804.4 L-587.8 -803.4 L-587.8 -802.4 L-587.8 -801.5 L-587.8 -800.5 L-587.9 -799.5 L-587.9 -798.5 L-587.9 -797.5 L-587.9 -796.5 L-587.9 -795.6 L-587.9 -794.6 L-587.9 -793.6 L-587.9 -792.6 L-587.9 -791.6 L-588 -790.6 L-588 -789.7 L-588 -788.7 L-588 -787.7 L-589 -787.7 L-590 -787.7 L-590.9 -787.7 L-591.9 -787.7 L-592.9 -787.8 L-593.9 -787.8 L-594.9 -787.8 L-595.9 -787.8 L-596.8 -787.8 L-597.8 -787.8 L-598.8 -787.8 L-599.8 -787.8 L-600.8 -787.9 L-601.8 -787.9 L-602.7 -787.9 L-603.7 -787.9 L-604.7 -787.9 L-605.7 -787.9 L-606.7 -787.9 L-607.7 -787.9 L-608.6 -787.9 L-609.6 -788 L-610.6 -788 L-611.6 -788 L-612.6 -788 L-612.6 -789 L-612.5 -790 L-612.5 -790.9 L-612.5 -791.9 L-612.5 -792.9 L-612.5 -793.9 L-612.5 -794.9 L-612.5 -795.9 L-612.5 -796.8 L-612.5 -797.8 L-612.4 -798.8 L-612.4 -799.8 L-612.4 -800.8 L-612.4 -801.8 L-612.4 -802.7 L-612.4 -803.7 L-612.4 -804.7 L-612.4 -805.7 L-612.3 -806.7 L-612.3 -807.7 L-612.3 -808.6 L-612.3 -809.6 L-612.3 -810.6 L-612.3 -811.6 L-612.3 -812.6 Z " />
<path stroke="rgb(0,0,0)" stroke-opacity="1" fill="rgb(255,255,255)" fill-opacity="1" d="M15.82 -310.5 L16.61 -309.2 L17.3 -307.8 L17.88 -306.5 L18.35 -305 L18.7 -303.6 L18.93 -302.1 L19.05 -300.6 L19.04 -299.1 L18.92 -297.6 L18.68 -296.1 L18.32 -294.6 L17.84 -293.2 L17.25 -291.8 L16.56 -290.5 L15.76 -289.2 L14.86 -288 L13.87 -286.8 L12.79 -285.8 L11.63 -284.8 L10.4 -284 L9.102 -283.2 L7.749 -282.5 L6.347 -282 L4.906 -281.5 L3.435 -281.2 L1.942 -281 L0.4382 -280.9 L-1.068 -281 L-2.566 -281.1 L-4.048 -281.4 L-5.503 -281.8 L-6.923 -282.3 L-8.298 -282.9 L-9.62 -283.6 L-10.88 -284.4 L-12.07 -285.4 L-13.18 -286.4 L-14.21 -287.5 L-15.15 -288.7 L-16 -289.9 L-16.74 -291.2 L-17.37 -292.6 L-17.89 -294 L-18.3 -295.4 L-18.6 -296.9 L-18.77 -298.4 L-18.83 -299.9 L-18.76 -301.4 L-18.58 -302.9 L-18.28 -304.4 L-17.86 -305.8 L-17.33 -307.3 L-16.69 -308.6 L-15.94 -309.9 L-15.09 -311.2 L-14.14 -312.3 L-13.11 -313.4 L-11.99 -314.4 L-10.79 -315.4 L-9.526 -316.2 L-8.2 -316.9 L-6.821 -317.5 L-5.398 -318 L-3.941 -318.4 L-2.458 -318.6 L-0.9586 -318.8 L0.5475 -318.8 L2.051 -318.7 L3.542 -318.5 L5.012 -318.2 L6.45 -317.7 L7.849 -317.2 L9.198 -316.5 L10.49 -315.7 L11.72 -314.8 L12.87 -313.9 L13.94 -312.8 L14.93 -311.7 L15.82 -310.5 Z " />
<path stroke="rgb(0,0,0)" stroke-opacity="1" fill="rgb(255,255,255)" fill-opacity="1" d="M-412.3 -812.5 L-411.3 -812.5 L-410.3 -812.5 L-409.3 -812.5 L-408.3 -812.5 L-407.3 -812.5 L-406.4 -812.5 L-405.4 -812.5 L-404.4 -812.5 L-403.4 -812.4 L-402.4 -812.4 L-401.4 -812.4 L-400.5 -812.4 L-399.5 -812.4 L-398.5 -812.4 L-397.5 -812.4 L-396.5 -812.4 L-395.5 -812.3 L-394.6 -812.3 L-393.6 -812.3 L-392.6 -812.3 L-391.6 -812.3 L-390.6 -812.3 L-389.6 -812.3 L-388.7 -812.3 L-387.7 -812.3 L-387.7 -811.3 L-387.7 -810.3 L-387.7 -809.3 L-387.7 -808.3 L-387.7 -807.3 L-387.8 -806.4 L-387.8 -805.4 L-387.8 -804.4 L-387.8 -803.4 L-387.8 -802.4 L-387.8 -801.4 L-387.8 -800.5 L-387.8 -799.5 L-387.8 -798.5 L-387.9 -797.5 L-387.9 -796.5 L-387.9 -795.5 L-387.9 -794.6 L-387.9 -793.6 L-387.9 -792.6 L-387.9 -791.6 L-387.9 -790.6 L-388 -789.6 L-388 -788.7 L-388 -787.7 L-389 -787.7 L-389.9 -787.7 L-390.9 -787.7 L-391.9 -787.7 L-392.9 -787.7 L-393.9 -787.8 L-394.9 -787.8 L-395.8 -787.8 L-396.8 -787.8 L-397.8 -787.8 L-398.8 -787.8 L-399.8 -787.8 L-400.8 -787.8 L-401.7 -787.8 L-402.7 -787.9 L-403.7 -787.9 L-404.7 -787.9 L-405.7 -787.9 L-406.7 -787.9 L-407.6 -787.9 L-408.6 -787.9 L-409.6 -787.9 L-410.6 -788 L-411.6 -788 L-412.6 -788 L-412.5 -789 L-412.5 -789.9 L-412.5 -790.9 L-412.5 -791.9 L-412.5 -792.9 L-412.5 -793.9 L-412.5 -794.9 L-412.5 -795.8 L-412.4 -796.8 L-412.4 -797.8 L-412.4 -798.8 L-412.4 -799.8 L-412.4 -800.8 L-412.4 -801.7 L-412.4 -802.7 L-412.4 -803.7 L-412.4 -804.7 L-412.3 -805.7 L-412.3 -806.7 L-412.3 -807.6 L-412.3 -808.6 L-412.3 -809.6 L-412.3 -810.6 L-412.3 -811.6 L-412.3 -812.5 Z " />
<path stroke="rgb(0,0,0)" stroke-opacity="1" fill="rgb(255,255,255)" fill-opacity="1" d="M224.1 -301.1 L224.1 -299.2 L224 -297.3 L223.7 -295.4 L223.3 -293.5 L222.7 -291.7 L221.9 -289.9 L221.1 -288.2 L220.1 -286.5 L218.9 -285 L217.7 -283.5 L216.3 -282.2 L214.9 -281 L213.3 -279.8 L211.7 -278.8 L209.9 -278 L208.2 -277.3 L206.3 -276.7 L204.5 -276.3 L202.6 -276 L200.6 -275.9 L198.7 -275.9 L196.8 -276.1 L194.9 -276.4 L193.1 -276.9 L191.2 -277.5 L189.5 -278.3 L187.8 -279.2 L186.2 -280.2 L184.6 -281.4 L183.2 -282.6 L181.9 -284 L180.7 -285.5 L179.6 -287.1 L178.6 -288.8 L177.8 -290.5 L177.1 -292.3 L176.6 -294.1 L176.2 -296 L176 -297.9 L175.9 -299.8 L175.9 -301.8 L176.2 -303.7 L176.5 -305.5 L177 -307.4 L177.7 -309.2 L178.5 -310.9 L179.4 -312.6 L180.5 -314.2 L181.7 -315.7 L183 -317.1 L184.4 -318.4 L185.9 -319.6 L187.5 -320.7 L189.2 -321.6 L191 -322.4 L192.8 -323 L194.6 -323.5 L196.5 -323.9 L198.4 -324.1 L200.3 -324.1 L202.3 -324 L204.2 -323.8 L206 -323.4 L207.9 -322.8 L209.7 -322.1 L211.4 -321.3 L213 -320.3 L214.6 -319.2 L216.1 -318 L217.5 -316.6 L218.7 -315.2 L219.9 -313.7 L220.9 -312 L221.8 -310.3 L222.6 -308.6 L223.2 -306.8 L223.6 -304.9 L224 -303 L224.1 -301.1 Z " />
<path stroke="rgb(0,0,0)" stroke-opacity="1" fill="rgb(255,255,255)" fill-opacity="1" d="M-212.3 -812.5 L-211.3 -812.5 L-210.3 -812.5 L-209.3 -812.5 L-208.3 -812.5 L-207.3 -812.5 L-206.4 -812.5 L-205.4 -812.5 L-204.4 -812.5 L-203.4 -812.4 L-202.4 -812.4 L-201.4 -812.4 L-200.5 -812.4 L-199.5 -812.4 L-198.5 -812.4 L-197.5 -812.4 L-196.5 -812.4 L-195.5 -812.3 L-194.6 -812.3 L-193.6 -812.3 L-192.6 -812.3 L-191.6 -812.3 L-190.6 -812.3 L-189.6 -812.3 L-188.7 -812.3 L-187.7 -812.3 L-187.7 -811.3 L-187.7 -810.3 L-187.7 -809.3 L-187.7 -808.3 L-187.7 -807.3 L-187.8 -806.4 L-187.8 -805.4 L-187.8 -804.4 L-187.8 -803.4 L-187.8 -802.4 L-187.8 -801.4 L-187.8 -800.5 L-187.8 -799.5 L-187.8 -798.5 L-187.9 -797.5 L-187.9 -796.5 L-187.9 -795.5 L-187.9 -794.6 L-187.9 -793.6 L-187.9 -792.6 L-187.9 -791.6 L-187.9 -790.6 L-188 -789.6 L-188 -788.7 L-188 -787.7 L-189 -787.7 L-189.9 -787.7 L-190.9 -787.7 L-191.9 -787.7 L-192.9 -787.7 L-193.9 -787.8 L-194.9 -787.8 L-195.8 -787.8 L-196.8 -787.8 L-197.8 -787.8 L-198.8 -787.8 L-199.8 -787.8 L-200.8 -787.8 L-201.7 -787.8 L-202.7 -787.9 L-203.7 -787.9 L-204.7 -787.9 L-205.7 -787.9 L-206.7 -787.9 L-207.6 -787.9 L-208.6 -787.9 L-209.6 -787.9 L-210.6 -788 L-211.6 -788 L-212.6 -788 L-212.5 -789 L-212.5 -789.9 L-212.5 -790.9 L-212.5 -791.9 L-212.5 -792.9 L-212.5 -793.9 L-212.5 -794.9 L-212.5 -795.8 L-212.4 -796.8 L-212.4 -797.8 L-212.4 -798.8 L-212.4 -799.8 L-212.4 -800.8 L-212.4 -801.7 L-212.4 -802.7 L-212.4 -803.7 L-212.4 -804.7 L-212.3 -805.7 L-212.3 -806.7 L-212.3 -807.6 L-212.3 -808.6 L-212.3 -809.6 L-212.3 -810.6 L-212.3 -811.6 L-212.3 -812.5 Z " />
<path stroke="rgb(0,0,0)" stroke-opacity="1" fill="rgb(255,255,255)" fill-opacity="1" d="M-297.5 -212.9 L-296.5 -212.7 L-295.5 -212.4 L-294.5 -212 L-293.5 -211.5 L-292.6 -211 L-291.8 -210.4 L-290.9 -209.8 L-290.2 -209 L-289.5 -208.2 L-288.8 -207.4 L-288.3 -206.5 L-287.8 -205.6 L-287.4 -204.6 L-287 -203.6 L-286.8 -202.6 L-286.6 -201.6 L-286.5 -200.5 L-286.5 -199.5 L-286.5 -198.4 L-286.7 -197.4 L-286.9 -196.3 L-287.3 -195.3 L-287.7 -194.4 L-288.1 -193.4 L-288.7 -192.5 L-289.3 -191.7 L-290 -190.9 L-290.7 -190.1 L-291.5 -189.4 L-292.4 -188.8 L-293.3 -188.3 L-294.2 -187.8 L-295.2 -187.4 L-296.2 -187.1 L-297.2 -186.8 L-298.3 -186.7 L-299.3 -186.6 L-300.4 -186.6 L-301.4 -186.7 L-302.4 -186.9 L-303.5 -187.1 L-304.5 -187.5 L-305.4 -187.9 L-306.4 -188.4 L-307.3 -188.9 L-308.1 -189.6 L-308.9 -190.3 L-309.6 -191 L-310.3 -191.8 L-310.9 -192.7 L-311.4 -193.6 L-311.9 -194.6 L-312.2 -195.6 L-312.5 -196.6 L-312.8 -197.6 L-312.9 -198.6 L-313 -199.7 L-312.9 -200.7 L-312.8 -201.8 L-312.6 -202.8 L-312.3 -203.8 L-312 -204.8 L-311.5 -205.8 L-311 -206.7 L-310.5 -207.6 L-309.8 -208.4 L-309.1 -209.2 L-308.3 -209.9 L-307.5 -210.6 L-306.6 -211.1 L-305.7 -211.7 L-304.7 -212.1 L-303.7 -212.5 L-302.7 -212.7 L-301.7 -212.9 L-300.7 -213 L-299.6 -213.1 L-298.5 -213 L-297.5 -212.9 Z " />
<path stroke="rgb(0,0,0)" stroke-opacity="1" fill="rgb(255,255,255)" fill-opacity="1" d="M-712.3 -712.6 L-711.3 -712.6 L-710.3 -712.5 L-709.3 -712.5 L-708.3 -712.5 L-707.4 -712.5 L-706.4 -712.5 L-705.4 -712.5 L-704.4 -712.5 L-703.4 -712.5 L-702.4 -712.4 L-701.5 -712.4 L-700.5 -712.4 L-699.5 -712.4 L-698.5 -712.4 L-697.5 -712.4 L-696.5 -712.4 L-695.6 -712.4 L-694.6 -712.4 L-693.6 -712.3 L-692.6 -712.3 L-691.6 -712.3 L-690.6 -712.3 L-689.7 -712.3 L-688.7 -712.3 L-687.7 -712.3 L-687.7 -711.3 L-687.7 -710.3 L-687.7 -709.3 L-687.7 -708.3 L-687.8 -707.4 L-687.8 -706.4 L-687.8 -705.4 L-687.8 -704.4 L-687.8 -703.4 L-687.8 -702.4 L-687.8 -701.5 L-687.8 -700.5 L-687.9 -699.5 L-687.9 -698.5 L-687.9 -697.5 L-687.9 -696.5 L-687.9 -695.6 L-687.9 -694.6 L-687.9 -693.6 L-687.9 -692.6 L-687.9 -691.6 L-688 -690.6 L-688 -689.7 L-688 -688.7 L-688 -687.7 L-689 -687.7 L-690 -687.7 L-690.9 -687.7 L-691.9 -687.7 L-692.9 -687.8 L-693.9 -687.8 L-694.9 -687.8 L-695.9 -687.8 L-696.8 -687.8 L-697.8 -687.8 L-698.8 -687.8 L-699.8 -687.8 L-700.8 -687.9 L-701.8 -687.9 L-702.7 -687.9 L-703.7 -687.9 L-704.7 -687.9 L-705.7 -687.9 L-706.7 -687.9 L-707.7 -687.9 L-708.6 -687.9 L-709.6 -688 L-710.6 -688 L-711.6 -688 L-712.6 -688 L-712.6 -689 L-712.5 -690 L-712.5 -690.9 L-712.5 -691.9 L-712.5 -692.9 L-712.5 -693.9 L-712.5 -694.9 L-712.5 -695.9 L-712.5 -696.8 L-712.5 -697.8 L-712.4 -698.8 L-712.4 -699.8 L-712.4 -700.8 L-712.4 -701.8 L-712.4 -702.7 L-712.4 -703.7 L-712.4 -704.7 L-712.4 -705.7 L-712.3 -706.7 L-712.3 -707.7 L-712.3 -708.6 L-712.3 -709.6 L-712.3 -710.6 L-712.3 -711.6 L-712.3 -712.6 Z " />
<path stroke="rgb(0,0,0)" stroke-opacity="1" fill="rgb(255,255,255)" fill-opacity="1" d="M-84.18 -210.5 L-83.39 -209.2 L-82.7 -207.8 L-82.12 -206.5 L-81.65 -205 L-81.3 -203.6 L-81.07 -202.1 L-80.95 -200.6 L-80.96 -199.1 L-81.08 -197.6 L-81.32 -196.1 L-81.68 -194.6 L-82.16 -193.2 L-82.75 -191.8 L-83.44 -190.5 L-84.24 -189.2 L-85.14 -188 L-86.13 -186.8 L-87.21 -185.8 L-88.37 -184.8 L-89.6 -184 L-90.9 -183.2 L-92.25 -182.5 L-93.65 -182 L-95.09 -181.5 L-96.57 -181.2 L-98.06 -181 L-99.56 -180.9 L-101.1 -181 L-102.6 -181.1 L-104 -181.4 L-105.5 -181.8 L-106.9 -182.3 L-108.3 -182.9 L-109.6 -183.6 L-110.9 -184.4 L-112.1 -185.4 L-113.2 -186.4 L-114.2 -187.5 L-115.2 -188.7 L-116 -189.9 L-116.7 -191.2 L-117.4 -192.6 L-117.9 -194 L-118.3 -195.4 L-118.6 -196.9 L-118.8 -198.4 L-118.8 -199.9 L-118.8 -201.4 L-118.6 -202.9 L-118.3 -204.4 L-117.9 -205.8 L-117.3 -207.3 L-116.7 -208.6 L-115.9 -209.9 L-115.1 -211.2 L-114.1 -212.3 L-113.1 -213.4 L-112 -214.4 L-110.8 -215.4 L-109.5 -216.2 L-108.2 -216.9 L-106.8 -217.5 L-105.4 -218 L-103.9 -218.4 L-102.5 -218.6 L-101 -218.8 L-99.45 -218.8 L-97.95 -218.7 L-96.46 -218.5 L-94.99 -218.2 L-93.55 -217.7 L-92.15 -217.2 L-90.8 -216.5 L-89.51 -215.7 L-88.28 -214.8 L-87.13 -213.9 L-86.06 -212.8 L-85.07 -211.7 L-84.18 -210.5 Z " />
<path stroke="rgb(0,0,0)" stroke-opacity="1" fill="rgb(255,255,255)" fill-opacity="1" d="M-512.3 -712.5 L-511.3 -712.5 L-510.3 -712.5 L-509.3 -712.5 L-508.3 -712.5 L-507.3 -712.5 L-506.4 -712.5 L-505.4 -712.5 L-504.4 -712.5 L-503.4 -712.4 L-502.4 -712.4 L-501.4 -712.4 L-500.5 -712.4 L-499.5 -712.4 L-498.5 -712.4 L-497.5 -712.4 L-496.5 -712.4 L-495.5 -712.3 L-494.6 -712.3 L-493.6 -712.3 L-492.6 -712.3 L-491.6 -712.3 L-490.6 -712.3 L-489.6 -712.3 L-488.7 -712.3 L-487.7 -712.3 L-487.7 -711.3 L-487.7 -710.3 L-487.7 -709.3 L-487.7 -708.3 L-487.7 -707.3 L-487.8 -706.4 L-487.8 -705.4 L-487.8 -704.4 L-487.8 -703.4 L-487.8 -702.4 L-487.8 -701.4 L-487.8 -700.5 L-487.8 -699.5 L-487.8 -698.5 L-487.9 -697.5 L-487.9 -696.5 L-487.9 -695.5 L-487.9 -694.6 L-487.9 -693.6 L-487.9 -692.6 L-487.9 -691.6 L-487.9 -690.6 L-488 -689.6 L-488 -688.7 L-488 -687.7 L-489 -687.7 L-489.9 -687.7 L-490.9 -687.7 L-491.9 -687.7 L-492.9 -687.7 L-493.9 -687.8 L-494.9 -687.8 L-495.8 -687.8 L-496.8 -687.8 L-497.8 -687.8 L-498.8 -687.8 L-499.8 -687.8 L-500.8 -687.8 L-501.7 -687.8 L-502.7 -687.9 L-503.7 -687.9 L-504.7 -687.9 L-505.7 -687.9 L-506.7 -687.9 L-507.6 -687.9 L-508.6 -687.9 L-509.6 -687.9 L-510.6 -688 L-511.6 -688 L-512.6 -688 L-512.5 -689 L-512.5 -689.9 L-512.5 -690.9 L-512.5 -691.9 L-512.5 -692.9 L-512.5 -693.9 L-512.5 -694.9 L-512.5 -695.8 L-512.4 -696.8 L-512.4 -697.8 L-512.4 -698.8 L-512.4 -699.8 L-512.4 -700.8 L-512.4 -701.7 L-512.4 -702.7 L-512.4 -703.7 L-512.4 -704.7 L-512.3 -705.7 L-512.3 -706.7 L-512.3 -707.6 L-512.3 -708.6 L-512.3 -709.6 L-512.3 -710.6 L-512.3 -711.6 L-512.3 -712.5 Z " />
<path stroke="rgb(0,0,0)" stroke-opacity="1" fill="rgb(255,255,255)" fill-opacity="1" d="M124.1 -201.1 L124.1 -199.2 L124 -197.3 L123.7 -195.4 L123.3 -193.5 L122.7 -191.7 L121.9 -189.9 L121.1 -188.2 L120.1 -186.5 L118.9 -185 L117.7 -183.5 L116.3 -182.2 L114.9 -181 L113.3 -179.8 L111.7 -178.8 L109.9 -178 L108.2 -177.3 L106.3 -176.7 L104.5 -176.3 L102.6 -176 L100.6 -175.9 L98.72 -175.9 L96.81 -176.1 L94.92 -176.4 L93.06 -176.9 L91.24 -177.5 L89.49 -178.3 L87.79 -179.2 L86.18 -180.2 L84.65 -181.4 L83.22 -182.6 L81.89 -184 L80.68 -185.5 L79.6 -187.1 L78.64 -188.8 L77.81 -190.5 L77.13 -192.3 L76.59 -194.1 L76.2 -196 L75.96 -197.9 L75.87 -199.8 L75.94 -201.8 L76.16 -203.7 L76.52 -205.5 L77.04 -207.4 L77.7 -209.2 L78.5 -210.9 L79.44 -212.6 L80.51 -214.2 L81.7 -215.7 L83.01 -217.1 L84.42 -218.4 L85.94 -219.6 L87.54 -220.7 L89.22 -221.6 L90.97 -222.4 L92.78 -223 L94.63 -223.5 L96.52 -223.9 L98.43 -224.1 L100.3 -224.1 L102.3 -224 L104.2 -223.8 L106 -223.4 L107.9 -222.8 L109.7 -222.1 L111.4 -221.3 L113 -220.3 L114.6 -219.2 L116.1 -218 L117.5 -216.6 L118.7 -215.2 L119.9 -213.7 L120.9 -212 L121.8 -210.3 L122.6 -208.6 L123.2 -206.8 L123.6 -204.9 L124 -203 L124.1 -201.1 Z " />
<path stroke="rgb(0,0,0)" stroke-opacity="1" fill="rgb(255,255,255)" fill-opacity="1" d="M-312.3 -712.5 L-311.3 -712.5 L-310.3 -712.5 L-309.3 -712.5 L-308.3 -712.5 L-307.3 -712.5 L-306.4 -712.5 L-305.4 -712.5 L-304.4 -712.5 L-303.4 -712.4 L-302.4 -712.4 L-301.4 -712.4 L-300.5 -712.4 L-299.5 -712.4 L-298.5 -712.4 L-297.5 -712.4 L-296.5 -712.4 L-295.5 -712.3 L-294.6 -712.3 L-293.6 -712.3 L-292.6 -712.3 L-291.6 -712.3 L-290.6 -712.3 L-289.6 -712.3 L-288.7 -712.3 L-287.7 -712.3 L-287.7 -711.3 L-287.7 -710.3 L-287.7 -709.3 L-287.7 -708.3 L-287.7 -707.3 L-287.8 -706.4 L-287.8 -705.4 L-287.8 -704.4 L-287.8 -703.4 L-287.8 -702.4 L-287.8 -701.4 L-287.8 -700.5 L-287.8 -699.5 L-287.8 -698.5 L-287.9 -697.5 L-287.9 -696.5 L-287.9 -695.5 L-287.9 -694.6 L-287.9 -693.6 L-287.9 -692.6 L-287.9 -691.6 L-287.9 -690.6 L-288 -689.6 L-288 -688.7 L-288 -687.7 L-289 -687.7 L-289.9 -687.7 L-290.9 -687.7 L-291.9 -687.7 L-292.9 -687.7 L-293.9 -687.8 L-294.9 -687.8 L-295.8 -687.8 L-296.8 -687.8 L-297.8 -687.8 L-298.8 -687.8 L-299.8 -687.8 L-300.8 -687.8 L-301.7 -687.8 L-302.7 -687.9 L-303.7 -687.9 L-304.7 -687.9 L-305.7 -687.9 L-306.7 -687.9 L-307.6 -687.9 L-308.6 -687.9 L-309.6 -687.9 L-310.6 -688 L-311.6 -688 L-312.6 -688 L-312.5 -689 L-312.5 -689.9 L-312.5 -690.9 L-312.5 -691.9 L-312.5 -692.9 L-312.5 -693.9 L-312.5 -694.9 L-312.5 -695.8 L-312.4 -696.8 L-312.4 -697.8 L-312.4 -698.8 L-312.4 -699.8 L-312.4 -700.8 L-312.4 -701.7 L-312.4 -702.7 L-312.4 -703.7 L-312.4 -704.7 L-312.3 -705.7 L-312.3 -706.7 L-312.3 -707.6 L-312.3 -708.6 L-312.3 -709.6 L-312.3 -710.6 L-312.3 -711.6 L-312.3 -712.5 Z " />
<path stroke="rgb(0,0,0)" stroke-opacity="1" fill="rgb(255,255,255)" fill-opacity="1" d="M324.8 -199.7 L324.7 -197.8 L324.4 -195.8 L324 -193.9 L323.4 -192 L322.7 -190.2 L321.9 -188.4 L320.9 -186.7 L319.7 -185.1 L318.5 -183.6 L317.1 -182.1 L315.7 -180.8 L314.1 -179.7 L312.4 -178.6 L310.7 -177.7 L308.9 -176.9 L307 -176.3 L305.1 -175.8 L303.2 -175.5 L301.2 -175.3 L299.2 -175.3 L297.3 -175.4 L295.3 -175.7 L293.4 -176.1 L291.5 -176.7 L289.7 -177.5 L288 -178.4 L286.3 -179.4 L284.7 -180.6 L283.2 -181.8 L281.8 -183.2 L280.5 -184.7 L279.4 -186.3 L278.4 -188 L277.5 -189.8 L276.7 -191.6 L276.1 -193.5 L275.7 -195.4 L275.4 -197.3 L275.3 -199.3 L275.3 -201.3 L275.5 -203.2 L275.8 -205.2 L276.3 -207.1 L276.9 -208.9 L277.7 -210.7 L278.6 -212.5 L279.7 -214.1 L280.9 -215.7 L282.2 -217.2 L283.6 -218.5 L285.1 -219.8 L286.7 -220.9 L288.4 -221.9 L290.2 -222.7 L292.1 -223.4 L293.9 -224 L295.9 -224.4 L297.8 -224.7 L299.8 -224.8 L301.7 -224.7 L303.7 -224.5 L305.6 -224.1 L307.5 -223.6 L309.4 -222.9 L311.2 -222.1 L312.9 -221.1 L314.5 -220 L316.1 -218.8 L317.5 -217.5 L318.9 -216 L320.1 -214.5 L321.2 -212.9 L322.1 -211.1 L322.9 -209.3 L323.6 -207.5 L324.1 -205.6 L324.5 -203.7 L324.7 -201.7 L324.8 -199.7 Z " />
<path stroke="rgb(0,0,0)" stroke-opacity="1" fill="rgb(255,255,255)" fill-opacity="1" d="M-812.3 -612.6 L-811.3 -612.6 L-810.3 -612.5 L-809.3 -612.5 L-808.3 -612.5 L-807.4 -612.5 L-806.4 -612.5 L-805.4 -612.5 L-804.4 -612.5 L-803.4 -612.5 L-802.4 -612.4 L-801.5 -612.4 L-800.5 -612.4 L-799.5 -612.4 L-798.5 -612.4 L-797.5 -612.4 L-796.5 -612.4 L-795.6 -612.4 L-794.6 -612.4 L-793.6 -612.3 L-792.6 -612.3 L-791.6 -612.3 L-790.6 -612.3 L-789.7 -612.3 L-788.7 -612.3 L-787.7 -612.3 L-787.7 -611.3 L-787.7 -610.3 L-787.7 -609.3 L-787.7 -608.3 L-787.8 -607.4 L-787.8 -606.4 L-787.8 -605.4 L-787.8 -604.4 L-787.8 -603.4 L-787.8 -602.4 L-787.8 -601.5 L-787.8 -600.5 L-787.9 -599.5 L-787.9 -598.5 L-787.9 -597.5 L-787.9 -596.5 L-787.9 -595.6 L-787.9 -594.6 L-787.9 -593.6 L-787.9 -592.6 L-787.9 -591.6 L-788 -590.6 L-788 -589.7 L-788 -588.7 L-788 -587.7 L-789 -587.7 L-790 -587.7 L-790.9 -587.7 L-791.9 -587.7 L-792.9 -587.8 L-793.9 -587.8 L-794.9 -587.8 L-795.9 -587.8 L-796.8 -587.8 L-797.8 -587.8 L-798.8 -587.8 L-799.8 -587.8 L-800.8 -587.9 L-801.8 -587.9 L-802.7 -587.9 L-803.7 -587.9 L-804.7 -587.9 L-805.7 -587.9 L-806.7 -587.9 L-807.7 -587.9 L-808.6 -587.9 L-809.6 -588 L-810.6 -588 L-811.6 -588 L-812.6 -588 L-812.6 -589 L-812.5 -590 L-812.5 -590.9 L-812.5 -591.9 L-812.5 -592.9 L-812.5 -593.9 L-812.5 -594.9 L-812.5 -595.9 L-812.5 -596.8 L-812.5 -597.8 L-812.4 -598.8 L-812.4 -599.8 L-812.4 -600.8 L-812.4 -601.8 L-812.4 -602.7 L-812.4 -603.7 L-812.4 -604.7 L-812.4 -605.7 L-812.3 -606.7 L-812.3 -607.7 L-812.3 -608.6 L-812.3 -609.6 L-812.3 -610.6 L-812.3 -611.6 L-812.3 -612.6 Z " />
<path stroke="rgb(0,0,0)" stroke-opacity="1" fill="rgb(255,255,255)" fill-opacity="1" d="M-184.2 -110.5 L-183.4 -109.2 L-182.7 -107.8 L-182.1 -106.5 L-181.7 -105 L-181.3 -103.6 L-181.1 -102.1 L-181 -100.6 L-181 -99.06 L-181.1 -97.56 L-181.3 -96.07 L-181.7 -94.61 L-182.2 -93.18 L-182.7 -91.79 L-183.4 -90.46 L-184.2 -89.18 L-185.1 -87.97 L-186.1 -86.84 L-187.2 -85.79 L-188.4 -84.82 L-189.6 -83.96 L-190.9 -83.19 L-192.3 -82.53 L-193.7 -81.98 L-195.1 -81.54 L-196.6 -81.22 L-198.1 -81.01 L-199.6 -80.93 L-201.1 -80.96 L-202.6 -81.11 L-204 -81.39 L-205.5 -81.78 L-206.9 -82.28 L-208.3 -82.89 L-209.6 -83.62 L-210.9 -84.44 L-212.1 -85.36 L-213.2 -86.38 L-214.2 -87.48 L-215.2 -88.65 L-216 -89.9 L-216.7 -91.21 L-217.4 -92.58 L-217.9 -93.99 L-218.3 -95.44 L-218.6 -96.92 L-218.8 -98.42 L-218.8 -99.92 L-218.8 -101.4 L-218.6 -102.9 L-218.3 -104.4 L-217.9 -105.8 L-217.3 -107.3 L-216.7 -108.6 L-215.9 -109.9 L-215.1 -111.2 L-214.1 -112.3 L-213.1 -113.4 L-212 -114.4 L-210.8 -115.4 L-209.5 -116.2 L-208.2 -116.9 L-206.8 -117.5 L-205.4 -118 L-203.9 -118.4 L-202.5 -118.6 L-201 -118.8 L-199.5 -118.8 L-197.9 -118.7 L-196.5 -118.5 L-195 -118.2 L-193.5 -117.7 L-192.2 -117.2 L-190.8 -116.5 L-189.5 -115.7 L-188.3 -114.8 L-187.1 -113.9 L-186.1 -112.8 L-185.1 -111.7 L-184.2 -110.5 Z " />
<path stroke="rgb(0,0,0)" stroke-opacity="1" fill="rgb(255,255,255)" fill-opacity="1" d="M-612.3 -612.5 L-611.3 -612.5 L-610.3 -612.5 L-609.3 -612.5 L-608.3 -612.5 L-607.3 -612.5 L-606.4 -612.5 L-605.4 -612.5 L-604.4 -612.5 L-603.4 -612.4 L-602.4 -612.4 L-601.4 -612.4 L-600.5 -612.4 L-599.5 -612.4 L-598.5 -612.4 L-597.5 -612.4 L-596.5 -612.4 L-595.5 -612.3 L-594.6 -612.3 L-593.6 -612.3 L-592.6 -612.3 L-591.6 -612.3 L-590.6 -612.3 L-589.6 -612.3 L-588.7 -612.3 L-587.7 -612.3 L-587.7 -611.3 L-587.7 -610.3 L-587.7 -609.3 L-587.7 -608.3 L-587.7 -607.3 L-587.8 -606.4 L-587.8 -605.4 L-587.8 -604.4 L-587.8 -603.4 L-587.8 -602.4 L-587.8 -601.4 L-587.8 -600.5 L-587.8 -599.5 L-587.8 -598.5 L-587.9 -597.5 L-587.9 -596.5 L-587.9 -595.5 L-587.9 -594.6 L-587.9 -593.6 L-587.9 -592.6 L-587.9 -591.6 L-587.9 -590.6 L-588 -589.6 L-588 -588.7 L-588 -587.7 L-589 -587.7 L-589.9 -587.7 L-590.9 -587.7 L-591.9 -587.7 L-592.9 -587.7 L-593.9 -587.8 L-594.9 -587.8 L-595.8 -587.8 L-596.8 -587.8 L-597.8 -587.8 L-598.8 -587.8 L-599.8 -587.8 L-600.8 -587.8 L-601.7 -587.8 L-602.7 -587.9 L-603.7 -587.9 L-604.7 -587.9 L-605.7 -587.9 L-606.7 -587.9 L-607.6 -587.9 L-608.6 -587.9 L-609.6 -587.9 L-610.6 -588 L-611.6 -588 L-612.6 -588 L-612.5 -589 L-612.5 -589.9 L-612.5 -590.9 L-612.5 -591.9 L-612.5 -592.9 L-612.5 -593.9 L-612.5 -594.9 L-612.5 -595.8 L-612.4 -596.8 L-612.4 -597.8 L-612.4 -598.8 L-612.4 -599.8 L-612.4 -600.8 L-612.4 -601.7 L-612.4 -602.7 L-612.4 -603.7 L-612.4 -604.7 L-612.3 -605.7 L-612.3 -606.7 L-612.3 -607.6 L-612.3 -608.6 L-612.3 -609.6 L-612.3 -610.6 L-612.3 -611.6 L-612.3 -612.5 Z " />
<path stroke="rgb(0,0,0)" stroke-opacity="1" fill="rgb(255,255,255)" fill-opacity="1" d="M24.12 -101.1 L24.13 -99.17 L23.99 -97.26 L23.7 -95.36 L23.26 -93.5 L22.67 -91.67 L21.94 -89.89 L21.07 -88.18 L20.06 -86.55 L18.93 -85 L17.68 -83.54 L16.32 -82.19 L14.85 -80.95 L13.29 -79.83 L11.65 -78.84 L9.934 -77.98 L8.154 -77.26 L6.323 -76.69 L4.452 -76.26 L2.553 -75.98 L0.638 -75.86 L-1.281 -75.88 L-3.192 -76.06 L-5.083 -76.39 L-6.941 -76.87 L-8.755 -77.5 L-10.51 -78.26 L-12.21 -79.17 L-13.82 -80.21 L-15.35 -81.37 L-16.78 -82.65 L-18.11 -84.04 L-19.32 -85.53 L-20.4 -87.11 L-21.36 -88.77 L-22.19 -90.5 L-22.87 -92.3 L-23.41 -94.14 L-23.8 -96.02 L-24.04 -97.92 L-24.13 -99.84 L-24.06 -101.8 L-23.84 -103.7 L-23.48 -105.5 L-22.96 -107.4 L-22.3 -109.2 L-21.5 -110.9 L-20.56 -112.6 L-19.49 -114.2 L-18.3 -115.7 L-16.99 -117.1 L-15.58 -118.4 L-14.06 -119.6 L-12.46 -120.7 L-10.78 -121.6 L-9.029 -122.4 L-7.222 -123 L-5.37 -123.5 L-3.483 -123.9 L-1.575 -124.1 L0.344 -124.1 L2.26 -124 L4.163 -123.8 L6.039 -123.4 L7.877 -122.8 L9.665 -122.1 L11.39 -121.3 L13.05 -120.3 L14.62 -119.2 L16.1 -118 L17.48 -116.6 L18.75 -115.2 L19.9 -113.7 L20.92 -112 L21.81 -110.3 L22.57 -108.6 L23.18 -106.8 L23.64 -104.9 L23.96 -103 L24.12 -101.1 Z " />
<path stroke="rgb(0,0,0)" stroke-opacity="1" fill="rgb(255,255,255)" fill-opacity="1" d="M-412.3 -612.5 L-411.3 -612.5 L-410.3 -612.5 L-409.3 -612.5 L-408.3 -612.5 L-407.3 -612.5 L-406.4 -612.5 L-405.4 -612.5 L-404.4 -612.5 L-403.4 -612.4 L-402.4 -612.4 L-401.4 -612.4 L-400.5 -612.4 L-399.5 -612.4 L-398.5 -612.4 L-397.5 -612.4 L-396.5 -612.4 L-395.5 -612.3 L-394.6 -612.3 L-393.6 -612.3 L-392.6 -612.3 L-391.6 -612.3 L-390.6 -612.3 L-389.6 -612.3 L-388.7 -612.3 L-387.7 -612.3 L-387.7 -611.3 L-387.7 -610.3 L-387.7 -609.3 L-387.7 -608.3 L-387.7 -607.3 L-387.8 -606.4 L-387.8 -605.4 L-387.8 -604.4 L-387.8 -603.4 L-387.8 -602.4 L-387.8 -601.4 L-387.8 -600.5 L-387.8 -599.5 L-387.8 -598.5 L-387.9 -597.5 L-387.9 -596.5 L-387.9 -595.5 L-387.9 -594.6 L-387.9 -593.6 L-387.9 -592.6 L-387.9 -591.6 L-387.9 -590.6 L-388 -589.6 L-388 -588.7 L-388 -587.7 L-389 -587.7 L-389.9 -587.7 L-390.9 -587.7 L-391.9 -587.7 L-392.9 -587.7 L-393.9 -587.8 L-394.9 -587.8 L-395.8 -587.8 L-396.8 -587.8 L-397.8 -587.8 L-398.8 -587.8 L-399.8 -587.8 L-400.8 -587.8 L-401.7 -587.8 L-402.7 -587.9 L-403.7 -587.9 L-404.7 -587.9 L-405.7 -587.9 L-406.7 -587.9 L-407.6 -587.9 L-408.6 -587.9 L-409.6 -587.9 L-410.6 -588 L-411.6 -588 L-412.6 -588 L-412.5 -589 L-412.5 -589.9 L-412.5 -590.9 L-412.5 -591.9 L-412.5 -592.9 L-412.5 -593.9 L-412.5 -594.9 L-412.5 -595.8 L-412.4 -596.8 L-412.4 -597.8 L-412.4 -598.8 L-412.4 -599.8 L-412.4 -600.8 L-412.4 -601.7 L-412.4 -602.7 L-412.4 -603.7 L-412.4 -604.7 L-412.3 -605.7 L-412.3 -606.7 L-412.3 -607.6 L-412.3 -608.6 L-412.3 -609.6 L-412.3 -610.6 L-412.3 -611.6 L-412.3 -612.5 Z " />
<path stroke="rgb(0,0,0)" stroke-opacity="1" fill="rgb(255,255,255)" fill-opacity="1" d="M224.8 -99.73 L224.7 -97.77 L224.4 -95.82 L224 -93.89 L223.4 -92.01 L222.7 -90.17 L221.9 -88.4 L220.9 -86.7 L219.7 -85.08 L218.5 -83.56 L217.1 -82.14 L215.7 -80.84 L214.1 -79.65 L212.4 -78.6 L210.7 -77.68 L208.9 -76.9 L207 -76.27 L205.1 -75.78 L203.2 -75.46 L201.2 -75.28 L199.2 -75.26 L197.3 -75.4 L195.3 -75.7 L193.4 -76.15 L191.5 -76.74 L189.7 -77.49 L188 -78.38 L186.3 -79.4 L184.7 -80.56 L183.2 -81.84 L181.8 -83.23 L180.5 -84.73 L179.4 -86.32 L178.4 -88.01 L177.5 -89.76 L176.7 -91.59 L176.1 -93.46 L175.7 -95.38 L175.4 -97.33 L175.3 -99.29 L175.3 -101.3 L175.5 -103.2 L175.8 -105.2 L176.3 -107.1 L176.9 -108.9 L177.7 -110.7 L178.6 -112.5 L179.7 -114.1 L180.9 -115.7 L182.2 -117.2 L183.6 -118.5 L185.1 -119.8 L186.7 -120.9 L188.4 -121.9 L190.2 -122.7 L192.1 -123.4 L193.9 -124 L195.9 -124.4 L197.8 -124.7 L199.8 -124.8 L201.7 -124.7 L203.7 -124.5 L205.6 -124.1 L207.5 -123.6 L209.4 -122.9 L211.2 -122.1 L212.9 -121.1 L214.5 -120 L216.1 -118.8 L217.5 -117.5 L218.9 -116 L220.1 -114.5 L221.2 -112.9 L222.1 -111.1 L222.9 -109.3 L223.6 -107.5 L224.1 -105.6 L224.5 -103.7 L224.7 -101.7 L224.8 -99.73 Z " />
<path stroke="rgb(0,0,0)" stroke-opacity="1" fill="rgb(255,255,255)" fill-opacity="1" d="M-212.3 -612.5 L-211.3 -612.5 L-210.3 -612.5 L-209.3 -612.5 L-208.3 -612.5 L-207.3 -612.5 L-206.4 -612.5 L-205.4 -612.5 L-204.4 -612.5 L-203.4 -612.4 L-202.4 -612.4 L-201.4 -612.4 L-200.5 -612.4 L-199.5 -612.4 L-198.5 -612.4 L-197.5 -612.4 L-196.5 -612.4 L-195.5 -612.3 L-194.6 -612.3 L-193.6 -612.3 L-192.6 -612.3 L-191.6 -612.3 L-190.6 -612.3 L-189.6 -612.3 L-188.7 -612.3 L-187.7 -612.3 L-187.7 -611.3 L-187.7 -610.3 L-187.7 -609.3 L-187.7 -608.3 L-187.7 -607.3 L-187.8 -606.4 L-187.8 -605.4 L-187.8 -604.4 L-187.8 -603.4 L-187.8 -602.4 L-187.8 -601.4 L-187.8 -600.5 L-187.8 -599.5 L-187.8 -598.5 L-187.9 -597.5 L-187.9 -596.5 L-187.9 -595.5 L-187.9 -594.6 L-187.9 -593.6 L-187.9 -592.6 L-187.9 -591.6 L-187.9 -590.6 L-188 -589.6 L-188 -588.7 L-188 -587.7 L-189 -587.7 L-189.9 -587.7 L-190.9 -587.7 L-191.9 -587.7 L-192.9 -587.7 L-193.9 -587.8 L-194.9 -587.8 L-195.8 -587.8 L-196.8 -587.8 L-197.8 -587.8 L-198.8 -587.8 L-199.8 -587.8 L-200.8 -587.8 L-201.7 -587.8 L-202.7 -587.9 L-203.7 -587.9 L-204.7 -587.9 L-205.7 -587.9 L-206.7 -587.9 L-207.6 -587.9 L-208.6 -587.9 L-209.6 -587.9 L-210.6 -588 L-211.6 -588 L-212.6 -588 L-212.5 -589 L-212.5 -589.9 L-212.5 -590.9 L-212.5 -591.9 L-212.5 -592.9 L-212.5 -593.9 L-212.5 -594.9 L-212.5 -595.8 L-212.4 -596.8 L-212.4 -597.8 L-212.4 -598.8 L-212.4 -599.8 L-212.4 -600.8 L-212.4 -601.7 L-212.4 -602.7 L-212.4 -603.7 L-212.4 -604.7 L-212.3 -605.7 L-212.3 -606.7 L-212.3 -607.6 L-212.3 -608.6 L-212.3 -609.6 L-212.3 -610.6 L-212.3 -611.6 L-212.3 -612.5 Z " />
<path stroke="rgb(0,0,0)" stroke-opacity="1" fill="rgb(255,255,255)" fill-opacity="1" d="M-284.2 -10.46 L-283.4 -9.183 L-282.7 -7.843 L-282.1 -6.453 L-281.7 -5.021 L-281.3 -3.556 L-281.1 -2.068 L-281 -0.5661 L-281 0.9402 L-281.1 2.441 L-281.3 3.928 L-281.7 5.391 L-282.2 6.82 L-282.7 8.207 L-283.4 9.543 L-284.2 10.82 L-285.1 12.03 L-286.1 13.16 L-287.2 14.21 L-288.4 15.18 L-289.6 16.04 L-290.9 16.81 L-292.3 17.47 L-293.7 18.02 L-295.1 18.46 L-296.6 18.78 L-298.1 18.99 L-299.6 19.07 L-301.1 19.04 L-302.6 18.89 L-304 18.61 L-305.5 18.22 L-306.9 17.72 L-308.3 17.11 L-309.6 16.38 L-310.9 15.56 L-312.1 14.64 L-313.2 13.62 L-314.2 12.52 L-315.2 11.35 L-316 10.1 L-316.7 8.785 L-317.4 7.419 L-317.9 6.006 L-318.3 4.557 L-318.6 3.079 L-318.8 1.583 L-318.8 0.07782 L-318.8 -1.427 L-318.6 -2.922 L-318.3 -4.398 L-317.9 -5.845 L-317.3 -7.255 L-316.7 -8.617 L-315.9 -9.925 L-315.1 -11.17 L-314.1 -12.34 L-313.1 -13.43 L-312 -14.44 L-310.8 -15.36 L-309.5 -16.18 L-308.2 -16.89 L-306.8 -17.5 L-305.4 -17.99 L-303.9 -18.37 L-302.5 -18.64 L-301 -18.78 L-299.5 -18.81 L-297.9 -18.71 L-296.5 -18.5 L-295 -18.17 L-293.5 -17.72 L-292.2 -17.16 L-290.8 -16.49 L-289.5 -15.72 L-288.3 -14.84 L-287.1 -13.88 L-286.1 -12.82 L-285.1 -11.68 L-284.2 -10.46 Z " />
<path stroke="rgb(0,0,0)" stroke-opacity="1" fill="rgb(255,255,255)" fill-opacity="1" d="M-712.3 -512.5 L-711.3 -512.5 L-710.3 -512.5 L-709.3 -512.5 L-708.3 -512.5 L-707.3 -512.5 L-706.4 -512.5 L-705.4 -512.5 L-704.4 -512.5 L-703.4 -512.4 L-702.4 -512.4 L-701.4 -512.4 L-700.5 -512.4 L-699.5 -512.4 L-698.5 -512.4 L-697.5 -512.4 L-696.5 -512.4 L-695.5 -512.3 L-694.6 -512.3 L-693.6 -512.3 L-692.6 -512.3 L-691.6 -512.3 L-690.6 -512.3 L-689.6 -512.3 L-688.7 -512.3 L-687.7 -512.3 L-687.7 -511.3 L-687.7 -510.3 L-687.7 -509.3 L-687.7 -508.3 L-687.7 -507.3 L-687.8 -506.4 L-687.8 -505.4 L-687.8 -504.4 L-687.8 -503.4 L-687.8 -502.4 L-687.8 -501.4 L-687.8 -500.5 L-687.8 -499.5 L-687.8 -498.5 L-687.9 -497.5 L-687.9 -496.5 L-687.9 -495.5 L-687.9 -494.6 L-687.9 -493.6 L-687.9 -492.6 L-687.9 -491.6 L-687.9 -490.6 L-688 -489.6 L-688 -488.7 L-688 -487.7 L-689 -487.7 L-689.9 -487.7 L-690.9 -487.7 L-691.9 -487.7 L-692.9 -487.7 L-693.9 -487.8 L-694.9 -487.8 L-695.8 -487.8 L-696.8 -487.8 L-697.8 -487.8 L-698.8 -487.8 L-699.8 -487.8 L-700.8 -487.8 L-701.7 -487.8 L-702.7 -487.9 L-703.7 -487.9 L-704.7 -487.9 L-705.7 -487.9 L-706.7 -487.9 L-707.6 -487.9 L-708.6 -487.9 L-709.6 -487.9 L-710.6 -488 L-711.6 -488 L-712.6 -488 L-712.5 -489 L-712.5 -489.9 L-712.5 -490.9 L-712.5 -491.9 L-712.5 -492.9 L-712.5 -493.9 L-712.5 -494.9 L-712.5 -495.8 L-712.4 -496.8 L-712.4 -497.8 L-712.4 -498.8 L-712.4 -499.8 L-712.4 -500.8 L-712.4 -501.7 L-712.4 -502.7 L-712.4 -503.7 L-712.4 -504.7 L-712.3 -505.7 L-712.3 -506.7 L-712.3 -507.6 L-712.3 -508.6 L-712.3 -509.6 L-712.3 -510.6 L-712.3 -511.6 L-712.3 -512.5 Z " />
<path stroke="rgb(0,0,0)" stroke-opacity="1" fill="rgb(255,255,255)" fill-opacity="1" d="M-75.88 -1.093 L-75.87 0.8265 L-76.01 2.741 L-76.3 4.637 L-76.74 6.505 L-77.33 8.332 L-78.06 10.11 L-78.93 11.82 L-79.94 13.45 L-81.07 15 L-82.32 16.46 L-83.68 17.81 L-85.15 19.05 L-86.71 20.17 L-88.35 21.16 L-90.07 22.02 L-91.85 22.74 L-93.68 23.31 L-95.55 23.74 L-97.45 24.02 L-99.36 24.14 L-101.3 24.12 L-103.2 23.94 L-105.1 23.61 L-106.9 23.13 L-108.8 22.5 L-110.5 21.74 L-112.2 20.83 L-113.8 19.79 L-115.4 18.63 L-116.8 17.35 L-118.1 15.96 L-119.3 14.47 L-120.4 12.89 L-121.4 11.23 L-122.2 9.497 L-122.9 7.703 L-123.4 5.861 L-123.8 3.982 L-124 2.078 L-124.1 0.1609 L-124.1 -1.757 L-123.8 -3.664 L-123.5 -5.548 L-123 -7.396 L-122.3 -9.198 L-121.5 -10.94 L-120.6 -12.62 L-119.5 -14.21 L-118.3 -15.71 L-117 -17.12 L-115.6 -18.42 L-114.1 -19.6 L-112.5 -20.65 L-110.8 -21.58 L-109 -22.37 L-107.2 -23.01 L-105.4 -23.52 L-103.5 -23.87 L-101.6 -24.07 L-99.66 -24.12 L-97.74 -24.02 L-95.84 -23.76 L-93.96 -23.36 L-92.12 -22.81 L-90.34 -22.11 L-88.61 -21.27 L-86.95 -20.3 L-85.38 -19.2 L-83.9 -17.98 L-82.52 -16.64 L-81.25 -15.2 L-80.1 -13.67 L-79.08 -12.04 L-78.19 -10.34 L-77.43 -8.579 L-76.82 -6.76 L-76.36 -4.898 L-76.04 -3.005 L-75.88 -1.093 Z " />
<path stroke="rgb(0,0,0)" stroke-opacity="1" fill="rgb(255,255,255)" fill-opacity="1" d="M-512.3 -512.5 L-511.3 -512.5 L-510.3 -512.5 L-509.3 -512.5 L-508.3 -512.5 L-507.3 -512.5 L-506.4 -512.5 L-505.4 -512.5 L-504.4 -512.5 L-503.4 -512.4 L-502.4 -512.4 L-501.4 -512.4 L-500.5 -512.4 L-499.5 -512.4 L-498.5 -512.4 L-497.5 -512.4 L-496.5 -512.4 L-495.5 -512.3 L-494.6 -512.3 L-493.6 -512.3 L-492.6 -512.3 L-491.6 -512.3 L-490.6 -512.3 L-489.6 -512.3 L-488.7 -512.3 L-487.7 -512.3 L-487.7 -511.3 L-487.7 -510.3 L-487.7 -509.3 L-487.7 -508.3 L-487.7 -507.3 L-487.8 -506.4 L-487.8 -505.4 L-487.8 -504.4 L-487.8 -503.4 L-487.8 -502.4 L-487.8 -501.4 L-487.8 -500.5 L-487.8 -499.5 L-487.8 -498.5 L-487.9 -497.5 L-487.9 -496.5 L-487.9 -495.5 L-487.9 -494.6 L-487.9 -493.6 L-487.9 -492.6 L-487.9 -491.6 L-487.9 -490.6 L-488 -489.6 L-488 -488.7 L-488 -487.7 L-489 -487.7 L-489.9 -487.7 L-490.9 -487.7 L-491.9 -487.7 L-492.9 -487.7 L-493.9 -487.8 L-494.9 -487.8 L-495.8 -487.8 L-496.8 -487.8 L-497.8 -487.8 L-498.8 -487.8 L-499.8 -487.8 L-500.8 -487.8 L-501.7 -487.8 L-502.7 -487.9 L-503.7 -487.9 L-504.7 -487.9 L-505.7 -487.9 L-506.7 -487.9 L-507.6 -487.9 L-508.6 -487.9 L-509.6 -487.9 L-510.6 -488 L-511.6 -488 L-512.6 -488 L-512.5 -489 L-512.5 -489.9 L-512.5 -490.9 L-512.5 -491.9 L-512.5 -492.9 L-512.5 -493.9 L-512.5 -494.9 L-512.5 -495.8 L-512.4 -496.8 L-512.4 -497.8 L-512.4 -498.8 L-512.4 -499.8 L-512.4 -500.8 L-512.4 -501.7 L-512.4 -502.7 L-512.4 -503.7 L-512.4 -504.7 L-512.3 -505.7 L-512.3 -506.7 L-512.3 -507.6 L-512.3 -508.6 L-512.3 -509.6 L-512.3 -510.6 L-512.3 -511.6 L-512.3 -512.5 Z " />
<path stroke="rgb(0,0,0)" stroke-opacity="1" fill="rgb(255,255,255)" fill-opacity="1" d="M124.8 0.2668 L124.7 2.232 L124.4 4.184 L124 6.109 L123.4 7.995 L122.7 9.83 L121.9 11.6 L120.9 13.3 L119.7 14.92 L118.5 16.44 L117.1 17.86 L115.7 19.16 L114.1 20.35 L112.4 21.4 L110.7 22.32 L108.9 23.1 L107 23.73 L105.1 24.22 L103.2 24.54 L101.2 24.72 L99.24 24.74 L97.28 24.6 L95.33 24.3 L93.42 23.85 L91.54 23.26 L89.72 22.51 L87.96 21.62 L86.28 20.6 L84.69 19.44 L83.19 18.16 L81.8 16.77 L80.53 15.27 L79.38 13.68 L78.35 11.99 L77.47 10.24 L76.73 8.414 L76.13 6.538 L75.69 4.62 L75.4 2.674 L75.26 0.7106 L75.28 -1.257 L75.46 -3.217 L75.79 -5.157 L76.28 -7.064 L76.92 -8.926 L77.7 -10.73 L78.62 -12.47 L79.68 -14.13 L80.87 -15.7 L82.17 -17.17 L83.59 -18.53 L85.12 -19.78 L86.74 -20.9 L88.44 -21.89 L90.21 -22.74 L92.05 -23.44 L93.94 -24 L95.86 -24.41 L97.82 -24.66 L99.78 -24.75 L101.7 -24.69 L103.7 -24.48 L105.6 -24.1 L107.5 -23.58 L109.4 -22.91 L111.2 -22.09 L112.9 -21.13 L114.5 -20.04 L116.1 -18.82 L117.5 -17.49 L118.9 -16.04 L120.1 -14.49 L121.2 -12.85 L122.1 -11.13 L122.9 -9.339 L123.6 -7.488 L124.1 -5.59 L124.5 -3.657 L124.7 -1.7 L124.8 0.2668 Z " />
<path stroke="rgb(0,0,0)" stroke-opacity="1" fill="rgb(255,255,255)" fill-opacity="1" d="M-312.3 -512.5 L-311.3 -512.5 L-310.3 -512.5 L-309.3 -512.5 L-308.3 -512.5 L-307.3 -512.5 L-306.4 -512.5 L-305.4 -512.5 L-304.4 -512.5 L-303.4 -512.4 L-302.4 -512.4 L-301.4 -512.4 L-300.5 -512.4 L-299.5 -512.4 L-298.5 -512.4 L-297.5 -512.4 L-296.5 -512.4 L-295.5 -512.3 L-294.6 -512.3 L-293.6 -512.3 L-292.6 -512.3 L-291.6 -512.3 L-290.6 -512.3 L-289.6 -512.3 L-288.7 -512.3 L-287.7 -512.3 L-287.7 -511.3 L-287.7 -510.3 L-287.7 -509.3 L-287.7 -508.3 L-287.7 -507.3 L-287.8 -506.4 L-287.8 -505.4 L-287.8 -504.4 L-287.8 -503.4 L-287.8 -502.4 L-287.8 -501.4 L-287.8 -500.5 L-287.8 -499.5 L-287.8 -498.5 L-287.9 -497.5 L-287.9 -496.5 L-287.9 -495.5 L-287.9 -494.6 L-287.9 -493.6 L-287.9 -492.6 L-287.9 -491.6 L-287.9 -490.6 L-288 -489.6 L-288 -488.7 L-288 -487.7 L-289 -487.7 L-289.9 -487.7 L-290.9 -487.7 L-291.9 -487.7 L-292.9 -487.7 L-293.9 -487.8 L-294.9 -487.8 L-295.8 -487.8 L-296.8 -487.8 L-297.8 -487.8 L-298.8 -487.8 L-299.8 -487.8 L-300.8 -487.8 L-301.7 -487.8 L-302.7 -487.9 L-303.7 -487.9 L-304.7 -487.9 L-305.7 -487.9 L-306.7 -487.9 L-307.6 -487.9 L-308.6 -487.9 L-309.6 -487.9 L-310.6 -488 L-311.6 -488 L-312.6 -488 L-312.5 -489 L-312.5 -489.9 L-312.5 -490.9 L-312.5 -491.9 L-312.5 -492.9 L-312.5 -493.9 L-312.5 -494.9 L-312.5 -495.8 L-312.4 -496.8 L-312.4 -497.8 L-312.4 -498.8 L-312.4 -499.8 L-312.4 -500.8 L-312.4 -501.7 L-312.4 -502.7 L-312.4 -503.7 L-312.4 -504.7 L-312.3 -505.7 L-312.3 -506.7 L-312.3 -507.6 L-312.3 -508.6 L-312.3 -509.6 L-312.3 -510.6 L-312.3 -511.6 L-312.3 -512.5 Z " />
<path stroke="rgb(0,0,0)" stroke-opacity="1" fill="rgb(255,255,255)" fill-opacity="1" d="M324.8 0.2668 L324.7 2.232 L324.4 4.184 L324 6.109 L323.4 7.995 L322.7 9.83 L321.9 11.6 L320.9 13.3 L319.7 14.92 L318.5 16.44 L317.1 17.86 L315.7 19.16 L314.1 20.35 L312.4 21.4 L310.7 22.32 L308.9 23.1 L307 23.73 L305.1 24.22 L303.2 24.54 L301.2 24.72 L299.2 24.74 L297.3 24.6 L295.3 24.3 L293.4 23.85 L291.5 23.26 L289.7 22.51 L288 21.62 L286.3 20.6 L284.7 19.44 L283.2 18.16 L281.8 16.77 L280.5 15.27 L279.4 13.68 L278.4 11.99 L277.5 10.24 L276.7 8.414 L276.1 6.538 L275.7 4.62 L275.4 2.674 L275.3 0.7106 L275.3 -1.257 L275.5 -3.217 L275.8 -5.157 L276.3 -7.064 L276.9 -8.926 L277.7 -10.73 L278.6 -12.47 L279.7 -14.13 L280.9 -15.7 L282.2 -17.17 L283.6 -18.53 L285.1 -19.78 L286.7 -20.9 L288.4 -21.89 L290.2 -22.74 L292.1 -23.44 L293.9 -24 L295.9 -24.41 L297.8 -24.66 L299.8 -24.75 L301.7 -24.69 L303.7 -24.48 L305.6 -24.1 L307.5 -23.58 L309.4 -22.91 L311.2 -22.09 L312.9 -21.13 L314.5 -20.04 L316.1 -18.82 L317.5 -17.49 L318.9 -16.04 L320.1 -14.49 L321.2 -12.85 L322.1 -11.13 L322.9 -9.339 L323.6 -7.488 L324.1 -5.59 L324.5 -3.657 L324.7 -1.7 L324.8 0.2668 Z " />
<path stroke="rgb(0,0,0)" stroke-opacity="1" fill="rgb(255,255,255)" fill-opacity="1" d="M-812.3 -412.5 L-811.3 -412.5 L-810.3 -412.5 L-809.3 -412.5 L-808.3 -412.5 L-807.3 -412.5 L-806.4 -412.5 L-805.4 -412.5 L-804.4 -412.5 L-803.4 -412.4 L-802.4 -412.4 L-801.4 -412.4 L-800.5 -412.4 L-799.5 -412.4 L-798.5 -412.4 L-797.5 -412.4 L-796.5 -412.4 L-795.5 -412.3 L-794.6 -412.3 L-793.6 -412.3 L-792.6 -412.3 L-791.6 -412.3 L-790.6 -412.3 L-789.6 -412.3 L-788.7 -412.3 L-787.7 -412.3 L-787.7 -411.3 L-787.7 -410.3 L-787.7 -409.3 L-787.7 -408.3 L-787.7 -407.3 L-787.8 -406.4 L-787.8 -405.4 L-787.8 -404.4 L-787.8 -403.4 L-787.8 -402.4 L-787.8 -401.4 L-787.8 -400.5 L-787.8 -399.5 L-787.8 -398.5 L-787.9 -397.5 L-787.9 -396.5 L-787.9 -395.5 L-787.9 -394.6 L-787.9 -393.6 L-787.9 -392.6 L-787.9 -391.6 L-787.9 -390.6 L-788 -389.6 L-788 -388.7 L-788 -387.7 L-789 -387.7 L-789.9 -387.7 L-790.9 -387.7 L-791.9 -387.7 L-792.9 -387.7 L-793.9 -387.8 L-794.9 -387.8 L-795.8 -387.8 L-796.8 -387.8 L-797.8 -387.8 L-798.8 -387.8 L-799.8 -387.8 L-800.8 -387.8 L-801.7 -387.8 L-802.7 -387.9 L-803.7 -387.9 L-804.7 -387.9 L-805.7 -387.9 L-806.7 -387.9 L-807.6 -387.9 L-808.6 -387.9 L-809.6 -387.9 L-810.6 -388 L-811.6 -388 L-812.6 -388 L-812.5 -389 L-812.5 -389.9 L-812.5 -390.9 L-812.5 -391.9 L-812.5 -392.9 L-812.5 -393.9 L-812.5 -394.9 L-812.5 -395.8 L-812.4 -396.8 L-812.4 -397.8 L-812.4 -398.8 L-812.4 -399.8 L-812.4 -400.8 L-812.4 -401.7 L-812.4 -402.7 L-812.4 -403.7 L-812.4 -404.7 L-812.3 -405.7 L-812.3 -406.7 L-812.3 -407.6 L-812.3 -408.6 L-812.3 -409.6 L-812.3 -410.6 L-812.3 -411.6 L-812.3 -412.5 Z " />
<path stroke="rgb(0,0,0)" stroke-opacity="1" fill="rgb(255,255,255)" fill-opacity="1" d="M-175.9 98.91 L-175.9 100.8 L-176 102.7 L-176.3 104.6 L-176.7 106.5 L-177.3 108.3 L-178.1 110.1 L-178.9 111.8 L-179.9 113.5 L-181.1 115 L-182.3 116.5 L-183.7 117.8 L-185.1 119 L-186.7 120.2 L-188.3 121.2 L-190.1 122 L-191.8 122.7 L-193.7 123.3 L-195.5 123.7 L-197.4 124 L-199.4 124.1 L-201.3 124.1 L-203.2 123.9 L-205.1 123.6 L-206.9 123.1 L-208.8 122.5 L-210.5 121.7 L-212.2 120.8 L-213.8 119.8 L-215.4 118.6 L-216.8 117.4 L-218.1 116 L-219.3 114.5 L-220.4 112.9 L-221.4 111.2 L-222.2 109.5 L-222.9 107.7 L-223.4 105.9 L-223.8 104 L-224 102.1 L-224.1 100.2 L-224.1 98.24 L-223.8 96.34 L-223.5 94.45 L-223 92.6 L-222.3 90.8 L-221.5 89.06 L-220.6 87.38 L-219.5 85.79 L-218.3 84.29 L-217 82.88 L-215.6 81.58 L-214.1 80.4 L-212.5 79.35 L-210.8 78.42 L-209 77.63 L-207.2 76.99 L-205.4 76.48 L-203.5 76.13 L-201.6 75.93 L-199.7 75.88 L-197.7 75.98 L-195.8 76.24 L-194 76.64 L-192.1 77.19 L-190.3 77.89 L-188.6 78.73 L-187 79.7 L-185.4 80.8 L-183.9 82.02 L-182.5 83.36 L-181.3 84.8 L-180.1 86.33 L-179.1 87.96 L-178.2 89.66 L-177.4 91.42 L-176.8 93.24 L-176.4 95.1 L-176 97 L-175.9 98.91 Z " />
<path stroke="rgb(0,0,0)" stroke-opacity="1" fill="rgb(255,255,255)" fill-opacity="1" d="M-612.3 -412.5 L-611.3 -412.5 L-610.3 -412.5 L-609.3 -412.5 L-608.3 -412.5 L-607.3 -412.5 L-606.4 -412.5 L-605.4 -412.5 L-604.4 -412.5 L-603.4 -412.4 L-602.4 -412.4 L-601.4 -412.4 L-600.5 -412.4 L-599.5 -412.4 L-598.5 -412.4 L-597.5 -412.4 L-596.5 -412.4 L-595.5 -412.3 L-594.6 -412.3 L-593.6 -412.3 L-592.6 -412.3 L-591.6 -412.3 L-590.6 -412.3 L-589.6 -412.3 L-588.7 -412.3 L-587.7 -412.3 L-587.7 -411.3 L-587.7 -410.3 L-587.7 -409.3 L-587.7 -408.3 L-587.7 -407.3 L-587.8 -406.4 L-587.8 -405.4 L-587.8 -404.4 L-587.8 -403.4 L-587.8 -402.4 L-587.8 -401.4 L-587.8 -400.5 L-587.8 -399.5 L-587.8 -398.5 L-587.9 -397.5 L-587.9 -396.5 L-587.9 -395.5 L-587.9 -394.6 L-587.9 -393.6 L-587.9 -392.6 L-587.9 -391.6 L-587.9 -390.6 L-588 -389.6 L-588 -388.7 L-588 -387.7 L-589 -387.7 L-589.9 -387.7 L-590.9 -387.7 L-591.9 -387.7 L-592.9 -387.7 L-593.9 -387.8 L-594.9 -387.8 L-595.8 -387.8 L-596.8 -387.8 L-597.8 -387.8 L-598.8 -387.8 L-599.8 -387.8 L-600.8 -387.8 L-601.7 -387.8 L-602.7 -387.9 L-603.7 -387.9 L-604.7 -387.9 L-605.7 -387.9 L-606.7 -387.9 L-607.6 -387.9 L-608.6 -387.9 L-609.6 -387.9 L-610.6 -388 L-611.6 -388 L-612.6 -388 L-612.5 -389 L-612.5 -389.9 L-612.5 -390.9 L-612.5 -391.9 L-612.5 -392.9 L-612.5 -393.9 L-612.5 -394.9 L-612.5 -395.8 L-612.4 -396.8 L-612.4 -397.8 L-612.4 -398.8 L-612.4 -399.8 L-612.4 -400.8 L-612.4 -401.7 L-612.4 -402.7 L-612.4 -403.7 L-612.4 -404.7 L-612.3 -405.7 L-612.3 -406.7 L-612.3 -407.6 L-612.3 -408.6 L-612.3 -409.6 L-612.3 -410.6 L-612.3 -411.6 L-612.3 -412.5 Z " />
<path stroke="rgb(0,0,0)" stroke-opacity="1" fill="rgb(255,255,255)" fill-opacity="1" d="M24.75 100.3 L24.65 102.2 L24.4 104.2 L23.99 106.1 L23.43 108 L22.72 109.8 L21.86 111.6 L20.87 113.3 L19.75 114.9 L18.5 116.4 L17.14 117.9 L15.66 119.2 L14.09 120.3 L12.43 121.4 L10.69 122.3 L8.881 123.1 L7.018 123.7 L5.11 124.2 L3.169 124.5 L1.209 124.7 L-0.7591 124.7 L-2.722 124.6 L-4.668 124.3 L-6.584 123.9 L-8.459 123.3 L-10.28 122.5 L-12.04 121.6 L-13.72 120.6 L-15.31 119.4 L-16.81 118.2 L-18.2 116.8 L-19.47 115.3 L-20.62 113.7 L-21.65 112 L-22.53 110.2 L-23.27 108.4 L-23.87 106.5 L-24.31 104.6 L-24.6 102.7 L-24.74 100.7 L-24.72 98.74 L-24.54 96.78 L-24.21 94.84 L-23.72 92.94 L-23.08 91.07 L-22.3 89.27 L-21.38 87.53 L-20.32 85.87 L-19.13 84.3 L-17.83 82.83 L-16.41 81.47 L-14.88 80.22 L-13.26 79.1 L-11.56 78.11 L-9.786 77.26 L-7.949 76.56 L-6.062 76 L-4.136 75.59 L-2.185 75.34 L-0.2188 75.25 L1.748 75.31 L3.704 75.52 L5.637 75.9 L7.534 76.42 L9.383 77.09 L11.17 77.91 L12.89 78.87 L14.53 79.96 L16.08 81.18 L17.52 82.51 L18.86 83.96 L20.07 85.51 L21.16 87.15 L22.11 88.87 L22.93 90.66 L23.6 92.51 L24.12 94.41 L24.48 96.34 L24.7 98.3 L24.75 100.3 Z " />
<path stroke="rgb(0,0,0)" stroke-opacity="1" fill="rgb(255,255,255)" fill-opacity="1" d="M-412.3 -412.5 L-411.3 -412.5 L-410.3 -412.5 L-409.3 -412.5 L-408.3 -412.5 L-407.3 -412.5 L-406.4 -412.5 L-405.4 -412.5 L-404.4 -412.5 L-403.4 -412.4 L-402.4 -412.4 L-401.4 -412.4 L-400.5 -412.4 L-399.5 -412.4 L-398.5 -412.4 L-397.5 -412.4 L-396.5 -412.4 L-395.5 -412.3 L-394.6 -412.3 L-393.6 -412.3 L-392.6 -412.3 L-391.6 -412.3 L-390.6 -412.3 L-389.6 -412.3 L-388.7 -412.3 L-387.7 -412.3 L-387.7 -411.3 L-387.7 -410.3 L-387.7 -409.3 L-387.7 -408.3 L-387.7 -407.3 L-387.8 -406.4 L-387.8 -405.4 L-387.8 -404.4 L-387.8 -403.4 L-387.8 -402.4 L-387.8 -401.4 L-387.8 -400.5 L-387.8 -399.5 L-387.8 -398.5 L-387.9 -397.5 L-387.9 -396.5 L-387.9 -395.5 L-387.9 -394.6 L-387.9 -393.6 L-387.9 -392.6 L-387.9 -391.6 L-387.9 -390.6 L-388 -389.6 L-388 -388.7 L-388 -387.7 L-389 -387.7 L-389.9 -387.7 L-390.9 -387.7 L-391.9 -387.7 L-392.9 -387.7 L-393.9 -387.8 L-394.9 -387.8 L-395.8 -387.8 L-396.8 -387.8 L-397.8 -387.8 L-398.8 -387.8 L-399.8 -387.8 L-400.8 -387.8 L-401.7 -387.8 L-402.7 -387.9 L-403.7 -387.9 L-404.7 -387.9 L-405.7 -387.9 L-406.7 -387.9 L-407.6 -387.9 L-408.6 -387.9 L-409.6 -387.9 L-410.6 -388 L-411.6 -388 L-412.6 -388 L-412.5 -389 L-412.5 -389.9 L-412.5 -390.9 L-412.5 -391.9 L-412.5 -392.9 L-412.5 -393.9 L-412.5 -394.9 L-412.5 -395.8 L-412.4 -396.8 L-412.4 -397.8 L-412.4 -398.8 L-412.4 -399.8 L-412.4 -400.8 L-412.4 -401.7 L-412.4 -402.7 L-412.4 -403.7 L-412.4 -404.7 L-412.3 -405.7 L-412.3 -406.7 L-412.3 -407.6 L-412.3 -408.6 L-412.3 -409.6 L-412.3 -410.6 L-412.3 -411.6 L-412.3 -412.5 Z " />
<path stroke="rgb(0,0,0)" stroke-opacity="1" fill="rgb(255,255,255)" fill-opacity="1" d="M224.8 100.3 L224.7 102.2 L224.4 104.2 L224 106.1 L223.4 108 L222.7 109.8 L221.9 111.6 L220.9 113.3 L219.7 114.9 L218.5 116.4 L217.1 117.9 L215.7 119.2 L214.1 120.3 L212.4 121.4 L210.7 122.3 L208.9 123.1 L207 123.7 L205.1 124.2 L203.2 124.5 L201.2 124.7 L199.2 124.7 L197.3 124.6 L195.3 124.3 L193.4 123.9 L191.5 123.3 L189.7 122.5 L188 121.6 L186.3 120.6 L184.7 119.4 L183.2 118.2 L181.8 116.8 L180.5 115.3 L179.4 113.7 L178.4 112 L177.5 110.2 L176.7 108.4 L176.1 106.5 L175.7 104.6 L175.4 102.7 L175.3 100.7 L175.3 98.74 L175.5 96.78 L175.8 94.84 L176.3 92.94 L176.9 91.07 L177.7 89.27 L178.6 87.53 L179.7 85.87 L180.9 84.3 L182.2 82.83 L183.6 81.47 L185.1 80.22 L186.7 79.1 L188.4 78.11 L190.2 77.26 L192.1 76.56 L193.9 76 L195.9 75.59 L197.8 75.34 L199.8 75.25 L201.7 75.31 L203.7 75.52 L205.6 75.9 L207.5 76.42 L209.4 77.09 L211.2 77.91 L212.9 78.87 L214.5 79.96 L216.1 81.18 L217.5 82.51 L218.9 83.96 L220.1 85.51 L221.2 87.15 L222.1 88.87 L222.9 90.66 L223.6 92.51 L224.1 94.41 L224.5 96.34 L224.7 98.3 L224.8 100.3 Z " />
<path stroke="rgb(0,0,0)" stroke-opacity="1" fill="rgb(255,255,255)" fill-opacity="1" d="M-212.3 -412.5 L-211.3 -412.5 L-210.3 -412.5 L-209.3 -412.5 L-208.3 -412.5 L-207.3 -412.5 L-206.4 -412.5 L-205.4 -412.5 L-204.4 -412.5 L-203.4 -412.4 L-202.4 -412.4 L-201.4 -412.4 L-200.5 -412.4 L-199.5 -412.4 L-198.5 -412.4 L-197.5 -412.4 L-196.5 -412.4 L-195.5 -412.3 L-194.6 -412.3 L-193.6 -412.3 L-192.6 -412.3 L-191.6 -412.3 L-190.6 -412.3 L-189.6 -412.3 L-188.7 -412.3 L-187.7 -412.3 L-187.7 -411.3 L-187.7 -410.3 L-187.7 -409.3 L-187.7 -408.3 L-187.7 -407.3 L-187.8 -406.4 L-187.8 -405.4 L-187.8 -404.4 L-187.8 -403.4 L-187.8 -402.4 L-187.8 -401.4 L-187.8 -400.5 L-187.8 -399.5 L-187.8 -398.5 L-187.9 -397.5 L-187.9 -396.5 L-187.9 -395.5 L-187.9 -394.6 L-187.9 -393.6 L-187.9 -392.6 L-187.9 -391.6 L-187.9 -390.6 L-188 -389.6 L-188 -388.7 L-188 -387.7 L-189 -387.7 L-189.9 -387.7 L-190.9 -387.7 L-191.9 -387.7 L-192.9 -387.7 L-193.9 -387.8 L-194.9 -387.8 L-195.8 -387.8 L-196.8 -387.8 L-197.8 -387.8 L-198.8 -387.8 L-199.8 -387.8 L-200.8 -387.8 L-201.7 -387.8 L-202.7 -387.9 L-203.7 -387.9 L-204.7 -387.9 L-205.7 -387.9 L-206.7 -387.9 L-207.6 -387.9 L-208.6 -387.9 L-209.6 -387.9 L-210.6 -388 L-211.6 -388 L-212.6 -388 L-212.5 -389 L-212.5 -389.9 L-212.5 -390.9 L-212.5 -391.9 L-212.5 -392.9 L-212.5 -393.9 L-212.5 -394.9 L-212.5 -395.8 L-212.4 -396.8 L-212.4 -397.8 L-212.4 -398.8 L-212.4 -399.8 L-212.4 -400.8 L-212.4 -401.7 L-212.4 -402.7 L-212.4 -403.7 L-212.4 -404.7 L-212.3 -405.7 L-212.3 -406.7 L-212.3 -407.6 L-212.3 -408.6 L-212.3 -409.6 L-212.3 -410.6 L-212.3 -411.6 L-212.3 -412.5 Z " />
<path stroke="rgb(0,0,0)" stroke-opacity="1" fill="rgb(255,255,255)" fill-opacity="1" d="M-275.9 198.9 L-275.9 200.8 L-276 202.7 L-276.3 204.6 L-276.7 206.5 L-277.3 208.3 L-278.1 210.1 L-278.9 211.8 L-279.9 213.5 L-281.1 215 L-282.3 216.5 L-283.7 217.8 L-285.1 219 L-286.7 220.2 L-288.3 221.2 L-290.1 222 L-291.8 222.7 L-293.7 223.3 L-295.5 223.7 L-297.4 224 L-299.4 224.1 L-301.3 224.1 L-303.2 223.9 L-305.1 223.6 L-306.9 223.1 L-308.8 222.5 L-310.5 221.7 L-312.2 220.8 L-313.8 219.8 L-315.4 218.6 L-316.8 217.4 L-318.1 216 L-319.3 214.5 L-320.4 212.9 L-321.4 211.2 L-322.2 209.5 L-322.9 207.7 L-323.4 205.9 L-323.8 204 L-324 202.1 L-324.1 200.2 L-324.1 198.2 L-323.8 196.3 L-323.5 194.5 L-323 192.6 L-322.3 190.8 L-321.5 189.1 L-320.6 187.4 L-319.5 185.8 L-318.3 184.3 L-317 182.9 L-315.6 181.6 L-314.1 180.4 L-312.5 179.3 L-310.8 178.4 L-309 177.6 L-307.2 177 L-305.4 176.5 L-303.5 176.1 L-301.6 175.9 L-299.7 175.9 L-297.7 176 L-295.8 176.2 L-294 176.6 L-292.1 177.2 L-290.3 177.9 L-288.6 178.7 L-287 179.7 L-285.4 180.8 L-283.9 182 L-282.5 183.4 L-281.3 184.8 L-280.1 186.3 L-279.1 188 L-278.2 189.7 L-277.4 191.4 L-276.8 193.2 L-276.4 195.1 L-276 197 L-275.9 198.9 Z " />
<path stroke="rgb(0,0,0)" stroke-opacity="1" fill="rgb(255,255,255)" fill-opacity="1" d="M-712.3 -312.5 L-711.3 -312.5 L-710.3 -312.5 L-709.3 -312.5 L-708.3 -312.5 L-707.3 -312.5 L-706.4 -312.5 L-705.4 -312.5 L-704.4 -312.5 L-703.4 -312.4 L-702.4 -312.4 L-701.4 -312.4 L-700.5 -312.4 L-699.5 -312.4 L-698.5 -312.4 L-697.5 -312.4 L-696.5 -312.4 L-695.5 -312.3 L-694.6 -312.3 L-693.6 -312.3 L-692.6 -312.3 L-691.6 -312.3 L-690.6 -312.3 L-689.6 -312.3 L-688.7 -312.3 L-687.7 -312.3 L-687.7 -311.3 L-687.7 -310.3 L-687.7 -309.3 L-687.7 -308.3 L-687.7 -307.3 L-687.8 -306.4 L-687.8 -305.4 L-687.8 -304.4 L-687.8 -303.4 L-687.8 -302.4 L-687.8 -301.4 L-687.8 -300.5 L-687.8 -299.5 L-687.8 -298.5 L-687.9 -297.5 L-687.9 -296.5 L-687.9 -295.5 L-687.9 -294.6 L-687.9 -293.6 L-687.9 -292.6 L-687.9 -291.6 L-687.9 -290.6 L-688 -289.6 L-688 -288.7 L-688 -287.7 L-689 -287.7 L-689.9 -287.7 L-690.9 -287.7 L-691.9 -287.7 L-692.9 -287.7 L-693.9 -287.8 L-694.9 -287.8 L-695.8 -287.8 L-696.8 -287.8 L-697.8 -287.8 L-698.8 -287.8 L-699.8 -287.8 L-700.8 -287.8 L-701.7 -287.8 L-702.7 -287.9 L-703.7 -287.9 L-704.7 -287.9 L-705.7 -287.9 L-706.7 -287.9 L-707.6 -287.9 L-708.6 -287.9 L-709.6 -287.9 L-710.6 -288 L-711.6 -288 L-712.6 -288 L-712.5 -289 L-712.5 -289.9 L-712.5 -290.9 L-712.5 -291.9 L-712.5 -292.9 L-712.5 -293.9 L-712.5 -294.9 L-712.5 -295.8 L-712.4 -296.8 L-712.4 -297.8 L-712.4 -298.8 L-712.4 -299.8 L-712.4 -300.8 L-712.4 -301.7 L-712.4 -302.7 L-712.4 -303.7 L-712.4 -304.7 L-712.3 -305.7 L-712.3 -306.7 L-712.3 -307.6 L-712.3 -308.6 L-712.3 -309.6 L-712.3 -310.6 L-712.3 -311.6 L-712.3 -312.5 Z " />
<path stroke="rgb(0,0,0)" stroke-opacity="1" fill="rgb(255,255,255)" fill-opacity="1" d="M-75.25 200.3 L-75.35 202.2 L-75.6 204.2 L-76.01 206.1 L-76.57 208 L-77.28 209.8 L-78.14 211.6 L-79.13 213.3 L-80.25 214.9 L-81.5 216.4 L-82.86 217.9 L-84.34 219.2 L-85.91 220.3 L-87.57 221.4 L-89.31 222.3 L-91.12 223.1 L-92.98 223.7 L-94.89 224.2 L-96.83 224.5 L-98.79 224.7 L-100.8 224.7 L-102.7 224.6 L-104.7 224.3 L-106.6 223.9 L-108.5 223.3 L-110.3 222.5 L-112 221.6 L-113.7 220.6 L-115.3 219.4 L-116.8 218.2 L-118.2 216.8 L-119.5 215.3 L-120.6 213.7 L-121.6 212 L-122.5 210.2 L-123.3 208.4 L-123.9 206.5 L-124.3 204.6 L-124.6 202.7 L-124.7 200.7 L-124.7 198.7 L-124.5 196.8 L-124.2 194.8 L-123.7 192.9 L-123.1 191.1 L-122.3 189.3 L-121.4 187.5 L-120.3 185.9 L-119.1 184.3 L-117.8 182.8 L-116.4 181.5 L-114.9 180.2 L-113.3 179.1 L-111.6 178.1 L-109.8 177.3 L-107.9 176.6 L-106.1 176 L-104.1 175.6 L-102.2 175.3 L-100.2 175.2 L-98.25 175.3 L-96.3 175.5 L-94.36 175.9 L-92.47 176.4 L-90.62 177.1 L-88.83 177.9 L-87.11 178.9 L-85.47 180 L-83.92 181.2 L-82.48 182.5 L-81.14 184 L-79.93 185.5 L-78.84 187.1 L-77.89 188.9 L-77.07 190.7 L-76.4 192.5 L-75.88 194.4 L-75.52 196.3 L-75.3 198.3 L-75.25 200.3 Z " />
<path stroke="rgb(0,0,0)" stroke-opacity="1" fill="rgb(255,255,255)" fill-opacity="1" d="M-512.3 -312.5 L-511.3 -312.5 L-510.3 -312.5 L-509.3 -312.5 L-508.3 -312.5 L-507.3 -312.5 L-506.4 -312.5 L-505.4 -312.5 L-504.4 -312.5 L-503.4 -312.4 L-502.4 -312.4 L-501.4 -312.4 L-500.5 -312.4 L-499.5 -312.4 L-498.5 -312.4 L-497.5 -312.4 L-496.5 -312.4 L-495.5 -312.3 L-494.6 -312.3 L-493.6 -312.3 L-492.6 -312.3 L-491.6 -312.3 L-490.6 -312.3 L-489.6 -312.3 L-488.7 -312.3 L-487.7 -312.3 L-487.7 -311.3 L-487.7 -310.3 L-487.7 -309.3 L-487.7 -308.3 L-487.7 -307.3 L-487.8 -306.4 L-487.8 -305.4 L-487.8 -304.4 L-487.8 -303.4 L-487.8 -302.4 L-487.8 -301.4 L-487.8 -300.5 L-487.8 -299.5 L-487.8 -298.5 L-487.9 -297.5 L-487.9 -296.5 L-487.9 -295.5 L-487.9 -294.6 L-487.9 -293.6 L-487.9 -292.6 L-487.9 -291.6 L-487.9 -290.6 L-488 -289.6 L-488 -288.7 L-488 -287.7 L-489 -287.7 L-489.9 -287.7 L-490.9 -287.7 L-491.9 -287.7 L-492.9 -287.7 L-493.9 -287.8 L-494.9 -287.8 L-495.8 -287.8 L-496.8 -287.8 L-497.8 -287.8 L-498.8 -287.8 L-499.8 -287.8 L-500.8 -287.8 L-501.7 -287.8 L-502.7 -287.9 L-503.7 -287.9 L-504.7 -287.9 L-505.7 -287.9 L-506.7 -287.9 L-507.6 -287.9 L-508.6 -287.9 L-509.6 -287.9 L-510.6 -288 L-511.6 -288 L-512.6 -288 L-512.5 -289 L-512.5 -289.9 L-512.5 -290.9 L-512.5 -291.9 L-512.5 -292.9 L-512.5 -293.9 L-512.5 -294.9 L-512.5 -295.8 L-512.4 -296.8 L-512.4 -297.8 L-512.4 -298.8 L-512.4 -299.8 L-512.4 -300.8 L-512.4 -301.7 L-512.4 -302.7 L-512.4 -303.7 L-512.4 -304.7 L-512.3 -305.7 L-512.3 -306.7 L-512.3 -307.6 L-512.3 -308.6 L-512.3 -309.6 L-512.3 -310.6 L-512.3 -311.6 L-512.3 -312.5 Z " />
<path stroke="rgb(0,0,0)" stroke-opacity="1" fill="rgb(255,255,255)" fill-opacity="1" d="M124.8 200.3 L124.7 202.2 L124.4 204.2 L124 206.1 L123.4 208 L122.7 209.8 L121.9 211.6 L120.9 213.3 L119.7 214.9 L118.5 216.4 L117.1 217.9 L115.7 219.2 L114.1 220.3 L112.4 221.4 L110.7 222.3 L108.9 223.1 L107 223.7 L105.1 224.2 L103.2 224.5 L101.2 224.7 L99.24 224.7 L97.28 224.6 L95.33 224.3 L93.42 223.9 L91.54 223.3 L89.72 222.5 L87.96 221.6 L86.28 220.6 L84.69 219.4 L83.19 218.2 L81.8 216.8 L80.53 215.3 L79.38 213.7 L78.35 212 L77.47 210.2 L76.73 208.4 L76.13 206.5 L75.69 204.6 L75.4 202.7 L75.26 200.7 L75.28 198.7 L75.46 196.8 L75.79 194.8 L76.28 192.9 L76.92 191.1 L77.7 189.3 L78.62 187.5 L79.68 185.9 L80.87 184.3 L82.17 182.8 L83.59 181.5 L85.12 180.2 L86.74 179.1 L88.44 178.1 L90.21 177.3 L92.05 176.6 L93.94 176 L95.86 175.6 L97.82 175.3 L99.78 175.2 L101.7 175.3 L103.7 175.5 L105.6 175.9 L107.5 176.4 L109.4 177.1 L111.2 177.9 L112.9 178.9 L114.5 180 L116.1 181.2 L117.5 182.5 L118.9 184 L120.1 185.5 L121.2 187.1 L122.1 188.9 L122.9 190.7 L123.6 192.5 L124.1 194.4 L124.5 196.3 L124.7 198.3 L124.8 200.3 Z " />
<path stroke="rgb(0,0,0)" stroke-opacity="1" fill="rgb(255,255,255)" fill-opacity="1" d="M-312.3 -312.5 L-311.3 -312.5 L-310.3 -312.5 L-309.3 -312.5 L-308.3 -312.5 L-307.3 -312.5 L-306.4 -312.5 L-305.4 -312.5 L-304.4 -312.5 L-303.4 -312.4 L-302.4 -312.4 L-301.4 -312.4 L-300.5 -312.4 L-299.5 -312.4 L-298.5 -312.4 L-297.5 -312.4 L-296.5 -312.4 L-295.5 -312.3 L-294.6 -312.3 L-293.6 -312.3 L-292.6 -312.3 L-291.6 -312.3 L-290.6 -312.3 L-289.6 -312.3 L-288.7 -312.3 L-287.7 -312.3 L-287.7 -311.3 L-287.7 -310.3 L-287.7 -309.3 L-287.7 -308.3 L-287.7 -307.3 L-287.8 -306.4 L-287.8 -305.4 L-287.8 -304.4 L-287.8 -303.4 L-287.8 -302.4 L-287.8 -301.4 L-287.8 -300.5 L-287.8 -299.5 L-287.8 -298.5 L-287.9 -297.5 L-287.9 -296.5 L-287.9 -295.5 L-287.9 -294.6 L-287.9 -293.6 L-287.9 -292.6 L-287.9 -291.6 L-287.9 -290.6 L-288 -289.6 L-288 -288.7 L-288 -287.7 L-289 -287.7 L-289.9 -287.7 L-290.9 -287.7 L-291.9 -287.7 L-292.9 -287.7 L-293.9 -287.8 L-294.9 -287.8 L-295.8 -287.8 L-296.8 -287.8 L-297.8 -287.8 L-298.8 -287.8 L-299.8 -287.8 L-300.8 -287.8 L-301.7 -287.8 L-302.7 -287.9 L-303.7 -287.9 L-304.7 -287.9 L-305.7 -287.9 L-306.7 -287.9 L-307.6 -287.9 L-308.6 -287.9 L-309.6 -287.9 L-310.6 -288 L-311.6 -288 L-312.6 -288 L-312.5 -289 L-312.5 -289.9 L-312.5 -290.9 L-312.5 -291.9 L-312.5 -292.9 L-312.5 -293.9 L-312.5 -294.9 L-312.5 -295.8 L-312.4 -296.8 L-312.4 -297.8 L-312.4 -298.8 L-312.4 -299.8 L-312.4 -300.8 L-312.4 -301.7 L-312.4 -302.7 L-312.4 -303.7 L-312.4 -304.7 L-312.3 -305.7 L-312.3 -306.7 L-312.3 -307.6 L-312.3 -308.6 L-312.3 -309.6 L-312.3 -310.6 L-312.3 -311.6 L-312.3 -312.5 Z " />
<path stroke="rgb(0,0,0)" stroke-opacity="1" fill="rgb(255,255,255)" fill-opacity="1" d="M324.8 200.3 L324.7 202.2 L324.4 204.2 L324 206.1 L323.4 208 L322.7 209.8 L321.9 211.6 L320.9 213.3 L319.7 214.9 L318.5 216.4 L317.1 217.9 L315.7 219.2 L314.1 220.3 L312.4 221.4 L310.7 222.3 L308.9 223.1 L307 223.7 L305.1 224.2 L303.2 224.5 L301.2 224.7 L299.2 224.7 L297.3 224.6 L295.3 224.3 L293.4 223.9 L291.5 223.3 L289.7 222.5 L288 221.6 L286.3 220.6 L284.7 219.4 L283.2 218.2 L281.8 216.8 L280.5 215.3 L279.4 213.7 L278.4 212 L277.5 210.2 L276.7 208.4 L276.1 206.5 L275.7 204.6 L275.4 202.7 L275.3 200.7 L275.3 198.7 L275.5 196.8 L275.8 194.8 L276.3 192.9 L276.9 191.1 L277.7 189.3 L278.6 187.5 L279.7 185.9 L280.9 184.3 L282.2 182.8 L283.6 181.5 L285.1 180.2 L286.7 179.1 L288.4 178.1 L290.2 177.3 L292.1 176.6 L293.9 176 L295.9 175.6 L297.8 175.3 L299.8 175.2 L301.7 175.3 L303.7 175.5 L305.6 175.9 L307.5 176.4 L309.4 177.1 L311.2 177.9 L312.9 178.9 L314.5 180 L316.1 181.2 L317.5 182.5 L318.9 184 L320.1 185.5 L321.2 187.1 L322.1 188.9 L322.9 190.7 L323.6 192.5 L324.1 194.4 L324.5 196.3 L324.7 198.3 L324.8 200.3 Z " />
<path stroke="rgb(0,0,0)" stroke-opacity="1" fill="rgb(255,255,255)" fill-opacity="1" d="M-812.3 -212.5 L-811.3 -212.5 L-810.3 -212.5 L-809.3 -212.5 L-808.3 -212.5 L-807.3 -212.5 L-806.4 -212.5 L-805.4 -212.5 L-804.4 -212.5 L-803.4 -212.4 L-802.4 -212.4 L-801.4 -212.4 L-800.5 -212.4 L-799.5 -212.4 L-798.5 -212.4 L-797.5 -212.4 L-796.5 -212.4 L-795.5 -212.3 L-794.6 -212.3 L-793.6 -212.3 L-792.6 -212.3 L-791.6 -212.3 L-790.6 -212.3 L-789.6 -212.3 L-788.7 -212.3 L-787.7 -212.3 L-787.7 -211.3 L-787.7 -210.3 L-787.7 -209.3 L-787.7 -208.3 L-787.7 -207.3 L-787.8 -206.4 L-787.8 -205.4 L-787.8 -204.4 L-787.8 -203.4 L-787.8 -202.4 L-787.8 -201.4 L-787.8 -200.5 L-787.8 -199.5 L-787.8 -198.5 L-787.9 -197.5 L-787.9 -196.5 L-787.9 -195.5 L-787.9 -194.6 L-787.9 -193.6 L-787.9 -192.6 L-787.9 -191.6 L-787.9 -190.6 L-788 -189.6 L-788 -188.7 L-788 -187.7 L-789 -187.7 L-789.9 -187.7 L-790.9 -187.7 L-791.9 -187.7 L-792.9 -187.7 L-793.9 -187.8 L-794.9 -187.8 L-795.8 -187.8 L-796.8 -187.8 L-797.8 -187.8 L-798.8 -187.8 L-799.8 -187.8 L-800.8 -187.8 L-801.7 -187.8 L-802.7 -187.9 L-803.7 -187.9 L-804.7 -187.9 L-805.7 -187.9 L-806.7 -187.9 L-807.6 -187.9 L-808.6 -187.9 L-809.6 -187.9 L-810.6 -188 L-811.6 -188 L-812.6 -188 L-812.5 -189 L-812.5 -189.9 L-812.5 -190.9 L-812.5 -191.9 L-812.5 -192.9 L-812.5 -193.9 L-812.5 -194.9 L-812.5 -195.8 L-812.4 -196.8 L-812.4 -197.8 L-812.4 -198.8 L-812.4 -199.8 L-812.4 -200.8 L-812.4 -201.7 L-812.4 -202.7 L-812.4 -203.7 L-812.4 -204.7 L-812.3 -205.7 L-812.3 -206.7 L-812.3 -207.6 L-812.3 -208.6 L-812.3 -209.6 L-812.3 -210.6 L-812.3 -211.6 L-812.3 -212.5 Z " />
<path stroke="rgb(0,0,0)" stroke-opacity="1" fill="rgb(255,255,255)" fill-opacity="1" d="M-175.2 300.3 L-175.3 302.2 L-175.6 304.2 L-176 306.1 L-176.6 308 L-177.3 309.8 L-178.1 311.6 L-179.1 313.3 L-180.3 314.9 L-181.5 316.4 L-182.9 317.9 L-184.3 319.2 L-185.9 320.3 L-187.6 321.4 L-189.3 322.3 L-191.1 323.1 L-193 323.7 L-194.9 324.2 L-196.8 324.5 L-198.8 324.7 L-200.8 324.7 L-202.7 324.6 L-204.7 324.3 L-206.6 323.9 L-208.5 323.3 L-210.3 322.5 L-212 321.6 L-213.7 320.6 L-215.3 319.4 L-216.8 318.2 L-218.2 316.8 L-219.5 315.3 L-220.6 313.7 L-221.6 312 L-222.5 310.2 L-223.3 308.4 L-223.9 306.5 L-224.3 304.6 L-224.6 302.7 L-224.7 300.7 L-224.7 298.7 L-224.5 296.8 L-224.2 294.8 L-223.7 292.9 L-223.1 291.1 L-222.3 289.3 L-221.4 287.5 L-220.3 285.9 L-219.1 284.3 L-217.8 282.8 L-216.4 281.5 L-214.9 280.2 L-213.3 279.1 L-211.6 278.1 L-209.8 277.3 L-207.9 276.6 L-206.1 276 L-204.1 275.6 L-202.2 275.3 L-200.2 275.2 L-198.3 275.3 L-196.3 275.5 L-194.4 275.9 L-192.5 276.4 L-190.6 277.1 L-188.8 277.9 L-187.1 278.9 L-185.5 280 L-183.9 281.2 L-182.5 282.5 L-181.1 284 L-179.9 285.5 L-178.8 287.1 L-177.9 288.9 L-177.1 290.7 L-176.4 292.5 L-175.9 294.4 L-175.5 296.3 L-175.3 298.3 L-175.2 300.3 Z " />
<path stroke="rgb(0,0,0)" stroke-opacity="1" fill="rgb(255,255,255)" fill-opacity="1" d="M-612.3 -212.5 L-611.3 -212.5 L-610.3 -212.5 L-609.3 -212.5 L-608.3 -212.5 L-607.3 -212.5 L-606.4 -212.5 L-605.4 -212.5 L-604.4 -212.5 L-603.4 -212.4 L-602.4 -212.4 L-601.4 -212.4 L-600.5 -212.4 L-599.5 -212.4 L-598.5 -212.4 L-597.5 -212.4 L-596.5 -212.4 L-595.5 -212.3 L-594.6 -212.3 L-593.6 -212.3 L-592.6 -212.3 L-591.6 -212.3 L-590.6 -212.3 L-589.6 -212.3 L-588.7 -212.3 L-587.7 -212.3 L-587.7 -211.3 L-587.7 -210.3 L-587.7 -209.3 L-587.7 -208.3 L-587.7 -207.3 L-587.8 -206.4 L-587.8 -205.4 L-587.8 -204.4 L-587.8 -203.4 L-587.8 -202.4 L-587.8 -201.4 L-587.8 -200.5 L-587.8 -199.5 L-587.8 -198.5 L-587.9 -197.5 L-587.9 -196.5 L-587.9 -195.5 L-587.9 -194.6 L-587.9 -193.6 L-587.9 -192.6 L-587.9 -191.6 L-587.9 -190.6 L-588 -189.6 L-588 -188.7 L-588 -187.7 L-589 -187.7 L-589.9 -187.7 L-590.9 -187.7 L-591.9 -187.7 L-592.9 -187.7 L-593.9 -187.8 L-594.9 -187.8 L-595.8 -187.8 L-596.8 -187.8 L-597.8 -187.8 L-598.8 -187.8 L-599.8 -187.8 L-600.8 -187.8 L-601.7 -187.8 L-602.7 -187.9 L-603.7 -187.9 L-604.7 -187.9 L-605.7 -187.9 L-606.7 -187.9 L-607.6 -187.9 L-608.6 -187.9 L-609.6 -187.9 L-610.6 -188 L-611.6 -188 L-612.6 -188 L-612.5 -189 L-612.5 -189.9 L-612.5 -190.9 L-612.5 -191.9 L-612.5 -192.9 L-612.5 -193.9 L-612.5 -194.9 L-612.5 -195.8 L-612.4 -196.8 L-612.4 -197.8 L-612.4 -198.8 L-612.4 -199.8 L-612.4 -200.8 L-612.4 -201.7 L-612.4 -202.7 L-612.4 -203.7 L-612.4 -204.7 L-612.3 -205.7 L-612.3 -206.7 L-612.3 -207.6 L-612.3 -208.6 L-612.3 -209.6 L-612.3 -210.6 L-612.3 -211.6 L-612.3 -212.5 Z " />
<path stroke="rgb(0,0,0)" stroke-opacity="1" fill="rgb(255,255,255)" fill-opacity="1" d="M24.75 300.3 L24.65 302.2 L24.4 304.2 L23.99 306.1 L23.43 308 L22.72 309.8 L21.86 311.6 L20.87 313.3 L19.75 314.9 L18.5 316.4 L17.14 317.9 L15.66 319.2 L14.09 320.3 L12.43 321.4 L10.69 322.3 L8.881 323.1 L7.018 323.7 L5.11 324.2 L3.169 324.5 L1.209 324.7 L-0.7591 324.7 L-2.722 324.6 L-4.668 324.3 L-6.584 323.9 L-8.459 323.3 L-10.28 322.5 L-12.04 321.6 L-13.72 320.6 L-15.31 319.4 L-16.81 318.2 L-18.2 316.8 L-19.47 315.3 L-20.62 313.7 L-21.65 312 L-22.53 310.2 L-23.27 308.4 L-23.87 306.5 L-24.31 304.6 L-24.6 302.7 L-24.74 300.7 L-24.72 298.7 L-24.54 296.8 L-24.21 294.8 L-23.72 292.9 L-23.08 291.1 L-22.3 289.3 L-21.38 287.5 L-20.32 285.9 L-19.13 284.3 L-17.83 282.8 L-16.41 281.5 L-14.88 280.2 L-13.26 279.1 L-11.56 278.1 L-9.786 277.3 L-7.949 276.6 L-6.062 276 L-4.136 275.6 L-2.185 275.3 L-0.2188 275.2 L1.748 275.3 L3.704 275.5 L5.637 275.9 L7.534 276.4 L9.383 277.1 L11.17 277.9 L12.89 278.9 L14.53 280 L16.08 281.2 L17.52 282.5 L18.86 284 L20.07 285.5 L21.16 287.1 L22.11 288.9 L22.93 290.7 L23.6 292.5 L24.12 294.4 L24.48 296.3 L24.7 298.3 L24.75 300.3 Z " />
<path stroke="rgb(0,0,0)" stroke-opacity="1" fill="rgb(255,255,255)" fill-opacity="1" d="M-412.3 -212.5 L-411.3 -212.5 L-410.3 -212.5 L-409.3 -212.5 L-408.3 -212.5 L-407.3 -212.5 L-406.4 -212.5 L-405.4 -212.5 L-404.4 -212.5 L-403.4 -212.4 L-402.4 -212.4 L-401.4 -212.4 L-400.5 -212.4 L-399.5 -212.4 L-398.5 -212.4 L-397.5 -212.4 L-396.5 -212.4 L-395.5 -212.3 L-394.6 -212.3 L-393.6 -212.3 L-392.6 -212.3 L-391.6 -212.3 L-390.6 -212.3 L-389.6 -212.3 L-388.7 -212.3 L-387.7 -212.3 L-387.7 -211.3 L-387.7 -210.3 L-387.7 -209.3 L-387.7 -208.3 L-387.7 -207.3 L-387.8 -206.4 L-387.8 -205.4 L-387.8 -204.4 L-387.8 -203.4 L-387.8 -202.4 L-387.8 -201.4 L-387.8 -200.5 L-387.8 -199.5 L-387.8 -198.5 L-387.9 -197.5 L-387.9 -196.5 L-387.9 -195.5 L-387.9 -194.6 L-387.9 -193.6 L-387.9 -192.6 L-387.9 -191.6 L-387.9 -190.6 L-388 -189.6 L-388 -188.7 L-388 -187.7 L-389 -187.7 L-389.9 -187.7 L-390.9 -187.7 L-391.9 -187.7 L-392.9 -187.7 L-393.9 -187.8 L-394.9 -187.8 L-395.8 -187.8 L-396.8 -187.8 L-397.8 -187.8 L-398.8 -187.8 L-399.8 -187.8 L-400.8 -187.8 L-401.7 -187.8 L-402.7 -187.9 L-403.7 -187.9 L-404.7 -187.9 L-405.7 -187.9 L-406.7 -187.9 L-407.6 -187.9 L-408.6 -187.9 L-409.6 -187.9 L-410.6 -188 L-411.6 -188 L-412.6 -188 L-412.5 -189 L-412.5 -189.9 L-412.5 -190.9 L-412.5 -191.9 L-412.5 -192.9 L-412.5 -193.9 L-412.5 -194.9 L-412.5 -195.8 L-412.4 -196.8 L-412.4 -197.8 L-412.4 -198.8 L-412.4 -199.8 L-412.4 -200.8 L-412.4 -201.7 L-412.4 -202.7 L-412.4 -203.7 L-412.4 -204.7 L-412.3 -205.7 L-412.3 -206.7 L-412.3 -207.6 L-412.3 -208.6 L-412.3 -209.6 L-412.3 -210.6 L-412.3 -211.6 L-412.3 -212.5 Z " />
<path stroke="rgb(0,0,0)" stroke-opacity="1" fill="rgb(255,255,255)" fill-opacity="1" d="M224.8 300.3 L224.7 302.2 L224.4 304.2 L224 306.1 L223.4 308 L222.7 309.8 L221.9 311.6 L220.9 313.3 L219.7 314.9 L218.5 316.4 L217.1 317.9 L215.7 319.2 L214.1 320.3 L212.4 321.4 L210.7 322.3 L208.9 323.1 L207 323.7 L205.1 324.2 L203.2 324.5 L201.2 324.7 L199.2 324.7 L197.3 324.6 L195.3 324.3 L193.4 323.9 L191.5 323.3 L189.7 322.5 L188 321.6 L186.3 320.6 L184.7 319.4 L183.2 318.2 L181.8 316.8 L180.5 315.3 L179.4 313.7 L178.4 312 L177.5 310.2 L176.7 308.4 L176.1 306.5 L175.7 304.6 L175.4 302.7 L175.3 300.7 L175.3 298.7 L175.5 296.8 L175.8 294.8 L176.3 292.9 L176.9 291.1 L177.7 289.3 L178.6 287.5 L179.7 285.9 L180.9 284.3 L182.2 282.8 L183.6 281.5 L185.1 280.2 L186.7 279.1 L188.4 278.1 L190.2 277.3 L192.1 276.6 L193.9 276 L195.9 275.6 L197.8 275.3 L199.8 275.2 L201.7 275.3 L203.7 275.5 L205.6 275.9 L207.5 276.4 L209.4 277.1 L211.2 277.9 L212.9 278.9 L214.5 280 L216.1 281.2 L217.5 282.5 L218.9 284 L220.1 285.5 L221.2 287.1 L222.1 288.9 L222.9 290.7 L223.6 292.5 L224.1 294.4 L224.5 296.3 L224.7 298.3 L224.8 300.3 Z " />
<path stroke="rgb(0,0,0)" stroke-opacity="1" fill="rgb(255,255,255)" fill-opacity="1" d="M-212.3 -212.5 L-211.3 -212.5 L-210.3 -212.5 L-209.3 -212.5 L-208.3 -212.5 L-207.3 -212.5 L-206.4 -212.5 L-205.4 -212.5 L-204.4 -212.5 L-203.4 -212.4 L-202.4 -212.4 L-201.4 -212.4 L-200.5 -212.4 L-199.5 -212.4 L-198.5 -212.4 L-197.5 -212.4 L-196.5 -212.4 L-195.5 -212.3 L-194.6 -212.3 L-193.6 -212.3 L-192.6 -212.3 L-191.6 -212.3 L-190.6 -212.3 L-189.6 -212.3 L-188.7 -212.3 L-187.7 -212.3 L-187.7 -211.3 L-187.7 -210.3 L-187.7 -209.3 L-187.7 -208.3 L-187.7 -207.3 L-187.8 -206.4 L-187.8 -205.4 L-187.8 -204.4 L-187.8 -203.4 L-187.8 -202.4 L-187.8 -201.4 L-187.8 -200.5 L-187.8 -199.5 L-187.8 -198.5 L-187.9 -197.5 L-187.9 -196.5 L-187.9 -195.5 L-187.9 -194.6 L-187.9 -193.6 L-187.9 -192.6 L-187.9 -191.6 L-187.9 -190.6 L-188 -189.6 L-188 -188.7 L-188 -187.7 L-189 -187.7 L-189.9 -187.7 L-190.9 -187.7 L-191.9 -187.7 L-192.9 -187.7 L-193.9 -187.8 L-194.9 -187.8 L-195.8 -187.8 L-196.8 -187.8 L-197.8 -187.8 L-198.8 -187.8 L-199.8 -187.8 L-200.8 -187.8 L-201.7 -187.8 L-202.7 -187.9 L-203.7 -187.9 L-204.7 -187.9 L-205.7 -187.9 L-206.7 -187.9 L-207.6 -187.9 L-208.6 -187.9 L-209.6 -187.9 L-210.6 -188 L-211.6 -188 L-212.6 -188 L-212.5 -189 L-212.5 -189.9 L-212.5 -190.9 L-212.5 -191.9 L-212.5 -192.9 L-212.5 -193.9 L-212.5 -194.9 L-212.5 -195.8 L-212.4 -196.8 L-212.4 -197.8 L-212.4 -198.8 L-212.4 -199.8 L-212.4 -200.8 L-212.4 -201.7 L-212.4 -202.7 L-212.4 -203.7 L-212.4 -204.7 L-212.3 -205.7 L-212.3 -206.7 L-212.3 -207.6 L-212.3 -208.6 L-212.3 -209.6 L-212.3 -210.6 L-212.3 -211.6 L-212.3 -212.5 Z " />
</g>
</g>
</svg>
