<!DOCTYPE svg>
<svg xmlns="http://www.w3.org/2000/svg" xmlns:xlink="http://www.w3.org/1999/xlink" width="1000" height="1000">
<g transform="translate(500.000000,500.000000)">
<g transform="scale(3.000000,3.000000)">
<path stroke="rgb(0,0,0)" stroke-opacity="1" fill="rgb(255,255,255)" fill-opacity="1" d="M-712.6 -688.1 L-712.6 -689.1 L-712.5 -690.1 L-712.5 -691.1 L-712.5 -692.1 L-712.5 -693 L-712.5 -694 L-712.5 -695 L-712.5 -696 L-712.5 -697 L-712.5 -698 L-712.5 -699 L-712.5 -700 L-712.5 -700.9 L-712.5 -701.9 L-712.4 -702.9 L-712.4 -703.9 L-712.4 -704.9 L-712.4 -705.9 L-712.4 -706.9 L-712.4 -707.9 L-712.4 -708.9 L-712.4 -709.8 L-712.4 -710.8 L-712.4 -711.8 L-712.4 -712.8 L-711.4 -712.8 L-710.4 -712.8 L-709.4 -712.8 L-708.4 -712.8 L-707.4 -712.8 L-706.4 -712.8 L-705.5 -712.8 L-704.5 -712.7 L-703.5 -712.7 L-702.5 -712.7 L-701.5 -712.7 L-700.5 -712.7 L-699.5 -712.7 L-698.5 -712.7 L-697.6 -712.7 L-696.6 -712.7 L-695.6 -712.7 L-694.6 -712.7 L-693.6 -712.7 L-692.6 -712.7 L-691.6 -712.6 L-690.6 -712.6 L-689.6 -712.6 L-688.7 -712.6 L-687.7 -712.6 L-687.7 -711.6 L-687.7 -710.6 L-687.7 -709.7 L-687.7 -708.7 L-687.7 -707.7 L-687.7 -706.7 L-687.7 -705.7 L-687.7 -704.7 L-687.7 -703.7 L-687.7 -702.7 L-687.8 -701.7 L-687.8 -700.8 L-687.8 -699.8 L-687.8 -698.8 L-687.8 -697.8 L-687.8 -696.8 L-687.8 -695.8 L-687.8 -694.8 L-687.8 -693.8 L-687.8 -692.9 L-687.8 -691.9 L-687.8 -690.9 L-687.8 -689.9 L-687.9 -688.9 L-687.9 -687.9 L-688.8 -687.9 L-689.8 -687.9 L-690.8 -687.9 L-691.8 -687.9 L-692.8 -688 L-693.8 -688 L-694.8 -688 L-695.8 -688 L-696.8 -688 L-697.7 -688 L-698.7 -688 L-699.7 -688 L-700.7 -688 L-701.7 -688 L-702.7 -688 L-703.7 -688 L-704.7 -688 L-705.6 -688.1 L-706.6 -688.1 L-707.6 -688.1 L-708.6 -688.1 L-709.6 -688.1 L-710.6 -688.1 L-711.6 -688.1 L-712.6 -688.1 Z " />
<path stroke="rgb(0,0,0)" stroke-opacity="1" fill="rgb(255,255,255)" fill-opacity="1" d="M-179.6 -306.7 L-179.1 -305.1 L-178.8 -303.4 L-178.6 -301.7 L-178.5 -300 L-178.6 -298.3 L-178.8 -296.6 L-179.1 -294.9 L-179.6 -293.3 L-180.1 -291.7 L-180.9 -290.2 L-181.7 -288.7 L-182.6 -287.3 L-183.7 -285.9 L-184.9 -284.7 L-186.1 -283.5 L-187.5 -282.5 L-188.9 -281.5 L-190.4 -280.7 L-192 -280 L-193.6 -279.5 L-195.2 -279 L-196.9 -278.7 L-198.6 -278.5 L-200.3 -278.5 L-202 -278.6 L-203.7 -278.8 L-205.3 -279.2 L-207 -279.7 L-208.6 -280.3 L-210.1 -281 L-211.6 -281.9 L-212.9 -282.9 L-214.3 -284 L-215.5 -285.2 L-216.6 -286.4 L-217.6 -287.8 L-218.5 -289.2 L-219.3 -290.8 L-220 -292.3 L-220.5 -293.9 L-220.9 -295.6 L-221.2 -297.3 L-221.4 -299 L-221.4 -300.7 L-221.2 -302.4 L-221 -304.1 L-220.6 -305.7 L-220.1 -307.3 L-219.4 -308.9 L-218.6 -310.4 L-217.7 -311.9 L-216.7 -313.3 L-215.6 -314.5 L-214.4 -315.7 L-213.1 -316.8 L-211.7 -317.8 L-210.2 -318.7 L-208.7 -319.5 L-207.1 -320.1 L-205.5 -320.6 L-203.8 -321 L-202.2 -321.2 L-200.5 -321.3 L-198.8 -321.3 L-197.1 -321.2 L-195.4 -320.9 L-193.7 -320.4 L-192.1 -319.9 L-190.6 -319.2 L-189.1 -318.4 L-187.6 -317.5 L-186.3 -316.4 L-185 -315.3 L-183.8 -314.1 L-182.8 -312.7 L-181.8 -311.3 L-180.9 -309.8 L-180.2 -308.3 L-179.6 -306.7 Z " />
<path stroke="rgb(0,0,0)" stroke-opacity="1" fill="rgb(255,255,255)" fill-opacity="1" d="M-512.6 -688.1 L-512.6 -689.1 L-512.5 -690.1 L-512.5 -691.1 L-512.5 -692.1 L-512.5 -693 L-512.5 -694 L-512.5 -695 L-512.5 -696 L-512.5 -697 L-512.5 -698 L-512.5 -699 L-512.5 -700 L-512.5 -700.9 L-512.5 -701.9 L-512.4 -702.9 L-512.4 -703.9 L-512.4 -704.9 L-512.4 -705.9 L-512.4 -706.9 L-512.4 -707.9 L-512.4 -708.9 L-512.4 -709.8 L-512.4 -710.8 L-512.4 -711.8 L-512.4 -712.8 L-511.4 -712.8 L-510.4 -712.8 L-509.4 -712.8 L-508.4 -712.8 L-507.4 -712.8 L-506.4 -712.8 L-505.5 -712.8 L-504.5 -712.7 L-503.5 -712.7 L-502.5 -712.7 L-501.5 -712.7 L-500.5 -712.7 L-499.5 -712.7 L-498.5 -712.7 L-497.6 -712.7 L-496.6 -712.7 L-495.6 -712.7 L-494.6 -712.7 L-493.6 -712.7 L-492.6 -712.7 L-491.6 -712.6 L-490.6 -712.6 L-489.6 -712.6 L-488.7 -712.6 L-487.7 -712.6 L-487.7 -711.6 L-487.7 -710.6 L-487.7 -709.7 L-487.7 -708.7 L-487.7 -707.7 L-487.7 -706.7 L-487.7 -705.7 L-487.7 -704.7 L-487.7 -703.7 L-487.7 -702.7 L-487.8 -701.7 L-487.8 -700.8 L-487.8 -699.8 L-487.8 -698.8 L-487.8 -697.8 L-487.8 -696.8 L-487.8 -695.8 L-487.8 -694.8 L-487.8 -693.8 L-487.8 -692.9 L-487.8 -691.9 L-487.8 -690.9 L-487.8 -689.9 L-487.9 -688.9 L-487.9 -687.9 L-488.8 -687.9 L-489.8 -687.9 L-490.8 -687.9 L-491.8 -687.9 L-492.8 -688 L-493.8 -688 L-494.8 -688 L-495.8 -688 L-496.8 -688 L-497.7 -688 L-498.7 -688 L-499.7 -688 L-500.7 -688 L-501.7 -688 L-502.7 -688 L-503.7 -688 L-504.7 -688 L-505.6 -688.1 L-506.6 -688.1 L-507.6 -688.1 L-508.6 -688.1 L-509.6 -688.1 L-510.6 -688.1 L-511.6 -688.1 L-512.6 -688.1 Z " />
<path stroke="rgb(0,0,0)" stroke-opacity="1" fill="rgb(255,255,255)" fill-opacity="1" d="M5.039 -313.4 L6.1 -313 L7.125 -312.4 L8.105 -311.9 L9.036 -311.2 L9.912 -310.5 L10.73 -309.7 L11.47 -308.8 L12.15 -307.9 L12.75 -306.9 L13.28 -305.9 L13.72 -304.8 L14.07 -303.8 L14.34 -302.6 L14.52 -301.5 L14.61 -300.4 L14.61 -299.2 L14.51 -298.1 L14.33 -297 L14.06 -295.9 L13.7 -294.8 L13.26 -293.7 L12.73 -292.7 L12.13 -291.7 L11.44 -290.8 L10.69 -290 L9.877 -289.2 L8.999 -288.4 L8.066 -287.8 L7.083 -287.2 L6.057 -286.7 L4.995 -286.3 L3.902 -285.9 L2.787 -285.7 L1.655 -285.5 L0.5147 -285.5 L-0.6274 -285.5 L-1.764 -285.6 L-2.888 -285.8 L-3.992 -286.1 L-5.069 -286.5 L-6.112 -287 L-7.115 -287.5 L-8.072 -288.1 L-8.976 -288.8 L-9.822 -289.6 L-10.6 -290.4 L-11.32 -291.3 L-11.96 -292.3 L-12.52 -293.3 L-13 -294.3 L-13.4 -295.4 L-13.71 -296.5 L-13.94 -297.6 L-14.07 -298.7 L-14.11 -299.9 L-14.07 -301 L-13.93 -302.1 L-13.7 -303.2 L-13.39 -304.3 L-12.98 -305.4 L-12.5 -306.5 L-11.93 -307.4 L-11.29 -308.4 L-10.57 -309.3 L-9.788 -310.1 L-8.94 -310.9 L-8.033 -311.6 L-7.075 -312.2 L-6.07 -312.7 L-5.025 -313.2 L-3.946 -313.6 L-2.842 -313.9 L-1.717 -314.1 L-0.5802 -314.2 L0.562 -314.2 L1.702 -314.1 L2.833 -314 L3.948 -313.7 L5.039 -313.4 Z " />
<path stroke="rgb(0,0,0)" stroke-opacity="1" fill="rgb(255,255,255)" fill-opacity="1" d="M-312.5 -688 L-312.5 -689 L-312.5 -690 L-312.5 -691 L-312.5 -692 L-312.5 -693 L-312.5 -694 L-312.4 -695 L-312.4 -695.9 L-312.4 -696.9 L-312.4 -697.9 L-312.4 -698.9 L-312.4 -699.9 L-312.4 -700.9 L-312.4 -701.9 L-312.4 -702.9 L-312.4 -703.8 L-312.4 -704.8 L-312.4 -705.8 L-312.4 -706.8 L-312.4 -707.8 L-312.4 -708.8 L-312.3 -709.8 L-312.3 -710.8 L-312.3 -711.8 L-312.3 -712.7 L-311.3 -712.7 L-310.4 -712.7 L-309.4 -712.7 L-308.4 -712.7 L-307.4 -712.7 L-306.4 -712.7 L-305.4 -712.7 L-304.4 -712.7 L-303.4 -712.7 L-302.4 -712.7 L-301.5 -712.7 L-300.5 -712.7 L-299.5 -712.7 L-298.5 -712.6 L-297.5 -712.6 L-296.5 -712.6 L-295.5 -712.6 L-294.5 -712.6 L-293.6 -712.6 L-292.6 -712.6 L-291.6 -712.6 L-290.6 -712.6 L-289.6 -712.6 L-288.6 -712.6 L-287.6 -712.6 L-287.6 -711.6 L-287.6 -710.6 L-287.6 -709.6 L-287.7 -708.6 L-287.7 -707.6 L-287.7 -706.6 L-287.7 -705.7 L-287.7 -704.7 L-287.7 -703.7 L-287.7 -702.7 L-287.7 -701.7 L-287.7 -700.7 L-287.7 -699.7 L-287.7 -698.7 L-287.7 -697.7 L-287.7 -696.8 L-287.7 -695.8 L-287.7 -694.8 L-287.8 -693.8 L-287.8 -692.8 L-287.8 -691.8 L-287.8 -690.8 L-287.8 -689.8 L-287.8 -688.9 L-287.8 -687.9 L-288.8 -687.9 L-289.8 -687.9 L-290.8 -687.9 L-291.7 -687.9 L-292.7 -687.9 L-293.7 -687.9 L-294.7 -687.9 L-295.7 -687.9 L-296.7 -687.9 L-297.7 -687.9 L-298.7 -687.9 L-299.6 -687.9 L-300.6 -688 L-301.6 -688 L-302.6 -688 L-303.6 -688 L-304.6 -688 L-305.6 -688 L-306.6 -688 L-307.6 -688 L-308.5 -688 L-309.5 -688 L-310.5 -688 L-311.5 -688 L-312.5 -688 Z " />
<path stroke="rgb(0,0,0)" stroke-opacity="1" fill="rgb(255,255,255)" fill-opacity="1" d="M200.6 -312.3 L201.6 -312.3 L202.5 -312.1 L203.5 -311.9 L204.5 -311.6 L205.4 -311.3 L206.3 -310.8 L207.1 -310.3 L207.9 -309.7 L208.7 -309.1 L209.4 -308.4 L210.1 -307.6 L210.6 -306.9 L211.2 -306 L211.6 -305.1 L212 -304.2 L212.3 -303.3 L212.5 -302.3 L212.7 -301.3 L212.8 -300.3 L212.8 -299.3 L212.7 -298.4 L212.5 -297.4 L212.3 -296.4 L212 -295.5 L211.6 -294.6 L211.2 -293.7 L210.6 -292.8 L210 -292 L209.4 -291.3 L208.7 -290.6 L207.9 -289.9 L207.1 -289.4 L206.3 -288.9 L205.4 -288.4 L204.4 -288.1 L203.5 -287.8 L202.5 -287.6 L201.5 -287.4 L200.6 -287.4 L199.6 -287.4 L198.6 -287.5 L197.6 -287.7 L196.6 -287.9 L195.7 -288.2 L194.8 -288.6 L193.9 -289.1 L193.1 -289.7 L192.3 -290.3 L191.6 -290.9 L190.9 -291.7 L190.3 -292.4 L189.7 -293.3 L189.2 -294.1 L188.8 -295 L188.5 -295.9 L188.2 -296.9 L188 -297.9 L187.9 -298.9 L187.8 -299.9 L187.9 -300.8 L188 -301.8 L188.2 -302.8 L188.5 -303.8 L188.8 -304.7 L189.2 -305.6 L189.7 -306.4 L190.3 -307.3 L190.9 -308 L191.6 -308.8 L192.3 -309.4 L193.1 -310 L193.9 -310.6 L194.8 -311 L195.7 -311.4 L196.6 -311.8 L197.6 -312 L198.6 -312.2 L199.6 -312.3 L200.6 -312.3 Z " />
<path stroke="rgb(0,0,0)" stroke-opacity="1" fill="rgb(255,255,255)" fill-opacity="1" d="M-110.7 -686.2 L-110.7 -687.2 L-110.7 -688.2 L-110.7 -689.2 L-110.8 -690.2 L-110.8 -691.2 L-110.8 -692.2 L-110.8 -693.1 L-110.8 -694.1 L-110.8 -695.1 L-110.9 -696.1 L-110.9 -697.1 L-110.9 -698.1 L-110.9 -699.1 L-110.9 -700.1 L-110.9 -701.1 L-111 -702 L-111 -703 L-111 -704 L-111 -705 L-111 -706 L-111 -707 L-111.1 -708 L-111.1 -709 L-111.1 -709.9 L-111.1 -710.9 L-110.1 -710.9 L-109.1 -711 L-108.1 -711 L-107.2 -711 L-106.2 -711 L-105.2 -711 L-104.2 -711 L-103.2 -711.1 L-102.2 -711.1 L-101.2 -711.1 L-100.2 -711.1 L-99.25 -711.1 L-98.26 -711.2 L-97.27 -711.2 L-96.29 -711.2 L-95.3 -711.2 L-94.31 -711.2 L-93.32 -711.2 L-92.33 -711.3 L-91.35 -711.3 L-90.36 -711.3 L-89.37 -711.3 L-88.38 -711.3 L-87.39 -711.3 L-86.41 -711.4 L-86.39 -710.4 L-86.37 -709.4 L-86.36 -708.4 L-86.34 -707.4 L-86.32 -706.4 L-86.3 -705.4 L-86.29 -704.4 L-86.27 -703.4 L-86.25 -702.5 L-86.24 -701.5 L-86.22 -700.5 L-86.2 -699.5 L-86.19 -698.5 L-86.17 -697.5 L-86.15 -696.5 L-86.14 -695.5 L-86.12 -694.6 L-86.1 -693.6 L-86.09 -692.6 L-86.07 -691.6 L-86.05 -690.6 L-86.04 -689.6 L-86.02 -688.6 L-86 -687.6 L-85.99 -686.7 L-86.97 -686.6 L-87.96 -686.6 L-88.95 -686.6 L-89.94 -686.6 L-90.93 -686.6 L-91.91 -686.5 L-92.9 -686.5 L-93.89 -686.5 L-94.88 -686.5 L-95.87 -686.5 L-96.85 -686.5 L-97.84 -686.4 L-98.83 -686.4 L-99.82 -686.4 L-100.8 -686.4 L-101.8 -686.4 L-102.8 -686.4 L-103.8 -686.3 L-104.8 -686.3 L-105.7 -686.3 L-106.7 -686.3 L-107.7 -686.3 L-108.7 -686.3 L-109.7 -686.2 L-110.7 -686.2 Z " />
<path stroke="rgb(0,0,0)" stroke-opacity="1" fill="rgb(255,255,255)" fill-opacity="1" d="M-279.6 -206.7 L-279.1 -205.1 L-278.8 -203.4 L-278.6 -201.7 L-278.5 -200 L-278.6 -198.3 L-278.8 -196.6 L-279.1 -194.9 L-279.6 -193.3 L-280.1 -191.7 L-280.9 -190.2 L-281.7 -188.7 L-282.6 -187.3 L-283.7 -185.9 L-284.9 -184.7 L-286.1 -183.5 L-287.5 -182.5 L-288.9 -181.5 L-290.4 -180.7 L-292 -180 L-293.6 -179.5 L-295.2 -179 L-296.9 -178.7 L-298.6 -178.5 L-300.3 -178.5 L-302 -178.6 L-303.7 -178.8 L-305.3 -179.2 L-307 -179.7 L-308.6 -180.3 L-310.1 -181 L-311.6 -181.9 L-312.9 -182.9 L-314.3 -184 L-315.5 -185.2 L-316.6 -186.4 L-317.6 -187.8 L-318.5 -189.2 L-319.3 -190.8 L-320 -192.3 L-320.5 -193.9 L-320.9 -195.6 L-321.2 -197.3 L-321.4 -199 L-321.4 -200.7 L-321.2 -202.4 L-321 -204.1 L-320.6 -205.7 L-320.1 -207.3 L-319.4 -208.9 L-318.6 -210.4 L-317.7 -211.9 L-316.7 -213.3 L-315.6 -214.5 L-314.4 -215.7 L-313.1 -216.8 L-311.7 -217.8 L-310.2 -218.7 L-308.7 -219.5 L-307.1 -220.1 L-305.5 -220.6 L-303.8 -221 L-302.2 -221.2 L-300.5 -221.3 L-298.8 -221.3 L-297.1 -221.2 L-295.4 -220.9 L-293.7 -220.4 L-292.1 -219.9 L-290.6 -219.2 L-289.1 -218.4 L-287.6 -217.5 L-286.3 -216.4 L-285 -215.3 L-283.8 -214.1 L-282.8 -212.7 L-281.8 -211.3 L-280.9 -209.8 L-280.2 -208.3 L-279.6 -206.7 Z " />
<path stroke="rgb(0,0,0)" stroke-opacity="1" fill="rgb(255,255,255)" fill-opacity="1" d="M-612.6 -588.1 L-612.6 -589.1 L-612.5 -590.1 L-612.5 -591.1 L-612.5 -592.1 L-612.5 -593 L-612.5 -594 L-612.5 -595 L-612.5 -596 L-612.5 -597 L-612.5 -598 L-612.5 -599 L-612.5 -600 L-612.5 -600.9 L-612.5 -601.9 L-612.4 -602.9 L-612.4 -603.9 L-612.4 -604.9 L-612.4 -605.9 L-612.4 -606.9 L-612.4 -607.9 L-612.4 -608.9 L-612.4 -609.8 L-612.4 -610.8 L-612.4 -611.8 L-612.4 -612.8 L-611.4 -612.8 L-610.4 -612.8 L-609.4 -612.8 L-608.4 -612.8 L-607.4 -612.8 L-606.4 -612.8 L-605.5 -612.8 L-604.5 -612.7 L-603.5 -612.7 L-602.5 -612.7 L-601.5 -612.7 L-600.5 -612.7 L-599.5 -612.7 L-598.5 -612.7 L-597.6 -612.7 L-596.6 -612.7 L-595.6 -612.7 L-594.6 -612.7 L-593.6 -612.7 L-592.6 -612.7 L-591.6 -612.6 L-590.6 -612.6 L-589.6 -612.6 L-588.7 -612.6 L-587.7 -612.6 L-587.7 -611.6 L-587.7 -610.6 L-587.7 -609.7 L-587.7 -608.7 L-587.7 -607.7 L-587.7 -606.7 L-587.7 -605.7 L-587.7 -604.7 L-587.7 -603.7 L-587.7 -602.7 L-587.8 -601.7 L-587.8 -600.8 L-587.8 -599.8 L-587.8 -598.8 L-587.8 -597.8 L-587.8 -596.8 L-587.8 -595.8 L-587.8 -594.8 L-587.8 -593.8 L-587.8 -592.9 L-587.8 -591.9 L-587.8 -590.9 L-587.8 -589.9 L-587.9 -588.9 L-587.9 -587.9 L-588.8 -587.9 L-589.8 -587.9 L-590.8 -587.9 L-591.8 -587.9 L-592.8 -588 L-593.8 -588 L-594.8 -588 L-595.8 -588 L-596.8 -588 L-597.7 -588 L-598.7 -588 L-599.7 -588 L-600.7 -588 L-601.7 -588 L-602.7 -588 L-603.7 -588 L-604.7 -588 L-605.6 -588.1 L-606.6 -588.1 L-607.6 -588.1 L-608.6 -588.1 L-609.6 -588.1 L-610.6 -588.1 L-611.6 -588.1 L-612.6 -588.1 Z " />
<path stroke="rgb(0,0,0)" stroke-opacity="1" fill="rgb(255,255,255)" fill-opacity="1" d="M-94.96 -213.4 L-93.9 -213 L-92.88 -212.4 L-91.89 -211.9 L-90.96 -211.2 L-90.09 -210.5 L-89.27 -209.7 L-88.53 -208.8 L-87.85 -207.9 L-87.25 -206.9 L-86.72 -205.9 L-86.28 -204.8 L-85.93 -203.8 L-85.66 -202.6 L-85.48 -201.5 L-85.39 -200.4 L-85.39 -199.2 L-85.49 -198.1 L-85.67 -197 L-85.94 -195.9 L-86.3 -194.8 L-86.74 -193.7 L-87.27 -192.7 L-87.87 -191.7 L-88.56 -190.8 L-89.31 -190 L-90.12 -189.2 L-91 -188.4 L-91.93 -187.8 L-92.92 -187.2 L-93.94 -186.7 L-95.01 -186.3 L-96.1 -185.9 L-97.21 -185.7 L-98.34 -185.5 L-99.49 -185.5 L-100.6 -185.5 L-101.8 -185.6 L-102.9 -185.8 L-104 -186.1 L-105.1 -186.5 L-106.1 -187 L-107.1 -187.5 L-108.1 -188.1 L-109 -188.8 L-109.8 -189.6 L-110.6 -190.4 L-111.3 -191.3 L-112 -192.3 L-112.5 -193.3 L-113 -194.3 L-113.4 -195.4 L-113.7 -196.5 L-113.9 -197.6 L-114.1 -198.7 L-114.1 -199.9 L-114.1 -201 L-113.9 -202.1 L-113.7 -203.2 L-113.4 -204.3 L-113 -205.4 L-112.5 -206.5 L-111.9 -207.4 L-111.3 -208.4 L-110.6 -209.3 L-109.8 -210.1 L-108.9 -210.9 L-108 -211.6 L-107.1 -212.2 L-106.1 -212.7 L-105 -213.2 L-103.9 -213.6 L-102.8 -213.9 L-101.7 -214.1 L-100.6 -214.2 L-99.44 -214.2 L-98.3 -214.1 L-97.17 -214 L-96.05 -213.7 L-94.96 -213.4 Z " />
<path stroke="rgb(0,0,0)" stroke-opacity="1" fill="rgb(255,255,255)" fill-opacity="1" d="M-412.5 -588 L-412.5 -589 L-412.5 -590 L-412.5 -591 L-412.5 -592 L-412.5 -593 L-412.5 -594 L-412.4 -595 L-412.4 -595.9 L-412.4 -596.9 L-412.4 -597.9 L-412.4 -598.9 L-412.4 -599.9 L-412.4 -600.9 L-412.4 -601.9 L-412.4 -602.9 L-412.4 -603.8 L-412.4 -604.8 L-412.4 -605.8 L-412.4 -606.8 L-412.4 -607.8 L-412.4 -608.8 L-412.3 -609.8 L-412.3 -610.8 L-412.3 -611.8 L-412.3 -612.7 L-411.3 -612.7 L-410.4 -612.7 L-409.4 -612.7 L-408.4 -612.7 L-407.4 -612.7 L-406.4 -612.7 L-405.4 -612.7 L-404.4 -612.7 L-403.4 -612.7 L-402.4 -612.7 L-401.5 -612.7 L-400.5 -612.7 L-399.5 -612.7 L-398.5 -612.6 L-397.5 -612.6 L-396.5 -612.6 L-395.5 -612.6 L-394.5 -612.6 L-393.6 -612.6 L-392.6 -612.6 L-391.6 -612.6 L-390.6 -612.6 L-389.6 -612.6 L-388.6 -612.6 L-387.6 -612.6 L-387.6 -611.6 L-387.6 -610.6 L-387.6 -609.6 L-387.7 -608.6 L-387.7 -607.6 L-387.7 -606.6 L-387.7 -605.7 L-387.7 -604.7 L-387.7 -603.7 L-387.7 -602.7 L-387.7 -601.7 L-387.7 -600.7 L-387.7 -599.7 L-387.7 -598.7 L-387.7 -597.7 L-387.7 -596.8 L-387.7 -595.8 L-387.7 -594.8 L-387.8 -593.8 L-387.8 -592.8 L-387.8 -591.8 L-387.8 -590.8 L-387.8 -589.8 L-387.8 -588.9 L-387.8 -587.9 L-388.8 -587.9 L-389.8 -587.9 L-390.8 -587.9 L-391.7 -587.9 L-392.7 -587.9 L-393.7 -587.9 L-394.7 -587.9 L-395.7 -587.9 L-396.7 -587.9 L-397.7 -587.9 L-398.7 -587.9 L-399.6 -587.9 L-400.6 -588 L-401.6 -588 L-402.6 -588 L-403.6 -588 L-404.6 -588 L-405.6 -588 L-406.6 -588 L-407.6 -588 L-408.5 -588 L-409.5 -588 L-410.5 -588 L-411.5 -588 L-412.5 -588 Z " />
<path stroke="rgb(0,0,0)" stroke-opacity="1" fill="rgb(255,255,255)" fill-opacity="1" d="M100.6 -212.3 L101.6 -212.3 L102.5 -212.1 L103.5 -211.9 L104.5 -211.6 L105.4 -211.3 L106.3 -210.8 L107.1 -210.3 L107.9 -209.7 L108.7 -209.1 L109.4 -208.4 L110.1 -207.6 L110.6 -206.9 L111.2 -206 L111.6 -205.1 L112 -204.2 L112.3 -203.3 L112.5 -202.3 L112.7 -201.3 L112.8 -200.3 L112.8 -199.3 L112.7 -198.4 L112.5 -197.4 L112.3 -196.4 L112 -195.5 L111.6 -194.6 L111.2 -193.7 L110.6 -192.8 L110 -192 L109.4 -191.3 L108.7 -190.6 L107.9 -189.9 L107.1 -189.4 L106.3 -188.9 L105.4 -188.4 L104.4 -188.1 L103.5 -187.8 L102.5 -187.6 L101.5 -187.4 L100.6 -187.4 L99.56 -187.4 L98.57 -187.5 L97.59 -187.7 L96.64 -187.9 L95.7 -188.2 L94.79 -188.6 L93.92 -189.1 L93.09 -189.7 L92.3 -190.3 L91.57 -190.9 L90.89 -191.7 L90.27 -192.4 L89.71 -193.3 L89.22 -194.1 L88.8 -195 L88.45 -195.9 L88.18 -196.9 L87.98 -197.9 L87.87 -198.9 L87.83 -199.9 L87.87 -200.8 L87.99 -201.8 L88.18 -202.8 L88.46 -203.8 L88.8 -204.7 L89.22 -205.6 L89.72 -206.4 L90.27 -207.3 L90.89 -208 L91.58 -208.8 L92.31 -209.4 L93.1 -210 L93.93 -210.6 L94.8 -211 L95.71 -211.4 L96.65 -211.8 L97.61 -212 L98.58 -212.2 L99.57 -212.3 L100.6 -212.3 Z " />
<path stroke="rgb(0,0,0)" stroke-opacity="1" fill="rgb(255,255,255)" fill-opacity="1" d="M-210.7 -586.2 L-210.7 -587.2 L-210.7 -588.2 L-210.7 -589.2 L-210.8 -590.2 L-210.8 -591.2 L-210.8 -592.2 L-210.8 -593.1 L-210.8 -594.1 L-210.8 -595.1 L-210.9 -596.1 L-210.9 -597.1 L-210.9 -598.1 L-210.9 -599.1 L-210.9 -600.1 L-210.9 -601.1 L-211 -602 L-211 -603 L-211 -604 L-211 -605 L-211 -606 L-211 -607 L-211.1 -608 L-211.1 -609 L-211.1 -609.9 L-211.1 -610.9 L-210.1 -610.9 L-209.1 -611 L-208.1 -611 L-207.2 -611 L-206.2 -611 L-205.2 -611 L-204.2 -611 L-203.2 -611.1 L-202.2 -611.1 L-201.2 -611.1 L-200.2 -611.1 L-199.3 -611.1 L-198.3 -611.2 L-197.3 -611.2 L-196.3 -611.2 L-195.3 -611.2 L-194.3 -611.2 L-193.3 -611.2 L-192.3 -611.3 L-191.3 -611.3 L-190.4 -611.3 L-189.4 -611.3 L-188.4 -611.3 L-187.4 -611.3 L-186.4 -611.4 L-186.4 -610.4 L-186.4 -609.4 L-186.4 -608.4 L-186.3 -607.4 L-186.3 -606.4 L-186.3 -605.4 L-186.3 -604.4 L-186.3 -603.4 L-186.3 -602.5 L-186.2 -601.5 L-186.2 -600.5 L-186.2 -599.5 L-186.2 -598.5 L-186.2 -597.5 L-186.2 -596.5 L-186.1 -595.5 L-186.1 -594.6 L-186.1 -593.6 L-186.1 -592.6 L-186.1 -591.6 L-186.1 -590.6 L-186 -589.6 L-186 -588.6 L-186 -587.6 L-186 -586.7 L-187 -586.6 L-188 -586.6 L-188.9 -586.6 L-189.9 -586.6 L-190.9 -586.6 L-191.9 -586.5 L-192.9 -586.5 L-193.9 -586.5 L-194.9 -586.5 L-195.9 -586.5 L-196.9 -586.5 L-197.8 -586.4 L-198.8 -586.4 L-199.8 -586.4 L-200.8 -586.4 L-201.8 -586.4 L-202.8 -586.4 L-203.8 -586.3 L-204.8 -586.3 L-205.7 -586.3 L-206.7 -586.3 L-207.7 -586.3 L-208.7 -586.3 L-209.7 -586.2 L-210.7 -586.2 Z " />
<path stroke="rgb(0,0,0)" stroke-opacity="1" fill="rgb(255,255,255)" fill-opacity="1" d="M300.4 -212.3 L301.4 -212.2 L302.4 -212.1 L303.3 -211.9 L304.3 -211.6 L305.2 -211.3 L306.1 -210.8 L307 -210.3 L307.8 -209.8 L308.5 -209.1 L309.2 -208.5 L309.9 -207.7 L310.5 -206.9 L311 -206.1 L311.5 -205.2 L311.9 -204.3 L312.2 -203.4 L312.5 -202.4 L312.6 -201.5 L312.7 -200.5 L312.7 -199.5 L312.7 -198.5 L312.5 -197.5 L312.3 -196.6 L312 -195.6 L311.6 -194.7 L311.2 -193.8 L310.7 -193 L310.1 -192.2 L309.4 -191.4 L308.8 -190.7 L308 -190.1 L307.2 -189.5 L306.4 -189 L305.5 -188.6 L304.6 -188.2 L303.6 -187.9 L302.7 -187.7 L301.7 -187.5 L300.7 -187.4 L299.7 -187.4 L298.7 -187.5 L297.8 -187.7 L296.8 -187.9 L295.9 -188.3 L295 -188.6 L294.1 -189.1 L293.3 -189.6 L292.5 -190.2 L291.7 -190.9 L291 -191.6 L290.4 -192.4 L289.8 -193.2 L289.4 -194 L288.9 -194.9 L288.6 -195.8 L288.3 -196.8 L288.1 -197.7 L287.9 -198.7 L287.9 -199.7 L287.9 -200.7 L288 -201.7 L288.2 -202.6 L288.5 -203.6 L288.8 -204.5 L289.2 -205.4 L289.7 -206.3 L290.2 -207.1 L290.8 -207.9 L291.5 -208.6 L292.2 -209.3 L293 -209.9 L293.8 -210.4 L294.7 -210.9 L295.6 -211.3 L296.5 -211.7 L297.5 -211.9 L298.4 -212.1 L299.4 -212.2 L300.4 -212.3 Z " />
<path stroke="rgb(0,0,0)" stroke-opacity="1" fill="rgb(255,255,255)" fill-opacity="1" d="M-712.6 -488.1 L-712.6 -489.1 L-712.5 -490.1 L-712.5 -491.1 L-712.5 -492.1 L-712.5 -493 L-712.5 -494 L-712.5 -495 L-712.5 -496 L-712.5 -497 L-712.5 -498 L-712.5 -499 L-712.5 -500 L-712.5 -500.9 L-712.5 -501.9 L-712.4 -502.9 L-712.4 -503.9 L-712.4 -504.9 L-712.4 -505.9 L-712.4 -506.9 L-712.4 -507.9 L-712.4 -508.9 L-712.4 -509.8 L-712.4 -510.8 L-712.4 -511.8 L-712.4 -512.8 L-711.4 -512.8 L-710.4 -512.8 L-709.4 -512.8 L-708.4 -512.8 L-707.4 -512.8 L-706.4 -512.8 L-705.5 -512.8 L-704.5 -512.7 L-703.5 -512.7 L-702.5 -512.7 L-701.5 -512.7 L-700.5 -512.7 L-699.5 -512.7 L-698.5 -512.7 L-697.6 -512.7 L-696.6 -512.7 L-695.6 -512.7 L-694.6 -512.7 L-693.6 -512.7 L-692.6 -512.7 L-691.6 -512.6 L-690.6 -512.6 L-689.6 -512.6 L-688.7 -512.6 L-687.7 -512.6 L-687.7 -511.6 L-687.7 -510.6 L-687.7 -509.7 L-687.7 -508.7 L-687.7 -507.7 L-687.7 -506.7 L-687.7 -505.7 L-687.7 -504.7 L-687.7 -503.7 L-687.7 -502.7 L-687.8 -501.7 L-687.8 -500.8 L-687.8 -499.8 L-687.8 -498.8 L-687.8 -497.8 L-687.8 -496.8 L-687.8 -495.8 L-687.8 -494.8 L-687.8 -493.8 L-687.8 -492.9 L-687.8 -491.9 L-687.8 -490.9 L-687.8 -489.9 L-687.9 -488.9 L-687.9 -487.9 L-688.8 -487.9 L-689.8 -487.9 L-690.8 -487.9 L-691.8 -487.9 L-692.8 -488 L-693.8 -488 L-694.8 -488 L-695.8 -488 L-696.8 -488 L-697.7 -488 L-698.7 -488 L-699.7 -488 L-700.7 -488 L-701.7 -488 L-702.7 -488 L-703.7 -488 L-704.7 -488 L-705.6 -488.1 L-706.6 -488.1 L-707.6 -488.1 L-708.6 -488.1 L-709.6 -488.1 L-710.6 -488.1 L-711.6 -488.1 L-712.6 -488.1 Z " />
<path stroke="rgb(0,0,0)" stroke-opacity="1" fill="rgb(255,255,255)" fill-opacity="1" d="M-195 -113.4 L-193.9 -113 L-192.9 -112.4 L-191.9 -111.9 L-191 -111.2 L-190.1 -110.5 L-189.3 -109.7 L-188.5 -108.8 L-187.8 -107.9 L-187.2 -106.9 L-186.7 -105.9 L-186.3 -104.8 L-185.9 -103.8 L-185.7 -102.6 L-185.5 -101.5 L-185.4 -100.4 L-185.4 -99.24 L-185.5 -98.1 L-185.7 -96.97 L-185.9 -95.86 L-186.3 -94.78 L-186.7 -93.72 L-187.3 -92.71 L-187.9 -91.74 L-188.6 -90.82 L-189.3 -89.96 L-190.1 -89.16 L-191 -88.43 L-191.9 -87.77 L-192.9 -87.19 L-193.9 -86.69 L-195 -86.27 L-196.1 -85.94 L-197.2 -85.69 L-198.3 -85.53 L-199.5 -85.47 L-200.6 -85.49 L-201.8 -85.61 L-202.9 -85.81 L-204 -86.11 L-205.1 -86.49 L-206.1 -86.95 L-207.1 -87.5 L-208.1 -88.12 L-209 -88.82 L-209.8 -89.59 L-210.6 -90.42 L-211.3 -91.31 L-212 -92.26 L-212.5 -93.25 L-213 -94.29 L-213.4 -95.36 L-213.7 -96.46 L-213.9 -97.58 L-214.1 -98.71 L-214.1 -99.85 L-214.1 -101 L-213.9 -102.1 L-213.7 -103.2 L-213.4 -104.3 L-213 -105.4 L-212.5 -106.5 L-211.9 -107.4 L-211.3 -108.4 L-210.6 -109.3 L-209.8 -110.1 L-208.9 -110.9 L-208 -111.6 L-207.1 -112.2 L-206.1 -112.7 L-205 -113.2 L-203.9 -113.6 L-202.8 -113.9 L-201.7 -114.1 L-200.6 -114.2 L-199.4 -114.2 L-198.3 -114.1 L-197.2 -114 L-196.1 -113.7 L-195 -113.4 Z " />
<path stroke="rgb(0,0,0)" stroke-opacity="1" fill="rgb(255,255,255)" fill-opacity="1" d="M-512.5 -488 L-512.5 -489 L-512.5 -490 L-512.5 -491 L-512.5 -492 L-512.5 -493 L-512.5 -494 L-512.4 -495 L-512.4 -495.9 L-512.4 -496.9 L-512.4 -497.9 L-512.4 -498.9 L-512.4 -499.9 L-512.4 -500.9 L-512.4 -501.9 L-512.4 -502.9 L-512.4 -503.8 L-512.4 -504.8 L-512.4 -505.8 L-512.4 -506.8 L-512.4 -507.8 L-512.4 -508.8 L-512.3 -509.8 L-512.3 -510.8 L-512.3 -511.8 L-512.3 -512.7 L-511.3 -512.7 L-510.4 -512.7 L-509.4 -512.7 L-508.4 -512.7 L-507.4 -512.7 L-506.4 -512.7 L-505.4 -512.7 L-504.4 -512.7 L-503.4 -512.7 L-502.4 -512.7 L-501.5 -512.7 L-500.5 -512.7 L-499.5 -512.7 L-498.5 -512.6 L-497.5 -512.6 L-496.5 -512.6 L-495.5 -512.6 L-494.5 -512.6 L-493.6 -512.6 L-492.6 -512.6 L-491.6 -512.6 L-490.6 -512.6 L-489.6 -512.6 L-488.6 -512.6 L-487.6 -512.6 L-487.6 -511.6 L-487.6 -510.6 L-487.6 -509.6 L-487.7 -508.6 L-487.7 -507.6 L-487.7 -506.6 L-487.7 -505.7 L-487.7 -504.7 L-487.7 -503.7 L-487.7 -502.7 L-487.7 -501.7 L-487.7 -500.7 L-487.7 -499.7 L-487.7 -498.7 L-487.7 -497.7 L-487.7 -496.8 L-487.7 -495.8 L-487.7 -494.8 L-487.8 -493.8 L-487.8 -492.8 L-487.8 -491.8 L-487.8 -490.8 L-487.8 -489.8 L-487.8 -488.9 L-487.8 -487.9 L-488.8 -487.9 L-489.8 -487.9 L-490.8 -487.9 L-491.7 -487.9 L-492.7 -487.9 L-493.7 -487.9 L-494.7 -487.9 L-495.7 -487.9 L-496.7 -487.9 L-497.7 -487.9 L-498.7 -487.9 L-499.6 -487.9 L-500.6 -488 L-501.6 -488 L-502.6 -488 L-503.6 -488 L-504.6 -488 L-505.6 -488 L-506.6 -488 L-507.6 -488 L-508.5 -488 L-509.5 -488 L-510.5 -488 L-511.5 -488 L-512.5 -488 Z " />
<path stroke="rgb(0,0,0)" stroke-opacity="1" fill="rgb(255,255,255)" fill-opacity="1" d="M0.5636 -112.3 L1.554 -112.3 L2.537 -112.1 L3.506 -111.9 L4.455 -111.6 L5.377 -111.3 L6.267 -110.8 L7.12 -110.3 L7.929 -109.7 L8.691 -109.1 L9.399 -108.4 L10.05 -107.6 L10.64 -106.9 L11.16 -106 L11.62 -105.1 L12 -104.2 L12.31 -103.3 L12.55 -102.3 L12.7 -101.3 L12.78 -100.3 L12.78 -99.34 L12.7 -98.35 L12.54 -97.37 L12.31 -96.41 L12 -95.47 L11.61 -94.55 L11.16 -93.67 L10.63 -92.83 L10.04 -92.03 L9.391 -91.28 L8.682 -90.59 L7.92 -89.95 L7.11 -89.38 L6.256 -88.87 L5.366 -88.43 L4.443 -88.07 L3.494 -87.77 L2.525 -87.56 L1.542 -87.42 L0.5514 -87.36 L-0.441 -87.38 L-1.429 -87.48 L-2.405 -87.66 L-3.365 -87.91 L-4.301 -88.24 L-5.208 -88.65 L-6.08 -89.12 L-6.912 -89.66 L-7.698 -90.27 L-8.433 -90.93 L-9.114 -91.66 L-9.734 -92.43 L-10.29 -93.25 L-10.78 -94.12 L-11.2 -95.02 L-11.55 -95.95 L-11.82 -96.9 L-12.02 -97.87 L-12.13 -98.86 L-12.17 -99.85 L-12.13 -100.8 L-12.01 -101.8 L-11.82 -102.8 L-11.54 -103.8 L-11.2 -104.7 L-10.78 -105.6 L-10.28 -106.4 L-9.727 -107.3 L-9.106 -108 L-8.425 -108.8 L-7.688 -109.4 L-6.902 -110 L-6.069 -110.6 L-5.197 -111 L-4.289 -111.4 L-3.353 -111.8 L-2.393 -112 L-1.416 -112.2 L-0.4287 -112.3 L0.5636 -112.3 Z " />
<path stroke="rgb(0,0,0)" stroke-opacity="1" fill="rgb(255,255,255)" fill-opacity="1" d="M-310.7 -486.2 L-310.7 -487.2 L-310.7 -488.2 L-310.7 -489.2 L-310.8 -490.2 L-310.8 -491.2 L-310.8 -492.2 L-310.8 -493.1 L-310.8 -494.1 L-310.8 -495.1 L-310.9 -496.1 L-310.9 -497.1 L-310.9 -498.1 L-310.9 -499.1 L-310.9 -500.1 L-310.9 -501.1 L-311 -502 L-311 -503 L-311 -504 L-311 -505 L-311 -506 L-311 -507 L-311.1 -508 L-311.1 -509 L-311.1 -509.9 L-311.1 -510.9 L-310.1 -510.9 L-309.1 -511 L-308.1 -511 L-307.2 -511 L-306.2 -511 L-305.2 -511 L-304.2 -511 L-303.2 -511.1 L-302.2 -511.1 L-301.2 -511.1 L-300.2 -511.1 L-299.3 -511.1 L-298.3 -511.2 L-297.3 -511.2 L-296.3 -511.2 L-295.3 -511.2 L-294.3 -511.2 L-293.3 -511.2 L-292.3 -511.3 L-291.3 -511.3 L-290.4 -511.3 L-289.4 -511.3 L-288.4 -511.3 L-287.4 -511.3 L-286.4 -511.4 L-286.4 -510.4 L-286.4 -509.4 L-286.4 -508.4 L-286.3 -507.4 L-286.3 -506.4 L-286.3 -505.4 L-286.3 -504.4 L-286.3 -503.4 L-286.3 -502.5 L-286.2 -501.5 L-286.2 -500.5 L-286.2 -499.5 L-286.2 -498.5 L-286.2 -497.5 L-286.2 -496.5 L-286.1 -495.5 L-286.1 -494.6 L-286.1 -493.6 L-286.1 -492.6 L-286.1 -491.6 L-286.1 -490.6 L-286 -489.6 L-286 -488.6 L-286 -487.6 L-286 -486.7 L-287 -486.6 L-288 -486.6 L-288.9 -486.6 L-289.9 -486.6 L-290.9 -486.6 L-291.9 -486.5 L-292.9 -486.5 L-293.9 -486.5 L-294.9 -486.5 L-295.9 -486.5 L-296.9 -486.5 L-297.8 -486.4 L-298.8 -486.4 L-299.8 -486.4 L-300.8 -486.4 L-301.8 -486.4 L-302.8 -486.4 L-303.8 -486.3 L-304.8 -486.3 L-305.7 -486.3 L-306.7 -486.3 L-307.7 -486.3 L-308.7 -486.3 L-309.7 -486.2 L-310.7 -486.2 Z " />
<path stroke="rgb(0,0,0)" stroke-opacity="1" fill="rgb(255,255,255)" fill-opacity="1" d="M200.4 -112.3 L201.4 -112.2 L202.4 -112.1 L203.3 -111.9 L204.3 -111.6 L205.2 -111.3 L206.1 -110.8 L207 -110.3 L207.8 -109.8 L208.5 -109.1 L209.2 -108.5 L209.9 -107.7 L210.5 -106.9 L211 -106.1 L211.5 -105.2 L211.9 -104.3 L212.2 -103.4 L212.5 -102.4 L212.6 -101.5 L212.7 -100.5 L212.7 -99.5 L212.7 -98.51 L212.5 -97.54 L212.3 -96.57 L212 -95.63 L211.6 -94.72 L211.2 -93.84 L210.7 -92.99 L210.1 -92.19 L209.4 -91.44 L208.8 -90.74 L208 -90.1 L207.2 -89.52 L206.4 -89 L205.5 -88.56 L204.6 -88.18 L203.6 -87.88 L202.7 -87.65 L201.7 -87.51 L200.7 -87.44 L199.7 -87.44 L198.7 -87.53 L197.8 -87.69 L196.8 -87.94 L195.9 -88.25 L195 -88.64 L194.1 -89.1 L193.3 -89.63 L192.5 -90.22 L191.7 -90.88 L191 -91.59 L190.4 -92.35 L189.8 -93.16 L189.4 -94.01 L188.9 -94.9 L188.6 -95.82 L188.3 -96.77 L188.1 -97.73 L187.9 -98.71 L187.9 -99.7 L187.9 -100.7 L188 -101.7 L188.2 -102.6 L188.5 -103.6 L188.8 -104.5 L189.2 -105.4 L189.7 -106.3 L190.2 -107.1 L190.8 -107.9 L191.5 -108.6 L192.2 -109.3 L193 -109.9 L193.8 -110.4 L194.7 -110.9 L195.6 -111.3 L196.5 -111.7 L197.5 -111.9 L198.4 -112.1 L199.4 -112.2 L200.4 -112.3 Z " />
<path stroke="rgb(0,0,0)" stroke-opacity="1" fill="rgb(255,255,255)" fill-opacity="1" d="M-103.8 -479.5 L-103.9 -480.5 L-104 -481.5 L-104.1 -482.4 L-104.2 -483.4 L-104.3 -484.4 L-104.4 -485.4 L-104.5 -486.4 L-104.7 -487.3 L-104.8 -488.3 L-104.9 -489.3 L-105 -490.3 L-105.1 -491.3 L-105.2 -492.3 L-105.3 -493.2 L-105.4 -494.2 L-105.5 -495.2 L-105.6 -496.2 L-105.7 -497.2 L-105.8 -498.2 L-105.9 -499.1 L-106 -500.1 L-106.1 -501.1 L-106.2 -502.1 L-106.3 -503.1 L-106.4 -504.1 L-105.5 -504.2 L-104.5 -504.3 L-103.5 -504.4 L-102.5 -504.5 L-101.5 -504.6 L-100.5 -504.7 L-99.56 -504.8 L-98.58 -504.9 L-97.6 -505 L-96.62 -505.1 L-95.63 -505.2 L-94.65 -505.3 L-93.67 -505.4 L-92.69 -505.5 L-91.7 -505.6 L-90.72 -505.7 L-89.74 -505.8 L-88.75 -505.9 L-87.77 -506.1 L-86.79 -506.2 L-85.81 -506.3 L-84.82 -506.4 L-83.84 -506.5 L-82.86 -506.6 L-81.88 -506.7 L-81.77 -505.7 L-81.67 -504.7 L-81.56 -503.7 L-81.46 -502.8 L-81.35 -501.8 L-81.24 -500.8 L-81.14 -499.8 L-81.03 -498.8 L-80.93 -497.8 L-80.82 -496.9 L-80.72 -495.9 L-80.61 -494.9 L-80.51 -493.9 L-80.4 -492.9 L-80.3 -491.9 L-80.19 -491 L-80.09 -490 L-79.98 -489 L-79.88 -488 L-79.77 -487 L-79.66 -486.1 L-79.56 -485.1 L-79.45 -484.1 L-79.35 -483.1 L-79.24 -482.1 L-80.23 -482 L-81.21 -481.9 L-82.19 -481.8 L-83.17 -481.7 L-84.16 -481.6 L-85.14 -481.5 L-86.12 -481.4 L-87.1 -481.3 L-88.09 -481.2 L-89.07 -481.1 L-90.05 -481 L-91.03 -480.9 L-92.02 -480.8 L-93 -480.6 L-93.98 -480.5 L-94.97 -480.4 L-95.95 -480.3 L-96.93 -480.2 L-97.91 -480.1 L-98.9 -480 L-99.88 -479.9 L-100.9 -479.8 L-101.8 -479.7 L-102.8 -479.6 L-103.8 -479.5 Z " />
<path stroke="rgb(0,0,0)" stroke-opacity="1" fill="rgb(255,255,255)" fill-opacity="1" d="M-295 -13.38 L-293.9 -12.95 L-292.9 -12.45 L-291.9 -11.86 L-291 -11.2 L-290.1 -10.47 L-289.3 -9.665 L-288.5 -8.802 L-287.8 -7.882 L-287.2 -6.911 L-286.7 -5.895 L-286.3 -4.841 L-285.9 -3.756 L-285.7 -2.645 L-285.5 -1.517 L-285.4 -0.3782 L-285.4 0.7641 L-285.5 1.903 L-285.7 3.03 L-285.9 4.14 L-286.3 5.224 L-286.7 6.277 L-287.3 7.291 L-287.9 8.26 L-288.6 9.177 L-289.3 10.04 L-290.1 10.84 L-291 11.57 L-291.9 12.23 L-292.9 12.81 L-293.9 13.31 L-295 13.73 L-296.1 14.06 L-297.2 14.31 L-298.3 14.47 L-299.5 14.53 L-300.6 14.51 L-301.8 14.39 L-302.9 14.19 L-304 13.89 L-305.1 13.51 L-306.1 13.05 L-307.1 12.5 L-308.1 11.88 L-309 11.18 L-309.8 10.41 L-310.6 9.579 L-311.3 8.687 L-312 7.741 L-312.5 6.747 L-313 5.711 L-313.4 4.641 L-313.7 3.542 L-313.9 2.422 L-314.1 1.287 L-314.1 0.1457 L-314.1 -0.9957 L-313.9 -2.13 L-313.7 -3.249 L-313.4 -4.347 L-313 -5.416 L-312.5 -6.45 L-311.9 -7.442 L-311.3 -8.386 L-310.6 -9.276 L-309.8 -10.11 L-308.9 -10.87 L-308 -11.57 L-307.1 -12.19 L-306.1 -12.73 L-305 -13.19 L-303.9 -13.57 L-302.8 -13.86 L-301.7 -14.06 L-300.6 -14.17 L-299.4 -14.19 L-298.3 -14.12 L-297.2 -13.96 L-296.1 -13.71 L-295 -13.38 Z " />
<path stroke="rgb(0,0,0)" stroke-opacity="1" fill="rgb(255,255,255)" fill-opacity="1" d="M-612.5 -388 L-612.5 -389 L-612.5 -390 L-612.5 -391 L-612.5 -392 L-612.5 -393 L-612.5 -394 L-612.4 -395 L-612.4 -395.9 L-612.4 -396.9 L-612.4 -397.9 L-612.4 -398.9 L-612.4 -399.9 L-612.4 -400.9 L-612.4 -401.9 L-612.4 -402.9 L-612.4 -403.8 L-612.4 -404.8 L-612.4 -405.8 L-612.4 -406.8 L-612.4 -407.8 L-612.4 -408.8 L-612.3 -409.8 L-612.3 -410.8 L-612.3 -411.8 L-612.3 -412.7 L-611.3 -412.7 L-610.4 -412.7 L-609.4 -412.7 L-608.4 -412.7 L-607.4 -412.7 L-606.4 -412.7 L-605.4 -412.7 L-604.4 -412.7 L-603.4 -412.7 L-602.4 -412.7 L-601.5 -412.7 L-600.5 -412.7 L-599.5 -412.7 L-598.5 -412.6 L-597.5 -412.6 L-596.5 -412.6 L-595.5 -412.6 L-594.5 -412.6 L-593.6 -412.6 L-592.6 -412.6 L-591.6 -412.6 L-590.6 -412.6 L-589.6 -412.6 L-588.6 -412.6 L-587.6 -412.6 L-587.6 -411.6 L-587.6 -410.6 L-587.6 -409.6 L-587.7 -408.6 L-587.7 -407.6 L-587.7 -406.6 L-587.7 -405.7 L-587.7 -404.7 L-587.7 -403.7 L-587.7 -402.7 L-587.7 -401.7 L-587.7 -400.7 L-587.7 -399.7 L-587.7 -398.7 L-587.7 -397.7 L-587.7 -396.8 L-587.7 -395.8 L-587.7 -394.8 L-587.8 -393.8 L-587.8 -392.8 L-587.8 -391.8 L-587.8 -390.8 L-587.8 -389.8 L-587.8 -388.9 L-587.8 -387.9 L-588.8 -387.9 L-589.8 -387.9 L-590.8 -387.9 L-591.7 -387.9 L-592.7 -387.9 L-593.7 -387.9 L-594.7 -387.9 L-595.7 -387.9 L-596.7 -387.9 L-597.7 -387.9 L-598.7 -387.9 L-599.6 -387.9 L-600.6 -388 L-601.6 -388 L-602.6 -388 L-603.6 -388 L-604.6 -388 L-605.6 -388 L-606.6 -388 L-607.6 -388 L-608.5 -388 L-609.5 -388 L-610.5 -388 L-611.5 -388 L-612.5 -388 Z " />
<path stroke="rgb(0,0,0)" stroke-opacity="1" fill="rgb(255,255,255)" fill-opacity="1" d="M-99.44 -12.32 L-98.45 -12.26 L-97.46 -12.13 L-96.49 -11.91 L-95.55 -11.62 L-94.62 -11.25 L-93.73 -10.81 L-92.88 -10.3 L-92.07 -9.731 L-91.31 -9.094 L-90.6 -8.399 L-89.95 -7.65 L-89.36 -6.851 L-88.84 -6.008 L-88.38 -5.126 L-88 -4.211 L-87.69 -3.268 L-87.45 -2.304 L-87.3 -1.324 L-87.22 -0.3341 L-87.22 0.6584 L-87.3 1.648 L-87.46 2.628 L-87.69 3.592 L-88 4.535 L-88.39 5.449 L-88.84 6.331 L-89.37 7.173 L-89.96 7.971 L-90.61 8.72 L-91.32 9.414 L-92.08 10.05 L-92.89 10.62 L-93.74 11.13 L-94.63 11.57 L-95.56 11.93 L-96.51 12.23 L-97.47 12.44 L-98.46 12.58 L-99.45 12.64 L-100.4 12.62 L-101.4 12.52 L-102.4 12.34 L-103.4 12.09 L-104.3 11.76 L-105.2 11.35 L-106.1 10.88 L-106.9 10.34 L-107.7 9.732 L-108.4 9.065 L-109.1 8.343 L-109.7 7.568 L-110.3 6.747 L-110.8 5.884 L-111.2 4.984 L-111.5 4.055 L-111.8 3.1 L-112 2.127 L-112.1 1.142 L-112.2 0.1499 L-112.1 -0.8419 L-112 -1.827 L-111.8 -2.8 L-111.5 -3.754 L-111.2 -4.684 L-110.8 -5.583 L-110.3 -6.445 L-109.7 -7.266 L-109.1 -8.04 L-108.4 -8.762 L-107.7 -9.428 L-106.9 -10.03 L-106.1 -10.57 L-105.2 -11.05 L-104.3 -11.45 L-103.4 -11.78 L-102.4 -12.03 L-101.4 -12.21 L-100.4 -12.3 L-99.44 -12.32 Z " />
<path stroke="rgb(0,0,0)" stroke-opacity="1" fill="rgb(255,255,255)" fill-opacity="1" d="M-410.7 -386.2 L-410.7 -387.2 L-410.7 -388.2 L-410.7 -389.2 L-410.8 -390.2 L-410.8 -391.2 L-410.8 -392.2 L-410.8 -393.1 L-410.8 -394.1 L-410.8 -395.1 L-410.9 -396.1 L-410.9 -397.1 L-410.9 -398.1 L-410.9 -399.1 L-410.9 -400.1 L-410.9 -401.1 L-411 -402 L-411 -403 L-411 -404 L-411 -405 L-411 -406 L-411 -407 L-411.1 -408 L-411.1 -409 L-411.1 -409.9 L-411.1 -410.9 L-410.1 -410.9 L-409.1 -411 L-408.1 -411 L-407.2 -411 L-406.2 -411 L-405.2 -411 L-404.2 -411 L-403.2 -411.1 L-402.2 -411.1 L-401.2 -411.1 L-400.2 -411.1 L-399.3 -411.1 L-398.3 -411.2 L-397.3 -411.2 L-396.3 -411.2 L-395.3 -411.2 L-394.3 -411.2 L-393.3 -411.2 L-392.3 -411.3 L-391.3 -411.3 L-390.4 -411.3 L-389.4 -411.3 L-388.4 -411.3 L-387.4 -411.3 L-386.4 -411.4 L-386.4 -410.4 L-386.4 -409.4 L-386.4 -408.4 L-386.3 -407.4 L-386.3 -406.4 L-386.3 -405.4 L-386.3 -404.4 L-386.3 -403.4 L-386.3 -402.5 L-386.2 -401.5 L-386.2 -400.5 L-386.2 -399.5 L-386.2 -398.5 L-386.2 -397.5 L-386.2 -396.5 L-386.1 -395.5 L-386.1 -394.6 L-386.1 -393.6 L-386.1 -392.6 L-386.1 -391.6 L-386.1 -390.6 L-386 -389.6 L-386 -388.6 L-386 -387.6 L-386 -386.7 L-387 -386.6 L-388 -386.6 L-388.9 -386.6 L-389.9 -386.6 L-390.9 -386.6 L-391.9 -386.5 L-392.9 -386.5 L-393.9 -386.5 L-394.9 -386.5 L-395.9 -386.5 L-396.9 -386.5 L-397.8 -386.4 L-398.8 -386.4 L-399.8 -386.4 L-400.8 -386.4 L-401.8 -386.4 L-402.8 -386.4 L-403.8 -386.3 L-404.8 -386.3 L-405.7 -386.3 L-406.7 -386.3 L-407.7 -386.3 L-408.7 -386.3 L-409.7 -386.2 L-410.7 -386.2 Z " />
<path stroke="rgb(0,0,0)" stroke-opacity="1" fill="rgb(255,255,255)" fill-opacity="1" d="M100.4 -12.26 L101.4 -12.21 L102.4 -12.09 L103.3 -11.88 L104.3 -11.61 L105.2 -11.25 L106.1 -10.83 L107 -10.33 L107.8 -9.771 L108.5 -9.147 L109.2 -8.464 L109.9 -7.727 L110.5 -6.94 L111 -6.108 L111.5 -5.236 L111.9 -4.331 L112.2 -3.397 L112.5 -2.44 L112.6 -1.468 L112.7 -0.4846 L112.7 0.5025 L112.7 1.487 L112.5 2.464 L112.3 3.426 L112 4.367 L111.6 5.282 L111.2 6.164 L110.7 7.008 L110.1 7.809 L109.4 8.561 L108.8 9.261 L108 9.902 L107.2 10.48 L106.4 11 L105.5 11.44 L104.6 11.82 L103.6 12.12 L102.7 12.35 L101.7 12.49 L100.7 12.56 L99.72 12.56 L98.73 12.47 L97.76 12.31 L96.8 12.06 L95.87 11.75 L94.96 11.36 L94.09 10.9 L93.25 10.37 L92.46 9.777 L91.73 9.123 L91.04 8.412 L90.41 7.65 L89.85 6.839 L89.35 5.987 L88.92 5.098 L88.57 4.177 L88.28 3.231 L88.08 2.266 L87.95 1.287 L87.9 0.3015 L87.92 -0.6853 L88.03 -1.667 L88.21 -2.637 L88.47 -3.589 L88.81 -4.518 L89.22 -5.417 L89.69 -6.281 L90.24 -7.104 L90.85 -7.881 L91.52 -8.607 L92.24 -9.279 L93.02 -9.89 L93.84 -10.44 L94.7 -10.92 L95.6 -11.33 L96.52 -11.67 L97.47 -11.93 L98.44 -12.12 L99.43 -12.23 L100.4 -12.26 Z " />
<path stroke="rgb(0,0,0)" stroke-opacity="1" fill="rgb(255,255,255)" fill-opacity="1" d="M-203.8 -379.5 L-203.9 -380.5 L-204 -381.5 L-204.1 -382.4 L-204.2 -383.4 L-204.3 -384.4 L-204.4 -385.4 L-204.5 -386.4 L-204.7 -387.3 L-204.8 -388.3 L-204.9 -389.3 L-205 -390.3 L-205.1 -391.3 L-205.2 -392.3 L-205.3 -393.2 L-205.4 -394.2 L-205.5 -395.2 L-205.6 -396.2 L-205.7 -397.2 L-205.8 -398.2 L-205.9 -399.1 L-206 -400.1 L-206.1 -401.1 L-206.2 -402.1 L-206.3 -403.1 L-206.4 -404.1 L-205.5 -404.2 L-204.5 -404.3 L-203.5 -404.4 L-202.5 -404.5 L-201.5 -404.6 L-200.5 -404.7 L-199.6 -404.8 L-198.6 -404.9 L-197.6 -405 L-196.6 -405.1 L-195.6 -405.2 L-194.7 -405.3 L-193.7 -405.4 L-192.7 -405.5 L-191.7 -405.6 L-190.7 -405.7 L-189.7 -405.8 L-188.8 -405.9 L-187.8 -406.1 L-186.8 -406.2 L-185.8 -406.3 L-184.8 -406.4 L-183.8 -406.5 L-182.9 -406.6 L-181.9 -406.7 L-181.8 -405.7 L-181.7 -404.7 L-181.6 -403.7 L-181.5 -402.8 L-181.3 -401.8 L-181.2 -400.8 L-181.1 -399.8 L-181 -398.8 L-180.9 -397.8 L-180.8 -396.9 L-180.7 -395.9 L-180.6 -394.9 L-180.5 -393.9 L-180.4 -392.9 L-180.3 -391.9 L-180.2 -391 L-180.1 -390 L-180 -389 L-179.9 -388 L-179.8 -387 L-179.7 -386.1 L-179.6 -385.1 L-179.5 -384.1 L-179.3 -383.1 L-179.2 -382.1 L-180.2 -382 L-181.2 -381.9 L-182.2 -381.8 L-183.2 -381.7 L-184.2 -381.6 L-185.1 -381.5 L-186.1 -381.4 L-187.1 -381.3 L-188.1 -381.2 L-189.1 -381.1 L-190.1 -381 L-191 -380.9 L-192 -380.8 L-193 -380.6 L-194 -380.5 L-195 -380.4 L-195.9 -380.3 L-196.9 -380.2 L-197.9 -380.1 L-198.9 -380 L-199.9 -379.9 L-200.9 -379.8 L-201.8 -379.7 L-202.8 -379.6 L-203.8 -379.5 Z " />
<path stroke="rgb(0,0,0)" stroke-opacity="1" fill="rgb(255,255,255)" fill-opacity="1" d="M300.4 -12.26 L301.4 -12.21 L302.4 -12.09 L303.3 -11.88 L304.3 -11.61 L305.2 -11.25 L306.1 -10.83 L307 -10.33 L307.8 -9.771 L308.5 -9.147 L309.2 -8.464 L309.9 -7.727 L310.5 -6.94 L311 -6.108 L311.5 -5.236 L311.9 -4.331 L312.2 -3.397 L312.5 -2.44 L312.6 -1.468 L312.7 -0.4846 L312.7 0.5025 L312.7 1.487 L312.5 2.464 L312.3 3.426 L312 4.367 L311.6 5.282 L311.2 6.164 L310.7 7.008 L310.1 7.809 L309.4 8.561 L308.8 9.261 L308 9.902 L307.2 10.48 L306.4 11 L305.5 11.44 L304.6 11.82 L303.6 12.12 L302.7 12.35 L301.7 12.49 L300.7 12.56 L299.7 12.56 L298.7 12.47 L297.8 12.31 L296.8 12.06 L295.9 11.75 L295 11.36 L294.1 10.9 L293.3 10.37 L292.5 9.777 L291.7 9.123 L291 8.412 L290.4 7.65 L289.8 6.839 L289.4 5.987 L288.9 5.098 L288.6 4.177 L288.3 3.231 L288.1 2.266 L287.9 1.287 L287.9 0.3015 L287.9 -0.6853 L288 -1.667 L288.2 -2.637 L288.5 -3.589 L288.8 -4.518 L289.2 -5.417 L289.7 -6.281 L290.2 -7.104 L290.8 -7.881 L291.5 -8.607 L292.2 -9.279 L293 -9.89 L293.8 -10.44 L294.7 -10.92 L295.6 -11.33 L296.5 -11.67 L297.5 -11.93 L298.4 -12.12 L299.4 -12.23 L300.4 -12.26 Z " />
<path stroke="rgb(0,0,0)" stroke-opacity="1" fill="rgb(255,255,255)" fill-opacity="1" d="M-712.5 -288 L-712.5 -289 L-712.5 -290 L-712.5 -291 L-712.5 -292 L-712.5 -293 L-712.5 -294 L-712.4 -295 L-712.4 -295.9 L-712.4 -296.9 L-712.4 -297.9 L-712.4 -298.9 L-712.4 -299.9 L-712.4 -300.9 L-712.4 -301.9 L-712.4 -302.9 L-712.4 -303.8 L-712.4 -304.8 L-712.4 -305.8 L-712.4 -306.8 L-712.4 -307.8 L-712.4 -308.8 L-712.3 -309.8 L-712.3 -310.8 L-712.3 -311.8 L-712.3 -312.7 L-711.3 -312.7 L-710.4 -312.7 L-709.4 -312.7 L-708.4 -312.7 L-707.4 -312.7 L-706.4 -312.7 L-705.4 -312.7 L-704.4 -312.7 L-703.4 -312.7 L-702.4 -312.7 L-701.5 -312.7 L-700.5 -312.7 L-699.5 -312.7 L-698.5 -312.6 L-697.5 -312.6 L-696.5 -312.6 L-695.5 -312.6 L-694.5 -312.6 L-693.6 -312.6 L-692.6 -312.6 L-691.6 -312.6 L-690.6 -312.6 L-689.6 -312.6 L-688.6 -312.6 L-687.6 -312.6 L-687.6 -311.6 L-687.6 -310.6 L-687.6 -309.6 L-687.7 -308.6 L-687.7 -307.6 L-687.7 -306.6 L-687.7 -305.7 L-687.7 -304.7 L-687.7 -303.7 L-687.7 -302.7 L-687.7 -301.7 L-687.7 -300.7 L-687.7 -299.7 L-687.7 -298.7 L-687.7 -297.7 L-687.7 -296.8 L-687.7 -295.8 L-687.7 -294.8 L-687.8 -293.8 L-687.8 -292.8 L-687.8 -291.8 L-687.8 -290.8 L-687.8 -289.8 L-687.8 -288.9 L-687.8 -287.9 L-688.8 -287.9 L-689.8 -287.9 L-690.8 -287.9 L-691.7 -287.9 L-692.7 -287.9 L-693.7 -287.9 L-694.7 -287.9 L-695.7 -287.9 L-696.7 -287.9 L-697.7 -287.9 L-698.7 -287.9 L-699.6 -287.9 L-700.6 -288 L-701.6 -288 L-702.6 -288 L-703.6 -288 L-704.6 -288 L-705.6 -288 L-706.6 -288 L-707.6 -288 L-708.5 -288 L-709.5 -288 L-710.5 -288 L-711.5 -288 L-712.5 -288 Z " />
<path stroke="rgb(0,0,0)" stroke-opacity="1" fill="rgb(255,255,255)" fill-opacity="1" d="M-199.4 87.68 L-198.4 87.74 L-197.5 87.87 L-196.5 88.09 L-195.5 88.38 L-194.6 88.75 L-193.7 89.19 L-192.9 89.7 L-192.1 90.27 L-191.3 90.91 L-190.6 91.6 L-189.9 92.35 L-189.4 93.15 L-188.8 93.99 L-188.4 94.87 L-188 95.79 L-187.7 96.73 L-187.5 97.7 L-187.3 98.68 L-187.2 99.67 L-187.2 100.7 L-187.3 101.6 L-187.5 102.6 L-187.7 103.6 L-188 104.5 L-188.4 105.4 L-188.8 106.3 L-189.4 107.2 L-190 108 L-190.6 108.7 L-191.3 109.4 L-192.1 110.1 L-192.9 110.6 L-193.7 111.1 L-194.6 111.6 L-195.6 111.9 L-196.5 112.2 L-197.5 112.4 L-198.5 112.6 L-199.4 112.6 L-200.4 112.6 L-201.4 112.5 L-202.4 112.3 L-203.4 112.1 L-204.3 111.8 L-205.2 111.4 L-206.1 110.9 L-206.9 110.3 L-207.7 109.7 L-208.4 109.1 L-209.1 108.3 L-209.7 107.6 L-210.3 106.7 L-210.8 105.9 L-211.2 105 L-211.5 104.1 L-211.8 103.1 L-212 102.1 L-212.1 101.1 L-212.2 100.1 L-212.1 99.16 L-212 98.17 L-211.8 97.2 L-211.5 96.25 L-211.2 95.32 L-210.8 94.42 L-210.3 93.55 L-209.7 92.73 L-209.1 91.96 L-208.4 91.24 L-207.7 90.57 L-206.9 89.97 L-206.1 89.43 L-205.2 88.95 L-204.3 88.55 L-203.4 88.22 L-202.4 87.97 L-201.4 87.79 L-200.4 87.7 L-199.4 87.68 Z " />
<path stroke="rgb(0,0,0)" stroke-opacity="1" fill="rgb(255,255,255)" fill-opacity="1" d="M-510.7 -286.2 L-510.7 -287.2 L-510.7 -288.2 L-510.7 -289.2 L-510.8 -290.2 L-510.8 -291.2 L-510.8 -292.2 L-510.8 -293.1 L-510.8 -294.1 L-510.8 -295.1 L-510.9 -296.1 L-510.9 -297.1 L-510.9 -298.1 L-510.9 -299.1 L-510.9 -300.1 L-510.9 -301.1 L-511 -302 L-511 -303 L-511 -304 L-511 -305 L-511 -306 L-511 -307 L-511.1 -308 L-511.1 -309 L-511.1 -309.9 L-511.1 -310.9 L-510.1 -310.9 L-509.1 -311 L-508.1 -311 L-507.2 -311 L-506.2 -311 L-505.2 -311 L-504.2 -311 L-503.2 -311.1 L-502.2 -311.1 L-501.2 -311.1 L-500.2 -311.1 L-499.3 -311.1 L-498.3 -311.2 L-497.3 -311.2 L-496.3 -311.2 L-495.3 -311.2 L-494.3 -311.2 L-493.3 -311.2 L-492.3 -311.3 L-491.3 -311.3 L-490.4 -311.3 L-489.4 -311.3 L-488.4 -311.3 L-487.4 -311.3 L-486.4 -311.4 L-486.4 -310.4 L-486.4 -309.4 L-486.4 -308.4 L-486.3 -307.4 L-486.3 -306.4 L-486.3 -305.4 L-486.3 -304.4 L-486.3 -303.4 L-486.3 -302.5 L-486.2 -301.5 L-486.2 -300.5 L-486.2 -299.5 L-486.2 -298.5 L-486.2 -297.5 L-486.2 -296.5 L-486.1 -295.5 L-486.1 -294.6 L-486.1 -293.6 L-486.1 -292.6 L-486.1 -291.6 L-486.1 -290.6 L-486 -289.6 L-486 -288.6 L-486 -287.6 L-486 -286.7 L-487 -286.6 L-488 -286.6 L-488.9 -286.6 L-489.9 -286.6 L-490.9 -286.6 L-491.9 -286.5 L-492.9 -286.5 L-493.9 -286.5 L-494.9 -286.5 L-495.9 -286.5 L-496.9 -286.5 L-497.8 -286.4 L-498.8 -286.4 L-499.8 -286.4 L-500.8 -286.4 L-501.8 -286.4 L-502.8 -286.4 L-503.8 -286.3 L-504.8 -286.3 L-505.7 -286.3 L-506.7 -286.3 L-507.7 -286.3 L-508.7 -286.3 L-509.7 -286.2 L-510.7 -286.2 Z " />
<path stroke="rgb(0,0,0)" stroke-opacity="1" fill="rgb(255,255,255)" fill-opacity="1" d="M0.4118 87.74 L1.398 87.79 L2.377 87.91 L3.343 88.12 L4.29 88.39 L5.212 88.75 L6.103 89.17 L6.957 89.67 L7.769 90.23 L8.534 90.85 L9.247 91.54 L9.904 92.27 L10.5 93.06 L11.03 93.89 L11.49 94.76 L11.89 95.67 L12.21 96.6 L12.45 97.56 L12.62 98.53 L12.71 99.52 L12.72 100.5 L12.65 101.5 L12.51 102.5 L12.29 103.4 L11.99 104.4 L11.62 105.3 L11.18 106.2 L10.66 107 L10.09 107.8 L9.448 108.6 L8.751 109.3 L8.001 109.9 L7.202 110.5 L6.36 111 L5.479 111.4 L4.566 111.8 L3.626 112.1 L2.665 112.3 L1.689 112.5 L0.7044 112.6 L-0.2828 112.6 L-1.266 112.5 L-2.24 112.3 L-3.197 112.1 L-4.132 111.7 L-5.039 111.4 L-5.912 110.9 L-6.746 110.4 L-7.535 109.8 L-8.275 109.1 L-8.96 108.4 L-9.587 107.6 L-10.15 106.8 L-10.65 106 L-11.08 105.1 L-11.43 104.2 L-11.72 103.2 L-11.92 102.3 L-12.05 101.3 L-12.1 100.3 L-12.08 99.31 L-11.97 98.33 L-11.79 97.36 L-11.53 96.41 L-11.19 95.48 L-10.78 94.58 L-10.31 93.72 L-9.761 92.9 L-9.152 92.12 L-8.484 91.39 L-7.76 90.72 L-6.985 90.11 L-6.164 89.56 L-5.302 89.08 L-4.404 88.67 L-3.477 88.33 L-2.525 88.07 L-1.556 87.88 L-0.5749 87.77 L0.4118 87.74 Z " />
<path stroke="rgb(0,0,0)" stroke-opacity="1" fill="rgb(255,255,255)" fill-opacity="1" d="M-303.8 -279.5 L-303.9 -280.5 L-304 -281.5 L-304.1 -282.4 L-304.2 -283.4 L-304.3 -284.4 L-304.4 -285.4 L-304.5 -286.4 L-304.7 -287.3 L-304.8 -288.3 L-304.9 -289.3 L-305 -290.3 L-305.1 -291.3 L-305.2 -292.3 L-305.3 -293.2 L-305.4 -294.2 L-305.5 -295.2 L-305.6 -296.2 L-305.7 -297.2 L-305.8 -298.2 L-305.9 -299.1 L-306 -300.1 L-306.1 -301.1 L-306.2 -302.1 L-306.3 -303.1 L-306.4 -304.1 L-305.5 -304.2 L-304.5 -304.3 L-303.5 -304.4 L-302.5 -304.5 L-301.5 -304.6 L-300.5 -304.7 L-299.6 -304.8 L-298.6 -304.9 L-297.6 -305 L-296.6 -305.1 L-295.6 -305.2 L-294.7 -305.3 L-293.7 -305.4 L-292.7 -305.5 L-291.7 -305.6 L-290.7 -305.7 L-289.7 -305.8 L-288.8 -305.9 L-287.8 -306.1 L-286.8 -306.2 L-285.8 -306.3 L-284.8 -306.4 L-283.8 -306.5 L-282.9 -306.6 L-281.9 -306.7 L-281.8 -305.7 L-281.7 -304.7 L-281.6 -303.7 L-281.5 -302.8 L-281.3 -301.8 L-281.2 -300.8 L-281.1 -299.8 L-281 -298.8 L-280.9 -297.8 L-280.8 -296.9 L-280.7 -295.9 L-280.6 -294.9 L-280.5 -293.9 L-280.4 -292.9 L-280.3 -291.9 L-280.2 -291 L-280.1 -290 L-280 -289 L-279.9 -288 L-279.8 -287 L-279.7 -286.1 L-279.6 -285.1 L-279.5 -284.1 L-279.3 -283.1 L-279.2 -282.1 L-280.2 -282 L-281.2 -281.9 L-282.2 -281.8 L-283.2 -281.7 L-284.2 -281.6 L-285.1 -281.5 L-286.1 -281.4 L-287.1 -281.3 L-288.1 -281.2 L-289.1 -281.1 L-290.1 -281 L-291 -280.9 L-292 -280.8 L-293 -280.6 L-294 -280.5 L-295 -280.4 L-295.9 -280.3 L-296.9 -280.2 L-297.9 -280.1 L-298.9 -280 L-299.9 -279.9 L-300.9 -279.8 L-301.8 -279.7 L-302.8 -279.6 L-303.8 -279.5 Z " />
<path stroke="rgb(0,0,0)" stroke-opacity="1" fill="rgb(255,255,255)" fill-opacity="1" d="M200.4 87.74 L201.4 87.79 L202.4 87.91 L203.3 88.12 L204.3 88.39 L205.2 88.75 L206.1 89.17 L207 89.67 L207.8 90.23 L208.5 90.85 L209.2 91.54 L209.9 92.27 L210.5 93.06 L211 93.89 L211.5 94.76 L211.9 95.67 L212.2 96.6 L212.5 97.56 L212.6 98.53 L212.7 99.52 L212.7 100.5 L212.7 101.5 L212.5 102.5 L212.3 103.4 L212 104.4 L211.6 105.3 L211.2 106.2 L210.7 107 L210.1 107.8 L209.4 108.6 L208.8 109.3 L208 109.9 L207.2 110.5 L206.4 111 L205.5 111.4 L204.6 111.8 L203.6 112.1 L202.7 112.3 L201.7 112.5 L200.7 112.6 L199.7 112.6 L198.7 112.5 L197.8 112.3 L196.8 112.1 L195.9 111.7 L195 111.4 L194.1 110.9 L193.3 110.4 L192.5 109.8 L191.7 109.1 L191 108.4 L190.4 107.6 L189.8 106.8 L189.4 106 L188.9 105.1 L188.6 104.2 L188.3 103.2 L188.1 102.3 L187.9 101.3 L187.9 100.3 L187.9 99.31 L188 98.33 L188.2 97.36 L188.5 96.41 L188.8 95.48 L189.2 94.58 L189.7 93.72 L190.2 92.9 L190.8 92.12 L191.5 91.39 L192.2 90.72 L193 90.11 L193.8 89.56 L194.7 89.08 L195.6 88.67 L196.5 88.33 L197.5 88.07 L198.4 87.88 L199.4 87.77 L200.4 87.74 Z " />
<path stroke="rgb(0,0,0)" stroke-opacity="1" fill="rgb(255,255,255)" fill-opacity="1" d="M-88.21 -264.9 L-88.51 -265.8 L-88.81 -266.8 L-89.1 -267.7 L-89.4 -268.7 L-89.7 -269.6 L-90 -270.5 L-90.3 -271.5 L-90.6 -272.4 L-90.89 -273.4 L-91.19 -274.3 L-91.49 -275.3 L-91.79 -276.2 L-92.09 -277.1 L-92.39 -278.1 L-92.68 -279 L-92.98 -280 L-93.28 -280.9 L-93.58 -281.8 L-93.88 -282.8 L-94.17 -283.7 L-94.47 -284.7 L-94.77 -285.6 L-95.07 -286.6 L-95.37 -287.5 L-95.67 -288.4 L-94.72 -288.7 L-93.78 -289 L-92.84 -289.3 L-91.9 -289.6 L-90.95 -289.9 L-90.01 -290.2 L-89.07 -290.5 L-88.13 -290.8 L-87.18 -291.1 L-86.24 -291.4 L-85.3 -291.7 L-84.36 -292 L-83.42 -292.3 L-82.47 -292.6 L-81.53 -292.9 L-80.59 -293.2 L-79.65 -293.5 L-78.7 -293.8 L-77.76 -294.1 L-76.82 -294.4 L-75.88 -294.7 L-74.93 -295 L-73.99 -295.3 L-73.05 -295.6 L-72.11 -295.9 L-71.81 -295 L-71.51 -294 L-71.21 -293.1 L-70.91 -292.1 L-70.62 -291.2 L-70.32 -290.2 L-70.02 -289.3 L-69.72 -288.4 L-69.42 -287.4 L-69.12 -286.5 L-68.83 -285.5 L-68.53 -284.6 L-68.23 -283.6 L-67.93 -282.7 L-67.63 -281.8 L-67.34 -280.8 L-67.04 -279.9 L-66.74 -278.9 L-66.44 -278 L-66.14 -277.1 L-65.84 -276.1 L-65.55 -275.2 L-65.25 -274.2 L-64.95 -273.3 L-64.65 -272.3 L-65.59 -272 L-66.54 -271.7 L-67.48 -271.4 L-68.42 -271.1 L-69.36 -270.8 L-70.31 -270.6 L-71.25 -270.3 L-72.19 -270 L-73.13 -269.7 L-74.07 -269.4 L-75.02 -269.1 L-75.96 -268.8 L-76.9 -268.5 L-77.84 -268.2 L-78.79 -267.9 L-79.73 -267.6 L-80.67 -267.3 L-81.61 -267 L-82.56 -266.7 L-83.5 -266.4 L-84.44 -266.1 L-85.38 -265.8 L-86.33 -265.5 L-87.27 -265.2 L-88.21 -264.9 Z " />
<path stroke="rgb(0,0,0)" stroke-opacity="1" fill="rgb(255,255,255)" fill-opacity="1" d="M-299.4 187.7 L-298.4 187.7 L-297.5 187.9 L-296.5 188.1 L-295.5 188.4 L-294.6 188.7 L-293.7 189.2 L-292.9 189.7 L-292.1 190.3 L-291.3 190.9 L-290.6 191.6 L-289.9 192.4 L-289.4 193.1 L-288.8 194 L-288.4 194.9 L-288 195.8 L-287.7 196.7 L-287.5 197.7 L-287.3 198.7 L-287.2 199.7 L-287.2 200.7 L-287.3 201.6 L-287.5 202.6 L-287.7 203.6 L-288 204.5 L-288.4 205.4 L-288.8 206.3 L-289.4 207.2 L-290 208 L-290.6 208.7 L-291.3 209.4 L-292.1 210.1 L-292.9 210.6 L-293.7 211.1 L-294.6 211.6 L-295.6 211.9 L-296.5 212.2 L-297.5 212.4 L-298.5 212.6 L-299.4 212.6 L-300.4 212.6 L-301.4 212.5 L-302.4 212.3 L-303.4 212.1 L-304.3 211.8 L-305.2 211.4 L-306.1 210.9 L-306.9 210.3 L-307.7 209.7 L-308.4 209.1 L-309.1 208.3 L-309.7 207.6 L-310.3 206.7 L-310.8 205.9 L-311.2 205 L-311.5 204.1 L-311.8 203.1 L-312 202.1 L-312.1 201.1 L-312.2 200.1 L-312.1 199.2 L-312 198.2 L-311.8 197.2 L-311.5 196.2 L-311.2 195.3 L-310.8 194.4 L-310.3 193.6 L-309.7 192.7 L-309.1 192 L-308.4 191.2 L-307.7 190.6 L-306.9 190 L-306.1 189.4 L-305.2 189 L-304.3 188.6 L-303.4 188.2 L-302.4 188 L-301.4 187.8 L-300.4 187.7 L-299.4 187.7 Z " />
<path stroke="rgb(0,0,0)" stroke-opacity="1" fill="rgb(255,255,255)" fill-opacity="1" d="M-610.7 -186.2 L-610.7 -187.2 L-610.7 -188.2 L-610.7 -189.2 L-610.8 -190.2 L-610.8 -191.2 L-610.8 -192.2 L-610.8 -193.1 L-610.8 -194.1 L-610.8 -195.1 L-610.9 -196.1 L-610.9 -197.1 L-610.9 -198.1 L-610.9 -199.1 L-610.9 -200.1 L-610.9 -201.1 L-611 -202 L-611 -203 L-611 -204 L-611 -205 L-611 -206 L-611 -207 L-611.1 -208 L-611.1 -209 L-611.1 -209.9 L-611.1 -210.9 L-610.1 -210.9 L-609.1 -211 L-608.1 -211 L-607.2 -211 L-606.2 -211 L-605.2 -211 L-604.2 -211 L-603.2 -211.1 L-602.2 -211.1 L-601.2 -211.1 L-600.2 -211.1 L-599.3 -211.1 L-598.3 -211.2 L-597.3 -211.2 L-596.3 -211.2 L-595.3 -211.2 L-594.3 -211.2 L-593.3 -211.2 L-592.3 -211.3 L-591.3 -211.3 L-590.4 -211.3 L-589.4 -211.3 L-588.4 -211.3 L-587.4 -211.3 L-586.4 -211.4 L-586.4 -210.4 L-586.4 -209.4 L-586.4 -208.4 L-586.3 -207.4 L-586.3 -206.4 L-586.3 -205.4 L-586.3 -204.4 L-586.3 -203.4 L-586.3 -202.5 L-586.2 -201.5 L-586.2 -200.5 L-586.2 -199.5 L-586.2 -198.5 L-586.2 -197.5 L-586.2 -196.5 L-586.1 -195.5 L-586.1 -194.6 L-586.1 -193.6 L-586.1 -192.6 L-586.1 -191.6 L-586.1 -190.6 L-586 -189.6 L-586 -188.6 L-586 -187.6 L-586 -186.7 L-587 -186.6 L-588 -186.6 L-588.9 -186.6 L-589.9 -186.6 L-590.9 -186.6 L-591.9 -186.5 L-592.9 -186.5 L-593.9 -186.5 L-594.9 -186.5 L-595.9 -186.5 L-596.9 -186.5 L-597.8 -186.4 L-598.8 -186.4 L-599.8 -186.4 L-600.8 -186.4 L-601.8 -186.4 L-602.8 -186.4 L-603.8 -186.3 L-604.8 -186.3 L-605.7 -186.3 L-606.7 -186.3 L-607.7 -186.3 L-608.7 -186.3 L-609.7 -186.2 L-610.7 -186.2 Z " />
<path stroke="rgb(0,0,0)" stroke-opacity="1" fill="rgb(255,255,255)" fill-opacity="1" d="M-99.59 187.7 L-98.6 187.8 L-97.62 187.9 L-96.66 188.1 L-95.71 188.4 L-94.79 188.7 L-93.9 189.2 L-93.04 189.7 L-92.23 190.2 L-91.47 190.9 L-90.75 191.5 L-90.1 192.3 L-89.5 193.1 L-88.97 193.9 L-88.51 194.8 L-88.11 195.7 L-87.79 196.6 L-87.55 197.6 L-87.38 198.5 L-87.29 199.5 L-87.28 200.5 L-87.35 201.5 L-87.49 202.5 L-87.71 203.4 L-88.01 204.4 L-88.38 205.3 L-88.82 206.2 L-89.34 207 L-89.91 207.8 L-90.55 208.6 L-91.25 209.3 L-92 209.9 L-92.8 210.5 L-93.64 211 L-94.52 211.4 L-95.43 211.8 L-96.37 212.1 L-97.34 212.3 L-98.31 212.5 L-99.3 212.6 L-100.3 212.6 L-101.3 212.5 L-102.2 212.3 L-103.2 212.1 L-104.1 211.7 L-105 211.4 L-105.9 210.9 L-106.7 210.4 L-107.5 209.8 L-108.3 209.1 L-109 208.4 L-109.6 207.6 L-110.2 206.8 L-110.6 206 L-111.1 205.1 L-111.4 204.2 L-111.7 203.2 L-111.9 202.3 L-112.1 201.3 L-112.1 200.3 L-112.1 199.3 L-112 198.3 L-111.8 197.4 L-111.5 196.4 L-111.2 195.5 L-110.8 194.6 L-110.3 193.7 L-109.8 192.9 L-109.2 192.1 L-108.5 191.4 L-107.8 190.7 L-107 190.1 L-106.2 189.6 L-105.3 189.1 L-104.4 188.7 L-103.5 188.3 L-102.5 188.1 L-101.6 187.9 L-100.6 187.8 L-99.59 187.7 Z " />
<path stroke="rgb(0,0,0)" stroke-opacity="1" fill="rgb(255,255,255)" fill-opacity="1" d="M-403.8 -179.5 L-403.9 -180.5 L-404 -181.5 L-404.1 -182.4 L-404.2 -183.4 L-404.3 -184.4 L-404.4 -185.4 L-404.5 -186.4 L-404.7 -187.3 L-404.8 -188.3 L-404.9 -189.3 L-405 -190.3 L-405.1 -191.3 L-405.2 -192.3 L-405.3 -193.2 L-405.4 -194.2 L-405.5 -195.2 L-405.6 -196.2 L-405.7 -197.2 L-405.8 -198.2 L-405.9 -199.1 L-406 -200.1 L-406.1 -201.1 L-406.2 -202.1 L-406.3 -203.1 L-406.4 -204.1 L-405.5 -204.2 L-404.5 -204.3 L-403.5 -204.4 L-402.5 -204.5 L-401.5 -204.6 L-400.5 -204.7 L-399.6 -204.8 L-398.6 -204.9 L-397.6 -205 L-396.6 -205.1 L-395.6 -205.2 L-394.7 -205.3 L-393.7 -205.4 L-392.7 -205.5 L-391.7 -205.6 L-390.7 -205.7 L-389.7 -205.8 L-388.8 -205.9 L-387.8 -206.1 L-386.8 -206.2 L-385.8 -206.3 L-384.8 -206.4 L-383.8 -206.5 L-382.9 -206.6 L-381.9 -206.7 L-381.8 -205.7 L-381.7 -204.7 L-381.6 -203.7 L-381.5 -202.8 L-381.3 -201.8 L-381.2 -200.8 L-381.1 -199.8 L-381 -198.8 L-380.9 -197.8 L-380.8 -196.9 L-380.7 -195.9 L-380.6 -194.9 L-380.5 -193.9 L-380.4 -192.9 L-380.3 -191.9 L-380.2 -191 L-380.1 -190 L-380 -189 L-379.9 -188 L-379.8 -187 L-379.7 -186.1 L-379.6 -185.1 L-379.5 -184.1 L-379.3 -183.1 L-379.2 -182.1 L-380.2 -182 L-381.2 -181.9 L-382.2 -181.8 L-383.2 -181.7 L-384.2 -181.6 L-385.1 -181.5 L-386.1 -181.4 L-387.1 -181.3 L-388.1 -181.2 L-389.1 -181.1 L-390.1 -181 L-391 -180.9 L-392 -180.8 L-393 -180.6 L-394 -180.5 L-395 -180.4 L-395.9 -180.3 L-396.9 -180.2 L-397.9 -180.1 L-398.9 -180 L-399.9 -179.9 L-400.9 -179.8 L-401.8 -179.7 L-402.8 -179.6 L-403.8 -179.5 Z " />
<path stroke="rgb(0,0,0)" stroke-opacity="1" fill="rgb(255,255,255)" fill-opacity="1" d="M100.4 187.7 L101.4 187.8 L102.4 187.9 L103.3 188.1 L104.3 188.4 L105.2 188.7 L106.1 189.2 L107 189.7 L107.8 190.2 L108.5 190.9 L109.2 191.5 L109.9 192.3 L110.5 193.1 L111 193.9 L111.5 194.8 L111.9 195.7 L112.2 196.6 L112.5 197.6 L112.6 198.5 L112.7 199.5 L112.7 200.5 L112.7 201.5 L112.5 202.5 L112.3 203.4 L112 204.4 L111.6 205.3 L111.2 206.2 L110.7 207 L110.1 207.8 L109.4 208.6 L108.8 209.3 L108 209.9 L107.2 210.5 L106.4 211 L105.5 211.4 L104.6 211.8 L103.6 212.1 L102.7 212.3 L101.7 212.5 L100.7 212.6 L99.72 212.6 L98.73 212.5 L97.76 212.3 L96.8 212.1 L95.87 211.7 L94.96 211.4 L94.09 210.9 L93.25 210.4 L92.46 209.8 L91.73 209.1 L91.04 208.4 L90.41 207.6 L89.85 206.8 L89.35 206 L88.92 205.1 L88.57 204.2 L88.28 203.2 L88.08 202.3 L87.95 201.3 L87.9 200.3 L87.92 199.3 L88.03 198.3 L88.21 197.4 L88.47 196.4 L88.81 195.5 L89.22 194.6 L89.69 193.7 L90.24 192.9 L90.85 192.1 L91.52 191.4 L92.24 190.7 L93.02 190.1 L93.84 189.6 L94.7 189.1 L95.6 188.7 L96.52 188.3 L97.47 188.1 L98.44 187.9 L99.43 187.8 L100.4 187.7 Z " />
<path stroke="rgb(0,0,0)" stroke-opacity="1" fill="rgb(255,255,255)" fill-opacity="1" d="M-188.2 -164.9 L-188.5 -165.8 L-188.8 -166.8 L-189.1 -167.7 L-189.4 -168.7 L-189.7 -169.6 L-190 -170.5 L-190.3 -171.5 L-190.6 -172.4 L-190.9 -173.4 L-191.2 -174.3 L-191.5 -175.3 L-191.8 -176.2 L-192.1 -177.1 L-192.4 -178.1 L-192.7 -179 L-193 -180 L-193.3 -180.9 L-193.6 -181.8 L-193.9 -182.8 L-194.2 -183.7 L-194.5 -184.7 L-194.8 -185.6 L-195.1 -186.6 L-195.4 -187.5 L-195.7 -188.4 L-194.7 -188.7 L-193.8 -189 L-192.8 -189.3 L-191.9 -189.6 L-191 -189.9 L-190 -190.2 L-189.1 -190.5 L-188.1 -190.8 L-187.2 -191.1 L-186.2 -191.4 L-185.3 -191.7 L-184.4 -192 L-183.4 -192.3 L-182.5 -192.6 L-181.5 -192.9 L-180.6 -193.2 L-179.6 -193.5 L-178.7 -193.8 L-177.8 -194.1 L-176.8 -194.4 L-175.9 -194.7 L-174.9 -195 L-174 -195.3 L-173 -195.6 L-172.1 -195.9 L-171.8 -195 L-171.5 -194 L-171.2 -193.1 L-170.9 -192.1 L-170.6 -191.2 L-170.3 -190.2 L-170 -189.3 L-169.7 -188.4 L-169.4 -187.4 L-169.1 -186.5 L-168.8 -185.5 L-168.5 -184.6 L-168.2 -183.6 L-167.9 -182.7 L-167.6 -181.8 L-167.3 -180.8 L-167 -179.9 L-166.7 -178.9 L-166.4 -178 L-166.1 -177.1 L-165.8 -176.1 L-165.5 -175.2 L-165.2 -174.2 L-164.9 -173.3 L-164.7 -172.3 L-165.6 -172 L-166.5 -171.7 L-167.5 -171.4 L-168.4 -171.1 L-169.4 -170.8 L-170.3 -170.6 L-171.2 -170.3 L-172.2 -170 L-173.1 -169.7 L-174.1 -169.4 L-175 -169.1 L-176 -168.8 L-176.9 -168.5 L-177.8 -168.2 L-178.8 -167.9 L-179.7 -167.6 L-180.7 -167.3 L-181.6 -167 L-182.6 -166.7 L-183.5 -166.4 L-184.4 -166.1 L-185.4 -165.8 L-186.3 -165.5 L-187.3 -165.2 L-188.2 -164.9 Z " />
<path stroke="rgb(0,0,0)" stroke-opacity="1" fill="rgb(255,255,255)" fill-opacity="1" d="M300.4 187.7 L301.4 187.8 L302.4 187.9 L303.3 188.1 L304.3 188.4 L305.2 188.7 L306.1 189.2 L307 189.7 L307.8 190.2 L308.5 190.9 L309.2 191.5 L309.9 192.3 L310.5 193.1 L311 193.9 L311.5 194.8 L311.9 195.7 L312.2 196.6 L312.5 197.6 L312.6 198.5 L312.7 199.5 L312.7 200.5 L312.7 201.5 L312.5 202.5 L312.3 203.4 L312 204.4 L311.6 205.3 L311.2 206.2 L310.7 207 L310.1 207.8 L309.4 208.6 L308.8 209.3 L308 209.9 L307.2 210.5 L306.4 211 L305.5 211.4 L304.6 211.8 L303.6 212.1 L302.7 212.3 L301.7 212.5 L300.7 212.6 L299.7 212.6 L298.7 212.5 L297.8 212.3 L296.8 212.1 L295.9 211.7 L295 211.4 L294.1 210.9 L293.3 210.4 L292.5 209.8 L291.7 209.1 L291 208.4 L290.4 207.6 L289.8 206.8 L289.4 206 L288.9 205.1 L288.6 204.2 L288.3 203.2 L288.1 202.3 L287.9 201.3 L287.9 200.3 L287.9 199.3 L288 198.3 L288.2 197.4 L288.5 196.4 L288.8 195.5 L289.2 194.6 L289.7 193.7 L290.2 192.9 L290.8 192.1 L291.5 191.4 L292.2 190.7 L293 190.1 L293.8 189.6 L294.7 189.1 L295.6 188.7 L296.5 188.3 L297.5 188.1 L298.4 187.9 L299.4 187.8 L300.4 187.7 Z " />
<path stroke="rgb(0,0,0)" stroke-opacity="1" fill="rgb(255,255,255)" fill-opacity="1" d="M-710.7 -86.23 L-710.7 -87.22 L-710.7 -88.21 L-710.7 -89.19 L-710.8 -90.18 L-710.8 -91.17 L-710.8 -92.16 L-710.8 -93.15 L-710.8 -94.13 L-710.8 -95.12 L-710.9 -96.11 L-710.9 -97.1 L-710.9 -98.09 L-710.9 -99.07 L-710.9 -100.1 L-710.9 -101.1 L-711 -102 L-711 -103 L-711 -104 L-711 -105 L-711 -106 L-711 -107 L-711.1 -108 L-711.1 -109 L-711.1 -109.9 L-711.1 -110.9 L-710.1 -110.9 L-709.1 -111 L-708.1 -111 L-707.2 -111 L-706.2 -111 L-705.2 -111 L-704.2 -111 L-703.2 -111.1 L-702.2 -111.1 L-701.2 -111.1 L-700.2 -111.1 L-699.3 -111.1 L-698.3 -111.2 L-697.3 -111.2 L-696.3 -111.2 L-695.3 -111.2 L-694.3 -111.2 L-693.3 -111.2 L-692.3 -111.3 L-691.3 -111.3 L-690.4 -111.3 L-689.4 -111.3 L-688.4 -111.3 L-687.4 -111.3 L-686.4 -111.4 L-686.4 -110.4 L-686.4 -109.4 L-686.4 -108.4 L-686.3 -107.4 L-686.3 -106.4 L-686.3 -105.4 L-686.3 -104.4 L-686.3 -103.4 L-686.3 -102.5 L-686.2 -101.5 L-686.2 -100.5 L-686.2 -99.5 L-686.2 -98.51 L-686.2 -97.52 L-686.2 -96.53 L-686.1 -95.54 L-686.1 -94.55 L-686.1 -93.57 L-686.1 -92.58 L-686.1 -91.59 L-686.1 -90.6 L-686 -89.61 L-686 -88.63 L-686 -87.64 L-686 -86.65 L-687 -86.63 L-688 -86.62 L-688.9 -86.6 L-689.9 -86.58 L-690.9 -86.57 L-691.9 -86.55 L-692.9 -86.53 L-693.9 -86.52 L-694.9 -86.5 L-695.9 -86.48 L-696.9 -86.47 L-697.8 -86.45 L-698.8 -86.43 L-699.8 -86.41 L-700.8 -86.4 L-701.8 -86.38 L-702.8 -86.36 L-703.8 -86.35 L-704.8 -86.33 L-705.7 -86.31 L-706.7 -86.3 L-707.7 -86.28 L-708.7 -86.26 L-709.7 -86.25 L-710.7 -86.23 Z " />
<path stroke="rgb(0,0,0)" stroke-opacity="1" fill="rgb(255,255,255)" fill-opacity="1" d="M-199.6 287.7 L-198.6 287.8 L-197.6 287.9 L-196.7 288.1 L-195.7 288.4 L-194.8 288.7 L-193.9 289.2 L-193 289.7 L-192.2 290.2 L-191.5 290.9 L-190.8 291.5 L-190.1 292.3 L-189.5 293.1 L-189 293.9 L-188.5 294.8 L-188.1 295.7 L-187.8 296.6 L-187.5 297.6 L-187.4 298.5 L-187.3 299.5 L-187.3 300.5 L-187.3 301.5 L-187.5 302.5 L-187.7 303.4 L-188 304.4 L-188.4 305.3 L-188.8 306.2 L-189.3 307 L-189.9 307.8 L-190.6 308.6 L-191.2 309.3 L-192 309.9 L-192.8 310.5 L-193.6 311 L-194.5 311.4 L-195.4 311.8 L-196.4 312.1 L-197.3 312.3 L-198.3 312.5 L-199.3 312.6 L-200.3 312.6 L-201.3 312.5 L-202.2 312.3 L-203.2 312.1 L-204.1 311.7 L-205 311.4 L-205.9 310.9 L-206.7 310.4 L-207.5 309.8 L-208.3 309.1 L-209 308.4 L-209.6 307.6 L-210.2 306.8 L-210.6 306 L-211.1 305.1 L-211.4 304.2 L-211.7 303.2 L-211.9 302.3 L-212.1 301.3 L-212.1 300.3 L-212.1 299.3 L-212 298.3 L-211.8 297.4 L-211.5 296.4 L-211.2 295.5 L-210.8 294.6 L-210.3 293.7 L-209.8 292.9 L-209.2 292.1 L-208.5 291.4 L-207.8 290.7 L-207 290.1 L-206.2 289.6 L-205.3 289.1 L-204.4 288.7 L-203.5 288.3 L-202.5 288.1 L-201.6 287.9 L-200.6 287.8 L-199.6 287.7 Z " />
<path stroke="rgb(0,0,0)" stroke-opacity="1" fill="rgb(255,255,255)" fill-opacity="1" d="M-503.8 -79.49 L-503.9 -80.47 L-504 -81.45 L-504.1 -82.43 L-504.2 -83.42 L-504.3 -84.4 L-504.4 -85.38 L-504.5 -86.36 L-504.7 -87.35 L-504.8 -88.33 L-504.9 -89.31 L-505 -90.3 L-505.1 -91.28 L-505.2 -92.26 L-505.3 -93.24 L-505.4 -94.23 L-505.5 -95.21 L-505.6 -96.19 L-505.7 -97.17 L-505.8 -98.16 L-505.9 -99.14 L-506 -100.1 L-506.1 -101.1 L-506.2 -102.1 L-506.3 -103.1 L-506.4 -104.1 L-505.5 -104.2 L-504.5 -104.3 L-503.5 -104.4 L-502.5 -104.5 L-501.5 -104.6 L-500.5 -104.7 L-499.6 -104.8 L-498.6 -104.9 L-497.6 -105 L-496.6 -105.1 L-495.6 -105.2 L-494.7 -105.3 L-493.7 -105.4 L-492.7 -105.5 L-491.7 -105.6 L-490.7 -105.7 L-489.7 -105.8 L-488.8 -105.9 L-487.8 -106.1 L-486.8 -106.2 L-485.8 -106.3 L-484.8 -106.4 L-483.8 -106.5 L-482.9 -106.6 L-481.9 -106.7 L-481.8 -105.7 L-481.7 -104.7 L-481.6 -103.7 L-481.5 -102.8 L-481.3 -101.8 L-481.2 -100.8 L-481.1 -99.81 L-481 -98.82 L-480.9 -97.84 L-480.8 -96.86 L-480.7 -95.88 L-480.6 -94.89 L-480.5 -93.91 L-480.4 -92.93 L-480.3 -91.95 L-480.2 -90.96 L-480.1 -89.98 L-480 -89 L-479.9 -88.02 L-479.8 -87.03 L-479.7 -86.05 L-479.6 -85.07 L-479.5 -84.09 L-479.3 -83.1 L-479.2 -82.12 L-480.2 -82.01 L-481.2 -81.91 L-482.2 -81.8 L-483.2 -81.7 L-484.2 -81.59 L-485.1 -81.49 L-486.1 -81.38 L-487.1 -81.28 L-488.1 -81.17 L-489.1 -81.07 L-490.1 -80.96 L-491 -80.86 L-492 -80.75 L-493 -80.64 L-494 -80.54 L-495 -80.43 L-495.9 -80.33 L-496.9 -80.22 L-497.9 -80.12 L-498.9 -80.01 L-499.9 -79.91 L-500.9 -79.8 L-501.8 -79.7 L-502.8 -79.59 L-503.8 -79.49 Z " />
<path stroke="rgb(0,0,0)" stroke-opacity="1" fill="rgb(255,255,255)" fill-opacity="1" d="M0.4118 287.7 L1.398 287.8 L2.377 287.9 L3.343 288.1 L4.29 288.4 L5.212 288.7 L6.103 289.2 L6.957 289.7 L7.769 290.2 L8.534 290.9 L9.247 291.5 L9.904 292.3 L10.5 293.1 L11.03 293.9 L11.49 294.8 L11.89 295.7 L12.21 296.6 L12.45 297.6 L12.62 298.5 L12.71 299.5 L12.72 300.5 L12.65 301.5 L12.51 302.5 L12.29 303.4 L11.99 304.4 L11.62 305.3 L11.18 306.2 L10.66 307 L10.09 307.8 L9.448 308.6 L8.751 309.3 L8.001 309.9 L7.202 310.5 L6.36 311 L5.479 311.4 L4.566 311.8 L3.626 312.1 L2.665 312.3 L1.689 312.5 L0.7044 312.6 L-0.2828 312.6 L-1.266 312.5 L-2.24 312.3 L-3.197 312.1 L-4.132 311.7 L-5.039 311.4 L-5.912 310.9 L-6.746 310.4 L-7.535 309.8 L-8.275 309.1 L-8.96 308.4 L-9.587 307.6 L-10.15 306.8 L-10.65 306 L-11.08 305.1 L-11.43 304.2 L-11.72 303.2 L-11.92 302.3 L-12.05 301.3 L-12.1 300.3 L-12.08 299.3 L-11.97 298.3 L-11.79 297.4 L-11.53 296.4 L-11.19 295.5 L-10.78 294.6 L-10.31 293.7 L-9.761 292.9 L-9.152 292.1 L-8.484 291.4 L-7.76 290.7 L-6.985 290.1 L-6.164 289.6 L-5.302 289.1 L-4.404 288.7 L-3.477 288.3 L-2.525 288.1 L-1.556 287.9 L-0.5749 287.8 L0.4118 287.7 Z " />
<path stroke="rgb(0,0,0)" stroke-opacity="1" fill="rgb(255,255,255)" fill-opacity="1" d="M-288.2 -64.88 L-288.5 -65.83 L-288.8 -66.77 L-289.1 -67.71 L-289.4 -68.65 L-289.7 -69.6 L-290 -70.54 L-290.3 -71.48 L-290.6 -72.42 L-290.9 -73.37 L-291.2 -74.31 L-291.5 -75.25 L-291.8 -76.19 L-292.1 -77.14 L-292.4 -78.08 L-292.7 -79.02 L-293 -79.96 L-293.3 -80.9 L-293.6 -81.85 L-293.9 -82.79 L-294.2 -83.73 L-294.5 -84.67 L-294.8 -85.62 L-295.1 -86.56 L-295.4 -87.5 L-295.7 -88.44 L-294.7 -88.74 L-293.8 -89.04 L-292.8 -89.34 L-291.9 -89.64 L-291 -89.93 L-290 -90.23 L-289.1 -90.53 L-288.1 -90.83 L-287.2 -91.13 L-286.2 -91.43 L-285.3 -91.72 L-284.4 -92.02 L-283.4 -92.32 L-282.5 -92.62 L-281.5 -92.92 L-280.6 -93.22 L-279.6 -93.51 L-278.7 -93.81 L-277.8 -94.11 L-276.8 -94.41 L-275.9 -94.71 L-274.9 -95 L-274 -95.3 L-273 -95.6 L-272.1 -95.9 L-271.8 -94.96 L-271.5 -94.01 L-271.2 -93.07 L-270.9 -92.13 L-270.6 -91.19 L-270.3 -90.24 L-270 -89.3 L-269.7 -88.36 L-269.4 -87.42 L-269.1 -86.48 L-268.8 -85.53 L-268.5 -84.59 L-268.2 -83.65 L-267.9 -82.71 L-267.6 -81.76 L-267.3 -80.82 L-267 -79.88 L-266.7 -78.94 L-266.4 -77.99 L-266.1 -77.05 L-265.8 -76.11 L-265.5 -75.17 L-265.2 -74.22 L-264.9 -73.28 L-264.7 -72.34 L-265.6 -72.04 L-266.5 -71.74 L-267.5 -71.45 L-268.4 -71.15 L-269.4 -70.85 L-270.3 -70.55 L-271.2 -70.25 L-272.2 -69.95 L-273.1 -69.66 L-274.1 -69.36 L-275 -69.06 L-276 -68.76 L-276.9 -68.46 L-277.8 -68.16 L-278.8 -67.87 L-279.7 -67.57 L-280.7 -67.27 L-281.6 -66.97 L-282.6 -66.67 L-283.5 -66.38 L-284.4 -66.08 L-285.4 -65.78 L-286.3 -65.48 L-287.3 -65.18 L-288.2 -64.88 Z " />
<path stroke="rgb(0,0,0)" stroke-opacity="1" fill="rgb(255,255,255)" fill-opacity="1" d="M200.4 287.7 L201.4 287.8 L202.4 287.9 L203.3 288.1 L204.3 288.4 L205.2 288.7 L206.1 289.2 L207 289.7 L207.8 290.2 L208.5 290.9 L209.2 291.5 L209.9 292.3 L210.5 293.1 L211 293.9 L211.5 294.8 L211.9 295.7 L212.2 296.6 L212.5 297.6 L212.6 298.5 L212.7 299.5 L212.7 300.5 L212.7 301.5 L212.5 302.5 L212.3 303.4 L212 304.4 L211.6 305.3 L211.2 306.2 L210.7 307 L210.1 307.8 L209.4 308.6 L208.8 309.3 L208 309.9 L207.2 310.5 L206.4 311 L205.5 311.4 L204.6 311.8 L203.6 312.1 L202.7 312.3 L201.7 312.5 L200.7 312.6 L199.7 312.6 L198.7 312.5 L197.8 312.3 L196.8 312.1 L195.9 311.7 L195 311.4 L194.1 310.9 L193.3 310.4 L192.5 309.8 L191.7 309.1 L191 308.4 L190.4 307.6 L189.8 306.8 L189.4 306 L188.9 305.1 L188.6 304.2 L188.3 303.2 L188.1 302.3 L187.9 301.3 L187.9 300.3 L187.9 299.3 L188 298.3 L188.2 297.4 L188.5 296.4 L188.8 295.5 L189.2 294.6 L189.7 293.7 L190.2 292.9 L190.8 292.1 L191.5 291.4 L192.2 290.7 L193 290.1 L193.8 289.6 L194.7 289.1 L195.6 288.7 L196.5 288.3 L197.5 288.1 L198.4 287.9 L199.4 287.8 L200.4 287.7 Z " />
<path stroke="rgb(0,0,0)" stroke-opacity="1" fill="rgb(255,255,255)" fill-opacity="1" d="M-59.89 -40.56 L-60.5 -41.34 L-61.1 -42.12 L-61.71 -42.9 L-62.32 -43.68 L-62.92 -44.46 L-63.53 -45.24 L-64.13 -46.03 L-64.74 -46.81 L-65.35 -47.59 L-65.95 -48.37 L-66.56 -49.15 L-67.17 -49.93 L-67.77 -50.71 L-68.38 -51.49 L-68.98 -52.27 L-69.59 -53.05 L-70.2 -53.84 L-70.8 -54.62 L-71.41 -55.4 L-72.02 -56.18 L-72.62 -56.96 L-73.23 -57.74 L-73.83 -58.52 L-74.44 -59.3 L-75.05 -60.08 L-74.27 -60.69 L-73.48 -61.3 L-72.7 -61.9 L-71.92 -62.51 L-71.14 -63.12 L-70.36 -63.72 L-69.58 -64.33 L-68.8 -64.93 L-68.02 -65.54 L-67.24 -66.15 L-66.46 -66.75 L-65.67 -67.36 L-64.89 -67.97 L-64.11 -68.57 L-63.33 -69.18 L-62.55 -69.78 L-61.77 -70.39 L-60.99 -71 L-60.21 -71.6 L-59.43 -72.21 L-58.65 -72.82 L-57.86 -73.42 L-57.08 -74.03 L-56.3 -74.63 L-55.52 -75.24 L-54.92 -74.46 L-54.31 -73.68 L-53.7 -72.9 L-53.1 -72.12 L-52.49 -71.34 L-51.88 -70.55 L-51.28 -69.77 L-50.67 -68.99 L-50.07 -68.21 L-49.46 -67.43 L-48.85 -66.65 L-48.25 -65.87 L-47.64 -65.09 L-47.03 -64.31 L-46.43 -63.52 L-45.82 -62.74 L-45.22 -61.96 L-44.61 -61.18 L-44 -60.4 L-43.4 -59.62 L-42.79 -58.84 L-42.18 -58.06 L-41.58 -57.28 L-40.97 -56.5 L-40.36 -55.71 L-41.15 -55.11 L-41.93 -54.5 L-42.71 -53.9 L-43.49 -53.29 L-44.27 -52.68 L-45.05 -52.08 L-45.83 -51.47 L-46.61 -50.86 L-47.39 -50.26 L-48.18 -49.65 L-48.96 -49.05 L-49.74 -48.44 L-50.52 -47.83 L-51.3 -47.23 L-52.08 -46.62 L-52.86 -46.01 L-53.64 -45.41 L-54.42 -44.8 L-55.2 -44.2 L-55.99 -43.59 L-56.77 -42.98 L-57.55 -42.38 L-58.33 -41.77 L-59.11 -41.16 L-59.89 -40.56 Z " />
</g>
</g>
</svg>
