<!DOCTYPE svg>
<svg xmlns="http://www.w3.org/2000/svg" xmlns:xlink="http://www.w3.org/1999/xlink" width="1000" height="1000">
<g transform="translate(500.000000,500.000000)">
<g transform="scale(3.000000,3.000000)">
<path stroke="rgb(0,0,0)" stroke-opacity="1" fill="rgb(255,255,255)" fill-opacity="1" d="M-487.9 -512.5 L-487.9 -511.5 L-487.9 -510.5 L-487.9 -509.5 L-487.9 -508.5 L-487.9 -507.5 L-487.9 -506.5 L-487.9 -505.5 L-487.9 -504.6 L-487.9 -503.6 L-487.9 -502.6 L-487.9 -501.6 L-487.9 -500.6 L-487.9 -499.6 L-487.9 -498.6 L-487.9 -497.6 L-487.9 -496.6 L-487.9 -495.6 L-488 -494.6 L-488 -493.6 L-488 -492.6 L-488 -491.6 L-488 -490.6 L-488 -489.6 L-488 -488.6 L-488 -487.6 L-489 -487.6 L-490 -487.7 L-491 -487.7 L-492 -487.7 L-492.9 -487.7 L-493.9 -487.7 L-494.9 -487.7 L-495.9 -487.7 L-496.9 -487.7 L-497.9 -487.7 L-498.9 -487.7 L-499.9 -487.7 L-500.9 -487.7 L-501.9 -487.7 L-502.9 -487.7 L-503.9 -487.7 L-504.9 -487.7 L-505.9 -487.7 L-506.9 -487.7 L-507.9 -487.7 L-508.9 -487.7 L-509.9 -487.7 L-510.9 -487.7 L-511.8 -487.7 L-512.8 -487.7 L-512.8 -488.7 L-512.8 -489.7 L-512.8 -490.7 L-512.8 -491.7 L-512.8 -492.7 L-512.8 -493.7 L-512.8 -494.7 L-512.8 -495.7 L-512.8 -496.7 L-512.8 -497.7 L-512.8 -498.7 L-512.8 -499.7 L-512.8 -500.7 L-512.8 -501.7 L-512.8 -502.6 L-512.8 -503.6 L-512.8 -504.6 L-512.8 -505.6 L-512.8 -506.6 L-512.8 -507.6 L-512.8 -508.6 L-512.8 -509.6 L-512.8 -510.6 L-512.8 -511.6 L-512.8 -512.6 L-511.8 -512.6 L-510.8 -512.6 L-509.8 -512.6 L-508.8 -512.6 L-507.8 -512.6 L-506.8 -512.6 L-505.8 -512.6 L-504.8 -512.6 L-503.8 -512.6 L-502.8 -512.6 L-501.8 -512.6 L-500.8 -512.6 L-499.8 -512.6 L-498.8 -512.5 L-497.8 -512.5 L-496.8 -512.5 L-495.8 -512.5 L-494.9 -512.5 L-493.9 -512.5 L-492.9 -512.5 L-491.9 -512.5 L-490.9 -512.5 L-489.9 -512.5 L-488.9 -512.5 L-487.9 -512.5 Z " />
<path stroke="rgb(0,0,0)" stroke-opacity="1" fill="rgb(255,255,255)" fill-opacity="1" d="M-197.6 -313 L-196.5 -312.8 L-195.5 -312.5 L-194.5 -312.1 L-193.6 -311.7 L-192.7 -311.2 L-191.8 -310.6 L-190.9 -309.9 L-190.2 -309.2 L-189.5 -308.4 L-188.8 -307.5 L-188.2 -306.7 L-187.7 -305.7 L-187.3 -304.8 L-186.9 -303.8 L-186.7 -302.7 L-186.5 -301.7 L-186.4 -300.6 L-186.4 -299.6 L-186.4 -298.5 L-186.6 -297.4 L-186.8 -296.4 L-187.1 -295.4 L-187.5 -294.4 L-188 -293.5 L-188.5 -292.5 L-189.1 -291.7 L-189.8 -290.9 L-190.6 -290.1 L-191.4 -289.4 L-192.2 -288.8 L-193.1 -288.2 L-194.1 -287.7 L-195 -287.3 L-196.1 -287 L-197.1 -286.7 L-198.1 -286.6 L-199.2 -286.5 L-200.3 -286.5 L-201.3 -286.6 L-202.4 -286.7 L-203.4 -287 L-204.4 -287.3 L-205.4 -287.7 L-206.3 -288.2 L-207.2 -288.8 L-208.1 -289.4 L-208.9 -290.1 L-209.6 -290.9 L-210.3 -291.7 L-210.9 -292.6 L-211.5 -293.5 L-211.9 -294.4 L-212.3 -295.4 L-212.6 -296.4 L-212.9 -297.5 L-213 -298.5 L-213.1 -299.6 L-213 -300.6 L-212.9 -301.7 L-212.7 -302.7 L-212.5 -303.8 L-212.1 -304.8 L-211.7 -305.7 L-211.2 -306.7 L-210.6 -307.6 L-210 -308.4 L-209.2 -309.2 L-208.5 -309.9 L-207.6 -310.6 L-206.8 -311.2 L-205.8 -311.7 L-204.9 -312.1 L-203.9 -312.5 L-202.9 -312.8 L-201.8 -313 L-200.8 -313.1 L-199.7 -313.2 L-198.6 -313.1 L-197.6 -313 Z " />
<path stroke="rgb(0,0,0)" stroke-opacity="1" fill="rgb(255,255,255)" fill-opacity="1" d="M-287.7 -512.3 L-287.7 -511.3 L-287.7 -510.3 L-287.7 -509.3 L-287.7 -508.3 L-287.7 -507.3 L-287.7 -506.3 L-287.7 -505.3 L-287.7 -504.3 L-287.7 -503.3 L-287.7 -502.3 L-287.7 -501.4 L-287.7 -500.4 L-287.7 -499.4 L-287.7 -498.4 L-287.7 -497.4 L-287.7 -496.4 L-287.7 -495.4 L-287.7 -494.4 L-287.7 -493.4 L-287.7 -492.4 L-287.7 -491.4 L-287.7 -490.4 L-287.7 -489.4 L-287.7 -488.4 L-287.7 -487.4 L-288.7 -487.4 L-289.6 -487.4 L-290.6 -487.4 L-291.6 -487.4 L-292.6 -487.4 L-293.6 -487.4 L-294.6 -487.4 L-295.6 -487.4 L-296.6 -487.4 L-297.6 -487.4 L-298.6 -487.4 L-299.6 -487.4 L-300.6 -487.4 L-301.6 -487.4 L-302.6 -487.4 L-303.6 -487.4 L-304.6 -487.4 L-305.6 -487.4 L-306.6 -487.4 L-307.5 -487.4 L-308.5 -487.4 L-309.5 -487.4 L-310.5 -487.4 L-311.5 -487.4 L-312.5 -487.4 L-312.5 -488.4 L-312.5 -489.4 L-312.5 -490.4 L-312.5 -491.4 L-312.5 -492.4 L-312.5 -493.4 L-312.5 -494.4 L-312.5 -495.4 L-312.5 -496.4 L-312.5 -497.4 L-312.5 -498.3 L-312.5 -499.3 L-312.5 -500.3 L-312.5 -501.3 L-312.5 -502.3 L-312.5 -503.3 L-312.5 -504.3 L-312.5 -505.3 L-312.5 -506.3 L-312.5 -507.3 L-312.5 -508.3 L-312.5 -509.3 L-312.5 -510.3 L-312.5 -511.3 L-312.5 -512.3 L-311.5 -512.3 L-310.6 -512.3 L-309.6 -512.3 L-308.6 -512.3 L-307.6 -512.3 L-306.6 -512.3 L-305.6 -512.3 L-304.6 -512.3 L-303.6 -512.3 L-302.6 -512.3 L-301.6 -512.3 L-300.6 -512.3 L-299.6 -512.3 L-298.6 -512.3 L-297.6 -512.3 L-296.6 -512.3 L-295.6 -512.3 L-294.6 -512.3 L-293.6 -512.3 L-292.6 -512.3 L-291.7 -512.3 L-290.7 -512.3 L-289.7 -512.3 L-288.7 -512.3 L-287.7 -512.3 Z " />
<path stroke="rgb(0,0,0)" stroke-opacity="1" fill="rgb(255,255,255)" fill-opacity="1" d="M0.364 -312.3 L1.354 -312.3 L2.338 -312.1 L3.309 -311.9 L4.261 -311.7 L5.188 -311.3 L6.084 -310.9 L6.944 -310.4 L7.762 -309.8 L8.533 -309.2 L9.251 -308.5 L9.914 -307.8 L10.52 -307 L11.05 -306.2 L11.52 -305.3 L11.92 -304.4 L12.24 -303.5 L12.49 -302.5 L12.67 -301.5 L12.76 -300.5 L12.78 -299.5 L12.71 -298.6 L12.57 -297.6 L12.35 -296.6 L12.06 -295.7 L11.69 -294.7 L11.25 -293.9 L10.73 -293 L10.16 -292.2 L9.52 -291.4 L8.823 -290.7 L8.072 -290.1 L7.272 -289.5 L6.429 -289 L5.546 -288.5 L4.63 -288.1 L3.688 -287.8 L2.723 -287.6 L1.744 -287.5 L0.7554 -287.4 L-0.2359 -287.4 L-1.224 -287.5 L-2.202 -287.6 L-3.164 -287.9 L-4.104 -288.2 L-5.017 -288.6 L-5.896 -289 L-6.735 -289.6 L-7.53 -290.2 L-8.275 -290.8 L-8.966 -291.5 L-9.598 -292.3 L-10.17 -293.1 L-10.67 -293.9 L-11.11 -294.8 L-11.47 -295.8 L-11.75 -296.7 L-11.97 -297.7 L-12.1 -298.7 L-12.15 -299.6 L-12.13 -300.6 L-12.03 -301.6 L-11.85 -302.6 L-11.59 -303.6 L-11.26 -304.5 L-10.85 -305.4 L-10.37 -306.3 L-9.831 -307.1 L-9.223 -307.9 L-8.555 -308.6 L-7.83 -309.3 L-7.054 -309.9 L-6.232 -310.5 L-5.368 -310.9 L-4.468 -311.4 L-3.538 -311.7 L-2.584 -312 L-1.611 -312.2 L-0.6267 -312.3 L0.364 -312.3 Z " />
<path stroke="rgb(0,0,0)" stroke-opacity="1" fill="rgb(255,255,255)" fill-opacity="1" d="M-85.58 -510.2 L-85.54 -509.2 L-85.5 -508.2 L-85.46 -507.2 L-85.42 -506.2 L-85.38 -505.2 L-85.34 -504.2 L-85.29 -503.2 L-85.25 -502.2 L-85.21 -501.2 L-85.17 -500.2 L-85.13 -499.3 L-85.09 -498.3 L-85.05 -497.3 L-85 -496.3 L-84.96 -495.3 L-84.92 -494.3 L-84.88 -493.3 L-84.84 -492.3 L-84.8 -491.3 L-84.75 -490.3 L-84.71 -489.3 L-84.67 -488.3 L-84.63 -487.3 L-84.59 -486.3 L-84.55 -485.3 L-85.54 -485.3 L-86.53 -485.3 L-87.53 -485.2 L-88.52 -485.2 L-89.52 -485.1 L-90.51 -485.1 L-91.5 -485 L-92.5 -485 L-93.49 -485 L-94.49 -484.9 L-95.48 -484.9 L-96.47 -484.8 L-97.47 -484.8 L-98.46 -484.8 L-99.45 -484.7 L-100.4 -484.7 L-101.4 -484.6 L-102.4 -484.6 L-103.4 -484.6 L-104.4 -484.5 L-105.4 -484.5 L-106.4 -484.4 L-107.4 -484.4 L-108.4 -484.3 L-109.4 -484.3 L-109.4 -485.3 L-109.5 -486.3 L-109.5 -487.3 L-109.6 -488.3 L-109.6 -489.3 L-109.6 -490.3 L-109.7 -491.3 L-109.7 -492.3 L-109.8 -493.2 L-109.8 -494.2 L-109.8 -495.2 L-109.9 -496.2 L-109.9 -497.2 L-110 -498.2 L-110 -499.2 L-110.1 -500.2 L-110.1 -501.2 L-110.1 -502.2 L-110.2 -503.2 L-110.2 -504.2 L-110.3 -505.2 L-110.3 -506.2 L-110.3 -507.2 L-110.4 -508.2 L-110.4 -509.1 L-109.4 -509.2 L-108.4 -509.2 L-107.4 -509.3 L-106.5 -509.3 L-105.5 -509.4 L-104.5 -509.4 L-103.5 -509.4 L-102.5 -509.5 L-101.5 -509.5 L-100.5 -509.6 L-99.5 -509.6 L-98.5 -509.6 L-97.51 -509.7 L-96.52 -509.7 L-95.52 -509.8 L-94.53 -509.8 L-93.54 -509.9 L-92.54 -509.9 L-91.55 -509.9 L-90.55 -510 L-89.56 -510 L-88.57 -510.1 L-87.57 -510.1 L-86.58 -510.1 L-85.58 -510.2 Z " />
<path stroke="rgb(0,0,0)" stroke-opacity="1" fill="rgb(255,255,255)" fill-opacity="1" d="M200.4 -312.3 L201.3 -312.3 L202.3 -312.1 L203.3 -311.9 L204.3 -311.7 L205.2 -311.3 L206.1 -310.9 L206.9 -310.4 L207.8 -309.8 L208.5 -309.2 L209.2 -308.5 L209.9 -307.8 L210.5 -307 L211 -306.2 L211.5 -305.3 L211.9 -304.4 L212.2 -303.5 L212.5 -302.5 L212.7 -301.5 L212.8 -300.5 L212.8 -299.5 L212.7 -298.6 L212.6 -297.6 L212.4 -296.6 L212.1 -295.7 L211.7 -294.7 L211.2 -293.9 L210.7 -293 L210.2 -292.2 L209.5 -291.4 L208.8 -290.7 L208.1 -290.1 L207.3 -289.5 L206.4 -289 L205.6 -288.5 L204.6 -288.2 L203.7 -287.8 L202.7 -287.6 L201.7 -287.5 L200.8 -287.4 L199.8 -287.4 L198.8 -287.5 L197.8 -287.6 L196.8 -287.9 L195.9 -288.2 L195 -288.6 L194.1 -289 L193.3 -289.6 L192.5 -290.1 L191.7 -290.8 L191 -291.5 L190.4 -292.3 L189.8 -293.1 L189.3 -293.9 L188.9 -294.8 L188.5 -295.8 L188.2 -296.7 L188 -297.7 L187.9 -298.7 L187.8 -299.6 L187.9 -300.6 L188 -301.6 L188.2 -302.6 L188.4 -303.6 L188.7 -304.5 L189.1 -305.4 L189.6 -306.3 L190.2 -307.1 L190.8 -307.9 L191.4 -308.6 L192.2 -309.3 L192.9 -309.9 L193.8 -310.5 L194.6 -310.9 L195.5 -311.4 L196.5 -311.7 L197.4 -312 L198.4 -312.2 L199.4 -312.3 L200.4 -312.3 Z " />
<path stroke="rgb(0,0,0)" stroke-opacity="1" fill="rgb(255,255,255)" fill-opacity="1" d="M120.5 -503.8 L120.7 -502.8 L120.8 -501.8 L121 -500.8 L121.2 -499.9 L121.3 -498.9 L121.5 -497.9 L121.6 -496.9 L121.8 -495.9 L122 -494.9 L122.1 -494 L122.3 -493 L122.5 -492 L122.6 -491 L122.8 -490 L122.9 -489.1 L123.1 -488.1 L123.3 -487.1 L123.4 -486.1 L123.6 -485.1 L123.7 -484.2 L123.9 -483.2 L124.1 -482.2 L124.2 -481.2 L124.4 -480.2 L124.6 -479.2 L123.6 -479.1 L122.6 -478.9 L121.6 -478.8 L120.6 -478.6 L119.6 -478.4 L118.7 -478.3 L117.7 -478.1 L116.7 -478 L115.7 -477.8 L114.7 -477.6 L113.8 -477.5 L112.8 -477.3 L111.8 -477.1 L110.8 -477 L109.8 -476.8 L108.9 -476.7 L107.9 -476.5 L106.9 -476.3 L105.9 -476.2 L104.9 -476 L103.9 -475.8 L103 -475.7 L102 -475.5 L101 -475.4 L100 -475.2 L99.86 -476.2 L99.69 -477.2 L99.53 -478.1 L99.37 -479.1 L99.21 -480.1 L99.05 -481.1 L98.89 -482.1 L98.72 -483.1 L98.56 -484 L98.4 -485 L98.24 -486 L98.08 -487 L97.92 -488 L97.75 -488.9 L97.59 -489.9 L97.43 -490.9 L97.27 -491.9 L97.11 -492.9 L96.94 -493.9 L96.78 -494.8 L96.62 -495.8 L96.46 -496.8 L96.3 -497.8 L96.14 -498.8 L95.97 -499.7 L96.96 -499.9 L97.94 -500.1 L98.92 -500.2 L99.9 -500.4 L100.9 -500.5 L101.9 -500.7 L102.8 -500.9 L103.8 -501 L104.8 -501.2 L105.8 -501.4 L106.8 -501.5 L107.8 -501.7 L108.7 -501.8 L109.7 -502 L110.7 -502.2 L111.7 -502.3 L112.7 -502.5 L113.6 -502.7 L114.6 -502.8 L115.6 -503 L116.6 -503.1 L117.6 -503.3 L118.5 -503.5 L119.5 -503.6 L120.5 -503.8 Z " />
<path stroke="rgb(0,0,0)" stroke-opacity="1" fill="rgb(255,255,255)" fill-opacity="1" d="M-297.6 -213 L-296.5 -212.8 L-295.5 -212.5 L-294.5 -212.1 L-293.6 -211.7 L-292.7 -211.2 L-291.8 -210.6 L-290.9 -209.9 L-290.2 -209.2 L-289.5 -208.4 L-288.8 -207.5 L-288.2 -206.7 L-287.7 -205.7 L-287.3 -204.8 L-286.9 -203.8 L-286.7 -202.7 L-286.5 -201.7 L-286.4 -200.6 L-286.4 -199.6 L-286.4 -198.5 L-286.6 -197.4 L-286.8 -196.4 L-287.1 -195.4 L-287.5 -194.4 L-288 -193.5 L-288.5 -192.5 L-289.1 -191.7 L-289.8 -190.9 L-290.6 -190.1 L-291.4 -189.4 L-292.2 -188.8 L-293.1 -188.2 L-294.1 -187.7 L-295 -187.3 L-296.1 -187 L-297.1 -186.7 L-298.1 -186.6 L-299.2 -186.5 L-300.3 -186.5 L-301.3 -186.6 L-302.4 -186.7 L-303.4 -187 L-304.4 -187.3 L-305.4 -187.7 L-306.3 -188.2 L-307.2 -188.8 L-308.1 -189.4 L-308.9 -190.1 L-309.6 -190.9 L-310.3 -191.7 L-310.9 -192.6 L-311.5 -193.5 L-311.9 -194.4 L-312.3 -195.4 L-312.6 -196.4 L-312.9 -197.5 L-313 -198.5 L-313.1 -199.6 L-313 -200.6 L-312.9 -201.7 L-312.7 -202.7 L-312.5 -203.8 L-312.1 -204.8 L-311.7 -205.7 L-311.2 -206.7 L-310.6 -207.6 L-310 -208.4 L-309.2 -209.2 L-308.5 -209.9 L-307.6 -210.6 L-306.8 -211.2 L-305.8 -211.7 L-304.9 -212.1 L-303.9 -212.5 L-302.9 -212.8 L-301.8 -213 L-300.8 -213.1 L-299.7 -213.2 L-298.6 -213.1 L-297.6 -213 Z " />
<path stroke="rgb(0,0,0)" stroke-opacity="1" fill="rgb(255,255,255)" fill-opacity="1" d="M-387.7 -412.3 L-387.7 -411.3 L-387.7 -410.3 L-387.7 -409.3 L-387.7 -408.3 L-387.7 -407.3 L-387.7 -406.3 L-387.7 -405.3 L-387.7 -404.3 L-387.7 -403.3 L-387.7 -402.3 L-387.7 -401.4 L-387.7 -400.4 L-387.7 -399.4 L-387.7 -398.4 L-387.7 -397.4 L-387.7 -396.4 L-387.7 -395.4 L-387.7 -394.4 L-387.7 -393.4 L-387.7 -392.4 L-387.7 -391.4 L-387.7 -390.4 L-387.7 -389.4 L-387.7 -388.4 L-387.7 -387.4 L-388.7 -387.4 L-389.6 -387.4 L-390.6 -387.4 L-391.6 -387.4 L-392.6 -387.4 L-393.6 -387.4 L-394.6 -387.4 L-395.6 -387.4 L-396.6 -387.4 L-397.6 -387.4 L-398.6 -387.4 L-399.6 -387.4 L-400.6 -387.4 L-401.6 -387.4 L-402.6 -387.4 L-403.6 -387.4 L-404.6 -387.4 L-405.6 -387.4 L-406.6 -387.4 L-407.5 -387.4 L-408.5 -387.4 L-409.5 -387.4 L-410.5 -387.4 L-411.5 -387.4 L-412.5 -387.4 L-412.5 -388.4 L-412.5 -389.4 L-412.5 -390.4 L-412.5 -391.4 L-412.5 -392.4 L-412.5 -393.4 L-412.5 -394.4 L-412.5 -395.4 L-412.5 -396.4 L-412.5 -397.4 L-412.5 -398.3 L-412.5 -399.3 L-412.5 -400.3 L-412.5 -401.3 L-412.5 -402.3 L-412.5 -403.3 L-412.5 -404.3 L-412.5 -405.3 L-412.5 -406.3 L-412.5 -407.3 L-412.5 -408.3 L-412.5 -409.3 L-412.5 -410.3 L-412.5 -411.3 L-412.5 -412.3 L-411.5 -412.3 L-410.6 -412.3 L-409.6 -412.3 L-408.6 -412.3 L-407.6 -412.3 L-406.6 -412.3 L-405.6 -412.3 L-404.6 -412.3 L-403.6 -412.3 L-402.6 -412.3 L-401.6 -412.3 L-400.6 -412.3 L-399.6 -412.3 L-398.6 -412.3 L-397.6 -412.3 L-396.6 -412.3 L-395.6 -412.3 L-394.6 -412.3 L-393.6 -412.3 L-392.6 -412.3 L-391.7 -412.3 L-390.7 -412.3 L-389.7 -412.3 L-388.7 -412.3 L-387.7 -412.3 Z " />
<path stroke="rgb(0,0,0)" stroke-opacity="1" fill="rgb(255,255,255)" fill-opacity="1" d="M-99.64 -212.3 L-98.65 -212.3 L-97.66 -212.1 L-96.69 -211.9 L-95.74 -211.7 L-94.81 -211.3 L-93.92 -210.9 L-93.06 -210.4 L-92.24 -209.8 L-91.47 -209.2 L-90.75 -208.5 L-90.09 -207.8 L-89.48 -207 L-88.95 -206.2 L-88.48 -205.3 L-88.08 -204.4 L-87.76 -203.5 L-87.51 -202.5 L-87.33 -201.5 L-87.24 -200.5 L-87.22 -199.5 L-87.29 -198.6 L-87.43 -197.6 L-87.65 -196.6 L-87.94 -195.7 L-88.31 -194.7 L-88.75 -193.9 L-89.27 -193 L-89.84 -192.2 L-90.48 -191.4 L-91.18 -190.7 L-91.93 -190.1 L-92.73 -189.5 L-93.57 -189 L-94.45 -188.5 L-95.37 -188.1 L-96.31 -187.8 L-97.28 -187.6 L-98.26 -187.5 L-99.24 -187.4 L-100.2 -187.4 L-101.2 -187.5 L-102.2 -187.6 L-103.2 -187.9 L-104.1 -188.2 L-105 -188.6 L-105.9 -189 L-106.7 -189.6 L-107.5 -190.2 L-108.3 -190.8 L-109 -191.5 L-109.6 -192.3 L-110.2 -193.1 L-110.7 -193.9 L-111.1 -194.8 L-111.5 -195.8 L-111.8 -196.7 L-112 -197.7 L-112.1 -198.7 L-112.2 -199.6 L-112.1 -200.6 L-112 -201.6 L-111.8 -202.6 L-111.6 -203.6 L-111.3 -204.5 L-110.9 -205.4 L-110.4 -206.3 L-109.8 -207.1 L-109.2 -207.9 L-108.6 -208.6 L-107.8 -209.3 L-107.1 -209.9 L-106.2 -210.5 L-105.4 -210.9 L-104.5 -211.4 L-103.5 -211.7 L-102.6 -212 L-101.6 -212.2 L-100.6 -212.3 L-99.64 -212.3 Z " />
<path stroke="rgb(0,0,0)" stroke-opacity="1" fill="rgb(255,255,255)" fill-opacity="1" d="M-185.6 -410.2 L-185.5 -409.2 L-185.5 -408.2 L-185.5 -407.2 L-185.4 -406.2 L-185.4 -405.2 L-185.3 -404.2 L-185.3 -403.2 L-185.3 -402.2 L-185.2 -401.2 L-185.2 -400.2 L-185.1 -399.3 L-185.1 -398.3 L-185 -397.3 L-185 -396.3 L-185 -395.3 L-184.9 -394.3 L-184.9 -393.3 L-184.8 -392.3 L-184.8 -391.3 L-184.8 -390.3 L-184.7 -389.3 L-184.7 -388.3 L-184.6 -387.3 L-184.6 -386.3 L-184.5 -385.3 L-185.5 -385.3 L-186.5 -385.3 L-187.5 -385.2 L-188.5 -385.2 L-189.5 -385.1 L-190.5 -385.1 L-191.5 -385 L-192.5 -385 L-193.5 -385 L-194.5 -384.9 L-195.5 -384.9 L-196.5 -384.8 L-197.5 -384.8 L-198.5 -384.8 L-199.5 -384.7 L-200.4 -384.7 L-201.4 -384.6 L-202.4 -384.6 L-203.4 -384.6 L-204.4 -384.5 L-205.4 -384.5 L-206.4 -384.4 L-207.4 -384.4 L-208.4 -384.3 L-209.4 -384.3 L-209.4 -385.3 L-209.5 -386.3 L-209.5 -387.3 L-209.6 -388.3 L-209.6 -389.3 L-209.6 -390.3 L-209.7 -391.3 L-209.7 -392.3 L-209.8 -393.2 L-209.8 -394.2 L-209.8 -395.2 L-209.9 -396.2 L-209.9 -397.2 L-210 -398.2 L-210 -399.2 L-210.1 -400.2 L-210.1 -401.2 L-210.1 -402.2 L-210.2 -403.2 L-210.2 -404.2 L-210.3 -405.2 L-210.3 -406.2 L-210.3 -407.2 L-210.4 -408.2 L-210.4 -409.1 L-209.4 -409.2 L-208.4 -409.2 L-207.4 -409.3 L-206.5 -409.3 L-205.5 -409.4 L-204.5 -409.4 L-203.5 -409.4 L-202.5 -409.5 L-201.5 -409.5 L-200.5 -409.6 L-199.5 -409.6 L-198.5 -409.6 L-197.5 -409.7 L-196.5 -409.7 L-195.5 -409.8 L-194.5 -409.8 L-193.5 -409.9 L-192.5 -409.9 L-191.5 -409.9 L-190.6 -410 L-189.6 -410 L-188.6 -410.1 L-187.6 -410.1 L-186.6 -410.1 L-185.6 -410.2 Z " />
<path stroke="rgb(0,0,0)" stroke-opacity="1" fill="rgb(255,255,255)" fill-opacity="1" d="M100.4 -212.3 L101.3 -212.3 L102.3 -212.1 L103.3 -211.9 L104.3 -211.7 L105.2 -211.3 L106.1 -210.9 L106.9 -210.4 L107.8 -209.8 L108.5 -209.2 L109.2 -208.5 L109.9 -207.8 L110.5 -207 L111 -206.2 L111.5 -205.3 L111.9 -204.4 L112.2 -203.5 L112.5 -202.5 L112.7 -201.5 L112.8 -200.5 L112.8 -199.5 L112.7 -198.6 L112.6 -197.6 L112.4 -196.6 L112.1 -195.7 L111.7 -194.7 L111.2 -193.9 L110.7 -193 L110.2 -192.2 L109.5 -191.4 L108.8 -190.7 L108.1 -190.1 L107.3 -189.5 L106.4 -189 L105.6 -188.5 L104.6 -188.2 L103.7 -187.8 L102.7 -187.6 L101.7 -187.5 L100.8 -187.4 L99.77 -187.4 L98.78 -187.5 L97.8 -187.6 L96.84 -187.9 L95.9 -188.2 L94.99 -188.6 L94.11 -189 L93.27 -189.6 L92.48 -190.1 L91.73 -190.8 L91.04 -191.5 L90.41 -192.3 L89.84 -193.1 L89.33 -193.9 L88.9 -194.8 L88.54 -195.8 L88.25 -196.7 L88.04 -197.7 L87.9 -198.7 L87.85 -199.6 L87.87 -200.6 L87.97 -201.6 L88.15 -202.6 L88.41 -203.6 L88.74 -204.5 L89.15 -205.4 L89.62 -206.3 L90.17 -207.1 L90.78 -207.9 L91.44 -208.6 L92.17 -209.3 L92.94 -209.9 L93.76 -210.5 L94.63 -210.9 L95.53 -211.4 L96.46 -211.7 L97.41 -212 L98.38 -212.2 L99.37 -212.3 L100.4 -212.3 Z " />
<path stroke="rgb(0,0,0)" stroke-opacity="1" fill="rgb(255,255,255)" fill-opacity="1" d="M20.51 -403.8 L20.67 -402.8 L20.84 -401.8 L21 -400.8 L21.16 -399.9 L21.32 -398.9 L21.48 -397.9 L21.64 -396.9 L21.81 -395.9 L21.97 -394.9 L22.13 -394 L22.29 -393 L22.45 -392 L22.61 -391 L22.78 -390 L22.94 -389.1 L23.1 -388.1 L23.26 -387.1 L23.42 -386.1 L23.58 -385.1 L23.75 -384.2 L23.91 -383.2 L24.07 -382.2 L24.23 -381.2 L24.39 -380.2 L24.55 -379.2 L23.57 -379.1 L22.59 -378.9 L21.61 -378.8 L20.63 -378.6 L19.65 -378.4 L18.67 -378.3 L17.68 -378.1 L16.7 -378 L15.72 -377.8 L14.74 -377.6 L13.76 -377.5 L12.78 -377.3 L11.8 -377.1 L10.81 -377 L9.832 -376.8 L8.851 -376.7 L7.869 -376.5 L6.888 -376.3 L5.906 -376.2 L4.925 -376 L3.943 -375.8 L2.962 -375.7 L1.98 -375.5 L0.9986 -375.4 L0.01706 -375.2 L-0.1446 -376.2 L-0.3063 -377.2 L-0.468 -378.1 L-0.6297 -379.1 L-0.7914 -380.1 L-0.9531 -381.1 L-1.115 -382.1 L-1.276 -383.1 L-1.438 -384 L-1.6 -385 L-1.762 -386 L-1.923 -387 L-2.085 -388 L-2.247 -388.9 L-2.408 -389.9 L-2.57 -390.9 L-2.732 -391.9 L-2.893 -392.9 L-3.055 -393.9 L-3.217 -394.8 L-3.378 -395.8 L-3.54 -396.8 L-3.702 -397.8 L-3.864 -398.8 L-4.025 -399.7 L-3.044 -399.9 L-2.062 -400.1 L-1.081 -400.2 L-0.09921 -400.4 L0.8823 -400.5 L1.864 -400.7 L2.845 -400.9 L3.827 -401 L4.808 -401.2 L5.79 -401.4 L6.771 -401.5 L7.753 -401.7 L8.734 -401.8 L9.716 -402 L10.7 -402.2 L11.68 -402.3 L12.66 -402.5 L13.64 -402.7 L14.62 -402.8 L15.6 -403 L16.59 -403.1 L17.57 -403.3 L18.55 -403.5 L19.53 -403.6 L20.51 -403.8 Z " />
<path stroke="rgb(0,0,0)" stroke-opacity="1" fill="rgb(255,255,255)" fill-opacity="1" d="M300.4 -212.3 L301.3 -212.3 L302.3 -212.1 L303.3 -211.9 L304.3 -211.7 L305.2 -211.3 L306.1 -210.9 L306.9 -210.4 L307.8 -209.8 L308.5 -209.2 L309.2 -208.5 L309.9 -207.8 L310.5 -207 L311 -206.2 L311.5 -205.3 L311.9 -204.4 L312.2 -203.5 L312.5 -202.5 L312.7 -201.5 L312.8 -200.5 L312.8 -199.5 L312.7 -198.6 L312.6 -197.6 L312.4 -196.6 L312.1 -195.7 L311.7 -194.7 L311.2 -193.9 L310.7 -193 L310.2 -192.2 L309.5 -191.4 L308.8 -190.7 L308.1 -190.1 L307.3 -189.5 L306.4 -189 L305.6 -188.5 L304.6 -188.2 L303.7 -187.8 L302.7 -187.6 L301.7 -187.5 L300.8 -187.4 L299.8 -187.4 L298.8 -187.5 L297.8 -187.6 L296.8 -187.9 L295.9 -188.2 L295 -188.6 L294.1 -189 L293.3 -189.6 L292.5 -190.1 L291.7 -190.8 L291 -191.5 L290.4 -192.3 L289.8 -193.1 L289.3 -193.9 L288.9 -194.8 L288.5 -195.8 L288.2 -196.7 L288 -197.7 L287.9 -198.7 L287.8 -199.6 L287.9 -200.6 L288 -201.6 L288.2 -202.6 L288.4 -203.6 L288.7 -204.5 L289.1 -205.4 L289.6 -206.3 L290.2 -207.1 L290.8 -207.9 L291.4 -208.6 L292.2 -209.3 L292.9 -209.9 L293.8 -210.5 L294.6 -210.9 L295.5 -211.4 L296.5 -211.7 L297.4 -212 L298.4 -212.2 L299.4 -212.3 L300.4 -212.3 Z " />
<path stroke="rgb(0,0,0)" stroke-opacity="1" fill="rgb(255,255,255)" fill-opacity="1" d="M-487.7 -312.3 L-487.7 -311.3 L-487.7 -310.3 L-487.7 -309.3 L-487.7 -308.3 L-487.7 -307.3 L-487.7 -306.3 L-487.7 -305.3 L-487.7 -304.3 L-487.7 -303.3 L-487.7 -302.3 L-487.7 -301.4 L-487.7 -300.4 L-487.7 -299.4 L-487.7 -298.4 L-487.7 -297.4 L-487.7 -296.4 L-487.7 -295.4 L-487.7 -294.4 L-487.7 -293.4 L-487.7 -292.4 L-487.7 -291.4 L-487.7 -290.4 L-487.7 -289.4 L-487.7 -288.4 L-487.7 -287.4 L-488.7 -287.4 L-489.6 -287.4 L-490.6 -287.4 L-491.6 -287.4 L-492.6 -287.4 L-493.6 -287.4 L-494.6 -287.4 L-495.6 -287.4 L-496.6 -287.4 L-497.6 -287.4 L-498.6 -287.4 L-499.6 -287.4 L-500.6 -287.4 L-501.6 -287.4 L-502.6 -287.4 L-503.6 -287.4 L-504.6 -287.4 L-505.6 -287.4 L-506.6 -287.4 L-507.5 -287.4 L-508.5 -287.4 L-509.5 -287.4 L-510.5 -287.4 L-511.5 -287.4 L-512.5 -287.4 L-512.5 -288.4 L-512.5 -289.4 L-512.5 -290.4 L-512.5 -291.4 L-512.5 -292.4 L-512.5 -293.4 L-512.5 -294.4 L-512.5 -295.4 L-512.5 -296.4 L-512.5 -297.4 L-512.5 -298.3 L-512.5 -299.3 L-512.5 -300.3 L-512.5 -301.3 L-512.5 -302.3 L-512.5 -303.3 L-512.5 -304.3 L-512.5 -305.3 L-512.5 -306.3 L-512.5 -307.3 L-512.5 -308.3 L-512.5 -309.3 L-512.5 -310.3 L-512.5 -311.3 L-512.5 -312.3 L-511.5 -312.3 L-510.6 -312.3 L-509.6 -312.3 L-508.6 -312.3 L-507.6 -312.3 L-506.6 -312.3 L-505.6 -312.3 L-504.6 -312.3 L-503.6 -312.3 L-502.6 -312.3 L-501.6 -312.3 L-500.6 -312.3 L-499.6 -312.3 L-498.6 -312.3 L-497.6 -312.3 L-496.6 -312.3 L-495.6 -312.3 L-494.6 -312.3 L-493.6 -312.3 L-492.6 -312.3 L-491.7 -312.3 L-490.7 -312.3 L-489.7 -312.3 L-488.7 -312.3 L-487.7 -312.3 Z " />
<path stroke="rgb(0,0,0)" stroke-opacity="1" fill="rgb(255,255,255)" fill-opacity="1" d="M-199.6 -112.3 L-198.6 -112.3 L-197.7 -112.1 L-196.7 -111.9 L-195.7 -111.7 L-194.8 -111.3 L-193.9 -110.9 L-193.1 -110.4 L-192.2 -109.8 L-191.5 -109.2 L-190.7 -108.5 L-190.1 -107.8 L-189.5 -107 L-188.9 -106.2 L-188.5 -105.3 L-188.1 -104.4 L-187.8 -103.5 L-187.5 -102.5 L-187.3 -101.5 L-187.2 -100.5 L-187.2 -99.54 L-187.3 -98.55 L-187.4 -97.57 L-187.6 -96.61 L-187.9 -95.66 L-188.3 -94.74 L-188.8 -93.85 L-189.3 -93 L-189.8 -92.2 L-190.5 -91.44 L-191.2 -90.73 L-191.9 -90.09 L-192.7 -89.5 L-193.6 -88.98 L-194.5 -88.53 L-195.4 -88.15 L-196.3 -87.84 L-197.3 -87.61 L-198.3 -87.46 L-199.2 -87.38 L-200.2 -87.39 L-201.2 -87.47 L-202.2 -87.63 L-203.2 -87.87 L-204.1 -88.19 L-205 -88.57 L-205.9 -89.03 L-206.7 -89.56 L-207.5 -90.15 L-208.3 -90.81 L-209 -91.52 L-209.6 -92.28 L-210.2 -93.09 L-210.7 -93.94 L-211.1 -94.84 L-211.5 -95.76 L-211.8 -96.71 L-212 -97.68 L-212.1 -98.66 L-212.2 -99.65 L-212.1 -100.6 L-212 -101.6 L-211.8 -102.6 L-211.6 -103.6 L-211.3 -104.5 L-210.9 -105.4 L-210.4 -106.3 L-209.8 -107.1 L-209.2 -107.9 L-208.6 -108.6 L-207.8 -109.3 L-207.1 -109.9 L-206.2 -110.5 L-205.4 -110.9 L-204.5 -111.4 L-203.5 -111.7 L-202.6 -112 L-201.6 -112.2 L-200.6 -112.3 L-199.6 -112.3 Z " />
<path stroke="rgb(0,0,0)" stroke-opacity="1" fill="rgb(255,255,255)" fill-opacity="1" d="M-285.6 -310.2 L-285.5 -309.2 L-285.5 -308.2 L-285.5 -307.2 L-285.4 -306.2 L-285.4 -305.2 L-285.3 -304.2 L-285.3 -303.2 L-285.3 -302.2 L-285.2 -301.2 L-285.2 -300.2 L-285.1 -299.3 L-285.1 -298.3 L-285 -297.3 L-285 -296.3 L-285 -295.3 L-284.9 -294.3 L-284.9 -293.3 L-284.8 -292.3 L-284.8 -291.3 L-284.8 -290.3 L-284.7 -289.3 L-284.7 -288.3 L-284.6 -287.3 L-284.6 -286.3 L-284.5 -285.3 L-285.5 -285.3 L-286.5 -285.3 L-287.5 -285.2 L-288.5 -285.2 L-289.5 -285.1 L-290.5 -285.1 L-291.5 -285 L-292.5 -285 L-293.5 -285 L-294.5 -284.9 L-295.5 -284.9 L-296.5 -284.8 L-297.5 -284.8 L-298.5 -284.8 L-299.5 -284.7 L-300.4 -284.7 L-301.4 -284.6 L-302.4 -284.6 L-303.4 -284.6 L-304.4 -284.5 L-305.4 -284.5 L-306.4 -284.4 L-307.4 -284.4 L-308.4 -284.3 L-309.4 -284.3 L-309.4 -285.3 L-309.5 -286.3 L-309.5 -287.3 L-309.6 -288.3 L-309.6 -289.3 L-309.6 -290.3 L-309.7 -291.3 L-309.7 -292.3 L-309.8 -293.2 L-309.8 -294.2 L-309.8 -295.2 L-309.9 -296.2 L-309.9 -297.2 L-310 -298.2 L-310 -299.2 L-310.1 -300.2 L-310.1 -301.2 L-310.1 -302.2 L-310.2 -303.2 L-310.2 -304.2 L-310.3 -305.2 L-310.3 -306.2 L-310.3 -307.2 L-310.4 -308.2 L-310.4 -309.1 L-309.4 -309.2 L-308.4 -309.2 L-307.4 -309.3 L-306.5 -309.3 L-305.5 -309.4 L-304.5 -309.4 L-303.5 -309.4 L-302.5 -309.5 L-301.5 -309.5 L-300.5 -309.6 L-299.5 -309.6 L-298.5 -309.6 L-297.5 -309.7 L-296.5 -309.7 L-295.5 -309.8 L-294.5 -309.8 L-293.5 -309.9 L-292.5 -309.9 L-291.5 -309.9 L-290.6 -310 L-289.6 -310 L-288.6 -310.1 L-287.6 -310.1 L-286.6 -310.1 L-285.6 -310.2 Z " />
<path stroke="rgb(0,0,0)" stroke-opacity="1" fill="rgb(255,255,255)" fill-opacity="1" d="M0.3584 -112.3 L1.349 -112.3 L2.332 -112.1 L3.303 -111.9 L4.255 -111.7 L5.182 -111.3 L6.078 -110.9 L6.938 -110.4 L7.756 -109.8 L8.527 -109.2 L9.246 -108.5 L9.908 -107.8 L10.51 -107 L11.05 -106.2 L11.52 -105.3 L11.92 -104.4 L12.24 -103.5 L12.49 -102.5 L12.66 -101.5 L12.76 -100.5 L12.77 -99.55 L12.71 -98.56 L12.57 -97.58 L12.35 -96.61 L12.06 -95.67 L11.69 -94.75 L11.25 -93.86 L10.74 -93.01 L10.16 -92.2 L9.522 -91.44 L8.825 -90.74 L8.075 -90.09 L7.276 -89.51 L6.432 -88.99 L5.55 -88.53 L4.635 -88.15 L3.692 -87.85 L2.729 -87.62 L1.749 -87.46 L0.761 -87.39 L-0.2301 -87.39 L-1.218 -87.47 L-2.196 -87.63 L-3.158 -87.87 L-4.098 -88.19 L-5.011 -88.57 L-5.889 -89.03 L-6.729 -89.56 L-7.524 -90.15 L-8.269 -90.8 L-8.96 -91.51 L-9.593 -92.28 L-10.16 -93.09 L-10.67 -93.94 L-11.1 -94.83 L-11.46 -95.75 L-11.75 -96.7 L-11.96 -97.67 L-12.1 -98.65 L-12.15 -99.64 L-12.13 -100.6 L-12.03 -101.6 L-11.85 -102.6 L-11.59 -103.6 L-11.26 -104.5 L-10.85 -105.4 L-10.38 -106.3 L-9.832 -107.1 L-9.225 -107.9 L-8.557 -108.6 L-7.833 -109.3 L-7.057 -109.9 L-6.235 -110.5 L-5.372 -110.9 L-4.473 -111.4 L-3.543 -111.7 L-2.589 -112 L-1.617 -112.2 L-0.6321 -112.3 L0.3584 -112.3 Z " />
<path stroke="rgb(0,0,0)" stroke-opacity="1" fill="rgb(255,255,255)" fill-opacity="1" d="M-79.49 -303.8 L-79.33 -302.8 L-79.16 -301.8 L-79 -300.8 L-78.84 -299.9 L-78.68 -298.9 L-78.52 -297.9 L-78.36 -296.9 L-78.19 -295.9 L-78.03 -294.9 L-77.87 -294 L-77.71 -293 L-77.55 -292 L-77.39 -291 L-77.22 -290 L-77.06 -289.1 L-76.9 -288.1 L-76.74 -287.1 L-76.58 -286.1 L-76.42 -285.1 L-76.25 -284.2 L-76.09 -283.2 L-75.93 -282.2 L-75.77 -281.2 L-75.61 -280.2 L-75.45 -279.2 L-76.43 -279.1 L-77.41 -278.9 L-78.39 -278.8 L-79.37 -278.6 L-80.35 -278.4 L-81.33 -278.3 L-82.32 -278.1 L-83.3 -278 L-84.28 -277.8 L-85.26 -277.6 L-86.24 -277.5 L-87.22 -277.3 L-88.2 -277.1 L-89.19 -277 L-90.17 -276.8 L-91.15 -276.7 L-92.13 -276.5 L-93.11 -276.3 L-94.09 -276.2 L-95.08 -276 L-96.06 -275.8 L-97.04 -275.7 L-98.02 -275.5 L-99 -275.4 L-99.98 -275.2 L-100.1 -276.2 L-100.3 -277.2 L-100.5 -278.1 L-100.6 -279.1 L-100.8 -280.1 L-101 -281.1 L-101.1 -282.1 L-101.3 -283.1 L-101.4 -284 L-101.6 -285 L-101.8 -286 L-101.9 -287 L-102.1 -288 L-102.2 -288.9 L-102.4 -289.9 L-102.6 -290.9 L-102.7 -291.9 L-102.9 -292.9 L-103.1 -293.9 L-103.2 -294.8 L-103.4 -295.8 L-103.5 -296.8 L-103.7 -297.8 L-103.9 -298.8 L-104 -299.7 L-103 -299.9 L-102.1 -300.1 L-101.1 -300.2 L-100.1 -300.4 L-99.12 -300.5 L-98.14 -300.7 L-97.15 -300.9 L-96.17 -301 L-95.19 -301.2 L-94.21 -301.4 L-93.23 -301.5 L-92.25 -301.7 L-91.27 -301.8 L-90.28 -302 L-89.3 -302.2 L-88.32 -302.3 L-87.34 -302.5 L-86.36 -302.7 L-85.38 -302.8 L-84.4 -303 L-83.41 -303.1 L-82.43 -303.3 L-81.45 -303.5 L-80.47 -303.6 L-79.49 -303.8 Z " />
<path stroke="rgb(0,0,0)" stroke-opacity="1" fill="rgb(255,255,255)" fill-opacity="1" d="M200.4 -112.3 L201.3 -112.3 L202.3 -112.1 L203.3 -111.9 L204.3 -111.7 L205.2 -111.3 L206.1 -110.9 L206.9 -110.4 L207.8 -109.8 L208.5 -109.2 L209.2 -108.5 L209.9 -107.8 L210.5 -107 L211 -106.2 L211.5 -105.3 L211.9 -104.4 L212.2 -103.5 L212.5 -102.5 L212.7 -101.5 L212.8 -100.5 L212.8 -99.55 L212.7 -98.56 L212.6 -97.58 L212.4 -96.61 L212.1 -95.67 L211.7 -94.75 L211.2 -93.86 L210.7 -93.01 L210.2 -92.2 L209.5 -91.44 L208.8 -90.74 L208.1 -90.09 L207.3 -89.51 L206.4 -88.99 L205.6 -88.53 L204.6 -88.15 L203.7 -87.85 L202.7 -87.62 L201.7 -87.46 L200.8 -87.39 L199.8 -87.39 L198.8 -87.47 L197.8 -87.63 L196.8 -87.87 L195.9 -88.19 L195 -88.57 L194.1 -89.03 L193.3 -89.56 L192.5 -90.15 L191.7 -90.8 L191 -91.51 L190.4 -92.28 L189.8 -93.09 L189.3 -93.94 L188.9 -94.83 L188.5 -95.75 L188.2 -96.7 L188 -97.67 L187.9 -98.65 L187.8 -99.64 L187.9 -100.6 L188 -101.6 L188.2 -102.6 L188.4 -103.6 L188.7 -104.5 L189.1 -105.4 L189.6 -106.3 L190.2 -107.1 L190.8 -107.9 L191.4 -108.6 L192.2 -109.3 L192.9 -109.9 L193.8 -110.5 L194.6 -110.9 L195.5 -111.4 L196.5 -111.7 L197.4 -112 L198.4 -112.2 L199.4 -112.3 L200.4 -112.3 Z " />
<path stroke="rgb(0,0,0)" stroke-opacity="1" fill="rgb(255,255,255)" fill-opacity="1" d="M132.4 -290.2 L132.8 -289.3 L133.2 -288.3 L133.6 -287.4 L134 -286.5 L134.4 -285.6 L134.8 -284.7 L135.2 -283.8 L135.6 -282.9 L136 -281.9 L136.4 -281 L136.8 -280.1 L137.2 -279.2 L137.6 -278.3 L138 -277.4 L138.4 -276.5 L138.8 -275.6 L139.2 -274.6 L139.6 -273.7 L140 -272.8 L140.3 -271.9 L140.7 -271 L141.1 -270.1 L141.5 -269.2 L141.9 -268.3 L142.3 -267.3 L141.4 -266.9 L140.5 -266.6 L139.6 -266.2 L138.7 -265.8 L137.8 -265.4 L136.9 -265 L135.9 -264.6 L135 -264.2 L134.1 -263.8 L133.2 -263.4 L132.3 -263 L131.4 -262.6 L130.5 -262.2 L129.6 -261.8 L128.6 -261.4 L127.7 -261 L126.8 -260.6 L125.9 -260.2 L125 -259.8 L124.1 -259.4 L123.2 -259 L122.2 -258.6 L121.3 -258.2 L120.4 -257.8 L119.5 -257.4 L119.1 -258.4 L118.7 -259.3 L118.3 -260.2 L117.9 -261.1 L117.5 -262 L117.1 -262.9 L116.7 -263.8 L116.3 -264.7 L115.9 -265.7 L115.6 -266.6 L115.2 -267.5 L114.8 -268.4 L114.4 -269.3 L114 -270.2 L113.6 -271.1 L113.2 -272 L112.8 -273 L112.4 -273.9 L112 -274.8 L111.6 -275.7 L111.2 -276.6 L110.8 -277.5 L110.4 -278.4 L110 -279.3 L109.6 -280.3 L110.5 -280.7 L111.4 -281.1 L112.3 -281.5 L113.3 -281.8 L114.2 -282.2 L115.1 -282.6 L116 -283 L116.9 -283.4 L117.8 -283.8 L118.7 -284.2 L119.7 -284.6 L120.6 -285 L121.5 -285.4 L122.4 -285.8 L123.3 -286.2 L124.2 -286.6 L125.1 -287 L126 -287.4 L127 -287.8 L127.9 -288.2 L128.8 -288.6 L129.7 -289 L130.6 -289.4 L131.5 -289.8 L132.4 -290.2 Z " />
<path stroke="rgb(0,0,0)" stroke-opacity="1" fill="rgb(255,255,255)" fill-opacity="1" d="M-299.6 -12.31 L-298.6 -12.27 L-297.7 -12.15 L-296.7 -11.95 L-295.7 -11.67 L-294.8 -11.32 L-293.9 -10.89 L-293.1 -10.4 L-292.2 -9.841 L-291.5 -9.217 L-290.7 -8.535 L-290.1 -7.797 L-289.5 -7.009 L-288.9 -6.176 L-288.5 -5.302 L-288.1 -4.394 L-287.8 -3.458 L-287.5 -2.498 L-287.3 -1.522 L-287.2 -0.5353 L-287.2 0.4559 L-287.3 1.445 L-287.4 2.426 L-287.6 3.393 L-287.9 4.339 L-288.3 5.259 L-288.8 6.147 L-289.3 6.997 L-289.8 7.803 L-290.5 8.561 L-291.2 9.266 L-291.9 9.914 L-292.7 10.5 L-293.6 11.02 L-294.5 11.47 L-295.4 11.85 L-296.3 12.16 L-297.3 12.39 L-298.3 12.54 L-299.2 12.62 L-300.2 12.61 L-301.2 12.53 L-302.2 12.37 L-303.2 12.13 L-304.1 11.81 L-305 11.43 L-305.9 10.97 L-306.7 10.44 L-307.5 9.849 L-308.3 9.195 L-309 8.484 L-309.6 7.721 L-310.2 6.909 L-310.7 6.055 L-311.1 5.164 L-311.5 4.241 L-311.8 3.292 L-312 2.324 L-312.1 1.341 L-312.2 0.3516 L-312.1 -0.6395 L-312 -1.625 L-311.8 -2.6 L-311.6 -3.558 L-311.3 -4.491 L-310.9 -5.396 L-310.4 -6.265 L-309.8 -7.094 L-309.2 -7.877 L-308.6 -8.609 L-307.8 -9.286 L-307.1 -9.903 L-306.2 -10.46 L-305.4 -10.94 L-304.5 -11.36 L-303.5 -11.7 L-302.6 -11.97 L-301.6 -12.16 L-300.6 -12.28 L-299.6 -12.31 Z " />
<path stroke="rgb(0,0,0)" stroke-opacity="1" fill="rgb(255,255,255)" fill-opacity="1" d="M-385.6 -210.2 L-385.5 -209.2 L-385.5 -208.2 L-385.5 -207.2 L-385.4 -206.2 L-385.4 -205.2 L-385.3 -204.2 L-385.3 -203.2 L-385.3 -202.2 L-385.2 -201.2 L-385.2 -200.2 L-385.1 -199.3 L-385.1 -198.3 L-385 -197.3 L-385 -196.3 L-385 -195.3 L-384.9 -194.3 L-384.9 -193.3 L-384.8 -192.3 L-384.8 -191.3 L-384.8 -190.3 L-384.7 -189.3 L-384.7 -188.3 L-384.6 -187.3 L-384.6 -186.3 L-384.5 -185.3 L-385.5 -185.3 L-386.5 -185.3 L-387.5 -185.2 L-388.5 -185.2 L-389.5 -185.1 L-390.5 -185.1 L-391.5 -185 L-392.5 -185 L-393.5 -185 L-394.5 -184.9 L-395.5 -184.9 L-396.5 -184.8 L-397.5 -184.8 L-398.5 -184.8 L-399.5 -184.7 L-400.4 -184.7 L-401.4 -184.6 L-402.4 -184.6 L-403.4 -184.6 L-404.4 -184.5 L-405.4 -184.5 L-406.4 -184.4 L-407.4 -184.4 L-408.4 -184.3 L-409.4 -184.3 L-409.4 -185.3 L-409.5 -186.3 L-409.5 -187.3 L-409.6 -188.3 L-409.6 -189.3 L-409.6 -190.3 L-409.7 -191.3 L-409.7 -192.3 L-409.8 -193.2 L-409.8 -194.2 L-409.8 -195.2 L-409.9 -196.2 L-409.9 -197.2 L-410 -198.2 L-410 -199.2 L-410.1 -200.2 L-410.1 -201.2 L-410.1 -202.2 L-410.2 -203.2 L-410.2 -204.2 L-410.3 -205.2 L-410.3 -206.2 L-410.3 -207.2 L-410.4 -208.2 L-410.4 -209.1 L-409.4 -209.2 L-408.4 -209.2 L-407.4 -209.3 L-406.5 -209.3 L-405.5 -209.4 L-404.5 -209.4 L-403.5 -209.4 L-402.5 -209.5 L-401.5 -209.5 L-400.5 -209.6 L-399.5 -209.6 L-398.5 -209.6 L-397.5 -209.7 L-396.5 -209.7 L-395.5 -209.8 L-394.5 -209.8 L-393.5 -209.9 L-392.5 -209.9 L-391.5 -209.9 L-390.6 -210 L-389.6 -210 L-388.6 -210.1 L-387.6 -210.1 L-386.6 -210.1 L-385.6 -210.2 Z " />
<path stroke="rgb(0,0,0)" stroke-opacity="1" fill="rgb(255,255,255)" fill-opacity="1" d="M-99.64 -12.31 L-98.65 -12.27 L-97.67 -12.14 L-96.7 -11.95 L-95.74 -11.67 L-94.82 -11.32 L-93.92 -10.9 L-93.06 -10.4 L-92.24 -9.842 L-91.47 -9.219 L-90.75 -8.537 L-90.09 -7.8 L-89.49 -7.012 L-88.95 -6.179 L-88.48 -5.306 L-88.08 -4.399 L-87.76 -3.463 L-87.51 -2.503 L-87.34 -1.527 L-87.24 -0.5409 L-87.23 0.4501 L-87.29 1.439 L-87.43 2.42 L-87.65 3.387 L-87.94 4.333 L-88.31 5.253 L-88.75 6.141 L-89.26 6.991 L-89.84 7.797 L-90.48 8.555 L-91.17 9.261 L-91.92 9.908 L-92.72 10.49 L-93.57 11.01 L-94.45 11.47 L-95.37 11.85 L-96.31 12.15 L-97.27 12.38 L-98.25 12.54 L-99.24 12.61 L-100.2 12.61 L-101.2 12.53 L-102.2 12.37 L-103.2 12.13 L-104.1 11.81 L-105 11.43 L-105.9 10.97 L-106.7 10.44 L-107.5 9.85 L-108.3 9.197 L-109 8.487 L-109.6 7.724 L-110.2 6.913 L-110.7 6.059 L-111.1 5.168 L-111.5 4.246 L-111.8 3.297 L-112 2.329 L-112.1 1.347 L-112.2 0.3572 L-112.1 -0.6337 L-112 -1.62 L-111.8 -2.594 L-111.6 -3.551 L-111.3 -4.485 L-110.9 -5.39 L-110.4 -6.259 L-109.8 -7.088 L-109.2 -7.871 L-108.6 -8.603 L-107.8 -9.28 L-107.1 -9.898 L-106.2 -10.45 L-105.4 -10.94 L-104.5 -11.35 L-103.5 -11.7 L-102.6 -11.97 L-101.6 -12.16 L-100.6 -12.27 L-99.64 -12.31 Z " />
<path stroke="rgb(0,0,0)" stroke-opacity="1" fill="rgb(255,255,255)" fill-opacity="1" d="M-179.5 -203.8 L-179.3 -202.8 L-179.2 -201.8 L-179 -200.8 L-178.8 -199.9 L-178.7 -198.9 L-178.5 -197.9 L-178.4 -196.9 L-178.2 -195.9 L-178 -194.9 L-177.9 -194 L-177.7 -193 L-177.5 -192 L-177.4 -191 L-177.2 -190 L-177.1 -189.1 L-176.9 -188.1 L-176.7 -187.1 L-176.6 -186.1 L-176.4 -185.1 L-176.3 -184.2 L-176.1 -183.2 L-175.9 -182.2 L-175.8 -181.2 L-175.6 -180.2 L-175.4 -179.2 L-176.4 -179.1 L-177.4 -178.9 L-178.4 -178.8 L-179.4 -178.6 L-180.4 -178.4 L-181.3 -178.3 L-182.3 -178.1 L-183.3 -178 L-184.3 -177.8 L-185.3 -177.6 L-186.2 -177.5 L-187.2 -177.3 L-188.2 -177.1 L-189.2 -177 L-190.2 -176.8 L-191.1 -176.7 L-192.1 -176.5 L-193.1 -176.3 L-194.1 -176.2 L-195.1 -176 L-196.1 -175.8 L-197 -175.7 L-198 -175.5 L-199 -175.4 L-200 -175.2 L-200.1 -176.2 L-200.3 -177.2 L-200.5 -178.1 L-200.6 -179.1 L-200.8 -180.1 L-201 -181.1 L-201.1 -182.1 L-201.3 -183.1 L-201.4 -184 L-201.6 -185 L-201.8 -186 L-201.9 -187 L-202.1 -188 L-202.2 -188.9 L-202.4 -189.9 L-202.6 -190.9 L-202.7 -191.9 L-202.9 -192.9 L-203.1 -193.9 L-203.2 -194.8 L-203.4 -195.8 L-203.5 -196.8 L-203.7 -197.8 L-203.9 -198.8 L-204 -199.7 L-203 -199.9 L-202.1 -200.1 L-201.1 -200.2 L-200.1 -200.4 L-199.1 -200.5 L-198.1 -200.7 L-197.2 -200.9 L-196.2 -201 L-195.2 -201.2 L-194.2 -201.4 L-193.2 -201.5 L-192.2 -201.7 L-191.3 -201.8 L-190.3 -202 L-189.3 -202.2 L-188.3 -202.3 L-187.3 -202.5 L-186.4 -202.7 L-185.4 -202.8 L-184.4 -203 L-183.4 -203.1 L-182.4 -203.3 L-181.5 -203.5 L-180.5 -203.6 L-179.5 -203.8 Z " />
<path stroke="rgb(0,0,0)" stroke-opacity="1" fill="rgb(255,255,255)" fill-opacity="1" d="M100.4 -12.31 L101.3 -12.27 L102.3 -12.14 L103.3 -11.95 L104.3 -11.67 L105.2 -11.32 L106.1 -10.9 L106.9 -10.4 L107.8 -9.842 L108.5 -9.219 L109.2 -8.537 L109.9 -7.8 L110.5 -7.012 L111 -6.179 L111.5 -5.306 L111.9 -4.399 L112.2 -3.463 L112.5 -2.503 L112.7 -1.527 L112.8 -0.5409 L112.8 0.4501 L112.7 1.439 L112.6 2.42 L112.4 3.387 L112.1 4.333 L111.7 5.253 L111.2 6.141 L110.7 6.991 L110.2 7.797 L109.5 8.555 L108.8 9.261 L108.1 9.908 L107.3 10.49 L106.4 11.01 L105.6 11.47 L104.6 11.85 L103.7 12.15 L102.7 12.38 L101.7 12.54 L100.8 12.61 L99.77 12.61 L98.78 12.53 L97.8 12.37 L96.84 12.13 L95.9 11.81 L94.99 11.43 L94.11 10.97 L93.27 10.44 L92.48 9.85 L91.73 9.197 L91.04 8.487 L90.41 7.724 L89.84 6.913 L89.33 6.059 L88.9 5.168 L88.54 4.246 L88.25 3.297 L88.04 2.329 L87.9 1.347 L87.85 0.3572 L87.87 -0.6337 L87.97 -1.62 L88.15 -2.594 L88.41 -3.551 L88.74 -4.485 L89.15 -5.39 L89.62 -6.259 L90.17 -7.088 L90.78 -7.871 L91.44 -8.603 L92.17 -9.28 L92.94 -9.898 L93.76 -10.45 L94.63 -10.94 L95.53 -11.35 L96.46 -11.7 L97.41 -11.97 L98.38 -12.16 L99.37 -12.27 L100.4 -12.31 Z " />
<path stroke="rgb(0,0,0)" stroke-opacity="1" fill="rgb(255,255,255)" fill-opacity="1" d="M32.43 -190.2 L32.82 -189.3 L33.22 -188.3 L33.62 -187.4 L34.01 -186.5 L34.41 -185.6 L34.81 -184.7 L35.2 -183.8 L35.6 -182.9 L35.99 -181.9 L36.39 -181 L36.79 -180.1 L37.18 -179.2 L37.58 -178.3 L37.97 -177.4 L38.37 -176.5 L38.77 -175.6 L39.16 -174.6 L39.56 -173.7 L39.95 -172.8 L40.35 -171.9 L40.75 -171 L41.14 -170.1 L41.54 -169.2 L41.93 -168.3 L42.33 -167.3 L41.42 -166.9 L40.5 -166.6 L39.59 -166.2 L38.68 -165.8 L37.77 -165.4 L36.85 -165 L35.94 -164.6 L35.03 -164.2 L34.12 -163.8 L33.2 -163.4 L32.29 -163 L31.38 -162.6 L30.46 -162.2 L29.55 -161.8 L28.64 -161.4 L27.73 -161 L26.81 -160.6 L25.9 -160.2 L24.99 -159.8 L24.08 -159.4 L23.16 -159 L22.25 -158.6 L21.34 -158.2 L20.42 -157.8 L19.51 -157.4 L19.12 -158.4 L18.72 -159.3 L18.32 -160.2 L17.93 -161.1 L17.53 -162 L17.14 -162.9 L16.74 -163.8 L16.34 -164.7 L15.95 -165.7 L15.55 -166.6 L15.16 -167.5 L14.76 -168.4 L14.36 -169.3 L13.97 -170.2 L13.57 -171.1 L13.18 -172 L12.78 -173 L12.38 -173.9 L11.99 -174.8 L11.59 -175.7 L11.2 -176.6 L10.8 -177.5 L10.4 -178.4 L10.01 -179.3 L9.611 -180.3 L10.52 -180.7 L11.44 -181.1 L12.35 -181.5 L13.26 -181.8 L14.17 -182.2 L15.09 -182.6 L16 -183 L16.91 -183.4 L17.83 -183.8 L18.74 -184.2 L19.65 -184.6 L20.56 -185 L21.48 -185.4 L22.39 -185.8 L23.3 -186.2 L24.21 -186.6 L25.13 -187 L26.04 -187.4 L26.95 -187.8 L27.87 -188.2 L28.78 -188.6 L29.69 -189 L30.6 -189.4 L31.52 -189.8 L32.43 -190.2 Z " />
<path stroke="rgb(0,0,0)" stroke-opacity="1" fill="rgb(255,255,255)" fill-opacity="1" d="M300.4 -12.31 L301.3 -12.27 L302.3 -12.14 L303.3 -11.95 L304.3 -11.67 L305.2 -11.32 L306.1 -10.9 L306.9 -10.4 L307.8 -9.842 L308.5 -9.219 L309.2 -8.537 L309.9 -7.8 L310.5 -7.012 L311 -6.179 L311.5 -5.306 L311.9 -4.399 L312.2 -3.463 L312.5 -2.503 L312.7 -1.527 L312.8 -0.5409 L312.8 0.4501 L312.7 1.439 L312.6 2.42 L312.4 3.387 L312.1 4.333 L311.7 5.253 L311.2 6.141 L310.7 6.991 L310.2 7.797 L309.5 8.555 L308.8 9.261 L308.1 9.908 L307.3 10.49 L306.4 11.01 L305.6 11.47 L304.6 11.85 L303.7 12.15 L302.7 12.38 L301.7 12.54 L300.8 12.61 L299.8 12.61 L298.8 12.53 L297.8 12.37 L296.8 12.13 L295.9 11.81 L295 11.43 L294.1 10.97 L293.3 10.44 L292.5 9.85 L291.7 9.197 L291 8.487 L290.4 7.724 L289.8 6.913 L289.3 6.059 L288.9 5.168 L288.5 4.246 L288.2 3.297 L288 2.329 L287.9 1.347 L287.8 0.3572 L287.9 -0.6337 L288 -1.62 L288.2 -2.594 L288.4 -3.551 L288.7 -4.485 L289.1 -5.39 L289.6 -6.259 L290.2 -7.088 L290.8 -7.871 L291.4 -8.603 L292.2 -9.28 L292.9 -9.898 L293.8 -10.45 L294.6 -10.94 L295.5 -11.35 L296.5 -11.7 L297.4 -11.97 L298.4 -12.16 L299.4 -12.27 L300.4 -12.31 Z " />
<path stroke="rgb(0,0,0)" stroke-opacity="1" fill="rgb(255,255,255)" fill-opacity="1" d="M-485.6 -110.2 L-485.5 -109.2 L-485.5 -108.2 L-485.5 -107.2 L-485.4 -106.2 L-485.4 -105.2 L-485.3 -104.2 L-485.3 -103.2 L-485.3 -102.2 L-485.2 -101.2 L-485.2 -100.2 L-485.1 -99.25 L-485.1 -98.26 L-485 -97.26 L-485 -96.27 L-485 -95.28 L-484.9 -94.28 L-484.9 -93.29 L-484.8 -92.3 L-484.8 -91.3 L-484.8 -90.31 L-484.7 -89.31 L-484.7 -88.32 L-484.6 -87.33 L-484.6 -86.33 L-484.5 -85.34 L-485.5 -85.3 L-486.5 -85.26 L-487.5 -85.21 L-488.5 -85.17 L-489.5 -85.13 L-490.5 -85.09 L-491.5 -85.05 L-492.5 -85.01 L-493.5 -84.97 L-494.5 -84.92 L-495.5 -84.88 L-496.5 -84.84 L-497.5 -84.8 L-498.5 -84.76 L-499.5 -84.72 L-500.4 -84.67 L-501.4 -84.63 L-502.4 -84.59 L-503.4 -84.55 L-504.4 -84.51 L-505.4 -84.47 L-506.4 -84.43 L-507.4 -84.38 L-508.4 -84.34 L-509.4 -84.3 L-509.4 -85.3 L-509.5 -86.29 L-509.5 -87.28 L-509.6 -88.28 L-509.6 -89.27 L-509.6 -90.26 L-509.7 -91.26 L-509.7 -92.25 L-509.8 -93.25 L-509.8 -94.24 L-509.8 -95.23 L-509.9 -96.23 L-509.9 -97.22 L-510 -98.21 L-510 -99.21 L-510.1 -100.2 L-510.1 -101.2 L-510.1 -102.2 L-510.2 -103.2 L-510.2 -104.2 L-510.3 -105.2 L-510.3 -106.2 L-510.3 -107.2 L-510.4 -108.2 L-510.4 -109.1 L-509.4 -109.2 L-508.4 -109.2 L-507.4 -109.3 L-506.5 -109.3 L-505.5 -109.4 L-504.5 -109.4 L-503.5 -109.4 L-502.5 -109.5 L-501.5 -109.5 L-500.5 -109.6 L-499.5 -109.6 L-498.5 -109.6 L-497.5 -109.7 L-496.5 -109.7 L-495.5 -109.8 L-494.5 -109.8 L-493.5 -109.9 L-492.5 -109.9 L-491.5 -109.9 L-490.6 -110 L-489.6 -110 L-488.6 -110.1 L-487.6 -110.1 L-486.6 -110.1 L-485.6 -110.2 Z " />
<path stroke="rgb(0,0,0)" stroke-opacity="1" fill="rgb(255,255,255)" fill-opacity="1" d="M-199.6 87.69 L-198.7 87.73 L-197.7 87.86 L-196.7 88.05 L-195.7 88.33 L-194.8 88.68 L-193.9 89.1 L-193.1 89.6 L-192.2 90.16 L-191.5 90.78 L-190.8 91.46 L-190.1 92.2 L-189.5 92.99 L-189 93.82 L-188.5 94.69 L-188.1 95.6 L-187.8 96.54 L-187.5 97.5 L-187.3 98.47 L-187.2 99.46 L-187.2 100.5 L-187.3 101.4 L-187.4 102.4 L-187.6 103.4 L-187.9 104.3 L-188.3 105.3 L-188.8 106.1 L-189.3 107 L-189.8 107.8 L-190.5 108.6 L-191.2 109.3 L-191.9 109.9 L-192.7 110.5 L-193.6 111 L-194.4 111.5 L-195.4 111.8 L-196.3 112.2 L-197.3 112.4 L-198.3 112.5 L-199.2 112.6 L-200.2 112.6 L-201.2 112.5 L-202.2 112.4 L-203.2 112.1 L-204.1 111.8 L-205 111.4 L-205.9 111 L-206.7 110.4 L-207.5 109.9 L-208.3 109.2 L-209 108.5 L-209.6 107.7 L-210.2 106.9 L-210.7 106.1 L-211.1 105.2 L-211.5 104.2 L-211.8 103.3 L-212 102.3 L-212.1 101.3 L-212.2 100.4 L-212.1 99.37 L-212 98.38 L-211.8 97.41 L-211.6 96.45 L-211.3 95.51 L-210.9 94.61 L-210.4 93.74 L-209.8 92.91 L-209.2 92.13 L-208.6 91.4 L-207.8 90.72 L-207.1 90.1 L-206.2 89.55 L-205.4 89.06 L-204.5 88.65 L-203.5 88.3 L-202.6 88.03 L-201.6 87.84 L-200.6 87.73 L-199.6 87.69 Z " />
<path stroke="rgb(0,0,0)" stroke-opacity="1" fill="rgb(255,255,255)" fill-opacity="1" d="M-279.5 -103.8 L-279.3 -102.8 L-279.2 -101.8 L-279 -100.8 L-278.8 -99.86 L-278.7 -98.87 L-278.5 -97.89 L-278.4 -96.91 L-278.2 -95.93 L-278 -94.95 L-277.9 -93.97 L-277.7 -92.99 L-277.5 -92 L-277.4 -91.02 L-277.2 -90.04 L-277.1 -89.06 L-276.9 -88.08 L-276.7 -87.1 L-276.6 -86.12 L-276.4 -85.13 L-276.3 -84.15 L-276.1 -83.17 L-275.9 -82.19 L-275.8 -81.21 L-275.6 -80.23 L-275.4 -79.24 L-276.4 -79.08 L-277.4 -78.92 L-278.4 -78.76 L-279.4 -78.6 L-280.4 -78.44 L-281.3 -78.27 L-282.3 -78.11 L-283.3 -77.95 L-284.3 -77.79 L-285.3 -77.63 L-286.2 -77.47 L-287.2 -77.3 L-288.2 -77.14 L-289.2 -76.98 L-290.2 -76.82 L-291.1 -76.66 L-292.1 -76.5 L-293.1 -76.33 L-294.1 -76.17 L-295.1 -76.01 L-296.1 -75.85 L-297 -75.69 L-298 -75.53 L-299 -75.36 L-300 -75.2 L-300.1 -76.18 L-300.3 -77.17 L-300.5 -78.15 L-300.6 -79.13 L-300.8 -80.11 L-301 -81.09 L-301.1 -82.07 L-301.3 -83.05 L-301.4 -84.04 L-301.6 -85.02 L-301.8 -86 L-301.9 -86.98 L-302.1 -87.96 L-302.2 -88.94 L-302.4 -89.92 L-302.6 -90.91 L-302.7 -91.89 L-302.9 -92.87 L-303.1 -93.85 L-303.2 -94.83 L-303.4 -95.81 L-303.5 -96.8 L-303.7 -97.78 L-303.9 -98.76 L-304 -99.74 L-303 -99.9 L-302.1 -100.1 L-301.1 -100.2 L-300.1 -100.4 L-299.1 -100.5 L-298.1 -100.7 L-297.2 -100.9 L-296.2 -101 L-295.2 -101.2 L-294.2 -101.4 L-293.2 -101.5 L-292.2 -101.7 L-291.3 -101.8 L-290.3 -102 L-289.3 -102.2 L-288.3 -102.3 L-287.3 -102.5 L-286.4 -102.7 L-285.4 -102.8 L-284.4 -103 L-283.4 -103.1 L-282.4 -103.3 L-281.5 -103.5 L-280.5 -103.6 L-279.5 -103.8 Z " />
<path stroke="rgb(0,0,0)" stroke-opacity="1" fill="rgb(255,255,255)" fill-opacity="1" d="M0.3584 87.69 L1.349 87.73 L2.332 87.86 L3.303 88.05 L4.255 88.33 L5.182 88.68 L6.078 89.1 L6.938 89.6 L7.756 90.16 L8.527 90.78 L9.246 91.46 L9.908 92.2 L10.51 92.99 L11.05 93.82 L11.52 94.69 L11.92 95.6 L12.24 96.54 L12.49 97.5 L12.66 98.47 L12.76 99.46 L12.77 100.5 L12.71 101.4 L12.57 102.4 L12.35 103.4 L12.06 104.3 L11.69 105.3 L11.25 106.1 L10.74 107 L10.16 107.8 L9.522 108.6 L8.825 109.3 L8.075 109.9 L7.276 110.5 L6.432 111 L5.55 111.5 L4.635 111.8 L3.692 112.2 L2.729 112.4 L1.749 112.5 L0.761 112.6 L-0.2301 112.6 L-1.218 112.5 L-2.196 112.4 L-3.158 112.1 L-4.098 111.8 L-5.011 111.4 L-5.889 111 L-6.729 110.4 L-7.524 109.9 L-8.269 109.2 L-8.96 108.5 L-9.593 107.7 L-10.16 106.9 L-10.67 106.1 L-11.1 105.2 L-11.46 104.2 L-11.75 103.3 L-11.96 102.3 L-12.1 101.3 L-12.15 100.4 L-12.13 99.37 L-12.03 98.38 L-11.85 97.41 L-11.59 96.45 L-11.26 95.51 L-10.85 94.61 L-10.38 93.74 L-9.832 92.91 L-9.225 92.13 L-8.557 91.4 L-7.833 90.72 L-7.057 90.1 L-6.235 89.55 L-5.372 89.06 L-4.473 88.65 L-3.543 88.3 L-2.589 88.03 L-1.617 87.84 L-0.6321 87.73 L0.3584 87.69 Z " />
<path stroke="rgb(0,0,0)" stroke-opacity="1" fill="rgb(255,255,255)" fill-opacity="1" d="M-67.57 -90.16 L-67.18 -89.25 L-66.78 -88.34 L-66.38 -87.42 L-65.99 -86.51 L-65.59 -85.6 L-65.19 -84.69 L-64.8 -83.77 L-64.4 -82.86 L-64.01 -81.95 L-63.61 -81.04 L-63.21 -80.12 L-62.82 -79.21 L-62.42 -78.3 L-62.03 -77.39 L-61.63 -76.47 L-61.23 -75.56 L-60.84 -74.65 L-60.44 -73.73 L-60.05 -72.82 L-59.65 -71.91 L-59.25 -71 L-58.86 -70.08 L-58.46 -69.17 L-58.07 -68.26 L-57.67 -67.35 L-58.58 -66.95 L-59.5 -66.55 L-60.41 -66.16 L-61.32 -65.76 L-62.23 -65.36 L-63.15 -64.97 L-64.06 -64.57 L-64.97 -64.18 L-65.88 -63.78 L-66.8 -63.38 L-67.71 -62.99 L-68.62 -62.59 L-69.54 -62.2 L-70.45 -61.8 L-71.36 -61.4 L-72.27 -61.01 L-73.19 -60.61 L-74.1 -60.22 L-75.01 -59.82 L-75.92 -59.42 L-76.84 -59.03 L-77.75 -58.63 L-78.66 -58.24 L-79.58 -57.84 L-80.49 -57.44 L-80.88 -58.36 L-81.28 -59.27 L-81.68 -60.18 L-82.07 -61.1 L-82.47 -62.01 L-82.86 -62.92 L-83.26 -63.83 L-83.66 -64.75 L-84.05 -65.66 L-84.45 -66.57 L-84.84 -67.48 L-85.24 -68.4 L-85.64 -69.31 L-86.03 -70.22 L-86.43 -71.14 L-86.82 -72.05 L-87.22 -72.96 L-87.62 -73.87 L-88.01 -74.79 L-88.41 -75.7 L-88.8 -76.61 L-89.2 -77.52 L-89.6 -78.44 L-89.99 -79.35 L-90.39 -80.26 L-89.48 -80.66 L-88.56 -81.05 L-87.65 -81.45 L-86.74 -81.85 L-85.83 -82.24 L-84.91 -82.64 L-84 -83.03 L-83.09 -83.43 L-82.17 -83.83 L-81.26 -84.22 L-80.35 -84.62 L-79.44 -85.01 L-78.52 -85.41 L-77.61 -85.81 L-76.7 -86.2 L-75.79 -86.6 L-74.87 -86.99 L-73.96 -87.39 L-73.05 -87.79 L-72.13 -88.18 L-71.22 -88.58 L-70.31 -88.98 L-69.4 -89.37 L-68.48 -89.77 L-67.57 -90.16 Z " />
<path stroke="rgb(0,0,0)" stroke-opacity="1" fill="rgb(255,255,255)" fill-opacity="1" d="M200.4 87.69 L201.3 87.73 L202.3 87.86 L203.3 88.05 L204.3 88.33 L205.2 88.68 L206.1 89.1 L206.9 89.6 L207.8 90.16 L208.5 90.78 L209.2 91.46 L209.9 92.2 L210.5 92.99 L211 93.82 L211.5 94.69 L211.9 95.6 L212.2 96.54 L212.5 97.5 L212.7 98.47 L212.8 99.46 L212.8 100.5 L212.7 101.4 L212.6 102.4 L212.4 103.4 L212.1 104.3 L211.7 105.3 L211.2 106.1 L210.7 107 L210.2 107.8 L209.5 108.6 L208.8 109.3 L208.1 109.9 L207.3 110.5 L206.4 111 L205.6 111.5 L204.6 111.8 L203.7 112.2 L202.7 112.4 L201.7 112.5 L200.8 112.6 L199.8 112.6 L198.8 112.5 L197.8 112.4 L196.8 112.1 L195.9 111.8 L195 111.4 L194.1 111 L193.3 110.4 L192.5 109.9 L191.7 109.2 L191 108.5 L190.4 107.7 L189.8 106.9 L189.3 106.1 L188.9 105.2 L188.5 104.2 L188.2 103.3 L188 102.3 L187.9 101.3 L187.8 100.4 L187.9 99.37 L188 98.38 L188.2 97.41 L188.4 96.45 L188.7 95.51 L189.1 94.61 L189.6 93.74 L190.2 92.91 L190.8 92.13 L191.4 91.4 L192.2 90.72 L192.9 90.1 L193.8 89.55 L194.6 89.06 L195.5 88.65 L196.5 88.3 L197.4 88.03 L198.4 87.84 L199.4 87.73 L200.4 87.69 Z " />
<path stroke="rgb(0,0,0)" stroke-opacity="1" fill="rgb(255,255,255)" fill-opacity="1" d="M151.7 -65.07 L152.4 -64.39 L153.2 -63.71 L153.9 -63.04 L154.6 -62.36 L155.3 -61.68 L156.1 -61 L156.8 -60.33 L157.5 -59.65 L158.3 -58.97 L159 -58.3 L159.7 -57.62 L160.4 -56.94 L161.2 -56.27 L161.9 -55.59 L162.6 -54.91 L163.4 -54.23 L164.1 -53.56 L164.8 -52.88 L165.6 -52.2 L166.3 -51.53 L167 -50.85 L167.7 -50.17 L168.5 -49.49 L169.2 -48.82 L169.9 -48.14 L169.3 -47.41 L168.6 -46.68 L167.9 -45.95 L167.2 -45.22 L166.5 -44.49 L165.9 -43.76 L165.2 -43.03 L164.5 -42.3 L163.8 -41.57 L163.2 -40.85 L162.5 -40.12 L161.8 -39.39 L161.1 -38.66 L160.4 -37.93 L159.8 -37.2 L159.1 -36.47 L158.4 -35.74 L157.7 -35.01 L157.1 -34.28 L156.4 -33.55 L155.7 -32.82 L155 -32.09 L154.4 -31.36 L153.7 -30.63 L153 -29.9 L152.3 -30.58 L151.5 -31.26 L150.8 -31.94 L150.1 -32.61 L149.4 -33.29 L148.6 -33.97 L147.9 -34.64 L147.2 -35.32 L146.4 -36 L145.7 -36.67 L145 -37.35 L144.2 -38.03 L143.5 -38.71 L142.8 -39.38 L142.1 -40.06 L141.3 -40.74 L140.6 -41.41 L139.9 -42.09 L139.1 -42.77 L138.4 -43.45 L137.7 -44.12 L137 -44.8 L136.2 -45.48 L135.5 -46.15 L134.8 -46.83 L135.4 -47.56 L136.1 -48.29 L136.8 -49.02 L137.5 -49.75 L138.2 -50.48 L138.8 -51.21 L139.5 -51.94 L140.2 -52.67 L140.9 -53.4 L141.5 -54.13 L142.2 -54.86 L142.9 -55.58 L143.6 -56.31 L144.2 -57.04 L144.9 -57.77 L145.6 -58.5 L146.3 -59.23 L147 -59.96 L147.6 -60.69 L148.3 -61.42 L149 -62.15 L149.7 -62.88 L150.3 -63.61 L151 -64.34 L151.7 -65.07 Z " />
<path stroke="rgb(0,0,0)" stroke-opacity="1" fill="rgb(255,255,255)" fill-opacity="1" d="M-299.6 187.7 L-298.7 187.7 L-297.7 187.9 L-296.7 188.1 L-295.7 188.3 L-294.8 188.7 L-293.9 189.1 L-293.1 189.6 L-292.2 190.2 L-291.5 190.8 L-290.8 191.5 L-290.1 192.2 L-289.5 193 L-289 193.8 L-288.5 194.7 L-288.1 195.6 L-287.8 196.5 L-287.5 197.5 L-287.3 198.5 L-287.2 199.5 L-287.2 200.5 L-287.3 201.4 L-287.4 202.4 L-287.6 203.4 L-287.9 204.3 L-288.3 205.3 L-288.8 206.1 L-289.3 207 L-289.8 207.8 L-290.5 208.6 L-291.2 209.3 L-291.9 209.9 L-292.7 210.5 L-293.6 211 L-294.4 211.5 L-295.4 211.8 L-296.3 212.2 L-297.3 212.4 L-298.3 212.5 L-299.2 212.6 L-300.2 212.6 L-301.2 212.5 L-302.2 212.4 L-303.2 212.1 L-304.1 211.8 L-305 211.4 L-305.9 211 L-306.7 210.4 L-307.5 209.9 L-308.3 209.2 L-309 208.5 L-309.6 207.7 L-310.2 206.9 L-310.7 206.1 L-311.1 205.2 L-311.5 204.2 L-311.8 203.3 L-312 202.3 L-312.1 201.3 L-312.2 200.4 L-312.1 199.4 L-312 198.4 L-311.8 197.4 L-311.6 196.4 L-311.3 195.5 L-310.9 194.6 L-310.4 193.7 L-309.8 192.9 L-309.2 192.1 L-308.6 191.4 L-307.8 190.7 L-307.1 190.1 L-306.2 189.5 L-305.4 189.1 L-304.5 188.6 L-303.5 188.3 L-302.6 188 L-301.6 187.8 L-300.6 187.7 L-299.6 187.7 Z " />
<path stroke="rgb(0,0,0)" stroke-opacity="1" fill="rgb(255,255,255)" fill-opacity="1" d="M-379.5 -3.782 L-379.3 -2.801 L-379.2 -1.819 L-379 -0.8378 L-378.8 0.1437 L-378.7 1.125 L-378.5 2.107 L-378.4 3.088 L-378.2 4.07 L-378 5.051 L-377.9 6.033 L-377.7 7.014 L-377.5 7.996 L-377.4 8.977 L-377.2 9.959 L-377.1 10.94 L-376.9 11.92 L-376.7 12.9 L-376.6 13.88 L-376.4 14.87 L-376.3 15.85 L-376.1 16.83 L-375.9 17.81 L-375.8 18.79 L-375.6 19.77 L-375.4 20.76 L-376.4 20.92 L-377.4 21.08 L-378.4 21.24 L-379.4 21.4 L-380.4 21.56 L-381.3 21.73 L-382.3 21.89 L-383.3 22.05 L-384.3 22.21 L-385.3 22.37 L-386.2 22.53 L-387.2 22.7 L-388.2 22.86 L-389.2 23.02 L-390.2 23.18 L-391.1 23.34 L-392.1 23.5 L-393.1 23.67 L-394.1 23.83 L-395.1 23.99 L-396.1 24.15 L-397 24.31 L-398 24.47 L-399 24.64 L-400 24.8 L-400.1 23.82 L-400.3 22.83 L-400.5 21.85 L-400.6 20.87 L-400.8 19.89 L-401 18.91 L-401.1 17.93 L-401.3 16.95 L-401.4 15.96 L-401.6 14.98 L-401.8 14 L-401.9 13.02 L-402.1 12.04 L-402.2 11.06 L-402.4 10.08 L-402.6 9.094 L-402.7 8.112 L-402.9 7.131 L-403.1 6.149 L-403.2 5.168 L-403.4 4.186 L-403.5 3.205 L-403.7 2.223 L-403.9 1.242 L-404 0.26 L-403 0.09831 L-402.1 -0.06338 L-401.1 -0.2251 L-400.1 -0.3868 L-399.1 -0.5485 L-398.1 -0.7102 L-397.2 -0.8718 L-396.2 -1.034 L-395.2 -1.195 L-394.2 -1.357 L-393.2 -1.519 L-392.2 -1.68 L-391.3 -1.842 L-390.3 -2.004 L-389.3 -2.165 L-388.3 -2.327 L-387.3 -2.489 L-386.4 -2.65 L-385.4 -2.812 L-384.4 -2.974 L-383.4 -3.136 L-382.4 -3.297 L-381.5 -3.459 L-380.5 -3.621 L-379.5 -3.782 Z " />
<path stroke="rgb(0,0,0)" stroke-opacity="1" fill="rgb(255,255,255)" fill-opacity="1" d="M-99.64 187.7 L-98.65 187.7 L-97.67 187.9 L-96.7 188.1 L-95.74 188.3 L-94.82 188.7 L-93.92 189.1 L-93.06 189.6 L-92.24 190.2 L-91.47 190.8 L-90.75 191.5 L-90.09 192.2 L-89.49 193 L-88.95 193.8 L-88.48 194.7 L-88.08 195.6 L-87.76 196.5 L-87.51 197.5 L-87.34 198.5 L-87.24 199.5 L-87.23 200.5 L-87.29 201.4 L-87.43 202.4 L-87.65 203.4 L-87.94 204.3 L-88.31 205.3 L-88.75 206.1 L-89.26 207 L-89.84 207.8 L-90.48 208.6 L-91.17 209.3 L-91.92 209.9 L-92.72 210.5 L-93.57 211 L-94.45 211.5 L-95.37 211.8 L-96.31 212.2 L-97.27 212.4 L-98.25 212.5 L-99.24 212.6 L-100.2 212.6 L-101.2 212.5 L-102.2 212.4 L-103.2 212.1 L-104.1 211.8 L-105 211.4 L-105.9 211 L-106.7 210.4 L-107.5 209.9 L-108.3 209.2 L-109 208.5 L-109.6 207.7 L-110.2 206.9 L-110.7 206.1 L-111.1 205.2 L-111.5 204.2 L-111.8 203.3 L-112 202.3 L-112.1 201.3 L-112.2 200.4 L-112.1 199.4 L-112 198.4 L-111.8 197.4 L-111.6 196.4 L-111.3 195.5 L-110.9 194.6 L-110.4 193.7 L-109.8 192.9 L-109.2 192.1 L-108.6 191.4 L-107.8 190.7 L-107.1 190.1 L-106.2 189.5 L-105.4 189.1 L-104.5 188.6 L-103.5 188.3 L-102.6 188 L-101.6 187.8 L-100.6 187.7 L-99.64 187.7 Z " />
<path stroke="rgb(0,0,0)" stroke-opacity="1" fill="rgb(255,255,255)" fill-opacity="1" d="M-167.6 9.837 L-167.2 10.75 L-166.8 11.66 L-166.4 12.58 L-166 13.49 L-165.6 14.4 L-165.2 15.31 L-164.8 16.23 L-164.4 17.14 L-164 18.05 L-163.6 18.96 L-163.2 19.88 L-162.8 20.79 L-162.4 21.7 L-162 22.61 L-161.6 23.53 L-161.2 24.44 L-160.8 25.35 L-160.4 26.27 L-160 27.18 L-159.7 28.09 L-159.3 29 L-158.9 29.92 L-158.5 30.83 L-158.1 31.74 L-157.7 32.65 L-158.6 33.05 L-159.5 33.45 L-160.4 33.84 L-161.3 34.24 L-162.2 34.64 L-163.1 35.03 L-164.1 35.43 L-165 35.82 L-165.9 36.22 L-166.8 36.62 L-167.7 37.01 L-168.6 37.41 L-169.5 37.8 L-170.4 38.2 L-171.4 38.6 L-172.3 38.99 L-173.2 39.39 L-174.1 39.78 L-175 40.18 L-175.9 40.58 L-176.8 40.97 L-177.8 41.37 L-178.7 41.76 L-179.6 42.16 L-180.5 42.56 L-180.9 41.64 L-181.3 40.73 L-181.7 39.82 L-182.1 38.9 L-182.5 37.99 L-182.9 37.08 L-183.3 36.17 L-183.7 35.25 L-184.1 34.34 L-184.4 33.43 L-184.8 32.52 L-185.2 31.6 L-185.6 30.69 L-186 29.78 L-186.4 28.86 L-186.8 27.95 L-187.2 27.04 L-187.6 26.13 L-188 25.21 L-188.4 24.3 L-188.8 23.39 L-189.2 22.48 L-189.6 21.56 L-190 20.65 L-190.4 19.74 L-189.5 19.34 L-188.6 18.95 L-187.7 18.55 L-186.7 18.15 L-185.8 17.76 L-184.9 17.36 L-184 16.97 L-183.1 16.57 L-182.2 16.17 L-181.3 15.78 L-180.3 15.38 L-179.4 14.99 L-178.5 14.59 L-177.6 14.19 L-176.7 13.8 L-175.8 13.4 L-174.9 13.01 L-174 12.61 L-173 12.21 L-172.1 11.82 L-171.2 11.42 L-170.3 11.02 L-169.4 10.63 L-168.5 10.23 L-167.6 9.837 Z " />
<path stroke="rgb(0,0,0)" stroke-opacity="1" fill="rgb(255,255,255)" fill-opacity="1" d="M100.4 187.7 L101.3 187.7 L102.3 187.9 L103.3 188.1 L104.3 188.3 L105.2 188.7 L106.1 189.1 L106.9 189.6 L107.8 190.2 L108.5 190.8 L109.2 191.5 L109.9 192.2 L110.5 193 L111 193.8 L111.5 194.7 L111.9 195.6 L112.2 196.5 L112.5 197.5 L112.7 198.5 L112.8 199.5 L112.8 200.5 L112.7 201.4 L112.6 202.4 L112.4 203.4 L112.1 204.3 L111.7 205.3 L111.2 206.1 L110.7 207 L110.2 207.8 L109.5 208.6 L108.8 209.3 L108.1 209.9 L107.3 210.5 L106.4 211 L105.6 211.5 L104.6 211.8 L103.7 212.2 L102.7 212.4 L101.7 212.5 L100.8 212.6 L99.77 212.6 L98.78 212.5 L97.8 212.4 L96.84 212.1 L95.9 211.8 L94.99 211.4 L94.11 211 L93.27 210.4 L92.48 209.9 L91.73 209.2 L91.04 208.5 L90.41 207.7 L89.84 206.9 L89.33 206.1 L88.9 205.2 L88.54 204.2 L88.25 203.3 L88.04 202.3 L87.9 201.3 L87.85 200.4 L87.87 199.4 L87.97 198.4 L88.15 197.4 L88.41 196.4 L88.74 195.5 L89.15 194.6 L89.62 193.7 L90.17 192.9 L90.78 192.1 L91.44 191.4 L92.17 190.7 L92.94 190.1 L93.76 189.5 L94.63 189.1 L95.53 188.6 L96.46 188.3 L97.41 188 L98.38 187.8 L99.37 187.7 L100.4 187.7 Z " />
<path stroke="rgb(0,0,0)" stroke-opacity="1" fill="rgb(255,255,255)" fill-opacity="1" d="M51.69 34.93 L52.42 35.61 L53.15 36.29 L53.88 36.96 L54.61 37.64 L55.34 38.32 L56.07 39 L56.8 39.67 L57.53 40.35 L58.26 41.03 L58.99 41.7 L59.72 42.38 L60.45 43.06 L61.18 43.73 L61.9 44.41 L62.63 45.09 L63.36 45.77 L64.09 46.44 L64.82 47.12 L65.55 47.8 L66.28 48.47 L67.01 49.15 L67.74 49.83 L68.47 50.51 L69.2 51.18 L69.93 51.86 L69.25 52.59 L68.57 53.32 L67.9 54.05 L67.22 54.78 L66.54 55.51 L65.87 56.24 L65.19 56.97 L64.51 57.7 L63.83 58.43 L63.16 59.15 L62.48 59.88 L61.8 60.61 L61.13 61.34 L60.45 62.07 L59.77 62.8 L59.09 63.53 L58.42 64.26 L57.74 64.99 L57.06 65.72 L56.39 66.45 L55.71 67.18 L55.03 67.91 L54.36 68.64 L53.68 69.37 L53 70.1 L52.27 69.42 L51.54 68.74 L50.81 68.06 L50.08 67.39 L49.35 66.71 L48.62 66.03 L47.9 65.36 L47.17 64.68 L46.44 64 L45.71 63.33 L44.98 62.65 L44.25 61.97 L43.52 61.29 L42.79 60.62 L42.06 59.94 L41.33 59.26 L40.6 58.59 L39.87 57.91 L39.14 57.23 L38.41 56.55 L37.68 55.88 L36.95 55.2 L36.22 54.52 L35.49 53.85 L34.77 53.17 L35.44 52.44 L36.12 51.71 L36.8 50.98 L37.47 50.25 L38.15 49.52 L38.83 48.79 L39.5 48.06 L40.18 47.33 L40.86 46.6 L41.54 45.87 L42.21 45.14 L42.89 44.42 L43.57 43.69 L44.24 42.96 L44.92 42.23 L45.6 41.5 L46.28 40.77 L46.95 40.04 L47.63 39.31 L48.31 38.58 L48.98 37.85 L49.66 37.12 L50.34 36.39 L51.02 35.66 L51.69 34.93 Z " />
<path stroke="rgb(0,0,0)" stroke-opacity="1" fill="rgb(255,255,255)" fill-opacity="1" d="M300.4 187.7 L301.3 187.7 L302.3 187.9 L303.3 188.1 L304.3 188.3 L305.2 188.7 L306.1 189.1 L306.9 189.6 L307.8 190.2 L308.5 190.8 L309.2 191.5 L309.9 192.2 L310.5 193 L311 193.8 L311.5 194.7 L311.9 195.6 L312.2 196.5 L312.5 197.5 L312.7 198.5 L312.8 199.5 L312.8 200.5 L312.7 201.4 L312.6 202.4 L312.4 203.4 L312.1 204.3 L311.7 205.3 L311.2 206.1 L310.7 207 L310.2 207.8 L309.5 208.6 L308.8 209.3 L308.1 209.9 L307.3 210.5 L306.4 211 L305.6 211.5 L304.6 211.8 L303.7 212.2 L302.7 212.4 L301.7 212.5 L300.8 212.6 L299.8 212.6 L298.8 212.5 L297.8 212.4 L296.8 212.1 L295.9 211.8 L295 211.4 L294.1 211 L293.3 210.4 L292.5 209.9 L291.7 209.2 L291 208.5 L290.4 207.7 L289.8 206.9 L289.3 206.1 L288.9 205.2 L288.5 204.2 L288.2 203.3 L288 202.3 L287.9 201.3 L287.8 200.4 L287.9 199.4 L288 198.4 L288.2 197.4 L288.4 196.4 L288.7 195.5 L289.1 194.6 L289.6 193.7 L290.2 192.9 L290.8 192.1 L291.4 191.4 L292.2 190.7 L292.9 190.1 L293.8 189.5 L294.6 189.1 L295.5 188.6 L296.5 188.3 L297.4 188 L298.4 187.8 L299.4 187.7 L300.4 187.7 Z " />
<path stroke="rgb(0,0,0)" stroke-opacity="1" fill="rgb(255,255,255)" fill-opacity="1" d="M-479.5 96.22 L-479.3 97.2 L-479.2 98.18 L-479 99.16 L-478.8 100.1 L-478.7 101.1 L-478.5 102.1 L-478.4 103.1 L-478.2 104.1 L-478 105.1 L-477.9 106 L-477.7 107 L-477.5 108 L-477.4 109 L-477.2 110 L-477.1 110.9 L-476.9 111.9 L-476.7 112.9 L-476.6 113.9 L-476.4 114.9 L-476.3 115.8 L-476.1 116.8 L-475.9 117.8 L-475.8 118.8 L-475.6 119.8 L-475.4 120.8 L-476.4 120.9 L-477.4 121.1 L-478.4 121.2 L-479.4 121.4 L-480.4 121.6 L-481.3 121.7 L-482.3 121.9 L-483.3 122 L-484.3 122.2 L-485.3 122.4 L-486.2 122.5 L-487.2 122.7 L-488.2 122.9 L-489.2 123 L-490.2 123.2 L-491.1 123.3 L-492.1 123.5 L-493.1 123.7 L-494.1 123.8 L-495.1 124 L-496.1 124.2 L-497 124.3 L-498 124.5 L-499 124.6 L-500 124.8 L-500.1 123.8 L-500.3 122.8 L-500.5 121.9 L-500.6 120.9 L-500.8 119.9 L-501 118.9 L-501.1 117.9 L-501.3 116.9 L-501.4 116 L-501.6 115 L-501.8 114 L-501.9 113 L-502.1 112 L-502.2 111.1 L-502.4 110.1 L-502.6 109.1 L-502.7 108.1 L-502.9 107.1 L-503.1 106.1 L-503.2 105.2 L-503.4 104.2 L-503.5 103.2 L-503.7 102.2 L-503.9 101.2 L-504 100.3 L-503 100.1 L-502.1 99.94 L-501.1 99.77 L-500.1 99.61 L-499.1 99.45 L-498.1 99.29 L-497.2 99.13 L-496.2 98.97 L-495.2 98.8 L-494.2 98.64 L-493.2 98.48 L-492.2 98.32 L-491.3 98.16 L-490.3 98 L-489.3 97.83 L-488.3 97.67 L-487.3 97.51 L-486.4 97.35 L-485.4 97.19 L-484.4 97.03 L-483.4 96.86 L-482.4 96.7 L-481.5 96.54 L-480.5 96.38 L-479.5 96.22 Z " />
<path stroke="rgb(0,0,0)" stroke-opacity="1" fill="rgb(255,255,255)" fill-opacity="1" d="M-199.6 287.7 L-198.7 287.7 L-197.7 287.9 L-196.7 288.1 L-195.7 288.3 L-194.8 288.7 L-193.9 289.1 L-193.1 289.6 L-192.2 290.2 L-191.5 290.8 L-190.8 291.5 L-190.1 292.2 L-189.5 293 L-189 293.8 L-188.5 294.7 L-188.1 295.6 L-187.8 296.5 L-187.5 297.5 L-187.3 298.5 L-187.2 299.5 L-187.2 300.5 L-187.3 301.4 L-187.4 302.4 L-187.6 303.4 L-187.9 304.3 L-188.3 305.3 L-188.8 306.1 L-189.3 307 L-189.8 307.8 L-190.5 308.6 L-191.2 309.3 L-191.9 309.9 L-192.7 310.5 L-193.6 311 L-194.4 311.5 L-195.4 311.8 L-196.3 312.2 L-197.3 312.4 L-198.3 312.5 L-199.2 312.6 L-200.2 312.6 L-201.2 312.5 L-202.2 312.4 L-203.2 312.1 L-204.1 311.8 L-205 311.4 L-205.9 311 L-206.7 310.4 L-207.5 309.9 L-208.3 309.2 L-209 308.5 L-209.6 307.7 L-210.2 306.9 L-210.7 306.1 L-211.1 305.2 L-211.5 304.2 L-211.8 303.3 L-212 302.3 L-212.1 301.3 L-212.2 300.4 L-212.1 299.4 L-212 298.4 L-211.8 297.4 L-211.6 296.4 L-211.3 295.5 L-210.9 294.6 L-210.4 293.7 L-209.8 292.9 L-209.2 292.1 L-208.6 291.4 L-207.8 290.7 L-207.1 290.1 L-206.2 289.5 L-205.4 289.1 L-204.5 288.6 L-203.5 288.3 L-202.6 288 L-201.6 287.8 L-200.6 287.7 L-199.6 287.7 Z " />
<path stroke="rgb(0,0,0)" stroke-opacity="1" fill="rgb(255,255,255)" fill-opacity="1" d="M-267.6 109.8 L-267.2 110.7 L-266.8 111.7 L-266.4 112.6 L-266 113.5 L-265.6 114.4 L-265.2 115.3 L-264.8 116.2 L-264.4 117.1 L-264 118.1 L-263.6 119 L-263.2 119.9 L-262.8 120.8 L-262.4 121.7 L-262 122.6 L-261.6 123.5 L-261.2 124.4 L-260.8 125.4 L-260.4 126.3 L-260 127.2 L-259.7 128.1 L-259.3 129 L-258.9 129.9 L-258.5 130.8 L-258.1 131.7 L-257.7 132.7 L-258.6 133.1 L-259.5 133.4 L-260.4 133.8 L-261.3 134.2 L-262.2 134.6 L-263.1 135 L-264.1 135.4 L-265 135.8 L-265.9 136.2 L-266.8 136.6 L-267.7 137 L-268.6 137.4 L-269.5 137.8 L-270.4 138.2 L-271.4 138.6 L-272.3 139 L-273.2 139.4 L-274.1 139.8 L-275 140.2 L-275.9 140.6 L-276.8 141 L-277.8 141.4 L-278.7 141.8 L-279.6 142.2 L-280.5 142.6 L-280.9 141.6 L-281.3 140.7 L-281.7 139.8 L-282.1 138.9 L-282.5 138 L-282.9 137.1 L-283.3 136.2 L-283.7 135.3 L-284.1 134.3 L-284.4 133.4 L-284.8 132.5 L-285.2 131.6 L-285.6 130.7 L-286 129.8 L-286.4 128.9 L-286.8 128 L-287.2 127 L-287.6 126.1 L-288 125.2 L-288.4 124.3 L-288.8 123.4 L-289.2 122.5 L-289.6 121.6 L-290 120.7 L-290.4 119.7 L-289.5 119.3 L-288.6 118.9 L-287.7 118.5 L-286.7 118.2 L-285.8 117.8 L-284.9 117.4 L-284 117 L-283.1 116.6 L-282.2 116.2 L-281.3 115.8 L-280.3 115.4 L-279.4 115 L-278.5 114.6 L-277.6 114.2 L-276.7 113.8 L-275.8 113.4 L-274.9 113 L-274 112.6 L-273 112.2 L-272.1 111.8 L-271.2 111.4 L-270.3 111 L-269.4 110.6 L-268.5 110.2 L-267.6 109.8 Z " />
<path stroke="rgb(0,0,0)" stroke-opacity="1" fill="rgb(255,255,255)" fill-opacity="1" d="M0.3584 287.7 L1.349 287.7 L2.332 287.9 L3.303 288.1 L4.255 288.3 L5.182 288.7 L6.078 289.1 L6.938 289.6 L7.756 290.2 L8.527 290.8 L9.246 291.5 L9.908 292.2 L10.51 293 L11.05 293.8 L11.52 294.7 L11.92 295.6 L12.24 296.5 L12.49 297.5 L12.66 298.5 L12.76 299.5 L12.77 300.5 L12.71 301.4 L12.57 302.4 L12.35 303.4 L12.06 304.3 L11.69 305.3 L11.25 306.1 L10.74 307 L10.16 307.8 L9.522 308.6 L8.825 309.3 L8.075 309.9 L7.276 310.5 L6.432 311 L5.55 311.5 L4.635 311.8 L3.692 312.2 L2.729 312.4 L1.749 312.5 L0.761 312.6 L-0.2301 312.6 L-1.218 312.5 L-2.196 312.4 L-3.158 312.1 L-4.098 311.8 L-5.011 311.4 L-5.889 311 L-6.729 310.4 L-7.524 309.9 L-8.269 309.2 L-8.96 308.5 L-9.593 307.7 L-10.16 306.9 L-10.67 306.1 L-11.1 305.2 L-11.46 304.2 L-11.75 303.3 L-11.96 302.3 L-12.1 301.3 L-12.15 300.4 L-12.13 299.4 L-12.03 298.4 L-11.85 297.4 L-11.59 296.4 L-11.26 295.5 L-10.85 294.6 L-10.38 293.7 L-9.832 292.9 L-9.225 292.1 L-8.557 291.4 L-7.833 290.7 L-7.057 290.1 L-6.235 289.5 L-5.372 289.1 L-4.473 288.6 L-3.543 288.3 L-2.589 288 L-1.617 287.8 L-0.6321 287.7 L0.3584 287.7 Z " />
<path stroke="rgb(0,0,0)" stroke-opacity="1" fill="rgb(255,255,255)" fill-opacity="1" d="M-48.31 134.9 L-47.58 135.6 L-46.85 136.3 L-46.12 137 L-45.39 137.6 L-44.66 138.3 L-43.93 139 L-43.2 139.7 L-42.47 140.3 L-41.74 141 L-41.01 141.7 L-40.28 142.4 L-39.55 143.1 L-38.82 143.7 L-38.1 144.4 L-37.37 145.1 L-36.64 145.8 L-35.91 146.4 L-35.18 147.1 L-34.45 147.8 L-33.72 148.5 L-32.99 149.2 L-32.26 149.8 L-31.53 150.5 L-30.8 151.2 L-30.07 151.9 L-30.75 152.6 L-31.43 153.3 L-32.1 154 L-32.78 154.8 L-33.46 155.5 L-34.13 156.2 L-34.81 157 L-35.49 157.7 L-36.17 158.4 L-36.84 159.2 L-37.52 159.9 L-38.2 160.6 L-38.87 161.3 L-39.55 162.1 L-40.23 162.8 L-40.91 163.5 L-41.58 164.3 L-42.26 165 L-42.94 165.7 L-43.61 166.4 L-44.29 167.2 L-44.97 167.9 L-45.64 168.6 L-46.32 169.4 L-47 170.1 L-47.73 169.4 L-48.46 168.7 L-49.19 168.1 L-49.92 167.4 L-50.65 166.7 L-51.38 166 L-52.1 165.4 L-52.83 164.7 L-53.56 164 L-54.29 163.3 L-55.02 162.6 L-55.75 162 L-56.48 161.3 L-57.21 160.6 L-57.94 159.9 L-58.67 159.3 L-59.4 158.6 L-60.13 157.9 L-60.86 157.2 L-61.59 156.6 L-62.32 155.9 L-63.05 155.2 L-63.78 154.5 L-64.51 153.8 L-65.23 153.2 L-64.56 152.4 L-63.88 151.7 L-63.2 151 L-62.53 150.3 L-61.85 149.5 L-61.17 148.8 L-60.5 148.1 L-59.82 147.3 L-59.14 146.6 L-58.46 145.9 L-57.79 145.1 L-57.11 144.4 L-56.43 143.7 L-55.76 143 L-55.08 142.2 L-54.4 141.5 L-53.72 140.8 L-53.05 140 L-52.37 139.3 L-51.69 138.6 L-51.02 137.9 L-50.34 137.1 L-49.66 136.4 L-48.98 135.7 L-48.31 134.9 Z " />
<path stroke="rgb(0,0,0)" stroke-opacity="1" fill="rgb(255,255,255)" fill-opacity="1" d="M200.4 287.7 L201.3 287.7 L202.3 287.9 L203.3 288.1 L204.3 288.3 L205.2 288.7 L206.1 289.1 L206.9 289.6 L207.8 290.2 L208.5 290.8 L209.2 291.5 L209.9 292.2 L210.5 293 L211 293.8 L211.5 294.7 L211.9 295.6 L212.2 296.5 L212.5 297.5 L212.7 298.5 L212.8 299.5 L212.8 300.5 L212.7 301.4 L212.6 302.4 L212.4 303.4 L212.1 304.3 L211.7 305.3 L211.2 306.1 L210.7 307 L210.2 307.8 L209.5 308.6 L208.8 309.3 L208.1 309.9 L207.3 310.5 L206.4 311 L205.6 311.5 L204.6 311.8 L203.7 312.2 L202.7 312.4 L201.7 312.5 L200.8 312.6 L199.8 312.6 L198.8 312.5 L197.8 312.4 L196.8 312.1 L195.9 311.8 L195 311.4 L194.1 311 L193.3 310.4 L192.5 309.9 L191.7 309.2 L191 308.5 L190.4 307.7 L189.8 306.9 L189.3 306.1 L188.9 305.2 L188.5 304.2 L188.2 303.3 L188 302.3 L187.9 301.3 L187.8 300.4 L187.9 299.4 L188 298.4 L188.2 297.4 L188.4 296.4 L188.7 295.5 L189.1 294.6 L189.6 293.7 L190.2 292.9 L190.8 292.1 L191.4 291.4 L192.2 290.7 L192.9 290.1 L193.8 289.5 L194.6 289.1 L195.5 288.6 L196.5 288.3 L197.4 288 L198.4 287.8 L199.4 287.7 L200.4 287.7 Z " />
<path stroke="rgb(0,0,0)" stroke-opacity="1" fill="rgb(255,255,255)" fill-opacity="1" d="M169.6 160.9 L170.6 161.2 L171.5 161.6 L172.4 161.9 L173.4 162.3 L174.3 162.6 L175.2 163 L176.1 163.3 L177.1 163.7 L178 164 L178.9 164.4 L179.9 164.8 L180.8 165.1 L181.7 165.5 L182.7 165.8 L183.6 166.2 L184.5 166.5 L185.5 166.9 L186.4 167.2 L187.3 167.6 L188.2 168 L189.2 168.3 L190.1 168.7 L191 169 L192 169.4 L192.9 169.7 L192.5 170.7 L192.2 171.6 L191.8 172.5 L191.5 173.4 L191.1 174.4 L190.8 175.3 L190.4 176.2 L190.1 177.2 L189.7 178.1 L189.3 179 L189 180 L188.6 180.9 L188.3 181.8 L187.9 182.7 L187.6 183.7 L187.2 184.6 L186.9 185.5 L186.5 186.5 L186.1 187.4 L185.8 188.3 L185.4 189.3 L185.1 190.2 L184.7 191.1 L184.4 192 L184 193 L183.1 192.6 L182.2 192.3 L181.2 191.9 L180.3 191.6 L179.4 191.2 L178.4 190.8 L177.5 190.5 L176.6 190.1 L175.6 189.8 L174.7 189.4 L173.8 189.1 L172.9 188.7 L171.9 188.4 L171 188 L170.1 187.7 L169.1 187.3 L168.2 186.9 L167.3 186.6 L166.3 186.2 L165.4 185.9 L164.5 185.5 L163.6 185.2 L162.6 184.8 L161.7 184.5 L160.8 184.1 L161.1 183.2 L161.5 182.2 L161.8 181.3 L162.2 180.4 L162.5 179.5 L162.9 178.5 L163.2 177.6 L163.6 176.7 L164 175.7 L164.3 174.8 L164.7 173.9 L165 172.9 L165.4 172 L165.7 171.1 L166.1 170.2 L166.4 169.2 L166.8 168.3 L167.2 167.4 L167.5 166.4 L167.9 165.5 L168.2 164.6 L168.6 163.6 L168.9 162.7 L169.3 161.8 L169.6 160.9 Z " />
</g>
</g>
</svg>
