<!DOCTYPE svg>
<svg xmlns="http://www.w3.org/2000/svg" xmlns:xlink="http://www.w3.org/1999/xlink" width="560" height="560">
<g transform="translate(280.000000,280.000000)">
<g transform="scale(3.000000,3.000000)">
<path stroke="rgb(0,0,0)" stroke-opacity="1" fill="rgb(255,255,255)" fill-opacity="1" d="M-887.9 -912.2 L-888 -911.2 L-888 -910.2 L-888 -909.2 L-888 -908.3 L-888 -907.3 L-888 -906.3 L-888 -905.3 L-888 -904.4 L-888.1 -903.4 L-888.1 -902.4 L-888.1 -901.4 L-888.1 -900.4 L-888.1 -899.5 L-888.1 -898.5 L-888.1 -897.5 L-888.2 -896.5 L-888.2 -895.5 L-888.2 -894.6 L-888.2 -893.6 L-888.2 -892.6 L-888.2 -891.6 L-888.2 -890.6 L-888.3 -889.7 L-888.3 -888.7 L-888.3 -887.7 L-889.3 -887.7 L-890.2 -887.7 L-891.2 -887.7 L-892.2 -887.8 L-893.2 -887.8 L-894.2 -887.8 L-895.1 -887.8 L-896.1 -887.8 L-897.1 -887.8 L-898.1 -887.8 L-899.1 -887.8 L-900 -887.9 L-901 -887.9 L-902 -887.9 L-903 -887.9 L-904 -887.9 L-904.9 -887.9 L-905.9 -887.9 L-906.9 -888 L-907.9 -888 L-908.9 -888 L-909.8 -888 L-910.8 -888 L-911.8 -888 L-912.8 -888 L-912.8 -889 L-912.7 -890 L-912.7 -891 L-912.7 -892 L-912.7 -892.9 L-912.7 -893.9 L-912.7 -894.9 L-912.7 -895.9 L-912.7 -896.9 L-912.6 -897.8 L-912.6 -898.8 L-912.6 -899.8 L-912.6 -900.8 L-912.6 -901.8 L-912.6 -902.7 L-912.6 -903.7 L-912.5 -904.7 L-912.5 -905.7 L-912.5 -906.7 L-912.5 -907.6 L-912.5 -908.6 L-912.5 -909.6 L-912.5 -910.6 L-912.4 -911.6 L-912.4 -912.5 L-911.5 -912.5 L-910.5 -912.5 L-909.5 -912.5 L-908.5 -912.5 L-907.5 -912.5 L-906.6 -912.5 L-905.6 -912.4 L-904.6 -912.4 L-903.6 -912.4 L-902.6 -912.4 L-901.7 -912.4 L-900.7 -912.4 L-899.7 -912.4 L-898.7 -912.3 L-897.7 -912.3 L-896.8 -912.3 L-895.8 -912.3 L-894.8 -912.3 L-893.8 -912.3 L-892.8 -912.3 L-891.9 -912.2 L-890.9 -912.2 L-889.9 -912.2 L-888.9 -912.2 L-887.9 -912.2 Z " />
<path stroke="rgb(0,0,0)" stroke-opacity="1" fill="rgb(255,255,255)" fill-opacity="1" d="M-178.8 -302.1 L-179 -300.1 L-179.3 -298.2 L-179.8 -296.3 L-180.4 -294.5 L-181.2 -292.7 L-182.1 -290.9 L-183.2 -289.3 L-184.4 -287.7 L-185.7 -286.3 L-187.1 -284.9 L-188.6 -283.7 L-190.2 -282.6 L-191.9 -281.6 L-193.7 -280.8 L-195.5 -280.1 L-197.4 -279.5 L-199.3 -279.1 L-201.3 -278.9 L-203.2 -278.8 L-205.2 -278.8 L-207.1 -279.1 L-209 -279.4 L-210.9 -280 L-212.8 -280.6 L-214.5 -281.4 L-216.3 -282.4 L-217.9 -283.5 L-219.4 -284.7 L-220.9 -286 L-222.2 -287.5 L-223.4 -289 L-224.5 -290.7 L-225.4 -292.4 L-226.2 -294.2 L-226.9 -296 L-227.4 -297.9 L-227.7 -299.8 L-228 -301.8 L-228 -303.7 L-227.9 -305.7 L-227.6 -307.6 L-227.2 -309.5 L-226.7 -311.4 L-226 -313.2 L-225.1 -315 L-224.1 -316.7 L-223 -318.3 L-221.7 -319.8 L-220.4 -321.2 L-218.9 -322.5 L-217.3 -323.7 L-215.7 -324.7 L-214 -325.6 L-212.2 -326.4 L-210.3 -327 L-208.4 -327.5 L-206.5 -327.8 L-204.5 -328 L-202.6 -328 L-200.6 -327.9 L-198.7 -327.6 L-196.8 -327.1 L-194.9 -326.5 L-193.1 -325.8 L-191.3 -324.9 L-189.7 -323.9 L-188.1 -322.7 L-186.6 -321.4 L-185.2 -320 L-184 -318.6 L-182.8 -317 L-181.8 -315.3 L-180.9 -313.5 L-180.2 -311.7 L-179.6 -309.8 L-179.2 -307.9 L-178.9 -306 L-178.8 -304 L-178.8 -302.1 Z " />
<path stroke="rgb(0,0,0)" stroke-opacity="1" fill="rgb(255,255,255)" fill-opacity="1" d="M-687.9 -912.2 L-688 -911.2 L-688 -910.2 L-688 -909.2 L-688 -908.3 L-688 -907.3 L-688 -906.3 L-688 -905.3 L-688 -904.4 L-688.1 -903.4 L-688.1 -902.4 L-688.1 -901.4 L-688.1 -900.4 L-688.1 -899.5 L-688.1 -898.5 L-688.1 -897.5 L-688.2 -896.5 L-688.2 -895.5 L-688.2 -894.6 L-688.2 -893.6 L-688.2 -892.6 L-688.2 -891.6 L-688.2 -890.6 L-688.3 -889.7 L-688.3 -888.7 L-688.3 -887.7 L-689.3 -887.7 L-690.2 -887.7 L-691.2 -887.7 L-692.2 -887.8 L-693.2 -887.8 L-694.2 -887.8 L-695.1 -887.8 L-696.1 -887.8 L-697.1 -887.8 L-698.1 -887.8 L-699.1 -887.8 L-700 -887.9 L-701 -887.9 L-702 -887.9 L-703 -887.9 L-704 -887.9 L-704.9 -887.9 L-705.9 -887.9 L-706.9 -888 L-707.9 -888 L-708.9 -888 L-709.8 -888 L-710.8 -888 L-711.8 -888 L-712.8 -888 L-712.8 -889 L-712.7 -890 L-712.7 -891 L-712.7 -892 L-712.7 -892.9 L-712.7 -893.9 L-712.7 -894.9 L-712.7 -895.9 L-712.7 -896.9 L-712.6 -897.8 L-712.6 -898.8 L-712.6 -899.8 L-712.6 -900.8 L-712.6 -901.8 L-712.6 -902.7 L-712.6 -903.7 L-712.5 -904.7 L-712.5 -905.7 L-712.5 -906.7 L-712.5 -907.6 L-712.5 -908.6 L-712.5 -909.6 L-712.5 -910.6 L-712.4 -911.6 L-712.4 -912.5 L-711.5 -912.5 L-710.5 -912.5 L-709.5 -912.5 L-708.5 -912.5 L-707.5 -912.5 L-706.6 -912.5 L-705.6 -912.4 L-704.6 -912.4 L-703.6 -912.4 L-702.6 -912.4 L-701.7 -912.4 L-700.7 -912.4 L-699.7 -912.4 L-698.7 -912.3 L-697.7 -912.3 L-696.8 -912.3 L-695.8 -912.3 L-694.8 -912.3 L-693.8 -912.3 L-692.8 -912.3 L-691.9 -912.2 L-690.9 -912.2 L-689.9 -912.2 L-688.9 -912.2 L-687.9 -912.2 Z " />
<path stroke="rgb(0,0,0)" stroke-opacity="1" fill="rgb(255,255,255)" fill-opacity="1" d="M24.32 -300.2 L24.23 -298.2 L23.99 -296.3 L23.59 -294.4 L23.04 -292.5 L22.35 -290.7 L21.51 -288.9 L20.53 -287.2 L19.42 -285.6 L18.19 -284.1 L16.84 -282.6 L15.38 -281.3 L13.83 -280.2 L12.18 -279.1 L10.45 -278.2 L8.658 -277.4 L6.807 -276.7 L4.911 -276.2 L2.983 -275.9 L1.033 -275.7 L-0.9255 -275.7 L-2.88 -275.8 L-4.818 -276.1 L-6.728 -276.5 L-8.597 -277.1 L-10.41 -277.9 L-12.17 -278.7 L-13.84 -279.7 L-15.44 -280.9 L-16.93 -282.1 L-18.33 -283.5 L-19.6 -285 L-20.76 -286.6 L-21.79 -288.3 L-22.68 -290 L-23.43 -291.8 L-24.03 -293.7 L-24.48 -295.6 L-24.78 -297.5 L-24.93 -299.5 L-24.92 -301.4 L-24.75 -303.4 L-24.43 -305.3 L-23.96 -307.2 L-23.34 -309.1 L-22.57 -310.9 L-21.66 -312.6 L-20.62 -314.3 L-19.45 -315.8 L-18.16 -317.3 L-16.75 -318.7 L-15.24 -319.9 L-13.64 -321 L-11.95 -322 L-10.19 -322.9 L-8.365 -323.6 L-6.49 -324.2 L-4.576 -324.6 L-2.635 -324.8 L-0.6798 -324.9 L1.278 -324.9 L3.226 -324.7 L5.151 -324.3 L7.042 -323.8 L8.887 -323.2 L10.67 -322.4 L12.39 -321.4 L14.03 -320.3 L15.57 -319.1 L17.02 -317.8 L18.35 -316.4 L19.57 -314.9 L20.66 -313.2 L21.62 -311.5 L22.44 -309.7 L23.12 -307.9 L23.65 -306 L24.03 -304.1 L24.25 -302.2 L24.32 -300.2 Z " />
<path stroke="rgb(0,0,0)" stroke-opacity="1" fill="rgb(255,255,255)" fill-opacity="1" d="M-487.9 -912.2 L-488 -911.2 L-488 -910.2 L-488 -909.2 L-488 -908.3 L-488 -907.3 L-488 -906.3 L-488 -905.3 L-488 -904.4 L-488.1 -903.4 L-488.1 -902.4 L-488.1 -901.4 L-488.1 -900.4 L-488.1 -899.5 L-488.1 -898.5 L-488.1 -897.5 L-488.2 -896.5 L-488.2 -895.5 L-488.2 -894.6 L-488.2 -893.6 L-488.2 -892.6 L-488.2 -891.6 L-488.2 -890.6 L-488.3 -889.7 L-488.3 -888.7 L-488.3 -887.7 L-489.3 -887.7 L-490.2 -887.7 L-491.2 -887.7 L-492.2 -887.8 L-493.2 -887.8 L-494.2 -887.8 L-495.1 -887.8 L-496.1 -887.8 L-497.1 -887.8 L-498.1 -887.8 L-499.1 -887.8 L-500 -887.9 L-501 -887.9 L-502 -887.9 L-503 -887.9 L-504 -887.9 L-504.9 -887.9 L-505.9 -887.9 L-506.9 -888 L-507.9 -888 L-508.9 -888 L-509.8 -888 L-510.8 -888 L-511.8 -888 L-512.8 -888 L-512.8 -889 L-512.7 -890 L-512.7 -891 L-512.7 -892 L-512.7 -892.9 L-512.7 -893.9 L-512.7 -894.9 L-512.7 -895.9 L-512.7 -896.9 L-512.6 -897.8 L-512.6 -898.8 L-512.6 -899.8 L-512.6 -900.8 L-512.6 -901.8 L-512.6 -902.7 L-512.6 -903.7 L-512.5 -904.7 L-512.5 -905.7 L-512.5 -906.7 L-512.5 -907.6 L-512.5 -908.6 L-512.5 -909.6 L-512.5 -910.6 L-512.4 -911.6 L-512.4 -912.5 L-511.5 -912.5 L-510.5 -912.5 L-509.5 -912.5 L-508.5 -912.5 L-507.5 -912.5 L-506.6 -912.5 L-505.6 -912.4 L-504.6 -912.4 L-503.6 -912.4 L-502.6 -912.4 L-501.7 -912.4 L-500.7 -912.4 L-499.7 -912.4 L-498.7 -912.3 L-497.7 -912.3 L-496.8 -912.3 L-495.8 -912.3 L-494.8 -912.3 L-493.8 -912.3 L-492.8 -912.3 L-491.9 -912.2 L-490.9 -912.2 L-489.9 -912.2 L-488.9 -912.2 L-487.9 -912.2 Z " />
<path stroke="rgb(0,0,0)" stroke-opacity="1" fill="rgb(255,255,255)" fill-opacity="1" d="M224.6 -300 L224.6 -298 L224.3 -296.1 L223.9 -294.2 L223.4 -292.3 L222.7 -290.5 L221.9 -288.7 L220.9 -287 L219.8 -285.4 L218.6 -283.8 L217.2 -282.4 L215.8 -281.1 L214.2 -279.9 L212.6 -278.8 L210.9 -277.9 L209.1 -277.1 L207.2 -276.5 L205.3 -276 L203.4 -275.6 L201.5 -275.4 L199.5 -275.4 L197.6 -275.5 L195.6 -275.8 L193.7 -276.2 L191.8 -276.8 L190 -277.5 L188.3 -278.3 L186.6 -279.4 L185 -280.5 L183.5 -281.7 L182.1 -283.1 L180.8 -284.6 L179.6 -286.2 L178.6 -287.8 L177.7 -289.6 L176.9 -291.4 L176.3 -293.2 L175.9 -295.1 L175.5 -297.1 L175.4 -299 L175.4 -301 L175.5 -302.9 L175.9 -304.9 L176.3 -306.8 L176.9 -308.6 L177.7 -310.4 L178.6 -312.2 L179.6 -313.8 L180.8 -315.4 L182.1 -316.9 L183.5 -318.3 L185 -319.5 L186.6 -320.6 L188.3 -321.7 L190 -322.5 L191.8 -323.2 L193.7 -323.8 L195.6 -324.2 L197.6 -324.5 L199.5 -324.6 L201.5 -324.6 L203.4 -324.4 L205.3 -324 L207.2 -323.5 L209.1 -322.9 L210.9 -322.1 L212.6 -321.2 L214.2 -320.1 L215.8 -318.9 L217.2 -317.6 L218.6 -316.2 L219.8 -314.6 L220.9 -313 L221.9 -311.3 L222.7 -309.5 L223.4 -307.7 L223.9 -305.8 L224.3 -303.9 L224.6 -302 L224.6 -300 Z " />
<path stroke="rgb(0,0,0)" stroke-opacity="1" fill="rgb(255,255,255)" fill-opacity="1" d="M-286.9 -911.7 L-287 -910.7 L-287 -909.7 L-287.1 -908.7 L-287.2 -907.7 L-287.3 -906.7 L-287.3 -905.7 L-287.4 -904.7 L-287.5 -903.7 L-287.6 -902.7 L-287.6 -901.7 L-287.7 -900.7 L-287.8 -899.7 L-287.9 -898.7 L-287.9 -897.7 L-288 -896.7 L-288.1 -895.7 L-288.2 -894.7 L-288.2 -893.7 L-288.3 -892.7 L-288.4 -891.7 L-288.5 -890.7 L-288.5 -889.7 L-288.6 -888.7 L-288.7 -887.7 L-288.8 -886.6 L-289.8 -886.7 L-290.8 -886.8 L-291.8 -886.9 L-292.8 -886.9 L-293.8 -887 L-294.8 -887.1 L-295.8 -887.2 L-296.8 -887.2 L-297.8 -887.3 L-298.8 -887.4 L-299.8 -887.5 L-300.8 -887.5 L-301.8 -887.6 L-302.8 -887.7 L-303.8 -887.8 L-304.8 -887.8 L-305.8 -887.9 L-306.8 -888 L-307.8 -888.1 L-308.8 -888.1 L-309.8 -888.2 L-310.8 -888.3 L-311.8 -888.4 L-312.8 -888.4 L-313.8 -888.5 L-313.8 -889.5 L-313.7 -890.5 L-313.6 -891.5 L-313.5 -892.5 L-313.5 -893.5 L-313.4 -894.5 L-313.3 -895.5 L-313.2 -896.5 L-313.2 -897.5 L-313.1 -898.5 L-313 -899.5 L-312.9 -900.5 L-312.9 -901.5 L-312.8 -902.6 L-312.7 -903.6 L-312.6 -904.6 L-312.6 -905.6 L-312.5 -906.6 L-312.4 -907.6 L-312.4 -908.6 L-312.3 -909.6 L-312.2 -910.6 L-312.1 -911.6 L-312.1 -912.6 L-312 -913.6 L-311 -913.5 L-310 -913.4 L-309 -913.4 L-308 -913.3 L-307 -913.2 L-306 -913.1 L-305 -913.1 L-304 -913 L-303 -912.9 L-301.9 -912.8 L-300.9 -912.8 L-299.9 -912.7 L-298.9 -912.6 L-297.9 -912.5 L-296.9 -912.5 L-295.9 -912.4 L-294.9 -912.3 L-293.9 -912.3 L-292.9 -912.2 L-291.9 -912.1 L-290.9 -912 L-289.9 -912 L-288.9 -911.9 L-287.9 -911.8 L-286.9 -911.7 Z " />
<path stroke="rgb(0,0,0)" stroke-opacity="1" fill="rgb(255,255,255)" fill-opacity="1" d="M-278.8 -202.1 L-279 -200.1 L-279.3 -198.2 L-279.8 -196.3 L-280.4 -194.5 L-281.2 -192.7 L-282.1 -190.9 L-283.2 -189.3 L-284.4 -187.7 L-285.7 -186.3 L-287.1 -184.9 L-288.6 -183.7 L-290.2 -182.6 L-291.9 -181.6 L-293.7 -180.8 L-295.5 -180.1 L-297.4 -179.5 L-299.3 -179.1 L-301.3 -178.9 L-303.2 -178.8 L-305.2 -178.8 L-307.1 -179.1 L-309 -179.4 L-310.9 -180 L-312.8 -180.6 L-314.5 -181.4 L-316.3 -182.4 L-317.9 -183.5 L-319.4 -184.7 L-320.9 -186 L-322.2 -187.5 L-323.4 -189 L-324.5 -190.7 L-325.4 -192.4 L-326.2 -194.2 L-326.9 -196 L-327.4 -197.9 L-327.7 -199.8 L-328 -201.8 L-328 -203.7 L-327.9 -205.7 L-327.6 -207.6 L-327.2 -209.5 L-326.7 -211.4 L-326 -213.2 L-325.1 -215 L-324.1 -216.7 L-323 -218.3 L-321.7 -219.8 L-320.4 -221.2 L-318.9 -222.5 L-317.3 -223.7 L-315.7 -224.7 L-314 -225.6 L-312.2 -226.4 L-310.3 -227 L-308.4 -227.5 L-306.5 -227.8 L-304.5 -228 L-302.6 -228 L-300.6 -227.9 L-298.7 -227.6 L-296.8 -227.1 L-294.9 -226.5 L-293.1 -225.8 L-291.3 -224.9 L-289.7 -223.9 L-288.1 -222.7 L-286.6 -221.4 L-285.2 -220 L-284 -218.6 L-282.8 -217 L-281.8 -215.3 L-280.9 -213.5 L-280.2 -211.7 L-279.6 -209.8 L-279.2 -207.9 L-278.9 -206 L-278.8 -204 L-278.8 -202.1 Z " />
<path stroke="rgb(0,0,0)" stroke-opacity="1" fill="rgb(255,255,255)" fill-opacity="1" d="M-787.9 -812.2 L-788 -811.2 L-788 -810.2 L-788 -809.2 L-788 -808.3 L-788 -807.3 L-788 -806.3 L-788 -805.3 L-788 -804.4 L-788.1 -803.4 L-788.1 -802.4 L-788.1 -801.4 L-788.1 -800.4 L-788.1 -799.5 L-788.1 -798.5 L-788.1 -797.5 L-788.2 -796.5 L-788.2 -795.5 L-788.2 -794.6 L-788.2 -793.6 L-788.2 -792.6 L-788.2 -791.6 L-788.2 -790.6 L-788.3 -789.7 L-788.3 -788.7 L-788.3 -787.7 L-789.3 -787.7 L-790.2 -787.7 L-791.2 -787.7 L-792.2 -787.8 L-793.2 -787.8 L-794.2 -787.8 L-795.1 -787.8 L-796.1 -787.8 L-797.1 -787.8 L-798.1 -787.8 L-799.1 -787.8 L-800 -787.9 L-801 -787.9 L-802 -787.9 L-803 -787.9 L-804 -787.9 L-804.9 -787.9 L-805.9 -787.9 L-806.9 -788 L-807.9 -788 L-808.9 -788 L-809.8 -788 L-810.8 -788 L-811.8 -788 L-812.8 -788 L-812.8 -789 L-812.7 -790 L-812.7 -791 L-812.7 -792 L-812.7 -792.9 L-812.7 -793.9 L-812.7 -794.9 L-812.7 -795.9 L-812.7 -796.9 L-812.6 -797.8 L-812.6 -798.8 L-812.6 -799.8 L-812.6 -800.8 L-812.6 -801.8 L-812.6 -802.7 L-812.6 -803.7 L-812.5 -804.7 L-812.5 -805.7 L-812.5 -806.7 L-812.5 -807.6 L-812.5 -808.6 L-812.5 -809.6 L-812.5 -810.6 L-812.4 -811.6 L-812.4 -812.5 L-811.5 -812.5 L-810.5 -812.5 L-809.5 -812.5 L-808.5 -812.5 L-807.5 -812.5 L-806.6 -812.5 L-805.6 -812.4 L-804.6 -812.4 L-803.6 -812.4 L-802.6 -812.4 L-801.7 -812.4 L-800.7 -812.4 L-799.7 -812.4 L-798.7 -812.3 L-797.7 -812.3 L-796.8 -812.3 L-795.8 -812.3 L-794.8 -812.3 L-793.8 -812.3 L-792.8 -812.3 L-791.9 -812.2 L-790.9 -812.2 L-789.9 -812.2 L-788.9 -812.2 L-787.9 -812.2 Z " />
<path stroke="rgb(0,0,0)" stroke-opacity="1" fill="rgb(255,255,255)" fill-opacity="1" d="M-75.68 -200.2 L-75.77 -198.2 L-76.01 -196.3 L-76.41 -194.4 L-76.96 -192.5 L-77.65 -190.7 L-78.49 -188.9 L-79.47 -187.2 L-80.58 -185.6 L-81.81 -184.1 L-83.16 -182.6 L-84.62 -181.3 L-86.17 -180.2 L-87.82 -179.1 L-89.55 -178.2 L-91.34 -177.4 L-93.19 -176.7 L-95.09 -176.2 L-97.02 -175.9 L-98.97 -175.7 L-100.9 -175.7 L-102.9 -175.8 L-104.8 -176.1 L-106.7 -176.5 L-108.6 -177.1 L-110.4 -177.9 L-112.2 -178.7 L-113.8 -179.7 L-115.4 -180.9 L-116.9 -182.1 L-118.3 -183.5 L-119.6 -185 L-120.8 -186.6 L-121.8 -188.3 L-122.7 -190 L-123.4 -191.8 L-124 -193.7 L-124.5 -195.6 L-124.8 -197.5 L-124.9 -199.5 L-124.9 -201.4 L-124.8 -203.4 L-124.4 -205.3 L-124 -207.2 L-123.3 -209.1 L-122.6 -210.9 L-121.7 -212.6 L-120.6 -214.3 L-119.4 -215.8 L-118.2 -217.3 L-116.8 -218.7 L-115.2 -219.9 L-113.6 -221 L-112 -222 L-110.2 -222.9 L-108.4 -223.6 L-106.5 -224.2 L-104.6 -224.6 L-102.6 -224.8 L-100.7 -224.9 L-98.72 -224.9 L-96.77 -224.7 L-94.85 -224.3 L-92.96 -223.8 L-91.11 -223.2 L-89.33 -222.4 L-87.61 -221.4 L-85.97 -220.3 L-84.43 -219.1 L-82.98 -217.8 L-81.65 -216.4 L-80.43 -214.9 L-79.34 -213.2 L-78.38 -211.5 L-77.56 -209.7 L-76.88 -207.9 L-76.35 -206 L-75.97 -204.1 L-75.75 -202.2 L-75.68 -200.2 Z " />
<path stroke="rgb(0,0,0)" stroke-opacity="1" fill="rgb(255,255,255)" fill-opacity="1" d="M-587.9 -812.2 L-588 -811.2 L-588 -810.2 L-588 -809.2 L-588 -808.3 L-588 -807.3 L-588 -806.3 L-588 -805.3 L-588 -804.4 L-588.1 -803.4 L-588.1 -802.4 L-588.1 -801.4 L-588.1 -800.4 L-588.1 -799.5 L-588.1 -798.5 L-588.1 -797.5 L-588.2 -796.5 L-588.2 -795.5 L-588.2 -794.6 L-588.2 -793.6 L-588.2 -792.6 L-588.2 -791.6 L-588.2 -790.6 L-588.3 -789.7 L-588.3 -788.7 L-588.3 -787.7 L-589.3 -787.7 L-590.2 -787.7 L-591.2 -787.7 L-592.2 -787.8 L-593.2 -787.8 L-594.2 -787.8 L-595.1 -787.8 L-596.1 -787.8 L-597.1 -787.8 L-598.1 -787.8 L-599.1 -787.8 L-600 -787.9 L-601 -787.9 L-602 -787.9 L-603 -787.9 L-604 -787.9 L-604.9 -787.9 L-605.9 -787.9 L-606.9 -788 L-607.9 -788 L-608.9 -788 L-609.8 -788 L-610.8 -788 L-611.8 -788 L-612.8 -788 L-612.8 -789 L-612.7 -790 L-612.7 -791 L-612.7 -792 L-612.7 -792.9 L-612.7 -793.9 L-612.7 -794.9 L-612.7 -795.9 L-612.7 -796.9 L-612.6 -797.8 L-612.6 -798.8 L-612.6 -799.8 L-612.6 -800.8 L-612.6 -801.8 L-612.6 -802.7 L-612.6 -803.7 L-612.5 -804.7 L-612.5 -805.7 L-612.5 -806.7 L-612.5 -807.6 L-612.5 -808.6 L-612.5 -809.6 L-612.5 -810.6 L-612.4 -811.6 L-612.4 -812.5 L-611.5 -812.5 L-610.5 -812.5 L-609.5 -812.5 L-608.5 -812.5 L-607.5 -812.5 L-606.6 -812.5 L-605.6 -812.4 L-604.6 -812.4 L-603.6 -812.4 L-602.6 -812.4 L-601.7 -812.4 L-600.7 -812.4 L-599.7 -812.4 L-598.7 -812.3 L-597.7 -812.3 L-596.8 -812.3 L-595.8 -812.3 L-594.8 -812.3 L-593.8 -812.3 L-592.8 -812.3 L-591.9 -812.2 L-590.9 -812.2 L-589.9 -812.2 L-588.9 -812.2 L-587.9 -812.2 Z " />
<path stroke="rgb(0,0,0)" stroke-opacity="1" fill="rgb(255,255,255)" fill-opacity="1" d="M124.6 -200 L124.6 -198 L124.3 -196.1 L123.9 -194.2 L123.4 -192.3 L122.7 -190.5 L121.9 -188.7 L120.9 -187 L119.8 -185.4 L118.6 -183.8 L117.2 -182.4 L115.8 -181.1 L114.2 -179.9 L112.6 -178.8 L110.9 -177.9 L109.1 -177.1 L107.2 -176.5 L105.3 -176 L103.4 -175.6 L101.5 -175.4 L99.51 -175.4 L97.56 -175.5 L95.62 -175.8 L93.71 -176.2 L91.84 -176.8 L90.02 -177.5 L88.26 -178.3 L86.58 -179.4 L84.98 -180.5 L83.47 -181.7 L82.08 -183.1 L80.79 -184.6 L79.63 -186.2 L78.59 -187.8 L77.69 -189.6 L76.93 -191.4 L76.32 -193.2 L75.86 -195.1 L75.55 -197.1 L75.39 -199 L75.39 -201 L75.55 -202.9 L75.86 -204.9 L76.32 -206.8 L76.93 -208.6 L77.69 -210.4 L78.59 -212.2 L79.63 -213.8 L80.79 -215.4 L82.08 -216.9 L83.47 -218.3 L84.98 -219.5 L86.58 -220.6 L88.26 -221.7 L90.02 -222.5 L91.84 -223.2 L93.71 -223.8 L95.62 -224.2 L97.56 -224.5 L99.51 -224.6 L101.5 -224.6 L103.4 -224.4 L105.3 -224 L107.2 -223.5 L109.1 -222.9 L110.9 -222.1 L112.6 -221.2 L114.2 -220.1 L115.8 -218.9 L117.2 -217.6 L118.6 -216.2 L119.8 -214.6 L120.9 -213 L121.9 -211.3 L122.7 -209.5 L123.4 -207.7 L123.9 -205.8 L124.3 -203.9 L124.6 -202 L124.6 -200 Z " />
<path stroke="rgb(0,0,0)" stroke-opacity="1" fill="rgb(255,255,255)" fill-opacity="1" d="M-386.9 -811.7 L-387 -810.7 L-387 -809.7 L-387.1 -808.7 L-387.2 -807.7 L-387.3 -806.7 L-387.3 -805.7 L-387.4 -804.7 L-387.5 -803.7 L-387.6 -802.7 L-387.6 -801.7 L-387.7 -800.7 L-387.8 -799.7 L-387.9 -798.7 L-387.9 -797.7 L-388 -796.7 L-388.1 -795.7 L-388.2 -794.7 L-388.2 -793.7 L-388.3 -792.7 L-388.4 -791.7 L-388.5 -790.7 L-388.5 -789.7 L-388.6 -788.7 L-388.7 -787.7 L-388.8 -786.6 L-389.8 -786.7 L-390.8 -786.8 L-391.8 -786.9 L-392.8 -786.9 L-393.8 -787 L-394.8 -787.1 L-395.8 -787.2 L-396.8 -787.2 L-397.8 -787.3 L-398.8 -787.4 L-399.8 -787.5 L-400.8 -787.5 L-401.8 -787.6 L-402.8 -787.7 L-403.8 -787.8 L-404.8 -787.8 L-405.8 -787.9 L-406.8 -788 L-407.8 -788.1 L-408.8 -788.1 L-409.8 -788.2 L-410.8 -788.3 L-411.8 -788.4 L-412.8 -788.4 L-413.8 -788.5 L-413.8 -789.5 L-413.7 -790.5 L-413.6 -791.5 L-413.5 -792.5 L-413.5 -793.5 L-413.4 -794.5 L-413.3 -795.5 L-413.2 -796.5 L-413.2 -797.5 L-413.1 -798.5 L-413 -799.5 L-412.9 -800.5 L-412.9 -801.5 L-412.8 -802.6 L-412.7 -803.6 L-412.6 -804.6 L-412.6 -805.6 L-412.5 -806.6 L-412.4 -807.6 L-412.4 -808.6 L-412.3 -809.6 L-412.2 -810.6 L-412.1 -811.6 L-412.1 -812.6 L-412 -813.6 L-411 -813.5 L-410 -813.4 L-409 -813.4 L-408 -813.3 L-407 -813.2 L-406 -813.1 L-405 -813.1 L-404 -813 L-403 -812.9 L-401.9 -812.8 L-400.9 -812.8 L-399.9 -812.7 L-398.9 -812.6 L-397.9 -812.5 L-396.9 -812.5 L-395.9 -812.4 L-394.9 -812.3 L-393.9 -812.3 L-392.9 -812.2 L-391.9 -812.1 L-390.9 -812 L-389.9 -812 L-388.9 -811.9 L-387.9 -811.8 L-386.9 -811.7 Z " />
<path stroke="rgb(0,0,0)" stroke-opacity="1" fill="rgb(255,255,255)" fill-opacity="1" d="M324.6 -200 L324.6 -198 L324.3 -196.1 L323.9 -194.2 L323.4 -192.3 L322.7 -190.5 L321.9 -188.7 L320.9 -187 L319.8 -185.4 L318.6 -183.8 L317.2 -182.4 L315.8 -181.1 L314.2 -179.9 L312.6 -178.8 L310.9 -177.9 L309.1 -177.1 L307.2 -176.5 L305.3 -176 L303.4 -175.6 L301.5 -175.4 L299.5 -175.4 L297.6 -175.5 L295.6 -175.8 L293.7 -176.2 L291.8 -176.8 L290 -177.5 L288.3 -178.3 L286.6 -179.4 L285 -180.5 L283.5 -181.7 L282.1 -183.1 L280.8 -184.6 L279.6 -186.2 L278.6 -187.8 L277.7 -189.6 L276.9 -191.4 L276.3 -193.2 L275.9 -195.1 L275.5 -197.1 L275.4 -199 L275.4 -201 L275.5 -202.9 L275.9 -204.9 L276.3 -206.8 L276.9 -208.6 L277.7 -210.4 L278.6 -212.2 L279.6 -213.8 L280.8 -215.4 L282.1 -216.9 L283.5 -218.3 L285 -219.5 L286.6 -220.6 L288.3 -221.7 L290 -222.5 L291.8 -223.2 L293.7 -223.8 L295.6 -224.2 L297.6 -224.5 L299.5 -224.6 L301.5 -224.6 L303.4 -224.4 L305.3 -224 L307.2 -223.5 L309.1 -222.9 L310.9 -222.1 L312.6 -221.2 L314.2 -220.1 L315.8 -218.9 L317.2 -217.6 L318.6 -216.2 L319.8 -214.6 L320.9 -213 L321.9 -211.3 L322.7 -209.5 L323.4 -207.7 L323.9 -205.8 L324.3 -203.9 L324.6 -202 L324.6 -200 Z " />
<path stroke="rgb(0,0,0)" stroke-opacity="1" fill="rgb(255,255,255)" fill-opacity="1" d="M-887.9 -712.2 L-888 -711.2 L-888 -710.2 L-888 -709.2 L-888 -708.3 L-888 -707.3 L-888 -706.3 L-888 -705.3 L-888 -704.4 L-888.1 -703.4 L-888.1 -702.4 L-888.1 -701.4 L-888.1 -700.4 L-888.1 -699.5 L-888.1 -698.5 L-888.1 -697.5 L-888.2 -696.5 L-888.2 -695.5 L-888.2 -694.6 L-888.2 -693.6 L-888.2 -692.6 L-888.2 -691.6 L-888.2 -690.6 L-888.3 -689.7 L-888.3 -688.7 L-888.3 -687.7 L-889.3 -687.7 L-890.2 -687.7 L-891.2 -687.7 L-892.2 -687.8 L-893.2 -687.8 L-894.2 -687.8 L-895.1 -687.8 L-896.1 -687.8 L-897.1 -687.8 L-898.1 -687.8 L-899.1 -687.8 L-900 -687.9 L-901 -687.9 L-902 -687.9 L-903 -687.9 L-904 -687.9 L-904.9 -687.9 L-905.9 -687.9 L-906.9 -688 L-907.9 -688 L-908.9 -688 L-909.8 -688 L-910.8 -688 L-911.8 -688 L-912.8 -688 L-912.8 -689 L-912.7 -690 L-912.7 -691 L-912.7 -692 L-912.7 -692.9 L-912.7 -693.9 L-912.7 -694.9 L-912.7 -695.9 L-912.7 -696.9 L-912.6 -697.8 L-912.6 -698.8 L-912.6 -699.8 L-912.6 -700.8 L-912.6 -701.8 L-912.6 -702.7 L-912.6 -703.7 L-912.5 -704.7 L-912.5 -705.7 L-912.5 -706.7 L-912.5 -707.6 L-912.5 -708.6 L-912.5 -709.6 L-912.5 -710.6 L-912.4 -711.6 L-912.4 -712.5 L-911.5 -712.5 L-910.5 -712.5 L-909.5 -712.5 L-908.5 -712.5 L-907.5 -712.5 L-906.6 -712.5 L-905.6 -712.4 L-904.6 -712.4 L-903.6 -712.4 L-902.6 -712.4 L-901.7 -712.4 L-900.7 -712.4 L-899.7 -712.4 L-898.7 -712.3 L-897.7 -712.3 L-896.8 -712.3 L-895.8 -712.3 L-894.8 -712.3 L-893.8 -712.3 L-892.8 -712.3 L-891.9 -712.2 L-890.9 -712.2 L-889.9 -712.2 L-888.9 -712.2 L-887.9 -712.2 Z " />
<path stroke="rgb(0,0,0)" stroke-opacity="1" fill="rgb(255,255,255)" fill-opacity="1" d="M-175.7 -100.2 L-175.8 -98.24 L-176 -96.3 L-176.4 -94.38 L-177 -92.5 L-177.7 -90.67 L-178.5 -88.9 L-179.5 -87.2 L-180.6 -85.58 L-181.8 -84.06 L-183.2 -82.64 L-184.6 -81.34 L-186.2 -80.15 L-187.8 -79.09 L-189.5 -78.17 L-191.3 -77.38 L-193.2 -76.74 L-195.1 -76.25 L-197 -75.91 L-199 -75.72 L-200.9 -75.7 L-202.9 -75.82 L-204.8 -76.1 L-206.7 -76.54 L-208.6 -77.12 L-210.4 -77.85 L-212.2 -78.73 L-213.8 -79.74 L-215.4 -80.88 L-216.9 -82.14 L-218.3 -83.52 L-219.6 -85 L-220.8 -86.58 L-221.8 -88.25 L-222.7 -90 L-223.4 -91.81 L-224 -93.67 L-224.5 -95.57 L-224.8 -97.51 L-224.9 -99.46 L-224.9 -101.4 L-224.8 -103.4 L-224.4 -105.3 L-224 -107.2 L-223.3 -109.1 L-222.6 -110.9 L-221.7 -112.6 L-220.6 -114.3 L-219.4 -115.8 L-218.2 -117.3 L-216.8 -118.7 L-215.2 -119.9 L-213.6 -121 L-212 -122 L-210.2 -122.9 L-208.4 -123.6 L-206.5 -124.2 L-204.6 -124.6 L-202.6 -124.8 L-200.7 -124.9 L-198.7 -124.9 L-196.8 -124.7 L-194.8 -124.3 L-193 -123.8 L-191.1 -123.2 L-189.3 -122.4 L-187.6 -121.4 L-186 -120.3 L-184.4 -119.1 L-183 -117.8 L-181.6 -116.4 L-180.4 -114.9 L-179.3 -113.2 L-178.4 -111.5 L-177.6 -109.7 L-176.9 -107.9 L-176.4 -106 L-176 -104.1 L-175.8 -102.2 L-175.7 -100.2 Z " />
<path stroke="rgb(0,0,0)" stroke-opacity="1" fill="rgb(255,255,255)" fill-opacity="1" d="M-687.9 -712.2 L-688 -711.2 L-688 -710.2 L-688 -709.2 L-688 -708.3 L-688 -707.3 L-688 -706.3 L-688 -705.3 L-688 -704.4 L-688.1 -703.4 L-688.1 -702.4 L-688.1 -701.4 L-688.1 -700.4 L-688.1 -699.5 L-688.1 -698.5 L-688.1 -697.5 L-688.2 -696.5 L-688.2 -695.5 L-688.2 -694.6 L-688.2 -693.6 L-688.2 -692.6 L-688.2 -691.6 L-688.2 -690.6 L-688.3 -689.7 L-688.3 -688.7 L-688.3 -687.7 L-689.3 -687.7 L-690.2 -687.7 L-691.2 -687.7 L-692.2 -687.8 L-693.2 -687.8 L-694.2 -687.8 L-695.1 -687.8 L-696.1 -687.8 L-697.1 -687.8 L-698.1 -687.8 L-699.1 -687.8 L-700 -687.9 L-701 -687.9 L-702 -687.9 L-703 -687.9 L-704 -687.9 L-704.9 -687.9 L-705.9 -687.9 L-706.9 -688 L-707.9 -688 L-708.9 -688 L-709.8 -688 L-710.8 -688 L-711.8 -688 L-712.8 -688 L-712.8 -689 L-712.7 -690 L-712.7 -691 L-712.7 -692 L-712.7 -692.9 L-712.7 -693.9 L-712.7 -694.9 L-712.7 -695.9 L-712.7 -696.9 L-712.6 -697.8 L-712.6 -698.8 L-712.6 -699.8 L-712.6 -700.8 L-712.6 -701.8 L-712.6 -702.7 L-712.6 -703.7 L-712.5 -704.7 L-712.5 -705.7 L-712.5 -706.7 L-712.5 -707.6 L-712.5 -708.6 L-712.5 -709.6 L-712.5 -710.6 L-712.4 -711.6 L-712.4 -712.5 L-711.5 -712.5 L-710.5 -712.5 L-709.5 -712.5 L-708.5 -712.5 L-707.5 -712.5 L-706.6 -712.5 L-705.6 -712.4 L-704.6 -712.4 L-703.6 -712.4 L-702.6 -712.4 L-701.7 -712.4 L-700.7 -712.4 L-699.7 -712.4 L-698.7 -712.3 L-697.7 -712.3 L-696.8 -712.3 L-695.8 -712.3 L-694.8 -712.3 L-693.8 -712.3 L-692.8 -712.3 L-691.9 -712.2 L-690.9 -712.2 L-689.9 -712.2 L-688.9 -712.2 L-687.9 -712.2 Z " />
<path stroke="rgb(0,0,0)" stroke-opacity="1" fill="rgb(255,255,255)" fill-opacity="1" d="M24.64 -100 L24.56 -98.04 L24.32 -96.1 L23.94 -94.18 L23.4 -92.3 L22.71 -90.46 L21.88 -88.69 L20.92 -86.98 L19.82 -85.36 L18.59 -83.84 L17.25 -82.41 L15.8 -81.1 L14.24 -79.9 L12.6 -78.83 L10.88 -77.9 L9.09 -77.11 L7.242 -76.46 L5.349 -75.96 L3.422 -75.61 L1.473 -75.41 L-0.4851 -75.37 L-2.44 -75.49 L-4.38 -75.76 L-6.291 -76.19 L-8.164 -76.76 L-9.984 -77.49 L-11.74 -78.35 L-13.42 -79.35 L-15.02 -80.48 L-16.53 -81.74 L-17.92 -83.11 L-19.21 -84.59 L-20.37 -86.16 L-21.41 -87.83 L-22.31 -89.57 L-23.07 -91.37 L-23.68 -93.23 L-24.14 -95.13 L-24.45 -97.07 L-24.61 -99.02 L-24.61 -101 L-24.45 -102.9 L-24.14 -104.9 L-23.68 -106.8 L-23.07 -108.6 L-22.31 -110.4 L-21.41 -112.2 L-20.37 -113.8 L-19.21 -115.4 L-17.92 -116.9 L-16.53 -118.3 L-15.02 -119.5 L-13.42 -120.6 L-11.74 -121.7 L-9.984 -122.5 L-8.164 -123.2 L-6.291 -123.8 L-4.38 -124.2 L-2.44 -124.5 L-0.4851 -124.6 L1.473 -124.6 L3.422 -124.4 L5.349 -124 L7.242 -123.5 L9.09 -122.9 L10.88 -122.1 L12.6 -121.2 L14.24 -120.1 L15.8 -118.9 L17.25 -117.6 L18.59 -116.2 L19.82 -114.6 L20.92 -113 L21.88 -111.3 L22.71 -109.5 L23.4 -107.7 L23.94 -105.8 L24.32 -103.9 L24.56 -102 L24.64 -100 Z " />
<path stroke="rgb(0,0,0)" stroke-opacity="1" fill="rgb(255,255,255)" fill-opacity="1" d="M-486.9 -711.7 L-487 -710.7 L-487 -709.7 L-487.1 -708.7 L-487.2 -707.7 L-487.3 -706.7 L-487.3 -705.7 L-487.4 -704.7 L-487.5 -703.7 L-487.6 -702.7 L-487.6 -701.7 L-487.7 -700.7 L-487.8 -699.7 L-487.9 -698.7 L-487.9 -697.7 L-488 -696.7 L-488.1 -695.7 L-488.2 -694.7 L-488.2 -693.7 L-488.3 -692.7 L-488.4 -691.7 L-488.5 -690.7 L-488.5 -689.7 L-488.6 -688.7 L-488.7 -687.7 L-488.8 -686.6 L-489.8 -686.7 L-490.8 -686.8 L-491.8 -686.9 L-492.8 -686.9 L-493.8 -687 L-494.8 -687.1 L-495.8 -687.2 L-496.8 -687.2 L-497.8 -687.3 L-498.8 -687.4 L-499.8 -687.5 L-500.8 -687.5 L-501.8 -687.6 L-502.8 -687.7 L-503.8 -687.8 L-504.8 -687.8 L-505.8 -687.9 L-506.8 -688 L-507.8 -688.1 L-508.8 -688.1 L-509.8 -688.2 L-510.8 -688.3 L-511.8 -688.4 L-512.8 -688.4 L-513.8 -688.5 L-513.8 -689.5 L-513.7 -690.5 L-513.6 -691.5 L-513.5 -692.5 L-513.5 -693.5 L-513.4 -694.5 L-513.3 -695.5 L-513.2 -696.5 L-513.2 -697.5 L-513.1 -698.5 L-513 -699.5 L-512.9 -700.5 L-512.9 -701.5 L-512.8 -702.6 L-512.7 -703.6 L-512.6 -704.6 L-512.6 -705.6 L-512.5 -706.6 L-512.4 -707.6 L-512.4 -708.6 L-512.3 -709.6 L-512.2 -710.6 L-512.1 -711.6 L-512.1 -712.6 L-512 -713.6 L-511 -713.5 L-510 -713.4 L-509 -713.4 L-508 -713.3 L-507 -713.2 L-506 -713.1 L-505 -713.1 L-504 -713 L-503 -712.9 L-501.9 -712.8 L-500.9 -712.8 L-499.9 -712.7 L-498.9 -712.6 L-497.9 -712.5 L-496.9 -712.5 L-495.9 -712.4 L-494.9 -712.3 L-493.9 -712.3 L-492.9 -712.2 L-491.9 -712.1 L-490.9 -712 L-489.9 -712 L-488.9 -711.9 L-487.9 -711.8 L-486.9 -711.7 Z " />
<path stroke="rgb(0,0,0)" stroke-opacity="1" fill="rgb(255,255,255)" fill-opacity="1" d="M224.6 -100 L224.6 -98.04 L224.3 -96.1 L223.9 -94.18 L223.4 -92.3 L222.7 -90.46 L221.9 -88.69 L220.9 -86.98 L219.8 -85.36 L218.6 -83.84 L217.2 -82.41 L215.8 -81.1 L214.2 -79.9 L212.6 -78.83 L210.9 -77.9 L209.1 -77.11 L207.2 -76.46 L205.3 -75.96 L203.4 -75.61 L201.5 -75.41 L199.5 -75.37 L197.6 -75.49 L195.6 -75.76 L193.7 -76.19 L191.8 -76.76 L190 -77.49 L188.3 -78.35 L186.6 -79.35 L185 -80.48 L183.5 -81.74 L182.1 -83.11 L180.8 -84.59 L179.6 -86.16 L178.6 -87.83 L177.7 -89.57 L176.9 -91.37 L176.3 -93.23 L175.9 -95.13 L175.5 -97.07 L175.4 -99.02 L175.4 -101 L175.5 -102.9 L175.9 -104.9 L176.3 -106.8 L176.9 -108.6 L177.7 -110.4 L178.6 -112.2 L179.6 -113.8 L180.8 -115.4 L182.1 -116.9 L183.5 -118.3 L185 -119.5 L186.6 -120.6 L188.3 -121.7 L190 -122.5 L191.8 -123.2 L193.7 -123.8 L195.6 -124.2 L197.6 -124.5 L199.5 -124.6 L201.5 -124.6 L203.4 -124.4 L205.3 -124 L207.2 -123.5 L209.1 -122.9 L210.9 -122.1 L212.6 -121.2 L214.2 -120.1 L215.8 -118.9 L217.2 -117.6 L218.6 -116.2 L219.8 -114.6 L220.9 -113 L221.9 -111.3 L222.7 -109.5 L223.4 -107.7 L223.9 -105.8 L224.3 -103.9 L224.6 -102 L224.6 -100 Z " />
<path stroke="rgb(0,0,0)" stroke-opacity="1" fill="rgb(255,255,255)" fill-opacity="1" d="M-281.4 -707.9 L-281.9 -706.8 L-282.3 -705.8 L-282.8 -704.7 L-283.2 -703.6 L-283.7 -702.6 L-284.1 -701.5 L-284.6 -700.4 L-285 -699.4 L-285.5 -698.3 L-285.9 -697.2 L-286.4 -696.1 L-286.8 -695.1 L-287.3 -694 L-287.7 -692.9 L-288.2 -691.9 L-288.6 -690.8 L-289.1 -689.7 L-289.5 -688.6 L-290 -687.6 L-290.4 -686.5 L-290.9 -685.4 L-291.3 -684.4 L-291.8 -683.3 L-292.2 -682.2 L-292.7 -681.2 L-293.7 -681.6 L-294.8 -682.1 L-295.9 -682.5 L-296.9 -683 L-298 -683.4 L-299.1 -683.9 L-300.2 -684.3 L-301.2 -684.8 L-302.3 -685.2 L-303.4 -685.7 L-304.4 -686.1 L-305.5 -686.6 L-306.6 -687 L-307.7 -687.5 L-308.7 -687.9 L-309.8 -688.4 L-310.9 -688.8 L-311.9 -689.3 L-313 -689.7 L-314.1 -690.2 L-315.1 -690.6 L-316.2 -691.1 L-317.3 -691.5 L-318.4 -692 L-319.4 -692.4 L-319 -693.5 L-318.5 -694.5 L-318.1 -695.6 L-317.6 -696.7 L-317.2 -697.8 L-316.7 -698.8 L-316.3 -699.9 L-315.8 -701 L-315.4 -702 L-314.9 -703.1 L-314.5 -704.2 L-314 -705.2 L-313.6 -706.3 L-313.1 -707.4 L-312.7 -708.5 L-312.2 -709.5 L-311.8 -710.6 L-311.3 -711.7 L-310.9 -712.7 L-310.4 -713.8 L-310 -714.9 L-309.5 -715.9 L-309.1 -717 L-308.6 -718.1 L-308.2 -719.2 L-307.1 -718.7 L-306 -718.3 L-305 -717.8 L-303.9 -717.4 L-302.8 -716.9 L-301.8 -716.5 L-300.7 -716 L-299.6 -715.6 L-298.5 -715.1 L-297.5 -714.7 L-296.4 -714.2 L-295.3 -713.8 L-294.3 -713.3 L-293.2 -712.9 L-292.1 -712.4 L-291.1 -712 L-290 -711.5 L-288.9 -711.1 L-287.8 -710.6 L-286.8 -710.2 L-285.7 -709.7 L-284.6 -709.3 L-283.6 -708.8 L-282.5 -708.4 L-281.4 -707.9 Z " />
<path stroke="rgb(0,0,0)" stroke-opacity="1" fill="rgb(255,255,255)" fill-opacity="1" d="M-275.7 -0.1962 L-275.8 1.76 L-276 3.704 L-276.4 5.622 L-277 7.502 L-277.7 9.333 L-278.5 11.1 L-279.5 12.8 L-280.6 14.42 L-281.8 15.94 L-283.2 17.36 L-284.6 18.66 L-286.2 19.85 L-287.8 20.91 L-289.5 21.83 L-291.3 22.62 L-293.2 23.26 L-295.1 23.75 L-297 24.09 L-299 24.28 L-300.9 24.3 L-302.9 24.18 L-304.8 23.9 L-306.7 23.46 L-308.6 22.88 L-310.4 22.15 L-312.2 21.27 L-313.8 20.26 L-315.4 19.12 L-316.9 17.86 L-318.3 16.48 L-319.6 15 L-320.8 13.42 L-321.8 11.75 L-322.7 10 L-323.4 8.194 L-324 6.331 L-324.5 4.426 L-324.8 2.49 L-324.9 0.5374 L-324.9 -1.421 L-324.8 -3.373 L-324.4 -5.305 L-324 -7.205 L-323.3 -9.063 L-322.6 -10.86 L-321.7 -12.6 L-320.6 -14.26 L-319.4 -15.83 L-318.2 -17.3 L-316.8 -18.66 L-315.2 -19.91 L-313.6 -21.03 L-312 -22.03 L-310.2 -22.88 L-308.4 -23.6 L-306.5 -24.16 L-304.6 -24.58 L-302.6 -24.84 L-300.7 -24.95 L-298.7 -24.9 L-296.8 -24.69 L-294.8 -24.34 L-293 -23.83 L-291.1 -23.17 L-289.3 -22.36 L-287.6 -21.42 L-286 -20.35 L-284.4 -19.14 L-283 -17.82 L-281.6 -16.39 L-280.4 -14.86 L-279.3 -13.23 L-278.4 -11.52 L-277.6 -9.745 L-276.9 -7.907 L-276.4 -6.021 L-276 -4.099 L-275.8 -2.154 L-275.7 -0.1962 Z " />
<path stroke="rgb(0,0,0)" stroke-opacity="1" fill="rgb(255,255,255)" fill-opacity="1" d="M-787.9 -612.2 L-788 -611.2 L-788 -610.2 L-788 -609.2 L-788 -608.3 L-788 -607.3 L-788 -606.3 L-788 -605.3 L-788 -604.4 L-788.1 -603.4 L-788.1 -602.4 L-788.1 -601.4 L-788.1 -600.4 L-788.1 -599.5 L-788.1 -598.5 L-788.1 -597.5 L-788.2 -596.5 L-788.2 -595.5 L-788.2 -594.6 L-788.2 -593.6 L-788.2 -592.6 L-788.2 -591.6 L-788.2 -590.6 L-788.3 -589.7 L-788.3 -588.7 L-788.3 -587.7 L-789.3 -587.7 L-790.2 -587.7 L-791.2 -587.7 L-792.2 -587.8 L-793.2 -587.8 L-794.2 -587.8 L-795.1 -587.8 L-796.1 -587.8 L-797.1 -587.8 L-798.1 -587.8 L-799.1 -587.8 L-800 -587.9 L-801 -587.9 L-802 -587.9 L-803 -587.9 L-804 -587.9 L-804.9 -587.9 L-805.9 -587.9 L-806.9 -588 L-807.9 -588 L-808.9 -588 L-809.8 -588 L-810.8 -588 L-811.8 -588 L-812.8 -588 L-812.8 -589 L-812.7 -590 L-812.7 -591 L-812.7 -592 L-812.7 -592.9 L-812.7 -593.9 L-812.7 -594.9 L-812.7 -595.9 L-812.7 -596.9 L-812.6 -597.8 L-812.6 -598.8 L-812.6 -599.8 L-812.6 -600.8 L-812.6 -601.8 L-812.6 -602.7 L-812.6 -603.7 L-812.5 -604.7 L-812.5 -605.7 L-812.5 -606.7 L-812.5 -607.6 L-812.5 -608.6 L-812.5 -609.6 L-812.5 -610.6 L-812.4 -611.6 L-812.4 -612.5 L-811.5 -612.5 L-810.5 -612.5 L-809.5 -612.5 L-808.5 -612.5 L-807.5 -612.5 L-806.6 -612.5 L-805.6 -612.4 L-804.6 -612.4 L-803.6 -612.4 L-802.6 -612.4 L-801.7 -612.4 L-800.7 -612.4 L-799.7 -612.4 L-798.7 -612.3 L-797.7 -612.3 L-796.8 -612.3 L-795.8 -612.3 L-794.8 -612.3 L-793.8 -612.3 L-792.8 -612.3 L-791.9 -612.2 L-790.9 -612.2 L-789.9 -612.2 L-788.9 -612.2 L-787.9 -612.2 Z " />
<path stroke="rgb(0,0,0)" stroke-opacity="1" fill="rgb(255,255,255)" fill-opacity="1" d="M-75.36 -4.012e-10 L-75.44 1.957 L-75.68 3.902 L-76.06 5.821 L-76.6 7.705 L-77.29 9.539 L-78.12 11.31 L-79.08 13.02 L-80.18 14.64 L-81.41 16.16 L-82.75 17.59 L-84.2 18.9 L-85.76 20.1 L-87.4 21.17 L-89.12 22.1 L-90.91 22.89 L-92.76 23.54 L-94.65 24.04 L-96.58 24.39 L-98.53 24.59 L-100.5 24.63 L-102.4 24.51 L-104.4 24.24 L-106.3 23.81 L-108.2 23.24 L-110 22.51 L-111.7 21.65 L-113.4 20.65 L-115 19.52 L-116.5 18.26 L-117.9 16.89 L-119.2 15.41 L-120.4 13.84 L-121.4 12.17 L-122.3 10.43 L-123.1 8.629 L-123.7 6.768 L-124.1 4.865 L-124.5 2.932 L-124.6 0.9792 L-124.6 -0.9792 L-124.5 -2.932 L-124.1 -4.865 L-123.7 -6.768 L-123.1 -8.629 L-122.3 -10.43 L-121.4 -12.17 L-120.4 -13.84 L-119.2 -15.41 L-117.9 -16.89 L-116.5 -18.26 L-115 -19.52 L-113.4 -20.65 L-111.7 -21.65 L-110 -22.51 L-108.2 -23.24 L-106.3 -23.81 L-104.4 -24.24 L-102.4 -24.51 L-100.5 -24.63 L-98.53 -24.59 L-96.58 -24.39 L-94.65 -24.04 L-92.76 -23.54 L-90.91 -22.89 L-89.12 -22.1 L-87.4 -21.17 L-85.76 -20.1 L-84.2 -18.9 L-82.75 -17.59 L-81.41 -16.16 L-80.18 -14.64 L-79.08 -13.02 L-78.12 -11.31 L-77.29 -9.539 L-76.6 -7.705 L-76.06 -5.821 L-75.68 -3.902 L-75.44 -1.957 L-75.36 -4.012e-10 Z " />
<path stroke="rgb(0,0,0)" stroke-opacity="1" fill="rgb(255,255,255)" fill-opacity="1" d="M-586.9 -611.7 L-587 -610.7 L-587 -609.7 L-587.1 -608.7 L-587.2 -607.7 L-587.3 -606.7 L-587.3 -605.7 L-587.4 -604.7 L-587.5 -603.7 L-587.6 -602.7 L-587.6 -601.7 L-587.7 -600.7 L-587.8 -599.7 L-587.9 -598.7 L-587.9 -597.7 L-588 -596.7 L-588.1 -595.7 L-588.2 -594.7 L-588.2 -593.7 L-588.3 -592.7 L-588.4 -591.7 L-588.5 -590.7 L-588.5 -589.7 L-588.6 -588.7 L-588.7 -587.7 L-588.8 -586.6 L-589.8 -586.7 L-590.8 -586.8 L-591.8 -586.9 L-592.8 -586.9 L-593.8 -587 L-594.8 -587.1 L-595.8 -587.2 L-596.8 -587.2 L-597.8 -587.3 L-598.8 -587.4 L-599.8 -587.5 L-600.8 -587.5 L-601.8 -587.6 L-602.8 -587.7 L-603.8 -587.8 L-604.8 -587.8 L-605.8 -587.9 L-606.8 -588 L-607.8 -588.1 L-608.8 -588.1 L-609.8 -588.2 L-610.8 -588.3 L-611.8 -588.4 L-612.8 -588.4 L-613.8 -588.5 L-613.8 -589.5 L-613.7 -590.5 L-613.6 -591.5 L-613.5 -592.5 L-613.5 -593.5 L-613.4 -594.5 L-613.3 -595.5 L-613.2 -596.5 L-613.2 -597.5 L-613.1 -598.5 L-613 -599.5 L-612.9 -600.5 L-612.9 -601.5 L-612.8 -602.6 L-612.7 -603.6 L-612.6 -604.6 L-612.6 -605.6 L-612.5 -606.6 L-612.4 -607.6 L-612.4 -608.6 L-612.3 -609.6 L-612.2 -610.6 L-612.1 -611.6 L-612.1 -612.6 L-612 -613.6 L-611 -613.5 L-610 -613.4 L-609 -613.4 L-608 -613.3 L-607 -613.2 L-606 -613.1 L-605 -613.1 L-604 -613 L-603 -612.9 L-601.9 -612.8 L-600.9 -612.8 L-599.9 -612.7 L-598.9 -612.6 L-597.9 -612.5 L-596.9 -612.5 L-595.9 -612.4 L-594.9 -612.3 L-593.9 -612.3 L-592.9 -612.2 L-591.9 -612.1 L-590.9 -612 L-589.9 -612 L-588.9 -611.9 L-587.9 -611.8 L-586.9 -611.7 Z " />
<path stroke="rgb(0,0,0)" stroke-opacity="1" fill="rgb(255,255,255)" fill-opacity="1" d="M124.6 -4.008e-10 L124.6 1.957 L124.3 3.902 L123.9 5.821 L123.4 7.705 L122.7 9.539 L121.9 11.31 L120.9 13.02 L119.8 14.64 L118.6 16.16 L117.2 17.59 L115.8 18.9 L114.2 20.1 L112.6 21.17 L110.9 22.1 L109.1 22.89 L107.2 23.54 L105.3 24.04 L103.4 24.39 L101.5 24.59 L99.51 24.63 L97.56 24.51 L95.62 24.24 L93.71 23.81 L91.84 23.24 L90.02 22.51 L88.26 21.65 L86.58 20.65 L84.98 19.52 L83.47 18.26 L82.08 16.89 L80.79 15.41 L79.63 13.84 L78.59 12.17 L77.69 10.43 L76.93 8.629 L76.32 6.768 L75.86 4.865 L75.55 2.932 L75.39 0.9792 L75.39 -0.9792 L75.55 -2.932 L75.86 -4.865 L76.32 -6.768 L76.93 -8.629 L77.69 -10.43 L78.59 -12.17 L79.63 -13.84 L80.79 -15.41 L82.08 -16.89 L83.47 -18.26 L84.98 -19.52 L86.58 -20.65 L88.26 -21.65 L90.02 -22.51 L91.84 -23.24 L93.71 -23.81 L95.62 -24.24 L97.56 -24.51 L99.51 -24.63 L101.5 -24.59 L103.4 -24.39 L105.3 -24.04 L107.2 -23.54 L109.1 -22.89 L110.9 -22.1 L112.6 -21.17 L114.2 -20.1 L115.8 -18.9 L117.2 -17.59 L118.6 -16.16 L119.8 -14.64 L120.9 -13.02 L121.9 -11.31 L122.7 -9.539 L123.4 -7.705 L123.9 -5.821 L124.3 -3.902 L124.6 -1.957 L124.6 -4.008e-10 Z " />
<path stroke="rgb(0,0,0)" stroke-opacity="1" fill="rgb(255,255,255)" fill-opacity="1" d="M-381.4 -607.9 L-381.9 -606.8 L-382.3 -605.8 L-382.8 -604.7 L-383.2 -603.6 L-383.7 -602.6 L-384.1 -601.5 L-384.6 -600.4 L-385 -599.4 L-385.5 -598.3 L-385.9 -597.2 L-386.4 -596.1 L-386.8 -595.1 L-387.3 -594 L-387.7 -592.9 L-388.2 -591.9 L-388.6 -590.8 L-389.1 -589.7 L-389.5 -588.6 L-390 -587.6 L-390.4 -586.5 L-390.9 -585.4 L-391.3 -584.4 L-391.8 -583.3 L-392.2 -582.2 L-392.7 -581.2 L-393.7 -581.6 L-394.8 -582.1 L-395.9 -582.5 L-396.9 -583 L-398 -583.4 L-399.1 -583.9 L-400.2 -584.3 L-401.2 -584.8 L-402.3 -585.2 L-403.4 -585.7 L-404.4 -586.1 L-405.5 -586.6 L-406.6 -587 L-407.7 -587.5 L-408.7 -587.9 L-409.8 -588.4 L-410.9 -588.8 L-411.9 -589.3 L-413 -589.7 L-414.1 -590.2 L-415.1 -590.6 L-416.2 -591.1 L-417.3 -591.5 L-418.4 -592 L-419.4 -592.4 L-419 -593.5 L-418.5 -594.5 L-418.1 -595.6 L-417.6 -596.7 L-417.2 -597.8 L-416.7 -598.8 L-416.3 -599.9 L-415.8 -601 L-415.4 -602 L-414.9 -603.1 L-414.5 -604.2 L-414 -605.2 L-413.6 -606.3 L-413.1 -607.4 L-412.7 -608.5 L-412.2 -609.5 L-411.8 -610.6 L-411.3 -611.7 L-410.9 -612.7 L-410.4 -613.8 L-410 -614.9 L-409.5 -615.9 L-409.1 -617 L-408.6 -618.1 L-408.2 -619.2 L-407.1 -618.7 L-406 -618.3 L-405 -617.8 L-403.9 -617.4 L-402.8 -616.9 L-401.8 -616.5 L-400.7 -616 L-399.6 -615.6 L-398.5 -615.1 L-397.5 -614.7 L-396.4 -614.2 L-395.3 -613.8 L-394.3 -613.3 L-393.2 -612.9 L-392.1 -612.4 L-391.1 -612 L-390 -611.5 L-388.9 -611.1 L-387.8 -610.6 L-386.8 -610.2 L-385.7 -609.7 L-384.6 -609.3 L-383.6 -608.8 L-382.5 -608.4 L-381.4 -607.9 Z " />
<path stroke="rgb(0,0,0)" stroke-opacity="1" fill="rgb(255,255,255)" fill-opacity="1" d="M324.6 -4.011e-10 L324.6 1.957 L324.3 3.902 L323.9 5.821 L323.4 7.705 L322.7 9.539 L321.9 11.31 L320.9 13.02 L319.8 14.64 L318.6 16.16 L317.2 17.59 L315.8 18.9 L314.2 20.1 L312.6 21.17 L310.9 22.1 L309.1 22.89 L307.2 23.54 L305.3 24.04 L303.4 24.39 L301.5 24.59 L299.5 24.63 L297.6 24.51 L295.6 24.24 L293.7 23.81 L291.8 23.24 L290 22.51 L288.3 21.65 L286.6 20.65 L285 19.52 L283.5 18.26 L282.1 16.89 L280.8 15.41 L279.6 13.84 L278.6 12.17 L277.7 10.43 L276.9 8.629 L276.3 6.768 L275.9 4.865 L275.5 2.932 L275.4 0.9792 L275.4 -0.9792 L275.5 -2.932 L275.9 -4.865 L276.3 -6.768 L276.9 -8.629 L277.7 -10.43 L278.6 -12.17 L279.6 -13.84 L280.8 -15.41 L282.1 -16.89 L283.5 -18.26 L285 -19.52 L286.6 -20.65 L288.3 -21.65 L290 -22.51 L291.8 -23.24 L293.7 -23.81 L295.6 -24.24 L297.6 -24.51 L299.5 -24.63 L301.5 -24.59 L303.4 -24.39 L305.3 -24.04 L307.2 -23.54 L309.1 -22.89 L310.9 -22.1 L312.6 -21.17 L314.2 -20.1 L315.8 -18.9 L317.2 -17.59 L318.6 -16.16 L319.8 -14.64 L320.9 -13.02 L321.9 -11.31 L322.7 -9.539 L323.4 -7.705 L323.9 -5.821 L324.3 -3.902 L324.6 -1.957 L324.6 -4.011e-10 Z " />
<path stroke="rgb(0,0,0)" stroke-opacity="1" fill="rgb(255,255,255)" fill-opacity="1" d="M-887.9 -512.2 L-888 -511.2 L-888 -510.2 L-888 -509.2 L-888 -508.3 L-888 -507.3 L-888 -506.3 L-888 -505.3 L-888 -504.4 L-888.1 -503.4 L-888.1 -502.4 L-888.1 -501.4 L-888.1 -500.4 L-888.1 -499.5 L-888.1 -498.5 L-888.1 -497.5 L-888.2 -496.5 L-888.2 -495.5 L-888.2 -494.6 L-888.2 -493.6 L-888.2 -492.6 L-888.2 -491.6 L-888.2 -490.6 L-888.3 -489.7 L-888.3 -488.7 L-888.3 -487.7 L-889.3 -487.7 L-890.2 -487.7 L-891.2 -487.7 L-892.2 -487.8 L-893.2 -487.8 L-894.2 -487.8 L-895.1 -487.8 L-896.1 -487.8 L-897.1 -487.8 L-898.1 -487.8 L-899.1 -487.8 L-900 -487.9 L-901 -487.9 L-902 -487.9 L-903 -487.9 L-904 -487.9 L-904.9 -487.9 L-905.9 -487.9 L-906.9 -488 L-907.9 -488 L-908.9 -488 L-909.8 -488 L-910.8 -488 L-911.8 -488 L-912.8 -488 L-912.8 -489 L-912.7 -490 L-912.7 -491 L-912.7 -492 L-912.7 -492.9 L-912.7 -493.9 L-912.7 -494.9 L-912.7 -495.9 L-912.7 -496.9 L-912.6 -497.8 L-912.6 -498.8 L-912.6 -499.8 L-912.6 -500.8 L-912.6 -501.8 L-912.6 -502.7 L-912.6 -503.7 L-912.5 -504.7 L-912.5 -505.7 L-912.5 -506.7 L-912.5 -507.6 L-912.5 -508.6 L-912.5 -509.6 L-912.5 -510.6 L-912.4 -511.6 L-912.4 -512.5 L-911.5 -512.5 L-910.5 -512.5 L-909.5 -512.5 L-908.5 -512.5 L-907.5 -512.5 L-906.6 -512.5 L-905.6 -512.4 L-904.6 -512.4 L-903.6 -512.4 L-902.6 -512.4 L-901.7 -512.4 L-900.7 -512.4 L-899.7 -512.4 L-898.7 -512.3 L-897.7 -512.3 L-896.8 -512.3 L-895.8 -512.3 L-894.8 -512.3 L-893.8 -512.3 L-892.8 -512.3 L-891.9 -512.2 L-890.9 -512.2 L-889.9 -512.2 L-888.9 -512.2 L-887.9 -512.2 Z " />
<path stroke="rgb(0,0,0)" stroke-opacity="1" fill="rgb(255,255,255)" fill-opacity="1" d="M-175.4 100 L-175.4 102 L-175.7 103.9 L-176.1 105.8 L-176.6 107.7 L-177.3 109.5 L-178.1 111.3 L-179.1 113 L-180.2 114.6 L-181.4 116.2 L-182.8 117.6 L-184.2 118.9 L-185.8 120.1 L-187.4 121.2 L-189.1 122.1 L-190.9 122.9 L-192.8 123.5 L-194.7 124 L-196.6 124.4 L-198.5 124.6 L-200.5 124.6 L-202.4 124.5 L-204.4 124.2 L-206.3 123.8 L-208.2 123.2 L-210 122.5 L-211.7 121.7 L-213.4 120.6 L-215 119.5 L-216.5 118.3 L-217.9 116.9 L-219.2 115.4 L-220.4 113.8 L-221.4 112.2 L-222.3 110.4 L-223.1 108.6 L-223.7 106.8 L-224.1 104.9 L-224.5 102.9 L-224.6 101 L-224.6 99.02 L-224.5 97.07 L-224.1 95.13 L-223.7 93.23 L-223.1 91.37 L-222.3 89.57 L-221.4 87.83 L-220.4 86.16 L-219.2 84.59 L-217.9 83.11 L-216.5 81.74 L-215 80.48 L-213.4 79.35 L-211.7 78.35 L-210 77.49 L-208.2 76.76 L-206.3 76.19 L-204.4 75.76 L-202.4 75.49 L-200.5 75.37 L-198.5 75.41 L-196.6 75.61 L-194.7 75.96 L-192.8 76.46 L-190.9 77.11 L-189.1 77.9 L-187.4 78.83 L-185.8 79.9 L-184.2 81.1 L-182.8 82.41 L-181.4 83.84 L-180.2 85.36 L-179.1 86.98 L-178.1 88.69 L-177.3 90.46 L-176.6 92.3 L-176.1 94.18 L-175.7 96.1 L-175.4 98.04 L-175.4 100 Z " />
<path stroke="rgb(0,0,0)" stroke-opacity="1" fill="rgb(255,255,255)" fill-opacity="1" d="M-686.9 -511.7 L-687 -510.7 L-687 -509.7 L-687.1 -508.7 L-687.2 -507.7 L-687.3 -506.7 L-687.3 -505.7 L-687.4 -504.7 L-687.5 -503.7 L-687.6 -502.7 L-687.6 -501.7 L-687.7 -500.7 L-687.8 -499.7 L-687.9 -498.7 L-687.9 -497.7 L-688 -496.7 L-688.1 -495.7 L-688.2 -494.7 L-688.2 -493.7 L-688.3 -492.7 L-688.4 -491.7 L-688.5 -490.7 L-688.5 -489.7 L-688.6 -488.7 L-688.7 -487.7 L-688.8 -486.6 L-689.8 -486.7 L-690.8 -486.8 L-691.8 -486.9 L-692.8 -486.9 L-693.8 -487 L-694.8 -487.1 L-695.8 -487.2 L-696.8 -487.2 L-697.8 -487.3 L-698.8 -487.4 L-699.8 -487.5 L-700.8 -487.5 L-701.8 -487.6 L-702.8 -487.7 L-703.8 -487.8 L-704.8 -487.8 L-705.8 -487.9 L-706.8 -488 L-707.8 -488.1 L-708.8 -488.1 L-709.8 -488.2 L-710.8 -488.3 L-711.8 -488.4 L-712.8 -488.4 L-713.8 -488.5 L-713.8 -489.5 L-713.7 -490.5 L-713.6 -491.5 L-713.5 -492.5 L-713.5 -493.5 L-713.4 -494.5 L-713.3 -495.5 L-713.2 -496.5 L-713.2 -497.5 L-713.1 -498.5 L-713 -499.5 L-712.9 -500.5 L-712.9 -501.5 L-712.8 -502.6 L-712.7 -503.6 L-712.6 -504.6 L-712.6 -505.6 L-712.5 -506.6 L-712.4 -507.6 L-712.4 -508.6 L-712.3 -509.6 L-712.2 -510.6 L-712.1 -511.6 L-712.1 -512.6 L-712 -513.6 L-711 -513.5 L-710 -513.4 L-709 -513.4 L-708 -513.3 L-707 -513.2 L-706 -513.1 L-705 -513.1 L-704 -513 L-703 -512.9 L-701.9 -512.8 L-700.9 -512.8 L-699.9 -512.7 L-698.9 -512.6 L-697.9 -512.5 L-696.9 -512.5 L-695.9 -512.4 L-694.9 -512.3 L-693.9 -512.3 L-692.9 -512.2 L-691.9 -512.1 L-690.9 -512 L-689.9 -512 L-688.9 -511.9 L-687.9 -511.8 L-686.9 -511.7 Z " />
<path stroke="rgb(0,0,0)" stroke-opacity="1" fill="rgb(255,255,255)" fill-opacity="1" d="M24.64 100 L24.56 102 L24.32 103.9 L23.94 105.8 L23.4 107.7 L22.71 109.5 L21.88 111.3 L20.92 113 L19.82 114.6 L18.59 116.2 L17.25 117.6 L15.8 118.9 L14.24 120.1 L12.6 121.2 L10.88 122.1 L9.09 122.9 L7.242 123.5 L5.349 124 L3.422 124.4 L1.473 124.6 L-0.4851 124.6 L-2.44 124.5 L-4.38 124.2 L-6.291 123.8 L-8.164 123.2 L-9.984 122.5 L-11.74 121.7 L-13.42 120.6 L-15.02 119.5 L-16.53 118.3 L-17.92 116.9 L-19.21 115.4 L-20.37 113.8 L-21.41 112.2 L-22.31 110.4 L-23.07 108.6 L-23.68 106.8 L-24.14 104.9 L-24.45 102.9 L-24.61 101 L-24.61 99.02 L-24.45 97.07 L-24.14 95.13 L-23.68 93.23 L-23.07 91.37 L-22.31 89.57 L-21.41 87.83 L-20.37 86.16 L-19.21 84.59 L-17.92 83.11 L-16.53 81.74 L-15.02 80.48 L-13.42 79.35 L-11.74 78.35 L-9.984 77.49 L-8.164 76.76 L-6.291 76.19 L-4.38 75.76 L-2.44 75.49 L-0.4851 75.37 L1.473 75.41 L3.422 75.61 L5.349 75.96 L7.242 76.46 L9.09 77.11 L10.88 77.9 L12.6 78.83 L14.24 79.9 L15.8 81.1 L17.25 82.41 L18.59 83.84 L19.82 85.36 L20.92 86.98 L21.88 88.69 L22.71 90.46 L23.4 92.3 L23.94 94.18 L24.32 96.1 L24.56 98.04 L24.64 100 Z " />
<path stroke="rgb(0,0,0)" stroke-opacity="1" fill="rgb(255,255,255)" fill-opacity="1" d="M-481.4 -507.9 L-481.9 -506.8 L-482.3 -505.8 L-482.8 -504.7 L-483.2 -503.6 L-483.7 -502.6 L-484.1 -501.5 L-484.6 -500.4 L-485 -499.4 L-485.5 -498.3 L-485.9 -497.2 L-486.4 -496.1 L-486.8 -495.1 L-487.3 -494 L-487.7 -492.9 L-488.2 -491.9 L-488.6 -490.8 L-489.1 -489.7 L-489.5 -488.6 L-490 -487.6 L-490.4 -486.5 L-490.9 -485.4 L-491.3 -484.4 L-491.8 -483.3 L-492.2 -482.2 L-492.7 -481.2 L-493.7 -481.6 L-494.8 -482.1 L-495.9 -482.5 L-496.9 -483 L-498 -483.4 L-499.1 -483.9 L-500.2 -484.3 L-501.2 -484.8 L-502.3 -485.2 L-503.4 -485.7 L-504.4 -486.1 L-505.5 -486.6 L-506.6 -487 L-507.7 -487.5 L-508.7 -487.9 L-509.8 -488.4 L-510.9 -488.8 L-511.9 -489.3 L-513 -489.7 L-514.1 -490.2 L-515.1 -490.6 L-516.2 -491.1 L-517.3 -491.5 L-518.4 -492 L-519.4 -492.4 L-519 -493.5 L-518.5 -494.5 L-518.1 -495.6 L-517.6 -496.7 L-517.2 -497.8 L-516.7 -498.8 L-516.3 -499.9 L-515.8 -501 L-515.4 -502 L-514.9 -503.1 L-514.5 -504.2 L-514 -505.2 L-513.6 -506.3 L-513.1 -507.4 L-512.7 -508.5 L-512.2 -509.5 L-511.8 -510.6 L-511.3 -511.7 L-510.9 -512.7 L-510.4 -513.8 L-510 -514.9 L-509.5 -515.9 L-509.1 -517 L-508.6 -518.1 L-508.2 -519.2 L-507.1 -518.7 L-506 -518.3 L-505 -517.8 L-503.9 -517.4 L-502.8 -516.9 L-501.8 -516.5 L-500.7 -516 L-499.6 -515.6 L-498.5 -515.1 L-497.5 -514.7 L-496.4 -514.2 L-495.3 -513.8 L-494.3 -513.3 L-493.2 -512.9 L-492.1 -512.4 L-491.1 -512 L-490 -511.5 L-488.9 -511.1 L-487.8 -510.6 L-486.8 -510.2 L-485.7 -509.7 L-484.6 -509.3 L-483.6 -508.8 L-482.5 -508.4 L-481.4 -507.9 Z " />
<path stroke="rgb(0,0,0)" stroke-opacity="1" fill="rgb(255,255,255)" fill-opacity="1" d="M224.6 100 L224.6 102 L224.3 103.9 L223.9 105.8 L223.4 107.7 L222.7 109.5 L221.9 111.3 L220.9 113 L219.8 114.6 L218.6 116.2 L217.2 117.6 L215.8 118.9 L214.2 120.1 L212.6 121.2 L210.9 122.1 L209.1 122.9 L207.2 123.5 L205.3 124 L203.4 124.4 L201.5 124.6 L199.5 124.6 L197.6 124.5 L195.6 124.2 L193.7 123.8 L191.8 123.2 L190 122.5 L188.3 121.7 L186.6 120.6 L185 119.5 L183.5 118.3 L182.1 116.9 L180.8 115.4 L179.6 113.8 L178.6 112.2 L177.7 110.4 L176.9 108.6 L176.3 106.8 L175.9 104.9 L175.5 102.9 L175.4 101 L175.4 99.02 L175.5 97.07 L175.9 95.13 L176.3 93.23 L176.9 91.37 L177.7 89.57 L178.6 87.83 L179.6 86.16 L180.8 84.59 L182.1 83.11 L183.5 81.74 L185 80.48 L186.6 79.35 L188.3 78.35 L190 77.49 L191.8 76.76 L193.7 76.19 L195.6 75.76 L197.6 75.49 L199.5 75.37 L201.5 75.41 L203.4 75.61 L205.3 75.96 L207.2 76.46 L209.1 77.11 L210.9 77.9 L212.6 78.83 L214.2 79.9 L215.8 81.1 L217.2 82.41 L218.6 83.84 L219.8 85.36 L220.9 86.98 L221.9 88.69 L222.7 90.46 L223.4 92.3 L223.9 94.18 L224.3 96.1 L224.6 98.04 L224.6 100 Z " />
<path stroke="rgb(0,0,0)" stroke-opacity="1" fill="rgb(255,255,255)" fill-opacity="1" d="M-273.9 -491.5 L-275.3 -490.8 L-276.7 -490.1 L-278.1 -489.4 L-279.5 -488.7 L-280.9 -488 L-282.4 -487.2 L-283.8 -486.5 L-285.2 -485.8 L-286.6 -485.1 L-288 -484.4 L-289.5 -483.7 L-290.9 -483 L-292.3 -482.2 L-293.7 -481.5 L-295.1 -480.8 L-296.5 -480.1 L-298 -479.4 L-299.4 -478.7 L-300.8 -478 L-302.2 -477.3 L-303.6 -476.5 L-305 -475.8 L-306.5 -475.1 L-307.9 -474.4 L-309.3 -473.7 L-310 -475.1 L-310.7 -476.5 L-311.4 -477.9 L-312.1 -479.4 L-312.9 -480.8 L-313.6 -482.2 L-314.3 -483.6 L-315 -485 L-315.7 -486.4 L-316.4 -487.9 L-317.1 -489.3 L-317.9 -490.7 L-318.6 -492.1 L-319.3 -493.5 L-320 -494.9 L-320.7 -496.4 L-321.4 -497.8 L-322.1 -499.2 L-322.9 -500.6 L-323.6 -502 L-324.3 -503.4 L-325 -504.9 L-325.7 -506.3 L-326.4 -507.7 L-327.1 -509.1 L-325.7 -509.8 L-324.3 -510.5 L-322.9 -511.3 L-321.5 -512 L-320 -512.7 L-318.6 -513.4 L-317.2 -514.1 L-315.8 -514.8 L-314.4 -515.5 L-313 -516.3 L-311.5 -517 L-310.1 -517.7 L-308.7 -518.4 L-307.3 -519.1 L-305.9 -519.8 L-304.5 -520.5 L-303 -521.2 L-301.6 -522 L-300.2 -522.7 L-298.8 -523.4 L-297.4 -524.1 L-296 -524.8 L-294.5 -525.5 L-293.1 -526.2 L-291.7 -527 L-291 -525.5 L-290.3 -524.1 L-289.6 -522.7 L-288.8 -521.3 L-288.1 -519.9 L-287.4 -518.5 L-286.7 -517 L-286 -515.6 L-285.3 -514.2 L-284.6 -512.8 L-283.9 -511.4 L-283.1 -510 L-282.4 -508.5 L-281.7 -507.1 L-281 -505.7 L-280.3 -504.3 L-279.6 -502.9 L-278.9 -501.4 L-278.1 -500 L-277.4 -498.6 L-276.7 -497.2 L-276 -495.8 L-275.3 -494.4 L-274.6 -492.9 L-273.9 -491.5 Z " />
<path stroke="rgb(0,0,0)" stroke-opacity="1" fill="rgb(255,255,255)" fill-opacity="1" d="M-275.4 200 L-275.4 202 L-275.7 203.9 L-276.1 205.8 L-276.6 207.7 L-277.3 209.5 L-278.1 211.3 L-279.1 213 L-280.2 214.6 L-281.4 216.2 L-282.8 217.6 L-284.2 218.9 L-285.8 220.1 L-287.4 221.2 L-289.1 222.1 L-290.9 222.9 L-292.8 223.5 L-294.7 224 L-296.6 224.4 L-298.5 224.6 L-300.5 224.6 L-302.4 224.5 L-304.4 224.2 L-306.3 223.8 L-308.2 223.2 L-310 222.5 L-311.7 221.7 L-313.4 220.6 L-315 219.5 L-316.5 218.3 L-317.9 216.9 L-319.2 215.4 L-320.4 213.8 L-321.4 212.2 L-322.3 210.4 L-323.1 208.6 L-323.7 206.8 L-324.1 204.9 L-324.5 202.9 L-324.6 201 L-324.6 199 L-324.5 197.1 L-324.1 195.1 L-323.7 193.2 L-323.1 191.4 L-322.3 189.6 L-321.4 187.8 L-320.4 186.2 L-319.2 184.6 L-317.9 183.1 L-316.5 181.7 L-315 180.5 L-313.4 179.4 L-311.7 178.3 L-310 177.5 L-308.2 176.8 L-306.3 176.2 L-304.4 175.8 L-302.4 175.5 L-300.5 175.4 L-298.5 175.4 L-296.6 175.6 L-294.7 176 L-292.8 176.5 L-290.9 177.1 L-289.1 177.9 L-287.4 178.8 L-285.8 179.9 L-284.2 181.1 L-282.8 182.4 L-281.4 183.8 L-280.2 185.4 L-279.1 187 L-278.1 188.7 L-277.3 190.5 L-276.6 192.3 L-276.1 194.2 L-275.7 196.1 L-275.4 198 L-275.4 200 Z " />
<path stroke="rgb(0,0,0)" stroke-opacity="1" fill="rgb(255,255,255)" fill-opacity="1" d="M-786.9 -411.7 L-787 -410.7 L-787 -409.7 L-787.1 -408.7 L-787.2 -407.7 L-787.3 -406.7 L-787.3 -405.7 L-787.4 -404.7 L-787.5 -403.7 L-787.6 -402.7 L-787.6 -401.7 L-787.7 -400.7 L-787.8 -399.7 L-787.9 -398.7 L-787.9 -397.7 L-788 -396.7 L-788.1 -395.7 L-788.2 -394.7 L-788.2 -393.7 L-788.3 -392.7 L-788.4 -391.7 L-788.5 -390.7 L-788.5 -389.7 L-788.6 -388.7 L-788.7 -387.7 L-788.8 -386.6 L-789.8 -386.7 L-790.8 -386.8 L-791.8 -386.9 L-792.8 -386.9 L-793.8 -387 L-794.8 -387.1 L-795.8 -387.2 L-796.8 -387.2 L-797.8 -387.3 L-798.8 -387.4 L-799.8 -387.5 L-800.8 -387.5 L-801.8 -387.6 L-802.8 -387.7 L-803.8 -387.8 L-804.8 -387.8 L-805.8 -387.9 L-806.8 -388 L-807.8 -388.1 L-808.8 -388.1 L-809.8 -388.2 L-810.8 -388.3 L-811.8 -388.4 L-812.8 -388.4 L-813.8 -388.5 L-813.8 -389.5 L-813.7 -390.5 L-813.6 -391.5 L-813.5 -392.5 L-813.5 -393.5 L-813.4 -394.5 L-813.3 -395.5 L-813.2 -396.5 L-813.2 -397.5 L-813.1 -398.5 L-813 -399.5 L-812.9 -400.5 L-812.9 -401.5 L-812.8 -402.6 L-812.7 -403.6 L-812.6 -404.6 L-812.6 -405.6 L-812.5 -406.6 L-812.4 -407.6 L-812.4 -408.6 L-812.3 -409.6 L-812.2 -410.6 L-812.1 -411.6 L-812.1 -412.6 L-812 -413.6 L-811 -413.5 L-810 -413.4 L-809 -413.4 L-808 -413.3 L-807 -413.2 L-806 -413.1 L-805 -413.1 L-804 -413 L-803 -412.9 L-801.9 -412.8 L-800.9 -412.8 L-799.9 -412.7 L-798.9 -412.6 L-797.9 -412.5 L-796.9 -412.5 L-795.9 -412.4 L-794.9 -412.3 L-793.9 -412.3 L-792.9 -412.2 L-791.9 -412.1 L-790.9 -412 L-789.9 -412 L-788.9 -411.9 L-787.9 -411.8 L-786.9 -411.7 Z " />
<path stroke="rgb(0,0,0)" stroke-opacity="1" fill="rgb(255,255,255)" fill-opacity="1" d="M-75.36 200 L-75.44 202 L-75.68 203.9 L-76.06 205.8 L-76.6 207.7 L-77.29 209.5 L-78.12 211.3 L-79.08 213 L-80.18 214.6 L-81.41 216.2 L-82.75 217.6 L-84.2 218.9 L-85.76 220.1 L-87.4 221.2 L-89.12 222.1 L-90.91 222.9 L-92.76 223.5 L-94.65 224 L-96.58 224.4 L-98.53 224.6 L-100.5 224.6 L-102.4 224.5 L-104.4 224.2 L-106.3 223.8 L-108.2 223.2 L-110 222.5 L-111.7 221.7 L-113.4 220.6 L-115 219.5 L-116.5 218.3 L-117.9 216.9 L-119.2 215.4 L-120.4 213.8 L-121.4 212.2 L-122.3 210.4 L-123.1 208.6 L-123.7 206.8 L-124.1 204.9 L-124.5 202.9 L-124.6 201 L-124.6 199 L-124.5 197.1 L-124.1 195.1 L-123.7 193.2 L-123.1 191.4 L-122.3 189.6 L-121.4 187.8 L-120.4 186.2 L-119.2 184.6 L-117.9 183.1 L-116.5 181.7 L-115 180.5 L-113.4 179.4 L-111.7 178.3 L-110 177.5 L-108.2 176.8 L-106.3 176.2 L-104.4 175.8 L-102.4 175.5 L-100.5 175.4 L-98.53 175.4 L-96.58 175.6 L-94.65 176 L-92.76 176.5 L-90.91 177.1 L-89.12 177.9 L-87.4 178.8 L-85.76 179.9 L-84.2 181.1 L-82.75 182.4 L-81.41 183.8 L-80.18 185.4 L-79.08 187 L-78.12 188.7 L-77.29 190.5 L-76.6 192.3 L-76.06 194.2 L-75.68 196.1 L-75.44 198 L-75.36 200 Z " />
<path stroke="rgb(0,0,0)" stroke-opacity="1" fill="rgb(255,255,255)" fill-opacity="1" d="M-581.4 -407.9 L-581.9 -406.8 L-582.3 -405.8 L-582.8 -404.7 L-583.2 -403.6 L-583.7 -402.6 L-584.1 -401.5 L-584.6 -400.4 L-585 -399.4 L-585.5 -398.3 L-585.9 -397.2 L-586.4 -396.1 L-586.8 -395.1 L-587.3 -394 L-587.7 -392.9 L-588.2 -391.9 L-588.6 -390.8 L-589.1 -389.7 L-589.5 -388.6 L-590 -387.6 L-590.4 -386.5 L-590.9 -385.4 L-591.3 -384.4 L-591.8 -383.3 L-592.2 -382.2 L-592.7 -381.2 L-593.7 -381.6 L-594.8 -382.1 L-595.9 -382.5 L-596.9 -383 L-598 -383.4 L-599.1 -383.9 L-600.2 -384.3 L-601.2 -384.8 L-602.3 -385.2 L-603.4 -385.7 L-604.4 -386.1 L-605.5 -386.6 L-606.6 -387 L-607.7 -387.5 L-608.7 -387.9 L-609.8 -388.4 L-610.9 -388.8 L-611.9 -389.3 L-613 -389.7 L-614.1 -390.2 L-615.1 -390.6 L-616.2 -391.1 L-617.3 -391.5 L-618.4 -392 L-619.4 -392.4 L-619 -393.5 L-618.5 -394.5 L-618.1 -395.6 L-617.6 -396.7 L-617.2 -397.8 L-616.7 -398.8 L-616.3 -399.9 L-615.8 -401 L-615.4 -402 L-614.9 -403.1 L-614.5 -404.2 L-614 -405.2 L-613.6 -406.3 L-613.1 -407.4 L-612.7 -408.5 L-612.2 -409.5 L-611.8 -410.6 L-611.3 -411.7 L-610.9 -412.7 L-610.4 -413.8 L-610 -414.9 L-609.5 -415.9 L-609.1 -417 L-608.6 -418.1 L-608.2 -419.2 L-607.1 -418.7 L-606 -418.3 L-605 -417.8 L-603.9 -417.4 L-602.8 -416.9 L-601.8 -416.5 L-600.7 -416 L-599.6 -415.6 L-598.5 -415.1 L-597.5 -414.7 L-596.4 -414.2 L-595.3 -413.8 L-594.3 -413.3 L-593.2 -412.9 L-592.1 -412.4 L-591.1 -412 L-590 -411.5 L-588.9 -411.1 L-587.8 -410.6 L-586.8 -410.2 L-585.7 -409.7 L-584.6 -409.3 L-583.6 -408.8 L-582.5 -408.4 L-581.4 -407.9 Z " />
<path stroke="rgb(0,0,0)" stroke-opacity="1" fill="rgb(255,255,255)" fill-opacity="1" d="M124.6 200 L124.6 202 L124.3 203.9 L123.9 205.8 L123.4 207.7 L122.7 209.5 L121.9 211.3 L120.9 213 L119.8 214.6 L118.6 216.2 L117.2 217.6 L115.8 218.9 L114.2 220.1 L112.6 221.2 L110.9 222.1 L109.1 222.9 L107.2 223.5 L105.3 224 L103.4 224.4 L101.5 224.6 L99.51 224.6 L97.56 224.5 L95.62 224.2 L93.71 223.8 L91.84 223.2 L90.02 222.5 L88.26 221.7 L86.58 220.6 L84.98 219.5 L83.47 218.3 L82.08 216.9 L80.79 215.4 L79.63 213.8 L78.59 212.2 L77.69 210.4 L76.93 208.6 L76.32 206.8 L75.86 204.9 L75.55 202.9 L75.39 201 L75.39 199 L75.55 197.1 L75.86 195.1 L76.32 193.2 L76.93 191.4 L77.69 189.6 L78.59 187.8 L79.63 186.2 L80.79 184.6 L82.08 183.1 L83.47 181.7 L84.98 180.5 L86.58 179.4 L88.26 178.3 L90.02 177.5 L91.84 176.8 L93.71 176.2 L95.62 175.8 L97.56 175.5 L99.51 175.4 L101.5 175.4 L103.4 175.6 L105.3 176 L107.2 176.5 L109.1 177.1 L110.9 177.9 L112.6 178.8 L114.2 179.9 L115.8 181.1 L117.2 182.4 L118.6 183.8 L119.8 185.4 L120.9 187 L121.9 188.7 L122.7 190.5 L123.4 192.3 L123.9 194.2 L124.3 196.1 L124.6 198 L124.6 200 Z " />
<path stroke="rgb(0,0,0)" stroke-opacity="1" fill="rgb(255,255,255)" fill-opacity="1" d="M-373.9 -391.5 L-375.3 -390.8 L-376.7 -390.1 L-378.1 -389.4 L-379.5 -388.7 L-380.9 -388 L-382.4 -387.2 L-383.8 -386.5 L-385.2 -385.8 L-386.6 -385.1 L-388 -384.4 L-389.5 -383.7 L-390.9 -383 L-392.3 -382.2 L-393.7 -381.5 L-395.1 -380.8 L-396.5 -380.1 L-398 -379.4 L-399.4 -378.7 L-400.8 -378 L-402.2 -377.3 L-403.6 -376.5 L-405 -375.8 L-406.5 -375.1 L-407.9 -374.4 L-409.3 -373.7 L-410 -375.1 L-410.7 -376.5 L-411.4 -377.9 L-412.1 -379.4 L-412.9 -380.8 L-413.6 -382.2 L-414.3 -383.6 L-415 -385 L-415.7 -386.4 L-416.4 -387.9 L-417.1 -389.3 L-417.9 -390.7 L-418.6 -392.1 L-419.3 -393.5 L-420 -394.9 L-420.7 -396.4 L-421.4 -397.8 L-422.1 -399.2 L-422.9 -400.6 L-423.6 -402 L-424.3 -403.4 L-425 -404.9 L-425.7 -406.3 L-426.4 -407.7 L-427.1 -409.1 L-425.7 -409.8 L-424.3 -410.5 L-422.9 -411.3 L-421.5 -412 L-420 -412.7 L-418.6 -413.4 L-417.2 -414.1 L-415.8 -414.8 L-414.4 -415.5 L-413 -416.3 L-411.5 -417 L-410.1 -417.7 L-408.7 -418.4 L-407.3 -419.1 L-405.9 -419.8 L-404.5 -420.5 L-403 -421.2 L-401.6 -422 L-400.2 -422.7 L-398.8 -423.4 L-397.4 -424.1 L-396 -424.8 L-394.5 -425.5 L-393.1 -426.2 L-391.7 -427 L-391 -425.5 L-390.3 -424.1 L-389.6 -422.7 L-388.8 -421.3 L-388.1 -419.9 L-387.4 -418.5 L-386.7 -417 L-386 -415.6 L-385.3 -414.2 L-384.6 -412.8 L-383.9 -411.4 L-383.1 -410 L-382.4 -408.5 L-381.7 -407.1 L-381 -405.7 L-380.3 -404.3 L-379.6 -402.9 L-378.9 -401.4 L-378.1 -400 L-377.4 -398.6 L-376.7 -397.2 L-376 -395.8 L-375.3 -394.4 L-374.6 -392.9 L-373.9 -391.5 Z " />
<path stroke="rgb(0,0,0)" stroke-opacity="1" fill="rgb(255,255,255)" fill-opacity="1" d="M324.6 200 L324.6 202 L324.3 203.9 L323.9 205.8 L323.4 207.7 L322.7 209.5 L321.9 211.3 L320.9 213 L319.8 214.6 L318.6 216.2 L317.2 217.6 L315.8 218.9 L314.2 220.1 L312.6 221.2 L310.9 222.1 L309.1 222.9 L307.2 223.5 L305.3 224 L303.4 224.4 L301.5 224.6 L299.5 224.6 L297.6 224.5 L295.6 224.2 L293.7 223.8 L291.8 223.2 L290 222.5 L288.3 221.7 L286.6 220.6 L285 219.5 L283.5 218.3 L282.1 216.9 L280.8 215.4 L279.6 213.8 L278.6 212.2 L277.7 210.4 L276.9 208.6 L276.3 206.8 L275.9 204.9 L275.5 202.9 L275.4 201 L275.4 199 L275.5 197.1 L275.9 195.1 L276.3 193.2 L276.9 191.4 L277.7 189.6 L278.6 187.8 L279.6 186.2 L280.8 184.6 L282.1 183.1 L283.5 181.7 L285 180.5 L286.6 179.4 L288.3 178.3 L290 177.5 L291.8 176.8 L293.7 176.2 L295.6 175.8 L297.6 175.5 L299.5 175.4 L301.5 175.4 L303.4 175.6 L305.3 176 L307.2 176.5 L309.1 177.1 L310.9 177.9 L312.6 178.8 L314.2 179.9 L315.8 181.1 L317.2 182.4 L318.6 183.8 L319.8 185.4 L320.9 187 L321.9 188.7 L322.7 190.5 L323.4 192.3 L323.9 194.2 L324.3 196.1 L324.6 198 L324.6 200 Z " />
<path stroke="rgb(0,0,0)" stroke-opacity="1" fill="rgb(255,255,255)" fill-opacity="1" d="M-886.9 -311.7 L-887 -310.7 L-887 -309.7 L-887.1 -308.7 L-887.2 -307.7 L-887.3 -306.7 L-887.3 -305.7 L-887.4 -304.7 L-887.5 -303.7 L-887.6 -302.7 L-887.6 -301.7 L-887.7 -300.7 L-887.8 -299.7 L-887.9 -298.7 L-887.9 -297.7 L-888 -296.7 L-888.1 -295.7 L-888.2 -294.7 L-888.2 -293.7 L-888.3 -292.7 L-888.4 -291.7 L-888.5 -290.7 L-888.5 -289.7 L-888.6 -288.7 L-888.7 -287.7 L-888.8 -286.6 L-889.8 -286.7 L-890.8 -286.8 L-891.8 -286.9 L-892.8 -286.9 L-893.8 -287 L-894.8 -287.1 L-895.8 -287.2 L-896.8 -287.2 L-897.8 -287.3 L-898.8 -287.4 L-899.8 -287.5 L-900.8 -287.5 L-901.8 -287.6 L-902.8 -287.7 L-903.8 -287.8 L-904.8 -287.8 L-905.8 -287.9 L-906.8 -288 L-907.8 -288.1 L-908.8 -288.1 L-909.8 -288.2 L-910.8 -288.3 L-911.8 -288.4 L-912.8 -288.4 L-913.8 -288.5 L-913.8 -289.5 L-913.7 -290.5 L-913.6 -291.5 L-913.5 -292.5 L-913.5 -293.5 L-913.4 -294.5 L-913.3 -295.5 L-913.2 -296.5 L-913.2 -297.5 L-913.1 -298.5 L-913 -299.5 L-912.9 -300.5 L-912.9 -301.5 L-912.8 -302.6 L-912.7 -303.6 L-912.6 -304.6 L-912.6 -305.6 L-912.5 -306.6 L-912.4 -307.6 L-912.4 -308.6 L-912.3 -309.6 L-912.2 -310.6 L-912.1 -311.6 L-912.1 -312.6 L-912 -313.6 L-911 -313.5 L-910 -313.4 L-909 -313.4 L-908 -313.3 L-907 -313.2 L-906 -313.1 L-905 -313.1 L-904 -313 L-903 -312.9 L-901.9 -312.8 L-900.9 -312.8 L-899.9 -312.7 L-898.9 -312.6 L-897.9 -312.5 L-896.9 -312.5 L-895.9 -312.4 L-894.9 -312.3 L-893.9 -312.3 L-892.9 -312.2 L-891.9 -312.1 L-890.9 -312 L-889.9 -312 L-888.9 -311.9 L-887.9 -311.8 L-886.9 -311.7 Z " />
<path stroke="rgb(0,0,0)" stroke-opacity="1" fill="rgb(255,255,255)" fill-opacity="1" d="M-175.4 300 L-175.4 302 L-175.7 303.9 L-176.1 305.8 L-176.6 307.7 L-177.3 309.5 L-178.1 311.3 L-179.1 313 L-180.2 314.6 L-181.4 316.2 L-182.8 317.6 L-184.2 318.9 L-185.8 320.1 L-187.4 321.2 L-189.1 322.1 L-190.9 322.9 L-192.8 323.5 L-194.7 324 L-196.6 324.4 L-198.5 324.6 L-200.5 324.6 L-202.4 324.5 L-204.4 324.2 L-206.3 323.8 L-208.2 323.2 L-210 322.5 L-211.7 321.7 L-213.4 320.6 L-215 319.5 L-216.5 318.3 L-217.9 316.9 L-219.2 315.4 L-220.4 313.8 L-221.4 312.2 L-222.3 310.4 L-223.1 308.6 L-223.7 306.8 L-224.1 304.9 L-224.5 302.9 L-224.6 301 L-224.6 299 L-224.5 297.1 L-224.1 295.1 L-223.7 293.2 L-223.1 291.4 L-222.3 289.6 L-221.4 287.8 L-220.4 286.2 L-219.2 284.6 L-217.9 283.1 L-216.5 281.7 L-215 280.5 L-213.4 279.4 L-211.7 278.3 L-210 277.5 L-208.2 276.8 L-206.3 276.2 L-204.4 275.8 L-202.4 275.5 L-200.5 275.4 L-198.5 275.4 L-196.6 275.6 L-194.7 276 L-192.8 276.5 L-190.9 277.1 L-189.1 277.9 L-187.4 278.8 L-185.8 279.9 L-184.2 281.1 L-182.8 282.4 L-181.4 283.8 L-180.2 285.4 L-179.1 287 L-178.1 288.7 L-177.3 290.5 L-176.6 292.3 L-176.1 294.2 L-175.7 296.1 L-175.4 298 L-175.4 300 Z " />
<path stroke="rgb(0,0,0)" stroke-opacity="1" fill="rgb(255,255,255)" fill-opacity="1" d="M-681.4 -307.9 L-681.9 -306.8 L-682.3 -305.8 L-682.8 -304.7 L-683.2 -303.6 L-683.7 -302.6 L-684.1 -301.5 L-684.6 -300.4 L-685 -299.4 L-685.5 -298.3 L-685.9 -297.2 L-686.4 -296.1 L-686.8 -295.1 L-687.3 -294 L-687.7 -292.9 L-688.2 -291.9 L-688.6 -290.8 L-689.1 -289.7 L-689.5 -288.6 L-690 -287.6 L-690.4 -286.5 L-690.9 -285.4 L-691.3 -284.4 L-691.8 -283.3 L-692.2 -282.2 L-692.7 -281.2 L-693.7 -281.6 L-694.8 -282.1 L-695.9 -282.5 L-696.9 -283 L-698 -283.4 L-699.1 -283.9 L-700.2 -284.3 L-701.2 -284.8 L-702.3 -285.2 L-703.4 -285.7 L-704.4 -286.1 L-705.5 -286.6 L-706.6 -287 L-707.7 -287.5 L-708.7 -287.9 L-709.8 -288.4 L-710.9 -288.8 L-711.9 -289.3 L-713 -289.7 L-714.1 -290.2 L-715.1 -290.6 L-716.2 -291.1 L-717.3 -291.5 L-718.4 -292 L-719.4 -292.4 L-719 -293.5 L-718.5 -294.5 L-718.1 -295.6 L-717.6 -296.7 L-717.2 -297.8 L-716.7 -298.8 L-716.3 -299.9 L-715.8 -301 L-715.4 -302 L-714.9 -303.1 L-714.5 -304.2 L-714 -305.2 L-713.6 -306.3 L-713.1 -307.4 L-712.7 -308.5 L-712.2 -309.5 L-711.8 -310.6 L-711.3 -311.7 L-710.9 -312.7 L-710.4 -313.8 L-710 -314.9 L-709.5 -315.9 L-709.1 -317 L-708.6 -318.1 L-708.2 -319.2 L-707.1 -318.7 L-706 -318.3 L-705 -317.8 L-703.9 -317.4 L-702.8 -316.9 L-701.8 -316.5 L-700.7 -316 L-699.6 -315.6 L-698.5 -315.1 L-697.5 -314.7 L-696.4 -314.2 L-695.3 -313.8 L-694.3 -313.3 L-693.2 -312.9 L-692.1 -312.4 L-691.1 -312 L-690 -311.5 L-688.9 -311.1 L-687.8 -310.6 L-686.8 -310.2 L-685.7 -309.7 L-684.6 -309.3 L-683.6 -308.8 L-682.5 -308.4 L-681.4 -307.9 Z " />
<path stroke="rgb(0,0,0)" stroke-opacity="1" fill="rgb(255,255,255)" fill-opacity="1" d="M24.64 300 L24.56 302 L24.32 303.9 L23.94 305.8 L23.4 307.7 L22.71 309.5 L21.88 311.3 L20.92 313 L19.82 314.6 L18.59 316.2 L17.25 317.6 L15.8 318.9 L14.24 320.1 L12.6 321.2 L10.88 322.1 L9.09 322.9 L7.242 323.5 L5.349 324 L3.422 324.4 L1.473 324.6 L-0.4851 324.6 L-2.44 324.5 L-4.38 324.2 L-6.291 323.8 L-8.164 323.2 L-9.984 322.5 L-11.74 321.7 L-13.42 320.6 L-15.02 319.5 L-16.53 318.3 L-17.92 316.9 L-19.21 315.4 L-20.37 313.8 L-21.41 312.2 L-22.31 310.4 L-23.07 308.6 L-23.68 306.8 L-24.14 304.9 L-24.45 302.9 L-24.61 301 L-24.61 299 L-24.45 297.1 L-24.14 295.1 L-23.68 293.2 L-23.07 291.4 L-22.31 289.6 L-21.41 287.8 L-20.37 286.2 L-19.21 284.6 L-17.92 283.1 L-16.53 281.7 L-15.02 280.5 L-13.42 279.4 L-11.74 278.3 L-9.984 277.5 L-8.164 276.8 L-6.291 276.2 L-4.38 275.8 L-2.44 275.5 L-0.4851 275.4 L1.473 275.4 L3.422 275.6 L5.349 276 L7.242 276.5 L9.09 277.1 L10.88 277.9 L12.6 278.8 L14.24 279.9 L15.8 281.1 L17.25 282.4 L18.59 283.8 L19.82 285.4 L20.92 287 L21.88 288.7 L22.71 290.5 L23.4 292.3 L23.94 294.2 L24.32 296.1 L24.56 298 L24.64 300 Z " />
<path stroke="rgb(0,0,0)" stroke-opacity="1" fill="rgb(255,255,255)" fill-opacity="1" d="M-473.9 -291.5 L-475.3 -290.8 L-476.7 -290.1 L-478.1 -289.4 L-479.5 -288.7 L-480.9 -288 L-482.4 -287.2 L-483.8 -286.5 L-485.2 -285.8 L-486.6 -285.1 L-488 -284.4 L-489.5 -283.7 L-490.9 -283 L-492.3 -282.2 L-493.7 -281.5 L-495.1 -280.8 L-496.5 -280.1 L-498 -279.4 L-499.4 -278.7 L-500.8 -278 L-502.2 -277.3 L-503.6 -276.5 L-505 -275.8 L-506.5 -275.1 L-507.9 -274.4 L-509.3 -273.7 L-510 -275.1 L-510.7 -276.5 L-511.4 -277.9 L-512.1 -279.4 L-512.9 -280.8 L-513.6 -282.2 L-514.3 -283.6 L-515 -285 L-515.7 -286.4 L-516.4 -287.9 L-517.1 -289.3 L-517.9 -290.7 L-518.6 -292.1 L-519.3 -293.5 L-520 -294.9 L-520.7 -296.4 L-521.4 -297.8 L-522.1 -299.2 L-522.9 -300.6 L-523.6 -302 L-524.3 -303.4 L-525 -304.9 L-525.7 -306.3 L-526.4 -307.7 L-527.1 -309.1 L-525.7 -309.8 L-524.3 -310.5 L-522.9 -311.3 L-521.5 -312 L-520 -312.7 L-518.6 -313.4 L-517.2 -314.1 L-515.8 -314.8 L-514.4 -315.5 L-513 -316.3 L-511.5 -317 L-510.1 -317.7 L-508.7 -318.4 L-507.3 -319.1 L-505.9 -319.8 L-504.5 -320.5 L-503 -321.2 L-501.6 -322 L-500.2 -322.7 L-498.8 -323.4 L-497.4 -324.1 L-496 -324.8 L-494.5 -325.5 L-493.1 -326.2 L-491.7 -327 L-491 -325.5 L-490.3 -324.1 L-489.6 -322.7 L-488.8 -321.3 L-488.1 -319.9 L-487.4 -318.5 L-486.7 -317 L-486 -315.6 L-485.3 -314.2 L-484.6 -312.8 L-483.9 -311.4 L-483.1 -310 L-482.4 -308.5 L-481.7 -307.1 L-481 -305.7 L-480.3 -304.3 L-479.6 -302.9 L-478.9 -301.4 L-478.1 -300 L-477.4 -298.6 L-476.7 -297.2 L-476 -295.8 L-475.3 -294.4 L-474.6 -292.9 L-473.9 -291.5 Z " />
<path stroke="rgb(0,0,0)" stroke-opacity="1" fill="rgb(255,255,255)" fill-opacity="1" d="M224.6 300 L224.6 302 L224.3 303.9 L223.9 305.8 L223.4 307.7 L222.7 309.5 L221.9 311.3 L220.9 313 L219.8 314.6 L218.6 316.2 L217.2 317.6 L215.8 318.9 L214.2 320.1 L212.6 321.2 L210.9 322.1 L209.1 322.9 L207.2 323.5 L205.3 324 L203.4 324.4 L201.5 324.6 L199.5 324.6 L197.6 324.5 L195.6 324.2 L193.7 323.8 L191.8 323.2 L190 322.5 L188.3 321.7 L186.6 320.6 L185 319.5 L183.5 318.3 L182.1 316.9 L180.8 315.4 L179.6 313.8 L178.6 312.2 L177.7 310.4 L176.9 308.6 L176.3 306.8 L175.9 304.9 L175.5 302.9 L175.4 301 L175.4 299 L175.5 297.1 L175.9 295.1 L176.3 293.2 L176.9 291.4 L177.7 289.6 L178.6 287.8 L179.6 286.2 L180.8 284.6 L182.1 283.1 L183.5 281.7 L185 280.5 L186.6 279.4 L188.3 278.3 L190 277.5 L191.8 276.8 L193.7 276.2 L195.6 275.8 L197.6 275.5 L199.5 275.4 L201.5 275.4 L203.4 275.6 L205.3 276 L207.2 276.5 L209.1 277.1 L210.9 277.9 L212.6 278.8 L214.2 279.9 L215.8 281.1 L217.2 282.4 L218.6 283.8 L219.8 285.4 L220.9 287 L221.9 288.7 L222.7 290.5 L223.4 292.3 L223.9 294.2 L224.3 296.1 L224.6 298 L224.6 300 Z " />
<path stroke="rgb(0,0,0)" stroke-opacity="1" fill="rgb(255,255,255)" fill-opacity="1" d="M-275.2 -278.8 L-277.1 -278.6 L-278.9 -278.5 L-280.8 -278.3 L-282.7 -278.2 L-284.6 -278 L-286.5 -277.9 L-288.3 -277.7 L-290.2 -277.6 L-292.1 -277.5 L-294 -277.3 L-295.9 -277.2 L-297.7 -277 L-299.6 -276.9 L-301.5 -276.7 L-303.4 -276.6 L-305.3 -276.4 L-307.1 -276.3 L-309 -276.2 L-310.9 -276 L-312.8 -275.9 L-314.7 -275.7 L-316.5 -275.6 L-318.4 -275.4 L-320.3 -275.3 L-322.2 -275.1 L-322.3 -277 L-322.5 -278.9 L-322.6 -280.8 L-322.8 -282.7 L-322.9 -284.5 L-323 -286.4 L-323.2 -288.3 L-323.3 -290.2 L-323.5 -292.1 L-323.6 -293.9 L-323.8 -295.8 L-323.9 -297.7 L-324.1 -299.6 L-324.2 -301.5 L-324.3 -303.3 L-324.5 -305.2 L-324.6 -307.1 L-324.8 -309 L-324.9 -310.9 L-325.1 -312.7 L-325.2 -314.6 L-325.4 -316.5 L-325.5 -318.4 L-325.6 -320.3 L-325.8 -322.1 L-323.9 -322.3 L-322 -322.4 L-320.1 -322.6 L-318.3 -322.7 L-316.4 -322.9 L-314.5 -323 L-312.6 -323.2 L-310.7 -323.3 L-308.9 -323.4 L-307 -323.6 L-305.1 -323.7 L-303.2 -323.9 L-301.3 -324 L-299.5 -324.2 L-297.6 -324.3 L-295.7 -324.5 L-293.8 -324.6 L-291.9 -324.7 L-290.1 -324.9 L-288.2 -325 L-286.3 -325.2 L-284.4 -325.3 L-282.5 -325.5 L-280.7 -325.6 L-278.8 -325.8 L-278.6 -323.9 L-278.5 -322 L-278.4 -320.1 L-278.2 -318.2 L-278.1 -316.4 L-277.9 -314.5 L-277.8 -312.6 L-277.6 -310.7 L-277.5 -308.8 L-277.3 -307 L-277.2 -305.1 L-277.1 -303.2 L-276.9 -301.3 L-276.8 -299.4 L-276.6 -297.6 L-276.5 -295.7 L-276.3 -293.8 L-276.2 -291.9 L-276 -290 L-275.9 -288.2 L-275.8 -286.3 L-275.6 -284.4 L-275.5 -282.5 L-275.3 -280.6 L-275.2 -278.8 Z " />
</g>
</g>
</svg>
