<!DOCTYPE svg>
<svg xmlns="http://www.w3.org/2000/svg" xmlns:xlink="http://www.w3.org/1999/xlink" width="1000" height="1000">
<g transform="translate(500.000000,500.000000)">
<g transform="scale(3.000000,3.000000)">
<path stroke="rgb(0,0,0)" stroke-opacity="1" fill="rgb(255,255,255)" fill-opacity="1" d="M-790 -780.4 L-789.1 -780.8 L-788.1 -781.2 L-787.2 -781.6 L-786.3 -781.9 L-785.4 -782.3 L-784.5 -782.7 L-783.6 -783.1 L-782.7 -783.5 L-781.8 -783.9 L-780.9 -784.3 L-780 -784.6 L-779.1 -785 L-778.2 -785.4 L-777.3 -785.8 L-776.4 -786.2 L-775.5 -786.6 L-774.6 -787 L-773.6 -787.3 L-772.7 -787.7 L-771.8 -788.1 L-770.9 -788.5 L-770 -788.9 L-769.1 -789.3 L-768.2 -789.7 L-767.3 -790.1 L-766.9 -789.1 L-766.5 -788.2 L-766.1 -787.3 L-765.8 -786.4 L-765.4 -785.5 L-765 -784.6 L-764.6 -783.7 L-764.2 -782.8 L-763.8 -781.9 L-763.4 -781 L-763 -780.1 L-762.7 -779.2 L-762.3 -778.3 L-761.9 -777.4 L-761.5 -776.5 L-761.1 -775.6 L-760.7 -774.6 L-760.3 -773.7 L-760 -772.8 L-759.6 -771.9 L-759.2 -771 L-758.8 -770.1 L-758.4 -769.2 L-758 -768.3 L-757.6 -767.4 L-758.5 -767 L-759.5 -766.6 L-760.4 -766.2 L-761.3 -765.8 L-762.2 -765.5 L-763.1 -765.1 L-764 -764.7 L-764.9 -764.3 L-765.8 -763.9 L-766.7 -763.5 L-767.6 -763.1 L-768.5 -762.8 L-769.4 -762.4 L-770.3 -762 L-771.2 -761.6 L-772.1 -761.2 L-773 -760.8 L-774 -760.4 L-774.9 -760.1 L-775.8 -759.7 L-776.7 -759.3 L-777.6 -758.9 L-778.5 -758.5 L-779.4 -758.1 L-780.3 -757.7 L-780.7 -758.6 L-781.1 -759.5 L-781.5 -760.5 L-781.8 -761.4 L-782.2 -762.3 L-782.6 -763.2 L-783 -764.1 L-783.4 -765 L-783.8 -765.9 L-784.2 -766.8 L-784.5 -767.7 L-784.9 -768.6 L-785.3 -769.5 L-785.7 -770.4 L-786.1 -771.3 L-786.5 -772.2 L-786.9 -773.1 L-787.3 -774.1 L-787.6 -775 L-788 -775.9 L-788.4 -776.8 L-788.8 -777.7 L-789.2 -778.6 L-789.6 -779.5 L-790 -780.4 Z " />
<path stroke="rgb(0,0,0)" stroke-opacity="1" fill="rgb(255,255,255)" fill-opacity="1" d="M-199.6 -312.2 L-198.6 -312.2 L-197.6 -312.1 L-196.6 -311.9 L-195.7 -311.6 L-194.8 -311.2 L-193.9 -310.8 L-193 -310.3 L-192.2 -309.7 L-191.5 -309.1 L-190.8 -308.4 L-190.1 -307.7 L-189.5 -306.9 L-189 -306.1 L-188.5 -305.2 L-188.1 -304.3 L-187.8 -303.4 L-187.6 -302.4 L-187.4 -301.4 L-187.3 -300.5 L-187.3 -299.5 L-187.4 -298.5 L-187.5 -297.5 L-187.7 -296.6 L-188 -295.6 L-188.4 -294.7 L-188.9 -293.8 L-189.4 -293 L-189.9 -292.2 L-190.6 -291.4 L-191.3 -290.7 L-192 -290.1 L-192.8 -289.5 L-193.7 -289 L-194.6 -288.6 L-195.5 -288.2 L-196.4 -287.9 L-197.4 -287.7 L-198.3 -287.5 L-199.3 -287.5 L-200.3 -287.5 L-201.3 -287.6 L-202.3 -287.7 L-203.2 -288 L-204.1 -288.3 L-205.1 -288.7 L-205.9 -289.1 L-206.8 -289.7 L-207.5 -290.3 L-208.3 -290.9 L-209 -291.6 L-209.6 -292.4 L-210.1 -293.2 L-210.6 -294 L-211.1 -294.9 L-211.4 -295.9 L-211.7 -296.8 L-211.9 -297.8 L-212 -298.7 L-212.1 -299.7 L-212 -300.7 L-211.9 -301.7 L-211.8 -302.7 L-211.5 -303.6 L-211.2 -304.5 L-210.7 -305.4 L-210.3 -306.3 L-209.7 -307.1 L-209.1 -307.9 L-208.4 -308.6 L-207.7 -309.3 L-206.9 -309.9 L-206.1 -310.4 L-205.3 -310.9 L-204.4 -311.3 L-203.4 -311.7 L-202.5 -311.9 L-201.5 -312.1 L-200.5 -312.2 L-199.6 -312.2 Z " />
<path stroke="rgb(0,0,0)" stroke-opacity="1" fill="rgb(255,255,255)" fill-opacity="1" d="M-564.9 -747.1 L-564.2 -747.8 L-563.5 -748.6 L-562.9 -749.3 L-562.2 -750 L-561.5 -750.7 L-560.8 -751.4 L-560.2 -752.1 L-559.5 -752.9 L-558.8 -753.6 L-558.1 -754.3 L-557.5 -755 L-556.8 -755.7 L-556.1 -756.5 L-555.4 -757.2 L-554.8 -757.9 L-554.1 -758.6 L-553.4 -759.3 L-552.7 -760 L-552.1 -760.8 L-551.4 -761.5 L-550.7 -762.2 L-550 -762.9 L-549.4 -763.6 L-548.7 -764.4 L-548 -765.1 L-547.3 -764.4 L-546.6 -763.7 L-545.9 -763 L-545.1 -762.4 L-544.4 -761.7 L-543.7 -761 L-543 -760.3 L-542.3 -759.7 L-541.6 -759 L-540.8 -758.3 L-540.1 -757.6 L-539.4 -757 L-538.7 -756.3 L-538 -755.6 L-537.2 -754.9 L-536.5 -754.3 L-535.8 -753.6 L-535.1 -752.9 L-534.4 -752.2 L-533.7 -751.6 L-532.9 -750.9 L-532.2 -750.2 L-531.5 -749.5 L-530.8 -748.9 L-530.1 -748.2 L-530.7 -747.5 L-531.4 -746.8 L-532.1 -746 L-532.8 -745.3 L-533.4 -744.6 L-534.1 -743.9 L-534.8 -743.2 L-535.5 -742.4 L-536.1 -741.7 L-536.8 -741 L-537.5 -740.3 L-538.2 -739.6 L-538.8 -738.9 L-539.5 -738.1 L-540.2 -737.4 L-540.9 -736.7 L-541.5 -736 L-542.2 -735.3 L-542.9 -734.6 L-543.6 -733.8 L-544.2 -733.1 L-544.9 -732.4 L-545.6 -731.7 L-546.3 -731 L-546.9 -730.2 L-547.7 -730.9 L-548.4 -731.6 L-549.1 -732.3 L-549.8 -732.9 L-550.5 -733.6 L-551.3 -734.3 L-552 -735 L-552.7 -735.6 L-553.4 -736.3 L-554.1 -737 L-554.8 -737.7 L-555.6 -738.3 L-556.3 -739 L-557 -739.7 L-557.7 -740.4 L-558.4 -741 L-559.2 -741.7 L-559.9 -742.4 L-560.6 -743.1 L-561.3 -743.7 L-562 -744.4 L-562.7 -745.1 L-563.5 -745.8 L-564.2 -746.4 L-564.9 -747.1 Z " />
<path stroke="rgb(0,0,0)" stroke-opacity="1" fill="rgb(255,255,255)" fill-opacity="1" d="M0.4383 -312.2 L1.422 -312.2 L2.399 -312.1 L3.363 -311.9 L4.307 -311.6 L5.227 -311.2 L6.115 -310.8 L6.966 -310.3 L7.775 -309.7 L8.537 -309.1 L9.248 -308.4 L9.901 -307.7 L10.49 -306.9 L11.02 -306.1 L11.48 -305.2 L11.87 -304.3 L12.19 -303.4 L12.43 -302.4 L12.6 -301.4 L12.69 -300.5 L12.7 -299.5 L12.63 -298.5 L12.48 -297.5 L12.26 -296.6 L11.96 -295.6 L11.58 -294.7 L11.14 -293.8 L10.63 -293 L10.05 -292.2 L9.411 -291.4 L8.714 -290.7 L7.964 -290.1 L7.166 -289.5 L6.324 -289 L5.444 -288.6 L4.532 -288.2 L3.593 -287.9 L2.633 -287.7 L1.659 -287.5 L0.6762 -287.5 L-0.3089 -287.5 L-1.29 -287.6 L-2.261 -287.7 L-3.216 -288 L-4.149 -288.3 L-5.053 -288.7 L-5.923 -289.1 L-6.754 -289.7 L-7.541 -290.3 L-8.278 -290.9 L-8.96 -291.6 L-9.584 -292.4 L-10.14 -293.2 L-10.64 -294 L-11.07 -294.9 L-11.42 -295.9 L-11.7 -296.8 L-11.9 -297.8 L-12.03 -298.7 L-12.08 -299.7 L-12.05 -300.7 L-11.94 -301.7 L-11.76 -302.7 L-11.49 -303.6 L-11.16 -304.5 L-10.75 -305.4 L-10.27 -306.3 L-9.725 -307.1 L-9.116 -307.9 L-8.447 -308.6 L-7.723 -309.3 L-6.949 -309.9 L-6.128 -310.4 L-5.267 -310.9 L-4.37 -311.3 L-3.444 -311.7 L-2.494 -311.9 L-1.526 -312.1 L-0.5465 -312.2 L0.4383 -312.2 Z " />
<path stroke="rgb(0,0,0)" stroke-opacity="1" fill="rgb(255,255,255)" fill-opacity="1" d="M-339 -716.3 L-338.7 -717.2 L-338.3 -718.1 L-338 -719 L-337.6 -720 L-337.2 -720.9 L-336.9 -721.8 L-336.5 -722.7 L-336.2 -723.6 L-335.8 -724.6 L-335.5 -725.5 L-335.1 -726.4 L-334.7 -727.3 L-334.4 -728.2 L-334 -729.2 L-333.7 -730.1 L-333.3 -731 L-333 -731.9 L-332.6 -732.8 L-332.2 -733.7 L-331.9 -734.7 L-331.5 -735.6 L-331.2 -736.5 L-330.8 -737.4 L-330.5 -738.3 L-330.1 -739.3 L-329.2 -738.9 L-328.3 -738.5 L-327.3 -738.2 L-326.4 -737.8 L-325.5 -737.5 L-324.6 -737.1 L-323.7 -736.8 L-322.7 -736.4 L-321.8 -736 L-320.9 -735.7 L-320 -735.3 L-319.1 -735 L-318.2 -734.6 L-317.2 -734.3 L-316.3 -733.9 L-315.4 -733.5 L-314.5 -733.2 L-313.6 -732.8 L-312.6 -732.5 L-311.7 -732.1 L-310.8 -731.8 L-309.9 -731.4 L-309 -731 L-308 -730.7 L-307.1 -730.3 L-307.5 -729.4 L-307.8 -728.5 L-308.2 -727.6 L-308.6 -726.6 L-308.9 -725.7 L-309.3 -724.8 L-309.6 -723.9 L-310 -723 L-310.3 -722.1 L-310.7 -721.1 L-311.1 -720.2 L-311.4 -719.3 L-311.8 -718.4 L-312.1 -717.5 L-312.5 -716.5 L-312.8 -715.6 L-313.2 -714.7 L-313.6 -713.8 L-313.9 -712.9 L-314.3 -711.9 L-314.6 -711 L-315 -710.1 L-315.3 -709.2 L-315.7 -708.3 L-316.1 -707.4 L-317 -707.7 L-317.9 -708.1 L-318.8 -708.4 L-319.7 -708.8 L-320.7 -709.1 L-321.6 -709.5 L-322.5 -709.9 L-323.4 -710.2 L-324.3 -710.6 L-325.3 -710.9 L-326.2 -711.3 L-327.1 -711.6 L-328 -712 L-328.9 -712.4 L-329.8 -712.7 L-330.8 -713.1 L-331.7 -713.4 L-332.6 -713.8 L-333.5 -714.1 L-334.4 -714.5 L-335.4 -714.9 L-336.3 -715.2 L-337.2 -715.6 L-338.1 -715.9 L-339 -716.3 Z " />
<path stroke="rgb(0,0,0)" stroke-opacity="1" fill="rgb(255,255,255)" fill-opacity="1" d="M200.4 -312.2 L201.4 -312.2 L202.4 -312.1 L203.4 -311.9 L204.3 -311.6 L205.2 -311.2 L206.1 -310.8 L207 -310.3 L207.8 -309.7 L208.5 -309.1 L209.2 -308.4 L209.9 -307.7 L210.5 -306.9 L211 -306.1 L211.5 -305.2 L211.9 -304.3 L212.2 -303.4 L212.4 -302.4 L212.6 -301.4 L212.7 -300.5 L212.7 -299.5 L212.6 -298.5 L212.5 -297.5 L212.3 -296.6 L212 -295.6 L211.6 -294.7 L211.1 -293.8 L210.6 -293 L210.1 -292.2 L209.4 -291.4 L208.7 -290.7 L208 -290.1 L207.2 -289.5 L206.3 -289 L205.4 -288.6 L204.5 -288.2 L203.6 -287.9 L202.6 -287.7 L201.7 -287.5 L200.7 -287.5 L199.7 -287.5 L198.7 -287.6 L197.7 -287.7 L196.8 -288 L195.9 -288.3 L194.9 -288.7 L194.1 -289.1 L193.2 -289.7 L192.5 -290.3 L191.7 -290.9 L191 -291.6 L190.4 -292.4 L189.9 -293.2 L189.4 -294 L188.9 -294.9 L188.6 -295.9 L188.3 -296.8 L188.1 -297.8 L188 -298.7 L187.9 -299.7 L188 -300.7 L188.1 -301.7 L188.2 -302.7 L188.5 -303.6 L188.8 -304.5 L189.3 -305.4 L189.7 -306.3 L190.3 -307.1 L190.9 -307.9 L191.6 -308.6 L192.3 -309.3 L193.1 -309.9 L193.9 -310.4 L194.7 -310.9 L195.6 -311.3 L196.6 -311.7 L197.5 -311.9 L198.5 -312.1 L199.5 -312.2 L200.4 -312.2 Z " />
<path stroke="rgb(0,0,0)" stroke-opacity="1" fill="rgb(255,255,255)" fill-opacity="1" d="M-123 -698.8 L-122.8 -699.8 L-122.7 -700.8 L-122.5 -701.8 L-122.4 -702.7 L-122.2 -703.7 L-122.1 -704.7 L-121.9 -705.7 L-121.8 -706.6 L-121.6 -707.6 L-121.5 -708.6 L-121.4 -709.6 L-121.2 -710.5 L-121.1 -711.5 L-120.9 -712.5 L-120.8 -713.5 L-120.6 -714.4 L-120.5 -715.4 L-120.3 -716.4 L-120.2 -717.4 L-120 -718.3 L-119.9 -719.3 L-119.7 -720.3 L-119.6 -721.3 L-119.5 -722.2 L-119.3 -723.2 L-118.3 -723.1 L-117.4 -722.9 L-116.4 -722.8 L-115.4 -722.6 L-114.4 -722.5 L-113.5 -722.3 L-112.5 -722.2 L-111.5 -722 L-110.5 -721.9 L-109.6 -721.7 L-108.6 -721.6 L-107.6 -721.5 L-106.6 -721.3 L-105.7 -721.2 L-104.7 -721 L-103.7 -720.9 L-102.7 -720.7 L-101.8 -720.6 L-100.8 -720.4 L-99.81 -720.3 L-98.83 -720.1 L-97.85 -720 L-96.88 -719.8 L-95.9 -719.7 L-94.93 -719.6 L-95.08 -718.6 L-95.22 -717.6 L-95.37 -716.6 L-95.51 -715.6 L-95.66 -714.7 L-95.81 -713.7 L-95.95 -712.7 L-96.1 -711.7 L-96.25 -710.8 L-96.39 -709.8 L-96.54 -708.8 L-96.68 -707.8 L-96.83 -706.9 L-96.98 -705.9 L-97.12 -704.9 L-97.27 -703.9 L-97.42 -703 L-97.56 -702 L-97.71 -701 L-97.85 -700 L-98 -699.1 L-98.15 -698.1 L-98.29 -697.1 L-98.44 -696.1 L-98.58 -695.2 L-99.56 -695.3 L-100.5 -695.5 L-101.5 -695.6 L-102.5 -695.8 L-103.5 -695.9 L-104.4 -696 L-105.4 -696.2 L-106.4 -696.3 L-107.4 -696.5 L-108.3 -696.6 L-109.3 -696.8 L-110.3 -696.9 L-111.3 -697.1 L-112.2 -697.2 L-113.2 -697.4 L-114.2 -697.5 L-115.2 -697.7 L-116.1 -697.8 L-117.1 -697.9 L-118.1 -698.1 L-119.1 -698.2 L-120 -698.4 L-121 -698.5 L-122 -698.7 L-123 -698.8 Z " />
<path stroke="rgb(0,0,0)" stroke-opacity="1" fill="rgb(255,255,255)" fill-opacity="1" d="M-299.6 -212.2 L-298.6 -212.2 L-297.6 -212.1 L-296.6 -211.9 L-295.7 -211.6 L-294.8 -211.2 L-293.9 -210.8 L-293 -210.3 L-292.2 -209.7 L-291.5 -209.1 L-290.8 -208.4 L-290.1 -207.7 L-289.5 -206.9 L-289 -206.1 L-288.5 -205.2 L-288.1 -204.3 L-287.8 -203.4 L-287.6 -202.4 L-287.4 -201.4 L-287.3 -200.5 L-287.3 -199.5 L-287.4 -198.5 L-287.5 -197.5 L-287.7 -196.6 L-288 -195.6 L-288.4 -194.7 L-288.9 -193.8 L-289.4 -193 L-289.9 -192.2 L-290.6 -191.4 L-291.3 -190.7 L-292 -190.1 L-292.8 -189.5 L-293.7 -189 L-294.6 -188.6 L-295.5 -188.2 L-296.4 -187.9 L-297.4 -187.7 L-298.3 -187.5 L-299.3 -187.5 L-300.3 -187.5 L-301.3 -187.6 L-302.3 -187.7 L-303.2 -188 L-304.1 -188.3 L-305.1 -188.7 L-305.9 -189.1 L-306.8 -189.7 L-307.5 -190.3 L-308.3 -190.9 L-309 -191.6 L-309.6 -192.4 L-310.1 -193.2 L-310.6 -194 L-311.1 -194.9 L-311.4 -195.9 L-311.7 -196.8 L-311.9 -197.8 L-312 -198.7 L-312.1 -199.7 L-312 -200.7 L-311.9 -201.7 L-311.8 -202.7 L-311.5 -203.6 L-311.2 -204.5 L-310.7 -205.4 L-310.3 -206.3 L-309.7 -207.1 L-309.1 -207.9 L-308.4 -208.6 L-307.7 -209.3 L-306.9 -209.9 L-306.1 -210.4 L-305.3 -210.9 L-304.4 -211.3 L-303.4 -211.7 L-302.5 -211.9 L-301.5 -212.1 L-300.5 -212.2 L-299.6 -212.2 Z " />
<path stroke="rgb(0,0,0)" stroke-opacity="1" fill="rgb(255,255,255)" fill-opacity="1" d="M-664.9 -647.1 L-664.2 -647.8 L-663.5 -648.6 L-662.9 -649.3 L-662.2 -650 L-661.5 -650.7 L-660.8 -651.4 L-660.2 -652.1 L-659.5 -652.9 L-658.8 -653.6 L-658.1 -654.3 L-657.5 -655 L-656.8 -655.7 L-656.1 -656.5 L-655.4 -657.2 L-654.8 -657.9 L-654.1 -658.6 L-653.4 -659.3 L-652.7 -660 L-652.1 -660.8 L-651.4 -661.5 L-650.7 -662.2 L-650 -662.9 L-649.4 -663.6 L-648.7 -664.4 L-648 -665.1 L-647.3 -664.4 L-646.6 -663.7 L-645.9 -663 L-645.1 -662.4 L-644.4 -661.7 L-643.7 -661 L-643 -660.3 L-642.3 -659.7 L-641.6 -659 L-640.8 -658.3 L-640.1 -657.6 L-639.4 -657 L-638.7 -656.3 L-638 -655.6 L-637.2 -654.9 L-636.5 -654.3 L-635.8 -653.6 L-635.1 -652.9 L-634.4 -652.2 L-633.7 -651.6 L-632.9 -650.9 L-632.2 -650.2 L-631.5 -649.5 L-630.8 -648.9 L-630.1 -648.2 L-630.7 -647.5 L-631.4 -646.8 L-632.1 -646 L-632.8 -645.3 L-633.4 -644.6 L-634.1 -643.9 L-634.8 -643.2 L-635.5 -642.4 L-636.1 -641.7 L-636.8 -641 L-637.5 -640.3 L-638.2 -639.6 L-638.8 -638.9 L-639.5 -638.1 L-640.2 -637.4 L-640.9 -636.7 L-641.5 -636 L-642.2 -635.3 L-642.9 -634.6 L-643.6 -633.8 L-644.2 -633.1 L-644.9 -632.4 L-645.6 -631.7 L-646.3 -631 L-646.9 -630.2 L-647.7 -630.9 L-648.4 -631.6 L-649.1 -632.3 L-649.8 -632.9 L-650.5 -633.6 L-651.3 -634.3 L-652 -635 L-652.7 -635.6 L-653.4 -636.3 L-654.1 -637 L-654.8 -637.7 L-655.6 -638.3 L-656.3 -639 L-657 -639.7 L-657.7 -640.4 L-658.4 -641 L-659.2 -641.7 L-659.9 -642.4 L-660.6 -643.1 L-661.3 -643.7 L-662 -644.4 L-662.7 -645.1 L-663.5 -645.8 L-664.2 -646.4 L-664.9 -647.1 Z " />
<path stroke="rgb(0,0,0)" stroke-opacity="1" fill="rgb(255,255,255)" fill-opacity="1" d="M-99.56 -212.2 L-98.58 -212.2 L-97.6 -212.1 L-96.64 -211.9 L-95.69 -211.6 L-94.77 -211.2 L-93.89 -210.8 L-93.03 -210.3 L-92.22 -209.7 L-91.46 -209.1 L-90.75 -208.4 L-90.1 -207.7 L-89.51 -206.9 L-88.98 -206.1 L-88.52 -205.2 L-88.13 -204.3 L-87.81 -203.4 L-87.57 -202.4 L-87.4 -201.4 L-87.31 -200.5 L-87.3 -199.5 L-87.37 -198.5 L-87.52 -197.5 L-87.74 -196.6 L-88.04 -195.6 L-88.42 -194.7 L-88.86 -193.8 L-89.37 -193 L-89.95 -192.2 L-90.59 -191.4 L-91.29 -190.7 L-92.04 -190.1 L-92.83 -189.5 L-93.68 -189 L-94.56 -188.6 L-95.47 -188.2 L-96.41 -187.9 L-97.37 -187.7 L-98.34 -187.5 L-99.32 -187.5 L-100.3 -187.5 L-101.3 -187.6 L-102.3 -187.7 L-103.2 -188 L-104.1 -188.3 L-105.1 -188.7 L-105.9 -189.1 L-106.8 -189.7 L-107.5 -190.3 L-108.3 -190.9 L-109 -191.6 L-109.6 -192.4 L-110.1 -193.2 L-110.6 -194 L-111.1 -194.9 L-111.4 -195.9 L-111.7 -196.8 L-111.9 -197.8 L-112 -198.7 L-112.1 -199.7 L-112 -200.7 L-111.9 -201.7 L-111.8 -202.7 L-111.5 -203.6 L-111.2 -204.5 L-110.7 -205.4 L-110.3 -206.3 L-109.7 -207.1 L-109.1 -207.9 L-108.4 -208.6 L-107.7 -209.3 L-106.9 -209.9 L-106.1 -210.4 L-105.3 -210.9 L-104.4 -211.3 L-103.4 -211.7 L-102.5 -211.9 L-101.5 -212.1 L-100.5 -212.2 L-99.56 -212.2 Z " />
<path stroke="rgb(0,0,0)" stroke-opacity="1" fill="rgb(255,255,255)" fill-opacity="1" d="M-439 -616.3 L-438.7 -617.2 L-438.3 -618.1 L-438 -619 L-437.6 -620 L-437.2 -620.9 L-436.9 -621.8 L-436.5 -622.7 L-436.2 -623.6 L-435.8 -624.6 L-435.5 -625.5 L-435.1 -626.4 L-434.7 -627.3 L-434.4 -628.2 L-434 -629.2 L-433.7 -630.1 L-433.3 -631 L-433 -631.9 L-432.6 -632.8 L-432.2 -633.7 L-431.9 -634.7 L-431.5 -635.6 L-431.2 -636.5 L-430.8 -637.4 L-430.5 -638.3 L-430.1 -639.3 L-429.2 -638.9 L-428.3 -638.5 L-427.3 -638.2 L-426.4 -637.8 L-425.5 -637.5 L-424.6 -637.1 L-423.7 -636.8 L-422.7 -636.4 L-421.8 -636 L-420.9 -635.7 L-420 -635.3 L-419.1 -635 L-418.2 -634.6 L-417.2 -634.3 L-416.3 -633.9 L-415.4 -633.5 L-414.5 -633.2 L-413.6 -632.8 L-412.6 -632.5 L-411.7 -632.1 L-410.8 -631.8 L-409.9 -631.4 L-409 -631 L-408 -630.7 L-407.1 -630.3 L-407.5 -629.4 L-407.8 -628.5 L-408.2 -627.6 L-408.6 -626.6 L-408.9 -625.7 L-409.3 -624.8 L-409.6 -623.9 L-410 -623 L-410.3 -622.1 L-410.7 -621.1 L-411.1 -620.2 L-411.4 -619.3 L-411.8 -618.4 L-412.1 -617.5 L-412.5 -616.5 L-412.8 -615.6 L-413.2 -614.7 L-413.6 -613.8 L-413.9 -612.9 L-414.3 -611.9 L-414.6 -611 L-415 -610.1 L-415.3 -609.2 L-415.7 -608.3 L-416.1 -607.4 L-417 -607.7 L-417.9 -608.1 L-418.8 -608.4 L-419.7 -608.8 L-420.7 -609.1 L-421.6 -609.5 L-422.5 -609.9 L-423.4 -610.2 L-424.3 -610.6 L-425.3 -610.9 L-426.2 -611.3 L-427.1 -611.6 L-428 -612 L-428.9 -612.4 L-429.8 -612.7 L-430.8 -613.1 L-431.7 -613.4 L-432.6 -613.8 L-433.5 -614.1 L-434.4 -614.5 L-435.4 -614.9 L-436.3 -615.2 L-437.2 -615.6 L-438.1 -615.9 L-439 -616.3 Z " />
<path stroke="rgb(0,0,0)" stroke-opacity="1" fill="rgb(255,255,255)" fill-opacity="1" d="M100.4 -212.2 L101.4 -212.2 L102.4 -212.1 L103.4 -211.9 L104.3 -211.6 L105.2 -211.2 L106.1 -210.8 L107 -210.3 L107.8 -209.7 L108.5 -209.1 L109.2 -208.4 L109.9 -207.7 L110.5 -206.9 L111 -206.1 L111.5 -205.2 L111.9 -204.3 L112.2 -203.4 L112.4 -202.4 L112.6 -201.4 L112.7 -200.5 L112.7 -199.5 L112.6 -198.5 L112.5 -197.5 L112.3 -196.6 L112 -195.6 L111.6 -194.7 L111.1 -193.8 L110.6 -193 L110.1 -192.2 L109.4 -191.4 L108.7 -190.7 L108 -190.1 L107.2 -189.5 L106.3 -189 L105.4 -188.6 L104.5 -188.2 L103.6 -187.9 L102.6 -187.7 L101.7 -187.5 L100.7 -187.5 L99.69 -187.5 L98.71 -187.6 L97.74 -187.7 L96.78 -188 L95.85 -188.3 L94.95 -188.7 L94.08 -189.1 L93.25 -189.7 L92.46 -190.3 L91.72 -190.9 L91.04 -191.6 L90.42 -192.4 L89.86 -193.2 L89.36 -194 L88.93 -194.9 L88.58 -195.9 L88.3 -196.8 L88.1 -197.8 L87.97 -198.7 L87.92 -199.7 L87.95 -200.7 L88.06 -201.7 L88.24 -202.7 L88.51 -203.6 L88.84 -204.5 L89.25 -205.4 L89.73 -206.3 L90.27 -207.1 L90.88 -207.9 L91.55 -208.6 L92.28 -209.3 L93.05 -209.9 L93.87 -210.4 L94.73 -210.9 L95.63 -211.3 L96.56 -211.7 L97.51 -211.9 L98.47 -212.1 L99.45 -212.2 L100.4 -212.2 Z " />
<path stroke="rgb(0,0,0)" stroke-opacity="1" fill="rgb(255,255,255)" fill-opacity="1" d="M-223 -598.8 L-222.8 -599.8 L-222.7 -600.8 L-222.5 -601.8 L-222.4 -602.7 L-222.2 -603.7 L-222.1 -604.7 L-221.9 -605.7 L-221.8 -606.6 L-221.6 -607.6 L-221.5 -608.6 L-221.4 -609.6 L-221.2 -610.5 L-221.1 -611.5 L-220.9 -612.5 L-220.8 -613.5 L-220.6 -614.4 L-220.5 -615.4 L-220.3 -616.4 L-220.2 -617.4 L-220 -618.3 L-219.9 -619.3 L-219.7 -620.3 L-219.6 -621.3 L-219.5 -622.2 L-219.3 -623.2 L-218.3 -623.1 L-217.4 -622.9 L-216.4 -622.8 L-215.4 -622.6 L-214.4 -622.5 L-213.5 -622.3 L-212.5 -622.2 L-211.5 -622 L-210.5 -621.9 L-209.6 -621.7 L-208.6 -621.6 L-207.6 -621.5 L-206.6 -621.3 L-205.7 -621.2 L-204.7 -621 L-203.7 -620.9 L-202.7 -620.7 L-201.8 -620.6 L-200.8 -620.4 L-199.8 -620.3 L-198.8 -620.1 L-197.9 -620 L-196.9 -619.8 L-195.9 -619.7 L-194.9 -619.6 L-195.1 -618.6 L-195.2 -617.6 L-195.4 -616.6 L-195.5 -615.6 L-195.7 -614.7 L-195.8 -613.7 L-196 -612.7 L-196.1 -611.7 L-196.2 -610.8 L-196.4 -609.8 L-196.5 -608.8 L-196.7 -607.8 L-196.8 -606.9 L-197 -605.9 L-197.1 -604.9 L-197.3 -603.9 L-197.4 -603 L-197.6 -602 L-197.7 -601 L-197.9 -600 L-198 -599.1 L-198.1 -598.1 L-198.3 -597.1 L-198.4 -596.1 L-198.6 -595.2 L-199.6 -595.3 L-200.5 -595.5 L-201.5 -595.6 L-202.5 -595.8 L-203.5 -595.9 L-204.4 -596 L-205.4 -596.2 L-206.4 -596.3 L-207.4 -596.5 L-208.3 -596.6 L-209.3 -596.8 L-210.3 -596.9 L-211.3 -597.1 L-212.2 -597.2 L-213.2 -597.4 L-214.2 -597.5 L-215.2 -597.7 L-216.1 -597.8 L-217.1 -597.9 L-218.1 -598.1 L-219.1 -598.2 L-220 -598.4 L-221 -598.5 L-222 -598.7 L-223 -598.8 Z " />
<path stroke="rgb(0,0,0)" stroke-opacity="1" fill="rgb(255,255,255)" fill-opacity="1" d="M300.4 -212.2 L301.4 -212.2 L302.4 -212.1 L303.4 -211.9 L304.3 -211.6 L305.2 -211.2 L306.1 -210.8 L307 -210.3 L307.8 -209.7 L308.5 -209.1 L309.2 -208.4 L309.9 -207.7 L310.5 -206.9 L311 -206.1 L311.5 -205.2 L311.9 -204.3 L312.2 -203.4 L312.4 -202.4 L312.6 -201.4 L312.7 -200.5 L312.7 -199.5 L312.6 -198.5 L312.5 -197.5 L312.3 -196.6 L312 -195.6 L311.6 -194.7 L311.1 -193.8 L310.6 -193 L310.1 -192.2 L309.4 -191.4 L308.7 -190.7 L308 -190.1 L307.2 -189.5 L306.3 -189 L305.4 -188.6 L304.5 -188.2 L303.6 -187.9 L302.6 -187.7 L301.7 -187.5 L300.7 -187.5 L299.7 -187.5 L298.7 -187.6 L297.7 -187.7 L296.8 -188 L295.9 -188.3 L294.9 -188.7 L294.1 -189.1 L293.2 -189.7 L292.5 -190.3 L291.7 -190.9 L291 -191.6 L290.4 -192.4 L289.9 -193.2 L289.4 -194 L288.9 -194.9 L288.6 -195.9 L288.3 -196.8 L288.1 -197.8 L288 -198.7 L287.9 -199.7 L288 -200.7 L288.1 -201.7 L288.2 -202.7 L288.5 -203.6 L288.8 -204.5 L289.3 -205.4 L289.7 -206.3 L290.3 -207.1 L290.9 -207.9 L291.6 -208.6 L292.3 -209.3 L293.1 -209.9 L293.9 -210.4 L294.7 -210.9 L295.6 -211.3 L296.6 -211.7 L297.5 -211.9 L298.5 -212.1 L299.5 -212.2 L300.4 -212.2 Z " />
<path stroke="rgb(0,0,0)" stroke-opacity="1" fill="rgb(255,255,255)" fill-opacity="1" d="M-764.9 -547.1 L-764.2 -547.8 L-763.5 -548.6 L-762.9 -549.3 L-762.2 -550 L-761.5 -550.7 L-760.8 -551.4 L-760.2 -552.1 L-759.5 -552.9 L-758.8 -553.6 L-758.1 -554.3 L-757.5 -555 L-756.8 -555.7 L-756.1 -556.5 L-755.4 -557.2 L-754.8 -557.9 L-754.1 -558.6 L-753.4 -559.3 L-752.7 -560 L-752.1 -560.8 L-751.4 -561.5 L-750.7 -562.2 L-750 -562.9 L-749.4 -563.6 L-748.7 -564.4 L-748 -565.1 L-747.3 -564.4 L-746.6 -563.7 L-745.9 -563 L-745.1 -562.4 L-744.4 -561.7 L-743.7 -561 L-743 -560.3 L-742.3 -559.7 L-741.6 -559 L-740.8 -558.3 L-740.1 -557.6 L-739.4 -557 L-738.7 -556.3 L-738 -555.6 L-737.2 -554.9 L-736.5 -554.3 L-735.8 -553.6 L-735.1 -552.9 L-734.4 -552.2 L-733.7 -551.6 L-732.9 -550.9 L-732.2 -550.2 L-731.5 -549.5 L-730.8 -548.9 L-730.1 -548.2 L-730.7 -547.5 L-731.4 -546.8 L-732.1 -546 L-732.8 -545.3 L-733.4 -544.6 L-734.1 -543.9 L-734.8 -543.2 L-735.5 -542.4 L-736.1 -541.7 L-736.8 -541 L-737.5 -540.3 L-738.2 -539.6 L-738.8 -538.9 L-739.5 -538.1 L-740.2 -537.4 L-740.9 -536.7 L-741.5 -536 L-742.2 -535.3 L-742.9 -534.6 L-743.6 -533.8 L-744.2 -533.1 L-744.9 -532.4 L-745.6 -531.7 L-746.3 -531 L-746.9 -530.2 L-747.7 -530.9 L-748.4 -531.6 L-749.1 -532.3 L-749.8 -532.9 L-750.5 -533.6 L-751.3 -534.3 L-752 -535 L-752.7 -535.6 L-753.4 -536.3 L-754.1 -537 L-754.8 -537.7 L-755.6 -538.3 L-756.3 -539 L-757 -539.7 L-757.7 -540.4 L-758.4 -541 L-759.2 -541.7 L-759.9 -542.4 L-760.6 -543.1 L-761.3 -543.7 L-762 -544.4 L-762.7 -545.1 L-763.5 -545.8 L-764.2 -546.4 L-764.9 -547.1 Z " />
<path stroke="rgb(0,0,0)" stroke-opacity="1" fill="rgb(255,255,255)" fill-opacity="1" d="M-199.6 -112.2 L-198.6 -112.2 L-197.6 -112.1 L-196.6 -111.9 L-195.7 -111.6 L-194.8 -111.2 L-193.9 -110.8 L-193 -110.3 L-192.2 -109.7 L-191.5 -109.1 L-190.8 -108.4 L-190.1 -107.7 L-189.5 -106.9 L-189 -106.1 L-188.5 -105.2 L-188.1 -104.3 L-187.8 -103.4 L-187.6 -102.4 L-187.4 -101.4 L-187.3 -100.5 L-187.3 -99.47 L-187.4 -98.49 L-187.5 -97.51 L-187.7 -96.55 L-188 -95.62 L-188.4 -94.7 L-188.9 -93.82 L-189.4 -92.98 L-189.9 -92.19 L-190.6 -91.44 L-191.3 -90.74 L-192 -90.1 L-192.8 -89.52 L-193.7 -89.01 L-194.6 -88.57 L-195.5 -88.2 L-196.4 -87.9 L-197.4 -87.67 L-198.3 -87.53 L-199.3 -87.46 L-200.3 -87.47 L-201.3 -87.56 L-202.3 -87.72 L-203.2 -87.97 L-204.1 -88.29 L-205.1 -88.68 L-205.9 -89.14 L-206.8 -89.67 L-207.5 -90.26 L-208.3 -90.91 L-209 -91.62 L-209.6 -92.39 L-210.1 -93.2 L-210.6 -94.05 L-211.1 -94.94 L-211.4 -95.86 L-211.7 -96.8 L-211.9 -97.77 L-212 -98.74 L-212.1 -99.73 L-212 -100.7 L-211.9 -101.7 L-211.8 -102.7 L-211.5 -103.6 L-211.2 -104.5 L-210.7 -105.4 L-210.3 -106.3 L-209.7 -107.1 L-209.1 -107.9 L-208.4 -108.6 L-207.7 -109.3 L-206.9 -109.9 L-206.1 -110.4 L-205.3 -110.9 L-204.4 -111.3 L-203.4 -111.7 L-202.5 -111.9 L-201.5 -112.1 L-200.5 -112.2 L-199.6 -112.2 Z " />
<path stroke="rgb(0,0,0)" stroke-opacity="1" fill="rgb(255,255,255)" fill-opacity="1" d="M-539 -516.3 L-538.7 -517.2 L-538.3 -518.1 L-538 -519 L-537.6 -520 L-537.2 -520.9 L-536.9 -521.8 L-536.5 -522.7 L-536.2 -523.6 L-535.8 -524.6 L-535.5 -525.5 L-535.1 -526.4 L-534.7 -527.3 L-534.4 -528.2 L-534 -529.2 L-533.7 -530.1 L-533.3 -531 L-533 -531.9 L-532.6 -532.8 L-532.2 -533.7 L-531.9 -534.7 L-531.5 -535.6 L-531.2 -536.5 L-530.8 -537.4 L-530.5 -538.3 L-530.1 -539.3 L-529.2 -538.9 L-528.3 -538.5 L-527.3 -538.2 L-526.4 -537.8 L-525.5 -537.5 L-524.6 -537.1 L-523.7 -536.8 L-522.7 -536.4 L-521.8 -536 L-520.9 -535.7 L-520 -535.3 L-519.1 -535 L-518.2 -534.6 L-517.2 -534.3 L-516.3 -533.9 L-515.4 -533.5 L-514.5 -533.2 L-513.6 -532.8 L-512.6 -532.5 L-511.7 -532.1 L-510.8 -531.8 L-509.9 -531.4 L-509 -531 L-508 -530.7 L-507.1 -530.3 L-507.5 -529.4 L-507.8 -528.5 L-508.2 -527.6 L-508.6 -526.6 L-508.9 -525.7 L-509.3 -524.8 L-509.6 -523.9 L-510 -523 L-510.3 -522.1 L-510.7 -521.1 L-511.1 -520.2 L-511.4 -519.3 L-511.8 -518.4 L-512.1 -517.5 L-512.5 -516.5 L-512.8 -515.6 L-513.2 -514.7 L-513.6 -513.8 L-513.9 -512.9 L-514.3 -511.9 L-514.6 -511 L-515 -510.1 L-515.3 -509.2 L-515.7 -508.3 L-516.1 -507.4 L-517 -507.7 L-517.9 -508.1 L-518.8 -508.4 L-519.7 -508.8 L-520.7 -509.1 L-521.6 -509.5 L-522.5 -509.9 L-523.4 -510.2 L-524.3 -510.6 L-525.3 -510.9 L-526.2 -511.3 L-527.1 -511.6 L-528 -512 L-528.9 -512.4 L-529.8 -512.7 L-530.8 -513.1 L-531.7 -513.4 L-532.6 -513.8 L-533.5 -514.1 L-534.4 -514.5 L-535.4 -514.9 L-536.3 -515.2 L-537.2 -515.6 L-538.1 -515.9 L-539 -516.3 Z " />
<path stroke="rgb(0,0,0)" stroke-opacity="1" fill="rgb(255,255,255)" fill-opacity="1" d="M0.4383 -112.2 L1.422 -112.2 L2.399 -112.1 L3.363 -111.9 L4.307 -111.6 L5.227 -111.2 L6.115 -110.8 L6.966 -110.3 L7.775 -109.7 L8.537 -109.1 L9.248 -108.4 L9.901 -107.7 L10.49 -106.9 L11.02 -106.1 L11.48 -105.2 L11.87 -104.3 L12.19 -103.4 L12.43 -102.4 L12.6 -101.4 L12.69 -100.5 L12.7 -99.47 L12.63 -98.49 L12.48 -97.51 L12.26 -96.55 L11.96 -95.62 L11.58 -94.7 L11.14 -93.82 L10.63 -92.98 L10.05 -92.19 L9.411 -91.44 L8.714 -90.74 L7.964 -90.1 L7.166 -89.52 L6.324 -89.01 L5.444 -88.57 L4.532 -88.2 L3.593 -87.9 L2.633 -87.67 L1.659 -87.53 L0.6762 -87.46 L-0.3089 -87.47 L-1.29 -87.56 L-2.261 -87.72 L-3.216 -87.97 L-4.149 -88.29 L-5.053 -88.68 L-5.923 -89.14 L-6.754 -89.67 L-7.541 -90.26 L-8.278 -90.91 L-8.96 -91.62 L-9.584 -92.39 L-10.14 -93.2 L-10.64 -94.05 L-11.07 -94.94 L-11.42 -95.86 L-11.7 -96.8 L-11.9 -97.77 L-12.03 -98.74 L-12.08 -99.73 L-12.05 -100.7 L-11.94 -101.7 L-11.76 -102.7 L-11.49 -103.6 L-11.16 -104.5 L-10.75 -105.4 L-10.27 -106.3 L-9.725 -107.1 L-9.116 -107.9 L-8.447 -108.6 L-7.723 -109.3 L-6.949 -109.9 L-6.128 -110.4 L-5.267 -110.9 L-4.37 -111.3 L-3.444 -111.7 L-2.494 -111.9 L-1.526 -112.1 L-0.5465 -112.2 L0.4383 -112.2 Z " />
<path stroke="rgb(0,0,0)" stroke-opacity="1" fill="rgb(255,255,255)" fill-opacity="1" d="M-323 -498.8 L-322.8 -499.8 L-322.7 -500.8 L-322.5 -501.8 L-322.4 -502.7 L-322.2 -503.7 L-322.1 -504.7 L-321.9 -505.7 L-321.8 -506.6 L-321.6 -507.6 L-321.5 -508.6 L-321.4 -509.6 L-321.2 -510.5 L-321.1 -511.5 L-320.9 -512.5 L-320.8 -513.5 L-320.6 -514.4 L-320.5 -515.4 L-320.3 -516.4 L-320.2 -517.4 L-320 -518.3 L-319.9 -519.3 L-319.7 -520.3 L-319.6 -521.3 L-319.5 -522.2 L-319.3 -523.2 L-318.3 -523.1 L-317.4 -522.9 L-316.4 -522.8 L-315.4 -522.6 L-314.4 -522.5 L-313.5 -522.3 L-312.5 -522.2 L-311.5 -522 L-310.5 -521.9 L-309.6 -521.7 L-308.6 -521.6 L-307.6 -521.5 L-306.6 -521.3 L-305.7 -521.2 L-304.7 -521 L-303.7 -520.9 L-302.7 -520.7 L-301.8 -520.6 L-300.8 -520.4 L-299.8 -520.3 L-298.8 -520.1 L-297.9 -520 L-296.9 -519.8 L-295.9 -519.7 L-294.9 -519.6 L-295.1 -518.6 L-295.2 -517.6 L-295.4 -516.6 L-295.5 -515.6 L-295.7 -514.7 L-295.8 -513.7 L-296 -512.7 L-296.1 -511.7 L-296.2 -510.8 L-296.4 -509.8 L-296.5 -508.8 L-296.7 -507.8 L-296.8 -506.9 L-297 -505.9 L-297.1 -504.9 L-297.3 -503.9 L-297.4 -503 L-297.6 -502 L-297.7 -501 L-297.9 -500 L-298 -499.1 L-298.1 -498.1 L-298.3 -497.1 L-298.4 -496.1 L-298.6 -495.2 L-299.6 -495.3 L-300.5 -495.5 L-301.5 -495.6 L-302.5 -495.8 L-303.5 -495.9 L-304.4 -496 L-305.4 -496.2 L-306.4 -496.3 L-307.4 -496.5 L-308.3 -496.6 L-309.3 -496.8 L-310.3 -496.9 L-311.3 -497.1 L-312.2 -497.2 L-313.2 -497.4 L-314.2 -497.5 L-315.2 -497.7 L-316.1 -497.8 L-317.1 -497.9 L-318.1 -498.1 L-319.1 -498.2 L-320 -498.4 L-321 -498.5 L-322 -498.7 L-323 -498.8 Z " />
<path stroke="rgb(0,0,0)" stroke-opacity="1" fill="rgb(255,255,255)" fill-opacity="1" d="M200.4 -112.2 L201.4 -112.2 L202.4 -112.1 L203.4 -111.9 L204.3 -111.6 L205.2 -111.2 L206.1 -110.8 L207 -110.3 L207.8 -109.7 L208.5 -109.1 L209.2 -108.4 L209.9 -107.7 L210.5 -106.9 L211 -106.1 L211.5 -105.2 L211.9 -104.3 L212.2 -103.4 L212.4 -102.4 L212.6 -101.4 L212.7 -100.5 L212.7 -99.47 L212.6 -98.49 L212.5 -97.51 L212.3 -96.55 L212 -95.62 L211.6 -94.7 L211.1 -93.82 L210.6 -92.98 L210.1 -92.19 L209.4 -91.44 L208.7 -90.74 L208 -90.1 L207.2 -89.52 L206.3 -89.01 L205.4 -88.57 L204.5 -88.2 L203.6 -87.9 L202.6 -87.67 L201.7 -87.53 L200.7 -87.46 L199.7 -87.47 L198.7 -87.56 L197.7 -87.72 L196.8 -87.97 L195.9 -88.29 L194.9 -88.68 L194.1 -89.14 L193.2 -89.67 L192.5 -90.26 L191.7 -90.91 L191 -91.62 L190.4 -92.39 L189.9 -93.2 L189.4 -94.05 L188.9 -94.94 L188.6 -95.86 L188.3 -96.8 L188.1 -97.77 L188 -98.74 L187.9 -99.73 L188 -100.7 L188.1 -101.7 L188.2 -102.7 L188.5 -103.6 L188.8 -104.5 L189.3 -105.4 L189.7 -106.3 L190.3 -107.1 L190.9 -107.9 L191.6 -108.6 L192.3 -109.3 L193.1 -109.9 L193.9 -110.4 L194.7 -110.9 L195.6 -111.3 L196.6 -111.7 L197.5 -111.9 L198.5 -112.1 L199.5 -112.2 L200.4 -112.2 Z " />
<path stroke="rgb(0,0,0)" stroke-opacity="1" fill="rgb(255,255,255)" fill-opacity="1" d="M-115.1 -490.7 L-115.1 -491.7 L-115 -492.7 L-115 -493.7 L-115 -494.7 L-114.9 -495.7 L-114.9 -496.7 L-114.8 -497.6 L-114.8 -498.6 L-114.7 -499.6 L-114.7 -500.6 L-114.7 -501.6 L-114.6 -502.6 L-114.6 -503.5 L-114.5 -504.5 L-114.5 -505.5 L-114.4 -506.5 L-114.4 -507.5 L-114.3 -508.5 L-114.3 -509.5 L-114.3 -510.4 L-114.2 -511.4 L-114.2 -512.4 L-114.1 -513.4 L-114.1 -514.4 L-114 -515.4 L-113.1 -515.3 L-112.1 -515.3 L-111.1 -515.2 L-110.1 -515.2 L-109.1 -515.2 L-108.1 -515.1 L-107.2 -515.1 L-106.2 -515 L-105.2 -515 L-104.2 -514.9 L-103.2 -514.9 L-102.2 -514.9 L-101.2 -514.8 L-100.3 -514.8 L-99.27 -514.7 L-98.28 -514.7 L-97.3 -514.6 L-96.31 -514.6 L-95.33 -514.6 L-94.34 -514.5 L-93.36 -514.5 L-92.37 -514.4 L-91.39 -514.4 L-90.4 -514.3 L-89.42 -514.3 L-89.46 -513.3 L-89.5 -512.3 L-89.55 -511.3 L-89.59 -510.4 L-89.63 -509.4 L-89.68 -508.4 L-89.72 -507.4 L-89.76 -506.4 L-89.8 -505.4 L-89.85 -504.4 L-89.89 -503.5 L-89.93 -502.5 L-89.98 -501.5 L-90.02 -500.5 L-90.06 -499.5 L-90.11 -498.5 L-90.15 -497.5 L-90.19 -496.6 L-90.24 -495.6 L-90.28 -494.6 L-90.32 -493.6 L-90.37 -492.6 L-90.41 -491.6 L-90.45 -490.6 L-90.5 -489.7 L-91.48 -489.7 L-92.47 -489.7 L-93.45 -489.8 L-94.44 -489.8 L-95.42 -489.9 L-96.41 -489.9 L-97.39 -490 L-98.38 -490 L-99.36 -490 L-100.3 -490.1 L-101.3 -490.1 L-102.3 -490.2 L-103.3 -490.2 L-104.3 -490.3 L-105.3 -490.3 L-106.3 -490.4 L-107.2 -490.4 L-108.2 -490.4 L-109.2 -490.5 L-110.2 -490.5 L-111.2 -490.6 L-112.2 -490.6 L-113.2 -490.7 L-114.1 -490.7 L-115.1 -490.7 Z " />
<path stroke="rgb(0,0,0)" stroke-opacity="1" fill="rgb(255,255,255)" fill-opacity="1" d="M-299.6 -12.23 L-298.6 -12.19 L-297.6 -12.06 L-296.6 -11.85 L-295.7 -11.57 L-294.8 -11.22 L-293.9 -10.79 L-293 -10.3 L-292.2 -9.735 L-291.5 -9.11 L-290.8 -8.428 L-290.1 -7.69 L-289.5 -6.904 L-289 -6.072 L-288.5 -5.201 L-288.1 -4.297 L-287.8 -3.364 L-287.6 -2.409 L-287.4 -1.438 L-287.3 -0.4566 L-287.3 0.5285 L-287.4 1.511 L-287.5 2.486 L-287.7 3.445 L-288 4.384 L-288.4 5.296 L-288.9 6.175 L-289.4 7.016 L-289.9 7.814 L-290.6 8.564 L-291.3 9.26 L-292 9.899 L-292.8 10.48 L-293.7 10.99 L-294.6 11.43 L-295.5 11.8 L-296.4 12.1 L-297.4 12.33 L-298.3 12.47 L-299.3 12.54 L-300.3 12.53 L-301.3 12.44 L-302.3 12.28 L-303.2 12.03 L-304.1 11.71 L-305.1 11.32 L-305.9 10.86 L-306.8 10.33 L-307.5 9.74 L-308.3 9.086 L-309 8.375 L-309.6 7.613 L-310.1 6.803 L-310.6 5.951 L-311.1 5.063 L-311.4 4.143 L-311.7 3.199 L-311.9 2.235 L-312 1.258 L-312.1 0.2739 L-312 -0.7109 L-311.9 -1.69 L-311.8 -2.658 L-311.5 -3.608 L-311.2 -4.534 L-310.7 -5.43 L-310.3 -6.291 L-309.7 -7.111 L-309.1 -7.886 L-308.4 -8.609 L-307.7 -9.278 L-306.9 -9.886 L-306.1 -10.43 L-305.3 -10.91 L-304.4 -11.32 L-303.4 -11.65 L-302.5 -11.91 L-301.5 -12.1 L-300.5 -12.21 L-299.6 -12.23 Z " />
<path stroke="rgb(0,0,0)" stroke-opacity="1" fill="rgb(255,255,255)" fill-opacity="1" d="M-639 -416.3 L-638.7 -417.2 L-638.3 -418.1 L-638 -419 L-637.6 -420 L-637.2 -420.9 L-636.9 -421.8 L-636.5 -422.7 L-636.2 -423.6 L-635.8 -424.6 L-635.5 -425.5 L-635.1 -426.4 L-634.7 -427.3 L-634.4 -428.2 L-634 -429.2 L-633.7 -430.1 L-633.3 -431 L-633 -431.9 L-632.6 -432.8 L-632.2 -433.7 L-631.9 -434.7 L-631.5 -435.6 L-631.2 -436.5 L-630.8 -437.4 L-630.5 -438.3 L-630.1 -439.3 L-629.2 -438.9 L-628.3 -438.5 L-627.3 -438.2 L-626.4 -437.8 L-625.5 -437.5 L-624.6 -437.1 L-623.7 -436.8 L-622.7 -436.4 L-621.8 -436 L-620.9 -435.7 L-620 -435.3 L-619.1 -435 L-618.2 -434.6 L-617.2 -434.3 L-616.3 -433.9 L-615.4 -433.5 L-614.5 -433.2 L-613.6 -432.8 L-612.6 -432.5 L-611.7 -432.1 L-610.8 -431.8 L-609.9 -431.4 L-609 -431 L-608 -430.7 L-607.1 -430.3 L-607.5 -429.4 L-607.8 -428.5 L-608.2 -427.6 L-608.6 -426.6 L-608.9 -425.7 L-609.3 -424.8 L-609.6 -423.9 L-610 -423 L-610.3 -422.1 L-610.7 -421.1 L-611.1 -420.2 L-611.4 -419.3 L-611.8 -418.4 L-612.1 -417.5 L-612.5 -416.5 L-612.8 -415.6 L-613.2 -414.7 L-613.6 -413.8 L-613.9 -412.9 L-614.3 -411.9 L-614.6 -411 L-615 -410.1 L-615.3 -409.2 L-615.7 -408.3 L-616.1 -407.4 L-617 -407.7 L-617.9 -408.1 L-618.8 -408.4 L-619.7 -408.8 L-620.7 -409.1 L-621.6 -409.5 L-622.5 -409.9 L-623.4 -410.2 L-624.3 -410.6 L-625.3 -410.9 L-626.2 -411.3 L-627.1 -411.6 L-628 -412 L-628.9 -412.4 L-629.8 -412.7 L-630.8 -413.1 L-631.7 -413.4 L-632.6 -413.8 L-633.5 -414.1 L-634.4 -414.5 L-635.4 -414.9 L-636.3 -415.2 L-637.2 -415.6 L-638.1 -415.9 L-639 -416.3 Z " />
<path stroke="rgb(0,0,0)" stroke-opacity="1" fill="rgb(255,255,255)" fill-opacity="1" d="M-99.56 -12.23 L-98.58 -12.19 L-97.6 -12.06 L-96.64 -11.85 L-95.69 -11.57 L-94.77 -11.22 L-93.89 -10.79 L-93.03 -10.3 L-92.22 -9.735 L-91.46 -9.11 L-90.75 -8.428 L-90.1 -7.69 L-89.51 -6.904 L-88.98 -6.072 L-88.52 -5.201 L-88.13 -4.297 L-87.81 -3.364 L-87.57 -2.409 L-87.4 -1.438 L-87.31 -0.4566 L-87.3 0.5285 L-87.37 1.511 L-87.52 2.486 L-87.74 3.445 L-88.04 4.384 L-88.42 5.296 L-88.86 6.175 L-89.37 7.016 L-89.95 7.814 L-90.59 8.564 L-91.29 9.26 L-92.04 9.899 L-92.83 10.48 L-93.68 10.99 L-94.56 11.43 L-95.47 11.8 L-96.41 12.1 L-97.37 12.33 L-98.34 12.47 L-99.32 12.54 L-100.3 12.53 L-101.3 12.44 L-102.3 12.28 L-103.2 12.03 L-104.1 11.71 L-105.1 11.32 L-105.9 10.86 L-106.8 10.33 L-107.5 9.74 L-108.3 9.086 L-109 8.375 L-109.6 7.613 L-110.1 6.803 L-110.6 5.951 L-111.1 5.063 L-111.4 4.143 L-111.7 3.199 L-111.9 2.235 L-112 1.258 L-112.1 0.2739 L-112 -0.7109 L-111.9 -1.69 L-111.8 -2.658 L-111.5 -3.608 L-111.2 -4.534 L-110.7 -5.43 L-110.3 -6.291 L-109.7 -7.111 L-109.1 -7.886 L-108.4 -8.609 L-107.7 -9.278 L-106.9 -9.886 L-106.1 -10.43 L-105.3 -10.91 L-104.4 -11.32 L-103.4 -11.65 L-102.5 -11.91 L-101.5 -12.1 L-100.5 -12.21 L-99.56 -12.23 Z " />
<path stroke="rgb(0,0,0)" stroke-opacity="1" fill="rgb(255,255,255)" fill-opacity="1" d="M-423 -398.8 L-422.8 -399.8 L-422.7 -400.8 L-422.5 -401.8 L-422.4 -402.7 L-422.2 -403.7 L-422.1 -404.7 L-421.9 -405.7 L-421.8 -406.6 L-421.6 -407.6 L-421.5 -408.6 L-421.4 -409.6 L-421.2 -410.5 L-421.1 -411.5 L-420.9 -412.5 L-420.8 -413.5 L-420.6 -414.4 L-420.5 -415.4 L-420.3 -416.4 L-420.2 -417.4 L-420 -418.3 L-419.9 -419.3 L-419.7 -420.3 L-419.6 -421.3 L-419.5 -422.2 L-419.3 -423.2 L-418.3 -423.1 L-417.4 -422.9 L-416.4 -422.8 L-415.4 -422.6 L-414.4 -422.5 L-413.5 -422.3 L-412.5 -422.2 L-411.5 -422 L-410.5 -421.9 L-409.6 -421.7 L-408.6 -421.6 L-407.6 -421.5 L-406.6 -421.3 L-405.7 -421.2 L-404.7 -421 L-403.7 -420.9 L-402.7 -420.7 L-401.8 -420.6 L-400.8 -420.4 L-399.8 -420.3 L-398.8 -420.1 L-397.9 -420 L-396.9 -419.8 L-395.9 -419.7 L-394.9 -419.6 L-395.1 -418.6 L-395.2 -417.6 L-395.4 -416.6 L-395.5 -415.6 L-395.7 -414.7 L-395.8 -413.7 L-396 -412.7 L-396.1 -411.7 L-396.2 -410.8 L-396.4 -409.8 L-396.5 -408.8 L-396.7 -407.8 L-396.8 -406.9 L-397 -405.9 L-397.1 -404.9 L-397.3 -403.9 L-397.4 -403 L-397.6 -402 L-397.7 -401 L-397.9 -400 L-398 -399.1 L-398.1 -398.1 L-398.3 -397.1 L-398.4 -396.1 L-398.6 -395.2 L-399.6 -395.3 L-400.5 -395.5 L-401.5 -395.6 L-402.5 -395.8 L-403.5 -395.9 L-404.4 -396 L-405.4 -396.2 L-406.4 -396.3 L-407.4 -396.5 L-408.3 -396.6 L-409.3 -396.8 L-410.3 -396.9 L-411.3 -397.1 L-412.2 -397.2 L-413.2 -397.4 L-414.2 -397.5 L-415.2 -397.7 L-416.1 -397.8 L-417.1 -397.9 L-418.1 -398.1 L-419.1 -398.2 L-420 -398.4 L-421 -398.5 L-422 -398.7 L-423 -398.8 Z " />
<path stroke="rgb(0,0,0)" stroke-opacity="1" fill="rgb(255,255,255)" fill-opacity="1" d="M100.4 -12.23 L101.4 -12.19 L102.4 -12.06 L103.4 -11.85 L104.3 -11.57 L105.2 -11.22 L106.1 -10.79 L107 -10.3 L107.8 -9.735 L108.5 -9.11 L109.2 -8.428 L109.9 -7.69 L110.5 -6.904 L111 -6.072 L111.5 -5.201 L111.9 -4.297 L112.2 -3.364 L112.4 -2.409 L112.6 -1.438 L112.7 -0.4566 L112.7 0.5285 L112.6 1.511 L112.5 2.486 L112.3 3.445 L112 4.384 L111.6 5.296 L111.1 6.175 L110.6 7.016 L110.1 7.814 L109.4 8.564 L108.7 9.26 L108 9.899 L107.2 10.48 L106.3 10.99 L105.4 11.43 L104.5 11.8 L103.6 12.1 L102.6 12.33 L101.7 12.47 L100.7 12.54 L99.69 12.53 L98.71 12.44 L97.74 12.28 L96.78 12.03 L95.85 11.71 L94.95 11.32 L94.08 10.86 L93.25 10.33 L92.46 9.74 L91.72 9.086 L91.04 8.375 L90.42 7.613 L89.86 6.803 L89.36 5.951 L88.93 5.063 L88.58 4.143 L88.3 3.199 L88.1 2.235 L87.97 1.258 L87.92 0.2739 L87.95 -0.7109 L88.06 -1.69 L88.24 -2.658 L88.51 -3.608 L88.84 -4.534 L89.25 -5.43 L89.73 -6.291 L90.27 -7.111 L90.88 -7.886 L91.55 -8.609 L92.28 -9.278 L93.05 -9.886 L93.87 -10.43 L94.73 -10.91 L95.63 -11.32 L96.56 -11.65 L97.51 -11.91 L98.47 -12.1 L99.45 -12.21 L100.4 -12.23 Z " />
<path stroke="rgb(0,0,0)" stroke-opacity="1" fill="rgb(255,255,255)" fill-opacity="1" d="M-215.1 -390.7 L-215.1 -391.7 L-215 -392.7 L-215 -393.7 L-215 -394.7 L-214.9 -395.7 L-214.9 -396.7 L-214.8 -397.6 L-214.8 -398.6 L-214.7 -399.6 L-214.7 -400.6 L-214.7 -401.6 L-214.6 -402.6 L-214.6 -403.5 L-214.5 -404.5 L-214.5 -405.5 L-214.4 -406.5 L-214.4 -407.5 L-214.3 -408.5 L-214.3 -409.5 L-214.3 -410.4 L-214.2 -411.4 L-214.2 -412.4 L-214.1 -413.4 L-214.1 -414.4 L-214 -415.4 L-213.1 -415.3 L-212.1 -415.3 L-211.1 -415.2 L-210.1 -415.2 L-209.1 -415.2 L-208.1 -415.1 L-207.2 -415.1 L-206.2 -415 L-205.2 -415 L-204.2 -414.9 L-203.2 -414.9 L-202.2 -414.9 L-201.2 -414.8 L-200.3 -414.8 L-199.3 -414.7 L-198.3 -414.7 L-197.3 -414.6 L-196.3 -414.6 L-195.3 -414.6 L-194.3 -414.5 L-193.4 -414.5 L-192.4 -414.4 L-191.4 -414.4 L-190.4 -414.3 L-189.4 -414.3 L-189.5 -413.3 L-189.5 -412.3 L-189.5 -411.3 L-189.6 -410.4 L-189.6 -409.4 L-189.7 -408.4 L-189.7 -407.4 L-189.8 -406.4 L-189.8 -405.4 L-189.8 -404.4 L-189.9 -403.5 L-189.9 -402.5 L-190 -401.5 L-190 -400.5 L-190.1 -399.5 L-190.1 -398.5 L-190.2 -397.5 L-190.2 -396.6 L-190.2 -395.6 L-190.3 -394.6 L-190.3 -393.6 L-190.4 -392.6 L-190.4 -391.6 L-190.5 -390.6 L-190.5 -389.7 L-191.5 -389.7 L-192.5 -389.7 L-193.5 -389.8 L-194.4 -389.8 L-195.4 -389.9 L-196.4 -389.9 L-197.4 -390 L-198.4 -390 L-199.4 -390 L-200.3 -390.1 L-201.3 -390.1 L-202.3 -390.2 L-203.3 -390.2 L-204.3 -390.3 L-205.3 -390.3 L-206.3 -390.4 L-207.2 -390.4 L-208.2 -390.4 L-209.2 -390.5 L-210.2 -390.5 L-211.2 -390.6 L-212.2 -390.6 L-213.2 -390.7 L-214.1 -390.7 L-215.1 -390.7 Z " />
<path stroke="rgb(0,0,0)" stroke-opacity="1" fill="rgb(255,255,255)" fill-opacity="1" d="M301.1 -12.52 L302.2 -12.41 L303.1 -12.22 L304.1 -11.96 L305.1 -11.62 L306 -11.2 L306.9 -10.71 L307.7 -10.16 L308.5 -9.534 L309.3 -8.851 L309.9 -8.111 L310.6 -7.318 L311.1 -6.479 L311.6 -5.597 L312 -4.68 L312.4 -3.731 L312.7 -2.758 L312.9 -1.766 L313 -0.7628 L313 0.2467 L313 1.256 L312.8 2.258 L312.6 3.246 L312.3 4.216 L312 5.159 L311.5 6.071 L311 6.946 L310.5 7.777 L309.8 8.561 L309.1 9.291 L308.4 9.964 L307.6 10.57 L306.7 11.12 L305.8 11.59 L304.9 12 L304 12.33 L303 12.58 L302 12.75 L301 12.84 L300 12.86 L299 12.79 L298 12.64 L297 12.42 L296 12.11 L295.1 11.73 L294.2 11.28 L293.3 10.76 L292.5 10.17 L291.7 9.516 L291 8.804 L290.3 8.038 L289.7 7.221 L289.2 6.36 L288.8 5.46 L288.4 4.526 L288.1 3.564 L287.8 2.581 L287.7 1.583 L287.6 0.5752 L287.6 -0.4348 L287.7 -1.441 L287.9 -2.437 L288.1 -3.417 L288.4 -4.374 L288.8 -5.303 L289.3 -6.197 L289.8 -7.05 L290.4 -7.859 L291.1 -8.616 L291.8 -9.318 L292.6 -9.96 L293.5 -10.54 L294.3 -11.05 L295.2 -11.49 L296.2 -11.85 L297.1 -12.14 L298.1 -12.36 L299.1 -12.49 L300.1 -12.54 L301.1 -12.52 Z " />
<path stroke="rgb(0,0,0)" stroke-opacity="1" fill="rgb(255,255,255)" fill-opacity="1" d="M-739 -316.3 L-738.7 -317.2 L-738.3 -318.1 L-738 -319 L-737.6 -320 L-737.2 -320.9 L-736.9 -321.8 L-736.5 -322.7 L-736.2 -323.6 L-735.8 -324.6 L-735.5 -325.5 L-735.1 -326.4 L-734.7 -327.3 L-734.4 -328.2 L-734 -329.2 L-733.7 -330.1 L-733.3 -331 L-733 -331.9 L-732.6 -332.8 L-732.2 -333.7 L-731.9 -334.7 L-731.5 -335.6 L-731.2 -336.5 L-730.8 -337.4 L-730.5 -338.3 L-730.1 -339.3 L-729.2 -338.9 L-728.3 -338.5 L-727.3 -338.2 L-726.4 -337.8 L-725.5 -337.5 L-724.6 -337.1 L-723.7 -336.8 L-722.7 -336.4 L-721.8 -336 L-720.9 -335.7 L-720 -335.3 L-719.1 -335 L-718.2 -334.6 L-717.2 -334.3 L-716.3 -333.9 L-715.4 -333.5 L-714.5 -333.2 L-713.6 -332.8 L-712.6 -332.5 L-711.7 -332.1 L-710.8 -331.8 L-709.9 -331.4 L-709 -331 L-708 -330.7 L-707.1 -330.3 L-707.5 -329.4 L-707.8 -328.5 L-708.2 -327.6 L-708.6 -326.6 L-708.9 -325.7 L-709.3 -324.8 L-709.6 -323.9 L-710 -323 L-710.3 -322.1 L-710.7 -321.1 L-711.1 -320.2 L-711.4 -319.3 L-711.8 -318.4 L-712.1 -317.5 L-712.5 -316.5 L-712.8 -315.6 L-713.2 -314.7 L-713.6 -313.8 L-713.9 -312.9 L-714.3 -311.9 L-714.6 -311 L-715 -310.1 L-715.3 -309.2 L-715.7 -308.3 L-716.1 -307.4 L-717 -307.7 L-717.9 -308.1 L-718.8 -308.4 L-719.7 -308.8 L-720.7 -309.1 L-721.6 -309.5 L-722.5 -309.9 L-723.4 -310.2 L-724.3 -310.6 L-725.3 -310.9 L-726.2 -311.3 L-727.1 -311.6 L-728 -312 L-728.9 -312.4 L-729.8 -312.7 L-730.8 -313.1 L-731.7 -313.4 L-732.6 -313.8 L-733.5 -314.1 L-734.4 -314.5 L-735.4 -314.9 L-736.3 -315.2 L-737.2 -315.6 L-738.1 -315.9 L-739 -316.3 Z " />
<path stroke="rgb(0,0,0)" stroke-opacity="1" fill="rgb(255,255,255)" fill-opacity="1" d="M-199.6 87.77 L-198.6 87.81 L-197.6 87.94 L-196.6 88.15 L-195.7 88.43 L-194.8 88.78 L-193.9 89.21 L-193 89.7 L-192.2 90.27 L-191.5 90.89 L-190.8 91.57 L-190.1 92.31 L-189.5 93.1 L-189 93.93 L-188.5 94.8 L-188.1 95.7 L-187.8 96.64 L-187.6 97.59 L-187.4 98.56 L-187.3 99.54 L-187.3 100.5 L-187.4 101.5 L-187.5 102.5 L-187.7 103.4 L-188 104.4 L-188.4 105.3 L-188.9 106.2 L-189.4 107 L-189.9 107.8 L-190.6 108.6 L-191.3 109.3 L-192 109.9 L-192.8 110.5 L-193.7 111 L-194.6 111.4 L-195.5 111.8 L-196.4 112.1 L-197.4 112.3 L-198.3 112.5 L-199.3 112.5 L-200.3 112.5 L-201.3 112.4 L-202.3 112.3 L-203.2 112 L-204.1 111.7 L-205.1 111.3 L-205.9 110.9 L-206.8 110.3 L-207.5 109.7 L-208.3 109.1 L-209 108.4 L-209.6 107.6 L-210.1 106.8 L-210.6 106 L-211.1 105.1 L-211.4 104.1 L-211.7 103.2 L-211.9 102.2 L-212 101.3 L-212.1 100.3 L-212 99.29 L-211.9 98.31 L-211.8 97.34 L-211.5 96.39 L-211.2 95.47 L-210.7 94.57 L-210.3 93.71 L-209.7 92.89 L-209.1 92.11 L-208.4 91.39 L-207.7 90.72 L-206.9 90.11 L-206.1 89.57 L-205.3 89.09 L-204.4 88.68 L-203.4 88.35 L-202.5 88.09 L-201.5 87.9 L-200.5 87.79 L-199.6 87.77 Z " />
<path stroke="rgb(0,0,0)" stroke-opacity="1" fill="rgb(255,255,255)" fill-opacity="1" d="M-523 -298.8 L-522.8 -299.8 L-522.7 -300.8 L-522.5 -301.8 L-522.4 -302.7 L-522.2 -303.7 L-522.1 -304.7 L-521.9 -305.7 L-521.8 -306.6 L-521.6 -307.6 L-521.5 -308.6 L-521.4 -309.6 L-521.2 -310.5 L-521.1 -311.5 L-520.9 -312.5 L-520.8 -313.5 L-520.6 -314.4 L-520.5 -315.4 L-520.3 -316.4 L-520.2 -317.4 L-520 -318.3 L-519.9 -319.3 L-519.7 -320.3 L-519.6 -321.3 L-519.5 -322.2 L-519.3 -323.2 L-518.3 -323.1 L-517.4 -322.9 L-516.4 -322.8 L-515.4 -322.6 L-514.4 -322.5 L-513.5 -322.3 L-512.5 -322.2 L-511.5 -322 L-510.5 -321.9 L-509.6 -321.7 L-508.6 -321.6 L-507.6 -321.5 L-506.6 -321.3 L-505.7 -321.2 L-504.7 -321 L-503.7 -320.9 L-502.7 -320.7 L-501.8 -320.6 L-500.8 -320.4 L-499.8 -320.3 L-498.8 -320.1 L-497.9 -320 L-496.9 -319.8 L-495.9 -319.7 L-494.9 -319.6 L-495.1 -318.6 L-495.2 -317.6 L-495.4 -316.6 L-495.5 -315.6 L-495.7 -314.7 L-495.8 -313.7 L-496 -312.7 L-496.1 -311.7 L-496.2 -310.8 L-496.4 -309.8 L-496.5 -308.8 L-496.7 -307.8 L-496.8 -306.9 L-497 -305.9 L-497.1 -304.9 L-497.3 -303.9 L-497.4 -303 L-497.6 -302 L-497.7 -301 L-497.9 -300 L-498 -299.1 L-498.1 -298.1 L-498.3 -297.1 L-498.4 -296.1 L-498.6 -295.2 L-499.6 -295.3 L-500.5 -295.5 L-501.5 -295.6 L-502.5 -295.8 L-503.5 -295.9 L-504.4 -296 L-505.4 -296.2 L-506.4 -296.3 L-507.4 -296.5 L-508.3 -296.6 L-509.3 -296.8 L-510.3 -296.9 L-511.3 -297.1 L-512.2 -297.2 L-513.2 -297.4 L-514.2 -297.5 L-515.2 -297.7 L-516.1 -297.8 L-517.1 -297.9 L-518.1 -298.1 L-519.1 -298.2 L-520 -298.4 L-521 -298.5 L-522 -298.7 L-523 -298.8 Z " />
<path stroke="rgb(0,0,0)" stroke-opacity="1" fill="rgb(255,255,255)" fill-opacity="1" d="M0.4383 87.77 L1.422 87.81 L2.399 87.94 L3.363 88.15 L4.307 88.43 L5.227 88.78 L6.115 89.21 L6.966 89.7 L7.775 90.27 L8.537 90.89 L9.248 91.57 L9.901 92.31 L10.49 93.1 L11.02 93.93 L11.48 94.8 L11.87 95.7 L12.19 96.64 L12.43 97.59 L12.6 98.56 L12.69 99.54 L12.7 100.5 L12.63 101.5 L12.48 102.5 L12.26 103.4 L11.96 104.4 L11.58 105.3 L11.14 106.2 L10.63 107 L10.05 107.8 L9.411 108.6 L8.714 109.3 L7.964 109.9 L7.166 110.5 L6.324 111 L5.444 111.4 L4.532 111.8 L3.593 112.1 L2.633 112.3 L1.659 112.5 L0.6762 112.5 L-0.3089 112.5 L-1.29 112.4 L-2.261 112.3 L-3.216 112 L-4.149 111.7 L-5.053 111.3 L-5.923 110.9 L-6.754 110.3 L-7.541 109.7 L-8.278 109.1 L-8.96 108.4 L-9.584 107.6 L-10.14 106.8 L-10.64 106 L-11.07 105.1 L-11.42 104.1 L-11.7 103.2 L-11.9 102.2 L-12.03 101.3 L-12.08 100.3 L-12.05 99.29 L-11.94 98.31 L-11.76 97.34 L-11.49 96.39 L-11.16 95.47 L-10.75 94.57 L-10.27 93.71 L-9.725 92.89 L-9.116 92.11 L-8.447 91.39 L-7.723 90.72 L-6.949 90.11 L-6.128 89.57 L-5.267 89.09 L-4.37 88.68 L-3.444 88.35 L-2.494 88.09 L-1.526 87.9 L-0.5465 87.79 L0.4383 87.77 Z " />
<path stroke="rgb(0,0,0)" stroke-opacity="1" fill="rgb(255,255,255)" fill-opacity="1" d="M-315.1 -290.7 L-315.1 -291.7 L-315 -292.7 L-315 -293.7 L-315 -294.7 L-314.9 -295.7 L-314.9 -296.7 L-314.8 -297.6 L-314.8 -298.6 L-314.7 -299.6 L-314.7 -300.6 L-314.7 -301.6 L-314.6 -302.6 L-314.6 -303.5 L-314.5 -304.5 L-314.5 -305.5 L-314.4 -306.5 L-314.4 -307.5 L-314.3 -308.5 L-314.3 -309.5 L-314.3 -310.4 L-314.2 -311.4 L-314.2 -312.4 L-314.1 -313.4 L-314.1 -314.4 L-314 -315.4 L-313.1 -315.3 L-312.1 -315.3 L-311.1 -315.2 L-310.1 -315.2 L-309.1 -315.2 L-308.1 -315.1 L-307.2 -315.1 L-306.2 -315 L-305.2 -315 L-304.2 -314.9 L-303.2 -314.9 L-302.2 -314.9 L-301.2 -314.8 L-300.3 -314.8 L-299.3 -314.7 L-298.3 -314.7 L-297.3 -314.6 L-296.3 -314.6 L-295.3 -314.6 L-294.3 -314.5 L-293.4 -314.5 L-292.4 -314.4 L-291.4 -314.4 L-290.4 -314.3 L-289.4 -314.3 L-289.5 -313.3 L-289.5 -312.3 L-289.5 -311.3 L-289.6 -310.4 L-289.6 -309.4 L-289.7 -308.4 L-289.7 -307.4 L-289.8 -306.4 L-289.8 -305.4 L-289.8 -304.4 L-289.9 -303.5 L-289.9 -302.5 L-290 -301.5 L-290 -300.5 L-290.1 -299.5 L-290.1 -298.5 L-290.2 -297.5 L-290.2 -296.6 L-290.2 -295.6 L-290.3 -294.6 L-290.3 -293.6 L-290.4 -292.6 L-290.4 -291.6 L-290.5 -290.6 L-290.5 -289.7 L-291.5 -289.7 L-292.5 -289.7 L-293.5 -289.8 L-294.4 -289.8 L-295.4 -289.9 L-296.4 -289.9 L-297.4 -290 L-298.4 -290 L-299.4 -290 L-300.3 -290.1 L-301.3 -290.1 L-302.3 -290.2 L-303.3 -290.2 L-304.3 -290.3 L-305.3 -290.3 L-306.3 -290.4 L-307.2 -290.4 L-308.2 -290.4 L-309.2 -290.5 L-310.2 -290.5 L-311.2 -290.6 L-312.2 -290.6 L-313.2 -290.7 L-314.1 -290.7 L-315.1 -290.7 Z " />
<path stroke="rgb(0,0,0)" stroke-opacity="1" fill="rgb(255,255,255)" fill-opacity="1" d="M201.1 87.48 L202.2 87.59 L203.1 87.78 L204.1 88.04 L205.1 88.38 L206 88.8 L206.9 89.29 L207.7 89.84 L208.5 90.47 L209.3 91.15 L209.9 91.89 L210.6 92.68 L211.1 93.52 L211.6 94.4 L212 95.32 L212.4 96.27 L212.7 97.24 L212.9 98.23 L213 99.24 L213 100.2 L213 101.3 L212.8 102.3 L212.6 103.2 L212.3 104.2 L212 105.2 L211.5 106.1 L211 106.9 L210.5 107.8 L209.8 108.6 L209.1 109.3 L208.4 110 L207.6 110.6 L206.7 111.1 L205.8 111.6 L204.9 112 L204 112.3 L203 112.6 L202 112.8 L201 112.8 L200 112.9 L199 112.8 L198 112.6 L197 112.4 L196 112.1 L195.1 111.7 L194.2 111.3 L193.3 110.8 L192.5 110.2 L191.7 109.5 L191 108.8 L190.3 108 L189.7 107.2 L189.2 106.4 L188.8 105.5 L188.4 104.5 L188.1 103.6 L187.8 102.6 L187.7 101.6 L187.6 100.6 L187.6 99.57 L187.7 98.56 L187.9 97.56 L188.1 96.58 L188.4 95.63 L188.8 94.7 L189.3 93.8 L189.8 92.95 L190.4 92.14 L191.1 91.38 L191.8 90.68 L192.6 90.04 L193.5 89.46 L194.3 88.95 L195.2 88.51 L196.2 88.15 L197.1 87.86 L198.1 87.64 L199.1 87.51 L200.1 87.46 L201.1 87.48 Z " />
<path stroke="rgb(0,0,0)" stroke-opacity="1" fill="rgb(255,255,255)" fill-opacity="1" d="M-112.7 -288.3 L-112.7 -289.3 L-112.7 -290.3 L-112.7 -291.3 L-112.7 -292.3 L-112.7 -293.3 L-112.7 -294.2 L-112.6 -295.2 L-112.6 -296.2 L-112.6 -297.2 L-112.6 -298.2 L-112.6 -299.2 L-112.6 -300.2 L-112.6 -301.1 L-112.6 -302.1 L-112.6 -303.1 L-112.5 -304.1 L-112.5 -305.1 L-112.5 -306.1 L-112.5 -307.1 L-112.5 -308 L-112.5 -309 L-112.5 -310 L-112.5 -311 L-112.4 -312 L-112.4 -313 L-111.4 -313 L-110.5 -312.9 L-109.5 -312.9 L-108.5 -312.9 L-107.5 -312.9 L-106.5 -312.9 L-105.5 -312.9 L-104.5 -312.9 L-103.6 -312.9 L-102.6 -312.9 L-101.6 -312.8 L-100.6 -312.8 L-99.61 -312.8 L-98.63 -312.8 L-97.64 -312.8 L-96.65 -312.8 L-95.67 -312.8 L-94.68 -312.8 L-93.7 -312.7 L-92.71 -312.7 L-91.72 -312.7 L-90.74 -312.7 L-89.75 -312.7 L-88.76 -312.7 L-87.78 -312.7 L-87.79 -311.7 L-87.8 -310.7 L-87.81 -309.7 L-87.83 -308.7 L-87.84 -307.7 L-87.85 -306.8 L-87.86 -305.8 L-87.87 -304.8 L-87.89 -303.8 L-87.9 -302.8 L-87.91 -301.8 L-87.92 -300.8 L-87.93 -299.9 L-87.94 -298.9 L-87.96 -297.9 L-87.97 -296.9 L-87.98 -295.9 L-87.99 -294.9 L-88 -293.9 L-88.02 -293 L-88.03 -292 L-88.04 -291 L-88.05 -290 L-88.06 -289 L-88.08 -288 L-89.06 -288 L-90.05 -288 L-91.03 -288.1 L-92.02 -288.1 L-93.01 -288.1 L-93.99 -288.1 L-94.98 -288.1 L-95.96 -288.1 L-96.95 -288.1 L-97.94 -288.1 L-98.92 -288.2 L-99.91 -288.2 L-100.9 -288.2 L-101.9 -288.2 L-102.9 -288.2 L-103.9 -288.2 L-104.8 -288.2 L-105.8 -288.2 L-106.8 -288.2 L-107.8 -288.3 L-108.8 -288.3 L-109.8 -288.3 L-110.8 -288.3 L-111.7 -288.3 L-112.7 -288.3 Z " />
<path stroke="rgb(0,0,0)" stroke-opacity="1" fill="rgb(255,255,255)" fill-opacity="1" d="M-299.6 187.8 L-298.6 187.8 L-297.6 187.9 L-296.6 188.1 L-295.7 188.4 L-294.8 188.8 L-293.9 189.2 L-293 189.7 L-292.2 190.3 L-291.5 190.9 L-290.8 191.6 L-290.1 192.3 L-289.5 193.1 L-289 193.9 L-288.5 194.8 L-288.1 195.7 L-287.8 196.6 L-287.6 197.6 L-287.4 198.6 L-287.3 199.5 L-287.3 200.5 L-287.4 201.5 L-287.5 202.5 L-287.7 203.4 L-288 204.4 L-288.4 205.3 L-288.9 206.2 L-289.4 207 L-289.9 207.8 L-290.6 208.6 L-291.3 209.3 L-292 209.9 L-292.8 210.5 L-293.7 211 L-294.6 211.4 L-295.5 211.8 L-296.4 212.1 L-297.4 212.3 L-298.3 212.5 L-299.3 212.5 L-300.3 212.5 L-301.3 212.4 L-302.3 212.3 L-303.2 212 L-304.1 211.7 L-305.1 211.3 L-305.9 210.9 L-306.8 210.3 L-307.5 209.7 L-308.3 209.1 L-309 208.4 L-309.6 207.6 L-310.1 206.8 L-310.6 206 L-311.1 205.1 L-311.4 204.1 L-311.7 203.2 L-311.9 202.2 L-312 201.3 L-312.1 200.3 L-312 199.3 L-311.9 198.3 L-311.8 197.3 L-311.5 196.4 L-311.2 195.5 L-310.7 194.6 L-310.3 193.7 L-309.7 192.9 L-309.1 192.1 L-308.4 191.4 L-307.7 190.7 L-306.9 190.1 L-306.1 189.6 L-305.3 189.1 L-304.4 188.7 L-303.4 188.3 L-302.5 188.1 L-301.5 187.9 L-300.5 187.8 L-299.6 187.8 Z " />
<path stroke="rgb(0,0,0)" stroke-opacity="1" fill="rgb(255,255,255)" fill-opacity="1" d="M-623 -198.8 L-622.8 -199.8 L-622.7 -200.8 L-622.5 -201.8 L-622.4 -202.7 L-622.2 -203.7 L-622.1 -204.7 L-621.9 -205.7 L-621.8 -206.6 L-621.6 -207.6 L-621.5 -208.6 L-621.4 -209.6 L-621.2 -210.5 L-621.1 -211.5 L-620.9 -212.5 L-620.8 -213.5 L-620.6 -214.4 L-620.5 -215.4 L-620.3 -216.4 L-620.2 -217.4 L-620 -218.3 L-619.9 -219.3 L-619.7 -220.3 L-619.6 -221.3 L-619.5 -222.2 L-619.3 -223.2 L-618.3 -223.1 L-617.4 -222.9 L-616.4 -222.8 L-615.4 -222.6 L-614.4 -222.5 L-613.5 -222.3 L-612.5 -222.2 L-611.5 -222 L-610.5 -221.9 L-609.6 -221.7 L-608.6 -221.6 L-607.6 -221.5 L-606.6 -221.3 L-605.7 -221.2 L-604.7 -221 L-603.7 -220.9 L-602.7 -220.7 L-601.8 -220.6 L-600.8 -220.4 L-599.8 -220.3 L-598.8 -220.1 L-597.9 -220 L-596.9 -219.8 L-595.9 -219.7 L-594.9 -219.6 L-595.1 -218.6 L-595.2 -217.6 L-595.4 -216.6 L-595.5 -215.6 L-595.7 -214.7 L-595.8 -213.7 L-596 -212.7 L-596.1 -211.7 L-596.2 -210.8 L-596.4 -209.8 L-596.5 -208.8 L-596.7 -207.8 L-596.8 -206.9 L-597 -205.9 L-597.1 -204.9 L-597.3 -203.9 L-597.4 -203 L-597.6 -202 L-597.7 -201 L-597.9 -200 L-598 -199.1 L-598.1 -198.1 L-598.3 -197.1 L-598.4 -196.1 L-598.6 -195.2 L-599.6 -195.3 L-600.5 -195.5 L-601.5 -195.6 L-602.5 -195.8 L-603.5 -195.9 L-604.4 -196 L-605.4 -196.2 L-606.4 -196.3 L-607.4 -196.5 L-608.3 -196.6 L-609.3 -196.8 L-610.3 -196.9 L-611.3 -197.1 L-612.2 -197.2 L-613.2 -197.4 L-614.2 -197.5 L-615.2 -197.7 L-616.1 -197.8 L-617.1 -197.9 L-618.1 -198.1 L-619.1 -198.2 L-620 -198.4 L-621 -198.5 L-622 -198.7 L-623 -198.8 Z " />
<path stroke="rgb(0,0,0)" stroke-opacity="1" fill="rgb(255,255,255)" fill-opacity="1" d="M-99.56 187.8 L-98.58 187.8 L-97.6 187.9 L-96.64 188.1 L-95.69 188.4 L-94.77 188.8 L-93.89 189.2 L-93.03 189.7 L-92.22 190.3 L-91.46 190.9 L-90.75 191.6 L-90.1 192.3 L-89.51 193.1 L-88.98 193.9 L-88.52 194.8 L-88.13 195.7 L-87.81 196.6 L-87.57 197.6 L-87.4 198.6 L-87.31 199.5 L-87.3 200.5 L-87.37 201.5 L-87.52 202.5 L-87.74 203.4 L-88.04 204.4 L-88.42 205.3 L-88.86 206.2 L-89.37 207 L-89.95 207.8 L-90.59 208.6 L-91.29 209.3 L-92.04 209.9 L-92.83 210.5 L-93.68 211 L-94.56 211.4 L-95.47 211.8 L-96.41 212.1 L-97.37 212.3 L-98.34 212.5 L-99.32 212.5 L-100.3 212.5 L-101.3 212.4 L-102.3 212.3 L-103.2 212 L-104.1 211.7 L-105.1 211.3 L-105.9 210.9 L-106.8 210.3 L-107.5 209.7 L-108.3 209.1 L-109 208.4 L-109.6 207.6 L-110.1 206.8 L-110.6 206 L-111.1 205.1 L-111.4 204.1 L-111.7 203.2 L-111.9 202.2 L-112 201.3 L-112.1 200.3 L-112 199.3 L-111.9 198.3 L-111.8 197.3 L-111.5 196.4 L-111.2 195.5 L-110.7 194.6 L-110.3 193.7 L-109.7 192.9 L-109.1 192.1 L-108.4 191.4 L-107.7 190.7 L-106.9 190.1 L-106.1 189.6 L-105.3 189.1 L-104.4 188.7 L-103.4 188.3 L-102.5 188.1 L-101.5 187.9 L-100.5 187.8 L-99.56 187.8 Z " />
<path stroke="rgb(0,0,0)" stroke-opacity="1" fill="rgb(255,255,255)" fill-opacity="1" d="M-415.1 -190.7 L-415.1 -191.7 L-415 -192.7 L-415 -193.7 L-415 -194.7 L-414.9 -195.7 L-414.9 -196.7 L-414.8 -197.6 L-414.8 -198.6 L-414.7 -199.6 L-414.7 -200.6 L-414.7 -201.6 L-414.6 -202.6 L-414.6 -203.5 L-414.5 -204.5 L-414.5 -205.5 L-414.4 -206.5 L-414.4 -207.5 L-414.3 -208.5 L-414.3 -209.5 L-414.3 -210.4 L-414.2 -211.4 L-414.2 -212.4 L-414.1 -213.4 L-414.1 -214.4 L-414 -215.4 L-413.1 -215.3 L-412.1 -215.3 L-411.1 -215.2 L-410.1 -215.2 L-409.1 -215.2 L-408.1 -215.1 L-407.2 -215.1 L-406.2 -215 L-405.2 -215 L-404.2 -214.9 L-403.2 -214.9 L-402.2 -214.9 L-401.2 -214.8 L-400.3 -214.8 L-399.3 -214.7 L-398.3 -214.7 L-397.3 -214.6 L-396.3 -214.6 L-395.3 -214.6 L-394.3 -214.5 L-393.4 -214.5 L-392.4 -214.4 L-391.4 -214.4 L-390.4 -214.3 L-389.4 -214.3 L-389.5 -213.3 L-389.5 -212.3 L-389.5 -211.3 L-389.6 -210.4 L-389.6 -209.4 L-389.7 -208.4 L-389.7 -207.4 L-389.8 -206.4 L-389.8 -205.4 L-389.8 -204.4 L-389.9 -203.5 L-389.9 -202.5 L-390 -201.5 L-390 -200.5 L-390.1 -199.5 L-390.1 -198.5 L-390.2 -197.5 L-390.2 -196.6 L-390.2 -195.6 L-390.3 -194.6 L-390.3 -193.6 L-390.4 -192.6 L-390.4 -191.6 L-390.5 -190.6 L-390.5 -189.7 L-391.5 -189.7 L-392.5 -189.7 L-393.5 -189.8 L-394.4 -189.8 L-395.4 -189.9 L-396.4 -189.9 L-397.4 -190 L-398.4 -190 L-399.4 -190 L-400.3 -190.1 L-401.3 -190.1 L-402.3 -190.2 L-403.3 -190.2 L-404.3 -190.3 L-405.3 -190.3 L-406.3 -190.4 L-407.2 -190.4 L-408.2 -190.4 L-409.2 -190.5 L-410.2 -190.5 L-411.2 -190.6 L-412.2 -190.6 L-413.2 -190.7 L-414.1 -190.7 L-415.1 -190.7 Z " />
<path stroke="rgb(0,0,0)" stroke-opacity="1" fill="rgb(255,255,255)" fill-opacity="1" d="M101.1 187.5 L102.2 187.6 L103.1 187.8 L104.1 188 L105.1 188.4 L106 188.8 L106.9 189.3 L107.7 189.8 L108.5 190.5 L109.3 191.1 L109.9 191.9 L110.6 192.7 L111.1 193.5 L111.6 194.4 L112 195.3 L112.4 196.3 L112.7 197.2 L112.9 198.2 L113 199.2 L113 200.2 L113 201.3 L112.8 202.3 L112.6 203.2 L112.3 204.2 L112 205.2 L111.5 206.1 L111 206.9 L110.5 207.8 L109.8 208.6 L109.1 209.3 L108.4 210 L107.6 210.6 L106.7 211.1 L105.8 211.6 L104.9 212 L104 212.3 L103 212.6 L102 212.8 L101 212.8 L99.96 212.9 L98.95 212.8 L97.95 212.6 L96.97 212.4 L96.01 212.1 L95.07 211.7 L94.17 211.3 L93.3 210.8 L92.48 210.2 L91.71 209.5 L91 208.8 L90.34 208 L89.74 207.2 L89.22 206.4 L88.76 205.5 L88.37 204.5 L88.06 203.6 L87.83 202.6 L87.68 201.6 L87.61 200.6 L87.61 199.6 L87.7 198.6 L87.87 197.6 L88.11 196.6 L88.44 195.6 L88.83 194.7 L89.3 193.8 L89.84 192.9 L90.45 192.1 L91.12 191.4 L91.84 190.7 L92.62 190 L93.45 189.5 L94.32 189 L95.23 188.5 L96.17 188.1 L97.14 187.9 L98.13 187.6 L99.13 187.5 L100.1 187.5 L101.1 187.5 Z " />
<path stroke="rgb(0,0,0)" stroke-opacity="1" fill="rgb(255,255,255)" fill-opacity="1" d="M-212.7 -188.3 L-212.7 -189.3 L-212.7 -190.3 L-212.7 -191.3 L-212.7 -192.3 L-212.7 -193.3 L-212.7 -194.2 L-212.6 -195.2 L-212.6 -196.2 L-212.6 -197.2 L-212.6 -198.2 L-212.6 -199.2 L-212.6 -200.2 L-212.6 -201.1 L-212.6 -202.1 L-212.6 -203.1 L-212.5 -204.1 L-212.5 -205.1 L-212.5 -206.1 L-212.5 -207.1 L-212.5 -208 L-212.5 -209 L-212.5 -210 L-212.5 -211 L-212.4 -212 L-212.4 -213 L-211.4 -213 L-210.5 -212.9 L-209.5 -212.9 L-208.5 -212.9 L-207.5 -212.9 L-206.5 -212.9 L-205.5 -212.9 L-204.5 -212.9 L-203.6 -212.9 L-202.6 -212.9 L-201.6 -212.8 L-200.6 -212.8 L-199.6 -212.8 L-198.6 -212.8 L-197.6 -212.8 L-196.7 -212.8 L-195.7 -212.8 L-194.7 -212.8 L-193.7 -212.7 L-192.7 -212.7 L-191.7 -212.7 L-190.7 -212.7 L-189.8 -212.7 L-188.8 -212.7 L-187.8 -212.7 L-187.8 -211.7 L-187.8 -210.7 L-187.8 -209.7 L-187.8 -208.7 L-187.8 -207.7 L-187.8 -206.8 L-187.9 -205.8 L-187.9 -204.8 L-187.9 -203.8 L-187.9 -202.8 L-187.9 -201.8 L-187.9 -200.8 L-187.9 -199.9 L-187.9 -198.9 L-188 -197.9 L-188 -196.9 L-188 -195.9 L-188 -194.9 L-188 -193.9 L-188 -193 L-188 -192 L-188 -191 L-188.1 -190 L-188.1 -189 L-188.1 -188 L-189.1 -188 L-190 -188 L-191 -188.1 L-192 -188.1 L-193 -188.1 L-194 -188.1 L-195 -188.1 L-196 -188.1 L-197 -188.1 L-197.9 -188.1 L-198.9 -188.2 L-199.9 -188.2 L-200.9 -188.2 L-201.9 -188.2 L-202.9 -188.2 L-203.9 -188.2 L-204.8 -188.2 L-205.8 -188.2 L-206.8 -188.2 L-207.8 -188.3 L-208.8 -188.3 L-209.8 -188.3 L-210.8 -188.3 L-211.7 -188.3 L-212.7 -188.3 Z " />
<path stroke="rgb(0,0,0)" stroke-opacity="1" fill="rgb(255,255,255)" fill-opacity="1" d="M309.5 186.9 L310.5 187.7 L311.5 188.6 L312.4 189.5 L313.2 190.5 L313.9 191.6 L314.6 192.7 L315.1 193.9 L315.6 195.1 L315.9 196.3 L316.2 197.6 L316.3 198.8 L316.4 200.1 L316.3 201.4 L316.2 202.7 L315.9 204 L315.6 205.2 L315.1 206.4 L314.6 207.6 L314 208.7 L313.2 209.8 L312.4 210.8 L311.5 211.7 L310.6 212.6 L309.6 213.4 L308.5 214.1 L307.4 214.7 L306.2 215.2 L305 215.6 L303.7 216 L302.5 216.2 L301.2 216.3 L299.9 216.3 L298.6 216.3 L297.3 216.1 L296.1 215.8 L294.9 215.4 L293.7 215 L292.5 214.4 L291.4 213.8 L290.3 213 L289.4 212.2 L288.4 211.3 L287.6 210.3 L286.8 209.3 L286.1 208.2 L285.5 207.1 L285 205.9 L284.6 204.6 L284.3 203.4 L284.1 202.1 L284 200.8 L284 199.6 L284.1 198.3 L284.3 197 L284.6 195.7 L285 194.5 L285.5 193.3 L286.1 192.2 L286.8 191.1 L287.6 190.1 L288.4 189.1 L289.3 188.2 L290.3 187.4 L291.3 186.6 L292.4 186 L293.6 185.4 L294.8 184.9 L296 184.5 L297.3 184.2 L298.6 184.1 L299.8 184 L301.1 184 L302.4 184.1 L303.7 184.4 L304.9 184.7 L306.1 185.1 L307.3 185.6 L308.4 186.2 L309.5 186.9 Z " />
<path stroke="rgb(0,0,0)" stroke-opacity="1" fill="rgb(255,255,255)" fill-opacity="1" d="M-723 -98.83 L-722.8 -99.8 L-722.7 -100.8 L-722.5 -101.8 L-722.4 -102.7 L-722.2 -103.7 L-722.1 -104.7 L-721.9 -105.7 L-721.8 -106.6 L-721.6 -107.6 L-721.5 -108.6 L-721.4 -109.6 L-721.2 -110.5 L-721.1 -111.5 L-720.9 -112.5 L-720.8 -113.5 L-720.6 -114.4 L-720.5 -115.4 L-720.3 -116.4 L-720.2 -117.4 L-720 -118.3 L-719.9 -119.3 L-719.7 -120.3 L-719.6 -121.3 L-719.5 -122.2 L-719.3 -123.2 L-718.3 -123.1 L-717.4 -122.9 L-716.4 -122.8 L-715.4 -122.6 L-714.4 -122.5 L-713.5 -122.3 L-712.5 -122.2 L-711.5 -122 L-710.5 -121.9 L-709.6 -121.7 L-708.6 -121.6 L-707.6 -121.5 L-706.6 -121.3 L-705.7 -121.2 L-704.7 -121 L-703.7 -120.9 L-702.7 -120.7 L-701.8 -120.6 L-700.8 -120.4 L-699.8 -120.3 L-698.8 -120.1 L-697.9 -120 L-696.9 -119.8 L-695.9 -119.7 L-694.9 -119.6 L-695.1 -118.6 L-695.2 -117.6 L-695.4 -116.6 L-695.5 -115.6 L-695.7 -114.7 L-695.8 -113.7 L-696 -112.7 L-696.1 -111.7 L-696.2 -110.8 L-696.4 -109.8 L-696.5 -108.8 L-696.7 -107.8 L-696.8 -106.9 L-697 -105.9 L-697.1 -104.9 L-697.3 -103.9 L-697.4 -103 L-697.6 -102 L-697.7 -101 L-697.9 -100 L-698 -99.07 L-698.1 -98.1 L-698.3 -97.12 L-698.4 -96.15 L-698.6 -95.17 L-699.6 -95.32 L-700.5 -95.46 L-701.5 -95.61 L-702.5 -95.76 L-703.5 -95.9 L-704.4 -96.05 L-705.4 -96.19 L-706.4 -96.34 L-707.4 -96.49 L-708.3 -96.63 L-709.3 -96.78 L-710.3 -96.93 L-711.3 -97.07 L-712.2 -97.22 L-713.2 -97.36 L-714.2 -97.51 L-715.2 -97.66 L-716.1 -97.8 L-717.1 -97.95 L-718.1 -98.1 L-719.1 -98.24 L-720 -98.39 L-721 -98.53 L-722 -98.68 L-723 -98.83 Z " />
<path stroke="rgb(0,0,0)" stroke-opacity="1" fill="rgb(255,255,255)" fill-opacity="1" d="M-199.6 287.8 L-198.6 287.8 L-197.6 287.9 L-196.6 288.1 L-195.7 288.4 L-194.8 288.8 L-193.9 289.2 L-193 289.7 L-192.2 290.3 L-191.5 290.9 L-190.8 291.6 L-190.1 292.3 L-189.5 293.1 L-189 293.9 L-188.5 294.8 L-188.1 295.7 L-187.8 296.6 L-187.6 297.6 L-187.4 298.6 L-187.3 299.5 L-187.3 300.5 L-187.4 301.5 L-187.5 302.5 L-187.7 303.4 L-188 304.4 L-188.4 305.3 L-188.9 306.2 L-189.4 307 L-189.9 307.8 L-190.6 308.6 L-191.3 309.3 L-192 309.9 L-192.8 310.5 L-193.7 311 L-194.6 311.4 L-195.5 311.8 L-196.4 312.1 L-197.4 312.3 L-198.3 312.5 L-199.3 312.5 L-200.3 312.5 L-201.3 312.4 L-202.3 312.3 L-203.2 312 L-204.1 311.7 L-205.1 311.3 L-205.9 310.9 L-206.8 310.3 L-207.5 309.7 L-208.3 309.1 L-209 308.4 L-209.6 307.6 L-210.1 306.8 L-210.6 306 L-211.1 305.1 L-211.4 304.1 L-211.7 303.2 L-211.9 302.2 L-212 301.3 L-212.1 300.3 L-212 299.3 L-211.9 298.3 L-211.8 297.3 L-211.5 296.4 L-211.2 295.5 L-210.7 294.6 L-210.3 293.7 L-209.7 292.9 L-209.1 292.1 L-208.4 291.4 L-207.7 290.7 L-206.9 290.1 L-206.1 289.6 L-205.3 289.1 L-204.4 288.7 L-203.4 288.3 L-202.5 288.1 L-201.5 287.9 L-200.5 287.8 L-199.6 287.8 Z " />
<path stroke="rgb(0,0,0)" stroke-opacity="1" fill="rgb(255,255,255)" fill-opacity="1" d="M-515.1 -90.74 L-515.1 -91.72 L-515 -92.71 L-515 -93.7 L-515 -94.68 L-514.9 -95.67 L-514.9 -96.65 L-514.8 -97.64 L-514.8 -98.62 L-514.7 -99.61 L-514.7 -100.6 L-514.7 -101.6 L-514.6 -102.6 L-514.6 -103.5 L-514.5 -104.5 L-514.5 -105.5 L-514.4 -106.5 L-514.4 -107.5 L-514.3 -108.5 L-514.3 -109.5 L-514.3 -110.4 L-514.2 -111.4 L-514.2 -112.4 L-514.1 -113.4 L-514.1 -114.4 L-514 -115.4 L-513.1 -115.3 L-512.1 -115.3 L-511.1 -115.2 L-510.1 -115.2 L-509.1 -115.2 L-508.1 -115.1 L-507.2 -115.1 L-506.2 -115 L-505.2 -115 L-504.2 -114.9 L-503.2 -114.9 L-502.2 -114.9 L-501.2 -114.8 L-500.3 -114.8 L-499.3 -114.7 L-498.3 -114.7 L-497.3 -114.6 L-496.3 -114.6 L-495.3 -114.6 L-494.3 -114.5 L-493.4 -114.5 L-492.4 -114.4 L-491.4 -114.4 L-490.4 -114.3 L-489.4 -114.3 L-489.5 -113.3 L-489.5 -112.3 L-489.5 -111.3 L-489.6 -110.4 L-489.6 -109.4 L-489.7 -108.4 L-489.7 -107.4 L-489.8 -106.4 L-489.8 -105.4 L-489.8 -104.4 L-489.9 -103.5 L-489.9 -102.5 L-490 -101.5 L-490 -100.5 L-490.1 -99.51 L-490.1 -98.53 L-490.2 -97.54 L-490.2 -96.56 L-490.2 -95.57 L-490.3 -94.59 L-490.3 -93.6 L-490.4 -92.62 L-490.4 -91.63 L-490.5 -90.65 L-490.5 -89.66 L-491.5 -89.7 L-492.5 -89.75 L-493.5 -89.79 L-494.4 -89.83 L-495.4 -89.88 L-496.4 -89.92 L-497.4 -89.96 L-498.4 -90.01 L-499.4 -90.05 L-500.3 -90.09 L-501.3 -90.14 L-502.3 -90.18 L-503.3 -90.22 L-504.3 -90.26 L-505.3 -90.31 L-506.3 -90.35 L-507.2 -90.39 L-508.2 -90.44 L-509.2 -90.48 L-510.2 -90.52 L-511.2 -90.57 L-512.2 -90.61 L-513.2 -90.65 L-514.1 -90.7 L-515.1 -90.74 Z " />
<path stroke="rgb(0,0,0)" stroke-opacity="1" fill="rgb(255,255,255)" fill-opacity="1" d="M1.147 287.5 L2.152 287.6 L3.144 287.8 L4.119 288 L5.069 288.4 L5.99 288.8 L6.874 289.3 L7.717 289.8 L8.513 290.5 L9.257 291.1 L9.945 291.9 L10.57 292.7 L11.13 293.5 L11.63 294.4 L12.05 295.3 L12.39 296.3 L12.67 297.2 L12.86 298.2 L12.97 299.2 L13 300.2 L12.96 301.3 L12.83 302.3 L12.62 303.2 L12.34 304.2 L11.98 305.2 L11.54 306.1 L11.04 306.9 L10.47 307.8 L9.829 308.6 L9.131 309.3 L8.378 310 L7.573 310.6 L6.723 311.1 L5.831 311.6 L4.905 312 L3.95 312.3 L2.972 312.6 L1.977 312.8 L0.9711 312.8 L-0.03887 312.9 L-1.047 312.8 L-2.046 312.6 L-3.03 312.4 L-3.994 312.1 L-4.93 311.7 L-5.833 311.3 L-6.697 310.8 L-7.518 310.2 L-8.288 309.5 L-9.005 308.8 L-9.662 308 L-10.26 307.2 L-10.78 306.4 L-11.24 305.5 L-11.63 304.5 L-11.94 303.6 L-12.17 302.6 L-12.32 301.6 L-12.39 300.6 L-12.39 299.6 L-12.3 298.6 L-12.13 297.6 L-11.89 296.6 L-11.56 295.6 L-11.17 294.7 L-10.7 293.8 L-10.16 292.9 L-9.552 292.1 L-8.883 291.4 L-8.157 290.7 L-7.378 290 L-6.549 289.5 L-5.678 289 L-4.769 288.5 L-3.827 288.1 L-2.86 287.9 L-1.872 287.6 L-0.871 287.5 L0.1376 287.5 L1.147 287.5 Z " />
<path stroke="rgb(0,0,0)" stroke-opacity="1" fill="rgb(255,255,255)" fill-opacity="1" d="M-312.7 -88.32 L-312.7 -89.31 L-312.7 -90.29 L-312.7 -91.28 L-312.7 -92.26 L-312.7 -93.25 L-312.7 -94.24 L-312.6 -95.22 L-312.6 -96.21 L-312.6 -97.19 L-312.6 -98.18 L-312.6 -99.17 L-312.6 -100.2 L-312.6 -101.1 L-312.6 -102.1 L-312.6 -103.1 L-312.5 -104.1 L-312.5 -105.1 L-312.5 -106.1 L-312.5 -107.1 L-312.5 -108 L-312.5 -109 L-312.5 -110 L-312.5 -111 L-312.4 -112 L-312.4 -113 L-311.4 -113 L-310.5 -112.9 L-309.5 -112.9 L-308.5 -112.9 L-307.5 -112.9 L-306.5 -112.9 L-305.5 -112.9 L-304.5 -112.9 L-303.6 -112.9 L-302.6 -112.9 L-301.6 -112.8 L-300.6 -112.8 L-299.6 -112.8 L-298.6 -112.8 L-297.6 -112.8 L-296.7 -112.8 L-295.7 -112.8 L-294.7 -112.8 L-293.7 -112.7 L-292.7 -112.7 L-291.7 -112.7 L-290.7 -112.7 L-289.8 -112.7 L-288.8 -112.7 L-287.8 -112.7 L-287.8 -111.7 L-287.8 -110.7 L-287.8 -109.7 L-287.8 -108.7 L-287.8 -107.7 L-287.8 -106.8 L-287.9 -105.8 L-287.9 -104.8 L-287.9 -103.8 L-287.9 -102.8 L-287.9 -101.8 L-287.9 -100.8 L-287.9 -99.86 L-287.9 -98.87 L-288 -97.88 L-288 -96.9 L-288 -95.91 L-288 -94.93 L-288 -93.94 L-288 -92.95 L-288 -91.97 L-288 -90.98 L-288.1 -89.99 L-288.1 -89.01 L-288.1 -88.02 L-289.1 -88.03 L-290 -88.05 L-291 -88.06 L-292 -88.07 L-293 -88.08 L-294 -88.09 L-295 -88.11 L-296 -88.12 L-297 -88.13 L-297.9 -88.14 L-298.9 -88.15 L-299.9 -88.17 L-300.9 -88.18 L-301.9 -88.19 L-302.9 -88.2 L-303.9 -88.21 L-304.8 -88.22 L-305.8 -88.24 L-306.8 -88.25 L-307.8 -88.26 L-308.8 -88.27 L-309.8 -88.28 L-310.8 -88.3 L-311.7 -88.31 L-312.7 -88.32 Z " />
<path stroke="rgb(0,0,0)" stroke-opacity="1" fill="rgb(255,255,255)" fill-opacity="1" d="M209.5 286.9 L210.5 287.7 L211.5 288.6 L212.4 289.5 L213.2 290.5 L213.9 291.6 L214.6 292.7 L215.1 293.9 L215.6 295.1 L215.9 296.3 L216.2 297.6 L216.3 298.8 L216.4 300.1 L216.3 301.4 L216.2 302.7 L215.9 304 L215.6 305.2 L215.1 306.4 L214.6 307.6 L214 308.7 L213.2 309.8 L212.4 310.8 L211.5 311.7 L210.6 312.6 L209.6 313.4 L208.5 314.1 L207.4 314.7 L206.2 315.2 L205 315.6 L203.7 316 L202.5 316.2 L201.2 316.3 L199.9 316.3 L198.6 316.3 L197.3 316.1 L196.1 315.8 L194.9 315.4 L193.7 315 L192.5 314.4 L191.4 313.8 L190.3 313 L189.4 312.2 L188.4 311.3 L187.6 310.3 L186.8 309.3 L186.1 308.2 L185.5 307.1 L185 305.9 L184.6 304.6 L184.3 303.4 L184.1 302.1 L184 300.8 L184 299.6 L184.1 298.3 L184.3 297 L184.6 295.7 L185 294.5 L185.5 293.3 L186.1 292.2 L186.8 291.1 L187.6 290.1 L188.4 289.1 L189.3 288.2 L190.3 287.4 L191.3 286.6 L192.4 286 L193.6 285.4 L194.8 284.9 L196 284.5 L197.3 284.2 L198.6 284.1 L199.8 284 L201.1 284 L202.4 284.1 L203.7 284.4 L204.9 284.7 L206.1 285.1 L207.3 285.6 L208.4 286.2 L209.5 286.9 Z " />
<path stroke="rgb(0,0,0)" stroke-opacity="1" fill="rgb(255,255,255)" fill-opacity="1" d="M-112.6 -88.15 L-112.6 -89.14 L-112.5 -90.13 L-112.5 -91.11 L-112.5 -92.1 L-112.5 -93.09 L-112.5 -94.07 L-112.5 -95.06 L-112.5 -96.04 L-112.5 -97.03 L-112.5 -98.02 L-112.5 -99 L-112.4 -99.99 L-112.4 -101 L-112.4 -102 L-112.4 -102.9 L-112.4 -103.9 L-112.4 -104.9 L-112.4 -105.9 L-112.4 -106.9 L-112.4 -107.9 L-112.4 -108.9 L-112.4 -109.8 L-112.3 -110.8 L-112.3 -111.8 L-112.3 -112.8 L-111.3 -112.8 L-110.3 -112.8 L-109.4 -112.8 L-108.4 -112.8 L-107.4 -112.8 L-106.4 -112.7 L-105.4 -112.7 L-104.4 -112.7 L-103.4 -112.7 L-102.5 -112.7 L-101.5 -112.7 L-100.5 -112.7 L-99.5 -112.7 L-98.51 -112.7 L-97.53 -112.7 L-96.54 -112.7 L-95.56 -112.6 L-94.57 -112.6 L-93.58 -112.6 L-92.6 -112.6 L-91.61 -112.6 L-90.63 -112.6 L-89.64 -112.6 L-88.65 -112.6 L-87.67 -112.6 L-87.68 -111.6 L-87.69 -110.6 L-87.7 -109.6 L-87.71 -108.6 L-87.72 -107.6 L-87.73 -106.6 L-87.74 -105.7 L-87.74 -104.7 L-87.75 -103.7 L-87.76 -102.7 L-87.77 -101.7 L-87.78 -100.7 L-87.79 -99.75 L-87.8 -98.76 L-87.81 -97.77 L-87.82 -96.79 L-87.83 -95.8 L-87.84 -94.81 L-87.85 -93.83 L-87.86 -92.84 L-87.87 -91.86 L-87.88 -90.87 L-87.89 -89.88 L-87.9 -88.9 L-87.91 -87.91 L-88.9 -87.92 L-89.88 -87.93 L-90.87 -87.94 L-91.85 -87.95 L-92.84 -87.96 L-93.83 -87.97 L-94.81 -87.98 L-95.8 -87.99 L-96.79 -88 L-97.77 -88.01 L-98.76 -88.02 L-99.74 -88.03 L-100.7 -88.04 L-101.7 -88.05 L-102.7 -88.06 L-103.7 -88.07 L-104.7 -88.08 L-105.7 -88.09 L-106.6 -88.1 L-107.6 -88.11 L-108.6 -88.12 L-109.6 -88.13 L-110.6 -88.13 L-111.6 -88.14 L-112.6 -88.15 Z " />
</g>
</g>
</svg>
