<!DOCTYPE svg>
<svg xmlns="http://www.w3.org/2000/svg" xmlns:xlink="http://www.w3.org/1999/xlink" width="1000" height="1000">
<g transform="translate(500.000000,500.000000)">
<g transform="scale(3.000000,3.000000)">
<path stroke="rgb(0,0,0)" stroke-opacity="1" fill="rgb(255,255,255)" fill-opacity="1" d="M-375.5 -424.9 L-375.5 -422.9 L-375.5 -420.9 L-375.5 -418.9 L-375.5 -416.9 L-375.5 -414.9 L-375.5 -412.9 L-375.6 -410.9 L-375.6 -408.9 L-375.6 -406.9 L-375.6 -404.9 L-375.6 -402.9 L-375.6 -400.9 L-375.6 -398.9 L-375.6 -397 L-375.6 -395 L-375.6 -393 L-375.6 -391 L-375.6 -389 L-375.6 -387 L-375.6 -385 L-375.6 -383 L-375.6 -381 L-375.6 -379 L-375.6 -377 L-375.6 -375 L-377.6 -375 L-379.6 -375 L-381.6 -375 L-383.6 -375 L-385.6 -375 L-387.6 -375.1 L-389.6 -375.1 L-391.6 -375.1 L-393.6 -375.1 L-395.6 -375.1 L-397.6 -375.1 L-399.5 -375.1 L-401.5 -375.1 L-403.5 -375.1 L-405.5 -375.1 L-407.5 -375.1 L-409.5 -375.1 L-411.5 -375.1 L-413.5 -375.1 L-415.5 -375.1 L-417.5 -375.1 L-419.5 -375.1 L-421.5 -375.1 L-423.5 -375.1 L-425.5 -375.1 L-425.5 -377.1 L-425.5 -379.1 L-425.5 -381.1 L-425.4 -383.1 L-425.4 -385.1 L-425.4 -387.1 L-425.4 -389.1 L-425.4 -391.1 L-425.4 -393.1 L-425.4 -395.1 L-425.4 -397.1 L-425.4 -399.1 L-425.4 -401 L-425.4 -403 L-425.4 -405 L-425.4 -407 L-425.4 -409 L-425.4 -411 L-425.4 -413 L-425.4 -415 L-425.4 -417 L-425.4 -419 L-425.4 -421 L-425.4 -423 L-425.4 -425 L-423.4 -425 L-421.4 -425 L-419.4 -425 L-417.4 -425 L-415.4 -425 L-413.4 -424.9 L-411.4 -424.9 L-409.4 -424.9 L-407.4 -424.9 L-405.4 -424.9 L-403.4 -424.9 L-401.4 -424.9 L-399.4 -424.9 L-397.4 -424.9 L-395.5 -424.9 L-393.5 -424.9 L-391.5 -424.9 L-389.5 -424.9 L-387.5 -424.9 L-385.5 -424.9 L-383.5 -424.9 L-381.5 -424.9 L-379.5 -424.9 L-377.5 -424.9 L-375.5 -424.9 Z " />
<path stroke="rgb(0,0,0)" stroke-opacity="0.675" fill="rgb(255,255,255)" fill-opacity="1" d="M-175 -299.9 L-175.1 -298 L-175.4 -296 L-175.8 -294.1 L-176.3 -292.1 L-177 -290.3 L-177.9 -288.5 L-178.8 -286.8 L-180 -285.1 L-181.2 -283.6 L-182.6 -282.1 L-184 -280.8 L-185.6 -279.6 L-187.3 -278.5 L-189 -277.6 L-190.8 -276.8 L-192.7 -276.1 L-194.6 -275.6 L-196.6 -275.3 L-198.6 -275.1 L-200.5 -275.1 L-202.5 -275.2 L-204.5 -275.5 L-206.4 -275.9 L-208.3 -276.5 L-210.2 -277.2 L-211.9 -278.1 L-213.6 -279.1 L-215.3 -280.3 L-216.8 -281.5 L-218.2 -282.9 L-219.5 -284.4 L-220.7 -286 L-221.7 -287.7 L-222.6 -289.5 L-223.4 -291.3 L-224 -293.2 L-224.5 -295.1 L-224.8 -297.1 L-224.9 -299.1 L-224.9 -301 L-224.8 -303 L-224.4 -305 L-224 -306.9 L-223.3 -308.8 L-222.6 -310.6 L-221.7 -312.4 L-220.6 -314.1 L-219.4 -315.7 L-218.1 -317.1 L-216.7 -318.5 L-215.2 -319.8 L-213.6 -320.9 L-211.8 -322 L-210.1 -322.8 L-208.2 -323.6 L-206.3 -324.1 L-204.4 -324.6 L-202.4 -324.8 L-200.4 -324.9 L-198.5 -324.9 L-196.5 -324.7 L-194.5 -324.3 L-192.6 -323.8 L-190.7 -323.2 L-188.9 -322.4 L-187.2 -321.4 L-185.5 -320.3 L-184 -319.1 L-182.5 -317.8 L-181.1 -316.3 L-179.9 -314.8 L-178.8 -313.1 L-177.8 -311.4 L-177 -309.6 L-176.3 -307.8 L-175.7 -305.8 L-175.4 -303.9 L-175.1 -301.9 L-175 -299.9 Z " />
<path stroke="rgb(0,0,0)" stroke-opacity="1" fill="rgb(255,255,255)" fill-opacity="1" d="M-175.5 -424.9 L-175.5 -422.9 L-175.5 -420.9 L-175.5 -418.9 L-175.5 -416.9 L-175.5 -414.9 L-175.5 -412.9 L-175.6 -410.9 L-175.6 -408.9 L-175.6 -406.9 L-175.6 -404.9 L-175.6 -402.9 L-175.6 -400.9 L-175.6 -398.9 L-175.6 -397 L-175.6 -395 L-175.6 -393 L-175.6 -391 L-175.6 -389 L-175.6 -387 L-175.6 -385 L-175.6 -383 L-175.6 -381 L-175.6 -379 L-175.6 -377 L-175.6 -375 L-177.6 -375 L-179.6 -375 L-181.6 -375 L-183.6 -375 L-185.6 -375 L-187.6 -375.1 L-189.6 -375.1 L-191.6 -375.1 L-193.6 -375.1 L-195.6 -375.1 L-197.6 -375.1 L-199.5 -375.1 L-201.5 -375.1 L-203.5 -375.1 L-205.5 -375.1 L-207.5 -375.1 L-209.5 -375.1 L-211.5 -375.1 L-213.5 -375.1 L-215.5 -375.1 L-217.5 -375.1 L-219.5 -375.1 L-221.5 -375.1 L-223.5 -375.1 L-225.5 -375.1 L-225.5 -377.1 L-225.5 -379.1 L-225.5 -381.1 L-225.4 -383.1 L-225.4 -385.1 L-225.4 -387.1 L-225.4 -389.1 L-225.4 -391.1 L-225.4 -393.1 L-225.4 -395.1 L-225.4 -397.1 L-225.4 -399.1 L-225.4 -401 L-225.4 -403 L-225.4 -405 L-225.4 -407 L-225.4 -409 L-225.4 -411 L-225.4 -413 L-225.4 -415 L-225.4 -417 L-225.4 -419 L-225.4 -421 L-225.4 -423 L-225.4 -425 L-223.4 -425 L-221.4 -425 L-219.4 -425 L-217.4 -425 L-215.4 -425 L-213.4 -424.9 L-211.4 -424.9 L-209.4 -424.9 L-207.4 -424.9 L-205.4 -424.9 L-203.4 -424.9 L-201.4 -424.9 L-199.4 -424.9 L-197.4 -424.9 L-195.5 -424.9 L-193.5 -424.9 L-191.5 -424.9 L-189.5 -424.9 L-187.5 -424.9 L-185.5 -424.9 L-183.5 -424.9 L-181.5 -424.9 L-179.5 -424.9 L-177.5 -424.9 L-175.5 -424.9 Z " />
<path stroke="rgb(0,0,0)" stroke-opacity="0.675" fill="rgb(255,255,255)" fill-opacity="1" d="M24.95 -299.9 L24.87 -298 L24.63 -296 L24.23 -294.1 L23.68 -292.1 L22.98 -290.3 L22.14 -288.5 L21.15 -286.8 L20.04 -285.1 L18.79 -283.6 L17.43 -282.1 L15.95 -280.8 L14.38 -279.6 L12.71 -278.5 L10.97 -277.6 L9.153 -276.8 L7.28 -276.1 L5.361 -275.6 L3.408 -275.3 L1.434 -275.1 L-0.5499 -275.1 L-2.53 -275.2 L-4.494 -275.5 L-6.43 -275.9 L-8.325 -276.5 L-10.17 -277.2 L-11.95 -278.1 L-13.65 -279.1 L-15.26 -280.3 L-16.78 -281.5 L-18.2 -282.9 L-19.5 -284.4 L-20.67 -286 L-21.72 -287.7 L-22.62 -289.5 L-23.39 -291.3 L-24 -293.2 L-24.47 -295.1 L-24.78 -297.1 L-24.93 -299.1 L-24.93 -301 L-24.77 -303 L-24.45 -305 L-23.97 -306.9 L-23.35 -308.8 L-22.58 -310.6 L-21.66 -312.4 L-20.61 -314.1 L-19.43 -315.7 L-18.12 -317.1 L-16.7 -318.5 L-15.18 -319.8 L-13.56 -320.9 L-11.85 -322 L-10.07 -322.8 L-8.222 -323.6 L-6.324 -324.1 L-4.387 -324.6 L-2.422 -324.8 L-0.441 -324.9 L1.542 -324.9 L3.516 -324.7 L5.467 -324.3 L7.384 -323.8 L9.254 -323.2 L11.07 -322.4 L12.81 -321.4 L14.47 -320.3 L16.04 -319.1 L17.51 -317.8 L18.86 -316.3 L20.1 -314.8 L21.21 -313.1 L22.19 -311.4 L23.02 -309.6 L23.72 -307.8 L24.26 -305.8 L24.64 -303.9 L24.88 -301.9 L24.95 -299.9 Z " />
<path stroke="rgb(0,0,0)" stroke-opacity="1" fill="rgb(255,255,255)" fill-opacity="1" d="M22.36 -425.6 L22.47 -423.7 L22.58 -421.7 L22.7 -419.8 L22.81 -417.9 L22.92 -415.9 L23.03 -414 L23.14 -412.1 L23.26 -410.1 L23.37 -408.2 L23.48 -406.2 L23.59 -404.3 L23.7 -402.4 L23.82 -400.4 L23.93 -398.5 L24.04 -396.5 L24.15 -394.6 L24.26 -392.7 L24.38 -390.7 L24.49 -388.8 L24.6 -386.9 L24.71 -384.9 L24.82 -383 L24.93 -381 L25.05 -379.1 L25.16 -377.2 L23.22 -377 L21.28 -376.9 L19.34 -376.8 L17.4 -376.7 L15.47 -376.6 L13.53 -376.5 L11.59 -376.4 L9.651 -376.3 L7.713 -376.2 L5.774 -376 L3.836 -375.9 L1.897 -375.8 L-0.04128 -375.7 L-1.98 -375.6 L-3.918 -375.5 L-5.857 -375.4 L-7.795 -375.3 L-9.734 -375.1 L-11.67 -375 L-13.61 -374.9 L-15.55 -374.8 L-17.49 -374.7 L-19.43 -374.6 L-21.36 -374.5 L-23.3 -374.4 L-23.41 -376.3 L-23.53 -378.2 L-23.64 -380.2 L-23.75 -382.1 L-23.86 -384.1 L-23.97 -386 L-24.09 -387.9 L-24.2 -389.9 L-24.31 -391.8 L-24.42 -393.7 L-24.53 -395.7 L-24.65 -397.6 L-24.76 -399.6 L-24.87 -401.5 L-24.98 -403.4 L-25.09 -405.4 L-25.21 -407.3 L-25.32 -409.3 L-25.43 -411.2 L-25.54 -413.1 L-25.65 -415.1 L-25.77 -417 L-25.88 -418.9 L-25.99 -420.9 L-26.1 -422.8 L-24.16 -422.9 L-22.22 -423 L-20.29 -423.2 L-18.35 -423.3 L-16.41 -423.4 L-14.47 -423.5 L-12.53 -423.6 L-10.59 -423.7 L-8.655 -423.8 L-6.717 -423.9 L-4.778 -424.1 L-2.84 -424.2 L-0.9016 -424.3 L1.037 -424.4 L2.975 -424.5 L4.914 -424.6 L6.852 -424.7 L8.791 -424.8 L10.73 -425 L12.67 -425.1 L14.61 -425.2 L16.54 -425.3 L18.48 -425.4 L20.42 -425.5 L22.36 -425.6 Z " />
<path stroke="rgb(0,0,0)" stroke-opacity="0.675" fill="rgb(255,255,255)" fill-opacity="1" d="M225 -299.9 L224.9 -298 L224.6 -296 L224.2 -294.1 L223.7 -292.1 L223 -290.3 L222.1 -288.5 L221.2 -286.8 L220 -285.1 L218.8 -283.6 L217.4 -282.1 L216 -280.8 L214.4 -279.6 L212.7 -278.5 L211 -277.6 L209.2 -276.8 L207.3 -276.1 L205.4 -275.6 L203.4 -275.3 L201.4 -275.1 L199.5 -275.1 L197.5 -275.2 L195.5 -275.5 L193.6 -275.9 L191.7 -276.5 L189.8 -277.2 L188.1 -278.1 L186.4 -279.1 L184.7 -280.3 L183.2 -281.5 L181.8 -282.9 L180.5 -284.4 L179.3 -286 L178.3 -287.7 L177.4 -289.5 L176.6 -291.3 L176 -293.2 L175.5 -295.1 L175.2 -297.1 L175.1 -299.1 L175.1 -301 L175.2 -303 L175.6 -305 L176 -306.9 L176.7 -308.8 L177.4 -310.6 L178.3 -312.4 L179.4 -314.1 L180.6 -315.7 L181.9 -317.1 L183.3 -318.5 L184.8 -319.8 L186.4 -320.9 L188.2 -322 L189.9 -322.8 L191.8 -323.6 L193.7 -324.1 L195.6 -324.6 L197.6 -324.8 L199.6 -324.9 L201.5 -324.9 L203.5 -324.7 L205.5 -324.3 L207.4 -323.8 L209.3 -323.2 L211.1 -322.4 L212.8 -321.4 L214.5 -320.3 L216 -319.1 L217.5 -317.8 L218.9 -316.3 L220.1 -314.8 L221.2 -313.1 L222.2 -311.4 L223 -309.6 L223.7 -307.8 L224.3 -305.8 L224.6 -303.9 L224.9 -301.9 L225 -299.9 Z " />
<path stroke="rgb(0,0,0)" stroke-opacity="1" fill="rgb(255,255,255)" fill-opacity="1" d="M211.3 -427.3 L211.9 -425.8 L212.6 -424.2 L213.2 -422.7 L213.8 -421.1 L214.5 -419.5 L215.1 -418 L215.7 -416.4 L216.3 -414.8 L217 -413.3 L217.6 -411.7 L218.2 -410.2 L218.8 -408.6 L219.5 -407 L220.1 -405.5 L220.7 -403.9 L221.4 -402.4 L222 -400.8 L222.6 -399.2 L223.2 -397.7 L223.9 -396.1 L224.5 -394.5 L225.1 -393 L225.8 -391.4 L226.4 -389.9 L227 -388.3 L225.4 -387.7 L223.9 -387 L222.3 -386.4 L220.8 -385.8 L219.2 -385.2 L217.6 -384.5 L216.1 -383.9 L214.5 -383.3 L213 -382.6 L211.4 -382 L209.8 -381.4 L208.3 -380.8 L206.7 -380.1 L205.1 -379.5 L203.6 -378.9 L202 -378.3 L200.5 -377.6 L198.9 -377 L197.3 -376.4 L195.8 -375.7 L194.2 -375.1 L192.6 -374.5 L191.1 -373.9 L189.5 -373.2 L188 -372.6 L187.3 -374.2 L186.7 -375.7 L186.1 -377.3 L185.4 -378.9 L184.8 -380.4 L184.2 -382 L183.6 -383.5 L182.9 -385.1 L182.3 -386.7 L181.7 -388.2 L181.1 -389.8 L180.4 -391.3 L179.8 -392.9 L179.2 -394.5 L178.5 -396 L177.9 -397.6 L177.3 -399.2 L176.7 -400.7 L176 -402.3 L175.4 -403.8 L174.8 -405.4 L174.2 -407 L173.5 -408.5 L172.9 -410.1 L172.3 -411.7 L173.8 -412.3 L175.4 -412.9 L177 -413.5 L178.5 -414.2 L180.1 -414.8 L181.6 -415.4 L183.2 -416 L184.8 -416.7 L186.3 -417.3 L187.9 -417.9 L189.5 -418.6 L191 -419.2 L192.6 -419.8 L194.1 -420.4 L195.7 -421.1 L197.3 -421.7 L198.8 -422.3 L200.4 -422.9 L201.9 -423.6 L203.5 -424.2 L205.1 -424.8 L206.6 -425.5 L208.2 -426.1 L209.8 -426.7 L211.3 -427.3 Z " />
<path stroke="rgb(0,0,0)" stroke-opacity="0.675" fill="rgb(255,255,255)" fill-opacity="1" d="M-275 -199.9 L-275.1 -198 L-275.4 -196 L-275.8 -194.1 L-276.3 -192.1 L-277 -190.3 L-277.9 -188.5 L-278.8 -186.8 L-280 -185.1 L-281.2 -183.6 L-282.6 -182.1 L-284 -180.8 L-285.6 -179.6 L-287.3 -178.5 L-289 -177.6 L-290.8 -176.8 L-292.7 -176.1 L-294.6 -175.6 L-296.6 -175.3 L-298.6 -175.1 L-300.5 -175.1 L-302.5 -175.2 L-304.5 -175.5 L-306.4 -175.9 L-308.3 -176.5 L-310.2 -177.2 L-311.9 -178.1 L-313.6 -179.1 L-315.3 -180.3 L-316.8 -181.5 L-318.2 -182.9 L-319.5 -184.4 L-320.7 -186 L-321.7 -187.7 L-322.6 -189.5 L-323.4 -191.3 L-324 -193.2 L-324.5 -195.1 L-324.8 -197.1 L-324.9 -199.1 L-324.9 -201 L-324.8 -203 L-324.4 -205 L-324 -206.9 L-323.3 -208.8 L-322.6 -210.6 L-321.7 -212.4 L-320.6 -214.1 L-319.4 -215.7 L-318.1 -217.1 L-316.7 -218.5 L-315.2 -219.8 L-313.6 -220.9 L-311.8 -222 L-310.1 -222.8 L-308.2 -223.6 L-306.3 -224.1 L-304.4 -224.6 L-302.4 -224.8 L-300.4 -224.9 L-298.5 -224.9 L-296.5 -224.7 L-294.5 -224.3 L-292.6 -223.8 L-290.7 -223.2 L-288.9 -222.4 L-287.2 -221.4 L-285.5 -220.3 L-284 -219.1 L-282.5 -217.8 L-281.1 -216.3 L-279.9 -214.8 L-278.8 -213.1 L-277.8 -211.4 L-277 -209.6 L-276.3 -207.8 L-275.7 -205.8 L-275.4 -203.9 L-275.1 -201.9 L-275 -199.9 Z " />
<path stroke="rgb(0,0,0)" stroke-opacity="1" fill="rgb(255,255,255)" fill-opacity="1" d="M-275.5 -324.9 L-275.5 -322.9 L-275.5 -320.9 L-275.5 -318.9 L-275.5 -316.9 L-275.5 -314.9 L-275.5 -312.9 L-275.6 -310.9 L-275.6 -308.9 L-275.6 -306.9 L-275.6 -304.9 L-275.6 -302.9 L-275.6 -300.9 L-275.6 -298.9 L-275.6 -297 L-275.6 -295 L-275.6 -293 L-275.6 -291 L-275.6 -289 L-275.6 -287 L-275.6 -285 L-275.6 -283 L-275.6 -281 L-275.6 -279 L-275.6 -277 L-275.6 -275 L-277.6 -275 L-279.6 -275 L-281.6 -275 L-283.6 -275 L-285.6 -275 L-287.6 -275.1 L-289.6 -275.1 L-291.6 -275.1 L-293.6 -275.1 L-295.6 -275.1 L-297.6 -275.1 L-299.5 -275.1 L-301.5 -275.1 L-303.5 -275.1 L-305.5 -275.1 L-307.5 -275.1 L-309.5 -275.1 L-311.5 -275.1 L-313.5 -275.1 L-315.5 -275.1 L-317.5 -275.1 L-319.5 -275.1 L-321.5 -275.1 L-323.5 -275.1 L-325.5 -275.1 L-325.5 -277.1 L-325.5 -279.1 L-325.5 -281.1 L-325.4 -283.1 L-325.4 -285.1 L-325.4 -287.1 L-325.4 -289.1 L-325.4 -291.1 L-325.4 -293.1 L-325.4 -295.1 L-325.4 -297.1 L-325.4 -299.1 L-325.4 -301 L-325.4 -303 L-325.4 -305 L-325.4 -307 L-325.4 -309 L-325.4 -311 L-325.4 -313 L-325.4 -315 L-325.4 -317 L-325.4 -319 L-325.4 -321 L-325.4 -323 L-325.4 -325 L-323.4 -325 L-321.4 -325 L-319.4 -325 L-317.4 -325 L-315.4 -325 L-313.4 -324.9 L-311.4 -324.9 L-309.4 -324.9 L-307.4 -324.9 L-305.4 -324.9 L-303.4 -324.9 L-301.4 -324.9 L-299.4 -324.9 L-297.4 -324.9 L-295.5 -324.9 L-293.5 -324.9 L-291.5 -324.9 L-289.5 -324.9 L-287.5 -324.9 L-285.5 -324.9 L-283.5 -324.9 L-281.5 -324.9 L-279.5 -324.9 L-277.5 -324.9 L-275.5 -324.9 Z " />
<path stroke="rgb(0,0,0)" stroke-opacity="0.675" fill="rgb(255,255,255)" fill-opacity="1" d="M-75.05 -199.9 L-75.13 -198 L-75.37 -196 L-75.77 -194.1 L-76.32 -192.1 L-77.02 -190.3 L-77.86 -188.5 L-78.85 -186.8 L-79.96 -185.1 L-81.21 -183.6 L-82.57 -182.1 L-84.05 -180.8 L-85.62 -179.6 L-87.29 -178.5 L-89.03 -177.6 L-90.85 -176.8 L-92.72 -176.1 L-94.64 -175.6 L-96.59 -175.3 L-98.57 -175.1 L-100.5 -175.1 L-102.5 -175.2 L-104.5 -175.5 L-106.4 -175.9 L-108.3 -176.5 L-110.2 -177.2 L-111.9 -178.1 L-113.6 -179.1 L-115.3 -180.3 L-116.8 -181.5 L-118.2 -182.9 L-119.5 -184.4 L-120.7 -186 L-121.7 -187.7 L-122.6 -189.5 L-123.4 -191.3 L-124 -193.2 L-124.5 -195.1 L-124.8 -197.1 L-124.9 -199.1 L-124.9 -201 L-124.8 -203 L-124.4 -205 L-124 -206.9 L-123.3 -208.8 L-122.6 -210.6 L-121.7 -212.4 L-120.6 -214.1 L-119.4 -215.7 L-118.1 -217.1 L-116.7 -218.5 L-115.2 -219.8 L-113.6 -220.9 L-111.8 -222 L-110.1 -222.8 L-108.2 -223.6 L-106.3 -224.1 L-104.4 -224.6 L-102.4 -224.8 L-100.4 -224.9 L-98.46 -224.9 L-96.48 -224.7 L-94.53 -224.3 L-92.62 -223.8 L-90.75 -223.2 L-88.93 -222.4 L-87.19 -221.4 L-85.53 -220.3 L-83.96 -219.1 L-82.49 -217.8 L-81.14 -216.3 L-79.9 -214.8 L-78.79 -213.1 L-77.81 -211.4 L-76.98 -209.6 L-76.28 -207.8 L-75.74 -205.8 L-75.36 -203.9 L-75.12 -201.9 L-75.05 -199.9 Z " />
<path stroke="rgb(0,0,0)" stroke-opacity="1" fill="rgb(255,255,255)" fill-opacity="1" d="M-77.64 -325.6 L-77.53 -323.7 L-77.42 -321.7 L-77.3 -319.8 L-77.19 -317.9 L-77.08 -315.9 L-76.97 -314 L-76.86 -312.1 L-76.74 -310.1 L-76.63 -308.2 L-76.52 -306.2 L-76.41 -304.3 L-76.3 -302.4 L-76.18 -300.4 L-76.07 -298.5 L-75.96 -296.5 L-75.85 -294.6 L-75.74 -292.7 L-75.62 -290.7 L-75.51 -288.8 L-75.4 -286.9 L-75.29 -284.9 L-75.18 -283 L-75.07 -281 L-74.95 -279.1 L-74.84 -277.2 L-76.78 -277 L-78.72 -276.9 L-80.66 -276.8 L-82.6 -276.7 L-84.53 -276.6 L-86.47 -276.5 L-88.41 -276.4 L-90.35 -276.3 L-92.29 -276.2 L-94.23 -276 L-96.16 -275.9 L-98.1 -275.8 L-100 -275.7 L-102 -275.6 L-103.9 -275.5 L-105.9 -275.4 L-107.8 -275.3 L-109.7 -275.1 L-111.7 -275 L-113.6 -274.9 L-115.5 -274.8 L-117.5 -274.7 L-119.4 -274.6 L-121.4 -274.5 L-123.3 -274.4 L-123.4 -276.3 L-123.5 -278.2 L-123.6 -280.2 L-123.8 -282.1 L-123.9 -284.1 L-124 -286 L-124.1 -287.9 L-124.2 -289.9 L-124.3 -291.8 L-124.4 -293.7 L-124.5 -295.7 L-124.6 -297.6 L-124.8 -299.6 L-124.9 -301.5 L-125 -303.4 L-125.1 -305.4 L-125.2 -307.3 L-125.3 -309.3 L-125.4 -311.2 L-125.5 -313.1 L-125.7 -315.1 L-125.8 -317 L-125.9 -318.9 L-126 -320.9 L-126.1 -322.8 L-124.2 -322.9 L-122.2 -323 L-120.3 -323.2 L-118.3 -323.3 L-116.4 -323.4 L-114.5 -323.5 L-112.5 -323.6 L-110.6 -323.7 L-108.7 -323.8 L-106.7 -323.9 L-104.8 -324.1 L-102.8 -324.2 L-100.9 -324.3 L-98.96 -324.4 L-97.02 -324.5 L-95.09 -324.6 L-93.15 -324.7 L-91.21 -324.8 L-89.27 -325 L-87.33 -325.1 L-85.39 -325.2 L-83.46 -325.3 L-81.52 -325.4 L-79.58 -325.5 L-77.64 -325.6 Z " />
<path stroke="rgb(0,0,0)" stroke-opacity="0.675" fill="rgb(255,255,255)" fill-opacity="1" d="M125 -199.9 L124.9 -198 L124.6 -196 L124.2 -194.1 L123.7 -192.1 L123 -190.3 L122.1 -188.5 L121.2 -186.8 L120 -185.1 L118.8 -183.6 L117.4 -182.1 L116 -180.8 L114.4 -179.6 L112.7 -178.5 L111 -177.6 L109.2 -176.8 L107.3 -176.1 L105.4 -175.6 L103.4 -175.3 L101.4 -175.1 L99.45 -175.1 L97.47 -175.2 L95.51 -175.5 L93.57 -175.9 L91.68 -176.5 L89.83 -177.2 L88.05 -178.1 L86.35 -179.1 L84.74 -180.3 L83.22 -181.5 L81.8 -182.9 L80.5 -184.4 L79.33 -186 L78.28 -187.7 L77.38 -189.5 L76.61 -191.3 L76 -193.2 L75.53 -195.1 L75.22 -197.1 L75.07 -199.1 L75.07 -201 L75.23 -203 L75.55 -205 L76.03 -206.9 L76.65 -208.8 L77.42 -210.6 L78.34 -212.4 L79.39 -214.1 L80.57 -215.7 L81.88 -217.1 L83.3 -218.5 L84.82 -219.8 L86.44 -220.9 L88.15 -222 L89.93 -222.8 L91.78 -223.6 L93.68 -224.1 L95.61 -224.6 L97.58 -224.8 L99.56 -224.9 L101.5 -224.9 L103.5 -224.7 L105.5 -224.3 L107.4 -223.8 L109.3 -223.2 L111.1 -222.4 L112.8 -221.4 L114.5 -220.3 L116 -219.1 L117.5 -217.8 L118.9 -216.3 L120.1 -214.8 L121.2 -213.1 L122.2 -211.4 L123 -209.6 L123.7 -207.8 L124.3 -205.8 L124.6 -203.9 L124.9 -201.9 L125 -199.9 Z " />
<path stroke="rgb(0,0,0)" stroke-opacity="1" fill="rgb(255,255,255)" fill-opacity="1" d="M111.3 -327.3 L111.9 -325.8 L112.6 -324.2 L113.2 -322.7 L113.8 -321.1 L114.5 -319.5 L115.1 -318 L115.7 -316.4 L116.3 -314.8 L117 -313.3 L117.6 -311.7 L118.2 -310.2 L118.8 -308.6 L119.5 -307 L120.1 -305.5 L120.7 -303.9 L121.4 -302.4 L122 -300.8 L122.6 -299.2 L123.2 -297.7 L123.9 -296.1 L124.5 -294.5 L125.1 -293 L125.8 -291.4 L126.4 -289.9 L127 -288.3 L125.4 -287.7 L123.9 -287 L122.3 -286.4 L120.8 -285.8 L119.2 -285.2 L117.6 -284.5 L116.1 -283.9 L114.5 -283.3 L113 -282.6 L111.4 -282 L109.8 -281.4 L108.3 -280.8 L106.7 -280.1 L105.1 -279.5 L103.6 -278.9 L102 -278.3 L100.5 -277.6 L98.89 -277 L97.33 -276.4 L95.77 -275.7 L94.21 -275.1 L92.65 -274.5 L91.08 -273.9 L89.52 -273.2 L87.96 -272.6 L87.33 -274.2 L86.71 -275.7 L86.08 -277.3 L85.45 -278.9 L84.82 -280.4 L84.19 -282 L83.57 -283.5 L82.94 -285.1 L82.31 -286.7 L81.68 -288.2 L81.06 -289.8 L80.43 -291.3 L79.8 -292.9 L79.17 -294.5 L78.55 -296 L77.92 -297.6 L77.29 -299.2 L76.66 -300.7 L76.04 -302.3 L75.41 -303.8 L74.78 -305.4 L74.15 -307 L73.53 -308.5 L72.9 -310.1 L72.27 -311.7 L73.83 -312.3 L75.39 -312.9 L76.96 -313.5 L78.52 -314.2 L80.08 -314.8 L81.64 -315.4 L83.2 -316 L84.77 -316.7 L86.33 -317.3 L87.89 -317.9 L89.45 -318.6 L91.01 -319.2 L92.58 -319.8 L94.14 -320.4 L95.7 -321.1 L97.26 -321.7 L98.82 -322.3 L100.4 -322.9 L101.9 -323.6 L103.5 -324.2 L105.1 -324.8 L106.6 -325.5 L108.2 -326.1 L109.8 -326.7 L111.3 -327.3 Z " />
<path stroke="rgb(0,0,0)" stroke-opacity="0.675" fill="rgb(255,255,255)" fill-opacity="1" d="M325 -199.9 L324.9 -198 L324.6 -196 L324.2 -194.1 L323.7 -192.1 L323 -190.3 L322.1 -188.5 L321.2 -186.8 L320 -185.1 L318.8 -183.6 L317.4 -182.1 L316 -180.8 L314.4 -179.6 L312.7 -178.5 L311 -177.6 L309.2 -176.8 L307.3 -176.1 L305.4 -175.6 L303.4 -175.3 L301.4 -175.1 L299.5 -175.1 L297.5 -175.2 L295.5 -175.5 L293.6 -175.9 L291.7 -176.5 L289.8 -177.2 L288.1 -178.1 L286.4 -179.1 L284.7 -180.3 L283.2 -181.5 L281.8 -182.9 L280.5 -184.4 L279.3 -186 L278.3 -187.7 L277.4 -189.5 L276.6 -191.3 L276 -193.2 L275.5 -195.1 L275.2 -197.1 L275.1 -199.1 L275.1 -201 L275.2 -203 L275.6 -205 L276 -206.9 L276.7 -208.8 L277.4 -210.6 L278.3 -212.4 L279.4 -214.1 L280.6 -215.7 L281.9 -217.1 L283.3 -218.5 L284.8 -219.8 L286.4 -220.9 L288.2 -222 L289.9 -222.8 L291.8 -223.6 L293.7 -224.1 L295.6 -224.6 L297.6 -224.8 L299.6 -224.9 L301.5 -224.9 L303.5 -224.7 L305.5 -224.3 L307.4 -223.8 L309.3 -223.2 L311.1 -222.4 L312.8 -221.4 L314.5 -220.3 L316 -219.1 L317.5 -217.8 L318.9 -216.3 L320.1 -214.8 L321.2 -213.1 L322.2 -211.4 L323 -209.6 L323.7 -207.8 L324.3 -205.8 L324.6 -203.9 L324.9 -201.9 L325 -199.9 Z " />
<path stroke="rgb(0,0,0)" stroke-opacity="1" fill="rgb(255,255,255)" fill-opacity="1" d="M-375.5 -224.9 L-375.5 -222.9 L-375.5 -220.9 L-375.5 -218.9 L-375.5 -216.9 L-375.5 -214.9 L-375.5 -212.9 L-375.6 -210.9 L-375.6 -208.9 L-375.6 -206.9 L-375.6 -204.9 L-375.6 -202.9 L-375.6 -200.9 L-375.6 -198.9 L-375.6 -197 L-375.6 -195 L-375.6 -193 L-375.6 -191 L-375.6 -189 L-375.6 -187 L-375.6 -185 L-375.6 -183 L-375.6 -181 L-375.6 -179 L-375.6 -177 L-375.6 -175 L-377.6 -175 L-379.6 -175 L-381.6 -175 L-383.6 -175 L-385.6 -175 L-387.6 -175.1 L-389.6 -175.1 L-391.6 -175.1 L-393.6 -175.1 L-395.6 -175.1 L-397.6 -175.1 L-399.5 -175.1 L-401.5 -175.1 L-403.5 -175.1 L-405.5 -175.1 L-407.5 -175.1 L-409.5 -175.1 L-411.5 -175.1 L-413.5 -175.1 L-415.5 -175.1 L-417.5 -175.1 L-419.5 -175.1 L-421.5 -175.1 L-423.5 -175.1 L-425.5 -175.1 L-425.5 -177.1 L-425.5 -179.1 L-425.5 -181.1 L-425.4 -183.1 L-425.4 -185.1 L-425.4 -187.1 L-425.4 -189.1 L-425.4 -191.1 L-425.4 -193.1 L-425.4 -195.1 L-425.4 -197.1 L-425.4 -199.1 L-425.4 -201 L-425.4 -203 L-425.4 -205 L-425.4 -207 L-425.4 -209 L-425.4 -211 L-425.4 -213 L-425.4 -215 L-425.4 -217 L-425.4 -219 L-425.4 -221 L-425.4 -223 L-425.4 -225 L-423.4 -225 L-421.4 -225 L-419.4 -225 L-417.4 -225 L-415.4 -225 L-413.4 -224.9 L-411.4 -224.9 L-409.4 -224.9 L-407.4 -224.9 L-405.4 -224.9 L-403.4 -224.9 L-401.4 -224.9 L-399.4 -224.9 L-397.4 -224.9 L-395.5 -224.9 L-393.5 -224.9 L-391.5 -224.9 L-389.5 -224.9 L-387.5 -224.9 L-385.5 -224.9 L-383.5 -224.9 L-381.5 -224.9 L-379.5 -224.9 L-377.5 -224.9 L-375.5 -224.9 Z " />
<path stroke="rgb(0,0,0)" stroke-opacity="0.675" fill="rgb(255,255,255)" fill-opacity="1" d="M-175 -99.95 L-175.1 -97.96 L-175.4 -95.99 L-175.8 -94.05 L-176.3 -92.14 L-177 -90.29 L-177.9 -88.49 L-178.8 -86.77 L-180 -85.13 L-181.2 -83.59 L-182.6 -82.15 L-184 -80.82 L-185.6 -79.61 L-187.3 -78.53 L-189 -77.59 L-190.8 -76.79 L-192.7 -76.14 L-194.6 -75.63 L-196.6 -75.28 L-198.6 -75.09 L-200.5 -75.06 L-202.5 -75.18 L-204.5 -75.46 L-206.4 -75.89 L-208.3 -76.48 L-210.2 -77.22 L-211.9 -78.1 L-213.6 -79.11 L-215.3 -80.26 L-216.8 -81.54 L-218.2 -82.93 L-219.5 -84.43 L-220.7 -86.03 L-221.7 -87.72 L-222.6 -89.48 L-223.4 -91.31 L-224 -93.2 L-224.5 -95.13 L-224.8 -97.09 L-224.9 -99.06 L-224.9 -101 L-224.8 -103 L-224.4 -105 L-224 -106.9 L-223.3 -108.8 L-222.6 -110.6 L-221.7 -112.4 L-220.6 -114.1 L-219.4 -115.7 L-218.1 -117.1 L-216.7 -118.5 L-215.2 -119.8 L-213.6 -120.9 L-211.8 -122 L-210.1 -122.8 L-208.2 -123.6 L-206.3 -124.1 L-204.4 -124.6 L-202.4 -124.8 L-200.4 -124.9 L-198.5 -124.9 L-196.5 -124.7 L-194.5 -124.3 L-192.6 -123.8 L-190.7 -123.2 L-188.9 -122.4 L-187.2 -121.4 L-185.5 -120.3 L-184 -119.1 L-182.5 -117.8 L-181.1 -116.3 L-179.9 -114.8 L-178.8 -113.1 L-177.8 -111.4 L-177 -109.6 L-176.3 -107.8 L-175.7 -105.8 L-175.4 -103.9 L-175.1 -101.9 L-175 -99.95 Z " />
<path stroke="rgb(0,0,0)" stroke-opacity="1" fill="rgb(255,255,255)" fill-opacity="1" d="M-177.6 -225.6 L-177.5 -223.7 L-177.4 -221.7 L-177.3 -219.8 L-177.2 -217.9 L-177.1 -215.9 L-177 -214 L-176.9 -212.1 L-176.7 -210.1 L-176.6 -208.2 L-176.5 -206.2 L-176.4 -204.3 L-176.3 -202.4 L-176.2 -200.4 L-176.1 -198.5 L-176 -196.5 L-175.8 -194.6 L-175.7 -192.7 L-175.6 -190.7 L-175.5 -188.8 L-175.4 -186.9 L-175.3 -184.9 L-175.2 -183 L-175.1 -181 L-175 -179.1 L-174.8 -177.2 L-176.8 -177 L-178.7 -176.9 L-180.7 -176.8 L-182.6 -176.7 L-184.5 -176.6 L-186.5 -176.5 L-188.4 -176.4 L-190.3 -176.3 L-192.3 -176.2 L-194.2 -176 L-196.2 -175.9 L-198.1 -175.8 L-200 -175.7 L-202 -175.6 L-203.9 -175.5 L-205.9 -175.4 L-207.8 -175.3 L-209.7 -175.1 L-211.7 -175 L-213.6 -174.9 L-215.5 -174.8 L-217.5 -174.7 L-219.4 -174.6 L-221.4 -174.5 L-223.3 -174.4 L-223.4 -176.3 L-223.5 -178.2 L-223.6 -180.2 L-223.8 -182.1 L-223.9 -184.1 L-224 -186 L-224.1 -187.9 L-224.2 -189.9 L-224.3 -191.8 L-224.4 -193.7 L-224.5 -195.7 L-224.6 -197.6 L-224.8 -199.6 L-224.9 -201.5 L-225 -203.4 L-225.1 -205.4 L-225.2 -207.3 L-225.3 -209.3 L-225.4 -211.2 L-225.5 -213.1 L-225.7 -215.1 L-225.8 -217 L-225.9 -218.9 L-226 -220.9 L-226.1 -222.8 L-224.2 -222.9 L-222.2 -223 L-220.3 -223.2 L-218.3 -223.3 L-216.4 -223.4 L-214.5 -223.5 L-212.5 -223.6 L-210.6 -223.7 L-208.7 -223.8 L-206.7 -223.9 L-204.8 -224.1 L-202.8 -224.2 L-200.9 -224.3 L-199 -224.4 L-197 -224.5 L-195.1 -224.6 L-193.1 -224.7 L-191.2 -224.8 L-189.3 -225 L-187.3 -225.1 L-185.4 -225.2 L-183.5 -225.3 L-181.5 -225.4 L-179.6 -225.5 L-177.6 -225.6 Z " />
<path stroke="rgb(0,0,0)" stroke-opacity="0.675" fill="rgb(255,255,255)" fill-opacity="1" d="M24.95 -99.95 L24.87 -97.96 L24.63 -95.99 L24.23 -94.05 L23.68 -92.14 L22.98 -90.29 L22.14 -88.49 L21.15 -86.77 L20.04 -85.13 L18.79 -83.59 L17.43 -82.15 L15.95 -80.82 L14.38 -79.61 L12.71 -78.53 L10.97 -77.59 L9.153 -76.79 L7.28 -76.14 L5.361 -75.63 L3.408 -75.28 L1.434 -75.09 L-0.5499 -75.06 L-2.53 -75.18 L-4.494 -75.46 L-6.43 -75.89 L-8.325 -76.48 L-10.17 -77.22 L-11.95 -78.1 L-13.65 -79.11 L-15.26 -80.26 L-16.78 -81.54 L-18.2 -82.93 L-19.5 -84.43 L-20.67 -86.03 L-21.72 -87.72 L-22.62 -89.48 L-23.39 -91.31 L-24 -93.2 L-24.47 -95.13 L-24.78 -97.09 L-24.93 -99.06 L-24.93 -101 L-24.77 -103 L-24.45 -105 L-23.97 -106.9 L-23.35 -108.8 L-22.58 -110.6 L-21.66 -112.4 L-20.61 -114.1 L-19.43 -115.7 L-18.12 -117.1 L-16.7 -118.5 L-15.18 -119.8 L-13.56 -120.9 L-11.85 -122 L-10.07 -122.8 L-8.222 -123.6 L-6.324 -124.1 L-4.387 -124.6 L-2.422 -124.8 L-0.441 -124.9 L1.542 -124.9 L3.516 -124.7 L5.467 -124.3 L7.384 -123.8 L9.254 -123.2 L11.07 -122.4 L12.81 -121.4 L14.47 -120.3 L16.04 -119.1 L17.51 -117.8 L18.86 -116.3 L20.1 -114.8 L21.21 -113.1 L22.19 -111.4 L23.02 -109.6 L23.72 -107.8 L24.26 -105.8 L24.64 -103.9 L24.88 -101.9 L24.95 -99.95 Z " />
<path stroke="rgb(0,0,0)" stroke-opacity="1" fill="rgb(255,255,255)" fill-opacity="1" d="M11.32 -227.3 L11.95 -225.8 L12.57 -224.2 L13.2 -222.7 L13.83 -221.1 L14.46 -219.5 L15.08 -218 L15.71 -216.4 L16.34 -214.8 L16.97 -213.3 L17.59 -211.7 L18.22 -210.2 L18.85 -208.6 L19.48 -207 L20.1 -205.5 L20.73 -203.9 L21.36 -202.4 L21.99 -200.8 L22.61 -199.2 L23.24 -197.7 L23.87 -196.1 L24.5 -194.5 L25.12 -193 L25.75 -191.4 L26.38 -189.9 L27.01 -188.3 L25.45 -187.7 L23.88 -187 L22.32 -186.4 L20.76 -185.8 L19.2 -185.2 L17.64 -184.5 L16.07 -183.9 L14.51 -183.3 L12.95 -182.6 L11.39 -182 L9.827 -181.4 L8.265 -180.8 L6.703 -180.1 L5.141 -179.5 L3.579 -178.9 L2.017 -178.3 L0.4552 -177.6 L-1.107 -177 L-2.669 -176.4 L-4.23 -175.7 L-5.792 -175.1 L-7.354 -174.5 L-8.916 -173.9 L-10.48 -173.2 L-12.04 -172.6 L-12.67 -174.2 L-13.29 -175.7 L-13.92 -177.3 L-14.55 -178.9 L-15.18 -180.4 L-15.81 -182 L-16.43 -183.5 L-17.06 -185.1 L-17.69 -186.7 L-18.32 -188.2 L-18.94 -189.8 L-19.57 -191.3 L-20.2 -192.9 L-20.83 -194.5 L-21.45 -196 L-22.08 -197.6 L-22.71 -199.2 L-23.34 -200.7 L-23.96 -202.3 L-24.59 -203.8 L-25.22 -205.4 L-25.85 -207 L-26.47 -208.5 L-27.1 -210.1 L-27.73 -211.7 L-26.17 -212.3 L-24.61 -212.9 L-23.04 -213.5 L-21.48 -214.2 L-19.92 -214.8 L-18.36 -215.4 L-16.8 -216 L-15.23 -216.7 L-13.67 -217.3 L-12.11 -217.9 L-10.55 -218.6 L-8.987 -219.2 L-7.425 -219.8 L-5.863 -220.4 L-4.301 -221.1 L-2.739 -221.7 L-1.177 -222.3 L0.3846 -222.9 L1.947 -223.6 L3.508 -224.2 L5.07 -224.8 L6.632 -225.5 L8.194 -226.1 L9.756 -226.7 L11.32 -227.3 Z " />
<path stroke="rgb(0,0,0)" stroke-opacity="0.675" fill="rgb(255,255,255)" fill-opacity="1" d="M225 -99.95 L224.9 -97.96 L224.6 -95.99 L224.2 -94.05 L223.7 -92.14 L223 -90.29 L222.1 -88.49 L221.2 -86.77 L220 -85.13 L218.8 -83.59 L217.4 -82.15 L216 -80.82 L214.4 -79.61 L212.7 -78.53 L211 -77.59 L209.2 -76.79 L207.3 -76.14 L205.4 -75.63 L203.4 -75.28 L201.4 -75.09 L199.5 -75.06 L197.5 -75.18 L195.5 -75.46 L193.6 -75.89 L191.7 -76.48 L189.8 -77.22 L188.1 -78.1 L186.4 -79.11 L184.7 -80.26 L183.2 -81.54 L181.8 -82.93 L180.5 -84.43 L179.3 -86.03 L178.3 -87.72 L177.4 -89.48 L176.6 -91.31 L176 -93.2 L175.5 -95.13 L175.2 -97.09 L175.1 -99.06 L175.1 -101 L175.2 -103 L175.6 -105 L176 -106.9 L176.7 -108.8 L177.4 -110.6 L178.3 -112.4 L179.4 -114.1 L180.6 -115.7 L181.9 -117.1 L183.3 -118.5 L184.8 -119.8 L186.4 -120.9 L188.2 -122 L189.9 -122.8 L191.8 -123.6 L193.7 -124.1 L195.6 -124.6 L197.6 -124.8 L199.6 -124.9 L201.5 -124.9 L203.5 -124.7 L205.5 -124.3 L207.4 -123.8 L209.3 -123.2 L211.1 -122.4 L212.8 -121.4 L214.5 -120.3 L216 -119.1 L217.5 -117.8 L218.9 -116.3 L220.1 -114.8 L221.2 -113.1 L222.2 -111.4 L223 -109.6 L223.7 -107.8 L224.3 -105.8 L224.6 -103.9 L224.9 -101.9 L225 -99.95 Z " />
<path stroke="rgb(0,0,0)" stroke-opacity="1" fill="rgb(255,255,255)" fill-opacity="1" d="M193.3 -220.8 L194.4 -220.3 L195.5 -219.7 L196.6 -219.1 L197.7 -218.5 L198.8 -218 L199.9 -217.4 L200.9 -216.8 L202 -216.3 L203.1 -215.7 L204.2 -215.1 L205.3 -214.6 L206.4 -214 L207.5 -213.4 L208.6 -212.8 L209.7 -212.3 L210.8 -211.7 L211.9 -211.1 L213 -210.6 L214.1 -210 L215.1 -209.4 L216.2 -208.8 L217.3 -208.3 L218.4 -207.7 L219.5 -207.1 L220.6 -206.6 L220 -205.5 L219.5 -204.4 L218.9 -203.3 L218.3 -202.2 L217.8 -201.1 L217.2 -200 L216.6 -198.9 L216 -197.8 L215.5 -196.7 L214.9 -195.6 L214.3 -194.5 L213.8 -193.5 L213.2 -192.4 L212.6 -191.3 L212.1 -190.2 L211.5 -189.1 L210.9 -188 L210.3 -186.9 L209.8 -185.8 L209.2 -184.7 L208.6 -183.6 L208.1 -182.5 L207.5 -181.4 L206.9 -180.3 L206.3 -179.2 L205.3 -179.8 L204.2 -180.4 L203.1 -181 L202 -181.5 L200.9 -182.1 L199.8 -182.7 L198.7 -183.2 L197.6 -183.8 L196.5 -184.4 L195.4 -185 L194.3 -185.5 L193.2 -186.1 L192.1 -186.7 L191 -187.2 L190 -187.8 L188.9 -188.4 L187.8 -188.9 L186.7 -189.5 L185.6 -190.1 L184.5 -190.7 L183.4 -191.2 L182.3 -191.8 L181.2 -192.4 L180.1 -192.9 L179 -193.5 L179.6 -194.6 L180.2 -195.7 L180.7 -196.8 L181.3 -197.9 L181.9 -199 L182.5 -200.1 L183 -201.2 L183.6 -202.3 L184.2 -203.3 L184.7 -204.4 L185.3 -205.5 L185.9 -206.6 L186.4 -207.7 L187 -208.8 L187.6 -209.9 L188.2 -211 L188.7 -212.1 L189.3 -213.2 L189.9 -214.3 L190.4 -215.4 L191 -216.5 L191.6 -217.6 L192.2 -218.6 L192.7 -219.7 L193.3 -220.8 Z " />
<path stroke="rgb(0,0,0)" stroke-opacity="0.675" fill="rgb(255,255,255)" fill-opacity="1" d="M-275 0.05379 L-275.1 2.036 L-275.4 4.005 L-275.8 5.949 L-276.3 7.855 L-277 9.712 L-277.9 11.51 L-278.8 13.23 L-280 14.87 L-281.2 16.41 L-282.6 17.85 L-284 19.18 L-285.6 20.39 L-287.3 21.47 L-289 22.41 L-290.8 23.21 L-292.7 23.86 L-294.6 24.37 L-296.6 24.72 L-298.6 24.91 L-300.5 24.94 L-302.5 24.82 L-304.5 24.54 L-306.4 24.11 L-308.3 23.52 L-310.2 22.78 L-311.9 21.9 L-313.6 20.89 L-315.3 19.74 L-316.8 18.46 L-318.2 17.07 L-319.5 15.57 L-320.7 13.97 L-321.7 12.28 L-322.6 10.52 L-323.4 8.689 L-324 6.803 L-324.5 4.874 L-324.8 2.915 L-324.9 0.9368 L-324.9 -1.047 L-324.8 -3.024 L-324.4 -4.982 L-324 -6.909 L-323.3 -8.792 L-322.6 -10.62 L-321.7 -12.38 L-320.6 -14.06 L-319.4 -15.65 L-318.1 -17.15 L-316.7 -18.53 L-315.2 -19.8 L-313.6 -20.95 L-311.8 -21.96 L-310.1 -22.83 L-308.2 -23.56 L-306.3 -24.14 L-304.4 -24.56 L-302.4 -24.83 L-300.4 -24.95 L-298.5 -24.9 L-296.5 -24.7 L-294.5 -24.34 L-292.6 -23.83 L-290.7 -23.17 L-288.9 -22.36 L-287.2 -21.41 L-285.5 -20.33 L-284 -19.11 L-282.5 -17.78 L-281.1 -16.33 L-279.9 -14.78 L-278.8 -13.14 L-277.8 -11.41 L-277 -9.613 L-276.3 -7.753 L-275.7 -5.845 L-275.4 -3.899 L-275.1 -1.929 L-275 0.05379 Z " />
<path stroke="rgb(0,0,0)" stroke-opacity="1" fill="rgb(255,255,255)" fill-opacity="1" d="M-277.6 -125.6 L-277.5 -123.7 L-277.4 -121.7 L-277.3 -119.8 L-277.2 -117.9 L-277.1 -115.9 L-277 -114 L-276.9 -112.1 L-276.7 -110.1 L-276.6 -108.2 L-276.5 -106.2 L-276.4 -104.3 L-276.3 -102.4 L-276.2 -100.4 L-276.1 -98.48 L-276 -96.54 L-275.8 -94.61 L-275.7 -92.67 L-275.6 -90.73 L-275.5 -88.79 L-275.4 -86.85 L-275.3 -84.91 L-275.2 -82.98 L-275.1 -81.04 L-275 -79.1 L-274.8 -77.16 L-276.8 -77.05 L-278.7 -76.94 L-280.7 -76.82 L-282.6 -76.71 L-284.5 -76.6 L-286.5 -76.49 L-288.4 -76.38 L-290.3 -76.26 L-292.3 -76.15 L-294.2 -76.04 L-296.2 -75.93 L-298.1 -75.82 L-300 -75.7 L-302 -75.59 L-303.9 -75.48 L-305.9 -75.37 L-307.8 -75.26 L-309.7 -75.15 L-311.7 -75.03 L-313.6 -74.92 L-315.5 -74.81 L-317.5 -74.7 L-319.4 -74.59 L-321.4 -74.47 L-323.3 -74.36 L-323.4 -76.3 L-323.5 -78.24 L-323.6 -80.18 L-323.8 -82.12 L-323.9 -84.05 L-324 -85.99 L-324.1 -87.93 L-324.2 -89.87 L-324.3 -91.81 L-324.4 -93.75 L-324.5 -95.68 L-324.6 -97.62 L-324.8 -99.56 L-324.9 -101.5 L-325 -103.4 L-325.1 -105.4 L-325.2 -107.3 L-325.3 -109.3 L-325.4 -111.2 L-325.5 -113.1 L-325.7 -115.1 L-325.8 -117 L-325.9 -118.9 L-326 -120.9 L-326.1 -122.8 L-324.2 -122.9 L-322.2 -123 L-320.3 -123.2 L-318.3 -123.3 L-316.4 -123.4 L-314.5 -123.5 L-312.5 -123.6 L-310.6 -123.7 L-308.7 -123.8 L-306.7 -123.9 L-304.8 -124.1 L-302.8 -124.2 L-300.9 -124.3 L-299 -124.4 L-297 -124.5 L-295.1 -124.6 L-293.1 -124.7 L-291.2 -124.8 L-289.3 -125 L-287.3 -125.1 L-285.4 -125.2 L-283.5 -125.3 L-281.5 -125.4 L-279.6 -125.5 L-277.6 -125.6 Z " />
<path stroke="rgb(0,0,0)" stroke-opacity="0.675" fill="rgb(255,255,255)" fill-opacity="1" d="M-75.05 0.05379 L-75.13 2.036 L-75.37 4.005 L-75.77 5.949 L-76.32 7.855 L-77.02 9.712 L-77.86 11.51 L-78.85 13.23 L-79.96 14.87 L-81.21 16.41 L-82.57 17.85 L-84.05 19.18 L-85.62 20.39 L-87.29 21.47 L-89.03 22.41 L-90.85 23.21 L-92.72 23.86 L-94.64 24.37 L-96.59 24.72 L-98.57 24.91 L-100.5 24.94 L-102.5 24.82 L-104.5 24.54 L-106.4 24.11 L-108.3 23.52 L-110.2 22.78 L-111.9 21.9 L-113.6 20.89 L-115.3 19.74 L-116.8 18.46 L-118.2 17.07 L-119.5 15.57 L-120.7 13.97 L-121.7 12.28 L-122.6 10.52 L-123.4 8.689 L-124 6.803 L-124.5 4.874 L-124.8 2.915 L-124.9 0.9368 L-124.9 -1.047 L-124.8 -3.024 L-124.4 -4.982 L-124 -6.909 L-123.3 -8.792 L-122.6 -10.62 L-121.7 -12.38 L-120.6 -14.06 L-119.4 -15.65 L-118.1 -17.15 L-116.7 -18.53 L-115.2 -19.8 L-113.6 -20.95 L-111.8 -21.96 L-110.1 -22.83 L-108.2 -23.56 L-106.3 -24.14 L-104.4 -24.56 L-102.4 -24.83 L-100.4 -24.95 L-98.46 -24.9 L-96.48 -24.7 L-94.53 -24.34 L-92.62 -23.83 L-90.75 -23.17 L-88.93 -22.36 L-87.19 -21.41 L-85.53 -20.33 L-83.96 -19.11 L-82.49 -17.78 L-81.14 -16.33 L-79.9 -14.78 L-78.79 -13.14 L-77.81 -11.41 L-76.98 -9.613 L-76.28 -7.753 L-75.74 -5.845 L-75.36 -3.899 L-75.12 -1.929 L-75.05 0.05379 Z " />
<path stroke="rgb(0,0,0)" stroke-opacity="1" fill="rgb(255,255,255)" fill-opacity="1" d="M-88.68 -127.3 L-88.05 -125.8 L-87.43 -124.2 L-86.8 -122.7 L-86.17 -121.1 L-85.54 -119.5 L-84.92 -118 L-84.29 -116.4 L-83.66 -114.8 L-83.03 -113.3 L-82.41 -111.7 L-81.78 -110.2 L-81.15 -108.6 L-80.52 -107 L-79.9 -105.5 L-79.27 -103.9 L-78.64 -102.4 L-78.01 -100.8 L-77.39 -99.23 L-76.76 -97.67 L-76.13 -96.1 L-75.5 -94.54 L-74.88 -92.98 L-74.25 -91.42 L-73.62 -89.86 L-72.99 -88.3 L-74.55 -87.67 L-76.12 -87.04 L-77.68 -86.41 L-79.24 -85.79 L-80.8 -85.16 L-82.36 -84.53 L-83.93 -83.9 L-85.49 -83.27 L-87.05 -82.65 L-88.61 -82.02 L-90.17 -81.39 L-91.74 -80.76 L-93.3 -80.14 L-94.86 -79.51 L-96.42 -78.88 L-97.98 -78.25 L-99.54 -77.63 L-101.1 -77 L-102.7 -76.37 L-104.2 -75.74 L-105.8 -75.12 L-107.4 -74.49 L-108.9 -73.86 L-110.5 -73.23 L-112 -72.61 L-112.7 -74.17 L-113.3 -75.73 L-113.9 -77.29 L-114.6 -78.85 L-115.2 -80.42 L-115.8 -81.98 L-116.4 -83.54 L-117.1 -85.1 L-117.7 -86.66 L-118.3 -88.22 L-118.9 -89.79 L-119.6 -91.35 L-120.2 -92.91 L-120.8 -94.47 L-121.5 -96.03 L-122.1 -97.6 L-122.7 -99.16 L-123.3 -100.7 L-124 -102.3 L-124.6 -103.8 L-125.2 -105.4 L-125.8 -107 L-126.5 -108.5 L-127.1 -110.1 L-127.7 -111.7 L-126.2 -112.3 L-124.6 -112.9 L-123 -113.5 L-121.5 -114.2 L-119.9 -114.8 L-118.4 -115.4 L-116.8 -116 L-115.2 -116.7 L-113.7 -117.3 L-112.1 -117.9 L-110.5 -118.6 L-109 -119.2 L-107.4 -119.8 L-105.9 -120.4 L-104.3 -121.1 L-102.7 -121.7 L-101.2 -122.3 L-99.62 -122.9 L-98.05 -123.6 L-96.49 -124.2 L-94.93 -124.8 L-93.37 -125.5 L-91.81 -126.1 L-90.24 -126.7 L-88.68 -127.3 Z " />
<path stroke="rgb(0,0,0)" stroke-opacity="0.675" fill="rgb(255,255,255)" fill-opacity="1" d="M125 0.05379 L124.9 2.036 L124.6 4.005 L124.2 5.949 L123.7 7.855 L123 9.712 L122.1 11.51 L121.2 13.23 L120 14.87 L118.8 16.41 L117.4 17.85 L116 19.18 L114.4 20.39 L112.7 21.47 L111 22.41 L109.2 23.21 L107.3 23.86 L105.4 24.37 L103.4 24.72 L101.4 24.91 L99.45 24.94 L97.47 24.82 L95.51 24.54 L93.57 24.11 L91.68 23.52 L89.83 22.78 L88.05 21.9 L86.35 20.89 L84.74 19.74 L83.22 18.46 L81.8 17.07 L80.5 15.57 L79.33 13.97 L78.28 12.28 L77.38 10.52 L76.61 8.689 L76 6.803 L75.53 4.874 L75.22 2.915 L75.07 0.9368 L75.07 -1.047 L75.23 -3.024 L75.55 -4.982 L76.03 -6.909 L76.65 -8.792 L77.42 -10.62 L78.34 -12.38 L79.39 -14.06 L80.57 -15.65 L81.88 -17.15 L83.3 -18.53 L84.82 -19.8 L86.44 -20.95 L88.15 -21.96 L89.93 -22.83 L91.78 -23.56 L93.68 -24.14 L95.61 -24.56 L97.58 -24.83 L99.56 -24.95 L101.5 -24.9 L103.5 -24.7 L105.5 -24.34 L107.4 -23.83 L109.3 -23.17 L111.1 -22.36 L112.8 -21.41 L114.5 -20.33 L116 -19.11 L117.5 -17.78 L118.9 -16.33 L120.1 -14.78 L121.2 -13.14 L122.2 -11.41 L123 -9.613 L123.7 -7.753 L124.3 -5.845 L124.6 -3.899 L124.9 -1.929 L125 0.05379 Z " />
<path stroke="rgb(0,0,0)" stroke-opacity="1" fill="rgb(255,255,255)" fill-opacity="1" d="M93.29 -120.8 L94.39 -120.3 L95.48 -119.7 L96.57 -119.1 L97.67 -118.5 L98.76 -118 L99.85 -117.4 L100.9 -116.8 L102 -116.3 L103.1 -115.7 L104.2 -115.1 L105.3 -114.6 L106.4 -114 L107.5 -113.4 L108.6 -112.8 L109.7 -112.3 L110.8 -111.7 L111.9 -111.1 L113 -110.6 L114.1 -110 L115.1 -109.4 L116.2 -108.8 L117.3 -108.3 L118.4 -107.7 L119.5 -107.1 L120.6 -106.6 L120 -105.5 L119.5 -104.4 L118.9 -103.3 L118.3 -102.2 L117.8 -101.1 L117.2 -100 L116.6 -98.92 L116 -97.82 L115.5 -96.73 L114.9 -95.64 L114.3 -94.54 L113.8 -93.45 L113.2 -92.36 L112.6 -91.27 L112.1 -90.17 L111.5 -89.08 L110.9 -87.99 L110.3 -86.9 L109.8 -85.8 L109.2 -84.71 L108.6 -83.62 L108.1 -82.53 L107.5 -81.43 L106.9 -80.34 L106.3 -79.25 L105.3 -79.82 L104.2 -80.39 L103.1 -80.96 L102 -81.53 L100.9 -82.1 L99.79 -82.67 L98.7 -83.24 L97.6 -83.81 L96.51 -84.38 L95.42 -84.95 L94.32 -85.53 L93.23 -86.1 L92.14 -86.67 L91.05 -87.24 L89.95 -87.81 L88.86 -88.38 L87.77 -88.95 L86.68 -89.52 L85.58 -90.09 L84.49 -90.66 L83.4 -91.23 L82.31 -91.8 L81.21 -92.37 L80.12 -92.94 L79.03 -93.51 L79.6 -94.61 L80.17 -95.7 L80.74 -96.79 L81.31 -97.89 L81.88 -98.98 L82.45 -100.1 L83.02 -101.2 L83.59 -102.3 L84.16 -103.3 L84.73 -104.4 L85.3 -105.5 L85.88 -106.6 L86.45 -107.7 L87.02 -108.8 L87.59 -109.9 L88.16 -111 L88.73 -112.1 L89.3 -113.2 L89.87 -114.3 L90.44 -115.4 L91.01 -116.5 L91.58 -117.6 L92.15 -118.6 L92.72 -119.7 L93.29 -120.8 Z " />
<path stroke="rgb(0,0,0)" stroke-opacity="0.675" fill="rgb(255,255,255)" fill-opacity="1" d="M325 0.05379 L324.9 2.036 L324.6 4.005 L324.2 5.949 L323.7 7.855 L323 9.712 L322.1 11.51 L321.2 13.23 L320 14.87 L318.8 16.41 L317.4 17.85 L316 19.18 L314.4 20.39 L312.7 21.47 L311 22.41 L309.2 23.21 L307.3 23.86 L305.4 24.37 L303.4 24.72 L301.4 24.91 L299.5 24.94 L297.5 24.82 L295.5 24.54 L293.6 24.11 L291.7 23.52 L289.8 22.78 L288.1 21.9 L286.4 20.89 L284.7 19.74 L283.2 18.46 L281.8 17.07 L280.5 15.57 L279.3 13.97 L278.3 12.28 L277.4 10.52 L276.6 8.689 L276 6.803 L275.5 4.874 L275.2 2.915 L275.1 0.9368 L275.1 -1.047 L275.2 -3.024 L275.6 -4.982 L276 -6.909 L276.7 -8.792 L277.4 -10.62 L278.3 -12.38 L279.4 -14.06 L280.6 -15.65 L281.9 -17.15 L283.3 -18.53 L284.8 -19.8 L286.4 -20.95 L288.2 -21.96 L289.9 -22.83 L291.8 -23.56 L293.7 -24.14 L295.6 -24.56 L297.6 -24.83 L299.6 -24.95 L301.5 -24.9 L303.5 -24.7 L305.5 -24.34 L307.4 -23.83 L309.3 -23.17 L311.1 -22.36 L312.8 -21.41 L314.5 -20.33 L316 -19.11 L317.5 -17.78 L318.9 -16.33 L320.1 -14.78 L321.2 -13.14 L322.2 -11.41 L323 -9.613 L323.7 -7.753 L324.3 -5.845 L324.6 -3.899 L324.9 -1.929 L325 0.05379 Z " />
<path stroke="rgb(0,0,0)" stroke-opacity="1" fill="rgb(255,255,255)" fill-opacity="1" d="M-377.6 -25.62 L-377.5 -23.68 L-377.4 -21.74 L-377.3 -19.81 L-377.2 -17.87 L-377.1 -15.93 L-377 -13.99 L-376.9 -12.05 L-376.7 -10.11 L-376.6 -8.176 L-376.5 -6.237 L-376.4 -4.299 L-376.3 -2.36 L-376.2 -0.4217 L-376.1 1.517 L-376 3.455 L-375.8 5.394 L-375.7 7.332 L-375.6 9.271 L-375.5 11.21 L-375.4 13.15 L-375.3 15.09 L-375.2 17.02 L-375.1 18.96 L-375 20.9 L-374.8 22.84 L-376.8 22.95 L-378.7 23.06 L-380.7 23.18 L-382.6 23.29 L-384.5 23.4 L-386.5 23.51 L-388.4 23.62 L-390.3 23.74 L-392.3 23.85 L-394.2 23.96 L-396.2 24.07 L-398.1 24.18 L-400 24.3 L-402 24.41 L-403.9 24.52 L-405.9 24.63 L-407.8 24.74 L-409.7 24.85 L-411.7 24.97 L-413.6 25.08 L-415.5 25.19 L-417.5 25.3 L-419.4 25.41 L-421.4 25.53 L-423.3 25.64 L-423.4 23.7 L-423.5 21.76 L-423.6 19.82 L-423.8 17.88 L-423.9 15.95 L-424 14.01 L-424.1 12.07 L-424.2 10.13 L-424.3 8.192 L-424.4 6.254 L-424.5 4.315 L-424.6 2.377 L-424.8 0.4385 L-424.9 -1.5 L-425 -3.438 L-425.1 -5.377 L-425.2 -7.315 L-425.3 -9.254 L-425.4 -11.19 L-425.5 -13.13 L-425.7 -15.07 L-425.8 -17.01 L-425.9 -18.95 L-426 -20.88 L-426.1 -22.82 L-424.2 -22.93 L-422.2 -23.05 L-420.3 -23.16 L-418.3 -23.27 L-416.4 -23.38 L-414.5 -23.49 L-412.5 -23.61 L-410.6 -23.72 L-408.7 -23.83 L-406.7 -23.94 L-404.8 -24.05 L-402.8 -24.17 L-400.9 -24.28 L-399 -24.39 L-397 -24.5 L-395.1 -24.61 L-393.1 -24.73 L-391.2 -24.84 L-389.3 -24.95 L-387.3 -25.06 L-385.4 -25.17 L-383.5 -25.29 L-381.5 -25.4 L-379.6 -25.51 L-377.6 -25.62 Z " />
<path stroke="rgb(0,0,0)" stroke-opacity="0.675" fill="rgb(255,255,255)" fill-opacity="1" d="M-175 100.1 L-175.1 102 L-175.4 104 L-175.8 105.9 L-176.3 107.9 L-177 109.7 L-177.9 111.5 L-178.8 113.2 L-180 114.9 L-181.2 116.4 L-182.6 117.9 L-184 119.2 L-185.6 120.4 L-187.3 121.5 L-189 122.4 L-190.8 123.2 L-192.7 123.9 L-194.6 124.4 L-196.6 124.7 L-198.6 124.9 L-200.5 124.9 L-202.5 124.8 L-204.5 124.5 L-206.4 124.1 L-208.3 123.5 L-210.2 122.8 L-211.9 121.9 L-213.6 120.9 L-215.3 119.7 L-216.8 118.5 L-218.2 117.1 L-219.5 115.6 L-220.7 114 L-221.7 112.3 L-222.6 110.5 L-223.4 108.7 L-224 106.8 L-224.5 104.9 L-224.8 102.9 L-224.9 100.9 L-224.9 98.95 L-224.8 96.98 L-224.4 95.02 L-224 93.09 L-223.3 91.21 L-222.6 89.38 L-221.7 87.62 L-220.6 85.94 L-219.4 84.35 L-218.1 82.85 L-216.7 81.47 L-215.2 80.2 L-213.6 79.05 L-211.8 78.04 L-210.1 77.17 L-208.2 76.44 L-206.3 75.86 L-204.4 75.44 L-202.4 75.17 L-200.4 75.05 L-198.5 75.1 L-196.5 75.3 L-194.5 75.66 L-192.6 76.17 L-190.7 76.83 L-188.9 77.64 L-187.2 78.59 L-185.5 79.67 L-184 80.89 L-182.5 82.22 L-181.1 83.67 L-179.9 85.22 L-178.8 86.86 L-177.8 88.59 L-177 90.39 L-176.3 92.25 L-175.7 94.16 L-175.4 96.1 L-175.1 98.07 L-175 100.1 Z " />
<path stroke="rgb(0,0,0)" stroke-opacity="1" fill="rgb(255,255,255)" fill-opacity="1" d="M-188.7 -27.34 L-188.1 -25.78 L-187.4 -24.22 L-186.8 -22.66 L-186.2 -21.1 L-185.5 -19.53 L-184.9 -17.97 L-184.3 -16.41 L-183.7 -14.85 L-183 -13.29 L-182.4 -11.72 L-181.8 -10.16 L-181.2 -8.6 L-180.5 -7.038 L-179.9 -5.476 L-179.3 -3.914 L-178.6 -2.353 L-178 -0.7906 L-177.4 0.7712 L-176.8 2.333 L-176.1 3.895 L-175.5 5.457 L-174.9 7.019 L-174.2 8.581 L-173.6 10.14 L-173 11.7 L-174.6 12.33 L-176.1 12.96 L-177.7 13.59 L-179.2 14.21 L-180.8 14.84 L-182.4 15.47 L-183.9 16.1 L-185.5 16.73 L-187 17.35 L-188.6 17.98 L-190.2 18.61 L-191.7 19.24 L-193.3 19.86 L-194.9 20.49 L-196.4 21.12 L-198 21.75 L-199.5 22.37 L-201.1 23 L-202.7 23.63 L-204.2 24.26 L-205.8 24.88 L-207.4 25.51 L-208.9 26.14 L-210.5 26.77 L-212 27.39 L-212.7 25.83 L-213.3 24.27 L-213.9 22.71 L-214.6 21.15 L-215.2 19.58 L-215.8 18.02 L-216.4 16.46 L-217.1 14.9 L-217.7 13.34 L-218.3 11.78 L-218.9 10.21 L-219.6 8.651 L-220.2 7.089 L-220.8 5.527 L-221.5 3.966 L-222.1 2.404 L-222.7 0.8419 L-223.3 -0.72 L-224 -2.282 L-224.6 -3.844 L-225.2 -5.406 L-225.8 -6.968 L-226.5 -8.529 L-227.1 -10.09 L-227.7 -11.65 L-226.2 -12.28 L-224.6 -12.91 L-223 -13.54 L-221.5 -14.16 L-219.9 -14.79 L-218.4 -15.42 L-216.8 -16.05 L-215.2 -16.67 L-213.7 -17.3 L-212.1 -17.93 L-210.5 -18.56 L-209 -19.18 L-207.4 -19.81 L-205.9 -20.44 L-204.3 -21.07 L-202.7 -21.69 L-201.2 -22.32 L-199.6 -22.95 L-198.1 -23.58 L-196.5 -24.2 L-194.9 -24.83 L-193.4 -25.46 L-191.8 -26.09 L-190.2 -26.72 L-188.7 -27.34 Z " />
<path stroke="rgb(0,0,0)" stroke-opacity="0.675" fill="rgb(255,255,255)" fill-opacity="1" d="M24.95 100.1 L24.87 102 L24.63 104 L24.23 105.9 L23.68 107.9 L22.98 109.7 L22.14 111.5 L21.15 113.2 L20.04 114.9 L18.79 116.4 L17.43 117.9 L15.95 119.2 L14.38 120.4 L12.71 121.5 L10.97 122.4 L9.153 123.2 L7.28 123.9 L5.361 124.4 L3.408 124.7 L1.434 124.9 L-0.5499 124.9 L-2.53 124.8 L-4.494 124.5 L-6.43 124.1 L-8.325 123.5 L-10.17 122.8 L-11.95 121.9 L-13.65 120.9 L-15.26 119.7 L-16.78 118.5 L-18.2 117.1 L-19.5 115.6 L-20.67 114 L-21.72 112.3 L-22.62 110.5 L-23.39 108.7 L-24 106.8 L-24.47 104.9 L-24.78 102.9 L-24.93 100.9 L-24.93 98.95 L-24.77 96.98 L-24.45 95.02 L-23.97 93.09 L-23.35 91.21 L-22.58 89.38 L-21.66 87.62 L-20.61 85.94 L-19.43 84.35 L-18.12 82.85 L-16.7 81.47 L-15.18 80.2 L-13.56 79.05 L-11.85 78.04 L-10.07 77.17 L-8.222 76.44 L-6.324 75.86 L-4.387 75.44 L-2.422 75.17 L-0.441 75.05 L1.542 75.1 L3.516 75.3 L5.467 75.66 L7.384 76.17 L9.254 76.83 L11.07 77.64 L12.81 78.59 L14.47 79.67 L16.04 80.89 L17.51 82.22 L18.86 83.67 L20.1 85.22 L21.21 86.86 L22.19 88.59 L23.02 90.39 L23.72 92.25 L24.26 94.16 L24.64 96.1 L24.88 98.07 L24.95 100.1 Z " />
<path stroke="rgb(0,0,0)" stroke-opacity="1" fill="rgb(255,255,255)" fill-opacity="1" d="M-6.705 -20.83 L-5.613 -20.26 L-4.52 -19.69 L-3.427 -19.12 L-2.335 -18.55 L-1.242 -17.98 L-0.1494 -17.41 L0.9432 -16.84 L2.036 -16.27 L3.129 -15.7 L4.221 -15.12 L5.314 -14.55 L6.407 -13.98 L7.499 -13.41 L8.592 -12.84 L9.685 -12.27 L10.78 -11.7 L11.87 -11.13 L12.96 -10.56 L14.06 -9.988 L15.15 -9.418 L16.24 -8.847 L17.33 -8.276 L18.43 -7.706 L19.52 -7.135 L20.61 -6.564 L20.04 -5.472 L19.47 -4.379 L18.9 -3.286 L18.33 -2.194 L17.76 -1.101 L17.19 -0.008165 L16.62 1.085 L16.05 2.177 L15.48 3.27 L14.9 4.363 L14.33 5.455 L13.76 6.548 L13.19 7.641 L12.62 8.733 L12.05 9.826 L11.48 10.92 L10.91 12.01 L10.34 13.1 L9.768 14.2 L9.197 15.29 L8.627 16.38 L8.056 17.47 L7.485 18.57 L6.915 19.66 L6.344 20.75 L5.251 20.18 L4.159 19.61 L3.066 19.04 L1.973 18.47 L0.8806 17.9 L-0.2121 17.33 L-1.305 16.76 L-2.397 16.19 L-3.49 15.62 L-4.583 15.05 L-5.675 14.47 L-6.768 13.9 L-7.861 13.33 L-8.954 12.76 L-10.05 12.19 L-11.14 11.62 L-12.23 11.05 L-13.32 10.48 L-14.42 9.909 L-15.51 9.339 L-16.6 8.768 L-17.69 8.197 L-18.79 7.627 L-19.88 7.056 L-20.97 6.485 L-20.4 5.393 L-19.83 4.3 L-19.26 3.207 L-18.69 2.115 L-18.12 1.022 L-17.55 -0.07084 L-16.98 -1.164 L-16.41 -2.256 L-15.84 -3.349 L-15.27 -4.442 L-14.7 -5.534 L-14.12 -6.627 L-13.55 -7.72 L-12.98 -8.812 L-12.41 -9.905 L-11.84 -11 L-11.27 -12.09 L-10.7 -13.18 L-10.13 -14.28 L-9.559 -15.37 L-8.988 -16.46 L-8.418 -17.55 L-7.847 -18.65 L-7.276 -19.74 L-6.705 -20.83 Z " />
<path stroke="rgb(0,0,0)" stroke-opacity="0.675" fill="rgb(255,255,255)" fill-opacity="1" d="M225 100.1 L224.9 102 L224.6 104 L224.2 105.9 L223.7 107.9 L223 109.7 L222.1 111.5 L221.2 113.2 L220 114.9 L218.8 116.4 L217.4 117.9 L216 119.2 L214.4 120.4 L212.7 121.5 L211 122.4 L209.2 123.2 L207.3 123.9 L205.4 124.4 L203.4 124.7 L201.4 124.9 L199.5 124.9 L197.5 124.8 L195.5 124.5 L193.6 124.1 L191.7 123.5 L189.8 122.8 L188.1 121.9 L186.4 120.9 L184.7 119.7 L183.2 118.5 L181.8 117.1 L180.5 115.6 L179.3 114 L178.3 112.3 L177.4 110.5 L176.6 108.7 L176 106.8 L175.5 104.9 L175.2 102.9 L175.1 100.9 L175.1 98.95 L175.2 96.98 L175.6 95.02 L176 93.09 L176.7 91.21 L177.4 89.38 L178.3 87.62 L179.4 85.94 L180.6 84.35 L181.9 82.85 L183.3 81.47 L184.8 80.2 L186.4 79.05 L188.2 78.04 L189.9 77.17 L191.8 76.44 L193.7 75.86 L195.6 75.44 L197.6 75.17 L199.6 75.05 L201.5 75.1 L203.5 75.3 L205.5 75.66 L207.4 76.17 L209.3 76.83 L211.1 77.64 L212.8 78.59 L214.5 79.67 L216 80.89 L217.5 82.22 L218.9 83.67 L220.1 85.22 L221.2 86.86 L222.2 88.59 L223 90.39 L223.7 92.25 L224.3 94.16 L224.6 96.1 L224.9 98.07 L225 100.1 Z " />
<path stroke="rgb(0,0,0)" stroke-opacity="1" fill="rgb(255,255,255)" fill-opacity="1" d="M188.1 -14.2 L189.2 -14.11 L190.2 -14.02 L191.2 -13.92 L192.3 -13.83 L193.3 -13.73 L194.3 -13.64 L195.4 -13.54 L196.4 -13.45 L197.4 -13.36 L198.5 -13.26 L199.5 -13.17 L200.5 -13.07 L201.6 -12.98 L202.6 -12.89 L203.6 -12.79 L204.7 -12.7 L205.7 -12.6 L206.7 -12.51 L207.8 -12.42 L208.8 -12.32 L209.8 -12.23 L210.9 -12.13 L211.9 -12.04 L212.9 -11.94 L214 -11.85 L213.9 -10.82 L213.8 -9.783 L213.7 -8.749 L213.6 -7.716 L213.5 -6.682 L213.4 -5.648 L213.3 -4.615 L213.2 -3.581 L213.1 -2.547 L213 -1.513 L212.9 -0.4797 L212.8 0.554 L212.7 1.588 L212.7 2.621 L212.6 3.655 L212.5 4.689 L212.4 5.723 L212.3 6.756 L212.2 7.79 L212.1 8.824 L212 9.857 L211.9 10.89 L211.8 11.92 L211.7 12.96 L211.6 13.99 L210.6 13.9 L209.5 13.8 L208.5 13.71 L207.5 13.62 L206.4 13.52 L205.4 13.43 L204.4 13.33 L203.3 13.24 L202.3 13.15 L201.3 13.05 L200.2 12.96 L199.2 12.86 L198.2 12.77 L197.1 12.67 L196.1 12.58 L195.1 12.49 L194 12.39 L193 12.3 L192 12.2 L190.9 12.11 L189.9 12.02 L188.9 11.92 L187.8 11.83 L186.8 11.73 L185.8 11.64 L185.9 10.61 L186 9.572 L186.1 8.538 L186.1 7.504 L186.2 6.47 L186.3 5.437 L186.4 4.403 L186.5 3.369 L186.6 2.336 L186.7 1.302 L186.8 0.2681 L186.9 -0.7656 L187 -1.799 L187.1 -2.833 L187.2 -3.867 L187.3 -4.9 L187.4 -5.934 L187.5 -6.968 L187.6 -8.002 L187.7 -9.035 L187.7 -10.07 L187.8 -11.1 L187.9 -12.14 L188 -13.17 L188.1 -14.2 Z " />
<path stroke="rgb(0,0,0)" stroke-opacity="0.675" fill="rgb(255,255,255)" fill-opacity="1" d="M-275 200.1 L-275.1 202 L-275.4 204 L-275.8 205.9 L-276.3 207.9 L-277 209.7 L-277.9 211.5 L-278.8 213.2 L-280 214.9 L-281.2 216.4 L-282.6 217.9 L-284 219.2 L-285.6 220.4 L-287.3 221.5 L-289 222.4 L-290.8 223.2 L-292.7 223.9 L-294.6 224.4 L-296.6 224.7 L-298.6 224.9 L-300.5 224.9 L-302.5 224.8 L-304.5 224.5 L-306.4 224.1 L-308.3 223.5 L-310.2 222.8 L-311.9 221.9 L-313.6 220.9 L-315.3 219.7 L-316.8 218.5 L-318.2 217.1 L-319.5 215.6 L-320.7 214 L-321.7 212.3 L-322.6 210.5 L-323.4 208.7 L-324 206.8 L-324.5 204.9 L-324.8 202.9 L-324.9 200.9 L-324.9 199 L-324.8 197 L-324.4 195 L-324 193.1 L-323.3 191.2 L-322.6 189.4 L-321.7 187.6 L-320.6 185.9 L-319.4 184.3 L-318.1 182.9 L-316.7 181.5 L-315.2 180.2 L-313.6 179.1 L-311.8 178 L-310.1 177.2 L-308.2 176.4 L-306.3 175.9 L-304.4 175.4 L-302.4 175.2 L-300.4 175.1 L-298.5 175.1 L-296.5 175.3 L-294.5 175.7 L-292.6 176.2 L-290.7 176.8 L-288.9 177.6 L-287.2 178.6 L-285.5 179.7 L-284 180.9 L-282.5 182.2 L-281.1 183.7 L-279.9 185.2 L-278.8 186.9 L-277.8 188.6 L-277 190.4 L-276.3 192.2 L-275.7 194.2 L-275.4 196.1 L-275.1 198.1 L-275 200.1 Z " />
<path stroke="rgb(0,0,0)" stroke-opacity="1" fill="rgb(255,255,255)" fill-opacity="1" d="M-288.7 72.66 L-288.1 74.22 L-287.4 75.78 L-286.8 77.34 L-286.2 78.9 L-285.5 80.47 L-284.9 82.03 L-284.3 83.59 L-283.7 85.15 L-283 86.71 L-282.4 88.28 L-281.8 89.84 L-281.2 91.4 L-280.5 92.96 L-279.9 94.52 L-279.3 96.09 L-278.6 97.65 L-278 99.21 L-277.4 100.8 L-276.8 102.3 L-276.1 103.9 L-275.5 105.5 L-274.9 107 L-274.2 108.6 L-273.6 110.1 L-273 111.7 L-274.6 112.3 L-276.1 113 L-277.7 113.6 L-279.2 114.2 L-280.8 114.8 L-282.4 115.5 L-283.9 116.1 L-285.5 116.7 L-287 117.4 L-288.6 118 L-290.2 118.6 L-291.7 119.2 L-293.3 119.9 L-294.9 120.5 L-296.4 121.1 L-298 121.7 L-299.5 122.4 L-301.1 123 L-302.7 123.6 L-304.2 124.3 L-305.8 124.9 L-307.4 125.5 L-308.9 126.1 L-310.5 126.8 L-312 127.4 L-312.7 125.8 L-313.3 124.3 L-313.9 122.7 L-314.6 121.1 L-315.2 119.6 L-315.8 118 L-316.4 116.5 L-317.1 114.9 L-317.7 113.3 L-318.3 111.8 L-318.9 110.2 L-319.6 108.7 L-320.2 107.1 L-320.8 105.5 L-321.5 104 L-322.1 102.4 L-322.7 100.8 L-323.3 99.28 L-324 97.72 L-324.6 96.16 L-325.2 94.59 L-325.8 93.03 L-326.5 91.47 L-327.1 89.91 L-327.7 88.35 L-326.2 87.72 L-324.6 87.09 L-323 86.46 L-321.5 85.84 L-319.9 85.21 L-318.4 84.58 L-316.8 83.95 L-315.2 83.33 L-313.7 82.7 L-312.1 82.07 L-310.5 81.44 L-309 80.82 L-307.4 80.19 L-305.9 79.56 L-304.3 78.93 L-302.7 78.31 L-301.2 77.68 L-299.6 77.05 L-298.1 76.42 L-296.5 75.8 L-294.9 75.17 L-293.4 74.54 L-291.8 73.91 L-290.2 73.28 L-288.7 72.66 Z " />
<path stroke="rgb(0,0,0)" stroke-opacity="0.675" fill="rgb(255,255,255)" fill-opacity="1" d="M-75.05 200.1 L-75.13 202 L-75.37 204 L-75.77 205.9 L-76.32 207.9 L-77.02 209.7 L-77.86 211.5 L-78.85 213.2 L-79.96 214.9 L-81.21 216.4 L-82.57 217.9 L-84.05 219.2 L-85.62 220.4 L-87.29 221.5 L-89.03 222.4 L-90.85 223.2 L-92.72 223.9 L-94.64 224.4 L-96.59 224.7 L-98.57 224.9 L-100.5 224.9 L-102.5 224.8 L-104.5 224.5 L-106.4 224.1 L-108.3 223.5 L-110.2 222.8 L-111.9 221.9 L-113.6 220.9 L-115.3 219.7 L-116.8 218.5 L-118.2 217.1 L-119.5 215.6 L-120.7 214 L-121.7 212.3 L-122.6 210.5 L-123.4 208.7 L-124 206.8 L-124.5 204.9 L-124.8 202.9 L-124.9 200.9 L-124.9 199 L-124.8 197 L-124.4 195 L-124 193.1 L-123.3 191.2 L-122.6 189.4 L-121.7 187.6 L-120.6 185.9 L-119.4 184.3 L-118.1 182.9 L-116.7 181.5 L-115.2 180.2 L-113.6 179.1 L-111.8 178 L-110.1 177.2 L-108.2 176.4 L-106.3 175.9 L-104.4 175.4 L-102.4 175.2 L-100.4 175.1 L-98.46 175.1 L-96.48 175.3 L-94.53 175.7 L-92.62 176.2 L-90.75 176.8 L-88.93 177.6 L-87.19 178.6 L-85.53 179.7 L-83.96 180.9 L-82.49 182.2 L-81.14 183.7 L-79.9 185.2 L-78.79 186.9 L-77.81 188.6 L-76.98 190.4 L-76.28 192.2 L-75.74 194.2 L-75.36 196.1 L-75.12 198.1 L-75.05 200.1 Z " />
<path stroke="rgb(0,0,0)" stroke-opacity="1" fill="rgb(255,255,255)" fill-opacity="1" d="M-106.7 79.17 L-105.6 79.74 L-104.5 80.31 L-103.4 80.88 L-102.3 81.45 L-101.2 82.02 L-100.1 82.59 L-99.06 83.16 L-97.96 83.73 L-96.87 84.3 L-95.78 84.88 L-94.69 85.45 L-93.59 86.02 L-92.5 86.59 L-91.41 87.16 L-90.32 87.73 L-89.22 88.3 L-88.13 88.87 L-87.04 89.44 L-85.94 90.01 L-84.85 90.58 L-83.76 91.15 L-82.67 91.72 L-81.57 92.29 L-80.48 92.87 L-79.39 93.44 L-79.96 94.53 L-80.53 95.62 L-81.1 96.71 L-81.67 97.81 L-82.24 98.9 L-82.81 99.99 L-83.38 101.1 L-83.95 102.2 L-84.52 103.3 L-85.1 104.4 L-85.67 105.5 L-86.24 106.5 L-86.81 107.6 L-87.38 108.7 L-87.95 109.8 L-88.52 110.9 L-89.09 112 L-89.66 113.1 L-90.23 114.2 L-90.8 115.3 L-91.37 116.4 L-91.94 117.5 L-92.51 118.6 L-93.09 119.7 L-93.66 120.8 L-94.75 120.2 L-95.84 119.6 L-96.93 119 L-98.03 118.5 L-99.12 117.9 L-100.2 117.3 L-101.3 116.8 L-102.4 116.2 L-103.5 115.6 L-104.6 115 L-105.7 114.5 L-106.8 113.9 L-107.9 113.3 L-109 112.8 L-110 112.2 L-111.1 111.6 L-112.2 111.1 L-113.3 110.5 L-114.4 109.9 L-115.5 109.3 L-116.6 108.8 L-117.7 108.2 L-118.8 107.6 L-119.9 107.1 L-121 106.5 L-120.4 105.4 L-119.8 104.3 L-119.3 103.2 L-118.7 102.1 L-118.1 101 L-117.5 99.93 L-117 98.84 L-116.4 97.74 L-115.8 96.65 L-115.3 95.56 L-114.7 94.47 L-114.1 93.37 L-113.6 92.28 L-113 91.19 L-112.4 90.1 L-111.8 89 L-111.3 87.91 L-110.7 86.82 L-110.1 85.72 L-109.6 84.63 L-109 83.54 L-108.4 82.45 L-107.8 81.35 L-107.3 80.26 L-106.7 79.17 Z " />
<path stroke="rgb(0,0,0)" stroke-opacity="0.675" fill="rgb(255,255,255)" fill-opacity="1" d="M125 200.1 L124.9 202 L124.6 204 L124.2 205.9 L123.7 207.9 L123 209.7 L122.1 211.5 L121.2 213.2 L120 214.9 L118.8 216.4 L117.4 217.9 L116 219.2 L114.4 220.4 L112.7 221.5 L111 222.4 L109.2 223.2 L107.3 223.9 L105.4 224.4 L103.4 224.7 L101.4 224.9 L99.45 224.9 L97.47 224.8 L95.51 224.5 L93.57 224.1 L91.68 223.5 L89.83 222.8 L88.05 221.9 L86.35 220.9 L84.74 219.7 L83.22 218.5 L81.8 217.1 L80.5 215.6 L79.33 214 L78.28 212.3 L77.38 210.5 L76.61 208.7 L76 206.8 L75.53 204.9 L75.22 202.9 L75.07 200.9 L75.07 199 L75.23 197 L75.55 195 L76.03 193.1 L76.65 191.2 L77.42 189.4 L78.34 187.6 L79.39 185.9 L80.57 184.3 L81.88 182.9 L83.3 181.5 L84.82 180.2 L86.44 179.1 L88.15 178 L89.93 177.2 L91.78 176.4 L93.68 175.9 L95.61 175.4 L97.58 175.2 L99.56 175.1 L101.5 175.1 L103.5 175.3 L105.5 175.7 L107.4 176.2 L109.3 176.8 L111.1 177.6 L112.8 178.6 L114.5 179.7 L116 180.9 L117.5 182.2 L118.9 183.7 L120.1 185.2 L121.2 186.9 L122.2 188.6 L123 190.4 L123.7 192.2 L124.3 194.2 L124.6 196.1 L124.9 198.1 L125 200.1 Z " />
<path stroke="rgb(0,0,0)" stroke-opacity="1" fill="rgb(255,255,255)" fill-opacity="1" d="M88.13 85.8 L89.16 85.89 L90.19 85.98 L91.23 86.08 L92.26 86.17 L93.29 86.27 L94.33 86.36 L95.36 86.46 L96.4 86.55 L97.43 86.64 L98.46 86.74 L99.5 86.83 L100.5 86.93 L101.6 87.02 L102.6 87.11 L103.6 87.21 L104.7 87.3 L105.7 87.4 L106.7 87.49 L107.8 87.58 L108.8 87.68 L109.8 87.77 L110.9 87.87 L111.9 87.96 L112.9 88.06 L114 88.15 L113.9 89.18 L113.8 90.22 L113.7 91.25 L113.6 92.28 L113.5 93.32 L113.4 94.35 L113.3 95.39 L113.2 96.42 L113.1 97.45 L113 98.49 L112.9 99.52 L112.8 100.6 L112.7 101.6 L112.7 102.6 L112.6 103.7 L112.5 104.7 L112.4 105.7 L112.3 106.8 L112.2 107.8 L112.1 108.8 L112 109.9 L111.9 110.9 L111.8 111.9 L111.7 113 L111.6 114 L110.6 113.9 L109.5 113.8 L108.5 113.7 L107.5 113.6 L106.4 113.5 L105.4 113.4 L104.4 113.3 L103.3 113.2 L102.3 113.1 L101.3 113.1 L100.2 113 L99.21 112.9 L98.18 112.8 L97.14 112.7 L96.11 112.6 L95.08 112.5 L94.04 112.4 L93.01 112.3 L91.98 112.2 L90.94 112.1 L89.91 112 L88.87 111.9 L87.84 111.8 L86.81 111.7 L85.77 111.6 L85.87 110.6 L85.96 109.6 L86.06 108.5 L86.15 107.5 L86.24 106.5 L86.34 105.4 L86.43 104.4 L86.53 103.4 L86.62 102.3 L86.71 101.3 L86.81 100.3 L86.9 99.23 L87 98.2 L87.09 97.17 L87.18 96.13 L87.28 95.1 L87.37 94.07 L87.47 93.03 L87.56 92 L87.66 90.96 L87.75 89.93 L87.84 88.9 L87.94 87.86 L88.03 86.83 L88.13 85.8 Z " />
<path stroke="rgb(0,0,0)" stroke-opacity="0.675" fill="rgb(255,255,255)" fill-opacity="1" d="M325 200.1 L324.9 202 L324.6 204 L324.2 205.9 L323.7 207.9 L323 209.7 L322.1 211.5 L321.2 213.2 L320 214.9 L318.8 216.4 L317.4 217.9 L316 219.2 L314.4 220.4 L312.7 221.5 L311 222.4 L309.2 223.2 L307.3 223.9 L305.4 224.4 L303.4 224.7 L301.4 224.9 L299.5 224.9 L297.5 224.8 L295.5 224.5 L293.6 224.1 L291.7 223.5 L289.8 222.8 L288.1 221.9 L286.4 220.9 L284.7 219.7 L283.2 218.5 L281.8 217.1 L280.5 215.6 L279.3 214 L278.3 212.3 L277.4 210.5 L276.6 208.7 L276 206.8 L275.5 204.9 L275.2 202.9 L275.1 200.9 L275.1 199 L275.2 197 L275.6 195 L276 193.1 L276.7 191.2 L277.4 189.4 L278.3 187.6 L279.4 185.9 L280.6 184.3 L281.9 182.9 L283.3 181.5 L284.8 180.2 L286.4 179.1 L288.2 178 L289.9 177.2 L291.8 176.4 L293.7 175.9 L295.6 175.4 L297.6 175.2 L299.6 175.1 L301.5 175.1 L303.5 175.3 L305.5 175.7 L307.4 176.2 L309.3 176.8 L311.1 177.6 L312.8 178.6 L314.5 179.7 L316 180.9 L317.5 182.2 L318.9 183.7 L320.1 185.2 L321.2 186.9 L322.2 188.6 L323 190.4 L323.7 192.2 L324.3 194.2 L324.6 196.1 L324.9 198.1 L325 200.1 Z " />
<path stroke="rgb(0,0,0)" stroke-opacity="1" fill="rgb(255,255,255)" fill-opacity="1" d="M-388.7 172.7 L-388.1 174.2 L-387.4 175.8 L-386.8 177.3 L-386.2 178.9 L-385.5 180.5 L-384.9 182 L-384.3 183.6 L-383.7 185.2 L-383 186.7 L-382.4 188.3 L-381.8 189.8 L-381.2 191.4 L-380.5 193 L-379.9 194.5 L-379.3 196.1 L-378.6 197.6 L-378 199.2 L-377.4 200.8 L-376.8 202.3 L-376.1 203.9 L-375.5 205.5 L-374.9 207 L-374.2 208.6 L-373.6 210.1 L-373 211.7 L-374.6 212.3 L-376.1 213 L-377.7 213.6 L-379.2 214.2 L-380.8 214.8 L-382.4 215.5 L-383.9 216.1 L-385.5 216.7 L-387 217.4 L-388.6 218 L-390.2 218.6 L-391.7 219.2 L-393.3 219.9 L-394.9 220.5 L-396.4 221.1 L-398 221.7 L-399.5 222.4 L-401.1 223 L-402.7 223.6 L-404.2 224.3 L-405.8 224.9 L-407.4 225.5 L-408.9 226.1 L-410.5 226.8 L-412 227.4 L-412.7 225.8 L-413.3 224.3 L-413.9 222.7 L-414.6 221.1 L-415.2 219.6 L-415.8 218 L-416.4 216.5 L-417.1 214.9 L-417.7 213.3 L-418.3 211.8 L-418.9 210.2 L-419.6 208.7 L-420.2 207.1 L-420.8 205.5 L-421.5 204 L-422.1 202.4 L-422.7 200.8 L-423.3 199.3 L-424 197.7 L-424.6 196.2 L-425.2 194.6 L-425.8 193 L-426.5 191.5 L-427.1 189.9 L-427.7 188.3 L-426.2 187.7 L-424.6 187.1 L-423 186.5 L-421.5 185.8 L-419.9 185.2 L-418.4 184.6 L-416.8 184 L-415.2 183.3 L-413.7 182.7 L-412.1 182.1 L-410.5 181.4 L-409 180.8 L-407.4 180.2 L-405.9 179.6 L-404.3 178.9 L-402.7 178.3 L-401.2 177.7 L-399.6 177.1 L-398.1 176.4 L-396.5 175.8 L-394.9 175.2 L-393.4 174.5 L-391.8 173.9 L-390.2 173.3 L-388.7 172.7 Z " />
<path stroke="rgb(0,0,0)" stroke-opacity="0.675" fill="rgb(255,255,255)" fill-opacity="1" d="M-175 300.1 L-175.1 302 L-175.4 304 L-175.8 305.9 L-176.3 307.9 L-177 309.7 L-177.9 311.5 L-178.8 313.2 L-180 314.9 L-181.2 316.4 L-182.6 317.9 L-184 319.2 L-185.6 320.4 L-187.3 321.5 L-189 322.4 L-190.8 323.2 L-192.7 323.9 L-194.6 324.4 L-196.6 324.7 L-198.6 324.9 L-200.5 324.9 L-202.5 324.8 L-204.5 324.5 L-206.4 324.1 L-208.3 323.5 L-210.2 322.8 L-211.9 321.9 L-213.6 320.9 L-215.3 319.7 L-216.8 318.5 L-218.2 317.1 L-219.5 315.6 L-220.7 314 L-221.7 312.3 L-222.6 310.5 L-223.4 308.7 L-224 306.8 L-224.5 304.9 L-224.8 302.9 L-224.9 300.9 L-224.9 299 L-224.8 297 L-224.4 295 L-224 293.1 L-223.3 291.2 L-222.6 289.4 L-221.7 287.6 L-220.6 285.9 L-219.4 284.3 L-218.1 282.9 L-216.7 281.5 L-215.2 280.2 L-213.6 279.1 L-211.8 278 L-210.1 277.2 L-208.2 276.4 L-206.3 275.9 L-204.4 275.4 L-202.4 275.2 L-200.4 275.1 L-198.5 275.1 L-196.5 275.3 L-194.5 275.7 L-192.6 276.2 L-190.7 276.8 L-188.9 277.6 L-187.2 278.6 L-185.5 279.7 L-184 280.9 L-182.5 282.2 L-181.1 283.7 L-179.9 285.2 L-178.8 286.9 L-177.8 288.6 L-177 290.4 L-176.3 292.2 L-175.7 294.2 L-175.4 296.1 L-175.1 298.1 L-175 300.1 Z " />
<path stroke="rgb(0,0,0)" stroke-opacity="1" fill="rgb(255,255,255)" fill-opacity="1" d="M-206.7 179.2 L-205.6 179.7 L-204.5 180.3 L-203.4 180.9 L-202.3 181.5 L-201.2 182 L-200.1 182.6 L-199.1 183.2 L-198 183.7 L-196.9 184.3 L-195.8 184.9 L-194.7 185.4 L-193.6 186 L-192.5 186.6 L-191.4 187.2 L-190.3 187.7 L-189.2 188.3 L-188.1 188.9 L-187 189.4 L-185.9 190 L-184.9 190.6 L-183.8 191.2 L-182.7 191.7 L-181.6 192.3 L-180.5 192.9 L-179.4 193.4 L-180 194.5 L-180.5 195.6 L-181.1 196.7 L-181.7 197.8 L-182.2 198.9 L-182.8 200 L-183.4 201.1 L-184 202.2 L-184.5 203.3 L-185.1 204.4 L-185.7 205.5 L-186.2 206.5 L-186.8 207.6 L-187.4 208.7 L-187.9 209.8 L-188.5 210.9 L-189.1 212 L-189.7 213.1 L-190.2 214.2 L-190.8 215.3 L-191.4 216.4 L-191.9 217.5 L-192.5 218.6 L-193.1 219.7 L-193.7 220.8 L-194.7 220.2 L-195.8 219.6 L-196.9 219 L-198 218.5 L-199.1 217.9 L-200.2 217.3 L-201.3 216.8 L-202.4 216.2 L-203.5 215.6 L-204.6 215 L-205.7 214.5 L-206.8 213.9 L-207.9 213.3 L-209 212.8 L-210 212.2 L-211.1 211.6 L-212.2 211.1 L-213.3 210.5 L-214.4 209.9 L-215.5 209.3 L-216.6 208.8 L-217.7 208.2 L-218.8 207.6 L-219.9 207.1 L-221 206.5 L-220.4 205.4 L-219.8 204.3 L-219.3 203.2 L-218.7 202.1 L-218.1 201 L-217.5 199.9 L-217 198.8 L-216.4 197.7 L-215.8 196.7 L-215.3 195.6 L-214.7 194.5 L-214.1 193.4 L-213.6 192.3 L-213 191.2 L-212.4 190.1 L-211.8 189 L-211.3 187.9 L-210.7 186.8 L-210.1 185.7 L-209.6 184.6 L-209 183.5 L-208.4 182.4 L-207.8 181.4 L-207.3 180.3 L-206.7 179.2 Z " />
<path stroke="rgb(0,0,0)" stroke-opacity="0.675" fill="rgb(255,255,255)" fill-opacity="1" d="M24.95 300.1 L24.87 302 L24.63 304 L24.23 305.9 L23.68 307.9 L22.98 309.7 L22.14 311.5 L21.15 313.2 L20.04 314.9 L18.79 316.4 L17.43 317.9 L15.95 319.2 L14.38 320.4 L12.71 321.5 L10.97 322.4 L9.153 323.2 L7.28 323.9 L5.361 324.4 L3.408 324.7 L1.434 324.9 L-0.5499 324.9 L-2.53 324.8 L-4.494 324.5 L-6.43 324.1 L-8.325 323.5 L-10.17 322.8 L-11.95 321.9 L-13.65 320.9 L-15.26 319.7 L-16.78 318.5 L-18.2 317.1 L-19.5 315.6 L-20.67 314 L-21.72 312.3 L-22.62 310.5 L-23.39 308.7 L-24 306.8 L-24.47 304.9 L-24.78 302.9 L-24.93 300.9 L-24.93 299 L-24.77 297 L-24.45 295 L-23.97 293.1 L-23.35 291.2 L-22.58 289.4 L-21.66 287.6 L-20.61 285.9 L-19.43 284.3 L-18.12 282.9 L-16.7 281.5 L-15.18 280.2 L-13.56 279.1 L-11.85 278 L-10.07 277.2 L-8.222 276.4 L-6.324 275.9 L-4.387 275.4 L-2.422 275.2 L-0.441 275.1 L1.542 275.1 L3.516 275.3 L5.467 275.7 L7.384 276.2 L9.254 276.8 L11.07 277.6 L12.81 278.6 L14.47 279.7 L16.04 280.9 L17.51 282.2 L18.86 283.7 L20.1 285.2 L21.21 286.9 L22.19 288.6 L23.02 290.4 L23.72 292.2 L24.26 294.2 L24.64 296.1 L24.88 298.1 L24.95 300.1 Z " />
<path stroke="rgb(0,0,0)" stroke-opacity="1" fill="rgb(255,255,255)" fill-opacity="1" d="M-11.87 185.8 L-10.84 185.9 L-9.806 186 L-8.773 186.1 L-7.739 186.2 L-6.705 186.3 L-5.672 186.4 L-4.638 186.5 L-3.604 186.5 L-2.57 186.6 L-1.537 186.7 L-0.503 186.8 L0.5307 186.9 L1.564 187 L2.598 187.1 L3.632 187.2 L4.666 187.3 L5.699 187.4 L6.733 187.5 L7.767 187.6 L8.8 187.7 L9.834 187.8 L10.87 187.9 L11.9 188 L12.94 188.1 L13.97 188.1 L13.87 189.2 L13.78 190.2 L13.69 191.3 L13.59 192.3 L13.5 193.3 L13.4 194.4 L13.31 195.4 L13.22 196.4 L13.12 197.5 L13.03 198.5 L12.93 199.5 L12.84 200.6 L12.75 201.6 L12.65 202.6 L12.56 203.7 L12.46 204.7 L12.37 205.7 L12.27 206.8 L12.18 207.8 L12.09 208.8 L11.99 209.9 L11.9 210.9 L11.8 211.9 L11.71 213 L11.62 214 L10.58 213.9 L9.548 213.8 L8.515 213.7 L7.481 213.6 L6.447 213.5 L5.413 213.4 L4.38 213.3 L3.346 213.2 L2.312 213.1 L1.279 213.1 L0.2448 213 L-0.7889 212.9 L-1.823 212.8 L-2.856 212.7 L-3.89 212.6 L-4.924 212.5 L-5.957 212.4 L-6.991 212.3 L-8.025 212.2 L-9.059 212.1 L-10.09 212 L-11.13 211.9 L-12.16 211.8 L-13.19 211.7 L-14.23 211.6 L-14.13 210.6 L-14.04 209.6 L-13.94 208.5 L-13.85 207.5 L-13.76 206.5 L-13.66 205.4 L-13.57 204.4 L-13.47 203.4 L-13.38 202.3 L-13.29 201.3 L-13.19 200.3 L-13.1 199.2 L-13 198.2 L-12.91 197.2 L-12.82 196.1 L-12.72 195.1 L-12.63 194.1 L-12.53 193 L-12.44 192 L-12.34 191 L-12.25 189.9 L-12.16 188.9 L-12.06 187.9 L-11.97 186.8 L-11.87 185.8 Z " />
<path stroke="rgb(0,0,0)" stroke-opacity="0.675" fill="rgb(255,255,255)" fill-opacity="1" d="M225 300.1 L224.9 302 L224.6 304 L224.2 305.9 L223.7 307.9 L223 309.7 L222.1 311.5 L221.2 313.2 L220 314.9 L218.8 316.4 L217.4 317.9 L216 319.2 L214.4 320.4 L212.7 321.5 L211 322.4 L209.2 323.2 L207.3 323.9 L205.4 324.4 L203.4 324.7 L201.4 324.9 L199.5 324.9 L197.5 324.8 L195.5 324.5 L193.6 324.1 L191.7 323.5 L189.8 322.8 L188.1 321.9 L186.4 320.9 L184.7 319.7 L183.2 318.5 L181.8 317.1 L180.5 315.6 L179.3 314 L178.3 312.3 L177.4 310.5 L176.6 308.7 L176 306.8 L175.5 304.9 L175.2 302.9 L175.1 300.9 L175.1 299 L175.2 297 L175.6 295 L176 293.1 L176.7 291.2 L177.4 289.4 L178.3 287.6 L179.4 285.9 L180.6 284.3 L181.9 282.9 L183.3 281.5 L184.8 280.2 L186.4 279.1 L188.2 278 L189.9 277.2 L191.8 276.4 L193.7 275.9 L195.6 275.4 L197.6 275.2 L199.6 275.1 L201.5 275.1 L203.5 275.3 L205.5 275.7 L207.4 276.2 L209.3 276.8 L211.1 277.6 L212.8 278.6 L214.5 279.7 L216 280.9 L217.5 282.2 L218.9 283.7 L220.1 285.2 L221.2 286.9 L222.2 288.6 L223 290.4 L223.7 292.2 L224.3 294.2 L224.6 296.1 L224.9 298.1 L225 300.1 Z " />
<path stroke="rgb(0,0,0)" stroke-opacity="1" fill="rgb(255,255,255)" fill-opacity="1" d="M187.4 187.4 L188.4 187.4 L189.4 187.4 L190.4 187.4 L191.4 187.4 L192.4 187.4 L193.4 187.4 L194.4 187.4 L195.4 187.4 L196.4 187.4 L197.4 187.4 L198.4 187.4 L199.4 187.4 L200.4 187.4 L201.4 187.4 L202.4 187.4 L203.4 187.4 L204.4 187.4 L205.4 187.4 L206.4 187.4 L207.4 187.4 L208.4 187.4 L209.4 187.4 L210.4 187.4 L211.4 187.4 L212.4 187.4 L212.4 188.4 L212.4 189.4 L212.4 190.4 L212.4 191.4 L212.4 192.4 L212.4 193.4 L212.4 194.4 L212.4 195.4 L212.4 196.4 L212.4 197.4 L212.4 198.4 L212.4 199.4 L212.4 200.4 L212.4 201.4 L212.4 202.4 L212.3 203.4 L212.3 204.4 L212.3 205.4 L212.3 206.4 L212.3 207.4 L212.3 208.4 L212.3 209.4 L212.3 210.4 L212.3 211.4 L212.3 212.4 L211.3 212.4 L210.3 212.4 L209.3 212.4 L208.3 212.4 L207.3 212.4 L206.3 212.4 L205.3 212.4 L204.3 212.4 L203.3 212.4 L202.3 212.4 L201.3 212.4 L200.3 212.4 L199.3 212.4 L198.3 212.4 L197.3 212.4 L196.4 212.3 L195.4 212.3 L194.4 212.3 L193.4 212.3 L192.4 212.3 L191.4 212.3 L190.4 212.3 L189.4 212.3 L188.4 212.3 L187.4 212.3 L187.4 211.3 L187.4 210.3 L187.4 209.3 L187.4 208.3 L187.4 207.3 L187.4 206.3 L187.4 205.3 L187.4 204.3 L187.4 203.3 L187.4 202.3 L187.4 201.3 L187.4 200.3 L187.4 199.3 L187.4 198.3 L187.4 197.3 L187.4 196.4 L187.4 195.4 L187.4 194.4 L187.4 193.4 L187.4 192.4 L187.4 191.4 L187.4 190.4 L187.4 189.4 L187.4 188.4 L187.4 187.4 Z " />
</g>
</g>
</svg>
