<!DOCTYPE svg>
<svg xmlns="http://www.w3.org/2000/svg" xmlns:xlink="http://www.w3.org/1999/xlink" width="1000" height="1000">
<g transform="translate(500.000000,500.000000)">
<g transform="scale(3.000000,3.000000)">
<path stroke="rgb(0,0,0)" stroke-opacity="1" fill="rgb(255,255,255)" fill-opacity="1" d="M-876.3 -875.6 L-878.2 -875.7 L-880.2 -875.7 L-882.2 -875.7 L-884.1 -875.7 L-886.1 -875.8 L-888 -875.8 L-890 -875.8 L-892 -875.9 L-893.9 -875.9 L-895.9 -875.9 L-897.8 -875.9 L-899.8 -876 L-901.8 -876 L-903.7 -876 L-905.7 -876 L-907.7 -876.1 L-909.6 -876.1 L-911.6 -876.1 L-913.5 -876.1 L-915.5 -876.2 L-917.5 -876.2 L-919.4 -876.2 L-921.4 -876.2 L-923.3 -876.3 L-925.3 -876.3 L-925.3 -878.2 L-925.3 -880.2 L-925.2 -882.2 L-925.2 -884.1 L-925.2 -886.1 L-925.2 -888 L-925.1 -890 L-925.1 -892 L-925.1 -893.9 L-925.1 -895.9 L-925 -897.9 L-925 -899.8 L-925 -901.8 L-925 -903.7 L-924.9 -905.7 L-924.9 -907.7 L-924.9 -909.6 L-924.9 -911.6 L-924.8 -913.5 L-924.8 -915.5 L-924.8 -917.5 L-924.8 -919.4 L-924.7 -921.4 L-924.7 -923.4 L-924.7 -925.3 L-922.7 -925.3 L-920.8 -925.3 L-918.8 -925.2 L-916.8 -925.2 L-914.9 -925.2 L-912.9 -925.2 L-910.9 -925.1 L-909 -925.1 L-907 -925.1 L-905.1 -925.1 L-903.1 -925 L-901.1 -925 L-899.2 -925 L-897.2 -925 L-895.3 -924.9 L-893.3 -924.9 L-891.3 -924.9 L-889.4 -924.9 L-887.4 -924.8 L-885.4 -924.8 L-883.5 -924.8 L-881.5 -924.8 L-879.6 -924.7 L-877.6 -924.7 L-875.6 -924.7 L-875.7 -922.7 L-875.7 -920.8 L-875.7 -918.8 L-875.7 -916.8 L-875.8 -914.9 L-875.8 -912.9 L-875.8 -911 L-875.8 -909 L-875.9 -907 L-875.9 -905.1 L-875.9 -903.1 L-875.9 -901.1 L-876 -899.2 L-876 -897.2 L-876 -895.3 L-876 -893.3 L-876.1 -891.3 L-876.1 -889.4 L-876.1 -887.4 L-876.1 -885.5 L-876.2 -883.5 L-876.2 -881.5 L-876.2 -879.6 L-876.2 -877.6 L-876.3 -875.6 Z " />
<path stroke="rgb(0,0,0)" stroke-opacity="0.5" fill="rgb(255,255,255)" fill-opacity="1" d="M-175.3 -299.7 L-175.4 -297.7 L-175.7 -295.8 L-176.1 -293.9 L-176.6 -292 L-177.3 -290.1 L-178.2 -288.4 L-179.2 -286.7 L-180.3 -285.1 L-181.6 -283.6 L-182.9 -282.1 L-184.4 -280.8 L-186 -279.7 L-187.6 -278.6 L-189.4 -277.7 L-191.2 -276.9 L-193 -276.3 L-195 -275.8 L-196.9 -275.5 L-198.8 -275.3 L-200.8 -275.3 L-202.8 -275.5 L-204.7 -275.8 L-206.6 -276.2 L-208.5 -276.8 L-210.3 -277.6 L-212.1 -278.4 L-213.7 -279.5 L-215.3 -280.6 L-216.8 -281.9 L-218.2 -283.3 L-219.5 -284.8 L-220.6 -286.4 L-221.6 -288.1 L-222.5 -289.8 L-223.2 -291.7 L-223.8 -293.5 L-224.3 -295.4 L-224.6 -297.4 L-224.7 -299.3 L-224.7 -301.3 L-224.5 -303.3 L-224.1 -305.2 L-223.7 -307.1 L-223 -309 L-222.2 -310.8 L-221.3 -312.5 L-220.2 -314.1 L-219.1 -315.7 L-217.8 -317.2 L-216.3 -318.5 L-214.8 -319.8 L-213.2 -320.9 L-211.5 -321.9 L-209.7 -322.7 L-207.9 -323.4 L-206 -324 L-204.1 -324.4 L-202.1 -324.6 L-200.2 -324.7 L-198.2 -324.6 L-196.2 -324.4 L-194.3 -324 L-192.4 -323.5 L-190.6 -322.8 L-188.8 -322 L-187.1 -321.1 L-185.5 -320 L-183.9 -318.8 L-182.5 -317.4 L-181.1 -316 L-179.9 -314.4 L-178.9 -312.8 L-177.9 -311.1 L-177.1 -309.3 L-176.4 -307.4 L-175.9 -305.5 L-175.6 -303.6 L-175.3 -301.6 L-175.3 -299.7 Z " />
<path stroke="rgb(0,0,0)" stroke-opacity="1" fill="rgb(255,255,255)" fill-opacity="1" d="M-676.3 -875.6 L-678.2 -875.7 L-680.2 -875.7 L-682.2 -875.7 L-684.1 -875.7 L-686.1 -875.8 L-688 -875.8 L-690 -875.8 L-692 -875.9 L-693.9 -875.9 L-695.9 -875.9 L-697.8 -875.9 L-699.8 -876 L-701.8 -876 L-703.7 -876 L-705.7 -876 L-707.7 -876.1 L-709.6 -876.1 L-711.6 -876.1 L-713.5 -876.1 L-715.5 -876.2 L-717.5 -876.2 L-719.4 -876.2 L-721.4 -876.2 L-723.3 -876.3 L-725.3 -876.3 L-725.3 -878.2 L-725.3 -880.2 L-725.2 -882.2 L-725.2 -884.1 L-725.2 -886.1 L-725.2 -888 L-725.1 -890 L-725.1 -892 L-725.1 -893.9 L-725.1 -895.9 L-725 -897.9 L-725 -899.8 L-725 -901.8 L-725 -903.7 L-724.9 -905.7 L-724.9 -907.7 L-724.9 -909.6 L-724.9 -911.6 L-724.8 -913.5 L-724.8 -915.5 L-724.8 -917.5 L-724.8 -919.4 L-724.7 -921.4 L-724.7 -923.4 L-724.7 -925.3 L-722.7 -925.3 L-720.8 -925.3 L-718.8 -925.2 L-716.8 -925.2 L-714.9 -925.2 L-712.9 -925.2 L-710.9 -925.1 L-709 -925.1 L-707 -925.1 L-705.1 -925.1 L-703.1 -925 L-701.1 -925 L-699.2 -925 L-697.2 -925 L-695.3 -924.9 L-693.3 -924.9 L-691.3 -924.9 L-689.4 -924.9 L-687.4 -924.8 L-685.4 -924.8 L-683.5 -924.8 L-681.5 -924.8 L-679.6 -924.7 L-677.6 -924.7 L-675.6 -924.7 L-675.7 -922.7 L-675.7 -920.8 L-675.7 -918.8 L-675.7 -916.8 L-675.8 -914.9 L-675.8 -912.9 L-675.8 -911 L-675.8 -909 L-675.9 -907 L-675.9 -905.1 L-675.9 -903.1 L-675.9 -901.1 L-676 -899.2 L-676 -897.2 L-676 -895.3 L-676 -893.3 L-676.1 -891.3 L-676.1 -889.4 L-676.1 -887.4 L-676.1 -885.5 L-676.2 -883.5 L-676.2 -881.5 L-676.2 -879.6 L-676.2 -877.6 L-676.3 -875.6 Z " />
<path stroke="rgb(0,0,0)" stroke-opacity="0.5" fill="rgb(255,255,255)" fill-opacity="1" d="M24.7 -299.7 L24.6 -297.7 L24.34 -295.8 L23.93 -293.9 L23.36 -292 L22.65 -290.1 L21.8 -288.4 L20.8 -286.7 L19.68 -285.1 L18.43 -283.6 L17.06 -282.1 L15.59 -280.8 L14.02 -279.7 L12.36 -278.6 L10.62 -277.7 L8.814 -276.9 L6.952 -276.3 L5.047 -275.8 L3.11 -275.5 L1.153 -275.3 L-0.8108 -275.3 L-2.77 -275.5 L-4.711 -275.8 L-6.623 -276.2 L-8.492 -276.8 L-10.31 -277.6 L-12.06 -278.4 L-13.73 -279.5 L-15.32 -280.6 L-16.81 -281.9 L-18.2 -283.3 L-19.47 -284.8 L-20.61 -286.4 L-21.63 -288.1 L-22.51 -289.8 L-23.24 -291.7 L-23.83 -293.5 L-24.27 -295.4 L-24.56 -297.4 L-24.69 -299.3 L-24.66 -301.3 L-24.48 -303.3 L-24.15 -305.2 L-23.66 -307.1 L-23.02 -309 L-22.23 -310.8 L-21.31 -312.5 L-20.25 -314.1 L-19.06 -315.7 L-17.75 -317.2 L-16.33 -318.5 L-14.81 -319.8 L-13.19 -320.9 L-11.49 -321.9 L-9.717 -322.7 L-7.882 -323.4 L-5.997 -324 L-4.074 -324.4 L-2.126 -324.6 L-0.1638 -324.7 L1.799 -324.6 L3.751 -324.4 L5.679 -324 L7.571 -323.5 L9.415 -322.8 L11.2 -322 L12.91 -321.1 L14.55 -320 L16.09 -318.8 L17.53 -317.4 L18.85 -316 L20.06 -314.4 L21.14 -312.8 L22.09 -311.1 L22.9 -309.3 L23.56 -307.4 L24.08 -305.5 L24.44 -303.6 L24.65 -301.6 L24.7 -299.7 Z " />
<path stroke="rgb(0,0,0)" stroke-opacity="1" fill="rgb(255,255,255)" fill-opacity="1" d="M-476.2 -875.8 L-478.2 -875.8 L-480.1 -875.8 L-482.1 -875.9 L-484 -875.9 L-486 -875.9 L-488 -875.9 L-489.9 -875.9 L-491.9 -875.9 L-493.8 -876 L-495.8 -876 L-497.7 -876 L-499.7 -876 L-501.7 -876 L-503.6 -876 L-505.6 -876.1 L-507.5 -876.1 L-509.5 -876.1 L-511.4 -876.1 L-513.4 -876.1 L-515.4 -876.1 L-517.3 -876.1 L-519.3 -876.2 L-521.2 -876.2 L-523.2 -876.2 L-525.1 -876.2 L-525.1 -878.2 L-525.1 -880.1 L-525.1 -882.1 L-525.1 -884 L-525.1 -886 L-525 -888 L-525 -889.9 L-525 -891.9 L-525 -893.8 L-525 -895.8 L-525 -897.7 L-525 -899.7 L-524.9 -901.7 L-524.9 -903.6 L-524.9 -905.6 L-524.9 -907.5 L-524.9 -909.5 L-524.9 -911.4 L-524.8 -913.4 L-524.8 -915.4 L-524.8 -917.3 L-524.8 -919.3 L-524.8 -921.2 L-524.8 -923.2 L-524.7 -925.2 L-522.8 -925.1 L-520.8 -925.1 L-518.9 -925.1 L-516.9 -925.1 L-515 -925.1 L-513 -925.1 L-511 -925 L-509.1 -925 L-507.1 -925 L-505.2 -925 L-503.2 -925 L-501.2 -925 L-499.3 -924.9 L-497.3 -924.9 L-495.4 -924.9 L-493.4 -924.9 L-491.5 -924.9 L-489.5 -924.9 L-487.5 -924.8 L-485.6 -924.8 L-483.6 -924.8 L-481.7 -924.8 L-479.7 -924.8 L-477.8 -924.8 L-475.8 -924.7 L-475.8 -922.8 L-475.8 -920.8 L-475.9 -918.9 L-475.9 -916.9 L-475.9 -915 L-475.9 -913 L-475.9 -911 L-475.9 -909.1 L-475.9 -907.1 L-476 -905.2 L-476 -903.2 L-476 -901.3 L-476 -899.3 L-476 -897.3 L-476 -895.4 L-476.1 -893.4 L-476.1 -891.5 L-476.1 -889.5 L-476.1 -887.6 L-476.1 -885.6 L-476.1 -883.6 L-476.2 -881.7 L-476.2 -879.7 L-476.2 -877.8 L-476.2 -875.8 Z " />
<path stroke="rgb(0,0,0)" stroke-opacity="0.5" fill="rgb(255,255,255)" fill-opacity="1" d="M224.7 -299.7 L224.6 -297.7 L224.3 -295.8 L223.9 -293.9 L223.4 -292 L222.7 -290.1 L221.8 -288.4 L220.8 -286.7 L219.7 -285.1 L218.4 -283.6 L217.1 -282.1 L215.6 -280.8 L214 -279.7 L212.4 -278.6 L210.6 -277.7 L208.8 -276.9 L207 -276.3 L205 -275.8 L203.1 -275.5 L201.2 -275.3 L199.2 -275.3 L197.2 -275.5 L195.3 -275.8 L193.4 -276.2 L191.5 -276.8 L189.7 -277.6 L187.9 -278.4 L186.3 -279.5 L184.7 -280.6 L183.2 -281.9 L181.8 -283.3 L180.5 -284.8 L179.4 -286.4 L178.4 -288.1 L177.5 -289.8 L176.8 -291.7 L176.2 -293.5 L175.7 -295.4 L175.4 -297.4 L175.3 -299.3 L175.3 -301.3 L175.5 -303.3 L175.9 -305.2 L176.3 -307.1 L177 -309 L177.8 -310.8 L178.7 -312.5 L179.8 -314.1 L180.9 -315.7 L182.2 -317.2 L183.7 -318.5 L185.2 -319.8 L186.8 -320.9 L188.5 -321.9 L190.3 -322.7 L192.1 -323.4 L194 -324 L195.9 -324.4 L197.9 -324.6 L199.8 -324.7 L201.8 -324.6 L203.8 -324.4 L205.7 -324 L207.6 -323.5 L209.4 -322.8 L211.2 -322 L212.9 -321.1 L214.5 -320 L216.1 -318.8 L217.5 -317.4 L218.9 -316 L220.1 -314.4 L221.1 -312.8 L222.1 -311.1 L222.9 -309.3 L223.6 -307.4 L224.1 -305.5 L224.4 -303.6 L224.7 -301.6 L224.7 -299.7 Z " />
<path stroke="rgb(0,0,0)" stroke-opacity="1" fill="rgb(255,255,255)" fill-opacity="1" d="M-274.8 -880.1 L-276.7 -879.8 L-278.5 -879.6 L-280.3 -879.4 L-282.2 -879.2 L-284 -879 L-285.9 -878.8 L-287.7 -878.6 L-289.6 -878.4 L-291.4 -878.1 L-293.2 -877.9 L-295.1 -877.7 L-296.9 -877.5 L-298.8 -877.3 L-300.6 -877.1 L-302.4 -876.9 L-304.3 -876.7 L-306.1 -876.5 L-308 -876.2 L-309.8 -876 L-311.7 -875.8 L-313.5 -875.6 L-315.3 -875.4 L-317.2 -875.2 L-319 -875 L-320.9 -874.8 L-321.1 -876.6 L-321.3 -878.4 L-321.5 -880.3 L-321.7 -882.1 L-321.9 -884 L-322.1 -885.8 L-322.4 -887.7 L-322.6 -889.5 L-322.8 -891.3 L-323 -893.2 L-323.2 -895 L-323.4 -896.9 L-323.6 -898.7 L-323.8 -900.6 L-324 -902.4 L-324.3 -904.2 L-324.5 -906.1 L-324.7 -907.9 L-324.9 -909.8 L-325.1 -911.6 L-325.3 -913.4 L-325.5 -915.3 L-325.7 -917.1 L-326 -919 L-326.2 -920.8 L-324.3 -921 L-322.5 -921.2 L-320.6 -921.5 L-318.8 -921.7 L-317 -921.9 L-315.1 -922.1 L-313.3 -922.3 L-311.4 -922.5 L-309.6 -922.7 L-307.7 -922.9 L-305.9 -923.1 L-304.1 -923.4 L-302.2 -923.6 L-300.4 -923.8 L-298.5 -924 L-296.7 -924.2 L-294.8 -924.4 L-293 -924.6 L-291.2 -924.8 L-289.3 -925.1 L-287.5 -925.3 L-285.6 -925.5 L-283.8 -925.7 L-281.9 -925.9 L-280.1 -926.1 L-279.9 -924.3 L-279.7 -922.4 L-279.5 -920.6 L-279.3 -918.7 L-279 -916.9 L-278.8 -915.1 L-278.6 -913.2 L-278.4 -911.4 L-278.2 -909.5 L-278 -907.7 L-277.8 -905.8 L-277.6 -904 L-277.4 -902.2 L-277.1 -900.3 L-276.9 -898.5 L-276.7 -896.6 L-276.5 -894.8 L-276.3 -893 L-276.1 -891.1 L-275.9 -889.3 L-275.7 -887.4 L-275.4 -885.6 L-275.2 -883.7 L-275 -881.9 L-274.8 -880.1 Z " />
<path stroke="rgb(0,0,0)" stroke-opacity="0.5" fill="rgb(255,255,255)" fill-opacity="1" d="M-275.3 -199.7 L-275.4 -197.7 L-275.7 -195.8 L-276.1 -193.9 L-276.6 -192 L-277.3 -190.1 L-278.2 -188.4 L-279.2 -186.7 L-280.3 -185.1 L-281.6 -183.6 L-282.9 -182.1 L-284.4 -180.8 L-286 -179.7 L-287.6 -178.6 L-289.4 -177.7 L-291.2 -176.9 L-293 -176.3 L-295 -175.8 L-296.9 -175.5 L-298.8 -175.3 L-300.8 -175.3 L-302.8 -175.5 L-304.7 -175.8 L-306.6 -176.2 L-308.5 -176.8 L-310.3 -177.6 L-312.1 -178.4 L-313.7 -179.5 L-315.3 -180.6 L-316.8 -181.9 L-318.2 -183.3 L-319.5 -184.8 L-320.6 -186.4 L-321.6 -188.1 L-322.5 -189.8 L-323.2 -191.7 L-323.8 -193.5 L-324.3 -195.4 L-324.6 -197.4 L-324.7 -199.3 L-324.7 -201.3 L-324.5 -203.3 L-324.1 -205.2 L-323.7 -207.1 L-323 -209 L-322.2 -210.8 L-321.3 -212.5 L-320.2 -214.1 L-319.1 -215.7 L-317.8 -217.2 L-316.3 -218.5 L-314.8 -219.8 L-313.2 -220.9 L-311.5 -221.9 L-309.7 -222.7 L-307.9 -223.4 L-306 -224 L-304.1 -224.4 L-302.1 -224.6 L-300.2 -224.7 L-298.2 -224.6 L-296.2 -224.4 L-294.3 -224 L-292.4 -223.5 L-290.6 -222.8 L-288.8 -222 L-287.1 -221.1 L-285.5 -220 L-283.9 -218.8 L-282.5 -217.4 L-281.1 -216 L-279.9 -214.4 L-278.9 -212.8 L-277.9 -211.1 L-277.1 -209.3 L-276.4 -207.4 L-275.9 -205.5 L-275.6 -203.6 L-275.3 -201.6 L-275.3 -199.7 Z " />
<path stroke="rgb(0,0,0)" stroke-opacity="1" fill="rgb(255,255,255)" fill-opacity="1" d="M-776.3 -775.6 L-778.2 -775.7 L-780.2 -775.7 L-782.2 -775.7 L-784.1 -775.7 L-786.1 -775.8 L-788 -775.8 L-790 -775.8 L-792 -775.9 L-793.9 -775.9 L-795.9 -775.9 L-797.8 -775.9 L-799.8 -776 L-801.8 -776 L-803.7 -776 L-805.7 -776 L-807.7 -776.1 L-809.6 -776.1 L-811.6 -776.1 L-813.5 -776.1 L-815.5 -776.2 L-817.5 -776.2 L-819.4 -776.2 L-821.4 -776.2 L-823.3 -776.3 L-825.3 -776.3 L-825.3 -778.2 L-825.3 -780.2 L-825.2 -782.2 L-825.2 -784.1 L-825.2 -786.1 L-825.2 -788 L-825.1 -790 L-825.1 -792 L-825.1 -793.9 L-825.1 -795.9 L-825 -797.9 L-825 -799.8 L-825 -801.8 L-825 -803.7 L-824.9 -805.7 L-824.9 -807.7 L-824.9 -809.6 L-824.9 -811.6 L-824.8 -813.5 L-824.8 -815.5 L-824.8 -817.5 L-824.8 -819.4 L-824.7 -821.4 L-824.7 -823.4 L-824.7 -825.3 L-822.7 -825.3 L-820.8 -825.3 L-818.8 -825.2 L-816.8 -825.2 L-814.9 -825.2 L-812.9 -825.2 L-810.9 -825.1 L-809 -825.1 L-807 -825.1 L-805.1 -825.1 L-803.1 -825 L-801.1 -825 L-799.2 -825 L-797.2 -825 L-795.3 -824.9 L-793.3 -824.9 L-791.3 -824.9 L-789.4 -824.9 L-787.4 -824.8 L-785.4 -824.8 L-783.5 -824.8 L-781.5 -824.8 L-779.6 -824.7 L-777.6 -824.7 L-775.6 -824.7 L-775.7 -822.7 L-775.7 -820.8 L-775.7 -818.8 L-775.7 -816.8 L-775.8 -814.9 L-775.8 -812.9 L-775.8 -811 L-775.8 -809 L-775.9 -807 L-775.9 -805.1 L-775.9 -803.1 L-775.9 -801.1 L-776 -799.2 L-776 -797.2 L-776 -795.3 L-776 -793.3 L-776.1 -791.3 L-776.1 -789.4 L-776.1 -787.4 L-776.1 -785.5 L-776.2 -783.5 L-776.2 -781.5 L-776.2 -779.6 L-776.2 -777.6 L-776.3 -775.6 Z " />
<path stroke="rgb(0,0,0)" stroke-opacity="0.5" fill="rgb(255,255,255)" fill-opacity="1" d="M-75.3 -199.7 L-75.4 -197.7 L-75.66 -195.8 L-76.07 -193.9 L-76.64 -192 L-77.35 -190.1 L-78.2 -188.4 L-79.2 -186.7 L-80.32 -185.1 L-81.57 -183.6 L-82.94 -182.1 L-84.41 -180.8 L-85.98 -179.7 L-87.64 -178.6 L-89.38 -177.7 L-91.19 -176.9 L-93.05 -176.3 L-94.95 -175.8 L-96.89 -175.5 L-98.85 -175.3 L-100.8 -175.3 L-102.8 -175.5 L-104.7 -175.8 L-106.6 -176.2 L-108.5 -176.8 L-110.3 -177.6 L-112.1 -178.4 L-113.7 -179.5 L-115.3 -180.6 L-116.8 -181.9 L-118.2 -183.3 L-119.5 -184.8 L-120.6 -186.4 L-121.6 -188.1 L-122.5 -189.8 L-123.2 -191.7 L-123.8 -193.5 L-124.3 -195.4 L-124.6 -197.4 L-124.7 -199.3 L-124.7 -201.3 L-124.5 -203.3 L-124.1 -205.2 L-123.7 -207.1 L-123 -209 L-122.2 -210.8 L-121.3 -212.5 L-120.2 -214.1 L-119.1 -215.7 L-117.8 -217.2 L-116.3 -218.5 L-114.8 -219.8 L-113.2 -220.9 L-111.5 -221.9 L-109.7 -222.7 L-107.9 -223.4 L-106 -224 L-104.1 -224.4 L-102.1 -224.6 L-100.2 -224.7 L-98.2 -224.6 L-96.25 -224.4 L-94.32 -224 L-92.43 -223.5 L-90.58 -222.8 L-88.8 -222 L-87.09 -221.1 L-85.45 -220 L-83.91 -218.8 L-82.47 -217.4 L-81.15 -216 L-79.94 -214.4 L-78.86 -212.8 L-77.91 -211.1 L-77.1 -209.3 L-76.44 -207.4 L-75.92 -205.5 L-75.56 -203.6 L-75.35 -201.6 L-75.3 -199.7 Z " />
<path stroke="rgb(0,0,0)" stroke-opacity="1" fill="rgb(255,255,255)" fill-opacity="1" d="M-576.2 -775.8 L-578.2 -775.8 L-580.1 -775.8 L-582.1 -775.9 L-584 -775.9 L-586 -775.9 L-588 -775.9 L-589.9 -775.9 L-591.9 -775.9 L-593.8 -776 L-595.8 -776 L-597.7 -776 L-599.7 -776 L-601.7 -776 L-603.6 -776 L-605.6 -776.1 L-607.5 -776.1 L-609.5 -776.1 L-611.4 -776.1 L-613.4 -776.1 L-615.4 -776.1 L-617.3 -776.1 L-619.3 -776.2 L-621.2 -776.2 L-623.2 -776.2 L-625.1 -776.2 L-625.1 -778.2 L-625.1 -780.1 L-625.1 -782.1 L-625.1 -784 L-625.1 -786 L-625 -788 L-625 -789.9 L-625 -791.9 L-625 -793.8 L-625 -795.8 L-625 -797.7 L-625 -799.7 L-624.9 -801.7 L-624.9 -803.6 L-624.9 -805.6 L-624.9 -807.5 L-624.9 -809.5 L-624.9 -811.4 L-624.8 -813.4 L-624.8 -815.4 L-624.8 -817.3 L-624.8 -819.3 L-624.8 -821.2 L-624.8 -823.2 L-624.7 -825.2 L-622.8 -825.1 L-620.8 -825.1 L-618.9 -825.1 L-616.9 -825.1 L-615 -825.1 L-613 -825.1 L-611 -825 L-609.1 -825 L-607.1 -825 L-605.2 -825 L-603.2 -825 L-601.2 -825 L-599.3 -824.9 L-597.3 -824.9 L-595.4 -824.9 L-593.4 -824.9 L-591.5 -824.9 L-589.5 -824.9 L-587.5 -824.8 L-585.6 -824.8 L-583.6 -824.8 L-581.7 -824.8 L-579.7 -824.8 L-577.8 -824.8 L-575.8 -824.7 L-575.8 -822.8 L-575.8 -820.8 L-575.9 -818.9 L-575.9 -816.9 L-575.9 -815 L-575.9 -813 L-575.9 -811 L-575.9 -809.1 L-575.9 -807.1 L-576 -805.2 L-576 -803.2 L-576 -801.3 L-576 -799.3 L-576 -797.3 L-576 -795.4 L-576.1 -793.4 L-576.1 -791.5 L-576.1 -789.5 L-576.1 -787.6 L-576.1 -785.6 L-576.1 -783.6 L-576.2 -781.7 L-576.2 -779.7 L-576.2 -777.8 L-576.2 -775.8 Z " />
<path stroke="rgb(0,0,0)" stroke-opacity="0.5" fill="rgb(255,255,255)" fill-opacity="1" d="M124.7 -199.7 L124.6 -197.7 L124.3 -195.8 L123.9 -193.9 L123.4 -192 L122.7 -190.1 L121.8 -188.4 L120.8 -186.7 L119.7 -185.1 L118.4 -183.6 L117.1 -182.1 L115.6 -180.8 L114 -179.7 L112.4 -178.6 L110.6 -177.7 L108.8 -176.9 L107 -176.3 L105 -175.8 L103.1 -175.5 L101.2 -175.3 L99.19 -175.3 L97.23 -175.5 L95.29 -175.8 L93.38 -176.2 L91.51 -176.8 L89.69 -177.6 L87.94 -178.4 L86.27 -179.5 L84.68 -180.6 L83.19 -181.9 L81.8 -183.3 L80.53 -184.8 L79.39 -186.4 L78.37 -188.1 L77.49 -189.8 L76.76 -191.7 L76.17 -193.5 L75.73 -195.4 L75.44 -197.4 L75.31 -199.3 L75.34 -201.3 L75.52 -203.3 L75.85 -205.2 L76.34 -207.1 L76.98 -209 L77.77 -210.8 L78.69 -212.5 L79.75 -214.1 L80.94 -215.7 L82.25 -217.2 L83.67 -218.5 L85.19 -219.8 L86.81 -220.9 L88.51 -221.9 L90.28 -222.7 L92.12 -223.4 L94 -224 L95.93 -224.4 L97.87 -224.6 L99.84 -224.7 L101.8 -224.6 L103.8 -224.4 L105.7 -224 L107.6 -223.5 L109.4 -222.8 L111.2 -222 L112.9 -221.1 L114.5 -220 L116.1 -218.8 L117.5 -217.4 L118.9 -216 L120.1 -214.4 L121.1 -212.8 L122.1 -211.1 L122.9 -209.3 L123.6 -207.4 L124.1 -205.5 L124.4 -203.6 L124.7 -201.6 L124.7 -199.7 Z " />
<path stroke="rgb(0,0,0)" stroke-opacity="1" fill="rgb(255,255,255)" fill-opacity="1" d="M-374.8 -780.1 L-376.7 -779.8 L-378.5 -779.6 L-380.3 -779.4 L-382.2 -779.2 L-384 -779 L-385.9 -778.8 L-387.7 -778.6 L-389.6 -778.4 L-391.4 -778.1 L-393.2 -777.9 L-395.1 -777.7 L-396.9 -777.5 L-398.8 -777.3 L-400.6 -777.1 L-402.4 -776.9 L-404.3 -776.7 L-406.1 -776.5 L-408 -776.2 L-409.8 -776 L-411.7 -775.8 L-413.5 -775.6 L-415.3 -775.4 L-417.2 -775.2 L-419 -775 L-420.9 -774.8 L-421.1 -776.6 L-421.3 -778.4 L-421.5 -780.3 L-421.7 -782.1 L-421.9 -784 L-422.1 -785.8 L-422.4 -787.7 L-422.6 -789.5 L-422.8 -791.3 L-423 -793.2 L-423.2 -795 L-423.4 -796.9 L-423.6 -798.7 L-423.8 -800.6 L-424 -802.4 L-424.3 -804.2 L-424.5 -806.1 L-424.7 -807.9 L-424.9 -809.8 L-425.1 -811.6 L-425.3 -813.4 L-425.5 -815.3 L-425.7 -817.1 L-426 -819 L-426.2 -820.8 L-424.3 -821 L-422.5 -821.2 L-420.6 -821.5 L-418.8 -821.7 L-417 -821.9 L-415.1 -822.1 L-413.3 -822.3 L-411.4 -822.5 L-409.6 -822.7 L-407.7 -822.9 L-405.9 -823.1 L-404.1 -823.4 L-402.2 -823.6 L-400.4 -823.8 L-398.5 -824 L-396.7 -824.2 L-394.8 -824.4 L-393 -824.6 L-391.2 -824.8 L-389.3 -825.1 L-387.5 -825.3 L-385.6 -825.5 L-383.8 -825.7 L-381.9 -825.9 L-380.1 -826.1 L-379.9 -824.3 L-379.7 -822.4 L-379.5 -820.6 L-379.3 -818.7 L-379 -816.9 L-378.8 -815.1 L-378.6 -813.2 L-378.4 -811.4 L-378.2 -809.5 L-378 -807.7 L-377.8 -805.8 L-377.6 -804 L-377.4 -802.2 L-377.1 -800.3 L-376.9 -798.5 L-376.7 -796.6 L-376.5 -794.8 L-376.3 -793 L-376.1 -791.1 L-375.9 -789.3 L-375.7 -787.4 L-375.4 -785.6 L-375.2 -783.7 L-375 -781.9 L-374.8 -780.1 Z " />
<path stroke="rgb(0,0,0)" stroke-opacity="0.5" fill="rgb(255,255,255)" fill-opacity="1" d="M324.7 -199.7 L324.6 -197.7 L324.3 -195.8 L323.9 -193.9 L323.4 -192 L322.7 -190.1 L321.8 -188.4 L320.8 -186.7 L319.7 -185.1 L318.4 -183.6 L317.1 -182.1 L315.6 -180.8 L314 -179.7 L312.4 -178.6 L310.6 -177.7 L308.8 -176.9 L307 -176.3 L305 -175.8 L303.1 -175.5 L301.2 -175.3 L299.2 -175.3 L297.2 -175.5 L295.3 -175.8 L293.4 -176.2 L291.5 -176.8 L289.7 -177.6 L287.9 -178.4 L286.3 -179.5 L284.7 -180.6 L283.2 -181.9 L281.8 -183.3 L280.5 -184.8 L279.4 -186.4 L278.4 -188.1 L277.5 -189.8 L276.8 -191.7 L276.2 -193.5 L275.7 -195.4 L275.4 -197.4 L275.3 -199.3 L275.3 -201.3 L275.5 -203.3 L275.9 -205.2 L276.3 -207.1 L277 -209 L277.8 -210.8 L278.7 -212.5 L279.8 -214.1 L280.9 -215.7 L282.2 -217.2 L283.7 -218.5 L285.2 -219.8 L286.8 -220.9 L288.5 -221.9 L290.3 -222.7 L292.1 -223.4 L294 -224 L295.9 -224.4 L297.9 -224.6 L299.8 -224.7 L301.8 -224.6 L303.8 -224.4 L305.7 -224 L307.6 -223.5 L309.4 -222.8 L311.2 -222 L312.9 -221.1 L314.5 -220 L316.1 -218.8 L317.5 -217.4 L318.9 -216 L320.1 -214.4 L321.1 -212.8 L322.1 -211.1 L322.9 -209.3 L323.6 -207.4 L324.1 -205.5 L324.4 -203.6 L324.7 -201.6 L324.7 -199.7 Z " />
<path stroke="rgb(0,0,0)" stroke-opacity="1" fill="rgb(255,255,255)" fill-opacity="1" d="M-876.3 -675.6 L-878.2 -675.7 L-880.2 -675.7 L-882.2 -675.7 L-884.1 -675.7 L-886.1 -675.8 L-888 -675.8 L-890 -675.8 L-892 -675.9 L-893.9 -675.9 L-895.9 -675.9 L-897.8 -675.9 L-899.8 -676 L-901.8 -676 L-903.7 -676 L-905.7 -676 L-907.7 -676.1 L-909.6 -676.1 L-911.6 -676.1 L-913.5 -676.1 L-915.5 -676.2 L-917.5 -676.2 L-919.4 -676.2 L-921.4 -676.2 L-923.3 -676.3 L-925.3 -676.3 L-925.3 -678.2 L-925.3 -680.2 L-925.2 -682.2 L-925.2 -684.1 L-925.2 -686.1 L-925.2 -688 L-925.1 -690 L-925.1 -692 L-925.1 -693.9 L-925.1 -695.9 L-925 -697.9 L-925 -699.8 L-925 -701.8 L-925 -703.7 L-924.9 -705.7 L-924.9 -707.7 L-924.9 -709.6 L-924.9 -711.6 L-924.8 -713.5 L-924.8 -715.5 L-924.8 -717.5 L-924.8 -719.4 L-924.7 -721.4 L-924.7 -723.4 L-924.7 -725.3 L-922.7 -725.3 L-920.8 -725.3 L-918.8 -725.2 L-916.8 -725.2 L-914.9 -725.2 L-912.9 -725.2 L-910.9 -725.1 L-909 -725.1 L-907 -725.1 L-905.1 -725.1 L-903.1 -725 L-901.1 -725 L-899.2 -725 L-897.2 -725 L-895.3 -724.9 L-893.3 -724.9 L-891.3 -724.9 L-889.4 -724.9 L-887.4 -724.8 L-885.4 -724.8 L-883.5 -724.8 L-881.5 -724.8 L-879.6 -724.7 L-877.6 -724.7 L-875.6 -724.7 L-875.7 -722.7 L-875.7 -720.8 L-875.7 -718.8 L-875.7 -716.8 L-875.8 -714.9 L-875.8 -712.9 L-875.8 -711 L-875.8 -709 L-875.9 -707 L-875.9 -705.1 L-875.9 -703.1 L-875.9 -701.1 L-876 -699.2 L-876 -697.2 L-876 -695.3 L-876 -693.3 L-876.1 -691.3 L-876.1 -689.4 L-876.1 -687.4 L-876.1 -685.5 L-876.2 -683.5 L-876.2 -681.5 L-876.2 -679.6 L-876.2 -677.6 L-876.3 -675.6 Z " />
<path stroke="rgb(0,0,0)" stroke-opacity="0.5" fill="rgb(255,255,255)" fill-opacity="1" d="M-175.3 -99.68 L-175.4 -97.72 L-175.7 -95.77 L-176.1 -93.85 L-176.6 -91.97 L-177.3 -90.14 L-178.2 -88.37 L-179.2 -86.68 L-180.3 -85.07 L-181.6 -83.55 L-182.9 -82.14 L-184.4 -80.84 L-186 -79.66 L-187.6 -78.61 L-189.4 -77.7 L-191.2 -76.93 L-193 -76.3 L-195 -75.82 L-196.9 -75.5 L-198.8 -75.33 L-200.8 -75.32 L-202.8 -75.46 L-204.7 -75.76 L-206.6 -76.21 L-208.5 -76.81 L-210.3 -77.56 L-212.1 -78.45 L-213.7 -79.47 L-215.3 -80.63 L-216.8 -81.91 L-218.2 -83.3 L-219.5 -84.8 L-220.6 -86.4 L-221.6 -88.08 L-222.5 -89.83 L-223.2 -91.65 L-223.8 -93.53 L-224.3 -95.44 L-224.6 -97.39 L-224.7 -99.35 L-224.7 -101.3 L-224.5 -103.3 L-224.1 -105.2 L-223.7 -107.1 L-223 -109 L-222.2 -110.8 L-221.3 -112.5 L-220.2 -114.1 L-219.1 -115.7 L-217.8 -117.2 L-216.3 -118.5 L-214.8 -119.8 L-213.2 -120.9 L-211.5 -121.9 L-209.7 -122.7 L-207.9 -123.4 L-206 -124 L-204.1 -124.4 L-202.1 -124.6 L-200.2 -124.7 L-198.2 -124.6 L-196.2 -124.4 L-194.3 -124 L-192.4 -123.5 L-190.6 -122.8 L-188.8 -122 L-187.1 -121.1 L-185.5 -120 L-183.9 -118.8 L-182.5 -117.4 L-181.1 -116 L-179.9 -114.4 L-178.9 -112.8 L-177.9 -111.1 L-177.1 -109.3 L-176.4 -107.4 L-175.9 -105.5 L-175.6 -103.6 L-175.3 -101.6 L-175.3 -99.68 Z " />
<path stroke="rgb(0,0,0)" stroke-opacity="1" fill="rgb(255,255,255)" fill-opacity="1" d="M-676.2 -675.8 L-678.2 -675.8 L-680.1 -675.8 L-682.1 -675.9 L-684 -675.9 L-686 -675.9 L-688 -675.9 L-689.9 -675.9 L-691.9 -675.9 L-693.8 -676 L-695.8 -676 L-697.7 -676 L-699.7 -676 L-701.7 -676 L-703.6 -676 L-705.6 -676.1 L-707.5 -676.1 L-709.5 -676.1 L-711.4 -676.1 L-713.4 -676.1 L-715.4 -676.1 L-717.3 -676.1 L-719.3 -676.2 L-721.2 -676.2 L-723.2 -676.2 L-725.1 -676.2 L-725.1 -678.2 L-725.1 -680.1 L-725.1 -682.1 L-725.1 -684 L-725.1 -686 L-725 -688 L-725 -689.9 L-725 -691.9 L-725 -693.8 L-725 -695.8 L-725 -697.7 L-725 -699.7 L-724.9 -701.7 L-724.9 -703.6 L-724.9 -705.6 L-724.9 -707.5 L-724.9 -709.5 L-724.9 -711.4 L-724.8 -713.4 L-724.8 -715.4 L-724.8 -717.3 L-724.8 -719.3 L-724.8 -721.2 L-724.8 -723.2 L-724.7 -725.2 L-722.8 -725.1 L-720.8 -725.1 L-718.9 -725.1 L-716.9 -725.1 L-715 -725.1 L-713 -725.1 L-711 -725 L-709.1 -725 L-707.1 -725 L-705.2 -725 L-703.2 -725 L-701.2 -725 L-699.3 -724.9 L-697.3 -724.9 L-695.4 -724.9 L-693.4 -724.9 L-691.5 -724.9 L-689.5 -724.9 L-687.5 -724.8 L-685.6 -724.8 L-683.6 -724.8 L-681.7 -724.8 L-679.7 -724.8 L-677.8 -724.8 L-675.8 -724.7 L-675.8 -722.8 L-675.8 -720.8 L-675.9 -718.9 L-675.9 -716.9 L-675.9 -715 L-675.9 -713 L-675.9 -711 L-675.9 -709.1 L-675.9 -707.1 L-676 -705.2 L-676 -703.2 L-676 -701.3 L-676 -699.3 L-676 -697.3 L-676 -695.4 L-676.1 -693.4 L-676.1 -691.5 L-676.1 -689.5 L-676.1 -687.6 L-676.1 -685.6 L-676.1 -683.6 L-676.2 -681.7 L-676.2 -679.7 L-676.2 -677.8 L-676.2 -675.8 Z " />
<path stroke="rgb(0,0,0)" stroke-opacity="0.5" fill="rgb(255,255,255)" fill-opacity="1" d="M24.7 -99.68 L24.6 -97.72 L24.34 -95.77 L23.93 -93.85 L23.36 -91.97 L22.65 -90.14 L21.8 -88.37 L20.8 -86.68 L19.68 -85.07 L18.43 -83.55 L17.06 -82.14 L15.59 -80.84 L14.02 -79.66 L12.36 -78.61 L10.62 -77.7 L8.814 -76.93 L6.952 -76.3 L5.047 -75.82 L3.11 -75.5 L1.153 -75.33 L-0.8108 -75.32 L-2.77 -75.46 L-4.711 -75.76 L-6.623 -76.21 L-8.492 -76.81 L-10.31 -77.56 L-12.06 -78.45 L-13.73 -79.47 L-15.32 -80.63 L-16.81 -81.91 L-18.2 -83.3 L-19.47 -84.8 L-20.61 -86.4 L-21.63 -88.08 L-22.51 -89.83 L-23.24 -91.65 L-23.83 -93.53 L-24.27 -95.44 L-24.56 -97.39 L-24.69 -99.35 L-24.66 -101.3 L-24.48 -103.3 L-24.15 -105.2 L-23.66 -107.1 L-23.02 -109 L-22.23 -110.8 L-21.31 -112.5 L-20.25 -114.1 L-19.06 -115.7 L-17.75 -117.2 L-16.33 -118.5 L-14.81 -119.8 L-13.19 -120.9 L-11.49 -121.9 L-9.717 -122.7 L-7.882 -123.4 L-5.997 -124 L-4.074 -124.4 L-2.126 -124.6 L-0.1638 -124.7 L1.799 -124.6 L3.751 -124.4 L5.679 -124 L7.571 -123.5 L9.415 -122.8 L11.2 -122 L12.91 -121.1 L14.55 -120 L16.09 -118.8 L17.53 -117.4 L18.85 -116 L20.06 -114.4 L21.14 -112.8 L22.09 -111.1 L22.9 -109.3 L23.56 -107.4 L24.08 -105.5 L24.44 -103.6 L24.65 -101.6 L24.7 -99.68 Z " />
<path stroke="rgb(0,0,0)" stroke-opacity="1" fill="rgb(255,255,255)" fill-opacity="1" d="M-474.8 -680.1 L-476.7 -679.8 L-478.5 -679.6 L-480.3 -679.4 L-482.2 -679.2 L-484 -679 L-485.9 -678.8 L-487.7 -678.6 L-489.6 -678.4 L-491.4 -678.1 L-493.2 -677.9 L-495.1 -677.7 L-496.9 -677.5 L-498.8 -677.3 L-500.6 -677.1 L-502.4 -676.9 L-504.3 -676.7 L-506.1 -676.5 L-508 -676.2 L-509.8 -676 L-511.7 -675.8 L-513.5 -675.6 L-515.3 -675.4 L-517.2 -675.2 L-519 -675 L-520.9 -674.8 L-521.1 -676.6 L-521.3 -678.4 L-521.5 -680.3 L-521.7 -682.1 L-521.9 -684 L-522.1 -685.8 L-522.4 -687.7 L-522.6 -689.5 L-522.8 -691.3 L-523 -693.2 L-523.2 -695 L-523.4 -696.9 L-523.6 -698.7 L-523.8 -700.6 L-524 -702.4 L-524.3 -704.2 L-524.5 -706.1 L-524.7 -707.9 L-524.9 -709.8 L-525.1 -711.6 L-525.3 -713.4 L-525.5 -715.3 L-525.7 -717.1 L-526 -719 L-526.2 -720.8 L-524.3 -721 L-522.5 -721.2 L-520.6 -721.5 L-518.8 -721.7 L-517 -721.9 L-515.1 -722.1 L-513.3 -722.3 L-511.4 -722.5 L-509.6 -722.7 L-507.7 -722.9 L-505.9 -723.1 L-504.1 -723.4 L-502.2 -723.6 L-500.4 -723.8 L-498.5 -724 L-496.7 -724.2 L-494.8 -724.4 L-493 -724.6 L-491.2 -724.8 L-489.3 -725.1 L-487.5 -725.3 L-485.6 -725.5 L-483.8 -725.7 L-481.9 -725.9 L-480.1 -726.1 L-479.9 -724.3 L-479.7 -722.4 L-479.5 -720.6 L-479.3 -718.7 L-479 -716.9 L-478.8 -715.1 L-478.6 -713.2 L-478.4 -711.4 L-478.2 -709.5 L-478 -707.7 L-477.8 -705.8 L-477.6 -704 L-477.4 -702.2 L-477.1 -700.3 L-476.9 -698.5 L-476.7 -696.6 L-476.5 -694.8 L-476.3 -693 L-476.1 -691.1 L-475.9 -689.3 L-475.7 -687.4 L-475.4 -685.6 L-475.2 -683.7 L-475 -681.9 L-474.8 -680.1 Z " />
<path stroke="rgb(0,0,0)" stroke-opacity="0.5" fill="rgb(255,255,255)" fill-opacity="1" d="M224.7 -99.68 L224.6 -97.72 L224.3 -95.77 L223.9 -93.85 L223.4 -91.97 L222.7 -90.14 L221.8 -88.37 L220.8 -86.68 L219.7 -85.07 L218.4 -83.55 L217.1 -82.14 L215.6 -80.84 L214 -79.66 L212.4 -78.61 L210.6 -77.7 L208.8 -76.93 L207 -76.3 L205 -75.82 L203.1 -75.5 L201.2 -75.33 L199.2 -75.32 L197.2 -75.46 L195.3 -75.76 L193.4 -76.21 L191.5 -76.81 L189.7 -77.56 L187.9 -78.45 L186.3 -79.47 L184.7 -80.63 L183.2 -81.91 L181.8 -83.3 L180.5 -84.8 L179.4 -86.4 L178.4 -88.08 L177.5 -89.83 L176.8 -91.65 L176.2 -93.53 L175.7 -95.44 L175.4 -97.39 L175.3 -99.35 L175.3 -101.3 L175.5 -103.3 L175.9 -105.2 L176.3 -107.1 L177 -109 L177.8 -110.8 L178.7 -112.5 L179.8 -114.1 L180.9 -115.7 L182.2 -117.2 L183.7 -118.5 L185.2 -119.8 L186.8 -120.9 L188.5 -121.9 L190.3 -122.7 L192.1 -123.4 L194 -124 L195.9 -124.4 L197.9 -124.6 L199.8 -124.7 L201.8 -124.6 L203.8 -124.4 L205.7 -124 L207.6 -123.5 L209.4 -122.8 L211.2 -122 L212.9 -121.1 L214.5 -120 L216.1 -118.8 L217.5 -117.4 L218.9 -116 L220.1 -114.4 L221.1 -112.8 L222.1 -111.1 L222.9 -109.3 L223.6 -107.4 L224.1 -105.5 L224.4 -103.6 L224.7 -101.6 L224.7 -99.68 Z " />
<path stroke="rgb(0,0,0)" stroke-opacity="1" fill="rgb(255,255,255)" fill-opacity="1" d="M-274.3 -694.8 L-275.6 -693.9 L-276.9 -693.1 L-278.1 -692.3 L-279.4 -691.5 L-280.7 -690.6 L-281.9 -689.8 L-283.2 -689 L-284.5 -688.2 L-285.7 -687.3 L-287 -686.5 L-288.3 -685.7 L-289.5 -684.9 L-290.8 -684 L-292.1 -683.2 L-293.3 -682.4 L-294.6 -681.6 L-295.9 -680.7 L-297.1 -679.9 L-298.4 -679.1 L-299.7 -678.3 L-300.9 -677.4 L-302.2 -676.6 L-303.5 -675.8 L-304.7 -675 L-306 -674.1 L-306.8 -675.4 L-307.7 -676.7 L-308.5 -677.9 L-309.3 -679.2 L-310.1 -680.5 L-311 -681.7 L-311.8 -683 L-312.6 -684.3 L-313.4 -685.5 L-314.3 -686.8 L-315.1 -688.1 L-315.9 -689.3 L-316.7 -690.6 L-317.6 -691.9 L-318.4 -693.1 L-319.2 -694.4 L-320 -695.7 L-320.9 -696.9 L-321.7 -698.2 L-322.5 -699.5 L-323.4 -700.7 L-324.2 -702 L-325 -703.3 L-325.8 -704.5 L-326.7 -705.8 L-325.4 -706.6 L-324.1 -707.5 L-322.9 -708.3 L-321.6 -709.1 L-320.3 -709.9 L-319.1 -710.8 L-317.8 -711.6 L-316.5 -712.4 L-315.2 -713.2 L-314 -714.1 L-312.7 -714.9 L-311.4 -715.7 L-310.2 -716.5 L-308.9 -717.4 L-307.6 -718.2 L-306.4 -719 L-305.1 -719.8 L-303.8 -720.7 L-302.6 -721.5 L-301.3 -722.3 L-300 -723.1 L-298.8 -724 L-297.5 -724.8 L-296.2 -725.6 L-295 -726.5 L-294.1 -725.2 L-293.3 -723.9 L-292.5 -722.6 L-291.7 -721.4 L-290.8 -720.1 L-290 -718.8 L-289.2 -717.6 L-288.4 -716.3 L-287.5 -715 L-286.7 -713.8 L-285.9 -712.5 L-285.1 -711.2 L-284.2 -710 L-283.4 -708.7 L-282.6 -707.4 L-281.8 -706.2 L-280.9 -704.9 L-280.1 -703.6 L-279.3 -702.4 L-278.5 -701.1 L-277.6 -699.8 L-276.8 -698.6 L-276 -697.3 L-275.2 -696 L-274.3 -694.8 Z " />
<path stroke="rgb(0,0,0)" stroke-opacity="0.5" fill="rgb(255,255,255)" fill-opacity="1" d="M-275.3 0.3195 L-275.4 2.281 L-275.7 4.228 L-276.1 6.148 L-276.6 8.029 L-277.3 9.86 L-278.2 11.63 L-279.2 13.32 L-280.3 14.93 L-281.6 16.45 L-282.9 17.86 L-284.4 19.16 L-286 20.34 L-287.6 21.39 L-289.4 22.3 L-291.2 23.07 L-293 23.7 L-295 24.18 L-296.9 24.5 L-298.8 24.67 L-300.8 24.68 L-302.8 24.54 L-304.7 24.24 L-306.6 23.79 L-308.5 23.19 L-310.3 22.44 L-312.1 21.55 L-313.7 20.53 L-315.3 19.37 L-316.8 18.09 L-318.2 16.7 L-319.5 15.2 L-320.6 13.6 L-321.6 11.92 L-322.5 10.17 L-323.2 8.345 L-323.8 6.472 L-324.3 4.558 L-324.6 2.614 L-324.7 0.6546 L-324.7 -1.309 L-324.5 -3.265 L-324.1 -5.2 L-323.7 -7.102 L-323 -8.96 L-322.2 -10.76 L-321.3 -12.49 L-320.2 -14.15 L-319.1 -15.71 L-317.8 -17.18 L-316.3 -18.53 L-314.8 -19.77 L-313.2 -20.89 L-311.5 -21.87 L-309.7 -22.71 L-307.9 -23.41 L-306 -23.97 L-304.1 -24.37 L-302.1 -24.61 L-300.2 -24.7 L-298.2 -24.64 L-296.2 -24.42 L-294.3 -24.04 L-292.4 -23.52 L-290.6 -22.84 L-288.8 -22.02 L-287.1 -21.06 L-285.5 -19.97 L-283.9 -18.75 L-282.5 -17.42 L-281.1 -15.97 L-279.9 -14.42 L-278.9 -12.78 L-277.9 -11.06 L-277.1 -9.271 L-276.4 -7.423 L-275.9 -5.527 L-275.6 -3.597 L-275.3 -1.644 L-275.3 0.3195 Z " />
<path stroke="rgb(0,0,0)" stroke-opacity="1" fill="rgb(255,255,255)" fill-opacity="1" d="M-776.2 -575.8 L-778.2 -575.8 L-780.1 -575.8 L-782.1 -575.9 L-784 -575.9 L-786 -575.9 L-788 -575.9 L-789.9 -575.9 L-791.9 -575.9 L-793.8 -576 L-795.8 -576 L-797.7 -576 L-799.7 -576 L-801.7 -576 L-803.6 -576 L-805.6 -576.1 L-807.5 -576.1 L-809.5 -576.1 L-811.4 -576.1 L-813.4 -576.1 L-815.4 -576.1 L-817.3 -576.1 L-819.3 -576.2 L-821.2 -576.2 L-823.2 -576.2 L-825.1 -576.2 L-825.1 -578.2 L-825.1 -580.1 L-825.1 -582.1 L-825.1 -584 L-825.1 -586 L-825 -588 L-825 -589.9 L-825 -591.9 L-825 -593.8 L-825 -595.8 L-825 -597.7 L-825 -599.7 L-824.9 -601.7 L-824.9 -603.6 L-824.9 -605.6 L-824.9 -607.5 L-824.9 -609.5 L-824.9 -611.4 L-824.8 -613.4 L-824.8 -615.4 L-824.8 -617.3 L-824.8 -619.3 L-824.8 -621.2 L-824.8 -623.2 L-824.7 -625.2 L-822.8 -625.1 L-820.8 -625.1 L-818.9 -625.1 L-816.9 -625.1 L-815 -625.1 L-813 -625.1 L-811 -625 L-809.1 -625 L-807.1 -625 L-805.2 -625 L-803.2 -625 L-801.2 -625 L-799.3 -624.9 L-797.3 -624.9 L-795.4 -624.9 L-793.4 -624.9 L-791.5 -624.9 L-789.5 -624.9 L-787.5 -624.8 L-785.6 -624.8 L-783.6 -624.8 L-781.7 -624.8 L-779.7 -624.8 L-777.8 -624.8 L-775.8 -624.7 L-775.8 -622.8 L-775.8 -620.8 L-775.9 -618.9 L-775.9 -616.9 L-775.9 -615 L-775.9 -613 L-775.9 -611 L-775.9 -609.1 L-775.9 -607.1 L-776 -605.2 L-776 -603.2 L-776 -601.3 L-776 -599.3 L-776 -597.3 L-776 -595.4 L-776.1 -593.4 L-776.1 -591.5 L-776.1 -589.5 L-776.1 -587.6 L-776.1 -585.6 L-776.1 -583.6 L-776.2 -581.7 L-776.2 -579.7 L-776.2 -577.8 L-776.2 -575.8 Z " />
<path stroke="rgb(0,0,0)" stroke-opacity="0.5" fill="rgb(255,255,255)" fill-opacity="1" d="M-75.3 0.3195 L-75.4 2.281 L-75.66 4.228 L-76.07 6.148 L-76.64 8.029 L-77.35 9.86 L-78.2 11.63 L-79.2 13.32 L-80.32 14.93 L-81.57 16.45 L-82.94 17.86 L-84.41 19.16 L-85.98 20.34 L-87.64 21.39 L-89.38 22.3 L-91.19 23.07 L-93.05 23.7 L-94.95 24.18 L-96.89 24.5 L-98.85 24.67 L-100.8 24.68 L-102.8 24.54 L-104.7 24.24 L-106.6 23.79 L-108.5 23.19 L-110.3 22.44 L-112.1 21.55 L-113.7 20.53 L-115.3 19.37 L-116.8 18.09 L-118.2 16.7 L-119.5 15.2 L-120.6 13.6 L-121.6 11.92 L-122.5 10.17 L-123.2 8.345 L-123.8 6.472 L-124.3 4.558 L-124.6 2.614 L-124.7 0.6546 L-124.7 -1.309 L-124.5 -3.265 L-124.1 -5.2 L-123.7 -7.102 L-123 -8.96 L-122.2 -10.76 L-121.3 -12.49 L-120.2 -14.15 L-119.1 -15.71 L-117.8 -17.18 L-116.3 -18.53 L-114.8 -19.77 L-113.2 -20.89 L-111.5 -21.87 L-109.7 -22.71 L-107.9 -23.41 L-106 -23.97 L-104.1 -24.37 L-102.1 -24.61 L-100.2 -24.7 L-98.2 -24.64 L-96.25 -24.42 L-94.32 -24.04 L-92.43 -23.52 L-90.58 -22.84 L-88.8 -22.02 L-87.09 -21.06 L-85.45 -19.97 L-83.91 -18.75 L-82.47 -17.42 L-81.15 -15.97 L-79.94 -14.42 L-78.86 -12.78 L-77.91 -11.06 L-77.1 -9.271 L-76.44 -7.423 L-75.92 -5.527 L-75.56 -3.597 L-75.35 -1.644 L-75.3 0.3195 Z " />
<path stroke="rgb(0,0,0)" stroke-opacity="1" fill="rgb(255,255,255)" fill-opacity="1" d="M-574.8 -580.1 L-576.7 -579.8 L-578.5 -579.6 L-580.3 -579.4 L-582.2 -579.2 L-584 -579 L-585.9 -578.8 L-587.7 -578.6 L-589.6 -578.4 L-591.4 -578.1 L-593.2 -577.9 L-595.1 -577.7 L-596.9 -577.5 L-598.8 -577.3 L-600.6 -577.1 L-602.4 -576.9 L-604.3 -576.7 L-606.1 -576.5 L-608 -576.2 L-609.8 -576 L-611.7 -575.8 L-613.5 -575.6 L-615.3 -575.4 L-617.2 -575.2 L-619 -575 L-620.9 -574.8 L-621.1 -576.6 L-621.3 -578.4 L-621.5 -580.3 L-621.7 -582.1 L-621.9 -584 L-622.1 -585.8 L-622.4 -587.7 L-622.6 -589.5 L-622.8 -591.3 L-623 -593.2 L-623.2 -595 L-623.4 -596.9 L-623.6 -598.7 L-623.8 -600.6 L-624 -602.4 L-624.3 -604.2 L-624.5 -606.1 L-624.7 -607.9 L-624.9 -609.8 L-625.1 -611.6 L-625.3 -613.4 L-625.5 -615.3 L-625.7 -617.1 L-626 -619 L-626.2 -620.8 L-624.3 -621 L-622.5 -621.2 L-620.6 -621.5 L-618.8 -621.7 L-617 -621.9 L-615.1 -622.1 L-613.3 -622.3 L-611.4 -622.5 L-609.6 -622.7 L-607.7 -622.9 L-605.9 -623.1 L-604.1 -623.4 L-602.2 -623.6 L-600.4 -623.8 L-598.5 -624 L-596.7 -624.2 L-594.8 -624.4 L-593 -624.6 L-591.2 -624.8 L-589.3 -625.1 L-587.5 -625.3 L-585.6 -625.5 L-583.8 -625.7 L-581.9 -625.9 L-580.1 -626.1 L-579.9 -624.3 L-579.7 -622.4 L-579.5 -620.6 L-579.3 -618.7 L-579 -616.9 L-578.8 -615.1 L-578.6 -613.2 L-578.4 -611.4 L-578.2 -609.5 L-578 -607.7 L-577.8 -605.8 L-577.6 -604 L-577.4 -602.2 L-577.1 -600.3 L-576.9 -598.5 L-576.7 -596.6 L-576.5 -594.8 L-576.3 -593 L-576.1 -591.1 L-575.9 -589.3 L-575.7 -587.4 L-575.4 -585.6 L-575.2 -583.7 L-575 -581.9 L-574.8 -580.1 Z " />
<path stroke="rgb(0,0,0)" stroke-opacity="0.5" fill="rgb(255,255,255)" fill-opacity="1" d="M124.7 0.3195 L124.6 2.281 L124.3 4.228 L123.9 6.148 L123.4 8.029 L122.7 9.86 L121.8 11.63 L120.8 13.32 L119.7 14.93 L118.4 16.45 L117.1 17.86 L115.6 19.16 L114 20.34 L112.4 21.39 L110.6 22.3 L108.8 23.07 L107 23.7 L105 24.18 L103.1 24.5 L101.2 24.67 L99.19 24.68 L97.23 24.54 L95.29 24.24 L93.38 23.79 L91.51 23.19 L89.69 22.44 L87.94 21.55 L86.27 20.53 L84.68 19.37 L83.19 18.09 L81.8 16.7 L80.53 15.2 L79.39 13.6 L78.37 11.92 L77.49 10.17 L76.76 8.345 L76.17 6.472 L75.73 4.558 L75.44 2.614 L75.31 0.6546 L75.34 -1.309 L75.52 -3.265 L75.85 -5.2 L76.34 -7.102 L76.98 -8.96 L77.77 -10.76 L78.69 -12.49 L79.75 -14.15 L80.94 -15.71 L82.25 -17.18 L83.67 -18.53 L85.19 -19.77 L86.81 -20.89 L88.51 -21.87 L90.28 -22.71 L92.12 -23.41 L94 -23.97 L95.93 -24.37 L97.87 -24.61 L99.84 -24.7 L101.8 -24.64 L103.8 -24.42 L105.7 -24.04 L107.6 -23.52 L109.4 -22.84 L111.2 -22.02 L112.9 -21.06 L114.5 -19.97 L116.1 -18.75 L117.5 -17.42 L118.9 -15.97 L120.1 -14.42 L121.1 -12.78 L122.1 -11.06 L122.9 -9.271 L123.6 -7.423 L124.1 -5.527 L124.4 -3.597 L124.7 -1.644 L124.7 0.3195 Z " />
<path stroke="rgb(0,0,0)" stroke-opacity="1" fill="rgb(255,255,255)" fill-opacity="1" d="M-374.3 -594.8 L-375.6 -593.9 L-376.9 -593.1 L-378.1 -592.3 L-379.4 -591.5 L-380.7 -590.6 L-381.9 -589.8 L-383.2 -589 L-384.5 -588.2 L-385.7 -587.3 L-387 -586.5 L-388.3 -585.7 L-389.5 -584.9 L-390.8 -584 L-392.1 -583.2 L-393.3 -582.4 L-394.6 -581.6 L-395.9 -580.7 L-397.1 -579.9 L-398.4 -579.1 L-399.7 -578.3 L-400.9 -577.4 L-402.2 -576.6 L-403.5 -575.8 L-404.7 -575 L-406 -574.1 L-406.8 -575.4 L-407.7 -576.7 L-408.5 -577.9 L-409.3 -579.2 L-410.1 -580.5 L-411 -581.7 L-411.8 -583 L-412.6 -584.3 L-413.4 -585.5 L-414.3 -586.8 L-415.1 -588.1 L-415.9 -589.3 L-416.7 -590.6 L-417.6 -591.9 L-418.4 -593.1 L-419.2 -594.4 L-420 -595.7 L-420.9 -596.9 L-421.7 -598.2 L-422.5 -599.5 L-423.4 -600.7 L-424.2 -602 L-425 -603.3 L-425.8 -604.5 L-426.7 -605.8 L-425.4 -606.6 L-424.1 -607.5 L-422.9 -608.3 L-421.6 -609.1 L-420.3 -609.9 L-419.1 -610.8 L-417.8 -611.6 L-416.5 -612.4 L-415.2 -613.2 L-414 -614.1 L-412.7 -614.9 L-411.4 -615.7 L-410.2 -616.5 L-408.9 -617.4 L-407.6 -618.2 L-406.4 -619 L-405.1 -619.8 L-403.8 -620.7 L-402.6 -621.5 L-401.3 -622.3 L-400 -623.1 L-398.8 -624 L-397.5 -624.8 L-396.2 -625.6 L-395 -626.5 L-394.1 -625.2 L-393.3 -623.9 L-392.5 -622.6 L-391.7 -621.4 L-390.8 -620.1 L-390 -618.8 L-389.2 -617.6 L-388.4 -616.3 L-387.5 -615 L-386.7 -613.8 L-385.9 -612.5 L-385.1 -611.2 L-384.2 -610 L-383.4 -608.7 L-382.6 -607.4 L-381.8 -606.2 L-380.9 -604.9 L-380.1 -603.6 L-379.3 -602.4 L-378.5 -601.1 L-377.6 -599.8 L-376.8 -598.6 L-376 -597.3 L-375.2 -596 L-374.3 -594.8 Z " />
<path stroke="rgb(0,0,0)" stroke-opacity="0.5" fill="rgb(255,255,255)" fill-opacity="1" d="M324.7 0.3195 L324.6 2.281 L324.3 4.228 L323.9 6.148 L323.4 8.029 L322.7 9.86 L321.8 11.63 L320.8 13.32 L319.7 14.93 L318.4 16.45 L317.1 17.86 L315.6 19.16 L314 20.34 L312.4 21.39 L310.6 22.3 L308.8 23.07 L307 23.7 L305 24.18 L303.1 24.5 L301.2 24.67 L299.2 24.68 L297.2 24.54 L295.3 24.24 L293.4 23.79 L291.5 23.19 L289.7 22.44 L287.9 21.55 L286.3 20.53 L284.7 19.37 L283.2 18.09 L281.8 16.7 L280.5 15.2 L279.4 13.6 L278.4 11.92 L277.5 10.17 L276.8 8.345 L276.2 6.472 L275.7 4.558 L275.4 2.614 L275.3 0.6546 L275.3 -1.309 L275.5 -3.265 L275.9 -5.2 L276.3 -7.102 L277 -8.96 L277.8 -10.76 L278.7 -12.49 L279.8 -14.15 L280.9 -15.71 L282.2 -17.18 L283.7 -18.53 L285.2 -19.77 L286.8 -20.89 L288.5 -21.87 L290.3 -22.71 L292.1 -23.41 L294 -23.97 L295.9 -24.37 L297.9 -24.61 L299.8 -24.7 L301.8 -24.64 L303.8 -24.42 L305.7 -24.04 L307.6 -23.52 L309.4 -22.84 L311.2 -22.02 L312.9 -21.06 L314.5 -19.97 L316.1 -18.75 L317.5 -17.42 L318.9 -15.97 L320.1 -14.42 L321.1 -12.78 L322.1 -11.06 L322.9 -9.271 L323.6 -7.423 L324.1 -5.527 L324.4 -3.597 L324.7 -1.644 L324.7 0.3195 Z " />
<path stroke="rgb(0,0,0)" stroke-opacity="1" fill="rgb(255,255,255)" fill-opacity="1" d="M-876.2 -475.8 L-878.2 -475.8 L-880.1 -475.8 L-882.1 -475.9 L-884 -475.9 L-886 -475.9 L-888 -475.9 L-889.9 -475.9 L-891.9 -475.9 L-893.8 -476 L-895.8 -476 L-897.7 -476 L-899.7 -476 L-901.7 -476 L-903.6 -476 L-905.6 -476.1 L-907.5 -476.1 L-909.5 -476.1 L-911.4 -476.1 L-913.4 -476.1 L-915.4 -476.1 L-917.3 -476.1 L-919.3 -476.2 L-921.2 -476.2 L-923.2 -476.2 L-925.1 -476.2 L-925.1 -478.2 L-925.1 -480.1 L-925.1 -482.1 L-925.1 -484 L-925.1 -486 L-925 -488 L-925 -489.9 L-925 -491.9 L-925 -493.8 L-925 -495.8 L-925 -497.7 L-925 -499.7 L-924.9 -501.7 L-924.9 -503.6 L-924.9 -505.6 L-924.9 -507.5 L-924.9 -509.5 L-924.9 -511.4 L-924.8 -513.4 L-924.8 -515.4 L-924.8 -517.3 L-924.8 -519.3 L-924.8 -521.2 L-924.8 -523.2 L-924.7 -525.2 L-922.8 -525.1 L-920.8 -525.1 L-918.9 -525.1 L-916.9 -525.1 L-915 -525.1 L-913 -525.1 L-911 -525 L-909.1 -525 L-907.1 -525 L-905.2 -525 L-903.2 -525 L-901.2 -525 L-899.3 -524.9 L-897.3 -524.9 L-895.4 -524.9 L-893.4 -524.9 L-891.5 -524.9 L-889.5 -524.9 L-887.5 -524.8 L-885.6 -524.8 L-883.6 -524.8 L-881.7 -524.8 L-879.7 -524.8 L-877.8 -524.8 L-875.8 -524.7 L-875.8 -522.8 L-875.8 -520.8 L-875.9 -518.9 L-875.9 -516.9 L-875.9 -515 L-875.9 -513 L-875.9 -511 L-875.9 -509.1 L-875.9 -507.1 L-876 -505.2 L-876 -503.2 L-876 -501.3 L-876 -499.3 L-876 -497.3 L-876 -495.4 L-876.1 -493.4 L-876.1 -491.5 L-876.1 -489.5 L-876.1 -487.6 L-876.1 -485.6 L-876.1 -483.6 L-876.2 -481.7 L-876.2 -479.7 L-876.2 -477.8 L-876.2 -475.8 Z " />
<path stroke="rgb(0,0,0)" stroke-opacity="0.5" fill="rgb(255,255,255)" fill-opacity="1" d="M-175.3 100.3 L-175.4 102.3 L-175.7 104.2 L-176.1 106.1 L-176.6 108 L-177.3 109.9 L-178.2 111.6 L-179.2 113.3 L-180.3 114.9 L-181.6 116.4 L-182.9 117.9 L-184.4 119.2 L-186 120.3 L-187.6 121.4 L-189.4 122.3 L-191.2 123.1 L-193 123.7 L-195 124.2 L-196.9 124.5 L-198.8 124.7 L-200.8 124.7 L-202.8 124.5 L-204.7 124.2 L-206.6 123.8 L-208.5 123.2 L-210.3 122.4 L-212.1 121.6 L-213.7 120.5 L-215.3 119.4 L-216.8 118.1 L-218.2 116.7 L-219.5 115.2 L-220.6 113.6 L-221.6 111.9 L-222.5 110.2 L-223.2 108.3 L-223.8 106.5 L-224.3 104.6 L-224.6 102.6 L-224.7 100.7 L-224.7 98.69 L-224.5 96.74 L-224.1 94.8 L-223.7 92.9 L-223 91.04 L-222.2 89.24 L-221.3 87.51 L-220.2 85.85 L-219.1 84.29 L-217.8 82.82 L-216.3 81.47 L-214.8 80.23 L-213.2 79.11 L-211.5 78.13 L-209.7 77.29 L-207.9 76.59 L-206 76.03 L-204.1 75.63 L-202.1 75.39 L-200.2 75.3 L-198.2 75.36 L-196.2 75.58 L-194.3 75.96 L-192.4 76.48 L-190.6 77.16 L-188.8 77.98 L-187.1 78.94 L-185.5 80.03 L-183.9 81.25 L-182.5 82.58 L-181.1 84.03 L-179.9 85.58 L-178.9 87.22 L-177.9 88.94 L-177.1 90.73 L-176.4 92.58 L-175.9 94.47 L-175.6 96.4 L-175.3 98.36 L-175.3 100.3 Z " />
<path stroke="rgb(0,0,0)" stroke-opacity="1" fill="rgb(255,255,255)" fill-opacity="1" d="M-674.8 -480.1 L-676.7 -479.8 L-678.5 -479.6 L-680.3 -479.4 L-682.2 -479.2 L-684 -479 L-685.9 -478.8 L-687.7 -478.6 L-689.6 -478.4 L-691.4 -478.1 L-693.2 -477.9 L-695.1 -477.7 L-696.9 -477.5 L-698.8 -477.3 L-700.6 -477.1 L-702.4 -476.9 L-704.3 -476.7 L-706.1 -476.5 L-708 -476.2 L-709.8 -476 L-711.7 -475.8 L-713.5 -475.6 L-715.3 -475.4 L-717.2 -475.2 L-719 -475 L-720.9 -474.8 L-721.1 -476.6 L-721.3 -478.4 L-721.5 -480.3 L-721.7 -482.1 L-721.9 -484 L-722.1 -485.8 L-722.4 -487.7 L-722.6 -489.5 L-722.8 -491.3 L-723 -493.2 L-723.2 -495 L-723.4 -496.9 L-723.6 -498.7 L-723.8 -500.6 L-724 -502.4 L-724.3 -504.2 L-724.5 -506.1 L-724.7 -507.9 L-724.9 -509.8 L-725.1 -511.6 L-725.3 -513.4 L-725.5 -515.3 L-725.7 -517.1 L-726 -519 L-726.2 -520.8 L-724.3 -521 L-722.5 -521.2 L-720.6 -521.5 L-718.8 -521.7 L-717 -521.9 L-715.1 -522.1 L-713.3 -522.3 L-711.4 -522.5 L-709.6 -522.7 L-707.7 -522.9 L-705.9 -523.1 L-704.1 -523.4 L-702.2 -523.6 L-700.4 -523.8 L-698.5 -524 L-696.7 -524.2 L-694.8 -524.4 L-693 -524.6 L-691.2 -524.8 L-689.3 -525.1 L-687.5 -525.3 L-685.6 -525.5 L-683.8 -525.7 L-681.9 -525.9 L-680.1 -526.1 L-679.9 -524.3 L-679.7 -522.4 L-679.5 -520.6 L-679.3 -518.7 L-679 -516.9 L-678.8 -515.1 L-678.6 -513.2 L-678.4 -511.4 L-678.2 -509.5 L-678 -507.7 L-677.8 -505.8 L-677.6 -504 L-677.4 -502.2 L-677.1 -500.3 L-676.9 -498.5 L-676.7 -496.6 L-676.5 -494.8 L-676.3 -493 L-676.1 -491.1 L-675.9 -489.3 L-675.7 -487.4 L-675.4 -485.6 L-675.2 -483.7 L-675 -481.9 L-674.8 -480.1 Z " />
<path stroke="rgb(0,0,0)" stroke-opacity="0.5" fill="rgb(255,255,255)" fill-opacity="1" d="M24.7 100.3 L24.6 102.3 L24.34 104.2 L23.93 106.1 L23.36 108 L22.65 109.9 L21.8 111.6 L20.8 113.3 L19.68 114.9 L18.43 116.4 L17.06 117.9 L15.59 119.2 L14.02 120.3 L12.36 121.4 L10.62 122.3 L8.814 123.1 L6.952 123.7 L5.047 124.2 L3.11 124.5 L1.153 124.7 L-0.8108 124.7 L-2.77 124.5 L-4.711 124.2 L-6.623 123.8 L-8.492 123.2 L-10.31 122.4 L-12.06 121.6 L-13.73 120.5 L-15.32 119.4 L-16.81 118.1 L-18.2 116.7 L-19.47 115.2 L-20.61 113.6 L-21.63 111.9 L-22.51 110.2 L-23.24 108.3 L-23.83 106.5 L-24.27 104.6 L-24.56 102.6 L-24.69 100.7 L-24.66 98.69 L-24.48 96.74 L-24.15 94.8 L-23.66 92.9 L-23.02 91.04 L-22.23 89.24 L-21.31 87.51 L-20.25 85.85 L-19.06 84.29 L-17.75 82.82 L-16.33 81.47 L-14.81 80.23 L-13.19 79.11 L-11.49 78.13 L-9.717 77.29 L-7.882 76.59 L-5.997 76.03 L-4.074 75.63 L-2.126 75.39 L-0.1638 75.3 L1.799 75.36 L3.751 75.58 L5.679 75.96 L7.571 76.48 L9.415 77.16 L11.2 77.98 L12.91 78.94 L14.55 80.03 L16.09 81.25 L17.53 82.58 L18.85 84.03 L20.06 85.58 L21.14 87.22 L22.09 88.94 L22.9 90.73 L23.56 92.58 L24.08 94.47 L24.44 96.4 L24.65 98.36 L24.7 100.3 Z " />
<path stroke="rgb(0,0,0)" stroke-opacity="1" fill="rgb(255,255,255)" fill-opacity="1" d="M-474.3 -494.8 L-475.6 -493.9 L-476.9 -493.1 L-478.1 -492.3 L-479.4 -491.5 L-480.7 -490.6 L-481.9 -489.8 L-483.2 -489 L-484.5 -488.2 L-485.7 -487.3 L-487 -486.5 L-488.3 -485.7 L-489.5 -484.9 L-490.8 -484 L-492.1 -483.2 L-493.3 -482.4 L-494.6 -481.6 L-495.9 -480.7 L-497.1 -479.9 L-498.4 -479.1 L-499.7 -478.3 L-500.9 -477.4 L-502.2 -476.6 L-503.5 -475.8 L-504.7 -475 L-506 -474.1 L-506.8 -475.4 L-507.7 -476.7 L-508.5 -477.9 L-509.3 -479.2 L-510.1 -480.5 L-511 -481.7 L-511.8 -483 L-512.6 -484.3 L-513.4 -485.5 L-514.3 -486.8 L-515.1 -488.1 L-515.9 -489.3 L-516.7 -490.6 L-517.6 -491.9 L-518.4 -493.1 L-519.2 -494.4 L-520 -495.7 L-520.9 -496.9 L-521.7 -498.2 L-522.5 -499.5 L-523.4 -500.7 L-524.2 -502 L-525 -503.3 L-525.8 -504.5 L-526.7 -505.8 L-525.4 -506.6 L-524.1 -507.5 L-522.9 -508.3 L-521.6 -509.1 L-520.3 -509.9 L-519.1 -510.8 L-517.8 -511.6 L-516.5 -512.4 L-515.2 -513.2 L-514 -514.1 L-512.7 -514.9 L-511.4 -515.7 L-510.2 -516.5 L-508.9 -517.4 L-507.6 -518.2 L-506.4 -519 L-505.1 -519.8 L-503.8 -520.7 L-502.6 -521.5 L-501.3 -522.3 L-500 -523.1 L-498.8 -524 L-497.5 -524.8 L-496.2 -525.6 L-495 -526.5 L-494.1 -525.2 L-493.3 -523.9 L-492.5 -522.6 L-491.7 -521.4 L-490.8 -520.1 L-490 -518.8 L-489.2 -517.6 L-488.4 -516.3 L-487.5 -515 L-486.7 -513.8 L-485.9 -512.5 L-485.1 -511.2 L-484.2 -510 L-483.4 -508.7 L-482.6 -507.4 L-481.8 -506.2 L-480.9 -504.9 L-480.1 -503.6 L-479.3 -502.4 L-478.5 -501.1 L-477.6 -499.8 L-476.8 -498.6 L-476 -497.3 L-475.2 -496 L-474.3 -494.8 Z " />
<path stroke="rgb(0,0,0)" stroke-opacity="0.5" fill="rgb(255,255,255)" fill-opacity="1" d="M224.7 100.3 L224.6 102.3 L224.3 104.2 L223.9 106.1 L223.4 108 L222.7 109.9 L221.8 111.6 L220.8 113.3 L219.7 114.9 L218.4 116.4 L217.1 117.9 L215.6 119.2 L214 120.3 L212.4 121.4 L210.6 122.3 L208.8 123.1 L207 123.7 L205 124.2 L203.1 124.5 L201.2 124.7 L199.2 124.7 L197.2 124.5 L195.3 124.2 L193.4 123.8 L191.5 123.2 L189.7 122.4 L187.9 121.6 L186.3 120.5 L184.7 119.4 L183.2 118.1 L181.8 116.7 L180.5 115.2 L179.4 113.6 L178.4 111.9 L177.5 110.2 L176.8 108.3 L176.2 106.5 L175.7 104.6 L175.4 102.6 L175.3 100.7 L175.3 98.69 L175.5 96.74 L175.9 94.8 L176.3 92.9 L177 91.04 L177.8 89.24 L178.7 87.51 L179.8 85.85 L180.9 84.29 L182.2 82.82 L183.7 81.47 L185.2 80.23 L186.8 79.11 L188.5 78.13 L190.3 77.29 L192.1 76.59 L194 76.03 L195.9 75.63 L197.9 75.39 L199.8 75.3 L201.8 75.36 L203.8 75.58 L205.7 75.96 L207.6 76.48 L209.4 77.16 L211.2 77.98 L212.9 78.94 L214.5 80.03 L216.1 81.25 L217.5 82.58 L218.9 84.03 L220.1 85.58 L221.1 87.22 L222.1 88.94 L222.9 90.73 L223.6 92.58 L224.1 94.47 L224.4 96.4 L224.7 98.36 L224.7 100.3 Z " />
<path stroke="rgb(0,0,0)" stroke-opacity="1" fill="rgb(255,255,255)" fill-opacity="1" d="M-282.7 -509.1 L-283.1 -508.1 L-283.4 -507 L-283.8 -505.9 L-284.1 -504.9 L-284.5 -503.8 L-284.8 -502.7 L-285.2 -501.7 L-285.5 -500.6 L-285.9 -499.5 L-286.2 -498.5 L-286.6 -497.4 L-286.9 -496.3 L-287.2 -495.3 L-287.6 -494.2 L-287.9 -493.1 L-288.3 -492.1 L-288.6 -491 L-289 -489.9 L-289.3 -488.9 L-289.7 -487.8 L-290 -486.7 L-290.4 -485.7 L-290.7 -484.6 L-291.1 -483.5 L-291.4 -482.5 L-292.5 -482.8 L-293.5 -483.2 L-294.6 -483.5 L-295.7 -483.9 L-296.7 -484.2 L-297.8 -484.6 L-298.9 -484.9 L-299.9 -485.3 L-301 -485.6 L-302.1 -485.9 L-303.1 -486.3 L-304.2 -486.6 L-305.3 -487 L-306.3 -487.3 L-307.4 -487.7 L-308.5 -488 L-309.5 -488.4 L-310.6 -488.7 L-311.7 -489.1 L-312.7 -489.4 L-313.8 -489.8 L-314.9 -490.1 L-315.9 -490.5 L-317 -490.8 L-318.1 -491.1 L-317.7 -492.2 L-317.4 -493.3 L-317 -494.3 L-316.7 -495.4 L-316.3 -496.5 L-316 -497.5 L-315.6 -498.6 L-315.3 -499.7 L-315 -500.7 L-314.6 -501.8 L-314.3 -502.9 L-313.9 -503.9 L-313.6 -505 L-313.2 -506.1 L-312.9 -507.1 L-312.5 -508.2 L-312.2 -509.3 L-311.8 -510.3 L-311.5 -511.4 L-311.1 -512.5 L-310.8 -513.5 L-310.4 -514.6 L-310.1 -515.7 L-309.8 -516.7 L-309.4 -517.8 L-308.3 -517.5 L-307.3 -517.1 L-306.2 -516.8 L-305.1 -516.4 L-304.1 -516.1 L-303 -515.7 L-301.9 -515.4 L-300.9 -515 L-299.8 -514.7 L-298.7 -514.3 L-297.7 -514 L-296.6 -513.7 L-295.5 -513.3 L-294.5 -513 L-293.4 -512.6 L-292.3 -512.3 L-291.3 -511.9 L-290.2 -511.6 L-289.1 -511.2 L-288.1 -510.9 L-287 -510.5 L-285.9 -510.2 L-284.9 -509.8 L-283.8 -509.5 L-282.7 -509.1 Z " />
<path stroke="rgb(0,0,0)" stroke-opacity="0.5" fill="rgb(255,255,255)" fill-opacity="1" d="M-275.3 200.3 L-275.4 202.3 L-275.7 204.2 L-276.1 206.1 L-276.6 208 L-277.3 209.9 L-278.2 211.6 L-279.2 213.3 L-280.3 214.9 L-281.6 216.4 L-282.9 217.9 L-284.4 219.2 L-286 220.3 L-287.6 221.4 L-289.4 222.3 L-291.2 223.1 L-293 223.7 L-295 224.2 L-296.9 224.5 L-298.8 224.7 L-300.8 224.7 L-302.8 224.5 L-304.7 224.2 L-306.6 223.8 L-308.5 223.2 L-310.3 222.4 L-312.1 221.6 L-313.7 220.5 L-315.3 219.4 L-316.8 218.1 L-318.2 216.7 L-319.5 215.2 L-320.6 213.6 L-321.6 211.9 L-322.5 210.2 L-323.2 208.3 L-323.8 206.5 L-324.3 204.6 L-324.6 202.6 L-324.7 200.7 L-324.7 198.7 L-324.5 196.7 L-324.1 194.8 L-323.7 192.9 L-323 191 L-322.2 189.2 L-321.3 187.5 L-320.2 185.9 L-319.1 184.3 L-317.8 182.8 L-316.3 181.5 L-314.8 180.2 L-313.2 179.1 L-311.5 178.1 L-309.7 177.3 L-307.9 176.6 L-306 176 L-304.1 175.6 L-302.1 175.4 L-300.2 175.3 L-298.2 175.4 L-296.2 175.6 L-294.3 176 L-292.4 176.5 L-290.6 177.2 L-288.8 178 L-287.1 178.9 L-285.5 180 L-283.9 181.2 L-282.5 182.6 L-281.1 184 L-279.9 185.6 L-278.9 187.2 L-277.9 188.9 L-277.1 190.7 L-276.4 192.6 L-275.9 194.5 L-275.6 196.4 L-275.3 198.4 L-275.3 200.3 Z " />
<path stroke="rgb(0,0,0)" stroke-opacity="1" fill="rgb(255,255,255)" fill-opacity="1" d="M-774.8 -380.1 L-776.7 -379.8 L-778.5 -379.6 L-780.3 -379.4 L-782.2 -379.2 L-784 -379 L-785.9 -378.8 L-787.7 -378.6 L-789.6 -378.4 L-791.4 -378.1 L-793.2 -377.9 L-795.1 -377.7 L-796.9 -377.5 L-798.8 -377.3 L-800.6 -377.1 L-802.4 -376.9 L-804.3 -376.7 L-806.1 -376.5 L-808 -376.2 L-809.8 -376 L-811.7 -375.8 L-813.5 -375.6 L-815.3 -375.4 L-817.2 -375.2 L-819 -375 L-820.9 -374.8 L-821.1 -376.6 L-821.3 -378.4 L-821.5 -380.3 L-821.7 -382.1 L-821.9 -384 L-822.1 -385.8 L-822.4 -387.7 L-822.6 -389.5 L-822.8 -391.3 L-823 -393.2 L-823.2 -395 L-823.4 -396.9 L-823.6 -398.7 L-823.8 -400.6 L-824 -402.4 L-824.3 -404.2 L-824.5 -406.1 L-824.7 -407.9 L-824.9 -409.8 L-825.1 -411.6 L-825.3 -413.4 L-825.5 -415.3 L-825.7 -417.1 L-826 -419 L-826.2 -420.8 L-824.3 -421 L-822.5 -421.2 L-820.6 -421.5 L-818.8 -421.7 L-817 -421.9 L-815.1 -422.1 L-813.3 -422.3 L-811.4 -422.5 L-809.6 -422.7 L-807.7 -422.9 L-805.9 -423.1 L-804.1 -423.4 L-802.2 -423.6 L-800.4 -423.8 L-798.5 -424 L-796.7 -424.2 L-794.8 -424.4 L-793 -424.6 L-791.2 -424.8 L-789.3 -425.1 L-787.5 -425.3 L-785.6 -425.5 L-783.8 -425.7 L-781.9 -425.9 L-780.1 -426.1 L-779.9 -424.3 L-779.7 -422.4 L-779.5 -420.6 L-779.3 -418.7 L-779 -416.9 L-778.8 -415.1 L-778.6 -413.2 L-778.4 -411.4 L-778.2 -409.5 L-778 -407.7 L-777.8 -405.8 L-777.6 -404 L-777.4 -402.2 L-777.1 -400.3 L-776.9 -398.5 L-776.7 -396.6 L-776.5 -394.8 L-776.3 -393 L-776.1 -391.1 L-775.9 -389.3 L-775.7 -387.4 L-775.4 -385.6 L-775.2 -383.7 L-775 -381.9 L-774.8 -380.1 Z " />
<path stroke="rgb(0,0,0)" stroke-opacity="0.5" fill="rgb(255,255,255)" fill-opacity="1" d="M-75.3 200.3 L-75.4 202.3 L-75.66 204.2 L-76.07 206.1 L-76.64 208 L-77.35 209.9 L-78.2 211.6 L-79.2 213.3 L-80.32 214.9 L-81.57 216.4 L-82.94 217.9 L-84.41 219.2 L-85.98 220.3 L-87.64 221.4 L-89.38 222.3 L-91.19 223.1 L-93.05 223.7 L-94.95 224.2 L-96.89 224.5 L-98.85 224.7 L-100.8 224.7 L-102.8 224.5 L-104.7 224.2 L-106.6 223.8 L-108.5 223.2 L-110.3 222.4 L-112.1 221.6 L-113.7 220.5 L-115.3 219.4 L-116.8 218.1 L-118.2 216.7 L-119.5 215.2 L-120.6 213.6 L-121.6 211.9 L-122.5 210.2 L-123.2 208.3 L-123.8 206.5 L-124.3 204.6 L-124.6 202.6 L-124.7 200.7 L-124.7 198.7 L-124.5 196.7 L-124.1 194.8 L-123.7 192.9 L-123 191 L-122.2 189.2 L-121.3 187.5 L-120.2 185.9 L-119.1 184.3 L-117.8 182.8 L-116.3 181.5 L-114.8 180.2 L-113.2 179.1 L-111.5 178.1 L-109.7 177.3 L-107.9 176.6 L-106 176 L-104.1 175.6 L-102.1 175.4 L-100.2 175.3 L-98.2 175.4 L-96.25 175.6 L-94.32 176 L-92.43 176.5 L-90.58 177.2 L-88.8 178 L-87.09 178.9 L-85.45 180 L-83.91 181.2 L-82.47 182.6 L-81.15 184 L-79.94 185.6 L-78.86 187.2 L-77.91 188.9 L-77.1 190.7 L-76.44 192.6 L-75.92 194.5 L-75.56 196.4 L-75.35 198.4 L-75.3 200.3 Z " />
<path stroke="rgb(0,0,0)" stroke-opacity="1" fill="rgb(255,255,255)" fill-opacity="1" d="M-574.3 -394.8 L-575.6 -393.9 L-576.9 -393.1 L-578.1 -392.3 L-579.4 -391.5 L-580.7 -390.6 L-581.9 -389.8 L-583.2 -389 L-584.5 -388.2 L-585.7 -387.3 L-587 -386.5 L-588.3 -385.7 L-589.5 -384.9 L-590.8 -384 L-592.1 -383.2 L-593.3 -382.4 L-594.6 -381.6 L-595.9 -380.7 L-597.1 -379.9 L-598.4 -379.1 L-599.7 -378.3 L-600.9 -377.4 L-602.2 -376.6 L-603.5 -375.8 L-604.7 -375 L-606 -374.1 L-606.8 -375.4 L-607.7 -376.7 L-608.5 -377.9 L-609.3 -379.2 L-610.1 -380.5 L-611 -381.7 L-611.8 -383 L-612.6 -384.3 L-613.4 -385.5 L-614.3 -386.8 L-615.1 -388.1 L-615.9 -389.3 L-616.7 -390.6 L-617.6 -391.9 L-618.4 -393.1 L-619.2 -394.4 L-620 -395.7 L-620.9 -396.9 L-621.7 -398.2 L-622.5 -399.5 L-623.4 -400.7 L-624.2 -402 L-625 -403.3 L-625.8 -404.5 L-626.7 -405.8 L-625.4 -406.6 L-624.1 -407.5 L-622.9 -408.3 L-621.6 -409.1 L-620.3 -409.9 L-619.1 -410.8 L-617.8 -411.6 L-616.5 -412.4 L-615.2 -413.2 L-614 -414.1 L-612.7 -414.9 L-611.4 -415.7 L-610.2 -416.5 L-608.9 -417.4 L-607.6 -418.2 L-606.4 -419 L-605.1 -419.8 L-603.8 -420.7 L-602.6 -421.5 L-601.3 -422.3 L-600 -423.1 L-598.8 -424 L-597.5 -424.8 L-596.2 -425.6 L-595 -426.5 L-594.1 -425.2 L-593.3 -423.9 L-592.5 -422.6 L-591.7 -421.4 L-590.8 -420.1 L-590 -418.8 L-589.2 -417.6 L-588.4 -416.3 L-587.5 -415 L-586.7 -413.8 L-585.9 -412.5 L-585.1 -411.2 L-584.2 -410 L-583.4 -408.7 L-582.6 -407.4 L-581.8 -406.2 L-580.9 -404.9 L-580.1 -403.6 L-579.3 -402.4 L-578.5 -401.1 L-577.6 -399.8 L-576.8 -398.6 L-576 -397.3 L-575.2 -396 L-574.3 -394.8 Z " />
<path stroke="rgb(0,0,0)" stroke-opacity="0.5" fill="rgb(255,255,255)" fill-opacity="1" d="M124.7 200.3 L124.6 202.3 L124.3 204.2 L123.9 206.1 L123.4 208 L122.7 209.9 L121.8 211.6 L120.8 213.3 L119.7 214.9 L118.4 216.4 L117.1 217.9 L115.6 219.2 L114 220.3 L112.4 221.4 L110.6 222.3 L108.8 223.1 L107 223.7 L105 224.2 L103.1 224.5 L101.2 224.7 L99.19 224.7 L97.23 224.5 L95.29 224.2 L93.38 223.8 L91.51 223.2 L89.69 222.4 L87.94 221.6 L86.27 220.5 L84.68 219.4 L83.19 218.1 L81.8 216.7 L80.53 215.2 L79.39 213.6 L78.37 211.9 L77.49 210.2 L76.76 208.3 L76.17 206.5 L75.73 204.6 L75.44 202.6 L75.31 200.7 L75.34 198.7 L75.52 196.7 L75.85 194.8 L76.34 192.9 L76.98 191 L77.77 189.2 L78.69 187.5 L79.75 185.9 L80.94 184.3 L82.25 182.8 L83.67 181.5 L85.19 180.2 L86.81 179.1 L88.51 178.1 L90.28 177.3 L92.12 176.6 L94 176 L95.93 175.6 L97.87 175.4 L99.84 175.3 L101.8 175.4 L103.8 175.6 L105.7 176 L107.6 176.5 L109.4 177.2 L111.2 178 L112.9 178.9 L114.5 180 L116.1 181.2 L117.5 182.6 L118.9 184 L120.1 185.6 L121.1 187.2 L122.1 188.9 L122.9 190.7 L123.6 192.6 L124.1 194.5 L124.4 196.4 L124.7 198.4 L124.7 200.3 Z " />
<path stroke="rgb(0,0,0)" stroke-opacity="1" fill="rgb(255,255,255)" fill-opacity="1" d="M-382.7 -409.1 L-383.1 -408.1 L-383.4 -407 L-383.8 -405.9 L-384.1 -404.9 L-384.5 -403.8 L-384.8 -402.7 L-385.2 -401.7 L-385.5 -400.6 L-385.9 -399.5 L-386.2 -398.5 L-386.6 -397.4 L-386.9 -396.3 L-387.2 -395.3 L-387.6 -394.2 L-387.9 -393.1 L-388.3 -392.1 L-388.6 -391 L-389 -389.9 L-389.3 -388.9 L-389.7 -387.8 L-390 -386.7 L-390.4 -385.7 L-390.7 -384.6 L-391.1 -383.5 L-391.4 -382.5 L-392.5 -382.8 L-393.5 -383.2 L-394.6 -383.5 L-395.7 -383.9 L-396.7 -384.2 L-397.8 -384.6 L-398.9 -384.9 L-399.9 -385.3 L-401 -385.6 L-402.1 -385.9 L-403.1 -386.3 L-404.2 -386.6 L-405.3 -387 L-406.3 -387.3 L-407.4 -387.7 L-408.5 -388 L-409.5 -388.4 L-410.6 -388.7 L-411.7 -389.1 L-412.7 -389.4 L-413.8 -389.8 L-414.9 -390.1 L-415.9 -390.5 L-417 -390.8 L-418.1 -391.1 L-417.7 -392.2 L-417.4 -393.3 L-417 -394.3 L-416.7 -395.4 L-416.3 -396.5 L-416 -397.5 L-415.6 -398.6 L-415.3 -399.7 L-415 -400.7 L-414.6 -401.8 L-414.3 -402.9 L-413.9 -403.9 L-413.6 -405 L-413.2 -406.1 L-412.9 -407.1 L-412.5 -408.2 L-412.2 -409.3 L-411.8 -410.3 L-411.5 -411.4 L-411.1 -412.5 L-410.8 -413.5 L-410.4 -414.6 L-410.1 -415.7 L-409.8 -416.7 L-409.4 -417.8 L-408.3 -417.5 L-407.3 -417.1 L-406.2 -416.8 L-405.1 -416.4 L-404.1 -416.1 L-403 -415.7 L-401.9 -415.4 L-400.9 -415 L-399.8 -414.7 L-398.7 -414.3 L-397.7 -414 L-396.6 -413.7 L-395.5 -413.3 L-394.5 -413 L-393.4 -412.6 L-392.3 -412.3 L-391.3 -411.9 L-390.2 -411.6 L-389.1 -411.2 L-388.1 -410.9 L-387 -410.5 L-385.9 -410.2 L-384.9 -409.8 L-383.8 -409.5 L-382.7 -409.1 Z " />
<path stroke="rgb(0,0,0)" stroke-opacity="0.5" fill="rgb(255,255,255)" fill-opacity="1" d="M324.7 200.3 L324.6 202.3 L324.3 204.2 L323.9 206.1 L323.4 208 L322.7 209.9 L321.8 211.6 L320.8 213.3 L319.7 214.9 L318.4 216.4 L317.1 217.9 L315.6 219.2 L314 220.3 L312.4 221.4 L310.6 222.3 L308.8 223.1 L307 223.7 L305 224.2 L303.1 224.5 L301.2 224.7 L299.2 224.7 L297.2 224.5 L295.3 224.2 L293.4 223.8 L291.5 223.2 L289.7 222.4 L287.9 221.6 L286.3 220.5 L284.7 219.4 L283.2 218.1 L281.8 216.7 L280.5 215.2 L279.4 213.6 L278.4 211.9 L277.5 210.2 L276.8 208.3 L276.2 206.5 L275.7 204.6 L275.4 202.6 L275.3 200.7 L275.3 198.7 L275.5 196.7 L275.9 194.8 L276.3 192.9 L277 191 L277.8 189.2 L278.7 187.5 L279.8 185.9 L280.9 184.3 L282.2 182.8 L283.7 181.5 L285.2 180.2 L286.8 179.1 L288.5 178.1 L290.3 177.3 L292.1 176.6 L294 176 L295.9 175.6 L297.9 175.4 L299.8 175.3 L301.8 175.4 L303.8 175.6 L305.7 176 L307.6 176.5 L309.4 177.2 L311.2 178 L312.9 178.9 L314.5 180 L316.1 181.2 L317.5 182.6 L318.9 184 L320.1 185.6 L321.1 187.2 L322.1 188.9 L322.9 190.7 L323.6 192.6 L324.1 194.5 L324.4 196.4 L324.7 198.4 L324.7 200.3 Z " />
<path stroke="rgb(0,0,0)" stroke-opacity="1" fill="rgb(255,255,255)" fill-opacity="1" d="M-874.8 -280.1 L-876.7 -279.8 L-878.5 -279.6 L-880.3 -279.4 L-882.2 -279.2 L-884 -279 L-885.9 -278.8 L-887.7 -278.6 L-889.6 -278.4 L-891.4 -278.1 L-893.2 -277.9 L-895.1 -277.7 L-896.9 -277.5 L-898.8 -277.3 L-900.6 -277.1 L-902.4 -276.9 L-904.3 -276.7 L-906.1 -276.5 L-908 -276.2 L-909.8 -276 L-911.7 -275.8 L-913.5 -275.6 L-915.3 -275.4 L-917.2 -275.2 L-919 -275 L-920.9 -274.8 L-921.1 -276.6 L-921.3 -278.4 L-921.5 -280.3 L-921.7 -282.1 L-921.9 -284 L-922.1 -285.8 L-922.4 -287.7 L-922.6 -289.5 L-922.8 -291.3 L-923 -293.2 L-923.2 -295 L-923.4 -296.9 L-923.6 -298.7 L-923.8 -300.6 L-924 -302.4 L-924.3 -304.2 L-924.5 -306.1 L-924.7 -307.9 L-924.9 -309.8 L-925.1 -311.6 L-925.3 -313.4 L-925.5 -315.3 L-925.7 -317.1 L-926 -319 L-926.2 -320.8 L-924.3 -321 L-922.5 -321.2 L-920.6 -321.5 L-918.8 -321.7 L-917 -321.9 L-915.1 -322.1 L-913.3 -322.3 L-911.4 -322.5 L-909.6 -322.7 L-907.7 -322.9 L-905.9 -323.1 L-904.1 -323.4 L-902.2 -323.6 L-900.4 -323.8 L-898.5 -324 L-896.7 -324.2 L-894.8 -324.4 L-893 -324.6 L-891.2 -324.8 L-889.3 -325.1 L-887.5 -325.3 L-885.6 -325.5 L-883.8 -325.7 L-881.9 -325.9 L-880.1 -326.1 L-879.9 -324.3 L-879.7 -322.4 L-879.5 -320.6 L-879.3 -318.7 L-879 -316.9 L-878.8 -315.1 L-878.6 -313.2 L-878.4 -311.4 L-878.2 -309.5 L-878 -307.7 L-877.8 -305.8 L-877.6 -304 L-877.4 -302.2 L-877.1 -300.3 L-876.9 -298.5 L-876.7 -296.6 L-876.5 -294.8 L-876.3 -293 L-876.1 -291.1 L-875.9 -289.3 L-875.7 -287.4 L-875.4 -285.6 L-875.2 -283.7 L-875 -281.9 L-874.8 -280.1 Z " />
<path stroke="rgb(0,0,0)" stroke-opacity="0.5" fill="rgb(255,255,255)" fill-opacity="1" d="M-175.3 300.3 L-175.4 302.3 L-175.7 304.2 L-176.1 306.1 L-176.6 308 L-177.3 309.9 L-178.2 311.6 L-179.2 313.3 L-180.3 314.9 L-181.6 316.4 L-182.9 317.9 L-184.4 319.2 L-186 320.3 L-187.6 321.4 L-189.4 322.3 L-191.2 323.1 L-193 323.7 L-195 324.2 L-196.9 324.5 L-198.8 324.7 L-200.8 324.7 L-202.8 324.5 L-204.7 324.2 L-206.6 323.8 L-208.5 323.2 L-210.3 322.4 L-212.1 321.6 L-213.7 320.5 L-215.3 319.4 L-216.8 318.1 L-218.2 316.7 L-219.5 315.2 L-220.6 313.6 L-221.6 311.9 L-222.5 310.2 L-223.2 308.3 L-223.8 306.5 L-224.3 304.6 L-224.6 302.6 L-224.7 300.7 L-224.7 298.7 L-224.5 296.7 L-224.1 294.8 L-223.7 292.9 L-223 291 L-222.2 289.2 L-221.3 287.5 L-220.2 285.9 L-219.1 284.3 L-217.8 282.8 L-216.3 281.5 L-214.8 280.2 L-213.2 279.1 L-211.5 278.1 L-209.7 277.3 L-207.9 276.6 L-206 276 L-204.1 275.6 L-202.1 275.4 L-200.2 275.3 L-198.2 275.4 L-196.2 275.6 L-194.3 276 L-192.4 276.5 L-190.6 277.2 L-188.8 278 L-187.1 278.9 L-185.5 280 L-183.9 281.2 L-182.5 282.6 L-181.1 284 L-179.9 285.6 L-178.9 287.2 L-177.9 288.9 L-177.1 290.7 L-176.4 292.6 L-175.9 294.5 L-175.6 296.4 L-175.3 298.4 L-175.3 300.3 Z " />
<path stroke="rgb(0,0,0)" stroke-opacity="1" fill="rgb(255,255,255)" fill-opacity="1" d="M-674.3 -294.8 L-675.6 -293.9 L-676.9 -293.1 L-678.1 -292.3 L-679.4 -291.5 L-680.7 -290.6 L-681.9 -289.8 L-683.2 -289 L-684.5 -288.2 L-685.7 -287.3 L-687 -286.5 L-688.3 -285.7 L-689.5 -284.9 L-690.8 -284 L-692.1 -283.2 L-693.3 -282.4 L-694.6 -281.6 L-695.9 -280.7 L-697.1 -279.9 L-698.4 -279.1 L-699.7 -278.3 L-700.9 -277.4 L-702.2 -276.6 L-703.5 -275.8 L-704.7 -275 L-706 -274.1 L-706.8 -275.4 L-707.7 -276.7 L-708.5 -277.9 L-709.3 -279.2 L-710.1 -280.5 L-711 -281.7 L-711.8 -283 L-712.6 -284.3 L-713.4 -285.5 L-714.3 -286.8 L-715.1 -288.1 L-715.9 -289.3 L-716.7 -290.6 L-717.6 -291.9 L-718.4 -293.1 L-719.2 -294.4 L-720 -295.7 L-720.9 -296.9 L-721.7 -298.2 L-722.5 -299.5 L-723.4 -300.7 L-724.2 -302 L-725 -303.3 L-725.8 -304.5 L-726.7 -305.8 L-725.4 -306.6 L-724.1 -307.5 L-722.9 -308.3 L-721.6 -309.1 L-720.3 -309.9 L-719.1 -310.8 L-717.8 -311.6 L-716.5 -312.4 L-715.2 -313.2 L-714 -314.1 L-712.7 -314.9 L-711.4 -315.7 L-710.2 -316.5 L-708.9 -317.4 L-707.6 -318.2 L-706.4 -319 L-705.1 -319.8 L-703.8 -320.7 L-702.6 -321.5 L-701.3 -322.3 L-700 -323.1 L-698.8 -324 L-697.5 -324.8 L-696.2 -325.6 L-695 -326.5 L-694.1 -325.2 L-693.3 -323.9 L-692.5 -322.6 L-691.7 -321.4 L-690.8 -320.1 L-690 -318.8 L-689.2 -317.6 L-688.4 -316.3 L-687.5 -315 L-686.7 -313.8 L-685.9 -312.5 L-685.1 -311.2 L-684.2 -310 L-683.4 -308.7 L-682.6 -307.4 L-681.8 -306.2 L-680.9 -304.9 L-680.1 -303.6 L-679.3 -302.4 L-678.5 -301.1 L-677.6 -299.8 L-676.8 -298.6 L-676 -297.3 L-675.2 -296 L-674.3 -294.8 Z " />
<path stroke="rgb(0,0,0)" stroke-opacity="0.5" fill="rgb(255,255,255)" fill-opacity="1" d="M24.7 300.3 L24.6 302.3 L24.34 304.2 L23.93 306.1 L23.36 308 L22.65 309.9 L21.8 311.6 L20.8 313.3 L19.68 314.9 L18.43 316.4 L17.06 317.9 L15.59 319.2 L14.02 320.3 L12.36 321.4 L10.62 322.3 L8.814 323.1 L6.952 323.7 L5.047 324.2 L3.11 324.5 L1.153 324.7 L-0.8108 324.7 L-2.77 324.5 L-4.711 324.2 L-6.623 323.8 L-8.492 323.2 L-10.31 322.4 L-12.06 321.6 L-13.73 320.5 L-15.32 319.4 L-16.81 318.1 L-18.2 316.7 L-19.47 315.2 L-20.61 313.6 L-21.63 311.9 L-22.51 310.2 L-23.24 308.3 L-23.83 306.5 L-24.27 304.6 L-24.56 302.6 L-24.69 300.7 L-24.66 298.7 L-24.48 296.7 L-24.15 294.8 L-23.66 292.9 L-23.02 291 L-22.23 289.2 L-21.31 287.5 L-20.25 285.9 L-19.06 284.3 L-17.75 282.8 L-16.33 281.5 L-14.81 280.2 L-13.19 279.1 L-11.49 278.1 L-9.717 277.3 L-7.882 276.6 L-5.997 276 L-4.074 275.6 L-2.126 275.4 L-0.1638 275.3 L1.799 275.4 L3.751 275.6 L5.679 276 L7.571 276.5 L9.415 277.2 L11.2 278 L12.91 278.9 L14.55 280 L16.09 281.2 L17.53 282.6 L18.85 284 L20.06 285.6 L21.14 287.2 L22.09 288.9 L22.9 290.7 L23.56 292.6 L24.08 294.5 L24.44 296.4 L24.65 298.4 L24.7 300.3 Z " />
<path stroke="rgb(0,0,0)" stroke-opacity="1" fill="rgb(255,255,255)" fill-opacity="1" d="M-482.7 -309.1 L-483.1 -308.1 L-483.4 -307 L-483.8 -305.9 L-484.1 -304.9 L-484.5 -303.8 L-484.8 -302.7 L-485.2 -301.7 L-485.5 -300.6 L-485.9 -299.5 L-486.2 -298.5 L-486.6 -297.4 L-486.9 -296.3 L-487.2 -295.3 L-487.6 -294.2 L-487.9 -293.1 L-488.3 -292.1 L-488.6 -291 L-489 -289.9 L-489.3 -288.9 L-489.7 -287.8 L-490 -286.7 L-490.4 -285.7 L-490.7 -284.6 L-491.1 -283.5 L-491.4 -282.5 L-492.5 -282.8 L-493.5 -283.2 L-494.6 -283.5 L-495.7 -283.9 L-496.7 -284.2 L-497.8 -284.6 L-498.9 -284.9 L-499.9 -285.3 L-501 -285.6 L-502.1 -285.9 L-503.1 -286.3 L-504.2 -286.6 L-505.3 -287 L-506.3 -287.3 L-507.4 -287.7 L-508.5 -288 L-509.5 -288.4 L-510.6 -288.7 L-511.7 -289.1 L-512.7 -289.4 L-513.8 -289.8 L-514.9 -290.1 L-515.9 -290.5 L-517 -290.8 L-518.1 -291.1 L-517.7 -292.2 L-517.4 -293.3 L-517 -294.3 L-516.7 -295.4 L-516.3 -296.5 L-516 -297.5 L-515.6 -298.6 L-515.3 -299.7 L-515 -300.7 L-514.6 -301.8 L-514.3 -302.9 L-513.9 -303.9 L-513.6 -305 L-513.2 -306.1 L-512.9 -307.1 L-512.5 -308.2 L-512.2 -309.3 L-511.8 -310.3 L-511.5 -311.4 L-511.1 -312.5 L-510.8 -313.5 L-510.4 -314.6 L-510.1 -315.7 L-509.8 -316.7 L-509.4 -317.8 L-508.3 -317.5 L-507.3 -317.1 L-506.2 -316.8 L-505.1 -316.4 L-504.1 -316.1 L-503 -315.7 L-501.9 -315.4 L-500.9 -315 L-499.8 -314.7 L-498.7 -314.3 L-497.7 -314 L-496.6 -313.7 L-495.5 -313.3 L-494.5 -313 L-493.4 -312.6 L-492.3 -312.3 L-491.3 -311.9 L-490.2 -311.6 L-489.1 -311.2 L-488.1 -310.9 L-487 -310.5 L-485.9 -310.2 L-484.9 -309.8 L-483.8 -309.5 L-482.7 -309.1 Z " />
<path stroke="rgb(0,0,0)" stroke-opacity="0.5" fill="rgb(255,255,255)" fill-opacity="1" d="M224.7 300.3 L224.6 302.3 L224.3 304.2 L223.9 306.1 L223.4 308 L222.7 309.9 L221.8 311.6 L220.8 313.3 L219.7 314.9 L218.4 316.4 L217.1 317.9 L215.6 319.2 L214 320.3 L212.4 321.4 L210.6 322.3 L208.8 323.1 L207 323.7 L205 324.2 L203.1 324.5 L201.2 324.7 L199.2 324.7 L197.2 324.5 L195.3 324.2 L193.4 323.8 L191.5 323.2 L189.7 322.4 L187.9 321.6 L186.3 320.5 L184.7 319.4 L183.2 318.1 L181.8 316.7 L180.5 315.2 L179.4 313.6 L178.4 311.9 L177.5 310.2 L176.8 308.3 L176.2 306.5 L175.7 304.6 L175.4 302.6 L175.3 300.7 L175.3 298.7 L175.5 296.7 L175.9 294.8 L176.3 292.9 L177 291 L177.8 289.2 L178.7 287.5 L179.8 285.9 L180.9 284.3 L182.2 282.8 L183.7 281.5 L185.2 280.2 L186.8 279.1 L188.5 278.1 L190.3 277.3 L192.1 276.6 L194 276 L195.9 275.6 L197.9 275.4 L199.8 275.3 L201.8 275.4 L203.8 275.6 L205.7 276 L207.6 276.5 L209.4 277.2 L211.2 278 L212.9 278.9 L214.5 280 L216.1 281.2 L217.5 282.6 L218.9 284 L220.1 285.6 L221.1 287.2 L222.1 288.9 L222.9 290.7 L223.6 292.6 L224.1 294.5 L224.4 296.4 L224.7 298.4 L224.7 300.3 Z " />
<path stroke="rgb(0,0,0)" stroke-opacity="1" fill="rgb(255,255,255)" fill-opacity="1" d="M-287.3 -312 L-287.3 -311 L-287.4 -310 L-287.4 -309 L-287.5 -308 L-287.5 -307 L-287.6 -306 L-287.6 -305 L-287.7 -304 L-287.7 -303 L-287.8 -302 L-287.8 -301 L-287.9 -300 L-287.9 -299 L-288 -298 L-288 -297 L-288.1 -296 L-288.1 -295 L-288.2 -294 L-288.2 -293 L-288.3 -292 L-288.3 -291 L-288.4 -290 L-288.4 -289 L-288.5 -288 L-288.5 -287 L-289.5 -287.1 L-290.5 -287.1 L-291.5 -287.2 L-292.5 -287.2 L-293.5 -287.3 L-294.5 -287.3 L-295.5 -287.4 L-296.5 -287.4 L-297.5 -287.5 L-298.5 -287.5 L-299.5 -287.6 L-300.5 -287.6 L-301.5 -287.7 L-302.5 -287.7 L-303.5 -287.8 L-304.5 -287.8 L-305.5 -287.9 L-306.5 -287.9 L-307.5 -288 L-308.5 -288 L-309.5 -288.1 L-310.5 -288.1 L-311.5 -288.2 L-312.5 -288.2 L-313.4 -288.3 L-313.4 -289.3 L-313.3 -290.3 L-313.3 -291.3 L-313.2 -292.3 L-313.2 -293.3 L-313.1 -294.3 L-313.1 -295.3 L-313.1 -296.3 L-313 -297.2 L-313 -298.2 L-312.9 -299.2 L-312.9 -300.2 L-312.8 -301.2 L-312.8 -302.2 L-312.7 -303.2 L-312.7 -304.2 L-312.6 -305.2 L-312.6 -306.2 L-312.5 -307.2 L-312.5 -308.2 L-312.4 -309.2 L-312.4 -310.2 L-312.3 -311.2 L-312.3 -312.2 L-312.2 -313.2 L-311.2 -313.2 L-310.2 -313.1 L-309.2 -313.1 L-308.2 -313 L-307.2 -313 L-306.2 -312.9 L-305.2 -312.9 L-304.2 -312.8 L-303.2 -312.8 L-302.2 -312.7 L-301.2 -312.7 L-300.2 -312.6 L-299.2 -312.6 L-298.2 -312.5 L-297.3 -312.5 L-296.3 -312.4 L-295.3 -312.4 L-294.3 -312.3 L-293.3 -312.3 L-292.3 -312.2 L-291.3 -312.2 L-290.3 -312.1 L-289.3 -312.1 L-288.3 -312 L-287.3 -312 Z " />
</g>
</g>
</svg>
