<!DOCTYPE svg>
<svg xmlns="http://www.w3.org/2000/svg" xmlns:xlink="http://www.w3.org/1999/xlink" width="1000" height="1000">
<g transform="translate(500.000000,500.000000)">
<g transform="scale(3.000000,3.000000)">
<path stroke="rgb(0,0,0)" stroke-opacity="1" fill="rgb(255,255,255)" fill-opacity="1" d="M-812.3 -812.5 L-811.3 -812.5 L-810.3 -812.5 L-809.3 -812.5 L-808.3 -812.5 L-807.3 -812.5 L-806.4 -812.5 L-805.4 -812.5 L-804.4 -812.5 L-803.4 -812.4 L-802.4 -812.4 L-801.4 -812.4 L-800.5 -812.4 L-799.5 -812.4 L-798.5 -812.4 L-797.5 -812.4 L-796.5 -812.4 L-795.5 -812.3 L-794.6 -812.3 L-793.6 -812.3 L-792.6 -812.3 L-791.6 -812.3 L-790.6 -812.3 L-789.6 -812.3 L-788.7 -812.3 L-787.7 -812.3 L-787.7 -811.3 L-787.7 -810.3 L-787.7 -809.3 L-787.7 -808.3 L-787.7 -807.3 L-787.8 -806.4 L-787.8 -805.4 L-787.8 -804.4 L-787.8 -803.4 L-787.8 -802.4 L-787.8 -801.4 L-787.8 -800.5 L-787.8 -799.5 L-787.8 -798.5 L-787.9 -797.5 L-787.9 -796.5 L-787.9 -795.5 L-787.9 -794.6 L-787.9 -793.6 L-787.9 -792.6 L-787.9 -791.6 L-787.9 -790.6 L-788 -789.6 L-788 -788.7 L-788 -787.7 L-789 -787.7 L-789.9 -787.7 L-790.9 -787.7 L-791.9 -787.7 L-792.9 -787.7 L-793.9 -787.8 L-794.9 -787.8 L-795.8 -787.8 L-796.8 -787.8 L-797.8 -787.8 L-798.8 -787.8 L-799.8 -787.8 L-800.8 -787.8 L-801.7 -787.8 L-802.7 -787.9 L-803.7 -787.9 L-804.7 -787.9 L-805.7 -787.9 L-806.7 -787.9 L-807.6 -787.9 L-808.6 -787.9 L-809.6 -787.9 L-810.6 -788 L-811.6 -788 L-812.6 -788 L-812.5 -789 L-812.5 -789.9 L-812.5 -790.9 L-812.5 -791.9 L-812.5 -792.9 L-812.5 -793.9 L-812.5 -794.9 L-812.5 -795.8 L-812.4 -796.8 L-812.4 -797.8 L-812.4 -798.8 L-812.4 -799.8 L-812.4 -800.8 L-812.4 -801.7 L-812.4 -802.7 L-812.4 -803.7 L-812.4 -804.7 L-812.3 -805.7 L-812.3 -806.7 L-812.3 -807.6 L-812.3 -808.6 L-812.3 -809.6 L-812.3 -810.6 L-812.3 -811.6 L-812.3 -812.5 Z " />
<path stroke="rgb(0,0,0)" stroke-opacity="0.949" fill="rgb(255,255,255)" fill-opacity="1" d="M-175.2 -299.7 L-175.3 -297.8 L-175.6 -295.8 L-176 -293.9 L-176.6 -292 L-177.3 -290.2 L-178.1 -288.4 L-179.1 -286.7 L-180.3 -285.1 L-181.5 -283.6 L-182.9 -282.1 L-184.3 -280.8 L-185.9 -279.7 L-187.6 -278.6 L-189.3 -277.7 L-191.1 -276.9 L-193 -276.3 L-194.9 -275.8 L-196.8 -275.5 L-198.8 -275.3 L-200.8 -275.3 L-202.7 -275.4 L-204.7 -275.7 L-206.6 -276.1 L-208.5 -276.7 L-210.3 -277.5 L-212 -278.4 L-213.7 -279.4 L-215.3 -280.6 L-216.8 -281.8 L-218.2 -283.2 L-219.5 -284.7 L-220.6 -286.3 L-221.6 -288 L-222.5 -289.8 L-223.3 -291.6 L-223.9 -293.5 L-224.3 -295.4 L-224.6 -297.3 L-224.7 -299.3 L-224.7 -301.3 L-224.5 -303.2 L-224.2 -305.2 L-223.7 -307.1 L-223.1 -308.9 L-222.3 -310.7 L-221.4 -312.5 L-220.3 -314.1 L-219.1 -315.7 L-217.8 -317.2 L-216.4 -318.5 L-214.9 -319.8 L-213.3 -320.9 L-211.6 -321.9 L-209.8 -322.7 L-207.9 -323.4 L-206.1 -324 L-204.1 -324.4 L-202.2 -324.7 L-200.2 -324.8 L-198.3 -324.7 L-196.3 -324.5 L-194.4 -324.1 L-192.5 -323.6 L-190.6 -322.9 L-188.8 -322.1 L-187.1 -321.1 L-185.5 -320 L-183.9 -318.8 L-182.5 -317.5 L-181.1 -316 L-179.9 -314.5 L-178.8 -312.9 L-177.9 -311.1 L-177.1 -309.3 L-176.4 -307.5 L-175.9 -305.6 L-175.5 -303.7 L-175.3 -301.7 L-175.2 -299.7 Z " />
<path stroke="rgb(0,0,0)" stroke-opacity="1" fill="rgb(255,255,255)" fill-opacity="1" d="M-612.3 -812.5 L-611.3 -812.5 L-610.3 -812.5 L-609.3 -812.5 L-608.3 -812.5 L-607.3 -812.5 L-606.4 -812.5 L-605.4 -812.5 L-604.4 -812.5 L-603.4 -812.4 L-602.4 -812.4 L-601.4 -812.4 L-600.5 -812.4 L-599.5 -812.4 L-598.5 -812.4 L-597.5 -812.4 L-596.5 -812.4 L-595.5 -812.3 L-594.6 -812.3 L-593.6 -812.3 L-592.6 -812.3 L-591.6 -812.3 L-590.6 -812.3 L-589.6 -812.3 L-588.7 -812.3 L-587.7 -812.3 L-587.7 -811.3 L-587.7 -810.3 L-587.7 -809.3 L-587.7 -808.3 L-587.7 -807.3 L-587.8 -806.4 L-587.8 -805.4 L-587.8 -804.4 L-587.8 -803.4 L-587.8 -802.4 L-587.8 -801.4 L-587.8 -800.5 L-587.8 -799.5 L-587.8 -798.5 L-587.9 -797.5 L-587.9 -796.5 L-587.9 -795.5 L-587.9 -794.6 L-587.9 -793.6 L-587.9 -792.6 L-587.9 -791.6 L-587.9 -790.6 L-588 -789.6 L-588 -788.7 L-588 -787.7 L-589 -787.7 L-589.9 -787.7 L-590.9 -787.7 L-591.9 -787.7 L-592.9 -787.7 L-593.9 -787.8 L-594.9 -787.8 L-595.8 -787.8 L-596.8 -787.8 L-597.8 -787.8 L-598.8 -787.8 L-599.8 -787.8 L-600.8 -787.8 L-601.7 -787.8 L-602.7 -787.9 L-603.7 -787.9 L-604.7 -787.9 L-605.7 -787.9 L-606.7 -787.9 L-607.6 -787.9 L-608.6 -787.9 L-609.6 -787.9 L-610.6 -788 L-611.6 -788 L-612.6 -788 L-612.5 -789 L-612.5 -789.9 L-612.5 -790.9 L-612.5 -791.9 L-612.5 -792.9 L-612.5 -793.9 L-612.5 -794.9 L-612.5 -795.8 L-612.4 -796.8 L-612.4 -797.8 L-612.4 -798.8 L-612.4 -799.8 L-612.4 -800.8 L-612.4 -801.7 L-612.4 -802.7 L-612.4 -803.7 L-612.4 -804.7 L-612.3 -805.7 L-612.3 -806.7 L-612.3 -807.6 L-612.3 -808.6 L-612.3 -809.6 L-612.3 -810.6 L-612.3 -811.6 L-612.3 -812.5 Z " />
<path stroke="rgb(0,0,0)" stroke-opacity="0.949" fill="rgb(255,255,255)" fill-opacity="1" d="M24.75 -299.7 L24.65 -297.8 L24.4 -295.8 L23.99 -293.9 L23.43 -292 L22.72 -290.2 L21.86 -288.4 L20.87 -286.7 L19.75 -285.1 L18.5 -283.6 L17.14 -282.1 L15.66 -280.8 L14.09 -279.7 L12.43 -278.6 L10.69 -277.7 L8.881 -276.9 L7.018 -276.3 L5.11 -275.8 L3.169 -275.5 L1.209 -275.3 L-0.7591 -275.3 L-2.722 -275.4 L-4.668 -275.7 L-6.584 -276.1 L-8.459 -276.7 L-10.28 -277.5 L-12.04 -278.4 L-13.72 -279.4 L-15.31 -280.6 L-16.81 -281.8 L-18.2 -283.2 L-19.47 -284.7 L-20.62 -286.3 L-21.65 -288 L-22.53 -289.8 L-23.27 -291.6 L-23.87 -293.5 L-24.31 -295.4 L-24.6 -297.3 L-24.74 -299.3 L-24.72 -301.3 L-24.54 -303.2 L-24.21 -305.2 L-23.72 -307.1 L-23.08 -308.9 L-22.3 -310.7 L-21.38 -312.5 L-20.32 -314.1 L-19.13 -315.7 L-17.83 -317.2 L-16.41 -318.5 L-14.88 -319.8 L-13.26 -320.9 L-11.56 -321.9 L-9.786 -322.7 L-7.949 -323.4 L-6.062 -324 L-4.136 -324.4 L-2.185 -324.7 L-0.2188 -324.8 L1.748 -324.7 L3.704 -324.5 L5.637 -324.1 L7.534 -323.6 L9.383 -322.9 L11.17 -322.1 L12.89 -321.1 L14.53 -320 L16.08 -318.8 L17.52 -317.5 L18.86 -316 L20.07 -314.5 L21.16 -312.9 L22.11 -311.1 L22.93 -309.3 L23.6 -307.5 L24.12 -305.6 L24.48 -303.7 L24.7 -301.7 L24.75 -299.7 Z " />
<path stroke="rgb(0,0,0)" stroke-opacity="1" fill="rgb(255,255,255)" fill-opacity="1" d="M-412.3 -812.5 L-411.3 -812.5 L-410.3 -812.5 L-409.3 -812.5 L-408.3 -812.5 L-407.3 -812.5 L-406.4 -812.5 L-405.4 -812.5 L-404.4 -812.5 L-403.4 -812.4 L-402.4 -812.4 L-401.4 -812.4 L-400.5 -812.4 L-399.5 -812.4 L-398.5 -812.4 L-397.5 -812.4 L-396.5 -812.4 L-395.5 -812.3 L-394.6 -812.3 L-393.6 -812.3 L-392.6 -812.3 L-391.6 -812.3 L-390.6 -812.3 L-389.6 -812.3 L-388.7 -812.3 L-387.7 -812.3 L-387.7 -811.3 L-387.7 -810.3 L-387.7 -809.3 L-387.7 -808.3 L-387.7 -807.3 L-387.8 -806.4 L-387.8 -805.4 L-387.8 -804.4 L-387.8 -803.4 L-387.8 -802.4 L-387.8 -801.4 L-387.8 -800.5 L-387.8 -799.5 L-387.8 -798.5 L-387.9 -797.5 L-387.9 -796.5 L-387.9 -795.5 L-387.9 -794.6 L-387.9 -793.6 L-387.9 -792.6 L-387.9 -791.6 L-387.9 -790.6 L-388 -789.6 L-388 -788.7 L-388 -787.7 L-389 -787.7 L-389.9 -787.7 L-390.9 -787.7 L-391.9 -787.7 L-392.9 -787.7 L-393.9 -787.8 L-394.9 -787.8 L-395.8 -787.8 L-396.8 -787.8 L-397.8 -787.8 L-398.8 -787.8 L-399.8 -787.8 L-400.8 -787.8 L-401.7 -787.8 L-402.7 -787.9 L-403.7 -787.9 L-404.7 -787.9 L-405.7 -787.9 L-406.7 -787.9 L-407.6 -787.9 L-408.6 -787.9 L-409.6 -787.9 L-410.6 -788 L-411.6 -788 L-412.6 -788 L-412.5 -789 L-412.5 -789.9 L-412.5 -790.9 L-412.5 -791.9 L-412.5 -792.9 L-412.5 -793.9 L-412.5 -794.9 L-412.5 -795.8 L-412.4 -796.8 L-412.4 -797.8 L-412.4 -798.8 L-412.4 -799.8 L-412.4 -800.8 L-412.4 -801.7 L-412.4 -802.7 L-412.4 -803.7 L-412.4 -804.7 L-412.3 -805.7 L-412.3 -806.7 L-412.3 -807.6 L-412.3 -808.6 L-412.3 -809.6 L-412.3 -810.6 L-412.3 -811.6 L-412.3 -812.5 Z " />
<path stroke="rgb(0,0,0)" stroke-opacity="0.949" fill="rgb(255,255,255)" fill-opacity="1" d="M224.8 -299.7 L224.7 -297.8 L224.4 -295.8 L224 -293.9 L223.4 -292 L222.7 -290.2 L221.9 -288.4 L220.9 -286.7 L219.7 -285.1 L218.5 -283.6 L217.1 -282.1 L215.7 -280.8 L214.1 -279.7 L212.4 -278.6 L210.7 -277.7 L208.9 -276.9 L207 -276.3 L205.1 -275.8 L203.2 -275.5 L201.2 -275.3 L199.2 -275.3 L197.3 -275.4 L195.3 -275.7 L193.4 -276.1 L191.5 -276.7 L189.7 -277.5 L188 -278.4 L186.3 -279.4 L184.7 -280.6 L183.2 -281.8 L181.8 -283.2 L180.5 -284.7 L179.4 -286.3 L178.4 -288 L177.5 -289.8 L176.7 -291.6 L176.1 -293.5 L175.7 -295.4 L175.4 -297.3 L175.3 -299.3 L175.3 -301.3 L175.5 -303.2 L175.8 -305.2 L176.3 -307.1 L176.9 -308.9 L177.7 -310.7 L178.6 -312.5 L179.7 -314.1 L180.9 -315.7 L182.2 -317.2 L183.6 -318.5 L185.1 -319.8 L186.7 -320.9 L188.4 -321.9 L190.2 -322.7 L192.1 -323.4 L193.9 -324 L195.9 -324.4 L197.8 -324.7 L199.8 -324.8 L201.7 -324.7 L203.7 -324.5 L205.6 -324.1 L207.5 -323.6 L209.4 -322.9 L211.2 -322.1 L212.9 -321.1 L214.5 -320 L216.1 -318.8 L217.5 -317.5 L218.9 -316 L220.1 -314.5 L221.2 -312.9 L222.1 -311.1 L222.9 -309.3 L223.6 -307.5 L224.1 -305.6 L224.5 -303.7 L224.7 -301.7 L224.8 -299.7 Z " />
<path stroke="rgb(0,0,0)" stroke-opacity="1" fill="rgb(255,255,255)" fill-opacity="1" d="M-212.1 -812.9 L-211.1 -812.9 L-210.1 -812.9 L-209.1 -812.8 L-208.1 -812.8 L-207.1 -812.8 L-206.1 -812.7 L-205.2 -812.7 L-204.2 -812.7 L-203.2 -812.6 L-202.2 -812.6 L-201.2 -812.6 L-200.2 -812.5 L-199.2 -812.5 L-198.2 -812.5 L-197.2 -812.4 L-196.2 -812.4 L-195.2 -812.4 L-194.2 -812.3 L-193.3 -812.3 L-192.3 -812.3 L-191.3 -812.2 L-190.3 -812.2 L-189.3 -812.2 L-188.3 -812.1 L-187.3 -812.1 L-187.3 -811.1 L-187.4 -810.1 L-187.4 -809.1 L-187.4 -808.1 L-187.5 -807.1 L-187.5 -806.1 L-187.5 -805.1 L-187.6 -804.2 L-187.6 -803.2 L-187.6 -802.2 L-187.7 -801.2 L-187.7 -800.2 L-187.7 -799.2 L-187.8 -798.2 L-187.8 -797.2 L-187.8 -796.2 L-187.9 -795.2 L-187.9 -794.2 L-187.9 -793.2 L-188 -792.3 L-188 -791.3 L-188 -790.3 L-188.1 -789.3 L-188.1 -788.3 L-188.1 -787.3 L-189.1 -787.3 L-190.1 -787.4 L-191.1 -787.4 L-192.1 -787.4 L-193.1 -787.5 L-194.1 -787.5 L-195.1 -787.5 L-196.1 -787.6 L-197.1 -787.6 L-198.1 -787.6 L-199 -787.7 L-200 -787.7 L-201 -787.7 L-202 -787.8 L-203 -787.8 L-204 -787.8 L-205 -787.9 L-206 -787.9 L-207 -787.9 L-208 -788 L-209 -788 L-210 -788 L-211 -788.1 L-211.9 -788.1 L-212.9 -788.1 L-212.9 -789.1 L-212.9 -790.1 L-212.8 -791.1 L-212.8 -792.1 L-212.8 -793.1 L-212.7 -794.1 L-212.7 -795.1 L-212.7 -796.1 L-212.6 -797.1 L-212.6 -798 L-212.6 -799 L-212.5 -800 L-212.5 -801 L-212.5 -802 L-212.4 -803 L-212.4 -804 L-212.4 -805 L-212.3 -806 L-212.3 -807 L-212.3 -808 L-212.2 -809 L-212.2 -810 L-212.2 -810.9 L-212.1 -811.9 L-212.1 -812.9 Z " />
<path stroke="rgb(0,0,0)" stroke-opacity="0.949" fill="rgb(255,255,255)" fill-opacity="1" d="M-275.2 -199.7 L-275.3 -197.8 L-275.6 -195.8 L-276 -193.9 L-276.6 -192 L-277.3 -190.2 L-278.1 -188.4 L-279.1 -186.7 L-280.3 -185.1 L-281.5 -183.6 L-282.9 -182.1 L-284.3 -180.8 L-285.9 -179.7 L-287.6 -178.6 L-289.3 -177.7 L-291.1 -176.9 L-293 -176.3 L-294.9 -175.8 L-296.8 -175.5 L-298.8 -175.3 L-300.8 -175.3 L-302.7 -175.4 L-304.7 -175.7 L-306.6 -176.1 L-308.5 -176.7 L-310.3 -177.5 L-312 -178.4 L-313.7 -179.4 L-315.3 -180.6 L-316.8 -181.8 L-318.2 -183.2 L-319.5 -184.7 L-320.6 -186.3 L-321.6 -188 L-322.5 -189.8 L-323.3 -191.6 L-323.9 -193.5 L-324.3 -195.4 L-324.6 -197.3 L-324.7 -199.3 L-324.7 -201.3 L-324.5 -203.2 L-324.2 -205.2 L-323.7 -207.1 L-323.1 -208.9 L-322.3 -210.7 L-321.4 -212.5 L-320.3 -214.1 L-319.1 -215.7 L-317.8 -217.2 L-316.4 -218.5 L-314.9 -219.8 L-313.3 -220.9 L-311.6 -221.9 L-309.8 -222.7 L-307.9 -223.4 L-306.1 -224 L-304.1 -224.4 L-302.2 -224.7 L-300.2 -224.8 L-298.3 -224.7 L-296.3 -224.5 L-294.4 -224.1 L-292.5 -223.6 L-290.6 -222.9 L-288.8 -222.1 L-287.1 -221.1 L-285.5 -220 L-283.9 -218.8 L-282.5 -217.5 L-281.1 -216 L-279.9 -214.5 L-278.8 -212.9 L-277.9 -211.1 L-277.1 -209.3 L-276.4 -207.5 L-275.9 -205.6 L-275.5 -203.7 L-275.3 -201.7 L-275.2 -199.7 Z " />
<path stroke="rgb(0,0,0)" stroke-opacity="1" fill="rgb(255,255,255)" fill-opacity="1" d="M-712.3 -712.5 L-711.3 -712.5 L-710.3 -712.5 L-709.3 -712.5 L-708.3 -712.5 L-707.3 -712.5 L-706.4 -712.5 L-705.4 -712.5 L-704.4 -712.5 L-703.4 -712.4 L-702.4 -712.4 L-701.4 -712.4 L-700.5 -712.4 L-699.5 -712.4 L-698.5 -712.4 L-697.5 -712.4 L-696.5 -712.4 L-695.5 -712.3 L-694.6 -712.3 L-693.6 -712.3 L-692.6 -712.3 L-691.6 -712.3 L-690.6 -712.3 L-689.6 -712.3 L-688.7 -712.3 L-687.7 -712.3 L-687.7 -711.3 L-687.7 -710.3 L-687.7 -709.3 L-687.7 -708.3 L-687.7 -707.3 L-687.8 -706.4 L-687.8 -705.4 L-687.8 -704.4 L-687.8 -703.4 L-687.8 -702.4 L-687.8 -701.4 L-687.8 -700.5 L-687.8 -699.5 L-687.8 -698.5 L-687.9 -697.5 L-687.9 -696.5 L-687.9 -695.5 L-687.9 -694.6 L-687.9 -693.6 L-687.9 -692.6 L-687.9 -691.6 L-687.9 -690.6 L-688 -689.6 L-688 -688.7 L-688 -687.7 L-689 -687.7 L-689.9 -687.7 L-690.9 -687.7 L-691.9 -687.7 L-692.9 -687.7 L-693.9 -687.8 L-694.9 -687.8 L-695.8 -687.8 L-696.8 -687.8 L-697.8 -687.8 L-698.8 -687.8 L-699.8 -687.8 L-700.8 -687.8 L-701.7 -687.8 L-702.7 -687.9 L-703.7 -687.9 L-704.7 -687.9 L-705.7 -687.9 L-706.7 -687.9 L-707.6 -687.9 L-708.6 -687.9 L-709.6 -687.9 L-710.6 -688 L-711.6 -688 L-712.6 -688 L-712.5 -689 L-712.5 -689.9 L-712.5 -690.9 L-712.5 -691.9 L-712.5 -692.9 L-712.5 -693.9 L-712.5 -694.9 L-712.5 -695.8 L-712.4 -696.8 L-712.4 -697.8 L-712.4 -698.8 L-712.4 -699.8 L-712.4 -700.8 L-712.4 -701.7 L-712.4 -702.7 L-712.4 -703.7 L-712.4 -704.7 L-712.3 -705.7 L-712.3 -706.7 L-712.3 -707.6 L-712.3 -708.6 L-712.3 -709.6 L-712.3 -710.6 L-712.3 -711.6 L-712.3 -712.5 Z " />
<path stroke="rgb(0,0,0)" stroke-opacity="0.949" fill="rgb(255,255,255)" fill-opacity="1" d="M-75.25 -199.7 L-75.35 -197.8 L-75.6 -195.8 L-76.01 -193.9 L-76.57 -192 L-77.28 -190.2 L-78.14 -188.4 L-79.13 -186.7 L-80.25 -185.1 L-81.5 -183.6 L-82.86 -182.1 L-84.34 -180.8 L-85.91 -179.7 L-87.57 -178.6 L-89.31 -177.7 L-91.12 -176.9 L-92.98 -176.3 L-94.89 -175.8 L-96.83 -175.5 L-98.79 -175.3 L-100.8 -175.3 L-102.7 -175.4 L-104.7 -175.7 L-106.6 -176.1 L-108.5 -176.7 L-110.3 -177.5 L-112 -178.4 L-113.7 -179.4 L-115.3 -180.6 L-116.8 -181.8 L-118.2 -183.2 L-119.5 -184.7 L-120.6 -186.3 L-121.6 -188 L-122.5 -189.8 L-123.3 -191.6 L-123.9 -193.5 L-124.3 -195.4 L-124.6 -197.3 L-124.7 -199.3 L-124.7 -201.3 L-124.5 -203.2 L-124.2 -205.2 L-123.7 -207.1 L-123.1 -208.9 L-122.3 -210.7 L-121.4 -212.5 L-120.3 -214.1 L-119.1 -215.7 L-117.8 -217.2 L-116.4 -218.5 L-114.9 -219.8 L-113.3 -220.9 L-111.6 -221.9 L-109.8 -222.7 L-107.9 -223.4 L-106.1 -224 L-104.1 -224.4 L-102.2 -224.7 L-100.2 -224.8 L-98.25 -224.7 L-96.3 -224.5 L-94.36 -224.1 L-92.47 -223.6 L-90.62 -222.9 L-88.83 -222.1 L-87.11 -221.1 L-85.47 -220 L-83.92 -218.8 L-82.48 -217.5 L-81.14 -216 L-79.93 -214.5 L-78.84 -212.9 L-77.89 -211.1 L-77.07 -209.3 L-76.4 -207.5 L-75.88 -205.6 L-75.52 -203.7 L-75.3 -201.7 L-75.25 -199.7 Z " />
<path stroke="rgb(0,0,0)" stroke-opacity="1" fill="rgb(255,255,255)" fill-opacity="1" d="M-512.3 -712.5 L-511.3 -712.5 L-510.3 -712.5 L-509.3 -712.5 L-508.3 -712.5 L-507.3 -712.5 L-506.4 -712.5 L-505.4 -712.5 L-504.4 -712.5 L-503.4 -712.4 L-502.4 -712.4 L-501.4 -712.4 L-500.5 -712.4 L-499.5 -712.4 L-498.5 -712.4 L-497.5 -712.4 L-496.5 -712.4 L-495.5 -712.3 L-494.6 -712.3 L-493.6 -712.3 L-492.6 -712.3 L-491.6 -712.3 L-490.6 -712.3 L-489.6 -712.3 L-488.7 -712.3 L-487.7 -712.3 L-487.7 -711.3 L-487.7 -710.3 L-487.7 -709.3 L-487.7 -708.3 L-487.7 -707.3 L-487.8 -706.4 L-487.8 -705.4 L-487.8 -704.4 L-487.8 -703.4 L-487.8 -702.4 L-487.8 -701.4 L-487.8 -700.5 L-487.8 -699.5 L-487.8 -698.5 L-487.9 -697.5 L-487.9 -696.5 L-487.9 -695.5 L-487.9 -694.6 L-487.9 -693.6 L-487.9 -692.6 L-487.9 -691.6 L-487.9 -690.6 L-488 -689.6 L-488 -688.7 L-488 -687.7 L-489 -687.7 L-489.9 -687.7 L-490.9 -687.7 L-491.9 -687.7 L-492.9 -687.7 L-493.9 -687.8 L-494.9 -687.8 L-495.8 -687.8 L-496.8 -687.8 L-497.8 -687.8 L-498.8 -687.8 L-499.8 -687.8 L-500.8 -687.8 L-501.7 -687.8 L-502.7 -687.9 L-503.7 -687.9 L-504.7 -687.9 L-505.7 -687.9 L-506.7 -687.9 L-507.6 -687.9 L-508.6 -687.9 L-509.6 -687.9 L-510.6 -688 L-511.6 -688 L-512.6 -688 L-512.5 -689 L-512.5 -689.9 L-512.5 -690.9 L-512.5 -691.9 L-512.5 -692.9 L-512.5 -693.9 L-512.5 -694.9 L-512.5 -695.8 L-512.4 -696.8 L-512.4 -697.8 L-512.4 -698.8 L-512.4 -699.8 L-512.4 -700.8 L-512.4 -701.7 L-512.4 -702.7 L-512.4 -703.7 L-512.4 -704.7 L-512.3 -705.7 L-512.3 -706.7 L-512.3 -707.6 L-512.3 -708.6 L-512.3 -709.6 L-512.3 -710.6 L-512.3 -711.6 L-512.3 -712.5 Z " />
<path stroke="rgb(0,0,0)" stroke-opacity="0.949" fill="rgb(255,255,255)" fill-opacity="1" d="M124.8 -199.7 L124.7 -197.8 L124.4 -195.8 L124 -193.9 L123.4 -192 L122.7 -190.2 L121.9 -188.4 L120.9 -186.7 L119.7 -185.1 L118.5 -183.6 L117.1 -182.1 L115.7 -180.8 L114.1 -179.7 L112.4 -178.6 L110.7 -177.7 L108.9 -176.9 L107 -176.3 L105.1 -175.8 L103.2 -175.5 L101.2 -175.3 L99.24 -175.3 L97.28 -175.4 L95.33 -175.7 L93.42 -176.1 L91.54 -176.7 L89.72 -177.5 L87.96 -178.4 L86.28 -179.4 L84.69 -180.6 L83.19 -181.8 L81.8 -183.2 L80.53 -184.7 L79.38 -186.3 L78.35 -188 L77.47 -189.8 L76.73 -191.6 L76.13 -193.5 L75.69 -195.4 L75.4 -197.3 L75.26 -199.3 L75.28 -201.3 L75.46 -203.2 L75.79 -205.2 L76.28 -207.1 L76.92 -208.9 L77.7 -210.7 L78.62 -212.5 L79.68 -214.1 L80.87 -215.7 L82.17 -217.2 L83.59 -218.5 L85.12 -219.8 L86.74 -220.9 L88.44 -221.9 L90.21 -222.7 L92.05 -223.4 L93.94 -224 L95.86 -224.4 L97.82 -224.7 L99.78 -224.8 L101.7 -224.7 L103.7 -224.5 L105.6 -224.1 L107.5 -223.6 L109.4 -222.9 L111.2 -222.1 L112.9 -221.1 L114.5 -220 L116.1 -218.8 L117.5 -217.5 L118.9 -216 L120.1 -214.5 L121.2 -212.9 L122.1 -211.1 L122.9 -209.3 L123.6 -207.5 L124.1 -205.6 L124.5 -203.7 L124.7 -201.7 L124.8 -199.7 Z " />
<path stroke="rgb(0,0,0)" stroke-opacity="1" fill="rgb(255,255,255)" fill-opacity="1" d="M-312.1 -712.9 L-311.1 -712.9 L-310.1 -712.9 L-309.1 -712.8 L-308.1 -712.8 L-307.1 -712.8 L-306.1 -712.7 L-305.2 -712.7 L-304.2 -712.7 L-303.2 -712.6 L-302.2 -712.6 L-301.2 -712.6 L-300.2 -712.5 L-299.2 -712.5 L-298.2 -712.5 L-297.2 -712.4 L-296.2 -712.4 L-295.2 -712.4 L-294.2 -712.3 L-293.3 -712.3 L-292.3 -712.3 L-291.3 -712.2 L-290.3 -712.2 L-289.3 -712.2 L-288.3 -712.1 L-287.3 -712.1 L-287.3 -711.1 L-287.4 -710.1 L-287.4 -709.1 L-287.4 -708.1 L-287.5 -707.1 L-287.5 -706.1 L-287.5 -705.1 L-287.6 -704.2 L-287.6 -703.2 L-287.6 -702.2 L-287.7 -701.2 L-287.7 -700.2 L-287.7 -699.2 L-287.8 -698.2 L-287.8 -697.2 L-287.8 -696.2 L-287.9 -695.2 L-287.9 -694.2 L-287.9 -693.2 L-288 -692.3 L-288 -691.3 L-288 -690.3 L-288.1 -689.3 L-288.1 -688.3 L-288.1 -687.3 L-289.1 -687.3 L-290.1 -687.4 L-291.1 -687.4 L-292.1 -687.4 L-293.1 -687.5 L-294.1 -687.5 L-295.1 -687.5 L-296.1 -687.6 L-297.1 -687.6 L-298.1 -687.6 L-299 -687.7 L-300 -687.7 L-301 -687.7 L-302 -687.8 L-303 -687.8 L-304 -687.8 L-305 -687.9 L-306 -687.9 L-307 -687.9 L-308 -688 L-309 -688 L-310 -688 L-311 -688.1 L-311.9 -688.1 L-312.9 -688.1 L-312.9 -689.1 L-312.9 -690.1 L-312.8 -691.1 L-312.8 -692.1 L-312.8 -693.1 L-312.7 -694.1 L-312.7 -695.1 L-312.7 -696.1 L-312.6 -697.1 L-312.6 -698 L-312.6 -699 L-312.5 -700 L-312.5 -701 L-312.5 -702 L-312.4 -703 L-312.4 -704 L-312.4 -705 L-312.3 -706 L-312.3 -707 L-312.3 -708 L-312.2 -709 L-312.2 -710 L-312.2 -710.9 L-312.1 -711.9 L-312.1 -712.9 Z " />
<path stroke="rgb(0,0,0)" stroke-opacity="0.949" fill="rgb(255,255,255)" fill-opacity="1" d="M324.8 -199.7 L324.7 -197.8 L324.4 -195.8 L324 -193.9 L323.4 -192 L322.7 -190.2 L321.9 -188.4 L320.9 -186.7 L319.7 -185.1 L318.5 -183.6 L317.1 -182.1 L315.7 -180.8 L314.1 -179.7 L312.4 -178.6 L310.7 -177.7 L308.9 -176.9 L307 -176.3 L305.1 -175.8 L303.2 -175.5 L301.2 -175.3 L299.2 -175.3 L297.3 -175.4 L295.3 -175.7 L293.4 -176.1 L291.5 -176.7 L289.7 -177.5 L288 -178.4 L286.3 -179.4 L284.7 -180.6 L283.2 -181.8 L281.8 -183.2 L280.5 -184.7 L279.4 -186.3 L278.4 -188 L277.5 -189.8 L276.7 -191.6 L276.1 -193.5 L275.7 -195.4 L275.4 -197.3 L275.3 -199.3 L275.3 -201.3 L275.5 -203.2 L275.8 -205.2 L276.3 -207.1 L276.9 -208.9 L277.7 -210.7 L278.6 -212.5 L279.7 -214.1 L280.9 -215.7 L282.2 -217.2 L283.6 -218.5 L285.1 -219.8 L286.7 -220.9 L288.4 -221.9 L290.2 -222.7 L292.1 -223.4 L293.9 -224 L295.9 -224.4 L297.8 -224.7 L299.8 -224.8 L301.7 -224.7 L303.7 -224.5 L305.6 -224.1 L307.5 -223.6 L309.4 -222.9 L311.2 -222.1 L312.9 -221.1 L314.5 -220 L316.1 -218.8 L317.5 -217.5 L318.9 -216 L320.1 -214.5 L321.2 -212.9 L322.1 -211.1 L322.9 -209.3 L323.6 -207.5 L324.1 -205.6 L324.5 -203.7 L324.7 -201.7 L324.8 -199.7 Z " />
<path stroke="rgb(0,0,0)" stroke-opacity="1" fill="rgb(255,255,255)" fill-opacity="1" d="M-812.3 -612.5 L-811.3 -612.5 L-810.3 -612.5 L-809.3 -612.5 L-808.3 -612.5 L-807.3 -612.5 L-806.4 -612.5 L-805.4 -612.5 L-804.4 -612.5 L-803.4 -612.4 L-802.4 -612.4 L-801.4 -612.4 L-800.5 -612.4 L-799.5 -612.4 L-798.5 -612.4 L-797.5 -612.4 L-796.5 -612.4 L-795.5 -612.3 L-794.6 -612.3 L-793.6 -612.3 L-792.6 -612.3 L-791.6 -612.3 L-790.6 -612.3 L-789.6 -612.3 L-788.7 -612.3 L-787.7 -612.3 L-787.7 -611.3 L-787.7 -610.3 L-787.7 -609.3 L-787.7 -608.3 L-787.7 -607.3 L-787.8 -606.4 L-787.8 -605.4 L-787.8 -604.4 L-787.8 -603.4 L-787.8 -602.4 L-787.8 -601.4 L-787.8 -600.5 L-787.8 -599.5 L-787.8 -598.5 L-787.9 -597.5 L-787.9 -596.5 L-787.9 -595.5 L-787.9 -594.6 L-787.9 -593.6 L-787.9 -592.6 L-787.9 -591.6 L-787.9 -590.6 L-788 -589.6 L-788 -588.7 L-788 -587.7 L-789 -587.7 L-789.9 -587.7 L-790.9 -587.7 L-791.9 -587.7 L-792.9 -587.7 L-793.9 -587.8 L-794.9 -587.8 L-795.8 -587.8 L-796.8 -587.8 L-797.8 -587.8 L-798.8 -587.8 L-799.8 -587.8 L-800.8 -587.8 L-801.7 -587.8 L-802.7 -587.9 L-803.7 -587.9 L-804.7 -587.9 L-805.7 -587.9 L-806.7 -587.9 L-807.6 -587.9 L-808.6 -587.9 L-809.6 -587.9 L-810.6 -588 L-811.6 -588 L-812.6 -588 L-812.5 -589 L-812.5 -589.9 L-812.5 -590.9 L-812.5 -591.9 L-812.5 -592.9 L-812.5 -593.9 L-812.5 -594.9 L-812.5 -595.8 L-812.4 -596.8 L-812.4 -597.8 L-812.4 -598.8 L-812.4 -599.8 L-812.4 -600.8 L-812.4 -601.7 L-812.4 -602.7 L-812.4 -603.7 L-812.4 -604.7 L-812.3 -605.7 L-812.3 -606.7 L-812.3 -607.6 L-812.3 -608.6 L-812.3 -609.6 L-812.3 -610.6 L-812.3 -611.6 L-812.3 -612.5 Z " />
<path stroke="rgb(0,0,0)" stroke-opacity="0.949" fill="rgb(255,255,255)" fill-opacity="1" d="M-175.2 -99.73 L-175.3 -97.77 L-175.6 -95.82 L-176 -93.89 L-176.6 -92.01 L-177.3 -90.17 L-178.1 -88.4 L-179.1 -86.7 L-180.3 -85.08 L-181.5 -83.56 L-182.9 -82.14 L-184.3 -80.84 L-185.9 -79.65 L-187.6 -78.6 L-189.3 -77.68 L-191.1 -76.9 L-193 -76.27 L-194.9 -75.78 L-196.8 -75.46 L-198.8 -75.28 L-200.8 -75.26 L-202.7 -75.4 L-204.7 -75.7 L-206.6 -76.15 L-208.5 -76.74 L-210.3 -77.49 L-212 -78.38 L-213.7 -79.4 L-215.3 -80.56 L-216.8 -81.84 L-218.2 -83.23 L-219.5 -84.73 L-220.6 -86.32 L-221.6 -88.01 L-222.5 -89.76 L-223.3 -91.59 L-223.9 -93.46 L-224.3 -95.38 L-224.6 -97.33 L-224.7 -99.29 L-224.7 -101.3 L-224.5 -103.2 L-224.2 -105.2 L-223.7 -107.1 L-223.1 -108.9 L-222.3 -110.7 L-221.4 -112.5 L-220.3 -114.1 L-219.1 -115.7 L-217.8 -117.2 L-216.4 -118.5 L-214.9 -119.8 L-213.3 -120.9 L-211.6 -121.9 L-209.8 -122.7 L-207.9 -123.4 L-206.1 -124 L-204.1 -124.4 L-202.2 -124.7 L-200.2 -124.8 L-198.3 -124.7 L-196.3 -124.5 L-194.4 -124.1 L-192.5 -123.6 L-190.6 -122.9 L-188.8 -122.1 L-187.1 -121.1 L-185.5 -120 L-183.9 -118.8 L-182.5 -117.5 L-181.1 -116 L-179.9 -114.5 L-178.8 -112.9 L-177.9 -111.1 L-177.1 -109.3 L-176.4 -107.5 L-175.9 -105.6 L-175.5 -103.7 L-175.3 -101.7 L-175.2 -99.73 Z " />
<path stroke="rgb(0,0,0)" stroke-opacity="1" fill="rgb(255,255,255)" fill-opacity="1" d="M-612.3 -612.5 L-611.3 -612.5 L-610.3 -612.5 L-609.3 -612.5 L-608.3 -612.5 L-607.3 -612.5 L-606.4 -612.5 L-605.4 -612.5 L-604.4 -612.5 L-603.4 -612.4 L-602.4 -612.4 L-601.4 -612.4 L-600.5 -612.4 L-599.5 -612.4 L-598.5 -612.4 L-597.5 -612.4 L-596.5 -612.4 L-595.5 -612.3 L-594.6 -612.3 L-593.6 -612.3 L-592.6 -612.3 L-591.6 -612.3 L-590.6 -612.3 L-589.6 -612.3 L-588.7 -612.3 L-587.7 -612.3 L-587.7 -611.3 L-587.7 -610.3 L-587.7 -609.3 L-587.7 -608.3 L-587.7 -607.3 L-587.8 -606.4 L-587.8 -605.4 L-587.8 -604.4 L-587.8 -603.4 L-587.8 -602.4 L-587.8 -601.4 L-587.8 -600.5 L-587.8 -599.5 L-587.8 -598.5 L-587.9 -597.5 L-587.9 -596.5 L-587.9 -595.5 L-587.9 -594.6 L-587.9 -593.6 L-587.9 -592.6 L-587.9 -591.6 L-587.9 -590.6 L-588 -589.6 L-588 -588.7 L-588 -587.7 L-589 -587.7 L-589.9 -587.7 L-590.9 -587.7 L-591.9 -587.7 L-592.9 -587.7 L-593.9 -587.8 L-594.9 -587.8 L-595.8 -587.8 L-596.8 -587.8 L-597.8 -587.8 L-598.8 -587.8 L-599.8 -587.8 L-600.8 -587.8 L-601.7 -587.8 L-602.7 -587.9 L-603.7 -587.9 L-604.7 -587.9 L-605.7 -587.9 L-606.7 -587.9 L-607.6 -587.9 L-608.6 -587.9 L-609.6 -587.9 L-610.6 -588 L-611.6 -588 L-612.6 -588 L-612.5 -589 L-612.5 -589.9 L-612.5 -590.9 L-612.5 -591.9 L-612.5 -592.9 L-612.5 -593.9 L-612.5 -594.9 L-612.5 -595.8 L-612.4 -596.8 L-612.4 -597.8 L-612.4 -598.8 L-612.4 -599.8 L-612.4 -600.8 L-612.4 -601.7 L-612.4 -602.7 L-612.4 -603.7 L-612.4 -604.7 L-612.3 -605.7 L-612.3 -606.7 L-612.3 -607.6 L-612.3 -608.6 L-612.3 -609.6 L-612.3 -610.6 L-612.3 -611.6 L-612.3 -612.5 Z " />
<path stroke="rgb(0,0,0)" stroke-opacity="0.949" fill="rgb(255,255,255)" fill-opacity="1" d="M24.75 -99.73 L24.65 -97.77 L24.4 -95.82 L23.99 -93.89 L23.43 -92.01 L22.72 -90.17 L21.86 -88.4 L20.87 -86.7 L19.75 -85.08 L18.5 -83.56 L17.14 -82.14 L15.66 -80.84 L14.09 -79.65 L12.43 -78.6 L10.69 -77.68 L8.881 -76.9 L7.018 -76.27 L5.11 -75.78 L3.169 -75.46 L1.209 -75.28 L-0.7591 -75.26 L-2.722 -75.4 L-4.668 -75.7 L-6.584 -76.15 L-8.459 -76.74 L-10.28 -77.49 L-12.04 -78.38 L-13.72 -79.4 L-15.31 -80.56 L-16.81 -81.84 L-18.2 -83.23 L-19.47 -84.73 L-20.62 -86.32 L-21.65 -88.01 L-22.53 -89.76 L-23.27 -91.59 L-23.87 -93.46 L-24.31 -95.38 L-24.6 -97.33 L-24.74 -99.29 L-24.72 -101.3 L-24.54 -103.2 L-24.21 -105.2 L-23.72 -107.1 L-23.08 -108.9 L-22.3 -110.7 L-21.38 -112.5 L-20.32 -114.1 L-19.13 -115.7 L-17.83 -117.2 L-16.41 -118.5 L-14.88 -119.8 L-13.26 -120.9 L-11.56 -121.9 L-9.786 -122.7 L-7.949 -123.4 L-6.062 -124 L-4.136 -124.4 L-2.185 -124.7 L-0.2188 -124.8 L1.748 -124.7 L3.704 -124.5 L5.637 -124.1 L7.534 -123.6 L9.383 -122.9 L11.17 -122.1 L12.89 -121.1 L14.53 -120 L16.08 -118.8 L17.52 -117.5 L18.86 -116 L20.07 -114.5 L21.16 -112.9 L22.11 -111.1 L22.93 -109.3 L23.6 -107.5 L24.12 -105.6 L24.48 -103.7 L24.7 -101.7 L24.75 -99.73 Z " />
<path stroke="rgb(0,0,0)" stroke-opacity="1" fill="rgb(255,255,255)" fill-opacity="1" d="M-412.1 -612.9 L-411.1 -612.9 L-410.1 -612.9 L-409.1 -612.8 L-408.1 -612.8 L-407.1 -612.8 L-406.1 -612.7 L-405.2 -612.7 L-404.2 -612.7 L-403.2 -612.6 L-402.2 -612.6 L-401.2 -612.6 L-400.2 -612.5 L-399.2 -612.5 L-398.2 -612.5 L-397.2 -612.4 L-396.2 -612.4 L-395.2 -612.4 L-394.2 -612.3 L-393.3 -612.3 L-392.3 -612.3 L-391.3 -612.2 L-390.3 -612.2 L-389.3 -612.2 L-388.3 -612.1 L-387.3 -612.1 L-387.3 -611.1 L-387.4 -610.1 L-387.4 -609.1 L-387.4 -608.1 L-387.5 -607.1 L-387.5 -606.1 L-387.5 -605.1 L-387.6 -604.2 L-387.6 -603.2 L-387.6 -602.2 L-387.7 -601.2 L-387.7 -600.2 L-387.7 -599.2 L-387.8 -598.2 L-387.8 -597.2 L-387.8 -596.2 L-387.9 -595.2 L-387.9 -594.2 L-387.9 -593.2 L-388 -592.3 L-388 -591.3 L-388 -590.3 L-388.1 -589.3 L-388.1 -588.3 L-388.1 -587.3 L-389.1 -587.3 L-390.1 -587.4 L-391.1 -587.4 L-392.1 -587.4 L-393.1 -587.5 L-394.1 -587.5 L-395.1 -587.5 L-396.1 -587.6 L-397.1 -587.6 L-398.1 -587.6 L-399 -587.7 L-400 -587.7 L-401 -587.7 L-402 -587.8 L-403 -587.8 L-404 -587.8 L-405 -587.9 L-406 -587.9 L-407 -587.9 L-408 -588 L-409 -588 L-410 -588 L-411 -588.1 L-411.9 -588.1 L-412.9 -588.1 L-412.9 -589.1 L-412.9 -590.1 L-412.8 -591.1 L-412.8 -592.1 L-412.8 -593.1 L-412.7 -594.1 L-412.7 -595.1 L-412.7 -596.1 L-412.6 -597.1 L-412.6 -598 L-412.6 -599 L-412.5 -600 L-412.5 -601 L-412.5 -602 L-412.4 -603 L-412.4 -604 L-412.4 -605 L-412.3 -606 L-412.3 -607 L-412.3 -608 L-412.2 -609 L-412.2 -610 L-412.2 -610.9 L-412.1 -611.9 L-412.1 -612.9 Z " />
<path stroke="rgb(0,0,0)" stroke-opacity="0.949" fill="rgb(255,255,255)" fill-opacity="1" d="M224.8 -99.73 L224.7 -97.77 L224.4 -95.82 L224 -93.89 L223.4 -92.01 L222.7 -90.17 L221.9 -88.4 L220.9 -86.7 L219.7 -85.08 L218.5 -83.56 L217.1 -82.14 L215.7 -80.84 L214.1 -79.65 L212.4 -78.6 L210.7 -77.68 L208.9 -76.9 L207 -76.27 L205.1 -75.78 L203.2 -75.46 L201.2 -75.28 L199.2 -75.26 L197.3 -75.4 L195.3 -75.7 L193.4 -76.15 L191.5 -76.74 L189.7 -77.49 L188 -78.38 L186.3 -79.4 L184.7 -80.56 L183.2 -81.84 L181.8 -83.23 L180.5 -84.73 L179.4 -86.32 L178.4 -88.01 L177.5 -89.76 L176.7 -91.59 L176.1 -93.46 L175.7 -95.38 L175.4 -97.33 L175.3 -99.29 L175.3 -101.3 L175.5 -103.2 L175.8 -105.2 L176.3 -107.1 L176.9 -108.9 L177.7 -110.7 L178.6 -112.5 L179.7 -114.1 L180.9 -115.7 L182.2 -117.2 L183.6 -118.5 L185.1 -119.8 L186.7 -120.9 L188.4 -121.9 L190.2 -122.7 L192.1 -123.4 L193.9 -124 L195.9 -124.4 L197.8 -124.7 L199.8 -124.8 L201.7 -124.7 L203.7 -124.5 L205.6 -124.1 L207.5 -123.6 L209.4 -122.9 L211.2 -122.1 L212.9 -121.1 L214.5 -120 L216.1 -118.8 L217.5 -117.5 L218.9 -116 L220.1 -114.5 L221.2 -112.9 L222.1 -111.1 L222.9 -109.3 L223.6 -107.5 L224.1 -105.6 L224.5 -103.7 L224.7 -101.7 L224.8 -99.73 Z " />
<path stroke="rgb(0,0,0)" stroke-opacity="1" fill="rgb(255,255,255)" fill-opacity="1" d="M-210.1 -616.6 L-209 -616.3 L-207.9 -616.1 L-206.9 -615.8 L-205.8 -615.5 L-204.8 -615.3 L-203.7 -615 L-202.7 -614.7 L-201.6 -614.5 L-200.5 -614.2 L-199.5 -613.9 L-198.4 -613.7 L-197.4 -613.4 L-196.3 -613.2 L-195.3 -612.9 L-194.2 -612.6 L-193.1 -612.4 L-192.1 -612.1 L-191 -611.8 L-190 -611.6 L-188.9 -611.3 L-187.9 -611 L-186.8 -610.8 L-185.7 -610.5 L-184.7 -610.3 L-183.6 -610 L-183.9 -608.9 L-184.2 -607.9 L-184.4 -606.8 L-184.7 -605.8 L-184.9 -604.7 L-185.2 -603.6 L-185.5 -602.6 L-185.7 -601.5 L-186 -600.5 L-186.3 -599.4 L-186.5 -598.4 L-186.8 -597.3 L-187.1 -596.2 L-187.3 -595.2 L-187.6 -594.1 L-187.8 -593.1 L-188.1 -592 L-188.4 -591 L-188.6 -589.9 L-188.9 -588.9 L-189.2 -587.8 L-189.4 -586.7 L-189.7 -585.7 L-190 -584.6 L-190.2 -583.6 L-191.3 -583.8 L-192.3 -584.1 L-193.4 -584.4 L-194.4 -584.6 L-195.5 -584.9 L-196.6 -585.1 L-197.6 -585.4 L-198.7 -585.7 L-199.7 -585.9 L-200.8 -586.2 L-201.8 -586.5 L-202.9 -586.7 L-204 -587 L-205 -587.3 L-206.1 -587.5 L-207.1 -587.8 L-208.2 -588 L-209.2 -588.3 L-210.3 -588.6 L-211.4 -588.8 L-212.4 -589.1 L-213.5 -589.4 L-214.5 -589.6 L-215.6 -589.9 L-216.6 -590.2 L-216.4 -591.2 L-216.1 -592.3 L-215.9 -593.3 L-215.6 -594.4 L-215.3 -595.4 L-215.1 -596.5 L-214.8 -597.6 L-214.5 -598.6 L-214.3 -599.7 L-214 -600.7 L-213.7 -601.8 L-213.5 -602.8 L-213.2 -603.9 L-213 -605 L-212.7 -606 L-212.4 -607.1 L-212.2 -608.1 L-211.9 -609.2 L-211.6 -610.2 L-211.4 -611.3 L-211.1 -612.4 L-210.8 -613.4 L-210.6 -614.5 L-210.3 -615.5 L-210.1 -616.6 Z " />
<path stroke="rgb(0,0,0)" stroke-opacity="0.949" fill="rgb(255,255,255)" fill-opacity="1" d="M-275.2 0.2668 L-275.3 2.232 L-275.6 4.184 L-276 6.109 L-276.6 7.995 L-277.3 9.83 L-278.1 11.6 L-279.1 13.3 L-280.3 14.92 L-281.5 16.44 L-282.9 17.86 L-284.3 19.16 L-285.9 20.35 L-287.6 21.4 L-289.3 22.32 L-291.1 23.1 L-293 23.73 L-294.9 24.22 L-296.8 24.54 L-298.8 24.72 L-300.8 24.74 L-302.7 24.6 L-304.7 24.3 L-306.6 23.85 L-308.5 23.26 L-310.3 22.51 L-312 21.62 L-313.7 20.6 L-315.3 19.44 L-316.8 18.16 L-318.2 16.77 L-319.5 15.27 L-320.6 13.68 L-321.6 11.99 L-322.5 10.24 L-323.3 8.414 L-323.9 6.538 L-324.3 4.62 L-324.6 2.674 L-324.7 0.7106 L-324.7 -1.257 L-324.5 -3.217 L-324.2 -5.157 L-323.7 -7.064 L-323.1 -8.926 L-322.3 -10.73 L-321.4 -12.47 L-320.3 -14.13 L-319.1 -15.7 L-317.8 -17.17 L-316.4 -18.53 L-314.9 -19.78 L-313.3 -20.9 L-311.6 -21.89 L-309.8 -22.74 L-307.9 -23.44 L-306.1 -24 L-304.1 -24.41 L-302.2 -24.66 L-300.2 -24.75 L-298.3 -24.69 L-296.3 -24.48 L-294.4 -24.1 L-292.5 -23.58 L-290.6 -22.91 L-288.8 -22.09 L-287.1 -21.13 L-285.5 -20.04 L-283.9 -18.82 L-282.5 -17.49 L-281.1 -16.04 L-279.9 -14.49 L-278.8 -12.85 L-277.9 -11.13 L-277.1 -9.339 L-276.4 -7.488 L-275.9 -5.59 L-275.5 -3.657 L-275.3 -1.7 L-275.2 0.2668 Z " />
<path stroke="rgb(0,0,0)" stroke-opacity="1" fill="rgb(255,255,255)" fill-opacity="1" d="M-712.3 -512.5 L-711.3 -512.5 L-710.3 -512.5 L-709.3 -512.5 L-708.3 -512.5 L-707.3 -512.5 L-706.4 -512.5 L-705.4 -512.5 L-704.4 -512.5 L-703.4 -512.4 L-702.4 -512.4 L-701.4 -512.4 L-700.5 -512.4 L-699.5 -512.4 L-698.5 -512.4 L-697.5 -512.4 L-696.5 -512.4 L-695.5 -512.3 L-694.6 -512.3 L-693.6 -512.3 L-692.6 -512.3 L-691.6 -512.3 L-690.6 -512.3 L-689.6 -512.3 L-688.7 -512.3 L-687.7 -512.3 L-687.7 -511.3 L-687.7 -510.3 L-687.7 -509.3 L-687.7 -508.3 L-687.7 -507.3 L-687.8 -506.4 L-687.8 -505.4 L-687.8 -504.4 L-687.8 -503.4 L-687.8 -502.4 L-687.8 -501.4 L-687.8 -500.5 L-687.8 -499.5 L-687.8 -498.5 L-687.9 -497.5 L-687.9 -496.5 L-687.9 -495.5 L-687.9 -494.6 L-687.9 -493.6 L-687.9 -492.6 L-687.9 -491.6 L-687.9 -490.6 L-688 -489.6 L-688 -488.7 L-688 -487.7 L-689 -487.7 L-689.9 -487.7 L-690.9 -487.7 L-691.9 -487.7 L-692.9 -487.7 L-693.9 -487.8 L-694.9 -487.8 L-695.8 -487.8 L-696.8 -487.8 L-697.8 -487.8 L-698.8 -487.8 L-699.8 -487.8 L-700.8 -487.8 L-701.7 -487.8 L-702.7 -487.9 L-703.7 -487.9 L-704.7 -487.9 L-705.7 -487.9 L-706.7 -487.9 L-707.6 -487.9 L-708.6 -487.9 L-709.6 -487.9 L-710.6 -488 L-711.6 -488 L-712.6 -488 L-712.5 -489 L-712.5 -489.9 L-712.5 -490.9 L-712.5 -491.9 L-712.5 -492.9 L-712.5 -493.9 L-712.5 -494.9 L-712.5 -495.8 L-712.4 -496.8 L-712.4 -497.8 L-712.4 -498.8 L-712.4 -499.8 L-712.4 -500.8 L-712.4 -501.7 L-712.4 -502.7 L-712.4 -503.7 L-712.4 -504.7 L-712.3 -505.7 L-712.3 -506.7 L-712.3 -507.6 L-712.3 -508.6 L-712.3 -509.6 L-712.3 -510.6 L-712.3 -511.6 L-712.3 -512.5 Z " />
<path stroke="rgb(0,0,0)" stroke-opacity="0.949" fill="rgb(255,255,255)" fill-opacity="1" d="M-75.25 0.2668 L-75.35 2.232 L-75.6 4.184 L-76.01 6.109 L-76.57 7.995 L-77.28 9.83 L-78.14 11.6 L-79.13 13.3 L-80.25 14.92 L-81.5 16.44 L-82.86 17.86 L-84.34 19.16 L-85.91 20.35 L-87.57 21.4 L-89.31 22.32 L-91.12 23.1 L-92.98 23.73 L-94.89 24.22 L-96.83 24.54 L-98.79 24.72 L-100.8 24.74 L-102.7 24.6 L-104.7 24.3 L-106.6 23.85 L-108.5 23.26 L-110.3 22.51 L-112 21.62 L-113.7 20.6 L-115.3 19.44 L-116.8 18.16 L-118.2 16.77 L-119.5 15.27 L-120.6 13.68 L-121.6 11.99 L-122.5 10.24 L-123.3 8.414 L-123.9 6.538 L-124.3 4.62 L-124.6 2.674 L-124.7 0.7106 L-124.7 -1.257 L-124.5 -3.217 L-124.2 -5.157 L-123.7 -7.064 L-123.1 -8.926 L-122.3 -10.73 L-121.4 -12.47 L-120.3 -14.13 L-119.1 -15.7 L-117.8 -17.17 L-116.4 -18.53 L-114.9 -19.78 L-113.3 -20.9 L-111.6 -21.89 L-109.8 -22.74 L-107.9 -23.44 L-106.1 -24 L-104.1 -24.41 L-102.2 -24.66 L-100.2 -24.75 L-98.25 -24.69 L-96.3 -24.48 L-94.36 -24.1 L-92.47 -23.58 L-90.62 -22.91 L-88.83 -22.09 L-87.11 -21.13 L-85.47 -20.04 L-83.92 -18.82 L-82.48 -17.49 L-81.14 -16.04 L-79.93 -14.49 L-78.84 -12.85 L-77.89 -11.13 L-77.07 -9.339 L-76.4 -7.488 L-75.88 -5.59 L-75.52 -3.657 L-75.3 -1.7 L-75.25 0.2668 Z " />
<path stroke="rgb(0,0,0)" stroke-opacity="1" fill="rgb(255,255,255)" fill-opacity="1" d="M-512.1 -512.9 L-511.1 -512.9 L-510.1 -512.9 L-509.1 -512.8 L-508.1 -512.8 L-507.1 -512.8 L-506.1 -512.7 L-505.2 -512.7 L-504.2 -512.7 L-503.2 -512.6 L-502.2 -512.6 L-501.2 -512.6 L-500.2 -512.5 L-499.2 -512.5 L-498.2 -512.5 L-497.2 -512.4 L-496.2 -512.4 L-495.2 -512.4 L-494.2 -512.3 L-493.3 -512.3 L-492.3 -512.3 L-491.3 -512.2 L-490.3 -512.2 L-489.3 -512.2 L-488.3 -512.1 L-487.3 -512.1 L-487.3 -511.1 L-487.4 -510.1 L-487.4 -509.1 L-487.4 -508.1 L-487.5 -507.1 L-487.5 -506.1 L-487.5 -505.1 L-487.6 -504.2 L-487.6 -503.2 L-487.6 -502.2 L-487.7 -501.2 L-487.7 -500.2 L-487.7 -499.2 L-487.8 -498.2 L-487.8 -497.2 L-487.8 -496.2 L-487.9 -495.2 L-487.9 -494.2 L-487.9 -493.2 L-488 -492.3 L-488 -491.3 L-488 -490.3 L-488.1 -489.3 L-488.1 -488.3 L-488.1 -487.3 L-489.1 -487.3 L-490.1 -487.4 L-491.1 -487.4 L-492.1 -487.4 L-493.1 -487.5 L-494.1 -487.5 L-495.1 -487.5 L-496.1 -487.6 L-497.1 -487.6 L-498.1 -487.6 L-499 -487.7 L-500 -487.7 L-501 -487.7 L-502 -487.8 L-503 -487.8 L-504 -487.8 L-505 -487.9 L-506 -487.9 L-507 -487.9 L-508 -488 L-509 -488 L-510 -488 L-511 -488.1 L-511.9 -488.1 L-512.9 -488.1 L-512.9 -489.1 L-512.9 -490.1 L-512.8 -491.1 L-512.8 -492.1 L-512.8 -493.1 L-512.7 -494.1 L-512.7 -495.1 L-512.7 -496.1 L-512.6 -497.1 L-512.6 -498 L-512.6 -499 L-512.5 -500 L-512.5 -501 L-512.5 -502 L-512.4 -503 L-512.4 -504 L-512.4 -505 L-512.3 -506 L-512.3 -507 L-512.3 -508 L-512.2 -509 L-512.2 -510 L-512.2 -510.9 L-512.1 -511.9 L-512.1 -512.9 Z " />
<path stroke="rgb(0,0,0)" stroke-opacity="0.949" fill="rgb(255,255,255)" fill-opacity="1" d="M124.8 0.2668 L124.7 2.232 L124.4 4.184 L124 6.109 L123.4 7.995 L122.7 9.83 L121.9 11.6 L120.9 13.3 L119.7 14.92 L118.5 16.44 L117.1 17.86 L115.7 19.16 L114.1 20.35 L112.4 21.4 L110.7 22.32 L108.9 23.1 L107 23.73 L105.1 24.22 L103.2 24.54 L101.2 24.72 L99.24 24.74 L97.28 24.6 L95.33 24.3 L93.42 23.85 L91.54 23.26 L89.72 22.51 L87.96 21.62 L86.28 20.6 L84.69 19.44 L83.19 18.16 L81.8 16.77 L80.53 15.27 L79.38 13.68 L78.35 11.99 L77.47 10.24 L76.73 8.414 L76.13 6.538 L75.69 4.62 L75.4 2.674 L75.26 0.7106 L75.28 -1.257 L75.46 -3.217 L75.79 -5.157 L76.28 -7.064 L76.92 -8.926 L77.7 -10.73 L78.62 -12.47 L79.68 -14.13 L80.87 -15.7 L82.17 -17.17 L83.59 -18.53 L85.12 -19.78 L86.74 -20.9 L88.44 -21.89 L90.21 -22.74 L92.05 -23.44 L93.94 -24 L95.86 -24.41 L97.82 -24.66 L99.78 -24.75 L101.7 -24.69 L103.7 -24.48 L105.6 -24.1 L107.5 -23.58 L109.4 -22.91 L111.2 -22.09 L112.9 -21.13 L114.5 -20.04 L116.1 -18.82 L117.5 -17.49 L118.9 -16.04 L120.1 -14.49 L121.2 -12.85 L122.1 -11.13 L122.9 -9.339 L123.6 -7.488 L124.1 -5.59 L124.5 -3.657 L124.7 -1.7 L124.8 0.2668 Z " />
<path stroke="rgb(0,0,0)" stroke-opacity="1" fill="rgb(255,255,255)" fill-opacity="1" d="M-310.1 -516.6 L-309 -516.3 L-307.9 -516.1 L-306.9 -515.8 L-305.8 -515.5 L-304.8 -515.3 L-303.7 -515 L-302.7 -514.7 L-301.6 -514.5 L-300.5 -514.2 L-299.5 -513.9 L-298.4 -513.7 L-297.4 -513.4 L-296.3 -513.2 L-295.3 -512.9 L-294.2 -512.6 L-293.1 -512.4 L-292.1 -512.1 L-291 -511.8 L-290 -511.6 L-288.9 -511.3 L-287.9 -511 L-286.8 -510.8 L-285.7 -510.5 L-284.7 -510.3 L-283.6 -510 L-283.9 -508.9 L-284.2 -507.9 L-284.4 -506.8 L-284.7 -505.8 L-284.9 -504.7 L-285.2 -503.6 L-285.5 -502.6 L-285.7 -501.5 L-286 -500.5 L-286.3 -499.4 L-286.5 -498.4 L-286.8 -497.3 L-287.1 -496.2 L-287.3 -495.2 L-287.6 -494.1 L-287.8 -493.1 L-288.1 -492 L-288.4 -491 L-288.6 -489.9 L-288.9 -488.9 L-289.2 -487.8 L-289.4 -486.7 L-289.7 -485.7 L-290 -484.6 L-290.2 -483.6 L-291.3 -483.8 L-292.3 -484.1 L-293.4 -484.4 L-294.4 -484.6 L-295.5 -484.9 L-296.6 -485.1 L-297.6 -485.4 L-298.7 -485.7 L-299.7 -485.9 L-300.8 -486.2 L-301.8 -486.5 L-302.9 -486.7 L-304 -487 L-305 -487.3 L-306.1 -487.5 L-307.1 -487.8 L-308.2 -488 L-309.2 -488.3 L-310.3 -488.6 L-311.4 -488.8 L-312.4 -489.1 L-313.5 -489.4 L-314.5 -489.6 L-315.6 -489.9 L-316.6 -490.2 L-316.4 -491.2 L-316.1 -492.3 L-315.9 -493.3 L-315.6 -494.4 L-315.3 -495.4 L-315.1 -496.5 L-314.8 -497.6 L-314.5 -498.6 L-314.3 -499.7 L-314 -500.7 L-313.7 -501.8 L-313.5 -502.8 L-313.2 -503.9 L-313 -505 L-312.7 -506 L-312.4 -507.1 L-312.2 -508.1 L-311.9 -509.2 L-311.6 -510.2 L-311.4 -511.3 L-311.1 -512.4 L-310.8 -513.4 L-310.6 -514.5 L-310.3 -515.5 L-310.1 -516.6 Z " />
<path stroke="rgb(0,0,0)" stroke-opacity="0.949" fill="rgb(255,255,255)" fill-opacity="1" d="M324.8 0.2668 L324.7 2.232 L324.4 4.184 L324 6.109 L323.4 7.995 L322.7 9.83 L321.9 11.6 L320.9 13.3 L319.7 14.92 L318.5 16.44 L317.1 17.86 L315.7 19.16 L314.1 20.35 L312.4 21.4 L310.7 22.32 L308.9 23.1 L307 23.73 L305.1 24.22 L303.2 24.54 L301.2 24.72 L299.2 24.74 L297.3 24.6 L295.3 24.3 L293.4 23.85 L291.5 23.26 L289.7 22.51 L288 21.62 L286.3 20.6 L284.7 19.44 L283.2 18.16 L281.8 16.77 L280.5 15.27 L279.4 13.68 L278.4 11.99 L277.5 10.24 L276.7 8.414 L276.1 6.538 L275.7 4.62 L275.4 2.674 L275.3 0.7106 L275.3 -1.257 L275.5 -3.217 L275.8 -5.157 L276.3 -7.064 L276.9 -8.926 L277.7 -10.73 L278.6 -12.47 L279.7 -14.13 L280.9 -15.7 L282.2 -17.17 L283.6 -18.53 L285.1 -19.78 L286.7 -20.9 L288.4 -21.89 L290.2 -22.74 L292.1 -23.44 L293.9 -24 L295.9 -24.41 L297.8 -24.66 L299.8 -24.75 L301.7 -24.69 L303.7 -24.48 L305.6 -24.1 L307.5 -23.58 L309.4 -22.91 L311.2 -22.09 L312.9 -21.13 L314.5 -20.04 L316.1 -18.82 L317.5 -17.49 L318.9 -16.04 L320.1 -14.49 L321.2 -12.85 L322.1 -11.13 L322.9 -9.339 L323.6 -7.488 L324.1 -5.59 L324.5 -3.657 L324.7 -1.7 L324.8 0.2668 Z " />
<path stroke="rgb(0,0,0)" stroke-opacity="1" fill="rgb(255,255,255)" fill-opacity="1" d="M-812.3 -412.5 L-811.3 -412.5 L-810.3 -412.5 L-809.3 -412.5 L-808.3 -412.5 L-807.3 -412.5 L-806.4 -412.5 L-805.4 -412.5 L-804.4 -412.5 L-803.4 -412.4 L-802.4 -412.4 L-801.4 -412.4 L-800.5 -412.4 L-799.5 -412.4 L-798.5 -412.4 L-797.5 -412.4 L-796.5 -412.4 L-795.5 -412.3 L-794.6 -412.3 L-793.6 -412.3 L-792.6 -412.3 L-791.6 -412.3 L-790.6 -412.3 L-789.6 -412.3 L-788.7 -412.3 L-787.7 -412.3 L-787.7 -411.3 L-787.7 -410.3 L-787.7 -409.3 L-787.7 -408.3 L-787.7 -407.3 L-787.8 -406.4 L-787.8 -405.4 L-787.8 -404.4 L-787.8 -403.4 L-787.8 -402.4 L-787.8 -401.4 L-787.8 -400.5 L-787.8 -399.5 L-787.8 -398.5 L-787.9 -397.5 L-787.9 -396.5 L-787.9 -395.5 L-787.9 -394.6 L-787.9 -393.6 L-787.9 -392.6 L-787.9 -391.6 L-787.9 -390.6 L-788 -389.6 L-788 -388.7 L-788 -387.7 L-789 -387.7 L-789.9 -387.7 L-790.9 -387.7 L-791.9 -387.7 L-792.9 -387.7 L-793.9 -387.8 L-794.9 -387.8 L-795.8 -387.8 L-796.8 -387.8 L-797.8 -387.8 L-798.8 -387.8 L-799.8 -387.8 L-800.8 -387.8 L-801.7 -387.8 L-802.7 -387.9 L-803.7 -387.9 L-804.7 -387.9 L-805.7 -387.9 L-806.7 -387.9 L-807.6 -387.9 L-808.6 -387.9 L-809.6 -387.9 L-810.6 -388 L-811.6 -388 L-812.6 -388 L-812.5 -389 L-812.5 -389.9 L-812.5 -390.9 L-812.5 -391.9 L-812.5 -392.9 L-812.5 -393.9 L-812.5 -394.9 L-812.5 -395.8 L-812.4 -396.8 L-812.4 -397.8 L-812.4 -398.8 L-812.4 -399.8 L-812.4 -400.8 L-812.4 -401.7 L-812.4 -402.7 L-812.4 -403.7 L-812.4 -404.7 L-812.3 -405.7 L-812.3 -406.7 L-812.3 -407.6 L-812.3 -408.6 L-812.3 -409.6 L-812.3 -410.6 L-812.3 -411.6 L-812.3 -412.5 Z " />
<path stroke="rgb(0,0,0)" stroke-opacity="0.949" fill="rgb(255,255,255)" fill-opacity="1" d="M-175.2 100.3 L-175.3 102.2 L-175.6 104.2 L-176 106.1 L-176.6 108 L-177.3 109.8 L-178.1 111.6 L-179.1 113.3 L-180.3 114.9 L-181.5 116.4 L-182.9 117.9 L-184.3 119.2 L-185.9 120.3 L-187.6 121.4 L-189.3 122.3 L-191.1 123.1 L-193 123.7 L-194.9 124.2 L-196.8 124.5 L-198.8 124.7 L-200.8 124.7 L-202.7 124.6 L-204.7 124.3 L-206.6 123.9 L-208.5 123.3 L-210.3 122.5 L-212 121.6 L-213.7 120.6 L-215.3 119.4 L-216.8 118.2 L-218.2 116.8 L-219.5 115.3 L-220.6 113.7 L-221.6 112 L-222.5 110.2 L-223.3 108.4 L-223.9 106.5 L-224.3 104.6 L-224.6 102.7 L-224.7 100.7 L-224.7 98.74 L-224.5 96.78 L-224.2 94.84 L-223.7 92.94 L-223.1 91.07 L-222.3 89.27 L-221.4 87.53 L-220.3 85.87 L-219.1 84.3 L-217.8 82.83 L-216.4 81.47 L-214.9 80.22 L-213.3 79.1 L-211.6 78.11 L-209.8 77.26 L-207.9 76.56 L-206.1 76 L-204.1 75.59 L-202.2 75.34 L-200.2 75.25 L-198.3 75.31 L-196.3 75.52 L-194.4 75.9 L-192.5 76.42 L-190.6 77.09 L-188.8 77.91 L-187.1 78.87 L-185.5 79.96 L-183.9 81.18 L-182.5 82.51 L-181.1 83.96 L-179.9 85.51 L-178.8 87.15 L-177.9 88.87 L-177.1 90.66 L-176.4 92.51 L-175.9 94.41 L-175.5 96.34 L-175.3 98.3 L-175.2 100.3 Z " />
<path stroke="rgb(0,0,0)" stroke-opacity="1" fill="rgb(255,255,255)" fill-opacity="1" d="M-612.1 -412.9 L-611.1 -412.9 L-610.1 -412.9 L-609.1 -412.8 L-608.1 -412.8 L-607.1 -412.8 L-606.1 -412.7 L-605.2 -412.7 L-604.2 -412.7 L-603.2 -412.6 L-602.2 -412.6 L-601.2 -412.6 L-600.2 -412.5 L-599.2 -412.5 L-598.2 -412.5 L-597.2 -412.4 L-596.2 -412.4 L-595.2 -412.4 L-594.2 -412.3 L-593.3 -412.3 L-592.3 -412.3 L-591.3 -412.2 L-590.3 -412.2 L-589.3 -412.2 L-588.3 -412.1 L-587.3 -412.1 L-587.3 -411.1 L-587.4 -410.1 L-587.4 -409.1 L-587.4 -408.1 L-587.5 -407.1 L-587.5 -406.1 L-587.5 -405.1 L-587.6 -404.2 L-587.6 -403.2 L-587.6 -402.2 L-587.7 -401.2 L-587.7 -400.2 L-587.7 -399.2 L-587.8 -398.2 L-587.8 -397.2 L-587.8 -396.2 L-587.9 -395.2 L-587.9 -394.2 L-587.9 -393.2 L-588 -392.3 L-588 -391.3 L-588 -390.3 L-588.1 -389.3 L-588.1 -388.3 L-588.1 -387.3 L-589.1 -387.3 L-590.1 -387.4 L-591.1 -387.4 L-592.1 -387.4 L-593.1 -387.5 L-594.1 -387.5 L-595.1 -387.5 L-596.1 -387.6 L-597.1 -387.6 L-598.1 -387.6 L-599 -387.7 L-600 -387.7 L-601 -387.7 L-602 -387.8 L-603 -387.8 L-604 -387.8 L-605 -387.9 L-606 -387.9 L-607 -387.9 L-608 -388 L-609 -388 L-610 -388 L-611 -388.1 L-611.9 -388.1 L-612.9 -388.1 L-612.9 -389.1 L-612.9 -390.1 L-612.8 -391.1 L-612.8 -392.1 L-612.8 -393.1 L-612.7 -394.1 L-612.7 -395.1 L-612.7 -396.1 L-612.6 -397.1 L-612.6 -398 L-612.6 -399 L-612.5 -400 L-612.5 -401 L-612.5 -402 L-612.4 -403 L-612.4 -404 L-612.4 -405 L-612.3 -406 L-612.3 -407 L-612.3 -408 L-612.2 -409 L-612.2 -410 L-612.2 -410.9 L-612.1 -411.9 L-612.1 -412.9 Z " />
<path stroke="rgb(0,0,0)" stroke-opacity="0.949" fill="rgb(255,255,255)" fill-opacity="1" d="M24.75 100.3 L24.65 102.2 L24.4 104.2 L23.99 106.1 L23.43 108 L22.72 109.8 L21.86 111.6 L20.87 113.3 L19.75 114.9 L18.5 116.4 L17.14 117.9 L15.66 119.2 L14.09 120.3 L12.43 121.4 L10.69 122.3 L8.881 123.1 L7.018 123.7 L5.11 124.2 L3.169 124.5 L1.209 124.7 L-0.7591 124.7 L-2.722 124.6 L-4.668 124.3 L-6.584 123.9 L-8.459 123.3 L-10.28 122.5 L-12.04 121.6 L-13.72 120.6 L-15.31 119.4 L-16.81 118.2 L-18.2 116.8 L-19.47 115.3 L-20.62 113.7 L-21.65 112 L-22.53 110.2 L-23.27 108.4 L-23.87 106.5 L-24.31 104.6 L-24.6 102.7 L-24.74 100.7 L-24.72 98.74 L-24.54 96.78 L-24.21 94.84 L-23.72 92.94 L-23.08 91.07 L-22.3 89.27 L-21.38 87.53 L-20.32 85.87 L-19.13 84.3 L-17.83 82.83 L-16.41 81.47 L-14.88 80.22 L-13.26 79.1 L-11.56 78.11 L-9.786 77.26 L-7.949 76.56 L-6.062 76 L-4.136 75.59 L-2.185 75.34 L-0.2188 75.25 L1.748 75.31 L3.704 75.52 L5.637 75.9 L7.534 76.42 L9.383 77.09 L11.17 77.91 L12.89 78.87 L14.53 79.96 L16.08 81.18 L17.52 82.51 L18.86 83.96 L20.07 85.51 L21.16 87.15 L22.11 88.87 L22.93 90.66 L23.6 92.51 L24.12 94.41 L24.48 96.34 L24.7 98.3 L24.75 100.3 Z " />
<path stroke="rgb(0,0,0)" stroke-opacity="1" fill="rgb(255,255,255)" fill-opacity="1" d="M-410.1 -416.6 L-409 -416.3 L-407.9 -416.1 L-406.9 -415.8 L-405.8 -415.5 L-404.8 -415.3 L-403.7 -415 L-402.7 -414.7 L-401.6 -414.5 L-400.5 -414.2 L-399.5 -413.9 L-398.4 -413.7 L-397.4 -413.4 L-396.3 -413.2 L-395.3 -412.9 L-394.2 -412.6 L-393.1 -412.4 L-392.1 -412.1 L-391 -411.8 L-390 -411.6 L-388.9 -411.3 L-387.9 -411 L-386.8 -410.8 L-385.7 -410.5 L-384.7 -410.3 L-383.6 -410 L-383.9 -408.9 L-384.2 -407.9 L-384.4 -406.8 L-384.7 -405.8 L-384.9 -404.7 L-385.2 -403.6 L-385.5 -402.6 L-385.7 -401.5 L-386 -400.5 L-386.3 -399.4 L-386.5 -398.4 L-386.8 -397.3 L-387.1 -396.2 L-387.3 -395.2 L-387.6 -394.1 L-387.8 -393.1 L-388.1 -392 L-388.4 -391 L-388.6 -389.9 L-388.9 -388.9 L-389.2 -387.8 L-389.4 -386.7 L-389.7 -385.7 L-390 -384.6 L-390.2 -383.6 L-391.3 -383.8 L-392.3 -384.1 L-393.4 -384.4 L-394.4 -384.6 L-395.5 -384.9 L-396.6 -385.1 L-397.6 -385.4 L-398.7 -385.7 L-399.7 -385.9 L-400.8 -386.2 L-401.8 -386.5 L-402.9 -386.7 L-404 -387 L-405 -387.3 L-406.1 -387.5 L-407.1 -387.8 L-408.2 -388 L-409.2 -388.3 L-410.3 -388.6 L-411.4 -388.8 L-412.4 -389.1 L-413.5 -389.4 L-414.5 -389.6 L-415.6 -389.9 L-416.6 -390.2 L-416.4 -391.2 L-416.1 -392.3 L-415.9 -393.3 L-415.6 -394.4 L-415.3 -395.4 L-415.1 -396.5 L-414.8 -397.6 L-414.5 -398.6 L-414.3 -399.7 L-414 -400.7 L-413.7 -401.8 L-413.5 -402.8 L-413.2 -403.9 L-413 -405 L-412.7 -406 L-412.4 -407.1 L-412.2 -408.1 L-411.9 -409.2 L-411.6 -410.2 L-411.4 -411.3 L-411.1 -412.4 L-410.8 -413.4 L-410.6 -414.5 L-410.3 -415.5 L-410.1 -416.6 Z " />
<path stroke="rgb(0,0,0)" stroke-opacity="0.949" fill="rgb(255,255,255)" fill-opacity="1" d="M224.8 100.3 L224.7 102.2 L224.4 104.2 L224 106.1 L223.4 108 L222.7 109.8 L221.9 111.6 L220.9 113.3 L219.7 114.9 L218.5 116.4 L217.1 117.9 L215.7 119.2 L214.1 120.3 L212.4 121.4 L210.7 122.3 L208.9 123.1 L207 123.7 L205.1 124.2 L203.2 124.5 L201.2 124.7 L199.2 124.7 L197.3 124.6 L195.3 124.3 L193.4 123.9 L191.5 123.3 L189.7 122.5 L188 121.6 L186.3 120.6 L184.7 119.4 L183.2 118.2 L181.8 116.8 L180.5 115.3 L179.4 113.7 L178.4 112 L177.5 110.2 L176.7 108.4 L176.1 106.5 L175.7 104.6 L175.4 102.7 L175.3 100.7 L175.3 98.74 L175.5 96.78 L175.8 94.84 L176.3 92.94 L176.9 91.07 L177.7 89.27 L178.6 87.53 L179.7 85.87 L180.9 84.3 L182.2 82.83 L183.6 81.47 L185.1 80.22 L186.7 79.1 L188.4 78.11 L190.2 77.26 L192.1 76.56 L193.9 76 L195.9 75.59 L197.8 75.34 L199.8 75.25 L201.7 75.31 L203.7 75.52 L205.6 75.9 L207.5 76.42 L209.4 77.09 L211.2 77.91 L212.9 78.87 L214.5 79.96 L216.1 81.18 L217.5 82.51 L218.9 83.96 L220.1 85.51 L221.2 87.15 L222.1 88.87 L222.9 90.66 L223.6 92.51 L224.1 94.41 L224.5 96.34 L224.7 98.3 L224.8 100.3 Z " />
<path stroke="rgb(0,0,0)" stroke-opacity="1" fill="rgb(255,255,255)" fill-opacity="1" d="M-198.2 -425.3 L-197.3 -424.2 L-196.4 -423.1 L-195.4 -422 L-194.5 -420.9 L-193.6 -419.8 L-192.6 -418.7 L-191.7 -417.6 L-190.8 -416.5 L-189.9 -415.4 L-188.9 -414.3 L-188 -413.2 L-187.1 -412.1 L-186.1 -411.1 L-185.2 -410 L-184.3 -408.9 L-183.4 -407.8 L-182.4 -406.7 L-181.5 -405.6 L-180.6 -404.5 L-179.6 -403.4 L-178.7 -402.3 L-177.8 -401.2 L-176.8 -400.1 L-175.9 -399 L-175 -397.9 L-176.1 -397 L-177.2 -396.1 L-178.3 -395.2 L-179.4 -394.2 L-180.5 -393.3 L-181.5 -392.4 L-182.6 -391.4 L-183.7 -390.5 L-184.8 -389.6 L-185.9 -388.7 L-187 -387.7 L-188.1 -386.8 L-189.2 -385.9 L-190.3 -384.9 L-191.4 -384 L-192.5 -383.1 L-193.6 -382.2 L-194.6 -381.2 L-195.7 -380.3 L-196.8 -379.4 L-197.9 -378.4 L-199 -377.5 L-200.1 -376.6 L-201.2 -375.6 L-202.3 -374.7 L-203.2 -375.8 L-204.2 -376.9 L-205.1 -378 L-206 -379.1 L-206.9 -380.2 L-207.9 -381.3 L-208.8 -382.4 L-209.7 -383.5 L-210.7 -384.5 L-211.6 -385.6 L-212.5 -386.7 L-213.4 -387.8 L-214.4 -388.9 L-215.3 -390 L-216.2 -391.1 L-217.2 -392.2 L-218.1 -393.3 L-219 -394.4 L-219.9 -395.5 L-220.9 -396.6 L-221.8 -397.7 L-222.7 -398.7 L-223.7 -399.8 L-224.6 -400.9 L-225.5 -402 L-224.4 -403 L-223.3 -403.9 L-222.2 -404.8 L-221.2 -405.7 L-220.1 -406.7 L-219 -407.6 L-217.9 -408.5 L-216.8 -409.5 L-215.7 -410.4 L-214.6 -411.3 L-213.5 -412.2 L-212.4 -413.2 L-211.3 -414.1 L-210.2 -415 L-209.1 -416 L-208 -416.9 L-207 -417.8 L-205.9 -418.8 L-204.8 -419.7 L-203.7 -420.6 L-202.6 -421.5 L-201.5 -422.5 L-200.4 -423.4 L-199.3 -424.3 L-198.2 -425.3 Z " />
<path stroke="rgb(0,0,0)" stroke-opacity="0.949" fill="rgb(255,255,255)" fill-opacity="1" d="M-275.2 200.3 L-275.3 202.2 L-275.6 204.2 L-276 206.1 L-276.6 208 L-277.3 209.8 L-278.1 211.6 L-279.1 213.3 L-280.3 214.9 L-281.5 216.4 L-282.9 217.9 L-284.3 219.2 L-285.9 220.3 L-287.6 221.4 L-289.3 222.3 L-291.1 223.1 L-293 223.7 L-294.9 224.2 L-296.8 224.5 L-298.8 224.7 L-300.8 224.7 L-302.7 224.6 L-304.7 224.3 L-306.6 223.9 L-308.5 223.3 L-310.3 222.5 L-312 221.6 L-313.7 220.6 L-315.3 219.4 L-316.8 218.2 L-318.2 216.8 L-319.5 215.3 L-320.6 213.7 L-321.6 212 L-322.5 210.2 L-323.3 208.4 L-323.9 206.5 L-324.3 204.6 L-324.6 202.7 L-324.7 200.7 L-324.7 198.7 L-324.5 196.8 L-324.2 194.8 L-323.7 192.9 L-323.1 191.1 L-322.3 189.3 L-321.4 187.5 L-320.3 185.9 L-319.1 184.3 L-317.8 182.8 L-316.4 181.5 L-314.9 180.2 L-313.3 179.1 L-311.6 178.1 L-309.8 177.3 L-307.9 176.6 L-306.1 176 L-304.1 175.6 L-302.2 175.3 L-300.2 175.2 L-298.3 175.3 L-296.3 175.5 L-294.4 175.9 L-292.5 176.4 L-290.6 177.1 L-288.8 177.9 L-287.1 178.9 L-285.5 180 L-283.9 181.2 L-282.5 182.5 L-281.1 184 L-279.9 185.5 L-278.8 187.1 L-277.9 188.9 L-277.1 190.7 L-276.4 192.5 L-275.9 194.4 L-275.5 196.3 L-275.3 198.3 L-275.2 200.3 Z " />
<path stroke="rgb(0,0,0)" stroke-opacity="1" fill="rgb(255,255,255)" fill-opacity="1" d="M-712.1 -312.9 L-711.1 -312.9 L-710.1 -312.9 L-709.1 -312.8 L-708.1 -312.8 L-707.1 -312.8 L-706.1 -312.7 L-705.2 -312.7 L-704.2 -312.7 L-703.2 -312.6 L-702.2 -312.6 L-701.2 -312.6 L-700.2 -312.5 L-699.2 -312.5 L-698.2 -312.5 L-697.2 -312.4 L-696.2 -312.4 L-695.2 -312.4 L-694.2 -312.3 L-693.3 -312.3 L-692.3 -312.3 L-691.3 -312.2 L-690.3 -312.2 L-689.3 -312.2 L-688.3 -312.1 L-687.3 -312.1 L-687.3 -311.1 L-687.4 -310.1 L-687.4 -309.1 L-687.4 -308.1 L-687.5 -307.1 L-687.5 -306.1 L-687.5 -305.1 L-687.6 -304.2 L-687.6 -303.2 L-687.6 -302.2 L-687.7 -301.2 L-687.7 -300.2 L-687.7 -299.2 L-687.8 -298.2 L-687.8 -297.2 L-687.8 -296.2 L-687.9 -295.2 L-687.9 -294.2 L-687.9 -293.2 L-688 -292.3 L-688 -291.3 L-688 -290.3 L-688.1 -289.3 L-688.1 -288.3 L-688.1 -287.3 L-689.1 -287.3 L-690.1 -287.4 L-691.1 -287.4 L-692.1 -287.4 L-693.1 -287.5 L-694.1 -287.5 L-695.1 -287.5 L-696.1 -287.6 L-697.1 -287.6 L-698.1 -287.6 L-699 -287.7 L-700 -287.7 L-701 -287.7 L-702 -287.8 L-703 -287.8 L-704 -287.8 L-705 -287.9 L-706 -287.9 L-707 -287.9 L-708 -288 L-709 -288 L-710 -288 L-711 -288.1 L-711.9 -288.1 L-712.9 -288.1 L-712.9 -289.1 L-712.9 -290.1 L-712.8 -291.1 L-712.8 -292.1 L-712.8 -293.1 L-712.7 -294.1 L-712.7 -295.1 L-712.7 -296.1 L-712.6 -297.1 L-712.6 -298 L-712.6 -299 L-712.5 -300 L-712.5 -301 L-712.5 -302 L-712.4 -303 L-712.4 -304 L-712.4 -305 L-712.3 -306 L-712.3 -307 L-712.3 -308 L-712.2 -309 L-712.2 -310 L-712.2 -310.9 L-712.1 -311.9 L-712.1 -312.9 Z " />
<path stroke="rgb(0,0,0)" stroke-opacity="0.949" fill="rgb(255,255,255)" fill-opacity="1" d="M-75.25 200.3 L-75.35 202.2 L-75.6 204.2 L-76.01 206.1 L-76.57 208 L-77.28 209.8 L-78.14 211.6 L-79.13 213.3 L-80.25 214.9 L-81.5 216.4 L-82.86 217.9 L-84.34 219.2 L-85.91 220.3 L-87.57 221.4 L-89.31 222.3 L-91.12 223.1 L-92.98 223.7 L-94.89 224.2 L-96.83 224.5 L-98.79 224.7 L-100.8 224.7 L-102.7 224.6 L-104.7 224.3 L-106.6 223.9 L-108.5 223.3 L-110.3 222.5 L-112 221.6 L-113.7 220.6 L-115.3 219.4 L-116.8 218.2 L-118.2 216.8 L-119.5 215.3 L-120.6 213.7 L-121.6 212 L-122.5 210.2 L-123.3 208.4 L-123.9 206.5 L-124.3 204.6 L-124.6 202.7 L-124.7 200.7 L-124.7 198.7 L-124.5 196.8 L-124.2 194.8 L-123.7 192.9 L-123.1 191.1 L-122.3 189.3 L-121.4 187.5 L-120.3 185.9 L-119.1 184.3 L-117.8 182.8 L-116.4 181.5 L-114.9 180.2 L-113.3 179.1 L-111.6 178.1 L-109.8 177.3 L-107.9 176.6 L-106.1 176 L-104.1 175.6 L-102.2 175.3 L-100.2 175.2 L-98.25 175.3 L-96.3 175.5 L-94.36 175.9 L-92.47 176.4 L-90.62 177.1 L-88.83 177.9 L-87.11 178.9 L-85.47 180 L-83.92 181.2 L-82.48 182.5 L-81.14 184 L-79.93 185.5 L-78.84 187.1 L-77.89 188.9 L-77.07 190.7 L-76.4 192.5 L-75.88 194.4 L-75.52 196.3 L-75.3 198.3 L-75.25 200.3 Z " />
<path stroke="rgb(0,0,0)" stroke-opacity="1" fill="rgb(255,255,255)" fill-opacity="1" d="M-510.1 -316.6 L-509 -316.3 L-507.9 -316.1 L-506.9 -315.8 L-505.8 -315.5 L-504.8 -315.3 L-503.7 -315 L-502.7 -314.7 L-501.6 -314.5 L-500.5 -314.2 L-499.5 -313.9 L-498.4 -313.7 L-497.4 -313.4 L-496.3 -313.2 L-495.3 -312.9 L-494.2 -312.6 L-493.1 -312.4 L-492.1 -312.1 L-491 -311.8 L-490 -311.6 L-488.9 -311.3 L-487.9 -311 L-486.8 -310.8 L-485.7 -310.5 L-484.7 -310.3 L-483.6 -310 L-483.9 -308.9 L-484.2 -307.9 L-484.4 -306.8 L-484.7 -305.8 L-484.9 -304.7 L-485.2 -303.6 L-485.5 -302.6 L-485.7 -301.5 L-486 -300.5 L-486.3 -299.4 L-486.5 -298.4 L-486.8 -297.3 L-487.1 -296.2 L-487.3 -295.2 L-487.6 -294.1 L-487.8 -293.1 L-488.1 -292 L-488.4 -291 L-488.6 -289.9 L-488.9 -288.9 L-489.2 -287.8 L-489.4 -286.7 L-489.7 -285.7 L-490 -284.6 L-490.2 -283.6 L-491.3 -283.8 L-492.3 -284.1 L-493.4 -284.4 L-494.4 -284.6 L-495.5 -284.9 L-496.6 -285.1 L-497.6 -285.4 L-498.7 -285.7 L-499.7 -285.9 L-500.8 -286.2 L-501.8 -286.5 L-502.9 -286.7 L-504 -287 L-505 -287.3 L-506.1 -287.5 L-507.1 -287.8 L-508.2 -288 L-509.2 -288.3 L-510.3 -288.6 L-511.4 -288.8 L-512.4 -289.1 L-513.5 -289.4 L-514.5 -289.6 L-515.6 -289.9 L-516.6 -290.2 L-516.4 -291.2 L-516.1 -292.3 L-515.9 -293.3 L-515.6 -294.4 L-515.3 -295.4 L-515.1 -296.5 L-514.8 -297.6 L-514.5 -298.6 L-514.3 -299.7 L-514 -300.7 L-513.7 -301.8 L-513.5 -302.8 L-513.2 -303.9 L-513 -305 L-512.7 -306 L-512.4 -307.1 L-512.2 -308.1 L-511.9 -309.2 L-511.6 -310.2 L-511.4 -311.3 L-511.1 -312.4 L-510.8 -313.4 L-510.6 -314.5 L-510.3 -315.5 L-510.1 -316.6 Z " />
<path stroke="rgb(0,0,0)" stroke-opacity="0.949" fill="rgb(255,255,255)" fill-opacity="1" d="M124.8 200.3 L124.7 202.2 L124.4 204.2 L124 206.1 L123.4 208 L122.7 209.8 L121.9 211.6 L120.9 213.3 L119.7 214.9 L118.5 216.4 L117.1 217.9 L115.7 219.2 L114.1 220.3 L112.4 221.4 L110.7 222.3 L108.9 223.1 L107 223.7 L105.1 224.2 L103.2 224.5 L101.2 224.7 L99.24 224.7 L97.28 224.6 L95.33 224.3 L93.42 223.9 L91.54 223.3 L89.72 222.5 L87.96 221.6 L86.28 220.6 L84.69 219.4 L83.19 218.2 L81.8 216.8 L80.53 215.3 L79.38 213.7 L78.35 212 L77.47 210.2 L76.73 208.4 L76.13 206.5 L75.69 204.6 L75.4 202.7 L75.26 200.7 L75.28 198.7 L75.46 196.8 L75.79 194.8 L76.28 192.9 L76.92 191.1 L77.7 189.3 L78.62 187.5 L79.68 185.9 L80.87 184.3 L82.17 182.8 L83.59 181.5 L85.12 180.2 L86.74 179.1 L88.44 178.1 L90.21 177.3 L92.05 176.6 L93.94 176 L95.86 175.6 L97.82 175.3 L99.78 175.2 L101.7 175.3 L103.7 175.5 L105.6 175.9 L107.5 176.4 L109.4 177.1 L111.2 177.9 L112.9 178.9 L114.5 180 L116.1 181.2 L117.5 182.5 L118.9 184 L120.1 185.5 L121.2 187.1 L122.1 188.9 L122.9 190.7 L123.6 192.5 L124.1 194.4 L124.5 196.3 L124.7 198.3 L124.8 200.3 Z " />
<path stroke="rgb(0,0,0)" stroke-opacity="1" fill="rgb(255,255,255)" fill-opacity="1" d="M-298.2 -325.3 L-297.3 -324.2 L-296.4 -323.1 L-295.4 -322 L-294.5 -320.9 L-293.6 -319.8 L-292.6 -318.7 L-291.7 -317.6 L-290.8 -316.5 L-289.9 -315.4 L-288.9 -314.3 L-288 -313.2 L-287.1 -312.1 L-286.1 -311.1 L-285.2 -310 L-284.3 -308.9 L-283.4 -307.8 L-282.4 -306.7 L-281.5 -305.6 L-280.6 -304.5 L-279.6 -303.4 L-278.7 -302.3 L-277.8 -301.2 L-276.8 -300.1 L-275.9 -299 L-275 -297.9 L-276.1 -297 L-277.2 -296.1 L-278.3 -295.2 L-279.4 -294.2 L-280.5 -293.3 L-281.5 -292.4 L-282.6 -291.4 L-283.7 -290.5 L-284.8 -289.6 L-285.9 -288.7 L-287 -287.7 L-288.1 -286.8 L-289.2 -285.9 L-290.3 -284.9 L-291.4 -284 L-292.5 -283.1 L-293.6 -282.2 L-294.6 -281.2 L-295.7 -280.3 L-296.8 -279.4 L-297.9 -278.4 L-299 -277.5 L-300.1 -276.6 L-301.2 -275.6 L-302.3 -274.7 L-303.2 -275.8 L-304.2 -276.9 L-305.1 -278 L-306 -279.1 L-306.9 -280.2 L-307.9 -281.3 L-308.8 -282.4 L-309.7 -283.5 L-310.7 -284.5 L-311.6 -285.6 L-312.5 -286.7 L-313.4 -287.8 L-314.4 -288.9 L-315.3 -290 L-316.2 -291.1 L-317.2 -292.2 L-318.1 -293.3 L-319 -294.4 L-319.9 -295.5 L-320.9 -296.6 L-321.8 -297.7 L-322.7 -298.7 L-323.7 -299.8 L-324.6 -300.9 L-325.5 -302 L-324.4 -303 L-323.3 -303.9 L-322.2 -304.8 L-321.2 -305.7 L-320.1 -306.7 L-319 -307.6 L-317.9 -308.5 L-316.8 -309.5 L-315.7 -310.4 L-314.6 -311.3 L-313.5 -312.2 L-312.4 -313.2 L-311.3 -314.1 L-310.2 -315 L-309.1 -316 L-308 -316.9 L-307 -317.8 L-305.9 -318.8 L-304.8 -319.7 L-303.7 -320.6 L-302.6 -321.5 L-301.5 -322.5 L-300.4 -323.4 L-299.3 -324.3 L-298.2 -325.3 Z " />
<path stroke="rgb(0,0,0)" stroke-opacity="0.949" fill="rgb(255,255,255)" fill-opacity="1" d="M324.8 200.3 L324.7 202.2 L324.4 204.2 L324 206.1 L323.4 208 L322.7 209.8 L321.9 211.6 L320.9 213.3 L319.7 214.9 L318.5 216.4 L317.1 217.9 L315.7 219.2 L314.1 220.3 L312.4 221.4 L310.7 222.3 L308.9 223.1 L307 223.7 L305.1 224.2 L303.2 224.5 L301.2 224.7 L299.2 224.7 L297.3 224.6 L295.3 224.3 L293.4 223.9 L291.5 223.3 L289.7 222.5 L288 221.6 L286.3 220.6 L284.7 219.4 L283.2 218.2 L281.8 216.8 L280.5 215.3 L279.4 213.7 L278.4 212 L277.5 210.2 L276.7 208.4 L276.1 206.5 L275.7 204.6 L275.4 202.7 L275.3 200.7 L275.3 198.7 L275.5 196.8 L275.8 194.8 L276.3 192.9 L276.9 191.1 L277.7 189.3 L278.6 187.5 L279.7 185.9 L280.9 184.3 L282.2 182.8 L283.6 181.5 L285.1 180.2 L286.7 179.1 L288.4 178.1 L290.2 177.3 L292.1 176.6 L293.9 176 L295.9 175.6 L297.8 175.3 L299.8 175.2 L301.7 175.3 L303.7 175.5 L305.6 175.9 L307.5 176.4 L309.4 177.1 L311.2 177.9 L312.9 178.9 L314.5 180 L316.1 181.2 L317.5 182.5 L318.9 184 L320.1 185.5 L321.2 187.1 L322.1 188.9 L322.9 190.7 L323.6 192.5 L324.1 194.4 L324.5 196.3 L324.7 198.3 L324.8 200.3 Z " />
<path stroke="rgb(0,0,0)" stroke-opacity="1" fill="rgb(255,255,255)" fill-opacity="1" d="M-812.1 -212.9 L-811.1 -212.9 L-810.1 -212.9 L-809.1 -212.8 L-808.1 -212.8 L-807.1 -212.8 L-806.1 -212.7 L-805.2 -212.7 L-804.2 -212.7 L-803.2 -212.6 L-802.2 -212.6 L-801.2 -212.6 L-800.2 -212.5 L-799.2 -212.5 L-798.2 -212.5 L-797.2 -212.4 L-796.2 -212.4 L-795.2 -212.4 L-794.2 -212.3 L-793.3 -212.3 L-792.3 -212.3 L-791.3 -212.2 L-790.3 -212.2 L-789.3 -212.2 L-788.3 -212.1 L-787.3 -212.1 L-787.3 -211.1 L-787.4 -210.1 L-787.4 -209.1 L-787.4 -208.1 L-787.5 -207.1 L-787.5 -206.1 L-787.5 -205.1 L-787.6 -204.2 L-787.6 -203.2 L-787.6 -202.2 L-787.7 -201.2 L-787.7 -200.2 L-787.7 -199.2 L-787.8 -198.2 L-787.8 -197.2 L-787.8 -196.2 L-787.9 -195.2 L-787.9 -194.2 L-787.9 -193.2 L-788 -192.3 L-788 -191.3 L-788 -190.3 L-788.1 -189.3 L-788.1 -188.3 L-788.1 -187.3 L-789.1 -187.3 L-790.1 -187.4 L-791.1 -187.4 L-792.1 -187.4 L-793.1 -187.5 L-794.1 -187.5 L-795.1 -187.5 L-796.1 -187.6 L-797.1 -187.6 L-798.1 -187.6 L-799 -187.7 L-800 -187.7 L-801 -187.7 L-802 -187.8 L-803 -187.8 L-804 -187.8 L-805 -187.9 L-806 -187.9 L-807 -187.9 L-808 -188 L-809 -188 L-810 -188 L-811 -188.1 L-811.9 -188.1 L-812.9 -188.1 L-812.9 -189.1 L-812.9 -190.1 L-812.8 -191.1 L-812.8 -192.1 L-812.8 -193.1 L-812.7 -194.1 L-812.7 -195.1 L-812.7 -196.1 L-812.6 -197.1 L-812.6 -198 L-812.6 -199 L-812.5 -200 L-812.5 -201 L-812.5 -202 L-812.4 -203 L-812.4 -204 L-812.4 -205 L-812.3 -206 L-812.3 -207 L-812.3 -208 L-812.2 -209 L-812.2 -210 L-812.2 -210.9 L-812.1 -211.9 L-812.1 -212.9 Z " />
<path stroke="rgb(0,0,0)" stroke-opacity="0.949" fill="rgb(255,255,255)" fill-opacity="1" d="M-175.2 300.3 L-175.3 302.2 L-175.6 304.2 L-176 306.1 L-176.6 308 L-177.3 309.8 L-178.1 311.6 L-179.1 313.3 L-180.3 314.9 L-181.5 316.4 L-182.9 317.9 L-184.3 319.2 L-185.9 320.3 L-187.6 321.4 L-189.3 322.3 L-191.1 323.1 L-193 323.7 L-194.9 324.2 L-196.8 324.5 L-198.8 324.7 L-200.8 324.7 L-202.7 324.6 L-204.7 324.3 L-206.6 323.9 L-208.5 323.3 L-210.3 322.5 L-212 321.6 L-213.7 320.6 L-215.3 319.4 L-216.8 318.2 L-218.2 316.8 L-219.5 315.3 L-220.6 313.7 L-221.6 312 L-222.5 310.2 L-223.3 308.4 L-223.9 306.5 L-224.3 304.6 L-224.6 302.7 L-224.7 300.7 L-224.7 298.7 L-224.5 296.8 L-224.2 294.8 L-223.7 292.9 L-223.1 291.1 L-222.3 289.3 L-221.4 287.5 L-220.3 285.9 L-219.1 284.3 L-217.8 282.8 L-216.4 281.5 L-214.9 280.2 L-213.3 279.1 L-211.6 278.1 L-209.8 277.3 L-207.9 276.6 L-206.1 276 L-204.1 275.6 L-202.2 275.3 L-200.2 275.2 L-198.3 275.3 L-196.3 275.5 L-194.4 275.9 L-192.5 276.4 L-190.6 277.1 L-188.8 277.9 L-187.1 278.9 L-185.5 280 L-183.9 281.2 L-182.5 282.5 L-181.1 284 L-179.9 285.5 L-178.8 287.1 L-177.9 288.9 L-177.1 290.7 L-176.4 292.5 L-175.9 294.4 L-175.5 296.3 L-175.3 298.3 L-175.2 300.3 Z " />
<path stroke="rgb(0,0,0)" stroke-opacity="1" fill="rgb(255,255,255)" fill-opacity="1" d="M-610.1 -216.6 L-609 -216.3 L-607.9 -216.1 L-606.9 -215.8 L-605.8 -215.5 L-604.8 -215.3 L-603.7 -215 L-602.7 -214.7 L-601.6 -214.5 L-600.5 -214.2 L-599.5 -213.9 L-598.4 -213.7 L-597.4 -213.4 L-596.3 -213.2 L-595.3 -212.9 L-594.2 -212.6 L-593.1 -212.4 L-592.1 -212.1 L-591 -211.8 L-590 -211.6 L-588.9 -211.3 L-587.9 -211 L-586.8 -210.8 L-585.7 -210.5 L-584.7 -210.3 L-583.6 -210 L-583.9 -208.9 L-584.2 -207.9 L-584.4 -206.8 L-584.7 -205.8 L-584.9 -204.7 L-585.2 -203.6 L-585.5 -202.6 L-585.7 -201.5 L-586 -200.5 L-586.3 -199.4 L-586.5 -198.4 L-586.8 -197.3 L-587.1 -196.2 L-587.3 -195.2 L-587.6 -194.1 L-587.8 -193.1 L-588.1 -192 L-588.4 -191 L-588.6 -189.9 L-588.9 -188.9 L-589.2 -187.8 L-589.4 -186.7 L-589.7 -185.7 L-590 -184.6 L-590.2 -183.6 L-591.3 -183.8 L-592.3 -184.1 L-593.4 -184.4 L-594.4 -184.6 L-595.5 -184.9 L-596.6 -185.1 L-597.6 -185.4 L-598.7 -185.7 L-599.7 -185.9 L-600.8 -186.2 L-601.8 -186.5 L-602.9 -186.7 L-604 -187 L-605 -187.3 L-606.1 -187.5 L-607.1 -187.8 L-608.2 -188 L-609.2 -188.3 L-610.3 -188.6 L-611.4 -188.8 L-612.4 -189.1 L-613.5 -189.4 L-614.5 -189.6 L-615.6 -189.9 L-616.6 -190.2 L-616.4 -191.2 L-616.1 -192.3 L-615.9 -193.3 L-615.6 -194.4 L-615.3 -195.4 L-615.1 -196.5 L-614.8 -197.6 L-614.5 -198.6 L-614.3 -199.7 L-614 -200.7 L-613.7 -201.8 L-613.5 -202.8 L-613.2 -203.9 L-613 -205 L-612.7 -206 L-612.4 -207.1 L-612.2 -208.1 L-611.9 -209.2 L-611.6 -210.2 L-611.4 -211.3 L-611.1 -212.4 L-610.8 -213.4 L-610.6 -214.5 L-610.3 -215.5 L-610.1 -216.6 Z " />
<path stroke="rgb(0,0,0)" stroke-opacity="0.949" fill="rgb(255,255,255)" fill-opacity="1" d="M24.75 300.3 L24.65 302.2 L24.4 304.2 L23.99 306.1 L23.43 308 L22.72 309.8 L21.86 311.6 L20.87 313.3 L19.75 314.9 L18.5 316.4 L17.14 317.9 L15.66 319.2 L14.09 320.3 L12.43 321.4 L10.69 322.3 L8.881 323.1 L7.018 323.7 L5.11 324.2 L3.169 324.5 L1.209 324.7 L-0.7591 324.7 L-2.722 324.6 L-4.668 324.3 L-6.584 323.9 L-8.459 323.3 L-10.28 322.5 L-12.04 321.6 L-13.72 320.6 L-15.31 319.4 L-16.81 318.2 L-18.2 316.8 L-19.47 315.3 L-20.62 313.7 L-21.65 312 L-22.53 310.2 L-23.27 308.4 L-23.87 306.5 L-24.31 304.6 L-24.6 302.7 L-24.74 300.7 L-24.72 298.7 L-24.54 296.8 L-24.21 294.8 L-23.72 292.9 L-23.08 291.1 L-22.3 289.3 L-21.38 287.5 L-20.32 285.9 L-19.13 284.3 L-17.83 282.8 L-16.41 281.5 L-14.88 280.2 L-13.26 279.1 L-11.56 278.1 L-9.786 277.3 L-7.949 276.6 L-6.062 276 L-4.136 275.6 L-2.185 275.3 L-0.2188 275.2 L1.748 275.3 L3.704 275.5 L5.637 275.9 L7.534 276.4 L9.383 277.1 L11.17 277.9 L12.89 278.9 L14.53 280 L16.08 281.2 L17.52 282.5 L18.86 284 L20.07 285.5 L21.16 287.1 L22.11 288.9 L22.93 290.7 L23.6 292.5 L24.12 294.4 L24.48 296.3 L24.7 298.3 L24.75 300.3 Z " />
<path stroke="rgb(0,0,0)" stroke-opacity="1" fill="rgb(255,255,255)" fill-opacity="1" d="M-398.2 -225.3 L-397.3 -224.2 L-396.4 -223.1 L-395.4 -222 L-394.5 -220.9 L-393.6 -219.8 L-392.6 -218.7 L-391.7 -217.6 L-390.8 -216.5 L-389.9 -215.4 L-388.9 -214.3 L-388 -213.2 L-387.1 -212.1 L-386.1 -211.1 L-385.2 -210 L-384.3 -208.9 L-383.4 -207.8 L-382.4 -206.7 L-381.5 -205.6 L-380.6 -204.5 L-379.6 -203.4 L-378.7 -202.3 L-377.8 -201.2 L-376.8 -200.1 L-375.9 -199 L-375 -197.9 L-376.1 -197 L-377.2 -196.1 L-378.3 -195.2 L-379.4 -194.2 L-380.5 -193.3 L-381.5 -192.4 L-382.6 -191.4 L-383.7 -190.5 L-384.8 -189.6 L-385.9 -188.7 L-387 -187.7 L-388.1 -186.8 L-389.2 -185.9 L-390.3 -184.9 L-391.4 -184 L-392.5 -183.1 L-393.6 -182.2 L-394.6 -181.2 L-395.7 -180.3 L-396.8 -179.4 L-397.9 -178.4 L-399 -177.5 L-400.1 -176.6 L-401.2 -175.6 L-402.3 -174.7 L-403.2 -175.8 L-404.2 -176.9 L-405.1 -178 L-406 -179.1 L-406.9 -180.2 L-407.9 -181.3 L-408.8 -182.4 L-409.7 -183.5 L-410.7 -184.5 L-411.6 -185.6 L-412.5 -186.7 L-413.4 -187.8 L-414.4 -188.9 L-415.3 -190 L-416.2 -191.1 L-417.2 -192.2 L-418.1 -193.3 L-419 -194.4 L-419.9 -195.5 L-420.9 -196.6 L-421.8 -197.7 L-422.7 -198.7 L-423.7 -199.8 L-424.6 -200.9 L-425.5 -202 L-424.4 -203 L-423.3 -203.9 L-422.2 -204.8 L-421.2 -205.7 L-420.1 -206.7 L-419 -207.6 L-417.9 -208.5 L-416.8 -209.5 L-415.7 -210.4 L-414.6 -211.3 L-413.5 -212.2 L-412.4 -213.2 L-411.3 -214.1 L-410.2 -215 L-409.1 -216 L-408 -216.9 L-407 -217.8 L-405.9 -218.8 L-404.8 -219.7 L-403.7 -220.6 L-402.6 -221.5 L-401.5 -222.5 L-400.4 -223.4 L-399.3 -224.3 L-398.2 -225.3 Z " />
<path stroke="rgb(0,0,0)" stroke-opacity="0.949" fill="rgb(255,255,255)" fill-opacity="1" d="M224.8 300.3 L224.7 302.2 L224.4 304.2 L224 306.1 L223.4 308 L222.7 309.8 L221.9 311.6 L220.9 313.3 L219.7 314.9 L218.5 316.4 L217.1 317.9 L215.7 319.2 L214.1 320.3 L212.4 321.4 L210.7 322.3 L208.9 323.1 L207 323.7 L205.1 324.2 L203.2 324.5 L201.2 324.7 L199.2 324.7 L197.3 324.6 L195.3 324.3 L193.4 323.9 L191.5 323.3 L189.7 322.5 L188 321.6 L186.3 320.6 L184.7 319.4 L183.2 318.2 L181.8 316.8 L180.5 315.3 L179.4 313.7 L178.4 312 L177.5 310.2 L176.7 308.4 L176.1 306.5 L175.7 304.6 L175.4 302.7 L175.3 300.7 L175.3 298.7 L175.5 296.8 L175.8 294.8 L176.3 292.9 L176.9 291.1 L177.7 289.3 L178.6 287.5 L179.7 285.9 L180.9 284.3 L182.2 282.8 L183.6 281.5 L185.1 280.2 L186.7 279.1 L188.4 278.1 L190.2 277.3 L192.1 276.6 L193.9 276 L195.9 275.6 L197.8 275.3 L199.8 275.2 L201.7 275.3 L203.7 275.5 L205.6 275.9 L207.5 276.4 L209.4 277.1 L211.2 277.9 L212.9 278.9 L214.5 280 L216.1 281.2 L217.5 282.5 L218.9 284 L220.1 285.5 L221.2 287.1 L222.1 288.9 L222.9 290.7 L223.6 292.5 L224.1 294.4 L224.5 296.3 L224.7 298.3 L224.8 300.3 Z " />
<path stroke="rgb(0,0,0)" stroke-opacity="1" fill="rgb(255,255,255)" fill-opacity="1" d="M-181.7 -226.2 L-181.4 -224.4 L-181.1 -222.6 L-180.8 -220.8 L-180.5 -219 L-180.2 -217.2 L-179.9 -215.4 L-179.6 -213.6 L-179.3 -211.8 L-179 -210 L-178.7 -208.2 L-178.4 -206.4 L-178.1 -204.6 L-177.8 -202.8 L-177.5 -201 L-177.2 -199.2 L-176.9 -197.4 L-176.6 -195.6 L-176.3 -193.8 L-176 -192 L-175.7 -190.2 L-175.4 -188.4 L-175.1 -186.6 L-174.8 -184.8 L-174.5 -183 L-174.2 -181.2 L-176 -180.9 L-177.8 -180.6 L-179.6 -180.3 L-181.4 -180 L-183.2 -179.7 L-185 -179.4 L-186.8 -179.1 L-188.6 -178.9 L-190.4 -178.6 L-192.2 -178.3 L-194 -178 L-195.8 -177.7 L-197.6 -177.4 L-199.4 -177.1 L-201.2 -176.8 L-203 -176.5 L-204.8 -176.2 L-206.6 -175.9 L-208.4 -175.6 L-210.2 -175.3 L-212 -175 L-213.8 -174.7 L-215.6 -174.4 L-217.4 -174.1 L-219.2 -173.8 L-219.5 -175.6 L-219.8 -177.4 L-220.1 -179.2 L-220.4 -181 L-220.7 -182.8 L-221 -184.6 L-221.3 -186.4 L-221.5 -188.2 L-221.8 -190 L-222.1 -191.8 L-222.4 -193.6 L-222.7 -195.4 L-223 -197.2 L-223.3 -199 L-223.6 -200.8 L-223.9 -202.6 L-224.2 -204.3 L-224.5 -206.1 L-224.8 -207.9 L-225.1 -209.7 L-225.4 -211.5 L-225.7 -213.3 L-226 -215.1 L-226.3 -216.9 L-226.6 -218.7 L-224.8 -219 L-223 -219.3 L-221.2 -219.6 L-219.4 -219.9 L-217.6 -220.2 L-215.8 -220.5 L-214 -220.8 L-212.2 -221.1 L-210.4 -221.4 L-208.6 -221.7 L-206.8 -222 L-205 -222.3 L-203.2 -222.6 L-201.4 -222.9 L-199.6 -223.2 L-197.8 -223.5 L-196.1 -223.8 L-194.3 -224.1 L-192.5 -224.4 L-190.7 -224.7 L-188.9 -225 L-187.1 -225.3 L-185.3 -225.6 L-183.5 -225.9 L-181.7 -226.2 Z " />
</g>
</g>
</svg>
