<!DOCTYPE svg>
<svg xmlns="http://www.w3.org/2000/svg" xmlns:xlink="http://www.w3.org/1999/xlink" width="560" height="560">
<g transform="translate(280.000000,280.000000)">
<g transform="scale(3.000000,3.000000)">
<path stroke="rgb(0,0,0)" stroke-opacity="1" fill="rgb(255,255,255)" fill-opacity="1" d="M-958.1 -967.5 L-959 -967.1 L-959.9 -966.7 L-960.8 -966.4 L-961.7 -966 L-962.6 -965.6 L-963.5 -965.2 L-964.4 -964.8 L-965.3 -964.5 L-966.2 -964.1 L-967.1 -963.7 L-968 -963.3 L-968.9 -962.9 L-969.8 -962.6 L-970.7 -962.2 L-971.6 -961.8 L-972.5 -961.4 L-973.4 -961 L-974.3 -960.7 L-975.2 -960.3 L-976.1 -959.9 L-977 -959.5 L-977.9 -959.1 L-978.8 -958.8 L-979.7 -958.4 L-980.6 -958 L-981 -958.9 L-981.4 -959.8 L-981.8 -960.7 L-982.2 -961.6 L-982.5 -962.5 L-982.9 -963.4 L-983.3 -964.3 L-983.7 -965.2 L-984.1 -966.1 L-984.4 -967 L-984.8 -967.9 L-985.2 -968.8 L-985.6 -969.7 L-986 -970.6 L-986.3 -971.5 L-986.7 -972.4 L-987.1 -973.3 L-987.5 -974.2 L-987.9 -975.1 L-988.2 -976 L-988.6 -976.9 L-989 -977.8 L-989.4 -978.7 L-989.8 -979.6 L-990.1 -980.5 L-989.2 -980.9 L-988.3 -981.3 L-987.4 -981.7 L-986.5 -982.1 L-985.6 -982.4 L-984.7 -982.8 L-983.8 -983.2 L-982.9 -983.6 L-982 -984 L-981.1 -984.3 L-980.2 -984.7 L-979.3 -985.1 L-978.4 -985.5 L-977.5 -985.9 L-976.6 -986.2 L-975.7 -986.6 L-974.8 -987 L-973.9 -987.4 L-973 -987.8 L-972.1 -988.1 L-971.2 -988.5 L-970.3 -988.9 L-969.4 -989.3 L-968.5 -989.7 L-967.6 -990 L-967.2 -989.1 L-966.8 -988.2 L-966.4 -987.3 L-966.1 -986.4 L-965.7 -985.5 L-965.3 -984.6 L-964.9 -983.7 L-964.5 -982.8 L-964.2 -981.9 L-963.8 -981 L-963.4 -980.1 L-963 -979.2 L-962.6 -978.3 L-962.3 -977.4 L-961.9 -976.5 L-961.5 -975.6 L-961.1 -974.7 L-960.7 -973.8 L-960.4 -972.9 L-960 -972 L-959.6 -971.1 L-959.2 -970.2 L-958.8 -969.3 L-958.5 -968.4 L-958.1 -967.5 Z " />
<path stroke="rgb(0,0,0)" stroke-opacity="1" fill="rgb(255,255,255)" fill-opacity="1" d="M-299.7 -375.7 L-301.6 -375.8 L-303.6 -376 L-305.5 -376.4 L-307.4 -376.9 L-309.2 -377.6 L-311 -378.5 L-312.7 -379.4 L-314.3 -380.5 L-315.8 -381.7 L-317.3 -383.1 L-318.6 -384.5 L-319.8 -386.1 L-320.8 -387.7 L-321.8 -389.4 L-322.6 -391.2 L-323.2 -393.1 L-323.7 -395 L-324 -396.9 L-324.2 -398.8 L-324.3 -400.8 L-324.2 -402.7 L-323.9 -404.7 L-323.5 -406.6 L-322.9 -408.5 L-322.2 -410.3 L-321.3 -412 L-320.3 -413.7 L-319.2 -415.3 L-317.9 -416.8 L-316.6 -418.2 L-315.1 -419.5 L-313.5 -420.7 L-311.8 -421.7 L-310.1 -422.6 L-308.3 -423.3 L-306.4 -424 L-304.5 -424.4 L-302.6 -424.7 L-300.7 -424.9 L-298.7 -424.9 L-296.8 -424.7 L-294.8 -424.4 L-292.9 -424 L-291.1 -423.3 L-289.3 -422.6 L-287.5 -421.7 L-285.9 -420.7 L-284.3 -419.5 L-282.8 -418.2 L-281.4 -416.8 L-280.2 -415.3 L-279.1 -413.7 L-278.1 -412 L-277.2 -410.3 L-276.5 -408.5 L-275.9 -406.6 L-275.5 -404.7 L-275.2 -402.7 L-275.1 -400.8 L-275.1 -398.8 L-275.3 -396.9 L-275.7 -395 L-276.2 -393.1 L-276.8 -391.2 L-277.6 -389.4 L-278.5 -387.7 L-279.6 -386.1 L-280.8 -384.5 L-282.1 -383.1 L-283.5 -381.7 L-285.1 -380.5 L-286.7 -379.4 L-288.4 -378.5 L-290.2 -377.6 L-292 -376.9 L-293.9 -376.4 L-295.8 -376 L-297.7 -375.8 L-299.7 -375.7 Z " />
<path stroke="rgb(0,0,0)" stroke-opacity="1" fill="rgb(255,255,255)" fill-opacity="1" d="M-730.5 -948.1 L-731.2 -947.4 L-731.9 -946.7 L-732.5 -946 L-733.2 -945.3 L-733.9 -944.5 L-734.6 -943.8 L-735.2 -943.1 L-735.9 -942.4 L-736.6 -941.7 L-737.3 -941 L-737.9 -940.3 L-738.6 -939.6 L-739.3 -938.9 L-739.9 -938.2 L-740.6 -937.4 L-741.3 -936.7 L-742 -936 L-742.6 -935.3 L-743.3 -934.6 L-744 -933.9 L-744.7 -933.2 L-745.3 -932.5 L-746 -931.8 L-746.7 -931 L-747.4 -930.3 L-748.1 -931 L-748.8 -931.7 L-749.5 -932.4 L-750.2 -933 L-750.9 -933.7 L-751.6 -934.4 L-752.3 -935.1 L-753 -935.7 L-753.8 -936.4 L-754.5 -937.1 L-755.2 -937.8 L-755.9 -938.4 L-756.6 -939.1 L-757.3 -939.8 L-758 -940.4 L-758.7 -941.1 L-759.4 -941.8 L-760.2 -942.5 L-760.9 -943.1 L-761.6 -943.8 L-762.3 -944.5 L-763 -945.2 L-763.7 -945.8 L-764.4 -946.5 L-765.1 -947.2 L-764.5 -947.9 L-763.8 -948.6 L-763.1 -949.3 L-762.4 -950 L-761.8 -950.7 L-761.1 -951.4 L-760.4 -952.2 L-759.7 -952.9 L-759.1 -953.6 L-758.4 -954.3 L-757.7 -955 L-757 -955.7 L-756.4 -956.4 L-755.7 -957.1 L-755 -957.8 L-754.3 -958.6 L-753.7 -959.3 L-753 -960 L-752.3 -960.7 L-751.6 -961.4 L-751 -962.1 L-750.3 -962.8 L-749.6 -963.5 L-749 -964.2 L-748.3 -964.9 L-747.6 -964.3 L-746.9 -963.6 L-746.1 -962.9 L-745.4 -962.3 L-744.7 -961.6 L-744 -960.9 L-743.3 -960.2 L-742.6 -959.6 L-741.9 -958.9 L-741.2 -958.2 L-740.5 -957.5 L-739.8 -956.9 L-739 -956.2 L-738.3 -955.5 L-737.6 -954.8 L-736.9 -954.2 L-736.2 -953.5 L-735.5 -952.8 L-734.8 -952.1 L-734.1 -951.5 L-733.4 -950.8 L-732.6 -950.1 L-731.9 -949.5 L-731.2 -948.8 L-730.5 -948.1 Z " />
<path stroke="rgb(0,0,0)" stroke-opacity="1" fill="rgb(255,255,255)" fill-opacity="1" d="M-99.68 -375.7 L-101.6 -375.8 L-103.6 -376 L-105.5 -376.4 L-107.4 -376.9 L-109.2 -377.6 L-111 -378.5 L-112.7 -379.4 L-114.3 -380.5 L-115.8 -381.7 L-117.3 -383.1 L-118.6 -384.5 L-119.8 -386.1 L-120.8 -387.7 L-121.8 -389.4 L-122.6 -391.2 L-123.2 -393.1 L-123.7 -395 L-124 -396.9 L-124.2 -398.8 L-124.3 -400.8 L-124.2 -402.7 L-123.9 -404.7 L-123.5 -406.6 L-122.9 -408.5 L-122.2 -410.3 L-121.3 -412 L-120.3 -413.7 L-119.2 -415.3 L-117.9 -416.8 L-116.6 -418.2 L-115.1 -419.5 L-113.5 -420.7 L-111.8 -421.7 L-110.1 -422.6 L-108.3 -423.3 L-106.4 -424 L-104.5 -424.4 L-102.6 -424.7 L-100.7 -424.9 L-98.71 -424.9 L-96.76 -424.7 L-94.83 -424.4 L-92.93 -424 L-91.07 -423.3 L-89.26 -422.6 L-87.53 -421.7 L-85.87 -420.7 L-84.29 -419.5 L-82.82 -418.2 L-81.45 -416.8 L-80.19 -415.3 L-79.06 -413.7 L-78.06 -412 L-77.2 -410.3 L-76.48 -408.5 L-75.9 -406.6 L-75.48 -404.7 L-75.21 -402.7 L-75.09 -400.8 L-75.13 -398.8 L-75.32 -396.9 L-75.67 -395 L-76.17 -393.1 L-76.82 -391.2 L-77.61 -389.4 L-78.54 -387.7 L-79.61 -386.1 L-80.8 -384.5 L-82.12 -383.1 L-83.54 -381.7 L-85.07 -380.5 L-86.68 -379.4 L-88.39 -378.5 L-90.16 -377.6 L-91.99 -376.9 L-93.87 -376.4 L-95.79 -376 L-97.73 -375.8 L-99.68 -375.7 Z " />
<path stroke="rgb(0,0,0)" stroke-opacity="1" fill="rgb(255,255,255)" fill-opacity="1" d="M-507.5 -930.1 L-507.9 -929.2 L-508.2 -928.2 L-508.6 -927.3 L-508.9 -926.4 L-509.3 -925.5 L-509.7 -924.6 L-510 -923.7 L-510.4 -922.8 L-510.7 -921.9 L-511.1 -921 L-511.5 -920 L-511.8 -919.1 L-512.2 -918.2 L-512.5 -917.3 L-512.9 -916.4 L-513.3 -915.5 L-513.6 -914.6 L-514 -913.7 L-514.3 -912.8 L-514.7 -911.8 L-515.1 -910.9 L-515.4 -910 L-515.8 -909.1 L-516.1 -908.2 L-516.5 -907.3 L-517.4 -907.6 L-518.3 -908 L-519.2 -908.4 L-520.1 -908.7 L-521 -909.1 L-522 -909.4 L-522.9 -909.8 L-523.8 -910.2 L-524.7 -910.5 L-525.6 -910.9 L-526.5 -911.2 L-527.4 -911.6 L-528.3 -912 L-529.2 -912.3 L-530.2 -912.7 L-531.1 -913 L-532 -913.4 L-532.9 -913.7 L-533.8 -914.1 L-534.7 -914.5 L-535.6 -914.8 L-536.5 -915.2 L-537.4 -915.5 L-538.4 -915.9 L-539.3 -916.3 L-538.9 -917.2 L-538.6 -918.1 L-538.2 -919 L-537.8 -919.9 L-537.5 -920.8 L-537.1 -921.7 L-536.8 -922.6 L-536.4 -923.6 L-536 -924.5 L-535.7 -925.4 L-535.3 -926.3 L-535 -927.2 L-534.6 -928.1 L-534.2 -929 L-533.9 -929.9 L-533.5 -930.8 L-533.2 -931.8 L-532.8 -932.7 L-532.4 -933.6 L-532.1 -934.5 L-531.7 -935.4 L-531.4 -936.3 L-531 -937.2 L-530.7 -938.1 L-530.3 -939 L-529.4 -938.7 L-528.5 -938.3 L-527.6 -938 L-526.6 -937.6 L-525.7 -937.3 L-524.8 -936.9 L-523.9 -936.5 L-523 -936.2 L-522.1 -935.8 L-521.2 -935.5 L-520.3 -935.1 L-519.4 -934.7 L-518.4 -934.4 L-517.5 -934 L-516.6 -933.7 L-515.7 -933.3 L-514.8 -932.9 L-513.9 -932.6 L-513 -932.2 L-512.1 -931.9 L-511.2 -931.5 L-510.2 -931.1 L-509.3 -930.8 L-508.4 -930.4 L-507.5 -930.1 Z " />
<path stroke="rgb(0,0,0)" stroke-opacity="1" fill="rgb(255,255,255)" fill-opacity="1" d="M100.3 -375.7 L98.36 -375.8 L96.42 -376 L94.5 -376.4 L92.62 -376.9 L90.79 -377.6 L89.02 -378.5 L87.32 -379.4 L85.7 -380.5 L84.17 -381.7 L82.75 -383.1 L81.44 -384.5 L80.24 -386.1 L79.18 -387.7 L78.24 -389.4 L77.45 -391.2 L76.8 -393.1 L76.3 -395 L75.95 -396.9 L75.76 -398.8 L75.72 -400.8 L75.84 -402.7 L76.11 -404.7 L76.53 -406.6 L77.11 -408.5 L77.83 -410.3 L78.69 -412 L79.69 -413.7 L80.82 -415.3 L82.08 -416.8 L83.45 -418.2 L84.92 -419.5 L86.49 -420.7 L88.16 -421.7 L89.89 -422.6 L91.7 -423.3 L93.55 -424 L95.45 -424.4 L97.39 -424.7 L99.34 -424.9 L101.3 -424.9 L103.2 -424.7 L105.2 -424.4 L107.1 -424 L108.9 -423.3 L110.7 -422.6 L112.5 -421.7 L114.1 -420.7 L115.7 -419.5 L117.2 -418.2 L118.6 -416.8 L119.8 -415.3 L120.9 -413.7 L121.9 -412 L122.8 -410.3 L123.5 -408.5 L124.1 -406.6 L124.5 -404.7 L124.8 -402.7 L124.9 -400.8 L124.9 -398.8 L124.7 -396.9 L124.3 -395 L123.8 -393.1 L123.2 -391.2 L122.4 -389.4 L121.5 -387.7 L120.4 -386.1 L119.2 -384.5 L117.9 -383.1 L116.5 -381.7 L114.9 -380.5 L113.3 -379.4 L111.6 -378.5 L109.8 -377.6 L108 -376.9 L106.1 -376.4 L104.2 -376 L102.3 -375.8 L100.3 -375.7 Z " />
<path stroke="rgb(0,0,0)" stroke-opacity="1" fill="rgb(255,255,255)" fill-opacity="1" d="M-295.2 -919.2 L-295.4 -918.2 L-295.5 -917.3 L-295.7 -916.3 L-295.8 -915.3 L-296 -914.4 L-296.1 -913.4 L-296.3 -912.4 L-296.4 -911.5 L-296.6 -910.5 L-296.7 -909.5 L-296.9 -908.6 L-297 -907.6 L-297.2 -906.6 L-297.3 -905.7 L-297.5 -904.7 L-297.6 -903.7 L-297.8 -902.8 L-297.9 -901.8 L-298.1 -900.8 L-298.2 -899.9 L-298.4 -898.9 L-298.5 -897.9 L-298.7 -896.9 L-298.8 -896 L-299 -895 L-300 -895.2 L-300.9 -895.3 L-301.9 -895.5 L-302.9 -895.6 L-303.8 -895.8 L-304.8 -895.9 L-305.8 -896.1 L-306.7 -896.2 L-307.7 -896.4 L-308.7 -896.5 L-309.6 -896.7 L-310.6 -896.8 L-311.6 -897 L-312.5 -897.1 L-313.5 -897.3 L-314.5 -897.4 L-315.4 -897.5 L-316.4 -897.7 L-317.4 -897.8 L-318.3 -898 L-319.3 -898.1 L-320.3 -898.3 L-321.3 -898.4 L-322.2 -898.6 L-323.2 -898.7 L-323 -899.7 L-322.9 -900.7 L-322.7 -901.6 L-322.6 -902.6 L-322.4 -903.6 L-322.3 -904.6 L-322.1 -905.5 L-322 -906.5 L-321.8 -907.5 L-321.7 -908.4 L-321.5 -909.4 L-321.4 -910.4 L-321.2 -911.3 L-321.1 -912.3 L-320.9 -913.3 L-320.8 -914.2 L-320.7 -915.2 L-320.5 -916.2 L-320.4 -917.1 L-320.2 -918.1 L-320.1 -919.1 L-319.9 -920 L-319.8 -921 L-319.6 -922 L-319.5 -923 L-318.5 -922.8 L-317.5 -922.7 L-316.6 -922.5 L-315.6 -922.4 L-314.6 -922.2 L-313.6 -922.1 L-312.7 -921.9 L-311.7 -921.8 L-310.7 -921.6 L-309.8 -921.5 L-308.8 -921.3 L-307.8 -921.2 L-306.9 -921 L-305.9 -920.9 L-304.9 -920.7 L-304 -920.6 L-303 -920.4 L-302 -920.3 L-301.1 -920.1 L-300.1 -920 L-299.1 -919.8 L-298.2 -919.7 L-297.2 -919.5 L-296.2 -919.4 L-295.2 -919.2 Z " />
<path stroke="rgb(0,0,0)" stroke-opacity="1" fill="rgb(255,255,255)" fill-opacity="1" d="M-399.7 -275.7 L-401.6 -275.8 L-403.6 -276 L-405.5 -276.4 L-407.4 -276.9 L-409.2 -277.6 L-411 -278.5 L-412.7 -279.4 L-414.3 -280.5 L-415.8 -281.7 L-417.3 -283.1 L-418.6 -284.5 L-419.8 -286.1 L-420.8 -287.7 L-421.8 -289.4 L-422.6 -291.2 L-423.2 -293.1 L-423.7 -295 L-424 -296.9 L-424.2 -298.8 L-424.3 -300.8 L-424.2 -302.7 L-423.9 -304.7 L-423.5 -306.6 L-422.9 -308.5 L-422.2 -310.3 L-421.3 -312 L-420.3 -313.7 L-419.2 -315.3 L-417.9 -316.8 L-416.6 -318.2 L-415.1 -319.5 L-413.5 -320.7 L-411.8 -321.7 L-410.1 -322.6 L-408.3 -323.3 L-406.4 -324 L-404.5 -324.4 L-402.6 -324.7 L-400.7 -324.9 L-398.7 -324.9 L-396.8 -324.7 L-394.8 -324.4 L-392.9 -324 L-391.1 -323.3 L-389.3 -322.6 L-387.5 -321.7 L-385.9 -320.7 L-384.3 -319.5 L-382.8 -318.2 L-381.4 -316.8 L-380.2 -315.3 L-379.1 -313.7 L-378.1 -312 L-377.2 -310.3 L-376.5 -308.5 L-375.9 -306.6 L-375.5 -304.7 L-375.2 -302.7 L-375.1 -300.8 L-375.1 -298.8 L-375.3 -296.9 L-375.7 -295 L-376.2 -293.1 L-376.8 -291.2 L-377.6 -289.4 L-378.5 -287.7 L-379.6 -286.1 L-380.8 -284.5 L-382.1 -283.1 L-383.5 -281.7 L-385.1 -280.5 L-386.7 -279.4 L-388.4 -278.5 L-390.2 -277.6 L-392 -276.9 L-393.9 -276.4 L-395.8 -276 L-397.7 -275.8 L-399.7 -275.7 Z " />
<path stroke="rgb(0,0,0)" stroke-opacity="1" fill="rgb(255,255,255)" fill-opacity="1" d="M-830.5 -848.1 L-831.2 -847.4 L-831.9 -846.7 L-832.5 -846 L-833.2 -845.3 L-833.9 -844.5 L-834.6 -843.8 L-835.2 -843.1 L-835.9 -842.4 L-836.6 -841.7 L-837.3 -841 L-837.9 -840.3 L-838.6 -839.6 L-839.3 -838.9 L-839.9 -838.2 L-840.6 -837.4 L-841.3 -836.7 L-842 -836 L-842.6 -835.3 L-843.3 -834.6 L-844 -833.9 L-844.7 -833.2 L-845.3 -832.5 L-846 -831.8 L-846.7 -831 L-847.4 -830.3 L-848.1 -831 L-848.8 -831.7 L-849.5 -832.4 L-850.2 -833 L-850.9 -833.7 L-851.6 -834.4 L-852.3 -835.1 L-853 -835.7 L-853.8 -836.4 L-854.5 -837.1 L-855.2 -837.8 L-855.9 -838.4 L-856.6 -839.1 L-857.3 -839.8 L-858 -840.4 L-858.7 -841.1 L-859.4 -841.8 L-860.2 -842.5 L-860.9 -843.1 L-861.6 -843.8 L-862.3 -844.5 L-863 -845.2 L-863.7 -845.8 L-864.4 -846.5 L-865.1 -847.2 L-864.5 -847.9 L-863.8 -848.6 L-863.1 -849.3 L-862.4 -850 L-861.8 -850.7 L-861.1 -851.4 L-860.4 -852.2 L-859.7 -852.9 L-859.1 -853.6 L-858.4 -854.3 L-857.7 -855 L-857 -855.7 L-856.4 -856.4 L-855.7 -857.1 L-855 -857.8 L-854.3 -858.6 L-853.7 -859.3 L-853 -860 L-852.3 -860.7 L-851.6 -861.4 L-851 -862.1 L-850.3 -862.8 L-849.6 -863.5 L-849 -864.2 L-848.3 -864.9 L-847.6 -864.3 L-846.9 -863.6 L-846.1 -862.9 L-845.4 -862.3 L-844.7 -861.6 L-844 -860.9 L-843.3 -860.2 L-842.6 -859.6 L-841.9 -858.9 L-841.2 -858.2 L-840.5 -857.5 L-839.8 -856.9 L-839 -856.2 L-838.3 -855.5 L-837.6 -854.8 L-836.9 -854.2 L-836.2 -853.5 L-835.5 -852.8 L-834.8 -852.1 L-834.1 -851.5 L-833.4 -850.8 L-832.6 -850.1 L-831.9 -849.5 L-831.2 -848.8 L-830.5 -848.1 Z " />
<path stroke="rgb(0,0,0)" stroke-opacity="1" fill="rgb(255,255,255)" fill-opacity="1" d="M-199.7 -275.7 L-201.6 -275.8 L-203.6 -276 L-205.5 -276.4 L-207.4 -276.9 L-209.2 -277.6 L-211 -278.5 L-212.7 -279.4 L-214.3 -280.5 L-215.8 -281.7 L-217.3 -283.1 L-218.6 -284.5 L-219.8 -286.1 L-220.8 -287.7 L-221.8 -289.4 L-222.6 -291.2 L-223.2 -293.1 L-223.7 -295 L-224 -296.9 L-224.2 -298.8 L-224.3 -300.8 L-224.2 -302.7 L-223.9 -304.7 L-223.5 -306.6 L-222.9 -308.5 L-222.2 -310.3 L-221.3 -312 L-220.3 -313.7 L-219.2 -315.3 L-217.9 -316.8 L-216.6 -318.2 L-215.1 -319.5 L-213.5 -320.7 L-211.8 -321.7 L-210.1 -322.6 L-208.3 -323.3 L-206.4 -324 L-204.5 -324.4 L-202.6 -324.7 L-200.7 -324.9 L-198.7 -324.9 L-196.8 -324.7 L-194.8 -324.4 L-192.9 -324 L-191.1 -323.3 L-189.3 -322.6 L-187.5 -321.7 L-185.9 -320.7 L-184.3 -319.5 L-182.8 -318.2 L-181.4 -316.8 L-180.2 -315.3 L-179.1 -313.7 L-178.1 -312 L-177.2 -310.3 L-176.5 -308.5 L-175.9 -306.6 L-175.5 -304.7 L-175.2 -302.7 L-175.1 -300.8 L-175.1 -298.8 L-175.3 -296.9 L-175.7 -295 L-176.2 -293.1 L-176.8 -291.2 L-177.6 -289.4 L-178.5 -287.7 L-179.6 -286.1 L-180.8 -284.5 L-182.1 -283.1 L-183.5 -281.7 L-185.1 -280.5 L-186.7 -279.4 L-188.4 -278.5 L-190.2 -277.6 L-192 -276.9 L-193.9 -276.4 L-195.8 -276 L-197.7 -275.8 L-199.7 -275.7 Z " />
<path stroke="rgb(0,0,0)" stroke-opacity="1" fill="rgb(255,255,255)" fill-opacity="1" d="M-607.5 -830.1 L-607.9 -829.2 L-608.2 -828.2 L-608.6 -827.3 L-608.9 -826.4 L-609.3 -825.5 L-609.7 -824.6 L-610 -823.7 L-610.4 -822.8 L-610.7 -821.9 L-611.1 -821 L-611.5 -820 L-611.8 -819.1 L-612.2 -818.2 L-612.5 -817.3 L-612.9 -816.4 L-613.3 -815.5 L-613.6 -814.6 L-614 -813.7 L-614.3 -812.8 L-614.7 -811.8 L-615.1 -810.9 L-615.4 -810 L-615.8 -809.1 L-616.1 -808.2 L-616.5 -807.3 L-617.4 -807.6 L-618.3 -808 L-619.2 -808.4 L-620.1 -808.7 L-621 -809.1 L-622 -809.4 L-622.9 -809.8 L-623.8 -810.2 L-624.7 -810.5 L-625.6 -810.9 L-626.5 -811.2 L-627.4 -811.6 L-628.3 -812 L-629.2 -812.3 L-630.2 -812.7 L-631.1 -813 L-632 -813.4 L-632.9 -813.7 L-633.8 -814.1 L-634.7 -814.5 L-635.6 -814.8 L-636.5 -815.2 L-637.4 -815.5 L-638.4 -815.9 L-639.3 -816.3 L-638.9 -817.2 L-638.6 -818.1 L-638.2 -819 L-637.8 -819.9 L-637.5 -820.8 L-637.1 -821.7 L-636.8 -822.6 L-636.4 -823.6 L-636 -824.5 L-635.7 -825.4 L-635.3 -826.3 L-635 -827.2 L-634.6 -828.1 L-634.2 -829 L-633.9 -829.9 L-633.5 -830.8 L-633.2 -831.8 L-632.8 -832.7 L-632.4 -833.6 L-632.1 -834.5 L-631.7 -835.4 L-631.4 -836.3 L-631 -837.2 L-630.7 -838.1 L-630.3 -839 L-629.4 -838.7 L-628.5 -838.3 L-627.6 -838 L-626.6 -837.6 L-625.7 -837.3 L-624.8 -836.9 L-623.9 -836.5 L-623 -836.2 L-622.1 -835.8 L-621.2 -835.5 L-620.3 -835.1 L-619.4 -834.7 L-618.4 -834.4 L-617.5 -834 L-616.6 -833.7 L-615.7 -833.3 L-614.8 -832.9 L-613.9 -832.6 L-613 -832.2 L-612.1 -831.9 L-611.2 -831.5 L-610.2 -831.1 L-609.3 -830.8 L-608.4 -830.4 L-607.5 -830.1 Z " />
<path stroke="rgb(0,0,0)" stroke-opacity="1" fill="rgb(255,255,255)" fill-opacity="1" d="M0.316 -275.7 L-1.638 -275.8 L-3.581 -276 L-5.498 -276.4 L-7.379 -276.9 L-9.211 -277.6 L-10.98 -278.5 L-12.68 -279.4 L-14.3 -280.5 L-15.83 -281.7 L-17.25 -283.1 L-18.56 -284.5 L-19.76 -286.1 L-20.82 -287.7 L-21.76 -289.4 L-22.55 -291.2 L-23.2 -293.1 L-23.7 -295 L-24.05 -296.9 L-24.24 -298.8 L-24.28 -300.8 L-24.16 -302.7 L-23.89 -304.7 L-23.47 -306.6 L-22.89 -308.5 L-22.17 -310.3 L-21.31 -312 L-20.31 -313.7 L-19.18 -315.3 L-17.92 -316.8 L-16.55 -318.2 L-15.08 -319.5 L-13.51 -320.7 L-11.84 -321.7 L-10.11 -322.6 L-8.304 -323.3 L-6.446 -324 L-4.545 -324.4 L-2.614 -324.7 L-0.664 -324.9 L1.292 -324.9 L3.242 -324.7 L5.173 -324.4 L7.074 -324 L8.932 -323.3 L10.74 -322.6 L12.47 -321.7 L14.13 -320.7 L15.71 -319.5 L17.18 -318.2 L18.55 -316.8 L19.81 -315.3 L20.94 -313.7 L21.94 -312 L22.8 -310.3 L23.52 -308.5 L24.1 -306.6 L24.52 -304.7 L24.79 -302.7 L24.91 -300.8 L24.87 -298.8 L24.68 -296.9 L24.33 -295 L23.83 -293.1 L23.18 -291.2 L22.39 -289.4 L21.46 -287.7 L20.39 -286.1 L19.2 -284.5 L17.88 -283.1 L16.46 -281.7 L14.93 -280.5 L13.32 -279.4 L11.61 -278.5 L9.843 -277.6 L8.011 -276.9 L6.13 -276.4 L4.213 -276 L2.271 -275.8 L0.316 -275.7 Z " />
<path stroke="rgb(0,0,0)" stroke-opacity="1" fill="rgb(255,255,255)" fill-opacity="1" d="M-395.2 -819.2 L-395.4 -818.2 L-395.5 -817.3 L-395.7 -816.3 L-395.8 -815.3 L-396 -814.4 L-396.1 -813.4 L-396.3 -812.4 L-396.4 -811.5 L-396.6 -810.5 L-396.7 -809.5 L-396.9 -808.6 L-397 -807.6 L-397.2 -806.6 L-397.3 -805.7 L-397.5 -804.7 L-397.6 -803.7 L-397.8 -802.8 L-397.9 -801.8 L-398.1 -800.8 L-398.2 -799.9 L-398.4 -798.9 L-398.5 -797.9 L-398.7 -796.9 L-398.8 -796 L-399 -795 L-400 -795.2 L-400.9 -795.3 L-401.9 -795.5 L-402.9 -795.6 L-403.8 -795.8 L-404.8 -795.9 L-405.8 -796.1 L-406.7 -796.2 L-407.7 -796.4 L-408.7 -796.5 L-409.6 -796.7 L-410.6 -796.8 L-411.6 -797 L-412.5 -797.1 L-413.5 -797.3 L-414.5 -797.4 L-415.4 -797.5 L-416.4 -797.7 L-417.4 -797.8 L-418.3 -798 L-419.3 -798.1 L-420.3 -798.3 L-421.3 -798.4 L-422.2 -798.6 L-423.2 -798.7 L-423 -799.7 L-422.9 -800.7 L-422.7 -801.6 L-422.6 -802.6 L-422.4 -803.6 L-422.3 -804.6 L-422.1 -805.5 L-422 -806.5 L-421.8 -807.5 L-421.7 -808.4 L-421.5 -809.4 L-421.4 -810.4 L-421.2 -811.3 L-421.1 -812.3 L-420.9 -813.3 L-420.8 -814.2 L-420.7 -815.2 L-420.5 -816.2 L-420.4 -817.1 L-420.2 -818.1 L-420.1 -819.1 L-419.9 -820 L-419.8 -821 L-419.6 -822 L-419.5 -823 L-418.5 -822.8 L-417.5 -822.7 L-416.6 -822.5 L-415.6 -822.4 L-414.6 -822.2 L-413.6 -822.1 L-412.7 -821.9 L-411.7 -821.8 L-410.7 -821.6 L-409.8 -821.5 L-408.8 -821.3 L-407.8 -821.2 L-406.9 -821 L-405.9 -820.9 L-404.9 -820.7 L-404 -820.6 L-403 -820.4 L-402 -820.3 L-401.1 -820.1 L-400.1 -820 L-399.1 -819.8 L-398.2 -819.7 L-397.2 -819.5 L-396.2 -819.4 L-395.2 -819.2 Z " />
<path stroke="rgb(0,0,0)" stroke-opacity="1" fill="rgb(255,255,255)" fill-opacity="1" d="M200.3 -275.7 L198.4 -275.8 L196.4 -276 L194.5 -276.4 L192.6 -276.9 L190.8 -277.6 L189 -278.5 L187.3 -279.4 L185.7 -280.5 L184.2 -281.7 L182.7 -283.1 L181.4 -284.5 L180.2 -286.1 L179.2 -287.7 L178.2 -289.4 L177.4 -291.2 L176.8 -293.1 L176.3 -295 L176 -296.9 L175.8 -298.8 L175.7 -300.8 L175.8 -302.7 L176.1 -304.7 L176.5 -306.6 L177.1 -308.5 L177.8 -310.3 L178.7 -312 L179.7 -313.7 L180.8 -315.3 L182.1 -316.8 L183.4 -318.2 L184.9 -319.5 L186.5 -320.7 L188.2 -321.7 L189.9 -322.6 L191.7 -323.3 L193.6 -324 L195.5 -324.4 L197.4 -324.7 L199.3 -324.9 L201.3 -324.9 L203.2 -324.7 L205.2 -324.4 L207.1 -324 L208.9 -323.3 L210.7 -322.6 L212.5 -321.7 L214.1 -320.7 L215.7 -319.5 L217.2 -318.2 L218.6 -316.8 L219.8 -315.3 L220.9 -313.7 L221.9 -312 L222.8 -310.3 L223.5 -308.5 L224.1 -306.6 L224.5 -304.7 L224.8 -302.7 L224.9 -300.8 L224.9 -298.8 L224.7 -296.9 L224.3 -295 L223.8 -293.1 L223.2 -291.2 L222.4 -289.4 L221.5 -287.7 L220.4 -286.1 L219.2 -284.5 L217.9 -283.1 L216.5 -281.7 L214.9 -280.5 L213.3 -279.4 L211.6 -278.5 L209.8 -277.6 L208 -276.9 L206.1 -276.4 L204.2 -276 L202.3 -275.8 L200.3 -275.7 Z " />
<path stroke="rgb(0,0,0)" stroke-opacity="1" fill="rgb(255,255,255)" fill-opacity="1" d="M-930.5 -748.1 L-931.2 -747.4 L-931.9 -746.7 L-932.5 -746 L-933.2 -745.3 L-933.9 -744.5 L-934.6 -743.8 L-935.2 -743.1 L-935.9 -742.4 L-936.6 -741.7 L-937.3 -741 L-937.9 -740.3 L-938.6 -739.6 L-939.3 -738.9 L-939.9 -738.2 L-940.6 -737.4 L-941.3 -736.7 L-942 -736 L-942.6 -735.3 L-943.3 -734.6 L-944 -733.9 L-944.7 -733.2 L-945.3 -732.5 L-946 -731.8 L-946.7 -731 L-947.4 -730.3 L-948.1 -731 L-948.8 -731.7 L-949.5 -732.4 L-950.2 -733 L-950.9 -733.7 L-951.6 -734.4 L-952.3 -735.1 L-953 -735.7 L-953.8 -736.4 L-954.5 -737.1 L-955.2 -737.8 L-955.9 -738.4 L-956.6 -739.1 L-957.3 -739.8 L-958 -740.4 L-958.7 -741.1 L-959.4 -741.8 L-960.2 -742.5 L-960.9 -743.1 L-961.6 -743.8 L-962.3 -744.5 L-963 -745.2 L-963.7 -745.8 L-964.4 -746.5 L-965.1 -747.2 L-964.5 -747.9 L-963.8 -748.6 L-963.1 -749.3 L-962.4 -750 L-961.8 -750.7 L-961.1 -751.4 L-960.4 -752.2 L-959.7 -752.9 L-959.1 -753.6 L-958.4 -754.3 L-957.7 -755 L-957 -755.7 L-956.4 -756.4 L-955.7 -757.1 L-955 -757.8 L-954.3 -758.6 L-953.7 -759.3 L-953 -760 L-952.3 -760.7 L-951.6 -761.4 L-951 -762.1 L-950.3 -762.8 L-949.6 -763.5 L-949 -764.2 L-948.3 -764.9 L-947.6 -764.3 L-946.9 -763.6 L-946.1 -762.9 L-945.4 -762.3 L-944.7 -761.6 L-944 -760.9 L-943.3 -760.2 L-942.6 -759.6 L-941.9 -758.9 L-941.2 -758.2 L-940.5 -757.5 L-939.8 -756.9 L-939 -756.2 L-938.3 -755.5 L-937.6 -754.8 L-936.9 -754.2 L-936.2 -753.5 L-935.5 -752.8 L-934.8 -752.1 L-934.1 -751.5 L-933.4 -750.8 L-932.6 -750.1 L-931.9 -749.5 L-931.2 -748.8 L-930.5 -748.1 Z " />
<path stroke="rgb(0,0,0)" stroke-opacity="1" fill="rgb(255,255,255)" fill-opacity="1" d="M-299.7 -175.7 L-301.6 -175.8 L-303.6 -176 L-305.5 -176.4 L-307.4 -176.9 L-309.2 -177.6 L-311 -178.5 L-312.7 -179.4 L-314.3 -180.5 L-315.8 -181.7 L-317.3 -183.1 L-318.6 -184.5 L-319.8 -186.1 L-320.8 -187.7 L-321.8 -189.4 L-322.6 -191.2 L-323.2 -193.1 L-323.7 -195 L-324 -196.9 L-324.2 -198.8 L-324.3 -200.8 L-324.2 -202.7 L-323.9 -204.7 L-323.5 -206.6 L-322.9 -208.5 L-322.2 -210.3 L-321.3 -212 L-320.3 -213.7 L-319.2 -215.3 L-317.9 -216.8 L-316.6 -218.2 L-315.1 -219.5 L-313.5 -220.7 L-311.8 -221.7 L-310.1 -222.6 L-308.3 -223.3 L-306.4 -224 L-304.5 -224.4 L-302.6 -224.7 L-300.7 -224.9 L-298.7 -224.9 L-296.8 -224.7 L-294.8 -224.4 L-292.9 -224 L-291.1 -223.3 L-289.3 -222.6 L-287.5 -221.7 L-285.9 -220.7 L-284.3 -219.5 L-282.8 -218.2 L-281.4 -216.8 L-280.2 -215.3 L-279.1 -213.7 L-278.1 -212 L-277.2 -210.3 L-276.5 -208.5 L-275.9 -206.6 L-275.5 -204.7 L-275.2 -202.7 L-275.1 -200.8 L-275.1 -198.8 L-275.3 -196.9 L-275.7 -195 L-276.2 -193.1 L-276.8 -191.2 L-277.6 -189.4 L-278.5 -187.7 L-279.6 -186.1 L-280.8 -184.5 L-282.1 -183.1 L-283.5 -181.7 L-285.1 -180.5 L-286.7 -179.4 L-288.4 -178.5 L-290.2 -177.6 L-292 -176.9 L-293.9 -176.4 L-295.8 -176 L-297.7 -175.8 L-299.7 -175.7 Z " />
<path stroke="rgb(0,0,0)" stroke-opacity="1" fill="rgb(255,255,255)" fill-opacity="1" d="M-707.5 -730.1 L-707.9 -729.2 L-708.2 -728.2 L-708.6 -727.3 L-708.9 -726.4 L-709.3 -725.5 L-709.7 -724.6 L-710 -723.7 L-710.4 -722.8 L-710.7 -721.9 L-711.1 -721 L-711.5 -720 L-711.8 -719.1 L-712.2 -718.2 L-712.5 -717.3 L-712.9 -716.4 L-713.3 -715.5 L-713.6 -714.6 L-714 -713.7 L-714.3 -712.8 L-714.7 -711.8 L-715.1 -710.9 L-715.4 -710 L-715.8 -709.1 L-716.1 -708.2 L-716.5 -707.3 L-717.4 -707.6 L-718.3 -708 L-719.2 -708.4 L-720.1 -708.7 L-721 -709.1 L-722 -709.4 L-722.9 -709.8 L-723.8 -710.2 L-724.7 -710.5 L-725.6 -710.9 L-726.5 -711.2 L-727.4 -711.6 L-728.3 -712 L-729.2 -712.3 L-730.2 -712.7 L-731.1 -713 L-732 -713.4 L-732.9 -713.7 L-733.8 -714.1 L-734.7 -714.5 L-735.6 -714.8 L-736.5 -715.2 L-737.4 -715.5 L-738.4 -715.9 L-739.3 -716.3 L-738.9 -717.2 L-738.6 -718.1 L-738.2 -719 L-737.8 -719.9 L-737.5 -720.8 L-737.1 -721.7 L-736.8 -722.6 L-736.4 -723.6 L-736 -724.5 L-735.7 -725.4 L-735.3 -726.3 L-735 -727.2 L-734.6 -728.1 L-734.2 -729 L-733.9 -729.9 L-733.5 -730.8 L-733.2 -731.8 L-732.8 -732.7 L-732.4 -733.6 L-732.1 -734.5 L-731.7 -735.4 L-731.4 -736.3 L-731 -737.2 L-730.7 -738.1 L-730.3 -739 L-729.4 -738.7 L-728.5 -738.3 L-727.6 -738 L-726.6 -737.6 L-725.7 -737.3 L-724.8 -736.9 L-723.9 -736.5 L-723 -736.2 L-722.1 -735.8 L-721.2 -735.5 L-720.3 -735.1 L-719.4 -734.7 L-718.4 -734.4 L-717.5 -734 L-716.6 -733.7 L-715.7 -733.3 L-714.8 -732.9 L-713.9 -732.6 L-713 -732.2 L-712.1 -731.9 L-711.2 -731.5 L-710.2 -731.1 L-709.3 -730.8 L-708.4 -730.4 L-707.5 -730.1 Z " />
<path stroke="rgb(0,0,0)" stroke-opacity="1" fill="rgb(255,255,255)" fill-opacity="1" d="M-99.68 -175.7 L-101.6 -175.8 L-103.6 -176 L-105.5 -176.4 L-107.4 -176.9 L-109.2 -177.6 L-111 -178.5 L-112.7 -179.4 L-114.3 -180.5 L-115.8 -181.7 L-117.3 -183.1 L-118.6 -184.5 L-119.8 -186.1 L-120.8 -187.7 L-121.8 -189.4 L-122.6 -191.2 L-123.2 -193.1 L-123.7 -195 L-124 -196.9 L-124.2 -198.8 L-124.3 -200.8 L-124.2 -202.7 L-123.9 -204.7 L-123.5 -206.6 L-122.9 -208.5 L-122.2 -210.3 L-121.3 -212 L-120.3 -213.7 L-119.2 -215.3 L-117.9 -216.8 L-116.6 -218.2 L-115.1 -219.5 L-113.5 -220.7 L-111.8 -221.7 L-110.1 -222.6 L-108.3 -223.3 L-106.4 -224 L-104.5 -224.4 L-102.6 -224.7 L-100.7 -224.9 L-98.71 -224.9 L-96.76 -224.7 L-94.83 -224.4 L-92.93 -224 L-91.07 -223.3 L-89.26 -222.6 L-87.53 -221.7 L-85.87 -220.7 L-84.29 -219.5 L-82.82 -218.2 L-81.45 -216.8 L-80.19 -215.3 L-79.06 -213.7 L-78.06 -212 L-77.2 -210.3 L-76.48 -208.5 L-75.9 -206.6 L-75.48 -204.7 L-75.21 -202.7 L-75.09 -200.8 L-75.13 -198.8 L-75.32 -196.9 L-75.67 -195 L-76.17 -193.1 L-76.82 -191.2 L-77.61 -189.4 L-78.54 -187.7 L-79.61 -186.1 L-80.8 -184.5 L-82.12 -183.1 L-83.54 -181.7 L-85.07 -180.5 L-86.68 -179.4 L-88.39 -178.5 L-90.16 -177.6 L-91.99 -176.9 L-93.87 -176.4 L-95.79 -176 L-97.73 -175.8 L-99.68 -175.7 Z " />
<path stroke="rgb(0,0,0)" stroke-opacity="1" fill="rgb(255,255,255)" fill-opacity="1" d="M-495.2 -719.2 L-495.4 -718.2 L-495.5 -717.3 L-495.7 -716.3 L-495.8 -715.3 L-496 -714.4 L-496.1 -713.4 L-496.3 -712.4 L-496.4 -711.5 L-496.6 -710.5 L-496.7 -709.5 L-496.9 -708.6 L-497 -707.6 L-497.2 -706.6 L-497.3 -705.7 L-497.5 -704.7 L-497.6 -703.7 L-497.8 -702.8 L-497.9 -701.8 L-498.1 -700.8 L-498.2 -699.9 L-498.4 -698.9 L-498.5 -697.9 L-498.7 -696.9 L-498.8 -696 L-499 -695 L-500 -695.2 L-500.9 -695.3 L-501.9 -695.5 L-502.9 -695.6 L-503.8 -695.8 L-504.8 -695.9 L-505.8 -696.1 L-506.7 -696.2 L-507.7 -696.4 L-508.7 -696.5 L-509.6 -696.7 L-510.6 -696.8 L-511.6 -697 L-512.5 -697.1 L-513.5 -697.3 L-514.5 -697.4 L-515.4 -697.5 L-516.4 -697.7 L-517.4 -697.8 L-518.3 -698 L-519.3 -698.1 L-520.3 -698.3 L-521.3 -698.4 L-522.2 -698.6 L-523.2 -698.7 L-523 -699.7 L-522.9 -700.7 L-522.7 -701.6 L-522.6 -702.6 L-522.4 -703.6 L-522.3 -704.6 L-522.1 -705.5 L-522 -706.5 L-521.8 -707.5 L-521.7 -708.4 L-521.5 -709.4 L-521.4 -710.4 L-521.2 -711.3 L-521.1 -712.3 L-520.9 -713.3 L-520.8 -714.2 L-520.7 -715.2 L-520.5 -716.2 L-520.4 -717.1 L-520.2 -718.1 L-520.1 -719.1 L-519.9 -720 L-519.8 -721 L-519.6 -722 L-519.5 -723 L-518.5 -722.8 L-517.5 -722.7 L-516.6 -722.5 L-515.6 -722.4 L-514.6 -722.2 L-513.6 -722.1 L-512.7 -721.9 L-511.7 -721.8 L-510.7 -721.6 L-509.8 -721.5 L-508.8 -721.3 L-507.8 -721.2 L-506.9 -721 L-505.9 -720.9 L-504.9 -720.7 L-504 -720.6 L-503 -720.4 L-502 -720.3 L-501.1 -720.1 L-500.1 -720 L-499.1 -719.8 L-498.2 -719.7 L-497.2 -719.5 L-496.2 -719.4 L-495.2 -719.2 Z " />
<path stroke="rgb(0,0,0)" stroke-opacity="1" fill="rgb(255,255,255)" fill-opacity="1" d="M100.3 -175.7 L98.36 -175.8 L96.42 -176 L94.5 -176.4 L92.62 -176.9 L90.79 -177.6 L89.02 -178.5 L87.32 -179.4 L85.7 -180.5 L84.17 -181.7 L82.75 -183.1 L81.44 -184.5 L80.24 -186.1 L79.18 -187.7 L78.24 -189.4 L77.45 -191.2 L76.8 -193.1 L76.3 -195 L75.95 -196.9 L75.76 -198.8 L75.72 -200.8 L75.84 -202.7 L76.11 -204.7 L76.53 -206.6 L77.11 -208.5 L77.83 -210.3 L78.69 -212 L79.69 -213.7 L80.82 -215.3 L82.08 -216.8 L83.45 -218.2 L84.92 -219.5 L86.49 -220.7 L88.16 -221.7 L89.89 -222.6 L91.7 -223.3 L93.55 -224 L95.45 -224.4 L97.39 -224.7 L99.34 -224.9 L101.3 -224.9 L103.2 -224.7 L105.2 -224.4 L107.1 -224 L108.9 -223.3 L110.7 -222.6 L112.5 -221.7 L114.1 -220.7 L115.7 -219.5 L117.2 -218.2 L118.6 -216.8 L119.8 -215.3 L120.9 -213.7 L121.9 -212 L122.8 -210.3 L123.5 -208.5 L124.1 -206.6 L124.5 -204.7 L124.8 -202.7 L124.9 -200.8 L124.9 -198.8 L124.7 -196.9 L124.3 -195 L123.8 -193.1 L123.2 -191.2 L122.4 -189.4 L121.5 -187.7 L120.4 -186.1 L119.2 -184.5 L117.9 -183.1 L116.5 -181.7 L114.9 -180.5 L113.3 -179.4 L111.6 -178.5 L109.8 -177.6 L108 -176.9 L106.1 -176.4 L104.2 -176 L102.3 -175.8 L100.3 -175.7 Z " />
<path stroke="rgb(0,0,0)" stroke-opacity="1" fill="rgb(255,255,255)" fill-opacity="1" d="M-289.7 -713.9 L-289.7 -712.9 L-289.8 -712 L-289.8 -711 L-289.9 -710 L-289.9 -709 L-290 -708.1 L-290 -707.1 L-290.1 -706.1 L-290.1 -705.1 L-290.2 -704.1 L-290.2 -703.2 L-290.3 -702.2 L-290.3 -701.2 L-290.4 -700.2 L-290.4 -699.2 L-290.5 -698.3 L-290.5 -697.3 L-290.5 -696.3 L-290.6 -695.3 L-290.6 -694.4 L-290.7 -693.4 L-290.7 -692.4 L-290.8 -691.4 L-290.8 -690.4 L-290.9 -689.5 L-291.9 -689.5 L-292.8 -689.6 L-293.8 -689.6 L-294.8 -689.6 L-295.8 -689.7 L-296.7 -689.7 L-297.7 -689.8 L-298.7 -689.8 L-299.7 -689.9 L-300.7 -689.9 L-301.6 -690 L-302.6 -690 L-303.6 -690.1 L-304.6 -690.1 L-305.6 -690.2 L-306.5 -690.2 L-307.5 -690.3 L-308.5 -690.3 L-309.5 -690.4 L-310.5 -690.4 L-311.4 -690.4 L-312.4 -690.5 L-313.4 -690.5 L-314.4 -690.6 L-315.3 -690.6 L-315.3 -691.6 L-315.2 -692.6 L-315.2 -693.6 L-315.2 -694.5 L-315.1 -695.5 L-315.1 -696.5 L-315 -697.5 L-315 -698.5 L-314.9 -699.4 L-314.9 -700.4 L-314.8 -701.4 L-314.8 -702.4 L-314.7 -703.4 L-314.7 -704.3 L-314.6 -705.3 L-314.6 -706.3 L-314.5 -707.3 L-314.5 -708.3 L-314.4 -709.2 L-314.4 -710.2 L-314.4 -711.2 L-314.3 -712.2 L-314.3 -713.1 L-314.2 -714.1 L-314.2 -715.1 L-313.2 -715.1 L-312.2 -715 L-311.2 -715 L-310.3 -714.9 L-309.3 -714.9 L-308.3 -714.8 L-307.3 -714.8 L-306.3 -714.7 L-305.4 -714.7 L-304.4 -714.6 L-303.4 -714.6 L-302.4 -714.5 L-301.4 -714.5 L-300.5 -714.4 L-299.5 -714.4 L-298.5 -714.3 L-297.5 -714.3 L-296.5 -714.3 L-295.6 -714.2 L-294.6 -714.2 L-293.6 -714.1 L-292.6 -714.1 L-291.7 -714 L-290.7 -714 L-289.7 -713.9 Z " />
<path stroke="rgb(0,0,0)" stroke-opacity="1" fill="rgb(255,255,255)" fill-opacity="1" d="M-399.7 -75.7 L-401.6 -75.78 L-403.6 -76.01 L-405.5 -76.4 L-407.4 -76.94 L-409.2 -77.62 L-411 -78.45 L-412.7 -79.42 L-414.3 -80.52 L-415.8 -81.74 L-417.3 -83.08 L-418.6 -84.53 L-419.8 -86.08 L-420.8 -87.72 L-421.8 -89.44 L-422.6 -91.23 L-423.2 -93.08 L-423.7 -94.97 L-424 -96.89 L-424.2 -98.84 L-424.3 -100.8 L-424.2 -102.7 L-423.9 -104.7 L-423.5 -106.6 L-422.9 -108.5 L-422.2 -110.3 L-421.3 -112 L-420.3 -113.7 L-419.2 -115.3 L-417.9 -116.8 L-416.6 -118.2 L-415.1 -119.5 L-413.5 -120.7 L-411.8 -121.7 L-410.1 -122.6 L-408.3 -123.3 L-406.4 -124 L-404.5 -124.4 L-402.6 -124.7 L-400.7 -124.9 L-398.7 -124.9 L-396.8 -124.7 L-394.8 -124.4 L-392.9 -124 L-391.1 -123.3 L-389.3 -122.6 L-387.5 -121.7 L-385.9 -120.7 L-384.3 -119.5 L-382.8 -118.2 L-381.4 -116.8 L-380.2 -115.3 L-379.1 -113.7 L-378.1 -112 L-377.2 -110.3 L-376.5 -108.5 L-375.9 -106.6 L-375.5 -104.7 L-375.2 -102.7 L-375.1 -100.8 L-375.1 -98.84 L-375.3 -96.89 L-375.7 -94.97 L-376.2 -93.08 L-376.8 -91.23 L-377.6 -89.44 L-378.5 -87.72 L-379.6 -86.08 L-380.8 -84.53 L-382.1 -83.08 L-383.5 -81.74 L-385.1 -80.52 L-386.7 -79.42 L-388.4 -78.45 L-390.2 -77.62 L-392 -76.94 L-393.9 -76.4 L-395.8 -76.02 L-397.7 -75.78 L-399.7 -75.7 Z " />
<path stroke="rgb(0,0,0)" stroke-opacity="1" fill="rgb(255,255,255)" fill-opacity="1" d="M-807.5 -630.1 L-807.9 -629.2 L-808.2 -628.2 L-808.6 -627.3 L-808.9 -626.4 L-809.3 -625.5 L-809.7 -624.6 L-810 -623.7 L-810.4 -622.8 L-810.7 -621.9 L-811.1 -621 L-811.5 -620 L-811.8 -619.1 L-812.2 -618.2 L-812.5 -617.3 L-812.9 -616.4 L-813.3 -615.5 L-813.6 -614.6 L-814 -613.7 L-814.3 -612.8 L-814.7 -611.8 L-815.1 -610.9 L-815.4 -610 L-815.8 -609.1 L-816.1 -608.2 L-816.5 -607.3 L-817.4 -607.6 L-818.3 -608 L-819.2 -608.4 L-820.1 -608.7 L-821 -609.1 L-822 -609.4 L-822.9 -609.8 L-823.8 -610.2 L-824.7 -610.5 L-825.6 -610.9 L-826.5 -611.2 L-827.4 -611.6 L-828.3 -612 L-829.2 -612.3 L-830.2 -612.7 L-831.1 -613 L-832 -613.4 L-832.9 -613.7 L-833.8 -614.1 L-834.7 -614.5 L-835.6 -614.8 L-836.5 -615.2 L-837.4 -615.5 L-838.4 -615.9 L-839.3 -616.3 L-838.9 -617.2 L-838.6 -618.1 L-838.2 -619 L-837.8 -619.9 L-837.5 -620.8 L-837.1 -621.7 L-836.8 -622.6 L-836.4 -623.6 L-836 -624.5 L-835.7 -625.4 L-835.3 -626.3 L-835 -627.2 L-834.6 -628.1 L-834.2 -629 L-833.9 -629.9 L-833.5 -630.8 L-833.2 -631.8 L-832.8 -632.7 L-832.4 -633.6 L-832.1 -634.5 L-831.7 -635.4 L-831.4 -636.3 L-831 -637.2 L-830.7 -638.1 L-830.3 -639 L-829.4 -638.7 L-828.5 -638.3 L-827.6 -638 L-826.6 -637.6 L-825.7 -637.3 L-824.8 -636.9 L-823.9 -636.5 L-823 -636.2 L-822.1 -635.8 L-821.2 -635.5 L-820.3 -635.1 L-819.4 -634.7 L-818.4 -634.4 L-817.5 -634 L-816.6 -633.7 L-815.7 -633.3 L-814.8 -632.9 L-813.9 -632.6 L-813 -632.2 L-812.1 -631.9 L-811.2 -631.5 L-810.2 -631.1 L-809.3 -630.8 L-808.4 -630.4 L-807.5 -630.1 Z " />
<path stroke="rgb(0,0,0)" stroke-opacity="1" fill="rgb(255,255,255)" fill-opacity="1" d="M-199.7 -75.7 L-201.6 -75.78 L-203.6 -76.01 L-205.5 -76.4 L-207.4 -76.94 L-209.2 -77.62 L-211 -78.45 L-212.7 -79.42 L-214.3 -80.52 L-215.8 -81.74 L-217.3 -83.08 L-218.6 -84.53 L-219.8 -86.08 L-220.8 -87.72 L-221.8 -89.44 L-222.6 -91.23 L-223.2 -93.08 L-223.7 -94.97 L-224 -96.89 L-224.2 -98.84 L-224.3 -100.8 L-224.2 -102.7 L-223.9 -104.7 L-223.5 -106.6 L-222.9 -108.5 L-222.2 -110.3 L-221.3 -112 L-220.3 -113.7 L-219.2 -115.3 L-217.9 -116.8 L-216.6 -118.2 L-215.1 -119.5 L-213.5 -120.7 L-211.8 -121.7 L-210.1 -122.6 L-208.3 -123.3 L-206.4 -124 L-204.5 -124.4 L-202.6 -124.7 L-200.7 -124.9 L-198.7 -124.9 L-196.8 -124.7 L-194.8 -124.4 L-192.9 -124 L-191.1 -123.3 L-189.3 -122.6 L-187.5 -121.7 L-185.9 -120.7 L-184.3 -119.5 L-182.8 -118.2 L-181.4 -116.8 L-180.2 -115.3 L-179.1 -113.7 L-178.1 -112 L-177.2 -110.3 L-176.5 -108.5 L-175.9 -106.6 L-175.5 -104.7 L-175.2 -102.7 L-175.1 -100.8 L-175.1 -98.84 L-175.3 -96.89 L-175.7 -94.97 L-176.2 -93.08 L-176.8 -91.23 L-177.6 -89.44 L-178.5 -87.72 L-179.6 -86.08 L-180.8 -84.53 L-182.1 -83.08 L-183.5 -81.74 L-185.1 -80.52 L-186.7 -79.42 L-188.4 -78.45 L-190.2 -77.62 L-192 -76.94 L-193.9 -76.4 L-195.8 -76.02 L-197.7 -75.78 L-199.7 -75.7 Z " />
<path stroke="rgb(0,0,0)" stroke-opacity="1" fill="rgb(255,255,255)" fill-opacity="1" d="M-595.2 -619.2 L-595.4 -618.2 L-595.5 -617.3 L-595.7 -616.3 L-595.8 -615.3 L-596 -614.4 L-596.1 -613.4 L-596.3 -612.4 L-596.4 -611.5 L-596.6 -610.5 L-596.7 -609.5 L-596.9 -608.6 L-597 -607.6 L-597.2 -606.6 L-597.3 -605.7 L-597.5 -604.7 L-597.6 -603.7 L-597.8 -602.8 L-597.9 -601.8 L-598.1 -600.8 L-598.2 -599.9 L-598.4 -598.9 L-598.5 -597.9 L-598.7 -596.9 L-598.8 -596 L-599 -595 L-600 -595.2 L-600.9 -595.3 L-601.9 -595.5 L-602.9 -595.6 L-603.8 -595.8 L-604.8 -595.9 L-605.8 -596.1 L-606.7 -596.2 L-607.7 -596.4 L-608.7 -596.5 L-609.6 -596.7 L-610.6 -596.8 L-611.6 -597 L-612.5 -597.1 L-613.5 -597.3 L-614.5 -597.4 L-615.4 -597.5 L-616.4 -597.7 L-617.4 -597.8 L-618.3 -598 L-619.3 -598.1 L-620.3 -598.3 L-621.3 -598.4 L-622.2 -598.6 L-623.2 -598.7 L-623 -599.7 L-622.9 -600.7 L-622.7 -601.6 L-622.6 -602.6 L-622.4 -603.6 L-622.3 -604.6 L-622.1 -605.5 L-622 -606.5 L-621.8 -607.5 L-621.7 -608.4 L-621.5 -609.4 L-621.4 -610.4 L-621.2 -611.3 L-621.1 -612.3 L-620.9 -613.3 L-620.8 -614.2 L-620.7 -615.2 L-620.5 -616.2 L-620.4 -617.1 L-620.2 -618.1 L-620.1 -619.1 L-619.9 -620 L-619.8 -621 L-619.6 -622 L-619.5 -623 L-618.5 -622.8 L-617.5 -622.7 L-616.6 -622.5 L-615.6 -622.4 L-614.6 -622.2 L-613.6 -622.1 L-612.7 -621.9 L-611.7 -621.8 L-610.7 -621.6 L-609.8 -621.5 L-608.8 -621.3 L-607.8 -621.2 L-606.9 -621 L-605.9 -620.9 L-604.9 -620.7 L-604 -620.6 L-603 -620.4 L-602 -620.3 L-601.1 -620.1 L-600.1 -620 L-599.1 -619.8 L-598.2 -619.7 L-597.2 -619.5 L-596.2 -619.4 L-595.2 -619.2 Z " />
<path stroke="rgb(0,0,0)" stroke-opacity="1" fill="rgb(255,255,255)" fill-opacity="1" d="M0.316 -75.7 L-1.638 -75.78 L-3.581 -76.01 L-5.498 -76.4 L-7.379 -76.94 L-9.211 -77.62 L-10.98 -78.45 L-12.68 -79.42 L-14.3 -80.52 L-15.83 -81.74 L-17.25 -83.08 L-18.56 -84.53 L-19.76 -86.08 L-20.82 -87.72 L-21.76 -89.44 L-22.55 -91.23 L-23.2 -93.08 L-23.7 -94.97 L-24.05 -96.89 L-24.24 -98.84 L-24.28 -100.8 L-24.16 -102.7 L-23.89 -104.7 L-23.47 -106.6 L-22.89 -108.5 L-22.17 -110.3 L-21.31 -112 L-20.31 -113.7 L-19.18 -115.3 L-17.92 -116.8 L-16.55 -118.2 L-15.08 -119.5 L-13.51 -120.7 L-11.84 -121.7 L-10.11 -122.6 L-8.304 -123.3 L-6.446 -124 L-4.545 -124.4 L-2.614 -124.7 L-0.664 -124.9 L1.292 -124.9 L3.242 -124.7 L5.173 -124.4 L7.074 -124 L8.932 -123.3 L10.74 -122.6 L12.47 -121.7 L14.13 -120.7 L15.71 -119.5 L17.18 -118.2 L18.55 -116.8 L19.81 -115.3 L20.94 -113.7 L21.94 -112 L22.8 -110.3 L23.52 -108.5 L24.1 -106.6 L24.52 -104.7 L24.79 -102.7 L24.91 -100.8 L24.87 -98.84 L24.68 -96.89 L24.33 -94.97 L23.83 -93.08 L23.18 -91.23 L22.39 -89.44 L21.46 -87.72 L20.39 -86.08 L19.2 -84.53 L17.88 -83.08 L16.46 -81.74 L14.93 -80.52 L13.32 -79.42 L11.61 -78.45 L9.843 -77.62 L8.011 -76.94 L6.13 -76.4 L4.213 -76.02 L2.271 -75.78 L0.316 -75.7 Z " />
<path stroke="rgb(0,0,0)" stroke-opacity="1" fill="rgb(255,255,255)" fill-opacity="1" d="M-389.7 -613.9 L-389.7 -612.9 L-389.8 -612 L-389.8 -611 L-389.9 -610 L-389.9 -609 L-390 -608.1 L-390 -607.1 L-390.1 -606.1 L-390.1 -605.1 L-390.2 -604.1 L-390.2 -603.2 L-390.3 -602.2 L-390.3 -601.2 L-390.4 -600.2 L-390.4 -599.2 L-390.5 -598.3 L-390.5 -597.3 L-390.5 -596.3 L-390.6 -595.3 L-390.6 -594.4 L-390.7 -593.4 L-390.7 -592.4 L-390.8 -591.4 L-390.8 -590.4 L-390.9 -589.5 L-391.9 -589.5 L-392.8 -589.6 L-393.8 -589.6 L-394.8 -589.6 L-395.8 -589.7 L-396.7 -589.7 L-397.7 -589.8 L-398.7 -589.8 L-399.7 -589.9 L-400.7 -589.9 L-401.6 -590 L-402.6 -590 L-403.6 -590.1 L-404.6 -590.1 L-405.6 -590.2 L-406.5 -590.2 L-407.5 -590.3 L-408.5 -590.3 L-409.5 -590.4 L-410.5 -590.4 L-411.4 -590.4 L-412.4 -590.5 L-413.4 -590.5 L-414.4 -590.6 L-415.3 -590.6 L-415.3 -591.6 L-415.2 -592.6 L-415.2 -593.6 L-415.2 -594.5 L-415.1 -595.5 L-415.1 -596.5 L-415 -597.5 L-415 -598.5 L-414.9 -599.4 L-414.9 -600.4 L-414.8 -601.4 L-414.8 -602.4 L-414.7 -603.4 L-414.7 -604.3 L-414.6 -605.3 L-414.6 -606.3 L-414.5 -607.3 L-414.5 -608.3 L-414.4 -609.2 L-414.4 -610.2 L-414.4 -611.2 L-414.3 -612.2 L-414.3 -613.1 L-414.2 -614.1 L-414.2 -615.1 L-413.2 -615.1 L-412.2 -615 L-411.2 -615 L-410.3 -614.9 L-409.3 -614.9 L-408.3 -614.8 L-407.3 -614.8 L-406.3 -614.7 L-405.4 -614.7 L-404.4 -614.6 L-403.4 -614.6 L-402.4 -614.5 L-401.4 -614.5 L-400.5 -614.4 L-399.5 -614.4 L-398.5 -614.3 L-397.5 -614.3 L-396.5 -614.3 L-395.6 -614.2 L-394.6 -614.2 L-393.6 -614.1 L-392.6 -614.1 L-391.7 -614 L-390.7 -614 L-389.7 -613.9 Z " />
<path stroke="rgb(0,0,0)" stroke-opacity="1" fill="rgb(255,255,255)" fill-opacity="1" d="M200.8 -75.39 L198.8 -75.46 L196.9 -75.68 L194.9 -76.06 L193.1 -76.59 L191.2 -77.26 L189.4 -78.08 L187.7 -79.04 L186.1 -80.13 L184.6 -81.35 L183.1 -82.68 L181.8 -84.12 L180.6 -85.67 L179.6 -87.3 L178.6 -89.02 L177.8 -90.8 L177.2 -92.64 L176.6 -94.53 L176.3 -96.46 L176.1 -98.4 L176 -100.4 L176.1 -102.3 L176.4 -104.2 L176.8 -106.2 L177.4 -108 L178.1 -109.9 L178.9 -111.6 L179.9 -113.3 L181.1 -114.9 L182.3 -116.4 L183.7 -117.8 L185.1 -119.1 L186.7 -120.3 L188.4 -121.3 L190.1 -122.2 L191.9 -123 L193.8 -123.6 L195.6 -124.1 L197.6 -124.4 L199.5 -124.6 L201.5 -124.6 L203.4 -124.4 L205.4 -124.1 L207.3 -123.7 L209.1 -123.1 L210.9 -122.3 L212.7 -121.4 L214.3 -120.4 L215.9 -119.3 L217.4 -118 L218.8 -116.6 L220 -115.1 L221.2 -113.5 L222.2 -111.8 L223.1 -110.1 L223.8 -108.3 L224.4 -106.4 L224.8 -104.5 L225.1 -102.6 L225.2 -100.6 L225.2 -98.65 L225 -96.7 L224.7 -94.77 L224.2 -92.88 L223.5 -91.03 L222.8 -89.24 L221.8 -87.51 L220.8 -85.87 L219.6 -84.31 L218.3 -82.86 L216.9 -81.51 L215.3 -80.28 L213.7 -79.17 L212 -78.19 L210.3 -77.36 L208.4 -76.66 L206.6 -76.12 L204.6 -75.72 L202.7 -75.48 L200.8 -75.39 Z " />
<path stroke="rgb(0,0,0)" stroke-opacity="1" fill="rgb(255,255,255)" fill-opacity="1" d="M-907.5 -530.1 L-907.9 -529.2 L-908.2 -528.2 L-908.6 -527.3 L-908.9 -526.4 L-909.3 -525.5 L-909.7 -524.6 L-910 -523.7 L-910.4 -522.8 L-910.7 -521.9 L-911.1 -521 L-911.5 -520 L-911.8 -519.1 L-912.2 -518.2 L-912.5 -517.3 L-912.9 -516.4 L-913.3 -515.5 L-913.6 -514.6 L-914 -513.7 L-914.3 -512.8 L-914.7 -511.8 L-915.1 -510.9 L-915.4 -510 L-915.8 -509.1 L-916.1 -508.2 L-916.5 -507.3 L-917.4 -507.6 L-918.3 -508 L-919.2 -508.4 L-920.1 -508.7 L-921 -509.1 L-922 -509.4 L-922.9 -509.8 L-923.8 -510.2 L-924.7 -510.5 L-925.6 -510.9 L-926.5 -511.2 L-927.4 -511.6 L-928.3 -512 L-929.2 -512.3 L-930.2 -512.7 L-931.1 -513 L-932 -513.4 L-932.9 -513.7 L-933.8 -514.1 L-934.7 -514.5 L-935.6 -514.8 L-936.5 -515.2 L-937.4 -515.5 L-938.4 -515.9 L-939.3 -516.3 L-938.9 -517.2 L-938.6 -518.1 L-938.2 -519 L-937.8 -519.9 L-937.5 -520.8 L-937.1 -521.7 L-936.8 -522.6 L-936.4 -523.6 L-936 -524.5 L-935.7 -525.4 L-935.3 -526.3 L-935 -527.2 L-934.6 -528.1 L-934.2 -529 L-933.9 -529.9 L-933.5 -530.8 L-933.2 -531.8 L-932.8 -532.7 L-932.4 -533.6 L-932.1 -534.5 L-931.7 -535.4 L-931.4 -536.3 L-931 -537.2 L-930.7 -538.1 L-930.3 -539 L-929.4 -538.7 L-928.5 -538.3 L-927.6 -538 L-926.6 -537.6 L-925.7 -537.3 L-924.8 -536.9 L-923.9 -536.5 L-923 -536.2 L-922.1 -535.8 L-921.2 -535.5 L-920.3 -535.1 L-919.4 -534.7 L-918.4 -534.4 L-917.5 -534 L-916.6 -533.7 L-915.7 -533.3 L-914.8 -532.9 L-913.9 -532.6 L-913 -532.2 L-912.1 -531.9 L-911.2 -531.5 L-910.2 -531.1 L-909.3 -530.8 L-908.4 -530.4 L-907.5 -530.1 Z " />
<path stroke="rgb(0,0,0)" stroke-opacity="1" fill="rgb(255,255,255)" fill-opacity="1" d="M-299.7 24.3 L-301.6 24.22 L-303.6 23.99 L-305.5 23.6 L-307.4 23.06 L-309.2 22.38 L-311 21.55 L-312.7 20.58 L-314.3 19.48 L-315.8 18.26 L-317.3 16.92 L-318.6 15.47 L-319.8 13.92 L-320.8 12.28 L-321.8 10.56 L-322.6 8.77 L-323.2 6.925 L-323.7 5.034 L-324 3.109 L-324.2 1.163 L-324.3 -0.7931 L-324.2 -2.746 L-323.9 -4.683 L-323.5 -6.592 L-322.9 -8.462 L-322.2 -10.28 L-321.3 -12.04 L-320.3 -13.72 L-319.2 -15.31 L-317.9 -16.81 L-316.6 -18.21 L-315.1 -19.49 L-313.5 -20.66 L-311.8 -21.69 L-310.1 -22.59 L-308.3 -23.35 L-306.4 -23.96 L-304.5 -24.42 L-302.6 -24.73 L-300.7 -24.89 L-298.7 -24.89 L-296.8 -24.73 L-294.8 -24.42 L-292.9 -23.96 L-291.1 -23.35 L-289.3 -22.59 L-287.5 -21.69 L-285.9 -20.66 L-284.3 -19.5 L-282.8 -18.21 L-281.4 -16.82 L-280.2 -15.31 L-279.1 -13.72 L-278.1 -12.04 L-277.2 -10.28 L-276.5 -8.464 L-275.9 -6.594 L-275.5 -4.685 L-275.2 -2.748 L-275.1 -0.7951 L-275.1 1.161 L-275.3 3.107 L-275.7 5.032 L-276.2 6.923 L-276.8 8.768 L-277.6 10.56 L-278.5 12.28 L-279.6 13.92 L-280.8 15.47 L-282.1 16.92 L-283.5 18.26 L-285.1 19.48 L-286.7 20.58 L-288.4 21.55 L-290.2 22.38 L-292 23.06 L-293.9 23.6 L-295.8 23.98 L-297.7 24.22 L-299.7 24.3 Z " />
<path stroke="rgb(0,0,0)" stroke-opacity="1" fill="rgb(255,255,255)" fill-opacity="1" d="M-695.2 -519.2 L-695.4 -518.2 L-695.5 -517.3 L-695.7 -516.3 L-695.8 -515.3 L-696 -514.4 L-696.1 -513.4 L-696.3 -512.4 L-696.4 -511.5 L-696.6 -510.5 L-696.7 -509.5 L-696.9 -508.6 L-697 -507.6 L-697.2 -506.6 L-697.3 -505.7 L-697.5 -504.7 L-697.6 -503.7 L-697.8 -502.8 L-697.9 -501.8 L-698.1 -500.8 L-698.2 -499.9 L-698.4 -498.9 L-698.5 -497.9 L-698.7 -496.9 L-698.8 -496 L-699 -495 L-700 -495.2 L-700.9 -495.3 L-701.9 -495.5 L-702.9 -495.6 L-703.8 -495.8 L-704.8 -495.9 L-705.8 -496.1 L-706.7 -496.2 L-707.7 -496.4 L-708.7 -496.5 L-709.6 -496.7 L-710.6 -496.8 L-711.6 -497 L-712.5 -497.1 L-713.5 -497.3 L-714.5 -497.4 L-715.4 -497.5 L-716.4 -497.7 L-717.4 -497.8 L-718.3 -498 L-719.3 -498.1 L-720.3 -498.3 L-721.3 -498.4 L-722.2 -498.6 L-723.2 -498.7 L-723 -499.7 L-722.9 -500.7 L-722.7 -501.6 L-722.6 -502.6 L-722.4 -503.6 L-722.3 -504.6 L-722.1 -505.5 L-722 -506.5 L-721.8 -507.5 L-721.7 -508.4 L-721.5 -509.4 L-721.4 -510.4 L-721.2 -511.3 L-721.1 -512.3 L-720.9 -513.3 L-720.8 -514.2 L-720.7 -515.2 L-720.5 -516.2 L-720.4 -517.1 L-720.2 -518.1 L-720.1 -519.1 L-719.9 -520 L-719.8 -521 L-719.6 -522 L-719.5 -523 L-718.5 -522.8 L-717.5 -522.7 L-716.6 -522.5 L-715.6 -522.4 L-714.6 -522.2 L-713.6 -522.1 L-712.7 -521.9 L-711.7 -521.8 L-710.7 -521.6 L-709.8 -521.5 L-708.8 -521.3 L-707.8 -521.2 L-706.9 -521 L-705.9 -520.9 L-704.9 -520.7 L-704 -520.6 L-703 -520.4 L-702 -520.3 L-701.1 -520.1 L-700.1 -520 L-699.1 -519.8 L-698.2 -519.7 L-697.2 -519.5 L-696.2 -519.4 L-695.2 -519.2 Z " />
<path stroke="rgb(0,0,0)" stroke-opacity="1" fill="rgb(255,255,255)" fill-opacity="1" d="M-99.68 24.3 L-101.6 24.22 L-103.6 23.99 L-105.5 23.6 L-107.4 23.06 L-109.2 22.38 L-111 21.55 L-112.7 20.58 L-114.3 19.48 L-115.8 18.26 L-117.3 16.92 L-118.6 15.47 L-119.8 13.92 L-120.8 12.28 L-121.8 10.56 L-122.6 8.77 L-123.2 6.925 L-123.7 5.034 L-124 3.109 L-124.2 1.163 L-124.3 -0.7931 L-124.2 -2.746 L-123.9 -4.683 L-123.5 -6.592 L-122.9 -8.462 L-122.2 -10.28 L-121.3 -12.04 L-120.3 -13.72 L-119.2 -15.31 L-117.9 -16.81 L-116.6 -18.21 L-115.1 -19.49 L-113.5 -20.66 L-111.8 -21.69 L-110.1 -22.59 L-108.3 -23.35 L-106.4 -23.96 L-104.5 -24.42 L-102.6 -24.73 L-100.7 -24.89 L-98.71 -24.89 L-96.76 -24.73 L-94.83 -24.42 L-92.93 -23.96 L-91.07 -23.35 L-89.26 -22.59 L-87.53 -21.69 L-85.87 -20.66 L-84.29 -19.5 L-82.82 -18.21 L-81.45 -16.82 L-80.19 -15.31 L-79.06 -13.72 L-78.06 -12.04 L-77.2 -10.28 L-76.48 -8.464 L-75.9 -6.594 L-75.48 -4.685 L-75.21 -2.748 L-75.09 -0.7951 L-75.13 1.161 L-75.32 3.107 L-75.67 5.032 L-76.17 6.923 L-76.82 8.768 L-77.61 10.56 L-78.54 12.28 L-79.61 13.92 L-80.8 15.47 L-82.12 16.92 L-83.54 18.26 L-85.07 19.48 L-86.68 20.58 L-88.39 21.55 L-90.16 22.38 L-91.99 23.06 L-93.87 23.6 L-95.79 23.98 L-97.73 24.22 L-99.68 24.3 Z " />
<path stroke="rgb(0,0,0)" stroke-opacity="1" fill="rgb(255,255,255)" fill-opacity="1" d="M-489.7 -513.9 L-489.7 -512.9 L-489.8 -512 L-489.8 -511 L-489.9 -510 L-489.9 -509 L-490 -508.1 L-490 -507.1 L-490.1 -506.1 L-490.1 -505.1 L-490.2 -504.1 L-490.2 -503.2 L-490.3 -502.2 L-490.3 -501.2 L-490.4 -500.2 L-490.4 -499.2 L-490.5 -498.3 L-490.5 -497.3 L-490.5 -496.3 L-490.6 -495.3 L-490.6 -494.4 L-490.7 -493.4 L-490.7 -492.4 L-490.8 -491.4 L-490.8 -490.4 L-490.9 -489.5 L-491.9 -489.5 L-492.8 -489.6 L-493.8 -489.6 L-494.8 -489.6 L-495.8 -489.7 L-496.7 -489.7 L-497.7 -489.8 L-498.7 -489.8 L-499.7 -489.9 L-500.7 -489.9 L-501.6 -490 L-502.6 -490 L-503.6 -490.1 L-504.6 -490.1 L-505.6 -490.2 L-506.5 -490.2 L-507.5 -490.3 L-508.5 -490.3 L-509.5 -490.4 L-510.5 -490.4 L-511.4 -490.4 L-512.4 -490.5 L-513.4 -490.5 L-514.4 -490.6 L-515.3 -490.6 L-515.3 -491.6 L-515.2 -492.6 L-515.2 -493.6 L-515.2 -494.5 L-515.1 -495.5 L-515.1 -496.5 L-515 -497.5 L-515 -498.5 L-514.9 -499.4 L-514.9 -500.4 L-514.8 -501.4 L-514.8 -502.4 L-514.7 -503.4 L-514.7 -504.3 L-514.6 -505.3 L-514.6 -506.3 L-514.5 -507.3 L-514.5 -508.3 L-514.4 -509.2 L-514.4 -510.2 L-514.4 -511.2 L-514.3 -512.2 L-514.3 -513.1 L-514.2 -514.1 L-514.2 -515.1 L-513.2 -515.1 L-512.2 -515 L-511.2 -515 L-510.3 -514.9 L-509.3 -514.9 L-508.3 -514.8 L-507.3 -514.8 L-506.3 -514.7 L-505.4 -514.7 L-504.4 -514.6 L-503.4 -514.6 L-502.4 -514.5 L-501.4 -514.5 L-500.5 -514.4 L-499.5 -514.4 L-498.5 -514.3 L-497.5 -514.3 L-496.5 -514.3 L-495.6 -514.2 L-494.6 -514.2 L-493.6 -514.1 L-492.6 -514.1 L-491.7 -514 L-490.7 -514 L-489.7 -513.9 Z " />
<path stroke="rgb(0,0,0)" stroke-opacity="1" fill="rgb(255,255,255)" fill-opacity="1" d="M100.8 24.61 L98.8 24.54 L96.85 24.32 L94.93 23.94 L93.05 23.41 L91.21 22.74 L89.44 21.92 L87.73 20.96 L86.11 19.87 L84.58 18.65 L83.15 17.32 L81.83 15.88 L80.63 14.33 L79.55 12.7 L78.61 10.98 L77.81 9.198 L77.15 7.356 L76.64 5.468 L76.28 3.545 L76.08 1.599 L76.03 -0.3564 L76.14 -2.31 L76.4 -4.248 L76.81 -6.16 L77.38 -8.032 L78.09 -9.854 L78.95 -11.61 L79.94 -13.3 L81.06 -14.9 L82.31 -16.41 L83.67 -17.81 L85.14 -19.1 L86.71 -20.27 L88.36 -21.31 L90.1 -22.22 L91.9 -22.99 L93.75 -23.61 L95.65 -24.08 L97.58 -24.4 L99.53 -24.57 L101.5 -24.58 L103.4 -24.43 L105.4 -24.13 L107.3 -23.68 L109.1 -23.07 L110.9 -22.33 L112.7 -21.44 L114.3 -20.41 L115.9 -19.26 L117.4 -17.98 L118.8 -16.59 L120 -15.1 L121.2 -13.5 L122.2 -11.83 L123.1 -10.08 L123.8 -8.264 L124.4 -6.397 L124.8 -4.49 L125.1 -2.554 L125.2 -0.6018 L125.2 1.354 L125 3.301 L124.7 5.228 L124.2 7.122 L123.5 8.97 L122.8 10.76 L121.8 12.49 L120.8 14.13 L119.6 15.69 L118.3 17.14 L116.9 18.49 L115.3 19.72 L113.7 20.83 L112 21.81 L110.3 22.64 L108.4 23.34 L106.6 23.88 L104.6 24.28 L102.7 24.52 L100.8 24.61 Z " />
<path stroke="rgb(0,0,0)" stroke-opacity="1" fill="rgb(255,255,255)" fill-opacity="1" d="M-288 -512.3 L-288.1 -511.3 L-288.1 -510.3 L-288.1 -509.4 L-288.1 -508.4 L-288.1 -507.4 L-288.1 -506.4 L-288.2 -505.4 L-288.2 -504.5 L-288.2 -503.5 L-288.2 -502.5 L-288.2 -501.5 L-288.2 -500.5 L-288.3 -499.6 L-288.3 -498.6 L-288.3 -497.6 L-288.3 -496.6 L-288.3 -495.6 L-288.3 -494.7 L-288.4 -493.7 L-288.4 -492.7 L-288.4 -491.7 L-288.4 -490.7 L-288.4 -489.8 L-288.4 -488.8 L-288.4 -487.8 L-289.4 -487.8 L-290.4 -487.8 L-291.4 -487.9 L-292.4 -487.9 L-293.3 -487.9 L-294.3 -487.9 L-295.3 -487.9 L-296.3 -487.9 L-297.3 -488 L-298.2 -488 L-299.2 -488 L-300.2 -488 L-301.2 -488 L-302.2 -488 L-303.1 -488 L-304.1 -488.1 L-305.1 -488.1 L-306.1 -488.1 L-307.1 -488.1 L-308 -488.1 L-309 -488.1 L-310 -488.2 L-311 -488.2 L-312 -488.2 L-312.9 -488.2 L-312.9 -489.2 L-312.9 -490.2 L-312.9 -491.1 L-312.9 -492.1 L-312.9 -493.1 L-312.8 -494.1 L-312.8 -495.1 L-312.8 -496 L-312.8 -497 L-312.8 -498 L-312.8 -499 L-312.8 -500 L-312.7 -500.9 L-312.7 -501.9 L-312.7 -502.9 L-312.7 -503.9 L-312.7 -504.9 L-312.7 -505.8 L-312.6 -506.8 L-312.6 -507.8 L-312.6 -508.8 L-312.6 -509.8 L-312.6 -510.7 L-312.6 -511.7 L-312.5 -512.7 L-311.6 -512.7 L-310.6 -512.7 L-309.6 -512.7 L-308.6 -512.6 L-307.6 -512.6 L-306.7 -512.6 L-305.7 -512.6 L-304.7 -512.6 L-303.7 -512.6 L-302.7 -512.5 L-301.8 -512.5 L-300.8 -512.5 L-299.8 -512.5 L-298.8 -512.5 L-297.8 -512.5 L-296.9 -512.4 L-295.9 -512.4 L-294.9 -512.4 L-293.9 -512.4 L-292.9 -512.4 L-292 -512.4 L-291 -512.3 L-290 -512.3 L-289 -512.3 L-288 -512.3 Z " />
<path stroke="rgb(0,0,0)" stroke-opacity="1" fill="rgb(255,255,255)" fill-opacity="1" d="M-399.7 124.3 L-401.6 124.2 L-403.6 124 L-405.5 123.6 L-407.4 123.1 L-409.2 122.4 L-411 121.5 L-412.7 120.6 L-414.3 119.5 L-415.8 118.3 L-417.3 116.9 L-418.6 115.5 L-419.8 113.9 L-420.8 112.3 L-421.8 110.6 L-422.6 108.8 L-423.2 106.9 L-423.7 105 L-424 103.1 L-424.2 101.2 L-424.3 99.21 L-424.2 97.25 L-423.9 95.32 L-423.5 93.41 L-422.9 91.54 L-422.2 89.72 L-421.3 87.96 L-420.3 86.28 L-419.2 84.69 L-417.9 83.19 L-416.6 81.79 L-415.1 80.51 L-413.5 79.34 L-411.8 78.31 L-410.1 77.41 L-408.3 76.65 L-406.4 76.04 L-404.5 75.58 L-402.6 75.27 L-400.7 75.11 L-398.7 75.11 L-396.8 75.27 L-394.8 75.58 L-392.9 76.04 L-391.1 76.65 L-389.3 77.41 L-387.5 78.31 L-385.9 79.34 L-384.3 80.5 L-382.8 81.79 L-381.4 83.18 L-380.2 84.69 L-379.1 86.28 L-378.1 87.96 L-377.2 89.72 L-376.5 91.54 L-375.9 93.41 L-375.5 95.32 L-375.2 97.25 L-375.1 99.2 L-375.1 101.2 L-375.3 103.1 L-375.7 105 L-376.2 106.9 L-376.8 108.8 L-377.6 110.6 L-378.5 112.3 L-379.6 113.9 L-380.8 115.5 L-382.1 116.9 L-383.5 118.3 L-385.1 119.5 L-386.7 120.6 L-388.4 121.5 L-390.2 122.4 L-392 123.1 L-393.9 123.6 L-395.8 124 L-397.7 124.2 L-399.7 124.3 Z " />
<path stroke="rgb(0,0,0)" stroke-opacity="1" fill="rgb(255,255,255)" fill-opacity="1" d="M-795.2 -419.2 L-795.4 -418.2 L-795.5 -417.3 L-795.7 -416.3 L-795.8 -415.3 L-796 -414.4 L-796.1 -413.4 L-796.3 -412.4 L-796.4 -411.5 L-796.6 -410.5 L-796.7 -409.5 L-796.9 -408.6 L-797 -407.6 L-797.2 -406.6 L-797.3 -405.7 L-797.5 -404.7 L-797.6 -403.7 L-797.8 -402.8 L-797.9 -401.8 L-798.1 -400.8 L-798.2 -399.9 L-798.4 -398.9 L-798.5 -397.9 L-798.7 -396.9 L-798.8 -396 L-799 -395 L-800 -395.2 L-800.9 -395.3 L-801.9 -395.5 L-802.9 -395.6 L-803.8 -395.8 L-804.8 -395.9 L-805.8 -396.1 L-806.7 -396.2 L-807.7 -396.4 L-808.7 -396.5 L-809.6 -396.7 L-810.6 -396.8 L-811.6 -397 L-812.5 -397.1 L-813.5 -397.3 L-814.5 -397.4 L-815.4 -397.5 L-816.4 -397.7 L-817.4 -397.8 L-818.3 -398 L-819.3 -398.1 L-820.3 -398.3 L-821.3 -398.4 L-822.2 -398.6 L-823.2 -398.7 L-823 -399.7 L-822.9 -400.7 L-822.7 -401.6 L-822.6 -402.6 L-822.4 -403.6 L-822.3 -404.6 L-822.1 -405.5 L-822 -406.5 L-821.8 -407.5 L-821.7 -408.4 L-821.5 -409.4 L-821.4 -410.4 L-821.2 -411.3 L-821.1 -412.3 L-820.9 -413.3 L-820.8 -414.2 L-820.7 -415.2 L-820.5 -416.2 L-820.4 -417.1 L-820.2 -418.1 L-820.1 -419.1 L-819.9 -420 L-819.8 -421 L-819.6 -422 L-819.5 -423 L-818.5 -422.8 L-817.5 -422.7 L-816.6 -422.5 L-815.6 -422.4 L-814.6 -422.2 L-813.6 -422.1 L-812.7 -421.9 L-811.7 -421.8 L-810.7 -421.6 L-809.8 -421.5 L-808.8 -421.3 L-807.8 -421.2 L-806.9 -421 L-805.9 -420.9 L-804.9 -420.7 L-804 -420.6 L-803 -420.4 L-802 -420.3 L-801.1 -420.1 L-800.1 -420 L-799.1 -419.8 L-798.2 -419.7 L-797.2 -419.5 L-796.2 -419.4 L-795.2 -419.2 Z " />
<path stroke="rgb(0,0,0)" stroke-opacity="1" fill="rgb(255,255,255)" fill-opacity="1" d="M-199.7 124.3 L-201.6 124.2 L-203.6 124 L-205.5 123.6 L-207.4 123.1 L-209.2 122.4 L-211 121.5 L-212.7 120.6 L-214.3 119.5 L-215.8 118.3 L-217.3 116.9 L-218.6 115.5 L-219.8 113.9 L-220.8 112.3 L-221.8 110.6 L-222.6 108.8 L-223.2 106.9 L-223.7 105 L-224 103.1 L-224.2 101.2 L-224.3 99.21 L-224.2 97.25 L-223.9 95.32 L-223.5 93.41 L-222.9 91.54 L-222.2 89.72 L-221.3 87.96 L-220.3 86.28 L-219.2 84.69 L-217.9 83.19 L-216.6 81.79 L-215.1 80.51 L-213.5 79.34 L-211.8 78.31 L-210.1 77.41 L-208.3 76.65 L-206.4 76.04 L-204.5 75.58 L-202.6 75.27 L-200.7 75.11 L-198.7 75.11 L-196.8 75.27 L-194.8 75.58 L-192.9 76.04 L-191.1 76.65 L-189.3 77.41 L-187.5 78.31 L-185.9 79.34 L-184.3 80.5 L-182.8 81.79 L-181.4 83.18 L-180.2 84.69 L-179.1 86.28 L-178.1 87.96 L-177.2 89.72 L-176.5 91.54 L-175.9 93.41 L-175.5 95.32 L-175.2 97.25 L-175.1 99.2 L-175.1 101.2 L-175.3 103.1 L-175.7 105 L-176.2 106.9 L-176.8 108.8 L-177.6 110.6 L-178.5 112.3 L-179.6 113.9 L-180.8 115.5 L-182.1 116.9 L-183.5 118.3 L-185.1 119.5 L-186.7 120.6 L-188.4 121.5 L-190.2 122.4 L-192 123.1 L-193.9 123.6 L-195.8 124 L-197.7 124.2 L-199.7 124.3 Z " />
<path stroke="rgb(0,0,0)" stroke-opacity="1" fill="rgb(255,255,255)" fill-opacity="1" d="M-589.7 -413.9 L-589.7 -412.9 L-589.8 -412 L-589.8 -411 L-589.9 -410 L-589.9 -409 L-590 -408.1 L-590 -407.1 L-590.1 -406.1 L-590.1 -405.1 L-590.2 -404.1 L-590.2 -403.2 L-590.3 -402.2 L-590.3 -401.2 L-590.4 -400.2 L-590.4 -399.2 L-590.5 -398.3 L-590.5 -397.3 L-590.5 -396.3 L-590.6 -395.3 L-590.6 -394.4 L-590.7 -393.4 L-590.7 -392.4 L-590.8 -391.4 L-590.8 -390.4 L-590.9 -389.5 L-591.9 -389.5 L-592.8 -389.6 L-593.8 -389.6 L-594.8 -389.6 L-595.8 -389.7 L-596.7 -389.7 L-597.7 -389.8 L-598.7 -389.8 L-599.7 -389.9 L-600.7 -389.9 L-601.6 -390 L-602.6 -390 L-603.6 -390.1 L-604.6 -390.1 L-605.6 -390.2 L-606.5 -390.2 L-607.5 -390.3 L-608.5 -390.3 L-609.5 -390.4 L-610.5 -390.4 L-611.4 -390.4 L-612.4 -390.5 L-613.4 -390.5 L-614.4 -390.6 L-615.3 -390.6 L-615.3 -391.6 L-615.2 -392.6 L-615.2 -393.6 L-615.2 -394.5 L-615.1 -395.5 L-615.1 -396.5 L-615 -397.5 L-615 -398.5 L-614.9 -399.4 L-614.9 -400.4 L-614.8 -401.4 L-614.8 -402.4 L-614.7 -403.4 L-614.7 -404.3 L-614.6 -405.3 L-614.6 -406.3 L-614.5 -407.3 L-614.5 -408.3 L-614.4 -409.2 L-614.4 -410.2 L-614.4 -411.2 L-614.3 -412.2 L-614.3 -413.1 L-614.2 -414.1 L-614.2 -415.1 L-613.2 -415.1 L-612.2 -415 L-611.2 -415 L-610.3 -414.9 L-609.3 -414.9 L-608.3 -414.8 L-607.3 -414.8 L-606.3 -414.7 L-605.4 -414.7 L-604.4 -414.6 L-603.4 -414.6 L-602.4 -414.5 L-601.4 -414.5 L-600.5 -414.4 L-599.5 -414.4 L-598.5 -414.3 L-597.5 -414.3 L-596.5 -414.3 L-595.6 -414.2 L-594.6 -414.2 L-593.6 -414.1 L-592.6 -414.1 L-591.7 -414 L-590.7 -414 L-589.7 -413.9 Z " />
<path stroke="rgb(0,0,0)" stroke-opacity="1" fill="rgb(255,255,255)" fill-opacity="1" d="M0.7512 124.6 L-1.204 124.5 L-3.147 124.3 L-5.066 123.9 L-6.95 123.4 L-8.785 122.7 L-10.56 121.9 L-12.27 121 L-13.89 119.9 L-15.42 118.7 L-16.85 117.3 L-18.17 115.9 L-19.37 114.3 L-20.45 112.7 L-21.39 111 L-22.19 109.2 L-22.85 107.4 L-23.36 105.5 L-23.72 103.5 L-23.92 101.6 L-23.97 99.64 L-23.86 97.69 L-23.6 95.75 L-23.19 93.84 L-22.62 91.97 L-21.91 90.15 L-21.05 88.39 L-20.06 86.7 L-18.94 85.1 L-17.69 83.59 L-16.33 82.19 L-14.86 80.9 L-13.29 79.73 L-11.64 78.69 L-9.904 77.78 L-8.104 77.01 L-6.249 76.39 L-4.351 75.92 L-2.421 75.6 L-0.4721 75.43 L1.484 75.42 L3.435 75.57 L5.367 75.87 L7.27 76.32 L9.131 76.93 L10.94 77.67 L12.68 78.56 L14.35 79.59 L15.93 80.74 L17.41 82.02 L18.78 83.41 L20.05 84.9 L21.18 86.5 L22.19 88.17 L23.07 89.92 L23.8 91.74 L24.38 93.6 L24.81 95.51 L25.1 97.45 L25.22 99.4 L25.19 101.4 L25.01 103.3 L24.67 105.2 L24.18 107.1 L23.54 109 L22.76 110.8 L21.83 112.5 L20.77 114.1 L19.59 115.7 L18.28 117.1 L16.86 118.5 L15.34 119.7 L13.73 120.8 L12.04 121.8 L10.27 122.6 L8.44 123.3 L6.562 123.9 L4.646 124.3 L2.705 124.5 L0.7512 124.6 Z " />
<path stroke="rgb(0,0,0)" stroke-opacity="1" fill="rgb(255,255,255)" fill-opacity="1" d="M-388 -412.3 L-388.1 -411.3 L-388.1 -410.3 L-388.1 -409.4 L-388.1 -408.4 L-388.1 -407.4 L-388.1 -406.4 L-388.2 -405.4 L-388.2 -404.5 L-388.2 -403.5 L-388.2 -402.5 L-388.2 -401.5 L-388.2 -400.5 L-388.3 -399.6 L-388.3 -398.6 L-388.3 -397.6 L-388.3 -396.6 L-388.3 -395.6 L-388.3 -394.7 L-388.4 -393.7 L-388.4 -392.7 L-388.4 -391.7 L-388.4 -390.7 L-388.4 -389.8 L-388.4 -388.8 L-388.4 -387.8 L-389.4 -387.8 L-390.4 -387.8 L-391.4 -387.9 L-392.4 -387.9 L-393.3 -387.9 L-394.3 -387.9 L-395.3 -387.9 L-396.3 -387.9 L-397.3 -388 L-398.2 -388 L-399.2 -388 L-400.2 -388 L-401.2 -388 L-402.2 -388 L-403.1 -388 L-404.1 -388.1 L-405.1 -388.1 L-406.1 -388.1 L-407.1 -388.1 L-408 -388.1 L-409 -388.1 L-410 -388.2 L-411 -388.2 L-412 -388.2 L-412.9 -388.2 L-412.9 -389.2 L-412.9 -390.2 L-412.9 -391.1 L-412.9 -392.1 L-412.9 -393.1 L-412.8 -394.1 L-412.8 -395.1 L-412.8 -396 L-412.8 -397 L-412.8 -398 L-412.8 -399 L-412.8 -400 L-412.7 -400.9 L-412.7 -401.9 L-412.7 -402.9 L-412.7 -403.9 L-412.7 -404.9 L-412.7 -405.8 L-412.6 -406.8 L-412.6 -407.8 L-412.6 -408.8 L-412.6 -409.8 L-412.6 -410.7 L-412.6 -411.7 L-412.5 -412.7 L-411.6 -412.7 L-410.6 -412.7 L-409.6 -412.7 L-408.6 -412.6 L-407.6 -412.6 L-406.7 -412.6 L-405.7 -412.6 L-404.7 -412.6 L-403.7 -412.6 L-402.7 -412.5 L-401.8 -412.5 L-400.8 -412.5 L-399.8 -412.5 L-398.8 -412.5 L-397.8 -412.5 L-396.9 -412.4 L-395.9 -412.4 L-394.9 -412.4 L-393.9 -412.4 L-392.9 -412.4 L-392 -412.4 L-391 -412.3 L-390 -412.3 L-389 -412.3 L-388 -412.3 Z " />
<path stroke="rgb(0,0,0)" stroke-opacity="1" fill="rgb(255,255,255)" fill-opacity="1" d="M205 127.6 L203 127.7 L201.1 127.5 L199.1 127.3 L197.2 126.8 L195.4 126.2 L193.6 125.5 L191.8 124.6 L190.1 123.6 L188.5 122.5 L187 121.2 L185.7 119.8 L184.4 118.3 L183.2 116.8 L182.2 115.1 L181.3 113.3 L180.6 111.5 L180 109.7 L179.5 107.8 L179.2 105.8 L179.1 103.9 L179.1 101.9 L179.3 99.99 L179.6 98.06 L180.1 96.16 L180.7 94.31 L181.5 92.51 L182.4 90.78 L183.4 89.12 L184.6 87.56 L185.9 86.09 L187.3 84.73 L188.8 83.48 L190.4 82.36 L192.1 81.37 L193.8 80.52 L195.7 79.81 L197.5 79.25 L199.5 78.84 L201.4 78.58 L203.3 78.47 L205.3 78.53 L207.2 78.73 L209.2 79.09 L211.1 79.61 L212.9 80.27 L214.7 81.07 L216.4 82.02 L218 83.09 L219.6 84.3 L221 85.62 L222.3 87.05 L223.6 88.59 L224.6 90.21 L225.6 91.92 L226.4 93.7 L227.1 95.53 L227.6 97.42 L228 99.34 L228.2 101.3 L228.3 103.2 L228.2 105.2 L227.9 107.1 L227.5 109 L227 110.9 L226.3 112.7 L225.5 114.5 L224.5 116.2 L223.4 117.8 L222.1 119.3 L220.8 120.8 L219.3 122.1 L217.8 123.2 L216.1 124.3 L214.4 125.2 L212.6 126 L210.8 126.6 L208.9 127.1 L206.9 127.5 L205 127.6 Z " />
<path stroke="rgb(0,0,0)" stroke-opacity="1" fill="rgb(255,255,255)" fill-opacity="1" d="M-895.2 -319.2 L-895.4 -318.2 L-895.5 -317.3 L-895.7 -316.3 L-895.8 -315.3 L-896 -314.4 L-896.1 -313.4 L-896.3 -312.4 L-896.4 -311.5 L-896.6 -310.5 L-896.7 -309.5 L-896.9 -308.6 L-897 -307.6 L-897.2 -306.6 L-897.3 -305.7 L-897.5 -304.7 L-897.6 -303.7 L-897.8 -302.8 L-897.9 -301.8 L-898.1 -300.8 L-898.2 -299.9 L-898.4 -298.9 L-898.5 -297.9 L-898.7 -296.9 L-898.8 -296 L-899 -295 L-900 -295.2 L-900.9 -295.3 L-901.9 -295.5 L-902.9 -295.6 L-903.8 -295.8 L-904.8 -295.9 L-905.8 -296.1 L-906.7 -296.2 L-907.7 -296.4 L-908.7 -296.5 L-909.6 -296.7 L-910.6 -296.8 L-911.6 -297 L-912.5 -297.1 L-913.5 -297.3 L-914.5 -297.4 L-915.4 -297.5 L-916.4 -297.7 L-917.4 -297.8 L-918.3 -298 L-919.3 -298.1 L-920.3 -298.3 L-921.3 -298.4 L-922.2 -298.6 L-923.2 -298.7 L-923 -299.7 L-922.9 -300.7 L-922.7 -301.6 L-922.6 -302.6 L-922.4 -303.6 L-922.3 -304.6 L-922.1 -305.5 L-922 -306.5 L-921.8 -307.5 L-921.7 -308.4 L-921.5 -309.4 L-921.4 -310.4 L-921.2 -311.3 L-921.1 -312.3 L-920.9 -313.3 L-920.8 -314.2 L-920.7 -315.2 L-920.5 -316.2 L-920.4 -317.1 L-920.2 -318.1 L-920.1 -319.1 L-919.9 -320 L-919.8 -321 L-919.6 -322 L-919.5 -323 L-918.5 -322.8 L-917.5 -322.7 L-916.6 -322.5 L-915.6 -322.4 L-914.6 -322.2 L-913.6 -322.1 L-912.7 -321.9 L-911.7 -321.8 L-910.7 -321.6 L-909.8 -321.5 L-908.8 -321.3 L-907.8 -321.2 L-906.9 -321 L-905.9 -320.9 L-904.9 -320.7 L-904 -320.6 L-903 -320.4 L-902 -320.3 L-901.1 -320.1 L-900.1 -320 L-899.1 -319.8 L-898.2 -319.7 L-897.2 -319.5 L-896.2 -319.4 L-895.2 -319.2 Z " />
<path stroke="rgb(0,0,0)" stroke-opacity="1" fill="rgb(255,255,255)" fill-opacity="1" d="M-299.7 224.3 L-301.6 224.2 L-303.6 224 L-305.5 223.6 L-307.4 223.1 L-309.2 222.4 L-311 221.5 L-312.7 220.6 L-314.3 219.5 L-315.8 218.3 L-317.3 216.9 L-318.6 215.5 L-319.8 213.9 L-320.8 212.3 L-321.8 210.6 L-322.6 208.8 L-323.2 206.9 L-323.7 205 L-324 203.1 L-324.2 201.2 L-324.3 199.2 L-324.2 197.3 L-323.9 195.3 L-323.5 193.4 L-322.9 191.5 L-322.2 189.7 L-321.3 188 L-320.3 186.3 L-319.2 184.7 L-317.9 183.2 L-316.6 181.8 L-315.1 180.5 L-313.5 179.3 L-311.8 178.3 L-310.1 177.4 L-308.3 176.7 L-306.4 176 L-304.5 175.6 L-302.6 175.3 L-300.7 175.1 L-298.7 175.1 L-296.8 175.3 L-294.8 175.6 L-292.9 176 L-291.1 176.7 L-289.3 177.4 L-287.5 178.3 L-285.9 179.3 L-284.3 180.5 L-282.8 181.8 L-281.4 183.2 L-280.2 184.7 L-279.1 186.3 L-278.1 188 L-277.2 189.7 L-276.5 191.5 L-275.9 193.4 L-275.5 195.3 L-275.2 197.3 L-275.1 199.2 L-275.1 201.2 L-275.3 203.1 L-275.7 205 L-276.2 206.9 L-276.8 208.8 L-277.6 210.6 L-278.5 212.3 L-279.6 213.9 L-280.8 215.5 L-282.1 216.9 L-283.5 218.3 L-285.1 219.5 L-286.7 220.6 L-288.4 221.5 L-290.2 222.4 L-292 223.1 L-293.9 223.6 L-295.8 224 L-297.7 224.2 L-299.7 224.3 Z " />
<path stroke="rgb(0,0,0)" stroke-opacity="1" fill="rgb(255,255,255)" fill-opacity="1" d="M-689.7 -313.9 L-689.7 -312.9 L-689.8 -312 L-689.8 -311 L-689.9 -310 L-689.9 -309 L-690 -308.1 L-690 -307.1 L-690.1 -306.1 L-690.1 -305.1 L-690.2 -304.1 L-690.2 -303.2 L-690.3 -302.2 L-690.3 -301.2 L-690.4 -300.2 L-690.4 -299.2 L-690.5 -298.3 L-690.5 -297.3 L-690.5 -296.3 L-690.6 -295.3 L-690.6 -294.4 L-690.7 -293.4 L-690.7 -292.4 L-690.8 -291.4 L-690.8 -290.4 L-690.9 -289.5 L-691.9 -289.5 L-692.8 -289.6 L-693.8 -289.6 L-694.8 -289.6 L-695.8 -289.7 L-696.7 -289.7 L-697.7 -289.8 L-698.7 -289.8 L-699.7 -289.9 L-700.7 -289.9 L-701.6 -290 L-702.6 -290 L-703.6 -290.1 L-704.6 -290.1 L-705.6 -290.2 L-706.5 -290.2 L-707.5 -290.3 L-708.5 -290.3 L-709.5 -290.4 L-710.5 -290.4 L-711.4 -290.4 L-712.4 -290.5 L-713.4 -290.5 L-714.4 -290.6 L-715.3 -290.6 L-715.3 -291.6 L-715.2 -292.6 L-715.2 -293.6 L-715.2 -294.5 L-715.1 -295.5 L-715.1 -296.5 L-715 -297.5 L-715 -298.5 L-714.9 -299.4 L-714.9 -300.4 L-714.8 -301.4 L-714.8 -302.4 L-714.7 -303.4 L-714.7 -304.3 L-714.6 -305.3 L-714.6 -306.3 L-714.5 -307.3 L-714.5 -308.3 L-714.4 -309.2 L-714.4 -310.2 L-714.4 -311.2 L-714.3 -312.2 L-714.3 -313.1 L-714.2 -314.1 L-714.2 -315.1 L-713.2 -315.1 L-712.2 -315 L-711.2 -315 L-710.3 -314.9 L-709.3 -314.9 L-708.3 -314.8 L-707.3 -314.8 L-706.3 -314.7 L-705.4 -314.7 L-704.4 -314.6 L-703.4 -314.6 L-702.4 -314.5 L-701.4 -314.5 L-700.5 -314.4 L-699.5 -314.4 L-698.5 -314.3 L-697.5 -314.3 L-696.5 -314.3 L-695.6 -314.2 L-694.6 -314.2 L-693.6 -314.1 L-692.6 -314.1 L-691.7 -314 L-690.7 -314 L-689.7 -313.9 Z " />
<path stroke="rgb(0,0,0)" stroke-opacity="1" fill="rgb(255,255,255)" fill-opacity="1" d="M-99.25 224.6 L-101.2 224.5 L-103.1 224.3 L-105.1 223.9 L-106.9 223.4 L-108.8 222.7 L-110.6 221.9 L-112.3 221 L-113.9 219.9 L-115.4 218.7 L-116.9 217.3 L-118.2 215.9 L-119.4 214.3 L-120.4 212.7 L-121.4 211 L-122.2 209.2 L-122.8 207.4 L-123.4 205.5 L-123.7 203.5 L-123.9 201.6 L-124 199.6 L-123.9 197.7 L-123.6 195.8 L-123.2 193.8 L-122.6 192 L-121.9 190.1 L-121.1 188.4 L-120.1 186.7 L-118.9 185.1 L-117.7 183.6 L-116.3 182.2 L-114.9 180.9 L-113.3 179.7 L-111.6 178.7 L-109.9 177.8 L-108.1 177 L-106.2 176.4 L-104.4 175.9 L-102.4 175.6 L-100.5 175.4 L-98.52 175.4 L-96.57 175.6 L-94.63 175.9 L-92.73 176.3 L-90.87 176.9 L-89.06 177.7 L-87.32 178.6 L-85.65 179.6 L-84.07 180.7 L-82.59 182 L-81.22 183.4 L-79.95 184.9 L-78.82 186.5 L-77.81 188.2 L-76.93 189.9 L-76.2 191.7 L-75.62 193.6 L-75.19 195.5 L-74.9 197.4 L-74.78 199.4 L-74.81 201.4 L-74.99 203.3 L-75.33 205.2 L-75.82 207.1 L-76.46 209 L-77.24 210.8 L-78.17 212.5 L-79.23 214.1 L-80.41 215.7 L-81.72 217.1 L-83.14 218.5 L-84.66 219.7 L-86.27 220.8 L-87.96 221.8 L-89.73 222.6 L-91.56 223.3 L-93.44 223.9 L-95.35 224.3 L-97.29 224.5 L-99.25 224.6 Z " />
<path stroke="rgb(0,0,0)" stroke-opacity="1" fill="rgb(255,255,255)" fill-opacity="1" d="M-488 -312.3 L-488.1 -311.3 L-488.1 -310.3 L-488.1 -309.4 L-488.1 -308.4 L-488.1 -307.4 L-488.1 -306.4 L-488.2 -305.4 L-488.2 -304.5 L-488.2 -303.5 L-488.2 -302.5 L-488.2 -301.5 L-488.2 -300.5 L-488.3 -299.6 L-488.3 -298.6 L-488.3 -297.6 L-488.3 -296.6 L-488.3 -295.6 L-488.3 -294.7 L-488.4 -293.7 L-488.4 -292.7 L-488.4 -291.7 L-488.4 -290.7 L-488.4 -289.8 L-488.4 -288.8 L-488.4 -287.8 L-489.4 -287.8 L-490.4 -287.8 L-491.4 -287.9 L-492.4 -287.9 L-493.3 -287.9 L-494.3 -287.9 L-495.3 -287.9 L-496.3 -287.9 L-497.3 -288 L-498.2 -288 L-499.2 -288 L-500.2 -288 L-501.2 -288 L-502.2 -288 L-503.1 -288 L-504.1 -288.1 L-505.1 -288.1 L-506.1 -288.1 L-507.1 -288.1 L-508 -288.1 L-509 -288.1 L-510 -288.2 L-511 -288.2 L-512 -288.2 L-512.9 -288.2 L-512.9 -289.2 L-512.9 -290.2 L-512.9 -291.1 L-512.9 -292.1 L-512.9 -293.1 L-512.8 -294.1 L-512.8 -295.1 L-512.8 -296 L-512.8 -297 L-512.8 -298 L-512.8 -299 L-512.8 -300 L-512.7 -300.9 L-512.7 -301.9 L-512.7 -302.9 L-512.7 -303.9 L-512.7 -304.9 L-512.7 -305.8 L-512.6 -306.8 L-512.6 -307.8 L-512.6 -308.8 L-512.6 -309.8 L-512.6 -310.7 L-512.6 -311.7 L-512.5 -312.7 L-511.6 -312.7 L-510.6 -312.7 L-509.6 -312.7 L-508.6 -312.6 L-507.6 -312.6 L-506.7 -312.6 L-505.7 -312.6 L-504.7 -312.6 L-503.7 -312.6 L-502.7 -312.5 L-501.8 -312.5 L-500.8 -312.5 L-499.8 -312.5 L-498.8 -312.5 L-497.8 -312.5 L-496.9 -312.4 L-495.9 -312.4 L-494.9 -312.4 L-493.9 -312.4 L-492.9 -312.4 L-492 -312.4 L-491 -312.3 L-490 -312.3 L-489 -312.3 L-488 -312.3 Z " />
<path stroke="rgb(0,0,0)" stroke-opacity="1" fill="rgb(255,255,255)" fill-opacity="1" d="M105 227.6 L103 227.7 L101.1 227.5 L99.14 227.3 L97.23 226.8 L95.37 226.2 L93.55 225.5 L91.8 224.6 L90.13 223.6 L88.54 222.5 L87.05 221.2 L85.66 219.8 L84.39 218.3 L83.23 216.8 L82.21 215.1 L81.32 213.3 L80.58 211.5 L79.98 209.7 L79.53 207.8 L79.23 205.8 L79.09 203.9 L79.1 201.9 L79.27 200 L79.59 198.1 L80.07 196.2 L80.69 194.3 L81.46 192.5 L82.37 190.8 L83.42 189.1 L84.59 187.6 L85.88 186.1 L87.29 184.7 L88.8 183.5 L90.4 182.4 L92.09 181.4 L93.85 180.5 L95.67 179.8 L97.54 179.2 L99.46 178.8 L101.4 178.6 L103.3 178.5 L105.3 178.5 L107.2 178.7 L109.2 179.1 L111.1 179.6 L112.9 180.3 L114.7 181.1 L116.4 182 L118 183.1 L119.6 184.3 L121 185.6 L122.3 187.1 L123.6 188.6 L124.6 190.2 L125.6 191.9 L126.4 193.7 L127.1 195.5 L127.6 197.4 L128 199.3 L128.2 201.3 L128.3 203.2 L128.2 205.2 L127.9 207.1 L127.5 209 L127 210.9 L126.3 212.7 L125.5 214.5 L124.5 216.2 L123.4 217.8 L122.1 219.3 L120.8 220.8 L119.3 222.1 L117.8 223.2 L116.1 224.3 L114.4 225.2 L112.6 226 L110.8 226.6 L108.9 227.1 L106.9 227.5 L105 227.6 Z " />
<path stroke="rgb(0,0,0)" stroke-opacity="1" fill="rgb(255,255,255)" fill-opacity="1" d="M-287.9 -312.2 L-288 -311.2 L-288 -310.2 L-288 -309.2 L-288 -308.3 L-288 -307.3 L-288 -306.3 L-288 -305.3 L-288 -304.4 L-288.1 -303.4 L-288.1 -302.4 L-288.1 -301.4 L-288.1 -300.4 L-288.1 -299.5 L-288.1 -298.5 L-288.1 -297.5 L-288.2 -296.5 L-288.2 -295.5 L-288.2 -294.6 L-288.2 -293.6 L-288.2 -292.6 L-288.2 -291.6 L-288.2 -290.6 L-288.3 -289.7 L-288.3 -288.7 L-288.3 -287.7 L-289.3 -287.7 L-290.2 -287.7 L-291.2 -287.7 L-292.2 -287.8 L-293.2 -287.8 L-294.2 -287.8 L-295.1 -287.8 L-296.1 -287.8 L-297.1 -287.8 L-298.1 -287.8 L-299.1 -287.8 L-300 -287.9 L-301 -287.9 L-302 -287.9 L-303 -287.9 L-304 -287.9 L-304.9 -287.9 L-305.9 -287.9 L-306.9 -288 L-307.9 -288 L-308.9 -288 L-309.8 -288 L-310.8 -288 L-311.8 -288 L-312.8 -288 L-312.8 -289 L-312.7 -290 L-312.7 -291 L-312.7 -292 L-312.7 -292.9 L-312.7 -293.9 L-312.7 -294.9 L-312.7 -295.9 L-312.7 -296.9 L-312.6 -297.8 L-312.6 -298.8 L-312.6 -299.8 L-312.6 -300.8 L-312.6 -301.8 L-312.6 -302.7 L-312.6 -303.7 L-312.5 -304.7 L-312.5 -305.7 L-312.5 -306.7 L-312.5 -307.6 L-312.5 -308.6 L-312.5 -309.6 L-312.5 -310.6 L-312.4 -311.6 L-312.4 -312.5 L-311.5 -312.5 L-310.5 -312.5 L-309.5 -312.5 L-308.5 -312.5 L-307.5 -312.5 L-306.6 -312.5 L-305.6 -312.4 L-304.6 -312.4 L-303.6 -312.4 L-302.6 -312.4 L-301.7 -312.4 L-300.7 -312.4 L-299.7 -312.4 L-298.7 -312.3 L-297.7 -312.3 L-296.8 -312.3 L-295.8 -312.3 L-294.8 -312.3 L-293.8 -312.3 L-292.8 -312.3 L-291.9 -312.2 L-290.9 -312.2 L-289.9 -312.2 L-288.9 -312.2 L-287.9 -312.2 Z " />
</g>
</g>
</svg>
