<!DOCTYPE svg>
<svg xmlns="http://www.w3.org/2000/svg" xmlns:xlink="http://www.w3.org/1999/xlink" width="1000" height="1000">
<g transform="translate(500.000000,500.000000)">
<g transform="scale(3.000000,3.000000)">
<path stroke="rgb(0,0,0)" stroke-opacity="1" fill="rgb(255,255,255)" fill-opacity="1" d="M-412.6 -412.6 L-411.6 -412.6 L-410.6 -412.6 L-409.6 -412.6 L-408.6 -412.6 L-407.6 -412.6 L-406.6 -412.6 L-405.6 -412.6 L-404.6 -412.6 L-403.6 -412.6 L-402.6 -412.6 L-401.6 -412.6 L-400.6 -412.6 L-399.6 -412.6 L-398.6 -412.6 L-397.6 -412.6 L-396.6 -412.6 L-395.6 -412.6 L-394.6 -412.6 L-393.6 -412.6 L-392.6 -412.6 L-391.6 -412.6 L-390.6 -412.6 L-389.6 -412.6 L-388.6 -412.6 L-387.6 -412.6 L-387.6 -411.6 L-387.6 -410.6 L-387.6 -409.6 L-387.6 -408.6 L-387.6 -407.6 L-387.6 -406.6 L-387.6 -405.6 L-387.6 -404.6 L-387.6 -403.6 L-387.6 -402.6 L-387.6 -401.6 L-387.6 -400.6 L-387.6 -399.6 L-387.7 -398.6 L-387.7 -397.6 L-387.7 -396.6 L-387.7 -395.6 L-387.7 -394.6 L-387.7 -393.6 L-387.7 -392.6 L-387.7 -391.6 L-387.7 -390.6 L-387.7 -389.6 L-387.7 -388.6 L-387.7 -387.6 L-388.7 -387.6 L-389.7 -387.6 L-390.7 -387.6 L-391.7 -387.6 L-392.7 -387.6 L-393.7 -387.6 L-394.6 -387.6 L-395.6 -387.6 L-396.6 -387.6 L-397.6 -387.6 L-398.6 -387.6 L-399.6 -387.6 L-400.6 -387.6 L-401.6 -387.7 L-402.6 -387.7 L-403.6 -387.7 L-404.6 -387.7 L-405.6 -387.7 L-406.6 -387.7 L-407.6 -387.7 L-408.6 -387.7 L-409.6 -387.7 L-410.6 -387.7 L-411.6 -387.7 L-412.6 -387.7 L-412.6 -388.7 L-412.6 -389.7 L-412.6 -390.7 L-412.6 -391.7 L-412.6 -392.7 L-412.6 -393.7 L-412.6 -394.6 L-412.6 -395.6 L-412.6 -396.6 L-412.6 -397.6 L-412.6 -398.6 L-412.6 -399.6 L-412.6 -400.6 L-412.6 -401.6 L-412.6 -402.6 L-412.6 -403.6 L-412.6 -404.6 L-412.6 -405.6 L-412.6 -406.6 L-412.6 -407.6 L-412.6 -408.6 L-412.6 -409.6 L-412.6 -410.6 L-412.6 -411.6 L-412.6 -412.6 Z " />
<path stroke="rgb(0,0,0)" stroke-opacity="1" fill="rgb(255,255,255)" fill-opacity="1" d="M-175 -299.9 L-175.1 -298 L-175.4 -296 L-175.8 -294.1 L-176.3 -292.1 L-177 -290.3 L-177.9 -288.5 L-178.8 -286.8 L-180 -285.1 L-181.2 -283.6 L-182.6 -282.1 L-184 -280.8 L-185.6 -279.6 L-187.3 -278.5 L-189 -277.6 L-190.8 -276.8 L-192.7 -276.1 L-194.6 -275.6 L-196.6 -275.3 L-198.6 -275.1 L-200.5 -275.1 L-202.5 -275.2 L-204.5 -275.5 L-206.4 -275.9 L-208.3 -276.5 L-210.2 -277.2 L-211.9 -278.1 L-213.6 -279.1 L-215.3 -280.3 L-216.8 -281.5 L-218.2 -282.9 L-219.5 -284.4 L-220.7 -286 L-221.7 -287.7 L-222.6 -289.5 L-223.4 -291.3 L-224 -293.2 L-224.5 -295.1 L-224.8 -297.1 L-224.9 -299.1 L-224.9 -301 L-224.8 -303 L-224.4 -305 L-224 -306.9 L-223.3 -308.8 L-222.6 -310.6 L-221.7 -312.4 L-220.6 -314.1 L-219.4 -315.7 L-218.1 -317.1 L-216.7 -318.5 L-215.2 -319.8 L-213.6 -320.9 L-211.8 -322 L-210.1 -322.8 L-208.2 -323.6 L-206.3 -324.1 L-204.4 -324.6 L-202.4 -324.8 L-200.4 -324.9 L-198.5 -324.9 L-196.5 -324.7 L-194.5 -324.3 L-192.6 -323.8 L-190.7 -323.2 L-188.9 -322.4 L-187.2 -321.4 L-185.5 -320.3 L-184 -319.1 L-182.5 -317.8 L-181.1 -316.3 L-179.9 -314.8 L-178.8 -313.1 L-177.8 -311.4 L-177 -309.6 L-176.3 -307.8 L-175.7 -305.8 L-175.4 -303.9 L-175.1 -301.9 L-175 -299.9 Z " />
<path stroke="rgb(0,0,0)" stroke-opacity="1" fill="rgb(255,255,255)" fill-opacity="1" d="M-212.6 -412.6 L-211.6 -412.6 L-210.6 -412.6 L-209.6 -412.6 L-208.6 -412.6 L-207.6 -412.6 L-206.6 -412.6 L-205.6 -412.6 L-204.6 -412.6 L-203.6 -412.6 L-202.6 -412.6 L-201.6 -412.6 L-200.6 -412.6 L-199.6 -412.6 L-198.6 -412.6 L-197.6 -412.6 L-196.6 -412.6 L-195.6 -412.6 L-194.6 -412.6 L-193.6 -412.6 L-192.6 -412.6 L-191.6 -412.6 L-190.6 -412.6 L-189.6 -412.6 L-188.6 -412.6 L-187.6 -412.6 L-187.6 -411.6 L-187.6 -410.6 L-187.6 -409.6 L-187.6 -408.6 L-187.6 -407.6 L-187.6 -406.6 L-187.6 -405.6 L-187.6 -404.6 L-187.6 -403.6 L-187.6 -402.6 L-187.6 -401.6 L-187.6 -400.6 L-187.6 -399.6 L-187.7 -398.6 L-187.7 -397.6 L-187.7 -396.6 L-187.7 -395.6 L-187.7 -394.6 L-187.7 -393.6 L-187.7 -392.6 L-187.7 -391.6 L-187.7 -390.6 L-187.7 -389.6 L-187.7 -388.6 L-187.7 -387.6 L-188.7 -387.6 L-189.7 -387.6 L-190.7 -387.6 L-191.7 -387.6 L-192.7 -387.6 L-193.7 -387.6 L-194.6 -387.6 L-195.6 -387.6 L-196.6 -387.6 L-197.6 -387.6 L-198.6 -387.6 L-199.6 -387.6 L-200.6 -387.6 L-201.6 -387.7 L-202.6 -387.7 L-203.6 -387.7 L-204.6 -387.7 L-205.6 -387.7 L-206.6 -387.7 L-207.6 -387.7 L-208.6 -387.7 L-209.6 -387.7 L-210.6 -387.7 L-211.6 -387.7 L-212.6 -387.7 L-212.6 -388.7 L-212.6 -389.7 L-212.6 -390.7 L-212.6 -391.7 L-212.6 -392.7 L-212.6 -393.7 L-212.6 -394.6 L-212.6 -395.6 L-212.6 -396.6 L-212.6 -397.6 L-212.6 -398.6 L-212.6 -399.6 L-212.6 -400.6 L-212.6 -401.6 L-212.6 -402.6 L-212.6 -403.6 L-212.6 -404.6 L-212.6 -405.6 L-212.6 -406.6 L-212.6 -407.6 L-212.6 -408.6 L-212.6 -409.6 L-212.6 -410.6 L-212.6 -411.6 L-212.6 -412.6 Z " />
<path stroke="rgb(0,0,0)" stroke-opacity="1" fill="rgb(255,255,255)" fill-opacity="1" d="M24.31 -301.3 L24.34 -299.4 L24.21 -297.4 L23.93 -295.5 L23.5 -293.6 L22.93 -291.8 L22.2 -290 L21.34 -288.3 L20.34 -286.6 L19.21 -285 L17.96 -283.6 L16.6 -282.2 L15.13 -280.9 L13.57 -279.8 L11.92 -278.8 L10.2 -277.9 L8.411 -277.1 L6.569 -276.5 L4.686 -276.1 L2.774 -275.8 L0.8441 -275.7 L-1.091 -275.7 L-3.019 -275.8 L-4.928 -276.2 L-6.806 -276.6 L-8.641 -277.2 L-10.42 -278 L-12.14 -278.9 L-13.77 -279.9 L-15.32 -281.1 L-16.78 -282.4 L-18.12 -283.7 L-19.36 -285.2 L-20.47 -286.8 L-21.45 -288.5 L-22.29 -290.2 L-23 -292 L-23.55 -293.9 L-23.96 -295.8 L-24.22 -297.7 L-24.33 -299.6 L-24.28 -301.6 L-24.08 -303.5 L-23.72 -305.4 L-23.22 -307.3 L-22.56 -309.1 L-21.77 -310.8 L-20.84 -312.5 L-19.77 -314.2 L-18.58 -315.7 L-17.28 -317.1 L-15.86 -318.4 L-14.35 -319.6 L-12.74 -320.7 L-11.05 -321.7 L-9.295 -322.5 L-7.478 -323.1 L-5.615 -323.7 L-3.716 -324 L-1.793 -324.3 L0.141 -324.3 L2.074 -324.2 L3.994 -324 L5.889 -323.6 L7.747 -323.1 L9.556 -322.4 L11.3 -321.5 L12.98 -320.6 L14.58 -319.5 L16.08 -318.3 L17.48 -316.9 L18.77 -315.5 L19.94 -313.9 L20.99 -312.3 L21.9 -310.6 L22.68 -308.8 L23.31 -307 L23.8 -305.1 L24.13 -303.2 L24.31 -301.3 Z " />
<path stroke="rgb(0,0,0)" stroke-opacity="1" fill="rgb(255,255,255)" fill-opacity="1" d="M-12.58 -412.6 L-11.58 -412.6 L-10.58 -412.6 L-9.586 -412.6 L-8.588 -412.6 L-7.59 -412.6 L-6.593 -412.6 L-5.595 -412.6 L-4.597 -412.6 L-3.599 -412.6 L-2.601 -412.6 L-1.603 -412.6 L-0.6056 -412.6 L0.3923 -412.6 L1.39 -412.6 L2.388 -412.6 L3.386 -412.6 L4.384 -412.6 L5.381 -412.6 L6.379 -412.6 L7.377 -412.6 L8.375 -412.6 L9.373 -412.6 L10.37 -412.6 L11.37 -412.6 L12.37 -412.6 L12.37 -411.6 L12.36 -410.6 L12.36 -409.6 L12.36 -408.6 L12.36 -407.6 L12.36 -406.6 L12.36 -405.6 L12.36 -404.6 L12.36 -403.6 L12.35 -402.6 L12.35 -401.6 L12.35 -400.6 L12.35 -399.6 L12.35 -398.6 L12.35 -397.6 L12.35 -396.6 L12.35 -395.6 L12.34 -394.6 L12.34 -393.6 L12.34 -392.6 L12.34 -391.6 L12.34 -390.6 L12.34 -389.6 L12.34 -388.6 L12.34 -387.6 L11.34 -387.6 L10.34 -387.6 L9.342 -387.6 L8.344 -387.6 L7.346 -387.6 L6.349 -387.6 L5.351 -387.6 L4.353 -387.6 L3.355 -387.6 L2.357 -387.6 L1.359 -387.6 L0.3615 -387.6 L-0.6363 -387.6 L-1.634 -387.7 L-2.632 -387.7 L-3.63 -387.7 L-4.628 -387.7 L-5.626 -387.7 L-6.623 -387.7 L-7.621 -387.7 L-8.619 -387.7 L-9.617 -387.7 L-10.61 -387.7 L-11.61 -387.7 L-12.61 -387.7 L-12.61 -388.7 L-12.61 -389.7 L-12.61 -390.7 L-12.61 -391.7 L-12.6 -392.7 L-12.6 -393.7 L-12.6 -394.6 L-12.6 -395.6 L-12.6 -396.6 L-12.6 -397.6 L-12.6 -398.6 L-12.6 -399.6 L-12.59 -400.6 L-12.59 -401.6 L-12.59 -402.6 L-12.59 -403.6 L-12.59 -404.6 L-12.59 -405.6 L-12.59 -406.6 L-12.59 -407.6 L-12.58 -408.6 L-12.58 -409.6 L-12.58 -410.6 L-12.58 -411.6 L-12.58 -412.6 Z " />
<path stroke="rgb(0,0,0)" stroke-opacity="1" fill="rgb(255,255,255)" fill-opacity="1" d="M215.9 -310.7 L216.7 -309.4 L217.4 -308.1 L218 -306.7 L218.5 -305.2 L218.8 -303.8 L219.1 -302.3 L219.2 -300.7 L219.2 -299.2 L219.1 -297.7 L218.9 -296.2 L218.5 -294.7 L218.1 -293.3 L217.5 -291.9 L216.8 -290.5 L216 -289.2 L215.1 -288 L214.1 -286.8 L213 -285.8 L211.9 -284.8 L210.6 -283.9 L209.3 -283.1 L208 -282.4 L206.6 -281.9 L205.1 -281.4 L203.6 -281.1 L202.1 -280.9 L200.6 -280.8 L199.1 -280.8 L197.6 -280.9 L196.1 -281.2 L194.6 -281.6 L193.2 -282.1 L191.8 -282.7 L190.4 -283.4 L189.2 -284.2 L188 -285.1 L186.8 -286.1 L185.8 -287.2 L184.8 -288.4 L184 -289.7 L183.2 -291 L182.5 -292.4 L182 -293.8 L181.6 -295.2 L181.3 -296.7 L181.1 -298.2 L181 -299.7 L181.1 -301.3 L181.2 -302.8 L181.5 -304.3 L181.9 -305.7 L182.4 -307.2 L183.1 -308.5 L183.8 -309.9 L184.7 -311.1 L185.6 -312.3 L186.6 -313.4 L187.8 -314.5 L189 -315.4 L190.2 -316.2 L191.6 -317 L193 -317.6 L194.4 -318.1 L195.9 -318.5 L197.3 -318.8 L198.9 -318.9 L200.4 -319 L201.9 -318.9 L203.4 -318.7 L204.9 -318.4 L206.3 -317.9 L207.8 -317.4 L209.1 -316.7 L210.4 -316 L211.7 -315.1 L212.9 -314.1 L213.9 -313.1 L215 -311.9 L215.9 -310.7 Z " />
<path stroke="rgb(0,0,0)" stroke-opacity="1" fill="rgb(255,255,255)" fill-opacity="1" d="M187.4 -412.6 L188.4 -412.6 L189.4 -412.6 L190.4 -412.6 L191.4 -412.6 L192.4 -412.6 L193.4 -412.6 L194.4 -412.6 L195.4 -412.6 L196.4 -412.6 L197.4 -412.6 L198.4 -412.6 L199.4 -412.6 L200.4 -412.6 L201.4 -412.6 L202.4 -412.6 L203.4 -412.6 L204.4 -412.6 L205.4 -412.6 L206.4 -412.6 L207.4 -412.6 L208.4 -412.6 L209.4 -412.6 L210.4 -412.6 L211.4 -412.6 L212.4 -412.6 L212.4 -411.6 L212.4 -410.6 L212.4 -409.6 L212.4 -408.6 L212.4 -407.6 L212.4 -406.6 L212.4 -405.6 L212.4 -404.6 L212.4 -403.6 L212.4 -402.6 L212.4 -401.6 L212.4 -400.6 L212.4 -399.6 L212.3 -398.6 L212.3 -397.6 L212.3 -396.6 L212.3 -395.6 L212.3 -394.6 L212.3 -393.6 L212.3 -392.6 L212.3 -391.6 L212.3 -390.6 L212.3 -389.6 L212.3 -388.6 L212.3 -387.6 L211.3 -387.6 L210.3 -387.6 L209.3 -387.6 L208.3 -387.6 L207.3 -387.6 L206.3 -387.6 L205.4 -387.6 L204.4 -387.6 L203.4 -387.6 L202.4 -387.6 L201.4 -387.6 L200.4 -387.6 L199.4 -387.6 L198.4 -387.7 L197.4 -387.7 L196.4 -387.7 L195.4 -387.7 L194.4 -387.7 L193.4 -387.7 L192.4 -387.7 L191.4 -387.7 L190.4 -387.7 L189.4 -387.7 L188.4 -387.7 L187.4 -387.7 L187.4 -388.7 L187.4 -389.7 L187.4 -390.7 L187.4 -391.7 L187.4 -392.7 L187.4 -393.7 L187.4 -394.6 L187.4 -395.6 L187.4 -396.6 L187.4 -397.6 L187.4 -398.6 L187.4 -399.6 L187.4 -400.6 L187.4 -401.6 L187.4 -402.6 L187.4 -403.6 L187.4 -404.6 L187.4 -405.6 L187.4 -406.6 L187.4 -407.6 L187.4 -408.6 L187.4 -409.6 L187.4 -410.6 L187.4 -411.6 L187.4 -412.6 Z " />
<path stroke="rgb(0,0,0)" stroke-opacity="1" fill="rgb(255,255,255)" fill-opacity="1" d="M-275 -199.9 L-275.1 -198 L-275.4 -196 L-275.8 -194.1 L-276.3 -192.1 L-277 -190.3 L-277.9 -188.5 L-278.8 -186.8 L-280 -185.1 L-281.2 -183.6 L-282.6 -182.1 L-284 -180.8 L-285.6 -179.6 L-287.3 -178.5 L-289 -177.6 L-290.8 -176.8 L-292.7 -176.1 L-294.6 -175.6 L-296.6 -175.3 L-298.6 -175.1 L-300.5 -175.1 L-302.5 -175.2 L-304.5 -175.5 L-306.4 -175.9 L-308.3 -176.5 L-310.2 -177.2 L-311.9 -178.1 L-313.6 -179.1 L-315.3 -180.3 L-316.8 -181.5 L-318.2 -182.9 L-319.5 -184.4 L-320.7 -186 L-321.7 -187.7 L-322.6 -189.5 L-323.4 -191.3 L-324 -193.2 L-324.5 -195.1 L-324.8 -197.1 L-324.9 -199.1 L-324.9 -201 L-324.8 -203 L-324.4 -205 L-324 -206.9 L-323.3 -208.8 L-322.6 -210.6 L-321.7 -212.4 L-320.6 -214.1 L-319.4 -215.7 L-318.1 -217.1 L-316.7 -218.5 L-315.2 -219.8 L-313.6 -220.9 L-311.8 -222 L-310.1 -222.8 L-308.2 -223.6 L-306.3 -224.1 L-304.4 -224.6 L-302.4 -224.8 L-300.4 -224.9 L-298.5 -224.9 L-296.5 -224.7 L-294.5 -224.3 L-292.6 -223.8 L-290.7 -223.2 L-288.9 -222.4 L-287.2 -221.4 L-285.5 -220.3 L-284 -219.1 L-282.5 -217.8 L-281.1 -216.3 L-279.9 -214.8 L-278.8 -213.1 L-277.8 -211.4 L-277 -209.6 L-276.3 -207.8 L-275.7 -205.8 L-275.4 -203.9 L-275.1 -201.9 L-275 -199.9 Z " />
<path stroke="rgb(0,0,0)" stroke-opacity="1" fill="rgb(255,255,255)" fill-opacity="1" d="M-312.6 -312.6 L-311.6 -312.6 L-310.6 -312.6 L-309.6 -312.6 L-308.6 -312.6 L-307.6 -312.6 L-306.6 -312.6 L-305.6 -312.6 L-304.6 -312.6 L-303.6 -312.6 L-302.6 -312.6 L-301.6 -312.6 L-300.6 -312.6 L-299.6 -312.6 L-298.6 -312.6 L-297.6 -312.6 L-296.6 -312.6 L-295.6 -312.6 L-294.6 -312.6 L-293.6 -312.6 L-292.6 -312.6 L-291.6 -312.6 L-290.6 -312.6 L-289.6 -312.6 L-288.6 -312.6 L-287.6 -312.6 L-287.6 -311.6 L-287.6 -310.6 L-287.6 -309.6 L-287.6 -308.6 L-287.6 -307.6 L-287.6 -306.6 L-287.6 -305.6 L-287.6 -304.6 L-287.6 -303.6 L-287.6 -302.6 L-287.6 -301.6 L-287.6 -300.6 L-287.6 -299.6 L-287.7 -298.6 L-287.7 -297.6 L-287.7 -296.6 L-287.7 -295.6 L-287.7 -294.6 L-287.7 -293.6 L-287.7 -292.6 L-287.7 -291.6 L-287.7 -290.6 L-287.7 -289.6 L-287.7 -288.6 L-287.7 -287.6 L-288.7 -287.6 L-289.7 -287.6 L-290.7 -287.6 L-291.7 -287.6 L-292.7 -287.6 L-293.7 -287.6 L-294.6 -287.6 L-295.6 -287.6 L-296.6 -287.6 L-297.6 -287.6 L-298.6 -287.6 L-299.6 -287.6 L-300.6 -287.6 L-301.6 -287.7 L-302.6 -287.7 L-303.6 -287.7 L-304.6 -287.7 L-305.6 -287.7 L-306.6 -287.7 L-307.6 -287.7 L-308.6 -287.7 L-309.6 -287.7 L-310.6 -287.7 L-311.6 -287.7 L-312.6 -287.7 L-312.6 -288.7 L-312.6 -289.7 L-312.6 -290.7 L-312.6 -291.7 L-312.6 -292.7 L-312.6 -293.7 L-312.6 -294.6 L-312.6 -295.6 L-312.6 -296.6 L-312.6 -297.6 L-312.6 -298.6 L-312.6 -299.6 L-312.6 -300.6 L-312.6 -301.6 L-312.6 -302.6 L-312.6 -303.6 L-312.6 -304.6 L-312.6 -305.6 L-312.6 -306.6 L-312.6 -307.6 L-312.6 -308.6 L-312.6 -309.6 L-312.6 -310.6 L-312.6 -311.6 L-312.6 -312.6 Z " />
<path stroke="rgb(0,0,0)" stroke-opacity="1" fill="rgb(255,255,255)" fill-opacity="1" d="M-75.69 -201.3 L-75.66 -199.4 L-75.79 -197.4 L-76.07 -195.5 L-76.5 -193.6 L-77.07 -191.8 L-77.8 -190 L-78.66 -188.3 L-79.66 -186.6 L-80.79 -185 L-82.04 -183.6 L-83.4 -182.2 L-84.87 -180.9 L-86.43 -179.8 L-88.08 -178.8 L-89.8 -177.9 L-91.59 -177.1 L-93.43 -176.5 L-95.31 -176.1 L-97.23 -175.8 L-99.16 -175.7 L-101.1 -175.7 L-103 -175.8 L-104.9 -176.2 L-106.8 -176.6 L-108.6 -177.2 L-110.4 -178 L-112.1 -178.9 L-113.8 -179.9 L-115.3 -181.1 L-116.8 -182.4 L-118.1 -183.7 L-119.4 -185.2 L-120.5 -186.8 L-121.4 -188.5 L-122.3 -190.2 L-123 -192 L-123.6 -193.9 L-124 -195.8 L-124.2 -197.7 L-124.3 -199.6 L-124.3 -201.6 L-124.1 -203.5 L-123.7 -205.4 L-123.2 -207.3 L-122.6 -209.1 L-121.8 -210.8 L-120.8 -212.5 L-119.8 -214.2 L-118.6 -215.7 L-117.3 -217.1 L-115.9 -218.4 L-114.3 -219.6 L-112.7 -220.7 L-111.1 -221.7 L-109.3 -222.5 L-107.5 -223.1 L-105.6 -223.7 L-103.7 -224 L-101.8 -224.3 L-99.86 -224.3 L-97.93 -224.2 L-96.01 -224 L-94.11 -223.6 L-92.25 -223.1 L-90.44 -222.4 L-88.7 -221.5 L-87.02 -220.6 L-85.42 -219.5 L-83.92 -218.3 L-82.52 -216.9 L-81.23 -215.5 L-80.06 -213.9 L-79.01 -212.3 L-78.1 -210.6 L-77.32 -208.8 L-76.69 -207 L-76.2 -205.1 L-75.87 -203.2 L-75.69 -201.3 Z " />
<path stroke="rgb(0,0,0)" stroke-opacity="1" fill="rgb(255,255,255)" fill-opacity="1" d="M-112.6 -312.6 L-111.6 -312.6 L-110.6 -312.6 L-109.6 -312.6 L-108.6 -312.6 L-107.6 -312.6 L-106.6 -312.6 L-105.6 -312.6 L-104.6 -312.6 L-103.6 -312.6 L-102.6 -312.6 L-101.6 -312.6 L-100.6 -312.6 L-99.61 -312.6 L-98.61 -312.6 L-97.61 -312.6 L-96.61 -312.6 L-95.62 -312.6 L-94.62 -312.6 L-93.62 -312.6 L-92.62 -312.6 L-91.63 -312.6 L-90.63 -312.6 L-89.63 -312.6 L-88.63 -312.6 L-87.63 -312.6 L-87.63 -311.6 L-87.64 -310.6 L-87.64 -309.6 L-87.64 -308.6 L-87.64 -307.6 L-87.64 -306.6 L-87.64 -305.6 L-87.64 -304.6 L-87.64 -303.6 L-87.65 -302.6 L-87.65 -301.6 L-87.65 -300.6 L-87.65 -299.6 L-87.65 -298.6 L-87.65 -297.6 L-87.65 -296.6 L-87.65 -295.6 L-87.66 -294.6 L-87.66 -293.6 L-87.66 -292.6 L-87.66 -291.6 L-87.66 -290.6 L-87.66 -289.6 L-87.66 -288.6 L-87.66 -287.6 L-88.66 -287.6 L-89.66 -287.6 L-90.66 -287.6 L-91.66 -287.6 L-92.65 -287.6 L-93.65 -287.6 L-94.65 -287.6 L-95.65 -287.6 L-96.64 -287.6 L-97.64 -287.6 L-98.64 -287.6 L-99.64 -287.6 L-100.6 -287.6 L-101.6 -287.7 L-102.6 -287.7 L-103.6 -287.7 L-104.6 -287.7 L-105.6 -287.7 L-106.6 -287.7 L-107.6 -287.7 L-108.6 -287.7 L-109.6 -287.7 L-110.6 -287.7 L-111.6 -287.7 L-112.6 -287.7 L-112.6 -288.7 L-112.6 -289.7 L-112.6 -290.7 L-112.6 -291.7 L-112.6 -292.7 L-112.6 -293.7 L-112.6 -294.6 L-112.6 -295.6 L-112.6 -296.6 L-112.6 -297.6 L-112.6 -298.6 L-112.6 -299.6 L-112.6 -300.6 L-112.6 -301.6 L-112.6 -302.6 L-112.6 -303.6 L-112.6 -304.6 L-112.6 -305.6 L-112.6 -306.6 L-112.6 -307.6 L-112.6 -308.6 L-112.6 -309.6 L-112.6 -310.6 L-112.6 -311.6 L-112.6 -312.6 Z " />
<path stroke="rgb(0,0,0)" stroke-opacity="1" fill="rgb(255,255,255)" fill-opacity="1" d="M115.9 -210.7 L116.7 -209.4 L117.4 -208.1 L118 -206.7 L118.5 -205.2 L118.8 -203.8 L119.1 -202.3 L119.2 -200.7 L119.2 -199.2 L119.1 -197.7 L118.9 -196.2 L118.5 -194.7 L118.1 -193.3 L117.5 -191.9 L116.8 -190.5 L116 -189.2 L115.1 -188 L114.1 -186.8 L113 -185.8 L111.9 -184.8 L110.6 -183.9 L109.3 -183.1 L108 -182.4 L106.6 -181.9 L105.1 -181.4 L103.6 -181.1 L102.1 -180.9 L100.6 -180.8 L99.1 -180.8 L97.58 -180.9 L96.08 -181.2 L94.61 -181.6 L93.18 -182.1 L91.78 -182.7 L90.44 -183.4 L89.16 -184.2 L87.95 -185.1 L86.82 -186.1 L85.77 -187.2 L84.81 -188.4 L83.95 -189.7 L83.19 -191 L82.54 -192.4 L82 -193.8 L81.57 -195.2 L81.26 -196.7 L81.07 -198.2 L81 -199.7 L81.05 -201.3 L81.22 -202.8 L81.51 -204.3 L81.92 -205.7 L82.45 -207.2 L83.08 -208.5 L83.82 -209.9 L84.67 -211.1 L85.61 -212.3 L86.65 -213.4 L87.77 -214.5 L88.97 -215.4 L90.24 -216.2 L91.57 -217 L92.95 -217.6 L94.38 -218.1 L95.85 -218.5 L97.35 -218.8 L98.86 -218.9 L100.4 -219 L101.9 -218.9 L103.4 -218.7 L104.9 -218.4 L106.3 -217.9 L107.8 -217.4 L109.1 -216.7 L110.4 -216 L111.7 -215.1 L112.9 -214.1 L113.9 -213.1 L115 -211.9 L115.9 -210.7 Z " />
<path stroke="rgb(0,0,0)" stroke-opacity="1" fill="rgb(255,255,255)" fill-opacity="1" d="M87.42 -312.6 L88.42 -312.6 L89.42 -312.6 L90.41 -312.6 L91.41 -312.6 L92.41 -312.6 L93.41 -312.6 L94.41 -312.6 L95.4 -312.6 L96.4 -312.6 L97.4 -312.6 L98.4 -312.6 L99.39 -312.6 L100.4 -312.6 L101.4 -312.6 L102.4 -312.6 L103.4 -312.6 L104.4 -312.6 L105.4 -312.6 L106.4 -312.6 L107.4 -312.6 L108.4 -312.6 L109.4 -312.6 L110.4 -312.6 L111.4 -312.6 L112.4 -312.6 L112.4 -311.6 L112.4 -310.6 L112.4 -309.6 L112.4 -308.6 L112.4 -307.6 L112.4 -306.6 L112.4 -305.6 L112.4 -304.6 L112.4 -303.6 L112.4 -302.6 L112.4 -301.6 L112.4 -300.6 L112.4 -299.6 L112.3 -298.6 L112.3 -297.6 L112.3 -296.6 L112.3 -295.6 L112.3 -294.6 L112.3 -293.6 L112.3 -292.6 L112.3 -291.6 L112.3 -290.6 L112.3 -289.6 L112.3 -288.6 L112.3 -287.6 L111.3 -287.6 L110.3 -287.6 L109.3 -287.6 L108.3 -287.6 L107.3 -287.6 L106.3 -287.6 L105.4 -287.6 L104.4 -287.6 L103.4 -287.6 L102.4 -287.6 L101.4 -287.6 L100.4 -287.6 L99.36 -287.6 L98.37 -287.7 L97.37 -287.7 L96.37 -287.7 L95.37 -287.7 L94.37 -287.7 L93.38 -287.7 L92.38 -287.7 L91.38 -287.7 L90.38 -287.7 L89.39 -287.7 L88.39 -287.7 L87.39 -287.7 L87.39 -288.7 L87.39 -289.7 L87.39 -290.7 L87.39 -291.7 L87.4 -292.7 L87.4 -293.7 L87.4 -294.6 L87.4 -295.6 L87.4 -296.6 L87.4 -297.6 L87.4 -298.6 L87.4 -299.6 L87.41 -300.6 L87.41 -301.6 L87.41 -302.6 L87.41 -303.6 L87.41 -304.6 L87.41 -305.6 L87.41 -306.6 L87.41 -307.6 L87.42 -308.6 L87.42 -309.6 L87.42 -310.6 L87.42 -311.6 L87.42 -312.6 Z " />
<path stroke="rgb(0,0,0)" stroke-opacity="1" fill="rgb(255,255,255)" fill-opacity="1" d="M302.4 -213 L303.4 -212.8 L304.5 -212.5 L305.4 -212.2 L306.4 -211.7 L307.3 -211.2 L308.2 -210.6 L309.1 -209.9 L309.8 -209.2 L310.5 -208.4 L311.2 -207.6 L311.8 -206.7 L312.3 -205.8 L312.7 -204.8 L313.1 -203.8 L313.3 -202.8 L313.5 -201.7 L313.6 -200.7 L313.7 -199.6 L313.6 -198.5 L313.5 -197.5 L313.2 -196.4 L312.9 -195.4 L312.5 -194.4 L312.1 -193.5 L311.5 -192.6 L310.9 -191.7 L310.2 -190.9 L309.5 -190.1 L308.7 -189.4 L307.8 -188.8 L306.9 -188.2 L306 -187.7 L305 -187.3 L304 -187 L302.9 -186.7 L301.9 -186.6 L300.8 -186.5 L299.8 -186.5 L298.7 -186.5 L297.7 -186.7 L296.6 -187 L295.6 -187.3 L294.6 -187.7 L293.7 -188.2 L292.8 -188.8 L291.9 -189.4 L291.1 -190.1 L290.4 -190.8 L289.7 -191.7 L289.1 -192.5 L288.5 -193.4 L288.1 -194.4 L287.7 -195.4 L287.4 -196.4 L287.1 -197.4 L287 -198.5 L286.9 -199.5 L286.9 -200.6 L287 -201.7 L287.2 -202.7 L287.5 -203.7 L287.8 -204.8 L288.3 -205.7 L288.8 -206.7 L289.4 -207.6 L290 -208.4 L290.7 -209.2 L291.5 -209.9 L292.3 -210.6 L293.2 -211.2 L294.1 -211.7 L295.1 -212.2 L296.1 -212.5 L297.1 -212.8 L298.1 -213 L299.2 -213.2 L300.3 -213.2 L301.3 -213.2 L302.4 -213 Z " />
<path stroke="rgb(0,0,0)" stroke-opacity="1" fill="rgb(255,255,255)" fill-opacity="1" d="M-412.6 -212.6 L-411.6 -212.6 L-410.6 -212.6 L-409.6 -212.6 L-408.6 -212.6 L-407.6 -212.6 L-406.6 -212.6 L-405.6 -212.6 L-404.6 -212.6 L-403.6 -212.6 L-402.6 -212.6 L-401.6 -212.6 L-400.6 -212.6 L-399.6 -212.6 L-398.6 -212.6 L-397.6 -212.6 L-396.6 -212.6 L-395.6 -212.6 L-394.6 -212.6 L-393.6 -212.6 L-392.6 -212.6 L-391.6 -212.6 L-390.6 -212.6 L-389.6 -212.6 L-388.6 -212.6 L-387.6 -212.6 L-387.6 -211.6 L-387.6 -210.6 L-387.6 -209.6 L-387.6 -208.6 L-387.6 -207.6 L-387.6 -206.6 L-387.6 -205.6 L-387.6 -204.6 L-387.6 -203.6 L-387.6 -202.6 L-387.6 -201.6 L-387.6 -200.6 L-387.6 -199.6 L-387.7 -198.6 L-387.7 -197.6 L-387.7 -196.6 L-387.7 -195.6 L-387.7 -194.6 L-387.7 -193.6 L-387.7 -192.6 L-387.7 -191.6 L-387.7 -190.6 L-387.7 -189.6 L-387.7 -188.6 L-387.7 -187.6 L-388.7 -187.6 L-389.7 -187.6 L-390.7 -187.6 L-391.7 -187.6 L-392.7 -187.6 L-393.7 -187.6 L-394.6 -187.6 L-395.6 -187.6 L-396.6 -187.6 L-397.6 -187.6 L-398.6 -187.6 L-399.6 -187.6 L-400.6 -187.6 L-401.6 -187.7 L-402.6 -187.7 L-403.6 -187.7 L-404.6 -187.7 L-405.6 -187.7 L-406.6 -187.7 L-407.6 -187.7 L-408.6 -187.7 L-409.6 -187.7 L-410.6 -187.7 L-411.6 -187.7 L-412.6 -187.7 L-412.6 -188.7 L-412.6 -189.7 L-412.6 -190.7 L-412.6 -191.7 L-412.6 -192.7 L-412.6 -193.7 L-412.6 -194.6 L-412.6 -195.6 L-412.6 -196.6 L-412.6 -197.6 L-412.6 -198.6 L-412.6 -199.6 L-412.6 -200.6 L-412.6 -201.6 L-412.6 -202.6 L-412.6 -203.6 L-412.6 -204.6 L-412.6 -205.6 L-412.6 -206.6 L-412.6 -207.6 L-412.6 -208.6 L-412.6 -209.6 L-412.6 -210.6 L-412.6 -211.6 L-412.6 -212.6 Z " />
<path stroke="rgb(0,0,0)" stroke-opacity="1" fill="rgb(255,255,255)" fill-opacity="1" d="M-175.7 -101.3 L-175.7 -99.37 L-175.8 -97.44 L-176.1 -95.52 L-176.5 -93.63 L-177.1 -91.79 L-177.8 -89.99 L-178.7 -88.26 L-179.7 -86.6 L-180.8 -85.03 L-182 -83.55 L-183.4 -82.18 L-184.9 -80.92 L-186.4 -79.77 L-188.1 -78.76 L-189.8 -77.88 L-191.6 -77.14 L-193.4 -76.55 L-195.3 -76.1 L-197.2 -75.8 L-199.2 -75.66 L-201.1 -75.67 L-203 -75.83 L-204.9 -76.15 L-206.8 -76.62 L-208.6 -77.23 L-210.4 -77.99 L-212.1 -78.89 L-213.8 -79.92 L-215.3 -81.08 L-216.8 -82.36 L-218.1 -83.75 L-219.4 -85.24 L-220.5 -86.83 L-221.4 -88.49 L-222.3 -90.23 L-223 -92.04 L-223.6 -93.89 L-224 -95.78 L-224.2 -97.7 L-224.3 -99.63 L-224.3 -101.6 L-224.1 -103.5 L-223.7 -105.4 L-223.2 -107.3 L-222.6 -109.1 L-221.8 -110.8 L-220.8 -112.5 L-219.8 -114.2 L-218.6 -115.7 L-217.3 -117.1 L-215.9 -118.4 L-214.3 -119.6 L-212.7 -120.7 L-211.1 -121.7 L-209.3 -122.5 L-207.5 -123.1 L-205.6 -123.7 L-203.7 -124 L-201.8 -124.3 L-199.9 -124.3 L-197.9 -124.2 L-196 -124 L-194.1 -123.6 L-192.3 -123.1 L-190.4 -122.4 L-188.7 -121.5 L-187 -120.6 L-185.4 -119.5 L-183.9 -118.3 L-182.5 -116.9 L-181.2 -115.5 L-180.1 -113.9 L-179 -112.3 L-178.1 -110.6 L-177.3 -108.8 L-176.7 -107 L-176.2 -105.1 L-175.9 -103.2 L-175.7 -101.3 Z " />
<path stroke="rgb(0,0,0)" stroke-opacity="1" fill="rgb(255,255,255)" fill-opacity="1" d="M-212.6 -212.6 L-211.6 -212.6 L-210.6 -212.6 L-209.6 -212.6 L-208.6 -212.6 L-207.6 -212.6 L-206.6 -212.6 L-205.6 -212.6 L-204.6 -212.6 L-203.6 -212.6 L-202.6 -212.6 L-201.6 -212.6 L-200.6 -212.6 L-199.6 -212.6 L-198.6 -212.6 L-197.6 -212.6 L-196.6 -212.6 L-195.6 -212.6 L-194.6 -212.6 L-193.6 -212.6 L-192.6 -212.6 L-191.6 -212.6 L-190.6 -212.6 L-189.6 -212.6 L-188.6 -212.6 L-187.6 -212.6 L-187.6 -211.6 L-187.6 -210.6 L-187.6 -209.6 L-187.6 -208.6 L-187.6 -207.6 L-187.6 -206.6 L-187.6 -205.6 L-187.6 -204.6 L-187.6 -203.6 L-187.6 -202.6 L-187.6 -201.6 L-187.6 -200.6 L-187.6 -199.6 L-187.7 -198.6 L-187.7 -197.6 L-187.7 -196.6 L-187.7 -195.6 L-187.7 -194.6 L-187.7 -193.6 L-187.7 -192.6 L-187.7 -191.6 L-187.7 -190.6 L-187.7 -189.6 L-187.7 -188.6 L-187.7 -187.6 L-188.7 -187.6 L-189.7 -187.6 L-190.7 -187.6 L-191.7 -187.6 L-192.7 -187.6 L-193.7 -187.6 L-194.6 -187.6 L-195.6 -187.6 L-196.6 -187.6 L-197.6 -187.6 L-198.6 -187.6 L-199.6 -187.6 L-200.6 -187.6 L-201.6 -187.7 L-202.6 -187.7 L-203.6 -187.7 L-204.6 -187.7 L-205.6 -187.7 L-206.6 -187.7 L-207.6 -187.7 L-208.6 -187.7 L-209.6 -187.7 L-210.6 -187.7 L-211.6 -187.7 L-212.6 -187.7 L-212.6 -188.7 L-212.6 -189.7 L-212.6 -190.7 L-212.6 -191.7 L-212.6 -192.7 L-212.6 -193.7 L-212.6 -194.6 L-212.6 -195.6 L-212.6 -196.6 L-212.6 -197.6 L-212.6 -198.6 L-212.6 -199.6 L-212.6 -200.6 L-212.6 -201.6 L-212.6 -202.6 L-212.6 -203.6 L-212.6 -204.6 L-212.6 -205.6 L-212.6 -206.6 L-212.6 -207.6 L-212.6 -208.6 L-212.6 -209.6 L-212.6 -210.6 L-212.6 -211.6 L-212.6 -212.6 Z " />
<path stroke="rgb(0,0,0)" stroke-opacity="1" fill="rgb(255,255,255)" fill-opacity="1" d="M15.86 -110.7 L16.67 -109.4 L17.38 -108.1 L17.98 -106.7 L18.46 -105.2 L18.83 -103.8 L19.08 -102.3 L19.21 -100.7 L19.22 -99.22 L19.11 -97.71 L18.88 -96.21 L18.53 -94.73 L18.06 -93.28 L17.48 -91.87 L16.79 -90.52 L16 -89.23 L15.1 -88 L14.11 -86.84 L13.03 -85.77 L11.87 -84.79 L10.64 -83.9 L9.336 -83.12 L7.976 -82.44 L6.567 -81.87 L5.117 -81.41 L3.635 -81.08 L2.132 -80.86 L0.6149 -80.76 L-0.9049 -80.78 L-2.418 -80.92 L-3.916 -81.18 L-5.387 -81.56 L-6.825 -82.05 L-8.218 -82.66 L-9.558 -83.38 L-10.84 -84.2 L-12.05 -85.12 L-13.18 -86.13 L-14.23 -87.23 L-15.19 -88.41 L-16.05 -89.66 L-16.81 -90.98 L-17.46 -92.35 L-18 -93.77 L-18.43 -95.23 L-18.74 -96.72 L-18.93 -98.23 L-19 -99.75 L-18.95 -101.3 L-18.78 -102.8 L-18.49 -104.3 L-18.08 -105.7 L-17.55 -107.2 L-16.92 -108.5 L-16.18 -109.9 L-15.33 -111.1 L-14.39 -112.3 L-13.35 -113.4 L-12.23 -114.5 L-11.03 -115.4 L-9.763 -116.2 L-8.432 -117 L-7.046 -117.6 L-5.615 -118.1 L-4.148 -118.5 L-2.654 -118.8 L-1.143 -118.9 L0.3766 -119 L1.894 -118.9 L3.401 -118.7 L4.887 -118.4 L6.342 -117.9 L7.758 -117.4 L9.126 -116.7 L10.44 -116 L11.68 -115.1 L12.86 -114.1 L13.95 -113.1 L14.95 -111.9 L15.86 -110.7 Z " />
<path stroke="rgb(0,0,0)" stroke-opacity="1" fill="rgb(255,255,255)" fill-opacity="1" d="M-12.58 -212.6 L-11.58 -212.6 L-10.58 -212.6 L-9.586 -212.6 L-8.588 -212.6 L-7.59 -212.6 L-6.593 -212.6 L-5.595 -212.6 L-4.597 -212.6 L-3.599 -212.6 L-2.601 -212.6 L-1.603 -212.6 L-0.6056 -212.6 L0.3923 -212.6 L1.39 -212.6 L2.388 -212.6 L3.386 -212.6 L4.384 -212.6 L5.381 -212.6 L6.379 -212.6 L7.377 -212.6 L8.375 -212.6 L9.373 -212.6 L10.37 -212.6 L11.37 -212.6 L12.37 -212.6 L12.37 -211.6 L12.36 -210.6 L12.36 -209.6 L12.36 -208.6 L12.36 -207.6 L12.36 -206.6 L12.36 -205.6 L12.36 -204.6 L12.36 -203.6 L12.35 -202.6 L12.35 -201.6 L12.35 -200.6 L12.35 -199.6 L12.35 -198.6 L12.35 -197.6 L12.35 -196.6 L12.35 -195.6 L12.34 -194.6 L12.34 -193.6 L12.34 -192.6 L12.34 -191.6 L12.34 -190.6 L12.34 -189.6 L12.34 -188.6 L12.34 -187.6 L11.34 -187.6 L10.34 -187.6 L9.342 -187.6 L8.344 -187.6 L7.346 -187.6 L6.349 -187.6 L5.351 -187.6 L4.353 -187.6 L3.355 -187.6 L2.357 -187.6 L1.359 -187.6 L0.3615 -187.6 L-0.6363 -187.6 L-1.634 -187.7 L-2.632 -187.7 L-3.63 -187.7 L-4.628 -187.7 L-5.626 -187.7 L-6.623 -187.7 L-7.621 -187.7 L-8.619 -187.7 L-9.617 -187.7 L-10.61 -187.7 L-11.61 -187.7 L-12.61 -187.7 L-12.61 -188.7 L-12.61 -189.7 L-12.61 -190.7 L-12.61 -191.7 L-12.6 -192.7 L-12.6 -193.7 L-12.6 -194.6 L-12.6 -195.6 L-12.6 -196.6 L-12.6 -197.6 L-12.6 -198.6 L-12.6 -199.6 L-12.59 -200.6 L-12.59 -201.6 L-12.59 -202.6 L-12.59 -203.6 L-12.59 -204.6 L-12.59 -205.6 L-12.59 -206.6 L-12.59 -207.6 L-12.58 -208.6 L-12.58 -209.6 L-12.58 -210.6 L-12.58 -211.6 L-12.58 -212.6 Z " />
<path stroke="rgb(0,0,0)" stroke-opacity="1" fill="rgb(255,255,255)" fill-opacity="1" d="M202.4 -113 L203.4 -112.8 L204.5 -112.5 L205.4 -112.2 L206.4 -111.7 L207.3 -111.2 L208.2 -110.6 L209.1 -109.9 L209.8 -109.2 L210.5 -108.4 L211.2 -107.6 L211.8 -106.7 L212.3 -105.8 L212.7 -104.8 L213.1 -103.8 L213.3 -102.8 L213.5 -101.7 L213.6 -100.7 L213.7 -99.59 L213.6 -98.53 L213.5 -97.47 L213.2 -96.43 L212.9 -95.42 L212.5 -94.43 L212.1 -93.47 L211.5 -92.56 L210.9 -91.69 L210.2 -90.87 L209.5 -90.11 L208.7 -89.41 L207.8 -88.78 L206.9 -88.21 L206 -87.72 L205 -87.31 L204 -86.98 L202.9 -86.72 L201.9 -86.55 L200.8 -86.47 L199.8 -86.47 L198.7 -86.55 L197.7 -86.72 L196.6 -86.97 L195.6 -87.3 L194.6 -87.71 L193.7 -88.19 L192.8 -88.76 L191.9 -89.39 L191.1 -90.08 L190.4 -90.84 L189.7 -91.66 L189.1 -92.52 L188.5 -93.44 L188.1 -94.39 L187.7 -95.38 L187.4 -96.4 L187.1 -97.43 L187 -98.49 L186.9 -99.55 L186.9 -100.6 L187 -101.7 L187.2 -102.7 L187.5 -103.7 L187.8 -104.8 L188.3 -105.7 L188.8 -106.7 L189.4 -107.6 L190 -108.4 L190.7 -109.2 L191.5 -109.9 L192.3 -110.6 L193.2 -111.2 L194.1 -111.7 L195.1 -112.2 L196.1 -112.5 L197.1 -112.8 L198.1 -113 L199.2 -113.2 L200.3 -113.2 L201.3 -113.2 L202.4 -113 Z " />
<path stroke="rgb(0,0,0)" stroke-opacity="1" fill="rgb(255,255,255)" fill-opacity="1" d="M187.6 -212.3 L188.6 -212.3 L189.6 -212.3 L190.6 -212.3 L191.6 -212.3 L192.6 -212.3 L193.6 -212.3 L194.6 -212.3 L195.6 -212.3 L196.6 -212.3 L197.6 -212.3 L198.6 -212.3 L199.6 -212.3 L200.6 -212.3 L201.6 -212.3 L202.6 -212.3 L203.6 -212.3 L204.6 -212.3 L205.6 -212.3 L206.6 -212.3 L207.6 -212.3 L208.6 -212.4 L209.6 -212.4 L210.6 -212.4 L211.6 -212.4 L212.6 -212.4 L212.6 -211.4 L212.6 -210.4 L212.6 -209.4 L212.6 -208.4 L212.6 -207.4 L212.6 -206.4 L212.6 -205.4 L212.6 -204.4 L212.6 -203.4 L212.6 -202.4 L212.6 -201.4 L212.6 -200.4 L212.6 -199.4 L212.6 -198.4 L212.6 -197.4 L212.6 -196.4 L212.6 -195.4 L212.6 -194.4 L212.6 -193.4 L212.6 -192.4 L212.6 -191.4 L212.6 -190.4 L212.7 -189.4 L212.7 -188.4 L212.7 -187.4 L211.7 -187.4 L210.7 -187.4 L209.7 -187.4 L208.7 -187.4 L207.7 -187.4 L206.7 -187.4 L205.7 -187.4 L204.7 -187.4 L203.7 -187.4 L202.7 -187.4 L201.7 -187.4 L200.7 -187.4 L199.7 -187.4 L198.7 -187.4 L197.7 -187.4 L196.7 -187.4 L195.7 -187.4 L194.7 -187.4 L193.7 -187.4 L192.7 -187.4 L191.7 -187.4 L190.7 -187.4 L189.7 -187.4 L188.7 -187.3 L187.7 -187.3 L187.7 -188.3 L187.7 -189.3 L187.7 -190.3 L187.7 -191.3 L187.7 -192.3 L187.7 -193.3 L187.7 -194.3 L187.7 -195.3 L187.7 -196.3 L187.7 -197.3 L187.7 -198.3 L187.7 -199.3 L187.7 -200.3 L187.7 -201.3 L187.7 -202.3 L187.7 -203.3 L187.7 -204.3 L187.7 -205.3 L187.7 -206.3 L187.7 -207.3 L187.6 -208.3 L187.6 -209.3 L187.6 -210.3 L187.6 -211.3 L187.6 -212.3 Z " />
<path stroke="rgb(0,0,0)" stroke-opacity="1" fill="rgb(255,255,255)" fill-opacity="1" d="M-275.7 -1.302 L-275.7 0.6326 L-275.8 2.564 L-276.1 4.479 L-276.5 6.365 L-277.1 8.212 L-277.8 10.01 L-278.7 11.74 L-279.7 13.4 L-280.8 14.97 L-282 16.45 L-283.4 17.82 L-284.9 19.08 L-286.4 20.23 L-288.1 21.24 L-289.8 22.12 L-291.6 22.86 L-293.4 23.45 L-295.3 23.9 L-297.2 24.2 L-299.2 24.34 L-301.1 24.33 L-303 24.17 L-304.9 23.85 L-306.8 23.38 L-308.6 22.77 L-310.4 22.01 L-312.1 21.11 L-313.8 20.08 L-315.3 18.92 L-316.8 17.64 L-318.1 16.25 L-319.4 14.76 L-320.5 13.17 L-321.4 11.51 L-322.3 9.765 L-323 7.963 L-323.6 6.11 L-324 4.218 L-324.2 2.3 L-324.3 0.3681 L-324.3 -1.566 L-324.1 -3.491 L-323.7 -5.393 L-323.2 -7.262 L-322.6 -9.084 L-321.8 -10.85 L-320.8 -12.54 L-319.8 -14.16 L-318.6 -15.69 L-317.3 -17.12 L-315.9 -18.43 L-314.3 -19.64 L-312.7 -20.72 L-311.1 -21.66 L-309.3 -22.47 L-307.5 -23.14 L-305.6 -23.66 L-303.7 -24.03 L-301.8 -24.25 L-299.9 -24.32 L-297.9 -24.23 L-296 -23.99 L-294.1 -23.6 L-292.3 -23.06 L-290.4 -22.37 L-288.7 -21.54 L-287 -20.58 L-285.4 -19.48 L-283.9 -18.26 L-282.5 -16.93 L-281.2 -15.48 L-280.1 -13.94 L-279 -12.32 L-278.1 -10.61 L-277.3 -8.838 L-276.7 -7.009 L-276.2 -5.135 L-275.9 -3.229 L-275.7 -1.302 Z " />
<path stroke="rgb(0,0,0)" stroke-opacity="1" fill="rgb(255,255,255)" fill-opacity="1" d="M-312.6 -112.6 L-311.6 -112.6 L-310.6 -112.6 L-309.6 -112.6 L-308.6 -112.6 L-307.6 -112.6 L-306.6 -112.6 L-305.6 -112.6 L-304.6 -112.6 L-303.6 -112.6 L-302.6 -112.6 L-301.6 -112.6 L-300.6 -112.6 L-299.6 -112.6 L-298.6 -112.6 L-297.6 -112.6 L-296.6 -112.6 L-295.6 -112.6 L-294.6 -112.6 L-293.6 -112.6 L-292.6 -112.6 L-291.6 -112.6 L-290.6 -112.6 L-289.6 -112.6 L-288.6 -112.6 L-287.6 -112.6 L-287.6 -111.6 L-287.6 -110.6 L-287.6 -109.6 L-287.6 -108.6 L-287.6 -107.6 L-287.6 -106.6 L-287.6 -105.6 L-287.6 -104.6 L-287.6 -103.6 L-287.6 -102.6 L-287.6 -101.6 L-287.6 -100.6 L-287.6 -99.61 L-287.7 -98.61 L-287.7 -97.61 L-287.7 -96.61 L-287.7 -95.62 L-287.7 -94.62 L-287.7 -93.62 L-287.7 -92.62 L-287.7 -91.62 L-287.7 -90.63 L-287.7 -89.63 L-287.7 -88.63 L-287.7 -87.63 L-288.7 -87.63 L-289.7 -87.64 L-290.7 -87.64 L-291.7 -87.64 L-292.7 -87.64 L-293.7 -87.64 L-294.6 -87.64 L-295.6 -87.64 L-296.6 -87.64 L-297.6 -87.65 L-298.6 -87.65 L-299.6 -87.65 L-300.6 -87.65 L-301.6 -87.65 L-302.6 -87.65 L-303.6 -87.65 L-304.6 -87.65 L-305.6 -87.66 L-306.6 -87.66 L-307.6 -87.66 L-308.6 -87.66 L-309.6 -87.66 L-310.6 -87.66 L-311.6 -87.66 L-312.6 -87.66 L-312.6 -88.66 L-312.6 -89.66 L-312.6 -90.66 L-312.6 -91.66 L-312.6 -92.65 L-312.6 -93.65 L-312.6 -94.65 L-312.6 -95.65 L-312.6 -96.64 L-312.6 -97.64 L-312.6 -98.64 L-312.6 -99.64 L-312.6 -100.6 L-312.6 -101.6 L-312.6 -102.6 L-312.6 -103.6 L-312.6 -104.6 L-312.6 -105.6 L-312.6 -106.6 L-312.6 -107.6 L-312.6 -108.6 L-312.6 -109.6 L-312.6 -110.6 L-312.6 -111.6 L-312.6 -112.6 Z " />
<path stroke="rgb(0,0,0)" stroke-opacity="1" fill="rgb(255,255,255)" fill-opacity="1" d="M-84.14 -10.7 L-83.33 -9.416 L-82.62 -8.07 L-82.02 -6.672 L-81.54 -5.232 L-81.17 -3.757 L-80.92 -2.258 L-80.79 -0.7436 L-80.78 0.7763 L-80.89 2.292 L-81.12 3.794 L-81.47 5.274 L-81.94 6.72 L-82.52 8.125 L-83.21 9.48 L-84 10.77 L-84.9 12 L-85.89 13.16 L-86.97 14.23 L-88.13 15.21 L-89.36 16.1 L-90.66 16.88 L-92.02 17.56 L-93.43 18.13 L-94.88 18.59 L-96.36 18.92 L-97.87 19.14 L-99.39 19.24 L-100.9 19.22 L-102.4 19.08 L-103.9 18.82 L-105.4 18.44 L-106.8 17.95 L-108.2 17.34 L-109.6 16.62 L-110.8 15.8 L-112 14.88 L-113.2 13.87 L-114.2 12.77 L-115.2 11.59 L-116 10.34 L-116.8 9.021 L-117.5 7.648 L-118 6.228 L-118.4 4.769 L-118.7 3.281 L-118.9 1.773 L-119 0.2546 L-118.9 -1.264 L-118.8 -2.775 L-118.5 -4.267 L-118.1 -5.731 L-117.6 -7.157 L-116.9 -8.538 L-116.2 -9.864 L-115.3 -11.13 L-114.4 -12.32 L-113.4 -13.43 L-112.2 -14.46 L-111 -15.39 L-109.8 -16.23 L-108.4 -16.96 L-107 -17.59 L-105.6 -18.1 L-104.1 -18.5 L-102.7 -18.78 L-101.1 -18.94 L-99.62 -18.98 L-98.11 -18.9 L-96.6 -18.7 L-95.11 -18.38 L-93.66 -17.94 L-92.24 -17.39 L-90.87 -16.72 L-89.56 -15.95 L-88.32 -15.08 L-87.14 -14.12 L-86.05 -13.06 L-85.05 -11.92 L-84.14 -10.7 Z " />
<path stroke="rgb(0,0,0)" stroke-opacity="1" fill="rgb(255,255,255)" fill-opacity="1" d="M-112.6 -112.6 L-111.6 -112.6 L-110.6 -112.6 L-109.6 -112.6 L-108.6 -112.6 L-107.6 -112.6 L-106.6 -112.6 L-105.6 -112.6 L-104.6 -112.6 L-103.6 -112.6 L-102.6 -112.6 L-101.6 -112.6 L-100.6 -112.6 L-99.61 -112.6 L-98.61 -112.6 L-97.61 -112.6 L-96.61 -112.6 L-95.62 -112.6 L-94.62 -112.6 L-93.62 -112.6 L-92.62 -112.6 L-91.63 -112.6 L-90.63 -112.6 L-89.63 -112.6 L-88.63 -112.6 L-87.63 -112.6 L-87.63 -111.6 L-87.64 -110.6 L-87.64 -109.6 L-87.64 -108.6 L-87.64 -107.6 L-87.64 -106.6 L-87.64 -105.6 L-87.64 -104.6 L-87.64 -103.6 L-87.65 -102.6 L-87.65 -101.6 L-87.65 -100.6 L-87.65 -99.61 L-87.65 -98.61 L-87.65 -97.61 L-87.65 -96.61 L-87.65 -95.62 L-87.66 -94.62 L-87.66 -93.62 L-87.66 -92.62 L-87.66 -91.62 L-87.66 -90.63 L-87.66 -89.63 L-87.66 -88.63 L-87.66 -87.63 L-88.66 -87.63 L-89.66 -87.64 L-90.66 -87.64 L-91.66 -87.64 L-92.65 -87.64 L-93.65 -87.64 L-94.65 -87.64 L-95.65 -87.64 L-96.64 -87.64 L-97.64 -87.65 L-98.64 -87.65 L-99.64 -87.65 L-100.6 -87.65 L-101.6 -87.65 L-102.6 -87.65 L-103.6 -87.65 L-104.6 -87.65 L-105.6 -87.66 L-106.6 -87.66 L-107.6 -87.66 L-108.6 -87.66 L-109.6 -87.66 L-110.6 -87.66 L-111.6 -87.66 L-112.6 -87.66 L-112.6 -88.66 L-112.6 -89.66 L-112.6 -90.66 L-112.6 -91.66 L-112.6 -92.65 L-112.6 -93.65 L-112.6 -94.65 L-112.6 -95.65 L-112.6 -96.64 L-112.6 -97.64 L-112.6 -98.64 L-112.6 -99.64 L-112.6 -100.6 L-112.6 -101.6 L-112.6 -102.6 L-112.6 -103.6 L-112.6 -104.6 L-112.6 -105.6 L-112.6 -106.6 L-112.6 -107.6 L-112.6 -108.6 L-112.6 -109.6 L-112.6 -110.6 L-112.6 -111.6 L-112.6 -112.6 Z " />
<path stroke="rgb(0,0,0)" stroke-opacity="1" fill="rgb(255,255,255)" fill-opacity="1" d="M102.4 -13.05 L103.4 -12.84 L104.5 -12.55 L105.4 -12.18 L106.4 -11.73 L107.3 -11.2 L108.2 -10.61 L109.1 -9.943 L109.8 -9.215 L110.5 -8.427 L111.2 -7.585 L111.8 -6.694 L112.3 -5.76 L112.7 -4.788 L113.1 -3.785 L113.3 -2.757 L113.5 -1.711 L113.6 -0.6526 L113.7 0.4109 L113.6 1.473 L113.5 2.526 L113.2 3.565 L112.9 4.582 L112.5 5.572 L112.1 6.527 L111.5 7.442 L110.9 8.311 L110.2 9.128 L109.5 9.889 L108.7 10.59 L107.8 11.22 L106.9 11.79 L106 12.28 L105 12.69 L104 13.02 L102.9 13.28 L101.9 13.45 L100.8 13.53 L99.77 13.53 L98.71 13.45 L97.66 13.28 L96.63 13.03 L95.62 12.7 L94.64 12.29 L93.69 11.81 L92.79 11.24 L91.93 10.61 L91.13 9.917 L90.38 9.158 L89.7 8.343 L89.08 7.476 L88.54 6.563 L88.07 5.609 L87.67 4.621 L87.36 3.604 L87.13 2.566 L86.98 1.513 L86.91 0.4514 L86.93 -0.6121 L87.03 -1.671 L87.22 -2.718 L87.49 -3.747 L87.84 -4.751 L88.27 -5.724 L88.78 -6.659 L89.36 -7.552 L90.01 -8.396 L90.72 -9.186 L91.49 -9.916 L92.32 -10.58 L93.2 -11.18 L94.12 -11.71 L95.09 -12.16 L96.08 -12.54 L97.1 -12.83 L98.15 -13.04 L99.2 -13.17 L100.3 -13.21 L101.3 -13.17 L102.4 -13.05 Z " />
<path stroke="rgb(0,0,0)" stroke-opacity="1" fill="rgb(255,255,255)" fill-opacity="1" d="M87.64 -112.3 L88.63 -112.3 L89.63 -112.3 L90.63 -112.3 L91.63 -112.3 L92.63 -112.3 L93.62 -112.3 L94.62 -112.3 L95.62 -112.3 L96.62 -112.3 L97.61 -112.3 L98.61 -112.3 L99.61 -112.3 L100.6 -112.3 L101.6 -112.3 L102.6 -112.3 L103.6 -112.3 L104.6 -112.3 L105.6 -112.3 L106.6 -112.3 L107.6 -112.3 L108.6 -112.4 L109.6 -112.4 L110.6 -112.4 L111.6 -112.4 L112.6 -112.4 L112.6 -111.4 L112.6 -110.4 L112.6 -109.4 L112.6 -108.4 L112.6 -107.4 L112.6 -106.4 L112.6 -105.4 L112.6 -104.4 L112.6 -103.4 L112.6 -102.4 L112.6 -101.4 L112.6 -100.4 L112.6 -99.39 L112.6 -98.39 L112.6 -97.4 L112.6 -96.4 L112.6 -95.4 L112.6 -94.4 L112.6 -93.41 L112.6 -92.41 L112.6 -91.41 L112.6 -90.41 L112.7 -89.41 L112.7 -88.42 L112.7 -87.42 L111.7 -87.42 L110.7 -87.41 L109.7 -87.41 L108.7 -87.41 L107.7 -87.4 L106.7 -87.4 L105.7 -87.4 L104.7 -87.39 L103.7 -87.39 L102.7 -87.39 L101.7 -87.39 L100.7 -87.38 L99.68 -87.38 L98.69 -87.38 L97.69 -87.37 L96.69 -87.37 L95.69 -87.37 L94.7 -87.37 L93.7 -87.36 L92.7 -87.36 L91.7 -87.36 L90.7 -87.35 L89.71 -87.35 L88.71 -87.35 L87.71 -87.34 L87.71 -88.34 L87.7 -89.34 L87.7 -90.34 L87.7 -91.34 L87.7 -92.33 L87.69 -93.33 L87.69 -94.33 L87.69 -95.33 L87.68 -96.32 L87.68 -97.32 L87.68 -98.32 L87.67 -99.32 L87.67 -100.3 L87.67 -101.3 L87.67 -102.3 L87.66 -103.3 L87.66 -104.3 L87.66 -105.3 L87.65 -106.3 L87.65 -107.3 L87.65 -108.3 L87.65 -109.3 L87.64 -110.3 L87.64 -111.3 L87.64 -112.3 Z " />
<path stroke="rgb(0,0,0)" stroke-opacity="1" fill="rgb(255,255,255)" fill-opacity="1" d="M300.3 -12.34 L301.3 -12.29 L302.3 -12.17 L303.3 -11.98 L304.2 -11.7 L305.2 -11.35 L306.1 -10.93 L306.9 -10.44 L307.8 -9.877 L308.5 -9.254 L309.3 -8.571 L309.9 -7.834 L310.5 -7.045 L311.1 -6.211 L311.5 -5.337 L311.9 -4.429 L312.3 -3.491 L312.5 -2.53 L312.7 -1.552 L312.8 -0.5636 L312.8 0.4295 L312.7 1.421 L312.6 2.404 L312.4 3.374 L312.1 4.322 L311.7 5.245 L311.3 6.135 L310.8 6.988 L310.2 7.797 L309.6 8.558 L308.9 9.266 L308.1 9.917 L307.3 10.51 L306.5 11.03 L305.6 11.48 L304.7 11.87 L303.7 12.17 L302.8 12.41 L301.8 12.56 L300.8 12.64 L299.8 12.64 L298.8 12.56 L297.8 12.4 L296.9 12.16 L295.9 11.85 L295 11.46 L294.1 11 L293.3 10.48 L292.5 9.885 L291.7 9.232 L291 8.521 L290.4 7.758 L289.8 6.946 L289.3 6.091 L288.9 5.199 L288.5 4.275 L288.2 3.325 L288 2.355 L287.9 1.371 L287.8 0.3795 L287.8 -0.6135 L287.9 -1.602 L288.1 -2.579 L288.4 -3.539 L288.7 -4.475 L289.1 -5.382 L289.6 -6.254 L290.1 -7.086 L290.7 -7.872 L291.4 -8.607 L292.1 -9.287 L292.9 -9.907 L293.7 -10.46 L294.6 -10.95 L295.5 -11.37 L296.4 -11.72 L297.4 -11.99 L298.4 -12.18 L299.3 -12.3 L300.3 -12.34 Z " />
<path stroke="rgb(0,0,0)" stroke-opacity="1" fill="rgb(255,255,255)" fill-opacity="1" d="M-412.6 -12.61 L-411.6 -12.61 L-410.6 -12.61 L-409.6 -12.61 L-408.6 -12.61 L-407.6 -12.6 L-406.6 -12.6 L-405.6 -12.6 L-404.6 -12.6 L-403.6 -12.6 L-402.6 -12.6 L-401.6 -12.6 L-400.6 -12.6 L-399.6 -12.59 L-398.6 -12.59 L-397.6 -12.59 L-396.6 -12.59 L-395.6 -12.59 L-394.6 -12.59 L-393.6 -12.59 L-392.6 -12.59 L-391.6 -12.58 L-390.6 -12.58 L-389.6 -12.58 L-388.6 -12.58 L-387.6 -12.58 L-387.6 -11.58 L-387.6 -10.58 L-387.6 -9.586 L-387.6 -8.588 L-387.6 -7.59 L-387.6 -6.592 L-387.6 -5.594 L-387.6 -4.597 L-387.6 -3.599 L-387.6 -2.601 L-387.6 -1.603 L-387.6 -0.6053 L-387.6 0.3926 L-387.7 1.39 L-387.7 2.388 L-387.7 3.386 L-387.7 4.384 L-387.7 5.382 L-387.7 6.38 L-387.7 7.377 L-387.7 8.375 L-387.7 9.373 L-387.7 10.37 L-387.7 11.37 L-387.7 12.37 L-388.7 12.37 L-389.7 12.36 L-390.7 12.36 L-391.7 12.36 L-392.7 12.36 L-393.7 12.36 L-394.6 12.36 L-395.6 12.36 L-396.6 12.36 L-397.6 12.35 L-398.6 12.35 L-399.6 12.35 L-400.6 12.35 L-401.6 12.35 L-402.6 12.35 L-403.6 12.35 L-404.6 12.35 L-405.6 12.34 L-406.6 12.34 L-407.6 12.34 L-408.6 12.34 L-409.6 12.34 L-410.6 12.34 L-411.6 12.34 L-412.6 12.34 L-412.6 11.34 L-412.6 10.34 L-412.6 9.342 L-412.6 8.345 L-412.6 7.347 L-412.6 6.349 L-412.6 5.351 L-412.6 4.353 L-412.6 3.355 L-412.6 2.358 L-412.6 1.36 L-412.6 0.3618 L-412.6 -0.636 L-412.6 -1.634 L-412.6 -2.632 L-412.6 -3.63 L-412.6 -4.627 L-412.6 -5.625 L-412.6 -6.623 L-412.6 -7.621 L-412.6 -8.619 L-412.6 -9.617 L-412.6 -10.61 L-412.6 -11.61 L-412.6 -12.61 Z " />
<path stroke="rgb(0,0,0)" stroke-opacity="1" fill="rgb(255,255,255)" fill-opacity="1" d="M-184.1 89.3 L-183.3 90.58 L-182.6 91.93 L-182 93.33 L-181.5 94.77 L-181.2 96.24 L-180.9 97.74 L-180.8 99.26 L-180.8 100.8 L-180.9 102.3 L-181.1 103.8 L-181.5 105.3 L-181.9 106.7 L-182.5 108.1 L-183.2 109.5 L-184 110.8 L-184.9 112 L-185.9 113.2 L-187 114.2 L-188.1 115.2 L-189.4 116.1 L-190.7 116.9 L-192 117.6 L-193.4 118.1 L-194.9 118.6 L-196.4 118.9 L-197.9 119.1 L-199.4 119.2 L-200.9 119.2 L-202.4 119.1 L-203.9 118.8 L-205.4 118.4 L-206.8 117.9 L-208.2 117.3 L-209.6 116.6 L-210.8 115.8 L-212 114.9 L-213.2 113.9 L-214.2 112.8 L-215.2 111.6 L-216 110.3 L-216.8 109 L-217.5 107.6 L-218 106.2 L-218.4 104.8 L-218.7 103.3 L-218.9 101.8 L-219 100.3 L-218.9 98.74 L-218.8 97.23 L-218.5 95.73 L-218.1 94.27 L-217.6 92.84 L-216.9 91.46 L-216.2 90.14 L-215.3 88.87 L-214.4 87.68 L-213.4 86.57 L-212.2 85.54 L-211 84.61 L-209.8 83.77 L-208.4 83.04 L-207 82.41 L-205.6 81.9 L-204.1 81.5 L-202.7 81.22 L-201.1 81.06 L-199.6 81.02 L-198.1 81.1 L-196.6 81.3 L-195.1 81.62 L-193.7 82.06 L-192.2 82.61 L-190.9 83.28 L-189.6 84.05 L-188.3 84.92 L-187.1 85.88 L-186.1 86.94 L-185 88.08 L-184.1 89.3 Z " />
<path stroke="rgb(0,0,0)" stroke-opacity="1" fill="rgb(255,255,255)" fill-opacity="1" d="M-212.6 -12.61 L-211.6 -12.61 L-210.6 -12.61 L-209.6 -12.61 L-208.6 -12.61 L-207.6 -12.6 L-206.6 -12.6 L-205.6 -12.6 L-204.6 -12.6 L-203.6 -12.6 L-202.6 -12.6 L-201.6 -12.6 L-200.6 -12.6 L-199.6 -12.59 L-198.6 -12.59 L-197.6 -12.59 L-196.6 -12.59 L-195.6 -12.59 L-194.6 -12.59 L-193.6 -12.59 L-192.6 -12.59 L-191.6 -12.58 L-190.6 -12.58 L-189.6 -12.58 L-188.6 -12.58 L-187.6 -12.58 L-187.6 -11.58 L-187.6 -10.58 L-187.6 -9.586 L-187.6 -8.588 L-187.6 -7.59 L-187.6 -6.592 L-187.6 -5.594 L-187.6 -4.597 L-187.6 -3.599 L-187.6 -2.601 L-187.6 -1.603 L-187.6 -0.6053 L-187.6 0.3926 L-187.7 1.39 L-187.7 2.388 L-187.7 3.386 L-187.7 4.384 L-187.7 5.382 L-187.7 6.38 L-187.7 7.377 L-187.7 8.375 L-187.7 9.373 L-187.7 10.37 L-187.7 11.37 L-187.7 12.37 L-188.7 12.37 L-189.7 12.36 L-190.7 12.36 L-191.7 12.36 L-192.7 12.36 L-193.7 12.36 L-194.6 12.36 L-195.6 12.36 L-196.6 12.36 L-197.6 12.35 L-198.6 12.35 L-199.6 12.35 L-200.6 12.35 L-201.6 12.35 L-202.6 12.35 L-203.6 12.35 L-204.6 12.35 L-205.6 12.34 L-206.6 12.34 L-207.6 12.34 L-208.6 12.34 L-209.6 12.34 L-210.6 12.34 L-211.6 12.34 L-212.6 12.34 L-212.6 11.34 L-212.6 10.34 L-212.6 9.342 L-212.6 8.345 L-212.6 7.347 L-212.6 6.349 L-212.6 5.351 L-212.6 4.353 L-212.6 3.355 L-212.6 2.358 L-212.6 1.36 L-212.6 0.3618 L-212.6 -0.636 L-212.6 -1.634 L-212.6 -2.632 L-212.6 -3.63 L-212.6 -4.627 L-212.6 -5.625 L-212.6 -6.623 L-212.6 -7.621 L-212.6 -8.619 L-212.6 -9.617 L-212.6 -10.61 L-212.6 -11.61 L-212.6 -12.61 Z " />
<path stroke="rgb(0,0,0)" stroke-opacity="1" fill="rgb(255,255,255)" fill-opacity="1" d="M2.385 86.95 L3.428 87.16 L4.452 87.45 L5.449 87.82 L6.413 88.27 L7.338 88.8 L8.219 89.39 L9.05 90.06 L9.825 90.79 L10.54 91.57 L11.19 92.41 L11.77 93.31 L12.28 94.24 L12.71 95.21 L13.07 96.21 L13.34 97.24 L13.53 98.29 L13.64 99.35 L13.66 100.4 L13.6 101.5 L13.45 102.5 L13.23 103.6 L12.91 104.6 L12.52 105.6 L12.05 106.5 L11.51 107.4 L10.9 108.3 L10.22 109.1 L9.474 109.9 L8.673 110.6 L7.818 111.2 L6.916 111.8 L5.972 112.3 L4.992 112.7 L3.982 113 L2.949 113.3 L1.899 113.4 L0.8384 113.5 L-0.2253 113.5 L-1.286 113.5 L-2.336 113.3 L-3.37 113 L-4.381 112.7 L-5.363 112.3 L-6.308 111.8 L-7.212 111.2 L-8.069 110.6 L-8.872 109.9 L-9.618 109.2 L-10.3 108.3 L-10.92 107.5 L-11.46 106.6 L-11.93 105.6 L-12.33 104.6 L-12.64 103.6 L-12.87 102.6 L-13.02 101.5 L-13.09 100.5 L-13.07 99.39 L-12.97 98.33 L-12.78 97.28 L-12.51 96.25 L-12.16 95.25 L-11.73 94.28 L-11.22 93.34 L-10.64 92.45 L-9.994 91.6 L-9.281 90.81 L-8.508 90.08 L-7.679 89.42 L-6.8 88.82 L-5.876 88.29 L-4.913 87.84 L-3.918 87.46 L-2.895 87.17 L-1.853 86.96 L-0.7968 86.83 L0.266 86.79 L1.329 86.83 L2.385 86.95 Z " />
<path stroke="rgb(0,0,0)" stroke-opacity="1" fill="rgb(255,255,255)" fill-opacity="1" d="M-12.36 -12.29 L-11.37 -12.29 L-10.37 -12.3 L-9.37 -12.3 L-8.372 -12.3 L-7.375 -12.31 L-6.377 -12.31 L-5.379 -12.31 L-4.381 -12.31 L-3.383 -12.32 L-2.385 -12.32 L-1.388 -12.32 L-0.3897 -12.33 L0.6081 -12.33 L1.606 -12.33 L2.604 -12.33 L3.602 -12.34 L4.599 -12.34 L5.597 -12.34 L6.595 -12.35 L7.593 -12.35 L8.591 -12.35 L9.589 -12.36 L10.59 -12.36 L11.58 -12.36 L12.58 -12.36 L12.59 -11.37 L12.59 -10.37 L12.59 -9.371 L12.59 -8.373 L12.6 -7.375 L12.6 -6.377 L12.6 -5.38 L12.61 -4.382 L12.61 -3.384 L12.61 -2.386 L12.61 -1.388 L12.62 -0.3904 L12.62 0.6074 L12.62 1.605 L12.63 2.603 L12.63 3.601 L12.63 4.599 L12.64 5.597 L12.64 6.594 L12.64 7.592 L12.64 8.59 L12.65 9.588 L12.65 10.59 L12.65 11.58 L12.66 12.58 L11.66 12.58 L10.66 12.59 L9.663 12.59 L8.665 12.59 L7.667 12.6 L6.669 12.6 L5.672 12.6 L4.674 12.61 L3.676 12.61 L2.678 12.61 L1.68 12.61 L0.6824 12.62 L-0.3155 12.62 L-1.313 12.62 L-2.311 12.63 L-3.309 12.63 L-4.307 12.63 L-5.305 12.63 L-6.303 12.64 L-7.3 12.64 L-8.298 12.64 L-9.296 12.65 L-10.29 12.65 L-11.29 12.65 L-12.29 12.66 L-12.29 11.66 L-12.3 10.66 L-12.3 9.662 L-12.3 8.664 L-12.3 7.666 L-12.31 6.669 L-12.31 5.671 L-12.31 4.673 L-12.32 3.675 L-12.32 2.677 L-12.32 1.679 L-12.33 0.6816 L-12.33 -0.3162 L-12.33 -1.314 L-12.33 -2.312 L-12.34 -3.31 L-12.34 -4.308 L-12.34 -5.305 L-12.35 -6.303 L-12.35 -7.301 L-12.35 -8.299 L-12.35 -9.297 L-12.36 -10.29 L-12.36 -11.29 L-12.36 -12.29 Z " />
<path stroke="rgb(0,0,0)" stroke-opacity="1" fill="rgb(255,255,255)" fill-opacity="1" d="M200.3 87.66 L201.3 87.71 L202.3 87.83 L203.3 88.02 L204.2 88.3 L205.2 88.65 L206.1 89.07 L206.9 89.56 L207.8 90.12 L208.5 90.75 L209.3 91.43 L209.9 92.17 L210.5 92.95 L211.1 93.79 L211.5 94.66 L211.9 95.57 L212.3 96.51 L212.5 97.47 L212.7 98.45 L212.8 99.44 L212.8 100.4 L212.7 101.4 L212.6 102.4 L212.4 103.4 L212.1 104.3 L211.7 105.2 L211.3 106.1 L210.8 107 L210.2 107.8 L209.6 108.6 L208.9 109.3 L208.1 109.9 L207.3 110.5 L206.5 111 L205.6 111.5 L204.7 111.9 L203.7 112.2 L202.8 112.4 L201.8 112.6 L200.8 112.6 L199.8 112.6 L198.8 112.6 L197.8 112.4 L196.9 112.2 L195.9 111.8 L195 111.5 L194.1 111 L193.3 110.5 L192.5 109.9 L191.7 109.2 L191 108.5 L190.4 107.8 L189.8 106.9 L189.3 106.1 L188.9 105.2 L188.5 104.3 L188.2 103.3 L188 102.4 L187.9 101.4 L187.8 100.4 L187.8 99.39 L187.9 98.4 L188.1 97.42 L188.4 96.46 L188.7 95.52 L189.1 94.62 L189.6 93.75 L190.1 92.91 L190.7 92.13 L191.4 91.39 L192.1 90.71 L192.9 90.09 L193.7 89.54 L194.6 89.05 L195.5 88.63 L196.4 88.28 L197.4 88.01 L198.4 87.82 L199.3 87.7 L200.3 87.66 Z " />
<path stroke="rgb(0,0,0)" stroke-opacity="1" fill="rgb(255,255,255)" fill-opacity="1" d="M189.7 -9.169 L190.7 -9.213 L191.7 -9.256 L192.7 -9.3 L193.7 -9.344 L194.7 -9.388 L195.7 -9.432 L196.7 -9.475 L197.7 -9.519 L198.7 -9.563 L199.7 -9.607 L200.7 -9.65 L201.7 -9.694 L202.7 -9.738 L203.7 -9.782 L204.7 -9.826 L205.7 -9.869 L206.7 -9.913 L207.7 -9.957 L208.7 -10 L209.7 -10.04 L210.7 -10.09 L211.7 -10.13 L212.7 -10.18 L213.7 -10.22 L214.7 -10.26 L214.7 -9.267 L214.8 -8.27 L214.8 -7.273 L214.8 -6.276 L214.9 -5.279 L214.9 -4.282 L215 -3.285 L215 -2.288 L215.1 -1.291 L215.1 -0.2943 L215.2 0.7026 L215.2 1.7 L215.2 2.696 L215.3 3.693 L215.3 4.69 L215.4 5.687 L215.4 6.684 L215.5 7.681 L215.5 8.678 L215.5 9.675 L215.6 10.67 L215.6 11.67 L215.7 12.67 L215.7 13.66 L215.8 14.66 L214.8 14.7 L213.8 14.75 L212.8 14.79 L211.8 14.83 L210.8 14.88 L209.8 14.92 L208.8 14.97 L207.8 15.01 L206.8 15.05 L205.8 15.1 L204.8 15.14 L203.8 15.18 L202.8 15.23 L201.8 15.27 L200.8 15.32 L199.8 15.36 L198.8 15.4 L197.8 15.45 L196.8 15.49 L195.8 15.54 L194.8 15.58 L193.8 15.62 L192.8 15.67 L191.8 15.71 L190.8 15.75 L190.8 14.76 L190.8 13.76 L190.7 12.76 L190.7 11.77 L190.6 10.77 L190.6 9.773 L190.5 8.776 L190.5 7.779 L190.4 6.782 L190.4 5.785 L190.4 4.788 L190.3 3.791 L190.3 2.794 L190.2 1.797 L190.2 0.8003 L190.1 -0.1966 L190.1 -1.194 L190.1 -2.19 L190 -3.187 L190 -4.184 L189.9 -5.181 L189.9 -6.178 L189.8 -7.175 L189.8 -8.172 L189.7 -9.169 Z " />
<path stroke="rgb(0,0,0)" stroke-opacity="1" fill="rgb(255,255,255)" fill-opacity="1" d="M-284.1 189.3 L-283.3 190.6 L-282.6 191.9 L-282 193.3 L-281.5 194.8 L-281.2 196.2 L-280.9 197.7 L-280.8 199.3 L-280.8 200.8 L-280.9 202.3 L-281.1 203.8 L-281.5 205.3 L-281.9 206.7 L-282.5 208.1 L-283.2 209.5 L-284 210.8 L-284.9 212 L-285.9 213.2 L-287 214.2 L-288.1 215.2 L-289.4 216.1 L-290.7 216.9 L-292 217.6 L-293.4 218.1 L-294.9 218.6 L-296.4 218.9 L-297.9 219.1 L-299.4 219.2 L-300.9 219.2 L-302.4 219.1 L-303.9 218.8 L-305.4 218.4 L-306.8 217.9 L-308.2 217.3 L-309.6 216.6 L-310.8 215.8 L-312 214.9 L-313.2 213.9 L-314.2 212.8 L-315.2 211.6 L-316 210.3 L-316.8 209 L-317.5 207.6 L-318 206.2 L-318.4 204.8 L-318.7 203.3 L-318.9 201.8 L-319 200.3 L-318.9 198.7 L-318.8 197.2 L-318.5 195.7 L-318.1 194.3 L-317.6 192.8 L-316.9 191.5 L-316.2 190.1 L-315.3 188.9 L-314.4 187.7 L-313.4 186.6 L-312.2 185.5 L-311 184.6 L-309.8 183.8 L-308.4 183 L-307 182.4 L-305.6 181.9 L-304.1 181.5 L-302.7 181.2 L-301.1 181.1 L-299.6 181 L-298.1 181.1 L-296.6 181.3 L-295.1 181.6 L-293.7 182.1 L-292.2 182.6 L-290.9 183.3 L-289.6 184 L-288.3 184.9 L-287.1 185.9 L-286.1 186.9 L-285 188.1 L-284.1 189.3 Z " />
<path stroke="rgb(0,0,0)" stroke-opacity="1" fill="rgb(255,255,255)" fill-opacity="1" d="M-312.6 87.39 L-311.6 87.39 L-310.6 87.39 L-309.6 87.39 L-308.6 87.39 L-307.6 87.4 L-306.6 87.4 L-305.6 87.4 L-304.6 87.4 L-303.6 87.4 L-302.6 87.4 L-301.6 87.4 L-300.6 87.4 L-299.6 87.41 L-298.6 87.41 L-297.6 87.41 L-296.6 87.41 L-295.6 87.41 L-294.6 87.41 L-293.6 87.41 L-292.6 87.41 L-291.6 87.42 L-290.6 87.42 L-289.6 87.42 L-288.6 87.42 L-287.6 87.42 L-287.6 88.42 L-287.6 89.42 L-287.6 90.41 L-287.6 91.41 L-287.6 92.41 L-287.6 93.41 L-287.6 94.41 L-287.6 95.4 L-287.6 96.4 L-287.6 97.4 L-287.6 98.4 L-287.6 99.39 L-287.6 100.4 L-287.7 101.4 L-287.7 102.4 L-287.7 103.4 L-287.7 104.4 L-287.7 105.4 L-287.7 106.4 L-287.7 107.4 L-287.7 108.4 L-287.7 109.4 L-287.7 110.4 L-287.7 111.4 L-287.7 112.4 L-288.7 112.4 L-289.7 112.4 L-290.7 112.4 L-291.7 112.4 L-292.7 112.4 L-293.7 112.4 L-294.6 112.4 L-295.6 112.4 L-296.6 112.4 L-297.6 112.4 L-298.6 112.4 L-299.6 112.4 L-300.6 112.4 L-301.6 112.3 L-302.6 112.3 L-303.6 112.3 L-304.6 112.3 L-305.6 112.3 L-306.6 112.3 L-307.6 112.3 L-308.6 112.3 L-309.6 112.3 L-310.6 112.3 L-311.6 112.3 L-312.6 112.3 L-312.6 111.3 L-312.6 110.3 L-312.6 109.3 L-312.6 108.3 L-312.6 107.3 L-312.6 106.3 L-312.6 105.4 L-312.6 104.4 L-312.6 103.4 L-312.6 102.4 L-312.6 101.4 L-312.6 100.4 L-312.6 99.36 L-312.6 98.37 L-312.6 97.37 L-312.6 96.37 L-312.6 95.37 L-312.6 94.37 L-312.6 93.38 L-312.6 92.38 L-312.6 91.38 L-312.6 90.38 L-312.6 89.39 L-312.6 88.39 L-312.6 87.39 Z " />
<path stroke="rgb(0,0,0)" stroke-opacity="1" fill="rgb(255,255,255)" fill-opacity="1" d="M-97.61 187 L-96.57 187.2 L-95.55 187.5 L-94.55 187.8 L-93.59 188.3 L-92.66 188.8 L-91.78 189.4 L-90.95 190.1 L-90.17 190.8 L-89.46 191.6 L-88.81 192.4 L-88.23 193.3 L-87.72 194.2 L-87.29 195.2 L-86.93 196.2 L-86.66 197.2 L-86.47 198.3 L-86.36 199.3 L-86.34 200.4 L-86.4 201.5 L-86.55 202.5 L-86.77 203.6 L-87.09 204.6 L-87.48 205.6 L-87.95 206.5 L-88.49 207.4 L-89.1 208.3 L-89.78 209.1 L-90.53 209.9 L-91.33 210.6 L-92.18 211.2 L-93.08 211.8 L-94.03 212.3 L-95.01 212.7 L-96.02 213 L-97.05 213.3 L-98.1 213.4 L-99.16 213.5 L-100.2 213.5 L-101.3 213.5 L-102.3 213.3 L-103.4 213 L-104.4 212.7 L-105.4 212.3 L-106.3 211.8 L-107.2 211.2 L-108.1 210.6 L-108.9 209.9 L-109.6 209.2 L-110.3 208.3 L-110.9 207.5 L-111.5 206.6 L-111.9 205.6 L-112.3 204.6 L-112.6 203.6 L-112.9 202.6 L-113 201.5 L-113.1 200.5 L-113.1 199.4 L-113 198.3 L-112.8 197.3 L-112.5 196.3 L-112.2 195.2 L-111.7 194.3 L-111.2 193.3 L-110.6 192.4 L-110 191.6 L-109.3 190.8 L-108.5 190.1 L-107.7 189.4 L-106.8 188.8 L-105.9 188.3 L-104.9 187.8 L-103.9 187.5 L-102.9 187.2 L-101.9 187 L-100.8 186.8 L-99.73 186.8 L-98.67 186.8 L-97.61 187 Z " />
<path stroke="rgb(0,0,0)" stroke-opacity="1" fill="rgb(255,255,255)" fill-opacity="1" d="M-112.4 87.71 L-111.4 87.71 L-110.4 87.7 L-109.4 87.7 L-108.4 87.7 L-107.4 87.69 L-106.4 87.69 L-105.4 87.69 L-104.4 87.69 L-103.4 87.68 L-102.4 87.68 L-101.4 87.68 L-100.4 87.67 L-99.39 87.67 L-98.39 87.67 L-97.4 87.67 L-96.4 87.66 L-95.4 87.66 L-94.4 87.66 L-93.4 87.65 L-92.41 87.65 L-91.41 87.65 L-90.41 87.64 L-89.41 87.64 L-88.42 87.64 L-87.42 87.64 L-87.41 88.63 L-87.41 89.63 L-87.41 90.63 L-87.41 91.63 L-87.4 92.62 L-87.4 93.62 L-87.4 94.62 L-87.39 95.62 L-87.39 96.62 L-87.39 97.61 L-87.39 98.61 L-87.38 99.61 L-87.38 100.6 L-87.38 101.6 L-87.37 102.6 L-87.37 103.6 L-87.37 104.6 L-87.36 105.6 L-87.36 106.6 L-87.36 107.6 L-87.36 108.6 L-87.35 109.6 L-87.35 110.6 L-87.35 111.6 L-87.34 112.6 L-88.34 112.6 L-89.34 112.6 L-90.34 112.6 L-91.33 112.6 L-92.33 112.6 L-93.33 112.6 L-94.33 112.6 L-95.33 112.6 L-96.32 112.6 L-97.32 112.6 L-98.32 112.6 L-99.32 112.6 L-100.3 112.6 L-101.3 112.6 L-102.3 112.6 L-103.3 112.6 L-104.3 112.6 L-105.3 112.6 L-106.3 112.6 L-107.3 112.6 L-108.3 112.6 L-109.3 112.6 L-110.3 112.6 L-111.3 112.7 L-112.3 112.7 L-112.3 111.7 L-112.3 110.7 L-112.3 109.7 L-112.3 108.7 L-112.3 107.7 L-112.3 106.7 L-112.3 105.7 L-112.3 104.7 L-112.3 103.7 L-112.3 102.7 L-112.3 101.7 L-112.3 100.7 L-112.3 99.68 L-112.3 98.69 L-112.3 97.69 L-112.3 96.69 L-112.3 95.69 L-112.3 94.69 L-112.3 93.7 L-112.3 92.7 L-112.4 91.7 L-112.4 90.7 L-112.4 89.71 L-112.4 88.71 L-112.4 87.71 Z " />
<path stroke="rgb(0,0,0)" stroke-opacity="1" fill="rgb(255,255,255)" fill-opacity="1" d="M100.3 187.7 L101.3 187.7 L102.3 187.8 L103.3 188 L104.2 188.3 L105.2 188.6 L106.1 189.1 L106.9 189.6 L107.8 190.1 L108.5 190.7 L109.3 191.4 L109.9 192.2 L110.5 193 L111.1 193.8 L111.5 194.7 L111.9 195.6 L112.3 196.5 L112.5 197.5 L112.7 198.4 L112.8 199.4 L112.8 200.4 L112.7 201.4 L112.6 202.4 L112.4 203.4 L112.1 204.3 L111.7 205.2 L111.3 206.1 L110.8 207 L110.2 207.8 L109.6 208.6 L108.9 209.3 L108.1 209.9 L107.3 210.5 L106.5 211 L105.6 211.5 L104.7 211.9 L103.7 212.2 L102.8 212.4 L101.8 212.6 L100.8 212.6 L99.79 212.6 L98.8 212.6 L97.82 212.4 L96.86 212.2 L95.91 211.8 L95 211.5 L94.12 211 L93.27 210.5 L92.48 209.9 L91.73 209.2 L91.03 208.5 L90.4 207.8 L89.83 206.9 L89.32 206.1 L88.88 205.2 L88.52 204.3 L88.23 203.3 L88.01 202.4 L87.88 201.4 L87.82 200.4 L87.84 199.4 L87.94 198.4 L88.12 197.4 L88.38 196.5 L88.71 195.5 L89.11 194.6 L89.59 193.7 L90.13 192.9 L90.74 192.1 L91.41 191.4 L92.13 190.7 L92.91 190.1 L93.73 189.5 L94.6 189 L95.5 188.6 L96.43 188.3 L97.38 188 L98.36 187.8 L99.34 187.7 L100.3 187.7 Z " />
<path stroke="rgb(0,0,0)" stroke-opacity="1" fill="rgb(255,255,255)" fill-opacity="1" d="M89.75 90.83 L90.74 90.79 L91.74 90.74 L92.74 90.7 L93.74 90.66 L94.73 90.61 L95.73 90.57 L96.73 90.52 L97.72 90.48 L98.72 90.44 L99.72 90.39 L100.7 90.35 L101.7 90.31 L102.7 90.26 L103.7 90.22 L104.7 90.17 L105.7 90.13 L106.7 90.09 L107.7 90.04 L108.7 90 L109.7 89.96 L110.7 89.91 L111.7 89.87 L112.7 89.82 L113.7 89.78 L114.7 89.74 L114.7 90.73 L114.8 91.73 L114.8 92.73 L114.8 93.72 L114.9 94.72 L114.9 95.72 L115 96.71 L115 97.71 L115.1 98.71 L115.1 99.71 L115.2 100.7 L115.2 101.7 L115.2 102.7 L115.3 103.7 L115.3 104.7 L115.4 105.7 L115.4 106.7 L115.5 107.7 L115.5 108.7 L115.5 109.7 L115.6 110.7 L115.6 111.7 L115.7 112.7 L115.7 113.7 L115.8 114.7 L114.8 114.7 L113.8 114.7 L112.8 114.8 L111.8 114.8 L110.8 114.9 L109.8 114.9 L108.8 115 L107.8 115 L106.8 115.1 L105.8 115.1 L104.8 115.1 L103.8 115.2 L102.8 115.2 L101.8 115.3 L100.8 115.3 L99.81 115.4 L98.82 115.4 L97.82 115.4 L96.82 115.5 L95.83 115.5 L94.83 115.6 L93.83 115.6 L92.84 115.7 L91.84 115.7 L90.84 115.8 L90.8 114.8 L90.75 113.8 L90.71 112.8 L90.67 111.8 L90.62 110.8 L90.58 109.8 L90.54 108.8 L90.49 107.8 L90.45 106.8 L90.4 105.8 L90.36 104.8 L90.32 103.8 L90.27 102.8 L90.23 101.8 L90.19 100.8 L90.14 99.8 L90.1 98.81 L90.05 97.81 L90.01 96.81 L89.97 95.82 L89.92 94.82 L89.88 93.82 L89.83 92.82 L89.79 91.83 L89.75 90.83 Z " />
<path stroke="rgb(0,0,0)" stroke-opacity="1" fill="rgb(255,255,255)" fill-opacity="1" d="M300.3 187.7 L301.3 187.7 L302.3 187.8 L303.3 188 L304.2 188.3 L305.2 188.6 L306.1 189.1 L306.9 189.6 L307.7 190.1 L308.5 190.7 L309.2 191.4 L309.9 192.2 L310.5 193 L311.1 193.8 L311.5 194.7 L311.9 195.6 L312.3 196.5 L312.5 197.5 L312.7 198.4 L312.8 199.4 L312.8 200.4 L312.7 201.4 L312.6 202.4 L312.4 203.4 L312.1 204.3 L311.7 205.2 L311.3 206.1 L310.8 207 L310.2 207.8 L309.6 208.6 L308.9 209.3 L308.1 209.9 L307.3 210.5 L306.5 211 L305.6 211.5 L304.7 211.9 L303.7 212.2 L302.8 212.4 L301.8 212.6 L300.8 212.6 L299.8 212.6 L298.8 212.6 L297.8 212.4 L296.9 212.2 L295.9 211.8 L295 211.5 L294.1 211 L293.3 210.5 L292.5 209.9 L291.7 209.2 L291 208.5 L290.4 207.8 L289.8 206.9 L289.3 206.1 L288.9 205.2 L288.5 204.3 L288.2 203.3 L288 202.4 L287.9 201.4 L287.8 200.4 L287.8 199.4 L287.9 198.4 L288.1 197.4 L288.4 196.5 L288.7 195.5 L289.1 194.6 L289.6 193.8 L290.1 192.9 L290.7 192.1 L291.4 191.4 L292.1 190.7 L292.9 190.1 L293.7 189.5 L294.6 189.1 L295.5 188.6 L296.4 188.3 L297.4 188 L298.4 187.8 L299.3 187.7 L300.3 187.7 Z " />
<path stroke="rgb(0,0,0)" stroke-opacity="1" fill="rgb(255,255,255)" fill-opacity="1" d="M-412.6 187.4 L-411.6 187.4 L-410.6 187.4 L-409.6 187.4 L-408.6 187.4 L-407.6 187.4 L-406.6 187.4 L-405.6 187.4 L-404.6 187.4 L-403.6 187.4 L-402.6 187.4 L-401.6 187.4 L-400.6 187.4 L-399.6 187.4 L-398.6 187.4 L-397.6 187.4 L-396.6 187.4 L-395.6 187.4 L-394.6 187.4 L-393.6 187.4 L-392.6 187.4 L-391.6 187.4 L-390.6 187.4 L-389.6 187.4 L-388.6 187.4 L-387.6 187.4 L-387.6 188.4 L-387.6 189.4 L-387.6 190.4 L-387.6 191.4 L-387.6 192.4 L-387.6 193.4 L-387.6 194.4 L-387.6 195.4 L-387.6 196.4 L-387.6 197.4 L-387.6 198.4 L-387.6 199.4 L-387.6 200.4 L-387.7 201.4 L-387.7 202.4 L-387.7 203.4 L-387.7 204.4 L-387.7 205.4 L-387.7 206.4 L-387.7 207.4 L-387.7 208.4 L-387.7 209.4 L-387.7 210.4 L-387.7 211.4 L-387.7 212.4 L-388.7 212.4 L-389.7 212.4 L-390.7 212.4 L-391.7 212.4 L-392.7 212.4 L-393.7 212.4 L-394.6 212.4 L-395.6 212.4 L-396.6 212.4 L-397.6 212.4 L-398.6 212.4 L-399.6 212.4 L-400.6 212.4 L-401.6 212.3 L-402.6 212.3 L-403.6 212.3 L-404.6 212.3 L-405.6 212.3 L-406.6 212.3 L-407.6 212.3 L-408.6 212.3 L-409.6 212.3 L-410.6 212.3 L-411.6 212.3 L-412.6 212.3 L-412.6 211.3 L-412.6 210.3 L-412.6 209.3 L-412.6 208.3 L-412.6 207.3 L-412.6 206.3 L-412.6 205.4 L-412.6 204.4 L-412.6 203.4 L-412.6 202.4 L-412.6 201.4 L-412.6 200.4 L-412.6 199.4 L-412.6 198.4 L-412.6 197.4 L-412.6 196.4 L-412.6 195.4 L-412.6 194.4 L-412.6 193.4 L-412.6 192.4 L-412.6 191.4 L-412.6 190.4 L-412.6 189.4 L-412.6 188.4 L-412.6 187.4 Z " />
<path stroke="rgb(0,0,0)" stroke-opacity="1" fill="rgb(255,255,255)" fill-opacity="1" d="M-197.6 287 L-196.6 287.2 L-195.5 287.5 L-194.6 287.8 L-193.6 288.3 L-192.7 288.8 L-191.8 289.4 L-190.9 290.1 L-190.2 290.8 L-189.5 291.6 L-188.8 292.4 L-188.2 293.3 L-187.7 294.2 L-187.3 295.2 L-186.9 296.2 L-186.7 297.2 L-186.5 298.3 L-186.4 299.3 L-186.3 300.4 L-186.4 301.5 L-186.5 302.5 L-186.8 303.6 L-187.1 304.6 L-187.5 305.6 L-187.9 306.5 L-188.5 307.4 L-189.1 308.3 L-189.8 309.1 L-190.5 309.9 L-191.3 310.6 L-192.2 311.2 L-193.1 311.8 L-194 312.3 L-195 312.7 L-196 313 L-197.1 313.3 L-198.1 313.4 L-199.2 313.5 L-200.2 313.5 L-201.3 313.5 L-202.3 313.3 L-203.4 313 L-204.4 312.7 L-205.4 312.3 L-206.3 311.8 L-207.2 311.2 L-208.1 310.6 L-208.9 309.9 L-209.6 309.2 L-210.3 308.3 L-210.9 307.5 L-211.5 306.6 L-211.9 305.6 L-212.3 304.6 L-212.6 303.6 L-212.9 302.6 L-213 301.5 L-213.1 300.5 L-213.1 299.4 L-213 298.3 L-212.8 297.3 L-212.5 296.3 L-212.2 295.2 L-211.7 294.3 L-211.2 293.3 L-210.6 292.4 L-210 291.6 L-209.3 290.8 L-208.5 290.1 L-207.7 289.4 L-206.8 288.8 L-205.9 288.3 L-204.9 287.8 L-203.9 287.5 L-202.9 287.2 L-201.9 287 L-200.8 286.8 L-199.7 286.8 L-198.7 286.8 L-197.6 287 Z " />
<path stroke="rgb(0,0,0)" stroke-opacity="1" fill="rgb(255,255,255)" fill-opacity="1" d="M-212.4 187.7 L-211.4 187.7 L-210.4 187.7 L-209.4 187.7 L-208.4 187.7 L-207.4 187.7 L-206.4 187.7 L-205.4 187.7 L-204.4 187.7 L-203.4 187.7 L-202.4 187.7 L-201.4 187.7 L-200.4 187.7 L-199.4 187.7 L-198.4 187.7 L-197.4 187.7 L-196.4 187.7 L-195.4 187.7 L-194.4 187.7 L-193.4 187.7 L-192.4 187.7 L-191.4 187.6 L-190.4 187.6 L-189.4 187.6 L-188.4 187.6 L-187.4 187.6 L-187.4 188.6 L-187.4 189.6 L-187.4 190.6 L-187.4 191.6 L-187.4 192.6 L-187.4 193.6 L-187.4 194.6 L-187.4 195.6 L-187.4 196.6 L-187.4 197.6 L-187.4 198.6 L-187.4 199.6 L-187.4 200.6 L-187.4 201.6 L-187.4 202.6 L-187.4 203.6 L-187.4 204.6 L-187.4 205.6 L-187.4 206.6 L-187.4 207.6 L-187.4 208.6 L-187.4 209.6 L-187.3 210.6 L-187.3 211.6 L-187.3 212.6 L-188.3 212.6 L-189.3 212.6 L-190.3 212.6 L-191.3 212.6 L-192.3 212.6 L-193.3 212.6 L-194.3 212.6 L-195.3 212.6 L-196.3 212.6 L-197.3 212.6 L-198.3 212.6 L-199.3 212.6 L-200.3 212.6 L-201.3 212.6 L-202.3 212.6 L-203.3 212.6 L-204.3 212.6 L-205.3 212.6 L-206.3 212.6 L-207.3 212.6 L-208.3 212.6 L-209.3 212.6 L-210.3 212.6 L-211.3 212.7 L-212.3 212.7 L-212.3 211.7 L-212.3 210.7 L-212.3 209.7 L-212.3 208.7 L-212.3 207.7 L-212.3 206.7 L-212.3 205.7 L-212.3 204.7 L-212.3 203.7 L-212.3 202.7 L-212.3 201.7 L-212.3 200.7 L-212.3 199.7 L-212.3 198.7 L-212.3 197.7 L-212.3 196.7 L-212.3 195.7 L-212.3 194.7 L-212.3 193.7 L-212.3 192.7 L-212.4 191.7 L-212.4 190.7 L-212.4 189.7 L-212.4 188.7 L-212.4 187.7 Z " />
<path stroke="rgb(0,0,0)" stroke-opacity="1" fill="rgb(255,255,255)" fill-opacity="1" d="M0.3372 287.7 L1.33 287.7 L2.316 287.8 L3.289 288 L4.244 288.3 L5.173 288.6 L6.072 289.1 L6.935 289.6 L7.755 290.1 L8.529 290.7 L9.251 291.4 L9.916 292.2 L10.52 293 L11.06 293.8 L11.53 294.7 L11.93 295.6 L12.26 296.5 L12.51 297.5 L12.69 298.4 L12.78 299.4 L12.8 300.4 L12.74 301.4 L12.6 302.4 L12.38 303.4 L12.09 304.3 L11.72 305.2 L11.28 306.1 L10.77 307 L10.2 307.8 L9.557 308.6 L8.86 309.3 L8.109 309.9 L7.309 310.5 L6.465 311 L5.582 311.5 L4.665 311.9 L3.721 312.2 L2.755 312.4 L1.774 312.6 L0.7839 312.6 L-0.2095 312.6 L-1.199 312.6 L-2.18 312.4 L-3.145 312.2 L-4.087 311.8 L-5.003 311.5 L-5.884 311 L-6.726 310.5 L-7.524 309.9 L-8.272 309.2 L-8.966 308.5 L-9.601 307.8 L-10.17 306.9 L-10.68 306.1 L-11.12 305.2 L-11.48 304.3 L-11.77 303.3 L-11.99 302.4 L-12.12 301.4 L-12.18 300.4 L-12.16 299.4 L-12.06 298.4 L-11.88 297.4 L-11.62 296.5 L-11.29 295.5 L-10.89 294.6 L-10.41 293.7 L-9.867 292.9 L-9.259 292.1 L-8.591 291.4 L-7.867 290.7 L-7.091 290.1 L-6.268 289.5 L-5.403 289 L-4.503 288.6 L-3.572 288.3 L-2.616 288 L-1.642 287.8 L-0.6554 287.7 L0.3372 287.7 Z " />
<path stroke="rgb(0,0,0)" stroke-opacity="1" fill="rgb(255,255,255)" fill-opacity="1" d="M-10.25 190.8 L-9.256 190.8 L-8.259 190.7 L-7.262 190.7 L-6.265 190.7 L-5.268 190.6 L-4.271 190.6 L-3.274 190.5 L-2.277 190.5 L-1.28 190.4 L-0.2835 190.4 L0.7134 190.3 L1.71 190.3 L2.707 190.3 L3.704 190.2 L4.701 190.2 L5.698 190.1 L6.695 190.1 L7.692 190 L8.689 190 L9.686 190 L10.68 189.9 L11.68 189.9 L12.68 189.8 L13.67 189.8 L14.67 189.7 L14.71 190.7 L14.76 191.7 L14.8 192.7 L14.85 193.7 L14.89 194.7 L14.93 195.7 L14.98 196.7 L15.02 197.7 L15.06 198.7 L15.11 199.7 L15.15 200.7 L15.2 201.7 L15.24 202.7 L15.28 203.7 L15.33 204.7 L15.37 205.7 L15.41 206.7 L15.46 207.7 L15.5 208.7 L15.55 209.7 L15.59 210.7 L15.63 211.7 L15.68 212.7 L15.72 213.7 L15.76 214.7 L14.77 214.7 L13.77 214.7 L12.77 214.8 L11.78 214.8 L10.78 214.9 L9.783 214.9 L8.786 215 L7.79 215 L6.793 215.1 L5.796 215.1 L4.799 215.1 L3.802 215.2 L2.805 215.2 L1.808 215.3 L0.8111 215.3 L-0.1858 215.4 L-1.183 215.4 L-2.18 215.4 L-3.177 215.5 L-4.173 215.5 L-5.17 215.6 L-6.167 215.6 L-7.164 215.7 L-8.161 215.7 L-9.158 215.8 L-9.202 214.8 L-9.246 213.8 L-9.289 212.8 L-9.333 211.8 L-9.377 210.8 L-9.421 209.8 L-9.465 208.8 L-9.508 207.8 L-9.552 206.8 L-9.596 205.8 L-9.64 204.8 L-9.683 203.8 L-9.727 202.8 L-9.771 201.8 L-9.815 200.8 L-9.859 199.8 L-9.902 198.8 L-9.946 197.8 L-9.99 196.8 L-10.03 195.8 L-10.08 194.8 L-10.12 193.8 L-10.17 192.8 L-10.21 191.8 L-10.25 190.8 Z " />
<path stroke="rgb(0,0,0)" stroke-opacity="1" fill="rgb(255,255,255)" fill-opacity="1" d="M200.3 287.7 L201.3 287.7 L202.3 287.8 L203.3 288 L204.2 288.3 L205.2 288.6 L206.1 289.1 L206.9 289.6 L207.7 290.1 L208.5 290.7 L209.2 291.4 L209.9 292.2 L210.5 293 L211.1 293.8 L211.5 294.7 L211.9 295.6 L212.3 296.5 L212.5 297.5 L212.7 298.4 L212.8 299.4 L212.8 300.4 L212.7 301.4 L212.6 302.4 L212.4 303.4 L212.1 304.3 L211.7 305.2 L211.3 306.1 L210.8 307 L210.2 307.8 L209.6 308.6 L208.9 309.3 L208.1 309.9 L207.3 310.5 L206.5 311 L205.6 311.5 L204.7 311.9 L203.7 312.2 L202.8 312.4 L201.8 312.6 L200.8 312.6 L199.8 312.6 L198.8 312.6 L197.8 312.4 L196.9 312.2 L195.9 311.8 L195 311.5 L194.1 311 L193.3 310.5 L192.5 309.9 L191.7 309.2 L191 308.5 L190.4 307.8 L189.8 306.9 L189.3 306.1 L188.9 305.2 L188.5 304.3 L188.2 303.3 L188 302.4 L187.9 301.4 L187.8 300.4 L187.8 299.4 L187.9 298.4 L188.1 297.4 L188.4 296.5 L188.7 295.5 L189.1 294.6 L189.6 293.8 L190.1 292.9 L190.7 292.1 L191.4 291.4 L192.1 290.7 L192.9 290.1 L193.7 289.5 L194.6 289.1 L195.5 288.6 L196.4 288.3 L197.4 288 L198.4 287.8 L199.3 287.7 L200.3 287.7 Z " />
<path stroke="rgb(0,0,0)" stroke-opacity="1" fill="rgb(255,255,255)" fill-opacity="1" d="M196.1 200.2 L197.1 200.1 L198.1 199.9 L199.1 199.7 L200.1 199.6 L201.1 199.4 L202.1 199.2 L203 199.1 L204 198.9 L205 198.7 L206 198.6 L207 198.4 L208 198.2 L208.9 198.1 L209.9 197.9 L210.9 197.8 L211.9 197.6 L212.9 197.4 L213.9 197.3 L214.9 197.1 L215.8 196.9 L216.8 196.8 L217.8 196.6 L218.8 196.4 L219.8 196.3 L220.8 196.1 L220.9 197.1 L221.1 198.1 L221.2 199.1 L221.4 200 L221.6 201 L221.7 202 L221.9 203 L222.1 204 L222.2 205 L222.4 206 L222.6 206.9 L222.7 207.9 L222.9 208.9 L223.1 209.9 L223.2 210.9 L223.4 211.9 L223.6 212.8 L223.7 213.8 L223.9 214.8 L224 215.8 L224.2 216.8 L224.4 217.8 L224.5 218.7 L224.7 219.7 L224.9 220.7 L223.9 220.9 L222.9 221 L221.9 221.2 L220.9 221.4 L219.9 221.5 L219 221.7 L218 221.9 L217 222 L216 222.2 L215 222.4 L214 222.5 L213.1 222.7 L212.1 222.9 L211.1 223 L210.1 223.2 L209.1 223.3 L208.1 223.5 L207.1 223.7 L206.2 223.8 L205.2 224 L204.2 224.2 L203.2 224.3 L202.2 224.5 L201.2 224.7 L200.3 224.8 L200.1 223.8 L199.9 222.9 L199.8 221.9 L199.6 220.9 L199.4 219.9 L199.3 218.9 L199.1 217.9 L198.9 216.9 L198.8 216 L198.6 215 L198.4 214 L198.3 213 L198.1 212 L198 211 L197.8 210.1 L197.6 209.1 L197.5 208.1 L197.3 207.1 L197.1 206.1 L197 205.1 L196.8 204.2 L196.6 203.2 L196.5 202.2 L196.3 201.2 L196.1 200.2 Z " />
</g>
</g>
</svg>
