<!DOCTYPE svg>
<svg xmlns="http://www.w3.org/2000/svg" xmlns:xlink="http://www.w3.org/1999/xlink" width="560" height="560">
<g transform="translate(280.000000,280.000000)">
<g transform="scale(3.000000,3.000000)">
<path stroke="rgb(0,0,0)" stroke-opacity="1" fill="rgb(255,255,255)" fill-opacity="1" d="M-883.9 -910 L-884.2 -908.9 L-884.5 -907.9 L-884.7 -906.8 L-885 -905.8 L-885.2 -904.7 L-885.5 -903.7 L-885.8 -902.6 L-886 -901.6 L-886.3 -900.5 L-886.6 -899.5 L-886.8 -898.4 L-887.1 -897.4 L-887.4 -896.3 L-887.6 -895.2 L-887.9 -894.2 L-888.2 -893.1 L-888.4 -892.1 L-888.7 -891 L-889 -890 L-889.2 -888.9 L-889.5 -887.9 L-889.8 -886.8 L-890 -885.8 L-890.3 -884.7 L-890.5 -883.7 L-891.6 -883.9 L-892.7 -884.2 L-893.7 -884.5 L-894.8 -884.7 L-895.8 -885 L-896.9 -885.3 L-897.9 -885.5 L-899 -885.8 L-900 -886 L-901.1 -886.3 L-902.1 -886.6 L-903.2 -886.8 L-904.2 -887.1 L-905.3 -887.4 L-906.3 -887.6 L-907.4 -887.9 L-908.4 -888.2 L-909.5 -888.4 L-910.6 -888.7 L-911.6 -889 L-912.7 -889.2 L-913.7 -889.5 L-914.8 -889.8 L-915.8 -890 L-916.9 -890.3 L-916.6 -891.3 L-916.3 -892.4 L-916.1 -893.4 L-915.8 -894.5 L-915.5 -895.6 L-915.3 -896.6 L-915 -897.7 L-914.8 -898.7 L-914.5 -899.8 L-914.2 -900.8 L-914 -901.9 L-913.7 -902.9 L-913.4 -904 L-913.2 -905 L-912.9 -906.1 L-912.6 -907.1 L-912.4 -908.2 L-912.1 -909.2 L-911.8 -910.3 L-911.6 -911.3 L-911.3 -912.4 L-911 -913.5 L-910.8 -914.5 L-910.5 -915.6 L-910.2 -916.6 L-909.2 -916.3 L-908.1 -916.1 L-907.1 -915.8 L-906 -915.6 L-905 -915.3 L-903.9 -915 L-902.9 -914.8 L-901.8 -914.5 L-900.8 -914.2 L-899.7 -914 L-898.7 -913.7 L-897.6 -913.4 L-896.6 -913.2 L-895.5 -912.9 L-894.5 -912.6 L-893.4 -912.4 L-892.3 -912.1 L-891.3 -911.8 L-890.2 -911.6 L-889.2 -911.3 L-888.1 -911 L-887.1 -910.8 L-886 -910.5 L-885 -910.3 L-883.9 -910 Z " />
<path stroke="rgb(0,0,0)" stroke-opacity="0.924" fill="rgb(255,255,255)" fill-opacity="1" d="M-175.4 -300 L-175.4 -298 L-175.7 -296.1 L-176.1 -294.2 L-176.6 -292.3 L-177.3 -290.5 L-178.1 -288.7 L-179.1 -287 L-180.2 -285.4 L-181.4 -283.8 L-182.8 -282.4 L-184.2 -281.1 L-185.8 -279.9 L-187.4 -278.8 L-189.1 -277.9 L-190.9 -277.1 L-192.8 -276.5 L-194.7 -276 L-196.6 -275.6 L-198.5 -275.4 L-200.5 -275.4 L-202.4 -275.5 L-204.4 -275.8 L-206.3 -276.2 L-208.2 -276.8 L-210 -277.5 L-211.7 -278.3 L-213.4 -279.4 L-215 -280.5 L-216.5 -281.7 L-217.9 -283.1 L-219.2 -284.6 L-220.4 -286.2 L-221.4 -287.8 L-222.3 -289.6 L-223.1 -291.4 L-223.7 -293.2 L-224.1 -295.1 L-224.5 -297.1 L-224.6 -299 L-224.6 -301 L-224.5 -302.9 L-224.1 -304.9 L-223.7 -306.8 L-223.1 -308.6 L-222.3 -310.4 L-221.4 -312.2 L-220.4 -313.8 L-219.2 -315.4 L-217.9 -316.9 L-216.5 -318.3 L-215 -319.5 L-213.4 -320.6 L-211.7 -321.7 L-210 -322.5 L-208.2 -323.2 L-206.3 -323.8 L-204.4 -324.2 L-202.4 -324.5 L-200.5 -324.6 L-198.5 -324.6 L-196.6 -324.4 L-194.7 -324 L-192.8 -323.5 L-190.9 -322.9 L-189.1 -322.1 L-187.4 -321.2 L-185.8 -320.1 L-184.2 -318.9 L-182.8 -317.6 L-181.4 -316.2 L-180.2 -314.6 L-179.1 -313 L-178.1 -311.3 L-177.3 -309.5 L-176.6 -307.7 L-176.1 -305.8 L-175.7 -303.9 L-175.4 -302 L-175.4 -300 Z " />
<path stroke="rgb(0,0,0)" stroke-opacity="1" fill="rgb(255,255,255)" fill-opacity="1" d="M-675.3 -898.2 L-676.4 -897.2 L-677.5 -896.3 L-678.6 -895.4 L-679.7 -894.5 L-680.8 -893.6 L-681.8 -892.6 L-682.9 -891.7 L-684 -890.8 L-685.1 -889.9 L-686.2 -888.9 L-687.3 -888 L-688.4 -887.1 L-689.5 -886.2 L-690.6 -885.2 L-691.7 -884.3 L-692.8 -883.4 L-693.8 -882.5 L-694.9 -881.5 L-696 -880.6 L-697.1 -879.7 L-698.2 -878.8 L-699.3 -877.8 L-700.4 -876.9 L-701.5 -876 L-702.6 -875.1 L-703.5 -876.2 L-704.4 -877.3 L-705.3 -878.3 L-706.3 -879.4 L-707.2 -880.5 L-708.1 -881.6 L-709 -882.7 L-710 -883.8 L-710.9 -884.9 L-711.8 -886 L-712.7 -887.1 L-713.7 -888.2 L-714.6 -889.3 L-715.5 -890.3 L-716.4 -891.4 L-717.4 -892.5 L-718.3 -893.6 L-719.2 -894.7 L-720.1 -895.8 L-721 -896.9 L-722 -898 L-722.9 -899.1 L-723.8 -900.2 L-724.7 -901.3 L-725.7 -902.3 L-724.6 -903.3 L-723.5 -904.2 L-722.4 -905.1 L-721.3 -906 L-720.2 -907 L-719.1 -907.9 L-718 -908.8 L-716.9 -909.7 L-715.8 -910.7 L-714.8 -911.6 L-713.7 -912.5 L-712.6 -913.4 L-711.5 -914.4 L-710.4 -915.3 L-709.3 -916.2 L-708.2 -917.1 L-707.1 -918 L-706 -919 L-704.9 -919.9 L-703.9 -920.8 L-702.8 -921.7 L-701.7 -922.7 L-700.6 -923.6 L-699.5 -924.5 L-698.4 -925.4 L-697.5 -924.3 L-696.6 -923.3 L-695.6 -922.2 L-694.7 -921.1 L-693.8 -920 L-692.9 -918.9 L-691.9 -917.8 L-691 -916.7 L-690.1 -915.6 L-689.2 -914.5 L-688.2 -913.4 L-687.3 -912.3 L-686.4 -911.3 L-685.5 -910.2 L-684.5 -909.1 L-683.6 -908 L-682.7 -906.9 L-681.8 -905.8 L-680.8 -904.7 L-679.9 -903.6 L-679 -902.5 L-678.1 -901.4 L-677.1 -900.4 L-676.2 -899.3 L-675.3 -898.2 Z " />
<path stroke="rgb(0,0,0)" stroke-opacity="0.924" fill="rgb(255,255,255)" fill-opacity="1" d="M24.64 -300 L24.56 -298 L24.32 -296.1 L23.94 -294.2 L23.4 -292.3 L22.71 -290.5 L21.88 -288.7 L20.92 -287 L19.82 -285.4 L18.59 -283.8 L17.25 -282.4 L15.8 -281.1 L14.24 -279.9 L12.6 -278.8 L10.88 -277.9 L9.09 -277.1 L7.242 -276.5 L5.349 -276 L3.422 -275.6 L1.473 -275.4 L-0.4851 -275.4 L-2.44 -275.5 L-4.38 -275.8 L-6.291 -276.2 L-8.164 -276.8 L-9.984 -277.5 L-11.74 -278.3 L-13.42 -279.4 L-15.02 -280.5 L-16.53 -281.7 L-17.92 -283.1 L-19.21 -284.6 L-20.37 -286.2 L-21.41 -287.8 L-22.31 -289.6 L-23.07 -291.4 L-23.68 -293.2 L-24.14 -295.1 L-24.45 -297.1 L-24.61 -299 L-24.61 -301 L-24.45 -302.9 L-24.14 -304.9 L-23.68 -306.8 L-23.07 -308.6 L-22.31 -310.4 L-21.41 -312.2 L-20.37 -313.8 L-19.21 -315.4 L-17.92 -316.9 L-16.53 -318.3 L-15.02 -319.5 L-13.42 -320.6 L-11.74 -321.7 L-9.984 -322.5 L-8.164 -323.2 L-6.291 -323.8 L-4.38 -324.2 L-2.44 -324.5 L-0.4851 -324.6 L1.473 -324.6 L3.422 -324.4 L5.349 -324 L7.242 -323.5 L9.09 -322.9 L10.88 -322.1 L12.6 -321.2 L14.24 -320.1 L15.8 -318.9 L17.25 -317.6 L18.59 -316.2 L19.82 -314.6 L20.92 -313 L21.88 -311.3 L22.71 -309.5 L23.4 -307.7 L23.94 -305.8 L24.32 -303.9 L24.56 -302 L24.64 -300 Z " />
<path stroke="rgb(0,0,0)" stroke-opacity="1" fill="rgb(255,255,255)" fill-opacity="1" d="M-474.4 -881.7 L-476.2 -881.4 L-478 -881.1 L-479.8 -880.8 L-481.6 -880.5 L-483.4 -880.2 L-485.2 -879.9 L-487 -879.6 L-488.8 -879.3 L-490.6 -879 L-492.4 -878.8 L-494.1 -878.5 L-495.9 -878.2 L-497.7 -877.9 L-499.5 -877.6 L-501.3 -877.3 L-503.1 -877 L-504.9 -876.7 L-506.7 -876.4 L-508.5 -876.1 L-510.3 -875.8 L-512.1 -875.5 L-513.9 -875.2 L-515.7 -874.9 L-517.4 -874.7 L-519.2 -874.4 L-519.5 -876.2 L-519.8 -877.9 L-520.1 -879.7 L-520.4 -881.5 L-520.7 -883.3 L-521 -885.1 L-521.3 -886.9 L-521.6 -888.7 L-521.9 -890.5 L-522.2 -892.3 L-522.5 -894.1 L-522.7 -895.9 L-523 -897.7 L-523.3 -899.5 L-523.6 -901.2 L-523.9 -903 L-524.2 -904.8 L-524.5 -906.6 L-524.8 -908.4 L-525.1 -910.2 L-525.4 -912 L-525.7 -913.8 L-526 -915.6 L-526.3 -917.4 L-526.5 -919.2 L-524.8 -919.5 L-523 -919.7 L-521.2 -920 L-519.4 -920.3 L-517.6 -920.6 L-515.8 -920.9 L-514 -921.2 L-512.2 -921.5 L-510.4 -921.8 L-508.6 -922.1 L-506.8 -922.4 L-505 -922.7 L-503.3 -923 L-501.5 -923.3 L-499.7 -923.6 L-497.9 -923.8 L-496.1 -924.1 L-494.3 -924.4 L-492.5 -924.7 L-490.7 -925 L-488.9 -925.3 L-487.1 -925.6 L-485.3 -925.9 L-483.5 -926.2 L-481.8 -926.5 L-481.5 -924.7 L-481.2 -922.9 L-480.9 -921.1 L-480.6 -919.3 L-480.3 -917.5 L-480 -915.7 L-479.7 -913.9 L-479.4 -912.1 L-479.1 -910.3 L-478.8 -908.6 L-478.5 -906.8 L-478.2 -905 L-477.9 -903.2 L-477.7 -901.4 L-477.4 -899.6 L-477.1 -897.8 L-476.8 -896 L-476.5 -894.2 L-476.2 -892.4 L-475.9 -890.6 L-475.6 -888.8 L-475.3 -887.1 L-475 -885.3 L-474.7 -883.5 L-474.4 -881.7 Z " />
<path stroke="rgb(0,0,0)" stroke-opacity="0.924" fill="rgb(255,255,255)" fill-opacity="1" d="M224.6 -300 L224.6 -298 L224.3 -296.1 L223.9 -294.2 L223.4 -292.3 L222.7 -290.5 L221.9 -288.7 L220.9 -287 L219.8 -285.4 L218.6 -283.8 L217.2 -282.4 L215.8 -281.1 L214.2 -279.9 L212.6 -278.8 L210.9 -277.9 L209.1 -277.1 L207.2 -276.5 L205.3 -276 L203.4 -275.6 L201.5 -275.4 L199.5 -275.4 L197.6 -275.5 L195.6 -275.8 L193.7 -276.2 L191.8 -276.8 L190 -277.5 L188.3 -278.3 L186.6 -279.4 L185 -280.5 L183.5 -281.7 L182.1 -283.1 L180.8 -284.6 L179.6 -286.2 L178.6 -287.8 L177.7 -289.6 L176.9 -291.4 L176.3 -293.2 L175.9 -295.1 L175.5 -297.1 L175.4 -299 L175.4 -301 L175.5 -302.9 L175.9 -304.9 L176.3 -306.8 L176.9 -308.6 L177.7 -310.4 L178.6 -312.2 L179.6 -313.8 L180.8 -315.4 L182.1 -316.9 L183.5 -318.3 L185 -319.5 L186.6 -320.6 L188.3 -321.7 L190 -322.5 L191.8 -323.2 L193.7 -323.8 L195.6 -324.2 L197.6 -324.5 L199.5 -324.6 L201.5 -324.6 L203.4 -324.4 L205.3 -324 L207.2 -323.5 L209.1 -322.9 L210.9 -322.1 L212.6 -321.2 L214.2 -320.1 L215.8 -318.9 L217.2 -317.6 L218.6 -316.2 L219.8 -314.6 L220.9 -313 L221.9 -311.3 L222.7 -309.5 L223.4 -307.7 L223.9 -305.8 L224.3 -303.9 L224.6 -302 L224.6 -300 Z " />
<path stroke="rgb(0,0,0)" stroke-opacity="1" fill="rgb(255,255,255)" fill-opacity="1" d="M-276.1 -876 L-278.1 -876 L-280 -876 L-282 -876 L-283.9 -876.1 L-285.9 -876.1 L-287.8 -876.1 L-289.8 -876.1 L-291.7 -876.1 L-293.7 -876.1 L-295.6 -876.1 L-297.6 -876.1 L-299.5 -876.1 L-301.5 -876.1 L-303.4 -876.1 L-305.4 -876.1 L-307.3 -876.1 L-309.3 -876.1 L-311.3 -876.1 L-313.2 -876.1 L-315.2 -876.1 L-317.1 -876.1 L-319.1 -876.1 L-321 -876.1 L-323 -876.1 L-324.9 -876.1 L-324.9 -878.1 L-324.9 -880 L-324.9 -882 L-324.9 -883.9 L-324.9 -885.9 L-324.9 -887.8 L-324.9 -889.8 L-324.9 -891.7 L-324.9 -893.7 L-324.9 -895.6 L-324.9 -897.6 L-324.9 -899.5 L-324.9 -901.5 L-324.9 -903.4 L-324.9 -905.4 L-324.9 -907.3 L-324.9 -909.3 L-324.9 -911.3 L-324.9 -913.2 L-324.8 -915.2 L-324.8 -917.1 L-324.8 -919.1 L-324.8 -921 L-324.8 -923 L-324.8 -924.9 L-322.9 -924.9 L-320.9 -924.9 L-319 -924.9 L-317 -924.9 L-315.1 -924.9 L-313.1 -924.9 L-311.2 -924.9 L-309.2 -924.9 L-307.3 -924.9 L-305.3 -924.9 L-303.4 -924.9 L-301.4 -924.9 L-299.5 -924.9 L-297.5 -924.9 L-295.6 -924.9 L-293.6 -924.9 L-291.7 -924.9 L-289.7 -924.9 L-287.7 -924.9 L-285.8 -924.8 L-283.8 -924.8 L-281.9 -924.8 L-279.9 -924.8 L-278 -924.8 L-276 -924.8 L-276 -922.9 L-276 -920.9 L-276 -919 L-276 -917 L-276.1 -915.1 L-276.1 -913.1 L-276.1 -911.2 L-276.1 -909.2 L-276.1 -907.3 L-276.1 -905.3 L-276.1 -903.4 L-276.1 -901.4 L-276.1 -899.5 L-276.1 -897.5 L-276.1 -895.6 L-276.1 -893.6 L-276.1 -891.7 L-276.1 -889.7 L-276.1 -887.7 L-276.1 -885.8 L-276.1 -883.8 L-276.1 -881.9 L-276.1 -879.9 L-276.1 -878 L-276.1 -876 Z " />
<path stroke="rgb(0,0,0)" stroke-opacity="0.924" fill="rgb(255,255,255)" fill-opacity="1" d="M-275.4 -200 L-275.4 -198 L-275.7 -196.1 L-276.1 -194.2 L-276.6 -192.3 L-277.3 -190.5 L-278.1 -188.7 L-279.1 -187 L-280.2 -185.4 L-281.4 -183.8 L-282.8 -182.4 L-284.2 -181.1 L-285.8 -179.9 L-287.4 -178.8 L-289.1 -177.9 L-290.9 -177.1 L-292.8 -176.5 L-294.7 -176 L-296.6 -175.6 L-298.5 -175.4 L-300.5 -175.4 L-302.4 -175.5 L-304.4 -175.8 L-306.3 -176.2 L-308.2 -176.8 L-310 -177.5 L-311.7 -178.3 L-313.4 -179.4 L-315 -180.5 L-316.5 -181.7 L-317.9 -183.1 L-319.2 -184.6 L-320.4 -186.2 L-321.4 -187.8 L-322.3 -189.6 L-323.1 -191.4 L-323.7 -193.2 L-324.1 -195.1 L-324.5 -197.1 L-324.6 -199 L-324.6 -201 L-324.5 -202.9 L-324.1 -204.9 L-323.7 -206.8 L-323.1 -208.6 L-322.3 -210.4 L-321.4 -212.2 L-320.4 -213.8 L-319.2 -215.4 L-317.9 -216.9 L-316.5 -218.3 L-315 -219.5 L-313.4 -220.6 L-311.7 -221.7 L-310 -222.5 L-308.2 -223.2 L-306.3 -223.8 L-304.4 -224.2 L-302.4 -224.5 L-300.5 -224.6 L-298.5 -224.6 L-296.6 -224.4 L-294.7 -224 L-292.8 -223.5 L-290.9 -222.9 L-289.1 -222.1 L-287.4 -221.2 L-285.8 -220.1 L-284.2 -218.9 L-282.8 -217.6 L-281.4 -216.2 L-280.2 -214.6 L-279.1 -213 L-278.1 -211.3 L-277.3 -209.5 L-276.6 -207.7 L-276.1 -205.8 L-275.7 -203.9 L-275.4 -202 L-275.4 -200 Z " />
<path stroke="rgb(0,0,0)" stroke-opacity="1" fill="rgb(255,255,255)" fill-opacity="1" d="M-775.3 -798.2 L-776.4 -797.2 L-777.5 -796.3 L-778.6 -795.4 L-779.7 -794.5 L-780.8 -793.6 L-781.8 -792.6 L-782.9 -791.7 L-784 -790.8 L-785.1 -789.9 L-786.2 -788.9 L-787.3 -788 L-788.4 -787.1 L-789.5 -786.2 L-790.6 -785.2 L-791.7 -784.3 L-792.8 -783.4 L-793.8 -782.5 L-794.9 -781.5 L-796 -780.6 L-797.1 -779.7 L-798.2 -778.8 L-799.3 -777.8 L-800.4 -776.9 L-801.5 -776 L-802.6 -775.1 L-803.5 -776.2 L-804.4 -777.3 L-805.3 -778.3 L-806.3 -779.4 L-807.2 -780.5 L-808.1 -781.6 L-809 -782.7 L-810 -783.8 L-810.9 -784.9 L-811.8 -786 L-812.7 -787.1 L-813.7 -788.2 L-814.6 -789.3 L-815.5 -790.3 L-816.4 -791.4 L-817.4 -792.5 L-818.3 -793.6 L-819.2 -794.7 L-820.1 -795.8 L-821 -796.9 L-822 -798 L-822.9 -799.1 L-823.8 -800.2 L-824.7 -801.3 L-825.7 -802.3 L-824.6 -803.3 L-823.5 -804.2 L-822.4 -805.1 L-821.3 -806 L-820.2 -807 L-819.1 -807.9 L-818 -808.8 L-816.9 -809.7 L-815.8 -810.7 L-814.8 -811.6 L-813.7 -812.5 L-812.6 -813.4 L-811.5 -814.4 L-810.4 -815.3 L-809.3 -816.2 L-808.2 -817.1 L-807.1 -818 L-806 -819 L-804.9 -819.9 L-803.9 -820.8 L-802.8 -821.7 L-801.7 -822.7 L-800.6 -823.6 L-799.5 -824.5 L-798.4 -825.4 L-797.5 -824.3 L-796.6 -823.3 L-795.6 -822.2 L-794.7 -821.1 L-793.8 -820 L-792.9 -818.9 L-791.9 -817.8 L-791 -816.7 L-790.1 -815.6 L-789.2 -814.5 L-788.2 -813.4 L-787.3 -812.3 L-786.4 -811.3 L-785.5 -810.2 L-784.5 -809.1 L-783.6 -808 L-782.7 -806.9 L-781.8 -805.8 L-780.8 -804.7 L-779.9 -803.6 L-779 -802.5 L-778.1 -801.4 L-777.1 -800.4 L-776.2 -799.3 L-775.3 -798.2 Z " />
<path stroke="rgb(0,0,0)" stroke-opacity="0.924" fill="rgb(255,255,255)" fill-opacity="1" d="M-75.36 -200 L-75.44 -198 L-75.68 -196.1 L-76.06 -194.2 L-76.6 -192.3 L-77.29 -190.5 L-78.12 -188.7 L-79.08 -187 L-80.18 -185.4 L-81.41 -183.8 L-82.75 -182.4 L-84.2 -181.1 L-85.76 -179.9 L-87.4 -178.8 L-89.12 -177.9 L-90.91 -177.1 L-92.76 -176.5 L-94.65 -176 L-96.58 -175.6 L-98.53 -175.4 L-100.5 -175.4 L-102.4 -175.5 L-104.4 -175.8 L-106.3 -176.2 L-108.2 -176.8 L-110 -177.5 L-111.7 -178.3 L-113.4 -179.4 L-115 -180.5 L-116.5 -181.7 L-117.9 -183.1 L-119.2 -184.6 L-120.4 -186.2 L-121.4 -187.8 L-122.3 -189.6 L-123.1 -191.4 L-123.7 -193.2 L-124.1 -195.1 L-124.5 -197.1 L-124.6 -199 L-124.6 -201 L-124.5 -202.9 L-124.1 -204.9 L-123.7 -206.8 L-123.1 -208.6 L-122.3 -210.4 L-121.4 -212.2 L-120.4 -213.8 L-119.2 -215.4 L-117.9 -216.9 L-116.5 -218.3 L-115 -219.5 L-113.4 -220.6 L-111.7 -221.7 L-110 -222.5 L-108.2 -223.2 L-106.3 -223.8 L-104.4 -224.2 L-102.4 -224.5 L-100.5 -224.6 L-98.53 -224.6 L-96.58 -224.4 L-94.65 -224 L-92.76 -223.5 L-90.91 -222.9 L-89.12 -222.1 L-87.4 -221.2 L-85.76 -220.1 L-84.2 -218.9 L-82.75 -217.6 L-81.41 -216.2 L-80.18 -214.6 L-79.08 -213 L-78.12 -211.3 L-77.29 -209.5 L-76.6 -207.7 L-76.06 -205.8 L-75.68 -203.9 L-75.44 -202 L-75.36 -200 Z " />
<path stroke="rgb(0,0,0)" stroke-opacity="1" fill="rgb(255,255,255)" fill-opacity="1" d="M-574.4 -781.7 L-576.2 -781.4 L-578 -781.1 L-579.8 -780.8 L-581.6 -780.5 L-583.4 -780.2 L-585.2 -779.9 L-587 -779.6 L-588.8 -779.3 L-590.6 -779 L-592.4 -778.8 L-594.1 -778.5 L-595.9 -778.2 L-597.7 -777.9 L-599.5 -777.6 L-601.3 -777.3 L-603.1 -777 L-604.9 -776.7 L-606.7 -776.4 L-608.5 -776.1 L-610.3 -775.8 L-612.1 -775.5 L-613.9 -775.2 L-615.7 -774.9 L-617.4 -774.7 L-619.2 -774.4 L-619.5 -776.2 L-619.8 -777.9 L-620.1 -779.7 L-620.4 -781.5 L-620.7 -783.3 L-621 -785.1 L-621.3 -786.9 L-621.6 -788.7 L-621.9 -790.5 L-622.2 -792.3 L-622.5 -794.1 L-622.7 -795.9 L-623 -797.7 L-623.3 -799.5 L-623.6 -801.2 L-623.9 -803 L-624.2 -804.8 L-624.5 -806.6 L-624.8 -808.4 L-625.1 -810.2 L-625.4 -812 L-625.7 -813.8 L-626 -815.6 L-626.3 -817.4 L-626.5 -819.2 L-624.8 -819.5 L-623 -819.7 L-621.2 -820 L-619.4 -820.3 L-617.6 -820.6 L-615.8 -820.9 L-614 -821.2 L-612.2 -821.5 L-610.4 -821.8 L-608.6 -822.1 L-606.8 -822.4 L-605 -822.7 L-603.3 -823 L-601.5 -823.3 L-599.7 -823.6 L-597.9 -823.8 L-596.1 -824.1 L-594.3 -824.4 L-592.5 -824.7 L-590.7 -825 L-588.9 -825.3 L-587.1 -825.6 L-585.3 -825.9 L-583.5 -826.2 L-581.8 -826.5 L-581.5 -824.7 L-581.2 -822.9 L-580.9 -821.1 L-580.6 -819.3 L-580.3 -817.5 L-580 -815.7 L-579.7 -813.9 L-579.4 -812.1 L-579.1 -810.3 L-578.8 -808.6 L-578.5 -806.8 L-578.2 -805 L-577.9 -803.2 L-577.7 -801.4 L-577.4 -799.6 L-577.1 -797.8 L-576.8 -796 L-576.5 -794.2 L-576.2 -792.4 L-575.9 -790.6 L-575.6 -788.8 L-575.3 -787.1 L-575 -785.3 L-574.7 -783.5 L-574.4 -781.7 Z " />
<path stroke="rgb(0,0,0)" stroke-opacity="0.924" fill="rgb(255,255,255)" fill-opacity="1" d="M124.6 -200 L124.6 -198 L124.3 -196.1 L123.9 -194.2 L123.4 -192.3 L122.7 -190.5 L121.9 -188.7 L120.9 -187 L119.8 -185.4 L118.6 -183.8 L117.2 -182.4 L115.8 -181.1 L114.2 -179.9 L112.6 -178.8 L110.9 -177.9 L109.1 -177.1 L107.2 -176.5 L105.3 -176 L103.4 -175.6 L101.5 -175.4 L99.51 -175.4 L97.56 -175.5 L95.62 -175.8 L93.71 -176.2 L91.84 -176.8 L90.02 -177.5 L88.26 -178.3 L86.58 -179.4 L84.98 -180.5 L83.47 -181.7 L82.08 -183.1 L80.79 -184.6 L79.63 -186.2 L78.59 -187.8 L77.69 -189.6 L76.93 -191.4 L76.32 -193.2 L75.86 -195.1 L75.55 -197.1 L75.39 -199 L75.39 -201 L75.55 -202.9 L75.86 -204.9 L76.32 -206.8 L76.93 -208.6 L77.69 -210.4 L78.59 -212.2 L79.63 -213.8 L80.79 -215.4 L82.08 -216.9 L83.47 -218.3 L84.98 -219.5 L86.58 -220.6 L88.26 -221.7 L90.02 -222.5 L91.84 -223.2 L93.71 -223.8 L95.62 -224.2 L97.56 -224.5 L99.51 -224.6 L101.5 -224.6 L103.4 -224.4 L105.3 -224 L107.2 -223.5 L109.1 -222.9 L110.9 -222.1 L112.6 -221.2 L114.2 -220.1 L115.8 -218.9 L117.2 -217.6 L118.6 -216.2 L119.8 -214.6 L120.9 -213 L121.9 -211.3 L122.7 -209.5 L123.4 -207.7 L123.9 -205.8 L124.3 -203.9 L124.6 -202 L124.6 -200 Z " />
<path stroke="rgb(0,0,0)" stroke-opacity="1" fill="rgb(255,255,255)" fill-opacity="1" d="M-376.1 -776 L-378.1 -776 L-380 -776 L-382 -776 L-383.9 -776.1 L-385.9 -776.1 L-387.8 -776.1 L-389.8 -776.1 L-391.7 -776.1 L-393.7 -776.1 L-395.6 -776.1 L-397.6 -776.1 L-399.5 -776.1 L-401.5 -776.1 L-403.4 -776.1 L-405.4 -776.1 L-407.3 -776.1 L-409.3 -776.1 L-411.3 -776.1 L-413.2 -776.1 L-415.2 -776.1 L-417.1 -776.1 L-419.1 -776.1 L-421 -776.1 L-423 -776.1 L-424.9 -776.1 L-424.9 -778.1 L-424.9 -780 L-424.9 -782 L-424.9 -783.9 L-424.9 -785.9 L-424.9 -787.8 L-424.9 -789.8 L-424.9 -791.7 L-424.9 -793.7 L-424.9 -795.6 L-424.9 -797.6 L-424.9 -799.5 L-424.9 -801.5 L-424.9 -803.4 L-424.9 -805.4 L-424.9 -807.3 L-424.9 -809.3 L-424.9 -811.3 L-424.9 -813.2 L-424.8 -815.2 L-424.8 -817.1 L-424.8 -819.1 L-424.8 -821 L-424.8 -823 L-424.8 -824.9 L-422.9 -824.9 L-420.9 -824.9 L-419 -824.9 L-417 -824.9 L-415.1 -824.9 L-413.1 -824.9 L-411.2 -824.9 L-409.2 -824.9 L-407.3 -824.9 L-405.3 -824.9 L-403.4 -824.9 L-401.4 -824.9 L-399.5 -824.9 L-397.5 -824.9 L-395.6 -824.9 L-393.6 -824.9 L-391.7 -824.9 L-389.7 -824.9 L-387.7 -824.9 L-385.8 -824.8 L-383.8 -824.8 L-381.9 -824.8 L-379.9 -824.8 L-378 -824.8 L-376 -824.8 L-376 -822.9 L-376 -820.9 L-376 -819 L-376 -817 L-376.1 -815.1 L-376.1 -813.1 L-376.1 -811.2 L-376.1 -809.2 L-376.1 -807.3 L-376.1 -805.3 L-376.1 -803.4 L-376.1 -801.4 L-376.1 -799.5 L-376.1 -797.5 L-376.1 -795.6 L-376.1 -793.6 L-376.1 -791.7 L-376.1 -789.7 L-376.1 -787.7 L-376.1 -785.8 L-376.1 -783.8 L-376.1 -781.9 L-376.1 -779.9 L-376.1 -778 L-376.1 -776 Z " />
<path stroke="rgb(0,0,0)" stroke-opacity="0.924" fill="rgb(255,255,255)" fill-opacity="1" d="M324.6 -200 L324.6 -198 L324.3 -196.1 L323.9 -194.2 L323.4 -192.3 L322.7 -190.5 L321.9 -188.7 L320.9 -187 L319.8 -185.4 L318.6 -183.8 L317.2 -182.4 L315.8 -181.1 L314.2 -179.9 L312.6 -178.8 L310.9 -177.9 L309.1 -177.1 L307.2 -176.5 L305.3 -176 L303.4 -175.6 L301.5 -175.4 L299.5 -175.4 L297.6 -175.5 L295.6 -175.8 L293.7 -176.2 L291.8 -176.8 L290 -177.5 L288.3 -178.3 L286.6 -179.4 L285 -180.5 L283.5 -181.7 L282.1 -183.1 L280.8 -184.6 L279.6 -186.2 L278.6 -187.8 L277.7 -189.6 L276.9 -191.4 L276.3 -193.2 L275.9 -195.1 L275.5 -197.1 L275.4 -199 L275.4 -201 L275.5 -202.9 L275.9 -204.9 L276.3 -206.8 L276.9 -208.6 L277.7 -210.4 L278.6 -212.2 L279.6 -213.8 L280.8 -215.4 L282.1 -216.9 L283.5 -218.3 L285 -219.5 L286.6 -220.6 L288.3 -221.7 L290 -222.5 L291.8 -223.2 L293.7 -223.8 L295.6 -224.2 L297.6 -224.5 L299.5 -224.6 L301.5 -224.6 L303.4 -224.4 L305.3 -224 L307.2 -223.5 L309.1 -222.9 L310.9 -222.1 L312.6 -221.2 L314.2 -220.1 L315.8 -218.9 L317.2 -217.6 L318.6 -216.2 L319.8 -214.6 L320.9 -213 L321.9 -211.3 L322.7 -209.5 L323.4 -207.7 L323.9 -205.8 L324.3 -203.9 L324.6 -202 L324.6 -200 Z " />
<path stroke="rgb(0,0,0)" stroke-opacity="1" fill="rgb(255,255,255)" fill-opacity="1" d="M-875.3 -698.2 L-876.4 -697.2 L-877.5 -696.3 L-878.6 -695.4 L-879.7 -694.5 L-880.8 -693.6 L-881.8 -692.6 L-882.9 -691.7 L-884 -690.8 L-885.1 -689.9 L-886.2 -688.9 L-887.3 -688 L-888.4 -687.1 L-889.5 -686.2 L-890.6 -685.2 L-891.7 -684.3 L-892.8 -683.4 L-893.8 -682.5 L-894.9 -681.5 L-896 -680.6 L-897.1 -679.7 L-898.2 -678.8 L-899.3 -677.8 L-900.4 -676.9 L-901.5 -676 L-902.6 -675.1 L-903.5 -676.2 L-904.4 -677.3 L-905.3 -678.3 L-906.3 -679.4 L-907.2 -680.5 L-908.1 -681.6 L-909 -682.7 L-910 -683.8 L-910.9 -684.9 L-911.8 -686 L-912.7 -687.1 L-913.7 -688.2 L-914.6 -689.3 L-915.5 -690.3 L-916.4 -691.4 L-917.4 -692.5 L-918.3 -693.6 L-919.2 -694.7 L-920.1 -695.8 L-921 -696.9 L-922 -698 L-922.9 -699.1 L-923.8 -700.2 L-924.7 -701.3 L-925.7 -702.3 L-924.6 -703.3 L-923.5 -704.2 L-922.4 -705.1 L-921.3 -706 L-920.2 -707 L-919.1 -707.9 L-918 -708.8 L-916.9 -709.7 L-915.8 -710.7 L-914.8 -711.6 L-913.7 -712.5 L-912.6 -713.4 L-911.5 -714.4 L-910.4 -715.3 L-909.3 -716.2 L-908.2 -717.1 L-907.1 -718 L-906 -719 L-904.9 -719.9 L-903.9 -720.8 L-902.8 -721.7 L-901.7 -722.7 L-900.6 -723.6 L-899.5 -724.5 L-898.4 -725.4 L-897.5 -724.3 L-896.6 -723.3 L-895.6 -722.2 L-894.7 -721.1 L-893.8 -720 L-892.9 -718.9 L-891.9 -717.8 L-891 -716.7 L-890.1 -715.6 L-889.2 -714.5 L-888.2 -713.4 L-887.3 -712.3 L-886.4 -711.3 L-885.5 -710.2 L-884.5 -709.1 L-883.6 -708 L-882.7 -706.9 L-881.8 -705.8 L-880.8 -704.7 L-879.9 -703.6 L-879 -702.5 L-878.1 -701.4 L-877.1 -700.4 L-876.2 -699.3 L-875.3 -698.2 Z " />
<path stroke="rgb(0,0,0)" stroke-opacity="0.924" fill="rgb(255,255,255)" fill-opacity="1" d="M-175.4 -100 L-175.4 -98.04 L-175.7 -96.1 L-176.1 -94.18 L-176.6 -92.3 L-177.3 -90.46 L-178.1 -88.69 L-179.1 -86.98 L-180.2 -85.36 L-181.4 -83.84 L-182.8 -82.41 L-184.2 -81.1 L-185.8 -79.9 L-187.4 -78.83 L-189.1 -77.9 L-190.9 -77.11 L-192.8 -76.46 L-194.7 -75.96 L-196.6 -75.61 L-198.5 -75.41 L-200.5 -75.37 L-202.4 -75.49 L-204.4 -75.76 L-206.3 -76.19 L-208.2 -76.76 L-210 -77.49 L-211.7 -78.35 L-213.4 -79.35 L-215 -80.48 L-216.5 -81.74 L-217.9 -83.11 L-219.2 -84.59 L-220.4 -86.16 L-221.4 -87.83 L-222.3 -89.57 L-223.1 -91.37 L-223.7 -93.23 L-224.1 -95.13 L-224.5 -97.07 L-224.6 -99.02 L-224.6 -101 L-224.5 -102.9 L-224.1 -104.9 L-223.7 -106.8 L-223.1 -108.6 L-222.3 -110.4 L-221.4 -112.2 L-220.4 -113.8 L-219.2 -115.4 L-217.9 -116.9 L-216.5 -118.3 L-215 -119.5 L-213.4 -120.6 L-211.7 -121.7 L-210 -122.5 L-208.2 -123.2 L-206.3 -123.8 L-204.4 -124.2 L-202.4 -124.5 L-200.5 -124.6 L-198.5 -124.6 L-196.6 -124.4 L-194.7 -124 L-192.8 -123.5 L-190.9 -122.9 L-189.1 -122.1 L-187.4 -121.2 L-185.8 -120.1 L-184.2 -118.9 L-182.8 -117.6 L-181.4 -116.2 L-180.2 -114.6 L-179.1 -113 L-178.1 -111.3 L-177.3 -109.5 L-176.6 -107.7 L-176.1 -105.8 L-175.7 -103.9 L-175.4 -102 L-175.4 -100 Z " />
<path stroke="rgb(0,0,0)" stroke-opacity="1" fill="rgb(255,255,255)" fill-opacity="1" d="M-674.4 -681.7 L-676.2 -681.4 L-678 -681.1 L-679.8 -680.8 L-681.6 -680.5 L-683.4 -680.2 L-685.2 -679.9 L-687 -679.6 L-688.8 -679.3 L-690.6 -679 L-692.4 -678.8 L-694.1 -678.5 L-695.9 -678.2 L-697.7 -677.9 L-699.5 -677.6 L-701.3 -677.3 L-703.1 -677 L-704.9 -676.7 L-706.7 -676.4 L-708.5 -676.1 L-710.3 -675.8 L-712.1 -675.5 L-713.9 -675.2 L-715.7 -674.9 L-717.4 -674.7 L-719.2 -674.4 L-719.5 -676.2 L-719.8 -677.9 L-720.1 -679.7 L-720.4 -681.5 L-720.7 -683.3 L-721 -685.1 L-721.3 -686.9 L-721.6 -688.7 L-721.9 -690.5 L-722.2 -692.3 L-722.5 -694.1 L-722.7 -695.9 L-723 -697.7 L-723.3 -699.5 L-723.6 -701.2 L-723.9 -703 L-724.2 -704.8 L-724.5 -706.6 L-724.8 -708.4 L-725.1 -710.2 L-725.4 -712 L-725.7 -713.8 L-726 -715.6 L-726.3 -717.4 L-726.5 -719.2 L-724.8 -719.5 L-723 -719.7 L-721.2 -720 L-719.4 -720.3 L-717.6 -720.6 L-715.8 -720.9 L-714 -721.2 L-712.2 -721.5 L-710.4 -721.8 L-708.6 -722.1 L-706.8 -722.4 L-705 -722.7 L-703.3 -723 L-701.5 -723.3 L-699.7 -723.6 L-697.9 -723.8 L-696.1 -724.1 L-694.3 -724.4 L-692.5 -724.7 L-690.7 -725 L-688.9 -725.3 L-687.1 -725.6 L-685.3 -725.9 L-683.5 -726.2 L-681.8 -726.5 L-681.5 -724.7 L-681.2 -722.9 L-680.9 -721.1 L-680.6 -719.3 L-680.3 -717.5 L-680 -715.7 L-679.7 -713.9 L-679.4 -712.1 L-679.1 -710.3 L-678.8 -708.6 L-678.5 -706.8 L-678.2 -705 L-677.9 -703.2 L-677.7 -701.4 L-677.4 -699.6 L-677.1 -697.8 L-676.8 -696 L-676.5 -694.2 L-676.2 -692.4 L-675.9 -690.6 L-675.6 -688.8 L-675.3 -687.1 L-675 -685.3 L-674.7 -683.5 L-674.4 -681.7 Z " />
<path stroke="rgb(0,0,0)" stroke-opacity="0.924" fill="rgb(255,255,255)" fill-opacity="1" d="M24.64 -100 L24.56 -98.04 L24.32 -96.1 L23.94 -94.18 L23.4 -92.3 L22.71 -90.46 L21.88 -88.69 L20.92 -86.98 L19.82 -85.36 L18.59 -83.84 L17.25 -82.41 L15.8 -81.1 L14.24 -79.9 L12.6 -78.83 L10.88 -77.9 L9.09 -77.11 L7.242 -76.46 L5.349 -75.96 L3.422 -75.61 L1.473 -75.41 L-0.4851 -75.37 L-2.44 -75.49 L-4.38 -75.76 L-6.291 -76.19 L-8.164 -76.76 L-9.984 -77.49 L-11.74 -78.35 L-13.42 -79.35 L-15.02 -80.48 L-16.53 -81.74 L-17.92 -83.11 L-19.21 -84.59 L-20.37 -86.16 L-21.41 -87.83 L-22.31 -89.57 L-23.07 -91.37 L-23.68 -93.23 L-24.14 -95.13 L-24.45 -97.07 L-24.61 -99.02 L-24.61 -101 L-24.45 -102.9 L-24.14 -104.9 L-23.68 -106.8 L-23.07 -108.6 L-22.31 -110.4 L-21.41 -112.2 L-20.37 -113.8 L-19.21 -115.4 L-17.92 -116.9 L-16.53 -118.3 L-15.02 -119.5 L-13.42 -120.6 L-11.74 -121.7 L-9.984 -122.5 L-8.164 -123.2 L-6.291 -123.8 L-4.38 -124.2 L-2.44 -124.5 L-0.4851 -124.6 L1.473 -124.6 L3.422 -124.4 L5.349 -124 L7.242 -123.5 L9.09 -122.9 L10.88 -122.1 L12.6 -121.2 L14.24 -120.1 L15.8 -118.9 L17.25 -117.6 L18.59 -116.2 L19.82 -114.6 L20.92 -113 L21.88 -111.3 L22.71 -109.5 L23.4 -107.7 L23.94 -105.8 L24.32 -103.9 L24.56 -102 L24.64 -100 Z " />
<path stroke="rgb(0,0,0)" stroke-opacity="1" fill="rgb(255,255,255)" fill-opacity="1" d="M-476.1 -676 L-478.1 -676 L-480 -676 L-482 -676 L-483.9 -676.1 L-485.9 -676.1 L-487.8 -676.1 L-489.8 -676.1 L-491.7 -676.1 L-493.7 -676.1 L-495.6 -676.1 L-497.6 -676.1 L-499.5 -676.1 L-501.5 -676.1 L-503.4 -676.1 L-505.4 -676.1 L-507.3 -676.1 L-509.3 -676.1 L-511.3 -676.1 L-513.2 -676.1 L-515.2 -676.1 L-517.1 -676.1 L-519.1 -676.1 L-521 -676.1 L-523 -676.1 L-524.9 -676.1 L-524.9 -678.1 L-524.9 -680 L-524.9 -682 L-524.9 -683.9 L-524.9 -685.9 L-524.9 -687.8 L-524.9 -689.8 L-524.9 -691.7 L-524.9 -693.7 L-524.9 -695.6 L-524.9 -697.6 L-524.9 -699.5 L-524.9 -701.5 L-524.9 -703.4 L-524.9 -705.4 L-524.9 -707.3 L-524.9 -709.3 L-524.9 -711.3 L-524.9 -713.2 L-524.8 -715.2 L-524.8 -717.1 L-524.8 -719.1 L-524.8 -721 L-524.8 -723 L-524.8 -724.9 L-522.9 -724.9 L-520.9 -724.9 L-519 -724.9 L-517 -724.9 L-515.1 -724.9 L-513.1 -724.9 L-511.2 -724.9 L-509.2 -724.9 L-507.3 -724.9 L-505.3 -724.9 L-503.4 -724.9 L-501.4 -724.9 L-499.5 -724.9 L-497.5 -724.9 L-495.6 -724.9 L-493.6 -724.9 L-491.7 -724.9 L-489.7 -724.9 L-487.7 -724.9 L-485.8 -724.8 L-483.8 -724.8 L-481.9 -724.8 L-479.9 -724.8 L-478 -724.8 L-476 -724.8 L-476 -722.9 L-476 -720.9 L-476 -719 L-476 -717 L-476.1 -715.1 L-476.1 -713.1 L-476.1 -711.2 L-476.1 -709.2 L-476.1 -707.3 L-476.1 -705.3 L-476.1 -703.4 L-476.1 -701.4 L-476.1 -699.5 L-476.1 -697.5 L-476.1 -695.6 L-476.1 -693.6 L-476.1 -691.7 L-476.1 -689.7 L-476.1 -687.7 L-476.1 -685.8 L-476.1 -683.8 L-476.1 -681.9 L-476.1 -679.9 L-476.1 -678 L-476.1 -676 Z " />
<path stroke="rgb(0,0,0)" stroke-opacity="0.924" fill="rgb(255,255,255)" fill-opacity="1" d="M224.6 -100 L224.6 -98.04 L224.3 -96.1 L223.9 -94.18 L223.4 -92.3 L222.7 -90.46 L221.9 -88.69 L220.9 -86.98 L219.8 -85.36 L218.6 -83.84 L217.2 -82.41 L215.8 -81.1 L214.2 -79.9 L212.6 -78.83 L210.9 -77.9 L209.1 -77.11 L207.2 -76.46 L205.3 -75.96 L203.4 -75.61 L201.5 -75.41 L199.5 -75.37 L197.6 -75.49 L195.6 -75.76 L193.7 -76.19 L191.8 -76.76 L190 -77.49 L188.3 -78.35 L186.6 -79.35 L185 -80.48 L183.5 -81.74 L182.1 -83.11 L180.8 -84.59 L179.6 -86.16 L178.6 -87.83 L177.7 -89.57 L176.9 -91.37 L176.3 -93.23 L175.9 -95.13 L175.5 -97.07 L175.4 -99.02 L175.4 -101 L175.5 -102.9 L175.9 -104.9 L176.3 -106.8 L176.9 -108.6 L177.7 -110.4 L178.6 -112.2 L179.6 -113.8 L180.8 -115.4 L182.1 -116.9 L183.5 -118.3 L185 -119.5 L186.6 -120.6 L188.3 -121.7 L190 -122.5 L191.8 -123.2 L193.7 -123.8 L195.6 -124.2 L197.6 -124.5 L199.5 -124.6 L201.5 -124.6 L203.4 -124.4 L205.3 -124 L207.2 -123.5 L209.1 -122.9 L210.9 -122.1 L212.6 -121.2 L214.2 -120.1 L215.8 -118.9 L217.2 -117.6 L218.6 -116.2 L219.8 -114.6 L220.9 -113 L221.9 -111.3 L222.7 -109.5 L223.4 -107.7 L223.9 -105.8 L224.3 -103.9 L224.6 -102 L224.6 -100 Z " />
<path stroke="rgb(0,0,0)" stroke-opacity="1" fill="rgb(255,255,255)" fill-opacity="1" d="M-276.3 -675.6 L-278.2 -675.7 L-280.2 -675.7 L-282.2 -675.7 L-284.1 -675.7 L-286.1 -675.8 L-288 -675.8 L-290 -675.8 L-292 -675.9 L-293.9 -675.9 L-295.9 -675.9 L-297.8 -675.9 L-299.8 -676 L-301.8 -676 L-303.7 -676 L-305.7 -676 L-307.7 -676.1 L-309.6 -676.1 L-311.6 -676.1 L-313.5 -676.1 L-315.5 -676.2 L-317.5 -676.2 L-319.4 -676.2 L-321.4 -676.2 L-323.3 -676.3 L-325.3 -676.3 L-325.3 -678.2 L-325.3 -680.2 L-325.2 -682.2 L-325.2 -684.1 L-325.2 -686.1 L-325.2 -688 L-325.1 -690 L-325.1 -692 L-325.1 -693.9 L-325.1 -695.9 L-325 -697.9 L-325 -699.8 L-325 -701.8 L-325 -703.7 L-324.9 -705.7 L-324.9 -707.7 L-324.9 -709.6 L-324.9 -711.6 L-324.8 -713.5 L-324.8 -715.5 L-324.8 -717.5 L-324.8 -719.4 L-324.7 -721.4 L-324.7 -723.4 L-324.7 -725.3 L-322.7 -725.3 L-320.8 -725.3 L-318.8 -725.2 L-316.8 -725.2 L-314.9 -725.2 L-312.9 -725.2 L-310.9 -725.1 L-309 -725.1 L-307 -725.1 L-305.1 -725.1 L-303.1 -725 L-301.1 -725 L-299.2 -725 L-297.2 -725 L-295.3 -724.9 L-293.3 -724.9 L-291.3 -724.9 L-289.4 -724.9 L-287.4 -724.8 L-285.4 -724.8 L-283.5 -724.8 L-281.5 -724.8 L-279.6 -724.7 L-277.6 -724.7 L-275.6 -724.7 L-275.7 -722.7 L-275.7 -720.8 L-275.7 -718.8 L-275.7 -716.8 L-275.8 -714.9 L-275.8 -712.9 L-275.8 -711 L-275.8 -709 L-275.9 -707 L-275.9 -705.1 L-275.9 -703.1 L-275.9 -701.1 L-276 -699.2 L-276 -697.2 L-276 -695.3 L-276 -693.3 L-276.1 -691.3 L-276.1 -689.4 L-276.1 -687.4 L-276.1 -685.5 L-276.2 -683.5 L-276.2 -681.5 L-276.2 -679.6 L-276.2 -677.6 L-276.3 -675.6 Z " />
<path stroke="rgb(0,0,0)" stroke-opacity="0.924" fill="rgb(255,255,255)" fill-opacity="1" d="M-275.4 -4.01e-10 L-275.4 1.957 L-275.7 3.902 L-276.1 5.821 L-276.6 7.705 L-277.3 9.539 L-278.1 11.31 L-279.1 13.02 L-280.2 14.64 L-281.4 16.16 L-282.8 17.59 L-284.2 18.9 L-285.8 20.1 L-287.4 21.17 L-289.1 22.1 L-290.9 22.89 L-292.8 23.54 L-294.7 24.04 L-296.6 24.39 L-298.5 24.59 L-300.5 24.63 L-302.4 24.51 L-304.4 24.24 L-306.3 23.81 L-308.2 23.24 L-310 22.51 L-311.7 21.65 L-313.4 20.65 L-315 19.52 L-316.5 18.26 L-317.9 16.89 L-319.2 15.41 L-320.4 13.84 L-321.4 12.17 L-322.3 10.43 L-323.1 8.629 L-323.7 6.768 L-324.1 4.865 L-324.5 2.932 L-324.6 0.9792 L-324.6 -0.9792 L-324.5 -2.932 L-324.1 -4.865 L-323.7 -6.768 L-323.1 -8.629 L-322.3 -10.43 L-321.4 -12.17 L-320.4 -13.84 L-319.2 -15.41 L-317.9 -16.89 L-316.5 -18.26 L-315 -19.52 L-313.4 -20.65 L-311.7 -21.65 L-310 -22.51 L-308.2 -23.24 L-306.3 -23.81 L-304.4 -24.24 L-302.4 -24.51 L-300.5 -24.63 L-298.5 -24.59 L-296.6 -24.39 L-294.7 -24.04 L-292.8 -23.54 L-290.9 -22.89 L-289.1 -22.1 L-287.4 -21.17 L-285.8 -20.1 L-284.2 -18.9 L-282.8 -17.59 L-281.4 -16.16 L-280.2 -14.64 L-279.1 -13.02 L-278.1 -11.31 L-277.3 -9.539 L-276.6 -7.705 L-276.1 -5.821 L-275.7 -3.902 L-275.4 -1.957 L-275.4 -4.01e-10 Z " />
<path stroke="rgb(0,0,0)" stroke-opacity="1" fill="rgb(255,255,255)" fill-opacity="1" d="M-774.4 -581.7 L-776.2 -581.4 L-778 -581.1 L-779.8 -580.8 L-781.6 -580.5 L-783.4 -580.2 L-785.2 -579.9 L-787 -579.6 L-788.8 -579.3 L-790.6 -579 L-792.4 -578.8 L-794.1 -578.5 L-795.9 -578.2 L-797.7 -577.9 L-799.5 -577.6 L-801.3 -577.3 L-803.1 -577 L-804.9 -576.7 L-806.7 -576.4 L-808.5 -576.1 L-810.3 -575.8 L-812.1 -575.5 L-813.9 -575.2 L-815.7 -574.9 L-817.4 -574.7 L-819.2 -574.4 L-819.5 -576.2 L-819.8 -577.9 L-820.1 -579.7 L-820.4 -581.5 L-820.7 -583.3 L-821 -585.1 L-821.3 -586.9 L-821.6 -588.7 L-821.9 -590.5 L-822.2 -592.3 L-822.5 -594.1 L-822.7 -595.9 L-823 -597.7 L-823.3 -599.5 L-823.6 -601.2 L-823.9 -603 L-824.2 -604.8 L-824.5 -606.6 L-824.8 -608.4 L-825.1 -610.2 L-825.4 -612 L-825.7 -613.8 L-826 -615.6 L-826.3 -617.4 L-826.5 -619.2 L-824.8 -619.5 L-823 -619.7 L-821.2 -620 L-819.4 -620.3 L-817.6 -620.6 L-815.8 -620.9 L-814 -621.2 L-812.2 -621.5 L-810.4 -621.8 L-808.6 -622.1 L-806.8 -622.4 L-805 -622.7 L-803.3 -623 L-801.5 -623.3 L-799.7 -623.6 L-797.9 -623.8 L-796.1 -624.1 L-794.3 -624.4 L-792.5 -624.7 L-790.7 -625 L-788.9 -625.3 L-787.1 -625.6 L-785.3 -625.9 L-783.5 -626.2 L-781.8 -626.5 L-781.5 -624.7 L-781.2 -622.9 L-780.9 -621.1 L-780.6 -619.3 L-780.3 -617.5 L-780 -615.7 L-779.7 -613.9 L-779.4 -612.1 L-779.1 -610.3 L-778.8 -608.6 L-778.5 -606.8 L-778.2 -605 L-777.9 -603.2 L-777.7 -601.4 L-777.4 -599.6 L-777.1 -597.8 L-776.8 -596 L-776.5 -594.2 L-776.2 -592.4 L-775.9 -590.6 L-775.6 -588.8 L-775.3 -587.1 L-775 -585.3 L-774.7 -583.5 L-774.4 -581.7 Z " />
<path stroke="rgb(0,0,0)" stroke-opacity="0.924" fill="rgb(255,255,255)" fill-opacity="1" d="M-75.36 -4.012e-10 L-75.44 1.957 L-75.68 3.902 L-76.06 5.821 L-76.6 7.705 L-77.29 9.539 L-78.12 11.31 L-79.08 13.02 L-80.18 14.64 L-81.41 16.16 L-82.75 17.59 L-84.2 18.9 L-85.76 20.1 L-87.4 21.17 L-89.12 22.1 L-90.91 22.89 L-92.76 23.54 L-94.65 24.04 L-96.58 24.39 L-98.53 24.59 L-100.5 24.63 L-102.4 24.51 L-104.4 24.24 L-106.3 23.81 L-108.2 23.24 L-110 22.51 L-111.7 21.65 L-113.4 20.65 L-115 19.52 L-116.5 18.26 L-117.9 16.89 L-119.2 15.41 L-120.4 13.84 L-121.4 12.17 L-122.3 10.43 L-123.1 8.629 L-123.7 6.768 L-124.1 4.865 L-124.5 2.932 L-124.6 0.9792 L-124.6 -0.9792 L-124.5 -2.932 L-124.1 -4.865 L-123.7 -6.768 L-123.1 -8.629 L-122.3 -10.43 L-121.4 -12.17 L-120.4 -13.84 L-119.2 -15.41 L-117.9 -16.89 L-116.5 -18.26 L-115 -19.52 L-113.4 -20.65 L-111.7 -21.65 L-110 -22.51 L-108.2 -23.24 L-106.3 -23.81 L-104.4 -24.24 L-102.4 -24.51 L-100.5 -24.63 L-98.53 -24.59 L-96.58 -24.39 L-94.65 -24.04 L-92.76 -23.54 L-90.91 -22.89 L-89.12 -22.1 L-87.4 -21.17 L-85.76 -20.1 L-84.2 -18.9 L-82.75 -17.59 L-81.41 -16.16 L-80.18 -14.64 L-79.08 -13.02 L-78.12 -11.31 L-77.29 -9.539 L-76.6 -7.705 L-76.06 -5.821 L-75.68 -3.902 L-75.44 -1.957 L-75.36 -4.012e-10 Z " />
<path stroke="rgb(0,0,0)" stroke-opacity="1" fill="rgb(255,255,255)" fill-opacity="1" d="M-576.1 -576 L-578.1 -576 L-580 -576 L-582 -576 L-583.9 -576.1 L-585.9 -576.1 L-587.8 -576.1 L-589.8 -576.1 L-591.7 -576.1 L-593.7 -576.1 L-595.6 -576.1 L-597.6 -576.1 L-599.5 -576.1 L-601.5 -576.1 L-603.4 -576.1 L-605.4 -576.1 L-607.3 -576.1 L-609.3 -576.1 L-611.3 -576.1 L-613.2 -576.1 L-615.2 -576.1 L-617.1 -576.1 L-619.1 -576.1 L-621 -576.1 L-623 -576.1 L-624.9 -576.1 L-624.9 -578.1 L-624.9 -580 L-624.9 -582 L-624.9 -583.9 L-624.9 -585.9 L-624.9 -587.8 L-624.9 -589.8 L-624.9 -591.7 L-624.9 -593.7 L-624.9 -595.6 L-624.9 -597.6 L-624.9 -599.5 L-624.9 -601.5 L-624.9 -603.4 L-624.9 -605.4 L-624.9 -607.3 L-624.9 -609.3 L-624.9 -611.3 L-624.9 -613.2 L-624.8 -615.2 L-624.8 -617.1 L-624.8 -619.1 L-624.8 -621 L-624.8 -623 L-624.8 -624.9 L-622.9 -624.9 L-620.9 -624.9 L-619 -624.9 L-617 -624.9 L-615.1 -624.9 L-613.1 -624.9 L-611.2 -624.9 L-609.2 -624.9 L-607.3 -624.9 L-605.3 -624.9 L-603.4 -624.9 L-601.4 -624.9 L-599.5 -624.9 L-597.5 -624.9 L-595.6 -624.9 L-593.6 -624.9 L-591.7 -624.9 L-589.7 -624.9 L-587.7 -624.9 L-585.8 -624.8 L-583.8 -624.8 L-581.9 -624.8 L-579.9 -624.8 L-578 -624.8 L-576 -624.8 L-576 -622.9 L-576 -620.9 L-576 -619 L-576 -617 L-576.1 -615.1 L-576.1 -613.1 L-576.1 -611.2 L-576.1 -609.2 L-576.1 -607.3 L-576.1 -605.3 L-576.1 -603.4 L-576.1 -601.4 L-576.1 -599.5 L-576.1 -597.5 L-576.1 -595.6 L-576.1 -593.6 L-576.1 -591.7 L-576.1 -589.7 L-576.1 -587.7 L-576.1 -585.8 L-576.1 -583.8 L-576.1 -581.9 L-576.1 -579.9 L-576.1 -578 L-576.1 -576 Z " />
<path stroke="rgb(0,0,0)" stroke-opacity="0.924" fill="rgb(255,255,255)" fill-opacity="1" d="M124.6 -4.008e-10 L124.6 1.957 L124.3 3.902 L123.9 5.821 L123.4 7.705 L122.7 9.539 L121.9 11.31 L120.9 13.02 L119.8 14.64 L118.6 16.16 L117.2 17.59 L115.8 18.9 L114.2 20.1 L112.6 21.17 L110.9 22.1 L109.1 22.89 L107.2 23.54 L105.3 24.04 L103.4 24.39 L101.5 24.59 L99.51 24.63 L97.56 24.51 L95.62 24.24 L93.71 23.81 L91.84 23.24 L90.02 22.51 L88.26 21.65 L86.58 20.65 L84.98 19.52 L83.47 18.26 L82.08 16.89 L80.79 15.41 L79.63 13.84 L78.59 12.17 L77.69 10.43 L76.93 8.629 L76.32 6.768 L75.86 4.865 L75.55 2.932 L75.39 0.9792 L75.39 -0.9792 L75.55 -2.932 L75.86 -4.865 L76.32 -6.768 L76.93 -8.629 L77.69 -10.43 L78.59 -12.17 L79.63 -13.84 L80.79 -15.41 L82.08 -16.89 L83.47 -18.26 L84.98 -19.52 L86.58 -20.65 L88.26 -21.65 L90.02 -22.51 L91.84 -23.24 L93.71 -23.81 L95.62 -24.24 L97.56 -24.51 L99.51 -24.63 L101.5 -24.59 L103.4 -24.39 L105.3 -24.04 L107.2 -23.54 L109.1 -22.89 L110.9 -22.1 L112.6 -21.17 L114.2 -20.1 L115.8 -18.9 L117.2 -17.59 L118.6 -16.16 L119.8 -14.64 L120.9 -13.02 L121.9 -11.31 L122.7 -9.539 L123.4 -7.705 L123.9 -5.821 L124.3 -3.902 L124.6 -1.957 L124.6 -4.008e-10 Z " />
<path stroke="rgb(0,0,0)" stroke-opacity="1" fill="rgb(255,255,255)" fill-opacity="1" d="M-376.3 -575.6 L-378.2 -575.7 L-380.2 -575.7 L-382.2 -575.7 L-384.1 -575.7 L-386.1 -575.8 L-388 -575.8 L-390 -575.8 L-392 -575.9 L-393.9 -575.9 L-395.9 -575.9 L-397.8 -575.9 L-399.8 -576 L-401.8 -576 L-403.7 -576 L-405.7 -576 L-407.7 -576.1 L-409.6 -576.1 L-411.6 -576.1 L-413.5 -576.1 L-415.5 -576.2 L-417.5 -576.2 L-419.4 -576.2 L-421.4 -576.2 L-423.3 -576.3 L-425.3 -576.3 L-425.3 -578.2 L-425.3 -580.2 L-425.2 -582.2 L-425.2 -584.1 L-425.2 -586.1 L-425.2 -588 L-425.1 -590 L-425.1 -592 L-425.1 -593.9 L-425.1 -595.9 L-425 -597.9 L-425 -599.8 L-425 -601.8 L-425 -603.7 L-424.9 -605.7 L-424.9 -607.7 L-424.9 -609.6 L-424.9 -611.6 L-424.8 -613.5 L-424.8 -615.5 L-424.8 -617.5 L-424.8 -619.4 L-424.7 -621.4 L-424.7 -623.4 L-424.7 -625.3 L-422.7 -625.3 L-420.8 -625.3 L-418.8 -625.2 L-416.8 -625.2 L-414.9 -625.2 L-412.9 -625.2 L-410.9 -625.1 L-409 -625.1 L-407 -625.1 L-405.1 -625.1 L-403.1 -625 L-401.1 -625 L-399.2 -625 L-397.2 -625 L-395.3 -624.9 L-393.3 -624.9 L-391.3 -624.9 L-389.4 -624.9 L-387.4 -624.8 L-385.4 -624.8 L-383.5 -624.8 L-381.5 -624.8 L-379.6 -624.7 L-377.6 -624.7 L-375.6 -624.7 L-375.7 -622.7 L-375.7 -620.8 L-375.7 -618.8 L-375.7 -616.8 L-375.8 -614.9 L-375.8 -612.9 L-375.8 -611 L-375.8 -609 L-375.9 -607 L-375.9 -605.1 L-375.9 -603.1 L-375.9 -601.1 L-376 -599.2 L-376 -597.2 L-376 -595.3 L-376 -593.3 L-376.1 -591.3 L-376.1 -589.4 L-376.1 -587.4 L-376.1 -585.5 L-376.2 -583.5 L-376.2 -581.5 L-376.2 -579.6 L-376.2 -577.6 L-376.3 -575.6 Z " />
<path stroke="rgb(0,0,0)" stroke-opacity="0.924" fill="rgb(255,255,255)" fill-opacity="1" d="M324.6 -4.011e-10 L324.6 1.957 L324.3 3.902 L323.9 5.821 L323.4 7.705 L322.7 9.539 L321.9 11.31 L320.9 13.02 L319.8 14.64 L318.6 16.16 L317.2 17.59 L315.8 18.9 L314.2 20.1 L312.6 21.17 L310.9 22.1 L309.1 22.89 L307.2 23.54 L305.3 24.04 L303.4 24.39 L301.5 24.59 L299.5 24.63 L297.6 24.51 L295.6 24.24 L293.7 23.81 L291.8 23.24 L290 22.51 L288.3 21.65 L286.6 20.65 L285 19.52 L283.5 18.26 L282.1 16.89 L280.8 15.41 L279.6 13.84 L278.6 12.17 L277.7 10.43 L276.9 8.629 L276.3 6.768 L275.9 4.865 L275.5 2.932 L275.4 0.9792 L275.4 -0.9792 L275.5 -2.932 L275.9 -4.865 L276.3 -6.768 L276.9 -8.629 L277.7 -10.43 L278.6 -12.17 L279.6 -13.84 L280.8 -15.41 L282.1 -16.89 L283.5 -18.26 L285 -19.52 L286.6 -20.65 L288.3 -21.65 L290 -22.51 L291.8 -23.24 L293.7 -23.81 L295.6 -24.24 L297.6 -24.51 L299.5 -24.63 L301.5 -24.59 L303.4 -24.39 L305.3 -24.04 L307.2 -23.54 L309.1 -22.89 L310.9 -22.1 L312.6 -21.17 L314.2 -20.1 L315.8 -18.9 L317.2 -17.59 L318.6 -16.16 L319.8 -14.64 L320.9 -13.02 L321.9 -11.31 L322.7 -9.539 L323.4 -7.705 L323.9 -5.821 L324.3 -3.902 L324.6 -1.957 L324.6 -4.011e-10 Z " />
<path stroke="rgb(0,0,0)" stroke-opacity="1" fill="rgb(255,255,255)" fill-opacity="1" d="M-874.4 -481.7 L-876.2 -481.4 L-878 -481.1 L-879.8 -480.8 L-881.6 -480.5 L-883.4 -480.2 L-885.2 -479.9 L-887 -479.6 L-888.8 -479.3 L-890.6 -479 L-892.4 -478.8 L-894.1 -478.5 L-895.9 -478.2 L-897.7 -477.9 L-899.5 -477.6 L-901.3 -477.3 L-903.1 -477 L-904.9 -476.7 L-906.7 -476.4 L-908.5 -476.1 L-910.3 -475.8 L-912.1 -475.5 L-913.9 -475.2 L-915.7 -474.9 L-917.4 -474.7 L-919.2 -474.4 L-919.5 -476.2 L-919.8 -477.9 L-920.1 -479.7 L-920.4 -481.5 L-920.7 -483.3 L-921 -485.1 L-921.3 -486.9 L-921.6 -488.7 L-921.9 -490.5 L-922.2 -492.3 L-922.5 -494.1 L-922.7 -495.9 L-923 -497.7 L-923.3 -499.5 L-923.6 -501.2 L-923.9 -503 L-924.2 -504.8 L-924.5 -506.6 L-924.8 -508.4 L-925.1 -510.2 L-925.4 -512 L-925.7 -513.8 L-926 -515.6 L-926.3 -517.4 L-926.5 -519.2 L-924.8 -519.5 L-923 -519.7 L-921.2 -520 L-919.4 -520.3 L-917.6 -520.6 L-915.8 -520.9 L-914 -521.2 L-912.2 -521.5 L-910.4 -521.8 L-908.6 -522.1 L-906.8 -522.4 L-905 -522.7 L-903.3 -523 L-901.5 -523.3 L-899.7 -523.6 L-897.9 -523.8 L-896.1 -524.1 L-894.3 -524.4 L-892.5 -524.7 L-890.7 -525 L-888.9 -525.3 L-887.1 -525.6 L-885.3 -525.9 L-883.5 -526.2 L-881.8 -526.5 L-881.5 -524.7 L-881.2 -522.9 L-880.9 -521.1 L-880.6 -519.3 L-880.3 -517.5 L-880 -515.7 L-879.7 -513.9 L-879.4 -512.1 L-879.1 -510.3 L-878.8 -508.6 L-878.5 -506.8 L-878.2 -505 L-877.9 -503.2 L-877.7 -501.4 L-877.4 -499.6 L-877.1 -497.8 L-876.8 -496 L-876.5 -494.2 L-876.2 -492.4 L-875.9 -490.6 L-875.6 -488.8 L-875.3 -487.1 L-875 -485.3 L-874.7 -483.5 L-874.4 -481.7 Z " />
<path stroke="rgb(0,0,0)" stroke-opacity="0.924" fill="rgb(255,255,255)" fill-opacity="1" d="M-175.4 100 L-175.4 102 L-175.7 103.9 L-176.1 105.8 L-176.6 107.7 L-177.3 109.5 L-178.1 111.3 L-179.1 113 L-180.2 114.6 L-181.4 116.2 L-182.8 117.6 L-184.2 118.9 L-185.8 120.1 L-187.4 121.2 L-189.1 122.1 L-190.9 122.9 L-192.8 123.5 L-194.7 124 L-196.6 124.4 L-198.5 124.6 L-200.5 124.6 L-202.4 124.5 L-204.4 124.2 L-206.3 123.8 L-208.2 123.2 L-210 122.5 L-211.7 121.7 L-213.4 120.6 L-215 119.5 L-216.5 118.3 L-217.9 116.9 L-219.2 115.4 L-220.4 113.8 L-221.4 112.2 L-222.3 110.4 L-223.1 108.6 L-223.7 106.8 L-224.1 104.9 L-224.5 102.9 L-224.6 101 L-224.6 99.02 L-224.5 97.07 L-224.1 95.13 L-223.7 93.23 L-223.1 91.37 L-222.3 89.57 L-221.4 87.83 L-220.4 86.16 L-219.2 84.59 L-217.9 83.11 L-216.5 81.74 L-215 80.48 L-213.4 79.35 L-211.7 78.35 L-210 77.49 L-208.2 76.76 L-206.3 76.19 L-204.4 75.76 L-202.4 75.49 L-200.5 75.37 L-198.5 75.41 L-196.6 75.61 L-194.7 75.96 L-192.8 76.46 L-190.9 77.11 L-189.1 77.9 L-187.4 78.83 L-185.8 79.9 L-184.2 81.1 L-182.8 82.41 L-181.4 83.84 L-180.2 85.36 L-179.1 86.98 L-178.1 88.69 L-177.3 90.46 L-176.6 92.3 L-176.1 94.18 L-175.7 96.1 L-175.4 98.04 L-175.4 100 Z " />
<path stroke="rgb(0,0,0)" stroke-opacity="1" fill="rgb(255,255,255)" fill-opacity="1" d="M-676.1 -476 L-678.1 -476 L-680 -476 L-682 -476 L-683.9 -476.1 L-685.9 -476.1 L-687.8 -476.1 L-689.8 -476.1 L-691.7 -476.1 L-693.7 -476.1 L-695.6 -476.1 L-697.6 -476.1 L-699.5 -476.1 L-701.5 -476.1 L-703.4 -476.1 L-705.4 -476.1 L-707.3 -476.1 L-709.3 -476.1 L-711.3 -476.1 L-713.2 -476.1 L-715.2 -476.1 L-717.1 -476.1 L-719.1 -476.1 L-721 -476.1 L-723 -476.1 L-724.9 -476.1 L-724.9 -478.1 L-724.9 -480 L-724.9 -482 L-724.9 -483.9 L-724.9 -485.9 L-724.9 -487.8 L-724.9 -489.8 L-724.9 -491.7 L-724.9 -493.7 L-724.9 -495.6 L-724.9 -497.6 L-724.9 -499.5 L-724.9 -501.5 L-724.9 -503.4 L-724.9 -505.4 L-724.9 -507.3 L-724.9 -509.3 L-724.9 -511.3 L-724.9 -513.2 L-724.8 -515.2 L-724.8 -517.1 L-724.8 -519.1 L-724.8 -521 L-724.8 -523 L-724.8 -524.9 L-722.9 -524.9 L-720.9 -524.9 L-719 -524.9 L-717 -524.9 L-715.1 -524.9 L-713.1 -524.9 L-711.2 -524.9 L-709.2 -524.9 L-707.3 -524.9 L-705.3 -524.9 L-703.4 -524.9 L-701.4 -524.9 L-699.5 -524.9 L-697.5 -524.9 L-695.6 -524.9 L-693.6 -524.9 L-691.7 -524.9 L-689.7 -524.9 L-687.7 -524.9 L-685.8 -524.8 L-683.8 -524.8 L-681.9 -524.8 L-679.9 -524.8 L-678 -524.8 L-676 -524.8 L-676 -522.9 L-676 -520.9 L-676 -519 L-676 -517 L-676.1 -515.1 L-676.1 -513.1 L-676.1 -511.2 L-676.1 -509.2 L-676.1 -507.3 L-676.1 -505.3 L-676.1 -503.4 L-676.1 -501.4 L-676.1 -499.5 L-676.1 -497.5 L-676.1 -495.6 L-676.1 -493.6 L-676.1 -491.7 L-676.1 -489.7 L-676.1 -487.7 L-676.1 -485.8 L-676.1 -483.8 L-676.1 -481.9 L-676.1 -479.9 L-676.1 -478 L-676.1 -476 Z " />
<path stroke="rgb(0,0,0)" stroke-opacity="0.924" fill="rgb(255,255,255)" fill-opacity="1" d="M24.64 100 L24.56 102 L24.32 103.9 L23.94 105.8 L23.4 107.7 L22.71 109.5 L21.88 111.3 L20.92 113 L19.82 114.6 L18.59 116.2 L17.25 117.6 L15.8 118.9 L14.24 120.1 L12.6 121.2 L10.88 122.1 L9.09 122.9 L7.242 123.5 L5.349 124 L3.422 124.4 L1.473 124.6 L-0.4851 124.6 L-2.44 124.5 L-4.38 124.2 L-6.291 123.8 L-8.164 123.2 L-9.984 122.5 L-11.74 121.7 L-13.42 120.6 L-15.02 119.5 L-16.53 118.3 L-17.92 116.9 L-19.21 115.4 L-20.37 113.8 L-21.41 112.2 L-22.31 110.4 L-23.07 108.6 L-23.68 106.8 L-24.14 104.9 L-24.45 102.9 L-24.61 101 L-24.61 99.02 L-24.45 97.07 L-24.14 95.13 L-23.68 93.23 L-23.07 91.37 L-22.31 89.57 L-21.41 87.83 L-20.37 86.16 L-19.21 84.59 L-17.92 83.11 L-16.53 81.74 L-15.02 80.48 L-13.42 79.35 L-11.74 78.35 L-9.984 77.49 L-8.164 76.76 L-6.291 76.19 L-4.38 75.76 L-2.44 75.49 L-0.4851 75.37 L1.473 75.41 L3.422 75.61 L5.349 75.96 L7.242 76.46 L9.09 77.11 L10.88 77.9 L12.6 78.83 L14.24 79.9 L15.8 81.1 L17.25 82.41 L18.59 83.84 L19.82 85.36 L20.92 86.98 L21.88 88.69 L22.71 90.46 L23.4 92.3 L23.94 94.18 L24.32 96.1 L24.56 98.04 L24.64 100 Z " />
<path stroke="rgb(0,0,0)" stroke-opacity="1" fill="rgb(255,255,255)" fill-opacity="1" d="M-476.3 -475.6 L-478.2 -475.7 L-480.2 -475.7 L-482.2 -475.7 L-484.1 -475.7 L-486.1 -475.8 L-488 -475.8 L-490 -475.8 L-492 -475.9 L-493.9 -475.9 L-495.9 -475.9 L-497.8 -475.9 L-499.8 -476 L-501.8 -476 L-503.7 -476 L-505.7 -476 L-507.7 -476.1 L-509.6 -476.1 L-511.6 -476.1 L-513.5 -476.1 L-515.5 -476.2 L-517.5 -476.2 L-519.4 -476.2 L-521.4 -476.2 L-523.3 -476.3 L-525.3 -476.3 L-525.3 -478.2 L-525.3 -480.2 L-525.2 -482.2 L-525.2 -484.1 L-525.2 -486.1 L-525.2 -488 L-525.1 -490 L-525.1 -492 L-525.1 -493.9 L-525.1 -495.9 L-525 -497.9 L-525 -499.8 L-525 -501.8 L-525 -503.7 L-524.9 -505.7 L-524.9 -507.7 L-524.9 -509.6 L-524.9 -511.6 L-524.8 -513.5 L-524.8 -515.5 L-524.8 -517.5 L-524.8 -519.4 L-524.7 -521.4 L-524.7 -523.4 L-524.7 -525.3 L-522.7 -525.3 L-520.8 -525.3 L-518.8 -525.2 L-516.8 -525.2 L-514.9 -525.2 L-512.9 -525.2 L-510.9 -525.1 L-509 -525.1 L-507 -525.1 L-505.1 -525.1 L-503.1 -525 L-501.1 -525 L-499.2 -525 L-497.2 -525 L-495.3 -524.9 L-493.3 -524.9 L-491.3 -524.9 L-489.4 -524.9 L-487.4 -524.8 L-485.4 -524.8 L-483.5 -524.8 L-481.5 -524.8 L-479.6 -524.7 L-477.6 -524.7 L-475.6 -524.7 L-475.7 -522.7 L-475.7 -520.8 L-475.7 -518.8 L-475.7 -516.8 L-475.8 -514.9 L-475.8 -512.9 L-475.8 -511 L-475.8 -509 L-475.9 -507 L-475.9 -505.1 L-475.9 -503.1 L-475.9 -501.1 L-476 -499.2 L-476 -497.2 L-476 -495.3 L-476 -493.3 L-476.1 -491.3 L-476.1 -489.4 L-476.1 -487.4 L-476.1 -485.5 L-476.2 -483.5 L-476.2 -481.5 L-476.2 -479.6 L-476.2 -477.6 L-476.3 -475.6 Z " />
<path stroke="rgb(0,0,0)" stroke-opacity="0.924" fill="rgb(255,255,255)" fill-opacity="1" d="M224.6 100 L224.6 102 L224.3 103.9 L223.9 105.8 L223.4 107.7 L222.7 109.5 L221.9 111.3 L220.9 113 L219.8 114.6 L218.6 116.2 L217.2 117.6 L215.8 118.9 L214.2 120.1 L212.6 121.2 L210.9 122.1 L209.1 122.9 L207.2 123.5 L205.3 124 L203.4 124.4 L201.5 124.6 L199.5 124.6 L197.6 124.5 L195.6 124.2 L193.7 123.8 L191.8 123.2 L190 122.5 L188.3 121.7 L186.6 120.6 L185 119.5 L183.5 118.3 L182.1 116.9 L180.8 115.4 L179.6 113.8 L178.6 112.2 L177.7 110.4 L176.9 108.6 L176.3 106.8 L175.9 104.9 L175.5 102.9 L175.4 101 L175.4 99.02 L175.5 97.07 L175.9 95.13 L176.3 93.23 L176.9 91.37 L177.7 89.57 L178.6 87.83 L179.6 86.16 L180.8 84.59 L182.1 83.11 L183.5 81.74 L185 80.48 L186.6 79.35 L188.3 78.35 L190 77.49 L191.8 76.76 L193.7 76.19 L195.6 75.76 L197.6 75.49 L199.5 75.37 L201.5 75.41 L203.4 75.61 L205.3 75.96 L207.2 76.46 L209.1 77.11 L210.9 77.9 L212.6 78.83 L214.2 79.9 L215.8 81.1 L217.2 82.41 L218.6 83.84 L219.8 85.36 L220.9 86.98 L221.9 88.69 L222.7 90.46 L223.4 92.3 L223.9 94.18 L224.3 96.1 L224.6 98.04 L224.6 100 Z " />
<path stroke="rgb(0,0,0)" stroke-opacity="1" fill="rgb(255,255,255)" fill-opacity="1" d="M-276.3 -475.6 L-278.2 -475.7 L-280.2 -475.7 L-282.2 -475.7 L-284.1 -475.7 L-286.1 -475.8 L-288 -475.8 L-290 -475.8 L-292 -475.9 L-293.9 -475.9 L-295.9 -475.9 L-297.8 -475.9 L-299.8 -476 L-301.8 -476 L-303.7 -476 L-305.7 -476 L-307.7 -476.1 L-309.6 -476.1 L-311.6 -476.1 L-313.5 -476.1 L-315.5 -476.2 L-317.5 -476.2 L-319.4 -476.2 L-321.4 -476.2 L-323.3 -476.3 L-325.3 -476.3 L-325.3 -478.2 L-325.3 -480.2 L-325.2 -482.2 L-325.2 -484.1 L-325.2 -486.1 L-325.2 -488 L-325.1 -490 L-325.1 -492 L-325.1 -493.9 L-325.1 -495.9 L-325 -497.9 L-325 -499.8 L-325 -501.8 L-325 -503.7 L-324.9 -505.7 L-324.9 -507.7 L-324.9 -509.6 L-324.9 -511.6 L-324.8 -513.5 L-324.8 -515.5 L-324.8 -517.5 L-324.8 -519.4 L-324.7 -521.4 L-324.7 -523.4 L-324.7 -525.3 L-322.7 -525.3 L-320.8 -525.3 L-318.8 -525.2 L-316.8 -525.2 L-314.9 -525.2 L-312.9 -525.2 L-310.9 -525.1 L-309 -525.1 L-307 -525.1 L-305.1 -525.1 L-303.1 -525 L-301.1 -525 L-299.2 -525 L-297.2 -525 L-295.3 -524.9 L-293.3 -524.9 L-291.3 -524.9 L-289.4 -524.9 L-287.4 -524.8 L-285.4 -524.8 L-283.5 -524.8 L-281.5 -524.8 L-279.6 -524.7 L-277.6 -524.7 L-275.6 -524.7 L-275.7 -522.7 L-275.7 -520.8 L-275.7 -518.8 L-275.7 -516.8 L-275.8 -514.9 L-275.8 -512.9 L-275.8 -511 L-275.8 -509 L-275.9 -507 L-275.9 -505.1 L-275.9 -503.1 L-275.9 -501.1 L-276 -499.2 L-276 -497.2 L-276 -495.3 L-276 -493.3 L-276.1 -491.3 L-276.1 -489.4 L-276.1 -487.4 L-276.1 -485.5 L-276.2 -483.5 L-276.2 -481.5 L-276.2 -479.6 L-276.2 -477.6 L-276.3 -475.6 Z " />
<path stroke="rgb(0,0,0)" stroke-opacity="0.924" fill="rgb(255,255,255)" fill-opacity="1" d="M-275.4 200 L-275.4 202 L-275.7 203.9 L-276.1 205.8 L-276.6 207.7 L-277.3 209.5 L-278.1 211.3 L-279.1 213 L-280.2 214.6 L-281.4 216.2 L-282.8 217.6 L-284.2 218.9 L-285.8 220.1 L-287.4 221.2 L-289.1 222.1 L-290.9 222.9 L-292.8 223.5 L-294.7 224 L-296.6 224.4 L-298.5 224.6 L-300.5 224.6 L-302.4 224.5 L-304.4 224.2 L-306.3 223.8 L-308.2 223.2 L-310 222.5 L-311.7 221.7 L-313.4 220.6 L-315 219.5 L-316.5 218.3 L-317.9 216.9 L-319.2 215.4 L-320.4 213.8 L-321.4 212.2 L-322.3 210.4 L-323.1 208.6 L-323.7 206.8 L-324.1 204.9 L-324.5 202.9 L-324.6 201 L-324.6 199 L-324.5 197.1 L-324.1 195.1 L-323.7 193.2 L-323.1 191.4 L-322.3 189.6 L-321.4 187.8 L-320.4 186.2 L-319.2 184.6 L-317.9 183.1 L-316.5 181.7 L-315 180.5 L-313.4 179.4 L-311.7 178.3 L-310 177.5 L-308.2 176.8 L-306.3 176.2 L-304.4 175.8 L-302.4 175.5 L-300.5 175.4 L-298.5 175.4 L-296.6 175.6 L-294.7 176 L-292.8 176.5 L-290.9 177.1 L-289.1 177.9 L-287.4 178.8 L-285.8 179.9 L-284.2 181.1 L-282.8 182.4 L-281.4 183.8 L-280.2 185.4 L-279.1 187 L-278.1 188.7 L-277.3 190.5 L-276.6 192.3 L-276.1 194.2 L-275.7 196.1 L-275.4 198 L-275.4 200 Z " />
<path stroke="rgb(0,0,0)" stroke-opacity="1" fill="rgb(255,255,255)" fill-opacity="1" d="M-776.1 -376 L-778.1 -376 L-780 -376 L-782 -376 L-783.9 -376.1 L-785.9 -376.1 L-787.8 -376.1 L-789.8 -376.1 L-791.7 -376.1 L-793.7 -376.1 L-795.6 -376.1 L-797.6 -376.1 L-799.5 -376.1 L-801.5 -376.1 L-803.4 -376.1 L-805.4 -376.1 L-807.3 -376.1 L-809.3 -376.1 L-811.3 -376.1 L-813.2 -376.1 L-815.2 -376.1 L-817.1 -376.1 L-819.1 -376.1 L-821 -376.1 L-823 -376.1 L-824.9 -376.1 L-824.9 -378.1 L-824.9 -380 L-824.9 -382 L-824.9 -383.9 L-824.9 -385.9 L-824.9 -387.8 L-824.9 -389.8 L-824.9 -391.7 L-824.9 -393.7 L-824.9 -395.6 L-824.9 -397.6 L-824.9 -399.5 L-824.9 -401.5 L-824.9 -403.4 L-824.9 -405.4 L-824.9 -407.3 L-824.9 -409.3 L-824.9 -411.3 L-824.9 -413.2 L-824.8 -415.2 L-824.8 -417.1 L-824.8 -419.1 L-824.8 -421 L-824.8 -423 L-824.8 -424.9 L-822.9 -424.9 L-820.9 -424.9 L-819 -424.9 L-817 -424.9 L-815.1 -424.9 L-813.1 -424.9 L-811.2 -424.9 L-809.2 -424.9 L-807.3 -424.9 L-805.3 -424.9 L-803.4 -424.9 L-801.4 -424.9 L-799.5 -424.9 L-797.5 -424.9 L-795.6 -424.9 L-793.6 -424.9 L-791.7 -424.9 L-789.7 -424.9 L-787.7 -424.9 L-785.8 -424.8 L-783.8 -424.8 L-781.9 -424.8 L-779.9 -424.8 L-778 -424.8 L-776 -424.8 L-776 -422.9 L-776 -420.9 L-776 -419 L-776 -417 L-776.1 -415.1 L-776.1 -413.1 L-776.1 -411.2 L-776.1 -409.2 L-776.1 -407.3 L-776.1 -405.3 L-776.1 -403.4 L-776.1 -401.4 L-776.1 -399.5 L-776.1 -397.5 L-776.1 -395.6 L-776.1 -393.6 L-776.1 -391.7 L-776.1 -389.7 L-776.1 -387.7 L-776.1 -385.8 L-776.1 -383.8 L-776.1 -381.9 L-776.1 -379.9 L-776.1 -378 L-776.1 -376 Z " />
<path stroke="rgb(0,0,0)" stroke-opacity="0.924" fill="rgb(255,255,255)" fill-opacity="1" d="M-75.36 200 L-75.44 202 L-75.68 203.9 L-76.06 205.8 L-76.6 207.7 L-77.29 209.5 L-78.12 211.3 L-79.08 213 L-80.18 214.6 L-81.41 216.2 L-82.75 217.6 L-84.2 218.9 L-85.76 220.1 L-87.4 221.2 L-89.12 222.1 L-90.91 222.9 L-92.76 223.5 L-94.65 224 L-96.58 224.4 L-98.53 224.6 L-100.5 224.6 L-102.4 224.5 L-104.4 224.2 L-106.3 223.8 L-108.2 223.2 L-110 222.5 L-111.7 221.7 L-113.4 220.6 L-115 219.5 L-116.5 218.3 L-117.9 216.9 L-119.2 215.4 L-120.4 213.8 L-121.4 212.2 L-122.3 210.4 L-123.1 208.6 L-123.7 206.8 L-124.1 204.9 L-124.5 202.9 L-124.6 201 L-124.6 199 L-124.5 197.1 L-124.1 195.1 L-123.7 193.2 L-123.1 191.4 L-122.3 189.6 L-121.4 187.8 L-120.4 186.2 L-119.2 184.6 L-117.9 183.1 L-116.5 181.7 L-115 180.5 L-113.4 179.4 L-111.7 178.3 L-110 177.5 L-108.2 176.8 L-106.3 176.2 L-104.4 175.8 L-102.4 175.5 L-100.5 175.4 L-98.53 175.4 L-96.58 175.6 L-94.65 176 L-92.76 176.5 L-90.91 177.1 L-89.12 177.9 L-87.4 178.8 L-85.76 179.9 L-84.2 181.1 L-82.75 182.4 L-81.41 183.8 L-80.18 185.4 L-79.08 187 L-78.12 188.7 L-77.29 190.5 L-76.6 192.3 L-76.06 194.2 L-75.68 196.1 L-75.44 198 L-75.36 200 Z " />
<path stroke="rgb(0,0,0)" stroke-opacity="1" fill="rgb(255,255,255)" fill-opacity="1" d="M-576.3 -375.6 L-578.2 -375.7 L-580.2 -375.7 L-582.2 -375.7 L-584.1 -375.7 L-586.1 -375.8 L-588 -375.8 L-590 -375.8 L-592 -375.9 L-593.9 -375.9 L-595.9 -375.9 L-597.8 -375.9 L-599.8 -376 L-601.8 -376 L-603.7 -376 L-605.7 -376 L-607.7 -376.1 L-609.6 -376.1 L-611.6 -376.1 L-613.5 -376.1 L-615.5 -376.2 L-617.5 -376.2 L-619.4 -376.2 L-621.4 -376.2 L-623.3 -376.3 L-625.3 -376.3 L-625.3 -378.2 L-625.3 -380.2 L-625.2 -382.2 L-625.2 -384.1 L-625.2 -386.1 L-625.2 -388 L-625.1 -390 L-625.1 -392 L-625.1 -393.9 L-625.1 -395.9 L-625 -397.9 L-625 -399.8 L-625 -401.8 L-625 -403.7 L-624.9 -405.7 L-624.9 -407.7 L-624.9 -409.6 L-624.9 -411.6 L-624.8 -413.5 L-624.8 -415.5 L-624.8 -417.5 L-624.8 -419.4 L-624.7 -421.4 L-624.7 -423.4 L-624.7 -425.3 L-622.7 -425.3 L-620.8 -425.3 L-618.8 -425.2 L-616.8 -425.2 L-614.9 -425.2 L-612.9 -425.2 L-610.9 -425.1 L-609 -425.1 L-607 -425.1 L-605.1 -425.1 L-603.1 -425 L-601.1 -425 L-599.2 -425 L-597.2 -425 L-595.3 -424.9 L-593.3 -424.9 L-591.3 -424.9 L-589.4 -424.9 L-587.4 -424.8 L-585.4 -424.8 L-583.5 -424.8 L-581.5 -424.8 L-579.6 -424.7 L-577.6 -424.7 L-575.6 -424.7 L-575.7 -422.7 L-575.7 -420.8 L-575.7 -418.8 L-575.7 -416.8 L-575.8 -414.9 L-575.8 -412.9 L-575.8 -411 L-575.8 -409 L-575.9 -407 L-575.9 -405.1 L-575.9 -403.1 L-575.9 -401.1 L-576 -399.2 L-576 -397.2 L-576 -395.3 L-576 -393.3 L-576.1 -391.3 L-576.1 -389.4 L-576.1 -387.4 L-576.1 -385.5 L-576.2 -383.5 L-576.2 -381.5 L-576.2 -379.6 L-576.2 -377.6 L-576.3 -375.6 Z " />
<path stroke="rgb(0,0,0)" stroke-opacity="0.924" fill="rgb(255,255,255)" fill-opacity="1" d="M124.6 200 L124.6 202 L124.3 203.9 L123.9 205.8 L123.4 207.7 L122.7 209.5 L121.9 211.3 L120.9 213 L119.8 214.6 L118.6 216.2 L117.2 217.6 L115.8 218.9 L114.2 220.1 L112.6 221.2 L110.9 222.1 L109.1 222.9 L107.2 223.5 L105.3 224 L103.4 224.4 L101.5 224.6 L99.51 224.6 L97.56 224.5 L95.62 224.2 L93.71 223.8 L91.84 223.2 L90.02 222.5 L88.26 221.7 L86.58 220.6 L84.98 219.5 L83.47 218.3 L82.08 216.9 L80.79 215.4 L79.63 213.8 L78.59 212.2 L77.69 210.4 L76.93 208.6 L76.32 206.8 L75.86 204.9 L75.55 202.9 L75.39 201 L75.39 199 L75.55 197.1 L75.86 195.1 L76.32 193.2 L76.93 191.4 L77.69 189.6 L78.59 187.8 L79.63 186.2 L80.79 184.6 L82.08 183.1 L83.47 181.7 L84.98 180.5 L86.58 179.4 L88.26 178.3 L90.02 177.5 L91.84 176.8 L93.71 176.2 L95.62 175.8 L97.56 175.5 L99.51 175.4 L101.5 175.4 L103.4 175.6 L105.3 176 L107.2 176.5 L109.1 177.1 L110.9 177.9 L112.6 178.8 L114.2 179.9 L115.8 181.1 L117.2 182.4 L118.6 183.8 L119.8 185.4 L120.9 187 L121.9 188.7 L122.7 190.5 L123.4 192.3 L123.9 194.2 L124.3 196.1 L124.6 198 L124.6 200 Z " />
<path stroke="rgb(0,0,0)" stroke-opacity="1" fill="rgb(255,255,255)" fill-opacity="1" d="M-376.3 -375.6 L-378.2 -375.7 L-380.2 -375.7 L-382.2 -375.7 L-384.1 -375.7 L-386.1 -375.8 L-388 -375.8 L-390 -375.8 L-392 -375.9 L-393.9 -375.9 L-395.9 -375.9 L-397.8 -375.9 L-399.8 -376 L-401.8 -376 L-403.7 -376 L-405.7 -376 L-407.7 -376.1 L-409.6 -376.1 L-411.6 -376.1 L-413.5 -376.1 L-415.5 -376.2 L-417.5 -376.2 L-419.4 -376.2 L-421.4 -376.2 L-423.3 -376.3 L-425.3 -376.3 L-425.3 -378.2 L-425.3 -380.2 L-425.2 -382.2 L-425.2 -384.1 L-425.2 -386.1 L-425.2 -388 L-425.1 -390 L-425.1 -392 L-425.1 -393.9 L-425.1 -395.9 L-425 -397.9 L-425 -399.8 L-425 -401.8 L-425 -403.7 L-424.9 -405.7 L-424.9 -407.7 L-424.9 -409.6 L-424.9 -411.6 L-424.8 -413.5 L-424.8 -415.5 L-424.8 -417.5 L-424.8 -419.4 L-424.7 -421.4 L-424.7 -423.4 L-424.7 -425.3 L-422.7 -425.3 L-420.8 -425.3 L-418.8 -425.2 L-416.8 -425.2 L-414.9 -425.2 L-412.9 -425.2 L-410.9 -425.1 L-409 -425.1 L-407 -425.1 L-405.1 -425.1 L-403.1 -425 L-401.1 -425 L-399.2 -425 L-397.2 -425 L-395.3 -424.9 L-393.3 -424.9 L-391.3 -424.9 L-389.4 -424.9 L-387.4 -424.8 L-385.4 -424.8 L-383.5 -424.8 L-381.5 -424.8 L-379.6 -424.7 L-377.6 -424.7 L-375.6 -424.7 L-375.7 -422.7 L-375.7 -420.8 L-375.7 -418.8 L-375.7 -416.8 L-375.8 -414.9 L-375.8 -412.9 L-375.8 -411 L-375.8 -409 L-375.9 -407 L-375.9 -405.1 L-375.9 -403.1 L-375.9 -401.1 L-376 -399.2 L-376 -397.2 L-376 -395.3 L-376 -393.3 L-376.1 -391.3 L-376.1 -389.4 L-376.1 -387.4 L-376.1 -385.5 L-376.2 -383.5 L-376.2 -381.5 L-376.2 -379.6 L-376.2 -377.6 L-376.3 -375.6 Z " />
<path stroke="rgb(0,0,0)" stroke-opacity="0.924" fill="rgb(255,255,255)" fill-opacity="1" d="M324.6 200 L324.6 202 L324.3 203.9 L323.9 205.8 L323.4 207.7 L322.7 209.5 L321.9 211.3 L320.9 213 L319.8 214.6 L318.6 216.2 L317.2 217.6 L315.8 218.9 L314.2 220.1 L312.6 221.2 L310.9 222.1 L309.1 222.9 L307.2 223.5 L305.3 224 L303.4 224.4 L301.5 224.6 L299.5 224.6 L297.6 224.5 L295.6 224.2 L293.7 223.8 L291.8 223.2 L290 222.5 L288.3 221.7 L286.6 220.6 L285 219.5 L283.5 218.3 L282.1 216.9 L280.8 215.4 L279.6 213.8 L278.6 212.2 L277.7 210.4 L276.9 208.6 L276.3 206.8 L275.9 204.9 L275.5 202.9 L275.4 201 L275.4 199 L275.5 197.1 L275.9 195.1 L276.3 193.2 L276.9 191.4 L277.7 189.6 L278.6 187.8 L279.6 186.2 L280.8 184.6 L282.1 183.1 L283.5 181.7 L285 180.5 L286.6 179.4 L288.3 178.3 L290 177.5 L291.8 176.8 L293.7 176.2 L295.6 175.8 L297.6 175.5 L299.5 175.4 L301.5 175.4 L303.4 175.6 L305.3 176 L307.2 176.5 L309.1 177.1 L310.9 177.9 L312.6 178.8 L314.2 179.9 L315.8 181.1 L317.2 182.4 L318.6 183.8 L319.8 185.4 L320.9 187 L321.9 188.7 L322.7 190.5 L323.4 192.3 L323.9 194.2 L324.3 196.1 L324.6 198 L324.6 200 Z " />
<path stroke="rgb(0,0,0)" stroke-opacity="1" fill="rgb(255,255,255)" fill-opacity="1" d="M-876.1 -276 L-878.1 -276 L-880 -276 L-882 -276 L-883.9 -276.1 L-885.9 -276.1 L-887.8 -276.1 L-889.8 -276.1 L-891.7 -276.1 L-893.7 -276.1 L-895.6 -276.1 L-897.6 -276.1 L-899.5 -276.1 L-901.5 -276.1 L-903.4 -276.1 L-905.4 -276.1 L-907.3 -276.1 L-909.3 -276.1 L-911.3 -276.1 L-913.2 -276.1 L-915.2 -276.1 L-917.1 -276.1 L-919.1 -276.1 L-921 -276.1 L-923 -276.1 L-924.9 -276.1 L-924.9 -278.1 L-924.9 -280 L-924.9 -282 L-924.9 -283.9 L-924.9 -285.9 L-924.9 -287.8 L-924.9 -289.8 L-924.9 -291.7 L-924.9 -293.7 L-924.9 -295.6 L-924.9 -297.6 L-924.9 -299.5 L-924.9 -301.5 L-924.9 -303.4 L-924.9 -305.4 L-924.9 -307.3 L-924.9 -309.3 L-924.9 -311.3 L-924.9 -313.2 L-924.8 -315.2 L-924.8 -317.1 L-924.8 -319.1 L-924.8 -321 L-924.8 -323 L-924.8 -324.9 L-922.9 -324.9 L-920.9 -324.9 L-919 -324.9 L-917 -324.9 L-915.1 -324.9 L-913.1 -324.9 L-911.2 -324.9 L-909.2 -324.9 L-907.3 -324.9 L-905.3 -324.9 L-903.4 -324.9 L-901.4 -324.9 L-899.5 -324.9 L-897.5 -324.9 L-895.6 -324.9 L-893.6 -324.9 L-891.7 -324.9 L-889.7 -324.9 L-887.7 -324.9 L-885.8 -324.8 L-883.8 -324.8 L-881.9 -324.8 L-879.9 -324.8 L-878 -324.8 L-876 -324.8 L-876 -322.9 L-876 -320.9 L-876 -319 L-876 -317 L-876.1 -315.1 L-876.1 -313.1 L-876.1 -311.2 L-876.1 -309.2 L-876.1 -307.3 L-876.1 -305.3 L-876.1 -303.4 L-876.1 -301.4 L-876.1 -299.5 L-876.1 -297.5 L-876.1 -295.6 L-876.1 -293.6 L-876.1 -291.7 L-876.1 -289.7 L-876.1 -287.7 L-876.1 -285.8 L-876.1 -283.8 L-876.1 -281.9 L-876.1 -279.9 L-876.1 -278 L-876.1 -276 Z " />
<path stroke="rgb(0,0,0)" stroke-opacity="0.924" fill="rgb(255,255,255)" fill-opacity="1" d="M-175.4 300 L-175.4 302 L-175.7 303.9 L-176.1 305.8 L-176.6 307.7 L-177.3 309.5 L-178.1 311.3 L-179.1 313 L-180.2 314.6 L-181.4 316.2 L-182.8 317.6 L-184.2 318.9 L-185.8 320.1 L-187.4 321.2 L-189.1 322.1 L-190.9 322.9 L-192.8 323.5 L-194.7 324 L-196.6 324.4 L-198.5 324.6 L-200.5 324.6 L-202.4 324.5 L-204.4 324.2 L-206.3 323.8 L-208.2 323.2 L-210 322.5 L-211.7 321.7 L-213.4 320.6 L-215 319.5 L-216.5 318.3 L-217.9 316.9 L-219.2 315.4 L-220.4 313.8 L-221.4 312.2 L-222.3 310.4 L-223.1 308.6 L-223.7 306.8 L-224.1 304.9 L-224.5 302.9 L-224.6 301 L-224.6 299 L-224.5 297.1 L-224.1 295.1 L-223.7 293.2 L-223.1 291.4 L-222.3 289.6 L-221.4 287.8 L-220.4 286.2 L-219.2 284.6 L-217.9 283.1 L-216.5 281.7 L-215 280.5 L-213.4 279.4 L-211.7 278.3 L-210 277.5 L-208.2 276.8 L-206.3 276.2 L-204.4 275.8 L-202.4 275.5 L-200.5 275.4 L-198.5 275.4 L-196.6 275.6 L-194.7 276 L-192.8 276.5 L-190.9 277.1 L-189.1 277.9 L-187.4 278.8 L-185.8 279.9 L-184.2 281.1 L-182.8 282.4 L-181.4 283.8 L-180.2 285.4 L-179.1 287 L-178.1 288.7 L-177.3 290.5 L-176.6 292.3 L-176.1 294.2 L-175.7 296.1 L-175.4 298 L-175.4 300 Z " />
<path stroke="rgb(0,0,0)" stroke-opacity="1" fill="rgb(255,255,255)" fill-opacity="1" d="M-676.3 -275.6 L-678.2 -275.7 L-680.2 -275.7 L-682.2 -275.7 L-684.1 -275.7 L-686.1 -275.8 L-688 -275.8 L-690 -275.8 L-692 -275.9 L-693.9 -275.9 L-695.9 -275.9 L-697.8 -275.9 L-699.8 -276 L-701.8 -276 L-703.7 -276 L-705.7 -276 L-707.7 -276.1 L-709.6 -276.1 L-711.6 -276.1 L-713.5 -276.1 L-715.5 -276.2 L-717.5 -276.2 L-719.4 -276.2 L-721.4 -276.2 L-723.3 -276.3 L-725.3 -276.3 L-725.3 -278.2 L-725.3 -280.2 L-725.2 -282.2 L-725.2 -284.1 L-725.2 -286.1 L-725.2 -288 L-725.1 -290 L-725.1 -292 L-725.1 -293.9 L-725.1 -295.9 L-725 -297.9 L-725 -299.8 L-725 -301.8 L-725 -303.7 L-724.9 -305.7 L-724.9 -307.7 L-724.9 -309.6 L-724.9 -311.6 L-724.8 -313.5 L-724.8 -315.5 L-724.8 -317.5 L-724.8 -319.4 L-724.7 -321.4 L-724.7 -323.4 L-724.7 -325.3 L-722.7 -325.3 L-720.8 -325.3 L-718.8 -325.2 L-716.8 -325.2 L-714.9 -325.2 L-712.9 -325.2 L-710.9 -325.1 L-709 -325.1 L-707 -325.1 L-705.1 -325.1 L-703.1 -325 L-701.1 -325 L-699.2 -325 L-697.2 -325 L-695.3 -324.9 L-693.3 -324.9 L-691.3 -324.9 L-689.4 -324.9 L-687.4 -324.8 L-685.4 -324.8 L-683.5 -324.8 L-681.5 -324.8 L-679.6 -324.7 L-677.6 -324.7 L-675.6 -324.7 L-675.7 -322.7 L-675.7 -320.8 L-675.7 -318.8 L-675.7 -316.8 L-675.8 -314.9 L-675.8 -312.9 L-675.8 -311 L-675.8 -309 L-675.9 -307 L-675.9 -305.1 L-675.9 -303.1 L-675.9 -301.1 L-676 -299.2 L-676 -297.2 L-676 -295.3 L-676 -293.3 L-676.1 -291.3 L-676.1 -289.4 L-676.1 -287.4 L-676.1 -285.5 L-676.2 -283.5 L-676.2 -281.5 L-676.2 -279.6 L-676.2 -277.6 L-676.3 -275.6 Z " />
<path stroke="rgb(0,0,0)" stroke-opacity="0.924" fill="rgb(255,255,255)" fill-opacity="1" d="M24.64 300 L24.56 302 L24.32 303.9 L23.94 305.8 L23.4 307.7 L22.71 309.5 L21.88 311.3 L20.92 313 L19.82 314.6 L18.59 316.2 L17.25 317.6 L15.8 318.9 L14.24 320.1 L12.6 321.2 L10.88 322.1 L9.09 322.9 L7.242 323.5 L5.349 324 L3.422 324.4 L1.473 324.6 L-0.4851 324.6 L-2.44 324.5 L-4.38 324.2 L-6.291 323.8 L-8.164 323.2 L-9.984 322.5 L-11.74 321.7 L-13.42 320.6 L-15.02 319.5 L-16.53 318.3 L-17.92 316.9 L-19.21 315.4 L-20.37 313.8 L-21.41 312.2 L-22.31 310.4 L-23.07 308.6 L-23.68 306.8 L-24.14 304.9 L-24.45 302.9 L-24.61 301 L-24.61 299 L-24.45 297.1 L-24.14 295.1 L-23.68 293.2 L-23.07 291.4 L-22.31 289.6 L-21.41 287.8 L-20.37 286.2 L-19.21 284.6 L-17.92 283.1 L-16.53 281.7 L-15.02 280.5 L-13.42 279.4 L-11.74 278.3 L-9.984 277.5 L-8.164 276.8 L-6.291 276.2 L-4.38 275.8 L-2.44 275.5 L-0.4851 275.4 L1.473 275.4 L3.422 275.6 L5.349 276 L7.242 276.5 L9.09 277.1 L10.88 277.9 L12.6 278.8 L14.24 279.9 L15.8 281.1 L17.25 282.4 L18.59 283.8 L19.82 285.4 L20.92 287 L21.88 288.7 L22.71 290.5 L23.4 292.3 L23.94 294.2 L24.32 296.1 L24.56 298 L24.64 300 Z " />
<path stroke="rgb(0,0,0)" stroke-opacity="1" fill="rgb(255,255,255)" fill-opacity="1" d="M-476.3 -275.6 L-478.2 -275.7 L-480.2 -275.7 L-482.2 -275.7 L-484.1 -275.7 L-486.1 -275.8 L-488 -275.8 L-490 -275.8 L-492 -275.9 L-493.9 -275.9 L-495.9 -275.9 L-497.8 -275.9 L-499.8 -276 L-501.8 -276 L-503.7 -276 L-505.7 -276 L-507.7 -276.1 L-509.6 -276.1 L-511.6 -276.1 L-513.5 -276.1 L-515.5 -276.2 L-517.5 -276.2 L-519.4 -276.2 L-521.4 -276.2 L-523.3 -276.3 L-525.3 -276.3 L-525.3 -278.2 L-525.3 -280.2 L-525.2 -282.2 L-525.2 -284.1 L-525.2 -286.1 L-525.2 -288 L-525.1 -290 L-525.1 -292 L-525.1 -293.9 L-525.1 -295.9 L-525 -297.9 L-525 -299.8 L-525 -301.8 L-525 -303.7 L-524.9 -305.7 L-524.9 -307.7 L-524.9 -309.6 L-524.9 -311.6 L-524.8 -313.5 L-524.8 -315.5 L-524.8 -317.5 L-524.8 -319.4 L-524.7 -321.4 L-524.7 -323.4 L-524.7 -325.3 L-522.7 -325.3 L-520.8 -325.3 L-518.8 -325.2 L-516.8 -325.2 L-514.9 -325.2 L-512.9 -325.2 L-510.9 -325.1 L-509 -325.1 L-507 -325.1 L-505.1 -325.1 L-503.1 -325 L-501.1 -325 L-499.2 -325 L-497.2 -325 L-495.3 -324.9 L-493.3 -324.9 L-491.3 -324.9 L-489.4 -324.9 L-487.4 -324.8 L-485.4 -324.8 L-483.5 -324.8 L-481.5 -324.8 L-479.6 -324.7 L-477.6 -324.7 L-475.6 -324.7 L-475.7 -322.7 L-475.7 -320.8 L-475.7 -318.8 L-475.7 -316.8 L-475.8 -314.9 L-475.8 -312.9 L-475.8 -311 L-475.8 -309 L-475.9 -307 L-475.9 -305.1 L-475.9 -303.1 L-475.9 -301.1 L-476 -299.2 L-476 -297.2 L-476 -295.3 L-476 -293.3 L-476.1 -291.3 L-476.1 -289.4 L-476.1 -287.4 L-476.1 -285.5 L-476.2 -283.5 L-476.2 -281.5 L-476.2 -279.6 L-476.2 -277.6 L-476.3 -275.6 Z " />
<path stroke="rgb(0,0,0)" stroke-opacity="0.924" fill="rgb(255,255,255)" fill-opacity="1" d="M224.6 300 L224.6 302 L224.3 303.9 L223.9 305.8 L223.4 307.7 L222.7 309.5 L221.9 311.3 L220.9 313 L219.8 314.6 L218.6 316.2 L217.2 317.6 L215.8 318.9 L214.2 320.1 L212.6 321.2 L210.9 322.1 L209.1 322.9 L207.2 323.5 L205.3 324 L203.4 324.4 L201.5 324.6 L199.5 324.6 L197.6 324.5 L195.6 324.2 L193.7 323.8 L191.8 323.2 L190 322.5 L188.3 321.7 L186.6 320.6 L185 319.5 L183.5 318.3 L182.1 316.9 L180.8 315.4 L179.6 313.8 L178.6 312.2 L177.7 310.4 L176.9 308.6 L176.3 306.8 L175.9 304.9 L175.5 302.9 L175.4 301 L175.4 299 L175.5 297.1 L175.9 295.1 L176.3 293.2 L176.9 291.4 L177.7 289.6 L178.6 287.8 L179.6 286.2 L180.8 284.6 L182.1 283.1 L183.5 281.7 L185 280.5 L186.6 279.4 L188.3 278.3 L190 277.5 L191.8 276.8 L193.7 276.2 L195.6 275.8 L197.6 275.5 L199.5 275.4 L201.5 275.4 L203.4 275.6 L205.3 276 L207.2 276.5 L209.1 277.1 L210.9 277.9 L212.6 278.8 L214.2 279.9 L215.8 281.1 L217.2 282.4 L218.6 283.8 L219.8 285.4 L220.9 287 L221.9 288.7 L222.7 290.5 L223.4 292.3 L223.9 294.2 L224.3 296.1 L224.6 298 L224.6 300 Z " />
<path stroke="rgb(0,0,0)" stroke-opacity="1" fill="rgb(255,255,255)" fill-opacity="1" d="M-276.3 -275.6 L-278.2 -275.7 L-280.2 -275.7 L-282.2 -275.7 L-284.1 -275.7 L-286.1 -275.8 L-288 -275.8 L-290 -275.8 L-292 -275.9 L-293.9 -275.9 L-295.9 -275.9 L-297.8 -275.9 L-299.8 -276 L-301.8 -276 L-303.7 -276 L-305.7 -276 L-307.7 -276.1 L-309.6 -276.1 L-311.6 -276.1 L-313.5 -276.1 L-315.5 -276.2 L-317.5 -276.2 L-319.4 -276.2 L-321.4 -276.2 L-323.3 -276.3 L-325.3 -276.3 L-325.3 -278.2 L-325.3 -280.2 L-325.2 -282.2 L-325.2 -284.1 L-325.2 -286.1 L-325.2 -288 L-325.1 -290 L-325.1 -292 L-325.1 -293.9 L-325.1 -295.9 L-325 -297.9 L-325 -299.8 L-325 -301.8 L-325 -303.7 L-324.9 -305.7 L-324.9 -307.7 L-324.9 -309.6 L-324.9 -311.6 L-324.8 -313.5 L-324.8 -315.5 L-324.8 -317.5 L-324.8 -319.4 L-324.7 -321.4 L-324.7 -323.4 L-324.7 -325.3 L-322.7 -325.3 L-320.8 -325.3 L-318.8 -325.2 L-316.8 -325.2 L-314.9 -325.2 L-312.9 -325.2 L-310.9 -325.1 L-309 -325.1 L-307 -325.1 L-305.1 -325.1 L-303.1 -325 L-301.1 -325 L-299.2 -325 L-297.2 -325 L-295.3 -324.9 L-293.3 -324.9 L-291.3 -324.9 L-289.4 -324.9 L-287.4 -324.8 L-285.4 -324.8 L-283.5 -324.8 L-281.5 -324.8 L-279.6 -324.7 L-277.6 -324.7 L-275.6 -324.7 L-275.7 -322.7 L-275.7 -320.8 L-275.7 -318.8 L-275.7 -316.8 L-275.8 -314.9 L-275.8 -312.9 L-275.8 -311 L-275.8 -309 L-275.9 -307 L-275.9 -305.1 L-275.9 -303.1 L-275.9 -301.1 L-276 -299.2 L-276 -297.2 L-276 -295.3 L-276 -293.3 L-276.1 -291.3 L-276.1 -289.4 L-276.1 -287.4 L-276.1 -285.5 L-276.2 -283.5 L-276.2 -281.5 L-276.2 -279.6 L-276.2 -277.6 L-276.3 -275.6 Z " />
</g>
</g>
</svg>
