<!DOCTYPE svg>
<svg xmlns="http://www.w3.org/2000/svg" xmlns:xlink="http://www.w3.org/1999/xlink" width="1000" height="1000">
<g transform="translate(500.000000,500.000000)">
<g transform="scale(3.000000,3.000000)">
<path stroke="rgb(0,0,0)" stroke-opacity="1" fill="rgb(255,255,255)" fill-opacity="1" d="M-570.7 -576.2 L-571.7 -576 L-572.6 -575.8 L-573.6 -575.6 L-574.6 -575.3 L-575.5 -575.1 L-576.5 -574.9 L-577.5 -574.7 L-578.4 -574.4 L-579.4 -574.2 L-580.4 -574 L-581.3 -573.8 L-582.3 -573.6 L-583.3 -573.3 L-584.2 -573.1 L-585.2 -572.9 L-586.2 -572.7 L-587.1 -572.4 L-588.1 -572.2 L-589.1 -572 L-590 -571.8 L-591 -571.5 L-592 -571.3 L-592.9 -571.1 L-593.9 -570.9 L-594.9 -570.7 L-595.1 -571.6 L-595.3 -572.6 L-595.5 -573.6 L-595.8 -574.5 L-596 -575.5 L-596.2 -576.4 L-596.4 -577.4 L-596.6 -578.4 L-596.9 -579.3 L-597.1 -580.3 L-597.3 -581.3 L-597.5 -582.2 L-597.8 -583.2 L-598 -584.2 L-598.2 -585.1 L-598.4 -586.1 L-598.7 -587.1 L-598.9 -588 L-599.1 -589 L-599.3 -590 L-599.5 -590.9 L-599.8 -591.9 L-600 -592.9 L-600.2 -593.8 L-600.4 -594.8 L-599.5 -595 L-598.5 -595.3 L-597.5 -595.5 L-596.6 -595.7 L-595.6 -595.9 L-594.6 -596.1 L-593.7 -596.4 L-592.7 -596.6 L-591.7 -596.8 L-590.8 -597 L-589.8 -597.3 L-588.8 -597.5 L-587.9 -597.7 L-586.9 -597.9 L-586 -598.2 L-585 -598.4 L-584 -598.6 L-583.1 -598.8 L-582.1 -599 L-581.1 -599.3 L-580.2 -599.5 L-579.2 -599.7 L-578.2 -599.9 L-577.3 -600.2 L-576.3 -600.4 L-576.1 -599.4 L-575.8 -598.5 L-575.6 -597.5 L-575.4 -596.5 L-575.2 -595.6 L-575 -594.6 L-574.7 -593.6 L-574.5 -592.7 L-574.3 -591.7 L-574.1 -590.7 L-573.8 -589.8 L-573.6 -588.8 L-573.4 -587.8 L-573.2 -586.9 L-572.9 -585.9 L-572.7 -584.9 L-572.5 -584 L-572.3 -583 L-572 -582 L-571.8 -581.1 L-571.6 -580.1 L-571.4 -579.1 L-571.2 -578.2 L-570.9 -577.2 L-570.7 -576.2 Z " />
<path stroke="rgb(0,0,0)" stroke-opacity="1" fill="rgb(255,255,255)" fill-opacity="1" d="M-199.6 -312.3 L-198.6 -312.2 L-197.6 -312.1 L-196.7 -311.9 L-195.7 -311.6 L-194.8 -311.3 L-193.9 -310.9 L-193.1 -310.4 L-192.2 -309.8 L-191.5 -309.2 L-190.8 -308.5 L-190.1 -307.8 L-189.5 -307 L-189 -306.1 L-188.5 -305.3 L-188.1 -304.4 L-187.8 -303.4 L-187.5 -302.5 L-187.4 -301.5 L-187.3 -300.5 L-187.3 -299.5 L-187.3 -298.5 L-187.5 -297.6 L-187.7 -296.6 L-188 -295.6 L-188.3 -294.7 L-188.8 -293.8 L-189.3 -293 L-189.9 -292.2 L-190.5 -291.4 L-191.2 -290.7 L-192 -290.1 L-192.8 -289.5 L-193.6 -289 L-194.5 -288.5 L-195.4 -288.2 L-196.3 -287.9 L-197.3 -287.6 L-198.3 -287.5 L-199.3 -287.4 L-200.3 -287.4 L-201.2 -287.5 L-202.2 -287.7 L-203.2 -287.9 L-204.1 -288.2 L-205 -288.6 L-205.9 -289.1 L-206.7 -289.6 L-207.5 -290.2 L-208.3 -290.8 L-209 -291.6 L-209.6 -292.3 L-210.2 -293.1 L-210.7 -294 L-211.1 -294.9 L-211.4 -295.8 L-211.7 -296.7 L-211.9 -297.7 L-212.1 -298.7 L-212.1 -299.7 L-212.1 -300.7 L-212 -301.6 L-211.8 -302.6 L-211.6 -303.6 L-211.2 -304.5 L-210.8 -305.4 L-210.3 -306.3 L-209.8 -307.1 L-209.2 -307.9 L-208.5 -308.6 L-207.8 -309.3 L-207 -309.9 L-206.2 -310.4 L-205.3 -310.9 L-204.4 -311.3 L-203.5 -311.7 L-202.6 -311.9 L-201.6 -312.1 L-200.6 -312.3 L-199.6 -312.3 Z " />
<path stroke="rgb(0,0,0)" stroke-opacity="1" fill="rgb(255,255,255)" fill-opacity="1" d="M-349.7 -562 L-350.6 -561.5 L-351.4 -561 L-352.3 -560.5 L-353.2 -560 L-354 -559.5 L-354.9 -559 L-355.7 -558.5 L-356.6 -558 L-357.4 -557.5 L-358.3 -557.1 L-359.2 -556.6 L-360 -556.1 L-360.9 -555.6 L-361.7 -555.1 L-362.6 -554.6 L-363.5 -554.1 L-364.3 -553.6 L-365.2 -553.1 L-366 -552.6 L-366.9 -552.1 L-367.8 -551.6 L-368.6 -551.1 L-369.5 -550.6 L-370.3 -550.1 L-371.2 -549.6 L-371.7 -550.5 L-372.2 -551.3 L-372.7 -552.2 L-373.2 -553 L-373.7 -553.9 L-374.2 -554.8 L-374.7 -555.6 L-375.2 -556.5 L-375.7 -557.3 L-376.2 -558.2 L-376.6 -559 L-377.1 -559.9 L-377.6 -560.8 L-378.1 -561.6 L-378.6 -562.5 L-379.1 -563.3 L-379.6 -564.2 L-380.1 -565.1 L-380.6 -565.9 L-381.1 -566.8 L-381.6 -567.6 L-382.1 -568.5 L-382.6 -569.3 L-383.1 -570.2 L-383.6 -571.1 L-382.7 -571.6 L-381.9 -572.1 L-381 -572.6 L-380.2 -573 L-379.3 -573.5 L-378.5 -574 L-377.6 -574.5 L-376.7 -575 L-375.9 -575.5 L-375 -576 L-374.2 -576.5 L-373.3 -577 L-372.4 -577.5 L-371.6 -578 L-370.7 -578.5 L-369.9 -579 L-369 -579.5 L-368.1 -580 L-367.3 -580.5 L-366.4 -581 L-365.6 -581.5 L-364.7 -582 L-363.9 -582.5 L-363 -583 L-362.1 -583.5 L-361.6 -582.6 L-361.1 -581.8 L-360.7 -580.9 L-360.2 -580 L-359.7 -579.2 L-359.2 -578.3 L-358.7 -577.5 L-358.2 -576.6 L-357.7 -575.8 L-357.2 -574.9 L-356.7 -574 L-356.2 -573.2 L-355.7 -572.3 L-355.2 -571.5 L-354.7 -570.6 L-354.2 -569.7 L-353.7 -568.9 L-353.2 -568 L-352.7 -567.2 L-352.2 -566.3 L-351.7 -565.5 L-351.2 -564.6 L-350.7 -563.7 L-350.2 -562.9 L-349.7 -562 Z " />
<path stroke="rgb(0,0,0)" stroke-opacity="1" fill="rgb(255,255,255)" fill-opacity="1" d="M0.3851 -312.3 L1.373 -312.2 L2.355 -312.1 L3.323 -311.9 L4.273 -311.6 L5.197 -311.3 L6.091 -310.9 L6.948 -310.4 L7.763 -309.8 L8.53 -309.2 L9.246 -308.5 L9.906 -307.8 L10.5 -307 L11.04 -306.1 L11.51 -305.3 L11.9 -304.4 L12.22 -303.4 L12.47 -302.5 L12.64 -301.5 L12.73 -300.5 L12.75 -299.5 L12.68 -298.5 L12.54 -297.6 L12.32 -296.6 L12.02 -295.6 L11.65 -294.7 L11.21 -293.8 L10.7 -293 L10.12 -292.2 L9.485 -291.4 L8.788 -290.7 L8.038 -290.1 L7.239 -289.5 L6.396 -289 L5.515 -288.5 L4.601 -288.2 L3.659 -287.9 L2.697 -287.6 L1.719 -287.5 L0.7327 -287.4 L-0.2565 -287.4 L-1.242 -287.5 L-2.218 -287.7 L-3.177 -287.9 L-4.115 -288.2 L-5.025 -288.6 L-5.901 -289.1 L-6.737 -289.6 L-7.53 -290.2 L-8.272 -290.8 L-8.96 -291.6 L-9.59 -292.3 L-10.16 -293.1 L-10.66 -294 L-11.09 -294.9 L-11.45 -295.8 L-11.73 -296.7 L-11.94 -297.7 L-12.07 -298.7 L-12.13 -299.7 L-12.1 -300.7 L-12 -301.6 L-11.82 -302.6 L-11.56 -303.6 L-11.22 -304.5 L-10.82 -305.4 L-10.34 -306.3 L-9.796 -307.1 L-9.188 -307.9 L-8.52 -308.6 L-7.796 -309.3 L-7.021 -309.9 L-6.199 -310.4 L-5.337 -310.9 L-4.438 -311.3 L-3.51 -311.7 L-2.557 -311.9 L-1.586 -312.1 L-0.6034 -312.3 L0.3851 -312.3 Z " />
<path stroke="rgb(0,0,0)" stroke-opacity="1" fill="rgb(255,255,255)" fill-opacity="1" d="M-121.1 -541.4 L-121.7 -540.6 L-122.3 -539.7 L-122.8 -538.9 L-123.4 -538.1 L-123.9 -537.3 L-124.5 -536.5 L-125.1 -535.7 L-125.6 -534.8 L-126.2 -534 L-126.7 -533.2 L-127.3 -532.4 L-127.9 -531.6 L-128.4 -530.7 L-129 -529.9 L-129.6 -529.1 L-130.1 -528.3 L-130.7 -527.5 L-131.2 -526.7 L-131.8 -525.8 L-132.4 -525 L-132.9 -524.2 L-133.5 -523.4 L-134.1 -522.6 L-134.6 -521.7 L-135.2 -520.9 L-136 -521.5 L-136.8 -522.1 L-137.6 -522.6 L-138.4 -523.2 L-139.3 -523.7 L-140.1 -524.3 L-140.9 -524.9 L-141.7 -525.4 L-142.5 -526 L-143.4 -526.5 L-144.2 -527.1 L-145 -527.7 L-145.8 -528.2 L-146.6 -528.8 L-147.4 -529.4 L-148.3 -529.9 L-149.1 -530.5 L-149.9 -531 L-150.7 -531.6 L-151.5 -532.2 L-152.3 -532.7 L-153.2 -533.3 L-154 -533.8 L-154.8 -534.4 L-155.6 -535 L-155.1 -535.8 L-154.5 -536.6 L-153.9 -537.4 L-153.4 -538.2 L-152.8 -539.1 L-152.3 -539.9 L-151.7 -540.7 L-151.1 -541.5 L-150.6 -542.3 L-150 -543.2 L-149.4 -544 L-148.9 -544.8 L-148.3 -545.6 L-147.8 -546.4 L-147.2 -547.2 L-146.6 -548.1 L-146.1 -548.9 L-145.5 -549.7 L-144.9 -550.5 L-144.4 -551.3 L-143.8 -552.1 L-143.3 -553 L-142.7 -553.8 L-142.1 -554.6 L-141.6 -555.4 L-140.8 -554.9 L-139.9 -554.3 L-139.1 -553.7 L-138.3 -553.2 L-137.5 -552.6 L-136.7 -552 L-135.9 -551.5 L-135 -550.9 L-134.2 -550.4 L-133.4 -549.8 L-132.6 -549.2 L-131.8 -548.7 L-130.9 -548.1 L-130.1 -547.6 L-129.3 -547 L-128.5 -546.4 L-127.7 -545.9 L-126.9 -545.3 L-126 -544.7 L-125.2 -544.2 L-124.4 -543.6 L-123.6 -543.1 L-122.8 -542.5 L-121.9 -541.9 L-121.1 -541.4 Z " />
<path stroke="rgb(0,0,0)" stroke-opacity="1" fill="rgb(255,255,255)" fill-opacity="1" d="M200.4 -312.3 L201.4 -312.2 L202.4 -312.1 L203.3 -311.9 L204.3 -311.6 L205.2 -311.3 L206.1 -310.9 L206.9 -310.4 L207.8 -309.8 L208.5 -309.2 L209.2 -308.5 L209.9 -307.8 L210.5 -307 L211 -306.1 L211.5 -305.3 L211.9 -304.4 L212.2 -303.4 L212.5 -302.5 L212.6 -301.5 L212.7 -300.5 L212.7 -299.5 L212.7 -298.5 L212.5 -297.6 L212.3 -296.6 L212 -295.6 L211.7 -294.7 L211.2 -293.8 L210.7 -293 L210.1 -292.2 L209.5 -291.4 L208.8 -290.7 L208 -290.1 L207.2 -289.5 L206.4 -289 L205.5 -288.5 L204.6 -288.2 L203.7 -287.9 L202.7 -287.6 L201.7 -287.5 L200.7 -287.4 L199.7 -287.4 L198.8 -287.5 L197.8 -287.7 L196.8 -287.9 L195.9 -288.2 L195 -288.6 L194.1 -289.1 L193.3 -289.6 L192.5 -290.2 L191.7 -290.8 L191 -291.6 L190.4 -292.3 L189.8 -293.1 L189.3 -294 L188.9 -294.9 L188.6 -295.8 L188.3 -296.7 L188.1 -297.7 L187.9 -298.7 L187.9 -299.7 L187.9 -300.7 L188 -301.6 L188.2 -302.6 L188.4 -303.6 L188.8 -304.5 L189.2 -305.4 L189.7 -306.3 L190.2 -307.1 L190.8 -307.9 L191.5 -308.6 L192.2 -309.3 L193 -309.9 L193.8 -310.4 L194.7 -310.9 L195.6 -311.3 L196.5 -311.7 L197.4 -311.9 L198.4 -312.1 L199.4 -312.3 L200.4 -312.3 Z " />
<path stroke="rgb(0,0,0)" stroke-opacity="1" fill="rgb(255,255,255)" fill-opacity="1" d="M97.65 -526 L97.38 -525 L97.11 -524.1 L96.84 -523.1 L96.56 -522.2 L96.29 -521.2 L96.02 -520.3 L95.75 -519.3 L95.48 -518.3 L95.21 -517.4 L94.94 -516.4 L94.67 -515.5 L94.39 -514.5 L94.12 -513.6 L93.85 -512.6 L93.58 -511.7 L93.31 -510.7 L93.04 -509.8 L92.77 -508.8 L92.49 -507.8 L92.22 -506.9 L91.95 -505.9 L91.68 -505 L91.41 -504 L91.14 -503.1 L90.87 -502.1 L89.91 -502.4 L88.96 -502.7 L88 -502.9 L87.05 -503.2 L86.09 -503.5 L85.14 -503.7 L84.18 -504 L83.23 -504.3 L82.27 -504.6 L81.32 -504.8 L80.37 -505.1 L79.41 -505.4 L78.46 -505.6 L77.5 -505.9 L76.55 -506.2 L75.59 -506.5 L74.64 -506.7 L73.68 -507 L72.73 -507.3 L71.77 -507.5 L70.82 -507.8 L69.86 -508.1 L68.91 -508.4 L67.96 -508.6 L67 -508.9 L67.27 -509.9 L67.54 -510.8 L67.82 -511.8 L68.09 -512.7 L68.36 -513.7 L68.63 -514.6 L68.9 -515.6 L69.17 -516.5 L69.44 -517.5 L69.72 -518.4 L69.99 -519.4 L70.26 -520.4 L70.53 -521.3 L70.8 -522.3 L71.07 -523.2 L71.34 -524.2 L71.61 -525.1 L71.89 -526.1 L72.16 -527 L72.43 -528 L72.7 -528.9 L72.97 -529.9 L73.24 -530.9 L73.51 -531.8 L73.79 -532.8 L74.74 -532.5 L75.69 -532.2 L76.65 -531.9 L77.6 -531.7 L78.56 -531.4 L79.51 -531.1 L80.47 -530.9 L81.42 -530.6 L82.38 -530.3 L83.33 -530 L84.29 -529.8 L85.24 -529.5 L86.2 -529.2 L87.15 -529 L88.1 -528.7 L89.06 -528.4 L90.01 -528.1 L90.97 -527.9 L91.92 -527.6 L92.88 -527.3 L93.83 -527.1 L94.79 -526.8 L95.74 -526.5 L96.7 -526.2 L97.65 -526 Z " />
<path stroke="rgb(0,0,0)" stroke-opacity="1" fill="rgb(255,255,255)" fill-opacity="1" d="M-299.6 -212.3 L-298.6 -212.2 L-297.6 -212.1 L-296.7 -211.9 L-295.7 -211.6 L-294.8 -211.3 L-293.9 -210.9 L-293.1 -210.4 L-292.2 -209.8 L-291.5 -209.2 L-290.8 -208.5 L-290.1 -207.8 L-289.5 -207 L-289 -206.1 L-288.5 -205.3 L-288.1 -204.4 L-287.8 -203.4 L-287.5 -202.5 L-287.4 -201.5 L-287.3 -200.5 L-287.3 -199.5 L-287.3 -198.5 L-287.5 -197.6 L-287.7 -196.6 L-288 -195.6 L-288.3 -194.7 L-288.8 -193.8 L-289.3 -193 L-289.9 -192.2 L-290.5 -191.4 L-291.2 -190.7 L-292 -190.1 L-292.8 -189.5 L-293.6 -189 L-294.5 -188.5 L-295.4 -188.2 L-296.3 -187.9 L-297.3 -187.6 L-298.3 -187.5 L-299.3 -187.4 L-300.3 -187.4 L-301.2 -187.5 L-302.2 -187.7 L-303.2 -187.9 L-304.1 -188.2 L-305 -188.6 L-305.9 -189.1 L-306.7 -189.6 L-307.5 -190.2 L-308.3 -190.8 L-309 -191.6 L-309.6 -192.3 L-310.2 -193.1 L-310.7 -194 L-311.1 -194.9 L-311.4 -195.8 L-311.7 -196.7 L-311.9 -197.7 L-312.1 -198.7 L-312.1 -199.7 L-312.1 -200.7 L-312 -201.6 L-311.8 -202.6 L-311.6 -203.6 L-311.2 -204.5 L-310.8 -205.4 L-310.3 -206.3 L-309.8 -207.1 L-309.2 -207.9 L-308.5 -208.6 L-307.8 -209.3 L-307 -209.9 L-306.2 -210.4 L-305.3 -210.9 L-304.4 -211.3 L-303.5 -211.7 L-302.6 -211.9 L-301.6 -212.1 L-300.6 -212.3 L-299.6 -212.3 Z " />
<path stroke="rgb(0,0,0)" stroke-opacity="1" fill="rgb(255,255,255)" fill-opacity="1" d="M-449.7 -462 L-450.6 -461.5 L-451.4 -461 L-452.3 -460.5 L-453.2 -460 L-454 -459.5 L-454.9 -459 L-455.7 -458.5 L-456.6 -458 L-457.4 -457.5 L-458.3 -457.1 L-459.2 -456.6 L-460 -456.1 L-460.9 -455.6 L-461.7 -455.1 L-462.6 -454.6 L-463.5 -454.1 L-464.3 -453.6 L-465.2 -453.1 L-466 -452.6 L-466.9 -452.1 L-467.8 -451.6 L-468.6 -451.1 L-469.5 -450.6 L-470.3 -450.1 L-471.2 -449.6 L-471.7 -450.5 L-472.2 -451.3 L-472.7 -452.2 L-473.2 -453 L-473.7 -453.9 L-474.2 -454.8 L-474.7 -455.6 L-475.2 -456.5 L-475.7 -457.3 L-476.2 -458.2 L-476.6 -459 L-477.1 -459.9 L-477.6 -460.8 L-478.1 -461.6 L-478.6 -462.5 L-479.1 -463.3 L-479.6 -464.2 L-480.1 -465.1 L-480.6 -465.9 L-481.1 -466.8 L-481.6 -467.6 L-482.1 -468.5 L-482.6 -469.3 L-483.1 -470.2 L-483.6 -471.1 L-482.7 -471.6 L-481.9 -472.1 L-481 -472.6 L-480.2 -473 L-479.3 -473.5 L-478.5 -474 L-477.6 -474.5 L-476.7 -475 L-475.9 -475.5 L-475 -476 L-474.2 -476.5 L-473.3 -477 L-472.4 -477.5 L-471.6 -478 L-470.7 -478.5 L-469.9 -479 L-469 -479.5 L-468.1 -480 L-467.3 -480.5 L-466.4 -481 L-465.6 -481.5 L-464.7 -482 L-463.9 -482.5 L-463 -483 L-462.1 -483.5 L-461.6 -482.6 L-461.1 -481.8 L-460.7 -480.9 L-460.2 -480 L-459.7 -479.2 L-459.2 -478.3 L-458.7 -477.5 L-458.2 -476.6 L-457.7 -475.8 L-457.2 -474.9 L-456.7 -474 L-456.2 -473.2 L-455.7 -472.3 L-455.2 -471.5 L-454.7 -470.6 L-454.2 -469.7 L-453.7 -468.9 L-453.2 -468 L-452.7 -467.2 L-452.2 -466.3 L-451.7 -465.5 L-451.2 -464.6 L-450.7 -463.7 L-450.2 -462.9 L-449.7 -462 Z " />
<path stroke="rgb(0,0,0)" stroke-opacity="1" fill="rgb(255,255,255)" fill-opacity="1" d="M-99.61 -212.3 L-98.63 -212.2 L-97.65 -212.1 L-96.68 -211.9 L-95.73 -211.6 L-94.8 -211.3 L-93.91 -210.9 L-93.05 -210.4 L-92.24 -209.8 L-91.47 -209.2 L-90.75 -208.5 L-90.09 -207.8 L-89.5 -207 L-88.96 -206.1 L-88.49 -205.3 L-88.1 -204.4 L-87.78 -203.4 L-87.53 -202.5 L-87.36 -201.5 L-87.27 -200.5 L-87.25 -199.5 L-87.32 -198.5 L-87.46 -197.6 L-87.68 -196.6 L-87.98 -195.6 L-88.35 -194.7 L-88.79 -193.8 L-89.3 -193 L-89.88 -192.2 L-90.52 -191.4 L-91.21 -190.7 L-91.96 -190.1 L-92.76 -189.5 L-93.6 -189 L-94.49 -188.5 L-95.4 -188.2 L-96.34 -187.9 L-97.3 -187.6 L-98.28 -187.5 L-99.27 -187.4 L-100.3 -187.4 L-101.2 -187.5 L-102.2 -187.7 L-103.2 -187.9 L-104.1 -188.2 L-105 -188.6 L-105.9 -189.1 L-106.7 -189.6 L-107.5 -190.2 L-108.3 -190.8 L-109 -191.6 L-109.6 -192.3 L-110.2 -193.1 L-110.7 -194 L-111.1 -194.9 L-111.4 -195.8 L-111.7 -196.7 L-111.9 -197.7 L-112.1 -198.7 L-112.1 -199.7 L-112.1 -200.7 L-112 -201.6 L-111.8 -202.6 L-111.6 -203.6 L-111.2 -204.5 L-110.8 -205.4 L-110.3 -206.3 L-109.8 -207.1 L-109.2 -207.9 L-108.5 -208.6 L-107.8 -209.3 L-107 -209.9 L-106.2 -210.4 L-105.3 -210.9 L-104.4 -211.3 L-103.5 -211.7 L-102.6 -211.9 L-101.6 -212.1 L-100.6 -212.3 L-99.61 -212.3 Z " />
<path stroke="rgb(0,0,0)" stroke-opacity="1" fill="rgb(255,255,255)" fill-opacity="1" d="M-221.1 -441.4 L-221.7 -440.6 L-222.3 -439.7 L-222.8 -438.9 L-223.4 -438.1 L-223.9 -437.3 L-224.5 -436.5 L-225.1 -435.7 L-225.6 -434.8 L-226.2 -434 L-226.7 -433.2 L-227.3 -432.4 L-227.9 -431.6 L-228.4 -430.7 L-229 -429.9 L-229.6 -429.1 L-230.1 -428.3 L-230.7 -427.5 L-231.2 -426.7 L-231.8 -425.8 L-232.4 -425 L-232.9 -424.2 L-233.5 -423.4 L-234.1 -422.6 L-234.6 -421.7 L-235.2 -420.9 L-236 -421.5 L-236.8 -422.1 L-237.6 -422.6 L-238.4 -423.2 L-239.3 -423.7 L-240.1 -424.3 L-240.9 -424.9 L-241.7 -425.4 L-242.5 -426 L-243.4 -426.5 L-244.2 -427.1 L-245 -427.7 L-245.8 -428.2 L-246.6 -428.8 L-247.4 -429.4 L-248.3 -429.9 L-249.1 -430.5 L-249.9 -431 L-250.7 -431.6 L-251.5 -432.2 L-252.3 -432.7 L-253.2 -433.3 L-254 -433.8 L-254.8 -434.4 L-255.6 -435 L-255.1 -435.8 L-254.5 -436.6 L-253.9 -437.4 L-253.4 -438.2 L-252.8 -439.1 L-252.3 -439.9 L-251.7 -440.7 L-251.1 -441.5 L-250.6 -442.3 L-250 -443.2 L-249.4 -444 L-248.9 -444.8 L-248.3 -445.6 L-247.8 -446.4 L-247.2 -447.2 L-246.6 -448.1 L-246.1 -448.9 L-245.5 -449.7 L-244.9 -450.5 L-244.4 -451.3 L-243.8 -452.1 L-243.3 -453 L-242.7 -453.8 L-242.1 -454.6 L-241.6 -455.4 L-240.8 -454.9 L-239.9 -454.3 L-239.1 -453.7 L-238.3 -453.2 L-237.5 -452.6 L-236.7 -452 L-235.9 -451.5 L-235 -450.9 L-234.2 -450.4 L-233.4 -449.8 L-232.6 -449.2 L-231.8 -448.7 L-230.9 -448.1 L-230.1 -447.6 L-229.3 -447 L-228.5 -446.4 L-227.7 -445.9 L-226.9 -445.3 L-226 -444.7 L-225.2 -444.2 L-224.4 -443.6 L-223.6 -443.1 L-222.8 -442.5 L-221.9 -441.9 L-221.1 -441.4 Z " />
<path stroke="rgb(0,0,0)" stroke-opacity="1" fill="rgb(255,255,255)" fill-opacity="1" d="M100.4 -212.3 L101.4 -212.2 L102.4 -212.1 L103.3 -211.9 L104.3 -211.6 L105.2 -211.3 L106.1 -210.9 L106.9 -210.4 L107.8 -209.8 L108.5 -209.2 L109.2 -208.5 L109.9 -207.8 L110.5 -207 L111 -206.1 L111.5 -205.3 L111.9 -204.4 L112.2 -203.4 L112.5 -202.5 L112.6 -201.5 L112.7 -200.5 L112.7 -199.5 L112.7 -198.5 L112.5 -197.6 L112.3 -196.6 L112 -195.6 L111.7 -194.7 L111.2 -193.8 L110.7 -193 L110.1 -192.2 L109.5 -191.4 L108.8 -190.7 L108 -190.1 L107.2 -189.5 L106.4 -189 L105.5 -188.5 L104.6 -188.2 L103.7 -187.9 L102.7 -187.6 L101.7 -187.5 L100.7 -187.4 L99.74 -187.4 L98.76 -187.5 L97.78 -187.7 L96.82 -187.9 L95.88 -188.2 L94.98 -188.6 L94.1 -189.1 L93.26 -189.6 L92.47 -190.2 L91.73 -190.8 L91.04 -191.6 L90.41 -192.3 L89.84 -193.1 L89.34 -194 L88.91 -194.9 L88.55 -195.8 L88.27 -196.7 L88.06 -197.7 L87.93 -198.7 L87.87 -199.7 L87.9 -200.7 L88 -201.6 L88.18 -202.6 L88.44 -203.6 L88.78 -204.5 L89.18 -205.4 L89.66 -206.3 L90.2 -207.1 L90.81 -207.9 L91.48 -208.6 L92.2 -209.3 L92.98 -209.9 L93.8 -210.4 L94.66 -210.9 L95.56 -211.3 L96.49 -211.7 L97.44 -211.9 L98.41 -212.1 L99.4 -212.3 L100.4 -212.3 Z " />
<path stroke="rgb(0,0,0)" stroke-opacity="1" fill="rgb(255,255,255)" fill-opacity="1" d="M-2.35 -426 L-2.621 -425 L-2.892 -424.1 L-3.164 -423.1 L-3.435 -422.2 L-3.707 -421.2 L-3.978 -420.3 L-4.249 -419.3 L-4.521 -418.3 L-4.792 -417.4 L-5.063 -416.4 L-5.335 -415.5 L-5.606 -414.5 L-5.878 -413.6 L-6.149 -412.6 L-6.42 -411.7 L-6.692 -410.7 L-6.963 -409.8 L-7.235 -408.8 L-7.506 -407.8 L-7.777 -406.9 L-8.049 -405.9 L-8.32 -405 L-8.591 -404 L-8.863 -403.1 L-9.134 -402.1 L-10.09 -402.4 L-11.04 -402.7 L-12 -402.9 L-12.95 -403.2 L-13.91 -403.5 L-14.86 -403.7 L-15.82 -404 L-16.77 -404.3 L-17.73 -404.6 L-18.68 -404.8 L-19.63 -405.1 L-20.59 -405.4 L-21.54 -405.6 L-22.5 -405.9 L-23.45 -406.2 L-24.41 -406.5 L-25.36 -406.7 L-26.32 -407 L-27.27 -407.3 L-28.23 -407.5 L-29.18 -407.8 L-30.14 -408.1 L-31.09 -408.4 L-32.04 -408.6 L-33 -408.9 L-32.73 -409.9 L-32.46 -410.8 L-32.18 -411.8 L-31.91 -412.7 L-31.64 -413.7 L-31.37 -414.6 L-31.1 -415.6 L-30.83 -416.5 L-30.56 -417.5 L-30.28 -418.4 L-30.01 -419.4 L-29.74 -420.4 L-29.47 -421.3 L-29.2 -422.3 L-28.93 -423.2 L-28.66 -424.2 L-28.39 -425.1 L-28.11 -426.1 L-27.84 -427 L-27.57 -428 L-27.3 -428.9 L-27.03 -429.9 L-26.76 -430.9 L-26.49 -431.8 L-26.21 -432.8 L-25.26 -432.5 L-24.31 -432.2 L-23.35 -431.9 L-22.4 -431.7 L-21.44 -431.4 L-20.49 -431.1 L-19.53 -430.9 L-18.58 -430.6 L-17.62 -430.3 L-16.67 -430 L-15.71 -429.8 L-14.76 -429.5 L-13.8 -429.2 L-12.85 -429 L-11.9 -428.7 L-10.94 -428.4 L-9.986 -428.1 L-9.032 -427.9 L-8.077 -427.6 L-7.123 -427.3 L-6.168 -427.1 L-5.213 -426.8 L-4.259 -426.5 L-3.304 -426.2 L-2.35 -426 Z " />
<path stroke="rgb(0,0,0)" stroke-opacity="1" fill="rgb(255,255,255)" fill-opacity="1" d="M300.4 -212.3 L301.4 -212.2 L302.4 -212.1 L303.3 -211.9 L304.3 -211.6 L305.2 -211.3 L306.1 -210.9 L306.9 -210.4 L307.8 -209.8 L308.5 -209.2 L309.2 -208.5 L309.9 -207.8 L310.5 -207 L311 -206.1 L311.5 -205.3 L311.9 -204.4 L312.2 -203.4 L312.5 -202.5 L312.6 -201.5 L312.7 -200.5 L312.7 -199.5 L312.7 -198.5 L312.5 -197.6 L312.3 -196.6 L312 -195.6 L311.7 -194.7 L311.2 -193.8 L310.7 -193 L310.1 -192.2 L309.5 -191.4 L308.8 -190.7 L308 -190.1 L307.2 -189.5 L306.4 -189 L305.5 -188.5 L304.6 -188.2 L303.7 -187.9 L302.7 -187.6 L301.7 -187.5 L300.7 -187.4 L299.7 -187.4 L298.8 -187.5 L297.8 -187.7 L296.8 -187.9 L295.9 -188.2 L295 -188.6 L294.1 -189.1 L293.3 -189.6 L292.5 -190.2 L291.7 -190.8 L291 -191.6 L290.4 -192.3 L289.8 -193.1 L289.3 -194 L288.9 -194.9 L288.6 -195.8 L288.3 -196.7 L288.1 -197.7 L287.9 -198.7 L287.9 -199.7 L287.9 -200.7 L288 -201.6 L288.2 -202.6 L288.4 -203.6 L288.8 -204.5 L289.2 -205.4 L289.7 -206.3 L290.2 -207.1 L290.8 -207.9 L291.5 -208.6 L292.2 -209.3 L293 -209.9 L293.8 -210.4 L294.7 -210.9 L295.6 -211.3 L296.5 -211.7 L297.4 -211.9 L298.4 -212.1 L299.4 -212.3 L300.4 -212.3 Z " />
<path stroke="rgb(0,0,0)" stroke-opacity="1" fill="rgb(255,255,255)" fill-opacity="1" d="M-549.7 -362 L-550.6 -361.5 L-551.4 -361 L-552.3 -360.5 L-553.2 -360 L-554 -359.5 L-554.9 -359 L-555.7 -358.5 L-556.6 -358 L-557.4 -357.5 L-558.3 -357.1 L-559.2 -356.6 L-560 -356.1 L-560.9 -355.6 L-561.7 -355.1 L-562.6 -354.6 L-563.5 -354.1 L-564.3 -353.6 L-565.2 -353.1 L-566 -352.6 L-566.9 -352.1 L-567.8 -351.6 L-568.6 -351.1 L-569.5 -350.6 L-570.3 -350.1 L-571.2 -349.6 L-571.7 -350.5 L-572.2 -351.3 L-572.7 -352.2 L-573.2 -353 L-573.7 -353.9 L-574.2 -354.8 L-574.7 -355.6 L-575.2 -356.5 L-575.7 -357.3 L-576.2 -358.2 L-576.6 -359 L-577.1 -359.9 L-577.6 -360.8 L-578.1 -361.6 L-578.6 -362.5 L-579.1 -363.3 L-579.6 -364.2 L-580.1 -365.1 L-580.6 -365.9 L-581.1 -366.8 L-581.6 -367.6 L-582.1 -368.5 L-582.6 -369.3 L-583.1 -370.2 L-583.6 -371.1 L-582.7 -371.6 L-581.9 -372.1 L-581 -372.6 L-580.2 -373 L-579.3 -373.5 L-578.5 -374 L-577.6 -374.5 L-576.7 -375 L-575.9 -375.5 L-575 -376 L-574.2 -376.5 L-573.3 -377 L-572.4 -377.5 L-571.6 -378 L-570.7 -378.5 L-569.9 -379 L-569 -379.5 L-568.1 -380 L-567.3 -380.5 L-566.4 -381 L-565.6 -381.5 L-564.7 -382 L-563.9 -382.5 L-563 -383 L-562.1 -383.5 L-561.6 -382.6 L-561.1 -381.8 L-560.7 -380.9 L-560.2 -380 L-559.7 -379.2 L-559.2 -378.3 L-558.7 -377.5 L-558.2 -376.6 L-557.7 -375.8 L-557.2 -374.9 L-556.7 -374 L-556.2 -373.2 L-555.7 -372.3 L-555.2 -371.5 L-554.7 -370.6 L-554.2 -369.7 L-553.7 -368.9 L-553.2 -368 L-552.7 -367.2 L-552.2 -366.3 L-551.7 -365.5 L-551.2 -364.6 L-550.7 -363.7 L-550.2 -362.9 L-549.7 -362 Z " />
<path stroke="rgb(0,0,0)" stroke-opacity="1" fill="rgb(255,255,255)" fill-opacity="1" d="M-199.6 -112.3 L-198.6 -112.2 L-197.6 -112.1 L-196.7 -111.9 L-195.7 -111.6 L-194.8 -111.3 L-193.9 -110.9 L-193.1 -110.4 L-192.2 -109.8 L-191.5 -109.2 L-190.8 -108.5 L-190.1 -107.8 L-189.5 -107 L-189 -106.1 L-188.5 -105.3 L-188.1 -104.4 L-187.8 -103.4 L-187.5 -102.5 L-187.4 -101.5 L-187.3 -100.5 L-187.3 -99.52 L-187.3 -98.54 L-187.5 -97.56 L-187.7 -96.59 L-188 -95.65 L-188.3 -94.73 L-188.8 -93.85 L-189.3 -93 L-189.9 -92.2 L-190.5 -91.44 L-191.2 -90.74 L-192 -90.09 L-192.8 -89.51 L-193.6 -88.99 L-194.5 -88.54 L-195.4 -88.17 L-196.3 -87.86 L-197.3 -87.64 L-198.3 -87.48 L-199.3 -87.41 L-200.3 -87.42 L-201.2 -87.5 L-202.2 -87.66 L-203.2 -87.9 L-204.1 -88.22 L-205 -88.61 L-205.9 -89.07 L-206.7 -89.59 L-207.5 -90.19 L-208.3 -90.84 L-209 -91.55 L-209.6 -92.31 L-210.2 -93.12 L-210.7 -93.98 L-211.1 -94.87 L-211.4 -95.79 L-211.7 -96.74 L-211.9 -97.7 L-212.1 -98.68 L-212.1 -99.67 L-212.1 -100.7 L-212 -101.6 L-211.8 -102.6 L-211.6 -103.6 L-211.2 -104.5 L-210.8 -105.4 L-210.3 -106.3 L-209.8 -107.1 L-209.2 -107.9 L-208.5 -108.6 L-207.8 -109.3 L-207 -109.9 L-206.2 -110.4 L-205.3 -110.9 L-204.4 -111.3 L-203.5 -111.7 L-202.6 -111.9 L-201.6 -112.1 L-200.6 -112.3 L-199.6 -112.3 Z " />
<path stroke="rgb(0,0,0)" stroke-opacity="1" fill="rgb(255,255,255)" fill-opacity="1" d="M-321.1 -341.4 L-321.7 -340.6 L-322.3 -339.7 L-322.8 -338.9 L-323.4 -338.1 L-323.9 -337.3 L-324.5 -336.5 L-325.1 -335.7 L-325.6 -334.8 L-326.2 -334 L-326.7 -333.2 L-327.3 -332.4 L-327.9 -331.6 L-328.4 -330.7 L-329 -329.9 L-329.6 -329.1 L-330.1 -328.3 L-330.7 -327.5 L-331.2 -326.7 L-331.8 -325.8 L-332.4 -325 L-332.9 -324.2 L-333.5 -323.4 L-334.1 -322.6 L-334.6 -321.7 L-335.2 -320.9 L-336 -321.5 L-336.8 -322.1 L-337.6 -322.6 L-338.4 -323.2 L-339.3 -323.7 L-340.1 -324.3 L-340.9 -324.9 L-341.7 -325.4 L-342.5 -326 L-343.4 -326.5 L-344.2 -327.1 L-345 -327.7 L-345.8 -328.2 L-346.6 -328.8 L-347.4 -329.4 L-348.3 -329.9 L-349.1 -330.5 L-349.9 -331 L-350.7 -331.6 L-351.5 -332.2 L-352.3 -332.7 L-353.2 -333.3 L-354 -333.8 L-354.8 -334.4 L-355.6 -335 L-355.1 -335.8 L-354.5 -336.6 L-353.9 -337.4 L-353.4 -338.2 L-352.8 -339.1 L-352.3 -339.9 L-351.7 -340.7 L-351.1 -341.5 L-350.6 -342.3 L-350 -343.2 L-349.4 -344 L-348.9 -344.8 L-348.3 -345.6 L-347.8 -346.4 L-347.2 -347.2 L-346.6 -348.1 L-346.1 -348.9 L-345.5 -349.7 L-344.9 -350.5 L-344.4 -351.3 L-343.8 -352.1 L-343.3 -353 L-342.7 -353.8 L-342.1 -354.6 L-341.6 -355.4 L-340.8 -354.9 L-339.9 -354.3 L-339.1 -353.7 L-338.3 -353.2 L-337.5 -352.6 L-336.7 -352 L-335.9 -351.5 L-335 -350.9 L-334.2 -350.4 L-333.4 -349.8 L-332.6 -349.2 L-331.8 -348.7 L-330.9 -348.1 L-330.1 -347.6 L-329.3 -347 L-328.5 -346.4 L-327.7 -345.9 L-326.9 -345.3 L-326 -344.7 L-325.2 -344.2 L-324.4 -343.6 L-323.6 -343.1 L-322.8 -342.5 L-321.9 -341.9 L-321.1 -341.4 Z " />
<path stroke="rgb(0,0,0)" stroke-opacity="1" fill="rgb(255,255,255)" fill-opacity="1" d="M0.3851 -112.3 L1.373 -112.2 L2.355 -112.1 L3.323 -111.9 L4.273 -111.6 L5.197 -111.3 L6.091 -110.9 L6.948 -110.4 L7.763 -109.8 L8.53 -109.2 L9.246 -108.5 L9.906 -107.8 L10.5 -107 L11.04 -106.1 L11.51 -105.3 L11.9 -104.4 L12.22 -103.4 L12.47 -102.5 L12.64 -101.5 L12.73 -100.5 L12.75 -99.52 L12.68 -98.54 L12.54 -97.56 L12.32 -96.59 L12.02 -95.65 L11.65 -94.73 L11.21 -93.85 L10.7 -93 L10.12 -92.2 L9.485 -91.44 L8.788 -90.74 L8.038 -90.09 L7.239 -89.51 L6.396 -88.99 L5.515 -88.54 L4.601 -88.17 L3.659 -87.86 L2.697 -87.64 L1.719 -87.48 L0.7327 -87.41 L-0.2565 -87.42 L-1.242 -87.5 L-2.218 -87.66 L-3.177 -87.9 L-4.115 -88.22 L-5.025 -88.61 L-5.901 -89.07 L-6.737 -89.59 L-7.53 -90.19 L-8.272 -90.84 L-8.96 -91.55 L-9.59 -92.31 L-10.16 -93.12 L-10.66 -93.98 L-11.09 -94.87 L-11.45 -95.79 L-11.73 -96.74 L-11.94 -97.7 L-12.07 -98.68 L-12.13 -99.67 L-12.1 -100.7 L-12 -101.6 L-11.82 -102.6 L-11.56 -103.6 L-11.22 -104.5 L-10.82 -105.4 L-10.34 -106.3 L-9.796 -107.1 L-9.188 -107.9 L-8.52 -108.6 L-7.796 -109.3 L-7.021 -109.9 L-6.199 -110.4 L-5.337 -110.9 L-4.438 -111.3 L-3.51 -111.7 L-2.557 -111.9 L-1.586 -112.1 L-0.6034 -112.3 L0.3851 -112.3 Z " />
<path stroke="rgb(0,0,0)" stroke-opacity="1" fill="rgb(255,255,255)" fill-opacity="1" d="M-102.3 -326 L-102.6 -325 L-102.9 -324.1 L-103.2 -323.1 L-103.4 -322.2 L-103.7 -321.2 L-104 -320.3 L-104.2 -319.3 L-104.5 -318.3 L-104.8 -317.4 L-105.1 -316.4 L-105.3 -315.5 L-105.6 -314.5 L-105.9 -313.6 L-106.1 -312.6 L-106.4 -311.7 L-106.7 -310.7 L-107 -309.8 L-107.2 -308.8 L-107.5 -307.8 L-107.8 -306.9 L-108 -305.9 L-108.3 -305 L-108.6 -304 L-108.9 -303.1 L-109.1 -302.1 L-110.1 -302.4 L-111 -302.7 L-112 -302.9 L-113 -303.2 L-113.9 -303.5 L-114.9 -303.7 L-115.8 -304 L-116.8 -304.3 L-117.7 -304.6 L-118.7 -304.8 L-119.6 -305.1 L-120.6 -305.4 L-121.5 -305.6 L-122.5 -305.9 L-123.5 -306.2 L-124.4 -306.5 L-125.4 -306.7 L-126.3 -307 L-127.3 -307.3 L-128.2 -307.5 L-129.2 -307.8 L-130.1 -308.1 L-131.1 -308.4 L-132 -308.6 L-133 -308.9 L-132.7 -309.9 L-132.5 -310.8 L-132.2 -311.8 L-131.9 -312.7 L-131.6 -313.7 L-131.4 -314.6 L-131.1 -315.6 L-130.8 -316.5 L-130.6 -317.5 L-130.3 -318.4 L-130 -319.4 L-129.7 -320.4 L-129.5 -321.3 L-129.2 -322.3 L-128.9 -323.2 L-128.7 -324.2 L-128.4 -325.1 L-128.1 -326.1 L-127.8 -327 L-127.6 -328 L-127.3 -328.9 L-127 -329.9 L-126.8 -330.9 L-126.5 -331.8 L-126.2 -332.8 L-125.3 -332.5 L-124.3 -332.2 L-123.4 -331.9 L-122.4 -331.7 L-121.4 -331.4 L-120.5 -331.1 L-119.5 -330.9 L-118.6 -330.6 L-117.6 -330.3 L-116.7 -330 L-115.7 -329.8 L-114.8 -329.5 L-113.8 -329.2 L-112.9 -329 L-111.9 -328.7 L-110.9 -328.4 L-110 -328.1 L-109 -327.9 L-108.1 -327.6 L-107.1 -327.3 L-106.2 -327.1 L-105.2 -326.8 L-104.3 -326.5 L-103.3 -326.2 L-102.3 -326 Z " />
<path stroke="rgb(0,0,0)" stroke-opacity="1" fill="rgb(255,255,255)" fill-opacity="1" d="M200.4 -112.3 L201.4 -112.2 L202.4 -112.1 L203.3 -111.9 L204.3 -111.6 L205.2 -111.3 L206.1 -110.9 L206.9 -110.4 L207.8 -109.8 L208.5 -109.2 L209.2 -108.5 L209.9 -107.8 L210.5 -107 L211 -106.1 L211.5 -105.3 L211.9 -104.4 L212.2 -103.4 L212.5 -102.5 L212.6 -101.5 L212.7 -100.5 L212.7 -99.52 L212.7 -98.54 L212.5 -97.56 L212.3 -96.59 L212 -95.65 L211.7 -94.73 L211.2 -93.85 L210.7 -93 L210.1 -92.2 L209.5 -91.44 L208.8 -90.74 L208 -90.09 L207.2 -89.51 L206.4 -88.99 L205.5 -88.54 L204.6 -88.17 L203.7 -87.86 L202.7 -87.64 L201.7 -87.48 L200.7 -87.41 L199.7 -87.42 L198.8 -87.5 L197.8 -87.66 L196.8 -87.9 L195.9 -88.22 L195 -88.61 L194.1 -89.07 L193.3 -89.59 L192.5 -90.19 L191.7 -90.84 L191 -91.55 L190.4 -92.31 L189.8 -93.12 L189.3 -93.98 L188.9 -94.87 L188.6 -95.79 L188.3 -96.74 L188.1 -97.7 L187.9 -98.68 L187.9 -99.67 L187.9 -100.7 L188 -101.6 L188.2 -102.6 L188.4 -103.6 L188.8 -104.5 L189.2 -105.4 L189.7 -106.3 L190.2 -107.1 L190.8 -107.9 L191.5 -108.6 L192.2 -109.3 L193 -109.9 L193.8 -110.4 L194.7 -110.9 L195.6 -111.3 L196.5 -111.7 L197.4 -111.9 L198.4 -112.1 L199.4 -112.3 L200.4 -112.3 Z " />
<path stroke="rgb(0,0,0)" stroke-opacity="1" fill="rgb(255,255,255)" fill-opacity="1" d="M107.3 -317.2 L107.2 -316.2 L107.1 -315.2 L107 -314.2 L106.9 -313.2 L106.8 -312.2 L106.7 -311.3 L106.6 -310.3 L106.5 -309.3 L106.4 -308.3 L106.3 -307.3 L106.2 -306.3 L106.1 -305.3 L106 -304.3 L105.9 -303.4 L105.8 -302.4 L105.7 -301.4 L105.6 -300.4 L105.5 -299.4 L105.4 -298.4 L105.3 -297.4 L105.2 -296.4 L105.1 -295.5 L105 -294.5 L104.9 -293.5 L104.8 -292.5 L103.8 -292.6 L102.8 -292.7 L101.9 -292.8 L100.9 -292.9 L99.88 -293 L98.89 -293.1 L97.91 -293.2 L96.92 -293.3 L95.93 -293.4 L94.94 -293.5 L93.96 -293.6 L92.97 -293.7 L91.98 -293.8 L90.99 -293.9 L90 -294 L89.02 -294.1 L88.03 -294.2 L87.04 -294.3 L86.05 -294.3 L85.07 -294.4 L84.08 -294.5 L83.09 -294.6 L82.1 -294.7 L81.11 -294.8 L80.13 -294.9 L80.22 -295.9 L80.32 -296.9 L80.42 -297.9 L80.52 -298.9 L80.62 -299.9 L80.71 -300.9 L80.81 -301.8 L80.91 -302.8 L81.01 -303.8 L81.1 -304.8 L81.2 -305.8 L81.3 -306.8 L81.4 -307.8 L81.5 -308.8 L81.59 -309.8 L81.69 -310.7 L81.79 -311.7 L81.89 -312.7 L81.98 -313.7 L82.08 -314.7 L82.18 -315.7 L82.28 -316.7 L82.38 -317.7 L82.47 -318.6 L82.57 -319.6 L83.56 -319.5 L84.55 -319.4 L85.53 -319.3 L86.52 -319.2 L87.51 -319.1 L88.5 -319 L89.49 -318.9 L90.47 -318.8 L91.46 -318.7 L92.45 -318.7 L93.44 -318.6 L94.42 -318.5 L95.41 -318.4 L96.4 -318.3 L97.39 -318.2 L98.37 -318.1 L99.36 -318 L100.4 -317.9 L101.3 -317.8 L102.3 -317.7 L103.3 -317.6 L104.3 -317.5 L105.3 -317.4 L106.3 -317.3 L107.3 -317.2 Z " />
<path stroke="rgb(0,0,0)" stroke-opacity="1" fill="rgb(255,255,255)" fill-opacity="1" d="M-299.6 -12.28 L-298.6 -12.24 L-297.6 -12.12 L-296.7 -11.91 L-295.7 -11.64 L-294.8 -11.29 L-293.9 -10.86 L-293.1 -10.37 L-292.2 -9.806 L-291.5 -9.183 L-290.8 -8.5 L-290.1 -7.763 L-289.5 -6.976 L-289 -6.143 L-288.5 -5.271 L-288.1 -4.365 L-287.8 -3.43 L-287.5 -2.472 L-287.4 -1.498 L-287.3 -0.5127 L-287.3 0.4764 L-287.3 1.463 L-287.5 2.442 L-287.7 3.406 L-288 4.35 L-288.3 5.267 L-288.8 6.152 L-289.3 6.999 L-289.9 7.803 L-290.5 8.558 L-291.2 9.261 L-292 9.905 L-292.8 10.49 L-293.6 11.01 L-294.5 11.46 L-295.4 11.83 L-296.3 12.14 L-297.3 12.36 L-298.3 12.52 L-299.3 12.59 L-300.3 12.58 L-301.2 12.5 L-302.2 12.34 L-303.2 12.1 L-304.1 11.78 L-305 11.39 L-305.9 10.93 L-306.7 10.41 L-307.5 9.813 L-308.3 9.16 L-309 8.449 L-309.6 7.686 L-310.2 6.876 L-310.7 6.023 L-311.1 5.133 L-311.4 4.211 L-311.7 3.264 L-311.9 2.297 L-312.1 1.317 L-312.1 0.3293 L-312.1 -0.6595 L-312 -1.643 L-311.8 -2.615 L-311.6 -3.57 L-311.2 -4.501 L-310.8 -5.403 L-310.3 -6.27 L-309.8 -7.096 L-309.2 -7.876 L-308.5 -8.605 L-307.8 -9.279 L-307 -9.894 L-306.2 -10.44 L-305.3 -10.93 L-304.4 -11.34 L-303.5 -11.68 L-302.6 -11.95 L-301.6 -12.14 L-300.6 -12.25 L-299.6 -12.28 Z " />
<path stroke="rgb(0,0,0)" stroke-opacity="1" fill="rgb(255,255,255)" fill-opacity="1" d="M-421.1 -241.4 L-421.7 -240.6 L-422.3 -239.7 L-422.8 -238.9 L-423.4 -238.1 L-423.9 -237.3 L-424.5 -236.5 L-425.1 -235.7 L-425.6 -234.8 L-426.2 -234 L-426.7 -233.2 L-427.3 -232.4 L-427.9 -231.6 L-428.4 -230.7 L-429 -229.9 L-429.6 -229.1 L-430.1 -228.3 L-430.7 -227.5 L-431.2 -226.7 L-431.8 -225.8 L-432.4 -225 L-432.9 -224.2 L-433.5 -223.4 L-434.1 -222.6 L-434.6 -221.7 L-435.2 -220.9 L-436 -221.5 L-436.8 -222.1 L-437.6 -222.6 L-438.4 -223.2 L-439.3 -223.7 L-440.1 -224.3 L-440.9 -224.9 L-441.7 -225.4 L-442.5 -226 L-443.4 -226.5 L-444.2 -227.1 L-445 -227.7 L-445.8 -228.2 L-446.6 -228.8 L-447.4 -229.4 L-448.3 -229.9 L-449.1 -230.5 L-449.9 -231 L-450.7 -231.6 L-451.5 -232.2 L-452.3 -232.7 L-453.2 -233.3 L-454 -233.8 L-454.8 -234.4 L-455.6 -235 L-455.1 -235.8 L-454.5 -236.6 L-453.9 -237.4 L-453.4 -238.2 L-452.8 -239.1 L-452.3 -239.9 L-451.7 -240.7 L-451.1 -241.5 L-450.6 -242.3 L-450 -243.2 L-449.4 -244 L-448.9 -244.8 L-448.3 -245.6 L-447.8 -246.4 L-447.2 -247.2 L-446.6 -248.1 L-446.1 -248.9 L-445.5 -249.7 L-444.9 -250.5 L-444.4 -251.3 L-443.8 -252.1 L-443.3 -253 L-442.7 -253.8 L-442.1 -254.6 L-441.6 -255.4 L-440.8 -254.9 L-439.9 -254.3 L-439.1 -253.7 L-438.3 -253.2 L-437.5 -252.6 L-436.7 -252 L-435.9 -251.5 L-435 -250.9 L-434.2 -250.4 L-433.4 -249.8 L-432.6 -249.2 L-431.8 -248.7 L-430.9 -248.1 L-430.1 -247.6 L-429.3 -247 L-428.5 -246.4 L-427.7 -245.9 L-426.9 -245.3 L-426 -244.7 L-425.2 -244.2 L-424.4 -243.6 L-423.6 -243.1 L-422.8 -242.5 L-421.9 -241.9 L-421.1 -241.4 Z " />
<path stroke="rgb(0,0,0)" stroke-opacity="1" fill="rgb(255,255,255)" fill-opacity="1" d="M-99.61 -12.28 L-98.63 -12.24 L-97.65 -12.12 L-96.68 -11.91 L-95.73 -11.64 L-94.8 -11.29 L-93.91 -10.86 L-93.05 -10.37 L-92.24 -9.806 L-91.47 -9.183 L-90.75 -8.5 L-90.09 -7.763 L-89.5 -6.976 L-88.96 -6.143 L-88.49 -5.271 L-88.1 -4.365 L-87.78 -3.43 L-87.53 -2.472 L-87.36 -1.498 L-87.27 -0.5127 L-87.25 0.4764 L-87.32 1.463 L-87.46 2.442 L-87.68 3.406 L-87.98 4.35 L-88.35 5.267 L-88.79 6.152 L-89.3 6.999 L-89.88 7.803 L-90.52 8.558 L-91.21 9.261 L-91.96 9.905 L-92.76 10.49 L-93.6 11.01 L-94.49 11.46 L-95.4 11.83 L-96.34 12.14 L-97.3 12.36 L-98.28 12.52 L-99.27 12.59 L-100.3 12.58 L-101.2 12.5 L-102.2 12.34 L-103.2 12.1 L-104.1 11.78 L-105 11.39 L-105.9 10.93 L-106.7 10.41 L-107.5 9.813 L-108.3 9.16 L-109 8.449 L-109.6 7.686 L-110.2 6.876 L-110.7 6.023 L-111.1 5.133 L-111.4 4.211 L-111.7 3.264 L-111.9 2.297 L-112.1 1.317 L-112.1 0.3293 L-112.1 -0.6595 L-112 -1.643 L-111.8 -2.615 L-111.6 -3.57 L-111.2 -4.501 L-110.8 -5.403 L-110.3 -6.27 L-109.8 -7.096 L-109.2 -7.876 L-108.5 -8.605 L-107.8 -9.279 L-107 -9.894 L-106.2 -10.44 L-105.3 -10.93 L-104.4 -11.34 L-103.5 -11.68 L-102.6 -11.95 L-101.6 -12.14 L-100.6 -12.25 L-99.61 -12.28 Z " />
<path stroke="rgb(0,0,0)" stroke-opacity="1" fill="rgb(255,255,255)" fill-opacity="1" d="M-202.3 -226 L-202.6 -225 L-202.9 -224.1 L-203.2 -223.1 L-203.4 -222.2 L-203.7 -221.2 L-204 -220.3 L-204.2 -219.3 L-204.5 -218.3 L-204.8 -217.4 L-205.1 -216.4 L-205.3 -215.5 L-205.6 -214.5 L-205.9 -213.6 L-206.1 -212.6 L-206.4 -211.7 L-206.7 -210.7 L-207 -209.8 L-207.2 -208.8 L-207.5 -207.8 L-207.8 -206.9 L-208 -205.9 L-208.3 -205 L-208.6 -204 L-208.9 -203.1 L-209.1 -202.1 L-210.1 -202.4 L-211 -202.7 L-212 -202.9 L-213 -203.2 L-213.9 -203.5 L-214.9 -203.7 L-215.8 -204 L-216.8 -204.3 L-217.7 -204.6 L-218.7 -204.8 L-219.6 -205.1 L-220.6 -205.4 L-221.5 -205.6 L-222.5 -205.9 L-223.5 -206.2 L-224.4 -206.5 L-225.4 -206.7 L-226.3 -207 L-227.3 -207.3 L-228.2 -207.5 L-229.2 -207.8 L-230.1 -208.1 L-231.1 -208.4 L-232 -208.6 L-233 -208.9 L-232.7 -209.9 L-232.5 -210.8 L-232.2 -211.8 L-231.9 -212.7 L-231.6 -213.7 L-231.4 -214.6 L-231.1 -215.6 L-230.8 -216.5 L-230.6 -217.5 L-230.3 -218.4 L-230 -219.4 L-229.7 -220.4 L-229.5 -221.3 L-229.2 -222.3 L-228.9 -223.2 L-228.7 -224.2 L-228.4 -225.1 L-228.1 -226.1 L-227.8 -227 L-227.6 -228 L-227.3 -228.9 L-227 -229.9 L-226.8 -230.9 L-226.5 -231.8 L-226.2 -232.8 L-225.3 -232.5 L-224.3 -232.2 L-223.4 -231.9 L-222.4 -231.7 L-221.4 -231.4 L-220.5 -231.1 L-219.5 -230.9 L-218.6 -230.6 L-217.6 -230.3 L-216.7 -230 L-215.7 -229.8 L-214.8 -229.5 L-213.8 -229.2 L-212.9 -229 L-211.9 -228.7 L-210.9 -228.4 L-210 -228.1 L-209 -227.9 L-208.1 -227.6 L-207.1 -227.3 L-206.2 -227.1 L-205.2 -226.8 L-204.3 -226.5 L-203.3 -226.2 L-202.3 -226 Z " />
<path stroke="rgb(0,0,0)" stroke-opacity="1" fill="rgb(255,255,255)" fill-opacity="1" d="M100.4 -12.28 L101.4 -12.24 L102.4 -12.12 L103.3 -11.91 L104.3 -11.64 L105.2 -11.29 L106.1 -10.86 L106.9 -10.37 L107.8 -9.806 L108.5 -9.183 L109.2 -8.5 L109.9 -7.763 L110.5 -6.976 L111 -6.143 L111.5 -5.271 L111.9 -4.365 L112.2 -3.43 L112.5 -2.472 L112.6 -1.498 L112.7 -0.5127 L112.7 0.4764 L112.7 1.463 L112.5 2.442 L112.3 3.406 L112 4.35 L111.7 5.267 L111.2 6.152 L110.7 6.999 L110.1 7.803 L109.5 8.558 L108.8 9.261 L108 9.905 L107.2 10.49 L106.4 11.01 L105.5 11.46 L104.6 11.83 L103.7 12.14 L102.7 12.36 L101.7 12.52 L100.7 12.59 L99.74 12.58 L98.76 12.5 L97.78 12.34 L96.82 12.1 L95.88 11.78 L94.98 11.39 L94.1 10.93 L93.26 10.41 L92.47 9.813 L91.73 9.16 L91.04 8.449 L90.41 7.686 L89.84 6.876 L89.34 6.023 L88.91 5.133 L88.55 4.211 L88.27 3.264 L88.06 2.297 L87.93 1.317 L87.87 0.3293 L87.9 -0.6595 L88 -1.643 L88.18 -2.615 L88.44 -3.57 L88.78 -4.501 L89.18 -5.403 L89.66 -6.27 L90.2 -7.096 L90.81 -7.876 L91.48 -8.605 L92.2 -9.279 L92.98 -9.894 L93.8 -10.44 L94.66 -10.93 L95.56 -11.34 L96.49 -11.68 L97.44 -11.95 L98.41 -12.14 L99.4 -12.25 L100.4 -12.28 Z " />
<path stroke="rgb(0,0,0)" stroke-opacity="1" fill="rgb(255,255,255)" fill-opacity="1" d="M7.264 -217.2 L7.167 -216.2 L7.069 -215.2 L6.971 -214.2 L6.873 -213.2 L6.775 -212.2 L6.678 -211.3 L6.58 -210.3 L6.482 -209.3 L6.384 -208.3 L6.287 -207.3 L6.189 -206.3 L6.091 -205.3 L5.993 -204.3 L5.896 -203.4 L5.798 -202.4 L5.7 -201.4 L5.602 -200.4 L5.504 -199.4 L5.407 -198.4 L5.309 -197.4 L5.211 -196.4 L5.113 -195.5 L5.016 -194.5 L4.918 -193.5 L4.82 -192.5 L3.832 -192.6 L2.845 -192.7 L1.857 -192.8 L0.8692 -192.9 L-0.1185 -193 L-1.106 -193.1 L-2.094 -193.2 L-3.082 -193.3 L-4.069 -193.4 L-5.057 -193.5 L-6.045 -193.6 L-7.033 -193.7 L-8.02 -193.8 L-9.008 -193.9 L-9.996 -194 L-10.98 -194.1 L-11.97 -194.2 L-12.96 -194.3 L-13.95 -194.3 L-14.93 -194.4 L-15.92 -194.5 L-16.91 -194.6 L-17.9 -194.7 L-18.89 -194.8 L-19.87 -194.9 L-19.78 -195.9 L-19.68 -196.9 L-19.58 -197.9 L-19.48 -198.9 L-19.38 -199.9 L-19.29 -200.9 L-19.19 -201.8 L-19.09 -202.8 L-18.99 -203.8 L-18.9 -204.8 L-18.8 -205.8 L-18.7 -206.8 L-18.6 -207.8 L-18.5 -208.8 L-18.41 -209.8 L-18.31 -210.7 L-18.21 -211.7 L-18.11 -212.7 L-18.02 -213.7 L-17.92 -214.7 L-17.82 -215.7 L-17.72 -216.7 L-17.62 -217.7 L-17.53 -218.6 L-17.43 -219.6 L-16.44 -219.5 L-15.45 -219.4 L-14.47 -219.3 L-13.48 -219.2 L-12.49 -219.1 L-11.5 -219 L-10.51 -218.9 L-9.527 -218.8 L-8.539 -218.7 L-7.552 -218.7 L-6.564 -218.6 L-5.576 -218.5 L-4.588 -218.4 L-3.601 -218.3 L-2.613 -218.2 L-1.625 -218.1 L-0.6375 -218 L0.3502 -217.9 L1.338 -217.8 L2.326 -217.7 L3.313 -217.6 L4.301 -217.5 L5.289 -217.4 L6.277 -217.3 L7.264 -217.2 Z " />
<path stroke="rgb(0,0,0)" stroke-opacity="1" fill="rgb(255,255,255)" fill-opacity="1" d="M300.4 -12.28 L301.4 -12.24 L302.4 -12.12 L303.3 -11.91 L304.3 -11.64 L305.2 -11.29 L306.1 -10.86 L306.9 -10.37 L307.8 -9.806 L308.5 -9.183 L309.2 -8.5 L309.9 -7.763 L310.5 -6.976 L311 -6.143 L311.5 -5.271 L311.9 -4.365 L312.2 -3.43 L312.5 -2.472 L312.6 -1.498 L312.7 -0.5127 L312.7 0.4764 L312.7 1.463 L312.5 2.442 L312.3 3.406 L312 4.35 L311.7 5.267 L311.2 6.152 L310.7 6.999 L310.1 7.803 L309.5 8.558 L308.8 9.261 L308 9.905 L307.2 10.49 L306.4 11.01 L305.5 11.46 L304.6 11.83 L303.7 12.14 L302.7 12.36 L301.7 12.52 L300.7 12.59 L299.7 12.58 L298.8 12.5 L297.8 12.34 L296.8 12.1 L295.9 11.78 L295 11.39 L294.1 10.93 L293.3 10.41 L292.5 9.813 L291.7 9.16 L291 8.449 L290.4 7.686 L289.8 6.876 L289.3 6.023 L288.9 5.133 L288.6 4.211 L288.3 3.264 L288.1 2.297 L287.9 1.317 L287.9 0.3293 L287.9 -0.6595 L288 -1.643 L288.2 -2.615 L288.4 -3.57 L288.8 -4.501 L289.2 -5.403 L289.7 -6.27 L290.2 -7.096 L290.8 -7.876 L291.5 -8.605 L292.2 -9.279 L293 -9.894 L293.8 -10.44 L294.7 -10.93 L295.6 -11.34 L296.5 -11.68 L297.4 -11.95 L298.4 -12.14 L299.4 -12.25 L300.4 -12.28 Z " />
<path stroke="rgb(0,0,0)" stroke-opacity="1" fill="rgb(255,255,255)" fill-opacity="1" d="M-521.1 -141.4 L-521.7 -140.6 L-522.3 -139.7 L-522.8 -138.9 L-523.4 -138.1 L-523.9 -137.3 L-524.5 -136.5 L-525.1 -135.7 L-525.6 -134.8 L-526.2 -134 L-526.7 -133.2 L-527.3 -132.4 L-527.9 -131.6 L-528.4 -130.7 L-529 -129.9 L-529.6 -129.1 L-530.1 -128.3 L-530.7 -127.5 L-531.2 -126.7 L-531.8 -125.8 L-532.4 -125 L-532.9 -124.2 L-533.5 -123.4 L-534.1 -122.6 L-534.6 -121.7 L-535.2 -120.9 L-536 -121.5 L-536.8 -122.1 L-537.6 -122.6 L-538.4 -123.2 L-539.3 -123.7 L-540.1 -124.3 L-540.9 -124.9 L-541.7 -125.4 L-542.5 -126 L-543.4 -126.5 L-544.2 -127.1 L-545 -127.7 L-545.8 -128.2 L-546.6 -128.8 L-547.4 -129.4 L-548.3 -129.9 L-549.1 -130.5 L-549.9 -131 L-550.7 -131.6 L-551.5 -132.2 L-552.3 -132.7 L-553.2 -133.3 L-554 -133.8 L-554.8 -134.4 L-555.6 -135 L-555.1 -135.8 L-554.5 -136.6 L-553.9 -137.4 L-553.4 -138.2 L-552.8 -139.1 L-552.3 -139.9 L-551.7 -140.7 L-551.1 -141.5 L-550.6 -142.3 L-550 -143.2 L-549.4 -144 L-548.9 -144.8 L-548.3 -145.6 L-547.8 -146.4 L-547.2 -147.2 L-546.6 -148.1 L-546.1 -148.9 L-545.5 -149.7 L-544.9 -150.5 L-544.4 -151.3 L-543.8 -152.1 L-543.3 -153 L-542.7 -153.8 L-542.1 -154.6 L-541.6 -155.4 L-540.8 -154.9 L-539.9 -154.3 L-539.1 -153.7 L-538.3 -153.2 L-537.5 -152.6 L-536.7 -152 L-535.9 -151.5 L-535 -150.9 L-534.2 -150.4 L-533.4 -149.8 L-532.6 -149.2 L-531.8 -148.7 L-530.9 -148.1 L-530.1 -147.6 L-529.3 -147 L-528.5 -146.4 L-527.7 -145.9 L-526.9 -145.3 L-526 -144.7 L-525.2 -144.2 L-524.4 -143.6 L-523.6 -143.1 L-522.8 -142.5 L-521.9 -141.9 L-521.1 -141.4 Z " />
<path stroke="rgb(0,0,0)" stroke-opacity="1" fill="rgb(255,255,255)" fill-opacity="1" d="M-199.6 87.72 L-198.6 87.76 L-197.6 87.88 L-196.7 88.09 L-195.7 88.36 L-194.8 88.71 L-193.9 89.14 L-193.1 89.63 L-192.2 90.19 L-191.5 90.82 L-190.8 91.5 L-190.1 92.24 L-189.5 93.02 L-189 93.86 L-188.5 94.73 L-188.1 95.64 L-187.8 96.57 L-187.5 97.53 L-187.4 98.5 L-187.3 99.49 L-187.3 100.5 L-187.3 101.5 L-187.5 102.4 L-187.7 103.4 L-188 104.4 L-188.3 105.3 L-188.8 106.2 L-189.3 107 L-189.9 107.8 L-190.5 108.6 L-191.2 109.3 L-192 109.9 L-192.8 110.5 L-193.6 111 L-194.5 111.5 L-195.4 111.8 L-196.3 112.1 L-197.3 112.4 L-198.3 112.5 L-199.3 112.6 L-200.3 112.6 L-201.2 112.5 L-202.2 112.3 L-203.2 112.1 L-204.1 111.8 L-205 111.4 L-205.9 110.9 L-206.7 110.4 L-207.5 109.8 L-208.3 109.2 L-209 108.4 L-209.6 107.7 L-210.2 106.9 L-210.7 106 L-211.1 105.1 L-211.4 104.2 L-211.7 103.3 L-211.9 102.3 L-212.1 101.3 L-212.1 100.3 L-212.1 99.34 L-212 98.36 L-211.8 97.38 L-211.6 96.43 L-211.2 95.5 L-210.8 94.6 L-210.3 93.73 L-209.8 92.9 L-209.2 92.12 L-208.5 91.39 L-207.8 90.72 L-207 90.11 L-206.2 89.56 L-205.3 89.07 L-204.4 88.66 L-203.5 88.32 L-202.6 88.05 L-201.6 87.86 L-200.6 87.75 L-199.6 87.72 Z " />
<path stroke="rgb(0,0,0)" stroke-opacity="1" fill="rgb(255,255,255)" fill-opacity="1" d="M-302.3 -126 L-302.6 -125 L-302.9 -124.1 L-303.2 -123.1 L-303.4 -122.2 L-303.7 -121.2 L-304 -120.3 L-304.2 -119.3 L-304.5 -118.3 L-304.8 -117.4 L-305.1 -116.4 L-305.3 -115.5 L-305.6 -114.5 L-305.9 -113.6 L-306.1 -112.6 L-306.4 -111.7 L-306.7 -110.7 L-307 -109.8 L-307.2 -108.8 L-307.5 -107.8 L-307.8 -106.9 L-308 -105.9 L-308.3 -105 L-308.6 -104 L-308.9 -103.1 L-309.1 -102.1 L-310.1 -102.4 L-311 -102.7 L-312 -102.9 L-313 -103.2 L-313.9 -103.5 L-314.9 -103.7 L-315.8 -104 L-316.8 -104.3 L-317.7 -104.6 L-318.7 -104.8 L-319.6 -105.1 L-320.6 -105.4 L-321.5 -105.6 L-322.5 -105.9 L-323.5 -106.2 L-324.4 -106.5 L-325.4 -106.7 L-326.3 -107 L-327.3 -107.3 L-328.2 -107.5 L-329.2 -107.8 L-330.1 -108.1 L-331.1 -108.4 L-332 -108.6 L-333 -108.9 L-332.7 -109.9 L-332.5 -110.8 L-332.2 -111.8 L-331.9 -112.7 L-331.6 -113.7 L-331.4 -114.6 L-331.1 -115.6 L-330.8 -116.5 L-330.6 -117.5 L-330.3 -118.4 L-330 -119.4 L-329.7 -120.4 L-329.5 -121.3 L-329.2 -122.3 L-328.9 -123.2 L-328.7 -124.2 L-328.4 -125.1 L-328.1 -126.1 L-327.8 -127 L-327.6 -128 L-327.3 -128.9 L-327 -129.9 L-326.8 -130.9 L-326.5 -131.8 L-326.2 -132.8 L-325.3 -132.5 L-324.3 -132.2 L-323.4 -131.9 L-322.4 -131.7 L-321.4 -131.4 L-320.5 -131.1 L-319.5 -130.9 L-318.6 -130.6 L-317.6 -130.3 L-316.7 -130 L-315.7 -129.8 L-314.8 -129.5 L-313.8 -129.2 L-312.9 -129 L-311.9 -128.7 L-310.9 -128.4 L-310 -128.1 L-309 -127.9 L-308.1 -127.6 L-307.1 -127.3 L-306.2 -127.1 L-305.2 -126.8 L-304.3 -126.5 L-303.3 -126.2 L-302.3 -126 Z " />
<path stroke="rgb(0,0,0)" stroke-opacity="1" fill="rgb(255,255,255)" fill-opacity="1" d="M0.3851 87.72 L1.373 87.76 L2.355 87.88 L3.323 88.09 L4.273 88.36 L5.197 88.71 L6.091 89.14 L6.948 89.63 L7.763 90.19 L8.53 90.82 L9.246 91.5 L9.906 92.24 L10.5 93.02 L11.04 93.86 L11.51 94.73 L11.9 95.64 L12.22 96.57 L12.47 97.53 L12.64 98.5 L12.73 99.49 L12.75 100.5 L12.68 101.5 L12.54 102.4 L12.32 103.4 L12.02 104.4 L11.65 105.3 L11.21 106.2 L10.7 107 L10.12 107.8 L9.485 108.6 L8.788 109.3 L8.038 109.9 L7.239 110.5 L6.396 111 L5.515 111.5 L4.601 111.8 L3.659 112.1 L2.697 112.4 L1.719 112.5 L0.7327 112.6 L-0.2565 112.6 L-1.242 112.5 L-2.218 112.3 L-3.177 112.1 L-4.115 111.8 L-5.025 111.4 L-5.901 110.9 L-6.737 110.4 L-7.53 109.8 L-8.272 109.2 L-8.96 108.4 L-9.59 107.7 L-10.16 106.9 L-10.66 106 L-11.09 105.1 L-11.45 104.2 L-11.73 103.3 L-11.94 102.3 L-12.07 101.3 L-12.13 100.3 L-12.1 99.34 L-12 98.36 L-11.82 97.38 L-11.56 96.43 L-11.22 95.5 L-10.82 94.6 L-10.34 93.73 L-9.796 92.9 L-9.188 92.12 L-8.52 91.39 L-7.796 90.72 L-7.021 90.11 L-6.199 89.56 L-5.337 89.07 L-4.438 88.66 L-3.51 88.32 L-2.557 88.05 L-1.586 87.86 L-0.6034 87.75 L0.3851 87.72 Z " />
<path stroke="rgb(0,0,0)" stroke-opacity="1" fill="rgb(255,255,255)" fill-opacity="1" d="M-92.74 -117.2 L-92.83 -116.2 L-92.93 -115.2 L-93.03 -114.2 L-93.13 -113.2 L-93.22 -112.2 L-93.32 -111.3 L-93.42 -110.3 L-93.52 -109.3 L-93.62 -108.3 L-93.71 -107.3 L-93.81 -106.3 L-93.91 -105.3 L-94.01 -104.3 L-94.1 -103.4 L-94.2 -102.4 L-94.3 -101.4 L-94.4 -100.4 L-94.5 -99.41 L-94.59 -98.42 L-94.69 -97.43 L-94.79 -96.44 L-94.89 -95.45 L-94.98 -94.47 L-95.08 -93.48 L-95.18 -92.49 L-96.17 -92.59 L-97.16 -92.69 L-98.14 -92.78 L-99.13 -92.88 L-100.1 -92.98 L-101.1 -93.08 L-102.1 -93.18 L-103.1 -93.27 L-104.1 -93.37 L-105.1 -93.47 L-106 -93.57 L-107 -93.66 L-108 -93.76 L-109 -93.86 L-110 -93.96 L-111 -94.06 L-112 -94.15 L-113 -94.25 L-113.9 -94.35 L-114.9 -94.45 L-115.9 -94.54 L-116.9 -94.64 L-117.9 -94.74 L-118.9 -94.84 L-119.9 -94.94 L-119.8 -95.92 L-119.7 -96.91 L-119.6 -97.9 L-119.5 -98.89 L-119.4 -99.87 L-119.3 -100.9 L-119.2 -101.8 L-119.1 -102.8 L-119 -103.8 L-118.9 -104.8 L-118.8 -105.8 L-118.7 -106.8 L-118.6 -107.8 L-118.5 -108.8 L-118.4 -109.8 L-118.3 -110.7 L-118.2 -111.7 L-118.1 -112.7 L-118 -113.7 L-117.9 -114.7 L-117.8 -115.7 L-117.7 -116.7 L-117.6 -117.7 L-117.5 -118.6 L-117.4 -119.6 L-116.4 -119.5 L-115.5 -119.4 L-114.5 -119.3 L-113.5 -119.2 L-112.5 -119.1 L-111.5 -119 L-110.5 -118.9 L-109.5 -118.8 L-108.5 -118.7 L-107.6 -118.7 L-106.6 -118.6 L-105.6 -118.5 L-104.6 -118.4 L-103.6 -118.3 L-102.6 -118.2 L-101.6 -118.1 L-100.6 -118 L-99.65 -117.9 L-98.66 -117.8 L-97.67 -117.7 L-96.69 -117.6 L-95.7 -117.5 L-94.71 -117.4 L-93.72 -117.3 L-92.74 -117.2 Z " />
<path stroke="rgb(0,0,0)" stroke-opacity="1" fill="rgb(255,255,255)" fill-opacity="1" d="M200.4 87.72 L201.4 87.76 L202.4 87.88 L203.3 88.09 L204.3 88.36 L205.2 88.71 L206.1 89.14 L206.9 89.63 L207.8 90.19 L208.5 90.82 L209.2 91.5 L209.9 92.24 L210.5 93.02 L211 93.86 L211.5 94.73 L211.9 95.64 L212.2 96.57 L212.5 97.53 L212.6 98.5 L212.7 99.49 L212.7 100.5 L212.7 101.5 L212.5 102.4 L212.3 103.4 L212 104.4 L211.7 105.3 L211.2 106.2 L210.7 107 L210.1 107.8 L209.5 108.6 L208.8 109.3 L208 109.9 L207.2 110.5 L206.4 111 L205.5 111.5 L204.6 111.8 L203.7 112.1 L202.7 112.4 L201.7 112.5 L200.7 112.6 L199.7 112.6 L198.8 112.5 L197.8 112.3 L196.8 112.1 L195.9 111.8 L195 111.4 L194.1 110.9 L193.3 110.4 L192.5 109.8 L191.7 109.2 L191 108.4 L190.4 107.7 L189.8 106.9 L189.3 106 L188.9 105.1 L188.6 104.2 L188.3 103.3 L188.1 102.3 L187.9 101.3 L187.9 100.3 L187.9 99.34 L188 98.36 L188.2 97.38 L188.4 96.43 L188.8 95.5 L189.2 94.6 L189.7 93.73 L190.2 92.9 L190.8 92.12 L191.5 91.39 L192.2 90.72 L193 90.11 L193.8 89.56 L194.7 89.07 L195.6 88.66 L196.5 88.32 L197.4 88.05 L198.4 87.86 L199.4 87.75 L200.4 87.72 Z " />
<path stroke="rgb(0,0,0)" stroke-opacity="1" fill="rgb(255,255,255)" fill-opacity="1" d="M111.2 -113.3 L111.2 -112.4 L111.2 -111.4 L111.1 -110.4 L111.1 -109.4 L111.1 -108.4 L111.1 -107.4 L111.1 -106.4 L111 -105.4 L111 -104.4 L111 -103.4 L111 -102.4 L110.9 -101.4 L110.9 -100.4 L110.9 -99.46 L110.9 -98.46 L110.8 -97.47 L110.8 -96.48 L110.8 -95.49 L110.8 -94.49 L110.8 -93.5 L110.7 -92.51 L110.7 -91.52 L110.7 -90.52 L110.7 -89.53 L110.6 -88.54 L109.7 -88.56 L108.7 -88.59 L107.7 -88.61 L106.7 -88.63 L105.7 -88.65 L104.7 -88.68 L103.7 -88.7 L102.7 -88.72 L101.7 -88.75 L100.7 -88.77 L99.73 -88.79 L98.74 -88.81 L97.74 -88.84 L96.75 -88.86 L95.76 -88.88 L94.77 -88.9 L93.78 -88.93 L92.78 -88.95 L91.79 -88.97 L90.8 -89 L89.81 -89.02 L88.81 -89.04 L87.82 -89.06 L86.83 -89.09 L85.84 -89.11 L85.86 -90.1 L85.88 -91.09 L85.9 -92.09 L85.93 -93.08 L85.95 -94.07 L85.97 -95.06 L86 -96.06 L86.02 -97.05 L86.04 -98.04 L86.06 -99.03 L86.09 -100 L86.11 -101 L86.13 -102 L86.16 -103 L86.18 -104 L86.2 -105 L86.22 -106 L86.25 -107 L86.27 -108 L86.29 -109 L86.31 -109.9 L86.34 -110.9 L86.36 -111.9 L86.38 -112.9 L86.41 -113.9 L87.4 -113.9 L88.39 -113.9 L89.38 -113.8 L90.37 -113.8 L91.37 -113.8 L92.36 -113.8 L93.35 -113.8 L94.34 -113.7 L95.34 -113.7 L96.33 -113.7 L97.32 -113.7 L98.31 -113.6 L99.31 -113.6 L100.3 -113.6 L101.3 -113.6 L102.3 -113.6 L103.3 -113.5 L104.3 -113.5 L105.3 -113.5 L106.3 -113.5 L107.2 -113.4 L108.2 -113.4 L109.2 -113.4 L110.2 -113.4 L111.2 -113.3 Z " />
<path stroke="rgb(0,0,0)" stroke-opacity="1" fill="rgb(255,255,255)" fill-opacity="1" d="M-299.6 187.7 L-298.6 187.8 L-297.6 187.9 L-296.7 188.1 L-295.7 188.4 L-294.8 188.7 L-293.9 189.1 L-293.1 189.6 L-292.2 190.2 L-291.5 190.8 L-290.8 191.5 L-290.1 192.2 L-289.5 193 L-289 193.9 L-288.5 194.7 L-288.1 195.6 L-287.8 196.6 L-287.5 197.5 L-287.4 198.5 L-287.3 199.5 L-287.3 200.5 L-287.3 201.5 L-287.5 202.4 L-287.7 203.4 L-288 204.4 L-288.3 205.3 L-288.8 206.2 L-289.3 207 L-289.9 207.8 L-290.5 208.6 L-291.2 209.3 L-292 209.9 L-292.8 210.5 L-293.6 211 L-294.5 211.5 L-295.4 211.8 L-296.3 212.1 L-297.3 212.4 L-298.3 212.5 L-299.3 212.6 L-300.3 212.6 L-301.2 212.5 L-302.2 212.3 L-303.2 212.1 L-304.1 211.8 L-305 211.4 L-305.9 210.9 L-306.7 210.4 L-307.5 209.8 L-308.3 209.2 L-309 208.4 L-309.6 207.7 L-310.2 206.9 L-310.7 206 L-311.1 205.1 L-311.4 204.2 L-311.7 203.3 L-311.9 202.3 L-312.1 201.3 L-312.1 200.3 L-312.1 199.3 L-312 198.4 L-311.8 197.4 L-311.6 196.4 L-311.2 195.5 L-310.8 194.6 L-310.3 193.7 L-309.8 192.9 L-309.2 192.1 L-308.5 191.4 L-307.8 190.7 L-307 190.1 L-306.2 189.6 L-305.3 189.1 L-304.4 188.7 L-303.5 188.3 L-302.6 188.1 L-301.6 187.9 L-300.6 187.7 L-299.6 187.7 Z " />
<path stroke="rgb(0,0,0)" stroke-opacity="1" fill="rgb(255,255,255)" fill-opacity="1" d="M-402.3 -25.98 L-402.6 -25.02 L-402.9 -24.07 L-403.2 -23.11 L-403.4 -22.16 L-403.7 -21.21 L-404 -20.25 L-404.2 -19.3 L-404.5 -18.34 L-404.8 -17.39 L-405.1 -16.43 L-405.3 -15.48 L-405.6 -14.52 L-405.9 -13.57 L-406.1 -12.61 L-406.4 -11.66 L-406.7 -10.7 L-407 -9.75 L-407.2 -8.795 L-407.5 -7.841 L-407.8 -6.886 L-408 -5.932 L-408.3 -4.977 L-408.6 -4.023 L-408.9 -3.068 L-409.1 -2.113 L-410.1 -2.385 L-411 -2.656 L-412 -2.928 L-413 -3.199 L-413.9 -3.47 L-414.9 -3.742 L-415.8 -4.013 L-416.8 -4.284 L-417.7 -4.556 L-418.7 -4.827 L-419.6 -5.099 L-420.6 -5.37 L-421.5 -5.641 L-422.5 -5.913 L-423.5 -6.184 L-424.4 -6.455 L-425.4 -6.727 L-426.3 -6.998 L-427.3 -7.27 L-428.2 -7.541 L-429.2 -7.812 L-430.1 -8.084 L-431.1 -8.355 L-432 -8.627 L-433 -8.898 L-432.7 -9.853 L-432.5 -10.81 L-432.2 -11.76 L-431.9 -12.72 L-431.6 -13.67 L-431.4 -14.63 L-431.1 -15.58 L-430.8 -16.53 L-430.6 -17.49 L-430.3 -18.44 L-430 -19.4 L-429.7 -20.35 L-429.5 -21.31 L-429.2 -22.26 L-428.9 -23.22 L-428.7 -24.17 L-428.4 -25.13 L-428.1 -26.08 L-427.8 -27.03 L-427.6 -27.99 L-427.3 -28.94 L-427 -29.9 L-426.8 -30.85 L-426.5 -31.81 L-426.2 -32.76 L-425.3 -32.49 L-424.3 -32.22 L-423.4 -31.95 L-422.4 -31.68 L-421.4 -31.41 L-420.5 -31.13 L-419.5 -30.86 L-418.6 -30.59 L-417.6 -30.32 L-416.7 -30.05 L-415.7 -29.78 L-414.8 -29.51 L-413.8 -29.23 L-412.9 -28.96 L-411.9 -28.69 L-410.9 -28.42 L-410 -28.15 L-409 -27.88 L-408.1 -27.61 L-407.1 -27.33 L-406.2 -27.06 L-405.2 -26.79 L-404.3 -26.52 L-403.3 -26.25 L-402.3 -25.98 Z " />
<path stroke="rgb(0,0,0)" stroke-opacity="1" fill="rgb(255,255,255)" fill-opacity="1" d="M-99.61 187.7 L-98.63 187.8 L-97.65 187.9 L-96.68 188.1 L-95.73 188.4 L-94.8 188.7 L-93.91 189.1 L-93.05 189.6 L-92.24 190.2 L-91.47 190.8 L-90.75 191.5 L-90.09 192.2 L-89.5 193 L-88.96 193.9 L-88.49 194.7 L-88.1 195.6 L-87.78 196.6 L-87.53 197.5 L-87.36 198.5 L-87.27 199.5 L-87.25 200.5 L-87.32 201.5 L-87.46 202.4 L-87.68 203.4 L-87.98 204.4 L-88.35 205.3 L-88.79 206.2 L-89.3 207 L-89.88 207.8 L-90.52 208.6 L-91.21 209.3 L-91.96 209.9 L-92.76 210.5 L-93.6 211 L-94.49 211.5 L-95.4 211.8 L-96.34 212.1 L-97.3 212.4 L-98.28 212.5 L-99.27 212.6 L-100.3 212.6 L-101.2 212.5 L-102.2 212.3 L-103.2 212.1 L-104.1 211.8 L-105 211.4 L-105.9 210.9 L-106.7 210.4 L-107.5 209.8 L-108.3 209.2 L-109 208.4 L-109.6 207.7 L-110.2 206.9 L-110.7 206 L-111.1 205.1 L-111.4 204.2 L-111.7 203.3 L-111.9 202.3 L-112.1 201.3 L-112.1 200.3 L-112.1 199.3 L-112 198.4 L-111.8 197.4 L-111.6 196.4 L-111.2 195.5 L-110.8 194.6 L-110.3 193.7 L-109.8 192.9 L-109.2 192.1 L-108.5 191.4 L-107.8 190.7 L-107 190.1 L-106.2 189.6 L-105.3 189.1 L-104.4 188.7 L-103.5 188.3 L-102.6 188.1 L-101.6 187.9 L-100.6 187.7 L-99.61 187.7 Z " />
<path stroke="rgb(0,0,0)" stroke-opacity="1" fill="rgb(255,255,255)" fill-opacity="1" d="M-192.7 -17.18 L-192.8 -16.2 L-192.9 -15.21 L-193 -14.22 L-193.1 -13.23 L-193.2 -12.25 L-193.3 -11.26 L-193.4 -10.27 L-193.5 -9.282 L-193.6 -8.295 L-193.7 -7.307 L-193.8 -6.319 L-193.9 -5.332 L-194 -4.344 L-194.1 -3.356 L-194.2 -2.368 L-194.3 -1.381 L-194.4 -0.393 L-194.5 0.5947 L-194.6 1.582 L-194.7 2.57 L-194.8 3.558 L-194.9 4.546 L-195 5.533 L-195.1 6.521 L-195.2 7.509 L-196.2 7.411 L-197.2 7.313 L-198.1 7.215 L-199.1 7.118 L-200.1 7.02 L-201.1 6.922 L-202.1 6.824 L-203.1 6.727 L-204.1 6.629 L-205.1 6.531 L-206 6.433 L-207 6.336 L-208 6.238 L-209 6.14 L-210 6.042 L-211 5.944 L-212 5.847 L-213 5.749 L-213.9 5.651 L-214.9 5.553 L-215.9 5.456 L-216.9 5.358 L-217.9 5.26 L-218.9 5.162 L-219.9 5.065 L-219.8 4.077 L-219.7 3.089 L-219.6 2.101 L-219.5 1.114 L-219.4 0.126 L-219.3 -0.8618 L-219.2 -1.849 L-219.1 -2.837 L-219 -3.825 L-218.9 -4.813 L-218.8 -5.8 L-218.7 -6.788 L-218.6 -7.776 L-218.5 -8.764 L-218.4 -9.751 L-218.3 -10.74 L-218.2 -11.73 L-218.1 -12.71 L-218 -13.7 L-217.9 -14.69 L-217.8 -15.68 L-217.7 -16.67 L-217.6 -17.65 L-217.5 -18.64 L-217.4 -19.63 L-216.4 -19.53 L-215.5 -19.43 L-214.5 -19.34 L-213.5 -19.24 L-212.5 -19.14 L-211.5 -19.04 L-210.5 -18.94 L-209.5 -18.85 L-208.5 -18.75 L-207.6 -18.65 L-206.6 -18.55 L-205.6 -18.46 L-204.6 -18.36 L-203.6 -18.26 L-202.6 -18.16 L-201.6 -18.06 L-200.6 -17.97 L-199.6 -17.87 L-198.7 -17.77 L-197.7 -17.67 L-196.7 -17.58 L-195.7 -17.48 L-194.7 -17.38 L-193.7 -17.28 L-192.7 -17.18 Z " />
<path stroke="rgb(0,0,0)" stroke-opacity="1" fill="rgb(255,255,255)" fill-opacity="1" d="M100.4 187.7 L101.4 187.8 L102.4 187.9 L103.3 188.1 L104.3 188.4 L105.2 188.7 L106.1 189.1 L106.9 189.6 L107.8 190.2 L108.5 190.8 L109.2 191.5 L109.9 192.2 L110.5 193 L111 193.9 L111.5 194.7 L111.9 195.6 L112.2 196.6 L112.5 197.5 L112.6 198.5 L112.7 199.5 L112.7 200.5 L112.7 201.5 L112.5 202.4 L112.3 203.4 L112 204.4 L111.7 205.3 L111.2 206.2 L110.7 207 L110.1 207.8 L109.5 208.6 L108.8 209.3 L108 209.9 L107.2 210.5 L106.4 211 L105.5 211.5 L104.6 211.8 L103.7 212.1 L102.7 212.4 L101.7 212.5 L100.7 212.6 L99.74 212.6 L98.76 212.5 L97.78 212.3 L96.82 212.1 L95.88 211.8 L94.98 211.4 L94.1 210.9 L93.26 210.4 L92.47 209.8 L91.73 209.2 L91.04 208.4 L90.41 207.7 L89.84 206.9 L89.34 206 L88.91 205.1 L88.55 204.2 L88.27 203.3 L88.06 202.3 L87.93 201.3 L87.87 200.3 L87.9 199.3 L88 198.4 L88.18 197.4 L88.44 196.4 L88.78 195.5 L89.18 194.6 L89.66 193.7 L90.2 192.9 L90.81 192.1 L91.48 191.4 L92.2 190.7 L92.98 190.1 L93.8 189.6 L94.66 189.1 L95.56 188.7 L96.49 188.3 L97.44 188.1 L98.41 187.9 L99.4 187.7 L100.4 187.7 Z " />
<path stroke="rgb(0,0,0)" stroke-opacity="1" fill="rgb(255,255,255)" fill-opacity="1" d="M11.21 -13.35 L11.19 -12.36 L11.17 -11.36 L11.15 -10.37 L11.12 -9.379 L11.1 -8.387 L11.08 -7.395 L11.05 -6.402 L11.03 -5.41 L11.01 -4.418 L10.99 -3.425 L10.96 -2.433 L10.94 -1.441 L10.92 -0.4484 L10.9 0.544 L10.87 1.536 L10.85 2.529 L10.83 3.521 L10.8 4.513 L10.78 5.506 L10.76 6.498 L10.74 7.49 L10.71 8.483 L10.69 9.475 L10.67 10.47 L10.65 11.46 L9.653 11.44 L8.66 11.41 L7.668 11.39 L6.676 11.37 L5.683 11.35 L4.691 11.32 L3.699 11.3 L2.706 11.28 L1.714 11.25 L0.7216 11.23 L-0.2707 11.21 L-1.263 11.19 L-2.255 11.16 L-3.248 11.14 L-4.24 11.12 L-5.232 11.1 L-6.225 11.07 L-7.217 11.05 L-8.21 11.03 L-9.202 11 L-10.19 10.98 L-11.19 10.96 L-12.18 10.94 L-13.17 10.91 L-14.16 10.89 L-14.14 9.898 L-14.12 8.906 L-14.1 7.914 L-14.07 6.921 L-14.05 5.929 L-14.03 4.937 L-14 3.944 L-13.98 2.952 L-13.96 1.96 L-13.94 0.9672 L-13.91 -0.02511 L-13.89 -1.017 L-13.87 -2.01 L-13.84 -3.002 L-13.82 -3.994 L-13.8 -4.987 L-13.78 -5.979 L-13.75 -6.972 L-13.73 -7.964 L-13.71 -8.956 L-13.69 -9.949 L-13.66 -10.94 L-13.64 -11.93 L-13.62 -12.93 L-13.59 -13.92 L-12.6 -13.9 L-11.61 -13.87 L-10.62 -13.85 L-9.625 -13.83 L-8.633 -13.8 L-7.64 -13.78 L-6.648 -13.76 L-5.656 -13.74 L-4.663 -13.71 L-3.671 -13.69 L-2.679 -13.67 L-1.686 -13.64 L-0.694 -13.62 L0.2984 -13.6 L1.291 -13.58 L2.283 -13.55 L3.275 -13.53 L4.268 -13.51 L5.26 -13.49 L6.252 -13.46 L7.245 -13.44 L8.237 -13.42 L9.229 -13.39 L10.22 -13.37 L11.21 -13.35 Z " />
<path stroke="rgb(0,0,0)" stroke-opacity="1" fill="rgb(255,255,255)" fill-opacity="1" d="M302.4 187 L303.5 187.2 L304.5 187.5 L305.5 187.9 L306.4 188.3 L307.4 188.9 L308.2 189.5 L309.1 190.1 L309.8 190.9 L310.5 191.6 L311.2 192.5 L311.8 193.4 L312.3 194.3 L312.7 195.3 L313 196.3 L313.3 197.3 L313.5 198.3 L313.6 199.4 L313.6 200.5 L313.5 201.5 L313.4 202.6 L313.2 203.6 L312.8 204.6 L312.5 205.6 L312 206.5 L311.4 207.5 L310.8 208.3 L310.1 209.1 L309.4 209.9 L308.6 210.6 L307.7 211.2 L306.8 211.8 L305.9 212.2 L304.9 212.7 L303.9 213 L302.9 213.2 L301.8 213.4 L300.8 213.5 L299.7 213.5 L298.7 213.4 L297.6 213.2 L296.6 213 L295.6 212.6 L294.6 212.2 L293.7 211.7 L292.8 211.2 L291.9 210.5 L291.1 209.8 L290.4 209.1 L289.7 208.3 L289.1 207.4 L288.6 206.5 L288.1 205.5 L287.7 204.6 L287.4 203.5 L287.2 202.5 L287 201.5 L287 200.4 L287 199.3 L287.1 198.3 L287.3 197.2 L287.6 196.2 L287.9 195.2 L288.3 194.3 L288.9 193.3 L289.4 192.4 L290.1 191.6 L290.8 190.8 L291.6 190.1 L292.4 189.4 L293.3 188.8 L294.2 188.3 L295.2 187.9 L296.1 187.5 L297.2 187.2 L298.2 187 L299.3 186.9 L300.3 186.8 L301.4 186.9 L302.4 187 Z " />
<path stroke="rgb(0,0,0)" stroke-opacity="1" fill="rgb(255,255,255)" fill-opacity="1" d="M-502.3 74.02 L-502.6 74.98 L-502.9 75.93 L-503.2 76.89 L-503.4 77.84 L-503.7 78.79 L-504 79.75 L-504.2 80.7 L-504.5 81.66 L-504.8 82.61 L-505.1 83.57 L-505.3 84.52 L-505.6 85.48 L-505.9 86.43 L-506.1 87.39 L-506.4 88.34 L-506.7 89.3 L-507 90.25 L-507.2 91.2 L-507.5 92.16 L-507.8 93.11 L-508 94.07 L-508.3 95.02 L-508.6 95.98 L-508.9 96.93 L-509.1 97.89 L-510.1 97.62 L-511 97.34 L-512 97.07 L-513 96.8 L-513.9 96.53 L-514.9 96.26 L-515.8 95.99 L-516.8 95.72 L-517.7 95.44 L-518.7 95.17 L-519.6 94.9 L-520.6 94.63 L-521.5 94.36 L-522.5 94.09 L-523.5 93.82 L-524.4 93.54 L-525.4 93.27 L-526.3 93 L-527.3 92.73 L-528.2 92.46 L-529.2 92.19 L-530.1 91.92 L-531.1 91.64 L-532 91.37 L-533 91.1 L-532.7 90.15 L-532.5 89.19 L-532.2 88.24 L-531.9 87.28 L-531.6 86.33 L-531.4 85.37 L-531.1 84.42 L-530.8 83.47 L-530.6 82.51 L-530.3 81.56 L-530 80.6 L-529.7 79.65 L-529.5 78.69 L-529.2 77.74 L-528.9 76.78 L-528.7 75.83 L-528.4 74.87 L-528.1 73.92 L-527.8 72.97 L-527.6 72.01 L-527.3 71.06 L-527 70.1 L-526.8 69.15 L-526.5 68.19 L-526.2 67.24 L-525.3 67.51 L-524.3 67.78 L-523.4 68.05 L-522.4 68.32 L-521.4 68.59 L-520.5 68.87 L-519.5 69.14 L-518.6 69.41 L-517.6 69.68 L-516.7 69.95 L-515.7 70.22 L-514.8 70.49 L-513.8 70.77 L-512.9 71.04 L-511.9 71.31 L-510.9 71.58 L-510 71.85 L-509 72.12 L-508.1 72.39 L-507.1 72.67 L-506.2 72.94 L-505.2 73.21 L-504.3 73.48 L-503.3 73.75 L-502.3 74.02 Z " />
<path stroke="rgb(0,0,0)" stroke-opacity="1" fill="rgb(255,255,255)" fill-opacity="1" d="M-199.6 287.7 L-198.6 287.8 L-197.6 287.9 L-196.7 288.1 L-195.7 288.4 L-194.8 288.7 L-193.9 289.1 L-193.1 289.6 L-192.2 290.2 L-191.5 290.8 L-190.8 291.5 L-190.1 292.2 L-189.5 293 L-189 293.9 L-188.5 294.7 L-188.1 295.6 L-187.8 296.6 L-187.5 297.5 L-187.4 298.5 L-187.3 299.5 L-187.3 300.5 L-187.3 301.5 L-187.5 302.4 L-187.7 303.4 L-188 304.4 L-188.3 305.3 L-188.8 306.2 L-189.3 307 L-189.9 307.8 L-190.5 308.6 L-191.2 309.3 L-192 309.9 L-192.8 310.5 L-193.6 311 L-194.5 311.5 L-195.4 311.8 L-196.3 312.1 L-197.3 312.4 L-198.3 312.5 L-199.3 312.6 L-200.3 312.6 L-201.2 312.5 L-202.2 312.3 L-203.2 312.1 L-204.1 311.8 L-205 311.4 L-205.9 310.9 L-206.7 310.4 L-207.5 309.8 L-208.3 309.2 L-209 308.4 L-209.6 307.7 L-210.2 306.9 L-210.7 306 L-211.1 305.1 L-211.4 304.2 L-211.7 303.3 L-211.9 302.3 L-212.1 301.3 L-212.1 300.3 L-212.1 299.3 L-212 298.4 L-211.8 297.4 L-211.6 296.4 L-211.2 295.5 L-210.8 294.6 L-210.3 293.7 L-209.8 292.9 L-209.2 292.1 L-208.5 291.4 L-207.8 290.7 L-207 290.1 L-206.2 289.6 L-205.3 289.1 L-204.4 288.7 L-203.5 288.3 L-202.6 288.1 L-201.6 287.9 L-200.6 287.7 L-199.6 287.7 Z " />
<path stroke="rgb(0,0,0)" stroke-opacity="1" fill="rgb(255,255,255)" fill-opacity="1" d="M-292.7 82.82 L-292.8 83.8 L-292.9 84.79 L-293 85.78 L-293.1 86.77 L-293.2 87.75 L-293.3 88.74 L-293.4 89.73 L-293.5 90.72 L-293.6 91.71 L-293.7 92.69 L-293.8 93.68 L-293.9 94.67 L-294 95.66 L-294.1 96.64 L-294.2 97.63 L-294.3 98.62 L-294.4 99.61 L-294.5 100.6 L-294.6 101.6 L-294.7 102.6 L-294.8 103.6 L-294.9 104.5 L-295 105.5 L-295.1 106.5 L-295.2 107.5 L-296.2 107.4 L-297.2 107.3 L-298.1 107.2 L-299.1 107.1 L-300.1 107 L-301.1 106.9 L-302.1 106.8 L-303.1 106.7 L-304.1 106.6 L-305.1 106.5 L-306 106.4 L-307 106.3 L-308 106.2 L-309 106.1 L-310 106 L-311 105.9 L-312 105.8 L-313 105.7 L-313.9 105.7 L-314.9 105.6 L-315.9 105.5 L-316.9 105.4 L-317.9 105.3 L-318.9 105.2 L-319.9 105.1 L-319.8 104.1 L-319.7 103.1 L-319.6 102.1 L-319.5 101.1 L-319.4 100.1 L-319.3 99.14 L-319.2 98.15 L-319.1 97.16 L-319 96.18 L-318.9 95.19 L-318.8 94.2 L-318.7 93.21 L-318.6 92.22 L-318.5 91.24 L-318.4 90.25 L-318.3 89.26 L-318.2 88.27 L-318.1 87.29 L-318 86.3 L-317.9 85.31 L-317.8 84.32 L-317.7 83.33 L-317.6 82.35 L-317.5 81.36 L-317.4 80.37 L-316.4 80.47 L-315.5 80.57 L-314.5 80.66 L-313.5 80.76 L-312.5 80.86 L-311.5 80.96 L-310.5 81.06 L-309.5 81.15 L-308.5 81.25 L-307.6 81.35 L-306.6 81.45 L-305.6 81.54 L-304.6 81.64 L-303.6 81.74 L-302.6 81.84 L-301.6 81.94 L-300.6 82.03 L-299.6 82.13 L-298.7 82.23 L-297.7 82.33 L-296.7 82.42 L-295.7 82.52 L-294.7 82.62 L-293.7 82.72 L-292.7 82.82 Z " />
<path stroke="rgb(0,0,0)" stroke-opacity="1" fill="rgb(255,255,255)" fill-opacity="1" d="M0.3851 287.7 L1.373 287.8 L2.355 287.9 L3.323 288.1 L4.273 288.4 L5.197 288.7 L6.091 289.1 L6.948 289.6 L7.763 290.2 L8.53 290.8 L9.246 291.5 L9.906 292.2 L10.5 293 L11.04 293.9 L11.51 294.7 L11.9 295.6 L12.22 296.6 L12.47 297.5 L12.64 298.5 L12.73 299.5 L12.75 300.5 L12.68 301.5 L12.54 302.4 L12.32 303.4 L12.02 304.4 L11.65 305.3 L11.21 306.2 L10.7 307 L10.12 307.8 L9.485 308.6 L8.788 309.3 L8.038 309.9 L7.239 310.5 L6.396 311 L5.515 311.5 L4.601 311.8 L3.659 312.1 L2.697 312.4 L1.719 312.5 L0.7327 312.6 L-0.2565 312.6 L-1.242 312.5 L-2.218 312.3 L-3.177 312.1 L-4.115 311.8 L-5.025 311.4 L-5.901 310.9 L-6.737 310.4 L-7.53 309.8 L-8.272 309.2 L-8.96 308.4 L-9.59 307.7 L-10.16 306.9 L-10.66 306 L-11.09 305.1 L-11.45 304.2 L-11.73 303.3 L-11.94 302.3 L-12.07 301.3 L-12.13 300.3 L-12.1 299.3 L-12 298.4 L-11.82 297.4 L-11.56 296.4 L-11.22 295.5 L-10.82 294.6 L-10.34 293.7 L-9.796 292.9 L-9.188 292.1 L-8.52 291.4 L-7.796 290.7 L-7.021 290.1 L-6.199 289.6 L-5.337 289.1 L-4.438 288.7 L-3.51 288.3 L-2.557 288.1 L-1.586 287.9 L-0.6034 287.7 L0.3851 287.7 Z " />
<path stroke="rgb(0,0,0)" stroke-opacity="1" fill="rgb(255,255,255)" fill-opacity="1" d="M-88.79 86.65 L-88.81 87.64 L-88.83 88.64 L-88.85 89.63 L-88.88 90.62 L-88.9 91.61 L-88.92 92.61 L-88.95 93.6 L-88.97 94.59 L-88.99 95.58 L-89.01 96.57 L-89.04 97.57 L-89.06 98.56 L-89.08 99.55 L-89.1 100.5 L-89.13 101.5 L-89.15 102.5 L-89.17 103.5 L-89.2 104.5 L-89.22 105.5 L-89.24 106.5 L-89.26 107.5 L-89.29 108.5 L-89.31 109.5 L-89.33 110.5 L-89.35 111.5 L-90.35 111.4 L-91.34 111.4 L-92.33 111.4 L-93.32 111.4 L-94.32 111.3 L-95.31 111.3 L-96.3 111.3 L-97.29 111.3 L-98.29 111.3 L-99.28 111.2 L-100.3 111.2 L-101.3 111.2 L-102.3 111.2 L-103.2 111.1 L-104.2 111.1 L-105.2 111.1 L-106.2 111.1 L-107.2 111.1 L-108.2 111 L-109.2 111 L-110.2 111 L-111.2 111 L-112.2 110.9 L-113.2 110.9 L-114.2 110.9 L-114.1 109.9 L-114.1 108.9 L-114.1 107.9 L-114.1 106.9 L-114 105.9 L-114 104.9 L-114 103.9 L-114 103 L-114 102 L-113.9 101 L-113.9 99.97 L-113.9 98.98 L-113.9 97.99 L-113.8 97 L-113.8 96.01 L-113.8 95.01 L-113.8 94.02 L-113.8 93.03 L-113.7 92.04 L-113.7 91.04 L-113.7 90.05 L-113.7 89.06 L-113.6 88.07 L-113.6 87.07 L-113.6 86.08 L-112.6 86.1 L-111.6 86.13 L-110.6 86.15 L-109.6 86.17 L-108.6 86.2 L-107.6 86.22 L-106.6 86.24 L-105.7 86.26 L-104.7 86.29 L-103.7 86.31 L-102.7 86.33 L-101.7 86.36 L-100.7 86.38 L-99.7 86.4 L-98.71 86.42 L-97.72 86.45 L-96.72 86.47 L-95.73 86.49 L-94.74 86.51 L-93.75 86.54 L-92.76 86.56 L-91.76 86.58 L-90.77 86.61 L-89.78 86.63 L-88.79 86.65 Z " />
<path stroke="rgb(0,0,0)" stroke-opacity="1" fill="rgb(255,255,255)" fill-opacity="1" d="M202.4 287 L203.5 287.2 L204.5 287.5 L205.5 287.9 L206.4 288.3 L207.4 288.9 L208.2 289.5 L209.1 290.1 L209.8 290.9 L210.5 291.6 L211.2 292.5 L211.8 293.4 L212.3 294.3 L212.7 295.3 L213 296.3 L213.3 297.3 L213.5 298.3 L213.6 299.4 L213.6 300.5 L213.5 301.5 L213.4 302.6 L213.2 303.6 L212.8 304.6 L212.5 305.6 L212 306.5 L211.4 307.5 L210.8 308.3 L210.1 309.1 L209.4 309.9 L208.6 310.6 L207.7 311.2 L206.8 311.8 L205.9 312.2 L204.9 312.7 L203.9 313 L202.9 313.2 L201.8 313.4 L200.8 313.5 L199.7 313.5 L198.7 313.4 L197.6 313.2 L196.6 313 L195.6 312.6 L194.6 312.2 L193.7 311.7 L192.8 311.2 L191.9 310.5 L191.1 309.8 L190.4 309.1 L189.7 308.3 L189.1 307.4 L188.6 306.5 L188.1 305.5 L187.7 304.6 L187.4 303.5 L187.2 302.5 L187 301.5 L187 300.4 L187 299.3 L187.1 298.3 L187.3 297.2 L187.6 296.2 L187.9 295.2 L188.3 294.3 L188.9 293.3 L189.4 292.4 L190.1 291.6 L190.8 290.8 L191.6 290.1 L192.4 289.4 L193.3 288.8 L194.2 288.3 L195.2 287.9 L196.1 287.5 L197.2 287.2 L198.2 287 L199.3 286.9 L200.3 286.8 L201.4 286.9 L202.4 287 Z " />
<path stroke="rgb(0,0,0)" stroke-opacity="1" fill="rgb(255,255,255)" fill-opacity="1" d="M112.1 87.53 L112.1 88.52 L112.1 89.51 L112.1 90.5 L112.1 91.5 L112.1 92.49 L112.1 93.48 L112.1 94.47 L112 95.47 L112 96.46 L112 97.45 L112 98.45 L112 99.44 L112 100.4 L112 101.4 L112 102.4 L112 103.4 L112 104.4 L112 105.4 L112 106.4 L112 107.4 L112 108.4 L112 109.4 L112 110.4 L112 111.3 L112 112.3 L111 112.3 L110 112.3 L109 112.3 L108 112.3 L107 112.3 L106 112.3 L105 112.3 L104 112.3 L103 112.3 L102 112.3 L101 112.3 L100 112.3 L99.05 112.3 L98.05 112.3 L97.06 112.3 L96.07 112.2 L95.08 112.2 L94.08 112.2 L93.09 112.2 L92.1 112.2 L91.11 112.2 L90.11 112.2 L89.12 112.2 L88.13 112.2 L87.14 112.2 L87.14 111.2 L87.15 110.2 L87.15 109.2 L87.16 108.2 L87.16 107.2 L87.17 106.2 L87.18 105.2 L87.18 104.3 L87.19 103.3 L87.19 102.3 L87.2 101.3 L87.21 100.3 L87.21 99.29 L87.22 98.3 L87.22 97.31 L87.23 96.32 L87.23 95.32 L87.24 94.33 L87.25 93.34 L87.25 92.34 L87.26 91.35 L87.26 90.36 L87.27 89.37 L87.28 88.37 L87.28 87.38 L88.27 87.39 L89.27 87.39 L90.26 87.4 L91.25 87.4 L92.24 87.41 L93.24 87.42 L94.23 87.42 L95.22 87.43 L96.21 87.43 L97.21 87.44 L98.2 87.45 L99.19 87.45 L100.2 87.46 L101.2 87.46 L102.2 87.47 L103.2 87.47 L104.2 87.48 L105.1 87.49 L106.1 87.49 L107.1 87.5 L108.1 87.5 L109.1 87.51 L110.1 87.51 L111.1 87.52 L112.1 87.53 Z " />
</g>
</g>
</svg>
