<!DOCTYPE svg>
<svg xmlns="http://www.w3.org/2000/svg" xmlns:xlink="http://www.w3.org/1999/xlink" width="560" height="560">
<g transform="translate(280.000000,280.000000)">
<g transform="scale(3.000000,3.000000)">
<path stroke="rgb(0,0,0)" stroke-opacity="1" fill="rgb(255,255,255)" fill-opacity="1" d="M-875.2 -878.8 L-877.1 -878.6 L-878.9 -878.5 L-880.8 -878.3 L-882.7 -878.2 L-884.6 -878 L-886.5 -877.9 L-888.3 -877.7 L-890.2 -877.6 L-892.1 -877.5 L-894 -877.3 L-895.9 -877.2 L-897.7 -877 L-899.6 -876.9 L-901.5 -876.7 L-903.4 -876.6 L-905.3 -876.4 L-907.1 -876.3 L-909 -876.2 L-910.9 -876 L-912.8 -875.9 L-914.7 -875.7 L-916.5 -875.6 L-918.4 -875.4 L-920.3 -875.3 L-922.2 -875.1 L-922.3 -877 L-922.5 -878.9 L-922.6 -880.8 L-922.8 -882.7 L-922.9 -884.5 L-923 -886.4 L-923.2 -888.3 L-923.3 -890.2 L-923.5 -892.1 L-923.6 -893.9 L-923.8 -895.8 L-923.9 -897.7 L-924.1 -899.6 L-924.2 -901.5 L-924.3 -903.3 L-924.5 -905.2 L-924.6 -907.1 L-924.8 -909 L-924.9 -910.9 L-925.1 -912.7 L-925.2 -914.6 L-925.4 -916.5 L-925.5 -918.4 L-925.6 -920.3 L-925.8 -922.1 L-923.9 -922.3 L-922 -922.4 L-920.1 -922.6 L-918.3 -922.7 L-916.4 -922.9 L-914.5 -923 L-912.6 -923.2 L-910.7 -923.3 L-908.9 -923.4 L-907 -923.6 L-905.1 -923.7 L-903.2 -923.9 L-901.3 -924 L-899.5 -924.2 L-897.6 -924.3 L-895.7 -924.5 L-893.8 -924.6 L-891.9 -924.7 L-890.1 -924.9 L-888.2 -925 L-886.3 -925.2 L-884.4 -925.3 L-882.5 -925.5 L-880.7 -925.6 L-878.8 -925.8 L-878.6 -923.9 L-878.5 -922 L-878.4 -920.1 L-878.2 -918.2 L-878.1 -916.4 L-877.9 -914.5 L-877.8 -912.6 L-877.6 -910.7 L-877.5 -908.8 L-877.3 -907 L-877.2 -905.1 L-877.1 -903.2 L-876.9 -901.3 L-876.8 -899.4 L-876.6 -897.6 L-876.5 -895.7 L-876.3 -893.8 L-876.2 -891.9 L-876 -890 L-875.9 -888.2 L-875.8 -886.3 L-875.6 -884.4 L-875.5 -882.5 L-875.3 -880.6 L-875.2 -878.8 Z " />
<path stroke="rgb(0,0,0)" stroke-opacity="0.0759" fill="rgb(255,255,255)" fill-opacity="1" d="M-175.4 -300 L-175.4 -298 L-175.7 -296.1 L-176.1 -294.2 L-176.6 -292.3 L-177.3 -290.5 L-178.1 -288.7 L-179.1 -287 L-180.2 -285.4 L-181.4 -283.8 L-182.8 -282.4 L-184.2 -281.1 L-185.8 -279.9 L-187.4 -278.8 L-189.1 -277.9 L-190.9 -277.1 L-192.8 -276.5 L-194.7 -276 L-196.6 -275.6 L-198.5 -275.4 L-200.5 -275.4 L-202.4 -275.5 L-204.4 -275.8 L-206.3 -276.2 L-208.2 -276.8 L-210 -277.5 L-211.7 -278.3 L-213.4 -279.4 L-215 -280.5 L-216.5 -281.7 L-217.9 -283.1 L-219.2 -284.6 L-220.4 -286.2 L-221.4 -287.8 L-222.3 -289.6 L-223.1 -291.4 L-223.7 -293.2 L-224.1 -295.1 L-224.5 -297.1 L-224.6 -299 L-224.6 -301 L-224.5 -302.9 L-224.1 -304.9 L-223.7 -306.8 L-223.1 -308.6 L-222.3 -310.4 L-221.4 -312.2 L-220.4 -313.8 L-219.2 -315.4 L-217.9 -316.9 L-216.5 -318.3 L-215 -319.5 L-213.4 -320.6 L-211.7 -321.7 L-210 -322.5 L-208.2 -323.2 L-206.3 -323.8 L-204.4 -324.2 L-202.4 -324.5 L-200.5 -324.6 L-198.5 -324.6 L-196.6 -324.4 L-194.7 -324 L-192.8 -323.5 L-190.9 -322.9 L-189.1 -322.1 L-187.4 -321.2 L-185.8 -320.1 L-184.2 -318.9 L-182.8 -317.6 L-181.4 -316.2 L-180.2 -314.6 L-179.1 -313 L-178.1 -311.3 L-177.3 -309.5 L-176.6 -307.7 L-176.1 -305.8 L-175.7 -303.9 L-175.4 -302 L-175.4 -300 Z " />
<path stroke="rgb(0,0,0)" stroke-opacity="1" fill="rgb(255,255,255)" fill-opacity="1" d="M-676.3 -875.7 L-678.2 -875.7 L-680.2 -875.7 L-682.1 -875.8 L-684.1 -875.8 L-686.1 -875.8 L-688 -875.8 L-690 -875.9 L-691.9 -875.9 L-693.9 -875.9 L-695.9 -875.9 L-697.8 -875.9 L-699.8 -876 L-701.7 -876 L-703.7 -876 L-705.7 -876 L-707.6 -876.1 L-709.6 -876.1 L-711.5 -876.1 L-713.5 -876.1 L-715.5 -876.1 L-717.4 -876.2 L-719.4 -876.2 L-721.3 -876.2 L-723.3 -876.2 L-725.3 -876.3 L-725.2 -878.2 L-725.2 -880.2 L-725.2 -882.1 L-725.2 -884.1 L-725.1 -886.1 L-725.1 -888 L-725.1 -890 L-725.1 -891.9 L-725.1 -893.9 L-725 -895.9 L-725 -897.8 L-725 -899.8 L-725 -901.7 L-724.9 -903.7 L-724.9 -905.7 L-724.9 -907.6 L-724.9 -909.6 L-724.9 -911.5 L-724.8 -913.5 L-724.8 -915.5 L-724.8 -917.4 L-724.8 -919.4 L-724.7 -921.3 L-724.7 -923.3 L-724.7 -925.3 L-722.7 -925.2 L-720.8 -925.2 L-718.8 -925.2 L-716.9 -925.2 L-714.9 -925.2 L-712.9 -925.1 L-711 -925.1 L-709 -925.1 L-707.1 -925.1 L-705.1 -925 L-703.1 -925 L-701.2 -925 L-699.2 -925 L-697.3 -924.9 L-695.3 -924.9 L-693.3 -924.9 L-691.4 -924.9 L-689.4 -924.9 L-687.5 -924.8 L-685.5 -924.8 L-683.5 -924.8 L-681.6 -924.8 L-679.6 -924.7 L-677.7 -924.7 L-675.7 -924.7 L-675.7 -922.7 L-675.7 -920.8 L-675.8 -918.8 L-675.8 -916.9 L-675.8 -914.9 L-675.8 -912.9 L-675.8 -911 L-675.9 -909 L-675.9 -907.1 L-675.9 -905.1 L-675.9 -903.1 L-676 -901.2 L-676 -899.2 L-676 -897.3 L-676 -895.3 L-676.1 -893.3 L-676.1 -891.4 L-676.1 -889.4 L-676.1 -887.5 L-676.1 -885.5 L-676.2 -883.5 L-676.2 -881.6 L-676.2 -879.6 L-676.2 -877.7 L-676.3 -875.7 Z " />
<path stroke="rgb(0,0,0)" stroke-opacity="0.0759" fill="rgb(255,255,255)" fill-opacity="1" d="M24.64 -300 L24.56 -298 L24.32 -296.1 L23.94 -294.2 L23.4 -292.3 L22.71 -290.5 L21.88 -288.7 L20.92 -287 L19.82 -285.4 L18.59 -283.8 L17.25 -282.4 L15.8 -281.1 L14.24 -279.9 L12.6 -278.8 L10.88 -277.9 L9.09 -277.1 L7.242 -276.5 L5.349 -276 L3.422 -275.6 L1.473 -275.4 L-0.4851 -275.4 L-2.44 -275.5 L-4.38 -275.8 L-6.291 -276.2 L-8.164 -276.8 L-9.984 -277.5 L-11.74 -278.3 L-13.42 -279.4 L-15.02 -280.5 L-16.53 -281.7 L-17.92 -283.1 L-19.21 -284.6 L-20.37 -286.2 L-21.41 -287.8 L-22.31 -289.6 L-23.07 -291.4 L-23.68 -293.2 L-24.14 -295.1 L-24.45 -297.1 L-24.61 -299 L-24.61 -301 L-24.45 -302.9 L-24.14 -304.9 L-23.68 -306.8 L-23.07 -308.6 L-22.31 -310.4 L-21.41 -312.2 L-20.37 -313.8 L-19.21 -315.4 L-17.92 -316.9 L-16.53 -318.3 L-15.02 -319.5 L-13.42 -320.6 L-11.74 -321.7 L-9.984 -322.5 L-8.164 -323.2 L-6.291 -323.8 L-4.38 -324.2 L-2.44 -324.5 L-0.4851 -324.6 L1.473 -324.6 L3.422 -324.4 L5.349 -324 L7.242 -323.5 L9.09 -322.9 L10.88 -322.1 L12.6 -321.2 L14.24 -320.1 L15.8 -318.9 L17.25 -317.6 L18.59 -316.2 L19.82 -314.6 L20.92 -313 L21.88 -311.3 L22.71 -309.5 L23.4 -307.7 L23.94 -305.8 L24.32 -303.9 L24.56 -302 L24.64 -300 Z " />
<path stroke="rgb(0,0,0)" stroke-opacity="1" fill="rgb(255,255,255)" fill-opacity="1" d="M-476.3 -875.6 L-478.2 -875.7 L-480.2 -875.7 L-482.2 -875.7 L-484.1 -875.7 L-486.1 -875.8 L-488 -875.8 L-490 -875.8 L-492 -875.9 L-493.9 -875.9 L-495.9 -875.9 L-497.8 -875.9 L-499.8 -876 L-501.8 -876 L-503.7 -876 L-505.7 -876 L-507.7 -876.1 L-509.6 -876.1 L-511.6 -876.1 L-513.5 -876.1 L-515.5 -876.2 L-517.5 -876.2 L-519.4 -876.2 L-521.4 -876.2 L-523.3 -876.3 L-525.3 -876.3 L-525.3 -878.2 L-525.3 -880.2 L-525.2 -882.2 L-525.2 -884.1 L-525.2 -886.1 L-525.2 -888 L-525.1 -890 L-525.1 -892 L-525.1 -893.9 L-525.1 -895.9 L-525 -897.9 L-525 -899.8 L-525 -901.8 L-525 -903.7 L-524.9 -905.7 L-524.9 -907.7 L-524.9 -909.6 L-524.9 -911.6 L-524.8 -913.5 L-524.8 -915.5 L-524.8 -917.5 L-524.8 -919.4 L-524.7 -921.4 L-524.7 -923.4 L-524.7 -925.3 L-522.7 -925.3 L-520.8 -925.3 L-518.8 -925.2 L-516.8 -925.2 L-514.9 -925.2 L-512.9 -925.2 L-510.9 -925.1 L-509 -925.1 L-507 -925.1 L-505.1 -925.1 L-503.1 -925 L-501.1 -925 L-499.2 -925 L-497.2 -925 L-495.3 -924.9 L-493.3 -924.9 L-491.3 -924.9 L-489.4 -924.9 L-487.4 -924.8 L-485.4 -924.8 L-483.5 -924.8 L-481.5 -924.8 L-479.6 -924.7 L-477.6 -924.7 L-475.6 -924.7 L-475.7 -922.7 L-475.7 -920.8 L-475.7 -918.8 L-475.7 -916.8 L-475.8 -914.9 L-475.8 -912.9 L-475.8 -911 L-475.8 -909 L-475.9 -907 L-475.9 -905.1 L-475.9 -903.1 L-475.9 -901.1 L-476 -899.2 L-476 -897.2 L-476 -895.3 L-476 -893.3 L-476.1 -891.3 L-476.1 -889.4 L-476.1 -887.4 L-476.1 -885.5 L-476.2 -883.5 L-476.2 -881.5 L-476.2 -879.6 L-476.2 -877.6 L-476.3 -875.6 Z " />
<path stroke="rgb(0,0,0)" stroke-opacity="0.0759" fill="rgb(255,255,255)" fill-opacity="1" d="M224.6 -300 L224.6 -298 L224.3 -296.1 L223.9 -294.2 L223.4 -292.3 L222.7 -290.5 L221.9 -288.7 L220.9 -287 L219.8 -285.4 L218.6 -283.8 L217.2 -282.4 L215.8 -281.1 L214.2 -279.9 L212.6 -278.8 L210.9 -277.9 L209.1 -277.1 L207.2 -276.5 L205.3 -276 L203.4 -275.6 L201.5 -275.4 L199.5 -275.4 L197.6 -275.5 L195.6 -275.8 L193.7 -276.2 L191.8 -276.8 L190 -277.5 L188.3 -278.3 L186.6 -279.4 L185 -280.5 L183.5 -281.7 L182.1 -283.1 L180.8 -284.6 L179.6 -286.2 L178.6 -287.8 L177.7 -289.6 L176.9 -291.4 L176.3 -293.2 L175.9 -295.1 L175.5 -297.1 L175.4 -299 L175.4 -301 L175.5 -302.9 L175.9 -304.9 L176.3 -306.8 L176.9 -308.6 L177.7 -310.4 L178.6 -312.2 L179.6 -313.8 L180.8 -315.4 L182.1 -316.9 L183.5 -318.3 L185 -319.5 L186.6 -320.6 L188.3 -321.7 L190 -322.5 L191.8 -323.2 L193.7 -323.8 L195.6 -324.2 L197.6 -324.5 L199.5 -324.6 L201.5 -324.6 L203.4 -324.4 L205.3 -324 L207.2 -323.5 L209.1 -322.9 L210.9 -322.1 L212.6 -321.2 L214.2 -320.1 L215.8 -318.9 L217.2 -317.6 L218.6 -316.2 L219.8 -314.6 L220.9 -313 L221.9 -311.3 L222.7 -309.5 L223.4 -307.7 L223.9 -305.8 L224.3 -303.9 L224.6 -302 L224.6 -300 Z " />
<path stroke="rgb(0,0,0)" stroke-opacity="1" fill="rgb(255,255,255)" fill-opacity="1" d="M-276.3 -875.6 L-278.2 -875.7 L-280.2 -875.7 L-282.2 -875.7 L-284.1 -875.7 L-286.1 -875.8 L-288 -875.8 L-290 -875.8 L-292 -875.9 L-293.9 -875.9 L-295.9 -875.9 L-297.8 -875.9 L-299.8 -876 L-301.8 -876 L-303.7 -876 L-305.7 -876 L-307.7 -876.1 L-309.6 -876.1 L-311.6 -876.1 L-313.5 -876.1 L-315.5 -876.2 L-317.5 -876.2 L-319.4 -876.2 L-321.4 -876.2 L-323.3 -876.3 L-325.3 -876.3 L-325.3 -878.2 L-325.3 -880.2 L-325.2 -882.2 L-325.2 -884.1 L-325.2 -886.1 L-325.2 -888 L-325.1 -890 L-325.1 -892 L-325.1 -893.9 L-325.1 -895.9 L-325 -897.9 L-325 -899.8 L-325 -901.8 L-325 -903.7 L-324.9 -905.7 L-324.9 -907.7 L-324.9 -909.6 L-324.9 -911.6 L-324.8 -913.5 L-324.8 -915.5 L-324.8 -917.5 L-324.8 -919.4 L-324.7 -921.4 L-324.7 -923.4 L-324.7 -925.3 L-322.7 -925.3 L-320.8 -925.3 L-318.8 -925.2 L-316.8 -925.2 L-314.9 -925.2 L-312.9 -925.2 L-310.9 -925.1 L-309 -925.1 L-307 -925.1 L-305.1 -925.1 L-303.1 -925 L-301.1 -925 L-299.2 -925 L-297.2 -925 L-295.3 -924.9 L-293.3 -924.9 L-291.3 -924.9 L-289.4 -924.9 L-287.4 -924.8 L-285.4 -924.8 L-283.5 -924.8 L-281.5 -924.8 L-279.6 -924.7 L-277.6 -924.7 L-275.6 -924.7 L-275.7 -922.7 L-275.7 -920.8 L-275.7 -918.8 L-275.7 -916.8 L-275.8 -914.9 L-275.8 -912.9 L-275.8 -911 L-275.8 -909 L-275.9 -907 L-275.9 -905.1 L-275.9 -903.1 L-275.9 -901.1 L-276 -899.2 L-276 -897.2 L-276 -895.3 L-276 -893.3 L-276.1 -891.3 L-276.1 -889.4 L-276.1 -887.4 L-276.1 -885.5 L-276.2 -883.5 L-276.2 -881.5 L-276.2 -879.6 L-276.2 -877.6 L-276.3 -875.6 Z " />
<path stroke="rgb(0,0,0)" stroke-opacity="0.0759" fill="rgb(255,255,255)" fill-opacity="1" d="M-275.4 -200 L-275.4 -198 L-275.7 -196.1 L-276.1 -194.2 L-276.6 -192.3 L-277.3 -190.5 L-278.1 -188.7 L-279.1 -187 L-280.2 -185.4 L-281.4 -183.8 L-282.8 -182.4 L-284.2 -181.1 L-285.8 -179.9 L-287.4 -178.8 L-289.1 -177.9 L-290.9 -177.1 L-292.8 -176.5 L-294.7 -176 L-296.6 -175.6 L-298.5 -175.4 L-300.5 -175.4 L-302.4 -175.5 L-304.4 -175.8 L-306.3 -176.2 L-308.2 -176.8 L-310 -177.5 L-311.7 -178.3 L-313.4 -179.4 L-315 -180.5 L-316.5 -181.7 L-317.9 -183.1 L-319.2 -184.6 L-320.4 -186.2 L-321.4 -187.8 L-322.3 -189.6 L-323.1 -191.4 L-323.7 -193.2 L-324.1 -195.1 L-324.5 -197.1 L-324.6 -199 L-324.6 -201 L-324.5 -202.9 L-324.1 -204.9 L-323.7 -206.8 L-323.1 -208.6 L-322.3 -210.4 L-321.4 -212.2 L-320.4 -213.8 L-319.2 -215.4 L-317.9 -216.9 L-316.5 -218.3 L-315 -219.5 L-313.4 -220.6 L-311.7 -221.7 L-310 -222.5 L-308.2 -223.2 L-306.3 -223.8 L-304.4 -224.2 L-302.4 -224.5 L-300.5 -224.6 L-298.5 -224.6 L-296.6 -224.4 L-294.7 -224 L-292.8 -223.5 L-290.9 -222.9 L-289.1 -222.1 L-287.4 -221.2 L-285.8 -220.1 L-284.2 -218.9 L-282.8 -217.6 L-281.4 -216.2 L-280.2 -214.6 L-279.1 -213 L-278.1 -211.3 L-277.3 -209.5 L-276.6 -207.7 L-276.1 -205.8 L-275.7 -203.9 L-275.4 -202 L-275.4 -200 Z " />
<path stroke="rgb(0,0,0)" stroke-opacity="1" fill="rgb(255,255,255)" fill-opacity="1" d="M-776.3 -775.7 L-778.2 -775.7 L-780.2 -775.7 L-782.1 -775.8 L-784.1 -775.8 L-786.1 -775.8 L-788 -775.8 L-790 -775.9 L-791.9 -775.9 L-793.9 -775.9 L-795.9 -775.9 L-797.8 -775.9 L-799.8 -776 L-801.7 -776 L-803.7 -776 L-805.7 -776 L-807.6 -776.1 L-809.6 -776.1 L-811.5 -776.1 L-813.5 -776.1 L-815.5 -776.1 L-817.4 -776.2 L-819.4 -776.2 L-821.3 -776.2 L-823.3 -776.2 L-825.3 -776.3 L-825.2 -778.2 L-825.2 -780.2 L-825.2 -782.1 L-825.2 -784.1 L-825.1 -786.1 L-825.1 -788 L-825.1 -790 L-825.1 -791.9 L-825.1 -793.9 L-825 -795.9 L-825 -797.8 L-825 -799.8 L-825 -801.7 L-824.9 -803.7 L-824.9 -805.7 L-824.9 -807.6 L-824.9 -809.6 L-824.9 -811.5 L-824.8 -813.5 L-824.8 -815.5 L-824.8 -817.4 L-824.8 -819.4 L-824.7 -821.3 L-824.7 -823.3 L-824.7 -825.3 L-822.7 -825.2 L-820.8 -825.2 L-818.8 -825.2 L-816.9 -825.2 L-814.9 -825.2 L-812.9 -825.1 L-811 -825.1 L-809 -825.1 L-807.1 -825.1 L-805.1 -825 L-803.1 -825 L-801.2 -825 L-799.2 -825 L-797.3 -824.9 L-795.3 -824.9 L-793.3 -824.9 L-791.4 -824.9 L-789.4 -824.9 L-787.5 -824.8 L-785.5 -824.8 L-783.5 -824.8 L-781.6 -824.8 L-779.6 -824.7 L-777.7 -824.7 L-775.7 -824.7 L-775.7 -822.7 L-775.7 -820.8 L-775.8 -818.8 L-775.8 -816.9 L-775.8 -814.9 L-775.8 -812.9 L-775.8 -811 L-775.9 -809 L-775.9 -807.1 L-775.9 -805.1 L-775.9 -803.1 L-776 -801.2 L-776 -799.2 L-776 -797.3 L-776 -795.3 L-776.1 -793.3 L-776.1 -791.4 L-776.1 -789.4 L-776.1 -787.5 L-776.1 -785.5 L-776.2 -783.5 L-776.2 -781.6 L-776.2 -779.6 L-776.2 -777.7 L-776.3 -775.7 Z " />
<path stroke="rgb(0,0,0)" stroke-opacity="0.0759" fill="rgb(255,255,255)" fill-opacity="1" d="M-75.36 -200 L-75.44 -198 L-75.68 -196.1 L-76.06 -194.2 L-76.6 -192.3 L-77.29 -190.5 L-78.12 -188.7 L-79.08 -187 L-80.18 -185.4 L-81.41 -183.8 L-82.75 -182.4 L-84.2 -181.1 L-85.76 -179.9 L-87.4 -178.8 L-89.12 -177.9 L-90.91 -177.1 L-92.76 -176.5 L-94.65 -176 L-96.58 -175.6 L-98.53 -175.4 L-100.5 -175.4 L-102.4 -175.5 L-104.4 -175.8 L-106.3 -176.2 L-108.2 -176.8 L-110 -177.5 L-111.7 -178.3 L-113.4 -179.4 L-115 -180.5 L-116.5 -181.7 L-117.9 -183.1 L-119.2 -184.6 L-120.4 -186.2 L-121.4 -187.8 L-122.3 -189.6 L-123.1 -191.4 L-123.7 -193.2 L-124.1 -195.1 L-124.5 -197.1 L-124.6 -199 L-124.6 -201 L-124.5 -202.9 L-124.1 -204.9 L-123.7 -206.8 L-123.1 -208.6 L-122.3 -210.4 L-121.4 -212.2 L-120.4 -213.8 L-119.2 -215.4 L-117.9 -216.9 L-116.5 -218.3 L-115 -219.5 L-113.4 -220.6 L-111.7 -221.7 L-110 -222.5 L-108.2 -223.2 L-106.3 -223.8 L-104.4 -224.2 L-102.4 -224.5 L-100.5 -224.6 L-98.53 -224.6 L-96.58 -224.4 L-94.65 -224 L-92.76 -223.5 L-90.91 -222.9 L-89.12 -222.1 L-87.4 -221.2 L-85.76 -220.1 L-84.2 -218.9 L-82.75 -217.6 L-81.41 -216.2 L-80.18 -214.6 L-79.08 -213 L-78.12 -211.3 L-77.29 -209.5 L-76.6 -207.7 L-76.06 -205.8 L-75.68 -203.9 L-75.44 -202 L-75.36 -200 Z " />
<path stroke="rgb(0,0,0)" stroke-opacity="1" fill="rgb(255,255,255)" fill-opacity="1" d="M-576.3 -775.6 L-578.2 -775.7 L-580.2 -775.7 L-582.2 -775.7 L-584.1 -775.7 L-586.1 -775.8 L-588 -775.8 L-590 -775.8 L-592 -775.9 L-593.9 -775.9 L-595.9 -775.9 L-597.8 -775.9 L-599.8 -776 L-601.8 -776 L-603.7 -776 L-605.7 -776 L-607.7 -776.1 L-609.6 -776.1 L-611.6 -776.1 L-613.5 -776.1 L-615.5 -776.2 L-617.5 -776.2 L-619.4 -776.2 L-621.4 -776.2 L-623.3 -776.3 L-625.3 -776.3 L-625.3 -778.2 L-625.3 -780.2 L-625.2 -782.2 L-625.2 -784.1 L-625.2 -786.1 L-625.2 -788 L-625.1 -790 L-625.1 -792 L-625.1 -793.9 L-625.1 -795.9 L-625 -797.9 L-625 -799.8 L-625 -801.8 L-625 -803.7 L-624.9 -805.7 L-624.9 -807.7 L-624.9 -809.6 L-624.9 -811.6 L-624.8 -813.5 L-624.8 -815.5 L-624.8 -817.5 L-624.8 -819.4 L-624.7 -821.4 L-624.7 -823.4 L-624.7 -825.3 L-622.7 -825.3 L-620.8 -825.3 L-618.8 -825.2 L-616.8 -825.2 L-614.9 -825.2 L-612.9 -825.2 L-610.9 -825.1 L-609 -825.1 L-607 -825.1 L-605.1 -825.1 L-603.1 -825 L-601.1 -825 L-599.2 -825 L-597.2 -825 L-595.3 -824.9 L-593.3 -824.9 L-591.3 -824.9 L-589.4 -824.9 L-587.4 -824.8 L-585.4 -824.8 L-583.5 -824.8 L-581.5 -824.8 L-579.6 -824.7 L-577.6 -824.7 L-575.6 -824.7 L-575.7 -822.7 L-575.7 -820.8 L-575.7 -818.8 L-575.7 -816.8 L-575.8 -814.9 L-575.8 -812.9 L-575.8 -811 L-575.8 -809 L-575.9 -807 L-575.9 -805.1 L-575.9 -803.1 L-575.9 -801.1 L-576 -799.2 L-576 -797.2 L-576 -795.3 L-576 -793.3 L-576.1 -791.3 L-576.1 -789.4 L-576.1 -787.4 L-576.1 -785.5 L-576.2 -783.5 L-576.2 -781.5 L-576.2 -779.6 L-576.2 -777.6 L-576.3 -775.6 Z " />
<path stroke="rgb(0,0,0)" stroke-opacity="0.0759" fill="rgb(255,255,255)" fill-opacity="1" d="M124.6 -200 L124.6 -198 L124.3 -196.1 L123.9 -194.2 L123.4 -192.3 L122.7 -190.5 L121.9 -188.7 L120.9 -187 L119.8 -185.4 L118.6 -183.8 L117.2 -182.4 L115.8 -181.1 L114.2 -179.9 L112.6 -178.8 L110.9 -177.9 L109.1 -177.1 L107.2 -176.5 L105.3 -176 L103.4 -175.6 L101.5 -175.4 L99.51 -175.4 L97.56 -175.5 L95.62 -175.8 L93.71 -176.2 L91.84 -176.8 L90.02 -177.5 L88.26 -178.3 L86.58 -179.4 L84.98 -180.5 L83.47 -181.7 L82.08 -183.1 L80.79 -184.6 L79.63 -186.2 L78.59 -187.8 L77.69 -189.6 L76.93 -191.4 L76.32 -193.2 L75.86 -195.1 L75.55 -197.1 L75.39 -199 L75.39 -201 L75.55 -202.9 L75.86 -204.9 L76.32 -206.8 L76.93 -208.6 L77.69 -210.4 L78.59 -212.2 L79.63 -213.8 L80.79 -215.4 L82.08 -216.9 L83.47 -218.3 L84.98 -219.5 L86.58 -220.6 L88.26 -221.7 L90.02 -222.5 L91.84 -223.2 L93.71 -223.8 L95.62 -224.2 L97.56 -224.5 L99.51 -224.6 L101.5 -224.6 L103.4 -224.4 L105.3 -224 L107.2 -223.5 L109.1 -222.9 L110.9 -222.1 L112.6 -221.2 L114.2 -220.1 L115.8 -218.9 L117.2 -217.6 L118.6 -216.2 L119.8 -214.6 L120.9 -213 L121.9 -211.3 L122.7 -209.5 L123.4 -207.7 L123.9 -205.8 L124.3 -203.9 L124.6 -202 L124.6 -200 Z " />
<path stroke="rgb(0,0,0)" stroke-opacity="1" fill="rgb(255,255,255)" fill-opacity="1" d="M-376.3 -775.6 L-378.2 -775.7 L-380.2 -775.7 L-382.2 -775.7 L-384.1 -775.7 L-386.1 -775.8 L-388 -775.8 L-390 -775.8 L-392 -775.9 L-393.9 -775.9 L-395.9 -775.9 L-397.8 -775.9 L-399.8 -776 L-401.8 -776 L-403.7 -776 L-405.7 -776 L-407.7 -776.1 L-409.6 -776.1 L-411.6 -776.1 L-413.5 -776.1 L-415.5 -776.2 L-417.5 -776.2 L-419.4 -776.2 L-421.4 -776.2 L-423.3 -776.3 L-425.3 -776.3 L-425.3 -778.2 L-425.3 -780.2 L-425.2 -782.2 L-425.2 -784.1 L-425.2 -786.1 L-425.2 -788 L-425.1 -790 L-425.1 -792 L-425.1 -793.9 L-425.1 -795.9 L-425 -797.9 L-425 -799.8 L-425 -801.8 L-425 -803.7 L-424.9 -805.7 L-424.9 -807.7 L-424.9 -809.6 L-424.9 -811.6 L-424.8 -813.5 L-424.8 -815.5 L-424.8 -817.5 L-424.8 -819.4 L-424.7 -821.4 L-424.7 -823.4 L-424.7 -825.3 L-422.7 -825.3 L-420.8 -825.3 L-418.8 -825.2 L-416.8 -825.2 L-414.9 -825.2 L-412.9 -825.2 L-410.9 -825.1 L-409 -825.1 L-407 -825.1 L-405.1 -825.1 L-403.1 -825 L-401.1 -825 L-399.2 -825 L-397.2 -825 L-395.3 -824.9 L-393.3 -824.9 L-391.3 -824.9 L-389.4 -824.9 L-387.4 -824.8 L-385.4 -824.8 L-383.5 -824.8 L-381.5 -824.8 L-379.6 -824.7 L-377.6 -824.7 L-375.6 -824.7 L-375.7 -822.7 L-375.7 -820.8 L-375.7 -818.8 L-375.7 -816.8 L-375.8 -814.9 L-375.8 -812.9 L-375.8 -811 L-375.8 -809 L-375.9 -807 L-375.9 -805.1 L-375.9 -803.1 L-375.9 -801.1 L-376 -799.2 L-376 -797.2 L-376 -795.3 L-376 -793.3 L-376.1 -791.3 L-376.1 -789.4 L-376.1 -787.4 L-376.1 -785.5 L-376.2 -783.5 L-376.2 -781.5 L-376.2 -779.6 L-376.2 -777.6 L-376.3 -775.6 Z " />
<path stroke="rgb(0,0,0)" stroke-opacity="0.0759" fill="rgb(255,255,255)" fill-opacity="1" d="M324.6 -200 L324.6 -198 L324.3 -196.1 L323.9 -194.2 L323.4 -192.3 L322.7 -190.5 L321.9 -188.7 L320.9 -187 L319.8 -185.4 L318.6 -183.8 L317.2 -182.4 L315.8 -181.1 L314.2 -179.9 L312.6 -178.8 L310.9 -177.9 L309.1 -177.1 L307.2 -176.5 L305.3 -176 L303.4 -175.6 L301.5 -175.4 L299.5 -175.4 L297.6 -175.5 L295.6 -175.8 L293.7 -176.2 L291.8 -176.8 L290 -177.5 L288.3 -178.3 L286.6 -179.4 L285 -180.5 L283.5 -181.7 L282.1 -183.1 L280.8 -184.6 L279.6 -186.2 L278.6 -187.8 L277.7 -189.6 L276.9 -191.4 L276.3 -193.2 L275.9 -195.1 L275.5 -197.1 L275.4 -199 L275.4 -201 L275.5 -202.9 L275.9 -204.9 L276.3 -206.8 L276.9 -208.6 L277.7 -210.4 L278.6 -212.2 L279.6 -213.8 L280.8 -215.4 L282.1 -216.9 L283.5 -218.3 L285 -219.5 L286.6 -220.6 L288.3 -221.7 L290 -222.5 L291.8 -223.2 L293.7 -223.8 L295.6 -224.2 L297.6 -224.5 L299.5 -224.6 L301.5 -224.6 L303.4 -224.4 L305.3 -224 L307.2 -223.5 L309.1 -222.9 L310.9 -222.1 L312.6 -221.2 L314.2 -220.1 L315.8 -218.9 L317.2 -217.6 L318.6 -216.2 L319.8 -214.6 L320.9 -213 L321.9 -211.3 L322.7 -209.5 L323.4 -207.7 L323.9 -205.8 L324.3 -203.9 L324.6 -202 L324.6 -200 Z " />
<path stroke="rgb(0,0,0)" stroke-opacity="1" fill="rgb(255,255,255)" fill-opacity="1" d="M-876.3 -675.7 L-878.2 -675.7 L-880.2 -675.7 L-882.1 -675.8 L-884.1 -675.8 L-886.1 -675.8 L-888 -675.8 L-890 -675.9 L-891.9 -675.9 L-893.9 -675.9 L-895.9 -675.9 L-897.8 -675.9 L-899.8 -676 L-901.7 -676 L-903.7 -676 L-905.7 -676 L-907.6 -676.1 L-909.6 -676.1 L-911.5 -676.1 L-913.5 -676.1 L-915.5 -676.1 L-917.4 -676.2 L-919.4 -676.2 L-921.3 -676.2 L-923.3 -676.2 L-925.3 -676.3 L-925.2 -678.2 L-925.2 -680.2 L-925.2 -682.1 L-925.2 -684.1 L-925.1 -686.1 L-925.1 -688 L-925.1 -690 L-925.1 -691.9 L-925.1 -693.9 L-925 -695.9 L-925 -697.8 L-925 -699.8 L-925 -701.7 L-924.9 -703.7 L-924.9 -705.7 L-924.9 -707.6 L-924.9 -709.6 L-924.9 -711.5 L-924.8 -713.5 L-924.8 -715.5 L-924.8 -717.4 L-924.8 -719.4 L-924.7 -721.3 L-924.7 -723.3 L-924.7 -725.3 L-922.7 -725.2 L-920.8 -725.2 L-918.8 -725.2 L-916.9 -725.2 L-914.9 -725.2 L-912.9 -725.1 L-911 -725.1 L-909 -725.1 L-907.1 -725.1 L-905.1 -725 L-903.1 -725 L-901.2 -725 L-899.2 -725 L-897.3 -724.9 L-895.3 -724.9 L-893.3 -724.9 L-891.4 -724.9 L-889.4 -724.9 L-887.5 -724.8 L-885.5 -724.8 L-883.5 -724.8 L-881.6 -724.8 L-879.6 -724.7 L-877.7 -724.7 L-875.7 -724.7 L-875.7 -722.7 L-875.7 -720.8 L-875.8 -718.8 L-875.8 -716.9 L-875.8 -714.9 L-875.8 -712.9 L-875.8 -711 L-875.9 -709 L-875.9 -707.1 L-875.9 -705.1 L-875.9 -703.1 L-876 -701.2 L-876 -699.2 L-876 -697.3 L-876 -695.3 L-876.1 -693.3 L-876.1 -691.4 L-876.1 -689.4 L-876.1 -687.5 L-876.1 -685.5 L-876.2 -683.5 L-876.2 -681.6 L-876.2 -679.6 L-876.2 -677.7 L-876.3 -675.7 Z " />
<path stroke="rgb(0,0,0)" stroke-opacity="0.0759" fill="rgb(255,255,255)" fill-opacity="1" d="M-175.4 -100 L-175.4 -98.04 L-175.7 -96.1 L-176.1 -94.18 L-176.6 -92.3 L-177.3 -90.46 L-178.1 -88.69 L-179.1 -86.98 L-180.2 -85.36 L-181.4 -83.84 L-182.8 -82.41 L-184.2 -81.1 L-185.8 -79.9 L-187.4 -78.83 L-189.1 -77.9 L-190.9 -77.11 L-192.8 -76.46 L-194.7 -75.96 L-196.6 -75.61 L-198.5 -75.41 L-200.5 -75.37 L-202.4 -75.49 L-204.4 -75.76 L-206.3 -76.19 L-208.2 -76.76 L-210 -77.49 L-211.7 -78.35 L-213.4 -79.35 L-215 -80.48 L-216.5 -81.74 L-217.9 -83.11 L-219.2 -84.59 L-220.4 -86.16 L-221.4 -87.83 L-222.3 -89.57 L-223.1 -91.37 L-223.7 -93.23 L-224.1 -95.13 L-224.5 -97.07 L-224.6 -99.02 L-224.6 -101 L-224.5 -102.9 L-224.1 -104.9 L-223.7 -106.8 L-223.1 -108.6 L-222.3 -110.4 L-221.4 -112.2 L-220.4 -113.8 L-219.2 -115.4 L-217.9 -116.9 L-216.5 -118.3 L-215 -119.5 L-213.4 -120.6 L-211.7 -121.7 L-210 -122.5 L-208.2 -123.2 L-206.3 -123.8 L-204.4 -124.2 L-202.4 -124.5 L-200.5 -124.6 L-198.5 -124.6 L-196.6 -124.4 L-194.7 -124 L-192.8 -123.5 L-190.9 -122.9 L-189.1 -122.1 L-187.4 -121.2 L-185.8 -120.1 L-184.2 -118.9 L-182.8 -117.6 L-181.4 -116.2 L-180.2 -114.6 L-179.1 -113 L-178.1 -111.3 L-177.3 -109.5 L-176.6 -107.7 L-176.1 -105.8 L-175.7 -103.9 L-175.4 -102 L-175.4 -100 Z " />
<path stroke="rgb(0,0,0)" stroke-opacity="1" fill="rgb(255,255,255)" fill-opacity="1" d="M-676.3 -675.6 L-678.2 -675.7 L-680.2 -675.7 L-682.2 -675.7 L-684.1 -675.7 L-686.1 -675.8 L-688 -675.8 L-690 -675.8 L-692 -675.9 L-693.9 -675.9 L-695.9 -675.9 L-697.8 -675.9 L-699.8 -676 L-701.8 -676 L-703.7 -676 L-705.7 -676 L-707.7 -676.1 L-709.6 -676.1 L-711.6 -676.1 L-713.5 -676.1 L-715.5 -676.2 L-717.5 -676.2 L-719.4 -676.2 L-721.4 -676.2 L-723.3 -676.3 L-725.3 -676.3 L-725.3 -678.2 L-725.3 -680.2 L-725.2 -682.2 L-725.2 -684.1 L-725.2 -686.1 L-725.2 -688 L-725.1 -690 L-725.1 -692 L-725.1 -693.9 L-725.1 -695.9 L-725 -697.9 L-725 -699.8 L-725 -701.8 L-725 -703.7 L-724.9 -705.7 L-724.9 -707.7 L-724.9 -709.6 L-724.9 -711.6 L-724.8 -713.5 L-724.8 -715.5 L-724.8 -717.5 L-724.8 -719.4 L-724.7 -721.4 L-724.7 -723.4 L-724.7 -725.3 L-722.7 -725.3 L-720.8 -725.3 L-718.8 -725.2 L-716.8 -725.2 L-714.9 -725.2 L-712.9 -725.2 L-710.9 -725.1 L-709 -725.1 L-707 -725.1 L-705.1 -725.1 L-703.1 -725 L-701.1 -725 L-699.2 -725 L-697.2 -725 L-695.3 -724.9 L-693.3 -724.9 L-691.3 -724.9 L-689.4 -724.9 L-687.4 -724.8 L-685.4 -724.8 L-683.5 -724.8 L-681.5 -724.8 L-679.6 -724.7 L-677.6 -724.7 L-675.6 -724.7 L-675.7 -722.7 L-675.7 -720.8 L-675.7 -718.8 L-675.7 -716.8 L-675.8 -714.9 L-675.8 -712.9 L-675.8 -711 L-675.8 -709 L-675.9 -707 L-675.9 -705.1 L-675.9 -703.1 L-675.9 -701.1 L-676 -699.2 L-676 -697.2 L-676 -695.3 L-676 -693.3 L-676.1 -691.3 L-676.1 -689.4 L-676.1 -687.4 L-676.1 -685.5 L-676.2 -683.5 L-676.2 -681.5 L-676.2 -679.6 L-676.2 -677.6 L-676.3 -675.6 Z " />
<path stroke="rgb(0,0,0)" stroke-opacity="0.0759" fill="rgb(255,255,255)" fill-opacity="1" d="M24.64 -100 L24.56 -98.04 L24.32 -96.1 L23.94 -94.18 L23.4 -92.3 L22.71 -90.46 L21.88 -88.69 L20.92 -86.98 L19.82 -85.36 L18.59 -83.84 L17.25 -82.41 L15.8 -81.1 L14.24 -79.9 L12.6 -78.83 L10.88 -77.9 L9.09 -77.11 L7.242 -76.46 L5.349 -75.96 L3.422 -75.61 L1.473 -75.41 L-0.4851 -75.37 L-2.44 -75.49 L-4.38 -75.76 L-6.291 -76.19 L-8.164 -76.76 L-9.984 -77.49 L-11.74 -78.35 L-13.42 -79.35 L-15.02 -80.48 L-16.53 -81.74 L-17.92 -83.11 L-19.21 -84.59 L-20.37 -86.16 L-21.41 -87.83 L-22.31 -89.57 L-23.07 -91.37 L-23.68 -93.23 L-24.14 -95.13 L-24.45 -97.07 L-24.61 -99.02 L-24.61 -101 L-24.45 -102.9 L-24.14 -104.9 L-23.68 -106.8 L-23.07 -108.6 L-22.31 -110.4 L-21.41 -112.2 L-20.37 -113.8 L-19.21 -115.4 L-17.92 -116.9 L-16.53 -118.3 L-15.02 -119.5 L-13.42 -120.6 L-11.74 -121.7 L-9.984 -122.5 L-8.164 -123.2 L-6.291 -123.8 L-4.38 -124.2 L-2.44 -124.5 L-0.4851 -124.6 L1.473 -124.6 L3.422 -124.4 L5.349 -124 L7.242 -123.5 L9.09 -122.9 L10.88 -122.1 L12.6 -121.2 L14.24 -120.1 L15.8 -118.9 L17.25 -117.6 L18.59 -116.2 L19.82 -114.6 L20.92 -113 L21.88 -111.3 L22.71 -109.5 L23.4 -107.7 L23.94 -105.8 L24.32 -103.9 L24.56 -102 L24.64 -100 Z " />
<path stroke="rgb(0,0,0)" stroke-opacity="1" fill="rgb(255,255,255)" fill-opacity="1" d="M-476.3 -675.6 L-478.2 -675.7 L-480.2 -675.7 L-482.2 -675.7 L-484.1 -675.7 L-486.1 -675.8 L-488 -675.8 L-490 -675.8 L-492 -675.9 L-493.9 -675.9 L-495.9 -675.9 L-497.8 -675.9 L-499.8 -676 L-501.8 -676 L-503.7 -676 L-505.7 -676 L-507.7 -676.1 L-509.6 -676.1 L-511.6 -676.1 L-513.5 -676.1 L-515.5 -676.2 L-517.5 -676.2 L-519.4 -676.2 L-521.4 -676.2 L-523.3 -676.3 L-525.3 -676.3 L-525.3 -678.2 L-525.3 -680.2 L-525.2 -682.2 L-525.2 -684.1 L-525.2 -686.1 L-525.2 -688 L-525.1 -690 L-525.1 -692 L-525.1 -693.9 L-525.1 -695.9 L-525 -697.9 L-525 -699.8 L-525 -701.8 L-525 -703.7 L-524.9 -705.7 L-524.9 -707.7 L-524.9 -709.6 L-524.9 -711.6 L-524.8 -713.5 L-524.8 -715.5 L-524.8 -717.5 L-524.8 -719.4 L-524.7 -721.4 L-524.7 -723.4 L-524.7 -725.3 L-522.7 -725.3 L-520.8 -725.3 L-518.8 -725.2 L-516.8 -725.2 L-514.9 -725.2 L-512.9 -725.2 L-510.9 -725.1 L-509 -725.1 L-507 -725.1 L-505.1 -725.1 L-503.1 -725 L-501.1 -725 L-499.2 -725 L-497.2 -725 L-495.3 -724.9 L-493.3 -724.9 L-491.3 -724.9 L-489.4 -724.9 L-487.4 -724.8 L-485.4 -724.8 L-483.5 -724.8 L-481.5 -724.8 L-479.6 -724.7 L-477.6 -724.7 L-475.6 -724.7 L-475.7 -722.7 L-475.7 -720.8 L-475.7 -718.8 L-475.7 -716.8 L-475.8 -714.9 L-475.8 -712.9 L-475.8 -711 L-475.8 -709 L-475.9 -707 L-475.9 -705.1 L-475.9 -703.1 L-475.9 -701.1 L-476 -699.2 L-476 -697.2 L-476 -695.3 L-476 -693.3 L-476.1 -691.3 L-476.1 -689.4 L-476.1 -687.4 L-476.1 -685.5 L-476.2 -683.5 L-476.2 -681.5 L-476.2 -679.6 L-476.2 -677.6 L-476.3 -675.6 Z " />
<path stroke="rgb(0,0,0)" stroke-opacity="0.0759" fill="rgb(255,255,255)" fill-opacity="1" d="M224.6 -100 L224.6 -98.04 L224.3 -96.1 L223.9 -94.18 L223.4 -92.3 L222.7 -90.46 L221.9 -88.69 L220.9 -86.98 L219.8 -85.36 L218.6 -83.84 L217.2 -82.41 L215.8 -81.1 L214.2 -79.9 L212.6 -78.83 L210.9 -77.9 L209.1 -77.11 L207.2 -76.46 L205.3 -75.96 L203.4 -75.61 L201.5 -75.41 L199.5 -75.37 L197.6 -75.49 L195.6 -75.76 L193.7 -76.19 L191.8 -76.76 L190 -77.49 L188.3 -78.35 L186.6 -79.35 L185 -80.48 L183.5 -81.74 L182.1 -83.11 L180.8 -84.59 L179.6 -86.16 L178.6 -87.83 L177.7 -89.57 L176.9 -91.37 L176.3 -93.23 L175.9 -95.13 L175.5 -97.07 L175.4 -99.02 L175.4 -101 L175.5 -102.9 L175.9 -104.9 L176.3 -106.8 L176.9 -108.6 L177.7 -110.4 L178.6 -112.2 L179.6 -113.8 L180.8 -115.4 L182.1 -116.9 L183.5 -118.3 L185 -119.5 L186.6 -120.6 L188.3 -121.7 L190 -122.5 L191.8 -123.2 L193.7 -123.8 L195.6 -124.2 L197.6 -124.5 L199.5 -124.6 L201.5 -124.6 L203.4 -124.4 L205.3 -124 L207.2 -123.5 L209.1 -122.9 L210.9 -122.1 L212.6 -121.2 L214.2 -120.1 L215.8 -118.9 L217.2 -117.6 L218.6 -116.2 L219.8 -114.6 L220.9 -113 L221.9 -111.3 L222.7 -109.5 L223.4 -107.7 L223.9 -105.8 L224.3 -103.9 L224.6 -102 L224.6 -100 Z " />
<path stroke="rgb(0,0,0)" stroke-opacity="1" fill="rgb(255,255,255)" fill-opacity="1" d="M-276.3 -675.6 L-278.2 -675.7 L-280.2 -675.7 L-282.2 -675.7 L-284.1 -675.7 L-286.1 -675.8 L-288 -675.8 L-290 -675.8 L-292 -675.9 L-293.9 -675.9 L-295.9 -675.9 L-297.8 -675.9 L-299.8 -676 L-301.8 -676 L-303.7 -676 L-305.7 -676 L-307.7 -676.1 L-309.6 -676.1 L-311.6 -676.1 L-313.5 -676.1 L-315.5 -676.2 L-317.5 -676.2 L-319.4 -676.2 L-321.4 -676.2 L-323.3 -676.3 L-325.3 -676.3 L-325.3 -678.2 L-325.3 -680.2 L-325.2 -682.2 L-325.2 -684.1 L-325.2 -686.1 L-325.2 -688 L-325.1 -690 L-325.1 -692 L-325.1 -693.9 L-325.1 -695.9 L-325 -697.9 L-325 -699.8 L-325 -701.8 L-325 -703.7 L-324.9 -705.7 L-324.9 -707.7 L-324.9 -709.6 L-324.9 -711.6 L-324.8 -713.5 L-324.8 -715.5 L-324.8 -717.5 L-324.8 -719.4 L-324.7 -721.4 L-324.7 -723.4 L-324.7 -725.3 L-322.7 -725.3 L-320.8 -725.3 L-318.8 -725.2 L-316.8 -725.2 L-314.9 -725.2 L-312.9 -725.2 L-310.9 -725.1 L-309 -725.1 L-307 -725.1 L-305.1 -725.1 L-303.1 -725 L-301.1 -725 L-299.2 -725 L-297.2 -725 L-295.3 -724.9 L-293.3 -724.9 L-291.3 -724.9 L-289.4 -724.9 L-287.4 -724.8 L-285.4 -724.8 L-283.5 -724.8 L-281.5 -724.8 L-279.6 -724.7 L-277.6 -724.7 L-275.6 -724.7 L-275.7 -722.7 L-275.7 -720.8 L-275.7 -718.8 L-275.7 -716.8 L-275.8 -714.9 L-275.8 -712.9 L-275.8 -711 L-275.8 -709 L-275.9 -707 L-275.9 -705.1 L-275.9 -703.1 L-275.9 -701.1 L-276 -699.2 L-276 -697.2 L-276 -695.3 L-276 -693.3 L-276.1 -691.3 L-276.1 -689.4 L-276.1 -687.4 L-276.1 -685.5 L-276.2 -683.5 L-276.2 -681.5 L-276.2 -679.6 L-276.2 -677.6 L-276.3 -675.6 Z " />
<path stroke="rgb(0,0,0)" stroke-opacity="0.0759" fill="rgb(255,255,255)" fill-opacity="1" d="M-275.4 -4.01e-10 L-275.4 1.957 L-275.7 3.902 L-276.1 5.821 L-276.6 7.705 L-277.3 9.539 L-278.1 11.31 L-279.1 13.02 L-280.2 14.64 L-281.4 16.16 L-282.8 17.59 L-284.2 18.9 L-285.8 20.1 L-287.4 21.17 L-289.1 22.1 L-290.9 22.89 L-292.8 23.54 L-294.7 24.04 L-296.6 24.39 L-298.5 24.59 L-300.5 24.63 L-302.4 24.51 L-304.4 24.24 L-306.3 23.81 L-308.2 23.24 L-310 22.51 L-311.7 21.65 L-313.4 20.65 L-315 19.52 L-316.5 18.26 L-317.9 16.89 L-319.2 15.41 L-320.4 13.84 L-321.4 12.17 L-322.3 10.43 L-323.1 8.629 L-323.7 6.768 L-324.1 4.865 L-324.5 2.932 L-324.6 0.9792 L-324.6 -0.9792 L-324.5 -2.932 L-324.1 -4.865 L-323.7 -6.768 L-323.1 -8.629 L-322.3 -10.43 L-321.4 -12.17 L-320.4 -13.84 L-319.2 -15.41 L-317.9 -16.89 L-316.5 -18.26 L-315 -19.52 L-313.4 -20.65 L-311.7 -21.65 L-310 -22.51 L-308.2 -23.24 L-306.3 -23.81 L-304.4 -24.24 L-302.4 -24.51 L-300.5 -24.63 L-298.5 -24.59 L-296.6 -24.39 L-294.7 -24.04 L-292.8 -23.54 L-290.9 -22.89 L-289.1 -22.1 L-287.4 -21.17 L-285.8 -20.1 L-284.2 -18.9 L-282.8 -17.59 L-281.4 -16.16 L-280.2 -14.64 L-279.1 -13.02 L-278.1 -11.31 L-277.3 -9.539 L-276.6 -7.705 L-276.1 -5.821 L-275.7 -3.902 L-275.4 -1.957 L-275.4 -4.01e-10 Z " />
<path stroke="rgb(0,0,0)" stroke-opacity="1" fill="rgb(255,255,255)" fill-opacity="1" d="M-776.3 -575.6 L-778.2 -575.7 L-780.2 -575.7 L-782.2 -575.7 L-784.1 -575.7 L-786.1 -575.8 L-788 -575.8 L-790 -575.8 L-792 -575.9 L-793.9 -575.9 L-795.9 -575.9 L-797.8 -575.9 L-799.8 -576 L-801.8 -576 L-803.7 -576 L-805.7 -576 L-807.7 -576.1 L-809.6 -576.1 L-811.6 -576.1 L-813.5 -576.1 L-815.5 -576.2 L-817.5 -576.2 L-819.4 -576.2 L-821.4 -576.2 L-823.3 -576.3 L-825.3 -576.3 L-825.3 -578.2 L-825.3 -580.2 L-825.2 -582.2 L-825.2 -584.1 L-825.2 -586.1 L-825.2 -588 L-825.1 -590 L-825.1 -592 L-825.1 -593.9 L-825.1 -595.9 L-825 -597.9 L-825 -599.8 L-825 -601.8 L-825 -603.7 L-824.9 -605.7 L-824.9 -607.7 L-824.9 -609.6 L-824.9 -611.6 L-824.8 -613.5 L-824.8 -615.5 L-824.8 -617.5 L-824.8 -619.4 L-824.7 -621.4 L-824.7 -623.4 L-824.7 -625.3 L-822.7 -625.3 L-820.8 -625.3 L-818.8 -625.2 L-816.8 -625.2 L-814.9 -625.2 L-812.9 -625.2 L-810.9 -625.1 L-809 -625.1 L-807 -625.1 L-805.1 -625.1 L-803.1 -625 L-801.1 -625 L-799.2 -625 L-797.2 -625 L-795.3 -624.9 L-793.3 -624.9 L-791.3 -624.9 L-789.4 -624.9 L-787.4 -624.8 L-785.4 -624.8 L-783.5 -624.8 L-781.5 -624.8 L-779.6 -624.7 L-777.6 -624.7 L-775.6 -624.7 L-775.7 -622.7 L-775.7 -620.8 L-775.7 -618.8 L-775.7 -616.8 L-775.8 -614.9 L-775.8 -612.9 L-775.8 -611 L-775.8 -609 L-775.9 -607 L-775.9 -605.1 L-775.9 -603.1 L-775.9 -601.1 L-776 -599.2 L-776 -597.2 L-776 -595.3 L-776 -593.3 L-776.1 -591.3 L-776.1 -589.4 L-776.1 -587.4 L-776.1 -585.5 L-776.2 -583.5 L-776.2 -581.5 L-776.2 -579.6 L-776.2 -577.6 L-776.3 -575.6 Z " />
<path stroke="rgb(0,0,0)" stroke-opacity="0.0759" fill="rgb(255,255,255)" fill-opacity="1" d="M-75.36 -4.012e-10 L-75.44 1.957 L-75.68 3.902 L-76.06 5.821 L-76.6 7.705 L-77.29 9.539 L-78.12 11.31 L-79.08 13.02 L-80.18 14.64 L-81.41 16.16 L-82.75 17.59 L-84.2 18.9 L-85.76 20.1 L-87.4 21.17 L-89.12 22.1 L-90.91 22.89 L-92.76 23.54 L-94.65 24.04 L-96.58 24.39 L-98.53 24.59 L-100.5 24.63 L-102.4 24.51 L-104.4 24.24 L-106.3 23.81 L-108.2 23.24 L-110 22.51 L-111.7 21.65 L-113.4 20.65 L-115 19.52 L-116.5 18.26 L-117.9 16.89 L-119.2 15.41 L-120.4 13.84 L-121.4 12.17 L-122.3 10.43 L-123.1 8.629 L-123.7 6.768 L-124.1 4.865 L-124.5 2.932 L-124.6 0.9792 L-124.6 -0.9792 L-124.5 -2.932 L-124.1 -4.865 L-123.7 -6.768 L-123.1 -8.629 L-122.3 -10.43 L-121.4 -12.17 L-120.4 -13.84 L-119.2 -15.41 L-117.9 -16.89 L-116.5 -18.26 L-115 -19.52 L-113.4 -20.65 L-111.7 -21.65 L-110 -22.51 L-108.2 -23.24 L-106.3 -23.81 L-104.4 -24.24 L-102.4 -24.51 L-100.5 -24.63 L-98.53 -24.59 L-96.58 -24.39 L-94.65 -24.04 L-92.76 -23.54 L-90.91 -22.89 L-89.12 -22.1 L-87.4 -21.17 L-85.76 -20.1 L-84.2 -18.9 L-82.75 -17.59 L-81.41 -16.16 L-80.18 -14.64 L-79.08 -13.02 L-78.12 -11.31 L-77.29 -9.539 L-76.6 -7.705 L-76.06 -5.821 L-75.68 -3.902 L-75.44 -1.957 L-75.36 -4.012e-10 Z " />
<path stroke="rgb(0,0,0)" stroke-opacity="1" fill="rgb(255,255,255)" fill-opacity="1" d="M-576.3 -575.6 L-578.2 -575.7 L-580.2 -575.7 L-582.2 -575.7 L-584.1 -575.7 L-586.1 -575.8 L-588 -575.8 L-590 -575.8 L-592 -575.9 L-593.9 -575.9 L-595.9 -575.9 L-597.8 -575.9 L-599.8 -576 L-601.8 -576 L-603.7 -576 L-605.7 -576 L-607.7 -576.1 L-609.6 -576.1 L-611.6 -576.1 L-613.5 -576.1 L-615.5 -576.2 L-617.5 -576.2 L-619.4 -576.2 L-621.4 -576.2 L-623.3 -576.3 L-625.3 -576.3 L-625.3 -578.2 L-625.3 -580.2 L-625.2 -582.2 L-625.2 -584.1 L-625.2 -586.1 L-625.2 -588 L-625.1 -590 L-625.1 -592 L-625.1 -593.9 L-625.1 -595.9 L-625 -597.9 L-625 -599.8 L-625 -601.8 L-625 -603.7 L-624.9 -605.7 L-624.9 -607.7 L-624.9 -609.6 L-624.9 -611.6 L-624.8 -613.5 L-624.8 -615.5 L-624.8 -617.5 L-624.8 -619.4 L-624.7 -621.4 L-624.7 -623.4 L-624.7 -625.3 L-622.7 -625.3 L-620.8 -625.3 L-618.8 -625.2 L-616.8 -625.2 L-614.9 -625.2 L-612.9 -625.2 L-610.9 -625.1 L-609 -625.1 L-607 -625.1 L-605.1 -625.1 L-603.1 -625 L-601.1 -625 L-599.2 -625 L-597.2 -625 L-595.3 -624.9 L-593.3 -624.9 L-591.3 -624.9 L-589.4 -624.9 L-587.4 -624.8 L-585.4 -624.8 L-583.5 -624.8 L-581.5 -624.8 L-579.6 -624.7 L-577.6 -624.7 L-575.6 -624.7 L-575.7 -622.7 L-575.7 -620.8 L-575.7 -618.8 L-575.7 -616.8 L-575.8 -614.9 L-575.8 -612.9 L-575.8 -611 L-575.8 -609 L-575.9 -607 L-575.9 -605.1 L-575.9 -603.1 L-575.9 -601.1 L-576 -599.2 L-576 -597.2 L-576 -595.3 L-576 -593.3 L-576.1 -591.3 L-576.1 -589.4 L-576.1 -587.4 L-576.1 -585.5 L-576.2 -583.5 L-576.2 -581.5 L-576.2 -579.6 L-576.2 -577.6 L-576.3 -575.6 Z " />
<path stroke="rgb(0,0,0)" stroke-opacity="0.0759" fill="rgb(255,255,255)" fill-opacity="1" d="M124.6 -4.008e-10 L124.6 1.957 L124.3 3.902 L123.9 5.821 L123.4 7.705 L122.7 9.539 L121.9 11.31 L120.9 13.02 L119.8 14.64 L118.6 16.16 L117.2 17.59 L115.8 18.9 L114.2 20.1 L112.6 21.17 L110.9 22.1 L109.1 22.89 L107.2 23.54 L105.3 24.04 L103.4 24.39 L101.5 24.59 L99.51 24.63 L97.56 24.51 L95.62 24.24 L93.71 23.81 L91.84 23.24 L90.02 22.51 L88.26 21.65 L86.58 20.65 L84.98 19.52 L83.47 18.26 L82.08 16.89 L80.79 15.41 L79.63 13.84 L78.59 12.17 L77.69 10.43 L76.93 8.629 L76.32 6.768 L75.86 4.865 L75.55 2.932 L75.39 0.9792 L75.39 -0.9792 L75.55 -2.932 L75.86 -4.865 L76.32 -6.768 L76.93 -8.629 L77.69 -10.43 L78.59 -12.17 L79.63 -13.84 L80.79 -15.41 L82.08 -16.89 L83.47 -18.26 L84.98 -19.52 L86.58 -20.65 L88.26 -21.65 L90.02 -22.51 L91.84 -23.24 L93.71 -23.81 L95.62 -24.24 L97.56 -24.51 L99.51 -24.63 L101.5 -24.59 L103.4 -24.39 L105.3 -24.04 L107.2 -23.54 L109.1 -22.89 L110.9 -22.1 L112.6 -21.17 L114.2 -20.1 L115.8 -18.9 L117.2 -17.59 L118.6 -16.16 L119.8 -14.64 L120.9 -13.02 L121.9 -11.31 L122.7 -9.539 L123.4 -7.705 L123.9 -5.821 L124.3 -3.902 L124.6 -1.957 L124.6 -4.008e-10 Z " />
<path stroke="rgb(0,0,0)" stroke-opacity="1" fill="rgb(255,255,255)" fill-opacity="1" d="M-376.3 -575.6 L-378.2 -575.7 L-380.2 -575.7 L-382.2 -575.7 L-384.1 -575.7 L-386.1 -575.8 L-388 -575.8 L-390 -575.8 L-392 -575.9 L-393.9 -575.9 L-395.9 -575.9 L-397.8 -575.9 L-399.8 -576 L-401.8 -576 L-403.7 -576 L-405.7 -576 L-407.7 -576.1 L-409.6 -576.1 L-411.6 -576.1 L-413.5 -576.1 L-415.5 -576.2 L-417.5 -576.2 L-419.4 -576.2 L-421.4 -576.2 L-423.3 -576.3 L-425.3 -576.3 L-425.3 -578.2 L-425.3 -580.2 L-425.2 -582.2 L-425.2 -584.1 L-425.2 -586.1 L-425.2 -588 L-425.1 -590 L-425.1 -592 L-425.1 -593.9 L-425.1 -595.9 L-425 -597.9 L-425 -599.8 L-425 -601.8 L-425 -603.7 L-424.9 -605.7 L-424.9 -607.7 L-424.9 -609.6 L-424.9 -611.6 L-424.8 -613.5 L-424.8 -615.5 L-424.8 -617.5 L-424.8 -619.4 L-424.7 -621.4 L-424.7 -623.4 L-424.7 -625.3 L-422.7 -625.3 L-420.8 -625.3 L-418.8 -625.2 L-416.8 -625.2 L-414.9 -625.2 L-412.9 -625.2 L-410.9 -625.1 L-409 -625.1 L-407 -625.1 L-405.1 -625.1 L-403.1 -625 L-401.1 -625 L-399.2 -625 L-397.2 -625 L-395.3 -624.9 L-393.3 -624.9 L-391.3 -624.9 L-389.4 -624.9 L-387.4 -624.8 L-385.4 -624.8 L-383.5 -624.8 L-381.5 -624.8 L-379.6 -624.7 L-377.6 -624.7 L-375.6 -624.7 L-375.7 -622.7 L-375.7 -620.8 L-375.7 -618.8 L-375.7 -616.8 L-375.8 -614.9 L-375.8 -612.9 L-375.8 -611 L-375.8 -609 L-375.9 -607 L-375.9 -605.1 L-375.9 -603.1 L-375.9 -601.1 L-376 -599.2 L-376 -597.2 L-376 -595.3 L-376 -593.3 L-376.1 -591.3 L-376.1 -589.4 L-376.1 -587.4 L-376.1 -585.5 L-376.2 -583.5 L-376.2 -581.5 L-376.2 -579.6 L-376.2 -577.6 L-376.3 -575.6 Z " />
<path stroke="rgb(0,0,0)" stroke-opacity="0.0759" fill="rgb(255,255,255)" fill-opacity="1" d="M324.6 -4.011e-10 L324.6 1.957 L324.3 3.902 L323.9 5.821 L323.4 7.705 L322.7 9.539 L321.9 11.31 L320.9 13.02 L319.8 14.64 L318.6 16.16 L317.2 17.59 L315.8 18.9 L314.2 20.1 L312.6 21.17 L310.9 22.1 L309.1 22.89 L307.2 23.54 L305.3 24.04 L303.4 24.39 L301.5 24.59 L299.5 24.63 L297.6 24.51 L295.6 24.24 L293.7 23.81 L291.8 23.24 L290 22.51 L288.3 21.65 L286.6 20.65 L285 19.52 L283.5 18.26 L282.1 16.89 L280.8 15.41 L279.6 13.84 L278.6 12.17 L277.7 10.43 L276.9 8.629 L276.3 6.768 L275.9 4.865 L275.5 2.932 L275.4 0.9792 L275.4 -0.9792 L275.5 -2.932 L275.9 -4.865 L276.3 -6.768 L276.9 -8.629 L277.7 -10.43 L278.6 -12.17 L279.6 -13.84 L280.8 -15.41 L282.1 -16.89 L283.5 -18.26 L285 -19.52 L286.6 -20.65 L288.3 -21.65 L290 -22.51 L291.8 -23.24 L293.7 -23.81 L295.6 -24.24 L297.6 -24.51 L299.5 -24.63 L301.5 -24.59 L303.4 -24.39 L305.3 -24.04 L307.2 -23.54 L309.1 -22.89 L310.9 -22.1 L312.6 -21.17 L314.2 -20.1 L315.8 -18.9 L317.2 -17.59 L318.6 -16.16 L319.8 -14.64 L320.9 -13.02 L321.9 -11.31 L322.7 -9.539 L323.4 -7.705 L323.9 -5.821 L324.3 -3.902 L324.6 -1.957 L324.6 -4.011e-10 Z " />
<path stroke="rgb(0,0,0)" stroke-opacity="1" fill="rgb(255,255,255)" fill-opacity="1" d="M-876.3 -475.6 L-878.2 -475.7 L-880.2 -475.7 L-882.2 -475.7 L-884.1 -475.7 L-886.1 -475.8 L-888 -475.8 L-890 -475.8 L-892 -475.9 L-893.9 -475.9 L-895.9 -475.9 L-897.8 -475.9 L-899.8 -476 L-901.8 -476 L-903.7 -476 L-905.7 -476 L-907.7 -476.1 L-909.6 -476.1 L-911.6 -476.1 L-913.5 -476.1 L-915.5 -476.2 L-917.5 -476.2 L-919.4 -476.2 L-921.4 -476.2 L-923.3 -476.3 L-925.3 -476.3 L-925.3 -478.2 L-925.3 -480.2 L-925.2 -482.2 L-925.2 -484.1 L-925.2 -486.1 L-925.2 -488 L-925.1 -490 L-925.1 -492 L-925.1 -493.9 L-925.1 -495.9 L-925 -497.9 L-925 -499.8 L-925 -501.8 L-925 -503.7 L-924.9 -505.7 L-924.9 -507.7 L-924.9 -509.6 L-924.9 -511.6 L-924.8 -513.5 L-924.8 -515.5 L-924.8 -517.5 L-924.8 -519.4 L-924.7 -521.4 L-924.7 -523.4 L-924.7 -525.3 L-922.7 -525.3 L-920.8 -525.3 L-918.8 -525.2 L-916.8 -525.2 L-914.9 -525.2 L-912.9 -525.2 L-910.9 -525.1 L-909 -525.1 L-907 -525.1 L-905.1 -525.1 L-903.1 -525 L-901.1 -525 L-899.2 -525 L-897.2 -525 L-895.3 -524.9 L-893.3 -524.9 L-891.3 -524.9 L-889.4 -524.9 L-887.4 -524.8 L-885.4 -524.8 L-883.5 -524.8 L-881.5 -524.8 L-879.6 -524.7 L-877.6 -524.7 L-875.6 -524.7 L-875.7 -522.7 L-875.7 -520.8 L-875.7 -518.8 L-875.7 -516.8 L-875.8 -514.9 L-875.8 -512.9 L-875.8 -511 L-875.8 -509 L-875.9 -507 L-875.9 -505.1 L-875.9 -503.1 L-875.9 -501.1 L-876 -499.2 L-876 -497.2 L-876 -495.3 L-876 -493.3 L-876.1 -491.3 L-876.1 -489.4 L-876.1 -487.4 L-876.1 -485.5 L-876.2 -483.5 L-876.2 -481.5 L-876.2 -479.6 L-876.2 -477.6 L-876.3 -475.6 Z " />
<path stroke="rgb(0,0,0)" stroke-opacity="0.0759" fill="rgb(255,255,255)" fill-opacity="1" d="M-175.4 100 L-175.4 102 L-175.7 103.9 L-176.1 105.8 L-176.6 107.7 L-177.3 109.5 L-178.1 111.3 L-179.1 113 L-180.2 114.6 L-181.4 116.2 L-182.8 117.6 L-184.2 118.9 L-185.8 120.1 L-187.4 121.2 L-189.1 122.1 L-190.9 122.9 L-192.8 123.5 L-194.7 124 L-196.6 124.4 L-198.5 124.6 L-200.5 124.6 L-202.4 124.5 L-204.4 124.2 L-206.3 123.8 L-208.2 123.2 L-210 122.5 L-211.7 121.7 L-213.4 120.6 L-215 119.5 L-216.5 118.3 L-217.9 116.9 L-219.2 115.4 L-220.4 113.8 L-221.4 112.2 L-222.3 110.4 L-223.1 108.6 L-223.7 106.8 L-224.1 104.9 L-224.5 102.9 L-224.6 101 L-224.6 99.02 L-224.5 97.07 L-224.1 95.13 L-223.7 93.23 L-223.1 91.37 L-222.3 89.57 L-221.4 87.83 L-220.4 86.16 L-219.2 84.59 L-217.9 83.11 L-216.5 81.74 L-215 80.48 L-213.4 79.35 L-211.7 78.35 L-210 77.49 L-208.2 76.76 L-206.3 76.19 L-204.4 75.76 L-202.4 75.49 L-200.5 75.37 L-198.5 75.41 L-196.6 75.61 L-194.7 75.96 L-192.8 76.46 L-190.9 77.11 L-189.1 77.9 L-187.4 78.83 L-185.8 79.9 L-184.2 81.1 L-182.8 82.41 L-181.4 83.84 L-180.2 85.36 L-179.1 86.98 L-178.1 88.69 L-177.3 90.46 L-176.6 92.3 L-176.1 94.18 L-175.7 96.1 L-175.4 98.04 L-175.4 100 Z " />
<path stroke="rgb(0,0,0)" stroke-opacity="1" fill="rgb(255,255,255)" fill-opacity="1" d="M-676.3 -475.6 L-678.2 -475.7 L-680.2 -475.7 L-682.2 -475.7 L-684.1 -475.7 L-686.1 -475.8 L-688 -475.8 L-690 -475.8 L-692 -475.9 L-693.9 -475.9 L-695.9 -475.9 L-697.8 -475.9 L-699.8 -476 L-701.8 -476 L-703.7 -476 L-705.7 -476 L-707.7 -476.1 L-709.6 -476.1 L-711.6 -476.1 L-713.5 -476.1 L-715.5 -476.2 L-717.5 -476.2 L-719.4 -476.2 L-721.4 -476.2 L-723.3 -476.3 L-725.3 -476.3 L-725.3 -478.2 L-725.3 -480.2 L-725.2 -482.2 L-725.2 -484.1 L-725.2 -486.1 L-725.2 -488 L-725.1 -490 L-725.1 -492 L-725.1 -493.9 L-725.1 -495.9 L-725 -497.9 L-725 -499.8 L-725 -501.8 L-725 -503.7 L-724.9 -505.7 L-724.9 -507.7 L-724.9 -509.6 L-724.9 -511.6 L-724.8 -513.5 L-724.8 -515.5 L-724.8 -517.5 L-724.8 -519.4 L-724.7 -521.4 L-724.7 -523.4 L-724.7 -525.3 L-722.7 -525.3 L-720.8 -525.3 L-718.8 -525.2 L-716.8 -525.2 L-714.9 -525.2 L-712.9 -525.2 L-710.9 -525.1 L-709 -525.1 L-707 -525.1 L-705.1 -525.1 L-703.1 -525 L-701.1 -525 L-699.2 -525 L-697.2 -525 L-695.3 -524.9 L-693.3 -524.9 L-691.3 -524.9 L-689.4 -524.9 L-687.4 -524.8 L-685.4 -524.8 L-683.5 -524.8 L-681.5 -524.8 L-679.6 -524.7 L-677.6 -524.7 L-675.6 -524.7 L-675.7 -522.7 L-675.7 -520.8 L-675.7 -518.8 L-675.7 -516.8 L-675.8 -514.9 L-675.8 -512.9 L-675.8 -511 L-675.8 -509 L-675.9 -507 L-675.9 -505.1 L-675.9 -503.1 L-675.9 -501.1 L-676 -499.2 L-676 -497.2 L-676 -495.3 L-676 -493.3 L-676.1 -491.3 L-676.1 -489.4 L-676.1 -487.4 L-676.1 -485.5 L-676.2 -483.5 L-676.2 -481.5 L-676.2 -479.6 L-676.2 -477.6 L-676.3 -475.6 Z " />
<path stroke="rgb(0,0,0)" stroke-opacity="0.0759" fill="rgb(255,255,255)" fill-opacity="1" d="M24.64 100 L24.56 102 L24.32 103.9 L23.94 105.8 L23.4 107.7 L22.71 109.5 L21.88 111.3 L20.92 113 L19.82 114.6 L18.59 116.2 L17.25 117.6 L15.8 118.9 L14.24 120.1 L12.6 121.2 L10.88 122.1 L9.09 122.9 L7.242 123.5 L5.349 124 L3.422 124.4 L1.473 124.6 L-0.4851 124.6 L-2.44 124.5 L-4.38 124.2 L-6.291 123.8 L-8.164 123.2 L-9.984 122.5 L-11.74 121.7 L-13.42 120.6 L-15.02 119.5 L-16.53 118.3 L-17.92 116.9 L-19.21 115.4 L-20.37 113.8 L-21.41 112.2 L-22.31 110.4 L-23.07 108.6 L-23.68 106.8 L-24.14 104.9 L-24.45 102.9 L-24.61 101 L-24.61 99.02 L-24.45 97.07 L-24.14 95.13 L-23.68 93.23 L-23.07 91.37 L-22.31 89.57 L-21.41 87.83 L-20.37 86.16 L-19.21 84.59 L-17.92 83.11 L-16.53 81.74 L-15.02 80.48 L-13.42 79.35 L-11.74 78.35 L-9.984 77.49 L-8.164 76.76 L-6.291 76.19 L-4.38 75.76 L-2.44 75.49 L-0.4851 75.37 L1.473 75.41 L3.422 75.61 L5.349 75.96 L7.242 76.46 L9.09 77.11 L10.88 77.9 L12.6 78.83 L14.24 79.9 L15.8 81.1 L17.25 82.41 L18.59 83.84 L19.82 85.36 L20.92 86.98 L21.88 88.69 L22.71 90.46 L23.4 92.3 L23.94 94.18 L24.32 96.1 L24.56 98.04 L24.64 100 Z " />
<path stroke="rgb(0,0,0)" stroke-opacity="1" fill="rgb(255,255,255)" fill-opacity="1" d="M-476.3 -475.6 L-478.2 -475.7 L-480.2 -475.7 L-482.2 -475.7 L-484.1 -475.7 L-486.1 -475.8 L-488 -475.8 L-490 -475.8 L-492 -475.9 L-493.9 -475.9 L-495.9 -475.9 L-497.8 -475.9 L-499.8 -476 L-501.8 -476 L-503.7 -476 L-505.7 -476 L-507.7 -476.1 L-509.6 -476.1 L-511.6 -476.1 L-513.5 -476.1 L-515.5 -476.2 L-517.5 -476.2 L-519.4 -476.2 L-521.4 -476.2 L-523.3 -476.3 L-525.3 -476.3 L-525.3 -478.2 L-525.3 -480.2 L-525.2 -482.2 L-525.2 -484.1 L-525.2 -486.1 L-525.2 -488 L-525.1 -490 L-525.1 -492 L-525.1 -493.9 L-525.1 -495.9 L-525 -497.9 L-525 -499.8 L-525 -501.8 L-525 -503.7 L-524.9 -505.7 L-524.9 -507.7 L-524.9 -509.6 L-524.9 -511.6 L-524.8 -513.5 L-524.8 -515.5 L-524.8 -517.5 L-524.8 -519.4 L-524.7 -521.4 L-524.7 -523.4 L-524.7 -525.3 L-522.7 -525.3 L-520.8 -525.3 L-518.8 -525.2 L-516.8 -525.2 L-514.9 -525.2 L-512.9 -525.2 L-510.9 -525.1 L-509 -525.1 L-507 -525.1 L-505.1 -525.1 L-503.1 -525 L-501.1 -525 L-499.2 -525 L-497.2 -525 L-495.3 -524.9 L-493.3 -524.9 L-491.3 -524.9 L-489.4 -524.9 L-487.4 -524.8 L-485.4 -524.8 L-483.5 -524.8 L-481.5 -524.8 L-479.6 -524.7 L-477.6 -524.7 L-475.6 -524.7 L-475.7 -522.7 L-475.7 -520.8 L-475.7 -518.8 L-475.7 -516.8 L-475.8 -514.9 L-475.8 -512.9 L-475.8 -511 L-475.8 -509 L-475.9 -507 L-475.9 -505.1 L-475.9 -503.1 L-475.9 -501.1 L-476 -499.2 L-476 -497.2 L-476 -495.3 L-476 -493.3 L-476.1 -491.3 L-476.1 -489.4 L-476.1 -487.4 L-476.1 -485.5 L-476.2 -483.5 L-476.2 -481.5 L-476.2 -479.6 L-476.2 -477.6 L-476.3 -475.6 Z " />
<path stroke="rgb(0,0,0)" stroke-opacity="0.0759" fill="rgb(255,255,255)" fill-opacity="1" d="M224.6 100 L224.6 102 L224.3 103.9 L223.9 105.8 L223.4 107.7 L222.7 109.5 L221.9 111.3 L220.9 113 L219.8 114.6 L218.6 116.2 L217.2 117.6 L215.8 118.9 L214.2 120.1 L212.6 121.2 L210.9 122.1 L209.1 122.9 L207.2 123.5 L205.3 124 L203.4 124.4 L201.5 124.6 L199.5 124.6 L197.6 124.5 L195.6 124.2 L193.7 123.8 L191.8 123.2 L190 122.5 L188.3 121.7 L186.6 120.6 L185 119.5 L183.5 118.3 L182.1 116.9 L180.8 115.4 L179.6 113.8 L178.6 112.2 L177.7 110.4 L176.9 108.6 L176.3 106.8 L175.9 104.9 L175.5 102.9 L175.4 101 L175.4 99.02 L175.5 97.07 L175.9 95.13 L176.3 93.23 L176.9 91.37 L177.7 89.57 L178.6 87.83 L179.6 86.16 L180.8 84.59 L182.1 83.11 L183.5 81.74 L185 80.48 L186.6 79.35 L188.3 78.35 L190 77.49 L191.8 76.76 L193.7 76.19 L195.6 75.76 L197.6 75.49 L199.5 75.37 L201.5 75.41 L203.4 75.61 L205.3 75.96 L207.2 76.46 L209.1 77.11 L210.9 77.9 L212.6 78.83 L214.2 79.9 L215.8 81.1 L217.2 82.41 L218.6 83.84 L219.8 85.36 L220.9 86.98 L221.9 88.69 L222.7 90.46 L223.4 92.3 L223.9 94.18 L224.3 96.1 L224.6 98.04 L224.6 100 Z " />
<path stroke="rgb(0,0,0)" stroke-opacity="1" fill="rgb(255,255,255)" fill-opacity="1" d="M-276.3 -475.6 L-278.2 -475.7 L-280.2 -475.7 L-282.2 -475.7 L-284.1 -475.7 L-286.1 -475.8 L-288 -475.8 L-290 -475.8 L-292 -475.9 L-293.9 -475.9 L-295.9 -475.9 L-297.8 -475.9 L-299.8 -476 L-301.8 -476 L-303.7 -476 L-305.7 -476 L-307.7 -476.1 L-309.6 -476.1 L-311.6 -476.1 L-313.5 -476.1 L-315.5 -476.2 L-317.5 -476.2 L-319.4 -476.2 L-321.4 -476.2 L-323.3 -476.3 L-325.3 -476.3 L-325.3 -478.2 L-325.3 -480.2 L-325.2 -482.2 L-325.2 -484.1 L-325.2 -486.1 L-325.2 -488 L-325.1 -490 L-325.1 -492 L-325.1 -493.9 L-325.1 -495.9 L-325 -497.9 L-325 -499.8 L-325 -501.8 L-325 -503.7 L-324.9 -505.7 L-324.9 -507.7 L-324.9 -509.6 L-324.9 -511.6 L-324.8 -513.5 L-324.8 -515.5 L-324.8 -517.5 L-324.8 -519.4 L-324.7 -521.4 L-324.7 -523.4 L-324.7 -525.3 L-322.7 -525.3 L-320.8 -525.3 L-318.8 -525.2 L-316.8 -525.2 L-314.9 -525.2 L-312.9 -525.2 L-310.9 -525.1 L-309 -525.1 L-307 -525.1 L-305.1 -525.1 L-303.1 -525 L-301.1 -525 L-299.2 -525 L-297.2 -525 L-295.3 -524.9 L-293.3 -524.9 L-291.3 -524.9 L-289.4 -524.9 L-287.4 -524.8 L-285.4 -524.8 L-283.5 -524.8 L-281.5 -524.8 L-279.6 -524.7 L-277.6 -524.7 L-275.6 -524.7 L-275.7 -522.7 L-275.7 -520.8 L-275.7 -518.8 L-275.7 -516.8 L-275.8 -514.9 L-275.8 -512.9 L-275.8 -511 L-275.8 -509 L-275.9 -507 L-275.9 -505.1 L-275.9 -503.1 L-275.9 -501.1 L-276 -499.2 L-276 -497.2 L-276 -495.3 L-276 -493.3 L-276.1 -491.3 L-276.1 -489.4 L-276.1 -487.4 L-276.1 -485.5 L-276.2 -483.5 L-276.2 -481.5 L-276.2 -479.6 L-276.2 -477.6 L-276.3 -475.6 Z " />
<path stroke="rgb(0,0,0)" stroke-opacity="0.0759" fill="rgb(255,255,255)" fill-opacity="1" d="M-275.4 200 L-275.4 202 L-275.7 203.9 L-276.1 205.8 L-276.6 207.7 L-277.3 209.5 L-278.1 211.3 L-279.1 213 L-280.2 214.6 L-281.4 216.2 L-282.8 217.6 L-284.2 218.9 L-285.8 220.1 L-287.4 221.2 L-289.1 222.1 L-290.9 222.9 L-292.8 223.5 L-294.7 224 L-296.6 224.4 L-298.5 224.6 L-300.5 224.6 L-302.4 224.5 L-304.4 224.2 L-306.3 223.8 L-308.2 223.2 L-310 222.5 L-311.7 221.7 L-313.4 220.6 L-315 219.5 L-316.5 218.3 L-317.9 216.9 L-319.2 215.4 L-320.4 213.8 L-321.4 212.2 L-322.3 210.4 L-323.1 208.6 L-323.7 206.8 L-324.1 204.9 L-324.5 202.9 L-324.6 201 L-324.6 199 L-324.5 197.1 L-324.1 195.1 L-323.7 193.2 L-323.1 191.4 L-322.3 189.6 L-321.4 187.8 L-320.4 186.2 L-319.2 184.6 L-317.9 183.1 L-316.5 181.7 L-315 180.5 L-313.4 179.4 L-311.7 178.3 L-310 177.5 L-308.2 176.8 L-306.3 176.2 L-304.4 175.8 L-302.4 175.5 L-300.5 175.4 L-298.5 175.4 L-296.6 175.6 L-294.7 176 L-292.8 176.5 L-290.9 177.1 L-289.1 177.9 L-287.4 178.8 L-285.8 179.9 L-284.2 181.1 L-282.8 182.4 L-281.4 183.8 L-280.2 185.4 L-279.1 187 L-278.1 188.7 L-277.3 190.5 L-276.6 192.3 L-276.1 194.2 L-275.7 196.1 L-275.4 198 L-275.4 200 Z " />
<path stroke="rgb(0,0,0)" stroke-opacity="1" fill="rgb(255,255,255)" fill-opacity="1" d="M-776.3 -375.6 L-778.2 -375.7 L-780.2 -375.7 L-782.2 -375.7 L-784.1 -375.7 L-786.1 -375.8 L-788 -375.8 L-790 -375.8 L-792 -375.9 L-793.9 -375.9 L-795.9 -375.9 L-797.8 -375.9 L-799.8 -376 L-801.8 -376 L-803.7 -376 L-805.7 -376 L-807.7 -376.1 L-809.6 -376.1 L-811.6 -376.1 L-813.5 -376.1 L-815.5 -376.2 L-817.5 -376.2 L-819.4 -376.2 L-821.4 -376.2 L-823.3 -376.3 L-825.3 -376.3 L-825.3 -378.2 L-825.3 -380.2 L-825.2 -382.2 L-825.2 -384.1 L-825.2 -386.1 L-825.2 -388 L-825.1 -390 L-825.1 -392 L-825.1 -393.9 L-825.1 -395.9 L-825 -397.9 L-825 -399.8 L-825 -401.8 L-825 -403.7 L-824.9 -405.7 L-824.9 -407.7 L-824.9 -409.6 L-824.9 -411.6 L-824.8 -413.5 L-824.8 -415.5 L-824.8 -417.5 L-824.8 -419.4 L-824.7 -421.4 L-824.7 -423.4 L-824.7 -425.3 L-822.7 -425.3 L-820.8 -425.3 L-818.8 -425.2 L-816.8 -425.2 L-814.9 -425.2 L-812.9 -425.2 L-810.9 -425.1 L-809 -425.1 L-807 -425.1 L-805.1 -425.1 L-803.1 -425 L-801.1 -425 L-799.2 -425 L-797.2 -425 L-795.3 -424.9 L-793.3 -424.9 L-791.3 -424.9 L-789.4 -424.9 L-787.4 -424.8 L-785.4 -424.8 L-783.5 -424.8 L-781.5 -424.8 L-779.6 -424.7 L-777.6 -424.7 L-775.6 -424.7 L-775.7 -422.7 L-775.7 -420.8 L-775.7 -418.8 L-775.7 -416.8 L-775.8 -414.9 L-775.8 -412.9 L-775.8 -411 L-775.8 -409 L-775.9 -407 L-775.9 -405.1 L-775.9 -403.1 L-775.9 -401.1 L-776 -399.2 L-776 -397.2 L-776 -395.3 L-776 -393.3 L-776.1 -391.3 L-776.1 -389.4 L-776.1 -387.4 L-776.1 -385.5 L-776.2 -383.5 L-776.2 -381.5 L-776.2 -379.6 L-776.2 -377.6 L-776.3 -375.6 Z " />
<path stroke="rgb(0,0,0)" stroke-opacity="0.0759" fill="rgb(255,255,255)" fill-opacity="1" d="M-75.36 200 L-75.44 202 L-75.68 203.9 L-76.06 205.8 L-76.6 207.7 L-77.29 209.5 L-78.12 211.3 L-79.08 213 L-80.18 214.6 L-81.41 216.2 L-82.75 217.6 L-84.2 218.9 L-85.76 220.1 L-87.4 221.2 L-89.12 222.1 L-90.91 222.9 L-92.76 223.5 L-94.65 224 L-96.58 224.4 L-98.53 224.6 L-100.5 224.6 L-102.4 224.5 L-104.4 224.2 L-106.3 223.8 L-108.2 223.2 L-110 222.5 L-111.7 221.7 L-113.4 220.6 L-115 219.5 L-116.5 218.3 L-117.9 216.9 L-119.2 215.4 L-120.4 213.8 L-121.4 212.2 L-122.3 210.4 L-123.1 208.6 L-123.7 206.8 L-124.1 204.9 L-124.5 202.9 L-124.6 201 L-124.6 199 L-124.5 197.1 L-124.1 195.1 L-123.7 193.2 L-123.1 191.4 L-122.3 189.6 L-121.4 187.8 L-120.4 186.2 L-119.2 184.6 L-117.9 183.1 L-116.5 181.7 L-115 180.5 L-113.4 179.4 L-111.7 178.3 L-110 177.5 L-108.2 176.8 L-106.3 176.2 L-104.4 175.8 L-102.4 175.5 L-100.5 175.4 L-98.53 175.4 L-96.58 175.6 L-94.65 176 L-92.76 176.5 L-90.91 177.1 L-89.12 177.9 L-87.4 178.8 L-85.76 179.9 L-84.2 181.1 L-82.75 182.4 L-81.41 183.8 L-80.18 185.4 L-79.08 187 L-78.12 188.7 L-77.29 190.5 L-76.6 192.3 L-76.06 194.2 L-75.68 196.1 L-75.44 198 L-75.36 200 Z " />
<path stroke="rgb(0,0,0)" stroke-opacity="1" fill="rgb(255,255,255)" fill-opacity="1" d="M-576.3 -375.6 L-578.2 -375.7 L-580.2 -375.7 L-582.2 -375.7 L-584.1 -375.7 L-586.1 -375.8 L-588 -375.8 L-590 -375.8 L-592 -375.9 L-593.9 -375.9 L-595.9 -375.9 L-597.8 -375.9 L-599.8 -376 L-601.8 -376 L-603.7 -376 L-605.7 -376 L-607.7 -376.1 L-609.6 -376.1 L-611.6 -376.1 L-613.5 -376.1 L-615.5 -376.2 L-617.5 -376.2 L-619.4 -376.2 L-621.4 -376.2 L-623.3 -376.3 L-625.3 -376.3 L-625.3 -378.2 L-625.3 -380.2 L-625.2 -382.2 L-625.2 -384.1 L-625.2 -386.1 L-625.2 -388 L-625.1 -390 L-625.1 -392 L-625.1 -393.9 L-625.1 -395.9 L-625 -397.9 L-625 -399.8 L-625 -401.8 L-625 -403.7 L-624.9 -405.7 L-624.9 -407.7 L-624.9 -409.6 L-624.9 -411.6 L-624.8 -413.5 L-624.8 -415.5 L-624.8 -417.5 L-624.8 -419.4 L-624.7 -421.4 L-624.7 -423.4 L-624.7 -425.3 L-622.7 -425.3 L-620.8 -425.3 L-618.8 -425.2 L-616.8 -425.2 L-614.9 -425.2 L-612.9 -425.2 L-610.9 -425.1 L-609 -425.1 L-607 -425.1 L-605.1 -425.1 L-603.1 -425 L-601.1 -425 L-599.2 -425 L-597.2 -425 L-595.3 -424.9 L-593.3 -424.9 L-591.3 -424.9 L-589.4 -424.9 L-587.4 -424.8 L-585.4 -424.8 L-583.5 -424.8 L-581.5 -424.8 L-579.6 -424.7 L-577.6 -424.7 L-575.6 -424.7 L-575.7 -422.7 L-575.7 -420.8 L-575.7 -418.8 L-575.7 -416.8 L-575.8 -414.9 L-575.8 -412.9 L-575.8 -411 L-575.8 -409 L-575.9 -407 L-575.9 -405.1 L-575.9 -403.1 L-575.9 -401.1 L-576 -399.2 L-576 -397.2 L-576 -395.3 L-576 -393.3 L-576.1 -391.3 L-576.1 -389.4 L-576.1 -387.4 L-576.1 -385.5 L-576.2 -383.5 L-576.2 -381.5 L-576.2 -379.6 L-576.2 -377.6 L-576.3 -375.6 Z " />
<path stroke="rgb(0,0,0)" stroke-opacity="0.0759" fill="rgb(255,255,255)" fill-opacity="1" d="M124.6 200 L124.6 202 L124.3 203.9 L123.9 205.8 L123.4 207.7 L122.7 209.5 L121.9 211.3 L120.9 213 L119.8 214.6 L118.6 216.2 L117.2 217.6 L115.8 218.9 L114.2 220.1 L112.6 221.2 L110.9 222.1 L109.1 222.9 L107.2 223.5 L105.3 224 L103.4 224.4 L101.5 224.6 L99.51 224.6 L97.56 224.5 L95.62 224.2 L93.71 223.8 L91.84 223.2 L90.02 222.5 L88.26 221.7 L86.58 220.6 L84.98 219.5 L83.47 218.3 L82.08 216.9 L80.79 215.4 L79.63 213.8 L78.59 212.2 L77.69 210.4 L76.93 208.6 L76.32 206.8 L75.86 204.9 L75.55 202.9 L75.39 201 L75.39 199 L75.55 197.1 L75.86 195.1 L76.32 193.2 L76.93 191.4 L77.69 189.6 L78.59 187.8 L79.63 186.2 L80.79 184.6 L82.08 183.1 L83.47 181.7 L84.98 180.5 L86.58 179.4 L88.26 178.3 L90.02 177.5 L91.84 176.8 L93.71 176.2 L95.62 175.8 L97.56 175.5 L99.51 175.4 L101.5 175.4 L103.4 175.6 L105.3 176 L107.2 176.5 L109.1 177.1 L110.9 177.9 L112.6 178.8 L114.2 179.9 L115.8 181.1 L117.2 182.4 L118.6 183.8 L119.8 185.4 L120.9 187 L121.9 188.7 L122.7 190.5 L123.4 192.3 L123.9 194.2 L124.3 196.1 L124.6 198 L124.6 200 Z " />
<path stroke="rgb(0,0,0)" stroke-opacity="1" fill="rgb(255,255,255)" fill-opacity="1" d="M-376.3 -375.6 L-378.2 -375.7 L-380.2 -375.7 L-382.2 -375.7 L-384.1 -375.7 L-386.1 -375.8 L-388 -375.8 L-390 -375.8 L-392 -375.9 L-393.9 -375.9 L-395.9 -375.9 L-397.8 -375.9 L-399.8 -376 L-401.8 -376 L-403.7 -376 L-405.7 -376 L-407.7 -376.1 L-409.6 -376.1 L-411.6 -376.1 L-413.5 -376.1 L-415.5 -376.2 L-417.5 -376.2 L-419.4 -376.2 L-421.4 -376.2 L-423.3 -376.3 L-425.3 -376.3 L-425.3 -378.2 L-425.3 -380.2 L-425.2 -382.2 L-425.2 -384.1 L-425.2 -386.1 L-425.2 -388 L-425.1 -390 L-425.1 -392 L-425.1 -393.9 L-425.1 -395.9 L-425 -397.9 L-425 -399.8 L-425 -401.8 L-425 -403.7 L-424.9 -405.7 L-424.9 -407.7 L-424.9 -409.6 L-424.9 -411.6 L-424.8 -413.5 L-424.8 -415.5 L-424.8 -417.5 L-424.8 -419.4 L-424.7 -421.4 L-424.7 -423.4 L-424.7 -425.3 L-422.7 -425.3 L-420.8 -425.3 L-418.8 -425.2 L-416.8 -425.2 L-414.9 -425.2 L-412.9 -425.2 L-410.9 -425.1 L-409 -425.1 L-407 -425.1 L-405.1 -425.1 L-403.1 -425 L-401.1 -425 L-399.2 -425 L-397.2 -425 L-395.3 -424.9 L-393.3 -424.9 L-391.3 -424.9 L-389.4 -424.9 L-387.4 -424.8 L-385.4 -424.8 L-383.5 -424.8 L-381.5 -424.8 L-379.6 -424.7 L-377.6 -424.7 L-375.6 -424.7 L-375.7 -422.7 L-375.7 -420.8 L-375.7 -418.8 L-375.7 -416.8 L-375.8 -414.9 L-375.8 -412.9 L-375.8 -411 L-375.8 -409 L-375.9 -407 L-375.9 -405.1 L-375.9 -403.1 L-375.9 -401.1 L-376 -399.2 L-376 -397.2 L-376 -395.3 L-376 -393.3 L-376.1 -391.3 L-376.1 -389.4 L-376.1 -387.4 L-376.1 -385.5 L-376.2 -383.5 L-376.2 -381.5 L-376.2 -379.6 L-376.2 -377.6 L-376.3 -375.6 Z " />
<path stroke="rgb(0,0,0)" stroke-opacity="0.0759" fill="rgb(255,255,255)" fill-opacity="1" d="M324.6 200 L324.6 202 L324.3 203.9 L323.9 205.8 L323.4 207.7 L322.7 209.5 L321.9 211.3 L320.9 213 L319.8 214.6 L318.6 216.2 L317.2 217.6 L315.8 218.9 L314.2 220.1 L312.6 221.2 L310.9 222.1 L309.1 222.9 L307.2 223.5 L305.3 224 L303.4 224.4 L301.5 224.6 L299.5 224.6 L297.6 224.5 L295.6 224.2 L293.7 223.8 L291.8 223.2 L290 222.5 L288.3 221.7 L286.6 220.6 L285 219.5 L283.5 218.3 L282.1 216.9 L280.8 215.4 L279.6 213.8 L278.6 212.2 L277.7 210.4 L276.9 208.6 L276.3 206.8 L275.9 204.9 L275.5 202.9 L275.4 201 L275.4 199 L275.5 197.1 L275.9 195.1 L276.3 193.2 L276.9 191.4 L277.7 189.6 L278.6 187.8 L279.6 186.2 L280.8 184.6 L282.1 183.1 L283.5 181.7 L285 180.5 L286.6 179.4 L288.3 178.3 L290 177.5 L291.8 176.8 L293.7 176.2 L295.6 175.8 L297.6 175.5 L299.5 175.4 L301.5 175.4 L303.4 175.6 L305.3 176 L307.2 176.5 L309.1 177.1 L310.9 177.9 L312.6 178.8 L314.2 179.9 L315.8 181.1 L317.2 182.4 L318.6 183.8 L319.8 185.4 L320.9 187 L321.9 188.7 L322.7 190.5 L323.4 192.3 L323.9 194.2 L324.3 196.1 L324.6 198 L324.6 200 Z " />
<path stroke="rgb(0,0,0)" stroke-opacity="1" fill="rgb(255,255,255)" fill-opacity="1" d="M-876.3 -275.6 L-878.2 -275.7 L-880.2 -275.7 L-882.2 -275.7 L-884.1 -275.7 L-886.1 -275.8 L-888 -275.8 L-890 -275.8 L-892 -275.9 L-893.9 -275.9 L-895.9 -275.9 L-897.8 -275.9 L-899.8 -276 L-901.8 -276 L-903.7 -276 L-905.7 -276 L-907.7 -276.1 L-909.6 -276.1 L-911.6 -276.1 L-913.5 -276.1 L-915.5 -276.2 L-917.5 -276.2 L-919.4 -276.2 L-921.4 -276.2 L-923.3 -276.3 L-925.3 -276.3 L-925.3 -278.2 L-925.3 -280.2 L-925.2 -282.2 L-925.2 -284.1 L-925.2 -286.1 L-925.2 -288 L-925.1 -290 L-925.1 -292 L-925.1 -293.9 L-925.1 -295.9 L-925 -297.9 L-925 -299.8 L-925 -301.8 L-925 -303.7 L-924.9 -305.7 L-924.9 -307.7 L-924.9 -309.6 L-924.9 -311.6 L-924.8 -313.5 L-924.8 -315.5 L-924.8 -317.5 L-924.8 -319.4 L-924.7 -321.4 L-924.7 -323.4 L-924.7 -325.3 L-922.7 -325.3 L-920.8 -325.3 L-918.8 -325.2 L-916.8 -325.2 L-914.9 -325.2 L-912.9 -325.2 L-910.9 -325.1 L-909 -325.1 L-907 -325.1 L-905.1 -325.1 L-903.1 -325 L-901.1 -325 L-899.2 -325 L-897.2 -325 L-895.3 -324.9 L-893.3 -324.9 L-891.3 -324.9 L-889.4 -324.9 L-887.4 -324.8 L-885.4 -324.8 L-883.5 -324.8 L-881.5 -324.8 L-879.6 -324.7 L-877.6 -324.7 L-875.6 -324.7 L-875.7 -322.7 L-875.7 -320.8 L-875.7 -318.8 L-875.7 -316.8 L-875.8 -314.9 L-875.8 -312.9 L-875.8 -311 L-875.8 -309 L-875.9 -307 L-875.9 -305.1 L-875.9 -303.1 L-875.9 -301.1 L-876 -299.2 L-876 -297.2 L-876 -295.3 L-876 -293.3 L-876.1 -291.3 L-876.1 -289.4 L-876.1 -287.4 L-876.1 -285.5 L-876.2 -283.5 L-876.2 -281.5 L-876.2 -279.6 L-876.2 -277.6 L-876.3 -275.6 Z " />
<path stroke="rgb(0,0,0)" stroke-opacity="0.0759" fill="rgb(255,255,255)" fill-opacity="1" d="M-175.4 300 L-175.4 302 L-175.7 303.9 L-176.1 305.8 L-176.6 307.7 L-177.3 309.5 L-178.1 311.3 L-179.1 313 L-180.2 314.6 L-181.4 316.2 L-182.8 317.6 L-184.2 318.9 L-185.8 320.1 L-187.4 321.2 L-189.1 322.1 L-190.9 322.9 L-192.8 323.5 L-194.7 324 L-196.6 324.4 L-198.5 324.6 L-200.5 324.6 L-202.4 324.5 L-204.4 324.2 L-206.3 323.8 L-208.2 323.2 L-210 322.5 L-211.7 321.7 L-213.4 320.6 L-215 319.5 L-216.5 318.3 L-217.9 316.9 L-219.2 315.4 L-220.4 313.8 L-221.4 312.2 L-222.3 310.4 L-223.1 308.6 L-223.7 306.8 L-224.1 304.9 L-224.5 302.9 L-224.6 301 L-224.6 299 L-224.5 297.1 L-224.1 295.1 L-223.7 293.2 L-223.1 291.4 L-222.3 289.6 L-221.4 287.8 L-220.4 286.2 L-219.2 284.6 L-217.9 283.1 L-216.5 281.7 L-215 280.5 L-213.4 279.4 L-211.7 278.3 L-210 277.5 L-208.2 276.8 L-206.3 276.2 L-204.4 275.8 L-202.4 275.5 L-200.5 275.4 L-198.5 275.4 L-196.6 275.6 L-194.7 276 L-192.8 276.5 L-190.9 277.1 L-189.1 277.9 L-187.4 278.8 L-185.8 279.9 L-184.2 281.1 L-182.8 282.4 L-181.4 283.8 L-180.2 285.4 L-179.1 287 L-178.1 288.7 L-177.3 290.5 L-176.6 292.3 L-176.1 294.2 L-175.7 296.1 L-175.4 298 L-175.4 300 Z " />
<path stroke="rgb(0,0,0)" stroke-opacity="1" fill="rgb(255,255,255)" fill-opacity="1" d="M-676.3 -275.6 L-678.2 -275.7 L-680.2 -275.7 L-682.2 -275.7 L-684.1 -275.7 L-686.1 -275.8 L-688 -275.8 L-690 -275.8 L-692 -275.9 L-693.9 -275.9 L-695.9 -275.9 L-697.8 -275.9 L-699.8 -276 L-701.8 -276 L-703.7 -276 L-705.7 -276 L-707.7 -276.1 L-709.6 -276.1 L-711.6 -276.1 L-713.5 -276.1 L-715.5 -276.2 L-717.5 -276.2 L-719.4 -276.2 L-721.4 -276.2 L-723.3 -276.3 L-725.3 -276.3 L-725.3 -278.2 L-725.3 -280.2 L-725.2 -282.2 L-725.2 -284.1 L-725.2 -286.1 L-725.2 -288 L-725.1 -290 L-725.1 -292 L-725.1 -293.9 L-725.1 -295.9 L-725 -297.9 L-725 -299.8 L-725 -301.8 L-725 -303.7 L-724.9 -305.7 L-724.9 -307.7 L-724.9 -309.6 L-724.9 -311.6 L-724.8 -313.5 L-724.8 -315.5 L-724.8 -317.5 L-724.8 -319.4 L-724.7 -321.4 L-724.7 -323.4 L-724.7 -325.3 L-722.7 -325.3 L-720.8 -325.3 L-718.8 -325.2 L-716.8 -325.2 L-714.9 -325.2 L-712.9 -325.2 L-710.9 -325.1 L-709 -325.1 L-707 -325.1 L-705.1 -325.1 L-703.1 -325 L-701.1 -325 L-699.2 -325 L-697.2 -325 L-695.3 -324.9 L-693.3 -324.9 L-691.3 -324.9 L-689.4 -324.9 L-687.4 -324.8 L-685.4 -324.8 L-683.5 -324.8 L-681.5 -324.8 L-679.6 -324.7 L-677.6 -324.7 L-675.6 -324.7 L-675.7 -322.7 L-675.7 -320.8 L-675.7 -318.8 L-675.7 -316.8 L-675.8 -314.9 L-675.8 -312.9 L-675.8 -311 L-675.8 -309 L-675.9 -307 L-675.9 -305.1 L-675.9 -303.1 L-675.9 -301.1 L-676 -299.2 L-676 -297.2 L-676 -295.3 L-676 -293.3 L-676.1 -291.3 L-676.1 -289.4 L-676.1 -287.4 L-676.1 -285.5 L-676.2 -283.5 L-676.2 -281.5 L-676.2 -279.6 L-676.2 -277.6 L-676.3 -275.6 Z " />
<path stroke="rgb(0,0,0)" stroke-opacity="0.0759" fill="rgb(255,255,255)" fill-opacity="1" d="M24.64 300 L24.56 302 L24.32 303.9 L23.94 305.8 L23.4 307.7 L22.71 309.5 L21.88 311.3 L20.92 313 L19.82 314.6 L18.59 316.2 L17.25 317.6 L15.8 318.9 L14.24 320.1 L12.6 321.2 L10.88 322.1 L9.09 322.9 L7.242 323.5 L5.349 324 L3.422 324.4 L1.473 324.6 L-0.4851 324.6 L-2.44 324.5 L-4.38 324.2 L-6.291 323.8 L-8.164 323.2 L-9.984 322.5 L-11.74 321.7 L-13.42 320.6 L-15.02 319.5 L-16.53 318.3 L-17.92 316.9 L-19.21 315.4 L-20.37 313.8 L-21.41 312.2 L-22.31 310.4 L-23.07 308.6 L-23.68 306.8 L-24.14 304.9 L-24.45 302.9 L-24.61 301 L-24.61 299 L-24.45 297.1 L-24.14 295.1 L-23.68 293.2 L-23.07 291.4 L-22.31 289.6 L-21.41 287.8 L-20.37 286.2 L-19.21 284.6 L-17.92 283.1 L-16.53 281.7 L-15.02 280.5 L-13.42 279.4 L-11.74 278.3 L-9.984 277.5 L-8.164 276.8 L-6.291 276.2 L-4.38 275.8 L-2.44 275.5 L-0.4851 275.4 L1.473 275.4 L3.422 275.6 L5.349 276 L7.242 276.5 L9.09 277.1 L10.88 277.9 L12.6 278.8 L14.24 279.9 L15.8 281.1 L17.25 282.4 L18.59 283.8 L19.82 285.4 L20.92 287 L21.88 288.7 L22.71 290.5 L23.4 292.3 L23.94 294.2 L24.32 296.1 L24.56 298 L24.64 300 Z " />
<path stroke="rgb(0,0,0)" stroke-opacity="1" fill="rgb(255,255,255)" fill-opacity="1" d="M-476.3 -275.6 L-478.2 -275.7 L-480.2 -275.7 L-482.2 -275.7 L-484.1 -275.7 L-486.1 -275.8 L-488 -275.8 L-490 -275.8 L-492 -275.9 L-493.9 -275.9 L-495.9 -275.9 L-497.8 -275.9 L-499.8 -276 L-501.8 -276 L-503.7 -276 L-505.7 -276 L-507.7 -276.1 L-509.6 -276.1 L-511.6 -276.1 L-513.5 -276.1 L-515.5 -276.2 L-517.5 -276.2 L-519.4 -276.2 L-521.4 -276.2 L-523.3 -276.3 L-525.3 -276.3 L-525.3 -278.2 L-525.3 -280.2 L-525.2 -282.2 L-525.2 -284.1 L-525.2 -286.1 L-525.2 -288 L-525.1 -290 L-525.1 -292 L-525.1 -293.9 L-525.1 -295.9 L-525 -297.9 L-525 -299.8 L-525 -301.8 L-525 -303.7 L-524.9 -305.7 L-524.9 -307.7 L-524.9 -309.6 L-524.9 -311.6 L-524.8 -313.5 L-524.8 -315.5 L-524.8 -317.5 L-524.8 -319.4 L-524.7 -321.4 L-524.7 -323.4 L-524.7 -325.3 L-522.7 -325.3 L-520.8 -325.3 L-518.8 -325.2 L-516.8 -325.2 L-514.9 -325.2 L-512.9 -325.2 L-510.9 -325.1 L-509 -325.1 L-507 -325.1 L-505.1 -325.1 L-503.1 -325 L-501.1 -325 L-499.2 -325 L-497.2 -325 L-495.3 -324.9 L-493.3 -324.9 L-491.3 -324.9 L-489.4 -324.9 L-487.4 -324.8 L-485.4 -324.8 L-483.5 -324.8 L-481.5 -324.8 L-479.6 -324.7 L-477.6 -324.7 L-475.6 -324.7 L-475.7 -322.7 L-475.7 -320.8 L-475.7 -318.8 L-475.7 -316.8 L-475.8 -314.9 L-475.8 -312.9 L-475.8 -311 L-475.8 -309 L-475.9 -307 L-475.9 -305.1 L-475.9 -303.1 L-475.9 -301.1 L-476 -299.2 L-476 -297.2 L-476 -295.3 L-476 -293.3 L-476.1 -291.3 L-476.1 -289.4 L-476.1 -287.4 L-476.1 -285.5 L-476.2 -283.5 L-476.2 -281.5 L-476.2 -279.6 L-476.2 -277.6 L-476.3 -275.6 Z " />
<path stroke="rgb(0,0,0)" stroke-opacity="0.0759" fill="rgb(255,255,255)" fill-opacity="1" d="M224.6 300 L224.6 302 L224.3 303.9 L223.9 305.8 L223.4 307.7 L222.7 309.5 L221.9 311.3 L220.9 313 L219.8 314.6 L218.6 316.2 L217.2 317.6 L215.8 318.9 L214.2 320.1 L212.6 321.2 L210.9 322.1 L209.1 322.9 L207.2 323.5 L205.3 324 L203.4 324.4 L201.5 324.6 L199.5 324.6 L197.6 324.5 L195.6 324.2 L193.7 323.8 L191.8 323.2 L190 322.5 L188.3 321.7 L186.6 320.6 L185 319.5 L183.5 318.3 L182.1 316.9 L180.8 315.4 L179.6 313.8 L178.6 312.2 L177.7 310.4 L176.9 308.6 L176.3 306.8 L175.9 304.9 L175.5 302.9 L175.4 301 L175.4 299 L175.5 297.1 L175.9 295.1 L176.3 293.2 L176.9 291.4 L177.7 289.6 L178.6 287.8 L179.6 286.2 L180.8 284.6 L182.1 283.1 L183.5 281.7 L185 280.5 L186.6 279.4 L188.3 278.3 L190 277.5 L191.8 276.8 L193.7 276.2 L195.6 275.8 L197.6 275.5 L199.5 275.4 L201.5 275.4 L203.4 275.6 L205.3 276 L207.2 276.5 L209.1 277.1 L210.9 277.9 L212.6 278.8 L214.2 279.9 L215.8 281.1 L217.2 282.4 L218.6 283.8 L219.8 285.4 L220.9 287 L221.9 288.7 L222.7 290.5 L223.4 292.3 L223.9 294.2 L224.3 296.1 L224.6 298 L224.6 300 Z " />
<path stroke="rgb(0,0,0)" stroke-opacity="1" fill="rgb(255,255,255)" fill-opacity="1" d="M-276.3 -275.6 L-278.2 -275.7 L-280.2 -275.7 L-282.2 -275.7 L-284.1 -275.7 L-286.1 -275.8 L-288 -275.8 L-290 -275.8 L-292 -275.9 L-293.9 -275.9 L-295.9 -275.9 L-297.8 -275.9 L-299.8 -276 L-301.8 -276 L-303.7 -276 L-305.7 -276 L-307.7 -276.1 L-309.6 -276.1 L-311.6 -276.1 L-313.5 -276.1 L-315.5 -276.2 L-317.5 -276.2 L-319.4 -276.2 L-321.4 -276.2 L-323.3 -276.3 L-325.3 -276.3 L-325.3 -278.2 L-325.3 -280.2 L-325.2 -282.2 L-325.2 -284.1 L-325.2 -286.1 L-325.2 -288 L-325.1 -290 L-325.1 -292 L-325.1 -293.9 L-325.1 -295.9 L-325 -297.9 L-325 -299.8 L-325 -301.8 L-325 -303.7 L-324.9 -305.7 L-324.9 -307.7 L-324.9 -309.6 L-324.9 -311.6 L-324.8 -313.5 L-324.8 -315.5 L-324.8 -317.5 L-324.8 -319.4 L-324.7 -321.4 L-324.7 -323.4 L-324.7 -325.3 L-322.7 -325.3 L-320.8 -325.3 L-318.8 -325.2 L-316.8 -325.2 L-314.9 -325.2 L-312.9 -325.2 L-310.9 -325.1 L-309 -325.1 L-307 -325.1 L-305.1 -325.1 L-303.1 -325 L-301.1 -325 L-299.2 -325 L-297.2 -325 L-295.3 -324.9 L-293.3 -324.9 L-291.3 -324.9 L-289.4 -324.9 L-287.4 -324.8 L-285.4 -324.8 L-283.5 -324.8 L-281.5 -324.8 L-279.6 -324.7 L-277.6 -324.7 L-275.6 -324.7 L-275.7 -322.7 L-275.7 -320.8 L-275.7 -318.8 L-275.7 -316.8 L-275.8 -314.9 L-275.8 -312.9 L-275.8 -311 L-275.8 -309 L-275.9 -307 L-275.9 -305.1 L-275.9 -303.1 L-275.9 -301.1 L-276 -299.2 L-276 -297.2 L-276 -295.3 L-276 -293.3 L-276.1 -291.3 L-276.1 -289.4 L-276.1 -287.4 L-276.1 -285.5 L-276.2 -283.5 L-276.2 -281.5 L-276.2 -279.6 L-276.2 -277.6 L-276.3 -275.6 Z " />
</g>
</g>
</svg>
