<!DOCTYPE svg>
<svg xmlns="http://www.w3.org/2000/svg" xmlns:xlink="http://www.w3.org/1999/xlink" width="1000" height="1000">
<g transform="translate(500.000000,500.000000)">
<g transform="scale(3.000000,3.000000)">
<path stroke="rgb(0,0,0)" stroke-opacity="1" fill="rgb(255,255,255)" fill-opacity="1" d="M-376.3 -425.2 L-376.3 -423.2 L-376.2 -421.2 L-376.2 -419.2 L-376.1 -417.3 L-376.1 -415.3 L-376.1 -413.3 L-376 -411.3 L-376 -409.4 L-375.9 -407.4 L-375.9 -405.4 L-375.9 -403.4 L-375.8 -401.5 L-375.8 -399.5 L-375.7 -397.5 L-375.7 -395.5 L-375.7 -393.6 L-375.6 -391.6 L-375.6 -389.6 L-375.6 -387.6 L-375.5 -385.7 L-375.5 -383.7 L-375.4 -381.7 L-375.4 -379.7 L-375.4 -377.8 L-375.3 -375.8 L-377.3 -375.8 L-379.3 -375.7 L-381.2 -375.7 L-383.2 -375.6 L-385.2 -375.6 L-387.2 -375.6 L-389.1 -375.5 L-391.1 -375.5 L-393.1 -375.5 L-395.1 -375.4 L-397 -375.4 L-399 -375.3 L-401 -375.3 L-403 -375.3 L-404.9 -375.2 L-406.9 -375.2 L-408.9 -375.1 L-410.9 -375.1 L-412.8 -375.1 L-414.8 -375 L-416.8 -375 L-418.8 -375 L-420.7 -374.9 L-422.7 -374.9 L-424.7 -374.8 L-424.7 -376.8 L-424.8 -378.8 L-424.8 -380.8 L-424.8 -382.7 L-424.9 -384.7 L-424.9 -386.7 L-425 -388.7 L-425 -390.6 L-425 -392.6 L-425.1 -394.6 L-425.1 -396.6 L-425.1 -398.5 L-425.2 -400.5 L-425.2 -402.5 L-425.3 -404.4 L-425.3 -406.4 L-425.3 -408.4 L-425.4 -410.4 L-425.4 -412.3 L-425.5 -414.3 L-425.5 -416.3 L-425.5 -418.3 L-425.6 -420.2 L-425.6 -422.2 L-425.6 -424.2 L-423.7 -424.2 L-421.7 -424.3 L-419.7 -424.3 L-417.7 -424.3 L-415.8 -424.4 L-413.8 -424.4 L-411.8 -424.5 L-409.9 -424.5 L-407.9 -424.5 L-405.9 -424.6 L-403.9 -424.6 L-402 -424.7 L-400 -424.7 L-398 -424.7 L-396 -424.8 L-394.1 -424.8 L-392.1 -424.8 L-390.1 -424.9 L-388.1 -424.9 L-386.2 -425 L-384.2 -425 L-382.2 -425 L-380.2 -425.1 L-378.3 -425.1 L-376.3 -425.2 Z " />
<path stroke="rgb(0,0,0)" stroke-opacity="0.924" fill="rgb(255,255,255)" fill-opacity="1" d="M-175 -299.9 L-175.1 -298 L-175.4 -296 L-175.8 -294.1 L-176.3 -292.1 L-177 -290.3 L-177.9 -288.5 L-178.8 -286.8 L-180 -285.1 L-181.2 -283.6 L-182.6 -282.1 L-184 -280.8 L-185.6 -279.6 L-187.3 -278.5 L-189 -277.6 L-190.8 -276.8 L-192.7 -276.1 L-194.6 -275.6 L-196.6 -275.3 L-198.6 -275.1 L-200.5 -275.1 L-202.5 -275.2 L-204.5 -275.5 L-206.4 -275.9 L-208.3 -276.5 L-210.2 -277.2 L-211.9 -278.1 L-213.6 -279.1 L-215.3 -280.3 L-216.8 -281.5 L-218.2 -282.9 L-219.5 -284.4 L-220.7 -286 L-221.7 -287.7 L-222.6 -289.5 L-223.4 -291.3 L-224 -293.2 L-224.5 -295.1 L-224.8 -297.1 L-224.9 -299.1 L-224.9 -301 L-224.8 -303 L-224.4 -305 L-224 -306.9 L-223.3 -308.8 L-222.6 -310.6 L-221.7 -312.4 L-220.6 -314.1 L-219.4 -315.7 L-218.1 -317.1 L-216.7 -318.5 L-215.2 -319.8 L-213.6 -320.9 L-211.8 -322 L-210.1 -322.8 L-208.2 -323.6 L-206.3 -324.1 L-204.4 -324.6 L-202.4 -324.8 L-200.4 -324.9 L-198.5 -324.9 L-196.5 -324.7 L-194.5 -324.3 L-192.6 -323.8 L-190.7 -323.2 L-188.9 -322.4 L-187.2 -321.4 L-185.5 -320.3 L-184 -319.1 L-182.5 -317.8 L-181.1 -316.3 L-179.9 -314.8 L-178.8 -313.1 L-177.8 -311.4 L-177 -309.6 L-176.3 -307.8 L-175.7 -305.8 L-175.4 -303.9 L-175.1 -301.9 L-175 -299.9 Z " />
<path stroke="rgb(0,0,0)" stroke-opacity="1" fill="rgb(255,255,255)" fill-opacity="1" d="M-183.7 -427 L-183.2 -425.3 L-182.8 -423.5 L-182.4 -421.8 L-182 -420 L-181.6 -418.3 L-181.2 -416.5 L-180.8 -414.8 L-180.4 -413 L-180 -411.2 L-179.5 -409.5 L-179.1 -407.7 L-178.7 -406 L-178.3 -404.2 L-177.9 -402.5 L-177.5 -400.7 L-177.1 -399 L-176.7 -397.2 L-176.3 -395.5 L-175.8 -393.7 L-175.4 -392 L-175 -390.2 L-174.6 -388.5 L-174.2 -386.7 L-173.8 -385 L-173.4 -383.2 L-175.1 -382.8 L-176.9 -382.4 L-178.6 -382 L-180.4 -381.6 L-182.1 -381.2 L-183.9 -380.8 L-185.6 -380.3 L-187.4 -379.9 L-189.1 -379.5 L-190.9 -379.1 L-192.6 -378.7 L-194.4 -378.3 L-196.1 -377.9 L-197.9 -377.5 L-199.7 -377.1 L-201.4 -376.6 L-203.2 -376.2 L-204.9 -375.8 L-206.7 -375.4 L-208.4 -375 L-210.2 -374.6 L-211.9 -374.2 L-213.7 -373.8 L-215.4 -373.4 L-217.2 -372.9 L-217.6 -374.7 L-218 -376.4 L-218.4 -378.2 L-218.8 -379.9 L-219.2 -381.7 L-219.6 -383.5 L-220 -385.2 L-220.5 -387 L-220.9 -388.7 L-221.3 -390.5 L-221.7 -392.2 L-222.1 -394 L-222.5 -395.7 L-222.9 -397.5 L-223.3 -399.2 L-223.7 -401 L-224.2 -402.7 L-224.6 -404.5 L-225 -406.2 L-225.4 -408 L-225.8 -409.7 L-226.2 -411.5 L-226.6 -413.2 L-227 -415 L-227.4 -416.7 L-225.7 -417.1 L-223.9 -417.6 L-222.2 -418 L-220.4 -418.4 L-218.7 -418.8 L-216.9 -419.2 L-215.2 -419.6 L-213.4 -420 L-211.7 -420.4 L-209.9 -420.8 L-208.2 -421.3 L-206.4 -421.7 L-204.7 -422.1 L-202.9 -422.5 L-201.2 -422.9 L-199.4 -423.3 L-197.7 -423.7 L-195.9 -424.1 L-194.2 -424.5 L-192.4 -425 L-190.7 -425.4 L-188.9 -425.8 L-187.2 -426.2 L-185.4 -426.6 L-183.7 -427 Z " />
<path stroke="rgb(0,0,0)" stroke-opacity="0.924" fill="rgb(255,255,255)" fill-opacity="1" d="M24.95 -299.9 L24.87 -298 L24.63 -296 L24.23 -294.1 L23.68 -292.1 L22.98 -290.3 L22.14 -288.5 L21.15 -286.8 L20.04 -285.1 L18.79 -283.6 L17.43 -282.1 L15.95 -280.8 L14.38 -279.6 L12.71 -278.5 L10.97 -277.6 L9.153 -276.8 L7.28 -276.1 L5.361 -275.6 L3.408 -275.3 L1.434 -275.1 L-0.5499 -275.1 L-2.53 -275.2 L-4.494 -275.5 L-6.43 -275.9 L-8.325 -276.5 L-10.17 -277.2 L-11.95 -278.1 L-13.65 -279.1 L-15.26 -280.3 L-16.78 -281.5 L-18.2 -282.9 L-19.5 -284.4 L-20.67 -286 L-21.72 -287.7 L-22.62 -289.5 L-23.39 -291.3 L-24 -293.2 L-24.47 -295.1 L-24.78 -297.1 L-24.93 -299.1 L-24.93 -301 L-24.77 -303 L-24.45 -305 L-23.97 -306.9 L-23.35 -308.8 L-22.58 -310.6 L-21.66 -312.4 L-20.61 -314.1 L-19.43 -315.7 L-18.12 -317.1 L-16.7 -318.5 L-15.18 -319.8 L-13.56 -320.9 L-11.85 -322 L-10.07 -322.8 L-8.222 -323.6 L-6.324 -324.1 L-4.387 -324.6 L-2.422 -324.8 L-0.441 -324.9 L1.542 -324.9 L3.516 -324.7 L5.467 -324.3 L7.384 -323.8 L9.254 -323.2 L11.07 -322.4 L12.81 -321.4 L14.47 -320.3 L16.04 -319.1 L17.51 -317.8 L18.86 -316.3 L20.1 -314.8 L21.21 -313.1 L22.19 -311.4 L23.02 -309.6 L23.72 -307.8 L24.26 -305.8 L24.64 -303.9 L24.88 -301.9 L24.95 -299.9 Z " />
<path stroke="rgb(0,0,0)" stroke-opacity="1" fill="rgb(255,255,255)" fill-opacity="1" d="M-1.861 -424.1 L-0.8306 -423.2 L0.1998 -422.3 L1.23 -421.4 L2.261 -420.5 L3.291 -419.6 L4.322 -418.7 L5.352 -417.8 L6.382 -416.9 L7.413 -416 L8.443 -415.1 L9.474 -414.2 L10.5 -413.3 L11.53 -412.4 L12.56 -411.5 L13.6 -410.6 L14.63 -409.7 L15.66 -408.8 L16.69 -407.9 L17.72 -407 L18.75 -406.1 L19.78 -405.2 L20.81 -404.3 L21.84 -403.4 L22.87 -402.5 L23.9 -401.6 L23 -400.6 L22.1 -399.6 L21.2 -398.5 L20.3 -397.5 L19.4 -396.5 L18.5 -395.5 L17.6 -394.4 L16.7 -393.4 L15.8 -392.4 L14.9 -391.3 L14 -390.3 L13.1 -389.3 L12.2 -388.2 L11.3 -387.2 L10.4 -386.2 L9.502 -385.2 L8.602 -384.1 L7.702 -383.1 L6.802 -382.1 L5.902 -381 L5.002 -380 L4.102 -379 L3.202 -377.9 L2.303 -376.9 L1.403 -375.9 L0.3722 -376.8 L-0.6582 -377.7 L-1.689 -378.6 L-2.719 -379.5 L-3.75 -380.4 L-4.78 -381.3 L-5.81 -382.2 L-6.841 -383.1 L-7.871 -384 L-8.902 -384.9 L-9.932 -385.8 L-10.96 -386.7 L-11.99 -387.6 L-13.02 -388.5 L-14.05 -389.4 L-15.08 -390.3 L-16.11 -391.2 L-17.15 -392.1 L-18.18 -393 L-19.21 -393.9 L-20.24 -394.8 L-21.27 -395.7 L-22.3 -396.6 L-23.33 -397.5 L-24.36 -398.4 L-23.46 -399.4 L-22.56 -400.4 L-21.66 -401.5 L-20.76 -402.5 L-19.86 -403.5 L-18.96 -404.6 L-18.06 -405.6 L-17.16 -406.6 L-16.26 -407.6 L-15.36 -408.7 L-14.46 -409.7 L-13.56 -410.7 L-12.66 -411.8 L-11.76 -412.8 L-10.86 -413.8 L-9.96 -414.9 L-9.06 -415.9 L-8.16 -416.9 L-7.26 -418 L-6.36 -419 L-5.461 -420 L-4.561 -421 L-3.661 -422.1 L-2.761 -423.1 L-1.861 -424.1 Z " />
<path stroke="rgb(0,0,0)" stroke-opacity="0.924" fill="rgb(255,255,255)" fill-opacity="1" d="M225 -299.9 L224.9 -298 L224.6 -296 L224.2 -294.1 L223.7 -292.1 L223 -290.3 L222.1 -288.5 L221.2 -286.8 L220 -285.1 L218.8 -283.6 L217.4 -282.1 L216 -280.8 L214.4 -279.6 L212.7 -278.5 L211 -277.6 L209.2 -276.8 L207.3 -276.1 L205.4 -275.6 L203.4 -275.3 L201.4 -275.1 L199.5 -275.1 L197.5 -275.2 L195.5 -275.5 L193.6 -275.9 L191.7 -276.5 L189.8 -277.2 L188.1 -278.1 L186.4 -279.1 L184.7 -280.3 L183.2 -281.5 L181.8 -282.9 L180.5 -284.4 L179.3 -286 L178.3 -287.7 L177.4 -289.5 L176.6 -291.3 L176 -293.2 L175.5 -295.1 L175.2 -297.1 L175.1 -299.1 L175.1 -301 L175.2 -303 L175.6 -305 L176 -306.9 L176.7 -308.8 L177.4 -310.6 L178.3 -312.4 L179.4 -314.1 L180.6 -315.7 L181.9 -317.1 L183.3 -318.5 L184.8 -319.8 L186.4 -320.9 L188.2 -322 L189.9 -322.8 L191.8 -323.6 L193.7 -324.1 L195.6 -324.6 L197.6 -324.8 L199.6 -324.9 L201.5 -324.9 L203.5 -324.7 L205.5 -324.3 L207.4 -323.8 L209.3 -323.2 L211.1 -322.4 L212.8 -321.4 L214.5 -320.3 L216 -319.1 L217.5 -317.8 L218.9 -316.3 L220.1 -314.8 L221.2 -313.1 L222.2 -311.4 L223 -309.6 L223.7 -307.8 L224.3 -305.8 L224.6 -303.9 L224.9 -301.9 L225 -299.9 Z " />
<path stroke="rgb(0,0,0)" stroke-opacity="1" fill="rgb(255,255,255)" fill-opacity="1" d="M189 -415.7 L190 -415.5 L191.1 -415.3 L192.1 -415.1 L193.2 -415 L194.3 -414.8 L195.3 -414.6 L196.4 -414.4 L197.4 -414.2 L198.5 -414 L199.6 -413.8 L200.6 -413.6 L201.7 -413.4 L202.8 -413.3 L203.8 -413.1 L204.9 -412.9 L205.9 -412.7 L207 -412.5 L208.1 -412.3 L209.1 -412.1 L210.2 -411.9 L211.2 -411.7 L212.3 -411.6 L213.4 -411.4 L214.4 -411.2 L215.5 -411 L215.3 -409.9 L215.1 -408.9 L214.9 -407.8 L214.7 -406.7 L214.5 -405.7 L214.4 -404.6 L214.2 -403.6 L214 -402.5 L213.8 -401.4 L213.6 -400.4 L213.4 -399.3 L213.2 -398.3 L213 -397.2 L212.8 -396.1 L212.7 -395.1 L212.5 -394 L212.3 -393 L212.1 -391.9 L211.9 -390.8 L211.7 -389.8 L211.5 -388.7 L211.3 -387.6 L211.1 -386.6 L211 -385.5 L210.8 -384.5 L209.7 -384.7 L208.6 -384.8 L207.6 -385 L206.5 -385.2 L205.5 -385.4 L204.4 -385.6 L203.3 -385.8 L202.3 -386 L201.2 -386.2 L200.2 -386.4 L199.1 -386.5 L198 -386.7 L197 -386.9 L195.9 -387.1 L194.8 -387.3 L193.8 -387.5 L192.7 -387.7 L191.7 -387.9 L190.6 -388.1 L189.5 -388.2 L188.5 -388.4 L187.4 -388.6 L186.4 -388.8 L185.3 -389 L184.2 -389.2 L184.4 -390.2 L184.6 -391.3 L184.8 -392.4 L185 -393.4 L185.2 -394.5 L185.4 -395.6 L185.6 -396.6 L185.7 -397.7 L185.9 -398.7 L186.1 -399.8 L186.3 -400.9 L186.5 -401.9 L186.7 -403 L186.9 -404 L187.1 -405.1 L187.3 -406.2 L187.4 -407.2 L187.6 -408.3 L187.8 -409.3 L188 -410.4 L188.2 -411.5 L188.4 -412.5 L188.6 -413.6 L188.8 -414.7 L189 -415.7 Z " />
<path stroke="rgb(0,0,0)" stroke-opacity="0.924" fill="rgb(255,255,255)" fill-opacity="1" d="M-275 -199.9 L-275.1 -198 L-275.4 -196 L-275.8 -194.1 L-276.3 -192.1 L-277 -190.3 L-277.9 -188.5 L-278.8 -186.8 L-280 -185.1 L-281.2 -183.6 L-282.6 -182.1 L-284 -180.8 L-285.6 -179.6 L-287.3 -178.5 L-289 -177.6 L-290.8 -176.8 L-292.7 -176.1 L-294.6 -175.6 L-296.6 -175.3 L-298.6 -175.1 L-300.5 -175.1 L-302.5 -175.2 L-304.5 -175.5 L-306.4 -175.9 L-308.3 -176.5 L-310.2 -177.2 L-311.9 -178.1 L-313.6 -179.1 L-315.3 -180.3 L-316.8 -181.5 L-318.2 -182.9 L-319.5 -184.4 L-320.7 -186 L-321.7 -187.7 L-322.6 -189.5 L-323.4 -191.3 L-324 -193.2 L-324.5 -195.1 L-324.8 -197.1 L-324.9 -199.1 L-324.9 -201 L-324.8 -203 L-324.4 -205 L-324 -206.9 L-323.3 -208.8 L-322.6 -210.6 L-321.7 -212.4 L-320.6 -214.1 L-319.4 -215.7 L-318.1 -217.1 L-316.7 -218.5 L-315.2 -219.8 L-313.6 -220.9 L-311.8 -222 L-310.1 -222.8 L-308.2 -223.6 L-306.3 -224.1 L-304.4 -224.6 L-302.4 -224.8 L-300.4 -224.9 L-298.5 -224.9 L-296.5 -224.7 L-294.5 -224.3 L-292.6 -223.8 L-290.7 -223.2 L-288.9 -222.4 L-287.2 -221.4 L-285.5 -220.3 L-284 -219.1 L-282.5 -217.8 L-281.1 -216.3 L-279.9 -214.8 L-278.8 -213.1 L-277.8 -211.4 L-277 -209.6 L-276.3 -207.8 L-275.7 -205.8 L-275.4 -203.9 L-275.1 -201.9 L-275 -199.9 Z " />
<path stroke="rgb(0,0,0)" stroke-opacity="1" fill="rgb(255,255,255)" fill-opacity="1" d="M-283.7 -327 L-283.2 -325.3 L-282.8 -323.5 L-282.4 -321.8 L-282 -320 L-281.6 -318.3 L-281.2 -316.5 L-280.8 -314.8 L-280.4 -313 L-280 -311.2 L-279.5 -309.5 L-279.1 -307.7 L-278.7 -306 L-278.3 -304.2 L-277.9 -302.5 L-277.5 -300.7 L-277.1 -299 L-276.7 -297.2 L-276.3 -295.5 L-275.8 -293.7 L-275.4 -292 L-275 -290.2 L-274.6 -288.5 L-274.2 -286.7 L-273.8 -285 L-273.4 -283.2 L-275.1 -282.8 L-276.9 -282.4 L-278.6 -282 L-280.4 -281.6 L-282.1 -281.2 L-283.9 -280.8 L-285.6 -280.3 L-287.4 -279.9 L-289.1 -279.5 L-290.9 -279.1 L-292.6 -278.7 L-294.4 -278.3 L-296.1 -277.9 L-297.9 -277.5 L-299.7 -277.1 L-301.4 -276.6 L-303.2 -276.2 L-304.9 -275.8 L-306.7 -275.4 L-308.4 -275 L-310.2 -274.6 L-311.9 -274.2 L-313.7 -273.8 L-315.4 -273.4 L-317.2 -272.9 L-317.6 -274.7 L-318 -276.4 L-318.4 -278.2 L-318.8 -279.9 L-319.2 -281.7 L-319.6 -283.5 L-320 -285.2 L-320.5 -287 L-320.9 -288.7 L-321.3 -290.5 L-321.7 -292.2 L-322.1 -294 L-322.5 -295.7 L-322.9 -297.5 L-323.3 -299.2 L-323.7 -301 L-324.2 -302.7 L-324.6 -304.5 L-325 -306.2 L-325.4 -308 L-325.8 -309.7 L-326.2 -311.5 L-326.6 -313.2 L-327 -315 L-327.4 -316.7 L-325.7 -317.1 L-323.9 -317.6 L-322.2 -318 L-320.4 -318.4 L-318.7 -318.8 L-316.9 -319.2 L-315.2 -319.6 L-313.4 -320 L-311.7 -320.4 L-309.9 -320.8 L-308.2 -321.3 L-306.4 -321.7 L-304.7 -322.1 L-302.9 -322.5 L-301.2 -322.9 L-299.4 -323.3 L-297.7 -323.7 L-295.9 -324.1 L-294.2 -324.5 L-292.4 -325 L-290.7 -325.4 L-288.9 -325.8 L-287.2 -326.2 L-285.4 -326.6 L-283.7 -327 Z " />
<path stroke="rgb(0,0,0)" stroke-opacity="0.924" fill="rgb(255,255,255)" fill-opacity="1" d="M-75.05 -199.9 L-75.13 -198 L-75.37 -196 L-75.77 -194.1 L-76.32 -192.1 L-77.02 -190.3 L-77.86 -188.5 L-78.85 -186.8 L-79.96 -185.1 L-81.21 -183.6 L-82.57 -182.1 L-84.05 -180.8 L-85.62 -179.6 L-87.29 -178.5 L-89.03 -177.6 L-90.85 -176.8 L-92.72 -176.1 L-94.64 -175.6 L-96.59 -175.3 L-98.57 -175.1 L-100.5 -175.1 L-102.5 -175.2 L-104.5 -175.5 L-106.4 -175.9 L-108.3 -176.5 L-110.2 -177.2 L-111.9 -178.1 L-113.6 -179.1 L-115.3 -180.3 L-116.8 -181.5 L-118.2 -182.9 L-119.5 -184.4 L-120.7 -186 L-121.7 -187.7 L-122.6 -189.5 L-123.4 -191.3 L-124 -193.2 L-124.5 -195.1 L-124.8 -197.1 L-124.9 -199.1 L-124.9 -201 L-124.8 -203 L-124.4 -205 L-124 -206.9 L-123.3 -208.8 L-122.6 -210.6 L-121.7 -212.4 L-120.6 -214.1 L-119.4 -215.7 L-118.1 -217.1 L-116.7 -218.5 L-115.2 -219.8 L-113.6 -220.9 L-111.8 -222 L-110.1 -222.8 L-108.2 -223.6 L-106.3 -224.1 L-104.4 -224.6 L-102.4 -224.8 L-100.4 -224.9 L-98.46 -224.9 L-96.48 -224.7 L-94.53 -224.3 L-92.62 -223.8 L-90.75 -223.2 L-88.93 -222.4 L-87.19 -221.4 L-85.53 -220.3 L-83.96 -219.1 L-82.49 -217.8 L-81.14 -216.3 L-79.9 -214.8 L-78.79 -213.1 L-77.81 -211.4 L-76.98 -209.6 L-76.28 -207.8 L-75.74 -205.8 L-75.36 -203.9 L-75.12 -201.9 L-75.05 -199.9 Z " />
<path stroke="rgb(0,0,0)" stroke-opacity="1" fill="rgb(255,255,255)" fill-opacity="1" d="M-101.9 -324.1 L-100.8 -323.2 L-99.8 -322.3 L-98.77 -321.4 L-97.74 -320.5 L-96.71 -319.6 L-95.68 -318.7 L-94.65 -317.8 L-93.62 -316.9 L-92.59 -316 L-91.56 -315.1 L-90.53 -314.2 L-89.5 -313.3 L-88.47 -312.4 L-87.44 -311.5 L-86.4 -310.6 L-85.37 -309.7 L-84.34 -308.8 L-83.31 -307.9 L-82.28 -307 L-81.25 -306.1 L-80.22 -305.2 L-79.19 -304.3 L-78.16 -303.4 L-77.13 -302.5 L-76.1 -301.6 L-77 -300.6 L-77.9 -299.6 L-78.8 -298.5 L-79.7 -297.5 L-80.6 -296.5 L-81.5 -295.5 L-82.4 -294.4 L-83.3 -293.4 L-84.2 -292.4 L-85.1 -291.3 L-86 -290.3 L-86.9 -289.3 L-87.8 -288.2 L-88.7 -287.2 L-89.6 -286.2 L-90.5 -285.2 L-91.4 -284.1 L-92.3 -283.1 L-93.2 -282.1 L-94.1 -281 L-95 -280 L-95.9 -279 L-96.8 -277.9 L-97.7 -276.9 L-98.6 -275.9 L-99.63 -276.8 L-100.7 -277.7 L-101.7 -278.6 L-102.7 -279.5 L-103.7 -280.4 L-104.8 -281.3 L-105.8 -282.2 L-106.8 -283.1 L-107.9 -284 L-108.9 -284.9 L-109.9 -285.8 L-111 -286.7 L-112 -287.6 L-113 -288.5 L-114.1 -289.4 L-115.1 -290.3 L-116.1 -291.2 L-117.1 -292.1 L-118.2 -293 L-119.2 -293.9 L-120.2 -294.8 L-121.3 -295.7 L-122.3 -296.6 L-123.3 -297.5 L-124.4 -298.4 L-123.5 -299.4 L-122.6 -300.4 L-121.7 -301.5 L-120.8 -302.5 L-119.9 -303.5 L-119 -304.6 L-118.1 -305.6 L-117.2 -306.6 L-116.3 -307.6 L-115.4 -308.7 L-114.5 -309.7 L-113.6 -310.7 L-112.7 -311.8 L-111.8 -312.8 L-110.9 -313.8 L-110 -314.9 L-109.1 -315.9 L-108.2 -316.9 L-107.3 -318 L-106.4 -319 L-105.5 -320 L-104.6 -321 L-103.7 -322.1 L-102.8 -323.1 L-101.9 -324.1 Z " />
<path stroke="rgb(0,0,0)" stroke-opacity="0.924" fill="rgb(255,255,255)" fill-opacity="1" d="M125 -199.9 L124.9 -198 L124.6 -196 L124.2 -194.1 L123.7 -192.1 L123 -190.3 L122.1 -188.5 L121.2 -186.8 L120 -185.1 L118.8 -183.6 L117.4 -182.1 L116 -180.8 L114.4 -179.6 L112.7 -178.5 L111 -177.6 L109.2 -176.8 L107.3 -176.1 L105.4 -175.6 L103.4 -175.3 L101.4 -175.1 L99.45 -175.1 L97.47 -175.2 L95.51 -175.5 L93.57 -175.9 L91.68 -176.5 L89.83 -177.2 L88.05 -178.1 L86.35 -179.1 L84.74 -180.3 L83.22 -181.5 L81.8 -182.9 L80.5 -184.4 L79.33 -186 L78.28 -187.7 L77.38 -189.5 L76.61 -191.3 L76 -193.2 L75.53 -195.1 L75.22 -197.1 L75.07 -199.1 L75.07 -201 L75.23 -203 L75.55 -205 L76.03 -206.9 L76.65 -208.8 L77.42 -210.6 L78.34 -212.4 L79.39 -214.1 L80.57 -215.7 L81.88 -217.1 L83.3 -218.5 L84.82 -219.8 L86.44 -220.9 L88.15 -222 L89.93 -222.8 L91.78 -223.6 L93.68 -224.1 L95.61 -224.6 L97.58 -224.8 L99.56 -224.9 L101.5 -224.9 L103.5 -224.7 L105.5 -224.3 L107.4 -223.8 L109.3 -223.2 L111.1 -222.4 L112.8 -221.4 L114.5 -220.3 L116 -219.1 L117.5 -217.8 L118.9 -216.3 L120.1 -214.8 L121.2 -213.1 L122.2 -211.4 L123 -209.6 L123.7 -207.8 L124.3 -205.8 L124.6 -203.9 L124.9 -201.9 L125 -199.9 Z " />
<path stroke="rgb(0,0,0)" stroke-opacity="1" fill="rgb(255,255,255)" fill-opacity="1" d="M88.96 -315.7 L90.02 -315.5 L91.08 -315.3 L92.14 -315.1 L93.2 -315 L94.27 -314.8 L95.33 -314.6 L96.39 -314.4 L97.45 -314.2 L98.51 -314 L99.57 -313.8 L100.6 -313.6 L101.7 -313.4 L102.8 -313.3 L103.8 -313.1 L104.9 -312.9 L105.9 -312.7 L107 -312.5 L108.1 -312.3 L109.1 -312.1 L110.2 -311.9 L111.2 -311.7 L112.3 -311.6 L113.4 -311.4 L114.4 -311.2 L115.5 -311 L115.3 -309.9 L115.1 -308.9 L114.9 -307.8 L114.7 -306.7 L114.5 -305.7 L114.4 -304.6 L114.2 -303.6 L114 -302.5 L113.8 -301.4 L113.6 -300.4 L113.4 -299.3 L113.2 -298.3 L113 -297.2 L112.8 -296.1 L112.7 -295.1 L112.5 -294 L112.3 -293 L112.1 -291.9 L111.9 -290.8 L111.7 -289.8 L111.5 -288.7 L111.3 -287.6 L111.1 -286.6 L111 -285.5 L110.8 -284.5 L109.7 -284.7 L108.6 -284.8 L107.6 -285 L106.5 -285.2 L105.5 -285.4 L104.4 -285.6 L103.3 -285.8 L102.3 -286 L101.2 -286.2 L100.2 -286.4 L99.09 -286.5 L98.03 -286.7 L96.97 -286.9 L95.91 -287.1 L94.85 -287.3 L93.79 -287.5 L92.73 -287.7 L91.67 -287.9 L90.6 -288.1 L89.54 -288.2 L88.48 -288.4 L87.42 -288.6 L86.36 -288.8 L85.3 -289 L84.24 -289.2 L84.43 -290.2 L84.62 -291.3 L84.8 -292.4 L84.99 -293.4 L85.18 -294.5 L85.37 -295.6 L85.56 -296.6 L85.75 -297.7 L85.94 -298.7 L86.13 -299.8 L86.32 -300.9 L86.5 -301.9 L86.69 -303 L86.88 -304 L87.07 -305.1 L87.26 -306.2 L87.45 -307.2 L87.64 -308.3 L87.83 -309.3 L88.02 -310.4 L88.2 -311.5 L88.39 -312.5 L88.58 -313.6 L88.77 -314.7 L88.96 -315.7 Z " />
<path stroke="rgb(0,0,0)" stroke-opacity="0.924" fill="rgb(255,255,255)" fill-opacity="1" d="M325 -199.9 L324.9 -198 L324.6 -196 L324.2 -194.1 L323.7 -192.1 L323 -190.3 L322.1 -188.5 L321.2 -186.8 L320 -185.1 L318.8 -183.6 L317.4 -182.1 L316 -180.8 L314.4 -179.6 L312.7 -178.5 L311 -177.6 L309.2 -176.8 L307.3 -176.1 L305.4 -175.6 L303.4 -175.3 L301.4 -175.1 L299.5 -175.1 L297.5 -175.2 L295.5 -175.5 L293.6 -175.9 L291.7 -176.5 L289.8 -177.2 L288.1 -178.1 L286.4 -179.1 L284.7 -180.3 L283.2 -181.5 L281.8 -182.9 L280.5 -184.4 L279.3 -186 L278.3 -187.7 L277.4 -189.5 L276.6 -191.3 L276 -193.2 L275.5 -195.1 L275.2 -197.1 L275.1 -199.1 L275.1 -201 L275.2 -203 L275.6 -205 L276 -206.9 L276.7 -208.8 L277.4 -210.6 L278.3 -212.4 L279.4 -214.1 L280.6 -215.7 L281.9 -217.1 L283.3 -218.5 L284.8 -219.8 L286.4 -220.9 L288.2 -222 L289.9 -222.8 L291.8 -223.6 L293.7 -224.1 L295.6 -224.6 L297.6 -224.8 L299.6 -224.9 L301.5 -224.9 L303.5 -224.7 L305.5 -224.3 L307.4 -223.8 L309.3 -223.2 L311.1 -222.4 L312.8 -221.4 L314.5 -220.3 L316 -219.1 L317.5 -217.8 L318.9 -216.3 L320.1 -214.8 L321.2 -213.1 L322.2 -211.4 L323 -209.6 L323.7 -207.8 L324.3 -205.8 L324.6 -203.9 L324.9 -201.9 L325 -199.9 Z " />
<path stroke="rgb(0,0,0)" stroke-opacity="1" fill="rgb(255,255,255)" fill-opacity="1" d="M-383.7 -227 L-383.2 -225.3 L-382.8 -223.5 L-382.4 -221.8 L-382 -220 L-381.6 -218.3 L-381.2 -216.5 L-380.8 -214.8 L-380.4 -213 L-380 -211.2 L-379.5 -209.5 L-379.1 -207.7 L-378.7 -206 L-378.3 -204.2 L-377.9 -202.5 L-377.5 -200.7 L-377.1 -199 L-376.7 -197.2 L-376.3 -195.5 L-375.8 -193.7 L-375.4 -192 L-375 -190.2 L-374.6 -188.5 L-374.2 -186.7 L-373.8 -185 L-373.4 -183.2 L-375.1 -182.8 L-376.9 -182.4 L-378.6 -182 L-380.4 -181.6 L-382.1 -181.2 L-383.9 -180.8 L-385.6 -180.3 L-387.4 -179.9 L-389.1 -179.5 L-390.9 -179.1 L-392.6 -178.7 L-394.4 -178.3 L-396.1 -177.9 L-397.9 -177.5 L-399.7 -177.1 L-401.4 -176.6 L-403.2 -176.2 L-404.9 -175.8 L-406.7 -175.4 L-408.4 -175 L-410.2 -174.6 L-411.9 -174.2 L-413.7 -173.8 L-415.4 -173.4 L-417.2 -172.9 L-417.6 -174.7 L-418 -176.4 L-418.4 -178.2 L-418.8 -179.9 L-419.2 -181.7 L-419.6 -183.5 L-420 -185.2 L-420.5 -187 L-420.9 -188.7 L-421.3 -190.5 L-421.7 -192.2 L-422.1 -194 L-422.5 -195.7 L-422.9 -197.5 L-423.3 -199.2 L-423.7 -201 L-424.2 -202.7 L-424.6 -204.5 L-425 -206.2 L-425.4 -208 L-425.8 -209.7 L-426.2 -211.5 L-426.6 -213.2 L-427 -215 L-427.4 -216.7 L-425.7 -217.1 L-423.9 -217.6 L-422.2 -218 L-420.4 -218.4 L-418.7 -218.8 L-416.9 -219.2 L-415.2 -219.6 L-413.4 -220 L-411.7 -220.4 L-409.9 -220.8 L-408.2 -221.3 L-406.4 -221.7 L-404.7 -222.1 L-402.9 -222.5 L-401.2 -222.9 L-399.4 -223.3 L-397.7 -223.7 L-395.9 -224.1 L-394.2 -224.5 L-392.4 -225 L-390.7 -225.4 L-388.9 -225.8 L-387.2 -226.2 L-385.4 -226.6 L-383.7 -227 Z " />
<path stroke="rgb(0,0,0)" stroke-opacity="0.924" fill="rgb(255,255,255)" fill-opacity="1" d="M-175 -99.95 L-175.1 -97.96 L-175.4 -95.99 L-175.8 -94.05 L-176.3 -92.14 L-177 -90.29 L-177.9 -88.49 L-178.8 -86.77 L-180 -85.13 L-181.2 -83.59 L-182.6 -82.15 L-184 -80.82 L-185.6 -79.61 L-187.3 -78.53 L-189 -77.59 L-190.8 -76.79 L-192.7 -76.14 L-194.6 -75.63 L-196.6 -75.28 L-198.6 -75.09 L-200.5 -75.06 L-202.5 -75.18 L-204.5 -75.46 L-206.4 -75.89 L-208.3 -76.48 L-210.2 -77.22 L-211.9 -78.1 L-213.6 -79.11 L-215.3 -80.26 L-216.8 -81.54 L-218.2 -82.93 L-219.5 -84.43 L-220.7 -86.03 L-221.7 -87.72 L-222.6 -89.48 L-223.4 -91.31 L-224 -93.2 L-224.5 -95.13 L-224.8 -97.09 L-224.9 -99.06 L-224.9 -101 L-224.8 -103 L-224.4 -105 L-224 -106.9 L-223.3 -108.8 L-222.6 -110.6 L-221.7 -112.4 L-220.6 -114.1 L-219.4 -115.7 L-218.1 -117.1 L-216.7 -118.5 L-215.2 -119.8 L-213.6 -120.9 L-211.8 -122 L-210.1 -122.8 L-208.2 -123.6 L-206.3 -124.1 L-204.4 -124.6 L-202.4 -124.8 L-200.4 -124.9 L-198.5 -124.9 L-196.5 -124.7 L-194.5 -124.3 L-192.6 -123.8 L-190.7 -123.2 L-188.9 -122.4 L-187.2 -121.4 L-185.5 -120.3 L-184 -119.1 L-182.5 -117.8 L-181.1 -116.3 L-179.9 -114.8 L-178.8 -113.1 L-177.8 -111.4 L-177 -109.6 L-176.3 -107.8 L-175.7 -105.8 L-175.4 -103.9 L-175.1 -101.9 L-175 -99.95 Z " />
<path stroke="rgb(0,0,0)" stroke-opacity="1" fill="rgb(255,255,255)" fill-opacity="1" d="M-201.9 -224.1 L-200.8 -223.2 L-199.8 -222.3 L-198.8 -221.4 L-197.7 -220.5 L-196.7 -219.6 L-195.7 -218.7 L-194.6 -217.8 L-193.6 -216.9 L-192.6 -216 L-191.6 -215.1 L-190.5 -214.2 L-189.5 -213.3 L-188.5 -212.4 L-187.4 -211.5 L-186.4 -210.6 L-185.4 -209.7 L-184.3 -208.8 L-183.3 -207.9 L-182.3 -207 L-181.3 -206.1 L-180.2 -205.2 L-179.2 -204.3 L-178.2 -203.4 L-177.1 -202.5 L-176.1 -201.6 L-177 -200.6 L-177.9 -199.6 L-178.8 -198.5 L-179.7 -197.5 L-180.6 -196.5 L-181.5 -195.5 L-182.4 -194.4 L-183.3 -193.4 L-184.2 -192.4 L-185.1 -191.3 L-186 -190.3 L-186.9 -189.3 L-187.8 -188.2 L-188.7 -187.2 L-189.6 -186.2 L-190.5 -185.2 L-191.4 -184.1 L-192.3 -183.1 L-193.2 -182.1 L-194.1 -181 L-195 -180 L-195.9 -179 L-196.8 -177.9 L-197.7 -176.9 L-198.6 -175.9 L-199.6 -176.8 L-200.7 -177.7 L-201.7 -178.6 L-202.7 -179.5 L-203.7 -180.4 L-204.8 -181.3 L-205.8 -182.2 L-206.8 -183.1 L-207.9 -184 L-208.9 -184.9 L-209.9 -185.8 L-211 -186.7 L-212 -187.6 L-213 -188.5 L-214.1 -189.4 L-215.1 -190.3 L-216.1 -191.2 L-217.1 -192.1 L-218.2 -193 L-219.2 -193.9 L-220.2 -194.8 L-221.3 -195.7 L-222.3 -196.6 L-223.3 -197.5 L-224.4 -198.4 L-223.5 -199.4 L-222.6 -200.4 L-221.7 -201.5 L-220.8 -202.5 L-219.9 -203.5 L-219 -204.6 L-218.1 -205.6 L-217.2 -206.6 L-216.3 -207.6 L-215.4 -208.7 L-214.5 -209.7 L-213.6 -210.7 L-212.7 -211.8 L-211.8 -212.8 L-210.9 -213.8 L-210 -214.9 L-209.1 -215.9 L-208.2 -216.9 L-207.3 -218 L-206.4 -219 L-205.5 -220 L-204.6 -221 L-203.7 -222.1 L-202.8 -223.1 L-201.9 -224.1 Z " />
<path stroke="rgb(0,0,0)" stroke-opacity="0.924" fill="rgb(255,255,255)" fill-opacity="1" d="M24.95 -99.95 L24.87 -97.96 L24.63 -95.99 L24.23 -94.05 L23.68 -92.14 L22.98 -90.29 L22.14 -88.49 L21.15 -86.77 L20.04 -85.13 L18.79 -83.59 L17.43 -82.15 L15.95 -80.82 L14.38 -79.61 L12.71 -78.53 L10.97 -77.59 L9.153 -76.79 L7.28 -76.14 L5.361 -75.63 L3.408 -75.28 L1.434 -75.09 L-0.5499 -75.06 L-2.53 -75.18 L-4.494 -75.46 L-6.43 -75.89 L-8.325 -76.48 L-10.17 -77.22 L-11.95 -78.1 L-13.65 -79.11 L-15.26 -80.26 L-16.78 -81.54 L-18.2 -82.93 L-19.5 -84.43 L-20.67 -86.03 L-21.72 -87.72 L-22.62 -89.48 L-23.39 -91.31 L-24 -93.2 L-24.47 -95.13 L-24.78 -97.09 L-24.93 -99.06 L-24.93 -101 L-24.77 -103 L-24.45 -105 L-23.97 -106.9 L-23.35 -108.8 L-22.58 -110.6 L-21.66 -112.4 L-20.61 -114.1 L-19.43 -115.7 L-18.12 -117.1 L-16.7 -118.5 L-15.18 -119.8 L-13.56 -120.9 L-11.85 -122 L-10.07 -122.8 L-8.222 -123.6 L-6.324 -124.1 L-4.387 -124.6 L-2.422 -124.8 L-0.441 -124.9 L1.542 -124.9 L3.516 -124.7 L5.467 -124.3 L7.384 -123.8 L9.254 -123.2 L11.07 -122.4 L12.81 -121.4 L14.47 -120.3 L16.04 -119.1 L17.51 -117.8 L18.86 -116.3 L20.1 -114.8 L21.21 -113.1 L22.19 -111.4 L23.02 -109.6 L23.72 -107.8 L24.26 -105.8 L24.64 -103.9 L24.88 -101.9 L24.95 -99.95 Z " />
<path stroke="rgb(0,0,0)" stroke-opacity="1" fill="rgb(255,255,255)" fill-opacity="1" d="M-11.04 -215.7 L-9.978 -215.5 L-8.917 -215.3 L-7.856 -215.1 L-6.795 -215 L-5.734 -214.8 L-4.673 -214.6 L-3.612 -214.4 L-2.551 -214.2 L-1.49 -214 L-0.4287 -213.8 L0.6324 -213.6 L1.693 -213.4 L2.754 -213.3 L3.816 -213.1 L4.877 -212.9 L5.938 -212.7 L6.999 -212.5 L8.06 -212.3 L9.121 -212.1 L10.18 -211.9 L11.24 -211.7 L12.3 -211.6 L13.37 -211.4 L14.43 -211.2 L15.49 -211 L15.3 -209.9 L15.11 -208.9 L14.92 -207.8 L14.73 -206.7 L14.54 -205.7 L14.35 -204.6 L14.16 -203.6 L13.98 -202.5 L13.79 -201.4 L13.6 -200.4 L13.41 -199.3 L13.22 -198.3 L13.03 -197.2 L12.84 -196.1 L12.65 -195.1 L12.46 -194 L12.28 -193 L12.09 -191.9 L11.9 -190.8 L11.71 -189.8 L11.52 -188.7 L11.33 -187.6 L11.14 -186.6 L10.95 -185.5 L10.76 -184.5 L9.703 -184.7 L8.642 -184.8 L7.581 -185 L6.52 -185.2 L5.459 -185.4 L4.398 -185.6 L3.337 -185.8 L2.276 -186 L1.215 -186.2 L0.1539 -186.4 L-0.9072 -186.5 L-1.968 -186.7 L-3.029 -186.9 L-4.09 -187.1 L-5.151 -187.3 L-6.213 -187.5 L-7.274 -187.7 L-8.335 -187.9 L-9.396 -188.1 L-10.46 -188.2 L-11.52 -188.4 L-12.58 -188.6 L-13.64 -188.8 L-14.7 -189 L-15.76 -189.2 L-15.57 -190.2 L-15.38 -191.3 L-15.2 -192.4 L-15.01 -193.4 L-14.82 -194.5 L-14.63 -195.6 L-14.44 -196.6 L-14.25 -197.7 L-14.06 -198.7 L-13.87 -199.8 L-13.68 -200.9 L-13.5 -201.9 L-13.31 -203 L-13.12 -204 L-12.93 -205.1 L-12.74 -206.2 L-12.55 -207.2 L-12.36 -208.3 L-12.17 -209.3 L-11.98 -210.4 L-11.8 -211.5 L-11.61 -212.5 L-11.42 -213.6 L-11.23 -214.7 L-11.04 -215.7 Z " />
<path stroke="rgb(0,0,0)" stroke-opacity="0.924" fill="rgb(255,255,255)" fill-opacity="1" d="M225 -99.95 L224.9 -97.96 L224.6 -95.99 L224.2 -94.05 L223.7 -92.14 L223 -90.29 L222.1 -88.49 L221.2 -86.77 L220 -85.13 L218.8 -83.59 L217.4 -82.15 L216 -80.82 L214.4 -79.61 L212.7 -78.53 L211 -77.59 L209.2 -76.79 L207.3 -76.14 L205.4 -75.63 L203.4 -75.28 L201.4 -75.09 L199.5 -75.06 L197.5 -75.18 L195.5 -75.46 L193.6 -75.89 L191.7 -76.48 L189.8 -77.22 L188.1 -78.1 L186.4 -79.11 L184.7 -80.26 L183.2 -81.54 L181.8 -82.93 L180.5 -84.43 L179.3 -86.03 L178.3 -87.72 L177.4 -89.48 L176.6 -91.31 L176 -93.2 L175.5 -95.13 L175.2 -97.09 L175.1 -99.06 L175.1 -101 L175.2 -103 L175.6 -105 L176 -106.9 L176.7 -108.8 L177.4 -110.6 L178.3 -112.4 L179.4 -114.1 L180.6 -115.7 L181.9 -117.1 L183.3 -118.5 L184.8 -119.8 L186.4 -120.9 L188.2 -122 L189.9 -122.8 L191.8 -123.6 L193.7 -124.1 L195.6 -124.6 L197.6 -124.8 L199.6 -124.9 L201.5 -124.9 L203.5 -124.7 L205.5 -124.3 L207.4 -123.8 L209.3 -123.2 L211.1 -122.4 L212.8 -121.4 L214.5 -120.3 L216 -119.1 L217.5 -117.8 L218.9 -116.3 L220.1 -114.8 L221.2 -113.1 L222.2 -111.4 L223 -109.6 L223.7 -107.8 L224.3 -105.8 L224.6 -103.9 L224.9 -101.9 L225 -99.95 Z " />
<path stroke="rgb(0,0,0)" stroke-opacity="1" fill="rgb(255,255,255)" fill-opacity="1" d="M187.5 -212.8 L188.5 -212.8 L189.5 -212.8 L190.5 -212.8 L191.5 -212.8 L192.5 -212.7 L193.5 -212.7 L194.5 -212.7 L195.5 -212.7 L196.5 -212.7 L197.5 -212.7 L198.5 -212.7 L199.5 -212.7 L200.5 -212.6 L201.5 -212.6 L202.5 -212.6 L203.5 -212.6 L204.5 -212.6 L205.5 -212.6 L206.6 -212.6 L207.6 -212.6 L208.6 -212.5 L209.6 -212.5 L210.6 -212.5 L211.6 -212.5 L212.6 -212.5 L212.6 -211.5 L212.5 -210.5 L212.5 -209.5 L212.5 -208.5 L212.5 -207.5 L212.5 -206.5 L212.5 -205.5 L212.5 -204.5 L212.5 -203.5 L212.4 -202.5 L212.4 -201.5 L212.4 -200.5 L212.4 -199.5 L212.4 -198.5 L212.4 -197.5 L212.4 -196.5 L212.4 -195.5 L212.3 -194.4 L212.3 -193.4 L212.3 -192.4 L212.3 -191.4 L212.3 -190.4 L212.3 -189.4 L212.3 -188.4 L212.3 -187.4 L211.3 -187.4 L210.2 -187.5 L209.2 -187.5 L208.2 -187.5 L207.2 -187.5 L206.2 -187.5 L205.2 -187.5 L204.2 -187.5 L203.2 -187.5 L202.2 -187.6 L201.2 -187.6 L200.2 -187.6 L199.2 -187.6 L198.2 -187.6 L197.2 -187.6 L196.2 -187.6 L195.2 -187.6 L194.2 -187.7 L193.2 -187.7 L192.2 -187.7 L191.2 -187.7 L190.2 -187.7 L189.2 -187.7 L188.2 -187.7 L187.2 -187.7 L187.2 -188.7 L187.2 -189.7 L187.2 -190.7 L187.2 -191.8 L187.3 -192.8 L187.3 -193.8 L187.3 -194.8 L187.3 -195.8 L187.3 -196.8 L187.3 -197.8 L187.3 -198.8 L187.3 -199.8 L187.3 -200.8 L187.4 -201.8 L187.4 -202.8 L187.4 -203.8 L187.4 -204.8 L187.4 -205.8 L187.4 -206.8 L187.4 -207.8 L187.4 -208.8 L187.5 -209.8 L187.5 -210.8 L187.5 -211.8 L187.5 -212.8 Z " />
<path stroke="rgb(0,0,0)" stroke-opacity="0.924" fill="rgb(255,255,255)" fill-opacity="1" d="M-275 0.05379 L-275.1 2.036 L-275.4 4.005 L-275.8 5.949 L-276.3 7.855 L-277 9.712 L-277.9 11.51 L-278.8 13.23 L-280 14.87 L-281.2 16.41 L-282.6 17.85 L-284 19.18 L-285.6 20.39 L-287.3 21.47 L-289 22.41 L-290.8 23.21 L-292.7 23.86 L-294.6 24.37 L-296.6 24.72 L-298.6 24.91 L-300.5 24.94 L-302.5 24.82 L-304.5 24.54 L-306.4 24.11 L-308.3 23.52 L-310.2 22.78 L-311.9 21.9 L-313.6 20.89 L-315.3 19.74 L-316.8 18.46 L-318.2 17.07 L-319.5 15.57 L-320.7 13.97 L-321.7 12.28 L-322.6 10.52 L-323.4 8.689 L-324 6.803 L-324.5 4.874 L-324.8 2.915 L-324.9 0.9368 L-324.9 -1.047 L-324.8 -3.024 L-324.4 -4.982 L-324 -6.909 L-323.3 -8.792 L-322.6 -10.62 L-321.7 -12.38 L-320.6 -14.06 L-319.4 -15.65 L-318.1 -17.15 L-316.7 -18.53 L-315.2 -19.8 L-313.6 -20.95 L-311.8 -21.96 L-310.1 -22.83 L-308.2 -23.56 L-306.3 -24.14 L-304.4 -24.56 L-302.4 -24.83 L-300.4 -24.95 L-298.5 -24.9 L-296.5 -24.7 L-294.5 -24.34 L-292.6 -23.83 L-290.7 -23.17 L-288.9 -22.36 L-287.2 -21.41 L-285.5 -20.33 L-284 -19.11 L-282.5 -17.78 L-281.1 -16.33 L-279.9 -14.78 L-278.8 -13.14 L-277.8 -11.41 L-277 -9.613 L-276.3 -7.753 L-275.7 -5.845 L-275.4 -3.899 L-275.1 -1.929 L-275 0.05379 Z " />
<path stroke="rgb(0,0,0)" stroke-opacity="1" fill="rgb(255,255,255)" fill-opacity="1" d="M-301.9 -124.1 L-300.8 -123.2 L-299.8 -122.3 L-298.8 -121.4 L-297.7 -120.5 L-296.7 -119.6 L-295.7 -118.7 L-294.6 -117.8 L-293.6 -116.9 L-292.6 -116 L-291.6 -115.1 L-290.5 -114.2 L-289.5 -113.3 L-288.5 -112.4 L-287.4 -111.5 L-286.4 -110.6 L-285.4 -109.7 L-284.3 -108.8 L-283.3 -107.9 L-282.3 -107 L-281.3 -106.1 L-280.2 -105.2 L-279.2 -104.3 L-278.2 -103.4 L-277.1 -102.5 L-276.1 -101.6 L-277 -100.6 L-277.9 -99.58 L-278.8 -98.55 L-279.7 -97.52 L-280.6 -96.49 L-281.5 -95.46 L-282.4 -94.43 L-283.3 -93.39 L-284.2 -92.36 L-285.1 -91.33 L-286 -90.3 L-286.9 -89.27 L-287.8 -88.24 L-288.7 -87.21 L-289.6 -86.18 L-290.5 -85.15 L-291.4 -84.12 L-292.3 -83.09 L-293.2 -82.06 L-294.1 -81.03 L-295 -80 L-295.9 -78.97 L-296.8 -77.94 L-297.7 -76.91 L-298.6 -75.88 L-299.6 -76.78 L-300.7 -77.68 L-301.7 -78.58 L-302.7 -79.48 L-303.7 -80.38 L-304.8 -81.28 L-305.8 -82.18 L-306.8 -83.08 L-307.9 -83.98 L-308.9 -84.88 L-309.9 -85.78 L-311 -86.68 L-312 -87.58 L-313 -88.48 L-314.1 -89.38 L-315.1 -90.28 L-316.1 -91.18 L-317.1 -92.08 L-318.2 -92.98 L-319.2 -93.88 L-320.2 -94.78 L-321.3 -95.67 L-322.3 -96.57 L-323.3 -97.47 L-324.4 -98.37 L-323.5 -99.41 L-322.6 -100.4 L-321.7 -101.5 L-320.8 -102.5 L-319.9 -103.5 L-319 -104.6 L-318.1 -105.6 L-317.2 -106.6 L-316.3 -107.6 L-315.4 -108.7 L-314.5 -109.7 L-313.6 -110.7 L-312.7 -111.8 L-311.8 -112.8 L-310.9 -113.8 L-310 -114.9 L-309.1 -115.9 L-308.2 -116.9 L-307.3 -118 L-306.4 -119 L-305.5 -120 L-304.6 -121 L-303.7 -122.1 L-302.8 -123.1 L-301.9 -124.1 Z " />
<path stroke="rgb(0,0,0)" stroke-opacity="0.924" fill="rgb(255,255,255)" fill-opacity="1" d="M-75.05 0.05379 L-75.13 2.036 L-75.37 4.005 L-75.77 5.949 L-76.32 7.855 L-77.02 9.712 L-77.86 11.51 L-78.85 13.23 L-79.96 14.87 L-81.21 16.41 L-82.57 17.85 L-84.05 19.18 L-85.62 20.39 L-87.29 21.47 L-89.03 22.41 L-90.85 23.21 L-92.72 23.86 L-94.64 24.37 L-96.59 24.72 L-98.57 24.91 L-100.5 24.94 L-102.5 24.82 L-104.5 24.54 L-106.4 24.11 L-108.3 23.52 L-110.2 22.78 L-111.9 21.9 L-113.6 20.89 L-115.3 19.74 L-116.8 18.46 L-118.2 17.07 L-119.5 15.57 L-120.7 13.97 L-121.7 12.28 L-122.6 10.52 L-123.4 8.689 L-124 6.803 L-124.5 4.874 L-124.8 2.915 L-124.9 0.9368 L-124.9 -1.047 L-124.8 -3.024 L-124.4 -4.982 L-124 -6.909 L-123.3 -8.792 L-122.6 -10.62 L-121.7 -12.38 L-120.6 -14.06 L-119.4 -15.65 L-118.1 -17.15 L-116.7 -18.53 L-115.2 -19.8 L-113.6 -20.95 L-111.8 -21.96 L-110.1 -22.83 L-108.2 -23.56 L-106.3 -24.14 L-104.4 -24.56 L-102.4 -24.83 L-100.4 -24.95 L-98.46 -24.9 L-96.48 -24.7 L-94.53 -24.34 L-92.62 -23.83 L-90.75 -23.17 L-88.93 -22.36 L-87.19 -21.41 L-85.53 -20.33 L-83.96 -19.11 L-82.49 -17.78 L-81.14 -16.33 L-79.9 -14.78 L-78.79 -13.14 L-77.81 -11.41 L-76.98 -9.613 L-76.28 -7.753 L-75.74 -5.845 L-75.36 -3.899 L-75.12 -1.929 L-75.05 0.05379 Z " />
<path stroke="rgb(0,0,0)" stroke-opacity="1" fill="rgb(255,255,255)" fill-opacity="1" d="M-111 -115.7 L-110 -115.5 L-108.9 -115.3 L-107.9 -115.1 L-106.8 -115 L-105.7 -114.8 L-104.7 -114.6 L-103.6 -114.4 L-102.6 -114.2 L-101.5 -114 L-100.4 -113.8 L-99.37 -113.6 L-98.31 -113.4 L-97.25 -113.3 L-96.18 -113.1 L-95.12 -112.9 L-94.06 -112.7 L-93 -112.5 L-91.94 -112.3 L-90.88 -112.1 L-89.82 -111.9 L-88.76 -111.7 L-87.7 -111.6 L-86.63 -111.4 L-85.57 -111.2 L-84.51 -111 L-84.7 -109.9 L-84.89 -108.9 L-85.08 -107.8 L-85.27 -106.7 L-85.46 -105.7 L-85.65 -104.6 L-85.84 -103.6 L-86.02 -102.5 L-86.21 -101.4 L-86.4 -100.4 L-86.59 -99.32 L-86.78 -98.26 L-86.97 -97.2 L-87.16 -96.14 L-87.35 -95.08 L-87.54 -94.02 L-87.72 -92.95 L-87.91 -91.89 L-88.1 -90.83 L-88.29 -89.77 L-88.48 -88.71 L-88.67 -87.65 L-88.86 -86.59 L-89.05 -85.53 L-89.24 -84.47 L-90.3 -84.65 L-91.36 -84.84 L-92.42 -85.03 L-93.48 -85.22 L-94.54 -85.41 L-95.6 -85.6 L-96.66 -85.79 L-97.72 -85.98 L-98.79 -86.17 L-99.85 -86.36 L-100.9 -86.54 L-102 -86.73 L-103 -86.92 L-104.1 -87.11 L-105.2 -87.3 L-106.2 -87.49 L-107.3 -87.68 L-108.3 -87.87 L-109.4 -88.06 L-110.5 -88.24 L-111.5 -88.43 L-112.6 -88.62 L-113.6 -88.81 L-114.7 -89 L-115.8 -89.19 L-115.6 -90.25 L-115.4 -91.31 L-115.2 -92.37 L-115 -93.43 L-114.8 -94.49 L-114.6 -95.56 L-114.4 -96.62 L-114.3 -97.68 L-114.1 -98.74 L-113.9 -99.8 L-113.7 -100.9 L-113.5 -101.9 L-113.3 -103 L-113.1 -104 L-112.9 -105.1 L-112.7 -106.2 L-112.6 -107.2 L-112.4 -108.3 L-112.2 -109.3 L-112 -110.4 L-111.8 -111.5 L-111.6 -112.5 L-111.4 -113.6 L-111.2 -114.7 L-111 -115.7 Z " />
<path stroke="rgb(0,0,0)" stroke-opacity="0.924" fill="rgb(255,255,255)" fill-opacity="1" d="M125 0.05379 L124.9 2.036 L124.6 4.005 L124.2 5.949 L123.7 7.855 L123 9.712 L122.1 11.51 L121.2 13.23 L120 14.87 L118.8 16.41 L117.4 17.85 L116 19.18 L114.4 20.39 L112.7 21.47 L111 22.41 L109.2 23.21 L107.3 23.86 L105.4 24.37 L103.4 24.72 L101.4 24.91 L99.45 24.94 L97.47 24.82 L95.51 24.54 L93.57 24.11 L91.68 23.52 L89.83 22.78 L88.05 21.9 L86.35 20.89 L84.74 19.74 L83.22 18.46 L81.8 17.07 L80.5 15.57 L79.33 13.97 L78.28 12.28 L77.38 10.52 L76.61 8.689 L76 6.803 L75.53 4.874 L75.22 2.915 L75.07 0.9368 L75.07 -1.047 L75.23 -3.024 L75.55 -4.982 L76.03 -6.909 L76.65 -8.792 L77.42 -10.62 L78.34 -12.38 L79.39 -14.06 L80.57 -15.65 L81.88 -17.15 L83.3 -18.53 L84.82 -19.8 L86.44 -20.95 L88.15 -21.96 L89.93 -22.83 L91.78 -23.56 L93.68 -24.14 L95.61 -24.56 L97.58 -24.83 L99.56 -24.95 L101.5 -24.9 L103.5 -24.7 L105.5 -24.34 L107.4 -23.83 L109.3 -23.17 L111.1 -22.36 L112.8 -21.41 L114.5 -20.33 L116 -19.11 L117.5 -17.78 L118.9 -16.33 L120.1 -14.78 L121.2 -13.14 L122.2 -11.41 L123 -9.613 L123.7 -7.753 L124.3 -5.845 L124.6 -3.899 L124.9 -1.929 L125 0.05379 Z " />
<path stroke="rgb(0,0,0)" stroke-opacity="1" fill="rgb(255,255,255)" fill-opacity="1" d="M87.5 -112.8 L88.5 -112.8 L89.5 -112.8 L90.51 -112.8 L91.51 -112.8 L92.51 -112.7 L93.52 -112.7 L94.52 -112.7 L95.52 -112.7 L96.52 -112.7 L97.53 -112.7 L98.53 -112.7 L99.53 -112.7 L100.5 -112.6 L101.5 -112.6 L102.5 -112.6 L103.5 -112.6 L104.5 -112.6 L105.5 -112.6 L106.6 -112.6 L107.6 -112.6 L108.6 -112.5 L109.6 -112.5 L110.6 -112.5 L111.6 -112.5 L112.6 -112.5 L112.6 -111.5 L112.5 -110.5 L112.5 -109.5 L112.5 -108.5 L112.5 -107.5 L112.5 -106.5 L112.5 -105.5 L112.5 -104.5 L112.5 -103.5 L112.4 -102.5 L112.4 -101.5 L112.4 -100.5 L112.4 -99.46 L112.4 -98.46 L112.4 -97.46 L112.4 -96.45 L112.4 -95.45 L112.3 -94.45 L112.3 -93.45 L112.3 -92.44 L112.3 -91.44 L112.3 -90.44 L112.3 -89.44 L112.3 -88.43 L112.3 -87.43 L111.3 -87.44 L110.2 -87.46 L109.2 -87.47 L108.2 -87.48 L107.2 -87.49 L106.2 -87.51 L105.2 -87.52 L104.2 -87.53 L103.2 -87.54 L102.2 -87.55 L101.2 -87.57 L100.2 -87.58 L99.22 -87.59 L98.22 -87.6 L97.21 -87.62 L96.21 -87.63 L95.21 -87.64 L94.21 -87.65 L93.2 -87.67 L92.2 -87.68 L91.2 -87.69 L90.2 -87.7 L89.19 -87.72 L88.19 -87.73 L87.19 -87.74 L87.2 -88.74 L87.21 -89.75 L87.23 -90.75 L87.24 -91.75 L87.25 -92.76 L87.26 -93.76 L87.27 -94.76 L87.29 -95.76 L87.3 -96.77 L87.31 -97.77 L87.32 -98.77 L87.34 -99.77 L87.35 -100.8 L87.36 -101.8 L87.37 -102.8 L87.39 -103.8 L87.4 -104.8 L87.41 -105.8 L87.42 -106.8 L87.44 -107.8 L87.45 -108.8 L87.46 -109.8 L87.47 -110.8 L87.49 -111.8 L87.5 -112.8 Z " />
<path stroke="rgb(0,0,0)" stroke-opacity="0.924" fill="rgb(255,255,255)" fill-opacity="1" d="M325 0.05379 L324.9 2.036 L324.6 4.005 L324.2 5.949 L323.7 7.855 L323 9.712 L322.1 11.51 L321.2 13.23 L320 14.87 L318.8 16.41 L317.4 17.85 L316 19.18 L314.4 20.39 L312.7 21.47 L311 22.41 L309.2 23.21 L307.3 23.86 L305.4 24.37 L303.4 24.72 L301.4 24.91 L299.5 24.94 L297.5 24.82 L295.5 24.54 L293.6 24.11 L291.7 23.52 L289.8 22.78 L288.1 21.9 L286.4 20.89 L284.7 19.74 L283.2 18.46 L281.8 17.07 L280.5 15.57 L279.3 13.97 L278.3 12.28 L277.4 10.52 L276.6 8.689 L276 6.803 L275.5 4.874 L275.2 2.915 L275.1 0.9368 L275.1 -1.047 L275.2 -3.024 L275.6 -4.982 L276 -6.909 L276.7 -8.792 L277.4 -10.62 L278.3 -12.38 L279.4 -14.06 L280.6 -15.65 L281.9 -17.15 L283.3 -18.53 L284.8 -19.8 L286.4 -20.95 L288.2 -21.96 L289.9 -22.83 L291.8 -23.56 L293.7 -24.14 L295.6 -24.56 L297.6 -24.83 L299.6 -24.95 L301.5 -24.9 L303.5 -24.7 L305.5 -24.34 L307.4 -23.83 L309.3 -23.17 L311.1 -22.36 L312.8 -21.41 L314.5 -20.33 L316 -19.11 L317.5 -17.78 L318.9 -16.33 L320.1 -14.78 L321.2 -13.14 L322.2 -11.41 L323 -9.613 L323.7 -7.753 L324.3 -5.845 L324.6 -3.899 L324.9 -1.929 L325 0.05379 Z " />
<path stroke="rgb(0,0,0)" stroke-opacity="1" fill="rgb(255,255,255)" fill-opacity="1" d="M-401.9 -24.14 L-400.8 -23.24 L-399.8 -22.34 L-398.8 -21.44 L-397.7 -20.54 L-396.7 -19.64 L-395.7 -18.74 L-394.6 -17.84 L-393.6 -16.94 L-392.6 -16.04 L-391.6 -15.14 L-390.5 -14.24 L-389.5 -13.34 L-388.5 -12.44 L-387.4 -11.54 L-386.4 -10.64 L-385.4 -9.737 L-384.3 -8.837 L-383.3 -7.938 L-382.3 -7.038 L-381.3 -6.138 L-380.2 -5.238 L-379.2 -4.338 L-378.2 -3.438 L-377.1 -2.538 L-376.1 -1.638 L-377 -0.6079 L-377.9 0.4225 L-378.8 1.453 L-379.7 2.483 L-380.6 3.514 L-381.5 4.544 L-382.4 5.575 L-383.3 6.605 L-384.2 7.636 L-385.1 8.666 L-386 9.696 L-386.9 10.73 L-387.8 11.76 L-388.7 12.79 L-389.6 13.82 L-390.5 14.85 L-391.4 15.88 L-392.3 16.91 L-393.2 17.94 L-394.1 18.97 L-395 20 L-395.9 21.03 L-396.8 22.06 L-397.7 23.09 L-398.6 24.12 L-399.6 23.22 L-400.7 22.32 L-401.7 21.42 L-402.7 20.52 L-403.7 19.62 L-404.8 18.72 L-405.8 17.82 L-406.8 16.92 L-407.9 16.02 L-408.9 15.12 L-409.9 14.22 L-411 13.32 L-412 12.42 L-413 11.52 L-414.1 10.62 L-415.1 9.724 L-416.1 8.824 L-417.1 7.925 L-418.2 7.025 L-419.2 6.125 L-420.2 5.225 L-421.3 4.325 L-422.3 3.425 L-423.3 2.525 L-424.4 1.625 L-423.5 0.595 L-422.6 -0.4355 L-421.7 -1.466 L-420.8 -2.496 L-419.9 -3.527 L-419 -4.557 L-418.1 -5.588 L-417.2 -6.618 L-416.3 -7.649 L-415.4 -8.679 L-414.5 -9.709 L-413.6 -10.74 L-412.7 -11.77 L-411.8 -12.8 L-410.9 -13.83 L-410 -14.86 L-409.1 -15.89 L-408.2 -16.92 L-407.3 -17.95 L-406.4 -18.98 L-405.5 -20.01 L-404.6 -21.04 L-403.7 -22.07 L-402.8 -23.11 L-401.9 -24.14 Z " />
<path stroke="rgb(0,0,0)" stroke-opacity="0.924" fill="rgb(255,255,255)" fill-opacity="1" d="M-175 100.1 L-175.1 102 L-175.4 104 L-175.8 105.9 L-176.3 107.9 L-177 109.7 L-177.9 111.5 L-178.8 113.2 L-180 114.9 L-181.2 116.4 L-182.6 117.9 L-184 119.2 L-185.6 120.4 L-187.3 121.5 L-189 122.4 L-190.8 123.2 L-192.7 123.9 L-194.6 124.4 L-196.6 124.7 L-198.6 124.9 L-200.5 124.9 L-202.5 124.8 L-204.5 124.5 L-206.4 124.1 L-208.3 123.5 L-210.2 122.8 L-211.9 121.9 L-213.6 120.9 L-215.3 119.7 L-216.8 118.5 L-218.2 117.1 L-219.5 115.6 L-220.7 114 L-221.7 112.3 L-222.6 110.5 L-223.4 108.7 L-224 106.8 L-224.5 104.9 L-224.8 102.9 L-224.9 100.9 L-224.9 98.95 L-224.8 96.98 L-224.4 95.02 L-224 93.09 L-223.3 91.21 L-222.6 89.38 L-221.7 87.62 L-220.6 85.94 L-219.4 84.35 L-218.1 82.85 L-216.7 81.47 L-215.2 80.2 L-213.6 79.05 L-211.8 78.04 L-210.1 77.17 L-208.2 76.44 L-206.3 75.86 L-204.4 75.44 L-202.4 75.17 L-200.4 75.05 L-198.5 75.1 L-196.5 75.3 L-194.5 75.66 L-192.6 76.17 L-190.7 76.83 L-188.9 77.64 L-187.2 78.59 L-185.5 79.67 L-184 80.89 L-182.5 82.22 L-181.1 83.67 L-179.9 85.22 L-178.8 86.86 L-177.8 88.59 L-177 90.39 L-176.3 92.25 L-175.7 94.16 L-175.4 96.1 L-175.1 98.07 L-175 100.1 Z " />
<path stroke="rgb(0,0,0)" stroke-opacity="1" fill="rgb(255,255,255)" fill-opacity="1" d="M-211 -15.72 L-210 -15.53 L-208.9 -15.34 L-207.9 -15.15 L-206.8 -14.96 L-205.7 -14.77 L-204.7 -14.58 L-203.6 -14.39 L-202.6 -14.2 L-201.5 -14.02 L-200.4 -13.83 L-199.4 -13.64 L-198.3 -13.45 L-197.2 -13.26 L-196.2 -13.07 L-195.1 -12.88 L-194.1 -12.69 L-193 -12.5 L-191.9 -12.31 L-190.9 -12.13 L-189.8 -11.94 L-188.8 -11.75 L-187.7 -11.56 L-186.6 -11.37 L-185.6 -11.18 L-184.5 -10.99 L-184.7 -9.932 L-184.9 -8.87 L-185.1 -7.809 L-185.3 -6.748 L-185.5 -5.687 L-185.6 -4.626 L-185.8 -3.565 L-186 -2.504 L-186.2 -1.443 L-186.4 -0.3819 L-186.6 0.6791 L-186.8 1.74 L-187 2.801 L-187.2 3.862 L-187.3 4.923 L-187.5 5.984 L-187.7 7.046 L-187.9 8.107 L-188.1 9.168 L-188.3 10.23 L-188.5 11.29 L-188.7 12.35 L-188.9 13.41 L-189 14.47 L-189.2 15.53 L-190.3 15.35 L-191.4 15.16 L-192.4 14.97 L-193.5 14.78 L-194.5 14.59 L-195.6 14.4 L-196.7 14.21 L-197.7 14.02 L-198.8 13.83 L-199.8 13.64 L-200.9 13.46 L-202 13.27 L-203 13.08 L-204.1 12.89 L-205.2 12.7 L-206.2 12.51 L-207.3 12.32 L-208.3 12.13 L-209.4 11.94 L-210.5 11.76 L-211.5 11.57 L-212.6 11.38 L-213.6 11.19 L-214.7 11 L-215.8 10.81 L-215.6 9.75 L-215.4 8.689 L-215.2 7.628 L-215 6.567 L-214.8 5.506 L-214.6 4.445 L-214.4 3.384 L-214.3 2.323 L-214.1 1.262 L-213.9 0.2006 L-213.7 -0.8605 L-213.5 -1.922 L-213.3 -2.983 L-213.1 -4.044 L-212.9 -5.105 L-212.7 -6.166 L-212.6 -7.227 L-212.4 -8.288 L-212.2 -9.349 L-212 -10.41 L-211.8 -11.47 L-211.6 -12.53 L-211.4 -13.59 L-211.2 -14.65 L-211 -15.72 Z " />
<path stroke="rgb(0,0,0)" stroke-opacity="0.924" fill="rgb(255,255,255)" fill-opacity="1" d="M24.95 100.1 L24.87 102 L24.63 104 L24.23 105.9 L23.68 107.9 L22.98 109.7 L22.14 111.5 L21.15 113.2 L20.04 114.9 L18.79 116.4 L17.43 117.9 L15.95 119.2 L14.38 120.4 L12.71 121.5 L10.97 122.4 L9.153 123.2 L7.28 123.9 L5.361 124.4 L3.408 124.7 L1.434 124.9 L-0.5499 124.9 L-2.53 124.8 L-4.494 124.5 L-6.43 124.1 L-8.325 123.5 L-10.17 122.8 L-11.95 121.9 L-13.65 120.9 L-15.26 119.7 L-16.78 118.5 L-18.2 117.1 L-19.5 115.6 L-20.67 114 L-21.72 112.3 L-22.62 110.5 L-23.39 108.7 L-24 106.8 L-24.47 104.9 L-24.78 102.9 L-24.93 100.9 L-24.93 98.95 L-24.77 96.98 L-24.45 95.02 L-23.97 93.09 L-23.35 91.21 L-22.58 89.38 L-21.66 87.62 L-20.61 85.94 L-19.43 84.35 L-18.12 82.85 L-16.7 81.47 L-15.18 80.2 L-13.56 79.05 L-11.85 78.04 L-10.07 77.17 L-8.222 76.44 L-6.324 75.86 L-4.387 75.44 L-2.422 75.17 L-0.441 75.05 L1.542 75.1 L3.516 75.3 L5.467 75.66 L7.384 76.17 L9.254 76.83 L11.07 77.64 L12.81 78.59 L14.47 79.67 L16.04 80.89 L17.51 82.22 L18.86 83.67 L20.1 85.22 L21.21 86.86 L22.19 88.59 L23.02 90.39 L23.72 92.25 L24.26 94.16 L24.64 96.1 L24.88 98.07 L24.95 100.1 Z " />
<path stroke="rgb(0,0,0)" stroke-opacity="1" fill="rgb(255,255,255)" fill-opacity="1" d="M-12.5 -12.81 L-11.5 -12.8 L-10.5 -12.78 L-9.493 -12.77 L-8.49 -12.76 L-7.487 -12.75 L-6.485 -12.73 L-5.482 -12.72 L-4.479 -12.71 L-3.476 -12.7 L-2.474 -12.68 L-1.471 -12.67 L-0.4684 -12.66 L0.5343 -12.65 L1.537 -12.63 L2.54 -12.62 L3.542 -12.61 L4.545 -12.6 L5.548 -12.58 L6.551 -12.57 L7.553 -12.56 L8.556 -12.55 L9.559 -12.54 L10.56 -12.52 L11.56 -12.51 L12.57 -12.5 L12.55 -11.49 L12.54 -10.49 L12.53 -9.49 L12.52 -8.487 L12.5 -7.484 L12.49 -6.481 L12.48 -5.479 L12.47 -4.476 L12.45 -3.473 L12.44 -2.471 L12.43 -1.468 L12.42 -0.4653 L12.4 0.5374 L12.39 1.54 L12.38 2.543 L12.37 3.546 L12.35 4.548 L12.34 5.551 L12.33 6.554 L12.32 7.556 L12.3 8.559 L12.29 9.562 L12.28 10.56 L12.27 11.57 L12.26 12.57 L11.25 12.56 L10.25 12.54 L9.247 12.53 L8.244 12.52 L7.242 12.51 L6.239 12.49 L5.236 12.48 L4.234 12.47 L3.231 12.46 L2.228 12.45 L1.225 12.43 L0.2227 12.42 L-0.78 12.41 L-1.783 12.4 L-2.785 12.38 L-3.788 12.37 L-4.791 12.36 L-5.793 12.35 L-6.796 12.33 L-7.799 12.32 L-8.802 12.31 L-9.804 12.3 L-10.81 12.28 L-11.81 12.27 L-12.81 12.26 L-12.8 11.26 L-12.79 10.25 L-12.77 9.25 L-12.76 8.247 L-12.75 7.245 L-12.74 6.242 L-12.73 5.239 L-12.71 4.237 L-12.7 3.234 L-12.69 2.231 L-12.68 1.229 L-12.66 0.2258 L-12.65 -0.7769 L-12.64 -1.78 L-12.63 -2.782 L-12.61 -3.785 L-12.6 -4.788 L-12.59 -5.79 L-12.58 -6.793 L-12.56 -7.796 L-12.55 -8.798 L-12.54 -9.801 L-12.53 -10.8 L-12.51 -11.81 L-12.5 -12.81 Z " />
<path stroke="rgb(0,0,0)" stroke-opacity="0.924" fill="rgb(255,255,255)" fill-opacity="1" d="M225 100.1 L224.9 102 L224.6 104 L224.2 105.9 L223.7 107.9 L223 109.7 L222.1 111.5 L221.2 113.2 L220 114.9 L218.8 116.4 L217.4 117.9 L216 119.2 L214.4 120.4 L212.7 121.5 L211 122.4 L209.2 123.2 L207.3 123.9 L205.4 124.4 L203.4 124.7 L201.4 124.9 L199.5 124.9 L197.5 124.8 L195.5 124.5 L193.6 124.1 L191.7 123.5 L189.8 122.8 L188.1 121.9 L186.4 120.9 L184.7 119.7 L183.2 118.5 L181.8 117.1 L180.5 115.6 L179.3 114 L178.3 112.3 L177.4 110.5 L176.6 108.7 L176 106.8 L175.5 104.9 L175.2 102.9 L175.1 100.9 L175.1 98.95 L175.2 96.98 L175.6 95.02 L176 93.09 L176.7 91.21 L177.4 89.38 L178.3 87.62 L179.4 85.94 L180.6 84.35 L181.9 82.85 L183.3 81.47 L184.8 80.2 L186.4 79.05 L188.2 78.04 L189.9 77.17 L191.8 76.44 L193.7 75.86 L195.6 75.44 L197.6 75.17 L199.6 75.05 L201.5 75.1 L203.5 75.3 L205.5 75.66 L207.4 76.17 L209.3 76.83 L211.1 77.64 L212.8 78.59 L214.5 79.67 L216 80.89 L217.5 82.22 L218.9 83.67 L220.1 85.22 L221.2 86.86 L222.2 88.59 L223 90.39 L223.7 92.25 L224.3 94.16 L224.6 96.1 L224.9 98.07 L225 100.1 Z " />
<path stroke="rgb(0,0,0)" stroke-opacity="1" fill="rgb(255,255,255)" fill-opacity="1" d="M187.4 -12.61 L188.4 -12.61 L189.4 -12.61 L190.4 -12.61 L191.4 -12.61 L192.4 -12.6 L193.4 -12.6 L194.4 -12.6 L195.4 -12.6 L196.4 -12.6 L197.4 -12.6 L198.4 -12.6 L199.4 -12.6 L200.4 -12.59 L201.4 -12.59 L202.4 -12.59 L203.4 -12.59 L204.4 -12.59 L205.4 -12.59 L206.4 -12.59 L207.4 -12.59 L208.4 -12.58 L209.4 -12.58 L210.4 -12.58 L211.4 -12.58 L212.4 -12.58 L212.4 -11.58 L212.4 -10.58 L212.4 -9.586 L212.4 -8.588 L212.4 -7.59 L212.4 -6.592 L212.4 -5.594 L212.4 -4.597 L212.4 -3.599 L212.4 -2.601 L212.4 -1.603 L212.4 -0.6053 L212.4 0.3926 L212.3 1.39 L212.3 2.388 L212.3 3.386 L212.3 4.384 L212.3 5.382 L212.3 6.38 L212.3 7.377 L212.3 8.375 L212.3 9.373 L212.3 10.37 L212.3 11.37 L212.3 12.37 L211.3 12.37 L210.3 12.36 L209.3 12.36 L208.3 12.36 L207.3 12.36 L206.3 12.36 L205.4 12.36 L204.4 12.36 L203.4 12.36 L202.4 12.35 L201.4 12.35 L200.4 12.35 L199.4 12.35 L198.4 12.35 L197.4 12.35 L196.4 12.35 L195.4 12.35 L194.4 12.34 L193.4 12.34 L192.4 12.34 L191.4 12.34 L190.4 12.34 L189.4 12.34 L188.4 12.34 L187.4 12.34 L187.4 11.34 L187.4 10.34 L187.4 9.342 L187.4 8.345 L187.4 7.347 L187.4 6.349 L187.4 5.351 L187.4 4.353 L187.4 3.355 L187.4 2.358 L187.4 1.36 L187.4 0.3618 L187.4 -0.636 L187.4 -1.634 L187.4 -2.632 L187.4 -3.63 L187.4 -4.627 L187.4 -5.625 L187.4 -6.623 L187.4 -7.621 L187.4 -8.619 L187.4 -9.617 L187.4 -10.61 L187.4 -11.61 L187.4 -12.61 Z " />
<path stroke="rgb(0,0,0)" stroke-opacity="0.924" fill="rgb(255,255,255)" fill-opacity="1" d="M-275 200.1 L-275.1 202 L-275.4 204 L-275.8 205.9 L-276.3 207.9 L-277 209.7 L-277.9 211.5 L-278.8 213.2 L-280 214.9 L-281.2 216.4 L-282.6 217.9 L-284 219.2 L-285.6 220.4 L-287.3 221.5 L-289 222.4 L-290.8 223.2 L-292.7 223.9 L-294.6 224.4 L-296.6 224.7 L-298.6 224.9 L-300.5 224.9 L-302.5 224.8 L-304.5 224.5 L-306.4 224.1 L-308.3 223.5 L-310.2 222.8 L-311.9 221.9 L-313.6 220.9 L-315.3 219.7 L-316.8 218.5 L-318.2 217.1 L-319.5 215.6 L-320.7 214 L-321.7 212.3 L-322.6 210.5 L-323.4 208.7 L-324 206.8 L-324.5 204.9 L-324.8 202.9 L-324.9 200.9 L-324.9 199 L-324.8 197 L-324.4 195 L-324 193.1 L-323.3 191.2 L-322.6 189.4 L-321.7 187.6 L-320.6 185.9 L-319.4 184.3 L-318.1 182.9 L-316.7 181.5 L-315.2 180.2 L-313.6 179.1 L-311.8 178 L-310.1 177.2 L-308.2 176.4 L-306.3 175.9 L-304.4 175.4 L-302.4 175.2 L-300.4 175.1 L-298.5 175.1 L-296.5 175.3 L-294.5 175.7 L-292.6 176.2 L-290.7 176.8 L-288.9 177.6 L-287.2 178.6 L-285.5 179.7 L-284 180.9 L-282.5 182.2 L-281.1 183.7 L-279.9 185.2 L-278.8 186.9 L-277.8 188.6 L-277 190.4 L-276.3 192.2 L-275.7 194.2 L-275.4 196.1 L-275.1 198.1 L-275 200.1 Z " />
<path stroke="rgb(0,0,0)" stroke-opacity="1" fill="rgb(255,255,255)" fill-opacity="1" d="M-311 84.28 L-310 84.47 L-308.9 84.66 L-307.9 84.85 L-306.8 85.04 L-305.7 85.23 L-304.7 85.42 L-303.6 85.61 L-302.6 85.8 L-301.5 85.98 L-300.4 86.17 L-299.4 86.36 L-298.3 86.55 L-297.2 86.74 L-296.2 86.93 L-295.1 87.12 L-294.1 87.31 L-293 87.5 L-291.9 87.69 L-290.9 87.87 L-289.8 88.06 L-288.8 88.25 L-287.7 88.44 L-286.6 88.63 L-285.6 88.82 L-284.5 89.01 L-284.7 90.07 L-284.9 91.13 L-285.1 92.19 L-285.3 93.25 L-285.5 94.31 L-285.6 95.37 L-285.8 96.43 L-286 97.5 L-286.2 98.56 L-286.4 99.62 L-286.6 100.7 L-286.8 101.7 L-287 102.8 L-287.2 103.9 L-287.3 104.9 L-287.5 106 L-287.7 107 L-287.9 108.1 L-288.1 109.2 L-288.3 110.2 L-288.5 111.3 L-288.7 112.4 L-288.9 113.4 L-289 114.5 L-289.2 115.5 L-290.3 115.3 L-291.4 115.2 L-292.4 115 L-293.5 114.8 L-294.5 114.6 L-295.6 114.4 L-296.7 114.2 L-297.7 114 L-298.8 113.8 L-299.8 113.6 L-300.9 113.5 L-302 113.3 L-303 113.1 L-304.1 112.9 L-305.2 112.7 L-306.2 112.5 L-307.3 112.3 L-308.3 112.1 L-309.4 111.9 L-310.5 111.8 L-311.5 111.6 L-312.6 111.4 L-313.6 111.2 L-314.7 111 L-315.8 110.8 L-315.6 109.8 L-315.4 108.7 L-315.2 107.6 L-315 106.6 L-314.8 105.5 L-314.6 104.4 L-314.4 103.4 L-314.3 102.3 L-314.1 101.3 L-313.9 100.2 L-313.7 99.14 L-313.5 98.08 L-313.3 97.02 L-313.1 95.96 L-312.9 94.9 L-312.7 93.83 L-312.6 92.77 L-312.4 91.71 L-312.2 90.65 L-312 89.59 L-311.8 88.53 L-311.6 87.47 L-311.4 86.41 L-311.2 85.35 L-311 84.28 Z " />
<path stroke="rgb(0,0,0)" stroke-opacity="0.924" fill="rgb(255,255,255)" fill-opacity="1" d="M-75.05 200.1 L-75.13 202 L-75.37 204 L-75.77 205.9 L-76.32 207.9 L-77.02 209.7 L-77.86 211.5 L-78.85 213.2 L-79.96 214.9 L-81.21 216.4 L-82.57 217.9 L-84.05 219.2 L-85.62 220.4 L-87.29 221.5 L-89.03 222.4 L-90.85 223.2 L-92.72 223.9 L-94.64 224.4 L-96.59 224.7 L-98.57 224.9 L-100.5 224.9 L-102.5 224.8 L-104.5 224.5 L-106.4 224.1 L-108.3 223.5 L-110.2 222.8 L-111.9 221.9 L-113.6 220.9 L-115.3 219.7 L-116.8 218.5 L-118.2 217.1 L-119.5 215.6 L-120.7 214 L-121.7 212.3 L-122.6 210.5 L-123.4 208.7 L-124 206.8 L-124.5 204.9 L-124.8 202.9 L-124.9 200.9 L-124.9 199 L-124.8 197 L-124.4 195 L-124 193.1 L-123.3 191.2 L-122.6 189.4 L-121.7 187.6 L-120.6 185.9 L-119.4 184.3 L-118.1 182.9 L-116.7 181.5 L-115.2 180.2 L-113.6 179.1 L-111.8 178 L-110.1 177.2 L-108.2 176.4 L-106.3 175.9 L-104.4 175.4 L-102.4 175.2 L-100.4 175.1 L-98.46 175.1 L-96.48 175.3 L-94.53 175.7 L-92.62 176.2 L-90.75 176.8 L-88.93 177.6 L-87.19 178.6 L-85.53 179.7 L-83.96 180.9 L-82.49 182.2 L-81.14 183.7 L-79.9 185.2 L-78.79 186.9 L-77.81 188.6 L-76.98 190.4 L-76.28 192.2 L-75.74 194.2 L-75.36 196.1 L-75.12 198.1 L-75.05 200.1 Z " />
<path stroke="rgb(0,0,0)" stroke-opacity="1" fill="rgb(255,255,255)" fill-opacity="1" d="M-112.5 87.19 L-111.5 87.2 L-110.5 87.22 L-109.5 87.23 L-108.5 87.24 L-107.5 87.25 L-106.5 87.27 L-105.5 87.28 L-104.5 87.29 L-103.5 87.3 L-102.5 87.32 L-101.5 87.33 L-100.5 87.34 L-99.47 87.35 L-98.46 87.37 L-97.46 87.38 L-96.46 87.39 L-95.45 87.4 L-94.45 87.42 L-93.45 87.43 L-92.45 87.44 L-91.44 87.45 L-90.44 87.46 L-89.44 87.48 L-88.44 87.49 L-87.43 87.5 L-87.45 88.51 L-87.46 89.51 L-87.47 90.51 L-87.48 91.51 L-87.5 92.52 L-87.51 93.52 L-87.52 94.52 L-87.53 95.52 L-87.55 96.53 L-87.56 97.53 L-87.57 98.53 L-87.58 99.53 L-87.6 100.5 L-87.61 101.5 L-87.62 102.5 L-87.63 103.5 L-87.65 104.5 L-87.66 105.6 L-87.67 106.6 L-87.68 107.6 L-87.7 108.6 L-87.71 109.6 L-87.72 110.6 L-87.73 111.6 L-87.74 112.6 L-88.75 112.6 L-89.75 112.5 L-90.75 112.5 L-91.76 112.5 L-92.76 112.5 L-93.76 112.5 L-94.76 112.5 L-95.77 112.5 L-96.77 112.5 L-97.77 112.4 L-98.77 112.4 L-99.78 112.4 L-100.8 112.4 L-101.8 112.4 L-102.8 112.4 L-103.8 112.4 L-104.8 112.4 L-105.8 112.3 L-106.8 112.3 L-107.8 112.3 L-108.8 112.3 L-109.8 112.3 L-110.8 112.3 L-111.8 112.3 L-112.8 112.3 L-112.8 111.3 L-112.8 110.3 L-112.8 109.3 L-112.8 108.2 L-112.7 107.2 L-112.7 106.2 L-112.7 105.2 L-112.7 104.2 L-112.7 103.2 L-112.7 102.2 L-112.7 101.2 L-112.7 100.2 L-112.7 99.22 L-112.6 98.22 L-112.6 97.22 L-112.6 96.22 L-112.6 95.21 L-112.6 94.21 L-112.6 93.21 L-112.6 92.2 L-112.6 91.2 L-112.5 90.2 L-112.5 89.2 L-112.5 88.19 L-112.5 87.19 Z " />
<path stroke="rgb(0,0,0)" stroke-opacity="0.924" fill="rgb(255,255,255)" fill-opacity="1" d="M125 200.1 L124.9 202 L124.6 204 L124.2 205.9 L123.7 207.9 L123 209.7 L122.1 211.5 L121.2 213.2 L120 214.9 L118.8 216.4 L117.4 217.9 L116 219.2 L114.4 220.4 L112.7 221.5 L111 222.4 L109.2 223.2 L107.3 223.9 L105.4 224.4 L103.4 224.7 L101.4 224.9 L99.45 224.9 L97.47 224.8 L95.51 224.5 L93.57 224.1 L91.68 223.5 L89.83 222.8 L88.05 221.9 L86.35 220.9 L84.74 219.7 L83.22 218.5 L81.8 217.1 L80.5 215.6 L79.33 214 L78.28 212.3 L77.38 210.5 L76.61 208.7 L76 206.8 L75.53 204.9 L75.22 202.9 L75.07 200.9 L75.07 199 L75.23 197 L75.55 195 L76.03 193.1 L76.65 191.2 L77.42 189.4 L78.34 187.6 L79.39 185.9 L80.57 184.3 L81.88 182.9 L83.3 181.5 L84.82 180.2 L86.44 179.1 L88.15 178 L89.93 177.2 L91.78 176.4 L93.68 175.9 L95.61 175.4 L97.58 175.2 L99.56 175.1 L101.5 175.1 L103.5 175.3 L105.5 175.7 L107.4 176.2 L109.3 176.8 L111.1 177.6 L112.8 178.6 L114.5 179.7 L116 180.9 L117.5 182.2 L118.9 183.7 L120.1 185.2 L121.2 186.9 L122.2 188.6 L123 190.4 L123.7 192.2 L124.3 194.2 L124.6 196.1 L124.9 198.1 L125 200.1 Z " />
<path stroke="rgb(0,0,0)" stroke-opacity="1" fill="rgb(255,255,255)" fill-opacity="1" d="M87.42 87.39 L88.42 87.39 L89.42 87.39 L90.41 87.39 L91.41 87.39 L92.41 87.4 L93.41 87.4 L94.41 87.4 L95.4 87.4 L96.4 87.4 L97.4 87.4 L98.4 87.4 L99.39 87.4 L100.4 87.41 L101.4 87.41 L102.4 87.41 L103.4 87.41 L104.4 87.41 L105.4 87.41 L106.4 87.41 L107.4 87.41 L108.4 87.42 L109.4 87.42 L110.4 87.42 L111.4 87.42 L112.4 87.42 L112.4 88.42 L112.4 89.42 L112.4 90.41 L112.4 91.41 L112.4 92.41 L112.4 93.41 L112.4 94.41 L112.4 95.4 L112.4 96.4 L112.4 97.4 L112.4 98.4 L112.4 99.39 L112.4 100.4 L112.3 101.4 L112.3 102.4 L112.3 103.4 L112.3 104.4 L112.3 105.4 L112.3 106.4 L112.3 107.4 L112.3 108.4 L112.3 109.4 L112.3 110.4 L112.3 111.4 L112.3 112.4 L111.3 112.4 L110.3 112.4 L109.3 112.4 L108.3 112.4 L107.3 112.4 L106.3 112.4 L105.4 112.4 L104.4 112.4 L103.4 112.4 L102.4 112.4 L101.4 112.4 L100.4 112.4 L99.36 112.4 L98.37 112.3 L97.37 112.3 L96.37 112.3 L95.37 112.3 L94.37 112.3 L93.38 112.3 L92.38 112.3 L91.38 112.3 L90.38 112.3 L89.39 112.3 L88.39 112.3 L87.39 112.3 L87.39 111.3 L87.39 110.3 L87.39 109.3 L87.39 108.3 L87.4 107.3 L87.4 106.3 L87.4 105.4 L87.4 104.4 L87.4 103.4 L87.4 102.4 L87.4 101.4 L87.4 100.4 L87.41 99.36 L87.41 98.37 L87.41 97.37 L87.41 96.37 L87.41 95.37 L87.41 94.37 L87.41 93.38 L87.41 92.38 L87.42 91.38 L87.42 90.38 L87.42 89.39 L87.42 88.39 L87.42 87.39 Z " />
<path stroke="rgb(0,0,0)" stroke-opacity="0.924" fill="rgb(255,255,255)" fill-opacity="1" d="M325 200.1 L324.9 202 L324.6 204 L324.2 205.9 L323.7 207.9 L323 209.7 L322.1 211.5 L321.2 213.2 L320 214.9 L318.8 216.4 L317.4 217.9 L316 219.2 L314.4 220.4 L312.7 221.5 L311 222.4 L309.2 223.2 L307.3 223.9 L305.4 224.4 L303.4 224.7 L301.4 224.9 L299.5 224.9 L297.5 224.8 L295.5 224.5 L293.6 224.1 L291.7 223.5 L289.8 222.8 L288.1 221.9 L286.4 220.9 L284.7 219.7 L283.2 218.5 L281.8 217.1 L280.5 215.6 L279.3 214 L278.3 212.3 L277.4 210.5 L276.6 208.7 L276 206.8 L275.5 204.9 L275.2 202.9 L275.1 200.9 L275.1 199 L275.2 197 L275.6 195 L276 193.1 L276.7 191.2 L277.4 189.4 L278.3 187.6 L279.4 185.9 L280.6 184.3 L281.9 182.9 L283.3 181.5 L284.8 180.2 L286.4 179.1 L288.2 178 L289.9 177.2 L291.8 176.4 L293.7 175.9 L295.6 175.4 L297.6 175.2 L299.6 175.1 L301.5 175.1 L303.5 175.3 L305.5 175.7 L307.4 176.2 L309.3 176.8 L311.1 177.6 L312.8 178.6 L314.5 179.7 L316 180.9 L317.5 182.2 L318.9 183.7 L320.1 185.2 L321.2 186.9 L322.2 188.6 L323 190.4 L323.7 192.2 L324.3 194.2 L324.6 196.1 L324.9 198.1 L325 200.1 Z " />
<path stroke="rgb(0,0,0)" stroke-opacity="1" fill="rgb(255,255,255)" fill-opacity="1" d="M-411 184.3 L-410 184.5 L-408.9 184.7 L-407.9 184.9 L-406.8 185 L-405.7 185.2 L-404.7 185.4 L-403.6 185.6 L-402.6 185.8 L-401.5 186 L-400.4 186.2 L-399.4 186.4 L-398.3 186.6 L-397.2 186.7 L-396.2 186.9 L-395.1 187.1 L-394.1 187.3 L-393 187.5 L-391.9 187.7 L-390.9 187.9 L-389.8 188.1 L-388.8 188.3 L-387.7 188.4 L-386.6 188.6 L-385.6 188.8 L-384.5 189 L-384.7 190.1 L-384.9 191.1 L-385.1 192.2 L-385.3 193.3 L-385.5 194.3 L-385.6 195.4 L-385.8 196.4 L-386 197.5 L-386.2 198.6 L-386.4 199.6 L-386.6 200.7 L-386.8 201.7 L-387 202.8 L-387.2 203.9 L-387.3 204.9 L-387.5 206 L-387.7 207 L-387.9 208.1 L-388.1 209.2 L-388.3 210.2 L-388.5 211.3 L-388.7 212.4 L-388.9 213.4 L-389 214.5 L-389.2 215.5 L-390.3 215.3 L-391.4 215.2 L-392.4 215 L-393.5 214.8 L-394.5 214.6 L-395.6 214.4 L-396.7 214.2 L-397.7 214 L-398.8 213.8 L-399.8 213.6 L-400.9 213.5 L-402 213.3 L-403 213.1 L-404.1 212.9 L-405.2 212.7 L-406.2 212.5 L-407.3 212.3 L-408.3 212.1 L-409.4 211.9 L-410.5 211.8 L-411.5 211.6 L-412.6 211.4 L-413.6 211.2 L-414.7 211 L-415.8 210.8 L-415.6 209.8 L-415.4 208.7 L-415.2 207.6 L-415 206.6 L-414.8 205.5 L-414.6 204.4 L-414.4 203.4 L-414.3 202.3 L-414.1 201.3 L-413.9 200.2 L-413.7 199.1 L-413.5 198.1 L-413.3 197 L-413.1 196 L-412.9 194.9 L-412.7 193.8 L-412.6 192.8 L-412.4 191.7 L-412.2 190.7 L-412 189.6 L-411.8 188.5 L-411.6 187.5 L-411.4 186.4 L-411.2 185.3 L-411 184.3 Z " />
<path stroke="rgb(0,0,0)" stroke-opacity="0.924" fill="rgb(255,255,255)" fill-opacity="1" d="M-175 300.1 L-175.1 302 L-175.4 304 L-175.8 305.9 L-176.3 307.9 L-177 309.7 L-177.9 311.5 L-178.8 313.2 L-180 314.9 L-181.2 316.4 L-182.6 317.9 L-184 319.2 L-185.6 320.4 L-187.3 321.5 L-189 322.4 L-190.8 323.2 L-192.7 323.9 L-194.6 324.4 L-196.6 324.7 L-198.6 324.9 L-200.5 324.9 L-202.5 324.8 L-204.5 324.5 L-206.4 324.1 L-208.3 323.5 L-210.2 322.8 L-211.9 321.9 L-213.6 320.9 L-215.3 319.7 L-216.8 318.5 L-218.2 317.1 L-219.5 315.6 L-220.7 314 L-221.7 312.3 L-222.6 310.5 L-223.4 308.7 L-224 306.8 L-224.5 304.9 L-224.8 302.9 L-224.9 300.9 L-224.9 299 L-224.8 297 L-224.4 295 L-224 293.1 L-223.3 291.2 L-222.6 289.4 L-221.7 287.6 L-220.6 285.9 L-219.4 284.3 L-218.1 282.9 L-216.7 281.5 L-215.2 280.2 L-213.6 279.1 L-211.8 278 L-210.1 277.2 L-208.2 276.4 L-206.3 275.9 L-204.4 275.4 L-202.4 275.2 L-200.4 275.1 L-198.5 275.1 L-196.5 275.3 L-194.5 275.7 L-192.6 276.2 L-190.7 276.8 L-188.9 277.6 L-187.2 278.6 L-185.5 279.7 L-184 280.9 L-182.5 282.2 L-181.1 283.7 L-179.9 285.2 L-178.8 286.9 L-177.8 288.6 L-177 290.4 L-176.3 292.2 L-175.7 294.2 L-175.4 296.1 L-175.1 298.1 L-175 300.1 Z " />
<path stroke="rgb(0,0,0)" stroke-opacity="1" fill="rgb(255,255,255)" fill-opacity="1" d="M-212.5 187.2 L-211.5 187.2 L-210.5 187.2 L-209.5 187.2 L-208.5 187.2 L-207.5 187.3 L-206.5 187.3 L-205.5 187.3 L-204.5 187.3 L-203.5 187.3 L-202.5 187.3 L-201.5 187.3 L-200.5 187.3 L-199.5 187.4 L-198.5 187.4 L-197.5 187.4 L-196.5 187.4 L-195.5 187.4 L-194.5 187.4 L-193.4 187.4 L-192.4 187.4 L-191.4 187.5 L-190.4 187.5 L-189.4 187.5 L-188.4 187.5 L-187.4 187.5 L-187.4 188.5 L-187.5 189.5 L-187.5 190.5 L-187.5 191.5 L-187.5 192.5 L-187.5 193.5 L-187.5 194.5 L-187.5 195.5 L-187.5 196.5 L-187.6 197.5 L-187.6 198.5 L-187.6 199.5 L-187.6 200.5 L-187.6 201.5 L-187.6 202.5 L-187.6 203.5 L-187.6 204.5 L-187.7 205.6 L-187.7 206.6 L-187.7 207.6 L-187.7 208.6 L-187.7 209.6 L-187.7 210.6 L-187.7 211.6 L-187.7 212.6 L-188.7 212.6 L-189.8 212.5 L-190.8 212.5 L-191.8 212.5 L-192.8 212.5 L-193.8 212.5 L-194.8 212.5 L-195.8 212.5 L-196.8 212.5 L-197.8 212.4 L-198.8 212.4 L-199.8 212.4 L-200.8 212.4 L-201.8 212.4 L-202.8 212.4 L-203.8 212.4 L-204.8 212.4 L-205.8 212.3 L-206.8 212.3 L-207.8 212.3 L-208.8 212.3 L-209.8 212.3 L-210.8 212.3 L-211.8 212.3 L-212.8 212.3 L-212.8 211.3 L-212.8 210.3 L-212.8 209.3 L-212.8 208.2 L-212.7 207.2 L-212.7 206.2 L-212.7 205.2 L-212.7 204.2 L-212.7 203.2 L-212.7 202.2 L-212.7 201.2 L-212.7 200.2 L-212.7 199.2 L-212.6 198.2 L-212.6 197.2 L-212.6 196.2 L-212.6 195.2 L-212.6 194.2 L-212.6 193.2 L-212.6 192.2 L-212.6 191.2 L-212.5 190.2 L-212.5 189.2 L-212.5 188.2 L-212.5 187.2 Z " />
<path stroke="rgb(0,0,0)" stroke-opacity="0.924" fill="rgb(255,255,255)" fill-opacity="1" d="M24.95 300.1 L24.87 302 L24.63 304 L24.23 305.9 L23.68 307.9 L22.98 309.7 L22.14 311.5 L21.15 313.2 L20.04 314.9 L18.79 316.4 L17.43 317.9 L15.95 319.2 L14.38 320.4 L12.71 321.5 L10.97 322.4 L9.153 323.2 L7.28 323.9 L5.361 324.4 L3.408 324.7 L1.434 324.9 L-0.5499 324.9 L-2.53 324.8 L-4.494 324.5 L-6.43 324.1 L-8.325 323.5 L-10.17 322.8 L-11.95 321.9 L-13.65 320.9 L-15.26 319.7 L-16.78 318.5 L-18.2 317.1 L-19.5 315.6 L-20.67 314 L-21.72 312.3 L-22.62 310.5 L-23.39 308.7 L-24 306.8 L-24.47 304.9 L-24.78 302.9 L-24.93 300.9 L-24.93 299 L-24.77 297 L-24.45 295 L-23.97 293.1 L-23.35 291.2 L-22.58 289.4 L-21.66 287.6 L-20.61 285.9 L-19.43 284.3 L-18.12 282.9 L-16.7 281.5 L-15.18 280.2 L-13.56 279.1 L-11.85 278 L-10.07 277.2 L-8.222 276.4 L-6.324 275.9 L-4.387 275.4 L-2.422 275.2 L-0.441 275.1 L1.542 275.1 L3.516 275.3 L5.467 275.7 L7.384 276.2 L9.254 276.8 L11.07 277.6 L12.81 278.6 L14.47 279.7 L16.04 280.9 L17.51 282.2 L18.86 283.7 L20.1 285.2 L21.21 286.9 L22.19 288.6 L23.02 290.4 L23.72 292.2 L24.26 294.2 L24.64 296.1 L24.88 298.1 L24.95 300.1 Z " />
<path stroke="rgb(0,0,0)" stroke-opacity="1" fill="rgb(255,255,255)" fill-opacity="1" d="M-12.58 187.4 L-11.58 187.4 L-10.58 187.4 L-9.586 187.4 L-8.588 187.4 L-7.59 187.4 L-6.593 187.4 L-5.595 187.4 L-4.597 187.4 L-3.599 187.4 L-2.601 187.4 L-1.603 187.4 L-0.6056 187.4 L0.3923 187.4 L1.39 187.4 L2.388 187.4 L3.386 187.4 L4.384 187.4 L5.381 187.4 L6.379 187.4 L7.377 187.4 L8.375 187.4 L9.373 187.4 L10.37 187.4 L11.37 187.4 L12.37 187.4 L12.37 188.4 L12.36 189.4 L12.36 190.4 L12.36 191.4 L12.36 192.4 L12.36 193.4 L12.36 194.4 L12.36 195.4 L12.36 196.4 L12.35 197.4 L12.35 198.4 L12.35 199.4 L12.35 200.4 L12.35 201.4 L12.35 202.4 L12.35 203.4 L12.35 204.4 L12.34 205.4 L12.34 206.4 L12.34 207.4 L12.34 208.4 L12.34 209.4 L12.34 210.4 L12.34 211.4 L12.34 212.4 L11.34 212.4 L10.34 212.4 L9.342 212.4 L8.344 212.4 L7.346 212.4 L6.349 212.4 L5.351 212.4 L4.353 212.4 L3.355 212.4 L2.357 212.4 L1.359 212.4 L0.3615 212.4 L-0.6363 212.4 L-1.634 212.3 L-2.632 212.3 L-3.63 212.3 L-4.628 212.3 L-5.626 212.3 L-6.623 212.3 L-7.621 212.3 L-8.619 212.3 L-9.617 212.3 L-10.61 212.3 L-11.61 212.3 L-12.61 212.3 L-12.61 211.3 L-12.61 210.3 L-12.61 209.3 L-12.61 208.3 L-12.6 207.3 L-12.6 206.3 L-12.6 205.4 L-12.6 204.4 L-12.6 203.4 L-12.6 202.4 L-12.6 201.4 L-12.6 200.4 L-12.59 199.4 L-12.59 198.4 L-12.59 197.4 L-12.59 196.4 L-12.59 195.4 L-12.59 194.4 L-12.59 193.4 L-12.59 192.4 L-12.58 191.4 L-12.58 190.4 L-12.58 189.4 L-12.58 188.4 L-12.58 187.4 Z " />
<path stroke="rgb(0,0,0)" stroke-opacity="0.924" fill="rgb(255,255,255)" fill-opacity="1" d="M225 300.1 L224.9 302 L224.6 304 L224.2 305.9 L223.7 307.9 L223 309.7 L222.1 311.5 L221.2 313.2 L220 314.9 L218.8 316.4 L217.4 317.9 L216 319.2 L214.4 320.4 L212.7 321.5 L211 322.4 L209.2 323.2 L207.3 323.9 L205.4 324.4 L203.4 324.7 L201.4 324.9 L199.5 324.9 L197.5 324.8 L195.5 324.5 L193.6 324.1 L191.7 323.5 L189.8 322.8 L188.1 321.9 L186.4 320.9 L184.7 319.7 L183.2 318.5 L181.8 317.1 L180.5 315.6 L179.3 314 L178.3 312.3 L177.4 310.5 L176.6 308.7 L176 306.8 L175.5 304.9 L175.2 302.9 L175.1 300.9 L175.1 299 L175.2 297 L175.6 295 L176 293.1 L176.7 291.2 L177.4 289.4 L178.3 287.6 L179.4 285.9 L180.6 284.3 L181.9 282.9 L183.3 281.5 L184.8 280.2 L186.4 279.1 L188.2 278 L189.9 277.2 L191.8 276.4 L193.7 275.9 L195.6 275.4 L197.6 275.2 L199.6 275.1 L201.5 275.1 L203.5 275.3 L205.5 275.7 L207.4 276.2 L209.3 276.8 L211.1 277.6 L212.8 278.6 L214.5 279.7 L216 280.9 L217.5 282.2 L218.9 283.7 L220.1 285.2 L221.2 286.9 L222.2 288.6 L223 290.4 L223.7 292.2 L224.3 294.2 L224.6 296.1 L224.9 298.1 L225 300.1 Z " />
<path stroke="rgb(0,0,0)" stroke-opacity="1" fill="rgb(255,255,255)" fill-opacity="1" d="M187.4 187.4 L188.4 187.4 L189.4 187.4 L190.4 187.4 L191.4 187.4 L192.4 187.4 L193.4 187.4 L194.4 187.4 L195.4 187.4 L196.4 187.4 L197.4 187.4 L198.4 187.4 L199.4 187.4 L200.4 187.4 L201.4 187.4 L202.4 187.4 L203.4 187.4 L204.4 187.4 L205.4 187.4 L206.4 187.4 L207.4 187.4 L208.4 187.4 L209.4 187.4 L210.4 187.4 L211.4 187.4 L212.4 187.4 L212.4 188.4 L212.4 189.4 L212.4 190.4 L212.4 191.4 L212.4 192.4 L212.4 193.4 L212.4 194.4 L212.4 195.4 L212.4 196.4 L212.4 197.4 L212.4 198.4 L212.4 199.4 L212.4 200.4 L212.3 201.4 L212.3 202.4 L212.3 203.4 L212.3 204.4 L212.3 205.4 L212.3 206.4 L212.3 207.4 L212.3 208.4 L212.3 209.4 L212.3 210.4 L212.3 211.4 L212.3 212.4 L211.3 212.4 L210.3 212.4 L209.3 212.4 L208.3 212.4 L207.3 212.4 L206.3 212.4 L205.4 212.4 L204.4 212.4 L203.4 212.4 L202.4 212.4 L201.4 212.4 L200.4 212.4 L199.4 212.4 L198.4 212.3 L197.4 212.3 L196.4 212.3 L195.4 212.3 L194.4 212.3 L193.4 212.3 L192.4 212.3 L191.4 212.3 L190.4 212.3 L189.4 212.3 L188.4 212.3 L187.4 212.3 L187.4 211.3 L187.4 210.3 L187.4 209.3 L187.4 208.3 L187.4 207.3 L187.4 206.3 L187.4 205.4 L187.4 204.4 L187.4 203.4 L187.4 202.4 L187.4 201.4 L187.4 200.4 L187.4 199.4 L187.4 198.4 L187.4 197.4 L187.4 196.4 L187.4 195.4 L187.4 194.4 L187.4 193.4 L187.4 192.4 L187.4 191.4 L187.4 190.4 L187.4 189.4 L187.4 188.4 L187.4 187.4 Z " />
</g>
</g>
</svg>
