<!DOCTYPE svg>
<svg xmlns="http://www.w3.org/2000/svg" xmlns:xlink="http://www.w3.org/1999/xlink" width="1000" height="1000">
<g transform="translate(500.000000,500.000000)">
<g transform="scale(3.000000,3.000000)">
<path stroke="rgb(0,0,0)" stroke-opacity="1" fill="rgb(255,255,255)" fill-opacity="1" d="M-473.6 -483.6 L-475.3 -483.2 L-477.1 -482.8 L-478.8 -482.4 L-480.6 -482 L-482.3 -481.6 L-484.1 -481.2 L-485.8 -480.8 L-487.6 -480.4 L-489.3 -480 L-491.1 -479.6 L-492.8 -479.2 L-494.6 -478.8 L-496.3 -478.4 L-498.1 -478 L-499.8 -477.6 L-501.5 -477.2 L-503.3 -476.7 L-505 -476.3 L-506.8 -475.9 L-508.5 -475.5 L-510.3 -475.1 L-512 -474.7 L-513.8 -474.3 L-515.5 -473.9 L-517.3 -473.5 L-517.7 -475.2 L-518.1 -477 L-518.5 -478.7 L-518.9 -480.5 L-519.3 -482.2 L-519.7 -484 L-520.1 -485.7 L-520.5 -487.5 L-520.9 -489.2 L-521.3 -491 L-521.7 -492.7 L-522.1 -494.5 L-522.5 -496.2 L-523 -498 L-523.4 -499.7 L-523.8 -501.4 L-524.2 -503.2 L-524.6 -504.9 L-525 -506.7 L-525.4 -508.4 L-525.8 -510.2 L-526.2 -511.9 L-526.6 -513.7 L-527 -515.4 L-527.4 -517.2 L-525.7 -517.6 L-523.9 -518 L-522.2 -518.4 L-520.4 -518.8 L-518.7 -519.2 L-516.9 -519.6 L-515.2 -520 L-513.4 -520.4 L-511.7 -520.8 L-510 -521.2 L-508.2 -521.6 L-506.5 -522 L-504.7 -522.4 L-503 -522.9 L-501.2 -523.3 L-499.5 -523.7 L-497.7 -524.1 L-496 -524.5 L-494.2 -524.9 L-492.5 -525.3 L-490.7 -525.7 L-489 -526.1 L-487.2 -526.5 L-485.5 -526.9 L-483.7 -527.3 L-483.3 -525.6 L-482.9 -523.8 L-482.5 -522.1 L-482.1 -520.3 L-481.7 -518.6 L-481.3 -516.8 L-480.9 -515.1 L-480.5 -513.3 L-480.1 -511.6 L-479.7 -509.9 L-479.3 -508.1 L-478.9 -506.4 L-478.5 -504.6 L-478.1 -502.9 L-477.7 -501.1 L-477.3 -499.4 L-476.8 -497.6 L-476.4 -495.9 L-476 -494.1 L-475.6 -492.4 L-475.2 -490.6 L-474.8 -488.9 L-474.4 -487.1 L-474 -485.4 L-473.6 -483.6 Z " />
<path stroke="rgb(0,0,0)" stroke-opacity="0.981" fill="rgb(255,255,255)" fill-opacity="1" d="M-175.1 -299.9 L-175.2 -297.9 L-175.4 -295.9 L-175.8 -294 L-176.4 -292.1 L-177.1 -290.3 L-177.9 -288.5 L-178.9 -286.8 L-180 -285.1 L-181.3 -283.6 L-182.6 -282.1 L-184.1 -280.8 L-185.7 -279.6 L-187.4 -278.5 L-189.1 -277.6 L-190.9 -276.8 L-192.8 -276.2 L-194.7 -275.7 L-196.7 -275.3 L-198.6 -275.1 L-200.6 -275.1 L-202.6 -275.2 L-204.5 -275.5 L-206.5 -276 L-208.4 -276.5 L-210.2 -277.3 L-212 -278.2 L-213.7 -279.2 L-215.3 -280.3 L-216.8 -281.6 L-218.2 -283 L-219.5 -284.5 L-220.7 -286.1 L-221.7 -287.8 L-222.6 -289.6 L-223.4 -291.4 L-224 -293.3 L-224.4 -295.2 L-224.7 -297.1 L-224.9 -299.1 L-224.9 -301.1 L-224.7 -303.1 L-224.4 -305 L-223.9 -306.9 L-223.3 -308.8 L-222.5 -310.6 L-221.6 -312.4 L-220.5 -314.1 L-219.4 -315.7 L-218 -317.2 L-216.6 -318.5 L-215.1 -319.8 L-213.5 -320.9 L-211.8 -321.9 L-210 -322.8 L-208.2 -323.5 L-206.3 -324.1 L-204.3 -324.5 L-202.4 -324.8 L-200.4 -324.9 L-198.4 -324.9 L-196.4 -324.6 L-194.5 -324.3 L-192.6 -323.8 L-190.7 -323.1 L-188.9 -322.3 L-187.2 -321.3 L-185.5 -320.3 L-184 -319 L-182.5 -317.7 L-181.1 -316.3 L-179.9 -314.7 L-178.8 -313.1 L-177.8 -311.3 L-177 -309.5 L-176.3 -307.7 L-175.8 -305.8 L-175.4 -303.8 L-175.2 -301.9 L-175.1 -299.9 Z " />
<path stroke="rgb(0,0,0)" stroke-opacity="1" fill="rgb(255,255,255)" fill-opacity="1" d="M-276.4 -501.8 L-277.3 -500.8 L-278.2 -499.8 L-279.1 -498.7 L-280 -497.7 L-280.9 -496.7 L-281.8 -495.7 L-282.7 -494.6 L-283.6 -493.6 L-284.5 -492.6 L-285.4 -491.6 L-286.3 -490.5 L-287.2 -489.5 L-288.1 -488.5 L-289 -487.5 L-289.9 -486.4 L-290.8 -485.4 L-291.7 -484.4 L-292.6 -483.3 L-293.5 -482.3 L-294.4 -481.3 L-295.3 -480.3 L-296.2 -479.2 L-297.1 -478.2 L-298 -477.2 L-298.9 -476.2 L-299.9 -477.1 L-301 -478 L-302 -478.9 L-303 -479.8 L-304 -480.7 L-305.1 -481.6 L-306.1 -482.5 L-307.1 -483.4 L-308.1 -484.3 L-309.2 -485.2 L-310.2 -486.1 L-311.2 -487 L-312.2 -487.9 L-313.3 -488.8 L-314.3 -489.7 L-315.3 -490.6 L-316.3 -491.5 L-317.4 -492.4 L-318.4 -493.3 L-319.4 -494.2 L-320.4 -495.1 L-321.5 -496 L-322.5 -496.9 L-323.5 -497.8 L-324.5 -498.7 L-323.6 -499.7 L-322.7 -500.7 L-321.8 -501.7 L-320.9 -502.8 L-320 -503.8 L-319.1 -504.8 L-318.2 -505.8 L-317.3 -506.9 L-316.4 -507.9 L-315.5 -508.9 L-314.6 -509.9 L-313.7 -511 L-312.8 -512 L-311.9 -513 L-311 -514 L-310.1 -515.1 L-309.2 -516.1 L-308.4 -517.1 L-307.5 -518.1 L-306.6 -519.2 L-305.7 -520.2 L-304.8 -521.2 L-303.9 -522.2 L-303 -523.3 L-302.1 -524.3 L-301 -523.4 L-300 -522.5 L-299 -521.6 L-298 -520.7 L-296.9 -519.8 L-295.9 -518.9 L-294.9 -518 L-293.9 -517.1 L-292.8 -516.2 L-291.8 -515.3 L-290.8 -514.4 L-289.8 -513.5 L-288.7 -512.6 L-287.7 -511.7 L-286.7 -510.8 L-285.7 -509.9 L-284.6 -509 L-283.6 -508.1 L-282.6 -507.2 L-281.6 -506.3 L-280.5 -505.4 L-279.5 -504.5 L-278.5 -503.6 L-277.5 -502.7 L-276.4 -501.8 Z " />
<path stroke="rgb(0,0,0)" stroke-opacity="0.981" fill="rgb(255,255,255)" fill-opacity="1" d="M24.9 -299.9 L24.81 -297.9 L24.57 -295.9 L24.17 -294 L23.62 -292.1 L22.92 -290.3 L22.07 -288.5 L21.08 -286.8 L19.96 -285.1 L18.72 -283.6 L17.35 -282.1 L15.88 -280.8 L14.31 -279.6 L12.64 -278.5 L10.9 -277.6 L9.085 -276.8 L7.214 -276.2 L5.298 -275.7 L3.348 -275.3 L1.377 -275.1 L-0.6025 -275.1 L-2.578 -275.2 L-4.538 -275.5 L-6.469 -276 L-8.359 -276.5 L-10.2 -277.3 L-11.97 -278.2 L-13.67 -279.2 L-15.28 -280.3 L-16.79 -281.6 L-18.2 -283 L-19.49 -284.5 L-20.66 -286.1 L-21.7 -287.8 L-22.6 -289.6 L-23.36 -291.4 L-23.97 -293.3 L-24.43 -295.2 L-24.73 -297.1 L-24.88 -299.1 L-24.87 -301.1 L-24.71 -303.1 L-24.39 -305 L-23.91 -306.9 L-23.28 -308.8 L-22.51 -310.6 L-21.59 -312.4 L-20.54 -314.1 L-19.35 -315.7 L-18.05 -317.2 L-16.63 -318.5 L-15.1 -319.8 L-13.48 -320.9 L-11.78 -321.9 L-9.997 -322.8 L-8.153 -323.5 L-6.258 -324.1 L-4.324 -324.5 L-2.362 -324.8 L-0.3851 -324.9 L1.594 -324.9 L3.563 -324.6 L5.51 -324.3 L7.422 -323.8 L9.287 -323.1 L11.09 -322.3 L12.83 -321.3 L14.48 -320.3 L16.05 -319 L17.51 -317.7 L18.86 -316.3 L20.09 -314.7 L21.2 -313.1 L22.17 -311.3 L23 -309.5 L23.69 -307.7 L24.22 -305.8 L24.6 -303.8 L24.83 -301.9 L24.9 -299.9 Z " />
<path stroke="rgb(0,0,0)" stroke-opacity="1" fill="rgb(255,255,255)" fill-opacity="1" d="M-84.8 -511 L-84.99 -509.9 L-85.18 -508.9 L-85.37 -507.8 L-85.56 -506.7 L-85.75 -505.7 L-85.94 -504.6 L-86.13 -503.6 L-86.32 -502.5 L-86.52 -501.5 L-86.71 -500.4 L-86.9 -499.3 L-87.09 -498.3 L-87.28 -497.2 L-87.47 -496.2 L-87.66 -495.1 L-87.85 -494.1 L-88.04 -493 L-88.23 -491.9 L-88.42 -490.9 L-88.61 -489.8 L-88.8 -488.8 L-88.99 -487.7 L-89.18 -486.7 L-89.37 -485.6 L-89.56 -484.5 L-90.62 -484.7 L-91.68 -484.9 L-92.74 -485.1 L-93.79 -485.3 L-94.85 -485.5 L-95.91 -485.7 L-96.97 -485.9 L-98.02 -486.1 L-99.08 -486.3 L-100.1 -486.4 L-101.2 -486.6 L-102.3 -486.8 L-103.3 -487 L-104.4 -487.2 L-105.4 -487.4 L-106.5 -487.6 L-107.5 -487.8 L-108.6 -488 L-109.7 -488.2 L-110.7 -488.3 L-111.8 -488.5 L-112.8 -488.7 L-113.9 -488.9 L-114.9 -489.1 L-116 -489.3 L-115.8 -490.4 L-115.6 -491.4 L-115.4 -492.5 L-115.2 -493.5 L-115 -494.6 L-114.9 -495.6 L-114.7 -496.7 L-114.5 -497.8 L-114.3 -498.8 L-114.1 -499.9 L-113.9 -500.9 L-113.7 -502 L-113.5 -503 L-113.3 -504.1 L-113.1 -505.2 L-112.9 -506.2 L-112.8 -507.3 L-112.6 -508.3 L-112.4 -509.4 L-112.2 -510.4 L-112 -511.5 L-111.8 -512.6 L-111.6 -513.6 L-111.4 -514.7 L-111.2 -515.7 L-110.2 -515.5 L-109.1 -515.4 L-108.1 -515.2 L-107 -515 L-105.9 -514.8 L-104.9 -514.6 L-103.8 -514.4 L-102.8 -514.2 L-101.7 -514 L-100.7 -513.8 L-99.6 -513.6 L-98.54 -513.4 L-97.49 -513.3 L-96.43 -513.1 L-95.37 -512.9 L-94.32 -512.7 L-93.26 -512.5 L-92.2 -512.3 L-91.14 -512.1 L-90.09 -511.9 L-89.03 -511.7 L-87.97 -511.5 L-86.91 -511.4 L-85.86 -511.2 L-84.8 -511 Z " />
<path stroke="rgb(0,0,0)" stroke-opacity="0.981" fill="rgb(255,255,255)" fill-opacity="1" d="M224.9 -299.9 L224.8 -297.9 L224.6 -295.9 L224.2 -294 L223.6 -292.1 L222.9 -290.3 L222.1 -288.5 L221.1 -286.8 L220 -285.1 L218.7 -283.6 L217.4 -282.1 L215.9 -280.8 L214.3 -279.6 L212.6 -278.5 L210.9 -277.6 L209.1 -276.8 L207.2 -276.2 L205.3 -275.7 L203.3 -275.3 L201.4 -275.1 L199.4 -275.1 L197.4 -275.2 L195.5 -275.5 L193.5 -276 L191.6 -276.5 L189.8 -277.3 L188 -278.2 L186.3 -279.2 L184.7 -280.3 L183.2 -281.6 L181.8 -283 L180.5 -284.5 L179.3 -286.1 L178.3 -287.8 L177.4 -289.6 L176.6 -291.4 L176 -293.3 L175.6 -295.2 L175.3 -297.1 L175.1 -299.1 L175.1 -301.1 L175.3 -303.1 L175.6 -305 L176.1 -306.9 L176.7 -308.8 L177.5 -310.6 L178.4 -312.4 L179.5 -314.1 L180.6 -315.7 L182 -317.2 L183.4 -318.5 L184.9 -319.8 L186.5 -320.9 L188.2 -321.9 L190 -322.8 L191.8 -323.5 L193.7 -324.1 L195.7 -324.5 L197.6 -324.8 L199.6 -324.9 L201.6 -324.9 L203.6 -324.6 L205.5 -324.3 L207.4 -323.8 L209.3 -323.1 L211.1 -322.3 L212.8 -321.3 L214.5 -320.3 L216 -319 L217.5 -317.7 L218.9 -316.3 L220.1 -314.7 L221.2 -313.1 L222.2 -311.3 L223 -309.5 L223.7 -307.7 L224.2 -305.8 L224.6 -303.8 L224.8 -301.9 L224.9 -299.9 Z " />
<path stroke="rgb(0,0,0)" stroke-opacity="1" fill="rgb(255,255,255)" fill-opacity="1" d="M112.3 -512.4 L112.3 -511.4 L112.3 -510.4 L112.3 -509.4 L112.2 -508.4 L112.2 -507.4 L112.2 -506.4 L112.2 -505.4 L112.2 -504.4 L112.2 -503.4 L112.2 -502.4 L112.1 -501.4 L112.1 -500.4 L112.1 -499.4 L112.1 -498.4 L112.1 -497.4 L112.1 -496.4 L112.1 -495.4 L112 -494.4 L112 -493.4 L112 -492.4 L112 -491.4 L112 -490.4 L112 -489.4 L112 -488.4 L111.9 -487.4 L110.9 -487.5 L109.9 -487.5 L108.9 -487.5 L107.9 -487.5 L106.9 -487.5 L105.9 -487.5 L104.9 -487.5 L103.9 -487.6 L102.9 -487.6 L101.9 -487.6 L100.9 -487.6 L99.95 -487.6 L98.95 -487.6 L97.95 -487.7 L96.95 -487.7 L95.95 -487.7 L94.95 -487.7 L93.95 -487.7 L92.95 -487.7 L91.95 -487.7 L90.95 -487.8 L89.95 -487.8 L88.96 -487.8 L87.96 -487.8 L86.96 -487.8 L86.97 -488.8 L86.99 -489.8 L87 -490.8 L87.01 -491.8 L87.03 -492.8 L87.04 -493.8 L87.06 -494.8 L87.07 -495.8 L87.09 -496.8 L87.1 -497.8 L87.12 -498.8 L87.13 -499.8 L87.15 -500.8 L87.16 -501.8 L87.17 -502.8 L87.19 -503.8 L87.2 -504.8 L87.22 -505.8 L87.23 -506.8 L87.25 -507.8 L87.26 -508.8 L87.28 -509.8 L87.29 -510.8 L87.31 -511.8 L87.32 -512.8 L88.32 -512.8 L89.32 -512.8 L90.32 -512.8 L91.32 -512.7 L92.32 -512.7 L93.32 -512.7 L94.32 -512.7 L95.32 -512.7 L96.32 -512.7 L97.31 -512.7 L98.31 -512.6 L99.31 -512.6 L100.3 -512.6 L101.3 -512.6 L102.3 -512.6 L103.3 -512.6 L104.3 -512.5 L105.3 -512.5 L106.3 -512.5 L107.3 -512.5 L108.3 -512.5 L109.3 -512.5 L110.3 -512.5 L111.3 -512.4 L112.3 -512.4 Z " />
<path stroke="rgb(0,0,0)" stroke-opacity="0.981" fill="rgb(255,255,255)" fill-opacity="1" d="M-275.1 -199.9 L-275.2 -197.9 L-275.4 -195.9 L-275.8 -194 L-276.4 -192.1 L-277.1 -190.3 L-277.9 -188.5 L-278.9 -186.8 L-280 -185.1 L-281.3 -183.6 L-282.6 -182.1 L-284.1 -180.8 L-285.7 -179.6 L-287.4 -178.5 L-289.1 -177.6 L-290.9 -176.8 L-292.8 -176.2 L-294.7 -175.7 L-296.7 -175.3 L-298.6 -175.1 L-300.6 -175.1 L-302.6 -175.2 L-304.5 -175.5 L-306.5 -176 L-308.4 -176.5 L-310.2 -177.3 L-312 -178.2 L-313.7 -179.2 L-315.3 -180.3 L-316.8 -181.6 L-318.2 -183 L-319.5 -184.5 L-320.7 -186.1 L-321.7 -187.8 L-322.6 -189.6 L-323.4 -191.4 L-324 -193.3 L-324.4 -195.2 L-324.7 -197.1 L-324.9 -199.1 L-324.9 -201.1 L-324.7 -203.1 L-324.4 -205 L-323.9 -206.9 L-323.3 -208.8 L-322.5 -210.6 L-321.6 -212.4 L-320.5 -214.1 L-319.4 -215.7 L-318 -217.2 L-316.6 -218.5 L-315.1 -219.8 L-313.5 -220.9 L-311.8 -221.9 L-310 -222.8 L-308.2 -223.5 L-306.3 -224.1 L-304.3 -224.5 L-302.4 -224.8 L-300.4 -224.9 L-298.4 -224.9 L-296.4 -224.6 L-294.5 -224.3 L-292.6 -223.8 L-290.7 -223.1 L-288.9 -222.3 L-287.2 -221.3 L-285.5 -220.3 L-284 -219 L-282.5 -217.7 L-281.1 -216.3 L-279.9 -214.7 L-278.8 -213.1 L-277.8 -211.3 L-277 -209.5 L-276.3 -207.7 L-275.8 -205.8 L-275.4 -203.8 L-275.2 -201.9 L-275.1 -199.9 Z " />
<path stroke="rgb(0,0,0)" stroke-opacity="1" fill="rgb(255,255,255)" fill-opacity="1" d="M-376.4 -401.8 L-377.3 -400.8 L-378.2 -399.8 L-379.1 -398.7 L-380 -397.7 L-380.9 -396.7 L-381.8 -395.7 L-382.7 -394.6 L-383.6 -393.6 L-384.5 -392.6 L-385.4 -391.6 L-386.3 -390.5 L-387.2 -389.5 L-388.1 -388.5 L-389 -387.5 L-389.9 -386.4 L-390.8 -385.4 L-391.7 -384.4 L-392.6 -383.3 L-393.5 -382.3 L-394.4 -381.3 L-395.3 -380.3 L-396.2 -379.2 L-397.1 -378.2 L-398 -377.2 L-398.9 -376.2 L-399.9 -377.1 L-401 -378 L-402 -378.9 L-403 -379.8 L-404 -380.7 L-405.1 -381.6 L-406.1 -382.5 L-407.1 -383.4 L-408.1 -384.3 L-409.2 -385.2 L-410.2 -386.1 L-411.2 -387 L-412.2 -387.9 L-413.3 -388.8 L-414.3 -389.7 L-415.3 -390.6 L-416.3 -391.5 L-417.4 -392.4 L-418.4 -393.3 L-419.4 -394.2 L-420.4 -395.1 L-421.5 -396 L-422.5 -396.9 L-423.5 -397.8 L-424.5 -398.7 L-423.6 -399.7 L-422.7 -400.7 L-421.8 -401.7 L-420.9 -402.8 L-420 -403.8 L-419.1 -404.8 L-418.2 -405.8 L-417.3 -406.9 L-416.4 -407.9 L-415.5 -408.9 L-414.6 -409.9 L-413.7 -411 L-412.8 -412 L-411.9 -413 L-411 -414 L-410.1 -415.1 L-409.2 -416.1 L-408.4 -417.1 L-407.5 -418.1 L-406.6 -419.2 L-405.7 -420.2 L-404.8 -421.2 L-403.9 -422.2 L-403 -423.3 L-402.1 -424.3 L-401 -423.4 L-400 -422.5 L-399 -421.6 L-398 -420.7 L-396.9 -419.8 L-395.9 -418.9 L-394.9 -418 L-393.9 -417.1 L-392.8 -416.2 L-391.8 -415.3 L-390.8 -414.4 L-389.8 -413.5 L-388.7 -412.6 L-387.7 -411.7 L-386.7 -410.8 L-385.7 -409.9 L-384.6 -409 L-383.6 -408.1 L-382.6 -407.2 L-381.6 -406.3 L-380.5 -405.4 L-379.5 -404.5 L-378.5 -403.6 L-377.5 -402.7 L-376.4 -401.8 Z " />
<path stroke="rgb(0,0,0)" stroke-opacity="0.981" fill="rgb(255,255,255)" fill-opacity="1" d="M-75.1 -199.9 L-75.19 -197.9 L-75.43 -195.9 L-75.83 -194 L-76.38 -192.1 L-77.08 -190.3 L-77.93 -188.5 L-78.92 -186.8 L-80.04 -185.1 L-81.28 -183.6 L-82.65 -182.1 L-84.12 -180.8 L-85.69 -179.6 L-87.36 -178.5 L-89.1 -177.6 L-90.92 -176.8 L-92.79 -176.2 L-94.7 -175.7 L-96.65 -175.3 L-98.62 -175.1 L-100.6 -175.1 L-102.6 -175.2 L-104.5 -175.5 L-106.5 -176 L-108.4 -176.5 L-110.2 -177.3 L-112 -178.2 L-113.7 -179.2 L-115.3 -180.3 L-116.8 -181.6 L-118.2 -183 L-119.5 -184.5 L-120.7 -186.1 L-121.7 -187.8 L-122.6 -189.6 L-123.4 -191.4 L-124 -193.3 L-124.4 -195.2 L-124.7 -197.1 L-124.9 -199.1 L-124.9 -201.1 L-124.7 -203.1 L-124.4 -205 L-123.9 -206.9 L-123.3 -208.8 L-122.5 -210.6 L-121.6 -212.4 L-120.5 -214.1 L-119.4 -215.7 L-118 -217.2 L-116.6 -218.5 L-115.1 -219.8 L-113.5 -220.9 L-111.8 -221.9 L-110 -222.8 L-108.2 -223.5 L-106.3 -224.1 L-104.3 -224.5 L-102.4 -224.8 L-100.4 -224.9 L-98.41 -224.9 L-96.44 -224.6 L-94.49 -224.3 L-92.58 -223.8 L-90.71 -223.1 L-88.91 -222.3 L-87.17 -221.3 L-85.52 -220.3 L-83.95 -219 L-82.49 -217.7 L-81.14 -216.3 L-79.91 -214.7 L-78.8 -213.1 L-77.83 -211.3 L-77 -209.5 L-76.31 -207.7 L-75.78 -205.8 L-75.4 -203.8 L-75.17 -201.9 L-75.1 -199.9 Z " />
<path stroke="rgb(0,0,0)" stroke-opacity="1" fill="rgb(255,255,255)" fill-opacity="1" d="M-184.8 -411 L-185 -409.9 L-185.2 -408.9 L-185.4 -407.8 L-185.6 -406.7 L-185.8 -405.7 L-185.9 -404.6 L-186.1 -403.6 L-186.3 -402.5 L-186.5 -401.5 L-186.7 -400.4 L-186.9 -399.3 L-187.1 -398.3 L-187.3 -397.2 L-187.5 -396.2 L-187.7 -395.1 L-187.8 -394.1 L-188 -393 L-188.2 -391.9 L-188.4 -390.9 L-188.6 -389.8 L-188.8 -388.8 L-189 -387.7 L-189.2 -386.7 L-189.4 -385.6 L-189.6 -384.5 L-190.6 -384.7 L-191.7 -384.9 L-192.7 -385.1 L-193.8 -385.3 L-194.9 -385.5 L-195.9 -385.7 L-197 -385.9 L-198 -386.1 L-199.1 -386.3 L-200.1 -386.4 L-201.2 -386.6 L-202.3 -386.8 L-203.3 -387 L-204.4 -387.2 L-205.4 -387.4 L-206.5 -387.6 L-207.5 -387.8 L-208.6 -388 L-209.7 -388.2 L-210.7 -388.3 L-211.8 -388.5 L-212.8 -388.7 L-213.9 -388.9 L-214.9 -389.1 L-216 -389.3 L-215.8 -390.4 L-215.6 -391.4 L-215.4 -392.5 L-215.2 -393.5 L-215 -394.6 L-214.9 -395.6 L-214.7 -396.7 L-214.5 -397.8 L-214.3 -398.8 L-214.1 -399.9 L-213.9 -400.9 L-213.7 -402 L-213.5 -403 L-213.3 -404.1 L-213.1 -405.2 L-212.9 -406.2 L-212.8 -407.3 L-212.6 -408.3 L-212.4 -409.4 L-212.2 -410.4 L-212 -411.5 L-211.8 -412.6 L-211.6 -413.6 L-211.4 -414.7 L-211.2 -415.7 L-210.2 -415.5 L-209.1 -415.4 L-208.1 -415.2 L-207 -415 L-205.9 -414.8 L-204.9 -414.6 L-203.8 -414.4 L-202.8 -414.2 L-201.7 -414 L-200.7 -413.8 L-199.6 -413.6 L-198.5 -413.4 L-197.5 -413.3 L-196.4 -413.1 L-195.4 -412.9 L-194.3 -412.7 L-193.3 -412.5 L-192.2 -412.3 L-191.1 -412.1 L-190.1 -411.9 L-189 -411.7 L-188 -411.5 L-186.9 -411.4 L-185.9 -411.2 L-184.8 -411 Z " />
<path stroke="rgb(0,0,0)" stroke-opacity="0.981" fill="rgb(255,255,255)" fill-opacity="1" d="M124.9 -199.9 L124.8 -197.9 L124.6 -195.9 L124.2 -194 L123.6 -192.1 L122.9 -190.3 L122.1 -188.5 L121.1 -186.8 L120 -185.1 L118.7 -183.6 L117.4 -182.1 L115.9 -180.8 L114.3 -179.6 L112.6 -178.5 L110.9 -177.6 L109.1 -176.8 L107.2 -176.2 L105.3 -175.7 L103.3 -175.3 L101.4 -175.1 L99.4 -175.1 L97.42 -175.2 L95.46 -175.5 L93.53 -176 L91.64 -176.5 L89.8 -177.3 L88.03 -178.2 L86.33 -179.2 L84.72 -180.3 L83.21 -181.6 L81.8 -183 L80.51 -184.5 L79.34 -186.1 L78.3 -187.8 L77.4 -189.6 L76.64 -191.4 L76.03 -193.3 L75.57 -195.2 L75.27 -197.1 L75.12 -199.1 L75.13 -201.1 L75.29 -203.1 L75.61 -205 L76.09 -206.9 L76.72 -208.8 L77.49 -210.6 L78.41 -212.4 L79.46 -214.1 L80.65 -215.7 L81.95 -217.2 L83.37 -218.5 L84.9 -219.8 L86.52 -220.9 L88.22 -221.9 L90 -222.8 L91.85 -223.5 L93.74 -224.1 L95.68 -224.5 L97.64 -224.8 L99.61 -224.9 L101.6 -224.9 L103.6 -224.6 L105.5 -224.3 L107.4 -223.8 L109.3 -223.1 L111.1 -222.3 L112.8 -221.3 L114.5 -220.3 L116 -219 L117.5 -217.7 L118.9 -216.3 L120.1 -214.7 L121.2 -213.1 L122.2 -211.3 L123 -209.5 L123.7 -207.7 L124.2 -205.8 L124.6 -203.8 L124.8 -201.9 L124.9 -199.9 Z " />
<path stroke="rgb(0,0,0)" stroke-opacity="1" fill="rgb(255,255,255)" fill-opacity="1" d="M12.31 -412.4 L12.29 -411.4 L12.28 -410.4 L12.26 -409.4 L12.25 -408.4 L12.23 -407.4 L12.22 -406.4 L12.2 -405.4 L12.19 -404.4 L12.18 -403.4 L12.16 -402.4 L12.15 -401.4 L12.13 -400.4 L12.12 -399.4 L12.1 -398.4 L12.09 -397.4 L12.07 -396.4 L12.06 -395.4 L12.04 -394.4 L12.03 -393.4 L12.01 -392.4 L12 -391.4 L11.99 -390.4 L11.97 -389.4 L11.96 -388.4 L11.94 -387.4 L10.94 -387.5 L9.943 -387.5 L8.944 -387.5 L7.944 -387.5 L6.945 -387.5 L5.945 -387.5 L4.946 -387.5 L3.947 -387.6 L2.947 -387.6 L1.948 -387.6 L0.9483 -387.6 L-0.05113 -387.6 L-1.051 -387.6 L-2.05 -387.7 L-3.049 -387.7 L-4.049 -387.7 L-5.048 -387.7 L-6.048 -387.7 L-7.047 -387.7 L-8.046 -387.7 L-9.046 -387.8 L-10.05 -387.8 L-11.04 -387.8 L-12.04 -387.8 L-13.04 -387.8 L-13.03 -388.8 L-13.01 -389.8 L-13 -390.8 L-12.99 -391.8 L-12.97 -392.8 L-12.96 -393.8 L-12.94 -394.8 L-12.93 -395.8 L-12.91 -396.8 L-12.9 -397.8 L-12.88 -398.8 L-12.87 -399.8 L-12.85 -400.8 L-12.84 -401.8 L-12.83 -402.8 L-12.81 -403.8 L-12.8 -404.8 L-12.78 -405.8 L-12.77 -406.8 L-12.75 -407.8 L-12.74 -408.8 L-12.72 -409.8 L-12.71 -410.8 L-12.69 -411.8 L-12.68 -412.8 L-11.68 -412.8 L-10.68 -412.8 L-9.681 -412.8 L-8.682 -412.7 L-7.682 -412.7 L-6.683 -412.7 L-5.683 -412.7 L-4.684 -412.7 L-3.685 -412.7 L-2.685 -412.7 L-1.686 -412.6 L-0.6863 -412.6 L0.3132 -412.6 L1.313 -412.6 L2.312 -412.6 L3.311 -412.6 L4.311 -412.5 L5.31 -412.5 L6.31 -412.5 L7.309 -412.5 L8.309 -412.5 L9.308 -412.5 L10.31 -412.5 L11.31 -412.4 L12.31 -412.4 Z " />
<path stroke="rgb(0,0,0)" stroke-opacity="0.981" fill="rgb(255,255,255)" fill-opacity="1" d="M324.9 -199.9 L324.8 -197.9 L324.6 -195.9 L324.2 -194 L323.6 -192.1 L322.9 -190.3 L322.1 -188.5 L321.1 -186.8 L320 -185.1 L318.7 -183.6 L317.4 -182.1 L315.9 -180.8 L314.3 -179.6 L312.6 -178.5 L310.9 -177.6 L309.1 -176.8 L307.2 -176.2 L305.3 -175.7 L303.3 -175.3 L301.4 -175.1 L299.4 -175.1 L297.4 -175.2 L295.5 -175.5 L293.5 -176 L291.6 -176.5 L289.8 -177.3 L288 -178.2 L286.3 -179.2 L284.7 -180.3 L283.2 -181.6 L281.8 -183 L280.5 -184.5 L279.3 -186.1 L278.3 -187.8 L277.4 -189.6 L276.6 -191.4 L276 -193.3 L275.6 -195.2 L275.3 -197.1 L275.1 -199.1 L275.1 -201.1 L275.3 -203.1 L275.6 -205 L276.1 -206.9 L276.7 -208.8 L277.5 -210.6 L278.4 -212.4 L279.5 -214.1 L280.6 -215.7 L282 -217.2 L283.4 -218.5 L284.9 -219.8 L286.5 -220.9 L288.2 -221.9 L290 -222.8 L291.8 -223.5 L293.7 -224.1 L295.7 -224.5 L297.6 -224.8 L299.6 -224.9 L301.6 -224.9 L303.6 -224.6 L305.5 -224.3 L307.4 -223.8 L309.3 -223.1 L311.1 -222.3 L312.8 -221.3 L314.5 -220.3 L316 -219 L317.5 -217.7 L318.9 -216.3 L320.1 -214.7 L321.2 -213.1 L322.2 -211.3 L323 -209.5 L323.7 -207.7 L324.2 -205.8 L324.6 -203.8 L324.8 -201.9 L324.9 -199.9 Z " />
<path stroke="rgb(0,0,0)" stroke-opacity="1" fill="rgb(255,255,255)" fill-opacity="1" d="M-476.4 -301.8 L-477.3 -300.8 L-478.2 -299.8 L-479.1 -298.7 L-480 -297.7 L-480.9 -296.7 L-481.8 -295.7 L-482.7 -294.6 L-483.6 -293.6 L-484.5 -292.6 L-485.4 -291.6 L-486.3 -290.5 L-487.2 -289.5 L-488.1 -288.5 L-489 -287.5 L-489.9 -286.4 L-490.8 -285.4 L-491.7 -284.4 L-492.6 -283.3 L-493.5 -282.3 L-494.4 -281.3 L-495.3 -280.3 L-496.2 -279.2 L-497.1 -278.2 L-498 -277.2 L-498.9 -276.2 L-499.9 -277.1 L-501 -278 L-502 -278.9 L-503 -279.8 L-504 -280.7 L-505.1 -281.6 L-506.1 -282.5 L-507.1 -283.4 L-508.1 -284.3 L-509.2 -285.2 L-510.2 -286.1 L-511.2 -287 L-512.2 -287.9 L-513.3 -288.8 L-514.3 -289.7 L-515.3 -290.6 L-516.3 -291.5 L-517.4 -292.4 L-518.4 -293.3 L-519.4 -294.2 L-520.4 -295.1 L-521.5 -296 L-522.5 -296.9 L-523.5 -297.8 L-524.5 -298.7 L-523.6 -299.7 L-522.7 -300.7 L-521.8 -301.7 L-520.9 -302.8 L-520 -303.8 L-519.1 -304.8 L-518.2 -305.8 L-517.3 -306.9 L-516.4 -307.9 L-515.5 -308.9 L-514.6 -309.9 L-513.7 -311 L-512.8 -312 L-511.9 -313 L-511 -314 L-510.1 -315.1 L-509.2 -316.1 L-508.4 -317.1 L-507.5 -318.1 L-506.6 -319.2 L-505.7 -320.2 L-504.8 -321.2 L-503.9 -322.2 L-503 -323.3 L-502.1 -324.3 L-501 -323.4 L-500 -322.5 L-499 -321.6 L-498 -320.7 L-496.9 -319.8 L-495.9 -318.9 L-494.9 -318 L-493.9 -317.1 L-492.8 -316.2 L-491.8 -315.3 L-490.8 -314.4 L-489.8 -313.5 L-488.7 -312.6 L-487.7 -311.7 L-486.7 -310.8 L-485.7 -309.9 L-484.6 -309 L-483.6 -308.1 L-482.6 -307.2 L-481.6 -306.3 L-480.5 -305.4 L-479.5 -304.5 L-478.5 -303.6 L-477.5 -302.7 L-476.4 -301.8 Z " />
<path stroke="rgb(0,0,0)" stroke-opacity="0.981" fill="rgb(255,255,255)" fill-opacity="1" d="M-175.1 -99.89 L-175.2 -97.91 L-175.4 -95.95 L-175.8 -94.01 L-176.4 -92.11 L-177.1 -90.26 L-177.9 -88.47 L-178.9 -86.75 L-180 -85.12 L-181.3 -83.58 L-182.6 -82.14 L-184.1 -80.82 L-185.7 -79.62 L-187.4 -78.55 L-189.1 -77.61 L-190.9 -76.82 L-192.8 -76.17 L-194.7 -75.67 L-196.7 -75.33 L-198.6 -75.14 L-200.6 -75.11 L-202.6 -75.24 L-204.5 -75.52 L-206.5 -75.96 L-208.4 -76.55 L-210.2 -77.28 L-212 -78.17 L-213.7 -79.19 L-215.3 -80.34 L-216.8 -81.61 L-218.2 -83.01 L-219.5 -84.51 L-220.7 -86.1 L-221.7 -87.79 L-222.6 -89.55 L-223.4 -91.38 L-224 -93.26 L-224.4 -95.19 L-224.7 -97.15 L-224.9 -99.12 L-224.9 -101.1 L-224.7 -103.1 L-224.4 -105 L-223.9 -106.9 L-223.3 -108.8 L-222.5 -110.6 L-221.6 -112.4 L-220.5 -114.1 L-219.4 -115.7 L-218 -117.2 L-216.6 -118.5 L-215.1 -119.8 L-213.5 -120.9 L-211.8 -121.9 L-210 -122.8 L-208.2 -123.5 L-206.3 -124.1 L-204.3 -124.5 L-202.4 -124.8 L-200.4 -124.9 L-198.4 -124.9 L-196.4 -124.6 L-194.5 -124.3 L-192.6 -123.8 L-190.7 -123.1 L-188.9 -122.3 L-187.2 -121.3 L-185.5 -120.3 L-184 -119 L-182.5 -117.7 L-181.1 -116.3 L-179.9 -114.7 L-178.8 -113.1 L-177.8 -111.3 L-177 -109.5 L-176.3 -107.7 L-175.8 -105.8 L-175.4 -103.8 L-175.2 -101.9 L-175.1 -99.89 Z " />
<path stroke="rgb(0,0,0)" stroke-opacity="1" fill="rgb(255,255,255)" fill-opacity="1" d="M-284.8 -311 L-285 -309.9 L-285.2 -308.9 L-285.4 -307.8 L-285.6 -306.7 L-285.8 -305.7 L-285.9 -304.6 L-286.1 -303.6 L-286.3 -302.5 L-286.5 -301.5 L-286.7 -300.4 L-286.9 -299.3 L-287.1 -298.3 L-287.3 -297.2 L-287.5 -296.2 L-287.7 -295.1 L-287.8 -294.1 L-288 -293 L-288.2 -291.9 L-288.4 -290.9 L-288.6 -289.8 L-288.8 -288.8 L-289 -287.7 L-289.2 -286.7 L-289.4 -285.6 L-289.6 -284.5 L-290.6 -284.7 L-291.7 -284.9 L-292.7 -285.1 L-293.8 -285.3 L-294.9 -285.5 L-295.9 -285.7 L-297 -285.9 L-298 -286.1 L-299.1 -286.3 L-300.1 -286.4 L-301.2 -286.6 L-302.3 -286.8 L-303.3 -287 L-304.4 -287.2 L-305.4 -287.4 L-306.5 -287.6 L-307.5 -287.8 L-308.6 -288 L-309.7 -288.2 L-310.7 -288.3 L-311.8 -288.5 L-312.8 -288.7 L-313.9 -288.9 L-314.9 -289.1 L-316 -289.3 L-315.8 -290.4 L-315.6 -291.4 L-315.4 -292.5 L-315.2 -293.5 L-315 -294.6 L-314.9 -295.6 L-314.7 -296.7 L-314.5 -297.8 L-314.3 -298.8 L-314.1 -299.9 L-313.9 -300.9 L-313.7 -302 L-313.5 -303 L-313.3 -304.1 L-313.1 -305.2 L-312.9 -306.2 L-312.8 -307.3 L-312.6 -308.3 L-312.4 -309.4 L-312.2 -310.4 L-312 -311.5 L-311.8 -312.6 L-311.6 -313.6 L-311.4 -314.7 L-311.2 -315.7 L-310.2 -315.5 L-309.1 -315.4 L-308.1 -315.2 L-307 -315 L-305.9 -314.8 L-304.9 -314.6 L-303.8 -314.4 L-302.8 -314.2 L-301.7 -314 L-300.7 -313.8 L-299.6 -313.6 L-298.5 -313.4 L-297.5 -313.3 L-296.4 -313.1 L-295.4 -312.9 L-294.3 -312.7 L-293.3 -312.5 L-292.2 -312.3 L-291.1 -312.1 L-290.1 -311.9 L-289 -311.7 L-288 -311.5 L-286.9 -311.4 L-285.9 -311.2 L-284.8 -311 Z " />
<path stroke="rgb(0,0,0)" stroke-opacity="0.981" fill="rgb(255,255,255)" fill-opacity="1" d="M24.9 -99.89 L24.81 -97.91 L24.57 -95.95 L24.17 -94.01 L23.62 -92.11 L22.92 -90.26 L22.07 -88.47 L21.08 -86.75 L19.96 -85.12 L18.72 -83.58 L17.35 -82.14 L15.88 -80.82 L14.31 -79.62 L12.64 -78.55 L10.9 -77.61 L9.085 -76.82 L7.214 -76.17 L5.298 -75.67 L3.348 -75.33 L1.377 -75.14 L-0.6025 -75.11 L-2.578 -75.24 L-4.538 -75.52 L-6.469 -75.96 L-8.359 -76.55 L-10.2 -77.28 L-11.97 -78.17 L-13.67 -79.19 L-15.28 -80.34 L-16.79 -81.61 L-18.2 -83.01 L-19.49 -84.51 L-20.66 -86.1 L-21.7 -87.79 L-22.6 -89.55 L-23.36 -91.38 L-23.97 -93.26 L-24.43 -95.19 L-24.73 -97.15 L-24.88 -99.12 L-24.87 -101.1 L-24.71 -103.1 L-24.39 -105 L-23.91 -106.9 L-23.28 -108.8 L-22.51 -110.6 L-21.59 -112.4 L-20.54 -114.1 L-19.35 -115.7 L-18.05 -117.2 L-16.63 -118.5 L-15.1 -119.8 L-13.48 -120.9 L-11.78 -121.9 L-9.997 -122.8 L-8.153 -123.5 L-6.258 -124.1 L-4.324 -124.5 L-2.362 -124.8 L-0.3851 -124.9 L1.594 -124.9 L3.563 -124.6 L5.51 -124.3 L7.422 -123.8 L9.287 -123.1 L11.09 -122.3 L12.83 -121.3 L14.48 -120.3 L16.05 -119 L17.51 -117.7 L18.86 -116.3 L20.09 -114.7 L21.2 -113.1 L22.17 -111.3 L23 -109.5 L23.69 -107.7 L24.22 -105.8 L24.6 -103.8 L24.83 -101.9 L24.9 -99.89 Z " />
<path stroke="rgb(0,0,0)" stroke-opacity="1" fill="rgb(255,255,255)" fill-opacity="1" d="M-87.69 -312.4 L-87.71 -311.4 L-87.72 -310.4 L-87.74 -309.4 L-87.75 -308.4 L-87.77 -307.4 L-87.78 -306.4 L-87.8 -305.4 L-87.81 -304.4 L-87.82 -303.4 L-87.84 -302.4 L-87.85 -301.4 L-87.87 -300.4 L-87.88 -299.4 L-87.9 -298.4 L-87.91 -297.4 L-87.93 -296.4 L-87.94 -295.4 L-87.96 -294.4 L-87.97 -293.4 L-87.99 -292.4 L-88 -291.4 L-88.01 -290.4 L-88.03 -289.4 L-88.04 -288.4 L-88.06 -287.4 L-89.06 -287.5 L-90.06 -287.5 L-91.06 -287.5 L-92.06 -287.5 L-93.06 -287.5 L-94.05 -287.5 L-95.05 -287.5 L-96.05 -287.6 L-97.05 -287.6 L-98.05 -287.6 L-99.05 -287.6 L-100.1 -287.6 L-101.1 -287.6 L-102 -287.7 L-103 -287.7 L-104 -287.7 L-105 -287.7 L-106 -287.7 L-107 -287.7 L-108 -287.7 L-109 -287.8 L-110 -287.8 L-111 -287.8 L-112 -287.8 L-113 -287.8 L-113 -288.8 L-113 -289.8 L-113 -290.8 L-113 -291.8 L-113 -292.8 L-113 -293.8 L-112.9 -294.8 L-112.9 -295.8 L-112.9 -296.8 L-112.9 -297.8 L-112.9 -298.8 L-112.9 -299.8 L-112.9 -300.8 L-112.8 -301.8 L-112.8 -302.8 L-112.8 -303.8 L-112.8 -304.8 L-112.8 -305.8 L-112.8 -306.8 L-112.8 -307.8 L-112.7 -308.8 L-112.7 -309.8 L-112.7 -310.8 L-112.7 -311.8 L-112.7 -312.8 L-111.7 -312.8 L-110.7 -312.8 L-109.7 -312.8 L-108.7 -312.7 L-107.7 -312.7 L-106.7 -312.7 L-105.7 -312.7 L-104.7 -312.7 L-103.7 -312.7 L-102.7 -312.7 L-101.7 -312.6 L-100.7 -312.6 L-99.69 -312.6 L-98.69 -312.6 L-97.69 -312.6 L-96.69 -312.6 L-95.69 -312.5 L-94.69 -312.5 L-93.69 -312.5 L-92.69 -312.5 L-91.69 -312.5 L-90.69 -312.5 L-89.69 -312.5 L-88.69 -312.4 L-87.69 -312.4 Z " />
<path stroke="rgb(0,0,0)" stroke-opacity="0.981" fill="rgb(255,255,255)" fill-opacity="1" d="M224.9 -99.89 L224.8 -97.91 L224.6 -95.95 L224.2 -94.01 L223.6 -92.11 L222.9 -90.26 L222.1 -88.47 L221.1 -86.75 L220 -85.12 L218.7 -83.58 L217.4 -82.14 L215.9 -80.82 L214.3 -79.62 L212.6 -78.55 L210.9 -77.61 L209.1 -76.82 L207.2 -76.17 L205.3 -75.67 L203.3 -75.33 L201.4 -75.14 L199.4 -75.11 L197.4 -75.24 L195.5 -75.52 L193.5 -75.96 L191.6 -76.55 L189.8 -77.28 L188 -78.17 L186.3 -79.19 L184.7 -80.34 L183.2 -81.61 L181.8 -83.01 L180.5 -84.51 L179.3 -86.1 L178.3 -87.79 L177.4 -89.55 L176.6 -91.38 L176 -93.26 L175.6 -95.19 L175.3 -97.15 L175.1 -99.12 L175.1 -101.1 L175.3 -103.1 L175.6 -105 L176.1 -106.9 L176.7 -108.8 L177.5 -110.6 L178.4 -112.4 L179.5 -114.1 L180.6 -115.7 L182 -117.2 L183.4 -118.5 L184.9 -119.8 L186.5 -120.9 L188.2 -121.9 L190 -122.8 L191.8 -123.5 L193.7 -124.1 L195.7 -124.5 L197.6 -124.8 L199.6 -124.9 L201.6 -124.9 L203.6 -124.6 L205.5 -124.3 L207.4 -123.8 L209.3 -123.1 L211.1 -122.3 L212.8 -121.3 L214.5 -120.3 L216 -119 L217.5 -117.7 L218.9 -116.3 L220.1 -114.7 L221.2 -113.1 L222.2 -111.3 L223 -109.5 L223.7 -107.7 L224.2 -105.8 L224.6 -103.8 L224.8 -101.9 L224.9 -99.89 Z " />
<path stroke="rgb(0,0,0)" stroke-opacity="1" fill="rgb(255,255,255)" fill-opacity="1" d="M112.1 -312.5 L112.1 -311.5 L112.1 -310.5 L112.1 -309.5 L112.1 -308.5 L112.1 -307.5 L112.1 -306.5 L112.1 -305.5 L112.1 -304.6 L112.1 -303.6 L112.1 -302.6 L112.1 -301.6 L112.1 -300.6 L112.1 -299.6 L112.1 -298.6 L112.1 -297.6 L112.1 -296.6 L112.1 -295.6 L112 -294.6 L112 -293.6 L112 -292.6 L112 -291.6 L112 -290.6 L112 -289.6 L112 -288.6 L112 -287.6 L111 -287.6 L110 -287.7 L109 -287.7 L108 -287.7 L107.1 -287.7 L106.1 -287.7 L105.1 -287.7 L104.1 -287.7 L103.1 -287.7 L102.1 -287.7 L101.1 -287.7 L100.1 -287.7 L99.09 -287.7 L98.1 -287.7 L97.1 -287.7 L96.11 -287.7 L95.12 -287.7 L94.12 -287.7 L93.13 -287.7 L92.13 -287.7 L91.14 -287.7 L90.14 -287.7 L89.15 -287.7 L88.15 -287.7 L87.16 -287.7 L87.16 -288.7 L87.17 -289.7 L87.17 -290.7 L87.17 -291.7 L87.18 -292.7 L87.18 -293.7 L87.18 -294.7 L87.19 -295.7 L87.19 -296.7 L87.19 -297.7 L87.2 -298.7 L87.2 -299.7 L87.2 -300.7 L87.21 -301.7 L87.21 -302.6 L87.21 -303.6 L87.22 -304.6 L87.22 -305.6 L87.22 -306.6 L87.23 -307.6 L87.23 -308.6 L87.23 -309.6 L87.24 -310.6 L87.24 -311.6 L87.24 -312.6 L88.24 -312.6 L89.23 -312.6 L90.23 -312.6 L91.22 -312.6 L92.22 -312.6 L93.21 -312.6 L94.2 -312.6 L95.2 -312.6 L96.19 -312.6 L97.19 -312.6 L98.18 -312.6 L99.18 -312.6 L100.2 -312.6 L101.2 -312.5 L102.2 -312.5 L103.2 -312.5 L104.2 -312.5 L105.1 -312.5 L106.1 -312.5 L107.1 -312.5 L108.1 -312.5 L109.1 -312.5 L110.1 -312.5 L111.1 -312.5 L112.1 -312.5 Z " />
<path stroke="rgb(0,0,0)" stroke-opacity="0.981" fill="rgb(255,255,255)" fill-opacity="1" d="M-275.1 0.1074 L-275.2 2.085 L-275.4 4.05 L-275.8 5.989 L-276.4 7.89 L-277.1 9.742 L-277.9 11.53 L-278.9 13.25 L-280 14.88 L-281.3 16.42 L-282.6 17.86 L-284.1 19.18 L-285.7 20.38 L-287.4 21.45 L-289.1 22.39 L-290.9 23.18 L-292.8 23.83 L-294.7 24.33 L-296.7 24.67 L-298.6 24.86 L-300.6 24.89 L-302.6 24.76 L-304.5 24.48 L-306.5 24.04 L-308.4 23.45 L-310.2 22.72 L-312 21.83 L-313.7 20.81 L-315.3 19.66 L-316.8 18.39 L-318.2 16.99 L-319.5 15.49 L-320.7 13.9 L-321.7 12.21 L-322.6 10.45 L-323.4 8.62 L-324 6.736 L-324.4 4.81 L-324.7 2.854 L-324.9 0.8799 L-324.9 -1.1 L-324.7 -3.073 L-324.4 -5.026 L-323.9 -6.948 L-323.3 -8.826 L-322.5 -10.65 L-321.6 -12.4 L-320.5 -14.08 L-319.4 -15.67 L-318 -17.15 L-316.6 -18.53 L-315.1 -19.8 L-313.5 -20.93 L-311.8 -21.94 L-310 -22.81 L-308.2 -23.53 L-306.3 -24.1 L-304.3 -24.52 L-302.4 -24.79 L-300.4 -24.9 L-298.4 -24.85 L-296.4 -24.65 L-294.5 -24.28 L-292.6 -23.77 L-290.7 -23.11 L-288.9 -22.29 L-287.2 -21.34 L-285.5 -20.26 L-284 -19.04 L-282.5 -17.71 L-281.1 -16.26 L-279.9 -14.71 L-278.8 -13.07 L-277.8 -11.34 L-277 -9.544 L-276.3 -7.687 L-275.8 -5.781 L-275.4 -3.838 L-275.2 -1.871 L-275.1 0.1074 Z " />
<path stroke="rgb(0,0,0)" stroke-opacity="1" fill="rgb(255,255,255)" fill-opacity="1" d="M-384.8 -211 L-385 -209.9 L-385.2 -208.9 L-385.4 -207.8 L-385.6 -206.7 L-385.8 -205.7 L-385.9 -204.6 L-386.1 -203.6 L-386.3 -202.5 L-386.5 -201.5 L-386.7 -200.4 L-386.9 -199.3 L-387.1 -198.3 L-387.3 -197.2 L-387.5 -196.2 L-387.7 -195.1 L-387.8 -194.1 L-388 -193 L-388.2 -191.9 L-388.4 -190.9 L-388.6 -189.8 L-388.8 -188.8 L-389 -187.7 L-389.2 -186.7 L-389.4 -185.6 L-389.6 -184.5 L-390.6 -184.7 L-391.7 -184.9 L-392.7 -185.1 L-393.8 -185.3 L-394.9 -185.5 L-395.9 -185.7 L-397 -185.9 L-398 -186.1 L-399.1 -186.3 L-400.1 -186.4 L-401.2 -186.6 L-402.3 -186.8 L-403.3 -187 L-404.4 -187.2 L-405.4 -187.4 L-406.5 -187.6 L-407.5 -187.8 L-408.6 -188 L-409.7 -188.2 L-410.7 -188.3 L-411.8 -188.5 L-412.8 -188.7 L-413.9 -188.9 L-414.9 -189.1 L-416 -189.3 L-415.8 -190.4 L-415.6 -191.4 L-415.4 -192.5 L-415.2 -193.5 L-415 -194.6 L-414.9 -195.6 L-414.7 -196.7 L-414.5 -197.8 L-414.3 -198.8 L-414.1 -199.9 L-413.9 -200.9 L-413.7 -202 L-413.5 -203 L-413.3 -204.1 L-413.1 -205.2 L-412.9 -206.2 L-412.8 -207.3 L-412.6 -208.3 L-412.4 -209.4 L-412.2 -210.4 L-412 -211.5 L-411.8 -212.6 L-411.6 -213.6 L-411.4 -214.7 L-411.2 -215.7 L-410.2 -215.5 L-409.1 -215.4 L-408.1 -215.2 L-407 -215 L-405.9 -214.8 L-404.9 -214.6 L-403.8 -214.4 L-402.8 -214.2 L-401.7 -214 L-400.7 -213.8 L-399.6 -213.6 L-398.5 -213.4 L-397.5 -213.3 L-396.4 -213.1 L-395.4 -212.9 L-394.3 -212.7 L-393.3 -212.5 L-392.2 -212.3 L-391.1 -212.1 L-390.1 -211.9 L-389 -211.7 L-388 -211.5 L-386.9 -211.4 L-385.9 -211.2 L-384.8 -211 Z " />
<path stroke="rgb(0,0,0)" stroke-opacity="0.981" fill="rgb(255,255,255)" fill-opacity="1" d="M-75.1 0.1074 L-75.19 2.085 L-75.43 4.05 L-75.83 5.989 L-76.38 7.89 L-77.08 9.742 L-77.93 11.53 L-78.92 13.25 L-80.04 14.88 L-81.28 16.42 L-82.65 17.86 L-84.12 19.18 L-85.69 20.38 L-87.36 21.45 L-89.1 22.39 L-90.92 23.18 L-92.79 23.83 L-94.7 24.33 L-96.65 24.67 L-98.62 24.86 L-100.6 24.89 L-102.6 24.76 L-104.5 24.48 L-106.5 24.04 L-108.4 23.45 L-110.2 22.72 L-112 21.83 L-113.7 20.81 L-115.3 19.66 L-116.8 18.39 L-118.2 16.99 L-119.5 15.49 L-120.7 13.9 L-121.7 12.21 L-122.6 10.45 L-123.4 8.62 L-124 6.736 L-124.4 4.81 L-124.7 2.854 L-124.9 0.8799 L-124.9 -1.1 L-124.7 -3.073 L-124.4 -5.026 L-123.9 -6.948 L-123.3 -8.826 L-122.5 -10.65 L-121.6 -12.4 L-120.5 -14.08 L-119.4 -15.67 L-118 -17.15 L-116.6 -18.53 L-115.1 -19.8 L-113.5 -20.93 L-111.8 -21.94 L-110 -22.81 L-108.2 -23.53 L-106.3 -24.1 L-104.3 -24.52 L-102.4 -24.79 L-100.4 -24.9 L-98.41 -24.85 L-96.44 -24.65 L-94.49 -24.28 L-92.58 -23.77 L-90.71 -23.11 L-88.91 -22.29 L-87.17 -21.34 L-85.52 -20.26 L-83.95 -19.04 L-82.49 -17.71 L-81.14 -16.26 L-79.91 -14.71 L-78.8 -13.07 L-77.83 -11.34 L-77 -9.544 L-76.31 -7.687 L-75.78 -5.781 L-75.4 -3.838 L-75.17 -1.871 L-75.1 0.1074 Z " />
<path stroke="rgb(0,0,0)" stroke-opacity="1" fill="rgb(255,255,255)" fill-opacity="1" d="M-187.7 -212.4 L-187.7 -211.4 L-187.7 -210.4 L-187.7 -209.4 L-187.8 -208.4 L-187.8 -207.4 L-187.8 -206.4 L-187.8 -205.4 L-187.8 -204.4 L-187.8 -203.4 L-187.8 -202.4 L-187.9 -201.4 L-187.9 -200.4 L-187.9 -199.4 L-187.9 -198.4 L-187.9 -197.4 L-187.9 -196.4 L-187.9 -195.4 L-188 -194.4 L-188 -193.4 L-188 -192.4 L-188 -191.4 L-188 -190.4 L-188 -189.4 L-188 -188.4 L-188.1 -187.4 L-189.1 -187.5 L-190.1 -187.5 L-191.1 -187.5 L-192.1 -187.5 L-193.1 -187.5 L-194.1 -187.5 L-195.1 -187.5 L-196.1 -187.6 L-197.1 -187.6 L-198.1 -187.6 L-199.1 -187.6 L-200.1 -187.6 L-201.1 -187.6 L-202 -187.7 L-203 -187.7 L-204 -187.7 L-205 -187.7 L-206 -187.7 L-207 -187.7 L-208 -187.7 L-209 -187.8 L-210 -187.8 L-211 -187.8 L-212 -187.8 L-213 -187.8 L-213 -188.8 L-213 -189.8 L-213 -190.8 L-213 -191.8 L-213 -192.8 L-213 -193.8 L-212.9 -194.8 L-212.9 -195.8 L-212.9 -196.8 L-212.9 -197.8 L-212.9 -198.8 L-212.9 -199.8 L-212.9 -200.8 L-212.8 -201.8 L-212.8 -202.8 L-212.8 -203.8 L-212.8 -204.8 L-212.8 -205.8 L-212.8 -206.8 L-212.8 -207.8 L-212.7 -208.8 L-212.7 -209.8 L-212.7 -210.8 L-212.7 -211.8 L-212.7 -212.8 L-211.7 -212.8 L-210.7 -212.8 L-209.7 -212.8 L-208.7 -212.7 L-207.7 -212.7 L-206.7 -212.7 L-205.7 -212.7 L-204.7 -212.7 L-203.7 -212.7 L-202.7 -212.7 L-201.7 -212.6 L-200.7 -212.6 L-199.7 -212.6 L-198.7 -212.6 L-197.7 -212.6 L-196.7 -212.6 L-195.7 -212.5 L-194.7 -212.5 L-193.7 -212.5 L-192.7 -212.5 L-191.7 -212.5 L-190.7 -212.5 L-189.7 -212.5 L-188.7 -212.4 L-187.7 -212.4 Z " />
<path stroke="rgb(0,0,0)" stroke-opacity="0.981" fill="rgb(255,255,255)" fill-opacity="1" d="M124.9 0.1074 L124.8 2.085 L124.6 4.05 L124.2 5.989 L123.6 7.89 L122.9 9.742 L122.1 11.53 L121.1 13.25 L120 14.88 L118.7 16.42 L117.4 17.86 L115.9 19.18 L114.3 20.38 L112.6 21.45 L110.9 22.39 L109.1 23.18 L107.2 23.83 L105.3 24.33 L103.3 24.67 L101.4 24.86 L99.4 24.89 L97.42 24.76 L95.46 24.48 L93.53 24.04 L91.64 23.45 L89.8 22.72 L88.03 21.83 L86.33 20.81 L84.72 19.66 L83.21 18.39 L81.8 16.99 L80.51 15.49 L79.34 13.9 L78.3 12.21 L77.4 10.45 L76.64 8.62 L76.03 6.736 L75.57 4.81 L75.27 2.854 L75.12 0.8799 L75.13 -1.1 L75.29 -3.073 L75.61 -5.026 L76.09 -6.948 L76.72 -8.826 L77.49 -10.65 L78.41 -12.4 L79.46 -14.08 L80.65 -15.67 L81.95 -17.15 L83.37 -18.53 L84.9 -19.8 L86.52 -20.93 L88.22 -21.94 L90 -22.81 L91.85 -23.53 L93.74 -24.1 L95.68 -24.52 L97.64 -24.79 L99.61 -24.9 L101.6 -24.85 L103.6 -24.65 L105.5 -24.28 L107.4 -23.77 L109.3 -23.11 L111.1 -22.29 L112.8 -21.34 L114.5 -20.26 L116 -19.04 L117.5 -17.71 L118.9 -16.26 L120.1 -14.71 L121.2 -13.07 L122.2 -11.34 L123 -9.544 L123.7 -7.687 L124.2 -5.781 L124.6 -3.838 L124.8 -1.871 L124.9 0.1074 Z " />
<path stroke="rgb(0,0,0)" stroke-opacity="1" fill="rgb(255,255,255)" fill-opacity="1" d="M12.11 -212.5 L12.1 -211.5 L12.1 -210.5 L12.1 -209.5 L12.09 -208.5 L12.09 -207.5 L12.09 -206.5 L12.08 -205.5 L12.08 -204.6 L12.08 -203.6 L12.07 -202.6 L12.07 -201.6 L12.07 -200.6 L12.06 -199.6 L12.06 -198.6 L12.06 -197.6 L12.05 -196.6 L12.05 -195.6 L12.05 -194.6 L12.04 -193.6 L12.04 -192.6 L12.04 -191.6 L12.03 -190.6 L12.03 -189.6 L12.03 -188.6 L12.02 -187.6 L11.03 -187.6 L10.03 -187.7 L9.04 -187.7 L8.045 -187.7 L7.051 -187.7 L6.056 -187.7 L5.062 -187.7 L4.067 -187.7 L3.072 -187.7 L2.078 -187.7 L1.083 -187.7 L0.08855 -187.7 L-0.9061 -187.7 L-1.901 -187.7 L-2.895 -187.7 L-3.89 -187.7 L-4.884 -187.7 L-5.879 -187.7 L-6.874 -187.7 L-7.868 -187.7 L-8.863 -187.7 L-9.858 -187.7 L-10.85 -187.7 L-11.85 -187.7 L-12.84 -187.7 L-12.84 -188.7 L-12.83 -189.7 L-12.83 -190.7 L-12.83 -191.7 L-12.82 -192.7 L-12.82 -193.7 L-12.82 -194.7 L-12.81 -195.7 L-12.81 -196.7 L-12.81 -197.7 L-12.8 -198.7 L-12.8 -199.7 L-12.8 -200.7 L-12.79 -201.7 L-12.79 -202.6 L-12.79 -203.6 L-12.78 -204.6 L-12.78 -205.6 L-12.78 -206.6 L-12.77 -207.6 L-12.77 -208.6 L-12.77 -209.6 L-12.76 -210.6 L-12.76 -211.6 L-12.76 -212.6 L-11.76 -212.6 L-10.77 -212.6 L-9.773 -212.6 L-8.779 -212.6 L-7.784 -212.6 L-6.79 -212.6 L-5.795 -212.6 L-4.8 -212.6 L-3.806 -212.6 L-2.811 -212.6 L-1.817 -212.6 L-0.822 -212.6 L0.1726 -212.6 L1.167 -212.5 L2.162 -212.5 L3.156 -212.5 L4.151 -212.5 L5.146 -212.5 L6.14 -212.5 L7.135 -212.5 L8.129 -212.5 L9.124 -212.5 L10.12 -212.5 L11.11 -212.5 L12.11 -212.5 Z " />
<path stroke="rgb(0,0,0)" stroke-opacity="0.981" fill="rgb(255,255,255)" fill-opacity="1" d="M324.9 0.1074 L324.8 2.085 L324.6 4.05 L324.2 5.989 L323.6 7.89 L322.9 9.742 L322.1 11.53 L321.1 13.25 L320 14.88 L318.7 16.42 L317.4 17.86 L315.9 19.18 L314.3 20.38 L312.6 21.45 L310.9 22.39 L309.1 23.18 L307.2 23.83 L305.3 24.33 L303.3 24.67 L301.4 24.86 L299.4 24.89 L297.4 24.76 L295.5 24.48 L293.5 24.04 L291.6 23.45 L289.8 22.72 L288 21.83 L286.3 20.81 L284.7 19.66 L283.2 18.39 L281.8 16.99 L280.5 15.49 L279.3 13.9 L278.3 12.21 L277.4 10.45 L276.6 8.62 L276 6.736 L275.6 4.81 L275.3 2.854 L275.1 0.8799 L275.1 -1.1 L275.3 -3.073 L275.6 -5.026 L276.1 -6.948 L276.7 -8.826 L277.5 -10.65 L278.4 -12.4 L279.5 -14.08 L280.6 -15.67 L282 -17.15 L283.4 -18.53 L284.9 -19.8 L286.5 -20.93 L288.2 -21.94 L290 -22.81 L291.8 -23.53 L293.7 -24.1 L295.7 -24.52 L297.6 -24.79 L299.6 -24.9 L301.6 -24.85 L303.6 -24.65 L305.5 -24.28 L307.4 -23.77 L309.3 -23.11 L311.1 -22.29 L312.8 -21.34 L314.5 -20.26 L316 -19.04 L317.5 -17.71 L318.9 -16.26 L320.1 -14.71 L321.2 -13.07 L322.2 -11.34 L323 -9.544 L323.7 -7.687 L324.2 -5.781 L324.6 -3.838 L324.8 -1.871 L324.9 0.1074 Z " />
<path stroke="rgb(0,0,0)" stroke-opacity="1" fill="rgb(255,255,255)" fill-opacity="1" d="M-484.8 -111 L-485 -109.9 L-485.2 -108.9 L-485.4 -107.8 L-485.6 -106.7 L-485.8 -105.7 L-485.9 -104.6 L-486.1 -103.6 L-486.3 -102.5 L-486.5 -101.5 L-486.7 -100.4 L-486.9 -99.34 L-487.1 -98.28 L-487.3 -97.23 L-487.5 -96.17 L-487.7 -95.11 L-487.8 -94.05 L-488 -93 L-488.2 -91.94 L-488.4 -90.88 L-488.6 -89.82 L-488.8 -88.77 L-489 -87.71 L-489.2 -86.65 L-489.4 -85.6 L-489.6 -84.54 L-490.6 -84.73 L-491.7 -84.92 L-492.7 -85.11 L-493.8 -85.3 L-494.9 -85.49 L-495.9 -85.68 L-497 -85.87 L-498 -86.06 L-499.1 -86.25 L-500.1 -86.44 L-501.2 -86.63 L-502.3 -86.83 L-503.3 -87.02 L-504.4 -87.21 L-505.4 -87.4 L-506.5 -87.59 L-507.5 -87.78 L-508.6 -87.97 L-509.7 -88.16 L-510.7 -88.35 L-511.8 -88.54 L-512.8 -88.73 L-513.9 -88.92 L-514.9 -89.11 L-516 -89.3 L-515.8 -90.36 L-515.6 -91.42 L-515.4 -92.47 L-515.2 -93.53 L-515 -94.59 L-514.9 -95.65 L-514.7 -96.7 L-514.5 -97.76 L-514.3 -98.82 L-514.1 -99.88 L-513.9 -100.9 L-513.7 -102 L-513.5 -103 L-513.3 -104.1 L-513.1 -105.2 L-512.9 -106.2 L-512.8 -107.3 L-512.6 -108.3 L-512.4 -109.4 L-512.2 -110.4 L-512 -111.5 L-511.8 -112.6 L-511.6 -113.6 L-511.4 -114.7 L-511.2 -115.7 L-510.2 -115.5 L-509.1 -115.4 L-508.1 -115.2 L-507 -115 L-505.9 -114.8 L-504.9 -114.6 L-503.8 -114.4 L-502.8 -114.2 L-501.7 -114 L-500.7 -113.8 L-499.6 -113.6 L-498.5 -113.4 L-497.5 -113.3 L-496.4 -113.1 L-495.4 -112.9 L-494.3 -112.7 L-493.3 -112.5 L-492.2 -112.3 L-491.1 -112.1 L-490.1 -111.9 L-489 -111.7 L-488 -111.5 L-486.9 -111.4 L-485.9 -111.2 L-484.8 -111 Z " />
<path stroke="rgb(0,0,0)" stroke-opacity="0.981" fill="rgb(255,255,255)" fill-opacity="1" d="M-175.1 100.1 L-175.2 102.1 L-175.4 104.1 L-175.8 106 L-176.4 107.9 L-177.1 109.7 L-177.9 111.5 L-178.9 113.2 L-180 114.9 L-181.3 116.4 L-182.6 117.9 L-184.1 119.2 L-185.7 120.4 L-187.4 121.5 L-189.1 122.4 L-190.9 123.2 L-192.8 123.8 L-194.7 124.3 L-196.7 124.7 L-198.6 124.9 L-200.6 124.9 L-202.6 124.8 L-204.5 124.5 L-206.5 124 L-208.4 123.5 L-210.2 122.7 L-212 121.8 L-213.7 120.8 L-215.3 119.7 L-216.8 118.4 L-218.2 117 L-219.5 115.5 L-220.7 113.9 L-221.7 112.2 L-222.6 110.4 L-223.4 108.6 L-224 106.7 L-224.4 104.8 L-224.7 102.9 L-224.9 100.9 L-224.9 98.9 L-224.7 96.93 L-224.4 94.97 L-223.9 93.05 L-223.3 91.17 L-222.5 89.35 L-221.6 87.6 L-220.5 85.92 L-219.4 84.33 L-218 82.85 L-216.6 81.47 L-215.1 80.2 L-213.5 79.07 L-211.8 78.06 L-210 77.19 L-208.2 76.47 L-206.3 75.9 L-204.3 75.48 L-202.4 75.21 L-200.4 75.1 L-198.4 75.15 L-196.4 75.35 L-194.5 75.72 L-192.6 76.23 L-190.7 76.89 L-188.9 77.71 L-187.2 78.66 L-185.5 79.74 L-184 80.96 L-182.5 82.29 L-181.1 83.74 L-179.9 85.29 L-178.8 86.93 L-177.8 88.66 L-177 90.46 L-176.3 92.31 L-175.8 94.22 L-175.4 96.16 L-175.2 98.13 L-175.1 100.1 Z " />
<path stroke="rgb(0,0,0)" stroke-opacity="1" fill="rgb(255,255,255)" fill-opacity="1" d="M-287.7 -112.4 L-287.7 -111.4 L-287.7 -110.4 L-287.7 -109.4 L-287.8 -108.4 L-287.8 -107.4 L-287.8 -106.4 L-287.8 -105.4 L-287.8 -104.4 L-287.8 -103.4 L-287.8 -102.4 L-287.9 -101.4 L-287.9 -100.4 L-287.9 -99.44 L-287.9 -98.44 L-287.9 -97.44 L-287.9 -96.44 L-287.9 -95.44 L-288 -94.44 L-288 -93.44 L-288 -92.44 L-288 -91.44 L-288 -90.44 L-288 -89.45 L-288 -88.45 L-288.1 -87.45 L-289.1 -87.46 L-290.1 -87.48 L-291.1 -87.49 L-292.1 -87.5 L-293.1 -87.52 L-294.1 -87.53 L-295.1 -87.55 L-296.1 -87.56 L-297.1 -87.58 L-298.1 -87.59 L-299.1 -87.61 L-300.1 -87.62 L-301.1 -87.64 L-302 -87.65 L-303 -87.66 L-304 -87.68 L-305 -87.69 L-306 -87.71 L-307 -87.72 L-308 -87.74 L-309 -87.75 L-310 -87.77 L-311 -87.78 L-312 -87.8 L-313 -87.81 L-313 -88.81 L-313 -89.81 L-313 -90.81 L-313 -91.81 L-313 -92.81 L-313 -93.81 L-312.9 -94.81 L-312.9 -95.81 L-312.9 -96.81 L-312.9 -97.8 L-312.9 -98.8 L-312.9 -99.8 L-312.9 -100.8 L-312.8 -101.8 L-312.8 -102.8 L-312.8 -103.8 L-312.8 -104.8 L-312.8 -105.8 L-312.8 -106.8 L-312.8 -107.8 L-312.7 -108.8 L-312.7 -109.8 L-312.7 -110.8 L-312.7 -111.8 L-312.7 -112.8 L-311.7 -112.8 L-310.7 -112.8 L-309.7 -112.8 L-308.7 -112.7 L-307.7 -112.7 L-306.7 -112.7 L-305.7 -112.7 L-304.7 -112.7 L-303.7 -112.7 L-302.7 -112.7 L-301.7 -112.6 L-300.7 -112.6 L-299.7 -112.6 L-298.7 -112.6 L-297.7 -112.6 L-296.7 -112.6 L-295.7 -112.5 L-294.7 -112.5 L-293.7 -112.5 L-292.7 -112.5 L-291.7 -112.5 L-290.7 -112.5 L-289.7 -112.5 L-288.7 -112.4 L-287.7 -112.4 Z " />
<path stroke="rgb(0,0,0)" stroke-opacity="0.981" fill="rgb(255,255,255)" fill-opacity="1" d="M24.9 100.1 L24.81 102.1 L24.57 104.1 L24.17 106 L23.62 107.9 L22.92 109.7 L22.07 111.5 L21.08 113.2 L19.96 114.9 L18.72 116.4 L17.35 117.9 L15.88 119.2 L14.31 120.4 L12.64 121.5 L10.9 122.4 L9.085 123.2 L7.214 123.8 L5.298 124.3 L3.348 124.7 L1.377 124.9 L-0.6025 124.9 L-2.578 124.8 L-4.538 124.5 L-6.469 124 L-8.359 123.5 L-10.2 122.7 L-11.97 121.8 L-13.67 120.8 L-15.28 119.7 L-16.79 118.4 L-18.2 117 L-19.49 115.5 L-20.66 113.9 L-21.7 112.2 L-22.6 110.4 L-23.36 108.6 L-23.97 106.7 L-24.43 104.8 L-24.73 102.9 L-24.88 100.9 L-24.87 98.9 L-24.71 96.93 L-24.39 94.97 L-23.91 93.05 L-23.28 91.17 L-22.51 89.35 L-21.59 87.6 L-20.54 85.92 L-19.35 84.33 L-18.05 82.85 L-16.63 81.47 L-15.1 80.2 L-13.48 79.07 L-11.78 78.06 L-9.997 77.19 L-8.153 76.47 L-6.258 75.9 L-4.324 75.48 L-2.362 75.21 L-0.3851 75.1 L1.594 75.15 L3.563 75.35 L5.51 75.72 L7.422 76.23 L9.287 76.89 L11.09 77.71 L12.83 78.66 L14.48 79.74 L16.05 80.96 L17.51 82.29 L18.86 83.74 L20.09 85.29 L21.2 86.93 L22.17 88.66 L23 90.46 L23.69 92.31 L24.22 94.22 L24.6 96.16 L24.83 98.13 L24.9 100.1 Z " />
<path stroke="rgb(0,0,0)" stroke-opacity="1" fill="rgb(255,255,255)" fill-opacity="1" d="M-87.89 -112.5 L-87.9 -111.5 L-87.9 -110.5 L-87.9 -109.5 L-87.91 -108.5 L-87.91 -107.5 L-87.91 -106.5 L-87.92 -105.5 L-87.92 -104.6 L-87.92 -103.6 L-87.93 -102.6 L-87.93 -101.6 L-87.93 -100.6 L-87.94 -99.58 L-87.94 -98.59 L-87.94 -97.59 L-87.95 -96.6 L-87.95 -95.6 L-87.95 -94.61 L-87.96 -93.61 L-87.96 -92.62 L-87.96 -91.62 L-87.97 -90.63 L-87.97 -89.64 L-87.97 -88.64 L-87.98 -87.65 L-88.97 -87.65 L-89.97 -87.65 L-90.96 -87.66 L-91.95 -87.66 L-92.95 -87.66 L-93.94 -87.67 L-94.94 -87.67 L-95.93 -87.67 L-96.93 -87.68 L-97.92 -87.68 L-98.92 -87.68 L-99.91 -87.69 L-100.9 -87.69 L-101.9 -87.69 L-102.9 -87.7 L-103.9 -87.7 L-104.9 -87.7 L-105.9 -87.71 L-106.9 -87.71 L-107.9 -87.71 L-108.9 -87.72 L-109.9 -87.72 L-110.9 -87.72 L-111.8 -87.73 L-112.8 -87.73 L-112.8 -88.72 L-112.8 -89.72 L-112.8 -90.71 L-112.8 -91.71 L-112.8 -92.7 L-112.8 -93.7 L-112.8 -94.69 L-112.8 -95.69 L-112.8 -96.68 L-112.8 -97.68 L-112.8 -98.67 L-112.8 -99.67 L-112.8 -100.7 L-112.8 -101.7 L-112.8 -102.6 L-112.8 -103.6 L-112.8 -104.6 L-112.8 -105.6 L-112.8 -106.6 L-112.8 -107.6 L-112.8 -108.6 L-112.8 -109.6 L-112.8 -110.6 L-112.8 -111.6 L-112.8 -112.6 L-111.8 -112.6 L-110.8 -112.6 L-109.8 -112.6 L-108.8 -112.6 L-107.8 -112.6 L-106.8 -112.6 L-105.8 -112.6 L-104.8 -112.6 L-103.8 -112.6 L-102.8 -112.6 L-101.8 -112.6 L-100.8 -112.6 L-99.83 -112.6 L-98.83 -112.5 L-97.84 -112.5 L-96.84 -112.5 L-95.85 -112.5 L-94.85 -112.5 L-93.86 -112.5 L-92.87 -112.5 L-91.87 -112.5 L-90.88 -112.5 L-89.88 -112.5 L-88.89 -112.5 L-87.89 -112.5 Z " />
<path stroke="rgb(0,0,0)" stroke-opacity="0.981" fill="rgb(255,255,255)" fill-opacity="1" d="M224.9 100.1 L224.8 102.1 L224.6 104.1 L224.2 106 L223.6 107.9 L222.9 109.7 L222.1 111.5 L221.1 113.2 L220 114.9 L218.7 116.4 L217.4 117.9 L215.9 119.2 L214.3 120.4 L212.6 121.5 L210.9 122.4 L209.1 123.2 L207.2 123.8 L205.3 124.3 L203.3 124.7 L201.4 124.9 L199.4 124.9 L197.4 124.8 L195.5 124.5 L193.5 124 L191.6 123.5 L189.8 122.7 L188 121.8 L186.3 120.8 L184.7 119.7 L183.2 118.4 L181.8 117 L180.5 115.5 L179.3 113.9 L178.3 112.2 L177.4 110.4 L176.6 108.6 L176 106.7 L175.6 104.8 L175.3 102.9 L175.1 100.9 L175.1 98.9 L175.3 96.93 L175.6 94.97 L176.1 93.05 L176.7 91.17 L177.5 89.35 L178.4 87.6 L179.5 85.92 L180.6 84.33 L182 82.85 L183.4 81.47 L184.9 80.2 L186.5 79.07 L188.2 78.06 L190 77.19 L191.8 76.47 L193.7 75.9 L195.7 75.48 L197.6 75.21 L199.6 75.1 L201.6 75.15 L203.6 75.35 L205.5 75.72 L207.4 76.23 L209.3 76.89 L211.1 77.71 L212.8 78.66 L214.5 79.74 L216 80.96 L217.5 82.29 L218.9 83.74 L220.1 85.29 L221.2 86.93 L222.2 88.66 L223 90.46 L223.7 92.31 L224.2 94.22 L224.6 96.16 L224.8 98.13 L224.9 100.1 Z " />
<path stroke="rgb(0,0,0)" stroke-opacity="1" fill="rgb(255,255,255)" fill-opacity="1" d="M112.1 -112.5 L112.1 -111.5 L112.1 -110.5 L112.1 -109.5 L112.1 -108.5 L112.1 -107.5 L112.1 -106.5 L112.1 -105.5 L112.1 -104.6 L112.1 -103.6 L112.1 -102.6 L112.1 -101.6 L112.1 -100.6 L112.1 -99.58 L112.1 -98.59 L112.1 -97.59 L112.1 -96.6 L112.1 -95.6 L112 -94.61 L112 -93.61 L112 -92.62 L112 -91.62 L112 -90.63 L112 -89.64 L112 -88.64 L112 -87.65 L111 -87.65 L110 -87.65 L109 -87.66 L108 -87.66 L107.1 -87.66 L106.1 -87.67 L105.1 -87.67 L104.1 -87.67 L103.1 -87.68 L102.1 -87.68 L101.1 -87.68 L100.1 -87.69 L99.09 -87.69 L98.1 -87.69 L97.1 -87.7 L96.11 -87.7 L95.12 -87.7 L94.12 -87.71 L93.13 -87.71 L92.13 -87.71 L91.14 -87.72 L90.14 -87.72 L89.15 -87.72 L88.15 -87.73 L87.16 -87.73 L87.16 -88.72 L87.17 -89.72 L87.17 -90.71 L87.17 -91.71 L87.18 -92.7 L87.18 -93.7 L87.18 -94.69 L87.19 -95.69 L87.19 -96.68 L87.19 -97.68 L87.2 -98.67 L87.2 -99.67 L87.2 -100.7 L87.21 -101.7 L87.21 -102.6 L87.21 -103.6 L87.22 -104.6 L87.22 -105.6 L87.22 -106.6 L87.23 -107.6 L87.23 -108.6 L87.23 -109.6 L87.24 -110.6 L87.24 -111.6 L87.24 -112.6 L88.24 -112.6 L89.23 -112.6 L90.23 -112.6 L91.22 -112.6 L92.22 -112.6 L93.21 -112.6 L94.2 -112.6 L95.2 -112.6 L96.19 -112.6 L97.19 -112.6 L98.18 -112.6 L99.18 -112.6 L100.2 -112.6 L101.2 -112.5 L102.2 -112.5 L103.2 -112.5 L104.2 -112.5 L105.1 -112.5 L106.1 -112.5 L107.1 -112.5 L108.1 -112.5 L109.1 -112.5 L110.1 -112.5 L111.1 -112.5 L112.1 -112.5 Z " />
<path stroke="rgb(0,0,0)" stroke-opacity="0.981" fill="rgb(255,255,255)" fill-opacity="1" d="M-275.1 200.1 L-275.2 202.1 L-275.4 204.1 L-275.8 206 L-276.4 207.9 L-277.1 209.7 L-277.9 211.5 L-278.9 213.2 L-280 214.9 L-281.3 216.4 L-282.6 217.9 L-284.1 219.2 L-285.7 220.4 L-287.4 221.5 L-289.1 222.4 L-290.9 223.2 L-292.8 223.8 L-294.7 224.3 L-296.7 224.7 L-298.6 224.9 L-300.6 224.9 L-302.6 224.8 L-304.5 224.5 L-306.5 224 L-308.4 223.5 L-310.2 222.7 L-312 221.8 L-313.7 220.8 L-315.3 219.7 L-316.8 218.4 L-318.2 217 L-319.5 215.5 L-320.7 213.9 L-321.7 212.2 L-322.6 210.4 L-323.4 208.6 L-324 206.7 L-324.4 204.8 L-324.7 202.9 L-324.9 200.9 L-324.9 198.9 L-324.7 196.9 L-324.4 195 L-323.9 193.1 L-323.3 191.2 L-322.5 189.4 L-321.6 187.6 L-320.5 185.9 L-319.4 184.3 L-318 182.8 L-316.6 181.5 L-315.1 180.2 L-313.5 179.1 L-311.8 178.1 L-310 177.2 L-308.2 176.5 L-306.3 175.9 L-304.3 175.5 L-302.4 175.2 L-300.4 175.1 L-298.4 175.1 L-296.4 175.4 L-294.5 175.7 L-292.6 176.2 L-290.7 176.9 L-288.9 177.7 L-287.2 178.7 L-285.5 179.7 L-284 181 L-282.5 182.3 L-281.1 183.7 L-279.9 185.3 L-278.8 186.9 L-277.8 188.7 L-277 190.5 L-276.3 192.3 L-275.8 194.2 L-275.4 196.2 L-275.2 198.1 L-275.1 200.1 Z " />
<path stroke="rgb(0,0,0)" stroke-opacity="1" fill="rgb(255,255,255)" fill-opacity="1" d="M-387.7 -12.43 L-387.7 -11.43 L-387.7 -10.43 L-387.7 -9.434 L-387.8 -8.434 L-387.8 -7.435 L-387.8 -6.435 L-387.8 -5.436 L-387.8 -4.437 L-387.8 -3.437 L-387.8 -2.438 L-387.9 -1.438 L-387.9 -0.4389 L-387.9 0.5605 L-387.9 1.56 L-387.9 2.559 L-387.9 3.559 L-387.9 4.558 L-388 5.558 L-388 6.557 L-388 7.556 L-388 8.556 L-388 9.555 L-388 10.55 L-388 11.55 L-388.1 12.55 L-389.1 12.54 L-390.1 12.52 L-391.1 12.51 L-392.1 12.5 L-393.1 12.48 L-394.1 12.47 L-395.1 12.45 L-396.1 12.44 L-397.1 12.42 L-398.1 12.41 L-399.1 12.39 L-400.1 12.38 L-401.1 12.36 L-402 12.35 L-403 12.34 L-404 12.32 L-405 12.31 L-406 12.29 L-407 12.28 L-408 12.26 L-409 12.25 L-410 12.23 L-411 12.22 L-412 12.2 L-413 12.19 L-413 11.19 L-413 10.19 L-413 9.191 L-413 8.192 L-413 7.192 L-413 6.193 L-412.9 5.193 L-412.9 4.194 L-412.9 3.195 L-412.9 2.195 L-412.9 1.196 L-412.9 0.1963 L-412.9 -0.8032 L-412.8 -1.803 L-412.8 -2.802 L-412.8 -3.801 L-412.8 -4.801 L-412.8 -5.8 L-412.8 -6.8 L-412.8 -7.799 L-412.7 -8.799 L-412.7 -9.798 L-412.7 -10.8 L-412.7 -11.8 L-412.7 -12.8 L-411.7 -12.78 L-410.7 -12.77 L-409.7 -12.75 L-408.7 -12.74 L-407.7 -12.72 L-406.7 -12.71 L-405.7 -12.69 L-404.7 -12.68 L-403.7 -12.67 L-402.7 -12.65 L-401.7 -12.64 L-400.7 -12.62 L-399.7 -12.61 L-398.7 -12.59 L-397.7 -12.58 L-396.7 -12.56 L-395.7 -12.55 L-394.7 -12.53 L-393.7 -12.52 L-392.7 -12.5 L-391.7 -12.49 L-390.7 -12.48 L-389.7 -12.46 L-388.7 -12.45 L-387.7 -12.43 Z " />
<path stroke="rgb(0,0,0)" stroke-opacity="0.981" fill="rgb(255,255,255)" fill-opacity="1" d="M-75.1 200.1 L-75.19 202.1 L-75.43 204.1 L-75.83 206 L-76.38 207.9 L-77.08 209.7 L-77.93 211.5 L-78.92 213.2 L-80.04 214.9 L-81.28 216.4 L-82.65 217.9 L-84.12 219.2 L-85.69 220.4 L-87.36 221.5 L-89.1 222.4 L-90.92 223.2 L-92.79 223.8 L-94.7 224.3 L-96.65 224.7 L-98.62 224.9 L-100.6 224.9 L-102.6 224.8 L-104.5 224.5 L-106.5 224 L-108.4 223.5 L-110.2 222.7 L-112 221.8 L-113.7 220.8 L-115.3 219.7 L-116.8 218.4 L-118.2 217 L-119.5 215.5 L-120.7 213.9 L-121.7 212.2 L-122.6 210.4 L-123.4 208.6 L-124 206.7 L-124.4 204.8 L-124.7 202.9 L-124.9 200.9 L-124.9 198.9 L-124.7 196.9 L-124.4 195 L-123.9 193.1 L-123.3 191.2 L-122.5 189.4 L-121.6 187.6 L-120.5 185.9 L-119.4 184.3 L-118 182.8 L-116.6 181.5 L-115.1 180.2 L-113.5 179.1 L-111.8 178.1 L-110 177.2 L-108.2 176.5 L-106.3 175.9 L-104.3 175.5 L-102.4 175.2 L-100.4 175.1 L-98.41 175.1 L-96.44 175.4 L-94.49 175.7 L-92.58 176.2 L-90.71 176.9 L-88.91 177.7 L-87.17 178.7 L-85.52 179.7 L-83.95 181 L-82.49 182.3 L-81.14 183.7 L-79.91 185.3 L-78.8 186.9 L-77.83 188.7 L-77 190.5 L-76.31 192.3 L-75.78 194.2 L-75.4 196.2 L-75.17 198.1 L-75.1 200.1 Z " />
<path stroke="rgb(0,0,0)" stroke-opacity="1" fill="rgb(255,255,255)" fill-opacity="1" d="M-187.9 -12.51 L-187.9 -11.52 L-187.9 -10.52 L-187.9 -9.527 L-187.9 -8.533 L-187.9 -7.538 L-187.9 -6.543 L-187.9 -5.549 L-187.9 -4.554 L-187.9 -3.56 L-187.9 -2.565 L-187.9 -1.57 L-187.9 -0.5758 L-187.9 0.4188 L-187.9 1.413 L-187.9 2.408 L-187.9 3.403 L-187.9 4.397 L-188 5.392 L-188 6.386 L-188 7.381 L-188 8.376 L-188 9.37 L-188 10.36 L-188 11.36 L-188 12.35 L-189 12.35 L-190 12.35 L-191 12.34 L-192 12.34 L-192.9 12.34 L-193.9 12.33 L-194.9 12.33 L-195.9 12.33 L-196.9 12.32 L-197.9 12.32 L-198.9 12.32 L-199.9 12.31 L-200.9 12.31 L-201.9 12.31 L-202.9 12.3 L-203.9 12.3 L-204.9 12.3 L-205.9 12.29 L-206.9 12.29 L-207.9 12.29 L-208.9 12.28 L-209.9 12.28 L-210.9 12.28 L-211.8 12.27 L-212.8 12.27 L-212.8 11.28 L-212.8 10.28 L-212.8 9.286 L-212.8 8.292 L-212.8 7.297 L-212.8 6.302 L-212.8 5.308 L-212.8 4.313 L-212.8 3.319 L-212.8 2.324 L-212.8 1.329 L-212.8 0.3347 L-212.8 -0.6599 L-212.8 -1.654 L-212.8 -2.649 L-212.8 -3.644 L-212.8 -4.638 L-212.8 -5.633 L-212.8 -6.627 L-212.8 -7.622 L-212.8 -8.617 L-212.8 -9.611 L-212.8 -10.61 L-212.8 -11.6 L-212.8 -12.6 L-211.8 -12.59 L-210.8 -12.59 L-209.8 -12.59 L-208.8 -12.58 L-207.8 -12.58 L-206.8 -12.57 L-205.8 -12.57 L-204.8 -12.57 L-203.8 -12.56 L-202.8 -12.56 L-201.8 -12.56 L-200.8 -12.55 L-199.8 -12.55 L-198.8 -12.55 L-197.8 -12.54 L-196.8 -12.54 L-195.8 -12.54 L-194.9 -12.53 L-193.9 -12.53 L-192.9 -12.53 L-191.9 -12.52 L-190.9 -12.52 L-189.9 -12.52 L-188.9 -12.51 L-187.9 -12.51 Z " />
<path stroke="rgb(0,0,0)" stroke-opacity="0.981" fill="rgb(255,255,255)" fill-opacity="1" d="M124.9 200.1 L124.8 202.1 L124.6 204.1 L124.2 206 L123.6 207.9 L122.9 209.7 L122.1 211.5 L121.1 213.2 L120 214.9 L118.7 216.4 L117.4 217.9 L115.9 219.2 L114.3 220.4 L112.6 221.5 L110.9 222.4 L109.1 223.2 L107.2 223.8 L105.3 224.3 L103.3 224.7 L101.4 224.9 L99.4 224.9 L97.42 224.8 L95.46 224.5 L93.53 224 L91.64 223.5 L89.8 222.7 L88.03 221.8 L86.33 220.8 L84.72 219.7 L83.21 218.4 L81.8 217 L80.51 215.5 L79.34 213.9 L78.3 212.2 L77.4 210.4 L76.64 208.6 L76.03 206.7 L75.57 204.8 L75.27 202.9 L75.12 200.9 L75.13 198.9 L75.29 196.9 L75.61 195 L76.09 193.1 L76.72 191.2 L77.49 189.4 L78.41 187.6 L79.46 185.9 L80.65 184.3 L81.95 182.8 L83.37 181.5 L84.9 180.2 L86.52 179.1 L88.22 178.1 L90 177.2 L91.85 176.5 L93.74 175.9 L95.68 175.5 L97.64 175.2 L99.61 175.1 L101.6 175.1 L103.6 175.4 L105.5 175.7 L107.4 176.2 L109.3 176.9 L111.1 177.7 L112.8 178.7 L114.5 179.7 L116 181 L117.5 182.3 L118.9 183.7 L120.1 185.3 L121.2 186.9 L122.2 188.7 L123 190.5 L123.7 192.3 L124.2 194.2 L124.6 196.2 L124.8 198.1 L124.9 200.1 Z " />
<path stroke="rgb(0,0,0)" stroke-opacity="1" fill="rgb(255,255,255)" fill-opacity="1" d="M12.11 -12.51 L12.1 -11.52 L12.1 -10.52 L12.1 -9.527 L12.09 -8.533 L12.09 -7.538 L12.09 -6.543 L12.08 -5.549 L12.08 -4.554 L12.08 -3.56 L12.07 -2.565 L12.07 -1.57 L12.07 -0.5758 L12.06 0.4188 L12.06 1.413 L12.06 2.408 L12.05 3.403 L12.05 4.397 L12.05 5.392 L12.04 6.386 L12.04 7.381 L12.04 8.376 L12.03 9.37 L12.03 10.36 L12.03 11.36 L12.02 12.35 L11.03 12.35 L10.03 12.35 L9.04 12.34 L8.045 12.34 L7.051 12.34 L6.056 12.33 L5.062 12.33 L4.067 12.33 L3.072 12.32 L2.078 12.32 L1.083 12.32 L0.08855 12.31 L-0.9061 12.31 L-1.901 12.31 L-2.895 12.3 L-3.89 12.3 L-4.884 12.3 L-5.879 12.29 L-6.874 12.29 L-7.868 12.29 L-8.863 12.28 L-9.858 12.28 L-10.85 12.28 L-11.85 12.27 L-12.84 12.27 L-12.84 11.28 L-12.83 10.28 L-12.83 9.286 L-12.83 8.292 L-12.82 7.297 L-12.82 6.302 L-12.82 5.308 L-12.81 4.313 L-12.81 3.319 L-12.81 2.324 L-12.8 1.329 L-12.8 0.3347 L-12.8 -0.6599 L-12.79 -1.654 L-12.79 -2.649 L-12.79 -3.644 L-12.78 -4.638 L-12.78 -5.633 L-12.78 -6.627 L-12.77 -7.622 L-12.77 -8.617 L-12.77 -9.611 L-12.76 -10.61 L-12.76 -11.6 L-12.76 -12.6 L-11.76 -12.59 L-10.77 -12.59 L-9.773 -12.59 L-8.779 -12.58 L-7.784 -12.58 L-6.79 -12.57 L-5.795 -12.57 L-4.8 -12.57 L-3.806 -12.56 L-2.811 -12.56 L-1.817 -12.56 L-0.822 -12.55 L0.1726 -12.55 L1.167 -12.55 L2.162 -12.54 L3.156 -12.54 L4.151 -12.54 L5.146 -12.53 L6.14 -12.53 L7.135 -12.53 L8.129 -12.52 L9.124 -12.52 L10.12 -12.52 L11.11 -12.51 L12.11 -12.51 Z " />
<path stroke="rgb(0,0,0)" stroke-opacity="0.981" fill="rgb(255,255,255)" fill-opacity="1" d="M324.9 200.1 L324.8 202.1 L324.6 204.1 L324.2 206 L323.6 207.9 L322.9 209.7 L322.1 211.5 L321.1 213.2 L320 214.9 L318.7 216.4 L317.4 217.9 L315.9 219.2 L314.3 220.4 L312.6 221.5 L310.9 222.4 L309.1 223.2 L307.2 223.8 L305.3 224.3 L303.3 224.7 L301.4 224.9 L299.4 224.9 L297.4 224.8 L295.5 224.5 L293.5 224 L291.6 223.5 L289.8 222.7 L288 221.8 L286.3 220.8 L284.7 219.7 L283.2 218.4 L281.8 217 L280.5 215.5 L279.3 213.9 L278.3 212.2 L277.4 210.4 L276.6 208.6 L276 206.7 L275.6 204.8 L275.3 202.9 L275.1 200.9 L275.1 198.9 L275.3 196.9 L275.6 195 L276.1 193.1 L276.7 191.2 L277.5 189.4 L278.4 187.6 L279.5 185.9 L280.6 184.3 L282 182.8 L283.4 181.5 L284.9 180.2 L286.5 179.1 L288.2 178.1 L290 177.2 L291.8 176.5 L293.7 175.9 L295.7 175.5 L297.6 175.2 L299.6 175.1 L301.6 175.1 L303.6 175.4 L305.5 175.7 L307.4 176.2 L309.3 176.9 L311.1 177.7 L312.8 178.7 L314.5 179.7 L316 181 L317.5 182.3 L318.9 183.7 L320.1 185.3 L321.2 186.9 L322.2 188.7 L323 190.5 L323.7 192.3 L324.2 194.2 L324.6 196.2 L324.8 198.1 L324.9 200.1 Z " />
<path stroke="rgb(0,0,0)" stroke-opacity="1" fill="rgb(255,255,255)" fill-opacity="1" d="M-487.7 87.57 L-487.7 88.57 L-487.7 89.57 L-487.7 90.57 L-487.8 91.57 L-487.8 92.57 L-487.8 93.56 L-487.8 94.56 L-487.8 95.56 L-487.8 96.56 L-487.8 97.56 L-487.9 98.56 L-487.9 99.56 L-487.9 100.6 L-487.9 101.6 L-487.9 102.6 L-487.9 103.6 L-487.9 104.6 L-488 105.6 L-488 106.6 L-488 107.6 L-488 108.6 L-488 109.6 L-488 110.6 L-488 111.6 L-488.1 112.6 L-489.1 112.5 L-490.1 112.5 L-491.1 112.5 L-492.1 112.5 L-493.1 112.5 L-494.1 112.5 L-495.1 112.5 L-496.1 112.4 L-497.1 112.4 L-498.1 112.4 L-499.1 112.4 L-500.1 112.4 L-501.1 112.4 L-502 112.3 L-503 112.3 L-504 112.3 L-505 112.3 L-506 112.3 L-507 112.3 L-508 112.3 L-509 112.2 L-510 112.2 L-511 112.2 L-512 112.2 L-513 112.2 L-513 111.2 L-513 110.2 L-513 109.2 L-513 108.2 L-513 107.2 L-513 106.2 L-512.9 105.2 L-512.9 104.2 L-512.9 103.2 L-512.9 102.2 L-512.9 101.2 L-512.9 100.2 L-512.9 99.2 L-512.8 98.2 L-512.8 97.2 L-512.8 96.2 L-512.8 95.2 L-512.8 94.2 L-512.8 93.2 L-512.8 92.2 L-512.7 91.2 L-512.7 90.2 L-512.7 89.2 L-512.7 88.2 L-512.7 87.2 L-511.7 87.22 L-510.7 87.23 L-509.7 87.25 L-508.7 87.26 L-507.7 87.28 L-506.7 87.29 L-505.7 87.31 L-504.7 87.32 L-503.7 87.33 L-502.7 87.35 L-501.7 87.36 L-500.7 87.38 L-499.7 87.39 L-498.7 87.41 L-497.7 87.42 L-496.7 87.44 L-495.7 87.45 L-494.7 87.47 L-493.7 87.48 L-492.7 87.5 L-491.7 87.51 L-490.7 87.52 L-489.7 87.54 L-488.7 87.55 L-487.7 87.57 Z " />
<path stroke="rgb(0,0,0)" stroke-opacity="0.981" fill="rgb(255,255,255)" fill-opacity="1" d="M-175.1 300.1 L-175.2 302.1 L-175.4 304.1 L-175.8 306 L-176.4 307.9 L-177.1 309.7 L-177.9 311.5 L-178.9 313.2 L-180 314.9 L-181.3 316.4 L-182.6 317.9 L-184.1 319.2 L-185.7 320.4 L-187.4 321.5 L-189.1 322.4 L-190.9 323.2 L-192.8 323.8 L-194.7 324.3 L-196.7 324.7 L-198.6 324.9 L-200.6 324.9 L-202.6 324.8 L-204.5 324.5 L-206.5 324 L-208.4 323.5 L-210.2 322.7 L-212 321.8 L-213.7 320.8 L-215.3 319.7 L-216.8 318.4 L-218.2 317 L-219.5 315.5 L-220.7 313.9 L-221.7 312.2 L-222.6 310.4 L-223.4 308.6 L-224 306.7 L-224.4 304.8 L-224.7 302.9 L-224.9 300.9 L-224.9 298.9 L-224.7 296.9 L-224.4 295 L-223.9 293.1 L-223.3 291.2 L-222.5 289.4 L-221.6 287.6 L-220.5 285.9 L-219.4 284.3 L-218 282.8 L-216.6 281.5 L-215.1 280.2 L-213.5 279.1 L-211.8 278.1 L-210 277.2 L-208.2 276.5 L-206.3 275.9 L-204.3 275.5 L-202.4 275.2 L-200.4 275.1 L-198.4 275.1 L-196.4 275.4 L-194.5 275.7 L-192.6 276.2 L-190.7 276.9 L-188.9 277.7 L-187.2 278.7 L-185.5 279.7 L-184 281 L-182.5 282.3 L-181.1 283.7 L-179.9 285.3 L-178.8 286.9 L-177.8 288.7 L-177 290.5 L-176.3 292.3 L-175.8 294.2 L-175.4 296.2 L-175.2 298.1 L-175.1 300.1 Z " />
<path stroke="rgb(0,0,0)" stroke-opacity="1" fill="rgb(255,255,255)" fill-opacity="1" d="M-287.9 87.49 L-287.9 88.48 L-287.9 89.48 L-287.9 90.47 L-287.9 91.47 L-287.9 92.46 L-287.9 93.46 L-287.9 94.45 L-287.9 95.45 L-287.9 96.44 L-287.9 97.43 L-287.9 98.43 L-287.9 99.42 L-287.9 100.4 L-287.9 101.4 L-287.9 102.4 L-287.9 103.4 L-287.9 104.4 L-288 105.4 L-288 106.4 L-288 107.4 L-288 108.4 L-288 109.4 L-288 110.4 L-288 111.4 L-288 112.4 L-289 112.4 L-290 112.3 L-291 112.3 L-292 112.3 L-292.9 112.3 L-293.9 112.3 L-294.9 112.3 L-295.9 112.3 L-296.9 112.3 L-297.9 112.3 L-298.9 112.3 L-299.9 112.3 L-300.9 112.3 L-301.9 112.3 L-302.9 112.3 L-303.9 112.3 L-304.9 112.3 L-305.9 112.3 L-306.9 112.3 L-307.9 112.3 L-308.9 112.3 L-309.9 112.3 L-310.9 112.3 L-311.8 112.3 L-312.8 112.3 L-312.8 111.3 L-312.8 110.3 L-312.8 109.3 L-312.8 108.3 L-312.8 107.3 L-312.8 106.3 L-312.8 105.3 L-312.8 104.3 L-312.8 103.3 L-312.8 102.3 L-312.8 101.3 L-312.8 100.3 L-312.8 99.34 L-312.8 98.35 L-312.8 97.35 L-312.8 96.36 L-312.8 95.36 L-312.8 94.37 L-312.8 93.37 L-312.8 92.38 L-312.8 91.38 L-312.8 90.39 L-312.8 89.39 L-312.8 88.4 L-312.8 87.4 L-311.8 87.41 L-310.8 87.41 L-309.8 87.41 L-308.8 87.42 L-307.8 87.42 L-306.8 87.43 L-305.8 87.43 L-304.8 87.43 L-303.8 87.44 L-302.8 87.44 L-301.8 87.44 L-300.8 87.45 L-299.8 87.45 L-298.8 87.45 L-297.8 87.46 L-296.8 87.46 L-295.8 87.46 L-294.9 87.47 L-293.9 87.47 L-292.9 87.47 L-291.9 87.48 L-290.9 87.48 L-289.9 87.48 L-288.9 87.49 L-287.9 87.49 Z " />
<path stroke="rgb(0,0,0)" stroke-opacity="0.981" fill="rgb(255,255,255)" fill-opacity="1" d="M24.9 300.1 L24.81 302.1 L24.57 304.1 L24.17 306 L23.62 307.9 L22.92 309.7 L22.07 311.5 L21.08 313.2 L19.96 314.9 L18.72 316.4 L17.35 317.9 L15.88 319.2 L14.31 320.4 L12.64 321.5 L10.9 322.4 L9.085 323.2 L7.214 323.8 L5.298 324.3 L3.348 324.7 L1.377 324.9 L-0.6025 324.9 L-2.578 324.8 L-4.538 324.5 L-6.469 324 L-8.359 323.5 L-10.2 322.7 L-11.97 321.8 L-13.67 320.8 L-15.28 319.7 L-16.79 318.4 L-18.2 317 L-19.49 315.5 L-20.66 313.9 L-21.7 312.2 L-22.6 310.4 L-23.36 308.6 L-23.97 306.7 L-24.43 304.8 L-24.73 302.9 L-24.88 300.9 L-24.87 298.9 L-24.71 296.9 L-24.39 295 L-23.91 293.1 L-23.28 291.2 L-22.51 289.4 L-21.59 287.6 L-20.54 285.9 L-19.35 284.3 L-18.05 282.8 L-16.63 281.5 L-15.1 280.2 L-13.48 279.1 L-11.78 278.1 L-9.997 277.2 L-8.153 276.5 L-6.258 275.9 L-4.324 275.5 L-2.362 275.2 L-0.3851 275.1 L1.594 275.1 L3.563 275.4 L5.51 275.7 L7.422 276.2 L9.287 276.9 L11.09 277.7 L12.83 278.7 L14.48 279.7 L16.05 281 L17.51 282.3 L18.86 283.7 L20.09 285.3 L21.2 286.9 L22.17 288.7 L23 290.5 L23.69 292.3 L24.22 294.2 L24.6 296.2 L24.83 298.1 L24.9 300.1 Z " />
<path stroke="rgb(0,0,0)" stroke-opacity="1" fill="rgb(255,255,255)" fill-opacity="1" d="M-87.89 87.49 L-87.9 88.48 L-87.9 89.48 L-87.9 90.47 L-87.91 91.47 L-87.91 92.46 L-87.91 93.46 L-87.92 94.45 L-87.92 95.45 L-87.92 96.44 L-87.93 97.43 L-87.93 98.43 L-87.93 99.42 L-87.94 100.4 L-87.94 101.4 L-87.94 102.4 L-87.95 103.4 L-87.95 104.4 L-87.95 105.4 L-87.96 106.4 L-87.96 107.4 L-87.96 108.4 L-87.97 109.4 L-87.97 110.4 L-87.97 111.4 L-87.98 112.4 L-88.97 112.4 L-89.97 112.3 L-90.96 112.3 L-91.95 112.3 L-92.95 112.3 L-93.94 112.3 L-94.94 112.3 L-95.93 112.3 L-96.93 112.3 L-97.92 112.3 L-98.92 112.3 L-99.91 112.3 L-100.9 112.3 L-101.9 112.3 L-102.9 112.3 L-103.9 112.3 L-104.9 112.3 L-105.9 112.3 L-106.9 112.3 L-107.9 112.3 L-108.9 112.3 L-109.9 112.3 L-110.9 112.3 L-111.8 112.3 L-112.8 112.3 L-112.8 111.3 L-112.8 110.3 L-112.8 109.3 L-112.8 108.3 L-112.8 107.3 L-112.8 106.3 L-112.8 105.3 L-112.8 104.3 L-112.8 103.3 L-112.8 102.3 L-112.8 101.3 L-112.8 100.3 L-112.8 99.34 L-112.8 98.35 L-112.8 97.35 L-112.8 96.36 L-112.8 95.36 L-112.8 94.37 L-112.8 93.37 L-112.8 92.38 L-112.8 91.38 L-112.8 90.39 L-112.8 89.39 L-112.8 88.4 L-112.8 87.4 L-111.8 87.41 L-110.8 87.41 L-109.8 87.41 L-108.8 87.42 L-107.8 87.42 L-106.8 87.43 L-105.8 87.43 L-104.8 87.43 L-103.8 87.44 L-102.8 87.44 L-101.8 87.44 L-100.8 87.45 L-99.83 87.45 L-98.83 87.45 L-97.84 87.46 L-96.84 87.46 L-95.85 87.46 L-94.85 87.47 L-93.86 87.47 L-92.87 87.47 L-91.87 87.48 L-90.88 87.48 L-89.88 87.48 L-88.89 87.49 L-87.89 87.49 Z " />
<path stroke="rgb(0,0,0)" stroke-opacity="0.981" fill="rgb(255,255,255)" fill-opacity="1" d="M224.9 300.1 L224.8 302.1 L224.6 304.1 L224.2 306 L223.6 307.9 L222.9 309.7 L222.1 311.5 L221.1 313.2 L220 314.9 L218.7 316.4 L217.4 317.9 L215.9 319.2 L214.3 320.4 L212.6 321.5 L210.9 322.4 L209.1 323.2 L207.2 323.8 L205.3 324.3 L203.3 324.7 L201.4 324.9 L199.4 324.9 L197.4 324.8 L195.5 324.5 L193.5 324 L191.6 323.5 L189.8 322.7 L188 321.8 L186.3 320.8 L184.7 319.7 L183.2 318.4 L181.8 317 L180.5 315.5 L179.3 313.9 L178.3 312.2 L177.4 310.4 L176.6 308.6 L176 306.7 L175.6 304.8 L175.3 302.9 L175.1 300.9 L175.1 298.9 L175.3 296.9 L175.6 295 L176.1 293.1 L176.7 291.2 L177.5 289.4 L178.4 287.6 L179.5 285.9 L180.6 284.3 L182 282.8 L183.4 281.5 L184.9 280.2 L186.5 279.1 L188.2 278.1 L190 277.2 L191.8 276.5 L193.7 275.9 L195.7 275.5 L197.6 275.2 L199.6 275.1 L201.6 275.1 L203.6 275.4 L205.5 275.7 L207.4 276.2 L209.3 276.9 L211.1 277.7 L212.8 278.7 L214.5 279.7 L216 281 L217.5 282.3 L218.9 283.7 L220.1 285.3 L221.2 286.9 L222.2 288.7 L223 290.5 L223.7 292.3 L224.2 294.2 L224.6 296.2 L224.8 298.1 L224.9 300.1 Z " />
<path stroke="rgb(0,0,0)" stroke-opacity="1" fill="rgb(255,255,255)" fill-opacity="1" d="M112.1 87.49 L112.1 88.48 L112.1 89.48 L112.1 90.47 L112.1 91.47 L112.1 92.46 L112.1 93.46 L112.1 94.45 L112.1 95.45 L112.1 96.44 L112.1 97.43 L112.1 98.43 L112.1 99.42 L112.1 100.4 L112.1 101.4 L112.1 102.4 L112.1 103.4 L112.1 104.4 L112 105.4 L112 106.4 L112 107.4 L112 108.4 L112 109.4 L112 110.4 L112 111.4 L112 112.4 L111 112.4 L110 112.3 L109 112.3 L108 112.3 L107.1 112.3 L106.1 112.3 L105.1 112.3 L104.1 112.3 L103.1 112.3 L102.1 112.3 L101.1 112.3 L100.1 112.3 L99.09 112.3 L98.1 112.3 L97.1 112.3 L96.11 112.3 L95.12 112.3 L94.12 112.3 L93.13 112.3 L92.13 112.3 L91.14 112.3 L90.14 112.3 L89.15 112.3 L88.15 112.3 L87.16 112.3 L87.16 111.3 L87.17 110.3 L87.17 109.3 L87.17 108.3 L87.18 107.3 L87.18 106.3 L87.18 105.3 L87.19 104.3 L87.19 103.3 L87.19 102.3 L87.2 101.3 L87.2 100.3 L87.2 99.34 L87.21 98.35 L87.21 97.35 L87.21 96.36 L87.22 95.36 L87.22 94.37 L87.22 93.37 L87.23 92.38 L87.23 91.38 L87.23 90.39 L87.24 89.39 L87.24 88.4 L87.24 87.4 L88.24 87.41 L89.23 87.41 L90.23 87.41 L91.22 87.42 L92.22 87.42 L93.21 87.43 L94.2 87.43 L95.2 87.43 L96.19 87.44 L97.19 87.44 L98.18 87.44 L99.18 87.45 L100.2 87.45 L101.2 87.45 L102.2 87.46 L103.2 87.46 L104.2 87.46 L105.1 87.47 L106.1 87.47 L107.1 87.47 L108.1 87.48 L109.1 87.48 L110.1 87.48 L111.1 87.49 L112.1 87.49 Z " />
</g>
</g>
</svg>
