<!DOCTYPE svg>
<svg xmlns="http://www.w3.org/2000/svg" xmlns:xlink="http://www.w3.org/1999/xlink" width="1000" height="1000">
<g transform="translate(500.000000,500.000000)">
<g transform="scale(3.000000,3.000000)">
<path stroke="rgb(0,0,0)" stroke-opacity="1" fill="rgb(255,255,255)" fill-opacity="1" d="M-475.8 -475.5 L-477.7 -475.6 L-479.7 -475.6 L-481.7 -475.6 L-483.7 -475.6 L-485.7 -475.6 L-487.7 -475.6 L-489.7 -475.6 L-491.7 -475.6 L-493.6 -475.6 L-495.6 -475.6 L-497.6 -475.6 L-499.6 -475.6 L-501.6 -475.7 L-503.6 -475.7 L-505.6 -475.7 L-507.5 -475.7 L-509.5 -475.7 L-511.5 -475.7 L-513.5 -475.7 L-515.5 -475.7 L-517.5 -475.7 L-519.5 -475.7 L-521.5 -475.7 L-523.4 -475.8 L-525.4 -475.8 L-525.4 -477.7 L-525.4 -479.7 L-525.4 -481.7 L-525.4 -483.7 L-525.4 -485.7 L-525.4 -487.7 L-525.4 -489.7 L-525.4 -491.7 L-525.4 -493.6 L-525.3 -495.6 L-525.3 -497.6 L-525.3 -499.6 L-525.3 -501.6 L-525.3 -503.6 L-525.3 -505.6 L-525.3 -507.6 L-525.3 -509.5 L-525.3 -511.5 L-525.3 -513.5 L-525.3 -515.5 L-525.3 -517.5 L-525.2 -519.5 L-525.2 -521.5 L-525.2 -523.4 L-525.2 -525.4 L-523.2 -525.4 L-521.2 -525.4 L-519.3 -525.4 L-517.3 -525.4 L-515.3 -525.4 L-513.3 -525.4 L-511.3 -525.4 L-509.3 -525.4 L-507.3 -525.4 L-505.3 -525.3 L-503.4 -525.3 L-501.4 -525.3 L-499.4 -525.3 L-497.4 -525.3 L-495.4 -525.3 L-493.4 -525.3 L-491.4 -525.3 L-489.5 -525.3 L-487.5 -525.3 L-485.5 -525.3 L-483.5 -525.3 L-481.5 -525.2 L-479.5 -525.2 L-477.5 -525.2 L-475.5 -525.2 L-475.6 -523.2 L-475.6 -521.2 L-475.6 -519.3 L-475.6 -517.3 L-475.6 -515.3 L-475.6 -513.3 L-475.6 -511.3 L-475.6 -509.3 L-475.6 -507.3 L-475.6 -505.4 L-475.6 -503.4 L-475.6 -501.4 L-475.7 -499.4 L-475.7 -497.4 L-475.7 -495.4 L-475.7 -493.4 L-475.7 -491.4 L-475.7 -489.5 L-475.7 -487.5 L-475.7 -485.5 L-475.7 -483.5 L-475.7 -481.5 L-475.7 -479.5 L-475.7 -477.5 L-475.8 -475.5 Z " />
<path stroke="rgb(0,0,0)" stroke-opacity="0.325" fill="rgb(255,255,255)" fill-opacity="1" d="M-175.1 -299.9 L-175.2 -297.9 L-175.4 -295.9 L-175.8 -294 L-176.4 -292.1 L-177.1 -290.3 L-177.9 -288.5 L-178.9 -286.8 L-180 -285.1 L-181.3 -283.6 L-182.6 -282.1 L-184.1 -280.8 L-185.7 -279.6 L-187.4 -278.5 L-189.1 -277.6 L-190.9 -276.8 L-192.8 -276.2 L-194.7 -275.7 L-196.7 -275.3 L-198.6 -275.1 L-200.6 -275.1 L-202.6 -275.2 L-204.5 -275.5 L-206.5 -276 L-208.4 -276.5 L-210.2 -277.3 L-212 -278.2 L-213.7 -279.2 L-215.3 -280.3 L-216.8 -281.6 L-218.2 -283 L-219.5 -284.5 L-220.7 -286.1 L-221.7 -287.8 L-222.6 -289.6 L-223.4 -291.4 L-224 -293.3 L-224.4 -295.2 L-224.7 -297.1 L-224.9 -299.1 L-224.9 -301.1 L-224.7 -303.1 L-224.4 -305 L-223.9 -306.9 L-223.3 -308.8 L-222.5 -310.6 L-221.6 -312.4 L-220.5 -314.1 L-219.4 -315.7 L-218 -317.2 L-216.6 -318.5 L-215.1 -319.8 L-213.5 -320.9 L-211.8 -321.9 L-210 -322.8 L-208.2 -323.5 L-206.3 -324.1 L-204.3 -324.5 L-202.4 -324.8 L-200.4 -324.9 L-198.4 -324.9 L-196.4 -324.6 L-194.5 -324.3 L-192.6 -323.8 L-190.7 -323.1 L-188.9 -322.3 L-187.2 -321.3 L-185.5 -320.3 L-184 -319 L-182.5 -317.7 L-181.1 -316.3 L-179.9 -314.7 L-178.8 -313.1 L-177.8 -311.3 L-177 -309.5 L-176.3 -307.7 L-175.8 -305.8 L-175.4 -303.8 L-175.2 -301.9 L-175.1 -299.9 Z " />
<path stroke="rgb(0,0,0)" stroke-opacity="1" fill="rgb(255,255,255)" fill-opacity="1" d="M-275.8 -475.5 L-277.7 -475.6 L-279.7 -475.6 L-281.7 -475.6 L-283.7 -475.6 L-285.7 -475.6 L-287.7 -475.6 L-289.7 -475.6 L-291.7 -475.6 L-293.6 -475.6 L-295.6 -475.6 L-297.6 -475.6 L-299.6 -475.6 L-301.6 -475.7 L-303.6 -475.7 L-305.6 -475.7 L-307.5 -475.7 L-309.5 -475.7 L-311.5 -475.7 L-313.5 -475.7 L-315.5 -475.7 L-317.5 -475.7 L-319.5 -475.7 L-321.5 -475.7 L-323.4 -475.8 L-325.4 -475.8 L-325.4 -477.7 L-325.4 -479.7 L-325.4 -481.7 L-325.4 -483.7 L-325.4 -485.7 L-325.4 -487.7 L-325.4 -489.7 L-325.4 -491.7 L-325.4 -493.6 L-325.3 -495.6 L-325.3 -497.6 L-325.3 -499.6 L-325.3 -501.6 L-325.3 -503.6 L-325.3 -505.6 L-325.3 -507.6 L-325.3 -509.5 L-325.3 -511.5 L-325.3 -513.5 L-325.3 -515.5 L-325.3 -517.5 L-325.2 -519.5 L-325.2 -521.5 L-325.2 -523.4 L-325.2 -525.4 L-323.2 -525.4 L-321.2 -525.4 L-319.3 -525.4 L-317.3 -525.4 L-315.3 -525.4 L-313.3 -525.4 L-311.3 -525.4 L-309.3 -525.4 L-307.3 -525.4 L-305.3 -525.3 L-303.4 -525.3 L-301.4 -525.3 L-299.4 -525.3 L-297.4 -525.3 L-295.4 -525.3 L-293.4 -525.3 L-291.4 -525.3 L-289.5 -525.3 L-287.5 -525.3 L-285.5 -525.3 L-283.5 -525.3 L-281.5 -525.2 L-279.5 -525.2 L-277.5 -525.2 L-275.5 -525.2 L-275.6 -523.2 L-275.6 -521.2 L-275.6 -519.3 L-275.6 -517.3 L-275.6 -515.3 L-275.6 -513.3 L-275.6 -511.3 L-275.6 -509.3 L-275.6 -507.3 L-275.6 -505.4 L-275.6 -503.4 L-275.6 -501.4 L-275.7 -499.4 L-275.7 -497.4 L-275.7 -495.4 L-275.7 -493.4 L-275.7 -491.4 L-275.7 -489.5 L-275.7 -487.5 L-275.7 -485.5 L-275.7 -483.5 L-275.7 -481.5 L-275.7 -479.5 L-275.7 -477.5 L-275.8 -475.5 Z " />
<path stroke="rgb(0,0,0)" stroke-opacity="0.325" fill="rgb(255,255,255)" fill-opacity="1" d="M24.9 -299.9 L24.81 -297.9 L24.57 -295.9 L24.17 -294 L23.62 -292.1 L22.92 -290.3 L22.07 -288.5 L21.08 -286.8 L19.96 -285.1 L18.72 -283.6 L17.35 -282.1 L15.88 -280.8 L14.31 -279.6 L12.64 -278.5 L10.9 -277.6 L9.085 -276.8 L7.214 -276.2 L5.298 -275.7 L3.348 -275.3 L1.377 -275.1 L-0.6025 -275.1 L-2.578 -275.2 L-4.538 -275.5 L-6.469 -276 L-8.359 -276.5 L-10.2 -277.3 L-11.97 -278.2 L-13.67 -279.2 L-15.28 -280.3 L-16.79 -281.6 L-18.2 -283 L-19.49 -284.5 L-20.66 -286.1 L-21.7 -287.8 L-22.6 -289.6 L-23.36 -291.4 L-23.97 -293.3 L-24.43 -295.2 L-24.73 -297.1 L-24.88 -299.1 L-24.87 -301.1 L-24.71 -303.1 L-24.39 -305 L-23.91 -306.9 L-23.28 -308.8 L-22.51 -310.6 L-21.59 -312.4 L-20.54 -314.1 L-19.35 -315.7 L-18.05 -317.2 L-16.63 -318.5 L-15.1 -319.8 L-13.48 -320.9 L-11.78 -321.9 L-9.997 -322.8 L-8.153 -323.5 L-6.258 -324.1 L-4.324 -324.5 L-2.362 -324.8 L-0.3851 -324.9 L1.594 -324.9 L3.563 -324.6 L5.51 -324.3 L7.422 -323.8 L9.287 -323.1 L11.09 -322.3 L12.83 -321.3 L14.48 -320.3 L16.05 -319 L17.51 -317.7 L18.86 -316.3 L20.09 -314.7 L21.2 -313.1 L22.17 -311.3 L23 -309.5 L23.69 -307.7 L24.22 -305.8 L24.6 -303.8 L24.83 -301.9 L24.9 -299.9 Z " />
<path stroke="rgb(0,0,0)" stroke-opacity="1" fill="rgb(255,255,255)" fill-opacity="1" d="M-75.76 -475.5 L-77.74 -475.6 L-79.73 -475.6 L-81.72 -475.6 L-83.7 -475.6 L-85.69 -475.6 L-87.68 -475.6 L-89.67 -475.6 L-91.65 -475.6 L-93.64 -475.6 L-95.63 -475.6 L-97.61 -475.6 L-99.6 -475.6 L-101.6 -475.7 L-103.6 -475.7 L-105.6 -475.7 L-107.5 -475.7 L-109.5 -475.7 L-111.5 -475.7 L-113.5 -475.7 L-115.5 -475.7 L-117.5 -475.7 L-119.5 -475.7 L-121.5 -475.7 L-123.4 -475.8 L-125.4 -475.8 L-125.4 -477.7 L-125.4 -479.7 L-125.4 -481.7 L-125.4 -483.7 L-125.4 -485.7 L-125.4 -487.7 L-125.4 -489.7 L-125.4 -491.7 L-125.4 -493.6 L-125.3 -495.6 L-125.3 -497.6 L-125.3 -499.6 L-125.3 -501.6 L-125.3 -503.6 L-125.3 -505.6 L-125.3 -507.6 L-125.3 -509.5 L-125.3 -511.5 L-125.3 -513.5 L-125.3 -515.5 L-125.3 -517.5 L-125.2 -519.5 L-125.2 -521.5 L-125.2 -523.4 L-125.2 -525.4 L-123.2 -525.4 L-121.2 -525.4 L-119.3 -525.4 L-117.3 -525.4 L-115.3 -525.4 L-113.3 -525.4 L-111.3 -525.4 L-109.3 -525.4 L-107.3 -525.4 L-105.3 -525.3 L-103.4 -525.3 L-101.4 -525.3 L-99.39 -525.3 L-97.4 -525.3 L-95.41 -525.3 L-93.43 -525.3 L-91.44 -525.3 L-89.45 -525.3 L-87.47 -525.3 L-85.48 -525.3 L-83.49 -525.3 L-81.5 -525.2 L-79.52 -525.2 L-77.53 -525.2 L-75.54 -525.2 L-75.55 -523.2 L-75.56 -521.2 L-75.57 -519.3 L-75.58 -517.3 L-75.59 -515.3 L-75.59 -513.3 L-75.6 -511.3 L-75.61 -509.3 L-75.62 -507.3 L-75.63 -505.4 L-75.64 -503.4 L-75.65 -501.4 L-75.65 -499.4 L-75.66 -497.4 L-75.67 -495.4 L-75.68 -493.4 L-75.69 -491.4 L-75.7 -489.5 L-75.71 -487.5 L-75.71 -485.5 L-75.72 -483.5 L-75.73 -481.5 L-75.74 -479.5 L-75.75 -477.5 L-75.76 -475.5 Z " />
<path stroke="rgb(0,0,0)" stroke-opacity="0.325" fill="rgb(255,255,255)" fill-opacity="1" d="M224.9 -299.9 L224.8 -297.9 L224.6 -295.9 L224.2 -294 L223.6 -292.1 L222.9 -290.3 L222.1 -288.5 L221.1 -286.8 L220 -285.1 L218.7 -283.6 L217.4 -282.1 L215.9 -280.8 L214.3 -279.6 L212.6 -278.5 L210.9 -277.6 L209.1 -276.8 L207.2 -276.2 L205.3 -275.7 L203.3 -275.3 L201.4 -275.1 L199.4 -275.1 L197.4 -275.2 L195.5 -275.5 L193.5 -276 L191.6 -276.5 L189.8 -277.3 L188 -278.2 L186.3 -279.2 L184.7 -280.3 L183.2 -281.6 L181.8 -283 L180.5 -284.5 L179.3 -286.1 L178.3 -287.8 L177.4 -289.6 L176.6 -291.4 L176 -293.3 L175.6 -295.2 L175.3 -297.1 L175.1 -299.1 L175.1 -301.1 L175.3 -303.1 L175.6 -305 L176.1 -306.9 L176.7 -308.8 L177.5 -310.6 L178.4 -312.4 L179.5 -314.1 L180.6 -315.7 L182 -317.2 L183.4 -318.5 L184.9 -319.8 L186.5 -320.9 L188.2 -321.9 L190 -322.8 L191.8 -323.5 L193.7 -324.1 L195.7 -324.5 L197.6 -324.8 L199.6 -324.9 L201.6 -324.9 L203.6 -324.6 L205.5 -324.3 L207.4 -323.8 L209.3 -323.1 L211.1 -322.3 L212.8 -321.3 L214.5 -320.3 L216 -319 L217.5 -317.7 L218.9 -316.3 L220.1 -314.7 L221.2 -313.1 L222.2 -311.3 L223 -309.5 L223.7 -307.7 L224.2 -305.8 L224.6 -303.8 L224.8 -301.9 L224.9 -299.9 Z " />
<path stroke="rgb(0,0,0)" stroke-opacity="1" fill="rgb(255,255,255)" fill-opacity="1" d="M124.5 -476.3 L122.6 -476.3 L120.6 -476.2 L118.6 -476.2 L116.7 -476.2 L114.7 -476.1 L112.7 -476.1 L110.8 -476.1 L108.8 -476 L106.8 -476 L104.9 -476 L102.9 -475.9 L100.9 -475.9 L98.95 -475.9 L96.99 -475.8 L95.02 -475.8 L93.05 -475.8 L91.08 -475.7 L89.11 -475.7 L87.15 -475.7 L85.18 -475.6 L83.21 -475.6 L81.24 -475.6 L79.27 -475.5 L77.31 -475.5 L75.34 -475.5 L75.3 -477.4 L75.27 -479.4 L75.24 -481.4 L75.2 -483.3 L75.17 -485.3 L75.13 -487.3 L75.1 -489.2 L75.06 -491.2 L75.03 -493.2 L75 -495.1 L74.96 -497.1 L74.93 -499.1 L74.89 -501 L74.86 -503 L74.82 -505 L74.79 -506.9 L74.76 -508.9 L74.72 -510.9 L74.69 -512.8 L74.65 -514.8 L74.62 -516.8 L74.59 -518.7 L74.55 -520.7 L74.52 -522.7 L74.48 -524.7 L76.45 -524.7 L78.42 -524.7 L80.39 -524.8 L82.35 -524.8 L84.32 -524.8 L86.29 -524.9 L88.26 -524.9 L90.23 -524.9 L92.19 -525 L94.16 -525 L96.13 -525 L98.1 -525.1 L100.1 -525.1 L102 -525.1 L104 -525.2 L106 -525.2 L107.9 -525.2 L109.9 -525.3 L111.9 -525.3 L113.8 -525.3 L115.8 -525.4 L117.8 -525.4 L119.7 -525.4 L121.7 -525.5 L123.7 -525.5 L123.7 -523.5 L123.7 -521.6 L123.8 -519.6 L123.8 -517.6 L123.9 -515.7 L123.9 -513.7 L123.9 -511.7 L124 -509.8 L124 -507.8 L124 -505.8 L124.1 -503.9 L124.1 -501.9 L124.1 -499.9 L124.2 -498 L124.2 -496 L124.2 -494 L124.3 -492.1 L124.3 -490.1 L124.3 -488.1 L124.4 -486.2 L124.4 -484.2 L124.4 -482.2 L124.5 -480.2 L124.5 -478.3 L124.5 -476.3 Z " />
<path stroke="rgb(0,0,0)" stroke-opacity="0.325" fill="rgb(255,255,255)" fill-opacity="1" d="M-275.1 -199.9 L-275.2 -197.9 L-275.4 -195.9 L-275.8 -194 L-276.4 -192.1 L-277.1 -190.3 L-277.9 -188.5 L-278.9 -186.8 L-280 -185.1 L-281.3 -183.6 L-282.6 -182.1 L-284.1 -180.8 L-285.7 -179.6 L-287.4 -178.5 L-289.1 -177.6 L-290.9 -176.8 L-292.8 -176.2 L-294.7 -175.7 L-296.7 -175.3 L-298.6 -175.1 L-300.6 -175.1 L-302.6 -175.2 L-304.5 -175.5 L-306.5 -176 L-308.4 -176.5 L-310.2 -177.3 L-312 -178.2 L-313.7 -179.2 L-315.3 -180.3 L-316.8 -181.6 L-318.2 -183 L-319.5 -184.5 L-320.7 -186.1 L-321.7 -187.8 L-322.6 -189.6 L-323.4 -191.4 L-324 -193.3 L-324.4 -195.2 L-324.7 -197.1 L-324.9 -199.1 L-324.9 -201.1 L-324.7 -203.1 L-324.4 -205 L-323.9 -206.9 L-323.3 -208.8 L-322.5 -210.6 L-321.6 -212.4 L-320.5 -214.1 L-319.4 -215.7 L-318 -217.2 L-316.6 -218.5 L-315.1 -219.8 L-313.5 -220.9 L-311.8 -221.9 L-310 -222.8 L-308.2 -223.5 L-306.3 -224.1 L-304.3 -224.5 L-302.4 -224.8 L-300.4 -224.9 L-298.4 -224.9 L-296.4 -224.6 L-294.5 -224.3 L-292.6 -223.8 L-290.7 -223.1 L-288.9 -222.3 L-287.2 -221.3 L-285.5 -220.3 L-284 -219 L-282.5 -217.7 L-281.1 -216.3 L-279.9 -214.7 L-278.8 -213.1 L-277.8 -211.3 L-277 -209.5 L-276.3 -207.7 L-275.8 -205.8 L-275.4 -203.8 L-275.2 -201.9 L-275.1 -199.9 Z " />
<path stroke="rgb(0,0,0)" stroke-opacity="1" fill="rgb(255,255,255)" fill-opacity="1" d="M-375.8 -375.5 L-377.7 -375.6 L-379.7 -375.6 L-381.7 -375.6 L-383.7 -375.6 L-385.7 -375.6 L-387.7 -375.6 L-389.7 -375.6 L-391.7 -375.6 L-393.6 -375.6 L-395.6 -375.6 L-397.6 -375.6 L-399.6 -375.6 L-401.6 -375.7 L-403.6 -375.7 L-405.6 -375.7 L-407.5 -375.7 L-409.5 -375.7 L-411.5 -375.7 L-413.5 -375.7 L-415.5 -375.7 L-417.5 -375.7 L-419.5 -375.7 L-421.5 -375.7 L-423.4 -375.8 L-425.4 -375.8 L-425.4 -377.7 L-425.4 -379.7 L-425.4 -381.7 L-425.4 -383.7 L-425.4 -385.7 L-425.4 -387.7 L-425.4 -389.7 L-425.4 -391.7 L-425.4 -393.6 L-425.3 -395.6 L-425.3 -397.6 L-425.3 -399.6 L-425.3 -401.6 L-425.3 -403.6 L-425.3 -405.6 L-425.3 -407.6 L-425.3 -409.5 L-425.3 -411.5 L-425.3 -413.5 L-425.3 -415.5 L-425.3 -417.5 L-425.2 -419.5 L-425.2 -421.5 L-425.2 -423.4 L-425.2 -425.4 L-423.2 -425.4 L-421.2 -425.4 L-419.3 -425.4 L-417.3 -425.4 L-415.3 -425.4 L-413.3 -425.4 L-411.3 -425.4 L-409.3 -425.4 L-407.3 -425.4 L-405.3 -425.3 L-403.4 -425.3 L-401.4 -425.3 L-399.4 -425.3 L-397.4 -425.3 L-395.4 -425.3 L-393.4 -425.3 L-391.4 -425.3 L-389.5 -425.3 L-387.5 -425.3 L-385.5 -425.3 L-383.5 -425.3 L-381.5 -425.2 L-379.5 -425.2 L-377.5 -425.2 L-375.5 -425.2 L-375.6 -423.2 L-375.6 -421.2 L-375.6 -419.3 L-375.6 -417.3 L-375.6 -415.3 L-375.6 -413.3 L-375.6 -411.3 L-375.6 -409.3 L-375.6 -407.3 L-375.6 -405.4 L-375.6 -403.4 L-375.6 -401.4 L-375.7 -399.4 L-375.7 -397.4 L-375.7 -395.4 L-375.7 -393.4 L-375.7 -391.4 L-375.7 -389.5 L-375.7 -387.5 L-375.7 -385.5 L-375.7 -383.5 L-375.7 -381.5 L-375.7 -379.5 L-375.7 -377.5 L-375.8 -375.5 Z " />
<path stroke="rgb(0,0,0)" stroke-opacity="0.325" fill="rgb(255,255,255)" fill-opacity="1" d="M-75.1 -199.9 L-75.19 -197.9 L-75.43 -195.9 L-75.83 -194 L-76.38 -192.1 L-77.08 -190.3 L-77.93 -188.5 L-78.92 -186.8 L-80.04 -185.1 L-81.28 -183.6 L-82.65 -182.1 L-84.12 -180.8 L-85.69 -179.6 L-87.36 -178.5 L-89.1 -177.6 L-90.92 -176.8 L-92.79 -176.2 L-94.7 -175.7 L-96.65 -175.3 L-98.62 -175.1 L-100.6 -175.1 L-102.6 -175.2 L-104.5 -175.5 L-106.5 -176 L-108.4 -176.5 L-110.2 -177.3 L-112 -178.2 L-113.7 -179.2 L-115.3 -180.3 L-116.8 -181.6 L-118.2 -183 L-119.5 -184.5 L-120.7 -186.1 L-121.7 -187.8 L-122.6 -189.6 L-123.4 -191.4 L-124 -193.3 L-124.4 -195.2 L-124.7 -197.1 L-124.9 -199.1 L-124.9 -201.1 L-124.7 -203.1 L-124.4 -205 L-123.9 -206.9 L-123.3 -208.8 L-122.5 -210.6 L-121.6 -212.4 L-120.5 -214.1 L-119.4 -215.7 L-118 -217.2 L-116.6 -218.5 L-115.1 -219.8 L-113.5 -220.9 L-111.8 -221.9 L-110 -222.8 L-108.2 -223.5 L-106.3 -224.1 L-104.3 -224.5 L-102.4 -224.8 L-100.4 -224.9 L-98.41 -224.9 L-96.44 -224.6 L-94.49 -224.3 L-92.58 -223.8 L-90.71 -223.1 L-88.91 -222.3 L-87.17 -221.3 L-85.52 -220.3 L-83.95 -219 L-82.49 -217.7 L-81.14 -216.3 L-79.91 -214.7 L-78.8 -213.1 L-77.83 -211.3 L-77 -209.5 L-76.31 -207.7 L-75.78 -205.8 L-75.4 -203.8 L-75.17 -201.9 L-75.1 -199.9 Z " />
<path stroke="rgb(0,0,0)" stroke-opacity="1" fill="rgb(255,255,255)" fill-opacity="1" d="M-175.8 -375.5 L-177.7 -375.6 L-179.7 -375.6 L-181.7 -375.6 L-183.7 -375.6 L-185.7 -375.6 L-187.7 -375.6 L-189.7 -375.6 L-191.7 -375.6 L-193.6 -375.6 L-195.6 -375.6 L-197.6 -375.6 L-199.6 -375.6 L-201.6 -375.7 L-203.6 -375.7 L-205.6 -375.7 L-207.5 -375.7 L-209.5 -375.7 L-211.5 -375.7 L-213.5 -375.7 L-215.5 -375.7 L-217.5 -375.7 L-219.5 -375.7 L-221.5 -375.7 L-223.4 -375.8 L-225.4 -375.8 L-225.4 -377.7 L-225.4 -379.7 L-225.4 -381.7 L-225.4 -383.7 L-225.4 -385.7 L-225.4 -387.7 L-225.4 -389.7 L-225.4 -391.7 L-225.4 -393.6 L-225.3 -395.6 L-225.3 -397.6 L-225.3 -399.6 L-225.3 -401.6 L-225.3 -403.6 L-225.3 -405.6 L-225.3 -407.6 L-225.3 -409.5 L-225.3 -411.5 L-225.3 -413.5 L-225.3 -415.5 L-225.3 -417.5 L-225.2 -419.5 L-225.2 -421.5 L-225.2 -423.4 L-225.2 -425.4 L-223.2 -425.4 L-221.2 -425.4 L-219.3 -425.4 L-217.3 -425.4 L-215.3 -425.4 L-213.3 -425.4 L-211.3 -425.4 L-209.3 -425.4 L-207.3 -425.4 L-205.3 -425.3 L-203.4 -425.3 L-201.4 -425.3 L-199.4 -425.3 L-197.4 -425.3 L-195.4 -425.3 L-193.4 -425.3 L-191.4 -425.3 L-189.5 -425.3 L-187.5 -425.3 L-185.5 -425.3 L-183.5 -425.3 L-181.5 -425.2 L-179.5 -425.2 L-177.5 -425.2 L-175.5 -425.2 L-175.6 -423.2 L-175.6 -421.2 L-175.6 -419.3 L-175.6 -417.3 L-175.6 -415.3 L-175.6 -413.3 L-175.6 -411.3 L-175.6 -409.3 L-175.6 -407.3 L-175.6 -405.4 L-175.6 -403.4 L-175.6 -401.4 L-175.7 -399.4 L-175.7 -397.4 L-175.7 -395.4 L-175.7 -393.4 L-175.7 -391.4 L-175.7 -389.5 L-175.7 -387.5 L-175.7 -385.5 L-175.7 -383.5 L-175.7 -381.5 L-175.7 -379.5 L-175.7 -377.5 L-175.8 -375.5 Z " />
<path stroke="rgb(0,0,0)" stroke-opacity="0.325" fill="rgb(255,255,255)" fill-opacity="1" d="M124.9 -199.9 L124.8 -197.9 L124.6 -195.9 L124.2 -194 L123.6 -192.1 L122.9 -190.3 L122.1 -188.5 L121.1 -186.8 L120 -185.1 L118.7 -183.6 L117.4 -182.1 L115.9 -180.8 L114.3 -179.6 L112.6 -178.5 L110.9 -177.6 L109.1 -176.8 L107.2 -176.2 L105.3 -175.7 L103.3 -175.3 L101.4 -175.1 L99.4 -175.1 L97.42 -175.2 L95.46 -175.5 L93.53 -176 L91.64 -176.5 L89.8 -177.3 L88.03 -178.2 L86.33 -179.2 L84.72 -180.3 L83.21 -181.6 L81.8 -183 L80.51 -184.5 L79.34 -186.1 L78.3 -187.8 L77.4 -189.6 L76.64 -191.4 L76.03 -193.3 L75.57 -195.2 L75.27 -197.1 L75.12 -199.1 L75.13 -201.1 L75.29 -203.1 L75.61 -205 L76.09 -206.9 L76.72 -208.8 L77.49 -210.6 L78.41 -212.4 L79.46 -214.1 L80.65 -215.7 L81.95 -217.2 L83.37 -218.5 L84.9 -219.8 L86.52 -220.9 L88.22 -221.9 L90 -222.8 L91.85 -223.5 L93.74 -224.1 L95.68 -224.5 L97.64 -224.8 L99.61 -224.9 L101.6 -224.9 L103.6 -224.6 L105.5 -224.3 L107.4 -223.8 L109.3 -223.1 L111.1 -222.3 L112.8 -221.3 L114.5 -220.3 L116 -219 L117.5 -217.7 L118.9 -216.3 L120.1 -214.7 L121.2 -213.1 L122.2 -211.3 L123 -209.5 L123.7 -207.7 L124.2 -205.8 L124.6 -203.8 L124.8 -201.9 L124.9 -199.9 Z " />
<path stroke="rgb(0,0,0)" stroke-opacity="1" fill="rgb(255,255,255)" fill-opacity="1" d="M24.54 -376.3 L22.57 -376.3 L20.6 -376.2 L18.63 -376.2 L16.66 -376.2 L14.7 -376.1 L12.73 -376.1 L10.76 -376.1 L8.792 -376 L6.825 -376 L4.857 -376 L2.889 -375.9 L0.9209 -375.9 L-1.047 -375.9 L-3.015 -375.8 L-4.983 -375.8 L-6.951 -375.8 L-8.918 -375.7 L-10.89 -375.7 L-12.85 -375.7 L-14.82 -375.6 L-16.79 -375.6 L-18.76 -375.6 L-20.73 -375.5 L-22.69 -375.5 L-24.66 -375.5 L-24.7 -377.4 L-24.73 -379.4 L-24.76 -381.4 L-24.8 -383.3 L-24.83 -385.3 L-24.87 -387.3 L-24.9 -389.2 L-24.94 -391.2 L-24.97 -393.2 L-25 -395.1 L-25.04 -397.1 L-25.07 -399.1 L-25.11 -401 L-25.14 -403 L-25.18 -405 L-25.21 -406.9 L-25.24 -408.9 L-25.28 -410.9 L-25.31 -412.8 L-25.35 -414.8 L-25.38 -416.8 L-25.41 -418.7 L-25.45 -420.7 L-25.48 -422.7 L-25.52 -424.7 L-23.55 -424.7 L-21.58 -424.7 L-19.61 -424.8 L-17.65 -424.8 L-15.68 -424.8 L-13.71 -424.9 L-11.74 -424.9 L-9.774 -424.9 L-7.807 -425 L-5.839 -425 L-3.871 -425 L-1.903 -425.1 L0.06496 -425.1 L2.033 -425.1 L4.001 -425.2 L5.969 -425.2 L7.937 -425.2 L9.904 -425.3 L11.87 -425.3 L13.84 -425.3 L15.81 -425.4 L17.78 -425.4 L19.74 -425.4 L21.71 -425.5 L23.68 -425.5 L23.71 -423.5 L23.75 -421.6 L23.78 -419.6 L23.82 -417.6 L23.85 -415.7 L23.89 -413.7 L23.92 -411.7 L23.95 -409.8 L23.99 -407.8 L24.02 -405.8 L24.06 -403.9 L24.09 -401.9 L24.12 -399.9 L24.16 -398 L24.19 -396 L24.23 -394 L24.26 -392.1 L24.3 -390.1 L24.33 -388.1 L24.36 -386.2 L24.4 -384.2 L24.43 -382.2 L24.47 -380.2 L24.5 -378.3 L24.54 -376.3 Z " />
<path stroke="rgb(0,0,0)" stroke-opacity="0.325" fill="rgb(255,255,255)" fill-opacity="1" d="M324.9 -199.9 L324.8 -197.9 L324.6 -195.9 L324.2 -194 L323.6 -192.1 L322.9 -190.3 L322.1 -188.5 L321.1 -186.8 L320 -185.1 L318.7 -183.6 L317.4 -182.1 L315.9 -180.8 L314.3 -179.6 L312.6 -178.5 L310.9 -177.6 L309.1 -176.8 L307.2 -176.2 L305.3 -175.7 L303.3 -175.3 L301.4 -175.1 L299.4 -175.1 L297.4 -175.2 L295.5 -175.5 L293.5 -176 L291.6 -176.5 L289.8 -177.3 L288 -178.2 L286.3 -179.2 L284.7 -180.3 L283.2 -181.6 L281.8 -183 L280.5 -184.5 L279.3 -186.1 L278.3 -187.8 L277.4 -189.6 L276.6 -191.4 L276 -193.3 L275.6 -195.2 L275.3 -197.1 L275.1 -199.1 L275.1 -201.1 L275.3 -203.1 L275.6 -205 L276.1 -206.9 L276.7 -208.8 L277.5 -210.6 L278.4 -212.4 L279.5 -214.1 L280.6 -215.7 L282 -217.2 L283.4 -218.5 L284.9 -219.8 L286.5 -220.9 L288.2 -221.9 L290 -222.8 L291.8 -223.5 L293.7 -224.1 L295.7 -224.5 L297.6 -224.8 L299.6 -224.9 L301.6 -224.9 L303.6 -224.6 L305.5 -224.3 L307.4 -223.8 L309.3 -223.1 L311.1 -222.3 L312.8 -221.3 L314.5 -220.3 L316 -219 L317.5 -217.7 L318.9 -216.3 L320.1 -214.7 L321.2 -213.1 L322.2 -211.3 L323 -209.5 L323.7 -207.7 L324.2 -205.8 L324.6 -203.8 L324.8 -201.9 L324.9 -199.9 Z " />
<path stroke="rgb(0,0,0)" stroke-opacity="1" fill="rgb(255,255,255)" fill-opacity="1" d="M-475.8 -275.5 L-477.7 -275.6 L-479.7 -275.6 L-481.7 -275.6 L-483.7 -275.6 L-485.7 -275.6 L-487.7 -275.6 L-489.7 -275.6 L-491.7 -275.6 L-493.6 -275.6 L-495.6 -275.6 L-497.6 -275.6 L-499.6 -275.6 L-501.6 -275.7 L-503.6 -275.7 L-505.6 -275.7 L-507.5 -275.7 L-509.5 -275.7 L-511.5 -275.7 L-513.5 -275.7 L-515.5 -275.7 L-517.5 -275.7 L-519.5 -275.7 L-521.5 -275.7 L-523.4 -275.8 L-525.4 -275.8 L-525.4 -277.7 L-525.4 -279.7 L-525.4 -281.7 L-525.4 -283.7 L-525.4 -285.7 L-525.4 -287.7 L-525.4 -289.7 L-525.4 -291.7 L-525.4 -293.6 L-525.3 -295.6 L-525.3 -297.6 L-525.3 -299.6 L-525.3 -301.6 L-525.3 -303.6 L-525.3 -305.6 L-525.3 -307.6 L-525.3 -309.5 L-525.3 -311.5 L-525.3 -313.5 L-525.3 -315.5 L-525.3 -317.5 L-525.2 -319.5 L-525.2 -321.5 L-525.2 -323.4 L-525.2 -325.4 L-523.2 -325.4 L-521.2 -325.4 L-519.3 -325.4 L-517.3 -325.4 L-515.3 -325.4 L-513.3 -325.4 L-511.3 -325.4 L-509.3 -325.4 L-507.3 -325.4 L-505.3 -325.3 L-503.4 -325.3 L-501.4 -325.3 L-499.4 -325.3 L-497.4 -325.3 L-495.4 -325.3 L-493.4 -325.3 L-491.4 -325.3 L-489.5 -325.3 L-487.5 -325.3 L-485.5 -325.3 L-483.5 -325.3 L-481.5 -325.2 L-479.5 -325.2 L-477.5 -325.2 L-475.5 -325.2 L-475.6 -323.2 L-475.6 -321.2 L-475.6 -319.3 L-475.6 -317.3 L-475.6 -315.3 L-475.6 -313.3 L-475.6 -311.3 L-475.6 -309.3 L-475.6 -307.3 L-475.6 -305.4 L-475.6 -303.4 L-475.6 -301.4 L-475.7 -299.4 L-475.7 -297.4 L-475.7 -295.4 L-475.7 -293.4 L-475.7 -291.4 L-475.7 -289.5 L-475.7 -287.5 L-475.7 -285.5 L-475.7 -283.5 L-475.7 -281.5 L-475.7 -279.5 L-475.7 -277.5 L-475.8 -275.5 Z " />
<path stroke="rgb(0,0,0)" stroke-opacity="0.325" fill="rgb(255,255,255)" fill-opacity="1" d="M-175.1 -99.89 L-175.2 -97.91 L-175.4 -95.95 L-175.8 -94.01 L-176.4 -92.11 L-177.1 -90.26 L-177.9 -88.47 L-178.9 -86.75 L-180 -85.12 L-181.3 -83.58 L-182.6 -82.14 L-184.1 -80.82 L-185.7 -79.62 L-187.4 -78.55 L-189.1 -77.61 L-190.9 -76.82 L-192.8 -76.17 L-194.7 -75.67 L-196.7 -75.33 L-198.6 -75.14 L-200.6 -75.11 L-202.6 -75.24 L-204.5 -75.52 L-206.5 -75.96 L-208.4 -76.55 L-210.2 -77.28 L-212 -78.17 L-213.7 -79.19 L-215.3 -80.34 L-216.8 -81.61 L-218.2 -83.01 L-219.5 -84.51 L-220.7 -86.1 L-221.7 -87.79 L-222.6 -89.55 L-223.4 -91.38 L-224 -93.26 L-224.4 -95.19 L-224.7 -97.15 L-224.9 -99.12 L-224.9 -101.1 L-224.7 -103.1 L-224.4 -105 L-223.9 -106.9 L-223.3 -108.8 L-222.5 -110.6 L-221.6 -112.4 L-220.5 -114.1 L-219.4 -115.7 L-218 -117.2 L-216.6 -118.5 L-215.1 -119.8 L-213.5 -120.9 L-211.8 -121.9 L-210 -122.8 L-208.2 -123.5 L-206.3 -124.1 L-204.3 -124.5 L-202.4 -124.8 L-200.4 -124.9 L-198.4 -124.9 L-196.4 -124.6 L-194.5 -124.3 L-192.6 -123.8 L-190.7 -123.1 L-188.9 -122.3 L-187.2 -121.3 L-185.5 -120.3 L-184 -119 L-182.5 -117.7 L-181.1 -116.3 L-179.9 -114.7 L-178.8 -113.1 L-177.8 -111.3 L-177 -109.5 L-176.3 -107.7 L-175.8 -105.8 L-175.4 -103.8 L-175.2 -101.9 L-175.1 -99.89 Z " />
<path stroke="rgb(0,0,0)" stroke-opacity="1" fill="rgb(255,255,255)" fill-opacity="1" d="M-275.8 -275.5 L-277.7 -275.6 L-279.7 -275.6 L-281.7 -275.6 L-283.7 -275.6 L-285.7 -275.6 L-287.7 -275.6 L-289.7 -275.6 L-291.7 -275.6 L-293.6 -275.6 L-295.6 -275.6 L-297.6 -275.6 L-299.6 -275.6 L-301.6 -275.7 L-303.6 -275.7 L-305.6 -275.7 L-307.5 -275.7 L-309.5 -275.7 L-311.5 -275.7 L-313.5 -275.7 L-315.5 -275.7 L-317.5 -275.7 L-319.5 -275.7 L-321.5 -275.7 L-323.4 -275.8 L-325.4 -275.8 L-325.4 -277.7 L-325.4 -279.7 L-325.4 -281.7 L-325.4 -283.7 L-325.4 -285.7 L-325.4 -287.7 L-325.4 -289.7 L-325.4 -291.7 L-325.4 -293.6 L-325.3 -295.6 L-325.3 -297.6 L-325.3 -299.6 L-325.3 -301.6 L-325.3 -303.6 L-325.3 -305.6 L-325.3 -307.6 L-325.3 -309.5 L-325.3 -311.5 L-325.3 -313.5 L-325.3 -315.5 L-325.3 -317.5 L-325.2 -319.5 L-325.2 -321.5 L-325.2 -323.4 L-325.2 -325.4 L-323.2 -325.4 L-321.2 -325.4 L-319.3 -325.4 L-317.3 -325.4 L-315.3 -325.4 L-313.3 -325.4 L-311.3 -325.4 L-309.3 -325.4 L-307.3 -325.4 L-305.3 -325.3 L-303.4 -325.3 L-301.4 -325.3 L-299.4 -325.3 L-297.4 -325.3 L-295.4 -325.3 L-293.4 -325.3 L-291.4 -325.3 L-289.5 -325.3 L-287.5 -325.3 L-285.5 -325.3 L-283.5 -325.3 L-281.5 -325.2 L-279.5 -325.2 L-277.5 -325.2 L-275.5 -325.2 L-275.6 -323.2 L-275.6 -321.2 L-275.6 -319.3 L-275.6 -317.3 L-275.6 -315.3 L-275.6 -313.3 L-275.6 -311.3 L-275.6 -309.3 L-275.6 -307.3 L-275.6 -305.4 L-275.6 -303.4 L-275.6 -301.4 L-275.7 -299.4 L-275.7 -297.4 L-275.7 -295.4 L-275.7 -293.4 L-275.7 -291.4 L-275.7 -289.5 L-275.7 -287.5 L-275.7 -285.5 L-275.7 -283.5 L-275.7 -281.5 L-275.7 -279.5 L-275.7 -277.5 L-275.8 -275.5 Z " />
<path stroke="rgb(0,0,0)" stroke-opacity="0.325" fill="rgb(255,255,255)" fill-opacity="1" d="M24.9 -99.89 L24.81 -97.91 L24.57 -95.95 L24.17 -94.01 L23.62 -92.11 L22.92 -90.26 L22.07 -88.47 L21.08 -86.75 L19.96 -85.12 L18.72 -83.58 L17.35 -82.14 L15.88 -80.82 L14.31 -79.62 L12.64 -78.55 L10.9 -77.61 L9.085 -76.82 L7.214 -76.17 L5.298 -75.67 L3.348 -75.33 L1.377 -75.14 L-0.6025 -75.11 L-2.578 -75.24 L-4.538 -75.52 L-6.469 -75.96 L-8.359 -76.55 L-10.2 -77.28 L-11.97 -78.17 L-13.67 -79.19 L-15.28 -80.34 L-16.79 -81.61 L-18.2 -83.01 L-19.49 -84.51 L-20.66 -86.1 L-21.7 -87.79 L-22.6 -89.55 L-23.36 -91.38 L-23.97 -93.26 L-24.43 -95.19 L-24.73 -97.15 L-24.88 -99.12 L-24.87 -101.1 L-24.71 -103.1 L-24.39 -105 L-23.91 -106.9 L-23.28 -108.8 L-22.51 -110.6 L-21.59 -112.4 L-20.54 -114.1 L-19.35 -115.7 L-18.05 -117.2 L-16.63 -118.5 L-15.1 -119.8 L-13.48 -120.9 L-11.78 -121.9 L-9.997 -122.8 L-8.153 -123.5 L-6.258 -124.1 L-4.324 -124.5 L-2.362 -124.8 L-0.3851 -124.9 L1.594 -124.9 L3.563 -124.6 L5.51 -124.3 L7.422 -123.8 L9.287 -123.1 L11.09 -122.3 L12.83 -121.3 L14.48 -120.3 L16.05 -119 L17.51 -117.7 L18.86 -116.3 L20.09 -114.7 L21.2 -113.1 L22.17 -111.3 L23 -109.5 L23.69 -107.7 L24.22 -105.8 L24.6 -103.8 L24.83 -101.9 L24.9 -99.89 Z " />
<path stroke="rgb(0,0,0)" stroke-opacity="1" fill="rgb(255,255,255)" fill-opacity="1" d="M-75.46 -276.3 L-77.43 -276.3 L-79.4 -276.2 L-81.37 -276.2 L-83.34 -276.2 L-85.3 -276.1 L-87.27 -276.1 L-89.24 -276.1 L-91.21 -276 L-93.18 -276 L-95.14 -276 L-97.11 -275.9 L-99.08 -275.9 L-101 -275.9 L-103 -275.8 L-105 -275.8 L-107 -275.8 L-108.9 -275.7 L-110.9 -275.7 L-112.9 -275.7 L-114.8 -275.6 L-116.8 -275.6 L-118.8 -275.6 L-120.7 -275.5 L-122.7 -275.5 L-124.7 -275.5 L-124.7 -277.4 L-124.7 -279.4 L-124.8 -281.4 L-124.8 -283.3 L-124.8 -285.3 L-124.9 -287.3 L-124.9 -289.2 L-124.9 -291.2 L-125 -293.2 L-125 -295.1 L-125 -297.1 L-125.1 -299.1 L-125.1 -301 L-125.1 -303 L-125.2 -305 L-125.2 -306.9 L-125.2 -308.9 L-125.3 -310.9 L-125.3 -312.8 L-125.3 -314.8 L-125.4 -316.8 L-125.4 -318.7 L-125.4 -320.7 L-125.5 -322.7 L-125.5 -324.7 L-123.5 -324.7 L-121.6 -324.7 L-119.6 -324.8 L-117.6 -324.8 L-115.7 -324.8 L-113.7 -324.9 L-111.7 -324.9 L-109.8 -324.9 L-107.8 -325 L-105.8 -325 L-103.9 -325 L-101.9 -325.1 L-99.94 -325.1 L-97.97 -325.1 L-96 -325.2 L-94.03 -325.2 L-92.06 -325.2 L-90.1 -325.3 L-88.13 -325.3 L-86.16 -325.3 L-84.19 -325.4 L-82.22 -325.4 L-80.26 -325.4 L-78.29 -325.5 L-76.32 -325.5 L-76.29 -323.5 L-76.25 -321.6 L-76.22 -319.6 L-76.18 -317.6 L-76.15 -315.7 L-76.11 -313.7 L-76.08 -311.7 L-76.05 -309.8 L-76.01 -307.8 L-75.98 -305.8 L-75.94 -303.9 L-75.91 -301.9 L-75.88 -299.9 L-75.84 -298 L-75.81 -296 L-75.77 -294 L-75.74 -292.1 L-75.7 -290.1 L-75.67 -288.1 L-75.64 -286.2 L-75.6 -284.2 L-75.57 -282.2 L-75.53 -280.2 L-75.5 -278.3 L-75.46 -276.3 Z " />
<path stroke="rgb(0,0,0)" stroke-opacity="0.325" fill="rgb(255,255,255)" fill-opacity="1" d="M224.9 -99.89 L224.8 -97.91 L224.6 -95.95 L224.2 -94.01 L223.6 -92.11 L222.9 -90.26 L222.1 -88.47 L221.1 -86.75 L220 -85.12 L218.7 -83.58 L217.4 -82.14 L215.9 -80.82 L214.3 -79.62 L212.6 -78.55 L210.9 -77.61 L209.1 -76.82 L207.2 -76.17 L205.3 -75.67 L203.3 -75.33 L201.4 -75.14 L199.4 -75.11 L197.4 -75.24 L195.5 -75.52 L193.5 -75.96 L191.6 -76.55 L189.8 -77.28 L188 -78.17 L186.3 -79.19 L184.7 -80.34 L183.2 -81.61 L181.8 -83.01 L180.5 -84.51 L179.3 -86.1 L178.3 -87.79 L177.4 -89.55 L176.6 -91.38 L176 -93.26 L175.6 -95.19 L175.3 -97.15 L175.1 -99.12 L175.1 -101.1 L175.3 -103.1 L175.6 -105 L176.1 -106.9 L176.7 -108.8 L177.5 -110.6 L178.4 -112.4 L179.5 -114.1 L180.6 -115.7 L182 -117.2 L183.4 -118.5 L184.9 -119.8 L186.5 -120.9 L188.2 -121.9 L190 -122.8 L191.8 -123.5 L193.7 -124.1 L195.7 -124.5 L197.6 -124.8 L199.6 -124.9 L201.6 -124.9 L203.6 -124.6 L205.5 -124.3 L207.4 -123.8 L209.3 -123.1 L211.1 -122.3 L212.8 -121.3 L214.5 -120.3 L216 -119 L217.5 -117.7 L218.9 -116.3 L220.1 -114.7 L221.2 -113.1 L222.2 -111.3 L223 -109.5 L223.7 -107.7 L224.2 -105.8 L224.6 -103.8 L224.8 -101.9 L224.9 -99.89 Z " />
<path stroke="rgb(0,0,0)" stroke-opacity="1" fill="rgb(255,255,255)" fill-opacity="1" d="M126.4 -283.6 L124.7 -283.2 L122.9 -282.8 L121.2 -282.4 L119.4 -282 L117.7 -281.6 L115.9 -281.2 L114.2 -280.8 L112.4 -280.4 L110.7 -280 L108.9 -279.6 L107.2 -279.2 L105.4 -278.8 L103.7 -278.4 L101.9 -278 L100.2 -277.6 L98.45 -277.2 L96.71 -276.7 L94.96 -276.3 L93.21 -275.9 L91.46 -275.5 L89.72 -275.1 L87.97 -274.7 L86.22 -274.3 L84.48 -273.9 L82.73 -273.5 L82.32 -275.2 L81.92 -277 L81.51 -278.7 L81.1 -280.5 L80.7 -282.2 L80.29 -284 L79.89 -285.7 L79.48 -287.5 L79.07 -289.2 L78.67 -291 L78.26 -292.7 L77.86 -294.5 L77.45 -296.2 L77.04 -298 L76.64 -299.7 L76.23 -301.4 L75.83 -303.2 L75.42 -304.9 L75.01 -306.7 L74.61 -308.4 L74.2 -310.2 L73.8 -311.9 L73.39 -313.7 L72.98 -315.4 L72.58 -317.2 L74.32 -317.6 L76.07 -318 L77.82 -318.4 L79.56 -318.8 L81.31 -319.2 L83.06 -319.6 L84.81 -320 L86.55 -320.4 L88.3 -320.8 L90.05 -321.2 L91.79 -321.6 L93.54 -322 L95.29 -322.4 L97.03 -322.9 L98.78 -323.3 L100.5 -323.7 L102.3 -324.1 L104 -324.5 L105.8 -324.9 L107.5 -325.3 L109.3 -325.7 L111 -326.1 L112.8 -326.5 L114.5 -326.9 L116.3 -327.3 L116.7 -325.6 L117.1 -323.8 L117.5 -322.1 L117.9 -320.3 L118.3 -318.6 L118.7 -316.8 L119.1 -315.1 L119.5 -313.3 L119.9 -311.6 L120.3 -309.9 L120.7 -308.1 L121.1 -306.4 L121.5 -304.6 L121.9 -302.9 L122.3 -301.1 L122.7 -299.4 L123.2 -297.6 L123.6 -295.9 L124 -294.1 L124.4 -292.4 L124.8 -290.6 L125.2 -288.9 L125.6 -287.1 L126 -285.4 L126.4 -283.6 Z " />
<path stroke="rgb(0,0,0)" stroke-opacity="0.325" fill="rgb(255,255,255)" fill-opacity="1" d="M-275.1 0.1074 L-275.2 2.085 L-275.4 4.05 L-275.8 5.989 L-276.4 7.89 L-277.1 9.742 L-277.9 11.53 L-278.9 13.25 L-280 14.88 L-281.3 16.42 L-282.6 17.86 L-284.1 19.18 L-285.7 20.38 L-287.4 21.45 L-289.1 22.39 L-290.9 23.18 L-292.8 23.83 L-294.7 24.33 L-296.7 24.67 L-298.6 24.86 L-300.6 24.89 L-302.6 24.76 L-304.5 24.48 L-306.5 24.04 L-308.4 23.45 L-310.2 22.72 L-312 21.83 L-313.7 20.81 L-315.3 19.66 L-316.8 18.39 L-318.2 16.99 L-319.5 15.49 L-320.7 13.9 L-321.7 12.21 L-322.6 10.45 L-323.4 8.62 L-324 6.736 L-324.4 4.81 L-324.7 2.854 L-324.9 0.8799 L-324.9 -1.1 L-324.7 -3.073 L-324.4 -5.026 L-323.9 -6.948 L-323.3 -8.826 L-322.5 -10.65 L-321.6 -12.4 L-320.5 -14.08 L-319.4 -15.67 L-318 -17.15 L-316.6 -18.53 L-315.1 -19.8 L-313.5 -20.93 L-311.8 -21.94 L-310 -22.81 L-308.2 -23.53 L-306.3 -24.1 L-304.3 -24.52 L-302.4 -24.79 L-300.4 -24.9 L-298.4 -24.85 L-296.4 -24.65 L-294.5 -24.28 L-292.6 -23.77 L-290.7 -23.11 L-288.9 -22.29 L-287.2 -21.34 L-285.5 -20.26 L-284 -19.04 L-282.5 -17.71 L-281.1 -16.26 L-279.9 -14.71 L-278.8 -13.07 L-277.8 -11.34 L-277 -9.544 L-276.3 -7.687 L-275.8 -5.781 L-275.4 -3.838 L-275.2 -1.871 L-275.1 0.1074 Z " />
<path stroke="rgb(0,0,0)" stroke-opacity="1" fill="rgb(255,255,255)" fill-opacity="1" d="M-375.8 -175.5 L-377.7 -175.6 L-379.7 -175.6 L-381.7 -175.6 L-383.7 -175.6 L-385.7 -175.6 L-387.7 -175.6 L-389.7 -175.6 L-391.7 -175.6 L-393.6 -175.6 L-395.6 -175.6 L-397.6 -175.6 L-399.6 -175.6 L-401.6 -175.7 L-403.6 -175.7 L-405.6 -175.7 L-407.5 -175.7 L-409.5 -175.7 L-411.5 -175.7 L-413.5 -175.7 L-415.5 -175.7 L-417.5 -175.7 L-419.5 -175.7 L-421.5 -175.7 L-423.4 -175.8 L-425.4 -175.8 L-425.4 -177.7 L-425.4 -179.7 L-425.4 -181.7 L-425.4 -183.7 L-425.4 -185.7 L-425.4 -187.7 L-425.4 -189.7 L-425.4 -191.7 L-425.4 -193.6 L-425.3 -195.6 L-425.3 -197.6 L-425.3 -199.6 L-425.3 -201.6 L-425.3 -203.6 L-425.3 -205.6 L-425.3 -207.6 L-425.3 -209.5 L-425.3 -211.5 L-425.3 -213.5 L-425.3 -215.5 L-425.3 -217.5 L-425.2 -219.5 L-425.2 -221.5 L-425.2 -223.4 L-425.2 -225.4 L-423.2 -225.4 L-421.2 -225.4 L-419.3 -225.4 L-417.3 -225.4 L-415.3 -225.4 L-413.3 -225.4 L-411.3 -225.4 L-409.3 -225.4 L-407.3 -225.4 L-405.3 -225.3 L-403.4 -225.3 L-401.4 -225.3 L-399.4 -225.3 L-397.4 -225.3 L-395.4 -225.3 L-393.4 -225.3 L-391.4 -225.3 L-389.5 -225.3 L-387.5 -225.3 L-385.5 -225.3 L-383.5 -225.3 L-381.5 -225.2 L-379.5 -225.2 L-377.5 -225.2 L-375.5 -225.2 L-375.6 -223.2 L-375.6 -221.2 L-375.6 -219.3 L-375.6 -217.3 L-375.6 -215.3 L-375.6 -213.3 L-375.6 -211.3 L-375.6 -209.3 L-375.6 -207.3 L-375.6 -205.4 L-375.6 -203.4 L-375.6 -201.4 L-375.7 -199.4 L-375.7 -197.4 L-375.7 -195.4 L-375.7 -193.4 L-375.7 -191.4 L-375.7 -189.5 L-375.7 -187.5 L-375.7 -185.5 L-375.7 -183.5 L-375.7 -181.5 L-375.7 -179.5 L-375.7 -177.5 L-375.8 -175.5 Z " />
<path stroke="rgb(0,0,0)" stroke-opacity="0.325" fill="rgb(255,255,255)" fill-opacity="1" d="M-75.1 0.1074 L-75.19 2.085 L-75.43 4.05 L-75.83 5.989 L-76.38 7.89 L-77.08 9.742 L-77.93 11.53 L-78.92 13.25 L-80.04 14.88 L-81.28 16.42 L-82.65 17.86 L-84.12 19.18 L-85.69 20.38 L-87.36 21.45 L-89.1 22.39 L-90.92 23.18 L-92.79 23.83 L-94.7 24.33 L-96.65 24.67 L-98.62 24.86 L-100.6 24.89 L-102.6 24.76 L-104.5 24.48 L-106.5 24.04 L-108.4 23.45 L-110.2 22.72 L-112 21.83 L-113.7 20.81 L-115.3 19.66 L-116.8 18.39 L-118.2 16.99 L-119.5 15.49 L-120.7 13.9 L-121.7 12.21 L-122.6 10.45 L-123.4 8.62 L-124 6.736 L-124.4 4.81 L-124.7 2.854 L-124.9 0.8799 L-124.9 -1.1 L-124.7 -3.073 L-124.4 -5.026 L-123.9 -6.948 L-123.3 -8.826 L-122.5 -10.65 L-121.6 -12.4 L-120.5 -14.08 L-119.4 -15.67 L-118 -17.15 L-116.6 -18.53 L-115.1 -19.8 L-113.5 -20.93 L-111.8 -21.94 L-110 -22.81 L-108.2 -23.53 L-106.3 -24.1 L-104.3 -24.52 L-102.4 -24.79 L-100.4 -24.9 L-98.41 -24.85 L-96.44 -24.65 L-94.49 -24.28 L-92.58 -23.77 L-90.71 -23.11 L-88.91 -22.29 L-87.17 -21.34 L-85.52 -20.26 L-83.95 -19.04 L-82.49 -17.71 L-81.14 -16.26 L-79.91 -14.71 L-78.8 -13.07 L-77.83 -11.34 L-77 -9.544 L-76.31 -7.687 L-75.78 -5.781 L-75.4 -3.838 L-75.17 -1.871 L-75.1 0.1074 Z " />
<path stroke="rgb(0,0,0)" stroke-opacity="1" fill="rgb(255,255,255)" fill-opacity="1" d="M-175.5 -176.3 L-177.4 -176.3 L-179.4 -176.2 L-181.4 -176.2 L-183.3 -176.2 L-185.3 -176.1 L-187.3 -176.1 L-189.2 -176.1 L-191.2 -176 L-193.2 -176 L-195.1 -176 L-197.1 -175.9 L-199.1 -175.9 L-201 -175.9 L-203 -175.8 L-205 -175.8 L-207 -175.8 L-208.9 -175.7 L-210.9 -175.7 L-212.9 -175.7 L-214.8 -175.6 L-216.8 -175.6 L-218.8 -175.6 L-220.7 -175.5 L-222.7 -175.5 L-224.7 -175.5 L-224.7 -177.4 L-224.7 -179.4 L-224.8 -181.4 L-224.8 -183.3 L-224.8 -185.3 L-224.9 -187.3 L-224.9 -189.2 L-224.9 -191.2 L-225 -193.2 L-225 -195.1 L-225 -197.1 L-225.1 -199.1 L-225.1 -201 L-225.1 -203 L-225.2 -205 L-225.2 -206.9 L-225.2 -208.9 L-225.3 -210.9 L-225.3 -212.8 L-225.3 -214.8 L-225.4 -216.8 L-225.4 -218.7 L-225.4 -220.7 L-225.5 -222.7 L-225.5 -224.7 L-223.5 -224.7 L-221.6 -224.7 L-219.6 -224.8 L-217.6 -224.8 L-215.7 -224.8 L-213.7 -224.9 L-211.7 -224.9 L-209.8 -224.9 L-207.8 -225 L-205.8 -225 L-203.9 -225 L-201.9 -225.1 L-199.9 -225.1 L-198 -225.1 L-196 -225.2 L-194 -225.2 L-192.1 -225.2 L-190.1 -225.3 L-188.1 -225.3 L-186.2 -225.3 L-184.2 -225.4 L-182.2 -225.4 L-180.3 -225.4 L-178.3 -225.5 L-176.3 -225.5 L-176.3 -223.5 L-176.3 -221.6 L-176.2 -219.6 L-176.2 -217.6 L-176.1 -215.7 L-176.1 -213.7 L-176.1 -211.7 L-176 -209.8 L-176 -207.8 L-176 -205.8 L-175.9 -203.9 L-175.9 -201.9 L-175.9 -199.9 L-175.8 -198 L-175.8 -196 L-175.8 -194 L-175.7 -192.1 L-175.7 -190.1 L-175.7 -188.1 L-175.6 -186.2 L-175.6 -184.2 L-175.6 -182.2 L-175.5 -180.2 L-175.5 -178.3 L-175.5 -176.3 Z " />
<path stroke="rgb(0,0,0)" stroke-opacity="0.325" fill="rgb(255,255,255)" fill-opacity="1" d="M124.9 0.1074 L124.8 2.085 L124.6 4.05 L124.2 5.989 L123.6 7.89 L122.9 9.742 L122.1 11.53 L121.1 13.25 L120 14.88 L118.7 16.42 L117.4 17.86 L115.9 19.18 L114.3 20.38 L112.6 21.45 L110.9 22.39 L109.1 23.18 L107.2 23.83 L105.3 24.33 L103.3 24.67 L101.4 24.86 L99.4 24.89 L97.42 24.76 L95.46 24.48 L93.53 24.04 L91.64 23.45 L89.8 22.72 L88.03 21.83 L86.33 20.81 L84.72 19.66 L83.21 18.39 L81.8 16.99 L80.51 15.49 L79.34 13.9 L78.3 12.21 L77.4 10.45 L76.64 8.62 L76.03 6.736 L75.57 4.81 L75.27 2.854 L75.12 0.8799 L75.13 -1.1 L75.29 -3.073 L75.61 -5.026 L76.09 -6.948 L76.72 -8.826 L77.49 -10.65 L78.41 -12.4 L79.46 -14.08 L80.65 -15.67 L81.95 -17.15 L83.37 -18.53 L84.9 -19.8 L86.52 -20.93 L88.22 -21.94 L90 -22.81 L91.85 -23.53 L93.74 -24.1 L95.68 -24.52 L97.64 -24.79 L99.61 -24.9 L101.6 -24.85 L103.6 -24.65 L105.5 -24.28 L107.4 -23.77 L109.3 -23.11 L111.1 -22.29 L112.8 -21.34 L114.5 -20.26 L116 -19.04 L117.5 -17.71 L118.9 -16.26 L120.1 -14.71 L121.2 -13.07 L122.2 -11.34 L123 -9.544 L123.7 -7.687 L124.2 -5.781 L124.6 -3.838 L124.8 -1.871 L124.9 0.1074 Z " />
<path stroke="rgb(0,0,0)" stroke-opacity="1" fill="rgb(255,255,255)" fill-opacity="1" d="M26.4 -183.6 L24.66 -183.2 L22.91 -182.8 L21.16 -182.4 L19.42 -182 L17.67 -181.6 L15.92 -181.2 L14.17 -180.8 L12.43 -180.4 L10.68 -180 L8.934 -179.6 L7.187 -179.2 L5.44 -178.8 L3.693 -178.4 L1.946 -178 L0.1991 -177.6 L-1.548 -177.2 L-3.295 -176.7 L-5.042 -176.3 L-6.789 -175.9 L-8.536 -175.5 L-10.28 -175.1 L-12.03 -174.7 L-13.78 -174.3 L-15.52 -173.9 L-17.27 -173.5 L-17.68 -175.2 L-18.08 -177 L-18.49 -178.7 L-18.9 -180.5 L-19.3 -182.2 L-19.71 -184 L-20.11 -185.7 L-20.52 -187.5 L-20.93 -189.2 L-21.33 -191 L-21.74 -192.7 L-22.14 -194.5 L-22.55 -196.2 L-22.96 -198 L-23.36 -199.7 L-23.77 -201.4 L-24.17 -203.2 L-24.58 -204.9 L-24.99 -206.7 L-25.39 -208.4 L-25.8 -210.2 L-26.2 -211.9 L-26.61 -213.7 L-27.02 -215.4 L-27.42 -217.2 L-25.68 -217.6 L-23.93 -218 L-22.18 -218.4 L-20.44 -218.8 L-18.69 -219.2 L-16.94 -219.6 L-15.19 -220 L-13.45 -220.4 L-11.7 -220.8 L-9.953 -221.2 L-8.206 -221.6 L-6.459 -222 L-4.712 -222.4 L-2.965 -222.9 L-1.218 -223.3 L0.5286 -223.7 L2.276 -224.1 L4.023 -224.5 L5.769 -224.9 L7.516 -225.3 L9.263 -225.7 L11.01 -226.1 L12.76 -226.5 L14.5 -226.9 L16.25 -227.3 L16.66 -225.6 L17.06 -223.8 L17.47 -222.1 L17.88 -220.3 L18.28 -218.6 L18.69 -216.8 L19.09 -215.1 L19.5 -213.3 L19.91 -211.6 L20.31 -209.9 L20.72 -208.1 L21.12 -206.4 L21.53 -204.6 L21.94 -202.9 L22.34 -201.1 L22.75 -199.4 L23.16 -197.6 L23.56 -195.9 L23.97 -194.1 L24.37 -192.4 L24.78 -190.6 L25.19 -188.9 L25.59 -187.1 L26 -185.4 L26.4 -183.6 Z " />
<path stroke="rgb(0,0,0)" stroke-opacity="0.325" fill="rgb(255,255,255)" fill-opacity="1" d="M324.9 0.1074 L324.8 2.085 L324.6 4.05 L324.2 5.989 L323.6 7.89 L322.9 9.742 L322.1 11.53 L321.1 13.25 L320 14.88 L318.7 16.42 L317.4 17.86 L315.9 19.18 L314.3 20.38 L312.6 21.45 L310.9 22.39 L309.1 23.18 L307.2 23.83 L305.3 24.33 L303.3 24.67 L301.4 24.86 L299.4 24.89 L297.4 24.76 L295.5 24.48 L293.5 24.04 L291.6 23.45 L289.8 22.72 L288 21.83 L286.3 20.81 L284.7 19.66 L283.2 18.39 L281.8 16.99 L280.5 15.49 L279.3 13.9 L278.3 12.21 L277.4 10.45 L276.6 8.62 L276 6.736 L275.6 4.81 L275.3 2.854 L275.1 0.8799 L275.1 -1.1 L275.3 -3.073 L275.6 -5.026 L276.1 -6.948 L276.7 -8.826 L277.5 -10.65 L278.4 -12.4 L279.5 -14.08 L280.6 -15.67 L282 -17.15 L283.4 -18.53 L284.9 -19.8 L286.5 -20.93 L288.2 -21.94 L290 -22.81 L291.8 -23.53 L293.7 -24.1 L295.7 -24.52 L297.6 -24.79 L299.6 -24.9 L301.6 -24.85 L303.6 -24.65 L305.5 -24.28 L307.4 -23.77 L309.3 -23.11 L311.1 -22.29 L312.8 -21.34 L314.5 -20.26 L316 -19.04 L317.5 -17.71 L318.9 -16.26 L320.1 -14.71 L321.2 -13.07 L322.2 -11.34 L323 -9.544 L323.7 -7.687 L324.2 -5.781 L324.6 -3.838 L324.8 -1.871 L324.9 0.1074 Z " />
<path stroke="rgb(0,0,0)" stroke-opacity="1" fill="rgb(255,255,255)" fill-opacity="1" d="M-475.8 -75.55 L-477.7 -75.55 L-479.7 -75.56 L-481.7 -75.57 L-483.7 -75.58 L-485.7 -75.59 L-487.7 -75.6 L-489.7 -75.6 L-491.7 -75.61 L-493.6 -75.62 L-495.6 -75.63 L-497.6 -75.64 L-499.6 -75.65 L-501.6 -75.66 L-503.6 -75.66 L-505.6 -75.67 L-507.5 -75.68 L-509.5 -75.69 L-511.5 -75.7 L-513.5 -75.71 L-515.5 -75.72 L-517.5 -75.72 L-519.5 -75.73 L-521.5 -75.74 L-523.4 -75.75 L-525.4 -75.76 L-525.4 -77.75 L-525.4 -79.73 L-525.4 -81.72 L-525.4 -83.71 L-525.4 -85.69 L-525.4 -87.68 L-525.4 -89.67 L-525.4 -91.66 L-525.4 -93.64 L-525.3 -95.63 L-525.3 -97.62 L-525.3 -99.6 L-525.3 -101.6 L-525.3 -103.6 L-525.3 -105.6 L-525.3 -107.6 L-525.3 -109.5 L-525.3 -111.5 L-525.3 -113.5 L-525.3 -115.5 L-525.3 -117.5 L-525.2 -119.5 L-525.2 -121.5 L-525.2 -123.4 L-525.2 -125.4 L-523.2 -125.4 L-521.2 -125.4 L-519.3 -125.4 L-517.3 -125.4 L-515.3 -125.4 L-513.3 -125.4 L-511.3 -125.4 L-509.3 -125.4 L-507.3 -125.4 L-505.3 -125.3 L-503.4 -125.3 L-501.4 -125.3 L-499.4 -125.3 L-497.4 -125.3 L-495.4 -125.3 L-493.4 -125.3 L-491.4 -125.3 L-489.5 -125.3 L-487.5 -125.3 L-485.5 -125.3 L-483.5 -125.3 L-481.5 -125.2 L-479.5 -125.2 L-477.5 -125.2 L-475.5 -125.2 L-475.6 -123.2 L-475.6 -121.2 L-475.6 -119.3 L-475.6 -117.3 L-475.6 -115.3 L-475.6 -113.3 L-475.6 -111.3 L-475.6 -109.3 L-475.6 -107.3 L-475.6 -105.4 L-475.6 -103.4 L-475.6 -101.4 L-475.7 -99.39 L-475.7 -97.4 L-475.7 -95.42 L-475.7 -93.43 L-475.7 -91.44 L-475.7 -89.45 L-475.7 -87.47 L-475.7 -85.48 L-475.7 -83.49 L-475.7 -81.51 L-475.7 -79.52 L-475.7 -77.53 L-475.8 -75.55 Z " />
<path stroke="rgb(0,0,0)" stroke-opacity="0.325" fill="rgb(255,255,255)" fill-opacity="1" d="M-175.1 100.1 L-175.2 102.1 L-175.4 104.1 L-175.8 106 L-176.4 107.9 L-177.1 109.7 L-177.9 111.5 L-178.9 113.2 L-180 114.9 L-181.3 116.4 L-182.6 117.9 L-184.1 119.2 L-185.7 120.4 L-187.4 121.5 L-189.1 122.4 L-190.9 123.2 L-192.8 123.8 L-194.7 124.3 L-196.7 124.7 L-198.6 124.9 L-200.6 124.9 L-202.6 124.8 L-204.5 124.5 L-206.5 124 L-208.4 123.5 L-210.2 122.7 L-212 121.8 L-213.7 120.8 L-215.3 119.7 L-216.8 118.4 L-218.2 117 L-219.5 115.5 L-220.7 113.9 L-221.7 112.2 L-222.6 110.4 L-223.4 108.6 L-224 106.7 L-224.4 104.8 L-224.7 102.9 L-224.9 100.9 L-224.9 98.9 L-224.7 96.93 L-224.4 94.97 L-223.9 93.05 L-223.3 91.17 L-222.5 89.35 L-221.6 87.6 L-220.5 85.92 L-219.4 84.33 L-218 82.85 L-216.6 81.47 L-215.1 80.2 L-213.5 79.07 L-211.8 78.06 L-210 77.19 L-208.2 76.47 L-206.3 75.9 L-204.3 75.48 L-202.4 75.21 L-200.4 75.1 L-198.4 75.15 L-196.4 75.35 L-194.5 75.72 L-192.6 76.23 L-190.7 76.89 L-188.9 77.71 L-187.2 78.66 L-185.5 79.74 L-184 80.96 L-182.5 82.29 L-181.1 83.74 L-179.9 85.29 L-178.8 86.93 L-177.8 88.66 L-177 90.46 L-176.3 92.31 L-175.8 94.22 L-175.4 96.16 L-175.2 98.13 L-175.1 100.1 Z " />
<path stroke="rgb(0,0,0)" stroke-opacity="1" fill="rgb(255,255,255)" fill-opacity="1" d="M-275.5 -76.31 L-277.4 -76.28 L-279.4 -76.24 L-281.4 -76.21 L-283.3 -76.17 L-285.3 -76.14 L-287.3 -76.11 L-289.2 -76.07 L-291.2 -76.04 L-293.2 -76 L-295.1 -75.97 L-297.1 -75.94 L-299.1 -75.9 L-301 -75.87 L-303 -75.83 L-305 -75.8 L-307 -75.76 L-308.9 -75.73 L-310.9 -75.7 L-312.9 -75.66 L-314.8 -75.63 L-316.8 -75.59 L-318.8 -75.56 L-320.7 -75.52 L-322.7 -75.49 L-324.7 -75.46 L-324.7 -77.42 L-324.7 -79.39 L-324.8 -81.36 L-324.8 -83.33 L-324.8 -85.3 L-324.9 -87.26 L-324.9 -89.23 L-324.9 -91.2 L-325 -93.17 L-325 -95.13 L-325 -97.1 L-325.1 -99.07 L-325.1 -101 L-325.1 -103 L-325.2 -105 L-325.2 -106.9 L-325.2 -108.9 L-325.3 -110.9 L-325.3 -112.8 L-325.3 -114.8 L-325.4 -116.8 L-325.4 -118.7 L-325.4 -120.7 L-325.5 -122.7 L-325.5 -124.7 L-323.5 -124.7 L-321.6 -124.7 L-319.6 -124.8 L-317.6 -124.8 L-315.7 -124.8 L-313.7 -124.9 L-311.7 -124.9 L-309.8 -124.9 L-307.8 -125 L-305.8 -125 L-303.9 -125 L-301.9 -125.1 L-299.9 -125.1 L-298 -125.1 L-296 -125.2 L-294 -125.2 L-292.1 -125.2 L-290.1 -125.3 L-288.1 -125.3 L-286.2 -125.3 L-284.2 -125.4 L-282.2 -125.4 L-280.3 -125.4 L-278.3 -125.5 L-276.3 -125.5 L-276.3 -123.5 L-276.3 -121.6 L-276.2 -119.6 L-276.2 -117.6 L-276.1 -115.7 L-276.1 -113.7 L-276.1 -111.7 L-276 -109.8 L-276 -107.8 L-276 -105.8 L-275.9 -103.9 L-275.9 -101.9 L-275.9 -99.93 L-275.8 -97.96 L-275.8 -95.99 L-275.8 -94.02 L-275.7 -92.06 L-275.7 -90.09 L-275.7 -88.12 L-275.6 -86.15 L-275.6 -84.18 L-275.6 -82.22 L-275.5 -80.25 L-275.5 -78.28 L-275.5 -76.31 Z " />
<path stroke="rgb(0,0,0)" stroke-opacity="0.325" fill="rgb(255,255,255)" fill-opacity="1" d="M24.9 100.1 L24.81 102.1 L24.57 104.1 L24.17 106 L23.62 107.9 L22.92 109.7 L22.07 111.5 L21.08 113.2 L19.96 114.9 L18.72 116.4 L17.35 117.9 L15.88 119.2 L14.31 120.4 L12.64 121.5 L10.9 122.4 L9.085 123.2 L7.214 123.8 L5.298 124.3 L3.348 124.7 L1.377 124.9 L-0.6025 124.9 L-2.578 124.8 L-4.538 124.5 L-6.469 124 L-8.359 123.5 L-10.2 122.7 L-11.97 121.8 L-13.67 120.8 L-15.28 119.7 L-16.79 118.4 L-18.2 117 L-19.49 115.5 L-20.66 113.9 L-21.7 112.2 L-22.6 110.4 L-23.36 108.6 L-23.97 106.7 L-24.43 104.8 L-24.73 102.9 L-24.88 100.9 L-24.87 98.9 L-24.71 96.93 L-24.39 94.97 L-23.91 93.05 L-23.28 91.17 L-22.51 89.35 L-21.59 87.6 L-20.54 85.92 L-19.35 84.33 L-18.05 82.85 L-16.63 81.47 L-15.1 80.2 L-13.48 79.07 L-11.78 78.06 L-9.997 77.19 L-8.153 76.47 L-6.258 75.9 L-4.324 75.48 L-2.362 75.21 L-0.3851 75.1 L1.594 75.15 L3.563 75.35 L5.51 75.72 L7.422 76.23 L9.287 76.89 L11.09 77.71 L12.83 78.66 L14.48 79.74 L16.05 80.96 L17.51 82.29 L18.86 83.74 L20.09 85.29 L21.2 86.93 L22.17 88.66 L23 90.46 L23.69 92.31 L24.22 94.22 L24.6 96.16 L24.83 98.13 L24.9 100.1 Z " />
<path stroke="rgb(0,0,0)" stroke-opacity="1" fill="rgb(255,255,255)" fill-opacity="1" d="M-73.6 -83.65 L-75.34 -83.24 L-77.09 -82.84 L-78.84 -82.43 L-80.58 -82.02 L-82.33 -81.62 L-84.08 -81.21 L-85.83 -80.81 L-87.57 -80.4 L-89.32 -79.99 L-91.07 -79.59 L-92.81 -79.18 L-94.56 -78.77 L-96.31 -78.37 L-98.05 -77.96 L-99.8 -77.56 L-101.5 -77.15 L-103.3 -76.74 L-105 -76.34 L-106.8 -75.93 L-108.5 -75.53 L-110.3 -75.12 L-112 -74.71 L-113.8 -74.31 L-115.5 -73.9 L-117.3 -73.5 L-117.7 -75.24 L-118.1 -76.99 L-118.5 -78.74 L-118.9 -80.48 L-119.3 -82.23 L-119.7 -83.98 L-120.1 -85.72 L-120.5 -87.47 L-120.9 -89.22 L-121.3 -90.97 L-121.7 -92.71 L-122.1 -94.46 L-122.5 -96.21 L-123 -97.95 L-123.4 -99.7 L-123.8 -101.4 L-124.2 -103.2 L-124.6 -104.9 L-125 -106.7 L-125.4 -108.4 L-125.8 -110.2 L-126.2 -111.9 L-126.6 -113.7 L-127 -115.4 L-127.4 -117.2 L-125.7 -117.6 L-123.9 -118 L-122.2 -118.4 L-120.4 -118.8 L-118.7 -119.2 L-116.9 -119.6 L-115.2 -120 L-113.4 -120.4 L-111.7 -120.8 L-110 -121.2 L-108.2 -121.6 L-106.5 -122 L-104.7 -122.4 L-103 -122.9 L-101.2 -123.3 L-99.47 -123.7 L-97.72 -124.1 L-95.98 -124.5 L-94.23 -124.9 L-92.48 -125.3 L-90.74 -125.7 L-88.99 -126.1 L-87.24 -126.5 L-85.5 -126.9 L-83.75 -127.3 L-83.34 -125.6 L-82.94 -123.8 L-82.53 -122.1 L-82.12 -120.3 L-81.72 -118.6 L-81.31 -116.8 L-80.91 -115.1 L-80.5 -113.3 L-80.09 -111.6 L-79.69 -109.9 L-79.28 -108.1 L-78.88 -106.4 L-78.47 -104.6 L-78.06 -102.9 L-77.66 -101.1 L-77.25 -99.37 L-76.84 -97.62 L-76.44 -95.88 L-76.03 -94.13 L-75.63 -92.38 L-75.22 -90.64 L-74.81 -88.89 L-74.41 -87.14 L-74 -85.4 L-73.6 -83.65 Z " />
<path stroke="rgb(0,0,0)" stroke-opacity="0.325" fill="rgb(255,255,255)" fill-opacity="1" d="M224.9 100.1 L224.8 102.1 L224.6 104.1 L224.2 106 L223.6 107.9 L222.9 109.7 L222.1 111.5 L221.1 113.2 L220 114.9 L218.7 116.4 L217.4 117.9 L215.9 119.2 L214.3 120.4 L212.6 121.5 L210.9 122.4 L209.1 123.2 L207.2 123.8 L205.3 124.3 L203.3 124.7 L201.4 124.9 L199.4 124.9 L197.4 124.8 L195.5 124.5 L193.5 124 L191.6 123.5 L189.8 122.7 L188 121.8 L186.3 120.8 L184.7 119.7 L183.2 118.4 L181.8 117 L180.5 115.5 L179.3 113.9 L178.3 112.2 L177.4 110.4 L176.6 108.6 L176 106.7 L175.6 104.8 L175.3 102.9 L175.1 100.9 L175.1 98.9 L175.3 96.93 L175.6 94.97 L176.1 93.05 L176.7 91.17 L177.5 89.35 L178.4 87.6 L179.5 85.92 L180.6 84.33 L182 82.85 L183.4 81.47 L184.9 80.2 L186.5 79.07 L188.2 78.06 L190 77.19 L191.8 76.47 L193.7 75.9 L195.7 75.48 L197.6 75.21 L199.6 75.1 L201.6 75.15 L203.6 75.35 L205.5 75.72 L207.4 76.23 L209.3 76.89 L211.1 77.71 L212.8 78.66 L214.5 79.74 L216 80.96 L217.5 82.29 L218.9 83.74 L220.1 85.29 L221.2 86.93 L222.2 88.66 L223 90.46 L223.7 92.31 L224.2 94.22 L224.6 96.16 L224.8 98.13 L224.9 100.1 Z " />
<path stroke="rgb(0,0,0)" stroke-opacity="1" fill="rgb(255,255,255)" fill-opacity="1" d="M123.6 -101.8 L122.7 -100.8 L121.8 -99.75 L120.9 -98.73 L120 -97.7 L119.1 -96.68 L118.2 -95.65 L117.3 -94.63 L116.4 -93.6 L115.5 -92.58 L114.6 -91.55 L113.7 -90.53 L112.8 -89.5 L111.9 -88.48 L111 -87.45 L110.1 -86.42 L109.2 -85.4 L108.3 -84.37 L107.4 -83.35 L106.5 -82.32 L105.6 -81.3 L104.7 -80.27 L103.8 -79.25 L102.9 -78.22 L102 -77.2 L101.1 -76.17 L100.1 -77.07 L99.04 -77.97 L98.02 -78.87 L96.99 -79.77 L95.97 -80.67 L94.94 -81.57 L93.92 -82.47 L92.89 -83.37 L91.87 -84.27 L90.84 -85.17 L89.82 -86.06 L88.79 -86.96 L87.77 -87.86 L86.74 -88.76 L85.72 -89.66 L84.69 -90.56 L83.67 -91.46 L82.64 -92.36 L81.62 -93.26 L80.59 -94.16 L79.56 -95.06 L78.54 -95.96 L77.51 -96.85 L76.49 -97.75 L75.46 -98.65 L76.36 -99.68 L77.26 -100.7 L78.16 -101.7 L79.06 -102.8 L79.96 -103.8 L80.86 -104.8 L81.76 -105.8 L82.66 -106.9 L83.56 -107.9 L84.46 -108.9 L85.36 -109.9 L86.25 -111 L87.15 -112 L88.05 -113 L88.95 -114 L89.85 -115.1 L90.75 -116.1 L91.65 -117.1 L92.55 -118.1 L93.45 -119.2 L94.35 -120.2 L95.25 -121.2 L96.15 -122.2 L97.04 -123.3 L97.94 -124.3 L98.97 -123.4 L99.99 -122.5 L101 -121.6 L102 -120.7 L103.1 -119.8 L104.1 -118.9 L105.1 -118 L106.1 -117.1 L107.2 -116.2 L108.2 -115.3 L109.2 -114.4 L110.2 -113.5 L111.3 -112.6 L112.3 -111.7 L113.3 -110.8 L114.3 -109.9 L115.4 -109 L116.4 -108.1 L117.4 -107.2 L118.4 -106.3 L119.5 -105.4 L120.5 -104.5 L121.5 -103.6 L122.5 -102.7 L123.6 -101.8 Z " />
<path stroke="rgb(0,0,0)" stroke-opacity="0.325" fill="rgb(255,255,255)" fill-opacity="1" d="M-275.1 200.1 L-275.2 202.1 L-275.4 204.1 L-275.8 206 L-276.4 207.9 L-277.1 209.7 L-277.9 211.5 L-278.9 213.2 L-280 214.9 L-281.3 216.4 L-282.6 217.9 L-284.1 219.2 L-285.7 220.4 L-287.4 221.5 L-289.1 222.4 L-290.9 223.2 L-292.8 223.8 L-294.7 224.3 L-296.7 224.7 L-298.6 224.9 L-300.6 224.9 L-302.6 224.8 L-304.5 224.5 L-306.5 224 L-308.4 223.5 L-310.2 222.7 L-312 221.8 L-313.7 220.8 L-315.3 219.7 L-316.8 218.4 L-318.2 217 L-319.5 215.5 L-320.7 213.9 L-321.7 212.2 L-322.6 210.4 L-323.4 208.6 L-324 206.7 L-324.4 204.8 L-324.7 202.9 L-324.9 200.9 L-324.9 198.9 L-324.7 196.9 L-324.4 195 L-323.9 193.1 L-323.3 191.2 L-322.5 189.4 L-321.6 187.6 L-320.5 185.9 L-319.4 184.3 L-318 182.8 L-316.6 181.5 L-315.1 180.2 L-313.5 179.1 L-311.8 178.1 L-310 177.2 L-308.2 176.5 L-306.3 175.9 L-304.3 175.5 L-302.4 175.2 L-300.4 175.1 L-298.4 175.1 L-296.4 175.4 L-294.5 175.7 L-292.6 176.2 L-290.7 176.9 L-288.9 177.7 L-287.2 178.7 L-285.5 179.7 L-284 181 L-282.5 182.3 L-281.1 183.7 L-279.9 185.3 L-278.8 186.9 L-277.8 188.7 L-277 190.5 L-276.3 192.3 L-275.8 194.2 L-275.4 196.2 L-275.2 198.1 L-275.1 200.1 Z " />
<path stroke="rgb(0,0,0)" stroke-opacity="1" fill="rgb(255,255,255)" fill-opacity="1" d="M-375.5 23.69 L-377.4 23.72 L-379.4 23.76 L-381.4 23.79 L-383.3 23.83 L-385.3 23.86 L-387.3 23.89 L-389.2 23.93 L-391.2 23.96 L-393.2 24 L-395.1 24.03 L-397.1 24.06 L-399.1 24.1 L-401 24.13 L-403 24.17 L-405 24.2 L-407 24.24 L-408.9 24.27 L-410.9 24.3 L-412.9 24.34 L-414.8 24.37 L-416.8 24.41 L-418.8 24.44 L-420.7 24.48 L-422.7 24.51 L-424.7 24.54 L-424.7 22.58 L-424.7 20.61 L-424.8 18.64 L-424.8 16.67 L-424.8 14.7 L-424.9 12.74 L-424.9 10.77 L-424.9 8.801 L-425 6.833 L-425 4.865 L-425 2.897 L-425.1 0.9294 L-425.1 -1.038 L-425.1 -3.006 L-425.2 -4.974 L-425.2 -6.942 L-425.2 -8.91 L-425.3 -10.88 L-425.3 -12.85 L-425.3 -14.81 L-425.4 -16.78 L-425.4 -18.75 L-425.4 -20.72 L-425.5 -22.69 L-425.5 -24.65 L-423.5 -24.69 L-421.6 -24.72 L-419.6 -24.76 L-417.6 -24.79 L-415.7 -24.82 L-413.7 -24.86 L-411.7 -24.89 L-409.8 -24.93 L-407.8 -24.96 L-405.8 -25 L-403.9 -25.03 L-401.9 -25.06 L-399.9 -25.1 L-398 -25.13 L-396 -25.17 L-394 -25.2 L-392.1 -25.24 L-390.1 -25.27 L-388.1 -25.3 L-386.2 -25.34 L-384.2 -25.37 L-382.2 -25.41 L-380.3 -25.44 L-378.3 -25.47 L-376.3 -25.51 L-376.3 -23.54 L-376.3 -21.57 L-376.2 -19.61 L-376.2 -17.64 L-376.1 -15.67 L-376.1 -13.7 L-376.1 -11.73 L-376 -9.766 L-376 -7.798 L-376 -5.83 L-375.9 -3.862 L-375.9 -1.894 L-375.9 0.07343 L-375.8 2.041 L-375.8 4.009 L-375.8 5.977 L-375.7 7.945 L-375.7 9.913 L-375.7 11.88 L-375.6 13.85 L-375.6 15.82 L-375.6 17.78 L-375.5 19.75 L-375.5 21.72 L-375.5 23.69 Z " />
<path stroke="rgb(0,0,0)" stroke-opacity="0.325" fill="rgb(255,255,255)" fill-opacity="1" d="M-75.1 200.1 L-75.19 202.1 L-75.43 204.1 L-75.83 206 L-76.38 207.9 L-77.08 209.7 L-77.93 211.5 L-78.92 213.2 L-80.04 214.9 L-81.28 216.4 L-82.65 217.9 L-84.12 219.2 L-85.69 220.4 L-87.36 221.5 L-89.1 222.4 L-90.92 223.2 L-92.79 223.8 L-94.7 224.3 L-96.65 224.7 L-98.62 224.9 L-100.6 224.9 L-102.6 224.8 L-104.5 224.5 L-106.5 224 L-108.4 223.5 L-110.2 222.7 L-112 221.8 L-113.7 220.8 L-115.3 219.7 L-116.8 218.4 L-118.2 217 L-119.5 215.5 L-120.7 213.9 L-121.7 212.2 L-122.6 210.4 L-123.4 208.6 L-124 206.7 L-124.4 204.8 L-124.7 202.9 L-124.9 200.9 L-124.9 198.9 L-124.7 196.9 L-124.4 195 L-123.9 193.1 L-123.3 191.2 L-122.5 189.4 L-121.6 187.6 L-120.5 185.9 L-119.4 184.3 L-118 182.8 L-116.6 181.5 L-115.1 180.2 L-113.5 179.1 L-111.8 178.1 L-110 177.2 L-108.2 176.5 L-106.3 175.9 L-104.3 175.5 L-102.4 175.2 L-100.4 175.1 L-98.41 175.1 L-96.44 175.4 L-94.49 175.7 L-92.58 176.2 L-90.71 176.9 L-88.91 177.7 L-87.17 178.7 L-85.52 179.7 L-83.95 181 L-82.49 182.3 L-81.14 183.7 L-79.91 185.3 L-78.8 186.9 L-77.83 188.7 L-77 190.5 L-76.31 192.3 L-75.78 194.2 L-75.4 196.2 L-75.17 198.1 L-75.1 200.1 Z " />
<path stroke="rgb(0,0,0)" stroke-opacity="1" fill="rgb(255,255,255)" fill-opacity="1" d="M-173.6 16.35 L-175.3 16.76 L-177.1 17.16 L-178.8 17.57 L-180.6 17.98 L-182.3 18.38 L-184.1 18.79 L-185.8 19.19 L-187.6 19.6 L-189.3 20.01 L-191.1 20.41 L-192.8 20.82 L-194.6 21.23 L-196.3 21.63 L-198.1 22.04 L-199.8 22.44 L-201.5 22.85 L-203.3 23.26 L-205 23.66 L-206.8 24.07 L-208.5 24.47 L-210.3 24.88 L-212 25.29 L-213.8 25.69 L-215.5 26.1 L-217.3 26.5 L-217.7 24.76 L-218.1 23.01 L-218.5 21.26 L-218.9 19.52 L-219.3 17.77 L-219.7 16.02 L-220.1 14.28 L-220.5 12.53 L-220.9 10.78 L-221.3 9.034 L-221.7 7.288 L-222.1 5.541 L-222.5 3.794 L-223 2.047 L-223.4 0.2996 L-223.8 -1.447 L-224.2 -3.194 L-224.6 -4.941 L-225 -6.688 L-225.4 -8.435 L-225.8 -10.18 L-226.2 -11.93 L-226.6 -13.68 L-227 -15.42 L-227.4 -17.17 L-225.7 -17.58 L-223.9 -17.98 L-222.2 -18.39 L-220.4 -18.79 L-218.7 -19.2 L-216.9 -19.61 L-215.2 -20.01 L-213.4 -20.42 L-211.7 -20.83 L-210 -21.23 L-208.2 -21.64 L-206.5 -22.04 L-204.7 -22.45 L-203 -22.86 L-201.2 -23.26 L-199.5 -23.67 L-197.7 -24.07 L-196 -24.48 L-194.2 -24.89 L-192.5 -25.29 L-190.7 -25.7 L-189 -26.1 L-187.2 -26.51 L-185.5 -26.92 L-183.7 -27.32 L-183.3 -25.58 L-182.9 -23.83 L-182.5 -22.08 L-182.1 -20.33 L-181.7 -18.59 L-181.3 -16.84 L-180.9 -15.09 L-180.5 -13.35 L-180.1 -11.6 L-179.7 -9.853 L-179.3 -8.106 L-178.9 -6.359 L-178.5 -4.612 L-178.1 -2.865 L-177.7 -1.118 L-177.3 0.6291 L-176.8 2.376 L-176.4 4.123 L-176 5.87 L-175.6 7.617 L-175.2 9.364 L-174.8 11.11 L-174.4 12.86 L-174 14.6 L-173.6 16.35 Z " />
<path stroke="rgb(0,0,0)" stroke-opacity="0.325" fill="rgb(255,255,255)" fill-opacity="1" d="M124.9 200.1 L124.8 202.1 L124.6 204.1 L124.2 206 L123.6 207.9 L122.9 209.7 L122.1 211.5 L121.1 213.2 L120 214.9 L118.7 216.4 L117.4 217.9 L115.9 219.2 L114.3 220.4 L112.6 221.5 L110.9 222.4 L109.1 223.2 L107.2 223.8 L105.3 224.3 L103.3 224.7 L101.4 224.9 L99.4 224.9 L97.42 224.8 L95.46 224.5 L93.53 224 L91.64 223.5 L89.8 222.7 L88.03 221.8 L86.33 220.8 L84.72 219.7 L83.21 218.4 L81.8 217 L80.51 215.5 L79.34 213.9 L78.3 212.2 L77.4 210.4 L76.64 208.6 L76.03 206.7 L75.57 204.8 L75.27 202.9 L75.12 200.9 L75.13 198.9 L75.29 196.9 L75.61 195 L76.09 193.1 L76.72 191.2 L77.49 189.4 L78.41 187.6 L79.46 185.9 L80.65 184.3 L81.95 182.8 L83.37 181.5 L84.9 180.2 L86.52 179.1 L88.22 178.1 L90 177.2 L91.85 176.5 L93.74 175.9 L95.68 175.5 L97.64 175.2 L99.61 175.1 L101.6 175.1 L103.6 175.4 L105.5 175.7 L107.4 176.2 L109.3 176.9 L111.1 177.7 L112.8 178.7 L114.5 179.7 L116 181 L117.5 182.3 L118.9 183.7 L120.1 185.3 L121.2 186.9 L122.2 188.7 L123 190.5 L123.7 192.3 L124.2 194.2 L124.6 196.2 L124.8 198.1 L124.9 200.1 Z " />
<path stroke="rgb(0,0,0)" stroke-opacity="1" fill="rgb(255,255,255)" fill-opacity="1" d="M23.57 -1.803 L22.67 -0.7773 L21.77 0.2478 L20.88 1.273 L19.98 2.298 L19.08 3.323 L18.18 4.349 L17.28 5.374 L16.38 6.399 L15.48 7.424 L14.58 8.449 L13.68 9.474 L12.78 10.5 L11.88 11.52 L10.98 12.55 L10.09 13.58 L9.186 14.6 L8.287 15.63 L7.388 16.65 L6.489 17.68 L5.589 18.7 L4.69 19.73 L3.791 20.75 L2.892 21.78 L1.993 22.8 L1.094 23.83 L0.06836 22.93 L-0.9568 22.03 L-1.982 21.13 L-3.007 20.23 L-4.032 19.33 L-5.057 18.43 L-6.083 17.53 L-7.108 16.63 L-8.133 15.73 L-9.158 14.83 L-10.18 13.94 L-11.21 13.04 L-12.23 12.14 L-13.26 11.24 L-14.28 10.34 L-15.31 9.44 L-16.33 8.541 L-17.36 7.642 L-18.38 6.742 L-19.41 5.843 L-20.44 4.944 L-21.46 4.045 L-22.49 3.146 L-23.51 2.246 L-24.54 1.347 L-23.64 0.3221 L-22.74 -0.7031 L-21.84 -1.728 L-20.94 -2.753 L-20.04 -3.779 L-19.14 -4.804 L-18.24 -5.829 L-17.34 -6.854 L-16.44 -7.879 L-15.54 -8.904 L-14.64 -9.93 L-13.75 -10.95 L-12.85 -11.98 L-11.95 -13.01 L-11.05 -14.03 L-10.15 -15.06 L-9.25 -16.08 L-8.351 -17.11 L-7.451 -18.13 L-6.552 -19.16 L-5.653 -20.18 L-4.754 -21.21 L-3.855 -22.23 L-2.955 -23.26 L-2.056 -24.28 L-1.031 -23.38 L-0.005928 -22.48 L1.019 -21.58 L2.044 -20.69 L3.07 -19.79 L4.095 -18.89 L5.12 -17.99 L6.145 -17.09 L7.17 -16.19 L8.195 -15.29 L9.221 -14.39 L10.25 -13.49 L11.27 -12.59 L12.3 -11.69 L13.32 -10.79 L14.35 -9.895 L15.37 -8.996 L16.4 -8.097 L17.42 -7.198 L18.45 -6.298 L19.47 -5.399 L20.5 -4.5 L21.52 -3.601 L22.55 -2.702 L23.57 -1.803 Z " />
<path stroke="rgb(0,0,0)" stroke-opacity="0.325" fill="rgb(255,255,255)" fill-opacity="1" d="M324.9 200.1 L324.8 202.1 L324.6 204.1 L324.2 206 L323.6 207.9 L322.9 209.7 L322.1 211.5 L321.1 213.2 L320 214.9 L318.7 216.4 L317.4 217.9 L315.9 219.2 L314.3 220.4 L312.6 221.5 L310.9 222.4 L309.1 223.2 L307.2 223.8 L305.3 224.3 L303.3 224.7 L301.4 224.9 L299.4 224.9 L297.4 224.8 L295.5 224.5 L293.5 224 L291.6 223.5 L289.8 222.7 L288 221.8 L286.3 220.8 L284.7 219.7 L283.2 218.4 L281.8 217 L280.5 215.5 L279.3 213.9 L278.3 212.2 L277.4 210.4 L276.6 208.6 L276 206.7 L275.6 204.8 L275.3 202.9 L275.1 200.9 L275.1 198.9 L275.3 196.9 L275.6 195 L276.1 193.1 L276.7 191.2 L277.5 189.4 L278.4 187.6 L279.5 185.9 L280.6 184.3 L282 182.8 L283.4 181.5 L284.9 180.2 L286.5 179.1 L288.2 178.1 L290 177.2 L291.8 176.5 L293.7 175.9 L295.7 175.5 L297.6 175.2 L299.6 175.1 L301.6 175.1 L303.6 175.4 L305.5 175.7 L307.4 176.2 L309.3 176.9 L311.1 177.7 L312.8 178.7 L314.5 179.7 L316 181 L317.5 182.3 L318.9 183.7 L320.1 185.3 L321.2 186.9 L322.2 188.7 L323 190.5 L323.7 192.3 L324.2 194.2 L324.6 196.2 L324.8 198.1 L324.9 200.1 Z " />
<path stroke="rgb(0,0,0)" stroke-opacity="1" fill="rgb(255,255,255)" fill-opacity="1" d="M-475.5 123.7 L-477.4 123.7 L-479.4 123.8 L-481.4 123.8 L-483.3 123.8 L-485.3 123.9 L-487.3 123.9 L-489.2 123.9 L-491.2 124 L-493.2 124 L-495.1 124 L-497.1 124.1 L-499.1 124.1 L-501 124.1 L-503 124.2 L-505 124.2 L-507 124.2 L-508.9 124.3 L-510.9 124.3 L-512.9 124.3 L-514.8 124.4 L-516.8 124.4 L-518.8 124.4 L-520.7 124.5 L-522.7 124.5 L-524.7 124.5 L-524.7 122.6 L-524.7 120.6 L-524.8 118.6 L-524.8 116.7 L-524.8 114.7 L-524.9 112.7 L-524.9 110.8 L-524.9 108.8 L-525 106.8 L-525 104.9 L-525 102.9 L-525.1 100.9 L-525.1 98.96 L-525.1 96.99 L-525.2 95.03 L-525.2 93.06 L-525.2 91.09 L-525.3 89.12 L-525.3 87.15 L-525.3 85.19 L-525.4 83.22 L-525.4 81.25 L-525.4 79.28 L-525.5 77.31 L-525.5 75.35 L-523.5 75.31 L-521.6 75.28 L-519.6 75.24 L-517.6 75.21 L-515.7 75.18 L-513.7 75.14 L-511.7 75.11 L-509.8 75.07 L-507.8 75.04 L-505.8 75 L-503.9 74.97 L-501.9 74.94 L-499.9 74.9 L-498 74.87 L-496 74.83 L-494 74.8 L-492.1 74.76 L-490.1 74.73 L-488.1 74.7 L-486.2 74.66 L-484.2 74.63 L-482.2 74.59 L-480.3 74.56 L-478.3 74.53 L-476.3 74.49 L-476.3 76.46 L-476.3 78.43 L-476.2 80.39 L-476.2 82.36 L-476.1 84.33 L-476.1 86.3 L-476.1 88.27 L-476 90.23 L-476 92.2 L-476 94.17 L-475.9 96.14 L-475.9 98.11 L-475.9 100.1 L-475.8 102 L-475.8 104 L-475.8 106 L-475.7 107.9 L-475.7 109.9 L-475.7 111.9 L-475.6 113.8 L-475.6 115.8 L-475.6 117.8 L-475.5 119.8 L-475.5 121.7 L-475.5 123.7 Z " />
<path stroke="rgb(0,0,0)" stroke-opacity="0.325" fill="rgb(255,255,255)" fill-opacity="1" d="M-175.1 300.1 L-175.2 302.1 L-175.4 304.1 L-175.8 306 L-176.4 307.9 L-177.1 309.7 L-177.9 311.5 L-178.9 313.2 L-180 314.9 L-181.3 316.4 L-182.6 317.9 L-184.1 319.2 L-185.7 320.4 L-187.4 321.5 L-189.1 322.4 L-190.9 323.2 L-192.8 323.8 L-194.7 324.3 L-196.7 324.7 L-198.6 324.9 L-200.6 324.9 L-202.6 324.8 L-204.5 324.5 L-206.5 324 L-208.4 323.5 L-210.2 322.7 L-212 321.8 L-213.7 320.8 L-215.3 319.7 L-216.8 318.4 L-218.2 317 L-219.5 315.5 L-220.7 313.9 L-221.7 312.2 L-222.6 310.4 L-223.4 308.6 L-224 306.7 L-224.4 304.8 L-224.7 302.9 L-224.9 300.9 L-224.9 298.9 L-224.7 296.9 L-224.4 295 L-223.9 293.1 L-223.3 291.2 L-222.5 289.4 L-221.6 287.6 L-220.5 285.9 L-219.4 284.3 L-218 282.8 L-216.6 281.5 L-215.1 280.2 L-213.5 279.1 L-211.8 278.1 L-210 277.2 L-208.2 276.5 L-206.3 275.9 L-204.3 275.5 L-202.4 275.2 L-200.4 275.1 L-198.4 275.1 L-196.4 275.4 L-194.5 275.7 L-192.6 276.2 L-190.7 276.9 L-188.9 277.7 L-187.2 278.7 L-185.5 279.7 L-184 281 L-182.5 282.3 L-181.1 283.7 L-179.9 285.3 L-178.8 286.9 L-177.8 288.7 L-177 290.5 L-176.3 292.3 L-175.8 294.2 L-175.4 296.2 L-175.2 298.1 L-175.1 300.1 Z " />
<path stroke="rgb(0,0,0)" stroke-opacity="1" fill="rgb(255,255,255)" fill-opacity="1" d="M-273.6 116.4 L-275.3 116.8 L-277.1 117.2 L-278.8 117.6 L-280.6 118 L-282.3 118.4 L-284.1 118.8 L-285.8 119.2 L-287.6 119.6 L-289.3 120 L-291.1 120.4 L-292.8 120.8 L-294.6 121.2 L-296.3 121.6 L-298.1 122 L-299.8 122.4 L-301.5 122.8 L-303.3 123.3 L-305 123.7 L-306.8 124.1 L-308.5 124.5 L-310.3 124.9 L-312 125.3 L-313.8 125.7 L-315.5 126.1 L-317.3 126.5 L-317.7 124.8 L-318.1 123 L-318.5 121.3 L-318.9 119.5 L-319.3 117.8 L-319.7 116 L-320.1 114.3 L-320.5 112.5 L-320.9 110.8 L-321.3 109 L-321.7 107.3 L-322.1 105.5 L-322.5 103.8 L-323 102 L-323.4 100.3 L-323.8 98.55 L-324.2 96.81 L-324.6 95.06 L-325 93.31 L-325.4 91.56 L-325.8 89.82 L-326.2 88.07 L-326.6 86.32 L-327 84.58 L-327.4 82.83 L-325.7 82.42 L-323.9 82.02 L-322.2 81.61 L-320.4 81.21 L-318.7 80.8 L-316.9 80.39 L-315.2 79.99 L-313.4 79.58 L-311.7 79.17 L-310 78.77 L-308.2 78.36 L-306.5 77.96 L-304.7 77.55 L-303 77.14 L-301.2 76.74 L-299.5 76.33 L-297.7 75.93 L-296 75.52 L-294.2 75.11 L-292.5 74.71 L-290.7 74.3 L-289 73.9 L-287.2 73.49 L-285.5 73.08 L-283.7 72.68 L-283.3 74.42 L-282.9 76.17 L-282.5 77.92 L-282.1 79.67 L-281.7 81.41 L-281.3 83.16 L-280.9 84.91 L-280.5 86.65 L-280.1 88.4 L-279.7 90.15 L-279.3 91.89 L-278.9 93.64 L-278.5 95.39 L-278.1 97.14 L-277.7 98.88 L-277.3 100.6 L-276.8 102.4 L-276.4 104.1 L-276 105.9 L-275.6 107.6 L-275.2 109.4 L-274.8 111.1 L-274.4 112.9 L-274 114.6 L-273.6 116.4 Z " />
<path stroke="rgb(0,0,0)" stroke-opacity="0.325" fill="rgb(255,255,255)" fill-opacity="1" d="M24.9 300.1 L24.81 302.1 L24.57 304.1 L24.17 306 L23.62 307.9 L22.92 309.7 L22.07 311.5 L21.08 313.2 L19.96 314.9 L18.72 316.4 L17.35 317.9 L15.88 319.2 L14.31 320.4 L12.64 321.5 L10.9 322.4 L9.085 323.2 L7.214 323.8 L5.298 324.3 L3.348 324.7 L1.377 324.9 L-0.6025 324.9 L-2.578 324.8 L-4.538 324.5 L-6.469 324 L-8.359 323.5 L-10.2 322.7 L-11.97 321.8 L-13.67 320.8 L-15.28 319.7 L-16.79 318.4 L-18.2 317 L-19.49 315.5 L-20.66 313.9 L-21.7 312.2 L-22.6 310.4 L-23.36 308.6 L-23.97 306.7 L-24.43 304.8 L-24.73 302.9 L-24.88 300.9 L-24.87 298.9 L-24.71 296.9 L-24.39 295 L-23.91 293.1 L-23.28 291.2 L-22.51 289.4 L-21.59 287.6 L-20.54 285.9 L-19.35 284.3 L-18.05 282.8 L-16.63 281.5 L-15.1 280.2 L-13.48 279.1 L-11.78 278.1 L-9.997 277.2 L-8.153 276.5 L-6.258 275.9 L-4.324 275.5 L-2.362 275.2 L-0.3851 275.1 L1.594 275.1 L3.563 275.4 L5.51 275.7 L7.422 276.2 L9.287 276.9 L11.09 277.7 L12.83 278.7 L14.48 279.7 L16.05 281 L17.51 282.3 L18.86 283.7 L20.09 285.3 L21.2 286.9 L22.17 288.7 L23 290.5 L23.69 292.3 L24.22 294.2 L24.6 296.2 L24.83 298.1 L24.9 300.1 Z " />
<path stroke="rgb(0,0,0)" stroke-opacity="1" fill="rgb(255,255,255)" fill-opacity="1" d="M-76.43 98.2 L-77.33 99.22 L-78.23 100.2 L-79.12 101.3 L-80.02 102.3 L-80.92 103.3 L-81.82 104.3 L-82.72 105.4 L-83.62 106.4 L-84.52 107.4 L-85.42 108.4 L-86.32 109.5 L-87.22 110.5 L-88.12 111.5 L-89.02 112.5 L-89.91 113.6 L-90.81 114.6 L-91.71 115.6 L-92.61 116.7 L-93.51 117.7 L-94.41 118.7 L-95.31 119.7 L-96.21 120.8 L-97.11 121.8 L-98.01 122.8 L-98.91 123.8 L-99.93 122.9 L-101 122 L-102 121.1 L-103 120.2 L-104 119.3 L-105.1 118.4 L-106.1 117.5 L-107.1 116.6 L-108.1 115.7 L-109.2 114.8 L-110.2 113.9 L-111.2 113 L-112.2 112.1 L-113.3 111.2 L-114.3 110.3 L-115.3 109.4 L-116.3 108.5 L-117.4 107.6 L-118.4 106.7 L-119.4 105.8 L-120.4 104.9 L-121.5 104 L-122.5 103.1 L-123.5 102.2 L-124.5 101.3 L-123.6 100.3 L-122.7 99.3 L-121.8 98.27 L-120.9 97.25 L-120 96.22 L-119.1 95.2 L-118.2 94.17 L-117.3 93.15 L-116.4 92.12 L-115.5 91.1 L-114.6 90.07 L-113.7 89.05 L-112.8 88.02 L-111.9 86.99 L-111 85.97 L-110.1 84.94 L-109.2 83.92 L-108.4 82.89 L-107.5 81.87 L-106.6 80.84 L-105.7 79.82 L-104.8 78.79 L-103.9 77.77 L-103 76.74 L-102.1 75.72 L-101 76.62 L-100 77.52 L-98.98 78.42 L-97.96 79.31 L-96.93 80.21 L-95.91 81.11 L-94.88 82.01 L-93.85 82.91 L-92.83 83.81 L-91.8 84.71 L-90.78 85.61 L-89.75 86.51 L-88.73 87.41 L-87.7 88.31 L-86.68 89.21 L-85.65 90.1 L-84.63 91 L-83.6 91.9 L-82.58 92.8 L-81.55 93.7 L-80.53 94.6 L-79.5 95.5 L-78.48 96.4 L-77.45 97.3 L-76.43 98.2 Z " />
<path stroke="rgb(0,0,0)" stroke-opacity="0.325" fill="rgb(255,255,255)" fill-opacity="1" d="M224.9 300.1 L224.8 302.1 L224.6 304.1 L224.2 306 L223.6 307.9 L222.9 309.7 L222.1 311.5 L221.1 313.2 L220 314.9 L218.7 316.4 L217.4 317.9 L215.9 319.2 L214.3 320.4 L212.6 321.5 L210.9 322.4 L209.1 323.2 L207.2 323.8 L205.3 324.3 L203.3 324.7 L201.4 324.9 L199.4 324.9 L197.4 324.8 L195.5 324.5 L193.5 324 L191.6 323.5 L189.8 322.7 L188 321.8 L186.3 320.8 L184.7 319.7 L183.2 318.4 L181.8 317 L180.5 315.5 L179.3 313.9 L178.3 312.2 L177.4 310.4 L176.6 308.6 L176 306.7 L175.6 304.8 L175.3 302.9 L175.1 300.9 L175.1 298.9 L175.3 296.9 L175.6 295 L176.1 293.1 L176.7 291.2 L177.5 289.4 L178.4 287.6 L179.5 285.9 L180.6 284.3 L182 282.8 L183.4 281.5 L184.9 280.2 L186.5 279.1 L188.2 278.1 L190 277.2 L191.8 276.5 L193.7 275.9 L195.7 275.5 L197.6 275.2 L199.6 275.1 L201.6 275.1 L203.6 275.4 L205.5 275.7 L207.4 276.2 L209.3 276.9 L211.1 277.7 L212.8 278.7 L214.5 279.7 L216 281 L217.5 282.3 L218.9 283.7 L220.1 285.3 L221.2 286.9 L222.2 288.7 L223 290.5 L223.7 292.3 L224.2 294.2 L224.6 296.2 L224.8 298.1 L224.9 300.1 Z " />
<path stroke="rgb(0,0,0)" stroke-opacity="1" fill="rgb(255,255,255)" fill-opacity="1" d="M115.2 89.03 L115 90.09 L114.8 91.15 L114.6 92.2 L114.4 93.26 L114.2 94.32 L114.1 95.37 L113.9 96.43 L113.7 97.49 L113.5 98.55 L113.3 99.6 L113.1 100.7 L112.9 101.7 L112.7 102.8 L112.5 103.8 L112.3 104.9 L112.2 105.9 L112 107 L111.8 108.1 L111.6 109.1 L111.4 110.2 L111.2 111.2 L111 112.3 L110.8 113.3 L110.6 114.4 L110.4 115.5 L109.4 115.3 L108.3 115.1 L107.3 114.9 L106.2 114.7 L105.1 114.5 L104.1 114.3 L103 114.1 L102 113.9 L100.9 113.7 L99.86 113.6 L98.81 113.4 L97.75 113.2 L96.69 113 L95.63 112.8 L94.58 112.6 L93.52 112.4 L92.46 112.2 L91.41 112 L90.35 111.8 L89.29 111.7 L88.23 111.5 L87.18 111.3 L86.12 111.1 L85.06 110.9 L84 110.7 L84.2 109.6 L84.39 108.6 L84.58 107.5 L84.77 106.5 L84.96 105.4 L85.15 104.4 L85.34 103.3 L85.53 102.2 L85.72 101.2 L85.91 100.1 L86.1 99.07 L86.29 98.01 L86.48 96.95 L86.67 95.9 L86.86 94.84 L87.05 93.78 L87.24 92.72 L87.44 91.67 L87.63 90.61 L87.82 89.55 L88.01 88.5 L88.2 87.44 L88.39 86.38 L88.58 85.32 L88.77 84.27 L89.83 84.46 L90.88 84.65 L91.94 84.84 L93 85.03 L94.06 85.22 L95.11 85.41 L96.17 85.6 L97.23 85.79 L98.28 85.98 L99.34 86.17 L100.4 86.36 L101.5 86.55 L102.5 86.74 L103.6 86.93 L104.6 87.13 L105.7 87.32 L106.7 87.51 L107.8 87.7 L108.9 87.89 L109.9 88.08 L111 88.27 L112 88.46 L113.1 88.65 L114.1 88.84 L115.2 89.03 Z " />
</g>
</g>
</svg>
