<!DOCTYPE svg>
<svg xmlns="http://www.w3.org/2000/svg" xmlns:xlink="http://www.w3.org/1999/xlink" width="1000" height="1000">
<g transform="translate(500.000000,500.000000)">
<g transform="scale(3.000000,3.000000)">
<path stroke="rgb(0,0,0)" stroke-opacity="1" fill="rgb(255,255,255)" fill-opacity="1" d="M-412.5 -412.6 L-411.5 -412.6 L-410.5 -412.6 L-409.5 -412.6 L-408.5 -412.6 L-407.5 -412.6 L-406.6 -412.6 L-405.6 -412.6 L-404.6 -412.6 L-403.6 -412.6 L-402.6 -412.6 L-401.6 -412.6 L-400.6 -412.6 L-399.6 -412.6 L-398.6 -412.6 L-397.6 -412.6 L-396.6 -412.6 L-395.6 -412.6 L-394.6 -412.6 L-393.6 -412.5 L-392.6 -412.5 L-391.6 -412.5 L-390.6 -412.5 L-389.6 -412.5 L-388.6 -412.5 L-387.6 -412.5 L-387.6 -411.5 L-387.6 -410.5 L-387.6 -409.5 L-387.6 -408.5 L-387.6 -407.5 L-387.7 -406.6 L-387.7 -405.6 L-387.7 -404.6 L-387.7 -403.6 L-387.7 -402.6 L-387.7 -401.6 L-387.7 -400.6 L-387.7 -399.6 L-387.7 -398.6 L-387.7 -397.6 L-387.7 -396.6 L-387.7 -395.6 L-387.7 -394.6 L-387.7 -393.6 L-387.7 -392.6 L-387.7 -391.6 L-387.7 -390.6 L-387.7 -389.6 L-387.7 -388.6 L-387.7 -387.6 L-388.7 -387.6 L-389.7 -387.6 L-390.7 -387.6 L-391.7 -387.6 L-392.7 -387.6 L-393.7 -387.7 L-394.7 -387.7 L-395.7 -387.7 L-396.7 -387.7 L-397.7 -387.7 L-398.7 -387.7 L-399.7 -387.7 L-400.7 -387.7 L-401.7 -387.7 L-402.7 -387.7 L-403.7 -387.7 L-404.6 -387.7 L-405.6 -387.7 L-406.6 -387.7 L-407.6 -387.7 L-408.6 -387.7 L-409.6 -387.7 L-410.6 -387.7 L-411.6 -387.7 L-412.6 -387.7 L-412.6 -388.7 L-412.6 -389.7 L-412.6 -390.7 L-412.6 -391.7 L-412.6 -392.7 L-412.6 -393.7 L-412.6 -394.7 L-412.6 -395.7 L-412.6 -396.7 L-412.6 -397.7 L-412.6 -398.7 L-412.6 -399.7 L-412.6 -400.7 L-412.6 -401.7 L-412.6 -402.7 L-412.6 -403.6 L-412.6 -404.6 L-412.6 -405.6 L-412.5 -406.6 L-412.5 -407.6 L-412.5 -408.6 L-412.5 -409.6 L-412.5 -410.6 L-412.5 -411.6 L-412.5 -412.6 Z " />
<path stroke="rgb(0,0,0)" stroke-opacity="0.949" fill="rgb(255,255,255)" fill-opacity="1" d="M-175 -299.9 L-175.1 -298 L-175.4 -296 L-175.8 -294.1 L-176.3 -292.1 L-177 -290.3 L-177.9 -288.5 L-178.8 -286.8 L-180 -285.1 L-181.2 -283.6 L-182.6 -282.1 L-184 -280.8 L-185.6 -279.6 L-187.3 -278.5 L-189 -277.6 L-190.8 -276.8 L-192.7 -276.1 L-194.6 -275.6 L-196.6 -275.3 L-198.6 -275.1 L-200.5 -275.1 L-202.5 -275.2 L-204.5 -275.5 L-206.4 -275.9 L-208.3 -276.5 L-210.2 -277.2 L-211.9 -278.1 L-213.6 -279.1 L-215.3 -280.3 L-216.8 -281.5 L-218.2 -282.9 L-219.5 -284.4 L-220.7 -286 L-221.7 -287.7 L-222.6 -289.5 L-223.4 -291.3 L-224 -293.2 L-224.5 -295.1 L-224.8 -297.1 L-224.9 -299.1 L-224.9 -301 L-224.8 -303 L-224.4 -305 L-224 -306.9 L-223.3 -308.8 L-222.6 -310.6 L-221.7 -312.4 L-220.6 -314.1 L-219.4 -315.7 L-218.1 -317.1 L-216.7 -318.5 L-215.2 -319.8 L-213.6 -320.9 L-211.8 -322 L-210.1 -322.8 L-208.2 -323.6 L-206.3 -324.1 L-204.4 -324.6 L-202.4 -324.8 L-200.4 -324.9 L-198.5 -324.9 L-196.5 -324.7 L-194.5 -324.3 L-192.6 -323.8 L-190.7 -323.2 L-188.9 -322.4 L-187.2 -321.4 L-185.5 -320.3 L-184 -319.1 L-182.5 -317.8 L-181.1 -316.3 L-179.9 -314.8 L-178.8 -313.1 L-177.8 -311.4 L-177 -309.6 L-176.3 -307.8 L-175.7 -305.8 L-175.4 -303.9 L-175.1 -301.9 L-175 -299.9 Z " />
<path stroke="rgb(0,0,0)" stroke-opacity="1" fill="rgb(255,255,255)" fill-opacity="1" d="M-212.5 -412.6 L-211.5 -412.6 L-210.5 -412.6 L-209.5 -412.6 L-208.5 -412.6 L-207.5 -412.6 L-206.6 -412.6 L-205.6 -412.6 L-204.6 -412.6 L-203.6 -412.6 L-202.6 -412.6 L-201.6 -412.6 L-200.6 -412.6 L-199.6 -412.6 L-198.6 -412.6 L-197.6 -412.6 L-196.6 -412.6 L-195.6 -412.6 L-194.6 -412.6 L-193.6 -412.5 L-192.6 -412.5 L-191.6 -412.5 L-190.6 -412.5 L-189.6 -412.5 L-188.6 -412.5 L-187.6 -412.5 L-187.6 -411.5 L-187.6 -410.5 L-187.6 -409.5 L-187.6 -408.5 L-187.6 -407.5 L-187.7 -406.6 L-187.7 -405.6 L-187.7 -404.6 L-187.7 -403.6 L-187.7 -402.6 L-187.7 -401.6 L-187.7 -400.6 L-187.7 -399.6 L-187.7 -398.6 L-187.7 -397.6 L-187.7 -396.6 L-187.7 -395.6 L-187.7 -394.6 L-187.7 -393.6 L-187.7 -392.6 L-187.7 -391.6 L-187.7 -390.6 L-187.7 -389.6 L-187.7 -388.6 L-187.7 -387.6 L-188.7 -387.6 L-189.7 -387.6 L-190.7 -387.6 L-191.7 -387.6 L-192.7 -387.6 L-193.7 -387.7 L-194.7 -387.7 L-195.7 -387.7 L-196.7 -387.7 L-197.7 -387.7 L-198.7 -387.7 L-199.7 -387.7 L-200.7 -387.7 L-201.7 -387.7 L-202.7 -387.7 L-203.7 -387.7 L-204.6 -387.7 L-205.6 -387.7 L-206.6 -387.7 L-207.6 -387.7 L-208.6 -387.7 L-209.6 -387.7 L-210.6 -387.7 L-211.6 -387.7 L-212.6 -387.7 L-212.6 -388.7 L-212.6 -389.7 L-212.6 -390.7 L-212.6 -391.7 L-212.6 -392.7 L-212.6 -393.7 L-212.6 -394.7 L-212.6 -395.7 L-212.6 -396.7 L-212.6 -397.7 L-212.6 -398.7 L-212.6 -399.7 L-212.6 -400.7 L-212.6 -401.7 L-212.6 -402.7 L-212.6 -403.6 L-212.6 -404.6 L-212.6 -405.6 L-212.5 -406.6 L-212.5 -407.6 L-212.5 -408.6 L-212.5 -409.6 L-212.5 -410.6 L-212.5 -411.6 L-212.5 -412.6 Z " />
<path stroke="rgb(0,0,0)" stroke-opacity="0.949" fill="rgb(255,255,255)" fill-opacity="1" d="M24.95 -299.9 L24.87 -298 L24.63 -296 L24.23 -294.1 L23.68 -292.1 L22.98 -290.3 L22.14 -288.5 L21.15 -286.8 L20.04 -285.1 L18.79 -283.6 L17.43 -282.1 L15.95 -280.8 L14.38 -279.6 L12.71 -278.5 L10.97 -277.6 L9.153 -276.8 L7.28 -276.1 L5.361 -275.6 L3.408 -275.3 L1.434 -275.1 L-0.5499 -275.1 L-2.53 -275.2 L-4.494 -275.5 L-6.43 -275.9 L-8.325 -276.5 L-10.17 -277.2 L-11.95 -278.1 L-13.65 -279.1 L-15.26 -280.3 L-16.78 -281.5 L-18.2 -282.9 L-19.5 -284.4 L-20.67 -286 L-21.72 -287.7 L-22.62 -289.5 L-23.39 -291.3 L-24 -293.2 L-24.47 -295.1 L-24.78 -297.1 L-24.93 -299.1 L-24.93 -301 L-24.77 -303 L-24.45 -305 L-23.97 -306.9 L-23.35 -308.8 L-22.58 -310.6 L-21.66 -312.4 L-20.61 -314.1 L-19.43 -315.7 L-18.12 -317.1 L-16.7 -318.5 L-15.18 -319.8 L-13.56 -320.9 L-11.85 -322 L-10.07 -322.8 L-8.222 -323.6 L-6.324 -324.1 L-4.387 -324.6 L-2.422 -324.8 L-0.441 -324.9 L1.542 -324.9 L3.516 -324.7 L5.467 -324.3 L7.384 -323.8 L9.254 -323.2 L11.07 -322.4 L12.81 -321.4 L14.47 -320.3 L16.04 -319.1 L17.51 -317.8 L18.86 -316.3 L20.1 -314.8 L21.21 -313.1 L22.19 -311.4 L23.02 -309.6 L23.72 -307.8 L24.26 -305.8 L24.64 -303.9 L24.88 -301.9 L24.95 -299.9 Z " />
<path stroke="rgb(0,0,0)" stroke-opacity="1" fill="rgb(255,255,255)" fill-opacity="1" d="M-12.53 -412.6 L-11.53 -412.6 L-10.54 -412.6 L-9.54 -412.6 L-8.545 -412.6 L-7.549 -412.6 L-6.553 -412.6 L-5.557 -412.6 L-4.561 -412.6 L-3.565 -412.6 L-2.57 -412.6 L-1.574 -412.6 L-0.5779 -412.6 L0.4179 -412.6 L1.414 -412.6 L2.41 -412.6 L3.405 -412.6 L4.401 -412.6 L5.397 -412.6 L6.393 -412.5 L7.389 -412.5 L8.385 -412.5 L9.38 -412.5 L10.38 -412.5 L11.37 -412.5 L12.37 -412.5 L12.36 -411.5 L12.36 -410.5 L12.36 -409.5 L12.35 -408.5 L12.35 -407.5 L12.35 -406.6 L12.34 -405.6 L12.34 -404.6 L12.34 -403.6 L12.33 -402.6 L12.33 -401.6 L12.33 -400.6 L12.32 -399.6 L12.32 -398.6 L12.32 -397.6 L12.31 -396.6 L12.31 -395.6 L12.31 -394.6 L12.3 -393.6 L12.3 -392.6 L12.3 -391.6 L12.29 -390.6 L12.29 -389.6 L12.29 -388.6 L12.28 -387.6 L11.29 -387.6 L10.29 -387.6 L9.295 -387.6 L8.3 -387.6 L7.304 -387.6 L6.308 -387.7 L5.312 -387.7 L4.316 -387.7 L3.32 -387.7 L2.325 -387.7 L1.329 -387.7 L0.3329 -387.7 L-0.663 -387.7 L-1.659 -387.7 L-2.655 -387.7 L-3.65 -387.7 L-4.646 -387.7 L-5.642 -387.7 L-6.638 -387.7 L-7.634 -387.7 L-8.63 -387.7 L-9.626 -387.7 L-10.62 -387.7 L-11.62 -387.7 L-12.61 -387.7 L-12.61 -388.7 L-12.61 -389.7 L-12.6 -390.7 L-12.6 -391.7 L-12.6 -392.7 L-12.59 -393.7 L-12.59 -394.7 L-12.59 -395.7 L-12.58 -396.7 L-12.58 -397.7 L-12.58 -398.7 L-12.57 -399.7 L-12.57 -400.7 L-12.57 -401.7 L-12.56 -402.7 L-12.56 -403.6 L-12.56 -404.6 L-12.55 -405.6 L-12.55 -406.6 L-12.55 -407.6 L-12.54 -408.6 L-12.54 -409.6 L-12.53 -410.6 L-12.53 -411.6 L-12.53 -412.6 Z " />
<path stroke="rgb(0,0,0)" stroke-opacity="0.949" fill="rgb(255,255,255)" fill-opacity="1" d="M225 -299.9 L224.9 -298 L224.6 -296 L224.2 -294.1 L223.7 -292.1 L223 -290.3 L222.1 -288.5 L221.2 -286.8 L220 -285.1 L218.8 -283.6 L217.4 -282.1 L216 -280.8 L214.4 -279.6 L212.7 -278.5 L211 -277.6 L209.2 -276.8 L207.3 -276.1 L205.4 -275.6 L203.4 -275.3 L201.4 -275.1 L199.5 -275.1 L197.5 -275.2 L195.5 -275.5 L193.6 -275.9 L191.7 -276.5 L189.8 -277.2 L188.1 -278.1 L186.4 -279.1 L184.7 -280.3 L183.2 -281.5 L181.8 -282.9 L180.5 -284.4 L179.3 -286 L178.3 -287.7 L177.4 -289.5 L176.6 -291.3 L176 -293.2 L175.5 -295.1 L175.2 -297.1 L175.1 -299.1 L175.1 -301 L175.2 -303 L175.6 -305 L176 -306.9 L176.7 -308.8 L177.4 -310.6 L178.3 -312.4 L179.4 -314.1 L180.6 -315.7 L181.9 -317.1 L183.3 -318.5 L184.8 -319.8 L186.4 -320.9 L188.2 -322 L189.9 -322.8 L191.8 -323.6 L193.7 -324.1 L195.6 -324.6 L197.6 -324.8 L199.6 -324.9 L201.5 -324.9 L203.5 -324.7 L205.5 -324.3 L207.4 -323.8 L209.3 -323.2 L211.1 -322.4 L212.8 -321.4 L214.5 -320.3 L216 -319.1 L217.5 -317.8 L218.9 -316.3 L220.1 -314.8 L221.2 -313.1 L222.2 -311.4 L223 -309.6 L223.7 -307.8 L224.3 -305.8 L224.6 -303.9 L224.9 -301.9 L225 -299.9 Z " />
<path stroke="rgb(0,0,0)" stroke-opacity="1" fill="rgb(255,255,255)" fill-opacity="1" d="M187.6 -413 L188.6 -413 L189.6 -412.9 L190.6 -412.9 L191.6 -412.9 L192.7 -412.9 L193.7 -412.8 L194.7 -412.8 L195.7 -412.8 L196.7 -412.8 L197.7 -412.7 L198.7 -412.7 L199.7 -412.7 L200.7 -412.7 L201.7 -412.6 L202.7 -412.6 L203.7 -412.6 L204.7 -412.6 L205.7 -412.5 L206.7 -412.5 L207.7 -412.5 L208.7 -412.5 L209.7 -412.4 L210.7 -412.4 L211.7 -412.4 L212.8 -412.4 L212.7 -411.4 L212.7 -410.4 L212.7 -409.4 L212.7 -408.3 L212.6 -407.3 L212.6 -406.3 L212.6 -405.3 L212.6 -404.3 L212.5 -403.3 L212.5 -402.3 L212.5 -401.3 L212.5 -400.3 L212.4 -399.3 L212.4 -398.3 L212.4 -397.3 L212.4 -396.3 L212.3 -395.3 L212.3 -394.3 L212.3 -393.3 L212.3 -392.3 L212.2 -391.3 L212.2 -390.3 L212.2 -389.2 L212.1 -388.2 L212.1 -387.2 L211.1 -387.3 L210.1 -387.3 L209.1 -387.3 L208.1 -387.3 L207.1 -387.4 L206.1 -387.4 L205.1 -387.4 L204.1 -387.4 L203.1 -387.5 L202.1 -387.5 L201.1 -387.5 L200.1 -387.5 L199.1 -387.6 L198.1 -387.6 L197 -387.6 L196 -387.6 L195 -387.7 L194 -387.7 L193 -387.7 L192 -387.7 L191 -387.8 L190 -387.8 L189 -387.8 L188 -387.8 L187 -387.9 L187 -388.9 L187 -389.9 L187.1 -390.9 L187.1 -391.9 L187.1 -392.9 L187.1 -393.9 L187.2 -394.9 L187.2 -395.9 L187.2 -396.9 L187.2 -397.9 L187.3 -398.9 L187.3 -399.9 L187.3 -400.9 L187.3 -401.9 L187.4 -402.9 L187.4 -404 L187.4 -405 L187.5 -406 L187.5 -407 L187.5 -408 L187.5 -409 L187.6 -410 L187.6 -411 L187.6 -412 L187.6 -413 Z " />
<path stroke="rgb(0,0,0)" stroke-opacity="0.949" fill="rgb(255,255,255)" fill-opacity="1" d="M-275 -199.9 L-275.1 -198 L-275.4 -196 L-275.8 -194.1 L-276.3 -192.1 L-277 -190.3 L-277.9 -188.5 L-278.8 -186.8 L-280 -185.1 L-281.2 -183.6 L-282.6 -182.1 L-284 -180.8 L-285.6 -179.6 L-287.3 -178.5 L-289 -177.6 L-290.8 -176.8 L-292.7 -176.1 L-294.6 -175.6 L-296.6 -175.3 L-298.6 -175.1 L-300.5 -175.1 L-302.5 -175.2 L-304.5 -175.5 L-306.4 -175.9 L-308.3 -176.5 L-310.2 -177.2 L-311.9 -178.1 L-313.6 -179.1 L-315.3 -180.3 L-316.8 -181.5 L-318.2 -182.9 L-319.5 -184.4 L-320.7 -186 L-321.7 -187.7 L-322.6 -189.5 L-323.4 -191.3 L-324 -193.2 L-324.5 -195.1 L-324.8 -197.1 L-324.9 -199.1 L-324.9 -201 L-324.8 -203 L-324.4 -205 L-324 -206.9 L-323.3 -208.8 L-322.6 -210.6 L-321.7 -212.4 L-320.6 -214.1 L-319.4 -215.7 L-318.1 -217.1 L-316.7 -218.5 L-315.2 -219.8 L-313.6 -220.9 L-311.8 -222 L-310.1 -222.8 L-308.2 -223.6 L-306.3 -224.1 L-304.4 -224.6 L-302.4 -224.8 L-300.4 -224.9 L-298.5 -224.9 L-296.5 -224.7 L-294.5 -224.3 L-292.6 -223.8 L-290.7 -223.2 L-288.9 -222.4 L-287.2 -221.4 L-285.5 -220.3 L-284 -219.1 L-282.5 -217.8 L-281.1 -216.3 L-279.9 -214.8 L-278.8 -213.1 L-277.8 -211.4 L-277 -209.6 L-276.3 -207.8 L-275.7 -205.8 L-275.4 -203.9 L-275.1 -201.9 L-275 -199.9 Z " />
<path stroke="rgb(0,0,0)" stroke-opacity="1" fill="rgb(255,255,255)" fill-opacity="1" d="M-312.5 -312.6 L-311.5 -312.6 L-310.5 -312.6 L-309.5 -312.6 L-308.5 -312.6 L-307.5 -312.6 L-306.6 -312.6 L-305.6 -312.6 L-304.6 -312.6 L-303.6 -312.6 L-302.6 -312.6 L-301.6 -312.6 L-300.6 -312.6 L-299.6 -312.6 L-298.6 -312.6 L-297.6 -312.6 L-296.6 -312.6 L-295.6 -312.6 L-294.6 -312.6 L-293.6 -312.5 L-292.6 -312.5 L-291.6 -312.5 L-290.6 -312.5 L-289.6 -312.5 L-288.6 -312.5 L-287.6 -312.5 L-287.6 -311.5 L-287.6 -310.5 L-287.6 -309.5 L-287.6 -308.5 L-287.6 -307.5 L-287.7 -306.6 L-287.7 -305.6 L-287.7 -304.6 L-287.7 -303.6 L-287.7 -302.6 L-287.7 -301.6 L-287.7 -300.6 L-287.7 -299.6 L-287.7 -298.6 L-287.7 -297.6 L-287.7 -296.6 L-287.7 -295.6 L-287.7 -294.6 L-287.7 -293.6 L-287.7 -292.6 L-287.7 -291.6 L-287.7 -290.6 L-287.7 -289.6 L-287.7 -288.6 L-287.7 -287.6 L-288.7 -287.6 L-289.7 -287.6 L-290.7 -287.6 L-291.7 -287.6 L-292.7 -287.6 L-293.7 -287.7 L-294.7 -287.7 L-295.7 -287.7 L-296.7 -287.7 L-297.7 -287.7 L-298.7 -287.7 L-299.7 -287.7 L-300.7 -287.7 L-301.7 -287.7 L-302.7 -287.7 L-303.7 -287.7 L-304.6 -287.7 L-305.6 -287.7 L-306.6 -287.7 L-307.6 -287.7 L-308.6 -287.7 L-309.6 -287.7 L-310.6 -287.7 L-311.6 -287.7 L-312.6 -287.7 L-312.6 -288.7 L-312.6 -289.7 L-312.6 -290.7 L-312.6 -291.7 L-312.6 -292.7 L-312.6 -293.7 L-312.6 -294.7 L-312.6 -295.7 L-312.6 -296.7 L-312.6 -297.7 L-312.6 -298.7 L-312.6 -299.7 L-312.6 -300.7 L-312.6 -301.7 L-312.6 -302.7 L-312.6 -303.6 L-312.6 -304.6 L-312.6 -305.6 L-312.5 -306.6 L-312.5 -307.6 L-312.5 -308.6 L-312.5 -309.6 L-312.5 -310.6 L-312.5 -311.6 L-312.5 -312.6 Z " />
<path stroke="rgb(0,0,0)" stroke-opacity="0.949" fill="rgb(255,255,255)" fill-opacity="1" d="M-75.05 -199.9 L-75.13 -198 L-75.37 -196 L-75.77 -194.1 L-76.32 -192.1 L-77.02 -190.3 L-77.86 -188.5 L-78.85 -186.8 L-79.96 -185.1 L-81.21 -183.6 L-82.57 -182.1 L-84.05 -180.8 L-85.62 -179.6 L-87.29 -178.5 L-89.03 -177.6 L-90.85 -176.8 L-92.72 -176.1 L-94.64 -175.6 L-96.59 -175.3 L-98.57 -175.1 L-100.5 -175.1 L-102.5 -175.2 L-104.5 -175.5 L-106.4 -175.9 L-108.3 -176.5 L-110.2 -177.2 L-111.9 -178.1 L-113.6 -179.1 L-115.3 -180.3 L-116.8 -181.5 L-118.2 -182.9 L-119.5 -184.4 L-120.7 -186 L-121.7 -187.7 L-122.6 -189.5 L-123.4 -191.3 L-124 -193.2 L-124.5 -195.1 L-124.8 -197.1 L-124.9 -199.1 L-124.9 -201 L-124.8 -203 L-124.4 -205 L-124 -206.9 L-123.3 -208.8 L-122.6 -210.6 L-121.7 -212.4 L-120.6 -214.1 L-119.4 -215.7 L-118.1 -217.1 L-116.7 -218.5 L-115.2 -219.8 L-113.6 -220.9 L-111.8 -222 L-110.1 -222.8 L-108.2 -223.6 L-106.3 -224.1 L-104.4 -224.6 L-102.4 -224.8 L-100.4 -224.9 L-98.46 -224.9 L-96.48 -224.7 L-94.53 -224.3 L-92.62 -223.8 L-90.75 -223.2 L-88.93 -222.4 L-87.19 -221.4 L-85.53 -220.3 L-83.96 -219.1 L-82.49 -217.8 L-81.14 -216.3 L-79.9 -214.8 L-78.79 -213.1 L-77.81 -211.4 L-76.98 -209.6 L-76.28 -207.8 L-75.74 -205.8 L-75.36 -203.9 L-75.12 -201.9 L-75.05 -199.9 Z " />
<path stroke="rgb(0,0,0)" stroke-opacity="1" fill="rgb(255,255,255)" fill-opacity="1" d="M-112.5 -312.6 L-111.5 -312.6 L-110.5 -312.6 L-109.5 -312.6 L-108.5 -312.6 L-107.5 -312.6 L-106.6 -312.6 L-105.6 -312.6 L-104.6 -312.6 L-103.6 -312.6 L-102.6 -312.6 L-101.6 -312.6 L-100.6 -312.6 L-99.58 -312.6 L-98.59 -312.6 L-97.59 -312.6 L-96.59 -312.6 L-95.6 -312.6 L-94.6 -312.6 L-93.61 -312.5 L-92.61 -312.5 L-91.62 -312.5 L-90.62 -312.5 L-89.62 -312.5 L-88.63 -312.5 L-87.63 -312.5 L-87.64 -311.5 L-87.64 -310.5 L-87.64 -309.5 L-87.65 -308.5 L-87.65 -307.5 L-87.65 -306.6 L-87.66 -305.6 L-87.66 -304.6 L-87.66 -303.6 L-87.67 -302.6 L-87.67 -301.6 L-87.67 -300.6 L-87.68 -299.6 L-87.68 -298.6 L-87.68 -297.6 L-87.69 -296.6 L-87.69 -295.6 L-87.69 -294.6 L-87.7 -293.6 L-87.7 -292.6 L-87.7 -291.6 L-87.71 -290.6 L-87.71 -289.6 L-87.71 -288.6 L-87.72 -287.6 L-88.71 -287.6 L-89.71 -287.6 L-90.7 -287.6 L-91.7 -287.6 L-92.7 -287.6 L-93.69 -287.7 L-94.69 -287.7 L-95.68 -287.7 L-96.68 -287.7 L-97.68 -287.7 L-98.67 -287.7 L-99.67 -287.7 L-100.7 -287.7 L-101.7 -287.7 L-102.7 -287.7 L-103.7 -287.7 L-104.6 -287.7 L-105.6 -287.7 L-106.6 -287.7 L-107.6 -287.7 L-108.6 -287.7 L-109.6 -287.7 L-110.6 -287.7 L-111.6 -287.7 L-112.6 -287.7 L-112.6 -288.7 L-112.6 -289.7 L-112.6 -290.7 L-112.6 -291.7 L-112.6 -292.7 L-112.6 -293.7 L-112.6 -294.7 L-112.6 -295.7 L-112.6 -296.7 L-112.6 -297.7 L-112.6 -298.7 L-112.6 -299.7 L-112.6 -300.7 L-112.6 -301.7 L-112.6 -302.7 L-112.6 -303.6 L-112.6 -304.6 L-112.6 -305.6 L-112.5 -306.6 L-112.5 -307.6 L-112.5 -308.6 L-112.5 -309.6 L-112.5 -310.6 L-112.5 -311.6 L-112.5 -312.6 Z " />
<path stroke="rgb(0,0,0)" stroke-opacity="0.949" fill="rgb(255,255,255)" fill-opacity="1" d="M125 -199.9 L124.9 -198 L124.6 -196 L124.2 -194.1 L123.7 -192.1 L123 -190.3 L122.1 -188.5 L121.2 -186.8 L120 -185.1 L118.8 -183.6 L117.4 -182.1 L116 -180.8 L114.4 -179.6 L112.7 -178.5 L111 -177.6 L109.2 -176.8 L107.3 -176.1 L105.4 -175.6 L103.4 -175.3 L101.4 -175.1 L99.45 -175.1 L97.47 -175.2 L95.51 -175.5 L93.57 -175.9 L91.68 -176.5 L89.83 -177.2 L88.05 -178.1 L86.35 -179.1 L84.74 -180.3 L83.22 -181.5 L81.8 -182.9 L80.5 -184.4 L79.33 -186 L78.28 -187.7 L77.38 -189.5 L76.61 -191.3 L76 -193.2 L75.53 -195.1 L75.22 -197.1 L75.07 -199.1 L75.07 -201 L75.23 -203 L75.55 -205 L76.03 -206.9 L76.65 -208.8 L77.42 -210.6 L78.34 -212.4 L79.39 -214.1 L80.57 -215.7 L81.88 -217.1 L83.3 -218.5 L84.82 -219.8 L86.44 -220.9 L88.15 -222 L89.93 -222.8 L91.78 -223.6 L93.68 -224.1 L95.61 -224.6 L97.58 -224.8 L99.56 -224.9 L101.5 -224.9 L103.5 -224.7 L105.5 -224.3 L107.4 -223.8 L109.3 -223.2 L111.1 -222.4 L112.8 -221.4 L114.5 -220.3 L116 -219.1 L117.5 -217.8 L118.9 -216.3 L120.1 -214.8 L121.2 -213.1 L122.2 -211.4 L123 -209.6 L123.7 -207.8 L124.3 -205.8 L124.6 -203.9 L124.9 -201.9 L125 -199.9 Z " />
<path stroke="rgb(0,0,0)" stroke-opacity="1" fill="rgb(255,255,255)" fill-opacity="1" d="M87.63 -313 L88.63 -313 L89.64 -312.9 L90.64 -312.9 L91.65 -312.9 L92.65 -312.9 L93.66 -312.8 L94.66 -312.8 L95.67 -312.8 L96.67 -312.8 L97.68 -312.7 L98.68 -312.7 L99.69 -312.7 L100.7 -312.7 L101.7 -312.6 L102.7 -312.6 L103.7 -312.6 L104.7 -312.6 L105.7 -312.5 L106.7 -312.5 L107.7 -312.5 L108.7 -312.5 L109.7 -312.4 L110.7 -312.4 L111.7 -312.4 L112.8 -312.4 L112.7 -311.4 L112.7 -310.4 L112.7 -309.4 L112.7 -308.3 L112.6 -307.3 L112.6 -306.3 L112.6 -305.3 L112.6 -304.3 L112.5 -303.3 L112.5 -302.3 L112.5 -301.3 L112.5 -300.3 L112.4 -299.3 L112.4 -298.3 L112.4 -297.3 L112.4 -296.3 L112.3 -295.3 L112.3 -294.3 L112.3 -293.3 L112.3 -292.3 L112.2 -291.3 L112.2 -290.3 L112.2 -289.2 L112.1 -288.2 L112.1 -287.2 L111.1 -287.3 L110.1 -287.3 L109.1 -287.3 L108.1 -287.3 L107.1 -287.4 L106.1 -287.4 L105.1 -287.4 L104.1 -287.4 L103.1 -287.5 L102.1 -287.5 L101.1 -287.5 L100.1 -287.5 L99.06 -287.6 L98.05 -287.6 L97.05 -287.6 L96.04 -287.6 L95.04 -287.7 L94.03 -287.7 L93.03 -287.7 L92.02 -287.7 L91.02 -287.8 L90.01 -287.8 L89.01 -287.8 L88 -287.8 L87 -287.9 L87.02 -288.9 L87.05 -289.9 L87.07 -290.9 L87.1 -291.9 L87.12 -292.9 L87.15 -293.9 L87.17 -294.9 L87.2 -295.9 L87.22 -296.9 L87.25 -297.9 L87.27 -298.9 L87.3 -299.9 L87.32 -300.9 L87.35 -301.9 L87.38 -302.9 L87.4 -304 L87.43 -305 L87.45 -306 L87.48 -307 L87.5 -308 L87.53 -309 L87.55 -310 L87.58 -311 L87.6 -312 L87.63 -313 Z " />
<path stroke="rgb(0,0,0)" stroke-opacity="0.949" fill="rgb(255,255,255)" fill-opacity="1" d="M325 -199.9 L324.9 -198 L324.6 -196 L324.2 -194.1 L323.7 -192.1 L323 -190.3 L322.1 -188.5 L321.2 -186.8 L320 -185.1 L318.8 -183.6 L317.4 -182.1 L316 -180.8 L314.4 -179.6 L312.7 -178.5 L311 -177.6 L309.2 -176.8 L307.3 -176.1 L305.4 -175.6 L303.4 -175.3 L301.4 -175.1 L299.5 -175.1 L297.5 -175.2 L295.5 -175.5 L293.6 -175.9 L291.7 -176.5 L289.8 -177.2 L288.1 -178.1 L286.4 -179.1 L284.7 -180.3 L283.2 -181.5 L281.8 -182.9 L280.5 -184.4 L279.3 -186 L278.3 -187.7 L277.4 -189.5 L276.6 -191.3 L276 -193.2 L275.5 -195.1 L275.2 -197.1 L275.1 -199.1 L275.1 -201 L275.2 -203 L275.6 -205 L276 -206.9 L276.7 -208.8 L277.4 -210.6 L278.3 -212.4 L279.4 -214.1 L280.6 -215.7 L281.9 -217.1 L283.3 -218.5 L284.8 -219.8 L286.4 -220.9 L288.2 -222 L289.9 -222.8 L291.8 -223.6 L293.7 -224.1 L295.6 -224.6 L297.6 -224.8 L299.6 -224.9 L301.5 -224.9 L303.5 -224.7 L305.5 -224.3 L307.4 -223.8 L309.3 -223.2 L311.1 -222.4 L312.8 -221.4 L314.5 -220.3 L316 -219.1 L317.5 -217.8 L318.9 -216.3 L320.1 -214.8 L321.2 -213.1 L322.2 -211.4 L323 -209.6 L323.7 -207.8 L324.3 -205.8 L324.6 -203.9 L324.9 -201.9 L325 -199.9 Z " />
<path stroke="rgb(0,0,0)" stroke-opacity="1" fill="rgb(255,255,255)" fill-opacity="1" d="M-412.5 -212.6 L-411.5 -212.6 L-410.5 -212.6 L-409.5 -212.6 L-408.5 -212.6 L-407.5 -212.6 L-406.6 -212.6 L-405.6 -212.6 L-404.6 -212.6 L-403.6 -212.6 L-402.6 -212.6 L-401.6 -212.6 L-400.6 -212.6 L-399.6 -212.6 L-398.6 -212.6 L-397.6 -212.6 L-396.6 -212.6 L-395.6 -212.6 L-394.6 -212.6 L-393.6 -212.5 L-392.6 -212.5 L-391.6 -212.5 L-390.6 -212.5 L-389.6 -212.5 L-388.6 -212.5 L-387.6 -212.5 L-387.6 -211.5 L-387.6 -210.5 L-387.6 -209.5 L-387.6 -208.5 L-387.6 -207.5 L-387.7 -206.6 L-387.7 -205.6 L-387.7 -204.6 L-387.7 -203.6 L-387.7 -202.6 L-387.7 -201.6 L-387.7 -200.6 L-387.7 -199.6 L-387.7 -198.6 L-387.7 -197.6 L-387.7 -196.6 L-387.7 -195.6 L-387.7 -194.6 L-387.7 -193.6 L-387.7 -192.6 L-387.7 -191.6 L-387.7 -190.6 L-387.7 -189.6 L-387.7 -188.6 L-387.7 -187.6 L-388.7 -187.6 L-389.7 -187.6 L-390.7 -187.6 L-391.7 -187.6 L-392.7 -187.6 L-393.7 -187.7 L-394.7 -187.7 L-395.7 -187.7 L-396.7 -187.7 L-397.7 -187.7 L-398.7 -187.7 L-399.7 -187.7 L-400.7 -187.7 L-401.7 -187.7 L-402.7 -187.7 L-403.7 -187.7 L-404.6 -187.7 L-405.6 -187.7 L-406.6 -187.7 L-407.6 -187.7 L-408.6 -187.7 L-409.6 -187.7 L-410.6 -187.7 L-411.6 -187.7 L-412.6 -187.7 L-412.6 -188.7 L-412.6 -189.7 L-412.6 -190.7 L-412.6 -191.7 L-412.6 -192.7 L-412.6 -193.7 L-412.6 -194.7 L-412.6 -195.7 L-412.6 -196.7 L-412.6 -197.7 L-412.6 -198.7 L-412.6 -199.7 L-412.6 -200.7 L-412.6 -201.7 L-412.6 -202.7 L-412.6 -203.6 L-412.6 -204.6 L-412.6 -205.6 L-412.5 -206.6 L-412.5 -207.6 L-412.5 -208.6 L-412.5 -209.6 L-412.5 -210.6 L-412.5 -211.6 L-412.5 -212.6 Z " />
<path stroke="rgb(0,0,0)" stroke-opacity="0.949" fill="rgb(255,255,255)" fill-opacity="1" d="M-175 -99.95 L-175.1 -97.96 L-175.4 -95.99 L-175.8 -94.05 L-176.3 -92.14 L-177 -90.29 L-177.9 -88.49 L-178.8 -86.77 L-180 -85.13 L-181.2 -83.59 L-182.6 -82.15 L-184 -80.82 L-185.6 -79.61 L-187.3 -78.53 L-189 -77.59 L-190.8 -76.79 L-192.7 -76.14 L-194.6 -75.63 L-196.6 -75.28 L-198.6 -75.09 L-200.5 -75.06 L-202.5 -75.18 L-204.5 -75.46 L-206.4 -75.89 L-208.3 -76.48 L-210.2 -77.22 L-211.9 -78.1 L-213.6 -79.11 L-215.3 -80.26 L-216.8 -81.54 L-218.2 -82.93 L-219.5 -84.43 L-220.7 -86.03 L-221.7 -87.72 L-222.6 -89.48 L-223.4 -91.31 L-224 -93.2 L-224.5 -95.13 L-224.8 -97.09 L-224.9 -99.06 L-224.9 -101 L-224.8 -103 L-224.4 -105 L-224 -106.9 L-223.3 -108.8 L-222.6 -110.6 L-221.7 -112.4 L-220.6 -114.1 L-219.4 -115.7 L-218.1 -117.1 L-216.7 -118.5 L-215.2 -119.8 L-213.6 -120.9 L-211.8 -122 L-210.1 -122.8 L-208.2 -123.6 L-206.3 -124.1 L-204.4 -124.6 L-202.4 -124.8 L-200.4 -124.9 L-198.5 -124.9 L-196.5 -124.7 L-194.5 -124.3 L-192.6 -123.8 L-190.7 -123.2 L-188.9 -122.4 L-187.2 -121.4 L-185.5 -120.3 L-184 -119.1 L-182.5 -117.8 L-181.1 -116.3 L-179.9 -114.8 L-178.8 -113.1 L-177.8 -111.4 L-177 -109.6 L-176.3 -107.8 L-175.7 -105.8 L-175.4 -103.9 L-175.1 -101.9 L-175 -99.95 Z " />
<path stroke="rgb(0,0,0)" stroke-opacity="1" fill="rgb(255,255,255)" fill-opacity="1" d="M-212.5 -212.6 L-211.5 -212.6 L-210.5 -212.6 L-209.5 -212.6 L-208.5 -212.6 L-207.5 -212.6 L-206.6 -212.6 L-205.6 -212.6 L-204.6 -212.6 L-203.6 -212.6 L-202.6 -212.6 L-201.6 -212.6 L-200.6 -212.6 L-199.6 -212.6 L-198.6 -212.6 L-197.6 -212.6 L-196.6 -212.6 L-195.6 -212.6 L-194.6 -212.6 L-193.6 -212.5 L-192.6 -212.5 L-191.6 -212.5 L-190.6 -212.5 L-189.6 -212.5 L-188.6 -212.5 L-187.6 -212.5 L-187.6 -211.5 L-187.6 -210.5 L-187.6 -209.5 L-187.6 -208.5 L-187.6 -207.5 L-187.7 -206.6 L-187.7 -205.6 L-187.7 -204.6 L-187.7 -203.6 L-187.7 -202.6 L-187.7 -201.6 L-187.7 -200.6 L-187.7 -199.6 L-187.7 -198.6 L-187.7 -197.6 L-187.7 -196.6 L-187.7 -195.6 L-187.7 -194.6 L-187.7 -193.6 L-187.7 -192.6 L-187.7 -191.6 L-187.7 -190.6 L-187.7 -189.6 L-187.7 -188.6 L-187.7 -187.6 L-188.7 -187.6 L-189.7 -187.6 L-190.7 -187.6 L-191.7 -187.6 L-192.7 -187.6 L-193.7 -187.7 L-194.7 -187.7 L-195.7 -187.7 L-196.7 -187.7 L-197.7 -187.7 L-198.7 -187.7 L-199.7 -187.7 L-200.7 -187.7 L-201.7 -187.7 L-202.7 -187.7 L-203.7 -187.7 L-204.6 -187.7 L-205.6 -187.7 L-206.6 -187.7 L-207.6 -187.7 L-208.6 -187.7 L-209.6 -187.7 L-210.6 -187.7 L-211.6 -187.7 L-212.6 -187.7 L-212.6 -188.7 L-212.6 -189.7 L-212.6 -190.7 L-212.6 -191.7 L-212.6 -192.7 L-212.6 -193.7 L-212.6 -194.7 L-212.6 -195.7 L-212.6 -196.7 L-212.6 -197.7 L-212.6 -198.7 L-212.6 -199.7 L-212.6 -200.7 L-212.6 -201.7 L-212.6 -202.7 L-212.6 -203.6 L-212.6 -204.6 L-212.6 -205.6 L-212.5 -206.6 L-212.5 -207.6 L-212.5 -208.6 L-212.5 -209.6 L-212.5 -210.6 L-212.5 -211.6 L-212.5 -212.6 Z " />
<path stroke="rgb(0,0,0)" stroke-opacity="0.949" fill="rgb(255,255,255)" fill-opacity="1" d="M24.95 -99.95 L24.87 -97.96 L24.63 -95.99 L24.23 -94.05 L23.68 -92.14 L22.98 -90.29 L22.14 -88.49 L21.15 -86.77 L20.04 -85.13 L18.79 -83.59 L17.43 -82.15 L15.95 -80.82 L14.38 -79.61 L12.71 -78.53 L10.97 -77.59 L9.153 -76.79 L7.28 -76.14 L5.361 -75.63 L3.408 -75.28 L1.434 -75.09 L-0.5499 -75.06 L-2.53 -75.18 L-4.494 -75.46 L-6.43 -75.89 L-8.325 -76.48 L-10.17 -77.22 L-11.95 -78.1 L-13.65 -79.11 L-15.26 -80.26 L-16.78 -81.54 L-18.2 -82.93 L-19.5 -84.43 L-20.67 -86.03 L-21.72 -87.72 L-22.62 -89.48 L-23.39 -91.31 L-24 -93.2 L-24.47 -95.13 L-24.78 -97.09 L-24.93 -99.06 L-24.93 -101 L-24.77 -103 L-24.45 -105 L-23.97 -106.9 L-23.35 -108.8 L-22.58 -110.6 L-21.66 -112.4 L-20.61 -114.1 L-19.43 -115.7 L-18.12 -117.1 L-16.7 -118.5 L-15.18 -119.8 L-13.56 -120.9 L-11.85 -122 L-10.07 -122.8 L-8.222 -123.6 L-6.324 -124.1 L-4.387 -124.6 L-2.422 -124.8 L-0.441 -124.9 L1.542 -124.9 L3.516 -124.7 L5.467 -124.3 L7.384 -123.8 L9.254 -123.2 L11.07 -122.4 L12.81 -121.4 L14.47 -120.3 L16.04 -119.1 L17.51 -117.8 L18.86 -116.3 L20.1 -114.8 L21.21 -113.1 L22.19 -111.4 L23.02 -109.6 L23.72 -107.8 L24.26 -105.8 L24.64 -103.9 L24.88 -101.9 L24.95 -99.95 Z " />
<path stroke="rgb(0,0,0)" stroke-opacity="1" fill="rgb(255,255,255)" fill-opacity="1" d="M-12.37 -213 L-11.37 -213 L-10.36 -212.9 L-9.358 -212.9 L-8.352 -212.9 L-7.347 -212.9 L-6.342 -212.8 L-5.337 -212.8 L-4.332 -212.8 L-3.327 -212.8 L-2.322 -212.7 L-1.317 -212.7 L-0.3115 -212.7 L0.6936 -212.7 L1.699 -212.6 L2.704 -212.6 L3.709 -212.6 L4.714 -212.6 L5.719 -212.5 L6.724 -212.5 L7.729 -212.5 L8.735 -212.5 L9.74 -212.4 L10.74 -212.4 L11.75 -212.4 L12.76 -212.4 L12.73 -211.4 L12.7 -210.4 L12.68 -209.4 L12.65 -208.3 L12.63 -207.3 L12.6 -206.3 L12.58 -205.3 L12.55 -204.3 L12.53 -203.3 L12.5 -202.3 L12.48 -201.3 L12.45 -200.3 L12.43 -199.3 L12.4 -198.3 L12.38 -197.3 L12.35 -196.3 L12.33 -195.3 L12.3 -194.3 L12.28 -193.3 L12.25 -192.3 L12.23 -191.3 L12.2 -190.3 L12.18 -189.2 L12.15 -188.2 L12.12 -187.2 L11.12 -187.3 L10.11 -187.3 L9.109 -187.3 L8.104 -187.3 L7.099 -187.4 L6.094 -187.4 L5.089 -187.4 L4.084 -187.4 L3.079 -187.5 L2.074 -187.5 L1.068 -187.5 L0.06329 -187.5 L-0.9418 -187.6 L-1.947 -187.6 L-2.952 -187.6 L-3.957 -187.6 L-4.962 -187.7 L-5.967 -187.7 L-6.973 -187.7 L-7.978 -187.7 L-8.983 -187.8 L-9.988 -187.8 L-10.99 -187.8 L-12 -187.8 L-13 -187.9 L-12.98 -188.9 L-12.95 -189.9 L-12.93 -190.9 L-12.9 -191.9 L-12.88 -192.9 L-12.85 -193.9 L-12.83 -194.9 L-12.8 -195.9 L-12.78 -196.9 L-12.75 -197.9 L-12.73 -198.9 L-12.7 -199.9 L-12.68 -200.9 L-12.65 -201.9 L-12.62 -202.9 L-12.6 -204 L-12.57 -205 L-12.55 -206 L-12.52 -207 L-12.5 -208 L-12.47 -209 L-12.45 -210 L-12.42 -211 L-12.4 -212 L-12.37 -213 Z " />
<path stroke="rgb(0,0,0)" stroke-opacity="0.949" fill="rgb(255,255,255)" fill-opacity="1" d="M225 -99.95 L224.9 -97.96 L224.6 -95.99 L224.2 -94.05 L223.7 -92.14 L223 -90.29 L222.1 -88.49 L221.2 -86.77 L220 -85.13 L218.8 -83.59 L217.4 -82.15 L216 -80.82 L214.4 -79.61 L212.7 -78.53 L211 -77.59 L209.2 -76.79 L207.3 -76.14 L205.4 -75.63 L203.4 -75.28 L201.4 -75.09 L199.5 -75.06 L197.5 -75.18 L195.5 -75.46 L193.6 -75.89 L191.7 -76.48 L189.8 -77.22 L188.1 -78.1 L186.4 -79.11 L184.7 -80.26 L183.2 -81.54 L181.8 -82.93 L180.5 -84.43 L179.3 -86.03 L178.3 -87.72 L177.4 -89.48 L176.6 -91.31 L176 -93.2 L175.5 -95.13 L175.2 -97.09 L175.1 -99.06 L175.1 -101 L175.2 -103 L175.6 -105 L176 -106.9 L176.7 -108.8 L177.4 -110.6 L178.3 -112.4 L179.4 -114.1 L180.6 -115.7 L181.9 -117.1 L183.3 -118.5 L184.8 -119.8 L186.4 -120.9 L188.2 -122 L189.9 -122.8 L191.8 -123.6 L193.7 -124.1 L195.6 -124.6 L197.6 -124.8 L199.6 -124.9 L201.5 -124.9 L203.5 -124.7 L205.5 -124.3 L207.4 -123.8 L209.3 -123.2 L211.1 -122.4 L212.8 -121.4 L214.5 -120.3 L216 -119.1 L217.5 -117.8 L218.9 -116.3 L220.1 -114.8 L221.2 -113.1 L222.2 -111.4 L223 -109.6 L223.7 -107.8 L224.3 -105.8 L224.6 -103.9 L224.9 -101.9 L225 -99.95 Z " />
<path stroke="rgb(0,0,0)" stroke-opacity="1" fill="rgb(255,255,255)" fill-opacity="1" d="M189.7 -216.7 L190.7 -216.5 L191.8 -216.2 L192.9 -215.9 L194 -215.7 L195 -215.4 L196.1 -215.2 L197.2 -214.9 L198.2 -214.7 L199.3 -214.4 L200.4 -214.1 L201.5 -213.9 L202.5 -213.6 L203.6 -213.4 L204.7 -213.1 L205.8 -212.8 L206.8 -212.6 L207.9 -212.3 L209 -212.1 L210.1 -211.8 L211.1 -211.6 L212.2 -211.3 L213.3 -211 L214.3 -210.8 L215.4 -210.5 L216.5 -210.3 L216.2 -209.2 L216 -208.1 L215.7 -207.1 L215.5 -206 L215.2 -204.9 L214.9 -203.8 L214.7 -202.8 L214.4 -201.7 L214.2 -200.6 L213.9 -199.5 L213.7 -198.5 L213.4 -197.4 L213.1 -196.3 L212.9 -195.2 L212.6 -194.2 L212.4 -193.1 L212.1 -192 L211.9 -191 L211.6 -189.9 L211.3 -188.8 L211.1 -187.7 L210.8 -186.7 L210.6 -185.6 L210.3 -184.5 L210 -183.4 L209 -183.7 L207.9 -184 L206.8 -184.2 L205.8 -184.5 L204.7 -184.7 L203.6 -185 L202.5 -185.2 L201.5 -185.5 L200.4 -185.8 L199.3 -186 L198.2 -186.3 L197.2 -186.5 L196.1 -186.8 L195 -187.1 L194 -187.3 L192.9 -187.6 L191.8 -187.8 L190.7 -188.1 L189.7 -188.3 L188.6 -188.6 L187.5 -188.9 L186.4 -189.1 L185.4 -189.4 L184.3 -189.6 L183.2 -189.9 L183.5 -191 L183.7 -192 L184 -193.1 L184.3 -194.2 L184.5 -195.3 L184.8 -196.3 L185 -197.4 L185.3 -198.5 L185.5 -199.5 L185.8 -200.6 L186.1 -201.7 L186.3 -202.8 L186.6 -203.8 L186.8 -204.9 L187.1 -206 L187.3 -207.1 L187.6 -208.1 L187.9 -209.2 L188.1 -210.3 L188.4 -211.4 L188.6 -212.4 L188.9 -213.5 L189.1 -214.6 L189.4 -215.6 L189.7 -216.7 Z " />
<path stroke="rgb(0,0,0)" stroke-opacity="0.949" fill="rgb(255,255,255)" fill-opacity="1" d="M-275 0.05379 L-275.1 2.036 L-275.4 4.005 L-275.8 5.949 L-276.3 7.855 L-277 9.712 L-277.9 11.51 L-278.8 13.23 L-280 14.87 L-281.2 16.41 L-282.6 17.85 L-284 19.18 L-285.6 20.39 L-287.3 21.47 L-289 22.41 L-290.8 23.21 L-292.7 23.86 L-294.6 24.37 L-296.6 24.72 L-298.6 24.91 L-300.5 24.94 L-302.5 24.82 L-304.5 24.54 L-306.4 24.11 L-308.3 23.52 L-310.2 22.78 L-311.9 21.9 L-313.6 20.89 L-315.3 19.74 L-316.8 18.46 L-318.2 17.07 L-319.5 15.57 L-320.7 13.97 L-321.7 12.28 L-322.6 10.52 L-323.4 8.689 L-324 6.803 L-324.5 4.874 L-324.8 2.915 L-324.9 0.9368 L-324.9 -1.047 L-324.8 -3.024 L-324.4 -4.982 L-324 -6.909 L-323.3 -8.792 L-322.6 -10.62 L-321.7 -12.38 L-320.6 -14.06 L-319.4 -15.65 L-318.1 -17.15 L-316.7 -18.53 L-315.2 -19.8 L-313.6 -20.95 L-311.8 -21.96 L-310.1 -22.83 L-308.2 -23.56 L-306.3 -24.14 L-304.4 -24.56 L-302.4 -24.83 L-300.4 -24.95 L-298.5 -24.9 L-296.5 -24.7 L-294.5 -24.34 L-292.6 -23.83 L-290.7 -23.17 L-288.9 -22.36 L-287.2 -21.41 L-285.5 -20.33 L-284 -19.11 L-282.5 -17.78 L-281.1 -16.33 L-279.9 -14.78 L-278.8 -13.14 L-277.8 -11.41 L-277 -9.613 L-276.3 -7.753 L-275.7 -5.845 L-275.4 -3.899 L-275.1 -1.929 L-275 0.05379 Z " />
<path stroke="rgb(0,0,0)" stroke-opacity="1" fill="rgb(255,255,255)" fill-opacity="1" d="M-312.5 -112.6 L-311.5 -112.6 L-310.5 -112.6 L-309.5 -112.6 L-308.5 -112.6 L-307.5 -112.6 L-306.6 -112.6 L-305.6 -112.6 L-304.6 -112.6 L-303.6 -112.6 L-302.6 -112.6 L-301.6 -112.6 L-300.6 -112.6 L-299.6 -112.6 L-298.6 -112.6 L-297.6 -112.6 L-296.6 -112.6 L-295.6 -112.6 L-294.6 -112.6 L-293.6 -112.5 L-292.6 -112.5 L-291.6 -112.5 L-290.6 -112.5 L-289.6 -112.5 L-288.6 -112.5 L-287.6 -112.5 L-287.6 -111.5 L-287.6 -110.5 L-287.6 -109.5 L-287.6 -108.5 L-287.6 -107.5 L-287.7 -106.6 L-287.7 -105.6 L-287.7 -104.6 L-287.7 -103.6 L-287.7 -102.6 L-287.7 -101.6 L-287.7 -100.6 L-287.7 -99.58 L-287.7 -98.59 L-287.7 -97.59 L-287.7 -96.59 L-287.7 -95.6 L-287.7 -94.6 L-287.7 -93.61 L-287.7 -92.61 L-287.7 -91.61 L-287.7 -90.62 L-287.7 -89.62 L-287.7 -88.63 L-287.7 -87.63 L-288.7 -87.63 L-289.7 -87.64 L-290.7 -87.64 L-291.7 -87.64 L-292.7 -87.65 L-293.7 -87.65 L-294.7 -87.66 L-295.7 -87.66 L-296.7 -87.66 L-297.7 -87.67 L-298.7 -87.67 L-299.7 -87.67 L-300.7 -87.68 L-301.7 -87.68 L-302.7 -87.68 L-303.7 -87.69 L-304.6 -87.69 L-305.6 -87.69 L-306.6 -87.7 L-307.6 -87.7 L-308.6 -87.7 L-309.6 -87.71 L-310.6 -87.71 L-311.6 -87.71 L-312.6 -87.72 L-312.6 -88.71 L-312.6 -89.71 L-312.6 -90.7 L-312.6 -91.7 L-312.6 -92.7 L-312.6 -93.69 L-312.6 -94.69 L-312.6 -95.68 L-312.6 -96.68 L-312.6 -97.67 L-312.6 -98.67 L-312.6 -99.67 L-312.6 -100.7 L-312.6 -101.7 L-312.6 -102.7 L-312.6 -103.6 L-312.6 -104.6 L-312.6 -105.6 L-312.5 -106.6 L-312.5 -107.6 L-312.5 -108.6 L-312.5 -109.6 L-312.5 -110.6 L-312.5 -111.6 L-312.5 -112.6 Z " />
<path stroke="rgb(0,0,0)" stroke-opacity="0.949" fill="rgb(255,255,255)" fill-opacity="1" d="M-75.05 0.05379 L-75.13 2.036 L-75.37 4.005 L-75.77 5.949 L-76.32 7.855 L-77.02 9.712 L-77.86 11.51 L-78.85 13.23 L-79.96 14.87 L-81.21 16.41 L-82.57 17.85 L-84.05 19.18 L-85.62 20.39 L-87.29 21.47 L-89.03 22.41 L-90.85 23.21 L-92.72 23.86 L-94.64 24.37 L-96.59 24.72 L-98.57 24.91 L-100.5 24.94 L-102.5 24.82 L-104.5 24.54 L-106.4 24.11 L-108.3 23.52 L-110.2 22.78 L-111.9 21.9 L-113.6 20.89 L-115.3 19.74 L-116.8 18.46 L-118.2 17.07 L-119.5 15.57 L-120.7 13.97 L-121.7 12.28 L-122.6 10.52 L-123.4 8.689 L-124 6.803 L-124.5 4.874 L-124.8 2.915 L-124.9 0.9368 L-124.9 -1.047 L-124.8 -3.024 L-124.4 -4.982 L-124 -6.909 L-123.3 -8.792 L-122.6 -10.62 L-121.7 -12.38 L-120.6 -14.06 L-119.4 -15.65 L-118.1 -17.15 L-116.7 -18.53 L-115.2 -19.8 L-113.6 -20.95 L-111.8 -21.96 L-110.1 -22.83 L-108.2 -23.56 L-106.3 -24.14 L-104.4 -24.56 L-102.4 -24.83 L-100.4 -24.95 L-98.46 -24.9 L-96.48 -24.7 L-94.53 -24.34 L-92.62 -23.83 L-90.75 -23.17 L-88.93 -22.36 L-87.19 -21.41 L-85.53 -20.33 L-83.96 -19.11 L-82.49 -17.78 L-81.14 -16.33 L-79.9 -14.78 L-78.79 -13.14 L-77.81 -11.41 L-76.98 -9.613 L-76.28 -7.753 L-75.74 -5.845 L-75.36 -3.899 L-75.12 -1.929 L-75.05 0.05379 Z " />
<path stroke="rgb(0,0,0)" stroke-opacity="1" fill="rgb(255,255,255)" fill-opacity="1" d="M-112.4 -113 L-111.4 -113 L-110.4 -112.9 L-109.4 -112.9 L-108.4 -112.9 L-107.3 -112.9 L-106.3 -112.8 L-105.3 -112.8 L-104.3 -112.8 L-103.3 -112.8 L-102.3 -112.7 L-101.3 -112.7 L-100.3 -112.7 L-99.31 -112.7 L-98.3 -112.6 L-97.3 -112.6 L-96.29 -112.6 L-95.29 -112.6 L-94.28 -112.5 L-93.28 -112.5 L-92.27 -112.5 L-91.27 -112.5 L-90.26 -112.4 L-89.26 -112.4 L-88.25 -112.4 L-87.24 -112.4 L-87.27 -111.4 L-87.3 -110.4 L-87.32 -109.4 L-87.35 -108.3 L-87.37 -107.3 L-87.4 -106.3 L-87.42 -105.3 L-87.45 -104.3 L-87.47 -103.3 L-87.5 -102.3 L-87.52 -101.3 L-87.55 -100.3 L-87.57 -99.3 L-87.6 -98.29 L-87.62 -97.29 L-87.65 -96.28 L-87.67 -95.28 L-87.7 -94.27 L-87.72 -93.27 L-87.75 -92.26 L-87.77 -91.26 L-87.8 -90.25 L-87.82 -89.25 L-87.85 -88.24 L-87.88 -87.24 L-88.88 -87.26 L-89.89 -87.29 L-90.89 -87.31 L-91.9 -87.34 L-92.9 -87.36 L-93.91 -87.39 L-94.91 -87.42 L-95.92 -87.44 L-96.92 -87.47 L-97.93 -87.49 L-98.93 -87.52 L-99.94 -87.54 L-100.9 -87.57 L-101.9 -87.59 L-103 -87.62 L-104 -87.64 L-105 -87.67 L-106 -87.69 L-107 -87.72 L-108 -87.74 L-109 -87.77 L-110 -87.79 L-111 -87.82 L-112 -87.84 L-113 -87.87 L-113 -88.87 L-113 -89.88 L-112.9 -90.88 L-112.9 -91.89 L-112.9 -92.89 L-112.9 -93.9 L-112.8 -94.9 L-112.8 -95.91 L-112.8 -96.92 L-112.8 -97.92 L-112.7 -98.93 L-112.7 -99.93 L-112.7 -100.9 L-112.7 -101.9 L-112.6 -102.9 L-112.6 -104 L-112.6 -105 L-112.5 -106 L-112.5 -107 L-112.5 -108 L-112.5 -109 L-112.4 -110 L-112.4 -111 L-112.4 -112 L-112.4 -113 Z " />
<path stroke="rgb(0,0,0)" stroke-opacity="0.949" fill="rgb(255,255,255)" fill-opacity="1" d="M125 0.05379 L124.9 2.036 L124.6 4.005 L124.2 5.949 L123.7 7.855 L123 9.712 L122.1 11.51 L121.2 13.23 L120 14.87 L118.8 16.41 L117.4 17.85 L116 19.18 L114.4 20.39 L112.7 21.47 L111 22.41 L109.2 23.21 L107.3 23.86 L105.4 24.37 L103.4 24.72 L101.4 24.91 L99.45 24.94 L97.47 24.82 L95.51 24.54 L93.57 24.11 L91.68 23.52 L89.83 22.78 L88.05 21.9 L86.35 20.89 L84.74 19.74 L83.22 18.46 L81.8 17.07 L80.5 15.57 L79.33 13.97 L78.28 12.28 L77.38 10.52 L76.61 8.689 L76 6.803 L75.53 4.874 L75.22 2.915 L75.07 0.9368 L75.07 -1.047 L75.23 -3.024 L75.55 -4.982 L76.03 -6.909 L76.65 -8.792 L77.42 -10.62 L78.34 -12.38 L79.39 -14.06 L80.57 -15.65 L81.88 -17.15 L83.3 -18.53 L84.82 -19.8 L86.44 -20.95 L88.15 -21.96 L89.93 -22.83 L91.78 -23.56 L93.68 -24.14 L95.61 -24.56 L97.58 -24.83 L99.56 -24.95 L101.5 -24.9 L103.5 -24.7 L105.5 -24.34 L107.4 -23.83 L109.3 -23.17 L111.1 -22.36 L112.8 -21.41 L114.5 -20.33 L116 -19.11 L117.5 -17.78 L118.9 -16.33 L120.1 -14.78 L121.2 -13.14 L122.2 -11.41 L123 -9.613 L123.7 -7.753 L124.3 -5.845 L124.6 -3.899 L124.9 -1.929 L125 0.05379 Z " />
<path stroke="rgb(0,0,0)" stroke-opacity="1" fill="rgb(255,255,255)" fill-opacity="1" d="M89.66 -116.7 L90.74 -116.5 L91.81 -116.2 L92.88 -115.9 L93.96 -115.7 L95.03 -115.4 L96.1 -115.2 L97.18 -114.9 L98.25 -114.7 L99.32 -114.4 L100.4 -114.1 L101.5 -113.9 L102.5 -113.6 L103.6 -113.4 L104.7 -113.1 L105.8 -112.8 L106.8 -112.6 L107.9 -112.3 L109 -112.1 L110.1 -111.8 L111.1 -111.6 L112.2 -111.3 L113.3 -111 L114.3 -110.8 L115.4 -110.5 L116.5 -110.3 L116.2 -109.2 L116 -108.1 L115.7 -107.1 L115.5 -106 L115.2 -104.9 L114.9 -103.8 L114.7 -102.8 L114.4 -101.7 L114.2 -100.6 L113.9 -99.54 L113.7 -98.47 L113.4 -97.39 L113.1 -96.32 L112.9 -95.25 L112.6 -94.18 L112.4 -93.1 L112.1 -92.03 L111.9 -90.96 L111.6 -89.88 L111.3 -88.81 L111.1 -87.74 L110.8 -86.66 L110.6 -85.59 L110.3 -84.52 L110 -83.44 L109 -83.7 L107.9 -83.96 L106.8 -84.22 L105.8 -84.48 L104.7 -84.73 L103.6 -84.99 L102.5 -85.25 L101.5 -85.51 L100.4 -85.76 L99.32 -86.02 L98.24 -86.28 L97.17 -86.54 L96.1 -86.8 L95.02 -87.05 L93.95 -87.31 L92.88 -87.57 L91.8 -87.83 L90.73 -88.09 L89.66 -88.34 L88.58 -88.6 L87.51 -88.86 L86.44 -89.12 L85.37 -89.37 L84.29 -89.63 L83.22 -89.89 L83.48 -90.96 L83.73 -92.04 L83.99 -93.11 L84.25 -94.18 L84.51 -95.26 L84.77 -96.33 L85.02 -97.4 L85.28 -98.47 L85.54 -99.55 L85.8 -100.6 L86.06 -101.7 L86.31 -102.8 L86.57 -103.8 L86.83 -104.9 L87.09 -106 L87.34 -107.1 L87.6 -108.1 L87.86 -109.2 L88.12 -110.3 L88.38 -111.4 L88.63 -112.4 L88.89 -113.5 L89.15 -114.6 L89.41 -115.6 L89.66 -116.7 Z " />
<path stroke="rgb(0,0,0)" stroke-opacity="0.949" fill="rgb(255,255,255)" fill-opacity="1" d="M325 0.05379 L324.9 2.036 L324.6 4.005 L324.2 5.949 L323.7 7.855 L323 9.712 L322.1 11.51 L321.2 13.23 L320 14.87 L318.8 16.41 L317.4 17.85 L316 19.18 L314.4 20.39 L312.7 21.47 L311 22.41 L309.2 23.21 L307.3 23.86 L305.4 24.37 L303.4 24.72 L301.4 24.91 L299.5 24.94 L297.5 24.82 L295.5 24.54 L293.6 24.11 L291.7 23.52 L289.8 22.78 L288.1 21.9 L286.4 20.89 L284.7 19.74 L283.2 18.46 L281.8 17.07 L280.5 15.57 L279.3 13.97 L278.3 12.28 L277.4 10.52 L276.6 8.689 L276 6.803 L275.5 4.874 L275.2 2.915 L275.1 0.9368 L275.1 -1.047 L275.2 -3.024 L275.6 -4.982 L276 -6.909 L276.7 -8.792 L277.4 -10.62 L278.3 -12.38 L279.4 -14.06 L280.6 -15.65 L281.9 -17.15 L283.3 -18.53 L284.8 -19.8 L286.4 -20.95 L288.2 -21.96 L289.9 -22.83 L291.8 -23.56 L293.7 -24.14 L295.6 -24.56 L297.6 -24.83 L299.6 -24.95 L301.5 -24.9 L303.5 -24.7 L305.5 -24.34 L307.4 -23.83 L309.3 -23.17 L311.1 -22.36 L312.8 -21.41 L314.5 -20.33 L316 -19.11 L317.5 -17.78 L318.9 -16.33 L320.1 -14.78 L321.2 -13.14 L322.2 -11.41 L323 -9.613 L323.7 -7.753 L324.3 -5.845 L324.6 -3.899 L324.9 -1.929 L325 0.05379 Z " />
<path stroke="rgb(0,0,0)" stroke-opacity="1" fill="rgb(255,255,255)" fill-opacity="1" d="M-412.5 -12.61 L-411.5 -12.61 L-410.5 -12.61 L-409.5 -12.6 L-408.5 -12.6 L-407.5 -12.6 L-406.6 -12.59 L-405.6 -12.59 L-404.6 -12.58 L-403.6 -12.58 L-402.6 -12.58 L-401.6 -12.57 L-400.6 -12.57 L-399.6 -12.57 L-398.6 -12.56 L-397.6 -12.56 L-396.6 -12.56 L-395.6 -12.55 L-394.6 -12.55 L-393.6 -12.55 L-392.6 -12.54 L-391.6 -12.54 L-390.6 -12.54 L-389.6 -12.53 L-388.6 -12.53 L-387.6 -12.53 L-387.6 -11.53 L-387.6 -10.54 L-387.6 -9.54 L-387.6 -8.544 L-387.6 -7.548 L-387.7 -6.552 L-387.7 -5.556 L-387.7 -4.56 L-387.7 -3.565 L-387.7 -2.569 L-387.7 -1.573 L-387.7 -0.5771 L-387.7 0.4187 L-387.7 1.415 L-387.7 2.41 L-387.7 3.406 L-387.7 4.402 L-387.7 5.398 L-387.7 6.394 L-387.7 7.39 L-387.7 8.385 L-387.7 9.381 L-387.7 10.38 L-387.7 11.37 L-387.7 12.37 L-388.7 12.37 L-389.7 12.36 L-390.7 12.36 L-391.7 12.36 L-392.7 12.35 L-393.7 12.35 L-394.7 12.34 L-395.7 12.34 L-396.7 12.34 L-397.7 12.33 L-398.7 12.33 L-399.7 12.33 L-400.7 12.32 L-401.7 12.32 L-402.7 12.32 L-403.7 12.31 L-404.6 12.31 L-405.6 12.31 L-406.6 12.3 L-407.6 12.3 L-408.6 12.3 L-409.6 12.29 L-410.6 12.29 L-411.6 12.29 L-412.6 12.28 L-412.6 11.29 L-412.6 10.29 L-412.6 9.296 L-412.6 8.3 L-412.6 7.305 L-412.6 6.309 L-412.6 5.313 L-412.6 4.317 L-412.6 3.321 L-412.6 2.325 L-412.6 1.33 L-412.6 0.3337 L-412.6 -0.6621 L-412.6 -1.658 L-412.6 -2.654 L-412.6 -3.65 L-412.6 -4.645 L-412.6 -5.641 L-412.5 -6.637 L-412.5 -7.633 L-412.5 -8.629 L-412.5 -9.625 L-412.5 -10.62 L-412.5 -11.62 L-412.5 -12.61 Z " />
<path stroke="rgb(0,0,0)" stroke-opacity="0.949" fill="rgb(255,255,255)" fill-opacity="1" d="M-175 100.1 L-175.1 102 L-175.4 104 L-175.8 105.9 L-176.3 107.9 L-177 109.7 L-177.9 111.5 L-178.8 113.2 L-180 114.9 L-181.2 116.4 L-182.6 117.9 L-184 119.2 L-185.6 120.4 L-187.3 121.5 L-189 122.4 L-190.8 123.2 L-192.7 123.9 L-194.6 124.4 L-196.6 124.7 L-198.6 124.9 L-200.5 124.9 L-202.5 124.8 L-204.5 124.5 L-206.4 124.1 L-208.3 123.5 L-210.2 122.8 L-211.9 121.9 L-213.6 120.9 L-215.3 119.7 L-216.8 118.5 L-218.2 117.1 L-219.5 115.6 L-220.7 114 L-221.7 112.3 L-222.6 110.5 L-223.4 108.7 L-224 106.8 L-224.5 104.9 L-224.8 102.9 L-224.9 100.9 L-224.9 98.95 L-224.8 96.98 L-224.4 95.02 L-224 93.09 L-223.3 91.21 L-222.6 89.38 L-221.7 87.62 L-220.6 85.94 L-219.4 84.35 L-218.1 82.85 L-216.7 81.47 L-215.2 80.2 L-213.6 79.05 L-211.8 78.04 L-210.1 77.17 L-208.2 76.44 L-206.3 75.86 L-204.4 75.44 L-202.4 75.17 L-200.4 75.05 L-198.5 75.1 L-196.5 75.3 L-194.5 75.66 L-192.6 76.17 L-190.7 76.83 L-188.9 77.64 L-187.2 78.59 L-185.5 79.67 L-184 80.89 L-182.5 82.22 L-181.1 83.67 L-179.9 85.22 L-178.8 86.86 L-177.8 88.59 L-177 90.39 L-176.3 92.25 L-175.7 94.16 L-175.4 96.1 L-175.1 98.07 L-175 100.1 Z " />
<path stroke="rgb(0,0,0)" stroke-opacity="1" fill="rgb(255,255,255)" fill-opacity="1" d="M-212.4 -13 L-211.4 -12.97 L-210.4 -12.95 L-209.4 -12.92 L-208.4 -12.9 L-207.3 -12.87 L-206.3 -12.85 L-205.3 -12.82 L-204.3 -12.8 L-203.3 -12.77 L-202.3 -12.74 L-201.3 -12.72 L-200.3 -12.69 L-199.3 -12.67 L-198.3 -12.64 L-197.3 -12.62 L-196.3 -12.59 L-195.3 -12.57 L-194.3 -12.54 L-193.3 -12.52 L-192.3 -12.49 L-191.3 -12.47 L-190.3 -12.44 L-189.3 -12.42 L-188.3 -12.39 L-187.2 -12.37 L-187.3 -11.36 L-187.3 -10.36 L-187.3 -9.351 L-187.3 -8.346 L-187.4 -7.341 L-187.4 -6.336 L-187.4 -5.331 L-187.4 -4.326 L-187.5 -3.321 L-187.5 -2.315 L-187.5 -1.31 L-187.5 -0.3052 L-187.6 0.6999 L-187.6 1.705 L-187.6 2.71 L-187.6 3.715 L-187.7 4.72 L-187.7 5.725 L-187.7 6.731 L-187.7 7.736 L-187.8 8.741 L-187.8 9.746 L-187.8 10.75 L-187.9 11.76 L-187.9 12.76 L-188.9 12.74 L-189.9 12.71 L-190.9 12.69 L-191.9 12.66 L-192.9 12.64 L-193.9 12.61 L-194.9 12.58 L-195.9 12.56 L-196.9 12.53 L-197.9 12.51 L-198.9 12.48 L-199.9 12.46 L-200.9 12.43 L-201.9 12.41 L-203 12.38 L-204 12.36 L-205 12.33 L-206 12.31 L-207 12.28 L-208 12.26 L-209 12.23 L-210 12.21 L-211 12.18 L-212 12.16 L-213 12.13 L-213 11.13 L-213 10.12 L-212.9 9.116 L-212.9 8.11 L-212.9 7.105 L-212.9 6.1 L-212.8 5.095 L-212.8 4.09 L-212.8 3.085 L-212.8 2.08 L-212.7 1.075 L-212.7 0.06953 L-212.7 -0.9356 L-212.7 -1.941 L-212.6 -2.946 L-212.6 -3.951 L-212.6 -4.956 L-212.5 -5.961 L-212.5 -6.966 L-212.5 -7.971 L-212.5 -8.977 L-212.4 -9.982 L-212.4 -10.99 L-212.4 -11.99 L-212.4 -13 Z " />
<path stroke="rgb(0,0,0)" stroke-opacity="0.949" fill="rgb(255,255,255)" fill-opacity="1" d="M24.95 100.1 L24.87 102 L24.63 104 L24.23 105.9 L23.68 107.9 L22.98 109.7 L22.14 111.5 L21.15 113.2 L20.04 114.9 L18.79 116.4 L17.43 117.9 L15.95 119.2 L14.38 120.4 L12.71 121.5 L10.97 122.4 L9.153 123.2 L7.28 123.9 L5.361 124.4 L3.408 124.7 L1.434 124.9 L-0.5499 124.9 L-2.53 124.8 L-4.494 124.5 L-6.43 124.1 L-8.325 123.5 L-10.17 122.8 L-11.95 121.9 L-13.65 120.9 L-15.26 119.7 L-16.78 118.5 L-18.2 117.1 L-19.5 115.6 L-20.67 114 L-21.72 112.3 L-22.62 110.5 L-23.39 108.7 L-24 106.8 L-24.47 104.9 L-24.78 102.9 L-24.93 100.9 L-24.93 98.95 L-24.77 96.98 L-24.45 95.02 L-23.97 93.09 L-23.35 91.21 L-22.58 89.38 L-21.66 87.62 L-20.61 85.94 L-19.43 84.35 L-18.12 82.85 L-16.7 81.47 L-15.18 80.2 L-13.56 79.05 L-11.85 78.04 L-10.07 77.17 L-8.222 76.44 L-6.324 75.86 L-4.387 75.44 L-2.422 75.17 L-0.441 75.05 L1.542 75.1 L3.516 75.3 L5.467 75.66 L7.384 76.17 L9.254 76.83 L11.07 77.64 L12.81 78.59 L14.47 79.67 L16.04 80.89 L17.51 82.22 L18.86 83.67 L20.1 85.22 L21.21 86.86 L22.19 88.59 L23.02 90.39 L23.72 92.25 L24.26 94.16 L24.64 96.1 L24.88 98.07 L24.95 100.1 Z " />
<path stroke="rgb(0,0,0)" stroke-opacity="1" fill="rgb(255,255,255)" fill-opacity="1" d="M-10.34 -16.72 L-9.262 -16.46 L-8.189 -16.2 L-7.116 -15.94 L-6.043 -15.69 L-4.97 -15.43 L-3.897 -15.17 L-2.824 -14.91 L-1.751 -14.65 L-0.6775 -14.4 L0.3955 -14.14 L1.469 -13.88 L2.542 -13.62 L3.615 -13.37 L4.688 -13.11 L5.761 -12.85 L6.834 -12.59 L7.907 -12.33 L8.98 -12.08 L10.05 -11.82 L11.13 -11.56 L12.2 -11.3 L13.27 -11.04 L14.35 -10.79 L15.42 -10.53 L16.49 -10.27 L16.23 -9.198 L15.98 -8.125 L15.72 -7.052 L15.46 -5.979 L15.2 -4.906 L14.94 -3.833 L14.69 -2.76 L14.43 -1.687 L14.17 -0.6137 L13.91 0.4594 L13.66 1.532 L13.4 2.606 L13.14 3.679 L12.88 4.752 L12.62 5.825 L12.37 6.898 L12.11 7.971 L11.85 9.044 L11.59 10.12 L11.34 11.19 L11.08 12.26 L10.82 13.34 L10.56 14.41 L10.3 15.48 L10.05 16.56 L8.973 16.3 L7.9 16.04 L6.827 15.78 L5.754 15.52 L4.681 15.27 L3.608 15.01 L2.535 14.75 L1.462 14.49 L0.3886 14.24 L-0.6845 13.98 L-1.758 13.72 L-2.831 13.46 L-3.904 13.2 L-4.977 12.95 L-6.05 12.69 L-7.123 12.43 L-8.196 12.17 L-9.269 11.91 L-10.34 11.66 L-11.42 11.4 L-12.49 11.14 L-13.56 10.88 L-14.63 10.63 L-15.71 10.37 L-16.78 10.11 L-16.52 9.037 L-16.27 7.964 L-16.01 6.891 L-15.75 5.818 L-15.49 4.745 L-15.23 3.672 L-14.98 2.599 L-14.72 1.526 L-14.46 0.4524 L-14.2 -0.6207 L-13.94 -1.694 L-13.69 -2.767 L-13.43 -3.84 L-13.17 -4.913 L-12.91 -5.986 L-12.66 -7.059 L-12.4 -8.132 L-12.14 -9.205 L-11.88 -10.28 L-11.62 -11.35 L-11.37 -12.42 L-11.11 -13.5 L-10.85 -14.57 L-10.59 -15.64 L-10.34 -16.72 Z " />
<path stroke="rgb(0,0,0)" stroke-opacity="0.949" fill="rgb(255,255,255)" fill-opacity="1" d="M225 100.1 L224.9 102 L224.6 104 L224.2 105.9 L223.7 107.9 L223 109.7 L222.1 111.5 L221.2 113.2 L220 114.9 L218.8 116.4 L217.4 117.9 L216 119.2 L214.4 120.4 L212.7 121.5 L211 122.4 L209.2 123.2 L207.3 123.9 L205.4 124.4 L203.4 124.7 L201.4 124.9 L199.5 124.9 L197.5 124.8 L195.5 124.5 L193.6 124.1 L191.7 123.5 L189.8 122.8 L188.1 121.9 L186.4 120.9 L184.7 119.7 L183.2 118.5 L181.8 117.1 L180.5 115.6 L179.3 114 L178.3 112.3 L177.4 110.5 L176.6 108.7 L176 106.8 L175.5 104.9 L175.2 102.9 L175.1 100.9 L175.1 98.95 L175.2 96.98 L175.6 95.02 L176 93.09 L176.7 91.21 L177.4 89.38 L178.3 87.62 L179.4 85.94 L180.6 84.35 L181.9 82.85 L183.3 81.47 L184.8 80.2 L186.4 79.05 L188.2 78.04 L189.9 77.17 L191.8 76.44 L193.7 75.86 L195.6 75.44 L197.6 75.17 L199.6 75.05 L201.5 75.1 L203.5 75.3 L205.5 75.66 L207.4 76.17 L209.3 76.83 L211.1 77.64 L212.8 78.59 L214.5 79.67 L216 80.89 L217.5 82.22 L218.9 83.67 L220.1 85.22 L221.2 86.86 L222.2 88.59 L223 90.39 L223.7 92.25 L224.3 94.16 L224.6 96.1 L224.9 98.07 L225 100.1 Z " />
<path stroke="rgb(0,0,0)" stroke-opacity="1" fill="rgb(255,255,255)" fill-opacity="1" d="M201.6 -25.61 L202.5 -24.51 L203.5 -23.41 L204.4 -22.31 L205.4 -21.21 L206.3 -20.11 L207.3 -19.02 L208.2 -17.92 L209.2 -16.82 L210.1 -15.72 L211.1 -14.62 L212 -13.52 L213 -12.43 L213.9 -11.33 L214.9 -10.23 L215.8 -9.131 L216.8 -8.032 L217.7 -6.934 L218.7 -5.835 L219.6 -4.737 L220.6 -3.639 L221.5 -2.54 L222.5 -1.442 L223.4 -0.3435 L224.4 0.7548 L225.4 1.853 L224.3 2.804 L223.2 3.755 L222.1 4.706 L221 5.656 L219.9 6.607 L218.8 7.558 L217.7 8.509 L216.6 9.459 L215.5 10.41 L214.4 11.36 L213.3 12.31 L212.2 13.26 L211.1 14.21 L210 15.16 L208.9 16.11 L207.8 17.07 L206.7 18.02 L205.6 18.97 L204.5 19.92 L203.4 20.87 L202.3 21.82 L201.2 22.77 L200.1 23.72 L199 24.67 L197.9 25.62 L196.9 24.52 L196 23.43 L195 22.33 L194.1 21.23 L193.1 20.13 L192.2 19.03 L191.2 17.93 L190.3 16.84 L189.3 15.74 L188.4 14.64 L187.4 13.54 L186.5 12.44 L185.5 11.34 L184.6 10.25 L183.6 9.147 L182.7 8.049 L181.7 6.95 L180.8 5.852 L179.8 4.754 L178.9 3.655 L177.9 2.557 L177 1.458 L176 0.36 L175.1 -0.7384 L174.1 -1.837 L175.2 -2.788 L176.3 -3.738 L177.4 -4.689 L178.5 -5.64 L179.6 -6.591 L180.7 -7.541 L181.8 -8.492 L182.9 -9.443 L184 -10.39 L185.1 -11.34 L186.2 -12.3 L187.3 -13.25 L188.4 -14.2 L189.5 -15.15 L190.6 -16.1 L191.7 -17.05 L192.8 -18 L193.9 -18.95 L195 -19.9 L196.1 -20.85 L197.2 -21.8 L198.3 -22.75 L199.4 -23.7 L200.5 -24.66 L201.6 -25.61 Z " />
<path stroke="rgb(0,0,0)" stroke-opacity="0.949" fill="rgb(255,255,255)" fill-opacity="1" d="M-275 200.1 L-275.1 202 L-275.4 204 L-275.8 205.9 L-276.3 207.9 L-277 209.7 L-277.9 211.5 L-278.8 213.2 L-280 214.9 L-281.2 216.4 L-282.6 217.9 L-284 219.2 L-285.6 220.4 L-287.3 221.5 L-289 222.4 L-290.8 223.2 L-292.7 223.9 L-294.6 224.4 L-296.6 224.7 L-298.6 224.9 L-300.5 224.9 L-302.5 224.8 L-304.5 224.5 L-306.4 224.1 L-308.3 223.5 L-310.2 222.8 L-311.9 221.9 L-313.6 220.9 L-315.3 219.7 L-316.8 218.5 L-318.2 217.1 L-319.5 215.6 L-320.7 214 L-321.7 212.3 L-322.6 210.5 L-323.4 208.7 L-324 206.8 L-324.5 204.9 L-324.8 202.9 L-324.9 200.9 L-324.9 199 L-324.8 197 L-324.4 195 L-324 193.1 L-323.3 191.2 L-322.6 189.4 L-321.7 187.6 L-320.6 185.9 L-319.4 184.3 L-318.1 182.9 L-316.7 181.5 L-315.2 180.2 L-313.6 179.1 L-311.8 178 L-310.1 177.2 L-308.2 176.4 L-306.3 175.9 L-304.4 175.4 L-302.4 175.2 L-300.4 175.1 L-298.5 175.1 L-296.5 175.3 L-294.5 175.7 L-292.6 176.2 L-290.7 176.8 L-288.9 177.6 L-287.2 178.6 L-285.5 179.7 L-284 180.9 L-282.5 182.2 L-281.1 183.7 L-279.9 185.2 L-278.8 186.9 L-277.8 188.6 L-277 190.4 L-276.3 192.2 L-275.7 194.2 L-275.4 196.1 L-275.1 198.1 L-275 200.1 Z " />
<path stroke="rgb(0,0,0)" stroke-opacity="1" fill="rgb(255,255,255)" fill-opacity="1" d="M-312.4 87 L-311.4 87.03 L-310.4 87.05 L-309.4 87.08 L-308.4 87.1 L-307.3 87.13 L-306.3 87.15 L-305.3 87.18 L-304.3 87.2 L-303.3 87.23 L-302.3 87.26 L-301.3 87.28 L-300.3 87.31 L-299.3 87.33 L-298.3 87.36 L-297.3 87.38 L-296.3 87.41 L-295.3 87.43 L-294.3 87.46 L-293.3 87.48 L-292.3 87.51 L-291.3 87.53 L-290.3 87.56 L-289.3 87.58 L-288.3 87.61 L-287.2 87.63 L-287.3 88.64 L-287.3 89.64 L-287.3 90.65 L-287.3 91.65 L-287.4 92.66 L-287.4 93.66 L-287.4 94.67 L-287.4 95.67 L-287.5 96.68 L-287.5 97.68 L-287.5 98.69 L-287.5 99.69 L-287.6 100.7 L-287.6 101.7 L-287.6 102.7 L-287.6 103.7 L-287.7 104.7 L-287.7 105.7 L-287.7 106.7 L-287.7 107.7 L-287.8 108.7 L-287.8 109.7 L-287.8 110.8 L-287.9 111.8 L-287.9 112.8 L-288.9 112.7 L-289.9 112.7 L-290.9 112.7 L-291.9 112.7 L-292.9 112.6 L-293.9 112.6 L-294.9 112.6 L-295.9 112.6 L-296.9 112.5 L-297.9 112.5 L-298.9 112.5 L-299.9 112.5 L-300.9 112.4 L-301.9 112.4 L-303 112.4 L-304 112.4 L-305 112.3 L-306 112.3 L-307 112.3 L-308 112.3 L-309 112.2 L-310 112.2 L-311 112.2 L-312 112.2 L-313 112.1 L-313 111.1 L-313 110.1 L-312.9 109.1 L-312.9 108.1 L-312.9 107.1 L-312.9 106.1 L-312.8 105.1 L-312.8 104.1 L-312.8 103.1 L-312.8 102.1 L-312.7 101.1 L-312.7 100.1 L-312.7 99.06 L-312.7 98.06 L-312.6 97.05 L-312.6 96.05 L-312.6 95.04 L-312.5 94.04 L-312.5 93.03 L-312.5 92.03 L-312.5 91.02 L-312.4 90.02 L-312.4 89.01 L-312.4 88.01 L-312.4 87 Z " />
<path stroke="rgb(0,0,0)" stroke-opacity="0.949" fill="rgb(255,255,255)" fill-opacity="1" d="M-75.05 200.1 L-75.13 202 L-75.37 204 L-75.77 205.9 L-76.32 207.9 L-77.02 209.7 L-77.86 211.5 L-78.85 213.2 L-79.96 214.9 L-81.21 216.4 L-82.57 217.9 L-84.05 219.2 L-85.62 220.4 L-87.29 221.5 L-89.03 222.4 L-90.85 223.2 L-92.72 223.9 L-94.64 224.4 L-96.59 224.7 L-98.57 224.9 L-100.5 224.9 L-102.5 224.8 L-104.5 224.5 L-106.4 224.1 L-108.3 223.5 L-110.2 222.8 L-111.9 221.9 L-113.6 220.9 L-115.3 219.7 L-116.8 218.5 L-118.2 217.1 L-119.5 215.6 L-120.7 214 L-121.7 212.3 L-122.6 210.5 L-123.4 208.7 L-124 206.8 L-124.5 204.9 L-124.8 202.9 L-124.9 200.9 L-124.9 199 L-124.8 197 L-124.4 195 L-124 193.1 L-123.3 191.2 L-122.6 189.4 L-121.7 187.6 L-120.6 185.9 L-119.4 184.3 L-118.1 182.9 L-116.7 181.5 L-115.2 180.2 L-113.6 179.1 L-111.8 178 L-110.1 177.2 L-108.2 176.4 L-106.3 175.9 L-104.4 175.4 L-102.4 175.2 L-100.4 175.1 L-98.46 175.1 L-96.48 175.3 L-94.53 175.7 L-92.62 176.2 L-90.75 176.8 L-88.93 177.6 L-87.19 178.6 L-85.53 179.7 L-83.96 180.9 L-82.49 182.2 L-81.14 183.7 L-79.9 185.2 L-78.79 186.9 L-77.81 188.6 L-76.98 190.4 L-76.28 192.2 L-75.74 194.2 L-75.36 196.1 L-75.12 198.1 L-75.05 200.1 Z " />
<path stroke="rgb(0,0,0)" stroke-opacity="1" fill="rgb(255,255,255)" fill-opacity="1" d="M-110.3 83.28 L-109.3 83.54 L-108.2 83.8 L-107.1 84.06 L-106 84.31 L-105 84.57 L-103.9 84.83 L-102.8 85.09 L-101.8 85.35 L-100.7 85.6 L-99.6 85.86 L-98.53 86.12 L-97.46 86.38 L-96.39 86.63 L-95.31 86.89 L-94.24 87.15 L-93.17 87.41 L-92.09 87.67 L-91.02 87.92 L-89.95 88.18 L-88.87 88.44 L-87.8 88.7 L-86.73 88.96 L-85.65 89.21 L-84.58 89.47 L-83.51 89.73 L-83.77 90.8 L-84.02 91.87 L-84.28 92.95 L-84.54 94.02 L-84.8 95.09 L-85.06 96.17 L-85.31 97.24 L-85.57 98.31 L-85.83 99.39 L-86.09 100.5 L-86.34 101.5 L-86.6 102.6 L-86.86 103.7 L-87.12 104.8 L-87.38 105.8 L-87.63 106.9 L-87.89 108 L-88.15 109 L-88.41 110.1 L-88.66 111.2 L-88.92 112.3 L-89.18 113.3 L-89.44 114.4 L-89.7 115.5 L-89.95 116.6 L-91.03 116.3 L-92.1 116 L-93.17 115.8 L-94.25 115.5 L-95.32 115.3 L-96.39 115 L-97.47 114.8 L-98.54 114.5 L-99.61 114.2 L-100.7 114 L-101.8 113.7 L-102.8 113.5 L-103.9 113.2 L-105 112.9 L-106 112.7 L-107.1 112.4 L-108.2 112.2 L-109.3 111.9 L-110.3 111.7 L-111.4 111.4 L-112.5 111.1 L-113.6 110.9 L-114.6 110.6 L-115.7 110.4 L-116.8 110.1 L-116.5 109 L-116.3 108 L-116 106.9 L-115.7 105.8 L-115.5 104.7 L-115.2 103.7 L-115 102.6 L-114.7 101.5 L-114.5 100.5 L-114.2 99.38 L-113.9 98.31 L-113.7 97.23 L-113.4 96.16 L-113.2 95.09 L-112.9 94.01 L-112.7 92.94 L-112.4 91.87 L-112.1 90.79 L-111.9 89.72 L-111.6 88.65 L-111.4 87.58 L-111.1 86.5 L-110.9 85.43 L-110.6 84.36 L-110.3 83.28 Z " />
<path stroke="rgb(0,0,0)" stroke-opacity="0.949" fill="rgb(255,255,255)" fill-opacity="1" d="M125 200.1 L124.9 202 L124.6 204 L124.2 205.9 L123.7 207.9 L123 209.7 L122.1 211.5 L121.2 213.2 L120 214.9 L118.8 216.4 L117.4 217.9 L116 219.2 L114.4 220.4 L112.7 221.5 L111 222.4 L109.2 223.2 L107.3 223.9 L105.4 224.4 L103.4 224.7 L101.4 224.9 L99.45 224.9 L97.47 224.8 L95.51 224.5 L93.57 224.1 L91.68 223.5 L89.83 222.8 L88.05 221.9 L86.35 220.9 L84.74 219.7 L83.22 218.5 L81.8 217.1 L80.5 215.6 L79.33 214 L78.28 212.3 L77.38 210.5 L76.61 208.7 L76 206.8 L75.53 204.9 L75.22 202.9 L75.07 200.9 L75.07 199 L75.23 197 L75.55 195 L76.03 193.1 L76.65 191.2 L77.42 189.4 L78.34 187.6 L79.39 185.9 L80.57 184.3 L81.88 182.9 L83.3 181.5 L84.82 180.2 L86.44 179.1 L88.15 178 L89.93 177.2 L91.78 176.4 L93.68 175.9 L95.61 175.4 L97.58 175.2 L99.56 175.1 L101.5 175.1 L103.5 175.3 L105.5 175.7 L107.4 176.2 L109.3 176.8 L111.1 177.6 L112.8 178.6 L114.5 179.7 L116 180.9 L117.5 182.2 L118.9 183.7 L120.1 185.2 L121.2 186.9 L122.2 188.6 L123 190.4 L123.7 192.2 L124.3 194.2 L124.6 196.1 L124.9 198.1 L125 200.1 Z " />
<path stroke="rgb(0,0,0)" stroke-opacity="1" fill="rgb(255,255,255)" fill-opacity="1" d="M101.6 74.39 L102.5 75.49 L103.5 76.59 L104.4 77.69 L105.4 78.79 L106.3 79.89 L107.3 80.98 L108.2 82.08 L109.2 83.18 L110.1 84.28 L111.1 85.38 L112 86.48 L113 87.57 L113.9 88.67 L114.9 89.77 L115.8 90.87 L116.8 91.97 L117.7 93.07 L118.7 94.16 L119.6 95.26 L120.6 96.36 L121.5 97.46 L122.5 98.56 L123.4 99.66 L124.4 100.8 L125.4 101.9 L124.3 102.8 L123.2 103.8 L122.1 104.7 L121 105.7 L119.9 106.6 L118.8 107.6 L117.7 108.5 L116.6 109.5 L115.5 110.4 L114.4 111.4 L113.3 112.3 L112.2 113.3 L111.1 114.2 L110 115.2 L108.9 116.1 L107.8 117.1 L106.7 118 L105.6 119 L104.5 119.9 L103.4 120.9 L102.3 121.8 L101.2 122.8 L100.1 123.7 L98.99 124.7 L97.89 125.6 L96.94 124.5 L95.99 123.4 L95.04 122.3 L94.09 121.2 L93.14 120.1 L92.19 119 L91.24 117.9 L90.29 116.8 L89.33 115.7 L88.38 114.6 L87.43 113.5 L86.48 112.4 L85.53 111.3 L84.58 110.2 L83.63 109.1 L82.68 108 L81.73 107 L80.78 105.9 L79.83 104.8 L78.88 103.7 L77.93 102.6 L76.97 101.5 L76.02 100.4 L75.07 99.26 L74.12 98.16 L75.22 97.21 L76.32 96.26 L77.42 95.31 L78.52 94.36 L79.61 93.41 L80.71 92.46 L81.81 91.51 L82.91 90.56 L84.01 89.61 L85.11 88.66 L86.2 87.7 L87.3 86.75 L88.4 85.8 L89.5 84.85 L90.6 83.9 L91.7 82.95 L92.79 82 L93.89 81.05 L94.99 80.1 L96.09 79.15 L97.19 78.2 L98.29 77.25 L99.38 76.3 L100.5 75.34 L101.6 74.39 Z " />
<path stroke="rgb(0,0,0)" stroke-opacity="0.949" fill="rgb(255,255,255)" fill-opacity="1" d="M325 200.1 L324.9 202 L324.6 204 L324.2 205.9 L323.7 207.9 L323 209.7 L322.1 211.5 L321.2 213.2 L320 214.9 L318.8 216.4 L317.4 217.9 L316 219.2 L314.4 220.4 L312.7 221.5 L311 222.4 L309.2 223.2 L307.3 223.9 L305.4 224.4 L303.4 224.7 L301.4 224.9 L299.5 224.9 L297.5 224.8 L295.5 224.5 L293.6 224.1 L291.7 223.5 L289.8 222.8 L288.1 221.9 L286.4 220.9 L284.7 219.7 L283.2 218.5 L281.8 217.1 L280.5 215.6 L279.3 214 L278.3 212.3 L277.4 210.5 L276.6 208.7 L276 206.8 L275.5 204.9 L275.2 202.9 L275.1 200.9 L275.1 199 L275.2 197 L275.6 195 L276 193.1 L276.7 191.2 L277.4 189.4 L278.3 187.6 L279.4 185.9 L280.6 184.3 L281.9 182.9 L283.3 181.5 L284.8 180.2 L286.4 179.1 L288.2 178 L289.9 177.2 L291.8 176.4 L293.7 175.9 L295.6 175.4 L297.6 175.2 L299.6 175.1 L301.5 175.1 L303.5 175.3 L305.5 175.7 L307.4 176.2 L309.3 176.8 L311.1 177.6 L312.8 178.6 L314.5 179.7 L316 180.9 L317.5 182.2 L318.9 183.7 L320.1 185.2 L321.2 186.9 L322.2 188.6 L323 190.4 L323.7 192.2 L324.3 194.2 L324.6 196.1 L324.9 198.1 L325 200.1 Z " />
<path stroke="rgb(0,0,0)" stroke-opacity="1" fill="rgb(255,255,255)" fill-opacity="1" d="M-412.4 187 L-411.4 187 L-410.4 187.1 L-409.4 187.1 L-408.4 187.1 L-407.3 187.1 L-406.3 187.2 L-405.3 187.2 L-404.3 187.2 L-403.3 187.2 L-402.3 187.3 L-401.3 187.3 L-400.3 187.3 L-399.3 187.3 L-398.3 187.4 L-397.3 187.4 L-396.3 187.4 L-395.3 187.4 L-394.3 187.5 L-393.3 187.5 L-392.3 187.5 L-391.3 187.5 L-390.3 187.6 L-389.3 187.6 L-388.3 187.6 L-387.2 187.6 L-387.3 188.6 L-387.3 189.6 L-387.3 190.6 L-387.3 191.7 L-387.4 192.7 L-387.4 193.7 L-387.4 194.7 L-387.4 195.7 L-387.5 196.7 L-387.5 197.7 L-387.5 198.7 L-387.5 199.7 L-387.6 200.7 L-387.6 201.7 L-387.6 202.7 L-387.6 203.7 L-387.7 204.7 L-387.7 205.7 L-387.7 206.7 L-387.7 207.7 L-387.8 208.7 L-387.8 209.7 L-387.8 210.8 L-387.9 211.8 L-387.9 212.8 L-388.9 212.7 L-389.9 212.7 L-390.9 212.7 L-391.9 212.7 L-392.9 212.6 L-393.9 212.6 L-394.9 212.6 L-395.9 212.6 L-396.9 212.5 L-397.9 212.5 L-398.9 212.5 L-399.9 212.5 L-400.9 212.4 L-401.9 212.4 L-403 212.4 L-404 212.4 L-405 212.3 L-406 212.3 L-407 212.3 L-408 212.3 L-409 212.2 L-410 212.2 L-411 212.2 L-412 212.2 L-413 212.1 L-413 211.1 L-413 210.1 L-412.9 209.1 L-412.9 208.1 L-412.9 207.1 L-412.9 206.1 L-412.8 205.1 L-412.8 204.1 L-412.8 203.1 L-412.8 202.1 L-412.7 201.1 L-412.7 200.1 L-412.7 199.1 L-412.7 198.1 L-412.6 197.1 L-412.6 196 L-412.6 195 L-412.5 194 L-412.5 193 L-412.5 192 L-412.5 191 L-412.4 190 L-412.4 189 L-412.4 188 L-412.4 187 Z " />
<path stroke="rgb(0,0,0)" stroke-opacity="0.949" fill="rgb(255,255,255)" fill-opacity="1" d="M-175 300.1 L-175.1 302 L-175.4 304 L-175.8 305.9 L-176.3 307.9 L-177 309.7 L-177.9 311.5 L-178.8 313.2 L-180 314.9 L-181.2 316.4 L-182.6 317.9 L-184 319.2 L-185.6 320.4 L-187.3 321.5 L-189 322.4 L-190.8 323.2 L-192.7 323.9 L-194.6 324.4 L-196.6 324.7 L-198.6 324.9 L-200.5 324.9 L-202.5 324.8 L-204.5 324.5 L-206.4 324.1 L-208.3 323.5 L-210.2 322.8 L-211.9 321.9 L-213.6 320.9 L-215.3 319.7 L-216.8 318.5 L-218.2 317.1 L-219.5 315.6 L-220.7 314 L-221.7 312.3 L-222.6 310.5 L-223.4 308.7 L-224 306.8 L-224.5 304.9 L-224.8 302.9 L-224.9 300.9 L-224.9 299 L-224.8 297 L-224.4 295 L-224 293.1 L-223.3 291.2 L-222.6 289.4 L-221.7 287.6 L-220.6 285.9 L-219.4 284.3 L-218.1 282.9 L-216.7 281.5 L-215.2 280.2 L-213.6 279.1 L-211.8 278 L-210.1 277.2 L-208.2 276.4 L-206.3 275.9 L-204.4 275.4 L-202.4 275.2 L-200.4 275.1 L-198.5 275.1 L-196.5 275.3 L-194.5 275.7 L-192.6 276.2 L-190.7 276.8 L-188.9 277.6 L-187.2 278.6 L-185.5 279.7 L-184 280.9 L-182.5 282.2 L-181.1 283.7 L-179.9 285.2 L-178.8 286.9 L-177.8 288.6 L-177 290.4 L-176.3 292.2 L-175.7 294.2 L-175.4 296.1 L-175.1 298.1 L-175 300.1 Z " />
<path stroke="rgb(0,0,0)" stroke-opacity="1" fill="rgb(255,255,255)" fill-opacity="1" d="M-210.3 183.3 L-209.3 183.5 L-208.2 183.8 L-207.1 184.1 L-206 184.3 L-205 184.6 L-203.9 184.8 L-202.8 185.1 L-201.8 185.3 L-200.7 185.6 L-199.6 185.9 L-198.5 186.1 L-197.5 186.4 L-196.4 186.6 L-195.3 186.9 L-194.2 187.2 L-193.2 187.4 L-192.1 187.7 L-191 187.9 L-189.9 188.2 L-188.9 188.4 L-187.8 188.7 L-186.7 189 L-185.7 189.2 L-184.6 189.5 L-183.5 189.7 L-183.8 190.8 L-184 191.9 L-184.3 192.9 L-184.5 194 L-184.8 195.1 L-185.1 196.2 L-185.3 197.2 L-185.6 198.3 L-185.8 199.4 L-186.1 200.5 L-186.3 201.5 L-186.6 202.6 L-186.9 203.7 L-187.1 204.8 L-187.4 205.8 L-187.6 206.9 L-187.9 208 L-188.1 209 L-188.4 210.1 L-188.7 211.2 L-188.9 212.3 L-189.2 213.3 L-189.4 214.4 L-189.7 215.5 L-190 216.6 L-191 216.3 L-192.1 216 L-193.2 215.8 L-194.2 215.5 L-195.3 215.3 L-196.4 215 L-197.5 214.8 L-198.5 214.5 L-199.6 214.2 L-200.7 214 L-201.8 213.7 L-202.8 213.5 L-203.9 213.2 L-205 212.9 L-206 212.7 L-207.1 212.4 L-208.2 212.2 L-209.3 211.9 L-210.3 211.7 L-211.4 211.4 L-212.5 211.1 L-213.6 210.9 L-214.6 210.6 L-215.7 210.4 L-216.8 210.1 L-216.5 209 L-216.3 208 L-216 206.9 L-215.7 205.8 L-215.5 204.7 L-215.2 203.7 L-215 202.6 L-214.7 201.5 L-214.5 200.5 L-214.2 199.4 L-213.9 198.3 L-213.7 197.2 L-213.4 196.2 L-213.2 195.1 L-212.9 194 L-212.7 192.9 L-212.4 191.9 L-212.1 190.8 L-211.9 189.7 L-211.6 188.6 L-211.4 187.6 L-211.1 186.5 L-210.9 185.4 L-210.6 184.4 L-210.3 183.3 Z " />
<path stroke="rgb(0,0,0)" stroke-opacity="0.949" fill="rgb(255,255,255)" fill-opacity="1" d="M24.95 300.1 L24.87 302 L24.63 304 L24.23 305.9 L23.68 307.9 L22.98 309.7 L22.14 311.5 L21.15 313.2 L20.04 314.9 L18.79 316.4 L17.43 317.9 L15.95 319.2 L14.38 320.4 L12.71 321.5 L10.97 322.4 L9.153 323.2 L7.28 323.9 L5.361 324.4 L3.408 324.7 L1.434 324.9 L-0.5499 324.9 L-2.53 324.8 L-4.494 324.5 L-6.43 324.1 L-8.325 323.5 L-10.17 322.8 L-11.95 321.9 L-13.65 320.9 L-15.26 319.7 L-16.78 318.5 L-18.2 317.1 L-19.5 315.6 L-20.67 314 L-21.72 312.3 L-22.62 310.5 L-23.39 308.7 L-24 306.8 L-24.47 304.9 L-24.78 302.9 L-24.93 300.9 L-24.93 299 L-24.77 297 L-24.45 295 L-23.97 293.1 L-23.35 291.2 L-22.58 289.4 L-21.66 287.6 L-20.61 285.9 L-19.43 284.3 L-18.12 282.9 L-16.7 281.5 L-15.18 280.2 L-13.56 279.1 L-11.85 278 L-10.07 277.2 L-8.222 276.4 L-6.324 275.9 L-4.387 275.4 L-2.422 275.2 L-0.441 275.1 L1.542 275.1 L3.516 275.3 L5.467 275.7 L7.384 276.2 L9.254 276.8 L11.07 277.6 L12.81 278.6 L14.47 279.7 L16.04 280.9 L17.51 282.2 L18.86 283.7 L20.1 285.2 L21.21 286.9 L22.19 288.6 L23.02 290.4 L23.72 292.2 L24.26 294.2 L24.64 296.1 L24.88 298.1 L24.95 300.1 Z " />
<path stroke="rgb(0,0,0)" stroke-opacity="1" fill="rgb(255,255,255)" fill-opacity="1" d="M1.581 174.4 L2.532 175.5 L3.483 176.6 L4.434 177.7 L5.384 178.8 L6.335 179.9 L7.286 181 L8.237 182.1 L9.188 183.2 L10.14 184.3 L11.09 185.4 L12.04 186.5 L12.99 187.6 L13.94 188.7 L14.89 189.8 L15.84 190.9 L16.79 192 L17.74 193.1 L18.7 194.2 L19.65 195.3 L20.6 196.4 L21.55 197.5 L22.5 198.6 L23.45 199.7 L24.4 200.8 L25.35 201.9 L24.25 202.8 L23.15 203.8 L22.06 204.7 L20.96 205.7 L19.86 206.6 L18.76 207.6 L17.66 208.5 L16.56 209.5 L15.47 210.4 L14.37 211.4 L13.27 212.3 L12.17 213.3 L11.07 214.2 L9.973 215.2 L8.875 216.1 L7.777 217.1 L6.678 218 L5.58 219 L4.482 219.9 L3.383 220.9 L2.285 221.8 L1.187 222.8 L0.08814 223.7 L-1.01 224.7 L-2.109 225.6 L-3.059 224.5 L-4.01 223.4 L-4.961 222.3 L-5.912 221.2 L-6.862 220.1 L-7.813 219 L-8.764 217.9 L-9.715 216.8 L-10.67 215.7 L-11.62 214.6 L-12.57 213.5 L-13.52 212.4 L-14.47 211.3 L-15.42 210.2 L-16.37 209.1 L-17.32 208 L-18.27 207 L-19.22 205.9 L-20.17 204.8 L-21.12 203.7 L-22.07 202.6 L-23.03 201.5 L-23.98 200.4 L-24.93 199.3 L-25.88 198.2 L-24.78 197.2 L-23.68 196.3 L-22.58 195.3 L-21.48 194.4 L-20.39 193.4 L-19.29 192.5 L-18.19 191.5 L-17.09 190.6 L-15.99 189.6 L-14.89 188.7 L-13.8 187.7 L-12.7 186.8 L-11.6 185.8 L-10.5 184.9 L-9.402 183.9 L-8.304 183 L-7.206 182 L-6.107 181 L-5.009 180.1 L-3.911 179.1 L-2.812 178.2 L-1.714 177.2 L-0.6154 176.3 L0.483 175.3 L1.581 174.4 Z " />
<path stroke="rgb(0,0,0)" stroke-opacity="0.949" fill="rgb(255,255,255)" fill-opacity="1" d="M225 300.1 L224.9 302 L224.6 304 L224.2 305.9 L223.7 307.9 L223 309.7 L222.1 311.5 L221.2 313.2 L220 314.9 L218.8 316.4 L217.4 317.9 L216 319.2 L214.4 320.4 L212.7 321.5 L211 322.4 L209.2 323.2 L207.3 323.9 L205.4 324.4 L203.4 324.7 L201.4 324.9 L199.5 324.9 L197.5 324.8 L195.5 324.5 L193.6 324.1 L191.7 323.5 L189.8 322.8 L188.1 321.9 L186.4 320.9 L184.7 319.7 L183.2 318.5 L181.8 317.1 L180.5 315.6 L179.3 314 L178.3 312.3 L177.4 310.5 L176.6 308.7 L176 306.8 L175.5 304.9 L175.2 302.9 L175.1 300.9 L175.1 299 L175.2 297 L175.6 295 L176 293.1 L176.7 291.2 L177.4 289.4 L178.3 287.6 L179.4 285.9 L180.6 284.3 L181.9 282.9 L183.3 281.5 L184.8 280.2 L186.4 279.1 L188.2 278 L189.9 277.2 L191.8 276.4 L193.7 275.9 L195.6 275.4 L197.6 275.2 L199.6 275.1 L201.5 275.1 L203.5 275.3 L205.5 275.7 L207.4 276.2 L209.3 276.8 L211.1 277.6 L212.8 278.6 L214.5 279.7 L216 280.9 L217.5 282.2 L218.9 283.7 L220.1 285.2 L221.2 286.9 L222.2 288.6 L223 290.4 L223.7 292.2 L224.3 294.2 L224.6 296.1 L224.9 298.1 L225 300.1 Z " />
<path stroke="rgb(0,0,0)" stroke-opacity="1" fill="rgb(255,255,255)" fill-opacity="1" d="M218.3 173.3 L218.6 175.2 L219 177 L219.3 178.8 L219.6 180.6 L219.9 182.4 L220.2 184.2 L220.5 186.1 L220.9 187.9 L221.2 189.7 L221.5 191.5 L221.8 193.3 L222.1 195.1 L222.5 197 L222.8 198.8 L223.1 200.6 L223.4 202.4 L223.7 204.2 L224 206.1 L224.4 207.9 L224.7 209.7 L225 211.5 L225.3 213.3 L225.6 215.1 L225.9 217 L226.3 218.8 L224.4 219.1 L222.6 219.4 L220.8 219.7 L219 220 L217.2 220.4 L215.3 220.7 L213.5 221 L211.7 221.3 L209.9 221.6 L208.1 222 L206.3 222.3 L204.4 222.6 L202.6 222.9 L200.8 223.2 L199 223.5 L197.2 223.9 L195.3 224.2 L193.5 224.5 L191.7 224.8 L189.9 225.1 L188.1 225.4 L186.3 225.8 L184.4 226.1 L182.6 226.4 L180.8 226.7 L180.5 224.9 L180.2 223.1 L179.9 221.2 L179.5 219.4 L179.2 217.6 L178.9 215.8 L178.6 214 L178.3 212.2 L178 210.3 L177.6 208.5 L177.3 206.7 L177 204.9 L176.7 203.1 L176.4 201.3 L176.1 199.4 L175.7 197.6 L175.4 195.8 L175.1 194 L174.8 192.2 L174.5 190.3 L174.2 188.5 L173.8 186.7 L173.5 184.9 L173.2 183.1 L172.9 181.3 L174.7 180.9 L176.5 180.6 L178.3 180.3 L180.2 180 L182 179.7 L183.8 179.4 L185.6 179 L187.4 178.7 L189.2 178.4 L191.1 178.1 L192.9 177.8 L194.7 177.5 L196.5 177.1 L198.3 176.8 L200.2 176.5 L202 176.2 L203.8 175.9 L205.6 175.6 L207.4 175.2 L209.2 174.9 L211.1 174.6 L212.9 174.3 L214.7 174 L216.5 173.7 L218.3 173.3 Z " />
</g>
</g>
</svg>
