<!DOCTYPE svg>
<svg xmlns="http://www.w3.org/2000/svg" xmlns:xlink="http://www.w3.org/1999/xlink" width="1000" height="1000">
<g transform="translate(500.000000,500.000000)">
<g transform="scale(3.000000,3.000000)">
<path stroke="rgb(0,0,0)" stroke-opacity="1" fill="rgb(255,255,255)" fill-opacity="1" d="M-375.5 -424.9 L-375.5 -422.9 L-375.5 -420.9 L-375.5 -418.9 L-375.5 -416.9 L-375.5 -414.9 L-375.5 -412.9 L-375.6 -410.9 L-375.6 -408.9 L-375.6 -406.9 L-375.6 -404.9 L-375.6 -402.9 L-375.6 -400.9 L-375.6 -398.9 L-375.6 -397 L-375.6 -395 L-375.6 -393 L-375.6 -391 L-375.6 -389 L-375.6 -387 L-375.6 -385 L-375.6 -383 L-375.6 -381 L-375.6 -379 L-375.6 -377 L-375.6 -375 L-377.6 -375 L-379.6 -375 L-381.6 -375 L-383.6 -375 L-385.6 -375 L-387.6 -375.1 L-389.6 -375.1 L-391.6 -375.1 L-393.6 -375.1 L-395.6 -375.1 L-397.6 -375.1 L-399.5 -375.1 L-401.5 -375.1 L-403.5 -375.1 L-405.5 -375.1 L-407.5 -375.1 L-409.5 -375.1 L-411.5 -375.1 L-413.5 -375.1 L-415.5 -375.1 L-417.5 -375.1 L-419.5 -375.1 L-421.5 -375.1 L-423.5 -375.1 L-425.5 -375.1 L-425.5 -377.1 L-425.5 -379.1 L-425.5 -381.1 L-425.4 -383.1 L-425.4 -385.1 L-425.4 -387.1 L-425.4 -389.1 L-425.4 -391.1 L-425.4 -393.1 L-425.4 -395.1 L-425.4 -397.1 L-425.4 -399.1 L-425.4 -401 L-425.4 -403 L-425.4 -405 L-425.4 -407 L-425.4 -409 L-425.4 -411 L-425.4 -413 L-425.4 -415 L-425.4 -417 L-425.4 -419 L-425.4 -421 L-425.4 -423 L-425.4 -425 L-423.4 -425 L-421.4 -425 L-419.4 -425 L-417.4 -425 L-415.4 -425 L-413.4 -424.9 L-411.4 -424.9 L-409.4 -424.9 L-407.4 -424.9 L-405.4 -424.9 L-403.4 -424.9 L-401.4 -424.9 L-399.4 -424.9 L-397.4 -424.9 L-395.5 -424.9 L-393.5 -424.9 L-391.5 -424.9 L-389.5 -424.9 L-387.5 -424.9 L-385.5 -424.9 L-383.5 -424.9 L-381.5 -424.9 L-379.5 -424.9 L-377.5 -424.9 L-375.5 -424.9 Z " />
<path stroke="rgb(0,0,0)" stroke-opacity="0.108" fill="rgb(255,255,255)" fill-opacity="1" d="M-175 -299.9 L-175.1 -298 L-175.4 -296 L-175.8 -294.1 L-176.3 -292.1 L-177 -290.3 L-177.9 -288.5 L-178.8 -286.8 L-180 -285.1 L-181.2 -283.6 L-182.6 -282.1 L-184 -280.8 L-185.6 -279.6 L-187.3 -278.5 L-189 -277.6 L-190.8 -276.8 L-192.7 -276.1 L-194.6 -275.6 L-196.6 -275.3 L-198.6 -275.1 L-200.5 -275.1 L-202.5 -275.2 L-204.5 -275.5 L-206.4 -275.9 L-208.3 -276.5 L-210.2 -277.2 L-211.9 -278.1 L-213.6 -279.1 L-215.3 -280.3 L-216.8 -281.5 L-218.2 -282.9 L-219.5 -284.4 L-220.7 -286 L-221.7 -287.7 L-222.6 -289.5 L-223.4 -291.3 L-224 -293.2 L-224.5 -295.1 L-224.8 -297.1 L-224.9 -299.1 L-224.9 -301 L-224.8 -303 L-224.4 -305 L-224 -306.9 L-223.3 -308.8 L-222.6 -310.6 L-221.7 -312.4 L-220.6 -314.1 L-219.4 -315.7 L-218.1 -317.1 L-216.7 -318.5 L-215.2 -319.8 L-213.6 -320.9 L-211.8 -322 L-210.1 -322.8 L-208.2 -323.6 L-206.3 -324.1 L-204.4 -324.6 L-202.4 -324.8 L-200.4 -324.9 L-198.5 -324.9 L-196.5 -324.7 L-194.5 -324.3 L-192.6 -323.8 L-190.7 -323.2 L-188.9 -322.4 L-187.2 -321.4 L-185.5 -320.3 L-184 -319.1 L-182.5 -317.8 L-181.1 -316.3 L-179.9 -314.8 L-178.8 -313.1 L-177.8 -311.4 L-177 -309.6 L-176.3 -307.8 L-175.7 -305.8 L-175.4 -303.9 L-175.1 -301.9 L-175 -299.9 Z " />
<path stroke="rgb(0,0,0)" stroke-opacity="1" fill="rgb(255,255,255)" fill-opacity="1" d="M-175.5 -424.9 L-175.5 -422.9 L-175.5 -420.9 L-175.5 -418.9 L-175.5 -416.9 L-175.5 -414.9 L-175.5 -412.9 L-175.6 -410.9 L-175.6 -408.9 L-175.6 -406.9 L-175.6 -404.9 L-175.6 -402.9 L-175.6 -400.9 L-175.6 -398.9 L-175.6 -397 L-175.6 -395 L-175.6 -393 L-175.6 -391 L-175.6 -389 L-175.6 -387 L-175.6 -385 L-175.6 -383 L-175.6 -381 L-175.6 -379 L-175.6 -377 L-175.6 -375 L-177.6 -375 L-179.6 -375 L-181.6 -375 L-183.6 -375 L-185.6 -375 L-187.6 -375.1 L-189.6 -375.1 L-191.6 -375.1 L-193.6 -375.1 L-195.6 -375.1 L-197.6 -375.1 L-199.5 -375.1 L-201.5 -375.1 L-203.5 -375.1 L-205.5 -375.1 L-207.5 -375.1 L-209.5 -375.1 L-211.5 -375.1 L-213.5 -375.1 L-215.5 -375.1 L-217.5 -375.1 L-219.5 -375.1 L-221.5 -375.1 L-223.5 -375.1 L-225.5 -375.1 L-225.5 -377.1 L-225.5 -379.1 L-225.5 -381.1 L-225.4 -383.1 L-225.4 -385.1 L-225.4 -387.1 L-225.4 -389.1 L-225.4 -391.1 L-225.4 -393.1 L-225.4 -395.1 L-225.4 -397.1 L-225.4 -399.1 L-225.4 -401 L-225.4 -403 L-225.4 -405 L-225.4 -407 L-225.4 -409 L-225.4 -411 L-225.4 -413 L-225.4 -415 L-225.4 -417 L-225.4 -419 L-225.4 -421 L-225.4 -423 L-225.4 -425 L-223.4 -425 L-221.4 -425 L-219.4 -425 L-217.4 -425 L-215.4 -425 L-213.4 -424.9 L-211.4 -424.9 L-209.4 -424.9 L-207.4 -424.9 L-205.4 -424.9 L-203.4 -424.9 L-201.4 -424.9 L-199.4 -424.9 L-197.4 -424.9 L-195.5 -424.9 L-193.5 -424.9 L-191.5 -424.9 L-189.5 -424.9 L-187.5 -424.9 L-185.5 -424.9 L-183.5 -424.9 L-181.5 -424.9 L-179.5 -424.9 L-177.5 -424.9 L-175.5 -424.9 Z " />
<path stroke="rgb(0,0,0)" stroke-opacity="0.108" fill="rgb(255,255,255)" fill-opacity="1" d="M24.95 -299.9 L24.87 -298 L24.63 -296 L24.23 -294.1 L23.68 -292.1 L22.98 -290.3 L22.14 -288.5 L21.15 -286.8 L20.04 -285.1 L18.79 -283.6 L17.43 -282.1 L15.95 -280.8 L14.38 -279.6 L12.71 -278.5 L10.97 -277.6 L9.153 -276.8 L7.28 -276.1 L5.361 -275.6 L3.408 -275.3 L1.434 -275.1 L-0.5499 -275.1 L-2.53 -275.2 L-4.494 -275.5 L-6.43 -275.9 L-8.325 -276.5 L-10.17 -277.2 L-11.95 -278.1 L-13.65 -279.1 L-15.26 -280.3 L-16.78 -281.5 L-18.2 -282.9 L-19.5 -284.4 L-20.67 -286 L-21.72 -287.7 L-22.62 -289.5 L-23.39 -291.3 L-24 -293.2 L-24.47 -295.1 L-24.78 -297.1 L-24.93 -299.1 L-24.93 -301 L-24.77 -303 L-24.45 -305 L-23.97 -306.9 L-23.35 -308.8 L-22.58 -310.6 L-21.66 -312.4 L-20.61 -314.1 L-19.43 -315.7 L-18.12 -317.1 L-16.7 -318.5 L-15.18 -319.8 L-13.56 -320.9 L-11.85 -322 L-10.07 -322.8 L-8.222 -323.6 L-6.324 -324.1 L-4.387 -324.6 L-2.422 -324.8 L-0.441 -324.9 L1.542 -324.9 L3.516 -324.7 L5.467 -324.3 L7.384 -323.8 L9.254 -323.2 L11.07 -322.4 L12.81 -321.4 L14.47 -320.3 L16.04 -319.1 L17.51 -317.8 L18.86 -316.3 L20.1 -314.8 L21.21 -313.1 L22.19 -311.4 L23.02 -309.6 L23.72 -307.8 L24.26 -305.8 L24.64 -303.9 L24.88 -301.9 L24.95 -299.9 Z " />
<path stroke="rgb(0,0,0)" stroke-opacity="1" fill="rgb(255,255,255)" fill-opacity="1" d="M24.48 -424.9 L24.48 -422.9 L24.47 -420.9 L24.47 -418.9 L24.46 -416.9 L24.46 -414.9 L24.45 -412.9 L24.45 -410.9 L24.45 -408.9 L24.44 -406.9 L24.44 -404.9 L24.43 -402.9 L24.43 -400.9 L24.42 -398.9 L24.42 -397 L24.42 -395 L24.41 -393 L24.41 -391 L24.4 -389 L24.4 -387 L24.39 -385 L24.39 -383 L24.39 -381 L24.38 -379 L24.38 -377 L24.37 -375 L22.38 -375 L20.39 -375 L18.39 -375 L16.4 -375 L14.41 -375 L12.41 -375.1 L10.42 -375.1 L8.425 -375.1 L6.431 -375.1 L4.438 -375.1 L2.444 -375.1 L0.4506 -375.1 L-1.543 -375.1 L-3.536 -375.1 L-5.53 -375.1 L-7.523 -375.1 L-9.517 -375.1 L-11.51 -375.1 L-13.5 -375.1 L-15.5 -375.1 L-17.49 -375.1 L-19.48 -375.1 L-21.48 -375.1 L-23.47 -375.1 L-25.47 -375.1 L-25.46 -377.1 L-25.46 -379.1 L-25.45 -381.1 L-25.45 -383.1 L-25.44 -385.1 L-25.44 -387.1 L-25.44 -389.1 L-25.43 -391.1 L-25.43 -393.1 L-25.42 -395.1 L-25.42 -397.1 L-25.41 -399.1 L-25.41 -401 L-25.41 -403 L-25.4 -405 L-25.4 -407 L-25.39 -409 L-25.39 -411 L-25.38 -413 L-25.38 -415 L-25.38 -417 L-25.37 -419 L-25.37 -421 L-25.36 -423 L-25.36 -425 L-23.36 -425 L-21.37 -425 L-19.38 -425 L-17.38 -425 L-15.39 -425 L-13.4 -424.9 L-11.4 -424.9 L-9.41 -424.9 L-7.416 -424.9 L-5.423 -424.9 L-3.429 -424.9 L-1.436 -424.9 L0.5577 -424.9 L2.551 -424.9 L4.545 -424.9 L6.538 -424.9 L8.532 -424.9 L10.53 -424.9 L12.52 -424.9 L14.51 -424.9 L16.51 -424.9 L18.5 -424.9 L20.49 -424.9 L22.49 -424.9 L24.48 -424.9 Z " />
<path stroke="rgb(0,0,0)" stroke-opacity="0.108" fill="rgb(255,255,255)" fill-opacity="1" d="M225 -299.9 L224.9 -298 L224.6 -296 L224.2 -294.1 L223.7 -292.1 L223 -290.3 L222.1 -288.5 L221.2 -286.8 L220 -285.1 L218.8 -283.6 L217.4 -282.1 L216 -280.8 L214.4 -279.6 L212.7 -278.5 L211 -277.6 L209.2 -276.8 L207.3 -276.1 L205.4 -275.6 L203.4 -275.3 L201.4 -275.1 L199.5 -275.1 L197.5 -275.2 L195.5 -275.5 L193.6 -275.9 L191.7 -276.5 L189.8 -277.2 L188.1 -278.1 L186.4 -279.1 L184.7 -280.3 L183.2 -281.5 L181.8 -282.9 L180.5 -284.4 L179.3 -286 L178.3 -287.7 L177.4 -289.5 L176.6 -291.3 L176 -293.2 L175.5 -295.1 L175.2 -297.1 L175.1 -299.1 L175.1 -301 L175.2 -303 L175.6 -305 L176 -306.9 L176.7 -308.8 L177.4 -310.6 L178.3 -312.4 L179.4 -314.1 L180.6 -315.7 L181.9 -317.1 L183.3 -318.5 L184.8 -319.8 L186.4 -320.9 L188.2 -322 L189.9 -322.8 L191.8 -323.6 L193.7 -324.1 L195.6 -324.6 L197.6 -324.8 L199.6 -324.9 L201.5 -324.9 L203.5 -324.7 L205.5 -324.3 L207.4 -323.8 L209.3 -323.2 L211.1 -322.4 L212.8 -321.4 L214.5 -320.3 L216 -319.1 L217.5 -317.8 L218.9 -316.3 L220.1 -314.8 L221.2 -313.1 L222.2 -311.4 L223 -309.6 L223.7 -307.8 L224.3 -305.8 L224.6 -303.9 L224.9 -301.9 L225 -299.9 Z " />
<path stroke="rgb(0,0,0)" stroke-opacity="1" fill="rgb(255,255,255)" fill-opacity="1" d="M224.5 -424.9 L224.5 -422.9 L224.5 -420.9 L224.5 -418.9 L224.5 -416.9 L224.5 -414.9 L224.5 -412.9 L224.4 -410.9 L224.4 -408.9 L224.4 -406.9 L224.4 -404.9 L224.4 -402.9 L224.4 -400.9 L224.4 -398.9 L224.4 -397 L224.4 -395 L224.4 -393 L224.4 -391 L224.4 -389 L224.4 -387 L224.4 -385 L224.4 -383 L224.4 -381 L224.4 -379 L224.4 -377 L224.4 -375 L222.4 -375 L220.4 -375 L218.4 -375 L216.4 -375 L214.4 -375 L212.4 -375.1 L210.4 -375.1 L208.4 -375.1 L206.4 -375.1 L204.4 -375.1 L202.4 -375.1 L200.5 -375.1 L198.5 -375.1 L196.5 -375.1 L194.5 -375.1 L192.5 -375.1 L190.5 -375.1 L188.5 -375.1 L186.5 -375.1 L184.5 -375.1 L182.5 -375.1 L180.5 -375.1 L178.5 -375.1 L176.5 -375.1 L174.5 -375.1 L174.5 -377.1 L174.5 -379.1 L174.5 -381.1 L174.6 -383.1 L174.6 -385.1 L174.6 -387.1 L174.6 -389.1 L174.6 -391.1 L174.6 -393.1 L174.6 -395.1 L174.6 -397.1 L174.6 -399.1 L174.6 -401 L174.6 -403 L174.6 -405 L174.6 -407 L174.6 -409 L174.6 -411 L174.6 -413 L174.6 -415 L174.6 -417 L174.6 -419 L174.6 -421 L174.6 -423 L174.6 -425 L176.6 -425 L178.6 -425 L180.6 -425 L182.6 -425 L184.6 -425 L186.6 -424.9 L188.6 -424.9 L190.6 -424.9 L192.6 -424.9 L194.6 -424.9 L196.6 -424.9 L198.6 -424.9 L200.6 -424.9 L202.6 -424.9 L204.5 -424.9 L206.5 -424.9 L208.5 -424.9 L210.5 -424.9 L212.5 -424.9 L214.5 -424.9 L216.5 -424.9 L218.5 -424.9 L220.5 -424.9 L222.5 -424.9 L224.5 -424.9 Z " />
<path stroke="rgb(0,0,0)" stroke-opacity="0.108" fill="rgb(255,255,255)" fill-opacity="1" d="M-275 -199.9 L-275.1 -198 L-275.4 -196 L-275.8 -194.1 L-276.3 -192.1 L-277 -190.3 L-277.9 -188.5 L-278.8 -186.8 L-280 -185.1 L-281.2 -183.6 L-282.6 -182.1 L-284 -180.8 L-285.6 -179.6 L-287.3 -178.5 L-289 -177.6 L-290.8 -176.8 L-292.7 -176.1 L-294.6 -175.6 L-296.6 -175.3 L-298.6 -175.1 L-300.5 -175.1 L-302.5 -175.2 L-304.5 -175.5 L-306.4 -175.9 L-308.3 -176.5 L-310.2 -177.2 L-311.9 -178.1 L-313.6 -179.1 L-315.3 -180.3 L-316.8 -181.5 L-318.2 -182.9 L-319.5 -184.4 L-320.7 -186 L-321.7 -187.7 L-322.6 -189.5 L-323.4 -191.3 L-324 -193.2 L-324.5 -195.1 L-324.8 -197.1 L-324.9 -199.1 L-324.9 -201 L-324.8 -203 L-324.4 -205 L-324 -206.9 L-323.3 -208.8 L-322.6 -210.6 L-321.7 -212.4 L-320.6 -214.1 L-319.4 -215.7 L-318.1 -217.1 L-316.7 -218.5 L-315.2 -219.8 L-313.6 -220.9 L-311.8 -222 L-310.1 -222.8 L-308.2 -223.6 L-306.3 -224.1 L-304.4 -224.6 L-302.4 -224.8 L-300.4 -224.9 L-298.5 -224.9 L-296.5 -224.7 L-294.5 -224.3 L-292.6 -223.8 L-290.7 -223.2 L-288.9 -222.4 L-287.2 -221.4 L-285.5 -220.3 L-284 -219.1 L-282.5 -217.8 L-281.1 -216.3 L-279.9 -214.8 L-278.8 -213.1 L-277.8 -211.4 L-277 -209.6 L-276.3 -207.8 L-275.7 -205.8 L-275.4 -203.9 L-275.1 -201.9 L-275 -199.9 Z " />
<path stroke="rgb(0,0,0)" stroke-opacity="1" fill="rgb(255,255,255)" fill-opacity="1" d="M-275.5 -324.9 L-275.5 -322.9 L-275.5 -320.9 L-275.5 -318.9 L-275.5 -316.9 L-275.5 -314.9 L-275.5 -312.9 L-275.6 -310.9 L-275.6 -308.9 L-275.6 -306.9 L-275.6 -304.9 L-275.6 -302.9 L-275.6 -300.9 L-275.6 -298.9 L-275.6 -297 L-275.6 -295 L-275.6 -293 L-275.6 -291 L-275.6 -289 L-275.6 -287 L-275.6 -285 L-275.6 -283 L-275.6 -281 L-275.6 -279 L-275.6 -277 L-275.6 -275 L-277.6 -275 L-279.6 -275 L-281.6 -275 L-283.6 -275 L-285.6 -275 L-287.6 -275.1 L-289.6 -275.1 L-291.6 -275.1 L-293.6 -275.1 L-295.6 -275.1 L-297.6 -275.1 L-299.5 -275.1 L-301.5 -275.1 L-303.5 -275.1 L-305.5 -275.1 L-307.5 -275.1 L-309.5 -275.1 L-311.5 -275.1 L-313.5 -275.1 L-315.5 -275.1 L-317.5 -275.1 L-319.5 -275.1 L-321.5 -275.1 L-323.5 -275.1 L-325.5 -275.1 L-325.5 -277.1 L-325.5 -279.1 L-325.5 -281.1 L-325.4 -283.1 L-325.4 -285.1 L-325.4 -287.1 L-325.4 -289.1 L-325.4 -291.1 L-325.4 -293.1 L-325.4 -295.1 L-325.4 -297.1 L-325.4 -299.1 L-325.4 -301 L-325.4 -303 L-325.4 -305 L-325.4 -307 L-325.4 -309 L-325.4 -311 L-325.4 -313 L-325.4 -315 L-325.4 -317 L-325.4 -319 L-325.4 -321 L-325.4 -323 L-325.4 -325 L-323.4 -325 L-321.4 -325 L-319.4 -325 L-317.4 -325 L-315.4 -325 L-313.4 -324.9 L-311.4 -324.9 L-309.4 -324.9 L-307.4 -324.9 L-305.4 -324.9 L-303.4 -324.9 L-301.4 -324.9 L-299.4 -324.9 L-297.4 -324.9 L-295.5 -324.9 L-293.5 -324.9 L-291.5 -324.9 L-289.5 -324.9 L-287.5 -324.9 L-285.5 -324.9 L-283.5 -324.9 L-281.5 -324.9 L-279.5 -324.9 L-277.5 -324.9 L-275.5 -324.9 Z " />
<path stroke="rgb(0,0,0)" stroke-opacity="0.108" fill="rgb(255,255,255)" fill-opacity="1" d="M-75.05 -199.9 L-75.13 -198 L-75.37 -196 L-75.77 -194.1 L-76.32 -192.1 L-77.02 -190.3 L-77.86 -188.5 L-78.85 -186.8 L-79.96 -185.1 L-81.21 -183.6 L-82.57 -182.1 L-84.05 -180.8 L-85.62 -179.6 L-87.29 -178.5 L-89.03 -177.6 L-90.85 -176.8 L-92.72 -176.1 L-94.64 -175.6 L-96.59 -175.3 L-98.57 -175.1 L-100.5 -175.1 L-102.5 -175.2 L-104.5 -175.5 L-106.4 -175.9 L-108.3 -176.5 L-110.2 -177.2 L-111.9 -178.1 L-113.6 -179.1 L-115.3 -180.3 L-116.8 -181.5 L-118.2 -182.9 L-119.5 -184.4 L-120.7 -186 L-121.7 -187.7 L-122.6 -189.5 L-123.4 -191.3 L-124 -193.2 L-124.5 -195.1 L-124.8 -197.1 L-124.9 -199.1 L-124.9 -201 L-124.8 -203 L-124.4 -205 L-124 -206.9 L-123.3 -208.8 L-122.6 -210.6 L-121.7 -212.4 L-120.6 -214.1 L-119.4 -215.7 L-118.1 -217.1 L-116.7 -218.5 L-115.2 -219.8 L-113.6 -220.9 L-111.8 -222 L-110.1 -222.8 L-108.2 -223.6 L-106.3 -224.1 L-104.4 -224.6 L-102.4 -224.8 L-100.4 -224.9 L-98.46 -224.9 L-96.48 -224.7 L-94.53 -224.3 L-92.62 -223.8 L-90.75 -223.2 L-88.93 -222.4 L-87.19 -221.4 L-85.53 -220.3 L-83.96 -219.1 L-82.49 -217.8 L-81.14 -216.3 L-79.9 -214.8 L-78.79 -213.1 L-77.81 -211.4 L-76.98 -209.6 L-76.28 -207.8 L-75.74 -205.8 L-75.36 -203.9 L-75.12 -201.9 L-75.05 -199.9 Z " />
<path stroke="rgb(0,0,0)" stroke-opacity="1" fill="rgb(255,255,255)" fill-opacity="1" d="M-75.52 -324.9 L-75.52 -322.9 L-75.53 -320.9 L-75.53 -318.9 L-75.54 -316.9 L-75.54 -314.9 L-75.55 -312.9 L-75.55 -310.9 L-75.55 -308.9 L-75.56 -306.9 L-75.56 -304.9 L-75.57 -302.9 L-75.57 -300.9 L-75.58 -298.9 L-75.58 -297 L-75.58 -295 L-75.59 -293 L-75.59 -291 L-75.6 -289 L-75.6 -287 L-75.61 -285 L-75.61 -283 L-75.61 -281 L-75.62 -279 L-75.62 -277 L-75.63 -275 L-77.62 -275 L-79.61 -275 L-81.61 -275 L-83.6 -275 L-85.59 -275 L-87.59 -275.1 L-89.58 -275.1 L-91.58 -275.1 L-93.57 -275.1 L-95.56 -275.1 L-97.56 -275.1 L-99.55 -275.1 L-101.5 -275.1 L-103.5 -275.1 L-105.5 -275.1 L-107.5 -275.1 L-109.5 -275.1 L-111.5 -275.1 L-113.5 -275.1 L-115.5 -275.1 L-117.5 -275.1 L-119.5 -275.1 L-121.5 -275.1 L-123.5 -275.1 L-125.5 -275.1 L-125.5 -277.1 L-125.5 -279.1 L-125.5 -281.1 L-125.4 -283.1 L-125.4 -285.1 L-125.4 -287.1 L-125.4 -289.1 L-125.4 -291.1 L-125.4 -293.1 L-125.4 -295.1 L-125.4 -297.1 L-125.4 -299.1 L-125.4 -301 L-125.4 -303 L-125.4 -305 L-125.4 -307 L-125.4 -309 L-125.4 -311 L-125.4 -313 L-125.4 -315 L-125.4 -317 L-125.4 -319 L-125.4 -321 L-125.4 -323 L-125.4 -325 L-123.4 -325 L-121.4 -325 L-119.4 -325 L-117.4 -325 L-115.4 -325 L-113.4 -324.9 L-111.4 -324.9 L-109.4 -324.9 L-107.4 -324.9 L-105.4 -324.9 L-103.4 -324.9 L-101.4 -324.9 L-99.44 -324.9 L-97.45 -324.9 L-95.46 -324.9 L-93.46 -324.9 L-91.47 -324.9 L-89.47 -324.9 L-87.48 -324.9 L-85.49 -324.9 L-83.49 -324.9 L-81.5 -324.9 L-79.51 -324.9 L-77.51 -324.9 L-75.52 -324.9 Z " />
<path stroke="rgb(0,0,0)" stroke-opacity="0.108" fill="rgb(255,255,255)" fill-opacity="1" d="M125 -199.9 L124.9 -198 L124.6 -196 L124.2 -194.1 L123.7 -192.1 L123 -190.3 L122.1 -188.5 L121.2 -186.8 L120 -185.1 L118.8 -183.6 L117.4 -182.1 L116 -180.8 L114.4 -179.6 L112.7 -178.5 L111 -177.6 L109.2 -176.8 L107.3 -176.1 L105.4 -175.6 L103.4 -175.3 L101.4 -175.1 L99.45 -175.1 L97.47 -175.2 L95.51 -175.5 L93.57 -175.9 L91.68 -176.5 L89.83 -177.2 L88.05 -178.1 L86.35 -179.1 L84.74 -180.3 L83.22 -181.5 L81.8 -182.9 L80.5 -184.4 L79.33 -186 L78.28 -187.7 L77.38 -189.5 L76.61 -191.3 L76 -193.2 L75.53 -195.1 L75.22 -197.1 L75.07 -199.1 L75.07 -201 L75.23 -203 L75.55 -205 L76.03 -206.9 L76.65 -208.8 L77.42 -210.6 L78.34 -212.4 L79.39 -214.1 L80.57 -215.7 L81.88 -217.1 L83.3 -218.5 L84.82 -219.8 L86.44 -220.9 L88.15 -222 L89.93 -222.8 L91.78 -223.6 L93.68 -224.1 L95.61 -224.6 L97.58 -224.8 L99.56 -224.9 L101.5 -224.9 L103.5 -224.7 L105.5 -224.3 L107.4 -223.8 L109.3 -223.2 L111.1 -222.4 L112.8 -221.4 L114.5 -220.3 L116 -219.1 L117.5 -217.8 L118.9 -216.3 L120.1 -214.8 L121.2 -213.1 L122.2 -211.4 L123 -209.6 L123.7 -207.8 L124.3 -205.8 L124.6 -203.9 L124.9 -201.9 L125 -199.9 Z " />
<path stroke="rgb(0,0,0)" stroke-opacity="1" fill="rgb(255,255,255)" fill-opacity="1" d="M124.5 -324.9 L124.5 -322.9 L124.5 -320.9 L124.5 -318.9 L124.5 -316.9 L124.5 -314.9 L124.5 -312.9 L124.4 -310.9 L124.4 -308.9 L124.4 -306.9 L124.4 -304.9 L124.4 -302.9 L124.4 -300.9 L124.4 -298.9 L124.4 -297 L124.4 -295 L124.4 -293 L124.4 -291 L124.4 -289 L124.4 -287 L124.4 -285 L124.4 -283 L124.4 -281 L124.4 -279 L124.4 -277 L124.4 -275 L122.4 -275 L120.4 -275 L118.4 -275 L116.4 -275 L114.4 -275 L112.4 -275.1 L110.4 -275.1 L108.4 -275.1 L106.4 -275.1 L104.4 -275.1 L102.4 -275.1 L100.5 -275.1 L98.46 -275.1 L96.46 -275.1 L94.47 -275.1 L92.48 -275.1 L90.48 -275.1 L88.49 -275.1 L86.5 -275.1 L84.5 -275.1 L82.51 -275.1 L80.52 -275.1 L78.52 -275.1 L76.53 -275.1 L74.53 -275.1 L74.54 -277.1 L74.54 -279.1 L74.55 -281.1 L74.55 -283.1 L74.56 -285.1 L74.56 -287.1 L74.56 -289.1 L74.57 -291.1 L74.57 -293.1 L74.58 -295.1 L74.58 -297.1 L74.59 -299.1 L74.59 -301 L74.59 -303 L74.6 -305 L74.6 -307 L74.61 -309 L74.61 -311 L74.62 -313 L74.62 -315 L74.62 -317 L74.63 -319 L74.63 -321 L74.64 -323 L74.64 -325 L76.64 -325 L78.63 -325 L80.62 -325 L82.62 -325 L84.61 -325 L86.6 -324.9 L88.6 -324.9 L90.59 -324.9 L92.58 -324.9 L94.58 -324.9 L96.57 -324.9 L98.56 -324.9 L100.6 -324.9 L102.6 -324.9 L104.5 -324.9 L106.5 -324.9 L108.5 -324.9 L110.5 -324.9 L112.5 -324.9 L114.5 -324.9 L116.5 -324.9 L118.5 -324.9 L120.5 -324.9 L122.5 -324.9 L124.5 -324.9 Z " />
<path stroke="rgb(0,0,0)" stroke-opacity="0.108" fill="rgb(255,255,255)" fill-opacity="1" d="M325 -199.9 L324.9 -198 L324.6 -196 L324.2 -194.1 L323.7 -192.1 L323 -190.3 L322.1 -188.5 L321.2 -186.8 L320 -185.1 L318.8 -183.6 L317.4 -182.1 L316 -180.8 L314.4 -179.6 L312.7 -178.5 L311 -177.6 L309.2 -176.8 L307.3 -176.1 L305.4 -175.6 L303.4 -175.3 L301.4 -175.1 L299.5 -175.1 L297.5 -175.2 L295.5 -175.5 L293.6 -175.9 L291.7 -176.5 L289.8 -177.2 L288.1 -178.1 L286.4 -179.1 L284.7 -180.3 L283.2 -181.5 L281.8 -182.9 L280.5 -184.4 L279.3 -186 L278.3 -187.7 L277.4 -189.5 L276.6 -191.3 L276 -193.2 L275.5 -195.1 L275.2 -197.1 L275.1 -199.1 L275.1 -201 L275.2 -203 L275.6 -205 L276 -206.9 L276.7 -208.8 L277.4 -210.6 L278.3 -212.4 L279.4 -214.1 L280.6 -215.7 L281.9 -217.1 L283.3 -218.5 L284.8 -219.8 L286.4 -220.9 L288.2 -222 L289.9 -222.8 L291.8 -223.6 L293.7 -224.1 L295.6 -224.6 L297.6 -224.8 L299.6 -224.9 L301.5 -224.9 L303.5 -224.7 L305.5 -224.3 L307.4 -223.8 L309.3 -223.2 L311.1 -222.4 L312.8 -221.4 L314.5 -220.3 L316 -219.1 L317.5 -217.8 L318.9 -216.3 L320.1 -214.8 L321.2 -213.1 L322.2 -211.4 L323 -209.6 L323.7 -207.8 L324.3 -205.8 L324.6 -203.9 L324.9 -201.9 L325 -199.9 Z " />
<path stroke="rgb(0,0,0)" stroke-opacity="1" fill="rgb(255,255,255)" fill-opacity="1" d="M-375.5 -224.9 L-375.5 -222.9 L-375.5 -220.9 L-375.5 -218.9 L-375.5 -216.9 L-375.5 -214.9 L-375.5 -212.9 L-375.6 -210.9 L-375.6 -208.9 L-375.6 -206.9 L-375.6 -204.9 L-375.6 -202.9 L-375.6 -200.9 L-375.6 -198.9 L-375.6 -197 L-375.6 -195 L-375.6 -193 L-375.6 -191 L-375.6 -189 L-375.6 -187 L-375.6 -185 L-375.6 -183 L-375.6 -181 L-375.6 -179 L-375.6 -177 L-375.6 -175 L-377.6 -175 L-379.6 -175 L-381.6 -175 L-383.6 -175 L-385.6 -175 L-387.6 -175.1 L-389.6 -175.1 L-391.6 -175.1 L-393.6 -175.1 L-395.6 -175.1 L-397.6 -175.1 L-399.5 -175.1 L-401.5 -175.1 L-403.5 -175.1 L-405.5 -175.1 L-407.5 -175.1 L-409.5 -175.1 L-411.5 -175.1 L-413.5 -175.1 L-415.5 -175.1 L-417.5 -175.1 L-419.5 -175.1 L-421.5 -175.1 L-423.5 -175.1 L-425.5 -175.1 L-425.5 -177.1 L-425.5 -179.1 L-425.5 -181.1 L-425.4 -183.1 L-425.4 -185.1 L-425.4 -187.1 L-425.4 -189.1 L-425.4 -191.1 L-425.4 -193.1 L-425.4 -195.1 L-425.4 -197.1 L-425.4 -199.1 L-425.4 -201 L-425.4 -203 L-425.4 -205 L-425.4 -207 L-425.4 -209 L-425.4 -211 L-425.4 -213 L-425.4 -215 L-425.4 -217 L-425.4 -219 L-425.4 -221 L-425.4 -223 L-425.4 -225 L-423.4 -225 L-421.4 -225 L-419.4 -225 L-417.4 -225 L-415.4 -225 L-413.4 -224.9 L-411.4 -224.9 L-409.4 -224.9 L-407.4 -224.9 L-405.4 -224.9 L-403.4 -224.9 L-401.4 -224.9 L-399.4 -224.9 L-397.4 -224.9 L-395.5 -224.9 L-393.5 -224.9 L-391.5 -224.9 L-389.5 -224.9 L-387.5 -224.9 L-385.5 -224.9 L-383.5 -224.9 L-381.5 -224.9 L-379.5 -224.9 L-377.5 -224.9 L-375.5 -224.9 Z " />
<path stroke="rgb(0,0,0)" stroke-opacity="0.108" fill="rgb(255,255,255)" fill-opacity="1" d="M-175 -99.95 L-175.1 -97.96 L-175.4 -95.99 L-175.8 -94.05 L-176.3 -92.14 L-177 -90.29 L-177.9 -88.49 L-178.8 -86.77 L-180 -85.13 L-181.2 -83.59 L-182.6 -82.15 L-184 -80.82 L-185.6 -79.61 L-187.3 -78.53 L-189 -77.59 L-190.8 -76.79 L-192.7 -76.14 L-194.6 -75.63 L-196.6 -75.28 L-198.6 -75.09 L-200.5 -75.06 L-202.5 -75.18 L-204.5 -75.46 L-206.4 -75.89 L-208.3 -76.48 L-210.2 -77.22 L-211.9 -78.1 L-213.6 -79.11 L-215.3 -80.26 L-216.8 -81.54 L-218.2 -82.93 L-219.5 -84.43 L-220.7 -86.03 L-221.7 -87.72 L-222.6 -89.48 L-223.4 -91.31 L-224 -93.2 L-224.5 -95.13 L-224.8 -97.09 L-224.9 -99.06 L-224.9 -101 L-224.8 -103 L-224.4 -105 L-224 -106.9 L-223.3 -108.8 L-222.6 -110.6 L-221.7 -112.4 L-220.6 -114.1 L-219.4 -115.7 L-218.1 -117.1 L-216.7 -118.5 L-215.2 -119.8 L-213.6 -120.9 L-211.8 -122 L-210.1 -122.8 L-208.2 -123.6 L-206.3 -124.1 L-204.4 -124.6 L-202.4 -124.8 L-200.4 -124.9 L-198.5 -124.9 L-196.5 -124.7 L-194.5 -124.3 L-192.6 -123.8 L-190.7 -123.2 L-188.9 -122.4 L-187.2 -121.4 L-185.5 -120.3 L-184 -119.1 L-182.5 -117.8 L-181.1 -116.3 L-179.9 -114.8 L-178.8 -113.1 L-177.8 -111.4 L-177 -109.6 L-176.3 -107.8 L-175.7 -105.8 L-175.4 -103.9 L-175.1 -101.9 L-175 -99.95 Z " />
<path stroke="rgb(0,0,0)" stroke-opacity="1" fill="rgb(255,255,255)" fill-opacity="1" d="M-175.5 -224.9 L-175.5 -222.9 L-175.5 -220.9 L-175.5 -218.9 L-175.5 -216.9 L-175.5 -214.9 L-175.5 -212.9 L-175.6 -210.9 L-175.6 -208.9 L-175.6 -206.9 L-175.6 -204.9 L-175.6 -202.9 L-175.6 -200.9 L-175.6 -198.9 L-175.6 -197 L-175.6 -195 L-175.6 -193 L-175.6 -191 L-175.6 -189 L-175.6 -187 L-175.6 -185 L-175.6 -183 L-175.6 -181 L-175.6 -179 L-175.6 -177 L-175.6 -175 L-177.6 -175 L-179.6 -175 L-181.6 -175 L-183.6 -175 L-185.6 -175 L-187.6 -175.1 L-189.6 -175.1 L-191.6 -175.1 L-193.6 -175.1 L-195.6 -175.1 L-197.6 -175.1 L-199.5 -175.1 L-201.5 -175.1 L-203.5 -175.1 L-205.5 -175.1 L-207.5 -175.1 L-209.5 -175.1 L-211.5 -175.1 L-213.5 -175.1 L-215.5 -175.1 L-217.5 -175.1 L-219.5 -175.1 L-221.5 -175.1 L-223.5 -175.1 L-225.5 -175.1 L-225.5 -177.1 L-225.5 -179.1 L-225.5 -181.1 L-225.4 -183.1 L-225.4 -185.1 L-225.4 -187.1 L-225.4 -189.1 L-225.4 -191.1 L-225.4 -193.1 L-225.4 -195.1 L-225.4 -197.1 L-225.4 -199.1 L-225.4 -201 L-225.4 -203 L-225.4 -205 L-225.4 -207 L-225.4 -209 L-225.4 -211 L-225.4 -213 L-225.4 -215 L-225.4 -217 L-225.4 -219 L-225.4 -221 L-225.4 -223 L-225.4 -225 L-223.4 -225 L-221.4 -225 L-219.4 -225 L-217.4 -225 L-215.4 -225 L-213.4 -224.9 L-211.4 -224.9 L-209.4 -224.9 L-207.4 -224.9 L-205.4 -224.9 L-203.4 -224.9 L-201.4 -224.9 L-199.4 -224.9 L-197.4 -224.9 L-195.5 -224.9 L-193.5 -224.9 L-191.5 -224.9 L-189.5 -224.9 L-187.5 -224.9 L-185.5 -224.9 L-183.5 -224.9 L-181.5 -224.9 L-179.5 -224.9 L-177.5 -224.9 L-175.5 -224.9 Z " />
<path stroke="rgb(0,0,0)" stroke-opacity="0.108" fill="rgb(255,255,255)" fill-opacity="1" d="M24.95 -99.95 L24.87 -97.96 L24.63 -95.99 L24.23 -94.05 L23.68 -92.14 L22.98 -90.29 L22.14 -88.49 L21.15 -86.77 L20.04 -85.13 L18.79 -83.59 L17.43 -82.15 L15.95 -80.82 L14.38 -79.61 L12.71 -78.53 L10.97 -77.59 L9.153 -76.79 L7.28 -76.14 L5.361 -75.63 L3.408 -75.28 L1.434 -75.09 L-0.5499 -75.06 L-2.53 -75.18 L-4.494 -75.46 L-6.43 -75.89 L-8.325 -76.48 L-10.17 -77.22 L-11.95 -78.1 L-13.65 -79.11 L-15.26 -80.26 L-16.78 -81.54 L-18.2 -82.93 L-19.5 -84.43 L-20.67 -86.03 L-21.72 -87.72 L-22.62 -89.48 L-23.39 -91.31 L-24 -93.2 L-24.47 -95.13 L-24.78 -97.09 L-24.93 -99.06 L-24.93 -101 L-24.77 -103 L-24.45 -105 L-23.97 -106.9 L-23.35 -108.8 L-22.58 -110.6 L-21.66 -112.4 L-20.61 -114.1 L-19.43 -115.7 L-18.12 -117.1 L-16.7 -118.5 L-15.18 -119.8 L-13.56 -120.9 L-11.85 -122 L-10.07 -122.8 L-8.222 -123.6 L-6.324 -124.1 L-4.387 -124.6 L-2.422 -124.8 L-0.441 -124.9 L1.542 -124.9 L3.516 -124.7 L5.467 -124.3 L7.384 -123.8 L9.254 -123.2 L11.07 -122.4 L12.81 -121.4 L14.47 -120.3 L16.04 -119.1 L17.51 -117.8 L18.86 -116.3 L20.1 -114.8 L21.21 -113.1 L22.19 -111.4 L23.02 -109.6 L23.72 -107.8 L24.26 -105.8 L24.64 -103.9 L24.88 -101.9 L24.95 -99.95 Z " />
<path stroke="rgb(0,0,0)" stroke-opacity="1" fill="rgb(255,255,255)" fill-opacity="1" d="M24.48 -224.9 L24.48 -222.9 L24.47 -220.9 L24.47 -218.9 L24.46 -216.9 L24.46 -214.9 L24.45 -212.9 L24.45 -210.9 L24.45 -208.9 L24.44 -206.9 L24.44 -204.9 L24.43 -202.9 L24.43 -200.9 L24.42 -198.9 L24.42 -197 L24.42 -195 L24.41 -193 L24.41 -191 L24.4 -189 L24.4 -187 L24.39 -185 L24.39 -183 L24.39 -181 L24.38 -179 L24.38 -177 L24.37 -175 L22.38 -175 L20.39 -175 L18.39 -175 L16.4 -175 L14.41 -175 L12.41 -175.1 L10.42 -175.1 L8.425 -175.1 L6.431 -175.1 L4.438 -175.1 L2.444 -175.1 L0.4506 -175.1 L-1.543 -175.1 L-3.536 -175.1 L-5.53 -175.1 L-7.523 -175.1 L-9.517 -175.1 L-11.51 -175.1 L-13.5 -175.1 L-15.5 -175.1 L-17.49 -175.1 L-19.48 -175.1 L-21.48 -175.1 L-23.47 -175.1 L-25.47 -175.1 L-25.46 -177.1 L-25.46 -179.1 L-25.45 -181.1 L-25.45 -183.1 L-25.44 -185.1 L-25.44 -187.1 L-25.44 -189.1 L-25.43 -191.1 L-25.43 -193.1 L-25.42 -195.1 L-25.42 -197.1 L-25.41 -199.1 L-25.41 -201 L-25.41 -203 L-25.4 -205 L-25.4 -207 L-25.39 -209 L-25.39 -211 L-25.38 -213 L-25.38 -215 L-25.38 -217 L-25.37 -219 L-25.37 -221 L-25.36 -223 L-25.36 -225 L-23.36 -225 L-21.37 -225 L-19.38 -225 L-17.38 -225 L-15.39 -225 L-13.4 -224.9 L-11.4 -224.9 L-9.41 -224.9 L-7.416 -224.9 L-5.423 -224.9 L-3.429 -224.9 L-1.436 -224.9 L0.5577 -224.9 L2.551 -224.9 L4.545 -224.9 L6.538 -224.9 L8.532 -224.9 L10.53 -224.9 L12.52 -224.9 L14.51 -224.9 L16.51 -224.9 L18.5 -224.9 L20.49 -224.9 L22.49 -224.9 L24.48 -224.9 Z " />
<path stroke="rgb(0,0,0)" stroke-opacity="0.108" fill="rgb(255,255,255)" fill-opacity="1" d="M225 -99.95 L224.9 -97.96 L224.6 -95.99 L224.2 -94.05 L223.7 -92.14 L223 -90.29 L222.1 -88.49 L221.2 -86.77 L220 -85.13 L218.8 -83.59 L217.4 -82.15 L216 -80.82 L214.4 -79.61 L212.7 -78.53 L211 -77.59 L209.2 -76.79 L207.3 -76.14 L205.4 -75.63 L203.4 -75.28 L201.4 -75.09 L199.5 -75.06 L197.5 -75.18 L195.5 -75.46 L193.6 -75.89 L191.7 -76.48 L189.8 -77.22 L188.1 -78.1 L186.4 -79.11 L184.7 -80.26 L183.2 -81.54 L181.8 -82.93 L180.5 -84.43 L179.3 -86.03 L178.3 -87.72 L177.4 -89.48 L176.6 -91.31 L176 -93.2 L175.5 -95.13 L175.2 -97.09 L175.1 -99.06 L175.1 -101 L175.2 -103 L175.6 -105 L176 -106.9 L176.7 -108.8 L177.4 -110.6 L178.3 -112.4 L179.4 -114.1 L180.6 -115.7 L181.9 -117.1 L183.3 -118.5 L184.8 -119.8 L186.4 -120.9 L188.2 -122 L189.9 -122.8 L191.8 -123.6 L193.7 -124.1 L195.6 -124.6 L197.6 -124.8 L199.6 -124.9 L201.5 -124.9 L203.5 -124.7 L205.5 -124.3 L207.4 -123.8 L209.3 -123.2 L211.1 -122.4 L212.8 -121.4 L214.5 -120.3 L216 -119.1 L217.5 -117.8 L218.9 -116.3 L220.1 -114.8 L221.2 -113.1 L222.2 -111.4 L223 -109.6 L223.7 -107.8 L224.3 -105.8 L224.6 -103.9 L224.9 -101.9 L225 -99.95 Z " />
<path stroke="rgb(0,0,0)" stroke-opacity="1" fill="rgb(255,255,255)" fill-opacity="1" d="M224.3 -224.9 L224.3 -222.9 L224.3 -220.9 L224.3 -219 L224.3 -217 L224.3 -215 L224.3 -213 L224.4 -211 L224.4 -209 L224.4 -207 L224.4 -205 L224.4 -203 L224.4 -201.1 L224.4 -199.1 L224.4 -197.1 L224.4 -195.1 L224.4 -193.1 L224.4 -191.1 L224.4 -189.1 L224.4 -187.1 L224.4 -185.1 L224.4 -183.1 L224.4 -181.2 L224.4 -179.2 L224.4 -177.2 L224.4 -175.2 L222.4 -175.2 L220.5 -175.2 L218.5 -175.2 L216.5 -175.2 L214.5 -175.2 L212.5 -175.2 L210.5 -175.2 L208.5 -175.2 L206.5 -175.1 L204.5 -175.1 L202.6 -175.1 L200.6 -175.1 L198.6 -175.1 L196.6 -175.1 L194.6 -175.1 L192.6 -175.1 L190.6 -175.1 L188.6 -175.1 L186.6 -175.1 L184.6 -175.1 L182.7 -175.1 L180.7 -175.1 L178.7 -175.1 L176.7 -175.1 L174.7 -175.1 L174.7 -177.1 L174.7 -179 L174.7 -181 L174.7 -183 L174.7 -185 L174.7 -187 L174.7 -189 L174.7 -191 L174.7 -193 L174.7 -195 L174.6 -197 L174.6 -198.9 L174.6 -200.9 L174.6 -202.9 L174.6 -204.9 L174.6 -206.9 L174.6 -208.9 L174.6 -210.9 L174.6 -212.9 L174.6 -214.9 L174.6 -216.8 L174.6 -218.8 L174.6 -220.8 L174.6 -222.8 L174.6 -224.8 L176.6 -224.8 L178.6 -224.8 L180.5 -224.8 L182.5 -224.8 L184.5 -224.8 L186.5 -224.8 L188.5 -224.8 L190.5 -224.8 L192.5 -224.9 L194.5 -224.9 L196.5 -224.9 L198.5 -224.9 L200.4 -224.9 L202.4 -224.9 L204.4 -224.9 L206.4 -224.9 L208.4 -224.9 L210.4 -224.9 L212.4 -224.9 L214.4 -224.9 L216.4 -224.9 L218.3 -224.9 L220.3 -224.9 L222.3 -224.9 L224.3 -224.9 Z " />
<path stroke="rgb(0,0,0)" stroke-opacity="0.108" fill="rgb(255,255,255)" fill-opacity="1" d="M-275 0.05379 L-275.1 2.036 L-275.4 4.005 L-275.8 5.949 L-276.3 7.855 L-277 9.712 L-277.9 11.51 L-278.8 13.23 L-280 14.87 L-281.2 16.41 L-282.6 17.85 L-284 19.18 L-285.6 20.39 L-287.3 21.47 L-289 22.41 L-290.8 23.21 L-292.7 23.86 L-294.6 24.37 L-296.6 24.72 L-298.6 24.91 L-300.5 24.94 L-302.5 24.82 L-304.5 24.54 L-306.4 24.11 L-308.3 23.52 L-310.2 22.78 L-311.9 21.9 L-313.6 20.89 L-315.3 19.74 L-316.8 18.46 L-318.2 17.07 L-319.5 15.57 L-320.7 13.97 L-321.7 12.28 L-322.6 10.52 L-323.4 8.689 L-324 6.803 L-324.5 4.874 L-324.8 2.915 L-324.9 0.9368 L-324.9 -1.047 L-324.8 -3.024 L-324.4 -4.982 L-324 -6.909 L-323.3 -8.792 L-322.6 -10.62 L-321.7 -12.38 L-320.6 -14.06 L-319.4 -15.65 L-318.1 -17.15 L-316.7 -18.53 L-315.2 -19.8 L-313.6 -20.95 L-311.8 -21.96 L-310.1 -22.83 L-308.2 -23.56 L-306.3 -24.14 L-304.4 -24.56 L-302.4 -24.83 L-300.4 -24.95 L-298.5 -24.9 L-296.5 -24.7 L-294.5 -24.34 L-292.6 -23.83 L-290.7 -23.17 L-288.9 -22.36 L-287.2 -21.41 L-285.5 -20.33 L-284 -19.11 L-282.5 -17.78 L-281.1 -16.33 L-279.9 -14.78 L-278.8 -13.14 L-277.8 -11.41 L-277 -9.613 L-276.3 -7.753 L-275.7 -5.845 L-275.4 -3.899 L-275.1 -1.929 L-275 0.05379 Z " />
<path stroke="rgb(0,0,0)" stroke-opacity="1" fill="rgb(255,255,255)" fill-opacity="1" d="M-275.5 -124.9 L-275.5 -122.9 L-275.5 -120.9 L-275.5 -118.9 L-275.5 -116.9 L-275.5 -114.9 L-275.5 -112.9 L-275.6 -110.9 L-275.6 -108.9 L-275.6 -106.9 L-275.6 -104.9 L-275.6 -102.9 L-275.6 -100.9 L-275.6 -98.95 L-275.6 -96.96 L-275.6 -94.96 L-275.6 -92.97 L-275.6 -90.97 L-275.6 -88.98 L-275.6 -86.99 L-275.6 -84.99 L-275.6 -83 L-275.6 -81.01 L-275.6 -79.01 L-275.6 -77.02 L-275.6 -75.03 L-277.6 -75.03 L-279.6 -75.04 L-281.6 -75.04 L-283.6 -75.04 L-285.6 -75.05 L-287.6 -75.05 L-289.6 -75.06 L-291.6 -75.06 L-293.6 -75.07 L-295.6 -75.07 L-297.6 -75.07 L-299.5 -75.08 L-301.5 -75.08 L-303.5 -75.09 L-305.5 -75.09 L-307.5 -75.1 L-309.5 -75.1 L-311.5 -75.1 L-313.5 -75.11 L-315.5 -75.11 L-317.5 -75.12 L-319.5 -75.12 L-321.5 -75.13 L-323.5 -75.13 L-325.5 -75.13 L-325.5 -77.13 L-325.5 -79.12 L-325.5 -81.11 L-325.4 -83.11 L-325.4 -85.1 L-325.4 -87.09 L-325.4 -89.09 L-325.4 -91.08 L-325.4 -93.08 L-325.4 -95.07 L-325.4 -97.06 L-325.4 -99.06 L-325.4 -101 L-325.4 -103 L-325.4 -105 L-325.4 -107 L-325.4 -109 L-325.4 -111 L-325.4 -113 L-325.4 -115 L-325.4 -117 L-325.4 -119 L-325.4 -121 L-325.4 -123 L-325.4 -125 L-323.4 -125 L-321.4 -125 L-319.4 -125 L-317.4 -125 L-315.4 -125 L-313.4 -124.9 L-311.4 -124.9 L-309.4 -124.9 L-307.4 -124.9 L-305.4 -124.9 L-303.4 -124.9 L-301.4 -124.9 L-299.4 -124.9 L-297.4 -124.9 L-295.5 -124.9 L-293.5 -124.9 L-291.5 -124.9 L-289.5 -124.9 L-287.5 -124.9 L-285.5 -124.9 L-283.5 -124.9 L-281.5 -124.9 L-279.5 -124.9 L-277.5 -124.9 L-275.5 -124.9 Z " />
<path stroke="rgb(0,0,0)" stroke-opacity="0.108" fill="rgb(255,255,255)" fill-opacity="1" d="M-75.05 0.05379 L-75.13 2.036 L-75.37 4.005 L-75.77 5.949 L-76.32 7.855 L-77.02 9.712 L-77.86 11.51 L-78.85 13.23 L-79.96 14.87 L-81.21 16.41 L-82.57 17.85 L-84.05 19.18 L-85.62 20.39 L-87.29 21.47 L-89.03 22.41 L-90.85 23.21 L-92.72 23.86 L-94.64 24.37 L-96.59 24.72 L-98.57 24.91 L-100.5 24.94 L-102.5 24.82 L-104.5 24.54 L-106.4 24.11 L-108.3 23.52 L-110.2 22.78 L-111.9 21.9 L-113.6 20.89 L-115.3 19.74 L-116.8 18.46 L-118.2 17.07 L-119.5 15.57 L-120.7 13.97 L-121.7 12.28 L-122.6 10.52 L-123.4 8.689 L-124 6.803 L-124.5 4.874 L-124.8 2.915 L-124.9 0.9368 L-124.9 -1.047 L-124.8 -3.024 L-124.4 -4.982 L-124 -6.909 L-123.3 -8.792 L-122.6 -10.62 L-121.7 -12.38 L-120.6 -14.06 L-119.4 -15.65 L-118.1 -17.15 L-116.7 -18.53 L-115.2 -19.8 L-113.6 -20.95 L-111.8 -21.96 L-110.1 -22.83 L-108.2 -23.56 L-106.3 -24.14 L-104.4 -24.56 L-102.4 -24.83 L-100.4 -24.95 L-98.46 -24.9 L-96.48 -24.7 L-94.53 -24.34 L-92.62 -23.83 L-90.75 -23.17 L-88.93 -22.36 L-87.19 -21.41 L-85.53 -20.33 L-83.96 -19.11 L-82.49 -17.78 L-81.14 -16.33 L-79.9 -14.78 L-78.79 -13.14 L-77.81 -11.41 L-76.98 -9.613 L-76.28 -7.753 L-75.74 -5.845 L-75.36 -3.899 L-75.12 -1.929 L-75.05 0.05379 Z " />
<path stroke="rgb(0,0,0)" stroke-opacity="1" fill="rgb(255,255,255)" fill-opacity="1" d="M-75.52 -124.9 L-75.52 -122.9 L-75.53 -120.9 L-75.53 -118.9 L-75.54 -116.9 L-75.54 -114.9 L-75.55 -112.9 L-75.55 -110.9 L-75.55 -108.9 L-75.56 -106.9 L-75.56 -104.9 L-75.57 -102.9 L-75.57 -100.9 L-75.58 -98.95 L-75.58 -96.96 L-75.58 -94.96 L-75.59 -92.97 L-75.59 -90.97 L-75.6 -88.98 L-75.6 -86.99 L-75.61 -84.99 L-75.61 -83 L-75.61 -81.01 L-75.62 -79.01 L-75.62 -77.02 L-75.63 -75.03 L-77.62 -75.03 L-79.61 -75.04 L-81.61 -75.04 L-83.6 -75.04 L-85.59 -75.05 L-87.59 -75.05 L-89.58 -75.06 L-91.58 -75.06 L-93.57 -75.07 L-95.56 -75.07 L-97.56 -75.07 L-99.55 -75.08 L-101.5 -75.08 L-103.5 -75.09 L-105.5 -75.09 L-107.5 -75.1 L-109.5 -75.1 L-111.5 -75.1 L-113.5 -75.11 L-115.5 -75.11 L-117.5 -75.12 L-119.5 -75.12 L-121.5 -75.13 L-123.5 -75.13 L-125.5 -75.13 L-125.5 -77.13 L-125.5 -79.12 L-125.5 -81.11 L-125.4 -83.11 L-125.4 -85.1 L-125.4 -87.09 L-125.4 -89.09 L-125.4 -91.08 L-125.4 -93.08 L-125.4 -95.07 L-125.4 -97.06 L-125.4 -99.06 L-125.4 -101 L-125.4 -103 L-125.4 -105 L-125.4 -107 L-125.4 -109 L-125.4 -111 L-125.4 -113 L-125.4 -115 L-125.4 -117 L-125.4 -119 L-125.4 -121 L-125.4 -123 L-125.4 -125 L-123.4 -125 L-121.4 -125 L-119.4 -125 L-117.4 -125 L-115.4 -125 L-113.4 -124.9 L-111.4 -124.9 L-109.4 -124.9 L-107.4 -124.9 L-105.4 -124.9 L-103.4 -124.9 L-101.4 -124.9 L-99.44 -124.9 L-97.45 -124.9 L-95.46 -124.9 L-93.46 -124.9 L-91.47 -124.9 L-89.47 -124.9 L-87.48 -124.9 L-85.49 -124.9 L-83.49 -124.9 L-81.5 -124.9 L-79.51 -124.9 L-77.51 -124.9 L-75.52 -124.9 Z " />
<path stroke="rgb(0,0,0)" stroke-opacity="0.108" fill="rgb(255,255,255)" fill-opacity="1" d="M125 0.05379 L124.9 2.036 L124.6 4.005 L124.2 5.949 L123.7 7.855 L123 9.712 L122.1 11.51 L121.2 13.23 L120 14.87 L118.8 16.41 L117.4 17.85 L116 19.18 L114.4 20.39 L112.7 21.47 L111 22.41 L109.2 23.21 L107.3 23.86 L105.4 24.37 L103.4 24.72 L101.4 24.91 L99.45 24.94 L97.47 24.82 L95.51 24.54 L93.57 24.11 L91.68 23.52 L89.83 22.78 L88.05 21.9 L86.35 20.89 L84.74 19.74 L83.22 18.46 L81.8 17.07 L80.5 15.57 L79.33 13.97 L78.28 12.28 L77.38 10.52 L76.61 8.689 L76 6.803 L75.53 4.874 L75.22 2.915 L75.07 0.9368 L75.07 -1.047 L75.23 -3.024 L75.55 -4.982 L76.03 -6.909 L76.65 -8.792 L77.42 -10.62 L78.34 -12.38 L79.39 -14.06 L80.57 -15.65 L81.88 -17.15 L83.3 -18.53 L84.82 -19.8 L86.44 -20.95 L88.15 -21.96 L89.93 -22.83 L91.78 -23.56 L93.68 -24.14 L95.61 -24.56 L97.58 -24.83 L99.56 -24.95 L101.5 -24.9 L103.5 -24.7 L105.5 -24.34 L107.4 -23.83 L109.3 -23.17 L111.1 -22.36 L112.8 -21.41 L114.5 -20.33 L116 -19.11 L117.5 -17.78 L118.9 -16.33 L120.1 -14.78 L121.2 -13.14 L122.2 -11.41 L123 -9.613 L123.7 -7.753 L124.3 -5.845 L124.6 -3.899 L124.9 -1.929 L125 0.05379 Z " />
<path stroke="rgb(0,0,0)" stroke-opacity="1" fill="rgb(255,255,255)" fill-opacity="1" d="M124.3 -124.9 L124.3 -122.9 L124.3 -120.9 L124.3 -119 L124.3 -117 L124.3 -115 L124.3 -113 L124.4 -111 L124.4 -109 L124.4 -107 L124.4 -105 L124.4 -103 L124.4 -101.1 L124.4 -99.06 L124.4 -97.07 L124.4 -95.08 L124.4 -93.09 L124.4 -91.11 L124.4 -89.12 L124.4 -87.13 L124.4 -85.14 L124.4 -83.15 L124.4 -81.16 L124.4 -79.17 L124.4 -77.18 L124.4 -75.19 L122.4 -75.18 L120.5 -75.18 L118.5 -75.17 L116.5 -75.17 L114.5 -75.17 L112.5 -75.16 L110.5 -75.16 L108.5 -75.15 L106.5 -75.15 L104.5 -75.14 L102.6 -75.14 L100.6 -75.13 L98.57 -75.13 L96.58 -75.12 L94.59 -75.12 L92.61 -75.11 L90.62 -75.11 L88.63 -75.1 L86.64 -75.1 L84.65 -75.09 L82.66 -75.09 L80.67 -75.08 L78.68 -75.08 L76.69 -75.07 L74.7 -75.07 L74.69 -77.06 L74.69 -79.05 L74.69 -81.04 L74.68 -83.03 L74.68 -85.02 L74.67 -87.01 L74.67 -89 L74.66 -90.99 L74.66 -92.98 L74.65 -94.97 L74.65 -96.95 L74.64 -98.94 L74.64 -100.9 L74.63 -102.9 L74.63 -104.9 L74.62 -106.9 L74.62 -108.9 L74.61 -110.9 L74.61 -112.9 L74.6 -114.9 L74.6 -116.8 L74.59 -118.8 L74.59 -120.8 L74.58 -122.8 L74.58 -124.8 L76.57 -124.8 L78.56 -124.8 L80.55 -124.8 L82.54 -124.8 L84.53 -124.8 L86.52 -124.8 L88.51 -124.8 L90.5 -124.8 L92.49 -124.9 L94.48 -124.9 L96.47 -124.9 L98.45 -124.9 L100.4 -124.9 L102.4 -124.9 L104.4 -124.9 L106.4 -124.9 L108.4 -124.9 L110.4 -124.9 L112.4 -124.9 L114.4 -124.9 L116.4 -124.9 L118.3 -124.9 L120.3 -124.9 L122.3 -124.9 L124.3 -124.9 Z " />
<path stroke="rgb(0,0,0)" stroke-opacity="0.108" fill="rgb(255,255,255)" fill-opacity="1" d="M325 0.05379 L324.9 2.036 L324.6 4.005 L324.2 5.949 L323.7 7.855 L323 9.712 L322.1 11.51 L321.2 13.23 L320 14.87 L318.8 16.41 L317.4 17.85 L316 19.18 L314.4 20.39 L312.7 21.47 L311 22.41 L309.2 23.21 L307.3 23.86 L305.4 24.37 L303.4 24.72 L301.4 24.91 L299.5 24.94 L297.5 24.82 L295.5 24.54 L293.6 24.11 L291.7 23.52 L289.8 22.78 L288.1 21.9 L286.4 20.89 L284.7 19.74 L283.2 18.46 L281.8 17.07 L280.5 15.57 L279.3 13.97 L278.3 12.28 L277.4 10.52 L276.6 8.689 L276 6.803 L275.5 4.874 L275.2 2.915 L275.1 0.9368 L275.1 -1.047 L275.2 -3.024 L275.6 -4.982 L276 -6.909 L276.7 -8.792 L277.4 -10.62 L278.3 -12.38 L279.4 -14.06 L280.6 -15.65 L281.9 -17.15 L283.3 -18.53 L284.8 -19.8 L286.4 -20.95 L288.2 -21.96 L289.9 -22.83 L291.8 -23.56 L293.7 -24.14 L295.6 -24.56 L297.6 -24.83 L299.6 -24.95 L301.5 -24.9 L303.5 -24.7 L305.5 -24.34 L307.4 -23.83 L309.3 -23.17 L311.1 -22.36 L312.8 -21.41 L314.5 -20.33 L316 -19.11 L317.5 -17.78 L318.9 -16.33 L320.1 -14.78 L321.2 -13.14 L322.2 -11.41 L323 -9.613 L323.7 -7.753 L324.3 -5.845 L324.6 -3.899 L324.9 -1.929 L325 0.05379 Z " />
<path stroke="rgb(0,0,0)" stroke-opacity="1" fill="rgb(255,255,255)" fill-opacity="1" d="M-375.5 -24.86 L-375.5 -22.87 L-375.5 -20.88 L-375.5 -18.88 L-375.5 -16.89 L-375.5 -14.9 L-375.5 -12.9 L-375.6 -10.91 L-375.6 -8.916 L-375.6 -6.923 L-375.6 -4.929 L-375.6 -2.936 L-375.6 -0.9424 L-375.6 1.051 L-375.6 3.045 L-375.6 5.038 L-375.6 7.032 L-375.6 9.025 L-375.6 11.02 L-375.6 13.01 L-375.6 15.01 L-375.6 17 L-375.6 18.99 L-375.6 20.99 L-375.6 22.98 L-375.6 24.97 L-377.6 24.97 L-379.6 24.96 L-381.6 24.96 L-383.6 24.96 L-385.6 24.95 L-387.6 24.95 L-389.6 24.94 L-391.6 24.94 L-393.6 24.93 L-395.6 24.93 L-397.6 24.93 L-399.5 24.92 L-401.5 24.92 L-403.5 24.91 L-405.5 24.91 L-407.5 24.9 L-409.5 24.9 L-411.5 24.9 L-413.5 24.89 L-415.5 24.89 L-417.5 24.88 L-419.5 24.88 L-421.5 24.87 L-423.5 24.87 L-425.5 24.87 L-425.5 22.87 L-425.5 20.88 L-425.5 18.89 L-425.4 16.89 L-425.4 14.9 L-425.4 12.91 L-425.4 10.91 L-425.4 8.918 L-425.4 6.925 L-425.4 4.931 L-425.4 2.938 L-425.4 0.944 L-425.4 -1.049 L-425.4 -3.043 L-425.4 -5.037 L-425.4 -7.03 L-425.4 -9.024 L-425.4 -11.02 L-425.4 -13.01 L-425.4 -15 L-425.4 -17 L-425.4 -18.99 L-425.4 -20.98 L-425.4 -22.98 L-425.4 -24.97 L-423.4 -24.97 L-421.4 -24.96 L-419.4 -24.96 L-417.4 -24.95 L-415.4 -24.95 L-413.4 -24.95 L-411.4 -24.94 L-409.4 -24.94 L-407.4 -24.93 L-405.4 -24.93 L-403.4 -24.92 L-401.4 -24.92 L-399.4 -24.92 L-397.4 -24.91 L-395.5 -24.91 L-393.5 -24.9 L-391.5 -24.9 L-389.5 -24.89 L-387.5 -24.89 L-385.5 -24.89 L-383.5 -24.88 L-381.5 -24.88 L-379.5 -24.87 L-377.5 -24.87 L-375.5 -24.86 Z " />
<path stroke="rgb(0,0,0)" stroke-opacity="0.108" fill="rgb(255,255,255)" fill-opacity="1" d="M-175 100.1 L-175.1 102 L-175.4 104 L-175.8 105.9 L-176.3 107.9 L-177 109.7 L-177.9 111.5 L-178.8 113.2 L-180 114.9 L-181.2 116.4 L-182.6 117.9 L-184 119.2 L-185.6 120.4 L-187.3 121.5 L-189 122.4 L-190.8 123.2 L-192.7 123.9 L-194.6 124.4 L-196.6 124.7 L-198.6 124.9 L-200.5 124.9 L-202.5 124.8 L-204.5 124.5 L-206.4 124.1 L-208.3 123.5 L-210.2 122.8 L-211.9 121.9 L-213.6 120.9 L-215.3 119.7 L-216.8 118.5 L-218.2 117.1 L-219.5 115.6 L-220.7 114 L-221.7 112.3 L-222.6 110.5 L-223.4 108.7 L-224 106.8 L-224.5 104.9 L-224.8 102.9 L-224.9 100.9 L-224.9 98.95 L-224.8 96.98 L-224.4 95.02 L-224 93.09 L-223.3 91.21 L-222.6 89.38 L-221.7 87.62 L-220.6 85.94 L-219.4 84.35 L-218.1 82.85 L-216.7 81.47 L-215.2 80.2 L-213.6 79.05 L-211.8 78.04 L-210.1 77.17 L-208.2 76.44 L-206.3 75.86 L-204.4 75.44 L-202.4 75.17 L-200.4 75.05 L-198.5 75.1 L-196.5 75.3 L-194.5 75.66 L-192.6 76.17 L-190.7 76.83 L-188.9 77.64 L-187.2 78.59 L-185.5 79.67 L-184 80.89 L-182.5 82.22 L-181.1 83.67 L-179.9 85.22 L-178.8 86.86 L-177.8 88.59 L-177 90.39 L-176.3 92.25 L-175.7 94.16 L-175.4 96.1 L-175.1 98.07 L-175 100.1 Z " />
<path stroke="rgb(0,0,0)" stroke-opacity="1" fill="rgb(255,255,255)" fill-opacity="1" d="M-175.5 -24.86 L-175.5 -22.87 L-175.5 -20.88 L-175.5 -18.88 L-175.5 -16.89 L-175.5 -14.9 L-175.5 -12.9 L-175.6 -10.91 L-175.6 -8.916 L-175.6 -6.923 L-175.6 -4.929 L-175.6 -2.936 L-175.6 -0.9424 L-175.6 1.051 L-175.6 3.045 L-175.6 5.038 L-175.6 7.032 L-175.6 9.025 L-175.6 11.02 L-175.6 13.01 L-175.6 15.01 L-175.6 17 L-175.6 18.99 L-175.6 20.99 L-175.6 22.98 L-175.6 24.97 L-177.6 24.97 L-179.6 24.96 L-181.6 24.96 L-183.6 24.96 L-185.6 24.95 L-187.6 24.95 L-189.6 24.94 L-191.6 24.94 L-193.6 24.93 L-195.6 24.93 L-197.6 24.93 L-199.5 24.92 L-201.5 24.92 L-203.5 24.91 L-205.5 24.91 L-207.5 24.9 L-209.5 24.9 L-211.5 24.9 L-213.5 24.89 L-215.5 24.89 L-217.5 24.88 L-219.5 24.88 L-221.5 24.87 L-223.5 24.87 L-225.5 24.87 L-225.5 22.87 L-225.5 20.88 L-225.5 18.89 L-225.4 16.89 L-225.4 14.9 L-225.4 12.91 L-225.4 10.91 L-225.4 8.918 L-225.4 6.925 L-225.4 4.931 L-225.4 2.938 L-225.4 0.944 L-225.4 -1.049 L-225.4 -3.043 L-225.4 -5.037 L-225.4 -7.03 L-225.4 -9.024 L-225.4 -11.02 L-225.4 -13.01 L-225.4 -15 L-225.4 -17 L-225.4 -18.99 L-225.4 -20.98 L-225.4 -22.98 L-225.4 -24.97 L-223.4 -24.97 L-221.4 -24.96 L-219.4 -24.96 L-217.4 -24.95 L-215.4 -24.95 L-213.4 -24.95 L-211.4 -24.94 L-209.4 -24.94 L-207.4 -24.93 L-205.4 -24.93 L-203.4 -24.92 L-201.4 -24.92 L-199.4 -24.92 L-197.4 -24.91 L-195.5 -24.91 L-193.5 -24.9 L-191.5 -24.9 L-189.5 -24.89 L-187.5 -24.89 L-185.5 -24.89 L-183.5 -24.88 L-181.5 -24.88 L-179.5 -24.87 L-177.5 -24.87 L-175.5 -24.86 Z " />
<path stroke="rgb(0,0,0)" stroke-opacity="0.108" fill="rgb(255,255,255)" fill-opacity="1" d="M24.95 100.1 L24.87 102 L24.63 104 L24.23 105.9 L23.68 107.9 L22.98 109.7 L22.14 111.5 L21.15 113.2 L20.04 114.9 L18.79 116.4 L17.43 117.9 L15.95 119.2 L14.38 120.4 L12.71 121.5 L10.97 122.4 L9.153 123.2 L7.28 123.9 L5.361 124.4 L3.408 124.7 L1.434 124.9 L-0.5499 124.9 L-2.53 124.8 L-4.494 124.5 L-6.43 124.1 L-8.325 123.5 L-10.17 122.8 L-11.95 121.9 L-13.65 120.9 L-15.26 119.7 L-16.78 118.5 L-18.2 117.1 L-19.5 115.6 L-20.67 114 L-21.72 112.3 L-22.62 110.5 L-23.39 108.7 L-24 106.8 L-24.47 104.9 L-24.78 102.9 L-24.93 100.9 L-24.93 98.95 L-24.77 96.98 L-24.45 95.02 L-23.97 93.09 L-23.35 91.21 L-22.58 89.38 L-21.66 87.62 L-20.61 85.94 L-19.43 84.35 L-18.12 82.85 L-16.7 81.47 L-15.18 80.2 L-13.56 79.05 L-11.85 78.04 L-10.07 77.17 L-8.222 76.44 L-6.324 75.86 L-4.387 75.44 L-2.422 75.17 L-0.441 75.05 L1.542 75.1 L3.516 75.3 L5.467 75.66 L7.384 76.17 L9.254 76.83 L11.07 77.64 L12.81 78.59 L14.47 79.67 L16.04 80.89 L17.51 82.22 L18.86 83.67 L20.1 85.22 L21.21 86.86 L22.19 88.59 L23.02 90.39 L23.72 92.25 L24.26 94.16 L24.64 96.1 L24.88 98.07 L24.95 100.1 Z " />
<path stroke="rgb(0,0,0)" stroke-opacity="1" fill="rgb(255,255,255)" fill-opacity="1" d="M24.32 -24.93 L24.32 -22.94 L24.33 -20.95 L24.33 -18.96 L24.34 -16.97 L24.34 -14.98 L24.35 -12.99 L24.35 -11 L24.36 -9.011 L24.36 -7.022 L24.37 -5.032 L24.37 -3.043 L24.38 -1.053 L24.38 0.9365 L24.39 2.926 L24.39 4.916 L24.39 6.905 L24.4 8.895 L24.4 10.88 L24.41 12.87 L24.41 14.86 L24.42 16.85 L24.42 18.84 L24.43 20.83 L24.43 22.82 L24.44 24.81 L22.45 24.82 L20.46 24.82 L18.47 24.83 L16.48 24.83 L14.49 24.83 L12.5 24.84 L10.51 24.84 L8.522 24.85 L6.532 24.85 L4.543 24.86 L2.553 24.86 L0.5635 24.87 L-1.426 24.87 L-3.416 24.88 L-5.405 24.88 L-7.395 24.89 L-9.384 24.89 L-11.37 24.9 L-13.36 24.9 L-15.35 24.91 L-17.34 24.91 L-19.33 24.92 L-21.32 24.92 L-23.31 24.93 L-25.3 24.93 L-25.31 22.94 L-25.31 20.95 L-25.31 18.96 L-25.32 16.97 L-25.32 14.98 L-25.33 12.99 L-25.33 11 L-25.34 9.014 L-25.34 7.025 L-25.35 5.035 L-25.35 3.045 L-25.36 1.056 L-25.36 -0.9336 L-25.37 -2.923 L-25.37 -4.913 L-25.38 -6.902 L-25.38 -8.892 L-25.39 -10.88 L-25.39 -12.87 L-25.4 -14.86 L-25.4 -16.85 L-25.41 -18.84 L-25.41 -20.83 L-25.42 -22.82 L-25.42 -24.81 L-23.43 -24.81 L-21.44 -24.82 L-19.45 -24.82 L-17.46 -24.83 L-15.47 -24.83 L-13.48 -24.84 L-11.49 -24.84 L-9.504 -24.85 L-7.514 -24.85 L-5.525 -24.86 L-3.535 -24.86 L-1.545 -24.87 L0.4441 -24.87 L2.434 -24.87 L4.423 -24.88 L6.413 -24.88 L8.402 -24.89 L10.39 -24.89 L12.38 -24.9 L14.37 -24.9 L16.36 -24.91 L18.35 -24.91 L20.34 -24.92 L22.33 -24.92 L24.32 -24.93 Z " />
<path stroke="rgb(0,0,0)" stroke-opacity="0.108" fill="rgb(255,255,255)" fill-opacity="1" d="M225 100.1 L224.9 102 L224.6 104 L224.2 105.9 L223.7 107.9 L223 109.7 L222.1 111.5 L221.2 113.2 L220 114.9 L218.8 116.4 L217.4 117.9 L216 119.2 L214.4 120.4 L212.7 121.5 L211 122.4 L209.2 123.2 L207.3 123.9 L205.4 124.4 L203.4 124.7 L201.4 124.9 L199.5 124.9 L197.5 124.8 L195.5 124.5 L193.6 124.1 L191.7 123.5 L189.8 122.8 L188.1 121.9 L186.4 120.9 L184.7 119.7 L183.2 118.5 L181.8 117.1 L180.5 115.6 L179.3 114 L178.3 112.3 L177.4 110.5 L176.6 108.7 L176 106.8 L175.5 104.9 L175.2 102.9 L175.1 100.9 L175.1 98.95 L175.2 96.98 L175.6 95.02 L176 93.09 L176.7 91.21 L177.4 89.38 L178.3 87.62 L179.4 85.94 L180.6 84.35 L181.9 82.85 L183.3 81.47 L184.8 80.2 L186.4 79.05 L188.2 78.04 L189.9 77.17 L191.8 76.44 L193.7 75.86 L195.6 75.44 L197.6 75.17 L199.6 75.05 L201.5 75.1 L203.5 75.3 L205.5 75.66 L207.4 76.17 L209.3 76.83 L211.1 77.64 L212.8 78.59 L214.5 79.67 L216 80.89 L217.5 82.22 L218.9 83.67 L220.1 85.22 L221.2 86.86 L222.2 88.59 L223 90.39 L223.7 92.25 L224.3 94.16 L224.6 96.1 L224.9 98.07 L225 100.1 Z " />
<path stroke="rgb(0,0,0)" stroke-opacity="1" fill="rgb(255,255,255)" fill-opacity="1" d="M220 -26.3 L220.2 -24.43 L220.5 -22.56 L220.7 -20.69 L220.9 -18.82 L221.2 -16.95 L221.4 -15.08 L221.6 -13.21 L221.9 -11.34 L222.1 -9.472 L222.3 -7.602 L222.6 -5.732 L222.8 -3.862 L223 -1.992 L223.3 -0.1223 L223.5 1.748 L223.8 3.618 L224 5.488 L224.2 7.358 L224.5 9.228 L224.7 11.1 L224.9 12.97 L225.2 14.84 L225.4 16.71 L225.6 18.58 L225.9 20.45 L224 20.68 L222.1 20.92 L220.3 21.15 L218.4 21.39 L216.5 21.63 L214.7 21.86 L212.8 22.1 L210.9 22.33 L209 22.57 L207.2 22.8 L205.3 23.04 L203.4 23.27 L201.6 23.51 L199.7 23.74 L197.8 23.98 L195.9 24.21 L194.1 24.45 L192.2 24.69 L190.3 24.92 L188.5 25.16 L186.6 25.39 L184.7 25.63 L182.9 25.86 L181 26.1 L179.1 26.33 L178.9 24.46 L178.6 22.59 L178.4 20.72 L178.2 18.85 L177.9 16.98 L177.7 15.11 L177.5 13.24 L177.2 11.37 L177 9.503 L176.8 7.633 L176.5 5.763 L176.3 3.893 L176.1 2.023 L175.8 0.1527 L175.6 -1.717 L175.4 -3.587 L175.1 -5.457 L174.9 -7.327 L174.6 -9.198 L174.4 -11.07 L174.2 -12.94 L173.9 -14.81 L173.7 -16.68 L173.5 -18.55 L173.2 -20.42 L175.1 -20.65 L177 -20.89 L178.8 -21.12 L180.7 -21.36 L182.6 -21.59 L184.5 -21.83 L186.3 -22.07 L188.2 -22.3 L190.1 -22.54 L191.9 -22.77 L193.8 -23.01 L195.7 -23.24 L197.5 -23.48 L199.4 -23.71 L201.3 -23.95 L203.2 -24.18 L205 -24.42 L206.9 -24.66 L208.8 -24.89 L210.6 -25.13 L212.5 -25.36 L214.4 -25.6 L216.2 -25.83 L218.1 -26.07 L220 -26.3 Z " />
<path stroke="rgb(0,0,0)" stroke-opacity="0.108" fill="rgb(255,255,255)" fill-opacity="1" d="M-275 200.1 L-275.1 202 L-275.4 204 L-275.8 205.9 L-276.3 207.9 L-277 209.7 L-277.9 211.5 L-278.8 213.2 L-280 214.9 L-281.2 216.4 L-282.6 217.9 L-284 219.2 L-285.6 220.4 L-287.3 221.5 L-289 222.4 L-290.8 223.2 L-292.7 223.9 L-294.6 224.4 L-296.6 224.7 L-298.6 224.9 L-300.5 224.9 L-302.5 224.8 L-304.5 224.5 L-306.4 224.1 L-308.3 223.5 L-310.2 222.8 L-311.9 221.9 L-313.6 220.9 L-315.3 219.7 L-316.8 218.5 L-318.2 217.1 L-319.5 215.6 L-320.7 214 L-321.7 212.3 L-322.6 210.5 L-323.4 208.7 L-324 206.8 L-324.5 204.9 L-324.8 202.9 L-324.9 200.9 L-324.9 199 L-324.8 197 L-324.4 195 L-324 193.1 L-323.3 191.2 L-322.6 189.4 L-321.7 187.6 L-320.6 185.9 L-319.4 184.3 L-318.1 182.9 L-316.7 181.5 L-315.2 180.2 L-313.6 179.1 L-311.8 178 L-310.1 177.2 L-308.2 176.4 L-306.3 175.9 L-304.4 175.4 L-302.4 175.2 L-300.4 175.1 L-298.5 175.1 L-296.5 175.3 L-294.5 175.7 L-292.6 176.2 L-290.7 176.8 L-288.9 177.6 L-287.2 178.6 L-285.5 179.7 L-284 180.9 L-282.5 182.2 L-281.1 183.7 L-279.9 185.2 L-278.8 186.9 L-277.8 188.6 L-277 190.4 L-276.3 192.2 L-275.7 194.2 L-275.4 196.1 L-275.1 198.1 L-275 200.1 Z " />
<path stroke="rgb(0,0,0)" stroke-opacity="1" fill="rgb(255,255,255)" fill-opacity="1" d="M-275.5 75.14 L-275.5 77.13 L-275.5 79.12 L-275.5 81.12 L-275.5 83.11 L-275.5 85.1 L-275.5 87.1 L-275.6 89.09 L-275.6 91.08 L-275.6 93.08 L-275.6 95.07 L-275.6 97.06 L-275.6 99.06 L-275.6 101.1 L-275.6 103 L-275.6 105 L-275.6 107 L-275.6 109 L-275.6 111 L-275.6 113 L-275.6 115 L-275.6 117 L-275.6 119 L-275.6 121 L-275.6 123 L-275.6 125 L-277.6 125 L-279.6 125 L-281.6 125 L-283.6 125 L-285.6 125 L-287.6 124.9 L-289.6 124.9 L-291.6 124.9 L-293.6 124.9 L-295.6 124.9 L-297.6 124.9 L-299.5 124.9 L-301.5 124.9 L-303.5 124.9 L-305.5 124.9 L-307.5 124.9 L-309.5 124.9 L-311.5 124.9 L-313.5 124.9 L-315.5 124.9 L-317.5 124.9 L-319.5 124.9 L-321.5 124.9 L-323.5 124.9 L-325.5 124.9 L-325.5 122.9 L-325.5 120.9 L-325.5 118.9 L-325.4 116.9 L-325.4 114.9 L-325.4 112.9 L-325.4 110.9 L-325.4 108.9 L-325.4 106.9 L-325.4 104.9 L-325.4 102.9 L-325.4 100.9 L-325.4 98.95 L-325.4 96.96 L-325.4 94.96 L-325.4 92.97 L-325.4 90.98 L-325.4 88.98 L-325.4 86.99 L-325.4 85 L-325.4 83 L-325.4 81.01 L-325.4 79.02 L-325.4 77.02 L-325.4 75.03 L-323.4 75.03 L-321.4 75.04 L-319.4 75.04 L-317.4 75.05 L-315.4 75.05 L-313.4 75.05 L-311.4 75.06 L-309.4 75.06 L-307.4 75.07 L-305.4 75.07 L-303.4 75.08 L-301.4 75.08 L-299.4 75.08 L-297.4 75.09 L-295.5 75.09 L-293.5 75.1 L-291.5 75.1 L-289.5 75.11 L-287.5 75.11 L-285.5 75.11 L-283.5 75.12 L-281.5 75.12 L-279.5 75.13 L-277.5 75.13 L-275.5 75.14 Z " />
<path stroke="rgb(0,0,0)" stroke-opacity="0.108" fill="rgb(255,255,255)" fill-opacity="1" d="M-75.05 200.1 L-75.13 202 L-75.37 204 L-75.77 205.9 L-76.32 207.9 L-77.02 209.7 L-77.86 211.5 L-78.85 213.2 L-79.96 214.9 L-81.21 216.4 L-82.57 217.9 L-84.05 219.2 L-85.62 220.4 L-87.29 221.5 L-89.03 222.4 L-90.85 223.2 L-92.72 223.9 L-94.64 224.4 L-96.59 224.7 L-98.57 224.9 L-100.5 224.9 L-102.5 224.8 L-104.5 224.5 L-106.4 224.1 L-108.3 223.5 L-110.2 222.8 L-111.9 221.9 L-113.6 220.9 L-115.3 219.7 L-116.8 218.5 L-118.2 217.1 L-119.5 215.6 L-120.7 214 L-121.7 212.3 L-122.6 210.5 L-123.4 208.7 L-124 206.8 L-124.5 204.9 L-124.8 202.9 L-124.9 200.9 L-124.9 199 L-124.8 197 L-124.4 195 L-124 193.1 L-123.3 191.2 L-122.6 189.4 L-121.7 187.6 L-120.6 185.9 L-119.4 184.3 L-118.1 182.9 L-116.7 181.5 L-115.2 180.2 L-113.6 179.1 L-111.8 178 L-110.1 177.2 L-108.2 176.4 L-106.3 175.9 L-104.4 175.4 L-102.4 175.2 L-100.4 175.1 L-98.46 175.1 L-96.48 175.3 L-94.53 175.7 L-92.62 176.2 L-90.75 176.8 L-88.93 177.6 L-87.19 178.6 L-85.53 179.7 L-83.96 180.9 L-82.49 182.2 L-81.14 183.7 L-79.9 185.2 L-78.79 186.9 L-77.81 188.6 L-76.98 190.4 L-76.28 192.2 L-75.74 194.2 L-75.36 196.1 L-75.12 198.1 L-75.05 200.1 Z " />
<path stroke="rgb(0,0,0)" stroke-opacity="1" fill="rgb(255,255,255)" fill-opacity="1" d="M-75.68 75.07 L-75.68 77.06 L-75.67 79.05 L-75.67 81.04 L-75.66 83.03 L-75.66 85.02 L-75.65 87.01 L-75.65 89 L-75.64 90.99 L-75.64 92.98 L-75.63 94.97 L-75.63 96.96 L-75.62 98.95 L-75.62 100.9 L-75.61 102.9 L-75.61 104.9 L-75.61 106.9 L-75.6 108.9 L-75.6 110.9 L-75.59 112.9 L-75.59 114.9 L-75.58 116.9 L-75.58 118.8 L-75.57 120.8 L-75.57 122.8 L-75.56 124.8 L-77.55 124.8 L-79.54 124.8 L-81.53 124.8 L-83.52 124.8 L-85.51 124.8 L-87.5 124.8 L-89.49 124.8 L-91.48 124.8 L-93.47 124.9 L-95.46 124.9 L-97.45 124.9 L-99.44 124.9 L-101.4 124.9 L-103.4 124.9 L-105.4 124.9 L-107.4 124.9 L-109.4 124.9 L-111.4 124.9 L-113.4 124.9 L-115.4 124.9 L-117.3 124.9 L-119.3 124.9 L-121.3 124.9 L-123.3 124.9 L-125.3 124.9 L-125.3 122.9 L-125.3 121 L-125.3 119 L-125.3 117 L-125.3 115 L-125.3 113 L-125.3 111 L-125.3 109 L-125.3 107 L-125.3 105 L-125.4 103 L-125.4 101.1 L-125.4 99.07 L-125.4 97.08 L-125.4 95.09 L-125.4 93.1 L-125.4 91.11 L-125.4 89.12 L-125.4 87.13 L-125.4 85.14 L-125.4 83.15 L-125.4 81.16 L-125.4 79.17 L-125.4 77.18 L-125.4 75.19 L-123.4 75.19 L-121.4 75.18 L-119.5 75.18 L-117.5 75.17 L-115.5 75.17 L-113.5 75.16 L-111.5 75.16 L-109.5 75.15 L-107.5 75.15 L-105.5 75.14 L-103.5 75.14 L-101.5 75.13 L-99.56 75.13 L-97.57 75.13 L-95.58 75.12 L-93.59 75.12 L-91.6 75.11 L-89.61 75.11 L-87.62 75.1 L-85.63 75.1 L-83.64 75.09 L-81.65 75.09 L-79.66 75.08 L-77.67 75.08 L-75.68 75.07 Z " />
<path stroke="rgb(0,0,0)" stroke-opacity="0.108" fill="rgb(255,255,255)" fill-opacity="1" d="M125 200.1 L124.9 202 L124.6 204 L124.2 205.9 L123.7 207.9 L123 209.7 L122.1 211.5 L121.2 213.2 L120 214.9 L118.8 216.4 L117.4 217.9 L116 219.2 L114.4 220.4 L112.7 221.5 L111 222.4 L109.2 223.2 L107.3 223.9 L105.4 224.4 L103.4 224.7 L101.4 224.9 L99.45 224.9 L97.47 224.8 L95.51 224.5 L93.57 224.1 L91.68 223.5 L89.83 222.8 L88.05 221.9 L86.35 220.9 L84.74 219.7 L83.22 218.5 L81.8 217.1 L80.5 215.6 L79.33 214 L78.28 212.3 L77.38 210.5 L76.61 208.7 L76 206.8 L75.53 204.9 L75.22 202.9 L75.07 200.9 L75.07 199 L75.23 197 L75.55 195 L76.03 193.1 L76.65 191.2 L77.42 189.4 L78.34 187.6 L79.39 185.9 L80.57 184.3 L81.88 182.9 L83.3 181.5 L84.82 180.2 L86.44 179.1 L88.15 178 L89.93 177.2 L91.78 176.4 L93.68 175.9 L95.61 175.4 L97.58 175.2 L99.56 175.1 L101.5 175.1 L103.5 175.3 L105.5 175.7 L107.4 176.2 L109.3 176.8 L111.1 177.6 L112.8 178.6 L114.5 179.7 L116 180.9 L117.5 182.2 L118.9 183.7 L120.1 185.2 L121.2 186.9 L122.2 188.6 L123 190.4 L123.7 192.2 L124.3 194.2 L124.6 196.1 L124.9 198.1 L125 200.1 Z " />
<path stroke="rgb(0,0,0)" stroke-opacity="1" fill="rgb(255,255,255)" fill-opacity="1" d="M120 73.7 L120.2 75.57 L120.5 77.44 L120.7 79.31 L120.9 81.18 L121.2 83.05 L121.4 84.92 L121.6 86.79 L121.9 88.66 L122.1 90.53 L122.3 92.4 L122.6 94.27 L122.8 96.14 L123 98.01 L123.3 99.88 L123.5 101.7 L123.8 103.6 L124 105.5 L124.2 107.4 L124.5 109.2 L124.7 111.1 L124.9 113 L125.2 114.8 L125.4 116.7 L125.6 118.6 L125.9 120.4 L124 120.7 L122.1 120.9 L120.3 121.2 L118.4 121.4 L116.5 121.6 L114.7 121.9 L112.8 122.1 L110.9 122.3 L109 122.6 L107.2 122.8 L105.3 123 L103.4 123.3 L101.6 123.5 L99.69 123.7 L97.82 124 L95.95 124.2 L94.08 124.5 L92.21 124.7 L90.34 124.9 L88.47 125.2 L86.6 125.4 L84.73 125.6 L82.86 125.9 L80.99 126.1 L79.12 126.3 L78.88 124.5 L78.65 122.6 L78.41 120.7 L78.18 118.9 L77.94 117 L77.71 115.1 L77.47 113.2 L77.24 111.4 L77 109.5 L76.77 107.6 L76.53 105.8 L76.29 103.9 L76.06 102 L75.82 100.2 L75.59 98.28 L75.35 96.41 L75.12 94.54 L74.88 92.67 L74.65 90.8 L74.41 88.93 L74.18 87.06 L73.94 85.19 L73.71 83.32 L73.47 81.45 L73.23 79.58 L75.1 79.35 L76.97 79.11 L78.84 78.88 L80.71 78.64 L82.58 78.41 L84.45 78.17 L86.32 77.93 L88.19 77.7 L90.06 77.46 L91.93 77.23 L93.8 76.99 L95.67 76.76 L97.54 76.52 L99.41 76.29 L101.3 76.05 L103.2 75.82 L105 75.58 L106.9 75.34 L108.8 75.11 L110.6 74.87 L112.5 74.64 L114.4 74.4 L116.2 74.17 L118.1 73.93 L120 73.7 Z " />
<path stroke="rgb(0,0,0)" stroke-opacity="0.108" fill="rgb(255,255,255)" fill-opacity="1" d="M325 200.1 L324.9 202 L324.6 204 L324.2 205.9 L323.7 207.9 L323 209.7 L322.1 211.5 L321.2 213.2 L320 214.9 L318.8 216.4 L317.4 217.9 L316 219.2 L314.4 220.4 L312.7 221.5 L311 222.4 L309.2 223.2 L307.3 223.9 L305.4 224.4 L303.4 224.7 L301.4 224.9 L299.5 224.9 L297.5 224.8 L295.5 224.5 L293.6 224.1 L291.7 223.5 L289.8 222.8 L288.1 221.9 L286.4 220.9 L284.7 219.7 L283.2 218.5 L281.8 217.1 L280.5 215.6 L279.3 214 L278.3 212.3 L277.4 210.5 L276.6 208.7 L276 206.8 L275.5 204.9 L275.2 202.9 L275.1 200.9 L275.1 199 L275.2 197 L275.6 195 L276 193.1 L276.7 191.2 L277.4 189.4 L278.3 187.6 L279.4 185.9 L280.6 184.3 L281.9 182.9 L283.3 181.5 L284.8 180.2 L286.4 179.1 L288.2 178 L289.9 177.2 L291.8 176.4 L293.7 175.9 L295.6 175.4 L297.6 175.2 L299.6 175.1 L301.5 175.1 L303.5 175.3 L305.5 175.7 L307.4 176.2 L309.3 176.8 L311.1 177.6 L312.8 178.6 L314.5 179.7 L316 180.9 L317.5 182.2 L318.9 183.7 L320.1 185.2 L321.2 186.9 L322.2 188.6 L323 190.4 L323.7 192.2 L324.3 194.2 L324.6 196.1 L324.9 198.1 L325 200.1 Z " />
<path stroke="rgb(0,0,0)" stroke-opacity="1" fill="rgb(255,255,255)" fill-opacity="1" d="M-375.5 175.1 L-375.5 177.1 L-375.5 179.1 L-375.5 181.1 L-375.5 183.1 L-375.5 185.1 L-375.5 187.1 L-375.6 189.1 L-375.6 191.1 L-375.6 193.1 L-375.6 195.1 L-375.6 197.1 L-375.6 199.1 L-375.6 201.1 L-375.6 203 L-375.6 205 L-375.6 207 L-375.6 209 L-375.6 211 L-375.6 213 L-375.6 215 L-375.6 217 L-375.6 219 L-375.6 221 L-375.6 223 L-375.6 225 L-377.6 225 L-379.6 225 L-381.6 225 L-383.6 225 L-385.6 225 L-387.6 224.9 L-389.6 224.9 L-391.6 224.9 L-393.6 224.9 L-395.6 224.9 L-397.6 224.9 L-399.5 224.9 L-401.5 224.9 L-403.5 224.9 L-405.5 224.9 L-407.5 224.9 L-409.5 224.9 L-411.5 224.9 L-413.5 224.9 L-415.5 224.9 L-417.5 224.9 L-419.5 224.9 L-421.5 224.9 L-423.5 224.9 L-425.5 224.9 L-425.5 222.9 L-425.5 220.9 L-425.5 218.9 L-425.4 216.9 L-425.4 214.9 L-425.4 212.9 L-425.4 210.9 L-425.4 208.9 L-425.4 206.9 L-425.4 204.9 L-425.4 202.9 L-425.4 200.9 L-425.4 199 L-425.4 197 L-425.4 195 L-425.4 193 L-425.4 191 L-425.4 189 L-425.4 187 L-425.4 185 L-425.4 183 L-425.4 181 L-425.4 179 L-425.4 177 L-425.4 175 L-423.4 175 L-421.4 175 L-419.4 175 L-417.4 175 L-415.4 175 L-413.4 175.1 L-411.4 175.1 L-409.4 175.1 L-407.4 175.1 L-405.4 175.1 L-403.4 175.1 L-401.4 175.1 L-399.4 175.1 L-397.4 175.1 L-395.5 175.1 L-393.5 175.1 L-391.5 175.1 L-389.5 175.1 L-387.5 175.1 L-385.5 175.1 L-383.5 175.1 L-381.5 175.1 L-379.5 175.1 L-377.5 175.1 L-375.5 175.1 Z " />
<path stroke="rgb(0,0,0)" stroke-opacity="0.108" fill="rgb(255,255,255)" fill-opacity="1" d="M-175 300.1 L-175.1 302 L-175.4 304 L-175.8 305.9 L-176.3 307.9 L-177 309.7 L-177.9 311.5 L-178.8 313.2 L-180 314.9 L-181.2 316.4 L-182.6 317.9 L-184 319.2 L-185.6 320.4 L-187.3 321.5 L-189 322.4 L-190.8 323.2 L-192.7 323.9 L-194.6 324.4 L-196.6 324.7 L-198.6 324.9 L-200.5 324.9 L-202.5 324.8 L-204.5 324.5 L-206.4 324.1 L-208.3 323.5 L-210.2 322.8 L-211.9 321.9 L-213.6 320.9 L-215.3 319.7 L-216.8 318.5 L-218.2 317.1 L-219.5 315.6 L-220.7 314 L-221.7 312.3 L-222.6 310.5 L-223.4 308.7 L-224 306.8 L-224.5 304.9 L-224.8 302.9 L-224.9 300.9 L-224.9 299 L-224.8 297 L-224.4 295 L-224 293.1 L-223.3 291.2 L-222.6 289.4 L-221.7 287.6 L-220.6 285.9 L-219.4 284.3 L-218.1 282.9 L-216.7 281.5 L-215.2 280.2 L-213.6 279.1 L-211.8 278 L-210.1 277.2 L-208.2 276.4 L-206.3 275.9 L-204.4 275.4 L-202.4 275.2 L-200.4 275.1 L-198.5 275.1 L-196.5 275.3 L-194.5 275.7 L-192.6 276.2 L-190.7 276.8 L-188.9 277.6 L-187.2 278.6 L-185.5 279.7 L-184 280.9 L-182.5 282.2 L-181.1 283.7 L-179.9 285.2 L-178.8 286.9 L-177.8 288.6 L-177 290.4 L-176.3 292.2 L-175.7 294.2 L-175.4 296.1 L-175.1 298.1 L-175 300.1 Z " />
<path stroke="rgb(0,0,0)" stroke-opacity="1" fill="rgb(255,255,255)" fill-opacity="1" d="M-175.7 175.1 L-175.7 177.1 L-175.7 179.1 L-175.7 181 L-175.7 183 L-175.7 185 L-175.7 187 L-175.6 189 L-175.6 191 L-175.6 193 L-175.6 195 L-175.6 197 L-175.6 198.9 L-175.6 200.9 L-175.6 202.9 L-175.6 204.9 L-175.6 206.9 L-175.6 208.9 L-175.6 210.9 L-175.6 212.9 L-175.6 214.9 L-175.6 216.9 L-175.6 218.8 L-175.6 220.8 L-175.6 222.8 L-175.6 224.8 L-177.6 224.8 L-179.5 224.8 L-181.5 224.8 L-183.5 224.8 L-185.5 224.8 L-187.5 224.8 L-189.5 224.8 L-191.5 224.8 L-193.5 224.9 L-195.5 224.9 L-197.4 224.9 L-199.4 224.9 L-201.4 224.9 L-203.4 224.9 L-205.4 224.9 L-207.4 224.9 L-209.4 224.9 L-211.4 224.9 L-213.4 224.9 L-215.4 224.9 L-217.3 224.9 L-219.3 224.9 L-221.3 224.9 L-223.3 224.9 L-225.3 224.9 L-225.3 222.9 L-225.3 221 L-225.3 219 L-225.3 217 L-225.3 215 L-225.3 213 L-225.3 211 L-225.3 209 L-225.3 207 L-225.3 205 L-225.4 203 L-225.4 201.1 L-225.4 199.1 L-225.4 197.1 L-225.4 195.1 L-225.4 193.1 L-225.4 191.1 L-225.4 189.1 L-225.4 187.1 L-225.4 185.1 L-225.4 183.2 L-225.4 181.2 L-225.4 179.2 L-225.4 177.2 L-225.4 175.2 L-223.4 175.2 L-221.4 175.2 L-219.5 175.2 L-217.5 175.2 L-215.5 175.2 L-213.5 175.2 L-211.5 175.2 L-209.5 175.2 L-207.5 175.1 L-205.5 175.1 L-203.5 175.1 L-201.5 175.1 L-199.6 175.1 L-197.6 175.1 L-195.6 175.1 L-193.6 175.1 L-191.6 175.1 L-189.6 175.1 L-187.6 175.1 L-185.6 175.1 L-183.6 175.1 L-181.7 175.1 L-179.7 175.1 L-177.7 175.1 L-175.7 175.1 Z " />
<path stroke="rgb(0,0,0)" stroke-opacity="0.108" fill="rgb(255,255,255)" fill-opacity="1" d="M24.95 300.1 L24.87 302 L24.63 304 L24.23 305.9 L23.68 307.9 L22.98 309.7 L22.14 311.5 L21.15 313.2 L20.04 314.9 L18.79 316.4 L17.43 317.9 L15.95 319.2 L14.38 320.4 L12.71 321.5 L10.97 322.4 L9.153 323.2 L7.28 323.9 L5.361 324.4 L3.408 324.7 L1.434 324.9 L-0.5499 324.9 L-2.53 324.8 L-4.494 324.5 L-6.43 324.1 L-8.325 323.5 L-10.17 322.8 L-11.95 321.9 L-13.65 320.9 L-15.26 319.7 L-16.78 318.5 L-18.2 317.1 L-19.5 315.6 L-20.67 314 L-21.72 312.3 L-22.62 310.5 L-23.39 308.7 L-24 306.8 L-24.47 304.9 L-24.78 302.9 L-24.93 300.9 L-24.93 299 L-24.77 297 L-24.45 295 L-23.97 293.1 L-23.35 291.2 L-22.58 289.4 L-21.66 287.6 L-20.61 285.9 L-19.43 284.3 L-18.12 282.9 L-16.7 281.5 L-15.18 280.2 L-13.56 279.1 L-11.85 278 L-10.07 277.2 L-8.222 276.4 L-6.324 275.9 L-4.387 275.4 L-2.422 275.2 L-0.441 275.1 L1.542 275.1 L3.516 275.3 L5.467 275.7 L7.384 276.2 L9.254 276.8 L11.07 277.6 L12.81 278.6 L14.47 279.7 L16.04 280.9 L17.51 282.2 L18.86 283.7 L20.1 285.2 L21.21 286.9 L22.19 288.6 L23.02 290.4 L23.72 292.2 L24.26 294.2 L24.64 296.1 L24.88 298.1 L24.95 300.1 Z " />
<path stroke="rgb(0,0,0)" stroke-opacity="1" fill="rgb(255,255,255)" fill-opacity="1" d="M19.99 173.7 L20.22 175.6 L20.46 177.4 L20.69 179.3 L20.93 181.2 L21.16 183 L21.4 184.9 L21.63 186.8 L21.87 188.7 L22.1 190.5 L22.34 192.4 L22.57 194.3 L22.81 196.1 L23.05 198 L23.28 199.9 L23.52 201.7 L23.75 203.6 L23.99 205.5 L24.22 207.4 L24.46 209.2 L24.69 211.1 L24.93 213 L25.16 214.8 L25.4 216.7 L25.63 218.6 L25.87 220.4 L24 220.7 L22.13 220.9 L20.26 221.2 L18.39 221.4 L16.52 221.6 L14.65 221.9 L12.78 222.1 L10.91 222.3 L9.04 222.6 L7.17 222.8 L5.3 223 L3.43 223.3 L1.56 223.5 L-0.3102 223.7 L-2.18 224 L-4.05 224.2 L-5.92 224.5 L-7.79 224.7 L-9.66 224.9 L-11.53 225.2 L-13.4 225.4 L-15.27 225.6 L-17.14 225.9 L-19.01 226.1 L-20.88 226.3 L-21.12 224.5 L-21.35 222.6 L-21.59 220.7 L-21.82 218.9 L-22.06 217 L-22.29 215.1 L-22.53 213.2 L-22.76 211.4 L-23 209.5 L-23.23 207.6 L-23.47 205.8 L-23.71 203.9 L-23.94 202 L-24.18 200.2 L-24.41 198.3 L-24.65 196.4 L-24.88 194.5 L-25.12 192.7 L-25.35 190.8 L-25.59 188.9 L-25.82 187.1 L-26.06 185.2 L-26.29 183.3 L-26.53 181.5 L-26.77 179.6 L-24.9 179.3 L-23.03 179.1 L-21.16 178.9 L-19.29 178.6 L-17.42 178.4 L-15.55 178.2 L-13.68 177.9 L-11.81 177.7 L-9.935 177.5 L-8.065 177.2 L-6.195 177 L-4.325 176.8 L-2.455 176.5 L-0.5851 176.3 L1.285 176.1 L3.155 175.8 L5.025 175.6 L6.895 175.3 L8.765 175.1 L10.64 174.9 L12.51 174.6 L14.38 174.4 L16.25 174.2 L18.12 173.9 L19.99 173.7 Z " />
<path stroke="rgb(0,0,0)" stroke-opacity="0.108" fill="rgb(255,255,255)" fill-opacity="1" d="M225 300.1 L224.9 302 L224.6 304 L224.2 305.9 L223.7 307.9 L223 309.7 L222.1 311.5 L221.2 313.2 L220 314.9 L218.8 316.4 L217.4 317.9 L216 319.2 L214.4 320.4 L212.7 321.5 L211 322.4 L209.2 323.2 L207.3 323.9 L205.4 324.4 L203.4 324.7 L201.4 324.9 L199.5 324.9 L197.5 324.8 L195.5 324.5 L193.6 324.1 L191.7 323.5 L189.8 322.8 L188.1 321.9 L186.4 320.9 L184.7 319.7 L183.2 318.5 L181.8 317.1 L180.5 315.6 L179.3 314 L178.3 312.3 L177.4 310.5 L176.6 308.7 L176 306.8 L175.5 304.9 L175.2 302.9 L175.1 300.9 L175.1 299 L175.2 297 L175.6 295 L176 293.1 L176.7 291.2 L177.4 289.4 L178.3 287.6 L179.4 285.9 L180.6 284.3 L181.9 282.9 L183.3 281.5 L184.8 280.2 L186.4 279.1 L188.2 278 L189.9 277.2 L191.8 276.4 L193.7 275.9 L195.6 275.4 L197.6 275.2 L199.6 275.1 L201.5 275.1 L203.5 275.3 L205.5 275.7 L207.4 276.2 L209.3 276.8 L211.1 277.6 L212.8 278.6 L214.5 279.7 L216 280.9 L217.5 282.2 L218.9 283.7 L220.1 285.2 L221.2 286.9 L222.2 288.6 L223 290.4 L223.7 292.2 L224.3 294.2 L224.6 296.1 L224.9 298.1 L225 300.1 Z " />
<path stroke="rgb(0,0,0)" stroke-opacity="1" fill="rgb(255,255,255)" fill-opacity="1" d="M205 173.4 L205.9 174.6 L206.7 175.9 L207.6 177.2 L208.4 178.5 L209.3 179.8 L210.1 181 L211 182.3 L211.9 183.6 L212.7 184.9 L213.6 186.2 L214.4 187.4 L215.3 188.7 L216.1 190 L217 191.3 L217.8 192.6 L218.7 193.8 L219.5 195.1 L220.4 196.4 L221.2 197.7 L222.1 198.9 L222.9 200.2 L223.8 201.5 L224.6 202.8 L225.5 204.1 L226.3 205.3 L225.1 206.2 L223.8 207 L222.5 207.9 L221.2 208.8 L220 209.6 L218.7 210.5 L217.4 211.3 L216.1 212.2 L214.8 213 L213.6 213.9 L212.3 214.7 L211 215.6 L209.7 216.4 L208.4 217.3 L207.2 218.1 L205.9 219 L204.6 219.8 L203.3 220.7 L202.1 221.5 L200.8 222.4 L199.5 223.3 L198.2 224.1 L196.9 225 L195.7 225.8 L194.4 226.7 L193.5 225.4 L192.7 224.1 L191.8 222.8 L191 221.6 L190.1 220.3 L189.3 219 L188.4 217.7 L187.6 216.4 L186.7 215.2 L185.8 213.9 L185 212.6 L184.1 211.3 L183.3 210 L182.4 208.8 L181.6 207.5 L180.7 206.2 L179.9 204.9 L179 203.6 L178.2 202.4 L177.3 201.1 L176.5 199.8 L175.6 198.5 L174.8 197.3 L173.9 196 L173.1 194.7 L174.3 193.8 L175.6 193 L176.9 192.1 L178.2 191.3 L179.4 190.4 L180.7 189.6 L182 188.7 L183.3 187.9 L184.6 187 L185.8 186.2 L187.1 185.3 L188.4 184.5 L189.7 183.6 L191 182.8 L192.2 181.9 L193.5 181 L194.8 180.2 L196.1 179.3 L197.4 178.5 L198.6 177.6 L199.9 176.8 L201.2 175.9 L202.5 175.1 L203.7 174.2 L205 173.4 Z " />
</g>
</g>
</svg>
