<!DOCTYPE svg>
<svg xmlns="http://www.w3.org/2000/svg" xmlns:xlink="http://www.w3.org/1999/xlink" width="560" height="560">
<g transform="translate(280.000000,280.000000)">
<g transform="scale(3.000000,3.000000)">
<path stroke="rgb(0,0,0)" stroke-opacity="1" fill="rgb(255,255,255)" fill-opacity="1" d="M-324.2 -325 L-322.2 -325 L-320.2 -325 L-318.3 -324.9 L-316.3 -324.9 L-314.3 -324.9 L-312.4 -324.8 L-310.4 -324.8 L-308.4 -324.8 L-306.5 -324.7 L-304.5 -324.7 L-302.5 -324.7 L-300.6 -324.6 L-298.6 -324.6 L-296.6 -324.5 L-294.7 -324.5 L-292.7 -324.5 L-290.7 -324.4 L-288.8 -324.4 L-286.8 -324.4 L-284.8 -324.3 L-282.9 -324.3 L-280.9 -324.3 L-278.9 -324.2 L-276.9 -324.2 L-275 -324.2 L-275 -322.2 L-275 -320.2 L-275.1 -318.3 L-275.1 -316.3 L-275.2 -314.3 L-275.2 -312.4 L-275.2 -310.4 L-275.3 -308.4 L-275.3 -306.5 L-275.3 -304.5 L-275.4 -302.5 L-275.4 -300.6 L-275.4 -298.6 L-275.5 -296.6 L-275.5 -294.7 L-275.5 -292.7 L-275.6 -290.7 L-275.6 -288.7 L-275.6 -286.8 L-275.7 -284.8 L-275.7 -282.8 L-275.7 -280.9 L-275.8 -278.9 L-275.8 -276.9 L-275.8 -275 L-277.8 -275 L-279.8 -275 L-281.7 -275.1 L-283.7 -275.1 L-285.7 -275.1 L-287.6 -275.2 L-289.6 -275.2 L-291.6 -275.2 L-293.6 -275.3 L-295.5 -275.3 L-297.5 -275.3 L-299.5 -275.4 L-301.4 -275.4 L-303.4 -275.5 L-305.4 -275.5 L-307.3 -275.5 L-309.3 -275.6 L-311.3 -275.6 L-313.2 -275.6 L-315.2 -275.7 L-317.2 -275.7 L-319.1 -275.7 L-321.1 -275.8 L-323.1 -275.8 L-325 -275.8 L-325 -277.8 L-325 -279.8 L-324.9 -281.7 L-324.9 -283.7 L-324.9 -285.7 L-324.8 -287.6 L-324.8 -289.6 L-324.8 -291.6 L-324.7 -293.5 L-324.7 -295.5 L-324.7 -297.5 L-324.6 -299.4 L-324.6 -301.4 L-324.6 -303.4 L-324.5 -305.3 L-324.5 -307.3 L-324.5 -309.3 L-324.4 -311.3 L-324.4 -313.2 L-324.3 -315.2 L-324.3 -317.2 L-324.3 -319.1 L-324.2 -321.1 L-324.2 -323.1 L-324.2 -325 Z " />
<path stroke="rgb(0,0,0)" stroke-opacity="1" fill="rgb(255,255,255)" fill-opacity="1" d="M-978.9 -1069 L-981.4 -1068 L-984.1 -1066 L-986.8 -1065 L-989.6 -1064 L-992.5 -1064 L-995.4 -1063 L-998.4 -1063 L-1001 -1063 L-1004 -1063 L-1007 -1064 L-1010 -1064 L-1013 -1065 L-1016 -1066 L-1018 -1068 L-1021 -1069 L-1023 -1071 L-1025 -1073 L-1027 -1075 L-1029 -1078 L-1031 -1080 L-1033 -1082 L-1034 -1085 L-1035 -1088 L-1036 -1091 L-1036 -1094 L-1037 -1097 L-1037 -1100 L-1037 -1103 L-1037 -1105 L-1036 -1108 L-1035 -1111 L-1034 -1114 L-1033 -1117 L-1032 -1119 L-1030 -1122 L-1028 -1124 L-1026 -1126 L-1024 -1128 L-1022 -1130 L-1019 -1132 L-1017 -1133 L-1014 -1135 L-1011 -1136 L-1008 -1136 L-1005 -1137 L-1003 -1137 L-999.6 -1137 L-996.6 -1137 L-993.6 -1137 L-990.7 -1136 L-987.9 -1136 L-985.1 -1135 L-982.4 -1133 L-979.9 -1132 L-977.4 -1130 L-975.1 -1128 L-973 -1126 L-971 -1124 L-969.2 -1122 L-967.6 -1119 L-966.2 -1116 L-965 -1114 L-964 -1111 L-963.3 -1108 L-962.7 -1105 L-962.5 -1102 L-962.4 -1099 L-962.6 -1096 L-963 -1093 L-963.7 -1090 L-964.6 -1088 L-965.7 -1085 L-967 -1082 L-968.5 -1080 L-970.2 -1077 L-972.2 -1075 L-974.2 -1073 L-976.5 -1071 L-978.9 -1069 Z " />
<path stroke="rgb(0,0,0)" stroke-opacity="1" fill="rgb(255,255,255)" fill-opacity="1" d="M-124.2 -325 L-122.2 -325 L-120.2 -325 L-118.3 -324.9 L-116.3 -324.9 L-114.3 -324.9 L-112.4 -324.8 L-110.4 -324.8 L-108.4 -324.8 L-106.5 -324.7 L-104.5 -324.7 L-102.5 -324.7 L-100.6 -324.6 L-98.59 -324.6 L-96.63 -324.5 L-94.66 -324.5 L-92.69 -324.5 L-90.72 -324.4 L-88.76 -324.4 L-86.79 -324.4 L-84.82 -324.3 L-82.85 -324.3 L-80.88 -324.3 L-78.92 -324.2 L-76.95 -324.2 L-74.98 -324.2 L-75.01 -322.2 L-75.05 -320.2 L-75.08 -318.3 L-75.12 -316.3 L-75.15 -314.3 L-75.19 -312.4 L-75.22 -310.4 L-75.25 -308.4 L-75.29 -306.5 L-75.32 -304.5 L-75.36 -302.5 L-75.39 -300.6 L-75.43 -298.6 L-75.46 -296.6 L-75.5 -294.7 L-75.53 -292.7 L-75.56 -290.7 L-75.6 -288.7 L-75.63 -286.8 L-75.67 -284.8 L-75.7 -282.8 L-75.74 -280.9 L-75.77 -278.9 L-75.8 -276.9 L-75.84 -275 L-77.81 -275 L-79.77 -275 L-81.74 -275.1 L-83.71 -275.1 L-85.68 -275.1 L-87.65 -275.2 L-89.61 -275.2 L-91.58 -275.2 L-93.55 -275.3 L-95.52 -275.3 L-97.49 -275.3 L-99.45 -275.4 L-101.4 -275.4 L-103.4 -275.5 L-105.4 -275.5 L-107.3 -275.5 L-109.3 -275.6 L-111.3 -275.6 L-113.2 -275.6 L-115.2 -275.7 L-117.2 -275.7 L-119.1 -275.7 L-121.1 -275.8 L-123.1 -275.8 L-125 -275.8 L-125 -277.8 L-125 -279.8 L-124.9 -281.7 L-124.9 -283.7 L-124.9 -285.7 L-124.8 -287.6 L-124.8 -289.6 L-124.8 -291.6 L-124.7 -293.5 L-124.7 -295.5 L-124.7 -297.5 L-124.6 -299.4 L-124.6 -301.4 L-124.6 -303.4 L-124.5 -305.3 L-124.5 -307.3 L-124.5 -309.3 L-124.4 -311.3 L-124.4 -313.2 L-124.3 -315.2 L-124.3 -317.2 L-124.3 -319.1 L-124.2 -321.1 L-124.2 -323.1 L-124.2 -325 Z " />
<path stroke="rgb(0,0,0)" stroke-opacity="1" fill="rgb(255,255,255)" fill-opacity="1" d="M-797.4 -1053 L-801.1 -1053 L-804.9 -1053 L-808.7 -1054 L-812.3 -1055 L-815.9 -1056 L-819.4 -1057 L-822.8 -1059 L-826 -1061 L-829.1 -1063 L-831.9 -1066 L-834.6 -1068 L-837 -1071 L-839.2 -1074 L-841.2 -1077 L-842.9 -1081 L-844.3 -1084 L-845.4 -1088 L-846.2 -1092 L-846.8 -1095 L-847 -1099 L-847 -1103 L-846.6 -1107 L-845.9 -1110 L-845 -1114 L-843.8 -1118 L-842.2 -1121 L-840.5 -1124 L-838.4 -1128 L-836.1 -1131 L-833.6 -1133 L-830.9 -1136 L-827.9 -1138 L-824.8 -1141 L-821.5 -1142 L-818.1 -1144 L-814.6 -1145 L-810.9 -1147 L-807.2 -1147 L-803.5 -1148 L-799.7 -1148 L-795.9 -1148 L-792.2 -1147 L-788.5 -1147 L-784.8 -1146 L-781.3 -1144 L-777.8 -1143 L-774.5 -1141 L-771.4 -1139 L-768.4 -1136 L-765.7 -1134 L-763.1 -1131 L-760.8 -1128 L-758.7 -1125 L-756.9 -1122 L-755.4 -1118 L-754.1 -1115 L-753.1 -1111 L-752.4 -1107 L-752 -1103 L-751.9 -1100 L-752.1 -1096 L-752.7 -1092 L-753.5 -1088 L-754.5 -1085 L-755.9 -1081 L-757.6 -1078 L-759.5 -1075 L-761.7 -1072 L-764.1 -1069 L-766.7 -1066 L-769.6 -1063 L-772.6 -1061 L-775.8 -1059 L-779.1 -1057 L-782.6 -1056 L-786.2 -1055 L-789.9 -1054 L-793.6 -1053 L-797.4 -1053 Z " />
<path stroke="rgb(0,0,0)" stroke-opacity="1" fill="rgb(255,255,255)" fill-opacity="1" d="M75.82 -325 L77.79 -325 L79.76 -325 L81.73 -324.9 L83.69 -324.9 L85.66 -324.9 L87.63 -324.8 L89.6 -324.8 L91.57 -324.8 L93.53 -324.7 L95.5 -324.7 L97.47 -324.7 L99.44 -324.6 L101.4 -324.6 L103.4 -324.5 L105.3 -324.5 L107.3 -324.5 L109.3 -324.4 L111.2 -324.4 L113.2 -324.4 L115.2 -324.3 L117.1 -324.3 L119.1 -324.3 L121.1 -324.2 L123.1 -324.2 L125 -324.2 L125 -322.2 L125 -320.2 L124.9 -318.3 L124.9 -316.3 L124.8 -314.3 L124.8 -312.4 L124.8 -310.4 L124.7 -308.4 L124.7 -306.5 L124.7 -304.5 L124.6 -302.5 L124.6 -300.6 L124.6 -298.6 L124.5 -296.6 L124.5 -294.7 L124.5 -292.7 L124.4 -290.7 L124.4 -288.7 L124.4 -286.8 L124.3 -284.8 L124.3 -282.8 L124.3 -280.9 L124.2 -278.9 L124.2 -276.9 L124.2 -275 L122.2 -275 L120.2 -275 L118.3 -275.1 L116.3 -275.1 L114.3 -275.1 L112.4 -275.2 L110.4 -275.2 L108.4 -275.2 L106.4 -275.3 L104.5 -275.3 L102.5 -275.3 L100.5 -275.4 L98.58 -275.4 L96.61 -275.5 L94.64 -275.5 L92.67 -275.5 L90.71 -275.6 L88.74 -275.6 L86.77 -275.6 L84.8 -275.7 L82.83 -275.7 L80.87 -275.7 L78.9 -275.8 L76.93 -275.8 L74.96 -275.8 L75 -277.8 L75.03 -279.8 L75.07 -281.7 L75.1 -283.7 L75.13 -285.7 L75.17 -287.6 L75.2 -289.6 L75.24 -291.6 L75.27 -293.5 L75.31 -295.5 L75.34 -297.5 L75.38 -299.4 L75.41 -301.4 L75.44 -303.4 L75.48 -305.3 L75.51 -307.3 L75.55 -309.3 L75.58 -311.3 L75.62 -313.2 L75.65 -315.2 L75.68 -317.2 L75.72 -319.1 L75.75 -321.1 L75.79 -323.1 L75.82 -325 Z " />
<path stroke="rgb(0,0,0)" stroke-opacity="1" fill="rgb(255,255,255)" fill-opacity="1" d="M-600 -1052 L-603.9 -1052 L-607.8 -1052 L-611.6 -1053 L-615.3 -1054 L-618.9 -1056 L-622.4 -1057 L-625.7 -1059 L-628.9 -1062 L-631.9 -1064 L-634.7 -1067 L-637.3 -1070 L-639.6 -1073 L-641.7 -1076 L-643.5 -1079 L-645 -1083 L-646.2 -1087 L-647.2 -1090 L-647.8 -1094 L-648.2 -1098 L-648.2 -1102 L-647.9 -1106 L-647.3 -1110 L-646.4 -1113 L-645.2 -1117 L-643.8 -1121 L-642 -1124 L-640 -1127 L-637.7 -1131 L-635.2 -1134 L-632.4 -1136 L-629.5 -1139 L-626.3 -1141 L-623 -1143 L-619.6 -1145 L-616 -1146 L-612.3 -1147 L-608.5 -1148 L-604.7 -1149 L-600.8 -1149 L-596.9 -1149 L-593.1 -1149 L-589.2 -1148 L-585.5 -1147 L-581.8 -1146 L-578.3 -1144 L-574.8 -1142 L-571.6 -1140 L-568.5 -1138 L-565.6 -1135 L-562.9 -1133 L-560.5 -1130 L-558.2 -1126 L-556.3 -1123 L-554.6 -1120 L-553.3 -1116 L-552.2 -1112 L-551.4 -1108 L-550.9 -1105 L-550.7 -1101 L-550.8 -1097 L-551.2 -1093 L-552 -1089 L-553 -1085 L-554.4 -1082 L-556 -1078 L-557.9 -1075 L-560 -1072 L-562.4 -1069 L-565.1 -1066 L-567.9 -1063 L-571 -1061 L-574.2 -1059 L-577.6 -1057 L-581.1 -1055 L-584.8 -1054 L-588.5 -1053 L-592.3 -1052 L-596.2 -1052 L-600 -1052 Z " />
<path stroke="rgb(0,0,0)" stroke-opacity="1" fill="rgb(255,255,255)" fill-opacity="1" d="M275.8 -325 L277.8 -325 L279.8 -325 L281.7 -324.9 L283.7 -324.9 L285.7 -324.9 L287.6 -324.8 L289.6 -324.8 L291.6 -324.8 L293.5 -324.7 L295.5 -324.7 L297.5 -324.7 L299.4 -324.6 L301.4 -324.6 L303.4 -324.5 L305.3 -324.5 L307.3 -324.5 L309.3 -324.4 L311.2 -324.4 L313.2 -324.4 L315.2 -324.3 L317.1 -324.3 L319.1 -324.3 L321.1 -324.2 L323.1 -324.2 L325 -324.2 L325 -322.2 L325 -320.2 L324.9 -318.3 L324.9 -316.3 L324.8 -314.3 L324.8 -312.4 L324.8 -310.4 L324.7 -308.4 L324.7 -306.5 L324.7 -304.5 L324.6 -302.5 L324.6 -300.6 L324.6 -298.6 L324.5 -296.6 L324.5 -294.7 L324.5 -292.7 L324.4 -290.7 L324.4 -288.7 L324.4 -286.8 L324.3 -284.8 L324.3 -282.8 L324.3 -280.9 L324.2 -278.9 L324.2 -276.9 L324.2 -275 L322.2 -275 L320.2 -275 L318.3 -275.1 L316.3 -275.1 L314.3 -275.1 L312.4 -275.2 L310.4 -275.2 L308.4 -275.2 L306.4 -275.3 L304.5 -275.3 L302.5 -275.3 L300.5 -275.4 L298.6 -275.4 L296.6 -275.5 L294.6 -275.5 L292.7 -275.5 L290.7 -275.6 L288.7 -275.6 L286.8 -275.6 L284.8 -275.7 L282.8 -275.7 L280.9 -275.7 L278.9 -275.8 L276.9 -275.8 L275 -275.8 L275 -277.8 L275 -279.8 L275.1 -281.7 L275.1 -283.7 L275.1 -285.7 L275.2 -287.6 L275.2 -289.6 L275.2 -291.6 L275.3 -293.5 L275.3 -295.5 L275.3 -297.5 L275.4 -299.4 L275.4 -301.4 L275.4 -303.4 L275.5 -305.3 L275.5 -307.3 L275.5 -309.3 L275.6 -311.3 L275.6 -313.2 L275.7 -315.2 L275.7 -317.2 L275.7 -319.1 L275.8 -321.1 L275.8 -323.1 L275.8 -325 Z " />
<path stroke="rgb(0,0,0)" stroke-opacity="1" fill="rgb(255,255,255)" fill-opacity="1" d="M-1079 -969.2 L-1081 -967.6 L-1084 -966.3 L-1087 -965.1 L-1090 -964.2 L-1092 -963.5 L-1095 -963.1 L-1098 -962.9 L-1101 -962.9 L-1104 -963.1 L-1107 -963.6 L-1110 -964.3 L-1113 -965.3 L-1116 -966.4 L-1118 -967.8 L-1121 -969.4 L-1123 -971.1 L-1125 -973.1 L-1127 -975.2 L-1129 -977.5 L-1131 -979.9 L-1133 -982.5 L-1134 -985.2 L-1135 -987.9 L-1136 -990.8 L-1136 -993.7 L-1137 -996.6 L-1137 -999.6 L-1137 -1003 L-1137 -1005 L-1136 -1008 L-1135 -1011 L-1134 -1014 L-1133 -1017 L-1132 -1019 L-1130 -1022 L-1128 -1024 L-1126 -1026 L-1124 -1028 L-1122 -1030 L-1119 -1032 L-1117 -1033 L-1114 -1035 L-1111 -1036 L-1108 -1036 L-1105 -1037 L-1103 -1037 L-1100 -1037 L-1097 -1037 L-1094 -1037 L-1091 -1036 L-1088 -1036 L-1085 -1035 L-1082 -1033 L-1080 -1032 L-1077 -1030 L-1075 -1028 L-1073 -1026 L-1071 -1024 L-1069 -1022 L-1068 -1019 L-1066 -1016 L-1065 -1014 L-1064 -1011 L-1063 -1008 L-1063 -1005 L-1062 -1002 L-1062 -999.3 L-1063 -996.3 L-1063 -993.4 L-1064 -990.5 L-1065 -987.6 L-1066 -984.9 L-1067 -982.2 L-1069 -979.7 L-1070 -977.3 L-1072 -975 L-1074 -972.9 L-1076 -970.9 L-1079 -969.2 Z " />
<path stroke="rgb(0,0,0)" stroke-opacity="1" fill="rgb(255,255,255)" fill-opacity="1" d="M-224.2 -225 L-222.2 -225 L-220.2 -225 L-218.3 -224.9 L-216.3 -224.9 L-214.3 -224.9 L-212.4 -224.8 L-210.4 -224.8 L-208.4 -224.8 L-206.5 -224.7 L-204.5 -224.7 L-202.5 -224.7 L-200.6 -224.6 L-198.6 -224.6 L-196.6 -224.5 L-194.7 -224.5 L-192.7 -224.5 L-190.7 -224.4 L-188.8 -224.4 L-186.8 -224.4 L-184.8 -224.3 L-182.9 -224.3 L-180.9 -224.3 L-178.9 -224.2 L-176.9 -224.2 L-175 -224.2 L-175 -222.2 L-175 -220.2 L-175.1 -218.3 L-175.1 -216.3 L-175.2 -214.3 L-175.2 -212.4 L-175.2 -210.4 L-175.3 -208.4 L-175.3 -206.5 L-175.3 -204.5 L-175.4 -202.5 L-175.4 -200.6 L-175.4 -198.6 L-175.5 -196.6 L-175.5 -194.7 L-175.5 -192.7 L-175.6 -190.7 L-175.6 -188.7 L-175.6 -186.8 L-175.7 -184.8 L-175.7 -182.8 L-175.7 -180.9 L-175.8 -178.9 L-175.8 -176.9 L-175.8 -175 L-177.8 -175 L-179.8 -175 L-181.7 -175.1 L-183.7 -175.1 L-185.7 -175.1 L-187.6 -175.2 L-189.6 -175.2 L-191.6 -175.2 L-193.6 -175.3 L-195.5 -175.3 L-197.5 -175.3 L-199.5 -175.4 L-201.4 -175.4 L-203.4 -175.5 L-205.4 -175.5 L-207.3 -175.5 L-209.3 -175.6 L-211.3 -175.6 L-213.2 -175.6 L-215.2 -175.7 L-217.2 -175.7 L-219.1 -175.7 L-221.1 -175.8 L-223.1 -175.8 L-225 -175.8 L-225 -177.8 L-225 -179.8 L-224.9 -181.7 L-224.9 -183.7 L-224.9 -185.7 L-224.8 -187.6 L-224.8 -189.6 L-224.8 -191.6 L-224.7 -193.5 L-224.7 -195.5 L-224.7 -197.5 L-224.6 -199.4 L-224.6 -201.4 L-224.6 -203.4 L-224.5 -205.3 L-224.5 -207.3 L-224.5 -209.3 L-224.4 -211.3 L-224.4 -213.2 L-224.3 -215.2 L-224.3 -217.2 L-224.3 -219.1 L-224.2 -221.1 L-224.2 -223.1 L-224.2 -225 Z " />
<path stroke="rgb(0,0,0)" stroke-opacity="1" fill="rgb(255,255,255)" fill-opacity="1" d="M-897.4 -952.9 L-901.1 -952.8 L-904.9 -953.1 L-908.7 -953.7 L-912.3 -954.6 L-915.9 -955.7 L-919.4 -957.2 L-922.8 -958.9 L-926 -960.9 L-929.1 -963.1 L-931.9 -965.6 L-934.6 -968.3 L-937 -971.2 L-939.2 -974.2 L-941.2 -977.5 L-942.9 -980.9 L-944.3 -984.4 L-945.4 -988 L-946.2 -991.7 L-946.8 -995.4 L-947 -999.2 L-947 -1003 L-946.6 -1007 L-945.9 -1010 L-945 -1014 L-943.8 -1018 L-942.2 -1021 L-940.5 -1024 L-938.4 -1028 L-936.1 -1031 L-933.6 -1033 L-930.9 -1036 L-927.9 -1038 L-924.8 -1041 L-921.5 -1042 L-918.1 -1044 L-914.6 -1045 L-910.9 -1047 L-907.2 -1047 L-903.5 -1048 L-899.7 -1048 L-895.9 -1048 L-892.2 -1047 L-888.5 -1047 L-884.8 -1046 L-881.3 -1044 L-877.8 -1043 L-874.5 -1041 L-871.4 -1039 L-868.4 -1036 L-865.7 -1034 L-863.1 -1031 L-860.8 -1028 L-858.7 -1025 L-856.9 -1022 L-855.4 -1018 L-854.1 -1015 L-853.1 -1011 L-852.4 -1007 L-852 -1003 L-851.9 -999.6 L-852.1 -995.9 L-852.7 -992.1 L-853.5 -988.4 L-854.5 -984.8 L-855.9 -981.3 L-857.6 -977.9 L-859.5 -974.6 L-861.7 -971.5 L-864.1 -968.6 L-866.7 -965.9 L-869.6 -963.4 L-872.6 -961.2 L-875.8 -959.1 L-879.1 -957.4 L-882.6 -955.9 L-886.2 -954.7 L-889.9 -953.8 L-893.6 -953.2 L-897.4 -952.9 Z " />
<path stroke="rgb(0,0,0)" stroke-opacity="1" fill="rgb(255,255,255)" fill-opacity="1" d="M-24.18 -225 L-22.21 -225 L-20.24 -225 L-18.27 -224.9 L-16.31 -224.9 L-14.34 -224.9 L-12.37 -224.8 L-10.4 -224.8 L-8.434 -224.8 L-6.466 -224.7 L-4.498 -224.7 L-2.531 -224.7 L-0.5626 -224.6 L1.405 -224.6 L3.373 -224.5 L5.341 -224.5 L7.309 -224.5 L9.277 -224.4 L11.24 -224.4 L13.21 -224.4 L15.18 -224.3 L17.15 -224.3 L19.12 -224.3 L21.08 -224.2 L23.05 -224.2 L25.02 -224.2 L24.99 -222.2 L24.95 -220.2 L24.92 -218.3 L24.88 -216.3 L24.85 -214.3 L24.81 -212.4 L24.78 -210.4 L24.75 -208.4 L24.71 -206.5 L24.68 -204.5 L24.64 -202.5 L24.61 -200.6 L24.57 -198.6 L24.54 -196.6 L24.5 -194.7 L24.47 -192.7 L24.44 -190.7 L24.4 -188.7 L24.37 -186.8 L24.33 -184.8 L24.3 -182.8 L24.26 -180.9 L24.23 -178.9 L24.2 -176.9 L24.16 -175 L22.19 -175 L20.23 -175 L18.26 -175.1 L16.29 -175.1 L14.32 -175.1 L12.35 -175.2 L10.39 -175.2 L8.418 -175.2 L6.45 -175.3 L4.482 -175.3 L2.514 -175.3 L0.5461 -175.4 L-1.422 -175.4 L-3.39 -175.5 L-5.358 -175.5 L-7.326 -175.5 L-9.293 -175.6 L-11.26 -175.6 L-13.23 -175.6 L-15.2 -175.7 L-17.17 -175.7 L-19.13 -175.7 L-21.1 -175.8 L-23.07 -175.8 L-25.04 -175.8 L-25 -177.8 L-24.97 -179.8 L-24.93 -181.7 L-24.9 -183.7 L-24.87 -185.7 L-24.83 -187.6 L-24.8 -189.6 L-24.76 -191.6 L-24.73 -193.5 L-24.69 -195.5 L-24.66 -197.5 L-24.62 -199.4 L-24.59 -201.4 L-24.56 -203.4 L-24.52 -205.3 L-24.49 -207.3 L-24.45 -209.3 L-24.42 -211.3 L-24.38 -213.2 L-24.35 -215.2 L-24.32 -217.2 L-24.28 -219.1 L-24.25 -221.1 L-24.21 -223.1 L-24.18 -225 Z " />
<path stroke="rgb(0,0,0)" stroke-opacity="1" fill="rgb(255,255,255)" fill-opacity="1" d="M-700 -951.6 L-703.9 -951.8 L-707.8 -952.3 L-711.6 -953.1 L-715.3 -954.3 L-718.9 -955.7 L-722.4 -957.3 L-725.7 -959.3 L-728.9 -961.5 L-731.9 -964 L-734.7 -966.7 L-737.3 -969.6 L-739.6 -972.7 L-741.7 -976 L-743.5 -979.4 L-745 -983 L-746.2 -986.6 L-747.2 -990.4 L-747.8 -994.2 L-748.2 -998.1 L-748.2 -1002 L-747.9 -1006 L-747.3 -1010 L-746.4 -1013 L-745.2 -1017 L-743.8 -1021 L-742 -1024 L-740 -1027 L-737.7 -1031 L-735.2 -1034 L-732.4 -1036 L-729.5 -1039 L-726.3 -1041 L-723 -1043 L-719.6 -1045 L-716 -1046 L-712.3 -1047 L-708.5 -1048 L-704.7 -1049 L-700.8 -1049 L-696.9 -1049 L-693.1 -1049 L-689.2 -1048 L-685.5 -1047 L-681.8 -1046 L-678.3 -1044 L-674.8 -1042 L-671.6 -1040 L-668.5 -1038 L-665.6 -1035 L-662.9 -1033 L-660.5 -1030 L-658.2 -1026 L-656.3 -1023 L-654.6 -1020 L-653.3 -1016 L-652.2 -1012 L-651.4 -1008 L-650.9 -1005 L-650.7 -1001 L-650.8 -996.9 L-651.2 -993 L-652 -989.2 L-653 -985.5 L-654.4 -981.8 L-656 -978.3 L-657.9 -974.9 L-660 -971.7 L-662.4 -968.7 L-665.1 -965.8 L-667.9 -963.2 L-671 -960.8 L-674.2 -958.7 L-677.6 -956.8 L-681.1 -955.2 L-684.8 -953.9 L-688.5 -952.9 L-692.3 -952.1 L-696.2 -951.7 L-700 -951.6 Z " />
<path stroke="rgb(0,0,0)" stroke-opacity="1" fill="rgb(255,255,255)" fill-opacity="1" d="M175.8 -225 L177.8 -225 L179.8 -225 L181.7 -224.9 L183.7 -224.9 L185.7 -224.9 L187.6 -224.8 L189.6 -224.8 L191.6 -224.8 L193.5 -224.7 L195.5 -224.7 L197.5 -224.7 L199.4 -224.6 L201.4 -224.6 L203.4 -224.5 L205.3 -224.5 L207.3 -224.5 L209.3 -224.4 L211.2 -224.4 L213.2 -224.4 L215.2 -224.3 L217.1 -224.3 L219.1 -224.3 L221.1 -224.2 L223.1 -224.2 L225 -224.2 L225 -222.2 L225 -220.2 L224.9 -218.3 L224.9 -216.3 L224.8 -214.3 L224.8 -212.4 L224.8 -210.4 L224.7 -208.4 L224.7 -206.5 L224.7 -204.5 L224.6 -202.5 L224.6 -200.6 L224.6 -198.6 L224.5 -196.6 L224.5 -194.7 L224.5 -192.7 L224.4 -190.7 L224.4 -188.7 L224.4 -186.8 L224.3 -184.8 L224.3 -182.8 L224.3 -180.9 L224.2 -178.9 L224.2 -176.9 L224.2 -175 L222.2 -175 L220.2 -175 L218.3 -175.1 L216.3 -175.1 L214.3 -175.1 L212.4 -175.2 L210.4 -175.2 L208.4 -175.2 L206.4 -175.3 L204.5 -175.3 L202.5 -175.3 L200.5 -175.4 L198.6 -175.4 L196.6 -175.5 L194.6 -175.5 L192.7 -175.5 L190.7 -175.6 L188.7 -175.6 L186.8 -175.6 L184.8 -175.7 L182.8 -175.7 L180.9 -175.7 L178.9 -175.8 L176.9 -175.8 L175 -175.8 L175 -177.8 L175 -179.8 L175.1 -181.7 L175.1 -183.7 L175.1 -185.7 L175.2 -187.6 L175.2 -189.6 L175.2 -191.6 L175.3 -193.5 L175.3 -195.5 L175.3 -197.5 L175.4 -199.4 L175.4 -201.4 L175.4 -203.4 L175.5 -205.3 L175.5 -207.3 L175.5 -209.3 L175.6 -211.3 L175.6 -213.2 L175.7 -215.2 L175.7 -217.2 L175.7 -219.1 L175.8 -221.1 L175.8 -223.1 L175.8 -225 Z " />
<path stroke="rgb(0,0,0)" stroke-opacity="1" fill="rgb(255,255,255)" fill-opacity="1" d="M-500 -951.6 L-503.9 -951.8 L-507.8 -952.3 L-511.6 -953.1 L-515.3 -954.3 L-518.9 -955.7 L-522.4 -957.3 L-525.7 -959.3 L-528.9 -961.5 L-531.9 -964 L-534.7 -966.7 L-537.3 -969.6 L-539.6 -972.7 L-541.7 -976 L-543.5 -979.4 L-545 -983 L-546.2 -986.6 L-547.2 -990.4 L-547.8 -994.2 L-548.2 -998.1 L-548.2 -1002 L-547.9 -1006 L-547.3 -1010 L-546.4 -1013 L-545.2 -1017 L-543.8 -1021 L-542 -1024 L-540 -1027 L-537.7 -1031 L-535.2 -1034 L-532.4 -1036 L-529.5 -1039 L-526.3 -1041 L-523 -1043 L-519.6 -1045 L-516 -1046 L-512.3 -1047 L-508.5 -1048 L-504.7 -1049 L-500.8 -1049 L-496.9 -1049 L-493.1 -1049 L-489.2 -1048 L-485.5 -1047 L-481.8 -1046 L-478.3 -1044 L-474.8 -1042 L-471.6 -1040 L-468.5 -1038 L-465.6 -1035 L-462.9 -1033 L-460.5 -1030 L-458.2 -1026 L-456.3 -1023 L-454.6 -1020 L-453.3 -1016 L-452.2 -1012 L-451.4 -1008 L-450.9 -1005 L-450.7 -1001 L-450.8 -996.9 L-451.2 -993 L-452 -989.2 L-453 -985.5 L-454.4 -981.8 L-456 -978.3 L-457.9 -974.9 L-460 -971.7 L-462.4 -968.7 L-465.1 -965.8 L-467.9 -963.2 L-471 -960.8 L-474.2 -958.7 L-477.6 -956.8 L-481.1 -955.2 L-484.8 -953.9 L-488.5 -952.9 L-492.3 -952.1 L-496.2 -951.7 L-500 -951.6 Z " />
<path stroke="rgb(0,0,0)" stroke-opacity="1" fill="rgb(255,255,255)" fill-opacity="1" d="M-324.2 -125 L-322.2 -125 L-320.2 -125 L-318.3 -124.9 L-316.3 -124.9 L-314.3 -124.9 L-312.4 -124.8 L-310.4 -124.8 L-308.4 -124.8 L-306.5 -124.7 L-304.5 -124.7 L-302.5 -124.7 L-300.6 -124.6 L-298.6 -124.6 L-296.6 -124.5 L-294.7 -124.5 L-292.7 -124.5 L-290.7 -124.4 L-288.8 -124.4 L-286.8 -124.4 L-284.8 -124.3 L-282.9 -124.3 L-280.9 -124.3 L-278.9 -124.2 L-276.9 -124.2 L-275 -124.2 L-275 -122.2 L-275 -120.2 L-275.1 -118.3 L-275.1 -116.3 L-275.2 -114.3 L-275.2 -112.4 L-275.2 -110.4 L-275.3 -108.4 L-275.3 -106.5 L-275.3 -104.5 L-275.4 -102.5 L-275.4 -100.6 L-275.4 -98.59 L-275.5 -96.62 L-275.5 -94.65 L-275.5 -92.68 L-275.6 -90.71 L-275.6 -88.75 L-275.6 -86.78 L-275.7 -84.81 L-275.7 -82.84 L-275.7 -80.87 L-275.8 -78.91 L-275.8 -76.94 L-275.8 -74.97 L-277.8 -75.01 L-279.8 -75.04 L-281.7 -75.07 L-283.7 -75.11 L-285.7 -75.14 L-287.6 -75.18 L-289.6 -75.21 L-291.6 -75.25 L-293.6 -75.28 L-295.5 -75.31 L-297.5 -75.35 L-299.5 -75.38 L-301.4 -75.42 L-303.4 -75.45 L-305.4 -75.49 L-307.3 -75.52 L-309.3 -75.56 L-311.3 -75.59 L-313.2 -75.62 L-315.2 -75.66 L-317.2 -75.69 L-319.1 -75.73 L-321.1 -75.76 L-323.1 -75.8 L-325 -75.83 L-325 -77.8 L-325 -79.77 L-324.9 -81.73 L-324.9 -83.7 L-324.9 -85.67 L-324.8 -87.64 L-324.8 -89.61 L-324.8 -91.57 L-324.7 -93.54 L-324.7 -95.51 L-324.7 -97.48 L-324.6 -99.45 L-324.6 -101.4 L-324.6 -103.4 L-324.5 -105.3 L-324.5 -107.3 L-324.5 -109.3 L-324.4 -111.3 L-324.4 -113.2 L-324.3 -115.2 L-324.3 -117.2 L-324.3 -119.1 L-324.2 -121.1 L-324.2 -123.1 L-324.2 -125 Z " />
<path stroke="rgb(0,0,0)" stroke-opacity="1" fill="rgb(255,255,255)" fill-opacity="1" d="M-997.4 -852.9 L-1001 -852.8 L-1005 -853.1 L-1009 -853.7 L-1012 -854.6 L-1016 -855.7 L-1019 -857.2 L-1023 -858.9 L-1026 -860.9 L-1029 -863.1 L-1032 -865.6 L-1035 -868.3 L-1037 -871.2 L-1039 -874.2 L-1041 -877.5 L-1043 -880.9 L-1044 -884.4 L-1045 -888 L-1046 -891.7 L-1047 -895.4 L-1047 -899.2 L-1047 -903 L-1047 -906.7 L-1046 -910.5 L-1045 -914.1 L-1044 -917.7 L-1042 -921.2 L-1040 -924.5 L-1038 -927.7 L-1036 -930.7 L-1034 -933.5 L-1031 -936.1 L-1028 -938.5 L-1025 -940.6 L-1022 -942.5 L-1018 -944.1 L-1015 -945.5 L-1011 -946.5 L-1007 -947.3 L-1003 -947.7 L-999.7 -947.9 L-995.9 -947.8 L-992.2 -947.3 L-988.5 -946.6 L-984.8 -945.6 L-981.3 -944.3 L-977.8 -942.7 L-974.5 -940.9 L-971.4 -938.7 L-968.4 -936.4 L-965.7 -933.8 L-963.1 -931 L-960.8 -928 L-958.7 -924.9 L-956.9 -921.6 L-955.4 -918.1 L-954.1 -914.5 L-953.1 -910.9 L-952.4 -907.2 L-952 -903.4 L-951.9 -899.6 L-952.1 -895.9 L-952.7 -892.1 L-953.5 -888.4 L-954.5 -884.8 L-955.9 -881.3 L-957.6 -877.9 L-959.5 -874.6 L-961.7 -871.5 L-964.1 -868.6 L-966.7 -865.9 L-969.6 -863.4 L-972.6 -861.2 L-975.8 -859.1 L-979.1 -857.4 L-982.6 -855.9 L-986.2 -854.7 L-989.9 -853.8 L-993.6 -853.2 L-997.4 -852.9 Z " />
<path stroke="rgb(0,0,0)" stroke-opacity="1" fill="rgb(255,255,255)" fill-opacity="1" d="M-124.2 -125 L-122.2 -125 L-120.2 -125 L-118.3 -124.9 L-116.3 -124.9 L-114.3 -124.9 L-112.4 -124.8 L-110.4 -124.8 L-108.4 -124.8 L-106.5 -124.7 L-104.5 -124.7 L-102.5 -124.7 L-100.6 -124.6 L-98.59 -124.6 L-96.63 -124.5 L-94.66 -124.5 L-92.69 -124.5 L-90.72 -124.4 L-88.76 -124.4 L-86.79 -124.4 L-84.82 -124.3 L-82.85 -124.3 L-80.88 -124.3 L-78.92 -124.2 L-76.95 -124.2 L-74.98 -124.2 L-75.01 -122.2 L-75.05 -120.2 L-75.08 -118.3 L-75.12 -116.3 L-75.15 -114.3 L-75.19 -112.4 L-75.22 -110.4 L-75.25 -108.4 L-75.29 -106.5 L-75.32 -104.5 L-75.36 -102.5 L-75.39 -100.6 L-75.43 -98.59 L-75.46 -96.62 L-75.5 -94.65 L-75.53 -92.68 L-75.56 -90.71 L-75.6 -88.75 L-75.63 -86.78 L-75.67 -84.81 L-75.7 -82.84 L-75.74 -80.87 L-75.77 -78.91 L-75.8 -76.94 L-75.84 -74.97 L-77.81 -75.01 L-79.77 -75.04 L-81.74 -75.07 L-83.71 -75.11 L-85.68 -75.14 L-87.65 -75.18 L-89.61 -75.21 L-91.58 -75.25 L-93.55 -75.28 L-95.52 -75.31 L-97.49 -75.35 L-99.45 -75.38 L-101.4 -75.42 L-103.4 -75.45 L-105.4 -75.49 L-107.3 -75.52 L-109.3 -75.56 L-111.3 -75.59 L-113.2 -75.62 L-115.2 -75.66 L-117.2 -75.69 L-119.1 -75.73 L-121.1 -75.76 L-123.1 -75.8 L-125 -75.83 L-125 -77.8 L-125 -79.77 L-124.9 -81.73 L-124.9 -83.7 L-124.9 -85.67 L-124.8 -87.64 L-124.8 -89.61 L-124.8 -91.57 L-124.7 -93.54 L-124.7 -95.51 L-124.7 -97.48 L-124.6 -99.45 L-124.6 -101.4 L-124.6 -103.4 L-124.5 -105.3 L-124.5 -107.3 L-124.5 -109.3 L-124.4 -111.3 L-124.4 -113.2 L-124.3 -115.2 L-124.3 -117.2 L-124.3 -119.1 L-124.2 -121.1 L-124.2 -123.1 L-124.2 -125 Z " />
<path stroke="rgb(0,0,0)" stroke-opacity="1" fill="rgb(255,255,255)" fill-opacity="1" d="M-800 -851.6 L-803.9 -851.8 L-807.8 -852.3 L-811.6 -853.1 L-815.3 -854.3 L-818.9 -855.7 L-822.4 -857.3 L-825.7 -859.3 L-828.9 -861.5 L-831.9 -864 L-834.7 -866.7 L-837.3 -869.6 L-839.6 -872.7 L-841.7 -876 L-843.5 -879.4 L-845 -883 L-846.2 -886.6 L-847.2 -890.4 L-847.8 -894.2 L-848.2 -898.1 L-848.2 -901.9 L-847.9 -905.8 L-847.3 -909.6 L-846.4 -913.4 L-845.2 -917.1 L-843.8 -920.7 L-842 -924.2 L-840 -927.5 L-837.7 -930.6 L-835.2 -933.5 L-832.4 -936.3 L-829.5 -938.8 L-826.3 -941.1 L-823 -943.1 L-819.6 -944.8 L-816 -946.3 L-812.3 -947.4 L-808.5 -948.3 L-804.7 -948.9 L-800.8 -949.1 L-796.9 -949.1 L-793.1 -948.7 L-789.2 -948.1 L-785.5 -947.1 L-781.8 -945.8 L-778.3 -944.3 L-774.8 -942.5 L-771.6 -940.4 L-768.5 -938 L-765.6 -935.5 L-762.9 -932.7 L-760.5 -929.6 L-758.2 -926.5 L-756.3 -923.1 L-754.6 -919.6 L-753.3 -916 L-752.2 -912.3 L-751.4 -908.5 L-750.9 -904.6 L-750.7 -900.7 L-750.8 -896.9 L-751.2 -893 L-752 -889.2 L-753 -885.5 L-754.4 -881.8 L-756 -878.3 L-757.9 -874.9 L-760 -871.7 L-762.4 -868.7 L-765.1 -865.8 L-767.9 -863.2 L-771 -860.8 L-774.2 -858.7 L-777.6 -856.8 L-781.1 -855.2 L-784.8 -853.9 L-788.5 -852.9 L-792.3 -852.1 L-796.2 -851.7 L-800 -851.6 Z " />
<path stroke="rgb(0,0,0)" stroke-opacity="1" fill="rgb(255,255,255)" fill-opacity="1" d="M75.82 -125 L77.79 -125 L79.76 -125 L81.73 -124.9 L83.69 -124.9 L85.66 -124.9 L87.63 -124.8 L89.6 -124.8 L91.57 -124.8 L93.53 -124.7 L95.5 -124.7 L97.47 -124.7 L99.44 -124.6 L101.4 -124.6 L103.4 -124.5 L105.3 -124.5 L107.3 -124.5 L109.3 -124.4 L111.2 -124.4 L113.2 -124.4 L115.2 -124.3 L117.1 -124.3 L119.1 -124.3 L121.1 -124.2 L123.1 -124.2 L125 -124.2 L125 -122.2 L125 -120.2 L124.9 -118.3 L124.9 -116.3 L124.8 -114.3 L124.8 -112.4 L124.8 -110.4 L124.7 -108.4 L124.7 -106.5 L124.7 -104.5 L124.6 -102.5 L124.6 -100.6 L124.6 -98.59 L124.5 -96.62 L124.5 -94.65 L124.5 -92.68 L124.4 -90.71 L124.4 -88.75 L124.4 -86.78 L124.3 -84.81 L124.3 -82.84 L124.3 -80.87 L124.2 -78.91 L124.2 -76.94 L124.2 -74.97 L122.2 -75.01 L120.2 -75.04 L118.3 -75.07 L116.3 -75.11 L114.3 -75.14 L112.4 -75.18 L110.4 -75.21 L108.4 -75.25 L106.4 -75.28 L104.5 -75.31 L102.5 -75.35 L100.5 -75.38 L98.58 -75.42 L96.61 -75.45 L94.64 -75.49 L92.67 -75.52 L90.71 -75.56 L88.74 -75.59 L86.77 -75.62 L84.8 -75.66 L82.83 -75.69 L80.87 -75.73 L78.9 -75.76 L76.93 -75.8 L74.96 -75.83 L75 -77.8 L75.03 -79.77 L75.07 -81.73 L75.1 -83.7 L75.13 -85.67 L75.17 -87.64 L75.2 -89.61 L75.24 -91.57 L75.27 -93.54 L75.31 -95.51 L75.34 -97.48 L75.38 -99.45 L75.41 -101.4 L75.44 -103.4 L75.48 -105.3 L75.51 -107.3 L75.55 -109.3 L75.58 -111.3 L75.62 -113.2 L75.65 -115.2 L75.68 -117.2 L75.72 -119.1 L75.75 -121.1 L75.79 -123.1 L75.82 -125 Z " />
<path stroke="rgb(0,0,0)" stroke-opacity="1" fill="rgb(255,255,255)" fill-opacity="1" d="M-600 -851.6 L-603.9 -851.8 L-607.8 -852.3 L-611.6 -853.1 L-615.3 -854.3 L-618.9 -855.7 L-622.4 -857.3 L-625.7 -859.3 L-628.9 -861.5 L-631.9 -864 L-634.7 -866.7 L-637.3 -869.6 L-639.6 -872.7 L-641.7 -876 L-643.5 -879.4 L-645 -883 L-646.2 -886.6 L-647.2 -890.4 L-647.8 -894.2 L-648.2 -898.1 L-648.2 -901.9 L-647.9 -905.8 L-647.3 -909.6 L-646.4 -913.4 L-645.2 -917.1 L-643.8 -920.7 L-642 -924.2 L-640 -927.5 L-637.7 -930.6 L-635.2 -933.5 L-632.4 -936.3 L-629.5 -938.8 L-626.3 -941.1 L-623 -943.1 L-619.6 -944.8 L-616 -946.3 L-612.3 -947.4 L-608.5 -948.3 L-604.7 -948.9 L-600.8 -949.1 L-596.9 -949.1 L-593.1 -948.7 L-589.2 -948.1 L-585.5 -947.1 L-581.8 -945.8 L-578.3 -944.3 L-574.8 -942.5 L-571.6 -940.4 L-568.5 -938 L-565.6 -935.5 L-562.9 -932.7 L-560.5 -929.6 L-558.2 -926.5 L-556.3 -923.1 L-554.6 -919.6 L-553.3 -916 L-552.2 -912.3 L-551.4 -908.5 L-550.9 -904.6 L-550.7 -900.7 L-550.8 -896.9 L-551.2 -893 L-552 -889.2 L-553 -885.5 L-554.4 -881.8 L-556 -878.3 L-557.9 -874.9 L-560 -871.7 L-562.4 -868.7 L-565.1 -865.8 L-567.9 -863.2 L-571 -860.8 L-574.2 -858.7 L-577.6 -856.8 L-581.1 -855.2 L-584.8 -853.9 L-588.5 -852.9 L-592.3 -852.1 L-596.2 -851.7 L-600 -851.6 Z " />
<path stroke="rgb(0,0,0)" stroke-opacity="1" fill="rgb(255,255,255)" fill-opacity="1" d="M275.8 -125 L277.8 -125 L279.8 -125 L281.7 -124.9 L283.7 -124.9 L285.7 -124.9 L287.6 -124.8 L289.6 -124.8 L291.6 -124.8 L293.5 -124.7 L295.5 -124.7 L297.5 -124.7 L299.4 -124.6 L301.4 -124.6 L303.4 -124.5 L305.3 -124.5 L307.3 -124.5 L309.3 -124.4 L311.2 -124.4 L313.2 -124.4 L315.2 -124.3 L317.1 -124.3 L319.1 -124.3 L321.1 -124.2 L323.1 -124.2 L325 -124.2 L325 -122.2 L325 -120.2 L324.9 -118.3 L324.9 -116.3 L324.8 -114.3 L324.8 -112.4 L324.8 -110.4 L324.7 -108.4 L324.7 -106.5 L324.7 -104.5 L324.6 -102.5 L324.6 -100.6 L324.6 -98.59 L324.5 -96.62 L324.5 -94.65 L324.5 -92.68 L324.4 -90.71 L324.4 -88.75 L324.4 -86.78 L324.3 -84.81 L324.3 -82.84 L324.3 -80.87 L324.2 -78.91 L324.2 -76.94 L324.2 -74.97 L322.2 -75.01 L320.2 -75.04 L318.3 -75.07 L316.3 -75.11 L314.3 -75.14 L312.4 -75.18 L310.4 -75.21 L308.4 -75.25 L306.4 -75.28 L304.5 -75.31 L302.5 -75.35 L300.5 -75.38 L298.6 -75.42 L296.6 -75.45 L294.6 -75.49 L292.7 -75.52 L290.7 -75.56 L288.7 -75.59 L286.8 -75.62 L284.8 -75.66 L282.8 -75.69 L280.9 -75.73 L278.9 -75.76 L276.9 -75.8 L275 -75.83 L275 -77.8 L275 -79.77 L275.1 -81.73 L275.1 -83.7 L275.1 -85.67 L275.2 -87.64 L275.2 -89.61 L275.2 -91.57 L275.3 -93.54 L275.3 -95.51 L275.3 -97.48 L275.4 -99.45 L275.4 -101.4 L275.4 -103.4 L275.5 -105.3 L275.5 -107.3 L275.5 -109.3 L275.6 -111.3 L275.6 -113.2 L275.7 -115.2 L275.7 -117.2 L275.7 -119.1 L275.8 -121.1 L275.8 -123.1 L275.8 -125 Z " />
<path stroke="rgb(0,0,0)" stroke-opacity="1" fill="rgb(255,255,255)" fill-opacity="1" d="M-1097 -752.9 L-1101 -752.8 L-1105 -753.1 L-1109 -753.7 L-1112 -754.6 L-1116 -755.7 L-1119 -757.2 L-1123 -758.9 L-1126 -760.9 L-1129 -763.1 L-1132 -765.6 L-1135 -768.3 L-1137 -771.2 L-1139 -774.2 L-1141 -777.5 L-1143 -780.9 L-1144 -784.4 L-1145 -788 L-1146 -791.7 L-1147 -795.4 L-1147 -799.2 L-1147 -803 L-1147 -806.7 L-1146 -810.5 L-1145 -814.1 L-1144 -817.7 L-1142 -821.2 L-1140 -824.5 L-1138 -827.7 L-1136 -830.7 L-1134 -833.5 L-1131 -836.1 L-1128 -838.5 L-1125 -840.6 L-1122 -842.5 L-1118 -844.1 L-1115 -845.5 L-1111 -846.5 L-1107 -847.3 L-1103 -847.7 L-1100 -847.9 L-1096 -847.8 L-1092 -847.3 L-1088 -846.6 L-1085 -845.6 L-1081 -844.3 L-1078 -842.7 L-1075 -840.9 L-1071 -838.7 L-1068 -836.4 L-1066 -833.8 L-1063 -831 L-1061 -828 L-1059 -824.9 L-1057 -821.6 L-1055 -818.1 L-1054 -814.5 L-1053 -810.9 L-1052 -807.2 L-1052 -803.4 L-1052 -799.6 L-1052 -795.9 L-1053 -792.1 L-1053 -788.4 L-1055 -784.8 L-1056 -781.3 L-1058 -777.9 L-1059 -774.6 L-1062 -771.5 L-1064 -768.6 L-1067 -765.9 L-1070 -763.4 L-1073 -761.2 L-1076 -759.1 L-1079 -757.4 L-1083 -755.9 L-1086 -754.7 L-1090 -753.8 L-1094 -753.2 L-1097 -752.9 Z " />
<path stroke="rgb(0,0,0)" stroke-opacity="1" fill="rgb(255,255,255)" fill-opacity="1" d="M-224.2 -25.03 L-222.2 -24.99 L-220.2 -24.96 L-218.3 -24.93 L-216.3 -24.89 L-214.3 -24.86 L-212.4 -24.82 L-210.4 -24.79 L-208.4 -24.75 L-206.5 -24.72 L-204.5 -24.68 L-202.5 -24.65 L-200.6 -24.62 L-198.6 -24.58 L-196.6 -24.55 L-194.7 -24.51 L-192.7 -24.48 L-190.7 -24.44 L-188.8 -24.41 L-186.8 -24.38 L-184.8 -24.34 L-182.9 -24.31 L-180.9 -24.27 L-178.9 -24.24 L-176.9 -24.2 L-175 -24.17 L-175 -22.2 L-175 -20.23 L-175.1 -18.27 L-175.1 -16.3 L-175.2 -14.33 L-175.2 -12.36 L-175.2 -10.39 L-175.3 -8.426 L-175.3 -6.458 L-175.3 -4.49 L-175.4 -2.522 L-175.4 -0.5541 L-175.4 1.414 L-175.5 3.382 L-175.5 5.35 L-175.5 7.318 L-175.6 9.286 L-175.6 11.25 L-175.6 13.22 L-175.7 15.19 L-175.7 17.16 L-175.7 19.13 L-175.8 21.09 L-175.8 23.06 L-175.8 25.03 L-177.8 24.99 L-179.8 24.96 L-181.7 24.93 L-183.7 24.89 L-185.7 24.86 L-187.6 24.82 L-189.6 24.79 L-191.6 24.75 L-193.6 24.72 L-195.5 24.69 L-197.5 24.65 L-199.5 24.62 L-201.4 24.58 L-203.4 24.55 L-205.4 24.51 L-207.3 24.48 L-209.3 24.44 L-211.3 24.41 L-213.2 24.38 L-215.2 24.34 L-217.2 24.31 L-219.1 24.27 L-221.1 24.24 L-223.1 24.2 L-225 24.17 L-225 22.2 L-225 20.23 L-224.9 18.27 L-224.9 16.3 L-224.9 14.33 L-224.8 12.36 L-224.8 10.39 L-224.8 8.426 L-224.7 6.458 L-224.7 4.491 L-224.7 2.523 L-224.6 0.5547 L-224.6 -1.413 L-224.6 -3.381 L-224.5 -5.349 L-224.5 -7.317 L-224.5 -9.285 L-224.4 -11.25 L-224.4 -13.22 L-224.3 -15.19 L-224.3 -17.16 L-224.3 -19.12 L-224.2 -21.09 L-224.2 -23.06 L-224.2 -25.03 Z " />
<path stroke="rgb(0,0,0)" stroke-opacity="1" fill="rgb(255,255,255)" fill-opacity="1" d="M-900 -751.6 L-903.9 -751.8 L-907.8 -752.3 L-911.6 -753.1 L-915.3 -754.3 L-918.9 -755.7 L-922.4 -757.3 L-925.7 -759.3 L-928.9 -761.5 L-931.9 -764 L-934.7 -766.7 L-937.3 -769.6 L-939.6 -772.7 L-941.7 -776 L-943.5 -779.4 L-945 -783 L-946.2 -786.6 L-947.2 -790.4 L-947.8 -794.2 L-948.2 -798.1 L-948.2 -801.9 L-947.9 -805.8 L-947.3 -809.6 L-946.4 -813.4 L-945.2 -817.1 L-943.8 -820.7 L-942 -824.2 L-940 -827.5 L-937.7 -830.6 L-935.2 -833.5 L-932.4 -836.3 L-929.5 -838.8 L-926.3 -841.1 L-923 -843.1 L-919.6 -844.8 L-916 -846.3 L-912.3 -847.4 L-908.5 -848.3 L-904.7 -848.9 L-900.8 -849.1 L-896.9 -849.1 L-893.1 -848.7 L-889.2 -848.1 L-885.5 -847.1 L-881.8 -845.8 L-878.3 -844.3 L-874.8 -842.5 L-871.6 -840.4 L-868.5 -838 L-865.6 -835.5 L-862.9 -832.7 L-860.5 -829.6 L-858.2 -826.5 L-856.3 -823.1 L-854.6 -819.6 L-853.3 -816 L-852.2 -812.3 L-851.4 -808.5 L-850.9 -804.6 L-850.7 -800.7 L-850.8 -796.9 L-851.2 -793 L-852 -789.2 L-853 -785.5 L-854.4 -781.8 L-856 -778.3 L-857.9 -774.9 L-860 -771.7 L-862.4 -768.7 L-865.1 -765.8 L-867.9 -763.2 L-871 -760.8 L-874.2 -758.7 L-877.6 -756.8 L-881.1 -755.2 L-884.8 -753.9 L-888.5 -752.9 L-892.3 -752.1 L-896.2 -751.7 L-900 -751.6 Z " />
<path stroke="rgb(0,0,0)" stroke-opacity="1" fill="rgb(255,255,255)" fill-opacity="1" d="M-24.18 -25.03 L-22.21 -24.99 L-20.24 -24.96 L-18.27 -24.93 L-16.31 -24.89 L-14.34 -24.86 L-12.37 -24.82 L-10.4 -24.79 L-8.434 -24.75 L-6.466 -24.72 L-4.498 -24.68 L-2.531 -24.65 L-0.5626 -24.62 L1.405 -24.58 L3.373 -24.55 L5.341 -24.51 L7.309 -24.48 L9.277 -24.44 L11.24 -24.41 L13.21 -24.38 L15.18 -24.34 L17.15 -24.31 L19.12 -24.27 L21.08 -24.24 L23.05 -24.2 L25.02 -24.17 L24.99 -22.2 L24.95 -20.23 L24.92 -18.27 L24.88 -16.3 L24.85 -14.33 L24.81 -12.36 L24.78 -10.39 L24.75 -8.426 L24.71 -6.458 L24.68 -4.49 L24.64 -2.522 L24.61 -0.5541 L24.57 1.414 L24.54 3.382 L24.5 5.35 L24.47 7.318 L24.44 9.286 L24.4 11.25 L24.37 13.22 L24.33 15.19 L24.3 17.16 L24.26 19.13 L24.23 21.09 L24.2 23.06 L24.16 25.03 L22.19 24.99 L20.23 24.96 L18.26 24.93 L16.29 24.89 L14.32 24.86 L12.35 24.82 L10.39 24.79 L8.418 24.75 L6.45 24.72 L4.482 24.69 L2.514 24.65 L0.5461 24.62 L-1.422 24.58 L-3.39 24.55 L-5.358 24.51 L-7.326 24.48 L-9.293 24.44 L-11.26 24.41 L-13.23 24.38 L-15.2 24.34 L-17.17 24.31 L-19.13 24.27 L-21.1 24.24 L-23.07 24.2 L-25.04 24.17 L-25 22.2 L-24.97 20.23 L-24.93 18.27 L-24.9 16.3 L-24.87 14.33 L-24.83 12.36 L-24.8 10.39 L-24.76 8.426 L-24.73 6.458 L-24.69 4.491 L-24.66 2.523 L-24.62 0.5547 L-24.59 -1.413 L-24.56 -3.381 L-24.52 -5.349 L-24.49 -7.317 L-24.45 -9.285 L-24.42 -11.25 L-24.38 -13.22 L-24.35 -15.19 L-24.32 -17.16 L-24.28 -19.12 L-24.25 -21.09 L-24.21 -23.06 L-24.18 -25.03 Z " />
<path stroke="rgb(0,0,0)" stroke-opacity="1" fill="rgb(255,255,255)" fill-opacity="1" d="M-700 -751.6 L-703.9 -751.8 L-707.8 -752.3 L-711.6 -753.1 L-715.3 -754.3 L-718.9 -755.7 L-722.4 -757.3 L-725.7 -759.3 L-728.9 -761.5 L-731.9 -764 L-734.7 -766.7 L-737.3 -769.6 L-739.6 -772.7 L-741.7 -776 L-743.5 -779.4 L-745 -783 L-746.2 -786.6 L-747.2 -790.4 L-747.8 -794.2 L-748.2 -798.1 L-748.2 -801.9 L-747.9 -805.8 L-747.3 -809.6 L-746.4 -813.4 L-745.2 -817.1 L-743.8 -820.7 L-742 -824.2 L-740 -827.5 L-737.7 -830.6 L-735.2 -833.5 L-732.4 -836.3 L-729.5 -838.8 L-726.3 -841.1 L-723 -843.1 L-719.6 -844.8 L-716 -846.3 L-712.3 -847.4 L-708.5 -848.3 L-704.7 -848.9 L-700.8 -849.1 L-696.9 -849.1 L-693.1 -848.7 L-689.2 -848.1 L-685.5 -847.1 L-681.8 -845.8 L-678.3 -844.3 L-674.8 -842.5 L-671.6 -840.4 L-668.5 -838 L-665.6 -835.5 L-662.9 -832.7 L-660.5 -829.6 L-658.2 -826.5 L-656.3 -823.1 L-654.6 -819.6 L-653.3 -816 L-652.2 -812.3 L-651.4 -808.5 L-650.9 -804.6 L-650.7 -800.7 L-650.8 -796.9 L-651.2 -793 L-652 -789.2 L-653 -785.5 L-654.4 -781.8 L-656 -778.3 L-657.9 -774.9 L-660 -771.7 L-662.4 -768.7 L-665.1 -765.8 L-667.9 -763.2 L-671 -760.8 L-674.2 -758.7 L-677.6 -756.8 L-681.1 -755.2 L-684.8 -753.9 L-688.5 -752.9 L-692.3 -752.1 L-696.2 -751.7 L-700 -751.6 Z " />
<path stroke="rgb(0,0,0)" stroke-opacity="1" fill="rgb(255,255,255)" fill-opacity="1" d="M175.8 -25.03 L177.8 -24.99 L179.8 -24.96 L181.7 -24.93 L183.7 -24.89 L185.7 -24.86 L187.6 -24.82 L189.6 -24.79 L191.6 -24.75 L193.5 -24.72 L195.5 -24.68 L197.5 -24.65 L199.4 -24.62 L201.4 -24.58 L203.4 -24.55 L205.3 -24.51 L207.3 -24.48 L209.3 -24.44 L211.2 -24.41 L213.2 -24.38 L215.2 -24.34 L217.1 -24.31 L219.1 -24.27 L221.1 -24.24 L223.1 -24.2 L225 -24.17 L225 -22.2 L225 -20.23 L224.9 -18.27 L224.9 -16.3 L224.8 -14.33 L224.8 -12.36 L224.8 -10.39 L224.7 -8.426 L224.7 -6.458 L224.7 -4.49 L224.6 -2.522 L224.6 -0.5541 L224.6 1.414 L224.5 3.382 L224.5 5.35 L224.5 7.318 L224.4 9.286 L224.4 11.25 L224.4 13.22 L224.3 15.19 L224.3 17.16 L224.3 19.13 L224.2 21.09 L224.2 23.06 L224.2 25.03 L222.2 24.99 L220.2 24.96 L218.3 24.93 L216.3 24.89 L214.3 24.86 L212.4 24.82 L210.4 24.79 L208.4 24.75 L206.4 24.72 L204.5 24.69 L202.5 24.65 L200.5 24.62 L198.6 24.58 L196.6 24.55 L194.6 24.51 L192.7 24.48 L190.7 24.44 L188.7 24.41 L186.8 24.38 L184.8 24.34 L182.8 24.31 L180.9 24.27 L178.9 24.24 L176.9 24.2 L175 24.17 L175 22.2 L175 20.23 L175.1 18.27 L175.1 16.3 L175.1 14.33 L175.2 12.36 L175.2 10.39 L175.2 8.426 L175.3 6.458 L175.3 4.491 L175.3 2.523 L175.4 0.5547 L175.4 -1.413 L175.4 -3.381 L175.5 -5.349 L175.5 -7.317 L175.5 -9.285 L175.6 -11.25 L175.6 -13.22 L175.7 -15.19 L175.7 -17.16 L175.7 -19.12 L175.8 -21.09 L175.8 -23.06 L175.8 -25.03 Z " />
<path stroke="rgb(0,0,0)" stroke-opacity="1" fill="rgb(255,255,255)" fill-opacity="1" d="M-500 -751.6 L-503.9 -751.8 L-507.8 -752.3 L-511.6 -753.1 L-515.3 -754.3 L-518.9 -755.7 L-522.4 -757.3 L-525.7 -759.3 L-528.9 -761.5 L-531.9 -764 L-534.7 -766.7 L-537.3 -769.6 L-539.6 -772.7 L-541.7 -776 L-543.5 -779.4 L-545 -783 L-546.2 -786.6 L-547.2 -790.4 L-547.8 -794.2 L-548.2 -798.1 L-548.2 -801.9 L-547.9 -805.8 L-547.3 -809.6 L-546.4 -813.4 L-545.2 -817.1 L-543.8 -820.7 L-542 -824.2 L-540 -827.5 L-537.7 -830.6 L-535.2 -833.5 L-532.4 -836.3 L-529.5 -838.8 L-526.3 -841.1 L-523 -843.1 L-519.6 -844.8 L-516 -846.3 L-512.3 -847.4 L-508.5 -848.3 L-504.7 -848.9 L-500.8 -849.1 L-496.9 -849.1 L-493.1 -848.7 L-489.2 -848.1 L-485.5 -847.1 L-481.8 -845.8 L-478.3 -844.3 L-474.8 -842.5 L-471.6 -840.4 L-468.5 -838 L-465.6 -835.5 L-462.9 -832.7 L-460.5 -829.6 L-458.2 -826.5 L-456.3 -823.1 L-454.6 -819.6 L-453.3 -816 L-452.2 -812.3 L-451.4 -808.5 L-450.9 -804.6 L-450.7 -800.7 L-450.8 -796.9 L-451.2 -793 L-452 -789.2 L-453 -785.5 L-454.4 -781.8 L-456 -778.3 L-457.9 -774.9 L-460 -771.7 L-462.4 -768.7 L-465.1 -765.8 L-467.9 -763.2 L-471 -760.8 L-474.2 -758.7 L-477.6 -756.8 L-481.1 -755.2 L-484.8 -753.9 L-488.5 -752.9 L-492.3 -752.1 L-496.2 -751.7 L-500 -751.6 Z " />
<path stroke="rgb(0,0,0)" stroke-opacity="1" fill="rgb(255,255,255)" fill-opacity="1" d="M-324.2 74.97 L-322.2 75.01 L-320.2 75.04 L-318.3 75.07 L-316.3 75.11 L-314.3 75.14 L-312.4 75.18 L-310.4 75.21 L-308.4 75.25 L-306.5 75.28 L-304.5 75.32 L-302.5 75.35 L-300.6 75.38 L-298.6 75.42 L-296.6 75.45 L-294.7 75.49 L-292.7 75.52 L-290.7 75.56 L-288.8 75.59 L-286.8 75.62 L-284.8 75.66 L-282.9 75.69 L-280.9 75.73 L-278.9 75.76 L-276.9 75.8 L-275 75.83 L-275 77.8 L-275 79.77 L-275.1 81.73 L-275.1 83.7 L-275.2 85.67 L-275.2 87.64 L-275.2 89.61 L-275.3 91.57 L-275.3 93.54 L-275.3 95.51 L-275.4 97.48 L-275.4 99.45 L-275.4 101.4 L-275.5 103.4 L-275.5 105.3 L-275.5 107.3 L-275.6 109.3 L-275.6 111.3 L-275.6 113.2 L-275.7 115.2 L-275.7 117.2 L-275.7 119.1 L-275.8 121.1 L-275.8 123.1 L-275.8 125 L-277.8 125 L-279.8 125 L-281.7 124.9 L-283.7 124.9 L-285.7 124.9 L-287.6 124.8 L-289.6 124.8 L-291.6 124.8 L-293.6 124.7 L-295.5 124.7 L-297.5 124.7 L-299.5 124.6 L-301.4 124.6 L-303.4 124.5 L-305.4 124.5 L-307.3 124.5 L-309.3 124.4 L-311.3 124.4 L-313.2 124.4 L-315.2 124.3 L-317.2 124.3 L-319.1 124.3 L-321.1 124.2 L-323.1 124.2 L-325 124.2 L-325 122.2 L-325 120.2 L-324.9 118.3 L-324.9 116.3 L-324.9 114.3 L-324.8 112.4 L-324.8 110.4 L-324.8 108.4 L-324.7 106.5 L-324.7 104.5 L-324.7 102.5 L-324.6 100.6 L-324.6 98.59 L-324.6 96.62 L-324.5 94.65 L-324.5 92.68 L-324.5 90.72 L-324.4 88.75 L-324.4 86.78 L-324.3 84.81 L-324.3 82.84 L-324.3 80.88 L-324.2 78.91 L-324.2 76.94 L-324.2 74.97 Z " />
<path stroke="rgb(0,0,0)" stroke-opacity="1" fill="rgb(255,255,255)" fill-opacity="1" d="M-1000 -651.6 L-1004 -651.8 L-1008 -652.3 L-1012 -653.1 L-1015 -654.3 L-1019 -655.7 L-1022 -657.3 L-1026 -659.3 L-1029 -661.5 L-1032 -664 L-1035 -666.7 L-1037 -669.6 L-1040 -672.7 L-1042 -676 L-1043 -679.4 L-1045 -683 L-1046 -686.6 L-1047 -690.4 L-1048 -694.2 L-1048 -698.1 L-1048 -701.9 L-1048 -705.8 L-1047 -709.6 L-1046 -713.4 L-1045 -717.1 L-1044 -720.7 L-1042 -724.2 L-1040 -727.5 L-1038 -730.6 L-1035 -733.5 L-1032 -736.3 L-1029 -738.8 L-1026 -741.1 L-1023 -743.1 L-1020 -744.8 L-1016 -746.3 L-1012 -747.4 L-1008 -748.3 L-1005 -748.9 L-1001 -749.1 L-996.9 -749.1 L-993.1 -748.7 L-989.2 -748.1 L-985.5 -747.1 L-981.8 -745.8 L-978.3 -744.3 L-974.8 -742.5 L-971.6 -740.4 L-968.5 -738 L-965.6 -735.5 L-962.9 -732.7 L-960.5 -729.6 L-958.2 -726.5 L-956.3 -723.1 L-954.6 -719.6 L-953.3 -716 L-952.2 -712.3 L-951.4 -708.5 L-950.9 -704.6 L-950.7 -700.7 L-950.8 -696.9 L-951.2 -693 L-952 -689.2 L-953 -685.5 L-954.4 -681.8 L-956 -678.3 L-957.9 -674.9 L-960 -671.7 L-962.4 -668.7 L-965.1 -665.8 L-967.9 -663.2 L-971 -660.8 L-974.2 -658.7 L-977.6 -656.8 L-981.1 -655.2 L-984.8 -653.9 L-988.5 -652.9 L-992.3 -652.1 L-996.2 -651.7 L-1000 -651.6 Z " />
<path stroke="rgb(0,0,0)" stroke-opacity="1" fill="rgb(255,255,255)" fill-opacity="1" d="M-124.2 74.97 L-122.2 75.01 L-120.2 75.04 L-118.3 75.07 L-116.3 75.11 L-114.3 75.14 L-112.4 75.18 L-110.4 75.21 L-108.4 75.25 L-106.5 75.28 L-104.5 75.32 L-102.5 75.35 L-100.6 75.38 L-98.59 75.42 L-96.63 75.45 L-94.66 75.49 L-92.69 75.52 L-90.72 75.56 L-88.76 75.59 L-86.79 75.62 L-84.82 75.66 L-82.85 75.69 L-80.88 75.73 L-78.92 75.76 L-76.95 75.8 L-74.98 75.83 L-75.01 77.8 L-75.05 79.77 L-75.08 81.73 L-75.12 83.7 L-75.15 85.67 L-75.19 87.64 L-75.22 89.61 L-75.25 91.57 L-75.29 93.54 L-75.32 95.51 L-75.36 97.48 L-75.39 99.45 L-75.43 101.4 L-75.46 103.4 L-75.5 105.3 L-75.53 107.3 L-75.56 109.3 L-75.6 111.3 L-75.63 113.2 L-75.67 115.2 L-75.7 117.2 L-75.74 119.1 L-75.77 121.1 L-75.8 123.1 L-75.84 125 L-77.81 125 L-79.77 125 L-81.74 124.9 L-83.71 124.9 L-85.68 124.9 L-87.65 124.8 L-89.61 124.8 L-91.58 124.8 L-93.55 124.7 L-95.52 124.7 L-97.49 124.7 L-99.45 124.6 L-101.4 124.6 L-103.4 124.5 L-105.4 124.5 L-107.3 124.5 L-109.3 124.4 L-111.3 124.4 L-113.2 124.4 L-115.2 124.3 L-117.2 124.3 L-119.1 124.3 L-121.1 124.2 L-123.1 124.2 L-125 124.2 L-125 122.2 L-125 120.2 L-124.9 118.3 L-124.9 116.3 L-124.9 114.3 L-124.8 112.4 L-124.8 110.4 L-124.8 108.4 L-124.7 106.5 L-124.7 104.5 L-124.7 102.5 L-124.6 100.6 L-124.6 98.59 L-124.6 96.62 L-124.5 94.65 L-124.5 92.68 L-124.5 90.72 L-124.4 88.75 L-124.4 86.78 L-124.3 84.81 L-124.3 82.84 L-124.3 80.88 L-124.2 78.91 L-124.2 76.94 L-124.2 74.97 Z " />
<path stroke="rgb(0,0,0)" stroke-opacity="1" fill="rgb(255,255,255)" fill-opacity="1" d="M-800 -651.6 L-803.9 -651.8 L-807.8 -652.3 L-811.6 -653.1 L-815.3 -654.3 L-818.9 -655.7 L-822.4 -657.3 L-825.7 -659.3 L-828.9 -661.5 L-831.9 -664 L-834.7 -666.7 L-837.3 -669.6 L-839.6 -672.7 L-841.7 -676 L-843.5 -679.4 L-845 -683 L-846.2 -686.6 L-847.2 -690.4 L-847.8 -694.2 L-848.2 -698.1 L-848.2 -701.9 L-847.9 -705.8 L-847.3 -709.6 L-846.4 -713.4 L-845.2 -717.1 L-843.8 -720.7 L-842 -724.2 L-840 -727.5 L-837.7 -730.6 L-835.2 -733.5 L-832.4 -736.3 L-829.5 -738.8 L-826.3 -741.1 L-823 -743.1 L-819.6 -744.8 L-816 -746.3 L-812.3 -747.4 L-808.5 -748.3 L-804.7 -748.9 L-800.8 -749.1 L-796.9 -749.1 L-793.1 -748.7 L-789.2 -748.1 L-785.5 -747.1 L-781.8 -745.8 L-778.3 -744.3 L-774.8 -742.5 L-771.6 -740.4 L-768.5 -738 L-765.6 -735.5 L-762.9 -732.7 L-760.5 -729.6 L-758.2 -726.5 L-756.3 -723.1 L-754.6 -719.6 L-753.3 -716 L-752.2 -712.3 L-751.4 -708.5 L-750.9 -704.6 L-750.7 -700.7 L-750.8 -696.9 L-751.2 -693 L-752 -689.2 L-753 -685.5 L-754.4 -681.8 L-756 -678.3 L-757.9 -674.9 L-760 -671.7 L-762.4 -668.7 L-765.1 -665.8 L-767.9 -663.2 L-771 -660.8 L-774.2 -658.7 L-777.6 -656.8 L-781.1 -655.2 L-784.8 -653.9 L-788.5 -652.9 L-792.3 -652.1 L-796.2 -651.7 L-800 -651.6 Z " />
<path stroke="rgb(0,0,0)" stroke-opacity="1" fill="rgb(255,255,255)" fill-opacity="1" d="M75.82 74.97 L77.79 75.01 L79.76 75.04 L81.73 75.07 L83.69 75.11 L85.66 75.14 L87.63 75.18 L89.6 75.21 L91.57 75.25 L93.53 75.28 L95.5 75.32 L97.47 75.35 L99.44 75.38 L101.4 75.42 L103.4 75.45 L105.3 75.49 L107.3 75.52 L109.3 75.56 L111.2 75.59 L113.2 75.62 L115.2 75.66 L117.1 75.69 L119.1 75.73 L121.1 75.76 L123.1 75.8 L125 75.83 L125 77.8 L125 79.77 L124.9 81.73 L124.9 83.7 L124.8 85.67 L124.8 87.64 L124.8 89.61 L124.7 91.57 L124.7 93.54 L124.7 95.51 L124.6 97.48 L124.6 99.45 L124.6 101.4 L124.5 103.4 L124.5 105.3 L124.5 107.3 L124.4 109.3 L124.4 111.3 L124.4 113.2 L124.3 115.2 L124.3 117.2 L124.3 119.1 L124.2 121.1 L124.2 123.1 L124.2 125 L122.2 125 L120.2 125 L118.3 124.9 L116.3 124.9 L114.3 124.9 L112.4 124.8 L110.4 124.8 L108.4 124.8 L106.4 124.7 L104.5 124.7 L102.5 124.7 L100.5 124.6 L98.58 124.6 L96.61 124.5 L94.64 124.5 L92.67 124.5 L90.71 124.4 L88.74 124.4 L86.77 124.4 L84.8 124.3 L82.83 124.3 L80.87 124.3 L78.9 124.2 L76.93 124.2 L74.96 124.2 L75 122.2 L75.03 120.2 L75.07 118.3 L75.1 116.3 L75.13 114.3 L75.17 112.4 L75.2 110.4 L75.24 108.4 L75.27 106.5 L75.31 104.5 L75.34 102.5 L75.38 100.6 L75.41 98.59 L75.44 96.62 L75.48 94.65 L75.51 92.68 L75.55 90.72 L75.58 88.75 L75.62 86.78 L75.65 84.81 L75.68 82.84 L75.72 80.88 L75.75 78.91 L75.79 76.94 L75.82 74.97 Z " />
<path stroke="rgb(0,0,0)" stroke-opacity="1" fill="rgb(255,255,255)" fill-opacity="1" d="M-600 -651.6 L-603.9 -651.8 L-607.8 -652.3 L-611.6 -653.1 L-615.3 -654.3 L-618.9 -655.7 L-622.4 -657.3 L-625.7 -659.3 L-628.9 -661.5 L-631.9 -664 L-634.7 -666.7 L-637.3 -669.6 L-639.6 -672.7 L-641.7 -676 L-643.5 -679.4 L-645 -683 L-646.2 -686.6 L-647.2 -690.4 L-647.8 -694.2 L-648.2 -698.1 L-648.2 -701.9 L-647.9 -705.8 L-647.3 -709.6 L-646.4 -713.4 L-645.2 -717.1 L-643.8 -720.7 L-642 -724.2 L-640 -727.5 L-637.7 -730.6 L-635.2 -733.5 L-632.4 -736.3 L-629.5 -738.8 L-626.3 -741.1 L-623 -743.1 L-619.6 -744.8 L-616 -746.3 L-612.3 -747.4 L-608.5 -748.3 L-604.7 -748.9 L-600.8 -749.1 L-596.9 -749.1 L-593.1 -748.7 L-589.2 -748.1 L-585.5 -747.1 L-581.8 -745.8 L-578.3 -744.3 L-574.8 -742.5 L-571.6 -740.4 L-568.5 -738 L-565.6 -735.5 L-562.9 -732.7 L-560.5 -729.6 L-558.2 -726.5 L-556.3 -723.1 L-554.6 -719.6 L-553.3 -716 L-552.2 -712.3 L-551.4 -708.5 L-550.9 -704.6 L-550.7 -700.7 L-550.8 -696.9 L-551.2 -693 L-552 -689.2 L-553 -685.5 L-554.4 -681.8 L-556 -678.3 L-557.9 -674.9 L-560 -671.7 L-562.4 -668.7 L-565.1 -665.8 L-567.9 -663.2 L-571 -660.8 L-574.2 -658.7 L-577.6 -656.8 L-581.1 -655.2 L-584.8 -653.9 L-588.5 -652.9 L-592.3 -652.1 L-596.2 -651.7 L-600 -651.6 Z " />
<path stroke="rgb(0,0,0)" stroke-opacity="1" fill="rgb(255,255,255)" fill-opacity="1" d="M273.6 82.95 L275.3 82.57 L277.1 82.19 L278.8 81.82 L280.5 81.44 L282.3 81.06 L284 80.68 L285.7 80.3 L287.5 79.92 L289.2 79.54 L290.9 79.17 L292.7 78.79 L294.4 78.41 L296.1 78.03 L297.9 77.65 L299.6 77.27 L301.4 76.89 L303.1 76.51 L304.8 76.14 L306.6 75.76 L308.3 75.38 L310 75 L311.8 74.62 L313.5 74.24 L315.2 73.86 L317 73.49 L317.4 75.22 L317.7 76.96 L318.1 78.69 L318.5 80.43 L318.9 82.17 L319.3 83.9 L319.6 85.64 L320 87.37 L320.4 89.11 L320.8 90.85 L321.1 92.58 L321.5 94.32 L321.9 96.06 L322.3 97.79 L322.7 99.53 L323 101.3 L323.4 103 L323.8 104.7 L324.2 106.5 L324.6 108.2 L324.9 109.9 L325.3 111.7 L325.7 113.4 L326.1 115.2 L326.4 116.9 L324.7 117.3 L323 117.6 L321.2 118 L319.5 118.4 L317.8 118.8 L316 119.2 L314.3 119.5 L312.6 119.9 L310.8 120.3 L309.1 120.7 L307.4 121.1 L305.6 121.4 L303.9 121.8 L302.1 122.2 L300.4 122.6 L298.7 122.9 L296.9 123.3 L295.2 123.7 L293.5 124.1 L291.7 124.5 L290 124.8 L288.3 125.2 L286.5 125.6 L284.8 126 L283 126.4 L282.7 124.6 L282.3 122.9 L281.9 121.1 L281.5 119.4 L281.2 117.7 L280.8 115.9 L280.4 114.2 L280 112.5 L279.6 110.7 L279.3 109 L278.9 107.3 L278.5 105.5 L278.1 103.8 L277.7 102 L277.4 100.3 L277 98.58 L276.6 96.84 L276.2 95.1 L275.9 93.37 L275.5 91.63 L275.1 89.9 L274.7 88.16 L274.3 86.42 L274 84.69 L273.6 82.95 Z " />
<path stroke="rgb(0,0,0)" stroke-opacity="1" fill="rgb(255,255,255)" fill-opacity="1" d="M-1100 -551.6 L-1104 -551.8 L-1108 -552.3 L-1112 -553.1 L-1115 -554.3 L-1119 -555.7 L-1122 -557.3 L-1126 -559.3 L-1129 -561.5 L-1132 -564 L-1135 -566.7 L-1137 -569.6 L-1140 -572.7 L-1142 -576 L-1143 -579.4 L-1145 -583 L-1146 -586.6 L-1147 -590.4 L-1148 -594.2 L-1148 -598.1 L-1148 -601.9 L-1148 -605.8 L-1147 -609.6 L-1146 -613.4 L-1145 -617.1 L-1144 -620.7 L-1142 -624.2 L-1140 -627.5 L-1138 -630.6 L-1135 -633.5 L-1132 -636.3 L-1129 -638.8 L-1126 -641.1 L-1123 -643.1 L-1120 -644.8 L-1116 -646.3 L-1112 -647.4 L-1108 -648.3 L-1105 -648.9 L-1101 -649.1 L-1097 -649.1 L-1093 -648.7 L-1089 -648.1 L-1085 -647.1 L-1082 -645.8 L-1078 -644.3 L-1075 -642.5 L-1072 -640.4 L-1068 -638 L-1066 -635.5 L-1063 -632.7 L-1060 -629.6 L-1058 -626.5 L-1056 -623.1 L-1055 -619.6 L-1053 -616 L-1052 -612.3 L-1051 -608.5 L-1051 -604.6 L-1051 -600.7 L-1051 -596.9 L-1051 -593 L-1052 -589.2 L-1053 -585.5 L-1054 -581.8 L-1056 -578.3 L-1058 -574.9 L-1060 -571.7 L-1062 -568.7 L-1065 -565.8 L-1068 -563.2 L-1071 -560.8 L-1074 -558.7 L-1078 -556.8 L-1081 -555.2 L-1085 -553.9 L-1089 -552.9 L-1092 -552.1 L-1096 -551.7 L-1100 -551.6 Z " />
<path stroke="rgb(0,0,0)" stroke-opacity="1" fill="rgb(255,255,255)" fill-opacity="1" d="M-224.2 175 L-222.2 175 L-220.2 175 L-218.3 175.1 L-216.3 175.1 L-214.3 175.1 L-212.4 175.2 L-210.4 175.2 L-208.4 175.2 L-206.5 175.3 L-204.5 175.3 L-202.5 175.3 L-200.6 175.4 L-198.6 175.4 L-196.6 175.5 L-194.7 175.5 L-192.7 175.5 L-190.7 175.6 L-188.8 175.6 L-186.8 175.6 L-184.8 175.7 L-182.9 175.7 L-180.9 175.7 L-178.9 175.8 L-176.9 175.8 L-175 175.8 L-175 177.8 L-175 179.8 L-175.1 181.7 L-175.1 183.7 L-175.2 185.7 L-175.2 187.6 L-175.2 189.6 L-175.3 191.6 L-175.3 193.5 L-175.3 195.5 L-175.4 197.5 L-175.4 199.4 L-175.4 201.4 L-175.5 203.4 L-175.5 205.3 L-175.5 207.3 L-175.6 209.3 L-175.6 211.3 L-175.6 213.2 L-175.7 215.2 L-175.7 217.2 L-175.7 219.1 L-175.8 221.1 L-175.8 223.1 L-175.8 225 L-177.8 225 L-179.8 225 L-181.7 224.9 L-183.7 224.9 L-185.7 224.9 L-187.6 224.8 L-189.6 224.8 L-191.6 224.8 L-193.6 224.7 L-195.5 224.7 L-197.5 224.7 L-199.5 224.6 L-201.4 224.6 L-203.4 224.5 L-205.4 224.5 L-207.3 224.5 L-209.3 224.4 L-211.3 224.4 L-213.2 224.4 L-215.2 224.3 L-217.2 224.3 L-219.1 224.3 L-221.1 224.2 L-223.1 224.2 L-225 224.2 L-225 222.2 L-225 220.2 L-224.9 218.3 L-224.9 216.3 L-224.9 214.3 L-224.8 212.4 L-224.8 210.4 L-224.8 208.4 L-224.7 206.5 L-224.7 204.5 L-224.7 202.5 L-224.6 200.6 L-224.6 198.6 L-224.6 196.6 L-224.5 194.7 L-224.5 192.7 L-224.5 190.7 L-224.4 188.7 L-224.4 186.8 L-224.3 184.8 L-224.3 182.8 L-224.3 180.9 L-224.2 178.9 L-224.2 176.9 L-224.2 175 Z " />
<path stroke="rgb(0,0,0)" stroke-opacity="1" fill="rgb(255,255,255)" fill-opacity="1" d="M-900 -551.6 L-903.9 -551.8 L-907.8 -552.3 L-911.6 -553.1 L-915.3 -554.3 L-918.9 -555.7 L-922.4 -557.3 L-925.7 -559.3 L-928.9 -561.5 L-931.9 -564 L-934.7 -566.7 L-937.3 -569.6 L-939.6 -572.7 L-941.7 -576 L-943.5 -579.4 L-945 -583 L-946.2 -586.6 L-947.2 -590.4 L-947.8 -594.2 L-948.2 -598.1 L-948.2 -601.9 L-947.9 -605.8 L-947.3 -609.6 L-946.4 -613.4 L-945.2 -617.1 L-943.8 -620.7 L-942 -624.2 L-940 -627.5 L-937.7 -630.6 L-935.2 -633.5 L-932.4 -636.3 L-929.5 -638.8 L-926.3 -641.1 L-923 -643.1 L-919.6 -644.8 L-916 -646.3 L-912.3 -647.4 L-908.5 -648.3 L-904.7 -648.9 L-900.8 -649.1 L-896.9 -649.1 L-893.1 -648.7 L-889.2 -648.1 L-885.5 -647.1 L-881.8 -645.8 L-878.3 -644.3 L-874.8 -642.5 L-871.6 -640.4 L-868.5 -638 L-865.6 -635.5 L-862.9 -632.7 L-860.5 -629.6 L-858.2 -626.5 L-856.3 -623.1 L-854.6 -619.6 L-853.3 -616 L-852.2 -612.3 L-851.4 -608.5 L-850.9 -604.6 L-850.7 -600.7 L-850.8 -596.9 L-851.2 -593 L-852 -589.2 L-853 -585.5 L-854.4 -581.8 L-856 -578.3 L-857.9 -574.9 L-860 -571.7 L-862.4 -568.7 L-865.1 -565.8 L-867.9 -563.2 L-871 -560.8 L-874.2 -558.7 L-877.6 -556.8 L-881.1 -555.2 L-884.8 -553.9 L-888.5 -552.9 L-892.3 -552.1 L-896.2 -551.7 L-900 -551.6 Z " />
<path stroke="rgb(0,0,0)" stroke-opacity="1" fill="rgb(255,255,255)" fill-opacity="1" d="M-24.18 175 L-22.21 175 L-20.24 175 L-18.27 175.1 L-16.31 175.1 L-14.34 175.1 L-12.37 175.2 L-10.4 175.2 L-8.434 175.2 L-6.466 175.3 L-4.498 175.3 L-2.531 175.3 L-0.5626 175.4 L1.405 175.4 L3.373 175.5 L5.341 175.5 L7.309 175.5 L9.277 175.6 L11.24 175.6 L13.21 175.6 L15.18 175.7 L17.15 175.7 L19.12 175.7 L21.08 175.8 L23.05 175.8 L25.02 175.8 L24.99 177.8 L24.95 179.8 L24.92 181.7 L24.88 183.7 L24.85 185.7 L24.81 187.6 L24.78 189.6 L24.75 191.6 L24.71 193.5 L24.68 195.5 L24.64 197.5 L24.61 199.4 L24.57 201.4 L24.54 203.4 L24.5 205.3 L24.47 207.3 L24.44 209.3 L24.4 211.3 L24.37 213.2 L24.33 215.2 L24.3 217.2 L24.26 219.1 L24.23 221.1 L24.2 223.1 L24.16 225 L22.19 225 L20.23 225 L18.26 224.9 L16.29 224.9 L14.32 224.9 L12.35 224.8 L10.39 224.8 L8.418 224.8 L6.45 224.7 L4.482 224.7 L2.514 224.7 L0.5461 224.6 L-1.422 224.6 L-3.39 224.5 L-5.358 224.5 L-7.326 224.5 L-9.293 224.4 L-11.26 224.4 L-13.23 224.4 L-15.2 224.3 L-17.17 224.3 L-19.13 224.3 L-21.1 224.2 L-23.07 224.2 L-25.04 224.2 L-25 222.2 L-24.97 220.2 L-24.93 218.3 L-24.9 216.3 L-24.87 214.3 L-24.83 212.4 L-24.8 210.4 L-24.76 208.4 L-24.73 206.5 L-24.69 204.5 L-24.66 202.5 L-24.62 200.6 L-24.59 198.6 L-24.56 196.6 L-24.52 194.7 L-24.49 192.7 L-24.45 190.7 L-24.42 188.7 L-24.38 186.8 L-24.35 184.8 L-24.32 182.8 L-24.28 180.9 L-24.25 178.9 L-24.21 176.9 L-24.18 175 Z " />
<path stroke="rgb(0,0,0)" stroke-opacity="1" fill="rgb(255,255,255)" fill-opacity="1" d="M-700 -551.6 L-703.9 -551.8 L-707.8 -552.3 L-711.6 -553.1 L-715.3 -554.3 L-718.9 -555.7 L-722.4 -557.3 L-725.7 -559.3 L-728.9 -561.5 L-731.9 -564 L-734.7 -566.7 L-737.3 -569.6 L-739.6 -572.7 L-741.7 -576 L-743.5 -579.4 L-745 -583 L-746.2 -586.6 L-747.2 -590.4 L-747.8 -594.2 L-748.2 -598.1 L-748.2 -601.9 L-747.9 -605.8 L-747.3 -609.6 L-746.4 -613.4 L-745.2 -617.1 L-743.8 -620.7 L-742 -624.2 L-740 -627.5 L-737.7 -630.6 L-735.2 -633.5 L-732.4 -636.3 L-729.5 -638.8 L-726.3 -641.1 L-723 -643.1 L-719.6 -644.8 L-716 -646.3 L-712.3 -647.4 L-708.5 -648.3 L-704.7 -648.9 L-700.8 -649.1 L-696.9 -649.1 L-693.1 -648.7 L-689.2 -648.1 L-685.5 -647.1 L-681.8 -645.8 L-678.3 -644.3 L-674.8 -642.5 L-671.6 -640.4 L-668.5 -638 L-665.6 -635.5 L-662.9 -632.7 L-660.5 -629.6 L-658.2 -626.5 L-656.3 -623.1 L-654.6 -619.6 L-653.3 -616 L-652.2 -612.3 L-651.4 -608.5 L-650.9 -604.6 L-650.7 -600.7 L-650.8 -596.9 L-651.2 -593 L-652 -589.2 L-653 -585.5 L-654.4 -581.8 L-656 -578.3 L-657.9 -574.9 L-660 -571.7 L-662.4 -568.7 L-665.1 -565.8 L-667.9 -563.2 L-671 -560.8 L-674.2 -558.7 L-677.6 -556.8 L-681.1 -555.2 L-684.8 -553.9 L-688.5 -552.9 L-692.3 -552.1 L-696.2 -551.7 L-700 -551.6 Z " />
<path stroke="rgb(0,0,0)" stroke-opacity="1" fill="rgb(255,255,255)" fill-opacity="1" d="M173.6 183 L175.3 182.6 L177.1 182.2 L178.8 181.8 L180.5 181.4 L182.3 181.1 L184 180.7 L185.7 180.3 L187.5 179.9 L189.2 179.5 L190.9 179.2 L192.7 178.8 L194.4 178.4 L196.1 178 L197.9 177.7 L199.6 177.3 L201.4 176.9 L203.1 176.5 L204.8 176.1 L206.6 175.8 L208.3 175.4 L210 175 L211.8 174.6 L213.5 174.2 L215.2 173.9 L217 173.5 L217.4 175.2 L217.7 177 L218.1 178.7 L218.5 180.4 L218.9 182.2 L219.3 183.9 L219.6 185.6 L220 187.4 L220.4 189.1 L220.8 190.8 L221.1 192.6 L221.5 194.3 L221.9 196.1 L222.3 197.8 L222.7 199.5 L223 201.3 L223.4 203 L223.8 204.7 L224.2 206.5 L224.6 208.2 L224.9 209.9 L225.3 211.7 L225.7 213.4 L226.1 215.2 L226.4 216.9 L224.7 217.3 L223 217.6 L221.2 218 L219.5 218.4 L217.8 218.8 L216 219.2 L214.3 219.5 L212.6 219.9 L210.8 220.3 L209.1 220.7 L207.4 221.1 L205.6 221.4 L203.9 221.8 L202.1 222.2 L200.4 222.6 L198.7 222.9 L196.9 223.3 L195.2 223.7 L193.5 224.1 L191.7 224.5 L190 224.8 L188.3 225.2 L186.5 225.6 L184.8 226 L183 226.4 L182.7 224.6 L182.3 222.9 L181.9 221.1 L181.5 219.4 L181.2 217.7 L180.8 215.9 L180.4 214.2 L180 212.5 L179.6 210.7 L179.3 209 L178.9 207.3 L178.5 205.5 L178.1 203.8 L177.7 202 L177.4 200.3 L177 198.6 L176.6 196.8 L176.2 195.1 L175.9 193.4 L175.5 191.6 L175.1 189.9 L174.7 188.2 L174.3 186.4 L174 184.7 L173.6 183 Z " />
<path stroke="rgb(0,0,0)" stroke-opacity="1" fill="rgb(255,255,255)" fill-opacity="1" d="M-500 -551.6 L-503.9 -551.8 L-507.8 -552.3 L-511.6 -553.1 L-515.3 -554.3 L-518.9 -555.7 L-522.4 -557.3 L-525.7 -559.3 L-528.9 -561.5 L-531.9 -564 L-534.7 -566.7 L-537.3 -569.6 L-539.6 -572.7 L-541.7 -576 L-543.5 -579.4 L-545 -583 L-546.2 -586.6 L-547.2 -590.4 L-547.8 -594.2 L-548.2 -598.1 L-548.2 -601.9 L-547.9 -605.8 L-547.3 -609.6 L-546.4 -613.4 L-545.2 -617.1 L-543.8 -620.7 L-542 -624.2 L-540 -627.5 L-537.7 -630.6 L-535.2 -633.5 L-532.4 -636.3 L-529.5 -638.8 L-526.3 -641.1 L-523 -643.1 L-519.6 -644.8 L-516 -646.3 L-512.3 -647.4 L-508.5 -648.3 L-504.7 -648.9 L-500.8 -649.1 L-496.9 -649.1 L-493.1 -648.7 L-489.2 -648.1 L-485.5 -647.1 L-481.8 -645.8 L-478.3 -644.3 L-474.8 -642.5 L-471.6 -640.4 L-468.5 -638 L-465.6 -635.5 L-462.9 -632.7 L-460.5 -629.6 L-458.2 -626.5 L-456.3 -623.1 L-454.6 -619.6 L-453.3 -616 L-452.2 -612.3 L-451.4 -608.5 L-450.9 -604.6 L-450.7 -600.7 L-450.8 -596.9 L-451.2 -593 L-452 -589.2 L-453 -585.5 L-454.4 -581.8 L-456 -578.3 L-457.9 -574.9 L-460 -571.7 L-462.4 -568.7 L-465.1 -565.8 L-467.9 -563.2 L-471 -560.8 L-474.2 -558.7 L-477.6 -556.8 L-481.1 -555.2 L-484.8 -553.9 L-488.5 -552.9 L-492.3 -552.1 L-496.2 -551.7 L-500 -551.6 Z " />
<path stroke="rgb(0,0,0)" stroke-opacity="1" fill="rgb(255,255,255)" fill-opacity="1" d="M-324.2 275 L-322.2 275 L-320.2 275 L-318.3 275.1 L-316.3 275.1 L-314.3 275.1 L-312.4 275.2 L-310.4 275.2 L-308.4 275.2 L-306.5 275.3 L-304.5 275.3 L-302.5 275.3 L-300.6 275.4 L-298.6 275.4 L-296.6 275.5 L-294.7 275.5 L-292.7 275.5 L-290.7 275.6 L-288.8 275.6 L-286.8 275.6 L-284.8 275.7 L-282.9 275.7 L-280.9 275.7 L-278.9 275.8 L-276.9 275.8 L-275 275.8 L-275 277.8 L-275 279.8 L-275.1 281.7 L-275.1 283.7 L-275.2 285.7 L-275.2 287.6 L-275.2 289.6 L-275.3 291.6 L-275.3 293.5 L-275.3 295.5 L-275.4 297.5 L-275.4 299.4 L-275.4 301.4 L-275.5 303.4 L-275.5 305.3 L-275.5 307.3 L-275.6 309.3 L-275.6 311.3 L-275.6 313.2 L-275.7 315.2 L-275.7 317.2 L-275.7 319.1 L-275.8 321.1 L-275.8 323.1 L-275.8 325 L-277.8 325 L-279.8 325 L-281.7 324.9 L-283.7 324.9 L-285.7 324.9 L-287.6 324.8 L-289.6 324.8 L-291.6 324.8 L-293.6 324.7 L-295.5 324.7 L-297.5 324.7 L-299.5 324.6 L-301.4 324.6 L-303.4 324.5 L-305.4 324.5 L-307.3 324.5 L-309.3 324.4 L-311.3 324.4 L-313.2 324.4 L-315.2 324.3 L-317.2 324.3 L-319.1 324.3 L-321.1 324.2 L-323.1 324.2 L-325 324.2 L-325 322.2 L-325 320.2 L-324.9 318.3 L-324.9 316.3 L-324.9 314.3 L-324.8 312.4 L-324.8 310.4 L-324.8 308.4 L-324.7 306.5 L-324.7 304.5 L-324.7 302.5 L-324.6 300.6 L-324.6 298.6 L-324.6 296.6 L-324.5 294.7 L-324.5 292.7 L-324.5 290.7 L-324.4 288.7 L-324.4 286.8 L-324.3 284.8 L-324.3 282.8 L-324.3 280.9 L-324.2 278.9 L-324.2 276.9 L-324.2 275 Z " />
<path stroke="rgb(0,0,0)" stroke-opacity="1" fill="rgb(255,255,255)" fill-opacity="1" d="M-1000 -451.6 L-1004 -451.8 L-1008 -452.3 L-1012 -453.1 L-1015 -454.3 L-1019 -455.7 L-1022 -457.3 L-1026 -459.3 L-1029 -461.5 L-1032 -464 L-1035 -466.7 L-1037 -469.6 L-1040 -472.7 L-1042 -476 L-1043 -479.4 L-1045 -483 L-1046 -486.6 L-1047 -490.4 L-1048 -494.2 L-1048 -498.1 L-1048 -501.9 L-1048 -505.8 L-1047 -509.6 L-1046 -513.4 L-1045 -517.1 L-1044 -520.7 L-1042 -524.2 L-1040 -527.5 L-1038 -530.6 L-1035 -533.5 L-1032 -536.3 L-1029 -538.8 L-1026 -541.1 L-1023 -543.1 L-1020 -544.8 L-1016 -546.3 L-1012 -547.4 L-1008 -548.3 L-1005 -548.9 L-1001 -549.1 L-996.9 -549.1 L-993.1 -548.7 L-989.2 -548.1 L-985.5 -547.1 L-981.8 -545.8 L-978.3 -544.3 L-974.8 -542.5 L-971.6 -540.4 L-968.5 -538 L-965.6 -535.5 L-962.9 -532.7 L-960.5 -529.6 L-958.2 -526.5 L-956.3 -523.1 L-954.6 -519.6 L-953.3 -516 L-952.2 -512.3 L-951.4 -508.5 L-950.9 -504.6 L-950.7 -500.7 L-950.8 -496.9 L-951.2 -493 L-952 -489.2 L-953 -485.5 L-954.4 -481.8 L-956 -478.3 L-957.9 -474.9 L-960 -471.7 L-962.4 -468.7 L-965.1 -465.8 L-967.9 -463.2 L-971 -460.8 L-974.2 -458.7 L-977.6 -456.8 L-981.1 -455.2 L-984.8 -453.9 L-988.5 -452.9 L-992.3 -452.1 L-996.2 -451.7 L-1000 -451.6 Z " />
<path stroke="rgb(0,0,0)" stroke-opacity="1" fill="rgb(255,255,255)" fill-opacity="1" d="M-124.2 275 L-122.2 275 L-120.2 275 L-118.3 275.1 L-116.3 275.1 L-114.3 275.1 L-112.4 275.2 L-110.4 275.2 L-108.4 275.2 L-106.5 275.3 L-104.5 275.3 L-102.5 275.3 L-100.6 275.4 L-98.59 275.4 L-96.63 275.5 L-94.66 275.5 L-92.69 275.5 L-90.72 275.6 L-88.76 275.6 L-86.79 275.6 L-84.82 275.7 L-82.85 275.7 L-80.88 275.7 L-78.92 275.8 L-76.95 275.8 L-74.98 275.8 L-75.01 277.8 L-75.05 279.8 L-75.08 281.7 L-75.12 283.7 L-75.15 285.7 L-75.19 287.6 L-75.22 289.6 L-75.25 291.6 L-75.29 293.5 L-75.32 295.5 L-75.36 297.5 L-75.39 299.4 L-75.43 301.4 L-75.46 303.4 L-75.5 305.3 L-75.53 307.3 L-75.56 309.3 L-75.6 311.3 L-75.63 313.2 L-75.67 315.2 L-75.7 317.2 L-75.74 319.1 L-75.77 321.1 L-75.8 323.1 L-75.84 325 L-77.81 325 L-79.77 325 L-81.74 324.9 L-83.71 324.9 L-85.68 324.9 L-87.65 324.8 L-89.61 324.8 L-91.58 324.8 L-93.55 324.7 L-95.52 324.7 L-97.49 324.7 L-99.45 324.6 L-101.4 324.6 L-103.4 324.5 L-105.4 324.5 L-107.3 324.5 L-109.3 324.4 L-111.3 324.4 L-113.2 324.4 L-115.2 324.3 L-117.2 324.3 L-119.1 324.3 L-121.1 324.2 L-123.1 324.2 L-125 324.2 L-125 322.2 L-125 320.2 L-124.9 318.3 L-124.9 316.3 L-124.9 314.3 L-124.8 312.4 L-124.8 310.4 L-124.8 308.4 L-124.7 306.5 L-124.7 304.5 L-124.7 302.5 L-124.6 300.6 L-124.6 298.6 L-124.6 296.6 L-124.5 294.7 L-124.5 292.7 L-124.5 290.7 L-124.4 288.7 L-124.4 286.8 L-124.3 284.8 L-124.3 282.8 L-124.3 280.9 L-124.2 278.9 L-124.2 276.9 L-124.2 275 Z " />
<path stroke="rgb(0,0,0)" stroke-opacity="1" fill="rgb(255,255,255)" fill-opacity="1" d="M-800 -451.6 L-803.9 -451.8 L-807.8 -452.3 L-811.6 -453.1 L-815.3 -454.3 L-818.9 -455.7 L-822.4 -457.3 L-825.7 -459.3 L-828.9 -461.5 L-831.9 -464 L-834.7 -466.7 L-837.3 -469.6 L-839.6 -472.7 L-841.7 -476 L-843.5 -479.4 L-845 -483 L-846.2 -486.6 L-847.2 -490.4 L-847.8 -494.2 L-848.2 -498.1 L-848.2 -501.9 L-847.9 -505.8 L-847.3 -509.6 L-846.4 -513.4 L-845.2 -517.1 L-843.8 -520.7 L-842 -524.2 L-840 -527.5 L-837.7 -530.6 L-835.2 -533.5 L-832.4 -536.3 L-829.5 -538.8 L-826.3 -541.1 L-823 -543.1 L-819.6 -544.8 L-816 -546.3 L-812.3 -547.4 L-808.5 -548.3 L-804.7 -548.9 L-800.8 -549.1 L-796.9 -549.1 L-793.1 -548.7 L-789.2 -548.1 L-785.5 -547.1 L-781.8 -545.8 L-778.3 -544.3 L-774.8 -542.5 L-771.6 -540.4 L-768.5 -538 L-765.6 -535.5 L-762.9 -532.7 L-760.5 -529.6 L-758.2 -526.5 L-756.3 -523.1 L-754.6 -519.6 L-753.3 -516 L-752.2 -512.3 L-751.4 -508.5 L-750.9 -504.6 L-750.7 -500.7 L-750.8 -496.9 L-751.2 -493 L-752 -489.2 L-753 -485.5 L-754.4 -481.8 L-756 -478.3 L-757.9 -474.9 L-760 -471.7 L-762.4 -468.7 L-765.1 -465.8 L-767.9 -463.2 L-771 -460.8 L-774.2 -458.7 L-777.6 -456.8 L-781.1 -455.2 L-784.8 -453.9 L-788.5 -452.9 L-792.3 -452.1 L-796.2 -451.7 L-800 -451.6 Z " />
<path stroke="rgb(0,0,0)" stroke-opacity="1" fill="rgb(255,255,255)" fill-opacity="1" d="M73.58 283 L75.32 282.6 L77.05 282.2 L78.79 281.8 L80.52 281.4 L82.26 281.1 L84 280.7 L85.73 280.3 L87.47 279.9 L89.2 279.5 L90.94 279.2 L92.68 278.8 L94.41 278.4 L96.15 278 L97.89 277.7 L99.62 277.3 L101.4 276.9 L103.1 276.5 L104.8 276.1 L106.6 275.8 L108.3 275.4 L110 275 L111.8 274.6 L113.5 274.2 L115.2 273.9 L117 273.5 L117.4 275.2 L117.7 277 L118.1 278.7 L118.5 280.4 L118.9 282.2 L119.3 283.9 L119.6 285.6 L120 287.4 L120.4 289.1 L120.8 290.8 L121.1 292.6 L121.5 294.3 L121.9 296.1 L122.3 297.8 L122.7 299.5 L123 301.3 L123.4 303 L123.8 304.7 L124.2 306.5 L124.6 308.2 L124.9 309.9 L125.3 311.7 L125.7 313.4 L126.1 315.2 L126.4 316.9 L124.7 317.3 L123 317.6 L121.2 318 L119.5 318.4 L117.8 318.8 L116 319.2 L114.3 319.5 L112.6 319.9 L110.8 320.3 L109.1 320.7 L107.4 321.1 L105.6 321.4 L103.9 321.8 L102.1 322.2 L100.4 322.6 L98.67 322.9 L96.93 323.3 L95.2 323.7 L93.46 324.1 L91.73 324.5 L89.99 324.8 L88.25 325.2 L86.52 325.6 L84.78 326 L83.05 326.4 L82.67 324.6 L82.29 322.9 L81.91 321.1 L81.53 319.4 L81.15 317.7 L80.77 315.9 L80.4 314.2 L80.02 312.5 L79.64 310.7 L79.26 309 L78.88 307.3 L78.5 305.5 L78.12 303.8 L77.74 302 L77.37 300.3 L76.99 298.6 L76.61 296.8 L76.23 295.1 L75.85 293.4 L75.47 291.6 L75.09 289.9 L74.72 288.2 L74.34 286.4 L73.96 284.7 L73.58 283 Z " />
<path stroke="rgb(0,0,0)" stroke-opacity="1" fill="rgb(255,255,255)" fill-opacity="1" d="M-600 -451.6 L-603.9 -451.8 L-607.8 -452.3 L-611.6 -453.1 L-615.3 -454.3 L-618.9 -455.7 L-622.4 -457.3 L-625.7 -459.3 L-628.9 -461.5 L-631.9 -464 L-634.7 -466.7 L-637.3 -469.6 L-639.6 -472.7 L-641.7 -476 L-643.5 -479.4 L-645 -483 L-646.2 -486.6 L-647.2 -490.4 L-647.8 -494.2 L-648.2 -498.1 L-648.2 -501.9 L-647.9 -505.8 L-647.3 -509.6 L-646.4 -513.4 L-645.2 -517.1 L-643.8 -520.7 L-642 -524.2 L-640 -527.5 L-637.7 -530.6 L-635.2 -533.5 L-632.4 -536.3 L-629.5 -538.8 L-626.3 -541.1 L-623 -543.1 L-619.6 -544.8 L-616 -546.3 L-612.3 -547.4 L-608.5 -548.3 L-604.7 -548.9 L-600.8 -549.1 L-596.9 -549.1 L-593.1 -548.7 L-589.2 -548.1 L-585.5 -547.1 L-581.8 -545.8 L-578.3 -544.3 L-574.8 -542.5 L-571.6 -540.4 L-568.5 -538 L-565.6 -535.5 L-562.9 -532.7 L-560.5 -529.6 L-558.2 -526.5 L-556.3 -523.1 L-554.6 -519.6 L-553.3 -516 L-552.2 -512.3 L-551.4 -508.5 L-550.9 -504.6 L-550.7 -500.7 L-550.8 -496.9 L-551.2 -493 L-552 -489.2 L-553 -485.5 L-554.4 -481.8 L-556 -478.3 L-557.9 -474.9 L-560 -471.7 L-562.4 -468.7 L-565.1 -465.8 L-567.9 -463.2 L-571 -460.8 L-574.2 -458.7 L-577.6 -456.8 L-581.1 -455.2 L-584.8 -453.9 L-588.5 -452.9 L-592.3 -452.1 L-596.2 -451.7 L-600 -451.6 Z " />
<path stroke="rgb(0,0,0)" stroke-opacity="1" fill="rgb(255,255,255)" fill-opacity="1" d="M281.4 308 L281.8 306.9 L282.2 305.8 L282.6 304.7 L283 303.7 L283.5 302.6 L283.9 301.5 L284.3 300.5 L284.7 299.4 L285.1 298.3 L285.5 297.2 L285.9 296.2 L286.3 295.1 L286.7 294 L287.1 292.9 L287.5 291.9 L288 290.8 L288.4 289.7 L288.8 288.7 L289.2 287.6 L289.6 286.5 L290 285.4 L290.4 284.4 L290.8 283.3 L291.2 282.2 L291.6 281.1 L292.7 281.5 L293.8 282 L294.9 282.4 L295.9 282.8 L297 283.2 L298.1 283.6 L299.2 284 L300.2 284.4 L301.3 284.8 L302.4 285.2 L303.4 285.6 L304.5 286.1 L305.6 286.5 L306.7 286.9 L307.7 287.3 L308.8 287.7 L309.9 288.1 L311 288.5 L312 288.9 L313.1 289.3 L314.2 289.7 L315.2 290.2 L316.3 290.6 L317.4 291 L318.5 291.4 L318.1 292.5 L317.6 293.5 L317.2 294.6 L316.8 295.7 L316.4 296.7 L316 297.8 L315.6 298.9 L315.2 300 L314.8 301 L314.4 302.1 L314 303.2 L313.6 304.3 L313.1 305.3 L312.7 306.4 L312.3 307.5 L311.9 308.5 L311.5 309.6 L311.1 310.7 L310.7 311.8 L310.3 312.8 L309.9 313.9 L309.5 315 L309 316.1 L308.6 317.1 L308.2 318.2 L307.2 317.8 L306.1 317.4 L305 317 L303.9 316.6 L302.9 316.2 L301.8 315.7 L300.7 315.3 L299.6 314.9 L298.6 314.5 L297.5 314.1 L296.4 313.7 L295.4 313.3 L294.3 312.9 L293.2 312.5 L292.1 312.1 L291.1 311.6 L290 311.2 L288.9 310.8 L287.8 310.4 L286.8 310 L285.7 309.6 L284.6 309.2 L283.6 308.8 L282.5 308.4 L281.4 308 Z " />
</g>
</g>
</svg>
