<!DOCTYPE svg>
<svg xmlns="http://www.w3.org/2000/svg" xmlns:xlink="http://www.w3.org/1999/xlink" width="1000" height="1000">
<g transform="translate(500.000000,500.000000)">
<g transform="scale(3.000000,3.000000)">
<path stroke="rgb(0,0,0)" stroke-opacity="1" fill="rgb(255,255,255)" fill-opacity="1" d="M-412.6 -412.6 L-411.6 -412.6 L-410.6 -412.6 L-409.6 -412.6 L-408.6 -412.6 L-407.6 -412.6 L-406.6 -412.6 L-405.6 -412.6 L-404.6 -412.6 L-403.6 -412.6 L-402.6 -412.6 L-401.6 -412.6 L-400.6 -412.6 L-399.6 -412.6 L-398.6 -412.6 L-397.6 -412.6 L-396.6 -412.6 L-395.6 -412.6 L-394.6 -412.6 L-393.6 -412.6 L-392.6 -412.6 L-391.6 -412.6 L-390.6 -412.6 L-389.6 -412.6 L-388.6 -412.6 L-387.6 -412.6 L-387.6 -411.6 L-387.6 -410.6 L-387.6 -409.6 L-387.6 -408.6 L-387.6 -407.6 L-387.6 -406.6 L-387.6 -405.6 L-387.6 -404.6 L-387.6 -403.6 L-387.6 -402.6 L-387.6 -401.6 L-387.6 -400.6 L-387.6 -399.6 L-387.7 -398.6 L-387.7 -397.6 L-387.7 -396.6 L-387.7 -395.6 L-387.7 -394.6 L-387.7 -393.6 L-387.7 -392.6 L-387.7 -391.6 L-387.7 -390.6 L-387.7 -389.6 L-387.7 -388.6 L-387.7 -387.6 L-388.7 -387.6 L-389.7 -387.6 L-390.7 -387.6 L-391.7 -387.6 L-392.7 -387.6 L-393.7 -387.6 L-394.6 -387.6 L-395.6 -387.6 L-396.6 -387.6 L-397.6 -387.6 L-398.6 -387.6 L-399.6 -387.6 L-400.6 -387.6 L-401.6 -387.7 L-402.6 -387.7 L-403.6 -387.7 L-404.6 -387.7 L-405.6 -387.7 L-406.6 -387.7 L-407.6 -387.7 L-408.6 -387.7 L-409.6 -387.7 L-410.6 -387.7 L-411.6 -387.7 L-412.6 -387.7 L-412.6 -388.7 L-412.6 -389.7 L-412.6 -390.7 L-412.6 -391.7 L-412.6 -392.7 L-412.6 -393.7 L-412.6 -394.6 L-412.6 -395.6 L-412.6 -396.6 L-412.6 -397.6 L-412.6 -398.6 L-412.6 -399.6 L-412.6 -400.6 L-412.6 -401.6 L-412.6 -402.6 L-412.6 -403.6 L-412.6 -404.6 L-412.6 -405.6 L-412.6 -406.6 L-412.6 -407.6 L-412.6 -408.6 L-412.6 -409.6 L-412.6 -410.6 L-412.6 -411.6 L-412.6 -412.6 Z " />
<path stroke="rgb(0,0,0)" stroke-opacity="1" fill="rgb(255,255,255)" fill-opacity="1" d="M-175.7 -301.3 L-175.7 -299.4 L-175.8 -297.4 L-176.1 -295.5 L-176.5 -293.6 L-177.1 -291.8 L-177.8 -290 L-178.7 -288.3 L-179.7 -286.6 L-180.8 -285 L-182 -283.6 L-183.4 -282.2 L-184.9 -280.9 L-186.4 -279.8 L-188.1 -278.8 L-189.8 -277.9 L-191.6 -277.1 L-193.4 -276.5 L-195.3 -276.1 L-197.2 -275.8 L-199.2 -275.7 L-201.1 -275.7 L-203 -275.8 L-204.9 -276.2 L-206.8 -276.6 L-208.6 -277.2 L-210.4 -278 L-212.1 -278.9 L-213.8 -279.9 L-215.3 -281.1 L-216.8 -282.4 L-218.1 -283.7 L-219.4 -285.2 L-220.5 -286.8 L-221.4 -288.5 L-222.3 -290.2 L-223 -292 L-223.6 -293.9 L-224 -295.8 L-224.2 -297.7 L-224.3 -299.6 L-224.3 -301.6 L-224.1 -303.5 L-223.7 -305.4 L-223.2 -307.3 L-222.6 -309.1 L-221.8 -310.8 L-220.8 -312.5 L-219.8 -314.2 L-218.6 -315.7 L-217.3 -317.1 L-215.9 -318.4 L-214.3 -319.6 L-212.7 -320.7 L-211.1 -321.7 L-209.3 -322.5 L-207.5 -323.1 L-205.6 -323.7 L-203.7 -324 L-201.8 -324.3 L-199.9 -324.3 L-197.9 -324.2 L-196 -324 L-194.1 -323.6 L-192.3 -323.1 L-190.4 -322.4 L-188.7 -321.5 L-187 -320.6 L-185.4 -319.5 L-183.9 -318.3 L-182.5 -316.9 L-181.2 -315.5 L-180.1 -313.9 L-179 -312.3 L-178.1 -310.6 L-177.3 -308.8 L-176.7 -307 L-176.2 -305.1 L-175.9 -303.2 L-175.7 -301.3 Z " />
<path stroke="rgb(0,0,0)" stroke-opacity="1" fill="rgb(255,255,255)" fill-opacity="1" d="M-212.6 -412.6 L-211.6 -412.6 L-210.6 -412.6 L-209.6 -412.6 L-208.6 -412.6 L-207.6 -412.6 L-206.6 -412.6 L-205.6 -412.6 L-204.6 -412.6 L-203.6 -412.6 L-202.6 -412.6 L-201.6 -412.6 L-200.6 -412.6 L-199.6 -412.6 L-198.6 -412.6 L-197.6 -412.6 L-196.6 -412.6 L-195.6 -412.6 L-194.6 -412.6 L-193.6 -412.6 L-192.6 -412.6 L-191.6 -412.6 L-190.6 -412.6 L-189.6 -412.6 L-188.6 -412.6 L-187.6 -412.6 L-187.6 -411.6 L-187.6 -410.6 L-187.6 -409.6 L-187.6 -408.6 L-187.6 -407.6 L-187.6 -406.6 L-187.6 -405.6 L-187.6 -404.6 L-187.6 -403.6 L-187.6 -402.6 L-187.6 -401.6 L-187.6 -400.6 L-187.6 -399.6 L-187.7 -398.6 L-187.7 -397.6 L-187.7 -396.6 L-187.7 -395.6 L-187.7 -394.6 L-187.7 -393.6 L-187.7 -392.6 L-187.7 -391.6 L-187.7 -390.6 L-187.7 -389.6 L-187.7 -388.6 L-187.7 -387.6 L-188.7 -387.6 L-189.7 -387.6 L-190.7 -387.6 L-191.7 -387.6 L-192.7 -387.6 L-193.7 -387.6 L-194.6 -387.6 L-195.6 -387.6 L-196.6 -387.6 L-197.6 -387.6 L-198.6 -387.6 L-199.6 -387.6 L-200.6 -387.6 L-201.6 -387.7 L-202.6 -387.7 L-203.6 -387.7 L-204.6 -387.7 L-205.6 -387.7 L-206.6 -387.7 L-207.6 -387.7 L-208.6 -387.7 L-209.6 -387.7 L-210.6 -387.7 L-211.6 -387.7 L-212.6 -387.7 L-212.6 -388.7 L-212.6 -389.7 L-212.6 -390.7 L-212.6 -391.7 L-212.6 -392.7 L-212.6 -393.7 L-212.6 -394.6 L-212.6 -395.6 L-212.6 -396.6 L-212.6 -397.6 L-212.6 -398.6 L-212.6 -399.6 L-212.6 -400.6 L-212.6 -401.6 L-212.6 -402.6 L-212.6 -403.6 L-212.6 -404.6 L-212.6 -405.6 L-212.6 -406.6 L-212.6 -407.6 L-212.6 -408.6 L-212.6 -409.6 L-212.6 -410.6 L-212.6 -411.6 L-212.6 -412.6 Z " />
<path stroke="rgb(0,0,0)" stroke-opacity="1" fill="rgb(255,255,255)" fill-opacity="1" d="M15.86 -310.7 L16.67 -309.4 L17.38 -308.1 L17.98 -306.7 L18.46 -305.2 L18.83 -303.8 L19.08 -302.3 L19.21 -300.7 L19.22 -299.2 L19.11 -297.7 L18.88 -296.2 L18.53 -294.7 L18.06 -293.3 L17.48 -291.9 L16.79 -290.5 L16 -289.2 L15.1 -288 L14.11 -286.8 L13.03 -285.8 L11.87 -284.8 L10.64 -283.9 L9.336 -283.1 L7.976 -282.4 L6.567 -281.9 L5.117 -281.4 L3.635 -281.1 L2.132 -280.9 L0.6149 -280.8 L-0.9049 -280.8 L-2.418 -280.9 L-3.916 -281.2 L-5.387 -281.6 L-6.825 -282.1 L-8.218 -282.7 L-9.558 -283.4 L-10.84 -284.2 L-12.05 -285.1 L-13.18 -286.1 L-14.23 -287.2 L-15.19 -288.4 L-16.05 -289.7 L-16.81 -291 L-17.46 -292.4 L-18 -293.8 L-18.43 -295.2 L-18.74 -296.7 L-18.93 -298.2 L-19 -299.7 L-18.95 -301.3 L-18.78 -302.8 L-18.49 -304.3 L-18.08 -305.7 L-17.55 -307.2 L-16.92 -308.5 L-16.18 -309.9 L-15.33 -311.1 L-14.39 -312.3 L-13.35 -313.4 L-12.23 -314.5 L-11.03 -315.4 L-9.763 -316.2 L-8.432 -317 L-7.046 -317.6 L-5.615 -318.1 L-4.148 -318.5 L-2.654 -318.8 L-1.143 -318.9 L0.3766 -319 L1.894 -318.9 L3.401 -318.7 L4.887 -318.4 L6.342 -317.9 L7.758 -317.4 L9.126 -316.7 L10.44 -316 L11.68 -315.1 L12.86 -314.1 L13.95 -313.1 L14.95 -311.9 L15.86 -310.7 Z " />
<path stroke="rgb(0,0,0)" stroke-opacity="1" fill="rgb(255,255,255)" fill-opacity="1" d="M-12.58 -412.6 L-11.58 -412.6 L-10.58 -412.6 L-9.586 -412.6 L-8.588 -412.6 L-7.59 -412.6 L-6.593 -412.6 L-5.595 -412.6 L-4.597 -412.6 L-3.599 -412.6 L-2.601 -412.6 L-1.603 -412.6 L-0.6056 -412.6 L0.3923 -412.6 L1.39 -412.6 L2.388 -412.6 L3.386 -412.6 L4.384 -412.6 L5.381 -412.6 L6.379 -412.6 L7.377 -412.6 L8.375 -412.6 L9.373 -412.6 L10.37 -412.6 L11.37 -412.6 L12.37 -412.6 L12.37 -411.6 L12.36 -410.6 L12.36 -409.6 L12.36 -408.6 L12.36 -407.6 L12.36 -406.6 L12.36 -405.6 L12.36 -404.6 L12.36 -403.6 L12.35 -402.6 L12.35 -401.6 L12.35 -400.6 L12.35 -399.6 L12.35 -398.6 L12.35 -397.6 L12.35 -396.6 L12.35 -395.6 L12.34 -394.6 L12.34 -393.6 L12.34 -392.6 L12.34 -391.6 L12.34 -390.6 L12.34 -389.6 L12.34 -388.6 L12.34 -387.6 L11.34 -387.6 L10.34 -387.6 L9.342 -387.6 L8.344 -387.6 L7.346 -387.6 L6.349 -387.6 L5.351 -387.6 L4.353 -387.6 L3.355 -387.6 L2.357 -387.6 L1.359 -387.6 L0.3615 -387.6 L-0.6363 -387.6 L-1.634 -387.7 L-2.632 -387.7 L-3.63 -387.7 L-4.628 -387.7 L-5.626 -387.7 L-6.623 -387.7 L-7.621 -387.7 L-8.619 -387.7 L-9.617 -387.7 L-10.61 -387.7 L-11.61 -387.7 L-12.61 -387.7 L-12.61 -388.7 L-12.61 -389.7 L-12.61 -390.7 L-12.61 -391.7 L-12.6 -392.7 L-12.6 -393.7 L-12.6 -394.6 L-12.6 -395.6 L-12.6 -396.6 L-12.6 -397.6 L-12.6 -398.6 L-12.6 -399.6 L-12.59 -400.6 L-12.59 -401.6 L-12.59 -402.6 L-12.59 -403.6 L-12.59 -404.6 L-12.59 -405.6 L-12.59 -406.6 L-12.59 -407.6 L-12.58 -408.6 L-12.58 -409.6 L-12.58 -410.6 L-12.58 -411.6 L-12.58 -412.6 Z " />
<path stroke="rgb(0,0,0)" stroke-opacity="1" fill="rgb(255,255,255)" fill-opacity="1" d="M202.4 -313 L203.4 -312.8 L204.5 -312.5 L205.4 -312.2 L206.4 -311.7 L207.3 -311.2 L208.2 -310.6 L209.1 -309.9 L209.8 -309.2 L210.5 -308.4 L211.2 -307.6 L211.8 -306.7 L212.3 -305.8 L212.7 -304.8 L213.1 -303.8 L213.3 -302.8 L213.5 -301.7 L213.6 -300.7 L213.7 -299.6 L213.6 -298.5 L213.5 -297.5 L213.2 -296.4 L212.9 -295.4 L212.5 -294.4 L212.1 -293.5 L211.5 -292.6 L210.9 -291.7 L210.2 -290.9 L209.5 -290.1 L208.7 -289.4 L207.8 -288.8 L206.9 -288.2 L206 -287.7 L205 -287.3 L204 -287 L202.9 -286.7 L201.9 -286.6 L200.8 -286.5 L199.8 -286.5 L198.7 -286.5 L197.7 -286.7 L196.6 -287 L195.6 -287.3 L194.6 -287.7 L193.7 -288.2 L192.8 -288.8 L191.9 -289.4 L191.1 -290.1 L190.4 -290.8 L189.7 -291.7 L189.1 -292.5 L188.5 -293.4 L188.1 -294.4 L187.7 -295.4 L187.4 -296.4 L187.1 -297.4 L187 -298.5 L186.9 -299.5 L186.9 -300.6 L187 -301.7 L187.2 -302.7 L187.5 -303.7 L187.8 -304.8 L188.3 -305.7 L188.8 -306.7 L189.4 -307.6 L190 -308.4 L190.7 -309.2 L191.5 -309.9 L192.3 -310.6 L193.2 -311.2 L194.1 -311.7 L195.1 -312.2 L196.1 -312.5 L197.1 -312.8 L198.1 -313 L199.2 -313.2 L200.3 -313.2 L201.3 -313.2 L202.4 -313 Z " />
<path stroke="rgb(0,0,0)" stroke-opacity="1" fill="rgb(255,255,255)" fill-opacity="1" d="M187.6 -412.3 L188.6 -412.3 L189.6 -412.3 L190.6 -412.3 L191.6 -412.3 L192.6 -412.3 L193.6 -412.3 L194.6 -412.3 L195.6 -412.3 L196.6 -412.3 L197.6 -412.3 L198.6 -412.3 L199.6 -412.3 L200.6 -412.3 L201.6 -412.3 L202.6 -412.3 L203.6 -412.3 L204.6 -412.3 L205.6 -412.3 L206.6 -412.3 L207.6 -412.3 L208.6 -412.4 L209.6 -412.4 L210.6 -412.4 L211.6 -412.4 L212.6 -412.4 L212.6 -411.4 L212.6 -410.4 L212.6 -409.4 L212.6 -408.4 L212.6 -407.4 L212.6 -406.4 L212.6 -405.4 L212.6 -404.4 L212.6 -403.4 L212.6 -402.4 L212.6 -401.4 L212.6 -400.4 L212.6 -399.4 L212.6 -398.4 L212.6 -397.4 L212.6 -396.4 L212.6 -395.4 L212.6 -394.4 L212.6 -393.4 L212.6 -392.4 L212.6 -391.4 L212.6 -390.4 L212.7 -389.4 L212.7 -388.4 L212.7 -387.4 L211.7 -387.4 L210.7 -387.4 L209.7 -387.4 L208.7 -387.4 L207.7 -387.4 L206.7 -387.4 L205.7 -387.4 L204.7 -387.4 L203.7 -387.4 L202.7 -387.4 L201.7 -387.4 L200.7 -387.4 L199.7 -387.4 L198.7 -387.4 L197.7 -387.4 L196.7 -387.4 L195.7 -387.4 L194.7 -387.4 L193.7 -387.4 L192.7 -387.4 L191.7 -387.4 L190.7 -387.4 L189.7 -387.4 L188.7 -387.3 L187.7 -387.3 L187.7 -388.3 L187.7 -389.3 L187.7 -390.3 L187.7 -391.3 L187.7 -392.3 L187.7 -393.3 L187.7 -394.3 L187.7 -395.3 L187.7 -396.3 L187.7 -397.3 L187.7 -398.3 L187.7 -399.3 L187.7 -400.3 L187.7 -401.3 L187.7 -402.3 L187.7 -403.3 L187.7 -404.3 L187.7 -405.3 L187.7 -406.3 L187.7 -407.3 L187.6 -408.3 L187.6 -409.3 L187.6 -410.3 L187.6 -411.3 L187.6 -412.3 Z " />
<path stroke="rgb(0,0,0)" stroke-opacity="1" fill="rgb(255,255,255)" fill-opacity="1" d="M-275.7 -201.3 L-275.7 -199.4 L-275.8 -197.4 L-276.1 -195.5 L-276.5 -193.6 L-277.1 -191.8 L-277.8 -190 L-278.7 -188.3 L-279.7 -186.6 L-280.8 -185 L-282 -183.6 L-283.4 -182.2 L-284.9 -180.9 L-286.4 -179.8 L-288.1 -178.8 L-289.8 -177.9 L-291.6 -177.1 L-293.4 -176.5 L-295.3 -176.1 L-297.2 -175.8 L-299.2 -175.7 L-301.1 -175.7 L-303 -175.8 L-304.9 -176.2 L-306.8 -176.6 L-308.6 -177.2 L-310.4 -178 L-312.1 -178.9 L-313.8 -179.9 L-315.3 -181.1 L-316.8 -182.4 L-318.1 -183.7 L-319.4 -185.2 L-320.5 -186.8 L-321.4 -188.5 L-322.3 -190.2 L-323 -192 L-323.6 -193.9 L-324 -195.8 L-324.2 -197.7 L-324.3 -199.6 L-324.3 -201.6 L-324.1 -203.5 L-323.7 -205.4 L-323.2 -207.3 L-322.6 -209.1 L-321.8 -210.8 L-320.8 -212.5 L-319.8 -214.2 L-318.6 -215.7 L-317.3 -217.1 L-315.9 -218.4 L-314.3 -219.6 L-312.7 -220.7 L-311.1 -221.7 L-309.3 -222.5 L-307.5 -223.1 L-305.6 -223.7 L-303.7 -224 L-301.8 -224.3 L-299.9 -224.3 L-297.9 -224.2 L-296 -224 L-294.1 -223.6 L-292.3 -223.1 L-290.4 -222.4 L-288.7 -221.5 L-287 -220.6 L-285.4 -219.5 L-283.9 -218.3 L-282.5 -216.9 L-281.2 -215.5 L-280.1 -213.9 L-279 -212.3 L-278.1 -210.6 L-277.3 -208.8 L-276.7 -207 L-276.2 -205.1 L-275.9 -203.2 L-275.7 -201.3 Z " />
<path stroke="rgb(0,0,0)" stroke-opacity="1" fill="rgb(255,255,255)" fill-opacity="1" d="M-312.6 -312.6 L-311.6 -312.6 L-310.6 -312.6 L-309.6 -312.6 L-308.6 -312.6 L-307.6 -312.6 L-306.6 -312.6 L-305.6 -312.6 L-304.6 -312.6 L-303.6 -312.6 L-302.6 -312.6 L-301.6 -312.6 L-300.6 -312.6 L-299.6 -312.6 L-298.6 -312.6 L-297.6 -312.6 L-296.6 -312.6 L-295.6 -312.6 L-294.6 -312.6 L-293.6 -312.6 L-292.6 -312.6 L-291.6 -312.6 L-290.6 -312.6 L-289.6 -312.6 L-288.6 -312.6 L-287.6 -312.6 L-287.6 -311.6 L-287.6 -310.6 L-287.6 -309.6 L-287.6 -308.6 L-287.6 -307.6 L-287.6 -306.6 L-287.6 -305.6 L-287.6 -304.6 L-287.6 -303.6 L-287.6 -302.6 L-287.6 -301.6 L-287.6 -300.6 L-287.6 -299.6 L-287.7 -298.6 L-287.7 -297.6 L-287.7 -296.6 L-287.7 -295.6 L-287.7 -294.6 L-287.7 -293.6 L-287.7 -292.6 L-287.7 -291.6 L-287.7 -290.6 L-287.7 -289.6 L-287.7 -288.6 L-287.7 -287.6 L-288.7 -287.6 L-289.7 -287.6 L-290.7 -287.6 L-291.7 -287.6 L-292.7 -287.6 L-293.7 -287.6 L-294.6 -287.6 L-295.6 -287.6 L-296.6 -287.6 L-297.6 -287.6 L-298.6 -287.6 L-299.6 -287.6 L-300.6 -287.6 L-301.6 -287.7 L-302.6 -287.7 L-303.6 -287.7 L-304.6 -287.7 L-305.6 -287.7 L-306.6 -287.7 L-307.6 -287.7 L-308.6 -287.7 L-309.6 -287.7 L-310.6 -287.7 L-311.6 -287.7 L-312.6 -287.7 L-312.6 -288.7 L-312.6 -289.7 L-312.6 -290.7 L-312.6 -291.7 L-312.6 -292.7 L-312.6 -293.7 L-312.6 -294.6 L-312.6 -295.6 L-312.6 -296.6 L-312.6 -297.6 L-312.6 -298.6 L-312.6 -299.6 L-312.6 -300.6 L-312.6 -301.6 L-312.6 -302.6 L-312.6 -303.6 L-312.6 -304.6 L-312.6 -305.6 L-312.6 -306.6 L-312.6 -307.6 L-312.6 -308.6 L-312.6 -309.6 L-312.6 -310.6 L-312.6 -311.6 L-312.6 -312.6 Z " />
<path stroke="rgb(0,0,0)" stroke-opacity="1" fill="rgb(255,255,255)" fill-opacity="1" d="M-84.14 -210.7 L-83.33 -209.4 L-82.62 -208.1 L-82.02 -206.7 L-81.54 -205.2 L-81.17 -203.8 L-80.92 -202.3 L-80.79 -200.7 L-80.78 -199.2 L-80.89 -197.7 L-81.12 -196.2 L-81.47 -194.7 L-81.94 -193.3 L-82.52 -191.9 L-83.21 -190.5 L-84 -189.2 L-84.9 -188 L-85.89 -186.8 L-86.97 -185.8 L-88.13 -184.8 L-89.36 -183.9 L-90.66 -183.1 L-92.02 -182.4 L-93.43 -181.9 L-94.88 -181.4 L-96.36 -181.1 L-97.87 -180.9 L-99.39 -180.8 L-100.9 -180.8 L-102.4 -180.9 L-103.9 -181.2 L-105.4 -181.6 L-106.8 -182.1 L-108.2 -182.7 L-109.6 -183.4 L-110.8 -184.2 L-112 -185.1 L-113.2 -186.1 L-114.2 -187.2 L-115.2 -188.4 L-116 -189.7 L-116.8 -191 L-117.5 -192.4 L-118 -193.8 L-118.4 -195.2 L-118.7 -196.7 L-118.9 -198.2 L-119 -199.7 L-118.9 -201.3 L-118.8 -202.8 L-118.5 -204.3 L-118.1 -205.7 L-117.6 -207.2 L-116.9 -208.5 L-116.2 -209.9 L-115.3 -211.1 L-114.4 -212.3 L-113.4 -213.4 L-112.2 -214.5 L-111 -215.4 L-109.8 -216.2 L-108.4 -217 L-107 -217.6 L-105.6 -218.1 L-104.1 -218.5 L-102.7 -218.8 L-101.1 -218.9 L-99.62 -219 L-98.11 -218.9 L-96.6 -218.7 L-95.11 -218.4 L-93.66 -217.9 L-92.24 -217.4 L-90.87 -216.7 L-89.56 -216 L-88.32 -215.1 L-87.14 -214.1 L-86.05 -213.1 L-85.05 -211.9 L-84.14 -210.7 Z " />
<path stroke="rgb(0,0,0)" stroke-opacity="1" fill="rgb(255,255,255)" fill-opacity="1" d="M-112.6 -312.6 L-111.6 -312.6 L-110.6 -312.6 L-109.6 -312.6 L-108.6 -312.6 L-107.6 -312.6 L-106.6 -312.6 L-105.6 -312.6 L-104.6 -312.6 L-103.6 -312.6 L-102.6 -312.6 L-101.6 -312.6 L-100.6 -312.6 L-99.61 -312.6 L-98.61 -312.6 L-97.61 -312.6 L-96.61 -312.6 L-95.62 -312.6 L-94.62 -312.6 L-93.62 -312.6 L-92.62 -312.6 L-91.63 -312.6 L-90.63 -312.6 L-89.63 -312.6 L-88.63 -312.6 L-87.63 -312.6 L-87.63 -311.6 L-87.64 -310.6 L-87.64 -309.6 L-87.64 -308.6 L-87.64 -307.6 L-87.64 -306.6 L-87.64 -305.6 L-87.64 -304.6 L-87.64 -303.6 L-87.65 -302.6 L-87.65 -301.6 L-87.65 -300.6 L-87.65 -299.6 L-87.65 -298.6 L-87.65 -297.6 L-87.65 -296.6 L-87.65 -295.6 L-87.66 -294.6 L-87.66 -293.6 L-87.66 -292.6 L-87.66 -291.6 L-87.66 -290.6 L-87.66 -289.6 L-87.66 -288.6 L-87.66 -287.6 L-88.66 -287.6 L-89.66 -287.6 L-90.66 -287.6 L-91.66 -287.6 L-92.65 -287.6 L-93.65 -287.6 L-94.65 -287.6 L-95.65 -287.6 L-96.64 -287.6 L-97.64 -287.6 L-98.64 -287.6 L-99.64 -287.6 L-100.6 -287.6 L-101.6 -287.7 L-102.6 -287.7 L-103.6 -287.7 L-104.6 -287.7 L-105.6 -287.7 L-106.6 -287.7 L-107.6 -287.7 L-108.6 -287.7 L-109.6 -287.7 L-110.6 -287.7 L-111.6 -287.7 L-112.6 -287.7 L-112.6 -288.7 L-112.6 -289.7 L-112.6 -290.7 L-112.6 -291.7 L-112.6 -292.7 L-112.6 -293.7 L-112.6 -294.6 L-112.6 -295.6 L-112.6 -296.6 L-112.6 -297.6 L-112.6 -298.6 L-112.6 -299.6 L-112.6 -300.6 L-112.6 -301.6 L-112.6 -302.6 L-112.6 -303.6 L-112.6 -304.6 L-112.6 -305.6 L-112.6 -306.6 L-112.6 -307.6 L-112.6 -308.6 L-112.6 -309.6 L-112.6 -310.6 L-112.6 -311.6 L-112.6 -312.6 Z " />
<path stroke="rgb(0,0,0)" stroke-opacity="1" fill="rgb(255,255,255)" fill-opacity="1" d="M102.4 -213 L103.4 -212.8 L104.5 -212.5 L105.4 -212.2 L106.4 -211.7 L107.3 -211.2 L108.2 -210.6 L109.1 -209.9 L109.8 -209.2 L110.5 -208.4 L111.2 -207.6 L111.8 -206.7 L112.3 -205.8 L112.7 -204.8 L113.1 -203.8 L113.3 -202.8 L113.5 -201.7 L113.6 -200.7 L113.7 -199.6 L113.6 -198.5 L113.5 -197.5 L113.2 -196.4 L112.9 -195.4 L112.5 -194.4 L112.1 -193.5 L111.5 -192.6 L110.9 -191.7 L110.2 -190.9 L109.5 -190.1 L108.7 -189.4 L107.8 -188.8 L106.9 -188.2 L106 -187.7 L105 -187.3 L104 -187 L102.9 -186.7 L101.9 -186.6 L100.8 -186.5 L99.77 -186.5 L98.71 -186.5 L97.66 -186.7 L96.63 -187 L95.62 -187.3 L94.64 -187.7 L93.69 -188.2 L92.79 -188.8 L91.93 -189.4 L91.13 -190.1 L90.38 -190.8 L89.7 -191.7 L89.08 -192.5 L88.54 -193.4 L88.07 -194.4 L87.67 -195.4 L87.36 -196.4 L87.13 -197.4 L86.98 -198.5 L86.91 -199.5 L86.93 -200.6 L87.03 -201.7 L87.22 -202.7 L87.49 -203.7 L87.84 -204.8 L88.27 -205.7 L88.78 -206.7 L89.36 -207.6 L90.01 -208.4 L90.72 -209.2 L91.49 -209.9 L92.32 -210.6 L93.2 -211.2 L94.12 -211.7 L95.09 -212.2 L96.08 -212.5 L97.1 -212.8 L98.15 -213 L99.2 -213.2 L100.3 -213.2 L101.3 -213.2 L102.4 -213 Z " />
<path stroke="rgb(0,0,0)" stroke-opacity="1" fill="rgb(255,255,255)" fill-opacity="1" d="M87.64 -312.3 L88.63 -312.3 L89.63 -312.3 L90.63 -312.3 L91.63 -312.3 L92.63 -312.3 L93.62 -312.3 L94.62 -312.3 L95.62 -312.3 L96.62 -312.3 L97.61 -312.3 L98.61 -312.3 L99.61 -312.3 L100.6 -312.3 L101.6 -312.3 L102.6 -312.3 L103.6 -312.3 L104.6 -312.3 L105.6 -312.3 L106.6 -312.3 L107.6 -312.3 L108.6 -312.4 L109.6 -312.4 L110.6 -312.4 L111.6 -312.4 L112.6 -312.4 L112.6 -311.4 L112.6 -310.4 L112.6 -309.4 L112.6 -308.4 L112.6 -307.4 L112.6 -306.4 L112.6 -305.4 L112.6 -304.4 L112.6 -303.4 L112.6 -302.4 L112.6 -301.4 L112.6 -300.4 L112.6 -299.4 L112.6 -298.4 L112.6 -297.4 L112.6 -296.4 L112.6 -295.4 L112.6 -294.4 L112.6 -293.4 L112.6 -292.4 L112.6 -291.4 L112.6 -290.4 L112.7 -289.4 L112.7 -288.4 L112.7 -287.4 L111.7 -287.4 L110.7 -287.4 L109.7 -287.4 L108.7 -287.4 L107.7 -287.4 L106.7 -287.4 L105.7 -287.4 L104.7 -287.4 L103.7 -287.4 L102.7 -287.4 L101.7 -287.4 L100.7 -287.4 L99.68 -287.4 L98.69 -287.4 L97.69 -287.4 L96.69 -287.4 L95.69 -287.4 L94.7 -287.4 L93.7 -287.4 L92.7 -287.4 L91.7 -287.4 L90.7 -287.4 L89.71 -287.4 L88.71 -287.3 L87.71 -287.3 L87.71 -288.3 L87.7 -289.3 L87.7 -290.3 L87.7 -291.3 L87.7 -292.3 L87.69 -293.3 L87.69 -294.3 L87.69 -295.3 L87.68 -296.3 L87.68 -297.3 L87.68 -298.3 L87.67 -299.3 L87.67 -300.3 L87.67 -301.3 L87.67 -302.3 L87.66 -303.3 L87.66 -304.3 L87.66 -305.3 L87.65 -306.3 L87.65 -307.3 L87.65 -308.3 L87.65 -309.3 L87.64 -310.3 L87.64 -311.3 L87.64 -312.3 Z " />
<path stroke="rgb(0,0,0)" stroke-opacity="1" fill="rgb(255,255,255)" fill-opacity="1" d="M300.3 -212.3 L301.3 -212.3 L302.3 -212.2 L303.3 -212 L304.2 -211.7 L305.2 -211.4 L306.1 -210.9 L306.9 -210.4 L307.8 -209.9 L308.5 -209.3 L309.3 -208.6 L309.9 -207.8 L310.5 -207 L311.1 -206.2 L311.5 -205.3 L311.9 -204.4 L312.3 -203.5 L312.5 -202.5 L312.7 -201.6 L312.8 -200.6 L312.8 -199.6 L312.7 -198.6 L312.6 -197.6 L312.4 -196.6 L312.1 -195.7 L311.7 -194.8 L311.3 -193.9 L310.8 -193 L310.2 -192.2 L309.6 -191.4 L308.9 -190.7 L308.1 -190.1 L307.3 -189.5 L306.5 -189 L305.6 -188.5 L304.7 -188.1 L303.7 -187.8 L302.8 -187.6 L301.8 -187.4 L300.8 -187.4 L299.8 -187.4 L298.8 -187.4 L297.8 -187.6 L296.9 -187.8 L295.9 -188.2 L295 -188.5 L294.1 -189 L293.3 -189.5 L292.5 -190.1 L291.7 -190.8 L291 -191.5 L290.4 -192.2 L289.8 -193.1 L289.3 -193.9 L288.9 -194.8 L288.5 -195.7 L288.2 -196.7 L288 -197.6 L287.9 -198.6 L287.8 -199.6 L287.8 -200.6 L287.9 -201.6 L288.1 -202.6 L288.4 -203.5 L288.7 -204.5 L289.1 -205.4 L289.6 -206.3 L290.1 -207.1 L290.7 -207.9 L291.4 -208.6 L292.1 -209.3 L292.9 -209.9 L293.7 -210.5 L294.6 -211 L295.5 -211.4 L296.4 -211.7 L297.4 -212 L298.4 -212.2 L299.3 -212.3 L300.3 -212.3 Z " />
<path stroke="rgb(0,0,0)" stroke-opacity="1" fill="rgb(255,255,255)" fill-opacity="1" d="M-412.6 -212.6 L-411.6 -212.6 L-410.6 -212.6 L-409.6 -212.6 L-408.6 -212.6 L-407.6 -212.6 L-406.6 -212.6 L-405.6 -212.6 L-404.6 -212.6 L-403.6 -212.6 L-402.6 -212.6 L-401.6 -212.6 L-400.6 -212.6 L-399.6 -212.6 L-398.6 -212.6 L-397.6 -212.6 L-396.6 -212.6 L-395.6 -212.6 L-394.6 -212.6 L-393.6 -212.6 L-392.6 -212.6 L-391.6 -212.6 L-390.6 -212.6 L-389.6 -212.6 L-388.6 -212.6 L-387.6 -212.6 L-387.6 -211.6 L-387.6 -210.6 L-387.6 -209.6 L-387.6 -208.6 L-387.6 -207.6 L-387.6 -206.6 L-387.6 -205.6 L-387.6 -204.6 L-387.6 -203.6 L-387.6 -202.6 L-387.6 -201.6 L-387.6 -200.6 L-387.6 -199.6 L-387.7 -198.6 L-387.7 -197.6 L-387.7 -196.6 L-387.7 -195.6 L-387.7 -194.6 L-387.7 -193.6 L-387.7 -192.6 L-387.7 -191.6 L-387.7 -190.6 L-387.7 -189.6 L-387.7 -188.6 L-387.7 -187.6 L-388.7 -187.6 L-389.7 -187.6 L-390.7 -187.6 L-391.7 -187.6 L-392.7 -187.6 L-393.7 -187.6 L-394.6 -187.6 L-395.6 -187.6 L-396.6 -187.6 L-397.6 -187.6 L-398.6 -187.6 L-399.6 -187.6 L-400.6 -187.6 L-401.6 -187.7 L-402.6 -187.7 L-403.6 -187.7 L-404.6 -187.7 L-405.6 -187.7 L-406.6 -187.7 L-407.6 -187.7 L-408.6 -187.7 L-409.6 -187.7 L-410.6 -187.7 L-411.6 -187.7 L-412.6 -187.7 L-412.6 -188.7 L-412.6 -189.7 L-412.6 -190.7 L-412.6 -191.7 L-412.6 -192.7 L-412.6 -193.7 L-412.6 -194.6 L-412.6 -195.6 L-412.6 -196.6 L-412.6 -197.6 L-412.6 -198.6 L-412.6 -199.6 L-412.6 -200.6 L-412.6 -201.6 L-412.6 -202.6 L-412.6 -203.6 L-412.6 -204.6 L-412.6 -205.6 L-412.6 -206.6 L-412.6 -207.6 L-412.6 -208.6 L-412.6 -209.6 L-412.6 -210.6 L-412.6 -211.6 L-412.6 -212.6 Z " />
<path stroke="rgb(0,0,0)" stroke-opacity="1" fill="rgb(255,255,255)" fill-opacity="1" d="M-184.1 -110.7 L-183.3 -109.4 L-182.6 -108.1 L-182 -106.7 L-181.5 -105.2 L-181.2 -103.8 L-180.9 -102.3 L-180.8 -100.7 L-180.8 -99.22 L-180.9 -97.71 L-181.1 -96.21 L-181.5 -94.73 L-181.9 -93.28 L-182.5 -91.87 L-183.2 -90.52 L-184 -89.23 L-184.9 -88 L-185.9 -86.84 L-187 -85.77 L-188.1 -84.79 L-189.4 -83.9 L-190.7 -83.12 L-192 -82.44 L-193.4 -81.87 L-194.9 -81.41 L-196.4 -81.08 L-197.9 -80.86 L-199.4 -80.76 L-200.9 -80.78 L-202.4 -80.92 L-203.9 -81.18 L-205.4 -81.56 L-206.8 -82.05 L-208.2 -82.66 L-209.6 -83.38 L-210.8 -84.2 L-212 -85.12 L-213.2 -86.13 L-214.2 -87.23 L-215.2 -88.41 L-216 -89.66 L-216.8 -90.98 L-217.5 -92.35 L-218 -93.77 L-218.4 -95.23 L-218.7 -96.72 L-218.9 -98.23 L-219 -99.75 L-218.9 -101.3 L-218.8 -102.8 L-218.5 -104.3 L-218.1 -105.7 L-217.6 -107.2 L-216.9 -108.5 L-216.2 -109.9 L-215.3 -111.1 L-214.4 -112.3 L-213.4 -113.4 L-212.2 -114.5 L-211 -115.4 L-209.8 -116.2 L-208.4 -117 L-207 -117.6 L-205.6 -118.1 L-204.1 -118.5 L-202.7 -118.8 L-201.1 -118.9 L-199.6 -119 L-198.1 -118.9 L-196.6 -118.7 L-195.1 -118.4 L-193.7 -117.9 L-192.2 -117.4 L-190.9 -116.7 L-189.6 -116 L-188.3 -115.1 L-187.1 -114.1 L-186.1 -113.1 L-185 -111.9 L-184.1 -110.7 Z " />
<path stroke="rgb(0,0,0)" stroke-opacity="1" fill="rgb(255,255,255)" fill-opacity="1" d="M-212.6 -212.6 L-211.6 -212.6 L-210.6 -212.6 L-209.6 -212.6 L-208.6 -212.6 L-207.6 -212.6 L-206.6 -212.6 L-205.6 -212.6 L-204.6 -212.6 L-203.6 -212.6 L-202.6 -212.6 L-201.6 -212.6 L-200.6 -212.6 L-199.6 -212.6 L-198.6 -212.6 L-197.6 -212.6 L-196.6 -212.6 L-195.6 -212.6 L-194.6 -212.6 L-193.6 -212.6 L-192.6 -212.6 L-191.6 -212.6 L-190.6 -212.6 L-189.6 -212.6 L-188.6 -212.6 L-187.6 -212.6 L-187.6 -211.6 L-187.6 -210.6 L-187.6 -209.6 L-187.6 -208.6 L-187.6 -207.6 L-187.6 -206.6 L-187.6 -205.6 L-187.6 -204.6 L-187.6 -203.6 L-187.6 -202.6 L-187.6 -201.6 L-187.6 -200.6 L-187.6 -199.6 L-187.7 -198.6 L-187.7 -197.6 L-187.7 -196.6 L-187.7 -195.6 L-187.7 -194.6 L-187.7 -193.6 L-187.7 -192.6 L-187.7 -191.6 L-187.7 -190.6 L-187.7 -189.6 L-187.7 -188.6 L-187.7 -187.6 L-188.7 -187.6 L-189.7 -187.6 L-190.7 -187.6 L-191.7 -187.6 L-192.7 -187.6 L-193.7 -187.6 L-194.6 -187.6 L-195.6 -187.6 L-196.6 -187.6 L-197.6 -187.6 L-198.6 -187.6 L-199.6 -187.6 L-200.6 -187.6 L-201.6 -187.7 L-202.6 -187.7 L-203.6 -187.7 L-204.6 -187.7 L-205.6 -187.7 L-206.6 -187.7 L-207.6 -187.7 L-208.6 -187.7 L-209.6 -187.7 L-210.6 -187.7 L-211.6 -187.7 L-212.6 -187.7 L-212.6 -188.7 L-212.6 -189.7 L-212.6 -190.7 L-212.6 -191.7 L-212.6 -192.7 L-212.6 -193.7 L-212.6 -194.6 L-212.6 -195.6 L-212.6 -196.6 L-212.6 -197.6 L-212.6 -198.6 L-212.6 -199.6 L-212.6 -200.6 L-212.6 -201.6 L-212.6 -202.6 L-212.6 -203.6 L-212.6 -204.6 L-212.6 -205.6 L-212.6 -206.6 L-212.6 -207.6 L-212.6 -208.6 L-212.6 -209.6 L-212.6 -210.6 L-212.6 -211.6 L-212.6 -212.6 Z " />
<path stroke="rgb(0,0,0)" stroke-opacity="1" fill="rgb(255,255,255)" fill-opacity="1" d="M2.385 -113 L3.428 -112.8 L4.452 -112.5 L5.449 -112.2 L6.413 -111.7 L7.338 -111.2 L8.219 -110.6 L9.05 -109.9 L9.825 -109.2 L10.54 -108.4 L11.19 -107.6 L11.77 -106.7 L12.28 -105.8 L12.71 -104.8 L13.07 -103.8 L13.34 -102.8 L13.53 -101.7 L13.64 -100.7 L13.66 -99.59 L13.6 -98.53 L13.45 -97.47 L13.23 -96.43 L12.91 -95.42 L12.52 -94.43 L12.05 -93.47 L11.51 -92.56 L10.9 -91.69 L10.22 -90.87 L9.474 -90.11 L8.673 -89.41 L7.818 -88.78 L6.916 -88.21 L5.972 -87.72 L4.992 -87.31 L3.982 -86.98 L2.949 -86.72 L1.899 -86.55 L0.8384 -86.47 L-0.2253 -86.47 L-1.286 -86.55 L-2.336 -86.72 L-3.37 -86.97 L-4.381 -87.3 L-5.363 -87.71 L-6.308 -88.19 L-7.212 -88.76 L-8.069 -89.39 L-8.872 -90.08 L-9.618 -90.84 L-10.3 -91.66 L-10.92 -92.52 L-11.46 -93.44 L-11.93 -94.39 L-12.33 -95.38 L-12.64 -96.4 L-12.87 -97.43 L-13.02 -98.49 L-13.09 -99.55 L-13.07 -100.6 L-12.97 -101.7 L-12.78 -102.7 L-12.51 -103.7 L-12.16 -104.8 L-11.73 -105.7 L-11.22 -106.7 L-10.64 -107.6 L-9.994 -108.4 L-9.281 -109.2 L-8.508 -109.9 L-7.679 -110.6 L-6.8 -111.2 L-5.876 -111.7 L-4.913 -112.2 L-3.918 -112.5 L-2.895 -112.8 L-1.853 -113 L-0.7968 -113.2 L0.266 -113.2 L1.329 -113.2 L2.385 -113 Z " />
<path stroke="rgb(0,0,0)" stroke-opacity="1" fill="rgb(255,255,255)" fill-opacity="1" d="M-12.36 -212.3 L-11.37 -212.3 L-10.37 -212.3 L-9.37 -212.3 L-8.372 -212.3 L-7.375 -212.3 L-6.377 -212.3 L-5.379 -212.3 L-4.381 -212.3 L-3.383 -212.3 L-2.385 -212.3 L-1.388 -212.3 L-0.3897 -212.3 L0.6081 -212.3 L1.606 -212.3 L2.604 -212.3 L3.602 -212.3 L4.599 -212.3 L5.597 -212.3 L6.595 -212.3 L7.593 -212.3 L8.591 -212.4 L9.589 -212.4 L10.59 -212.4 L11.58 -212.4 L12.58 -212.4 L12.59 -211.4 L12.59 -210.4 L12.59 -209.4 L12.59 -208.4 L12.6 -207.4 L12.6 -206.4 L12.6 -205.4 L12.61 -204.4 L12.61 -203.4 L12.61 -202.4 L12.61 -201.4 L12.62 -200.4 L12.62 -199.4 L12.62 -198.4 L12.63 -197.4 L12.63 -196.4 L12.63 -195.4 L12.64 -194.4 L12.64 -193.4 L12.64 -192.4 L12.64 -191.4 L12.65 -190.4 L12.65 -189.4 L12.65 -188.4 L12.66 -187.4 L11.66 -187.4 L10.66 -187.4 L9.663 -187.4 L8.665 -187.4 L7.667 -187.4 L6.669 -187.4 L5.672 -187.4 L4.674 -187.4 L3.676 -187.4 L2.678 -187.4 L1.68 -187.4 L0.6824 -187.4 L-0.3155 -187.4 L-1.313 -187.4 L-2.311 -187.4 L-3.309 -187.4 L-4.307 -187.4 L-5.305 -187.4 L-6.303 -187.4 L-7.3 -187.4 L-8.298 -187.4 L-9.296 -187.4 L-10.29 -187.4 L-11.29 -187.3 L-12.29 -187.3 L-12.29 -188.3 L-12.3 -189.3 L-12.3 -190.3 L-12.3 -191.3 L-12.3 -192.3 L-12.31 -193.3 L-12.31 -194.3 L-12.31 -195.3 L-12.32 -196.3 L-12.32 -197.3 L-12.32 -198.3 L-12.33 -199.3 L-12.33 -200.3 L-12.33 -201.3 L-12.33 -202.3 L-12.34 -203.3 L-12.34 -204.3 L-12.34 -205.3 L-12.35 -206.3 L-12.35 -207.3 L-12.35 -208.3 L-12.35 -209.3 L-12.36 -210.3 L-12.36 -211.3 L-12.36 -212.3 Z " />
<path stroke="rgb(0,0,0)" stroke-opacity="1" fill="rgb(255,255,255)" fill-opacity="1" d="M200.3 -112.3 L201.3 -112.3 L202.3 -112.2 L203.3 -112 L204.2 -111.7 L205.2 -111.4 L206.1 -110.9 L206.9 -110.4 L207.8 -109.9 L208.5 -109.3 L209.3 -108.6 L209.9 -107.8 L210.5 -107 L211.1 -106.2 L211.5 -105.3 L211.9 -104.4 L212.3 -103.5 L212.5 -102.5 L212.7 -101.6 L212.8 -100.6 L212.8 -99.57 L212.7 -98.58 L212.6 -97.6 L212.4 -96.63 L212.1 -95.68 L211.7 -94.75 L211.3 -93.86 L210.8 -93.01 L210.2 -92.2 L209.6 -91.44 L208.9 -90.73 L208.1 -90.08 L207.3 -89.49 L206.5 -88.97 L205.6 -88.52 L204.7 -88.13 L203.7 -87.83 L202.8 -87.59 L201.8 -87.44 L200.8 -87.36 L199.8 -87.36 L198.8 -87.44 L197.8 -87.6 L196.9 -87.84 L195.9 -88.15 L195 -88.54 L194.1 -89 L193.3 -89.52 L192.5 -90.11 L191.7 -90.77 L191 -91.48 L190.4 -92.24 L189.8 -93.05 L189.3 -93.91 L188.9 -94.8 L188.5 -95.72 L188.2 -96.67 L188 -97.64 L187.9 -98.63 L187.8 -99.62 L187.8 -100.6 L187.9 -101.6 L188.1 -102.6 L188.4 -103.5 L188.7 -104.5 L189.1 -105.4 L189.6 -106.3 L190.1 -107.1 L190.7 -107.9 L191.4 -108.6 L192.1 -109.3 L192.9 -109.9 L193.7 -110.5 L194.6 -111 L195.5 -111.4 L196.4 -111.7 L197.4 -112 L198.4 -112.2 L199.3 -112.3 L200.3 -112.3 Z " />
<path stroke="rgb(0,0,0)" stroke-opacity="1" fill="rgb(255,255,255)" fill-opacity="1" d="M189.7 -209.2 L190.7 -209.2 L191.7 -209.3 L192.7 -209.3 L193.7 -209.3 L194.7 -209.4 L195.7 -209.4 L196.7 -209.5 L197.7 -209.5 L198.7 -209.6 L199.7 -209.6 L200.7 -209.7 L201.7 -209.7 L202.7 -209.7 L203.7 -209.8 L204.7 -209.8 L205.7 -209.9 L206.7 -209.9 L207.7 -210 L208.7 -210 L209.7 -210 L210.7 -210.1 L211.7 -210.1 L212.7 -210.2 L213.7 -210.2 L214.7 -210.3 L214.7 -209.3 L214.8 -208.3 L214.8 -207.3 L214.8 -206.3 L214.9 -205.3 L214.9 -204.3 L215 -203.3 L215 -202.3 L215.1 -201.3 L215.1 -200.3 L215.2 -199.3 L215.2 -198.3 L215.2 -197.3 L215.3 -196.3 L215.3 -195.3 L215.4 -194.3 L215.4 -193.3 L215.5 -192.3 L215.5 -191.3 L215.5 -190.3 L215.6 -189.3 L215.6 -188.3 L215.7 -187.3 L215.7 -186.3 L215.8 -185.3 L214.8 -185.3 L213.8 -185.3 L212.8 -185.2 L211.8 -185.2 L210.8 -185.1 L209.8 -185.1 L208.8 -185 L207.8 -185 L206.8 -184.9 L205.8 -184.9 L204.8 -184.9 L203.8 -184.8 L202.8 -184.8 L201.8 -184.7 L200.8 -184.7 L199.8 -184.6 L198.8 -184.6 L197.8 -184.6 L196.8 -184.5 L195.8 -184.5 L194.8 -184.4 L193.8 -184.4 L192.8 -184.3 L191.8 -184.3 L190.8 -184.2 L190.8 -185.2 L190.8 -186.2 L190.7 -187.2 L190.7 -188.2 L190.6 -189.2 L190.6 -190.2 L190.5 -191.2 L190.5 -192.2 L190.4 -193.2 L190.4 -194.2 L190.4 -195.2 L190.3 -196.2 L190.3 -197.2 L190.2 -198.2 L190.2 -199.2 L190.1 -200.2 L190.1 -201.2 L190.1 -202.2 L190 -203.2 L190 -204.2 L189.9 -205.2 L189.9 -206.2 L189.8 -207.2 L189.8 -208.2 L189.7 -209.2 Z " />
<path stroke="rgb(0,0,0)" stroke-opacity="1" fill="rgb(255,255,255)" fill-opacity="1" d="M-284.1 -10.7 L-283.3 -9.416 L-282.6 -8.07 L-282 -6.672 L-281.5 -5.232 L-281.2 -3.757 L-280.9 -2.258 L-280.8 -0.7436 L-280.8 0.7763 L-280.9 2.292 L-281.1 3.794 L-281.5 5.274 L-281.9 6.72 L-282.5 8.125 L-283.2 9.48 L-284 10.77 L-284.9 12 L-285.9 13.16 L-287 14.23 L-288.1 15.21 L-289.4 16.1 L-290.7 16.88 L-292 17.56 L-293.4 18.13 L-294.9 18.59 L-296.4 18.92 L-297.9 19.14 L-299.4 19.24 L-300.9 19.22 L-302.4 19.08 L-303.9 18.82 L-305.4 18.44 L-306.8 17.95 L-308.2 17.34 L-309.6 16.62 L-310.8 15.8 L-312 14.88 L-313.2 13.87 L-314.2 12.77 L-315.2 11.59 L-316 10.34 L-316.8 9.021 L-317.5 7.648 L-318 6.228 L-318.4 4.769 L-318.7 3.281 L-318.9 1.773 L-319 0.2546 L-318.9 -1.264 L-318.8 -2.775 L-318.5 -4.267 L-318.1 -5.731 L-317.6 -7.157 L-316.9 -8.538 L-316.2 -9.864 L-315.3 -11.13 L-314.4 -12.32 L-313.4 -13.43 L-312.2 -14.46 L-311 -15.39 L-309.8 -16.23 L-308.4 -16.96 L-307 -17.59 L-305.6 -18.1 L-304.1 -18.5 L-302.7 -18.78 L-301.1 -18.94 L-299.6 -18.98 L-298.1 -18.9 L-296.6 -18.7 L-295.1 -18.38 L-293.7 -17.94 L-292.2 -17.39 L-290.9 -16.72 L-289.6 -15.95 L-288.3 -15.08 L-287.1 -14.12 L-286.1 -13.06 L-285 -11.92 L-284.1 -10.7 Z " />
<path stroke="rgb(0,0,0)" stroke-opacity="1" fill="rgb(255,255,255)" fill-opacity="1" d="M-312.6 -112.6 L-311.6 -112.6 L-310.6 -112.6 L-309.6 -112.6 L-308.6 -112.6 L-307.6 -112.6 L-306.6 -112.6 L-305.6 -112.6 L-304.6 -112.6 L-303.6 -112.6 L-302.6 -112.6 L-301.6 -112.6 L-300.6 -112.6 L-299.6 -112.6 L-298.6 -112.6 L-297.6 -112.6 L-296.6 -112.6 L-295.6 -112.6 L-294.6 -112.6 L-293.6 -112.6 L-292.6 -112.6 L-291.6 -112.6 L-290.6 -112.6 L-289.6 -112.6 L-288.6 -112.6 L-287.6 -112.6 L-287.6 -111.6 L-287.6 -110.6 L-287.6 -109.6 L-287.6 -108.6 L-287.6 -107.6 L-287.6 -106.6 L-287.6 -105.6 L-287.6 -104.6 L-287.6 -103.6 L-287.6 -102.6 L-287.6 -101.6 L-287.6 -100.6 L-287.6 -99.61 L-287.7 -98.61 L-287.7 -97.61 L-287.7 -96.61 L-287.7 -95.62 L-287.7 -94.62 L-287.7 -93.62 L-287.7 -92.62 L-287.7 -91.62 L-287.7 -90.63 L-287.7 -89.63 L-287.7 -88.63 L-287.7 -87.63 L-288.7 -87.63 L-289.7 -87.64 L-290.7 -87.64 L-291.7 -87.64 L-292.7 -87.64 L-293.7 -87.64 L-294.6 -87.64 L-295.6 -87.64 L-296.6 -87.64 L-297.6 -87.65 L-298.6 -87.65 L-299.6 -87.65 L-300.6 -87.65 L-301.6 -87.65 L-302.6 -87.65 L-303.6 -87.65 L-304.6 -87.65 L-305.6 -87.66 L-306.6 -87.66 L-307.6 -87.66 L-308.6 -87.66 L-309.6 -87.66 L-310.6 -87.66 L-311.6 -87.66 L-312.6 -87.66 L-312.6 -88.66 L-312.6 -89.66 L-312.6 -90.66 L-312.6 -91.66 L-312.6 -92.65 L-312.6 -93.65 L-312.6 -94.65 L-312.6 -95.65 L-312.6 -96.64 L-312.6 -97.64 L-312.6 -98.64 L-312.6 -99.64 L-312.6 -100.6 L-312.6 -101.6 L-312.6 -102.6 L-312.6 -103.6 L-312.6 -104.6 L-312.6 -105.6 L-312.6 -106.6 L-312.6 -107.6 L-312.6 -108.6 L-312.6 -109.6 L-312.6 -110.6 L-312.6 -111.6 L-312.6 -112.6 Z " />
<path stroke="rgb(0,0,0)" stroke-opacity="1" fill="rgb(255,255,255)" fill-opacity="1" d="M-97.61 -13.05 L-96.57 -12.84 L-95.55 -12.55 L-94.55 -12.18 L-93.59 -11.73 L-92.66 -11.2 L-91.78 -10.61 L-90.95 -9.943 L-90.17 -9.215 L-89.46 -8.427 L-88.81 -7.585 L-88.23 -6.694 L-87.72 -5.76 L-87.29 -4.788 L-86.93 -3.785 L-86.66 -2.757 L-86.47 -1.711 L-86.36 -0.6526 L-86.34 0.4109 L-86.4 1.473 L-86.55 2.526 L-86.77 3.565 L-87.09 4.582 L-87.48 5.572 L-87.95 6.527 L-88.49 7.442 L-89.1 8.311 L-89.78 9.128 L-90.53 9.889 L-91.33 10.59 L-92.18 11.22 L-93.08 11.79 L-94.03 12.28 L-95.01 12.69 L-96.02 13.02 L-97.05 13.28 L-98.1 13.45 L-99.16 13.53 L-100.2 13.53 L-101.3 13.45 L-102.3 13.28 L-103.4 13.03 L-104.4 12.7 L-105.4 12.29 L-106.3 11.81 L-107.2 11.24 L-108.1 10.61 L-108.9 9.917 L-109.6 9.158 L-110.3 8.343 L-110.9 7.476 L-111.5 6.563 L-111.9 5.609 L-112.3 4.621 L-112.6 3.604 L-112.9 2.566 L-113 1.513 L-113.1 0.4514 L-113.1 -0.6121 L-113 -1.671 L-112.8 -2.718 L-112.5 -3.747 L-112.2 -4.751 L-111.7 -5.724 L-111.2 -6.659 L-110.6 -7.552 L-110 -8.396 L-109.3 -9.186 L-108.5 -9.916 L-107.7 -10.58 L-106.8 -11.18 L-105.9 -11.71 L-104.9 -12.16 L-103.9 -12.54 L-102.9 -12.83 L-101.9 -13.04 L-100.8 -13.17 L-99.73 -13.21 L-98.67 -13.17 L-97.61 -13.05 Z " />
<path stroke="rgb(0,0,0)" stroke-opacity="1" fill="rgb(255,255,255)" fill-opacity="1" d="M-112.4 -112.3 L-111.4 -112.3 L-110.4 -112.3 L-109.4 -112.3 L-108.4 -112.3 L-107.4 -112.3 L-106.4 -112.3 L-105.4 -112.3 L-104.4 -112.3 L-103.4 -112.3 L-102.4 -112.3 L-101.4 -112.3 L-100.4 -112.3 L-99.39 -112.3 L-98.39 -112.3 L-97.4 -112.3 L-96.4 -112.3 L-95.4 -112.3 L-94.4 -112.3 L-93.4 -112.3 L-92.41 -112.3 L-91.41 -112.4 L-90.41 -112.4 L-89.41 -112.4 L-88.42 -112.4 L-87.42 -112.4 L-87.41 -111.4 L-87.41 -110.4 L-87.41 -109.4 L-87.41 -108.4 L-87.4 -107.4 L-87.4 -106.4 L-87.4 -105.4 L-87.39 -104.4 L-87.39 -103.4 L-87.39 -102.4 L-87.39 -101.4 L-87.38 -100.4 L-87.38 -99.39 L-87.38 -98.39 L-87.37 -97.4 L-87.37 -96.4 L-87.37 -95.4 L-87.36 -94.4 L-87.36 -93.41 L-87.36 -92.41 L-87.36 -91.41 L-87.35 -90.41 L-87.35 -89.41 L-87.35 -88.42 L-87.34 -87.42 L-88.34 -87.42 L-89.34 -87.41 L-90.34 -87.41 L-91.33 -87.41 L-92.33 -87.4 L-93.33 -87.4 L-94.33 -87.4 L-95.33 -87.39 L-96.32 -87.39 L-97.32 -87.39 L-98.32 -87.39 L-99.32 -87.38 L-100.3 -87.38 L-101.3 -87.38 L-102.3 -87.37 L-103.3 -87.37 L-104.3 -87.37 L-105.3 -87.37 L-106.3 -87.36 L-107.3 -87.36 L-108.3 -87.36 L-109.3 -87.35 L-110.3 -87.35 L-111.3 -87.35 L-112.3 -87.34 L-112.3 -88.34 L-112.3 -89.34 L-112.3 -90.34 L-112.3 -91.34 L-112.3 -92.33 L-112.3 -93.33 L-112.3 -94.33 L-112.3 -95.33 L-112.3 -96.32 L-112.3 -97.32 L-112.3 -98.32 L-112.3 -99.32 L-112.3 -100.3 L-112.3 -101.3 L-112.3 -102.3 L-112.3 -103.3 L-112.3 -104.3 L-112.3 -105.3 L-112.3 -106.3 L-112.3 -107.3 L-112.4 -108.3 L-112.4 -109.3 L-112.4 -110.3 L-112.4 -111.3 L-112.4 -112.3 Z " />
<path stroke="rgb(0,0,0)" stroke-opacity="1" fill="rgb(255,255,255)" fill-opacity="1" d="M100.3 -12.34 L101.3 -12.29 L102.3 -12.17 L103.3 -11.98 L104.2 -11.7 L105.2 -11.35 L106.1 -10.93 L106.9 -10.44 L107.8 -9.877 L108.5 -9.254 L109.3 -8.571 L109.9 -7.834 L110.5 -7.045 L111.1 -6.211 L111.5 -5.337 L111.9 -4.429 L112.3 -3.491 L112.5 -2.53 L112.7 -1.552 L112.8 -0.5636 L112.8 0.4295 L112.7 1.421 L112.6 2.404 L112.4 3.374 L112.1 4.322 L111.7 5.245 L111.3 6.135 L110.8 6.988 L110.2 7.797 L109.6 8.558 L108.9 9.266 L108.1 9.917 L107.3 10.51 L106.5 11.03 L105.6 11.48 L104.7 11.87 L103.7 12.17 L102.8 12.41 L101.8 12.56 L100.8 12.64 L99.79 12.64 L98.8 12.56 L97.82 12.4 L96.86 12.16 L95.91 11.85 L95 11.46 L94.12 11 L93.27 10.48 L92.48 9.885 L91.73 9.232 L91.03 8.521 L90.4 7.758 L89.83 6.946 L89.32 6.091 L88.88 5.199 L88.52 4.275 L88.23 3.325 L88.01 2.355 L87.88 1.371 L87.82 0.3795 L87.84 -0.6135 L87.94 -1.602 L88.12 -2.579 L88.38 -3.539 L88.71 -4.475 L89.11 -5.382 L89.59 -6.254 L90.13 -7.086 L90.74 -7.872 L91.41 -8.607 L92.13 -9.287 L92.91 -9.907 L93.73 -10.46 L94.6 -10.95 L95.5 -11.37 L96.43 -11.72 L97.38 -11.99 L98.36 -12.18 L99.34 -12.3 L100.3 -12.34 Z " />
<path stroke="rgb(0,0,0)" stroke-opacity="1" fill="rgb(255,255,255)" fill-opacity="1" d="M89.75 -109.2 L90.74 -109.2 L91.74 -109.3 L92.74 -109.3 L93.74 -109.3 L94.73 -109.4 L95.73 -109.4 L96.73 -109.5 L97.72 -109.5 L98.72 -109.6 L99.72 -109.6 L100.7 -109.7 L101.7 -109.7 L102.7 -109.7 L103.7 -109.8 L104.7 -109.8 L105.7 -109.9 L106.7 -109.9 L107.7 -110 L108.7 -110 L109.7 -110 L110.7 -110.1 L111.7 -110.1 L112.7 -110.2 L113.7 -110.2 L114.7 -110.3 L114.7 -109.3 L114.8 -108.3 L114.8 -107.3 L114.8 -106.3 L114.9 -105.3 L114.9 -104.3 L115 -103.3 L115 -102.3 L115.1 -101.3 L115.1 -100.3 L115.2 -99.3 L115.2 -98.3 L115.2 -97.3 L115.3 -96.31 L115.3 -95.31 L115.4 -94.31 L115.4 -93.32 L115.5 -92.32 L115.5 -91.32 L115.5 -90.33 L115.6 -89.33 L115.6 -88.33 L115.7 -87.33 L115.7 -86.34 L115.8 -85.34 L114.8 -85.3 L113.8 -85.25 L112.8 -85.21 L111.8 -85.17 L110.8 -85.12 L109.8 -85.08 L108.8 -85.03 L107.8 -84.99 L106.8 -84.95 L105.8 -84.9 L104.8 -84.86 L103.8 -84.82 L102.8 -84.77 L101.8 -84.73 L100.8 -84.68 L99.81 -84.64 L98.82 -84.6 L97.82 -84.55 L96.82 -84.51 L95.83 -84.46 L94.83 -84.42 L93.83 -84.38 L92.84 -84.33 L91.84 -84.29 L90.84 -84.25 L90.8 -85.24 L90.75 -86.24 L90.71 -87.24 L90.67 -88.23 L90.62 -89.23 L90.58 -90.23 L90.54 -91.22 L90.49 -92.22 L90.45 -93.22 L90.4 -94.22 L90.36 -95.21 L90.32 -96.21 L90.27 -97.21 L90.23 -98.2 L90.19 -99.2 L90.14 -100.2 L90.1 -101.2 L90.05 -102.2 L90.01 -103.2 L89.97 -104.2 L89.92 -105.2 L89.88 -106.2 L89.83 -107.2 L89.79 -108.2 L89.75 -109.2 Z " />
<path stroke="rgb(0,0,0)" stroke-opacity="1" fill="rgb(255,255,255)" fill-opacity="1" d="M300.3 -12.33 L301.3 -12.29 L302.3 -12.17 L303.3 -11.98 L304.2 -11.7 L305.2 -11.35 L306.1 -10.93 L306.9 -10.44 L307.7 -9.878 L308.5 -9.256 L309.2 -8.574 L309.9 -7.836 L310.5 -7.048 L311.1 -6.215 L311.5 -5.341 L311.9 -4.433 L312.3 -3.496 L312.5 -2.535 L312.7 -1.558 L312.8 -0.5692 L312.8 0.4238 L312.7 1.415 L312.6 2.398 L312.4 3.367 L312.1 4.316 L311.7 5.239 L311.3 6.129 L310.8 6.982 L310.2 7.791 L309.6 8.552 L308.9 9.261 L308.1 9.911 L307.3 10.5 L306.5 11.02 L305.6 11.48 L304.7 11.86 L303.7 12.17 L302.8 12.4 L301.8 12.56 L300.8 12.64 L299.8 12.64 L298.8 12.56 L297.8 12.4 L296.9 12.16 L295.9 11.85 L295 11.46 L294.1 11 L293.3 10.48 L292.5 9.887 L291.7 9.234 L291 8.524 L290.4 7.761 L289.8 6.949 L289.3 6.095 L288.9 5.203 L288.5 4.28 L288.2 3.33 L288 2.36 L287.9 1.377 L287.8 0.3851 L287.8 -0.6077 L287.9 -1.596 L288.1 -2.573 L288.4 -3.533 L288.7 -4.469 L289.1 -5.376 L289.6 -6.248 L290.1 -7.08 L290.7 -7.866 L291.4 -8.601 L292.1 -9.281 L292.9 -9.901 L293.7 -10.46 L294.6 -10.95 L295.5 -11.37 L296.4 -11.71 L297.4 -11.98 L298.4 -12.18 L299.3 -12.3 L300.3 -12.33 Z " />
<path stroke="rgb(0,0,0)" stroke-opacity="1" fill="rgb(255,255,255)" fill-opacity="1" d="M-412.6 -12.61 L-411.6 -12.61 L-410.6 -12.61 L-409.6 -12.61 L-408.6 -12.61 L-407.6 -12.6 L-406.6 -12.6 L-405.6 -12.6 L-404.6 -12.6 L-403.6 -12.6 L-402.6 -12.6 L-401.6 -12.6 L-400.6 -12.6 L-399.6 -12.59 L-398.6 -12.59 L-397.6 -12.59 L-396.6 -12.59 L-395.6 -12.59 L-394.6 -12.59 L-393.6 -12.59 L-392.6 -12.59 L-391.6 -12.58 L-390.6 -12.58 L-389.6 -12.58 L-388.6 -12.58 L-387.6 -12.58 L-387.6 -11.58 L-387.6 -10.58 L-387.6 -9.586 L-387.6 -8.588 L-387.6 -7.59 L-387.6 -6.592 L-387.6 -5.594 L-387.6 -4.597 L-387.6 -3.599 L-387.6 -2.601 L-387.6 -1.603 L-387.6 -0.6053 L-387.6 0.3926 L-387.7 1.39 L-387.7 2.388 L-387.7 3.386 L-387.7 4.384 L-387.7 5.382 L-387.7 6.38 L-387.7 7.377 L-387.7 8.375 L-387.7 9.373 L-387.7 10.37 L-387.7 11.37 L-387.7 12.37 L-388.7 12.37 L-389.7 12.36 L-390.7 12.36 L-391.7 12.36 L-392.7 12.36 L-393.7 12.36 L-394.6 12.36 L-395.6 12.36 L-396.6 12.36 L-397.6 12.35 L-398.6 12.35 L-399.6 12.35 L-400.6 12.35 L-401.6 12.35 L-402.6 12.35 L-403.6 12.35 L-404.6 12.35 L-405.6 12.34 L-406.6 12.34 L-407.6 12.34 L-408.6 12.34 L-409.6 12.34 L-410.6 12.34 L-411.6 12.34 L-412.6 12.34 L-412.6 11.34 L-412.6 10.34 L-412.6 9.342 L-412.6 8.345 L-412.6 7.347 L-412.6 6.349 L-412.6 5.351 L-412.6 4.353 L-412.6 3.355 L-412.6 2.358 L-412.6 1.36 L-412.6 0.3618 L-412.6 -0.636 L-412.6 -1.634 L-412.6 -2.632 L-412.6 -3.63 L-412.6 -4.627 L-412.6 -5.625 L-412.6 -6.623 L-412.6 -7.621 L-412.6 -8.619 L-412.6 -9.617 L-412.6 -10.61 L-412.6 -11.61 L-412.6 -12.61 Z " />
<path stroke="rgb(0,0,0)" stroke-opacity="1" fill="rgb(255,255,255)" fill-opacity="1" d="M-197.6 86.95 L-196.6 87.16 L-195.5 87.45 L-194.6 87.82 L-193.6 88.27 L-192.7 88.8 L-191.8 89.39 L-190.9 90.06 L-190.2 90.79 L-189.5 91.57 L-188.8 92.41 L-188.2 93.31 L-187.7 94.24 L-187.3 95.21 L-186.9 96.21 L-186.7 97.24 L-186.5 98.29 L-186.4 99.35 L-186.3 100.4 L-186.4 101.5 L-186.5 102.5 L-186.8 103.6 L-187.1 104.6 L-187.5 105.6 L-187.9 106.5 L-188.5 107.4 L-189.1 108.3 L-189.8 109.1 L-190.5 109.9 L-191.3 110.6 L-192.2 111.2 L-193.1 111.8 L-194 112.3 L-195 112.7 L-196 113 L-197.1 113.3 L-198.1 113.4 L-199.2 113.5 L-200.2 113.5 L-201.3 113.5 L-202.3 113.3 L-203.4 113 L-204.4 112.7 L-205.4 112.3 L-206.3 111.8 L-207.2 111.2 L-208.1 110.6 L-208.9 109.9 L-209.6 109.2 L-210.3 108.3 L-210.9 107.5 L-211.5 106.6 L-211.9 105.6 L-212.3 104.6 L-212.6 103.6 L-212.9 102.6 L-213 101.5 L-213.1 100.5 L-213.1 99.39 L-213 98.33 L-212.8 97.28 L-212.5 96.25 L-212.2 95.25 L-211.7 94.28 L-211.2 93.34 L-210.6 92.45 L-210 91.6 L-209.3 90.81 L-208.5 90.08 L-207.7 89.42 L-206.8 88.82 L-205.9 88.29 L-204.9 87.84 L-203.9 87.46 L-202.9 87.17 L-201.9 86.96 L-200.8 86.83 L-199.7 86.79 L-198.7 86.83 L-197.6 86.95 Z " />
<path stroke="rgb(0,0,0)" stroke-opacity="1" fill="rgb(255,255,255)" fill-opacity="1" d="M-212.4 -12.29 L-211.4 -12.29 L-210.4 -12.3 L-209.4 -12.3 L-208.4 -12.3 L-207.4 -12.31 L-206.4 -12.31 L-205.4 -12.31 L-204.4 -12.31 L-203.4 -12.32 L-202.4 -12.32 L-201.4 -12.32 L-200.4 -12.33 L-199.4 -12.33 L-198.4 -12.33 L-197.4 -12.33 L-196.4 -12.34 L-195.4 -12.34 L-194.4 -12.34 L-193.4 -12.35 L-192.4 -12.35 L-191.4 -12.35 L-190.4 -12.36 L-189.4 -12.36 L-188.4 -12.36 L-187.4 -12.36 L-187.4 -11.37 L-187.4 -10.37 L-187.4 -9.371 L-187.4 -8.373 L-187.4 -7.375 L-187.4 -6.377 L-187.4 -5.38 L-187.4 -4.382 L-187.4 -3.384 L-187.4 -2.386 L-187.4 -1.388 L-187.4 -0.3904 L-187.4 0.6074 L-187.4 1.605 L-187.4 2.603 L-187.4 3.601 L-187.4 4.599 L-187.4 5.597 L-187.4 6.594 L-187.4 7.592 L-187.4 8.59 L-187.4 9.588 L-187.3 10.59 L-187.3 11.58 L-187.3 12.58 L-188.3 12.58 L-189.3 12.59 L-190.3 12.59 L-191.3 12.59 L-192.3 12.6 L-193.3 12.6 L-194.3 12.6 L-195.3 12.61 L-196.3 12.61 L-197.3 12.61 L-198.3 12.61 L-199.3 12.62 L-200.3 12.62 L-201.3 12.62 L-202.3 12.63 L-203.3 12.63 L-204.3 12.63 L-205.3 12.63 L-206.3 12.64 L-207.3 12.64 L-208.3 12.64 L-209.3 12.65 L-210.3 12.65 L-211.3 12.65 L-212.3 12.66 L-212.3 11.66 L-212.3 10.66 L-212.3 9.662 L-212.3 8.664 L-212.3 7.666 L-212.3 6.669 L-212.3 5.671 L-212.3 4.673 L-212.3 3.675 L-212.3 2.677 L-212.3 1.679 L-212.3 0.6816 L-212.3 -0.3162 L-212.3 -1.314 L-212.3 -2.312 L-212.3 -3.31 L-212.3 -4.308 L-212.3 -5.305 L-212.3 -6.303 L-212.3 -7.301 L-212.4 -8.299 L-212.4 -9.297 L-212.4 -10.29 L-212.4 -11.29 L-212.4 -12.29 Z " />
<path stroke="rgb(0,0,0)" stroke-opacity="1" fill="rgb(255,255,255)" fill-opacity="1" d="M0.3372 87.66 L1.33 87.71 L2.316 87.83 L3.289 88.02 L4.244 88.3 L5.173 88.65 L6.072 89.07 L6.935 89.56 L7.755 90.12 L8.529 90.75 L9.251 91.43 L9.916 92.17 L10.52 92.95 L11.06 93.79 L11.53 94.66 L11.93 95.57 L12.26 96.51 L12.51 97.47 L12.69 98.45 L12.78 99.44 L12.8 100.4 L12.74 101.4 L12.6 102.4 L12.38 103.4 L12.09 104.3 L11.72 105.2 L11.28 106.1 L10.77 107 L10.2 107.8 L9.557 108.6 L8.86 109.3 L8.109 109.9 L7.309 110.5 L6.465 111 L5.582 111.5 L4.665 111.9 L3.721 112.2 L2.755 112.4 L1.774 112.6 L0.7839 112.6 L-0.2095 112.6 L-1.199 112.6 L-2.18 112.4 L-3.145 112.2 L-4.087 111.8 L-5.003 111.5 L-5.884 111 L-6.726 110.5 L-7.524 109.9 L-8.272 109.2 L-8.966 108.5 L-9.601 107.8 L-10.17 106.9 L-10.68 106.1 L-11.12 105.2 L-11.48 104.3 L-11.77 103.3 L-11.99 102.4 L-12.12 101.4 L-12.18 100.4 L-12.16 99.39 L-12.06 98.4 L-11.88 97.42 L-11.62 96.46 L-11.29 95.52 L-10.89 94.62 L-10.41 93.75 L-9.867 92.91 L-9.259 92.13 L-8.591 91.39 L-7.867 90.71 L-7.091 90.09 L-6.268 89.54 L-5.403 89.05 L-4.503 88.63 L-3.572 88.28 L-2.616 88.01 L-1.642 87.82 L-0.6554 87.7 L0.3372 87.66 Z " />
<path stroke="rgb(0,0,0)" stroke-opacity="1" fill="rgb(255,255,255)" fill-opacity="1" d="M-10.25 -9.169 L-9.256 -9.213 L-8.259 -9.256 L-7.262 -9.3 L-6.265 -9.344 L-5.268 -9.388 L-4.271 -9.432 L-3.274 -9.475 L-2.277 -9.519 L-1.28 -9.563 L-0.2835 -9.607 L0.7134 -9.65 L1.71 -9.694 L2.707 -9.738 L3.704 -9.782 L4.701 -9.826 L5.698 -9.869 L6.695 -9.913 L7.692 -9.957 L8.689 -10 L9.686 -10.04 L10.68 -10.09 L11.68 -10.13 L12.68 -10.18 L13.67 -10.22 L14.67 -10.26 L14.71 -9.267 L14.76 -8.27 L14.8 -7.273 L14.85 -6.276 L14.89 -5.279 L14.93 -4.282 L14.98 -3.285 L15.02 -2.288 L15.06 -1.291 L15.11 -0.2943 L15.15 0.7026 L15.2 1.7 L15.24 2.696 L15.28 3.693 L15.33 4.69 L15.37 5.687 L15.41 6.684 L15.46 7.681 L15.5 8.678 L15.55 9.675 L15.59 10.67 L15.63 11.67 L15.68 12.67 L15.72 13.66 L15.76 14.66 L14.77 14.7 L13.77 14.75 L12.77 14.79 L11.78 14.83 L10.78 14.88 L9.783 14.92 L8.786 14.97 L7.79 15.01 L6.793 15.05 L5.796 15.1 L4.799 15.14 L3.802 15.18 L2.805 15.23 L1.808 15.27 L0.8111 15.32 L-0.1858 15.36 L-1.183 15.4 L-2.18 15.45 L-3.177 15.49 L-4.173 15.54 L-5.17 15.58 L-6.167 15.62 L-7.164 15.67 L-8.161 15.71 L-9.158 15.75 L-9.202 14.76 L-9.246 13.76 L-9.289 12.76 L-9.333 11.77 L-9.377 10.77 L-9.421 9.773 L-9.465 8.776 L-9.508 7.779 L-9.552 6.782 L-9.596 5.785 L-9.64 4.788 L-9.683 3.791 L-9.727 2.794 L-9.771 1.797 L-9.815 0.8003 L-9.859 -0.1966 L-9.902 -1.194 L-9.946 -2.19 L-9.99 -3.187 L-10.03 -4.184 L-10.08 -5.181 L-10.12 -6.178 L-10.17 -7.175 L-10.21 -8.172 L-10.25 -9.169 Z " />
<path stroke="rgb(0,0,0)" stroke-opacity="1" fill="rgb(255,255,255)" fill-opacity="1" d="M200.3 87.67 L201.3 87.71 L202.3 87.83 L203.3 88.02 L204.2 88.3 L205.2 88.65 L206.1 89.07 L206.9 89.56 L207.7 90.12 L208.5 90.74 L209.2 91.43 L209.9 92.16 L210.5 92.95 L211.1 93.78 L211.5 94.66 L211.9 95.57 L212.3 96.5 L212.5 97.46 L212.7 98.44 L212.8 99.43 L212.8 100.4 L212.7 101.4 L212.6 102.4 L212.4 103.4 L212.1 104.3 L211.7 105.2 L211.3 106.1 L210.8 107 L210.2 107.8 L209.6 108.6 L208.9 109.3 L208.1 109.9 L207.3 110.5 L206.5 111 L205.6 111.5 L204.7 111.9 L203.7 112.2 L202.8 112.4 L201.8 112.6 L200.8 112.6 L199.8 112.6 L198.8 112.6 L197.8 112.4 L196.9 112.2 L195.9 111.8 L195 111.5 L194.1 111 L193.3 110.5 L192.5 109.9 L191.7 109.2 L191 108.5 L190.4 107.8 L189.8 106.9 L189.3 106.1 L188.9 105.2 L188.5 104.3 L188.2 103.3 L188 102.4 L187.9 101.4 L187.8 100.4 L187.8 99.39 L187.9 98.4 L188.1 97.43 L188.4 96.47 L188.7 95.53 L189.1 94.62 L189.6 93.75 L190.1 92.92 L190.7 92.13 L191.4 91.4 L192.1 90.72 L192.9 90.1 L193.7 89.54 L194.6 89.05 L195.5 88.63 L196.4 88.29 L197.4 88.02 L198.4 87.82 L199.3 87.7 L200.3 87.67 Z " />
<path stroke="rgb(0,0,0)" stroke-opacity="1" fill="rgb(255,255,255)" fill-opacity="1" d="M196.1 0.2154 L197.1 0.05108 L198.1 -0.1133 L199.1 -0.2776 L200.1 -0.4419 L201.1 -0.6063 L202.1 -0.7706 L203 -0.9349 L204 -1.099 L205 -1.264 L206 -1.428 L207 -1.592 L208 -1.757 L208.9 -1.921 L209.9 -2.085 L210.9 -2.25 L211.9 -2.414 L212.9 -2.578 L213.9 -2.743 L214.9 -2.907 L215.8 -3.071 L216.8 -3.236 L217.8 -3.4 L218.8 -3.564 L219.8 -3.729 L220.8 -3.893 L220.9 -2.909 L221.1 -1.924 L221.2 -0.9399 L221.4 0.04447 L221.6 1.029 L221.7 2.013 L221.9 2.998 L222.1 3.982 L222.2 4.966 L222.4 5.951 L222.6 6.935 L222.7 7.919 L222.9 8.904 L223.1 9.888 L223.2 10.87 L223.4 11.86 L223.6 12.84 L223.7 13.83 L223.9 14.81 L224 15.79 L224.2 16.78 L224.4 17.76 L224.5 18.75 L224.7 19.73 L224.9 20.72 L223.9 20.88 L222.9 21.04 L221.9 21.21 L220.9 21.37 L219.9 21.54 L219 21.7 L218 21.87 L217 22.03 L216 22.19 L215 22.36 L214 22.52 L213.1 22.69 L212.1 22.85 L211.1 23.02 L210.1 23.18 L209.1 23.35 L208.1 23.51 L207.1 23.67 L206.2 23.84 L205.2 24 L204.2 24.17 L203.2 24.33 L202.2 24.5 L201.2 24.66 L200.3 24.82 L200.1 23.84 L199.9 22.86 L199.8 21.87 L199.6 20.89 L199.4 19.9 L199.3 18.92 L199.1 17.93 L198.9 16.95 L198.8 15.96 L198.6 14.98 L198.4 14 L198.3 13.01 L198.1 12.03 L198 11.04 L197.8 10.06 L197.6 9.075 L197.5 8.09 L197.3 7.106 L197.1 6.121 L197 5.137 L196.8 4.153 L196.6 3.168 L196.5 2.184 L196.3 1.2 L196.1 0.2154 Z " />
<path stroke="rgb(0,0,0)" stroke-opacity="1" fill="rgb(255,255,255)" fill-opacity="1" d="M-297.6 187 L-296.6 187.2 L-295.5 187.5 L-294.6 187.8 L-293.6 188.3 L-292.7 188.8 L-291.8 189.4 L-290.9 190.1 L-290.2 190.8 L-289.5 191.6 L-288.8 192.4 L-288.2 193.3 L-287.7 194.2 L-287.3 195.2 L-286.9 196.2 L-286.7 197.2 L-286.5 198.3 L-286.4 199.3 L-286.3 200.4 L-286.4 201.5 L-286.5 202.5 L-286.8 203.6 L-287.1 204.6 L-287.5 205.6 L-287.9 206.5 L-288.5 207.4 L-289.1 208.3 L-289.8 209.1 L-290.5 209.9 L-291.3 210.6 L-292.2 211.2 L-293.1 211.8 L-294 212.3 L-295 212.7 L-296 213 L-297.1 213.3 L-298.1 213.4 L-299.2 213.5 L-300.2 213.5 L-301.3 213.5 L-302.3 213.3 L-303.4 213 L-304.4 212.7 L-305.4 212.3 L-306.3 211.8 L-307.2 211.2 L-308.1 210.6 L-308.9 209.9 L-309.6 209.2 L-310.3 208.3 L-310.9 207.5 L-311.5 206.6 L-311.9 205.6 L-312.3 204.6 L-312.6 203.6 L-312.9 202.6 L-313 201.5 L-313.1 200.5 L-313.1 199.4 L-313 198.3 L-312.8 197.3 L-312.5 196.3 L-312.2 195.2 L-311.7 194.3 L-311.2 193.3 L-310.6 192.4 L-310 191.6 L-309.3 190.8 L-308.5 190.1 L-307.7 189.4 L-306.8 188.8 L-305.9 188.3 L-304.9 187.8 L-303.9 187.5 L-302.9 187.2 L-301.9 187 L-300.8 186.8 L-299.7 186.8 L-298.7 186.8 L-297.6 187 Z " />
<path stroke="rgb(0,0,0)" stroke-opacity="1" fill="rgb(255,255,255)" fill-opacity="1" d="M-312.4 87.71 L-311.4 87.71 L-310.4 87.7 L-309.4 87.7 L-308.4 87.7 L-307.4 87.69 L-306.4 87.69 L-305.4 87.69 L-304.4 87.69 L-303.4 87.68 L-302.4 87.68 L-301.4 87.68 L-300.4 87.67 L-299.4 87.67 L-298.4 87.67 L-297.4 87.67 L-296.4 87.66 L-295.4 87.66 L-294.4 87.66 L-293.4 87.65 L-292.4 87.65 L-291.4 87.65 L-290.4 87.64 L-289.4 87.64 L-288.4 87.64 L-287.4 87.64 L-287.4 88.63 L-287.4 89.63 L-287.4 90.63 L-287.4 91.63 L-287.4 92.62 L-287.4 93.62 L-287.4 94.62 L-287.4 95.62 L-287.4 96.62 L-287.4 97.61 L-287.4 98.61 L-287.4 99.61 L-287.4 100.6 L-287.4 101.6 L-287.4 102.6 L-287.4 103.6 L-287.4 104.6 L-287.4 105.6 L-287.4 106.6 L-287.4 107.6 L-287.4 108.6 L-287.4 109.6 L-287.3 110.6 L-287.3 111.6 L-287.3 112.6 L-288.3 112.6 L-289.3 112.6 L-290.3 112.6 L-291.3 112.6 L-292.3 112.6 L-293.3 112.6 L-294.3 112.6 L-295.3 112.6 L-296.3 112.6 L-297.3 112.6 L-298.3 112.6 L-299.3 112.6 L-300.3 112.6 L-301.3 112.6 L-302.3 112.6 L-303.3 112.6 L-304.3 112.6 L-305.3 112.6 L-306.3 112.6 L-307.3 112.6 L-308.3 112.6 L-309.3 112.6 L-310.3 112.6 L-311.3 112.7 L-312.3 112.7 L-312.3 111.7 L-312.3 110.7 L-312.3 109.7 L-312.3 108.7 L-312.3 107.7 L-312.3 106.7 L-312.3 105.7 L-312.3 104.7 L-312.3 103.7 L-312.3 102.7 L-312.3 101.7 L-312.3 100.7 L-312.3 99.68 L-312.3 98.69 L-312.3 97.69 L-312.3 96.69 L-312.3 95.69 L-312.3 94.69 L-312.3 93.7 L-312.3 92.7 L-312.4 91.7 L-312.4 90.7 L-312.4 89.71 L-312.4 88.71 L-312.4 87.71 Z " />
<path stroke="rgb(0,0,0)" stroke-opacity="1" fill="rgb(255,255,255)" fill-opacity="1" d="M-99.66 187.7 L-98.67 187.7 L-97.68 187.8 L-96.71 188 L-95.76 188.3 L-94.83 188.6 L-93.93 189.1 L-93.07 189.6 L-92.24 190.1 L-91.47 190.7 L-90.75 191.4 L-90.08 192.2 L-89.48 193 L-88.94 193.8 L-88.47 194.7 L-88.07 195.6 L-87.74 196.5 L-87.49 197.5 L-87.31 198.4 L-87.22 199.4 L-87.2 200.4 L-87.26 201.4 L-87.4 202.4 L-87.62 203.4 L-87.91 204.3 L-88.28 205.2 L-88.72 206.1 L-89.23 207 L-89.8 207.8 L-90.44 208.6 L-91.14 209.3 L-91.89 209.9 L-92.69 210.5 L-93.54 211 L-94.42 211.5 L-95.33 211.9 L-96.28 212.2 L-97.24 212.4 L-98.23 212.6 L-99.22 212.6 L-100.2 212.6 L-101.2 212.6 L-102.2 212.4 L-103.1 212.2 L-104.1 211.8 L-105 211.5 L-105.9 211 L-106.7 210.5 L-107.5 209.9 L-108.3 209.2 L-109 208.5 L-109.6 207.8 L-110.2 206.9 L-110.7 206.1 L-111.1 205.2 L-111.5 204.3 L-111.8 203.3 L-112 202.4 L-112.1 201.4 L-112.2 200.4 L-112.2 199.4 L-112.1 198.4 L-111.9 197.4 L-111.6 196.5 L-111.3 195.5 L-110.9 194.6 L-110.4 193.7 L-109.9 192.9 L-109.3 192.1 L-108.6 191.4 L-107.9 190.7 L-107.1 190.1 L-106.3 189.5 L-105.4 189 L-104.5 188.6 L-103.6 188.3 L-102.6 188 L-101.6 187.8 L-100.7 187.7 L-99.66 187.7 Z " />
<path stroke="rgb(0,0,0)" stroke-opacity="1" fill="rgb(255,255,255)" fill-opacity="1" d="M-110.3 90.83 L-109.3 90.79 L-108.3 90.74 L-107.3 90.7 L-106.3 90.66 L-105.3 90.61 L-104.3 90.57 L-103.3 90.52 L-102.3 90.48 L-101.3 90.44 L-100.3 90.39 L-99.29 90.35 L-98.29 90.31 L-97.29 90.26 L-96.3 90.22 L-95.3 90.17 L-94.3 90.13 L-93.31 90.09 L-92.31 90.04 L-91.31 90 L-90.31 89.96 L-89.32 89.91 L-88.32 89.87 L-87.32 89.82 L-86.33 89.78 L-85.33 89.74 L-85.29 90.73 L-85.24 91.73 L-85.2 92.73 L-85.15 93.72 L-85.11 94.72 L-85.07 95.72 L-85.02 96.71 L-84.98 97.71 L-84.94 98.71 L-84.89 99.71 L-84.85 100.7 L-84.8 101.7 L-84.76 102.7 L-84.72 103.7 L-84.67 104.7 L-84.63 105.7 L-84.59 106.7 L-84.54 107.7 L-84.5 108.7 L-84.45 109.7 L-84.41 110.7 L-84.37 111.7 L-84.32 112.7 L-84.28 113.7 L-84.24 114.7 L-85.23 114.7 L-86.23 114.7 L-87.23 114.8 L-88.22 114.8 L-89.22 114.9 L-90.22 114.9 L-91.21 115 L-92.21 115 L-93.21 115.1 L-94.2 115.1 L-95.2 115.1 L-96.2 115.2 L-97.2 115.2 L-98.19 115.3 L-99.19 115.3 L-100.2 115.4 L-101.2 115.4 L-102.2 115.4 L-103.2 115.5 L-104.2 115.5 L-105.2 115.6 L-106.2 115.6 L-107.2 115.7 L-108.2 115.7 L-109.2 115.8 L-109.2 114.8 L-109.2 113.8 L-109.3 112.8 L-109.3 111.8 L-109.4 110.8 L-109.4 109.8 L-109.5 108.8 L-109.5 107.8 L-109.6 106.8 L-109.6 105.8 L-109.6 104.8 L-109.7 103.8 L-109.7 102.8 L-109.8 101.8 L-109.8 100.8 L-109.9 99.8 L-109.9 98.81 L-109.9 97.81 L-110 96.81 L-110 95.82 L-110.1 94.82 L-110.1 93.82 L-110.2 92.82 L-110.2 91.83 L-110.3 90.83 Z " />
<path stroke="rgb(0,0,0)" stroke-opacity="1" fill="rgb(255,255,255)" fill-opacity="1" d="M100.3 187.7 L101.3 187.7 L102.3 187.8 L103.3 188 L104.2 188.3 L105.2 188.6 L106.1 189.1 L106.9 189.6 L107.7 190.1 L108.5 190.7 L109.2 191.4 L109.9 192.2 L110.5 193 L111.1 193.8 L111.5 194.7 L111.9 195.6 L112.3 196.5 L112.5 197.5 L112.7 198.4 L112.8 199.4 L112.8 200.4 L112.7 201.4 L112.6 202.4 L112.4 203.4 L112.1 204.3 L111.7 205.2 L111.3 206.1 L110.8 207 L110.2 207.8 L109.6 208.6 L108.9 209.3 L108.1 209.9 L107.3 210.5 L106.5 211 L105.6 211.5 L104.7 211.9 L103.7 212.2 L102.8 212.4 L101.8 212.6 L100.8 212.6 L99.8 212.6 L98.81 212.6 L97.83 212.4 L96.86 212.2 L95.92 211.8 L95 211.5 L94.12 211 L93.28 210.5 L92.48 209.9 L91.73 209.2 L91.04 208.5 L90.4 207.8 L89.83 206.9 L89.32 206.1 L88.89 205.2 L88.52 204.3 L88.23 203.3 L88.02 202.4 L87.88 201.4 L87.82 200.4 L87.85 199.4 L87.95 198.4 L88.12 197.4 L88.38 196.5 L88.71 195.5 L89.11 194.6 L89.59 193.8 L90.13 192.9 L90.74 192.1 L91.41 191.4 L92.13 190.7 L92.91 190.1 L93.73 189.5 L94.59 189.1 L95.49 188.6 L96.42 188.3 L97.38 188 L98.35 187.8 L99.34 187.7 L100.3 187.7 Z " />
<path stroke="rgb(0,0,0)" stroke-opacity="1" fill="rgb(255,255,255)" fill-opacity="1" d="M96.15 100.2 L97.13 100.1 L98.12 99.89 L99.1 99.72 L100.1 99.56 L101.1 99.39 L102.1 99.23 L103 99.07 L104 98.9 L105 98.74 L106 98.57 L107 98.41 L108 98.24 L108.9 98.08 L109.9 97.91 L110.9 97.75 L111.9 97.59 L112.9 97.42 L113.9 97.26 L114.9 97.09 L115.8 96.93 L116.8 96.76 L117.8 96.6 L118.8 96.44 L119.8 96.27 L120.8 96.11 L120.9 97.09 L121.1 98.08 L121.2 99.06 L121.4 100 L121.6 101 L121.7 102 L121.9 103 L122.1 104 L122.2 105 L122.4 106 L122.6 106.9 L122.7 107.9 L122.9 108.9 L123.1 109.9 L123.2 110.9 L123.4 111.9 L123.6 112.8 L123.7 113.8 L123.9 114.8 L124 115.8 L124.2 116.8 L124.4 117.8 L124.5 118.7 L124.7 119.7 L124.9 120.7 L123.9 120.9 L122.9 121 L121.9 121.2 L120.9 121.4 L119.9 121.5 L119 121.7 L118 121.9 L117 122 L116 122.2 L115 122.4 L114 122.5 L113.1 122.7 L112.1 122.9 L111.1 123 L110.1 123.2 L109.1 123.3 L108.1 123.5 L107.1 123.7 L106.2 123.8 L105.2 124 L104.2 124.2 L103.2 124.3 L102.2 124.5 L101.2 124.7 L100.3 124.8 L100.1 123.8 L99.93 122.9 L99.76 121.9 L99.6 120.9 L99.43 119.9 L99.27 118.9 L99.11 117.9 L98.94 116.9 L98.78 116 L98.61 115 L98.45 114 L98.28 113 L98.12 112 L97.96 111 L97.79 110.1 L97.63 109.1 L97.46 108.1 L97.3 107.1 L97.13 106.1 L96.97 105.1 L96.81 104.2 L96.64 103.2 L96.48 102.2 L96.31 101.2 L96.15 100.2 Z " />
<path stroke="rgb(0,0,0)" stroke-opacity="1" fill="rgb(255,255,255)" fill-opacity="1" d="M300.3 187.7 L301.3 187.7 L302.3 187.8 L303.3 188 L304.2 188.3 L305.2 188.6 L306.1 189.1 L306.9 189.6 L307.7 190.1 L308.5 190.7 L309.2 191.4 L309.9 192.2 L310.5 193 L311.1 193.8 L311.5 194.7 L311.9 195.6 L312.3 196.5 L312.5 197.5 L312.7 198.4 L312.8 199.4 L312.8 200.4 L312.7 201.4 L312.6 202.4 L312.4 203.4 L312.1 204.3 L311.7 205.2 L311.3 206.1 L310.8 207 L310.2 207.8 L309.6 208.6 L308.9 209.3 L308.1 209.9 L307.3 210.5 L306.5 211 L305.6 211.5 L304.7 211.9 L303.7 212.2 L302.8 212.4 L301.8 212.6 L300.8 212.6 L299.8 212.6 L298.8 212.6 L297.8 212.4 L296.9 212.2 L295.9 211.8 L295 211.5 L294.1 211 L293.3 210.5 L292.5 209.9 L291.7 209.2 L291 208.5 L290.4 207.8 L289.8 206.9 L289.3 206.1 L288.9 205.2 L288.5 204.3 L288.2 203.3 L288 202.4 L287.9 201.4 L287.8 200.4 L287.8 199.4 L287.9 198.4 L288.1 197.4 L288.4 196.5 L288.7 195.5 L289.1 194.6 L289.6 193.8 L290.1 192.9 L290.7 192.1 L291.4 191.4 L292.1 190.7 L292.9 190.1 L293.7 189.5 L294.6 189.1 L295.5 188.6 L296.4 188.3 L297.4 188 L298.4 187.8 L299.3 187.7 L300.3 187.7 Z " />
<path stroke="rgb(0,0,0)" stroke-opacity="1" fill="rgb(255,255,255)" fill-opacity="1" d="M-412.4 187.7 L-411.4 187.7 L-410.4 187.7 L-409.4 187.7 L-408.4 187.7 L-407.4 187.7 L-406.4 187.7 L-405.4 187.7 L-404.4 187.7 L-403.4 187.7 L-402.4 187.7 L-401.4 187.7 L-400.4 187.7 L-399.4 187.7 L-398.4 187.7 L-397.4 187.7 L-396.4 187.7 L-395.4 187.7 L-394.4 187.7 L-393.4 187.7 L-392.4 187.7 L-391.4 187.6 L-390.4 187.6 L-389.4 187.6 L-388.4 187.6 L-387.4 187.6 L-387.4 188.6 L-387.4 189.6 L-387.4 190.6 L-387.4 191.6 L-387.4 192.6 L-387.4 193.6 L-387.4 194.6 L-387.4 195.6 L-387.4 196.6 L-387.4 197.6 L-387.4 198.6 L-387.4 199.6 L-387.4 200.6 L-387.4 201.6 L-387.4 202.6 L-387.4 203.6 L-387.4 204.6 L-387.4 205.6 L-387.4 206.6 L-387.4 207.6 L-387.4 208.6 L-387.4 209.6 L-387.3 210.6 L-387.3 211.6 L-387.3 212.6 L-388.3 212.6 L-389.3 212.6 L-390.3 212.6 L-391.3 212.6 L-392.3 212.6 L-393.3 212.6 L-394.3 212.6 L-395.3 212.6 L-396.3 212.6 L-397.3 212.6 L-398.3 212.6 L-399.3 212.6 L-400.3 212.6 L-401.3 212.6 L-402.3 212.6 L-403.3 212.6 L-404.3 212.6 L-405.3 212.6 L-406.3 212.6 L-407.3 212.6 L-408.3 212.6 L-409.3 212.6 L-410.3 212.6 L-411.3 212.7 L-412.3 212.7 L-412.3 211.7 L-412.3 210.7 L-412.3 209.7 L-412.3 208.7 L-412.3 207.7 L-412.3 206.7 L-412.3 205.7 L-412.3 204.7 L-412.3 203.7 L-412.3 202.7 L-412.3 201.7 L-412.3 200.7 L-412.3 199.7 L-412.3 198.7 L-412.3 197.7 L-412.3 196.7 L-412.3 195.7 L-412.3 194.7 L-412.3 193.7 L-412.3 192.7 L-412.4 191.7 L-412.4 190.7 L-412.4 189.7 L-412.4 188.7 L-412.4 187.7 Z " />
<path stroke="rgb(0,0,0)" stroke-opacity="1" fill="rgb(255,255,255)" fill-opacity="1" d="M-199.7 287.7 L-198.7 287.7 L-197.7 287.8 L-196.7 288 L-195.8 288.3 L-194.8 288.6 L-193.9 289.1 L-193.1 289.6 L-192.2 290.1 L-191.5 290.7 L-190.7 291.4 L-190.1 292.2 L-189.5 293 L-188.9 293.8 L-188.5 294.7 L-188.1 295.6 L-187.7 296.5 L-187.5 297.5 L-187.3 298.4 L-187.2 299.4 L-187.2 300.4 L-187.3 301.4 L-187.4 302.4 L-187.6 303.4 L-187.9 304.3 L-188.3 305.2 L-188.7 306.1 L-189.2 307 L-189.8 307.8 L-190.4 308.6 L-191.1 309.3 L-191.9 309.9 L-192.7 310.5 L-193.5 311 L-194.4 311.5 L-195.3 311.9 L-196.3 312.2 L-197.2 312.4 L-198.2 312.6 L-199.2 312.6 L-200.2 312.6 L-201.2 312.6 L-202.2 312.4 L-203.1 312.2 L-204.1 311.8 L-205 311.5 L-205.9 311 L-206.7 310.5 L-207.5 309.9 L-208.3 309.2 L-209 308.5 L-209.6 307.8 L-210.2 306.9 L-210.7 306.1 L-211.1 305.2 L-211.5 304.3 L-211.8 303.3 L-212 302.4 L-212.1 301.4 L-212.2 300.4 L-212.2 299.4 L-212.1 298.4 L-211.9 297.4 L-211.6 296.5 L-211.3 295.5 L-210.9 294.6 L-210.4 293.7 L-209.9 292.9 L-209.3 292.1 L-208.6 291.4 L-207.9 290.7 L-207.1 290.1 L-206.3 289.5 L-205.4 289 L-204.5 288.6 L-203.6 288.3 L-202.6 288 L-201.6 287.8 L-200.7 287.7 L-199.7 287.7 Z " />
<path stroke="rgb(0,0,0)" stroke-opacity="1" fill="rgb(255,255,255)" fill-opacity="1" d="M-210.3 190.8 L-209.3 190.8 L-208.3 190.7 L-207.3 190.7 L-206.3 190.7 L-205.3 190.6 L-204.3 190.6 L-203.3 190.5 L-202.3 190.5 L-201.3 190.4 L-200.3 190.4 L-199.3 190.3 L-198.3 190.3 L-197.3 190.3 L-196.3 190.2 L-195.3 190.2 L-194.3 190.1 L-193.3 190.1 L-192.3 190 L-191.3 190 L-190.3 190 L-189.3 189.9 L-188.3 189.9 L-187.3 189.8 L-186.3 189.8 L-185.3 189.7 L-185.3 190.7 L-185.2 191.7 L-185.2 192.7 L-185.2 193.7 L-185.1 194.7 L-185.1 195.7 L-185 196.7 L-185 197.7 L-184.9 198.7 L-184.9 199.7 L-184.8 200.7 L-184.8 201.7 L-184.8 202.7 L-184.7 203.7 L-184.7 204.7 L-184.6 205.7 L-184.6 206.7 L-184.5 207.7 L-184.5 208.7 L-184.5 209.7 L-184.4 210.7 L-184.4 211.7 L-184.3 212.7 L-184.3 213.7 L-184.2 214.7 L-185.2 214.7 L-186.2 214.7 L-187.2 214.8 L-188.2 214.8 L-189.2 214.9 L-190.2 214.9 L-191.2 215 L-192.2 215 L-193.2 215.1 L-194.2 215.1 L-195.2 215.1 L-196.2 215.2 L-197.2 215.2 L-198.2 215.3 L-199.2 215.3 L-200.2 215.4 L-201.2 215.4 L-202.2 215.4 L-203.2 215.5 L-204.2 215.5 L-205.2 215.6 L-206.2 215.6 L-207.2 215.7 L-208.2 215.7 L-209.2 215.8 L-209.2 214.8 L-209.2 213.8 L-209.3 212.8 L-209.3 211.8 L-209.4 210.8 L-209.4 209.8 L-209.5 208.8 L-209.5 207.8 L-209.6 206.8 L-209.6 205.8 L-209.6 204.8 L-209.7 203.8 L-209.7 202.8 L-209.8 201.8 L-209.8 200.8 L-209.9 199.8 L-209.9 198.8 L-209.9 197.8 L-210 196.8 L-210 195.8 L-210.1 194.8 L-210.1 193.8 L-210.2 192.8 L-210.2 191.8 L-210.3 190.8 Z " />
<path stroke="rgb(0,0,0)" stroke-opacity="1" fill="rgb(255,255,255)" fill-opacity="1" d="M0.3316 287.7 L1.324 287.7 L2.31 287.8 L3.283 288 L4.237 288.3 L5.167 288.6 L6.066 289.1 L6.929 289.6 L7.749 290.1 L8.523 290.7 L9.245 291.4 L9.91 292.2 L10.51 293 L11.06 293.8 L11.53 294.7 L11.93 295.6 L12.26 296.5 L12.51 297.5 L12.68 298.4 L12.78 299.4 L12.8 300.4 L12.74 301.4 L12.6 302.4 L12.38 303.4 L12.09 304.3 L11.72 305.2 L11.28 306.1 L10.77 307 L10.2 307.8 L9.559 308.6 L8.863 309.3 L8.112 309.9 L7.313 310.5 L6.469 311 L5.586 311.5 L4.67 311.9 L3.726 312.2 L2.76 312.4 L1.78 312.6 L0.7895 312.6 L-0.2036 312.6 L-1.193 312.6 L-2.174 312.4 L-3.138 312.2 L-4.081 311.8 L-4.996 311.5 L-5.878 311 L-6.72 310.5 L-7.518 309.9 L-8.266 309.2 L-8.96 308.5 L-9.596 307.8 L-10.17 306.9 L-10.68 306.1 L-11.11 305.2 L-11.48 304.3 L-11.77 303.3 L-11.98 302.4 L-12.12 301.4 L-12.18 300.4 L-12.15 299.4 L-12.05 298.4 L-11.88 297.4 L-11.62 296.5 L-11.29 295.5 L-10.89 294.6 L-10.41 293.8 L-9.868 292.9 L-9.261 292.1 L-8.593 291.4 L-7.869 290.7 L-7.094 290.1 L-6.271 289.5 L-5.407 289.1 L-4.507 288.6 L-3.576 288.3 L-2.621 288 L-1.647 287.8 L-0.6608 287.7 L0.3316 287.7 Z " />
<path stroke="rgb(0,0,0)" stroke-opacity="1" fill="rgb(255,255,255)" fill-opacity="1" d="M-3.852 200.2 L-2.868 200.1 L-1.884 199.9 L-0.8992 199.7 L0.08514 199.6 L1.069 199.4 L2.054 199.2 L3.038 199.1 L4.023 198.9 L5.007 198.7 L5.991 198.6 L6.976 198.4 L7.96 198.2 L8.944 198.1 L9.929 197.9 L10.91 197.8 L11.9 197.6 L12.88 197.4 L13.87 197.3 L14.85 197.1 L15.83 196.9 L16.82 196.8 L17.8 196.6 L18.79 196.4 L19.77 196.3 L20.76 196.1 L20.92 197.1 L21.09 198.1 L21.25 199.1 L21.41 200 L21.58 201 L21.74 202 L21.91 203 L22.07 204 L22.24 205 L22.4 206 L22.56 206.9 L22.73 207.9 L22.89 208.9 L23.06 209.9 L23.22 210.9 L23.39 211.9 L23.55 212.8 L23.71 213.8 L23.88 214.8 L24.04 215.8 L24.21 216.8 L24.37 217.8 L24.54 218.7 L24.7 219.7 L24.86 220.7 L23.88 220.9 L22.9 221 L21.91 221.2 L20.93 221.4 L19.94 221.5 L18.96 221.7 L17.97 221.9 L16.99 222 L16.01 222.2 L15.02 222.4 L14.04 222.5 L13.05 222.7 L12.07 222.9 L11.08 223 L10.1 223.2 L9.115 223.3 L8.131 223.5 L7.147 223.7 L6.162 223.8 L5.178 224 L4.193 224.2 L3.209 224.3 L2.225 224.5 L1.24 224.7 L0.2561 224.8 L0.09175 223.8 L-0.07258 222.9 L-0.2369 221.9 L-0.4012 220.9 L-0.5656 219.9 L-0.7299 218.9 L-0.8942 217.9 L-1.059 216.9 L-1.223 216 L-1.387 215 L-1.552 214 L-1.716 213 L-1.88 212 L-2.045 211 L-2.209 210.1 L-2.373 209.1 L-2.538 208.1 L-2.702 207.1 L-2.866 206.1 L-3.031 205.1 L-3.195 204.2 L-3.359 203.2 L-3.524 202.2 L-3.688 201.2 L-3.852 200.2 Z " />
<path stroke="rgb(0,0,0)" stroke-opacity="1" fill="rgb(255,255,255)" fill-opacity="1" d="M200.3 287.7 L201.3 287.7 L202.3 287.8 L203.3 288 L204.2 288.3 L205.2 288.6 L206.1 289.1 L206.9 289.6 L207.7 290.1 L208.5 290.7 L209.2 291.4 L209.9 292.2 L210.5 293 L211.1 293.8 L211.5 294.7 L211.9 295.6 L212.3 296.5 L212.5 297.5 L212.7 298.4 L212.8 299.4 L212.8 300.4 L212.7 301.4 L212.6 302.4 L212.4 303.4 L212.1 304.3 L211.7 305.2 L211.3 306.1 L210.8 307 L210.2 307.8 L209.6 308.6 L208.9 309.3 L208.1 309.9 L207.3 310.5 L206.5 311 L205.6 311.5 L204.7 311.9 L203.7 312.2 L202.8 312.4 L201.8 312.6 L200.8 312.6 L199.8 312.6 L198.8 312.6 L197.8 312.4 L196.9 312.2 L195.9 311.8 L195 311.5 L194.1 311 L193.3 310.5 L192.5 309.9 L191.7 309.2 L191 308.5 L190.4 307.8 L189.8 306.9 L189.3 306.1 L188.9 305.2 L188.5 304.3 L188.2 303.3 L188 302.4 L187.9 301.4 L187.8 300.4 L187.8 299.4 L187.9 298.4 L188.1 297.4 L188.4 296.5 L188.7 295.5 L189.1 294.6 L189.6 293.8 L190.1 292.9 L190.7 292.1 L191.4 291.4 L192.1 290.7 L192.9 290.1 L193.7 289.5 L194.6 289.1 L195.5 288.6 L196.4 288.3 L197.4 288 L198.4 287.8 L199.3 287.7 L200.3 287.7 Z " />
<path stroke="rgb(0,0,0)" stroke-opacity="1" fill="rgb(255,255,255)" fill-opacity="1" d="M209.8 219.7 L210.7 219.3 L211.6 218.9 L212.5 218.5 L213.4 218.1 L214.3 217.7 L215.3 217.3 L216.2 216.9 L217.1 216.5 L218 216.1 L218.9 215.7 L219.8 215.3 L220.7 214.9 L221.7 214.5 L222.6 214.1 L223.5 213.7 L224.4 213.3 L225.3 212.9 L226.2 212.5 L227.2 212.1 L228.1 211.7 L229 211.3 L229.9 210.9 L230.8 210.5 L231.7 210.1 L232.6 209.7 L233 210.6 L233.4 211.5 L233.8 212.4 L234.2 213.3 L234.6 214.2 L235 215.2 L235.4 216.1 L235.8 217 L236.2 217.9 L236.6 218.8 L237 219.7 L237.4 220.6 L237.8 221.6 L238.2 222.5 L238.6 223.4 L239 224.3 L239.4 225.2 L239.8 226.1 L240.2 227.1 L240.6 228 L241 228.9 L241.4 229.8 L241.8 230.7 L242.2 231.6 L242.6 232.5 L241.7 232.9 L240.8 233.3 L239.9 233.7 L239 234.1 L238 234.5 L237.1 234.9 L236.2 235.3 L235.3 235.7 L234.4 236.1 L233.5 236.5 L232.6 236.9 L231.6 237.3 L230.7 237.7 L229.8 238.1 L228.9 238.5 L228 238.9 L227.1 239.3 L226.2 239.7 L225.2 240.1 L224.3 240.5 L223.4 240.9 L222.5 241.3 L221.6 241.7 L220.7 242.1 L219.8 242.5 L219.4 241.6 L219 240.7 L218.6 239.8 L218.2 238.9 L217.8 237.9 L217.4 237 L217 236.1 L216.6 235.2 L216.2 234.3 L215.8 233.4 L215.4 232.5 L215 231.5 L214.6 230.6 L214.2 229.7 L213.8 228.8 L213.4 227.9 L213 227 L212.6 226.1 L212.2 225.1 L211.8 224.2 L211.4 223.3 L211 222.4 L210.6 221.5 L210.2 220.6 L209.8 219.7 Z " />
</g>
</g>
</svg>
