<!DOCTYPE svg>
<svg xmlns="http://www.w3.org/2000/svg" xmlns:xlink="http://www.w3.org/1999/xlink" width="1000" height="1000">
<g transform="translate(500.000000,500.000000)">
<g transform="scale(3.000000,3.000000)">
<path stroke="rgb(0,0,0)" stroke-opacity="1" fill="rgb(255,255,255)" fill-opacity="1" d="M-887.9 -912.2 L-888 -911.3 L-888 -910.3 L-888 -909.3 L-888 -908.3 L-888 -907.3 L-888 -906.3 L-888 -905.4 L-888 -904.4 L-888 -903.4 L-888.1 -902.4 L-888.1 -901.4 L-888.1 -900.5 L-888.1 -899.5 L-888.1 -898.5 L-888.1 -897.5 L-888.1 -896.5 L-888.1 -895.5 L-888.2 -894.6 L-888.2 -893.6 L-888.2 -892.6 L-888.2 -891.6 L-888.2 -890.6 L-888.2 -889.7 L-888.2 -888.7 L-888.2 -887.7 L-889.2 -887.7 L-890.2 -887.7 L-891.2 -887.7 L-892.2 -887.7 L-893.1 -887.8 L-894.1 -887.8 L-895.1 -887.8 L-896.1 -887.8 L-897.1 -887.8 L-898.1 -887.8 L-899 -887.8 L-900 -887.8 L-901 -887.8 L-902 -887.9 L-903 -887.9 L-903.9 -887.9 L-904.9 -887.9 L-905.9 -887.9 L-906.9 -887.9 L-907.9 -887.9 L-908.8 -887.9 L-909.8 -888 L-910.8 -888 L-911.8 -888 L-912.8 -888 L-912.8 -889 L-912.8 -890 L-912.7 -890.9 L-912.7 -891.9 L-912.7 -892.9 L-912.7 -893.9 L-912.7 -894.9 L-912.7 -895.8 L-912.7 -896.8 L-912.7 -897.8 L-912.6 -898.8 L-912.6 -899.8 L-912.6 -900.8 L-912.6 -901.7 L-912.6 -902.7 L-912.6 -903.7 L-912.6 -904.7 L-912.6 -905.7 L-912.6 -906.6 L-912.5 -907.6 L-912.5 -908.6 L-912.5 -909.6 L-912.5 -910.6 L-912.5 -911.6 L-912.5 -912.5 L-911.5 -912.5 L-910.5 -912.5 L-909.5 -912.5 L-908.6 -912.5 L-907.6 -912.5 L-906.6 -912.5 L-905.6 -912.5 L-904.6 -912.4 L-903.6 -912.4 L-902.7 -912.4 L-901.7 -912.4 L-900.7 -912.4 L-899.7 -912.4 L-898.7 -912.4 L-897.8 -912.4 L-896.8 -912.3 L-895.8 -912.3 L-894.8 -912.3 L-893.8 -912.3 L-892.8 -912.3 L-891.9 -912.3 L-890.9 -912.3 L-889.9 -912.3 L-888.9 -912.3 L-887.9 -912.2 Z " />
<path stroke="rgb(0,0,0)" stroke-opacity="1" fill="rgb(255,255,255)" fill-opacity="1" d="M-175.3 -299.7 L-175.4 -297.7 L-175.7 -295.8 L-176.1 -293.9 L-176.6 -292 L-177.3 -290.1 L-178.2 -288.4 L-179.2 -286.7 L-180.3 -285.1 L-181.6 -283.6 L-182.9 -282.1 L-184.4 -280.8 L-186 -279.7 L-187.6 -278.6 L-189.4 -277.7 L-191.2 -276.9 L-193 -276.3 L-195 -275.8 L-196.9 -275.5 L-198.8 -275.3 L-200.8 -275.3 L-202.8 -275.5 L-204.7 -275.8 L-206.6 -276.2 L-208.5 -276.8 L-210.3 -277.6 L-212.1 -278.4 L-213.7 -279.5 L-215.3 -280.6 L-216.8 -281.9 L-218.2 -283.3 L-219.5 -284.8 L-220.6 -286.4 L-221.6 -288.1 L-222.5 -289.8 L-223.2 -291.7 L-223.8 -293.5 L-224.3 -295.4 L-224.6 -297.4 L-224.7 -299.3 L-224.7 -301.3 L-224.5 -303.3 L-224.1 -305.2 L-223.7 -307.1 L-223 -309 L-222.2 -310.8 L-221.3 -312.5 L-220.2 -314.1 L-219.1 -315.7 L-217.8 -317.2 L-216.3 -318.5 L-214.8 -319.8 L-213.2 -320.9 L-211.5 -321.9 L-209.7 -322.7 L-207.9 -323.4 L-206 -324 L-204.1 -324.4 L-202.1 -324.6 L-200.2 -324.7 L-198.2 -324.6 L-196.2 -324.4 L-194.3 -324 L-192.4 -323.5 L-190.6 -322.8 L-188.8 -322 L-187.1 -321.1 L-185.5 -320 L-183.9 -318.8 L-182.5 -317.4 L-181.1 -316 L-179.9 -314.4 L-178.9 -312.8 L-177.9 -311.1 L-177.1 -309.3 L-176.4 -307.4 L-175.9 -305.5 L-175.6 -303.6 L-175.3 -301.6 L-175.3 -299.7 Z " />
<path stroke="rgb(0,0,0)" stroke-opacity="1" fill="rgb(255,255,255)" fill-opacity="1" d="M-687.9 -912.2 L-688 -911.3 L-688 -910.3 L-688 -909.3 L-688 -908.3 L-688 -907.3 L-688 -906.3 L-688 -905.4 L-688 -904.4 L-688 -903.4 L-688.1 -902.4 L-688.1 -901.4 L-688.1 -900.5 L-688.1 -899.5 L-688.1 -898.5 L-688.1 -897.5 L-688.1 -896.5 L-688.1 -895.5 L-688.2 -894.6 L-688.2 -893.6 L-688.2 -892.6 L-688.2 -891.6 L-688.2 -890.6 L-688.2 -889.7 L-688.2 -888.7 L-688.2 -887.7 L-689.2 -887.7 L-690.2 -887.7 L-691.2 -887.7 L-692.2 -887.7 L-693.1 -887.8 L-694.1 -887.8 L-695.1 -887.8 L-696.1 -887.8 L-697.1 -887.8 L-698.1 -887.8 L-699 -887.8 L-700 -887.8 L-701 -887.8 L-702 -887.9 L-703 -887.9 L-703.9 -887.9 L-704.9 -887.9 L-705.9 -887.9 L-706.9 -887.9 L-707.9 -887.9 L-708.8 -887.9 L-709.8 -888 L-710.8 -888 L-711.8 -888 L-712.8 -888 L-712.8 -889 L-712.8 -890 L-712.7 -890.9 L-712.7 -891.9 L-712.7 -892.9 L-712.7 -893.9 L-712.7 -894.9 L-712.7 -895.8 L-712.7 -896.8 L-712.7 -897.8 L-712.6 -898.8 L-712.6 -899.8 L-712.6 -900.8 L-712.6 -901.7 L-712.6 -902.7 L-712.6 -903.7 L-712.6 -904.7 L-712.6 -905.7 L-712.6 -906.6 L-712.5 -907.6 L-712.5 -908.6 L-712.5 -909.6 L-712.5 -910.6 L-712.5 -911.6 L-712.5 -912.5 L-711.5 -912.5 L-710.5 -912.5 L-709.5 -912.5 L-708.6 -912.5 L-707.6 -912.5 L-706.6 -912.5 L-705.6 -912.5 L-704.6 -912.4 L-703.6 -912.4 L-702.7 -912.4 L-701.7 -912.4 L-700.7 -912.4 L-699.7 -912.4 L-698.7 -912.4 L-697.8 -912.4 L-696.8 -912.3 L-695.8 -912.3 L-694.8 -912.3 L-693.8 -912.3 L-692.8 -912.3 L-691.9 -912.3 L-690.9 -912.3 L-689.9 -912.3 L-688.9 -912.3 L-687.9 -912.2 Z " />
<path stroke="rgb(0,0,0)" stroke-opacity="1" fill="rgb(255,255,255)" fill-opacity="1" d="M24.7 -299.7 L24.6 -297.7 L24.34 -295.8 L23.93 -293.9 L23.36 -292 L22.65 -290.1 L21.8 -288.4 L20.8 -286.7 L19.68 -285.1 L18.43 -283.6 L17.06 -282.1 L15.59 -280.8 L14.02 -279.7 L12.36 -278.6 L10.62 -277.7 L8.814 -276.9 L6.952 -276.3 L5.047 -275.8 L3.11 -275.5 L1.153 -275.3 L-0.8108 -275.3 L-2.77 -275.5 L-4.711 -275.8 L-6.623 -276.2 L-8.492 -276.8 L-10.31 -277.6 L-12.06 -278.4 L-13.73 -279.5 L-15.32 -280.6 L-16.81 -281.9 L-18.2 -283.3 L-19.47 -284.8 L-20.61 -286.4 L-21.63 -288.1 L-22.51 -289.8 L-23.24 -291.7 L-23.83 -293.5 L-24.27 -295.4 L-24.56 -297.4 L-24.69 -299.3 L-24.66 -301.3 L-24.48 -303.3 L-24.15 -305.2 L-23.66 -307.1 L-23.02 -309 L-22.23 -310.8 L-21.31 -312.5 L-20.25 -314.1 L-19.06 -315.7 L-17.75 -317.2 L-16.33 -318.5 L-14.81 -319.8 L-13.19 -320.9 L-11.49 -321.9 L-9.717 -322.7 L-7.882 -323.4 L-5.997 -324 L-4.074 -324.4 L-2.126 -324.6 L-0.1638 -324.7 L1.799 -324.6 L3.751 -324.4 L5.679 -324 L7.571 -323.5 L9.415 -322.8 L11.2 -322 L12.91 -321.1 L14.55 -320 L16.09 -318.8 L17.53 -317.4 L18.85 -316 L20.06 -314.4 L21.14 -312.8 L22.09 -311.1 L22.9 -309.3 L23.56 -307.4 L24.08 -305.5 L24.44 -303.6 L24.65 -301.6 L24.7 -299.7 Z " />
<path stroke="rgb(0,0,0)" stroke-opacity="1" fill="rgb(255,255,255)" fill-opacity="1" d="M-487.9 -912.2 L-488 -911.3 L-488 -910.3 L-488 -909.3 L-488 -908.3 L-488 -907.3 L-488 -906.3 L-488 -905.4 L-488 -904.4 L-488 -903.4 L-488.1 -902.4 L-488.1 -901.4 L-488.1 -900.5 L-488.1 -899.5 L-488.1 -898.5 L-488.1 -897.5 L-488.1 -896.5 L-488.1 -895.5 L-488.2 -894.6 L-488.2 -893.6 L-488.2 -892.6 L-488.2 -891.6 L-488.2 -890.6 L-488.2 -889.7 L-488.2 -888.7 L-488.2 -887.7 L-489.2 -887.7 L-490.2 -887.7 L-491.2 -887.7 L-492.2 -887.7 L-493.1 -887.8 L-494.1 -887.8 L-495.1 -887.8 L-496.1 -887.8 L-497.1 -887.8 L-498.1 -887.8 L-499 -887.8 L-500 -887.8 L-501 -887.8 L-502 -887.9 L-503 -887.9 L-503.9 -887.9 L-504.9 -887.9 L-505.9 -887.9 L-506.9 -887.9 L-507.9 -887.9 L-508.8 -887.9 L-509.8 -888 L-510.8 -888 L-511.8 -888 L-512.8 -888 L-512.8 -889 L-512.8 -890 L-512.7 -890.9 L-512.7 -891.9 L-512.7 -892.9 L-512.7 -893.9 L-512.7 -894.9 L-512.7 -895.8 L-512.7 -896.8 L-512.7 -897.8 L-512.6 -898.8 L-512.6 -899.8 L-512.6 -900.8 L-512.6 -901.7 L-512.6 -902.7 L-512.6 -903.7 L-512.6 -904.7 L-512.6 -905.7 L-512.6 -906.6 L-512.5 -907.6 L-512.5 -908.6 L-512.5 -909.6 L-512.5 -910.6 L-512.5 -911.6 L-512.5 -912.5 L-511.5 -912.5 L-510.5 -912.5 L-509.5 -912.5 L-508.6 -912.5 L-507.6 -912.5 L-506.6 -912.5 L-505.6 -912.5 L-504.6 -912.4 L-503.6 -912.4 L-502.7 -912.4 L-501.7 -912.4 L-500.7 -912.4 L-499.7 -912.4 L-498.7 -912.4 L-497.8 -912.4 L-496.8 -912.3 L-495.8 -912.3 L-494.8 -912.3 L-493.8 -912.3 L-492.8 -912.3 L-491.9 -912.3 L-490.9 -912.3 L-489.9 -912.3 L-488.9 -912.3 L-487.9 -912.2 Z " />
<path stroke="rgb(0,0,0)" stroke-opacity="1" fill="rgb(255,255,255)" fill-opacity="1" d="M222.9 -303.2 L223 -301.4 L223.1 -299.6 L223 -297.7 L222.7 -295.9 L222.3 -294.1 L221.8 -292.4 L221.1 -290.7 L220.3 -289 L219.4 -287.4 L218.3 -285.9 L217.2 -284.5 L215.9 -283.2 L214.5 -282 L213 -280.9 L211.5 -279.9 L209.9 -279.1 L208.2 -278.4 L206.4 -277.8 L204.7 -277.4 L202.8 -277.1 L201 -276.9 L199.2 -276.9 L197.4 -277 L195.5 -277.3 L193.8 -277.8 L192 -278.3 L190.3 -279 L188.7 -279.9 L187.1 -280.8 L185.7 -281.9 L184.3 -283.1 L183 -284.4 L181.8 -285.8 L180.7 -287.3 L179.8 -288.9 L179 -290.5 L178.3 -292.2 L177.7 -294 L177.3 -295.8 L177.1 -297.6 L177 -299.4 L177 -301.3 L177.2 -303.1 L177.5 -304.9 L178 -306.7 L178.6 -308.4 L179.3 -310.1 L180.2 -311.7 L181.2 -313.2 L182.3 -314.7 L183.5 -316.1 L184.8 -317.3 L186.3 -318.5 L187.8 -319.5 L189.4 -320.4 L191 -321.2 L192.7 -321.8 L194.5 -322.4 L196.3 -322.7 L198.1 -322.9 L200 -323 L201.8 -323 L203.6 -322.7 L205.4 -322.4 L207.2 -321.9 L208.9 -321.3 L210.6 -320.5 L212.2 -319.6 L213.7 -318.6 L215.1 -317.4 L216.4 -316.2 L217.7 -314.8 L218.8 -313.4 L219.8 -311.8 L220.7 -310.2 L221.4 -308.5 L222.1 -306.8 L222.5 -305 L222.9 -303.2 Z " />
<path stroke="rgb(0,0,0)" stroke-opacity="1" fill="rgb(255,255,255)" fill-opacity="1" d="M-287.9 -912.2 L-288 -911.3 L-288 -910.3 L-288 -909.3 L-288 -908.3 L-288 -907.3 L-288 -906.3 L-288 -905.4 L-288 -904.4 L-288 -903.4 L-288.1 -902.4 L-288.1 -901.4 L-288.1 -900.5 L-288.1 -899.5 L-288.1 -898.5 L-288.1 -897.5 L-288.1 -896.5 L-288.1 -895.5 L-288.2 -894.6 L-288.2 -893.6 L-288.2 -892.6 L-288.2 -891.6 L-288.2 -890.6 L-288.2 -889.7 L-288.2 -888.7 L-288.2 -887.7 L-289.2 -887.7 L-290.2 -887.7 L-291.2 -887.7 L-292.2 -887.7 L-293.1 -887.8 L-294.1 -887.8 L-295.1 -887.8 L-296.1 -887.8 L-297.1 -887.8 L-298.1 -887.8 L-299 -887.8 L-300 -887.8 L-301 -887.8 L-302 -887.9 L-303 -887.9 L-303.9 -887.9 L-304.9 -887.9 L-305.9 -887.9 L-306.9 -887.9 L-307.9 -887.9 L-308.8 -887.9 L-309.8 -888 L-310.8 -888 L-311.8 -888 L-312.8 -888 L-312.8 -889 L-312.8 -890 L-312.7 -890.9 L-312.7 -891.9 L-312.7 -892.9 L-312.7 -893.9 L-312.7 -894.9 L-312.7 -895.8 L-312.7 -896.8 L-312.7 -897.8 L-312.6 -898.8 L-312.6 -899.8 L-312.6 -900.8 L-312.6 -901.7 L-312.6 -902.7 L-312.6 -903.7 L-312.6 -904.7 L-312.6 -905.7 L-312.6 -906.6 L-312.5 -907.6 L-312.5 -908.6 L-312.5 -909.6 L-312.5 -910.6 L-312.5 -911.6 L-312.5 -912.5 L-311.5 -912.5 L-310.5 -912.5 L-309.5 -912.5 L-308.6 -912.5 L-307.6 -912.5 L-306.6 -912.5 L-305.6 -912.5 L-304.6 -912.4 L-303.6 -912.4 L-302.7 -912.4 L-301.7 -912.4 L-300.7 -912.4 L-299.7 -912.4 L-298.7 -912.4 L-297.8 -912.4 L-296.8 -912.3 L-295.8 -912.3 L-294.8 -912.3 L-293.8 -912.3 L-292.8 -912.3 L-291.9 -912.3 L-290.9 -912.3 L-289.9 -912.3 L-288.9 -912.3 L-287.9 -912.2 Z " />
<path stroke="rgb(0,0,0)" stroke-opacity="1" fill="rgb(255,255,255)" fill-opacity="1" d="M-275.3 -199.7 L-275.4 -197.7 L-275.7 -195.8 L-276.1 -193.9 L-276.6 -192 L-277.3 -190.1 L-278.2 -188.4 L-279.2 -186.7 L-280.3 -185.1 L-281.6 -183.6 L-282.9 -182.1 L-284.4 -180.8 L-286 -179.7 L-287.6 -178.6 L-289.4 -177.7 L-291.2 -176.9 L-293 -176.3 L-295 -175.8 L-296.9 -175.5 L-298.8 -175.3 L-300.8 -175.3 L-302.8 -175.5 L-304.7 -175.8 L-306.6 -176.2 L-308.5 -176.8 L-310.3 -177.6 L-312.1 -178.4 L-313.7 -179.5 L-315.3 -180.6 L-316.8 -181.9 L-318.2 -183.3 L-319.5 -184.8 L-320.6 -186.4 L-321.6 -188.1 L-322.5 -189.8 L-323.2 -191.7 L-323.8 -193.5 L-324.3 -195.4 L-324.6 -197.4 L-324.7 -199.3 L-324.7 -201.3 L-324.5 -203.3 L-324.1 -205.2 L-323.7 -207.1 L-323 -209 L-322.2 -210.8 L-321.3 -212.5 L-320.2 -214.1 L-319.1 -215.7 L-317.8 -217.2 L-316.3 -218.5 L-314.8 -219.8 L-313.2 -220.9 L-311.5 -221.9 L-309.7 -222.7 L-307.9 -223.4 L-306 -224 L-304.1 -224.4 L-302.1 -224.6 L-300.2 -224.7 L-298.2 -224.6 L-296.2 -224.4 L-294.3 -224 L-292.4 -223.5 L-290.6 -222.8 L-288.8 -222 L-287.1 -221.1 L-285.5 -220 L-283.9 -218.8 L-282.5 -217.4 L-281.1 -216 L-279.9 -214.4 L-278.9 -212.8 L-277.9 -211.1 L-277.1 -209.3 L-276.4 -207.4 L-275.9 -205.5 L-275.6 -203.6 L-275.3 -201.6 L-275.3 -199.7 Z " />
<path stroke="rgb(0,0,0)" stroke-opacity="1" fill="rgb(255,255,255)" fill-opacity="1" d="M-787.9 -812.2 L-788 -811.3 L-788 -810.3 L-788 -809.3 L-788 -808.3 L-788 -807.3 L-788 -806.3 L-788 -805.4 L-788 -804.4 L-788 -803.4 L-788.1 -802.4 L-788.1 -801.4 L-788.1 -800.5 L-788.1 -799.5 L-788.1 -798.5 L-788.1 -797.5 L-788.1 -796.5 L-788.1 -795.5 L-788.2 -794.6 L-788.2 -793.6 L-788.2 -792.6 L-788.2 -791.6 L-788.2 -790.6 L-788.2 -789.7 L-788.2 -788.7 L-788.2 -787.7 L-789.2 -787.7 L-790.2 -787.7 L-791.2 -787.7 L-792.2 -787.7 L-793.1 -787.8 L-794.1 -787.8 L-795.1 -787.8 L-796.1 -787.8 L-797.1 -787.8 L-798.1 -787.8 L-799 -787.8 L-800 -787.8 L-801 -787.8 L-802 -787.9 L-803 -787.9 L-803.9 -787.9 L-804.9 -787.9 L-805.9 -787.9 L-806.9 -787.9 L-807.9 -787.9 L-808.8 -787.9 L-809.8 -788 L-810.8 -788 L-811.8 -788 L-812.8 -788 L-812.8 -789 L-812.8 -790 L-812.7 -790.9 L-812.7 -791.9 L-812.7 -792.9 L-812.7 -793.9 L-812.7 -794.9 L-812.7 -795.8 L-812.7 -796.8 L-812.7 -797.8 L-812.6 -798.8 L-812.6 -799.8 L-812.6 -800.8 L-812.6 -801.7 L-812.6 -802.7 L-812.6 -803.7 L-812.6 -804.7 L-812.6 -805.7 L-812.6 -806.6 L-812.5 -807.6 L-812.5 -808.6 L-812.5 -809.6 L-812.5 -810.6 L-812.5 -811.6 L-812.5 -812.5 L-811.5 -812.5 L-810.5 -812.5 L-809.5 -812.5 L-808.6 -812.5 L-807.6 -812.5 L-806.6 -812.5 L-805.6 -812.5 L-804.6 -812.4 L-803.6 -812.4 L-802.7 -812.4 L-801.7 -812.4 L-800.7 -812.4 L-799.7 -812.4 L-798.7 -812.4 L-797.8 -812.4 L-796.8 -812.3 L-795.8 -812.3 L-794.8 -812.3 L-793.8 -812.3 L-792.8 -812.3 L-791.9 -812.3 L-790.9 -812.3 L-789.9 -812.3 L-788.9 -812.3 L-787.9 -812.2 Z " />
<path stroke="rgb(0,0,0)" stroke-opacity="1" fill="rgb(255,255,255)" fill-opacity="1" d="M-75.3 -199.7 L-75.4 -197.7 L-75.66 -195.8 L-76.07 -193.9 L-76.64 -192 L-77.35 -190.1 L-78.2 -188.4 L-79.2 -186.7 L-80.32 -185.1 L-81.57 -183.6 L-82.94 -182.1 L-84.41 -180.8 L-85.98 -179.7 L-87.64 -178.6 L-89.38 -177.7 L-91.19 -176.9 L-93.05 -176.3 L-94.95 -175.8 L-96.89 -175.5 L-98.85 -175.3 L-100.8 -175.3 L-102.8 -175.5 L-104.7 -175.8 L-106.6 -176.2 L-108.5 -176.8 L-110.3 -177.6 L-112.1 -178.4 L-113.7 -179.5 L-115.3 -180.6 L-116.8 -181.9 L-118.2 -183.3 L-119.5 -184.8 L-120.6 -186.4 L-121.6 -188.1 L-122.5 -189.8 L-123.2 -191.7 L-123.8 -193.5 L-124.3 -195.4 L-124.6 -197.4 L-124.7 -199.3 L-124.7 -201.3 L-124.5 -203.3 L-124.1 -205.2 L-123.7 -207.1 L-123 -209 L-122.2 -210.8 L-121.3 -212.5 L-120.2 -214.1 L-119.1 -215.7 L-117.8 -217.2 L-116.3 -218.5 L-114.8 -219.8 L-113.2 -220.9 L-111.5 -221.9 L-109.7 -222.7 L-107.9 -223.4 L-106 -224 L-104.1 -224.4 L-102.1 -224.6 L-100.2 -224.7 L-98.2 -224.6 L-96.25 -224.4 L-94.32 -224 L-92.43 -223.5 L-90.58 -222.8 L-88.8 -222 L-87.09 -221.1 L-85.45 -220 L-83.91 -218.8 L-82.47 -217.4 L-81.15 -216 L-79.94 -214.4 L-78.86 -212.8 L-77.91 -211.1 L-77.1 -209.3 L-76.44 -207.4 L-75.92 -205.5 L-75.56 -203.6 L-75.35 -201.6 L-75.3 -199.7 Z " />
<path stroke="rgb(0,0,0)" stroke-opacity="1" fill="rgb(255,255,255)" fill-opacity="1" d="M-587.9 -812.2 L-588 -811.3 L-588 -810.3 L-588 -809.3 L-588 -808.3 L-588 -807.3 L-588 -806.3 L-588 -805.4 L-588 -804.4 L-588 -803.4 L-588.1 -802.4 L-588.1 -801.4 L-588.1 -800.5 L-588.1 -799.5 L-588.1 -798.5 L-588.1 -797.5 L-588.1 -796.5 L-588.1 -795.5 L-588.2 -794.6 L-588.2 -793.6 L-588.2 -792.6 L-588.2 -791.6 L-588.2 -790.6 L-588.2 -789.7 L-588.2 -788.7 L-588.2 -787.7 L-589.2 -787.7 L-590.2 -787.7 L-591.2 -787.7 L-592.2 -787.7 L-593.1 -787.8 L-594.1 -787.8 L-595.1 -787.8 L-596.1 -787.8 L-597.1 -787.8 L-598.1 -787.8 L-599 -787.8 L-600 -787.8 L-601 -787.8 L-602 -787.9 L-603 -787.9 L-603.9 -787.9 L-604.9 -787.9 L-605.9 -787.9 L-606.9 -787.9 L-607.9 -787.9 L-608.8 -787.9 L-609.8 -788 L-610.8 -788 L-611.8 -788 L-612.8 -788 L-612.8 -789 L-612.8 -790 L-612.7 -790.9 L-612.7 -791.9 L-612.7 -792.9 L-612.7 -793.9 L-612.7 -794.9 L-612.7 -795.8 L-612.7 -796.8 L-612.7 -797.8 L-612.6 -798.8 L-612.6 -799.8 L-612.6 -800.8 L-612.6 -801.7 L-612.6 -802.7 L-612.6 -803.7 L-612.6 -804.7 L-612.6 -805.7 L-612.6 -806.6 L-612.5 -807.6 L-612.5 -808.6 L-612.5 -809.6 L-612.5 -810.6 L-612.5 -811.6 L-612.5 -812.5 L-611.5 -812.5 L-610.5 -812.5 L-609.5 -812.5 L-608.6 -812.5 L-607.6 -812.5 L-606.6 -812.5 L-605.6 -812.5 L-604.6 -812.4 L-603.6 -812.4 L-602.7 -812.4 L-601.7 -812.4 L-600.7 -812.4 L-599.7 -812.4 L-598.7 -812.4 L-597.8 -812.4 L-596.8 -812.3 L-595.8 -812.3 L-594.8 -812.3 L-593.8 -812.3 L-592.8 -812.3 L-591.9 -812.3 L-590.9 -812.3 L-589.9 -812.3 L-588.9 -812.3 L-587.9 -812.2 Z " />
<path stroke="rgb(0,0,0)" stroke-opacity="1" fill="rgb(255,255,255)" fill-opacity="1" d="M122.9 -203.2 L123 -201.4 L123.1 -199.6 L123 -197.7 L122.7 -195.9 L122.3 -194.1 L121.8 -192.4 L121.1 -190.7 L120.3 -189 L119.4 -187.4 L118.3 -185.9 L117.2 -184.5 L115.9 -183.2 L114.5 -182 L113 -180.9 L111.5 -179.9 L109.9 -179.1 L108.2 -178.4 L106.4 -177.8 L104.7 -177.4 L102.8 -177.1 L101 -176.9 L99.19 -176.9 L97.36 -177 L95.54 -177.3 L93.76 -177.8 L92.02 -178.3 L90.32 -179 L88.69 -179.9 L87.13 -180.8 L85.65 -181.9 L84.27 -183.1 L82.98 -184.4 L81.8 -185.8 L80.73 -187.3 L79.79 -188.9 L78.97 -190.5 L78.29 -192.2 L77.75 -194 L77.34 -195.8 L77.08 -197.6 L76.97 -199.4 L77 -201.3 L77.17 -203.1 L77.49 -204.9 L77.96 -206.7 L78.56 -208.4 L79.3 -210.1 L80.17 -211.7 L81.16 -213.2 L82.28 -214.7 L83.5 -216.1 L84.83 -217.3 L86.26 -218.5 L87.77 -219.5 L89.37 -220.4 L91.02 -221.2 L92.74 -221.8 L94.5 -222.4 L96.3 -222.7 L98.12 -222.9 L99.95 -223 L101.8 -223 L103.6 -222.7 L105.4 -222.4 L107.2 -221.9 L108.9 -221.3 L110.6 -220.5 L112.2 -219.6 L113.7 -218.6 L115.1 -217.4 L116.4 -216.2 L117.7 -214.8 L118.8 -213.4 L119.8 -211.8 L120.7 -210.2 L121.4 -208.5 L122.1 -206.8 L122.5 -205 L122.9 -203.2 Z " />
<path stroke="rgb(0,0,0)" stroke-opacity="1" fill="rgb(255,255,255)" fill-opacity="1" d="M-387.9 -812.2 L-388 -811.3 L-388 -810.3 L-388 -809.3 L-388 -808.3 L-388 -807.3 L-388 -806.3 L-388 -805.4 L-388 -804.4 L-388 -803.4 L-388.1 -802.4 L-388.1 -801.4 L-388.1 -800.5 L-388.1 -799.5 L-388.1 -798.5 L-388.1 -797.5 L-388.1 -796.5 L-388.1 -795.5 L-388.2 -794.6 L-388.2 -793.6 L-388.2 -792.6 L-388.2 -791.6 L-388.2 -790.6 L-388.2 -789.7 L-388.2 -788.7 L-388.2 -787.7 L-389.2 -787.7 L-390.2 -787.7 L-391.2 -787.7 L-392.2 -787.7 L-393.1 -787.8 L-394.1 -787.8 L-395.1 -787.8 L-396.1 -787.8 L-397.1 -787.8 L-398.1 -787.8 L-399 -787.8 L-400 -787.8 L-401 -787.8 L-402 -787.9 L-403 -787.9 L-403.9 -787.9 L-404.9 -787.9 L-405.9 -787.9 L-406.9 -787.9 L-407.9 -787.9 L-408.8 -787.9 L-409.8 -788 L-410.8 -788 L-411.8 -788 L-412.8 -788 L-412.8 -789 L-412.8 -790 L-412.7 -790.9 L-412.7 -791.9 L-412.7 -792.9 L-412.7 -793.9 L-412.7 -794.9 L-412.7 -795.8 L-412.7 -796.8 L-412.7 -797.8 L-412.6 -798.8 L-412.6 -799.8 L-412.6 -800.8 L-412.6 -801.7 L-412.6 -802.7 L-412.6 -803.7 L-412.6 -804.7 L-412.6 -805.7 L-412.6 -806.6 L-412.5 -807.6 L-412.5 -808.6 L-412.5 -809.6 L-412.5 -810.6 L-412.5 -811.6 L-412.5 -812.5 L-411.5 -812.5 L-410.5 -812.5 L-409.5 -812.5 L-408.6 -812.5 L-407.6 -812.5 L-406.6 -812.5 L-405.6 -812.5 L-404.6 -812.4 L-403.6 -812.4 L-402.7 -812.4 L-401.7 -812.4 L-400.7 -812.4 L-399.7 -812.4 L-398.7 -812.4 L-397.8 -812.4 L-396.8 -812.3 L-395.8 -812.3 L-394.8 -812.3 L-393.8 -812.3 L-392.8 -812.3 L-391.9 -812.3 L-390.9 -812.3 L-389.9 -812.3 L-388.9 -812.3 L-387.9 -812.2 Z " />
<path stroke="rgb(0,0,0)" stroke-opacity="1" fill="rgb(255,255,255)" fill-opacity="1" d="M309.5 -213 L310.6 -212.2 L311.5 -211.3 L312.4 -210.4 L313.2 -209.4 L313.9 -208.3 L314.5 -207.2 L315.1 -206.1 L315.5 -204.9 L315.9 -203.6 L316.1 -202.4 L316.3 -201.1 L316.3 -199.8 L316.3 -198.5 L316.1 -197.3 L315.9 -196 L315.5 -194.8 L315.1 -193.6 L314.5 -192.4 L313.9 -191.3 L313.2 -190.2 L312.4 -189.2 L311.5 -188.3 L310.5 -187.4 L309.5 -186.6 L308.4 -186 L307.3 -185.3 L306.1 -184.8 L304.9 -184.4 L303.7 -184.1 L302.4 -183.8 L301.1 -183.7 L299.9 -183.7 L298.6 -183.8 L297.3 -184 L296 -184.2 L294.8 -184.6 L293.6 -185.1 L292.5 -185.7 L291.4 -186.3 L290.3 -187.1 L289.3 -187.9 L288.4 -188.8 L287.6 -189.8 L286.8 -190.8 L286.2 -191.9 L285.6 -193 L285.1 -194.2 L284.7 -195.4 L284.4 -196.7 L284.2 -197.9 L284.1 -199.2 L284.1 -200.5 L284.2 -201.8 L284.4 -203 L284.7 -204.3 L285.1 -205.5 L285.6 -206.7 L286.2 -207.8 L286.9 -208.9 L287.6 -210 L288.5 -210.9 L289.4 -211.8 L290.4 -212.6 L291.4 -213.4 L292.5 -214 L293.7 -214.6 L294.9 -215.1 L296.1 -215.4 L297.3 -215.7 L298.6 -215.9 L299.9 -216 L301.2 -215.9 L302.5 -215.8 L303.7 -215.6 L305 -215.3 L306.2 -214.8 L307.3 -214.3 L308.5 -213.7 L309.5 -213 Z " />
<path stroke="rgb(0,0,0)" stroke-opacity="1" fill="rgb(255,255,255)" fill-opacity="1" d="M-887.9 -712.2 L-888 -711.3 L-888 -710.3 L-888 -709.3 L-888 -708.3 L-888 -707.3 L-888 -706.3 L-888 -705.4 L-888 -704.4 L-888 -703.4 L-888.1 -702.4 L-888.1 -701.4 L-888.1 -700.5 L-888.1 -699.5 L-888.1 -698.5 L-888.1 -697.5 L-888.1 -696.5 L-888.1 -695.5 L-888.2 -694.6 L-888.2 -693.6 L-888.2 -692.6 L-888.2 -691.6 L-888.2 -690.6 L-888.2 -689.7 L-888.2 -688.7 L-888.2 -687.7 L-889.2 -687.7 L-890.2 -687.7 L-891.2 -687.7 L-892.2 -687.7 L-893.1 -687.8 L-894.1 -687.8 L-895.1 -687.8 L-896.1 -687.8 L-897.1 -687.8 L-898.1 -687.8 L-899 -687.8 L-900 -687.8 L-901 -687.8 L-902 -687.9 L-903 -687.9 L-903.9 -687.9 L-904.9 -687.9 L-905.9 -687.9 L-906.9 -687.9 L-907.9 -687.9 L-908.8 -687.9 L-909.8 -688 L-910.8 -688 L-911.8 -688 L-912.8 -688 L-912.8 -689 L-912.8 -690 L-912.7 -690.9 L-912.7 -691.9 L-912.7 -692.9 L-912.7 -693.9 L-912.7 -694.9 L-912.7 -695.8 L-912.7 -696.8 L-912.7 -697.8 L-912.6 -698.8 L-912.6 -699.8 L-912.6 -700.8 L-912.6 -701.7 L-912.6 -702.7 L-912.6 -703.7 L-912.6 -704.7 L-912.6 -705.7 L-912.6 -706.6 L-912.5 -707.6 L-912.5 -708.6 L-912.5 -709.6 L-912.5 -710.6 L-912.5 -711.6 L-912.5 -712.5 L-911.5 -712.5 L-910.5 -712.5 L-909.5 -712.5 L-908.6 -712.5 L-907.6 -712.5 L-906.6 -712.5 L-905.6 -712.5 L-904.6 -712.4 L-903.6 -712.4 L-902.7 -712.4 L-901.7 -712.4 L-900.7 -712.4 L-899.7 -712.4 L-898.7 -712.4 L-897.8 -712.4 L-896.8 -712.3 L-895.8 -712.3 L-894.8 -712.3 L-893.8 -712.3 L-892.8 -712.3 L-891.9 -712.3 L-890.9 -712.3 L-889.9 -712.3 L-888.9 -712.3 L-887.9 -712.2 Z " />
<path stroke="rgb(0,0,0)" stroke-opacity="1" fill="rgb(255,255,255)" fill-opacity="1" d="M-175.3 -99.68 L-175.4 -97.72 L-175.7 -95.77 L-176.1 -93.85 L-176.6 -91.97 L-177.3 -90.14 L-178.2 -88.37 L-179.2 -86.68 L-180.3 -85.07 L-181.6 -83.55 L-182.9 -82.14 L-184.4 -80.84 L-186 -79.66 L-187.6 -78.61 L-189.4 -77.7 L-191.2 -76.93 L-193 -76.3 L-195 -75.82 L-196.9 -75.5 L-198.8 -75.33 L-200.8 -75.32 L-202.8 -75.46 L-204.7 -75.76 L-206.6 -76.21 L-208.5 -76.81 L-210.3 -77.56 L-212.1 -78.45 L-213.7 -79.47 L-215.3 -80.63 L-216.8 -81.91 L-218.2 -83.3 L-219.5 -84.8 L-220.6 -86.4 L-221.6 -88.08 L-222.5 -89.83 L-223.2 -91.65 L-223.8 -93.53 L-224.3 -95.44 L-224.6 -97.39 L-224.7 -99.35 L-224.7 -101.3 L-224.5 -103.3 L-224.1 -105.2 L-223.7 -107.1 L-223 -109 L-222.2 -110.8 L-221.3 -112.5 L-220.2 -114.1 L-219.1 -115.7 L-217.8 -117.2 L-216.3 -118.5 L-214.8 -119.8 L-213.2 -120.9 L-211.5 -121.9 L-209.7 -122.7 L-207.9 -123.4 L-206 -124 L-204.1 -124.4 L-202.1 -124.6 L-200.2 -124.7 L-198.2 -124.6 L-196.2 -124.4 L-194.3 -124 L-192.4 -123.5 L-190.6 -122.8 L-188.8 -122 L-187.1 -121.1 L-185.5 -120 L-183.9 -118.8 L-182.5 -117.4 L-181.1 -116 L-179.9 -114.4 L-178.9 -112.8 L-177.9 -111.1 L-177.1 -109.3 L-176.4 -107.4 L-175.9 -105.5 L-175.6 -103.6 L-175.3 -101.6 L-175.3 -99.68 Z " />
<path stroke="rgb(0,0,0)" stroke-opacity="1" fill="rgb(255,255,255)" fill-opacity="1" d="M-687.9 -712.2 L-688 -711.3 L-688 -710.3 L-688 -709.3 L-688 -708.3 L-688 -707.3 L-688 -706.3 L-688 -705.4 L-688 -704.4 L-688 -703.4 L-688.1 -702.4 L-688.1 -701.4 L-688.1 -700.5 L-688.1 -699.5 L-688.1 -698.5 L-688.1 -697.5 L-688.1 -696.5 L-688.1 -695.5 L-688.2 -694.6 L-688.2 -693.6 L-688.2 -692.6 L-688.2 -691.6 L-688.2 -690.6 L-688.2 -689.7 L-688.2 -688.7 L-688.2 -687.7 L-689.2 -687.7 L-690.2 -687.7 L-691.2 -687.7 L-692.2 -687.7 L-693.1 -687.8 L-694.1 -687.8 L-695.1 -687.8 L-696.1 -687.8 L-697.1 -687.8 L-698.1 -687.8 L-699 -687.8 L-700 -687.8 L-701 -687.8 L-702 -687.9 L-703 -687.9 L-703.9 -687.9 L-704.9 -687.9 L-705.9 -687.9 L-706.9 -687.9 L-707.9 -687.9 L-708.8 -687.9 L-709.8 -688 L-710.8 -688 L-711.8 -688 L-712.8 -688 L-712.8 -689 L-712.8 -690 L-712.7 -690.9 L-712.7 -691.9 L-712.7 -692.9 L-712.7 -693.9 L-712.7 -694.9 L-712.7 -695.8 L-712.7 -696.8 L-712.7 -697.8 L-712.6 -698.8 L-712.6 -699.8 L-712.6 -700.8 L-712.6 -701.7 L-712.6 -702.7 L-712.6 -703.7 L-712.6 -704.7 L-712.6 -705.7 L-712.6 -706.6 L-712.5 -707.6 L-712.5 -708.6 L-712.5 -709.6 L-712.5 -710.6 L-712.5 -711.6 L-712.5 -712.5 L-711.5 -712.5 L-710.5 -712.5 L-709.5 -712.5 L-708.6 -712.5 L-707.6 -712.5 L-706.6 -712.5 L-705.6 -712.5 L-704.6 -712.4 L-703.6 -712.4 L-702.7 -712.4 L-701.7 -712.4 L-700.7 -712.4 L-699.7 -712.4 L-698.7 -712.4 L-697.8 -712.4 L-696.8 -712.3 L-695.8 -712.3 L-694.8 -712.3 L-693.8 -712.3 L-692.8 -712.3 L-691.9 -712.3 L-690.9 -712.3 L-689.9 -712.3 L-688.9 -712.3 L-687.9 -712.2 Z " />
<path stroke="rgb(0,0,0)" stroke-opacity="1" fill="rgb(255,255,255)" fill-opacity="1" d="M22.86 -103.2 L23.05 -101.4 L23.09 -99.58 L22.99 -97.74 L22.74 -95.93 L22.35 -94.14 L21.81 -92.38 L21.14 -90.67 L20.34 -89.03 L19.4 -87.45 L18.35 -85.95 L17.18 -84.54 L15.9 -83.22 L14.52 -82.01 L13.05 -80.92 L11.49 -79.94 L9.867 -79.1 L8.178 -78.38 L6.438 -77.8 L4.657 -77.36 L2.847 -77.07 L1.019 -76.91 L-0.8146 -76.91 L-2.643 -77.05 L-4.455 -77.33 L-6.239 -77.76 L-7.983 -78.33 L-9.676 -79.03 L-11.31 -79.87 L-12.87 -80.83 L-14.35 -81.92 L-15.73 -83.12 L-17.02 -84.42 L-18.2 -85.83 L-19.27 -87.32 L-20.21 -88.89 L-21.03 -90.54 L-21.71 -92.24 L-22.25 -93.99 L-22.66 -95.78 L-22.92 -97.59 L-23.03 -99.43 L-23 -101.3 L-22.83 -103.1 L-22.51 -104.9 L-22.04 -106.7 L-21.44 -108.4 L-20.7 -110.1 L-19.83 -111.7 L-18.84 -113.2 L-17.72 -114.7 L-16.5 -116.1 L-15.17 -117.3 L-13.74 -118.5 L-12.23 -119.5 L-10.63 -120.4 L-8.975 -121.2 L-7.26 -121.8 L-5.498 -122.4 L-3.701 -122.7 L-1.881 -122.9 L-0.0483 -123 L1.785 -123 L3.606 -122.7 L5.405 -122.4 L7.17 -121.9 L8.89 -121.3 L10.55 -120.5 L12.15 -119.6 L13.67 -118.6 L15.11 -117.4 L16.45 -116.2 L17.68 -114.8 L18.8 -113.4 L19.81 -111.8 L20.69 -110.2 L21.44 -108.5 L22.05 -106.8 L22.53 -105 L22.86 -103.2 Z " />
<path stroke="rgb(0,0,0)" stroke-opacity="1" fill="rgb(255,255,255)" fill-opacity="1" d="M-487.9 -712.2 L-488 -711.3 L-488 -710.3 L-488 -709.3 L-488 -708.3 L-488 -707.3 L-488 -706.3 L-488 -705.4 L-488 -704.4 L-488 -703.4 L-488.1 -702.4 L-488.1 -701.4 L-488.1 -700.5 L-488.1 -699.5 L-488.1 -698.5 L-488.1 -697.5 L-488.1 -696.5 L-488.1 -695.5 L-488.2 -694.6 L-488.2 -693.6 L-488.2 -692.6 L-488.2 -691.6 L-488.2 -690.6 L-488.2 -689.7 L-488.2 -688.7 L-488.2 -687.7 L-489.2 -687.7 L-490.2 -687.7 L-491.2 -687.7 L-492.2 -687.7 L-493.1 -687.8 L-494.1 -687.8 L-495.1 -687.8 L-496.1 -687.8 L-497.1 -687.8 L-498.1 -687.8 L-499 -687.8 L-500 -687.8 L-501 -687.8 L-502 -687.9 L-503 -687.9 L-503.9 -687.9 L-504.9 -687.9 L-505.9 -687.9 L-506.9 -687.9 L-507.9 -687.9 L-508.8 -687.9 L-509.8 -688 L-510.8 -688 L-511.8 -688 L-512.8 -688 L-512.8 -689 L-512.8 -690 L-512.7 -690.9 L-512.7 -691.9 L-512.7 -692.9 L-512.7 -693.9 L-512.7 -694.9 L-512.7 -695.8 L-512.7 -696.8 L-512.7 -697.8 L-512.6 -698.8 L-512.6 -699.8 L-512.6 -700.8 L-512.6 -701.7 L-512.6 -702.7 L-512.6 -703.7 L-512.6 -704.7 L-512.6 -705.7 L-512.6 -706.6 L-512.5 -707.6 L-512.5 -708.6 L-512.5 -709.6 L-512.5 -710.6 L-512.5 -711.6 L-512.5 -712.5 L-511.5 -712.5 L-510.5 -712.5 L-509.5 -712.5 L-508.6 -712.5 L-507.6 -712.5 L-506.6 -712.5 L-505.6 -712.5 L-504.6 -712.4 L-503.6 -712.4 L-502.7 -712.4 L-501.7 -712.4 L-500.7 -712.4 L-499.7 -712.4 L-498.7 -712.4 L-497.8 -712.4 L-496.8 -712.3 L-495.8 -712.3 L-494.8 -712.3 L-493.8 -712.3 L-492.8 -712.3 L-491.9 -712.3 L-490.9 -712.3 L-489.9 -712.3 L-488.9 -712.3 L-487.9 -712.2 Z " />
<path stroke="rgb(0,0,0)" stroke-opacity="1" fill="rgb(255,255,255)" fill-opacity="1" d="M209.5 -113 L210.6 -112.2 L211.5 -111.3 L212.4 -110.4 L213.2 -109.4 L213.9 -108.3 L214.5 -107.2 L215.1 -106.1 L215.5 -104.9 L215.9 -103.6 L216.1 -102.4 L216.3 -101.1 L216.3 -99.81 L216.3 -98.53 L216.1 -97.26 L215.9 -96 L215.5 -94.76 L215.1 -93.56 L214.5 -92.4 L213.9 -91.29 L213.2 -90.22 L212.4 -89.22 L211.5 -88.29 L210.5 -87.43 L209.5 -86.65 L208.4 -85.95 L207.3 -85.34 L206.1 -84.82 L204.9 -84.4 L203.7 -84.07 L202.4 -83.85 L201.1 -83.72 L199.9 -83.7 L198.6 -83.77 L197.3 -83.95 L196 -84.23 L194.8 -84.61 L193.6 -85.09 L192.5 -85.66 L191.4 -86.32 L190.3 -87.06 L189.3 -87.88 L188.4 -88.78 L187.6 -89.75 L186.8 -90.79 L186.2 -91.88 L185.6 -93.02 L185.1 -94.2 L184.7 -95.42 L184.4 -96.67 L184.2 -97.94 L184.1 -99.22 L184.1 -100.5 L184.2 -101.8 L184.4 -103 L184.7 -104.3 L185.1 -105.5 L185.6 -106.7 L186.2 -107.8 L186.9 -108.9 L187.6 -110 L188.5 -110.9 L189.4 -111.8 L190.4 -112.6 L191.4 -113.4 L192.5 -114 L193.7 -114.6 L194.9 -115.1 L196.1 -115.4 L197.3 -115.7 L198.6 -115.9 L199.9 -116 L201.2 -115.9 L202.5 -115.8 L203.7 -115.6 L205 -115.3 L206.2 -114.8 L207.3 -114.3 L208.5 -113.7 L209.5 -113 Z " />
<path stroke="rgb(0,0,0)" stroke-opacity="1" fill="rgb(255,255,255)" fill-opacity="1" d="M-287.9 -712.2 L-288 -711.3 L-288 -710.3 L-288 -709.3 L-288 -708.3 L-288 -707.3 L-288 -706.3 L-288 -705.4 L-288 -704.4 L-288 -703.4 L-288.1 -702.4 L-288.1 -701.4 L-288.1 -700.5 L-288.1 -699.5 L-288.1 -698.5 L-288.1 -697.5 L-288.1 -696.5 L-288.1 -695.5 L-288.2 -694.6 L-288.2 -693.6 L-288.2 -692.6 L-288.2 -691.6 L-288.2 -690.6 L-288.2 -689.7 L-288.2 -688.7 L-288.2 -687.7 L-289.2 -687.7 L-290.2 -687.7 L-291.2 -687.7 L-292.2 -687.7 L-293.1 -687.8 L-294.1 -687.8 L-295.1 -687.8 L-296.1 -687.8 L-297.1 -687.8 L-298.1 -687.8 L-299 -687.8 L-300 -687.8 L-301 -687.8 L-302 -687.9 L-303 -687.9 L-303.9 -687.9 L-304.9 -687.9 L-305.9 -687.9 L-306.9 -687.9 L-307.9 -687.9 L-308.8 -687.9 L-309.8 -688 L-310.8 -688 L-311.8 -688 L-312.8 -688 L-312.8 -689 L-312.8 -690 L-312.7 -690.9 L-312.7 -691.9 L-312.7 -692.9 L-312.7 -693.9 L-312.7 -694.9 L-312.7 -695.8 L-312.7 -696.8 L-312.7 -697.8 L-312.6 -698.8 L-312.6 -699.8 L-312.6 -700.8 L-312.6 -701.7 L-312.6 -702.7 L-312.6 -703.7 L-312.6 -704.7 L-312.6 -705.7 L-312.6 -706.6 L-312.5 -707.6 L-312.5 -708.6 L-312.5 -709.6 L-312.5 -710.6 L-312.5 -711.6 L-312.5 -712.5 L-311.5 -712.5 L-310.5 -712.5 L-309.5 -712.5 L-308.6 -712.5 L-307.6 -712.5 L-306.6 -712.5 L-305.6 -712.5 L-304.6 -712.4 L-303.6 -712.4 L-302.7 -712.4 L-301.7 -712.4 L-300.7 -712.4 L-299.7 -712.4 L-298.7 -712.4 L-297.8 -712.4 L-296.8 -712.3 L-295.8 -712.3 L-294.8 -712.3 L-293.8 -712.3 L-292.8 -712.3 L-291.9 -712.3 L-290.9 -712.3 L-289.9 -712.3 L-288.9 -712.3 L-287.9 -712.2 Z " />
<path stroke="rgb(0,0,0)" stroke-opacity="1" fill="rgb(255,255,255)" fill-opacity="1" d="M-275.3 0.3195 L-275.4 2.281 L-275.7 4.228 L-276.1 6.148 L-276.6 8.029 L-277.3 9.86 L-278.2 11.63 L-279.2 13.32 L-280.3 14.93 L-281.6 16.45 L-282.9 17.86 L-284.4 19.16 L-286 20.34 L-287.6 21.39 L-289.4 22.3 L-291.2 23.07 L-293 23.7 L-295 24.18 L-296.9 24.5 L-298.8 24.67 L-300.8 24.68 L-302.8 24.54 L-304.7 24.24 L-306.6 23.79 L-308.5 23.19 L-310.3 22.44 L-312.1 21.55 L-313.7 20.53 L-315.3 19.37 L-316.8 18.09 L-318.2 16.7 L-319.5 15.2 L-320.6 13.6 L-321.6 11.92 L-322.5 10.17 L-323.2 8.345 L-323.8 6.472 L-324.3 4.558 L-324.6 2.614 L-324.7 0.6546 L-324.7 -1.309 L-324.5 -3.265 L-324.1 -5.2 L-323.7 -7.102 L-323 -8.96 L-322.2 -10.76 L-321.3 -12.49 L-320.2 -14.15 L-319.1 -15.71 L-317.8 -17.18 L-316.3 -18.53 L-314.8 -19.77 L-313.2 -20.89 L-311.5 -21.87 L-309.7 -22.71 L-307.9 -23.41 L-306 -23.97 L-304.1 -24.37 L-302.1 -24.61 L-300.2 -24.7 L-298.2 -24.64 L-296.2 -24.42 L-294.3 -24.04 L-292.4 -23.52 L-290.6 -22.84 L-288.8 -22.02 L-287.1 -21.06 L-285.5 -19.97 L-283.9 -18.75 L-282.5 -17.42 L-281.1 -15.97 L-279.9 -14.42 L-278.9 -12.78 L-277.9 -11.06 L-277.1 -9.271 L-276.4 -7.423 L-275.9 -5.527 L-275.6 -3.597 L-275.3 -1.644 L-275.3 0.3195 Z " />
<path stroke="rgb(0,0,0)" stroke-opacity="1" fill="rgb(255,255,255)" fill-opacity="1" d="M-787.9 -612.2 L-788 -611.3 L-788 -610.3 L-788 -609.3 L-788 -608.3 L-788 -607.3 L-788 -606.3 L-788 -605.4 L-788 -604.4 L-788 -603.4 L-788.1 -602.4 L-788.1 -601.4 L-788.1 -600.5 L-788.1 -599.5 L-788.1 -598.5 L-788.1 -597.5 L-788.1 -596.5 L-788.1 -595.5 L-788.2 -594.6 L-788.2 -593.6 L-788.2 -592.6 L-788.2 -591.6 L-788.2 -590.6 L-788.2 -589.7 L-788.2 -588.7 L-788.2 -587.7 L-789.2 -587.7 L-790.2 -587.7 L-791.2 -587.7 L-792.2 -587.7 L-793.1 -587.8 L-794.1 -587.8 L-795.1 -587.8 L-796.1 -587.8 L-797.1 -587.8 L-798.1 -587.8 L-799 -587.8 L-800 -587.8 L-801 -587.8 L-802 -587.9 L-803 -587.9 L-803.9 -587.9 L-804.9 -587.9 L-805.9 -587.9 L-806.9 -587.9 L-807.9 -587.9 L-808.8 -587.9 L-809.8 -588 L-810.8 -588 L-811.8 -588 L-812.8 -588 L-812.8 -589 L-812.8 -590 L-812.7 -590.9 L-812.7 -591.9 L-812.7 -592.9 L-812.7 -593.9 L-812.7 -594.9 L-812.7 -595.8 L-812.7 -596.8 L-812.7 -597.8 L-812.6 -598.8 L-812.6 -599.8 L-812.6 -600.8 L-812.6 -601.7 L-812.6 -602.7 L-812.6 -603.7 L-812.6 -604.7 L-812.6 -605.7 L-812.6 -606.6 L-812.5 -607.6 L-812.5 -608.6 L-812.5 -609.6 L-812.5 -610.6 L-812.5 -611.6 L-812.5 -612.5 L-811.5 -612.5 L-810.5 -612.5 L-809.5 -612.5 L-808.6 -612.5 L-807.6 -612.5 L-806.6 -612.5 L-805.6 -612.5 L-804.6 -612.4 L-803.6 -612.4 L-802.7 -612.4 L-801.7 -612.4 L-800.7 -612.4 L-799.7 -612.4 L-798.7 -612.4 L-797.8 -612.4 L-796.8 -612.3 L-795.8 -612.3 L-794.8 -612.3 L-793.8 -612.3 L-792.8 -612.3 L-791.9 -612.3 L-790.9 -612.3 L-789.9 -612.3 L-788.9 -612.3 L-787.9 -612.2 Z " />
<path stroke="rgb(0,0,0)" stroke-opacity="1" fill="rgb(255,255,255)" fill-opacity="1" d="M-77.14 -3.234 L-76.95 -1.409 L-76.91 0.4242 L-77.01 2.255 L-77.26 4.072 L-77.65 5.864 L-78.19 7.619 L-78.86 9.326 L-79.66 10.97 L-80.6 12.55 L-81.65 14.05 L-82.82 15.46 L-84.1 16.78 L-85.48 17.99 L-86.95 19.08 L-88.51 20.06 L-90.13 20.9 L-91.82 21.62 L-93.56 22.2 L-95.34 22.64 L-97.15 22.93 L-98.98 23.09 L-100.8 23.09 L-102.6 22.95 L-104.5 22.67 L-106.2 22.24 L-108 21.67 L-109.7 20.97 L-111.3 20.13 L-112.9 19.17 L-114.3 18.08 L-115.7 16.88 L-117 15.58 L-118.2 14.17 L-119.3 12.68 L-120.2 11.11 L-121 9.464 L-121.7 7.761 L-122.3 6.01 L-122.7 4.221 L-122.9 2.405 L-123 0.5749 L-123 -1.259 L-122.8 -3.084 L-122.5 -4.89 L-122 -6.665 L-121.4 -8.397 L-120.7 -10.08 L-119.8 -11.69 L-118.8 -13.23 L-117.7 -14.69 L-116.5 -16.05 L-115.2 -17.31 L-113.7 -18.47 L-112.2 -19.5 L-110.6 -20.41 L-109 -21.2 L-107.3 -21.84 L-105.5 -22.35 L-103.7 -22.72 L-101.9 -22.95 L-100 -23.03 L-98.22 -22.96 L-96.39 -22.75 L-94.59 -22.39 L-92.83 -21.89 L-91.11 -21.25 L-89.45 -20.48 L-87.85 -19.58 L-86.33 -18.56 L-84.89 -17.41 L-83.55 -16.16 L-82.32 -14.8 L-81.2 -13.35 L-80.19 -11.82 L-79.31 -10.21 L-78.56 -8.537 L-77.95 -6.809 L-77.47 -5.038 L-77.14 -3.234 Z " />
<path stroke="rgb(0,0,0)" stroke-opacity="1" fill="rgb(255,255,255)" fill-opacity="1" d="M-587.9 -612.2 L-588 -611.3 L-588 -610.3 L-588 -609.3 L-588 -608.3 L-588 -607.3 L-588 -606.3 L-588 -605.4 L-588 -604.4 L-588 -603.4 L-588.1 -602.4 L-588.1 -601.4 L-588.1 -600.5 L-588.1 -599.5 L-588.1 -598.5 L-588.1 -597.5 L-588.1 -596.5 L-588.1 -595.5 L-588.2 -594.6 L-588.2 -593.6 L-588.2 -592.6 L-588.2 -591.6 L-588.2 -590.6 L-588.2 -589.7 L-588.2 -588.7 L-588.2 -587.7 L-589.2 -587.7 L-590.2 -587.7 L-591.2 -587.7 L-592.2 -587.7 L-593.1 -587.8 L-594.1 -587.8 L-595.1 -587.8 L-596.1 -587.8 L-597.1 -587.8 L-598.1 -587.8 L-599 -587.8 L-600 -587.8 L-601 -587.8 L-602 -587.9 L-603 -587.9 L-603.9 -587.9 L-604.9 -587.9 L-605.9 -587.9 L-606.9 -587.9 L-607.9 -587.9 L-608.8 -587.9 L-609.8 -588 L-610.8 -588 L-611.8 -588 L-612.8 -588 L-612.8 -589 L-612.8 -590 L-612.7 -590.9 L-612.7 -591.9 L-612.7 -592.9 L-612.7 -593.9 L-612.7 -594.9 L-612.7 -595.8 L-612.7 -596.8 L-612.7 -597.8 L-612.6 -598.8 L-612.6 -599.8 L-612.6 -600.8 L-612.6 -601.7 L-612.6 -602.7 L-612.6 -603.7 L-612.6 -604.7 L-612.6 -605.7 L-612.6 -606.6 L-612.5 -607.6 L-612.5 -608.6 L-612.5 -609.6 L-612.5 -610.6 L-612.5 -611.6 L-612.5 -612.5 L-611.5 -612.5 L-610.5 -612.5 L-609.5 -612.5 L-608.6 -612.5 L-607.6 -612.5 L-606.6 -612.5 L-605.6 -612.5 L-604.6 -612.4 L-603.6 -612.4 L-602.7 -612.4 L-601.7 -612.4 L-600.7 -612.4 L-599.7 -612.4 L-598.7 -612.4 L-597.8 -612.4 L-596.8 -612.3 L-595.8 -612.3 L-594.8 -612.3 L-593.8 -612.3 L-592.8 -612.3 L-591.9 -612.3 L-590.9 -612.3 L-589.9 -612.3 L-588.9 -612.3 L-587.9 -612.2 Z " />
<path stroke="rgb(0,0,0)" stroke-opacity="1" fill="rgb(255,255,255)" fill-opacity="1" d="M109.5 -12.99 L110.6 -12.21 L111.5 -11.35 L112.4 -10.41 L113.2 -9.409 L113.9 -8.346 L114.5 -7.229 L115.1 -6.066 L115.5 -4.863 L115.9 -3.628 L116.1 -2.369 L116.3 -1.095 L116.3 0.1879 L116.3 1.47 L116.1 2.745 L115.9 4.003 L115.5 5.236 L115.1 6.438 L114.5 7.6 L113.9 8.715 L113.2 9.775 L112.4 10.78 L111.5 11.71 L110.5 12.57 L109.5 13.35 L108.4 14.05 L107.3 14.66 L106.1 15.18 L104.9 15.6 L103.7 15.93 L102.4 16.15 L101.1 16.28 L99.85 16.3 L98.57 16.23 L97.3 16.05 L96.05 15.77 L94.82 15.39 L93.63 14.91 L92.48 14.34 L91.37 13.68 L90.33 12.94 L89.34 12.12 L88.43 11.22 L87.59 10.25 L86.83 9.213 L86.15 8.123 L85.56 6.982 L85.07 5.798 L84.67 4.578 L84.37 3.33 L84.16 2.063 L84.06 0.7829 L84.07 -0.5007 L84.17 -1.78 L84.38 -3.047 L84.68 -4.294 L85.08 -5.512 L85.58 -6.695 L86.17 -7.835 L86.85 -8.923 L87.62 -9.955 L88.46 -10.92 L89.38 -11.82 L90.37 -12.64 L91.41 -13.38 L92.52 -14.04 L93.67 -14.6 L94.86 -15.07 L96.09 -15.45 L97.35 -15.72 L98.62 -15.9 L99.9 -15.98 L101.2 -15.95 L102.5 -15.82 L103.7 -15.59 L105 -15.26 L106.2 -14.83 L107.3 -14.31 L108.5 -13.7 L109.5 -12.99 Z " />
<path stroke="rgb(0,0,0)" stroke-opacity="1" fill="rgb(255,255,255)" fill-opacity="1" d="M-387.9 -612.2 L-388 -611.3 L-388 -610.3 L-388 -609.3 L-388 -608.3 L-388 -607.3 L-388 -606.3 L-388 -605.4 L-388 -604.4 L-388 -603.4 L-388.1 -602.4 L-388.1 -601.4 L-388.1 -600.5 L-388.1 -599.5 L-388.1 -598.5 L-388.1 -597.5 L-388.1 -596.5 L-388.1 -595.5 L-388.2 -594.6 L-388.2 -593.6 L-388.2 -592.6 L-388.2 -591.6 L-388.2 -590.6 L-388.2 -589.7 L-388.2 -588.7 L-388.2 -587.7 L-389.2 -587.7 L-390.2 -587.7 L-391.2 -587.7 L-392.2 -587.7 L-393.1 -587.8 L-394.1 -587.8 L-395.1 -587.8 L-396.1 -587.8 L-397.1 -587.8 L-398.1 -587.8 L-399 -587.8 L-400 -587.8 L-401 -587.8 L-402 -587.9 L-403 -587.9 L-403.9 -587.9 L-404.9 -587.9 L-405.9 -587.9 L-406.9 -587.9 L-407.9 -587.9 L-408.8 -587.9 L-409.8 -588 L-410.8 -588 L-411.8 -588 L-412.8 -588 L-412.8 -589 L-412.8 -590 L-412.7 -590.9 L-412.7 -591.9 L-412.7 -592.9 L-412.7 -593.9 L-412.7 -594.9 L-412.7 -595.8 L-412.7 -596.8 L-412.7 -597.8 L-412.6 -598.8 L-412.6 -599.8 L-412.6 -600.8 L-412.6 -601.7 L-412.6 -602.7 L-412.6 -603.7 L-412.6 -604.7 L-412.6 -605.7 L-412.6 -606.6 L-412.5 -607.6 L-412.5 -608.6 L-412.5 -609.6 L-412.5 -610.6 L-412.5 -611.6 L-412.5 -612.5 L-411.5 -612.5 L-410.5 -612.5 L-409.5 -612.5 L-408.6 -612.5 L-407.6 -612.5 L-406.6 -612.5 L-405.6 -612.5 L-404.6 -612.4 L-403.6 -612.4 L-402.7 -612.4 L-401.7 -612.4 L-400.7 -612.4 L-399.7 -612.4 L-398.7 -612.4 L-397.8 -612.4 L-396.8 -612.3 L-395.8 -612.3 L-394.8 -612.3 L-393.8 -612.3 L-392.8 -612.3 L-391.9 -612.3 L-390.9 -612.3 L-389.9 -612.3 L-388.9 -612.3 L-387.9 -612.2 Z " />
<path stroke="rgb(0,0,0)" stroke-opacity="1" fill="rgb(255,255,255)" fill-opacity="1" d="M301.2 -12.49 L302.2 -12.38 L303.2 -12.19 L304.1 -11.92 L305.1 -11.58 L306 -11.16 L306.9 -10.67 L307.7 -10.12 L308.5 -9.494 L309.3 -8.81 L309.9 -8.069 L310.6 -7.277 L311.1 -6.437 L311.6 -5.556 L312 -4.639 L312.4 -3.691 L312.6 -2.719 L312.8 -1.729 L312.9 -0.727 L313 0.2806 L312.9 1.288 L312.8 2.287 L312.6 3.274 L312.3 4.24 L311.9 5.181 L311.5 6.09 L311 6.962 L310.4 7.79 L309.8 8.571 L309.1 9.298 L308.3 9.967 L307.5 10.57 L306.7 11.12 L305.8 11.59 L304.9 11.99 L303.9 12.31 L302.9 12.56 L301.9 12.73 L300.9 12.82 L299.9 12.83 L298.9 12.76 L297.9 12.61 L296.9 12.38 L296 12.08 L295 11.7 L294.1 11.24 L293.3 10.72 L292.5 10.13 L291.7 9.475 L291 8.763 L290.3 7.996 L289.7 7.179 L289.2 6.318 L288.8 5.418 L288.4 4.485 L288.1 3.524 L287.8 2.542 L287.7 1.545 L287.6 0.5397 L287.6 -0.4684 L287.7 -1.473 L287.9 -2.466 L288.1 -3.444 L288.5 -4.398 L288.9 -5.324 L289.3 -6.215 L289.9 -7.065 L290.5 -7.871 L291.2 -8.625 L291.9 -9.324 L292.7 -9.962 L293.5 -10.54 L294.4 -11.04 L295.3 -11.48 L296.2 -11.84 L297.2 -12.13 L298.2 -12.34 L299.2 -12.47 L300.2 -12.52 L301.2 -12.49 Z " />
<path stroke="rgb(0,0,0)" stroke-opacity="1" fill="rgb(255,255,255)" fill-opacity="1" d="M-887.9 -512.2 L-888 -511.3 L-888 -510.3 L-888 -509.3 L-888 -508.3 L-888 -507.3 L-888 -506.3 L-888 -505.4 L-888 -504.4 L-888 -503.4 L-888.1 -502.4 L-888.1 -501.4 L-888.1 -500.5 L-888.1 -499.5 L-888.1 -498.5 L-888.1 -497.5 L-888.1 -496.5 L-888.1 -495.5 L-888.2 -494.6 L-888.2 -493.6 L-888.2 -492.6 L-888.2 -491.6 L-888.2 -490.6 L-888.2 -489.7 L-888.2 -488.7 L-888.2 -487.7 L-889.2 -487.7 L-890.2 -487.7 L-891.2 -487.7 L-892.2 -487.7 L-893.1 -487.8 L-894.1 -487.8 L-895.1 -487.8 L-896.1 -487.8 L-897.1 -487.8 L-898.1 -487.8 L-899 -487.8 L-900 -487.8 L-901 -487.8 L-902 -487.9 L-903 -487.9 L-903.9 -487.9 L-904.9 -487.9 L-905.9 -487.9 L-906.9 -487.9 L-907.9 -487.9 L-908.8 -487.9 L-909.8 -488 L-910.8 -488 L-911.8 -488 L-912.8 -488 L-912.8 -489 L-912.8 -490 L-912.7 -490.9 L-912.7 -491.9 L-912.7 -492.9 L-912.7 -493.9 L-912.7 -494.9 L-912.7 -495.8 L-912.7 -496.8 L-912.7 -497.8 L-912.6 -498.8 L-912.6 -499.8 L-912.6 -500.8 L-912.6 -501.7 L-912.6 -502.7 L-912.6 -503.7 L-912.6 -504.7 L-912.6 -505.7 L-912.6 -506.6 L-912.5 -507.6 L-912.5 -508.6 L-912.5 -509.6 L-912.5 -510.6 L-912.5 -511.6 L-912.5 -512.5 L-911.5 -512.5 L-910.5 -512.5 L-909.5 -512.5 L-908.6 -512.5 L-907.6 -512.5 L-906.6 -512.5 L-905.6 -512.5 L-904.6 -512.4 L-903.6 -512.4 L-902.7 -512.4 L-901.7 -512.4 L-900.7 -512.4 L-899.7 -512.4 L-898.7 -512.4 L-897.8 -512.4 L-896.8 -512.3 L-895.8 -512.3 L-894.8 -512.3 L-893.8 -512.3 L-892.8 -512.3 L-891.9 -512.3 L-890.9 -512.3 L-889.9 -512.3 L-888.9 -512.3 L-887.9 -512.2 Z " />
<path stroke="rgb(0,0,0)" stroke-opacity="1" fill="rgb(255,255,255)" fill-opacity="1" d="M-177.1 96.77 L-177 98.59 L-176.9 100.4 L-177 102.3 L-177.3 104.1 L-177.7 105.9 L-178.2 107.6 L-178.9 109.3 L-179.7 111 L-180.6 112.6 L-181.7 114.1 L-182.8 115.5 L-184.1 116.8 L-185.5 118 L-187 119.1 L-188.5 120.1 L-190.1 120.9 L-191.8 121.6 L-193.6 122.2 L-195.3 122.6 L-197.2 122.9 L-199 123.1 L-200.8 123.1 L-202.6 123 L-204.5 122.7 L-206.2 122.2 L-208 121.7 L-209.7 121 L-211.3 120.1 L-212.9 119.2 L-214.3 118.1 L-215.7 116.9 L-217 115.6 L-218.2 114.2 L-219.3 112.7 L-220.2 111.1 L-221 109.5 L-221.7 107.8 L-222.3 106 L-222.7 104.2 L-222.9 102.4 L-223 100.6 L-223 98.74 L-222.8 96.92 L-222.5 95.11 L-222 93.34 L-221.4 91.6 L-220.7 89.92 L-219.8 88.31 L-218.8 86.77 L-217.7 85.31 L-216.5 83.95 L-215.2 82.69 L-213.7 81.53 L-212.2 80.5 L-210.6 79.59 L-209 78.8 L-207.3 78.16 L-205.5 77.65 L-203.7 77.28 L-201.9 77.05 L-200 76.97 L-198.2 77.04 L-196.4 77.25 L-194.6 77.61 L-192.8 78.11 L-191.1 78.75 L-189.4 79.52 L-187.8 80.42 L-186.3 81.44 L-184.9 82.59 L-183.6 83.84 L-182.3 85.2 L-181.2 86.65 L-180.2 88.18 L-179.3 89.79 L-178.6 91.46 L-177.9 93.19 L-177.5 94.96 L-177.1 96.77 Z " />
<path stroke="rgb(0,0,0)" stroke-opacity="1" fill="rgb(255,255,255)" fill-opacity="1" d="M-687.9 -512.2 L-688 -511.3 L-688 -510.3 L-688 -509.3 L-688 -508.3 L-688 -507.3 L-688 -506.3 L-688 -505.4 L-688 -504.4 L-688 -503.4 L-688.1 -502.4 L-688.1 -501.4 L-688.1 -500.5 L-688.1 -499.5 L-688.1 -498.5 L-688.1 -497.5 L-688.1 -496.5 L-688.1 -495.5 L-688.2 -494.6 L-688.2 -493.6 L-688.2 -492.6 L-688.2 -491.6 L-688.2 -490.6 L-688.2 -489.7 L-688.2 -488.7 L-688.2 -487.7 L-689.2 -487.7 L-690.2 -487.7 L-691.2 -487.7 L-692.2 -487.7 L-693.1 -487.8 L-694.1 -487.8 L-695.1 -487.8 L-696.1 -487.8 L-697.1 -487.8 L-698.1 -487.8 L-699 -487.8 L-700 -487.8 L-701 -487.8 L-702 -487.9 L-703 -487.9 L-703.9 -487.9 L-704.9 -487.9 L-705.9 -487.9 L-706.9 -487.9 L-707.9 -487.9 L-708.8 -487.9 L-709.8 -488 L-710.8 -488 L-711.8 -488 L-712.8 -488 L-712.8 -489 L-712.8 -490 L-712.7 -490.9 L-712.7 -491.9 L-712.7 -492.9 L-712.7 -493.9 L-712.7 -494.9 L-712.7 -495.8 L-712.7 -496.8 L-712.7 -497.8 L-712.6 -498.8 L-712.6 -499.8 L-712.6 -500.8 L-712.6 -501.7 L-712.6 -502.7 L-712.6 -503.7 L-712.6 -504.7 L-712.6 -505.7 L-712.6 -506.6 L-712.5 -507.6 L-712.5 -508.6 L-712.5 -509.6 L-712.5 -510.6 L-712.5 -511.6 L-712.5 -512.5 L-711.5 -512.5 L-710.5 -512.5 L-709.5 -512.5 L-708.6 -512.5 L-707.6 -512.5 L-706.6 -512.5 L-705.6 -512.5 L-704.6 -512.4 L-703.6 -512.4 L-702.7 -512.4 L-701.7 -512.4 L-700.7 -512.4 L-699.7 -512.4 L-698.7 -512.4 L-697.8 -512.4 L-696.8 -512.3 L-695.8 -512.3 L-694.8 -512.3 L-693.8 -512.3 L-692.8 -512.3 L-691.9 -512.3 L-690.9 -512.3 L-689.9 -512.3 L-688.9 -512.3 L-687.9 -512.2 Z " />
<path stroke="rgb(0,0,0)" stroke-opacity="1" fill="rgb(255,255,255)" fill-opacity="1" d="M9.547 87.01 L10.56 87.79 L11.51 88.65 L12.39 89.59 L13.19 90.59 L13.91 91.65 L14.55 92.77 L15.09 93.93 L15.54 95.14 L15.89 96.37 L16.14 97.63 L16.29 98.91 L16.34 100.2 L16.29 101.5 L16.13 102.7 L15.88 104 L15.52 105.2 L15.07 106.4 L14.52 107.6 L13.89 108.7 L13.17 109.8 L12.36 110.8 L11.48 111.7 L10.53 112.6 L9.509 113.4 L8.432 114 L7.302 114.7 L6.128 115.2 L4.917 115.6 L3.675 115.9 L2.412 116.2 L1.135 116.3 L-0.1488 116.3 L-1.43 116.2 L-2.701 116 L-3.953 115.8 L-5.18 115.4 L-6.372 114.9 L-7.523 114.3 L-8.625 113.7 L-9.671 112.9 L-10.66 112.1 L-11.57 111.2 L-12.41 110.2 L-13.17 109.2 L-13.85 108.1 L-14.44 107 L-14.93 105.8 L-15.33 104.6 L-15.63 103.3 L-15.84 102.1 L-15.94 100.8 L-15.93 99.5 L-15.83 98.22 L-15.62 96.95 L-15.32 95.71 L-14.92 94.49 L-14.42 93.3 L-13.83 92.17 L-13.15 91.08 L-12.38 90.05 L-11.54 89.08 L-10.62 88.18 L-9.634 87.36 L-8.586 86.62 L-7.482 85.96 L-6.329 85.4 L-5.136 84.93 L-3.908 84.55 L-2.655 84.28 L-1.383 84.1 L-0.1019 84.02 L1.181 84.05 L2.458 84.18 L3.721 84.41 L4.962 84.74 L6.172 85.17 L7.344 85.69 L8.472 86.3 L9.547 87.01 Z " />
<path stroke="rgb(0,0,0)" stroke-opacity="1" fill="rgb(255,255,255)" fill-opacity="1" d="M-487.9 -512.2 L-488 -511.3 L-488 -510.3 L-488 -509.3 L-488 -508.3 L-488 -507.3 L-488 -506.3 L-488 -505.4 L-488 -504.4 L-488 -503.4 L-488.1 -502.4 L-488.1 -501.4 L-488.1 -500.5 L-488.1 -499.5 L-488.1 -498.5 L-488.1 -497.5 L-488.1 -496.5 L-488.1 -495.5 L-488.2 -494.6 L-488.2 -493.6 L-488.2 -492.6 L-488.2 -491.6 L-488.2 -490.6 L-488.2 -489.7 L-488.2 -488.7 L-488.2 -487.7 L-489.2 -487.7 L-490.2 -487.7 L-491.2 -487.7 L-492.2 -487.7 L-493.1 -487.8 L-494.1 -487.8 L-495.1 -487.8 L-496.1 -487.8 L-497.1 -487.8 L-498.1 -487.8 L-499 -487.8 L-500 -487.8 L-501 -487.8 L-502 -487.9 L-503 -487.9 L-503.9 -487.9 L-504.9 -487.9 L-505.9 -487.9 L-506.9 -487.9 L-507.9 -487.9 L-508.8 -487.9 L-509.8 -488 L-510.8 -488 L-511.8 -488 L-512.8 -488 L-512.8 -489 L-512.8 -490 L-512.7 -490.9 L-512.7 -491.9 L-512.7 -492.9 L-512.7 -493.9 L-512.7 -494.9 L-512.7 -495.8 L-512.7 -496.8 L-512.7 -497.8 L-512.6 -498.8 L-512.6 -499.8 L-512.6 -500.8 L-512.6 -501.7 L-512.6 -502.7 L-512.6 -503.7 L-512.6 -504.7 L-512.6 -505.7 L-512.6 -506.6 L-512.5 -507.6 L-512.5 -508.6 L-512.5 -509.6 L-512.5 -510.6 L-512.5 -511.6 L-512.5 -512.5 L-511.5 -512.5 L-510.5 -512.5 L-509.5 -512.5 L-508.6 -512.5 L-507.6 -512.5 L-506.6 -512.5 L-505.6 -512.5 L-504.6 -512.4 L-503.6 -512.4 L-502.7 -512.4 L-501.7 -512.4 L-500.7 -512.4 L-499.7 -512.4 L-498.7 -512.4 L-497.8 -512.4 L-496.8 -512.3 L-495.8 -512.3 L-494.8 -512.3 L-493.8 -512.3 L-492.8 -512.3 L-491.9 -512.3 L-490.9 -512.3 L-489.9 -512.3 L-488.9 -512.3 L-487.9 -512.2 Z " />
<path stroke="rgb(0,0,0)" stroke-opacity="1" fill="rgb(255,255,255)" fill-opacity="1" d="M201.2 87.51 L202.2 87.62 L203.2 87.81 L204.1 88.08 L205.1 88.42 L206 88.84 L206.9 89.33 L207.7 89.88 L208.5 90.51 L209.3 91.19 L209.9 91.93 L210.6 92.72 L211.1 93.56 L211.6 94.44 L212 95.36 L212.4 96.31 L212.6 97.28 L212.8 98.27 L212.9 99.27 L213 100.3 L212.9 101.3 L212.8 102.3 L212.6 103.3 L212.3 104.2 L211.9 105.2 L211.5 106.1 L211 107 L210.4 107.8 L209.8 108.6 L209.1 109.3 L208.3 110 L207.5 110.6 L206.7 111.1 L205.8 111.6 L204.9 112 L203.9 112.3 L202.9 112.6 L201.9 112.7 L200.9 112.8 L199.9 112.8 L198.9 112.8 L197.9 112.6 L196.9 112.4 L196 112.1 L195 111.7 L194.1 111.2 L193.3 110.7 L192.5 110.1 L191.7 109.5 L191 108.8 L190.3 108 L189.7 107.2 L189.2 106.3 L188.8 105.4 L188.4 104.5 L188.1 103.5 L187.8 102.5 L187.7 101.5 L187.6 100.5 L187.6 99.53 L187.7 98.53 L187.9 97.53 L188.1 96.56 L188.5 95.6 L188.9 94.68 L189.3 93.79 L189.9 92.93 L190.5 92.13 L191.2 91.38 L191.9 90.68 L192.7 90.04 L193.5 89.46 L194.4 88.96 L195.3 88.52 L196.2 88.16 L197.2 87.87 L198.2 87.66 L199.2 87.53 L200.2 87.48 L201.2 87.51 Z " />
<path stroke="rgb(0,0,0)" stroke-opacity="1" fill="rgb(255,255,255)" fill-opacity="1" d="M-287.3 -511.6 L-287.3 -510.7 L-287.3 -509.7 L-287.3 -508.7 L-287.3 -507.7 L-287.3 -506.7 L-287.3 -505.8 L-287.3 -504.8 L-287.3 -503.8 L-287.3 -502.8 L-287.3 -501.8 L-287.3 -500.8 L-287.3 -499.9 L-287.3 -498.9 L-287.3 -497.9 L-287.3 -496.9 L-287.3 -495.9 L-287.3 -495 L-287.3 -494 L-287.3 -493 L-287.3 -492 L-287.3 -491 L-287.3 -490 L-287.3 -489.1 L-287.3 -488.1 L-287.3 -487.1 L-288.3 -487.1 L-289.3 -487.1 L-290.3 -487.1 L-291.3 -487.1 L-292.3 -487.1 L-293.2 -487.1 L-294.2 -487.1 L-295.2 -487.1 L-296.2 -487.1 L-297.2 -487.1 L-298.1 -487.1 L-299.1 -487.1 L-300.1 -487.1 L-301.1 -487.1 L-302.1 -487.1 L-303.1 -487.1 L-304 -487.1 L-305 -487.1 L-306 -487.1 L-307 -487.1 L-308 -487.1 L-308.9 -487.1 L-309.9 -487.1 L-310.9 -487.1 L-311.9 -487.1 L-311.9 -488.1 L-311.9 -489.1 L-311.9 -490.1 L-311.9 -491 L-311.9 -492 L-311.9 -493 L-311.9 -494 L-311.9 -495 L-311.9 -495.9 L-311.9 -496.9 L-311.9 -497.9 L-311.9 -498.9 L-311.9 -499.9 L-311.9 -500.9 L-311.9 -501.8 L-311.9 -502.8 L-311.9 -503.8 L-311.9 -504.8 L-311.9 -505.8 L-311.9 -506.7 L-311.9 -507.7 L-311.9 -508.7 L-311.9 -509.7 L-311.9 -510.7 L-311.9 -511.7 L-310.9 -511.7 L-309.9 -511.7 L-308.9 -511.7 L-308 -511.7 L-307 -511.6 L-306 -511.6 L-305 -511.6 L-304 -511.6 L-303 -511.6 L-302.1 -511.6 L-301.1 -511.6 L-300.1 -511.6 L-299.1 -511.6 L-298.1 -511.6 L-297.2 -511.6 L-296.2 -511.6 L-295.2 -511.6 L-294.2 -511.6 L-293.2 -511.6 L-292.2 -511.6 L-291.3 -511.6 L-290.3 -511.6 L-289.3 -511.6 L-288.3 -511.6 L-287.3 -511.6 Z " />
<path stroke="rgb(0,0,0)" stroke-opacity="1" fill="rgb(255,255,255)" fill-opacity="1" d="M-277.1 196.8 L-277 198.6 L-276.9 200.4 L-277 202.3 L-277.3 204.1 L-277.7 205.9 L-278.2 207.6 L-278.9 209.3 L-279.7 211 L-280.6 212.6 L-281.7 214.1 L-282.8 215.5 L-284.1 216.8 L-285.5 218 L-287 219.1 L-288.5 220.1 L-290.1 220.9 L-291.8 221.6 L-293.6 222.2 L-295.3 222.6 L-297.2 222.9 L-299 223.1 L-300.8 223.1 L-302.6 223 L-304.5 222.7 L-306.2 222.2 L-308 221.7 L-309.7 221 L-311.3 220.1 L-312.9 219.2 L-314.3 218.1 L-315.7 216.9 L-317 215.6 L-318.2 214.2 L-319.3 212.7 L-320.2 211.1 L-321 209.5 L-321.7 207.8 L-322.3 206 L-322.7 204.2 L-322.9 202.4 L-323 200.6 L-323 198.7 L-322.8 196.9 L-322.5 195.1 L-322 193.3 L-321.4 191.6 L-320.7 189.9 L-319.8 188.3 L-318.8 186.8 L-317.7 185.3 L-316.5 183.9 L-315.2 182.7 L-313.7 181.5 L-312.2 180.5 L-310.6 179.6 L-309 178.8 L-307.3 178.2 L-305.5 177.6 L-303.7 177.3 L-301.9 177.1 L-300 177 L-298.2 177 L-296.4 177.3 L-294.6 177.6 L-292.8 178.1 L-291.1 178.7 L-289.4 179.5 L-287.8 180.4 L-286.3 181.4 L-284.9 182.6 L-283.6 183.8 L-282.3 185.2 L-281.2 186.6 L-280.2 188.2 L-279.3 189.8 L-278.6 191.5 L-277.9 193.2 L-277.5 195 L-277.1 196.8 Z " />
<path stroke="rgb(0,0,0)" stroke-opacity="1" fill="rgb(255,255,255)" fill-opacity="1" d="M-787.9 -412.2 L-788 -411.3 L-788 -410.3 L-788 -409.3 L-788 -408.3 L-788 -407.3 L-788 -406.3 L-788 -405.4 L-788 -404.4 L-788 -403.4 L-788.1 -402.4 L-788.1 -401.4 L-788.1 -400.5 L-788.1 -399.5 L-788.1 -398.5 L-788.1 -397.5 L-788.1 -396.5 L-788.1 -395.5 L-788.2 -394.6 L-788.2 -393.6 L-788.2 -392.6 L-788.2 -391.6 L-788.2 -390.6 L-788.2 -389.7 L-788.2 -388.7 L-788.2 -387.7 L-789.2 -387.7 L-790.2 -387.7 L-791.2 -387.7 L-792.2 -387.7 L-793.1 -387.8 L-794.1 -387.8 L-795.1 -387.8 L-796.1 -387.8 L-797.1 -387.8 L-798.1 -387.8 L-799 -387.8 L-800 -387.8 L-801 -387.8 L-802 -387.9 L-803 -387.9 L-803.9 -387.9 L-804.9 -387.9 L-805.9 -387.9 L-806.9 -387.9 L-807.9 -387.9 L-808.8 -387.9 L-809.8 -388 L-810.8 -388 L-811.8 -388 L-812.8 -388 L-812.8 -389 L-812.8 -390 L-812.7 -390.9 L-812.7 -391.9 L-812.7 -392.9 L-812.7 -393.9 L-812.7 -394.9 L-812.7 -395.8 L-812.7 -396.8 L-812.7 -397.8 L-812.6 -398.8 L-812.6 -399.8 L-812.6 -400.8 L-812.6 -401.7 L-812.6 -402.7 L-812.6 -403.7 L-812.6 -404.7 L-812.6 -405.7 L-812.6 -406.6 L-812.5 -407.6 L-812.5 -408.6 L-812.5 -409.6 L-812.5 -410.6 L-812.5 -411.6 L-812.5 -412.5 L-811.5 -412.5 L-810.5 -412.5 L-809.5 -412.5 L-808.6 -412.5 L-807.6 -412.5 L-806.6 -412.5 L-805.6 -412.5 L-804.6 -412.4 L-803.6 -412.4 L-802.7 -412.4 L-801.7 -412.4 L-800.7 -412.4 L-799.7 -412.4 L-798.7 -412.4 L-797.8 -412.4 L-796.8 -412.3 L-795.8 -412.3 L-794.8 -412.3 L-793.8 -412.3 L-792.8 -412.3 L-791.9 -412.3 L-790.9 -412.3 L-789.9 -412.3 L-788.9 -412.3 L-787.9 -412.2 Z " />
<path stroke="rgb(0,0,0)" stroke-opacity="1" fill="rgb(255,255,255)" fill-opacity="1" d="M-90.45 187 L-89.44 187.8 L-88.49 188.7 L-87.61 189.6 L-86.81 190.6 L-86.09 191.7 L-85.45 192.8 L-84.91 193.9 L-84.46 195.1 L-84.11 196.4 L-83.86 197.6 L-83.71 198.9 L-83.66 200.2 L-83.71 201.5 L-83.87 202.7 L-84.12 204 L-84.48 205.2 L-84.93 206.4 L-85.48 207.6 L-86.11 208.7 L-86.83 209.8 L-87.64 210.8 L-88.52 211.7 L-89.47 212.6 L-90.49 213.4 L-91.57 214 L-92.7 214.7 L-93.87 215.2 L-95.08 215.6 L-96.32 215.9 L-97.59 216.2 L-98.87 216.3 L-100.1 216.3 L-101.4 216.2 L-102.7 216 L-104 215.8 L-105.2 215.4 L-106.4 214.9 L-107.5 214.3 L-108.6 213.7 L-109.7 212.9 L-110.7 212.1 L-111.6 211.2 L-112.4 210.2 L-113.2 209.2 L-113.8 208.1 L-114.4 207 L-114.9 205.8 L-115.3 204.6 L-115.6 203.3 L-115.8 202.1 L-115.9 200.8 L-115.9 199.5 L-115.8 198.2 L-115.6 197 L-115.3 195.7 L-114.9 194.5 L-114.4 193.3 L-113.8 192.2 L-113.1 191.1 L-112.4 190 L-111.5 189.1 L-110.6 188.2 L-109.6 187.4 L-108.6 186.6 L-107.5 186 L-106.3 185.4 L-105.1 184.9 L-103.9 184.6 L-102.7 184.3 L-101.4 184.1 L-100.1 184 L-98.82 184.1 L-97.54 184.2 L-96.28 184.4 L-95.04 184.7 L-93.83 185.2 L-92.66 185.7 L-91.53 186.3 L-90.45 187 Z " />
<path stroke="rgb(0,0,0)" stroke-opacity="1" fill="rgb(255,255,255)" fill-opacity="1" d="M-587.9 -412.2 L-588 -411.3 L-588 -410.3 L-588 -409.3 L-588 -408.3 L-588 -407.3 L-588 -406.3 L-588 -405.4 L-588 -404.4 L-588 -403.4 L-588.1 -402.4 L-588.1 -401.4 L-588.1 -400.5 L-588.1 -399.5 L-588.1 -398.5 L-588.1 -397.5 L-588.1 -396.5 L-588.1 -395.5 L-588.2 -394.6 L-588.2 -393.6 L-588.2 -392.6 L-588.2 -391.6 L-588.2 -390.6 L-588.2 -389.7 L-588.2 -388.7 L-588.2 -387.7 L-589.2 -387.7 L-590.2 -387.7 L-591.2 -387.7 L-592.2 -387.7 L-593.1 -387.8 L-594.1 -387.8 L-595.1 -387.8 L-596.1 -387.8 L-597.1 -387.8 L-598.1 -387.8 L-599 -387.8 L-600 -387.8 L-601 -387.8 L-602 -387.9 L-603 -387.9 L-603.9 -387.9 L-604.9 -387.9 L-605.9 -387.9 L-606.9 -387.9 L-607.9 -387.9 L-608.8 -387.9 L-609.8 -388 L-610.8 -388 L-611.8 -388 L-612.8 -388 L-612.8 -389 L-612.8 -390 L-612.7 -390.9 L-612.7 -391.9 L-612.7 -392.9 L-612.7 -393.9 L-612.7 -394.9 L-612.7 -395.8 L-612.7 -396.8 L-612.7 -397.8 L-612.6 -398.8 L-612.6 -399.8 L-612.6 -400.8 L-612.6 -401.7 L-612.6 -402.7 L-612.6 -403.7 L-612.6 -404.7 L-612.6 -405.7 L-612.6 -406.6 L-612.5 -407.6 L-612.5 -408.6 L-612.5 -409.6 L-612.5 -410.6 L-612.5 -411.6 L-612.5 -412.5 L-611.5 -412.5 L-610.5 -412.5 L-609.5 -412.5 L-608.6 -412.5 L-607.6 -412.5 L-606.6 -412.5 L-605.6 -412.5 L-604.6 -412.4 L-603.6 -412.4 L-602.7 -412.4 L-601.7 -412.4 L-600.7 -412.4 L-599.7 -412.4 L-598.7 -412.4 L-597.8 -412.4 L-596.8 -412.3 L-595.8 -412.3 L-594.8 -412.3 L-593.8 -412.3 L-592.8 -412.3 L-591.9 -412.3 L-590.9 -412.3 L-589.9 -412.3 L-588.9 -412.3 L-587.9 -412.2 Z " />
<path stroke="rgb(0,0,0)" stroke-opacity="1" fill="rgb(255,255,255)" fill-opacity="1" d="M101.2 187.5 L102.2 187.6 L103.2 187.8 L104.1 188.1 L105.1 188.4 L106 188.8 L106.9 189.3 L107.7 189.9 L108.5 190.5 L109.3 191.2 L109.9 191.9 L110.6 192.7 L111.1 193.6 L111.6 194.4 L112 195.4 L112.4 196.3 L112.6 197.3 L112.8 198.3 L112.9 199.3 L113 200.3 L112.9 201.3 L112.8 202.3 L112.6 203.3 L112.3 204.2 L111.9 205.2 L111.5 206.1 L111 207 L110.4 207.8 L109.8 208.6 L109.1 209.3 L108.3 210 L107.5 210.6 L106.7 211.1 L105.8 211.6 L104.9 212 L103.9 212.3 L102.9 212.6 L101.9 212.7 L100.9 212.8 L99.93 212.8 L98.92 212.8 L97.92 212.6 L96.94 212.4 L95.98 212.1 L95.05 211.7 L94.15 211.2 L93.29 210.7 L92.47 210.1 L91.7 209.5 L90.99 208.8 L90.33 208 L89.74 207.2 L89.22 206.3 L88.76 205.4 L88.38 204.5 L88.08 203.5 L87.85 202.5 L87.7 201.5 L87.63 200.5 L87.64 199.5 L87.73 198.5 L87.9 197.5 L88.14 196.6 L88.47 195.6 L88.87 194.7 L89.34 193.8 L89.88 192.9 L90.49 192.1 L91.16 191.4 L91.88 190.7 L92.66 190 L93.49 189.5 L94.36 189 L95.27 188.5 L96.21 188.2 L97.18 187.9 L98.17 187.7 L99.17 187.5 L100.2 187.5 L101.2 187.5 Z " />
<path stroke="rgb(0,0,0)" stroke-opacity="1" fill="rgb(255,255,255)" fill-opacity="1" d="M-387.3 -411.6 L-387.3 -410.7 L-387.3 -409.7 L-387.3 -408.7 L-387.3 -407.7 L-387.3 -406.7 L-387.3 -405.8 L-387.3 -404.8 L-387.3 -403.8 L-387.3 -402.8 L-387.3 -401.8 L-387.3 -400.8 L-387.3 -399.9 L-387.3 -398.9 L-387.3 -397.9 L-387.3 -396.9 L-387.3 -395.9 L-387.3 -395 L-387.3 -394 L-387.3 -393 L-387.3 -392 L-387.3 -391 L-387.3 -390 L-387.3 -389.1 L-387.3 -388.1 L-387.3 -387.1 L-388.3 -387.1 L-389.3 -387.1 L-390.3 -387.1 L-391.3 -387.1 L-392.3 -387.1 L-393.2 -387.1 L-394.2 -387.1 L-395.2 -387.1 L-396.2 -387.1 L-397.2 -387.1 L-398.1 -387.1 L-399.1 -387.1 L-400.1 -387.1 L-401.1 -387.1 L-402.1 -387.1 L-403.1 -387.1 L-404 -387.1 L-405 -387.1 L-406 -387.1 L-407 -387.1 L-408 -387.1 L-408.9 -387.1 L-409.9 -387.1 L-410.9 -387.1 L-411.9 -387.1 L-411.9 -388.1 L-411.9 -389.1 L-411.9 -390.1 L-411.9 -391 L-411.9 -392 L-411.9 -393 L-411.9 -394 L-411.9 -395 L-411.9 -395.9 L-411.9 -396.9 L-411.9 -397.9 L-411.9 -398.9 L-411.9 -399.9 L-411.9 -400.9 L-411.9 -401.8 L-411.9 -402.8 L-411.9 -403.8 L-411.9 -404.8 L-411.9 -405.8 L-411.9 -406.7 L-411.9 -407.7 L-411.9 -408.7 L-411.9 -409.7 L-411.9 -410.7 L-411.9 -411.7 L-410.9 -411.7 L-409.9 -411.7 L-408.9 -411.7 L-408 -411.7 L-407 -411.6 L-406 -411.6 L-405 -411.6 L-404 -411.6 L-403 -411.6 L-402.1 -411.6 L-401.1 -411.6 L-400.1 -411.6 L-399.1 -411.6 L-398.1 -411.6 L-397.2 -411.6 L-396.2 -411.6 L-395.2 -411.6 L-394.2 -411.6 L-393.2 -411.6 L-392.2 -411.6 L-391.3 -411.6 L-390.3 -411.6 L-389.3 -411.6 L-388.3 -411.6 L-387.3 -411.6 Z " />
<path stroke="rgb(0,0,0)" stroke-opacity="1" fill="rgb(255,255,255)" fill-opacity="1" d="M300.5 187.8 L301.4 187.8 L302.4 188 L303.4 188.2 L304.3 188.5 L305.2 188.8 L306.1 189.2 L307 189.7 L307.8 190.3 L308.5 190.9 L309.2 191.6 L309.9 192.3 L310.5 193.1 L311 194 L311.5 194.8 L311.9 195.7 L312.2 196.7 L312.4 197.6 L312.6 198.6 L312.7 199.6 L312.7 200.6 L312.6 201.5 L312.5 202.5 L312.2 203.5 L311.9 204.4 L311.6 205.3 L311.1 206.2 L310.6 207 L310 207.8 L309.4 208.6 L308.7 209.3 L307.9 209.9 L307.1 210.5 L306.3 211 L305.4 211.4 L304.5 211.8 L303.6 212.1 L302.6 212.3 L301.6 212.4 L300.6 212.5 L299.7 212.5 L298.7 212.4 L297.7 212.2 L296.8 212 L295.8 211.7 L294.9 211.3 L294.1 210.8 L293.2 210.3 L292.5 209.7 L291.7 209 L291 208.3 L290.4 207.6 L289.9 206.8 L289.4 205.9 L288.9 205 L288.6 204.1 L288.3 203.2 L288.1 202.2 L288 201.2 L287.9 200.2 L288 199.3 L288.1 198.3 L288.3 197.3 L288.5 196.4 L288.9 195.5 L289.3 194.6 L289.8 193.7 L290.3 192.9 L290.9 192.1 L291.6 191.4 L292.3 190.7 L293.1 190.1 L293.9 189.6 L294.8 189.1 L295.7 188.7 L296.6 188.4 L297.5 188.1 L298.5 187.9 L299.5 187.8 L300.5 187.8 Z " />
<path stroke="rgb(0,0,0)" stroke-opacity="1" fill="rgb(255,255,255)" fill-opacity="1" d="M-887.9 -312.2 L-888 -311.3 L-888 -310.3 L-888 -309.3 L-888 -308.3 L-888 -307.3 L-888 -306.3 L-888 -305.4 L-888 -304.4 L-888 -303.4 L-888.1 -302.4 L-888.1 -301.4 L-888.1 -300.5 L-888.1 -299.5 L-888.1 -298.5 L-888.1 -297.5 L-888.1 -296.5 L-888.1 -295.5 L-888.2 -294.6 L-888.2 -293.6 L-888.2 -292.6 L-888.2 -291.6 L-888.2 -290.6 L-888.2 -289.7 L-888.2 -288.7 L-888.2 -287.7 L-889.2 -287.7 L-890.2 -287.7 L-891.2 -287.7 L-892.2 -287.7 L-893.1 -287.8 L-894.1 -287.8 L-895.1 -287.8 L-896.1 -287.8 L-897.1 -287.8 L-898.1 -287.8 L-899 -287.8 L-900 -287.8 L-901 -287.8 L-902 -287.9 L-903 -287.9 L-903.9 -287.9 L-904.9 -287.9 L-905.9 -287.9 L-906.9 -287.9 L-907.9 -287.9 L-908.8 -287.9 L-909.8 -288 L-910.8 -288 L-911.8 -288 L-912.8 -288 L-912.8 -289 L-912.8 -290 L-912.7 -290.9 L-912.7 -291.9 L-912.7 -292.9 L-912.7 -293.9 L-912.7 -294.9 L-912.7 -295.8 L-912.7 -296.8 L-912.7 -297.8 L-912.6 -298.8 L-912.6 -299.8 L-912.6 -300.8 L-912.6 -301.7 L-912.6 -302.7 L-912.6 -303.7 L-912.6 -304.7 L-912.6 -305.7 L-912.6 -306.6 L-912.5 -307.6 L-912.5 -308.6 L-912.5 -309.6 L-912.5 -310.6 L-912.5 -311.6 L-912.5 -312.5 L-911.5 -312.5 L-910.5 -312.5 L-909.5 -312.5 L-908.6 -312.5 L-907.6 -312.5 L-906.6 -312.5 L-905.6 -312.5 L-904.6 -312.4 L-903.6 -312.4 L-902.7 -312.4 L-901.7 -312.4 L-900.7 -312.4 L-899.7 -312.4 L-898.7 -312.4 L-897.8 -312.4 L-896.8 -312.3 L-895.8 -312.3 L-894.8 -312.3 L-893.8 -312.3 L-892.8 -312.3 L-891.9 -312.3 L-890.9 -312.3 L-889.9 -312.3 L-888.9 -312.3 L-887.9 -312.2 Z " />
<path stroke="rgb(0,0,0)" stroke-opacity="1" fill="rgb(255,255,255)" fill-opacity="1" d="M-190.5 287 L-189.4 287.8 L-188.5 288.7 L-187.6 289.6 L-186.8 290.6 L-186.1 291.7 L-185.5 292.8 L-184.9 293.9 L-184.5 295.1 L-184.1 296.4 L-183.9 297.6 L-183.7 298.9 L-183.7 300.2 L-183.7 301.5 L-183.9 302.7 L-184.1 304 L-184.5 305.2 L-184.9 306.4 L-185.5 307.6 L-186.1 308.7 L-186.8 309.8 L-187.6 310.8 L-188.5 311.7 L-189.5 312.6 L-190.5 313.4 L-191.6 314 L-192.7 314.7 L-193.9 315.2 L-195.1 315.6 L-196.3 315.9 L-197.6 316.2 L-198.9 316.3 L-200.1 316.3 L-201.4 316.2 L-202.7 316 L-204 315.8 L-205.2 315.4 L-206.4 314.9 L-207.5 314.3 L-208.6 313.7 L-209.7 312.9 L-210.7 312.1 L-211.6 311.2 L-212.4 310.2 L-213.2 309.2 L-213.8 308.1 L-214.4 307 L-214.9 305.8 L-215.3 304.6 L-215.6 303.3 L-215.8 302.1 L-215.9 300.8 L-215.9 299.5 L-215.8 298.2 L-215.6 297 L-215.3 295.7 L-214.9 294.5 L-214.4 293.3 L-213.8 292.2 L-213.1 291.1 L-212.4 290 L-211.5 289.1 L-210.6 288.2 L-209.6 287.4 L-208.6 286.6 L-207.5 286 L-206.3 285.4 L-205.1 284.9 L-203.9 284.6 L-202.7 284.3 L-201.4 284.1 L-200.1 284 L-198.8 284.1 L-197.5 284.2 L-196.3 284.4 L-195 284.7 L-193.8 285.2 L-192.7 285.7 L-191.5 286.3 L-190.5 287 Z " />
<path stroke="rgb(0,0,0)" stroke-opacity="1" fill="rgb(255,255,255)" fill-opacity="1" d="M-687.9 -312.2 L-688 -311.3 L-688 -310.3 L-688 -309.3 L-688 -308.3 L-688 -307.3 L-688 -306.3 L-688 -305.4 L-688 -304.4 L-688 -303.4 L-688.1 -302.4 L-688.1 -301.4 L-688.1 -300.5 L-688.1 -299.5 L-688.1 -298.5 L-688.1 -297.5 L-688.1 -296.5 L-688.1 -295.5 L-688.2 -294.6 L-688.2 -293.6 L-688.2 -292.6 L-688.2 -291.6 L-688.2 -290.6 L-688.2 -289.7 L-688.2 -288.7 L-688.2 -287.7 L-689.2 -287.7 L-690.2 -287.7 L-691.2 -287.7 L-692.2 -287.7 L-693.1 -287.8 L-694.1 -287.8 L-695.1 -287.8 L-696.1 -287.8 L-697.1 -287.8 L-698.1 -287.8 L-699 -287.8 L-700 -287.8 L-701 -287.8 L-702 -287.9 L-703 -287.9 L-703.9 -287.9 L-704.9 -287.9 L-705.9 -287.9 L-706.9 -287.9 L-707.9 -287.9 L-708.8 -287.9 L-709.8 -288 L-710.8 -288 L-711.8 -288 L-712.8 -288 L-712.8 -289 L-712.8 -290 L-712.7 -290.9 L-712.7 -291.9 L-712.7 -292.9 L-712.7 -293.9 L-712.7 -294.9 L-712.7 -295.8 L-712.7 -296.8 L-712.7 -297.8 L-712.6 -298.8 L-712.6 -299.8 L-712.6 -300.8 L-712.6 -301.7 L-712.6 -302.7 L-712.6 -303.7 L-712.6 -304.7 L-712.6 -305.7 L-712.6 -306.6 L-712.5 -307.6 L-712.5 -308.6 L-712.5 -309.6 L-712.5 -310.6 L-712.5 -311.6 L-712.5 -312.5 L-711.5 -312.5 L-710.5 -312.5 L-709.5 -312.5 L-708.6 -312.5 L-707.6 -312.5 L-706.6 -312.5 L-705.6 -312.5 L-704.6 -312.4 L-703.6 -312.4 L-702.7 -312.4 L-701.7 -312.4 L-700.7 -312.4 L-699.7 -312.4 L-698.7 -312.4 L-697.8 -312.4 L-696.8 -312.3 L-695.8 -312.3 L-694.8 -312.3 L-693.8 -312.3 L-692.8 -312.3 L-691.9 -312.3 L-690.9 -312.3 L-689.9 -312.3 L-688.9 -312.3 L-687.9 -312.2 Z " />
<path stroke="rgb(0,0,0)" stroke-opacity="1" fill="rgb(255,255,255)" fill-opacity="1" d="M1.18 287.5 L2.182 287.6 L3.172 287.8 L4.144 288.1 L5.092 288.4 L6.01 288.8 L6.891 289.3 L7.731 289.9 L8.524 290.5 L9.265 291.2 L9.949 291.9 L10.57 292.7 L11.13 293.6 L11.62 294.4 L12.04 295.4 L12.38 296.3 L12.65 297.3 L12.84 298.3 L12.95 299.3 L12.98 300.3 L12.93 301.3 L12.8 302.3 L12.59 303.3 L12.31 304.2 L11.94 305.2 L11.51 306.1 L11 307 L10.43 307.8 L9.788 308.6 L9.089 309.3 L8.336 310 L7.531 310.6 L6.68 311.1 L5.79 311.6 L4.864 312 L3.91 312.3 L2.933 312.6 L1.939 312.7 L0.935 312.8 L-0.07307 312.8 L-1.079 312.8 L-2.076 312.6 L-3.058 312.4 L-4.019 312.1 L-4.952 311.7 L-5.852 311.2 L-6.713 310.7 L-7.53 310.1 L-8.298 309.5 L-9.011 308.8 L-9.665 308 L-10.26 307.2 L-10.78 306.3 L-11.24 305.4 L-11.62 304.5 L-11.92 303.5 L-12.15 302.5 L-12.3 301.5 L-12.37 300.5 L-12.36 299.5 L-12.27 298.5 L-12.1 297.5 L-11.86 296.6 L-11.53 295.6 L-11.13 294.7 L-10.66 293.8 L-10.12 292.9 L-9.512 292.1 L-8.843 291.4 L-8.116 290.7 L-7.336 290 L-6.508 289.5 L-5.637 289 L-4.728 288.5 L-3.787 288.2 L-2.821 287.9 L-1.835 287.7 L-0.8349 287.5 L0.172 287.5 L1.18 287.5 Z " />
<path stroke="rgb(0,0,0)" stroke-opacity="1" fill="rgb(255,255,255)" fill-opacity="1" d="M-487.3 -311.6 L-487.3 -310.7 L-487.3 -309.7 L-487.3 -308.7 L-487.3 -307.7 L-487.3 -306.7 L-487.3 -305.8 L-487.3 -304.8 L-487.3 -303.8 L-487.3 -302.8 L-487.3 -301.8 L-487.3 -300.8 L-487.3 -299.9 L-487.3 -298.9 L-487.3 -297.9 L-487.3 -296.9 L-487.3 -295.9 L-487.3 -295 L-487.3 -294 L-487.3 -293 L-487.3 -292 L-487.3 -291 L-487.3 -290 L-487.3 -289.1 L-487.3 -288.1 L-487.3 -287.1 L-488.3 -287.1 L-489.3 -287.1 L-490.3 -287.1 L-491.3 -287.1 L-492.3 -287.1 L-493.2 -287.1 L-494.2 -287.1 L-495.2 -287.1 L-496.2 -287.1 L-497.2 -287.1 L-498.1 -287.1 L-499.1 -287.1 L-500.1 -287.1 L-501.1 -287.1 L-502.1 -287.1 L-503.1 -287.1 L-504 -287.1 L-505 -287.1 L-506 -287.1 L-507 -287.1 L-508 -287.1 L-508.9 -287.1 L-509.9 -287.1 L-510.9 -287.1 L-511.9 -287.1 L-511.9 -288.1 L-511.9 -289.1 L-511.9 -290.1 L-511.9 -291 L-511.9 -292 L-511.9 -293 L-511.9 -294 L-511.9 -295 L-511.9 -295.9 L-511.9 -296.9 L-511.9 -297.9 L-511.9 -298.9 L-511.9 -299.9 L-511.9 -300.9 L-511.9 -301.8 L-511.9 -302.8 L-511.9 -303.8 L-511.9 -304.8 L-511.9 -305.8 L-511.9 -306.7 L-511.9 -307.7 L-511.9 -308.7 L-511.9 -309.7 L-511.9 -310.7 L-511.9 -311.7 L-510.9 -311.7 L-509.9 -311.7 L-508.9 -311.7 L-508 -311.7 L-507 -311.6 L-506 -311.6 L-505 -311.6 L-504 -311.6 L-503 -311.6 L-502.1 -311.6 L-501.1 -311.6 L-500.1 -311.6 L-499.1 -311.6 L-498.1 -311.6 L-497.2 -311.6 L-496.2 -311.6 L-495.2 -311.6 L-494.2 -311.6 L-493.2 -311.6 L-492.2 -311.6 L-491.3 -311.6 L-490.3 -311.6 L-489.3 -311.6 L-488.3 -311.6 L-487.3 -311.6 Z " />
<path stroke="rgb(0,0,0)" stroke-opacity="1" fill="rgb(255,255,255)" fill-opacity="1" d="M200.5 287.8 L201.4 287.8 L202.4 288 L203.4 288.2 L204.3 288.5 L205.2 288.8 L206.1 289.2 L207 289.7 L207.8 290.3 L208.5 290.9 L209.2 291.6 L209.9 292.3 L210.5 293.1 L211 294 L211.5 294.8 L211.9 295.7 L212.2 296.7 L212.4 297.6 L212.6 298.6 L212.7 299.6 L212.7 300.6 L212.6 301.5 L212.5 302.5 L212.2 303.5 L211.9 304.4 L211.6 305.3 L211.1 306.2 L210.6 307 L210 307.8 L209.4 308.6 L208.7 309.3 L207.9 309.9 L207.1 310.5 L206.3 311 L205.4 311.4 L204.5 311.8 L203.6 312.1 L202.6 312.3 L201.6 312.4 L200.6 312.5 L199.7 312.5 L198.7 312.4 L197.7 312.2 L196.8 312 L195.8 311.7 L194.9 311.3 L194.1 310.8 L193.2 310.3 L192.5 309.7 L191.7 309 L191 308.3 L190.4 307.6 L189.9 306.8 L189.4 305.9 L188.9 305 L188.6 304.1 L188.3 303.2 L188.1 302.2 L188 301.2 L187.9 300.2 L188 299.3 L188.1 298.3 L188.3 297.3 L188.5 296.4 L188.9 295.5 L189.3 294.6 L189.8 293.7 L190.3 292.9 L190.9 292.1 L191.6 291.4 L192.3 290.7 L193.1 290.1 L193.9 289.6 L194.8 289.1 L195.7 288.7 L196.6 288.4 L197.5 288.1 L198.5 287.9 L199.5 287.8 L200.5 287.8 Z " />
<path stroke="rgb(0,0,0)" stroke-opacity="1" fill="rgb(255,255,255)" fill-opacity="1" d="M-284.1 -308.4 L-284.1 -307.4 L-284 -306.4 L-283.9 -305.4 L-283.9 -304.5 L-283.8 -303.5 L-283.8 -302.5 L-283.7 -301.5 L-283.6 -300.5 L-283.6 -299.6 L-283.5 -298.6 L-283.4 -297.6 L-283.4 -296.6 L-283.3 -295.6 L-283.3 -294.7 L-283.2 -293.7 L-283.1 -292.7 L-283.1 -291.7 L-283 -290.7 L-283 -289.8 L-282.9 -288.8 L-282.8 -287.8 L-282.8 -286.8 L-282.7 -285.8 L-282.7 -284.9 L-282.6 -283.9 L-283.6 -283.8 L-284.5 -283.8 L-285.5 -283.7 L-286.5 -283.6 L-287.5 -283.6 L-288.5 -283.5 L-289.4 -283.5 L-290.4 -283.4 L-291.4 -283.3 L-292.4 -283.3 L-293.4 -283.2 L-294.3 -283.1 L-295.3 -283.1 L-296.3 -283 L-297.3 -283 L-298.3 -282.9 L-299.2 -282.8 L-300.2 -282.8 L-301.2 -282.7 L-302.2 -282.7 L-303.2 -282.6 L-304.1 -282.5 L-305.1 -282.5 L-306.1 -282.4 L-307.1 -282.3 L-307.1 -283.3 L-307.2 -284.3 L-307.3 -285.3 L-307.3 -286.3 L-307.4 -287.2 L-307.5 -288.2 L-307.5 -289.2 L-307.6 -290.2 L-307.6 -291.2 L-307.7 -292.1 L-307.8 -293.1 L-307.8 -294.1 L-307.9 -295.1 L-307.9 -296.1 L-308 -297 L-308.1 -298 L-308.1 -299 L-308.2 -300 L-308.3 -301 L-308.3 -301.9 L-308.4 -302.9 L-308.4 -303.9 L-308.5 -304.9 L-308.6 -305.9 L-308.6 -306.8 L-307.6 -306.9 L-306.7 -307 L-305.7 -307 L-304.7 -307.1 L-303.7 -307.2 L-302.7 -307.2 L-301.8 -307.3 L-300.8 -307.3 L-299.8 -307.4 L-298.8 -307.5 L-297.8 -307.5 L-296.9 -307.6 L-295.9 -307.6 L-294.9 -307.7 L-293.9 -307.8 L-292.9 -307.8 L-292 -307.9 L-291 -307.9 L-290 -308 L-289 -308.1 L-288 -308.1 L-287.1 -308.2 L-286.1 -308.3 L-285.1 -308.3 L-284.1 -308.4 Z " />
</g>
</g>
</svg>
