<!DOCTYPE svg>
<svg xmlns="http://www.w3.org/2000/svg" xmlns:xlink="http://www.w3.org/1999/xlink" width="1000" height="1000">
<g transform="translate(500.000000,500.000000)">
<g transform="scale(3.000000,3.000000)">
<path stroke="rgb(0,0,0)" stroke-opacity="1" fill="rgb(255,255,255)" fill-opacity="1" d="M-487.9 -512.5 L-487.9 -511.5 L-487.9 -510.5 L-487.9 -509.5 L-487.9 -508.5 L-487.9 -507.5 L-487.9 -506.5 L-487.9 -505.5 L-487.9 -504.6 L-487.9 -503.6 L-487.9 -502.6 L-487.9 -501.6 L-487.9 -500.6 L-487.9 -499.6 L-487.9 -498.6 L-487.9 -497.6 L-487.9 -496.6 L-487.9 -495.6 L-488 -494.6 L-488 -493.6 L-488 -492.6 L-488 -491.6 L-488 -490.6 L-488 -489.6 L-488 -488.6 L-488 -487.6 L-489 -487.6 L-490 -487.7 L-491 -487.7 L-492 -487.7 L-492.9 -487.7 L-493.9 -487.7 L-494.9 -487.7 L-495.9 -487.7 L-496.9 -487.7 L-497.9 -487.7 L-498.9 -487.7 L-499.9 -487.7 L-500.9 -487.7 L-501.9 -487.7 L-502.9 -487.7 L-503.9 -487.7 L-504.9 -487.7 L-505.9 -487.7 L-506.9 -487.7 L-507.9 -487.7 L-508.9 -487.7 L-509.9 -487.7 L-510.9 -487.7 L-511.8 -487.7 L-512.8 -487.7 L-512.8 -488.7 L-512.8 -489.7 L-512.8 -490.7 L-512.8 -491.7 L-512.8 -492.7 L-512.8 -493.7 L-512.8 -494.7 L-512.8 -495.7 L-512.8 -496.7 L-512.8 -497.7 L-512.8 -498.7 L-512.8 -499.7 L-512.8 -500.7 L-512.8 -501.7 L-512.8 -502.6 L-512.8 -503.6 L-512.8 -504.6 L-512.8 -505.6 L-512.8 -506.6 L-512.8 -507.6 L-512.8 -508.6 L-512.8 -509.6 L-512.8 -510.6 L-512.8 -511.6 L-512.8 -512.6 L-511.8 -512.6 L-510.8 -512.6 L-509.8 -512.6 L-508.8 -512.6 L-507.8 -512.6 L-506.8 -512.6 L-505.8 -512.6 L-504.8 -512.6 L-503.8 -512.6 L-502.8 -512.6 L-501.8 -512.6 L-500.8 -512.6 L-499.8 -512.6 L-498.8 -512.5 L-497.8 -512.5 L-496.8 -512.5 L-495.8 -512.5 L-494.9 -512.5 L-493.9 -512.5 L-492.9 -512.5 L-491.9 -512.5 L-490.9 -512.5 L-489.9 -512.5 L-488.9 -512.5 L-487.9 -512.5 Z " />
<path stroke="rgb(0,0,0)" stroke-opacity="1" fill="rgb(255,255,255)" fill-opacity="1" d="M-179.6 -306.8 L-179.1 -305.2 L-178.7 -303.5 L-178.5 -301.8 L-178.4 -300.1 L-178.5 -298.4 L-178.7 -296.7 L-179 -295 L-179.4 -293.4 L-180 -291.8 L-180.7 -290.2 L-181.6 -288.7 L-182.5 -287.3 L-183.6 -285.9 L-184.7 -284.7 L-186 -283.5 L-187.3 -282.5 L-188.8 -281.5 L-190.3 -280.7 L-191.8 -280 L-193.4 -279.4 L-195.1 -278.9 L-196.8 -278.6 L-198.5 -278.4 L-200.2 -278.4 L-201.9 -278.5 L-203.6 -278.7 L-205.3 -279.1 L-206.9 -279.5 L-208.5 -280.2 L-210 -280.9 L-211.5 -281.8 L-212.9 -282.7 L-214.2 -283.8 L-215.5 -285 L-216.6 -286.3 L-217.6 -287.7 L-218.6 -289.1 L-219.4 -290.6 L-220 -292.2 L-220.6 -293.8 L-221 -295.5 L-221.3 -297.2 L-221.4 -298.9 L-221.5 -300.6 L-221.3 -302.3 L-221.1 -304 L-220.7 -305.6 L-220.2 -307.3 L-219.5 -308.9 L-218.7 -310.4 L-217.9 -311.8 L-216.8 -313.2 L-215.7 -314.5 L-214.5 -315.7 L-213.2 -316.9 L-211.8 -317.9 L-210.4 -318.7 L-208.8 -319.5 L-207.3 -320.2 L-205.6 -320.7 L-204 -321.1 L-202.3 -321.3 L-200.6 -321.4 L-198.8 -321.4 L-197.1 -321.3 L-195.5 -321 L-193.8 -320.5 L-192.2 -320 L-190.6 -319.3 L-189.1 -318.5 L-187.7 -317.6 L-186.3 -316.5 L-185 -315.4 L-183.8 -314.2 L-182.7 -312.9 L-181.8 -311.4 L-180.9 -310 L-180.2 -308.4 L-179.6 -306.8 Z " />
<path stroke="rgb(0,0,0)" stroke-opacity="1" fill="rgb(255,255,255)" fill-opacity="1" d="M-287.9 -512.5 L-287.9 -511.5 L-287.9 -510.5 L-287.9 -509.5 L-287.9 -508.5 L-287.9 -507.5 L-287.9 -506.5 L-287.9 -505.5 L-287.9 -504.6 L-287.9 -503.6 L-287.9 -502.6 L-287.9 -501.6 L-287.9 -500.6 L-287.9 -499.6 L-287.9 -498.6 L-287.9 -497.6 L-287.9 -496.6 L-287.9 -495.6 L-288 -494.6 L-288 -493.6 L-288 -492.6 L-288 -491.6 L-288 -490.6 L-288 -489.6 L-288 -488.6 L-288 -487.6 L-289 -487.6 L-290 -487.7 L-291 -487.7 L-292 -487.7 L-292.9 -487.7 L-293.9 -487.7 L-294.9 -487.7 L-295.9 -487.7 L-296.9 -487.7 L-297.9 -487.7 L-298.9 -487.7 L-299.9 -487.7 L-300.9 -487.7 L-301.9 -487.7 L-302.9 -487.7 L-303.9 -487.7 L-304.9 -487.7 L-305.9 -487.7 L-306.9 -487.7 L-307.9 -487.7 L-308.9 -487.7 L-309.9 -487.7 L-310.9 -487.7 L-311.8 -487.7 L-312.8 -487.7 L-312.8 -488.7 L-312.8 -489.7 L-312.8 -490.7 L-312.8 -491.7 L-312.8 -492.7 L-312.8 -493.7 L-312.8 -494.7 L-312.8 -495.7 L-312.8 -496.7 L-312.8 -497.7 L-312.8 -498.7 L-312.8 -499.7 L-312.8 -500.7 L-312.8 -501.7 L-312.8 -502.6 L-312.8 -503.6 L-312.8 -504.6 L-312.8 -505.6 L-312.8 -506.6 L-312.8 -507.6 L-312.8 -508.6 L-312.8 -509.6 L-312.8 -510.6 L-312.8 -511.6 L-312.8 -512.6 L-311.8 -512.6 L-310.8 -512.6 L-309.8 -512.6 L-308.8 -512.6 L-307.8 -512.6 L-306.8 -512.6 L-305.8 -512.6 L-304.8 -512.6 L-303.8 -512.6 L-302.8 -512.6 L-301.8 -512.6 L-300.8 -512.6 L-299.8 -512.6 L-298.8 -512.5 L-297.8 -512.5 L-296.8 -512.5 L-295.8 -512.5 L-294.9 -512.5 L-293.9 -512.5 L-292.9 -512.5 L-291.9 -512.5 L-290.9 -512.5 L-289.9 -512.5 L-288.9 -512.5 L-287.9 -512.5 Z " />
<path stroke="rgb(0,0,0)" stroke-opacity="1" fill="rgb(255,255,255)" fill-opacity="1" d="M5 -313.5 L6.067 -313 L7.097 -312.5 L8.084 -311.9 L9.022 -311.3 L9.904 -310.5 L10.73 -309.7 L11.48 -308.9 L12.16 -308 L12.77 -307 L13.3 -306 L13.75 -304.9 L14.11 -303.8 L14.39 -302.7 L14.57 -301.6 L14.66 -300.4 L14.67 -299.3 L14.58 -298.2 L14.4 -297 L14.13 -295.9 L13.78 -294.8 L13.34 -293.8 L12.81 -292.7 L12.21 -291.8 L11.53 -290.8 L10.78 -290 L9.962 -289.2 L9.084 -288.4 L8.15 -287.8 L7.166 -287.2 L6.139 -286.7 L5.074 -286.2 L3.978 -285.9 L2.859 -285.6 L1.724 -285.5 L0.5792 -285.4 L-0.5676 -285.4 L-1.709 -285.5 L-2.838 -285.7 L-3.948 -286 L-5.031 -286.4 L-6.081 -286.9 L-7.09 -287.4 L-8.053 -288 L-8.964 -288.7 L-9.817 -289.5 L-10.61 -290.3 L-11.33 -291.2 L-11.97 -292.2 L-12.54 -293.2 L-13.03 -294.2 L-13.44 -295.3 L-13.75 -296.4 L-13.98 -297.5 L-14.12 -298.6 L-14.17 -299.8 L-14.13 -300.9 L-14 -302.1 L-13.77 -303.2 L-13.46 -304.3 L-13.06 -305.4 L-12.58 -306.4 L-12.01 -307.4 L-11.37 -308.4 L-10.66 -309.3 L-9.873 -310.1 L-9.024 -310.9 L-8.117 -311.6 L-7.158 -312.2 L-6.151 -312.8 L-5.104 -313.2 L-4.023 -313.6 L-2.915 -313.9 L-1.787 -314.1 L-0.6459 -314.2 L0.5007 -314.3 L1.646 -314.2 L2.782 -314 L3.902 -313.8 L5 -313.5 Z " />
<path stroke="rgb(0,0,0)" stroke-opacity="1" fill="rgb(255,255,255)" fill-opacity="1" d="M-87.85 -512.5 L-87.85 -511.5 L-87.85 -510.5 L-87.85 -509.5 L-87.86 -508.5 L-87.86 -507.5 L-87.86 -506.5 L-87.86 -505.5 L-87.87 -504.5 L-87.87 -503.5 L-87.87 -502.5 L-87.87 -501.5 L-87.88 -500.5 L-87.88 -499.5 L-87.88 -498.5 L-87.88 -497.5 L-87.89 -496.6 L-87.89 -495.6 L-87.89 -494.6 L-87.89 -493.6 L-87.9 -492.6 L-87.9 -491.6 L-87.9 -490.6 L-87.9 -489.6 L-87.91 -488.6 L-87.91 -487.6 L-88.9 -487.6 L-89.9 -487.6 L-90.89 -487.6 L-91.89 -487.6 L-92.88 -487.6 L-93.88 -487.6 L-94.87 -487.6 L-95.87 -487.6 L-96.86 -487.6 L-97.85 -487.6 L-98.85 -487.6 L-99.84 -487.6 L-100.8 -487.6 L-101.8 -487.6 L-102.8 -487.6 L-103.8 -487.6 L-104.8 -487.6 L-105.8 -487.6 L-106.8 -487.6 L-107.8 -487.7 L-108.8 -487.7 L-109.8 -487.7 L-110.8 -487.7 L-111.8 -487.7 L-112.8 -487.7 L-112.8 -488.7 L-112.8 -489.7 L-112.8 -490.6 L-112.8 -491.6 L-112.8 -492.6 L-112.8 -493.6 L-112.8 -494.6 L-112.8 -495.6 L-112.8 -496.6 L-112.7 -497.6 L-112.7 -498.6 L-112.7 -499.6 L-112.7 -500.6 L-112.7 -501.6 L-112.7 -502.6 L-112.7 -503.6 L-112.7 -504.6 L-112.7 -505.6 L-112.7 -506.6 L-112.7 -507.6 L-112.7 -508.5 L-112.7 -509.5 L-112.7 -510.5 L-112.7 -511.5 L-112.7 -512.5 L-111.7 -512.5 L-110.7 -512.5 L-109.7 -512.5 L-108.7 -512.5 L-107.7 -512.5 L-106.7 -512.5 L-105.7 -512.5 L-104.8 -512.5 L-103.8 -512.5 L-102.8 -512.5 L-101.8 -512.5 L-100.8 -512.5 L-99.78 -512.5 L-98.79 -512.5 L-97.79 -512.5 L-96.8 -512.5 L-95.8 -512.5 L-94.81 -512.5 L-93.81 -512.5 L-92.82 -512.5 L-91.83 -512.5 L-90.83 -512.5 L-89.84 -512.5 L-88.84 -512.5 L-87.85 -512.5 Z " />
<path stroke="rgb(0,0,0)" stroke-opacity="1" fill="rgb(255,255,255)" fill-opacity="1" d="M200.5 -312.4 L201.5 -312.3 L202.5 -312.2 L203.5 -312 L204.4 -311.7 L205.3 -311.3 L206.2 -310.9 L207.1 -310.4 L207.9 -309.8 L208.7 -309.2 L209.4 -308.5 L210.1 -307.7 L210.7 -306.9 L211.2 -306.1 L211.6 -305.2 L212 -304.3 L212.3 -303.3 L212.6 -302.4 L212.7 -301.4 L212.8 -300.4 L212.8 -299.4 L212.8 -298.4 L212.6 -297.4 L212.4 -296.4 L212.1 -295.5 L211.7 -294.6 L211.2 -293.7 L210.7 -292.8 L210.1 -292 L209.5 -291.3 L208.8 -290.6 L208 -289.9 L207.2 -289.4 L206.3 -288.9 L205.4 -288.4 L204.5 -288 L203.6 -287.7 L202.6 -287.5 L201.6 -287.4 L200.6 -287.3 L199.6 -287.3 L198.6 -287.4 L197.6 -287.6 L196.7 -287.8 L195.7 -288.2 L194.8 -288.6 L193.9 -289 L193.1 -289.6 L192.3 -290.2 L191.6 -290.9 L190.9 -291.6 L190.3 -292.4 L189.7 -293.2 L189.2 -294 L188.8 -294.9 L188.4 -295.9 L188.1 -296.8 L187.9 -297.8 L187.8 -298.8 L187.8 -299.8 L187.8 -300.8 L187.9 -301.8 L188.1 -302.8 L188.4 -303.7 L188.7 -304.7 L189.2 -305.6 L189.6 -306.4 L190.2 -307.3 L190.8 -308 L191.5 -308.8 L192.2 -309.4 L193 -310 L193.9 -310.6 L194.7 -311.1 L195.6 -311.5 L196.6 -311.8 L197.5 -312.1 L198.5 -312.2 L199.5 -312.4 L200.5 -312.4 Z " />
<path stroke="rgb(0,0,0)" stroke-opacity="1" fill="rgb(255,255,255)" fill-opacity="1" d="M113.4 -511.2 L113.4 -510.2 L113.4 -509.3 L113.4 -508.3 L113.5 -507.3 L113.5 -506.3 L113.5 -505.3 L113.5 -504.3 L113.5 -503.3 L113.6 -502.3 L113.6 -501.3 L113.6 -500.3 L113.6 -499.3 L113.6 -498.3 L113.7 -497.3 L113.7 -496.3 L113.7 -495.3 L113.7 -494.3 L113.8 -493.3 L113.8 -492.3 L113.8 -491.4 L113.8 -490.4 L113.8 -489.4 L113.9 -488.4 L113.9 -487.4 L113.9 -486.4 L112.9 -486.4 L111.9 -486.3 L110.9 -486.3 L109.9 -486.3 L108.9 -486.3 L107.9 -486.3 L106.9 -486.2 L105.9 -486.2 L105 -486.2 L104 -486.2 L103 -486.1 L102 -486.1 L101 -486.1 L99.98 -486.1 L98.99 -486.1 L97.99 -486 L97 -486 L96 -486 L95.01 -486 L94.02 -486 L93.02 -485.9 L92.03 -485.9 L91.03 -485.9 L90.04 -485.9 L89.04 -485.9 L89.02 -486.8 L89 -487.8 L88.98 -488.8 L88.96 -489.8 L88.94 -490.8 L88.92 -491.8 L88.9 -492.8 L88.87 -493.8 L88.85 -494.8 L88.83 -495.8 L88.81 -496.8 L88.79 -497.8 L88.77 -498.8 L88.75 -499.8 L88.73 -500.8 L88.7 -501.8 L88.68 -502.8 L88.66 -503.7 L88.64 -504.7 L88.62 -505.7 L88.6 -506.7 L88.58 -507.7 L88.56 -508.7 L88.53 -509.7 L88.51 -510.7 L89.51 -510.7 L90.5 -510.8 L91.5 -510.8 L92.49 -510.8 L93.49 -510.8 L94.48 -510.8 L95.47 -510.9 L96.47 -510.9 L97.46 -510.9 L98.46 -510.9 L99.45 -510.9 L100.4 -511 L101.4 -511 L102.4 -511 L103.4 -511 L104.4 -511 L105.4 -511.1 L106.4 -511.1 L107.4 -511.1 L108.4 -511.1 L109.4 -511.2 L110.4 -511.2 L111.4 -511.2 L112.4 -511.2 L113.4 -511.2 Z " />
<path stroke="rgb(0,0,0)" stroke-opacity="1" fill="rgb(255,255,255)" fill-opacity="1" d="M-279.6 -206.8 L-279.1 -205.2 L-278.7 -203.5 L-278.5 -201.8 L-278.4 -200.1 L-278.5 -198.4 L-278.7 -196.7 L-279 -195 L-279.4 -193.4 L-280 -191.8 L-280.7 -190.2 L-281.6 -188.7 L-282.5 -187.3 L-283.6 -185.9 L-284.7 -184.7 L-286 -183.5 L-287.3 -182.5 L-288.8 -181.5 L-290.3 -180.7 L-291.8 -180 L-293.4 -179.4 L-295.1 -178.9 L-296.8 -178.6 L-298.5 -178.4 L-300.2 -178.4 L-301.9 -178.5 L-303.6 -178.7 L-305.3 -179.1 L-306.9 -179.5 L-308.5 -180.2 L-310 -180.9 L-311.5 -181.8 L-312.9 -182.7 L-314.2 -183.8 L-315.5 -185 L-316.6 -186.3 L-317.6 -187.7 L-318.6 -189.1 L-319.4 -190.6 L-320 -192.2 L-320.6 -193.8 L-321 -195.5 L-321.3 -197.2 L-321.4 -198.9 L-321.5 -200.6 L-321.3 -202.3 L-321.1 -204 L-320.7 -205.6 L-320.2 -207.3 L-319.5 -208.9 L-318.7 -210.4 L-317.9 -211.8 L-316.8 -213.2 L-315.7 -214.5 L-314.5 -215.7 L-313.2 -216.9 L-311.8 -217.9 L-310.4 -218.7 L-308.8 -219.5 L-307.3 -220.2 L-305.6 -220.7 L-304 -221.1 L-302.3 -221.3 L-300.6 -221.4 L-298.8 -221.4 L-297.1 -221.3 L-295.5 -221 L-293.8 -220.5 L-292.2 -220 L-290.6 -219.3 L-289.1 -218.5 L-287.7 -217.6 L-286.3 -216.5 L-285 -215.4 L-283.8 -214.2 L-282.7 -212.9 L-281.8 -211.4 L-280.9 -210 L-280.2 -208.4 L-279.6 -206.8 Z " />
<path stroke="rgb(0,0,0)" stroke-opacity="1" fill="rgb(255,255,255)" fill-opacity="1" d="M-387.9 -412.5 L-387.9 -411.5 L-387.9 -410.5 L-387.9 -409.5 L-387.9 -408.5 L-387.9 -407.5 L-387.9 -406.5 L-387.9 -405.5 L-387.9 -404.6 L-387.9 -403.6 L-387.9 -402.6 L-387.9 -401.6 L-387.9 -400.6 L-387.9 -399.6 L-387.9 -398.6 L-387.9 -397.6 L-387.9 -396.6 L-387.9 -395.6 L-388 -394.6 L-388 -393.6 L-388 -392.6 L-388 -391.6 L-388 -390.6 L-388 -389.6 L-388 -388.6 L-388 -387.6 L-389 -387.6 L-390 -387.7 L-391 -387.7 L-392 -387.7 L-392.9 -387.7 L-393.9 -387.7 L-394.9 -387.7 L-395.9 -387.7 L-396.9 -387.7 L-397.9 -387.7 L-398.9 -387.7 L-399.9 -387.7 L-400.9 -387.7 L-401.9 -387.7 L-402.9 -387.7 L-403.9 -387.7 L-404.9 -387.7 L-405.9 -387.7 L-406.9 -387.7 L-407.9 -387.7 L-408.9 -387.7 L-409.9 -387.7 L-410.9 -387.7 L-411.8 -387.7 L-412.8 -387.7 L-412.8 -388.7 L-412.8 -389.7 L-412.8 -390.7 L-412.8 -391.7 L-412.8 -392.7 L-412.8 -393.7 L-412.8 -394.7 L-412.8 -395.7 L-412.8 -396.7 L-412.8 -397.7 L-412.8 -398.7 L-412.8 -399.7 L-412.8 -400.7 L-412.8 -401.7 L-412.8 -402.6 L-412.8 -403.6 L-412.8 -404.6 L-412.8 -405.6 L-412.8 -406.6 L-412.8 -407.6 L-412.8 -408.6 L-412.8 -409.6 L-412.8 -410.6 L-412.8 -411.6 L-412.8 -412.6 L-411.8 -412.6 L-410.8 -412.6 L-409.8 -412.6 L-408.8 -412.6 L-407.8 -412.6 L-406.8 -412.6 L-405.8 -412.6 L-404.8 -412.6 L-403.8 -412.6 L-402.8 -412.6 L-401.8 -412.6 L-400.8 -412.6 L-399.8 -412.6 L-398.8 -412.5 L-397.8 -412.5 L-396.8 -412.5 L-395.8 -412.5 L-394.9 -412.5 L-393.9 -412.5 L-392.9 -412.5 L-391.9 -412.5 L-390.9 -412.5 L-389.9 -412.5 L-388.9 -412.5 L-387.9 -412.5 Z " />
<path stroke="rgb(0,0,0)" stroke-opacity="1" fill="rgb(255,255,255)" fill-opacity="1" d="M-95 -213.5 L-93.93 -213 L-92.9 -212.5 L-91.92 -211.9 L-90.98 -211.3 L-90.1 -210.5 L-89.27 -209.7 L-88.52 -208.9 L-87.84 -208 L-87.23 -207 L-86.7 -206 L-86.25 -204.9 L-85.89 -203.8 L-85.61 -202.7 L-85.43 -201.6 L-85.34 -200.4 L-85.33 -199.3 L-85.42 -198.2 L-85.6 -197 L-85.87 -195.9 L-86.22 -194.8 L-86.66 -193.8 L-87.19 -192.7 L-87.79 -191.8 L-88.47 -190.8 L-89.22 -190 L-90.04 -189.2 L-90.92 -188.4 L-91.85 -187.8 L-92.83 -187.2 L-93.86 -186.7 L-94.93 -186.2 L-96.02 -185.9 L-97.14 -185.6 L-98.28 -185.5 L-99.42 -185.4 L-100.6 -185.4 L-101.7 -185.5 L-102.8 -185.7 L-103.9 -186 L-105 -186.4 L-106.1 -186.9 L-107.1 -187.4 L-108.1 -188 L-109 -188.7 L-109.8 -189.5 L-110.6 -190.3 L-111.3 -191.2 L-112 -192.2 L-112.5 -193.2 L-113 -194.2 L-113.4 -195.3 L-113.8 -196.4 L-114 -197.5 L-114.1 -198.6 L-114.2 -199.8 L-114.1 -200.9 L-114 -202.1 L-113.8 -203.2 L-113.5 -204.3 L-113.1 -205.4 L-112.6 -206.4 L-112 -207.4 L-111.4 -208.4 L-110.7 -209.3 L-109.9 -210.1 L-109 -210.9 L-108.1 -211.6 L-107.2 -212.2 L-106.2 -212.8 L-105.1 -213.2 L-104 -213.6 L-102.9 -213.9 L-101.8 -214.1 L-100.6 -214.2 L-99.5 -214.3 L-98.35 -214.2 L-97.22 -214 L-96.1 -213.8 L-95 -213.5 Z " />
<path stroke="rgb(0,0,0)" stroke-opacity="1" fill="rgb(255,255,255)" fill-opacity="1" d="M-187.8 -412.5 L-187.8 -411.5 L-187.9 -410.5 L-187.9 -409.5 L-187.9 -408.5 L-187.9 -407.5 L-187.9 -406.5 L-187.9 -405.5 L-187.9 -404.5 L-187.9 -403.5 L-187.9 -402.5 L-187.9 -401.5 L-187.9 -400.5 L-187.9 -399.5 L-187.9 -398.5 L-187.9 -397.5 L-187.9 -396.6 L-187.9 -395.6 L-187.9 -394.6 L-187.9 -393.6 L-187.9 -392.6 L-187.9 -391.6 L-187.9 -390.6 L-187.9 -389.6 L-187.9 -388.6 L-187.9 -387.6 L-188.9 -387.6 L-189.9 -387.6 L-190.9 -387.6 L-191.9 -387.6 L-192.9 -387.6 L-193.9 -387.6 L-194.9 -387.6 L-195.9 -387.6 L-196.9 -387.6 L-197.9 -387.6 L-198.8 -387.6 L-199.8 -387.6 L-200.8 -387.6 L-201.8 -387.6 L-202.8 -387.6 L-203.8 -387.6 L-204.8 -387.6 L-205.8 -387.6 L-206.8 -387.6 L-207.8 -387.7 L-208.8 -387.7 L-209.8 -387.7 L-210.8 -387.7 L-211.8 -387.7 L-212.8 -387.7 L-212.8 -388.7 L-212.8 -389.7 L-212.8 -390.6 L-212.8 -391.6 L-212.8 -392.6 L-212.8 -393.6 L-212.8 -394.6 L-212.8 -395.6 L-212.8 -396.6 L-212.7 -397.6 L-212.7 -398.6 L-212.7 -399.6 L-212.7 -400.6 L-212.7 -401.6 L-212.7 -402.6 L-212.7 -403.6 L-212.7 -404.6 L-212.7 -405.6 L-212.7 -406.6 L-212.7 -407.6 L-212.7 -408.5 L-212.7 -409.5 L-212.7 -410.5 L-212.7 -411.5 L-212.7 -412.5 L-211.7 -412.5 L-210.7 -412.5 L-209.7 -412.5 L-208.7 -412.5 L-207.7 -412.5 L-206.7 -412.5 L-205.7 -412.5 L-204.8 -412.5 L-203.8 -412.5 L-202.8 -412.5 L-201.8 -412.5 L-200.8 -412.5 L-199.8 -412.5 L-198.8 -412.5 L-197.8 -412.5 L-196.8 -412.5 L-195.8 -412.5 L-194.8 -412.5 L-193.8 -412.5 L-192.8 -412.5 L-191.8 -412.5 L-190.8 -412.5 L-189.8 -412.5 L-188.8 -412.5 L-187.8 -412.5 Z " />
<path stroke="rgb(0,0,0)" stroke-opacity="1" fill="rgb(255,255,255)" fill-opacity="1" d="M100.5 -212.4 L101.5 -212.3 L102.5 -212.2 L103.5 -212 L104.4 -211.7 L105.3 -211.3 L106.2 -210.9 L107.1 -210.4 L107.9 -209.8 L108.7 -209.2 L109.4 -208.5 L110.1 -207.7 L110.7 -206.9 L111.2 -206.1 L111.6 -205.2 L112 -204.3 L112.3 -203.3 L112.6 -202.4 L112.7 -201.4 L112.8 -200.4 L112.8 -199.4 L112.8 -198.4 L112.6 -197.4 L112.4 -196.4 L112.1 -195.5 L111.7 -194.6 L111.2 -193.7 L110.7 -192.8 L110.1 -192 L109.5 -191.3 L108.8 -190.6 L108 -189.9 L107.2 -189.4 L106.3 -188.9 L105.4 -188.4 L104.5 -188 L103.6 -187.7 L102.6 -187.5 L101.6 -187.4 L100.6 -187.3 L99.61 -187.3 L98.62 -187.4 L97.64 -187.6 L96.67 -187.8 L95.73 -188.2 L94.82 -188.6 L93.94 -189 L93.1 -189.6 L92.31 -190.2 L91.57 -190.9 L90.89 -191.6 L90.26 -192.4 L89.7 -193.2 L89.2 -194 L88.77 -194.9 L88.42 -195.9 L88.14 -196.8 L87.94 -197.8 L87.82 -198.8 L87.78 -199.8 L87.81 -200.8 L87.93 -201.8 L88.12 -202.8 L88.39 -203.7 L88.74 -204.7 L89.16 -205.6 L89.64 -206.4 L90.2 -207.3 L90.82 -208 L91.5 -208.8 L92.24 -209.4 L93.03 -210 L93.86 -210.6 L94.73 -211.1 L95.64 -211.5 L96.58 -211.8 L97.54 -212.1 L98.52 -212.2 L99.51 -212.4 L100.5 -212.4 Z " />
<path stroke="rgb(0,0,0)" stroke-opacity="1" fill="rgb(255,255,255)" fill-opacity="1" d="M13.37 -411.2 L13.39 -410.2 L13.42 -409.3 L13.44 -408.3 L13.46 -407.3 L13.48 -406.3 L13.5 -405.3 L13.52 -404.3 L13.54 -403.3 L13.56 -402.3 L13.59 -401.3 L13.61 -400.3 L13.63 -399.3 L13.65 -398.3 L13.67 -397.3 L13.69 -396.3 L13.71 -395.3 L13.73 -394.3 L13.76 -393.3 L13.78 -392.3 L13.8 -391.4 L13.82 -390.4 L13.84 -389.4 L13.86 -388.4 L13.88 -387.4 L13.9 -386.4 L12.91 -386.4 L11.92 -386.3 L10.92 -386.3 L9.926 -386.3 L8.932 -386.3 L7.937 -386.3 L6.943 -386.2 L5.949 -386.2 L4.954 -386.2 L3.96 -386.2 L2.965 -386.1 L1.971 -386.1 L0.9766 -386.1 L-0.01782 -386.1 L-1.012 -386.1 L-2.007 -386 L-3.001 -386 L-3.995 -386 L-4.99 -386 L-5.984 -386 L-6.979 -385.9 L-7.973 -385.9 L-8.967 -385.9 L-9.962 -385.9 L-10.96 -385.9 L-10.98 -386.8 L-11 -387.8 L-11.02 -388.8 L-11.04 -389.8 L-11.06 -390.8 L-11.08 -391.8 L-11.1 -392.8 L-11.13 -393.8 L-11.15 -394.8 L-11.17 -395.8 L-11.19 -396.8 L-11.21 -397.8 L-11.23 -398.8 L-11.25 -399.8 L-11.27 -400.8 L-11.3 -401.8 L-11.32 -402.8 L-11.34 -403.7 L-11.36 -404.7 L-11.38 -405.7 L-11.4 -406.7 L-11.42 -407.7 L-11.44 -408.7 L-11.47 -409.7 L-11.49 -410.7 L-10.49 -410.7 L-9.498 -410.8 L-8.503 -410.8 L-7.509 -410.8 L-6.514 -410.8 L-5.52 -410.8 L-4.525 -410.9 L-3.531 -410.9 L-2.537 -410.9 L-1.542 -410.9 L-0.5479 -410.9 L0.4465 -411 L1.441 -411 L2.435 -411 L3.43 -411 L4.424 -411 L5.419 -411.1 L6.413 -411.1 L7.407 -411.1 L8.402 -411.1 L9.396 -411.2 L10.39 -411.2 L11.38 -411.2 L12.38 -411.2 L13.37 -411.2 Z " />
<path stroke="rgb(0,0,0)" stroke-opacity="1" fill="rgb(255,255,255)" fill-opacity="1" d="M300.4 -212.3 L301.3 -212.3 L302.3 -212.1 L303.3 -211.9 L304.3 -211.7 L305.2 -211.3 L306.1 -210.9 L306.9 -210.4 L307.8 -209.8 L308.5 -209.2 L309.2 -208.5 L309.9 -207.8 L310.5 -207 L311 -206.2 L311.5 -205.3 L311.9 -204.4 L312.2 -203.5 L312.5 -202.5 L312.7 -201.5 L312.8 -200.5 L312.8 -199.5 L312.7 -198.6 L312.6 -197.6 L312.4 -196.6 L312.1 -195.7 L311.7 -194.7 L311.2 -193.9 L310.7 -193 L310.2 -192.2 L309.5 -191.4 L308.8 -190.7 L308.1 -190.1 L307.3 -189.5 L306.4 -189 L305.6 -188.5 L304.6 -188.2 L303.7 -187.8 L302.7 -187.6 L301.7 -187.5 L300.8 -187.4 L299.8 -187.4 L298.8 -187.5 L297.8 -187.6 L296.8 -187.9 L295.9 -188.2 L295 -188.6 L294.1 -189 L293.3 -189.6 L292.5 -190.1 L291.7 -190.8 L291 -191.5 L290.4 -192.3 L289.8 -193.1 L289.3 -193.9 L288.9 -194.8 L288.5 -195.8 L288.2 -196.7 L288 -197.7 L287.9 -198.7 L287.8 -199.6 L287.9 -200.6 L288 -201.6 L288.2 -202.6 L288.4 -203.6 L288.7 -204.5 L289.1 -205.4 L289.6 -206.3 L290.2 -207.1 L290.8 -207.9 L291.4 -208.6 L292.2 -209.3 L292.9 -209.9 L293.8 -210.5 L294.6 -210.9 L295.5 -211.4 L296.5 -211.7 L297.4 -212 L298.4 -212.2 L299.4 -212.3 L300.4 -212.3 Z " />
<path stroke="rgb(0,0,0)" stroke-opacity="1" fill="rgb(255,255,255)" fill-opacity="1" d="M-487.9 -312.5 L-487.9 -311.5 L-487.9 -310.5 L-487.9 -309.5 L-487.9 -308.5 L-487.9 -307.5 L-487.9 -306.5 L-487.9 -305.5 L-487.9 -304.6 L-487.9 -303.6 L-487.9 -302.6 L-487.9 -301.6 L-487.9 -300.6 L-487.9 -299.6 L-487.9 -298.6 L-487.9 -297.6 L-487.9 -296.6 L-487.9 -295.6 L-488 -294.6 L-488 -293.6 L-488 -292.6 L-488 -291.6 L-488 -290.6 L-488 -289.6 L-488 -288.6 L-488 -287.6 L-489 -287.6 L-490 -287.7 L-491 -287.7 L-492 -287.7 L-492.9 -287.7 L-493.9 -287.7 L-494.9 -287.7 L-495.9 -287.7 L-496.9 -287.7 L-497.9 -287.7 L-498.9 -287.7 L-499.9 -287.7 L-500.9 -287.7 L-501.9 -287.7 L-502.9 -287.7 L-503.9 -287.7 L-504.9 -287.7 L-505.9 -287.7 L-506.9 -287.7 L-507.9 -287.7 L-508.9 -287.7 L-509.9 -287.7 L-510.9 -287.7 L-511.8 -287.7 L-512.8 -287.7 L-512.8 -288.7 L-512.8 -289.7 L-512.8 -290.7 L-512.8 -291.7 L-512.8 -292.7 L-512.8 -293.7 L-512.8 -294.7 L-512.8 -295.7 L-512.8 -296.7 L-512.8 -297.7 L-512.8 -298.7 L-512.8 -299.7 L-512.8 -300.7 L-512.8 -301.7 L-512.8 -302.6 L-512.8 -303.6 L-512.8 -304.6 L-512.8 -305.6 L-512.8 -306.6 L-512.8 -307.6 L-512.8 -308.6 L-512.8 -309.6 L-512.8 -310.6 L-512.8 -311.6 L-512.8 -312.6 L-511.8 -312.6 L-510.8 -312.6 L-509.8 -312.6 L-508.8 -312.6 L-507.8 -312.6 L-506.8 -312.6 L-505.8 -312.6 L-504.8 -312.6 L-503.8 -312.6 L-502.8 -312.6 L-501.8 -312.6 L-500.8 -312.6 L-499.8 -312.6 L-498.8 -312.5 L-497.8 -312.5 L-496.8 -312.5 L-495.8 -312.5 L-494.9 -312.5 L-493.9 -312.5 L-492.9 -312.5 L-491.9 -312.5 L-490.9 -312.5 L-489.9 -312.5 L-488.9 -312.5 L-487.9 -312.5 Z " />
<path stroke="rgb(0,0,0)" stroke-opacity="1" fill="rgb(255,255,255)" fill-opacity="1" d="M-195 -113.5 L-193.9 -113 L-192.9 -112.5 L-191.9 -111.9 L-191 -111.3 L-190.1 -110.5 L-189.3 -109.7 L-188.5 -108.9 L-187.8 -108 L-187.2 -107 L-186.7 -106 L-186.3 -104.9 L-185.9 -103.8 L-185.6 -102.7 L-185.4 -101.6 L-185.3 -100.4 L-185.3 -99.3 L-185.4 -98.15 L-185.6 -97.02 L-185.9 -95.9 L-186.2 -94.81 L-186.7 -93.75 L-187.2 -92.73 L-187.8 -91.76 L-188.5 -90.83 L-189.2 -89.97 L-190 -89.16 L-190.9 -88.42 L-191.8 -87.76 L-192.8 -87.17 L-193.9 -86.66 L-194.9 -86.23 L-196 -85.89 L-197.1 -85.64 L-198.3 -85.48 L-199.4 -85.41 L-200.6 -85.43 L-201.7 -85.54 L-202.8 -85.74 L-203.9 -86.03 L-205 -86.41 L-206.1 -86.87 L-207.1 -87.41 L-208.1 -88.04 L-209 -88.73 L-209.8 -89.5 L-210.6 -90.33 L-211.3 -91.23 L-212 -92.17 L-212.5 -93.17 L-213 -94.21 L-213.4 -95.28 L-213.8 -96.38 L-214 -97.51 L-214.1 -98.64 L-214.2 -99.79 L-214.1 -100.9 L-214 -102.1 L-213.8 -103.2 L-213.5 -104.3 L-213.1 -105.4 L-212.6 -106.4 L-212 -107.4 L-211.4 -108.4 L-210.7 -109.3 L-209.9 -110.1 L-209 -110.9 L-208.1 -111.6 L-207.2 -112.2 L-206.2 -112.8 L-205.1 -113.2 L-204 -113.6 L-202.9 -113.9 L-201.8 -114.1 L-200.6 -114.2 L-199.5 -114.3 L-198.4 -114.2 L-197.2 -114 L-196.1 -113.8 L-195 -113.5 Z " />
<path stroke="rgb(0,0,0)" stroke-opacity="1" fill="rgb(255,255,255)" fill-opacity="1" d="M-287.8 -312.5 L-287.8 -311.5 L-287.9 -310.5 L-287.9 -309.5 L-287.9 -308.5 L-287.9 -307.5 L-287.9 -306.5 L-287.9 -305.5 L-287.9 -304.5 L-287.9 -303.5 L-287.9 -302.5 L-287.9 -301.5 L-287.9 -300.5 L-287.9 -299.5 L-287.9 -298.5 L-287.9 -297.5 L-287.9 -296.6 L-287.9 -295.6 L-287.9 -294.6 L-287.9 -293.6 L-287.9 -292.6 L-287.9 -291.6 L-287.9 -290.6 L-287.9 -289.6 L-287.9 -288.6 L-287.9 -287.6 L-288.9 -287.6 L-289.9 -287.6 L-290.9 -287.6 L-291.9 -287.6 L-292.9 -287.6 L-293.9 -287.6 L-294.9 -287.6 L-295.9 -287.6 L-296.9 -287.6 L-297.9 -287.6 L-298.8 -287.6 L-299.8 -287.6 L-300.8 -287.6 L-301.8 -287.6 L-302.8 -287.6 L-303.8 -287.6 L-304.8 -287.6 L-305.8 -287.6 L-306.8 -287.6 L-307.8 -287.7 L-308.8 -287.7 L-309.8 -287.7 L-310.8 -287.7 L-311.8 -287.7 L-312.8 -287.7 L-312.8 -288.7 L-312.8 -289.7 L-312.8 -290.6 L-312.8 -291.6 L-312.8 -292.6 L-312.8 -293.6 L-312.8 -294.6 L-312.8 -295.6 L-312.8 -296.6 L-312.7 -297.6 L-312.7 -298.6 L-312.7 -299.6 L-312.7 -300.6 L-312.7 -301.6 L-312.7 -302.6 L-312.7 -303.6 L-312.7 -304.6 L-312.7 -305.6 L-312.7 -306.6 L-312.7 -307.6 L-312.7 -308.5 L-312.7 -309.5 L-312.7 -310.5 L-312.7 -311.5 L-312.7 -312.5 L-311.7 -312.5 L-310.7 -312.5 L-309.7 -312.5 L-308.7 -312.5 L-307.7 -312.5 L-306.7 -312.5 L-305.7 -312.5 L-304.8 -312.5 L-303.8 -312.5 L-302.8 -312.5 L-301.8 -312.5 L-300.8 -312.5 L-299.8 -312.5 L-298.8 -312.5 L-297.8 -312.5 L-296.8 -312.5 L-295.8 -312.5 L-294.8 -312.5 L-293.8 -312.5 L-292.8 -312.5 L-291.8 -312.5 L-290.8 -312.5 L-289.8 -312.5 L-288.8 -312.5 L-287.8 -312.5 Z " />
<path stroke="rgb(0,0,0)" stroke-opacity="1" fill="rgb(255,255,255)" fill-opacity="1" d="M0.5106 -112.4 L1.506 -112.3 L2.493 -112.2 L3.467 -112 L4.42 -111.7 L5.348 -111.3 L6.244 -110.9 L7.102 -110.4 L7.917 -109.8 L8.685 -109.2 L9.399 -108.5 L10.06 -107.7 L10.65 -106.9 L11.18 -106.1 L11.64 -105.2 L12.03 -104.3 L12.35 -103.3 L12.59 -102.4 L12.75 -101.4 L12.83 -100.4 L12.83 -99.39 L12.76 -98.4 L12.61 -97.42 L12.37 -96.45 L12.07 -95.5 L11.68 -94.58 L11.23 -93.69 L10.71 -92.84 L10.12 -92.04 L9.465 -91.29 L8.757 -90.58 L7.994 -89.94 L7.183 -89.36 L6.329 -88.85 L5.437 -88.41 L4.512 -88.04 L3.56 -87.74 L2.589 -87.52 L1.602 -87.38 L0.6077 -87.31 L-0.3887 -87.33 L-1.381 -87.43 L-2.362 -87.6 L-3.326 -87.85 L-4.268 -88.18 L-5.18 -88.58 L-6.058 -89.05 L-6.895 -89.59 L-7.687 -90.19 L-8.429 -90.86 L-9.115 -91.58 L-9.741 -92.36 L-10.3 -93.18 L-10.8 -94.04 L-11.23 -94.95 L-11.58 -95.88 L-11.86 -96.83 L-12.06 -97.81 L-12.18 -98.8 L-12.22 -99.79 L-12.19 -100.8 L-12.07 -101.8 L-11.88 -102.8 L-11.61 -103.7 L-11.26 -104.7 L-10.84 -105.6 L-10.36 -106.4 L-9.799 -107.3 L-9.178 -108 L-8.498 -108.8 L-7.762 -109.4 L-6.975 -110 L-6.141 -110.6 L-5.267 -111.1 L-4.358 -111.5 L-3.419 -111.8 L-2.457 -112.1 L-1.477 -112.2 L-0.4856 -112.4 L0.5106 -112.4 Z " />
<path stroke="rgb(0,0,0)" stroke-opacity="1" fill="rgb(255,255,255)" fill-opacity="1" d="M-86.63 -311.2 L-86.61 -310.2 L-86.58 -309.3 L-86.56 -308.3 L-86.54 -307.3 L-86.52 -306.3 L-86.5 -305.3 L-86.48 -304.3 L-86.46 -303.3 L-86.44 -302.3 L-86.41 -301.3 L-86.39 -300.3 L-86.37 -299.3 L-86.35 -298.3 L-86.33 -297.3 L-86.31 -296.3 L-86.29 -295.3 L-86.27 -294.3 L-86.24 -293.3 L-86.22 -292.3 L-86.2 -291.4 L-86.18 -290.4 L-86.16 -289.4 L-86.14 -288.4 L-86.12 -287.4 L-86.1 -286.4 L-87.09 -286.4 L-88.08 -286.3 L-89.08 -286.3 L-90.07 -286.3 L-91.07 -286.3 L-92.06 -286.3 L-93.06 -286.2 L-94.05 -286.2 L-95.05 -286.2 L-96.04 -286.2 L-97.03 -286.1 L-98.03 -286.1 L-99.02 -286.1 L-100 -286.1 L-101 -286.1 L-102 -286 L-103 -286 L-104 -286 L-105 -286 L-106 -286 L-107 -285.9 L-108 -285.9 L-109 -285.9 L-110 -285.9 L-111 -285.9 L-111 -286.8 L-111 -287.8 L-111 -288.8 L-111 -289.8 L-111.1 -290.8 L-111.1 -291.8 L-111.1 -292.8 L-111.1 -293.8 L-111.1 -294.8 L-111.2 -295.8 L-111.2 -296.8 L-111.2 -297.8 L-111.2 -298.8 L-111.3 -299.8 L-111.3 -300.8 L-111.3 -301.8 L-111.3 -302.8 L-111.3 -303.7 L-111.4 -304.7 L-111.4 -305.7 L-111.4 -306.7 L-111.4 -307.7 L-111.4 -308.7 L-111.5 -309.7 L-111.5 -310.7 L-110.5 -310.7 L-109.5 -310.8 L-108.5 -310.8 L-107.5 -310.8 L-106.5 -310.8 L-105.5 -310.8 L-104.5 -310.9 L-103.5 -310.9 L-102.5 -310.9 L-101.5 -310.9 L-100.5 -310.9 L-99.55 -311 L-98.56 -311 L-97.56 -311 L-96.57 -311 L-95.58 -311 L-94.58 -311.1 L-93.59 -311.1 L-92.59 -311.1 L-91.6 -311.1 L-90.6 -311.2 L-89.61 -311.2 L-88.62 -311.2 L-87.62 -311.2 L-86.63 -311.2 Z " />
<path stroke="rgb(0,0,0)" stroke-opacity="1" fill="rgb(255,255,255)" fill-opacity="1" d="M200.4 -112.3 L201.3 -112.3 L202.3 -112.1 L203.3 -111.9 L204.3 -111.7 L205.2 -111.3 L206.1 -110.9 L206.9 -110.4 L207.8 -109.8 L208.5 -109.2 L209.2 -108.5 L209.9 -107.8 L210.5 -107 L211 -106.2 L211.5 -105.3 L211.9 -104.4 L212.2 -103.5 L212.5 -102.5 L212.7 -101.5 L212.8 -100.5 L212.8 -99.55 L212.7 -98.56 L212.6 -97.58 L212.4 -96.61 L212.1 -95.67 L211.7 -94.75 L211.2 -93.86 L210.7 -93.01 L210.2 -92.2 L209.5 -91.44 L208.8 -90.74 L208.1 -90.09 L207.3 -89.51 L206.4 -88.99 L205.6 -88.53 L204.6 -88.15 L203.7 -87.85 L202.7 -87.62 L201.7 -87.46 L200.8 -87.39 L199.8 -87.39 L198.8 -87.47 L197.8 -87.63 L196.8 -87.87 L195.9 -88.19 L195 -88.57 L194.1 -89.03 L193.3 -89.56 L192.5 -90.15 L191.7 -90.8 L191 -91.51 L190.4 -92.28 L189.8 -93.09 L189.3 -93.94 L188.9 -94.83 L188.5 -95.75 L188.2 -96.7 L188 -97.67 L187.9 -98.65 L187.8 -99.64 L187.9 -100.6 L188 -101.6 L188.2 -102.6 L188.4 -103.6 L188.7 -104.5 L189.1 -105.4 L189.6 -106.3 L190.2 -107.1 L190.8 -107.9 L191.4 -108.6 L192.2 -109.3 L192.9 -109.9 L193.8 -110.5 L194.6 -110.9 L195.5 -111.4 L196.5 -111.7 L197.4 -112 L198.4 -112.2 L199.4 -112.3 L200.4 -112.3 Z " />
<path stroke="rgb(0,0,0)" stroke-opacity="1" fill="rgb(255,255,255)" fill-opacity="1" d="M117.9 -306.6 L118 -305.6 L118.1 -304.6 L118.2 -303.6 L118.4 -302.6 L118.5 -301.6 L118.6 -300.6 L118.7 -299.6 L118.8 -298.6 L118.9 -297.7 L119 -296.7 L119.1 -295.7 L119.2 -294.7 L119.3 -293.7 L119.5 -292.7 L119.6 -291.7 L119.7 -290.7 L119.8 -289.7 L119.9 -288.8 L120 -287.8 L120.1 -286.8 L120.2 -285.8 L120.3 -284.8 L120.5 -283.8 L120.6 -282.8 L120.7 -281.8 L119.7 -281.7 L118.7 -281.6 L117.7 -281.5 L116.7 -281.4 L115.7 -281.3 L114.7 -281.2 L113.8 -281.1 L112.8 -281 L111.8 -280.8 L110.8 -280.7 L109.8 -280.6 L108.8 -280.5 L107.8 -280.4 L106.8 -280.3 L105.8 -280.2 L104.9 -280.1 L103.9 -280 L102.9 -279.9 L101.9 -279.7 L100.9 -279.6 L99.91 -279.5 L98.92 -279.4 L97.93 -279.3 L96.95 -279.2 L95.96 -279.1 L95.85 -280.1 L95.74 -281.1 L95.63 -282 L95.52 -283 L95.41 -284 L95.3 -285 L95.19 -286 L95.07 -287 L94.96 -288 L94.85 -289 L94.74 -290 L94.63 -290.9 L94.52 -291.9 L94.41 -292.9 L94.3 -293.9 L94.19 -294.9 L94.08 -295.9 L93.97 -296.9 L93.86 -297.9 L93.75 -298.9 L93.64 -299.8 L93.53 -300.8 L93.42 -301.8 L93.31 -302.8 L93.2 -303.8 L94.19 -303.9 L95.18 -304 L96.17 -304.1 L97.15 -304.2 L98.14 -304.3 L99.13 -304.5 L100.1 -304.6 L101.1 -304.7 L102.1 -304.8 L103.1 -304.9 L104.1 -305 L105.1 -305.1 L106.1 -305.2 L107 -305.3 L108 -305.5 L109 -305.6 L110 -305.7 L111 -305.8 L112 -305.9 L113 -306 L114 -306.1 L114.9 -306.2 L115.9 -306.3 L116.9 -306.4 L117.9 -306.6 Z " />
<path stroke="rgb(0,0,0)" stroke-opacity="1" fill="rgb(255,255,255)" fill-opacity="1" d="M-295 -13.45 L-293.9 -13.03 L-292.9 -12.53 L-291.9 -11.94 L-291 -11.28 L-290.1 -10.55 L-289.3 -9.749 L-288.5 -8.886 L-287.8 -7.965 L-287.2 -6.993 L-286.7 -5.976 L-286.3 -4.92 L-285.9 -3.831 L-285.6 -2.717 L-285.4 -1.585 L-285.3 -0.4424 L-285.3 0.7045 L-285.4 1.848 L-285.6 2.981 L-285.9 4.096 L-286.2 5.187 L-286.7 6.245 L-287.2 7.265 L-287.8 8.241 L-288.5 9.165 L-289.2 10.03 L-290 10.84 L-290.9 11.58 L-291.8 12.24 L-292.8 12.83 L-293.9 13.34 L-294.9 13.77 L-296 14.11 L-297.1 14.36 L-298.3 14.52 L-299.4 14.59 L-300.6 14.57 L-301.7 14.46 L-302.8 14.26 L-303.9 13.97 L-305 13.59 L-306.1 13.13 L-307.1 12.59 L-308.1 11.96 L-309 11.27 L-309.8 10.5 L-310.6 9.666 L-311.3 8.773 L-312 7.826 L-312.5 6.83 L-313 5.793 L-313.4 4.719 L-313.8 3.618 L-314 2.494 L-314.1 1.355 L-314.2 0.2095 L-314.1 -0.9366 L-314 -2.076 L-313.8 -3.201 L-313.5 -4.304 L-313.1 -5.38 L-312.6 -6.42 L-312 -7.419 L-311.4 -8.369 L-310.7 -9.266 L-309.9 -10.1 L-309 -10.87 L-308.1 -11.58 L-307.2 -12.2 L-306.2 -12.75 L-305.1 -13.22 L-304 -13.61 L-302.9 -13.9 L-301.8 -14.11 L-300.6 -14.23 L-299.5 -14.25 L-298.4 -14.19 L-297.2 -14.03 L-296.1 -13.78 L-295 -13.45 Z " />
<path stroke="rgb(0,0,0)" stroke-opacity="1" fill="rgb(255,255,255)" fill-opacity="1" d="M-387.8 -212.5 L-387.8 -211.5 L-387.9 -210.5 L-387.9 -209.5 L-387.9 -208.5 L-387.9 -207.5 L-387.9 -206.5 L-387.9 -205.5 L-387.9 -204.5 L-387.9 -203.5 L-387.9 -202.5 L-387.9 -201.5 L-387.9 -200.5 L-387.9 -199.5 L-387.9 -198.5 L-387.9 -197.5 L-387.9 -196.6 L-387.9 -195.6 L-387.9 -194.6 L-387.9 -193.6 L-387.9 -192.6 L-387.9 -191.6 L-387.9 -190.6 L-387.9 -189.6 L-387.9 -188.6 L-387.9 -187.6 L-388.9 -187.6 L-389.9 -187.6 L-390.9 -187.6 L-391.9 -187.6 L-392.9 -187.6 L-393.9 -187.6 L-394.9 -187.6 L-395.9 -187.6 L-396.9 -187.6 L-397.9 -187.6 L-398.8 -187.6 L-399.8 -187.6 L-400.8 -187.6 L-401.8 -187.6 L-402.8 -187.6 L-403.8 -187.6 L-404.8 -187.6 L-405.8 -187.6 L-406.8 -187.6 L-407.8 -187.7 L-408.8 -187.7 L-409.8 -187.7 L-410.8 -187.7 L-411.8 -187.7 L-412.8 -187.7 L-412.8 -188.7 L-412.8 -189.7 L-412.8 -190.6 L-412.8 -191.6 L-412.8 -192.6 L-412.8 -193.6 L-412.8 -194.6 L-412.8 -195.6 L-412.8 -196.6 L-412.7 -197.6 L-412.7 -198.6 L-412.7 -199.6 L-412.7 -200.6 L-412.7 -201.6 L-412.7 -202.6 L-412.7 -203.6 L-412.7 -204.6 L-412.7 -205.6 L-412.7 -206.6 L-412.7 -207.6 L-412.7 -208.5 L-412.7 -209.5 L-412.7 -210.5 L-412.7 -211.5 L-412.7 -212.5 L-411.7 -212.5 L-410.7 -212.5 L-409.7 -212.5 L-408.7 -212.5 L-407.7 -212.5 L-406.7 -212.5 L-405.7 -212.5 L-404.8 -212.5 L-403.8 -212.5 L-402.8 -212.5 L-401.8 -212.5 L-400.8 -212.5 L-399.8 -212.5 L-398.8 -212.5 L-397.8 -212.5 L-396.8 -212.5 L-395.8 -212.5 L-394.8 -212.5 L-393.8 -212.5 L-392.8 -212.5 L-391.8 -212.5 L-390.8 -212.5 L-389.8 -212.5 L-388.8 -212.5 L-387.8 -212.5 Z " />
<path stroke="rgb(0,0,0)" stroke-opacity="1" fill="rgb(255,255,255)" fill-opacity="1" d="M-99.49 -12.37 L-98.49 -12.32 L-97.51 -12.18 L-96.53 -11.97 L-95.58 -11.68 L-94.65 -11.32 L-93.76 -10.88 L-92.9 -10.38 L-92.08 -9.803 L-91.32 -9.167 L-90.6 -8.472 L-89.94 -7.723 L-89.35 -6.924 L-88.82 -6.08 L-88.36 -5.196 L-87.97 -4.279 L-87.65 -3.334 L-87.41 -2.366 L-87.25 -1.383 L-87.17 -0.3901 L-87.17 0.6064 L-87.24 1.6 L-87.39 2.585 L-87.63 3.554 L-87.93 4.501 L-88.32 5.422 L-88.77 6.309 L-89.29 7.157 L-89.88 7.96 L-90.53 8.715 L-91.24 9.415 L-92.01 10.06 L-92.82 10.64 L-93.67 11.15 L-94.56 11.59 L-95.49 11.96 L-96.44 12.26 L-97.41 12.48 L-98.4 12.62 L-99.39 12.69 L-100.4 12.67 L-101.4 12.57 L-102.4 12.4 L-103.3 12.15 L-104.3 11.82 L-105.2 11.42 L-106.1 10.95 L-106.9 10.41 L-107.7 9.806 L-108.4 9.14 L-109.1 8.417 L-109.7 7.643 L-110.3 6.82 L-110.8 5.956 L-111.2 5.055 L-111.6 4.123 L-111.9 3.166 L-112.1 2.19 L-112.2 1.201 L-112.2 0.2052 L-112.2 -0.7907 L-112.1 -1.781 L-111.9 -2.758 L-111.6 -3.717 L-111.3 -4.652 L-110.8 -5.556 L-110.4 -6.425 L-109.8 -7.251 L-109.2 -8.031 L-108.5 -8.759 L-107.8 -9.43 L-107 -10.04 L-106.1 -10.59 L-105.3 -11.07 L-104.4 -11.47 L-103.4 -11.81 L-102.5 -12.07 L-101.5 -12.25 L-100.5 -12.35 L-99.49 -12.37 Z " />
<path stroke="rgb(0,0,0)" stroke-opacity="1" fill="rgb(255,255,255)" fill-opacity="1" d="M-186.6 -211.2 L-186.6 -210.2 L-186.6 -209.3 L-186.6 -208.3 L-186.5 -207.3 L-186.5 -206.3 L-186.5 -205.3 L-186.5 -204.3 L-186.5 -203.3 L-186.4 -202.3 L-186.4 -201.3 L-186.4 -200.3 L-186.4 -199.3 L-186.4 -198.3 L-186.3 -197.3 L-186.3 -196.3 L-186.3 -195.3 L-186.3 -194.3 L-186.2 -193.3 L-186.2 -192.3 L-186.2 -191.4 L-186.2 -190.4 L-186.2 -189.4 L-186.1 -188.4 L-186.1 -187.4 L-186.1 -186.4 L-187.1 -186.4 L-188.1 -186.3 L-189.1 -186.3 L-190.1 -186.3 L-191.1 -186.3 L-192.1 -186.3 L-193.1 -186.2 L-194.1 -186.2 L-195 -186.2 L-196 -186.2 L-197 -186.1 L-198 -186.1 L-199 -186.1 L-200 -186.1 L-201 -186.1 L-202 -186 L-203 -186 L-204 -186 L-205 -186 L-206 -186 L-207 -185.9 L-208 -185.9 L-209 -185.9 L-210 -185.9 L-211 -185.9 L-211 -186.8 L-211 -187.8 L-211 -188.8 L-211 -189.8 L-211.1 -190.8 L-211.1 -191.8 L-211.1 -192.8 L-211.1 -193.8 L-211.1 -194.8 L-211.2 -195.8 L-211.2 -196.8 L-211.2 -197.8 L-211.2 -198.8 L-211.3 -199.8 L-211.3 -200.8 L-211.3 -201.8 L-211.3 -202.8 L-211.3 -203.7 L-211.4 -204.7 L-211.4 -205.7 L-211.4 -206.7 L-211.4 -207.7 L-211.4 -208.7 L-211.5 -209.7 L-211.5 -210.7 L-210.5 -210.7 L-209.5 -210.8 L-208.5 -210.8 L-207.5 -210.8 L-206.5 -210.8 L-205.5 -210.8 L-204.5 -210.9 L-203.5 -210.9 L-202.5 -210.9 L-201.5 -210.9 L-200.5 -210.9 L-199.6 -211 L-198.6 -211 L-197.6 -211 L-196.6 -211 L-195.6 -211 L-194.6 -211.1 L-193.6 -211.1 L-192.6 -211.1 L-191.6 -211.1 L-190.6 -211.2 L-189.6 -211.2 L-188.6 -211.2 L-187.6 -211.2 L-186.6 -211.2 Z " />
<path stroke="rgb(0,0,0)" stroke-opacity="1" fill="rgb(255,255,255)" fill-opacity="1" d="M100.4 -12.31 L101.3 -12.27 L102.3 -12.14 L103.3 -11.95 L104.3 -11.67 L105.2 -11.32 L106.1 -10.9 L106.9 -10.4 L107.8 -9.842 L108.5 -9.219 L109.2 -8.537 L109.9 -7.8 L110.5 -7.012 L111 -6.179 L111.5 -5.306 L111.9 -4.399 L112.2 -3.463 L112.5 -2.503 L112.7 -1.527 L112.8 -0.5409 L112.8 0.4501 L112.7 1.439 L112.6 2.42 L112.4 3.387 L112.1 4.333 L111.7 5.253 L111.2 6.141 L110.7 6.991 L110.2 7.797 L109.5 8.555 L108.8 9.261 L108.1 9.908 L107.3 10.49 L106.4 11.01 L105.6 11.47 L104.6 11.85 L103.7 12.15 L102.7 12.38 L101.7 12.54 L100.8 12.61 L99.77 12.61 L98.78 12.53 L97.8 12.37 L96.84 12.13 L95.9 11.81 L94.99 11.43 L94.11 10.97 L93.27 10.44 L92.48 9.85 L91.73 9.197 L91.04 8.487 L90.41 7.724 L89.84 6.913 L89.33 6.059 L88.9 5.168 L88.54 4.246 L88.25 3.297 L88.04 2.329 L87.9 1.347 L87.85 0.3572 L87.87 -0.6337 L87.97 -1.62 L88.15 -2.594 L88.41 -3.551 L88.74 -4.485 L89.15 -5.39 L89.62 -6.259 L90.17 -7.088 L90.78 -7.871 L91.44 -8.603 L92.17 -9.28 L92.94 -9.898 L93.76 -10.45 L94.63 -10.94 L95.53 -11.35 L96.46 -11.7 L97.41 -11.97 L98.38 -12.16 L99.37 -12.27 L100.4 -12.31 Z " />
<path stroke="rgb(0,0,0)" stroke-opacity="1" fill="rgb(255,255,255)" fill-opacity="1" d="M17.91 -206.6 L18.02 -205.6 L18.13 -204.6 L18.25 -203.6 L18.36 -202.6 L18.47 -201.6 L18.58 -200.6 L18.69 -199.6 L18.8 -198.6 L18.91 -197.7 L19.02 -196.7 L19.13 -195.7 L19.24 -194.7 L19.35 -193.7 L19.46 -192.7 L19.57 -191.7 L19.68 -190.7 L19.79 -189.7 L19.9 -188.8 L20.01 -187.8 L20.12 -186.8 L20.23 -185.8 L20.34 -184.8 L20.45 -183.8 L20.56 -182.8 L20.67 -181.8 L19.68 -181.7 L18.69 -181.6 L17.71 -181.5 L16.72 -181.4 L15.73 -181.3 L14.74 -181.2 L13.75 -181.1 L12.76 -181 L11.77 -180.8 L10.79 -180.7 L9.797 -180.6 L8.808 -180.5 L7.82 -180.4 L6.831 -180.3 L5.843 -180.2 L4.854 -180.1 L3.866 -180 L2.877 -179.9 L1.888 -179.7 L0.8998 -179.6 L-0.08877 -179.5 L-1.077 -179.4 L-2.066 -179.3 L-3.054 -179.2 L-4.043 -179.1 L-4.153 -180.1 L-4.264 -181.1 L-4.374 -182 L-4.484 -183 L-4.594 -184 L-4.705 -185 L-4.815 -186 L-4.925 -187 L-5.036 -188 L-5.146 -189 L-5.256 -190 L-5.366 -190.9 L-5.477 -191.9 L-5.587 -192.9 L-5.697 -193.9 L-5.807 -194.9 L-5.918 -195.9 L-6.028 -196.9 L-6.138 -197.9 L-6.249 -198.9 L-6.359 -199.8 L-6.469 -200.8 L-6.579 -201.8 L-6.69 -202.8 L-6.8 -203.8 L-5.811 -203.9 L-4.823 -204 L-3.834 -204.1 L-2.846 -204.2 L-1.857 -204.3 L-0.8685 -204.5 L0.1201 -204.6 L1.109 -204.7 L2.097 -204.8 L3.086 -204.9 L4.074 -205 L5.063 -205.1 L6.051 -205.2 L7.04 -205.3 L8.029 -205.5 L9.017 -205.6 L10.01 -205.7 L10.99 -205.8 L11.98 -205.9 L12.97 -206 L13.96 -206.1 L14.95 -206.2 L15.94 -206.3 L16.93 -206.4 L17.91 -206.6 Z " />
<path stroke="rgb(0,0,0)" stroke-opacity="1" fill="rgb(255,255,255)" fill-opacity="1" d="M300.4 -12.31 L301.3 -12.27 L302.3 -12.14 L303.3 -11.95 L304.3 -11.67 L305.2 -11.32 L306.1 -10.9 L306.9 -10.4 L307.8 -9.842 L308.5 -9.219 L309.2 -8.537 L309.9 -7.8 L310.5 -7.012 L311 -6.179 L311.5 -5.306 L311.9 -4.399 L312.2 -3.463 L312.5 -2.503 L312.7 -1.527 L312.8 -0.5409 L312.8 0.4501 L312.7 1.439 L312.6 2.42 L312.4 3.387 L312.1 4.333 L311.7 5.253 L311.2 6.141 L310.7 6.991 L310.2 7.797 L309.5 8.555 L308.8 9.261 L308.1 9.908 L307.3 10.49 L306.4 11.01 L305.6 11.47 L304.6 11.85 L303.7 12.15 L302.7 12.38 L301.7 12.54 L300.8 12.61 L299.8 12.61 L298.8 12.53 L297.8 12.37 L296.8 12.13 L295.9 11.81 L295 11.43 L294.1 10.97 L293.3 10.44 L292.5 9.85 L291.7 9.197 L291 8.487 L290.4 7.724 L289.8 6.913 L289.3 6.059 L288.9 5.168 L288.5 4.246 L288.2 3.297 L288 2.329 L287.9 1.347 L287.8 0.3572 L287.9 -0.6337 L288 -1.62 L288.2 -2.594 L288.4 -3.551 L288.7 -4.485 L289.1 -5.39 L289.6 -6.259 L290.2 -7.088 L290.8 -7.871 L291.4 -8.603 L292.2 -9.28 L292.9 -9.898 L293.8 -10.45 L294.6 -10.94 L295.5 -11.35 L296.5 -11.7 L297.4 -11.97 L298.4 -12.16 L299.4 -12.27 L300.4 -12.31 Z " />
<path stroke="rgb(0,0,0)" stroke-opacity="1" fill="rgb(255,255,255)" fill-opacity="1" d="M-487.8 -112.5 L-487.8 -111.5 L-487.9 -110.5 L-487.9 -109.5 L-487.9 -108.5 L-487.9 -107.5 L-487.9 -106.5 L-487.9 -105.5 L-487.9 -104.5 L-487.9 -103.5 L-487.9 -102.5 L-487.9 -101.5 L-487.9 -100.5 L-487.9 -99.54 L-487.9 -98.54 L-487.9 -97.55 L-487.9 -96.55 L-487.9 -95.56 L-487.9 -94.56 L-487.9 -93.57 L-487.9 -92.57 L-487.9 -91.58 L-487.9 -90.58 L-487.9 -89.59 L-487.9 -88.6 L-487.9 -87.6 L-488.9 -87.6 L-489.9 -87.61 L-490.9 -87.61 L-491.9 -87.61 L-492.9 -87.61 L-493.9 -87.62 L-494.9 -87.62 L-495.9 -87.62 L-496.9 -87.62 L-497.9 -87.63 L-498.8 -87.63 L-499.8 -87.63 L-500.8 -87.63 L-501.8 -87.64 L-502.8 -87.64 L-503.8 -87.64 L-504.8 -87.64 L-505.8 -87.65 L-506.8 -87.65 L-507.8 -87.65 L-508.8 -87.65 L-509.8 -87.66 L-510.8 -87.66 L-511.8 -87.66 L-512.8 -87.66 L-512.8 -88.66 L-512.8 -89.65 L-512.8 -90.65 L-512.8 -91.64 L-512.8 -92.64 L-512.8 -93.63 L-512.8 -94.62 L-512.8 -95.62 L-512.8 -96.61 L-512.7 -97.61 L-512.7 -98.6 L-512.7 -99.6 L-512.7 -100.6 L-512.7 -101.6 L-512.7 -102.6 L-512.7 -103.6 L-512.7 -104.6 L-512.7 -105.6 L-512.7 -106.6 L-512.7 -107.6 L-512.7 -108.5 L-512.7 -109.5 L-512.7 -110.5 L-512.7 -111.5 L-512.7 -112.5 L-511.7 -112.5 L-510.7 -112.5 L-509.7 -112.5 L-508.7 -112.5 L-507.7 -112.5 L-506.7 -112.5 L-505.7 -112.5 L-504.8 -112.5 L-503.8 -112.5 L-502.8 -112.5 L-501.8 -112.5 L-500.8 -112.5 L-499.8 -112.5 L-498.8 -112.5 L-497.8 -112.5 L-496.8 -112.5 L-495.8 -112.5 L-494.8 -112.5 L-493.8 -112.5 L-492.8 -112.5 L-491.8 -112.5 L-490.8 -112.5 L-489.8 -112.5 L-488.8 -112.5 L-487.8 -112.5 Z " />
<path stroke="rgb(0,0,0)" stroke-opacity="1" fill="rgb(255,255,255)" fill-opacity="1" d="M-199.5 87.63 L-198.5 87.68 L-197.5 87.82 L-196.5 88.03 L-195.6 88.32 L-194.7 88.68 L-193.8 89.12 L-192.9 89.62 L-192.1 90.2 L-191.3 90.83 L-190.6 91.53 L-189.9 92.28 L-189.3 93.08 L-188.8 93.92 L-188.4 94.8 L-188 95.72 L-187.7 96.67 L-187.4 97.63 L-187.3 98.62 L-187.2 99.61 L-187.2 100.6 L-187.2 101.6 L-187.4 102.6 L-187.6 103.6 L-187.9 104.5 L-188.3 105.4 L-188.8 106.3 L-189.3 107.2 L-189.9 108 L-190.5 108.7 L-191.2 109.4 L-192 110.1 L-192.8 110.6 L-193.7 111.1 L-194.6 111.6 L-195.5 112 L-196.4 112.3 L-197.4 112.5 L-198.4 112.6 L-199.4 112.7 L-200.4 112.7 L-201.4 112.6 L-202.4 112.4 L-203.3 112.2 L-204.3 111.8 L-205.2 111.4 L-206.1 111 L-206.9 110.4 L-207.7 109.8 L-208.4 109.1 L-209.1 108.4 L-209.7 107.6 L-210.3 106.8 L-210.8 106 L-211.2 105.1 L-211.6 104.1 L-211.9 103.2 L-212.1 102.2 L-212.2 101.2 L-212.2 100.2 L-212.2 99.21 L-212.1 98.22 L-211.9 97.24 L-211.6 96.28 L-211.3 95.35 L-210.8 94.44 L-210.4 93.58 L-209.8 92.75 L-209.2 91.97 L-208.5 91.24 L-207.8 90.57 L-207 89.96 L-206.1 89.41 L-205.3 88.93 L-204.4 88.53 L-203.4 88.19 L-202.5 87.93 L-201.5 87.75 L-200.5 87.65 L-199.5 87.63 Z " />
<path stroke="rgb(0,0,0)" stroke-opacity="1" fill="rgb(255,255,255)" fill-opacity="1" d="M-286.6 -111.2 L-286.6 -110.2 L-286.6 -109.3 L-286.6 -108.3 L-286.5 -107.3 L-286.5 -106.3 L-286.5 -105.3 L-286.5 -104.3 L-286.5 -103.3 L-286.4 -102.3 L-286.4 -101.3 L-286.4 -100.3 L-286.4 -99.31 L-286.4 -98.31 L-286.3 -97.32 L-286.3 -96.32 L-286.3 -95.33 L-286.3 -94.34 L-286.2 -93.34 L-286.2 -92.35 L-286.2 -91.35 L-286.2 -90.36 L-286.2 -89.36 L-286.1 -88.37 L-286.1 -87.37 L-286.1 -86.38 L-287.1 -86.36 L-288.1 -86.34 L-289.1 -86.32 L-290.1 -86.3 L-291.1 -86.27 L-292.1 -86.25 L-293.1 -86.23 L-294.1 -86.21 L-295 -86.19 L-296 -86.17 L-297 -86.15 L-298 -86.13 L-299 -86.1 L-300 -86.08 L-301 -86.06 L-302 -86.04 L-303 -86.02 L-304 -86 L-305 -85.98 L-306 -85.96 L-307 -85.93 L-308 -85.91 L-309 -85.89 L-310 -85.87 L-311 -85.85 L-311 -86.84 L-311 -87.84 L-311 -88.83 L-311 -89.83 L-311.1 -90.82 L-311.1 -91.82 L-311.1 -92.81 L-311.1 -93.81 L-311.1 -94.8 L-311.2 -95.79 L-311.2 -96.79 L-311.2 -97.78 L-311.2 -98.78 L-311.3 -99.77 L-311.3 -100.8 L-311.3 -101.8 L-311.3 -102.8 L-311.3 -103.7 L-311.4 -104.7 L-311.4 -105.7 L-311.4 -106.7 L-311.4 -107.7 L-311.4 -108.7 L-311.5 -109.7 L-311.5 -110.7 L-310.5 -110.7 L-309.5 -110.8 L-308.5 -110.8 L-307.5 -110.8 L-306.5 -110.8 L-305.5 -110.8 L-304.5 -110.9 L-303.5 -110.9 L-302.5 -110.9 L-301.5 -110.9 L-300.5 -110.9 L-299.6 -111 L-298.6 -111 L-297.6 -111 L-296.6 -111 L-295.6 -111 L-294.6 -111.1 L-293.6 -111.1 L-292.6 -111.1 L-291.6 -111.1 L-290.6 -111.2 L-289.6 -111.2 L-288.6 -111.2 L-287.6 -111.2 L-286.6 -111.2 Z " />
<path stroke="rgb(0,0,0)" stroke-opacity="1" fill="rgb(255,255,255)" fill-opacity="1" d="M0.3584 87.69 L1.349 87.73 L2.332 87.86 L3.303 88.05 L4.255 88.33 L5.182 88.68 L6.078 89.1 L6.938 89.6 L7.756 90.16 L8.527 90.78 L9.246 91.46 L9.908 92.2 L10.51 92.99 L11.05 93.82 L11.52 94.69 L11.92 95.6 L12.24 96.54 L12.49 97.5 L12.66 98.47 L12.76 99.46 L12.77 100.5 L12.71 101.4 L12.57 102.4 L12.35 103.4 L12.06 104.3 L11.69 105.3 L11.25 106.1 L10.74 107 L10.16 107.8 L9.522 108.6 L8.825 109.3 L8.075 109.9 L7.276 110.5 L6.432 111 L5.55 111.5 L4.635 111.8 L3.692 112.2 L2.729 112.4 L1.749 112.5 L0.761 112.6 L-0.2301 112.6 L-1.218 112.5 L-2.196 112.4 L-3.158 112.1 L-4.098 111.8 L-5.011 111.4 L-5.889 111 L-6.729 110.4 L-7.524 109.9 L-8.269 109.2 L-8.96 108.5 L-9.593 107.7 L-10.16 106.9 L-10.67 106.1 L-11.1 105.2 L-11.46 104.2 L-11.75 103.3 L-11.96 102.3 L-12.1 101.3 L-12.15 100.4 L-12.13 99.37 L-12.03 98.38 L-11.85 97.41 L-11.59 96.45 L-11.26 95.51 L-10.85 94.61 L-10.38 93.74 L-9.832 92.91 L-9.225 92.13 L-8.557 91.4 L-7.833 90.72 L-7.057 90.1 L-6.235 89.55 L-5.372 89.06 L-4.473 88.65 L-3.543 88.3 L-2.589 88.03 L-1.617 87.84 L-0.6321 87.73 L0.3584 87.69 Z " />
<path stroke="rgb(0,0,0)" stroke-opacity="1" fill="rgb(255,255,255)" fill-opacity="1" d="M-82.09 -106.6 L-81.98 -105.6 L-81.87 -104.6 L-81.75 -103.6 L-81.64 -102.6 L-81.53 -101.6 L-81.42 -100.6 L-81.31 -99.64 L-81.2 -98.65 L-81.09 -97.66 L-80.98 -96.67 L-80.87 -95.68 L-80.76 -94.69 L-80.65 -93.7 L-80.54 -92.72 L-80.43 -91.73 L-80.32 -90.74 L-80.21 -89.75 L-80.1 -88.76 L-79.99 -87.77 L-79.88 -86.78 L-79.77 -85.8 L-79.66 -84.81 L-79.55 -83.82 L-79.44 -82.83 L-79.33 -81.84 L-80.32 -81.73 L-81.31 -81.62 L-82.29 -81.51 L-83.28 -81.4 L-84.27 -81.29 L-85.26 -81.18 L-86.25 -81.07 L-87.24 -80.96 L-88.23 -80.85 L-89.21 -80.74 L-90.2 -80.63 L-91.19 -80.52 L-92.18 -80.41 L-93.17 -80.3 L-94.16 -80.19 L-95.15 -80.08 L-96.13 -79.97 L-97.12 -79.86 L-98.11 -79.75 L-99.1 -79.64 L-100.1 -79.53 L-101.1 -79.41 L-102.1 -79.3 L-103.1 -79.19 L-104 -79.08 L-104.2 -80.07 L-104.3 -81.06 L-104.4 -82.05 L-104.5 -83.04 L-104.6 -84.03 L-104.7 -85.02 L-104.8 -86 L-104.9 -86.99 L-105 -87.98 L-105.1 -88.97 L-105.3 -89.96 L-105.4 -90.95 L-105.5 -91.94 L-105.6 -92.92 L-105.7 -93.91 L-105.8 -94.9 L-105.9 -95.89 L-106 -96.88 L-106.1 -97.87 L-106.2 -98.86 L-106.4 -99.84 L-106.5 -100.8 L-106.6 -101.8 L-106.7 -102.8 L-106.8 -103.8 L-105.8 -103.9 L-104.8 -104 L-103.8 -104.1 L-102.8 -104.2 L-101.9 -104.3 L-100.9 -104.5 L-99.88 -104.6 L-98.89 -104.7 L-97.9 -104.8 L-96.91 -104.9 L-95.93 -105 L-94.94 -105.1 L-93.95 -105.2 L-92.96 -105.3 L-91.97 -105.5 L-90.98 -105.6 L-89.99 -105.7 L-89.01 -105.8 L-88.02 -105.9 L-87.03 -106 L-86.04 -106.1 L-85.05 -106.2 L-84.06 -106.3 L-83.07 -106.4 L-82.09 -106.6 Z " />
<path stroke="rgb(0,0,0)" stroke-opacity="1" fill="rgb(255,255,255)" fill-opacity="1" d="M200.4 87.69 L201.3 87.73 L202.3 87.86 L203.3 88.05 L204.3 88.33 L205.2 88.68 L206.1 89.1 L206.9 89.6 L207.8 90.16 L208.5 90.78 L209.2 91.46 L209.9 92.2 L210.5 92.99 L211 93.82 L211.5 94.69 L211.9 95.6 L212.2 96.54 L212.5 97.5 L212.7 98.47 L212.8 99.46 L212.8 100.5 L212.7 101.4 L212.6 102.4 L212.4 103.4 L212.1 104.3 L211.7 105.3 L211.2 106.1 L210.7 107 L210.2 107.8 L209.5 108.6 L208.8 109.3 L208.1 109.9 L207.3 110.5 L206.4 111 L205.6 111.5 L204.6 111.8 L203.7 112.2 L202.7 112.4 L201.7 112.5 L200.8 112.6 L199.8 112.6 L198.8 112.5 L197.8 112.4 L196.8 112.1 L195.9 111.8 L195 111.4 L194.1 111 L193.3 110.4 L192.5 109.9 L191.7 109.2 L191 108.5 L190.4 107.7 L189.8 106.9 L189.3 106.1 L188.9 105.2 L188.5 104.2 L188.2 103.3 L188 102.3 L187.9 101.3 L187.8 100.4 L187.9 99.37 L188 98.38 L188.2 97.41 L188.4 96.45 L188.7 95.51 L189.1 94.61 L189.6 93.74 L190.2 92.91 L190.8 92.13 L191.4 91.4 L192.2 90.72 L192.9 90.1 L193.8 89.55 L194.6 89.06 L195.5 88.65 L196.5 88.3 L197.4 88.03 L198.4 87.84 L199.4 87.73 L200.4 87.69 Z " />
<path stroke="rgb(0,0,0)" stroke-opacity="1" fill="rgb(255,255,255)" fill-opacity="1" d="M127.7 -95.73 L128 -94.78 L128.3 -93.84 L128.6 -92.89 L128.9 -91.94 L129.2 -90.99 L129.5 -90.05 L129.8 -89.1 L130.1 -88.15 L130.5 -87.21 L130.8 -86.26 L131.1 -85.31 L131.4 -84.36 L131.7 -83.42 L132 -82.47 L132.3 -81.52 L132.6 -80.58 L132.9 -79.63 L133.2 -78.68 L133.5 -77.73 L133.8 -76.79 L134.1 -75.84 L134.4 -74.89 L134.7 -73.94 L135 -73 L135.3 -72.05 L134.4 -71.75 L133.4 -71.44 L132.5 -71.14 L131.5 -70.83 L130.6 -70.53 L129.6 -70.23 L128.7 -69.92 L127.7 -69.62 L126.8 -69.31 L125.8 -69.01 L124.9 -68.7 L124 -68.4 L123 -68.1 L122.1 -67.79 L121.1 -67.49 L120.2 -67.18 L119.2 -66.88 L118.3 -66.57 L117.3 -66.27 L116.4 -65.97 L115.4 -65.66 L114.5 -65.36 L113.5 -65.05 L112.6 -64.75 L111.6 -64.44 L111.3 -65.39 L111 -66.34 L110.7 -67.29 L110.4 -68.23 L110.1 -69.18 L109.8 -70.13 L109.5 -71.08 L109.2 -72.02 L108.9 -72.97 L108.6 -73.92 L108.3 -74.86 L108 -75.81 L107.7 -76.76 L107.4 -77.71 L107.1 -78.65 L106.8 -79.6 L106.5 -80.55 L106.2 -81.49 L105.9 -82.44 L105.6 -83.39 L105.3 -84.34 L104.9 -85.28 L104.6 -86.23 L104.3 -87.18 L104 -88.12 L105 -88.43 L105.9 -88.73 L106.9 -89.04 L107.8 -89.34 L108.8 -89.65 L109.7 -89.95 L110.7 -90.25 L111.6 -90.56 L112.6 -90.86 L113.5 -91.17 L114.5 -91.47 L115.4 -91.78 L116.3 -92.08 L117.3 -92.38 L118.2 -92.69 L119.2 -92.99 L120.1 -93.3 L121.1 -93.6 L122 -93.91 L123 -94.21 L123.9 -94.51 L124.9 -94.82 L125.8 -95.12 L126.8 -95.43 L127.7 -95.73 Z " />
<path stroke="rgb(0,0,0)" stroke-opacity="1" fill="rgb(255,255,255)" fill-opacity="1" d="M-299.5 187.6 L-298.5 187.7 L-297.5 187.8 L-296.5 188 L-295.6 188.3 L-294.7 188.7 L-293.8 189.1 L-292.9 189.6 L-292.1 190.2 L-291.3 190.8 L-290.6 191.5 L-289.9 192.3 L-289.3 193.1 L-288.8 193.9 L-288.4 194.8 L-288 195.7 L-287.7 196.7 L-287.4 197.6 L-287.3 198.6 L-287.2 199.6 L-287.2 200.6 L-287.2 201.6 L-287.4 202.6 L-287.6 203.6 L-287.9 204.5 L-288.3 205.4 L-288.8 206.3 L-289.3 207.2 L-289.9 208 L-290.5 208.7 L-291.2 209.4 L-292 210.1 L-292.8 210.6 L-293.7 211.1 L-294.6 211.6 L-295.5 212 L-296.4 212.3 L-297.4 212.5 L-298.4 212.6 L-299.4 212.7 L-300.4 212.7 L-301.4 212.6 L-302.4 212.4 L-303.3 212.2 L-304.3 211.8 L-305.2 211.4 L-306.1 211 L-306.9 210.4 L-307.7 209.8 L-308.4 209.1 L-309.1 208.4 L-309.7 207.6 L-310.3 206.8 L-310.8 206 L-311.2 205.1 L-311.6 204.1 L-311.9 203.2 L-312.1 202.2 L-312.2 201.2 L-312.2 200.2 L-312.2 199.2 L-312.1 198.2 L-311.9 197.2 L-311.6 196.3 L-311.3 195.3 L-310.8 194.4 L-310.4 193.6 L-309.8 192.7 L-309.2 192 L-308.5 191.2 L-307.8 190.6 L-307 190 L-306.1 189.4 L-305.3 188.9 L-304.4 188.5 L-303.4 188.2 L-302.5 187.9 L-301.5 187.8 L-300.5 187.6 L-299.5 187.6 Z " />
<path stroke="rgb(0,0,0)" stroke-opacity="1" fill="rgb(255,255,255)" fill-opacity="1" d="M-386.6 -11.24 L-386.6 -10.25 L-386.6 -9.251 L-386.6 -8.257 L-386.5 -7.263 L-386.5 -6.268 L-386.5 -5.274 L-386.5 -4.279 L-386.5 -3.285 L-386.4 -2.291 L-386.4 -1.296 L-386.4 -0.3017 L-386.4 0.6927 L-386.4 1.687 L-386.3 2.681 L-386.3 3.676 L-386.3 4.67 L-386.3 5.665 L-386.2 6.659 L-386.2 7.654 L-386.2 8.648 L-386.2 9.642 L-386.2 10.64 L-386.1 11.63 L-386.1 12.63 L-386.1 13.62 L-387.1 13.64 L-388.1 13.66 L-389.1 13.68 L-390.1 13.7 L-391.1 13.73 L-392.1 13.75 L-393.1 13.77 L-394.1 13.79 L-395 13.81 L-396 13.83 L-397 13.85 L-398 13.87 L-399 13.9 L-400 13.92 L-401 13.94 L-402 13.96 L-403 13.98 L-404 14 L-405 14.02 L-406 14.04 L-407 14.07 L-408 14.09 L-409 14.11 L-410 14.13 L-411 14.15 L-411 13.16 L-411 12.16 L-411 11.17 L-411 10.17 L-411.1 9.178 L-411.1 8.184 L-411.1 7.189 L-411.1 6.195 L-411.1 5.2 L-411.2 4.206 L-411.2 3.212 L-411.2 2.217 L-411.2 1.223 L-411.3 0.2283 L-411.3 -0.7661 L-411.3 -1.76 L-411.3 -2.755 L-411.3 -3.749 L-411.4 -4.744 L-411.4 -5.738 L-411.4 -6.733 L-411.4 -7.727 L-411.4 -8.721 L-411.5 -9.716 L-411.5 -10.71 L-410.5 -10.73 L-409.5 -10.75 L-408.5 -10.77 L-407.5 -10.79 L-406.5 -10.82 L-405.5 -10.84 L-404.5 -10.86 L-403.5 -10.88 L-402.5 -10.9 L-401.5 -10.92 L-400.5 -10.94 L-399.6 -10.96 L-398.6 -10.99 L-397.6 -11.01 L-396.6 -11.03 L-395.6 -11.05 L-394.6 -11.07 L-393.6 -11.09 L-392.6 -11.11 L-391.6 -11.13 L-390.6 -11.16 L-389.6 -11.18 L-388.6 -11.2 L-387.6 -11.22 L-386.6 -11.24 Z " />
<path stroke="rgb(0,0,0)" stroke-opacity="1" fill="rgb(255,255,255)" fill-opacity="1" d="M-99.64 187.7 L-98.65 187.7 L-97.67 187.9 L-96.7 188.1 L-95.74 188.3 L-94.82 188.7 L-93.92 189.1 L-93.06 189.6 L-92.24 190.2 L-91.47 190.8 L-90.75 191.5 L-90.09 192.2 L-89.49 193 L-88.95 193.8 L-88.48 194.7 L-88.08 195.6 L-87.76 196.5 L-87.51 197.5 L-87.34 198.5 L-87.24 199.5 L-87.23 200.5 L-87.29 201.4 L-87.43 202.4 L-87.65 203.4 L-87.94 204.3 L-88.31 205.3 L-88.75 206.1 L-89.26 207 L-89.84 207.8 L-90.48 208.6 L-91.17 209.3 L-91.92 209.9 L-92.72 210.5 L-93.57 211 L-94.45 211.5 L-95.37 211.8 L-96.31 212.2 L-97.27 212.4 L-98.25 212.5 L-99.24 212.6 L-100.2 212.6 L-101.2 212.5 L-102.2 212.4 L-103.2 212.1 L-104.1 211.8 L-105 211.4 L-105.9 211 L-106.7 210.4 L-107.5 209.9 L-108.3 209.2 L-109 208.5 L-109.6 207.7 L-110.2 206.9 L-110.7 206.1 L-111.1 205.2 L-111.5 204.2 L-111.8 203.3 L-112 202.3 L-112.1 201.3 L-112.2 200.4 L-112.1 199.4 L-112 198.4 L-111.8 197.4 L-111.6 196.4 L-111.3 195.5 L-110.9 194.6 L-110.4 193.7 L-109.8 192.9 L-109.2 192.1 L-108.6 191.4 L-107.8 190.7 L-107.1 190.1 L-106.2 189.5 L-105.4 189.1 L-104.5 188.6 L-103.5 188.3 L-102.6 188 L-101.6 187.8 L-100.6 187.7 L-99.64 187.7 Z " />
<path stroke="rgb(0,0,0)" stroke-opacity="1" fill="rgb(255,255,255)" fill-opacity="1" d="M-182.1 -6.555 L-182 -5.567 L-181.9 -4.578 L-181.8 -3.59 L-181.6 -2.601 L-181.5 -1.612 L-181.4 -0.6238 L-181.3 0.3647 L-181.2 1.353 L-181.1 2.342 L-181 3.33 L-180.9 4.319 L-180.8 5.308 L-180.7 6.296 L-180.5 7.285 L-180.4 8.273 L-180.3 9.262 L-180.2 10.25 L-180.1 11.24 L-180 12.23 L-179.9 13.22 L-179.8 14.2 L-179.7 15.19 L-179.5 16.18 L-179.4 17.17 L-179.3 18.16 L-180.3 18.27 L-181.3 18.38 L-182.3 18.49 L-183.3 18.6 L-184.3 18.71 L-185.3 18.82 L-186.2 18.93 L-187.2 19.04 L-188.2 19.15 L-189.2 19.26 L-190.2 19.37 L-191.2 19.48 L-192.2 19.59 L-193.2 19.7 L-194.2 19.81 L-195.1 19.92 L-196.1 20.03 L-197.1 20.14 L-198.1 20.25 L-199.1 20.36 L-200.1 20.47 L-201.1 20.59 L-202.1 20.7 L-203.1 20.81 L-204 20.92 L-204.2 19.93 L-204.3 18.94 L-204.4 17.95 L-204.5 16.96 L-204.6 15.97 L-204.7 14.98 L-204.8 14 L-204.9 13.01 L-205 12.02 L-205.1 11.03 L-205.3 10.04 L-205.4 9.053 L-205.5 8.064 L-205.6 7.076 L-205.7 6.087 L-205.8 5.099 L-205.9 4.11 L-206 3.122 L-206.1 2.133 L-206.2 1.144 L-206.4 0.1559 L-206.5 -0.8326 L-206.6 -1.821 L-206.7 -2.81 L-206.8 -3.798 L-205.8 -3.909 L-204.8 -4.019 L-203.8 -4.129 L-202.8 -4.239 L-201.9 -4.35 L-200.9 -4.46 L-199.9 -4.57 L-198.9 -4.681 L-197.9 -4.791 L-196.9 -4.901 L-195.9 -5.011 L-194.9 -5.122 L-193.9 -5.232 L-193 -5.342 L-192 -5.452 L-191 -5.563 L-190 -5.673 L-189 -5.783 L-188 -5.894 L-187 -6.004 L-186 -6.114 L-185.1 -6.224 L-184.1 -6.335 L-183.1 -6.445 L-182.1 -6.555 Z " />
<path stroke="rgb(0,0,0)" stroke-opacity="1" fill="rgb(255,255,255)" fill-opacity="1" d="M100.4 187.7 L101.3 187.7 L102.3 187.9 L103.3 188.1 L104.3 188.3 L105.2 188.7 L106.1 189.1 L106.9 189.6 L107.8 190.2 L108.5 190.8 L109.2 191.5 L109.9 192.2 L110.5 193 L111 193.8 L111.5 194.7 L111.9 195.6 L112.2 196.5 L112.5 197.5 L112.7 198.5 L112.8 199.5 L112.8 200.5 L112.7 201.4 L112.6 202.4 L112.4 203.4 L112.1 204.3 L111.7 205.3 L111.2 206.1 L110.7 207 L110.2 207.8 L109.5 208.6 L108.8 209.3 L108.1 209.9 L107.3 210.5 L106.4 211 L105.6 211.5 L104.6 211.8 L103.7 212.2 L102.7 212.4 L101.7 212.5 L100.8 212.6 L99.77 212.6 L98.78 212.5 L97.8 212.4 L96.84 212.1 L95.9 211.8 L94.99 211.4 L94.11 211 L93.27 210.4 L92.48 209.9 L91.73 209.2 L91.04 208.5 L90.41 207.7 L89.84 206.9 L89.33 206.1 L88.9 205.2 L88.54 204.2 L88.25 203.3 L88.04 202.3 L87.9 201.3 L87.85 200.4 L87.87 199.4 L87.97 198.4 L88.15 197.4 L88.41 196.4 L88.74 195.5 L89.15 194.6 L89.62 193.7 L90.17 192.9 L90.78 192.1 L91.44 191.4 L92.17 190.7 L92.94 190.1 L93.76 189.5 L94.63 189.1 L95.53 188.6 L96.46 188.3 L97.41 188 L98.38 187.8 L99.37 187.7 L100.4 187.7 Z " />
<path stroke="rgb(0,0,0)" stroke-opacity="1" fill="rgb(255,255,255)" fill-opacity="1" d="M27.71 4.269 L28.02 5.217 L28.32 6.164 L28.63 7.111 L28.93 8.058 L29.24 9.005 L29.54 9.953 L29.84 10.9 L30.15 11.85 L30.45 12.79 L30.76 13.74 L31.06 14.69 L31.37 15.64 L31.67 16.58 L31.97 17.53 L32.28 18.48 L32.58 19.42 L32.89 20.37 L33.19 21.32 L33.5 22.27 L33.8 23.21 L34.1 24.16 L34.41 25.11 L34.71 26.06 L35.02 27 L35.32 27.95 L34.37 28.25 L33.43 28.56 L32.48 28.86 L31.53 29.17 L30.58 29.47 L29.64 29.77 L28.69 30.08 L27.74 30.38 L26.8 30.69 L25.85 30.99 L24.9 31.3 L23.95 31.6 L23.01 31.9 L22.06 32.21 L21.11 32.51 L20.17 32.82 L19.22 33.12 L18.27 33.43 L17.32 33.73 L16.38 34.03 L15.43 34.34 L14.48 34.64 L13.54 34.95 L12.59 35.25 L11.64 35.56 L11.34 34.61 L11.03 33.66 L10.73 32.71 L10.42 31.77 L10.12 30.82 L9.816 29.87 L9.511 28.92 L9.207 27.98 L8.903 27.03 L8.599 26.08 L8.294 25.14 L7.99 24.19 L7.686 23.24 L7.382 22.29 L7.077 21.35 L6.773 20.4 L6.469 19.45 L6.165 18.51 L5.86 17.56 L5.556 16.61 L5.252 15.66 L4.948 14.72 L4.644 13.77 L4.339 12.82 L4.035 11.88 L4.982 11.57 L5.929 11.27 L6.877 10.96 L7.824 10.66 L8.771 10.35 L9.718 10.05 L10.67 9.746 L11.61 9.442 L12.56 9.137 L13.51 8.833 L14.45 8.529 L15.4 8.225 L16.35 7.92 L17.3 7.616 L18.24 7.312 L19.19 7.008 L20.14 6.703 L21.08 6.399 L22.03 6.095 L22.98 5.791 L23.93 5.486 L24.87 5.182 L25.82 4.878 L26.77 4.574 L27.71 4.269 Z " />
<path stroke="rgb(0,0,0)" stroke-opacity="1" fill="rgb(255,255,255)" fill-opacity="1" d="M300.4 187.7 L301.3 187.7 L302.3 187.9 L303.3 188.1 L304.3 188.3 L305.2 188.7 L306.1 189.1 L306.9 189.6 L307.8 190.2 L308.5 190.8 L309.2 191.5 L309.9 192.2 L310.5 193 L311 193.8 L311.5 194.7 L311.9 195.6 L312.2 196.5 L312.5 197.5 L312.7 198.5 L312.8 199.5 L312.8 200.5 L312.7 201.4 L312.6 202.4 L312.4 203.4 L312.1 204.3 L311.7 205.3 L311.2 206.1 L310.7 207 L310.2 207.8 L309.5 208.6 L308.8 209.3 L308.1 209.9 L307.3 210.5 L306.4 211 L305.6 211.5 L304.6 211.8 L303.7 212.2 L302.7 212.4 L301.7 212.5 L300.8 212.6 L299.8 212.6 L298.8 212.5 L297.8 212.4 L296.8 212.1 L295.9 211.8 L295 211.4 L294.1 211 L293.3 210.4 L292.5 209.9 L291.7 209.2 L291 208.5 L290.4 207.7 L289.8 206.9 L289.3 206.1 L288.9 205.2 L288.5 204.2 L288.2 203.3 L288 202.3 L287.9 201.3 L287.8 200.4 L287.9 199.4 L288 198.4 L288.2 197.4 L288.4 196.4 L288.7 195.5 L289.1 194.6 L289.6 193.7 L290.2 192.9 L290.8 192.1 L291.4 191.4 L292.2 190.7 L292.9 190.1 L293.8 189.5 L294.6 189.1 L295.5 188.6 L296.5 188.3 L297.4 188 L298.4 187.8 L299.4 187.7 L300.4 187.7 Z " />
<path stroke="rgb(0,0,0)" stroke-opacity="1" fill="rgb(255,255,255)" fill-opacity="1" d="M-486.6 88.76 L-486.6 89.75 L-486.6 90.75 L-486.6 91.74 L-486.5 92.74 L-486.5 93.73 L-486.5 94.73 L-486.5 95.72 L-486.5 96.72 L-486.4 97.71 L-486.4 98.7 L-486.4 99.7 L-486.4 100.7 L-486.4 101.7 L-486.3 102.7 L-486.3 103.7 L-486.3 104.7 L-486.3 105.7 L-486.2 106.7 L-486.2 107.7 L-486.2 108.6 L-486.2 109.6 L-486.2 110.6 L-486.1 111.6 L-486.1 112.6 L-486.1 113.6 L-487.1 113.6 L-488.1 113.7 L-489.1 113.7 L-490.1 113.7 L-491.1 113.7 L-492.1 113.7 L-493.1 113.8 L-494.1 113.8 L-495 113.8 L-496 113.8 L-497 113.9 L-498 113.9 L-499 113.9 L-500 113.9 L-501 113.9 L-502 114 L-503 114 L-504 114 L-505 114 L-506 114 L-507 114.1 L-508 114.1 L-509 114.1 L-510 114.1 L-511 114.1 L-511 113.2 L-511 112.2 L-511 111.2 L-511 110.2 L-511.1 109.2 L-511.1 108.2 L-511.1 107.2 L-511.1 106.2 L-511.1 105.2 L-511.2 104.2 L-511.2 103.2 L-511.2 102.2 L-511.2 101.2 L-511.3 100.2 L-511.3 99.23 L-511.3 98.24 L-511.3 97.25 L-511.3 96.25 L-511.4 95.26 L-511.4 94.26 L-511.4 93.27 L-511.4 92.27 L-511.4 91.28 L-511.5 90.28 L-511.5 89.29 L-510.5 89.27 L-509.5 89.25 L-508.5 89.23 L-507.5 89.21 L-506.5 89.18 L-505.5 89.16 L-504.5 89.14 L-503.5 89.12 L-502.5 89.1 L-501.5 89.08 L-500.5 89.06 L-499.6 89.04 L-498.6 89.01 L-497.6 88.99 L-496.6 88.97 L-495.6 88.95 L-494.6 88.93 L-493.6 88.91 L-492.6 88.89 L-491.6 88.87 L-490.6 88.84 L-489.6 88.82 L-488.6 88.8 L-487.6 88.78 L-486.6 88.76 Z " />
<path stroke="rgb(0,0,0)" stroke-opacity="1" fill="rgb(255,255,255)" fill-opacity="1" d="M-199.6 287.7 L-198.7 287.7 L-197.7 287.9 L-196.7 288.1 L-195.7 288.3 L-194.8 288.7 L-193.9 289.1 L-193.1 289.6 L-192.2 290.2 L-191.5 290.8 L-190.8 291.5 L-190.1 292.2 L-189.5 293 L-189 293.8 L-188.5 294.7 L-188.1 295.6 L-187.8 296.5 L-187.5 297.5 L-187.3 298.5 L-187.2 299.5 L-187.2 300.5 L-187.3 301.4 L-187.4 302.4 L-187.6 303.4 L-187.9 304.3 L-188.3 305.3 L-188.8 306.1 L-189.3 307 L-189.8 307.8 L-190.5 308.6 L-191.2 309.3 L-191.9 309.9 L-192.7 310.5 L-193.6 311 L-194.4 311.5 L-195.4 311.8 L-196.3 312.2 L-197.3 312.4 L-198.3 312.5 L-199.2 312.6 L-200.2 312.6 L-201.2 312.5 L-202.2 312.4 L-203.2 312.1 L-204.1 311.8 L-205 311.4 L-205.9 311 L-206.7 310.4 L-207.5 309.9 L-208.3 309.2 L-209 308.5 L-209.6 307.7 L-210.2 306.9 L-210.7 306.1 L-211.1 305.2 L-211.5 304.2 L-211.8 303.3 L-212 302.3 L-212.1 301.3 L-212.2 300.4 L-212.1 299.4 L-212 298.4 L-211.8 297.4 L-211.6 296.4 L-211.3 295.5 L-210.9 294.6 L-210.4 293.7 L-209.8 292.9 L-209.2 292.1 L-208.6 291.4 L-207.8 290.7 L-207.1 290.1 L-206.2 289.5 L-205.4 289.1 L-204.5 288.6 L-203.5 288.3 L-202.6 288 L-201.6 287.8 L-200.6 287.7 L-199.6 287.7 Z " />
<path stroke="rgb(0,0,0)" stroke-opacity="1" fill="rgb(255,255,255)" fill-opacity="1" d="M-282.1 93.44 L-282 94.43 L-281.9 95.42 L-281.8 96.41 L-281.6 97.4 L-281.5 98.39 L-281.4 99.38 L-281.3 100.4 L-281.2 101.4 L-281.1 102.3 L-281 103.3 L-280.9 104.3 L-280.8 105.3 L-280.7 106.3 L-280.5 107.3 L-280.4 108.3 L-280.3 109.3 L-280.2 110.3 L-280.1 111.2 L-280 112.2 L-279.9 113.2 L-279.8 114.2 L-279.7 115.2 L-279.5 116.2 L-279.4 117.2 L-279.3 118.2 L-280.3 118.3 L-281.3 118.4 L-282.3 118.5 L-283.3 118.6 L-284.3 118.7 L-285.3 118.8 L-286.2 118.9 L-287.2 119 L-288.2 119.2 L-289.2 119.3 L-290.2 119.4 L-291.2 119.5 L-292.2 119.6 L-293.2 119.7 L-294.2 119.8 L-295.1 119.9 L-296.1 120 L-297.1 120.1 L-298.1 120.3 L-299.1 120.4 L-300.1 120.5 L-301.1 120.6 L-302.1 120.7 L-303.1 120.8 L-304 120.9 L-304.2 119.9 L-304.3 118.9 L-304.4 118 L-304.5 117 L-304.6 116 L-304.7 115 L-304.8 114 L-304.9 113 L-305 112 L-305.1 111 L-305.3 110 L-305.4 109.1 L-305.5 108.1 L-305.6 107.1 L-305.7 106.1 L-305.8 105.1 L-305.9 104.1 L-306 103.1 L-306.1 102.1 L-306.2 101.1 L-306.4 100.2 L-306.5 99.17 L-306.6 98.18 L-306.7 97.19 L-306.8 96.2 L-305.8 96.09 L-304.8 95.98 L-303.8 95.87 L-302.8 95.76 L-301.9 95.65 L-300.9 95.54 L-299.9 95.43 L-298.9 95.32 L-297.9 95.21 L-296.9 95.1 L-295.9 94.99 L-294.9 94.88 L-293.9 94.77 L-293 94.66 L-292 94.55 L-291 94.44 L-290 94.33 L-289 94.22 L-288 94.11 L-287 94 L-286 93.89 L-285.1 93.78 L-284.1 93.67 L-283.1 93.56 L-282.1 93.44 Z " />
<path stroke="rgb(0,0,0)" stroke-opacity="1" fill="rgb(255,255,255)" fill-opacity="1" d="M0.3584 287.7 L1.349 287.7 L2.332 287.9 L3.303 288.1 L4.255 288.3 L5.182 288.7 L6.078 289.1 L6.938 289.6 L7.756 290.2 L8.527 290.8 L9.246 291.5 L9.908 292.2 L10.51 293 L11.05 293.8 L11.52 294.7 L11.92 295.6 L12.24 296.5 L12.49 297.5 L12.66 298.5 L12.76 299.5 L12.77 300.5 L12.71 301.4 L12.57 302.4 L12.35 303.4 L12.06 304.3 L11.69 305.3 L11.25 306.1 L10.74 307 L10.16 307.8 L9.522 308.6 L8.825 309.3 L8.075 309.9 L7.276 310.5 L6.432 311 L5.55 311.5 L4.635 311.8 L3.692 312.2 L2.729 312.4 L1.749 312.5 L0.761 312.6 L-0.2301 312.6 L-1.218 312.5 L-2.196 312.4 L-3.158 312.1 L-4.098 311.8 L-5.011 311.4 L-5.889 311 L-6.729 310.4 L-7.524 309.9 L-8.269 309.2 L-8.96 308.5 L-9.593 307.7 L-10.16 306.9 L-10.67 306.1 L-11.1 305.2 L-11.46 304.2 L-11.75 303.3 L-11.96 302.3 L-12.1 301.3 L-12.15 300.4 L-12.13 299.4 L-12.03 298.4 L-11.85 297.4 L-11.59 296.4 L-11.26 295.5 L-10.85 294.6 L-10.38 293.7 L-9.832 292.9 L-9.225 292.1 L-8.557 291.4 L-7.833 290.7 L-7.057 290.1 L-6.235 289.5 L-5.372 289.1 L-4.473 288.6 L-3.543 288.3 L-2.589 288 L-1.617 287.8 L-0.6321 287.7 L0.3584 287.7 Z " />
<path stroke="rgb(0,0,0)" stroke-opacity="1" fill="rgb(255,255,255)" fill-opacity="1" d="M-72.29 104.3 L-71.98 105.2 L-71.68 106.2 L-71.37 107.1 L-71.07 108.1 L-70.76 109 L-70.46 110 L-70.16 110.9 L-69.85 111.8 L-69.55 112.8 L-69.24 113.7 L-68.94 114.7 L-68.63 115.6 L-68.33 116.6 L-68.03 117.5 L-67.72 118.5 L-67.42 119.4 L-67.11 120.4 L-66.81 121.3 L-66.5 122.3 L-66.2 123.2 L-65.9 124.2 L-65.59 125.1 L-65.29 126.1 L-64.98 127 L-64.68 127.9 L-65.63 128.3 L-66.57 128.6 L-67.52 128.9 L-68.47 129.2 L-69.42 129.5 L-70.36 129.8 L-71.31 130.1 L-72.26 130.4 L-73.2 130.7 L-74.15 131 L-75.1 131.3 L-76.05 131.6 L-76.99 131.9 L-77.94 132.2 L-78.89 132.5 L-79.83 132.8 L-80.78 133.1 L-81.73 133.4 L-82.68 133.7 L-83.62 134 L-84.57 134.3 L-85.52 134.6 L-86.46 134.9 L-87.41 135.3 L-88.36 135.6 L-88.66 134.6 L-88.97 133.7 L-89.27 132.7 L-89.58 131.8 L-89.88 130.8 L-90.18 129.9 L-90.49 128.9 L-90.79 128 L-91.1 127 L-91.4 126.1 L-91.71 125.1 L-92.01 124.2 L-92.31 123.2 L-92.62 122.3 L-92.92 121.3 L-93.23 120.4 L-93.53 119.5 L-93.84 118.5 L-94.14 117.6 L-94.44 116.6 L-94.75 115.7 L-95.05 114.7 L-95.36 113.8 L-95.66 112.8 L-95.96 111.9 L-95.02 111.6 L-94.07 111.3 L-93.12 111 L-92.18 110.7 L-91.23 110.4 L-90.28 110.1 L-89.33 109.7 L-88.39 109.4 L-87.44 109.1 L-86.49 108.8 L-85.55 108.5 L-84.6 108.2 L-83.65 107.9 L-82.7 107.6 L-81.76 107.3 L-80.81 107 L-79.86 106.7 L-78.92 106.4 L-77.97 106.1 L-77.02 105.8 L-76.07 105.5 L-75.13 105.2 L-74.18 104.9 L-73.23 104.6 L-72.29 104.3 Z " />
<path stroke="rgb(0,0,0)" stroke-opacity="1" fill="rgb(255,255,255)" fill-opacity="1" d="M200.4 287.7 L201.3 287.7 L202.3 287.9 L203.3 288.1 L204.3 288.3 L205.2 288.7 L206.1 289.1 L206.9 289.6 L207.8 290.2 L208.5 290.8 L209.2 291.5 L209.9 292.2 L210.5 293 L211 293.8 L211.5 294.7 L211.9 295.6 L212.2 296.5 L212.5 297.5 L212.7 298.5 L212.8 299.5 L212.8 300.5 L212.7 301.4 L212.6 302.4 L212.4 303.4 L212.1 304.3 L211.7 305.3 L211.2 306.1 L210.7 307 L210.2 307.8 L209.5 308.6 L208.8 309.3 L208.1 309.9 L207.3 310.5 L206.4 311 L205.6 311.5 L204.6 311.8 L203.7 312.2 L202.7 312.4 L201.7 312.5 L200.8 312.6 L199.8 312.6 L198.8 312.5 L197.8 312.4 L196.8 312.1 L195.9 311.8 L195 311.4 L194.1 311 L193.3 310.4 L192.5 309.9 L191.7 309.2 L191 308.5 L190.4 307.7 L189.8 306.9 L189.3 306.1 L188.9 305.2 L188.5 304.2 L188.2 303.3 L188 302.3 L187.9 301.3 L187.8 300.4 L187.9 299.4 L188 298.4 L188.2 297.4 L188.4 296.4 L188.7 295.5 L189.1 294.6 L189.6 293.7 L190.2 292.9 L190.8 292.1 L191.4 291.4 L192.2 290.7 L192.9 290.1 L193.8 289.5 L194.6 289.1 L195.5 288.6 L196.5 288.3 L197.4 288 L198.4 287.8 L199.4 287.7 L200.4 287.7 Z " />
<path stroke="rgb(0,0,0)" stroke-opacity="1" fill="rgb(255,255,255)" fill-opacity="1" d="M144.4 125 L145 125.8 L145.6 126.5 L146.2 127.3 L146.8 128.1 L147.4 128.9 L148.1 129.7 L148.7 130.5 L149.3 131.2 L149.9 132 L150.5 132.8 L151.1 133.6 L151.7 134.4 L152.3 135.2 L153 135.9 L153.6 136.7 L154.2 137.5 L154.8 138.3 L155.4 139.1 L156 139.9 L156.6 140.6 L157.3 141.4 L157.9 142.2 L158.5 143 L159.1 143.8 L159.7 144.6 L158.9 145.2 L158.1 145.8 L157.4 146.4 L156.6 147 L155.8 147.6 L155 148.2 L154.2 148.9 L153.4 149.5 L152.7 150.1 L151.9 150.7 L151.1 151.3 L150.3 151.9 L149.5 152.5 L148.7 153.2 L148 153.8 L147.2 154.4 L146.4 155 L145.6 155.6 L144.8 156.2 L144 156.8 L143.3 157.4 L142.5 158.1 L141.7 158.7 L140.9 159.3 L140.1 159.9 L139.5 159.1 L138.9 158.3 L138.3 157.6 L137.7 156.8 L137.1 156 L136.4 155.2 L135.8 154.4 L135.2 153.6 L134.6 152.9 L134 152.1 L133.4 151.3 L132.8 150.5 L132.1 149.7 L131.5 148.9 L130.9 148.2 L130.3 147.4 L129.7 146.6 L129.1 145.8 L128.5 145 L127.9 144.2 L127.2 143.5 L126.6 142.7 L126 141.9 L125.4 141.1 L124.8 140.3 L125.6 139.7 L126.4 139.1 L127.1 138.5 L127.9 137.9 L128.7 137.2 L129.5 136.6 L130.3 136 L131.1 135.4 L131.8 134.8 L132.6 134.2 L133.4 133.6 L134.2 133 L135 132.3 L135.8 131.7 L136.5 131.1 L137.3 130.5 L138.1 129.9 L138.9 129.3 L139.7 128.7 L140.5 128 L141.2 127.4 L142 126.8 L142.8 126.2 L143.6 125.6 L144.4 125 Z " />
</g>
</g>
</svg>
