<!DOCTYPE svg>
<svg xmlns="http://www.w3.org/2000/svg" xmlns:xlink="http://www.w3.org/1999/xlink" width="1000" height="1000">
<g transform="translate(500.000000,500.000000)">
<g transform="scale(3.000000,3.000000)">
<path stroke="rgb(0,0,0)" stroke-opacity="1" fill="rgb(255,255,255)" fill-opacity="1" d="M-1020 -974.9 L-1021 -976.8 L-1021 -978.6 L-1021 -980.4 L-1021 -982.3 L-1021 -984.1 L-1022 -986 L-1022 -987.8 L-1022 -989.6 L-1022 -991.5 L-1022 -993.3 L-1023 -995.1 L-1023 -997 L-1023 -998.8 L-1023 -1001 L-1024 -1002 L-1024 -1004 L-1024 -1006 L-1024 -1008 L-1024 -1010 L-1025 -1012 L-1025 -1014 L-1025 -1015 L-1025 -1017 L-1025 -1019 L-1026 -1021 L-1024 -1021 L-1022 -1021 L-1020 -1021 L-1018 -1022 L-1016 -1022 L-1015 -1022 L-1013 -1022 L-1011 -1023 L-1009 -1023 L-1007 -1023 L-1005 -1023 L-1004 -1023 L-1002 -1024 L-999.9 -1024 L-998 -1024 L-996.2 -1024 L-994.4 -1024 L-992.5 -1025 L-990.7 -1025 L-988.8 -1025 L-987 -1025 L-985.2 -1025 L-983.3 -1026 L-981.5 -1026 L-979.7 -1026 L-979.5 -1024 L-979.2 -1022 L-979 -1021 L-978.8 -1019 L-978.6 -1017 L-978.4 -1015 L-978.2 -1013 L-978 -1011 L-977.8 -1010 L-977.6 -1008 L-977.4 -1006 L-977.2 -1004 L-977 -1002 L-976.8 -1000 L-976.6 -998.5 L-976.3 -996.6 L-976.1 -994.8 L-975.9 -993 L-975.7 -991.1 L-975.5 -989.3 L-975.3 -987.5 L-975.1 -985.6 L-974.9 -983.8 L-974.7 -982 L-974.5 -980.1 L-976.3 -979.9 L-978.2 -979.7 L-980 -979.5 L-981.8 -979.3 L-983.7 -979.1 L-985.5 -978.9 L-987.3 -978.7 L-989.2 -978.5 L-991 -978.2 L-992.8 -978 L-994.7 -977.8 L-996.5 -977.6 L-998.4 -977.4 L-1000 -977.2 L-1002 -977 L-1004 -976.8 L-1006 -976.6 L-1008 -976.4 L-1009 -976.2 L-1011 -976 L-1013 -975.8 L-1015 -975.6 L-1017 -975.3 L-1019 -975.1 L-1020 -974.9 Z " />
<path stroke="rgb(0,0,0)" stroke-opacity="0.968" fill="rgb(255,255,255)" fill-opacity="1" d="M-175.3 -299.6 L-175.5 -297.7 L-175.7 -295.7 L-176.1 -293.8 L-176.7 -291.9 L-177.4 -290.1 L-178.3 -288.3 L-179.3 -286.7 L-180.4 -285.1 L-181.6 -283.5 L-183 -282.1 L-184.5 -280.8 L-186.1 -279.7 L-187.7 -278.6 L-189.4 -277.7 L-191.3 -277 L-193.1 -276.3 L-195 -275.9 L-196.9 -275.5 L-198.9 -275.4 L-200.9 -275.4 L-202.8 -275.5 L-204.8 -275.8 L-206.7 -276.3 L-208.5 -276.9 L-210.3 -277.6 L-212.1 -278.5 L-213.8 -279.5 L-215.3 -280.7 L-216.8 -282 L-218.2 -283.4 L-219.5 -284.9 L-220.6 -286.5 L-221.6 -288.1 L-222.5 -289.9 L-223.2 -291.7 L-223.8 -293.6 L-224.2 -295.5 L-224.5 -297.4 L-224.6 -299.4 L-224.6 -301.4 L-224.4 -303.3 L-224.1 -305.2 L-223.6 -307.1 L-223 -309 L-222.2 -310.8 L-221.2 -312.5 L-220.2 -314.2 L-219 -315.7 L-217.7 -317.2 L-216.3 -318.5 L-214.7 -319.8 L-213.1 -320.9 L-211.4 -321.9 L-209.6 -322.7 L-207.8 -323.4 L-205.9 -323.9 L-204 -324.3 L-202.1 -324.6 L-200.1 -324.7 L-198.2 -324.6 L-196.2 -324.4 L-194.3 -324 L-192.4 -323.5 L-190.6 -322.8 L-188.8 -322 L-187.1 -321 L-185.4 -319.9 L-183.9 -318.7 L-182.5 -317.3 L-181.1 -315.9 L-179.9 -314.3 L-178.9 -312.7 L-177.9 -311 L-177.1 -309.2 L-176.5 -307.4 L-176 -305.5 L-175.6 -303.5 L-175.4 -301.6 L-175.3 -299.6 Z " />
<path stroke="rgb(0,0,0)" stroke-opacity="1" fill="rgb(255,255,255)" fill-opacity="1" d="M-805.7 -974.4 L-806.6 -975.7 L-807.4 -977 L-808.2 -978.2 L-809 -979.5 L-809.8 -980.8 L-810.7 -982 L-811.5 -983.3 L-812.3 -984.5 L-813.1 -985.8 L-813.9 -987.1 L-814.8 -988.3 L-815.6 -989.6 L-816.4 -990.9 L-817.2 -992.1 L-818 -993.4 L-818.9 -994.7 L-819.7 -995.9 L-820.5 -997.2 L-821.3 -998.5 L-822.1 -999.7 L-823 -1001 L-823.8 -1002 L-824.6 -1004 L-825.4 -1005 L-826.2 -1006 L-825 -1007 L-823.7 -1008 L-822.4 -1009 L-821.2 -1009 L-819.9 -1010 L-818.7 -1011 L-817.4 -1012 L-816.1 -1013 L-814.9 -1013 L-813.6 -1014 L-812.3 -1015 L-811.1 -1016 L-809.8 -1017 L-808.5 -1018 L-807.3 -1018 L-806 -1019 L-804.7 -1020 L-803.5 -1021 L-802.2 -1022 L-800.9 -1022 L-799.7 -1023 L-798.4 -1024 L-797.1 -1025 L-795.9 -1026 L-794.6 -1027 L-793.8 -1025 L-793 -1024 L-792.2 -1023 L-791.3 -1021 L-790.5 -1020 L-789.7 -1019 L-788.9 -1018 L-788.1 -1016 L-787.2 -1015 L-786.4 -1014 L-785.6 -1013 L-784.8 -1011 L-784 -1010 L-783.1 -1009 L-782.3 -1008 L-781.5 -1006 L-780.7 -1005 L-779.9 -1004 L-779 -1003 L-778.2 -1001 L-777.4 -1000 L-776.6 -998.7 L-775.8 -997.5 L-774.9 -996.2 L-774.1 -994.9 L-775.4 -994.1 L-776.6 -993.3 L-777.9 -992.5 L-779.2 -991.7 L-780.4 -990.8 L-781.7 -990 L-783 -989.2 L-784.2 -988.4 L-785.5 -987.5 L-786.8 -986.7 L-788 -985.9 L-789.3 -985.1 L-790.6 -984.3 L-791.8 -983.4 L-793.1 -982.6 L-794.4 -981.8 L-795.6 -981 L-796.9 -980.2 L-798.1 -979.3 L-799.4 -978.5 L-800.7 -977.7 L-801.9 -976.9 L-803.2 -976.1 L-804.5 -975.2 L-805.7 -974.4 Z " />
<path stroke="rgb(0,0,0)" stroke-opacity="0.968" fill="rgb(255,255,255)" fill-opacity="1" d="M24.65 -299.6 L24.55 -297.7 L24.28 -295.7 L23.87 -293.8 L23.3 -291.9 L22.58 -290.1 L21.73 -288.3 L20.73 -286.7 L19.61 -285.1 L18.36 -283.5 L16.99 -282.1 L15.52 -280.8 L13.95 -279.7 L12.29 -278.6 L10.55 -277.7 L8.746 -277 L6.887 -276.3 L4.985 -275.9 L3.051 -275.5 L1.098 -275.4 L-0.8623 -275.4 L-2.817 -275.5 L-4.754 -275.8 L-6.661 -276.3 L-8.525 -276.9 L-10.34 -277.6 L-12.08 -278.5 L-13.75 -279.5 L-15.33 -280.7 L-16.82 -282 L-18.2 -283.4 L-19.46 -284.9 L-20.6 -286.5 L-21.61 -288.1 L-22.48 -289.9 L-23.21 -291.7 L-23.8 -293.6 L-24.23 -295.5 L-24.51 -297.4 L-24.64 -299.4 L-24.61 -301.4 L-24.42 -303.3 L-24.08 -305.2 L-23.59 -307.1 L-22.95 -309 L-22.16 -310.8 L-21.24 -312.5 L-20.18 -314.2 L-18.99 -315.7 L-17.68 -317.2 L-16.26 -318.5 L-14.74 -319.8 L-13.12 -320.9 L-11.42 -321.9 L-9.647 -322.7 L-7.814 -323.4 L-5.932 -323.9 L-4.012 -324.3 L-2.067 -324.6 L-0.1091 -324.7 L1.85 -324.6 L3.797 -324.4 L5.72 -324 L7.608 -323.5 L9.447 -322.8 L11.23 -322 L12.93 -321 L14.56 -319.9 L16.1 -318.7 L17.53 -317.3 L18.85 -315.9 L20.05 -314.3 L21.13 -312.7 L22.07 -311 L22.88 -309.2 L23.53 -307.4 L24.04 -305.5 L24.4 -303.5 L24.61 -301.6 L24.65 -299.6 Z " />
<path stroke="rgb(0,0,0)" stroke-opacity="1" fill="rgb(255,255,255)" fill-opacity="1" d="M-591.4 -982.8 L-592.5 -983.1 L-593.5 -983.5 L-594.6 -983.8 L-595.6 -984.2 L-596.7 -984.5 L-597.8 -984.9 L-598.8 -985.2 L-599.9 -985.6 L-601 -985.9 L-602 -986.3 L-603.1 -986.6 L-604.1 -987 L-605.2 -987.3 L-606.3 -987.6 L-607.3 -988 L-608.4 -988.3 L-609.5 -988.7 L-610.5 -989 L-611.6 -989.4 L-612.6 -989.7 L-613.7 -990.1 L-614.8 -990.4 L-615.8 -990.8 L-616.9 -991.1 L-618 -991.5 L-617.6 -992.5 L-617.3 -993.6 L-616.9 -994.7 L-616.6 -995.7 L-616.2 -996.8 L-615.9 -997.8 L-615.5 -998.9 L-615.2 -1000 L-614.8 -1001 L-614.5 -1002 L-614.1 -1003 L-613.8 -1004 L-613.4 -1005 L-613.1 -1006 L-612.7 -1007 L-612.4 -1008 L-612 -1010 L-611.7 -1011 L-611.3 -1012 L-611 -1013 L-610.6 -1014 L-610.3 -1015 L-609.9 -1016 L-609.6 -1017 L-609.3 -1018 L-608.2 -1018 L-607.1 -1017 L-606.1 -1017 L-605 -1017 L-603.9 -1016 L-602.9 -1016 L-601.8 -1016 L-600.8 -1015 L-599.7 -1015 L-598.6 -1015 L-597.6 -1014 L-596.5 -1014 L-595.4 -1014 L-594.4 -1013 L-593.3 -1013 L-592.3 -1012 L-591.2 -1012 L-590.1 -1012 L-589.1 -1011 L-588 -1011 L-586.9 -1011 L-585.9 -1010 L-584.8 -1010 L-583.8 -1010 L-582.7 -1009 L-583 -1008 L-583.4 -1007 L-583.7 -1006 L-584.1 -1005 L-584.4 -1004 L-584.8 -1003 L-585.1 -1002 L-585.5 -1001 L-585.8 -999.8 L-586.2 -998.7 L-586.5 -997.7 L-586.9 -996.6 L-587.2 -995.5 L-587.6 -994.5 L-587.9 -993.4 L-588.3 -992.3 L-588.6 -991.3 L-589 -990.2 L-589.3 -989.2 L-589.6 -988.1 L-590 -987 L-590.3 -986 L-590.7 -984.9 L-591 -983.8 L-591.4 -982.8 Z " />
<path stroke="rgb(0,0,0)" stroke-opacity="0.968" fill="rgb(255,255,255)" fill-opacity="1" d="M224.7 -299.6 L224.5 -297.7 L224.3 -295.7 L223.9 -293.8 L223.3 -291.9 L222.6 -290.1 L221.7 -288.3 L220.7 -286.7 L219.6 -285.1 L218.4 -283.5 L217 -282.1 L215.5 -280.8 L213.9 -279.7 L212.3 -278.6 L210.6 -277.7 L208.7 -277 L206.9 -276.3 L205 -275.9 L203.1 -275.5 L201.1 -275.4 L199.1 -275.4 L197.2 -275.5 L195.2 -275.8 L193.3 -276.3 L191.5 -276.9 L189.7 -277.6 L187.9 -278.5 L186.2 -279.5 L184.7 -280.7 L183.2 -282 L181.8 -283.4 L180.5 -284.9 L179.4 -286.5 L178.4 -288.1 L177.5 -289.9 L176.8 -291.7 L176.2 -293.6 L175.8 -295.5 L175.5 -297.4 L175.4 -299.4 L175.4 -301.4 L175.6 -303.3 L175.9 -305.2 L176.4 -307.1 L177 -309 L177.8 -310.8 L178.8 -312.5 L179.8 -314.2 L181 -315.7 L182.3 -317.2 L183.7 -318.5 L185.3 -319.8 L186.9 -320.9 L188.6 -321.9 L190.4 -322.7 L192.2 -323.4 L194.1 -323.9 L196 -324.3 L197.9 -324.6 L199.9 -324.7 L201.8 -324.6 L203.8 -324.4 L205.7 -324 L207.6 -323.5 L209.4 -322.8 L211.2 -322 L212.9 -321 L214.6 -319.9 L216.1 -318.7 L217.5 -317.3 L218.9 -315.9 L220.1 -314.3 L221.1 -312.7 L222.1 -311 L222.9 -309.2 L223.5 -307.4 L224 -305.5 L224.4 -303.5 L224.6 -301.6 L224.7 -299.6 Z " />
<path stroke="rgb(0,0,0)" stroke-opacity="1" fill="rgb(255,255,255)" fill-opacity="1" d="M-388.6 -987.3 L-389.6 -987.3 L-390.6 -987.4 L-391.6 -987.4 L-392.5 -987.5 L-393.5 -987.6 L-394.5 -987.6 L-395.5 -987.7 L-396.5 -987.7 L-397.5 -987.8 L-398.5 -987.8 L-399.5 -987.9 L-400.5 -987.9 L-401.5 -988 L-402.5 -988 L-403.5 -988.1 L-404.5 -988.1 L-405.5 -988.2 L-406.5 -988.2 L-407.5 -988.3 L-408.4 -988.3 L-409.4 -988.4 L-410.4 -988.4 L-411.4 -988.5 L-412.4 -988.5 L-413.4 -988.6 L-413.4 -989.6 L-413.3 -990.6 L-413.3 -991.6 L-413.2 -992.6 L-413.2 -993.6 L-413.1 -994.5 L-413.1 -995.5 L-413 -996.5 L-413 -997.5 L-412.9 -998.5 L-412.8 -999.5 L-412.8 -1001 L-412.7 -1002 L-412.7 -1002 L-412.6 -1003 L-412.6 -1004 L-412.5 -1005 L-412.5 -1006 L-412.4 -1007 L-412.4 -1008 L-412.3 -1009 L-412.3 -1010 L-412.2 -1011 L-412.2 -1012 L-412.1 -1013 L-411.1 -1013 L-410.1 -1013 L-409.1 -1013 L-408.2 -1013 L-407.2 -1013 L-406.2 -1013 L-405.2 -1013 L-404.2 -1013 L-403.2 -1013 L-402.2 -1013 L-401.2 -1013 L-400.2 -1013 L-399.2 -1013 L-398.2 -1013 L-397.2 -1013 L-396.2 -1013 L-395.2 -1013 L-394.2 -1012 L-393.2 -1012 L-392.3 -1012 L-391.3 -1012 L-390.3 -1012 L-389.3 -1012 L-388.3 -1012 L-387.3 -1012 L-387.3 -1011 L-387.4 -1010 L-387.4 -1009 L-387.5 -1008 L-387.5 -1007 L-387.6 -1006 L-387.6 -1005 L-387.7 -1004 L-387.7 -1003 L-387.8 -1002 L-387.9 -1001 L-387.9 -1000 L-388 -999.2 L-388 -998.2 L-388.1 -997.2 L-388.1 -996.2 L-388.2 -995.2 L-388.2 -994.3 L-388.3 -993.3 L-388.3 -992.3 L-388.4 -991.3 L-388.4 -990.3 L-388.5 -989.3 L-388.5 -988.3 L-388.6 -987.3 Z " />
<path stroke="rgb(0,0,0)" stroke-opacity="0.968" fill="rgb(255,255,255)" fill-opacity="1" d="M-275.3 -199.6 L-275.5 -197.7 L-275.7 -195.7 L-276.1 -193.8 L-276.7 -191.9 L-277.4 -190.1 L-278.3 -188.3 L-279.3 -186.7 L-280.4 -185.1 L-281.6 -183.5 L-283 -182.1 L-284.5 -180.8 L-286.1 -179.7 L-287.7 -178.6 L-289.4 -177.7 L-291.3 -177 L-293.1 -176.3 L-295 -175.9 L-296.9 -175.5 L-298.9 -175.4 L-300.9 -175.4 L-302.8 -175.5 L-304.8 -175.8 L-306.7 -176.3 L-308.5 -176.9 L-310.3 -177.6 L-312.1 -178.5 L-313.8 -179.5 L-315.3 -180.7 L-316.8 -182 L-318.2 -183.4 L-319.5 -184.9 L-320.6 -186.5 L-321.6 -188.1 L-322.5 -189.9 L-323.2 -191.7 L-323.8 -193.6 L-324.2 -195.5 L-324.5 -197.4 L-324.6 -199.4 L-324.6 -201.4 L-324.4 -203.3 L-324.1 -205.2 L-323.6 -207.1 L-323 -209 L-322.2 -210.8 L-321.2 -212.5 L-320.2 -214.2 L-319 -215.7 L-317.7 -217.2 L-316.3 -218.5 L-314.7 -219.8 L-313.1 -220.9 L-311.4 -221.9 L-309.6 -222.7 L-307.8 -223.4 L-305.9 -223.9 L-304 -224.3 L-302.1 -224.6 L-300.1 -224.7 L-298.2 -224.6 L-296.2 -224.4 L-294.3 -224 L-292.4 -223.5 L-290.6 -222.8 L-288.8 -222 L-287.1 -221 L-285.4 -219.9 L-283.9 -218.7 L-282.5 -217.3 L-281.1 -215.9 L-279.9 -214.3 L-278.9 -212.7 L-277.9 -211 L-277.1 -209.2 L-276.5 -207.4 L-276 -205.5 L-275.6 -203.5 L-275.4 -201.6 L-275.3 -199.6 Z " />
<path stroke="rgb(0,0,0)" stroke-opacity="1" fill="rgb(255,255,255)" fill-opacity="1" d="M-905.7 -874.4 L-906.6 -875.7 L-907.4 -877 L-908.2 -878.2 L-909 -879.5 L-909.8 -880.8 L-910.7 -882 L-911.5 -883.3 L-912.3 -884.5 L-913.1 -885.8 L-913.9 -887.1 L-914.8 -888.3 L-915.6 -889.6 L-916.4 -890.9 L-917.2 -892.1 L-918 -893.4 L-918.9 -894.7 L-919.7 -895.9 L-920.5 -897.2 L-921.3 -898.5 L-922.1 -899.7 L-923 -901 L-923.8 -902.3 L-924.6 -903.5 L-925.4 -904.8 L-926.2 -906 L-925 -906.9 L-923.7 -907.7 L-922.4 -908.5 L-921.2 -909.3 L-919.9 -910.2 L-918.7 -911 L-917.4 -911.8 L-916.1 -912.6 L-914.9 -913.4 L-913.6 -914.3 L-912.3 -915.1 L-911.1 -915.9 L-909.8 -916.7 L-908.5 -917.5 L-907.3 -918.4 L-906 -919.2 L-904.7 -920 L-903.5 -920.8 L-902.2 -921.6 L-900.9 -922.5 L-899.7 -923.3 L-898.4 -924.1 L-897.1 -924.9 L-895.9 -925.7 L-894.6 -926.6 L-893.8 -925.3 L-893 -924 L-892.2 -922.8 L-891.3 -921.5 L-890.5 -920.2 L-889.7 -919 L-888.9 -917.7 L-888.1 -916.4 L-887.2 -915.2 L-886.4 -913.9 L-885.6 -912.6 L-884.8 -911.4 L-884 -910.1 L-883.1 -908.8 L-882.3 -907.6 L-881.5 -906.3 L-880.7 -905.1 L-879.9 -903.8 L-879 -902.5 L-878.2 -901.3 L-877.4 -900 L-876.6 -898.7 L-875.8 -897.5 L-874.9 -896.2 L-874.1 -894.9 L-875.4 -894.1 L-876.6 -893.3 L-877.9 -892.5 L-879.2 -891.7 L-880.4 -890.8 L-881.7 -890 L-883 -889.2 L-884.2 -888.4 L-885.5 -887.5 L-886.8 -886.7 L-888 -885.9 L-889.3 -885.1 L-890.6 -884.3 L-891.8 -883.4 L-893.1 -882.6 L-894.4 -881.8 L-895.6 -881 L-896.9 -880.2 L-898.1 -879.3 L-899.4 -878.5 L-900.7 -877.7 L-901.9 -876.9 L-903.2 -876.1 L-904.5 -875.2 L-905.7 -874.4 Z " />
<path stroke="rgb(0,0,0)" stroke-opacity="0.968" fill="rgb(255,255,255)" fill-opacity="1" d="M-75.35 -199.6 L-75.45 -197.7 L-75.72 -195.7 L-76.13 -193.8 L-76.7 -191.9 L-77.42 -190.1 L-78.27 -188.3 L-79.27 -186.7 L-80.39 -185.1 L-81.64 -183.5 L-83.01 -182.1 L-84.48 -180.8 L-86.05 -179.7 L-87.71 -178.6 L-89.45 -177.7 L-91.25 -177 L-93.11 -176.3 L-95.01 -175.9 L-96.95 -175.5 L-98.9 -175.4 L-100.9 -175.4 L-102.8 -175.5 L-104.8 -175.8 L-106.7 -176.3 L-108.5 -176.9 L-110.3 -177.6 L-112.1 -178.5 L-113.8 -179.5 L-115.3 -180.7 L-116.8 -182 L-118.2 -183.4 L-119.5 -184.9 L-120.6 -186.5 L-121.6 -188.1 L-122.5 -189.9 L-123.2 -191.7 L-123.8 -193.6 L-124.2 -195.5 L-124.5 -197.4 L-124.6 -199.4 L-124.6 -201.4 L-124.4 -203.3 L-124.1 -205.2 L-123.6 -207.1 L-123 -209 L-122.2 -210.8 L-121.2 -212.5 L-120.2 -214.2 L-119 -215.7 L-117.7 -217.2 L-116.3 -218.5 L-114.7 -219.8 L-113.1 -220.9 L-111.4 -221.9 L-109.6 -222.7 L-107.8 -223.4 L-105.9 -223.9 L-104 -224.3 L-102.1 -224.6 L-100.1 -224.7 L-98.15 -224.6 L-96.2 -224.4 L-94.28 -224 L-92.39 -223.5 L-90.55 -222.8 L-88.77 -222 L-87.07 -221 L-85.44 -219.9 L-83.9 -218.7 L-82.47 -217.3 L-81.15 -215.9 L-79.95 -214.3 L-78.87 -212.7 L-77.93 -211 L-77.12 -209.2 L-76.47 -207.4 L-75.96 -205.5 L-75.6 -203.5 L-75.39 -201.6 L-75.35 -199.6 Z " />
<path stroke="rgb(0,0,0)" stroke-opacity="1" fill="rgb(255,255,255)" fill-opacity="1" d="M-691.4 -882.8 L-692.5 -883.1 L-693.5 -883.5 L-694.6 -883.8 L-695.6 -884.2 L-696.7 -884.5 L-697.8 -884.9 L-698.8 -885.2 L-699.9 -885.6 L-701 -885.9 L-702 -886.3 L-703.1 -886.6 L-704.1 -887 L-705.2 -887.3 L-706.3 -887.6 L-707.3 -888 L-708.4 -888.3 L-709.5 -888.7 L-710.5 -889 L-711.6 -889.4 L-712.6 -889.7 L-713.7 -890.1 L-714.8 -890.4 L-715.8 -890.8 L-716.9 -891.1 L-718 -891.5 L-717.6 -892.5 L-717.3 -893.6 L-716.9 -894.7 L-716.6 -895.7 L-716.2 -896.8 L-715.9 -897.8 L-715.5 -898.9 L-715.2 -900 L-714.8 -901 L-714.5 -902.1 L-714.1 -903.2 L-713.8 -904.2 L-713.4 -905.3 L-713.1 -906.3 L-712.7 -907.4 L-712.4 -908.5 L-712 -909.5 L-711.7 -910.6 L-711.3 -911.7 L-711 -912.7 L-710.6 -913.8 L-710.3 -914.8 L-709.9 -915.9 L-709.6 -917 L-709.3 -918 L-708.2 -917.7 L-707.1 -917.3 L-706.1 -917 L-705 -916.6 L-703.9 -916.3 L-702.9 -915.9 L-701.8 -915.6 L-700.8 -915.3 L-699.7 -914.9 L-698.6 -914.6 L-697.6 -914.2 L-696.5 -913.9 L-695.4 -913.5 L-694.4 -913.2 L-693.3 -912.8 L-692.3 -912.5 L-691.2 -912.1 L-690.1 -911.8 L-689.1 -911.4 L-688 -911.1 L-686.9 -910.7 L-685.9 -910.4 L-684.8 -910 L-683.8 -909.7 L-682.7 -909.3 L-683 -908.3 L-683.4 -907.2 L-683.7 -906.2 L-684.1 -905.1 L-684.4 -904 L-684.8 -903 L-685.1 -901.9 L-685.5 -900.8 L-685.8 -899.8 L-686.2 -898.7 L-686.5 -897.7 L-686.9 -896.6 L-687.2 -895.5 L-687.6 -894.5 L-687.9 -893.4 L-688.3 -892.3 L-688.6 -891.3 L-689 -890.2 L-689.3 -889.2 L-689.6 -888.1 L-690 -887 L-690.3 -886 L-690.7 -884.9 L-691 -883.8 L-691.4 -882.8 Z " />
<path stroke="rgb(0,0,0)" stroke-opacity="0.968" fill="rgb(255,255,255)" fill-opacity="1" d="M124.7 -199.6 L124.5 -197.7 L124.3 -195.7 L123.9 -193.8 L123.3 -191.9 L122.6 -190.1 L121.7 -188.3 L120.7 -186.7 L119.6 -185.1 L118.4 -183.5 L117 -182.1 L115.5 -180.8 L113.9 -179.7 L112.3 -178.6 L110.6 -177.7 L108.7 -177 L106.9 -176.3 L105 -175.9 L103.1 -175.5 L101.1 -175.4 L99.14 -175.4 L97.18 -175.5 L95.25 -175.8 L93.34 -176.3 L91.47 -176.9 L89.66 -177.6 L87.92 -178.5 L86.25 -179.5 L84.67 -180.7 L83.18 -182 L81.8 -183.4 L80.54 -184.9 L79.4 -186.5 L78.39 -188.1 L77.52 -189.9 L76.79 -191.7 L76.2 -193.6 L75.77 -195.5 L75.49 -197.4 L75.36 -199.4 L75.39 -201.4 L75.58 -203.3 L75.92 -205.2 L76.41 -207.1 L77.05 -209 L77.84 -210.8 L78.76 -212.5 L79.82 -214.2 L81.01 -215.7 L82.32 -217.2 L83.74 -218.5 L85.26 -219.8 L86.88 -220.9 L88.58 -221.9 L90.35 -222.7 L92.19 -223.4 L94.07 -223.9 L95.99 -224.3 L97.93 -224.6 L99.89 -224.7 L101.8 -224.6 L103.8 -224.4 L105.7 -224 L107.6 -223.5 L109.4 -222.8 L111.2 -222 L112.9 -221 L114.6 -219.9 L116.1 -218.7 L117.5 -217.3 L118.9 -215.9 L120.1 -214.3 L121.1 -212.7 L122.1 -211 L122.9 -209.2 L123.5 -207.4 L124 -205.5 L124.4 -203.5 L124.6 -201.6 L124.7 -199.6 Z " />
<path stroke="rgb(0,0,0)" stroke-opacity="1" fill="rgb(255,255,255)" fill-opacity="1" d="M-488.6 -887.3 L-489.6 -887.3 L-490.6 -887.4 L-491.6 -887.4 L-492.5 -887.5 L-493.5 -887.6 L-494.5 -887.6 L-495.5 -887.7 L-496.5 -887.7 L-497.5 -887.8 L-498.5 -887.8 L-499.5 -887.9 L-500.5 -887.9 L-501.5 -888 L-502.5 -888 L-503.5 -888.1 L-504.5 -888.1 L-505.5 -888.2 L-506.5 -888.2 L-507.5 -888.3 L-508.4 -888.3 L-509.4 -888.4 L-510.4 -888.4 L-511.4 -888.5 L-512.4 -888.5 L-513.4 -888.6 L-513.4 -889.6 L-513.3 -890.6 L-513.3 -891.6 L-513.2 -892.6 L-513.2 -893.6 L-513.1 -894.5 L-513.1 -895.5 L-513 -896.5 L-513 -897.5 L-512.9 -898.5 L-512.8 -899.5 L-512.8 -900.5 L-512.7 -901.5 L-512.7 -902.5 L-512.6 -903.5 L-512.6 -904.5 L-512.5 -905.5 L-512.5 -906.5 L-512.4 -907.5 L-512.4 -908.5 L-512.3 -909.5 L-512.3 -910.4 L-512.2 -911.4 L-512.2 -912.4 L-512.1 -913.4 L-511.1 -913.4 L-510.1 -913.3 L-509.1 -913.3 L-508.2 -913.2 L-507.2 -913.2 L-506.2 -913.1 L-505.2 -913.1 L-504.2 -913 L-503.2 -913 L-502.2 -912.9 L-501.2 -912.9 L-500.2 -912.8 L-499.2 -912.8 L-498.2 -912.7 L-497.2 -912.7 L-496.2 -912.6 L-495.2 -912.6 L-494.2 -912.5 L-493.2 -912.4 L-492.3 -912.4 L-491.3 -912.3 L-490.3 -912.3 L-489.3 -912.2 L-488.3 -912.2 L-487.3 -912.1 L-487.3 -911.1 L-487.4 -910.2 L-487.4 -909.2 L-487.5 -908.2 L-487.5 -907.2 L-487.6 -906.2 L-487.6 -905.2 L-487.7 -904.2 L-487.7 -903.2 L-487.8 -902.2 L-487.9 -901.2 L-487.9 -900.2 L-488 -899.2 L-488 -898.2 L-488.1 -897.2 L-488.1 -896.2 L-488.2 -895.2 L-488.2 -894.3 L-488.3 -893.3 L-488.3 -892.3 L-488.4 -891.3 L-488.4 -890.3 L-488.5 -889.3 L-488.5 -888.3 L-488.6 -887.3 Z " />
<path stroke="rgb(0,0,0)" stroke-opacity="0.968" fill="rgb(255,255,255)" fill-opacity="1" d="M324.7 -199.6 L324.5 -197.7 L324.3 -195.7 L323.9 -193.8 L323.3 -191.9 L322.6 -190.1 L321.7 -188.3 L320.7 -186.7 L319.6 -185.1 L318.4 -183.5 L317 -182.1 L315.5 -180.8 L313.9 -179.7 L312.3 -178.6 L310.6 -177.7 L308.7 -177 L306.9 -176.3 L305 -175.9 L303.1 -175.5 L301.1 -175.4 L299.1 -175.4 L297.2 -175.5 L295.2 -175.8 L293.3 -176.3 L291.5 -176.9 L289.7 -177.6 L287.9 -178.5 L286.2 -179.5 L284.7 -180.7 L283.2 -182 L281.8 -183.4 L280.5 -184.9 L279.4 -186.5 L278.4 -188.1 L277.5 -189.9 L276.8 -191.7 L276.2 -193.6 L275.8 -195.5 L275.5 -197.4 L275.4 -199.4 L275.4 -201.4 L275.6 -203.3 L275.9 -205.2 L276.4 -207.1 L277 -209 L277.8 -210.8 L278.8 -212.5 L279.8 -214.2 L281 -215.7 L282.3 -217.2 L283.7 -218.5 L285.3 -219.8 L286.9 -220.9 L288.6 -221.9 L290.4 -222.7 L292.2 -223.4 L294.1 -223.9 L296 -224.3 L297.9 -224.6 L299.9 -224.7 L301.8 -224.6 L303.8 -224.4 L305.7 -224 L307.6 -223.5 L309.4 -222.8 L311.2 -222 L312.9 -221 L314.6 -219.9 L316.1 -218.7 L317.5 -217.3 L318.9 -215.9 L320.1 -214.3 L321.1 -212.7 L322.1 -211 L322.9 -209.2 L323.5 -207.4 L324 -205.5 L324.4 -203.5 L324.6 -201.6 L324.7 -199.6 Z " />
<path stroke="rgb(0,0,0)" stroke-opacity="1" fill="rgb(255,255,255)" fill-opacity="1" d="M-1006 -774.4 L-1007 -775.7 L-1007 -777 L-1008 -778.2 L-1009 -779.5 L-1010 -780.8 L-1011 -782 L-1011 -783.3 L-1012 -784.5 L-1013 -785.8 L-1014 -787.1 L-1015 -788.3 L-1016 -789.6 L-1016 -790.9 L-1017 -792.1 L-1018 -793.4 L-1019 -794.7 L-1020 -795.9 L-1021 -797.2 L-1021 -798.5 L-1022 -799.7 L-1023 -801 L-1024 -802.3 L-1025 -803.5 L-1025 -804.8 L-1026 -806 L-1025 -806.9 L-1024 -807.7 L-1022 -808.5 L-1021 -809.3 L-1020 -810.2 L-1019 -811 L-1017 -811.8 L-1016 -812.6 L-1015 -813.4 L-1014 -814.3 L-1012 -815.1 L-1011 -815.9 L-1010 -816.7 L-1009 -817.5 L-1007 -818.4 L-1006 -819.2 L-1005 -820 L-1003 -820.8 L-1002 -821.6 L-1001 -822.5 L-999.7 -823.3 L-998.4 -824.1 L-997.1 -824.9 L-995.9 -825.7 L-994.6 -826.6 L-993.8 -825.3 L-993 -824 L-992.2 -822.8 L-991.3 -821.5 L-990.5 -820.2 L-989.7 -819 L-988.9 -817.7 L-988.1 -816.4 L-987.2 -815.2 L-986.4 -813.9 L-985.6 -812.6 L-984.8 -811.4 L-984 -810.1 L-983.1 -808.8 L-982.3 -807.6 L-981.5 -806.3 L-980.7 -805.1 L-979.9 -803.8 L-979 -802.5 L-978.2 -801.3 L-977.4 -800 L-976.6 -798.7 L-975.8 -797.5 L-974.9 -796.2 L-974.1 -794.9 L-975.4 -794.1 L-976.6 -793.3 L-977.9 -792.5 L-979.2 -791.7 L-980.4 -790.8 L-981.7 -790 L-983 -789.2 L-984.2 -788.4 L-985.5 -787.5 L-986.8 -786.7 L-988 -785.9 L-989.3 -785.1 L-990.6 -784.3 L-991.8 -783.4 L-993.1 -782.6 L-994.4 -781.8 L-995.6 -781 L-996.9 -780.2 L-998.1 -779.3 L-999.4 -778.5 L-1001 -777.7 L-1002 -776.9 L-1003 -776.1 L-1004 -775.2 L-1006 -774.4 Z " />
<path stroke="rgb(0,0,0)" stroke-opacity="0.968" fill="rgb(255,255,255)" fill-opacity="1" d="M-175.3 -99.63 L-175.5 -97.67 L-175.7 -95.73 L-176.1 -93.81 L-176.7 -91.94 L-177.4 -90.11 L-178.3 -88.35 L-179.3 -86.66 L-180.4 -85.06 L-181.6 -83.54 L-183 -82.14 L-184.5 -80.85 L-186.1 -79.67 L-187.7 -78.63 L-189.4 -77.72 L-191.3 -76.95 L-193.1 -76.33 L-195 -75.86 L-196.9 -75.54 L-198.9 -75.38 L-200.9 -75.37 L-202.8 -75.51 L-204.8 -75.82 L-206.7 -76.27 L-208.5 -76.88 L-210.3 -77.63 L-212.1 -78.52 L-213.8 -79.55 L-215.3 -80.7 L-216.8 -81.98 L-218.2 -83.38 L-219.5 -84.88 L-220.6 -86.47 L-221.6 -88.15 L-222.5 -89.9 L-223.2 -91.72 L-223.8 -93.59 L-224.2 -95.51 L-224.5 -97.45 L-224.6 -99.4 L-224.6 -101.4 L-224.4 -103.3 L-224.1 -105.2 L-223.6 -107.1 L-223 -109 L-222.2 -110.8 L-221.2 -112.5 L-220.2 -114.2 L-219 -115.7 L-217.7 -117.2 L-216.3 -118.5 L-214.7 -119.8 L-213.1 -120.9 L-211.4 -121.9 L-209.6 -122.7 L-207.8 -123.4 L-205.9 -123.9 L-204 -124.3 L-202.1 -124.6 L-200.1 -124.7 L-198.2 -124.6 L-196.2 -124.4 L-194.3 -124 L-192.4 -123.5 L-190.6 -122.8 L-188.8 -122 L-187.1 -121 L-185.4 -119.9 L-183.9 -118.7 L-182.5 -117.3 L-181.1 -115.9 L-179.9 -114.3 L-178.9 -112.7 L-177.9 -111 L-177.1 -109.2 L-176.5 -107.4 L-176 -105.5 L-175.6 -103.5 L-175.4 -101.6 L-175.3 -99.63 Z " />
<path stroke="rgb(0,0,0)" stroke-opacity="1" fill="rgb(255,255,255)" fill-opacity="1" d="M-791.4 -782.8 L-792.5 -783.1 L-793.5 -783.5 L-794.6 -783.8 L-795.6 -784.2 L-796.7 -784.5 L-797.8 -784.9 L-798.8 -785.2 L-799.9 -785.6 L-801 -785.9 L-802 -786.3 L-803.1 -786.6 L-804.1 -787 L-805.2 -787.3 L-806.3 -787.6 L-807.3 -788 L-808.4 -788.3 L-809.5 -788.7 L-810.5 -789 L-811.6 -789.4 L-812.6 -789.7 L-813.7 -790.1 L-814.8 -790.4 L-815.8 -790.8 L-816.9 -791.1 L-818 -791.5 L-817.6 -792.5 L-817.3 -793.6 L-816.9 -794.7 L-816.6 -795.7 L-816.2 -796.8 L-815.9 -797.8 L-815.5 -798.9 L-815.2 -800 L-814.8 -801 L-814.5 -802.1 L-814.1 -803.2 L-813.8 -804.2 L-813.4 -805.3 L-813.1 -806.3 L-812.7 -807.4 L-812.4 -808.5 L-812 -809.5 L-811.7 -810.6 L-811.3 -811.7 L-811 -812.7 L-810.6 -813.8 L-810.3 -814.8 L-809.9 -815.9 L-809.6 -817 L-809.3 -818 L-808.2 -817.7 L-807.1 -817.3 L-806.1 -817 L-805 -816.6 L-803.9 -816.3 L-802.9 -815.9 L-801.8 -815.6 L-800.8 -815.3 L-799.7 -814.9 L-798.6 -814.6 L-797.6 -814.2 L-796.5 -813.9 L-795.4 -813.5 L-794.4 -813.2 L-793.3 -812.8 L-792.3 -812.5 L-791.2 -812.1 L-790.1 -811.8 L-789.1 -811.4 L-788 -811.1 L-786.9 -810.7 L-785.9 -810.4 L-784.8 -810 L-783.8 -809.7 L-782.7 -809.3 L-783 -808.3 L-783.4 -807.2 L-783.7 -806.2 L-784.1 -805.1 L-784.4 -804 L-784.8 -803 L-785.1 -801.9 L-785.5 -800.8 L-785.8 -799.8 L-786.2 -798.7 L-786.5 -797.7 L-786.9 -796.6 L-787.2 -795.5 L-787.6 -794.5 L-787.9 -793.4 L-788.3 -792.3 L-788.6 -791.3 L-789 -790.2 L-789.3 -789.2 L-789.6 -788.1 L-790 -787 L-790.3 -786 L-790.7 -784.9 L-791 -783.8 L-791.4 -782.8 Z " />
<path stroke="rgb(0,0,0)" stroke-opacity="0.968" fill="rgb(255,255,255)" fill-opacity="1" d="M24.65 -99.63 L24.55 -97.67 L24.28 -95.73 L23.87 -93.81 L23.3 -91.94 L22.58 -90.11 L21.73 -88.35 L20.73 -86.66 L19.61 -85.06 L18.36 -83.54 L16.99 -82.14 L15.52 -80.85 L13.95 -79.67 L12.29 -78.63 L10.55 -77.72 L8.746 -76.95 L6.887 -76.33 L4.985 -75.86 L3.051 -75.54 L1.098 -75.38 L-0.8623 -75.37 L-2.817 -75.51 L-4.754 -75.82 L-6.661 -76.27 L-8.525 -76.88 L-10.34 -77.63 L-12.08 -78.52 L-13.75 -79.55 L-15.33 -80.7 L-16.82 -81.98 L-18.2 -83.38 L-19.46 -84.88 L-20.6 -86.47 L-21.61 -88.15 L-22.48 -89.9 L-23.21 -91.72 L-23.8 -93.59 L-24.23 -95.51 L-24.51 -97.45 L-24.64 -99.4 L-24.61 -101.4 L-24.42 -103.3 L-24.08 -105.2 L-23.59 -107.1 L-22.95 -109 L-22.16 -110.8 L-21.24 -112.5 L-20.18 -114.2 L-18.99 -115.7 L-17.68 -117.2 L-16.26 -118.5 L-14.74 -119.8 L-13.12 -120.9 L-11.42 -121.9 L-9.647 -122.7 L-7.814 -123.4 L-5.932 -123.9 L-4.012 -124.3 L-2.067 -124.6 L-0.1091 -124.7 L1.85 -124.6 L3.797 -124.4 L5.72 -124 L7.608 -123.5 L9.447 -122.8 L11.23 -122 L12.93 -121 L14.56 -119.9 L16.1 -118.7 L17.53 -117.3 L18.85 -115.9 L20.05 -114.3 L21.13 -112.7 L22.07 -111 L22.88 -109.2 L23.53 -107.4 L24.04 -105.5 L24.4 -103.5 L24.61 -101.6 L24.65 -99.63 Z " />
<path stroke="rgb(0,0,0)" stroke-opacity="1" fill="rgb(255,255,255)" fill-opacity="1" d="M-588.6 -787.3 L-589.6 -787.3 L-590.6 -787.4 L-591.6 -787.4 L-592.5 -787.5 L-593.5 -787.6 L-594.5 -787.6 L-595.5 -787.7 L-596.5 -787.7 L-597.5 -787.8 L-598.5 -787.8 L-599.5 -787.9 L-600.5 -787.9 L-601.5 -788 L-602.5 -788 L-603.5 -788.1 L-604.5 -788.1 L-605.5 -788.2 L-606.5 -788.2 L-607.5 -788.3 L-608.4 -788.3 L-609.4 -788.4 L-610.4 -788.4 L-611.4 -788.5 L-612.4 -788.5 L-613.4 -788.6 L-613.4 -789.6 L-613.3 -790.6 L-613.3 -791.6 L-613.2 -792.6 L-613.2 -793.6 L-613.1 -794.5 L-613.1 -795.5 L-613 -796.5 L-613 -797.5 L-612.9 -798.5 L-612.8 -799.5 L-612.8 -800.5 L-612.7 -801.5 L-612.7 -802.5 L-612.6 -803.5 L-612.6 -804.5 L-612.5 -805.5 L-612.5 -806.5 L-612.4 -807.5 L-612.4 -808.5 L-612.3 -809.5 L-612.3 -810.4 L-612.2 -811.4 L-612.2 -812.4 L-612.1 -813.4 L-611.1 -813.4 L-610.1 -813.3 L-609.1 -813.3 L-608.2 -813.2 L-607.2 -813.2 L-606.2 -813.1 L-605.2 -813.1 L-604.2 -813 L-603.2 -813 L-602.2 -812.9 L-601.2 -812.9 L-600.2 -812.8 L-599.2 -812.8 L-598.2 -812.7 L-597.2 -812.7 L-596.2 -812.6 L-595.2 -812.6 L-594.2 -812.5 L-593.2 -812.4 L-592.3 -812.4 L-591.3 -812.3 L-590.3 -812.3 L-589.3 -812.2 L-588.3 -812.2 L-587.3 -812.1 L-587.3 -811.1 L-587.4 -810.2 L-587.4 -809.2 L-587.5 -808.2 L-587.5 -807.2 L-587.6 -806.2 L-587.6 -805.2 L-587.7 -804.2 L-587.7 -803.2 L-587.8 -802.2 L-587.9 -801.2 L-587.9 -800.2 L-588 -799.2 L-588 -798.2 L-588.1 -797.2 L-588.1 -796.2 L-588.2 -795.2 L-588.2 -794.3 L-588.3 -793.3 L-588.3 -792.3 L-588.4 -791.3 L-588.4 -790.3 L-588.5 -789.3 L-588.5 -788.3 L-588.6 -787.3 Z " />
<path stroke="rgb(0,0,0)" stroke-opacity="0.968" fill="rgb(255,255,255)" fill-opacity="1" d="M224.7 -99.63 L224.5 -97.67 L224.3 -95.73 L223.9 -93.81 L223.3 -91.94 L222.6 -90.11 L221.7 -88.35 L220.7 -86.66 L219.6 -85.06 L218.4 -83.54 L217 -82.14 L215.5 -80.85 L213.9 -79.67 L212.3 -78.63 L210.6 -77.72 L208.7 -76.95 L206.9 -76.33 L205 -75.86 L203.1 -75.54 L201.1 -75.38 L199.1 -75.37 L197.2 -75.51 L195.2 -75.82 L193.3 -76.27 L191.5 -76.88 L189.7 -77.63 L187.9 -78.52 L186.2 -79.55 L184.7 -80.7 L183.2 -81.98 L181.8 -83.38 L180.5 -84.88 L179.4 -86.47 L178.4 -88.15 L177.5 -89.9 L176.8 -91.72 L176.2 -93.59 L175.8 -95.51 L175.5 -97.45 L175.4 -99.4 L175.4 -101.4 L175.6 -103.3 L175.9 -105.2 L176.4 -107.1 L177 -109 L177.8 -110.8 L178.8 -112.5 L179.8 -114.2 L181 -115.7 L182.3 -117.2 L183.7 -118.5 L185.3 -119.8 L186.9 -120.9 L188.6 -121.9 L190.4 -122.7 L192.2 -123.4 L194.1 -123.9 L196 -124.3 L197.9 -124.6 L199.9 -124.7 L201.8 -124.6 L203.8 -124.4 L205.7 -124 L207.6 -123.5 L209.4 -122.8 L211.2 -122 L212.9 -121 L214.6 -119.9 L216.1 -118.7 L217.5 -117.3 L218.9 -115.9 L220.1 -114.3 L221.1 -112.7 L222.1 -111 L222.9 -109.2 L223.5 -107.4 L224 -105.5 L224.4 -103.5 L224.6 -101.6 L224.7 -99.63 Z " />
<path stroke="rgb(0,0,0)" stroke-opacity="1" fill="rgb(255,255,255)" fill-opacity="1" d="M-388.3 -788 L-389.3 -788 L-390.3 -788 L-391.2 -788 L-392.2 -788 L-393.2 -788 L-394.2 -788 L-395.1 -788 L-396.1 -788.1 L-397.1 -788.1 L-398.1 -788.1 L-399.1 -788.1 L-400 -788.1 L-401 -788.1 L-402 -788.1 L-403 -788.2 L-403.9 -788.2 L-404.9 -788.2 L-405.9 -788.2 L-406.9 -788.2 L-407.9 -788.2 L-408.8 -788.2 L-409.8 -788.3 L-410.8 -788.3 L-411.8 -788.3 L-412.8 -788.3 L-412.7 -789.3 L-412.7 -790.3 L-412.7 -791.2 L-412.7 -792.2 L-412.7 -793.2 L-412.7 -794.2 L-412.7 -795.1 L-412.6 -796.1 L-412.6 -797.1 L-412.6 -798.1 L-412.6 -799.1 L-412.6 -800 L-412.6 -801 L-412.6 -802 L-412.5 -803 L-412.5 -804 L-412.5 -804.9 L-412.5 -805.9 L-412.5 -806.9 L-412.5 -807.9 L-412.5 -808.8 L-412.5 -809.8 L-412.4 -810.8 L-412.4 -811.8 L-412.4 -812.8 L-411.4 -812.7 L-410.5 -812.7 L-409.5 -812.7 L-408.5 -812.7 L-407.5 -812.7 L-406.5 -812.7 L-405.6 -812.7 L-404.6 -812.6 L-403.6 -812.6 L-402.6 -812.6 L-401.6 -812.6 L-400.7 -812.6 L-399.7 -812.6 L-398.7 -812.6 L-397.7 -812.6 L-396.8 -812.5 L-395.8 -812.5 L-394.8 -812.5 L-393.8 -812.5 L-392.8 -812.5 L-391.9 -812.5 L-390.9 -812.5 L-389.9 -812.4 L-388.9 -812.4 L-387.9 -812.4 L-388 -811.4 L-388 -810.5 L-388 -809.5 L-388 -808.5 L-388 -807.5 L-388 -806.5 L-388 -805.6 L-388.1 -804.6 L-388.1 -803.6 L-388.1 -802.6 L-388.1 -801.7 L-388.1 -800.7 L-388.1 -799.7 L-388.1 -798.7 L-388.2 -797.7 L-388.2 -796.8 L-388.2 -795.8 L-388.2 -794.8 L-388.2 -793.8 L-388.2 -792.8 L-388.2 -791.9 L-388.3 -790.9 L-388.3 -789.9 L-388.3 -788.9 L-388.3 -788 Z " />
<path stroke="rgb(0,0,0)" stroke-opacity="0.968" fill="rgb(255,255,255)" fill-opacity="1" d="M-275.3 0.372 L-275.5 2.329 L-275.7 4.272 L-276.1 6.187 L-276.7 8.063 L-277.4 9.889 L-278.3 11.65 L-279.3 13.34 L-280.4 14.94 L-281.6 16.46 L-283 17.86 L-284.5 19.15 L-286.1 20.33 L-287.7 21.37 L-289.4 22.28 L-291.3 23.05 L-293.1 23.67 L-295 24.14 L-296.9 24.46 L-298.9 24.62 L-300.9 24.63 L-302.8 24.49 L-304.8 24.18 L-306.7 23.73 L-308.5 23.12 L-310.3 22.37 L-312.1 21.48 L-313.8 20.45 L-315.3 19.3 L-316.8 18.02 L-318.2 16.62 L-319.5 15.12 L-320.6 13.53 L-321.6 11.85 L-322.5 10.1 L-323.2 8.277 L-323.8 6.406 L-324.2 4.495 L-324.5 2.555 L-324.6 0.5989 L-324.6 -1.361 L-324.4 -3.312 L-324.1 -5.243 L-323.6 -7.14 L-323 -8.992 L-322.2 -10.79 L-321.2 -12.52 L-320.2 -14.16 L-319 -15.72 L-317.7 -17.18 L-316.3 -18.53 L-314.7 -19.77 L-313.1 -20.87 L-311.4 -21.85 L-309.6 -22.69 L-307.8 -23.38 L-305.9 -23.93 L-304 -24.33 L-302.1 -24.57 L-300.1 -24.66 L-298.2 -24.59 L-296.2 -24.36 L-294.3 -23.98 L-292.4 -23.46 L-290.6 -22.78 L-288.8 -21.95 L-287.1 -20.99 L-285.4 -19.9 L-283.9 -18.68 L-282.5 -17.34 L-281.1 -15.9 L-279.9 -14.35 L-278.9 -12.71 L-277.9 -10.99 L-277.1 -9.203 L-276.5 -7.357 L-276 -5.464 L-275.6 -3.537 L-275.4 -1.588 L-275.3 0.372 Z " />
<path stroke="rgb(0,0,0)" stroke-opacity="1" fill="rgb(255,255,255)" fill-opacity="1" d="M-891.4 -682.8 L-892.5 -683.1 L-893.5 -683.5 L-894.6 -683.8 L-895.6 -684.2 L-896.7 -684.5 L-897.8 -684.9 L-898.8 -685.2 L-899.9 -685.6 L-901 -685.9 L-902 -686.3 L-903.1 -686.6 L-904.1 -687 L-905.2 -687.3 L-906.3 -687.6 L-907.3 -688 L-908.4 -688.3 L-909.5 -688.7 L-910.5 -689 L-911.6 -689.4 L-912.6 -689.7 L-913.7 -690.1 L-914.8 -690.4 L-915.8 -690.8 L-916.9 -691.1 L-918 -691.5 L-917.6 -692.5 L-917.3 -693.6 L-916.9 -694.7 L-916.6 -695.7 L-916.2 -696.8 L-915.9 -697.8 L-915.5 -698.9 L-915.2 -700 L-914.8 -701 L-914.5 -702.1 L-914.1 -703.2 L-913.8 -704.2 L-913.4 -705.3 L-913.1 -706.3 L-912.7 -707.4 L-912.4 -708.5 L-912 -709.5 L-911.7 -710.6 L-911.3 -711.7 L-911 -712.7 L-910.6 -713.8 L-910.3 -714.8 L-909.9 -715.9 L-909.6 -717 L-909.3 -718 L-908.2 -717.7 L-907.1 -717.3 L-906.1 -717 L-905 -716.6 L-903.9 -716.3 L-902.9 -715.9 L-901.8 -715.6 L-900.8 -715.3 L-899.7 -714.9 L-898.6 -714.6 L-897.6 -714.2 L-896.5 -713.9 L-895.4 -713.5 L-894.4 -713.2 L-893.3 -712.8 L-892.3 -712.5 L-891.2 -712.1 L-890.1 -711.8 L-889.1 -711.4 L-888 -711.1 L-886.9 -710.7 L-885.9 -710.4 L-884.8 -710 L-883.8 -709.7 L-882.7 -709.3 L-883 -708.3 L-883.4 -707.2 L-883.7 -706.2 L-884.1 -705.1 L-884.4 -704 L-884.8 -703 L-885.1 -701.9 L-885.5 -700.8 L-885.8 -699.8 L-886.2 -698.7 L-886.5 -697.7 L-886.9 -696.6 L-887.2 -695.5 L-887.6 -694.5 L-887.9 -693.4 L-888.3 -692.3 L-888.6 -691.3 L-889 -690.2 L-889.3 -689.2 L-889.6 -688.1 L-890 -687 L-890.3 -686 L-890.7 -684.9 L-891 -683.8 L-891.4 -682.8 Z " />
<path stroke="rgb(0,0,0)" stroke-opacity="0.968" fill="rgb(255,255,255)" fill-opacity="1" d="M-75.35 0.372 L-75.45 2.329 L-75.72 4.272 L-76.13 6.187 L-76.7 8.063 L-77.42 9.889 L-78.27 11.65 L-79.27 13.34 L-80.39 14.94 L-81.64 16.46 L-83.01 17.86 L-84.48 19.15 L-86.05 20.33 L-87.71 21.37 L-89.45 22.28 L-91.25 23.05 L-93.11 23.67 L-95.01 24.14 L-96.95 24.46 L-98.9 24.62 L-100.9 24.63 L-102.8 24.49 L-104.8 24.18 L-106.7 23.73 L-108.5 23.12 L-110.3 22.37 L-112.1 21.48 L-113.8 20.45 L-115.3 19.3 L-116.8 18.02 L-118.2 16.62 L-119.5 15.12 L-120.6 13.53 L-121.6 11.85 L-122.5 10.1 L-123.2 8.277 L-123.8 6.406 L-124.2 4.495 L-124.5 2.555 L-124.6 0.5989 L-124.6 -1.361 L-124.4 -3.312 L-124.1 -5.243 L-123.6 -7.14 L-123 -8.992 L-122.2 -10.79 L-121.2 -12.52 L-120.2 -14.16 L-119 -15.72 L-117.7 -17.18 L-116.3 -18.53 L-114.7 -19.77 L-113.1 -20.87 L-111.4 -21.85 L-109.6 -22.69 L-107.8 -23.38 L-105.9 -23.93 L-104 -24.33 L-102.1 -24.57 L-100.1 -24.66 L-98.15 -24.59 L-96.2 -24.36 L-94.28 -23.98 L-92.39 -23.46 L-90.55 -22.78 L-88.77 -21.95 L-87.07 -20.99 L-85.44 -19.9 L-83.9 -18.68 L-82.47 -17.34 L-81.15 -15.9 L-79.95 -14.35 L-78.87 -12.71 L-77.93 -10.99 L-77.12 -9.203 L-76.47 -7.357 L-75.96 -5.464 L-75.6 -3.537 L-75.39 -1.588 L-75.35 0.372 Z " />
<path stroke="rgb(0,0,0)" stroke-opacity="1" fill="rgb(255,255,255)" fill-opacity="1" d="M-688.6 -687.3 L-689.6 -687.3 L-690.6 -687.4 L-691.6 -687.4 L-692.5 -687.5 L-693.5 -687.6 L-694.5 -687.6 L-695.5 -687.7 L-696.5 -687.7 L-697.5 -687.8 L-698.5 -687.8 L-699.5 -687.9 L-700.5 -687.9 L-701.5 -688 L-702.5 -688 L-703.5 -688.1 L-704.5 -688.1 L-705.5 -688.2 L-706.5 -688.2 L-707.5 -688.3 L-708.4 -688.3 L-709.4 -688.4 L-710.4 -688.4 L-711.4 -688.5 L-712.4 -688.5 L-713.4 -688.6 L-713.4 -689.6 L-713.3 -690.6 L-713.3 -691.6 L-713.2 -692.6 L-713.2 -693.6 L-713.1 -694.5 L-713.1 -695.5 L-713 -696.5 L-713 -697.5 L-712.9 -698.5 L-712.8 -699.5 L-712.8 -700.5 L-712.7 -701.5 L-712.7 -702.5 L-712.6 -703.5 L-712.6 -704.5 L-712.5 -705.5 L-712.5 -706.5 L-712.4 -707.5 L-712.4 -708.5 L-712.3 -709.5 L-712.3 -710.4 L-712.2 -711.4 L-712.2 -712.4 L-712.1 -713.4 L-711.1 -713.4 L-710.1 -713.3 L-709.1 -713.3 L-708.2 -713.2 L-707.2 -713.2 L-706.2 -713.1 L-705.2 -713.1 L-704.2 -713 L-703.2 -713 L-702.2 -712.9 L-701.2 -712.9 L-700.2 -712.8 L-699.2 -712.8 L-698.2 -712.7 L-697.2 -712.7 L-696.2 -712.6 L-695.2 -712.6 L-694.2 -712.5 L-693.2 -712.4 L-692.3 -712.4 L-691.3 -712.3 L-690.3 -712.3 L-689.3 -712.2 L-688.3 -712.2 L-687.3 -712.1 L-687.3 -711.1 L-687.4 -710.2 L-687.4 -709.2 L-687.5 -708.2 L-687.5 -707.2 L-687.6 -706.2 L-687.6 -705.2 L-687.7 -704.2 L-687.7 -703.2 L-687.8 -702.2 L-687.9 -701.2 L-687.9 -700.2 L-688 -699.2 L-688 -698.2 L-688.1 -697.2 L-688.1 -696.2 L-688.2 -695.2 L-688.2 -694.3 L-688.3 -693.3 L-688.3 -692.3 L-688.4 -691.3 L-688.4 -690.3 L-688.5 -689.3 L-688.5 -688.3 L-688.6 -687.3 Z " />
<path stroke="rgb(0,0,0)" stroke-opacity="0.968" fill="rgb(255,255,255)" fill-opacity="1" d="M124.7 0.372 L124.5 2.329 L124.3 4.272 L123.9 6.187 L123.3 8.063 L122.6 9.889 L121.7 11.65 L120.7 13.34 L119.6 14.94 L118.4 16.46 L117 17.86 L115.5 19.15 L113.9 20.33 L112.3 21.37 L110.6 22.28 L108.7 23.05 L106.9 23.67 L105 24.14 L103.1 24.46 L101.1 24.62 L99.14 24.63 L97.18 24.49 L95.25 24.18 L93.34 23.73 L91.47 23.12 L89.66 22.37 L87.92 21.48 L86.25 20.45 L84.67 19.3 L83.18 18.02 L81.8 16.62 L80.54 15.12 L79.4 13.53 L78.39 11.85 L77.52 10.1 L76.79 8.277 L76.2 6.406 L75.77 4.495 L75.49 2.555 L75.36 0.5989 L75.39 -1.361 L75.58 -3.312 L75.92 -5.243 L76.41 -7.14 L77.05 -8.992 L77.84 -10.79 L78.76 -12.52 L79.82 -14.16 L81.01 -15.72 L82.32 -17.18 L83.74 -18.53 L85.26 -19.77 L86.88 -20.87 L88.58 -21.85 L90.35 -22.69 L92.19 -23.38 L94.07 -23.93 L95.99 -24.33 L97.93 -24.57 L99.89 -24.66 L101.8 -24.59 L103.8 -24.36 L105.7 -23.98 L107.6 -23.46 L109.4 -22.78 L111.2 -21.95 L112.9 -20.99 L114.6 -19.9 L116.1 -18.68 L117.5 -17.34 L118.9 -15.9 L120.1 -14.35 L121.1 -12.71 L122.1 -10.99 L122.9 -9.203 L123.5 -7.357 L124 -5.464 L124.4 -3.537 L124.6 -1.588 L124.7 0.372 Z " />
<path stroke="rgb(0,0,0)" stroke-opacity="1" fill="rgb(255,255,255)" fill-opacity="1" d="M-488.3 -688 L-489.3 -688 L-490.3 -688 L-491.2 -688 L-492.2 -688 L-493.2 -688 L-494.2 -688 L-495.1 -688 L-496.1 -688.1 L-497.1 -688.1 L-498.1 -688.1 L-499.1 -688.1 L-500 -688.1 L-501 -688.1 L-502 -688.1 L-503 -688.2 L-503.9 -688.2 L-504.9 -688.2 L-505.9 -688.2 L-506.9 -688.2 L-507.9 -688.2 L-508.8 -688.2 L-509.8 -688.3 L-510.8 -688.3 L-511.8 -688.3 L-512.8 -688.3 L-512.7 -689.3 L-512.7 -690.3 L-512.7 -691.2 L-512.7 -692.2 L-512.7 -693.2 L-512.7 -694.2 L-512.7 -695.1 L-512.6 -696.1 L-512.6 -697.1 L-512.6 -698.1 L-512.6 -699.1 L-512.6 -700 L-512.6 -701 L-512.6 -702 L-512.5 -703 L-512.5 -704 L-512.5 -704.9 L-512.5 -705.9 L-512.5 -706.9 L-512.5 -707.9 L-512.5 -708.8 L-512.5 -709.8 L-512.4 -710.8 L-512.4 -711.8 L-512.4 -712.8 L-511.4 -712.7 L-510.5 -712.7 L-509.5 -712.7 L-508.5 -712.7 L-507.5 -712.7 L-506.5 -712.7 L-505.6 -712.7 L-504.6 -712.6 L-503.6 -712.6 L-502.6 -712.6 L-501.6 -712.6 L-500.7 -712.6 L-499.7 -712.6 L-498.7 -712.6 L-497.7 -712.6 L-496.8 -712.5 L-495.8 -712.5 L-494.8 -712.5 L-493.8 -712.5 L-492.8 -712.5 L-491.9 -712.5 L-490.9 -712.5 L-489.9 -712.4 L-488.9 -712.4 L-487.9 -712.4 L-488 -711.4 L-488 -710.5 L-488 -709.5 L-488 -708.5 L-488 -707.5 L-488 -706.5 L-488 -705.6 L-488.1 -704.6 L-488.1 -703.6 L-488.1 -702.6 L-488.1 -701.7 L-488.1 -700.7 L-488.1 -699.7 L-488.1 -698.7 L-488.2 -697.7 L-488.2 -696.8 L-488.2 -695.8 L-488.2 -694.8 L-488.2 -693.8 L-488.2 -692.8 L-488.2 -691.9 L-488.3 -690.9 L-488.3 -689.9 L-488.3 -688.9 L-488.3 -688 Z " />
<path stroke="rgb(0,0,0)" stroke-opacity="0.968" fill="rgb(255,255,255)" fill-opacity="1" d="M324.7 0.372 L324.5 2.329 L324.3 4.272 L323.9 6.187 L323.3 8.063 L322.6 9.889 L321.7 11.65 L320.7 13.34 L319.6 14.94 L318.4 16.46 L317 17.86 L315.5 19.15 L313.9 20.33 L312.3 21.37 L310.6 22.28 L308.7 23.05 L306.9 23.67 L305 24.14 L303.1 24.46 L301.1 24.62 L299.1 24.63 L297.2 24.49 L295.2 24.18 L293.3 23.73 L291.5 23.12 L289.7 22.37 L287.9 21.48 L286.2 20.45 L284.7 19.3 L283.2 18.02 L281.8 16.62 L280.5 15.12 L279.4 13.53 L278.4 11.85 L277.5 10.1 L276.8 8.277 L276.2 6.406 L275.8 4.495 L275.5 2.555 L275.4 0.5989 L275.4 -1.361 L275.6 -3.312 L275.9 -5.243 L276.4 -7.14 L277 -8.992 L277.8 -10.79 L278.8 -12.52 L279.8 -14.16 L281 -15.72 L282.3 -17.18 L283.7 -18.53 L285.3 -19.77 L286.9 -20.87 L288.6 -21.85 L290.4 -22.69 L292.2 -23.38 L294.1 -23.93 L296 -24.33 L297.9 -24.57 L299.9 -24.66 L301.8 -24.59 L303.8 -24.36 L305.7 -23.98 L307.6 -23.46 L309.4 -22.78 L311.2 -21.95 L312.9 -20.99 L314.6 -19.9 L316.1 -18.68 L317.5 -17.34 L318.9 -15.9 L320.1 -14.35 L321.1 -12.71 L322.1 -10.99 L322.9 -9.203 L323.5 -7.357 L324 -5.464 L324.4 -3.537 L324.6 -1.588 L324.7 0.372 Z " />
<path stroke="rgb(0,0,0)" stroke-opacity="1" fill="rgb(255,255,255)" fill-opacity="1" d="M-991.4 -582.8 L-992.5 -583.1 L-993.5 -583.5 L-994.6 -583.8 L-995.6 -584.2 L-996.7 -584.5 L-997.8 -584.9 L-998.8 -585.2 L-999.9 -585.6 L-1001 -585.9 L-1002 -586.3 L-1003 -586.6 L-1004 -587 L-1005 -587.3 L-1006 -587.6 L-1007 -588 L-1008 -588.3 L-1009 -588.7 L-1011 -589 L-1012 -589.4 L-1013 -589.7 L-1014 -590.1 L-1015 -590.4 L-1016 -590.8 L-1017 -591.1 L-1018 -591.5 L-1018 -592.5 L-1017 -593.6 L-1017 -594.7 L-1017 -595.7 L-1016 -596.8 L-1016 -597.8 L-1016 -598.9 L-1015 -600 L-1015 -601 L-1014 -602.1 L-1014 -603.2 L-1014 -604.2 L-1013 -605.3 L-1013 -606.3 L-1013 -607.4 L-1012 -608.5 L-1012 -609.5 L-1012 -610.6 L-1011 -611.7 L-1011 -612.7 L-1011 -613.8 L-1010 -614.8 L-1010 -615.9 L-1010 -617 L-1009 -618 L-1008 -617.7 L-1007 -617.3 L-1006 -617 L-1005 -616.6 L-1004 -616.3 L-1003 -615.9 L-1002 -615.6 L-1001 -615.3 L-999.7 -614.9 L-998.6 -614.6 L-997.6 -614.2 L-996.5 -613.9 L-995.4 -613.5 L-994.4 -613.2 L-993.3 -612.8 L-992.3 -612.5 L-991.2 -612.1 L-990.1 -611.8 L-989.1 -611.4 L-988 -611.1 L-986.9 -610.7 L-985.9 -610.4 L-984.8 -610 L-983.8 -609.7 L-982.7 -609.3 L-983 -608.3 L-983.4 -607.2 L-983.7 -606.2 L-984.1 -605.1 L-984.4 -604 L-984.8 -603 L-985.1 -601.9 L-985.5 -600.8 L-985.8 -599.8 L-986.2 -598.7 L-986.5 -597.7 L-986.9 -596.6 L-987.2 -595.5 L-987.6 -594.5 L-987.9 -593.4 L-988.3 -592.3 L-988.6 -591.3 L-989 -590.2 L-989.3 -589.2 L-989.6 -588.1 L-990 -587 L-990.3 -586 L-990.7 -584.9 L-991 -583.8 L-991.4 -582.8 Z " />
<path stroke="rgb(0,0,0)" stroke-opacity="0.968" fill="rgb(255,255,255)" fill-opacity="1" d="M-175.3 100.4 L-175.5 102.3 L-175.7 104.3 L-176.1 106.2 L-176.7 108.1 L-177.4 109.9 L-178.3 111.7 L-179.3 113.3 L-180.4 114.9 L-181.6 116.5 L-183 117.9 L-184.5 119.2 L-186.1 120.3 L-187.7 121.4 L-189.4 122.3 L-191.3 123 L-193.1 123.7 L-195 124.1 L-196.9 124.5 L-198.9 124.6 L-200.9 124.6 L-202.8 124.5 L-204.8 124.2 L-206.7 123.7 L-208.5 123.1 L-210.3 122.4 L-212.1 121.5 L-213.8 120.5 L-215.3 119.3 L-216.8 118 L-218.2 116.6 L-219.5 115.1 L-220.6 113.5 L-221.6 111.9 L-222.5 110.1 L-223.2 108.3 L-223.8 106.4 L-224.2 104.5 L-224.5 102.6 L-224.6 100.6 L-224.6 98.64 L-224.4 96.69 L-224.1 94.76 L-223.6 92.86 L-223 91.01 L-222.2 89.21 L-221.2 87.48 L-220.2 85.84 L-219 84.28 L-217.7 82.82 L-216.3 81.47 L-214.7 80.23 L-213.1 79.13 L-211.4 78.15 L-209.6 77.31 L-207.8 76.62 L-205.9 76.07 L-204 75.67 L-202.1 75.43 L-200.1 75.34 L-198.2 75.41 L-196.2 75.64 L-194.3 76.02 L-192.4 76.54 L-190.6 77.22 L-188.8 78.05 L-187.1 79.01 L-185.4 80.1 L-183.9 81.32 L-182.5 82.66 L-181.1 84.1 L-179.9 85.65 L-178.9 87.29 L-177.9 89.01 L-177.1 90.8 L-176.5 92.64 L-176 94.54 L-175.6 96.46 L-175.4 98.41 L-175.3 100.4 Z " />
<path stroke="rgb(0,0,0)" stroke-opacity="1" fill="rgb(255,255,255)" fill-opacity="1" d="M-788.6 -587.3 L-789.6 -587.3 L-790.6 -587.4 L-791.6 -587.4 L-792.5 -587.5 L-793.5 -587.6 L-794.5 -587.6 L-795.5 -587.7 L-796.5 -587.7 L-797.5 -587.8 L-798.5 -587.8 L-799.5 -587.9 L-800.5 -587.9 L-801.5 -588 L-802.5 -588 L-803.5 -588.1 L-804.5 -588.1 L-805.5 -588.2 L-806.5 -588.2 L-807.5 -588.3 L-808.4 -588.3 L-809.4 -588.4 L-810.4 -588.4 L-811.4 -588.5 L-812.4 -588.5 L-813.4 -588.6 L-813.4 -589.6 L-813.3 -590.6 L-813.3 -591.6 L-813.2 -592.6 L-813.2 -593.6 L-813.1 -594.5 L-813.1 -595.5 L-813 -596.5 L-813 -597.5 L-812.9 -598.5 L-812.8 -599.5 L-812.8 -600.5 L-812.7 -601.5 L-812.7 -602.5 L-812.6 -603.5 L-812.6 -604.5 L-812.5 -605.5 L-812.5 -606.5 L-812.4 -607.5 L-812.4 -608.5 L-812.3 -609.5 L-812.3 -610.4 L-812.2 -611.4 L-812.2 -612.4 L-812.1 -613.4 L-811.1 -613.4 L-810.1 -613.3 L-809.1 -613.3 L-808.2 -613.2 L-807.2 -613.2 L-806.2 -613.1 L-805.2 -613.1 L-804.2 -613 L-803.2 -613 L-802.2 -612.9 L-801.2 -612.9 L-800.2 -612.8 L-799.2 -612.8 L-798.2 -612.7 L-797.2 -612.7 L-796.2 -612.6 L-795.2 -612.6 L-794.2 -612.5 L-793.2 -612.4 L-792.3 -612.4 L-791.3 -612.3 L-790.3 -612.3 L-789.3 -612.2 L-788.3 -612.2 L-787.3 -612.1 L-787.3 -611.1 L-787.4 -610.2 L-787.4 -609.2 L-787.5 -608.2 L-787.5 -607.2 L-787.6 -606.2 L-787.6 -605.2 L-787.7 -604.2 L-787.7 -603.2 L-787.8 -602.2 L-787.9 -601.2 L-787.9 -600.2 L-788 -599.2 L-788 -598.2 L-788.1 -597.2 L-788.1 -596.2 L-788.2 -595.2 L-788.2 -594.3 L-788.3 -593.3 L-788.3 -592.3 L-788.4 -591.3 L-788.4 -590.3 L-788.5 -589.3 L-788.5 -588.3 L-788.6 -587.3 Z " />
<path stroke="rgb(0,0,0)" stroke-opacity="0.968" fill="rgb(255,255,255)" fill-opacity="1" d="M24.65 100.4 L24.55 102.3 L24.28 104.3 L23.87 106.2 L23.3 108.1 L22.58 109.9 L21.73 111.7 L20.73 113.3 L19.61 114.9 L18.36 116.5 L16.99 117.9 L15.52 119.2 L13.95 120.3 L12.29 121.4 L10.55 122.3 L8.746 123 L6.887 123.7 L4.985 124.1 L3.051 124.5 L1.098 124.6 L-0.8623 124.6 L-2.817 124.5 L-4.754 124.2 L-6.661 123.7 L-8.525 123.1 L-10.34 122.4 L-12.08 121.5 L-13.75 120.5 L-15.33 119.3 L-16.82 118 L-18.2 116.6 L-19.46 115.1 L-20.6 113.5 L-21.61 111.9 L-22.48 110.1 L-23.21 108.3 L-23.8 106.4 L-24.23 104.5 L-24.51 102.6 L-24.64 100.6 L-24.61 98.64 L-24.42 96.69 L-24.08 94.76 L-23.59 92.86 L-22.95 91.01 L-22.16 89.21 L-21.24 87.48 L-20.18 85.84 L-18.99 84.28 L-17.68 82.82 L-16.26 81.47 L-14.74 80.23 L-13.12 79.13 L-11.42 78.15 L-9.647 77.31 L-7.814 76.62 L-5.932 76.07 L-4.012 75.67 L-2.067 75.43 L-0.1091 75.34 L1.85 75.41 L3.797 75.64 L5.72 76.02 L7.608 76.54 L9.447 77.22 L11.23 78.05 L12.93 79.01 L14.56 80.1 L16.1 81.32 L17.53 82.66 L18.85 84.1 L20.05 85.65 L21.13 87.29 L22.07 89.01 L22.88 90.8 L23.53 92.64 L24.04 94.54 L24.4 96.46 L24.61 98.41 L24.65 100.4 Z " />
<path stroke="rgb(0,0,0)" stroke-opacity="1" fill="rgb(255,255,255)" fill-opacity="1" d="M-588.3 -588 L-589.3 -588 L-590.3 -588 L-591.2 -588 L-592.2 -588 L-593.2 -588 L-594.2 -588 L-595.1 -588 L-596.1 -588.1 L-597.1 -588.1 L-598.1 -588.1 L-599.1 -588.1 L-600 -588.1 L-601 -588.1 L-602 -588.1 L-603 -588.2 L-603.9 -588.2 L-604.9 -588.2 L-605.9 -588.2 L-606.9 -588.2 L-607.9 -588.2 L-608.8 -588.2 L-609.8 -588.3 L-610.8 -588.3 L-611.8 -588.3 L-612.8 -588.3 L-612.7 -589.3 L-612.7 -590.3 L-612.7 -591.2 L-612.7 -592.2 L-612.7 -593.2 L-612.7 -594.2 L-612.7 -595.1 L-612.6 -596.1 L-612.6 -597.1 L-612.6 -598.1 L-612.6 -599.1 L-612.6 -600 L-612.6 -601 L-612.6 -602 L-612.5 -603 L-612.5 -604 L-612.5 -604.9 L-612.5 -605.9 L-612.5 -606.9 L-612.5 -607.9 L-612.5 -608.8 L-612.5 -609.8 L-612.4 -610.8 L-612.4 -611.8 L-612.4 -612.8 L-611.4 -612.7 L-610.5 -612.7 L-609.5 -612.7 L-608.5 -612.7 L-607.5 -612.7 L-606.5 -612.7 L-605.6 -612.7 L-604.6 -612.6 L-603.6 -612.6 L-602.6 -612.6 L-601.6 -612.6 L-600.7 -612.6 L-599.7 -612.6 L-598.7 -612.6 L-597.7 -612.6 L-596.8 -612.5 L-595.8 -612.5 L-594.8 -612.5 L-593.8 -612.5 L-592.8 -612.5 L-591.9 -612.5 L-590.9 -612.5 L-589.9 -612.4 L-588.9 -612.4 L-587.9 -612.4 L-588 -611.4 L-588 -610.5 L-588 -609.5 L-588 -608.5 L-588 -607.5 L-588 -606.5 L-588 -605.6 L-588.1 -604.6 L-588.1 -603.6 L-588.1 -602.6 L-588.1 -601.7 L-588.1 -600.7 L-588.1 -599.7 L-588.1 -598.7 L-588.2 -597.7 L-588.2 -596.8 L-588.2 -595.8 L-588.2 -594.8 L-588.2 -593.8 L-588.2 -592.8 L-588.2 -591.9 L-588.3 -590.9 L-588.3 -589.9 L-588.3 -588.9 L-588.3 -588 Z " />
<path stroke="rgb(0,0,0)" stroke-opacity="0.968" fill="rgb(255,255,255)" fill-opacity="1" d="M224.7 100.4 L224.5 102.3 L224.3 104.3 L223.9 106.2 L223.3 108.1 L222.6 109.9 L221.7 111.7 L220.7 113.3 L219.6 114.9 L218.4 116.5 L217 117.9 L215.5 119.2 L213.9 120.3 L212.3 121.4 L210.6 122.3 L208.7 123 L206.9 123.7 L205 124.1 L203.1 124.5 L201.1 124.6 L199.1 124.6 L197.2 124.5 L195.2 124.2 L193.3 123.7 L191.5 123.1 L189.7 122.4 L187.9 121.5 L186.2 120.5 L184.7 119.3 L183.2 118 L181.8 116.6 L180.5 115.1 L179.4 113.5 L178.4 111.9 L177.5 110.1 L176.8 108.3 L176.2 106.4 L175.8 104.5 L175.5 102.6 L175.4 100.6 L175.4 98.64 L175.6 96.69 L175.9 94.76 L176.4 92.86 L177 91.01 L177.8 89.21 L178.8 87.48 L179.8 85.84 L181 84.28 L182.3 82.82 L183.7 81.47 L185.3 80.23 L186.9 79.13 L188.6 78.15 L190.4 77.31 L192.2 76.62 L194.1 76.07 L196 75.67 L197.9 75.43 L199.9 75.34 L201.8 75.41 L203.8 75.64 L205.7 76.02 L207.6 76.54 L209.4 77.22 L211.2 78.05 L212.9 79.01 L214.6 80.1 L216.1 81.32 L217.5 82.66 L218.9 84.1 L220.1 85.65 L221.1 87.29 L222.1 89.01 L222.9 90.8 L223.5 92.64 L224 94.54 L224.4 96.46 L224.6 98.41 L224.7 100.4 Z " />
<path stroke="rgb(0,0,0)" stroke-opacity="1" fill="rgb(255,255,255)" fill-opacity="1" d="M-388.3 -588 L-389.3 -588 L-390.3 -588 L-391.2 -588 L-392.2 -588 L-393.2 -588 L-394.2 -588 L-395.1 -588 L-396.1 -588.1 L-397.1 -588.1 L-398.1 -588.1 L-399.1 -588.1 L-400 -588.1 L-401 -588.1 L-402 -588.1 L-403 -588.2 L-403.9 -588.2 L-404.9 -588.2 L-405.9 -588.2 L-406.9 -588.2 L-407.9 -588.2 L-408.8 -588.2 L-409.8 -588.3 L-410.8 -588.3 L-411.8 -588.3 L-412.8 -588.3 L-412.7 -589.3 L-412.7 -590.3 L-412.7 -591.2 L-412.7 -592.2 L-412.7 -593.2 L-412.7 -594.2 L-412.7 -595.1 L-412.6 -596.1 L-412.6 -597.1 L-412.6 -598.1 L-412.6 -599.1 L-412.6 -600 L-412.6 -601 L-412.6 -602 L-412.5 -603 L-412.5 -604 L-412.5 -604.9 L-412.5 -605.9 L-412.5 -606.9 L-412.5 -607.9 L-412.5 -608.8 L-412.5 -609.8 L-412.4 -610.8 L-412.4 -611.8 L-412.4 -612.8 L-411.4 -612.7 L-410.5 -612.7 L-409.5 -612.7 L-408.5 -612.7 L-407.5 -612.7 L-406.5 -612.7 L-405.6 -612.7 L-404.6 -612.6 L-403.6 -612.6 L-402.6 -612.6 L-401.6 -612.6 L-400.7 -612.6 L-399.7 -612.6 L-398.7 -612.6 L-397.7 -612.6 L-396.8 -612.5 L-395.8 -612.5 L-394.8 -612.5 L-393.8 -612.5 L-392.8 -612.5 L-391.9 -612.5 L-390.9 -612.5 L-389.9 -612.4 L-388.9 -612.4 L-387.9 -612.4 L-388 -611.4 L-388 -610.5 L-388 -609.5 L-388 -608.5 L-388 -607.5 L-388 -606.5 L-388 -605.6 L-388.1 -604.6 L-388.1 -603.6 L-388.1 -602.6 L-388.1 -601.7 L-388.1 -600.7 L-388.1 -599.7 L-388.1 -598.7 L-388.2 -597.7 L-388.2 -596.8 L-388.2 -595.8 L-388.2 -594.8 L-388.2 -593.8 L-388.2 -592.8 L-388.2 -591.9 L-388.3 -590.9 L-388.3 -589.9 L-388.3 -588.9 L-388.3 -588 Z " />
<path stroke="rgb(0,0,0)" stroke-opacity="0.968" fill="rgb(255,255,255)" fill-opacity="1" d="M-275.3 200.4 L-275.5 202.3 L-275.7 204.3 L-276.1 206.2 L-276.7 208.1 L-277.4 209.9 L-278.3 211.7 L-279.3 213.3 L-280.4 214.9 L-281.6 216.5 L-283 217.9 L-284.5 219.2 L-286.1 220.3 L-287.7 221.4 L-289.4 222.3 L-291.3 223 L-293.1 223.7 L-295 224.1 L-296.9 224.5 L-298.9 224.6 L-300.9 224.6 L-302.8 224.5 L-304.8 224.2 L-306.7 223.7 L-308.5 223.1 L-310.3 222.4 L-312.1 221.5 L-313.8 220.5 L-315.3 219.3 L-316.8 218 L-318.2 216.6 L-319.5 215.1 L-320.6 213.5 L-321.6 211.9 L-322.5 210.1 L-323.2 208.3 L-323.8 206.4 L-324.2 204.5 L-324.5 202.6 L-324.6 200.6 L-324.6 198.6 L-324.4 196.7 L-324.1 194.8 L-323.6 192.9 L-323 191 L-322.2 189.2 L-321.2 187.5 L-320.2 185.8 L-319 184.3 L-317.7 182.8 L-316.3 181.5 L-314.7 180.2 L-313.1 179.1 L-311.4 178.1 L-309.6 177.3 L-307.8 176.6 L-305.9 176.1 L-304 175.7 L-302.1 175.4 L-300.1 175.3 L-298.2 175.4 L-296.2 175.6 L-294.3 176 L-292.4 176.5 L-290.6 177.2 L-288.8 178 L-287.1 179 L-285.4 180.1 L-283.9 181.3 L-282.5 182.7 L-281.1 184.1 L-279.9 185.7 L-278.9 187.3 L-277.9 189 L-277.1 190.8 L-276.5 192.6 L-276 194.5 L-275.6 196.5 L-275.4 198.4 L-275.3 200.4 Z " />
<path stroke="rgb(0,0,0)" stroke-opacity="1" fill="rgb(255,255,255)" fill-opacity="1" d="M-888.6 -487.3 L-889.6 -487.3 L-890.6 -487.4 L-891.6 -487.4 L-892.5 -487.5 L-893.5 -487.6 L-894.5 -487.6 L-895.5 -487.7 L-896.5 -487.7 L-897.5 -487.8 L-898.5 -487.8 L-899.5 -487.9 L-900.5 -487.9 L-901.5 -488 L-902.5 -488 L-903.5 -488.1 L-904.5 -488.1 L-905.5 -488.2 L-906.5 -488.2 L-907.5 -488.3 L-908.4 -488.3 L-909.4 -488.4 L-910.4 -488.4 L-911.4 -488.5 L-912.4 -488.5 L-913.4 -488.6 L-913.4 -489.6 L-913.3 -490.6 L-913.3 -491.6 L-913.2 -492.6 L-913.2 -493.6 L-913.1 -494.5 L-913.1 -495.5 L-913 -496.5 L-913 -497.5 L-912.9 -498.5 L-912.8 -499.5 L-912.8 -500.5 L-912.7 -501.5 L-912.7 -502.5 L-912.6 -503.5 L-912.6 -504.5 L-912.5 -505.5 L-912.5 -506.5 L-912.4 -507.5 L-912.4 -508.5 L-912.3 -509.5 L-912.3 -510.4 L-912.2 -511.4 L-912.2 -512.4 L-912.1 -513.4 L-911.1 -513.4 L-910.1 -513.3 L-909.1 -513.3 L-908.2 -513.2 L-907.2 -513.2 L-906.2 -513.1 L-905.2 -513.1 L-904.2 -513 L-903.2 -513 L-902.2 -512.9 L-901.2 -512.9 L-900.2 -512.8 L-899.2 -512.8 L-898.2 -512.7 L-897.2 -512.7 L-896.2 -512.6 L-895.2 -512.6 L-894.2 -512.5 L-893.2 -512.4 L-892.3 -512.4 L-891.3 -512.3 L-890.3 -512.3 L-889.3 -512.2 L-888.3 -512.2 L-887.3 -512.1 L-887.3 -511.1 L-887.4 -510.2 L-887.4 -509.2 L-887.5 -508.2 L-887.5 -507.2 L-887.6 -506.2 L-887.6 -505.2 L-887.7 -504.2 L-887.7 -503.2 L-887.8 -502.2 L-887.9 -501.2 L-887.9 -500.2 L-888 -499.2 L-888 -498.2 L-888.1 -497.2 L-888.1 -496.2 L-888.2 -495.2 L-888.2 -494.3 L-888.3 -493.3 L-888.3 -492.3 L-888.4 -491.3 L-888.4 -490.3 L-888.5 -489.3 L-888.5 -488.3 L-888.6 -487.3 Z " />
<path stroke="rgb(0,0,0)" stroke-opacity="0.968" fill="rgb(255,255,255)" fill-opacity="1" d="M-75.35 200.4 L-75.45 202.3 L-75.72 204.3 L-76.13 206.2 L-76.7 208.1 L-77.42 209.9 L-78.27 211.7 L-79.27 213.3 L-80.39 214.9 L-81.64 216.5 L-83.01 217.9 L-84.48 219.2 L-86.05 220.3 L-87.71 221.4 L-89.45 222.3 L-91.25 223 L-93.11 223.7 L-95.01 224.1 L-96.95 224.5 L-98.9 224.6 L-100.9 224.6 L-102.8 224.5 L-104.8 224.2 L-106.7 223.7 L-108.5 223.1 L-110.3 222.4 L-112.1 221.5 L-113.8 220.5 L-115.3 219.3 L-116.8 218 L-118.2 216.6 L-119.5 215.1 L-120.6 213.5 L-121.6 211.9 L-122.5 210.1 L-123.2 208.3 L-123.8 206.4 L-124.2 204.5 L-124.5 202.6 L-124.6 200.6 L-124.6 198.6 L-124.4 196.7 L-124.1 194.8 L-123.6 192.9 L-123 191 L-122.2 189.2 L-121.2 187.5 L-120.2 185.8 L-119 184.3 L-117.7 182.8 L-116.3 181.5 L-114.7 180.2 L-113.1 179.1 L-111.4 178.1 L-109.6 177.3 L-107.8 176.6 L-105.9 176.1 L-104 175.7 L-102.1 175.4 L-100.1 175.3 L-98.15 175.4 L-96.2 175.6 L-94.28 176 L-92.39 176.5 L-90.55 177.2 L-88.77 178 L-87.07 179 L-85.44 180.1 L-83.9 181.3 L-82.47 182.7 L-81.15 184.1 L-79.95 185.7 L-78.87 187.3 L-77.93 189 L-77.12 190.8 L-76.47 192.6 L-75.96 194.5 L-75.6 196.5 L-75.39 198.4 L-75.35 200.4 Z " />
<path stroke="rgb(0,0,0)" stroke-opacity="1" fill="rgb(255,255,255)" fill-opacity="1" d="M-688.3 -488 L-689.3 -488 L-690.3 -488 L-691.2 -488 L-692.2 -488 L-693.2 -488 L-694.2 -488 L-695.1 -488 L-696.1 -488.1 L-697.1 -488.1 L-698.1 -488.1 L-699.1 -488.1 L-700 -488.1 L-701 -488.1 L-702 -488.1 L-703 -488.2 L-703.9 -488.2 L-704.9 -488.2 L-705.9 -488.2 L-706.9 -488.2 L-707.9 -488.2 L-708.8 -488.2 L-709.8 -488.3 L-710.8 -488.3 L-711.8 -488.3 L-712.8 -488.3 L-712.7 -489.3 L-712.7 -490.3 L-712.7 -491.2 L-712.7 -492.2 L-712.7 -493.2 L-712.7 -494.2 L-712.7 -495.1 L-712.6 -496.1 L-712.6 -497.1 L-712.6 -498.1 L-712.6 -499.1 L-712.6 -500 L-712.6 -501 L-712.6 -502 L-712.5 -503 L-712.5 -504 L-712.5 -504.9 L-712.5 -505.9 L-712.5 -506.9 L-712.5 -507.9 L-712.5 -508.8 L-712.5 -509.8 L-712.4 -510.8 L-712.4 -511.8 L-712.4 -512.8 L-711.4 -512.7 L-710.5 -512.7 L-709.5 -512.7 L-708.5 -512.7 L-707.5 -512.7 L-706.5 -512.7 L-705.6 -512.7 L-704.6 -512.6 L-703.6 -512.6 L-702.6 -512.6 L-701.6 -512.6 L-700.7 -512.6 L-699.7 -512.6 L-698.7 -512.6 L-697.7 -512.6 L-696.8 -512.5 L-695.8 -512.5 L-694.8 -512.5 L-693.8 -512.5 L-692.8 -512.5 L-691.9 -512.5 L-690.9 -512.5 L-689.9 -512.4 L-688.9 -512.4 L-687.9 -512.4 L-688 -511.4 L-688 -510.5 L-688 -509.5 L-688 -508.5 L-688 -507.5 L-688 -506.5 L-688 -505.6 L-688.1 -504.6 L-688.1 -503.6 L-688.1 -502.6 L-688.1 -501.7 L-688.1 -500.7 L-688.1 -499.7 L-688.1 -498.7 L-688.2 -497.7 L-688.2 -496.8 L-688.2 -495.8 L-688.2 -494.8 L-688.2 -493.8 L-688.2 -492.8 L-688.2 -491.9 L-688.3 -490.9 L-688.3 -489.9 L-688.3 -488.9 L-688.3 -488 Z " />
<path stroke="rgb(0,0,0)" stroke-opacity="0.968" fill="rgb(255,255,255)" fill-opacity="1" d="M124.7 200.4 L124.5 202.3 L124.3 204.3 L123.9 206.2 L123.3 208.1 L122.6 209.9 L121.7 211.7 L120.7 213.3 L119.6 214.9 L118.4 216.5 L117 217.9 L115.5 219.2 L113.9 220.3 L112.3 221.4 L110.6 222.3 L108.7 223 L106.9 223.7 L105 224.1 L103.1 224.5 L101.1 224.6 L99.14 224.6 L97.18 224.5 L95.25 224.2 L93.34 223.7 L91.47 223.1 L89.66 222.4 L87.92 221.5 L86.25 220.5 L84.67 219.3 L83.18 218 L81.8 216.6 L80.54 215.1 L79.4 213.5 L78.39 211.9 L77.52 210.1 L76.79 208.3 L76.2 206.4 L75.77 204.5 L75.49 202.6 L75.36 200.6 L75.39 198.6 L75.58 196.7 L75.92 194.8 L76.41 192.9 L77.05 191 L77.84 189.2 L78.76 187.5 L79.82 185.8 L81.01 184.3 L82.32 182.8 L83.74 181.5 L85.26 180.2 L86.88 179.1 L88.58 178.1 L90.35 177.3 L92.19 176.6 L94.07 176.1 L95.99 175.7 L97.93 175.4 L99.89 175.3 L101.8 175.4 L103.8 175.6 L105.7 176 L107.6 176.5 L109.4 177.2 L111.2 178 L112.9 179 L114.6 180.1 L116.1 181.3 L117.5 182.7 L118.9 184.1 L120.1 185.7 L121.1 187.3 L122.1 189 L122.9 190.8 L123.5 192.6 L124 194.5 L124.4 196.5 L124.6 198.4 L124.7 200.4 Z " />
<path stroke="rgb(0,0,0)" stroke-opacity="1" fill="rgb(255,255,255)" fill-opacity="1" d="M-488.3 -488 L-489.3 -488 L-490.3 -488 L-491.2 -488 L-492.2 -488 L-493.2 -488 L-494.2 -488 L-495.1 -488 L-496.1 -488.1 L-497.1 -488.1 L-498.1 -488.1 L-499.1 -488.1 L-500 -488.1 L-501 -488.1 L-502 -488.1 L-503 -488.2 L-503.9 -488.2 L-504.9 -488.2 L-505.9 -488.2 L-506.9 -488.2 L-507.9 -488.2 L-508.8 -488.2 L-509.8 -488.3 L-510.8 -488.3 L-511.8 -488.3 L-512.8 -488.3 L-512.7 -489.3 L-512.7 -490.3 L-512.7 -491.2 L-512.7 -492.2 L-512.7 -493.2 L-512.7 -494.2 L-512.7 -495.1 L-512.6 -496.1 L-512.6 -497.1 L-512.6 -498.1 L-512.6 -499.1 L-512.6 -500 L-512.6 -501 L-512.6 -502 L-512.5 -503 L-512.5 -504 L-512.5 -504.9 L-512.5 -505.9 L-512.5 -506.9 L-512.5 -507.9 L-512.5 -508.8 L-512.5 -509.8 L-512.4 -510.8 L-512.4 -511.8 L-512.4 -512.8 L-511.4 -512.7 L-510.5 -512.7 L-509.5 -512.7 L-508.5 -512.7 L-507.5 -512.7 L-506.5 -512.7 L-505.6 -512.7 L-504.6 -512.6 L-503.6 -512.6 L-502.6 -512.6 L-501.6 -512.6 L-500.7 -512.6 L-499.7 -512.6 L-498.7 -512.6 L-497.7 -512.6 L-496.8 -512.5 L-495.8 -512.5 L-494.8 -512.5 L-493.8 -512.5 L-492.8 -512.5 L-491.9 -512.5 L-490.9 -512.5 L-489.9 -512.4 L-488.9 -512.4 L-487.9 -512.4 L-488 -511.4 L-488 -510.5 L-488 -509.5 L-488 -508.5 L-488 -507.5 L-488 -506.5 L-488 -505.6 L-488.1 -504.6 L-488.1 -503.6 L-488.1 -502.6 L-488.1 -501.7 L-488.1 -500.7 L-488.1 -499.7 L-488.1 -498.7 L-488.2 -497.7 L-488.2 -496.8 L-488.2 -495.8 L-488.2 -494.8 L-488.2 -493.8 L-488.2 -492.8 L-488.2 -491.9 L-488.3 -490.9 L-488.3 -489.9 L-488.3 -488.9 L-488.3 -488 Z " />
<path stroke="rgb(0,0,0)" stroke-opacity="0.968" fill="rgb(255,255,255)" fill-opacity="1" d="M324.7 200.4 L324.5 202.3 L324.3 204.3 L323.9 206.2 L323.3 208.1 L322.6 209.9 L321.7 211.7 L320.7 213.3 L319.6 214.9 L318.4 216.5 L317 217.9 L315.5 219.2 L313.9 220.3 L312.3 221.4 L310.6 222.3 L308.7 223 L306.9 223.7 L305 224.1 L303.1 224.5 L301.1 224.6 L299.1 224.6 L297.2 224.5 L295.2 224.2 L293.3 223.7 L291.5 223.1 L289.7 222.4 L287.9 221.5 L286.2 220.5 L284.7 219.3 L283.2 218 L281.8 216.6 L280.5 215.1 L279.4 213.5 L278.4 211.9 L277.5 210.1 L276.8 208.3 L276.2 206.4 L275.8 204.5 L275.5 202.6 L275.4 200.6 L275.4 198.6 L275.6 196.7 L275.9 194.8 L276.4 192.9 L277 191 L277.8 189.2 L278.8 187.5 L279.8 185.8 L281 184.3 L282.3 182.8 L283.7 181.5 L285.3 180.2 L286.9 179.1 L288.6 178.1 L290.4 177.3 L292.2 176.6 L294.1 176.1 L296 175.7 L297.9 175.4 L299.9 175.3 L301.8 175.4 L303.8 175.6 L305.7 176 L307.6 176.5 L309.4 177.2 L311.2 178 L312.9 179 L314.6 180.1 L316.1 181.3 L317.5 182.7 L318.9 184.1 L320.1 185.7 L321.1 187.3 L322.1 189 L322.9 190.8 L323.5 192.6 L324 194.5 L324.4 196.5 L324.6 198.4 L324.7 200.4 Z " />
<path stroke="rgb(0,0,0)" stroke-opacity="1" fill="rgb(255,255,255)" fill-opacity="1" d="M-988.6 -387.3 L-989.6 -387.3 L-990.6 -387.4 L-991.6 -387.4 L-992.5 -387.5 L-993.5 -387.6 L-994.5 -387.6 L-995.5 -387.7 L-996.5 -387.7 L-997.5 -387.8 L-998.5 -387.8 L-999.5 -387.9 L-1000 -387.9 L-1001 -388 L-1002 -388 L-1003 -388.1 L-1004 -388.1 L-1005 -388.2 L-1006 -388.2 L-1007 -388.3 L-1008 -388.3 L-1009 -388.4 L-1010 -388.4 L-1011 -388.5 L-1012 -388.5 L-1013 -388.6 L-1013 -389.6 L-1013 -390.6 L-1013 -391.6 L-1013 -392.6 L-1013 -393.6 L-1013 -394.5 L-1013 -395.5 L-1013 -396.5 L-1013 -397.5 L-1013 -398.5 L-1013 -399.5 L-1013 -400.5 L-1013 -401.5 L-1013 -402.5 L-1013 -403.5 L-1013 -404.5 L-1013 -405.5 L-1012 -406.5 L-1012 -407.5 L-1012 -408.5 L-1012 -409.5 L-1012 -410.4 L-1012 -411.4 L-1012 -412.4 L-1012 -413.4 L-1011 -413.4 L-1010 -413.3 L-1009 -413.3 L-1008 -413.2 L-1007 -413.2 L-1006 -413.1 L-1005 -413.1 L-1004 -413 L-1003 -413 L-1002 -412.9 L-1001 -412.9 L-1000 -412.8 L-999.2 -412.8 L-998.2 -412.7 L-997.2 -412.7 L-996.2 -412.6 L-995.2 -412.6 L-994.2 -412.5 L-993.2 -412.4 L-992.3 -412.4 L-991.3 -412.3 L-990.3 -412.3 L-989.3 -412.2 L-988.3 -412.2 L-987.3 -412.1 L-987.3 -411.1 L-987.4 -410.2 L-987.4 -409.2 L-987.5 -408.2 L-987.5 -407.2 L-987.6 -406.2 L-987.6 -405.2 L-987.7 -404.2 L-987.7 -403.2 L-987.8 -402.2 L-987.9 -401.2 L-987.9 -400.2 L-988 -399.2 L-988 -398.2 L-988.1 -397.2 L-988.1 -396.2 L-988.2 -395.2 L-988.2 -394.3 L-988.3 -393.3 L-988.3 -392.3 L-988.4 -391.3 L-988.4 -390.3 L-988.5 -389.3 L-988.5 -388.3 L-988.6 -387.3 Z " />
<path stroke="rgb(0,0,0)" stroke-opacity="0.968" fill="rgb(255,255,255)" fill-opacity="1" d="M-175.3 300.4 L-175.5 302.3 L-175.7 304.3 L-176.1 306.2 L-176.7 308.1 L-177.4 309.9 L-178.3 311.7 L-179.3 313.3 L-180.4 314.9 L-181.6 316.5 L-183 317.9 L-184.5 319.2 L-186.1 320.3 L-187.7 321.4 L-189.4 322.3 L-191.3 323 L-193.1 323.7 L-195 324.1 L-196.9 324.5 L-198.9 324.6 L-200.9 324.6 L-202.8 324.5 L-204.8 324.2 L-206.7 323.7 L-208.5 323.1 L-210.3 322.4 L-212.1 321.5 L-213.8 320.5 L-215.3 319.3 L-216.8 318 L-218.2 316.6 L-219.5 315.1 L-220.6 313.5 L-221.6 311.9 L-222.5 310.1 L-223.2 308.3 L-223.8 306.4 L-224.2 304.5 L-224.5 302.6 L-224.6 300.6 L-224.6 298.6 L-224.4 296.7 L-224.1 294.8 L-223.6 292.9 L-223 291 L-222.2 289.2 L-221.2 287.5 L-220.2 285.8 L-219 284.3 L-217.7 282.8 L-216.3 281.5 L-214.7 280.2 L-213.1 279.1 L-211.4 278.1 L-209.6 277.3 L-207.8 276.6 L-205.9 276.1 L-204 275.7 L-202.1 275.4 L-200.1 275.3 L-198.2 275.4 L-196.2 275.6 L-194.3 276 L-192.4 276.5 L-190.6 277.2 L-188.8 278 L-187.1 279 L-185.4 280.1 L-183.9 281.3 L-182.5 282.7 L-181.1 284.1 L-179.9 285.7 L-178.9 287.3 L-177.9 289 L-177.1 290.8 L-176.5 292.6 L-176 294.5 L-175.6 296.5 L-175.4 298.4 L-175.3 300.4 Z " />
<path stroke="rgb(0,0,0)" stroke-opacity="1" fill="rgb(255,255,255)" fill-opacity="1" d="M-788.3 -388 L-789.3 -388 L-790.3 -388 L-791.2 -388 L-792.2 -388 L-793.2 -388 L-794.2 -388 L-795.1 -388 L-796.1 -388.1 L-797.1 -388.1 L-798.1 -388.1 L-799.1 -388.1 L-800 -388.1 L-801 -388.1 L-802 -388.1 L-803 -388.2 L-803.9 -388.2 L-804.9 -388.2 L-805.9 -388.2 L-806.9 -388.2 L-807.9 -388.2 L-808.8 -388.2 L-809.8 -388.3 L-810.8 -388.3 L-811.8 -388.3 L-812.8 -388.3 L-812.7 -389.3 L-812.7 -390.3 L-812.7 -391.2 L-812.7 -392.2 L-812.7 -393.2 L-812.7 -394.2 L-812.7 -395.1 L-812.6 -396.1 L-812.6 -397.1 L-812.6 -398.1 L-812.6 -399.1 L-812.6 -400 L-812.6 -401 L-812.6 -402 L-812.5 -403 L-812.5 -404 L-812.5 -404.9 L-812.5 -405.9 L-812.5 -406.9 L-812.5 -407.9 L-812.5 -408.8 L-812.5 -409.8 L-812.4 -410.8 L-812.4 -411.8 L-812.4 -412.8 L-811.4 -412.7 L-810.5 -412.7 L-809.5 -412.7 L-808.5 -412.7 L-807.5 -412.7 L-806.5 -412.7 L-805.6 -412.7 L-804.6 -412.6 L-803.6 -412.6 L-802.6 -412.6 L-801.6 -412.6 L-800.7 -412.6 L-799.7 -412.6 L-798.7 -412.6 L-797.7 -412.6 L-796.8 -412.5 L-795.8 -412.5 L-794.8 -412.5 L-793.8 -412.5 L-792.8 -412.5 L-791.9 -412.5 L-790.9 -412.5 L-789.9 -412.4 L-788.9 -412.4 L-787.9 -412.4 L-788 -411.4 L-788 -410.5 L-788 -409.5 L-788 -408.5 L-788 -407.5 L-788 -406.5 L-788 -405.6 L-788.1 -404.6 L-788.1 -403.6 L-788.1 -402.6 L-788.1 -401.7 L-788.1 -400.7 L-788.1 -399.7 L-788.1 -398.7 L-788.2 -397.7 L-788.2 -396.8 L-788.2 -395.8 L-788.2 -394.8 L-788.2 -393.8 L-788.2 -392.8 L-788.2 -391.9 L-788.3 -390.9 L-788.3 -389.9 L-788.3 -388.9 L-788.3 -388 Z " />
<path stroke="rgb(0,0,0)" stroke-opacity="0.968" fill="rgb(255,255,255)" fill-opacity="1" d="M24.65 300.4 L24.55 302.3 L24.28 304.3 L23.87 306.2 L23.3 308.1 L22.58 309.9 L21.73 311.7 L20.73 313.3 L19.61 314.9 L18.36 316.5 L16.99 317.9 L15.52 319.2 L13.95 320.3 L12.29 321.4 L10.55 322.3 L8.746 323 L6.887 323.7 L4.985 324.1 L3.051 324.5 L1.098 324.6 L-0.8623 324.6 L-2.817 324.5 L-4.754 324.2 L-6.661 323.7 L-8.525 323.1 L-10.34 322.4 L-12.08 321.5 L-13.75 320.5 L-15.33 319.3 L-16.82 318 L-18.2 316.6 L-19.46 315.1 L-20.6 313.5 L-21.61 311.9 L-22.48 310.1 L-23.21 308.3 L-23.8 306.4 L-24.23 304.5 L-24.51 302.6 L-24.64 300.6 L-24.61 298.6 L-24.42 296.7 L-24.08 294.8 L-23.59 292.9 L-22.95 291 L-22.16 289.2 L-21.24 287.5 L-20.18 285.8 L-18.99 284.3 L-17.68 282.8 L-16.26 281.5 L-14.74 280.2 L-13.12 279.1 L-11.42 278.1 L-9.647 277.3 L-7.814 276.6 L-5.932 276.1 L-4.012 275.7 L-2.067 275.4 L-0.1091 275.3 L1.85 275.4 L3.797 275.6 L5.72 276 L7.608 276.5 L9.447 277.2 L11.23 278 L12.93 279 L14.56 280.1 L16.1 281.3 L17.53 282.7 L18.85 284.1 L20.05 285.7 L21.13 287.3 L22.07 289 L22.88 290.8 L23.53 292.6 L24.04 294.5 L24.4 296.5 L24.61 298.4 L24.65 300.4 Z " />
<path stroke="rgb(0,0,0)" stroke-opacity="1" fill="rgb(255,255,255)" fill-opacity="1" d="M-588.3 -388 L-589.3 -388 L-590.3 -388 L-591.2 -388 L-592.2 -388 L-593.2 -388 L-594.2 -388 L-595.1 -388 L-596.1 -388.1 L-597.1 -388.1 L-598.1 -388.1 L-599.1 -388.1 L-600 -388.1 L-601 -388.1 L-602 -388.1 L-603 -388.2 L-603.9 -388.2 L-604.9 -388.2 L-605.9 -388.2 L-606.9 -388.2 L-607.9 -388.2 L-608.8 -388.2 L-609.8 -388.3 L-610.8 -388.3 L-611.8 -388.3 L-612.8 -388.3 L-612.7 -389.3 L-612.7 -390.3 L-612.7 -391.2 L-612.7 -392.2 L-612.7 -393.2 L-612.7 -394.2 L-612.7 -395.1 L-612.6 -396.1 L-612.6 -397.1 L-612.6 -398.1 L-612.6 -399.1 L-612.6 -400 L-612.6 -401 L-612.6 -402 L-612.5 -403 L-612.5 -404 L-612.5 -404.9 L-612.5 -405.9 L-612.5 -406.9 L-612.5 -407.9 L-612.5 -408.8 L-612.5 -409.8 L-612.4 -410.8 L-612.4 -411.8 L-612.4 -412.8 L-611.4 -412.7 L-610.5 -412.7 L-609.5 -412.7 L-608.5 -412.7 L-607.5 -412.7 L-606.5 -412.7 L-605.6 -412.7 L-604.6 -412.6 L-603.6 -412.6 L-602.6 -412.6 L-601.6 -412.6 L-600.7 -412.6 L-599.7 -412.6 L-598.7 -412.6 L-597.7 -412.6 L-596.8 -412.5 L-595.8 -412.5 L-594.8 -412.5 L-593.8 -412.5 L-592.8 -412.5 L-591.9 -412.5 L-590.9 -412.5 L-589.9 -412.4 L-588.9 -412.4 L-587.9 -412.4 L-588 -411.4 L-588 -410.5 L-588 -409.5 L-588 -408.5 L-588 -407.5 L-588 -406.5 L-588 -405.6 L-588.1 -404.6 L-588.1 -403.6 L-588.1 -402.6 L-588.1 -401.7 L-588.1 -400.7 L-588.1 -399.7 L-588.1 -398.7 L-588.2 -397.7 L-588.2 -396.8 L-588.2 -395.8 L-588.2 -394.8 L-588.2 -393.8 L-588.2 -392.8 L-588.2 -391.9 L-588.3 -390.9 L-588.3 -389.9 L-588.3 -388.9 L-588.3 -388 Z " />
<path stroke="rgb(0,0,0)" stroke-opacity="0.968" fill="rgb(255,255,255)" fill-opacity="1" d="M224.7 300.4 L224.5 302.3 L224.3 304.3 L223.9 306.2 L223.3 308.1 L222.6 309.9 L221.7 311.7 L220.7 313.3 L219.6 314.9 L218.4 316.5 L217 317.9 L215.5 319.2 L213.9 320.3 L212.3 321.4 L210.6 322.3 L208.7 323 L206.9 323.7 L205 324.1 L203.1 324.5 L201.1 324.6 L199.1 324.6 L197.2 324.5 L195.2 324.2 L193.3 323.7 L191.5 323.1 L189.7 322.4 L187.9 321.5 L186.2 320.5 L184.7 319.3 L183.2 318 L181.8 316.6 L180.5 315.1 L179.4 313.5 L178.4 311.9 L177.5 310.1 L176.8 308.3 L176.2 306.4 L175.8 304.5 L175.5 302.6 L175.4 300.6 L175.4 298.6 L175.6 296.7 L175.9 294.8 L176.4 292.9 L177 291 L177.8 289.2 L178.8 287.5 L179.8 285.8 L181 284.3 L182.3 282.8 L183.7 281.5 L185.3 280.2 L186.9 279.1 L188.6 278.1 L190.4 277.3 L192.2 276.6 L194.1 276.1 L196 275.7 L197.9 275.4 L199.9 275.3 L201.8 275.4 L203.8 275.6 L205.7 276 L207.6 276.5 L209.4 277.2 L211.2 278 L212.9 279 L214.6 280.1 L216.1 281.3 L217.5 282.7 L218.9 284.1 L220.1 285.7 L221.1 287.3 L222.1 289 L222.9 290.8 L223.5 292.6 L224 294.5 L224.4 296.5 L224.6 298.4 L224.7 300.4 Z " />
<path stroke="rgb(0,0,0)" stroke-opacity="1" fill="rgb(255,255,255)" fill-opacity="1" d="M-388.3 -388 L-389.3 -388 L-390.3 -388 L-391.2 -388 L-392.2 -388 L-393.2 -388 L-394.2 -388 L-395.1 -388 L-396.1 -388.1 L-397.1 -388.1 L-398.1 -388.1 L-399.1 -388.1 L-400 -388.1 L-401 -388.1 L-402 -388.1 L-403 -388.2 L-403.9 -388.2 L-404.9 -388.2 L-405.9 -388.2 L-406.9 -388.2 L-407.9 -388.2 L-408.8 -388.2 L-409.8 -388.3 L-410.8 -388.3 L-411.8 -388.3 L-412.8 -388.3 L-412.7 -389.3 L-412.7 -390.3 L-412.7 -391.2 L-412.7 -392.2 L-412.7 -393.2 L-412.7 -394.2 L-412.7 -395.1 L-412.6 -396.1 L-412.6 -397.1 L-412.6 -398.1 L-412.6 -399.1 L-412.6 -400 L-412.6 -401 L-412.6 -402 L-412.5 -403 L-412.5 -404 L-412.5 -404.9 L-412.5 -405.9 L-412.5 -406.9 L-412.5 -407.9 L-412.5 -408.8 L-412.5 -409.8 L-412.4 -410.8 L-412.4 -411.8 L-412.4 -412.8 L-411.4 -412.7 L-410.5 -412.7 L-409.5 -412.7 L-408.5 -412.7 L-407.5 -412.7 L-406.5 -412.7 L-405.6 -412.7 L-404.6 -412.6 L-403.6 -412.6 L-402.6 -412.6 L-401.6 -412.6 L-400.7 -412.6 L-399.7 -412.6 L-398.7 -412.6 L-397.7 -412.6 L-396.8 -412.5 L-395.8 -412.5 L-394.8 -412.5 L-393.8 -412.5 L-392.8 -412.5 L-391.9 -412.5 L-390.9 -412.5 L-389.9 -412.4 L-388.9 -412.4 L-387.9 -412.4 L-388 -411.4 L-388 -410.5 L-388 -409.5 L-388 -408.5 L-388 -407.5 L-388 -406.5 L-388 -405.6 L-388.1 -404.6 L-388.1 -403.6 L-388.1 -402.6 L-388.1 -401.7 L-388.1 -400.7 L-388.1 -399.7 L-388.1 -398.7 L-388.2 -397.7 L-388.2 -396.8 L-388.2 -395.8 L-388.2 -394.8 L-388.2 -393.8 L-388.2 -392.8 L-388.2 -391.9 L-388.3 -390.9 L-388.3 -389.9 L-388.3 -388.9 L-388.3 -388 Z " />
</g>
</g>
</svg>
