<!DOCTYPE svg>
<svg xmlns="http://www.w3.org/2000/svg" xmlns:xlink="http://www.w3.org/1999/xlink" width="1000" height="1000">
<g transform="translate(500.000000,500.000000)">
<g transform="scale(3.000000,3.000000)">
<path stroke="rgb(0,0,0)" stroke-opacity="1" fill="rgb(255,255,255)" fill-opacity="1" d="M-783.6 -826.5 L-783.2 -824.8 L-782.9 -823.1 L-782.5 -821.3 L-782.1 -819.6 L-781.7 -817.9 L-781.3 -816.1 L-780.9 -814.4 L-780.5 -812.7 L-780.1 -810.9 L-779.7 -809.2 L-779.3 -807.5 L-778.9 -805.7 L-778.5 -804 L-778.2 -802.3 L-777.8 -800.5 L-777.4 -798.8 L-777 -797.1 L-776.6 -795.3 L-776.2 -793.6 L-775.8 -791.9 L-775.4 -790.1 L-775 -788.4 L-774.6 -786.7 L-774.2 -784.9 L-773.9 -783.2 L-775.6 -782.8 L-777.3 -782.4 L-779.1 -782 L-780.8 -781.6 L-782.5 -781.2 L-784.3 -780.9 L-786 -780.5 L-787.7 -780.1 L-789.5 -779.7 L-791.2 -779.3 L-792.9 -778.9 L-794.6 -778.5 L-796.4 -778.1 L-798.1 -777.7 L-799.8 -777.3 L-801.6 -776.9 L-803.3 -776.6 L-805 -776.2 L-806.8 -775.8 L-808.5 -775.4 L-810.2 -775 L-812 -774.6 L-813.7 -774.2 L-815.4 -773.8 L-817.2 -773.4 L-817.6 -775.2 L-818 -776.9 L-818.3 -778.6 L-818.7 -780.4 L-819.1 -782.1 L-819.5 -783.8 L-819.9 -785.6 L-820.3 -787.3 L-820.7 -789 L-821.1 -790.8 L-821.5 -792.5 L-821.9 -794.2 L-822.3 -796 L-822.6 -797.7 L-823 -799.4 L-823.4 -801.2 L-823.8 -802.9 L-824.2 -804.6 L-824.6 -806.3 L-825 -808.1 L-825.4 -809.8 L-825.8 -811.5 L-826.2 -813.3 L-826.6 -815 L-826.9 -816.7 L-825.2 -817.1 L-823.5 -817.5 L-821.8 -817.9 L-820 -818.3 L-818.3 -818.7 L-816.6 -819.1 L-814.8 -819.5 L-813.1 -819.9 L-811.4 -820.3 L-809.6 -820.7 L-807.9 -821 L-806.2 -821.4 L-804.4 -821.8 L-802.7 -822.2 L-801 -822.6 L-799.2 -823 L-797.5 -823.4 L-795.8 -823.8 L-794 -824.2 L-792.3 -824.6 L-790.6 -825 L-788.8 -825.3 L-787.1 -825.7 L-785.4 -826.1 L-783.6 -826.5 Z " />
<path stroke="rgb(0,0,0)" stroke-opacity="0.981" fill="rgb(255,255,255)" fill-opacity="1" d="M-175.2 -299.7 L-175.3 -297.8 L-175.6 -295.8 L-176 -293.9 L-176.6 -292 L-177.3 -290.2 L-178.1 -288.4 L-179.1 -286.7 L-180.3 -285.1 L-181.5 -283.6 L-182.9 -282.1 L-184.3 -280.8 L-185.9 -279.7 L-187.6 -278.6 L-189.3 -277.7 L-191.1 -276.9 L-193 -276.3 L-194.9 -275.8 L-196.8 -275.5 L-198.8 -275.3 L-200.8 -275.3 L-202.7 -275.4 L-204.7 -275.7 L-206.6 -276.1 L-208.5 -276.7 L-210.3 -277.5 L-212 -278.4 L-213.7 -279.4 L-215.3 -280.6 L-216.8 -281.8 L-218.2 -283.2 L-219.5 -284.7 L-220.6 -286.3 L-221.6 -288 L-222.5 -289.8 L-223.3 -291.6 L-223.9 -293.5 L-224.3 -295.4 L-224.6 -297.3 L-224.7 -299.3 L-224.7 -301.3 L-224.5 -303.2 L-224.2 -305.2 L-223.7 -307.1 L-223.1 -308.9 L-222.3 -310.7 L-221.4 -312.5 L-220.3 -314.1 L-219.1 -315.7 L-217.8 -317.2 L-216.4 -318.5 L-214.9 -319.8 L-213.3 -320.9 L-211.6 -321.9 L-209.8 -322.7 L-207.9 -323.4 L-206.1 -324 L-204.1 -324.4 L-202.2 -324.7 L-200.2 -324.8 L-198.3 -324.7 L-196.3 -324.5 L-194.4 -324.1 L-192.5 -323.6 L-190.6 -322.9 L-188.8 -322.1 L-187.1 -321.1 L-185.5 -320 L-183.9 -318.8 L-182.5 -317.5 L-181.1 -316 L-179.9 -314.5 L-178.8 -312.9 L-177.9 -311.1 L-177.1 -309.3 L-176.4 -307.5 L-175.9 -305.6 L-175.5 -303.7 L-175.3 -301.7 L-175.2 -299.7 Z " />
<path stroke="rgb(0,0,0)" stroke-opacity="1" fill="rgb(255,255,255)" fill-opacity="1" d="M-601.6 -823.8 L-600.6 -822.9 L-599.6 -822 L-598.6 -821.1 L-597.6 -820.2 L-596.6 -819.3 L-595.6 -818.4 L-594.6 -817.6 L-593.6 -816.7 L-592.5 -815.8 L-591.5 -814.9 L-590.5 -814 L-589.5 -813.1 L-588.5 -812.2 L-587.5 -811.3 L-586.5 -810.4 L-585.5 -809.5 L-584.5 -808.6 L-583.5 -807.7 L-582.4 -806.8 L-581.4 -805.9 L-580.4 -805 L-579.4 -804.1 L-578.4 -803.2 L-577.4 -802.3 L-576.4 -801.4 L-577.3 -800.4 L-578.2 -799.4 L-579.1 -798.4 L-580 -797.4 L-580.9 -796.4 L-581.8 -795.3 L-582.7 -794.3 L-583.6 -793.3 L-584.5 -792.3 L-585.4 -791.3 L-586.3 -790.3 L-587.2 -789.3 L-588.1 -788.3 L-588.9 -787.3 L-589.8 -786.3 L-590.7 -785.3 L-591.6 -784.2 L-592.5 -783.2 L-593.4 -782.2 L-594.3 -781.2 L-595.2 -780.2 L-596.1 -779.2 L-597 -778.2 L-597.9 -777.2 L-598.8 -776.2 L-599.8 -777.1 L-600.8 -778 L-601.8 -778.9 L-602.9 -779.8 L-603.9 -780.7 L-604.9 -781.6 L-605.9 -782.4 L-606.9 -783.3 L-607.9 -784.2 L-608.9 -785.1 L-609.9 -786 L-610.9 -786.9 L-611.9 -787.8 L-612.9 -788.7 L-614 -789.6 L-615 -790.5 L-616 -791.4 L-617 -792.3 L-618 -793.2 L-619 -794.1 L-620 -795 L-621 -795.9 L-622 -796.8 L-623 -797.7 L-624.1 -798.6 L-623.2 -799.6 L-622.3 -800.6 L-621.4 -801.6 L-620.5 -802.6 L-619.6 -803.6 L-618.7 -804.7 L-617.8 -805.7 L-616.9 -806.7 L-616 -807.7 L-615.1 -808.7 L-614.2 -809.7 L-613.3 -810.7 L-612.4 -811.7 L-611.5 -812.7 L-610.6 -813.7 L-609.7 -814.7 L-608.8 -815.8 L-607.9 -816.8 L-607 -817.8 L-606.1 -818.8 L-605.2 -819.8 L-604.3 -820.8 L-603.4 -821.8 L-602.5 -822.8 L-601.6 -823.8 Z " />
<path stroke="rgb(0,0,0)" stroke-opacity="0.981" fill="rgb(255,255,255)" fill-opacity="1" d="M24.75 -299.7 L24.65 -297.8 L24.4 -295.8 L23.99 -293.9 L23.43 -292 L22.72 -290.2 L21.86 -288.4 L20.87 -286.7 L19.75 -285.1 L18.5 -283.6 L17.14 -282.1 L15.66 -280.8 L14.09 -279.7 L12.43 -278.6 L10.69 -277.7 L8.881 -276.9 L7.018 -276.3 L5.11 -275.8 L3.169 -275.5 L1.209 -275.3 L-0.7591 -275.3 L-2.722 -275.4 L-4.668 -275.7 L-6.584 -276.1 L-8.459 -276.7 L-10.28 -277.5 L-12.04 -278.4 L-13.72 -279.4 L-15.31 -280.6 L-16.81 -281.8 L-18.2 -283.2 L-19.47 -284.7 L-20.62 -286.3 L-21.65 -288 L-22.53 -289.8 L-23.27 -291.6 L-23.87 -293.5 L-24.31 -295.4 L-24.6 -297.3 L-24.74 -299.3 L-24.72 -301.3 L-24.54 -303.2 L-24.21 -305.2 L-23.72 -307.1 L-23.08 -308.9 L-22.3 -310.7 L-21.38 -312.5 L-20.32 -314.1 L-19.13 -315.7 L-17.83 -317.2 L-16.41 -318.5 L-14.88 -319.8 L-13.26 -320.9 L-11.56 -321.9 L-9.786 -322.7 L-7.949 -323.4 L-6.062 -324 L-4.136 -324.4 L-2.185 -324.7 L-0.2188 -324.8 L1.748 -324.7 L3.704 -324.5 L5.637 -324.1 L7.534 -323.6 L9.383 -322.9 L11.17 -322.1 L12.89 -321.1 L14.53 -320 L16.08 -318.8 L17.52 -317.5 L18.86 -316 L20.07 -314.5 L21.16 -312.9 L22.11 -311.1 L22.93 -309.3 L23.6 -307.5 L24.12 -305.6 L24.48 -303.7 L24.7 -301.7 L24.75 -299.7 Z " />
<path stroke="rgb(0,0,0)" stroke-opacity="1" fill="rgb(255,255,255)" fill-opacity="1" d="M-410.8 -815.6 L-409.7 -815.4 L-408.7 -815.2 L-407.6 -815 L-406.6 -814.8 L-405.5 -814.6 L-404.5 -814.4 L-403.4 -814.2 L-402.4 -814 L-401.3 -813.8 L-400.3 -813.6 L-399.3 -813.4 L-398.2 -813.3 L-397.2 -813.1 L-396.1 -812.9 L-395.1 -812.7 L-394 -812.5 L-393 -812.3 L-391.9 -812.1 L-390.9 -811.9 L-389.8 -811.7 L-388.8 -811.5 L-387.8 -811.3 L-386.7 -811.1 L-385.7 -810.9 L-384.6 -810.7 L-384.8 -809.7 L-385 -808.6 L-385.2 -807.6 L-385.4 -806.5 L-385.6 -805.5 L-385.8 -804.4 L-386 -803.4 L-386.2 -802.3 L-386.4 -801.3 L-386.6 -800.3 L-386.8 -799.2 L-387 -798.2 L-387.2 -797.1 L-387.4 -796.1 L-387.5 -795 L-387.7 -794 L-387.9 -792.9 L-388.1 -791.9 L-388.3 -790.8 L-388.5 -789.8 L-388.7 -788.8 L-388.9 -787.7 L-389.1 -786.7 L-389.3 -785.6 L-389.5 -784.6 L-390.5 -784.8 L-391.6 -785 L-392.6 -785.2 L-393.7 -785.3 L-394.7 -785.5 L-395.8 -785.7 L-396.8 -785.9 L-397.9 -786.1 L-398.9 -786.3 L-400 -786.5 L-401 -786.7 L-402.1 -786.9 L-403.1 -787.1 L-404.1 -787.3 L-405.2 -787.5 L-406.2 -787.7 L-407.3 -787.9 L-408.3 -788.1 L-409.4 -788.3 L-410.4 -788.5 L-411.5 -788.7 L-412.5 -788.9 L-413.6 -789.1 L-414.6 -789.3 L-415.6 -789.5 L-415.5 -790.5 L-415.3 -791.5 L-415.1 -792.6 L-414.9 -793.6 L-414.7 -794.7 L-414.5 -795.7 L-414.3 -796.8 L-414.1 -797.8 L-413.9 -798.9 L-413.7 -799.9 L-413.5 -801 L-413.3 -802 L-413.1 -803 L-412.9 -804.1 L-412.7 -805.1 L-412.5 -806.2 L-412.3 -807.2 L-412.1 -808.3 L-411.9 -809.3 L-411.7 -810.4 L-411.5 -811.4 L-411.3 -812.5 L-411.2 -813.5 L-411 -814.6 L-410.8 -815.6 Z " />
<path stroke="rgb(0,0,0)" stroke-opacity="0.981" fill="rgb(255,255,255)" fill-opacity="1" d="M224.8 -299.7 L224.7 -297.8 L224.4 -295.8 L224 -293.9 L223.4 -292 L222.7 -290.2 L221.9 -288.4 L220.9 -286.7 L219.7 -285.1 L218.5 -283.6 L217.1 -282.1 L215.7 -280.8 L214.1 -279.7 L212.4 -278.6 L210.7 -277.7 L208.9 -276.9 L207 -276.3 L205.1 -275.8 L203.2 -275.5 L201.2 -275.3 L199.2 -275.3 L197.3 -275.4 L195.3 -275.7 L193.4 -276.1 L191.5 -276.7 L189.7 -277.5 L188 -278.4 L186.3 -279.4 L184.7 -280.6 L183.2 -281.8 L181.8 -283.2 L180.5 -284.7 L179.4 -286.3 L178.4 -288 L177.5 -289.8 L176.7 -291.6 L176.1 -293.5 L175.7 -295.4 L175.4 -297.3 L175.3 -299.3 L175.3 -301.3 L175.5 -303.2 L175.8 -305.2 L176.3 -307.1 L176.9 -308.9 L177.7 -310.7 L178.6 -312.5 L179.7 -314.1 L180.9 -315.7 L182.2 -317.2 L183.6 -318.5 L185.1 -319.8 L186.7 -320.9 L188.4 -321.9 L190.2 -322.7 L192.1 -323.4 L193.9 -324 L195.9 -324.4 L197.8 -324.7 L199.8 -324.8 L201.7 -324.7 L203.7 -324.5 L205.6 -324.1 L207.5 -323.6 L209.4 -322.9 L211.2 -322.1 L212.9 -321.1 L214.5 -320 L216.1 -318.8 L217.5 -317.5 L218.9 -316 L220.1 -314.5 L221.2 -312.9 L222.1 -311.1 L222.9 -309.3 L223.6 -307.5 L224.1 -305.6 L224.5 -303.7 L224.7 -301.7 L224.8 -299.7 Z " />
<path stroke="rgb(0,0,0)" stroke-opacity="1" fill="rgb(255,255,255)" fill-opacity="1" d="M-212.2 -812.7 L-211.2 -812.7 L-210.2 -812.7 L-209.3 -812.7 L-208.3 -812.7 L-207.3 -812.6 L-206.3 -812.6 L-205.3 -812.6 L-204.3 -812.6 L-203.3 -812.6 L-202.3 -812.5 L-201.3 -812.5 L-200.4 -812.5 L-199.4 -812.5 L-198.4 -812.5 L-197.4 -812.4 L-196.4 -812.4 L-195.4 -812.4 L-194.4 -812.4 L-193.4 -812.3 L-192.4 -812.3 L-191.4 -812.3 L-190.5 -812.3 L-189.5 -812.3 L-188.5 -812.2 L-187.5 -812.2 L-187.5 -811.2 L-187.5 -810.2 L-187.5 -809.3 L-187.6 -808.3 L-187.6 -807.3 L-187.6 -806.3 L-187.6 -805.3 L-187.7 -804.3 L-187.7 -803.3 L-187.7 -802.3 L-187.7 -801.3 L-187.7 -800.3 L-187.8 -799.4 L-187.8 -798.4 L-187.8 -797.4 L-187.8 -796.4 L-187.8 -795.4 L-187.9 -794.4 L-187.9 -793.4 L-187.9 -792.4 L-187.9 -791.4 L-187.9 -790.4 L-188 -789.5 L-188 -788.5 L-188 -787.5 L-189 -787.5 L-190 -787.5 L-191 -787.5 L-192 -787.6 L-193 -787.6 L-193.9 -787.6 L-194.9 -787.6 L-195.9 -787.6 L-196.9 -787.7 L-197.9 -787.7 L-198.9 -787.7 L-199.9 -787.7 L-200.9 -787.8 L-201.9 -787.8 L-202.9 -787.8 L-203.8 -787.8 L-204.8 -787.8 L-205.8 -787.9 L-206.8 -787.9 L-207.8 -787.9 L-208.8 -787.9 L-209.8 -787.9 L-210.8 -788 L-211.8 -788 L-212.7 -788 L-212.7 -789 L-212.7 -790 L-212.7 -791 L-212.7 -792 L-212.6 -792.9 L-212.6 -793.9 L-212.6 -794.9 L-212.6 -795.9 L-212.6 -796.9 L-212.5 -797.9 L-212.5 -798.9 L-212.5 -799.9 L-212.5 -800.9 L-212.5 -801.9 L-212.4 -802.8 L-212.4 -803.8 L-212.4 -804.8 L-212.4 -805.8 L-212.4 -806.8 L-212.3 -807.8 L-212.3 -808.8 L-212.3 -809.8 L-212.3 -810.8 L-212.2 -811.8 L-212.2 -812.7 Z " />
<path stroke="rgb(0,0,0)" stroke-opacity="0.981" fill="rgb(255,255,255)" fill-opacity="1" d="M-275.2 -199.7 L-275.3 -197.8 L-275.6 -195.8 L-276 -193.9 L-276.6 -192 L-277.3 -190.2 L-278.1 -188.4 L-279.1 -186.7 L-280.3 -185.1 L-281.5 -183.6 L-282.9 -182.1 L-284.3 -180.8 L-285.9 -179.7 L-287.6 -178.6 L-289.3 -177.7 L-291.1 -176.9 L-293 -176.3 L-294.9 -175.8 L-296.8 -175.5 L-298.8 -175.3 L-300.8 -175.3 L-302.7 -175.4 L-304.7 -175.7 L-306.6 -176.1 L-308.5 -176.7 L-310.3 -177.5 L-312 -178.4 L-313.7 -179.4 L-315.3 -180.6 L-316.8 -181.8 L-318.2 -183.2 L-319.5 -184.7 L-320.6 -186.3 L-321.6 -188 L-322.5 -189.8 L-323.3 -191.6 L-323.9 -193.5 L-324.3 -195.4 L-324.6 -197.3 L-324.7 -199.3 L-324.7 -201.3 L-324.5 -203.2 L-324.2 -205.2 L-323.7 -207.1 L-323.1 -208.9 L-322.3 -210.7 L-321.4 -212.5 L-320.3 -214.1 L-319.1 -215.7 L-317.8 -217.2 L-316.4 -218.5 L-314.9 -219.8 L-313.3 -220.9 L-311.6 -221.9 L-309.8 -222.7 L-307.9 -223.4 L-306.1 -224 L-304.1 -224.4 L-302.2 -224.7 L-300.2 -224.8 L-298.3 -224.7 L-296.3 -224.5 L-294.4 -224.1 L-292.5 -223.6 L-290.6 -222.9 L-288.8 -222.1 L-287.1 -221.1 L-285.5 -220 L-283.9 -218.8 L-282.5 -217.5 L-281.1 -216 L-279.9 -214.5 L-278.8 -212.9 L-277.9 -211.1 L-277.1 -209.3 L-276.4 -207.5 L-275.9 -205.6 L-275.5 -203.7 L-275.3 -201.7 L-275.2 -199.7 Z " />
<path stroke="rgb(0,0,0)" stroke-opacity="1" fill="rgb(255,255,255)" fill-opacity="1" d="M-701.6 -723.8 L-700.6 -722.9 L-699.6 -722 L-698.6 -721.1 L-697.6 -720.2 L-696.6 -719.3 L-695.6 -718.4 L-694.6 -717.6 L-693.6 -716.7 L-692.5 -715.8 L-691.5 -714.9 L-690.5 -714 L-689.5 -713.1 L-688.5 -712.2 L-687.5 -711.3 L-686.5 -710.4 L-685.5 -709.5 L-684.5 -708.6 L-683.5 -707.7 L-682.4 -706.8 L-681.4 -705.9 L-680.4 -705 L-679.4 -704.1 L-678.4 -703.2 L-677.4 -702.3 L-676.4 -701.4 L-677.3 -700.4 L-678.2 -699.4 L-679.1 -698.4 L-680 -697.4 L-680.9 -696.4 L-681.8 -695.3 L-682.7 -694.3 L-683.6 -693.3 L-684.5 -692.3 L-685.4 -691.3 L-686.3 -690.3 L-687.2 -689.3 L-688.1 -688.3 L-688.9 -687.3 L-689.8 -686.3 L-690.7 -685.3 L-691.6 -684.2 L-692.5 -683.2 L-693.4 -682.2 L-694.3 -681.2 L-695.2 -680.2 L-696.1 -679.2 L-697 -678.2 L-697.9 -677.2 L-698.8 -676.2 L-699.8 -677.1 L-700.8 -678 L-701.8 -678.9 L-702.9 -679.8 L-703.9 -680.7 L-704.9 -681.6 L-705.9 -682.4 L-706.9 -683.3 L-707.9 -684.2 L-708.9 -685.1 L-709.9 -686 L-710.9 -686.9 L-711.9 -687.8 L-712.9 -688.7 L-714 -689.6 L-715 -690.5 L-716 -691.4 L-717 -692.3 L-718 -693.2 L-719 -694.1 L-720 -695 L-721 -695.9 L-722 -696.8 L-723 -697.7 L-724.1 -698.6 L-723.2 -699.6 L-722.3 -700.6 L-721.4 -701.6 L-720.5 -702.6 L-719.6 -703.6 L-718.7 -704.7 L-717.8 -705.7 L-716.9 -706.7 L-716 -707.7 L-715.1 -708.7 L-714.2 -709.7 L-713.3 -710.7 L-712.4 -711.7 L-711.5 -712.7 L-710.6 -713.7 L-709.7 -714.7 L-708.8 -715.8 L-707.9 -716.8 L-707 -717.8 L-706.1 -718.8 L-705.2 -719.8 L-704.3 -720.8 L-703.4 -721.8 L-702.5 -722.8 L-701.6 -723.8 Z " />
<path stroke="rgb(0,0,0)" stroke-opacity="0.981" fill="rgb(255,255,255)" fill-opacity="1" d="M-75.25 -199.7 L-75.35 -197.8 L-75.6 -195.8 L-76.01 -193.9 L-76.57 -192 L-77.28 -190.2 L-78.14 -188.4 L-79.13 -186.7 L-80.25 -185.1 L-81.5 -183.6 L-82.86 -182.1 L-84.34 -180.8 L-85.91 -179.7 L-87.57 -178.6 L-89.31 -177.7 L-91.12 -176.9 L-92.98 -176.3 L-94.89 -175.8 L-96.83 -175.5 L-98.79 -175.3 L-100.8 -175.3 L-102.7 -175.4 L-104.7 -175.7 L-106.6 -176.1 L-108.5 -176.7 L-110.3 -177.5 L-112 -178.4 L-113.7 -179.4 L-115.3 -180.6 L-116.8 -181.8 L-118.2 -183.2 L-119.5 -184.7 L-120.6 -186.3 L-121.6 -188 L-122.5 -189.8 L-123.3 -191.6 L-123.9 -193.5 L-124.3 -195.4 L-124.6 -197.3 L-124.7 -199.3 L-124.7 -201.3 L-124.5 -203.2 L-124.2 -205.2 L-123.7 -207.1 L-123.1 -208.9 L-122.3 -210.7 L-121.4 -212.5 L-120.3 -214.1 L-119.1 -215.7 L-117.8 -217.2 L-116.4 -218.5 L-114.9 -219.8 L-113.3 -220.9 L-111.6 -221.9 L-109.8 -222.7 L-107.9 -223.4 L-106.1 -224 L-104.1 -224.4 L-102.2 -224.7 L-100.2 -224.8 L-98.25 -224.7 L-96.3 -224.5 L-94.36 -224.1 L-92.47 -223.6 L-90.62 -222.9 L-88.83 -222.1 L-87.11 -221.1 L-85.47 -220 L-83.92 -218.8 L-82.48 -217.5 L-81.14 -216 L-79.93 -214.5 L-78.84 -212.9 L-77.89 -211.1 L-77.07 -209.3 L-76.4 -207.5 L-75.88 -205.6 L-75.52 -203.7 L-75.3 -201.7 L-75.25 -199.7 Z " />
<path stroke="rgb(0,0,0)" stroke-opacity="1" fill="rgb(255,255,255)" fill-opacity="1" d="M-510.8 -715.6 L-509.7 -715.4 L-508.7 -715.2 L-507.6 -715 L-506.6 -714.8 L-505.5 -714.6 L-504.5 -714.4 L-503.4 -714.2 L-502.4 -714 L-501.3 -713.8 L-500.3 -713.6 L-499.3 -713.4 L-498.2 -713.3 L-497.2 -713.1 L-496.1 -712.9 L-495.1 -712.7 L-494 -712.5 L-493 -712.3 L-491.9 -712.1 L-490.9 -711.9 L-489.8 -711.7 L-488.8 -711.5 L-487.8 -711.3 L-486.7 -711.1 L-485.7 -710.9 L-484.6 -710.7 L-484.8 -709.7 L-485 -708.6 L-485.2 -707.6 L-485.4 -706.5 L-485.6 -705.5 L-485.8 -704.4 L-486 -703.4 L-486.2 -702.3 L-486.4 -701.3 L-486.6 -700.3 L-486.8 -699.2 L-487 -698.2 L-487.2 -697.1 L-487.4 -696.1 L-487.5 -695 L-487.7 -694 L-487.9 -692.9 L-488.1 -691.9 L-488.3 -690.8 L-488.5 -689.8 L-488.7 -688.8 L-488.9 -687.7 L-489.1 -686.7 L-489.3 -685.6 L-489.5 -684.6 L-490.5 -684.8 L-491.6 -685 L-492.6 -685.2 L-493.7 -685.3 L-494.7 -685.5 L-495.8 -685.7 L-496.8 -685.9 L-497.9 -686.1 L-498.9 -686.3 L-500 -686.5 L-501 -686.7 L-502.1 -686.9 L-503.1 -687.1 L-504.1 -687.3 L-505.2 -687.5 L-506.2 -687.7 L-507.3 -687.9 L-508.3 -688.1 L-509.4 -688.3 L-510.4 -688.5 L-511.5 -688.7 L-512.5 -688.9 L-513.6 -689.1 L-514.6 -689.3 L-515.6 -689.5 L-515.5 -690.5 L-515.3 -691.5 L-515.1 -692.6 L-514.9 -693.6 L-514.7 -694.7 L-514.5 -695.7 L-514.3 -696.8 L-514.1 -697.8 L-513.9 -698.9 L-513.7 -699.9 L-513.5 -701 L-513.3 -702 L-513.1 -703 L-512.9 -704.1 L-512.7 -705.1 L-512.5 -706.2 L-512.3 -707.2 L-512.1 -708.3 L-511.9 -709.3 L-511.7 -710.4 L-511.5 -711.4 L-511.3 -712.5 L-511.2 -713.5 L-511 -714.6 L-510.8 -715.6 Z " />
<path stroke="rgb(0,0,0)" stroke-opacity="0.981" fill="rgb(255,255,255)" fill-opacity="1" d="M124.8 -199.7 L124.7 -197.8 L124.4 -195.8 L124 -193.9 L123.4 -192 L122.7 -190.2 L121.9 -188.4 L120.9 -186.7 L119.7 -185.1 L118.5 -183.6 L117.1 -182.1 L115.7 -180.8 L114.1 -179.7 L112.4 -178.6 L110.7 -177.7 L108.9 -176.9 L107 -176.3 L105.1 -175.8 L103.2 -175.5 L101.2 -175.3 L99.24 -175.3 L97.28 -175.4 L95.33 -175.7 L93.42 -176.1 L91.54 -176.7 L89.72 -177.5 L87.96 -178.4 L86.28 -179.4 L84.69 -180.6 L83.19 -181.8 L81.8 -183.2 L80.53 -184.7 L79.38 -186.3 L78.35 -188 L77.47 -189.8 L76.73 -191.6 L76.13 -193.5 L75.69 -195.4 L75.4 -197.3 L75.26 -199.3 L75.28 -201.3 L75.46 -203.2 L75.79 -205.2 L76.28 -207.1 L76.92 -208.9 L77.7 -210.7 L78.62 -212.5 L79.68 -214.1 L80.87 -215.7 L82.17 -217.2 L83.59 -218.5 L85.12 -219.8 L86.74 -220.9 L88.44 -221.9 L90.21 -222.7 L92.05 -223.4 L93.94 -224 L95.86 -224.4 L97.82 -224.7 L99.78 -224.8 L101.7 -224.7 L103.7 -224.5 L105.6 -224.1 L107.5 -223.6 L109.4 -222.9 L111.2 -222.1 L112.9 -221.1 L114.5 -220 L116.1 -218.8 L117.5 -217.5 L118.9 -216 L120.1 -214.5 L121.2 -212.9 L122.1 -211.1 L122.9 -209.3 L123.6 -207.5 L124.1 -205.6 L124.5 -203.7 L124.7 -201.7 L124.8 -199.7 Z " />
<path stroke="rgb(0,0,0)" stroke-opacity="1" fill="rgb(255,255,255)" fill-opacity="1" d="M-312.2 -712.7 L-311.2 -712.7 L-310.2 -712.7 L-309.3 -712.7 L-308.3 -712.7 L-307.3 -712.6 L-306.3 -712.6 L-305.3 -712.6 L-304.3 -712.6 L-303.3 -712.6 L-302.3 -712.5 L-301.3 -712.5 L-300.4 -712.5 L-299.4 -712.5 L-298.4 -712.5 L-297.4 -712.4 L-296.4 -712.4 L-295.4 -712.4 L-294.4 -712.4 L-293.4 -712.3 L-292.4 -712.3 L-291.4 -712.3 L-290.5 -712.3 L-289.5 -712.3 L-288.5 -712.2 L-287.5 -712.2 L-287.5 -711.2 L-287.5 -710.2 L-287.5 -709.3 L-287.6 -708.3 L-287.6 -707.3 L-287.6 -706.3 L-287.6 -705.3 L-287.7 -704.3 L-287.7 -703.3 L-287.7 -702.3 L-287.7 -701.3 L-287.7 -700.3 L-287.8 -699.4 L-287.8 -698.4 L-287.8 -697.4 L-287.8 -696.4 L-287.8 -695.4 L-287.9 -694.4 L-287.9 -693.4 L-287.9 -692.4 L-287.9 -691.4 L-287.9 -690.4 L-288 -689.5 L-288 -688.5 L-288 -687.5 L-289 -687.5 L-290 -687.5 L-291 -687.5 L-292 -687.6 L-293 -687.6 L-293.9 -687.6 L-294.9 -687.6 L-295.9 -687.6 L-296.9 -687.7 L-297.9 -687.7 L-298.9 -687.7 L-299.9 -687.7 L-300.9 -687.8 L-301.9 -687.8 L-302.9 -687.8 L-303.8 -687.8 L-304.8 -687.8 L-305.8 -687.9 L-306.8 -687.9 L-307.8 -687.9 L-308.8 -687.9 L-309.8 -687.9 L-310.8 -688 L-311.8 -688 L-312.7 -688 L-312.7 -689 L-312.7 -690 L-312.7 -691 L-312.7 -692 L-312.6 -692.9 L-312.6 -693.9 L-312.6 -694.9 L-312.6 -695.9 L-312.6 -696.9 L-312.5 -697.9 L-312.5 -698.9 L-312.5 -699.9 L-312.5 -700.9 L-312.5 -701.9 L-312.4 -702.8 L-312.4 -703.8 L-312.4 -704.8 L-312.4 -705.8 L-312.4 -706.8 L-312.3 -707.8 L-312.3 -708.8 L-312.3 -709.8 L-312.3 -710.8 L-312.2 -711.8 L-312.2 -712.7 Z " />
<path stroke="rgb(0,0,0)" stroke-opacity="0.981" fill="rgb(255,255,255)" fill-opacity="1" d="M324.8 -199.7 L324.7 -197.8 L324.4 -195.8 L324 -193.9 L323.4 -192 L322.7 -190.2 L321.9 -188.4 L320.9 -186.7 L319.7 -185.1 L318.5 -183.6 L317.1 -182.1 L315.7 -180.8 L314.1 -179.7 L312.4 -178.6 L310.7 -177.7 L308.9 -176.9 L307 -176.3 L305.1 -175.8 L303.2 -175.5 L301.2 -175.3 L299.2 -175.3 L297.3 -175.4 L295.3 -175.7 L293.4 -176.1 L291.5 -176.7 L289.7 -177.5 L288 -178.4 L286.3 -179.4 L284.7 -180.6 L283.2 -181.8 L281.8 -183.2 L280.5 -184.7 L279.4 -186.3 L278.4 -188 L277.5 -189.8 L276.7 -191.6 L276.1 -193.5 L275.7 -195.4 L275.4 -197.3 L275.3 -199.3 L275.3 -201.3 L275.5 -203.2 L275.8 -205.2 L276.3 -207.1 L276.9 -208.9 L277.7 -210.7 L278.6 -212.5 L279.7 -214.1 L280.9 -215.7 L282.2 -217.2 L283.6 -218.5 L285.1 -219.8 L286.7 -220.9 L288.4 -221.9 L290.2 -222.7 L292.1 -223.4 L293.9 -224 L295.9 -224.4 L297.8 -224.7 L299.8 -224.8 L301.7 -224.7 L303.7 -224.5 L305.6 -224.1 L307.5 -223.6 L309.4 -222.9 L311.2 -222.1 L312.9 -221.1 L314.5 -220 L316.1 -218.8 L317.5 -217.5 L318.9 -216 L320.1 -214.5 L321.2 -212.9 L322.1 -211.1 L322.9 -209.3 L323.6 -207.5 L324.1 -205.6 L324.5 -203.7 L324.7 -201.7 L324.8 -199.7 Z " />
<path stroke="rgb(0,0,0)" stroke-opacity="1" fill="rgb(255,255,255)" fill-opacity="1" d="M-801.6 -623.8 L-800.6 -622.9 L-799.6 -622 L-798.6 -621.1 L-797.6 -620.2 L-796.6 -619.3 L-795.6 -618.4 L-794.6 -617.6 L-793.6 -616.7 L-792.5 -615.8 L-791.5 -614.9 L-790.5 -614 L-789.5 -613.1 L-788.5 -612.2 L-787.5 -611.3 L-786.5 -610.4 L-785.5 -609.5 L-784.5 -608.6 L-783.5 -607.7 L-782.4 -606.8 L-781.4 -605.9 L-780.4 -605 L-779.4 -604.1 L-778.4 -603.2 L-777.4 -602.3 L-776.4 -601.4 L-777.3 -600.4 L-778.2 -599.4 L-779.1 -598.4 L-780 -597.4 L-780.9 -596.4 L-781.8 -595.3 L-782.7 -594.3 L-783.6 -593.3 L-784.5 -592.3 L-785.4 -591.3 L-786.3 -590.3 L-787.2 -589.3 L-788.1 -588.3 L-788.9 -587.3 L-789.8 -586.3 L-790.7 -585.3 L-791.6 -584.2 L-792.5 -583.2 L-793.4 -582.2 L-794.3 -581.2 L-795.2 -580.2 L-796.1 -579.2 L-797 -578.2 L-797.9 -577.2 L-798.8 -576.2 L-799.8 -577.1 L-800.8 -578 L-801.8 -578.9 L-802.9 -579.8 L-803.9 -580.7 L-804.9 -581.6 L-805.9 -582.4 L-806.9 -583.3 L-807.9 -584.2 L-808.9 -585.1 L-809.9 -586 L-810.9 -586.9 L-811.9 -587.8 L-812.9 -588.7 L-814 -589.6 L-815 -590.5 L-816 -591.4 L-817 -592.3 L-818 -593.2 L-819 -594.1 L-820 -595 L-821 -595.9 L-822 -596.8 L-823 -597.7 L-824.1 -598.6 L-823.2 -599.6 L-822.3 -600.6 L-821.4 -601.6 L-820.5 -602.6 L-819.6 -603.6 L-818.7 -604.7 L-817.8 -605.7 L-816.9 -606.7 L-816 -607.7 L-815.1 -608.7 L-814.2 -609.7 L-813.3 -610.7 L-812.4 -611.7 L-811.5 -612.7 L-810.6 -613.7 L-809.7 -614.7 L-808.8 -615.8 L-807.9 -616.8 L-807 -617.8 L-806.1 -618.8 L-805.2 -619.8 L-804.3 -620.8 L-803.4 -621.8 L-802.5 -622.8 L-801.6 -623.8 Z " />
<path stroke="rgb(0,0,0)" stroke-opacity="0.981" fill="rgb(255,255,255)" fill-opacity="1" d="M-175.2 -99.73 L-175.3 -97.77 L-175.6 -95.82 L-176 -93.89 L-176.6 -92.01 L-177.3 -90.17 L-178.1 -88.4 L-179.1 -86.7 L-180.3 -85.08 L-181.5 -83.56 L-182.9 -82.14 L-184.3 -80.84 L-185.9 -79.65 L-187.6 -78.6 L-189.3 -77.68 L-191.1 -76.9 L-193 -76.27 L-194.9 -75.78 L-196.8 -75.46 L-198.8 -75.28 L-200.8 -75.26 L-202.7 -75.4 L-204.7 -75.7 L-206.6 -76.15 L-208.5 -76.74 L-210.3 -77.49 L-212 -78.38 L-213.7 -79.4 L-215.3 -80.56 L-216.8 -81.84 L-218.2 -83.23 L-219.5 -84.73 L-220.6 -86.32 L-221.6 -88.01 L-222.5 -89.76 L-223.3 -91.59 L-223.9 -93.46 L-224.3 -95.38 L-224.6 -97.33 L-224.7 -99.29 L-224.7 -101.3 L-224.5 -103.2 L-224.2 -105.2 L-223.7 -107.1 L-223.1 -108.9 L-222.3 -110.7 L-221.4 -112.5 L-220.3 -114.1 L-219.1 -115.7 L-217.8 -117.2 L-216.4 -118.5 L-214.9 -119.8 L-213.3 -120.9 L-211.6 -121.9 L-209.8 -122.7 L-207.9 -123.4 L-206.1 -124 L-204.1 -124.4 L-202.2 -124.7 L-200.2 -124.8 L-198.3 -124.7 L-196.3 -124.5 L-194.4 -124.1 L-192.5 -123.6 L-190.6 -122.9 L-188.8 -122.1 L-187.1 -121.1 L-185.5 -120 L-183.9 -118.8 L-182.5 -117.5 L-181.1 -116 L-179.9 -114.5 L-178.8 -112.9 L-177.9 -111.1 L-177.1 -109.3 L-176.4 -107.5 L-175.9 -105.6 L-175.5 -103.7 L-175.3 -101.7 L-175.2 -99.73 Z " />
<path stroke="rgb(0,0,0)" stroke-opacity="1" fill="rgb(255,255,255)" fill-opacity="1" d="M-610.8 -615.6 L-609.7 -615.4 L-608.7 -615.2 L-607.6 -615 L-606.6 -614.8 L-605.5 -614.6 L-604.5 -614.4 L-603.4 -614.2 L-602.4 -614 L-601.3 -613.8 L-600.3 -613.6 L-599.3 -613.4 L-598.2 -613.3 L-597.2 -613.1 L-596.1 -612.9 L-595.1 -612.7 L-594 -612.5 L-593 -612.3 L-591.9 -612.1 L-590.9 -611.9 L-589.8 -611.7 L-588.8 -611.5 L-587.8 -611.3 L-586.7 -611.1 L-585.7 -610.9 L-584.6 -610.7 L-584.8 -609.7 L-585 -608.6 L-585.2 -607.6 L-585.4 -606.5 L-585.6 -605.5 L-585.8 -604.4 L-586 -603.4 L-586.2 -602.3 L-586.4 -601.3 L-586.6 -600.3 L-586.8 -599.2 L-587 -598.2 L-587.2 -597.1 L-587.4 -596.1 L-587.5 -595 L-587.7 -594 L-587.9 -592.9 L-588.1 -591.9 L-588.3 -590.8 L-588.5 -589.8 L-588.7 -588.8 L-588.9 -587.7 L-589.1 -586.7 L-589.3 -585.6 L-589.5 -584.6 L-590.5 -584.8 L-591.6 -585 L-592.6 -585.2 L-593.7 -585.3 L-594.7 -585.5 L-595.8 -585.7 L-596.8 -585.9 L-597.9 -586.1 L-598.9 -586.3 L-600 -586.5 L-601 -586.7 L-602.1 -586.9 L-603.1 -587.1 L-604.1 -587.3 L-605.2 -587.5 L-606.2 -587.7 L-607.3 -587.9 L-608.3 -588.1 L-609.4 -588.3 L-610.4 -588.5 L-611.5 -588.7 L-612.5 -588.9 L-613.6 -589.1 L-614.6 -589.3 L-615.6 -589.5 L-615.5 -590.5 L-615.3 -591.5 L-615.1 -592.6 L-614.9 -593.6 L-614.7 -594.7 L-614.5 -595.7 L-614.3 -596.8 L-614.1 -597.8 L-613.9 -598.9 L-613.7 -599.9 L-613.5 -601 L-613.3 -602 L-613.1 -603 L-612.9 -604.1 L-612.7 -605.1 L-612.5 -606.2 L-612.3 -607.2 L-612.1 -608.3 L-611.9 -609.3 L-611.7 -610.4 L-611.5 -611.4 L-611.3 -612.5 L-611.2 -613.5 L-611 -614.6 L-610.8 -615.6 Z " />
<path stroke="rgb(0,0,0)" stroke-opacity="0.981" fill="rgb(255,255,255)" fill-opacity="1" d="M24.75 -99.73 L24.65 -97.77 L24.4 -95.82 L23.99 -93.89 L23.43 -92.01 L22.72 -90.17 L21.86 -88.4 L20.87 -86.7 L19.75 -85.08 L18.5 -83.56 L17.14 -82.14 L15.66 -80.84 L14.09 -79.65 L12.43 -78.6 L10.69 -77.68 L8.881 -76.9 L7.018 -76.27 L5.11 -75.78 L3.169 -75.46 L1.209 -75.28 L-0.7591 -75.26 L-2.722 -75.4 L-4.668 -75.7 L-6.584 -76.15 L-8.459 -76.74 L-10.28 -77.49 L-12.04 -78.38 L-13.72 -79.4 L-15.31 -80.56 L-16.81 -81.84 L-18.2 -83.23 L-19.47 -84.73 L-20.62 -86.32 L-21.65 -88.01 L-22.53 -89.76 L-23.27 -91.59 L-23.87 -93.46 L-24.31 -95.38 L-24.6 -97.33 L-24.74 -99.29 L-24.72 -101.3 L-24.54 -103.2 L-24.21 -105.2 L-23.72 -107.1 L-23.08 -108.9 L-22.3 -110.7 L-21.38 -112.5 L-20.32 -114.1 L-19.13 -115.7 L-17.83 -117.2 L-16.41 -118.5 L-14.88 -119.8 L-13.26 -120.9 L-11.56 -121.9 L-9.786 -122.7 L-7.949 -123.4 L-6.062 -124 L-4.136 -124.4 L-2.185 -124.7 L-0.2188 -124.8 L1.748 -124.7 L3.704 -124.5 L5.637 -124.1 L7.534 -123.6 L9.383 -122.9 L11.17 -122.1 L12.89 -121.1 L14.53 -120 L16.08 -118.8 L17.52 -117.5 L18.86 -116 L20.07 -114.5 L21.16 -112.9 L22.11 -111.1 L22.93 -109.3 L23.6 -107.5 L24.12 -105.6 L24.48 -103.7 L24.7 -101.7 L24.75 -99.73 Z " />
<path stroke="rgb(0,0,0)" stroke-opacity="1" fill="rgb(255,255,255)" fill-opacity="1" d="M-412.2 -612.7 L-411.2 -612.7 L-410.2 -612.7 L-409.3 -612.7 L-408.3 -612.7 L-407.3 -612.6 L-406.3 -612.6 L-405.3 -612.6 L-404.3 -612.6 L-403.3 -612.6 L-402.3 -612.5 L-401.3 -612.5 L-400.4 -612.5 L-399.4 -612.5 L-398.4 -612.5 L-397.4 -612.4 L-396.4 -612.4 L-395.4 -612.4 L-394.4 -612.4 L-393.4 -612.3 L-392.4 -612.3 L-391.4 -612.3 L-390.5 -612.3 L-389.5 -612.3 L-388.5 -612.2 L-387.5 -612.2 L-387.5 -611.2 L-387.5 -610.2 L-387.5 -609.3 L-387.6 -608.3 L-387.6 -607.3 L-387.6 -606.3 L-387.6 -605.3 L-387.7 -604.3 L-387.7 -603.3 L-387.7 -602.3 L-387.7 -601.3 L-387.7 -600.3 L-387.8 -599.4 L-387.8 -598.4 L-387.8 -597.4 L-387.8 -596.4 L-387.8 -595.4 L-387.9 -594.4 L-387.9 -593.4 L-387.9 -592.4 L-387.9 -591.4 L-387.9 -590.4 L-388 -589.5 L-388 -588.5 L-388 -587.5 L-389 -587.5 L-390 -587.5 L-391 -587.5 L-392 -587.6 L-393 -587.6 L-393.9 -587.6 L-394.9 -587.6 L-395.9 -587.6 L-396.9 -587.7 L-397.9 -587.7 L-398.9 -587.7 L-399.9 -587.7 L-400.9 -587.8 L-401.9 -587.8 L-402.9 -587.8 L-403.8 -587.8 L-404.8 -587.8 L-405.8 -587.9 L-406.8 -587.9 L-407.8 -587.9 L-408.8 -587.9 L-409.8 -587.9 L-410.8 -588 L-411.8 -588 L-412.7 -588 L-412.7 -589 L-412.7 -590 L-412.7 -591 L-412.7 -592 L-412.6 -592.9 L-412.6 -593.9 L-412.6 -594.9 L-412.6 -595.9 L-412.6 -596.9 L-412.5 -597.9 L-412.5 -598.9 L-412.5 -599.9 L-412.5 -600.9 L-412.5 -601.9 L-412.4 -602.8 L-412.4 -603.8 L-412.4 -604.8 L-412.4 -605.8 L-412.4 -606.8 L-412.3 -607.8 L-412.3 -608.8 L-412.3 -609.8 L-412.3 -610.8 L-412.2 -611.8 L-412.2 -612.7 Z " />
<path stroke="rgb(0,0,0)" stroke-opacity="0.981" fill="rgb(255,255,255)" fill-opacity="1" d="M224.8 -99.73 L224.7 -97.77 L224.4 -95.82 L224 -93.89 L223.4 -92.01 L222.7 -90.17 L221.9 -88.4 L220.9 -86.7 L219.7 -85.08 L218.5 -83.56 L217.1 -82.14 L215.7 -80.84 L214.1 -79.65 L212.4 -78.6 L210.7 -77.68 L208.9 -76.9 L207 -76.27 L205.1 -75.78 L203.2 -75.46 L201.2 -75.28 L199.2 -75.26 L197.3 -75.4 L195.3 -75.7 L193.4 -76.15 L191.5 -76.74 L189.7 -77.49 L188 -78.38 L186.3 -79.4 L184.7 -80.56 L183.2 -81.84 L181.8 -83.23 L180.5 -84.73 L179.4 -86.32 L178.4 -88.01 L177.5 -89.76 L176.7 -91.59 L176.1 -93.46 L175.7 -95.38 L175.4 -97.33 L175.3 -99.29 L175.3 -101.3 L175.5 -103.2 L175.8 -105.2 L176.3 -107.1 L176.9 -108.9 L177.7 -110.7 L178.6 -112.5 L179.7 -114.1 L180.9 -115.7 L182.2 -117.2 L183.6 -118.5 L185.1 -119.8 L186.7 -120.9 L188.4 -121.9 L190.2 -122.7 L192.1 -123.4 L193.9 -124 L195.9 -124.4 L197.8 -124.7 L199.8 -124.8 L201.7 -124.7 L203.7 -124.5 L205.6 -124.1 L207.5 -123.6 L209.4 -122.9 L211.2 -122.1 L212.9 -121.1 L214.5 -120 L216.1 -118.8 L217.5 -117.5 L218.9 -116 L220.1 -114.5 L221.2 -112.9 L222.1 -111.1 L222.9 -109.3 L223.6 -107.5 L224.1 -105.6 L224.5 -103.7 L224.7 -101.7 L224.8 -99.73 Z " />
<path stroke="rgb(0,0,0)" stroke-opacity="1" fill="rgb(255,255,255)" fill-opacity="1" d="M-212.3 -612.5 L-211.3 -612.5 L-210.3 -612.5 L-209.4 -612.5 L-208.4 -612.5 L-207.4 -612.5 L-206.4 -612.5 L-205.4 -612.5 L-204.4 -612.5 L-203.4 -612.5 L-202.5 -612.4 L-201.5 -612.4 L-200.5 -612.4 L-199.5 -612.4 L-198.5 -612.4 L-197.5 -612.4 L-196.5 -612.4 L-195.6 -612.4 L-194.6 -612.4 L-193.6 -612.4 L-192.6 -612.4 L-191.6 -612.3 L-190.6 -612.3 L-189.7 -612.3 L-188.7 -612.3 L-187.7 -612.3 L-187.7 -611.3 L-187.7 -610.3 L-187.7 -609.3 L-187.7 -608.4 L-187.7 -607.4 L-187.7 -606.4 L-187.8 -605.4 L-187.8 -604.4 L-187.8 -603.4 L-187.8 -602.5 L-187.8 -601.5 L-187.8 -600.5 L-187.8 -599.5 L-187.8 -598.5 L-187.8 -597.5 L-187.8 -596.5 L-187.8 -595.6 L-187.9 -594.6 L-187.9 -593.6 L-187.9 -592.6 L-187.9 -591.6 L-187.9 -590.6 L-187.9 -589.7 L-187.9 -588.7 L-187.9 -587.7 L-188.9 -587.7 L-189.9 -587.7 L-190.9 -587.7 L-191.9 -587.7 L-192.8 -587.7 L-193.8 -587.7 L-194.8 -587.7 L-195.8 -587.8 L-196.8 -587.8 L-197.8 -587.8 L-198.8 -587.8 L-199.7 -587.8 L-200.7 -587.8 L-201.7 -587.8 L-202.7 -587.8 L-203.7 -587.8 L-204.7 -587.8 L-205.7 -587.9 L-206.6 -587.9 L-207.6 -587.9 L-208.6 -587.9 L-209.6 -587.9 L-210.6 -587.9 L-211.6 -587.9 L-212.5 -587.9 L-212.5 -588.9 L-212.5 -589.9 L-212.5 -590.9 L-212.5 -591.9 L-212.5 -592.8 L-212.5 -593.8 L-212.5 -594.8 L-212.5 -595.8 L-212.5 -596.8 L-212.5 -597.8 L-212.4 -598.8 L-212.4 -599.7 L-212.4 -600.7 L-212.4 -601.7 L-212.4 -602.7 L-212.4 -603.7 L-212.4 -604.7 L-212.4 -605.7 L-212.4 -606.6 L-212.4 -607.6 L-212.3 -608.6 L-212.3 -609.6 L-212.3 -610.6 L-212.3 -611.6 L-212.3 -612.5 Z " />
<path stroke="rgb(0,0,0)" stroke-opacity="0.981" fill="rgb(255,255,255)" fill-opacity="1" d="M-275.2 0.2668 L-275.3 2.232 L-275.6 4.184 L-276 6.109 L-276.6 7.995 L-277.3 9.83 L-278.1 11.6 L-279.1 13.3 L-280.3 14.92 L-281.5 16.44 L-282.9 17.86 L-284.3 19.16 L-285.9 20.35 L-287.6 21.4 L-289.3 22.32 L-291.1 23.1 L-293 23.73 L-294.9 24.22 L-296.8 24.54 L-298.8 24.72 L-300.8 24.74 L-302.7 24.6 L-304.7 24.3 L-306.6 23.85 L-308.5 23.26 L-310.3 22.51 L-312 21.62 L-313.7 20.6 L-315.3 19.44 L-316.8 18.16 L-318.2 16.77 L-319.5 15.27 L-320.6 13.68 L-321.6 11.99 L-322.5 10.24 L-323.3 8.414 L-323.9 6.538 L-324.3 4.62 L-324.6 2.674 L-324.7 0.7106 L-324.7 -1.257 L-324.5 -3.217 L-324.2 -5.157 L-323.7 -7.064 L-323.1 -8.926 L-322.3 -10.73 L-321.4 -12.47 L-320.3 -14.13 L-319.1 -15.7 L-317.8 -17.17 L-316.4 -18.53 L-314.9 -19.78 L-313.3 -20.9 L-311.6 -21.89 L-309.8 -22.74 L-307.9 -23.44 L-306.1 -24 L-304.1 -24.41 L-302.2 -24.66 L-300.2 -24.75 L-298.3 -24.69 L-296.3 -24.48 L-294.4 -24.1 L-292.5 -23.58 L-290.6 -22.91 L-288.8 -22.09 L-287.1 -21.13 L-285.5 -20.04 L-283.9 -18.82 L-282.5 -17.49 L-281.1 -16.04 L-279.9 -14.49 L-278.8 -12.85 L-277.9 -11.13 L-277.1 -9.339 L-276.4 -7.488 L-275.9 -5.59 L-275.5 -3.657 L-275.3 -1.7 L-275.2 0.2668 Z " />
<path stroke="rgb(0,0,0)" stroke-opacity="1" fill="rgb(255,255,255)" fill-opacity="1" d="M-710.8 -515.6 L-709.7 -515.4 L-708.7 -515.2 L-707.6 -515 L-706.6 -514.8 L-705.5 -514.6 L-704.5 -514.4 L-703.4 -514.2 L-702.4 -514 L-701.3 -513.8 L-700.3 -513.6 L-699.3 -513.4 L-698.2 -513.3 L-697.2 -513.1 L-696.1 -512.9 L-695.1 -512.7 L-694 -512.5 L-693 -512.3 L-691.9 -512.1 L-690.9 -511.9 L-689.8 -511.7 L-688.8 -511.5 L-687.8 -511.3 L-686.7 -511.1 L-685.7 -510.9 L-684.6 -510.7 L-684.8 -509.7 L-685 -508.6 L-685.2 -507.6 L-685.4 -506.5 L-685.6 -505.5 L-685.8 -504.4 L-686 -503.4 L-686.2 -502.3 L-686.4 -501.3 L-686.6 -500.3 L-686.8 -499.2 L-687 -498.2 L-687.2 -497.1 L-687.4 -496.1 L-687.5 -495 L-687.7 -494 L-687.9 -492.9 L-688.1 -491.9 L-688.3 -490.8 L-688.5 -489.8 L-688.7 -488.8 L-688.9 -487.7 L-689.1 -486.7 L-689.3 -485.6 L-689.5 -484.6 L-690.5 -484.8 L-691.6 -485 L-692.6 -485.2 L-693.7 -485.3 L-694.7 -485.5 L-695.8 -485.7 L-696.8 -485.9 L-697.9 -486.1 L-698.9 -486.3 L-700 -486.5 L-701 -486.7 L-702.1 -486.9 L-703.1 -487.1 L-704.1 -487.3 L-705.2 -487.5 L-706.2 -487.7 L-707.3 -487.9 L-708.3 -488.1 L-709.4 -488.3 L-710.4 -488.5 L-711.5 -488.7 L-712.5 -488.9 L-713.6 -489.1 L-714.6 -489.3 L-715.6 -489.5 L-715.5 -490.5 L-715.3 -491.5 L-715.1 -492.6 L-714.9 -493.6 L-714.7 -494.7 L-714.5 -495.7 L-714.3 -496.8 L-714.1 -497.8 L-713.9 -498.9 L-713.7 -499.9 L-713.5 -501 L-713.3 -502 L-713.1 -503 L-712.9 -504.1 L-712.7 -505.1 L-712.5 -506.2 L-712.3 -507.2 L-712.1 -508.3 L-711.9 -509.3 L-711.7 -510.4 L-711.5 -511.4 L-711.3 -512.5 L-711.2 -513.5 L-711 -514.6 L-710.8 -515.6 Z " />
<path stroke="rgb(0,0,0)" stroke-opacity="0.981" fill="rgb(255,255,255)" fill-opacity="1" d="M-75.25 0.2668 L-75.35 2.232 L-75.6 4.184 L-76.01 6.109 L-76.57 7.995 L-77.28 9.83 L-78.14 11.6 L-79.13 13.3 L-80.25 14.92 L-81.5 16.44 L-82.86 17.86 L-84.34 19.16 L-85.91 20.35 L-87.57 21.4 L-89.31 22.32 L-91.12 23.1 L-92.98 23.73 L-94.89 24.22 L-96.83 24.54 L-98.79 24.72 L-100.8 24.74 L-102.7 24.6 L-104.7 24.3 L-106.6 23.85 L-108.5 23.26 L-110.3 22.51 L-112 21.62 L-113.7 20.6 L-115.3 19.44 L-116.8 18.16 L-118.2 16.77 L-119.5 15.27 L-120.6 13.68 L-121.6 11.99 L-122.5 10.24 L-123.3 8.414 L-123.9 6.538 L-124.3 4.62 L-124.6 2.674 L-124.7 0.7106 L-124.7 -1.257 L-124.5 -3.217 L-124.2 -5.157 L-123.7 -7.064 L-123.1 -8.926 L-122.3 -10.73 L-121.4 -12.47 L-120.3 -14.13 L-119.1 -15.7 L-117.8 -17.17 L-116.4 -18.53 L-114.9 -19.78 L-113.3 -20.9 L-111.6 -21.89 L-109.8 -22.74 L-107.9 -23.44 L-106.1 -24 L-104.1 -24.41 L-102.2 -24.66 L-100.2 -24.75 L-98.25 -24.69 L-96.3 -24.48 L-94.36 -24.1 L-92.47 -23.58 L-90.62 -22.91 L-88.83 -22.09 L-87.11 -21.13 L-85.47 -20.04 L-83.92 -18.82 L-82.48 -17.49 L-81.14 -16.04 L-79.93 -14.49 L-78.84 -12.85 L-77.89 -11.13 L-77.07 -9.339 L-76.4 -7.488 L-75.88 -5.59 L-75.52 -3.657 L-75.3 -1.7 L-75.25 0.2668 Z " />
<path stroke="rgb(0,0,0)" stroke-opacity="1" fill="rgb(255,255,255)" fill-opacity="1" d="M-512.2 -512.7 L-511.2 -512.7 L-510.2 -512.7 L-509.3 -512.7 L-508.3 -512.7 L-507.3 -512.6 L-506.3 -512.6 L-505.3 -512.6 L-504.3 -512.6 L-503.3 -512.6 L-502.3 -512.5 L-501.3 -512.5 L-500.4 -512.5 L-499.4 -512.5 L-498.4 -512.5 L-497.4 -512.4 L-496.4 -512.4 L-495.4 -512.4 L-494.4 -512.4 L-493.4 -512.3 L-492.4 -512.3 L-491.4 -512.3 L-490.5 -512.3 L-489.5 -512.3 L-488.5 -512.2 L-487.5 -512.2 L-487.5 -511.2 L-487.5 -510.2 L-487.5 -509.3 L-487.6 -508.3 L-487.6 -507.3 L-487.6 -506.3 L-487.6 -505.3 L-487.7 -504.3 L-487.7 -503.3 L-487.7 -502.3 L-487.7 -501.3 L-487.7 -500.3 L-487.8 -499.4 L-487.8 -498.4 L-487.8 -497.4 L-487.8 -496.4 L-487.8 -495.4 L-487.9 -494.4 L-487.9 -493.4 L-487.9 -492.4 L-487.9 -491.4 L-487.9 -490.4 L-488 -489.5 L-488 -488.5 L-488 -487.5 L-489 -487.5 L-490 -487.5 L-491 -487.5 L-492 -487.6 L-493 -487.6 L-493.9 -487.6 L-494.9 -487.6 L-495.9 -487.6 L-496.9 -487.7 L-497.9 -487.7 L-498.9 -487.7 L-499.9 -487.7 L-500.9 -487.8 L-501.9 -487.8 L-502.9 -487.8 L-503.8 -487.8 L-504.8 -487.8 L-505.8 -487.9 L-506.8 -487.9 L-507.8 -487.9 L-508.8 -487.9 L-509.8 -487.9 L-510.8 -488 L-511.8 -488 L-512.7 -488 L-512.7 -489 L-512.7 -490 L-512.7 -491 L-512.7 -492 L-512.6 -492.9 L-512.6 -493.9 L-512.6 -494.9 L-512.6 -495.9 L-512.6 -496.9 L-512.5 -497.9 L-512.5 -498.9 L-512.5 -499.9 L-512.5 -500.9 L-512.5 -501.9 L-512.4 -502.8 L-512.4 -503.8 L-512.4 -504.8 L-512.4 -505.8 L-512.4 -506.8 L-512.3 -507.8 L-512.3 -508.8 L-512.3 -509.8 L-512.3 -510.8 L-512.2 -511.8 L-512.2 -512.7 Z " />
<path stroke="rgb(0,0,0)" stroke-opacity="0.981" fill="rgb(255,255,255)" fill-opacity="1" d="M124.8 0.2668 L124.7 2.232 L124.4 4.184 L124 6.109 L123.4 7.995 L122.7 9.83 L121.9 11.6 L120.9 13.3 L119.7 14.92 L118.5 16.44 L117.1 17.86 L115.7 19.16 L114.1 20.35 L112.4 21.4 L110.7 22.32 L108.9 23.1 L107 23.73 L105.1 24.22 L103.2 24.54 L101.2 24.72 L99.24 24.74 L97.28 24.6 L95.33 24.3 L93.42 23.85 L91.54 23.26 L89.72 22.51 L87.96 21.62 L86.28 20.6 L84.69 19.44 L83.19 18.16 L81.8 16.77 L80.53 15.27 L79.38 13.68 L78.35 11.99 L77.47 10.24 L76.73 8.414 L76.13 6.538 L75.69 4.62 L75.4 2.674 L75.26 0.7106 L75.28 -1.257 L75.46 -3.217 L75.79 -5.157 L76.28 -7.064 L76.92 -8.926 L77.7 -10.73 L78.62 -12.47 L79.68 -14.13 L80.87 -15.7 L82.17 -17.17 L83.59 -18.53 L85.12 -19.78 L86.74 -20.9 L88.44 -21.89 L90.21 -22.74 L92.05 -23.44 L93.94 -24 L95.86 -24.41 L97.82 -24.66 L99.78 -24.75 L101.7 -24.69 L103.7 -24.48 L105.6 -24.1 L107.5 -23.58 L109.4 -22.91 L111.2 -22.09 L112.9 -21.13 L114.5 -20.04 L116.1 -18.82 L117.5 -17.49 L118.9 -16.04 L120.1 -14.49 L121.2 -12.85 L122.1 -11.13 L122.9 -9.339 L123.6 -7.488 L124.1 -5.59 L124.5 -3.657 L124.7 -1.7 L124.8 0.2668 Z " />
<path stroke="rgb(0,0,0)" stroke-opacity="1" fill="rgb(255,255,255)" fill-opacity="1" d="M-312.3 -512.5 L-311.3 -512.5 L-310.3 -512.5 L-309.4 -512.5 L-308.4 -512.5 L-307.4 -512.5 L-306.4 -512.5 L-305.4 -512.5 L-304.4 -512.5 L-303.4 -512.5 L-302.5 -512.4 L-301.5 -512.4 L-300.5 -512.4 L-299.5 -512.4 L-298.5 -512.4 L-297.5 -512.4 L-296.5 -512.4 L-295.6 -512.4 L-294.6 -512.4 L-293.6 -512.4 L-292.6 -512.4 L-291.6 -512.3 L-290.6 -512.3 L-289.7 -512.3 L-288.7 -512.3 L-287.7 -512.3 L-287.7 -511.3 L-287.7 -510.3 L-287.7 -509.3 L-287.7 -508.4 L-287.7 -507.4 L-287.7 -506.4 L-287.8 -505.4 L-287.8 -504.4 L-287.8 -503.4 L-287.8 -502.5 L-287.8 -501.5 L-287.8 -500.5 L-287.8 -499.5 L-287.8 -498.5 L-287.8 -497.5 L-287.8 -496.5 L-287.8 -495.6 L-287.9 -494.6 L-287.9 -493.6 L-287.9 -492.6 L-287.9 -491.6 L-287.9 -490.6 L-287.9 -489.7 L-287.9 -488.7 L-287.9 -487.7 L-288.9 -487.7 L-289.9 -487.7 L-290.9 -487.7 L-291.9 -487.7 L-292.8 -487.7 L-293.8 -487.7 L-294.8 -487.7 L-295.8 -487.8 L-296.8 -487.8 L-297.8 -487.8 L-298.8 -487.8 L-299.7 -487.8 L-300.7 -487.8 L-301.7 -487.8 L-302.7 -487.8 L-303.7 -487.8 L-304.7 -487.8 L-305.7 -487.9 L-306.6 -487.9 L-307.6 -487.9 L-308.6 -487.9 L-309.6 -487.9 L-310.6 -487.9 L-311.6 -487.9 L-312.5 -487.9 L-312.5 -488.9 L-312.5 -489.9 L-312.5 -490.9 L-312.5 -491.9 L-312.5 -492.8 L-312.5 -493.8 L-312.5 -494.8 L-312.5 -495.8 L-312.5 -496.8 L-312.5 -497.8 L-312.4 -498.8 L-312.4 -499.7 L-312.4 -500.7 L-312.4 -501.7 L-312.4 -502.7 L-312.4 -503.7 L-312.4 -504.7 L-312.4 -505.7 L-312.4 -506.6 L-312.4 -507.6 L-312.3 -508.6 L-312.3 -509.6 L-312.3 -510.6 L-312.3 -511.6 L-312.3 -512.5 Z " />
<path stroke="rgb(0,0,0)" stroke-opacity="0.981" fill="rgb(255,255,255)" fill-opacity="1" d="M324.8 0.2668 L324.7 2.232 L324.4 4.184 L324 6.109 L323.4 7.995 L322.7 9.83 L321.9 11.6 L320.9 13.3 L319.7 14.92 L318.5 16.44 L317.1 17.86 L315.7 19.16 L314.1 20.35 L312.4 21.4 L310.7 22.32 L308.9 23.1 L307 23.73 L305.1 24.22 L303.2 24.54 L301.2 24.72 L299.2 24.74 L297.3 24.6 L295.3 24.3 L293.4 23.85 L291.5 23.26 L289.7 22.51 L288 21.62 L286.3 20.6 L284.7 19.44 L283.2 18.16 L281.8 16.77 L280.5 15.27 L279.4 13.68 L278.4 11.99 L277.5 10.24 L276.7 8.414 L276.1 6.538 L275.7 4.62 L275.4 2.674 L275.3 0.7106 L275.3 -1.257 L275.5 -3.217 L275.8 -5.157 L276.3 -7.064 L276.9 -8.926 L277.7 -10.73 L278.6 -12.47 L279.7 -14.13 L280.9 -15.7 L282.2 -17.17 L283.6 -18.53 L285.1 -19.78 L286.7 -20.9 L288.4 -21.89 L290.2 -22.74 L292.1 -23.44 L293.9 -24 L295.9 -24.41 L297.8 -24.66 L299.8 -24.75 L301.7 -24.69 L303.7 -24.48 L305.6 -24.1 L307.5 -23.58 L309.4 -22.91 L311.2 -22.09 L312.9 -21.13 L314.5 -20.04 L316.1 -18.82 L317.5 -17.49 L318.9 -16.04 L320.1 -14.49 L321.2 -12.85 L322.1 -11.13 L322.9 -9.339 L323.6 -7.488 L324.1 -5.59 L324.5 -3.657 L324.7 -1.7 L324.8 0.2668 Z " />
<path stroke="rgb(0,0,0)" stroke-opacity="1" fill="rgb(255,255,255)" fill-opacity="1" d="M-810.8 -415.6 L-809.7 -415.4 L-808.7 -415.2 L-807.6 -415 L-806.6 -414.8 L-805.5 -414.6 L-804.5 -414.4 L-803.4 -414.2 L-802.4 -414 L-801.3 -413.8 L-800.3 -413.6 L-799.3 -413.4 L-798.2 -413.3 L-797.2 -413.1 L-796.1 -412.9 L-795.1 -412.7 L-794 -412.5 L-793 -412.3 L-791.9 -412.1 L-790.9 -411.9 L-789.8 -411.7 L-788.8 -411.5 L-787.8 -411.3 L-786.7 -411.1 L-785.7 -410.9 L-784.6 -410.7 L-784.8 -409.7 L-785 -408.6 L-785.2 -407.6 L-785.4 -406.5 L-785.6 -405.5 L-785.8 -404.4 L-786 -403.4 L-786.2 -402.3 L-786.4 -401.3 L-786.6 -400.3 L-786.8 -399.2 L-787 -398.2 L-787.2 -397.1 L-787.4 -396.1 L-787.5 -395 L-787.7 -394 L-787.9 -392.9 L-788.1 -391.9 L-788.3 -390.8 L-788.5 -389.8 L-788.7 -388.8 L-788.9 -387.7 L-789.1 -386.7 L-789.3 -385.6 L-789.5 -384.6 L-790.5 -384.8 L-791.6 -385 L-792.6 -385.2 L-793.7 -385.3 L-794.7 -385.5 L-795.8 -385.7 L-796.8 -385.9 L-797.9 -386.1 L-798.9 -386.3 L-800 -386.5 L-801 -386.7 L-802.1 -386.9 L-803.1 -387.1 L-804.1 -387.3 L-805.2 -387.5 L-806.2 -387.7 L-807.3 -387.9 L-808.3 -388.1 L-809.4 -388.3 L-810.4 -388.5 L-811.5 -388.7 L-812.5 -388.9 L-813.6 -389.1 L-814.6 -389.3 L-815.6 -389.5 L-815.5 -390.5 L-815.3 -391.5 L-815.1 -392.6 L-814.9 -393.6 L-814.7 -394.7 L-814.5 -395.7 L-814.3 -396.8 L-814.1 -397.8 L-813.9 -398.9 L-813.7 -399.9 L-813.5 -401 L-813.3 -402 L-813.1 -403 L-812.9 -404.1 L-812.7 -405.1 L-812.5 -406.2 L-812.3 -407.2 L-812.1 -408.3 L-811.9 -409.3 L-811.7 -410.4 L-811.5 -411.4 L-811.3 -412.5 L-811.2 -413.5 L-811 -414.6 L-810.8 -415.6 Z " />
<path stroke="rgb(0,0,0)" stroke-opacity="0.981" fill="rgb(255,255,255)" fill-opacity="1" d="M-175.2 100.3 L-175.3 102.2 L-175.6 104.2 L-176 106.1 L-176.6 108 L-177.3 109.8 L-178.1 111.6 L-179.1 113.3 L-180.3 114.9 L-181.5 116.4 L-182.9 117.9 L-184.3 119.2 L-185.9 120.3 L-187.6 121.4 L-189.3 122.3 L-191.1 123.1 L-193 123.7 L-194.9 124.2 L-196.8 124.5 L-198.8 124.7 L-200.8 124.7 L-202.7 124.6 L-204.7 124.3 L-206.6 123.9 L-208.5 123.3 L-210.3 122.5 L-212 121.6 L-213.7 120.6 L-215.3 119.4 L-216.8 118.2 L-218.2 116.8 L-219.5 115.3 L-220.6 113.7 L-221.6 112 L-222.5 110.2 L-223.3 108.4 L-223.9 106.5 L-224.3 104.6 L-224.6 102.7 L-224.7 100.7 L-224.7 98.74 L-224.5 96.78 L-224.2 94.84 L-223.7 92.94 L-223.1 91.07 L-222.3 89.27 L-221.4 87.53 L-220.3 85.87 L-219.1 84.3 L-217.8 82.83 L-216.4 81.47 L-214.9 80.22 L-213.3 79.1 L-211.6 78.11 L-209.8 77.26 L-207.9 76.56 L-206.1 76 L-204.1 75.59 L-202.2 75.34 L-200.2 75.25 L-198.3 75.31 L-196.3 75.52 L-194.4 75.9 L-192.5 76.42 L-190.6 77.09 L-188.8 77.91 L-187.1 78.87 L-185.5 79.96 L-183.9 81.18 L-182.5 82.51 L-181.1 83.96 L-179.9 85.51 L-178.8 87.15 L-177.9 88.87 L-177.1 90.66 L-176.4 92.51 L-175.9 94.41 L-175.5 96.34 L-175.3 98.3 L-175.2 100.3 Z " />
<path stroke="rgb(0,0,0)" stroke-opacity="1" fill="rgb(255,255,255)" fill-opacity="1" d="M-612.2 -412.7 L-611.2 -412.7 L-610.2 -412.7 L-609.3 -412.7 L-608.3 -412.7 L-607.3 -412.6 L-606.3 -412.6 L-605.3 -412.6 L-604.3 -412.6 L-603.3 -412.6 L-602.3 -412.5 L-601.3 -412.5 L-600.4 -412.5 L-599.4 -412.5 L-598.4 -412.5 L-597.4 -412.4 L-596.4 -412.4 L-595.4 -412.4 L-594.4 -412.4 L-593.4 -412.3 L-592.4 -412.3 L-591.4 -412.3 L-590.5 -412.3 L-589.5 -412.3 L-588.5 -412.2 L-587.5 -412.2 L-587.5 -411.2 L-587.5 -410.2 L-587.5 -409.3 L-587.6 -408.3 L-587.6 -407.3 L-587.6 -406.3 L-587.6 -405.3 L-587.7 -404.3 L-587.7 -403.3 L-587.7 -402.3 L-587.7 -401.3 L-587.7 -400.3 L-587.8 -399.4 L-587.8 -398.4 L-587.8 -397.4 L-587.8 -396.4 L-587.8 -395.4 L-587.9 -394.4 L-587.9 -393.4 L-587.9 -392.4 L-587.9 -391.4 L-587.9 -390.4 L-588 -389.5 L-588 -388.5 L-588 -387.5 L-589 -387.5 L-590 -387.5 L-591 -387.5 L-592 -387.6 L-593 -387.6 L-593.9 -387.6 L-594.9 -387.6 L-595.9 -387.6 L-596.9 -387.7 L-597.9 -387.7 L-598.9 -387.7 L-599.9 -387.7 L-600.9 -387.8 L-601.9 -387.8 L-602.9 -387.8 L-603.8 -387.8 L-604.8 -387.8 L-605.8 -387.9 L-606.8 -387.9 L-607.8 -387.9 L-608.8 -387.9 L-609.8 -387.9 L-610.8 -388 L-611.8 -388 L-612.7 -388 L-612.7 -389 L-612.7 -390 L-612.7 -391 L-612.7 -392 L-612.6 -392.9 L-612.6 -393.9 L-612.6 -394.9 L-612.6 -395.9 L-612.6 -396.9 L-612.5 -397.9 L-612.5 -398.9 L-612.5 -399.9 L-612.5 -400.9 L-612.5 -401.9 L-612.4 -402.8 L-612.4 -403.8 L-612.4 -404.8 L-612.4 -405.8 L-612.4 -406.8 L-612.3 -407.8 L-612.3 -408.8 L-612.3 -409.8 L-612.3 -410.8 L-612.2 -411.8 L-612.2 -412.7 Z " />
<path stroke="rgb(0,0,0)" stroke-opacity="0.981" fill="rgb(255,255,255)" fill-opacity="1" d="M24.75 100.3 L24.65 102.2 L24.4 104.2 L23.99 106.1 L23.43 108 L22.72 109.8 L21.86 111.6 L20.87 113.3 L19.75 114.9 L18.5 116.4 L17.14 117.9 L15.66 119.2 L14.09 120.3 L12.43 121.4 L10.69 122.3 L8.881 123.1 L7.018 123.7 L5.11 124.2 L3.169 124.5 L1.209 124.7 L-0.7591 124.7 L-2.722 124.6 L-4.668 124.3 L-6.584 123.9 L-8.459 123.3 L-10.28 122.5 L-12.04 121.6 L-13.72 120.6 L-15.31 119.4 L-16.81 118.2 L-18.2 116.8 L-19.47 115.3 L-20.62 113.7 L-21.65 112 L-22.53 110.2 L-23.27 108.4 L-23.87 106.5 L-24.31 104.6 L-24.6 102.7 L-24.74 100.7 L-24.72 98.74 L-24.54 96.78 L-24.21 94.84 L-23.72 92.94 L-23.08 91.07 L-22.3 89.27 L-21.38 87.53 L-20.32 85.87 L-19.13 84.3 L-17.83 82.83 L-16.41 81.47 L-14.88 80.22 L-13.26 79.1 L-11.56 78.11 L-9.786 77.26 L-7.949 76.56 L-6.062 76 L-4.136 75.59 L-2.185 75.34 L-0.2188 75.25 L1.748 75.31 L3.704 75.52 L5.637 75.9 L7.534 76.42 L9.383 77.09 L11.17 77.91 L12.89 78.87 L14.53 79.96 L16.08 81.18 L17.52 82.51 L18.86 83.96 L20.07 85.51 L21.16 87.15 L22.11 88.87 L22.93 90.66 L23.6 92.51 L24.12 94.41 L24.48 96.34 L24.7 98.3 L24.75 100.3 Z " />
<path stroke="rgb(0,0,0)" stroke-opacity="1" fill="rgb(255,255,255)" fill-opacity="1" d="M-412.3 -412.5 L-411.3 -412.5 L-410.3 -412.5 L-409.4 -412.5 L-408.4 -412.5 L-407.4 -412.5 L-406.4 -412.5 L-405.4 -412.5 L-404.4 -412.5 L-403.4 -412.5 L-402.5 -412.4 L-401.5 -412.4 L-400.5 -412.4 L-399.5 -412.4 L-398.5 -412.4 L-397.5 -412.4 L-396.5 -412.4 L-395.6 -412.4 L-394.6 -412.4 L-393.6 -412.4 L-392.6 -412.4 L-391.6 -412.3 L-390.6 -412.3 L-389.7 -412.3 L-388.7 -412.3 L-387.7 -412.3 L-387.7 -411.3 L-387.7 -410.3 L-387.7 -409.3 L-387.7 -408.4 L-387.7 -407.4 L-387.7 -406.4 L-387.8 -405.4 L-387.8 -404.4 L-387.8 -403.4 L-387.8 -402.5 L-387.8 -401.5 L-387.8 -400.5 L-387.8 -399.5 L-387.8 -398.5 L-387.8 -397.5 L-387.8 -396.5 L-387.8 -395.6 L-387.9 -394.6 L-387.9 -393.6 L-387.9 -392.6 L-387.9 -391.6 L-387.9 -390.6 L-387.9 -389.7 L-387.9 -388.7 L-387.9 -387.7 L-388.9 -387.7 L-389.9 -387.7 L-390.9 -387.7 L-391.9 -387.7 L-392.8 -387.7 L-393.8 -387.7 L-394.8 -387.7 L-395.8 -387.8 L-396.8 -387.8 L-397.8 -387.8 L-398.8 -387.8 L-399.7 -387.8 L-400.7 -387.8 L-401.7 -387.8 L-402.7 -387.8 L-403.7 -387.8 L-404.7 -387.8 L-405.7 -387.9 L-406.6 -387.9 L-407.6 -387.9 L-408.6 -387.9 L-409.6 -387.9 L-410.6 -387.9 L-411.6 -387.9 L-412.5 -387.9 L-412.5 -388.9 L-412.5 -389.9 L-412.5 -390.9 L-412.5 -391.9 L-412.5 -392.8 L-412.5 -393.8 L-412.5 -394.8 L-412.5 -395.8 L-412.5 -396.8 L-412.5 -397.8 L-412.4 -398.8 L-412.4 -399.7 L-412.4 -400.7 L-412.4 -401.7 L-412.4 -402.7 L-412.4 -403.7 L-412.4 -404.7 L-412.4 -405.7 L-412.4 -406.6 L-412.4 -407.6 L-412.3 -408.6 L-412.3 -409.6 L-412.3 -410.6 L-412.3 -411.6 L-412.3 -412.5 Z " />
<path stroke="rgb(0,0,0)" stroke-opacity="0.981" fill="rgb(255,255,255)" fill-opacity="1" d="M224.8 100.3 L224.7 102.2 L224.4 104.2 L224 106.1 L223.4 108 L222.7 109.8 L221.9 111.6 L220.9 113.3 L219.7 114.9 L218.5 116.4 L217.1 117.9 L215.7 119.2 L214.1 120.3 L212.4 121.4 L210.7 122.3 L208.9 123.1 L207 123.7 L205.1 124.2 L203.2 124.5 L201.2 124.7 L199.2 124.7 L197.3 124.6 L195.3 124.3 L193.4 123.9 L191.5 123.3 L189.7 122.5 L188 121.6 L186.3 120.6 L184.7 119.4 L183.2 118.2 L181.8 116.8 L180.5 115.3 L179.4 113.7 L178.4 112 L177.5 110.2 L176.7 108.4 L176.1 106.5 L175.7 104.6 L175.4 102.7 L175.3 100.7 L175.3 98.74 L175.5 96.78 L175.8 94.84 L176.3 92.94 L176.9 91.07 L177.7 89.27 L178.6 87.53 L179.7 85.87 L180.9 84.3 L182.2 82.83 L183.6 81.47 L185.1 80.22 L186.7 79.1 L188.4 78.11 L190.2 77.26 L192.1 76.56 L193.9 76 L195.9 75.59 L197.8 75.34 L199.8 75.25 L201.7 75.31 L203.7 75.52 L205.6 75.9 L207.5 76.42 L209.4 77.09 L211.2 77.91 L212.9 78.87 L214.5 79.96 L216.1 81.18 L217.5 82.51 L218.9 83.96 L220.1 85.51 L221.2 87.15 L222.1 88.87 L222.9 90.66 L223.6 92.51 L224.1 94.41 L224.5 96.34 L224.7 98.3 L224.8 100.3 Z " />
<path stroke="rgb(0,0,0)" stroke-opacity="1" fill="rgb(255,255,255)" fill-opacity="1" d="M-212.3 -412.5 L-211.3 -412.5 L-210.3 -412.5 L-209.4 -412.5 L-208.4 -412.5 L-207.4 -412.5 L-206.4 -412.5 L-205.4 -412.5 L-204.4 -412.5 L-203.4 -412.5 L-202.5 -412.4 L-201.5 -412.4 L-200.5 -412.4 L-199.5 -412.4 L-198.5 -412.4 L-197.5 -412.4 L-196.5 -412.4 L-195.6 -412.4 L-194.6 -412.4 L-193.6 -412.4 L-192.6 -412.4 L-191.6 -412.3 L-190.6 -412.3 L-189.7 -412.3 L-188.7 -412.3 L-187.7 -412.3 L-187.7 -411.3 L-187.7 -410.3 L-187.7 -409.3 L-187.7 -408.4 L-187.7 -407.4 L-187.7 -406.4 L-187.8 -405.4 L-187.8 -404.4 L-187.8 -403.4 L-187.8 -402.5 L-187.8 -401.5 L-187.8 -400.5 L-187.8 -399.5 L-187.8 -398.5 L-187.8 -397.5 L-187.8 -396.5 L-187.8 -395.6 L-187.9 -394.6 L-187.9 -393.6 L-187.9 -392.6 L-187.9 -391.6 L-187.9 -390.6 L-187.9 -389.7 L-187.9 -388.7 L-187.9 -387.7 L-188.9 -387.7 L-189.9 -387.7 L-190.9 -387.7 L-191.9 -387.7 L-192.8 -387.7 L-193.8 -387.7 L-194.8 -387.7 L-195.8 -387.8 L-196.8 -387.8 L-197.8 -387.8 L-198.8 -387.8 L-199.7 -387.8 L-200.7 -387.8 L-201.7 -387.8 L-202.7 -387.8 L-203.7 -387.8 L-204.7 -387.8 L-205.7 -387.9 L-206.6 -387.9 L-207.6 -387.9 L-208.6 -387.9 L-209.6 -387.9 L-210.6 -387.9 L-211.6 -387.9 L-212.5 -387.9 L-212.5 -388.9 L-212.5 -389.9 L-212.5 -390.9 L-212.5 -391.9 L-212.5 -392.8 L-212.5 -393.8 L-212.5 -394.8 L-212.5 -395.8 L-212.5 -396.8 L-212.5 -397.8 L-212.4 -398.8 L-212.4 -399.7 L-212.4 -400.7 L-212.4 -401.7 L-212.4 -402.7 L-212.4 -403.7 L-212.4 -404.7 L-212.4 -405.7 L-212.4 -406.6 L-212.4 -407.6 L-212.3 -408.6 L-212.3 -409.6 L-212.3 -410.6 L-212.3 -411.6 L-212.3 -412.5 Z " />
<path stroke="rgb(0,0,0)" stroke-opacity="0.981" fill="rgb(255,255,255)" fill-opacity="1" d="M-275.2 200.3 L-275.3 202.2 L-275.6 204.2 L-276 206.1 L-276.6 208 L-277.3 209.8 L-278.1 211.6 L-279.1 213.3 L-280.3 214.9 L-281.5 216.4 L-282.9 217.9 L-284.3 219.2 L-285.9 220.3 L-287.6 221.4 L-289.3 222.3 L-291.1 223.1 L-293 223.7 L-294.9 224.2 L-296.8 224.5 L-298.8 224.7 L-300.8 224.7 L-302.7 224.6 L-304.7 224.3 L-306.6 223.9 L-308.5 223.3 L-310.3 222.5 L-312 221.6 L-313.7 220.6 L-315.3 219.4 L-316.8 218.2 L-318.2 216.8 L-319.5 215.3 L-320.6 213.7 L-321.6 212 L-322.5 210.2 L-323.3 208.4 L-323.9 206.5 L-324.3 204.6 L-324.6 202.7 L-324.7 200.7 L-324.7 198.7 L-324.5 196.8 L-324.2 194.8 L-323.7 192.9 L-323.1 191.1 L-322.3 189.3 L-321.4 187.5 L-320.3 185.9 L-319.1 184.3 L-317.8 182.8 L-316.4 181.5 L-314.9 180.2 L-313.3 179.1 L-311.6 178.1 L-309.8 177.3 L-307.9 176.6 L-306.1 176 L-304.1 175.6 L-302.2 175.3 L-300.2 175.2 L-298.3 175.3 L-296.3 175.5 L-294.4 175.9 L-292.5 176.4 L-290.6 177.1 L-288.8 177.9 L-287.1 178.9 L-285.5 180 L-283.9 181.2 L-282.5 182.5 L-281.1 184 L-279.9 185.5 L-278.8 187.1 L-277.9 188.9 L-277.1 190.7 L-276.4 192.5 L-275.9 194.4 L-275.5 196.3 L-275.3 198.3 L-275.2 200.3 Z " />
<path stroke="rgb(0,0,0)" stroke-opacity="1" fill="rgb(255,255,255)" fill-opacity="1" d="M-712.2 -312.7 L-711.2 -312.7 L-710.2 -312.7 L-709.3 -312.7 L-708.3 -312.7 L-707.3 -312.6 L-706.3 -312.6 L-705.3 -312.6 L-704.3 -312.6 L-703.3 -312.6 L-702.3 -312.5 L-701.3 -312.5 L-700.4 -312.5 L-699.4 -312.5 L-698.4 -312.5 L-697.4 -312.4 L-696.4 -312.4 L-695.4 -312.4 L-694.4 -312.4 L-693.4 -312.3 L-692.4 -312.3 L-691.4 -312.3 L-690.5 -312.3 L-689.5 -312.3 L-688.5 -312.2 L-687.5 -312.2 L-687.5 -311.2 L-687.5 -310.2 L-687.5 -309.3 L-687.6 -308.3 L-687.6 -307.3 L-687.6 -306.3 L-687.6 -305.3 L-687.7 -304.3 L-687.7 -303.3 L-687.7 -302.3 L-687.7 -301.3 L-687.7 -300.3 L-687.8 -299.4 L-687.8 -298.4 L-687.8 -297.4 L-687.8 -296.4 L-687.8 -295.4 L-687.9 -294.4 L-687.9 -293.4 L-687.9 -292.4 L-687.9 -291.4 L-687.9 -290.4 L-688 -289.5 L-688 -288.5 L-688 -287.5 L-689 -287.5 L-690 -287.5 L-691 -287.5 L-692 -287.6 L-693 -287.6 L-693.9 -287.6 L-694.9 -287.6 L-695.9 -287.6 L-696.9 -287.7 L-697.9 -287.7 L-698.9 -287.7 L-699.9 -287.7 L-700.9 -287.8 L-701.9 -287.8 L-702.9 -287.8 L-703.8 -287.8 L-704.8 -287.8 L-705.8 -287.9 L-706.8 -287.9 L-707.8 -287.9 L-708.8 -287.9 L-709.8 -287.9 L-710.8 -288 L-711.8 -288 L-712.7 -288 L-712.7 -289 L-712.7 -290 L-712.7 -291 L-712.7 -292 L-712.6 -292.9 L-712.6 -293.9 L-712.6 -294.9 L-712.6 -295.9 L-712.6 -296.9 L-712.5 -297.9 L-712.5 -298.9 L-712.5 -299.9 L-712.5 -300.9 L-712.5 -301.9 L-712.4 -302.8 L-712.4 -303.8 L-712.4 -304.8 L-712.4 -305.8 L-712.4 -306.8 L-712.3 -307.8 L-712.3 -308.8 L-712.3 -309.8 L-712.3 -310.8 L-712.2 -311.8 L-712.2 -312.7 Z " />
<path stroke="rgb(0,0,0)" stroke-opacity="0.981" fill="rgb(255,255,255)" fill-opacity="1" d="M-75.25 200.3 L-75.35 202.2 L-75.6 204.2 L-76.01 206.1 L-76.57 208 L-77.28 209.8 L-78.14 211.6 L-79.13 213.3 L-80.25 214.9 L-81.5 216.4 L-82.86 217.9 L-84.34 219.2 L-85.91 220.3 L-87.57 221.4 L-89.31 222.3 L-91.12 223.1 L-92.98 223.7 L-94.89 224.2 L-96.83 224.5 L-98.79 224.7 L-100.8 224.7 L-102.7 224.6 L-104.7 224.3 L-106.6 223.9 L-108.5 223.3 L-110.3 222.5 L-112 221.6 L-113.7 220.6 L-115.3 219.4 L-116.8 218.2 L-118.2 216.8 L-119.5 215.3 L-120.6 213.7 L-121.6 212 L-122.5 210.2 L-123.3 208.4 L-123.9 206.5 L-124.3 204.6 L-124.6 202.7 L-124.7 200.7 L-124.7 198.7 L-124.5 196.8 L-124.2 194.8 L-123.7 192.9 L-123.1 191.1 L-122.3 189.3 L-121.4 187.5 L-120.3 185.9 L-119.1 184.3 L-117.8 182.8 L-116.4 181.5 L-114.9 180.2 L-113.3 179.1 L-111.6 178.1 L-109.8 177.3 L-107.9 176.6 L-106.1 176 L-104.1 175.6 L-102.2 175.3 L-100.2 175.2 L-98.25 175.3 L-96.3 175.5 L-94.36 175.9 L-92.47 176.4 L-90.62 177.1 L-88.83 177.9 L-87.11 178.9 L-85.47 180 L-83.92 181.2 L-82.48 182.5 L-81.14 184 L-79.93 185.5 L-78.84 187.1 L-77.89 188.9 L-77.07 190.7 L-76.4 192.5 L-75.88 194.4 L-75.52 196.3 L-75.3 198.3 L-75.25 200.3 Z " />
<path stroke="rgb(0,0,0)" stroke-opacity="1" fill="rgb(255,255,255)" fill-opacity="1" d="M-512.3 -312.5 L-511.3 -312.5 L-510.3 -312.5 L-509.4 -312.5 L-508.4 -312.5 L-507.4 -312.5 L-506.4 -312.5 L-505.4 -312.5 L-504.4 -312.5 L-503.4 -312.5 L-502.5 -312.4 L-501.5 -312.4 L-500.5 -312.4 L-499.5 -312.4 L-498.5 -312.4 L-497.5 -312.4 L-496.5 -312.4 L-495.6 -312.4 L-494.6 -312.4 L-493.6 -312.4 L-492.6 -312.4 L-491.6 -312.3 L-490.6 -312.3 L-489.7 -312.3 L-488.7 -312.3 L-487.7 -312.3 L-487.7 -311.3 L-487.7 -310.3 L-487.7 -309.3 L-487.7 -308.4 L-487.7 -307.4 L-487.7 -306.4 L-487.8 -305.4 L-487.8 -304.4 L-487.8 -303.4 L-487.8 -302.5 L-487.8 -301.5 L-487.8 -300.5 L-487.8 -299.5 L-487.8 -298.5 L-487.8 -297.5 L-487.8 -296.5 L-487.8 -295.6 L-487.9 -294.6 L-487.9 -293.6 L-487.9 -292.6 L-487.9 -291.6 L-487.9 -290.6 L-487.9 -289.7 L-487.9 -288.7 L-487.9 -287.7 L-488.9 -287.7 L-489.9 -287.7 L-490.9 -287.7 L-491.9 -287.7 L-492.8 -287.7 L-493.8 -287.7 L-494.8 -287.7 L-495.8 -287.8 L-496.8 -287.8 L-497.8 -287.8 L-498.8 -287.8 L-499.7 -287.8 L-500.7 -287.8 L-501.7 -287.8 L-502.7 -287.8 L-503.7 -287.8 L-504.7 -287.8 L-505.7 -287.9 L-506.6 -287.9 L-507.6 -287.9 L-508.6 -287.9 L-509.6 -287.9 L-510.6 -287.9 L-511.6 -287.9 L-512.5 -287.9 L-512.5 -288.9 L-512.5 -289.9 L-512.5 -290.9 L-512.5 -291.9 L-512.5 -292.8 L-512.5 -293.8 L-512.5 -294.8 L-512.5 -295.8 L-512.5 -296.8 L-512.5 -297.8 L-512.4 -298.8 L-512.4 -299.7 L-512.4 -300.7 L-512.4 -301.7 L-512.4 -302.7 L-512.4 -303.7 L-512.4 -304.7 L-512.4 -305.7 L-512.4 -306.6 L-512.4 -307.6 L-512.3 -308.6 L-512.3 -309.6 L-512.3 -310.6 L-512.3 -311.6 L-512.3 -312.5 Z " />
<path stroke="rgb(0,0,0)" stroke-opacity="0.981" fill="rgb(255,255,255)" fill-opacity="1" d="M124.8 200.3 L124.7 202.2 L124.4 204.2 L124 206.1 L123.4 208 L122.7 209.8 L121.9 211.6 L120.9 213.3 L119.7 214.9 L118.5 216.4 L117.1 217.9 L115.7 219.2 L114.1 220.3 L112.4 221.4 L110.7 222.3 L108.9 223.1 L107 223.7 L105.1 224.2 L103.2 224.5 L101.2 224.7 L99.24 224.7 L97.28 224.6 L95.33 224.3 L93.42 223.9 L91.54 223.3 L89.72 222.5 L87.96 221.6 L86.28 220.6 L84.69 219.4 L83.19 218.2 L81.8 216.8 L80.53 215.3 L79.38 213.7 L78.35 212 L77.47 210.2 L76.73 208.4 L76.13 206.5 L75.69 204.6 L75.4 202.7 L75.26 200.7 L75.28 198.7 L75.46 196.8 L75.79 194.8 L76.28 192.9 L76.92 191.1 L77.7 189.3 L78.62 187.5 L79.68 185.9 L80.87 184.3 L82.17 182.8 L83.59 181.5 L85.12 180.2 L86.74 179.1 L88.44 178.1 L90.21 177.3 L92.05 176.6 L93.94 176 L95.86 175.6 L97.82 175.3 L99.78 175.2 L101.7 175.3 L103.7 175.5 L105.6 175.9 L107.5 176.4 L109.4 177.1 L111.2 177.9 L112.9 178.9 L114.5 180 L116.1 181.2 L117.5 182.5 L118.9 184 L120.1 185.5 L121.2 187.1 L122.1 188.9 L122.9 190.7 L123.6 192.5 L124.1 194.4 L124.5 196.3 L124.7 198.3 L124.8 200.3 Z " />
<path stroke="rgb(0,0,0)" stroke-opacity="1" fill="rgb(255,255,255)" fill-opacity="1" d="M-312.3 -312.5 L-311.3 -312.5 L-310.3 -312.5 L-309.4 -312.5 L-308.4 -312.5 L-307.4 -312.5 L-306.4 -312.5 L-305.4 -312.5 L-304.4 -312.5 L-303.4 -312.5 L-302.5 -312.4 L-301.5 -312.4 L-300.5 -312.4 L-299.5 -312.4 L-298.5 -312.4 L-297.5 -312.4 L-296.5 -312.4 L-295.6 -312.4 L-294.6 -312.4 L-293.6 -312.4 L-292.6 -312.4 L-291.6 -312.3 L-290.6 -312.3 L-289.7 -312.3 L-288.7 -312.3 L-287.7 -312.3 L-287.7 -311.3 L-287.7 -310.3 L-287.7 -309.3 L-287.7 -308.4 L-287.7 -307.4 L-287.7 -306.4 L-287.8 -305.4 L-287.8 -304.4 L-287.8 -303.4 L-287.8 -302.5 L-287.8 -301.5 L-287.8 -300.5 L-287.8 -299.5 L-287.8 -298.5 L-287.8 -297.5 L-287.8 -296.5 L-287.8 -295.6 L-287.9 -294.6 L-287.9 -293.6 L-287.9 -292.6 L-287.9 -291.6 L-287.9 -290.6 L-287.9 -289.7 L-287.9 -288.7 L-287.9 -287.7 L-288.9 -287.7 L-289.9 -287.7 L-290.9 -287.7 L-291.9 -287.7 L-292.8 -287.7 L-293.8 -287.7 L-294.8 -287.7 L-295.8 -287.8 L-296.8 -287.8 L-297.8 -287.8 L-298.8 -287.8 L-299.7 -287.8 L-300.7 -287.8 L-301.7 -287.8 L-302.7 -287.8 L-303.7 -287.8 L-304.7 -287.8 L-305.7 -287.9 L-306.6 -287.9 L-307.6 -287.9 L-308.6 -287.9 L-309.6 -287.9 L-310.6 -287.9 L-311.6 -287.9 L-312.5 -287.9 L-312.5 -288.9 L-312.5 -289.9 L-312.5 -290.9 L-312.5 -291.9 L-312.5 -292.8 L-312.5 -293.8 L-312.5 -294.8 L-312.5 -295.8 L-312.5 -296.8 L-312.5 -297.8 L-312.4 -298.8 L-312.4 -299.7 L-312.4 -300.7 L-312.4 -301.7 L-312.4 -302.7 L-312.4 -303.7 L-312.4 -304.7 L-312.4 -305.7 L-312.4 -306.6 L-312.4 -307.6 L-312.3 -308.6 L-312.3 -309.6 L-312.3 -310.6 L-312.3 -311.6 L-312.3 -312.5 Z " />
<path stroke="rgb(0,0,0)" stroke-opacity="0.981" fill="rgb(255,255,255)" fill-opacity="1" d="M324.8 200.3 L324.7 202.2 L324.4 204.2 L324 206.1 L323.4 208 L322.7 209.8 L321.9 211.6 L320.9 213.3 L319.7 214.9 L318.5 216.4 L317.1 217.9 L315.7 219.2 L314.1 220.3 L312.4 221.4 L310.7 222.3 L308.9 223.1 L307 223.7 L305.1 224.2 L303.2 224.5 L301.2 224.7 L299.2 224.7 L297.3 224.6 L295.3 224.3 L293.4 223.9 L291.5 223.3 L289.7 222.5 L288 221.6 L286.3 220.6 L284.7 219.4 L283.2 218.2 L281.8 216.8 L280.5 215.3 L279.4 213.7 L278.4 212 L277.5 210.2 L276.7 208.4 L276.1 206.5 L275.7 204.6 L275.4 202.7 L275.3 200.7 L275.3 198.7 L275.5 196.8 L275.8 194.8 L276.3 192.9 L276.9 191.1 L277.7 189.3 L278.6 187.5 L279.7 185.9 L280.9 184.3 L282.2 182.8 L283.6 181.5 L285.1 180.2 L286.7 179.1 L288.4 178.1 L290.2 177.3 L292.1 176.6 L293.9 176 L295.9 175.6 L297.8 175.3 L299.8 175.2 L301.7 175.3 L303.7 175.5 L305.6 175.9 L307.5 176.4 L309.4 177.1 L311.2 177.9 L312.9 178.9 L314.5 180 L316.1 181.2 L317.5 182.5 L318.9 184 L320.1 185.5 L321.2 187.1 L322.1 188.9 L322.9 190.7 L323.6 192.5 L324.1 194.4 L324.5 196.3 L324.7 198.3 L324.8 200.3 Z " />
<path stroke="rgb(0,0,0)" stroke-opacity="1" fill="rgb(255,255,255)" fill-opacity="1" d="M-812.2 -212.7 L-811.2 -212.7 L-810.2 -212.7 L-809.3 -212.7 L-808.3 -212.7 L-807.3 -212.6 L-806.3 -212.6 L-805.3 -212.6 L-804.3 -212.6 L-803.3 -212.6 L-802.3 -212.5 L-801.3 -212.5 L-800.4 -212.5 L-799.4 -212.5 L-798.4 -212.5 L-797.4 -212.4 L-796.4 -212.4 L-795.4 -212.4 L-794.4 -212.4 L-793.4 -212.3 L-792.4 -212.3 L-791.4 -212.3 L-790.5 -212.3 L-789.5 -212.3 L-788.5 -212.2 L-787.5 -212.2 L-787.5 -211.2 L-787.5 -210.2 L-787.5 -209.3 L-787.6 -208.3 L-787.6 -207.3 L-787.6 -206.3 L-787.6 -205.3 L-787.7 -204.3 L-787.7 -203.3 L-787.7 -202.3 L-787.7 -201.3 L-787.7 -200.3 L-787.8 -199.4 L-787.8 -198.4 L-787.8 -197.4 L-787.8 -196.4 L-787.8 -195.4 L-787.9 -194.4 L-787.9 -193.4 L-787.9 -192.4 L-787.9 -191.4 L-787.9 -190.4 L-788 -189.5 L-788 -188.5 L-788 -187.5 L-789 -187.5 L-790 -187.5 L-791 -187.5 L-792 -187.6 L-793 -187.6 L-793.9 -187.6 L-794.9 -187.6 L-795.9 -187.6 L-796.9 -187.7 L-797.9 -187.7 L-798.9 -187.7 L-799.9 -187.7 L-800.9 -187.8 L-801.9 -187.8 L-802.9 -187.8 L-803.8 -187.8 L-804.8 -187.8 L-805.8 -187.9 L-806.8 -187.9 L-807.8 -187.9 L-808.8 -187.9 L-809.8 -187.9 L-810.8 -188 L-811.8 -188 L-812.7 -188 L-812.7 -189 L-812.7 -190 L-812.7 -191 L-812.7 -192 L-812.6 -192.9 L-812.6 -193.9 L-812.6 -194.9 L-812.6 -195.9 L-812.6 -196.9 L-812.5 -197.9 L-812.5 -198.9 L-812.5 -199.9 L-812.5 -200.9 L-812.5 -201.9 L-812.4 -202.8 L-812.4 -203.8 L-812.4 -204.8 L-812.4 -205.8 L-812.4 -206.8 L-812.3 -207.8 L-812.3 -208.8 L-812.3 -209.8 L-812.3 -210.8 L-812.2 -211.8 L-812.2 -212.7 Z " />
<path stroke="rgb(0,0,0)" stroke-opacity="0.981" fill="rgb(255,255,255)" fill-opacity="1" d="M-175.2 300.3 L-175.3 302.2 L-175.6 304.2 L-176 306.1 L-176.6 308 L-177.3 309.8 L-178.1 311.6 L-179.1 313.3 L-180.3 314.9 L-181.5 316.4 L-182.9 317.9 L-184.3 319.2 L-185.9 320.3 L-187.6 321.4 L-189.3 322.3 L-191.1 323.1 L-193 323.7 L-194.9 324.2 L-196.8 324.5 L-198.8 324.7 L-200.8 324.7 L-202.7 324.6 L-204.7 324.3 L-206.6 323.9 L-208.5 323.3 L-210.3 322.5 L-212 321.6 L-213.7 320.6 L-215.3 319.4 L-216.8 318.2 L-218.2 316.8 L-219.5 315.3 L-220.6 313.7 L-221.6 312 L-222.5 310.2 L-223.3 308.4 L-223.9 306.5 L-224.3 304.6 L-224.6 302.7 L-224.7 300.7 L-224.7 298.7 L-224.5 296.8 L-224.2 294.8 L-223.7 292.9 L-223.1 291.1 L-222.3 289.3 L-221.4 287.5 L-220.3 285.9 L-219.1 284.3 L-217.8 282.8 L-216.4 281.5 L-214.9 280.2 L-213.3 279.1 L-211.6 278.1 L-209.8 277.3 L-207.9 276.6 L-206.1 276 L-204.1 275.6 L-202.2 275.3 L-200.2 275.2 L-198.3 275.3 L-196.3 275.5 L-194.4 275.9 L-192.5 276.4 L-190.6 277.1 L-188.8 277.9 L-187.1 278.9 L-185.5 280 L-183.9 281.2 L-182.5 282.5 L-181.1 284 L-179.9 285.5 L-178.8 287.1 L-177.9 288.9 L-177.1 290.7 L-176.4 292.5 L-175.9 294.4 L-175.5 296.3 L-175.3 298.3 L-175.2 300.3 Z " />
<path stroke="rgb(0,0,0)" stroke-opacity="1" fill="rgb(255,255,255)" fill-opacity="1" d="M-612.3 -212.5 L-611.3 -212.5 L-610.3 -212.5 L-609.4 -212.5 L-608.4 -212.5 L-607.4 -212.5 L-606.4 -212.5 L-605.4 -212.5 L-604.4 -212.5 L-603.4 -212.5 L-602.5 -212.4 L-601.5 -212.4 L-600.5 -212.4 L-599.5 -212.4 L-598.5 -212.4 L-597.5 -212.4 L-596.5 -212.4 L-595.6 -212.4 L-594.6 -212.4 L-593.6 -212.4 L-592.6 -212.4 L-591.6 -212.3 L-590.6 -212.3 L-589.7 -212.3 L-588.7 -212.3 L-587.7 -212.3 L-587.7 -211.3 L-587.7 -210.3 L-587.7 -209.3 L-587.7 -208.4 L-587.7 -207.4 L-587.7 -206.4 L-587.8 -205.4 L-587.8 -204.4 L-587.8 -203.4 L-587.8 -202.5 L-587.8 -201.5 L-587.8 -200.5 L-587.8 -199.5 L-587.8 -198.5 L-587.8 -197.5 L-587.8 -196.5 L-587.8 -195.6 L-587.9 -194.6 L-587.9 -193.6 L-587.9 -192.6 L-587.9 -191.6 L-587.9 -190.6 L-587.9 -189.7 L-587.9 -188.7 L-587.9 -187.7 L-588.9 -187.7 L-589.9 -187.7 L-590.9 -187.7 L-591.9 -187.7 L-592.8 -187.7 L-593.8 -187.7 L-594.8 -187.7 L-595.8 -187.8 L-596.8 -187.8 L-597.8 -187.8 L-598.8 -187.8 L-599.7 -187.8 L-600.7 -187.8 L-601.7 -187.8 L-602.7 -187.8 L-603.7 -187.8 L-604.7 -187.8 L-605.7 -187.9 L-606.6 -187.9 L-607.6 -187.9 L-608.6 -187.9 L-609.6 -187.9 L-610.6 -187.9 L-611.6 -187.9 L-612.5 -187.9 L-612.5 -188.9 L-612.5 -189.9 L-612.5 -190.9 L-612.5 -191.9 L-612.5 -192.8 L-612.5 -193.8 L-612.5 -194.8 L-612.5 -195.8 L-612.5 -196.8 L-612.5 -197.8 L-612.4 -198.8 L-612.4 -199.7 L-612.4 -200.7 L-612.4 -201.7 L-612.4 -202.7 L-612.4 -203.7 L-612.4 -204.7 L-612.4 -205.7 L-612.4 -206.6 L-612.4 -207.6 L-612.3 -208.6 L-612.3 -209.6 L-612.3 -210.6 L-612.3 -211.6 L-612.3 -212.5 Z " />
<path stroke="rgb(0,0,0)" stroke-opacity="0.981" fill="rgb(255,255,255)" fill-opacity="1" d="M24.75 300.3 L24.65 302.2 L24.4 304.2 L23.99 306.1 L23.43 308 L22.72 309.8 L21.86 311.6 L20.87 313.3 L19.75 314.9 L18.5 316.4 L17.14 317.9 L15.66 319.2 L14.09 320.3 L12.43 321.4 L10.69 322.3 L8.881 323.1 L7.018 323.7 L5.11 324.2 L3.169 324.5 L1.209 324.7 L-0.7591 324.7 L-2.722 324.6 L-4.668 324.3 L-6.584 323.9 L-8.459 323.3 L-10.28 322.5 L-12.04 321.6 L-13.72 320.6 L-15.31 319.4 L-16.81 318.2 L-18.2 316.8 L-19.47 315.3 L-20.62 313.7 L-21.65 312 L-22.53 310.2 L-23.27 308.4 L-23.87 306.5 L-24.31 304.6 L-24.6 302.7 L-24.74 300.7 L-24.72 298.7 L-24.54 296.8 L-24.21 294.8 L-23.72 292.9 L-23.08 291.1 L-22.3 289.3 L-21.38 287.5 L-20.32 285.9 L-19.13 284.3 L-17.83 282.8 L-16.41 281.5 L-14.88 280.2 L-13.26 279.1 L-11.56 278.1 L-9.786 277.3 L-7.949 276.6 L-6.062 276 L-4.136 275.6 L-2.185 275.3 L-0.2188 275.2 L1.748 275.3 L3.704 275.5 L5.637 275.9 L7.534 276.4 L9.383 277.1 L11.17 277.9 L12.89 278.9 L14.53 280 L16.08 281.2 L17.52 282.5 L18.86 284 L20.07 285.5 L21.16 287.1 L22.11 288.9 L22.93 290.7 L23.6 292.5 L24.12 294.4 L24.48 296.3 L24.7 298.3 L24.75 300.3 Z " />
<path stroke="rgb(0,0,0)" stroke-opacity="1" fill="rgb(255,255,255)" fill-opacity="1" d="M-412.3 -212.5 L-411.3 -212.5 L-410.3 -212.5 L-409.4 -212.5 L-408.4 -212.5 L-407.4 -212.5 L-406.4 -212.5 L-405.4 -212.5 L-404.4 -212.5 L-403.4 -212.5 L-402.5 -212.4 L-401.5 -212.4 L-400.5 -212.4 L-399.5 -212.4 L-398.5 -212.4 L-397.5 -212.4 L-396.5 -212.4 L-395.6 -212.4 L-394.6 -212.4 L-393.6 -212.4 L-392.6 -212.4 L-391.6 -212.3 L-390.6 -212.3 L-389.7 -212.3 L-388.7 -212.3 L-387.7 -212.3 L-387.7 -211.3 L-387.7 -210.3 L-387.7 -209.3 L-387.7 -208.4 L-387.7 -207.4 L-387.7 -206.4 L-387.8 -205.4 L-387.8 -204.4 L-387.8 -203.4 L-387.8 -202.5 L-387.8 -201.5 L-387.8 -200.5 L-387.8 -199.5 L-387.8 -198.5 L-387.8 -197.5 L-387.8 -196.5 L-387.8 -195.6 L-387.9 -194.6 L-387.9 -193.6 L-387.9 -192.6 L-387.9 -191.6 L-387.9 -190.6 L-387.9 -189.7 L-387.9 -188.7 L-387.9 -187.7 L-388.9 -187.7 L-389.9 -187.7 L-390.9 -187.7 L-391.9 -187.7 L-392.8 -187.7 L-393.8 -187.7 L-394.8 -187.7 L-395.8 -187.8 L-396.8 -187.8 L-397.8 -187.8 L-398.8 -187.8 L-399.7 -187.8 L-400.7 -187.8 L-401.7 -187.8 L-402.7 -187.8 L-403.7 -187.8 L-404.7 -187.8 L-405.7 -187.9 L-406.6 -187.9 L-407.6 -187.9 L-408.6 -187.9 L-409.6 -187.9 L-410.6 -187.9 L-411.6 -187.9 L-412.5 -187.9 L-412.5 -188.9 L-412.5 -189.9 L-412.5 -190.9 L-412.5 -191.9 L-412.5 -192.8 L-412.5 -193.8 L-412.5 -194.8 L-412.5 -195.8 L-412.5 -196.8 L-412.5 -197.8 L-412.4 -198.8 L-412.4 -199.7 L-412.4 -200.7 L-412.4 -201.7 L-412.4 -202.7 L-412.4 -203.7 L-412.4 -204.7 L-412.4 -205.7 L-412.4 -206.6 L-412.4 -207.6 L-412.3 -208.6 L-412.3 -209.6 L-412.3 -210.6 L-412.3 -211.6 L-412.3 -212.5 Z " />
<path stroke="rgb(0,0,0)" stroke-opacity="0.981" fill="rgb(255,255,255)" fill-opacity="1" d="M224.8 300.3 L224.7 302.2 L224.4 304.2 L224 306.1 L223.4 308 L222.7 309.8 L221.9 311.6 L220.9 313.3 L219.7 314.9 L218.5 316.4 L217.1 317.9 L215.7 319.2 L214.1 320.3 L212.4 321.4 L210.7 322.3 L208.9 323.1 L207 323.7 L205.1 324.2 L203.2 324.5 L201.2 324.7 L199.2 324.7 L197.3 324.6 L195.3 324.3 L193.4 323.9 L191.5 323.3 L189.7 322.5 L188 321.6 L186.3 320.6 L184.7 319.4 L183.2 318.2 L181.8 316.8 L180.5 315.3 L179.4 313.7 L178.4 312 L177.5 310.2 L176.7 308.4 L176.1 306.5 L175.7 304.6 L175.4 302.7 L175.3 300.7 L175.3 298.7 L175.5 296.8 L175.8 294.8 L176.3 292.9 L176.9 291.1 L177.7 289.3 L178.6 287.5 L179.7 285.9 L180.9 284.3 L182.2 282.8 L183.6 281.5 L185.1 280.2 L186.7 279.1 L188.4 278.1 L190.2 277.3 L192.1 276.6 L193.9 276 L195.9 275.6 L197.8 275.3 L199.8 275.2 L201.7 275.3 L203.7 275.5 L205.6 275.9 L207.5 276.4 L209.4 277.1 L211.2 277.9 L212.9 278.9 L214.5 280 L216.1 281.2 L217.5 282.5 L218.9 284 L220.1 285.5 L221.2 287.1 L222.1 288.9 L222.9 290.7 L223.6 292.5 L224.1 294.4 L224.5 296.3 L224.7 298.3 L224.8 300.3 Z " />
<path stroke="rgb(0,0,0)" stroke-opacity="1" fill="rgb(255,255,255)" fill-opacity="1" d="M-212.3 -212.5 L-211.3 -212.5 L-210.3 -212.5 L-209.4 -212.5 L-208.4 -212.5 L-207.4 -212.5 L-206.4 -212.5 L-205.4 -212.5 L-204.4 -212.5 L-203.4 -212.5 L-202.5 -212.4 L-201.5 -212.4 L-200.5 -212.4 L-199.5 -212.4 L-198.5 -212.4 L-197.5 -212.4 L-196.5 -212.4 L-195.6 -212.4 L-194.6 -212.4 L-193.6 -212.4 L-192.6 -212.4 L-191.6 -212.3 L-190.6 -212.3 L-189.7 -212.3 L-188.7 -212.3 L-187.7 -212.3 L-187.7 -211.3 L-187.7 -210.3 L-187.7 -209.3 L-187.7 -208.4 L-187.7 -207.4 L-187.7 -206.4 L-187.8 -205.4 L-187.8 -204.4 L-187.8 -203.4 L-187.8 -202.5 L-187.8 -201.5 L-187.8 -200.5 L-187.8 -199.5 L-187.8 -198.5 L-187.8 -197.5 L-187.8 -196.5 L-187.8 -195.6 L-187.9 -194.6 L-187.9 -193.6 L-187.9 -192.6 L-187.9 -191.6 L-187.9 -190.6 L-187.9 -189.7 L-187.9 -188.7 L-187.9 -187.7 L-188.9 -187.7 L-189.9 -187.7 L-190.9 -187.7 L-191.9 -187.7 L-192.8 -187.7 L-193.8 -187.7 L-194.8 -187.7 L-195.8 -187.8 L-196.8 -187.8 L-197.8 -187.8 L-198.8 -187.8 L-199.7 -187.8 L-200.7 -187.8 L-201.7 -187.8 L-202.7 -187.8 L-203.7 -187.8 L-204.7 -187.8 L-205.7 -187.9 L-206.6 -187.9 L-207.6 -187.9 L-208.6 -187.9 L-209.6 -187.9 L-210.6 -187.9 L-211.6 -187.9 L-212.5 -187.9 L-212.5 -188.9 L-212.5 -189.9 L-212.5 -190.9 L-212.5 -191.9 L-212.5 -192.8 L-212.5 -193.8 L-212.5 -194.8 L-212.5 -195.8 L-212.5 -196.8 L-212.5 -197.8 L-212.4 -198.8 L-212.4 -199.7 L-212.4 -200.7 L-212.4 -201.7 L-212.4 -202.7 L-212.4 -203.7 L-212.4 -204.7 L-212.4 -205.7 L-212.4 -206.6 L-212.4 -207.6 L-212.3 -208.6 L-212.3 -209.6 L-212.3 -210.6 L-212.3 -211.6 L-212.3 -212.5 Z " />
</g>
</g>
</svg>
