<!DOCTYPE svg>
<svg xmlns="http://www.w3.org/2000/svg" xmlns:xlink="http://www.w3.org/1999/xlink" width="1000" height="1000">
<g transform="translate(500.000000,500.000000)">
<g transform="scale(3.000000,3.000000)">
<path stroke="rgb(0,0,0)" stroke-opacity="1" fill="rgb(255,255,255)" fill-opacity="1" d="M-614.5 -573.5 L-615 -575.1 L-615.5 -576.8 L-616 -578.4 L-616.5 -580.1 L-617 -581.8 L-617.5 -583.4 L-618 -585.1 L-618.6 -586.7 L-619.1 -588.4 L-619.6 -590.1 L-620.1 -591.7 L-620.6 -593.4 L-621.1 -595 L-621.6 -596.7 L-622.1 -598.3 L-622.6 -600 L-623.1 -601.7 L-623.6 -603.3 L-624.1 -605 L-624.6 -606.6 L-625.1 -608.3 L-625.6 -610 L-626.1 -611.6 L-626.6 -613.3 L-627.1 -614.9 L-625.5 -615.4 L-623.8 -615.9 L-622.2 -616.4 L-620.5 -616.9 L-618.8 -617.4 L-617.2 -618 L-615.5 -618.5 L-613.9 -619 L-612.2 -619.5 L-610.6 -620 L-608.9 -620.5 L-607.2 -621 L-605.6 -621.5 L-603.9 -622 L-602.3 -622.5 L-600.6 -623 L-598.9 -623.5 L-597.3 -624 L-595.6 -624.5 L-594 -625 L-592.3 -625.5 L-590.7 -626 L-589 -626.5 L-587.3 -627 L-585.7 -627.5 L-585.2 -625.9 L-584.7 -624.2 L-584.2 -622.6 L-583.7 -620.9 L-583.2 -619.3 L-582.7 -617.6 L-582.1 -615.9 L-581.6 -614.3 L-581.1 -612.6 L-580.6 -611 L-580.1 -609.3 L-579.6 -607.6 L-579.1 -606 L-578.6 -604.3 L-578.1 -602.7 L-577.6 -601 L-577.1 -599.4 L-576.6 -597.7 L-576.1 -596 L-575.6 -594.4 L-575.1 -592.7 L-574.6 -591.1 L-574.1 -589.4 L-573.6 -587.7 L-573.1 -586.1 L-574.7 -585.6 L-576.4 -585.1 L-578 -584.6 L-579.7 -584.1 L-581.4 -583.6 L-583 -583.1 L-584.7 -582.6 L-586.3 -582.1 L-588 -581.5 L-589.6 -581 L-591.3 -580.5 L-593 -580 L-594.6 -579.5 L-596.3 -579 L-597.9 -578.5 L-599.6 -578 L-601.3 -577.5 L-602.9 -577 L-604.6 -576.5 L-606.2 -576 L-607.9 -575.5 L-609.5 -575 L-611.2 -574.5 L-612.9 -574 L-614.5 -573.5 Z " />
<path stroke="rgb(0,0,0)" stroke-opacity="0.032" fill="rgb(255,255,255)" fill-opacity="1" d="M-175.1 -299.8 L-175.2 -297.9 L-175.5 -295.9 L-175.9 -294 L-176.4 -292.1 L-177.2 -290.2 L-178 -288.4 L-179 -286.7 L-180.1 -285.1 L-181.4 -283.6 L-182.7 -282.1 L-184.2 -280.8 L-185.8 -279.6 L-187.4 -278.6 L-189.2 -277.6 L-191 -276.8 L-192.9 -276.2 L-194.8 -275.7 L-196.7 -275.4 L-198.7 -275.2 L-200.7 -275.2 L-202.6 -275.3 L-204.6 -275.6 L-206.5 -276 L-208.4 -276.6 L-210.2 -277.4 L-212 -278.2 L-213.7 -279.3 L-215.3 -280.4 L-216.8 -281.7 L-218.2 -283.1 L-219.5 -284.6 L-220.6 -286.2 L-221.7 -287.9 L-222.6 -289.6 L-223.3 -291.4 L-223.9 -293.3 L-224.4 -295.3 L-224.7 -297.2 L-224.8 -299.2 L-224.8 -301.2 L-224.7 -303.1 L-224.3 -305.1 L-223.8 -307 L-223.2 -308.9 L-222.4 -310.7 L-221.5 -312.4 L-220.5 -314.1 L-219.3 -315.7 L-218 -317.2 L-216.6 -318.5 L-215 -319.8 L-213.4 -320.9 L-211.7 -321.9 L-209.9 -322.8 L-208.1 -323.5 L-206.2 -324.1 L-204.3 -324.5 L-202.3 -324.7 L-200.3 -324.9 L-198.4 -324.8 L-196.4 -324.6 L-194.4 -324.2 L-192.5 -323.7 L-190.7 -323 L-188.9 -322.2 L-187.1 -321.3 L-185.5 -320.2 L-183.9 -319 L-182.5 -317.6 L-181.1 -316.2 L-179.9 -314.6 L-178.8 -313 L-177.8 -311.3 L-177 -309.5 L-176.3 -307.6 L-175.8 -305.7 L-175.4 -303.8 L-175.2 -301.8 L-175.1 -299.8 Z " />
<path stroke="rgb(0,0,0)" stroke-opacity="1" fill="rgb(255,255,255)" fill-opacity="1" d="M-423.6 -575.4 L-423.6 -577.3 L-423.7 -579.3 L-423.8 -581.2 L-423.8 -583.2 L-423.9 -585.1 L-423.9 -587.1 L-424 -589 L-424.1 -591 L-424.1 -592.9 L-424.2 -594.9 L-424.3 -596.8 L-424.3 -598.8 L-424.4 -600.7 L-424.4 -602.6 L-424.5 -604.6 L-424.6 -606.5 L-424.6 -608.5 L-424.7 -610.4 L-424.7 -612.4 L-424.8 -614.3 L-424.9 -616.3 L-424.9 -618.2 L-425 -620.2 L-425 -622.1 L-425.1 -624.1 L-423.2 -624.1 L-421.2 -624.2 L-419.3 -624.2 L-417.3 -624.3 L-415.4 -624.4 L-413.4 -624.4 L-411.5 -624.5 L-409.5 -624.6 L-407.6 -624.6 L-405.6 -624.7 L-403.7 -624.7 L-401.7 -624.8 L-399.8 -624.9 L-397.8 -624.9 L-395.9 -625 L-394 -625 L-392 -625.1 L-390.1 -625.2 L-388.1 -625.2 L-386.2 -625.3 L-384.2 -625.3 L-382.3 -625.4 L-380.3 -625.5 L-378.4 -625.5 L-376.4 -625.6 L-376.4 -623.6 L-376.3 -621.7 L-376.3 -619.7 L-376.2 -617.8 L-376.1 -615.9 L-376.1 -613.9 L-376 -612 L-375.9 -610 L-375.9 -608.1 L-375.8 -606.1 L-375.8 -604.2 L-375.7 -602.2 L-375.6 -600.3 L-375.6 -598.3 L-375.5 -596.4 L-375.5 -594.4 L-375.4 -592.5 L-375.3 -590.5 L-375.3 -588.6 L-375.2 -586.6 L-375.2 -584.7 L-375.1 -582.8 L-375 -580.8 L-375 -578.9 L-374.9 -576.9 L-376.9 -576.9 L-378.8 -576.8 L-380.8 -576.7 L-382.7 -576.7 L-384.6 -576.6 L-386.6 -576.5 L-388.5 -576.5 L-390.5 -576.4 L-392.4 -576.4 L-394.4 -576.3 L-396.3 -576.2 L-398.3 -576.2 L-400.2 -576.1 L-402.2 -576.1 L-404.1 -576 L-406.1 -575.9 L-408 -575.9 L-410 -575.8 L-411.9 -575.8 L-413.8 -575.7 L-415.8 -575.6 L-417.7 -575.6 L-419.7 -575.5 L-421.6 -575.5 L-423.6 -575.4 Z " />
<path stroke="rgb(0,0,0)" stroke-opacity="0.032" fill="rgb(255,255,255)" fill-opacity="1" d="M24.85 -299.8 L24.76 -297.9 L24.51 -295.9 L24.11 -294 L23.55 -292.1 L22.85 -290.2 L22 -288.4 L21.01 -286.7 L19.89 -285.1 L18.65 -283.6 L17.28 -282.1 L15.81 -280.8 L14.23 -279.6 L12.57 -278.6 L10.83 -277.6 L9.017 -276.8 L7.148 -276.2 L5.235 -275.7 L3.288 -275.4 L1.321 -275.2 L-0.6549 -275.2 L-2.627 -275.3 L-4.581 -275.6 L-6.507 -276 L-8.392 -276.6 L-10.22 -277.4 L-11.99 -278.2 L-13.68 -279.3 L-15.29 -280.4 L-16.8 -281.7 L-18.2 -283.1 L-19.48 -284.6 L-20.65 -286.2 L-21.68 -287.9 L-22.58 -289.6 L-23.33 -291.4 L-23.94 -293.3 L-24.39 -295.3 L-24.69 -297.2 L-24.83 -299.2 L-24.82 -301.2 L-24.65 -303.1 L-24.33 -305.1 L-23.85 -307 L-23.22 -308.9 L-22.44 -310.7 L-21.52 -312.4 L-20.47 -314.1 L-19.28 -315.7 L-17.97 -317.2 L-16.55 -318.5 L-15.03 -319.8 L-13.41 -320.9 L-11.71 -321.9 L-9.927 -322.8 L-8.085 -323.5 L-6.193 -324.1 L-4.261 -324.5 L-2.303 -324.7 L-0.3295 -324.9 L1.646 -324.8 L3.611 -324.6 L5.553 -324.2 L7.46 -323.7 L9.319 -323 L11.12 -322.2 L12.85 -321.3 L14.5 -320.2 L16.06 -319 L17.51 -317.6 L18.86 -316.2 L20.09 -314.6 L21.18 -313 L22.15 -311.3 L22.98 -309.5 L23.66 -307.6 L24.19 -305.7 L24.56 -303.8 L24.79 -301.8 L24.85 -299.8 Z " />
<path stroke="rgb(0,0,0)" stroke-opacity="1" fill="rgb(255,255,255)" fill-opacity="1" d="M-224.9 -575.9 L-224.9 -577.9 L-224.9 -579.8 L-224.9 -581.8 L-224.9 -583.8 L-224.8 -585.8 L-224.8 -587.8 L-224.8 -589.8 L-224.8 -591.7 L-224.8 -593.7 L-224.8 -595.7 L-224.8 -597.7 L-224.8 -599.7 L-224.7 -601.6 L-224.7 -603.6 L-224.7 -605.6 L-224.7 -607.6 L-224.7 -609.6 L-224.7 -611.5 L-224.7 -613.5 L-224.7 -615.5 L-224.6 -617.5 L-224.6 -619.5 L-224.6 -621.4 L-224.6 -623.4 L-224.6 -625.4 L-222.6 -625.4 L-220.6 -625.4 L-218.7 -625.4 L-216.7 -625.4 L-214.7 -625.3 L-212.7 -625.3 L-210.7 -625.3 L-208.7 -625.3 L-206.8 -625.3 L-204.8 -625.3 L-202.8 -625.3 L-200.8 -625.2 L-198.8 -625.2 L-196.9 -625.2 L-194.9 -625.2 L-192.9 -625.2 L-190.9 -625.2 L-188.9 -625.2 L-187 -625.2 L-185 -625.1 L-183 -625.1 L-181 -625.1 L-179 -625.1 L-177.1 -625.1 L-175.1 -625.1 L-175.1 -623.1 L-175.1 -621.1 L-175.1 -619.1 L-175.1 -617.2 L-175.1 -615.2 L-175.2 -613.2 L-175.2 -611.2 L-175.2 -609.2 L-175.2 -607.3 L-175.2 -605.3 L-175.2 -603.3 L-175.2 -601.3 L-175.2 -599.3 L-175.3 -597.4 L-175.3 -595.4 L-175.3 -593.4 L-175.3 -591.4 L-175.3 -589.4 L-175.3 -587.5 L-175.3 -585.5 L-175.3 -583.5 L-175.4 -581.5 L-175.4 -579.5 L-175.4 -577.5 L-175.4 -575.6 L-177.4 -575.6 L-179.4 -575.6 L-181.3 -575.6 L-183.3 -575.6 L-185.3 -575.6 L-187.3 -575.6 L-189.3 -575.7 L-191.2 -575.7 L-193.2 -575.7 L-195.2 -575.7 L-197.2 -575.7 L-199.2 -575.7 L-201.1 -575.7 L-203.1 -575.7 L-205.1 -575.8 L-207.1 -575.8 L-209.1 -575.8 L-211 -575.8 L-213 -575.8 L-215 -575.8 L-217 -575.8 L-219 -575.8 L-221 -575.9 L-222.9 -575.9 L-224.9 -575.9 Z " />
<path stroke="rgb(0,0,0)" stroke-opacity="0.032" fill="rgb(255,255,255)" fill-opacity="1" d="M224.9 -299.8 L224.8 -297.9 L224.5 -295.9 L224.1 -294 L223.6 -292.1 L222.8 -290.2 L222 -288.4 L221 -286.7 L219.9 -285.1 L218.6 -283.6 L217.3 -282.1 L215.8 -280.8 L214.2 -279.6 L212.6 -278.6 L210.8 -277.6 L209 -276.8 L207.1 -276.2 L205.2 -275.7 L203.3 -275.4 L201.3 -275.2 L199.3 -275.2 L197.4 -275.3 L195.4 -275.6 L193.5 -276 L191.6 -276.6 L189.8 -277.4 L188 -278.2 L186.3 -279.3 L184.7 -280.4 L183.2 -281.7 L181.8 -283.1 L180.5 -284.6 L179.4 -286.2 L178.3 -287.9 L177.4 -289.6 L176.7 -291.4 L176.1 -293.3 L175.6 -295.3 L175.3 -297.2 L175.2 -299.2 L175.2 -301.2 L175.3 -303.1 L175.7 -305.1 L176.2 -307 L176.8 -308.9 L177.6 -310.7 L178.5 -312.4 L179.5 -314.1 L180.7 -315.7 L182 -317.2 L183.4 -318.5 L185 -319.8 L186.6 -320.9 L188.3 -321.9 L190.1 -322.8 L191.9 -323.5 L193.8 -324.1 L195.7 -324.5 L197.7 -324.7 L199.7 -324.9 L201.6 -324.8 L203.6 -324.6 L205.6 -324.2 L207.5 -323.7 L209.3 -323 L211.1 -322.2 L212.9 -321.3 L214.5 -320.2 L216.1 -319 L217.5 -317.6 L218.9 -316.2 L220.1 -314.6 L221.2 -313 L222.2 -311.3 L223 -309.5 L223.7 -307.6 L224.2 -305.7 L224.6 -303.8 L224.8 -301.8 L224.9 -299.8 Z " />
<path stroke="rgb(0,0,0)" stroke-opacity="1" fill="rgb(255,255,255)" fill-opacity="1" d="M-24.91 -575.9 L-24.9 -577.9 L-24.89 -579.8 L-24.87 -581.8 L-24.86 -583.8 L-24.85 -585.8 L-24.83 -587.8 L-24.82 -589.8 L-24.81 -591.7 L-24.8 -593.7 L-24.78 -595.7 L-24.77 -597.7 L-24.76 -599.7 L-24.75 -601.6 L-24.73 -603.6 L-24.72 -605.6 L-24.71 -607.6 L-24.69 -609.6 L-24.68 -611.5 L-24.67 -613.5 L-24.66 -615.5 L-24.64 -617.5 L-24.63 -619.5 L-24.62 -621.4 L-24.61 -623.4 L-24.59 -625.4 L-22.61 -625.4 L-20.63 -625.4 L-18.65 -625.4 L-16.67 -625.4 L-14.69 -625.3 L-12.71 -625.3 L-10.73 -625.3 L-8.747 -625.3 L-6.767 -625.3 L-4.786 -625.3 L-2.806 -625.3 L-0.825 -625.2 L1.156 -625.2 L3.136 -625.2 L5.117 -625.2 L7.097 -625.2 L9.078 -625.2 L11.06 -625.2 L13.04 -625.2 L15.02 -625.1 L17 -625.1 L18.98 -625.1 L20.96 -625.1 L22.94 -625.1 L24.92 -625.1 L24.91 -623.1 L24.9 -621.1 L24.88 -619.1 L24.87 -617.2 L24.86 -615.2 L24.85 -613.2 L24.83 -611.2 L24.82 -609.2 L24.81 -607.3 L24.8 -605.3 L24.78 -603.3 L24.77 -601.3 L24.76 -599.3 L24.74 -597.4 L24.73 -595.4 L24.72 -593.4 L24.71 -591.4 L24.69 -589.4 L24.68 -587.5 L24.67 -585.5 L24.65 -583.5 L24.64 -581.5 L24.63 -579.5 L24.62 -577.5 L24.6 -575.6 L22.62 -575.6 L20.64 -575.6 L18.66 -575.6 L16.68 -575.6 L14.7 -575.6 L12.72 -575.6 L10.74 -575.7 L8.759 -575.7 L6.778 -575.7 L4.798 -575.7 L2.817 -575.7 L0.8364 -575.7 L-1.144 -575.7 L-3.125 -575.7 L-5.105 -575.8 L-7.086 -575.8 L-9.067 -575.8 L-11.05 -575.8 L-13.03 -575.8 L-15.01 -575.8 L-16.99 -575.8 L-18.97 -575.8 L-20.95 -575.9 L-22.93 -575.9 L-24.91 -575.9 Z " />
<path stroke="rgb(0,0,0)" stroke-opacity="0.032" fill="rgb(255,255,255)" fill-opacity="1" d="M-275.1 -199.8 L-275.2 -197.9 L-275.5 -195.9 L-275.9 -194 L-276.4 -192.1 L-277.2 -190.2 L-278 -188.4 L-279 -186.7 L-280.1 -185.1 L-281.4 -183.6 L-282.7 -182.1 L-284.2 -180.8 L-285.8 -179.6 L-287.4 -178.6 L-289.2 -177.6 L-291 -176.8 L-292.9 -176.2 L-294.8 -175.7 L-296.7 -175.4 L-298.7 -175.2 L-300.7 -175.2 L-302.6 -175.3 L-304.6 -175.6 L-306.5 -176 L-308.4 -176.6 L-310.2 -177.4 L-312 -178.2 L-313.7 -179.3 L-315.3 -180.4 L-316.8 -181.7 L-318.2 -183.1 L-319.5 -184.6 L-320.6 -186.2 L-321.7 -187.9 L-322.6 -189.6 L-323.3 -191.4 L-323.9 -193.3 L-324.4 -195.3 L-324.7 -197.2 L-324.8 -199.2 L-324.8 -201.2 L-324.7 -203.1 L-324.3 -205.1 L-323.8 -207 L-323.2 -208.9 L-322.4 -210.7 L-321.5 -212.4 L-320.5 -214.1 L-319.3 -215.7 L-318 -217.2 L-316.6 -218.5 L-315 -219.8 L-313.4 -220.9 L-311.7 -221.9 L-309.9 -222.8 L-308.1 -223.5 L-306.2 -224.1 L-304.3 -224.5 L-302.3 -224.7 L-300.3 -224.9 L-298.4 -224.8 L-296.4 -224.6 L-294.4 -224.2 L-292.5 -223.7 L-290.7 -223 L-288.9 -222.2 L-287.1 -221.3 L-285.5 -220.2 L-283.9 -219 L-282.5 -217.6 L-281.1 -216.2 L-279.9 -214.6 L-278.8 -213 L-277.8 -211.3 L-277 -209.5 L-276.3 -207.6 L-275.8 -205.7 L-275.4 -203.8 L-275.2 -201.8 L-275.1 -199.8 Z " />
<path stroke="rgb(0,0,0)" stroke-opacity="1" fill="rgb(255,255,255)" fill-opacity="1" d="M-523.6 -475.4 L-523.6 -477.3 L-523.7 -479.3 L-523.8 -481.2 L-523.8 -483.2 L-523.9 -485.1 L-523.9 -487.1 L-524 -489 L-524.1 -491 L-524.1 -492.9 L-524.2 -494.9 L-524.3 -496.8 L-524.3 -498.8 L-524.4 -500.7 L-524.4 -502.6 L-524.5 -504.6 L-524.6 -506.5 L-524.6 -508.5 L-524.7 -510.4 L-524.7 -512.4 L-524.8 -514.3 L-524.9 -516.3 L-524.9 -518.2 L-525 -520.2 L-525 -522.1 L-525.1 -524.1 L-523.2 -524.1 L-521.2 -524.2 L-519.3 -524.2 L-517.3 -524.3 L-515.4 -524.4 L-513.4 -524.4 L-511.5 -524.5 L-509.5 -524.6 L-507.6 -524.6 L-505.6 -524.7 L-503.7 -524.7 L-501.7 -524.8 L-499.8 -524.9 L-497.8 -524.9 L-495.9 -525 L-494 -525 L-492 -525.1 L-490.1 -525.2 L-488.1 -525.2 L-486.2 -525.3 L-484.2 -525.3 L-482.3 -525.4 L-480.3 -525.5 L-478.4 -525.5 L-476.4 -525.6 L-476.4 -523.6 L-476.3 -521.7 L-476.3 -519.7 L-476.2 -517.8 L-476.1 -515.9 L-476.1 -513.9 L-476 -512 L-475.9 -510 L-475.9 -508.1 L-475.8 -506.1 L-475.8 -504.2 L-475.7 -502.2 L-475.6 -500.3 L-475.6 -498.3 L-475.5 -496.4 L-475.5 -494.4 L-475.4 -492.5 L-475.3 -490.5 L-475.3 -488.6 L-475.2 -486.6 L-475.2 -484.7 L-475.1 -482.8 L-475 -480.8 L-475 -478.9 L-474.9 -476.9 L-476.9 -476.9 L-478.8 -476.8 L-480.8 -476.7 L-482.7 -476.7 L-484.6 -476.6 L-486.6 -476.5 L-488.5 -476.5 L-490.5 -476.4 L-492.4 -476.4 L-494.4 -476.3 L-496.3 -476.2 L-498.3 -476.2 L-500.2 -476.1 L-502.2 -476.1 L-504.1 -476 L-506.1 -475.9 L-508 -475.9 L-510 -475.8 L-511.9 -475.8 L-513.8 -475.7 L-515.8 -475.6 L-517.7 -475.6 L-519.7 -475.5 L-521.6 -475.5 L-523.6 -475.4 Z " />
<path stroke="rgb(0,0,0)" stroke-opacity="0.032" fill="rgb(255,255,255)" fill-opacity="1" d="M-75.15 -199.8 L-75.24 -197.9 L-75.49 -195.9 L-75.89 -194 L-76.45 -192.1 L-77.15 -190.2 L-78 -188.4 L-78.99 -186.7 L-80.11 -185.1 L-81.35 -183.6 L-82.72 -182.1 L-84.19 -180.8 L-85.77 -179.6 L-87.43 -178.6 L-89.17 -177.6 L-90.98 -176.8 L-92.85 -176.2 L-94.77 -175.7 L-96.71 -175.4 L-98.68 -175.2 L-100.7 -175.2 L-102.6 -175.3 L-104.6 -175.6 L-106.5 -176 L-108.4 -176.6 L-110.2 -177.4 L-112 -178.2 L-113.7 -179.3 L-115.3 -180.4 L-116.8 -181.7 L-118.2 -183.1 L-119.5 -184.6 L-120.6 -186.2 L-121.7 -187.9 L-122.6 -189.6 L-123.3 -191.4 L-123.9 -193.3 L-124.4 -195.3 L-124.7 -197.2 L-124.8 -199.2 L-124.8 -201.2 L-124.7 -203.1 L-124.3 -205.1 L-123.8 -207 L-123.2 -208.9 L-122.4 -210.7 L-121.5 -212.4 L-120.5 -214.1 L-119.3 -215.7 L-118 -217.2 L-116.6 -218.5 L-115 -219.8 L-113.4 -220.9 L-111.7 -221.9 L-109.9 -222.8 L-108.1 -223.5 L-106.2 -224.1 L-104.3 -224.5 L-102.3 -224.7 L-100.3 -224.9 L-98.35 -224.8 L-96.39 -224.6 L-94.45 -224.2 L-92.54 -223.7 L-90.68 -223 L-88.88 -222.2 L-87.15 -221.3 L-85.5 -220.2 L-83.94 -219 L-82.49 -217.6 L-81.14 -216.2 L-79.91 -214.6 L-78.82 -213 L-77.85 -211.3 L-77.02 -209.5 L-76.34 -207.6 L-75.81 -205.7 L-75.44 -203.8 L-75.21 -201.8 L-75.15 -199.8 Z " />
<path stroke="rgb(0,0,0)" stroke-opacity="1" fill="rgb(255,255,255)" fill-opacity="1" d="M-324.9 -475.9 L-324.9 -477.9 L-324.9 -479.8 L-324.9 -481.8 L-324.9 -483.8 L-324.8 -485.8 L-324.8 -487.8 L-324.8 -489.8 L-324.8 -491.7 L-324.8 -493.7 L-324.8 -495.7 L-324.8 -497.7 L-324.8 -499.7 L-324.7 -501.6 L-324.7 -503.6 L-324.7 -505.6 L-324.7 -507.6 L-324.7 -509.6 L-324.7 -511.5 L-324.7 -513.5 L-324.7 -515.5 L-324.6 -517.5 L-324.6 -519.5 L-324.6 -521.4 L-324.6 -523.4 L-324.6 -525.4 L-322.6 -525.4 L-320.6 -525.4 L-318.7 -525.4 L-316.7 -525.4 L-314.7 -525.3 L-312.7 -525.3 L-310.7 -525.3 L-308.7 -525.3 L-306.8 -525.3 L-304.8 -525.3 L-302.8 -525.3 L-300.8 -525.2 L-298.8 -525.2 L-296.9 -525.2 L-294.9 -525.2 L-292.9 -525.2 L-290.9 -525.2 L-288.9 -525.2 L-287 -525.2 L-285 -525.1 L-283 -525.1 L-281 -525.1 L-279 -525.1 L-277.1 -525.1 L-275.1 -525.1 L-275.1 -523.1 L-275.1 -521.1 L-275.1 -519.1 L-275.1 -517.2 L-275.1 -515.2 L-275.2 -513.2 L-275.2 -511.2 L-275.2 -509.2 L-275.2 -507.3 L-275.2 -505.3 L-275.2 -503.3 L-275.2 -501.3 L-275.2 -499.3 L-275.3 -497.4 L-275.3 -495.4 L-275.3 -493.4 L-275.3 -491.4 L-275.3 -489.4 L-275.3 -487.5 L-275.3 -485.5 L-275.3 -483.5 L-275.4 -481.5 L-275.4 -479.5 L-275.4 -477.5 L-275.4 -475.6 L-277.4 -475.6 L-279.4 -475.6 L-281.3 -475.6 L-283.3 -475.6 L-285.3 -475.6 L-287.3 -475.6 L-289.3 -475.7 L-291.2 -475.7 L-293.2 -475.7 L-295.2 -475.7 L-297.2 -475.7 L-299.2 -475.7 L-301.1 -475.7 L-303.1 -475.7 L-305.1 -475.8 L-307.1 -475.8 L-309.1 -475.8 L-311 -475.8 L-313 -475.8 L-315 -475.8 L-317 -475.8 L-319 -475.8 L-321 -475.9 L-322.9 -475.9 L-324.9 -475.9 Z " />
<path stroke="rgb(0,0,0)" stroke-opacity="0.032" fill="rgb(255,255,255)" fill-opacity="1" d="M124.9 -199.8 L124.8 -197.9 L124.5 -195.9 L124.1 -194 L123.6 -192.1 L122.8 -190.2 L122 -188.4 L121 -186.7 L119.9 -185.1 L118.6 -183.6 L117.3 -182.1 L115.8 -180.8 L114.2 -179.6 L112.6 -178.6 L110.8 -177.6 L109 -176.8 L107.1 -176.2 L105.2 -175.7 L103.3 -175.4 L101.3 -175.2 L99.35 -175.2 L97.37 -175.3 L95.42 -175.6 L93.49 -176 L91.61 -176.6 L89.78 -177.4 L88.01 -178.2 L86.32 -179.3 L84.71 -180.4 L83.2 -181.7 L81.8 -183.1 L80.52 -184.6 L79.35 -186.2 L78.32 -187.9 L77.42 -189.6 L76.67 -191.4 L76.06 -193.3 L75.61 -195.3 L75.31 -197.2 L75.17 -199.2 L75.18 -201.2 L75.35 -203.1 L75.67 -205.1 L76.15 -207 L76.78 -208.9 L77.56 -210.7 L78.48 -212.4 L79.53 -214.1 L80.72 -215.7 L82.03 -217.2 L83.45 -218.5 L84.97 -219.8 L86.59 -220.9 L88.29 -221.9 L90.07 -222.8 L91.91 -223.5 L93.81 -224.1 L95.74 -224.5 L97.7 -224.7 L99.67 -224.9 L101.6 -224.8 L103.6 -224.6 L105.6 -224.2 L107.5 -223.7 L109.3 -223 L111.1 -222.2 L112.9 -221.3 L114.5 -220.2 L116.1 -219 L117.5 -217.6 L118.9 -216.2 L120.1 -214.6 L121.2 -213 L122.2 -211.3 L123 -209.5 L123.7 -207.6 L124.2 -205.7 L124.6 -203.8 L124.8 -201.8 L124.9 -199.8 Z " />
<path stroke="rgb(0,0,0)" stroke-opacity="1" fill="rgb(255,255,255)" fill-opacity="1" d="M-124.9 -475.9 L-124.9 -477.9 L-124.9 -479.8 L-124.9 -481.8 L-124.9 -483.8 L-124.8 -485.8 L-124.8 -487.8 L-124.8 -489.8 L-124.8 -491.7 L-124.8 -493.7 L-124.8 -495.7 L-124.8 -497.7 L-124.8 -499.7 L-124.7 -501.6 L-124.7 -503.6 L-124.7 -505.6 L-124.7 -507.6 L-124.7 -509.6 L-124.7 -511.5 L-124.7 -513.5 L-124.7 -515.5 L-124.6 -517.5 L-124.6 -519.5 L-124.6 -521.4 L-124.6 -523.4 L-124.6 -525.4 L-122.6 -525.4 L-120.6 -525.4 L-118.7 -525.4 L-116.7 -525.4 L-114.7 -525.3 L-112.7 -525.3 L-110.7 -525.3 L-108.7 -525.3 L-106.8 -525.3 L-104.8 -525.3 L-102.8 -525.3 L-100.8 -525.2 L-98.84 -525.2 L-96.86 -525.2 L-94.88 -525.2 L-92.9 -525.2 L-90.92 -525.2 L-88.94 -525.2 L-86.96 -525.2 L-84.98 -525.1 L-83 -525.1 L-81.02 -525.1 L-79.04 -525.1 L-77.06 -525.1 L-75.08 -525.1 L-75.09 -523.1 L-75.1 -521.1 L-75.12 -519.1 L-75.13 -517.2 L-75.14 -515.2 L-75.15 -513.2 L-75.17 -511.2 L-75.18 -509.2 L-75.19 -507.3 L-75.2 -505.3 L-75.22 -503.3 L-75.23 -501.3 L-75.24 -499.3 L-75.26 -497.4 L-75.27 -495.4 L-75.28 -493.4 L-75.29 -491.4 L-75.31 -489.4 L-75.32 -487.5 L-75.33 -485.5 L-75.35 -483.5 L-75.36 -481.5 L-75.37 -479.5 L-75.38 -477.5 L-75.4 -475.6 L-77.38 -475.6 L-79.36 -475.6 L-81.34 -475.6 L-83.32 -475.6 L-85.3 -475.6 L-87.28 -475.6 L-89.26 -475.7 L-91.24 -475.7 L-93.22 -475.7 L-95.2 -475.7 L-97.18 -475.7 L-99.16 -475.7 L-101.1 -475.7 L-103.1 -475.7 L-105.1 -475.8 L-107.1 -475.8 L-109.1 -475.8 L-111 -475.8 L-113 -475.8 L-115 -475.8 L-117 -475.8 L-119 -475.8 L-121 -475.9 L-122.9 -475.9 L-124.9 -475.9 Z " />
<path stroke="rgb(0,0,0)" stroke-opacity="0.032" fill="rgb(255,255,255)" fill-opacity="1" d="M324.9 -199.8 L324.8 -197.9 L324.5 -195.9 L324.1 -194 L323.6 -192.1 L322.8 -190.2 L322 -188.4 L321 -186.7 L319.9 -185.1 L318.6 -183.6 L317.3 -182.1 L315.8 -180.8 L314.2 -179.6 L312.6 -178.6 L310.8 -177.6 L309 -176.8 L307.1 -176.2 L305.2 -175.7 L303.3 -175.4 L301.3 -175.2 L299.3 -175.2 L297.4 -175.3 L295.4 -175.6 L293.5 -176 L291.6 -176.6 L289.8 -177.4 L288 -178.2 L286.3 -179.3 L284.7 -180.4 L283.2 -181.7 L281.8 -183.1 L280.5 -184.6 L279.4 -186.2 L278.3 -187.9 L277.4 -189.6 L276.7 -191.4 L276.1 -193.3 L275.6 -195.3 L275.3 -197.2 L275.2 -199.2 L275.2 -201.2 L275.3 -203.1 L275.7 -205.1 L276.2 -207 L276.8 -208.9 L277.6 -210.7 L278.5 -212.4 L279.5 -214.1 L280.7 -215.7 L282 -217.2 L283.4 -218.5 L285 -219.8 L286.6 -220.9 L288.3 -221.9 L290.1 -222.8 L291.9 -223.5 L293.8 -224.1 L295.7 -224.5 L297.7 -224.7 L299.7 -224.9 L301.6 -224.8 L303.6 -224.6 L305.6 -224.2 L307.5 -223.7 L309.3 -223 L311.1 -222.2 L312.9 -221.3 L314.5 -220.2 L316.1 -219 L317.5 -217.6 L318.9 -216.2 L320.1 -214.6 L321.2 -213 L322.2 -211.3 L323 -209.5 L323.7 -207.6 L324.2 -205.7 L324.6 -203.8 L324.8 -201.8 L324.9 -199.8 Z " />
<path stroke="rgb(0,0,0)" stroke-opacity="1" fill="rgb(255,255,255)" fill-opacity="1" d="M-623.6 -375.4 L-623.6 -377.3 L-623.7 -379.3 L-623.8 -381.2 L-623.8 -383.2 L-623.9 -385.1 L-623.9 -387.1 L-624 -389 L-624.1 -391 L-624.1 -392.9 L-624.2 -394.9 L-624.3 -396.8 L-624.3 -398.8 L-624.4 -400.7 L-624.4 -402.6 L-624.5 -404.6 L-624.6 -406.5 L-624.6 -408.5 L-624.7 -410.4 L-624.7 -412.4 L-624.8 -414.3 L-624.9 -416.3 L-624.9 -418.2 L-625 -420.2 L-625 -422.1 L-625.1 -424.1 L-623.2 -424.1 L-621.2 -424.2 L-619.3 -424.2 L-617.3 -424.3 L-615.4 -424.4 L-613.4 -424.4 L-611.5 -424.5 L-609.5 -424.6 L-607.6 -424.6 L-605.6 -424.7 L-603.7 -424.7 L-601.7 -424.8 L-599.8 -424.9 L-597.8 -424.9 L-595.9 -425 L-594 -425 L-592 -425.1 L-590.1 -425.2 L-588.1 -425.2 L-586.2 -425.3 L-584.2 -425.3 L-582.3 -425.4 L-580.3 -425.5 L-578.4 -425.5 L-576.4 -425.6 L-576.4 -423.6 L-576.3 -421.7 L-576.3 -419.7 L-576.2 -417.8 L-576.1 -415.9 L-576.1 -413.9 L-576 -412 L-575.9 -410 L-575.9 -408.1 L-575.8 -406.1 L-575.8 -404.2 L-575.7 -402.2 L-575.6 -400.3 L-575.6 -398.3 L-575.5 -396.4 L-575.5 -394.4 L-575.4 -392.5 L-575.3 -390.5 L-575.3 -388.6 L-575.2 -386.6 L-575.2 -384.7 L-575.1 -382.8 L-575 -380.8 L-575 -378.9 L-574.9 -376.9 L-576.9 -376.9 L-578.8 -376.8 L-580.8 -376.7 L-582.7 -376.7 L-584.6 -376.6 L-586.6 -376.5 L-588.5 -376.5 L-590.5 -376.4 L-592.4 -376.4 L-594.4 -376.3 L-596.3 -376.2 L-598.3 -376.2 L-600.2 -376.1 L-602.2 -376.1 L-604.1 -376 L-606.1 -375.9 L-608 -375.9 L-610 -375.8 L-611.9 -375.8 L-613.8 -375.7 L-615.8 -375.6 L-617.7 -375.6 L-619.7 -375.5 L-621.6 -375.5 L-623.6 -375.4 Z " />
<path stroke="rgb(0,0,0)" stroke-opacity="0.032" fill="rgb(255,255,255)" fill-opacity="1" d="M-175.1 -99.84 L-175.2 -97.87 L-175.5 -95.91 L-175.9 -93.97 L-176.4 -92.07 L-177.2 -90.23 L-178 -88.44 L-179 -86.73 L-180.1 -85.11 L-181.4 -83.57 L-182.7 -82.14 L-184.2 -80.83 L-185.8 -79.63 L-187.4 -78.56 L-189.2 -77.63 L-191 -76.84 L-192.9 -76.2 L-194.8 -75.71 L-196.7 -75.37 L-198.7 -75.19 L-200.7 -75.16 L-202.6 -75.29 L-204.6 -75.58 L-206.5 -76.02 L-208.4 -76.61 L-210.2 -77.35 L-212 -78.24 L-213.7 -79.26 L-215.3 -80.41 L-216.8 -81.69 L-218.2 -83.08 L-219.5 -84.58 L-220.6 -86.18 L-221.7 -87.86 L-222.6 -89.62 L-223.3 -91.45 L-223.9 -93.33 L-224.4 -95.25 L-224.7 -97.21 L-224.8 -99.18 L-224.8 -101.2 L-224.7 -103.1 L-224.3 -105.1 L-223.8 -107 L-223.2 -108.9 L-222.4 -110.7 L-221.5 -112.4 L-220.5 -114.1 L-219.3 -115.7 L-218 -117.2 L-216.6 -118.5 L-215 -119.8 L-213.4 -120.9 L-211.7 -121.9 L-209.9 -122.8 L-208.1 -123.5 L-206.2 -124.1 L-204.3 -124.5 L-202.3 -124.7 L-200.3 -124.9 L-198.4 -124.8 L-196.4 -124.6 L-194.4 -124.2 L-192.5 -123.7 L-190.7 -123 L-188.9 -122.2 L-187.1 -121.3 L-185.5 -120.2 L-183.9 -119 L-182.5 -117.6 L-181.1 -116.2 L-179.9 -114.6 L-178.8 -113 L-177.8 -111.3 L-177 -109.5 L-176.3 -107.6 L-175.8 -105.7 L-175.4 -103.8 L-175.2 -101.8 L-175.1 -99.84 Z " />
<path stroke="rgb(0,0,0)" stroke-opacity="1" fill="rgb(255,255,255)" fill-opacity="1" d="M-424.9 -375.9 L-424.9 -377.9 L-424.9 -379.8 L-424.9 -381.8 L-424.9 -383.8 L-424.8 -385.8 L-424.8 -387.8 L-424.8 -389.8 L-424.8 -391.7 L-424.8 -393.7 L-424.8 -395.7 L-424.8 -397.7 L-424.8 -399.7 L-424.7 -401.6 L-424.7 -403.6 L-424.7 -405.6 L-424.7 -407.6 L-424.7 -409.6 L-424.7 -411.5 L-424.7 -413.5 L-424.7 -415.5 L-424.6 -417.5 L-424.6 -419.5 L-424.6 -421.4 L-424.6 -423.4 L-424.6 -425.4 L-422.6 -425.4 L-420.6 -425.4 L-418.7 -425.4 L-416.7 -425.4 L-414.7 -425.3 L-412.7 -425.3 L-410.7 -425.3 L-408.7 -425.3 L-406.8 -425.3 L-404.8 -425.3 L-402.8 -425.3 L-400.8 -425.2 L-398.8 -425.2 L-396.9 -425.2 L-394.9 -425.2 L-392.9 -425.2 L-390.9 -425.2 L-388.9 -425.2 L-387 -425.2 L-385 -425.1 L-383 -425.1 L-381 -425.1 L-379 -425.1 L-377.1 -425.1 L-375.1 -425.1 L-375.1 -423.1 L-375.1 -421.1 L-375.1 -419.1 L-375.1 -417.2 L-375.1 -415.2 L-375.2 -413.2 L-375.2 -411.2 L-375.2 -409.2 L-375.2 -407.3 L-375.2 -405.3 L-375.2 -403.3 L-375.2 -401.3 L-375.2 -399.3 L-375.3 -397.4 L-375.3 -395.4 L-375.3 -393.4 L-375.3 -391.4 L-375.3 -389.4 L-375.3 -387.5 L-375.3 -385.5 L-375.3 -383.5 L-375.4 -381.5 L-375.4 -379.5 L-375.4 -377.5 L-375.4 -375.6 L-377.4 -375.6 L-379.4 -375.6 L-381.3 -375.6 L-383.3 -375.6 L-385.3 -375.6 L-387.3 -375.6 L-389.3 -375.7 L-391.2 -375.7 L-393.2 -375.7 L-395.2 -375.7 L-397.2 -375.7 L-399.2 -375.7 L-401.1 -375.7 L-403.1 -375.7 L-405.1 -375.8 L-407.1 -375.8 L-409.1 -375.8 L-411 -375.8 L-413 -375.8 L-415 -375.8 L-417 -375.8 L-419 -375.8 L-421 -375.9 L-422.9 -375.9 L-424.9 -375.9 Z " />
<path stroke="rgb(0,0,0)" stroke-opacity="0.032" fill="rgb(255,255,255)" fill-opacity="1" d="M24.85 -99.84 L24.76 -97.87 L24.51 -95.91 L24.11 -93.97 L23.55 -92.07 L22.85 -90.23 L22 -88.44 L21.01 -86.73 L19.89 -85.11 L18.65 -83.57 L17.28 -82.14 L15.81 -80.83 L14.23 -79.63 L12.57 -78.56 L10.83 -77.63 L9.017 -76.84 L7.148 -76.2 L5.235 -75.71 L3.288 -75.37 L1.321 -75.19 L-0.6549 -75.16 L-2.627 -75.29 L-4.581 -75.58 L-6.507 -76.02 L-8.392 -76.61 L-10.22 -77.35 L-11.99 -78.24 L-13.68 -79.26 L-15.29 -80.41 L-16.8 -81.69 L-18.2 -83.08 L-19.48 -84.58 L-20.65 -86.18 L-21.68 -87.86 L-22.58 -89.62 L-23.33 -91.45 L-23.94 -93.33 L-24.39 -95.25 L-24.69 -97.21 L-24.83 -99.18 L-24.82 -101.2 L-24.65 -103.1 L-24.33 -105.1 L-23.85 -107 L-23.22 -108.9 L-22.44 -110.7 L-21.52 -112.4 L-20.47 -114.1 L-19.28 -115.7 L-17.97 -117.2 L-16.55 -118.5 L-15.03 -119.8 L-13.41 -120.9 L-11.71 -121.9 L-9.927 -122.8 L-8.085 -123.5 L-6.193 -124.1 L-4.261 -124.5 L-2.303 -124.7 L-0.3295 -124.9 L1.646 -124.8 L3.611 -124.6 L5.553 -124.2 L7.46 -123.7 L9.319 -123 L11.12 -122.2 L12.85 -121.3 L14.5 -120.2 L16.06 -119 L17.51 -117.6 L18.86 -116.2 L20.09 -114.6 L21.18 -113 L22.15 -111.3 L22.98 -109.5 L23.66 -107.6 L24.19 -105.7 L24.56 -103.8 L24.79 -101.8 L24.85 -99.84 Z " />
<path stroke="rgb(0,0,0)" stroke-opacity="1" fill="rgb(255,255,255)" fill-opacity="1" d="M-224.9 -375.9 L-224.9 -377.9 L-224.9 -379.8 L-224.9 -381.8 L-224.9 -383.8 L-224.8 -385.8 L-224.8 -387.8 L-224.8 -389.8 L-224.8 -391.7 L-224.8 -393.7 L-224.8 -395.7 L-224.8 -397.7 L-224.8 -399.7 L-224.7 -401.6 L-224.7 -403.6 L-224.7 -405.6 L-224.7 -407.6 L-224.7 -409.6 L-224.7 -411.5 L-224.7 -413.5 L-224.7 -415.5 L-224.6 -417.5 L-224.6 -419.5 L-224.6 -421.4 L-224.6 -423.4 L-224.6 -425.4 L-222.6 -425.4 L-220.6 -425.4 L-218.7 -425.4 L-216.7 -425.4 L-214.7 -425.3 L-212.7 -425.3 L-210.7 -425.3 L-208.7 -425.3 L-206.8 -425.3 L-204.8 -425.3 L-202.8 -425.3 L-200.8 -425.2 L-198.8 -425.2 L-196.9 -425.2 L-194.9 -425.2 L-192.9 -425.2 L-190.9 -425.2 L-188.9 -425.2 L-187 -425.2 L-185 -425.1 L-183 -425.1 L-181 -425.1 L-179 -425.1 L-177.1 -425.1 L-175.1 -425.1 L-175.1 -423.1 L-175.1 -421.1 L-175.1 -419.1 L-175.1 -417.2 L-175.1 -415.2 L-175.2 -413.2 L-175.2 -411.2 L-175.2 -409.2 L-175.2 -407.3 L-175.2 -405.3 L-175.2 -403.3 L-175.2 -401.3 L-175.2 -399.3 L-175.3 -397.4 L-175.3 -395.4 L-175.3 -393.4 L-175.3 -391.4 L-175.3 -389.4 L-175.3 -387.5 L-175.3 -385.5 L-175.3 -383.5 L-175.4 -381.5 L-175.4 -379.5 L-175.4 -377.5 L-175.4 -375.6 L-177.4 -375.6 L-179.4 -375.6 L-181.3 -375.6 L-183.3 -375.6 L-185.3 -375.6 L-187.3 -375.6 L-189.3 -375.7 L-191.2 -375.7 L-193.2 -375.7 L-195.2 -375.7 L-197.2 -375.7 L-199.2 -375.7 L-201.1 -375.7 L-203.1 -375.7 L-205.1 -375.8 L-207.1 -375.8 L-209.1 -375.8 L-211 -375.8 L-213 -375.8 L-215 -375.8 L-217 -375.8 L-219 -375.8 L-221 -375.9 L-222.9 -375.9 L-224.9 -375.9 Z " />
<path stroke="rgb(0,0,0)" stroke-opacity="0.032" fill="rgb(255,255,255)" fill-opacity="1" d="M224.9 -99.84 L224.8 -97.87 L224.5 -95.91 L224.1 -93.97 L223.6 -92.07 L222.8 -90.23 L222 -88.44 L221 -86.73 L219.9 -85.11 L218.6 -83.57 L217.3 -82.14 L215.8 -80.83 L214.2 -79.63 L212.6 -78.56 L210.8 -77.63 L209 -76.84 L207.1 -76.2 L205.2 -75.71 L203.3 -75.37 L201.3 -75.19 L199.3 -75.16 L197.4 -75.29 L195.4 -75.58 L193.5 -76.02 L191.6 -76.61 L189.8 -77.35 L188 -78.24 L186.3 -79.26 L184.7 -80.41 L183.2 -81.69 L181.8 -83.08 L180.5 -84.58 L179.4 -86.18 L178.3 -87.86 L177.4 -89.62 L176.7 -91.45 L176.1 -93.33 L175.6 -95.25 L175.3 -97.21 L175.2 -99.18 L175.2 -101.2 L175.3 -103.1 L175.7 -105.1 L176.2 -107 L176.8 -108.9 L177.6 -110.7 L178.5 -112.4 L179.5 -114.1 L180.7 -115.7 L182 -117.2 L183.4 -118.5 L185 -119.8 L186.6 -120.9 L188.3 -121.9 L190.1 -122.8 L191.9 -123.5 L193.8 -124.1 L195.7 -124.5 L197.7 -124.7 L199.7 -124.9 L201.6 -124.8 L203.6 -124.6 L205.6 -124.2 L207.5 -123.7 L209.3 -123 L211.1 -122.2 L212.9 -121.3 L214.5 -120.2 L216.1 -119 L217.5 -117.6 L218.9 -116.2 L220.1 -114.6 L221.2 -113 L222.2 -111.3 L223 -109.5 L223.7 -107.6 L224.2 -105.7 L224.6 -103.8 L224.8 -101.8 L224.9 -99.84 Z " />
<path stroke="rgb(0,0,0)" stroke-opacity="1" fill="rgb(255,255,255)" fill-opacity="1" d="M-24.91 -375.9 L-24.9 -377.9 L-24.89 -379.8 L-24.87 -381.8 L-24.86 -383.8 L-24.85 -385.8 L-24.83 -387.8 L-24.82 -389.8 L-24.81 -391.7 L-24.8 -393.7 L-24.78 -395.7 L-24.77 -397.7 L-24.76 -399.7 L-24.75 -401.6 L-24.73 -403.6 L-24.72 -405.6 L-24.71 -407.6 L-24.69 -409.6 L-24.68 -411.5 L-24.67 -413.5 L-24.66 -415.5 L-24.64 -417.5 L-24.63 -419.5 L-24.62 -421.4 L-24.61 -423.4 L-24.59 -425.4 L-22.61 -425.4 L-20.63 -425.4 L-18.65 -425.4 L-16.67 -425.4 L-14.69 -425.3 L-12.71 -425.3 L-10.73 -425.3 L-8.747 -425.3 L-6.767 -425.3 L-4.786 -425.3 L-2.806 -425.3 L-0.825 -425.2 L1.156 -425.2 L3.136 -425.2 L5.117 -425.2 L7.097 -425.2 L9.078 -425.2 L11.06 -425.2 L13.04 -425.2 L15.02 -425.1 L17 -425.1 L18.98 -425.1 L20.96 -425.1 L22.94 -425.1 L24.92 -425.1 L24.91 -423.1 L24.9 -421.1 L24.88 -419.1 L24.87 -417.2 L24.86 -415.2 L24.85 -413.2 L24.83 -411.2 L24.82 -409.2 L24.81 -407.3 L24.8 -405.3 L24.78 -403.3 L24.77 -401.3 L24.76 -399.3 L24.74 -397.4 L24.73 -395.4 L24.72 -393.4 L24.71 -391.4 L24.69 -389.4 L24.68 -387.5 L24.67 -385.5 L24.65 -383.5 L24.64 -381.5 L24.63 -379.5 L24.62 -377.5 L24.6 -375.6 L22.62 -375.6 L20.64 -375.6 L18.66 -375.6 L16.68 -375.6 L14.7 -375.6 L12.72 -375.6 L10.74 -375.7 L8.759 -375.7 L6.778 -375.7 L4.798 -375.7 L2.817 -375.7 L0.8364 -375.7 L-1.144 -375.7 L-3.125 -375.7 L-5.105 -375.8 L-7.086 -375.8 L-9.067 -375.8 L-11.05 -375.8 L-13.03 -375.8 L-15.01 -375.8 L-16.99 -375.8 L-18.97 -375.8 L-20.95 -375.9 L-22.93 -375.9 L-24.91 -375.9 Z " />
<path stroke="rgb(0,0,0)" stroke-opacity="0.032" fill="rgb(255,255,255)" fill-opacity="1" d="M-275.1 0.1607 L-275.2 2.135 L-275.5 4.095 L-275.9 6.029 L-276.4 7.925 L-277.2 9.772 L-278 11.56 L-279 13.27 L-280.1 14.89 L-281.4 16.43 L-282.7 17.86 L-284.2 19.17 L-285.8 20.37 L-287.4 21.44 L-289.2 22.37 L-291 23.16 L-292.9 23.8 L-294.8 24.29 L-296.7 24.63 L-298.7 24.81 L-300.7 24.84 L-302.6 24.71 L-304.6 24.42 L-306.5 23.98 L-308.4 23.39 L-310.2 22.65 L-312 21.76 L-313.7 20.74 L-315.3 19.59 L-316.8 18.31 L-318.2 16.92 L-319.5 15.42 L-320.6 13.82 L-321.7 12.14 L-322.6 10.38 L-323.3 8.551 L-323.9 6.67 L-324.4 4.747 L-324.7 2.794 L-324.8 0.8233 L-324.8 -1.153 L-324.7 -3.121 L-324.3 -5.07 L-323.8 -6.987 L-323.2 -8.86 L-322.4 -10.68 L-321.5 -12.43 L-320.5 -14.1 L-319.3 -15.68 L-318 -17.16 L-316.6 -18.53 L-315 -19.79 L-313.4 -20.92 L-311.7 -21.92 L-309.9 -22.78 L-308.1 -23.5 L-306.2 -24.07 L-304.3 -24.48 L-302.3 -24.75 L-300.3 -24.85 L-298.4 -24.8 L-296.4 -24.59 L-294.4 -24.22 L-292.5 -23.71 L-290.7 -23.04 L-288.9 -22.23 L-287.1 -21.27 L-285.5 -20.18 L-283.9 -18.97 L-282.5 -17.63 L-281.1 -16.19 L-279.9 -14.64 L-278.8 -12.99 L-277.8 -11.27 L-277 -9.476 L-276.3 -7.62 L-275.8 -5.717 L-275.4 -3.777 L-275.2 -1.814 L-275.1 0.1607 Z " />
<path stroke="rgb(0,0,0)" stroke-opacity="1" fill="rgb(255,255,255)" fill-opacity="1" d="M-524.9 -275.9 L-524.9 -277.9 L-524.9 -279.8 L-524.9 -281.8 L-524.9 -283.8 L-524.8 -285.8 L-524.8 -287.8 L-524.8 -289.8 L-524.8 -291.7 L-524.8 -293.7 L-524.8 -295.7 L-524.8 -297.7 L-524.8 -299.7 L-524.7 -301.6 L-524.7 -303.6 L-524.7 -305.6 L-524.7 -307.6 L-524.7 -309.6 L-524.7 -311.5 L-524.7 -313.5 L-524.7 -315.5 L-524.6 -317.5 L-524.6 -319.5 L-524.6 -321.4 L-524.6 -323.4 L-524.6 -325.4 L-522.6 -325.4 L-520.6 -325.4 L-518.7 -325.4 L-516.7 -325.4 L-514.7 -325.3 L-512.7 -325.3 L-510.7 -325.3 L-508.7 -325.3 L-506.8 -325.3 L-504.8 -325.3 L-502.8 -325.3 L-500.8 -325.2 L-498.8 -325.2 L-496.9 -325.2 L-494.9 -325.2 L-492.9 -325.2 L-490.9 -325.2 L-488.9 -325.2 L-487 -325.2 L-485 -325.1 L-483 -325.1 L-481 -325.1 L-479 -325.1 L-477.1 -325.1 L-475.1 -325.1 L-475.1 -323.1 L-475.1 -321.1 L-475.1 -319.1 L-475.1 -317.2 L-475.1 -315.2 L-475.2 -313.2 L-475.2 -311.2 L-475.2 -309.2 L-475.2 -307.3 L-475.2 -305.3 L-475.2 -303.3 L-475.2 -301.3 L-475.2 -299.3 L-475.3 -297.4 L-475.3 -295.4 L-475.3 -293.4 L-475.3 -291.4 L-475.3 -289.4 L-475.3 -287.5 L-475.3 -285.5 L-475.3 -283.5 L-475.4 -281.5 L-475.4 -279.5 L-475.4 -277.5 L-475.4 -275.6 L-477.4 -275.6 L-479.4 -275.6 L-481.3 -275.6 L-483.3 -275.6 L-485.3 -275.6 L-487.3 -275.6 L-489.3 -275.7 L-491.2 -275.7 L-493.2 -275.7 L-495.2 -275.7 L-497.2 -275.7 L-499.2 -275.7 L-501.1 -275.7 L-503.1 -275.7 L-505.1 -275.8 L-507.1 -275.8 L-509.1 -275.8 L-511 -275.8 L-513 -275.8 L-515 -275.8 L-517 -275.8 L-519 -275.8 L-521 -275.9 L-522.9 -275.9 L-524.9 -275.9 Z " />
<path stroke="rgb(0,0,0)" stroke-opacity="0.032" fill="rgb(255,255,255)" fill-opacity="1" d="M-75.15 0.1607 L-75.24 2.135 L-75.49 4.095 L-75.89 6.029 L-76.45 7.925 L-77.15 9.772 L-78 11.56 L-78.99 13.27 L-80.11 14.89 L-81.35 16.43 L-82.72 17.86 L-84.19 19.17 L-85.77 20.37 L-87.43 21.44 L-89.17 22.37 L-90.98 23.16 L-92.85 23.8 L-94.77 24.29 L-96.71 24.63 L-98.68 24.81 L-100.7 24.84 L-102.6 24.71 L-104.6 24.42 L-106.5 23.98 L-108.4 23.39 L-110.2 22.65 L-112 21.76 L-113.7 20.74 L-115.3 19.59 L-116.8 18.31 L-118.2 16.92 L-119.5 15.42 L-120.6 13.82 L-121.7 12.14 L-122.6 10.38 L-123.3 8.551 L-123.9 6.67 L-124.4 4.747 L-124.7 2.794 L-124.8 0.8233 L-124.8 -1.153 L-124.7 -3.121 L-124.3 -5.07 L-123.8 -6.987 L-123.2 -8.86 L-122.4 -10.68 L-121.5 -12.43 L-120.5 -14.1 L-119.3 -15.68 L-118 -17.16 L-116.6 -18.53 L-115 -19.79 L-113.4 -20.92 L-111.7 -21.92 L-109.9 -22.78 L-108.1 -23.5 L-106.2 -24.07 L-104.3 -24.48 L-102.3 -24.75 L-100.3 -24.85 L-98.35 -24.8 L-96.39 -24.59 L-94.45 -24.22 L-92.54 -23.71 L-90.68 -23.04 L-88.88 -22.23 L-87.15 -21.27 L-85.5 -20.18 L-83.94 -18.97 L-82.49 -17.63 L-81.14 -16.19 L-79.91 -14.64 L-78.82 -12.99 L-77.85 -11.27 L-77.02 -9.476 L-76.34 -7.62 L-75.81 -5.717 L-75.44 -3.777 L-75.21 -1.814 L-75.15 0.1607 Z " />
<path stroke="rgb(0,0,0)" stroke-opacity="1" fill="rgb(255,255,255)" fill-opacity="1" d="M-324.9 -275.9 L-324.9 -277.9 L-324.9 -279.8 L-324.9 -281.8 L-324.9 -283.8 L-324.8 -285.8 L-324.8 -287.8 L-324.8 -289.8 L-324.8 -291.7 L-324.8 -293.7 L-324.8 -295.7 L-324.8 -297.7 L-324.8 -299.7 L-324.7 -301.6 L-324.7 -303.6 L-324.7 -305.6 L-324.7 -307.6 L-324.7 -309.6 L-324.7 -311.5 L-324.7 -313.5 L-324.7 -315.5 L-324.6 -317.5 L-324.6 -319.5 L-324.6 -321.4 L-324.6 -323.4 L-324.6 -325.4 L-322.6 -325.4 L-320.6 -325.4 L-318.7 -325.4 L-316.7 -325.4 L-314.7 -325.3 L-312.7 -325.3 L-310.7 -325.3 L-308.7 -325.3 L-306.8 -325.3 L-304.8 -325.3 L-302.8 -325.3 L-300.8 -325.2 L-298.8 -325.2 L-296.9 -325.2 L-294.9 -325.2 L-292.9 -325.2 L-290.9 -325.2 L-288.9 -325.2 L-287 -325.2 L-285 -325.1 L-283 -325.1 L-281 -325.1 L-279 -325.1 L-277.1 -325.1 L-275.1 -325.1 L-275.1 -323.1 L-275.1 -321.1 L-275.1 -319.1 L-275.1 -317.2 L-275.1 -315.2 L-275.2 -313.2 L-275.2 -311.2 L-275.2 -309.2 L-275.2 -307.3 L-275.2 -305.3 L-275.2 -303.3 L-275.2 -301.3 L-275.2 -299.3 L-275.3 -297.4 L-275.3 -295.4 L-275.3 -293.4 L-275.3 -291.4 L-275.3 -289.4 L-275.3 -287.5 L-275.3 -285.5 L-275.3 -283.5 L-275.4 -281.5 L-275.4 -279.5 L-275.4 -277.5 L-275.4 -275.6 L-277.4 -275.6 L-279.4 -275.6 L-281.3 -275.6 L-283.3 -275.6 L-285.3 -275.6 L-287.3 -275.6 L-289.3 -275.7 L-291.2 -275.7 L-293.2 -275.7 L-295.2 -275.7 L-297.2 -275.7 L-299.2 -275.7 L-301.1 -275.7 L-303.1 -275.7 L-305.1 -275.8 L-307.1 -275.8 L-309.1 -275.8 L-311 -275.8 L-313 -275.8 L-315 -275.8 L-317 -275.8 L-319 -275.8 L-321 -275.9 L-322.9 -275.9 L-324.9 -275.9 Z " />
<path stroke="rgb(0,0,0)" stroke-opacity="0.032" fill="rgb(255,255,255)" fill-opacity="1" d="M124.9 0.1607 L124.8 2.135 L124.5 4.095 L124.1 6.029 L123.6 7.925 L122.8 9.772 L122 11.56 L121 13.27 L119.9 14.89 L118.6 16.43 L117.3 17.86 L115.8 19.17 L114.2 20.37 L112.6 21.44 L110.8 22.37 L109 23.16 L107.1 23.8 L105.2 24.29 L103.3 24.63 L101.3 24.81 L99.35 24.84 L97.37 24.71 L95.42 24.42 L93.49 23.98 L91.61 23.39 L89.78 22.65 L88.01 21.76 L86.32 20.74 L84.71 19.59 L83.2 18.31 L81.8 16.92 L80.52 15.42 L79.35 13.82 L78.32 12.14 L77.42 10.38 L76.67 8.551 L76.06 6.67 L75.61 4.747 L75.31 2.794 L75.17 0.8233 L75.18 -1.153 L75.35 -3.121 L75.67 -5.07 L76.15 -6.987 L76.78 -8.86 L77.56 -10.68 L78.48 -12.43 L79.53 -14.1 L80.72 -15.68 L82.03 -17.16 L83.45 -18.53 L84.97 -19.79 L86.59 -20.92 L88.29 -21.92 L90.07 -22.78 L91.91 -23.5 L93.81 -24.07 L95.74 -24.48 L97.7 -24.75 L99.67 -24.85 L101.6 -24.8 L103.6 -24.59 L105.6 -24.22 L107.5 -23.71 L109.3 -23.04 L111.1 -22.23 L112.9 -21.27 L114.5 -20.18 L116.1 -18.97 L117.5 -17.63 L118.9 -16.19 L120.1 -14.64 L121.2 -12.99 L122.2 -11.27 L123 -9.476 L123.7 -7.62 L124.2 -5.717 L124.6 -3.777 L124.8 -1.814 L124.9 0.1607 Z " />
<path stroke="rgb(0,0,0)" stroke-opacity="1" fill="rgb(255,255,255)" fill-opacity="1" d="M-124.9 -275.9 L-124.9 -277.9 L-124.9 -279.8 L-124.9 -281.8 L-124.9 -283.8 L-124.8 -285.8 L-124.8 -287.8 L-124.8 -289.8 L-124.8 -291.7 L-124.8 -293.7 L-124.8 -295.7 L-124.8 -297.7 L-124.8 -299.7 L-124.7 -301.6 L-124.7 -303.6 L-124.7 -305.6 L-124.7 -307.6 L-124.7 -309.6 L-124.7 -311.5 L-124.7 -313.5 L-124.7 -315.5 L-124.6 -317.5 L-124.6 -319.5 L-124.6 -321.4 L-124.6 -323.4 L-124.6 -325.4 L-122.6 -325.4 L-120.6 -325.4 L-118.7 -325.4 L-116.7 -325.4 L-114.7 -325.3 L-112.7 -325.3 L-110.7 -325.3 L-108.7 -325.3 L-106.8 -325.3 L-104.8 -325.3 L-102.8 -325.3 L-100.8 -325.2 L-98.84 -325.2 L-96.86 -325.2 L-94.88 -325.2 L-92.9 -325.2 L-90.92 -325.2 L-88.94 -325.2 L-86.96 -325.2 L-84.98 -325.1 L-83 -325.1 L-81.02 -325.1 L-79.04 -325.1 L-77.06 -325.1 L-75.08 -325.1 L-75.09 -323.1 L-75.1 -321.1 L-75.12 -319.1 L-75.13 -317.2 L-75.14 -315.2 L-75.15 -313.2 L-75.17 -311.2 L-75.18 -309.2 L-75.19 -307.3 L-75.2 -305.3 L-75.22 -303.3 L-75.23 -301.3 L-75.24 -299.3 L-75.26 -297.4 L-75.27 -295.4 L-75.28 -293.4 L-75.29 -291.4 L-75.31 -289.4 L-75.32 -287.5 L-75.33 -285.5 L-75.35 -283.5 L-75.36 -281.5 L-75.37 -279.5 L-75.38 -277.5 L-75.4 -275.6 L-77.38 -275.6 L-79.36 -275.6 L-81.34 -275.6 L-83.32 -275.6 L-85.3 -275.6 L-87.28 -275.6 L-89.26 -275.7 L-91.24 -275.7 L-93.22 -275.7 L-95.2 -275.7 L-97.18 -275.7 L-99.16 -275.7 L-101.1 -275.7 L-103.1 -275.7 L-105.1 -275.8 L-107.1 -275.8 L-109.1 -275.8 L-111 -275.8 L-113 -275.8 L-115 -275.8 L-117 -275.8 L-119 -275.8 L-121 -275.9 L-122.9 -275.9 L-124.9 -275.9 Z " />
<path stroke="rgb(0,0,0)" stroke-opacity="0.032" fill="rgb(255,255,255)" fill-opacity="1" d="M324.9 0.1607 L324.8 2.135 L324.5 4.095 L324.1 6.029 L323.6 7.925 L322.8 9.772 L322 11.56 L321 13.27 L319.9 14.89 L318.6 16.43 L317.3 17.86 L315.8 19.17 L314.2 20.37 L312.6 21.44 L310.8 22.37 L309 23.16 L307.1 23.8 L305.2 24.29 L303.3 24.63 L301.3 24.81 L299.3 24.84 L297.4 24.71 L295.4 24.42 L293.5 23.98 L291.6 23.39 L289.8 22.65 L288 21.76 L286.3 20.74 L284.7 19.59 L283.2 18.31 L281.8 16.92 L280.5 15.42 L279.4 13.82 L278.3 12.14 L277.4 10.38 L276.7 8.551 L276.1 6.67 L275.6 4.747 L275.3 2.794 L275.2 0.8233 L275.2 -1.153 L275.3 -3.121 L275.7 -5.07 L276.2 -6.987 L276.8 -8.86 L277.6 -10.68 L278.5 -12.43 L279.5 -14.1 L280.7 -15.68 L282 -17.16 L283.4 -18.53 L285 -19.79 L286.6 -20.92 L288.3 -21.92 L290.1 -22.78 L291.9 -23.5 L293.8 -24.07 L295.7 -24.48 L297.7 -24.75 L299.7 -24.85 L301.6 -24.8 L303.6 -24.59 L305.6 -24.22 L307.5 -23.71 L309.3 -23.04 L311.1 -22.23 L312.9 -21.27 L314.5 -20.18 L316.1 -18.97 L317.5 -17.63 L318.9 -16.19 L320.1 -14.64 L321.2 -12.99 L322.2 -11.27 L323 -9.476 L323.7 -7.62 L324.2 -5.717 L324.6 -3.777 L324.8 -1.814 L324.9 0.1607 Z " />
<path stroke="rgb(0,0,0)" stroke-opacity="1" fill="rgb(255,255,255)" fill-opacity="1" d="M-624.9 -175.9 L-624.9 -177.9 L-624.9 -179.8 L-624.9 -181.8 L-624.9 -183.8 L-624.8 -185.8 L-624.8 -187.8 L-624.8 -189.8 L-624.8 -191.7 L-624.8 -193.7 L-624.8 -195.7 L-624.8 -197.7 L-624.8 -199.7 L-624.7 -201.6 L-624.7 -203.6 L-624.7 -205.6 L-624.7 -207.6 L-624.7 -209.6 L-624.7 -211.5 L-624.7 -213.5 L-624.7 -215.5 L-624.6 -217.5 L-624.6 -219.5 L-624.6 -221.4 L-624.6 -223.4 L-624.6 -225.4 L-622.6 -225.4 L-620.6 -225.4 L-618.7 -225.4 L-616.7 -225.4 L-614.7 -225.3 L-612.7 -225.3 L-610.7 -225.3 L-608.7 -225.3 L-606.8 -225.3 L-604.8 -225.3 L-602.8 -225.3 L-600.8 -225.2 L-598.8 -225.2 L-596.9 -225.2 L-594.9 -225.2 L-592.9 -225.2 L-590.9 -225.2 L-588.9 -225.2 L-587 -225.2 L-585 -225.1 L-583 -225.1 L-581 -225.1 L-579 -225.1 L-577.1 -225.1 L-575.1 -225.1 L-575.1 -223.1 L-575.1 -221.1 L-575.1 -219.1 L-575.1 -217.2 L-575.1 -215.2 L-575.2 -213.2 L-575.2 -211.2 L-575.2 -209.2 L-575.2 -207.3 L-575.2 -205.3 L-575.2 -203.3 L-575.2 -201.3 L-575.2 -199.3 L-575.3 -197.4 L-575.3 -195.4 L-575.3 -193.4 L-575.3 -191.4 L-575.3 -189.4 L-575.3 -187.5 L-575.3 -185.5 L-575.3 -183.5 L-575.4 -181.5 L-575.4 -179.5 L-575.4 -177.5 L-575.4 -175.6 L-577.4 -175.6 L-579.4 -175.6 L-581.3 -175.6 L-583.3 -175.6 L-585.3 -175.6 L-587.3 -175.6 L-589.3 -175.7 L-591.2 -175.7 L-593.2 -175.7 L-595.2 -175.7 L-597.2 -175.7 L-599.2 -175.7 L-601.1 -175.7 L-603.1 -175.7 L-605.1 -175.8 L-607.1 -175.8 L-609.1 -175.8 L-611 -175.8 L-613 -175.8 L-615 -175.8 L-617 -175.8 L-619 -175.8 L-621 -175.9 L-622.9 -175.9 L-624.9 -175.9 Z " />
<path stroke="rgb(0,0,0)" stroke-opacity="0.032" fill="rgb(255,255,255)" fill-opacity="1" d="M-175.1 100.2 L-175.2 102.1 L-175.5 104.1 L-175.9 106 L-176.4 107.9 L-177.2 109.8 L-178 111.6 L-179 113.3 L-180.1 114.9 L-181.4 116.4 L-182.7 117.9 L-184.2 119.2 L-185.8 120.4 L-187.4 121.4 L-189.2 122.4 L-191 123.2 L-192.9 123.8 L-194.8 124.3 L-196.7 124.6 L-198.7 124.8 L-200.7 124.8 L-202.6 124.7 L-204.6 124.4 L-206.5 124 L-208.4 123.4 L-210.2 122.6 L-212 121.8 L-213.7 120.7 L-215.3 119.6 L-216.8 118.3 L-218.2 116.9 L-219.5 115.4 L-220.6 113.8 L-221.7 112.1 L-222.6 110.4 L-223.3 108.6 L-223.9 106.7 L-224.4 104.7 L-224.7 102.8 L-224.8 100.8 L-224.8 98.85 L-224.7 96.88 L-224.3 94.93 L-223.8 93.01 L-223.2 91.14 L-222.4 89.32 L-221.5 87.57 L-220.5 85.9 L-219.3 84.32 L-218 82.84 L-216.6 81.47 L-215 80.21 L-213.4 79.08 L-211.7 78.08 L-209.9 77.22 L-208.1 76.5 L-206.2 75.93 L-204.3 75.52 L-202.3 75.25 L-200.3 75.15 L-198.4 75.2 L-196.4 75.41 L-194.4 75.78 L-192.5 76.29 L-190.7 76.96 L-188.9 77.77 L-187.1 78.73 L-185.5 79.82 L-183.9 81.03 L-182.5 82.37 L-181.1 83.81 L-179.9 85.36 L-178.8 87.01 L-177.8 88.73 L-177 90.52 L-176.3 92.38 L-175.8 94.28 L-175.4 96.22 L-175.2 98.19 L-175.1 100.2 Z " />
<path stroke="rgb(0,0,0)" stroke-opacity="1" fill="rgb(255,255,255)" fill-opacity="1" d="M-424.9 -175.9 L-424.9 -177.9 L-424.9 -179.8 L-424.9 -181.8 L-424.9 -183.8 L-424.8 -185.8 L-424.8 -187.8 L-424.8 -189.8 L-424.8 -191.7 L-424.8 -193.7 L-424.8 -195.7 L-424.8 -197.7 L-424.8 -199.7 L-424.7 -201.6 L-424.7 -203.6 L-424.7 -205.6 L-424.7 -207.6 L-424.7 -209.6 L-424.7 -211.5 L-424.7 -213.5 L-424.7 -215.5 L-424.6 -217.5 L-424.6 -219.5 L-424.6 -221.4 L-424.6 -223.4 L-424.6 -225.4 L-422.6 -225.4 L-420.6 -225.4 L-418.7 -225.4 L-416.7 -225.4 L-414.7 -225.3 L-412.7 -225.3 L-410.7 -225.3 L-408.7 -225.3 L-406.8 -225.3 L-404.8 -225.3 L-402.8 -225.3 L-400.8 -225.2 L-398.8 -225.2 L-396.9 -225.2 L-394.9 -225.2 L-392.9 -225.2 L-390.9 -225.2 L-388.9 -225.2 L-387 -225.2 L-385 -225.1 L-383 -225.1 L-381 -225.1 L-379 -225.1 L-377.1 -225.1 L-375.1 -225.1 L-375.1 -223.1 L-375.1 -221.1 L-375.1 -219.1 L-375.1 -217.2 L-375.1 -215.2 L-375.2 -213.2 L-375.2 -211.2 L-375.2 -209.2 L-375.2 -207.3 L-375.2 -205.3 L-375.2 -203.3 L-375.2 -201.3 L-375.2 -199.3 L-375.3 -197.4 L-375.3 -195.4 L-375.3 -193.4 L-375.3 -191.4 L-375.3 -189.4 L-375.3 -187.5 L-375.3 -185.5 L-375.3 -183.5 L-375.4 -181.5 L-375.4 -179.5 L-375.4 -177.5 L-375.4 -175.6 L-377.4 -175.6 L-379.4 -175.6 L-381.3 -175.6 L-383.3 -175.6 L-385.3 -175.6 L-387.3 -175.6 L-389.3 -175.7 L-391.2 -175.7 L-393.2 -175.7 L-395.2 -175.7 L-397.2 -175.7 L-399.2 -175.7 L-401.1 -175.7 L-403.1 -175.7 L-405.1 -175.8 L-407.1 -175.8 L-409.1 -175.8 L-411 -175.8 L-413 -175.8 L-415 -175.8 L-417 -175.8 L-419 -175.8 L-421 -175.9 L-422.9 -175.9 L-424.9 -175.9 Z " />
<path stroke="rgb(0,0,0)" stroke-opacity="0.032" fill="rgb(255,255,255)" fill-opacity="1" d="M24.85 100.2 L24.76 102.1 L24.51 104.1 L24.11 106 L23.55 107.9 L22.85 109.8 L22 111.6 L21.01 113.3 L19.89 114.9 L18.65 116.4 L17.28 117.9 L15.81 119.2 L14.23 120.4 L12.57 121.4 L10.83 122.4 L9.017 123.2 L7.148 123.8 L5.235 124.3 L3.288 124.6 L1.321 124.8 L-0.6549 124.8 L-2.627 124.7 L-4.581 124.4 L-6.507 124 L-8.392 123.4 L-10.22 122.6 L-11.99 121.8 L-13.68 120.7 L-15.29 119.6 L-16.8 118.3 L-18.2 116.9 L-19.48 115.4 L-20.65 113.8 L-21.68 112.1 L-22.58 110.4 L-23.33 108.6 L-23.94 106.7 L-24.39 104.7 L-24.69 102.8 L-24.83 100.8 L-24.82 98.85 L-24.65 96.88 L-24.33 94.93 L-23.85 93.01 L-23.22 91.14 L-22.44 89.32 L-21.52 87.57 L-20.47 85.9 L-19.28 84.32 L-17.97 82.84 L-16.55 81.47 L-15.03 80.21 L-13.41 79.08 L-11.71 78.08 L-9.927 77.22 L-8.085 76.5 L-6.193 75.93 L-4.261 75.52 L-2.303 75.25 L-0.3295 75.15 L1.646 75.2 L3.611 75.41 L5.553 75.78 L7.46 76.29 L9.319 76.96 L11.12 77.77 L12.85 78.73 L14.5 79.82 L16.06 81.03 L17.51 82.37 L18.86 83.81 L20.09 85.36 L21.18 87.01 L22.15 88.73 L22.98 90.52 L23.66 92.38 L24.19 94.28 L24.56 96.22 L24.79 98.19 L24.85 100.2 Z " />
<path stroke="rgb(0,0,0)" stroke-opacity="1" fill="rgb(255,255,255)" fill-opacity="1" d="M-224.9 -175.9 L-224.9 -177.9 L-224.9 -179.8 L-224.9 -181.8 L-224.9 -183.8 L-224.8 -185.8 L-224.8 -187.8 L-224.8 -189.8 L-224.8 -191.7 L-224.8 -193.7 L-224.8 -195.7 L-224.8 -197.7 L-224.8 -199.7 L-224.7 -201.6 L-224.7 -203.6 L-224.7 -205.6 L-224.7 -207.6 L-224.7 -209.6 L-224.7 -211.5 L-224.7 -213.5 L-224.7 -215.5 L-224.6 -217.5 L-224.6 -219.5 L-224.6 -221.4 L-224.6 -223.4 L-224.6 -225.4 L-222.6 -225.4 L-220.6 -225.4 L-218.7 -225.4 L-216.7 -225.4 L-214.7 -225.3 L-212.7 -225.3 L-210.7 -225.3 L-208.7 -225.3 L-206.8 -225.3 L-204.8 -225.3 L-202.8 -225.3 L-200.8 -225.2 L-198.8 -225.2 L-196.9 -225.2 L-194.9 -225.2 L-192.9 -225.2 L-190.9 -225.2 L-188.9 -225.2 L-187 -225.2 L-185 -225.1 L-183 -225.1 L-181 -225.1 L-179 -225.1 L-177.1 -225.1 L-175.1 -225.1 L-175.1 -223.1 L-175.1 -221.1 L-175.1 -219.1 L-175.1 -217.2 L-175.1 -215.2 L-175.2 -213.2 L-175.2 -211.2 L-175.2 -209.2 L-175.2 -207.3 L-175.2 -205.3 L-175.2 -203.3 L-175.2 -201.3 L-175.2 -199.3 L-175.3 -197.4 L-175.3 -195.4 L-175.3 -193.4 L-175.3 -191.4 L-175.3 -189.4 L-175.3 -187.5 L-175.3 -185.5 L-175.3 -183.5 L-175.4 -181.5 L-175.4 -179.5 L-175.4 -177.5 L-175.4 -175.6 L-177.4 -175.6 L-179.4 -175.6 L-181.3 -175.6 L-183.3 -175.6 L-185.3 -175.6 L-187.3 -175.6 L-189.3 -175.7 L-191.2 -175.7 L-193.2 -175.7 L-195.2 -175.7 L-197.2 -175.7 L-199.2 -175.7 L-201.1 -175.7 L-203.1 -175.7 L-205.1 -175.8 L-207.1 -175.8 L-209.1 -175.8 L-211 -175.8 L-213 -175.8 L-215 -175.8 L-217 -175.8 L-219 -175.8 L-221 -175.9 L-222.9 -175.9 L-224.9 -175.9 Z " />
<path stroke="rgb(0,0,0)" stroke-opacity="0.032" fill="rgb(255,255,255)" fill-opacity="1" d="M224.9 100.2 L224.8 102.1 L224.5 104.1 L224.1 106 L223.6 107.9 L222.8 109.8 L222 111.6 L221 113.3 L219.9 114.9 L218.6 116.4 L217.3 117.9 L215.8 119.2 L214.2 120.4 L212.6 121.4 L210.8 122.4 L209 123.2 L207.1 123.8 L205.2 124.3 L203.3 124.6 L201.3 124.8 L199.3 124.8 L197.4 124.7 L195.4 124.4 L193.5 124 L191.6 123.4 L189.8 122.6 L188 121.8 L186.3 120.7 L184.7 119.6 L183.2 118.3 L181.8 116.9 L180.5 115.4 L179.4 113.8 L178.3 112.1 L177.4 110.4 L176.7 108.6 L176.1 106.7 L175.6 104.7 L175.3 102.8 L175.2 100.8 L175.2 98.85 L175.3 96.88 L175.7 94.93 L176.2 93.01 L176.8 91.14 L177.6 89.32 L178.5 87.57 L179.5 85.9 L180.7 84.32 L182 82.84 L183.4 81.47 L185 80.21 L186.6 79.08 L188.3 78.08 L190.1 77.22 L191.9 76.5 L193.8 75.93 L195.7 75.52 L197.7 75.25 L199.7 75.15 L201.6 75.2 L203.6 75.41 L205.6 75.78 L207.5 76.29 L209.3 76.96 L211.1 77.77 L212.9 78.73 L214.5 79.82 L216.1 81.03 L217.5 82.37 L218.9 83.81 L220.1 85.36 L221.2 87.01 L222.2 88.73 L223 90.52 L223.7 92.38 L224.2 94.28 L224.6 96.22 L224.8 98.19 L224.9 100.2 Z " />
<path stroke="rgb(0,0,0)" stroke-opacity="1" fill="rgb(255,255,255)" fill-opacity="1" d="M-24.91 -175.9 L-24.9 -177.9 L-24.89 -179.8 L-24.87 -181.8 L-24.86 -183.8 L-24.85 -185.8 L-24.83 -187.8 L-24.82 -189.8 L-24.81 -191.7 L-24.8 -193.7 L-24.78 -195.7 L-24.77 -197.7 L-24.76 -199.7 L-24.75 -201.6 L-24.73 -203.6 L-24.72 -205.6 L-24.71 -207.6 L-24.69 -209.6 L-24.68 -211.5 L-24.67 -213.5 L-24.66 -215.5 L-24.64 -217.5 L-24.63 -219.5 L-24.62 -221.4 L-24.61 -223.4 L-24.59 -225.4 L-22.61 -225.4 L-20.63 -225.4 L-18.65 -225.4 L-16.67 -225.4 L-14.69 -225.3 L-12.71 -225.3 L-10.73 -225.3 L-8.747 -225.3 L-6.767 -225.3 L-4.786 -225.3 L-2.806 -225.3 L-0.825 -225.2 L1.156 -225.2 L3.136 -225.2 L5.117 -225.2 L7.097 -225.2 L9.078 -225.2 L11.06 -225.2 L13.04 -225.2 L15.02 -225.1 L17 -225.1 L18.98 -225.1 L20.96 -225.1 L22.94 -225.1 L24.92 -225.1 L24.91 -223.1 L24.9 -221.1 L24.88 -219.1 L24.87 -217.2 L24.86 -215.2 L24.85 -213.2 L24.83 -211.2 L24.82 -209.2 L24.81 -207.3 L24.8 -205.3 L24.78 -203.3 L24.77 -201.3 L24.76 -199.3 L24.74 -197.4 L24.73 -195.4 L24.72 -193.4 L24.71 -191.4 L24.69 -189.4 L24.68 -187.5 L24.67 -185.5 L24.65 -183.5 L24.64 -181.5 L24.63 -179.5 L24.62 -177.5 L24.6 -175.6 L22.62 -175.6 L20.64 -175.6 L18.66 -175.6 L16.68 -175.6 L14.7 -175.6 L12.72 -175.6 L10.74 -175.7 L8.759 -175.7 L6.778 -175.7 L4.798 -175.7 L2.817 -175.7 L0.8364 -175.7 L-1.144 -175.7 L-3.125 -175.7 L-5.105 -175.8 L-7.086 -175.8 L-9.067 -175.8 L-11.05 -175.8 L-13.03 -175.8 L-15.01 -175.8 L-16.99 -175.8 L-18.97 -175.8 L-20.95 -175.9 L-22.93 -175.9 L-24.91 -175.9 Z " />
<path stroke="rgb(0,0,0)" stroke-opacity="0.032" fill="rgb(255,255,255)" fill-opacity="1" d="M-275.1 200.2 L-275.2 202.1 L-275.5 204.1 L-275.9 206 L-276.4 207.9 L-277.2 209.8 L-278 211.6 L-279 213.3 L-280.1 214.9 L-281.4 216.4 L-282.7 217.9 L-284.2 219.2 L-285.8 220.4 L-287.4 221.4 L-289.2 222.4 L-291 223.2 L-292.9 223.8 L-294.8 224.3 L-296.7 224.6 L-298.7 224.8 L-300.7 224.8 L-302.6 224.7 L-304.6 224.4 L-306.5 224 L-308.4 223.4 L-310.2 222.6 L-312 221.8 L-313.7 220.7 L-315.3 219.6 L-316.8 218.3 L-318.2 216.9 L-319.5 215.4 L-320.6 213.8 L-321.7 212.1 L-322.6 210.4 L-323.3 208.6 L-323.9 206.7 L-324.4 204.7 L-324.7 202.8 L-324.8 200.8 L-324.8 198.8 L-324.7 196.9 L-324.3 194.9 L-323.8 193 L-323.2 191.1 L-322.4 189.3 L-321.5 187.6 L-320.5 185.9 L-319.3 184.3 L-318 182.8 L-316.6 181.5 L-315 180.2 L-313.4 179.1 L-311.7 178.1 L-309.9 177.2 L-308.1 176.5 L-306.2 175.9 L-304.3 175.5 L-302.3 175.3 L-300.3 175.1 L-298.4 175.2 L-296.4 175.4 L-294.4 175.8 L-292.5 176.3 L-290.7 177 L-288.9 177.8 L-287.1 178.7 L-285.5 179.8 L-283.9 181 L-282.5 182.4 L-281.1 183.8 L-279.9 185.4 L-278.8 187 L-277.8 188.7 L-277 190.5 L-276.3 192.4 L-275.8 194.3 L-275.4 196.2 L-275.2 198.2 L-275.1 200.2 Z " />
<path stroke="rgb(0,0,0)" stroke-opacity="1" fill="rgb(255,255,255)" fill-opacity="1" d="M-524.9 -75.89 L-524.9 -77.87 L-524.9 -79.85 L-524.9 -81.83 L-524.9 -83.81 L-524.8 -85.79 L-524.8 -87.77 L-524.8 -89.75 L-524.8 -91.73 L-524.8 -93.71 L-524.8 -95.69 L-524.8 -97.67 L-524.8 -99.65 L-524.7 -101.6 L-524.7 -103.6 L-524.7 -105.6 L-524.7 -107.6 L-524.7 -109.6 L-524.7 -111.5 L-524.7 -113.5 L-524.7 -115.5 L-524.6 -117.5 L-524.6 -119.5 L-524.6 -121.4 L-524.6 -123.4 L-524.6 -125.4 L-522.6 -125.4 L-520.6 -125.4 L-518.7 -125.4 L-516.7 -125.4 L-514.7 -125.3 L-512.7 -125.3 L-510.7 -125.3 L-508.7 -125.3 L-506.8 -125.3 L-504.8 -125.3 L-502.8 -125.3 L-500.8 -125.2 L-498.8 -125.2 L-496.9 -125.2 L-494.9 -125.2 L-492.9 -125.2 L-490.9 -125.2 L-488.9 -125.2 L-487 -125.2 L-485 -125.1 L-483 -125.1 L-481 -125.1 L-479 -125.1 L-477.1 -125.1 L-475.1 -125.1 L-475.1 -123.1 L-475.1 -121.1 L-475.1 -119.1 L-475.1 -117.2 L-475.1 -115.2 L-475.2 -113.2 L-475.2 -111.2 L-475.2 -109.2 L-475.2 -107.3 L-475.2 -105.3 L-475.2 -103.3 L-475.2 -101.3 L-475.2 -99.33 L-475.3 -97.35 L-475.3 -95.37 L-475.3 -93.39 L-475.3 -91.41 L-475.3 -89.43 L-475.3 -87.45 L-475.3 -85.47 L-475.3 -83.49 L-475.4 -81.51 L-475.4 -79.53 L-475.4 -77.55 L-475.4 -75.57 L-477.4 -75.58 L-479.4 -75.59 L-481.3 -75.61 L-483.3 -75.62 L-485.3 -75.63 L-487.3 -75.64 L-489.3 -75.66 L-491.2 -75.67 L-493.2 -75.68 L-495.2 -75.7 L-497.2 -75.71 L-499.2 -75.72 L-501.1 -75.73 L-503.1 -75.75 L-505.1 -75.76 L-507.1 -75.77 L-509.1 -75.78 L-511 -75.8 L-513 -75.81 L-515 -75.82 L-517 -75.84 L-519 -75.85 L-521 -75.86 L-522.9 -75.87 L-524.9 -75.89 Z " />
<path stroke="rgb(0,0,0)" stroke-opacity="0.032" fill="rgb(255,255,255)" fill-opacity="1" d="M-75.15 200.2 L-75.24 202.1 L-75.49 204.1 L-75.89 206 L-76.45 207.9 L-77.15 209.8 L-78 211.6 L-78.99 213.3 L-80.11 214.9 L-81.35 216.4 L-82.72 217.9 L-84.19 219.2 L-85.77 220.4 L-87.43 221.4 L-89.17 222.4 L-90.98 223.2 L-92.85 223.8 L-94.77 224.3 L-96.71 224.6 L-98.68 224.8 L-100.7 224.8 L-102.6 224.7 L-104.6 224.4 L-106.5 224 L-108.4 223.4 L-110.2 222.6 L-112 221.8 L-113.7 220.7 L-115.3 219.6 L-116.8 218.3 L-118.2 216.9 L-119.5 215.4 L-120.6 213.8 L-121.7 212.1 L-122.6 210.4 L-123.3 208.6 L-123.9 206.7 L-124.4 204.7 L-124.7 202.8 L-124.8 200.8 L-124.8 198.8 L-124.7 196.9 L-124.3 194.9 L-123.8 193 L-123.2 191.1 L-122.4 189.3 L-121.5 187.6 L-120.5 185.9 L-119.3 184.3 L-118 182.8 L-116.6 181.5 L-115 180.2 L-113.4 179.1 L-111.7 178.1 L-109.9 177.2 L-108.1 176.5 L-106.2 175.9 L-104.3 175.5 L-102.3 175.3 L-100.3 175.1 L-98.35 175.2 L-96.39 175.4 L-94.45 175.8 L-92.54 176.3 L-90.68 177 L-88.88 177.8 L-87.15 178.7 L-85.5 179.8 L-83.94 181 L-82.49 182.4 L-81.14 183.8 L-79.91 185.4 L-78.82 187 L-77.85 188.7 L-77.02 190.5 L-76.34 192.4 L-75.81 194.3 L-75.44 196.2 L-75.21 198.2 L-75.15 200.2 Z " />
<path stroke="rgb(0,0,0)" stroke-opacity="1" fill="rgb(255,255,255)" fill-opacity="1" d="M-324.9 -75.89 L-324.9 -77.87 L-324.9 -79.85 L-324.9 -81.83 L-324.9 -83.81 L-324.8 -85.79 L-324.8 -87.77 L-324.8 -89.75 L-324.8 -91.73 L-324.8 -93.71 L-324.8 -95.69 L-324.8 -97.67 L-324.8 -99.65 L-324.7 -101.6 L-324.7 -103.6 L-324.7 -105.6 L-324.7 -107.6 L-324.7 -109.6 L-324.7 -111.5 L-324.7 -113.5 L-324.7 -115.5 L-324.6 -117.5 L-324.6 -119.5 L-324.6 -121.4 L-324.6 -123.4 L-324.6 -125.4 L-322.6 -125.4 L-320.6 -125.4 L-318.7 -125.4 L-316.7 -125.4 L-314.7 -125.3 L-312.7 -125.3 L-310.7 -125.3 L-308.7 -125.3 L-306.8 -125.3 L-304.8 -125.3 L-302.8 -125.3 L-300.8 -125.2 L-298.8 -125.2 L-296.9 -125.2 L-294.9 -125.2 L-292.9 -125.2 L-290.9 -125.2 L-288.9 -125.2 L-287 -125.2 L-285 -125.1 L-283 -125.1 L-281 -125.1 L-279 -125.1 L-277.1 -125.1 L-275.1 -125.1 L-275.1 -123.1 L-275.1 -121.1 L-275.1 -119.1 L-275.1 -117.2 L-275.1 -115.2 L-275.2 -113.2 L-275.2 -111.2 L-275.2 -109.2 L-275.2 -107.3 L-275.2 -105.3 L-275.2 -103.3 L-275.2 -101.3 L-275.2 -99.33 L-275.3 -97.35 L-275.3 -95.37 L-275.3 -93.39 L-275.3 -91.41 L-275.3 -89.43 L-275.3 -87.45 L-275.3 -85.47 L-275.3 -83.49 L-275.4 -81.51 L-275.4 -79.53 L-275.4 -77.55 L-275.4 -75.57 L-277.4 -75.58 L-279.4 -75.59 L-281.3 -75.61 L-283.3 -75.62 L-285.3 -75.63 L-287.3 -75.64 L-289.3 -75.66 L-291.2 -75.67 L-293.2 -75.68 L-295.2 -75.7 L-297.2 -75.71 L-299.2 -75.72 L-301.1 -75.73 L-303.1 -75.75 L-305.1 -75.76 L-307.1 -75.77 L-309.1 -75.78 L-311 -75.8 L-313 -75.81 L-315 -75.82 L-317 -75.84 L-319 -75.85 L-321 -75.86 L-322.9 -75.87 L-324.9 -75.89 Z " />
<path stroke="rgb(0,0,0)" stroke-opacity="0.032" fill="rgb(255,255,255)" fill-opacity="1" d="M124.9 200.2 L124.8 202.1 L124.5 204.1 L124.1 206 L123.6 207.9 L122.8 209.8 L122 211.6 L121 213.3 L119.9 214.9 L118.6 216.4 L117.3 217.9 L115.8 219.2 L114.2 220.4 L112.6 221.4 L110.8 222.4 L109 223.2 L107.1 223.8 L105.2 224.3 L103.3 224.6 L101.3 224.8 L99.35 224.8 L97.37 224.7 L95.42 224.4 L93.49 224 L91.61 223.4 L89.78 222.6 L88.01 221.8 L86.32 220.7 L84.71 219.6 L83.2 218.3 L81.8 216.9 L80.52 215.4 L79.35 213.8 L78.32 212.1 L77.42 210.4 L76.67 208.6 L76.06 206.7 L75.61 204.7 L75.31 202.8 L75.17 200.8 L75.18 198.8 L75.35 196.9 L75.67 194.9 L76.15 193 L76.78 191.1 L77.56 189.3 L78.48 187.6 L79.53 185.9 L80.72 184.3 L82.03 182.8 L83.45 181.5 L84.97 180.2 L86.59 179.1 L88.29 178.1 L90.07 177.2 L91.91 176.5 L93.81 175.9 L95.74 175.5 L97.7 175.3 L99.67 175.1 L101.6 175.2 L103.6 175.4 L105.6 175.8 L107.5 176.3 L109.3 177 L111.1 177.8 L112.9 178.7 L114.5 179.8 L116.1 181 L117.5 182.4 L118.9 183.8 L120.1 185.4 L121.2 187 L122.2 188.7 L123 190.5 L123.7 192.4 L124.2 194.3 L124.6 196.2 L124.8 198.2 L124.9 200.2 Z " />
<path stroke="rgb(0,0,0)" stroke-opacity="1" fill="rgb(255,255,255)" fill-opacity="1" d="M-124.9 -75.89 L-124.9 -77.87 L-124.9 -79.85 L-124.9 -81.83 L-124.9 -83.81 L-124.8 -85.79 L-124.8 -87.77 L-124.8 -89.75 L-124.8 -91.73 L-124.8 -93.71 L-124.8 -95.69 L-124.8 -97.67 L-124.8 -99.65 L-124.7 -101.6 L-124.7 -103.6 L-124.7 -105.6 L-124.7 -107.6 L-124.7 -109.6 L-124.7 -111.5 L-124.7 -113.5 L-124.7 -115.5 L-124.6 -117.5 L-124.6 -119.5 L-124.6 -121.4 L-124.6 -123.4 L-124.6 -125.4 L-122.6 -125.4 L-120.6 -125.4 L-118.7 -125.4 L-116.7 -125.4 L-114.7 -125.3 L-112.7 -125.3 L-110.7 -125.3 L-108.7 -125.3 L-106.8 -125.3 L-104.8 -125.3 L-102.8 -125.3 L-100.8 -125.2 L-98.84 -125.2 L-96.86 -125.2 L-94.88 -125.2 L-92.9 -125.2 L-90.92 -125.2 L-88.94 -125.2 L-86.96 -125.2 L-84.98 -125.1 L-83 -125.1 L-81.02 -125.1 L-79.04 -125.1 L-77.06 -125.1 L-75.08 -125.1 L-75.09 -123.1 L-75.1 -121.1 L-75.12 -119.1 L-75.13 -117.2 L-75.14 -115.2 L-75.15 -113.2 L-75.17 -111.2 L-75.18 -109.2 L-75.19 -107.3 L-75.2 -105.3 L-75.22 -103.3 L-75.23 -101.3 L-75.24 -99.33 L-75.26 -97.35 L-75.27 -95.37 L-75.28 -93.39 L-75.29 -91.41 L-75.31 -89.43 L-75.32 -87.45 L-75.33 -85.47 L-75.35 -83.49 L-75.36 -81.51 L-75.37 -79.53 L-75.38 -77.55 L-75.4 -75.57 L-77.38 -75.58 L-79.36 -75.59 L-81.34 -75.61 L-83.32 -75.62 L-85.3 -75.63 L-87.28 -75.64 L-89.26 -75.66 L-91.24 -75.67 L-93.22 -75.68 L-95.2 -75.7 L-97.18 -75.71 L-99.16 -75.72 L-101.1 -75.73 L-103.1 -75.75 L-105.1 -75.76 L-107.1 -75.77 L-109.1 -75.78 L-111 -75.8 L-113 -75.81 L-115 -75.82 L-117 -75.84 L-119 -75.85 L-121 -75.86 L-122.9 -75.87 L-124.9 -75.89 Z " />
<path stroke="rgb(0,0,0)" stroke-opacity="0.032" fill="rgb(255,255,255)" fill-opacity="1" d="M324.9 200.2 L324.8 202.1 L324.5 204.1 L324.1 206 L323.6 207.9 L322.8 209.8 L322 211.6 L321 213.3 L319.9 214.9 L318.6 216.4 L317.3 217.9 L315.8 219.2 L314.2 220.4 L312.6 221.4 L310.8 222.4 L309 223.2 L307.1 223.8 L305.2 224.3 L303.3 224.6 L301.3 224.8 L299.3 224.8 L297.4 224.7 L295.4 224.4 L293.5 224 L291.6 223.4 L289.8 222.6 L288 221.8 L286.3 220.7 L284.7 219.6 L283.2 218.3 L281.8 216.9 L280.5 215.4 L279.4 213.8 L278.3 212.1 L277.4 210.4 L276.7 208.6 L276.1 206.7 L275.6 204.7 L275.3 202.8 L275.2 200.8 L275.2 198.8 L275.3 196.9 L275.7 194.9 L276.2 193 L276.8 191.1 L277.6 189.3 L278.5 187.6 L279.5 185.9 L280.7 184.3 L282 182.8 L283.4 181.5 L285 180.2 L286.6 179.1 L288.3 178.1 L290.1 177.2 L291.9 176.5 L293.8 175.9 L295.7 175.5 L297.7 175.3 L299.7 175.1 L301.6 175.2 L303.6 175.4 L305.6 175.8 L307.5 176.3 L309.3 177 L311.1 177.8 L312.9 178.7 L314.5 179.8 L316.1 181 L317.5 182.4 L318.9 183.8 L320.1 185.4 L321.2 187 L322.2 188.7 L323 190.5 L323.7 192.4 L324.2 194.3 L324.6 196.2 L324.8 198.2 L324.9 200.2 Z " />
<path stroke="rgb(0,0,0)" stroke-opacity="1" fill="rgb(255,255,255)" fill-opacity="1" d="M-624.9 24.11 L-624.9 22.13 L-624.9 20.15 L-624.9 18.17 L-624.9 16.19 L-624.8 14.21 L-624.8 12.23 L-624.8 10.25 L-624.8 8.269 L-624.8 6.288 L-624.8 4.307 L-624.8 2.327 L-624.8 0.3461 L-624.7 -1.634 L-624.7 -3.615 L-624.7 -5.596 L-624.7 -7.576 L-624.7 -9.557 L-624.7 -11.54 L-624.7 -13.52 L-624.7 -15.5 L-624.6 -17.48 L-624.6 -19.46 L-624.6 -21.44 L-624.6 -23.42 L-624.6 -25.4 L-622.6 -25.39 L-620.6 -25.38 L-618.7 -25.36 L-616.7 -25.35 L-614.7 -25.34 L-612.7 -25.33 L-610.7 -25.31 L-608.7 -25.3 L-606.8 -25.29 L-604.8 -25.27 L-602.8 -25.26 L-600.8 -25.25 L-598.8 -25.24 L-596.9 -25.22 L-594.9 -25.21 L-592.9 -25.2 L-590.9 -25.18 L-588.9 -25.17 L-587 -25.16 L-585 -25.15 L-583 -25.13 L-581 -25.12 L-579 -25.11 L-577.1 -25.1 L-575.1 -25.08 L-575.1 -23.1 L-575.1 -21.12 L-575.1 -19.14 L-575.1 -17.16 L-575.1 -15.18 L-575.2 -13.2 L-575.2 -11.22 L-575.2 -9.238 L-575.2 -7.257 L-575.2 -5.277 L-575.2 -3.296 L-575.2 -1.315 L-575.2 0.6653 L-575.3 2.646 L-575.3 4.627 L-575.3 6.607 L-575.3 8.588 L-575.3 10.57 L-575.3 12.55 L-575.3 14.53 L-575.3 16.51 L-575.4 18.49 L-575.4 20.47 L-575.4 22.45 L-575.4 24.43 L-577.4 24.42 L-579.4 24.41 L-581.3 24.39 L-583.3 24.38 L-585.3 24.37 L-587.3 24.36 L-589.3 24.34 L-591.2 24.33 L-593.2 24.32 L-595.2 24.3 L-597.2 24.29 L-599.2 24.28 L-601.1 24.27 L-603.1 24.25 L-605.1 24.24 L-607.1 24.23 L-609.1 24.22 L-611 24.2 L-613 24.19 L-615 24.18 L-617 24.16 L-619 24.15 L-621 24.14 L-622.9 24.13 L-624.9 24.11 Z " />
<path stroke="rgb(0,0,0)" stroke-opacity="0.032" fill="rgb(255,255,255)" fill-opacity="1" d="M-175.1 300.2 L-175.2 302.1 L-175.5 304.1 L-175.9 306 L-176.4 307.9 L-177.2 309.8 L-178 311.6 L-179 313.3 L-180.1 314.9 L-181.4 316.4 L-182.7 317.9 L-184.2 319.2 L-185.8 320.4 L-187.4 321.4 L-189.2 322.4 L-191 323.2 L-192.9 323.8 L-194.8 324.3 L-196.7 324.6 L-198.7 324.8 L-200.7 324.8 L-202.6 324.7 L-204.6 324.4 L-206.5 324 L-208.4 323.4 L-210.2 322.6 L-212 321.8 L-213.7 320.7 L-215.3 319.6 L-216.8 318.3 L-218.2 316.9 L-219.5 315.4 L-220.6 313.8 L-221.7 312.1 L-222.6 310.4 L-223.3 308.6 L-223.9 306.7 L-224.4 304.7 L-224.7 302.8 L-224.8 300.8 L-224.8 298.8 L-224.7 296.9 L-224.3 294.9 L-223.8 293 L-223.2 291.1 L-222.4 289.3 L-221.5 287.6 L-220.5 285.9 L-219.3 284.3 L-218 282.8 L-216.6 281.5 L-215 280.2 L-213.4 279.1 L-211.7 278.1 L-209.9 277.2 L-208.1 276.5 L-206.2 275.9 L-204.3 275.5 L-202.3 275.3 L-200.3 275.1 L-198.4 275.2 L-196.4 275.4 L-194.4 275.8 L-192.5 276.3 L-190.7 277 L-188.9 277.8 L-187.1 278.7 L-185.5 279.8 L-183.9 281 L-182.5 282.4 L-181.1 283.8 L-179.9 285.4 L-178.8 287 L-177.8 288.7 L-177 290.5 L-176.3 292.4 L-175.8 294.3 L-175.4 296.2 L-175.2 298.2 L-175.1 300.2 Z " />
<path stroke="rgb(0,0,0)" stroke-opacity="1" fill="rgb(255,255,255)" fill-opacity="1" d="M-424.9 24.11 L-424.9 22.13 L-424.9 20.15 L-424.9 18.17 L-424.9 16.19 L-424.8 14.21 L-424.8 12.23 L-424.8 10.25 L-424.8 8.269 L-424.8 6.288 L-424.8 4.307 L-424.8 2.327 L-424.8 0.3461 L-424.7 -1.634 L-424.7 -3.615 L-424.7 -5.596 L-424.7 -7.576 L-424.7 -9.557 L-424.7 -11.54 L-424.7 -13.52 L-424.7 -15.5 L-424.6 -17.48 L-424.6 -19.46 L-424.6 -21.44 L-424.6 -23.42 L-424.6 -25.4 L-422.6 -25.39 L-420.6 -25.38 L-418.7 -25.36 L-416.7 -25.35 L-414.7 -25.34 L-412.7 -25.33 L-410.7 -25.31 L-408.7 -25.3 L-406.8 -25.29 L-404.8 -25.27 L-402.8 -25.26 L-400.8 -25.25 L-398.8 -25.24 L-396.9 -25.22 L-394.9 -25.21 L-392.9 -25.2 L-390.9 -25.18 L-388.9 -25.17 L-387 -25.16 L-385 -25.15 L-383 -25.13 L-381 -25.12 L-379 -25.11 L-377.1 -25.1 L-375.1 -25.08 L-375.1 -23.1 L-375.1 -21.12 L-375.1 -19.14 L-375.1 -17.16 L-375.1 -15.18 L-375.2 -13.2 L-375.2 -11.22 L-375.2 -9.238 L-375.2 -7.257 L-375.2 -5.277 L-375.2 -3.296 L-375.2 -1.315 L-375.2 0.6653 L-375.3 2.646 L-375.3 4.627 L-375.3 6.607 L-375.3 8.588 L-375.3 10.57 L-375.3 12.55 L-375.3 14.53 L-375.3 16.51 L-375.4 18.49 L-375.4 20.47 L-375.4 22.45 L-375.4 24.43 L-377.4 24.42 L-379.4 24.41 L-381.3 24.39 L-383.3 24.38 L-385.3 24.37 L-387.3 24.36 L-389.3 24.34 L-391.2 24.33 L-393.2 24.32 L-395.2 24.3 L-397.2 24.29 L-399.2 24.28 L-401.1 24.27 L-403.1 24.25 L-405.1 24.24 L-407.1 24.23 L-409.1 24.22 L-411 24.2 L-413 24.19 L-415 24.18 L-417 24.16 L-419 24.15 L-421 24.14 L-422.9 24.13 L-424.9 24.11 Z " />
<path stroke="rgb(0,0,0)" stroke-opacity="0.032" fill="rgb(255,255,255)" fill-opacity="1" d="M24.85 300.2 L24.76 302.1 L24.51 304.1 L24.11 306 L23.55 307.9 L22.85 309.8 L22 311.6 L21.01 313.3 L19.89 314.9 L18.65 316.4 L17.28 317.9 L15.81 319.2 L14.23 320.4 L12.57 321.4 L10.83 322.4 L9.017 323.2 L7.148 323.8 L5.235 324.3 L3.288 324.6 L1.321 324.8 L-0.6549 324.8 L-2.627 324.7 L-4.581 324.4 L-6.507 324 L-8.392 323.4 L-10.22 322.6 L-11.99 321.8 L-13.68 320.7 L-15.29 319.6 L-16.8 318.3 L-18.2 316.9 L-19.48 315.4 L-20.65 313.8 L-21.68 312.1 L-22.58 310.4 L-23.33 308.6 L-23.94 306.7 L-24.39 304.7 L-24.69 302.8 L-24.83 300.8 L-24.82 298.8 L-24.65 296.9 L-24.33 294.9 L-23.85 293 L-23.22 291.1 L-22.44 289.3 L-21.52 287.6 L-20.47 285.9 L-19.28 284.3 L-17.97 282.8 L-16.55 281.5 L-15.03 280.2 L-13.41 279.1 L-11.71 278.1 L-9.927 277.2 L-8.085 276.5 L-6.193 275.9 L-4.261 275.5 L-2.303 275.3 L-0.3295 275.1 L1.646 275.2 L3.611 275.4 L5.553 275.8 L7.46 276.3 L9.319 277 L11.12 277.8 L12.85 278.7 L14.5 279.8 L16.06 281 L17.51 282.4 L18.86 283.8 L20.09 285.4 L21.18 287 L22.15 288.7 L22.98 290.5 L23.66 292.4 L24.19 294.3 L24.56 296.2 L24.79 298.2 L24.85 300.2 Z " />
<path stroke="rgb(0,0,0)" stroke-opacity="1" fill="rgb(255,255,255)" fill-opacity="1" d="M-224.9 24.11 L-224.9 22.13 L-224.9 20.15 L-224.9 18.17 L-224.9 16.19 L-224.8 14.21 L-224.8 12.23 L-224.8 10.25 L-224.8 8.269 L-224.8 6.288 L-224.8 4.307 L-224.8 2.327 L-224.8 0.3461 L-224.7 -1.634 L-224.7 -3.615 L-224.7 -5.596 L-224.7 -7.576 L-224.7 -9.557 L-224.7 -11.54 L-224.7 -13.52 L-224.7 -15.5 L-224.6 -17.48 L-224.6 -19.46 L-224.6 -21.44 L-224.6 -23.42 L-224.6 -25.4 L-222.6 -25.39 L-220.6 -25.38 L-218.7 -25.36 L-216.7 -25.35 L-214.7 -25.34 L-212.7 -25.33 L-210.7 -25.31 L-208.7 -25.3 L-206.8 -25.29 L-204.8 -25.27 L-202.8 -25.26 L-200.8 -25.25 L-198.8 -25.24 L-196.9 -25.22 L-194.9 -25.21 L-192.9 -25.2 L-190.9 -25.18 L-188.9 -25.17 L-187 -25.16 L-185 -25.15 L-183 -25.13 L-181 -25.12 L-179 -25.11 L-177.1 -25.1 L-175.1 -25.08 L-175.1 -23.1 L-175.1 -21.12 L-175.1 -19.14 L-175.1 -17.16 L-175.1 -15.18 L-175.2 -13.2 L-175.2 -11.22 L-175.2 -9.238 L-175.2 -7.257 L-175.2 -5.277 L-175.2 -3.296 L-175.2 -1.315 L-175.2 0.6653 L-175.3 2.646 L-175.3 4.627 L-175.3 6.607 L-175.3 8.588 L-175.3 10.57 L-175.3 12.55 L-175.3 14.53 L-175.3 16.51 L-175.4 18.49 L-175.4 20.47 L-175.4 22.45 L-175.4 24.43 L-177.4 24.42 L-179.4 24.41 L-181.3 24.39 L-183.3 24.38 L-185.3 24.37 L-187.3 24.36 L-189.3 24.34 L-191.2 24.33 L-193.2 24.32 L-195.2 24.3 L-197.2 24.29 L-199.2 24.28 L-201.1 24.27 L-203.1 24.25 L-205.1 24.24 L-207.1 24.23 L-209.1 24.22 L-211 24.2 L-213 24.19 L-215 24.18 L-217 24.16 L-219 24.15 L-221 24.14 L-222.9 24.13 L-224.9 24.11 Z " />
<path stroke="rgb(0,0,0)" stroke-opacity="0.032" fill="rgb(255,255,255)" fill-opacity="1" d="M224.9 300.2 L224.8 302.1 L224.5 304.1 L224.1 306 L223.6 307.9 L222.8 309.8 L222 311.6 L221 313.3 L219.9 314.9 L218.6 316.4 L217.3 317.9 L215.8 319.2 L214.2 320.4 L212.6 321.4 L210.8 322.4 L209 323.2 L207.1 323.8 L205.2 324.3 L203.3 324.6 L201.3 324.8 L199.3 324.8 L197.4 324.7 L195.4 324.4 L193.5 324 L191.6 323.4 L189.8 322.6 L188 321.8 L186.3 320.7 L184.7 319.6 L183.2 318.3 L181.8 316.9 L180.5 315.4 L179.4 313.8 L178.3 312.1 L177.4 310.4 L176.7 308.6 L176.1 306.7 L175.6 304.7 L175.3 302.8 L175.2 300.8 L175.2 298.8 L175.3 296.9 L175.7 294.9 L176.2 293 L176.8 291.1 L177.6 289.3 L178.5 287.6 L179.5 285.9 L180.7 284.3 L182 282.8 L183.4 281.5 L185 280.2 L186.6 279.1 L188.3 278.1 L190.1 277.2 L191.9 276.5 L193.8 275.9 L195.7 275.5 L197.7 275.3 L199.7 275.1 L201.6 275.2 L203.6 275.4 L205.6 275.8 L207.5 276.3 L209.3 277 L211.1 277.8 L212.9 278.7 L214.5 279.8 L216.1 281 L217.5 282.4 L218.9 283.8 L220.1 285.4 L221.2 287 L222.2 288.7 L223 290.5 L223.7 292.4 L224.2 294.3 L224.6 296.2 L224.8 298.2 L224.9 300.2 Z " />
<path stroke="rgb(0,0,0)" stroke-opacity="1" fill="rgb(255,255,255)" fill-opacity="1" d="M-24.91 24.11 L-24.9 22.13 L-24.89 20.15 L-24.87 18.17 L-24.86 16.19 L-24.85 14.21 L-24.83 12.23 L-24.82 10.25 L-24.81 8.269 L-24.8 6.288 L-24.78 4.307 L-24.77 2.327 L-24.76 0.3461 L-24.75 -1.634 L-24.73 -3.615 L-24.72 -5.596 L-24.71 -7.576 L-24.69 -9.557 L-24.68 -11.54 L-24.67 -13.52 L-24.66 -15.5 L-24.64 -17.48 L-24.63 -19.46 L-24.62 -21.44 L-24.61 -23.42 L-24.59 -25.4 L-22.61 -25.39 L-20.63 -25.38 L-18.65 -25.36 L-16.67 -25.35 L-14.69 -25.34 L-12.71 -25.33 L-10.73 -25.31 L-8.747 -25.3 L-6.767 -25.29 L-4.786 -25.27 L-2.806 -25.26 L-0.825 -25.25 L1.156 -25.24 L3.136 -25.22 L5.117 -25.21 L7.097 -25.2 L9.078 -25.18 L11.06 -25.17 L13.04 -25.16 L15.02 -25.15 L17 -25.13 L18.98 -25.12 L20.96 -25.11 L22.94 -25.1 L24.92 -25.08 L24.91 -23.1 L24.9 -21.12 L24.88 -19.14 L24.87 -17.16 L24.86 -15.18 L24.85 -13.2 L24.83 -11.22 L24.82 -9.238 L24.81 -7.257 L24.8 -5.277 L24.78 -3.296 L24.77 -1.315 L24.76 0.6653 L24.74 2.646 L24.73 4.627 L24.72 6.607 L24.71 8.588 L24.69 10.57 L24.68 12.55 L24.67 14.53 L24.65 16.51 L24.64 18.49 L24.63 20.47 L24.62 22.45 L24.6 24.43 L22.62 24.42 L20.64 24.41 L18.66 24.39 L16.68 24.38 L14.7 24.37 L12.72 24.36 L10.74 24.34 L8.759 24.33 L6.778 24.32 L4.798 24.3 L2.817 24.29 L0.8364 24.28 L-1.144 24.27 L-3.125 24.25 L-5.105 24.24 L-7.086 24.23 L-9.067 24.22 L-11.05 24.2 L-13.03 24.19 L-15.01 24.18 L-16.99 24.16 L-18.97 24.15 L-20.95 24.14 L-22.93 24.13 L-24.91 24.11 Z " />
</g>
</g>
</svg>
