<!DOCTYPE svg>
<svg xmlns="http://www.w3.org/2000/svg" xmlns:xlink="http://www.w3.org/1999/xlink" width="1000" height="1000">
<g transform="translate(500.000000,500.000000)">
<g transform="scale(3.000000,3.000000)">
<path stroke="rgb(0,0,0)" stroke-opacity="1" fill="rgb(255,255,255)" fill-opacity="1" d="M-739 -716.3 L-738.7 -717.2 L-738.3 -718.1 L-738 -719 L-737.6 -720 L-737.2 -720.9 L-736.9 -721.8 L-736.5 -722.7 L-736.2 -723.6 L-735.8 -724.6 L-735.5 -725.5 L-735.1 -726.4 L-734.7 -727.3 L-734.4 -728.2 L-734 -729.2 L-733.7 -730.1 L-733.3 -731 L-733 -731.9 L-732.6 -732.8 L-732.2 -733.7 L-731.9 -734.7 L-731.5 -735.6 L-731.2 -736.5 L-730.8 -737.4 L-730.5 -738.3 L-730.1 -739.3 L-729.2 -738.9 L-728.3 -738.5 L-727.3 -738.2 L-726.4 -737.8 L-725.5 -737.5 L-724.6 -737.1 L-723.7 -736.8 L-722.7 -736.4 L-721.8 -736 L-720.9 -735.7 L-720 -735.3 L-719.1 -735 L-718.2 -734.6 L-717.2 -734.3 L-716.3 -733.9 L-715.4 -733.5 L-714.5 -733.2 L-713.6 -732.8 L-712.6 -732.5 L-711.7 -732.1 L-710.8 -731.8 L-709.9 -731.4 L-709 -731 L-708 -730.7 L-707.1 -730.3 L-707.5 -729.4 L-707.8 -728.5 L-708.2 -727.6 L-708.6 -726.6 L-708.9 -725.7 L-709.3 -724.8 L-709.6 -723.9 L-710 -723 L-710.3 -722.1 L-710.7 -721.1 L-711.1 -720.2 L-711.4 -719.3 L-711.8 -718.4 L-712.1 -717.5 L-712.5 -716.5 L-712.8 -715.6 L-713.2 -714.7 L-713.6 -713.8 L-713.9 -712.9 L-714.3 -711.9 L-714.6 -711 L-715 -710.1 L-715.3 -709.2 L-715.7 -708.3 L-716.1 -707.4 L-717 -707.7 L-717.9 -708.1 L-718.8 -708.4 L-719.7 -708.8 L-720.7 -709.1 L-721.6 -709.5 L-722.5 -709.9 L-723.4 -710.2 L-724.3 -710.6 L-725.3 -710.9 L-726.2 -711.3 L-727.1 -711.6 L-728 -712 L-728.9 -712.4 L-729.8 -712.7 L-730.8 -713.1 L-731.7 -713.4 L-732.6 -713.8 L-733.5 -714.1 L-734.4 -714.5 L-735.4 -714.9 L-736.3 -715.2 L-737.2 -715.6 L-738.1 -715.9 L-739 -716.3 Z " />
<path stroke="rgb(0,0,0)" stroke-opacity="1" fill="rgb(255,255,255)" fill-opacity="1" d="M-199.6 -312.2 L-198.6 -312.2 L-197.6 -312.1 L-196.6 -311.9 L-195.7 -311.6 L-194.8 -311.2 L-193.9 -310.8 L-193 -310.3 L-192.2 -309.7 L-191.5 -309.1 L-190.8 -308.4 L-190.1 -307.7 L-189.5 -306.9 L-189 -306.1 L-188.5 -305.2 L-188.1 -304.3 L-187.8 -303.4 L-187.6 -302.4 L-187.4 -301.4 L-187.3 -300.5 L-187.3 -299.5 L-187.4 -298.5 L-187.5 -297.5 L-187.7 -296.6 L-188 -295.6 L-188.4 -294.7 L-188.9 -293.8 L-189.4 -293 L-189.9 -292.2 L-190.6 -291.4 L-191.3 -290.7 L-192 -290.1 L-192.8 -289.5 L-193.7 -289 L-194.6 -288.6 L-195.5 -288.2 L-196.4 -287.9 L-197.4 -287.7 L-198.3 -287.5 L-199.3 -287.5 L-200.3 -287.5 L-201.3 -287.6 L-202.3 -287.7 L-203.2 -288 L-204.1 -288.3 L-205.1 -288.7 L-205.9 -289.1 L-206.8 -289.7 L-207.5 -290.3 L-208.3 -290.9 L-209 -291.6 L-209.6 -292.4 L-210.1 -293.2 L-210.6 -294 L-211.1 -294.9 L-211.4 -295.9 L-211.7 -296.8 L-211.9 -297.8 L-212 -298.7 L-212.1 -299.7 L-212 -300.7 L-211.9 -301.7 L-211.8 -302.7 L-211.5 -303.6 L-211.2 -304.5 L-210.7 -305.4 L-210.3 -306.3 L-209.7 -307.1 L-209.1 -307.9 L-208.4 -308.6 L-207.7 -309.3 L-206.9 -309.9 L-206.1 -310.4 L-205.3 -310.9 L-204.4 -311.3 L-203.4 -311.7 L-202.5 -311.9 L-201.5 -312.1 L-200.5 -312.2 L-199.6 -312.2 Z " />
<path stroke="rgb(0,0,0)" stroke-opacity="1" fill="rgb(255,255,255)" fill-opacity="1" d="M-523 -698.8 L-522.8 -699.8 L-522.7 -700.8 L-522.5 -701.8 L-522.4 -702.7 L-522.2 -703.7 L-522.1 -704.7 L-521.9 -705.7 L-521.8 -706.6 L-521.6 -707.6 L-521.5 -708.6 L-521.4 -709.6 L-521.2 -710.5 L-521.1 -711.5 L-520.9 -712.5 L-520.8 -713.5 L-520.6 -714.4 L-520.5 -715.4 L-520.3 -716.4 L-520.2 -717.4 L-520 -718.3 L-519.9 -719.3 L-519.7 -720.3 L-519.6 -721.3 L-519.5 -722.2 L-519.3 -723.2 L-518.3 -723.1 L-517.4 -722.9 L-516.4 -722.8 L-515.4 -722.6 L-514.4 -722.5 L-513.5 -722.3 L-512.5 -722.2 L-511.5 -722 L-510.5 -721.9 L-509.6 -721.7 L-508.6 -721.6 L-507.6 -721.5 L-506.6 -721.3 L-505.7 -721.2 L-504.7 -721 L-503.7 -720.9 L-502.7 -720.7 L-501.8 -720.6 L-500.8 -720.4 L-499.8 -720.3 L-498.8 -720.1 L-497.9 -720 L-496.9 -719.8 L-495.9 -719.7 L-494.9 -719.6 L-495.1 -718.6 L-495.2 -717.6 L-495.4 -716.6 L-495.5 -715.6 L-495.7 -714.7 L-495.8 -713.7 L-496 -712.7 L-496.1 -711.7 L-496.2 -710.8 L-496.4 -709.8 L-496.5 -708.8 L-496.7 -707.8 L-496.8 -706.9 L-497 -705.9 L-497.1 -704.9 L-497.3 -703.9 L-497.4 -703 L-497.6 -702 L-497.7 -701 L-497.9 -700 L-498 -699.1 L-498.1 -698.1 L-498.3 -697.1 L-498.4 -696.1 L-498.6 -695.2 L-499.6 -695.3 L-500.5 -695.5 L-501.5 -695.6 L-502.5 -695.8 L-503.5 -695.9 L-504.4 -696 L-505.4 -696.2 L-506.4 -696.3 L-507.4 -696.5 L-508.3 -696.6 L-509.3 -696.8 L-510.3 -696.9 L-511.3 -697.1 L-512.2 -697.2 L-513.2 -697.4 L-514.2 -697.5 L-515.2 -697.7 L-516.1 -697.8 L-517.1 -697.9 L-518.1 -698.1 L-519.1 -698.2 L-520 -698.4 L-521 -698.5 L-522 -698.7 L-523 -698.8 Z " />
<path stroke="rgb(0,0,0)" stroke-opacity="1" fill="rgb(255,255,255)" fill-opacity="1" d="M0.4383 -312.2 L1.422 -312.2 L2.399 -312.1 L3.363 -311.9 L4.307 -311.6 L5.227 -311.2 L6.115 -310.8 L6.966 -310.3 L7.775 -309.7 L8.537 -309.1 L9.248 -308.4 L9.901 -307.7 L10.49 -306.9 L11.02 -306.1 L11.48 -305.2 L11.87 -304.3 L12.19 -303.4 L12.43 -302.4 L12.6 -301.4 L12.69 -300.5 L12.7 -299.5 L12.63 -298.5 L12.48 -297.5 L12.26 -296.6 L11.96 -295.6 L11.58 -294.7 L11.14 -293.8 L10.63 -293 L10.05 -292.2 L9.411 -291.4 L8.714 -290.7 L7.964 -290.1 L7.166 -289.5 L6.324 -289 L5.444 -288.6 L4.532 -288.2 L3.593 -287.9 L2.633 -287.7 L1.659 -287.5 L0.6762 -287.5 L-0.3089 -287.5 L-1.29 -287.6 L-2.261 -287.7 L-3.216 -288 L-4.149 -288.3 L-5.053 -288.7 L-5.923 -289.1 L-6.754 -289.7 L-7.541 -290.3 L-8.278 -290.9 L-8.96 -291.6 L-9.584 -292.4 L-10.14 -293.2 L-10.64 -294 L-11.07 -294.9 L-11.42 -295.9 L-11.7 -296.8 L-11.9 -297.8 L-12.03 -298.7 L-12.08 -299.7 L-12.05 -300.7 L-11.94 -301.7 L-11.76 -302.7 L-11.49 -303.6 L-11.16 -304.5 L-10.75 -305.4 L-10.27 -306.3 L-9.725 -307.1 L-9.116 -307.9 L-8.447 -308.6 L-7.723 -309.3 L-6.949 -309.9 L-6.128 -310.4 L-5.267 -310.9 L-4.37 -311.3 L-3.444 -311.7 L-2.494 -311.9 L-1.526 -312.1 L-0.5465 -312.2 L0.4383 -312.2 Z " />
<path stroke="rgb(0,0,0)" stroke-opacity="1" fill="rgb(255,255,255)" fill-opacity="1" d="M-315.1 -690.7 L-315.1 -691.7 L-315 -692.7 L-315 -693.7 L-315 -694.7 L-314.9 -695.7 L-314.9 -696.7 L-314.8 -697.6 L-314.8 -698.6 L-314.7 -699.6 L-314.7 -700.6 L-314.7 -701.6 L-314.6 -702.6 L-314.6 -703.5 L-314.5 -704.5 L-314.5 -705.5 L-314.4 -706.5 L-314.4 -707.5 L-314.3 -708.5 L-314.3 -709.5 L-314.3 -710.4 L-314.2 -711.4 L-314.2 -712.4 L-314.1 -713.4 L-314.1 -714.4 L-314 -715.4 L-313.1 -715.3 L-312.1 -715.3 L-311.1 -715.2 L-310.1 -715.2 L-309.1 -715.2 L-308.1 -715.1 L-307.2 -715.1 L-306.2 -715 L-305.2 -715 L-304.2 -714.9 L-303.2 -714.9 L-302.2 -714.9 L-301.2 -714.8 L-300.3 -714.8 L-299.3 -714.7 L-298.3 -714.7 L-297.3 -714.6 L-296.3 -714.6 L-295.3 -714.6 L-294.3 -714.5 L-293.4 -714.5 L-292.4 -714.4 L-291.4 -714.4 L-290.4 -714.3 L-289.4 -714.3 L-289.5 -713.3 L-289.5 -712.3 L-289.5 -711.3 L-289.6 -710.4 L-289.6 -709.4 L-289.7 -708.4 L-289.7 -707.4 L-289.8 -706.4 L-289.8 -705.4 L-289.8 -704.4 L-289.9 -703.5 L-289.9 -702.5 L-290 -701.5 L-290 -700.5 L-290.1 -699.5 L-290.1 -698.5 L-290.2 -697.5 L-290.2 -696.6 L-290.2 -695.6 L-290.3 -694.6 L-290.3 -693.6 L-290.4 -692.6 L-290.4 -691.6 L-290.5 -690.6 L-290.5 -689.7 L-291.5 -689.7 L-292.5 -689.7 L-293.5 -689.8 L-294.4 -689.8 L-295.4 -689.9 L-296.4 -689.9 L-297.4 -690 L-298.4 -690 L-299.4 -690 L-300.3 -690.1 L-301.3 -690.1 L-302.3 -690.2 L-303.3 -690.2 L-304.3 -690.3 L-305.3 -690.3 L-306.3 -690.4 L-307.2 -690.4 L-308.2 -690.4 L-309.2 -690.5 L-310.2 -690.5 L-311.2 -690.6 L-312.2 -690.6 L-313.2 -690.7 L-314.1 -690.7 L-315.1 -690.7 Z " />
<path stroke="rgb(0,0,0)" stroke-opacity="1" fill="rgb(255,255,255)" fill-opacity="1" d="M201.1 -312.5 L202.2 -312.4 L203.1 -312.2 L204.1 -312 L205.1 -311.6 L206 -311.2 L206.9 -310.7 L207.7 -310.2 L208.5 -309.5 L209.3 -308.9 L209.9 -308.1 L210.6 -307.3 L211.1 -306.5 L211.6 -305.6 L212 -304.7 L212.4 -303.7 L212.7 -302.8 L212.9 -301.8 L213 -300.8 L213 -299.8 L213 -298.7 L212.8 -297.7 L212.6 -296.8 L212.3 -295.8 L212 -294.8 L211.5 -293.9 L211 -293.1 L210.5 -292.2 L209.8 -291.4 L209.1 -290.7 L208.4 -290 L207.6 -289.4 L206.7 -288.9 L205.8 -288.4 L204.9 -288 L204 -287.7 L203 -287.4 L202 -287.2 L201 -287.2 L200 -287.1 L199 -287.2 L198 -287.4 L197 -287.6 L196 -287.9 L195.1 -288.3 L194.2 -288.7 L193.3 -289.2 L192.5 -289.8 L191.7 -290.5 L191 -291.2 L190.3 -292 L189.7 -292.8 L189.2 -293.6 L188.8 -294.5 L188.4 -295.5 L188.1 -296.4 L187.8 -297.4 L187.7 -298.4 L187.6 -299.4 L187.6 -300.4 L187.7 -301.4 L187.9 -302.4 L188.1 -303.4 L188.4 -304.4 L188.8 -305.3 L189.3 -306.2 L189.8 -307.1 L190.4 -307.9 L191.1 -308.6 L191.8 -309.3 L192.6 -310 L193.5 -310.5 L194.3 -311 L195.2 -311.5 L196.2 -311.9 L197.1 -312.1 L198.1 -312.4 L199.1 -312.5 L200.1 -312.5 L201.1 -312.5 Z " />
<path stroke="rgb(0,0,0)" stroke-opacity="1" fill="rgb(255,255,255)" fill-opacity="1" d="M-112.7 -688.3 L-112.7 -689.3 L-112.7 -690.3 L-112.7 -691.3 L-112.7 -692.3 L-112.7 -693.3 L-112.7 -694.2 L-112.6 -695.2 L-112.6 -696.2 L-112.6 -697.2 L-112.6 -698.2 L-112.6 -699.2 L-112.6 -700.2 L-112.6 -701.1 L-112.6 -702.1 L-112.6 -703.1 L-112.5 -704.1 L-112.5 -705.1 L-112.5 -706.1 L-112.5 -707.1 L-112.5 -708 L-112.5 -709 L-112.5 -710 L-112.5 -711 L-112.4 -712 L-112.4 -713 L-111.4 -713 L-110.5 -712.9 L-109.5 -712.9 L-108.5 -712.9 L-107.5 -712.9 L-106.5 -712.9 L-105.5 -712.9 L-104.5 -712.9 L-103.6 -712.9 L-102.6 -712.9 L-101.6 -712.8 L-100.6 -712.8 L-99.61 -712.8 L-98.63 -712.8 L-97.64 -712.8 L-96.65 -712.8 L-95.67 -712.8 L-94.68 -712.8 L-93.7 -712.7 L-92.71 -712.7 L-91.72 -712.7 L-90.74 -712.7 L-89.75 -712.7 L-88.76 -712.7 L-87.78 -712.7 L-87.79 -711.7 L-87.8 -710.7 L-87.81 -709.7 L-87.83 -708.7 L-87.84 -707.7 L-87.85 -706.8 L-87.86 -705.8 L-87.87 -704.8 L-87.89 -703.8 L-87.9 -702.8 L-87.91 -701.8 L-87.92 -700.8 L-87.93 -699.9 L-87.94 -698.9 L-87.96 -697.9 L-87.97 -696.9 L-87.98 -695.9 L-87.99 -694.9 L-88 -693.9 L-88.02 -693 L-88.03 -692 L-88.04 -691 L-88.05 -690 L-88.06 -689 L-88.08 -688 L-89.06 -688 L-90.05 -688 L-91.03 -688.1 L-92.02 -688.1 L-93.01 -688.1 L-93.99 -688.1 L-94.98 -688.1 L-95.96 -688.1 L-96.95 -688.1 L-97.94 -688.1 L-98.92 -688.2 L-99.91 -688.2 L-100.9 -688.2 L-101.9 -688.2 L-102.9 -688.2 L-103.9 -688.2 L-104.8 -688.2 L-105.8 -688.2 L-106.8 -688.2 L-107.8 -688.3 L-108.8 -688.3 L-109.8 -688.3 L-110.8 -688.3 L-111.7 -688.3 L-112.7 -688.3 Z " />
<path stroke="rgb(0,0,0)" stroke-opacity="1" fill="rgb(255,255,255)" fill-opacity="1" d="M-299.6 -212.2 L-298.6 -212.2 L-297.6 -212.1 L-296.6 -211.9 L-295.7 -211.6 L-294.8 -211.2 L-293.9 -210.8 L-293 -210.3 L-292.2 -209.7 L-291.5 -209.1 L-290.8 -208.4 L-290.1 -207.7 L-289.5 -206.9 L-289 -206.1 L-288.5 -205.2 L-288.1 -204.3 L-287.8 -203.4 L-287.6 -202.4 L-287.4 -201.4 L-287.3 -200.5 L-287.3 -199.5 L-287.4 -198.5 L-287.5 -197.5 L-287.7 -196.6 L-288 -195.6 L-288.4 -194.7 L-288.9 -193.8 L-289.4 -193 L-289.9 -192.2 L-290.6 -191.4 L-291.3 -190.7 L-292 -190.1 L-292.8 -189.5 L-293.7 -189 L-294.6 -188.6 L-295.5 -188.2 L-296.4 -187.9 L-297.4 -187.7 L-298.3 -187.5 L-299.3 -187.5 L-300.3 -187.5 L-301.3 -187.6 L-302.3 -187.7 L-303.2 -188 L-304.1 -188.3 L-305.1 -188.7 L-305.9 -189.1 L-306.8 -189.7 L-307.5 -190.3 L-308.3 -190.9 L-309 -191.6 L-309.6 -192.4 L-310.1 -193.2 L-310.6 -194 L-311.1 -194.9 L-311.4 -195.9 L-311.7 -196.8 L-311.9 -197.8 L-312 -198.7 L-312.1 -199.7 L-312 -200.7 L-311.9 -201.7 L-311.8 -202.7 L-311.5 -203.6 L-311.2 -204.5 L-310.7 -205.4 L-310.3 -206.3 L-309.7 -207.1 L-309.1 -207.9 L-308.4 -208.6 L-307.7 -209.3 L-306.9 -209.9 L-306.1 -210.4 L-305.3 -210.9 L-304.4 -211.3 L-303.4 -211.7 L-302.5 -211.9 L-301.5 -212.1 L-300.5 -212.2 L-299.6 -212.2 Z " />
<path stroke="rgb(0,0,0)" stroke-opacity="1" fill="rgb(255,255,255)" fill-opacity="1" d="M-623 -598.8 L-622.8 -599.8 L-622.7 -600.8 L-622.5 -601.8 L-622.4 -602.7 L-622.2 -603.7 L-622.1 -604.7 L-621.9 -605.7 L-621.8 -606.6 L-621.6 -607.6 L-621.5 -608.6 L-621.4 -609.6 L-621.2 -610.5 L-621.1 -611.5 L-620.9 -612.5 L-620.8 -613.5 L-620.6 -614.4 L-620.5 -615.4 L-620.3 -616.4 L-620.2 -617.4 L-620 -618.3 L-619.9 -619.3 L-619.7 -620.3 L-619.6 -621.3 L-619.5 -622.2 L-619.3 -623.2 L-618.3 -623.1 L-617.4 -622.9 L-616.4 -622.8 L-615.4 -622.6 L-614.4 -622.5 L-613.5 -622.3 L-612.5 -622.2 L-611.5 -622 L-610.5 -621.9 L-609.6 -621.7 L-608.6 -621.6 L-607.6 -621.5 L-606.6 -621.3 L-605.7 -621.2 L-604.7 -621 L-603.7 -620.9 L-602.7 -620.7 L-601.8 -620.6 L-600.8 -620.4 L-599.8 -620.3 L-598.8 -620.1 L-597.9 -620 L-596.9 -619.8 L-595.9 -619.7 L-594.9 -619.6 L-595.1 -618.6 L-595.2 -617.6 L-595.4 -616.6 L-595.5 -615.6 L-595.7 -614.7 L-595.8 -613.7 L-596 -612.7 L-596.1 -611.7 L-596.2 -610.8 L-596.4 -609.8 L-596.5 -608.8 L-596.7 -607.8 L-596.8 -606.9 L-597 -605.9 L-597.1 -604.9 L-597.3 -603.9 L-597.4 -603 L-597.6 -602 L-597.7 -601 L-597.9 -600 L-598 -599.1 L-598.1 -598.1 L-598.3 -597.1 L-598.4 -596.1 L-598.6 -595.2 L-599.6 -595.3 L-600.5 -595.5 L-601.5 -595.6 L-602.5 -595.8 L-603.5 -595.9 L-604.4 -596 L-605.4 -596.2 L-606.4 -596.3 L-607.4 -596.5 L-608.3 -596.6 L-609.3 -596.8 L-610.3 -596.9 L-611.3 -597.1 L-612.2 -597.2 L-613.2 -597.4 L-614.2 -597.5 L-615.2 -597.7 L-616.1 -597.8 L-617.1 -597.9 L-618.1 -598.1 L-619.1 -598.2 L-620 -598.4 L-621 -598.5 L-622 -598.7 L-623 -598.8 Z " />
<path stroke="rgb(0,0,0)" stroke-opacity="1" fill="rgb(255,255,255)" fill-opacity="1" d="M-99.56 -212.2 L-98.58 -212.2 L-97.6 -212.1 L-96.64 -211.9 L-95.69 -211.6 L-94.77 -211.2 L-93.89 -210.8 L-93.03 -210.3 L-92.22 -209.7 L-91.46 -209.1 L-90.75 -208.4 L-90.1 -207.7 L-89.51 -206.9 L-88.98 -206.1 L-88.52 -205.2 L-88.13 -204.3 L-87.81 -203.4 L-87.57 -202.4 L-87.4 -201.4 L-87.31 -200.5 L-87.3 -199.5 L-87.37 -198.5 L-87.52 -197.5 L-87.74 -196.6 L-88.04 -195.6 L-88.42 -194.7 L-88.86 -193.8 L-89.37 -193 L-89.95 -192.2 L-90.59 -191.4 L-91.29 -190.7 L-92.04 -190.1 L-92.83 -189.5 L-93.68 -189 L-94.56 -188.6 L-95.47 -188.2 L-96.41 -187.9 L-97.37 -187.7 L-98.34 -187.5 L-99.32 -187.5 L-100.3 -187.5 L-101.3 -187.6 L-102.3 -187.7 L-103.2 -188 L-104.1 -188.3 L-105.1 -188.7 L-105.9 -189.1 L-106.8 -189.7 L-107.5 -190.3 L-108.3 -190.9 L-109 -191.6 L-109.6 -192.4 L-110.1 -193.2 L-110.6 -194 L-111.1 -194.9 L-111.4 -195.9 L-111.7 -196.8 L-111.9 -197.8 L-112 -198.7 L-112.1 -199.7 L-112 -200.7 L-111.9 -201.7 L-111.8 -202.7 L-111.5 -203.6 L-111.2 -204.5 L-110.7 -205.4 L-110.3 -206.3 L-109.7 -207.1 L-109.1 -207.9 L-108.4 -208.6 L-107.7 -209.3 L-106.9 -209.9 L-106.1 -210.4 L-105.3 -210.9 L-104.4 -211.3 L-103.4 -211.7 L-102.5 -211.9 L-101.5 -212.1 L-100.5 -212.2 L-99.56 -212.2 Z " />
<path stroke="rgb(0,0,0)" stroke-opacity="1" fill="rgb(255,255,255)" fill-opacity="1" d="M-415.1 -590.7 L-415.1 -591.7 L-415 -592.7 L-415 -593.7 L-415 -594.7 L-414.9 -595.7 L-414.9 -596.7 L-414.8 -597.6 L-414.8 -598.6 L-414.7 -599.6 L-414.7 -600.6 L-414.7 -601.6 L-414.6 -602.6 L-414.6 -603.5 L-414.5 -604.5 L-414.5 -605.5 L-414.4 -606.5 L-414.4 -607.5 L-414.3 -608.5 L-414.3 -609.5 L-414.3 -610.4 L-414.2 -611.4 L-414.2 -612.4 L-414.1 -613.4 L-414.1 -614.4 L-414 -615.4 L-413.1 -615.3 L-412.1 -615.3 L-411.1 -615.2 L-410.1 -615.2 L-409.1 -615.2 L-408.1 -615.1 L-407.2 -615.1 L-406.2 -615 L-405.2 -615 L-404.2 -614.9 L-403.2 -614.9 L-402.2 -614.9 L-401.2 -614.8 L-400.3 -614.8 L-399.3 -614.7 L-398.3 -614.7 L-397.3 -614.6 L-396.3 -614.6 L-395.3 -614.6 L-394.3 -614.5 L-393.4 -614.5 L-392.4 -614.4 L-391.4 -614.4 L-390.4 -614.3 L-389.4 -614.3 L-389.5 -613.3 L-389.5 -612.3 L-389.5 -611.3 L-389.6 -610.4 L-389.6 -609.4 L-389.7 -608.4 L-389.7 -607.4 L-389.8 -606.4 L-389.8 -605.4 L-389.8 -604.4 L-389.9 -603.5 L-389.9 -602.5 L-390 -601.5 L-390 -600.5 L-390.1 -599.5 L-390.1 -598.5 L-390.2 -597.5 L-390.2 -596.6 L-390.2 -595.6 L-390.3 -594.6 L-390.3 -593.6 L-390.4 -592.6 L-390.4 -591.6 L-390.5 -590.6 L-390.5 -589.7 L-391.5 -589.7 L-392.5 -589.7 L-393.5 -589.8 L-394.4 -589.8 L-395.4 -589.9 L-396.4 -589.9 L-397.4 -590 L-398.4 -590 L-399.4 -590 L-400.3 -590.1 L-401.3 -590.1 L-402.3 -590.2 L-403.3 -590.2 L-404.3 -590.3 L-405.3 -590.3 L-406.3 -590.4 L-407.2 -590.4 L-408.2 -590.4 L-409.2 -590.5 L-410.2 -590.5 L-411.2 -590.6 L-412.2 -590.6 L-413.2 -590.7 L-414.1 -590.7 L-415.1 -590.7 Z " />
<path stroke="rgb(0,0,0)" stroke-opacity="1" fill="rgb(255,255,255)" fill-opacity="1" d="M101.1 -212.5 L102.2 -212.4 L103.1 -212.2 L104.1 -212 L105.1 -211.6 L106 -211.2 L106.9 -210.7 L107.7 -210.2 L108.5 -209.5 L109.3 -208.9 L109.9 -208.1 L110.6 -207.3 L111.1 -206.5 L111.6 -205.6 L112 -204.7 L112.4 -203.7 L112.7 -202.8 L112.9 -201.8 L113 -200.8 L113 -199.8 L113 -198.7 L112.8 -197.7 L112.6 -196.8 L112.3 -195.8 L112 -194.8 L111.5 -193.9 L111 -193.1 L110.5 -192.2 L109.8 -191.4 L109.1 -190.7 L108.4 -190 L107.6 -189.4 L106.7 -188.9 L105.8 -188.4 L104.9 -188 L104 -187.7 L103 -187.4 L102 -187.2 L101 -187.2 L99.96 -187.1 L98.95 -187.2 L97.95 -187.4 L96.97 -187.6 L96.01 -187.9 L95.07 -188.3 L94.17 -188.7 L93.3 -189.2 L92.48 -189.8 L91.71 -190.5 L91 -191.2 L90.34 -192 L89.74 -192.8 L89.22 -193.6 L88.76 -194.5 L88.37 -195.5 L88.06 -196.4 L87.83 -197.4 L87.68 -198.4 L87.61 -199.4 L87.61 -200.4 L87.7 -201.4 L87.87 -202.4 L88.11 -203.4 L88.44 -204.4 L88.83 -205.3 L89.3 -206.2 L89.84 -207.1 L90.45 -207.9 L91.12 -208.6 L91.84 -209.3 L92.62 -210 L93.45 -210.5 L94.32 -211 L95.23 -211.5 L96.17 -211.9 L97.14 -212.1 L98.13 -212.4 L99.13 -212.5 L100.1 -212.5 L101.1 -212.5 Z " />
<path stroke="rgb(0,0,0)" stroke-opacity="1" fill="rgb(255,255,255)" fill-opacity="1" d="M-212.7 -588.3 L-212.7 -589.3 L-212.7 -590.3 L-212.7 -591.3 L-212.7 -592.3 L-212.7 -593.3 L-212.7 -594.2 L-212.6 -595.2 L-212.6 -596.2 L-212.6 -597.2 L-212.6 -598.2 L-212.6 -599.2 L-212.6 -600.2 L-212.6 -601.1 L-212.6 -602.1 L-212.6 -603.1 L-212.5 -604.1 L-212.5 -605.1 L-212.5 -606.1 L-212.5 -607.1 L-212.5 -608 L-212.5 -609 L-212.5 -610 L-212.5 -611 L-212.4 -612 L-212.4 -613 L-211.4 -613 L-210.5 -612.9 L-209.5 -612.9 L-208.5 -612.9 L-207.5 -612.9 L-206.5 -612.9 L-205.5 -612.9 L-204.5 -612.9 L-203.6 -612.9 L-202.6 -612.9 L-201.6 -612.8 L-200.6 -612.8 L-199.6 -612.8 L-198.6 -612.8 L-197.6 -612.8 L-196.7 -612.8 L-195.7 -612.8 L-194.7 -612.8 L-193.7 -612.7 L-192.7 -612.7 L-191.7 -612.7 L-190.7 -612.7 L-189.8 -612.7 L-188.8 -612.7 L-187.8 -612.7 L-187.8 -611.7 L-187.8 -610.7 L-187.8 -609.7 L-187.8 -608.7 L-187.8 -607.7 L-187.8 -606.8 L-187.9 -605.8 L-187.9 -604.8 L-187.9 -603.8 L-187.9 -602.8 L-187.9 -601.8 L-187.9 -600.8 L-187.9 -599.9 L-187.9 -598.9 L-188 -597.9 L-188 -596.9 L-188 -595.9 L-188 -594.9 L-188 -593.9 L-188 -593 L-188 -592 L-188 -591 L-188.1 -590 L-188.1 -589 L-188.1 -588 L-189.1 -588 L-190 -588 L-191 -588.1 L-192 -588.1 L-193 -588.1 L-194 -588.1 L-195 -588.1 L-196 -588.1 L-197 -588.1 L-197.9 -588.1 L-198.9 -588.2 L-199.9 -588.2 L-200.9 -588.2 L-201.9 -588.2 L-202.9 -588.2 L-203.9 -588.2 L-204.8 -588.2 L-205.8 -588.2 L-206.8 -588.2 L-207.8 -588.3 L-208.8 -588.3 L-209.8 -588.3 L-210.8 -588.3 L-211.7 -588.3 L-212.7 -588.3 Z " />
<path stroke="rgb(0,0,0)" stroke-opacity="1" fill="rgb(255,255,255)" fill-opacity="1" d="M309.5 -213.1 L310.5 -212.3 L311.5 -211.4 L312.4 -210.5 L313.2 -209.5 L313.9 -208.4 L314.6 -207.3 L315.1 -206.1 L315.6 -204.9 L315.9 -203.7 L316.2 -202.4 L316.3 -201.2 L316.4 -199.9 L316.3 -198.6 L316.2 -197.3 L315.9 -196 L315.6 -194.8 L315.1 -193.6 L314.6 -192.4 L314 -191.3 L313.2 -190.2 L312.4 -189.2 L311.5 -188.3 L310.6 -187.4 L309.6 -186.6 L308.5 -185.9 L307.4 -185.3 L306.2 -184.8 L305 -184.4 L303.7 -184 L302.5 -183.8 L301.2 -183.7 L299.9 -183.7 L298.6 -183.7 L297.3 -183.9 L296.1 -184.2 L294.9 -184.6 L293.7 -185 L292.5 -185.6 L291.4 -186.2 L290.3 -187 L289.4 -187.8 L288.4 -188.7 L287.6 -189.7 L286.8 -190.7 L286.1 -191.8 L285.5 -192.9 L285 -194.1 L284.6 -195.4 L284.3 -196.6 L284.1 -197.9 L284 -199.2 L284 -200.4 L284.1 -201.7 L284.3 -203 L284.6 -204.3 L285 -205.5 L285.5 -206.7 L286.1 -207.8 L286.8 -208.9 L287.6 -209.9 L288.4 -210.9 L289.3 -211.8 L290.3 -212.6 L291.3 -213.4 L292.4 -214 L293.6 -214.6 L294.8 -215.1 L296 -215.5 L297.3 -215.8 L298.6 -215.9 L299.8 -216 L301.1 -216 L302.4 -215.9 L303.7 -215.6 L304.9 -215.3 L306.1 -214.9 L307.3 -214.4 L308.4 -213.8 L309.5 -213.1 Z " />
<path stroke="rgb(0,0,0)" stroke-opacity="1" fill="rgb(255,255,255)" fill-opacity="1" d="M-723 -498.8 L-722.8 -499.8 L-722.7 -500.8 L-722.5 -501.8 L-722.4 -502.7 L-722.2 -503.7 L-722.1 -504.7 L-721.9 -505.7 L-721.8 -506.6 L-721.6 -507.6 L-721.5 -508.6 L-721.4 -509.6 L-721.2 -510.5 L-721.1 -511.5 L-720.9 -512.5 L-720.8 -513.5 L-720.6 -514.4 L-720.5 -515.4 L-720.3 -516.4 L-720.2 -517.4 L-720 -518.3 L-719.9 -519.3 L-719.7 -520.3 L-719.6 -521.3 L-719.5 -522.2 L-719.3 -523.2 L-718.3 -523.1 L-717.4 -522.9 L-716.4 -522.8 L-715.4 -522.6 L-714.4 -522.5 L-713.5 -522.3 L-712.5 -522.2 L-711.5 -522 L-710.5 -521.9 L-709.6 -521.7 L-708.6 -521.6 L-707.6 -521.5 L-706.6 -521.3 L-705.7 -521.2 L-704.7 -521 L-703.7 -520.9 L-702.7 -520.7 L-701.8 -520.6 L-700.8 -520.4 L-699.8 -520.3 L-698.8 -520.1 L-697.9 -520 L-696.9 -519.8 L-695.9 -519.7 L-694.9 -519.6 L-695.1 -518.6 L-695.2 -517.6 L-695.4 -516.6 L-695.5 -515.6 L-695.7 -514.7 L-695.8 -513.7 L-696 -512.7 L-696.1 -511.7 L-696.2 -510.8 L-696.4 -509.8 L-696.5 -508.8 L-696.7 -507.8 L-696.8 -506.9 L-697 -505.9 L-697.1 -504.9 L-697.3 -503.9 L-697.4 -503 L-697.6 -502 L-697.7 -501 L-697.9 -500 L-698 -499.1 L-698.1 -498.1 L-698.3 -497.1 L-698.4 -496.1 L-698.6 -495.2 L-699.6 -495.3 L-700.5 -495.5 L-701.5 -495.6 L-702.5 -495.8 L-703.5 -495.9 L-704.4 -496 L-705.4 -496.2 L-706.4 -496.3 L-707.4 -496.5 L-708.3 -496.6 L-709.3 -496.8 L-710.3 -496.9 L-711.3 -497.1 L-712.2 -497.2 L-713.2 -497.4 L-714.2 -497.5 L-715.2 -497.7 L-716.1 -497.8 L-717.1 -497.9 L-718.1 -498.1 L-719.1 -498.2 L-720 -498.4 L-721 -498.5 L-722 -498.7 L-723 -498.8 Z " />
<path stroke="rgb(0,0,0)" stroke-opacity="1" fill="rgb(255,255,255)" fill-opacity="1" d="M-199.6 -112.2 L-198.6 -112.2 L-197.6 -112.1 L-196.6 -111.9 L-195.7 -111.6 L-194.8 -111.2 L-193.9 -110.8 L-193 -110.3 L-192.2 -109.7 L-191.5 -109.1 L-190.8 -108.4 L-190.1 -107.7 L-189.5 -106.9 L-189 -106.1 L-188.5 -105.2 L-188.1 -104.3 L-187.8 -103.4 L-187.6 -102.4 L-187.4 -101.4 L-187.3 -100.5 L-187.3 -99.47 L-187.4 -98.49 L-187.5 -97.51 L-187.7 -96.55 L-188 -95.62 L-188.4 -94.7 L-188.9 -93.82 L-189.4 -92.98 L-189.9 -92.19 L-190.6 -91.44 L-191.3 -90.74 L-192 -90.1 L-192.8 -89.52 L-193.7 -89.01 L-194.6 -88.57 L-195.5 -88.2 L-196.4 -87.9 L-197.4 -87.67 L-198.3 -87.53 L-199.3 -87.46 L-200.3 -87.47 L-201.3 -87.56 L-202.3 -87.72 L-203.2 -87.97 L-204.1 -88.29 L-205.1 -88.68 L-205.9 -89.14 L-206.8 -89.67 L-207.5 -90.26 L-208.3 -90.91 L-209 -91.62 L-209.6 -92.39 L-210.1 -93.2 L-210.6 -94.05 L-211.1 -94.94 L-211.4 -95.86 L-211.7 -96.8 L-211.9 -97.77 L-212 -98.74 L-212.1 -99.73 L-212 -100.7 L-211.9 -101.7 L-211.8 -102.7 L-211.5 -103.6 L-211.2 -104.5 L-210.7 -105.4 L-210.3 -106.3 L-209.7 -107.1 L-209.1 -107.9 L-208.4 -108.6 L-207.7 -109.3 L-206.9 -109.9 L-206.1 -110.4 L-205.3 -110.9 L-204.4 -111.3 L-203.4 -111.7 L-202.5 -111.9 L-201.5 -112.1 L-200.5 -112.2 L-199.6 -112.2 Z " />
<path stroke="rgb(0,0,0)" stroke-opacity="1" fill="rgb(255,255,255)" fill-opacity="1" d="M-515.1 -490.7 L-515.1 -491.7 L-515 -492.7 L-515 -493.7 L-515 -494.7 L-514.9 -495.7 L-514.9 -496.7 L-514.8 -497.6 L-514.8 -498.6 L-514.7 -499.6 L-514.7 -500.6 L-514.7 -501.6 L-514.6 -502.6 L-514.6 -503.5 L-514.5 -504.5 L-514.5 -505.5 L-514.4 -506.5 L-514.4 -507.5 L-514.3 -508.5 L-514.3 -509.5 L-514.3 -510.4 L-514.2 -511.4 L-514.2 -512.4 L-514.1 -513.4 L-514.1 -514.4 L-514 -515.4 L-513.1 -515.3 L-512.1 -515.3 L-511.1 -515.2 L-510.1 -515.2 L-509.1 -515.2 L-508.1 -515.1 L-507.2 -515.1 L-506.2 -515 L-505.2 -515 L-504.2 -514.9 L-503.2 -514.9 L-502.2 -514.9 L-501.2 -514.8 L-500.3 -514.8 L-499.3 -514.7 L-498.3 -514.7 L-497.3 -514.6 L-496.3 -514.6 L-495.3 -514.6 L-494.3 -514.5 L-493.4 -514.5 L-492.4 -514.4 L-491.4 -514.4 L-490.4 -514.3 L-489.4 -514.3 L-489.5 -513.3 L-489.5 -512.3 L-489.5 -511.3 L-489.6 -510.4 L-489.6 -509.4 L-489.7 -508.4 L-489.7 -507.4 L-489.8 -506.4 L-489.8 -505.4 L-489.8 -504.4 L-489.9 -503.5 L-489.9 -502.5 L-490 -501.5 L-490 -500.5 L-490.1 -499.5 L-490.1 -498.5 L-490.2 -497.5 L-490.2 -496.6 L-490.2 -495.6 L-490.3 -494.6 L-490.3 -493.6 L-490.4 -492.6 L-490.4 -491.6 L-490.5 -490.6 L-490.5 -489.7 L-491.5 -489.7 L-492.5 -489.7 L-493.5 -489.8 L-494.4 -489.8 L-495.4 -489.9 L-496.4 -489.9 L-497.4 -490 L-498.4 -490 L-499.4 -490 L-500.3 -490.1 L-501.3 -490.1 L-502.3 -490.2 L-503.3 -490.2 L-504.3 -490.3 L-505.3 -490.3 L-506.3 -490.4 L-507.2 -490.4 L-508.2 -490.4 L-509.2 -490.5 L-510.2 -490.5 L-511.2 -490.6 L-512.2 -490.6 L-513.2 -490.7 L-514.1 -490.7 L-515.1 -490.7 Z " />
<path stroke="rgb(0,0,0)" stroke-opacity="1" fill="rgb(255,255,255)" fill-opacity="1" d="M1.147 -112.5 L2.152 -112.4 L3.144 -112.2 L4.119 -112 L5.069 -111.6 L5.99 -111.2 L6.874 -110.7 L7.717 -110.2 L8.513 -109.5 L9.257 -108.9 L9.945 -108.1 L10.57 -107.3 L11.13 -106.5 L11.63 -105.6 L12.05 -104.7 L12.39 -103.7 L12.67 -102.8 L12.86 -101.8 L12.97 -100.8 L13 -99.75 L12.96 -98.74 L12.83 -97.74 L12.62 -96.75 L12.34 -95.78 L11.98 -94.84 L11.54 -93.93 L11.04 -93.05 L10.47 -92.22 L9.829 -91.44 L9.131 -90.71 L8.378 -90.04 L7.573 -89.43 L6.723 -88.88 L5.831 -88.41 L4.905 -88 L3.95 -87.67 L2.972 -87.42 L1.977 -87.25 L0.9711 -87.16 L-0.03887 -87.14 L-1.047 -87.21 L-2.046 -87.36 L-3.03 -87.58 L-3.994 -87.89 L-4.93 -88.27 L-5.833 -88.72 L-6.697 -89.24 L-7.518 -89.83 L-8.288 -90.48 L-9.005 -91.2 L-9.662 -91.96 L-10.26 -92.78 L-10.78 -93.64 L-11.24 -94.54 L-11.63 -95.47 L-11.94 -96.44 L-12.17 -97.42 L-12.32 -98.42 L-12.39 -99.42 L-12.39 -100.4 L-12.3 -101.4 L-12.13 -102.4 L-11.89 -103.4 L-11.56 -104.4 L-11.17 -105.3 L-10.7 -106.2 L-10.16 -107.1 L-9.552 -107.9 L-8.883 -108.6 L-8.157 -109.3 L-7.378 -110 L-6.549 -110.5 L-5.678 -111 L-4.769 -111.5 L-3.827 -111.9 L-2.86 -112.1 L-1.872 -112.4 L-0.871 -112.5 L0.1376 -112.5 L1.147 -112.5 Z " />
<path stroke="rgb(0,0,0)" stroke-opacity="1" fill="rgb(255,255,255)" fill-opacity="1" d="M-312.7 -488.3 L-312.7 -489.3 L-312.7 -490.3 L-312.7 -491.3 L-312.7 -492.3 L-312.7 -493.3 L-312.7 -494.2 L-312.6 -495.2 L-312.6 -496.2 L-312.6 -497.2 L-312.6 -498.2 L-312.6 -499.2 L-312.6 -500.2 L-312.6 -501.1 L-312.6 -502.1 L-312.6 -503.1 L-312.5 -504.1 L-312.5 -505.1 L-312.5 -506.1 L-312.5 -507.1 L-312.5 -508 L-312.5 -509 L-312.5 -510 L-312.5 -511 L-312.4 -512 L-312.4 -513 L-311.4 -513 L-310.5 -512.9 L-309.5 -512.9 L-308.5 -512.9 L-307.5 -512.9 L-306.5 -512.9 L-305.5 -512.9 L-304.5 -512.9 L-303.6 -512.9 L-302.6 -512.9 L-301.6 -512.8 L-300.6 -512.8 L-299.6 -512.8 L-298.6 -512.8 L-297.6 -512.8 L-296.7 -512.8 L-295.7 -512.8 L-294.7 -512.8 L-293.7 -512.7 L-292.7 -512.7 L-291.7 -512.7 L-290.7 -512.7 L-289.8 -512.7 L-288.8 -512.7 L-287.8 -512.7 L-287.8 -511.7 L-287.8 -510.7 L-287.8 -509.7 L-287.8 -508.7 L-287.8 -507.7 L-287.8 -506.8 L-287.9 -505.8 L-287.9 -504.8 L-287.9 -503.8 L-287.9 -502.8 L-287.9 -501.8 L-287.9 -500.8 L-287.9 -499.9 L-287.9 -498.9 L-288 -497.9 L-288 -496.9 L-288 -495.9 L-288 -494.9 L-288 -493.9 L-288 -493 L-288 -492 L-288 -491 L-288.1 -490 L-288.1 -489 L-288.1 -488 L-289.1 -488 L-290 -488 L-291 -488.1 L-292 -488.1 L-293 -488.1 L-294 -488.1 L-295 -488.1 L-296 -488.1 L-297 -488.1 L-297.9 -488.1 L-298.9 -488.2 L-299.9 -488.2 L-300.9 -488.2 L-301.9 -488.2 L-302.9 -488.2 L-303.9 -488.2 L-304.8 -488.2 L-305.8 -488.2 L-306.8 -488.2 L-307.8 -488.3 L-308.8 -488.3 L-309.8 -488.3 L-310.8 -488.3 L-311.7 -488.3 L-312.7 -488.3 Z " />
<path stroke="rgb(0,0,0)" stroke-opacity="1" fill="rgb(255,255,255)" fill-opacity="1" d="M209.5 -113.1 L210.5 -112.3 L211.5 -111.4 L212.4 -110.5 L213.2 -109.5 L213.9 -108.4 L214.6 -107.3 L215.1 -106.1 L215.6 -104.9 L215.9 -103.7 L216.2 -102.4 L216.3 -101.2 L216.4 -99.87 L216.3 -98.58 L216.2 -97.3 L215.9 -96.04 L215.6 -94.8 L215.1 -93.6 L214.6 -92.43 L214 -91.31 L213.2 -90.24 L212.4 -89.24 L211.5 -88.3 L210.6 -87.43 L209.6 -86.65 L208.5 -85.94 L207.4 -85.33 L206.2 -84.8 L205 -84.37 L203.7 -84.04 L202.5 -83.81 L201.2 -83.68 L199.9 -83.65 L198.6 -83.73 L197.3 -83.9 L196.1 -84.18 L194.9 -84.56 L193.7 -85.03 L192.5 -85.59 L191.4 -86.25 L190.3 -86.99 L189.4 -87.81 L188.4 -88.71 L187.6 -89.68 L186.8 -90.72 L186.1 -91.81 L185.5 -92.95 L185 -94.13 L184.6 -95.36 L184.3 -96.61 L184.1 -97.88 L184 -99.16 L184 -100.4 L184.1 -101.7 L184.3 -103 L184.6 -104.3 L185 -105.5 L185.5 -106.7 L186.1 -107.8 L186.8 -108.9 L187.6 -109.9 L188.4 -110.9 L189.3 -111.8 L190.3 -112.6 L191.3 -113.4 L192.4 -114 L193.6 -114.6 L194.8 -115.1 L196 -115.5 L197.3 -115.8 L198.6 -115.9 L199.8 -116 L201.1 -116 L202.4 -115.9 L203.7 -115.6 L204.9 -115.3 L206.1 -114.9 L207.3 -114.4 L208.4 -113.8 L209.5 -113.1 Z " />
<path stroke="rgb(0,0,0)" stroke-opacity="1" fill="rgb(255,255,255)" fill-opacity="1" d="M-112.6 -488.2 L-112.6 -489.1 L-112.5 -490.1 L-112.5 -491.1 L-112.5 -492.1 L-112.5 -493.1 L-112.5 -494.1 L-112.5 -495.1 L-112.5 -496 L-112.5 -497 L-112.5 -498 L-112.5 -499 L-112.4 -500 L-112.4 -501 L-112.4 -502 L-112.4 -502.9 L-112.4 -503.9 L-112.4 -504.9 L-112.4 -505.9 L-112.4 -506.9 L-112.4 -507.9 L-112.4 -508.9 L-112.4 -509.8 L-112.3 -510.8 L-112.3 -511.8 L-112.3 -512.8 L-111.3 -512.8 L-110.3 -512.8 L-109.4 -512.8 L-108.4 -512.8 L-107.4 -512.8 L-106.4 -512.7 L-105.4 -512.7 L-104.4 -512.7 L-103.4 -512.7 L-102.5 -512.7 L-101.5 -512.7 L-100.5 -512.7 L-99.5 -512.7 L-98.51 -512.7 L-97.53 -512.7 L-96.54 -512.7 L-95.56 -512.6 L-94.57 -512.6 L-93.58 -512.6 L-92.6 -512.6 L-91.61 -512.6 L-90.63 -512.6 L-89.64 -512.6 L-88.65 -512.6 L-87.67 -512.6 L-87.68 -511.6 L-87.69 -510.6 L-87.7 -509.6 L-87.71 -508.6 L-87.72 -507.6 L-87.73 -506.6 L-87.74 -505.7 L-87.74 -504.7 L-87.75 -503.7 L-87.76 -502.7 L-87.77 -501.7 L-87.78 -500.7 L-87.79 -499.7 L-87.8 -498.8 L-87.81 -497.8 L-87.82 -496.8 L-87.83 -495.8 L-87.84 -494.8 L-87.85 -493.8 L-87.86 -492.8 L-87.87 -491.9 L-87.88 -490.9 L-87.89 -489.9 L-87.9 -488.9 L-87.91 -487.9 L-88.9 -487.9 L-89.88 -487.9 L-90.87 -487.9 L-91.85 -488 L-92.84 -488 L-93.83 -488 L-94.81 -488 L-95.8 -488 L-96.79 -488 L-97.77 -488 L-98.76 -488 L-99.74 -488 L-100.7 -488 L-101.7 -488 L-102.7 -488.1 L-103.7 -488.1 L-104.7 -488.1 L-105.7 -488.1 L-106.6 -488.1 L-107.6 -488.1 L-108.6 -488.1 L-109.6 -488.1 L-110.6 -488.1 L-111.6 -488.1 L-112.6 -488.2 Z " />
<path stroke="rgb(0,0,0)" stroke-opacity="1" fill="rgb(255,255,255)" fill-opacity="1" d="M-299.6 -12.23 L-298.6 -12.19 L-297.6 -12.06 L-296.6 -11.85 L-295.7 -11.57 L-294.8 -11.22 L-293.9 -10.79 L-293 -10.3 L-292.2 -9.735 L-291.5 -9.11 L-290.8 -8.428 L-290.1 -7.69 L-289.5 -6.904 L-289 -6.072 L-288.5 -5.201 L-288.1 -4.297 L-287.8 -3.364 L-287.6 -2.409 L-287.4 -1.438 L-287.3 -0.4566 L-287.3 0.5285 L-287.4 1.511 L-287.5 2.486 L-287.7 3.445 L-288 4.384 L-288.4 5.296 L-288.9 6.175 L-289.4 7.016 L-289.9 7.814 L-290.6 8.564 L-291.3 9.26 L-292 9.899 L-292.8 10.48 L-293.7 10.99 L-294.6 11.43 L-295.5 11.8 L-296.4 12.1 L-297.4 12.33 L-298.3 12.47 L-299.3 12.54 L-300.3 12.53 L-301.3 12.44 L-302.3 12.28 L-303.2 12.03 L-304.1 11.71 L-305.1 11.32 L-305.9 10.86 L-306.8 10.33 L-307.5 9.74 L-308.3 9.086 L-309 8.375 L-309.6 7.613 L-310.1 6.803 L-310.6 5.951 L-311.1 5.063 L-311.4 4.143 L-311.7 3.199 L-311.9 2.235 L-312 1.258 L-312.1 0.2739 L-312 -0.7109 L-311.9 -1.69 L-311.8 -2.658 L-311.5 -3.608 L-311.2 -4.534 L-310.7 -5.43 L-310.3 -6.291 L-309.7 -7.111 L-309.1 -7.886 L-308.4 -8.609 L-307.7 -9.278 L-306.9 -9.886 L-306.1 -10.43 L-305.3 -10.91 L-304.4 -11.32 L-303.4 -11.65 L-302.5 -11.91 L-301.5 -12.1 L-300.5 -12.21 L-299.6 -12.23 Z " />
<path stroke="rgb(0,0,0)" stroke-opacity="1" fill="rgb(255,255,255)" fill-opacity="1" d="M-615.1 -390.7 L-615.1 -391.7 L-615 -392.7 L-615 -393.7 L-615 -394.7 L-614.9 -395.7 L-614.9 -396.7 L-614.8 -397.6 L-614.8 -398.6 L-614.7 -399.6 L-614.7 -400.6 L-614.7 -401.6 L-614.6 -402.6 L-614.6 -403.5 L-614.5 -404.5 L-614.5 -405.5 L-614.4 -406.5 L-614.4 -407.5 L-614.3 -408.5 L-614.3 -409.5 L-614.3 -410.4 L-614.2 -411.4 L-614.2 -412.4 L-614.1 -413.4 L-614.1 -414.4 L-614 -415.4 L-613.1 -415.3 L-612.1 -415.3 L-611.1 -415.2 L-610.1 -415.2 L-609.1 -415.2 L-608.1 -415.1 L-607.2 -415.1 L-606.2 -415 L-605.2 -415 L-604.2 -414.9 L-603.2 -414.9 L-602.2 -414.9 L-601.2 -414.8 L-600.3 -414.8 L-599.3 -414.7 L-598.3 -414.7 L-597.3 -414.6 L-596.3 -414.6 L-595.3 -414.6 L-594.3 -414.5 L-593.4 -414.5 L-592.4 -414.4 L-591.4 -414.4 L-590.4 -414.3 L-589.4 -414.3 L-589.5 -413.3 L-589.5 -412.3 L-589.5 -411.3 L-589.6 -410.4 L-589.6 -409.4 L-589.7 -408.4 L-589.7 -407.4 L-589.8 -406.4 L-589.8 -405.4 L-589.8 -404.4 L-589.9 -403.5 L-589.9 -402.5 L-590 -401.5 L-590 -400.5 L-590.1 -399.5 L-590.1 -398.5 L-590.2 -397.5 L-590.2 -396.6 L-590.2 -395.6 L-590.3 -394.6 L-590.3 -393.6 L-590.4 -392.6 L-590.4 -391.6 L-590.5 -390.6 L-590.5 -389.7 L-591.5 -389.7 L-592.5 -389.7 L-593.5 -389.8 L-594.4 -389.8 L-595.4 -389.9 L-596.4 -389.9 L-597.4 -390 L-598.4 -390 L-599.4 -390 L-600.3 -390.1 L-601.3 -390.1 L-602.3 -390.2 L-603.3 -390.2 L-604.3 -390.3 L-605.3 -390.3 L-606.3 -390.4 L-607.2 -390.4 L-608.2 -390.4 L-609.2 -390.5 L-610.2 -390.5 L-611.2 -390.6 L-612.2 -390.6 L-613.2 -390.7 L-614.1 -390.7 L-615.1 -390.7 Z " />
<path stroke="rgb(0,0,0)" stroke-opacity="1" fill="rgb(255,255,255)" fill-opacity="1" d="M-98.85 -12.52 L-97.85 -12.41 L-96.86 -12.22 L-95.88 -11.96 L-94.93 -11.62 L-94.01 -11.2 L-93.13 -10.71 L-92.28 -10.16 L-91.49 -9.534 L-90.74 -8.851 L-90.06 -8.111 L-89.43 -7.318 L-88.87 -6.479 L-88.37 -5.597 L-87.95 -4.68 L-87.61 -3.731 L-87.33 -2.758 L-87.14 -1.766 L-87.03 -0.7628 L-87 0.2467 L-87.04 1.256 L-87.17 2.258 L-87.38 3.246 L-87.66 4.216 L-88.02 5.159 L-88.46 6.071 L-88.96 6.946 L-89.53 7.777 L-90.17 8.561 L-90.87 9.291 L-91.62 9.964 L-92.43 10.57 L-93.28 11.12 L-94.17 11.59 L-95.09 12 L-96.05 12.33 L-97.03 12.58 L-98.02 12.75 L-99.03 12.84 L-100 12.86 L-101 12.79 L-102 12.64 L-103 12.42 L-104 12.11 L-104.9 11.73 L-105.8 11.28 L-106.7 10.76 L-107.5 10.17 L-108.3 9.516 L-109 8.804 L-109.7 8.038 L-110.3 7.221 L-110.8 6.36 L-111.2 5.46 L-111.6 4.526 L-111.9 3.564 L-112.2 2.581 L-112.3 1.583 L-112.4 0.5752 L-112.4 -0.4348 L-112.3 -1.441 L-112.1 -2.437 L-111.9 -3.417 L-111.6 -4.374 L-111.2 -5.303 L-110.7 -6.197 L-110.2 -7.05 L-109.6 -7.859 L-108.9 -8.616 L-108.2 -9.318 L-107.4 -9.96 L-106.5 -10.54 L-105.7 -11.05 L-104.8 -11.49 L-103.8 -11.85 L-102.9 -12.14 L-101.9 -12.36 L-100.9 -12.49 L-99.86 -12.54 L-98.85 -12.52 Z " />
<path stroke="rgb(0,0,0)" stroke-opacity="1" fill="rgb(255,255,255)" fill-opacity="1" d="M-412.7 -388.3 L-412.7 -389.3 L-412.7 -390.3 L-412.7 -391.3 L-412.7 -392.3 L-412.7 -393.3 L-412.7 -394.2 L-412.6 -395.2 L-412.6 -396.2 L-412.6 -397.2 L-412.6 -398.2 L-412.6 -399.2 L-412.6 -400.2 L-412.6 -401.1 L-412.6 -402.1 L-412.6 -403.1 L-412.5 -404.1 L-412.5 -405.1 L-412.5 -406.1 L-412.5 -407.1 L-412.5 -408 L-412.5 -409 L-412.5 -410 L-412.5 -411 L-412.4 -412 L-412.4 -413 L-411.4 -413 L-410.5 -412.9 L-409.5 -412.9 L-408.5 -412.9 L-407.5 -412.9 L-406.5 -412.9 L-405.5 -412.9 L-404.5 -412.9 L-403.6 -412.9 L-402.6 -412.9 L-401.6 -412.8 L-400.6 -412.8 L-399.6 -412.8 L-398.6 -412.8 L-397.6 -412.8 L-396.7 -412.8 L-395.7 -412.8 L-394.7 -412.8 L-393.7 -412.7 L-392.7 -412.7 L-391.7 -412.7 L-390.7 -412.7 L-389.8 -412.7 L-388.8 -412.7 L-387.8 -412.7 L-387.8 -411.7 L-387.8 -410.7 L-387.8 -409.7 L-387.8 -408.7 L-387.8 -407.7 L-387.8 -406.8 L-387.9 -405.8 L-387.9 -404.8 L-387.9 -403.8 L-387.9 -402.8 L-387.9 -401.8 L-387.9 -400.8 L-387.9 -399.9 L-387.9 -398.9 L-388 -397.9 L-388 -396.9 L-388 -395.9 L-388 -394.9 L-388 -393.9 L-388 -393 L-388 -392 L-388 -391 L-388.1 -390 L-388.1 -389 L-388.1 -388 L-389.1 -388 L-390 -388 L-391 -388.1 L-392 -388.1 L-393 -388.1 L-394 -388.1 L-395 -388.1 L-396 -388.1 L-397 -388.1 L-397.9 -388.1 L-398.9 -388.2 L-399.9 -388.2 L-400.9 -388.2 L-401.9 -388.2 L-402.9 -388.2 L-403.9 -388.2 L-404.8 -388.2 L-405.8 -388.2 L-406.8 -388.2 L-407.8 -388.3 L-408.8 -388.3 L-409.8 -388.3 L-410.8 -388.3 L-411.7 -388.3 L-412.7 -388.3 Z " />
<path stroke="rgb(0,0,0)" stroke-opacity="1" fill="rgb(255,255,255)" fill-opacity="1" d="M109.5 -13.06 L110.5 -12.28 L111.5 -11.42 L112.4 -10.48 L113.2 -9.478 L113.9 -8.415 L114.6 -7.297 L115.1 -6.133 L115.6 -4.928 L115.9 -3.692 L116.2 -2.431 L116.3 -1.153 L116.4 0.1325 L116.3 1.418 L116.2 2.696 L115.9 3.959 L115.6 5.197 L115.1 6.403 L114.6 7.57 L114 8.69 L113.2 9.756 L112.4 10.76 L111.5 11.7 L110.6 12.57 L109.6 13.35 L108.5 14.06 L107.4 14.67 L106.2 15.2 L105 15.63 L103.7 15.96 L102.5 16.19 L101.2 16.32 L99.91 16.35 L98.62 16.27 L97.35 16.1 L96.09 15.82 L94.86 15.44 L93.66 14.97 L92.51 14.41 L91.4 13.75 L90.35 13.01 L89.36 12.19 L88.44 11.29 L87.59 10.32 L86.82 9.284 L86.14 8.193 L85.55 7.051 L85.05 5.866 L84.64 4.644 L84.34 3.394 L84.13 2.124 L84.03 0.8415 L84.02 -0.4453 L84.12 -1.728 L84.32 -2.999 L84.63 -4.25 L85.03 -5.474 L85.52 -6.661 L86.11 -7.805 L86.79 -8.899 L87.55 -9.936 L88.39 -10.91 L89.31 -11.81 L90.3 -12.64 L91.34 -13.38 L92.45 -14.04 L93.6 -14.62 L94.8 -15.09 L96.03 -15.47 L97.28 -15.75 L98.56 -15.94 L99.84 -16.02 L101.1 -15.99 L102.4 -15.87 L103.7 -15.64 L104.9 -15.31 L106.1 -14.89 L107.3 -14.37 L108.4 -13.76 L109.5 -13.06 Z " />
<path stroke="rgb(0,0,0)" stroke-opacity="1" fill="rgb(255,255,255)" fill-opacity="1" d="M-212.6 -388.2 L-212.6 -389.1 L-212.5 -390.1 L-212.5 -391.1 L-212.5 -392.1 L-212.5 -393.1 L-212.5 -394.1 L-212.5 -395.1 L-212.5 -396 L-212.5 -397 L-212.5 -398 L-212.5 -399 L-212.4 -400 L-212.4 -401 L-212.4 -402 L-212.4 -402.9 L-212.4 -403.9 L-212.4 -404.9 L-212.4 -405.9 L-212.4 -406.9 L-212.4 -407.9 L-212.4 -408.9 L-212.4 -409.8 L-212.3 -410.8 L-212.3 -411.8 L-212.3 -412.8 L-211.3 -412.8 L-210.3 -412.8 L-209.4 -412.8 L-208.4 -412.8 L-207.4 -412.8 L-206.4 -412.7 L-205.4 -412.7 L-204.4 -412.7 L-203.4 -412.7 L-202.5 -412.7 L-201.5 -412.7 L-200.5 -412.7 L-199.5 -412.7 L-198.5 -412.7 L-197.5 -412.7 L-196.5 -412.7 L-195.6 -412.6 L-194.6 -412.6 L-193.6 -412.6 L-192.6 -412.6 L-191.6 -412.6 L-190.6 -412.6 L-189.6 -412.6 L-188.7 -412.6 L-187.7 -412.6 L-187.7 -411.6 L-187.7 -410.6 L-187.7 -409.6 L-187.7 -408.6 L-187.7 -407.6 L-187.7 -406.6 L-187.7 -405.7 L-187.7 -404.7 L-187.8 -403.7 L-187.8 -402.7 L-187.8 -401.7 L-187.8 -400.7 L-187.8 -399.7 L-187.8 -398.8 L-187.8 -397.8 L-187.8 -396.8 L-187.8 -395.8 L-187.8 -394.8 L-187.9 -393.8 L-187.9 -392.8 L-187.9 -391.9 L-187.9 -390.9 L-187.9 -389.9 L-187.9 -388.9 L-187.9 -387.9 L-188.9 -387.9 L-189.9 -387.9 L-190.9 -387.9 L-191.9 -388 L-192.8 -388 L-193.8 -388 L-194.8 -388 L-195.8 -388 L-196.8 -388 L-197.8 -388 L-198.8 -388 L-199.7 -388 L-200.7 -388 L-201.7 -388 L-202.7 -388.1 L-203.7 -388.1 L-204.7 -388.1 L-205.7 -388.1 L-206.6 -388.1 L-207.6 -388.1 L-208.6 -388.1 L-209.6 -388.1 L-210.6 -388.1 L-211.6 -388.1 L-212.6 -388.2 Z " />
<path stroke="rgb(0,0,0)" stroke-opacity="1" fill="rgb(255,255,255)" fill-opacity="1" d="M322.9 -3.35 L323.1 -1.52 L323.2 0.3204 L323.1 2.159 L322.8 3.984 L322.5 5.783 L321.9 7.547 L321.3 9.263 L320.5 10.92 L319.5 12.51 L318.5 14.02 L317.3 15.44 L316 16.77 L314.7 17.99 L313.2 19.09 L311.6 20.08 L310 20.93 L308.3 21.66 L306.6 22.25 L304.8 22.7 L303 23.01 L301.1 23.17 L299.3 23.18 L297.5 23.05 L295.6 22.77 L293.8 22.35 L292.1 21.79 L290.4 21.09 L288.7 20.26 L287.2 19.3 L285.7 18.21 L284.3 17.02 L283 15.71 L281.8 14.31 L280.7 12.82 L279.8 11.24 L278.9 9.596 L278.2 7.891 L277.7 6.136 L277.3 4.342 L277 2.521 L276.9 0.6849 L276.9 -1.156 L277.1 -2.989 L277.4 -4.803 L277.8 -6.586 L278.4 -8.327 L279.2 -10.02 L280 -11.64 L281 -13.19 L282.1 -14.66 L283.4 -16.03 L284.7 -17.31 L286.1 -18.47 L287.6 -19.51 L289.2 -20.44 L290.9 -21.23 L292.6 -21.89 L294.4 -22.41 L296.2 -22.79 L298 -23.02 L299.8 -23.11 L301.7 -23.05 L303.5 -22.84 L305.3 -22.49 L307.1 -22 L308.8 -21.37 L310.5 -20.6 L312.1 -19.71 L313.6 -18.68 L315.1 -17.54 L316.4 -16.29 L317.7 -14.94 L318.8 -13.49 L319.8 -11.95 L320.7 -10.34 L321.5 -8.666 L322.1 -6.934 L322.6 -5.158 L322.9 -3.35 Z " />
<path stroke="rgb(0,0,0)" stroke-opacity="1" fill="rgb(255,255,255)" fill-opacity="1" d="M-715.1 -290.7 L-715.1 -291.7 L-715 -292.7 L-715 -293.7 L-715 -294.7 L-714.9 -295.7 L-714.9 -296.7 L-714.8 -297.6 L-714.8 -298.6 L-714.7 -299.6 L-714.7 -300.6 L-714.7 -301.6 L-714.6 -302.6 L-714.6 -303.5 L-714.5 -304.5 L-714.5 -305.5 L-714.4 -306.5 L-714.4 -307.5 L-714.3 -308.5 L-714.3 -309.5 L-714.3 -310.4 L-714.2 -311.4 L-714.2 -312.4 L-714.1 -313.4 L-714.1 -314.4 L-714 -315.4 L-713.1 -315.3 L-712.1 -315.3 L-711.1 -315.2 L-710.1 -315.2 L-709.1 -315.2 L-708.1 -315.1 L-707.2 -315.1 L-706.2 -315 L-705.2 -315 L-704.2 -314.9 L-703.2 -314.9 L-702.2 -314.9 L-701.2 -314.8 L-700.3 -314.8 L-699.3 -314.7 L-698.3 -314.7 L-697.3 -314.6 L-696.3 -314.6 L-695.3 -314.6 L-694.3 -314.5 L-693.4 -314.5 L-692.4 -314.4 L-691.4 -314.4 L-690.4 -314.3 L-689.4 -314.3 L-689.5 -313.3 L-689.5 -312.3 L-689.5 -311.3 L-689.6 -310.4 L-689.6 -309.4 L-689.7 -308.4 L-689.7 -307.4 L-689.8 -306.4 L-689.8 -305.4 L-689.8 -304.4 L-689.9 -303.5 L-689.9 -302.5 L-690 -301.5 L-690 -300.5 L-690.1 -299.5 L-690.1 -298.5 L-690.2 -297.5 L-690.2 -296.6 L-690.2 -295.6 L-690.3 -294.6 L-690.3 -293.6 L-690.4 -292.6 L-690.4 -291.6 L-690.5 -290.6 L-690.5 -289.7 L-691.5 -289.7 L-692.5 -289.7 L-693.5 -289.8 L-694.4 -289.8 L-695.4 -289.9 L-696.4 -289.9 L-697.4 -290 L-698.4 -290 L-699.4 -290 L-700.3 -290.1 L-701.3 -290.1 L-702.3 -290.2 L-703.3 -290.2 L-704.3 -290.3 L-705.3 -290.3 L-706.3 -290.4 L-707.2 -290.4 L-708.2 -290.4 L-709.2 -290.5 L-710.2 -290.5 L-711.2 -290.6 L-712.2 -290.6 L-713.2 -290.7 L-714.1 -290.7 L-715.1 -290.7 Z " />
<path stroke="rgb(0,0,0)" stroke-opacity="1" fill="rgb(255,255,255)" fill-opacity="1" d="M-198.9 87.48 L-197.8 87.59 L-196.9 87.78 L-195.9 88.04 L-194.9 88.38 L-194 88.8 L-193.1 89.29 L-192.3 89.84 L-191.5 90.47 L-190.7 91.15 L-190.1 91.89 L-189.4 92.68 L-188.9 93.52 L-188.4 94.4 L-188 95.32 L-187.6 96.27 L-187.3 97.24 L-187.1 98.23 L-187 99.24 L-187 100.2 L-187 101.3 L-187.2 102.3 L-187.4 103.2 L-187.7 104.2 L-188 105.2 L-188.5 106.1 L-189 106.9 L-189.5 107.8 L-190.2 108.6 L-190.9 109.3 L-191.6 110 L-192.4 110.6 L-193.3 111.1 L-194.2 111.6 L-195.1 112 L-196 112.3 L-197 112.6 L-198 112.8 L-199 112.8 L-200 112.9 L-201 112.8 L-202 112.6 L-203 112.4 L-204 112.1 L-204.9 111.7 L-205.8 111.3 L-206.7 110.8 L-207.5 110.2 L-208.3 109.5 L-209 108.8 L-209.7 108 L-210.3 107.2 L-210.8 106.4 L-211.2 105.5 L-211.6 104.5 L-211.9 103.6 L-212.2 102.6 L-212.3 101.6 L-212.4 100.6 L-212.4 99.57 L-212.3 98.56 L-212.1 97.56 L-211.9 96.58 L-211.6 95.63 L-211.2 94.7 L-210.7 93.8 L-210.2 92.95 L-209.6 92.14 L-208.9 91.38 L-208.2 90.68 L-207.4 90.04 L-206.5 89.46 L-205.7 88.95 L-204.8 88.51 L-203.8 88.15 L-202.9 87.86 L-201.9 87.64 L-200.9 87.51 L-199.9 87.46 L-198.9 87.48 Z " />
<path stroke="rgb(0,0,0)" stroke-opacity="1" fill="rgb(255,255,255)" fill-opacity="1" d="M-512.7 -288.3 L-512.7 -289.3 L-512.7 -290.3 L-512.7 -291.3 L-512.7 -292.3 L-512.7 -293.3 L-512.7 -294.2 L-512.6 -295.2 L-512.6 -296.2 L-512.6 -297.2 L-512.6 -298.2 L-512.6 -299.2 L-512.6 -300.2 L-512.6 -301.1 L-512.6 -302.1 L-512.6 -303.1 L-512.5 -304.1 L-512.5 -305.1 L-512.5 -306.1 L-512.5 -307.1 L-512.5 -308 L-512.5 -309 L-512.5 -310 L-512.5 -311 L-512.4 -312 L-512.4 -313 L-511.4 -313 L-510.5 -312.9 L-509.5 -312.9 L-508.5 -312.9 L-507.5 -312.9 L-506.5 -312.9 L-505.5 -312.9 L-504.5 -312.9 L-503.6 -312.9 L-502.6 -312.9 L-501.6 -312.8 L-500.6 -312.8 L-499.6 -312.8 L-498.6 -312.8 L-497.6 -312.8 L-496.7 -312.8 L-495.7 -312.8 L-494.7 -312.8 L-493.7 -312.7 L-492.7 -312.7 L-491.7 -312.7 L-490.7 -312.7 L-489.8 -312.7 L-488.8 -312.7 L-487.8 -312.7 L-487.8 -311.7 L-487.8 -310.7 L-487.8 -309.7 L-487.8 -308.7 L-487.8 -307.7 L-487.8 -306.8 L-487.9 -305.8 L-487.9 -304.8 L-487.9 -303.8 L-487.9 -302.8 L-487.9 -301.8 L-487.9 -300.8 L-487.9 -299.9 L-487.9 -298.9 L-488 -297.9 L-488 -296.9 L-488 -295.9 L-488 -294.9 L-488 -293.9 L-488 -293 L-488 -292 L-488 -291 L-488.1 -290 L-488.1 -289 L-488.1 -288 L-489.1 -288 L-490 -288 L-491 -288.1 L-492 -288.1 L-493 -288.1 L-494 -288.1 L-495 -288.1 L-496 -288.1 L-497 -288.1 L-497.9 -288.1 L-498.9 -288.2 L-499.9 -288.2 L-500.9 -288.2 L-501.9 -288.2 L-502.9 -288.2 L-503.9 -288.2 L-504.8 -288.2 L-505.8 -288.2 L-506.8 -288.2 L-507.8 -288.3 L-508.8 -288.3 L-509.8 -288.3 L-510.8 -288.3 L-511.7 -288.3 L-512.7 -288.3 Z " />
<path stroke="rgb(0,0,0)" stroke-opacity="1" fill="rgb(255,255,255)" fill-opacity="1" d="M9.525 86.94 L10.55 87.72 L11.5 88.58 L12.39 89.52 L13.19 90.52 L13.92 91.59 L14.56 92.7 L15.1 93.87 L15.56 95.07 L15.91 96.31 L16.17 97.57 L16.33 98.85 L16.38 100.1 L16.33 101.4 L16.18 102.7 L15.93 104 L15.58 105.2 L15.13 106.4 L14.59 107.6 L13.95 108.7 L13.23 109.8 L12.43 110.8 L11.55 111.7 L10.6 112.6 L9.579 113.4 L8.501 114.1 L7.372 114.7 L6.196 115.2 L4.983 115.6 L3.74 116 L2.474 116.2 L1.193 116.3 L-0.09308 116.3 L-1.378 116.3 L-2.653 116.1 L-3.909 115.8 L-5.14 115.4 L-6.337 115 L-7.493 114.4 L-8.6 113.8 L-9.652 113 L-10.64 112.2 L-11.56 111.3 L-12.41 110.3 L-13.18 109.3 L-13.86 108.2 L-14.45 107.1 L-14.95 105.9 L-15.36 104.6 L-15.66 103.4 L-15.87 102.1 L-15.97 100.8 L-15.98 99.55 L-15.88 98.27 L-15.68 97 L-15.37 95.75 L-14.97 94.53 L-14.48 93.34 L-13.89 92.19 L-13.21 91.1 L-12.45 90.06 L-11.61 89.09 L-10.69 88.19 L-9.704 87.36 L-8.655 86.62 L-7.551 85.96 L-6.397 85.38 L-5.202 84.91 L-3.973 84.53 L-2.717 84.25 L-1.443 84.06 L-0.1587 83.98 L1.128 84.01 L2.409 84.13 L3.676 84.36 L4.92 84.69 L6.135 85.11 L7.313 85.63 L8.445 86.24 L9.525 86.94 Z " />
<path stroke="rgb(0,0,0)" stroke-opacity="1" fill="rgb(255,255,255)" fill-opacity="1" d="M-312.6 -288.2 L-312.6 -289.1 L-312.5 -290.1 L-312.5 -291.1 L-312.5 -292.1 L-312.5 -293.1 L-312.5 -294.1 L-312.5 -295.1 L-312.5 -296 L-312.5 -297 L-312.5 -298 L-312.5 -299 L-312.4 -300 L-312.4 -301 L-312.4 -302 L-312.4 -302.9 L-312.4 -303.9 L-312.4 -304.9 L-312.4 -305.9 L-312.4 -306.9 L-312.4 -307.9 L-312.4 -308.9 L-312.4 -309.8 L-312.3 -310.8 L-312.3 -311.8 L-312.3 -312.8 L-311.3 -312.8 L-310.3 -312.8 L-309.4 -312.8 L-308.4 -312.8 L-307.4 -312.8 L-306.4 -312.7 L-305.4 -312.7 L-304.4 -312.7 L-303.4 -312.7 L-302.5 -312.7 L-301.5 -312.7 L-300.5 -312.7 L-299.5 -312.7 L-298.5 -312.7 L-297.5 -312.7 L-296.5 -312.7 L-295.6 -312.6 L-294.6 -312.6 L-293.6 -312.6 L-292.6 -312.6 L-291.6 -312.6 L-290.6 -312.6 L-289.6 -312.6 L-288.7 -312.6 L-287.7 -312.6 L-287.7 -311.6 L-287.7 -310.6 L-287.7 -309.6 L-287.7 -308.6 L-287.7 -307.6 L-287.7 -306.6 L-287.7 -305.7 L-287.7 -304.7 L-287.8 -303.7 L-287.8 -302.7 L-287.8 -301.7 L-287.8 -300.7 L-287.8 -299.7 L-287.8 -298.8 L-287.8 -297.8 L-287.8 -296.8 L-287.8 -295.8 L-287.8 -294.8 L-287.9 -293.8 L-287.9 -292.8 L-287.9 -291.9 L-287.9 -290.9 L-287.9 -289.9 L-287.9 -288.9 L-287.9 -287.9 L-288.9 -287.9 L-289.9 -287.9 L-290.9 -287.9 L-291.9 -288 L-292.8 -288 L-293.8 -288 L-294.8 -288 L-295.8 -288 L-296.8 -288 L-297.8 -288 L-298.8 -288 L-299.7 -288 L-300.7 -288 L-301.7 -288 L-302.7 -288.1 L-303.7 -288.1 L-304.7 -288.1 L-305.7 -288.1 L-306.6 -288.1 L-307.6 -288.1 L-308.6 -288.1 L-309.6 -288.1 L-310.6 -288.1 L-311.6 -288.1 L-312.6 -288.2 Z " />
<path stroke="rgb(0,0,0)" stroke-opacity="1" fill="rgb(255,255,255)" fill-opacity="1" d="M222.9 96.65 L223.1 98.48 L223.2 100.3 L223.1 102.2 L222.8 104 L222.5 105.8 L221.9 107.5 L221.3 109.3 L220.5 110.9 L219.5 112.5 L218.5 114 L217.3 115.4 L216 116.8 L214.7 118 L213.2 119.1 L211.6 120.1 L210 120.9 L208.3 121.7 L206.6 122.3 L204.8 122.7 L203 123 L201.1 123.2 L199.3 123.2 L197.5 123 L195.6 122.8 L193.8 122.4 L192.1 121.8 L190.4 121.1 L188.7 120.3 L187.2 119.3 L185.7 118.2 L184.3 117 L183 115.7 L181.8 114.3 L180.7 112.8 L179.8 111.2 L178.9 109.6 L178.2 107.9 L177.7 106.1 L177.3 104.3 L177 102.5 L176.9 100.7 L176.9 98.84 L177.1 97.01 L177.4 95.2 L177.8 93.41 L178.4 91.67 L179.2 89.98 L180 88.36 L181 86.81 L182.1 85.34 L183.4 83.97 L184.7 82.69 L186.1 81.53 L187.6 80.49 L189.2 79.56 L190.9 78.77 L192.6 78.11 L194.4 77.59 L196.2 77.21 L198 76.98 L199.8 76.89 L201.7 76.95 L203.5 77.16 L205.3 77.51 L207.1 78 L208.8 78.63 L210.5 79.4 L212.1 80.29 L213.6 81.32 L215.1 82.46 L216.4 83.71 L217.7 85.06 L218.8 86.51 L219.8 88.05 L220.7 89.66 L221.5 91.33 L222.1 93.07 L222.6 94.84 L222.9 96.65 Z " />
<path stroke="rgb(0,0,0)" stroke-opacity="1" fill="rgb(255,255,255)" fill-opacity="1" d="M-112.6 -288.2 L-112.6 -289.1 L-112.5 -290.1 L-112.5 -291.1 L-112.5 -292.1 L-112.5 -293.1 L-112.5 -294.1 L-112.5 -295.1 L-112.5 -296 L-112.5 -297 L-112.5 -298 L-112.5 -299 L-112.4 -300 L-112.4 -301 L-112.4 -302 L-112.4 -302.9 L-112.4 -303.9 L-112.4 -304.9 L-112.4 -305.9 L-112.4 -306.9 L-112.4 -307.9 L-112.4 -308.9 L-112.4 -309.8 L-112.3 -310.8 L-112.3 -311.8 L-112.3 -312.8 L-111.3 -312.8 L-110.3 -312.8 L-109.4 -312.8 L-108.4 -312.8 L-107.4 -312.8 L-106.4 -312.7 L-105.4 -312.7 L-104.4 -312.7 L-103.4 -312.7 L-102.5 -312.7 L-101.5 -312.7 L-100.5 -312.7 L-99.5 -312.7 L-98.51 -312.7 L-97.53 -312.7 L-96.54 -312.7 L-95.56 -312.6 L-94.57 -312.6 L-93.58 -312.6 L-92.6 -312.6 L-91.61 -312.6 L-90.63 -312.6 L-89.64 -312.6 L-88.65 -312.6 L-87.67 -312.6 L-87.68 -311.6 L-87.69 -310.6 L-87.7 -309.6 L-87.71 -308.6 L-87.72 -307.6 L-87.73 -306.6 L-87.74 -305.7 L-87.74 -304.7 L-87.75 -303.7 L-87.76 -302.7 L-87.77 -301.7 L-87.78 -300.7 L-87.79 -299.7 L-87.8 -298.8 L-87.81 -297.8 L-87.82 -296.8 L-87.83 -295.8 L-87.84 -294.8 L-87.85 -293.8 L-87.86 -292.8 L-87.87 -291.9 L-87.88 -290.9 L-87.89 -289.9 L-87.9 -288.9 L-87.91 -287.9 L-88.9 -287.9 L-89.88 -287.9 L-90.87 -287.9 L-91.85 -288 L-92.84 -288 L-93.83 -288 L-94.81 -288 L-95.8 -288 L-96.79 -288 L-97.77 -288 L-98.76 -288 L-99.74 -288 L-100.7 -288 L-101.7 -288 L-102.7 -288.1 L-103.7 -288.1 L-104.7 -288.1 L-105.7 -288.1 L-106.6 -288.1 L-107.6 -288.1 L-108.6 -288.1 L-109.6 -288.1 L-110.6 -288.1 L-111.6 -288.1 L-112.6 -288.2 Z " />
<path stroke="rgb(0,0,0)" stroke-opacity="1" fill="rgb(255,255,255)" fill-opacity="1" d="M-298.9 187.5 L-297.8 187.6 L-296.9 187.8 L-295.9 188 L-294.9 188.4 L-294 188.8 L-293.1 189.3 L-292.3 189.8 L-291.5 190.5 L-290.7 191.1 L-290.1 191.9 L-289.4 192.7 L-288.9 193.5 L-288.4 194.4 L-288 195.3 L-287.6 196.3 L-287.3 197.2 L-287.1 198.2 L-287 199.2 L-287 200.2 L-287 201.3 L-287.2 202.3 L-287.4 203.2 L-287.7 204.2 L-288 205.2 L-288.5 206.1 L-289 206.9 L-289.5 207.8 L-290.2 208.6 L-290.9 209.3 L-291.6 210 L-292.4 210.6 L-293.3 211.1 L-294.2 211.6 L-295.1 212 L-296 212.3 L-297 212.6 L-298 212.8 L-299 212.8 L-300 212.9 L-301 212.8 L-302 212.6 L-303 212.4 L-304 212.1 L-304.9 211.7 L-305.8 211.3 L-306.7 210.8 L-307.5 210.2 L-308.3 209.5 L-309 208.8 L-309.7 208 L-310.3 207.2 L-310.8 206.4 L-311.2 205.5 L-311.6 204.5 L-311.9 203.6 L-312.2 202.6 L-312.3 201.6 L-312.4 200.6 L-312.4 199.6 L-312.3 198.6 L-312.1 197.6 L-311.9 196.6 L-311.6 195.6 L-311.2 194.7 L-310.7 193.8 L-310.2 192.9 L-309.6 192.1 L-308.9 191.4 L-308.2 190.7 L-307.4 190 L-306.5 189.5 L-305.7 189 L-304.8 188.5 L-303.8 188.1 L-302.9 187.9 L-301.9 187.6 L-300.9 187.5 L-299.9 187.5 L-298.9 187.5 Z " />
<path stroke="rgb(0,0,0)" stroke-opacity="1" fill="rgb(255,255,255)" fill-opacity="1" d="M-612.7 -188.3 L-612.7 -189.3 L-612.7 -190.3 L-612.7 -191.3 L-612.7 -192.3 L-612.7 -193.3 L-612.7 -194.2 L-612.6 -195.2 L-612.6 -196.2 L-612.6 -197.2 L-612.6 -198.2 L-612.6 -199.2 L-612.6 -200.2 L-612.6 -201.1 L-612.6 -202.1 L-612.6 -203.1 L-612.5 -204.1 L-612.5 -205.1 L-612.5 -206.1 L-612.5 -207.1 L-612.5 -208 L-612.5 -209 L-612.5 -210 L-612.5 -211 L-612.4 -212 L-612.4 -213 L-611.4 -213 L-610.5 -212.9 L-609.5 -212.9 L-608.5 -212.9 L-607.5 -212.9 L-606.5 -212.9 L-605.5 -212.9 L-604.5 -212.9 L-603.6 -212.9 L-602.6 -212.9 L-601.6 -212.8 L-600.6 -212.8 L-599.6 -212.8 L-598.6 -212.8 L-597.6 -212.8 L-596.7 -212.8 L-595.7 -212.8 L-594.7 -212.8 L-593.7 -212.7 L-592.7 -212.7 L-591.7 -212.7 L-590.7 -212.7 L-589.8 -212.7 L-588.8 -212.7 L-587.8 -212.7 L-587.8 -211.7 L-587.8 -210.7 L-587.8 -209.7 L-587.8 -208.7 L-587.8 -207.7 L-587.8 -206.8 L-587.9 -205.8 L-587.9 -204.8 L-587.9 -203.8 L-587.9 -202.8 L-587.9 -201.8 L-587.9 -200.8 L-587.9 -199.9 L-587.9 -198.9 L-588 -197.9 L-588 -196.9 L-588 -195.9 L-588 -194.9 L-588 -193.9 L-588 -193 L-588 -192 L-588 -191 L-588.1 -190 L-588.1 -189 L-588.1 -188 L-589.1 -188 L-590 -188 L-591 -188.1 L-592 -188.1 L-593 -188.1 L-594 -188.1 L-595 -188.1 L-596 -188.1 L-597 -188.1 L-597.9 -188.1 L-598.9 -188.2 L-599.9 -188.2 L-600.9 -188.2 L-601.9 -188.2 L-602.9 -188.2 L-603.9 -188.2 L-604.8 -188.2 L-605.8 -188.2 L-606.8 -188.2 L-607.8 -188.3 L-608.8 -188.3 L-609.8 -188.3 L-610.8 -188.3 L-611.7 -188.3 L-612.7 -188.3 Z " />
<path stroke="rgb(0,0,0)" stroke-opacity="1" fill="rgb(255,255,255)" fill-opacity="1" d="M-90.47 186.9 L-89.45 187.7 L-88.5 188.6 L-87.61 189.5 L-86.81 190.5 L-86.08 191.6 L-85.44 192.7 L-84.9 193.9 L-84.44 195.1 L-84.09 196.3 L-83.83 197.6 L-83.67 198.8 L-83.62 200.1 L-83.67 201.4 L-83.82 202.7 L-84.07 204 L-84.42 205.2 L-84.87 206.4 L-85.41 207.6 L-86.05 208.7 L-86.77 209.8 L-87.57 210.8 L-88.45 211.7 L-89.4 212.6 L-90.42 213.4 L-91.5 214.1 L-92.63 214.7 L-93.8 215.2 L-95.02 215.6 L-96.26 216 L-97.53 216.2 L-98.81 216.3 L-100.1 216.3 L-101.4 216.3 L-102.7 216.1 L-103.9 215.8 L-105.1 215.4 L-106.3 215 L-107.5 214.4 L-108.6 213.8 L-109.7 213 L-110.6 212.2 L-111.6 211.3 L-112.4 210.3 L-113.2 209.3 L-113.9 208.2 L-114.5 207.1 L-115 205.9 L-115.4 204.6 L-115.7 203.4 L-115.9 202.1 L-116 200.8 L-116 199.6 L-115.9 198.3 L-115.7 197 L-115.4 195.7 L-115 194.5 L-114.5 193.3 L-113.9 192.2 L-113.2 191.1 L-112.4 190.1 L-111.6 189.1 L-110.7 188.2 L-109.7 187.4 L-108.7 186.6 L-107.6 186 L-106.4 185.4 L-105.2 184.9 L-104 184.5 L-102.7 184.2 L-101.4 184.1 L-100.2 184 L-98.87 184 L-97.59 184.1 L-96.32 184.4 L-95.08 184.7 L-93.86 185.1 L-92.69 185.6 L-91.55 186.2 L-90.47 186.9 Z " />
<path stroke="rgb(0,0,0)" stroke-opacity="1" fill="rgb(255,255,255)" fill-opacity="1" d="M-412.6 -188.2 L-412.6 -189.1 L-412.5 -190.1 L-412.5 -191.1 L-412.5 -192.1 L-412.5 -193.1 L-412.5 -194.1 L-412.5 -195.1 L-412.5 -196 L-412.5 -197 L-412.5 -198 L-412.5 -199 L-412.4 -200 L-412.4 -201 L-412.4 -202 L-412.4 -202.9 L-412.4 -203.9 L-412.4 -204.9 L-412.4 -205.9 L-412.4 -206.9 L-412.4 -207.9 L-412.4 -208.9 L-412.4 -209.8 L-412.3 -210.8 L-412.3 -211.8 L-412.3 -212.8 L-411.3 -212.8 L-410.3 -212.8 L-409.4 -212.8 L-408.4 -212.8 L-407.4 -212.8 L-406.4 -212.7 L-405.4 -212.7 L-404.4 -212.7 L-403.4 -212.7 L-402.5 -212.7 L-401.5 -212.7 L-400.5 -212.7 L-399.5 -212.7 L-398.5 -212.7 L-397.5 -212.7 L-396.5 -212.7 L-395.6 -212.6 L-394.6 -212.6 L-393.6 -212.6 L-392.6 -212.6 L-391.6 -212.6 L-390.6 -212.6 L-389.6 -212.6 L-388.7 -212.6 L-387.7 -212.6 L-387.7 -211.6 L-387.7 -210.6 L-387.7 -209.6 L-387.7 -208.6 L-387.7 -207.6 L-387.7 -206.6 L-387.7 -205.7 L-387.7 -204.7 L-387.8 -203.7 L-387.8 -202.7 L-387.8 -201.7 L-387.8 -200.7 L-387.8 -199.7 L-387.8 -198.8 L-387.8 -197.8 L-387.8 -196.8 L-387.8 -195.8 L-387.8 -194.8 L-387.9 -193.8 L-387.9 -192.8 L-387.9 -191.9 L-387.9 -190.9 L-387.9 -189.9 L-387.9 -188.9 L-387.9 -187.9 L-388.9 -187.9 L-389.9 -187.9 L-390.9 -187.9 L-391.9 -188 L-392.8 -188 L-393.8 -188 L-394.8 -188 L-395.8 -188 L-396.8 -188 L-397.8 -188 L-398.8 -188 L-399.7 -188 L-400.7 -188 L-401.7 -188 L-402.7 -188.1 L-403.7 -188.1 L-404.7 -188.1 L-405.7 -188.1 L-406.6 -188.1 L-407.6 -188.1 L-408.6 -188.1 L-409.6 -188.1 L-410.6 -188.1 L-411.6 -188.1 L-412.6 -188.2 Z " />
<path stroke="rgb(0,0,0)" stroke-opacity="1" fill="rgb(255,255,255)" fill-opacity="1" d="M122.9 196.7 L123.1 198.5 L123.2 200.3 L123.1 202.2 L122.8 204 L122.5 205.8 L121.9 207.5 L121.3 209.3 L120.5 210.9 L119.5 212.5 L118.5 214 L117.3 215.4 L116 216.8 L114.7 218 L113.2 219.1 L111.6 220.1 L110 220.9 L108.3 221.7 L106.6 222.3 L104.8 222.7 L103 223 L101.1 223.2 L99.29 223.2 L97.45 223 L95.63 222.8 L93.84 222.4 L92.09 221.8 L90.39 221.1 L88.74 220.3 L87.17 219.3 L85.68 218.2 L84.29 217 L82.99 215.7 L81.8 214.3 L80.72 212.8 L79.77 211.2 L78.94 209.6 L78.25 207.9 L77.69 206.1 L77.28 204.3 L77.01 202.5 L76.89 200.7 L76.91 198.8 L77.08 197 L77.39 195.2 L77.85 193.4 L78.44 191.7 L79.18 190 L80.04 188.4 L81.03 186.8 L82.14 185.3 L83.37 184 L84.7 182.7 L86.12 181.5 L87.64 180.5 L89.23 179.6 L90.89 178.8 L92.61 178.1 L94.38 177.6 L96.18 177.2 L98.01 177 L99.84 176.9 L101.7 177 L103.5 177.2 L105.3 177.5 L107.1 178 L108.8 178.6 L110.5 179.4 L112.1 180.3 L113.6 181.3 L115.1 182.5 L116.4 183.7 L117.7 185.1 L118.8 186.5 L119.8 188 L120.7 189.7 L121.5 191.3 L122.1 193.1 L122.6 194.8 L122.9 196.7 Z " />
<path stroke="rgb(0,0,0)" stroke-opacity="1" fill="rgb(255,255,255)" fill-opacity="1" d="M-212.6 -188.2 L-212.6 -189.1 L-212.5 -190.1 L-212.5 -191.1 L-212.5 -192.1 L-212.5 -193.1 L-212.5 -194.1 L-212.5 -195.1 L-212.5 -196 L-212.5 -197 L-212.5 -198 L-212.5 -199 L-212.4 -200 L-212.4 -201 L-212.4 -202 L-212.4 -202.9 L-212.4 -203.9 L-212.4 -204.9 L-212.4 -205.9 L-212.4 -206.9 L-212.4 -207.9 L-212.4 -208.9 L-212.4 -209.8 L-212.3 -210.8 L-212.3 -211.8 L-212.3 -212.8 L-211.3 -212.8 L-210.3 -212.8 L-209.4 -212.8 L-208.4 -212.8 L-207.4 -212.8 L-206.4 -212.7 L-205.4 -212.7 L-204.4 -212.7 L-203.4 -212.7 L-202.5 -212.7 L-201.5 -212.7 L-200.5 -212.7 L-199.5 -212.7 L-198.5 -212.7 L-197.5 -212.7 L-196.5 -212.7 L-195.6 -212.6 L-194.6 -212.6 L-193.6 -212.6 L-192.6 -212.6 L-191.6 -212.6 L-190.6 -212.6 L-189.6 -212.6 L-188.7 -212.6 L-187.7 -212.6 L-187.7 -211.6 L-187.7 -210.6 L-187.7 -209.6 L-187.7 -208.6 L-187.7 -207.6 L-187.7 -206.6 L-187.7 -205.7 L-187.7 -204.7 L-187.8 -203.7 L-187.8 -202.7 L-187.8 -201.7 L-187.8 -200.7 L-187.8 -199.7 L-187.8 -198.8 L-187.8 -197.8 L-187.8 -196.8 L-187.8 -195.8 L-187.8 -194.8 L-187.9 -193.8 L-187.9 -192.8 L-187.9 -191.9 L-187.9 -190.9 L-187.9 -189.9 L-187.9 -188.9 L-187.9 -187.9 L-188.9 -187.9 L-189.9 -187.9 L-190.9 -187.9 L-191.9 -188 L-192.8 -188 L-193.8 -188 L-194.8 -188 L-195.8 -188 L-196.8 -188 L-197.8 -188 L-198.8 -188 L-199.7 -188 L-200.7 -188 L-201.7 -188 L-202.7 -188.1 L-203.7 -188.1 L-204.7 -188.1 L-205.7 -188.1 L-206.6 -188.1 L-207.6 -188.1 L-208.6 -188.1 L-209.6 -188.1 L-210.6 -188.1 L-211.6 -188.1 L-212.6 -188.2 Z " />
<path stroke="rgb(0,0,0)" stroke-opacity="1" fill="rgb(255,255,255)" fill-opacity="1" d="M324.8 200.2 L324.7 202.2 L324.5 204.1 L324 206.1 L323.5 207.9 L322.8 209.8 L321.9 211.6 L320.9 213.3 L319.8 214.9 L318.6 216.4 L317.2 217.8 L315.7 219.2 L314.2 220.3 L312.5 221.4 L310.8 222.3 L309 223.1 L307.1 223.8 L305.2 224.2 L303.2 224.6 L301.3 224.8 L299.3 224.8 L297.3 224.6 L295.4 224.4 L293.5 223.9 L291.6 223.3 L289.8 222.6 L288 221.7 L286.3 220.7 L284.7 219.5 L283.2 218.2 L281.8 216.8 L280.5 215.4 L279.4 213.8 L278.3 212.1 L277.5 210.3 L276.7 208.5 L276.1 206.6 L275.7 204.7 L275.4 202.7 L275.2 200.8 L275.2 198.8 L275.4 196.8 L275.7 194.9 L276.2 193 L276.9 191.1 L277.6 189.3 L278.5 187.6 L279.6 185.9 L280.8 184.3 L282.1 182.8 L283.5 181.5 L285 180.2 L286.7 179.1 L288.4 178.1 L290.1 177.2 L292 176.5 L293.9 176 L295.8 175.6 L297.7 175.3 L299.7 175.2 L301.7 175.3 L303.6 175.5 L305.6 175.8 L307.5 176.4 L309.3 177 L311.1 177.8 L312.9 178.8 L314.5 179.9 L316.1 181.1 L317.5 182.4 L318.8 183.9 L320.1 185.4 L321.2 187.1 L322.1 188.8 L322.9 190.6 L323.6 192.4 L324.1 194.3 L324.5 196.3 L324.7 198.2 L324.8 200.2 Z " />
<path stroke="rgb(0,0,0)" stroke-opacity="1" fill="rgb(255,255,255)" fill-opacity="1" d="M-712.7 -88.32 L-712.7 -89.31 L-712.7 -90.29 L-712.7 -91.28 L-712.7 -92.26 L-712.7 -93.25 L-712.7 -94.24 L-712.6 -95.22 L-712.6 -96.21 L-712.6 -97.19 L-712.6 -98.18 L-712.6 -99.17 L-712.6 -100.2 L-712.6 -101.1 L-712.6 -102.1 L-712.6 -103.1 L-712.5 -104.1 L-712.5 -105.1 L-712.5 -106.1 L-712.5 -107.1 L-712.5 -108 L-712.5 -109 L-712.5 -110 L-712.5 -111 L-712.4 -112 L-712.4 -113 L-711.4 -113 L-710.5 -112.9 L-709.5 -112.9 L-708.5 -112.9 L-707.5 -112.9 L-706.5 -112.9 L-705.5 -112.9 L-704.5 -112.9 L-703.6 -112.9 L-702.6 -112.9 L-701.6 -112.8 L-700.6 -112.8 L-699.6 -112.8 L-698.6 -112.8 L-697.6 -112.8 L-696.7 -112.8 L-695.7 -112.8 L-694.7 -112.8 L-693.7 -112.7 L-692.7 -112.7 L-691.7 -112.7 L-690.7 -112.7 L-689.8 -112.7 L-688.8 -112.7 L-687.8 -112.7 L-687.8 -111.7 L-687.8 -110.7 L-687.8 -109.7 L-687.8 -108.7 L-687.8 -107.7 L-687.8 -106.8 L-687.9 -105.8 L-687.9 -104.8 L-687.9 -103.8 L-687.9 -102.8 L-687.9 -101.8 L-687.9 -100.8 L-687.9 -99.86 L-687.9 -98.87 L-688 -97.88 L-688 -96.9 L-688 -95.91 L-688 -94.93 L-688 -93.94 L-688 -92.95 L-688 -91.97 L-688 -90.98 L-688.1 -89.99 L-688.1 -89.01 L-688.1 -88.02 L-689.1 -88.03 L-690 -88.05 L-691 -88.06 L-692 -88.07 L-693 -88.08 L-694 -88.09 L-695 -88.11 L-696 -88.12 L-697 -88.13 L-697.9 -88.14 L-698.9 -88.15 L-699.9 -88.17 L-700.9 -88.18 L-701.9 -88.19 L-702.9 -88.2 L-703.9 -88.21 L-704.8 -88.22 L-705.8 -88.24 L-706.8 -88.25 L-707.8 -88.26 L-708.8 -88.27 L-709.8 -88.28 L-710.8 -88.3 L-711.7 -88.31 L-712.7 -88.32 Z " />
<path stroke="rgb(0,0,0)" stroke-opacity="1" fill="rgb(255,255,255)" fill-opacity="1" d="M-190.5 286.9 L-189.5 287.7 L-188.5 288.6 L-187.6 289.5 L-186.8 290.5 L-186.1 291.6 L-185.4 292.7 L-184.9 293.9 L-184.4 295.1 L-184.1 296.3 L-183.8 297.6 L-183.7 298.8 L-183.6 300.1 L-183.7 301.4 L-183.8 302.7 L-184.1 304 L-184.4 305.2 L-184.9 306.4 L-185.4 307.6 L-186 308.7 L-186.8 309.8 L-187.6 310.8 L-188.5 311.7 L-189.4 312.6 L-190.4 313.4 L-191.5 314.1 L-192.6 314.7 L-193.8 315.2 L-195 315.6 L-196.3 316 L-197.5 316.2 L-198.8 316.3 L-200.1 316.3 L-201.4 316.3 L-202.7 316.1 L-203.9 315.8 L-205.1 315.4 L-206.3 315 L-207.5 314.4 L-208.6 313.8 L-209.7 313 L-210.6 312.2 L-211.6 311.3 L-212.4 310.3 L-213.2 309.3 L-213.9 308.2 L-214.5 307.1 L-215 305.9 L-215.4 304.6 L-215.7 303.4 L-215.9 302.1 L-216 300.8 L-216 299.6 L-215.9 298.3 L-215.7 297 L-215.4 295.7 L-215 294.5 L-214.5 293.3 L-213.9 292.2 L-213.2 291.1 L-212.4 290.1 L-211.6 289.1 L-210.7 288.2 L-209.7 287.4 L-208.7 286.6 L-207.6 286 L-206.4 285.4 L-205.2 284.9 L-204 284.5 L-202.7 284.2 L-201.4 284.1 L-200.2 284 L-198.9 284 L-197.6 284.1 L-196.3 284.4 L-195.1 284.7 L-193.9 285.1 L-192.7 285.6 L-191.6 286.2 L-190.5 286.9 Z " />
<path stroke="rgb(0,0,0)" stroke-opacity="1" fill="rgb(255,255,255)" fill-opacity="1" d="M-512.6 -88.15 L-512.6 -89.14 L-512.5 -90.13 L-512.5 -91.11 L-512.5 -92.1 L-512.5 -93.09 L-512.5 -94.07 L-512.5 -95.06 L-512.5 -96.04 L-512.5 -97.03 L-512.5 -98.02 L-512.5 -99 L-512.4 -99.99 L-512.4 -101 L-512.4 -102 L-512.4 -102.9 L-512.4 -103.9 L-512.4 -104.9 L-512.4 -105.9 L-512.4 -106.9 L-512.4 -107.9 L-512.4 -108.9 L-512.4 -109.8 L-512.3 -110.8 L-512.3 -111.8 L-512.3 -112.8 L-511.3 -112.8 L-510.3 -112.8 L-509.4 -112.8 L-508.4 -112.8 L-507.4 -112.8 L-506.4 -112.7 L-505.4 -112.7 L-504.4 -112.7 L-503.4 -112.7 L-502.5 -112.7 L-501.5 -112.7 L-500.5 -112.7 L-499.5 -112.7 L-498.5 -112.7 L-497.5 -112.7 L-496.5 -112.7 L-495.6 -112.6 L-494.6 -112.6 L-493.6 -112.6 L-492.6 -112.6 L-491.6 -112.6 L-490.6 -112.6 L-489.6 -112.6 L-488.7 -112.6 L-487.7 -112.6 L-487.7 -111.6 L-487.7 -110.6 L-487.7 -109.6 L-487.7 -108.6 L-487.7 -107.6 L-487.7 -106.6 L-487.7 -105.7 L-487.7 -104.7 L-487.8 -103.7 L-487.8 -102.7 L-487.8 -101.7 L-487.8 -100.7 L-487.8 -99.75 L-487.8 -98.76 L-487.8 -97.77 L-487.8 -96.79 L-487.8 -95.8 L-487.8 -94.81 L-487.9 -93.83 L-487.9 -92.84 L-487.9 -91.86 L-487.9 -90.87 L-487.9 -89.88 L-487.9 -88.9 L-487.9 -87.91 L-488.9 -87.92 L-489.9 -87.93 L-490.9 -87.94 L-491.9 -87.95 L-492.8 -87.96 L-493.8 -87.97 L-494.8 -87.98 L-495.8 -87.99 L-496.8 -88 L-497.8 -88.01 L-498.8 -88.02 L-499.7 -88.03 L-500.7 -88.04 L-501.7 -88.05 L-502.7 -88.06 L-503.7 -88.07 L-504.7 -88.08 L-505.7 -88.09 L-506.6 -88.1 L-507.6 -88.11 L-508.6 -88.12 L-509.6 -88.13 L-510.6 -88.13 L-511.6 -88.14 L-512.6 -88.15 Z " />
<path stroke="rgb(0,0,0)" stroke-opacity="1" fill="rgb(255,255,255)" fill-opacity="1" d="M22.93 296.7 L23.12 298.5 L23.17 300.3 L23.08 302.2 L22.84 304 L22.45 305.8 L21.93 307.5 L21.26 309.3 L20.46 310.9 L19.53 312.5 L18.48 314 L17.31 315.4 L16.03 316.8 L14.65 318 L13.18 319.1 L11.63 320.1 L9.998 320.9 L8.306 321.7 L6.563 322.3 L4.777 322.7 L2.962 323 L1.129 323.2 L-0.712 323.2 L-2.548 323 L-4.368 322.8 L-6.16 322.4 L-7.912 321.8 L-9.615 321.1 L-11.26 320.3 L-12.83 319.3 L-14.32 318.2 L-15.71 317 L-17.01 315.7 L-18.2 314.3 L-19.28 312.8 L-20.23 311.2 L-21.06 309.6 L-21.75 307.9 L-22.31 306.1 L-22.72 304.3 L-22.99 302.5 L-23.11 300.7 L-23.09 298.8 L-22.92 297 L-22.61 295.2 L-22.15 293.4 L-21.56 291.7 L-20.82 290 L-19.96 288.4 L-18.97 286.8 L-17.86 285.3 L-16.63 284 L-15.3 282.7 L-13.88 281.5 L-12.36 280.5 L-10.77 279.6 L-9.107 278.8 L-7.388 278.1 L-5.622 277.6 L-3.82 277.2 L-1.995 277 L-0.156 276.9 L1.684 277 L3.513 277.2 L5.32 277.5 L7.094 278 L8.823 278.6 L10.5 279.4 L12.1 280.3 L13.63 281.3 L15.08 282.5 L16.43 283.7 L17.68 285.1 L18.81 286.5 L19.83 288 L20.72 289.7 L21.48 291.3 L22.1 293.1 L22.58 294.8 L22.93 296.7 Z " />
<path stroke="rgb(0,0,0)" stroke-opacity="1" fill="rgb(255,255,255)" fill-opacity="1" d="M-312.6 -88.15 L-312.6 -89.14 L-312.5 -90.13 L-312.5 -91.11 L-312.5 -92.1 L-312.5 -93.09 L-312.5 -94.07 L-312.5 -95.06 L-312.5 -96.04 L-312.5 -97.03 L-312.5 -98.02 L-312.5 -99 L-312.4 -99.99 L-312.4 -101 L-312.4 -102 L-312.4 -102.9 L-312.4 -103.9 L-312.4 -104.9 L-312.4 -105.9 L-312.4 -106.9 L-312.4 -107.9 L-312.4 -108.9 L-312.4 -109.8 L-312.3 -110.8 L-312.3 -111.8 L-312.3 -112.8 L-311.3 -112.8 L-310.3 -112.8 L-309.4 -112.8 L-308.4 -112.8 L-307.4 -112.8 L-306.4 -112.7 L-305.4 -112.7 L-304.4 -112.7 L-303.4 -112.7 L-302.5 -112.7 L-301.5 -112.7 L-300.5 -112.7 L-299.5 -112.7 L-298.5 -112.7 L-297.5 -112.7 L-296.5 -112.7 L-295.6 -112.6 L-294.6 -112.6 L-293.6 -112.6 L-292.6 -112.6 L-291.6 -112.6 L-290.6 -112.6 L-289.6 -112.6 L-288.7 -112.6 L-287.7 -112.6 L-287.7 -111.6 L-287.7 -110.6 L-287.7 -109.6 L-287.7 -108.6 L-287.7 -107.6 L-287.7 -106.6 L-287.7 -105.7 L-287.7 -104.7 L-287.8 -103.7 L-287.8 -102.7 L-287.8 -101.7 L-287.8 -100.7 L-287.8 -99.75 L-287.8 -98.76 L-287.8 -97.77 L-287.8 -96.79 L-287.8 -95.8 L-287.8 -94.81 L-287.9 -93.83 L-287.9 -92.84 L-287.9 -91.86 L-287.9 -90.87 L-287.9 -89.88 L-287.9 -88.9 L-287.9 -87.91 L-288.9 -87.92 L-289.9 -87.93 L-290.9 -87.94 L-291.9 -87.95 L-292.8 -87.96 L-293.8 -87.97 L-294.8 -87.98 L-295.8 -87.99 L-296.8 -88 L-297.8 -88.01 L-298.8 -88.02 L-299.7 -88.03 L-300.7 -88.04 L-301.7 -88.05 L-302.7 -88.06 L-303.7 -88.07 L-304.7 -88.08 L-305.7 -88.09 L-306.6 -88.1 L-307.6 -88.11 L-308.6 -88.12 L-309.6 -88.13 L-310.6 -88.13 L-311.6 -88.14 L-312.6 -88.15 Z " />
<path stroke="rgb(0,0,0)" stroke-opacity="1" fill="rgb(255,255,255)" fill-opacity="1" d="M224.8 300.2 L224.7 302.2 L224.5 304.1 L224 306.1 L223.5 307.9 L222.8 309.8 L221.9 311.6 L220.9 313.3 L219.8 314.9 L218.6 316.4 L217.2 317.8 L215.7 319.2 L214.2 320.3 L212.5 321.4 L210.8 322.3 L209 323.1 L207.1 323.8 L205.2 324.2 L203.2 324.6 L201.3 324.8 L199.3 324.8 L197.3 324.6 L195.4 324.4 L193.5 323.9 L191.6 323.3 L189.8 322.6 L188 321.7 L186.3 320.7 L184.7 319.5 L183.2 318.2 L181.8 316.8 L180.5 315.4 L179.4 313.8 L178.3 312.1 L177.5 310.3 L176.7 308.5 L176.1 306.6 L175.7 304.7 L175.4 302.7 L175.2 300.8 L175.2 298.8 L175.4 296.8 L175.7 294.9 L176.2 293 L176.9 291.1 L177.6 289.3 L178.5 287.6 L179.6 285.9 L180.8 284.3 L182.1 282.8 L183.5 281.5 L185 280.2 L186.7 279.1 L188.4 278.1 L190.1 277.2 L192 276.5 L193.9 276 L195.8 275.6 L197.7 275.3 L199.7 275.2 L201.7 275.3 L203.6 275.5 L205.6 275.8 L207.5 276.4 L209.3 277 L211.1 277.8 L212.9 278.8 L214.5 279.9 L216.1 281.1 L217.5 282.4 L218.8 283.9 L220.1 285.4 L221.2 287.1 L222.1 288.8 L222.9 290.6 L223.6 292.4 L224.1 294.3 L224.5 296.3 L224.7 298.2 L224.8 300.2 Z " />
<path stroke="rgb(0,0,0)" stroke-opacity="1" fill="rgb(255,255,255)" fill-opacity="1" d="M-112.6 -88.15 L-112.6 -89.14 L-112.5 -90.13 L-112.5 -91.11 L-112.5 -92.1 L-112.5 -93.09 L-112.5 -94.07 L-112.5 -95.06 L-112.5 -96.04 L-112.5 -97.03 L-112.5 -98.02 L-112.5 -99 L-112.4 -99.99 L-112.4 -101 L-112.4 -102 L-112.4 -102.9 L-112.4 -103.9 L-112.4 -104.9 L-112.4 -105.9 L-112.4 -106.9 L-112.4 -107.9 L-112.4 -108.9 L-112.4 -109.8 L-112.3 -110.8 L-112.3 -111.8 L-112.3 -112.8 L-111.3 -112.8 L-110.3 -112.8 L-109.4 -112.8 L-108.4 -112.8 L-107.4 -112.8 L-106.4 -112.7 L-105.4 -112.7 L-104.4 -112.7 L-103.4 -112.7 L-102.5 -112.7 L-101.5 -112.7 L-100.5 -112.7 L-99.5 -112.7 L-98.51 -112.7 L-97.53 -112.7 L-96.54 -112.7 L-95.56 -112.6 L-94.57 -112.6 L-93.58 -112.6 L-92.6 -112.6 L-91.61 -112.6 L-90.63 -112.6 L-89.64 -112.6 L-88.65 -112.6 L-87.67 -112.6 L-87.68 -111.6 L-87.69 -110.6 L-87.7 -109.6 L-87.71 -108.6 L-87.72 -107.6 L-87.73 -106.6 L-87.74 -105.7 L-87.74 -104.7 L-87.75 -103.7 L-87.76 -102.7 L-87.77 -101.7 L-87.78 -100.7 L-87.79 -99.75 L-87.8 -98.76 L-87.81 -97.77 L-87.82 -96.79 L-87.83 -95.8 L-87.84 -94.81 L-87.85 -93.83 L-87.86 -92.84 L-87.87 -91.86 L-87.88 -90.87 L-87.89 -89.88 L-87.9 -88.9 L-87.91 -87.91 L-88.9 -87.92 L-89.88 -87.93 L-90.87 -87.94 L-91.85 -87.95 L-92.84 -87.96 L-93.83 -87.97 L-94.81 -87.98 L-95.8 -87.99 L-96.79 -88 L-97.77 -88.01 L-98.76 -88.02 L-99.74 -88.03 L-100.7 -88.04 L-101.7 -88.05 L-102.7 -88.06 L-103.7 -88.07 L-104.7 -88.08 L-105.7 -88.09 L-106.6 -88.1 L-107.6 -88.11 L-108.6 -88.12 L-109.6 -88.13 L-110.6 -88.13 L-111.6 -88.14 L-112.6 -88.15 Z " />
</g>
</g>
</svg>
