<!DOCTYPE svg>
<svg xmlns="http://www.w3.org/2000/svg" xmlns:xlink="http://www.w3.org/1999/xlink" width="560" height="560">
<g transform="translate(280.000000,280.000000)">
<g transform="scale(3.000000,3.000000)">
<path stroke="rgb(0,0,0)" stroke-opacity="1" fill="rgb(255,255,255)" fill-opacity="1" d="M-312.7 -288.3 L-312.7 -289.3 L-312.7 -290.3 L-312.7 -291.3 L-312.7 -292.3 L-312.6 -293.2 L-312.6 -294.2 L-312.6 -295.2 L-312.6 -296.2 L-312.5 -297.2 L-312.5 -298.2 L-312.5 -299.2 L-312.5 -300.2 L-312.5 -301.1 L-312.4 -302.1 L-312.4 -303.1 L-312.4 -304.1 L-312.4 -305.1 L-312.3 -306.1 L-312.3 -307.1 L-312.3 -308.1 L-312.3 -309 L-312.3 -310 L-312.2 -311 L-312.2 -312 L-312.2 -313 L-311.2 -313 L-310.2 -312.9 L-309.2 -312.9 L-308.2 -312.9 L-307.3 -312.9 L-306.3 -312.9 L-305.3 -312.8 L-304.3 -312.8 L-303.3 -312.8 L-302.3 -312.8 L-301.3 -312.7 L-300.3 -312.7 L-299.4 -312.7 L-298.4 -312.7 L-297.4 -312.7 L-296.4 -312.6 L-295.4 -312.6 L-294.4 -312.6 L-293.4 -312.6 L-292.4 -312.5 L-291.5 -312.5 L-290.5 -312.5 L-289.5 -312.5 L-288.5 -312.5 L-287.5 -312.4 L-287.5 -311.4 L-287.5 -310.5 L-287.6 -309.5 L-287.6 -308.5 L-287.6 -307.5 L-287.6 -306.5 L-287.7 -305.5 L-287.7 -304.5 L-287.7 -303.5 L-287.7 -302.6 L-287.7 -301.6 L-287.8 -300.6 L-287.8 -299.6 L-287.8 -298.6 L-287.8 -297.6 L-287.9 -296.6 L-287.9 -295.6 L-287.9 -294.7 L-287.9 -293.7 L-287.9 -292.7 L-288 -291.7 L-288 -290.7 L-288 -289.7 L-288 -288.7 L-288.1 -287.7 L-289 -287.8 L-290 -287.8 L-291 -287.8 L-292 -287.8 L-293 -287.9 L-294 -287.9 L-295 -287.9 L-296 -287.9 L-296.9 -287.9 L-297.9 -288 L-298.9 -288 L-299.9 -288 L-300.9 -288 L-301.9 -288.1 L-302.9 -288.1 L-303.9 -288.1 L-304.8 -288.1 L-305.8 -288.1 L-306.8 -288.2 L-307.8 -288.2 L-308.8 -288.2 L-309.8 -288.2 L-310.8 -288.3 L-311.8 -288.3 L-312.7 -288.3 Z " />
<path stroke="rgb(0,0,0)" stroke-opacity="1" fill="rgb(255,255,255)" fill-opacity="1" d="M-1000 -1052 L-1004 -1052 L-1008 -1052 L-1012 -1053 L-1015 -1054 L-1019 -1056 L-1022 -1057 L-1026 -1059 L-1029 -1062 L-1032 -1064 L-1035 -1067 L-1037 -1070 L-1040 -1073 L-1042 -1076 L-1043 -1079 L-1045 -1083 L-1046 -1087 L-1047 -1090 L-1048 -1094 L-1048 -1098 L-1048 -1102 L-1048 -1106 L-1047 -1110 L-1046 -1113 L-1045 -1117 L-1044 -1121 L-1042 -1124 L-1040 -1127 L-1038 -1131 L-1035 -1134 L-1032 -1136 L-1029 -1139 L-1026 -1141 L-1023 -1143 L-1020 -1145 L-1016 -1146 L-1012 -1147 L-1008 -1148 L-1005 -1149 L-1001 -1149 L-996.9 -1149 L-993.1 -1149 L-989.2 -1148 L-985.5 -1147 L-981.8 -1146 L-978.3 -1144 L-974.8 -1142 L-971.6 -1140 L-968.5 -1138 L-965.6 -1135 L-962.9 -1133 L-960.5 -1130 L-958.2 -1126 L-956.3 -1123 L-954.6 -1120 L-953.3 -1116 L-952.2 -1112 L-951.4 -1108 L-950.9 -1105 L-950.7 -1101 L-950.8 -1097 L-951.2 -1093 L-952 -1089 L-953 -1085 L-954.4 -1082 L-956 -1078 L-957.9 -1075 L-960 -1072 L-962.4 -1069 L-965.1 -1066 L-967.9 -1063 L-971 -1061 L-974.2 -1059 L-977.6 -1057 L-981.1 -1055 L-984.8 -1054 L-988.5 -1053 L-992.3 -1052 L-996.2 -1052 L-1000 -1052 Z " />
<path stroke="rgb(0,0,0)" stroke-opacity="1" fill="rgb(255,255,255)" fill-opacity="1" d="M-112.6 -288.3 L-112.6 -289.2 L-112.6 -290.2 L-112.6 -291.2 L-112.6 -292.2 L-112.6 -293.2 L-112.5 -294.2 L-112.5 -295.2 L-112.5 -296.1 L-112.5 -297.1 L-112.5 -298.1 L-112.5 -299.1 L-112.4 -300.1 L-112.4 -301.1 L-112.4 -302.1 L-112.4 -303 L-112.4 -304 L-112.4 -305 L-112.3 -306 L-112.3 -307 L-112.3 -308 L-112.3 -309 L-112.3 -309.9 L-112.3 -310.9 L-112.2 -311.9 L-112.2 -312.9 L-111.2 -312.9 L-110.3 -312.9 L-109.3 -312.8 L-108.3 -312.8 L-107.3 -312.8 L-106.3 -312.8 L-105.3 -312.8 L-104.3 -312.8 L-103.4 -312.7 L-102.4 -312.7 L-101.4 -312.7 L-100.4 -312.7 L-99.42 -312.7 L-98.44 -312.7 L-97.45 -312.6 L-96.47 -312.6 L-95.48 -312.6 L-94.49 -312.6 L-93.51 -312.6 L-92.52 -312.6 L-91.54 -312.5 L-90.55 -312.5 L-89.57 -312.5 L-88.58 -312.5 L-87.6 -312.5 L-87.61 -311.5 L-87.63 -310.5 L-87.65 -309.5 L-87.67 -308.5 L-87.68 -307.5 L-87.7 -306.6 L-87.72 -305.6 L-87.73 -304.6 L-87.75 -303.6 L-87.77 -302.6 L-87.78 -301.6 L-87.8 -300.7 L-87.82 -299.7 L-87.83 -298.7 L-87.85 -297.7 L-87.87 -296.7 L-87.88 -295.7 L-87.9 -294.7 L-87.92 -293.8 L-87.93 -292.8 L-87.95 -291.8 L-87.97 -290.8 L-87.98 -289.8 L-88 -288.8 L-88.02 -287.8 L-89 -287.9 L-89.99 -287.9 L-90.97 -287.9 L-91.96 -287.9 L-92.94 -287.9 L-93.93 -287.9 L-94.91 -288 L-95.9 -288 L-96.89 -288 L-97.87 -288 L-98.86 -288 L-99.84 -288 L-100.8 -288.1 L-101.8 -288.1 L-102.8 -288.1 L-103.8 -288.1 L-104.8 -288.1 L-105.8 -288.1 L-106.7 -288.2 L-107.7 -288.2 L-108.7 -288.2 L-109.7 -288.2 L-110.7 -288.2 L-111.7 -288.2 L-112.6 -288.3 Z " />
<path stroke="rgb(0,0,0)" stroke-opacity="1" fill="rgb(255,255,255)" fill-opacity="1" d="M-800 -1052 L-803.9 -1052 L-807.8 -1052 L-811.6 -1053 L-815.3 -1054 L-818.9 -1056 L-822.4 -1057 L-825.7 -1059 L-828.9 -1062 L-831.9 -1064 L-834.7 -1067 L-837.3 -1070 L-839.6 -1073 L-841.7 -1076 L-843.5 -1079 L-845 -1083 L-846.2 -1087 L-847.2 -1090 L-847.8 -1094 L-848.2 -1098 L-848.2 -1102 L-847.9 -1106 L-847.3 -1110 L-846.4 -1113 L-845.2 -1117 L-843.8 -1121 L-842 -1124 L-840 -1127 L-837.7 -1131 L-835.2 -1134 L-832.4 -1136 L-829.5 -1139 L-826.3 -1141 L-823 -1143 L-819.6 -1145 L-816 -1146 L-812.3 -1147 L-808.5 -1148 L-804.7 -1149 L-800.8 -1149 L-796.9 -1149 L-793.1 -1149 L-789.2 -1148 L-785.5 -1147 L-781.8 -1146 L-778.3 -1144 L-774.8 -1142 L-771.6 -1140 L-768.5 -1138 L-765.6 -1135 L-762.9 -1133 L-760.5 -1130 L-758.2 -1126 L-756.3 -1123 L-754.6 -1120 L-753.3 -1116 L-752.2 -1112 L-751.4 -1108 L-750.9 -1105 L-750.7 -1101 L-750.8 -1097 L-751.2 -1093 L-752 -1089 L-753 -1085 L-754.4 -1082 L-756 -1078 L-757.9 -1075 L-760 -1072 L-762.4 -1069 L-765.1 -1066 L-767.9 -1063 L-771 -1061 L-774.2 -1059 L-777.6 -1057 L-781.1 -1055 L-784.8 -1054 L-788.5 -1053 L-792.3 -1052 L-796.2 -1052 L-800 -1052 Z " />
<path stroke="rgb(0,0,0)" stroke-opacity="1" fill="rgb(255,255,255)" fill-opacity="1" d="M87.35 -288.3 L87.37 -289.2 L87.38 -290.2 L87.4 -291.2 L87.42 -292.2 L87.43 -293.2 L87.45 -294.2 L87.47 -295.2 L87.49 -296.1 L87.5 -297.1 L87.52 -298.1 L87.54 -299.1 L87.55 -300.1 L87.57 -301.1 L87.59 -302.1 L87.6 -303 L87.62 -304 L87.64 -305 L87.65 -306 L87.67 -307 L87.69 -308 L87.7 -309 L87.72 -309.9 L87.74 -310.9 L87.75 -311.9 L87.77 -312.9 L88.76 -312.9 L89.74 -312.9 L90.73 -312.8 L91.71 -312.8 L92.7 -312.8 L93.68 -312.8 L94.67 -312.8 L95.65 -312.8 L96.64 -312.7 L97.62 -312.7 L98.61 -312.7 L99.59 -312.7 L100.6 -312.7 L101.6 -312.7 L102.5 -312.6 L103.5 -312.6 L104.5 -312.6 L105.5 -312.6 L106.5 -312.6 L107.5 -312.6 L108.5 -312.5 L109.4 -312.5 L110.4 -312.5 L111.4 -312.5 L112.4 -312.5 L112.4 -311.5 L112.4 -310.5 L112.4 -309.5 L112.3 -308.5 L112.3 -307.5 L112.3 -306.6 L112.3 -305.6 L112.3 -304.6 L112.3 -303.6 L112.2 -302.6 L112.2 -301.6 L112.2 -300.7 L112.2 -299.7 L112.2 -298.7 L112.2 -297.7 L112.1 -296.7 L112.1 -295.7 L112.1 -294.7 L112.1 -293.8 L112.1 -292.8 L112 -291.8 L112 -290.8 L112 -289.8 L112 -288.8 L112 -287.8 L111 -287.9 L110 -287.9 L109 -287.9 L108 -287.9 L107.1 -287.9 L106.1 -287.9 L105.1 -288 L104.1 -288 L103.1 -288 L102.1 -288 L101.1 -288 L100.2 -288 L99.17 -288.1 L98.19 -288.1 L97.2 -288.1 L96.22 -288.1 L95.23 -288.1 L94.25 -288.1 L93.26 -288.2 L92.28 -288.2 L91.29 -288.2 L90.31 -288.2 L89.32 -288.2 L88.34 -288.2 L87.35 -288.3 Z " />
<path stroke="rgb(0,0,0)" stroke-opacity="1" fill="rgb(255,255,255)" fill-opacity="1" d="M-582.7 -1042 L-586.5 -1042 L-590.4 -1042 L-594.3 -1042 L-598.1 -1042 L-601.9 -1043 L-605.6 -1044 L-609.2 -1046 L-612.7 -1048 L-616.1 -1049 L-619.2 -1052 L-622.2 -1054 L-625 -1057 L-627.6 -1060 L-629.9 -1063 L-631.9 -1066 L-633.7 -1070 L-635.3 -1073 L-636.5 -1077 L-637.4 -1081 L-638 -1084 L-638.4 -1088 L-638.4 -1092 L-638.1 -1096 L-637.5 -1100 L-636.6 -1104 L-635.4 -1107 L-633.9 -1111 L-632.1 -1114 L-630.1 -1118 L-627.8 -1121 L-625.3 -1124 L-622.5 -1126 L-619.6 -1129 L-616.4 -1131 L-613.1 -1133 L-609.6 -1135 L-606 -1136 L-602.3 -1138 L-598.5 -1138 L-594.7 -1139 L-590.8 -1139 L-586.9 -1139 L-583.1 -1139 L-579.3 -1138 L-575.5 -1137 L-571.8 -1136 L-568.3 -1134 L-564.9 -1132 L-561.6 -1130 L-558.5 -1128 L-555.6 -1125 L-553 -1123 L-550.5 -1120 L-548.3 -1116 L-546.4 -1113 L-544.8 -1110 L-543.4 -1106 L-542.3 -1102 L-541.5 -1098 L-541.1 -1095 L-540.9 -1091 L-541 -1087 L-541.5 -1083 L-542.2 -1079 L-543.3 -1075 L-544.6 -1072 L-546.2 -1068 L-548.1 -1065 L-550.3 -1062 L-552.7 -1059 L-555.4 -1056 L-558.2 -1053 L-561.3 -1051 L-564.5 -1049 L-567.9 -1047 L-571.5 -1045 L-575.1 -1044 L-578.9 -1043 L-582.7 -1042 Z " />
<path stroke="rgb(0,0,0)" stroke-opacity="1" fill="rgb(255,255,255)" fill-opacity="1" d="M287.4 -288.3 L287.4 -289.2 L287.4 -290.2 L287.4 -291.2 L287.4 -292.2 L287.4 -293.2 L287.5 -294.2 L287.5 -295.2 L287.5 -296.1 L287.5 -297.1 L287.5 -298.1 L287.5 -299.1 L287.6 -300.1 L287.6 -301.1 L287.6 -302.1 L287.6 -303 L287.6 -304 L287.6 -305 L287.7 -306 L287.7 -307 L287.7 -308 L287.7 -309 L287.7 -309.9 L287.7 -310.9 L287.8 -311.9 L287.8 -312.9 L288.8 -312.9 L289.7 -312.9 L290.7 -312.8 L291.7 -312.8 L292.7 -312.8 L293.7 -312.8 L294.7 -312.8 L295.7 -312.8 L296.6 -312.7 L297.6 -312.7 L298.6 -312.7 L299.6 -312.7 L300.6 -312.7 L301.6 -312.7 L302.5 -312.6 L303.5 -312.6 L304.5 -312.6 L305.5 -312.6 L306.5 -312.6 L307.5 -312.6 L308.5 -312.5 L309.4 -312.5 L310.4 -312.5 L311.4 -312.5 L312.4 -312.5 L312.4 -311.5 L312.4 -310.5 L312.4 -309.5 L312.3 -308.5 L312.3 -307.5 L312.3 -306.6 L312.3 -305.6 L312.3 -304.6 L312.3 -303.6 L312.2 -302.6 L312.2 -301.6 L312.2 -300.7 L312.2 -299.7 L312.2 -298.7 L312.2 -297.7 L312.1 -296.7 L312.1 -295.7 L312.1 -294.7 L312.1 -293.8 L312.1 -292.8 L312 -291.8 L312 -290.8 L312 -289.8 L312 -288.8 L312 -287.8 L311 -287.9 L310 -287.9 L309 -287.9 L308 -287.9 L307.1 -287.9 L306.1 -287.9 L305.1 -288 L304.1 -288 L303.1 -288 L302.1 -288 L301.1 -288 L300.2 -288 L299.2 -288.1 L298.2 -288.1 L297.2 -288.1 L296.2 -288.1 L295.2 -288.1 L294.2 -288.1 L293.3 -288.2 L292.3 -288.2 L291.3 -288.2 L290.3 -288.2 L289.3 -288.2 L288.3 -288.2 L287.4 -288.3 Z " />
<path stroke="rgb(0,0,0)" stroke-opacity="1" fill="rgb(255,255,255)" fill-opacity="1" d="M-1100 -951.6 L-1104 -951.8 L-1108 -952.3 L-1112 -953.1 L-1115 -954.3 L-1119 -955.7 L-1122 -957.3 L-1126 -959.3 L-1129 -961.5 L-1132 -964 L-1135 -966.7 L-1137 -969.6 L-1140 -972.7 L-1142 -976 L-1143 -979.4 L-1145 -983 L-1146 -986.6 L-1147 -990.4 L-1148 -994.2 L-1148 -998.1 L-1148 -1002 L-1148 -1006 L-1147 -1010 L-1146 -1013 L-1145 -1017 L-1144 -1021 L-1142 -1024 L-1140 -1027 L-1138 -1031 L-1135 -1034 L-1132 -1036 L-1129 -1039 L-1126 -1041 L-1123 -1043 L-1120 -1045 L-1116 -1046 L-1112 -1047 L-1108 -1048 L-1105 -1049 L-1101 -1049 L-1097 -1049 L-1093 -1049 L-1089 -1048 L-1085 -1047 L-1082 -1046 L-1078 -1044 L-1075 -1042 L-1072 -1040 L-1068 -1038 L-1066 -1035 L-1063 -1033 L-1060 -1030 L-1058 -1026 L-1056 -1023 L-1055 -1020 L-1053 -1016 L-1052 -1012 L-1051 -1008 L-1051 -1005 L-1051 -1001 L-1051 -996.9 L-1051 -993 L-1052 -989.2 L-1053 -985.5 L-1054 -981.8 L-1056 -978.3 L-1058 -974.9 L-1060 -971.7 L-1062 -968.7 L-1065 -965.8 L-1068 -963.2 L-1071 -960.8 L-1074 -958.7 L-1078 -956.8 L-1081 -955.2 L-1085 -953.9 L-1089 -952.9 L-1092 -952.1 L-1096 -951.7 L-1100 -951.6 Z " />
<path stroke="rgb(0,0,0)" stroke-opacity="1" fill="rgb(255,255,255)" fill-opacity="1" d="M-212.6 -188.3 L-212.6 -189.2 L-212.6 -190.2 L-212.6 -191.2 L-212.6 -192.2 L-212.6 -193.2 L-212.5 -194.2 L-212.5 -195.2 L-212.5 -196.1 L-212.5 -197.1 L-212.5 -198.1 L-212.5 -199.1 L-212.4 -200.1 L-212.4 -201.1 L-212.4 -202.1 L-212.4 -203 L-212.4 -204 L-212.4 -205 L-212.3 -206 L-212.3 -207 L-212.3 -208 L-212.3 -209 L-212.3 -209.9 L-212.3 -210.9 L-212.2 -211.9 L-212.2 -212.9 L-211.2 -212.9 L-210.3 -212.9 L-209.3 -212.8 L-208.3 -212.8 L-207.3 -212.8 L-206.3 -212.8 L-205.3 -212.8 L-204.3 -212.8 L-203.4 -212.7 L-202.4 -212.7 L-201.4 -212.7 L-200.4 -212.7 L-199.4 -212.7 L-198.4 -212.7 L-197.5 -212.6 L-196.5 -212.6 L-195.5 -212.6 L-194.5 -212.6 L-193.5 -212.6 L-192.5 -212.6 L-191.5 -212.5 L-190.6 -212.5 L-189.6 -212.5 L-188.6 -212.5 L-187.6 -212.5 L-187.6 -211.5 L-187.6 -210.5 L-187.6 -209.5 L-187.7 -208.5 L-187.7 -207.5 L-187.7 -206.6 L-187.7 -205.6 L-187.7 -204.6 L-187.7 -203.6 L-187.8 -202.6 L-187.8 -201.6 L-187.8 -200.7 L-187.8 -199.7 L-187.8 -198.7 L-187.8 -197.7 L-187.9 -196.7 L-187.9 -195.7 L-187.9 -194.7 L-187.9 -193.8 L-187.9 -192.8 L-188 -191.8 L-188 -190.8 L-188 -189.8 L-188 -188.8 L-188 -187.8 L-189 -187.9 L-190 -187.9 L-191 -187.9 L-192 -187.9 L-192.9 -187.9 L-193.9 -187.9 L-194.9 -188 L-195.9 -188 L-196.9 -188 L-197.9 -188 L-198.9 -188 L-199.8 -188 L-200.8 -188.1 L-201.8 -188.1 L-202.8 -188.1 L-203.8 -188.1 L-204.8 -188.1 L-205.8 -188.1 L-206.7 -188.2 L-207.7 -188.2 L-208.7 -188.2 L-209.7 -188.2 L-210.7 -188.2 L-211.7 -188.2 L-212.6 -188.3 Z " />
<path stroke="rgb(0,0,0)" stroke-opacity="1" fill="rgb(255,255,255)" fill-opacity="1" d="M-900 -951.6 L-903.9 -951.8 L-907.8 -952.3 L-911.6 -953.1 L-915.3 -954.3 L-918.9 -955.7 L-922.4 -957.3 L-925.7 -959.3 L-928.9 -961.5 L-931.9 -964 L-934.7 -966.7 L-937.3 -969.6 L-939.6 -972.7 L-941.7 -976 L-943.5 -979.4 L-945 -983 L-946.2 -986.6 L-947.2 -990.4 L-947.8 -994.2 L-948.2 -998.1 L-948.2 -1002 L-947.9 -1006 L-947.3 -1010 L-946.4 -1013 L-945.2 -1017 L-943.8 -1021 L-942 -1024 L-940 -1027 L-937.7 -1031 L-935.2 -1034 L-932.4 -1036 L-929.5 -1039 L-926.3 -1041 L-923 -1043 L-919.6 -1045 L-916 -1046 L-912.3 -1047 L-908.5 -1048 L-904.7 -1049 L-900.8 -1049 L-896.9 -1049 L-893.1 -1049 L-889.2 -1048 L-885.5 -1047 L-881.8 -1046 L-878.3 -1044 L-874.8 -1042 L-871.6 -1040 L-868.5 -1038 L-865.6 -1035 L-862.9 -1033 L-860.5 -1030 L-858.2 -1026 L-856.3 -1023 L-854.6 -1020 L-853.3 -1016 L-852.2 -1012 L-851.4 -1008 L-850.9 -1005 L-850.7 -1001 L-850.8 -996.9 L-851.2 -993 L-852 -989.2 L-853 -985.5 L-854.4 -981.8 L-856 -978.3 L-857.9 -974.9 L-860 -971.7 L-862.4 -968.7 L-865.1 -965.8 L-867.9 -963.2 L-871 -960.8 L-874.2 -958.7 L-877.6 -956.8 L-881.1 -955.2 L-884.8 -953.9 L-888.5 -952.9 L-892.3 -952.1 L-896.2 -951.7 L-900 -951.6 Z " />
<path stroke="rgb(0,0,0)" stroke-opacity="1" fill="rgb(255,255,255)" fill-opacity="1" d="M-12.65 -188.3 L-12.63 -189.2 L-12.62 -190.2 L-12.6 -191.2 L-12.58 -192.2 L-12.57 -193.2 L-12.55 -194.2 L-12.53 -195.2 L-12.51 -196.1 L-12.5 -197.1 L-12.48 -198.1 L-12.46 -199.1 L-12.45 -200.1 L-12.43 -201.1 L-12.41 -202.1 L-12.4 -203 L-12.38 -204 L-12.36 -205 L-12.35 -206 L-12.33 -207 L-12.31 -208 L-12.3 -209 L-12.28 -209.9 L-12.26 -210.9 L-12.25 -211.9 L-12.23 -212.9 L-11.24 -212.9 L-10.26 -212.9 L-9.273 -212.8 L-8.288 -212.8 L-7.303 -212.8 L-6.318 -212.8 L-5.332 -212.8 L-4.347 -212.8 L-3.362 -212.7 L-2.377 -212.7 L-1.391 -212.7 L-0.4061 -212.7 L0.5791 -212.7 L1.564 -212.7 L2.55 -212.6 L3.535 -212.6 L4.52 -212.6 L5.505 -212.6 L6.491 -212.6 L7.476 -212.6 L8.461 -212.5 L9.446 -212.5 L10.43 -212.5 L11.42 -212.5 L12.4 -212.5 L12.39 -211.5 L12.37 -210.5 L12.35 -209.5 L12.33 -208.5 L12.32 -207.5 L12.3 -206.6 L12.28 -205.6 L12.27 -204.6 L12.25 -203.6 L12.23 -202.6 L12.22 -201.6 L12.2 -200.7 L12.18 -199.7 L12.17 -198.7 L12.15 -197.7 L12.13 -196.7 L12.12 -195.7 L12.1 -194.7 L12.08 -193.8 L12.07 -192.8 L12.05 -191.8 L12.03 -190.8 L12.02 -189.8 L12 -188.8 L11.98 -187.8 L11 -187.9 L10.01 -187.9 L9.026 -187.9 L8.041 -187.9 L7.056 -187.9 L6.071 -187.9 L5.085 -188 L4.1 -188 L3.115 -188 L2.13 -188 L1.144 -188 L0.1591 -188 L-0.8261 -188.1 L-1.811 -188.1 L-2.797 -188.1 L-3.782 -188.1 L-4.767 -188.1 L-5.752 -188.1 L-6.738 -188.2 L-7.723 -188.2 L-8.708 -188.2 L-9.693 -188.2 L-10.68 -188.2 L-11.66 -188.2 L-12.65 -188.3 Z " />
<path stroke="rgb(0,0,0)" stroke-opacity="1" fill="rgb(255,255,255)" fill-opacity="1" d="M-682.7 -942.2 L-686.5 -941.8 L-690.4 -941.7 L-694.3 -941.9 L-698.1 -942.5 L-701.9 -943.3 L-705.6 -944.4 L-709.2 -945.8 L-712.7 -947.5 L-716.1 -949.5 L-719.2 -951.7 L-722.2 -954.2 L-725 -956.9 L-727.6 -959.8 L-729.9 -962.9 L-731.9 -966.2 L-733.7 -969.6 L-735.3 -973.2 L-736.5 -976.9 L-737.4 -980.7 L-738 -984.5 L-738.4 -988.3 L-738.4 -992.2 L-738.1 -996.1 L-737.5 -999.9 L-736.6 -1004 L-735.4 -1007 L-733.9 -1011 L-732.1 -1014 L-730.1 -1018 L-727.8 -1021 L-725.3 -1024 L-722.5 -1026 L-719.6 -1029 L-716.4 -1031 L-713.1 -1033 L-709.6 -1035 L-706 -1036 L-702.3 -1038 L-698.5 -1038 L-694.7 -1039 L-690.8 -1039 L-686.9 -1039 L-683.1 -1039 L-679.3 -1038 L-675.5 -1037 L-671.8 -1036 L-668.3 -1034 L-664.9 -1032 L-661.6 -1030 L-658.5 -1028 L-655.6 -1025 L-653 -1023 L-650.5 -1020 L-648.3 -1016 L-646.4 -1013 L-644.8 -1010 L-643.4 -1006 L-642.3 -1002 L-641.5 -998.4 L-641.1 -994.5 L-640.9 -990.7 L-641 -986.8 L-641.5 -982.9 L-642.2 -979.1 L-643.3 -975.4 L-644.6 -971.8 L-646.2 -968.3 L-648.1 -964.9 L-650.3 -961.7 L-652.7 -958.6 L-655.4 -955.8 L-658.2 -953.2 L-661.3 -950.8 L-664.5 -948.7 L-667.9 -946.8 L-671.5 -945.2 L-675.1 -943.9 L-678.9 -942.9 L-682.7 -942.2 Z " />
<path stroke="rgb(0,0,0)" stroke-opacity="1" fill="rgb(255,255,255)" fill-opacity="1" d="M187.4 -188.3 L187.4 -189.2 L187.4 -190.2 L187.4 -191.2 L187.4 -192.2 L187.4 -193.2 L187.5 -194.2 L187.5 -195.2 L187.5 -196.1 L187.5 -197.1 L187.5 -198.1 L187.5 -199.1 L187.6 -200.1 L187.6 -201.1 L187.6 -202.1 L187.6 -203 L187.6 -204 L187.6 -205 L187.7 -206 L187.7 -207 L187.7 -208 L187.7 -209 L187.7 -209.9 L187.7 -210.9 L187.8 -211.9 L187.8 -212.9 L188.8 -212.9 L189.7 -212.9 L190.7 -212.8 L191.7 -212.8 L192.7 -212.8 L193.7 -212.8 L194.7 -212.8 L195.7 -212.8 L196.6 -212.7 L197.6 -212.7 L198.6 -212.7 L199.6 -212.7 L200.6 -212.7 L201.6 -212.7 L202.5 -212.6 L203.5 -212.6 L204.5 -212.6 L205.5 -212.6 L206.5 -212.6 L207.5 -212.6 L208.5 -212.5 L209.4 -212.5 L210.4 -212.5 L211.4 -212.5 L212.4 -212.5 L212.4 -211.5 L212.4 -210.5 L212.4 -209.5 L212.3 -208.5 L212.3 -207.5 L212.3 -206.6 L212.3 -205.6 L212.3 -204.6 L212.3 -203.6 L212.2 -202.6 L212.2 -201.6 L212.2 -200.7 L212.2 -199.7 L212.2 -198.7 L212.2 -197.7 L212.1 -196.7 L212.1 -195.7 L212.1 -194.7 L212.1 -193.8 L212.1 -192.8 L212 -191.8 L212 -190.8 L212 -189.8 L212 -188.8 L212 -187.8 L211 -187.9 L210 -187.9 L209 -187.9 L208 -187.9 L207.1 -187.9 L206.1 -187.9 L205.1 -188 L204.1 -188 L203.1 -188 L202.1 -188 L201.1 -188 L200.2 -188 L199.2 -188.1 L198.2 -188.1 L197.2 -188.1 L196.2 -188.1 L195.2 -188.1 L194.2 -188.1 L193.3 -188.2 L192.3 -188.2 L191.3 -188.2 L190.3 -188.2 L189.3 -188.2 L188.3 -188.2 L187.4 -188.3 Z " />
<path stroke="rgb(0,0,0)" stroke-opacity="1" fill="rgb(255,255,255)" fill-opacity="1" d="M-398.7 -910.4 L-401.1 -907.3 L-403.7 -904.5 L-406.5 -901.8 L-409.6 -899.4 L-412.8 -897.2 L-416.1 -895.3 L-419.7 -893.7 L-423.3 -892.3 L-427 -891.2 L-430.8 -890.5 L-434.7 -890 L-438.6 -889.9 L-442.4 -890 L-446.3 -890.5 L-450.1 -891.3 L-453.8 -892.3 L-457.5 -893.7 L-461 -895.3 L-464.3 -897.3 L-467.5 -899.5 L-470.6 -901.9 L-473.4 -904.5 L-476 -907.4 L-478.3 -910.5 L-480.5 -913.8 L-482.3 -917.2 L-483.9 -920.7 L-485.2 -924.4 L-486.1 -928.1 L-486.8 -932 L-487.2 -935.8 L-487.3 -939.7 L-487 -943.6 L-486.5 -947.4 L-485.7 -951.2 L-484.5 -954.9 L-483.1 -958.5 L-481.4 -962 L-479.4 -965.3 L-477.1 -968.5 L-474.6 -971.5 L-471.9 -974.2 L-469 -976.8 L-465.9 -979.1 L-462.6 -981.1 L-459.1 -982.9 L-455.5 -984.4 L-451.8 -985.6 L-448.1 -986.5 L-444.2 -987.1 L-440.4 -987.4 L-436.5 -987.4 L-432.6 -987.1 L-428.8 -986.5 L-425 -985.6 L-421.3 -984.3 L-417.8 -982.8 L-414.3 -981.1 L-411 -979 L-407.9 -976.7 L-405 -974.1 L-402.3 -971.4 L-399.8 -968.4 L-397.6 -965.2 L-395.6 -961.9 L-393.9 -958.4 L-392.4 -954.8 L-391.3 -951.1 L-390.5 -947.3 L-389.9 -943.4 L-389.7 -939.6 L-389.8 -935.7 L-390.2 -931.8 L-390.9 -928 L-391.9 -924.3 L-393.2 -920.6 L-394.7 -917.1 L-396.6 -913.7 L-398.7 -910.4 Z " />
<path stroke="rgb(0,0,0)" stroke-opacity="1" fill="rgb(255,255,255)" fill-opacity="1" d="M-312.6 -88.26 L-312.6 -89.25 L-312.6 -90.23 L-312.6 -91.22 L-312.6 -92.2 L-312.6 -93.19 L-312.5 -94.17 L-312.5 -95.16 L-312.5 -96.14 L-312.5 -97.13 L-312.5 -98.11 L-312.5 -99.1 L-312.4 -100.1 L-312.4 -101.1 L-312.4 -102.1 L-312.4 -103 L-312.4 -104 L-312.4 -105 L-312.3 -106 L-312.3 -107 L-312.3 -108 L-312.3 -109 L-312.3 -109.9 L-312.3 -110.9 L-312.2 -111.9 L-312.2 -112.9 L-311.2 -112.9 L-310.3 -112.9 L-309.3 -112.8 L-308.3 -112.8 L-307.3 -112.8 L-306.3 -112.8 L-305.3 -112.8 L-304.3 -112.8 L-303.4 -112.7 L-302.4 -112.7 L-301.4 -112.7 L-300.4 -112.7 L-299.4 -112.7 L-298.4 -112.7 L-297.5 -112.6 L-296.5 -112.6 L-295.5 -112.6 L-294.5 -112.6 L-293.5 -112.6 L-292.5 -112.6 L-291.5 -112.5 L-290.6 -112.5 L-289.6 -112.5 L-288.6 -112.5 L-287.6 -112.5 L-287.6 -111.5 L-287.6 -110.5 L-287.6 -109.5 L-287.7 -108.5 L-287.7 -107.5 L-287.7 -106.6 L-287.7 -105.6 L-287.7 -104.6 L-287.7 -103.6 L-287.8 -102.6 L-287.8 -101.6 L-287.8 -100.7 L-287.8 -99.66 L-287.8 -98.68 L-287.8 -97.69 L-287.9 -96.71 L-287.9 -95.72 L-287.9 -94.74 L-287.9 -93.75 L-287.9 -92.77 L-288 -91.78 L-288 -90.8 L-288 -89.81 L-288 -88.83 L-288 -87.84 L-289 -87.86 L-290 -87.88 L-291 -87.89 L-292 -87.91 L-292.9 -87.93 L-293.9 -87.94 L-294.9 -87.96 L-295.9 -87.98 L-296.9 -87.99 L-297.9 -88.01 L-298.9 -88.03 L-299.8 -88.04 L-300.8 -88.06 L-301.8 -88.08 L-302.8 -88.09 L-303.8 -88.11 L-304.8 -88.13 L-305.8 -88.14 L-306.7 -88.16 L-307.7 -88.18 L-308.7 -88.19 L-309.7 -88.21 L-310.7 -88.23 L-311.7 -88.24 L-312.6 -88.26 Z " />
<path stroke="rgb(0,0,0)" stroke-opacity="1" fill="rgb(255,255,255)" fill-opacity="1" d="M-1000 -851.6 L-1004 -851.8 L-1008 -852.3 L-1012 -853.1 L-1015 -854.3 L-1019 -855.7 L-1022 -857.3 L-1026 -859.3 L-1029 -861.5 L-1032 -864 L-1035 -866.7 L-1037 -869.6 L-1040 -872.7 L-1042 -876 L-1043 -879.4 L-1045 -883 L-1046 -886.6 L-1047 -890.4 L-1048 -894.2 L-1048 -898.1 L-1048 -901.9 L-1048 -905.8 L-1047 -909.6 L-1046 -913.4 L-1045 -917.1 L-1044 -920.7 L-1042 -924.2 L-1040 -927.5 L-1038 -930.6 L-1035 -933.5 L-1032 -936.3 L-1029 -938.8 L-1026 -941.1 L-1023 -943.1 L-1020 -944.8 L-1016 -946.3 L-1012 -947.4 L-1008 -948.3 L-1005 -948.9 L-1001 -949.1 L-996.9 -949.1 L-993.1 -948.7 L-989.2 -948.1 L-985.5 -947.1 L-981.8 -945.8 L-978.3 -944.3 L-974.8 -942.5 L-971.6 -940.4 L-968.5 -938 L-965.6 -935.5 L-962.9 -932.7 L-960.5 -929.6 L-958.2 -926.5 L-956.3 -923.1 L-954.6 -919.6 L-953.3 -916 L-952.2 -912.3 L-951.4 -908.5 L-950.9 -904.6 L-950.7 -900.7 L-950.8 -896.9 L-951.2 -893 L-952 -889.2 L-953 -885.5 L-954.4 -881.8 L-956 -878.3 L-957.9 -874.9 L-960 -871.7 L-962.4 -868.7 L-965.1 -865.8 L-967.9 -863.2 L-971 -860.8 L-974.2 -858.7 L-977.6 -856.8 L-981.1 -855.2 L-984.8 -853.9 L-988.5 -852.9 L-992.3 -852.1 L-996.2 -851.7 L-1000 -851.6 Z " />
<path stroke="rgb(0,0,0)" stroke-opacity="1" fill="rgb(255,255,255)" fill-opacity="1" d="M-112.6 -88.26 L-112.6 -89.25 L-112.6 -90.23 L-112.6 -91.22 L-112.6 -92.2 L-112.6 -93.19 L-112.5 -94.17 L-112.5 -95.16 L-112.5 -96.14 L-112.5 -97.13 L-112.5 -98.11 L-112.5 -99.1 L-112.4 -100.1 L-112.4 -101.1 L-112.4 -102.1 L-112.4 -103 L-112.4 -104 L-112.4 -105 L-112.3 -106 L-112.3 -107 L-112.3 -108 L-112.3 -109 L-112.3 -109.9 L-112.3 -110.9 L-112.2 -111.9 L-112.2 -112.9 L-111.2 -112.9 L-110.3 -112.9 L-109.3 -112.8 L-108.3 -112.8 L-107.3 -112.8 L-106.3 -112.8 L-105.3 -112.8 L-104.3 -112.8 L-103.4 -112.7 L-102.4 -112.7 L-101.4 -112.7 L-100.4 -112.7 L-99.42 -112.7 L-98.44 -112.7 L-97.45 -112.6 L-96.47 -112.6 L-95.48 -112.6 L-94.49 -112.6 L-93.51 -112.6 L-92.52 -112.6 L-91.54 -112.5 L-90.55 -112.5 L-89.57 -112.5 L-88.58 -112.5 L-87.6 -112.5 L-87.61 -111.5 L-87.63 -110.5 L-87.65 -109.5 L-87.67 -108.5 L-87.68 -107.5 L-87.7 -106.6 L-87.72 -105.6 L-87.73 -104.6 L-87.75 -103.6 L-87.77 -102.6 L-87.78 -101.6 L-87.8 -100.7 L-87.82 -99.66 L-87.83 -98.68 L-87.85 -97.69 L-87.87 -96.71 L-87.88 -95.72 L-87.9 -94.74 L-87.92 -93.75 L-87.93 -92.77 L-87.95 -91.78 L-87.97 -90.8 L-87.98 -89.81 L-88 -88.83 L-88.02 -87.84 L-89 -87.86 L-89.99 -87.88 L-90.97 -87.89 L-91.96 -87.91 L-92.94 -87.93 L-93.93 -87.94 L-94.91 -87.96 L-95.9 -87.98 L-96.89 -87.99 L-97.87 -88.01 L-98.86 -88.03 L-99.84 -88.04 L-100.8 -88.06 L-101.8 -88.08 L-102.8 -88.09 L-103.8 -88.11 L-104.8 -88.13 L-105.8 -88.14 L-106.7 -88.16 L-107.7 -88.18 L-108.7 -88.19 L-109.7 -88.21 L-110.7 -88.23 L-111.7 -88.24 L-112.6 -88.26 Z " />
<path stroke="rgb(0,0,0)" stroke-opacity="1" fill="rgb(255,255,255)" fill-opacity="1" d="M-782.7 -842.2 L-786.5 -841.8 L-790.4 -841.7 L-794.3 -841.9 L-798.1 -842.5 L-801.9 -843.3 L-805.6 -844.4 L-809.2 -845.8 L-812.7 -847.5 L-816.1 -849.5 L-819.2 -851.7 L-822.2 -854.2 L-825 -856.9 L-827.6 -859.8 L-829.9 -862.9 L-831.9 -866.2 L-833.7 -869.6 L-835.3 -873.2 L-836.5 -876.9 L-837.4 -880.7 L-838 -884.5 L-838.4 -888.3 L-838.4 -892.2 L-838.1 -896.1 L-837.5 -899.9 L-836.6 -903.7 L-835.4 -907.4 L-833.9 -911 L-832.1 -914.4 L-830.1 -917.7 L-827.8 -920.8 L-825.3 -923.8 L-822.5 -926.5 L-819.6 -929 L-816.4 -931.3 L-813.1 -933.2 L-809.6 -935 L-806 -936.4 L-802.3 -937.6 L-798.5 -938.4 L-794.7 -939 L-790.8 -939.2 L-786.9 -939.2 L-783.1 -938.8 L-779.3 -938.1 L-775.5 -937.1 L-771.8 -935.9 L-768.3 -934.3 L-764.9 -932.5 L-761.6 -930.4 L-758.5 -928 L-755.6 -925.4 L-753 -922.6 L-750.5 -919.6 L-748.3 -916.4 L-746.4 -913 L-744.8 -909.5 L-743.4 -905.9 L-742.3 -902.2 L-741.5 -898.4 L-741.1 -894.5 L-740.9 -890.7 L-741 -886.8 L-741.5 -882.9 L-742.2 -879.1 L-743.3 -875.4 L-744.6 -871.8 L-746.2 -868.3 L-748.1 -864.9 L-750.3 -861.7 L-752.7 -858.6 L-755.4 -855.8 L-758.2 -853.2 L-761.3 -850.8 L-764.5 -848.7 L-767.9 -846.8 L-771.5 -845.2 L-775.1 -843.9 L-778.9 -842.9 L-782.7 -842.2 Z " />
<path stroke="rgb(0,0,0)" stroke-opacity="1" fill="rgb(255,255,255)" fill-opacity="1" d="M87.35 -88.26 L87.37 -89.25 L87.38 -90.23 L87.4 -91.22 L87.42 -92.2 L87.43 -93.19 L87.45 -94.17 L87.47 -95.16 L87.49 -96.14 L87.5 -97.13 L87.52 -98.11 L87.54 -99.1 L87.55 -100.1 L87.57 -101.1 L87.59 -102.1 L87.6 -103 L87.62 -104 L87.64 -105 L87.65 -106 L87.67 -107 L87.69 -108 L87.7 -109 L87.72 -109.9 L87.74 -110.9 L87.75 -111.9 L87.77 -112.9 L88.76 -112.9 L89.74 -112.9 L90.73 -112.8 L91.71 -112.8 L92.7 -112.8 L93.68 -112.8 L94.67 -112.8 L95.65 -112.8 L96.64 -112.7 L97.62 -112.7 L98.61 -112.7 L99.59 -112.7 L100.6 -112.7 L101.6 -112.7 L102.5 -112.6 L103.5 -112.6 L104.5 -112.6 L105.5 -112.6 L106.5 -112.6 L107.5 -112.6 L108.5 -112.5 L109.4 -112.5 L110.4 -112.5 L111.4 -112.5 L112.4 -112.5 L112.4 -111.5 L112.4 -110.5 L112.4 -109.5 L112.3 -108.5 L112.3 -107.5 L112.3 -106.6 L112.3 -105.6 L112.3 -104.6 L112.3 -103.6 L112.2 -102.6 L112.2 -101.6 L112.2 -100.7 L112.2 -99.66 L112.2 -98.68 L112.2 -97.69 L112.1 -96.71 L112.1 -95.72 L112.1 -94.74 L112.1 -93.75 L112.1 -92.77 L112 -91.78 L112 -90.8 L112 -89.81 L112 -88.83 L112 -87.84 L111 -87.86 L110 -87.88 L109 -87.89 L108 -87.91 L107.1 -87.93 L106.1 -87.94 L105.1 -87.96 L104.1 -87.98 L103.1 -87.99 L102.1 -88.01 L101.1 -88.03 L100.2 -88.04 L99.17 -88.06 L98.19 -88.08 L97.2 -88.09 L96.22 -88.11 L95.23 -88.13 L94.25 -88.14 L93.26 -88.16 L92.28 -88.18 L91.29 -88.19 L90.31 -88.21 L89.32 -88.23 L88.34 -88.24 L87.35 -88.26 Z " />
<path stroke="rgb(0,0,0)" stroke-opacity="1" fill="rgb(255,255,255)" fill-opacity="1" d="M-498.7 -810.4 L-501.1 -807.3 L-503.7 -804.5 L-506.5 -801.8 L-509.6 -799.4 L-512.8 -797.2 L-516.1 -795.3 L-519.7 -793.7 L-523.3 -792.3 L-527 -791.2 L-530.8 -790.5 L-534.7 -790 L-538.6 -789.9 L-542.4 -790 L-546.3 -790.5 L-550.1 -791.3 L-553.8 -792.3 L-557.5 -793.7 L-561 -795.3 L-564.3 -797.3 L-567.5 -799.5 L-570.6 -801.9 L-573.4 -804.5 L-576 -807.4 L-578.3 -810.5 L-580.5 -813.8 L-582.3 -817.2 L-583.9 -820.7 L-585.2 -824.4 L-586.1 -828.1 L-586.8 -832 L-587.2 -835.8 L-587.3 -839.7 L-587 -843.6 L-586.5 -847.4 L-585.7 -851.2 L-584.5 -854.9 L-583.1 -858.5 L-581.4 -862 L-579.4 -865.3 L-577.1 -868.5 L-574.6 -871.5 L-571.9 -874.2 L-569 -876.8 L-565.9 -879.1 L-562.6 -881.1 L-559.1 -882.9 L-555.5 -884.4 L-551.8 -885.6 L-548.1 -886.5 L-544.2 -887.1 L-540.4 -887.4 L-536.5 -887.4 L-532.6 -887.1 L-528.8 -886.5 L-525 -885.6 L-521.3 -884.3 L-517.8 -882.8 L-514.3 -881.1 L-511 -879 L-507.9 -876.7 L-505 -874.1 L-502.3 -871.4 L-499.8 -868.4 L-497.6 -865.2 L-495.6 -861.9 L-493.9 -858.4 L-492.4 -854.8 L-491.3 -851.1 L-490.5 -847.3 L-489.9 -843.4 L-489.7 -839.6 L-489.8 -835.7 L-490.2 -831.8 L-490.9 -828 L-491.9 -824.3 L-493.2 -820.6 L-494.7 -817.1 L-496.6 -813.7 L-498.7 -810.4 Z " />
<path stroke="rgb(0,0,0)" stroke-opacity="1" fill="rgb(255,255,255)" fill-opacity="1" d="M287.4 -88.26 L287.4 -89.25 L287.4 -90.23 L287.4 -91.22 L287.4 -92.2 L287.4 -93.19 L287.5 -94.17 L287.5 -95.16 L287.5 -96.14 L287.5 -97.13 L287.5 -98.11 L287.5 -99.1 L287.6 -100.1 L287.6 -101.1 L287.6 -102.1 L287.6 -103 L287.6 -104 L287.6 -105 L287.7 -106 L287.7 -107 L287.7 -108 L287.7 -109 L287.7 -109.9 L287.7 -110.9 L287.8 -111.9 L287.8 -112.9 L288.8 -112.9 L289.7 -112.9 L290.7 -112.8 L291.7 -112.8 L292.7 -112.8 L293.7 -112.8 L294.7 -112.8 L295.7 -112.8 L296.6 -112.7 L297.6 -112.7 L298.6 -112.7 L299.6 -112.7 L300.6 -112.7 L301.6 -112.7 L302.5 -112.6 L303.5 -112.6 L304.5 -112.6 L305.5 -112.6 L306.5 -112.6 L307.5 -112.6 L308.5 -112.5 L309.4 -112.5 L310.4 -112.5 L311.4 -112.5 L312.4 -112.5 L312.4 -111.5 L312.4 -110.5 L312.4 -109.5 L312.3 -108.5 L312.3 -107.5 L312.3 -106.6 L312.3 -105.6 L312.3 -104.6 L312.3 -103.6 L312.2 -102.6 L312.2 -101.6 L312.2 -100.7 L312.2 -99.66 L312.2 -98.68 L312.2 -97.69 L312.1 -96.71 L312.1 -95.72 L312.1 -94.74 L312.1 -93.75 L312.1 -92.77 L312 -91.78 L312 -90.8 L312 -89.81 L312 -88.83 L312 -87.84 L311 -87.86 L310 -87.88 L309 -87.89 L308 -87.91 L307.1 -87.93 L306.1 -87.94 L305.1 -87.96 L304.1 -87.98 L303.1 -87.99 L302.1 -88.01 L301.1 -88.03 L300.2 -88.04 L299.2 -88.06 L298.2 -88.08 L297.2 -88.09 L296.2 -88.11 L295.2 -88.13 L294.2 -88.14 L293.3 -88.16 L292.3 -88.18 L291.3 -88.19 L290.3 -88.21 L289.3 -88.23 L288.3 -88.24 L287.4 -88.26 Z " />
<path stroke="rgb(0,0,0)" stroke-opacity="1" fill="rgb(255,255,255)" fill-opacity="1" d="M-1100 -751.6 L-1104 -751.8 L-1108 -752.3 L-1112 -753.1 L-1115 -754.3 L-1119 -755.7 L-1122 -757.3 L-1126 -759.3 L-1129 -761.5 L-1132 -764 L-1135 -766.7 L-1137 -769.6 L-1140 -772.7 L-1142 -776 L-1143 -779.4 L-1145 -783 L-1146 -786.6 L-1147 -790.4 L-1148 -794.2 L-1148 -798.1 L-1148 -801.9 L-1148 -805.8 L-1147 -809.6 L-1146 -813.4 L-1145 -817.1 L-1144 -820.7 L-1142 -824.2 L-1140 -827.5 L-1138 -830.6 L-1135 -833.5 L-1132 -836.3 L-1129 -838.8 L-1126 -841.1 L-1123 -843.1 L-1120 -844.8 L-1116 -846.3 L-1112 -847.4 L-1108 -848.3 L-1105 -848.9 L-1101 -849.1 L-1097 -849.1 L-1093 -848.7 L-1089 -848.1 L-1085 -847.1 L-1082 -845.8 L-1078 -844.3 L-1075 -842.5 L-1072 -840.4 L-1068 -838 L-1066 -835.5 L-1063 -832.7 L-1060 -829.6 L-1058 -826.5 L-1056 -823.1 L-1055 -819.6 L-1053 -816 L-1052 -812.3 L-1051 -808.5 L-1051 -804.6 L-1051 -800.7 L-1051 -796.9 L-1051 -793 L-1052 -789.2 L-1053 -785.5 L-1054 -781.8 L-1056 -778.3 L-1058 -774.9 L-1060 -771.7 L-1062 -768.7 L-1065 -765.8 L-1068 -763.2 L-1071 -760.8 L-1074 -758.7 L-1078 -756.8 L-1081 -755.2 L-1085 -753.9 L-1089 -752.9 L-1092 -752.1 L-1096 -751.7 L-1100 -751.6 Z " />
<path stroke="rgb(0,0,0)" stroke-opacity="1" fill="rgb(255,255,255)" fill-opacity="1" d="M-212.6 11.74 L-212.6 10.75 L-212.6 9.768 L-212.6 8.783 L-212.6 7.797 L-212.6 6.812 L-212.5 5.827 L-212.5 4.842 L-212.5 3.856 L-212.5 2.871 L-212.5 1.886 L-212.5 0.9005 L-212.4 -0.08475 L-212.4 -1.07 L-212.4 -2.055 L-212.4 -3.041 L-212.4 -4.026 L-212.4 -5.011 L-212.3 -5.996 L-212.3 -6.982 L-212.3 -7.967 L-212.3 -8.952 L-212.3 -9.937 L-212.3 -10.92 L-212.2 -11.91 L-212.2 -12.89 L-211.2 -12.88 L-210.3 -12.86 L-209.3 -12.84 L-208.3 -12.83 L-207.3 -12.81 L-206.3 -12.79 L-205.3 -12.78 L-204.3 -12.76 L-203.4 -12.74 L-202.4 -12.73 L-201.4 -12.71 L-200.4 -12.69 L-199.4 -12.67 L-198.4 -12.66 L-197.5 -12.64 L-196.5 -12.62 L-195.5 -12.61 L-194.5 -12.59 L-193.5 -12.57 L-192.5 -12.56 L-191.5 -12.54 L-190.6 -12.52 L-189.6 -12.51 L-188.6 -12.49 L-187.6 -12.47 L-187.6 -11.49 L-187.6 -10.5 L-187.6 -9.517 L-187.7 -8.532 L-187.7 -7.547 L-187.7 -6.562 L-187.7 -5.576 L-187.7 -4.591 L-187.7 -3.606 L-187.8 -2.621 L-187.8 -1.635 L-187.8 -0.65 L-187.8 0.3352 L-187.8 1.32 L-187.8 2.306 L-187.9 3.291 L-187.9 4.276 L-187.9 5.262 L-187.9 6.247 L-187.9 7.232 L-188 8.217 L-188 9.203 L-188 10.19 L-188 11.17 L-188 12.16 L-189 12.14 L-190 12.12 L-191 12.11 L-192 12.09 L-192.9 12.07 L-193.9 12.06 L-194.9 12.04 L-195.9 12.02 L-196.9 12.01 L-197.9 11.99 L-198.9 11.97 L-199.8 11.96 L-200.8 11.94 L-201.8 11.92 L-202.8 11.91 L-203.8 11.89 L-204.8 11.87 L-205.8 11.86 L-206.7 11.84 L-207.7 11.82 L-208.7 11.81 L-209.7 11.79 L-210.7 11.77 L-211.7 11.76 L-212.6 11.74 Z " />
<path stroke="rgb(0,0,0)" stroke-opacity="1" fill="rgb(255,255,255)" fill-opacity="1" d="M-882.7 -742.2 L-886.5 -741.8 L-890.4 -741.7 L-894.3 -741.9 L-898.1 -742.5 L-901.9 -743.3 L-905.6 -744.4 L-909.2 -745.8 L-912.7 -747.5 L-916.1 -749.5 L-919.2 -751.7 L-922.2 -754.2 L-925 -756.9 L-927.6 -759.8 L-929.9 -762.9 L-931.9 -766.2 L-933.7 -769.6 L-935.3 -773.2 L-936.5 -776.9 L-937.4 -780.7 L-938 -784.5 L-938.4 -788.3 L-938.4 -792.2 L-938.1 -796.1 L-937.5 -799.9 L-936.6 -803.7 L-935.4 -807.4 L-933.9 -811 L-932.1 -814.4 L-930.1 -817.7 L-927.8 -820.8 L-925.3 -823.8 L-922.5 -826.5 L-919.6 -829 L-916.4 -831.3 L-913.1 -833.2 L-909.6 -835 L-906 -836.4 L-902.3 -837.6 L-898.5 -838.4 L-894.7 -839 L-890.8 -839.2 L-886.9 -839.2 L-883.1 -838.8 L-879.3 -838.1 L-875.5 -837.1 L-871.8 -835.9 L-868.3 -834.3 L-864.9 -832.5 L-861.6 -830.4 L-858.5 -828 L-855.6 -825.4 L-853 -822.6 L-850.5 -819.6 L-848.3 -816.4 L-846.4 -813 L-844.8 -809.5 L-843.4 -805.9 L-842.3 -802.2 L-841.5 -798.4 L-841.1 -794.5 L-840.9 -790.7 L-841 -786.8 L-841.5 -782.9 L-842.2 -779.1 L-843.3 -775.4 L-844.6 -771.8 L-846.2 -768.3 L-848.1 -764.9 L-850.3 -761.7 L-852.7 -758.6 L-855.4 -755.8 L-858.2 -753.2 L-861.3 -750.8 L-864.5 -748.7 L-867.9 -746.8 L-871.5 -745.2 L-875.1 -743.9 L-878.9 -742.9 L-882.7 -742.2 Z " />
<path stroke="rgb(0,0,0)" stroke-opacity="1" fill="rgb(255,255,255)" fill-opacity="1" d="M-12.65 11.74 L-12.63 10.75 L-12.62 9.768 L-12.6 8.783 L-12.58 7.797 L-12.57 6.812 L-12.55 5.827 L-12.53 4.842 L-12.51 3.856 L-12.5 2.871 L-12.48 1.886 L-12.46 0.9005 L-12.45 -0.08475 L-12.43 -1.07 L-12.41 -2.055 L-12.4 -3.041 L-12.38 -4.026 L-12.36 -5.011 L-12.35 -5.996 L-12.33 -6.982 L-12.31 -7.967 L-12.3 -8.952 L-12.28 -9.937 L-12.26 -10.92 L-12.25 -11.91 L-12.23 -12.89 L-11.24 -12.88 L-10.26 -12.86 L-9.273 -12.84 L-8.288 -12.83 L-7.303 -12.81 L-6.318 -12.79 L-5.332 -12.78 L-4.347 -12.76 L-3.362 -12.74 L-2.377 -12.73 L-1.391 -12.71 L-0.4061 -12.69 L0.5791 -12.67 L1.564 -12.66 L2.55 -12.64 L3.535 -12.62 L4.52 -12.61 L5.505 -12.59 L6.491 -12.57 L7.476 -12.56 L8.461 -12.54 L9.446 -12.52 L10.43 -12.51 L11.42 -12.49 L12.4 -12.47 L12.39 -11.49 L12.37 -10.5 L12.35 -9.517 L12.33 -8.532 L12.32 -7.547 L12.3 -6.562 L12.28 -5.576 L12.27 -4.591 L12.25 -3.606 L12.23 -2.621 L12.22 -1.635 L12.2 -0.65 L12.18 0.3352 L12.17 1.32 L12.15 2.306 L12.13 3.291 L12.12 4.276 L12.1 5.262 L12.08 6.247 L12.07 7.232 L12.05 8.217 L12.03 9.203 L12.02 10.19 L12 11.17 L11.98 12.16 L11 12.14 L10.01 12.12 L9.026 12.11 L8.041 12.09 L7.056 12.07 L6.071 12.06 L5.085 12.04 L4.1 12.02 L3.115 12.01 L2.13 11.99 L1.144 11.97 L0.1591 11.96 L-0.8261 11.94 L-1.811 11.92 L-2.797 11.91 L-3.782 11.89 L-4.767 11.87 L-5.752 11.86 L-6.738 11.84 L-7.723 11.82 L-8.708 11.81 L-9.693 11.79 L-10.68 11.77 L-11.66 11.76 L-12.65 11.74 Z " />
<path stroke="rgb(0,0,0)" stroke-opacity="1" fill="rgb(255,255,255)" fill-opacity="1" d="M-598.7 -710.4 L-601.1 -707.3 L-603.7 -704.5 L-606.5 -701.8 L-609.6 -699.4 L-612.8 -697.2 L-616.1 -695.3 L-619.7 -693.7 L-623.3 -692.3 L-627 -691.2 L-630.8 -690.5 L-634.7 -690 L-638.6 -689.9 L-642.4 -690 L-646.3 -690.5 L-650.1 -691.3 L-653.8 -692.3 L-657.5 -693.7 L-661 -695.3 L-664.3 -697.3 L-667.5 -699.5 L-670.6 -701.9 L-673.4 -704.5 L-676 -707.4 L-678.3 -710.5 L-680.5 -713.8 L-682.3 -717.2 L-683.9 -720.7 L-685.2 -724.4 L-686.1 -728.1 L-686.8 -732 L-687.2 -735.8 L-687.3 -739.7 L-687 -743.6 L-686.5 -747.4 L-685.7 -751.2 L-684.5 -754.9 L-683.1 -758.5 L-681.4 -762 L-679.4 -765.3 L-677.1 -768.5 L-674.6 -771.5 L-671.9 -774.2 L-669 -776.8 L-665.9 -779.1 L-662.6 -781.1 L-659.1 -782.9 L-655.5 -784.4 L-651.8 -785.6 L-648.1 -786.5 L-644.2 -787.1 L-640.4 -787.4 L-636.5 -787.4 L-632.6 -787.1 L-628.8 -786.5 L-625 -785.6 L-621.3 -784.3 L-617.8 -782.8 L-614.3 -781.1 L-611 -779 L-607.9 -776.7 L-605 -774.1 L-602.3 -771.4 L-599.8 -768.4 L-597.6 -765.2 L-595.6 -761.9 L-593.9 -758.4 L-592.4 -754.8 L-591.3 -751.1 L-590.5 -747.3 L-589.9 -743.4 L-589.7 -739.6 L-589.8 -735.7 L-590.2 -731.8 L-590.9 -728 L-591.9 -724.3 L-593.2 -720.6 L-594.7 -717.1 L-596.6 -713.7 L-598.7 -710.4 Z " />
<path stroke="rgb(0,0,0)" stroke-opacity="1" fill="rgb(255,255,255)" fill-opacity="1" d="M187.4 11.74 L187.4 10.75 L187.4 9.768 L187.4 8.783 L187.4 7.797 L187.4 6.812 L187.5 5.827 L187.5 4.842 L187.5 3.856 L187.5 2.871 L187.5 1.886 L187.5 0.9005 L187.6 -0.08475 L187.6 -1.07 L187.6 -2.055 L187.6 -3.041 L187.6 -4.026 L187.6 -5.011 L187.7 -5.996 L187.7 -6.982 L187.7 -7.967 L187.7 -8.952 L187.7 -9.937 L187.7 -10.92 L187.8 -11.91 L187.8 -12.89 L188.8 -12.88 L189.7 -12.86 L190.7 -12.84 L191.7 -12.83 L192.7 -12.81 L193.7 -12.79 L194.7 -12.78 L195.7 -12.76 L196.6 -12.74 L197.6 -12.73 L198.6 -12.71 L199.6 -12.69 L200.6 -12.67 L201.6 -12.66 L202.5 -12.64 L203.5 -12.62 L204.5 -12.61 L205.5 -12.59 L206.5 -12.57 L207.5 -12.56 L208.5 -12.54 L209.4 -12.52 L210.4 -12.51 L211.4 -12.49 L212.4 -12.47 L212.4 -11.49 L212.4 -10.5 L212.4 -9.517 L212.3 -8.532 L212.3 -7.547 L212.3 -6.562 L212.3 -5.576 L212.3 -4.591 L212.3 -3.606 L212.2 -2.621 L212.2 -1.635 L212.2 -0.65 L212.2 0.3352 L212.2 1.32 L212.2 2.306 L212.1 3.291 L212.1 4.276 L212.1 5.262 L212.1 6.247 L212.1 7.232 L212 8.217 L212 9.203 L212 10.19 L212 11.17 L212 12.16 L211 12.14 L210 12.12 L209 12.11 L208 12.09 L207.1 12.07 L206.1 12.06 L205.1 12.04 L204.1 12.02 L203.1 12.01 L202.1 11.99 L201.1 11.97 L200.2 11.96 L199.2 11.94 L198.2 11.92 L197.2 11.91 L196.2 11.89 L195.2 11.87 L194.2 11.86 L193.3 11.84 L192.3 11.82 L191.3 11.81 L190.3 11.79 L189.3 11.77 L188.3 11.76 L187.4 11.74 Z " />
<path stroke="rgb(0,0,0)" stroke-opacity="1" fill="rgb(255,255,255)" fill-opacity="1" d="M-355 -700.1 L-355.4 -696.2 L-356.2 -692.4 L-357.2 -688.7 L-358.5 -685 L-360.1 -681.5 L-362 -678.1 L-364.2 -674.8 L-366.6 -671.8 L-369.2 -668.9 L-372 -666.3 L-375.1 -663.9 L-378.3 -661.8 L-381.7 -659.9 L-385.3 -658.3 L-388.9 -656.9 L-392.6 -655.9 L-396.5 -655.2 L-400.3 -654.8 L-404.2 -654.6 L-408.1 -654.8 L-411.9 -655.3 L-415.7 -656.1 L-419.4 -657.2 L-423.1 -658.6 L-426.6 -660.3 L-429.9 -662.3 L-433.1 -664.5 L-436.1 -666.9 L-438.9 -669.6 L-441.5 -672.5 L-443.8 -675.6 L-445.9 -678.9 L-447.7 -682.3 L-449.3 -685.9 L-450.5 -689.6 L-451.5 -693.3 L-452.1 -697.2 L-452.5 -701 L-452.5 -704.9 L-452.2 -708.8 L-451.7 -712.6 L-450.8 -716.4 L-449.6 -720.1 L-448.1 -723.7 L-446.4 -727.2 L-444.4 -730.5 L-442.1 -733.6 L-439.6 -736.6 L-436.8 -739.3 L-433.9 -741.8 L-430.7 -744.1 L-427.4 -746.1 L-424 -747.9 L-420.4 -749.3 L-416.7 -750.5 L-412.9 -751.4 L-409 -752 L-405.2 -752.3 L-401.3 -752.2 L-397.4 -751.9 L-393.6 -751.2 L-389.8 -750.3 L-386.2 -749 L-382.6 -747.5 L-379.2 -745.7 L-375.9 -743.6 L-372.8 -741.2 L-369.9 -738.7 L-367.2 -735.9 L-364.7 -732.9 L-362.5 -729.7 L-360.6 -726.3 L-358.9 -722.8 L-357.5 -719.2 L-356.4 -715.5 L-355.6 -711.7 L-355.1 -707.8 L-354.9 -703.9 L-355 -700.1 Z " />
<path stroke="rgb(0,0,0)" stroke-opacity="1" fill="rgb(255,255,255)" fill-opacity="1" d="M-312.6 111.7 L-312.6 110.8 L-312.6 109.8 L-312.6 108.8 L-312.6 107.8 L-312.6 106.8 L-312.5 105.8 L-312.5 104.8 L-312.5 103.9 L-312.5 102.9 L-312.5 101.9 L-312.5 100.9 L-312.4 99.92 L-312.4 98.93 L-312.4 97.94 L-312.4 96.96 L-312.4 95.97 L-312.4 94.99 L-312.3 94 L-312.3 93.02 L-312.3 92.03 L-312.3 91.05 L-312.3 90.06 L-312.3 89.08 L-312.2 88.09 L-312.2 87.11 L-311.2 87.12 L-310.3 87.14 L-309.3 87.16 L-308.3 87.17 L-307.3 87.19 L-306.3 87.21 L-305.3 87.22 L-304.3 87.24 L-303.4 87.26 L-302.4 87.27 L-301.4 87.29 L-300.4 87.31 L-299.4 87.33 L-298.4 87.34 L-297.5 87.36 L-296.5 87.38 L-295.5 87.39 L-294.5 87.41 L-293.5 87.43 L-292.5 87.44 L-291.5 87.46 L-290.6 87.48 L-289.6 87.49 L-288.6 87.51 L-287.6 87.53 L-287.6 88.51 L-287.6 89.5 L-287.6 90.48 L-287.7 91.47 L-287.7 92.45 L-287.7 93.44 L-287.7 94.42 L-287.7 95.41 L-287.7 96.39 L-287.8 97.38 L-287.8 98.36 L-287.8 99.35 L-287.8 100.3 L-287.8 101.3 L-287.8 102.3 L-287.9 103.3 L-287.9 104.3 L-287.9 105.3 L-287.9 106.2 L-287.9 107.2 L-288 108.2 L-288 109.2 L-288 110.2 L-288 111.2 L-288 112.2 L-289 112.1 L-290 112.1 L-291 112.1 L-292 112.1 L-292.9 112.1 L-293.9 112.1 L-294.9 112 L-295.9 112 L-296.9 112 L-297.9 112 L-298.9 112 L-299.8 112 L-300.8 111.9 L-301.8 111.9 L-302.8 111.9 L-303.8 111.9 L-304.8 111.9 L-305.8 111.9 L-306.7 111.8 L-307.7 111.8 L-308.7 111.8 L-309.7 111.8 L-310.7 111.8 L-311.7 111.8 L-312.6 111.7 Z " />
<path stroke="rgb(0,0,0)" stroke-opacity="1" fill="rgb(255,255,255)" fill-opacity="1" d="M-982.7 -642.2 L-986.5 -641.8 L-990.4 -641.7 L-994.3 -641.9 L-998.1 -642.5 L-1002 -643.3 L-1006 -644.4 L-1009 -645.8 L-1013 -647.5 L-1016 -649.5 L-1019 -651.7 L-1022 -654.2 L-1025 -656.9 L-1028 -659.8 L-1030 -662.9 L-1032 -666.2 L-1034 -669.6 L-1035 -673.2 L-1036 -676.9 L-1037 -680.7 L-1038 -684.5 L-1038 -688.3 L-1038 -692.2 L-1038 -696.1 L-1037 -699.9 L-1037 -703.7 L-1035 -707.4 L-1034 -711 L-1032 -714.4 L-1030 -717.7 L-1028 -720.8 L-1025 -723.8 L-1023 -726.5 L-1020 -729 L-1016 -731.3 L-1013 -733.2 L-1010 -735 L-1006 -736.4 L-1002 -737.6 L-998.5 -738.4 L-994.7 -739 L-990.8 -739.2 L-986.9 -739.2 L-983.1 -738.8 L-979.3 -738.1 L-975.5 -737.1 L-971.8 -735.9 L-968.3 -734.3 L-964.9 -732.5 L-961.6 -730.4 L-958.5 -728 L-955.6 -725.4 L-953 -722.6 L-950.5 -719.6 L-948.3 -716.4 L-946.4 -713 L-944.8 -709.5 L-943.4 -705.9 L-942.3 -702.2 L-941.5 -698.4 L-941.1 -694.5 L-940.9 -690.7 L-941 -686.8 L-941.5 -682.9 L-942.2 -679.1 L-943.3 -675.4 L-944.6 -671.8 L-946.2 -668.3 L-948.1 -664.9 L-950.3 -661.7 L-952.7 -658.6 L-955.4 -655.8 L-958.2 -653.2 L-961.3 -650.8 L-964.5 -648.7 L-967.9 -646.8 L-971.5 -645.2 L-975.1 -643.9 L-978.9 -642.9 L-982.7 -642.2 Z " />
<path stroke="rgb(0,0,0)" stroke-opacity="1" fill="rgb(255,255,255)" fill-opacity="1" d="M-112.6 111.7 L-112.6 110.8 L-112.6 109.8 L-112.6 108.8 L-112.6 107.8 L-112.6 106.8 L-112.5 105.8 L-112.5 104.8 L-112.5 103.9 L-112.5 102.9 L-112.5 101.9 L-112.5 100.9 L-112.4 99.92 L-112.4 98.93 L-112.4 97.94 L-112.4 96.96 L-112.4 95.97 L-112.4 94.99 L-112.3 94 L-112.3 93.02 L-112.3 92.03 L-112.3 91.05 L-112.3 90.06 L-112.3 89.08 L-112.2 88.09 L-112.2 87.11 L-111.2 87.12 L-110.3 87.14 L-109.3 87.16 L-108.3 87.17 L-107.3 87.19 L-106.3 87.21 L-105.3 87.22 L-104.3 87.24 L-103.4 87.26 L-102.4 87.27 L-101.4 87.29 L-100.4 87.31 L-99.42 87.33 L-98.44 87.34 L-97.45 87.36 L-96.47 87.38 L-95.48 87.39 L-94.49 87.41 L-93.51 87.43 L-92.52 87.44 L-91.54 87.46 L-90.55 87.48 L-89.57 87.49 L-88.58 87.51 L-87.6 87.53 L-87.61 88.51 L-87.63 89.5 L-87.65 90.48 L-87.67 91.47 L-87.68 92.45 L-87.7 93.44 L-87.72 94.42 L-87.73 95.41 L-87.75 96.39 L-87.77 97.38 L-87.78 98.36 L-87.8 99.35 L-87.82 100.3 L-87.83 101.3 L-87.85 102.3 L-87.87 103.3 L-87.88 104.3 L-87.9 105.3 L-87.92 106.2 L-87.93 107.2 L-87.95 108.2 L-87.97 109.2 L-87.98 110.2 L-88 111.2 L-88.02 112.2 L-89 112.1 L-89.99 112.1 L-90.97 112.1 L-91.96 112.1 L-92.94 112.1 L-93.93 112.1 L-94.91 112 L-95.9 112 L-96.89 112 L-97.87 112 L-98.86 112 L-99.84 112 L-100.8 111.9 L-101.8 111.9 L-102.8 111.9 L-103.8 111.9 L-104.8 111.9 L-105.8 111.9 L-106.7 111.8 L-107.7 111.8 L-108.7 111.8 L-109.7 111.8 L-110.7 111.8 L-111.7 111.8 L-112.6 111.7 Z " />
<path stroke="rgb(0,0,0)" stroke-opacity="1" fill="rgb(255,255,255)" fill-opacity="1" d="M-698.7 -610.4 L-701.1 -607.3 L-703.7 -604.5 L-706.5 -601.8 L-709.6 -599.4 L-712.8 -597.2 L-716.1 -595.3 L-719.7 -593.7 L-723.3 -592.3 L-727 -591.2 L-730.8 -590.5 L-734.7 -590 L-738.6 -589.9 L-742.4 -590 L-746.3 -590.5 L-750.1 -591.3 L-753.8 -592.3 L-757.5 -593.7 L-761 -595.3 L-764.3 -597.3 L-767.5 -599.5 L-770.6 -601.9 L-773.4 -604.5 L-776 -607.4 L-778.3 -610.5 L-780.5 -613.8 L-782.3 -617.2 L-783.9 -620.7 L-785.2 -624.4 L-786.1 -628.1 L-786.8 -632 L-787.2 -635.8 L-787.3 -639.7 L-787 -643.6 L-786.5 -647.4 L-785.7 -651.2 L-784.5 -654.9 L-783.1 -658.5 L-781.4 -662 L-779.4 -665.3 L-777.1 -668.5 L-774.6 -671.5 L-771.9 -674.2 L-769 -676.8 L-765.9 -679.1 L-762.6 -681.1 L-759.1 -682.9 L-755.5 -684.4 L-751.8 -685.6 L-748.1 -686.5 L-744.2 -687.1 L-740.4 -687.4 L-736.5 -687.4 L-732.6 -687.1 L-728.8 -686.5 L-725 -685.6 L-721.3 -684.3 L-717.8 -682.8 L-714.3 -681.1 L-711 -679 L-707.9 -676.7 L-705 -674.1 L-702.3 -671.4 L-699.8 -668.4 L-697.6 -665.2 L-695.6 -661.9 L-693.9 -658.4 L-692.4 -654.8 L-691.3 -651.1 L-690.5 -647.3 L-689.9 -643.4 L-689.7 -639.6 L-689.8 -635.7 L-690.2 -631.8 L-690.9 -628 L-691.9 -624.3 L-693.2 -620.6 L-694.7 -617.1 L-696.6 -613.7 L-698.7 -610.4 Z " />
<path stroke="rgb(0,0,0)" stroke-opacity="1" fill="rgb(255,255,255)" fill-opacity="1" d="M87.35 111.7 L87.37 110.8 L87.38 109.8 L87.4 108.8 L87.42 107.8 L87.43 106.8 L87.45 105.8 L87.47 104.8 L87.49 103.9 L87.5 102.9 L87.52 101.9 L87.54 100.9 L87.55 99.92 L87.57 98.93 L87.59 97.94 L87.6 96.96 L87.62 95.97 L87.64 94.99 L87.65 94 L87.67 93.02 L87.69 92.03 L87.7 91.05 L87.72 90.06 L87.74 89.08 L87.75 88.09 L87.77 87.11 L88.76 87.12 L89.74 87.14 L90.73 87.16 L91.71 87.17 L92.7 87.19 L93.68 87.21 L94.67 87.22 L95.65 87.24 L96.64 87.26 L97.62 87.27 L98.61 87.29 L99.59 87.31 L100.6 87.33 L101.6 87.34 L102.5 87.36 L103.5 87.38 L104.5 87.39 L105.5 87.41 L106.5 87.43 L107.5 87.44 L108.5 87.46 L109.4 87.48 L110.4 87.49 L111.4 87.51 L112.4 87.53 L112.4 88.51 L112.4 89.5 L112.4 90.48 L112.3 91.47 L112.3 92.45 L112.3 93.44 L112.3 94.42 L112.3 95.41 L112.3 96.39 L112.2 97.38 L112.2 98.36 L112.2 99.35 L112.2 100.3 L112.2 101.3 L112.2 102.3 L112.1 103.3 L112.1 104.3 L112.1 105.3 L112.1 106.2 L112.1 107.2 L112 108.2 L112 109.2 L112 110.2 L112 111.2 L112 112.2 L111 112.1 L110 112.1 L109 112.1 L108 112.1 L107.1 112.1 L106.1 112.1 L105.1 112 L104.1 112 L103.1 112 L102.1 112 L101.1 112 L100.2 112 L99.17 111.9 L98.19 111.9 L97.2 111.9 L96.22 111.9 L95.23 111.9 L94.25 111.9 L93.26 111.8 L92.28 111.8 L91.29 111.8 L90.31 111.8 L89.32 111.8 L88.34 111.8 L87.35 111.7 Z " />
<path stroke="rgb(0,0,0)" stroke-opacity="1" fill="rgb(255,255,255)" fill-opacity="1" d="M-455 -600.1 L-455.4 -596.2 L-456.2 -592.4 L-457.2 -588.7 L-458.5 -585 L-460.1 -581.5 L-462 -578.1 L-464.2 -574.8 L-466.6 -571.8 L-469.2 -568.9 L-472 -566.3 L-475.1 -563.9 L-478.3 -561.8 L-481.7 -559.9 L-485.3 -558.3 L-488.9 -556.9 L-492.6 -555.9 L-496.5 -555.2 L-500.3 -554.8 L-504.2 -554.6 L-508.1 -554.8 L-511.9 -555.3 L-515.7 -556.1 L-519.4 -557.2 L-523.1 -558.6 L-526.6 -560.3 L-529.9 -562.3 L-533.1 -564.5 L-536.1 -566.9 L-538.9 -569.6 L-541.5 -572.5 L-543.8 -575.6 L-545.9 -578.9 L-547.7 -582.3 L-549.3 -585.9 L-550.5 -589.6 L-551.5 -593.3 L-552.1 -597.2 L-552.5 -601 L-552.5 -604.9 L-552.2 -608.8 L-551.7 -612.6 L-550.8 -616.4 L-549.6 -620.1 L-548.1 -623.7 L-546.4 -627.2 L-544.4 -630.5 L-542.1 -633.6 L-539.6 -636.6 L-536.8 -639.3 L-533.9 -641.8 L-530.7 -644.1 L-527.4 -646.1 L-524 -647.9 L-520.4 -649.3 L-516.7 -650.5 L-512.9 -651.4 L-509 -652 L-505.2 -652.3 L-501.3 -652.2 L-497.4 -651.9 L-493.6 -651.2 L-489.8 -650.3 L-486.2 -649 L-482.6 -647.5 L-479.2 -645.7 L-475.9 -643.6 L-472.8 -641.2 L-469.9 -638.7 L-467.2 -635.9 L-464.7 -632.9 L-462.5 -629.7 L-460.6 -626.3 L-458.9 -622.8 L-457.5 -619.2 L-456.4 -615.5 L-455.6 -611.7 L-455.1 -607.8 L-454.9 -603.9 L-455 -600.1 Z " />
<path stroke="rgb(0,0,0)" stroke-opacity="1" fill="rgb(255,255,255)" fill-opacity="1" d="M287.4 111.7 L287.4 110.8 L287.4 109.8 L287.4 108.8 L287.4 107.8 L287.4 106.8 L287.5 105.8 L287.5 104.8 L287.5 103.9 L287.5 102.9 L287.5 101.9 L287.5 100.9 L287.6 99.92 L287.6 98.93 L287.6 97.94 L287.6 96.96 L287.6 95.97 L287.6 94.99 L287.7 94 L287.7 93.02 L287.7 92.03 L287.7 91.05 L287.7 90.06 L287.7 89.08 L287.8 88.09 L287.8 87.11 L288.8 87.12 L289.7 87.14 L290.7 87.16 L291.7 87.17 L292.7 87.19 L293.7 87.21 L294.7 87.22 L295.7 87.24 L296.6 87.26 L297.6 87.27 L298.6 87.29 L299.6 87.31 L300.6 87.33 L301.6 87.34 L302.5 87.36 L303.5 87.38 L304.5 87.39 L305.5 87.41 L306.5 87.43 L307.5 87.44 L308.5 87.46 L309.4 87.48 L310.4 87.49 L311.4 87.51 L312.4 87.53 L312.4 88.51 L312.4 89.5 L312.4 90.48 L312.3 91.47 L312.3 92.45 L312.3 93.44 L312.3 94.42 L312.3 95.41 L312.3 96.39 L312.2 97.38 L312.2 98.36 L312.2 99.35 L312.2 100.3 L312.2 101.3 L312.2 102.3 L312.1 103.3 L312.1 104.3 L312.1 105.3 L312.1 106.2 L312.1 107.2 L312 108.2 L312 109.2 L312 110.2 L312 111.2 L312 112.2 L311 112.1 L310 112.1 L309 112.1 L308 112.1 L307.1 112.1 L306.1 112.1 L305.1 112 L304.1 112 L303.1 112 L302.1 112 L301.1 112 L300.2 112 L299.2 111.9 L298.2 111.9 L297.2 111.9 L296.2 111.9 L295.2 111.9 L294.2 111.9 L293.3 111.8 L292.3 111.8 L291.3 111.8 L290.3 111.8 L289.3 111.8 L288.3 111.8 L287.4 111.7 Z " />
<path stroke="rgb(0,0,0)" stroke-opacity="1" fill="rgb(255,255,255)" fill-opacity="1" d="M-1083 -542.2 L-1087 -541.8 L-1090 -541.7 L-1094 -541.9 L-1098 -542.5 L-1102 -543.3 L-1106 -544.4 L-1109 -545.8 L-1113 -547.5 L-1116 -549.5 L-1119 -551.7 L-1122 -554.2 L-1125 -556.9 L-1128 -559.8 L-1130 -562.9 L-1132 -566.2 L-1134 -569.6 L-1135 -573.2 L-1136 -576.9 L-1137 -580.7 L-1138 -584.5 L-1138 -588.3 L-1138 -592.2 L-1138 -596.1 L-1137 -599.9 L-1137 -603.7 L-1135 -607.4 L-1134 -611 L-1132 -614.4 L-1130 -617.7 L-1128 -620.8 L-1125 -623.8 L-1123 -626.5 L-1120 -629 L-1116 -631.3 L-1113 -633.2 L-1110 -635 L-1106 -636.4 L-1102 -637.6 L-1099 -638.4 L-1095 -639 L-1091 -639.2 L-1087 -639.2 L-1083 -638.8 L-1079 -638.1 L-1076 -637.1 L-1072 -635.9 L-1068 -634.3 L-1065 -632.5 L-1062 -630.4 L-1059 -628 L-1056 -625.4 L-1053 -622.6 L-1051 -619.6 L-1048 -616.4 L-1046 -613 L-1045 -609.5 L-1043 -605.9 L-1042 -602.2 L-1042 -598.4 L-1041 -594.5 L-1041 -590.7 L-1041 -586.8 L-1041 -582.9 L-1042 -579.1 L-1043 -575.4 L-1045 -571.8 L-1046 -568.3 L-1048 -564.9 L-1050 -561.7 L-1053 -558.6 L-1055 -555.8 L-1058 -553.2 L-1061 -550.8 L-1065 -548.7 L-1068 -546.8 L-1071 -545.2 L-1075 -543.9 L-1079 -542.9 L-1083 -542.2 Z " />
<path stroke="rgb(0,0,0)" stroke-opacity="1" fill="rgb(255,255,255)" fill-opacity="1" d="M-212.6 211.7 L-212.6 210.8 L-212.6 209.8 L-212.6 208.8 L-212.6 207.8 L-212.6 206.8 L-212.5 205.8 L-212.5 204.8 L-212.5 203.9 L-212.5 202.9 L-212.5 201.9 L-212.5 200.9 L-212.4 199.9 L-212.4 198.9 L-212.4 197.9 L-212.4 197 L-212.4 196 L-212.4 195 L-212.3 194 L-212.3 193 L-212.3 192 L-212.3 191 L-212.3 190.1 L-212.3 189.1 L-212.2 188.1 L-212.2 187.1 L-211.2 187.1 L-210.3 187.1 L-209.3 187.2 L-208.3 187.2 L-207.3 187.2 L-206.3 187.2 L-205.3 187.2 L-204.3 187.2 L-203.4 187.3 L-202.4 187.3 L-201.4 187.3 L-200.4 187.3 L-199.4 187.3 L-198.4 187.3 L-197.5 187.4 L-196.5 187.4 L-195.5 187.4 L-194.5 187.4 L-193.5 187.4 L-192.5 187.4 L-191.5 187.5 L-190.6 187.5 L-189.6 187.5 L-188.6 187.5 L-187.6 187.5 L-187.6 188.5 L-187.6 189.5 L-187.6 190.5 L-187.7 191.5 L-187.7 192.5 L-187.7 193.4 L-187.7 194.4 L-187.7 195.4 L-187.7 196.4 L-187.8 197.4 L-187.8 198.4 L-187.8 199.3 L-187.8 200.3 L-187.8 201.3 L-187.8 202.3 L-187.9 203.3 L-187.9 204.3 L-187.9 205.3 L-187.9 206.2 L-187.9 207.2 L-188 208.2 L-188 209.2 L-188 210.2 L-188 211.2 L-188 212.2 L-189 212.1 L-190 212.1 L-191 212.1 L-192 212.1 L-192.9 212.1 L-193.9 212.1 L-194.9 212 L-195.9 212 L-196.9 212 L-197.9 212 L-198.9 212 L-199.8 212 L-200.8 211.9 L-201.8 211.9 L-202.8 211.9 L-203.8 211.9 L-204.8 211.9 L-205.8 211.9 L-206.7 211.8 L-207.7 211.8 L-208.7 211.8 L-209.7 211.8 L-210.7 211.8 L-211.7 211.8 L-212.6 211.7 Z " />
<path stroke="rgb(0,0,0)" stroke-opacity="1" fill="rgb(255,255,255)" fill-opacity="1" d="M-798.7 -510.4 L-801.1 -507.3 L-803.7 -504.5 L-806.5 -501.8 L-809.6 -499.4 L-812.8 -497.2 L-816.1 -495.3 L-819.7 -493.7 L-823.3 -492.3 L-827 -491.2 L-830.8 -490.5 L-834.7 -490 L-838.6 -489.9 L-842.4 -490 L-846.3 -490.5 L-850.1 -491.3 L-853.8 -492.3 L-857.5 -493.7 L-861 -495.3 L-864.3 -497.3 L-867.5 -499.5 L-870.6 -501.9 L-873.4 -504.5 L-876 -507.4 L-878.3 -510.5 L-880.5 -513.8 L-882.3 -517.2 L-883.9 -520.7 L-885.2 -524.4 L-886.1 -528.1 L-886.8 -532 L-887.2 -535.8 L-887.3 -539.7 L-887 -543.6 L-886.5 -547.4 L-885.7 -551.2 L-884.5 -554.9 L-883.1 -558.5 L-881.4 -562 L-879.4 -565.3 L-877.1 -568.5 L-874.6 -571.5 L-871.9 -574.2 L-869 -576.8 L-865.9 -579.1 L-862.6 -581.1 L-859.1 -582.9 L-855.5 -584.4 L-851.8 -585.6 L-848.1 -586.5 L-844.2 -587.1 L-840.4 -587.4 L-836.5 -587.4 L-832.6 -587.1 L-828.8 -586.5 L-825 -585.6 L-821.3 -584.3 L-817.8 -582.8 L-814.3 -581.1 L-811 -579 L-807.9 -576.7 L-805 -574.1 L-802.3 -571.4 L-799.8 -568.4 L-797.6 -565.2 L-795.6 -561.9 L-793.9 -558.4 L-792.4 -554.8 L-791.3 -551.1 L-790.5 -547.3 L-789.9 -543.4 L-789.7 -539.6 L-789.8 -535.7 L-790.2 -531.8 L-790.9 -528 L-791.9 -524.3 L-793.2 -520.6 L-794.7 -517.1 L-796.6 -513.7 L-798.7 -510.4 Z " />
<path stroke="rgb(0,0,0)" stroke-opacity="1" fill="rgb(255,255,255)" fill-opacity="1" d="M-12.65 211.7 L-12.63 210.8 L-12.62 209.8 L-12.6 208.8 L-12.58 207.8 L-12.57 206.8 L-12.55 205.8 L-12.53 204.8 L-12.51 203.9 L-12.5 202.9 L-12.48 201.9 L-12.46 200.9 L-12.45 199.9 L-12.43 198.9 L-12.41 197.9 L-12.4 197 L-12.38 196 L-12.36 195 L-12.35 194 L-12.33 193 L-12.31 192 L-12.3 191 L-12.28 190.1 L-12.26 189.1 L-12.25 188.1 L-12.23 187.1 L-11.24 187.1 L-10.26 187.1 L-9.273 187.2 L-8.288 187.2 L-7.303 187.2 L-6.318 187.2 L-5.332 187.2 L-4.347 187.2 L-3.362 187.3 L-2.377 187.3 L-1.391 187.3 L-0.4061 187.3 L0.5791 187.3 L1.564 187.3 L2.55 187.4 L3.535 187.4 L4.52 187.4 L5.505 187.4 L6.491 187.4 L7.476 187.4 L8.461 187.5 L9.446 187.5 L10.43 187.5 L11.42 187.5 L12.4 187.5 L12.39 188.5 L12.37 189.5 L12.35 190.5 L12.33 191.5 L12.32 192.5 L12.3 193.4 L12.28 194.4 L12.27 195.4 L12.25 196.4 L12.23 197.4 L12.22 198.4 L12.2 199.3 L12.18 200.3 L12.17 201.3 L12.15 202.3 L12.13 203.3 L12.12 204.3 L12.1 205.3 L12.08 206.2 L12.07 207.2 L12.05 208.2 L12.03 209.2 L12.02 210.2 L12 211.2 L11.98 212.2 L11 212.1 L10.01 212.1 L9.026 212.1 L8.041 212.1 L7.056 212.1 L6.071 212.1 L5.085 212 L4.1 212 L3.115 212 L2.13 212 L1.144 212 L0.1591 212 L-0.8261 211.9 L-1.811 211.9 L-2.797 211.9 L-3.782 211.9 L-4.767 211.9 L-5.752 211.9 L-6.738 211.8 L-7.723 211.8 L-8.708 211.8 L-9.693 211.8 L-10.68 211.8 L-11.66 211.8 L-12.65 211.7 Z " />
<path stroke="rgb(0,0,0)" stroke-opacity="1" fill="rgb(255,255,255)" fill-opacity="1" d="M-555 -500.1 L-555.4 -496.2 L-556.2 -492.4 L-557.2 -488.7 L-558.5 -485 L-560.1 -481.5 L-562 -478.1 L-564.2 -474.8 L-566.6 -471.8 L-569.2 -468.9 L-572 -466.3 L-575.1 -463.9 L-578.3 -461.8 L-581.7 -459.9 L-585.3 -458.3 L-588.9 -456.9 L-592.6 -455.9 L-596.5 -455.2 L-600.3 -454.8 L-604.2 -454.6 L-608.1 -454.8 L-611.9 -455.3 L-615.7 -456.1 L-619.4 -457.2 L-623.1 -458.6 L-626.6 -460.3 L-629.9 -462.3 L-633.1 -464.5 L-636.1 -466.9 L-638.9 -469.6 L-641.5 -472.5 L-643.8 -475.6 L-645.9 -478.9 L-647.7 -482.3 L-649.3 -485.9 L-650.5 -489.6 L-651.5 -493.3 L-652.1 -497.2 L-652.5 -501 L-652.5 -504.9 L-652.2 -508.8 L-651.7 -512.6 L-650.8 -516.4 L-649.6 -520.1 L-648.1 -523.7 L-646.4 -527.2 L-644.4 -530.5 L-642.1 -533.6 L-639.6 -536.6 L-636.8 -539.3 L-633.9 -541.8 L-630.7 -544.1 L-627.4 -546.1 L-624 -547.9 L-620.4 -549.3 L-616.7 -550.5 L-612.9 -551.4 L-609 -552 L-605.2 -552.3 L-601.3 -552.2 L-597.4 -551.9 L-593.6 -551.2 L-589.8 -550.3 L-586.2 -549 L-582.6 -547.5 L-579.2 -545.7 L-575.9 -543.6 L-572.8 -541.2 L-569.9 -538.7 L-567.2 -535.9 L-564.7 -532.9 L-562.5 -529.7 L-560.6 -526.3 L-558.9 -522.8 L-557.5 -519.2 L-556.4 -515.5 L-555.6 -511.7 L-555.1 -507.8 L-554.9 -503.9 L-555 -500.1 Z " />
<path stroke="rgb(0,0,0)" stroke-opacity="1" fill="rgb(255,255,255)" fill-opacity="1" d="M187.4 211.7 L187.4 210.8 L187.4 209.8 L187.4 208.8 L187.4 207.8 L187.4 206.8 L187.5 205.8 L187.5 204.8 L187.5 203.9 L187.5 202.9 L187.5 201.9 L187.5 200.9 L187.6 199.9 L187.6 198.9 L187.6 197.9 L187.6 197 L187.6 196 L187.6 195 L187.7 194 L187.7 193 L187.7 192 L187.7 191 L187.7 190.1 L187.7 189.1 L187.8 188.1 L187.8 187.1 L188.8 187.1 L189.7 187.1 L190.7 187.2 L191.7 187.2 L192.7 187.2 L193.7 187.2 L194.7 187.2 L195.7 187.2 L196.6 187.3 L197.6 187.3 L198.6 187.3 L199.6 187.3 L200.6 187.3 L201.6 187.3 L202.5 187.4 L203.5 187.4 L204.5 187.4 L205.5 187.4 L206.5 187.4 L207.5 187.4 L208.5 187.5 L209.4 187.5 L210.4 187.5 L211.4 187.5 L212.4 187.5 L212.4 188.5 L212.4 189.5 L212.4 190.5 L212.3 191.5 L212.3 192.5 L212.3 193.4 L212.3 194.4 L212.3 195.4 L212.3 196.4 L212.2 197.4 L212.2 198.4 L212.2 199.3 L212.2 200.3 L212.2 201.3 L212.2 202.3 L212.1 203.3 L212.1 204.3 L212.1 205.3 L212.1 206.2 L212.1 207.2 L212 208.2 L212 209.2 L212 210.2 L212 211.2 L212 212.2 L211 212.1 L210 212.1 L209 212.1 L208 212.1 L207.1 212.1 L206.1 212.1 L205.1 212 L204.1 212 L203.1 212 L202.1 212 L201.1 212 L200.2 212 L199.2 211.9 L198.2 211.9 L197.2 211.9 L196.2 211.9 L195.2 211.9 L194.2 211.9 L193.3 211.8 L192.3 211.8 L191.3 211.8 L190.3 211.8 L189.3 211.8 L188.3 211.8 L187.4 211.7 Z " />
<path stroke="rgb(0,0,0)" stroke-opacity="1" fill="rgb(255,255,255)" fill-opacity="1" d="M-351.3 -499.2 L-351.5 -495.3 L-352 -491.5 L-352.8 -487.7 L-353.9 -483.9 L-355.3 -480.3 L-357 -476.8 L-359 -473.5 L-361.2 -470.3 L-363.7 -467.3 L-366.4 -464.5 L-369.3 -461.9 L-372.4 -459.6 L-375.7 -457.5 L-379.1 -455.7 L-382.7 -454.2 L-386.3 -453 L-390.1 -452 L-393.9 -451.4 L-397.8 -451 L-401.7 -451 L-405.6 -451.3 L-409.4 -451.9 L-413.2 -452.8 L-416.9 -454 L-420.5 -455.4 L-423.9 -457.2 L-427.2 -459.2 L-430.4 -461.5 L-433.3 -464 L-436.1 -466.8 L-438.6 -469.7 L-440.8 -472.9 L-442.8 -476.2 L-444.6 -479.7 L-446 -483.3 L-447.2 -487 L-448.1 -490.8 L-448.6 -494.6 L-448.9 -498.5 L-448.8 -502.4 L-448.5 -506.2 L-447.8 -510.1 L-446.9 -513.8 L-445.6 -517.5 L-444.1 -521 L-442.2 -524.5 L-440.1 -527.7 L-437.8 -530.8 L-435.2 -533.7 L-432.4 -536.4 L-429.4 -538.9 L-426.2 -541.1 L-422.8 -543 L-419.3 -544.7 L-415.7 -546.1 L-412 -547.2 L-408.2 -548 L-404.3 -548.4 L-400.4 -548.6 L-396.6 -548.5 L-392.7 -548.1 L-388.9 -547.3 L-385.2 -546.3 L-381.5 -544.9 L-378 -543.3 L-374.6 -541.4 L-371.4 -539.3 L-368.3 -536.9 L-365.5 -534.2 L-362.9 -531.4 L-360.5 -528.3 L-358.3 -525.1 L-356.4 -521.7 L-354.8 -518.1 L-353.5 -514.5 L-352.5 -510.7 L-351.8 -506.9 L-351.4 -503.1 L-351.3 -499.2 Z " />
<path stroke="rgb(0,0,0)" stroke-opacity="1" fill="rgb(255,255,255)" fill-opacity="1" d="M-312.6 311.7 L-312.6 310.8 L-312.6 309.8 L-312.6 308.8 L-312.6 307.8 L-312.6 306.8 L-312.5 305.8 L-312.5 304.8 L-312.5 303.9 L-312.5 302.9 L-312.5 301.9 L-312.5 300.9 L-312.4 299.9 L-312.4 298.9 L-312.4 297.9 L-312.4 297 L-312.4 296 L-312.4 295 L-312.3 294 L-312.3 293 L-312.3 292 L-312.3 291 L-312.3 290.1 L-312.3 289.1 L-312.2 288.1 L-312.2 287.1 L-311.2 287.1 L-310.3 287.1 L-309.3 287.2 L-308.3 287.2 L-307.3 287.2 L-306.3 287.2 L-305.3 287.2 L-304.3 287.2 L-303.4 287.3 L-302.4 287.3 L-301.4 287.3 L-300.4 287.3 L-299.4 287.3 L-298.4 287.3 L-297.5 287.4 L-296.5 287.4 L-295.5 287.4 L-294.5 287.4 L-293.5 287.4 L-292.5 287.4 L-291.5 287.5 L-290.6 287.5 L-289.6 287.5 L-288.6 287.5 L-287.6 287.5 L-287.6 288.5 L-287.6 289.5 L-287.6 290.5 L-287.7 291.5 L-287.7 292.5 L-287.7 293.4 L-287.7 294.4 L-287.7 295.4 L-287.7 296.4 L-287.8 297.4 L-287.8 298.4 L-287.8 299.3 L-287.8 300.3 L-287.8 301.3 L-287.8 302.3 L-287.9 303.3 L-287.9 304.3 L-287.9 305.3 L-287.9 306.2 L-287.9 307.2 L-288 308.2 L-288 309.2 L-288 310.2 L-288 311.2 L-288 312.2 L-289 312.1 L-290 312.1 L-291 312.1 L-292 312.1 L-292.9 312.1 L-293.9 312.1 L-294.9 312 L-295.9 312 L-296.9 312 L-297.9 312 L-298.9 312 L-299.8 312 L-300.8 311.9 L-301.8 311.9 L-302.8 311.9 L-303.8 311.9 L-304.8 311.9 L-305.8 311.9 L-306.7 311.8 L-307.7 311.8 L-308.7 311.8 L-309.7 311.8 L-310.7 311.8 L-311.7 311.8 L-312.6 311.7 Z " />
<path stroke="rgb(0,0,0)" stroke-opacity="1" fill="rgb(255,255,255)" fill-opacity="1" d="M-898.7 -410.4 L-901.1 -407.3 L-903.7 -404.5 L-906.5 -401.8 L-909.6 -399.4 L-912.8 -397.2 L-916.1 -395.3 L-919.7 -393.7 L-923.3 -392.3 L-927 -391.2 L-930.8 -390.5 L-934.7 -390 L-938.6 -389.9 L-942.4 -390 L-946.3 -390.5 L-950.1 -391.3 L-953.8 -392.3 L-957.5 -393.7 L-961 -395.3 L-964.3 -397.3 L-967.5 -399.5 L-970.6 -401.9 L-973.4 -404.5 L-976 -407.4 L-978.3 -410.5 L-980.5 -413.8 L-982.3 -417.2 L-983.9 -420.7 L-985.2 -424.4 L-986.1 -428.1 L-986.8 -432 L-987.2 -435.8 L-987.3 -439.7 L-987 -443.6 L-986.5 -447.4 L-985.7 -451.2 L-984.5 -454.9 L-983.1 -458.5 L-981.4 -462 L-979.4 -465.3 L-977.1 -468.5 L-974.6 -471.5 L-971.9 -474.2 L-969 -476.8 L-965.9 -479.1 L-962.6 -481.1 L-959.1 -482.9 L-955.5 -484.4 L-951.8 -485.6 L-948.1 -486.5 L-944.2 -487.1 L-940.4 -487.4 L-936.5 -487.4 L-932.6 -487.1 L-928.8 -486.5 L-925 -485.6 L-921.3 -484.3 L-917.8 -482.8 L-914.3 -481.1 L-911 -479 L-907.9 -476.7 L-905 -474.1 L-902.3 -471.4 L-899.8 -468.4 L-897.6 -465.2 L-895.6 -461.9 L-893.9 -458.4 L-892.4 -454.8 L-891.3 -451.1 L-890.5 -447.3 L-889.9 -443.4 L-889.7 -439.6 L-889.8 -435.7 L-890.2 -431.8 L-890.9 -428 L-891.9 -424.3 L-893.2 -420.6 L-894.7 -417.1 L-896.6 -413.7 L-898.7 -410.4 Z " />
<path stroke="rgb(0,0,0)" stroke-opacity="1" fill="rgb(255,255,255)" fill-opacity="1" d="M-112.6 311.7 L-112.6 310.8 L-112.6 309.8 L-112.6 308.8 L-112.6 307.8 L-112.6 306.8 L-112.5 305.8 L-112.5 304.8 L-112.5 303.9 L-112.5 302.9 L-112.5 301.9 L-112.5 300.9 L-112.4 299.9 L-112.4 298.9 L-112.4 297.9 L-112.4 297 L-112.4 296 L-112.4 295 L-112.3 294 L-112.3 293 L-112.3 292 L-112.3 291 L-112.3 290.1 L-112.3 289.1 L-112.2 288.1 L-112.2 287.1 L-111.2 287.1 L-110.3 287.1 L-109.3 287.2 L-108.3 287.2 L-107.3 287.2 L-106.3 287.2 L-105.3 287.2 L-104.3 287.2 L-103.4 287.3 L-102.4 287.3 L-101.4 287.3 L-100.4 287.3 L-99.42 287.3 L-98.44 287.3 L-97.45 287.4 L-96.47 287.4 L-95.48 287.4 L-94.49 287.4 L-93.51 287.4 L-92.52 287.4 L-91.54 287.5 L-90.55 287.5 L-89.57 287.5 L-88.58 287.5 L-87.6 287.5 L-87.61 288.5 L-87.63 289.5 L-87.65 290.5 L-87.67 291.5 L-87.68 292.5 L-87.7 293.4 L-87.72 294.4 L-87.73 295.4 L-87.75 296.4 L-87.77 297.4 L-87.78 298.4 L-87.8 299.3 L-87.82 300.3 L-87.83 301.3 L-87.85 302.3 L-87.87 303.3 L-87.88 304.3 L-87.9 305.3 L-87.92 306.2 L-87.93 307.2 L-87.95 308.2 L-87.97 309.2 L-87.98 310.2 L-88 311.2 L-88.02 312.2 L-89 312.1 L-89.99 312.1 L-90.97 312.1 L-91.96 312.1 L-92.94 312.1 L-93.93 312.1 L-94.91 312 L-95.9 312 L-96.89 312 L-97.87 312 L-98.86 312 L-99.84 312 L-100.8 311.9 L-101.8 311.9 L-102.8 311.9 L-103.8 311.9 L-104.8 311.9 L-105.8 311.9 L-106.7 311.8 L-107.7 311.8 L-108.7 311.8 L-109.7 311.8 L-110.7 311.8 L-111.7 311.8 L-112.6 311.7 Z " />
<path stroke="rgb(0,0,0)" stroke-opacity="1" fill="rgb(255,255,255)" fill-opacity="1" d="M-655 -400.1 L-655.4 -396.2 L-656.2 -392.4 L-657.2 -388.7 L-658.5 -385 L-660.1 -381.5 L-662 -378.1 L-664.2 -374.8 L-666.6 -371.8 L-669.2 -368.9 L-672 -366.3 L-675.1 -363.9 L-678.3 -361.8 L-681.7 -359.9 L-685.3 -358.3 L-688.9 -356.9 L-692.6 -355.9 L-696.5 -355.2 L-700.3 -354.8 L-704.2 -354.6 L-708.1 -354.8 L-711.9 -355.3 L-715.7 -356.1 L-719.4 -357.2 L-723.1 -358.6 L-726.6 -360.3 L-729.9 -362.3 L-733.1 -364.5 L-736.1 -366.9 L-738.9 -369.6 L-741.5 -372.5 L-743.8 -375.6 L-745.9 -378.9 L-747.7 -382.3 L-749.3 -385.9 L-750.5 -389.6 L-751.5 -393.3 L-752.1 -397.2 L-752.5 -401 L-752.5 -404.9 L-752.2 -408.8 L-751.7 -412.6 L-750.8 -416.4 L-749.6 -420.1 L-748.1 -423.7 L-746.4 -427.2 L-744.4 -430.5 L-742.1 -433.6 L-739.6 -436.6 L-736.8 -439.3 L-733.9 -441.8 L-730.7 -444.1 L-727.4 -446.1 L-724 -447.9 L-720.4 -449.3 L-716.7 -450.5 L-712.9 -451.4 L-709 -452 L-705.2 -452.3 L-701.3 -452.2 L-697.4 -451.9 L-693.6 -451.2 L-689.8 -450.3 L-686.2 -449 L-682.6 -447.5 L-679.2 -445.7 L-675.9 -443.6 L-672.8 -441.2 L-669.9 -438.7 L-667.2 -435.9 L-664.7 -432.9 L-662.5 -429.7 L-660.6 -426.3 L-658.9 -422.8 L-657.5 -419.2 L-656.4 -415.5 L-655.6 -411.7 L-655.1 -407.8 L-654.9 -403.9 L-655 -400.1 Z " />
<path stroke="rgb(0,0,0)" stroke-opacity="1" fill="rgb(255,255,255)" fill-opacity="1" d="M87.35 311.7 L87.37 310.8 L87.38 309.8 L87.4 308.8 L87.42 307.8 L87.43 306.8 L87.45 305.8 L87.47 304.8 L87.49 303.9 L87.5 302.9 L87.52 301.9 L87.54 300.9 L87.55 299.9 L87.57 298.9 L87.59 297.9 L87.6 297 L87.62 296 L87.64 295 L87.65 294 L87.67 293 L87.69 292 L87.7 291 L87.72 290.1 L87.74 289.1 L87.75 288.1 L87.77 287.1 L88.76 287.1 L89.74 287.1 L90.73 287.2 L91.71 287.2 L92.7 287.2 L93.68 287.2 L94.67 287.2 L95.65 287.2 L96.64 287.3 L97.62 287.3 L98.61 287.3 L99.59 287.3 L100.6 287.3 L101.6 287.3 L102.5 287.4 L103.5 287.4 L104.5 287.4 L105.5 287.4 L106.5 287.4 L107.5 287.4 L108.5 287.5 L109.4 287.5 L110.4 287.5 L111.4 287.5 L112.4 287.5 L112.4 288.5 L112.4 289.5 L112.4 290.5 L112.3 291.5 L112.3 292.5 L112.3 293.4 L112.3 294.4 L112.3 295.4 L112.3 296.4 L112.2 297.4 L112.2 298.4 L112.2 299.3 L112.2 300.3 L112.2 301.3 L112.2 302.3 L112.1 303.3 L112.1 304.3 L112.1 305.3 L112.1 306.2 L112.1 307.2 L112 308.2 L112 309.2 L112 310.2 L112 311.2 L112 312.2 L111 312.1 L110 312.1 L109 312.1 L108 312.1 L107.1 312.1 L106.1 312.1 L105.1 312 L104.1 312 L103.1 312 L102.1 312 L101.1 312 L100.2 312 L99.17 311.9 L98.19 311.9 L97.2 311.9 L96.22 311.9 L95.23 311.9 L94.25 311.9 L93.26 311.8 L92.28 311.8 L91.29 311.8 L90.31 311.8 L89.32 311.8 L88.34 311.8 L87.35 311.7 Z " />
<path stroke="rgb(0,0,0)" stroke-opacity="1" fill="rgb(255,255,255)" fill-opacity="1" d="M-451.3 -399.2 L-451.5 -395.3 L-452 -391.5 L-452.8 -387.7 L-453.9 -383.9 L-455.3 -380.3 L-457 -376.8 L-459 -373.5 L-461.2 -370.3 L-463.7 -367.3 L-466.4 -364.5 L-469.3 -361.9 L-472.4 -359.6 L-475.7 -357.5 L-479.1 -355.7 L-482.7 -354.2 L-486.3 -353 L-490.1 -352 L-493.9 -351.4 L-497.8 -351 L-501.7 -351 L-505.6 -351.3 L-509.4 -351.9 L-513.2 -352.8 L-516.9 -354 L-520.5 -355.4 L-523.9 -357.2 L-527.2 -359.2 L-530.4 -361.5 L-533.3 -364 L-536.1 -366.8 L-538.6 -369.7 L-540.8 -372.9 L-542.8 -376.2 L-544.6 -379.7 L-546 -383.3 L-547.2 -387 L-548.1 -390.8 L-548.6 -394.6 L-548.9 -398.5 L-548.8 -402.4 L-548.5 -406.2 L-547.8 -410.1 L-546.9 -413.8 L-545.6 -417.5 L-544.1 -421 L-542.2 -424.5 L-540.1 -427.7 L-537.8 -430.8 L-535.2 -433.7 L-532.4 -436.4 L-529.4 -438.9 L-526.2 -441.1 L-522.8 -443 L-519.3 -444.7 L-515.7 -446.1 L-512 -447.2 L-508.2 -448 L-504.3 -448.4 L-500.4 -448.6 L-496.6 -448.5 L-492.7 -448.1 L-488.9 -447.3 L-485.2 -446.3 L-481.5 -444.9 L-478 -443.3 L-474.6 -441.4 L-471.4 -439.3 L-468.3 -436.9 L-465.5 -434.2 L-462.9 -431.4 L-460.5 -428.3 L-458.3 -425.1 L-456.4 -421.7 L-454.8 -418.1 L-453.5 -414.5 L-452.5 -410.7 L-451.8 -406.9 L-451.4 -403.1 L-451.3 -399.2 Z " />
<path stroke="rgb(0,0,0)" stroke-opacity="1" fill="rgb(255,255,255)" fill-opacity="1" d="M287.4 311.7 L287.4 310.8 L287.4 309.8 L287.4 308.8 L287.4 307.8 L287.4 306.8 L287.5 305.8 L287.5 304.8 L287.5 303.9 L287.5 302.9 L287.5 301.9 L287.5 300.9 L287.6 299.9 L287.6 298.9 L287.6 297.9 L287.6 297 L287.6 296 L287.6 295 L287.7 294 L287.7 293 L287.7 292 L287.7 291 L287.7 290.1 L287.7 289.1 L287.8 288.1 L287.8 287.1 L288.8 287.1 L289.7 287.1 L290.7 287.2 L291.7 287.2 L292.7 287.2 L293.7 287.2 L294.7 287.2 L295.7 287.2 L296.6 287.3 L297.6 287.3 L298.6 287.3 L299.6 287.3 L300.6 287.3 L301.6 287.3 L302.5 287.4 L303.5 287.4 L304.5 287.4 L305.5 287.4 L306.5 287.4 L307.5 287.4 L308.5 287.5 L309.4 287.5 L310.4 287.5 L311.4 287.5 L312.4 287.5 L312.4 288.5 L312.4 289.5 L312.4 290.5 L312.3 291.5 L312.3 292.5 L312.3 293.4 L312.3 294.4 L312.3 295.4 L312.3 296.4 L312.2 297.4 L312.2 298.4 L312.2 299.3 L312.2 300.3 L312.2 301.3 L312.2 302.3 L312.1 303.3 L312.1 304.3 L312.1 305.3 L312.1 306.2 L312.1 307.2 L312 308.2 L312 309.2 L312 310.2 L312 311.2 L312 312.2 L311 312.1 L310 312.1 L309 312.1 L308 312.1 L307.1 312.1 L306.1 312.1 L305.1 312 L304.1 312 L303.1 312 L302.1 312 L301.1 312 L300.2 312 L299.2 311.9 L298.2 311.9 L297.2 311.9 L296.2 311.9 L295.2 311.9 L294.2 311.9 L293.3 311.8 L292.3 311.8 L291.3 311.8 L290.3 311.8 L289.3 311.8 L288.3 311.8 L287.4 311.7 Z " />
</g>
</g>
</svg>
