<!DOCTYPE svg>
<svg xmlns="http://www.w3.org/2000/svg" xmlns:xlink="http://www.w3.org/1999/xlink" width="1000" height="1000">
<g transform="translate(500.000000,500.000000)">
<g transform="scale(3.000000,3.000000)">
<path stroke="rgb(0,0,0)" stroke-opacity="1" fill="rgb(255,255,255)" fill-opacity="1" d="M-732.6 -709.2 L-732.4 -710.1 L-732.1 -711.1 L-731.8 -712 L-731.5 -713 L-731.3 -713.9 L-731 -714.9 L-730.7 -715.8 L-730.4 -716.8 L-730.2 -717.7 L-729.9 -718.7 L-729.6 -719.6 L-729.3 -720.5 L-729.1 -721.5 L-728.8 -722.4 L-728.5 -723.4 L-728.2 -724.3 L-728 -725.3 L-727.7 -726.2 L-727.4 -727.2 L-727.2 -728.1 L-726.9 -729.1 L-726.6 -730 L-726.3 -731 L-726.1 -731.9 L-725.8 -732.9 L-724.8 -732.6 L-723.9 -732.3 L-722.9 -732 L-722 -731.8 L-721.1 -731.5 L-720.1 -731.2 L-719.2 -730.9 L-718.2 -730.7 L-717.3 -730.4 L-716.3 -730.1 L-715.4 -729.9 L-714.4 -729.6 L-713.5 -729.3 L-712.5 -729 L-711.6 -728.8 L-710.6 -728.5 L-709.7 -728.2 L-708.7 -727.9 L-707.8 -727.7 L-706.8 -727.4 L-705.9 -727.1 L-704.9 -726.8 L-704 -726.6 L-703.1 -726.3 L-702.1 -726 L-702.4 -725.1 L-702.7 -724.1 L-702.9 -723.2 L-703.2 -722.2 L-703.5 -721.3 L-703.7 -720.3 L-704 -719.4 L-704.3 -718.4 L-704.6 -717.5 L-704.8 -716.5 L-705.1 -715.6 L-705.4 -714.7 L-705.7 -713.7 L-705.9 -712.8 L-706.2 -711.8 L-706.5 -710.9 L-706.8 -709.9 L-707 -709 L-707.3 -708 L-707.6 -707.1 L-707.9 -706.1 L-708.1 -705.2 L-708.4 -704.2 L-708.7 -703.3 L-708.9 -702.3 L-709.9 -702.6 L-710.8 -702.9 L-711.8 -703.2 L-712.7 -703.4 L-713.7 -703.7 L-714.6 -704 L-715.6 -704.3 L-716.5 -704.5 L-717.5 -704.8 L-718.4 -705.1 L-719.4 -705.4 L-720.3 -705.6 L-721.3 -705.9 L-722.2 -706.2 L-723.2 -706.4 L-724.1 -706.7 L-725.1 -707 L-726 -707.3 L-726.9 -707.5 L-727.9 -707.8 L-728.8 -708.1 L-729.8 -708.4 L-730.7 -708.6 L-731.7 -708.9 L-732.6 -709.2 Z " />
<path stroke="rgb(0,0,0)" stroke-opacity="1" fill="rgb(255,255,255)" fill-opacity="1" d="M-199.6 -312.2 L-198.6 -312.2 L-197.6 -312.1 L-196.6 -311.9 L-195.7 -311.6 L-194.8 -311.2 L-193.9 -310.8 L-193 -310.3 L-192.2 -309.7 L-191.5 -309.1 L-190.8 -308.4 L-190.1 -307.7 L-189.5 -306.9 L-189 -306.1 L-188.5 -305.2 L-188.1 -304.3 L-187.8 -303.4 L-187.6 -302.4 L-187.4 -301.4 L-187.3 -300.5 L-187.3 -299.5 L-187.4 -298.5 L-187.5 -297.5 L-187.7 -296.6 L-188 -295.6 L-188.4 -294.7 L-188.9 -293.8 L-189.4 -293 L-189.9 -292.2 L-190.6 -291.4 L-191.3 -290.7 L-192 -290.1 L-192.8 -289.5 L-193.7 -289 L-194.6 -288.6 L-195.5 -288.2 L-196.4 -287.9 L-197.4 -287.7 L-198.3 -287.5 L-199.3 -287.5 L-200.3 -287.5 L-201.3 -287.6 L-202.3 -287.7 L-203.2 -288 L-204.1 -288.3 L-205.1 -288.7 L-205.9 -289.1 L-206.8 -289.7 L-207.5 -290.3 L-208.3 -290.9 L-209 -291.6 L-209.6 -292.4 L-210.1 -293.2 L-210.6 -294 L-211.1 -294.9 L-211.4 -295.9 L-211.7 -296.8 L-211.9 -297.8 L-212 -298.7 L-212.1 -299.7 L-212 -300.7 L-211.9 -301.7 L-211.8 -302.7 L-211.5 -303.6 L-211.2 -304.5 L-210.7 -305.4 L-210.3 -306.3 L-209.7 -307.1 L-209.1 -307.9 L-208.4 -308.6 L-207.7 -309.3 L-206.9 -309.9 L-206.1 -310.4 L-205.3 -310.9 L-204.4 -311.3 L-203.4 -311.7 L-202.5 -311.9 L-201.5 -312.1 L-200.5 -312.2 L-199.6 -312.2 Z " />
<path stroke="rgb(0,0,0)" stroke-opacity="1" fill="rgb(255,255,255)" fill-opacity="1" d="M-519.6 -695.3 L-519.5 -696.3 L-519.4 -697.2 L-519.3 -698.2 L-519.2 -699.2 L-519.1 -700.2 L-519 -701.2 L-518.9 -702.1 L-518.7 -703.1 L-518.6 -704.1 L-518.5 -705.1 L-518.4 -706.1 L-518.3 -707.1 L-518.2 -708 L-518.1 -709 L-518 -710 L-517.9 -711 L-517.8 -712 L-517.7 -712.9 L-517.6 -713.9 L-517.5 -714.9 L-517.4 -715.9 L-517.3 -716.9 L-517.2 -717.8 L-517.1 -718.8 L-517 -719.8 L-516 -719.7 L-515.1 -719.6 L-514.1 -719.5 L-513.1 -719.4 L-512.1 -719.3 L-511.1 -719.2 L-510.2 -719.1 L-509.2 -719 L-508.2 -718.9 L-507.2 -718.8 L-506.2 -718.7 L-505.3 -718.6 L-504.3 -718.5 L-503.3 -718.4 L-502.3 -718.3 L-501.3 -718.2 L-500.4 -718.1 L-499.4 -718 L-498.4 -717.9 L-497.4 -717.8 L-496.4 -717.7 L-495.4 -717.6 L-494.5 -717.5 L-493.5 -717.4 L-492.5 -717.3 L-492.6 -716.3 L-492.7 -715.3 L-492.8 -714.3 L-492.9 -713.3 L-493 -712.4 L-493.1 -711.4 L-493.2 -710.4 L-493.3 -709.4 L-493.4 -708.4 L-493.5 -707.5 L-493.6 -706.5 L-493.7 -705.5 L-493.8 -704.5 L-493.9 -703.5 L-494 -702.6 L-494.1 -701.6 L-494.2 -700.6 L-494.3 -699.6 L-494.4 -698.6 L-494.5 -697.7 L-494.6 -696.7 L-494.7 -695.7 L-494.8 -694.7 L-494.9 -693.7 L-495 -692.7 L-496 -692.8 L-497 -692.9 L-498 -693.1 L-499 -693.2 L-499.9 -693.3 L-500.9 -693.4 L-501.9 -693.5 L-502.9 -693.6 L-503.9 -693.7 L-504.8 -693.8 L-505.8 -693.9 L-506.8 -694 L-507.8 -694.1 L-508.8 -694.2 L-509.8 -694.3 L-510.7 -694.4 L-511.7 -694.5 L-512.7 -694.6 L-513.7 -694.7 L-514.7 -694.8 L-515.6 -694.9 L-516.6 -695 L-517.6 -695.1 L-518.6 -695.2 L-519.6 -695.3 Z " />
<path stroke="rgb(0,0,0)" stroke-opacity="1" fill="rgb(255,255,255)" fill-opacity="1" d="M0.4383 -312.2 L1.422 -312.2 L2.399 -312.1 L3.363 -311.9 L4.307 -311.6 L5.227 -311.2 L6.115 -310.8 L6.966 -310.3 L7.775 -309.7 L8.537 -309.1 L9.248 -308.4 L9.901 -307.7 L10.49 -306.9 L11.02 -306.1 L11.48 -305.2 L11.87 -304.3 L12.19 -303.4 L12.43 -302.4 L12.6 -301.4 L12.69 -300.5 L12.7 -299.5 L12.63 -298.5 L12.48 -297.5 L12.26 -296.6 L11.96 -295.6 L11.58 -294.7 L11.14 -293.8 L10.63 -293 L10.05 -292.2 L9.411 -291.4 L8.714 -290.7 L7.964 -290.1 L7.166 -289.5 L6.324 -289 L5.444 -288.6 L4.532 -288.2 L3.593 -287.9 L2.633 -287.7 L1.659 -287.5 L0.6762 -287.5 L-0.3089 -287.5 L-1.29 -287.6 L-2.261 -287.7 L-3.216 -288 L-4.149 -288.3 L-5.053 -288.7 L-5.923 -289.1 L-6.754 -289.7 L-7.541 -290.3 L-8.278 -290.9 L-8.96 -291.6 L-9.584 -292.4 L-10.14 -293.2 L-10.64 -294 L-11.07 -294.9 L-11.42 -295.9 L-11.7 -296.8 L-11.9 -297.8 L-12.03 -298.7 L-12.08 -299.7 L-12.05 -300.7 L-11.94 -301.7 L-11.76 -302.7 L-11.49 -303.6 L-11.16 -304.5 L-10.75 -305.4 L-10.27 -306.3 L-9.725 -307.1 L-9.116 -307.9 L-8.447 -308.6 L-7.723 -309.3 L-6.949 -309.9 L-6.128 -310.4 L-5.267 -310.9 L-4.37 -311.3 L-3.444 -311.7 L-2.494 -311.9 L-1.526 -312.1 L-0.5465 -312.2 L0.4383 -312.2 Z " />
<path stroke="rgb(0,0,0)" stroke-opacity="1" fill="rgb(255,255,255)" fill-opacity="1" d="M-313.9 -689.5 L-313.9 -690.5 L-313.8 -691.4 L-313.8 -692.4 L-313.8 -693.4 L-313.7 -694.4 L-313.7 -695.4 L-313.7 -696.4 L-313.7 -697.4 L-313.6 -698.3 L-313.6 -699.3 L-313.6 -700.3 L-313.6 -701.3 L-313.5 -702.3 L-313.5 -703.3 L-313.5 -704.3 L-313.4 -705.2 L-313.4 -706.2 L-313.4 -707.2 L-313.4 -708.2 L-313.3 -709.2 L-313.3 -710.2 L-313.3 -711.2 L-313.3 -712.2 L-313.2 -713.1 L-313.2 -714.1 L-312.2 -714.1 L-311.2 -714.1 L-310.2 -714 L-309.3 -714 L-308.3 -714 L-307.3 -714 L-306.3 -713.9 L-305.3 -713.9 L-304.3 -713.9 L-303.3 -713.9 L-302.4 -713.8 L-301.4 -713.8 L-300.4 -713.8 L-299.4 -713.7 L-298.4 -713.7 L-297.4 -713.7 L-296.4 -713.7 L-295.5 -713.6 L-294.5 -713.6 L-293.5 -713.6 L-292.5 -713.6 L-291.5 -713.5 L-290.5 -713.5 L-289.5 -713.5 L-288.6 -713.5 L-288.6 -712.5 L-288.6 -711.5 L-288.6 -710.5 L-288.7 -709.5 L-288.7 -708.5 L-288.7 -707.5 L-288.7 -706.5 L-288.8 -705.6 L-288.8 -704.6 L-288.8 -703.6 L-288.9 -702.6 L-288.9 -701.6 L-288.9 -700.6 L-288.9 -699.6 L-289 -698.7 L-289 -697.7 L-289 -696.7 L-289 -695.7 L-289.1 -694.7 L-289.1 -693.7 L-289.1 -692.7 L-289.2 -691.8 L-289.2 -690.8 L-289.2 -689.8 L-289.2 -688.8 L-290.2 -688.8 L-291.2 -688.9 L-292.2 -688.9 L-293.2 -688.9 L-294.2 -688.9 L-295.1 -689 L-296.1 -689 L-297.1 -689 L-298.1 -689 L-299.1 -689.1 L-300.1 -689.1 L-301.1 -689.1 L-302 -689.2 L-303 -689.2 L-304 -689.2 L-305 -689.2 L-306 -689.3 L-307 -689.3 L-308 -689.3 L-308.9 -689.3 L-309.9 -689.4 L-310.9 -689.4 L-311.9 -689.4 L-312.9 -689.4 L-313.9 -689.5 Z " />
<path stroke="rgb(0,0,0)" stroke-opacity="1" fill="rgb(255,255,255)" fill-opacity="1" d="M202.5 -312.9 L203.5 -312.7 L204.5 -312.4 L205.5 -312 L206.5 -311.6 L207.4 -311.1 L208.2 -310.5 L209.1 -309.8 L209.8 -309.1 L210.5 -308.3 L211.2 -307.4 L211.7 -306.5 L212.2 -305.6 L212.7 -304.7 L213 -303.7 L213.3 -302.6 L213.4 -301.6 L213.5 -300.5 L213.6 -299.5 L213.5 -298.4 L213.3 -297.4 L213.1 -296.4 L212.8 -295.4 L212.4 -294.4 L211.9 -293.4 L211.4 -292.5 L210.7 -291.7 L210.1 -290.9 L209.3 -290.1 L208.5 -289.4 L207.7 -288.8 L206.8 -288.3 L205.8 -287.8 L204.9 -287.4 L203.8 -287.1 L202.8 -286.8 L201.8 -286.6 L200.7 -286.6 L199.7 -286.6 L198.6 -286.7 L197.6 -286.8 L196.6 -287.1 L195.6 -287.4 L194.6 -287.9 L193.7 -288.3 L192.8 -288.9 L191.9 -289.5 L191.1 -290.2 L190.4 -291 L189.7 -291.8 L189.1 -292.7 L188.6 -293.6 L188.1 -294.5 L187.7 -295.5 L187.4 -296.5 L187.2 -297.6 L187.1 -298.6 L187 -299.7 L187 -300.7 L187.2 -301.8 L187.3 -302.8 L187.6 -303.8 L188 -304.8 L188.4 -305.8 L188.9 -306.7 L189.5 -307.6 L190.2 -308.4 L190.9 -309.2 L191.6 -309.9 L192.5 -310.6 L193.3 -311.1 L194.3 -311.7 L195.2 -312.1 L196.2 -312.5 L197.2 -312.8 L198.3 -313 L199.3 -313.1 L200.4 -313.1 L201.4 -313.1 L202.5 -312.9 Z " />
<path stroke="rgb(0,0,0)" stroke-opacity="1" fill="rgb(255,255,255)" fill-opacity="1" d="M-112.6 -688.2 L-112.6 -689.2 L-112.6 -690.1 L-112.6 -691.1 L-112.5 -692.1 L-112.5 -693.1 L-112.5 -694.1 L-112.5 -695.1 L-112.5 -696.1 L-112.5 -697.1 L-112.5 -698 L-112.5 -699 L-112.5 -700 L-112.5 -701 L-112.4 -702 L-112.4 -703 L-112.4 -704 L-112.4 -704.9 L-112.4 -705.9 L-112.4 -706.9 L-112.4 -707.9 L-112.4 -708.9 L-112.4 -709.9 L-112.4 -710.9 L-112.3 -711.8 L-112.3 -712.8 L-111.3 -712.8 L-110.4 -712.8 L-109.4 -712.8 L-108.4 -712.8 L-107.4 -712.8 L-106.4 -712.8 L-105.4 -712.8 L-104.4 -712.7 L-103.5 -712.7 L-102.5 -712.7 L-101.5 -712.7 L-100.5 -712.7 L-99.51 -712.7 L-98.53 -712.7 L-97.54 -712.7 L-96.56 -712.7 L-95.57 -712.7 L-94.58 -712.6 L-93.6 -712.6 L-92.61 -712.6 L-91.63 -712.6 L-90.64 -712.6 L-89.65 -712.6 L-88.67 -712.6 L-87.68 -712.6 L-87.69 -711.6 L-87.7 -710.6 L-87.71 -709.6 L-87.72 -708.6 L-87.73 -707.6 L-87.74 -706.7 L-87.75 -705.7 L-87.76 -704.7 L-87.77 -703.7 L-87.78 -702.7 L-87.79 -701.7 L-87.8 -700.7 L-87.81 -699.8 L-87.82 -698.8 L-87.83 -697.8 L-87.84 -696.8 L-87.85 -695.8 L-87.86 -694.8 L-87.87 -693.8 L-87.88 -692.9 L-87.89 -691.9 L-87.9 -690.9 L-87.91 -689.9 L-87.92 -688.9 L-87.93 -687.9 L-88.92 -687.9 L-89.9 -687.9 L-90.89 -688 L-91.88 -688 L-92.86 -688 L-93.85 -688 L-94.83 -688 L-95.82 -688 L-96.81 -688 L-97.79 -688 L-98.78 -688 L-99.76 -688 L-100.8 -688.1 L-101.7 -688.1 L-102.7 -688.1 L-103.7 -688.1 L-104.7 -688.1 L-105.7 -688.1 L-106.7 -688.1 L-107.7 -688.1 L-108.6 -688.1 L-109.6 -688.1 L-110.6 -688.2 L-111.6 -688.2 L-112.6 -688.2 Z " />
<path stroke="rgb(0,0,0)" stroke-opacity="1" fill="rgb(255,255,255)" fill-opacity="1" d="M-299.6 -212.2 L-298.6 -212.2 L-297.6 -212.1 L-296.6 -211.9 L-295.7 -211.6 L-294.8 -211.2 L-293.9 -210.8 L-293 -210.3 L-292.2 -209.7 L-291.5 -209.1 L-290.8 -208.4 L-290.1 -207.7 L-289.5 -206.9 L-289 -206.1 L-288.5 -205.2 L-288.1 -204.3 L-287.8 -203.4 L-287.6 -202.4 L-287.4 -201.4 L-287.3 -200.5 L-287.3 -199.5 L-287.4 -198.5 L-287.5 -197.5 L-287.7 -196.6 L-288 -195.6 L-288.4 -194.7 L-288.9 -193.8 L-289.4 -193 L-289.9 -192.2 L-290.6 -191.4 L-291.3 -190.7 L-292 -190.1 L-292.8 -189.5 L-293.7 -189 L-294.6 -188.6 L-295.5 -188.2 L-296.4 -187.9 L-297.4 -187.7 L-298.3 -187.5 L-299.3 -187.5 L-300.3 -187.5 L-301.3 -187.6 L-302.3 -187.7 L-303.2 -188 L-304.1 -188.3 L-305.1 -188.7 L-305.9 -189.1 L-306.8 -189.7 L-307.5 -190.3 L-308.3 -190.9 L-309 -191.6 L-309.6 -192.4 L-310.1 -193.2 L-310.6 -194 L-311.1 -194.9 L-311.4 -195.9 L-311.7 -196.8 L-311.9 -197.8 L-312 -198.7 L-312.1 -199.7 L-312 -200.7 L-311.9 -201.7 L-311.8 -202.7 L-311.5 -203.6 L-311.2 -204.5 L-310.7 -205.4 L-310.3 -206.3 L-309.7 -207.1 L-309.1 -207.9 L-308.4 -208.6 L-307.7 -209.3 L-306.9 -209.9 L-306.1 -210.4 L-305.3 -210.9 L-304.4 -211.3 L-303.4 -211.7 L-302.5 -211.9 L-301.5 -212.1 L-300.5 -212.2 L-299.6 -212.2 Z " />
<path stroke="rgb(0,0,0)" stroke-opacity="1" fill="rgb(255,255,255)" fill-opacity="1" d="M-619.6 -595.3 L-619.5 -596.3 L-619.4 -597.2 L-619.3 -598.2 L-619.2 -599.2 L-619.1 -600.2 L-619 -601.2 L-618.9 -602.1 L-618.7 -603.1 L-618.6 -604.1 L-618.5 -605.1 L-618.4 -606.1 L-618.3 -607.1 L-618.2 -608 L-618.1 -609 L-618 -610 L-617.9 -611 L-617.8 -612 L-617.7 -612.9 L-617.6 -613.9 L-617.5 -614.9 L-617.4 -615.9 L-617.3 -616.9 L-617.2 -617.8 L-617.1 -618.8 L-617 -619.8 L-616 -619.7 L-615.1 -619.6 L-614.1 -619.5 L-613.1 -619.4 L-612.1 -619.3 L-611.1 -619.2 L-610.2 -619.1 L-609.2 -619 L-608.2 -618.9 L-607.2 -618.8 L-606.2 -618.7 L-605.3 -618.6 L-604.3 -618.5 L-603.3 -618.4 L-602.3 -618.3 L-601.3 -618.2 L-600.4 -618.1 L-599.4 -618 L-598.4 -617.9 L-597.4 -617.8 L-596.4 -617.7 L-595.4 -617.6 L-594.5 -617.5 L-593.5 -617.4 L-592.5 -617.3 L-592.6 -616.3 L-592.7 -615.3 L-592.8 -614.3 L-592.9 -613.3 L-593 -612.4 L-593.1 -611.4 L-593.2 -610.4 L-593.3 -609.4 L-593.4 -608.4 L-593.5 -607.5 L-593.6 -606.5 L-593.7 -605.5 L-593.8 -604.5 L-593.9 -603.5 L-594 -602.6 L-594.1 -601.6 L-594.2 -600.6 L-594.3 -599.6 L-594.4 -598.6 L-594.5 -597.7 L-594.6 -596.7 L-594.7 -595.7 L-594.8 -594.7 L-594.9 -593.7 L-595 -592.7 L-596 -592.8 L-597 -592.9 L-598 -593.1 L-599 -593.2 L-599.9 -593.3 L-600.9 -593.4 L-601.9 -593.5 L-602.9 -593.6 L-603.9 -593.7 L-604.8 -593.8 L-605.8 -593.9 L-606.8 -594 L-607.8 -594.1 L-608.8 -594.2 L-609.8 -594.3 L-610.7 -594.4 L-611.7 -594.5 L-612.7 -594.6 L-613.7 -594.7 L-614.7 -594.8 L-615.6 -594.9 L-616.6 -595 L-617.6 -595.1 L-618.6 -595.2 L-619.6 -595.3 Z " />
<path stroke="rgb(0,0,0)" stroke-opacity="1" fill="rgb(255,255,255)" fill-opacity="1" d="M-99.56 -212.2 L-98.58 -212.2 L-97.6 -212.1 L-96.64 -211.9 L-95.69 -211.6 L-94.77 -211.2 L-93.89 -210.8 L-93.03 -210.3 L-92.22 -209.7 L-91.46 -209.1 L-90.75 -208.4 L-90.1 -207.7 L-89.51 -206.9 L-88.98 -206.1 L-88.52 -205.2 L-88.13 -204.3 L-87.81 -203.4 L-87.57 -202.4 L-87.4 -201.4 L-87.31 -200.5 L-87.3 -199.5 L-87.37 -198.5 L-87.52 -197.5 L-87.74 -196.6 L-88.04 -195.6 L-88.42 -194.7 L-88.86 -193.8 L-89.37 -193 L-89.95 -192.2 L-90.59 -191.4 L-91.29 -190.7 L-92.04 -190.1 L-92.83 -189.5 L-93.68 -189 L-94.56 -188.6 L-95.47 -188.2 L-96.41 -187.9 L-97.37 -187.7 L-98.34 -187.5 L-99.32 -187.5 L-100.3 -187.5 L-101.3 -187.6 L-102.3 -187.7 L-103.2 -188 L-104.1 -188.3 L-105.1 -188.7 L-105.9 -189.1 L-106.8 -189.7 L-107.5 -190.3 L-108.3 -190.9 L-109 -191.6 L-109.6 -192.4 L-110.1 -193.2 L-110.6 -194 L-111.1 -194.9 L-111.4 -195.9 L-111.7 -196.8 L-111.9 -197.8 L-112 -198.7 L-112.1 -199.7 L-112 -200.7 L-111.9 -201.7 L-111.8 -202.7 L-111.5 -203.6 L-111.2 -204.5 L-110.7 -205.4 L-110.3 -206.3 L-109.7 -207.1 L-109.1 -207.9 L-108.4 -208.6 L-107.7 -209.3 L-106.9 -209.9 L-106.1 -210.4 L-105.3 -210.9 L-104.4 -211.3 L-103.4 -211.7 L-102.5 -211.9 L-101.5 -212.1 L-100.5 -212.2 L-99.56 -212.2 Z " />
<path stroke="rgb(0,0,0)" stroke-opacity="1" fill="rgb(255,255,255)" fill-opacity="1" d="M-413.9 -589.5 L-413.9 -590.5 L-413.8 -591.4 L-413.8 -592.4 L-413.8 -593.4 L-413.7 -594.4 L-413.7 -595.4 L-413.7 -596.4 L-413.7 -597.4 L-413.6 -598.3 L-413.6 -599.3 L-413.6 -600.3 L-413.6 -601.3 L-413.5 -602.3 L-413.5 -603.3 L-413.5 -604.3 L-413.4 -605.2 L-413.4 -606.2 L-413.4 -607.2 L-413.4 -608.2 L-413.3 -609.2 L-413.3 -610.2 L-413.3 -611.2 L-413.3 -612.2 L-413.2 -613.1 L-413.2 -614.1 L-412.2 -614.1 L-411.2 -614.1 L-410.2 -614 L-409.3 -614 L-408.3 -614 L-407.3 -614 L-406.3 -613.9 L-405.3 -613.9 L-404.3 -613.9 L-403.3 -613.9 L-402.4 -613.8 L-401.4 -613.8 L-400.4 -613.8 L-399.4 -613.7 L-398.4 -613.7 L-397.4 -613.7 L-396.4 -613.7 L-395.5 -613.6 L-394.5 -613.6 L-393.5 -613.6 L-392.5 -613.6 L-391.5 -613.5 L-390.5 -613.5 L-389.5 -613.5 L-388.6 -613.5 L-388.6 -612.5 L-388.6 -611.5 L-388.6 -610.5 L-388.7 -609.5 L-388.7 -608.5 L-388.7 -607.5 L-388.7 -606.5 L-388.8 -605.6 L-388.8 -604.6 L-388.8 -603.6 L-388.9 -602.6 L-388.9 -601.6 L-388.9 -600.6 L-388.9 -599.6 L-389 -598.7 L-389 -597.7 L-389 -596.7 L-389 -595.7 L-389.1 -594.7 L-389.1 -593.7 L-389.1 -592.7 L-389.2 -591.8 L-389.2 -590.8 L-389.2 -589.8 L-389.2 -588.8 L-390.2 -588.8 L-391.2 -588.9 L-392.2 -588.9 L-393.2 -588.9 L-394.2 -588.9 L-395.1 -589 L-396.1 -589 L-397.1 -589 L-398.1 -589 L-399.1 -589.1 L-400.1 -589.1 L-401.1 -589.1 L-402 -589.2 L-403 -589.2 L-404 -589.2 L-405 -589.2 L-406 -589.3 L-407 -589.3 L-408 -589.3 L-408.9 -589.3 L-409.9 -589.4 L-410.9 -589.4 L-411.9 -589.4 L-412.9 -589.4 L-413.9 -589.5 Z " />
<path stroke="rgb(0,0,0)" stroke-opacity="1" fill="rgb(255,255,255)" fill-opacity="1" d="M102.5 -212.9 L103.5 -212.7 L104.5 -212.4 L105.5 -212 L106.5 -211.6 L107.4 -211.1 L108.2 -210.5 L109.1 -209.8 L109.8 -209.1 L110.5 -208.3 L111.2 -207.4 L111.7 -206.5 L112.2 -205.6 L112.7 -204.7 L113 -203.7 L113.3 -202.6 L113.4 -201.6 L113.5 -200.5 L113.6 -199.5 L113.5 -198.4 L113.3 -197.4 L113.1 -196.4 L112.8 -195.4 L112.4 -194.4 L111.9 -193.4 L111.4 -192.5 L110.7 -191.7 L110.1 -190.9 L109.3 -190.1 L108.5 -189.4 L107.7 -188.8 L106.8 -188.3 L105.8 -187.8 L104.9 -187.4 L103.8 -187.1 L102.8 -186.8 L101.8 -186.6 L100.7 -186.6 L99.67 -186.6 L98.62 -186.7 L97.58 -186.8 L96.55 -187.1 L95.55 -187.4 L94.58 -187.9 L93.65 -188.3 L92.76 -188.9 L91.91 -189.5 L91.12 -190.2 L90.39 -191 L89.72 -191.8 L89.11 -192.7 L88.58 -193.6 L88.12 -194.5 L87.74 -195.5 L87.43 -196.5 L87.21 -197.6 L87.07 -198.6 L87.01 -199.7 L87.04 -200.7 L87.15 -201.8 L87.35 -202.8 L87.63 -203.8 L87.98 -204.8 L88.42 -205.8 L88.93 -206.7 L89.51 -207.6 L90.16 -208.4 L90.87 -209.2 L91.64 -209.9 L92.47 -210.6 L93.35 -211.1 L94.27 -211.7 L95.23 -212.1 L96.22 -212.5 L97.23 -212.8 L98.27 -213 L99.32 -213.1 L100.4 -213.1 L101.4 -213.1 L102.5 -212.9 Z " />
<path stroke="rgb(0,0,0)" stroke-opacity="1" fill="rgb(255,255,255)" fill-opacity="1" d="M-212.6 -588.2 L-212.6 -589.2 L-212.6 -590.1 L-212.6 -591.1 L-212.5 -592.1 L-212.5 -593.1 L-212.5 -594.1 L-212.5 -595.1 L-212.5 -596.1 L-212.5 -597.1 L-212.5 -598 L-212.5 -599 L-212.5 -600 L-212.5 -601 L-212.4 -602 L-212.4 -603 L-212.4 -604 L-212.4 -604.9 L-212.4 -605.9 L-212.4 -606.9 L-212.4 -607.9 L-212.4 -608.9 L-212.4 -609.9 L-212.4 -610.9 L-212.3 -611.8 L-212.3 -612.8 L-211.3 -612.8 L-210.4 -612.8 L-209.4 -612.8 L-208.4 -612.8 L-207.4 -612.8 L-206.4 -612.8 L-205.4 -612.8 L-204.4 -612.7 L-203.5 -612.7 L-202.5 -612.7 L-201.5 -612.7 L-200.5 -612.7 L-199.5 -612.7 L-198.5 -612.7 L-197.5 -612.7 L-196.6 -612.7 L-195.6 -612.7 L-194.6 -612.6 L-193.6 -612.6 L-192.6 -612.6 L-191.6 -612.6 L-190.6 -612.6 L-189.7 -612.6 L-188.7 -612.6 L-187.7 -612.6 L-187.7 -611.6 L-187.7 -610.6 L-187.7 -609.6 L-187.7 -608.6 L-187.7 -607.6 L-187.7 -606.7 L-187.8 -605.7 L-187.8 -604.7 L-187.8 -603.7 L-187.8 -602.7 L-187.8 -601.7 L-187.8 -600.7 L-187.8 -599.8 L-187.8 -598.8 L-187.8 -597.8 L-187.8 -596.8 L-187.9 -595.8 L-187.9 -594.8 L-187.9 -593.8 L-187.9 -592.9 L-187.9 -591.9 L-187.9 -590.9 L-187.9 -589.9 L-187.9 -588.9 L-187.9 -587.9 L-188.9 -587.9 L-189.9 -587.9 L-190.9 -588 L-191.9 -588 L-192.9 -588 L-193.8 -588 L-194.8 -588 L-195.8 -588 L-196.8 -588 L-197.8 -588 L-198.8 -588 L-199.8 -588 L-200.8 -588.1 L-201.7 -588.1 L-202.7 -588.1 L-203.7 -588.1 L-204.7 -588.1 L-205.7 -588.1 L-206.7 -588.1 L-207.7 -588.1 L-208.6 -588.1 L-209.6 -588.1 L-210.6 -588.2 L-211.6 -588.2 L-212.6 -588.2 Z " />
<path stroke="rgb(0,0,0)" stroke-opacity="1" fill="rgb(255,255,255)" fill-opacity="1" d="M315.8 -210.5 L316.6 -209.2 L317.3 -207.9 L317.9 -206.5 L318.4 -205.1 L318.7 -203.6 L319 -202.1 L319.1 -200.6 L319.1 -199.1 L319 -197.6 L318.7 -196.1 L318.4 -194.6 L317.9 -193.2 L317.3 -191.8 L316.6 -190.5 L315.8 -189.2 L314.9 -188 L313.9 -186.8 L312.8 -185.8 L311.7 -184.8 L310.5 -183.9 L309.2 -183.2 L307.8 -182.5 L306.4 -182 L305 -181.5 L303.5 -181.2 L302 -181 L300.5 -180.9 L299 -180.9 L297.5 -181.1 L296 -181.3 L294.5 -181.7 L293.1 -182.2 L291.7 -182.8 L290.4 -183.6 L289.1 -184.4 L287.9 -185.3 L286.8 -186.3 L285.8 -187.4 L284.8 -188.6 L284 -189.8 L283.2 -191.2 L282.6 -192.5 L282.1 -193.9 L281.7 -195.4 L281.4 -196.9 L281.2 -198.4 L281.1 -199.9 L281.2 -201.4 L281.4 -202.9 L281.7 -204.4 L282.1 -205.8 L282.6 -207.2 L283.3 -208.6 L284 -209.9 L284.9 -211.2 L285.8 -212.3 L286.8 -213.4 L288 -214.4 L289.2 -215.4 L290.4 -216.2 L291.7 -216.9 L293.1 -217.5 L294.6 -218 L296 -218.4 L297.5 -218.7 L299 -218.8 L300.5 -218.8 L302 -218.8 L303.5 -218.5 L305 -218.2 L306.4 -217.8 L307.8 -217.2 L309.2 -216.5 L310.5 -215.8 L311.7 -214.9 L312.9 -213.9 L313.9 -212.9 L314.9 -211.7 L315.8 -210.5 Z " />
<path stroke="rgb(0,0,0)" stroke-opacity="1" fill="rgb(255,255,255)" fill-opacity="1" d="M-719.6 -495.3 L-719.5 -496.3 L-719.4 -497.2 L-719.3 -498.2 L-719.2 -499.2 L-719.1 -500.2 L-719 -501.2 L-718.9 -502.1 L-718.7 -503.1 L-718.6 -504.1 L-718.5 -505.1 L-718.4 -506.1 L-718.3 -507.1 L-718.2 -508 L-718.1 -509 L-718 -510 L-717.9 -511 L-717.8 -512 L-717.7 -512.9 L-717.6 -513.9 L-717.5 -514.9 L-717.4 -515.9 L-717.3 -516.9 L-717.2 -517.8 L-717.1 -518.8 L-717 -519.8 L-716 -519.7 L-715.1 -519.6 L-714.1 -519.5 L-713.1 -519.4 L-712.1 -519.3 L-711.1 -519.2 L-710.2 -519.1 L-709.2 -519 L-708.2 -518.9 L-707.2 -518.8 L-706.2 -518.7 L-705.3 -518.6 L-704.3 -518.5 L-703.3 -518.4 L-702.3 -518.3 L-701.3 -518.2 L-700.4 -518.1 L-699.4 -518 L-698.4 -517.9 L-697.4 -517.8 L-696.4 -517.7 L-695.4 -517.6 L-694.5 -517.5 L-693.5 -517.4 L-692.5 -517.3 L-692.6 -516.3 L-692.7 -515.3 L-692.8 -514.3 L-692.9 -513.3 L-693 -512.4 L-693.1 -511.4 L-693.2 -510.4 L-693.3 -509.4 L-693.4 -508.4 L-693.5 -507.5 L-693.6 -506.5 L-693.7 -505.5 L-693.8 -504.5 L-693.9 -503.5 L-694 -502.6 L-694.1 -501.6 L-694.2 -500.6 L-694.3 -499.6 L-694.4 -498.6 L-694.5 -497.7 L-694.6 -496.7 L-694.7 -495.7 L-694.8 -494.7 L-694.9 -493.7 L-695 -492.7 L-696 -492.8 L-697 -492.9 L-698 -493.1 L-699 -493.2 L-699.9 -493.3 L-700.9 -493.4 L-701.9 -493.5 L-702.9 -493.6 L-703.9 -493.7 L-704.8 -493.8 L-705.8 -493.9 L-706.8 -494 L-707.8 -494.1 L-708.8 -494.2 L-709.8 -494.3 L-710.7 -494.4 L-711.7 -494.5 L-712.7 -494.6 L-713.7 -494.7 L-714.7 -494.8 L-715.6 -494.9 L-716.6 -495 L-717.6 -495.1 L-718.6 -495.2 L-719.6 -495.3 Z " />
<path stroke="rgb(0,0,0)" stroke-opacity="1" fill="rgb(255,255,255)" fill-opacity="1" d="M-199.6 -112.2 L-198.6 -112.2 L-197.6 -112.1 L-196.6 -111.9 L-195.7 -111.6 L-194.8 -111.2 L-193.9 -110.8 L-193 -110.3 L-192.2 -109.7 L-191.5 -109.1 L-190.8 -108.4 L-190.1 -107.7 L-189.5 -106.9 L-189 -106.1 L-188.5 -105.2 L-188.1 -104.3 L-187.8 -103.4 L-187.6 -102.4 L-187.4 -101.4 L-187.3 -100.5 L-187.3 -99.47 L-187.4 -98.49 L-187.5 -97.51 L-187.7 -96.55 L-188 -95.62 L-188.4 -94.7 L-188.9 -93.82 L-189.4 -92.98 L-189.9 -92.19 L-190.6 -91.44 L-191.3 -90.74 L-192 -90.1 L-192.8 -89.52 L-193.7 -89.01 L-194.6 -88.57 L-195.5 -88.2 L-196.4 -87.9 L-197.4 -87.67 L-198.3 -87.53 L-199.3 -87.46 L-200.3 -87.47 L-201.3 -87.56 L-202.3 -87.72 L-203.2 -87.97 L-204.1 -88.29 L-205.1 -88.68 L-205.9 -89.14 L-206.8 -89.67 L-207.5 -90.26 L-208.3 -90.91 L-209 -91.62 L-209.6 -92.39 L-210.1 -93.2 L-210.6 -94.05 L-211.1 -94.94 L-211.4 -95.86 L-211.7 -96.8 L-211.9 -97.77 L-212 -98.74 L-212.1 -99.73 L-212 -100.7 L-211.9 -101.7 L-211.8 -102.7 L-211.5 -103.6 L-211.2 -104.5 L-210.7 -105.4 L-210.3 -106.3 L-209.7 -107.1 L-209.1 -107.9 L-208.4 -108.6 L-207.7 -109.3 L-206.9 -109.9 L-206.1 -110.4 L-205.3 -110.9 L-204.4 -111.3 L-203.4 -111.7 L-202.5 -111.9 L-201.5 -112.1 L-200.5 -112.2 L-199.6 -112.2 Z " />
<path stroke="rgb(0,0,0)" stroke-opacity="1" fill="rgb(255,255,255)" fill-opacity="1" d="M-513.9 -489.5 L-513.9 -490.5 L-513.8 -491.4 L-513.8 -492.4 L-513.8 -493.4 L-513.7 -494.4 L-513.7 -495.4 L-513.7 -496.4 L-513.7 -497.4 L-513.6 -498.3 L-513.6 -499.3 L-513.6 -500.3 L-513.6 -501.3 L-513.5 -502.3 L-513.5 -503.3 L-513.5 -504.3 L-513.4 -505.2 L-513.4 -506.2 L-513.4 -507.2 L-513.4 -508.2 L-513.3 -509.2 L-513.3 -510.2 L-513.3 -511.2 L-513.3 -512.2 L-513.2 -513.1 L-513.2 -514.1 L-512.2 -514.1 L-511.2 -514.1 L-510.2 -514 L-509.3 -514 L-508.3 -514 L-507.3 -514 L-506.3 -513.9 L-505.3 -513.9 L-504.3 -513.9 L-503.3 -513.9 L-502.4 -513.8 L-501.4 -513.8 L-500.4 -513.8 L-499.4 -513.7 L-498.4 -513.7 L-497.4 -513.7 L-496.4 -513.7 L-495.5 -513.6 L-494.5 -513.6 L-493.5 -513.6 L-492.5 -513.6 L-491.5 -513.5 L-490.5 -513.5 L-489.5 -513.5 L-488.6 -513.5 L-488.6 -512.5 L-488.6 -511.5 L-488.6 -510.5 L-488.7 -509.5 L-488.7 -508.5 L-488.7 -507.5 L-488.7 -506.5 L-488.8 -505.6 L-488.8 -504.6 L-488.8 -503.6 L-488.9 -502.6 L-488.9 -501.6 L-488.9 -500.6 L-488.9 -499.6 L-489 -498.7 L-489 -497.7 L-489 -496.7 L-489 -495.7 L-489.1 -494.7 L-489.1 -493.7 L-489.1 -492.7 L-489.2 -491.8 L-489.2 -490.8 L-489.2 -489.8 L-489.2 -488.8 L-490.2 -488.8 L-491.2 -488.9 L-492.2 -488.9 L-493.2 -488.9 L-494.2 -488.9 L-495.1 -489 L-496.1 -489 L-497.1 -489 L-498.1 -489 L-499.1 -489.1 L-500.1 -489.1 L-501.1 -489.1 L-502 -489.2 L-503 -489.2 L-504 -489.2 L-505 -489.2 L-506 -489.3 L-507 -489.3 L-508 -489.3 L-508.9 -489.3 L-509.9 -489.4 L-510.9 -489.4 L-511.9 -489.4 L-512.9 -489.4 L-513.9 -489.5 Z " />
<path stroke="rgb(0,0,0)" stroke-opacity="1" fill="rgb(255,255,255)" fill-opacity="1" d="M2.473 -112.9 L3.506 -112.7 L4.519 -112.4 L5.505 -112 L6.458 -111.6 L7.372 -111.1 L8.241 -110.5 L9.06 -109.8 L9.823 -109.1 L10.53 -108.3 L11.16 -107.4 L11.73 -106.5 L12.23 -105.6 L12.65 -104.7 L13 -103.7 L13.26 -102.6 L13.44 -101.6 L13.54 -100.5 L13.55 -99.49 L13.48 -98.43 L13.33 -97.39 L13.09 -96.36 L12.78 -95.35 L12.38 -94.38 L11.91 -93.43 L11.36 -92.53 L10.75 -91.67 L10.07 -90.87 L9.322 -90.12 L8.521 -89.43 L7.668 -88.81 L6.769 -88.26 L5.828 -87.78 L4.853 -87.38 L3.848 -87.05 L2.821 -86.81 L1.778 -86.65 L0.726 -86.57 L-0.3293 -86.58 L-1.381 -86.67 L-2.421 -86.84 L-3.445 -87.1 L-4.445 -87.44 L-5.415 -87.85 L-6.35 -88.34 L-7.242 -88.91 L-8.086 -89.54 L-8.878 -90.24 L-9.612 -90.99 L-10.28 -91.81 L-10.89 -92.67 L-11.42 -93.58 L-11.88 -94.53 L-12.26 -95.52 L-12.57 -96.53 L-12.79 -97.56 L-12.93 -98.61 L-12.99 -99.66 L-12.96 -100.7 L-12.85 -101.8 L-12.65 -102.8 L-12.37 -103.8 L-12.02 -104.8 L-11.58 -105.8 L-11.07 -106.7 L-10.49 -107.6 L-9.844 -108.4 L-9.131 -109.2 L-8.358 -109.9 L-7.531 -110.6 L-6.654 -111.1 L-5.733 -111.7 L-4.774 -112.1 L-3.784 -112.5 L-2.767 -112.8 L-1.731 -113 L-0.6826 -113.1 L0.372 -113.1 L1.426 -113.1 L2.473 -112.9 Z " />
<path stroke="rgb(0,0,0)" stroke-opacity="1" fill="rgb(255,255,255)" fill-opacity="1" d="M-312.6 -488.2 L-312.6 -489.2 L-312.6 -490.1 L-312.6 -491.1 L-312.5 -492.1 L-312.5 -493.1 L-312.5 -494.1 L-312.5 -495.1 L-312.5 -496.1 L-312.5 -497.1 L-312.5 -498 L-312.5 -499 L-312.5 -500 L-312.5 -501 L-312.4 -502 L-312.4 -503 L-312.4 -504 L-312.4 -504.9 L-312.4 -505.9 L-312.4 -506.9 L-312.4 -507.9 L-312.4 -508.9 L-312.4 -509.9 L-312.4 -510.9 L-312.3 -511.8 L-312.3 -512.8 L-311.3 -512.8 L-310.4 -512.8 L-309.4 -512.8 L-308.4 -512.8 L-307.4 -512.8 L-306.4 -512.8 L-305.4 -512.8 L-304.4 -512.7 L-303.5 -512.7 L-302.5 -512.7 L-301.5 -512.7 L-300.5 -512.7 L-299.5 -512.7 L-298.5 -512.7 L-297.5 -512.7 L-296.6 -512.7 L-295.6 -512.7 L-294.6 -512.6 L-293.6 -512.6 L-292.6 -512.6 L-291.6 -512.6 L-290.6 -512.6 L-289.7 -512.6 L-288.7 -512.6 L-287.7 -512.6 L-287.7 -511.6 L-287.7 -510.6 L-287.7 -509.6 L-287.7 -508.6 L-287.7 -507.6 L-287.7 -506.7 L-287.8 -505.7 L-287.8 -504.7 L-287.8 -503.7 L-287.8 -502.7 L-287.8 -501.7 L-287.8 -500.7 L-287.8 -499.8 L-287.8 -498.8 L-287.8 -497.8 L-287.8 -496.8 L-287.9 -495.8 L-287.9 -494.8 L-287.9 -493.8 L-287.9 -492.9 L-287.9 -491.9 L-287.9 -490.9 L-287.9 -489.9 L-287.9 -488.9 L-287.9 -487.9 L-288.9 -487.9 L-289.9 -487.9 L-290.9 -488 L-291.9 -488 L-292.9 -488 L-293.8 -488 L-294.8 -488 L-295.8 -488 L-296.8 -488 L-297.8 -488 L-298.8 -488 L-299.8 -488 L-300.8 -488.1 L-301.7 -488.1 L-302.7 -488.1 L-303.7 -488.1 L-304.7 -488.1 L-305.7 -488.1 L-306.7 -488.1 L-307.7 -488.1 L-308.6 -488.1 L-309.6 -488.1 L-310.6 -488.2 L-311.6 -488.2 L-312.6 -488.2 Z " />
<path stroke="rgb(0,0,0)" stroke-opacity="1" fill="rgb(255,255,255)" fill-opacity="1" d="M215.8 -110.5 L216.6 -109.2 L217.3 -107.9 L217.9 -106.5 L218.4 -105.1 L218.7 -103.6 L219 -102.1 L219.1 -100.6 L219.1 -99.1 L219 -97.59 L218.7 -96.1 L218.4 -94.64 L217.9 -93.2 L217.3 -91.81 L216.6 -90.47 L215.8 -89.19 L214.9 -87.98 L213.9 -86.84 L212.8 -85.78 L211.7 -84.82 L210.5 -83.95 L209.2 -83.18 L207.8 -82.51 L206.4 -81.95 L205 -81.51 L203.5 -81.18 L202 -80.98 L200.5 -80.89 L199 -80.92 L197.5 -81.07 L196 -81.34 L194.5 -81.73 L193.1 -82.23 L191.7 -82.84 L190.4 -83.56 L189.1 -84.39 L187.9 -85.31 L186.8 -86.32 L185.8 -87.42 L184.8 -88.6 L184 -89.85 L183.2 -91.16 L182.6 -92.53 L182.1 -93.94 L181.7 -95.39 L181.4 -96.87 L181.2 -98.37 L181.1 -99.88 L181.2 -101.4 L181.4 -102.9 L181.7 -104.4 L182.1 -105.8 L182.6 -107.2 L183.3 -108.6 L184 -109.9 L184.9 -111.2 L185.8 -112.3 L186.8 -113.4 L188 -114.4 L189.2 -115.4 L190.4 -116.2 L191.7 -116.9 L193.1 -117.5 L194.6 -118 L196 -118.4 L197.5 -118.7 L199 -118.8 L200.5 -118.8 L202 -118.8 L203.5 -118.5 L205 -118.2 L206.4 -117.8 L207.8 -117.2 L209.2 -116.5 L210.5 -115.8 L211.7 -114.9 L212.9 -113.9 L213.9 -112.9 L214.9 -111.7 L215.8 -110.5 Z " />
<path stroke="rgb(0,0,0)" stroke-opacity="1" fill="rgb(255,255,255)" fill-opacity="1" d="M-112.6 -488.2 L-112.6 -489.1 L-112.5 -490.1 L-112.5 -491.1 L-112.5 -492.1 L-112.5 -493.1 L-112.5 -494.1 L-112.5 -495.1 L-112.5 -496 L-112.5 -497 L-112.5 -498 L-112.5 -499 L-112.4 -500 L-112.4 -501 L-112.4 -502 L-112.4 -502.9 L-112.4 -503.9 L-112.4 -504.9 L-112.4 -505.9 L-112.4 -506.9 L-112.4 -507.9 L-112.4 -508.9 L-112.4 -509.8 L-112.3 -510.8 L-112.3 -511.8 L-112.3 -512.8 L-111.3 -512.8 L-110.3 -512.8 L-109.4 -512.8 L-108.4 -512.8 L-107.4 -512.8 L-106.4 -512.7 L-105.4 -512.7 L-104.4 -512.7 L-103.4 -512.7 L-102.5 -512.7 L-101.5 -512.7 L-100.5 -512.7 L-99.5 -512.7 L-98.51 -512.7 L-97.53 -512.7 L-96.54 -512.7 L-95.56 -512.6 L-94.57 -512.6 L-93.58 -512.6 L-92.6 -512.6 L-91.61 -512.6 L-90.63 -512.6 L-89.64 -512.6 L-88.65 -512.6 L-87.67 -512.6 L-87.68 -511.6 L-87.69 -510.6 L-87.7 -509.6 L-87.71 -508.6 L-87.72 -507.6 L-87.73 -506.6 L-87.74 -505.7 L-87.74 -504.7 L-87.75 -503.7 L-87.76 -502.7 L-87.77 -501.7 L-87.78 -500.7 L-87.79 -499.7 L-87.8 -498.8 L-87.81 -497.8 L-87.82 -496.8 L-87.83 -495.8 L-87.84 -494.8 L-87.85 -493.8 L-87.86 -492.8 L-87.87 -491.9 L-87.88 -490.9 L-87.89 -489.9 L-87.9 -488.9 L-87.91 -487.9 L-88.9 -487.9 L-89.88 -487.9 L-90.87 -487.9 L-91.85 -488 L-92.84 -488 L-93.83 -488 L-94.81 -488 L-95.8 -488 L-96.79 -488 L-97.77 -488 L-98.76 -488 L-99.74 -488 L-100.7 -488 L-101.7 -488 L-102.7 -488.1 L-103.7 -488.1 L-104.7 -488.1 L-105.7 -488.1 L-106.6 -488.1 L-107.6 -488.1 L-108.6 -488.1 L-109.6 -488.1 L-110.6 -488.1 L-111.6 -488.1 L-112.6 -488.2 Z " />
<path stroke="rgb(0,0,0)" stroke-opacity="1" fill="rgb(255,255,255)" fill-opacity="1" d="M-299.6 -12.23 L-298.6 -12.19 L-297.6 -12.06 L-296.6 -11.85 L-295.7 -11.57 L-294.8 -11.22 L-293.9 -10.79 L-293 -10.3 L-292.2 -9.735 L-291.5 -9.11 L-290.8 -8.428 L-290.1 -7.69 L-289.5 -6.904 L-289 -6.072 L-288.5 -5.201 L-288.1 -4.297 L-287.8 -3.364 L-287.6 -2.409 L-287.4 -1.438 L-287.3 -0.4566 L-287.3 0.5285 L-287.4 1.511 L-287.5 2.486 L-287.7 3.445 L-288 4.384 L-288.4 5.296 L-288.9 6.175 L-289.4 7.016 L-289.9 7.814 L-290.6 8.564 L-291.3 9.26 L-292 9.899 L-292.8 10.48 L-293.7 10.99 L-294.6 11.43 L-295.5 11.8 L-296.4 12.1 L-297.4 12.33 L-298.3 12.47 L-299.3 12.54 L-300.3 12.53 L-301.3 12.44 L-302.3 12.28 L-303.2 12.03 L-304.1 11.71 L-305.1 11.32 L-305.9 10.86 L-306.8 10.33 L-307.5 9.74 L-308.3 9.086 L-309 8.375 L-309.6 7.613 L-310.1 6.803 L-310.6 5.951 L-311.1 5.063 L-311.4 4.143 L-311.7 3.199 L-311.9 2.235 L-312 1.258 L-312.1 0.2739 L-312 -0.7109 L-311.9 -1.69 L-311.8 -2.658 L-311.5 -3.608 L-311.2 -4.534 L-310.7 -5.43 L-310.3 -6.291 L-309.7 -7.111 L-309.1 -7.886 L-308.4 -8.609 L-307.7 -9.278 L-306.9 -9.886 L-306.1 -10.43 L-305.3 -10.91 L-304.4 -11.32 L-303.4 -11.65 L-302.5 -11.91 L-301.5 -12.1 L-300.5 -12.21 L-299.6 -12.23 Z " />
<path stroke="rgb(0,0,0)" stroke-opacity="1" fill="rgb(255,255,255)" fill-opacity="1" d="M-613.9 -389.5 L-613.9 -390.5 L-613.8 -391.4 L-613.8 -392.4 L-613.8 -393.4 L-613.7 -394.4 L-613.7 -395.4 L-613.7 -396.4 L-613.7 -397.4 L-613.6 -398.3 L-613.6 -399.3 L-613.6 -400.3 L-613.6 -401.3 L-613.5 -402.3 L-613.5 -403.3 L-613.5 -404.3 L-613.4 -405.2 L-613.4 -406.2 L-613.4 -407.2 L-613.4 -408.2 L-613.3 -409.2 L-613.3 -410.2 L-613.3 -411.2 L-613.3 -412.2 L-613.2 -413.1 L-613.2 -414.1 L-612.2 -414.1 L-611.2 -414.1 L-610.2 -414 L-609.3 -414 L-608.3 -414 L-607.3 -414 L-606.3 -413.9 L-605.3 -413.9 L-604.3 -413.9 L-603.3 -413.9 L-602.4 -413.8 L-601.4 -413.8 L-600.4 -413.8 L-599.4 -413.7 L-598.4 -413.7 L-597.4 -413.7 L-596.4 -413.7 L-595.5 -413.6 L-594.5 -413.6 L-593.5 -413.6 L-592.5 -413.6 L-591.5 -413.5 L-590.5 -413.5 L-589.5 -413.5 L-588.6 -413.5 L-588.6 -412.5 L-588.6 -411.5 L-588.6 -410.5 L-588.7 -409.5 L-588.7 -408.5 L-588.7 -407.5 L-588.7 -406.5 L-588.8 -405.6 L-588.8 -404.6 L-588.8 -403.6 L-588.9 -402.6 L-588.9 -401.6 L-588.9 -400.6 L-588.9 -399.6 L-589 -398.7 L-589 -397.7 L-589 -396.7 L-589 -395.7 L-589.1 -394.7 L-589.1 -393.7 L-589.1 -392.7 L-589.2 -391.8 L-589.2 -390.8 L-589.2 -389.8 L-589.2 -388.8 L-590.2 -388.8 L-591.2 -388.9 L-592.2 -388.9 L-593.2 -388.9 L-594.2 -388.9 L-595.1 -389 L-596.1 -389 L-597.1 -389 L-598.1 -389 L-599.1 -389.1 L-600.1 -389.1 L-601.1 -389.1 L-602 -389.2 L-603 -389.2 L-604 -389.2 L-605 -389.2 L-606 -389.3 L-607 -389.3 L-608 -389.3 L-608.9 -389.3 L-609.9 -389.4 L-610.9 -389.4 L-611.9 -389.4 L-612.9 -389.4 L-613.9 -389.5 Z " />
<path stroke="rgb(0,0,0)" stroke-opacity="1" fill="rgb(255,255,255)" fill-opacity="1" d="M-97.53 -12.93 L-96.49 -12.71 L-95.48 -12.41 L-94.5 -12.04 L-93.54 -11.59 L-92.63 -11.06 L-91.76 -10.46 L-90.94 -9.793 L-90.18 -9.065 L-89.47 -8.278 L-88.84 -7.437 L-88.27 -6.549 L-87.77 -5.618 L-87.35 -4.651 L-87 -3.653 L-86.74 -2.631 L-86.56 -1.592 L-86.46 -0.5408 L-86.45 0.5143 L-86.52 1.567 L-86.67 2.611 L-86.91 3.64 L-87.22 4.647 L-87.62 5.625 L-88.09 6.569 L-88.64 7.472 L-89.25 8.329 L-89.93 9.134 L-90.68 9.883 L-91.48 10.57 L-92.33 11.19 L-93.23 11.74 L-94.17 12.22 L-95.15 12.62 L-96.15 12.95 L-97.18 13.19 L-98.22 13.35 L-99.27 13.43 L-100.3 13.42 L-101.4 13.33 L-102.4 13.16 L-103.4 12.9 L-104.4 12.56 L-105.4 12.15 L-106.3 11.66 L-107.2 11.09 L-108.1 10.46 L-108.9 9.764 L-109.6 9.005 L-110.3 8.191 L-110.9 7.326 L-111.4 6.416 L-111.9 5.466 L-112.3 4.483 L-112.6 3.472 L-112.8 2.44 L-112.9 1.394 L-113 0.3406 L-113 -0.7143 L-112.8 -1.764 L-112.7 -2.801 L-112.4 -3.819 L-112 -4.812 L-111.6 -5.774 L-111.1 -6.698 L-110.5 -7.579 L-109.8 -8.411 L-109.1 -9.189 L-108.4 -9.907 L-107.5 -10.56 L-106.7 -11.15 L-105.7 -11.66 L-104.8 -12.11 L-103.8 -12.47 L-102.8 -12.75 L-101.7 -12.95 L-100.7 -13.07 L-99.63 -13.11 L-98.57 -13.06 L-97.53 -12.93 Z " />
<path stroke="rgb(0,0,0)" stroke-opacity="1" fill="rgb(255,255,255)" fill-opacity="1" d="M-412.6 -388.2 L-412.6 -389.2 L-412.6 -390.1 L-412.6 -391.1 L-412.5 -392.1 L-412.5 -393.1 L-412.5 -394.1 L-412.5 -395.1 L-412.5 -396.1 L-412.5 -397.1 L-412.5 -398 L-412.5 -399 L-412.5 -400 L-412.5 -401 L-412.4 -402 L-412.4 -403 L-412.4 -404 L-412.4 -404.9 L-412.4 -405.9 L-412.4 -406.9 L-412.4 -407.9 L-412.4 -408.9 L-412.4 -409.9 L-412.4 -410.9 L-412.3 -411.8 L-412.3 -412.8 L-411.3 -412.8 L-410.4 -412.8 L-409.4 -412.8 L-408.4 -412.8 L-407.4 -412.8 L-406.4 -412.8 L-405.4 -412.8 L-404.4 -412.7 L-403.5 -412.7 L-402.5 -412.7 L-401.5 -412.7 L-400.5 -412.7 L-399.5 -412.7 L-398.5 -412.7 L-397.5 -412.7 L-396.6 -412.7 L-395.6 -412.7 L-394.6 -412.6 L-393.6 -412.6 L-392.6 -412.6 L-391.6 -412.6 L-390.6 -412.6 L-389.7 -412.6 L-388.7 -412.6 L-387.7 -412.6 L-387.7 -411.6 L-387.7 -410.6 L-387.7 -409.6 L-387.7 -408.6 L-387.7 -407.6 L-387.7 -406.7 L-387.8 -405.7 L-387.8 -404.7 L-387.8 -403.7 L-387.8 -402.7 L-387.8 -401.7 L-387.8 -400.7 L-387.8 -399.8 L-387.8 -398.8 L-387.8 -397.8 L-387.8 -396.8 L-387.9 -395.8 L-387.9 -394.8 L-387.9 -393.8 L-387.9 -392.9 L-387.9 -391.9 L-387.9 -390.9 L-387.9 -389.9 L-387.9 -388.9 L-387.9 -387.9 L-388.9 -387.9 L-389.9 -387.9 L-390.9 -388 L-391.9 -388 L-392.9 -388 L-393.8 -388 L-394.8 -388 L-395.8 -388 L-396.8 -388 L-397.8 -388 L-398.8 -388 L-399.8 -388 L-400.8 -388.1 L-401.7 -388.1 L-402.7 -388.1 L-403.7 -388.1 L-404.7 -388.1 L-405.7 -388.1 L-406.7 -388.1 L-407.7 -388.1 L-408.6 -388.1 L-409.6 -388.1 L-410.6 -388.2 L-411.6 -388.2 L-412.6 -388.2 Z " />
<path stroke="rgb(0,0,0)" stroke-opacity="1" fill="rgb(255,255,255)" fill-opacity="1" d="M115.8 -10.52 L116.6 -9.238 L117.3 -7.896 L117.9 -6.504 L118.4 -5.07 L118.7 -3.603 L119 -2.113 L119.1 -0.6082 L119.1 0.9011 L119 2.406 L118.7 3.896 L118.4 5.362 L117.9 6.796 L117.3 8.187 L116.6 9.527 L115.8 10.81 L114.9 12.02 L113.9 13.16 L112.8 14.22 L111.7 15.18 L110.5 16.05 L109.2 16.82 L107.8 17.49 L106.4 18.05 L105 18.49 L103.5 18.82 L102 19.02 L100.5 19.11 L98.97 19.08 L97.47 18.93 L95.98 18.66 L94.53 18.27 L93.1 17.77 L91.72 17.16 L90.4 16.44 L89.13 15.61 L87.94 14.69 L86.82 13.68 L85.78 12.58 L84.84 11.4 L83.99 10.15 L83.25 8.84 L82.61 7.472 L82.08 6.058 L81.67 4.607 L81.37 3.127 L81.19 1.628 L81.13 0.1198 L81.19 -1.388 L81.38 -2.887 L81.67 -4.366 L82.09 -5.817 L82.62 -7.231 L83.26 -8.597 L84.01 -9.909 L84.86 -11.16 L85.8 -12.33 L86.84 -13.43 L87.96 -14.44 L89.15 -15.36 L90.42 -16.19 L91.75 -16.9 L93.13 -17.52 L94.55 -18.02 L96.01 -18.4 L97.5 -18.67 L99 -18.82 L100.5 -18.85 L102 -18.75 L103.5 -18.54 L105 -18.22 L106.4 -17.77 L107.8 -17.21 L109.2 -16.55 L110.5 -15.77 L111.7 -14.9 L112.9 -13.93 L113.9 -12.87 L114.9 -11.73 L115.8 -10.52 Z " />
<path stroke="rgb(0,0,0)" stroke-opacity="1" fill="rgb(255,255,255)" fill-opacity="1" d="M-212.6 -388.2 L-212.6 -389.1 L-212.5 -390.1 L-212.5 -391.1 L-212.5 -392.1 L-212.5 -393.1 L-212.5 -394.1 L-212.5 -395.1 L-212.5 -396 L-212.5 -397 L-212.5 -398 L-212.5 -399 L-212.4 -400 L-212.4 -401 L-212.4 -402 L-212.4 -402.9 L-212.4 -403.9 L-212.4 -404.9 L-212.4 -405.9 L-212.4 -406.9 L-212.4 -407.9 L-212.4 -408.9 L-212.4 -409.8 L-212.3 -410.8 L-212.3 -411.8 L-212.3 -412.8 L-211.3 -412.8 L-210.3 -412.8 L-209.4 -412.8 L-208.4 -412.8 L-207.4 -412.8 L-206.4 -412.7 L-205.4 -412.7 L-204.4 -412.7 L-203.4 -412.7 L-202.5 -412.7 L-201.5 -412.7 L-200.5 -412.7 L-199.5 -412.7 L-198.5 -412.7 L-197.5 -412.7 L-196.5 -412.7 L-195.6 -412.6 L-194.6 -412.6 L-193.6 -412.6 L-192.6 -412.6 L-191.6 -412.6 L-190.6 -412.6 L-189.6 -412.6 L-188.7 -412.6 L-187.7 -412.6 L-187.7 -411.6 L-187.7 -410.6 L-187.7 -409.6 L-187.7 -408.6 L-187.7 -407.6 L-187.7 -406.6 L-187.7 -405.7 L-187.7 -404.7 L-187.8 -403.7 L-187.8 -402.7 L-187.8 -401.7 L-187.8 -400.7 L-187.8 -399.7 L-187.8 -398.8 L-187.8 -397.8 L-187.8 -396.8 L-187.8 -395.8 L-187.8 -394.8 L-187.9 -393.8 L-187.9 -392.8 L-187.9 -391.9 L-187.9 -390.9 L-187.9 -389.9 L-187.9 -388.9 L-187.9 -387.9 L-188.9 -387.9 L-189.9 -387.9 L-190.9 -387.9 L-191.9 -388 L-192.8 -388 L-193.8 -388 L-194.8 -388 L-195.8 -388 L-196.8 -388 L-197.8 -388 L-198.8 -388 L-199.7 -388 L-200.7 -388 L-201.7 -388 L-202.7 -388.1 L-203.7 -388.1 L-204.7 -388.1 L-205.7 -388.1 L-206.6 -388.1 L-207.6 -388.1 L-208.6 -388.1 L-209.6 -388.1 L-210.6 -388.1 L-211.6 -388.1 L-212.6 -388.2 Z " />
<path stroke="rgb(0,0,0)" stroke-opacity="1" fill="rgb(255,255,255)" fill-opacity="1" d="M324.2 -1.147 L324.2 0.776 L324 2.694 L323.8 4.595 L323.3 6.468 L322.7 8.299 L322 10.08 L321.1 11.79 L320.1 13.43 L319 14.99 L317.8 16.45 L316.4 17.81 L314.9 19.06 L313.4 20.18 L311.7 21.18 L310 22.04 L308.2 22.76 L306.4 23.34 L304.5 23.78 L302.6 24.06 L300.7 24.19 L298.8 24.17 L296.9 23.99 L295 23.67 L293.1 23.19 L291.3 22.57 L289.5 21.8 L287.8 20.9 L286.2 19.86 L284.7 18.7 L283.2 17.43 L281.9 16.04 L280.7 14.55 L279.6 12.96 L278.6 11.3 L277.8 9.565 L277.1 7.77 L276.6 5.925 L276.2 4.043 L275.9 2.136 L275.8 0.2147 L275.9 -1.707 L276.1 -3.619 L276.5 -5.507 L277 -7.36 L277.6 -9.167 L278.4 -10.92 L279.4 -12.6 L280.4 -14.2 L281.6 -15.71 L282.9 -17.12 L284.4 -18.42 L285.9 -19.6 L287.5 -20.67 L289.2 -21.6 L290.9 -22.39 L292.7 -23.04 L294.6 -23.55 L296.5 -23.91 L298.4 -24.12 L300.3 -24.17 L302.2 -24.07 L304.1 -23.82 L306 -23.42 L307.8 -22.87 L309.6 -22.17 L311.4 -21.34 L313 -20.37 L314.6 -19.27 L316.1 -18.05 L317.5 -16.71 L318.8 -15.27 L319.9 -13.74 L320.9 -12.11 L321.8 -10.41 L322.6 -8.645 L323.2 -6.824 L323.7 -4.959 L324 -3.063 L324.2 -1.147 Z " />
<path stroke="rgb(0,0,0)" stroke-opacity="1" fill="rgb(255,255,255)" fill-opacity="1" d="M-713.9 -289.5 L-713.9 -290.5 L-713.8 -291.4 L-713.8 -292.4 L-713.8 -293.4 L-713.7 -294.4 L-713.7 -295.4 L-713.7 -296.4 L-713.7 -297.4 L-713.6 -298.3 L-713.6 -299.3 L-713.6 -300.3 L-713.6 -301.3 L-713.5 -302.3 L-713.5 -303.3 L-713.5 -304.3 L-713.4 -305.2 L-713.4 -306.2 L-713.4 -307.2 L-713.4 -308.2 L-713.3 -309.2 L-713.3 -310.2 L-713.3 -311.2 L-713.3 -312.2 L-713.2 -313.1 L-713.2 -314.1 L-712.2 -314.1 L-711.2 -314.1 L-710.2 -314 L-709.3 -314 L-708.3 -314 L-707.3 -314 L-706.3 -313.9 L-705.3 -313.9 L-704.3 -313.9 L-703.3 -313.9 L-702.4 -313.8 L-701.4 -313.8 L-700.4 -313.8 L-699.4 -313.7 L-698.4 -313.7 L-697.4 -313.7 L-696.4 -313.7 L-695.5 -313.6 L-694.5 -313.6 L-693.5 -313.6 L-692.5 -313.6 L-691.5 -313.5 L-690.5 -313.5 L-689.5 -313.5 L-688.6 -313.5 L-688.6 -312.5 L-688.6 -311.5 L-688.6 -310.5 L-688.7 -309.5 L-688.7 -308.5 L-688.7 -307.5 L-688.7 -306.5 L-688.8 -305.6 L-688.8 -304.6 L-688.8 -303.6 L-688.9 -302.6 L-688.9 -301.6 L-688.9 -300.6 L-688.9 -299.6 L-689 -298.7 L-689 -297.7 L-689 -296.7 L-689 -295.7 L-689.1 -294.7 L-689.1 -293.7 L-689.1 -292.7 L-689.2 -291.8 L-689.2 -290.8 L-689.2 -289.8 L-689.2 -288.8 L-690.2 -288.8 L-691.2 -288.9 L-692.2 -288.9 L-693.2 -288.9 L-694.2 -288.9 L-695.1 -289 L-696.1 -289 L-697.1 -289 L-698.1 -289 L-699.1 -289.1 L-700.1 -289.1 L-701.1 -289.1 L-702 -289.2 L-703 -289.2 L-704 -289.2 L-705 -289.2 L-706 -289.3 L-707 -289.3 L-708 -289.3 L-708.9 -289.3 L-709.9 -289.4 L-710.9 -289.4 L-711.9 -289.4 L-712.9 -289.4 L-713.9 -289.5 Z " />
<path stroke="rgb(0,0,0)" stroke-opacity="1" fill="rgb(255,255,255)" fill-opacity="1" d="M-197.5 87.07 L-196.5 87.29 L-195.5 87.59 L-194.5 87.96 L-193.5 88.41 L-192.6 88.94 L-191.8 89.54 L-190.9 90.21 L-190.2 90.94 L-189.5 91.72 L-188.8 92.56 L-188.3 93.45 L-187.8 94.38 L-187.3 95.35 L-187 96.35 L-186.7 97.37 L-186.6 98.41 L-186.5 99.46 L-186.4 100.5 L-186.5 101.6 L-186.7 102.6 L-186.9 103.6 L-187.2 104.6 L-187.6 105.6 L-188.1 106.6 L-188.6 107.5 L-189.3 108.3 L-189.9 109.1 L-190.7 109.9 L-191.5 110.6 L-192.3 111.2 L-193.2 111.7 L-194.2 112.2 L-195.1 112.6 L-196.2 112.9 L-197.2 113.2 L-198.2 113.4 L-199.3 113.4 L-200.3 113.4 L-201.4 113.3 L-202.4 113.2 L-203.4 112.9 L-204.4 112.6 L-205.4 112.1 L-206.3 111.7 L-207.2 111.1 L-208.1 110.5 L-208.9 109.8 L-209.6 109 L-210.3 108.2 L-210.9 107.3 L-211.4 106.4 L-211.9 105.5 L-212.3 104.5 L-212.6 103.5 L-212.8 102.4 L-212.9 101.4 L-213 100.3 L-213 99.29 L-212.8 98.24 L-212.7 97.2 L-212.4 96.18 L-212 95.19 L-211.6 94.23 L-211.1 93.3 L-210.5 92.42 L-209.8 91.59 L-209.1 90.81 L-208.4 90.09 L-207.5 89.44 L-206.7 88.85 L-205.7 88.34 L-204.8 87.89 L-203.8 87.53 L-202.8 87.25 L-201.7 87.05 L-200.7 86.93 L-199.6 86.89 L-198.6 86.94 L-197.5 87.07 Z " />
<path stroke="rgb(0,0,0)" stroke-opacity="1" fill="rgb(255,255,255)" fill-opacity="1" d="M-512.6 -288.2 L-512.6 -289.2 L-512.6 -290.1 L-512.6 -291.1 L-512.5 -292.1 L-512.5 -293.1 L-512.5 -294.1 L-512.5 -295.1 L-512.5 -296.1 L-512.5 -297.1 L-512.5 -298 L-512.5 -299 L-512.5 -300 L-512.5 -301 L-512.4 -302 L-512.4 -303 L-512.4 -304 L-512.4 -304.9 L-512.4 -305.9 L-512.4 -306.9 L-512.4 -307.9 L-512.4 -308.9 L-512.4 -309.9 L-512.4 -310.9 L-512.3 -311.8 L-512.3 -312.8 L-511.3 -312.8 L-510.4 -312.8 L-509.4 -312.8 L-508.4 -312.8 L-507.4 -312.8 L-506.4 -312.8 L-505.4 -312.8 L-504.4 -312.7 L-503.5 -312.7 L-502.5 -312.7 L-501.5 -312.7 L-500.5 -312.7 L-499.5 -312.7 L-498.5 -312.7 L-497.5 -312.7 L-496.6 -312.7 L-495.6 -312.7 L-494.6 -312.6 L-493.6 -312.6 L-492.6 -312.6 L-491.6 -312.6 L-490.6 -312.6 L-489.7 -312.6 L-488.7 -312.6 L-487.7 -312.6 L-487.7 -311.6 L-487.7 -310.6 L-487.7 -309.6 L-487.7 -308.6 L-487.7 -307.6 L-487.7 -306.7 L-487.8 -305.7 L-487.8 -304.7 L-487.8 -303.7 L-487.8 -302.7 L-487.8 -301.7 L-487.8 -300.7 L-487.8 -299.8 L-487.8 -298.8 L-487.8 -297.8 L-487.8 -296.8 L-487.9 -295.8 L-487.9 -294.8 L-487.9 -293.8 L-487.9 -292.9 L-487.9 -291.9 L-487.9 -290.9 L-487.9 -289.9 L-487.9 -288.9 L-487.9 -287.9 L-488.9 -287.9 L-489.9 -287.9 L-490.9 -288 L-491.9 -288 L-492.9 -288 L-493.8 -288 L-494.8 -288 L-495.8 -288 L-496.8 -288 L-497.8 -288 L-498.8 -288 L-499.8 -288 L-500.8 -288.1 L-501.7 -288.1 L-502.7 -288.1 L-503.7 -288.1 L-504.7 -288.1 L-505.7 -288.1 L-506.7 -288.1 L-507.7 -288.1 L-508.6 -288.1 L-509.6 -288.1 L-510.6 -288.2 L-511.6 -288.2 L-512.6 -288.2 Z " />
<path stroke="rgb(0,0,0)" stroke-opacity="1" fill="rgb(255,255,255)" fill-opacity="1" d="M15.83 89.48 L16.62 90.76 L17.32 92.1 L17.9 93.5 L18.37 94.93 L18.73 96.4 L18.97 97.89 L19.08 99.39 L19.08 100.9 L18.96 102.4 L18.72 103.9 L18.36 105.4 L17.89 106.8 L17.31 108.2 L16.61 109.5 L15.81 110.8 L14.92 112 L13.92 113.2 L12.85 114.2 L11.69 115.2 L10.45 116.1 L9.157 116.8 L7.802 117.5 L6.399 118 L4.956 118.5 L3.482 118.8 L1.987 119 L0.4802 119.1 L-1.029 119.1 L-2.531 118.9 L-4.016 118.7 L-5.475 118.3 L-6.898 117.8 L-8.278 117.2 L-9.604 116.4 L-10.87 115.6 L-12.06 114.7 L-13.18 113.7 L-14.22 112.6 L-15.16 111.4 L-16.01 110.2 L-16.75 108.8 L-17.39 107.5 L-17.92 106.1 L-18.33 104.6 L-18.63 103.1 L-18.81 101.6 L-18.87 100.1 L-18.81 98.61 L-18.62 97.11 L-18.33 95.63 L-17.91 94.18 L-17.38 92.77 L-16.74 91.4 L-15.99 90.09 L-15.14 88.84 L-14.2 87.67 L-13.16 86.57 L-12.04 85.56 L-10.85 84.64 L-9.581 83.81 L-8.254 83.1 L-6.874 82.48 L-5.449 81.98 L-3.99 81.6 L-2.504 81.33 L-1.002 81.18 L0.5068 81.15 L2.013 81.25 L3.508 81.46 L4.981 81.78 L6.424 82.23 L7.826 82.79 L9.18 83.45 L10.48 84.23 L11.71 85.1 L12.87 86.07 L13.94 87.13 L14.93 88.27 L15.83 89.48 Z " />
<path stroke="rgb(0,0,0)" stroke-opacity="1" fill="rgb(255,255,255)" fill-opacity="1" d="M-312.6 -288.2 L-312.6 -289.1 L-312.5 -290.1 L-312.5 -291.1 L-312.5 -292.1 L-312.5 -293.1 L-312.5 -294.1 L-312.5 -295.1 L-312.5 -296 L-312.5 -297 L-312.5 -298 L-312.5 -299 L-312.4 -300 L-312.4 -301 L-312.4 -302 L-312.4 -302.9 L-312.4 -303.9 L-312.4 -304.9 L-312.4 -305.9 L-312.4 -306.9 L-312.4 -307.9 L-312.4 -308.9 L-312.4 -309.8 L-312.3 -310.8 L-312.3 -311.8 L-312.3 -312.8 L-311.3 -312.8 L-310.3 -312.8 L-309.4 -312.8 L-308.4 -312.8 L-307.4 -312.8 L-306.4 -312.7 L-305.4 -312.7 L-304.4 -312.7 L-303.4 -312.7 L-302.5 -312.7 L-301.5 -312.7 L-300.5 -312.7 L-299.5 -312.7 L-298.5 -312.7 L-297.5 -312.7 L-296.5 -312.7 L-295.6 -312.6 L-294.6 -312.6 L-293.6 -312.6 L-292.6 -312.6 L-291.6 -312.6 L-290.6 -312.6 L-289.6 -312.6 L-288.7 -312.6 L-287.7 -312.6 L-287.7 -311.6 L-287.7 -310.6 L-287.7 -309.6 L-287.7 -308.6 L-287.7 -307.6 L-287.7 -306.6 L-287.7 -305.7 L-287.7 -304.7 L-287.8 -303.7 L-287.8 -302.7 L-287.8 -301.7 L-287.8 -300.7 L-287.8 -299.7 L-287.8 -298.8 L-287.8 -297.8 L-287.8 -296.8 L-287.8 -295.8 L-287.8 -294.8 L-287.9 -293.8 L-287.9 -292.8 L-287.9 -291.9 L-287.9 -290.9 L-287.9 -289.9 L-287.9 -288.9 L-287.9 -287.9 L-288.9 -287.9 L-289.9 -287.9 L-290.9 -287.9 L-291.9 -288 L-292.8 -288 L-293.8 -288 L-294.8 -288 L-295.8 -288 L-296.8 -288 L-297.8 -288 L-298.8 -288 L-299.7 -288 L-300.7 -288 L-301.7 -288 L-302.7 -288.1 L-303.7 -288.1 L-304.7 -288.1 L-305.7 -288.1 L-306.6 -288.1 L-307.6 -288.1 L-308.6 -288.1 L-309.6 -288.1 L-310.6 -288.1 L-311.6 -288.1 L-312.6 -288.2 Z " />
<path stroke="rgb(0,0,0)" stroke-opacity="1" fill="rgb(255,255,255)" fill-opacity="1" d="M224.2 98.85 L224.2 100.8 L224 102.7 L223.8 104.6 L223.3 106.5 L222.7 108.3 L222 110.1 L221.1 111.8 L220.1 113.4 L219 115 L217.8 116.5 L216.4 117.8 L214.9 119.1 L213.4 120.2 L211.7 121.2 L210 122 L208.2 122.8 L206.4 123.3 L204.5 123.8 L202.6 124.1 L200.7 124.2 L198.8 124.2 L196.9 124 L195 123.7 L193.1 123.2 L191.3 122.6 L189.5 121.8 L187.8 120.9 L186.2 119.9 L184.7 118.7 L183.2 117.4 L181.9 116 L180.7 114.5 L179.6 113 L178.6 111.3 L177.8 109.6 L177.1 107.8 L176.6 105.9 L176.2 104 L175.9 102.1 L175.8 100.2 L175.9 98.29 L176.1 96.38 L176.5 94.49 L177 92.64 L177.6 90.83 L178.4 89.08 L179.4 87.4 L180.4 85.8 L181.6 84.29 L182.9 82.88 L184.4 81.58 L185.9 80.4 L187.5 79.33 L189.2 78.4 L190.9 77.61 L192.7 76.96 L194.6 76.45 L196.5 76.09 L198.4 75.88 L200.3 75.83 L202.2 75.93 L204.1 76.18 L206 76.58 L207.8 77.13 L209.6 77.83 L211.4 78.66 L213 79.63 L214.6 80.73 L216.1 81.95 L217.5 83.29 L218.8 84.73 L219.9 86.26 L220.9 87.89 L221.8 89.59 L222.6 91.35 L223.2 93.18 L223.7 95.04 L224 96.94 L224.2 98.85 Z " />
<path stroke="rgb(0,0,0)" stroke-opacity="1" fill="rgb(255,255,255)" fill-opacity="1" d="M-112.6 -288.2 L-112.6 -289.1 L-112.5 -290.1 L-112.5 -291.1 L-112.5 -292.1 L-112.5 -293.1 L-112.5 -294.1 L-112.5 -295.1 L-112.5 -296 L-112.5 -297 L-112.5 -298 L-112.5 -299 L-112.4 -300 L-112.4 -301 L-112.4 -302 L-112.4 -302.9 L-112.4 -303.9 L-112.4 -304.9 L-112.4 -305.9 L-112.4 -306.9 L-112.4 -307.9 L-112.4 -308.9 L-112.4 -309.8 L-112.3 -310.8 L-112.3 -311.8 L-112.3 -312.8 L-111.3 -312.8 L-110.3 -312.8 L-109.4 -312.8 L-108.4 -312.8 L-107.4 -312.8 L-106.4 -312.7 L-105.4 -312.7 L-104.4 -312.7 L-103.4 -312.7 L-102.5 -312.7 L-101.5 -312.7 L-100.5 -312.7 L-99.5 -312.7 L-98.51 -312.7 L-97.53 -312.7 L-96.54 -312.7 L-95.56 -312.6 L-94.57 -312.6 L-93.58 -312.6 L-92.6 -312.6 L-91.61 -312.6 L-90.63 -312.6 L-89.64 -312.6 L-88.65 -312.6 L-87.67 -312.6 L-87.68 -311.6 L-87.69 -310.6 L-87.7 -309.6 L-87.71 -308.6 L-87.72 -307.6 L-87.73 -306.6 L-87.74 -305.7 L-87.74 -304.7 L-87.75 -303.7 L-87.76 -302.7 L-87.77 -301.7 L-87.78 -300.7 L-87.79 -299.7 L-87.8 -298.8 L-87.81 -297.8 L-87.82 -296.8 L-87.83 -295.8 L-87.84 -294.8 L-87.85 -293.8 L-87.86 -292.8 L-87.87 -291.9 L-87.88 -290.9 L-87.89 -289.9 L-87.9 -288.9 L-87.91 -287.9 L-88.9 -287.9 L-89.88 -287.9 L-90.87 -287.9 L-91.85 -288 L-92.84 -288 L-93.83 -288 L-94.81 -288 L-95.8 -288 L-96.79 -288 L-97.77 -288 L-98.76 -288 L-99.74 -288 L-100.7 -288 L-101.7 -288 L-102.7 -288.1 L-103.7 -288.1 L-104.7 -288.1 L-105.7 -288.1 L-106.6 -288.1 L-107.6 -288.1 L-108.6 -288.1 L-109.6 -288.1 L-110.6 -288.1 L-111.6 -288.1 L-112.6 -288.2 Z " />
<path stroke="rgb(0,0,0)" stroke-opacity="1" fill="rgb(255,255,255)" fill-opacity="1" d="M-297.5 187.1 L-296.5 187.3 L-295.5 187.6 L-294.5 188 L-293.5 188.4 L-292.6 188.9 L-291.8 189.5 L-290.9 190.2 L-290.2 190.9 L-289.5 191.7 L-288.8 192.6 L-288.3 193.5 L-287.8 194.4 L-287.3 195.3 L-287 196.3 L-286.7 197.4 L-286.6 198.4 L-286.5 199.5 L-286.4 200.5 L-286.5 201.6 L-286.7 202.6 L-286.9 203.6 L-287.2 204.6 L-287.6 205.6 L-288.1 206.6 L-288.6 207.5 L-289.3 208.3 L-289.9 209.1 L-290.7 209.9 L-291.5 210.6 L-292.3 211.2 L-293.2 211.7 L-294.2 212.2 L-295.1 212.6 L-296.2 212.9 L-297.2 213.2 L-298.2 213.4 L-299.3 213.4 L-300.3 213.4 L-301.4 213.3 L-302.4 213.2 L-303.4 212.9 L-304.4 212.6 L-305.4 212.1 L-306.3 211.7 L-307.2 211.1 L-308.1 210.5 L-308.9 209.8 L-309.6 209 L-310.3 208.2 L-310.9 207.3 L-311.4 206.4 L-311.9 205.5 L-312.3 204.5 L-312.6 203.5 L-312.8 202.4 L-312.9 201.4 L-313 200.3 L-313 199.3 L-312.8 198.2 L-312.7 197.2 L-312.4 196.2 L-312 195.2 L-311.6 194.2 L-311.1 193.3 L-310.5 192.4 L-309.8 191.6 L-309.1 190.8 L-308.4 190.1 L-307.5 189.4 L-306.7 188.9 L-305.7 188.3 L-304.8 187.9 L-303.8 187.5 L-302.8 187.2 L-301.7 187 L-300.7 186.9 L-299.6 186.9 L-298.6 186.9 L-297.5 187.1 Z " />
<path stroke="rgb(0,0,0)" stroke-opacity="1" fill="rgb(255,255,255)" fill-opacity="1" d="M-612.6 -188.2 L-612.6 -189.2 L-612.6 -190.1 L-612.6 -191.1 L-612.5 -192.1 L-612.5 -193.1 L-612.5 -194.1 L-612.5 -195.1 L-612.5 -196.1 L-612.5 -197.1 L-612.5 -198 L-612.5 -199 L-612.5 -200 L-612.5 -201 L-612.4 -202 L-612.4 -203 L-612.4 -204 L-612.4 -204.9 L-612.4 -205.9 L-612.4 -206.9 L-612.4 -207.9 L-612.4 -208.9 L-612.4 -209.9 L-612.4 -210.9 L-612.3 -211.8 L-612.3 -212.8 L-611.3 -212.8 L-610.4 -212.8 L-609.4 -212.8 L-608.4 -212.8 L-607.4 -212.8 L-606.4 -212.8 L-605.4 -212.8 L-604.4 -212.7 L-603.5 -212.7 L-602.5 -212.7 L-601.5 -212.7 L-600.5 -212.7 L-599.5 -212.7 L-598.5 -212.7 L-597.5 -212.7 L-596.6 -212.7 L-595.6 -212.7 L-594.6 -212.6 L-593.6 -212.6 L-592.6 -212.6 L-591.6 -212.6 L-590.6 -212.6 L-589.7 -212.6 L-588.7 -212.6 L-587.7 -212.6 L-587.7 -211.6 L-587.7 -210.6 L-587.7 -209.6 L-587.7 -208.6 L-587.7 -207.6 L-587.7 -206.7 L-587.8 -205.7 L-587.8 -204.7 L-587.8 -203.7 L-587.8 -202.7 L-587.8 -201.7 L-587.8 -200.7 L-587.8 -199.8 L-587.8 -198.8 L-587.8 -197.8 L-587.8 -196.8 L-587.9 -195.8 L-587.9 -194.8 L-587.9 -193.8 L-587.9 -192.9 L-587.9 -191.9 L-587.9 -190.9 L-587.9 -189.9 L-587.9 -188.9 L-587.9 -187.9 L-588.9 -187.9 L-589.9 -187.9 L-590.9 -188 L-591.9 -188 L-592.9 -188 L-593.8 -188 L-594.8 -188 L-595.8 -188 L-596.8 -188 L-597.8 -188 L-598.8 -188 L-599.8 -188 L-600.8 -188.1 L-601.7 -188.1 L-602.7 -188.1 L-603.7 -188.1 L-604.7 -188.1 L-605.7 -188.1 L-606.7 -188.1 L-607.7 -188.1 L-608.6 -188.1 L-609.6 -188.1 L-610.6 -188.2 L-611.6 -188.2 L-612.6 -188.2 Z " />
<path stroke="rgb(0,0,0)" stroke-opacity="1" fill="rgb(255,255,255)" fill-opacity="1" d="M-84.17 189.5 L-83.38 190.8 L-82.68 192.1 L-82.1 193.5 L-81.63 194.9 L-81.27 196.4 L-81.03 197.9 L-80.92 199.4 L-80.92 200.9 L-81.04 202.4 L-81.28 203.9 L-81.64 205.4 L-82.11 206.8 L-82.69 208.2 L-83.39 209.5 L-84.19 210.8 L-85.08 212 L-86.08 213.2 L-87.15 214.2 L-88.31 215.2 L-89.55 216.1 L-90.84 216.8 L-92.2 217.5 L-93.6 218 L-95.04 218.5 L-96.52 218.8 L-98.01 219 L-99.52 219.1 L-101 219.1 L-102.5 218.9 L-104 218.7 L-105.5 218.3 L-106.9 217.8 L-108.3 217.2 L-109.6 216.4 L-110.9 215.6 L-112.1 214.7 L-113.2 213.7 L-114.2 212.6 L-115.2 211.4 L-116 210.2 L-116.8 208.8 L-117.4 207.5 L-117.9 206.1 L-118.3 204.6 L-118.6 203.1 L-118.8 201.6 L-118.9 200.1 L-118.8 198.6 L-118.6 197.1 L-118.3 195.6 L-117.9 194.2 L-117.4 192.8 L-116.7 191.4 L-116 190.1 L-115.1 188.8 L-114.2 187.7 L-113.2 186.6 L-112 185.6 L-110.8 184.6 L-109.6 183.8 L-108.3 183.1 L-106.9 182.5 L-105.4 182 L-104 181.6 L-102.5 181.3 L-101 181.2 L-99.49 181.2 L-97.99 181.2 L-96.49 181.5 L-95.02 181.8 L-93.58 182.2 L-92.17 182.8 L-90.82 183.5 L-89.52 184.2 L-88.29 185.1 L-87.13 186.1 L-86.06 187.1 L-85.07 188.3 L-84.17 189.5 Z " />
<path stroke="rgb(0,0,0)" stroke-opacity="1" fill="rgb(255,255,255)" fill-opacity="1" d="M-412.6 -188.2 L-412.6 -189.1 L-412.5 -190.1 L-412.5 -191.1 L-412.5 -192.1 L-412.5 -193.1 L-412.5 -194.1 L-412.5 -195.1 L-412.5 -196 L-412.5 -197 L-412.5 -198 L-412.5 -199 L-412.4 -200 L-412.4 -201 L-412.4 -202 L-412.4 -202.9 L-412.4 -203.9 L-412.4 -204.9 L-412.4 -205.9 L-412.4 -206.9 L-412.4 -207.9 L-412.4 -208.9 L-412.4 -209.8 L-412.3 -210.8 L-412.3 -211.8 L-412.3 -212.8 L-411.3 -212.8 L-410.3 -212.8 L-409.4 -212.8 L-408.4 -212.8 L-407.4 -212.8 L-406.4 -212.7 L-405.4 -212.7 L-404.4 -212.7 L-403.4 -212.7 L-402.5 -212.7 L-401.5 -212.7 L-400.5 -212.7 L-399.5 -212.7 L-398.5 -212.7 L-397.5 -212.7 L-396.5 -212.7 L-395.6 -212.6 L-394.6 -212.6 L-393.6 -212.6 L-392.6 -212.6 L-391.6 -212.6 L-390.6 -212.6 L-389.6 -212.6 L-388.7 -212.6 L-387.7 -212.6 L-387.7 -211.6 L-387.7 -210.6 L-387.7 -209.6 L-387.7 -208.6 L-387.7 -207.6 L-387.7 -206.6 L-387.7 -205.7 L-387.7 -204.7 L-387.8 -203.7 L-387.8 -202.7 L-387.8 -201.7 L-387.8 -200.7 L-387.8 -199.7 L-387.8 -198.8 L-387.8 -197.8 L-387.8 -196.8 L-387.8 -195.8 L-387.8 -194.8 L-387.9 -193.8 L-387.9 -192.8 L-387.9 -191.9 L-387.9 -190.9 L-387.9 -189.9 L-387.9 -188.9 L-387.9 -187.9 L-388.9 -187.9 L-389.9 -187.9 L-390.9 -187.9 L-391.9 -188 L-392.8 -188 L-393.8 -188 L-394.8 -188 L-395.8 -188 L-396.8 -188 L-397.8 -188 L-398.8 -188 L-399.7 -188 L-400.7 -188 L-401.7 -188 L-402.7 -188.1 L-403.7 -188.1 L-404.7 -188.1 L-405.7 -188.1 L-406.6 -188.1 L-407.6 -188.1 L-408.6 -188.1 L-409.6 -188.1 L-410.6 -188.1 L-411.6 -188.1 L-412.6 -188.2 Z " />
<path stroke="rgb(0,0,0)" stroke-opacity="1" fill="rgb(255,255,255)" fill-opacity="1" d="M124.2 198.9 L124.2 200.8 L124 202.7 L123.8 204.6 L123.3 206.5 L122.7 208.3 L122 210.1 L121.1 211.8 L120.1 213.4 L119 215 L117.8 216.5 L116.4 217.8 L114.9 219.1 L113.4 220.2 L111.7 221.2 L110 222 L108.2 222.8 L106.4 223.3 L104.5 223.8 L102.6 224.1 L100.7 224.2 L98.77 224.2 L96.85 224 L94.96 223.7 L93.1 223.2 L91.28 222.6 L89.51 221.8 L87.81 220.9 L86.19 219.9 L84.66 218.7 L83.22 217.4 L81.89 216 L80.68 214.5 L79.58 213 L78.62 211.3 L77.79 209.6 L77.1 207.8 L76.56 205.9 L76.16 204 L75.92 202.1 L75.83 200.2 L75.89 198.3 L76.1 196.4 L76.46 194.5 L76.98 192.6 L77.64 190.8 L78.44 189.1 L79.37 187.4 L80.44 185.8 L81.63 184.3 L82.94 182.9 L84.35 181.6 L85.87 180.4 L87.47 179.3 L89.15 178.4 L90.9 177.6 L92.71 177 L94.57 176.4 L96.46 176.1 L98.37 175.9 L100.3 175.8 L102.2 175.9 L104.1 176.2 L106 176.6 L107.8 177.1 L109.6 177.8 L111.4 178.7 L113 179.6 L114.6 180.7 L116.1 182 L117.5 183.3 L118.8 184.7 L119.9 186.3 L120.9 187.9 L121.8 189.6 L122.6 191.4 L123.2 193.2 L123.7 195 L124 196.9 L124.2 198.9 Z " />
<path stroke="rgb(0,0,0)" stroke-opacity="1" fill="rgb(255,255,255)" fill-opacity="1" d="M-212.6 -188.2 L-212.6 -189.1 L-212.5 -190.1 L-212.5 -191.1 L-212.5 -192.1 L-212.5 -193.1 L-212.5 -194.1 L-212.5 -195.1 L-212.5 -196 L-212.5 -197 L-212.5 -198 L-212.5 -199 L-212.4 -200 L-212.4 -201 L-212.4 -202 L-212.4 -202.9 L-212.4 -203.9 L-212.4 -204.9 L-212.4 -205.9 L-212.4 -206.9 L-212.4 -207.9 L-212.4 -208.9 L-212.4 -209.8 L-212.3 -210.8 L-212.3 -211.8 L-212.3 -212.8 L-211.3 -212.8 L-210.3 -212.8 L-209.4 -212.8 L-208.4 -212.8 L-207.4 -212.8 L-206.4 -212.7 L-205.4 -212.7 L-204.4 -212.7 L-203.4 -212.7 L-202.5 -212.7 L-201.5 -212.7 L-200.5 -212.7 L-199.5 -212.7 L-198.5 -212.7 L-197.5 -212.7 L-196.5 -212.7 L-195.6 -212.6 L-194.6 -212.6 L-193.6 -212.6 L-192.6 -212.6 L-191.6 -212.6 L-190.6 -212.6 L-189.6 -212.6 L-188.7 -212.6 L-187.7 -212.6 L-187.7 -211.6 L-187.7 -210.6 L-187.7 -209.6 L-187.7 -208.6 L-187.7 -207.6 L-187.7 -206.6 L-187.7 -205.7 L-187.7 -204.7 L-187.8 -203.7 L-187.8 -202.7 L-187.8 -201.7 L-187.8 -200.7 L-187.8 -199.7 L-187.8 -198.8 L-187.8 -197.8 L-187.8 -196.8 L-187.8 -195.8 L-187.8 -194.8 L-187.9 -193.8 L-187.9 -192.8 L-187.9 -191.9 L-187.9 -190.9 L-187.9 -189.9 L-187.9 -188.9 L-187.9 -187.9 L-188.9 -187.9 L-189.9 -187.9 L-190.9 -187.9 L-191.9 -188 L-192.8 -188 L-193.8 -188 L-194.8 -188 L-195.8 -188 L-196.8 -188 L-197.8 -188 L-198.8 -188 L-199.7 -188 L-200.7 -188 L-201.7 -188 L-202.7 -188.1 L-203.7 -188.1 L-204.7 -188.1 L-205.7 -188.1 L-206.6 -188.1 L-207.6 -188.1 L-208.6 -188.1 L-209.6 -188.1 L-210.6 -188.1 L-211.6 -188.1 L-212.6 -188.2 Z " />
<path stroke="rgb(0,0,0)" stroke-opacity="1" fill="rgb(255,255,255)" fill-opacity="1" d="M324.8 200.2 L324.7 202.2 L324.5 204.1 L324 206.1 L323.5 208 L322.8 209.8 L321.9 211.6 L320.9 213.3 L319.8 214.9 L318.6 216.4 L317.2 217.9 L315.7 219.2 L314.2 220.4 L312.5 221.4 L310.8 222.3 L308.9 223.1 L307.1 223.8 L305.2 224.3 L303.2 224.6 L301.3 224.8 L299.3 224.8 L297.3 224.7 L295.4 224.4 L293.5 223.9 L291.6 223.3 L289.7 222.6 L288 221.7 L286.3 220.7 L284.7 219.5 L283.2 218.2 L281.8 216.8 L280.5 215.3 L279.4 213.7 L278.3 212.1 L277.4 210.3 L276.7 208.5 L276.1 206.6 L275.6 204.7 L275.4 202.7 L275.2 200.8 L275.2 198.8 L275.4 196.8 L275.7 194.9 L276.2 193 L276.9 191.1 L277.6 189.3 L278.6 187.6 L279.6 185.9 L280.8 184.3 L282.1 182.8 L283.5 181.5 L285 180.2 L286.7 179.1 L288.4 178.1 L290.1 177.2 L292 176.5 L293.9 176 L295.8 175.6 L297.8 175.3 L299.7 175.2 L301.7 175.3 L303.7 175.5 L305.6 175.8 L307.5 176.4 L309.4 177 L311.1 177.8 L312.9 178.8 L314.5 179.9 L316.1 181.1 L317.5 182.4 L318.9 183.9 L320.1 185.4 L321.2 187.1 L322.1 188.8 L323 190.6 L323.6 192.4 L324.2 194.3 L324.5 196.3 L324.7 198.2 L324.8 200.2 Z " />
<path stroke="rgb(0,0,0)" stroke-opacity="1" fill="rgb(255,255,255)" fill-opacity="1" d="M-712.6 -88.17 L-712.6 -89.16 L-712.6 -90.15 L-712.6 -91.13 L-712.5 -92.12 L-712.5 -93.11 L-712.5 -94.09 L-712.5 -95.08 L-712.5 -96.06 L-712.5 -97.05 L-712.5 -98.04 L-712.5 -99.02 L-712.5 -100 L-712.5 -101 L-712.4 -102 L-712.4 -103 L-712.4 -104 L-712.4 -104.9 L-712.4 -105.9 L-712.4 -106.9 L-712.4 -107.9 L-712.4 -108.9 L-712.4 -109.9 L-712.4 -110.9 L-712.3 -111.8 L-712.3 -112.8 L-711.3 -112.8 L-710.4 -112.8 L-709.4 -112.8 L-708.4 -112.8 L-707.4 -112.8 L-706.4 -112.8 L-705.4 -112.8 L-704.4 -112.7 L-703.5 -112.7 L-702.5 -112.7 L-701.5 -112.7 L-700.5 -112.7 L-699.5 -112.7 L-698.5 -112.7 L-697.5 -112.7 L-696.6 -112.7 L-695.6 -112.7 L-694.6 -112.6 L-693.6 -112.6 L-692.6 -112.6 L-691.6 -112.6 L-690.6 -112.6 L-689.7 -112.6 L-688.7 -112.6 L-687.7 -112.6 L-687.7 -111.6 L-687.7 -110.6 L-687.7 -109.6 L-687.7 -108.6 L-687.7 -107.6 L-687.7 -106.7 L-687.8 -105.7 L-687.8 -104.7 L-687.8 -103.7 L-687.8 -102.7 L-687.8 -101.7 L-687.8 -100.7 L-687.8 -99.76 L-687.8 -98.77 L-687.8 -97.79 L-687.8 -96.8 L-687.9 -95.81 L-687.9 -94.83 L-687.9 -93.84 L-687.9 -92.86 L-687.9 -91.87 L-687.9 -90.88 L-687.9 -89.9 L-687.9 -88.91 L-687.9 -87.93 L-688.9 -87.94 L-689.9 -87.95 L-690.9 -87.96 L-691.9 -87.97 L-692.9 -87.98 L-693.8 -87.99 L-694.8 -88 L-695.8 -88.01 L-696.8 -88.02 L-697.8 -88.03 L-698.8 -88.04 L-699.8 -88.05 L-700.8 -88.06 L-701.7 -88.07 L-702.7 -88.07 L-703.7 -88.08 L-704.7 -88.09 L-705.7 -88.1 L-706.7 -88.11 L-707.7 -88.12 L-708.6 -88.13 L-709.6 -88.14 L-710.6 -88.15 L-711.6 -88.16 L-712.6 -88.17 Z " />
<path stroke="rgb(0,0,0)" stroke-opacity="1" fill="rgb(255,255,255)" fill-opacity="1" d="M-184.2 289.5 L-183.4 290.8 L-182.7 292.1 L-182.1 293.5 L-181.6 294.9 L-181.3 296.4 L-181 297.9 L-180.9 299.4 L-180.9 300.9 L-181 302.4 L-181.3 303.9 L-181.6 305.4 L-182.1 306.8 L-182.7 308.2 L-183.4 309.5 L-184.2 310.8 L-185.1 312 L-186.1 313.2 L-187.2 314.2 L-188.3 315.2 L-189.5 316.1 L-190.8 316.8 L-192.2 317.5 L-193.6 318 L-195 318.5 L-196.5 318.8 L-198 319 L-199.5 319.1 L-201 319.1 L-202.5 318.9 L-204 318.7 L-205.5 318.3 L-206.9 317.8 L-208.3 317.2 L-209.6 316.4 L-210.9 315.6 L-212.1 314.7 L-213.2 313.7 L-214.2 312.6 L-215.2 311.4 L-216 310.2 L-216.8 308.8 L-217.4 307.5 L-217.9 306.1 L-218.3 304.6 L-218.6 303.1 L-218.8 301.6 L-218.9 300.1 L-218.8 298.6 L-218.6 297.1 L-218.3 295.6 L-217.9 294.2 L-217.4 292.8 L-216.7 291.4 L-216 290.1 L-215.1 288.8 L-214.2 287.7 L-213.2 286.6 L-212 285.6 L-210.8 284.6 L-209.6 283.8 L-208.3 283.1 L-206.9 282.5 L-205.4 282 L-204 281.6 L-202.5 281.3 L-201 281.2 L-199.5 281.2 L-198 281.2 L-196.5 281.5 L-195 281.8 L-193.6 282.2 L-192.2 282.8 L-190.8 283.5 L-189.5 284.2 L-188.3 285.1 L-187.1 286.1 L-186.1 287.1 L-185.1 288.3 L-184.2 289.5 Z " />
<path stroke="rgb(0,0,0)" stroke-opacity="1" fill="rgb(255,255,255)" fill-opacity="1" d="M-512.6 -88.15 L-512.6 -89.14 L-512.5 -90.13 L-512.5 -91.11 L-512.5 -92.1 L-512.5 -93.09 L-512.5 -94.07 L-512.5 -95.06 L-512.5 -96.04 L-512.5 -97.03 L-512.5 -98.02 L-512.5 -99 L-512.4 -99.99 L-512.4 -101 L-512.4 -102 L-512.4 -102.9 L-512.4 -103.9 L-512.4 -104.9 L-512.4 -105.9 L-512.4 -106.9 L-512.4 -107.9 L-512.4 -108.9 L-512.4 -109.8 L-512.3 -110.8 L-512.3 -111.8 L-512.3 -112.8 L-511.3 -112.8 L-510.3 -112.8 L-509.4 -112.8 L-508.4 -112.8 L-507.4 -112.8 L-506.4 -112.7 L-505.4 -112.7 L-504.4 -112.7 L-503.4 -112.7 L-502.5 -112.7 L-501.5 -112.7 L-500.5 -112.7 L-499.5 -112.7 L-498.5 -112.7 L-497.5 -112.7 L-496.5 -112.7 L-495.6 -112.6 L-494.6 -112.6 L-493.6 -112.6 L-492.6 -112.6 L-491.6 -112.6 L-490.6 -112.6 L-489.6 -112.6 L-488.7 -112.6 L-487.7 -112.6 L-487.7 -111.6 L-487.7 -110.6 L-487.7 -109.6 L-487.7 -108.6 L-487.7 -107.6 L-487.7 -106.6 L-487.7 -105.7 L-487.7 -104.7 L-487.8 -103.7 L-487.8 -102.7 L-487.8 -101.7 L-487.8 -100.7 L-487.8 -99.75 L-487.8 -98.76 L-487.8 -97.77 L-487.8 -96.79 L-487.8 -95.8 L-487.8 -94.81 L-487.9 -93.83 L-487.9 -92.84 L-487.9 -91.86 L-487.9 -90.87 L-487.9 -89.88 L-487.9 -88.9 L-487.9 -87.91 L-488.9 -87.92 L-489.9 -87.93 L-490.9 -87.94 L-491.9 -87.95 L-492.8 -87.96 L-493.8 -87.97 L-494.8 -87.98 L-495.8 -87.99 L-496.8 -88 L-497.8 -88.01 L-498.8 -88.02 L-499.7 -88.03 L-500.7 -88.04 L-501.7 -88.05 L-502.7 -88.06 L-503.7 -88.07 L-504.7 -88.08 L-505.7 -88.09 L-506.6 -88.1 L-507.6 -88.11 L-508.6 -88.12 L-509.6 -88.13 L-510.6 -88.13 L-511.6 -88.14 L-512.6 -88.15 Z " />
<path stroke="rgb(0,0,0)" stroke-opacity="1" fill="rgb(255,255,255)" fill-opacity="1" d="M24.17 298.9 L24.18 300.8 L24.05 302.7 L23.76 304.6 L23.32 306.5 L22.73 308.3 L22 310.1 L21.13 311.8 L20.13 313.4 L19 315 L17.75 316.5 L16.39 317.8 L14.92 319.1 L13.36 320.2 L11.72 321.2 L10 322 L8.22 322.8 L6.386 323.3 L4.512 323.8 L2.61 324.1 L0.6915 324.2 L-1.231 324.2 L-3.147 324 L-5.042 323.7 L-6.905 323.2 L-8.724 322.6 L-10.49 321.8 L-12.19 320.9 L-13.81 319.9 L-15.34 318.7 L-16.78 317.4 L-18.11 316 L-19.32 314.5 L-20.42 313 L-21.38 311.3 L-22.21 309.6 L-22.9 307.8 L-23.44 305.9 L-23.84 304 L-24.08 302.1 L-24.17 300.2 L-24.11 298.3 L-23.9 296.4 L-23.54 294.5 L-23.02 292.6 L-22.36 290.8 L-21.56 289.1 L-20.63 287.4 L-19.56 285.8 L-18.37 284.3 L-17.06 282.9 L-15.65 281.6 L-14.13 280.4 L-12.53 279.3 L-10.85 278.4 L-9.096 277.6 L-7.288 277 L-5.432 276.4 L-3.543 276.1 L-1.631 275.9 L0.2913 275.8 L2.212 275.9 L4.118 276.2 L5.999 276.6 L7.842 277.1 L9.635 277.8 L11.37 278.7 L13.03 279.6 L14.61 280.7 L16.09 282 L17.48 283.3 L18.75 284.7 L19.91 286.3 L20.94 287.9 L21.83 289.6 L22.59 291.4 L23.21 293.2 L23.68 295 L24 296.9 L24.17 298.9 Z " />
<path stroke="rgb(0,0,0)" stroke-opacity="1" fill="rgb(255,255,255)" fill-opacity="1" d="M-312.6 -88.15 L-312.6 -89.14 L-312.5 -90.13 L-312.5 -91.11 L-312.5 -92.1 L-312.5 -93.09 L-312.5 -94.07 L-312.5 -95.06 L-312.5 -96.04 L-312.5 -97.03 L-312.5 -98.02 L-312.5 -99 L-312.4 -99.99 L-312.4 -101 L-312.4 -102 L-312.4 -102.9 L-312.4 -103.9 L-312.4 -104.9 L-312.4 -105.9 L-312.4 -106.9 L-312.4 -107.9 L-312.4 -108.9 L-312.4 -109.8 L-312.3 -110.8 L-312.3 -111.8 L-312.3 -112.8 L-311.3 -112.8 L-310.3 -112.8 L-309.4 -112.8 L-308.4 -112.8 L-307.4 -112.8 L-306.4 -112.7 L-305.4 -112.7 L-304.4 -112.7 L-303.4 -112.7 L-302.5 -112.7 L-301.5 -112.7 L-300.5 -112.7 L-299.5 -112.7 L-298.5 -112.7 L-297.5 -112.7 L-296.5 -112.7 L-295.6 -112.6 L-294.6 -112.6 L-293.6 -112.6 L-292.6 -112.6 L-291.6 -112.6 L-290.6 -112.6 L-289.6 -112.6 L-288.7 -112.6 L-287.7 -112.6 L-287.7 -111.6 L-287.7 -110.6 L-287.7 -109.6 L-287.7 -108.6 L-287.7 -107.6 L-287.7 -106.6 L-287.7 -105.7 L-287.7 -104.7 L-287.8 -103.7 L-287.8 -102.7 L-287.8 -101.7 L-287.8 -100.7 L-287.8 -99.75 L-287.8 -98.76 L-287.8 -97.77 L-287.8 -96.79 L-287.8 -95.8 L-287.8 -94.81 L-287.9 -93.83 L-287.9 -92.84 L-287.9 -91.86 L-287.9 -90.87 L-287.9 -89.88 L-287.9 -88.9 L-287.9 -87.91 L-288.9 -87.92 L-289.9 -87.93 L-290.9 -87.94 L-291.9 -87.95 L-292.8 -87.96 L-293.8 -87.97 L-294.8 -87.98 L-295.8 -87.99 L-296.8 -88 L-297.8 -88.01 L-298.8 -88.02 L-299.7 -88.03 L-300.7 -88.04 L-301.7 -88.05 L-302.7 -88.06 L-303.7 -88.07 L-304.7 -88.08 L-305.7 -88.09 L-306.6 -88.1 L-307.6 -88.11 L-308.6 -88.12 L-309.6 -88.13 L-310.6 -88.13 L-311.6 -88.14 L-312.6 -88.15 Z " />
<path stroke="rgb(0,0,0)" stroke-opacity="1" fill="rgb(255,255,255)" fill-opacity="1" d="M224.8 300.2 L224.7 302.2 L224.5 304.1 L224 306.1 L223.5 308 L222.8 309.8 L221.9 311.6 L220.9 313.3 L219.8 314.9 L218.6 316.4 L217.2 317.9 L215.7 319.2 L214.2 320.4 L212.5 321.4 L210.8 322.3 L208.9 323.1 L207.1 323.8 L205.2 324.3 L203.2 324.6 L201.3 324.8 L199.3 324.8 L197.3 324.7 L195.4 324.4 L193.5 323.9 L191.6 323.3 L189.7 322.6 L188 321.7 L186.3 320.7 L184.7 319.5 L183.2 318.2 L181.8 316.8 L180.5 315.3 L179.4 313.7 L178.3 312.1 L177.4 310.3 L176.7 308.5 L176.1 306.6 L175.6 304.7 L175.4 302.7 L175.2 300.8 L175.2 298.8 L175.4 296.8 L175.7 294.9 L176.2 293 L176.9 291.1 L177.6 289.3 L178.6 287.6 L179.6 285.9 L180.8 284.3 L182.1 282.8 L183.5 281.5 L185 280.2 L186.7 279.1 L188.4 278.1 L190.1 277.2 L192 276.5 L193.9 276 L195.8 275.6 L197.8 275.3 L199.7 275.2 L201.7 275.3 L203.7 275.5 L205.6 275.8 L207.5 276.4 L209.4 277 L211.1 277.8 L212.9 278.8 L214.5 279.9 L216.1 281.1 L217.5 282.4 L218.9 283.9 L220.1 285.4 L221.2 287.1 L222.1 288.8 L223 290.6 L223.6 292.4 L224.2 294.3 L224.5 296.3 L224.7 298.2 L224.8 300.2 Z " />
<path stroke="rgb(0,0,0)" stroke-opacity="1" fill="rgb(255,255,255)" fill-opacity="1" d="M-112.6 -88.15 L-112.6 -89.14 L-112.5 -90.13 L-112.5 -91.11 L-112.5 -92.1 L-112.5 -93.09 L-112.5 -94.07 L-112.5 -95.06 L-112.5 -96.04 L-112.5 -97.03 L-112.5 -98.02 L-112.5 -99 L-112.4 -99.99 L-112.4 -101 L-112.4 -102 L-112.4 -102.9 L-112.4 -103.9 L-112.4 -104.9 L-112.4 -105.9 L-112.4 -106.9 L-112.4 -107.9 L-112.4 -108.9 L-112.4 -109.8 L-112.3 -110.8 L-112.3 -111.8 L-112.3 -112.8 L-111.3 -112.8 L-110.3 -112.8 L-109.4 -112.8 L-108.4 -112.8 L-107.4 -112.8 L-106.4 -112.7 L-105.4 -112.7 L-104.4 -112.7 L-103.4 -112.7 L-102.5 -112.7 L-101.5 -112.7 L-100.5 -112.7 L-99.5 -112.7 L-98.51 -112.7 L-97.53 -112.7 L-96.54 -112.7 L-95.56 -112.6 L-94.57 -112.6 L-93.58 -112.6 L-92.6 -112.6 L-91.61 -112.6 L-90.63 -112.6 L-89.64 -112.6 L-88.65 -112.6 L-87.67 -112.6 L-87.68 -111.6 L-87.69 -110.6 L-87.7 -109.6 L-87.71 -108.6 L-87.72 -107.6 L-87.73 -106.6 L-87.74 -105.7 L-87.74 -104.7 L-87.75 -103.7 L-87.76 -102.7 L-87.77 -101.7 L-87.78 -100.7 L-87.79 -99.75 L-87.8 -98.76 L-87.81 -97.77 L-87.82 -96.79 L-87.83 -95.8 L-87.84 -94.81 L-87.85 -93.83 L-87.86 -92.84 L-87.87 -91.86 L-87.88 -90.87 L-87.89 -89.88 L-87.9 -88.9 L-87.91 -87.91 L-88.9 -87.92 L-89.88 -87.93 L-90.87 -87.94 L-91.85 -87.95 L-92.84 -87.96 L-93.83 -87.97 L-94.81 -87.98 L-95.8 -87.99 L-96.79 -88 L-97.77 -88.01 L-98.76 -88.02 L-99.74 -88.03 L-100.7 -88.04 L-101.7 -88.05 L-102.7 -88.06 L-103.7 -88.07 L-104.7 -88.08 L-105.7 -88.09 L-106.6 -88.1 L-107.6 -88.11 L-108.6 -88.12 L-109.6 -88.13 L-110.6 -88.13 L-111.6 -88.14 L-112.6 -88.15 Z " />
</g>
</g>
</svg>
