<!DOCTYPE svg>
<svg xmlns="http://www.w3.org/2000/svg" xmlns:xlink="http://www.w3.org/1999/xlink" width="1000" height="1000">
<g transform="translate(500.000000,500.000000)">
<g transform="scale(3.000000,3.000000)">
<path stroke="rgb(0,0,0)" stroke-opacity="1" fill="rgb(255,255,255)" fill-opacity="1" d="M-455.6 -475 L-455 -474.2 L-454.4 -473.5 L-453.8 -472.7 L-453.2 -471.9 L-452.6 -471.1 L-451.9 -470.3 L-451.3 -469.5 L-450.7 -468.8 L-450.1 -468 L-449.5 -467.2 L-448.9 -466.4 L-448.3 -465.6 L-447.7 -464.8 L-447 -464.1 L-446.4 -463.3 L-445.8 -462.5 L-445.2 -461.7 L-444.6 -460.9 L-444 -460.1 L-443.4 -459.4 L-442.7 -458.6 L-442.1 -457.8 L-441.5 -457 L-440.9 -456.2 L-440.3 -455.4 L-441.1 -454.8 L-441.9 -454.2 L-442.6 -453.6 L-443.4 -453 L-444.2 -452.4 L-445 -451.8 L-445.8 -451.1 L-446.6 -450.5 L-447.3 -449.9 L-448.1 -449.3 L-448.9 -448.7 L-449.7 -448.1 L-450.5 -447.5 L-451.3 -446.8 L-452 -446.2 L-452.8 -445.6 L-453.6 -445 L-454.4 -444.4 L-455.2 -443.8 L-456 -443.2 L-456.7 -442.6 L-457.5 -441.9 L-458.3 -441.3 L-459.1 -440.7 L-459.9 -440.1 L-460.5 -440.9 L-461.1 -441.7 L-461.7 -442.4 L-462.3 -443.2 L-462.9 -444 L-463.6 -444.8 L-464.2 -445.6 L-464.8 -446.4 L-465.4 -447.1 L-466 -447.9 L-466.6 -448.7 L-467.2 -449.5 L-467.9 -450.3 L-468.5 -451.1 L-469.1 -451.8 L-469.7 -452.6 L-470.3 -453.4 L-470.9 -454.2 L-471.5 -455 L-472.1 -455.8 L-472.8 -456.5 L-473.4 -457.3 L-474 -458.1 L-474.6 -458.9 L-475.2 -459.7 L-474.4 -460.3 L-473.6 -460.9 L-472.9 -461.5 L-472.1 -462.1 L-471.3 -462.8 L-470.5 -463.4 L-469.7 -464 L-468.9 -464.6 L-468.2 -465.2 L-467.4 -465.8 L-466.6 -466.4 L-465.8 -467 L-465 -467.7 L-464.2 -468.3 L-463.5 -468.9 L-462.7 -469.5 L-461.9 -470.1 L-461.1 -470.7 L-460.3 -471.3 L-459.5 -472 L-458.8 -472.6 L-458 -473.2 L-457.2 -473.8 L-456.4 -474.4 L-455.6 -475 Z " />
<path stroke="rgb(0,0,0)" stroke-opacity="1" fill="rgb(255,255,255)" fill-opacity="1" d="M-199.6 -312.3 L-198.7 -312.3 L-197.7 -312.1 L-196.7 -311.9 L-195.7 -311.7 L-194.8 -311.3 L-193.9 -310.9 L-193.1 -310.4 L-192.2 -309.8 L-191.5 -309.2 L-190.8 -308.5 L-190.1 -307.8 L-189.5 -307 L-189 -306.2 L-188.5 -305.3 L-188.1 -304.4 L-187.8 -303.5 L-187.5 -302.5 L-187.3 -301.5 L-187.2 -300.5 L-187.2 -299.5 L-187.3 -298.6 L-187.4 -297.6 L-187.6 -296.6 L-187.9 -295.7 L-188.3 -294.7 L-188.8 -293.9 L-189.3 -293 L-189.8 -292.2 L-190.5 -291.4 L-191.2 -290.7 L-191.9 -290.1 L-192.7 -289.5 L-193.6 -289 L-194.4 -288.5 L-195.4 -288.2 L-196.3 -287.8 L-197.3 -287.6 L-198.3 -287.5 L-199.2 -287.4 L-200.2 -287.4 L-201.2 -287.5 L-202.2 -287.6 L-203.2 -287.9 L-204.1 -288.2 L-205 -288.6 L-205.9 -289 L-206.7 -289.6 L-207.5 -290.1 L-208.3 -290.8 L-209 -291.5 L-209.6 -292.3 L-210.2 -293.1 L-210.7 -293.9 L-211.1 -294.8 L-211.5 -295.8 L-211.8 -296.7 L-212 -297.7 L-212.1 -298.7 L-212.2 -299.6 L-212.1 -300.6 L-212 -301.6 L-211.8 -302.6 L-211.6 -303.6 L-211.3 -304.5 L-210.9 -305.4 L-210.4 -306.3 L-209.8 -307.1 L-209.2 -307.9 L-208.6 -308.6 L-207.8 -309.3 L-207.1 -309.9 L-206.2 -310.5 L-205.4 -310.9 L-204.5 -311.4 L-203.5 -311.7 L-202.6 -312 L-201.6 -312.2 L-200.6 -312.3 L-199.6 -312.3 Z " />
<path stroke="rgb(0,0,0)" stroke-opacity="1" fill="rgb(255,255,255)" fill-opacity="1" d="M-235.5 -446.7 L-234.6 -446.2 L-233.7 -445.8 L-232.8 -445.3 L-231.9 -444.9 L-231 -444.4 L-230.1 -444 L-229.3 -443.5 L-228.4 -443.1 L-227.5 -442.6 L-226.6 -442.2 L-225.7 -441.7 L-224.8 -441.2 L-223.9 -440.8 L-223.1 -440.3 L-222.2 -439.9 L-221.3 -439.4 L-220.4 -439 L-219.5 -438.5 L-218.6 -438.1 L-217.7 -437.6 L-216.9 -437.2 L-216 -436.7 L-215.1 -436.3 L-214.2 -435.8 L-213.3 -435.4 L-213.8 -434.5 L-214.2 -433.6 L-214.7 -432.7 L-215.1 -431.8 L-215.6 -430.9 L-216 -430 L-216.5 -429.2 L-216.9 -428.3 L-217.4 -427.4 L-217.8 -426.5 L-218.3 -425.6 L-218.7 -424.7 L-219.2 -423.8 L-219.6 -422.9 L-220.1 -422.1 L-220.6 -421.2 L-221 -420.3 L-221.5 -419.4 L-221.9 -418.5 L-222.4 -417.6 L-222.8 -416.7 L-223.3 -415.9 L-223.7 -415 L-224.2 -414.1 L-224.6 -413.2 L-225.5 -413.6 L-226.4 -414.1 L-227.3 -414.6 L-228.2 -415 L-229.1 -415.5 L-230 -415.9 L-230.8 -416.4 L-231.7 -416.8 L-232.6 -417.3 L-233.5 -417.7 L-234.4 -418.2 L-235.3 -418.6 L-236.2 -419.1 L-237 -419.5 L-237.9 -420 L-238.8 -420.4 L-239.7 -420.9 L-240.6 -421.3 L-241.5 -421.8 L-242.4 -422.3 L-243.2 -422.7 L-244.1 -423.2 L-245 -423.6 L-245.9 -424.1 L-246.8 -424.5 L-246.3 -425.4 L-245.9 -426.3 L-245.4 -427.2 L-245 -428.1 L-244.5 -429 L-244.1 -429.8 L-243.6 -430.7 L-243.2 -431.6 L-242.7 -432.5 L-242.3 -433.4 L-241.8 -434.3 L-241.4 -435.2 L-240.9 -436 L-240.5 -436.9 L-240 -437.8 L-239.5 -438.7 L-239.1 -439.6 L-238.6 -440.5 L-238.2 -441.4 L-237.7 -442.2 L-237.3 -443.1 L-236.8 -444 L-236.4 -444.9 L-235.9 -445.8 L-235.5 -446.7 Z " />
<path stroke="rgb(0,0,0)" stroke-opacity="1" fill="rgb(255,255,255)" fill-opacity="1" d="M0.3584 -312.3 L1.349 -312.3 L2.332 -312.1 L3.303 -311.9 L4.255 -311.7 L5.182 -311.3 L6.078 -310.9 L6.938 -310.4 L7.756 -309.8 L8.527 -309.2 L9.246 -308.5 L9.908 -307.8 L10.51 -307 L11.05 -306.2 L11.52 -305.3 L11.92 -304.4 L12.24 -303.5 L12.49 -302.5 L12.66 -301.5 L12.76 -300.5 L12.77 -299.5 L12.71 -298.6 L12.57 -297.6 L12.35 -296.6 L12.06 -295.7 L11.69 -294.7 L11.25 -293.9 L10.74 -293 L10.16 -292.2 L9.522 -291.4 L8.825 -290.7 L8.075 -290.1 L7.276 -289.5 L6.432 -289 L5.55 -288.5 L4.635 -288.2 L3.692 -287.8 L2.729 -287.6 L1.749 -287.5 L0.761 -287.4 L-0.2301 -287.4 L-1.218 -287.5 L-2.196 -287.6 L-3.158 -287.9 L-4.098 -288.2 L-5.011 -288.6 L-5.889 -289 L-6.729 -289.6 L-7.524 -290.1 L-8.269 -290.8 L-8.96 -291.5 L-9.593 -292.3 L-10.16 -293.1 L-10.67 -293.9 L-11.1 -294.8 L-11.46 -295.8 L-11.75 -296.7 L-11.96 -297.7 L-12.1 -298.7 L-12.15 -299.6 L-12.13 -300.6 L-12.03 -301.6 L-11.85 -302.6 L-11.59 -303.6 L-11.26 -304.5 L-10.85 -305.4 L-10.38 -306.3 L-9.832 -307.1 L-9.225 -307.9 L-8.557 -308.6 L-7.833 -309.3 L-7.057 -309.9 L-6.235 -310.5 L-5.372 -310.9 L-4.473 -311.4 L-3.543 -311.7 L-2.589 -312 L-1.617 -312.2 L-0.6321 -312.3 L0.3584 -312.3 Z " />
<path stroke="rgb(0,0,0)" stroke-opacity="1" fill="rgb(255,255,255)" fill-opacity="1" d="M-22.45 -427.4 L-21.48 -427.2 L-20.5 -427 L-19.53 -426.8 L-18.55 -426.6 L-17.57 -426.4 L-16.6 -426.2 L-15.62 -426 L-14.65 -425.8 L-13.67 -425.6 L-12.7 -425.4 L-11.72 -425.2 L-10.75 -425 L-9.77 -424.8 L-8.794 -424.6 L-7.819 -424.4 L-6.843 -424.2 L-5.867 -424 L-4.892 -423.8 L-3.916 -423.6 L-2.941 -423.4 L-1.965 -423.2 L-0.9895 -423 L-0.01388 -422.8 L0.9617 -422.6 L1.937 -422.4 L1.738 -421.4 L1.539 -420.5 L1.34 -419.5 L1.141 -418.5 L0.942 -417.5 L0.7429 -416.5 L0.5438 -415.6 L0.3448 -414.6 L0.1457 -413.6 L-0.05335 -412.6 L-0.2524 -411.7 L-0.4515 -410.7 L-0.6505 -409.7 L-0.8496 -408.7 L-1.049 -407.8 L-1.248 -406.8 L-1.447 -405.8 L-1.646 -404.8 L-1.845 -403.9 L-2.044 -402.9 L-2.243 -401.9 L-2.442 -400.9 L-2.641 -400 L-2.84 -399 L-3.039 -398 L-4.015 -398.2 L-4.99 -398.4 L-5.966 -398.6 L-6.942 -398.8 L-7.917 -399 L-8.893 -399.2 L-9.868 -399.4 L-10.84 -399.6 L-11.82 -399.8 L-12.8 -400 L-13.77 -400.2 L-14.75 -400.4 L-15.72 -400.6 L-16.7 -400.8 L-17.67 -401 L-18.65 -401.2 L-19.62 -401.4 L-20.6 -401.6 L-21.58 -401.8 L-22.55 -402 L-23.53 -402.2 L-24.5 -402.4 L-25.48 -402.6 L-26.45 -402.8 L-27.43 -403 L-27.23 -404 L-27.03 -404.9 L-26.83 -405.9 L-26.63 -406.9 L-26.43 -407.9 L-26.23 -408.8 L-26.04 -409.8 L-25.84 -410.8 L-25.64 -411.8 L-25.44 -412.7 L-25.24 -413.7 L-25.04 -414.7 L-24.84 -415.7 L-24.64 -416.6 L-24.44 -417.6 L-24.24 -418.6 L-24.04 -419.6 L-23.85 -420.6 L-23.65 -421.5 L-23.45 -422.5 L-23.25 -423.5 L-23.05 -424.5 L-22.85 -425.4 L-22.65 -426.4 L-22.45 -427.4 Z " />
<path stroke="rgb(0,0,0)" stroke-opacity="1" fill="rgb(255,255,255)" fill-opacity="1" d="M200.4 -312.3 L201.3 -312.3 L202.3 -312.1 L203.3 -311.9 L204.3 -311.7 L205.2 -311.3 L206.1 -310.9 L206.9 -310.4 L207.8 -309.8 L208.5 -309.2 L209.2 -308.5 L209.9 -307.8 L210.5 -307 L211 -306.2 L211.5 -305.3 L211.9 -304.4 L212.2 -303.5 L212.5 -302.5 L212.7 -301.5 L212.8 -300.5 L212.8 -299.5 L212.7 -298.6 L212.6 -297.6 L212.4 -296.6 L212.1 -295.7 L211.7 -294.7 L211.2 -293.9 L210.7 -293 L210.2 -292.2 L209.5 -291.4 L208.8 -290.7 L208.1 -290.1 L207.3 -289.5 L206.4 -289 L205.6 -288.5 L204.6 -288.2 L203.7 -287.8 L202.7 -287.6 L201.7 -287.5 L200.8 -287.4 L199.8 -287.4 L198.8 -287.5 L197.8 -287.6 L196.8 -287.9 L195.9 -288.2 L195 -288.6 L194.1 -289 L193.3 -289.6 L192.5 -290.1 L191.7 -290.8 L191 -291.5 L190.4 -292.3 L189.8 -293.1 L189.3 -293.9 L188.9 -294.8 L188.5 -295.8 L188.2 -296.7 L188 -297.7 L187.9 -298.7 L187.8 -299.6 L187.9 -300.6 L188 -301.6 L188.2 -302.6 L188.4 -303.6 L188.7 -304.5 L189.1 -305.4 L189.6 -306.3 L190.2 -307.1 L190.8 -307.9 L191.4 -308.6 L192.2 -309.3 L192.9 -309.9 L193.8 -310.5 L194.6 -310.9 L195.5 -311.4 L196.5 -311.7 L197.4 -312 L198.4 -312.2 L199.4 -312.3 L200.4 -312.3 Z " />
<path stroke="rgb(0,0,0)" stroke-opacity="1" fill="rgb(255,255,255)" fill-opacity="1" d="M184.5 -417 L185.5 -417 L186.5 -416.9 L187.5 -416.9 L188.5 -416.8 L189.5 -416.7 L190.4 -416.7 L191.4 -416.6 L192.4 -416.5 L193.4 -416.5 L194.4 -416.4 L195.4 -416.4 L196.4 -416.3 L197.4 -416.2 L198.4 -416.2 L199.4 -416.1 L200.4 -416.1 L201.4 -416 L202.4 -415.9 L203.4 -415.9 L204.4 -415.8 L205.4 -415.7 L206.4 -415.7 L207.3 -415.6 L208.3 -415.6 L209.3 -415.5 L209.3 -414.5 L209.2 -413.5 L209.1 -412.5 L209.1 -411.5 L209 -410.5 L209 -409.5 L208.9 -408.5 L208.8 -407.5 L208.8 -406.6 L208.7 -405.6 L208.7 -404.6 L208.6 -403.6 L208.5 -402.6 L208.5 -401.6 L208.4 -400.6 L208.3 -399.6 L208.3 -398.6 L208.2 -397.6 L208.2 -396.6 L208.1 -395.6 L208 -394.6 L208 -393.6 L207.9 -392.6 L207.9 -391.6 L207.8 -390.7 L206.8 -390.7 L205.8 -390.8 L204.8 -390.8 L203.8 -390.9 L202.8 -391 L201.8 -391 L200.8 -391.1 L199.8 -391.1 L198.8 -391.2 L197.9 -391.3 L196.9 -391.3 L195.9 -391.4 L194.9 -391.5 L193.9 -391.5 L192.9 -391.6 L191.9 -391.6 L190.9 -391.7 L189.9 -391.8 L188.9 -391.8 L187.9 -391.9 L186.9 -391.9 L185.9 -392 L184.9 -392.1 L183.9 -392.1 L182.9 -392.2 L183 -393.2 L183.1 -394.2 L183.1 -395.2 L183.2 -396.2 L183.3 -397.2 L183.3 -398.2 L183.4 -399.2 L183.4 -400.1 L183.5 -401.1 L183.6 -402.1 L183.6 -403.1 L183.7 -404.1 L183.7 -405.1 L183.8 -406.1 L183.9 -407.1 L183.9 -408.1 L184 -409.1 L184.1 -410.1 L184.1 -411.1 L184.2 -412.1 L184.2 -413.1 L184.3 -414.1 L184.4 -415.1 L184.4 -416 L184.5 -417 Z " />
<path stroke="rgb(0,0,0)" stroke-opacity="1" fill="rgb(255,255,255)" fill-opacity="1" d="M-299.6 -212.3 L-298.7 -212.3 L-297.7 -212.1 L-296.7 -211.9 L-295.7 -211.7 L-294.8 -211.3 L-293.9 -210.9 L-293.1 -210.4 L-292.2 -209.8 L-291.5 -209.2 L-290.8 -208.5 L-290.1 -207.8 L-289.5 -207 L-289 -206.2 L-288.5 -205.3 L-288.1 -204.4 L-287.8 -203.5 L-287.5 -202.5 L-287.3 -201.5 L-287.2 -200.5 L-287.2 -199.5 L-287.3 -198.6 L-287.4 -197.6 L-287.6 -196.6 L-287.9 -195.7 L-288.3 -194.7 L-288.8 -193.9 L-289.3 -193 L-289.8 -192.2 L-290.5 -191.4 L-291.2 -190.7 L-291.9 -190.1 L-292.7 -189.5 L-293.6 -189 L-294.4 -188.5 L-295.4 -188.2 L-296.3 -187.8 L-297.3 -187.6 L-298.3 -187.5 L-299.2 -187.4 L-300.2 -187.4 L-301.2 -187.5 L-302.2 -187.6 L-303.2 -187.9 L-304.1 -188.2 L-305 -188.6 L-305.9 -189 L-306.7 -189.6 L-307.5 -190.1 L-308.3 -190.8 L-309 -191.5 L-309.6 -192.3 L-310.2 -193.1 L-310.7 -193.9 L-311.1 -194.8 L-311.5 -195.8 L-311.8 -196.7 L-312 -197.7 L-312.1 -198.7 L-312.2 -199.6 L-312.1 -200.6 L-312 -201.6 L-311.8 -202.6 L-311.6 -203.6 L-311.3 -204.5 L-310.9 -205.4 L-310.4 -206.3 L-309.8 -207.1 L-309.2 -207.9 L-308.6 -208.6 L-307.8 -209.3 L-307.1 -209.9 L-306.2 -210.5 L-305.4 -210.9 L-304.5 -211.4 L-303.5 -211.7 L-302.6 -212 L-301.6 -212.2 L-300.6 -212.3 L-299.6 -212.3 Z " />
<path stroke="rgb(0,0,0)" stroke-opacity="1" fill="rgb(255,255,255)" fill-opacity="1" d="M-335.5 -346.7 L-334.6 -346.2 L-333.7 -345.8 L-332.8 -345.3 L-331.9 -344.9 L-331 -344.4 L-330.1 -344 L-329.3 -343.5 L-328.4 -343.1 L-327.5 -342.6 L-326.6 -342.2 L-325.7 -341.7 L-324.8 -341.2 L-323.9 -340.8 L-323.1 -340.3 L-322.2 -339.9 L-321.3 -339.4 L-320.4 -339 L-319.5 -338.5 L-318.6 -338.1 L-317.7 -337.6 L-316.9 -337.2 L-316 -336.7 L-315.1 -336.3 L-314.2 -335.8 L-313.3 -335.4 L-313.8 -334.5 L-314.2 -333.6 L-314.7 -332.7 L-315.1 -331.8 L-315.6 -330.9 L-316 -330 L-316.5 -329.2 L-316.9 -328.3 L-317.4 -327.4 L-317.8 -326.5 L-318.3 -325.6 L-318.7 -324.7 L-319.2 -323.8 L-319.6 -322.9 L-320.1 -322.1 L-320.6 -321.2 L-321 -320.3 L-321.5 -319.4 L-321.9 -318.5 L-322.4 -317.6 L-322.8 -316.7 L-323.3 -315.9 L-323.7 -315 L-324.2 -314.1 L-324.6 -313.2 L-325.5 -313.6 L-326.4 -314.1 L-327.3 -314.6 L-328.2 -315 L-329.1 -315.5 L-330 -315.9 L-330.8 -316.4 L-331.7 -316.8 L-332.6 -317.3 L-333.5 -317.7 L-334.4 -318.2 L-335.3 -318.6 L-336.2 -319.1 L-337 -319.5 L-337.9 -320 L-338.8 -320.4 L-339.7 -320.9 L-340.6 -321.3 L-341.5 -321.8 L-342.4 -322.3 L-343.2 -322.7 L-344.1 -323.2 L-345 -323.6 L-345.9 -324.1 L-346.8 -324.5 L-346.3 -325.4 L-345.9 -326.3 L-345.4 -327.2 L-345 -328.1 L-344.5 -329 L-344.1 -329.8 L-343.6 -330.7 L-343.2 -331.6 L-342.7 -332.5 L-342.3 -333.4 L-341.8 -334.3 L-341.4 -335.2 L-340.9 -336 L-340.5 -336.9 L-340 -337.8 L-339.5 -338.7 L-339.1 -339.6 L-338.6 -340.5 L-338.2 -341.4 L-337.7 -342.2 L-337.3 -343.1 L-336.8 -344 L-336.4 -344.9 L-335.9 -345.8 L-335.5 -346.7 Z " />
<path stroke="rgb(0,0,0)" stroke-opacity="1" fill="rgb(255,255,255)" fill-opacity="1" d="M-99.64 -212.3 L-98.65 -212.3 L-97.67 -212.1 L-96.7 -211.9 L-95.74 -211.7 L-94.82 -211.3 L-93.92 -210.9 L-93.06 -210.4 L-92.24 -209.8 L-91.47 -209.2 L-90.75 -208.5 L-90.09 -207.8 L-89.49 -207 L-88.95 -206.2 L-88.48 -205.3 L-88.08 -204.4 L-87.76 -203.5 L-87.51 -202.5 L-87.34 -201.5 L-87.24 -200.5 L-87.23 -199.5 L-87.29 -198.6 L-87.43 -197.6 L-87.65 -196.6 L-87.94 -195.7 L-88.31 -194.7 L-88.75 -193.9 L-89.26 -193 L-89.84 -192.2 L-90.48 -191.4 L-91.17 -190.7 L-91.92 -190.1 L-92.72 -189.5 L-93.57 -189 L-94.45 -188.5 L-95.37 -188.2 L-96.31 -187.8 L-97.27 -187.6 L-98.25 -187.5 L-99.24 -187.4 L-100.2 -187.4 L-101.2 -187.5 L-102.2 -187.6 L-103.2 -187.9 L-104.1 -188.2 L-105 -188.6 L-105.9 -189 L-106.7 -189.6 L-107.5 -190.1 L-108.3 -190.8 L-109 -191.5 L-109.6 -192.3 L-110.2 -193.1 L-110.7 -193.9 L-111.1 -194.8 L-111.5 -195.8 L-111.8 -196.7 L-112 -197.7 L-112.1 -198.7 L-112.2 -199.6 L-112.1 -200.6 L-112 -201.6 L-111.8 -202.6 L-111.6 -203.6 L-111.3 -204.5 L-110.9 -205.4 L-110.4 -206.3 L-109.8 -207.1 L-109.2 -207.9 L-108.6 -208.6 L-107.8 -209.3 L-107.1 -209.9 L-106.2 -210.5 L-105.4 -210.9 L-104.5 -211.4 L-103.5 -211.7 L-102.6 -212 L-101.6 -212.2 L-100.6 -212.3 L-99.64 -212.3 Z " />
<path stroke="rgb(0,0,0)" stroke-opacity="1" fill="rgb(255,255,255)" fill-opacity="1" d="M-122.5 -327.4 L-121.5 -327.2 L-120.5 -327 L-119.5 -326.8 L-118.6 -326.6 L-117.6 -326.4 L-116.6 -326.2 L-115.6 -326 L-114.6 -325.8 L-113.7 -325.6 L-112.7 -325.4 L-111.7 -325.2 L-110.7 -325 L-109.8 -324.8 L-108.8 -324.6 L-107.8 -324.4 L-106.8 -324.2 L-105.9 -324 L-104.9 -323.8 L-103.9 -323.6 L-102.9 -323.4 L-102 -323.2 L-101 -323 L-100 -322.8 L-99.04 -322.6 L-98.06 -322.4 L-98.26 -321.4 L-98.46 -320.5 L-98.66 -319.5 L-98.86 -318.5 L-99.06 -317.5 L-99.26 -316.5 L-99.46 -315.6 L-99.66 -314.6 L-99.85 -313.6 L-100.1 -312.6 L-100.3 -311.7 L-100.5 -310.7 L-100.7 -309.7 L-100.8 -308.7 L-101 -307.8 L-101.2 -306.8 L-101.4 -305.8 L-101.6 -304.8 L-101.8 -303.9 L-102 -302.9 L-102.2 -301.9 L-102.4 -300.9 L-102.6 -300 L-102.8 -299 L-103 -298 L-104 -298.2 L-105 -298.4 L-106 -298.6 L-106.9 -298.8 L-107.9 -299 L-108.9 -299.2 L-109.9 -299.4 L-110.8 -299.6 L-111.8 -299.8 L-112.8 -300 L-113.8 -300.2 L-114.7 -300.4 L-115.7 -300.6 L-116.7 -300.8 L-117.7 -301 L-118.6 -301.2 L-119.6 -301.4 L-120.6 -301.6 L-121.6 -301.8 L-122.6 -302 L-123.5 -302.2 L-124.5 -302.4 L-125.5 -302.6 L-126.5 -302.8 L-127.4 -303 L-127.2 -304 L-127 -304.9 L-126.8 -305.9 L-126.6 -306.9 L-126.4 -307.9 L-126.2 -308.8 L-126 -309.8 L-125.8 -310.8 L-125.6 -311.8 L-125.4 -312.7 L-125.2 -313.7 L-125 -314.7 L-124.8 -315.7 L-124.6 -316.6 L-124.4 -317.6 L-124.2 -318.6 L-124 -319.6 L-123.8 -320.6 L-123.6 -321.5 L-123.4 -322.5 L-123.2 -323.5 L-123 -324.5 L-122.9 -325.4 L-122.7 -326.4 L-122.5 -327.4 Z " />
<path stroke="rgb(0,0,0)" stroke-opacity="1" fill="rgb(255,255,255)" fill-opacity="1" d="M100.4 -212.3 L101.3 -212.3 L102.3 -212.1 L103.3 -211.9 L104.3 -211.7 L105.2 -211.3 L106.1 -210.9 L106.9 -210.4 L107.8 -209.8 L108.5 -209.2 L109.2 -208.5 L109.9 -207.8 L110.5 -207 L111 -206.2 L111.5 -205.3 L111.9 -204.4 L112.2 -203.5 L112.5 -202.5 L112.7 -201.5 L112.8 -200.5 L112.8 -199.5 L112.7 -198.6 L112.6 -197.6 L112.4 -196.6 L112.1 -195.7 L111.7 -194.7 L111.2 -193.9 L110.7 -193 L110.2 -192.2 L109.5 -191.4 L108.8 -190.7 L108.1 -190.1 L107.3 -189.5 L106.4 -189 L105.6 -188.5 L104.6 -188.2 L103.7 -187.8 L102.7 -187.6 L101.7 -187.5 L100.8 -187.4 L99.77 -187.4 L98.78 -187.5 L97.8 -187.6 L96.84 -187.9 L95.9 -188.2 L94.99 -188.6 L94.11 -189 L93.27 -189.6 L92.48 -190.1 L91.73 -190.8 L91.04 -191.5 L90.41 -192.3 L89.84 -193.1 L89.33 -193.9 L88.9 -194.8 L88.54 -195.8 L88.25 -196.7 L88.04 -197.7 L87.9 -198.7 L87.85 -199.6 L87.87 -200.6 L87.97 -201.6 L88.15 -202.6 L88.41 -203.6 L88.74 -204.5 L89.15 -205.4 L89.62 -206.3 L90.17 -207.1 L90.78 -207.9 L91.44 -208.6 L92.17 -209.3 L92.94 -209.9 L93.76 -210.5 L94.63 -210.9 L95.53 -211.4 L96.46 -211.7 L97.41 -212 L98.38 -212.2 L99.37 -212.3 L100.4 -212.3 Z " />
<path stroke="rgb(0,0,0)" stroke-opacity="1" fill="rgb(255,255,255)" fill-opacity="1" d="M84.49 -317 L85.48 -317 L86.47 -316.9 L87.47 -316.9 L88.46 -316.8 L89.46 -316.7 L90.45 -316.7 L91.44 -316.6 L92.44 -316.5 L93.43 -316.5 L94.42 -316.4 L95.42 -316.4 L96.41 -316.3 L97.41 -316.2 L98.4 -316.2 L99.39 -316.1 L100.4 -316.1 L101.4 -316 L102.4 -315.9 L103.4 -315.9 L104.4 -315.8 L105.4 -315.7 L106.4 -315.7 L107.3 -315.6 L108.3 -315.6 L109.3 -315.5 L109.3 -314.5 L109.2 -313.5 L109.1 -312.5 L109.1 -311.5 L109 -310.5 L109 -309.5 L108.9 -308.5 L108.8 -307.5 L108.8 -306.6 L108.7 -305.6 L108.7 -304.6 L108.6 -303.6 L108.5 -302.6 L108.5 -301.6 L108.4 -300.6 L108.3 -299.6 L108.3 -298.6 L108.2 -297.6 L108.2 -296.6 L108.1 -295.6 L108 -294.6 L108 -293.6 L107.9 -292.6 L107.9 -291.6 L107.8 -290.7 L106.8 -290.7 L105.8 -290.8 L104.8 -290.8 L103.8 -290.9 L102.8 -291 L101.8 -291 L100.8 -291.1 L99.84 -291.1 L98.84 -291.2 L97.85 -291.3 L96.86 -291.3 L95.86 -291.4 L94.87 -291.5 L93.88 -291.5 L92.88 -291.6 L91.89 -291.6 L90.89 -291.7 L89.9 -291.8 L88.91 -291.8 L87.91 -291.9 L86.92 -291.9 L85.92 -292 L84.93 -292.1 L83.94 -292.1 L82.94 -292.2 L83 -293.2 L83.07 -294.2 L83.13 -295.2 L83.19 -296.2 L83.25 -297.2 L83.31 -298.2 L83.37 -299.2 L83.44 -300.1 L83.5 -301.1 L83.56 -302.1 L83.62 -303.1 L83.68 -304.1 L83.75 -305.1 L83.81 -306.1 L83.87 -307.1 L83.93 -308.1 L83.99 -309.1 L84.05 -310.1 L84.12 -311.1 L84.18 -312.1 L84.24 -313.1 L84.3 -314.1 L84.36 -315.1 L84.42 -316 L84.49 -317 Z " />
<path stroke="rgb(0,0,0)" stroke-opacity="1" fill="rgb(255,255,255)" fill-opacity="1" d="M300.5 -212.4 L301.5 -212.3 L302.5 -212.2 L303.5 -212 L304.4 -211.7 L305.3 -211.3 L306.2 -210.9 L307.1 -210.4 L307.9 -209.8 L308.7 -209.2 L309.4 -208.5 L310.1 -207.7 L310.6 -206.9 L311.2 -206.1 L311.6 -205.2 L312 -204.3 L312.3 -203.3 L312.6 -202.4 L312.7 -201.4 L312.8 -200.4 L312.8 -199.4 L312.8 -198.4 L312.6 -197.4 L312.4 -196.5 L312.1 -195.5 L311.7 -194.6 L311.2 -193.7 L310.7 -192.8 L310.1 -192 L309.5 -191.3 L308.8 -190.6 L308 -189.9 L307.2 -189.4 L306.3 -188.9 L305.4 -188.4 L304.5 -188 L303.6 -187.7 L302.6 -187.5 L301.6 -187.4 L300.6 -187.3 L299.6 -187.3 L298.6 -187.4 L297.6 -187.6 L296.7 -187.9 L295.7 -188.2 L294.8 -188.6 L293.9 -189 L293.1 -189.6 L292.3 -190.2 L291.6 -190.9 L290.9 -191.6 L290.3 -192.4 L289.7 -193.2 L289.2 -194 L288.8 -194.9 L288.4 -195.9 L288.1 -196.8 L287.9 -197.8 L287.8 -198.8 L287.8 -199.8 L287.8 -200.8 L287.9 -201.8 L288.1 -202.8 L288.4 -203.7 L288.7 -204.6 L289.2 -205.6 L289.6 -206.4 L290.2 -207.2 L290.8 -208 L291.5 -208.8 L292.2 -209.4 L293 -210 L293.9 -210.6 L294.7 -211.1 L295.6 -211.5 L296.6 -211.8 L297.5 -212.1 L298.5 -212.2 L299.5 -212.3 L300.5 -212.4 Z " />
<path stroke="rgb(0,0,0)" stroke-opacity="1" fill="rgb(255,255,255)" fill-opacity="1" d="M-435.5 -246.7 L-434.6 -246.2 L-433.7 -245.8 L-432.8 -245.3 L-431.9 -244.9 L-431 -244.4 L-430.1 -244 L-429.3 -243.5 L-428.4 -243.1 L-427.5 -242.6 L-426.6 -242.2 L-425.7 -241.7 L-424.8 -241.2 L-423.9 -240.8 L-423.1 -240.3 L-422.2 -239.9 L-421.3 -239.4 L-420.4 -239 L-419.5 -238.5 L-418.6 -238.1 L-417.7 -237.6 L-416.9 -237.2 L-416 -236.7 L-415.1 -236.3 L-414.2 -235.8 L-413.3 -235.4 L-413.8 -234.5 L-414.2 -233.6 L-414.7 -232.7 L-415.1 -231.8 L-415.6 -230.9 L-416 -230 L-416.5 -229.2 L-416.9 -228.3 L-417.4 -227.4 L-417.8 -226.5 L-418.3 -225.6 L-418.7 -224.7 L-419.2 -223.8 L-419.6 -222.9 L-420.1 -222.1 L-420.6 -221.2 L-421 -220.3 L-421.5 -219.4 L-421.9 -218.5 L-422.4 -217.6 L-422.8 -216.7 L-423.3 -215.9 L-423.7 -215 L-424.2 -214.1 L-424.6 -213.2 L-425.5 -213.6 L-426.4 -214.1 L-427.3 -214.6 L-428.2 -215 L-429.1 -215.5 L-430 -215.9 L-430.8 -216.4 L-431.7 -216.8 L-432.6 -217.3 L-433.5 -217.7 L-434.4 -218.2 L-435.3 -218.6 L-436.2 -219.1 L-437 -219.5 L-437.9 -220 L-438.8 -220.4 L-439.7 -220.9 L-440.6 -221.3 L-441.5 -221.8 L-442.4 -222.3 L-443.2 -222.7 L-444.1 -223.2 L-445 -223.6 L-445.9 -224.1 L-446.8 -224.5 L-446.3 -225.4 L-445.9 -226.3 L-445.4 -227.2 L-445 -228.1 L-444.5 -229 L-444.1 -229.8 L-443.6 -230.7 L-443.2 -231.6 L-442.7 -232.5 L-442.3 -233.4 L-441.8 -234.3 L-441.4 -235.2 L-440.9 -236 L-440.5 -236.9 L-440 -237.8 L-439.5 -238.7 L-439.1 -239.6 L-438.6 -240.5 L-438.2 -241.4 L-437.7 -242.2 L-437.3 -243.1 L-436.8 -244 L-436.4 -244.9 L-435.9 -245.8 L-435.5 -246.7 Z " />
<path stroke="rgb(0,0,0)" stroke-opacity="1" fill="rgb(255,255,255)" fill-opacity="1" d="M-199.6 -112.3 L-198.7 -112.3 L-197.7 -112.1 L-196.7 -111.9 L-195.7 -111.7 L-194.8 -111.3 L-193.9 -110.9 L-193.1 -110.4 L-192.2 -109.8 L-191.5 -109.2 L-190.8 -108.5 L-190.1 -107.8 L-189.5 -107 L-189 -106.2 L-188.5 -105.3 L-188.1 -104.4 L-187.8 -103.5 L-187.5 -102.5 L-187.3 -101.5 L-187.2 -100.5 L-187.2 -99.55 L-187.3 -98.56 L-187.4 -97.58 L-187.6 -96.61 L-187.9 -95.67 L-188.3 -94.75 L-188.8 -93.86 L-189.3 -93.01 L-189.8 -92.2 L-190.5 -91.44 L-191.2 -90.74 L-191.9 -90.09 L-192.7 -89.51 L-193.6 -88.99 L-194.4 -88.53 L-195.4 -88.15 L-196.3 -87.85 L-197.3 -87.62 L-198.3 -87.46 L-199.2 -87.39 L-200.2 -87.39 L-201.2 -87.47 L-202.2 -87.63 L-203.2 -87.87 L-204.1 -88.19 L-205 -88.57 L-205.9 -89.03 L-206.7 -89.56 L-207.5 -90.15 L-208.3 -90.8 L-209 -91.51 L-209.6 -92.28 L-210.2 -93.09 L-210.7 -93.94 L-211.1 -94.83 L-211.5 -95.75 L-211.8 -96.7 L-212 -97.67 L-212.1 -98.65 L-212.2 -99.64 L-212.1 -100.6 L-212 -101.6 L-211.8 -102.6 L-211.6 -103.6 L-211.3 -104.5 L-210.9 -105.4 L-210.4 -106.3 L-209.8 -107.1 L-209.2 -107.9 L-208.6 -108.6 L-207.8 -109.3 L-207.1 -109.9 L-206.2 -110.5 L-205.4 -110.9 L-204.5 -111.4 L-203.5 -111.7 L-202.6 -112 L-201.6 -112.2 L-200.6 -112.3 L-199.6 -112.3 Z " />
<path stroke="rgb(0,0,0)" stroke-opacity="1" fill="rgb(255,255,255)" fill-opacity="1" d="M-222.5 -227.4 L-221.5 -227.2 L-220.5 -227 L-219.5 -226.8 L-218.6 -226.6 L-217.6 -226.4 L-216.6 -226.2 L-215.6 -226 L-214.6 -225.8 L-213.7 -225.6 L-212.7 -225.4 L-211.7 -225.2 L-210.7 -225 L-209.8 -224.8 L-208.8 -224.6 L-207.8 -224.4 L-206.8 -224.2 L-205.9 -224 L-204.9 -223.8 L-203.9 -223.6 L-202.9 -223.4 L-202 -223.2 L-201 -223 L-200 -222.8 L-199 -222.6 L-198.1 -222.4 L-198.3 -221.4 L-198.5 -220.5 L-198.7 -219.5 L-198.9 -218.5 L-199.1 -217.5 L-199.3 -216.5 L-199.5 -215.6 L-199.7 -214.6 L-199.9 -213.6 L-200.1 -212.6 L-200.3 -211.7 L-200.5 -210.7 L-200.7 -209.7 L-200.8 -208.7 L-201 -207.8 L-201.2 -206.8 L-201.4 -205.8 L-201.6 -204.8 L-201.8 -203.9 L-202 -202.9 L-202.2 -201.9 L-202.4 -200.9 L-202.6 -200 L-202.8 -199 L-203 -198 L-204 -198.2 L-205 -198.4 L-206 -198.6 L-206.9 -198.8 L-207.9 -199 L-208.9 -199.2 L-209.9 -199.4 L-210.8 -199.6 L-211.8 -199.8 L-212.8 -200 L-213.8 -200.2 L-214.7 -200.4 L-215.7 -200.6 L-216.7 -200.8 L-217.7 -201 L-218.6 -201.2 L-219.6 -201.4 L-220.6 -201.6 L-221.6 -201.8 L-222.6 -202 L-223.5 -202.2 L-224.5 -202.4 L-225.5 -202.6 L-226.5 -202.8 L-227.4 -203 L-227.2 -204 L-227 -204.9 L-226.8 -205.9 L-226.6 -206.9 L-226.4 -207.9 L-226.2 -208.8 L-226 -209.8 L-225.8 -210.8 L-225.6 -211.8 L-225.4 -212.7 L-225.2 -213.7 L-225 -214.7 L-224.8 -215.7 L-224.6 -216.6 L-224.4 -217.6 L-224.2 -218.6 L-224 -219.6 L-223.8 -220.6 L-223.6 -221.5 L-223.4 -222.5 L-223.2 -223.5 L-223 -224.5 L-222.9 -225.4 L-222.7 -226.4 L-222.5 -227.4 Z " />
<path stroke="rgb(0,0,0)" stroke-opacity="1" fill="rgb(255,255,255)" fill-opacity="1" d="M0.3584 -112.3 L1.349 -112.3 L2.332 -112.1 L3.303 -111.9 L4.255 -111.7 L5.182 -111.3 L6.078 -110.9 L6.938 -110.4 L7.756 -109.8 L8.527 -109.2 L9.246 -108.5 L9.908 -107.8 L10.51 -107 L11.05 -106.2 L11.52 -105.3 L11.92 -104.4 L12.24 -103.5 L12.49 -102.5 L12.66 -101.5 L12.76 -100.5 L12.77 -99.55 L12.71 -98.56 L12.57 -97.58 L12.35 -96.61 L12.06 -95.67 L11.69 -94.75 L11.25 -93.86 L10.74 -93.01 L10.16 -92.2 L9.522 -91.44 L8.825 -90.74 L8.075 -90.09 L7.276 -89.51 L6.432 -88.99 L5.55 -88.53 L4.635 -88.15 L3.692 -87.85 L2.729 -87.62 L1.749 -87.46 L0.761 -87.39 L-0.2301 -87.39 L-1.218 -87.47 L-2.196 -87.63 L-3.158 -87.87 L-4.098 -88.19 L-5.011 -88.57 L-5.889 -89.03 L-6.729 -89.56 L-7.524 -90.15 L-8.269 -90.8 L-8.96 -91.51 L-9.593 -92.28 L-10.16 -93.09 L-10.67 -93.94 L-11.1 -94.83 L-11.46 -95.75 L-11.75 -96.7 L-11.96 -97.67 L-12.1 -98.65 L-12.15 -99.64 L-12.13 -100.6 L-12.03 -101.6 L-11.85 -102.6 L-11.59 -103.6 L-11.26 -104.5 L-10.85 -105.4 L-10.38 -106.3 L-9.832 -107.1 L-9.225 -107.9 L-8.557 -108.6 L-7.833 -109.3 L-7.057 -109.9 L-6.235 -110.5 L-5.372 -110.9 L-4.473 -111.4 L-3.543 -111.7 L-2.589 -112 L-1.617 -112.2 L-0.6321 -112.3 L0.3584 -112.3 Z " />
<path stroke="rgb(0,0,0)" stroke-opacity="1" fill="rgb(255,255,255)" fill-opacity="1" d="M-15.51 -217 L-14.52 -217 L-13.53 -216.9 L-12.53 -216.9 L-11.54 -216.8 L-10.54 -216.7 L-9.551 -216.7 L-8.557 -216.6 L-7.563 -216.5 L-6.569 -216.5 L-5.575 -216.4 L-4.581 -216.4 L-3.587 -216.3 L-2.594 -216.2 L-1.6 -216.2 L-0.6058 -216.1 L0.388 -216.1 L1.382 -216 L2.376 -215.9 L3.37 -215.9 L4.364 -215.8 L5.357 -215.7 L6.351 -215.7 L7.345 -215.6 L8.339 -215.6 L9.333 -215.5 L9.271 -214.5 L9.21 -213.5 L9.148 -212.5 L9.086 -211.5 L9.024 -210.5 L8.963 -209.5 L8.901 -208.5 L8.839 -207.5 L8.777 -206.6 L8.716 -205.6 L8.654 -204.6 L8.592 -203.6 L8.53 -202.6 L8.469 -201.6 L8.407 -200.6 L8.345 -199.6 L8.283 -198.6 L8.222 -197.6 L8.16 -196.6 L8.098 -195.6 L8.036 -194.6 L7.975 -193.6 L7.913 -192.6 L7.851 -191.6 L7.789 -190.7 L6.796 -190.7 L5.802 -190.8 L4.808 -190.8 L3.814 -190.9 L2.82 -191 L1.826 -191 L0.8322 -191.1 L-0.1616 -191.1 L-1.156 -191.2 L-2.149 -191.3 L-3.143 -191.3 L-4.137 -191.4 L-5.131 -191.5 L-6.125 -191.5 L-7.119 -191.6 L-8.113 -191.6 L-9.107 -191.7 L-10.1 -191.8 L-11.09 -191.8 L-12.09 -191.9 L-13.08 -191.9 L-14.08 -192 L-15.07 -192.1 L-16.06 -192.1 L-17.06 -192.2 L-17 -193.2 L-16.93 -194.2 L-16.87 -195.2 L-16.81 -196.2 L-16.75 -197.2 L-16.69 -198.2 L-16.63 -199.2 L-16.56 -200.1 L-16.5 -201.1 L-16.44 -202.1 L-16.38 -203.1 L-16.32 -204.1 L-16.25 -205.1 L-16.19 -206.1 L-16.13 -207.1 L-16.07 -208.1 L-16.01 -209.1 L-15.95 -210.1 L-15.88 -211.1 L-15.82 -212.1 L-15.76 -213.1 L-15.7 -214.1 L-15.64 -215.1 L-15.58 -216 L-15.51 -217 Z " />
<path stroke="rgb(0,0,0)" stroke-opacity="1" fill="rgb(255,255,255)" fill-opacity="1" d="M200.5 -112.4 L201.5 -112.3 L202.5 -112.2 L203.5 -112 L204.4 -111.7 L205.3 -111.3 L206.2 -110.9 L207.1 -110.4 L207.9 -109.8 L208.7 -109.2 L209.4 -108.5 L210.1 -107.7 L210.6 -106.9 L211.2 -106.1 L211.6 -105.2 L212 -104.3 L212.3 -103.3 L212.6 -102.4 L212.7 -101.4 L212.8 -100.4 L212.8 -99.4 L212.8 -98.41 L212.6 -97.42 L212.4 -96.45 L212.1 -95.5 L211.7 -94.58 L211.2 -93.7 L210.7 -92.85 L210.1 -92.05 L209.5 -91.29 L208.8 -90.59 L208 -89.95 L207.2 -89.37 L206.3 -88.86 L205.4 -88.41 L204.5 -88.04 L203.6 -87.74 L202.6 -87.52 L201.6 -87.38 L200.6 -87.32 L199.6 -87.33 L198.6 -87.43 L197.6 -87.6 L196.7 -87.85 L195.7 -88.18 L194.8 -88.58 L193.9 -89.05 L193.1 -89.59 L192.3 -90.19 L191.6 -90.86 L190.9 -91.58 L190.3 -92.35 L189.7 -93.18 L189.2 -94.04 L188.8 -94.94 L188.4 -95.87 L188.1 -96.83 L187.9 -97.8 L187.8 -98.79 L187.8 -99.79 L187.8 -100.8 L187.9 -101.8 L188.1 -102.8 L188.4 -103.7 L188.7 -104.6 L189.2 -105.6 L189.6 -106.4 L190.2 -107.2 L190.8 -108 L191.5 -108.8 L192.2 -109.4 L193 -110 L193.9 -110.6 L194.7 -111.1 L195.6 -111.5 L196.6 -111.8 L197.5 -112.1 L198.5 -112.2 L199.5 -112.3 L200.5 -112.4 Z " />
<path stroke="rgb(0,0,0)" stroke-opacity="1" fill="rgb(255,255,255)" fill-opacity="1" d="M187.1 -213.2 L188.1 -213.2 L189.1 -213.1 L190.1 -213.1 L191.1 -213.1 L192.1 -213.1 L193.1 -213.1 L194.1 -213.1 L195.1 -213.1 L196.1 -213.1 L197.1 -213.1 L198.1 -213.1 L199 -213 L200 -213 L201 -213 L202 -213 L203 -213 L204 -213 L205 -213 L206 -213 L207 -213 L208 -212.9 L209 -212.9 L210 -212.9 L211 -212.9 L212 -212.9 L212 -211.9 L212 -210.9 L212 -209.9 L211.9 -208.9 L211.9 -207.9 L211.9 -206.9 L211.9 -205.9 L211.9 -204.9 L211.9 -203.9 L211.9 -202.9 L211.9 -201.9 L211.9 -201 L211.9 -200 L211.8 -199 L211.8 -198 L211.8 -197 L211.8 -196 L211.8 -195 L211.8 -194 L211.8 -193 L211.8 -192 L211.8 -191 L211.7 -190 L211.7 -189 L211.7 -188 L210.7 -188 L209.7 -188 L208.7 -188 L207.7 -188 L206.7 -188.1 L205.7 -188.1 L204.8 -188.1 L203.8 -188.1 L202.8 -188.1 L201.8 -188.1 L200.8 -188.1 L199.8 -188.1 L198.8 -188.1 L197.8 -188.2 L196.8 -188.2 L195.8 -188.2 L194.8 -188.2 L193.8 -188.2 L192.8 -188.2 L191.8 -188.2 L190.8 -188.2 L189.8 -188.2 L188.8 -188.3 L187.8 -188.3 L186.8 -188.3 L186.8 -189.3 L186.9 -190.3 L186.9 -191.3 L186.9 -192.3 L186.9 -193.3 L186.9 -194.2 L186.9 -195.2 L186.9 -196.2 L186.9 -197.2 L186.9 -198.2 L186.9 -199.2 L187 -200.2 L187 -201.2 L187 -202.2 L187 -203.2 L187 -204.2 L187 -205.2 L187 -206.2 L187 -207.2 L187 -208.2 L187.1 -209.2 L187.1 -210.2 L187.1 -211.2 L187.1 -212.2 L187.1 -213.2 Z " />
<path stroke="rgb(0,0,0)" stroke-opacity="1" fill="rgb(255,255,255)" fill-opacity="1" d="M-299.6 -12.31 L-298.7 -12.27 L-297.7 -12.14 L-296.7 -11.95 L-295.7 -11.67 L-294.8 -11.32 L-293.9 -10.9 L-293.1 -10.4 L-292.2 -9.842 L-291.5 -9.219 L-290.8 -8.537 L-290.1 -7.8 L-289.5 -7.012 L-289 -6.179 L-288.5 -5.306 L-288.1 -4.399 L-287.8 -3.463 L-287.5 -2.503 L-287.3 -1.527 L-287.2 -0.5409 L-287.2 0.4501 L-287.3 1.439 L-287.4 2.42 L-287.6 3.387 L-287.9 4.333 L-288.3 5.253 L-288.8 6.141 L-289.3 6.991 L-289.8 7.797 L-290.5 8.555 L-291.2 9.261 L-291.9 9.908 L-292.7 10.49 L-293.6 11.01 L-294.4 11.47 L-295.4 11.85 L-296.3 12.15 L-297.3 12.38 L-298.3 12.54 L-299.2 12.61 L-300.2 12.61 L-301.2 12.53 L-302.2 12.37 L-303.2 12.13 L-304.1 11.81 L-305 11.43 L-305.9 10.97 L-306.7 10.44 L-307.5 9.85 L-308.3 9.197 L-309 8.487 L-309.6 7.724 L-310.2 6.913 L-310.7 6.059 L-311.1 5.168 L-311.5 4.246 L-311.8 3.297 L-312 2.329 L-312.1 1.347 L-312.2 0.3572 L-312.1 -0.6337 L-312 -1.62 L-311.8 -2.594 L-311.6 -3.551 L-311.3 -4.485 L-310.9 -5.39 L-310.4 -6.259 L-309.8 -7.088 L-309.2 -7.871 L-308.6 -8.603 L-307.8 -9.28 L-307.1 -9.898 L-306.2 -10.45 L-305.4 -10.94 L-304.5 -11.35 L-303.5 -11.7 L-302.6 -11.97 L-301.6 -12.16 L-300.6 -12.27 L-299.6 -12.31 Z " />
<path stroke="rgb(0,0,0)" stroke-opacity="1" fill="rgb(255,255,255)" fill-opacity="1" d="M-322.5 -127.4 L-321.5 -127.2 L-320.5 -127 L-319.5 -126.8 L-318.6 -126.6 L-317.6 -126.4 L-316.6 -126.2 L-315.6 -126 L-314.6 -125.8 L-313.7 -125.6 L-312.7 -125.4 L-311.7 -125.2 L-310.7 -125 L-309.8 -124.8 L-308.8 -124.6 L-307.8 -124.4 L-306.8 -124.2 L-305.9 -124 L-304.9 -123.8 L-303.9 -123.6 L-302.9 -123.4 L-302 -123.2 L-301 -123 L-300 -122.8 L-299 -122.6 L-298.1 -122.4 L-298.3 -121.4 L-298.5 -120.5 L-298.7 -119.5 L-298.9 -118.5 L-299.1 -117.5 L-299.3 -116.5 L-299.5 -115.6 L-299.7 -114.6 L-299.9 -113.6 L-300.1 -112.6 L-300.3 -111.7 L-300.5 -110.7 L-300.7 -109.7 L-300.8 -108.7 L-301 -107.8 L-301.2 -106.8 L-301.4 -105.8 L-301.6 -104.8 L-301.8 -103.9 L-302 -102.9 L-302.2 -101.9 L-302.4 -100.9 L-302.6 -99.96 L-302.8 -98.99 L-303 -98.01 L-304 -98.21 L-305 -98.41 L-306 -98.61 L-306.9 -98.81 L-307.9 -99.01 L-308.9 -99.21 L-309.9 -99.41 L-310.8 -99.61 L-311.8 -99.81 L-312.8 -100 L-313.8 -100.2 L-314.7 -100.4 L-315.7 -100.6 L-316.7 -100.8 L-317.7 -101 L-318.6 -101.2 L-319.6 -101.4 L-320.6 -101.6 L-321.6 -101.8 L-322.6 -102 L-323.5 -102.2 L-324.5 -102.4 L-325.5 -102.6 L-326.5 -102.8 L-327.4 -103 L-327.2 -104 L-327 -104.9 L-326.8 -105.9 L-326.6 -106.9 L-326.4 -107.9 L-326.2 -108.8 L-326 -109.8 L-325.8 -110.8 L-325.6 -111.8 L-325.4 -112.7 L-325.2 -113.7 L-325 -114.7 L-324.8 -115.7 L-324.6 -116.6 L-324.4 -117.6 L-324.2 -118.6 L-324 -119.6 L-323.8 -120.6 L-323.6 -121.5 L-323.4 -122.5 L-323.2 -123.5 L-323 -124.5 L-322.9 -125.4 L-322.7 -126.4 L-322.5 -127.4 Z " />
<path stroke="rgb(0,0,0)" stroke-opacity="1" fill="rgb(255,255,255)" fill-opacity="1" d="M-99.64 -12.31 L-98.65 -12.27 L-97.67 -12.14 L-96.7 -11.95 L-95.74 -11.67 L-94.82 -11.32 L-93.92 -10.9 L-93.06 -10.4 L-92.24 -9.842 L-91.47 -9.219 L-90.75 -8.537 L-90.09 -7.8 L-89.49 -7.012 L-88.95 -6.179 L-88.48 -5.306 L-88.08 -4.399 L-87.76 -3.463 L-87.51 -2.503 L-87.34 -1.527 L-87.24 -0.5409 L-87.23 0.4501 L-87.29 1.439 L-87.43 2.42 L-87.65 3.387 L-87.94 4.333 L-88.31 5.253 L-88.75 6.141 L-89.26 6.991 L-89.84 7.797 L-90.48 8.555 L-91.17 9.261 L-91.92 9.908 L-92.72 10.49 L-93.57 11.01 L-94.45 11.47 L-95.37 11.85 L-96.31 12.15 L-97.27 12.38 L-98.25 12.54 L-99.24 12.61 L-100.2 12.61 L-101.2 12.53 L-102.2 12.37 L-103.2 12.13 L-104.1 11.81 L-105 11.43 L-105.9 10.97 L-106.7 10.44 L-107.5 9.85 L-108.3 9.197 L-109 8.487 L-109.6 7.724 L-110.2 6.913 L-110.7 6.059 L-111.1 5.168 L-111.5 4.246 L-111.8 3.297 L-112 2.329 L-112.1 1.347 L-112.2 0.3572 L-112.1 -0.6337 L-112 -1.62 L-111.8 -2.594 L-111.6 -3.551 L-111.3 -4.485 L-110.9 -5.39 L-110.4 -6.259 L-109.8 -7.088 L-109.2 -7.871 L-108.6 -8.603 L-107.8 -9.28 L-107.1 -9.898 L-106.2 -10.45 L-105.4 -10.94 L-104.5 -11.35 L-103.5 -11.7 L-102.6 -11.97 L-101.6 -12.16 L-100.6 -12.27 L-99.64 -12.31 Z " />
<path stroke="rgb(0,0,0)" stroke-opacity="1" fill="rgb(255,255,255)" fill-opacity="1" d="M-115.5 -117 L-114.5 -117 L-113.5 -116.9 L-112.5 -116.9 L-111.5 -116.8 L-110.5 -116.7 L-109.6 -116.7 L-108.6 -116.6 L-107.6 -116.5 L-106.6 -116.5 L-105.6 -116.4 L-104.6 -116.4 L-103.6 -116.3 L-102.6 -116.2 L-101.6 -116.2 L-100.6 -116.1 L-99.61 -116.1 L-98.62 -116 L-97.62 -115.9 L-96.63 -115.9 L-95.64 -115.8 L-94.64 -115.7 L-93.65 -115.7 L-92.65 -115.6 L-91.66 -115.6 L-90.67 -115.5 L-90.73 -114.5 L-90.79 -113.5 L-90.85 -112.5 L-90.91 -111.5 L-90.98 -110.5 L-91.04 -109.5 L-91.1 -108.5 L-91.16 -107.5 L-91.22 -106.6 L-91.28 -105.6 L-91.35 -104.6 L-91.41 -103.6 L-91.47 -102.6 L-91.53 -101.6 L-91.59 -100.6 L-91.65 -99.6 L-91.72 -98.6 L-91.78 -97.61 L-91.84 -96.62 L-91.9 -95.62 L-91.96 -94.63 L-92.03 -93.63 L-92.09 -92.64 L-92.15 -91.65 L-92.21 -90.65 L-93.2 -90.71 L-94.2 -90.78 L-95.19 -90.84 L-96.19 -90.9 L-97.18 -90.96 L-98.17 -91.02 L-99.17 -91.08 L-100.2 -91.15 L-101.2 -91.21 L-102.1 -91.27 L-103.1 -91.33 L-104.1 -91.39 L-105.1 -91.45 L-106.1 -91.52 L-107.1 -91.58 L-108.1 -91.64 L-109.1 -91.7 L-110.1 -91.76 L-111.1 -91.82 L-112.1 -91.89 L-113.1 -91.95 L-114.1 -92.01 L-115.1 -92.07 L-116.1 -92.13 L-117.1 -92.2 L-117 -93.19 L-116.9 -94.18 L-116.9 -95.18 L-116.8 -96.17 L-116.7 -97.16 L-116.7 -98.16 L-116.6 -99.15 L-116.6 -100.1 L-116.5 -101.1 L-116.4 -102.1 L-116.4 -103.1 L-116.3 -104.1 L-116.3 -105.1 L-116.2 -106.1 L-116.1 -107.1 L-116.1 -108.1 L-116 -109.1 L-115.9 -110.1 L-115.9 -111.1 L-115.8 -112.1 L-115.8 -113.1 L-115.7 -114.1 L-115.6 -115.1 L-115.6 -116 L-115.5 -117 Z " />
<path stroke="rgb(0,0,0)" stroke-opacity="1" fill="rgb(255,255,255)" fill-opacity="1" d="M100.5 -12.37 L101.5 -12.32 L102.5 -12.18 L103.5 -11.97 L104.4 -11.68 L105.3 -11.32 L106.2 -10.88 L107.1 -10.38 L107.9 -9.805 L108.7 -9.169 L109.4 -8.475 L110.1 -7.726 L110.6 -6.927 L111.2 -6.084 L111.6 -5.201 L112 -4.284 L112.3 -3.339 L112.6 -2.372 L112.7 -1.389 L112.8 -0.3959 L112.8 0.6004 L112.8 1.594 L112.6 2.578 L112.4 3.547 L112.1 4.495 L111.7 5.415 L111.2 6.302 L110.7 7.15 L110.1 7.954 L109.5 8.709 L108.8 9.41 L108 10.05 L107.2 10.63 L106.3 11.14 L105.4 11.59 L104.5 11.96 L103.6 12.26 L102.6 12.48 L101.6 12.62 L100.6 12.68 L99.62 12.67 L98.63 12.57 L97.64 12.4 L96.68 12.15 L95.74 11.82 L94.83 11.42 L93.95 10.95 L93.11 10.41 L92.32 9.808 L91.58 9.143 L90.89 8.42 L90.26 7.646 L89.7 6.824 L89.2 5.96 L88.78 5.059 L88.43 4.128 L88.15 3.171 L87.95 2.195 L87.82 1.206 L87.78 0.2111 L87.82 -0.7846 L87.93 -1.774 L88.12 -2.752 L88.39 -3.711 L88.74 -4.646 L89.15 -5.55 L89.64 -6.418 L90.2 -7.245 L90.82 -8.025 L91.5 -8.753 L92.24 -9.425 L93.02 -10.04 L93.85 -10.58 L94.73 -11.06 L95.64 -11.47 L96.58 -11.8 L97.54 -12.06 L98.52 -12.24 L99.51 -12.35 L100.5 -12.37 Z " />
<path stroke="rgb(0,0,0)" stroke-opacity="1" fill="rgb(255,255,255)" fill-opacity="1" d="M87.1 -113.2 L88.09 -113.2 L89.09 -113.1 L90.08 -113.1 L91.08 -113.1 L92.08 -113.1 L93.07 -113.1 L94.07 -113.1 L95.06 -113.1 L96.06 -113.1 L97.05 -113.1 L98.05 -113.1 L99.05 -113 L100 -113 L101 -113 L102 -113 L103 -113 L104 -113 L105 -113 L106 -113 L107 -113 L108 -112.9 L109 -112.9 L110 -112.9 L111 -112.9 L112 -112.9 L112 -111.9 L112 -110.9 L112 -109.9 L111.9 -108.9 L111.9 -107.9 L111.9 -106.9 L111.9 -105.9 L111.9 -104.9 L111.9 -103.9 L111.9 -102.9 L111.9 -101.9 L111.9 -101 L111.9 -99.96 L111.8 -98.96 L111.8 -97.96 L111.8 -96.97 L111.8 -95.97 L111.8 -94.98 L111.8 -93.98 L111.8 -92.99 L111.8 -91.99 L111.8 -90.99 L111.7 -90 L111.7 -89 L111.7 -88.01 L110.7 -88.02 L109.7 -88.03 L108.7 -88.04 L107.7 -88.05 L106.7 -88.06 L105.7 -88.07 L104.8 -88.08 L103.8 -88.09 L102.8 -88.1 L101.8 -88.11 L100.8 -88.12 L99.77 -88.13 L98.78 -88.15 L97.78 -88.16 L96.79 -88.17 L95.79 -88.18 L94.8 -88.19 L93.8 -88.2 L92.8 -88.21 L91.81 -88.22 L90.81 -88.23 L89.82 -88.24 L88.82 -88.25 L87.82 -88.26 L86.83 -88.27 L86.84 -89.27 L86.85 -90.27 L86.86 -91.26 L86.87 -92.26 L86.88 -93.25 L86.89 -94.25 L86.9 -95.24 L86.91 -96.24 L86.93 -97.24 L86.94 -98.23 L86.95 -99.23 L86.96 -100.2 L86.97 -101.2 L86.98 -102.2 L86.99 -103.2 L87 -104.2 L87.01 -105.2 L87.02 -106.2 L87.03 -107.2 L87.04 -108.2 L87.05 -109.2 L87.06 -110.2 L87.08 -111.2 L87.09 -112.2 L87.1 -113.2 Z " />
<path stroke="rgb(0,0,0)" stroke-opacity="1" fill="rgb(255,255,255)" fill-opacity="1" d="M305 -13.46 L306.1 -13.04 L307.1 -12.54 L308.1 -11.95 L309 -11.29 L309.9 -10.56 L310.7 -9.761 L311.5 -8.898 L312.2 -7.978 L312.8 -7.006 L313.3 -5.989 L313.7 -4.933 L314.1 -3.845 L314.4 -2.731 L314.6 -1.599 L314.7 -0.4556 L314.7 0.6915 L314.6 1.835 L314.4 2.969 L314.1 4.084 L313.8 5.175 L313.3 6.235 L312.8 7.256 L312.2 8.232 L311.5 9.157 L310.8 10.03 L310 10.83 L309.1 11.57 L308.2 12.24 L307.2 12.83 L306.2 13.34 L305.1 13.76 L304 14.11 L302.9 14.36 L301.7 14.52 L300.6 14.59 L299.4 14.58 L298.3 14.47 L297.2 14.27 L296.1 13.98 L295 13.6 L293.9 13.14 L292.9 12.6 L292 11.97 L291 11.28 L290.2 10.51 L289.4 9.678 L288.7 8.785 L288 7.839 L287.5 6.843 L287 5.806 L286.6 4.733 L286.2 3.631 L286 2.507 L285.9 1.369 L285.8 0.2228 L285.9 -0.9236 L286 -2.063 L286.2 -3.189 L286.5 -4.293 L286.9 -5.369 L287.4 -6.41 L288 -7.409 L288.6 -8.36 L289.3 -9.258 L290.1 -10.1 L291 -10.87 L291.9 -11.57 L292.8 -12.2 L293.8 -12.75 L294.9 -13.22 L296 -13.6 L297.1 -13.9 L298.2 -14.11 L299.3 -14.23 L300.5 -14.26 L301.6 -14.19 L302.8 -14.04 L303.9 -13.79 L305 -13.46 Z " />
<path stroke="rgb(0,0,0)" stroke-opacity="1" fill="rgb(255,255,255)" fill-opacity="1" d="M-422.5 -27.38 L-421.5 -27.18 L-420.5 -26.98 L-419.5 -26.78 L-418.6 -26.58 L-417.6 -26.38 L-416.6 -26.19 L-415.6 -25.99 L-414.6 -25.79 L-413.7 -25.59 L-412.7 -25.39 L-411.7 -25.19 L-410.7 -24.99 L-409.8 -24.79 L-408.8 -24.59 L-407.8 -24.39 L-406.8 -24.19 L-405.9 -24 L-404.9 -23.8 L-403.9 -23.6 L-402.9 -23.4 L-402 -23.2 L-401 -23 L-400 -22.8 L-399 -22.6 L-398.1 -22.4 L-398.3 -21.43 L-398.5 -20.45 L-398.7 -19.48 L-398.9 -18.5 L-399.1 -17.53 L-399.3 -16.55 L-399.5 -15.57 L-399.7 -14.6 L-399.9 -13.62 L-400.1 -12.65 L-400.3 -11.67 L-400.5 -10.7 L-400.7 -9.72 L-400.8 -8.745 L-401 -7.769 L-401.2 -6.794 L-401.4 -5.818 L-401.6 -4.843 L-401.8 -3.867 L-402 -2.891 L-402.2 -1.916 L-402.4 -0.9402 L-402.6 0.03539 L-402.8 1.011 L-403 1.987 L-404 1.787 L-405 1.588 L-406 1.389 L-406.9 1.19 L-407.9 0.9912 L-408.9 0.7922 L-409.9 0.5931 L-410.8 0.394 L-411.8 0.195 L-412.8 -0.004078 L-413.8 -0.2031 L-414.7 -0.4022 L-415.7 -0.6013 L-416.7 -0.8003 L-417.7 -0.9994 L-418.6 -1.198 L-419.6 -1.398 L-420.6 -1.597 L-421.6 -1.796 L-422.6 -1.995 L-423.5 -2.194 L-424.5 -2.393 L-425.5 -2.592 L-426.5 -2.791 L-427.4 -2.99 L-427.2 -3.966 L-427 -4.941 L-426.8 -5.917 L-426.6 -6.892 L-426.4 -7.868 L-426.2 -8.844 L-426 -9.819 L-425.8 -10.79 L-425.6 -11.77 L-425.4 -12.75 L-425.2 -13.72 L-425 -14.7 L-424.8 -15.67 L-424.6 -16.65 L-424.4 -17.62 L-424.2 -18.6 L-424 -19.58 L-423.8 -20.55 L-423.6 -21.53 L-423.4 -22.5 L-423.2 -23.48 L-423 -24.45 L-422.9 -25.43 L-422.7 -26.4 L-422.5 -27.38 Z " />
<path stroke="rgb(0,0,0)" stroke-opacity="1" fill="rgb(255,255,255)" fill-opacity="1" d="M-199.6 87.69 L-198.7 87.73 L-197.7 87.86 L-196.7 88.05 L-195.7 88.33 L-194.8 88.68 L-193.9 89.1 L-193.1 89.6 L-192.2 90.16 L-191.5 90.78 L-190.8 91.46 L-190.1 92.2 L-189.5 92.99 L-189 93.82 L-188.5 94.69 L-188.1 95.6 L-187.8 96.54 L-187.5 97.5 L-187.3 98.47 L-187.2 99.46 L-187.2 100.5 L-187.3 101.4 L-187.4 102.4 L-187.6 103.4 L-187.9 104.3 L-188.3 105.3 L-188.8 106.1 L-189.3 107 L-189.8 107.8 L-190.5 108.6 L-191.2 109.3 L-191.9 109.9 L-192.7 110.5 L-193.6 111 L-194.4 111.5 L-195.4 111.8 L-196.3 112.2 L-197.3 112.4 L-198.3 112.5 L-199.2 112.6 L-200.2 112.6 L-201.2 112.5 L-202.2 112.4 L-203.2 112.1 L-204.1 111.8 L-205 111.4 L-205.9 111 L-206.7 110.4 L-207.5 109.9 L-208.3 109.2 L-209 108.5 L-209.6 107.7 L-210.2 106.9 L-210.7 106.1 L-211.1 105.2 L-211.5 104.2 L-211.8 103.3 L-212 102.3 L-212.1 101.3 L-212.2 100.4 L-212.1 99.37 L-212 98.38 L-211.8 97.41 L-211.6 96.45 L-211.3 95.51 L-210.9 94.61 L-210.4 93.74 L-209.8 92.91 L-209.2 92.13 L-208.6 91.4 L-207.8 90.72 L-207.1 90.1 L-206.2 89.55 L-205.4 89.06 L-204.5 88.65 L-203.5 88.3 L-202.6 88.03 L-201.6 87.84 L-200.6 87.73 L-199.6 87.69 Z " />
<path stroke="rgb(0,0,0)" stroke-opacity="1" fill="rgb(255,255,255)" fill-opacity="1" d="M-215.5 -17.04 L-214.5 -16.98 L-213.5 -16.92 L-212.5 -16.86 L-211.5 -16.8 L-210.5 -16.73 L-209.6 -16.67 L-208.6 -16.61 L-207.6 -16.55 L-206.6 -16.49 L-205.6 -16.42 L-204.6 -16.36 L-203.6 -16.3 L-202.6 -16.24 L-201.6 -16.18 L-200.6 -16.12 L-199.6 -16.05 L-198.6 -15.99 L-197.6 -15.93 L-196.6 -15.87 L-195.6 -15.81 L-194.6 -15.75 L-193.6 -15.68 L-192.7 -15.62 L-191.7 -15.56 L-190.7 -15.5 L-190.7 -14.5 L-190.8 -13.51 L-190.9 -12.52 L-190.9 -11.52 L-191 -10.53 L-191 -9.535 L-191.1 -8.542 L-191.2 -7.548 L-191.2 -6.554 L-191.3 -5.56 L-191.3 -4.566 L-191.4 -3.572 L-191.5 -2.578 L-191.5 -1.584 L-191.6 -0.5906 L-191.7 0.4033 L-191.7 1.397 L-191.8 2.391 L-191.8 3.385 L-191.9 4.379 L-192 5.373 L-192 6.367 L-192.1 7.361 L-192.1 8.354 L-192.2 9.348 L-193.2 9.287 L-194.2 9.225 L-195.2 9.163 L-196.2 9.101 L-197.2 9.04 L-198.2 8.978 L-199.2 8.916 L-200.2 8.854 L-201.2 8.793 L-202.1 8.731 L-203.1 8.669 L-204.1 8.607 L-205.1 8.546 L-206.1 8.484 L-207.1 8.422 L-208.1 8.36 L-209.1 8.299 L-210.1 8.237 L-211.1 8.175 L-212.1 8.113 L-213.1 8.052 L-214.1 7.99 L-215.1 7.928 L-216.1 7.866 L-217.1 7.805 L-217 6.811 L-216.9 5.817 L-216.9 4.823 L-216.8 3.829 L-216.7 2.835 L-216.7 1.841 L-216.6 0.8475 L-216.6 -0.1464 L-216.5 -1.14 L-216.4 -2.134 L-216.4 -3.128 L-216.3 -4.122 L-216.3 -5.116 L-216.2 -6.11 L-216.1 -7.104 L-216.1 -8.097 L-216 -9.091 L-215.9 -10.09 L-215.9 -11.08 L-215.8 -12.07 L-215.8 -13.07 L-215.7 -14.06 L-215.6 -15.05 L-215.6 -16.05 L-215.5 -17.04 Z " />
<path stroke="rgb(0,0,0)" stroke-opacity="1" fill="rgb(255,255,255)" fill-opacity="1" d="M0.5048 87.63 L1.5 87.68 L2.487 87.82 L3.46 88.03 L4.414 88.32 L5.342 88.68 L6.237 89.12 L7.096 89.62 L7.911 90.2 L8.679 90.83 L9.393 91.52 L10.05 92.27 L10.65 93.07 L11.18 93.92 L11.64 94.8 L12.03 95.72 L12.34 96.66 L12.58 97.63 L12.74 98.61 L12.83 99.6 L12.83 100.6 L12.76 101.6 L12.6 102.6 L12.37 103.5 L12.07 104.5 L11.68 105.4 L11.23 106.3 L10.71 107.2 L10.12 108 L9.468 108.7 L8.759 109.4 L7.998 110.1 L7.187 110.6 L6.333 111.1 L5.441 111.6 L4.517 112 L3.566 112.3 L2.594 112.5 L1.608 112.6 L0.6136 112.7 L-0.3826 112.7 L-1.374 112.6 L-2.356 112.4 L-3.32 112.1 L-4.261 111.8 L-5.174 111.4 L-6.052 111 L-6.889 110.4 L-7.681 109.8 L-8.423 109.1 L-9.109 108.4 L-9.736 107.6 L-10.3 106.8 L-10.8 106 L-11.22 105.1 L-11.57 104.1 L-11.85 103.2 L-12.05 102.2 L-12.18 101.2 L-12.22 100.2 L-12.18 99.22 L-12.07 98.23 L-11.88 97.25 L-11.61 96.29 L-11.26 95.35 L-10.85 94.45 L-10.36 93.58 L-9.801 92.75 L-9.18 91.98 L-8.5 91.25 L-7.765 90.58 L-6.978 89.96 L-6.145 89.42 L-5.271 88.94 L-4.362 88.53 L-3.424 88.2 L-2.462 87.94 L-1.482 87.76 L-0.4913 87.65 L0.5048 87.63 Z " />
<path stroke="rgb(0,0,0)" stroke-opacity="1" fill="rgb(255,255,255)" fill-opacity="1" d="M-12.9 -13.17 L-11.91 -13.16 L-10.91 -13.15 L-9.916 -13.14 L-8.92 -13.13 L-7.925 -13.11 L-6.929 -13.1 L-5.933 -13.09 L-4.937 -13.08 L-3.941 -13.07 L-2.946 -13.06 L-1.95 -13.05 L-0.9541 -13.04 L0.04164 -13.03 L1.037 -13.02 L2.033 -13.01 L3.029 -13 L4.025 -12.99 L5.021 -12.98 L6.016 -12.97 L7.012 -12.95 L8.008 -12.94 L9.004 -12.93 L9.999 -12.92 L11 -12.91 L11.99 -12.9 L11.98 -11.91 L11.97 -10.91 L11.96 -9.914 L11.95 -8.918 L11.94 -7.922 L11.93 -6.926 L11.92 -5.93 L11.91 -4.935 L11.89 -3.939 L11.88 -2.943 L11.87 -1.947 L11.86 -0.9515 L11.85 0.04429 L11.84 1.04 L11.83 2.036 L11.82 3.032 L11.81 4.027 L11.8 5.023 L11.79 6.019 L11.78 7.015 L11.77 8.011 L11.76 9.006 L11.74 10 L11.73 11 L11.72 11.99 L10.73 11.98 L9.732 11.97 L8.736 11.96 L7.74 11.95 L6.745 11.94 L5.749 11.93 L4.753 11.92 L3.757 11.91 L2.762 11.9 L1.766 11.89 L0.7699 11.88 L-0.2258 11.87 L-1.222 11.85 L-2.217 11.84 L-3.213 11.83 L-4.209 11.82 L-5.205 11.81 L-6.201 11.8 L-7.196 11.79 L-8.192 11.78 L-9.188 11.77 L-10.18 11.76 L-11.18 11.75 L-12.18 11.74 L-13.17 11.73 L-13.16 10.73 L-13.15 9.735 L-13.14 8.739 L-13.13 7.743 L-13.12 6.747 L-13.11 5.751 L-13.1 4.756 L-13.09 3.76 L-13.07 2.764 L-13.06 1.768 L-13.05 0.7726 L-13.04 -0.2232 L-13.03 -1.219 L-13.02 -2.215 L-13.01 -3.211 L-13 -4.206 L-12.99 -5.202 L-12.98 -6.198 L-12.97 -7.194 L-12.96 -8.189 L-12.95 -9.185 L-12.94 -10.18 L-12.92 -11.18 L-12.91 -12.17 L-12.9 -13.17 Z " />
<path stroke="rgb(0,0,0)" stroke-opacity="1" fill="rgb(255,255,255)" fill-opacity="1" d="M205 86.54 L206.1 86.96 L207.1 87.46 L208.1 88.05 L209 88.71 L209.9 89.44 L210.7 90.24 L211.5 91.1 L212.2 92.02 L212.8 92.99 L213.3 94.01 L213.7 95.07 L214.1 96.16 L214.4 97.27 L214.6 98.4 L214.7 99.54 L214.7 100.7 L214.6 101.8 L214.4 103 L214.1 104.1 L213.8 105.2 L213.3 106.2 L212.8 107.3 L212.2 108.2 L211.5 109.2 L210.8 110 L210 110.8 L209.1 111.6 L208.2 112.2 L207.2 112.8 L206.2 113.3 L205.1 113.8 L204 114.1 L202.9 114.4 L201.7 114.5 L200.6 114.6 L199.4 114.6 L198.3 114.5 L197.2 114.3 L196.1 114 L195 113.6 L193.9 113.1 L192.9 112.6 L192 112 L191 111.3 L190.2 110.5 L189.4 109.7 L188.7 108.8 L188 107.8 L187.5 106.8 L187 105.8 L186.6 104.7 L186.2 103.6 L186 102.5 L185.9 101.4 L185.8 100.2 L185.9 99.08 L186 97.94 L186.2 96.81 L186.5 95.71 L186.9 94.63 L187.4 93.59 L188 92.59 L188.6 91.64 L189.3 90.74 L190.1 89.9 L191 89.13 L191.9 88.43 L192.8 87.8 L193.8 87.25 L194.9 86.78 L196 86.4 L197.1 86.1 L198.2 85.89 L199.3 85.77 L200.5 85.74 L201.6 85.81 L202.8 85.96 L203.9 86.21 L205 86.54 Z " />
<path stroke="rgb(0,0,0)" stroke-opacity="1" fill="rgb(255,255,255)" fill-opacity="1" d="M187.5 -12.61 L188.5 -12.61 L189.5 -12.61 L190.5 -12.6 L191.5 -12.6 L192.5 -12.6 L193.4 -12.59 L194.4 -12.59 L195.4 -12.58 L196.4 -12.58 L197.4 -12.58 L198.4 -12.57 L199.4 -12.57 L200.4 -12.57 L201.4 -12.56 L202.4 -12.56 L203.4 -12.56 L204.4 -12.55 L205.4 -12.55 L206.4 -12.55 L207.4 -12.54 L208.4 -12.54 L209.4 -12.54 L210.4 -12.53 L211.4 -12.53 L212.4 -12.53 L212.4 -11.53 L212.4 -10.54 L212.4 -9.54 L212.4 -8.544 L212.4 -7.548 L212.3 -6.552 L212.3 -5.556 L212.3 -4.56 L212.3 -3.565 L212.3 -2.569 L212.3 -1.573 L212.3 -0.5771 L212.3 0.4187 L212.3 1.415 L212.3 2.41 L212.3 3.406 L212.3 4.402 L212.3 5.398 L212.3 6.394 L212.3 7.39 L212.3 8.385 L212.3 9.381 L212.3 10.38 L212.3 11.37 L212.3 12.37 L211.3 12.37 L210.3 12.36 L209.3 12.36 L208.3 12.36 L207.3 12.35 L206.3 12.35 L205.3 12.34 L204.3 12.34 L203.3 12.34 L202.3 12.33 L201.3 12.33 L200.3 12.33 L199.3 12.32 L198.3 12.32 L197.3 12.32 L196.3 12.31 L195.4 12.31 L194.4 12.31 L193.4 12.3 L192.4 12.3 L191.4 12.3 L190.4 12.29 L189.4 12.29 L188.4 12.29 L187.4 12.28 L187.4 11.29 L187.4 10.29 L187.4 9.296 L187.4 8.3 L187.4 7.305 L187.4 6.309 L187.4 5.313 L187.4 4.317 L187.4 3.321 L187.4 2.325 L187.4 1.33 L187.4 0.3337 L187.4 -0.6621 L187.4 -1.658 L187.4 -2.654 L187.4 -3.65 L187.4 -4.645 L187.4 -5.641 L187.5 -6.637 L187.5 -7.633 L187.5 -8.629 L187.5 -9.625 L187.5 -10.62 L187.5 -11.62 L187.5 -12.61 Z " />
<path stroke="rgb(0,0,0)" stroke-opacity="1" fill="rgb(255,255,255)" fill-opacity="1" d="M-299.6 187.7 L-298.7 187.7 L-297.7 187.9 L-296.7 188.1 L-295.7 188.3 L-294.8 188.7 L-293.9 189.1 L-293.1 189.6 L-292.2 190.2 L-291.5 190.8 L-290.8 191.5 L-290.1 192.2 L-289.5 193 L-289 193.8 L-288.5 194.7 L-288.1 195.6 L-287.8 196.5 L-287.5 197.5 L-287.3 198.5 L-287.2 199.5 L-287.2 200.5 L-287.3 201.4 L-287.4 202.4 L-287.6 203.4 L-287.9 204.3 L-288.3 205.3 L-288.8 206.1 L-289.3 207 L-289.8 207.8 L-290.5 208.6 L-291.2 209.3 L-291.9 209.9 L-292.7 210.5 L-293.6 211 L-294.4 211.5 L-295.4 211.8 L-296.3 212.2 L-297.3 212.4 L-298.3 212.5 L-299.2 212.6 L-300.2 212.6 L-301.2 212.5 L-302.2 212.4 L-303.2 212.1 L-304.1 211.8 L-305 211.4 L-305.9 211 L-306.7 210.4 L-307.5 209.9 L-308.3 209.2 L-309 208.5 L-309.6 207.7 L-310.2 206.9 L-310.7 206.1 L-311.1 205.2 L-311.5 204.2 L-311.8 203.3 L-312 202.3 L-312.1 201.3 L-312.2 200.4 L-312.1 199.4 L-312 198.4 L-311.8 197.4 L-311.6 196.4 L-311.3 195.5 L-310.9 194.6 L-310.4 193.7 L-309.8 192.9 L-309.2 192.1 L-308.6 191.4 L-307.8 190.7 L-307.1 190.1 L-306.2 189.5 L-305.4 189.1 L-304.5 188.6 L-303.5 188.3 L-302.6 188 L-301.6 187.8 L-300.6 187.7 L-299.6 187.7 Z " />
<path stroke="rgb(0,0,0)" stroke-opacity="1" fill="rgb(255,255,255)" fill-opacity="1" d="M-315.5 82.96 L-314.5 83.02 L-313.5 83.08 L-312.5 83.14 L-311.5 83.2 L-310.5 83.27 L-309.6 83.33 L-308.6 83.39 L-307.6 83.45 L-306.6 83.51 L-305.6 83.58 L-304.6 83.64 L-303.6 83.7 L-302.6 83.76 L-301.6 83.82 L-300.6 83.88 L-299.6 83.95 L-298.6 84.01 L-297.6 84.07 L-296.6 84.13 L-295.6 84.19 L-294.6 84.25 L-293.6 84.32 L-292.7 84.38 L-291.7 84.44 L-290.7 84.5 L-290.7 85.5 L-290.8 86.49 L-290.9 87.48 L-290.9 88.48 L-291 89.47 L-291 90.46 L-291.1 91.46 L-291.2 92.45 L-291.2 93.45 L-291.3 94.44 L-291.3 95.43 L-291.4 96.43 L-291.5 97.42 L-291.5 98.42 L-291.6 99.41 L-291.7 100.4 L-291.7 101.4 L-291.8 102.4 L-291.8 103.4 L-291.9 104.4 L-292 105.4 L-292 106.4 L-292.1 107.4 L-292.1 108.4 L-292.2 109.3 L-293.2 109.3 L-294.2 109.2 L-295.2 109.2 L-296.2 109.1 L-297.2 109 L-298.2 109 L-299.2 108.9 L-300.2 108.9 L-301.2 108.8 L-302.1 108.7 L-303.1 108.7 L-304.1 108.6 L-305.1 108.5 L-306.1 108.5 L-307.1 108.4 L-308.1 108.4 L-309.1 108.3 L-310.1 108.2 L-311.1 108.2 L-312.1 108.1 L-313.1 108.1 L-314.1 108 L-315.1 107.9 L-316.1 107.9 L-317.1 107.8 L-317 106.8 L-316.9 105.8 L-316.9 104.8 L-316.8 103.8 L-316.7 102.8 L-316.7 101.8 L-316.6 100.8 L-316.6 99.85 L-316.5 98.86 L-316.4 97.87 L-316.4 96.87 L-316.3 95.88 L-316.3 94.88 L-316.2 93.89 L-316.1 92.9 L-316.1 91.9 L-316 90.91 L-315.9 89.91 L-315.9 88.92 L-315.8 87.93 L-315.8 86.93 L-315.7 85.94 L-315.6 84.95 L-315.6 83.95 L-315.5 82.96 Z " />
<path stroke="rgb(0,0,0)" stroke-opacity="1" fill="rgb(255,255,255)" fill-opacity="1" d="M-99.5 187.6 L-98.5 187.7 L-97.51 187.8 L-96.54 188 L-95.59 188.3 L-94.66 188.7 L-93.76 189.1 L-92.9 189.6 L-92.09 190.2 L-91.32 190.8 L-90.61 191.5 L-89.95 192.3 L-89.35 193.1 L-88.82 193.9 L-88.36 194.8 L-87.97 195.7 L-87.66 196.7 L-87.42 197.6 L-87.26 198.6 L-87.17 199.6 L-87.17 200.6 L-87.24 201.6 L-87.4 202.6 L-87.63 203.5 L-87.93 204.5 L-88.32 205.4 L-88.77 206.3 L-89.29 207.2 L-89.88 208 L-90.53 208.7 L-91.24 209.4 L-92 210.1 L-92.81 210.6 L-93.67 211.1 L-94.56 211.6 L-95.48 212 L-96.43 212.3 L-97.41 212.5 L-98.39 212.6 L-99.39 212.7 L-100.4 212.7 L-101.4 212.6 L-102.4 212.4 L-103.3 212.1 L-104.3 211.8 L-105.2 211.4 L-106.1 211 L-106.9 210.4 L-107.7 209.8 L-108.4 209.1 L-109.1 208.4 L-109.7 207.6 L-110.3 206.8 L-110.8 206 L-111.2 205.1 L-111.6 204.1 L-111.9 203.2 L-112.1 202.2 L-112.2 201.2 L-112.2 200.2 L-112.2 199.2 L-112.1 198.2 L-111.9 197.2 L-111.6 196.3 L-111.3 195.4 L-110.8 194.4 L-110.4 193.6 L-109.8 192.8 L-109.2 192 L-108.5 191.2 L-107.8 190.6 L-107 190 L-106.1 189.4 L-105.3 188.9 L-104.4 188.5 L-103.4 188.2 L-102.5 187.9 L-101.5 187.8 L-100.5 187.7 L-99.5 187.6 Z " />
<path stroke="rgb(0,0,0)" stroke-opacity="1" fill="rgb(255,255,255)" fill-opacity="1" d="M-112.9 86.83 L-111.9 86.84 L-110.9 86.85 L-109.9 86.86 L-108.9 86.87 L-107.9 86.89 L-106.9 86.9 L-105.9 86.91 L-104.9 86.92 L-103.9 86.93 L-102.9 86.94 L-101.9 86.95 L-101 86.96 L-99.96 86.97 L-98.96 86.98 L-97.97 86.99 L-96.97 87 L-95.98 87.01 L-94.98 87.02 L-93.98 87.03 L-92.99 87.05 L-91.99 87.06 L-91 87.07 L-90 87.08 L-89 87.09 L-88.01 87.1 L-88.02 88.09 L-88.03 89.09 L-88.04 90.09 L-88.05 91.08 L-88.06 92.08 L-88.07 93.07 L-88.08 94.07 L-88.09 95.07 L-88.11 96.06 L-88.12 97.06 L-88.13 98.05 L-88.14 99.05 L-88.15 100 L-88.16 101 L-88.17 102 L-88.18 103 L-88.19 104 L-88.2 105 L-88.21 106 L-88.22 107 L-88.23 108 L-88.24 109 L-88.26 110 L-88.27 111 L-88.28 112 L-89.27 112 L-90.27 112 L-91.26 112 L-92.26 112 L-93.26 111.9 L-94.25 111.9 L-95.25 111.9 L-96.24 111.9 L-97.24 111.9 L-98.23 111.9 L-99.23 111.9 L-100.2 111.9 L-101.2 111.9 L-102.2 111.8 L-103.2 111.8 L-104.2 111.8 L-105.2 111.8 L-106.2 111.8 L-107.2 111.8 L-108.2 111.8 L-109.2 111.8 L-110.2 111.8 L-111.2 111.7 L-112.2 111.7 L-113.2 111.7 L-113.2 110.7 L-113.1 109.7 L-113.1 108.7 L-113.1 107.7 L-113.1 106.7 L-113.1 105.8 L-113.1 104.8 L-113.1 103.8 L-113.1 102.8 L-113.1 101.8 L-113.1 100.8 L-113 99.78 L-113 98.78 L-113 97.79 L-113 96.79 L-113 95.79 L-113 94.8 L-113 93.8 L-113 92.81 L-113 91.81 L-112.9 90.81 L-112.9 89.82 L-112.9 88.82 L-112.9 87.83 L-112.9 86.83 Z " />
<path stroke="rgb(0,0,0)" stroke-opacity="1" fill="rgb(255,255,255)" fill-opacity="1" d="M105 186.5 L106.1 187 L107.1 187.5 L108.1 188 L109 188.7 L109.9 189.4 L110.7 190.2 L111.5 191.1 L112.2 192 L112.8 193 L113.3 194 L113.7 195.1 L114.1 196.2 L114.4 197.3 L114.6 198.4 L114.7 199.5 L114.7 200.7 L114.6 201.8 L114.4 203 L114.1 204.1 L113.8 205.2 L113.3 206.2 L112.8 207.3 L112.2 208.2 L111.5 209.2 L110.8 210 L110 210.8 L109.1 211.6 L108.2 212.2 L107.2 212.8 L106.2 213.3 L105.1 213.8 L104 214.1 L102.9 214.4 L101.7 214.5 L100.6 214.6 L99.45 214.6 L98.3 214.5 L97.17 214.3 L96.06 214 L94.98 213.6 L93.93 213.1 L92.92 212.6 L91.96 212 L91.04 211.3 L90.19 210.5 L89.4 209.7 L88.68 208.8 L88.03 207.8 L87.46 206.8 L86.97 205.8 L86.57 204.7 L86.25 203.6 L86.02 202.5 L85.88 201.4 L85.83 200.2 L85.87 199.1 L86 197.9 L86.22 196.8 L86.53 195.7 L86.93 194.6 L87.41 193.6 L87.98 192.6 L88.62 191.6 L89.33 190.7 L90.12 189.9 L90.96 189.1 L91.87 188.4 L92.83 187.8 L93.84 187.2 L94.88 186.8 L95.96 186.4 L97.07 186.1 L98.2 185.9 L99.34 185.8 L100.5 185.7 L101.6 185.8 L102.8 186 L103.9 186.2 L105 186.5 Z " />
<path stroke="rgb(0,0,0)" stroke-opacity="1" fill="rgb(255,255,255)" fill-opacity="1" d="M87.47 87.39 L88.47 87.39 L89.46 87.39 L90.46 87.4 L91.46 87.4 L92.45 87.4 L93.45 87.41 L94.44 87.41 L95.44 87.42 L96.43 87.42 L97.43 87.42 L98.43 87.43 L99.42 87.43 L100.4 87.43 L101.4 87.44 L102.4 87.44 L103.4 87.44 L104.4 87.45 L105.4 87.45 L106.4 87.45 L107.4 87.46 L108.4 87.46 L109.4 87.46 L110.4 87.47 L111.4 87.47 L112.4 87.47 L112.4 88.47 L112.4 89.46 L112.4 90.46 L112.4 91.46 L112.4 92.45 L112.3 93.45 L112.3 94.44 L112.3 95.44 L112.3 96.44 L112.3 97.43 L112.3 98.43 L112.3 99.42 L112.3 100.4 L112.3 101.4 L112.3 102.4 L112.3 103.4 L112.3 104.4 L112.3 105.4 L112.3 106.4 L112.3 107.4 L112.3 108.4 L112.3 109.4 L112.3 110.4 L112.3 111.4 L112.3 112.4 L111.3 112.4 L110.3 112.4 L109.3 112.4 L108.3 112.4 L107.3 112.4 L106.3 112.3 L105.3 112.3 L104.3 112.3 L103.3 112.3 L102.3 112.3 L101.3 112.3 L100.3 112.3 L99.34 112.3 L98.34 112.3 L97.35 112.3 L96.35 112.3 L95.35 112.3 L94.36 112.3 L93.36 112.3 L92.37 112.3 L91.37 112.3 L90.37 112.3 L89.38 112.3 L88.38 112.3 L87.39 112.3 L87.39 111.3 L87.39 110.3 L87.4 109.3 L87.4 108.3 L87.4 107.3 L87.41 106.3 L87.41 105.3 L87.41 104.3 L87.42 103.3 L87.42 102.3 L87.42 101.3 L87.43 100.3 L87.43 99.34 L87.43 98.34 L87.44 97.35 L87.44 96.35 L87.44 95.35 L87.45 94.36 L87.45 93.36 L87.45 92.37 L87.46 91.37 L87.46 90.38 L87.47 89.38 L87.47 88.38 L87.47 87.39 Z " />
<path stroke="rgb(0,0,0)" stroke-opacity="1" fill="rgb(255,255,255)" fill-opacity="1" d="M320.5 193.1 L320.9 194.8 L321.3 196.4 L321.5 198.1 L321.6 199.9 L321.6 201.6 L321.4 203.3 L321.1 205 L320.6 206.6 L320 208.2 L319.3 209.8 L318.5 211.3 L317.5 212.7 L316.5 214.1 L315.3 215.3 L314.1 216.5 L312.7 217.5 L311.3 218.5 L309.8 219.3 L308.2 220 L306.6 220.6 L305 221.1 L303.3 221.4 L301.6 221.6 L299.9 221.6 L298.1 221.6 L296.5 221.3 L294.8 221 L293.1 220.5 L291.5 219.9 L290 219.1 L288.5 218.3 L287.1 217.3 L285.8 216.2 L284.5 215 L283.4 213.8 L282.4 212.4 L281.4 210.9 L280.6 209.4 L280 207.9 L279.4 206.2 L279 204.6 L278.7 202.9 L278.5 201.2 L278.5 199.5 L278.6 197.8 L278.9 196.1 L279.3 194.4 L279.8 192.8 L280.4 191.2 L281.2 189.6 L282.1 188.2 L283.1 186.8 L284.2 185.5 L285.4 184.3 L286.7 183.2 L288.1 182.1 L289.6 181.3 L291.1 180.5 L292.7 179.8 L294.3 179.3 L296 178.9 L297.7 178.7 L299.4 178.5 L301.1 178.6 L302.8 178.7 L304.5 179 L306.2 179.4 L307.8 180 L309.4 180.6 L310.9 181.4 L312.3 182.4 L313.7 183.4 L315 184.5 L316.2 185.8 L317.3 187.1 L318.2 188.5 L319.1 190 L319.8 191.5 L320.5 193.1 Z " />
<path stroke="rgb(0,0,0)" stroke-opacity="1" fill="rgb(255,255,255)" fill-opacity="1" d="M-415.5 183 L-414.5 183 L-413.5 183.1 L-412.5 183.1 L-411.5 183.2 L-410.5 183.3 L-409.6 183.3 L-408.6 183.4 L-407.6 183.5 L-406.6 183.5 L-405.6 183.6 L-404.6 183.6 L-403.6 183.7 L-402.6 183.8 L-401.6 183.8 L-400.6 183.9 L-399.6 183.9 L-398.6 184 L-397.6 184.1 L-396.6 184.1 L-395.6 184.2 L-394.6 184.3 L-393.6 184.3 L-392.7 184.4 L-391.7 184.4 L-390.7 184.5 L-390.7 185.5 L-390.8 186.5 L-390.9 187.5 L-390.9 188.5 L-391 189.5 L-391 190.5 L-391.1 191.5 L-391.2 192.5 L-391.2 193.4 L-391.3 194.4 L-391.3 195.4 L-391.4 196.4 L-391.5 197.4 L-391.5 198.4 L-391.6 199.4 L-391.7 200.4 L-391.7 201.4 L-391.8 202.4 L-391.8 203.4 L-391.9 204.4 L-392 205.4 L-392 206.4 L-392.1 207.4 L-392.1 208.4 L-392.2 209.3 L-393.2 209.3 L-394.2 209.2 L-395.2 209.2 L-396.2 209.1 L-397.2 209 L-398.2 209 L-399.2 208.9 L-400.2 208.9 L-401.2 208.8 L-402.1 208.7 L-403.1 208.7 L-404.1 208.6 L-405.1 208.5 L-406.1 208.5 L-407.1 208.4 L-408.1 208.4 L-409.1 208.3 L-410.1 208.2 L-411.1 208.2 L-412.1 208.1 L-413.1 208.1 L-414.1 208 L-415.1 207.9 L-416.1 207.9 L-417.1 207.8 L-417 206.8 L-416.9 205.8 L-416.9 204.8 L-416.8 203.8 L-416.7 202.8 L-416.7 201.8 L-416.6 200.8 L-416.6 199.9 L-416.5 198.9 L-416.4 197.9 L-416.4 196.9 L-416.3 195.9 L-416.3 194.9 L-416.2 193.9 L-416.1 192.9 L-416.1 191.9 L-416 190.9 L-415.9 189.9 L-415.9 188.9 L-415.8 187.9 L-415.8 186.9 L-415.7 185.9 L-415.6 184.9 L-415.6 184 L-415.5 183 Z " />
<path stroke="rgb(0,0,0)" stroke-opacity="1" fill="rgb(255,255,255)" fill-opacity="1" d="M-199.5 287.6 L-198.5 287.7 L-197.5 287.8 L-196.5 288 L-195.6 288.3 L-194.7 288.7 L-193.8 289.1 L-192.9 289.6 L-192.1 290.2 L-191.3 290.8 L-190.6 291.5 L-189.9 292.3 L-189.4 293.1 L-188.8 293.9 L-188.4 294.8 L-188 295.7 L-187.7 296.7 L-187.4 297.6 L-187.3 298.6 L-187.2 299.6 L-187.2 300.6 L-187.2 301.6 L-187.4 302.6 L-187.6 303.5 L-187.9 304.5 L-188.3 305.4 L-188.8 306.3 L-189.3 307.2 L-189.9 308 L-190.5 308.7 L-191.2 309.4 L-192 310.1 L-192.8 310.6 L-193.7 311.1 L-194.6 311.6 L-195.5 312 L-196.4 312.3 L-197.4 312.5 L-198.4 312.6 L-199.4 312.7 L-200.4 312.7 L-201.4 312.6 L-202.4 312.4 L-203.3 312.1 L-204.3 311.8 L-205.2 311.4 L-206.1 311 L-206.9 310.4 L-207.7 309.8 L-208.4 309.1 L-209.1 308.4 L-209.7 307.6 L-210.3 306.8 L-210.8 306 L-211.2 305.1 L-211.6 304.1 L-211.9 303.2 L-212.1 302.2 L-212.2 301.2 L-212.2 300.2 L-212.2 299.2 L-212.1 298.2 L-211.9 297.2 L-211.6 296.3 L-211.3 295.4 L-210.8 294.4 L-210.4 293.6 L-209.8 292.8 L-209.2 292 L-208.5 291.2 L-207.8 290.6 L-207 290 L-206.1 289.4 L-205.3 288.9 L-204.4 288.5 L-203.4 288.2 L-202.5 287.9 L-201.5 287.8 L-200.5 287.7 L-199.5 287.6 Z " />
<path stroke="rgb(0,0,0)" stroke-opacity="1" fill="rgb(255,255,255)" fill-opacity="1" d="M-212.9 186.8 L-211.9 186.8 L-210.9 186.9 L-209.9 186.9 L-208.9 186.9 L-207.9 186.9 L-206.9 186.9 L-205.9 186.9 L-204.9 186.9 L-203.9 186.9 L-202.9 186.9 L-201.9 186.9 L-201 187 L-200 187 L-199 187 L-198 187 L-197 187 L-196 187 L-195 187 L-194 187 L-193 187 L-192 187.1 L-191 187.1 L-190 187.1 L-189 187.1 L-188 187.1 L-188 188.1 L-188 189.1 L-188 190.1 L-188.1 191.1 L-188.1 192.1 L-188.1 193.1 L-188.1 194.1 L-188.1 195.1 L-188.1 196.1 L-188.1 197.1 L-188.1 198.1 L-188.1 199 L-188.1 200 L-188.2 201 L-188.2 202 L-188.2 203 L-188.2 204 L-188.2 205 L-188.2 206 L-188.2 207 L-188.2 208 L-188.2 209 L-188.3 210 L-188.3 211 L-188.3 212 L-189.3 212 L-190.3 212 L-191.3 212 L-192.3 212 L-193.3 211.9 L-194.3 211.9 L-195.2 211.9 L-196.2 211.9 L-197.2 211.9 L-198.2 211.9 L-199.2 211.9 L-200.2 211.9 L-201.2 211.9 L-202.2 211.8 L-203.2 211.8 L-204.2 211.8 L-205.2 211.8 L-206.2 211.8 L-207.2 211.8 L-208.2 211.8 L-209.2 211.8 L-210.2 211.8 L-211.2 211.7 L-212.2 211.7 L-213.2 211.7 L-213.2 210.7 L-213.1 209.7 L-213.1 208.7 L-213.1 207.7 L-213.1 206.7 L-213.1 205.8 L-213.1 204.8 L-213.1 203.8 L-213.1 202.8 L-213.1 201.8 L-213.1 200.8 L-213 199.8 L-213 198.8 L-213 197.8 L-213 196.8 L-213 195.8 L-213 194.8 L-213 193.8 L-213 192.8 L-213 191.8 L-212.9 190.8 L-212.9 189.8 L-212.9 188.8 L-212.9 187.8 L-212.9 186.8 Z " />
<path stroke="rgb(0,0,0)" stroke-opacity="1" fill="rgb(255,255,255)" fill-opacity="1" d="M4.988 286.5 L6.056 287 L7.087 287.5 L8.075 288 L9.014 288.7 L9.897 289.4 L10.72 290.2 L11.47 291.1 L12.16 292 L12.77 293 L13.3 294 L13.75 295.1 L14.11 296.2 L14.39 297.3 L14.57 298.4 L14.67 299.5 L14.67 300.7 L14.58 301.8 L14.41 303 L14.14 304.1 L13.79 305.2 L13.34 306.2 L12.82 307.3 L12.22 308.2 L11.54 309.2 L10.79 310 L9.975 310.8 L9.097 311.6 L8.163 312.2 L7.179 312.8 L6.152 313.3 L5.087 313.8 L3.992 314.1 L2.873 314.4 L1.737 314.5 L0.5926 314.6 L-0.5544 314.6 L-1.696 314.5 L-2.826 314.3 L-3.936 314 L-5.02 313.6 L-6.07 313.1 L-7.08 312.6 L-8.044 312 L-8.956 311.3 L-9.809 310.5 L-10.6 309.7 L-11.32 308.8 L-11.97 307.8 L-12.54 306.8 L-13.03 305.8 L-13.43 304.7 L-13.75 303.6 L-13.98 302.5 L-14.12 301.4 L-14.17 300.2 L-14.13 299.1 L-14 297.9 L-13.78 296.8 L-13.47 295.7 L-13.07 294.6 L-12.59 293.6 L-12.02 292.6 L-11.38 291.6 L-10.67 290.7 L-9.884 289.9 L-9.036 289.1 L-8.13 288.4 L-7.171 287.8 L-6.164 287.2 L-5.117 286.8 L-4.036 286.4 L-2.928 286.1 L-1.8 285.9 L-0.6591 285.8 L0.4877 285.7 L1.633 285.8 L2.77 286 L3.891 286.2 L4.988 286.5 Z " />
<path stroke="rgb(0,0,0)" stroke-opacity="1" fill="rgb(255,255,255)" fill-opacity="1" d="M-12.53 187.4 L-11.53 187.4 L-10.54 187.4 L-9.54 187.4 L-8.545 187.4 L-7.549 187.4 L-6.553 187.4 L-5.557 187.4 L-4.561 187.4 L-3.565 187.4 L-2.57 187.4 L-1.574 187.4 L-0.5779 187.4 L0.4179 187.4 L1.414 187.4 L2.41 187.4 L3.405 187.4 L4.401 187.4 L5.397 187.4 L6.393 187.5 L7.389 187.5 L8.385 187.5 L9.38 187.5 L10.38 187.5 L11.37 187.5 L12.37 187.5 L12.36 188.5 L12.36 189.5 L12.36 190.5 L12.35 191.5 L12.35 192.5 L12.35 193.4 L12.34 194.4 L12.34 195.4 L12.34 196.4 L12.33 197.4 L12.33 198.4 L12.33 199.4 L12.32 200.4 L12.32 201.4 L12.32 202.4 L12.31 203.4 L12.31 204.4 L12.31 205.4 L12.3 206.4 L12.3 207.4 L12.3 208.4 L12.29 209.4 L12.29 210.4 L12.29 211.4 L12.28 212.4 L11.29 212.4 L10.29 212.4 L9.295 212.4 L8.3 212.4 L7.304 212.4 L6.308 212.3 L5.312 212.3 L4.316 212.3 L3.32 212.3 L2.325 212.3 L1.329 212.3 L0.3329 212.3 L-0.663 212.3 L-1.659 212.3 L-2.655 212.3 L-3.65 212.3 L-4.646 212.3 L-5.642 212.3 L-6.638 212.3 L-7.634 212.3 L-8.63 212.3 L-9.626 212.3 L-10.62 212.3 L-11.62 212.3 L-12.61 212.3 L-12.61 211.3 L-12.61 210.3 L-12.6 209.3 L-12.6 208.3 L-12.6 207.3 L-12.59 206.3 L-12.59 205.3 L-12.59 204.3 L-12.58 203.3 L-12.58 202.3 L-12.58 201.3 L-12.57 200.3 L-12.57 199.3 L-12.57 198.3 L-12.56 197.3 L-12.56 196.4 L-12.56 195.4 L-12.55 194.4 L-12.55 193.4 L-12.55 192.4 L-12.54 191.4 L-12.54 190.4 L-12.53 189.4 L-12.53 188.4 L-12.53 187.4 Z " />
<path stroke="rgb(0,0,0)" stroke-opacity="1" fill="rgb(255,255,255)" fill-opacity="1" d="M220.5 293.1 L220.9 294.8 L221.3 296.4 L221.5 298.1 L221.6 299.9 L221.6 301.6 L221.4 303.3 L221.1 305 L220.6 306.6 L220 308.2 L219.3 309.8 L218.5 311.3 L217.5 312.7 L216.5 314.1 L215.3 315.3 L214.1 316.5 L212.7 317.5 L211.3 318.5 L209.8 319.3 L208.2 320 L206.6 320.6 L205 321.1 L203.3 321.4 L201.6 321.6 L199.9 321.6 L198.1 321.6 L196.5 321.3 L194.8 321 L193.1 320.5 L191.5 319.9 L190 319.1 L188.5 318.3 L187.1 317.3 L185.8 316.2 L184.5 315 L183.4 313.8 L182.4 312.4 L181.4 310.9 L180.6 309.4 L180 307.9 L179.4 306.2 L179 304.6 L178.7 302.9 L178.5 301.2 L178.5 299.5 L178.6 297.8 L178.9 296.1 L179.3 294.4 L179.8 292.8 L180.4 291.2 L181.2 289.6 L182.1 288.2 L183.1 286.8 L184.2 285.5 L185.4 284.3 L186.7 283.2 L188.1 282.1 L189.6 281.3 L191.1 280.5 L192.7 279.8 L194.3 279.3 L196 278.9 L197.7 278.7 L199.4 278.5 L201.1 278.6 L202.8 278.7 L204.5 279 L206.2 279.4 L207.8 280 L209.4 280.6 L210.9 281.4 L212.3 282.4 L213.7 283.4 L215 284.5 L216.2 285.8 L217.3 287.1 L218.2 288.5 L219.1 290 L219.8 291.5 L220.5 293.1 Z " />
<path stroke="rgb(0,0,0)" stroke-opacity="1" fill="rgb(255,255,255)" fill-opacity="1" d="M187.5 187.4 L188.5 187.4 L189.5 187.4 L190.5 187.4 L191.5 187.4 L192.5 187.4 L193.4 187.4 L194.4 187.4 L195.4 187.4 L196.4 187.4 L197.4 187.4 L198.4 187.4 L199.4 187.4 L200.4 187.4 L201.4 187.4 L202.4 187.4 L203.4 187.4 L204.4 187.4 L205.4 187.4 L206.4 187.5 L207.4 187.5 L208.4 187.5 L209.4 187.5 L210.4 187.5 L211.4 187.5 L212.4 187.5 L212.4 188.5 L212.4 189.5 L212.4 190.5 L212.4 191.5 L212.4 192.5 L212.3 193.4 L212.3 194.4 L212.3 195.4 L212.3 196.4 L212.3 197.4 L212.3 198.4 L212.3 199.4 L212.3 200.4 L212.3 201.4 L212.3 202.4 L212.3 203.4 L212.3 204.4 L212.3 205.4 L212.3 206.4 L212.3 207.4 L212.3 208.4 L212.3 209.4 L212.3 210.4 L212.3 211.4 L212.3 212.4 L211.3 212.4 L210.3 212.4 L209.3 212.4 L208.3 212.4 L207.3 212.4 L206.3 212.3 L205.3 212.3 L204.3 212.3 L203.3 212.3 L202.3 212.3 L201.3 212.3 L200.3 212.3 L199.3 212.3 L198.3 212.3 L197.3 212.3 L196.3 212.3 L195.4 212.3 L194.4 212.3 L193.4 212.3 L192.4 212.3 L191.4 212.3 L190.4 212.3 L189.4 212.3 L188.4 212.3 L187.4 212.3 L187.4 211.3 L187.4 210.3 L187.4 209.3 L187.4 208.3 L187.4 207.3 L187.4 206.3 L187.4 205.3 L187.4 204.3 L187.4 203.3 L187.4 202.3 L187.4 201.3 L187.4 200.3 L187.4 199.3 L187.4 198.3 L187.4 197.3 L187.4 196.4 L187.4 195.4 L187.4 194.4 L187.5 193.4 L187.5 192.4 L187.5 191.4 L187.5 190.4 L187.5 189.4 L187.5 188.4 L187.5 187.4 Z " />
</g>
</g>
</svg>
