<!DOCTYPE svg>
<svg xmlns="http://www.w3.org/2000/svg" xmlns:xlink="http://www.w3.org/1999/xlink" width="1000" height="1000">
<g transform="translate(500.000000,500.000000)">
<g transform="scale(3.000000,3.000000)">
<path stroke="rgb(0,0,0)" stroke-opacity="1" fill="rgb(255,255,255)" fill-opacity="1" d="M-895.2 -919.2 L-895.4 -918.2 L-895.5 -917.3 L-895.7 -916.3 L-895.8 -915.3 L-896 -914.4 L-896.1 -913.4 L-896.3 -912.4 L-896.4 -911.5 L-896.6 -910.5 L-896.7 -909.5 L-896.9 -908.6 L-897 -907.6 L-897.2 -906.6 L-897.3 -905.7 L-897.5 -904.7 L-897.6 -903.7 L-897.8 -902.8 L-897.9 -901.8 L-898.1 -900.8 L-898.2 -899.9 L-898.4 -898.9 L-898.5 -897.9 L-898.7 -896.9 L-898.8 -896 L-899 -895 L-900 -895.2 L-900.9 -895.3 L-901.9 -895.5 L-902.9 -895.6 L-903.8 -895.8 L-904.8 -895.9 L-905.8 -896.1 L-906.7 -896.2 L-907.7 -896.4 L-908.7 -896.5 L-909.6 -896.7 L-910.6 -896.8 L-911.6 -897 L-912.5 -897.1 L-913.5 -897.3 L-914.5 -897.4 L-915.4 -897.5 L-916.4 -897.7 L-917.4 -897.8 L-918.3 -898 L-919.3 -898.1 L-920.3 -898.3 L-921.3 -898.4 L-922.2 -898.6 L-923.2 -898.7 L-923 -899.7 L-922.9 -900.7 L-922.7 -901.6 L-922.6 -902.6 L-922.4 -903.6 L-922.3 -904.6 L-922.1 -905.5 L-922 -906.5 L-921.8 -907.5 L-921.7 -908.4 L-921.5 -909.4 L-921.4 -910.4 L-921.2 -911.3 L-921.1 -912.3 L-920.9 -913.3 L-920.8 -914.2 L-920.7 -915.2 L-920.5 -916.2 L-920.4 -917.1 L-920.2 -918.1 L-920.1 -919.1 L-919.9 -920 L-919.8 -921 L-919.6 -922 L-919.5 -923 L-918.5 -922.8 L-917.5 -922.7 L-916.6 -922.5 L-915.6 -922.4 L-914.6 -922.2 L-913.6 -922.1 L-912.7 -921.9 L-911.7 -921.8 L-910.7 -921.6 L-909.8 -921.5 L-908.8 -921.3 L-907.8 -921.2 L-906.9 -921 L-905.9 -920.9 L-904.9 -920.7 L-904 -920.6 L-903 -920.4 L-902 -920.3 L-901.1 -920.1 L-900.1 -920 L-899.1 -919.8 L-898.2 -919.7 L-897.2 -919.5 L-896.2 -919.4 L-895.2 -919.2 Z " />
<path stroke="rgb(0,0,0)" stroke-opacity="1" fill="rgb(255,255,255)" fill-opacity="1" d="M-199.5 -312.2 L-198.5 -312.1 L-197.6 -312 L-196.6 -311.8 L-195.7 -311.5 L-194.7 -311.2 L-193.9 -310.7 L-193 -310.2 L-192.2 -309.7 L-191.5 -309 L-190.8 -308.4 L-190.1 -307.6 L-189.5 -306.8 L-189 -306 L-188.5 -305.1 L-188.2 -304.2 L-187.8 -303.3 L-187.6 -302.3 L-187.4 -301.4 L-187.4 -300.4 L-187.4 -299.4 L-187.4 -298.4 L-187.6 -297.5 L-187.8 -296.5 L-188.1 -295.6 L-188.5 -294.7 L-188.9 -293.8 L-189.4 -293 L-190 -292.2 L-190.7 -291.4 L-191.4 -290.7 L-192.1 -290.1 L-192.9 -289.5 L-193.7 -289 L-194.6 -288.6 L-195.5 -288.2 L-196.5 -287.9 L-197.4 -287.7 L-198.4 -287.6 L-199.4 -287.5 L-200.4 -287.5 L-201.3 -287.6 L-202.3 -287.8 L-203.3 -288 L-204.2 -288.4 L-205.1 -288.7 L-205.9 -289.2 L-206.8 -289.7 L-207.6 -290.3 L-208.3 -291 L-209 -291.7 L-209.6 -292.5 L-210.1 -293.3 L-210.6 -294.1 L-211 -295 L-211.4 -295.9 L-211.7 -296.9 L-211.9 -297.8 L-212 -298.8 L-212 -299.8 L-212 -300.8 L-211.9 -301.7 L-211.7 -302.7 L-211.4 -303.6 L-211.1 -304.6 L-210.7 -305.5 L-210.2 -306.3 L-209.7 -307.1 L-209 -307.9 L-208.4 -308.6 L-207.7 -309.3 L-206.9 -309.9 L-206.1 -310.4 L-205.2 -310.9 L-204.3 -311.3 L-203.4 -311.6 L-202.4 -311.9 L-201.5 -312.1 L-200.5 -312.2 L-199.5 -312.2 Z " />
<path stroke="rgb(0,0,0)" stroke-opacity="1" fill="rgb(255,255,255)" fill-opacity="1" d="M-689.7 -913.9 L-689.7 -912.9 L-689.8 -912 L-689.8 -911 L-689.9 -910 L-689.9 -909 L-690 -908.1 L-690 -907.1 L-690.1 -906.1 L-690.1 -905.1 L-690.2 -904.1 L-690.2 -903.2 L-690.3 -902.2 L-690.3 -901.2 L-690.4 -900.2 L-690.4 -899.2 L-690.5 -898.3 L-690.5 -897.3 L-690.5 -896.3 L-690.6 -895.3 L-690.6 -894.4 L-690.7 -893.4 L-690.7 -892.4 L-690.8 -891.4 L-690.8 -890.4 L-690.9 -889.5 L-691.9 -889.5 L-692.8 -889.6 L-693.8 -889.6 L-694.8 -889.6 L-695.8 -889.7 L-696.7 -889.7 L-697.7 -889.8 L-698.7 -889.8 L-699.7 -889.9 L-700.7 -889.9 L-701.6 -890 L-702.6 -890 L-703.6 -890.1 L-704.6 -890.1 L-705.6 -890.2 L-706.5 -890.2 L-707.5 -890.3 L-708.5 -890.3 L-709.5 -890.4 L-710.5 -890.4 L-711.4 -890.4 L-712.4 -890.5 L-713.4 -890.5 L-714.4 -890.6 L-715.3 -890.6 L-715.3 -891.6 L-715.2 -892.6 L-715.2 -893.6 L-715.2 -894.5 L-715.1 -895.5 L-715.1 -896.5 L-715 -897.5 L-715 -898.5 L-714.9 -899.4 L-714.9 -900.4 L-714.8 -901.4 L-714.8 -902.4 L-714.7 -903.4 L-714.7 -904.3 L-714.6 -905.3 L-714.6 -906.3 L-714.5 -907.3 L-714.5 -908.3 L-714.4 -909.2 L-714.4 -910.2 L-714.4 -911.2 L-714.3 -912.2 L-714.3 -913.1 L-714.2 -914.1 L-714.2 -915.1 L-713.2 -915.1 L-712.2 -915 L-711.2 -915 L-710.3 -914.9 L-709.3 -914.9 L-708.3 -914.8 L-707.3 -914.8 L-706.3 -914.7 L-705.4 -914.7 L-704.4 -914.6 L-703.4 -914.6 L-702.4 -914.5 L-701.4 -914.5 L-700.5 -914.4 L-699.5 -914.4 L-698.5 -914.3 L-697.5 -914.3 L-696.5 -914.3 L-695.6 -914.2 L-694.6 -914.2 L-693.6 -914.1 L-692.6 -914.1 L-691.7 -914 L-690.7 -914 L-689.7 -913.9 Z " />
<path stroke="rgb(0,0,0)" stroke-opacity="1" fill="rgb(255,255,255)" fill-opacity="1" d="M1.198 -312.5 L2.198 -312.4 L3.186 -312.2 L4.156 -311.9 L5.101 -311.5 L6.016 -311.1 L6.895 -310.6 L7.732 -310.1 L8.522 -309.5 L9.26 -308.8 L9.941 -308 L10.56 -307.2 L11.12 -306.4 L11.6 -305.5 L12.02 -304.6 L12.36 -303.7 L12.63 -302.7 L12.82 -301.7 L12.92 -300.7 L12.95 -299.7 L12.9 -298.7 L12.77 -297.7 L12.56 -296.7 L12.27 -295.7 L11.91 -294.8 L11.47 -293.9 L10.97 -293 L10.39 -292.2 L9.754 -291.4 L9.056 -290.7 L8.302 -290 L7.498 -289.4 L6.649 -288.9 L5.759 -288.4 L4.835 -288 L3.882 -287.7 L2.907 -287.5 L1.915 -287.3 L0.9126 -287.2 L-0.09337 -287.2 L-1.097 -287.3 L-2.091 -287.4 L-3.071 -287.6 L-4.029 -288 L-4.96 -288.3 L-5.858 -288.8 L-6.716 -289.3 L-7.53 -289.9 L-8.295 -290.6 L-9.005 -291.3 L-9.657 -292 L-10.25 -292.9 L-10.77 -293.7 L-11.22 -294.6 L-11.6 -295.5 L-11.9 -296.5 L-12.13 -297.5 L-12.28 -298.5 L-12.35 -299.5 L-12.33 -300.5 L-12.24 -301.5 L-12.07 -302.5 L-11.82 -303.5 L-11.5 -304.4 L-11.1 -305.3 L-10.63 -306.2 L-10.08 -307.1 L-9.478 -307.9 L-8.809 -308.6 L-8.083 -309.3 L-7.304 -310 L-6.476 -310.5 L-5.606 -311 L-4.698 -311.5 L-3.759 -311.8 L-2.794 -312.1 L-1.81 -312.3 L-0.812 -312.4 L0.1929 -312.5 L1.198 -312.5 Z " />
<path stroke="rgb(0,0,0)" stroke-opacity="1" fill="rgb(255,255,255)" fill-opacity="1" d="M-488 -912.3 L-488.1 -911.3 L-488.1 -910.3 L-488.1 -909.4 L-488.1 -908.4 L-488.1 -907.4 L-488.1 -906.4 L-488.2 -905.4 L-488.2 -904.5 L-488.2 -903.5 L-488.2 -902.5 L-488.2 -901.5 L-488.2 -900.5 L-488.3 -899.6 L-488.3 -898.6 L-488.3 -897.6 L-488.3 -896.6 L-488.3 -895.6 L-488.3 -894.7 L-488.4 -893.7 L-488.4 -892.7 L-488.4 -891.7 L-488.4 -890.7 L-488.4 -889.8 L-488.4 -888.8 L-488.4 -887.8 L-489.4 -887.8 L-490.4 -887.8 L-491.4 -887.9 L-492.4 -887.9 L-493.3 -887.9 L-494.3 -887.9 L-495.3 -887.9 L-496.3 -887.9 L-497.3 -888 L-498.2 -888 L-499.2 -888 L-500.2 -888 L-501.2 -888 L-502.2 -888 L-503.1 -888 L-504.1 -888.1 L-505.1 -888.1 L-506.1 -888.1 L-507.1 -888.1 L-508 -888.1 L-509 -888.1 L-510 -888.2 L-511 -888.2 L-512 -888.2 L-512.9 -888.2 L-512.9 -889.2 L-512.9 -890.2 L-512.9 -891.1 L-512.9 -892.1 L-512.9 -893.1 L-512.8 -894.1 L-512.8 -895.1 L-512.8 -896 L-512.8 -897 L-512.8 -898 L-512.8 -899 L-512.8 -900 L-512.7 -900.9 L-512.7 -901.9 L-512.7 -902.9 L-512.7 -903.9 L-512.7 -904.9 L-512.7 -905.8 L-512.6 -906.8 L-512.6 -907.8 L-512.6 -908.8 L-512.6 -909.8 L-512.6 -910.7 L-512.6 -911.7 L-512.5 -912.7 L-511.6 -912.7 L-510.6 -912.7 L-509.6 -912.7 L-508.6 -912.6 L-507.6 -912.6 L-506.7 -912.6 L-505.7 -912.6 L-504.7 -912.6 L-503.7 -912.6 L-502.7 -912.5 L-501.8 -912.5 L-500.8 -912.5 L-499.8 -912.5 L-498.8 -912.5 L-497.8 -912.5 L-496.9 -912.4 L-495.9 -912.4 L-494.9 -912.4 L-493.9 -912.4 L-492.9 -912.4 L-492 -912.4 L-491 -912.3 L-490 -912.3 L-489 -912.3 L-488 -912.3 Z " />
<path stroke="rgb(0,0,0)" stroke-opacity="1" fill="rgb(255,255,255)" fill-opacity="1" d="M209.5 -313 L210.6 -312.2 L211.5 -311.3 L212.4 -310.4 L213.2 -309.4 L213.9 -308.3 L214.5 -307.2 L215.1 -306 L215.5 -304.8 L215.9 -303.6 L216.1 -302.4 L216.3 -301.1 L216.3 -299.8 L216.3 -298.5 L216.1 -297.2 L215.8 -296 L215.5 -294.8 L215 -293.6 L214.5 -292.4 L213.9 -291.3 L213.1 -290.2 L212.3 -289.2 L211.5 -288.3 L210.5 -287.4 L209.5 -286.7 L208.4 -286 L207.3 -285.4 L206.1 -284.8 L204.9 -284.4 L203.7 -284.1 L202.4 -283.9 L201.1 -283.7 L199.8 -283.7 L198.6 -283.8 L197.3 -284 L196 -284.3 L194.8 -284.6 L193.6 -285.1 L192.5 -285.7 L191.4 -286.3 L190.3 -287.1 L189.3 -287.9 L188.4 -288.8 L187.6 -289.8 L186.8 -290.8 L186.2 -291.9 L185.6 -293 L185.1 -294.2 L184.7 -295.4 L184.4 -296.7 L184.2 -298 L184.1 -299.2 L184.1 -300.5 L184.2 -301.8 L184.4 -303.1 L184.7 -304.3 L185.1 -305.5 L185.6 -306.7 L186.2 -307.8 L186.9 -308.9 L187.6 -310 L188.5 -310.9 L189.4 -311.8 L190.4 -312.6 L191.4 -313.4 L192.5 -314 L193.7 -314.6 L194.9 -315.1 L196.1 -315.4 L197.4 -315.7 L198.6 -315.9 L199.9 -316 L201.2 -315.9 L202.5 -315.8 L203.7 -315.6 L205 -315.2 L206.2 -314.8 L207.3 -314.3 L208.5 -313.7 L209.5 -313 Z " />
<path stroke="rgb(0,0,0)" stroke-opacity="1" fill="rgb(255,255,255)" fill-opacity="1" d="M-287.9 -912.2 L-288 -911.2 L-288 -910.2 L-288 -909.2 L-288 -908.3 L-288 -907.3 L-288 -906.3 L-288 -905.3 L-288 -904.4 L-288.1 -903.4 L-288.1 -902.4 L-288.1 -901.4 L-288.1 -900.4 L-288.1 -899.5 L-288.1 -898.5 L-288.1 -897.5 L-288.2 -896.5 L-288.2 -895.5 L-288.2 -894.6 L-288.2 -893.6 L-288.2 -892.6 L-288.2 -891.6 L-288.2 -890.6 L-288.3 -889.7 L-288.3 -888.7 L-288.3 -887.7 L-289.3 -887.7 L-290.2 -887.7 L-291.2 -887.7 L-292.2 -887.8 L-293.2 -887.8 L-294.2 -887.8 L-295.1 -887.8 L-296.1 -887.8 L-297.1 -887.8 L-298.1 -887.8 L-299.1 -887.8 L-300 -887.9 L-301 -887.9 L-302 -887.9 L-303 -887.9 L-304 -887.9 L-304.9 -887.9 L-305.9 -887.9 L-306.9 -888 L-307.9 -888 L-308.9 -888 L-309.8 -888 L-310.8 -888 L-311.8 -888 L-312.8 -888 L-312.8 -889 L-312.7 -890 L-312.7 -891 L-312.7 -892 L-312.7 -892.9 L-312.7 -893.9 L-312.7 -894.9 L-312.7 -895.9 L-312.7 -896.9 L-312.6 -897.8 L-312.6 -898.8 L-312.6 -899.8 L-312.6 -900.8 L-312.6 -901.8 L-312.6 -902.7 L-312.6 -903.7 L-312.5 -904.7 L-312.5 -905.7 L-312.5 -906.7 L-312.5 -907.6 L-312.5 -908.6 L-312.5 -909.6 L-312.5 -910.6 L-312.4 -911.6 L-312.4 -912.5 L-311.5 -912.5 L-310.5 -912.5 L-309.5 -912.5 L-308.5 -912.5 L-307.5 -912.5 L-306.6 -912.5 L-305.6 -912.4 L-304.6 -912.4 L-303.6 -912.4 L-302.6 -912.4 L-301.7 -912.4 L-300.7 -912.4 L-299.7 -912.4 L-298.7 -912.3 L-297.7 -912.3 L-296.8 -912.3 L-295.8 -912.3 L-294.8 -912.3 L-293.8 -912.3 L-292.8 -912.3 L-291.9 -912.2 L-290.9 -912.2 L-289.9 -912.2 L-288.9 -912.2 L-287.9 -912.2 Z " />
<path stroke="rgb(0,0,0)" stroke-opacity="1" fill="rgb(255,255,255)" fill-opacity="1" d="M-299.5 -212.2 L-298.5 -212.1 L-297.6 -212 L-296.6 -211.8 L-295.7 -211.5 L-294.7 -211.2 L-293.9 -210.7 L-293 -210.2 L-292.2 -209.7 L-291.5 -209 L-290.8 -208.4 L-290.1 -207.6 L-289.5 -206.8 L-289 -206 L-288.5 -205.1 L-288.2 -204.2 L-287.8 -203.3 L-287.6 -202.3 L-287.4 -201.4 L-287.4 -200.4 L-287.4 -199.4 L-287.4 -198.4 L-287.6 -197.5 L-287.8 -196.5 L-288.1 -195.6 L-288.5 -194.7 L-288.9 -193.8 L-289.4 -193 L-290 -192.2 L-290.7 -191.4 L-291.4 -190.7 L-292.1 -190.1 L-292.9 -189.5 L-293.7 -189 L-294.6 -188.6 L-295.5 -188.2 L-296.5 -187.9 L-297.4 -187.7 L-298.4 -187.6 L-299.4 -187.5 L-300.4 -187.5 L-301.3 -187.6 L-302.3 -187.8 L-303.3 -188 L-304.2 -188.4 L-305.1 -188.7 L-305.9 -189.2 L-306.8 -189.7 L-307.6 -190.3 L-308.3 -191 L-309 -191.7 L-309.6 -192.5 L-310.1 -193.3 L-310.6 -194.1 L-311 -195 L-311.4 -195.9 L-311.7 -196.9 L-311.9 -197.8 L-312 -198.8 L-312 -199.8 L-312 -200.8 L-311.9 -201.7 L-311.7 -202.7 L-311.4 -203.6 L-311.1 -204.6 L-310.7 -205.5 L-310.2 -206.3 L-309.7 -207.1 L-309 -207.9 L-308.4 -208.6 L-307.7 -209.3 L-306.9 -209.9 L-306.1 -210.4 L-305.2 -210.9 L-304.3 -211.3 L-303.4 -211.6 L-302.4 -211.9 L-301.5 -212.1 L-300.5 -212.2 L-299.5 -212.2 Z " />
<path stroke="rgb(0,0,0)" stroke-opacity="1" fill="rgb(255,255,255)" fill-opacity="1" d="M-789.7 -813.9 L-789.7 -812.9 L-789.8 -812 L-789.8 -811 L-789.9 -810 L-789.9 -809 L-790 -808.1 L-790 -807.1 L-790.1 -806.1 L-790.1 -805.1 L-790.2 -804.1 L-790.2 -803.2 L-790.3 -802.2 L-790.3 -801.2 L-790.4 -800.2 L-790.4 -799.2 L-790.5 -798.3 L-790.5 -797.3 L-790.5 -796.3 L-790.6 -795.3 L-790.6 -794.4 L-790.7 -793.4 L-790.7 -792.4 L-790.8 -791.4 L-790.8 -790.4 L-790.9 -789.5 L-791.9 -789.5 L-792.8 -789.6 L-793.8 -789.6 L-794.8 -789.6 L-795.8 -789.7 L-796.7 -789.7 L-797.7 -789.8 L-798.7 -789.8 L-799.7 -789.9 L-800.7 -789.9 L-801.6 -790 L-802.6 -790 L-803.6 -790.1 L-804.6 -790.1 L-805.6 -790.2 L-806.5 -790.2 L-807.5 -790.3 L-808.5 -790.3 L-809.5 -790.4 L-810.5 -790.4 L-811.4 -790.4 L-812.4 -790.5 L-813.4 -790.5 L-814.4 -790.6 L-815.3 -790.6 L-815.3 -791.6 L-815.2 -792.6 L-815.2 -793.6 L-815.2 -794.5 L-815.1 -795.5 L-815.1 -796.5 L-815 -797.5 L-815 -798.5 L-814.9 -799.4 L-814.9 -800.4 L-814.8 -801.4 L-814.8 -802.4 L-814.7 -803.4 L-814.7 -804.3 L-814.6 -805.3 L-814.6 -806.3 L-814.5 -807.3 L-814.5 -808.3 L-814.4 -809.2 L-814.4 -810.2 L-814.4 -811.2 L-814.3 -812.2 L-814.3 -813.1 L-814.2 -814.1 L-814.2 -815.1 L-813.2 -815.1 L-812.2 -815 L-811.2 -815 L-810.3 -814.9 L-809.3 -814.9 L-808.3 -814.8 L-807.3 -814.8 L-806.3 -814.7 L-805.4 -814.7 L-804.4 -814.6 L-803.4 -814.6 L-802.4 -814.5 L-801.4 -814.5 L-800.5 -814.4 L-799.5 -814.4 L-798.5 -814.3 L-797.5 -814.3 L-796.5 -814.3 L-795.6 -814.2 L-794.6 -814.2 L-793.6 -814.1 L-792.6 -814.1 L-791.7 -814 L-790.7 -814 L-789.7 -813.9 Z " />
<path stroke="rgb(0,0,0)" stroke-opacity="1" fill="rgb(255,255,255)" fill-opacity="1" d="M-98.8 -212.5 L-97.8 -212.4 L-96.81 -212.2 L-95.84 -211.9 L-94.9 -211.5 L-93.98 -211.1 L-93.11 -210.6 L-92.27 -210.1 L-91.48 -209.5 L-90.74 -208.8 L-90.06 -208 L-89.44 -207.2 L-88.88 -206.4 L-88.4 -205.5 L-87.98 -204.6 L-87.64 -203.7 L-87.37 -202.7 L-87.18 -201.7 L-87.08 -200.7 L-87.05 -199.7 L-87.1 -198.7 L-87.23 -197.7 L-87.44 -196.7 L-87.73 -195.7 L-88.09 -194.8 L-88.53 -193.9 L-89.03 -193 L-89.61 -192.2 L-90.25 -191.4 L-90.94 -190.7 L-91.7 -190 L-92.5 -189.4 L-93.35 -188.9 L-94.24 -188.4 L-95.17 -188 L-96.12 -187.7 L-97.09 -187.5 L-98.09 -187.3 L-99.09 -187.2 L-100.1 -187.2 L-101.1 -187.3 L-102.1 -187.4 L-103.1 -187.6 L-104 -188 L-105 -188.3 L-105.9 -188.8 L-106.7 -189.3 L-107.5 -189.9 L-108.3 -190.6 L-109 -191.3 L-109.7 -192 L-110.2 -192.9 L-110.8 -193.7 L-111.2 -194.6 L-111.6 -195.5 L-111.9 -196.5 L-112.1 -197.5 L-112.3 -198.5 L-112.3 -199.5 L-112.3 -200.5 L-112.2 -201.5 L-112.1 -202.5 L-111.8 -203.5 L-111.5 -204.4 L-111.1 -205.3 L-110.6 -206.2 L-110.1 -207.1 L-109.5 -207.9 L-108.8 -208.6 L-108.1 -209.3 L-107.3 -210 L-106.5 -210.5 L-105.6 -211 L-104.7 -211.5 L-103.8 -211.8 L-102.8 -212.1 L-101.8 -212.3 L-100.8 -212.4 L-99.81 -212.5 L-98.8 -212.5 Z " />
<path stroke="rgb(0,0,0)" stroke-opacity="1" fill="rgb(255,255,255)" fill-opacity="1" d="M-588 -812.3 L-588.1 -811.3 L-588.1 -810.3 L-588.1 -809.4 L-588.1 -808.4 L-588.1 -807.4 L-588.1 -806.4 L-588.2 -805.4 L-588.2 -804.5 L-588.2 -803.5 L-588.2 -802.5 L-588.2 -801.5 L-588.2 -800.5 L-588.3 -799.6 L-588.3 -798.6 L-588.3 -797.6 L-588.3 -796.6 L-588.3 -795.6 L-588.3 -794.7 L-588.4 -793.7 L-588.4 -792.7 L-588.4 -791.7 L-588.4 -790.7 L-588.4 -789.8 L-588.4 -788.8 L-588.4 -787.8 L-589.4 -787.8 L-590.4 -787.8 L-591.4 -787.9 L-592.4 -787.9 L-593.3 -787.9 L-594.3 -787.9 L-595.3 -787.9 L-596.3 -787.9 L-597.3 -788 L-598.2 -788 L-599.2 -788 L-600.2 -788 L-601.2 -788 L-602.2 -788 L-603.1 -788 L-604.1 -788.1 L-605.1 -788.1 L-606.1 -788.1 L-607.1 -788.1 L-608 -788.1 L-609 -788.1 L-610 -788.2 L-611 -788.2 L-612 -788.2 L-612.9 -788.2 L-612.9 -789.2 L-612.9 -790.2 L-612.9 -791.1 L-612.9 -792.1 L-612.9 -793.1 L-612.8 -794.1 L-612.8 -795.1 L-612.8 -796 L-612.8 -797 L-612.8 -798 L-612.8 -799 L-612.8 -800 L-612.7 -800.9 L-612.7 -801.9 L-612.7 -802.9 L-612.7 -803.9 L-612.7 -804.9 L-612.7 -805.8 L-612.6 -806.8 L-612.6 -807.8 L-612.6 -808.8 L-612.6 -809.8 L-612.6 -810.7 L-612.6 -811.7 L-612.5 -812.7 L-611.6 -812.7 L-610.6 -812.7 L-609.6 -812.7 L-608.6 -812.6 L-607.6 -812.6 L-606.7 -812.6 L-605.7 -812.6 L-604.7 -812.6 L-603.7 -812.6 L-602.7 -812.5 L-601.8 -812.5 L-600.8 -812.5 L-599.8 -812.5 L-598.8 -812.5 L-597.8 -812.5 L-596.9 -812.4 L-595.9 -812.4 L-594.9 -812.4 L-593.9 -812.4 L-592.9 -812.4 L-592 -812.4 L-591 -812.3 L-590 -812.3 L-589 -812.3 L-588 -812.3 Z " />
<path stroke="rgb(0,0,0)" stroke-opacity="1" fill="rgb(255,255,255)" fill-opacity="1" d="M109.5 -213 L110.6 -212.2 L111.5 -211.3 L112.4 -210.4 L113.2 -209.4 L113.9 -208.3 L114.5 -207.2 L115.1 -206 L115.5 -204.8 L115.9 -203.6 L116.1 -202.4 L116.3 -201.1 L116.3 -199.8 L116.3 -198.5 L116.1 -197.2 L115.8 -196 L115.5 -194.8 L115 -193.6 L114.5 -192.4 L113.9 -191.3 L113.1 -190.2 L112.3 -189.2 L111.5 -188.3 L110.5 -187.4 L109.5 -186.7 L108.4 -186 L107.3 -185.4 L106.1 -184.8 L104.9 -184.4 L103.7 -184.1 L102.4 -183.9 L101.1 -183.7 L99.84 -183.7 L98.56 -183.8 L97.29 -184 L96.04 -184.3 L94.81 -184.6 L93.62 -185.1 L92.48 -185.7 L91.38 -186.3 L90.33 -187.1 L89.35 -187.9 L88.44 -188.8 L87.6 -189.8 L86.84 -190.8 L86.16 -191.9 L85.58 -193 L85.08 -194.2 L84.69 -195.4 L84.39 -196.7 L84.19 -198 L84.09 -199.2 L84.09 -200.5 L84.19 -201.8 L84.4 -203.1 L84.71 -204.3 L85.11 -205.5 L85.61 -206.7 L86.2 -207.8 L86.88 -208.9 L87.64 -210 L88.49 -210.9 L89.41 -211.8 L90.39 -212.6 L91.44 -213.4 L92.54 -214 L93.69 -214.6 L94.89 -215.1 L96.11 -215.4 L97.36 -215.7 L98.63 -215.9 L99.91 -216 L101.2 -215.9 L102.5 -215.8 L103.7 -215.6 L105 -215.2 L106.2 -214.8 L107.3 -214.3 L108.5 -213.7 L109.5 -213 Z " />
<path stroke="rgb(0,0,0)" stroke-opacity="1" fill="rgb(255,255,255)" fill-opacity="1" d="M-387.9 -812.2 L-388 -811.2 L-388 -810.2 L-388 -809.2 L-388 -808.3 L-388 -807.3 L-388 -806.3 L-388 -805.3 L-388 -804.4 L-388.1 -803.4 L-388.1 -802.4 L-388.1 -801.4 L-388.1 -800.4 L-388.1 -799.5 L-388.1 -798.5 L-388.1 -797.5 L-388.2 -796.5 L-388.2 -795.5 L-388.2 -794.6 L-388.2 -793.6 L-388.2 -792.6 L-388.2 -791.6 L-388.2 -790.6 L-388.3 -789.7 L-388.3 -788.7 L-388.3 -787.7 L-389.3 -787.7 L-390.2 -787.7 L-391.2 -787.7 L-392.2 -787.8 L-393.2 -787.8 L-394.2 -787.8 L-395.1 -787.8 L-396.1 -787.8 L-397.1 -787.8 L-398.1 -787.8 L-399.1 -787.8 L-400 -787.9 L-401 -787.9 L-402 -787.9 L-403 -787.9 L-404 -787.9 L-404.9 -787.9 L-405.9 -787.9 L-406.9 -788 L-407.9 -788 L-408.9 -788 L-409.8 -788 L-410.8 -788 L-411.8 -788 L-412.8 -788 L-412.8 -789 L-412.7 -790 L-412.7 -791 L-412.7 -792 L-412.7 -792.9 L-412.7 -793.9 L-412.7 -794.9 L-412.7 -795.9 L-412.7 -796.9 L-412.6 -797.8 L-412.6 -798.8 L-412.6 -799.8 L-412.6 -800.8 L-412.6 -801.8 L-412.6 -802.7 L-412.6 -803.7 L-412.5 -804.7 L-412.5 -805.7 L-412.5 -806.7 L-412.5 -807.6 L-412.5 -808.6 L-412.5 -809.6 L-412.5 -810.6 L-412.4 -811.6 L-412.4 -812.5 L-411.5 -812.5 L-410.5 -812.5 L-409.5 -812.5 L-408.5 -812.5 L-407.5 -812.5 L-406.6 -812.5 L-405.6 -812.4 L-404.6 -812.4 L-403.6 -812.4 L-402.6 -812.4 L-401.7 -812.4 L-400.7 -812.4 L-399.7 -812.4 L-398.7 -812.3 L-397.7 -812.3 L-396.8 -812.3 L-395.8 -812.3 L-394.8 -812.3 L-393.8 -812.3 L-392.8 -812.3 L-391.9 -812.2 L-390.9 -812.2 L-389.9 -812.2 L-388.9 -812.2 L-387.9 -812.2 Z " />
<path stroke="rgb(0,0,0)" stroke-opacity="1" fill="rgb(255,255,255)" fill-opacity="1" d="M322.8 -203.2 L323 -201.4 L323.1 -199.6 L323 -197.8 L322.7 -195.9 L322.3 -194.1 L321.8 -192.4 L321.1 -190.7 L320.3 -189 L319.4 -187.5 L318.3 -186 L317.2 -184.5 L315.9 -183.2 L314.5 -182 L313 -180.9 L311.5 -180 L309.9 -179.1 L308.2 -178.4 L306.4 -177.8 L304.7 -177.4 L302.9 -177.1 L301 -176.9 L299.2 -176.9 L297.4 -177.1 L295.6 -177.3 L293.8 -177.8 L292 -178.3 L290.3 -179 L288.7 -179.9 L287.1 -180.8 L285.7 -181.9 L284.3 -183.1 L283 -184.4 L281.8 -185.8 L280.7 -187.3 L279.8 -188.9 L279 -190.5 L278.3 -192.2 L277.8 -194 L277.4 -195.8 L277.1 -197.6 L277 -199.4 L277 -201.3 L277.2 -203.1 L277.5 -204.9 L278 -206.7 L278.6 -208.4 L279.3 -210.1 L280.2 -211.7 L281.2 -213.2 L282.3 -214.7 L283.5 -216 L284.8 -217.3 L286.3 -218.5 L287.8 -219.5 L289.4 -220.4 L291 -221.2 L292.7 -221.8 L294.5 -222.3 L296.3 -222.7 L298.1 -222.9 L299.9 -223 L301.8 -222.9 L303.6 -222.7 L305.4 -222.4 L307.2 -221.9 L308.9 -221.2 L310.5 -220.5 L312.1 -219.6 L313.7 -218.6 L315.1 -217.4 L316.4 -216.2 L317.7 -214.8 L318.8 -213.4 L319.8 -211.8 L320.7 -210.2 L321.4 -208.5 L322 -206.8 L322.5 -205 L322.8 -203.2 Z " />
<path stroke="rgb(0,0,0)" stroke-opacity="1" fill="rgb(255,255,255)" fill-opacity="1" d="M-889.7 -713.9 L-889.7 -712.9 L-889.8 -712 L-889.8 -711 L-889.9 -710 L-889.9 -709 L-890 -708.1 L-890 -707.1 L-890.1 -706.1 L-890.1 -705.1 L-890.2 -704.1 L-890.2 -703.2 L-890.3 -702.2 L-890.3 -701.2 L-890.4 -700.2 L-890.4 -699.2 L-890.5 -698.3 L-890.5 -697.3 L-890.5 -696.3 L-890.6 -695.3 L-890.6 -694.4 L-890.7 -693.4 L-890.7 -692.4 L-890.8 -691.4 L-890.8 -690.4 L-890.9 -689.5 L-891.9 -689.5 L-892.8 -689.6 L-893.8 -689.6 L-894.8 -689.6 L-895.8 -689.7 L-896.7 -689.7 L-897.7 -689.8 L-898.7 -689.8 L-899.7 -689.9 L-900.7 -689.9 L-901.6 -690 L-902.6 -690 L-903.6 -690.1 L-904.6 -690.1 L-905.6 -690.2 L-906.5 -690.2 L-907.5 -690.3 L-908.5 -690.3 L-909.5 -690.4 L-910.5 -690.4 L-911.4 -690.4 L-912.4 -690.5 L-913.4 -690.5 L-914.4 -690.6 L-915.3 -690.6 L-915.3 -691.6 L-915.2 -692.6 L-915.2 -693.6 L-915.2 -694.5 L-915.1 -695.5 L-915.1 -696.5 L-915 -697.5 L-915 -698.5 L-914.9 -699.4 L-914.9 -700.4 L-914.8 -701.4 L-914.8 -702.4 L-914.7 -703.4 L-914.7 -704.3 L-914.6 -705.3 L-914.6 -706.3 L-914.5 -707.3 L-914.5 -708.3 L-914.4 -709.2 L-914.4 -710.2 L-914.4 -711.2 L-914.3 -712.2 L-914.3 -713.1 L-914.2 -714.1 L-914.2 -715.1 L-913.2 -715.1 L-912.2 -715 L-911.2 -715 L-910.3 -714.9 L-909.3 -714.9 L-908.3 -714.8 L-907.3 -714.8 L-906.3 -714.7 L-905.4 -714.7 L-904.4 -714.6 L-903.4 -714.6 L-902.4 -714.5 L-901.4 -714.5 L-900.5 -714.4 L-899.5 -714.4 L-898.5 -714.3 L-897.5 -714.3 L-896.5 -714.3 L-895.6 -714.2 L-894.6 -714.2 L-893.6 -714.1 L-892.6 -714.1 L-891.7 -714 L-890.7 -714 L-889.7 -713.9 Z " />
<path stroke="rgb(0,0,0)" stroke-opacity="1" fill="rgb(255,255,255)" fill-opacity="1" d="M-198.8 -112.5 L-197.8 -112.4 L-196.8 -112.2 L-195.8 -111.9 L-194.9 -111.5 L-194 -111.1 L-193.1 -110.6 L-192.3 -110.1 L-191.5 -109.5 L-190.7 -108.8 L-190.1 -108 L-189.4 -107.2 L-188.9 -106.4 L-188.4 -105.5 L-188 -104.6 L-187.6 -103.7 L-187.4 -102.7 L-187.2 -101.7 L-187.1 -100.7 L-187 -99.7 L-187.1 -98.69 L-187.2 -97.7 L-187.4 -96.71 L-187.7 -95.75 L-188.1 -94.81 L-188.5 -93.9 L-189 -93.04 L-189.6 -92.21 L-190.2 -91.43 L-190.9 -90.71 L-191.7 -90.04 L-192.5 -89.44 L-193.4 -88.9 L-194.2 -88.43 L-195.2 -88.03 L-196.1 -87.71 L-197.1 -87.46 L-198.1 -87.29 L-199.1 -87.2 L-200.1 -87.2 L-201.1 -87.27 L-202.1 -87.42 L-203.1 -87.65 L-204 -87.95 L-205 -88.34 L-205.9 -88.79 L-206.7 -89.31 L-207.5 -89.91 L-208.3 -90.56 L-209 -91.27 L-209.7 -92.04 L-210.2 -92.85 L-210.8 -93.71 L-211.2 -94.61 L-211.6 -95.54 L-211.9 -96.5 L-212.1 -97.48 L-212.3 -98.48 L-212.3 -99.48 L-212.3 -100.5 L-212.2 -101.5 L-212.1 -102.5 L-211.8 -103.5 L-211.5 -104.4 L-211.1 -105.3 L-210.6 -106.2 L-210.1 -107.1 L-209.5 -107.9 L-208.8 -108.6 L-208.1 -109.3 L-207.3 -110 L-206.5 -110.5 L-205.6 -111 L-204.7 -111.5 L-203.8 -111.8 L-202.8 -112.1 L-201.8 -112.3 L-200.8 -112.4 L-199.8 -112.5 L-198.8 -112.5 Z " />
<path stroke="rgb(0,0,0)" stroke-opacity="1" fill="rgb(255,255,255)" fill-opacity="1" d="M-688 -712.3 L-688.1 -711.3 L-688.1 -710.3 L-688.1 -709.4 L-688.1 -708.4 L-688.1 -707.4 L-688.1 -706.4 L-688.2 -705.4 L-688.2 -704.5 L-688.2 -703.5 L-688.2 -702.5 L-688.2 -701.5 L-688.2 -700.5 L-688.3 -699.6 L-688.3 -698.6 L-688.3 -697.6 L-688.3 -696.6 L-688.3 -695.6 L-688.3 -694.7 L-688.4 -693.7 L-688.4 -692.7 L-688.4 -691.7 L-688.4 -690.7 L-688.4 -689.8 L-688.4 -688.8 L-688.4 -687.8 L-689.4 -687.8 L-690.4 -687.8 L-691.4 -687.9 L-692.4 -687.9 L-693.3 -687.9 L-694.3 -687.9 L-695.3 -687.9 L-696.3 -687.9 L-697.3 -688 L-698.2 -688 L-699.2 -688 L-700.2 -688 L-701.2 -688 L-702.2 -688 L-703.1 -688 L-704.1 -688.1 L-705.1 -688.1 L-706.1 -688.1 L-707.1 -688.1 L-708 -688.1 L-709 -688.1 L-710 -688.2 L-711 -688.2 L-712 -688.2 L-712.9 -688.2 L-712.9 -689.2 L-712.9 -690.2 L-712.9 -691.1 L-712.9 -692.1 L-712.9 -693.1 L-712.8 -694.1 L-712.8 -695.1 L-712.8 -696 L-712.8 -697 L-712.8 -698 L-712.8 -699 L-712.8 -700 L-712.7 -700.9 L-712.7 -701.9 L-712.7 -702.9 L-712.7 -703.9 L-712.7 -704.9 L-712.7 -705.8 L-712.6 -706.8 L-712.6 -707.8 L-712.6 -708.8 L-712.6 -709.8 L-712.6 -710.7 L-712.6 -711.7 L-712.5 -712.7 L-711.6 -712.7 L-710.6 -712.7 L-709.6 -712.7 L-708.6 -712.6 L-707.6 -712.6 L-706.7 -712.6 L-705.7 -712.6 L-704.7 -712.6 L-703.7 -712.6 L-702.7 -712.5 L-701.8 -712.5 L-700.8 -712.5 L-699.8 -712.5 L-698.8 -712.5 L-697.8 -712.5 L-696.9 -712.4 L-695.9 -712.4 L-694.9 -712.4 L-693.9 -712.4 L-692.9 -712.4 L-692 -712.4 L-691 -712.3 L-690 -712.3 L-689 -712.3 L-688 -712.3 Z " />
<path stroke="rgb(0,0,0)" stroke-opacity="1" fill="rgb(255,255,255)" fill-opacity="1" d="M9.545 -113 L10.56 -112.2 L11.51 -111.3 L12.38 -110.4 L13.18 -109.4 L13.9 -108.3 L14.53 -107.2 L15.07 -106 L15.52 -104.8 L15.87 -103.6 L16.12 -102.4 L16.27 -101.1 L16.32 -99.8 L16.26 -98.52 L16.11 -97.25 L15.85 -95.99 L15.49 -94.76 L15.04 -93.56 L14.5 -92.4 L13.86 -91.29 L13.14 -90.23 L12.33 -89.23 L11.45 -88.3 L10.5 -87.44 L9.484 -86.66 L8.407 -85.96 L7.279 -85.36 L6.107 -84.84 L4.896 -84.42 L3.656 -84.09 L2.395 -83.87 L1.119 -83.74 L-0.1625 -83.72 L-1.442 -83.8 L-2.711 -83.98 L-3.961 -84.26 L-5.186 -84.64 L-6.376 -85.12 L-7.525 -85.68 L-8.624 -86.34 L-9.669 -87.09 L-10.65 -87.91 L-11.56 -88.81 L-12.4 -89.78 L-13.16 -90.81 L-13.84 -91.9 L-14.42 -93.04 L-14.92 -94.22 L-15.31 -95.44 L-15.61 -96.69 L-15.81 -97.95 L-15.91 -99.23 L-15.91 -100.5 L-15.81 -101.8 L-15.6 -103.1 L-15.29 -104.3 L-14.89 -105.5 L-14.39 -106.7 L-13.8 -107.8 L-13.12 -108.9 L-12.36 -110 L-11.51 -110.9 L-10.59 -111.8 L-9.609 -112.6 L-8.561 -113.4 L-7.458 -114 L-6.307 -114.6 L-5.114 -115.1 L-3.888 -115.4 L-2.637 -115.7 L-1.367 -115.9 L-0.08718 -116 L1.194 -115.9 L2.469 -115.8 L3.73 -115.6 L4.968 -115.2 L6.177 -114.8 L7.347 -114.3 L8.472 -113.7 L9.545 -113 Z " />
<path stroke="rgb(0,0,0)" stroke-opacity="1" fill="rgb(255,255,255)" fill-opacity="1" d="M-487.9 -712.2 L-488 -711.2 L-488 -710.2 L-488 -709.2 L-488 -708.3 L-488 -707.3 L-488 -706.3 L-488 -705.3 L-488 -704.4 L-488.1 -703.4 L-488.1 -702.4 L-488.1 -701.4 L-488.1 -700.4 L-488.1 -699.5 L-488.1 -698.5 L-488.1 -697.5 L-488.2 -696.5 L-488.2 -695.5 L-488.2 -694.6 L-488.2 -693.6 L-488.2 -692.6 L-488.2 -691.6 L-488.2 -690.6 L-488.3 -689.7 L-488.3 -688.7 L-488.3 -687.7 L-489.3 -687.7 L-490.2 -687.7 L-491.2 -687.7 L-492.2 -687.8 L-493.2 -687.8 L-494.2 -687.8 L-495.1 -687.8 L-496.1 -687.8 L-497.1 -687.8 L-498.1 -687.8 L-499.1 -687.8 L-500 -687.9 L-501 -687.9 L-502 -687.9 L-503 -687.9 L-504 -687.9 L-504.9 -687.9 L-505.9 -687.9 L-506.9 -688 L-507.9 -688 L-508.9 -688 L-509.8 -688 L-510.8 -688 L-511.8 -688 L-512.8 -688 L-512.8 -689 L-512.7 -690 L-512.7 -691 L-512.7 -692 L-512.7 -692.9 L-512.7 -693.9 L-512.7 -694.9 L-512.7 -695.9 L-512.7 -696.9 L-512.6 -697.8 L-512.6 -698.8 L-512.6 -699.8 L-512.6 -700.8 L-512.6 -701.8 L-512.6 -702.7 L-512.6 -703.7 L-512.5 -704.7 L-512.5 -705.7 L-512.5 -706.7 L-512.5 -707.6 L-512.5 -708.6 L-512.5 -709.6 L-512.5 -710.6 L-512.4 -711.6 L-512.4 -712.5 L-511.5 -712.5 L-510.5 -712.5 L-509.5 -712.5 L-508.5 -712.5 L-507.5 -712.5 L-506.6 -712.5 L-505.6 -712.4 L-504.6 -712.4 L-503.6 -712.4 L-502.6 -712.4 L-501.7 -712.4 L-500.7 -712.4 L-499.7 -712.4 L-498.7 -712.3 L-497.7 -712.3 L-496.8 -712.3 L-495.8 -712.3 L-494.8 -712.3 L-493.8 -712.3 L-492.8 -712.3 L-491.9 -712.2 L-490.9 -712.2 L-489.9 -712.2 L-488.9 -712.2 L-487.9 -712.2 Z " />
<path stroke="rgb(0,0,0)" stroke-opacity="1" fill="rgb(255,255,255)" fill-opacity="1" d="M222.8 -103.2 L223 -101.4 L223.1 -99.58 L223 -97.75 L222.7 -95.93 L222.3 -94.14 L221.8 -92.39 L221.1 -90.68 L220.3 -89.03 L219.4 -87.46 L218.3 -85.96 L217.2 -84.55 L215.9 -83.23 L214.5 -82.02 L213 -80.93 L211.5 -79.96 L209.9 -79.11 L208.2 -78.39 L206.4 -77.81 L204.7 -77.37 L202.9 -77.08 L201 -76.92 L199.2 -76.92 L197.4 -77.06 L195.6 -77.34 L193.8 -77.77 L192 -78.33 L190.3 -79.04 L188.7 -79.88 L187.1 -80.84 L185.7 -81.92 L184.3 -83.12 L183 -84.43 L181.8 -85.83 L180.7 -87.32 L179.8 -88.89 L179 -90.53 L178.3 -92.24 L177.8 -93.99 L177.4 -95.78 L177.1 -97.59 L177 -99.42 L177 -101.3 L177.2 -103.1 L177.5 -104.9 L178 -106.7 L178.6 -108.4 L179.3 -110.1 L180.2 -111.7 L181.2 -113.2 L182.3 -114.7 L183.5 -116 L184.8 -117.3 L186.3 -118.5 L187.8 -119.5 L189.4 -120.4 L191 -121.2 L192.7 -121.8 L194.5 -122.3 L196.3 -122.7 L198.1 -122.9 L199.9 -123 L201.8 -122.9 L203.6 -122.7 L205.4 -122.4 L207.2 -121.9 L208.9 -121.2 L210.5 -120.5 L212.1 -119.6 L213.7 -118.6 L215.1 -117.4 L216.4 -116.2 L217.7 -114.8 L218.8 -113.4 L219.8 -111.8 L220.7 -110.2 L221.4 -108.5 L222 -106.8 L222.5 -105 L222.8 -103.2 Z " />
<path stroke="rgb(0,0,0)" stroke-opacity="1" fill="rgb(255,255,255)" fill-opacity="1" d="M-287.9 -712.2 L-288 -711.2 L-288 -710.2 L-288 -709.2 L-288 -708.3 L-288 -707.3 L-288 -706.3 L-288 -705.3 L-288 -704.4 L-288.1 -703.4 L-288.1 -702.4 L-288.1 -701.4 L-288.1 -700.4 L-288.1 -699.5 L-288.1 -698.5 L-288.1 -697.5 L-288.2 -696.5 L-288.2 -695.5 L-288.2 -694.6 L-288.2 -693.6 L-288.2 -692.6 L-288.2 -691.6 L-288.2 -690.6 L-288.3 -689.7 L-288.3 -688.7 L-288.3 -687.7 L-289.3 -687.7 L-290.2 -687.7 L-291.2 -687.7 L-292.2 -687.8 L-293.2 -687.8 L-294.2 -687.8 L-295.1 -687.8 L-296.1 -687.8 L-297.1 -687.8 L-298.1 -687.8 L-299.1 -687.8 L-300 -687.9 L-301 -687.9 L-302 -687.9 L-303 -687.9 L-304 -687.9 L-304.9 -687.9 L-305.9 -687.9 L-306.9 -688 L-307.9 -688 L-308.9 -688 L-309.8 -688 L-310.8 -688 L-311.8 -688 L-312.8 -688 L-312.8 -689 L-312.7 -690 L-312.7 -691 L-312.7 -692 L-312.7 -692.9 L-312.7 -693.9 L-312.7 -694.9 L-312.7 -695.9 L-312.7 -696.9 L-312.6 -697.8 L-312.6 -698.8 L-312.6 -699.8 L-312.6 -700.8 L-312.6 -701.8 L-312.6 -702.7 L-312.6 -703.7 L-312.5 -704.7 L-312.5 -705.7 L-312.5 -706.7 L-312.5 -707.6 L-312.5 -708.6 L-312.5 -709.6 L-312.5 -710.6 L-312.4 -711.6 L-312.4 -712.5 L-311.5 -712.5 L-310.5 -712.5 L-309.5 -712.5 L-308.5 -712.5 L-307.5 -712.5 L-306.6 -712.5 L-305.6 -712.4 L-304.6 -712.4 L-303.6 -712.4 L-302.6 -712.4 L-301.7 -712.4 L-300.7 -712.4 L-299.7 -712.4 L-298.7 -712.3 L-297.7 -712.3 L-296.8 -712.3 L-295.8 -712.3 L-294.8 -712.3 L-293.8 -712.3 L-292.8 -712.3 L-291.9 -712.2 L-290.9 -712.2 L-289.9 -712.2 L-288.9 -712.2 L-287.9 -712.2 Z " />
<path stroke="rgb(0,0,0)" stroke-opacity="1" fill="rgb(255,255,255)" fill-opacity="1" d="M-298.8 -12.46 L-297.8 -12.35 L-296.8 -12.16 L-295.8 -11.89 L-294.9 -11.55 L-294 -11.13 L-293.1 -10.64 L-292.3 -10.08 L-291.5 -9.46 L-290.7 -8.776 L-290.1 -8.036 L-289.4 -7.245 L-288.9 -6.406 L-288.4 -5.526 L-288 -4.61 L-287.6 -3.664 L-287.4 -2.693 L-287.2 -1.705 L-287.1 -0.7047 L-287 0.3009 L-287.1 1.306 L-287.2 2.303 L-287.4 3.287 L-287.7 4.251 L-288.1 5.189 L-288.5 6.096 L-289 6.964 L-289.6 7.79 L-290.2 8.568 L-290.9 9.292 L-291.7 9.959 L-292.5 10.56 L-293.4 11.1 L-294.2 11.57 L-295.2 11.97 L-296.1 12.29 L-297.1 12.54 L-298.1 12.71 L-299.1 12.8 L-300.1 12.8 L-301.1 12.73 L-302.1 12.58 L-303.1 12.35 L-304 12.05 L-305 11.66 L-305.9 11.21 L-306.7 10.69 L-307.5 10.09 L-308.3 9.441 L-309 8.729 L-309.7 7.962 L-310.2 7.146 L-310.8 6.286 L-311.2 5.387 L-311.6 4.456 L-311.9 3.497 L-312.1 2.516 L-312.3 1.521 L-312.3 0.5177 L-312.3 -0.4883 L-312.2 -1.49 L-312.1 -2.482 L-311.8 -3.456 L-311.5 -4.408 L-311.1 -5.331 L-310.6 -6.22 L-310.1 -7.068 L-309.5 -7.87 L-308.8 -8.622 L-308.1 -9.318 L-307.3 -9.954 L-306.5 -10.53 L-305.6 -11.03 L-304.7 -11.46 L-303.8 -11.83 L-302.8 -12.11 L-301.8 -12.32 L-300.8 -12.45 L-299.8 -12.49 L-298.8 -12.46 Z " />
<path stroke="rgb(0,0,0)" stroke-opacity="1" fill="rgb(255,255,255)" fill-opacity="1" d="M-788 -612.3 L-788.1 -611.3 L-788.1 -610.3 L-788.1 -609.4 L-788.1 -608.4 L-788.1 -607.4 L-788.1 -606.4 L-788.2 -605.4 L-788.2 -604.5 L-788.2 -603.5 L-788.2 -602.5 L-788.2 -601.5 L-788.2 -600.5 L-788.3 -599.6 L-788.3 -598.6 L-788.3 -597.6 L-788.3 -596.6 L-788.3 -595.6 L-788.3 -594.7 L-788.4 -593.7 L-788.4 -592.7 L-788.4 -591.7 L-788.4 -590.7 L-788.4 -589.8 L-788.4 -588.8 L-788.4 -587.8 L-789.4 -587.8 L-790.4 -587.8 L-791.4 -587.9 L-792.4 -587.9 L-793.3 -587.9 L-794.3 -587.9 L-795.3 -587.9 L-796.3 -587.9 L-797.3 -588 L-798.2 -588 L-799.2 -588 L-800.2 -588 L-801.2 -588 L-802.2 -588 L-803.1 -588 L-804.1 -588.1 L-805.1 -588.1 L-806.1 -588.1 L-807.1 -588.1 L-808 -588.1 L-809 -588.1 L-810 -588.2 L-811 -588.2 L-812 -588.2 L-812.9 -588.2 L-812.9 -589.2 L-812.9 -590.2 L-812.9 -591.1 L-812.9 -592.1 L-812.9 -593.1 L-812.8 -594.1 L-812.8 -595.1 L-812.8 -596 L-812.8 -597 L-812.8 -598 L-812.8 -599 L-812.8 -600 L-812.7 -600.9 L-812.7 -601.9 L-812.7 -602.9 L-812.7 -603.9 L-812.7 -604.9 L-812.7 -605.8 L-812.6 -606.8 L-812.6 -607.8 L-812.6 -608.8 L-812.6 -609.8 L-812.6 -610.7 L-812.6 -611.7 L-812.5 -612.7 L-811.6 -612.7 L-810.6 -612.7 L-809.6 -612.7 L-808.6 -612.6 L-807.6 -612.6 L-806.7 -612.6 L-805.7 -612.6 L-804.7 -612.6 L-803.7 -612.6 L-802.7 -612.5 L-801.8 -612.5 L-800.8 -612.5 L-799.8 -612.5 L-798.8 -612.5 L-797.8 -612.5 L-796.9 -612.4 L-795.9 -612.4 L-794.9 -612.4 L-793.9 -612.4 L-792.9 -612.4 L-792 -612.4 L-791 -612.3 L-790 -612.3 L-789 -612.3 L-788 -612.3 Z " />
<path stroke="rgb(0,0,0)" stroke-opacity="1" fill="rgb(255,255,255)" fill-opacity="1" d="M-90.45 -12.97 L-89.44 -12.18 L-88.49 -11.32 L-87.62 -10.39 L-86.82 -9.384 L-86.1 -8.322 L-85.47 -7.206 L-84.93 -6.044 L-84.48 -4.842 L-84.13 -3.609 L-83.88 -2.352 L-83.73 -1.079 L-83.68 0.2018 L-83.74 1.482 L-83.89 2.755 L-84.15 4.011 L-84.51 5.242 L-84.96 6.442 L-85.5 7.601 L-86.14 8.714 L-86.86 9.773 L-87.67 10.77 L-88.55 11.7 L-89.5 12.56 L-90.52 13.34 L-91.59 14.04 L-92.72 14.64 L-93.89 15.16 L-95.1 15.58 L-96.34 15.91 L-97.61 16.13 L-98.88 16.26 L-100.2 16.28 L-101.4 16.2 L-102.7 16.02 L-104 15.74 L-105.2 15.36 L-106.4 14.88 L-107.5 14.32 L-108.6 13.66 L-109.7 12.91 L-110.7 12.09 L-111.6 11.19 L-112.4 10.22 L-113.2 9.188 L-113.8 8.099 L-114.4 6.959 L-114.9 5.776 L-115.3 4.557 L-115.6 3.311 L-115.8 2.045 L-115.9 0.7674 L-115.9 -0.5144 L-115.8 -1.792 L-115.6 -3.057 L-115.3 -4.302 L-114.9 -5.518 L-114.4 -6.699 L-113.8 -7.836 L-113.1 -8.922 L-112.4 -9.952 L-111.5 -10.92 L-110.6 -11.81 L-109.6 -12.63 L-108.6 -13.37 L-107.5 -14.02 L-106.3 -14.59 L-105.1 -15.06 L-103.9 -15.43 L-102.6 -15.7 L-101.4 -15.88 L-100.1 -15.95 L-98.81 -15.92 L-97.53 -15.79 L-96.27 -15.56 L-95.03 -15.23 L-93.82 -14.81 L-92.65 -14.28 L-91.53 -13.67 L-90.45 -12.97 Z " />
<path stroke="rgb(0,0,0)" stroke-opacity="1" fill="rgb(255,255,255)" fill-opacity="1" d="M-587.9 -612.2 L-588 -611.2 L-588 -610.2 L-588 -609.2 L-588 -608.3 L-588 -607.3 L-588 -606.3 L-588 -605.3 L-588 -604.4 L-588.1 -603.4 L-588.1 -602.4 L-588.1 -601.4 L-588.1 -600.4 L-588.1 -599.5 L-588.1 -598.5 L-588.1 -597.5 L-588.2 -596.5 L-588.2 -595.5 L-588.2 -594.6 L-588.2 -593.6 L-588.2 -592.6 L-588.2 -591.6 L-588.2 -590.6 L-588.3 -589.7 L-588.3 -588.7 L-588.3 -587.7 L-589.3 -587.7 L-590.2 -587.7 L-591.2 -587.7 L-592.2 -587.8 L-593.2 -587.8 L-594.2 -587.8 L-595.1 -587.8 L-596.1 -587.8 L-597.1 -587.8 L-598.1 -587.8 L-599.1 -587.8 L-600 -587.9 L-601 -587.9 L-602 -587.9 L-603 -587.9 L-604 -587.9 L-604.9 -587.9 L-605.9 -587.9 L-606.9 -588 L-607.9 -588 L-608.9 -588 L-609.8 -588 L-610.8 -588 L-611.8 -588 L-612.8 -588 L-612.8 -589 L-612.7 -590 L-612.7 -591 L-612.7 -592 L-612.7 -592.9 L-612.7 -593.9 L-612.7 -594.9 L-612.7 -595.9 L-612.7 -596.9 L-612.6 -597.8 L-612.6 -598.8 L-612.6 -599.8 L-612.6 -600.8 L-612.6 -601.8 L-612.6 -602.7 L-612.6 -603.7 L-612.5 -604.7 L-612.5 -605.7 L-612.5 -606.7 L-612.5 -607.6 L-612.5 -608.6 L-612.5 -609.6 L-612.5 -610.6 L-612.4 -611.6 L-612.4 -612.5 L-611.5 -612.5 L-610.5 -612.5 L-609.5 -612.5 L-608.5 -612.5 L-607.5 -612.5 L-606.6 -612.5 L-605.6 -612.4 L-604.6 -612.4 L-603.6 -612.4 L-602.6 -612.4 L-601.7 -612.4 L-600.7 -612.4 L-599.7 -612.4 L-598.7 -612.3 L-597.7 -612.3 L-596.8 -612.3 L-595.8 -612.3 L-594.8 -612.3 L-593.8 -612.3 L-592.8 -612.3 L-591.9 -612.2 L-590.9 -612.2 L-589.9 -612.2 L-588.9 -612.2 L-587.9 -612.2 Z " />
<path stroke="rgb(0,0,0)" stroke-opacity="1" fill="rgb(255,255,255)" fill-opacity="1" d="M122.8 -3.238 L123 -1.414 L123.1 0.4186 L123 2.249 L122.7 4.066 L122.3 5.857 L121.8 7.611 L121.1 9.317 L120.3 10.97 L119.4 12.54 L118.3 14.04 L117.2 15.45 L115.9 16.77 L114.5 17.98 L113 19.07 L111.5 20.04 L109.9 20.89 L108.2 21.61 L106.4 22.19 L104.7 22.63 L102.9 22.92 L101 23.08 L99.19 23.08 L97.36 22.94 L95.55 22.66 L93.77 22.23 L92.03 21.67 L90.33 20.96 L88.7 20.12 L87.14 19.16 L85.66 18.08 L84.28 16.88 L82.99 15.57 L81.81 14.17 L80.74 12.68 L79.8 11.11 L78.98 9.465 L78.3 7.763 L77.76 6.013 L77.35 4.225 L77.09 2.41 L76.98 0.5802 L77.01 -1.253 L77.18 -3.078 L77.5 -4.883 L77.96 -6.657 L78.57 -8.389 L79.3 -10.07 L80.17 -11.68 L81.17 -13.22 L82.28 -14.68 L83.51 -16.04 L84.84 -17.3 L86.26 -18.46 L87.77 -19.49 L89.37 -20.4 L91.02 -21.19 L92.74 -21.83 L94.5 -22.34 L96.3 -22.71 L98.11 -22.94 L99.95 -23.02 L101.8 -22.95 L103.6 -22.74 L105.4 -22.38 L107.2 -21.88 L108.9 -21.25 L110.5 -20.48 L112.1 -19.58 L113.7 -18.55 L115.1 -17.41 L116.4 -16.16 L117.7 -14.8 L118.8 -13.35 L119.8 -11.82 L120.7 -10.21 L121.4 -8.539 L122 -6.812 L122.5 -5.041 L122.8 -3.238 Z " />
<path stroke="rgb(0,0,0)" stroke-opacity="1" fill="rgb(255,255,255)" fill-opacity="1" d="M-387.9 -612.2 L-388 -611.2 L-388 -610.2 L-388 -609.2 L-388 -608.3 L-388 -607.3 L-388 -606.3 L-388 -605.3 L-388 -604.4 L-388.1 -603.4 L-388.1 -602.4 L-388.1 -601.4 L-388.1 -600.4 L-388.1 -599.5 L-388.1 -598.5 L-388.1 -597.5 L-388.2 -596.5 L-388.2 -595.5 L-388.2 -594.6 L-388.2 -593.6 L-388.2 -592.6 L-388.2 -591.6 L-388.2 -590.6 L-388.3 -589.7 L-388.3 -588.7 L-388.3 -587.7 L-389.3 -587.7 L-390.2 -587.7 L-391.2 -587.7 L-392.2 -587.8 L-393.2 -587.8 L-394.2 -587.8 L-395.1 -587.8 L-396.1 -587.8 L-397.1 -587.8 L-398.1 -587.8 L-399.1 -587.8 L-400 -587.9 L-401 -587.9 L-402 -587.9 L-403 -587.9 L-404 -587.9 L-404.9 -587.9 L-405.9 -587.9 L-406.9 -588 L-407.9 -588 L-408.9 -588 L-409.8 -588 L-410.8 -588 L-411.8 -588 L-412.8 -588 L-412.8 -589 L-412.7 -590 L-412.7 -591 L-412.7 -592 L-412.7 -592.9 L-412.7 -593.9 L-412.7 -594.9 L-412.7 -595.9 L-412.7 -596.9 L-412.6 -597.8 L-412.6 -598.8 L-412.6 -599.8 L-412.6 -600.8 L-412.6 -601.8 L-412.6 -602.7 L-412.6 -603.7 L-412.5 -604.7 L-412.5 -605.7 L-412.5 -606.7 L-412.5 -607.6 L-412.5 -608.6 L-412.5 -609.6 L-412.5 -610.6 L-412.4 -611.6 L-412.4 -612.5 L-411.5 -612.5 L-410.5 -612.5 L-409.5 -612.5 L-408.5 -612.5 L-407.5 -612.5 L-406.6 -612.5 L-405.6 -612.4 L-404.6 -612.4 L-403.6 -612.4 L-402.6 -612.4 L-401.7 -612.4 L-400.7 -612.4 L-399.7 -612.4 L-398.7 -612.3 L-397.7 -612.3 L-396.8 -612.3 L-395.8 -612.3 L-394.8 -612.3 L-393.8 -612.3 L-392.8 -612.3 L-391.9 -612.2 L-390.9 -612.2 L-389.9 -612.2 L-388.9 -612.2 L-387.9 -612.2 Z " />
<path stroke="rgb(0,0,0)" stroke-opacity="1" fill="rgb(255,255,255)" fill-opacity="1" d="M324.7 0.3084 L324.6 2.269 L324.3 4.216 L323.9 6.136 L323.4 8.017 L322.7 9.847 L321.8 11.62 L320.8 13.31 L319.7 14.92 L318.4 16.44 L317.1 17.85 L315.6 19.15 L314 20.33 L312.4 21.38 L310.6 22.29 L308.8 23.06 L307 23.69 L305.1 24.17 L303.1 24.5 L301.2 24.67 L299.2 24.68 L297.2 24.54 L295.3 24.24 L293.4 23.79 L291.5 23.19 L289.7 22.44 L288 21.55 L286.3 20.53 L284.7 19.37 L283.2 18.09 L281.8 16.7 L280.5 15.2 L279.4 13.61 L278.4 11.93 L277.5 10.17 L276.8 8.354 L276.2 6.482 L275.7 4.568 L275.4 2.625 L275.3 0.6659 L275.3 -1.298 L275.5 -3.253 L275.9 -5.188 L276.3 -7.09 L277 -8.947 L277.8 -10.75 L278.7 -12.48 L279.7 -14.13 L280.9 -15.7 L282.2 -17.16 L283.7 -18.52 L285.2 -19.76 L286.8 -20.88 L288.5 -21.86 L290.3 -22.7 L292.1 -23.4 L294 -23.96 L295.9 -24.36 L297.9 -24.61 L299.8 -24.7 L301.8 -24.64 L303.7 -24.42 L305.7 -24.04 L307.6 -23.52 L309.4 -22.84 L311.2 -22.02 L312.9 -21.06 L314.5 -19.97 L316.1 -18.76 L317.5 -17.42 L318.8 -15.97 L320.1 -14.43 L321.1 -12.79 L322.1 -11.07 L322.9 -9.28 L323.6 -7.432 L324.1 -5.537 L324.4 -3.607 L324.6 -1.655 L324.7 0.3084 Z " />
<path stroke="rgb(0,0,0)" stroke-opacity="1" fill="rgb(255,255,255)" fill-opacity="1" d="M-888 -512.3 L-888.1 -511.3 L-888.1 -510.3 L-888.1 -509.4 L-888.1 -508.4 L-888.1 -507.4 L-888.1 -506.4 L-888.2 -505.4 L-888.2 -504.5 L-888.2 -503.5 L-888.2 -502.5 L-888.2 -501.5 L-888.2 -500.5 L-888.3 -499.6 L-888.3 -498.6 L-888.3 -497.6 L-888.3 -496.6 L-888.3 -495.6 L-888.3 -494.7 L-888.4 -493.7 L-888.4 -492.7 L-888.4 -491.7 L-888.4 -490.7 L-888.4 -489.8 L-888.4 -488.8 L-888.4 -487.8 L-889.4 -487.8 L-890.4 -487.8 L-891.4 -487.9 L-892.4 -487.9 L-893.3 -487.9 L-894.3 -487.9 L-895.3 -487.9 L-896.3 -487.9 L-897.3 -488 L-898.2 -488 L-899.2 -488 L-900.2 -488 L-901.2 -488 L-902.2 -488 L-903.1 -488 L-904.1 -488.1 L-905.1 -488.1 L-906.1 -488.1 L-907.1 -488.1 L-908 -488.1 L-909 -488.1 L-910 -488.2 L-911 -488.2 L-912 -488.2 L-912.9 -488.2 L-912.9 -489.2 L-912.9 -490.2 L-912.9 -491.1 L-912.9 -492.1 L-912.9 -493.1 L-912.8 -494.1 L-912.8 -495.1 L-912.8 -496 L-912.8 -497 L-912.8 -498 L-912.8 -499 L-912.8 -500 L-912.7 -500.9 L-912.7 -501.9 L-912.7 -502.9 L-912.7 -503.9 L-912.7 -504.9 L-912.7 -505.8 L-912.6 -506.8 L-912.6 -507.8 L-912.6 -508.8 L-912.6 -509.8 L-912.6 -510.7 L-912.6 -511.7 L-912.5 -512.7 L-911.6 -512.7 L-910.6 -512.7 L-909.6 -512.7 L-908.6 -512.6 L-907.6 -512.6 L-906.7 -512.6 L-905.7 -512.6 L-904.7 -512.6 L-903.7 -512.6 L-902.7 -512.5 L-901.8 -512.5 L-900.8 -512.5 L-899.8 -512.5 L-898.8 -512.5 L-897.8 -512.5 L-896.9 -512.4 L-895.9 -512.4 L-894.9 -512.4 L-893.9 -512.4 L-892.9 -512.4 L-892 -512.4 L-891 -512.3 L-890 -512.3 L-889 -512.3 L-888 -512.3 Z " />
<path stroke="rgb(0,0,0)" stroke-opacity="1" fill="rgb(255,255,255)" fill-opacity="1" d="M-190.5 87.03 L-189.4 87.82 L-188.5 88.68 L-187.6 89.61 L-186.8 90.62 L-186.1 91.68 L-185.5 92.79 L-184.9 93.96 L-184.5 95.16 L-184.1 96.39 L-183.9 97.65 L-183.7 98.92 L-183.7 100.2 L-183.7 101.5 L-183.9 102.8 L-184.2 104 L-184.5 105.2 L-185 106.4 L-185.5 107.6 L-186.1 108.7 L-186.9 109.8 L-187.7 110.8 L-188.5 111.7 L-189.5 112.6 L-190.5 113.3 L-191.6 114 L-192.7 114.6 L-193.9 115.2 L-195.1 115.6 L-196.3 115.9 L-197.6 116.1 L-198.9 116.3 L-200.2 116.3 L-201.4 116.2 L-202.7 116 L-204 115.7 L-205.2 115.4 L-206.4 114.9 L-207.5 114.3 L-208.6 113.7 L-209.7 112.9 L-210.7 112.1 L-211.6 111.2 L-212.4 110.2 L-213.2 109.2 L-213.8 108.1 L-214.4 107 L-214.9 105.8 L-215.3 104.6 L-215.6 103.3 L-215.8 102 L-215.9 100.8 L-215.9 99.49 L-215.8 98.21 L-215.6 96.94 L-215.3 95.7 L-214.9 94.48 L-214.4 93.3 L-213.8 92.16 L-213.1 91.08 L-212.4 90.05 L-211.5 89.08 L-210.6 88.19 L-209.6 87.37 L-208.6 86.63 L-207.5 85.98 L-206.3 85.41 L-205.1 84.94 L-203.9 84.57 L-202.6 84.3 L-201.4 84.12 L-200.1 84.05 L-198.8 84.08 L-197.5 84.21 L-196.3 84.44 L-195 84.77 L-193.8 85.19 L-192.7 85.72 L-191.5 86.33 L-190.5 87.03 Z " />
<path stroke="rgb(0,0,0)" stroke-opacity="1" fill="rgb(255,255,255)" fill-opacity="1" d="M-687.9 -512.2 L-688 -511.2 L-688 -510.2 L-688 -509.2 L-688 -508.3 L-688 -507.3 L-688 -506.3 L-688 -505.3 L-688 -504.4 L-688.1 -503.4 L-688.1 -502.4 L-688.1 -501.4 L-688.1 -500.4 L-688.1 -499.5 L-688.1 -498.5 L-688.1 -497.5 L-688.2 -496.5 L-688.2 -495.5 L-688.2 -494.6 L-688.2 -493.6 L-688.2 -492.6 L-688.2 -491.6 L-688.2 -490.6 L-688.3 -489.7 L-688.3 -488.7 L-688.3 -487.7 L-689.3 -487.7 L-690.2 -487.7 L-691.2 -487.7 L-692.2 -487.8 L-693.2 -487.8 L-694.2 -487.8 L-695.1 -487.8 L-696.1 -487.8 L-697.1 -487.8 L-698.1 -487.8 L-699.1 -487.8 L-700 -487.9 L-701 -487.9 L-702 -487.9 L-703 -487.9 L-704 -487.9 L-704.9 -487.9 L-705.9 -487.9 L-706.9 -488 L-707.9 -488 L-708.9 -488 L-709.8 -488 L-710.8 -488 L-711.8 -488 L-712.8 -488 L-712.8 -489 L-712.7 -490 L-712.7 -491 L-712.7 -492 L-712.7 -492.9 L-712.7 -493.9 L-712.7 -494.9 L-712.7 -495.9 L-712.7 -496.9 L-712.6 -497.8 L-712.6 -498.8 L-712.6 -499.8 L-712.6 -500.8 L-712.6 -501.8 L-712.6 -502.7 L-712.6 -503.7 L-712.5 -504.7 L-712.5 -505.7 L-712.5 -506.7 L-712.5 -507.6 L-712.5 -508.6 L-712.5 -509.6 L-712.5 -510.6 L-712.4 -511.6 L-712.4 -512.5 L-711.5 -512.5 L-710.5 -512.5 L-709.5 -512.5 L-708.5 -512.5 L-707.5 -512.5 L-706.6 -512.5 L-705.6 -512.4 L-704.6 -512.4 L-703.6 -512.4 L-702.6 -512.4 L-701.7 -512.4 L-700.7 -512.4 L-699.7 -512.4 L-698.7 -512.3 L-697.7 -512.3 L-696.8 -512.3 L-695.8 -512.3 L-694.8 -512.3 L-693.8 -512.3 L-692.8 -512.3 L-691.9 -512.2 L-690.9 -512.2 L-689.9 -512.2 L-688.9 -512.2 L-687.9 -512.2 Z " />
<path stroke="rgb(0,0,0)" stroke-opacity="1" fill="rgb(255,255,255)" fill-opacity="1" d="M22.85 96.76 L23.04 98.59 L23.08 100.4 L22.98 102.2 L22.73 104.1 L22.34 105.9 L21.81 107.6 L21.14 109.3 L20.33 111 L19.4 112.5 L18.35 114 L17.18 115.5 L15.9 116.8 L14.52 118 L13.05 119.1 L11.49 120 L9.868 120.9 L8.18 121.6 L6.441 122.2 L4.661 122.6 L2.852 122.9 L1.025 123.1 L-0.8087 123.1 L-2.637 122.9 L-4.448 122.7 L-6.231 122.2 L-7.974 121.7 L-9.667 121 L-11.3 120.1 L-12.86 119.2 L-14.34 118.1 L-15.72 116.9 L-17.01 115.6 L-18.19 114.2 L-19.26 112.7 L-20.2 111.1 L-21.02 109.5 L-21.7 107.8 L-22.24 106 L-22.65 104.2 L-22.91 102.4 L-23.02 100.6 L-22.99 98.75 L-22.82 96.92 L-22.5 95.12 L-22.04 93.34 L-21.43 91.61 L-20.7 89.93 L-19.83 88.32 L-18.83 86.78 L-17.72 85.32 L-16.49 83.96 L-15.16 82.7 L-13.74 81.54 L-12.23 80.51 L-10.63 79.6 L-8.977 78.81 L-7.262 78.17 L-5.501 77.66 L-3.705 77.29 L-1.885 77.06 L-0.05363 76.98 L1.778 77.05 L3.6 77.26 L5.398 77.62 L7.163 78.12 L8.882 78.75 L10.55 79.52 L12.14 80.42 L13.66 81.45 L15.1 82.59 L16.44 83.84 L17.67 85.2 L18.79 86.65 L19.8 88.18 L20.68 89.79 L21.43 91.46 L22.04 93.19 L22.52 94.96 L22.85 96.76 Z " />
<path stroke="rgb(0,0,0)" stroke-opacity="1" fill="rgb(255,255,255)" fill-opacity="1" d="M-487.9 -512.2 L-488 -511.2 L-488 -510.2 L-488 -509.2 L-488 -508.3 L-488 -507.3 L-488 -506.3 L-488 -505.3 L-488 -504.4 L-488.1 -503.4 L-488.1 -502.4 L-488.1 -501.4 L-488.1 -500.4 L-488.1 -499.5 L-488.1 -498.5 L-488.1 -497.5 L-488.2 -496.5 L-488.2 -495.5 L-488.2 -494.6 L-488.2 -493.6 L-488.2 -492.6 L-488.2 -491.6 L-488.2 -490.6 L-488.3 -489.7 L-488.3 -488.7 L-488.3 -487.7 L-489.3 -487.7 L-490.2 -487.7 L-491.2 -487.7 L-492.2 -487.8 L-493.2 -487.8 L-494.2 -487.8 L-495.1 -487.8 L-496.1 -487.8 L-497.1 -487.8 L-498.1 -487.8 L-499.1 -487.8 L-500 -487.9 L-501 -487.9 L-502 -487.9 L-503 -487.9 L-504 -487.9 L-504.9 -487.9 L-505.9 -487.9 L-506.9 -488 L-507.9 -488 L-508.9 -488 L-509.8 -488 L-510.8 -488 L-511.8 -488 L-512.8 -488 L-512.8 -489 L-512.7 -490 L-512.7 -491 L-512.7 -492 L-512.7 -492.9 L-512.7 -493.9 L-512.7 -494.9 L-512.7 -495.9 L-512.7 -496.9 L-512.6 -497.8 L-512.6 -498.8 L-512.6 -499.8 L-512.6 -500.8 L-512.6 -501.8 L-512.6 -502.7 L-512.6 -503.7 L-512.5 -504.7 L-512.5 -505.7 L-512.5 -506.7 L-512.5 -507.6 L-512.5 -508.6 L-512.5 -509.6 L-512.5 -510.6 L-512.4 -511.6 L-512.4 -512.5 L-511.5 -512.5 L-510.5 -512.5 L-509.5 -512.5 L-508.5 -512.5 L-507.5 -512.5 L-506.6 -512.5 L-505.6 -512.4 L-504.6 -512.4 L-503.6 -512.4 L-502.6 -512.4 L-501.7 -512.4 L-500.7 -512.4 L-499.7 -512.4 L-498.7 -512.3 L-497.7 -512.3 L-496.8 -512.3 L-495.8 -512.3 L-494.8 -512.3 L-493.8 -512.3 L-492.8 -512.3 L-491.9 -512.2 L-490.9 -512.2 L-489.9 -512.2 L-488.9 -512.2 L-487.9 -512.2 Z " />
<path stroke="rgb(0,0,0)" stroke-opacity="1" fill="rgb(255,255,255)" fill-opacity="1" d="M224.7 100.3 L224.6 102.3 L224.3 104.2 L223.9 106.1 L223.4 108 L222.7 109.8 L221.8 111.6 L220.8 113.3 L219.7 114.9 L218.4 116.4 L217.1 117.8 L215.6 119.1 L214 120.3 L212.4 121.4 L210.6 122.3 L208.8 123.1 L207 123.7 L205.1 124.2 L203.1 124.5 L201.2 124.7 L199.2 124.7 L197.2 124.5 L195.3 124.2 L193.4 123.8 L191.5 123.2 L189.7 122.4 L188 121.6 L186.3 120.5 L184.7 119.4 L183.2 118.1 L181.8 116.7 L180.5 115.2 L179.4 113.6 L178.4 111.9 L177.5 110.2 L176.8 108.4 L176.2 106.5 L175.7 104.6 L175.4 102.6 L175.3 100.7 L175.3 98.7 L175.5 96.75 L175.9 94.81 L176.3 92.91 L177 91.05 L177.8 89.25 L178.7 87.52 L179.7 85.87 L180.9 84.3 L182.2 82.84 L183.7 81.48 L185.2 80.24 L186.8 79.12 L188.5 78.14 L190.3 77.3 L192.1 76.6 L194 76.04 L195.9 75.64 L197.9 75.39 L199.8 75.3 L201.8 75.36 L203.7 75.58 L205.7 75.96 L207.6 76.48 L209.4 77.16 L211.2 77.98 L212.9 78.94 L214.5 80.03 L216.1 81.24 L217.5 82.58 L218.8 84.03 L220.1 85.57 L221.1 87.21 L222.1 88.93 L222.9 90.72 L223.6 92.57 L224.1 94.46 L224.4 96.39 L224.6 98.35 L224.7 100.3 Z " />
<path stroke="rgb(0,0,0)" stroke-opacity="1" fill="rgb(255,255,255)" fill-opacity="1" d="M-287.9 -512.2 L-288 -511.2 L-288 -510.2 L-288 -509.2 L-288 -508.3 L-288 -507.3 L-288 -506.3 L-288 -505.3 L-288 -504.4 L-288.1 -503.4 L-288.1 -502.4 L-288.1 -501.4 L-288.1 -500.4 L-288.1 -499.5 L-288.1 -498.5 L-288.1 -497.5 L-288.2 -496.5 L-288.2 -495.5 L-288.2 -494.6 L-288.2 -493.6 L-288.2 -492.6 L-288.2 -491.6 L-288.2 -490.6 L-288.3 -489.7 L-288.3 -488.7 L-288.3 -487.7 L-289.3 -487.7 L-290.2 -487.7 L-291.2 -487.7 L-292.2 -487.8 L-293.2 -487.8 L-294.2 -487.8 L-295.1 -487.8 L-296.1 -487.8 L-297.1 -487.8 L-298.1 -487.8 L-299.1 -487.8 L-300 -487.9 L-301 -487.9 L-302 -487.9 L-303 -487.9 L-304 -487.9 L-304.9 -487.9 L-305.9 -487.9 L-306.9 -488 L-307.9 -488 L-308.9 -488 L-309.8 -488 L-310.8 -488 L-311.8 -488 L-312.8 -488 L-312.8 -489 L-312.7 -490 L-312.7 -491 L-312.7 -492 L-312.7 -492.9 L-312.7 -493.9 L-312.7 -494.9 L-312.7 -495.9 L-312.7 -496.9 L-312.6 -497.8 L-312.6 -498.8 L-312.6 -499.8 L-312.6 -500.8 L-312.6 -501.8 L-312.6 -502.7 L-312.6 -503.7 L-312.5 -504.7 L-312.5 -505.7 L-312.5 -506.7 L-312.5 -507.6 L-312.5 -508.6 L-312.5 -509.6 L-312.5 -510.6 L-312.4 -511.6 L-312.4 -512.5 L-311.5 -512.5 L-310.5 -512.5 L-309.5 -512.5 L-308.5 -512.5 L-307.5 -512.5 L-306.6 -512.5 L-305.6 -512.4 L-304.6 -512.4 L-303.6 -512.4 L-302.6 -512.4 L-301.7 -512.4 L-300.7 -512.4 L-299.7 -512.4 L-298.7 -512.3 L-297.7 -512.3 L-296.8 -512.3 L-295.8 -512.3 L-294.8 -512.3 L-293.8 -512.3 L-292.8 -512.3 L-291.9 -512.2 L-290.9 -512.2 L-289.9 -512.2 L-288.9 -512.2 L-287.9 -512.2 Z " />
<path stroke="rgb(0,0,0)" stroke-opacity="1" fill="rgb(255,255,255)" fill-opacity="1" d="M-290.5 187 L-289.4 187.8 L-288.5 188.7 L-287.6 189.6 L-286.8 190.6 L-286.1 191.7 L-285.5 192.8 L-284.9 194 L-284.5 195.2 L-284.1 196.4 L-283.9 197.6 L-283.7 198.9 L-283.7 200.2 L-283.7 201.5 L-283.9 202.8 L-284.2 204 L-284.5 205.2 L-285 206.4 L-285.5 207.6 L-286.1 208.7 L-286.9 209.8 L-287.7 210.8 L-288.5 211.7 L-289.5 212.6 L-290.5 213.3 L-291.6 214 L-292.7 214.6 L-293.9 215.2 L-295.1 215.6 L-296.3 215.9 L-297.6 216.1 L-298.9 216.3 L-300.2 216.3 L-301.4 216.2 L-302.7 216 L-304 215.7 L-305.2 215.4 L-306.4 214.9 L-307.5 214.3 L-308.6 213.7 L-309.7 212.9 L-310.7 212.1 L-311.6 211.2 L-312.4 210.2 L-313.2 209.2 L-313.8 208.1 L-314.4 207 L-314.9 205.8 L-315.3 204.6 L-315.6 203.3 L-315.8 202 L-315.9 200.8 L-315.9 199.5 L-315.8 198.2 L-315.6 196.9 L-315.3 195.7 L-314.9 194.5 L-314.4 193.3 L-313.8 192.2 L-313.1 191.1 L-312.4 190 L-311.5 189.1 L-310.6 188.2 L-309.6 187.4 L-308.6 186.6 L-307.5 186 L-306.3 185.4 L-305.1 184.9 L-303.9 184.6 L-302.6 184.3 L-301.4 184.1 L-300.1 184 L-298.8 184.1 L-297.5 184.2 L-296.3 184.4 L-295 184.8 L-293.8 185.2 L-292.7 185.7 L-291.5 186.3 L-290.5 187 Z " />
<path stroke="rgb(0,0,0)" stroke-opacity="1" fill="rgb(255,255,255)" fill-opacity="1" d="M-787.9 -412.2 L-788 -411.2 L-788 -410.2 L-788 -409.2 L-788 -408.3 L-788 -407.3 L-788 -406.3 L-788 -405.3 L-788 -404.4 L-788.1 -403.4 L-788.1 -402.4 L-788.1 -401.4 L-788.1 -400.4 L-788.1 -399.5 L-788.1 -398.5 L-788.1 -397.5 L-788.2 -396.5 L-788.2 -395.5 L-788.2 -394.6 L-788.2 -393.6 L-788.2 -392.6 L-788.2 -391.6 L-788.2 -390.6 L-788.3 -389.7 L-788.3 -388.7 L-788.3 -387.7 L-789.3 -387.7 L-790.2 -387.7 L-791.2 -387.7 L-792.2 -387.8 L-793.2 -387.8 L-794.2 -387.8 L-795.1 -387.8 L-796.1 -387.8 L-797.1 -387.8 L-798.1 -387.8 L-799.1 -387.8 L-800 -387.9 L-801 -387.9 L-802 -387.9 L-803 -387.9 L-804 -387.9 L-804.9 -387.9 L-805.9 -387.9 L-806.9 -388 L-807.9 -388 L-808.9 -388 L-809.8 -388 L-810.8 -388 L-811.8 -388 L-812.8 -388 L-812.8 -389 L-812.7 -390 L-812.7 -391 L-812.7 -392 L-812.7 -392.9 L-812.7 -393.9 L-812.7 -394.9 L-812.7 -395.9 L-812.7 -396.9 L-812.6 -397.8 L-812.6 -398.8 L-812.6 -399.8 L-812.6 -400.8 L-812.6 -401.8 L-812.6 -402.7 L-812.6 -403.7 L-812.5 -404.7 L-812.5 -405.7 L-812.5 -406.7 L-812.5 -407.6 L-812.5 -408.6 L-812.5 -409.6 L-812.5 -410.6 L-812.4 -411.6 L-812.4 -412.5 L-811.5 -412.5 L-810.5 -412.5 L-809.5 -412.5 L-808.5 -412.5 L-807.5 -412.5 L-806.6 -412.5 L-805.6 -412.4 L-804.6 -412.4 L-803.6 -412.4 L-802.6 -412.4 L-801.7 -412.4 L-800.7 -412.4 L-799.7 -412.4 L-798.7 -412.3 L-797.7 -412.3 L-796.8 -412.3 L-795.8 -412.3 L-794.8 -412.3 L-793.8 -412.3 L-792.8 -412.3 L-791.9 -412.2 L-790.9 -412.2 L-789.9 -412.2 L-788.9 -412.2 L-787.9 -412.2 Z " />
<path stroke="rgb(0,0,0)" stroke-opacity="1" fill="rgb(255,255,255)" fill-opacity="1" d="M-77.15 196.8 L-76.96 198.6 L-76.92 200.4 L-77.02 202.2 L-77.27 204.1 L-77.66 205.9 L-78.19 207.6 L-78.86 209.3 L-79.67 211 L-80.6 212.5 L-81.65 214 L-82.82 215.5 L-84.1 216.8 L-85.48 218 L-86.95 219.1 L-88.51 220 L-90.13 220.9 L-91.82 221.6 L-93.56 222.2 L-95.34 222.6 L-97.15 222.9 L-98.98 223.1 L-100.8 223.1 L-102.6 222.9 L-104.4 222.7 L-106.2 222.2 L-108 221.7 L-109.7 221 L-111.3 220.1 L-112.9 219.2 L-114.3 218.1 L-115.7 216.9 L-117 215.6 L-118.2 214.2 L-119.3 212.7 L-120.2 211.1 L-121 209.5 L-121.7 207.8 L-122.2 206 L-122.6 204.2 L-122.9 202.4 L-123 200.6 L-123 198.7 L-122.8 196.9 L-122.5 195.1 L-122 193.3 L-121.4 191.6 L-120.7 189.9 L-119.8 188.3 L-118.8 186.8 L-117.7 185.3 L-116.5 184 L-115.2 182.7 L-113.7 181.5 L-112.2 180.5 L-110.6 179.6 L-109 178.8 L-107.3 178.2 L-105.5 177.7 L-103.7 177.3 L-101.9 177.1 L-100.1 177 L-98.22 177.1 L-96.4 177.3 L-94.6 177.6 L-92.84 178.1 L-91.12 178.8 L-89.45 179.5 L-87.86 180.4 L-86.34 181.4 L-84.9 182.6 L-83.56 183.8 L-82.33 185.2 L-81.21 186.6 L-80.2 188.2 L-79.32 189.8 L-78.57 191.5 L-77.96 193.2 L-77.48 195 L-77.15 196.8 Z " />
<path stroke="rgb(0,0,0)" stroke-opacity="1" fill="rgb(255,255,255)" fill-opacity="1" d="M-587.9 -412.2 L-588 -411.2 L-588 -410.2 L-588 -409.2 L-588 -408.3 L-588 -407.3 L-588 -406.3 L-588 -405.3 L-588 -404.4 L-588.1 -403.4 L-588.1 -402.4 L-588.1 -401.4 L-588.1 -400.4 L-588.1 -399.5 L-588.1 -398.5 L-588.1 -397.5 L-588.2 -396.5 L-588.2 -395.5 L-588.2 -394.6 L-588.2 -393.6 L-588.2 -392.6 L-588.2 -391.6 L-588.2 -390.6 L-588.3 -389.7 L-588.3 -388.7 L-588.3 -387.7 L-589.3 -387.7 L-590.2 -387.7 L-591.2 -387.7 L-592.2 -387.8 L-593.2 -387.8 L-594.2 -387.8 L-595.1 -387.8 L-596.1 -387.8 L-597.1 -387.8 L-598.1 -387.8 L-599.1 -387.8 L-600 -387.9 L-601 -387.9 L-602 -387.9 L-603 -387.9 L-604 -387.9 L-604.9 -387.9 L-605.9 -387.9 L-606.9 -388 L-607.9 -388 L-608.9 -388 L-609.8 -388 L-610.8 -388 L-611.8 -388 L-612.8 -388 L-612.8 -389 L-612.7 -390 L-612.7 -391 L-612.7 -392 L-612.7 -392.9 L-612.7 -393.9 L-612.7 -394.9 L-612.7 -395.9 L-612.7 -396.9 L-612.6 -397.8 L-612.6 -398.8 L-612.6 -399.8 L-612.6 -400.8 L-612.6 -401.8 L-612.6 -402.7 L-612.6 -403.7 L-612.5 -404.7 L-612.5 -405.7 L-612.5 -406.7 L-612.5 -407.6 L-612.5 -408.6 L-612.5 -409.6 L-612.5 -410.6 L-612.4 -411.6 L-612.4 -412.5 L-611.5 -412.5 L-610.5 -412.5 L-609.5 -412.5 L-608.5 -412.5 L-607.5 -412.5 L-606.6 -412.5 L-605.6 -412.4 L-604.6 -412.4 L-603.6 -412.4 L-602.6 -412.4 L-601.7 -412.4 L-600.7 -412.4 L-599.7 -412.4 L-598.7 -412.3 L-597.7 -412.3 L-596.8 -412.3 L-595.8 -412.3 L-594.8 -412.3 L-593.8 -412.3 L-592.8 -412.3 L-591.9 -412.2 L-590.9 -412.2 L-589.9 -412.2 L-588.9 -412.2 L-587.9 -412.2 Z " />
<path stroke="rgb(0,0,0)" stroke-opacity="1" fill="rgb(255,255,255)" fill-opacity="1" d="M124.7 200.3 L124.6 202.3 L124.3 204.2 L123.9 206.1 L123.4 208 L122.7 209.8 L121.8 211.6 L120.8 213.3 L119.7 214.9 L118.4 216.4 L117.1 217.8 L115.6 219.1 L114 220.3 L112.4 221.4 L110.6 222.3 L108.8 223.1 L107 223.7 L105.1 224.2 L103.1 224.5 L101.2 224.7 L99.2 224.7 L97.24 224.5 L95.3 224.2 L93.39 223.8 L91.52 223.2 L89.7 222.4 L87.95 221.6 L86.28 220.5 L84.69 219.4 L83.2 218.1 L81.82 216.7 L80.55 215.2 L79.4 213.6 L78.38 211.9 L77.5 210.2 L76.76 208.4 L76.17 206.5 L75.73 204.6 L75.45 202.6 L75.32 200.7 L75.34 198.7 L75.52 196.7 L75.86 194.8 L76.35 192.9 L76.98 191.1 L77.77 189.3 L78.69 187.5 L79.75 185.9 L80.94 184.3 L82.24 182.8 L83.66 181.5 L85.19 180.2 L86.8 179.1 L88.5 178.1 L90.27 177.3 L92.11 176.6 L93.99 176 L95.92 175.6 L97.86 175.4 L99.83 175.3 L101.8 175.4 L103.7 175.6 L105.7 176 L107.6 176.5 L109.4 177.2 L111.2 178 L112.9 178.9 L114.5 180 L116.1 181.2 L117.5 182.6 L118.8 184 L120.1 185.6 L121.1 187.2 L122.1 188.9 L122.9 190.7 L123.6 192.6 L124.1 194.5 L124.4 196.4 L124.6 198.3 L124.7 200.3 Z " />
<path stroke="rgb(0,0,0)" stroke-opacity="1" fill="rgb(255,255,255)" fill-opacity="1" d="M-387.9 -412.2 L-388 -411.2 L-388 -410.2 L-388 -409.2 L-388 -408.3 L-388 -407.3 L-388 -406.3 L-388 -405.3 L-388 -404.4 L-388.1 -403.4 L-388.1 -402.4 L-388.1 -401.4 L-388.1 -400.4 L-388.1 -399.5 L-388.1 -398.5 L-388.1 -397.5 L-388.2 -396.5 L-388.2 -395.5 L-388.2 -394.6 L-388.2 -393.6 L-388.2 -392.6 L-388.2 -391.6 L-388.2 -390.6 L-388.3 -389.7 L-388.3 -388.7 L-388.3 -387.7 L-389.3 -387.7 L-390.2 -387.7 L-391.2 -387.7 L-392.2 -387.8 L-393.2 -387.8 L-394.2 -387.8 L-395.1 -387.8 L-396.1 -387.8 L-397.1 -387.8 L-398.1 -387.8 L-399.1 -387.8 L-400 -387.9 L-401 -387.9 L-402 -387.9 L-403 -387.9 L-404 -387.9 L-404.9 -387.9 L-405.9 -387.9 L-406.9 -388 L-407.9 -388 L-408.9 -388 L-409.8 -388 L-410.8 -388 L-411.8 -388 L-412.8 -388 L-412.8 -389 L-412.7 -390 L-412.7 -391 L-412.7 -392 L-412.7 -392.9 L-412.7 -393.9 L-412.7 -394.9 L-412.7 -395.9 L-412.7 -396.9 L-412.6 -397.8 L-412.6 -398.8 L-412.6 -399.8 L-412.6 -400.8 L-412.6 -401.8 L-412.6 -402.7 L-412.6 -403.7 L-412.5 -404.7 L-412.5 -405.7 L-412.5 -406.7 L-412.5 -407.6 L-412.5 -408.6 L-412.5 -409.6 L-412.5 -410.6 L-412.4 -411.6 L-412.4 -412.5 L-411.5 -412.5 L-410.5 -412.5 L-409.5 -412.5 L-408.5 -412.5 L-407.5 -412.5 L-406.6 -412.5 L-405.6 -412.4 L-404.6 -412.4 L-403.6 -412.4 L-402.6 -412.4 L-401.7 -412.4 L-400.7 -412.4 L-399.7 -412.4 L-398.7 -412.3 L-397.7 -412.3 L-396.8 -412.3 L-395.8 -412.3 L-394.8 -412.3 L-393.8 -412.3 L-392.8 -412.3 L-391.9 -412.2 L-390.9 -412.2 L-389.9 -412.2 L-388.9 -412.2 L-387.9 -412.2 Z " />
<path stroke="rgb(0,0,0)" stroke-opacity="1" fill="rgb(255,255,255)" fill-opacity="1" d="M324.7 200.3 L324.6 202.3 L324.3 204.2 L323.9 206.1 L323.4 208 L322.7 209.9 L321.8 211.6 L320.8 213.3 L319.7 214.9 L318.4 216.4 L317.1 217.9 L315.6 219.2 L314 220.3 L312.4 221.4 L310.6 222.3 L308.8 223.1 L307 223.7 L305 224.2 L303.1 224.5 L301.2 224.7 L299.2 224.7 L297.2 224.5 L295.3 224.2 L293.4 223.8 L291.5 223.2 L289.7 222.4 L287.9 221.6 L286.3 220.5 L284.7 219.4 L283.2 218.1 L281.8 216.7 L280.5 215.2 L279.4 213.6 L278.4 211.9 L277.5 210.2 L276.8 208.3 L276.2 206.5 L275.7 204.6 L275.4 202.6 L275.3 200.7 L275.3 198.7 L275.5 196.7 L275.9 194.8 L276.3 192.9 L277 191 L277.8 189.2 L278.7 187.5 L279.8 185.9 L280.9 184.3 L282.2 182.8 L283.7 181.5 L285.2 180.2 L286.8 179.1 L288.5 178.1 L290.3 177.3 L292.1 176.6 L294 176 L295.9 175.6 L297.9 175.4 L299.8 175.3 L301.8 175.4 L303.8 175.6 L305.7 176 L307.6 176.5 L309.4 177.2 L311.2 178 L312.9 178.9 L314.5 180 L316.1 181.2 L317.5 182.6 L318.9 184 L320.1 185.6 L321.1 187.2 L322.1 188.9 L322.9 190.7 L323.6 192.6 L324.1 194.5 L324.4 196.4 L324.7 198.4 L324.7 200.3 Z " />
<path stroke="rgb(0,0,0)" stroke-opacity="1" fill="rgb(255,255,255)" fill-opacity="1" d="M-887.9 -312.2 L-888 -311.2 L-888 -310.2 L-888 -309.2 L-888 -308.3 L-888 -307.3 L-888 -306.3 L-888 -305.3 L-888 -304.4 L-888.1 -303.4 L-888.1 -302.4 L-888.1 -301.4 L-888.1 -300.4 L-888.1 -299.5 L-888.1 -298.5 L-888.1 -297.5 L-888.2 -296.5 L-888.2 -295.5 L-888.2 -294.6 L-888.2 -293.6 L-888.2 -292.6 L-888.2 -291.6 L-888.2 -290.6 L-888.3 -289.7 L-888.3 -288.7 L-888.3 -287.7 L-889.3 -287.7 L-890.2 -287.7 L-891.2 -287.7 L-892.2 -287.8 L-893.2 -287.8 L-894.2 -287.8 L-895.1 -287.8 L-896.1 -287.8 L-897.1 -287.8 L-898.1 -287.8 L-899.1 -287.8 L-900 -287.9 L-901 -287.9 L-902 -287.9 L-903 -287.9 L-904 -287.9 L-904.9 -287.9 L-905.9 -287.9 L-906.9 -288 L-907.9 -288 L-908.9 -288 L-909.8 -288 L-910.8 -288 L-911.8 -288 L-912.8 -288 L-912.8 -289 L-912.7 -290 L-912.7 -291 L-912.7 -292 L-912.7 -292.9 L-912.7 -293.9 L-912.7 -294.9 L-912.7 -295.9 L-912.7 -296.9 L-912.6 -297.8 L-912.6 -298.8 L-912.6 -299.8 L-912.6 -300.8 L-912.6 -301.8 L-912.6 -302.7 L-912.6 -303.7 L-912.5 -304.7 L-912.5 -305.7 L-912.5 -306.7 L-912.5 -307.6 L-912.5 -308.6 L-912.5 -309.6 L-912.5 -310.6 L-912.4 -311.6 L-912.4 -312.5 L-911.5 -312.5 L-910.5 -312.5 L-909.5 -312.5 L-908.5 -312.5 L-907.5 -312.5 L-906.6 -312.5 L-905.6 -312.4 L-904.6 -312.4 L-903.6 -312.4 L-902.6 -312.4 L-901.7 -312.4 L-900.7 -312.4 L-899.7 -312.4 L-898.7 -312.3 L-897.7 -312.3 L-896.8 -312.3 L-895.8 -312.3 L-894.8 -312.3 L-893.8 -312.3 L-892.8 -312.3 L-891.9 -312.2 L-890.9 -312.2 L-889.9 -312.2 L-888.9 -312.2 L-887.9 -312.2 Z " />
<path stroke="rgb(0,0,0)" stroke-opacity="1" fill="rgb(255,255,255)" fill-opacity="1" d="M-177.2 296.8 L-177 298.6 L-176.9 300.4 L-177 302.2 L-177.3 304.1 L-177.7 305.9 L-178.2 307.6 L-178.9 309.3 L-179.7 311 L-180.6 312.5 L-181.7 314 L-182.8 315.5 L-184.1 316.8 L-185.5 318 L-187 319.1 L-188.5 320 L-190.1 320.9 L-191.8 321.6 L-193.6 322.2 L-195.3 322.6 L-197.1 322.9 L-199 323.1 L-200.8 323.1 L-202.6 322.9 L-204.4 322.7 L-206.2 322.2 L-208 321.7 L-209.7 321 L-211.3 320.1 L-212.9 319.2 L-214.3 318.1 L-215.7 316.9 L-217 315.6 L-218.2 314.2 L-219.3 312.7 L-220.2 311.1 L-221 309.5 L-221.7 307.8 L-222.2 306 L-222.6 304.2 L-222.9 302.4 L-223 300.6 L-223 298.7 L-222.8 296.9 L-222.5 295.1 L-222 293.3 L-221.4 291.6 L-220.7 289.9 L-219.8 288.3 L-218.8 286.8 L-217.7 285.3 L-216.5 284 L-215.2 282.7 L-213.7 281.5 L-212.2 280.5 L-210.6 279.6 L-209 278.8 L-207.3 278.2 L-205.5 277.7 L-203.7 277.3 L-201.9 277.1 L-200.1 277 L-198.2 277.1 L-196.4 277.3 L-194.6 277.6 L-192.8 278.1 L-191.1 278.8 L-189.5 279.5 L-187.9 280.4 L-186.3 281.4 L-184.9 282.6 L-183.6 283.8 L-182.3 285.2 L-181.2 286.6 L-180.2 288.2 L-179.3 289.8 L-178.6 291.5 L-178 293.2 L-177.5 295 L-177.2 296.8 Z " />
<path stroke="rgb(0,0,0)" stroke-opacity="1" fill="rgb(255,255,255)" fill-opacity="1" d="M-687.9 -312.2 L-688 -311.2 L-688 -310.2 L-688 -309.2 L-688 -308.3 L-688 -307.3 L-688 -306.3 L-688 -305.3 L-688 -304.4 L-688.1 -303.4 L-688.1 -302.4 L-688.1 -301.4 L-688.1 -300.4 L-688.1 -299.5 L-688.1 -298.5 L-688.1 -297.5 L-688.2 -296.5 L-688.2 -295.5 L-688.2 -294.6 L-688.2 -293.6 L-688.2 -292.6 L-688.2 -291.6 L-688.2 -290.6 L-688.3 -289.7 L-688.3 -288.7 L-688.3 -287.7 L-689.3 -287.7 L-690.2 -287.7 L-691.2 -287.7 L-692.2 -287.8 L-693.2 -287.8 L-694.2 -287.8 L-695.1 -287.8 L-696.1 -287.8 L-697.1 -287.8 L-698.1 -287.8 L-699.1 -287.8 L-700 -287.9 L-701 -287.9 L-702 -287.9 L-703 -287.9 L-704 -287.9 L-704.9 -287.9 L-705.9 -287.9 L-706.9 -288 L-707.9 -288 L-708.9 -288 L-709.8 -288 L-710.8 -288 L-711.8 -288 L-712.8 -288 L-712.8 -289 L-712.7 -290 L-712.7 -291 L-712.7 -292 L-712.7 -292.9 L-712.7 -293.9 L-712.7 -294.9 L-712.7 -295.9 L-712.7 -296.9 L-712.6 -297.8 L-712.6 -298.8 L-712.6 -299.8 L-712.6 -300.8 L-712.6 -301.8 L-712.6 -302.7 L-712.6 -303.7 L-712.5 -304.7 L-712.5 -305.7 L-712.5 -306.7 L-712.5 -307.6 L-712.5 -308.6 L-712.5 -309.6 L-712.5 -310.6 L-712.4 -311.6 L-712.4 -312.5 L-711.5 -312.5 L-710.5 -312.5 L-709.5 -312.5 L-708.5 -312.5 L-707.5 -312.5 L-706.6 -312.5 L-705.6 -312.4 L-704.6 -312.4 L-703.6 -312.4 L-702.6 -312.4 L-701.7 -312.4 L-700.7 -312.4 L-699.7 -312.4 L-698.7 -312.3 L-697.7 -312.3 L-696.8 -312.3 L-695.8 -312.3 L-694.8 -312.3 L-693.8 -312.3 L-692.8 -312.3 L-691.9 -312.2 L-690.9 -312.2 L-689.9 -312.2 L-688.9 -312.2 L-687.9 -312.2 Z " />
<path stroke="rgb(0,0,0)" stroke-opacity="1" fill="rgb(255,255,255)" fill-opacity="1" d="M24.7 300.3 L24.6 302.3 L24.34 304.2 L23.92 306.1 L23.36 308 L22.65 309.8 L21.8 311.6 L20.8 313.3 L19.68 314.9 L18.43 316.4 L17.07 317.8 L15.6 319.1 L14.02 320.3 L12.37 321.4 L10.63 322.3 L8.823 323.1 L6.962 323.7 L5.057 324.2 L3.121 324.5 L1.164 324.7 L-0.7994 324.7 L-2.758 324.5 L-4.699 324.2 L-6.61 323.8 L-8.48 323.2 L-10.3 322.4 L-12.05 321.6 L-13.72 320.5 L-15.31 319.4 L-16.8 318.1 L-18.18 316.7 L-19.45 315.2 L-20.6 313.6 L-21.62 311.9 L-22.5 310.2 L-23.24 308.4 L-23.83 306.5 L-24.27 304.6 L-24.55 302.6 L-24.68 300.7 L-24.66 298.7 L-24.48 296.7 L-24.14 294.8 L-23.65 292.9 L-23.02 291.1 L-22.23 289.3 L-21.31 287.5 L-20.25 285.9 L-19.06 284.3 L-17.76 282.8 L-16.34 281.5 L-14.81 280.2 L-13.2 279.1 L-11.5 278.1 L-9.725 277.3 L-7.891 276.6 L-6.007 276 L-4.084 275.6 L-2.136 275.4 L-0.175 275.3 L1.788 275.4 L3.739 275.6 L5.667 276 L7.559 276.5 L9.403 277.2 L11.19 278 L12.9 278.9 L14.53 280 L16.08 281.2 L17.51 282.6 L18.84 284 L20.05 285.6 L21.13 287.2 L22.08 288.9 L22.89 290.7 L23.56 292.6 L24.07 294.5 L24.44 296.4 L24.65 298.3 L24.7 300.3 Z " />
<path stroke="rgb(0,0,0)" stroke-opacity="1" fill="rgb(255,255,255)" fill-opacity="1" d="M-487.9 -312.2 L-488 -311.2 L-488 -310.2 L-488 -309.2 L-488 -308.3 L-488 -307.3 L-488 -306.3 L-488 -305.3 L-488 -304.4 L-488.1 -303.4 L-488.1 -302.4 L-488.1 -301.4 L-488.1 -300.4 L-488.1 -299.5 L-488.1 -298.5 L-488.1 -297.5 L-488.2 -296.5 L-488.2 -295.5 L-488.2 -294.6 L-488.2 -293.6 L-488.2 -292.6 L-488.2 -291.6 L-488.2 -290.6 L-488.3 -289.7 L-488.3 -288.7 L-488.3 -287.7 L-489.3 -287.7 L-490.2 -287.7 L-491.2 -287.7 L-492.2 -287.8 L-493.2 -287.8 L-494.2 -287.8 L-495.1 -287.8 L-496.1 -287.8 L-497.1 -287.8 L-498.1 -287.8 L-499.1 -287.8 L-500 -287.9 L-501 -287.9 L-502 -287.9 L-503 -287.9 L-504 -287.9 L-504.9 -287.9 L-505.9 -287.9 L-506.9 -288 L-507.9 -288 L-508.9 -288 L-509.8 -288 L-510.8 -288 L-511.8 -288 L-512.8 -288 L-512.8 -289 L-512.7 -290 L-512.7 -291 L-512.7 -292 L-512.7 -292.9 L-512.7 -293.9 L-512.7 -294.9 L-512.7 -295.9 L-512.7 -296.9 L-512.6 -297.8 L-512.6 -298.8 L-512.6 -299.8 L-512.6 -300.8 L-512.6 -301.8 L-512.6 -302.7 L-512.6 -303.7 L-512.5 -304.7 L-512.5 -305.7 L-512.5 -306.7 L-512.5 -307.6 L-512.5 -308.6 L-512.5 -309.6 L-512.5 -310.6 L-512.4 -311.6 L-512.4 -312.5 L-511.5 -312.5 L-510.5 -312.5 L-509.5 -312.5 L-508.5 -312.5 L-507.5 -312.5 L-506.6 -312.5 L-505.6 -312.4 L-504.6 -312.4 L-503.6 -312.4 L-502.6 -312.4 L-501.7 -312.4 L-500.7 -312.4 L-499.7 -312.4 L-498.7 -312.3 L-497.7 -312.3 L-496.8 -312.3 L-495.8 -312.3 L-494.8 -312.3 L-493.8 -312.3 L-492.8 -312.3 L-491.9 -312.2 L-490.9 -312.2 L-489.9 -312.2 L-488.9 -312.2 L-487.9 -312.2 Z " />
<path stroke="rgb(0,0,0)" stroke-opacity="1" fill="rgb(255,255,255)" fill-opacity="1" d="M224.7 300.3 L224.6 302.3 L224.3 304.2 L223.9 306.1 L223.4 308 L222.7 309.9 L221.8 311.6 L220.8 313.3 L219.7 314.9 L218.4 316.4 L217.1 317.9 L215.6 319.2 L214 320.3 L212.4 321.4 L210.6 322.3 L208.8 323.1 L207 323.7 L205 324.2 L203.1 324.5 L201.2 324.7 L199.2 324.7 L197.2 324.5 L195.3 324.2 L193.4 323.8 L191.5 323.2 L189.7 322.4 L187.9 321.6 L186.3 320.5 L184.7 319.4 L183.2 318.1 L181.8 316.7 L180.5 315.2 L179.4 313.6 L178.4 311.9 L177.5 310.2 L176.8 308.3 L176.2 306.5 L175.7 304.6 L175.4 302.6 L175.3 300.7 L175.3 298.7 L175.5 296.7 L175.9 294.8 L176.3 292.9 L177 291 L177.8 289.2 L178.7 287.5 L179.8 285.9 L180.9 284.3 L182.2 282.8 L183.7 281.5 L185.2 280.2 L186.8 279.1 L188.5 278.1 L190.3 277.3 L192.1 276.6 L194 276 L195.9 275.6 L197.9 275.4 L199.8 275.3 L201.8 275.4 L203.8 275.6 L205.7 276 L207.6 276.5 L209.4 277.2 L211.2 278 L212.9 278.9 L214.5 280 L216.1 281.2 L217.5 282.6 L218.9 284 L220.1 285.6 L221.1 287.2 L222.1 288.9 L222.9 290.7 L223.6 292.6 L224.1 294.5 L224.4 296.4 L224.7 298.4 L224.7 300.3 Z " />
<path stroke="rgb(0,0,0)" stroke-opacity="1" fill="rgb(255,255,255)" fill-opacity="1" d="M-287.9 -312.2 L-288 -311.2 L-288 -310.2 L-288 -309.2 L-288 -308.3 L-288 -307.3 L-288 -306.3 L-288 -305.3 L-288 -304.4 L-288.1 -303.4 L-288.1 -302.4 L-288.1 -301.4 L-288.1 -300.4 L-288.1 -299.5 L-288.1 -298.5 L-288.1 -297.5 L-288.2 -296.5 L-288.2 -295.5 L-288.2 -294.6 L-288.2 -293.6 L-288.2 -292.6 L-288.2 -291.6 L-288.2 -290.6 L-288.3 -289.7 L-288.3 -288.7 L-288.3 -287.7 L-289.3 -287.7 L-290.2 -287.7 L-291.2 -287.7 L-292.2 -287.8 L-293.2 -287.8 L-294.2 -287.8 L-295.1 -287.8 L-296.1 -287.8 L-297.1 -287.8 L-298.1 -287.8 L-299.1 -287.8 L-300 -287.9 L-301 -287.9 L-302 -287.9 L-303 -287.9 L-304 -287.9 L-304.9 -287.9 L-305.9 -287.9 L-306.9 -288 L-307.9 -288 L-308.9 -288 L-309.8 -288 L-310.8 -288 L-311.8 -288 L-312.8 -288 L-312.8 -289 L-312.7 -290 L-312.7 -291 L-312.7 -292 L-312.7 -292.9 L-312.7 -293.9 L-312.7 -294.9 L-312.7 -295.9 L-312.7 -296.9 L-312.6 -297.8 L-312.6 -298.8 L-312.6 -299.8 L-312.6 -300.8 L-312.6 -301.8 L-312.6 -302.7 L-312.6 -303.7 L-312.5 -304.7 L-312.5 -305.7 L-312.5 -306.7 L-312.5 -307.6 L-312.5 -308.6 L-312.5 -309.6 L-312.5 -310.6 L-312.4 -311.6 L-312.4 -312.5 L-311.5 -312.5 L-310.5 -312.5 L-309.5 -312.5 L-308.5 -312.5 L-307.5 -312.5 L-306.6 -312.5 L-305.6 -312.4 L-304.6 -312.4 L-303.6 -312.4 L-302.6 -312.4 L-301.7 -312.4 L-300.7 -312.4 L-299.7 -312.4 L-298.7 -312.3 L-297.7 -312.3 L-296.8 -312.3 L-295.8 -312.3 L-294.8 -312.3 L-293.8 -312.3 L-292.8 -312.3 L-291.9 -312.2 L-290.9 -312.2 L-289.9 -312.2 L-288.9 -312.2 L-287.9 -312.2 Z " />
</g>
</g>
</svg>
