<!DOCTYPE svg>
<svg xmlns="http://www.w3.org/2000/svg" xmlns:xlink="http://www.w3.org/1999/xlink" width="1000" height="1000">
<g transform="translate(500.000000,500.000000)">
<g transform="scale(3.000000,3.000000)">
<path stroke="rgb(0,0,0)" stroke-opacity="1" fill="rgb(255,255,255)" fill-opacity="1" d="M-712.6 -688.2 L-712.6 -689.1 L-712.5 -690.1 L-712.5 -691.1 L-712.5 -692.1 L-712.5 -693.1 L-712.5 -694.1 L-712.5 -695.1 L-712.5 -696 L-712.5 -697 L-712.5 -698 L-712.5 -699 L-712.4 -700 L-712.4 -701 L-712.4 -702 L-712.4 -702.9 L-712.4 -703.9 L-712.4 -704.9 L-712.4 -705.9 L-712.4 -706.9 L-712.4 -707.9 L-712.4 -708.9 L-712.4 -709.8 L-712.3 -710.8 L-712.3 -711.8 L-712.3 -712.8 L-711.3 -712.8 L-710.3 -712.8 L-709.4 -712.8 L-708.4 -712.8 L-707.4 -712.8 L-706.4 -712.7 L-705.4 -712.7 L-704.4 -712.7 L-703.4 -712.7 L-702.5 -712.7 L-701.5 -712.7 L-700.5 -712.7 L-699.5 -712.7 L-698.5 -712.7 L-697.5 -712.7 L-696.5 -712.7 L-695.6 -712.6 L-694.6 -712.6 L-693.6 -712.6 L-692.6 -712.6 L-691.6 -712.6 L-690.6 -712.6 L-689.6 -712.6 L-688.7 -712.6 L-687.7 -712.6 L-687.7 -711.6 L-687.7 -710.6 L-687.7 -709.6 L-687.7 -708.6 L-687.7 -707.6 L-687.7 -706.6 L-687.7 -705.7 L-687.7 -704.7 L-687.8 -703.7 L-687.8 -702.7 L-687.8 -701.7 L-687.8 -700.7 L-687.8 -699.7 L-687.8 -698.8 L-687.8 -697.8 L-687.8 -696.8 L-687.8 -695.8 L-687.8 -694.8 L-687.9 -693.8 L-687.9 -692.8 L-687.9 -691.9 L-687.9 -690.9 L-687.9 -689.9 L-687.9 -688.9 L-687.9 -687.9 L-688.9 -687.9 L-689.9 -687.9 L-690.9 -687.9 L-691.9 -688 L-692.8 -688 L-693.8 -688 L-694.8 -688 L-695.8 -688 L-696.8 -688 L-697.8 -688 L-698.8 -688 L-699.7 -688 L-700.7 -688 L-701.7 -688 L-702.7 -688.1 L-703.7 -688.1 L-704.7 -688.1 L-705.7 -688.1 L-706.6 -688.1 L-707.6 -688.1 L-708.6 -688.1 L-709.6 -688.1 L-710.6 -688.1 L-711.6 -688.1 L-712.6 -688.2 Z " />
<path stroke="rgb(0,0,0)" stroke-opacity="0.803" fill="rgb(255,255,255)" fill-opacity="1" d="M-175.2 -299.8 L-175.3 -297.8 L-175.5 -295.9 L-176 -293.9 L-176.5 -292 L-177.2 -290.2 L-178.1 -288.4 L-179.1 -286.7 L-180.2 -285.1 L-181.4 -283.6 L-182.8 -282.1 L-184.3 -280.8 L-185.8 -279.6 L-187.5 -278.6 L-189.2 -277.7 L-191.1 -276.9 L-192.9 -276.2 L-194.8 -275.7 L-196.8 -275.4 L-198.7 -275.2 L-200.7 -275.2 L-202.7 -275.3 L-204.6 -275.6 L-206.5 -276.1 L-208.4 -276.7 L-210.3 -277.4 L-212 -278.3 L-213.7 -279.3 L-215.3 -280.5 L-216.8 -281.8 L-218.2 -283.2 L-219.5 -284.7 L-220.6 -286.3 L-221.7 -287.9 L-222.6 -289.7 L-223.3 -291.5 L-223.9 -293.4 L-224.4 -295.3 L-224.6 -297.3 L-224.8 -299.2 L-224.8 -301.2 L-224.6 -303.2 L-224.3 -305.1 L-223.8 -307 L-223.1 -308.9 L-222.4 -310.7 L-221.4 -312.4 L-220.4 -314.1 L-219.2 -315.7 L-217.9 -317.2 L-216.5 -318.5 L-215 -319.8 L-213.3 -320.9 L-211.6 -321.9 L-209.9 -322.8 L-208 -323.5 L-206.1 -324 L-204.2 -324.4 L-202.2 -324.7 L-200.3 -324.8 L-198.3 -324.7 L-196.3 -324.5 L-194.4 -324.2 L-192.5 -323.6 L-190.6 -323 L-188.9 -322.2 L-187.1 -321.2 L-185.5 -320.1 L-183.9 -318.9 L-182.5 -317.6 L-181.1 -316.1 L-179.9 -314.6 L-178.8 -312.9 L-177.9 -311.2 L-177 -309.4 L-176.4 -307.6 L-175.8 -305.7 L-175.5 -303.7 L-175.3 -301.8 L-175.2 -299.8 Z " />
<path stroke="rgb(0,0,0)" stroke-opacity="1" fill="rgb(255,255,255)" fill-opacity="1" d="M-512.6 -688.2 L-512.6 -689.1 L-512.5 -690.1 L-512.5 -691.1 L-512.5 -692.1 L-512.5 -693.1 L-512.5 -694.1 L-512.5 -695.1 L-512.5 -696 L-512.5 -697 L-512.5 -698 L-512.5 -699 L-512.4 -700 L-512.4 -701 L-512.4 -702 L-512.4 -702.9 L-512.4 -703.9 L-512.4 -704.9 L-512.4 -705.9 L-512.4 -706.9 L-512.4 -707.9 L-512.4 -708.9 L-512.4 -709.8 L-512.3 -710.8 L-512.3 -711.8 L-512.3 -712.8 L-511.3 -712.8 L-510.3 -712.8 L-509.4 -712.8 L-508.4 -712.8 L-507.4 -712.8 L-506.4 -712.7 L-505.4 -712.7 L-504.4 -712.7 L-503.4 -712.7 L-502.5 -712.7 L-501.5 -712.7 L-500.5 -712.7 L-499.5 -712.7 L-498.5 -712.7 L-497.5 -712.7 L-496.5 -712.7 L-495.6 -712.6 L-494.6 -712.6 L-493.6 -712.6 L-492.6 -712.6 L-491.6 -712.6 L-490.6 -712.6 L-489.6 -712.6 L-488.7 -712.6 L-487.7 -712.6 L-487.7 -711.6 L-487.7 -710.6 L-487.7 -709.6 L-487.7 -708.6 L-487.7 -707.6 L-487.7 -706.6 L-487.7 -705.7 L-487.7 -704.7 L-487.8 -703.7 L-487.8 -702.7 L-487.8 -701.7 L-487.8 -700.7 L-487.8 -699.7 L-487.8 -698.8 L-487.8 -697.8 L-487.8 -696.8 L-487.8 -695.8 L-487.8 -694.8 L-487.9 -693.8 L-487.9 -692.8 L-487.9 -691.9 L-487.9 -690.9 L-487.9 -689.9 L-487.9 -688.9 L-487.9 -687.9 L-488.9 -687.9 L-489.9 -687.9 L-490.9 -687.9 L-491.9 -688 L-492.8 -688 L-493.8 -688 L-494.8 -688 L-495.8 -688 L-496.8 -688 L-497.8 -688 L-498.8 -688 L-499.7 -688 L-500.7 -688 L-501.7 -688 L-502.7 -688.1 L-503.7 -688.1 L-504.7 -688.1 L-505.7 -688.1 L-506.6 -688.1 L-507.6 -688.1 L-508.6 -688.1 L-509.6 -688.1 L-510.6 -688.1 L-511.6 -688.1 L-512.6 -688.2 Z " />
<path stroke="rgb(0,0,0)" stroke-opacity="0.803" fill="rgb(255,255,255)" fill-opacity="1" d="M24.8 -299.8 L24.71 -297.8 L24.45 -295.9 L24.05 -293.9 L23.49 -292 L22.78 -290.2 L21.93 -288.4 L20.94 -286.7 L19.82 -285.1 L18.57 -283.6 L17.21 -282.1 L15.74 -280.8 L14.16 -279.6 L12.5 -278.6 L10.76 -277.7 L8.949 -276.9 L7.083 -276.2 L5.172 -275.7 L3.229 -275.4 L1.265 -275.2 L-0.7071 -275.2 L-2.674 -275.3 L-4.625 -275.6 L-6.546 -276.1 L-8.426 -276.7 L-10.25 -277.4 L-12.01 -278.3 L-13.7 -279.3 L-15.3 -280.5 L-16.8 -281.8 L-18.2 -283.2 L-19.48 -284.7 L-20.64 -286.3 L-21.66 -287.9 L-22.55 -289.7 L-23.3 -291.5 L-23.9 -293.4 L-24.35 -295.3 L-24.65 -297.3 L-24.79 -299.2 L-24.77 -301.2 L-24.6 -303.2 L-24.27 -305.1 L-23.78 -307 L-23.15 -308.9 L-22.37 -310.7 L-21.45 -312.4 L-20.39 -314.1 L-19.21 -315.7 L-17.9 -317.2 L-16.48 -318.5 L-14.96 -319.8 L-13.34 -320.9 L-11.63 -321.9 L-9.856 -322.8 L-8.017 -323.5 L-6.127 -324 L-4.199 -324.4 L-2.243 -324.7 L-0.274 -324.8 L1.697 -324.7 L3.658 -324.5 L5.595 -324.2 L7.497 -323.6 L9.352 -323 L11.15 -322.2 L12.87 -321.2 L14.52 -320.1 L16.07 -318.9 L17.52 -317.6 L18.86 -316.1 L20.08 -314.6 L21.17 -312.9 L22.13 -311.2 L22.95 -309.4 L23.63 -307.6 L24.15 -305.7 L24.52 -303.7 L24.74 -301.8 L24.8 -299.8 Z " />
<path stroke="rgb(0,0,0)" stroke-opacity="1" fill="rgb(255,255,255)" fill-opacity="1" d="M-313.6 -688.6 L-313.5 -689.6 L-313.5 -690.6 L-313.4 -691.6 L-313.3 -692.6 L-313.3 -693.7 L-313.2 -694.7 L-313.1 -695.7 L-313 -696.7 L-313 -697.7 L-312.9 -698.7 L-312.8 -699.7 L-312.8 -700.7 L-312.7 -701.7 L-312.6 -702.8 L-312.6 -703.8 L-312.5 -704.8 L-312.4 -705.8 L-312.3 -706.8 L-312.3 -707.8 L-312.2 -708.8 L-312.1 -709.8 L-312.1 -710.8 L-312 -711.8 L-311.9 -712.9 L-311.9 -713.9 L-310.8 -713.8 L-309.8 -713.7 L-308.8 -713.7 L-307.8 -713.6 L-306.8 -713.5 L-305.8 -713.4 L-304.8 -713.4 L-303.8 -713.3 L-302.8 -713.2 L-301.8 -713.2 L-300.7 -713.1 L-299.7 -713 L-298.7 -712.9 L-297.7 -712.9 L-296.7 -712.8 L-295.7 -712.7 L-294.7 -712.7 L-293.7 -712.6 L-292.7 -712.5 L-291.6 -712.5 L-290.6 -712.4 L-289.6 -712.3 L-288.6 -712.2 L-287.6 -712.2 L-286.6 -712.1 L-286.7 -711.1 L-286.7 -710.1 L-286.8 -709.1 L-286.9 -708.1 L-286.9 -707.1 L-287 -706 L-287.1 -705 L-287.2 -704 L-287.2 -703 L-287.3 -702 L-287.4 -701 L-287.4 -700 L-287.5 -699 L-287.6 -698 L-287.7 -696.9 L-287.7 -695.9 L-287.8 -694.9 L-287.9 -693.9 L-287.9 -692.9 L-288 -691.9 L-288.1 -690.9 L-288.1 -689.9 L-288.2 -688.9 L-288.3 -687.9 L-288.4 -686.8 L-289.4 -686.9 L-290.4 -687 L-291.4 -687.1 L-292.4 -687.1 L-293.4 -687.2 L-294.4 -687.3 L-295.4 -687.3 L-296.4 -687.4 L-297.5 -687.5 L-298.5 -687.6 L-299.5 -687.6 L-300.5 -687.7 L-301.5 -687.8 L-302.5 -687.8 L-303.5 -687.9 L-304.5 -688 L-305.5 -688 L-306.5 -688.1 L-307.6 -688.2 L-308.6 -688.3 L-309.6 -688.3 L-310.6 -688.4 L-311.6 -688.5 L-312.6 -688.5 L-313.6 -688.6 Z " />
<path stroke="rgb(0,0,0)" stroke-opacity="0.803" fill="rgb(255,255,255)" fill-opacity="1" d="M224.8 -299.8 L224.7 -297.8 L224.5 -295.9 L224 -293.9 L223.5 -292 L222.8 -290.2 L221.9 -288.4 L220.9 -286.7 L219.8 -285.1 L218.6 -283.6 L217.2 -282.1 L215.7 -280.8 L214.2 -279.6 L212.5 -278.6 L210.8 -277.7 L208.9 -276.9 L207.1 -276.2 L205.2 -275.7 L203.2 -275.4 L201.3 -275.2 L199.3 -275.2 L197.3 -275.3 L195.4 -275.6 L193.5 -276.1 L191.6 -276.7 L189.7 -277.4 L188 -278.3 L186.3 -279.3 L184.7 -280.5 L183.2 -281.8 L181.8 -283.2 L180.5 -284.7 L179.4 -286.3 L178.3 -287.9 L177.4 -289.7 L176.7 -291.5 L176.1 -293.4 L175.6 -295.3 L175.4 -297.3 L175.2 -299.2 L175.2 -301.2 L175.4 -303.2 L175.7 -305.1 L176.2 -307 L176.9 -308.9 L177.6 -310.7 L178.6 -312.4 L179.6 -314.1 L180.8 -315.7 L182.1 -317.2 L183.5 -318.5 L185 -319.8 L186.7 -320.9 L188.4 -321.9 L190.1 -322.8 L192 -323.5 L193.9 -324 L195.8 -324.4 L197.8 -324.7 L199.7 -324.8 L201.7 -324.7 L203.7 -324.5 L205.6 -324.2 L207.5 -323.6 L209.4 -323 L211.1 -322.2 L212.9 -321.2 L214.5 -320.1 L216.1 -318.9 L217.5 -317.6 L218.9 -316.1 L220.1 -314.6 L221.2 -312.9 L222.1 -311.2 L223 -309.4 L223.6 -307.6 L224.2 -305.7 L224.5 -303.7 L224.7 -301.8 L224.8 -299.8 Z " />
<path stroke="rgb(0,0,0)" stroke-opacity="1" fill="rgb(255,255,255)" fill-opacity="1" d="M-119.1 -692.4 L-118.7 -693.5 L-118.2 -694.6 L-117.8 -695.7 L-117.3 -696.7 L-116.9 -697.8 L-116.5 -698.9 L-116 -700 L-115.6 -701.1 L-115.1 -702.1 L-114.7 -703.2 L-114.2 -704.3 L-113.8 -705.4 L-113.3 -706.5 L-112.9 -707.5 L-112.4 -708.6 L-112 -709.7 L-111.5 -710.8 L-111.1 -711.9 L-110.6 -712.9 L-110.2 -714 L-109.7 -715.1 L-109.3 -716.2 L-108.8 -717.3 L-108.4 -718.3 L-107.9 -719.4 L-106.9 -719 L-105.8 -718.5 L-104.7 -718.1 L-103.6 -717.6 L-102.5 -717.2 L-101.5 -716.7 L-100.4 -716.3 L-99.31 -715.8 L-98.23 -715.4 L-97.15 -714.9 L-96.07 -714.5 L-94.99 -714 L-93.91 -713.6 L-92.83 -713.1 L-91.75 -712.7 L-90.67 -712.2 L-89.59 -711.8 L-88.51 -711.3 L-87.43 -710.9 L-86.35 -710.4 L-85.28 -710 L-84.2 -709.6 L-83.12 -709.1 L-82.04 -708.7 L-80.96 -708.2 L-81.41 -707.1 L-81.85 -706 L-82.3 -705 L-82.75 -703.9 L-83.2 -702.8 L-83.65 -701.7 L-84.09 -700.7 L-84.54 -699.6 L-84.99 -698.5 L-85.44 -697.4 L-85.89 -696.3 L-86.34 -695.3 L-86.78 -694.2 L-87.23 -693.1 L-87.68 -692 L-88.13 -690.9 L-88.58 -689.9 L-89.02 -688.8 L-89.47 -687.7 L-89.92 -686.6 L-90.37 -685.5 L-90.82 -684.5 L-91.26 -683.4 L-91.71 -682.3 L-92.16 -681.2 L-93.24 -681.7 L-94.32 -682.1 L-95.4 -682.6 L-96.48 -683 L-97.56 -683.5 L-98.64 -683.9 L-99.72 -684.4 L-100.8 -684.8 L-101.9 -685.3 L-103 -685.7 L-104 -686.2 L-105.1 -686.6 L-106.2 -687.1 L-107.3 -687.5 L-108.3 -687.9 L-109.4 -688.4 L-110.5 -688.8 L-111.6 -689.3 L-112.7 -689.7 L-113.7 -690.2 L-114.8 -690.6 L-115.9 -691.1 L-117 -691.5 L-118.1 -692 L-119.1 -692.4 Z " />
<path stroke="rgb(0,0,0)" stroke-opacity="0.803" fill="rgb(255,255,255)" fill-opacity="1" d="M-275.2 -199.8 L-275.3 -197.8 L-275.5 -195.9 L-276 -193.9 L-276.5 -192 L-277.2 -190.2 L-278.1 -188.4 L-279.1 -186.7 L-280.2 -185.1 L-281.4 -183.6 L-282.8 -182.1 L-284.3 -180.8 L-285.8 -179.6 L-287.5 -178.6 L-289.2 -177.7 L-291.1 -176.9 L-292.9 -176.2 L-294.8 -175.7 L-296.8 -175.4 L-298.7 -175.2 L-300.7 -175.2 L-302.7 -175.3 L-304.6 -175.6 L-306.5 -176.1 L-308.4 -176.7 L-310.3 -177.4 L-312 -178.3 L-313.7 -179.3 L-315.3 -180.5 L-316.8 -181.8 L-318.2 -183.2 L-319.5 -184.7 L-320.6 -186.3 L-321.7 -187.9 L-322.6 -189.7 L-323.3 -191.5 L-323.9 -193.4 L-324.4 -195.3 L-324.6 -197.3 L-324.8 -199.2 L-324.8 -201.2 L-324.6 -203.2 L-324.3 -205.1 L-323.8 -207 L-323.1 -208.9 L-322.4 -210.7 L-321.4 -212.4 L-320.4 -214.1 L-319.2 -215.7 L-317.9 -217.2 L-316.5 -218.5 L-315 -219.8 L-313.3 -220.9 L-311.6 -221.9 L-309.9 -222.8 L-308 -223.5 L-306.1 -224 L-304.2 -224.4 L-302.2 -224.7 L-300.3 -224.8 L-298.3 -224.7 L-296.3 -224.5 L-294.4 -224.2 L-292.5 -223.6 L-290.6 -223 L-288.9 -222.2 L-287.1 -221.2 L-285.5 -220.1 L-283.9 -218.9 L-282.5 -217.6 L-281.1 -216.1 L-279.9 -214.6 L-278.8 -212.9 L-277.9 -211.2 L-277 -209.4 L-276.4 -207.6 L-275.8 -205.7 L-275.5 -203.7 L-275.3 -201.8 L-275.2 -199.8 Z " />
<path stroke="rgb(0,0,0)" stroke-opacity="1" fill="rgb(255,255,255)" fill-opacity="1" d="M-612.6 -588.2 L-612.6 -589.1 L-612.5 -590.1 L-612.5 -591.1 L-612.5 -592.1 L-612.5 -593.1 L-612.5 -594.1 L-612.5 -595.1 L-612.5 -596 L-612.5 -597 L-612.5 -598 L-612.5 -599 L-612.4 -600 L-612.4 -601 L-612.4 -602 L-612.4 -602.9 L-612.4 -603.9 L-612.4 -604.9 L-612.4 -605.9 L-612.4 -606.9 L-612.4 -607.9 L-612.4 -608.9 L-612.4 -609.8 L-612.3 -610.8 L-612.3 -611.8 L-612.3 -612.8 L-611.3 -612.8 L-610.3 -612.8 L-609.4 -612.8 L-608.4 -612.8 L-607.4 -612.8 L-606.4 -612.7 L-605.4 -612.7 L-604.4 -612.7 L-603.4 -612.7 L-602.5 -612.7 L-601.5 -612.7 L-600.5 -612.7 L-599.5 -612.7 L-598.5 -612.7 L-597.5 -612.7 L-596.5 -612.7 L-595.6 -612.6 L-594.6 -612.6 L-593.6 -612.6 L-592.6 -612.6 L-591.6 -612.6 L-590.6 -612.6 L-589.6 -612.6 L-588.7 -612.6 L-587.7 -612.6 L-587.7 -611.6 L-587.7 -610.6 L-587.7 -609.6 L-587.7 -608.6 L-587.7 -607.6 L-587.7 -606.6 L-587.7 -605.7 L-587.7 -604.7 L-587.8 -603.7 L-587.8 -602.7 L-587.8 -601.7 L-587.8 -600.7 L-587.8 -599.7 L-587.8 -598.8 L-587.8 -597.8 L-587.8 -596.8 L-587.8 -595.8 L-587.8 -594.8 L-587.9 -593.8 L-587.9 -592.8 L-587.9 -591.9 L-587.9 -590.9 L-587.9 -589.9 L-587.9 -588.9 L-587.9 -587.9 L-588.9 -587.9 L-589.9 -587.9 L-590.9 -587.9 L-591.9 -588 L-592.8 -588 L-593.8 -588 L-594.8 -588 L-595.8 -588 L-596.8 -588 L-597.8 -588 L-598.8 -588 L-599.7 -588 L-600.7 -588 L-601.7 -588 L-602.7 -588.1 L-603.7 -588.1 L-604.7 -588.1 L-605.7 -588.1 L-606.6 -588.1 L-607.6 -588.1 L-608.6 -588.1 L-609.6 -588.1 L-610.6 -588.1 L-611.6 -588.1 L-612.6 -588.2 Z " />
<path stroke="rgb(0,0,0)" stroke-opacity="0.803" fill="rgb(255,255,255)" fill-opacity="1" d="M-75.2 -199.8 L-75.29 -197.8 L-75.55 -195.9 L-75.95 -193.9 L-76.51 -192 L-77.22 -190.2 L-78.07 -188.4 L-79.06 -186.7 L-80.18 -185.1 L-81.43 -183.6 L-82.79 -182.1 L-84.26 -180.8 L-85.84 -179.6 L-87.5 -178.6 L-89.24 -177.7 L-91.05 -176.9 L-92.92 -176.2 L-94.83 -175.7 L-96.77 -175.4 L-98.74 -175.2 L-100.7 -175.2 L-102.7 -175.3 L-104.6 -175.6 L-106.5 -176.1 L-108.4 -176.7 L-110.3 -177.4 L-112 -178.3 L-113.7 -179.3 L-115.3 -180.5 L-116.8 -181.8 L-118.2 -183.2 L-119.5 -184.7 L-120.6 -186.3 L-121.7 -187.9 L-122.6 -189.7 L-123.3 -191.5 L-123.9 -193.4 L-124.4 -195.3 L-124.6 -197.3 L-124.8 -199.2 L-124.8 -201.2 L-124.6 -203.2 L-124.3 -205.1 L-123.8 -207 L-123.1 -208.9 L-122.4 -210.7 L-121.4 -212.4 L-120.4 -214.1 L-119.2 -215.7 L-117.9 -217.2 L-116.5 -218.5 L-115 -219.8 L-113.3 -220.9 L-111.6 -221.9 L-109.9 -222.8 L-108 -223.5 L-106.1 -224 L-104.2 -224.4 L-102.2 -224.7 L-100.3 -224.8 L-98.3 -224.7 L-96.34 -224.5 L-94.41 -224.2 L-92.5 -223.6 L-90.65 -223 L-88.85 -222.2 L-87.13 -221.2 L-85.48 -220.1 L-83.93 -218.9 L-82.48 -217.6 L-81.14 -216.1 L-79.92 -214.6 L-78.83 -212.9 L-77.87 -211.2 L-77.05 -209.4 L-76.37 -207.6 L-75.85 -205.7 L-75.48 -203.7 L-75.26 -201.8 L-75.2 -199.8 Z " />
<path stroke="rgb(0,0,0)" stroke-opacity="1" fill="rgb(255,255,255)" fill-opacity="1" d="M-413.6 -588.6 L-413.5 -589.6 L-413.5 -590.6 L-413.4 -591.6 L-413.3 -592.6 L-413.3 -593.7 L-413.2 -594.7 L-413.1 -595.7 L-413 -596.7 L-413 -597.7 L-412.9 -598.7 L-412.8 -599.7 L-412.8 -600.7 L-412.7 -601.7 L-412.6 -602.8 L-412.6 -603.8 L-412.5 -604.8 L-412.4 -605.8 L-412.3 -606.8 L-412.3 -607.8 L-412.2 -608.8 L-412.1 -609.8 L-412.1 -610.8 L-412 -611.8 L-411.9 -612.9 L-411.9 -613.9 L-410.8 -613.8 L-409.8 -613.7 L-408.8 -613.7 L-407.8 -613.6 L-406.8 -613.5 L-405.8 -613.4 L-404.8 -613.4 L-403.8 -613.3 L-402.8 -613.2 L-401.8 -613.2 L-400.7 -613.1 L-399.7 -613 L-398.7 -612.9 L-397.7 -612.9 L-396.7 -612.8 L-395.7 -612.7 L-394.7 -612.7 L-393.7 -612.6 L-392.7 -612.5 L-391.6 -612.5 L-390.6 -612.4 L-389.6 -612.3 L-388.6 -612.2 L-387.6 -612.2 L-386.6 -612.1 L-386.7 -611.1 L-386.7 -610.1 L-386.8 -609.1 L-386.9 -608.1 L-386.9 -607.1 L-387 -606 L-387.1 -605 L-387.2 -604 L-387.2 -603 L-387.3 -602 L-387.4 -601 L-387.4 -600 L-387.5 -599 L-387.6 -598 L-387.7 -596.9 L-387.7 -595.9 L-387.8 -594.9 L-387.9 -593.9 L-387.9 -592.9 L-388 -591.9 L-388.1 -590.9 L-388.1 -589.9 L-388.2 -588.9 L-388.3 -587.9 L-388.4 -586.8 L-389.4 -586.9 L-390.4 -587 L-391.4 -587.1 L-392.4 -587.1 L-393.4 -587.2 L-394.4 -587.3 L-395.4 -587.3 L-396.4 -587.4 L-397.5 -587.5 L-398.5 -587.6 L-399.5 -587.6 L-400.5 -587.7 L-401.5 -587.8 L-402.5 -587.8 L-403.5 -587.9 L-404.5 -588 L-405.5 -588 L-406.5 -588.1 L-407.6 -588.2 L-408.6 -588.3 L-409.6 -588.3 L-410.6 -588.4 L-411.6 -588.5 L-412.6 -588.5 L-413.6 -588.6 Z " />
<path stroke="rgb(0,0,0)" stroke-opacity="0.803" fill="rgb(255,255,255)" fill-opacity="1" d="M124.8 -199.8 L124.7 -197.8 L124.5 -195.9 L124 -193.9 L123.5 -192 L122.8 -190.2 L121.9 -188.4 L120.9 -186.7 L119.8 -185.1 L118.6 -183.6 L117.2 -182.1 L115.7 -180.8 L114.2 -179.6 L112.5 -178.6 L110.8 -177.7 L108.9 -176.9 L107.1 -176.2 L105.2 -175.7 L103.2 -175.4 L101.3 -175.2 L99.29 -175.2 L97.33 -175.3 L95.38 -175.6 L93.45 -176.1 L91.57 -176.7 L89.75 -177.4 L87.99 -178.3 L86.3 -179.3 L84.7 -180.5 L83.2 -181.8 L81.8 -183.2 L80.52 -184.7 L79.36 -186.3 L78.34 -187.9 L77.45 -189.7 L76.7 -191.5 L76.1 -193.4 L75.65 -195.3 L75.35 -197.3 L75.21 -199.2 L75.23 -201.2 L75.4 -203.2 L75.73 -205.1 L76.22 -207 L76.85 -208.9 L77.63 -210.7 L78.55 -212.4 L79.61 -214.1 L80.79 -215.7 L82.1 -217.2 L83.52 -218.5 L85.04 -219.8 L86.66 -220.9 L88.37 -221.9 L90.14 -222.8 L91.98 -223.5 L93.87 -224 L95.8 -224.4 L97.76 -224.7 L99.73 -224.8 L101.7 -224.7 L103.7 -224.5 L105.6 -224.2 L107.5 -223.6 L109.4 -223 L111.1 -222.2 L112.9 -221.2 L114.5 -220.1 L116.1 -218.9 L117.5 -217.6 L118.9 -216.1 L120.1 -214.6 L121.2 -212.9 L122.1 -211.2 L123 -209.4 L123.6 -207.6 L124.2 -205.7 L124.5 -203.7 L124.7 -201.8 L124.8 -199.8 Z " />
<path stroke="rgb(0,0,0)" stroke-opacity="1" fill="rgb(255,255,255)" fill-opacity="1" d="M-219.1 -592.4 L-218.7 -593.5 L-218.2 -594.6 L-217.8 -595.7 L-217.3 -596.7 L-216.9 -597.8 L-216.5 -598.9 L-216 -600 L-215.6 -601.1 L-215.1 -602.1 L-214.7 -603.2 L-214.2 -604.3 L-213.8 -605.4 L-213.3 -606.5 L-212.9 -607.5 L-212.4 -608.6 L-212 -609.7 L-211.5 -610.8 L-211.1 -611.9 L-210.6 -612.9 L-210.2 -614 L-209.7 -615.1 L-209.3 -616.2 L-208.8 -617.3 L-208.4 -618.3 L-207.9 -619.4 L-206.9 -619 L-205.8 -618.5 L-204.7 -618.1 L-203.6 -617.6 L-202.5 -617.2 L-201.5 -616.7 L-200.4 -616.3 L-199.3 -615.8 L-198.2 -615.4 L-197.1 -614.9 L-196.1 -614.5 L-195 -614 L-193.9 -613.6 L-192.8 -613.1 L-191.8 -612.7 L-190.7 -612.2 L-189.6 -611.8 L-188.5 -611.3 L-187.4 -610.9 L-186.4 -610.4 L-185.3 -610 L-184.2 -609.6 L-183.1 -609.1 L-182 -608.7 L-181 -608.2 L-181.4 -607.1 L-181.9 -606 L-182.3 -605 L-182.8 -603.9 L-183.2 -602.8 L-183.6 -601.7 L-184.1 -600.7 L-184.5 -599.6 L-185 -598.5 L-185.4 -597.4 L-185.9 -596.3 L-186.3 -595.3 L-186.8 -594.2 L-187.2 -593.1 L-187.7 -592 L-188.1 -590.9 L-188.6 -589.9 L-189 -588.8 L-189.5 -587.7 L-189.9 -586.6 L-190.4 -585.5 L-190.8 -584.5 L-191.3 -583.4 L-191.7 -582.3 L-192.2 -581.2 L-193.2 -581.7 L-194.3 -582.1 L-195.4 -582.6 L-196.5 -583 L-197.6 -583.5 L-198.6 -583.9 L-199.7 -584.4 L-200.8 -584.8 L-201.9 -585.3 L-203 -585.7 L-204 -586.2 L-205.1 -586.6 L-206.2 -587.1 L-207.3 -587.5 L-208.3 -587.9 L-209.4 -588.4 L-210.5 -588.8 L-211.6 -589.3 L-212.7 -589.7 L-213.7 -590.2 L-214.8 -590.6 L-215.9 -591.1 L-217 -591.5 L-218.1 -592 L-219.1 -592.4 Z " />
<path stroke="rgb(0,0,0)" stroke-opacity="0.803" fill="rgb(255,255,255)" fill-opacity="1" d="M324.8 -199.8 L324.7 -197.8 L324.5 -195.9 L324 -193.9 L323.5 -192 L322.8 -190.2 L321.9 -188.4 L320.9 -186.7 L319.8 -185.1 L318.6 -183.6 L317.2 -182.1 L315.7 -180.8 L314.2 -179.6 L312.5 -178.6 L310.8 -177.7 L308.9 -176.9 L307.1 -176.2 L305.2 -175.7 L303.2 -175.4 L301.3 -175.2 L299.3 -175.2 L297.3 -175.3 L295.4 -175.6 L293.5 -176.1 L291.6 -176.7 L289.7 -177.4 L288 -178.3 L286.3 -179.3 L284.7 -180.5 L283.2 -181.8 L281.8 -183.2 L280.5 -184.7 L279.4 -186.3 L278.3 -187.9 L277.4 -189.7 L276.7 -191.5 L276.1 -193.4 L275.6 -195.3 L275.4 -197.3 L275.2 -199.2 L275.2 -201.2 L275.4 -203.2 L275.7 -205.1 L276.2 -207 L276.9 -208.9 L277.6 -210.7 L278.6 -212.4 L279.6 -214.1 L280.8 -215.7 L282.1 -217.2 L283.5 -218.5 L285 -219.8 L286.7 -220.9 L288.4 -221.9 L290.1 -222.8 L292 -223.5 L293.9 -224 L295.8 -224.4 L297.8 -224.7 L299.7 -224.8 L301.7 -224.7 L303.7 -224.5 L305.6 -224.2 L307.5 -223.6 L309.4 -223 L311.1 -222.2 L312.9 -221.2 L314.5 -220.1 L316.1 -218.9 L317.5 -217.6 L318.9 -216.1 L320.1 -214.6 L321.2 -212.9 L322.1 -211.2 L323 -209.4 L323.6 -207.6 L324.2 -205.7 L324.5 -203.7 L324.7 -201.8 L324.8 -199.8 Z " />
<path stroke="rgb(0,0,0)" stroke-opacity="1" fill="rgb(255,255,255)" fill-opacity="1" d="M-712.6 -488.2 L-712.6 -489.1 L-712.5 -490.1 L-712.5 -491.1 L-712.5 -492.1 L-712.5 -493.1 L-712.5 -494.1 L-712.5 -495.1 L-712.5 -496 L-712.5 -497 L-712.5 -498 L-712.5 -499 L-712.4 -500 L-712.4 -501 L-712.4 -502 L-712.4 -502.9 L-712.4 -503.9 L-712.4 -504.9 L-712.4 -505.9 L-712.4 -506.9 L-712.4 -507.9 L-712.4 -508.9 L-712.4 -509.8 L-712.3 -510.8 L-712.3 -511.8 L-712.3 -512.8 L-711.3 -512.8 L-710.3 -512.8 L-709.4 -512.8 L-708.4 -512.8 L-707.4 -512.8 L-706.4 -512.7 L-705.4 -512.7 L-704.4 -512.7 L-703.4 -512.7 L-702.5 -512.7 L-701.5 -512.7 L-700.5 -512.7 L-699.5 -512.7 L-698.5 -512.7 L-697.5 -512.7 L-696.5 -512.7 L-695.6 -512.6 L-694.6 -512.6 L-693.6 -512.6 L-692.6 -512.6 L-691.6 -512.6 L-690.6 -512.6 L-689.6 -512.6 L-688.7 -512.6 L-687.7 -512.6 L-687.7 -511.6 L-687.7 -510.6 L-687.7 -509.6 L-687.7 -508.6 L-687.7 -507.6 L-687.7 -506.6 L-687.7 -505.7 L-687.7 -504.7 L-687.8 -503.7 L-687.8 -502.7 L-687.8 -501.7 L-687.8 -500.7 L-687.8 -499.7 L-687.8 -498.8 L-687.8 -497.8 L-687.8 -496.8 L-687.8 -495.8 L-687.8 -494.8 L-687.9 -493.8 L-687.9 -492.8 L-687.9 -491.9 L-687.9 -490.9 L-687.9 -489.9 L-687.9 -488.9 L-687.9 -487.9 L-688.9 -487.9 L-689.9 -487.9 L-690.9 -487.9 L-691.9 -488 L-692.8 -488 L-693.8 -488 L-694.8 -488 L-695.8 -488 L-696.8 -488 L-697.8 -488 L-698.8 -488 L-699.7 -488 L-700.7 -488 L-701.7 -488 L-702.7 -488.1 L-703.7 -488.1 L-704.7 -488.1 L-705.7 -488.1 L-706.6 -488.1 L-707.6 -488.1 L-708.6 -488.1 L-709.6 -488.1 L-710.6 -488.1 L-711.6 -488.1 L-712.6 -488.2 Z " />
<path stroke="rgb(0,0,0)" stroke-opacity="0.803" fill="rgb(255,255,255)" fill-opacity="1" d="M-175.2 -99.79 L-175.3 -97.82 L-175.5 -95.86 L-176 -93.93 L-176.5 -92.04 L-177.2 -90.2 L-178.1 -88.42 L-179.1 -86.71 L-180.2 -85.09 L-181.4 -83.57 L-182.8 -82.14 L-184.3 -80.83 L-185.8 -79.64 L-187.5 -78.58 L-189.2 -77.66 L-191.1 -76.87 L-192.9 -76.23 L-194.8 -75.75 L-196.8 -75.41 L-198.7 -75.23 L-200.7 -75.21 L-202.7 -75.35 L-204.6 -75.64 L-206.5 -76.08 L-208.4 -76.68 L-210.3 -77.42 L-212 -78.31 L-213.7 -79.33 L-215.3 -80.48 L-216.8 -81.76 L-218.2 -83.16 L-219.5 -84.65 L-220.6 -86.25 L-221.7 -87.93 L-222.6 -89.69 L-223.3 -91.52 L-223.9 -93.4 L-224.4 -95.32 L-224.6 -97.27 L-224.8 -99.23 L-224.8 -101.2 L-224.6 -103.2 L-224.3 -105.1 L-223.8 -107 L-223.1 -108.9 L-222.4 -110.7 L-221.4 -112.4 L-220.4 -114.1 L-219.2 -115.7 L-217.9 -117.2 L-216.5 -118.5 L-215 -119.8 L-213.3 -120.9 L-211.6 -121.9 L-209.9 -122.8 L-208 -123.5 L-206.1 -124 L-204.2 -124.4 L-202.2 -124.7 L-200.3 -124.8 L-198.3 -124.7 L-196.3 -124.5 L-194.4 -124.2 L-192.5 -123.6 L-190.6 -123 L-188.9 -122.2 L-187.1 -121.2 L-185.5 -120.1 L-183.9 -118.9 L-182.5 -117.6 L-181.1 -116.1 L-179.9 -114.6 L-178.8 -112.9 L-177.9 -111.2 L-177 -109.4 L-176.4 -107.6 L-175.8 -105.7 L-175.5 -103.7 L-175.3 -101.8 L-175.2 -99.79 Z " />
<path stroke="rgb(0,0,0)" stroke-opacity="1" fill="rgb(255,255,255)" fill-opacity="1" d="M-513.6 -488.6 L-513.5 -489.6 L-513.5 -490.6 L-513.4 -491.6 L-513.3 -492.6 L-513.3 -493.7 L-513.2 -494.7 L-513.1 -495.7 L-513 -496.7 L-513 -497.7 L-512.9 -498.7 L-512.8 -499.7 L-512.8 -500.7 L-512.7 -501.7 L-512.6 -502.8 L-512.6 -503.8 L-512.5 -504.8 L-512.4 -505.8 L-512.3 -506.8 L-512.3 -507.8 L-512.2 -508.8 L-512.1 -509.8 L-512.1 -510.8 L-512 -511.8 L-511.9 -512.9 L-511.9 -513.9 L-510.8 -513.8 L-509.8 -513.7 L-508.8 -513.7 L-507.8 -513.6 L-506.8 -513.5 L-505.8 -513.4 L-504.8 -513.4 L-503.8 -513.3 L-502.8 -513.2 L-501.8 -513.2 L-500.7 -513.1 L-499.7 -513 L-498.7 -512.9 L-497.7 -512.9 L-496.7 -512.8 L-495.7 -512.7 L-494.7 -512.7 L-493.7 -512.6 L-492.7 -512.5 L-491.6 -512.5 L-490.6 -512.4 L-489.6 -512.3 L-488.6 -512.2 L-487.6 -512.2 L-486.6 -512.1 L-486.7 -511.1 L-486.7 -510.1 L-486.8 -509.1 L-486.9 -508.1 L-486.9 -507.1 L-487 -506 L-487.1 -505 L-487.2 -504 L-487.2 -503 L-487.3 -502 L-487.4 -501 L-487.4 -500 L-487.5 -499 L-487.6 -498 L-487.7 -496.9 L-487.7 -495.9 L-487.8 -494.9 L-487.9 -493.9 L-487.9 -492.9 L-488 -491.9 L-488.1 -490.9 L-488.1 -489.9 L-488.2 -488.9 L-488.3 -487.9 L-488.4 -486.8 L-489.4 -486.9 L-490.4 -487 L-491.4 -487.1 L-492.4 -487.1 L-493.4 -487.2 L-494.4 -487.3 L-495.4 -487.3 L-496.4 -487.4 L-497.5 -487.5 L-498.5 -487.6 L-499.5 -487.6 L-500.5 -487.7 L-501.5 -487.8 L-502.5 -487.8 L-503.5 -487.9 L-504.5 -488 L-505.5 -488 L-506.5 -488.1 L-507.6 -488.2 L-508.6 -488.3 L-509.6 -488.3 L-510.6 -488.4 L-511.6 -488.5 L-512.6 -488.5 L-513.6 -488.6 Z " />
<path stroke="rgb(0,0,0)" stroke-opacity="0.803" fill="rgb(255,255,255)" fill-opacity="1" d="M24.8 -99.79 L24.71 -97.82 L24.45 -95.86 L24.05 -93.93 L23.49 -92.04 L22.78 -90.2 L21.93 -88.42 L20.94 -86.71 L19.82 -85.09 L18.57 -83.57 L17.21 -82.14 L15.74 -80.83 L14.16 -79.64 L12.5 -78.58 L10.76 -77.66 L8.949 -76.87 L7.083 -76.23 L5.172 -75.75 L3.229 -75.41 L1.265 -75.23 L-0.7071 -75.21 L-2.674 -75.35 L-4.625 -75.64 L-6.546 -76.08 L-8.426 -76.68 L-10.25 -77.42 L-12.01 -78.31 L-13.7 -79.33 L-15.3 -80.48 L-16.8 -81.76 L-18.2 -83.16 L-19.48 -84.65 L-20.64 -86.25 L-21.66 -87.93 L-22.55 -89.69 L-23.3 -91.52 L-23.9 -93.4 L-24.35 -95.32 L-24.65 -97.27 L-24.79 -99.23 L-24.77 -101.2 L-24.6 -103.2 L-24.27 -105.1 L-23.78 -107 L-23.15 -108.9 L-22.37 -110.7 L-21.45 -112.4 L-20.39 -114.1 L-19.21 -115.7 L-17.9 -117.2 L-16.48 -118.5 L-14.96 -119.8 L-13.34 -120.9 L-11.63 -121.9 L-9.856 -122.8 L-8.017 -123.5 L-6.127 -124 L-4.199 -124.4 L-2.243 -124.7 L-0.274 -124.8 L1.697 -124.7 L3.658 -124.5 L5.595 -124.2 L7.497 -123.6 L9.352 -123 L11.15 -122.2 L12.87 -121.2 L14.52 -120.1 L16.07 -118.9 L17.52 -117.6 L18.86 -116.1 L20.08 -114.6 L21.17 -112.9 L22.13 -111.2 L22.95 -109.4 L23.63 -107.6 L24.15 -105.7 L24.52 -103.7 L24.74 -101.8 L24.8 -99.79 Z " />
<path stroke="rgb(0,0,0)" stroke-opacity="1" fill="rgb(255,255,255)" fill-opacity="1" d="M-319.1 -492.4 L-318.7 -493.5 L-318.2 -494.6 L-317.8 -495.7 L-317.3 -496.7 L-316.9 -497.8 L-316.5 -498.9 L-316 -500 L-315.6 -501.1 L-315.1 -502.1 L-314.7 -503.2 L-314.2 -504.3 L-313.8 -505.4 L-313.3 -506.5 L-312.9 -507.5 L-312.4 -508.6 L-312 -509.7 L-311.5 -510.8 L-311.1 -511.9 L-310.6 -512.9 L-310.2 -514 L-309.7 -515.1 L-309.3 -516.2 L-308.8 -517.3 L-308.4 -518.3 L-307.9 -519.4 L-306.9 -519 L-305.8 -518.5 L-304.7 -518.1 L-303.6 -517.6 L-302.5 -517.2 L-301.5 -516.7 L-300.4 -516.3 L-299.3 -515.8 L-298.2 -515.4 L-297.1 -514.9 L-296.1 -514.5 L-295 -514 L-293.9 -513.6 L-292.8 -513.1 L-291.8 -512.7 L-290.7 -512.2 L-289.6 -511.8 L-288.5 -511.3 L-287.4 -510.9 L-286.4 -510.4 L-285.3 -510 L-284.2 -509.6 L-283.1 -509.1 L-282 -508.7 L-281 -508.2 L-281.4 -507.1 L-281.9 -506 L-282.3 -505 L-282.8 -503.9 L-283.2 -502.8 L-283.6 -501.7 L-284.1 -500.7 L-284.5 -499.6 L-285 -498.5 L-285.4 -497.4 L-285.9 -496.3 L-286.3 -495.3 L-286.8 -494.2 L-287.2 -493.1 L-287.7 -492 L-288.1 -490.9 L-288.6 -489.9 L-289 -488.8 L-289.5 -487.7 L-289.9 -486.6 L-290.4 -485.5 L-290.8 -484.5 L-291.3 -483.4 L-291.7 -482.3 L-292.2 -481.2 L-293.2 -481.7 L-294.3 -482.1 L-295.4 -482.6 L-296.5 -483 L-297.6 -483.5 L-298.6 -483.9 L-299.7 -484.4 L-300.8 -484.8 L-301.9 -485.3 L-303 -485.7 L-304 -486.2 L-305.1 -486.6 L-306.2 -487.1 L-307.3 -487.5 L-308.3 -487.9 L-309.4 -488.4 L-310.5 -488.8 L-311.6 -489.3 L-312.7 -489.7 L-313.7 -490.2 L-314.8 -490.6 L-315.9 -491.1 L-317 -491.5 L-318.1 -492 L-319.1 -492.4 Z " />
<path stroke="rgb(0,0,0)" stroke-opacity="0.803" fill="rgb(255,255,255)" fill-opacity="1" d="M224.8 -99.79 L224.7 -97.82 L224.5 -95.86 L224 -93.93 L223.5 -92.04 L222.8 -90.2 L221.9 -88.42 L220.9 -86.71 L219.8 -85.09 L218.6 -83.57 L217.2 -82.14 L215.7 -80.83 L214.2 -79.64 L212.5 -78.58 L210.8 -77.66 L208.9 -76.87 L207.1 -76.23 L205.2 -75.75 L203.2 -75.41 L201.3 -75.23 L199.3 -75.21 L197.3 -75.35 L195.4 -75.64 L193.5 -76.08 L191.6 -76.68 L189.7 -77.42 L188 -78.31 L186.3 -79.33 L184.7 -80.48 L183.2 -81.76 L181.8 -83.16 L180.5 -84.65 L179.4 -86.25 L178.3 -87.93 L177.4 -89.69 L176.7 -91.52 L176.1 -93.4 L175.6 -95.32 L175.4 -97.27 L175.2 -99.23 L175.2 -101.2 L175.4 -103.2 L175.7 -105.1 L176.2 -107 L176.9 -108.9 L177.6 -110.7 L178.6 -112.4 L179.6 -114.1 L180.8 -115.7 L182.1 -117.2 L183.5 -118.5 L185 -119.8 L186.7 -120.9 L188.4 -121.9 L190.1 -122.8 L192 -123.5 L193.9 -124 L195.8 -124.4 L197.8 -124.7 L199.7 -124.8 L201.7 -124.7 L203.7 -124.5 L205.6 -124.2 L207.5 -123.6 L209.4 -123 L211.1 -122.2 L212.9 -121.2 L214.5 -120.1 L216.1 -118.9 L217.5 -117.6 L218.9 -116.1 L220.1 -114.6 L221.2 -112.9 L222.1 -111.2 L223 -109.4 L223.6 -107.6 L224.2 -105.7 L224.5 -103.7 L224.7 -101.8 L224.8 -99.79 Z " />
<path stroke="rgb(0,0,0)" stroke-opacity="1" fill="rgb(255,255,255)" fill-opacity="1" d="M-126.8 -508.9 L-125.4 -509.6 L-124 -510.3 L-122.6 -511.1 L-121.1 -511.8 L-119.7 -512.5 L-118.3 -513.2 L-116.9 -514 L-115.4 -514.7 L-114 -515.4 L-112.6 -516.1 L-111.2 -516.9 L-109.7 -517.6 L-108.3 -518.3 L-106.9 -519 L-105.5 -519.8 L-104 -520.5 L-102.6 -521.2 L-101.2 -521.9 L-99.78 -522.7 L-98.35 -523.4 L-96.93 -524.1 L-95.51 -524.8 L-94.08 -525.6 L-92.66 -526.3 L-91.24 -527 L-90.51 -525.6 L-89.79 -524.2 L-89.06 -522.7 L-88.34 -521.3 L-87.62 -519.9 L-86.89 -518.5 L-86.17 -517 L-85.44 -515.6 L-84.72 -514.2 L-83.99 -512.8 L-83.27 -511.3 L-82.54 -509.9 L-81.82 -508.5 L-81.1 -507.1 L-80.37 -505.7 L-79.65 -504.2 L-78.92 -502.8 L-78.2 -501.4 L-77.47 -500 L-76.75 -498.5 L-76.02 -497.1 L-75.3 -495.7 L-74.57 -494.3 L-73.85 -492.8 L-73.13 -491.4 L-74.55 -490.7 L-75.97 -490 L-77.4 -489.2 L-78.82 -488.5 L-80.24 -487.8 L-81.67 -487.1 L-83.09 -486.3 L-84.51 -485.6 L-85.94 -484.9 L-87.36 -484.2 L-88.78 -483.4 L-90.21 -482.7 L-91.63 -482 L-93.05 -481.3 L-94.48 -480.5 L-95.9 -479.8 L-97.32 -479.1 L-98.75 -478.4 L-100.2 -477.7 L-101.6 -476.9 L-103 -476.2 L-104.4 -475.5 L-105.9 -474.8 L-107.3 -474 L-108.7 -473.3 L-109.4 -474.7 L-110.2 -476.2 L-110.9 -477.6 L-111.6 -479 L-112.3 -480.4 L-113.1 -481.8 L-113.8 -483.3 L-114.5 -484.7 L-115.2 -486.1 L-116 -487.5 L-116.7 -489 L-117.4 -490.4 L-118.1 -491.8 L-118.9 -493.2 L-119.6 -494.7 L-120.3 -496.1 L-121 -497.5 L-121.7 -498.9 L-122.5 -500.3 L-123.2 -501.8 L-123.9 -503.2 L-124.6 -504.6 L-125.4 -506 L-126.1 -507.5 L-126.8 -508.9 Z " />
<path stroke="rgb(0,0,0)" stroke-opacity="0.803" fill="rgb(255,255,255)" fill-opacity="1" d="M-275.2 0.2139 L-275.3 2.184 L-275.5 4.139 L-276 6.069 L-276.5 7.96 L-277.2 9.801 L-278.1 11.58 L-279.1 13.29 L-280.2 14.91 L-281.4 16.43 L-282.8 17.86 L-284.3 19.17 L-285.8 20.36 L-287.5 21.42 L-289.2 22.34 L-291.1 23.13 L-292.9 23.77 L-294.8 24.25 L-296.8 24.59 L-298.7 24.77 L-300.7 24.79 L-302.7 24.65 L-304.6 24.36 L-306.5 23.92 L-308.4 23.32 L-310.3 22.58 L-312 21.69 L-313.7 20.67 L-315.3 19.52 L-316.8 18.24 L-318.2 16.84 L-319.5 15.35 L-320.6 13.75 L-321.7 12.07 L-322.6 10.31 L-323.3 8.482 L-323.9 6.604 L-324.4 4.684 L-324.6 2.734 L-324.8 0.7668 L-324.8 -1.205 L-324.6 -3.169 L-324.3 -5.114 L-323.8 -7.026 L-323.1 -8.893 L-322.4 -10.7 L-321.4 -12.45 L-320.4 -14.11 L-319.2 -15.69 L-317.9 -17.17 L-316.5 -18.53 L-315 -19.78 L-313.3 -20.91 L-311.6 -21.9 L-309.9 -22.76 L-308 -23.47 L-306.1 -24.03 L-304.2 -24.44 L-302.2 -24.7 L-300.3 -24.8 L-298.3 -24.75 L-296.3 -24.53 L-294.4 -24.16 L-292.5 -23.64 L-290.6 -22.97 L-288.9 -22.16 L-287.1 -21.2 L-285.5 -20.11 L-283.9 -18.9 L-282.5 -17.56 L-281.1 -16.11 L-279.9 -14.56 L-278.8 -12.92 L-277.9 -11.2 L-277 -9.407 L-276.4 -7.554 L-275.8 -5.654 L-275.5 -3.717 L-275.3 -1.757 L-275.2 0.2139 Z " />
<path stroke="rgb(0,0,0)" stroke-opacity="1" fill="rgb(255,255,255)" fill-opacity="1" d="M-613.6 -388.6 L-613.5 -389.6 L-613.5 -390.6 L-613.4 -391.6 L-613.3 -392.6 L-613.3 -393.7 L-613.2 -394.7 L-613.1 -395.7 L-613 -396.7 L-613 -397.7 L-612.9 -398.7 L-612.8 -399.7 L-612.8 -400.7 L-612.7 -401.7 L-612.6 -402.8 L-612.6 -403.8 L-612.5 -404.8 L-612.4 -405.8 L-612.3 -406.8 L-612.3 -407.8 L-612.2 -408.8 L-612.1 -409.8 L-612.1 -410.8 L-612 -411.8 L-611.9 -412.9 L-611.9 -413.9 L-610.8 -413.8 L-609.8 -413.7 L-608.8 -413.7 L-607.8 -413.6 L-606.8 -413.5 L-605.8 -413.4 L-604.8 -413.4 L-603.8 -413.3 L-602.8 -413.2 L-601.8 -413.2 L-600.7 -413.1 L-599.7 -413 L-598.7 -412.9 L-597.7 -412.9 L-596.7 -412.8 L-595.7 -412.7 L-594.7 -412.7 L-593.7 -412.6 L-592.7 -412.5 L-591.6 -412.5 L-590.6 -412.4 L-589.6 -412.3 L-588.6 -412.2 L-587.6 -412.2 L-586.6 -412.1 L-586.7 -411.1 L-586.7 -410.1 L-586.8 -409.1 L-586.9 -408.1 L-586.9 -407.1 L-587 -406 L-587.1 -405 L-587.2 -404 L-587.2 -403 L-587.3 -402 L-587.4 -401 L-587.4 -400 L-587.5 -399 L-587.6 -398 L-587.7 -396.9 L-587.7 -395.9 L-587.8 -394.9 L-587.9 -393.9 L-587.9 -392.9 L-588 -391.9 L-588.1 -390.9 L-588.1 -389.9 L-588.2 -388.9 L-588.3 -387.9 L-588.4 -386.8 L-589.4 -386.9 L-590.4 -387 L-591.4 -387.1 L-592.4 -387.1 L-593.4 -387.2 L-594.4 -387.3 L-595.4 -387.3 L-596.4 -387.4 L-597.5 -387.5 L-598.5 -387.6 L-599.5 -387.6 L-600.5 -387.7 L-601.5 -387.8 L-602.5 -387.8 L-603.5 -387.9 L-604.5 -388 L-605.5 -388 L-606.5 -388.1 L-607.6 -388.2 L-608.6 -388.3 L-609.6 -388.3 L-610.6 -388.4 L-611.6 -388.5 L-612.6 -388.5 L-613.6 -388.6 Z " />
<path stroke="rgb(0,0,0)" stroke-opacity="0.803" fill="rgb(255,255,255)" fill-opacity="1" d="M-75.2 0.2139 L-75.29 2.184 L-75.55 4.139 L-75.95 6.069 L-76.51 7.96 L-77.22 9.801 L-78.07 11.58 L-79.06 13.29 L-80.18 14.91 L-81.43 16.43 L-82.79 17.86 L-84.26 19.17 L-85.84 20.36 L-87.5 21.42 L-89.24 22.34 L-91.05 23.13 L-92.92 23.77 L-94.83 24.25 L-96.77 24.59 L-98.74 24.77 L-100.7 24.79 L-102.7 24.65 L-104.6 24.36 L-106.5 23.92 L-108.4 23.32 L-110.3 22.58 L-112 21.69 L-113.7 20.67 L-115.3 19.52 L-116.8 18.24 L-118.2 16.84 L-119.5 15.35 L-120.6 13.75 L-121.7 12.07 L-122.6 10.31 L-123.3 8.482 L-123.9 6.604 L-124.4 4.684 L-124.6 2.734 L-124.8 0.7668 L-124.8 -1.205 L-124.6 -3.169 L-124.3 -5.114 L-123.8 -7.026 L-123.1 -8.893 L-122.4 -10.7 L-121.4 -12.45 L-120.4 -14.11 L-119.2 -15.69 L-117.9 -17.17 L-116.5 -18.53 L-115 -19.78 L-113.3 -20.91 L-111.6 -21.9 L-109.9 -22.76 L-108 -23.47 L-106.1 -24.03 L-104.2 -24.44 L-102.2 -24.7 L-100.3 -24.8 L-98.3 -24.75 L-96.34 -24.53 L-94.41 -24.16 L-92.5 -23.64 L-90.65 -22.97 L-88.85 -22.16 L-87.13 -21.2 L-85.48 -20.11 L-83.93 -18.9 L-82.48 -17.56 L-81.14 -16.11 L-79.92 -14.56 L-78.83 -12.92 L-77.87 -11.2 L-77.05 -9.407 L-76.37 -7.554 L-75.85 -5.654 L-75.48 -3.717 L-75.26 -1.757 L-75.2 0.2139 Z " />
<path stroke="rgb(0,0,0)" stroke-opacity="1" fill="rgb(255,255,255)" fill-opacity="1" d="M-419.1 -392.4 L-418.7 -393.5 L-418.2 -394.6 L-417.8 -395.7 L-417.3 -396.7 L-416.9 -397.8 L-416.5 -398.9 L-416 -400 L-415.6 -401.1 L-415.1 -402.1 L-414.7 -403.2 L-414.2 -404.3 L-413.8 -405.4 L-413.3 -406.5 L-412.9 -407.5 L-412.4 -408.6 L-412 -409.7 L-411.5 -410.8 L-411.1 -411.9 L-410.6 -412.9 L-410.2 -414 L-409.7 -415.1 L-409.3 -416.2 L-408.8 -417.3 L-408.4 -418.3 L-407.9 -419.4 L-406.9 -419 L-405.8 -418.5 L-404.7 -418.1 L-403.6 -417.6 L-402.5 -417.2 L-401.5 -416.7 L-400.4 -416.3 L-399.3 -415.8 L-398.2 -415.4 L-397.1 -414.9 L-396.1 -414.5 L-395 -414 L-393.9 -413.6 L-392.8 -413.1 L-391.8 -412.7 L-390.7 -412.2 L-389.6 -411.8 L-388.5 -411.3 L-387.4 -410.9 L-386.4 -410.4 L-385.3 -410 L-384.2 -409.6 L-383.1 -409.1 L-382 -408.7 L-381 -408.2 L-381.4 -407.1 L-381.9 -406 L-382.3 -405 L-382.8 -403.9 L-383.2 -402.8 L-383.6 -401.7 L-384.1 -400.7 L-384.5 -399.6 L-385 -398.5 L-385.4 -397.4 L-385.9 -396.3 L-386.3 -395.3 L-386.8 -394.2 L-387.2 -393.1 L-387.7 -392 L-388.1 -390.9 L-388.6 -389.9 L-389 -388.8 L-389.5 -387.7 L-389.9 -386.6 L-390.4 -385.5 L-390.8 -384.5 L-391.3 -383.4 L-391.7 -382.3 L-392.2 -381.2 L-393.2 -381.7 L-394.3 -382.1 L-395.4 -382.6 L-396.5 -383 L-397.6 -383.5 L-398.6 -383.9 L-399.7 -384.4 L-400.8 -384.8 L-401.9 -385.3 L-403 -385.7 L-404 -386.2 L-405.1 -386.6 L-406.2 -387.1 L-407.3 -387.5 L-408.3 -387.9 L-409.4 -388.4 L-410.5 -388.8 L-411.6 -389.3 L-412.7 -389.7 L-413.7 -390.2 L-414.8 -390.6 L-415.9 -391.1 L-417 -391.5 L-418.1 -392 L-419.1 -392.4 Z " />
<path stroke="rgb(0,0,0)" stroke-opacity="0.803" fill="rgb(255,255,255)" fill-opacity="1" d="M124.8 0.2139 L124.7 2.184 L124.5 4.139 L124 6.069 L123.5 7.96 L122.8 9.801 L121.9 11.58 L120.9 13.29 L119.8 14.91 L118.6 16.43 L117.2 17.86 L115.7 19.17 L114.2 20.36 L112.5 21.42 L110.8 22.34 L108.9 23.13 L107.1 23.77 L105.2 24.25 L103.2 24.59 L101.3 24.77 L99.29 24.79 L97.33 24.65 L95.38 24.36 L93.45 23.92 L91.57 23.32 L89.75 22.58 L87.99 21.69 L86.3 20.67 L84.7 19.52 L83.2 18.24 L81.8 16.84 L80.52 15.35 L79.36 13.75 L78.34 12.07 L77.45 10.31 L76.7 8.482 L76.1 6.604 L75.65 4.684 L75.35 2.734 L75.21 0.7668 L75.23 -1.205 L75.4 -3.169 L75.73 -5.114 L76.22 -7.026 L76.85 -8.893 L77.63 -10.7 L78.55 -12.45 L79.61 -14.11 L80.79 -15.69 L82.1 -17.17 L83.52 -18.53 L85.04 -19.78 L86.66 -20.91 L88.37 -21.9 L90.14 -22.76 L91.98 -23.47 L93.87 -24.03 L95.8 -24.44 L97.76 -24.7 L99.73 -24.8 L101.7 -24.75 L103.7 -24.53 L105.6 -24.16 L107.5 -23.64 L109.4 -22.97 L111.1 -22.16 L112.9 -21.2 L114.5 -20.11 L116.1 -18.9 L117.5 -17.56 L118.9 -16.11 L120.1 -14.56 L121.2 -12.92 L122.1 -11.2 L123 -9.407 L123.6 -7.554 L124.2 -5.654 L124.5 -3.717 L124.7 -1.757 L124.8 0.2139 Z " />
<path stroke="rgb(0,0,0)" stroke-opacity="1" fill="rgb(255,255,255)" fill-opacity="1" d="M-226.8 -408.9 L-225.4 -409.6 L-224 -410.3 L-222.6 -411.1 L-221.1 -411.8 L-219.7 -412.5 L-218.3 -413.2 L-216.9 -414 L-215.4 -414.7 L-214 -415.4 L-212.6 -416.1 L-211.2 -416.9 L-209.7 -417.6 L-208.3 -418.3 L-206.9 -419 L-205.5 -419.8 L-204 -420.5 L-202.6 -421.2 L-201.2 -421.9 L-199.8 -422.7 L-198.4 -423.4 L-196.9 -424.1 L-195.5 -424.8 L-194.1 -425.6 L-192.7 -426.3 L-191.2 -427 L-190.5 -425.6 L-189.8 -424.2 L-189.1 -422.7 L-188.3 -421.3 L-187.6 -419.9 L-186.9 -418.5 L-186.2 -417 L-185.4 -415.6 L-184.7 -414.2 L-184 -412.8 L-183.3 -411.3 L-182.5 -409.9 L-181.8 -408.5 L-181.1 -407.1 L-180.4 -405.7 L-179.6 -404.2 L-178.9 -402.8 L-178.2 -401.4 L-177.5 -400 L-176.7 -398.5 L-176 -397.1 L-175.3 -395.7 L-174.6 -394.3 L-173.9 -392.8 L-173.1 -391.4 L-174.5 -390.7 L-176 -390 L-177.4 -389.2 L-178.8 -388.5 L-180.2 -387.8 L-181.7 -387.1 L-183.1 -386.3 L-184.5 -385.6 L-185.9 -384.9 L-187.4 -384.2 L-188.8 -383.4 L-190.2 -382.7 L-191.6 -382 L-193.1 -381.3 L-194.5 -380.5 L-195.9 -379.8 L-197.3 -379.1 L-198.7 -378.4 L-200.2 -377.7 L-201.6 -376.9 L-203 -376.2 L-204.4 -375.5 L-205.9 -374.8 L-207.3 -374 L-208.7 -373.3 L-209.4 -374.7 L-210.2 -376.2 L-210.9 -377.6 L-211.6 -379 L-212.3 -380.4 L-213.1 -381.8 L-213.8 -383.3 L-214.5 -384.7 L-215.2 -386.1 L-216 -387.5 L-216.7 -389 L-217.4 -390.4 L-218.1 -391.8 L-218.9 -393.2 L-219.6 -394.7 L-220.3 -396.1 L-221 -397.5 L-221.7 -398.9 L-222.5 -400.3 L-223.2 -401.8 L-223.9 -403.2 L-224.6 -404.6 L-225.4 -406 L-226.1 -407.5 L-226.8 -408.9 Z " />
<path stroke="rgb(0,0,0)" stroke-opacity="0.803" fill="rgb(255,255,255)" fill-opacity="1" d="M324.8 0.2139 L324.7 2.184 L324.5 4.139 L324 6.069 L323.5 7.96 L322.8 9.801 L321.9 11.58 L320.9 13.29 L319.8 14.91 L318.6 16.43 L317.2 17.86 L315.7 19.17 L314.2 20.36 L312.5 21.42 L310.8 22.34 L308.9 23.13 L307.1 23.77 L305.2 24.25 L303.2 24.59 L301.3 24.77 L299.3 24.79 L297.3 24.65 L295.4 24.36 L293.5 23.92 L291.6 23.32 L289.7 22.58 L288 21.69 L286.3 20.67 L284.7 19.52 L283.2 18.24 L281.8 16.84 L280.5 15.35 L279.4 13.75 L278.3 12.07 L277.4 10.31 L276.7 8.482 L276.1 6.604 L275.6 4.684 L275.4 2.734 L275.2 0.7668 L275.2 -1.205 L275.4 -3.169 L275.7 -5.114 L276.2 -7.026 L276.9 -8.893 L277.6 -10.7 L278.6 -12.45 L279.6 -14.11 L280.8 -15.69 L282.1 -17.17 L283.5 -18.53 L285 -19.78 L286.7 -20.91 L288.4 -21.9 L290.1 -22.76 L292 -23.47 L293.9 -24.03 L295.8 -24.44 L297.8 -24.7 L299.7 -24.8 L301.7 -24.75 L303.7 -24.53 L305.6 -24.16 L307.5 -23.64 L309.4 -22.97 L311.1 -22.16 L312.9 -21.2 L314.5 -20.11 L316.1 -18.9 L317.5 -17.56 L318.9 -16.11 L320.1 -14.56 L321.2 -12.92 L322.1 -11.2 L323 -9.407 L323.6 -7.554 L324.2 -5.654 L324.5 -3.717 L324.7 -1.757 L324.8 0.2139 Z " />
<path stroke="rgb(0,0,0)" stroke-opacity="1" fill="rgb(255,255,255)" fill-opacity="1" d="M-713.6 -288.6 L-713.5 -289.6 L-713.5 -290.6 L-713.4 -291.6 L-713.3 -292.6 L-713.3 -293.7 L-713.2 -294.7 L-713.1 -295.7 L-713 -296.7 L-713 -297.7 L-712.9 -298.7 L-712.8 -299.7 L-712.8 -300.7 L-712.7 -301.7 L-712.6 -302.8 L-712.6 -303.8 L-712.5 -304.8 L-712.4 -305.8 L-712.3 -306.8 L-712.3 -307.8 L-712.2 -308.8 L-712.1 -309.8 L-712.1 -310.8 L-712 -311.8 L-711.9 -312.9 L-711.9 -313.9 L-710.8 -313.8 L-709.8 -313.7 L-708.8 -313.7 L-707.8 -313.6 L-706.8 -313.5 L-705.8 -313.4 L-704.8 -313.4 L-703.8 -313.3 L-702.8 -313.2 L-701.8 -313.2 L-700.7 -313.1 L-699.7 -313 L-698.7 -312.9 L-697.7 -312.9 L-696.7 -312.8 L-695.7 -312.7 L-694.7 -312.7 L-693.7 -312.6 L-692.7 -312.5 L-691.6 -312.5 L-690.6 -312.4 L-689.6 -312.3 L-688.6 -312.2 L-687.6 -312.2 L-686.6 -312.1 L-686.7 -311.1 L-686.7 -310.1 L-686.8 -309.1 L-686.9 -308.1 L-686.9 -307.1 L-687 -306 L-687.1 -305 L-687.2 -304 L-687.2 -303 L-687.3 -302 L-687.4 -301 L-687.4 -300 L-687.5 -299 L-687.6 -298 L-687.7 -296.9 L-687.7 -295.9 L-687.8 -294.9 L-687.9 -293.9 L-687.9 -292.9 L-688 -291.9 L-688.1 -290.9 L-688.1 -289.9 L-688.2 -288.9 L-688.3 -287.9 L-688.4 -286.8 L-689.4 -286.9 L-690.4 -287 L-691.4 -287.1 L-692.4 -287.1 L-693.4 -287.2 L-694.4 -287.3 L-695.4 -287.3 L-696.4 -287.4 L-697.5 -287.5 L-698.5 -287.6 L-699.5 -287.6 L-700.5 -287.7 L-701.5 -287.8 L-702.5 -287.8 L-703.5 -287.9 L-704.5 -288 L-705.5 -288 L-706.5 -288.1 L-707.6 -288.2 L-708.6 -288.3 L-709.6 -288.3 L-710.6 -288.4 L-711.6 -288.5 L-712.6 -288.5 L-713.6 -288.6 Z " />
<path stroke="rgb(0,0,0)" stroke-opacity="0.803" fill="rgb(255,255,255)" fill-opacity="1" d="M-175.2 100.2 L-175.3 102.2 L-175.5 104.1 L-176 106.1 L-176.5 108 L-177.2 109.8 L-178.1 111.6 L-179.1 113.3 L-180.2 114.9 L-181.4 116.4 L-182.8 117.9 L-184.3 119.2 L-185.8 120.4 L-187.5 121.4 L-189.2 122.3 L-191.1 123.1 L-192.9 123.8 L-194.8 124.3 L-196.8 124.6 L-198.7 124.8 L-200.7 124.8 L-202.7 124.7 L-204.6 124.4 L-206.5 123.9 L-208.4 123.3 L-210.3 122.6 L-212 121.7 L-213.7 120.7 L-215.3 119.5 L-216.8 118.2 L-218.2 116.8 L-219.5 115.3 L-220.6 113.7 L-221.7 112.1 L-222.6 110.3 L-223.3 108.5 L-223.9 106.6 L-224.4 104.7 L-224.6 102.7 L-224.8 100.8 L-224.8 98.79 L-224.6 96.83 L-224.3 94.89 L-223.8 92.97 L-223.1 91.11 L-222.4 89.3 L-221.4 87.55 L-220.4 85.89 L-219.2 84.31 L-217.9 82.83 L-216.5 81.47 L-215 80.22 L-213.3 79.09 L-211.6 78.1 L-209.9 77.24 L-208 76.53 L-206.1 75.97 L-204.2 75.56 L-202.2 75.3 L-200.3 75.2 L-198.3 75.25 L-196.3 75.47 L-194.4 75.84 L-192.5 76.36 L-190.6 77.03 L-188.9 77.84 L-187.1 78.8 L-185.5 79.89 L-183.9 81.1 L-182.5 82.44 L-181.1 83.89 L-179.9 85.44 L-178.8 87.08 L-177.9 88.8 L-177 90.59 L-176.4 92.45 L-175.8 94.35 L-175.5 96.28 L-175.3 98.24 L-175.2 100.2 Z " />
<path stroke="rgb(0,0,0)" stroke-opacity="1" fill="rgb(255,255,255)" fill-opacity="1" d="M-519.1 -292.4 L-518.7 -293.5 L-518.2 -294.6 L-517.8 -295.7 L-517.3 -296.7 L-516.9 -297.8 L-516.5 -298.9 L-516 -300 L-515.6 -301.1 L-515.1 -302.1 L-514.7 -303.2 L-514.2 -304.3 L-513.8 -305.4 L-513.3 -306.5 L-512.9 -307.5 L-512.4 -308.6 L-512 -309.7 L-511.5 -310.8 L-511.1 -311.9 L-510.6 -312.9 L-510.2 -314 L-509.7 -315.1 L-509.3 -316.2 L-508.8 -317.3 L-508.4 -318.3 L-507.9 -319.4 L-506.9 -319 L-505.8 -318.5 L-504.7 -318.1 L-503.6 -317.6 L-502.5 -317.2 L-501.5 -316.7 L-500.4 -316.3 L-499.3 -315.8 L-498.2 -315.4 L-497.1 -314.9 L-496.1 -314.5 L-495 -314 L-493.9 -313.6 L-492.8 -313.1 L-491.8 -312.7 L-490.7 -312.2 L-489.6 -311.8 L-488.5 -311.3 L-487.4 -310.9 L-486.4 -310.4 L-485.3 -310 L-484.2 -309.6 L-483.1 -309.1 L-482 -308.7 L-481 -308.2 L-481.4 -307.1 L-481.9 -306 L-482.3 -305 L-482.8 -303.9 L-483.2 -302.8 L-483.6 -301.7 L-484.1 -300.7 L-484.5 -299.6 L-485 -298.5 L-485.4 -297.4 L-485.9 -296.3 L-486.3 -295.3 L-486.8 -294.2 L-487.2 -293.1 L-487.7 -292 L-488.1 -290.9 L-488.6 -289.9 L-489 -288.8 L-489.5 -287.7 L-489.9 -286.6 L-490.4 -285.5 L-490.8 -284.5 L-491.3 -283.4 L-491.7 -282.3 L-492.2 -281.2 L-493.2 -281.7 L-494.3 -282.1 L-495.4 -282.6 L-496.5 -283 L-497.6 -283.5 L-498.6 -283.9 L-499.7 -284.4 L-500.8 -284.8 L-501.9 -285.3 L-503 -285.7 L-504 -286.2 L-505.1 -286.6 L-506.2 -287.1 L-507.3 -287.5 L-508.3 -287.9 L-509.4 -288.4 L-510.5 -288.8 L-511.6 -289.3 L-512.7 -289.7 L-513.7 -290.2 L-514.8 -290.6 L-515.9 -291.1 L-517 -291.5 L-518.1 -292 L-519.1 -292.4 Z " />
<path stroke="rgb(0,0,0)" stroke-opacity="0.803" fill="rgb(255,255,255)" fill-opacity="1" d="M24.8 100.2 L24.71 102.2 L24.45 104.1 L24.05 106.1 L23.49 108 L22.78 109.8 L21.93 111.6 L20.94 113.3 L19.82 114.9 L18.57 116.4 L17.21 117.9 L15.74 119.2 L14.16 120.4 L12.5 121.4 L10.76 122.3 L8.949 123.1 L7.083 123.8 L5.172 124.3 L3.229 124.6 L1.265 124.8 L-0.7071 124.8 L-2.674 124.7 L-4.625 124.4 L-6.546 123.9 L-8.426 123.3 L-10.25 122.6 L-12.01 121.7 L-13.7 120.7 L-15.3 119.5 L-16.8 118.2 L-18.2 116.8 L-19.48 115.3 L-20.64 113.7 L-21.66 112.1 L-22.55 110.3 L-23.3 108.5 L-23.9 106.6 L-24.35 104.7 L-24.65 102.7 L-24.79 100.8 L-24.77 98.79 L-24.6 96.83 L-24.27 94.89 L-23.78 92.97 L-23.15 91.11 L-22.37 89.3 L-21.45 87.55 L-20.39 85.89 L-19.21 84.31 L-17.9 82.83 L-16.48 81.47 L-14.96 80.22 L-13.34 79.09 L-11.63 78.1 L-9.856 77.24 L-8.017 76.53 L-6.127 75.97 L-4.199 75.56 L-2.243 75.3 L-0.274 75.2 L1.697 75.25 L3.658 75.47 L5.595 75.84 L7.497 76.36 L9.352 77.03 L11.15 77.84 L12.87 78.8 L14.52 79.89 L16.07 81.1 L17.52 82.44 L18.86 83.89 L20.08 85.44 L21.17 87.08 L22.13 88.8 L22.95 90.59 L23.63 92.45 L24.15 94.35 L24.52 96.28 L24.74 98.24 L24.8 100.2 Z " />
<path stroke="rgb(0,0,0)" stroke-opacity="1" fill="rgb(255,255,255)" fill-opacity="1" d="M-326.8 -308.9 L-325.4 -309.6 L-324 -310.3 L-322.6 -311.1 L-321.1 -311.8 L-319.7 -312.5 L-318.3 -313.2 L-316.9 -314 L-315.4 -314.7 L-314 -315.4 L-312.6 -316.1 L-311.2 -316.9 L-309.7 -317.6 L-308.3 -318.3 L-306.9 -319 L-305.5 -319.8 L-304 -320.5 L-302.6 -321.2 L-301.2 -321.9 L-299.8 -322.7 L-298.4 -323.4 L-296.9 -324.1 L-295.5 -324.8 L-294.1 -325.6 L-292.7 -326.3 L-291.2 -327 L-290.5 -325.6 L-289.8 -324.2 L-289.1 -322.7 L-288.3 -321.3 L-287.6 -319.9 L-286.9 -318.5 L-286.2 -317 L-285.4 -315.6 L-284.7 -314.2 L-284 -312.8 L-283.3 -311.3 L-282.5 -309.9 L-281.8 -308.5 L-281.1 -307.1 L-280.4 -305.7 L-279.6 -304.2 L-278.9 -302.8 L-278.2 -301.4 L-277.5 -300 L-276.7 -298.5 L-276 -297.1 L-275.3 -295.7 L-274.6 -294.3 L-273.9 -292.8 L-273.1 -291.4 L-274.5 -290.7 L-276 -290 L-277.4 -289.2 L-278.8 -288.5 L-280.2 -287.8 L-281.7 -287.1 L-283.1 -286.3 L-284.5 -285.6 L-285.9 -284.9 L-287.4 -284.2 L-288.8 -283.4 L-290.2 -282.7 L-291.6 -282 L-293.1 -281.3 L-294.5 -280.5 L-295.9 -279.8 L-297.3 -279.1 L-298.7 -278.4 L-300.2 -277.7 L-301.6 -276.9 L-303 -276.2 L-304.4 -275.5 L-305.9 -274.8 L-307.3 -274 L-308.7 -273.3 L-309.4 -274.7 L-310.2 -276.2 L-310.9 -277.6 L-311.6 -279 L-312.3 -280.4 L-313.1 -281.8 L-313.8 -283.3 L-314.5 -284.7 L-315.2 -286.1 L-316 -287.5 L-316.7 -289 L-317.4 -290.4 L-318.1 -291.8 L-318.9 -293.2 L-319.6 -294.7 L-320.3 -296.1 L-321 -297.5 L-321.7 -298.9 L-322.5 -300.3 L-323.2 -301.8 L-323.9 -303.2 L-324.6 -304.6 L-325.4 -306 L-326.1 -307.5 L-326.8 -308.9 Z " />
<path stroke="rgb(0,0,0)" stroke-opacity="0.803" fill="rgb(255,255,255)" fill-opacity="1" d="M224.8 100.2 L224.7 102.2 L224.5 104.1 L224 106.1 L223.5 108 L222.8 109.8 L221.9 111.6 L220.9 113.3 L219.8 114.9 L218.6 116.4 L217.2 117.9 L215.7 119.2 L214.2 120.4 L212.5 121.4 L210.8 122.3 L208.9 123.1 L207.1 123.8 L205.2 124.3 L203.2 124.6 L201.3 124.8 L199.3 124.8 L197.3 124.7 L195.4 124.4 L193.5 123.9 L191.6 123.3 L189.7 122.6 L188 121.7 L186.3 120.7 L184.7 119.5 L183.2 118.2 L181.8 116.8 L180.5 115.3 L179.4 113.7 L178.3 112.1 L177.4 110.3 L176.7 108.5 L176.1 106.6 L175.6 104.7 L175.4 102.7 L175.2 100.8 L175.2 98.79 L175.4 96.83 L175.7 94.89 L176.2 92.97 L176.9 91.11 L177.6 89.3 L178.6 87.55 L179.6 85.89 L180.8 84.31 L182.1 82.83 L183.5 81.47 L185 80.22 L186.7 79.09 L188.4 78.1 L190.1 77.24 L192 76.53 L193.9 75.97 L195.8 75.56 L197.8 75.3 L199.7 75.2 L201.7 75.25 L203.7 75.47 L205.6 75.84 L207.5 76.36 L209.4 77.03 L211.1 77.84 L212.9 78.8 L214.5 79.89 L216.1 81.1 L217.5 82.44 L218.9 83.89 L220.1 85.44 L221.2 87.08 L222.1 88.8 L223 90.59 L223.6 92.45 L224.2 94.35 L224.5 96.28 L224.7 98.24 L224.8 100.2 Z " />
<path stroke="rgb(0,0,0)" stroke-opacity="1" fill="rgb(255,255,255)" fill-opacity="1" d="M-125.5 -321.8 L-123.7 -321.9 L-121.8 -322.1 L-119.9 -322.2 L-118 -322.4 L-116.1 -322.5 L-114.2 -322.7 L-112.3 -322.8 L-110.4 -323 L-108.5 -323.1 L-106.6 -323.3 L-104.7 -323.4 L-102.8 -323.6 L-101 -323.7 L-99.06 -323.9 L-97.17 -324.1 L-95.28 -324.2 L-93.39 -324.4 L-91.5 -324.5 L-89.61 -324.7 L-87.72 -324.8 L-85.82 -325 L-83.93 -325.1 L-82.04 -325.3 L-80.15 -325.4 L-78.26 -325.6 L-78.11 -323.7 L-77.95 -321.8 L-77.8 -319.9 L-77.65 -318 L-77.49 -316.1 L-77.34 -314.2 L-77.19 -312.3 L-77.03 -310.5 L-76.88 -308.6 L-76.73 -306.7 L-76.57 -304.8 L-76.42 -302.9 L-76.27 -301 L-76.11 -299.1 L-75.96 -297.2 L-75.81 -295.3 L-75.65 -293.4 L-75.5 -291.5 L-75.35 -289.6 L-75.19 -287.8 L-75.04 -285.9 L-74.89 -284 L-74.73 -282.1 L-74.58 -280.2 L-74.43 -278.3 L-76.32 -278.1 L-78.21 -278 L-80.1 -277.8 L-81.99 -277.7 L-83.88 -277.5 L-85.78 -277.4 L-87.67 -277.2 L-89.56 -277.1 L-91.45 -276.9 L-93.34 -276.8 L-95.23 -276.6 L-97.12 -276.5 L-99.02 -276.3 L-100.9 -276.2 L-102.8 -276 L-104.7 -275.8 L-106.6 -275.7 L-108.5 -275.5 L-110.4 -275.4 L-112.3 -275.2 L-114.1 -275.1 L-116 -274.9 L-117.9 -274.8 L-119.8 -274.6 L-121.7 -274.5 L-121.9 -276.4 L-122 -278.2 L-122.2 -280.1 L-122.3 -282 L-122.5 -283.9 L-122.6 -285.8 L-122.8 -287.7 L-122.9 -289.6 L-123.1 -291.5 L-123.2 -293.4 L-123.4 -295.3 L-123.6 -297.2 L-123.7 -299.1 L-123.9 -300.9 L-124 -302.8 L-124.2 -304.7 L-124.3 -306.6 L-124.5 -308.5 L-124.6 -310.4 L-124.8 -312.3 L-124.9 -314.2 L-125.1 -316.1 L-125.2 -318 L-125.4 -319.9 L-125.5 -321.8 Z " />
<path stroke="rgb(0,0,0)" stroke-opacity="0.803" fill="rgb(255,255,255)" fill-opacity="1" d="M-275.2 200.2 L-275.3 202.2 L-275.5 204.1 L-276 206.1 L-276.5 208 L-277.2 209.8 L-278.1 211.6 L-279.1 213.3 L-280.2 214.9 L-281.4 216.4 L-282.8 217.9 L-284.3 219.2 L-285.8 220.4 L-287.5 221.4 L-289.2 222.3 L-291.1 223.1 L-292.9 223.8 L-294.8 224.3 L-296.8 224.6 L-298.7 224.8 L-300.7 224.8 L-302.7 224.7 L-304.6 224.4 L-306.5 223.9 L-308.4 223.3 L-310.3 222.6 L-312 221.7 L-313.7 220.7 L-315.3 219.5 L-316.8 218.2 L-318.2 216.8 L-319.5 215.3 L-320.6 213.7 L-321.7 212.1 L-322.6 210.3 L-323.3 208.5 L-323.9 206.6 L-324.4 204.7 L-324.6 202.7 L-324.8 200.8 L-324.8 198.8 L-324.6 196.8 L-324.3 194.9 L-323.8 193 L-323.1 191.1 L-322.4 189.3 L-321.4 187.6 L-320.4 185.9 L-319.2 184.3 L-317.9 182.8 L-316.5 181.5 L-315 180.2 L-313.3 179.1 L-311.6 178.1 L-309.9 177.2 L-308 176.5 L-306.1 176 L-304.2 175.6 L-302.2 175.3 L-300.3 175.2 L-298.3 175.3 L-296.3 175.5 L-294.4 175.8 L-292.5 176.4 L-290.6 177 L-288.9 177.8 L-287.1 178.8 L-285.5 179.9 L-283.9 181.1 L-282.5 182.4 L-281.1 183.9 L-279.9 185.4 L-278.8 187.1 L-277.9 188.8 L-277 190.6 L-276.4 192.4 L-275.8 194.3 L-275.5 196.3 L-275.3 198.2 L-275.2 200.2 Z " />
<path stroke="rgb(0,0,0)" stroke-opacity="1" fill="rgb(255,255,255)" fill-opacity="1" d="M-619.1 -192.4 L-618.7 -193.5 L-618.2 -194.6 L-617.8 -195.7 L-617.3 -196.7 L-616.9 -197.8 L-616.5 -198.9 L-616 -200 L-615.6 -201.1 L-615.1 -202.1 L-614.7 -203.2 L-614.2 -204.3 L-613.8 -205.4 L-613.3 -206.5 L-612.9 -207.5 L-612.4 -208.6 L-612 -209.7 L-611.5 -210.8 L-611.1 -211.9 L-610.6 -212.9 L-610.2 -214 L-609.7 -215.1 L-609.3 -216.2 L-608.8 -217.3 L-608.4 -218.3 L-607.9 -219.4 L-606.9 -219 L-605.8 -218.5 L-604.7 -218.1 L-603.6 -217.6 L-602.5 -217.2 L-601.5 -216.7 L-600.4 -216.3 L-599.3 -215.8 L-598.2 -215.4 L-597.1 -214.9 L-596.1 -214.5 L-595 -214 L-593.9 -213.6 L-592.8 -213.1 L-591.8 -212.7 L-590.7 -212.2 L-589.6 -211.8 L-588.5 -211.3 L-587.4 -210.9 L-586.4 -210.4 L-585.3 -210 L-584.2 -209.6 L-583.1 -209.1 L-582 -208.7 L-581 -208.2 L-581.4 -207.1 L-581.9 -206 L-582.3 -205 L-582.8 -203.9 L-583.2 -202.8 L-583.6 -201.7 L-584.1 -200.7 L-584.5 -199.6 L-585 -198.5 L-585.4 -197.4 L-585.9 -196.3 L-586.3 -195.3 L-586.8 -194.2 L-587.2 -193.1 L-587.7 -192 L-588.1 -190.9 L-588.6 -189.9 L-589 -188.8 L-589.5 -187.7 L-589.9 -186.6 L-590.4 -185.5 L-590.8 -184.5 L-591.3 -183.4 L-591.7 -182.3 L-592.2 -181.2 L-593.2 -181.7 L-594.3 -182.1 L-595.4 -182.6 L-596.5 -183 L-597.6 -183.5 L-598.6 -183.9 L-599.7 -184.4 L-600.8 -184.8 L-601.9 -185.3 L-603 -185.7 L-604 -186.2 L-605.1 -186.6 L-606.2 -187.1 L-607.3 -187.5 L-608.3 -187.9 L-609.4 -188.4 L-610.5 -188.8 L-611.6 -189.3 L-612.7 -189.7 L-613.7 -190.2 L-614.8 -190.6 L-615.9 -191.1 L-617 -191.5 L-618.1 -192 L-619.1 -192.4 Z " />
<path stroke="rgb(0,0,0)" stroke-opacity="0.803" fill="rgb(255,255,255)" fill-opacity="1" d="M-75.2 200.2 L-75.29 202.2 L-75.55 204.1 L-75.95 206.1 L-76.51 208 L-77.22 209.8 L-78.07 211.6 L-79.06 213.3 L-80.18 214.9 L-81.43 216.4 L-82.79 217.9 L-84.26 219.2 L-85.84 220.4 L-87.5 221.4 L-89.24 222.3 L-91.05 223.1 L-92.92 223.8 L-94.83 224.3 L-96.77 224.6 L-98.74 224.8 L-100.7 224.8 L-102.7 224.7 L-104.6 224.4 L-106.5 223.9 L-108.4 223.3 L-110.3 222.6 L-112 221.7 L-113.7 220.7 L-115.3 219.5 L-116.8 218.2 L-118.2 216.8 L-119.5 215.3 L-120.6 213.7 L-121.7 212.1 L-122.6 210.3 L-123.3 208.5 L-123.9 206.6 L-124.4 204.7 L-124.6 202.7 L-124.8 200.8 L-124.8 198.8 L-124.6 196.8 L-124.3 194.9 L-123.8 193 L-123.1 191.1 L-122.4 189.3 L-121.4 187.6 L-120.4 185.9 L-119.2 184.3 L-117.9 182.8 L-116.5 181.5 L-115 180.2 L-113.3 179.1 L-111.6 178.1 L-109.9 177.2 L-108 176.5 L-106.1 176 L-104.2 175.6 L-102.2 175.3 L-100.3 175.2 L-98.3 175.3 L-96.34 175.5 L-94.41 175.8 L-92.5 176.4 L-90.65 177 L-88.85 177.8 L-87.13 178.8 L-85.48 179.9 L-83.93 181.1 L-82.48 182.4 L-81.14 183.9 L-79.92 185.4 L-78.83 187.1 L-77.87 188.8 L-77.05 190.6 L-76.37 192.4 L-75.85 194.3 L-75.48 196.3 L-75.26 198.2 L-75.2 200.2 Z " />
<path stroke="rgb(0,0,0)" stroke-opacity="1" fill="rgb(255,255,255)" fill-opacity="1" d="M-426.8 -208.9 L-425.4 -209.6 L-424 -210.3 L-422.6 -211.1 L-421.1 -211.8 L-419.7 -212.5 L-418.3 -213.2 L-416.9 -214 L-415.4 -214.7 L-414 -215.4 L-412.6 -216.1 L-411.2 -216.9 L-409.7 -217.6 L-408.3 -218.3 L-406.9 -219 L-405.5 -219.8 L-404 -220.5 L-402.6 -221.2 L-401.2 -221.9 L-399.8 -222.7 L-398.4 -223.4 L-396.9 -224.1 L-395.5 -224.8 L-394.1 -225.6 L-392.7 -226.3 L-391.2 -227 L-390.5 -225.6 L-389.8 -224.2 L-389.1 -222.7 L-388.3 -221.3 L-387.6 -219.9 L-386.9 -218.5 L-386.2 -217 L-385.4 -215.6 L-384.7 -214.2 L-384 -212.8 L-383.3 -211.3 L-382.5 -209.9 L-381.8 -208.5 L-381.1 -207.1 L-380.4 -205.7 L-379.6 -204.2 L-378.9 -202.8 L-378.2 -201.4 L-377.5 -200 L-376.7 -198.5 L-376 -197.1 L-375.3 -195.7 L-374.6 -194.3 L-373.9 -192.8 L-373.1 -191.4 L-374.5 -190.7 L-376 -190 L-377.4 -189.2 L-378.8 -188.5 L-380.2 -187.8 L-381.7 -187.1 L-383.1 -186.3 L-384.5 -185.6 L-385.9 -184.9 L-387.4 -184.2 L-388.8 -183.4 L-390.2 -182.7 L-391.6 -182 L-393.1 -181.3 L-394.5 -180.5 L-395.9 -179.8 L-397.3 -179.1 L-398.7 -178.4 L-400.2 -177.7 L-401.6 -176.9 L-403 -176.2 L-404.4 -175.5 L-405.9 -174.8 L-407.3 -174 L-408.7 -173.3 L-409.4 -174.7 L-410.2 -176.2 L-410.9 -177.6 L-411.6 -179 L-412.3 -180.4 L-413.1 -181.8 L-413.8 -183.3 L-414.5 -184.7 L-415.2 -186.1 L-416 -187.5 L-416.7 -189 L-417.4 -190.4 L-418.1 -191.8 L-418.9 -193.2 L-419.6 -194.7 L-420.3 -196.1 L-421 -197.5 L-421.7 -198.9 L-422.5 -200.3 L-423.2 -201.8 L-423.9 -203.2 L-424.6 -204.6 L-425.4 -206 L-426.1 -207.5 L-426.8 -208.9 Z " />
<path stroke="rgb(0,0,0)" stroke-opacity="0.803" fill="rgb(255,255,255)" fill-opacity="1" d="M124.8 200.2 L124.7 202.2 L124.5 204.1 L124 206.1 L123.5 208 L122.8 209.8 L121.9 211.6 L120.9 213.3 L119.8 214.9 L118.6 216.4 L117.2 217.9 L115.7 219.2 L114.2 220.4 L112.5 221.4 L110.8 222.3 L108.9 223.1 L107.1 223.8 L105.2 224.3 L103.2 224.6 L101.3 224.8 L99.29 224.8 L97.33 224.7 L95.38 224.4 L93.45 223.9 L91.57 223.3 L89.75 222.6 L87.99 221.7 L86.3 220.7 L84.7 219.5 L83.2 218.2 L81.8 216.8 L80.52 215.3 L79.36 213.7 L78.34 212.1 L77.45 210.3 L76.7 208.5 L76.1 206.6 L75.65 204.7 L75.35 202.7 L75.21 200.8 L75.23 198.8 L75.4 196.8 L75.73 194.9 L76.22 193 L76.85 191.1 L77.63 189.3 L78.55 187.6 L79.61 185.9 L80.79 184.3 L82.1 182.8 L83.52 181.5 L85.04 180.2 L86.66 179.1 L88.37 178.1 L90.14 177.2 L91.98 176.5 L93.87 176 L95.8 175.6 L97.76 175.3 L99.73 175.2 L101.7 175.3 L103.7 175.5 L105.6 175.8 L107.5 176.4 L109.4 177 L111.1 177.8 L112.9 178.8 L114.5 179.9 L116.1 181.1 L117.5 182.4 L118.9 183.9 L120.1 185.4 L121.2 187.1 L122.1 188.8 L123 190.6 L123.6 192.4 L124.2 194.3 L124.5 196.3 L124.7 198.2 L124.8 200.2 Z " />
<path stroke="rgb(0,0,0)" stroke-opacity="1" fill="rgb(255,255,255)" fill-opacity="1" d="M-225.5 -221.8 L-223.7 -221.9 L-221.8 -222.1 L-219.9 -222.2 L-218 -222.4 L-216.1 -222.5 L-214.2 -222.7 L-212.3 -222.8 L-210.4 -223 L-208.5 -223.1 L-206.6 -223.3 L-204.7 -223.4 L-202.8 -223.6 L-201 -223.7 L-199.1 -223.9 L-197.2 -224.1 L-195.3 -224.2 L-193.4 -224.4 L-191.5 -224.5 L-189.6 -224.7 L-187.7 -224.8 L-185.8 -225 L-183.9 -225.1 L-182 -225.3 L-180.1 -225.4 L-178.3 -225.6 L-178.1 -223.7 L-178 -221.8 L-177.8 -219.9 L-177.6 -218 L-177.5 -216.1 L-177.3 -214.2 L-177.2 -212.3 L-177 -210.5 L-176.9 -208.6 L-176.7 -206.7 L-176.6 -204.8 L-176.4 -202.9 L-176.3 -201 L-176.1 -199.1 L-176 -197.2 L-175.8 -195.3 L-175.7 -193.4 L-175.5 -191.5 L-175.3 -189.6 L-175.2 -187.8 L-175 -185.9 L-174.9 -184 L-174.7 -182.1 L-174.6 -180.2 L-174.4 -178.3 L-176.3 -178.1 L-178.2 -178 L-180.1 -177.8 L-182 -177.7 L-183.9 -177.5 L-185.8 -177.4 L-187.7 -177.2 L-189.6 -177.1 L-191.4 -176.9 L-193.3 -176.8 L-195.2 -176.6 L-197.1 -176.5 L-199 -176.3 L-200.9 -176.2 L-202.8 -176 L-204.7 -175.8 L-206.6 -175.7 L-208.5 -175.5 L-210.4 -175.4 L-212.3 -175.2 L-214.1 -175.1 L-216 -174.9 L-217.9 -174.8 L-219.8 -174.6 L-221.7 -174.5 L-221.9 -176.4 L-222 -178.2 L-222.2 -180.1 L-222.3 -182 L-222.5 -183.9 L-222.6 -185.8 L-222.8 -187.7 L-222.9 -189.6 L-223.1 -191.5 L-223.2 -193.4 L-223.4 -195.3 L-223.6 -197.2 L-223.7 -199.1 L-223.9 -200.9 L-224 -202.8 L-224.2 -204.7 L-224.3 -206.6 L-224.5 -208.5 L-224.6 -210.4 L-224.8 -212.3 L-224.9 -214.2 L-225.1 -216.1 L-225.2 -218 L-225.4 -219.9 L-225.5 -221.8 Z " />
<path stroke="rgb(0,0,0)" stroke-opacity="0.803" fill="rgb(255,255,255)" fill-opacity="1" d="M324.8 200.2 L324.7 202.2 L324.5 204.1 L324 206.1 L323.5 208 L322.8 209.8 L321.9 211.6 L320.9 213.3 L319.8 214.9 L318.6 216.4 L317.2 217.9 L315.7 219.2 L314.2 220.4 L312.5 221.4 L310.8 222.3 L308.9 223.1 L307.1 223.8 L305.2 224.3 L303.2 224.6 L301.3 224.8 L299.3 224.8 L297.3 224.7 L295.4 224.4 L293.5 223.9 L291.6 223.3 L289.7 222.6 L288 221.7 L286.3 220.7 L284.7 219.5 L283.2 218.2 L281.8 216.8 L280.5 215.3 L279.4 213.7 L278.3 212.1 L277.4 210.3 L276.7 208.5 L276.1 206.6 L275.6 204.7 L275.4 202.7 L275.2 200.8 L275.2 198.8 L275.4 196.8 L275.7 194.9 L276.2 193 L276.9 191.1 L277.6 189.3 L278.6 187.6 L279.6 185.9 L280.8 184.3 L282.1 182.8 L283.5 181.5 L285 180.2 L286.7 179.1 L288.4 178.1 L290.1 177.2 L292 176.5 L293.9 176 L295.8 175.6 L297.8 175.3 L299.7 175.2 L301.7 175.3 L303.7 175.5 L305.6 175.8 L307.5 176.4 L309.4 177 L311.1 177.8 L312.9 178.8 L314.5 179.9 L316.1 181.1 L317.5 182.4 L318.9 183.9 L320.1 185.4 L321.2 187.1 L322.1 188.8 L323 190.6 L323.6 192.4 L324.2 194.3 L324.5 196.3 L324.7 198.2 L324.8 200.2 Z " />
<path stroke="rgb(0,0,0)" stroke-opacity="1" fill="rgb(255,255,255)" fill-opacity="1" d="M-719.1 -92.43 L-718.7 -93.51 L-718.2 -94.59 L-717.8 -95.67 L-717.3 -96.74 L-716.9 -97.82 L-716.5 -98.9 L-716 -99.98 L-715.6 -101.1 L-715.1 -102.1 L-714.7 -103.2 L-714.2 -104.3 L-713.8 -105.4 L-713.3 -106.5 L-712.9 -107.5 L-712.4 -108.6 L-712 -109.7 L-711.5 -110.8 L-711.1 -111.9 L-710.6 -112.9 L-710.2 -114 L-709.7 -115.1 L-709.3 -116.2 L-708.8 -117.3 L-708.4 -118.3 L-707.9 -119.4 L-706.9 -119 L-705.8 -118.5 L-704.7 -118.1 L-703.6 -117.6 L-702.5 -117.2 L-701.5 -116.7 L-700.4 -116.3 L-699.3 -115.8 L-698.2 -115.4 L-697.1 -114.9 L-696.1 -114.5 L-695 -114 L-693.9 -113.6 L-692.8 -113.1 L-691.8 -112.7 L-690.7 -112.2 L-689.6 -111.8 L-688.5 -111.3 L-687.4 -110.9 L-686.4 -110.4 L-685.3 -110 L-684.2 -109.6 L-683.1 -109.1 L-682 -108.7 L-681 -108.2 L-681.4 -107.1 L-681.9 -106 L-682.3 -105 L-682.8 -103.9 L-683.2 -102.8 L-683.6 -101.7 L-684.1 -100.7 L-684.5 -99.57 L-685 -98.49 L-685.4 -97.41 L-685.9 -96.33 L-686.3 -95.26 L-686.8 -94.18 L-687.2 -93.1 L-687.7 -92.02 L-688.1 -90.94 L-688.6 -89.86 L-689 -88.78 L-689.5 -87.7 L-689.9 -86.62 L-690.4 -85.54 L-690.8 -84.46 L-691.3 -83.38 L-691.7 -82.3 L-692.2 -81.23 L-693.2 -81.67 L-694.3 -82.12 L-695.4 -82.57 L-696.5 -83.02 L-697.6 -83.47 L-698.6 -83.91 L-699.7 -84.36 L-700.8 -84.81 L-701.9 -85.26 L-703 -85.71 L-704 -86.15 L-705.1 -86.6 L-706.2 -87.05 L-707.3 -87.5 L-708.3 -87.95 L-709.4 -88.39 L-710.5 -88.84 L-711.6 -89.29 L-712.7 -89.74 L-713.7 -90.19 L-714.8 -90.64 L-715.9 -91.08 L-717 -91.53 L-718.1 -91.98 L-719.1 -92.43 Z " />
<path stroke="rgb(0,0,0)" stroke-opacity="0.803" fill="rgb(255,255,255)" fill-opacity="1" d="M-175.2 300.2 L-175.3 302.2 L-175.5 304.1 L-176 306.1 L-176.5 308 L-177.2 309.8 L-178.1 311.6 L-179.1 313.3 L-180.2 314.9 L-181.4 316.4 L-182.8 317.9 L-184.3 319.2 L-185.8 320.4 L-187.5 321.4 L-189.2 322.3 L-191.1 323.1 L-192.9 323.8 L-194.8 324.3 L-196.8 324.6 L-198.7 324.8 L-200.7 324.8 L-202.7 324.7 L-204.6 324.4 L-206.5 323.9 L-208.4 323.3 L-210.3 322.6 L-212 321.7 L-213.7 320.7 L-215.3 319.5 L-216.8 318.2 L-218.2 316.8 L-219.5 315.3 L-220.6 313.7 L-221.7 312.1 L-222.6 310.3 L-223.3 308.5 L-223.9 306.6 L-224.4 304.7 L-224.6 302.7 L-224.8 300.8 L-224.8 298.8 L-224.6 296.8 L-224.3 294.9 L-223.8 293 L-223.1 291.1 L-222.4 289.3 L-221.4 287.6 L-220.4 285.9 L-219.2 284.3 L-217.9 282.8 L-216.5 281.5 L-215 280.2 L-213.3 279.1 L-211.6 278.1 L-209.9 277.2 L-208 276.5 L-206.1 276 L-204.2 275.6 L-202.2 275.3 L-200.3 275.2 L-198.3 275.3 L-196.3 275.5 L-194.4 275.8 L-192.5 276.4 L-190.6 277 L-188.9 277.8 L-187.1 278.8 L-185.5 279.9 L-183.9 281.1 L-182.5 282.4 L-181.1 283.9 L-179.9 285.4 L-178.8 287.1 L-177.9 288.8 L-177 290.6 L-176.4 292.4 L-175.8 294.3 L-175.5 296.3 L-175.3 298.2 L-175.2 300.2 Z " />
<path stroke="rgb(0,0,0)" stroke-opacity="1" fill="rgb(255,255,255)" fill-opacity="1" d="M-526.8 -108.9 L-525.4 -109.6 L-524 -110.3 L-522.6 -111.1 L-521.1 -111.8 L-519.7 -112.5 L-518.3 -113.2 L-516.9 -114 L-515.4 -114.7 L-514 -115.4 L-512.6 -116.1 L-511.2 -116.9 L-509.7 -117.6 L-508.3 -118.3 L-506.9 -119 L-505.5 -119.8 L-504 -120.5 L-502.6 -121.2 L-501.2 -121.9 L-499.8 -122.7 L-498.4 -123.4 L-496.9 -124.1 L-495.5 -124.8 L-494.1 -125.6 L-492.7 -126.3 L-491.2 -127 L-490.5 -125.6 L-489.8 -124.2 L-489.1 -122.7 L-488.3 -121.3 L-487.6 -119.9 L-486.9 -118.5 L-486.2 -117 L-485.4 -115.6 L-484.7 -114.2 L-484 -112.8 L-483.3 -111.3 L-482.5 -109.9 L-481.8 -108.5 L-481.1 -107.1 L-480.4 -105.7 L-479.6 -104.2 L-478.9 -102.8 L-478.2 -101.4 L-477.5 -99.96 L-476.7 -98.53 L-476 -97.11 L-475.3 -95.69 L-474.6 -94.26 L-473.9 -92.84 L-473.1 -91.42 L-474.5 -90.69 L-476 -89.97 L-477.4 -89.24 L-478.8 -88.52 L-480.2 -87.79 L-481.7 -87.07 L-483.1 -86.35 L-484.5 -85.62 L-485.9 -84.9 L-487.4 -84.17 L-488.8 -83.45 L-490.2 -82.72 L-491.6 -82 L-493.1 -81.27 L-494.5 -80.55 L-495.9 -79.83 L-497.3 -79.1 L-498.7 -78.38 L-500.2 -77.65 L-501.6 -76.93 L-503 -76.2 L-504.4 -75.48 L-505.9 -74.75 L-507.3 -74.03 L-508.7 -73.31 L-509.4 -74.73 L-510.2 -76.15 L-510.9 -77.58 L-511.6 -79 L-512.3 -80.42 L-513.1 -81.85 L-513.8 -83.27 L-514.5 -84.69 L-515.2 -86.11 L-516 -87.54 L-516.7 -88.96 L-517.4 -90.38 L-518.1 -91.81 L-518.9 -93.23 L-519.6 -94.65 L-520.3 -96.08 L-521 -97.5 L-521.7 -98.92 L-522.5 -100.3 L-523.2 -101.8 L-523.9 -103.2 L-524.6 -104.6 L-525.4 -106 L-526.1 -107.5 L-526.8 -108.9 Z " />
<path stroke="rgb(0,0,0)" stroke-opacity="0.803" fill="rgb(255,255,255)" fill-opacity="1" d="M24.8 300.2 L24.71 302.2 L24.45 304.1 L24.05 306.1 L23.49 308 L22.78 309.8 L21.93 311.6 L20.94 313.3 L19.82 314.9 L18.57 316.4 L17.21 317.9 L15.74 319.2 L14.16 320.4 L12.5 321.4 L10.76 322.3 L8.949 323.1 L7.083 323.8 L5.172 324.3 L3.229 324.6 L1.265 324.8 L-0.7071 324.8 L-2.674 324.7 L-4.625 324.4 L-6.546 323.9 L-8.426 323.3 L-10.25 322.6 L-12.01 321.7 L-13.7 320.7 L-15.3 319.5 L-16.8 318.2 L-18.2 316.8 L-19.48 315.3 L-20.64 313.7 L-21.66 312.1 L-22.55 310.3 L-23.3 308.5 L-23.9 306.6 L-24.35 304.7 L-24.65 302.7 L-24.79 300.8 L-24.77 298.8 L-24.6 296.8 L-24.27 294.9 L-23.78 293 L-23.15 291.1 L-22.37 289.3 L-21.45 287.6 L-20.39 285.9 L-19.21 284.3 L-17.9 282.8 L-16.48 281.5 L-14.96 280.2 L-13.34 279.1 L-11.63 278.1 L-9.856 277.2 L-8.017 276.5 L-6.127 276 L-4.199 275.6 L-2.243 275.3 L-0.274 275.2 L1.697 275.3 L3.658 275.5 L5.595 275.8 L7.497 276.4 L9.352 277 L11.15 277.8 L12.87 278.8 L14.52 279.9 L16.07 281.1 L17.52 282.4 L18.86 283.9 L20.08 285.4 L21.17 287.1 L22.13 288.8 L22.95 290.6 L23.63 292.4 L24.15 294.3 L24.52 296.3 L24.74 298.2 L24.8 300.2 Z " />
<path stroke="rgb(0,0,0)" stroke-opacity="1" fill="rgb(255,255,255)" fill-opacity="1" d="M-325.5 -121.8 L-323.7 -121.9 L-321.8 -122.1 L-319.9 -122.2 L-318 -122.4 L-316.1 -122.5 L-314.2 -122.7 L-312.3 -122.8 L-310.4 -123 L-308.5 -123.1 L-306.6 -123.3 L-304.7 -123.4 L-302.8 -123.6 L-301 -123.7 L-299.1 -123.9 L-297.2 -124.1 L-295.3 -124.2 L-293.4 -124.4 L-291.5 -124.5 L-289.6 -124.7 L-287.7 -124.8 L-285.8 -125 L-283.9 -125.1 L-282 -125.3 L-280.1 -125.4 L-278.3 -125.6 L-278.1 -123.7 L-278 -121.8 L-277.8 -119.9 L-277.6 -118 L-277.5 -116.1 L-277.3 -114.2 L-277.2 -112.3 L-277 -110.5 L-276.9 -108.6 L-276.7 -106.7 L-276.6 -104.8 L-276.4 -102.9 L-276.3 -101 L-276.1 -99.1 L-276 -97.21 L-275.8 -95.32 L-275.7 -93.43 L-275.5 -91.54 L-275.3 -89.65 L-275.2 -87.75 L-275 -85.86 L-274.9 -83.97 L-274.7 -82.08 L-274.6 -80.19 L-274.4 -78.3 L-276.3 -78.14 L-278.2 -77.99 L-280.1 -77.84 L-282 -77.68 L-283.9 -77.53 L-285.8 -77.38 L-287.7 -77.22 L-289.6 -77.07 L-291.4 -76.92 L-293.3 -76.76 L-295.2 -76.61 L-297.1 -76.46 L-299 -76.3 L-300.9 -76.15 L-302.8 -76 L-304.7 -75.84 L-306.6 -75.69 L-308.5 -75.54 L-310.4 -75.38 L-312.3 -75.23 L-314.1 -75.08 L-316 -74.92 L-317.9 -74.77 L-319.8 -74.62 L-321.7 -74.46 L-321.9 -76.36 L-322 -78.25 L-322.2 -80.14 L-322.3 -82.03 L-322.5 -83.92 L-322.6 -85.81 L-322.8 -87.7 L-322.9 -89.6 L-323.1 -91.49 L-323.2 -93.38 L-323.4 -95.27 L-323.6 -97.16 L-323.7 -99.05 L-323.9 -100.9 L-324 -102.8 L-324.2 -104.7 L-324.3 -106.6 L-324.5 -108.5 L-324.6 -110.4 L-324.8 -112.3 L-324.9 -114.2 L-325.1 -116.1 L-325.2 -118 L-325.4 -119.9 L-325.5 -121.8 Z " />
<path stroke="rgb(0,0,0)" stroke-opacity="0.803" fill="rgb(255,255,255)" fill-opacity="1" d="M224.8 300.2 L224.7 302.2 L224.5 304.1 L224 306.1 L223.5 308 L222.8 309.8 L221.9 311.6 L220.9 313.3 L219.8 314.9 L218.6 316.4 L217.2 317.9 L215.7 319.2 L214.2 320.4 L212.5 321.4 L210.8 322.3 L208.9 323.1 L207.1 323.8 L205.2 324.3 L203.2 324.6 L201.3 324.8 L199.3 324.8 L197.3 324.7 L195.4 324.4 L193.5 323.9 L191.6 323.3 L189.7 322.6 L188 321.7 L186.3 320.7 L184.7 319.5 L183.2 318.2 L181.8 316.8 L180.5 315.3 L179.4 313.7 L178.3 312.1 L177.4 310.3 L176.7 308.5 L176.1 306.6 L175.6 304.7 L175.4 302.7 L175.2 300.8 L175.2 298.8 L175.4 296.8 L175.7 294.9 L176.2 293 L176.9 291.1 L177.6 289.3 L178.6 287.6 L179.6 285.9 L180.8 284.3 L182.1 282.8 L183.5 281.5 L185 280.2 L186.7 279.1 L188.4 278.1 L190.1 277.2 L192 276.5 L193.9 276 L195.8 275.6 L197.8 275.3 L199.7 275.2 L201.7 275.3 L203.7 275.5 L205.6 275.8 L207.5 276.4 L209.4 277 L211.1 277.8 L212.9 278.8 L214.5 279.9 L216.1 281.1 L217.5 282.4 L218.9 283.9 L220.1 285.4 L221.2 287.1 L222.1 288.8 L223 290.6 L223.6 292.4 L224.2 294.3 L224.5 296.3 L224.7 298.2 L224.8 300.2 Z " />
<path stroke="rgb(0,0,0)" stroke-opacity="1" fill="rgb(255,255,255)" fill-opacity="1" d="M-124.5 -124.8 L-122.5 -124.8 L-120.5 -124.8 L-118.6 -124.8 L-116.6 -124.8 L-114.6 -124.8 L-112.6 -124.7 L-110.7 -124.7 L-108.7 -124.7 L-106.7 -124.7 L-104.8 -124.7 L-102.8 -124.7 L-100.8 -124.7 L-98.83 -124.6 L-96.86 -124.6 L-94.89 -124.6 L-92.91 -124.6 L-90.94 -124.6 L-88.97 -124.6 L-86.99 -124.6 L-85.02 -124.5 L-83.05 -124.5 L-81.08 -124.5 L-79.1 -124.5 L-77.13 -124.5 L-75.16 -124.5 L-75.17 -122.5 L-75.19 -120.5 L-75.2 -118.6 L-75.21 -116.6 L-75.23 -114.6 L-75.24 -112.6 L-75.26 -110.7 L-75.27 -108.7 L-75.28 -106.7 L-75.3 -104.7 L-75.31 -102.8 L-75.33 -100.8 L-75.34 -98.83 L-75.36 -96.86 L-75.37 -94.88 L-75.38 -92.91 L-75.4 -90.94 L-75.41 -88.96 L-75.43 -86.99 L-75.44 -85.02 L-75.46 -83.05 L-75.47 -81.07 L-75.48 -79.1 L-75.5 -77.13 L-75.51 -75.15 L-77.48 -75.17 L-79.46 -75.18 L-81.43 -75.2 L-83.4 -75.21 L-85.38 -75.22 L-87.35 -75.24 L-89.32 -75.25 L-91.3 -75.27 L-93.27 -75.28 L-95.24 -75.3 L-97.21 -75.31 L-99.19 -75.32 L-101.2 -75.34 L-103.1 -75.35 L-105.1 -75.37 L-107.1 -75.38 L-109.1 -75.39 L-111 -75.41 L-113 -75.42 L-115 -75.44 L-116.9 -75.45 L-118.9 -75.47 L-120.9 -75.48 L-122.9 -75.49 L-124.8 -75.51 L-124.8 -77.48 L-124.8 -79.45 L-124.8 -81.43 L-124.8 -83.4 L-124.8 -85.37 L-124.8 -87.35 L-124.7 -89.32 L-124.7 -91.29 L-124.7 -93.27 L-124.7 -95.24 L-124.7 -97.21 L-124.7 -99.18 L-124.7 -101.2 L-124.6 -103.1 L-124.6 -105.1 L-124.6 -107.1 L-124.6 -109 L-124.6 -111 L-124.6 -113 L-124.6 -115 L-124.5 -116.9 L-124.5 -118.9 L-124.5 -120.9 L-124.5 -122.9 L-124.5 -124.8 Z " />
</g>
</g>
</svg>
