<!DOCTYPE svg>
<svg xmlns="http://www.w3.org/2000/svg" xmlns:xlink="http://www.w3.org/1999/xlink" width="1000" height="1000">
<g transform="translate(500.000000,500.000000)">
<g transform="scale(3.000000,3.000000)">
<path stroke="rgb(0,0,0)" stroke-opacity="1" fill="rgb(255,255,255)" fill-opacity="1" d="M-680.4 -657.9 L-680.8 -658.8 L-681.2 -659.7 L-681.6 -660.6 L-681.9 -661.5 L-682.3 -662.4 L-682.7 -663.3 L-683.1 -664.3 L-683.5 -665.2 L-683.9 -666.1 L-684.3 -667 L-684.7 -667.9 L-685.1 -668.8 L-685.4 -669.7 L-685.8 -670.6 L-686.2 -671.5 L-686.6 -672.4 L-687 -673.3 L-687.4 -674.2 L-687.8 -675.2 L-688.2 -676.1 L-688.6 -677 L-689 -677.9 L-689.3 -678.8 L-689.7 -679.7 L-690.1 -680.6 L-689.2 -681 L-688.3 -681.4 L-687.4 -681.8 L-686.5 -682.2 L-685.6 -682.6 L-684.7 -682.9 L-683.8 -683.3 L-682.9 -683.7 L-681.9 -684.1 L-681 -684.5 L-680.1 -684.9 L-679.2 -685.3 L-678.3 -685.7 L-677.4 -686.1 L-676.5 -686.5 L-675.6 -686.8 L-674.7 -687.2 L-673.8 -687.6 L-672.9 -688 L-672 -688.4 L-671 -688.8 L-670.1 -689.2 L-669.2 -689.6 L-668.3 -690 L-667.4 -690.3 L-667 -689.4 L-666.6 -688.5 L-666.2 -687.6 L-665.9 -686.7 L-665.5 -685.8 L-665.1 -684.9 L-664.7 -684 L-664.3 -683.1 L-663.9 -682.2 L-663.5 -681.3 L-663.1 -680.4 L-662.7 -679.4 L-662.3 -678.5 L-662 -677.6 L-661.6 -676.7 L-661.2 -675.8 L-660.8 -674.9 L-660.4 -674 L-660 -673.1 L-659.6 -672.2 L-659.2 -671.3 L-658.8 -670.4 L-658.5 -669.5 L-658.1 -668.5 L-657.7 -667.6 L-658.6 -667.2 L-659.5 -666.9 L-660.4 -666.5 L-661.3 -666.1 L-662.2 -665.7 L-663.1 -665.3 L-664 -664.9 L-664.9 -664.5 L-665.8 -664.1 L-666.8 -663.7 L-667.7 -663.4 L-668.6 -663 L-669.5 -662.6 L-670.4 -662.2 L-671.3 -661.8 L-672.2 -661.4 L-673.1 -661 L-674 -660.6 L-674.9 -660.2 L-675.8 -659.8 L-676.7 -659.5 L-677.7 -659.1 L-678.6 -658.7 L-679.5 -658.3 L-680.4 -657.9 Z " />
<path stroke="rgb(0,0,0)" stroke-opacity="1" fill="rgb(255,255,255)" fill-opacity="1" d="M-199.6 -312.3 L-198.6 -312.2 L-197.6 -312.1 L-196.7 -311.9 L-195.7 -311.6 L-194.8 -311.3 L-193.9 -310.8 L-193 -310.3 L-192.2 -309.8 L-191.5 -309.1 L-190.8 -308.5 L-190.1 -307.7 L-189.5 -306.9 L-189 -306.1 L-188.5 -305.2 L-188.1 -304.3 L-187.8 -303.4 L-187.5 -302.4 L-187.4 -301.5 L-187.3 -300.5 L-187.3 -299.5 L-187.3 -298.5 L-187.5 -297.5 L-187.7 -296.6 L-188 -295.6 L-188.4 -294.7 L-188.8 -293.8 L-189.3 -293 L-189.9 -292.2 L-190.6 -291.4 L-191.2 -290.7 L-192 -290.1 L-192.8 -289.5 L-193.6 -289 L-194.5 -288.6 L-195.4 -288.2 L-196.4 -287.9 L-197.3 -287.7 L-198.3 -287.5 L-199.3 -287.4 L-200.3 -287.4 L-201.3 -287.5 L-202.2 -287.7 L-203.2 -287.9 L-204.1 -288.3 L-205 -288.6 L-205.9 -289.1 L-206.7 -289.6 L-207.5 -290.2 L-208.3 -290.9 L-209 -291.6 L-209.6 -292.4 L-210.2 -293.2 L-210.6 -294 L-211.1 -294.9 L-211.4 -295.8 L-211.7 -296.8 L-211.9 -297.7 L-212.1 -298.7 L-212.1 -299.7 L-212.1 -300.7 L-212 -301.7 L-211.8 -302.6 L-211.5 -303.6 L-211.2 -304.5 L-210.8 -305.4 L-210.3 -306.3 L-209.8 -307.1 L-209.2 -307.9 L-208.5 -308.6 L-207.8 -309.3 L-207 -309.9 L-206.2 -310.4 L-205.3 -310.9 L-204.4 -311.3 L-203.5 -311.7 L-202.5 -311.9 L-201.6 -312.1 L-200.6 -312.2 L-199.6 -312.3 Z " />
<path stroke="rgb(0,0,0)" stroke-opacity="1" fill="rgb(255,255,255)" fill-opacity="1" d="M-447.1 -630.4 L-447.8 -631 L-448.5 -631.7 L-449.3 -632.4 L-450 -633.1 L-450.7 -633.7 L-451.4 -634.4 L-452.1 -635.1 L-452.9 -635.8 L-453.6 -636.4 L-454.3 -637.1 L-455 -637.8 L-455.7 -638.5 L-456.5 -639.1 L-457.2 -639.8 L-457.9 -640.5 L-458.6 -641.2 L-459.4 -641.8 L-460.1 -642.5 L-460.8 -643.2 L-461.5 -643.9 L-462.2 -644.5 L-463 -645.2 L-463.7 -645.9 L-464.4 -646.6 L-465.1 -647.3 L-464.5 -648 L-463.8 -648.7 L-463.1 -649.4 L-462.4 -650.1 L-461.8 -650.9 L-461.1 -651.6 L-460.4 -652.3 L-459.7 -653 L-459 -653.7 L-458.4 -654.5 L-457.7 -655.2 L-457 -655.9 L-456.3 -656.6 L-455.7 -657.4 L-455 -658.1 L-454.3 -658.8 L-453.6 -659.5 L-453 -660.2 L-452.3 -661 L-451.6 -661.7 L-450.9 -662.4 L-450.3 -663.1 L-449.6 -663.9 L-448.9 -664.6 L-448.2 -665.3 L-447.5 -664.6 L-446.8 -663.9 L-446.1 -663.3 L-445.3 -662.6 L-444.6 -661.9 L-443.9 -661.2 L-443.2 -660.6 L-442.5 -659.9 L-441.7 -659.2 L-441 -658.5 L-440.3 -657.9 L-439.6 -657.2 L-438.9 -656.5 L-438.1 -655.8 L-437.4 -655.2 L-436.7 -654.5 L-436 -653.8 L-435.2 -653.1 L-434.5 -652.5 L-433.8 -651.8 L-433.1 -651.1 L-432.4 -650.4 L-431.6 -649.8 L-430.9 -649.1 L-430.2 -648.4 L-430.9 -647.7 L-431.5 -647 L-432.2 -646.2 L-432.9 -645.5 L-433.6 -644.8 L-434.2 -644.1 L-434.9 -643.4 L-435.6 -642.6 L-436.3 -641.9 L-436.9 -641.2 L-437.6 -640.5 L-438.3 -639.7 L-439 -639 L-439.7 -638.3 L-440.3 -637.6 L-441 -636.9 L-441.7 -636.1 L-442.4 -635.4 L-443 -634.7 L-443.7 -634 L-444.4 -633.2 L-445.1 -632.5 L-445.7 -631.8 L-446.4 -631.1 L-447.1 -630.4 Z " />
<path stroke="rgb(0,0,0)" stroke-opacity="1" fill="rgb(255,255,255)" fill-opacity="1" d="M0.4118 -312.3 L1.398 -312.2 L2.377 -312.1 L3.343 -311.9 L4.29 -311.6 L5.212 -311.3 L6.103 -310.8 L6.957 -310.3 L7.769 -309.8 L8.534 -309.1 L9.247 -308.5 L9.904 -307.7 L10.5 -306.9 L11.03 -306.1 L11.49 -305.2 L11.89 -304.3 L12.21 -303.4 L12.45 -302.4 L12.62 -301.5 L12.71 -300.5 L12.72 -299.5 L12.65 -298.5 L12.51 -297.5 L12.29 -296.6 L11.99 -295.6 L11.62 -294.7 L11.18 -293.8 L10.66 -293 L10.09 -292.2 L9.448 -291.4 L8.751 -290.7 L8.001 -290.1 L7.202 -289.5 L6.36 -289 L5.479 -288.6 L4.566 -288.2 L3.626 -287.9 L2.665 -287.7 L1.689 -287.5 L0.7044 -287.4 L-0.2828 -287.4 L-1.266 -287.5 L-2.24 -287.7 L-3.197 -287.9 L-4.132 -288.3 L-5.039 -288.6 L-5.912 -289.1 L-6.746 -289.6 L-7.535 -290.2 L-8.275 -290.9 L-8.96 -291.6 L-9.587 -292.4 L-10.15 -293.2 L-10.65 -294 L-11.08 -294.9 L-11.43 -295.8 L-11.72 -296.8 L-11.92 -297.7 L-12.05 -298.7 L-12.1 -299.7 L-12.08 -300.7 L-11.97 -301.7 L-11.79 -302.6 L-11.53 -303.6 L-11.19 -304.5 L-10.78 -305.4 L-10.31 -306.3 L-9.761 -307.1 L-9.152 -307.9 L-8.484 -308.6 L-7.76 -309.3 L-6.985 -309.9 L-6.164 -310.4 L-5.302 -310.9 L-4.404 -311.3 L-3.477 -311.7 L-2.525 -311.9 L-1.556 -312.1 L-0.5749 -312.2 L0.4118 -312.3 Z " />
<path stroke="rgb(0,0,0)" stroke-opacity="1" fill="rgb(255,255,255)" fill-opacity="1" d="M-216.2 -607.4 L-217.2 -607.8 L-218.1 -608.1 L-219 -608.5 L-219.9 -608.8 L-220.8 -609.2 L-221.8 -609.5 L-222.7 -609.9 L-223.6 -610.3 L-224.5 -610.6 L-225.5 -611 L-226.4 -611.3 L-227.3 -611.7 L-228.2 -612 L-229.2 -612.4 L-230.1 -612.8 L-231 -613.1 L-231.9 -613.5 L-232.8 -613.8 L-233.8 -614.2 L-234.7 -614.5 L-235.6 -614.9 L-236.5 -615.3 L-237.5 -615.6 L-238.4 -616 L-239.3 -616.3 L-238.9 -617.2 L-238.6 -618.2 L-238.2 -619.1 L-237.9 -620 L-237.5 -620.9 L-237.2 -621.9 L-236.8 -622.8 L-236.4 -623.7 L-236.1 -624.6 L-235.7 -625.6 L-235.4 -626.5 L-235 -627.4 L-234.7 -628.3 L-234.3 -629.2 L-233.9 -630.2 L-233.6 -631.1 L-233.2 -632 L-232.9 -632.9 L-232.5 -633.9 L-232.2 -634.8 L-231.8 -635.7 L-231.5 -636.6 L-231.1 -637.5 L-230.7 -638.5 L-230.4 -639.4 L-229.5 -639 L-228.5 -638.7 L-227.6 -638.3 L-226.7 -638 L-225.8 -637.6 L-224.8 -637.2 L-223.9 -636.9 L-223 -636.5 L-222.1 -636.2 L-221.2 -635.8 L-220.2 -635.5 L-219.3 -635.1 L-218.4 -634.8 L-217.5 -634.4 L-216.5 -634 L-215.6 -633.7 L-214.7 -633.3 L-213.8 -633 L-212.9 -632.6 L-211.9 -632.3 L-211 -631.9 L-210.1 -631.5 L-209.2 -631.2 L-208.2 -630.8 L-207.3 -630.5 L-207.7 -629.5 L-208 -628.6 L-208.4 -627.7 L-208.7 -626.8 L-209.1 -625.9 L-209.5 -624.9 L-209.8 -624 L-210.2 -623.1 L-210.5 -622.2 L-210.9 -621.2 L-211.2 -620.3 L-211.6 -619.4 L-212 -618.5 L-212.3 -617.6 L-212.7 -616.6 L-213 -615.7 L-213.4 -614.8 L-213.7 -613.9 L-214.1 -612.9 L-214.5 -612 L-214.8 -611.1 L-215.2 -610.2 L-215.5 -609.3 L-215.9 -608.3 L-216.2 -607.4 Z " />
<path stroke="rgb(0,0,0)" stroke-opacity="1" fill="rgb(255,255,255)" fill-opacity="1" d="M200.4 -312.3 L201.4 -312.2 L202.4 -312.1 L203.3 -311.9 L204.3 -311.6 L205.2 -311.3 L206.1 -310.8 L207 -310.3 L207.8 -309.8 L208.5 -309.1 L209.2 -308.5 L209.9 -307.7 L210.5 -306.9 L211 -306.1 L211.5 -305.2 L211.9 -304.3 L212.2 -303.4 L212.5 -302.4 L212.6 -301.5 L212.7 -300.5 L212.7 -299.5 L212.7 -298.5 L212.5 -297.5 L212.3 -296.6 L212 -295.6 L211.6 -294.7 L211.2 -293.8 L210.7 -293 L210.1 -292.2 L209.4 -291.4 L208.8 -290.7 L208 -290.1 L207.2 -289.5 L206.4 -289 L205.5 -288.6 L204.6 -288.2 L203.6 -287.9 L202.7 -287.7 L201.7 -287.5 L200.7 -287.4 L199.7 -287.4 L198.7 -287.5 L197.8 -287.7 L196.8 -287.9 L195.9 -288.3 L195 -288.6 L194.1 -289.1 L193.3 -289.6 L192.5 -290.2 L191.7 -290.9 L191 -291.6 L190.4 -292.4 L189.8 -293.2 L189.4 -294 L188.9 -294.9 L188.6 -295.8 L188.3 -296.8 L188.1 -297.7 L187.9 -298.7 L187.9 -299.7 L187.9 -300.7 L188 -301.7 L188.2 -302.6 L188.5 -303.6 L188.8 -304.5 L189.2 -305.4 L189.7 -306.3 L190.2 -307.1 L190.8 -307.9 L191.5 -308.6 L192.2 -309.3 L193 -309.9 L193.8 -310.4 L194.7 -310.9 L195.6 -311.3 L196.5 -311.7 L197.5 -311.9 L198.4 -312.1 L199.4 -312.2 L200.4 -312.3 Z " />
<path stroke="rgb(0,0,0)" stroke-opacity="1" fill="rgb(255,255,255)" fill-opacity="1" d="M1.235 -595.2 L0.2561 -595.3 L-0.7225 -595.5 L-1.701 -595.6 L-2.68 -595.8 L-3.659 -595.9 L-4.637 -596.1 L-5.616 -596.2 L-6.595 -596.3 L-7.573 -596.5 L-8.552 -596.6 L-9.531 -596.8 L-10.51 -596.9 L-11.49 -597.1 L-12.47 -597.2 L-13.45 -597.4 L-14.42 -597.5 L-15.4 -597.6 L-16.38 -597.8 L-17.36 -597.9 L-18.34 -598.1 L-19.32 -598.2 L-20.3 -598.4 L-21.27 -598.5 L-22.25 -598.7 L-23.23 -598.8 L-23.09 -599.8 L-22.94 -600.8 L-22.8 -601.7 L-22.65 -602.7 L-22.51 -603.7 L-22.36 -604.7 L-22.22 -605.7 L-22.08 -606.6 L-21.93 -607.6 L-21.79 -608.6 L-21.64 -609.6 L-21.5 -610.5 L-21.35 -611.5 L-21.21 -612.5 L-21.06 -613.5 L-20.92 -614.5 L-20.77 -615.4 L-20.63 -616.4 L-20.48 -617.4 L-20.34 -618.4 L-20.2 -619.4 L-20.05 -620.3 L-19.91 -621.3 L-19.76 -622.3 L-19.62 -623.3 L-18.64 -623.1 L-17.66 -623 L-16.68 -622.8 L-15.7 -622.7 L-14.72 -622.5 L-13.75 -622.4 L-12.77 -622.3 L-11.79 -622.1 L-10.81 -622 L-9.831 -621.8 L-8.852 -621.7 L-7.873 -621.5 L-6.895 -621.4 L-5.916 -621.2 L-4.937 -621.1 L-3.958 -621 L-2.98 -620.8 L-2.001 -620.7 L-1.022 -620.5 L-0.04377 -620.4 L0.9349 -620.2 L1.914 -620.1 L2.892 -619.9 L3.871 -619.8 L4.85 -619.7 L4.705 -618.7 L4.56 -617.7 L4.416 -616.7 L4.271 -615.7 L4.127 -614.8 L3.982 -613.8 L3.837 -612.8 L3.693 -611.8 L3.548 -610.8 L3.404 -609.9 L3.259 -608.9 L3.115 -607.9 L2.97 -606.9 L2.825 -606 L2.681 -605 L2.536 -604 L2.392 -603 L2.247 -602 L2.102 -601.1 L1.958 -600.1 L1.813 -599.1 L1.669 -598.1 L1.524 -597.1 L1.379 -596.2 L1.235 -595.2 Z " />
<path stroke="rgb(0,0,0)" stroke-opacity="1" fill="rgb(255,255,255)" fill-opacity="1" d="M-299.6 -212.3 L-298.6 -212.2 L-297.6 -212.1 L-296.7 -211.9 L-295.7 -211.6 L-294.8 -211.3 L-293.9 -210.8 L-293 -210.3 L-292.2 -209.8 L-291.5 -209.1 L-290.8 -208.5 L-290.1 -207.7 L-289.5 -206.9 L-289 -206.1 L-288.5 -205.2 L-288.1 -204.3 L-287.8 -203.4 L-287.5 -202.4 L-287.4 -201.5 L-287.3 -200.5 L-287.3 -199.5 L-287.3 -198.5 L-287.5 -197.5 L-287.7 -196.6 L-288 -195.6 L-288.4 -194.7 L-288.8 -193.8 L-289.3 -193 L-289.9 -192.2 L-290.6 -191.4 L-291.2 -190.7 L-292 -190.1 L-292.8 -189.5 L-293.6 -189 L-294.5 -188.6 L-295.4 -188.2 L-296.4 -187.9 L-297.3 -187.7 L-298.3 -187.5 L-299.3 -187.4 L-300.3 -187.4 L-301.3 -187.5 L-302.2 -187.7 L-303.2 -187.9 L-304.1 -188.3 L-305 -188.6 L-305.9 -189.1 L-306.7 -189.6 L-307.5 -190.2 L-308.3 -190.9 L-309 -191.6 L-309.6 -192.4 L-310.2 -193.2 L-310.6 -194 L-311.1 -194.9 L-311.4 -195.8 L-311.7 -196.8 L-311.9 -197.7 L-312.1 -198.7 L-312.1 -199.7 L-312.1 -200.7 L-312 -201.7 L-311.8 -202.6 L-311.5 -203.6 L-311.2 -204.5 L-310.8 -205.4 L-310.3 -206.3 L-309.8 -207.1 L-309.2 -207.9 L-308.5 -208.6 L-307.8 -209.3 L-307 -209.9 L-306.2 -210.4 L-305.3 -210.9 L-304.4 -211.3 L-303.5 -211.7 L-302.5 -211.9 L-301.6 -212.1 L-300.6 -212.2 L-299.6 -212.3 Z " />
<path stroke="rgb(0,0,0)" stroke-opacity="1" fill="rgb(255,255,255)" fill-opacity="1" d="M-547.1 -530.4 L-547.8 -531 L-548.5 -531.7 L-549.3 -532.4 L-550 -533.1 L-550.7 -533.7 L-551.4 -534.4 L-552.1 -535.1 L-552.9 -535.8 L-553.6 -536.4 L-554.3 -537.1 L-555 -537.8 L-555.7 -538.5 L-556.5 -539.1 L-557.2 -539.8 L-557.9 -540.5 L-558.6 -541.2 L-559.4 -541.8 L-560.1 -542.5 L-560.8 -543.2 L-561.5 -543.9 L-562.2 -544.5 L-563 -545.2 L-563.7 -545.9 L-564.4 -546.6 L-565.1 -547.3 L-564.5 -548 L-563.8 -548.7 L-563.1 -549.4 L-562.4 -550.1 L-561.8 -550.9 L-561.1 -551.6 L-560.4 -552.3 L-559.7 -553 L-559 -553.7 L-558.4 -554.5 L-557.7 -555.2 L-557 -555.9 L-556.3 -556.6 L-555.7 -557.4 L-555 -558.1 L-554.3 -558.8 L-553.6 -559.5 L-553 -560.2 L-552.3 -561 L-551.6 -561.7 L-550.9 -562.4 L-550.3 -563.1 L-549.6 -563.9 L-548.9 -564.6 L-548.2 -565.3 L-547.5 -564.6 L-546.8 -563.9 L-546.1 -563.3 L-545.3 -562.6 L-544.6 -561.9 L-543.9 -561.2 L-543.2 -560.6 L-542.5 -559.9 L-541.7 -559.2 L-541 -558.5 L-540.3 -557.9 L-539.6 -557.2 L-538.9 -556.5 L-538.1 -555.8 L-537.4 -555.2 L-536.7 -554.5 L-536 -553.8 L-535.2 -553.1 L-534.5 -552.5 L-533.8 -551.8 L-533.1 -551.1 L-532.4 -550.4 L-531.6 -549.8 L-530.9 -549.1 L-530.2 -548.4 L-530.9 -547.7 L-531.5 -547 L-532.2 -546.2 L-532.9 -545.5 L-533.6 -544.8 L-534.2 -544.1 L-534.9 -543.4 L-535.6 -542.6 L-536.3 -541.9 L-536.9 -541.2 L-537.6 -540.5 L-538.3 -539.7 L-539 -539 L-539.7 -538.3 L-540.3 -537.6 L-541 -536.9 L-541.7 -536.1 L-542.4 -535.4 L-543 -534.7 L-543.7 -534 L-544.4 -533.2 L-545.1 -532.5 L-545.7 -531.8 L-546.4 -531.1 L-547.1 -530.4 Z " />
<path stroke="rgb(0,0,0)" stroke-opacity="1" fill="rgb(255,255,255)" fill-opacity="1" d="M-99.59 -212.3 L-98.6 -212.2 L-97.62 -212.1 L-96.66 -211.9 L-95.71 -211.6 L-94.79 -211.3 L-93.9 -210.8 L-93.04 -210.3 L-92.23 -209.8 L-91.47 -209.1 L-90.75 -208.5 L-90.1 -207.7 L-89.5 -206.9 L-88.97 -206.1 L-88.51 -205.2 L-88.11 -204.3 L-87.79 -203.4 L-87.55 -202.4 L-87.38 -201.5 L-87.29 -200.5 L-87.28 -199.5 L-87.35 -198.5 L-87.49 -197.5 L-87.71 -196.6 L-88.01 -195.6 L-88.38 -194.7 L-88.82 -193.8 L-89.34 -193 L-89.91 -192.2 L-90.55 -191.4 L-91.25 -190.7 L-92 -190.1 L-92.8 -189.5 L-93.64 -189 L-94.52 -188.6 L-95.43 -188.2 L-96.37 -187.9 L-97.34 -187.7 L-98.31 -187.5 L-99.3 -187.4 L-100.3 -187.4 L-101.3 -187.5 L-102.2 -187.7 L-103.2 -187.9 L-104.1 -188.3 L-105 -188.6 L-105.9 -189.1 L-106.7 -189.6 L-107.5 -190.2 L-108.3 -190.9 L-109 -191.6 L-109.6 -192.4 L-110.2 -193.2 L-110.6 -194 L-111.1 -194.9 L-111.4 -195.8 L-111.7 -196.8 L-111.9 -197.7 L-112.1 -198.7 L-112.1 -199.7 L-112.1 -200.7 L-112 -201.7 L-111.8 -202.6 L-111.5 -203.6 L-111.2 -204.5 L-110.8 -205.4 L-110.3 -206.3 L-109.8 -207.1 L-109.2 -207.9 L-108.5 -208.6 L-107.8 -209.3 L-107 -209.9 L-106.2 -210.4 L-105.3 -210.9 L-104.4 -211.3 L-103.5 -211.7 L-102.5 -211.9 L-101.6 -212.1 L-100.6 -212.2 L-99.59 -212.3 Z " />
<path stroke="rgb(0,0,0)" stroke-opacity="1" fill="rgb(255,255,255)" fill-opacity="1" d="M-316.2 -507.4 L-317.2 -507.8 L-318.1 -508.1 L-319 -508.5 L-319.9 -508.8 L-320.8 -509.2 L-321.8 -509.5 L-322.7 -509.9 L-323.6 -510.3 L-324.5 -510.6 L-325.5 -511 L-326.4 -511.3 L-327.3 -511.7 L-328.2 -512 L-329.2 -512.4 L-330.1 -512.8 L-331 -513.1 L-331.9 -513.5 L-332.8 -513.8 L-333.8 -514.2 L-334.7 -514.5 L-335.6 -514.9 L-336.5 -515.3 L-337.5 -515.6 L-338.4 -516 L-339.3 -516.3 L-338.9 -517.2 L-338.6 -518.2 L-338.2 -519.1 L-337.9 -520 L-337.5 -520.9 L-337.2 -521.9 L-336.8 -522.8 L-336.4 -523.7 L-336.1 -524.6 L-335.7 -525.6 L-335.4 -526.5 L-335 -527.4 L-334.7 -528.3 L-334.3 -529.2 L-333.9 -530.2 L-333.6 -531.1 L-333.2 -532 L-332.9 -532.9 L-332.5 -533.9 L-332.2 -534.8 L-331.8 -535.7 L-331.5 -536.6 L-331.1 -537.5 L-330.7 -538.5 L-330.4 -539.4 L-329.5 -539 L-328.5 -538.7 L-327.6 -538.3 L-326.7 -538 L-325.8 -537.6 L-324.8 -537.2 L-323.9 -536.9 L-323 -536.5 L-322.1 -536.2 L-321.2 -535.8 L-320.2 -535.5 L-319.3 -535.1 L-318.4 -534.8 L-317.5 -534.4 L-316.5 -534 L-315.6 -533.7 L-314.7 -533.3 L-313.8 -533 L-312.9 -532.6 L-311.9 -532.3 L-311 -531.9 L-310.1 -531.5 L-309.2 -531.2 L-308.2 -530.8 L-307.3 -530.5 L-307.7 -529.5 L-308 -528.6 L-308.4 -527.7 L-308.7 -526.8 L-309.1 -525.9 L-309.5 -524.9 L-309.8 -524 L-310.2 -523.1 L-310.5 -522.2 L-310.9 -521.2 L-311.2 -520.3 L-311.6 -519.4 L-312 -518.5 L-312.3 -517.6 L-312.7 -516.6 L-313 -515.7 L-313.4 -514.8 L-313.7 -513.9 L-314.1 -512.9 L-314.5 -512 L-314.8 -511.1 L-315.2 -510.2 L-315.5 -509.3 L-315.9 -508.3 L-316.2 -507.4 Z " />
<path stroke="rgb(0,0,0)" stroke-opacity="1" fill="rgb(255,255,255)" fill-opacity="1" d="M100.4 -212.3 L101.4 -212.2 L102.4 -212.1 L103.3 -211.9 L104.3 -211.6 L105.2 -211.3 L106.1 -210.8 L107 -210.3 L107.8 -209.8 L108.5 -209.1 L109.2 -208.5 L109.9 -207.7 L110.5 -206.9 L111 -206.1 L111.5 -205.2 L111.9 -204.3 L112.2 -203.4 L112.5 -202.4 L112.6 -201.5 L112.7 -200.5 L112.7 -199.5 L112.7 -198.5 L112.5 -197.5 L112.3 -196.6 L112 -195.6 L111.6 -194.7 L111.2 -193.8 L110.7 -193 L110.1 -192.2 L109.4 -191.4 L108.8 -190.7 L108 -190.1 L107.2 -189.5 L106.4 -189 L105.5 -188.6 L104.6 -188.2 L103.6 -187.9 L102.7 -187.7 L101.7 -187.5 L100.7 -187.4 L99.72 -187.4 L98.73 -187.5 L97.76 -187.7 L96.8 -187.9 L95.87 -188.3 L94.96 -188.6 L94.09 -189.1 L93.25 -189.6 L92.46 -190.2 L91.73 -190.9 L91.04 -191.6 L90.41 -192.4 L89.85 -193.2 L89.35 -194 L88.92 -194.9 L88.57 -195.8 L88.28 -196.8 L88.08 -197.7 L87.95 -198.7 L87.9 -199.7 L87.92 -200.7 L88.03 -201.7 L88.21 -202.6 L88.47 -203.6 L88.81 -204.5 L89.22 -205.4 L89.69 -206.3 L90.24 -207.1 L90.85 -207.9 L91.52 -208.6 L92.24 -209.3 L93.02 -209.9 L93.84 -210.4 L94.7 -210.9 L95.6 -211.3 L96.52 -211.7 L97.47 -211.9 L98.44 -212.1 L99.43 -212.2 L100.4 -212.3 Z " />
<path stroke="rgb(0,0,0)" stroke-opacity="1" fill="rgb(255,255,255)" fill-opacity="1" d="M-98.77 -495.2 L-99.74 -495.3 L-100.7 -495.5 L-101.7 -495.6 L-102.7 -495.8 L-103.7 -495.9 L-104.6 -496.1 L-105.6 -496.2 L-106.6 -496.3 L-107.6 -496.5 L-108.6 -496.6 L-109.5 -496.8 L-110.5 -496.9 L-111.5 -497.1 L-112.5 -497.2 L-113.4 -497.4 L-114.4 -497.5 L-115.4 -497.6 L-116.4 -497.8 L-117.4 -497.9 L-118.3 -498.1 L-119.3 -498.2 L-120.3 -498.4 L-121.3 -498.5 L-122.3 -498.7 L-123.2 -498.8 L-123.1 -499.8 L-122.9 -500.8 L-122.8 -501.7 L-122.7 -502.7 L-122.5 -503.7 L-122.4 -504.7 L-122.2 -505.7 L-122.1 -506.6 L-121.9 -507.6 L-121.8 -508.6 L-121.6 -509.6 L-121.5 -510.5 L-121.4 -511.5 L-121.2 -512.5 L-121.1 -513.5 L-120.9 -514.5 L-120.8 -515.4 L-120.6 -516.4 L-120.5 -517.4 L-120.3 -518.4 L-120.2 -519.4 L-120.1 -520.3 L-119.9 -521.3 L-119.8 -522.3 L-119.6 -523.3 L-118.6 -523.1 L-117.7 -523 L-116.7 -522.8 L-115.7 -522.7 L-114.7 -522.5 L-113.7 -522.4 L-112.8 -522.3 L-111.8 -522.1 L-110.8 -522 L-109.8 -521.8 L-108.9 -521.7 L-107.9 -521.5 L-106.9 -521.4 L-105.9 -521.2 L-104.9 -521.1 L-104 -521 L-103 -520.8 L-102 -520.7 L-101 -520.5 L-100 -520.4 L-99.07 -520.2 L-98.09 -520.1 L-97.11 -519.9 L-96.13 -519.8 L-95.15 -519.7 L-95.29 -518.7 L-95.44 -517.7 L-95.58 -516.7 L-95.73 -515.7 L-95.87 -514.8 L-96.02 -513.8 L-96.16 -512.8 L-96.31 -511.8 L-96.45 -510.8 L-96.6 -509.9 L-96.74 -508.9 L-96.89 -507.9 L-97.03 -506.9 L-97.17 -506 L-97.32 -505 L-97.46 -504 L-97.61 -503 L-97.75 -502 L-97.9 -501.1 L-98.04 -500.1 L-98.19 -499.1 L-98.33 -498.1 L-98.48 -497.1 L-98.62 -496.2 L-98.77 -495.2 Z " />
<path stroke="rgb(0,0,0)" stroke-opacity="1" fill="rgb(255,255,255)" fill-opacity="1" d="M300.4 -212.3 L301.4 -212.2 L302.4 -212.1 L303.3 -211.9 L304.3 -211.6 L305.2 -211.3 L306.1 -210.8 L307 -210.3 L307.8 -209.8 L308.5 -209.1 L309.2 -208.5 L309.9 -207.7 L310.5 -206.9 L311 -206.1 L311.5 -205.2 L311.9 -204.3 L312.2 -203.4 L312.5 -202.4 L312.6 -201.5 L312.7 -200.5 L312.7 -199.5 L312.7 -198.5 L312.5 -197.5 L312.3 -196.6 L312 -195.6 L311.6 -194.7 L311.2 -193.8 L310.7 -193 L310.1 -192.2 L309.4 -191.4 L308.8 -190.7 L308 -190.1 L307.2 -189.5 L306.4 -189 L305.5 -188.6 L304.6 -188.2 L303.6 -187.9 L302.7 -187.7 L301.7 -187.5 L300.7 -187.4 L299.7 -187.4 L298.7 -187.5 L297.8 -187.7 L296.8 -187.9 L295.9 -188.3 L295 -188.6 L294.1 -189.1 L293.3 -189.6 L292.5 -190.2 L291.7 -190.9 L291 -191.6 L290.4 -192.4 L289.8 -193.2 L289.4 -194 L288.9 -194.9 L288.6 -195.8 L288.3 -196.8 L288.1 -197.7 L287.9 -198.7 L287.9 -199.7 L287.9 -200.7 L288 -201.7 L288.2 -202.6 L288.5 -203.6 L288.8 -204.5 L289.2 -205.4 L289.7 -206.3 L290.2 -207.1 L290.8 -207.9 L291.5 -208.6 L292.2 -209.3 L293 -209.9 L293.8 -210.4 L294.7 -210.9 L295.6 -211.3 L296.5 -211.7 L297.5 -211.9 L298.4 -212.1 L299.4 -212.2 L300.4 -212.3 Z " />
<path stroke="rgb(0,0,0)" stroke-opacity="1" fill="rgb(255,255,255)" fill-opacity="1" d="M-647.1 -430.4 L-647.8 -431 L-648.5 -431.7 L-649.3 -432.4 L-650 -433.1 L-650.7 -433.7 L-651.4 -434.4 L-652.1 -435.1 L-652.9 -435.8 L-653.6 -436.4 L-654.3 -437.1 L-655 -437.8 L-655.7 -438.5 L-656.5 -439.1 L-657.2 -439.8 L-657.9 -440.5 L-658.6 -441.2 L-659.4 -441.8 L-660.1 -442.5 L-660.8 -443.2 L-661.5 -443.9 L-662.2 -444.5 L-663 -445.2 L-663.7 -445.9 L-664.4 -446.6 L-665.1 -447.3 L-664.5 -448 L-663.8 -448.7 L-663.1 -449.4 L-662.4 -450.1 L-661.8 -450.9 L-661.1 -451.6 L-660.4 -452.3 L-659.7 -453 L-659 -453.7 L-658.4 -454.5 L-657.7 -455.2 L-657 -455.9 L-656.3 -456.6 L-655.7 -457.4 L-655 -458.1 L-654.3 -458.8 L-653.6 -459.5 L-653 -460.2 L-652.3 -461 L-651.6 -461.7 L-650.9 -462.4 L-650.3 -463.1 L-649.6 -463.9 L-648.9 -464.6 L-648.2 -465.3 L-647.5 -464.6 L-646.8 -463.9 L-646.1 -463.3 L-645.3 -462.6 L-644.6 -461.9 L-643.9 -461.2 L-643.2 -460.6 L-642.5 -459.9 L-641.7 -459.2 L-641 -458.5 L-640.3 -457.9 L-639.6 -457.2 L-638.9 -456.5 L-638.1 -455.8 L-637.4 -455.2 L-636.7 -454.5 L-636 -453.8 L-635.2 -453.1 L-634.5 -452.5 L-633.8 -451.8 L-633.1 -451.1 L-632.4 -450.4 L-631.6 -449.8 L-630.9 -449.1 L-630.2 -448.4 L-630.9 -447.7 L-631.5 -447 L-632.2 -446.2 L-632.9 -445.5 L-633.6 -444.8 L-634.2 -444.1 L-634.9 -443.4 L-635.6 -442.6 L-636.3 -441.9 L-636.9 -441.2 L-637.6 -440.5 L-638.3 -439.7 L-639 -439 L-639.7 -438.3 L-640.3 -437.6 L-641 -436.9 L-641.7 -436.1 L-642.4 -435.4 L-643 -434.7 L-643.7 -434 L-644.4 -433.2 L-645.1 -432.5 L-645.7 -431.8 L-646.4 -431.1 L-647.1 -430.4 Z " />
<path stroke="rgb(0,0,0)" stroke-opacity="1" fill="rgb(255,255,255)" fill-opacity="1" d="M-199.6 -112.3 L-198.6 -112.2 L-197.6 -112.1 L-196.7 -111.9 L-195.7 -111.6 L-194.8 -111.3 L-193.9 -110.8 L-193 -110.3 L-192.2 -109.8 L-191.5 -109.1 L-190.8 -108.5 L-190.1 -107.7 L-189.5 -106.9 L-189 -106.1 L-188.5 -105.2 L-188.1 -104.3 L-187.8 -103.4 L-187.5 -102.4 L-187.4 -101.5 L-187.3 -100.5 L-187.3 -99.5 L-187.3 -98.51 L-187.5 -97.54 L-187.7 -96.57 L-188 -95.63 L-188.4 -94.72 L-188.8 -93.84 L-189.3 -92.99 L-189.9 -92.19 L-190.6 -91.44 L-191.2 -90.74 L-192 -90.1 L-192.8 -89.52 L-193.6 -89 L-194.5 -88.56 L-195.4 -88.18 L-196.4 -87.88 L-197.3 -87.65 L-198.3 -87.51 L-199.3 -87.44 L-200.3 -87.44 L-201.3 -87.53 L-202.2 -87.69 L-203.2 -87.94 L-204.1 -88.25 L-205 -88.64 L-205.9 -89.1 L-206.7 -89.63 L-207.5 -90.22 L-208.3 -90.88 L-209 -91.59 L-209.6 -92.35 L-210.2 -93.16 L-210.6 -94.01 L-211.1 -94.9 L-211.4 -95.82 L-211.7 -96.77 L-211.9 -97.73 L-212.1 -98.71 L-212.1 -99.7 L-212.1 -100.7 L-212 -101.7 L-211.8 -102.6 L-211.5 -103.6 L-211.2 -104.5 L-210.8 -105.4 L-210.3 -106.3 L-209.8 -107.1 L-209.2 -107.9 L-208.5 -108.6 L-207.8 -109.3 L-207 -109.9 L-206.2 -110.4 L-205.3 -110.9 L-204.4 -111.3 L-203.5 -111.7 L-202.5 -111.9 L-201.6 -112.1 L-200.6 -112.2 L-199.6 -112.3 Z " />
<path stroke="rgb(0,0,0)" stroke-opacity="1" fill="rgb(255,255,255)" fill-opacity="1" d="M-416.2 -407.4 L-417.2 -407.8 L-418.1 -408.1 L-419 -408.5 L-419.9 -408.8 L-420.8 -409.2 L-421.8 -409.5 L-422.7 -409.9 L-423.6 -410.3 L-424.5 -410.6 L-425.5 -411 L-426.4 -411.3 L-427.3 -411.7 L-428.2 -412 L-429.2 -412.4 L-430.1 -412.8 L-431 -413.1 L-431.9 -413.5 L-432.8 -413.8 L-433.8 -414.2 L-434.7 -414.5 L-435.6 -414.9 L-436.5 -415.3 L-437.5 -415.6 L-438.4 -416 L-439.3 -416.3 L-438.9 -417.2 L-438.6 -418.2 L-438.2 -419.1 L-437.9 -420 L-437.5 -420.9 L-437.2 -421.9 L-436.8 -422.8 L-436.4 -423.7 L-436.1 -424.6 L-435.7 -425.6 L-435.4 -426.5 L-435 -427.4 L-434.7 -428.3 L-434.3 -429.2 L-433.9 -430.2 L-433.6 -431.1 L-433.2 -432 L-432.9 -432.9 L-432.5 -433.9 L-432.2 -434.8 L-431.8 -435.7 L-431.5 -436.6 L-431.1 -437.5 L-430.7 -438.5 L-430.4 -439.4 L-429.5 -439 L-428.5 -438.7 L-427.6 -438.3 L-426.7 -438 L-425.8 -437.6 L-424.8 -437.2 L-423.9 -436.9 L-423 -436.5 L-422.1 -436.2 L-421.2 -435.8 L-420.2 -435.5 L-419.3 -435.1 L-418.4 -434.8 L-417.5 -434.4 L-416.5 -434 L-415.6 -433.7 L-414.7 -433.3 L-413.8 -433 L-412.9 -432.6 L-411.9 -432.3 L-411 -431.9 L-410.1 -431.5 L-409.2 -431.2 L-408.2 -430.8 L-407.3 -430.5 L-407.7 -429.5 L-408 -428.6 L-408.4 -427.7 L-408.7 -426.8 L-409.1 -425.9 L-409.5 -424.9 L-409.8 -424 L-410.2 -423.1 L-410.5 -422.2 L-410.9 -421.2 L-411.2 -420.3 L-411.6 -419.4 L-412 -418.5 L-412.3 -417.6 L-412.7 -416.6 L-413 -415.7 L-413.4 -414.8 L-413.7 -413.9 L-414.1 -412.9 L-414.5 -412 L-414.8 -411.1 L-415.2 -410.2 L-415.5 -409.3 L-415.9 -408.3 L-416.2 -407.4 Z " />
<path stroke="rgb(0,0,0)" stroke-opacity="1" fill="rgb(255,255,255)" fill-opacity="1" d="M0.4118 -112.3 L1.398 -112.2 L2.377 -112.1 L3.343 -111.9 L4.29 -111.6 L5.212 -111.3 L6.103 -110.8 L6.957 -110.3 L7.769 -109.8 L8.534 -109.1 L9.247 -108.5 L9.904 -107.7 L10.5 -106.9 L11.03 -106.1 L11.49 -105.2 L11.89 -104.3 L12.21 -103.4 L12.45 -102.4 L12.62 -101.5 L12.71 -100.5 L12.72 -99.5 L12.65 -98.51 L12.51 -97.54 L12.29 -96.57 L11.99 -95.63 L11.62 -94.72 L11.18 -93.84 L10.66 -92.99 L10.09 -92.19 L9.448 -91.44 L8.751 -90.74 L8.001 -90.1 L7.202 -89.52 L6.36 -89 L5.479 -88.56 L4.566 -88.18 L3.626 -87.88 L2.665 -87.65 L1.689 -87.51 L0.7044 -87.44 L-0.2828 -87.44 L-1.266 -87.53 L-2.24 -87.69 L-3.197 -87.94 L-4.132 -88.25 L-5.039 -88.64 L-5.912 -89.1 L-6.746 -89.63 L-7.535 -90.22 L-8.275 -90.88 L-8.96 -91.59 L-9.587 -92.35 L-10.15 -93.16 L-10.65 -94.01 L-11.08 -94.9 L-11.43 -95.82 L-11.72 -96.77 L-11.92 -97.73 L-12.05 -98.71 L-12.1 -99.7 L-12.08 -100.7 L-11.97 -101.7 L-11.79 -102.6 L-11.53 -103.6 L-11.19 -104.5 L-10.78 -105.4 L-10.31 -106.3 L-9.761 -107.1 L-9.152 -107.9 L-8.484 -108.6 L-7.76 -109.3 L-6.985 -109.9 L-6.164 -110.4 L-5.302 -110.9 L-4.404 -111.3 L-3.477 -111.7 L-2.525 -111.9 L-1.556 -112.1 L-0.5749 -112.2 L0.4118 -112.3 Z " />
<path stroke="rgb(0,0,0)" stroke-opacity="1" fill="rgb(255,255,255)" fill-opacity="1" d="M-198.8 -395.2 L-199.7 -395.3 L-200.7 -395.5 L-201.7 -395.6 L-202.7 -395.8 L-203.7 -395.9 L-204.6 -396.1 L-205.6 -396.2 L-206.6 -396.3 L-207.6 -396.5 L-208.6 -396.6 L-209.5 -396.8 L-210.5 -396.9 L-211.5 -397.1 L-212.5 -397.2 L-213.4 -397.4 L-214.4 -397.5 L-215.4 -397.6 L-216.4 -397.8 L-217.4 -397.9 L-218.3 -398.1 L-219.3 -398.2 L-220.3 -398.4 L-221.3 -398.5 L-222.3 -398.7 L-223.2 -398.8 L-223.1 -399.8 L-222.9 -400.8 L-222.8 -401.7 L-222.7 -402.7 L-222.5 -403.7 L-222.4 -404.7 L-222.2 -405.7 L-222.1 -406.6 L-221.9 -407.6 L-221.8 -408.6 L-221.6 -409.6 L-221.5 -410.5 L-221.4 -411.5 L-221.2 -412.5 L-221.1 -413.5 L-220.9 -414.5 L-220.8 -415.4 L-220.6 -416.4 L-220.5 -417.4 L-220.3 -418.4 L-220.2 -419.4 L-220.1 -420.3 L-219.9 -421.3 L-219.8 -422.3 L-219.6 -423.3 L-218.6 -423.1 L-217.7 -423 L-216.7 -422.8 L-215.7 -422.7 L-214.7 -422.5 L-213.7 -422.4 L-212.8 -422.3 L-211.8 -422.1 L-210.8 -422 L-209.8 -421.8 L-208.9 -421.7 L-207.9 -421.5 L-206.9 -421.4 L-205.9 -421.2 L-204.9 -421.1 L-204 -421 L-203 -420.8 L-202 -420.7 L-201 -420.5 L-200 -420.4 L-199.1 -420.2 L-198.1 -420.1 L-197.1 -419.9 L-196.1 -419.8 L-195.2 -419.7 L-195.3 -418.7 L-195.4 -417.7 L-195.6 -416.7 L-195.7 -415.7 L-195.9 -414.8 L-196 -413.8 L-196.2 -412.8 L-196.3 -411.8 L-196.5 -410.8 L-196.6 -409.9 L-196.7 -408.9 L-196.9 -407.9 L-197 -406.9 L-197.2 -406 L-197.3 -405 L-197.5 -404 L-197.6 -403 L-197.8 -402 L-197.9 -401.1 L-198 -400.1 L-198.2 -399.1 L-198.3 -398.1 L-198.5 -397.1 L-198.6 -396.2 L-198.8 -395.2 Z " />
<path stroke="rgb(0,0,0)" stroke-opacity="1" fill="rgb(255,255,255)" fill-opacity="1" d="M200.4 -112.3 L201.4 -112.2 L202.4 -112.1 L203.3 -111.9 L204.3 -111.6 L205.2 -111.3 L206.1 -110.8 L207 -110.3 L207.8 -109.8 L208.5 -109.1 L209.2 -108.5 L209.9 -107.7 L210.5 -106.9 L211 -106.1 L211.5 -105.2 L211.9 -104.3 L212.2 -103.4 L212.5 -102.4 L212.6 -101.5 L212.7 -100.5 L212.7 -99.5 L212.7 -98.51 L212.5 -97.54 L212.3 -96.57 L212 -95.63 L211.6 -94.72 L211.2 -93.84 L210.7 -92.99 L210.1 -92.19 L209.4 -91.44 L208.8 -90.74 L208 -90.1 L207.2 -89.52 L206.4 -89 L205.5 -88.56 L204.6 -88.18 L203.6 -87.88 L202.7 -87.65 L201.7 -87.51 L200.7 -87.44 L199.7 -87.44 L198.7 -87.53 L197.8 -87.69 L196.8 -87.94 L195.9 -88.25 L195 -88.64 L194.1 -89.1 L193.3 -89.63 L192.5 -90.22 L191.7 -90.88 L191 -91.59 L190.4 -92.35 L189.8 -93.16 L189.4 -94.01 L188.9 -94.9 L188.6 -95.82 L188.3 -96.77 L188.1 -97.73 L187.9 -98.71 L187.9 -99.7 L187.9 -100.7 L188 -101.7 L188.2 -102.6 L188.5 -103.6 L188.8 -104.5 L189.2 -105.4 L189.7 -106.3 L190.2 -107.1 L190.8 -107.9 L191.5 -108.6 L192.2 -109.3 L193 -109.9 L193.8 -110.4 L194.7 -110.9 L195.6 -111.3 L196.5 -111.7 L197.5 -111.9 L198.4 -112.1 L199.4 -112.2 L200.4 -112.3 Z " />
<path stroke="rgb(0,0,0)" stroke-opacity="1" fill="rgb(255,255,255)" fill-opacity="1" d="M9.324 -389.7 L8.335 -389.7 L7.346 -389.7 L6.358 -389.8 L5.369 -389.8 L4.381 -389.9 L3.392 -389.9 L2.404 -389.9 L1.415 -390 L0.4268 -390 L-0.5617 -390.1 L-1.55 -390.1 L-2.539 -390.2 L-3.527 -390.2 L-4.516 -390.2 L-5.504 -390.3 L-6.493 -390.3 L-7.481 -390.4 L-8.47 -390.4 L-9.458 -390.4 L-10.45 -390.5 L-11.44 -390.5 L-12.42 -390.6 L-13.41 -390.6 L-14.4 -390.6 L-15.39 -390.7 L-15.35 -391.7 L-15.31 -392.7 L-15.27 -393.7 L-15.22 -394.6 L-15.18 -395.6 L-15.14 -396.6 L-15.1 -397.6 L-15.06 -398.6 L-15.02 -399.6 L-14.98 -400.6 L-14.94 -401.6 L-14.9 -402.5 L-14.85 -403.5 L-14.81 -404.5 L-14.77 -405.5 L-14.73 -406.5 L-14.69 -407.5 L-14.65 -408.5 L-14.61 -409.5 L-14.57 -410.5 L-14.52 -411.4 L-14.48 -412.4 L-14.44 -413.4 L-14.4 -414.4 L-14.36 -415.4 L-13.37 -415.4 L-12.38 -415.3 L-11.39 -415.3 L-10.41 -415.2 L-9.417 -415.2 L-8.429 -415.2 L-7.44 -415.1 L-6.452 -415.1 L-5.463 -415 L-4.475 -415 L-3.486 -414.9 L-2.498 -414.9 L-1.509 -414.9 L-0.5206 -414.8 L0.468 -414.8 L1.456 -414.7 L2.445 -414.7 L3.434 -414.7 L4.422 -414.6 L5.411 -414.6 L6.399 -414.5 L7.388 -414.5 L8.376 -414.5 L9.365 -414.4 L10.35 -414.4 L10.31 -413.4 L10.27 -412.4 L10.23 -411.4 L10.19 -410.4 L10.15 -409.4 L10.11 -408.4 L10.06 -407.5 L10.02 -406.5 L9.983 -405.5 L9.941 -404.5 L9.9 -403.5 L9.859 -402.5 L9.818 -401.5 L9.777 -400.5 L9.735 -399.5 L9.694 -398.6 L9.653 -397.6 L9.612 -396.6 L9.571 -395.6 L9.529 -394.6 L9.488 -393.6 L9.447 -392.6 L9.406 -391.6 L9.365 -390.6 L9.324 -389.7 Z " />
<path stroke="rgb(0,0,0)" stroke-opacity="1" fill="rgb(255,255,255)" fill-opacity="1" d="M-299.6 -12.26 L-298.6 -12.21 L-297.6 -12.09 L-296.7 -11.88 L-295.7 -11.61 L-294.8 -11.25 L-293.9 -10.83 L-293 -10.33 L-292.2 -9.771 L-291.5 -9.147 L-290.8 -8.464 L-290.1 -7.727 L-289.5 -6.94 L-289 -6.108 L-288.5 -5.236 L-288.1 -4.331 L-287.8 -3.397 L-287.5 -2.44 L-287.4 -1.468 L-287.3 -0.4846 L-287.3 0.5025 L-287.3 1.487 L-287.5 2.464 L-287.7 3.426 L-288 4.367 L-288.4 5.282 L-288.8 6.164 L-289.3 7.008 L-289.9 7.809 L-290.6 8.561 L-291.2 9.261 L-292 9.902 L-292.8 10.48 L-293.6 11 L-294.5 11.44 L-295.4 11.82 L-296.4 12.12 L-297.3 12.35 L-298.3 12.49 L-299.3 12.56 L-300.3 12.56 L-301.3 12.47 L-302.2 12.31 L-303.2 12.06 L-304.1 11.75 L-305 11.36 L-305.9 10.9 L-306.7 10.37 L-307.5 9.777 L-308.3 9.123 L-309 8.412 L-309.6 7.65 L-310.2 6.839 L-310.6 5.987 L-311.1 5.098 L-311.4 4.177 L-311.7 3.231 L-311.9 2.266 L-312.1 1.287 L-312.1 0.3015 L-312.1 -0.6853 L-312 -1.667 L-311.8 -2.637 L-311.5 -3.589 L-311.2 -4.518 L-310.8 -5.417 L-310.3 -6.281 L-309.8 -7.104 L-309.2 -7.881 L-308.5 -8.607 L-307.8 -9.279 L-307 -9.89 L-306.2 -10.44 L-305.3 -10.92 L-304.4 -11.33 L-303.5 -11.67 L-302.5 -11.93 L-301.6 -12.12 L-300.6 -12.23 L-299.6 -12.26 Z " />
<path stroke="rgb(0,0,0)" stroke-opacity="1" fill="rgb(255,255,255)" fill-opacity="1" d="M-516.2 -307.4 L-517.2 -307.8 L-518.1 -308.1 L-519 -308.5 L-519.9 -308.8 L-520.8 -309.2 L-521.8 -309.5 L-522.7 -309.9 L-523.6 -310.3 L-524.5 -310.6 L-525.5 -311 L-526.4 -311.3 L-527.3 -311.7 L-528.2 -312 L-529.2 -312.4 L-530.1 -312.8 L-531 -313.1 L-531.9 -313.5 L-532.8 -313.8 L-533.8 -314.2 L-534.7 -314.5 L-535.6 -314.9 L-536.5 -315.3 L-537.5 -315.6 L-538.4 -316 L-539.3 -316.3 L-538.9 -317.2 L-538.6 -318.2 L-538.2 -319.1 L-537.9 -320 L-537.5 -320.9 L-537.2 -321.9 L-536.8 -322.8 L-536.4 -323.7 L-536.1 -324.6 L-535.7 -325.6 L-535.4 -326.5 L-535 -327.4 L-534.7 -328.3 L-534.3 -329.2 L-533.9 -330.2 L-533.6 -331.1 L-533.2 -332 L-532.9 -332.9 L-532.5 -333.9 L-532.2 -334.8 L-531.8 -335.7 L-531.5 -336.6 L-531.1 -337.5 L-530.7 -338.5 L-530.4 -339.4 L-529.5 -339 L-528.5 -338.7 L-527.6 -338.3 L-526.7 -338 L-525.8 -337.6 L-524.8 -337.2 L-523.9 -336.9 L-523 -336.5 L-522.1 -336.2 L-521.2 -335.8 L-520.2 -335.5 L-519.3 -335.1 L-518.4 -334.8 L-517.5 -334.4 L-516.5 -334 L-515.6 -333.7 L-514.7 -333.3 L-513.8 -333 L-512.9 -332.6 L-511.9 -332.3 L-511 -331.9 L-510.1 -331.5 L-509.2 -331.2 L-508.2 -330.8 L-507.3 -330.5 L-507.7 -329.5 L-508 -328.6 L-508.4 -327.7 L-508.7 -326.8 L-509.1 -325.9 L-509.5 -324.9 L-509.8 -324 L-510.2 -323.1 L-510.5 -322.2 L-510.9 -321.2 L-511.2 -320.3 L-511.6 -319.4 L-512 -318.5 L-512.3 -317.6 L-512.7 -316.6 L-513 -315.7 L-513.4 -314.8 L-513.7 -313.9 L-514.1 -312.9 L-514.5 -312 L-514.8 -311.1 L-515.2 -310.2 L-515.5 -309.3 L-515.9 -308.3 L-516.2 -307.4 Z " />
<path stroke="rgb(0,0,0)" stroke-opacity="1" fill="rgb(255,255,255)" fill-opacity="1" d="M-99.59 -12.26 L-98.6 -12.21 L-97.62 -12.09 L-96.66 -11.88 L-95.71 -11.61 L-94.79 -11.25 L-93.9 -10.83 L-93.04 -10.33 L-92.23 -9.771 L-91.47 -9.147 L-90.75 -8.464 L-90.1 -7.727 L-89.5 -6.94 L-88.97 -6.108 L-88.51 -5.236 L-88.11 -4.331 L-87.79 -3.397 L-87.55 -2.44 L-87.38 -1.468 L-87.29 -0.4846 L-87.28 0.5025 L-87.35 1.487 L-87.49 2.464 L-87.71 3.426 L-88.01 4.367 L-88.38 5.282 L-88.82 6.164 L-89.34 7.008 L-89.91 7.809 L-90.55 8.561 L-91.25 9.261 L-92 9.902 L-92.8 10.48 L-93.64 11 L-94.52 11.44 L-95.43 11.82 L-96.37 12.12 L-97.34 12.35 L-98.31 12.49 L-99.3 12.56 L-100.3 12.56 L-101.3 12.47 L-102.2 12.31 L-103.2 12.06 L-104.1 11.75 L-105 11.36 L-105.9 10.9 L-106.7 10.37 L-107.5 9.777 L-108.3 9.123 L-109 8.412 L-109.6 7.65 L-110.2 6.839 L-110.6 5.987 L-111.1 5.098 L-111.4 4.177 L-111.7 3.231 L-111.9 2.266 L-112.1 1.287 L-112.1 0.3015 L-112.1 -0.6853 L-112 -1.667 L-111.8 -2.637 L-111.5 -3.589 L-111.2 -4.518 L-110.8 -5.417 L-110.3 -6.281 L-109.8 -7.104 L-109.2 -7.881 L-108.5 -8.607 L-107.8 -9.279 L-107 -9.89 L-106.2 -10.44 L-105.3 -10.92 L-104.4 -11.33 L-103.5 -11.67 L-102.5 -11.93 L-101.6 -12.12 L-100.6 -12.23 L-99.59 -12.26 Z " />
<path stroke="rgb(0,0,0)" stroke-opacity="1" fill="rgb(255,255,255)" fill-opacity="1" d="M-298.8 -295.2 L-299.7 -295.3 L-300.7 -295.5 L-301.7 -295.6 L-302.7 -295.8 L-303.7 -295.9 L-304.6 -296.1 L-305.6 -296.2 L-306.6 -296.3 L-307.6 -296.5 L-308.6 -296.6 L-309.5 -296.8 L-310.5 -296.9 L-311.5 -297.1 L-312.5 -297.2 L-313.4 -297.4 L-314.4 -297.5 L-315.4 -297.6 L-316.4 -297.8 L-317.4 -297.9 L-318.3 -298.1 L-319.3 -298.2 L-320.3 -298.4 L-321.3 -298.5 L-322.3 -298.7 L-323.2 -298.8 L-323.1 -299.8 L-322.9 -300.8 L-322.8 -301.7 L-322.7 -302.7 L-322.5 -303.7 L-322.4 -304.7 L-322.2 -305.7 L-322.1 -306.6 L-321.9 -307.6 L-321.8 -308.6 L-321.6 -309.6 L-321.5 -310.5 L-321.4 -311.5 L-321.2 -312.5 L-321.1 -313.5 L-320.9 -314.5 L-320.8 -315.4 L-320.6 -316.4 L-320.5 -317.4 L-320.3 -318.4 L-320.2 -319.4 L-320.1 -320.3 L-319.9 -321.3 L-319.8 -322.3 L-319.6 -323.3 L-318.6 -323.1 L-317.7 -323 L-316.7 -322.8 L-315.7 -322.7 L-314.7 -322.5 L-313.7 -322.4 L-312.8 -322.3 L-311.8 -322.1 L-310.8 -322 L-309.8 -321.8 L-308.9 -321.7 L-307.9 -321.5 L-306.9 -321.4 L-305.9 -321.2 L-304.9 -321.1 L-304 -321 L-303 -320.8 L-302 -320.7 L-301 -320.5 L-300 -320.4 L-299.1 -320.2 L-298.1 -320.1 L-297.1 -319.9 L-296.1 -319.8 L-295.2 -319.7 L-295.3 -318.7 L-295.4 -317.7 L-295.6 -316.7 L-295.7 -315.7 L-295.9 -314.8 L-296 -313.8 L-296.2 -312.8 L-296.3 -311.8 L-296.5 -310.8 L-296.6 -309.9 L-296.7 -308.9 L-296.9 -307.9 L-297 -306.9 L-297.2 -306 L-297.3 -305 L-297.5 -304 L-297.6 -303 L-297.8 -302 L-297.9 -301.1 L-298 -300.1 L-298.2 -299.1 L-298.3 -298.1 L-298.5 -297.1 L-298.6 -296.2 L-298.8 -295.2 Z " />
<path stroke="rgb(0,0,0)" stroke-opacity="1" fill="rgb(255,255,255)" fill-opacity="1" d="M100.4 -12.26 L101.4 -12.21 L102.4 -12.09 L103.3 -11.88 L104.3 -11.61 L105.2 -11.25 L106.1 -10.83 L107 -10.33 L107.8 -9.771 L108.5 -9.147 L109.2 -8.464 L109.9 -7.727 L110.5 -6.94 L111 -6.108 L111.5 -5.236 L111.9 -4.331 L112.2 -3.397 L112.5 -2.44 L112.6 -1.468 L112.7 -0.4846 L112.7 0.5025 L112.7 1.487 L112.5 2.464 L112.3 3.426 L112 4.367 L111.6 5.282 L111.2 6.164 L110.7 7.008 L110.1 7.809 L109.4 8.561 L108.8 9.261 L108 9.902 L107.2 10.48 L106.4 11 L105.5 11.44 L104.6 11.82 L103.6 12.12 L102.7 12.35 L101.7 12.49 L100.7 12.56 L99.72 12.56 L98.73 12.47 L97.76 12.31 L96.8 12.06 L95.87 11.75 L94.96 11.36 L94.09 10.9 L93.25 10.37 L92.46 9.777 L91.73 9.123 L91.04 8.412 L90.41 7.65 L89.85 6.839 L89.35 5.987 L88.92 5.098 L88.57 4.177 L88.28 3.231 L88.08 2.266 L87.95 1.287 L87.9 0.3015 L87.92 -0.6853 L88.03 -1.667 L88.21 -2.637 L88.47 -3.589 L88.81 -4.518 L89.22 -5.417 L89.69 -6.281 L90.24 -7.104 L90.85 -7.881 L91.52 -8.607 L92.24 -9.279 L93.02 -9.89 L93.84 -10.44 L94.7 -10.92 L95.6 -11.33 L96.52 -11.67 L97.47 -11.93 L98.44 -12.12 L99.43 -12.23 L100.4 -12.26 Z " />
<path stroke="rgb(0,0,0)" stroke-opacity="1" fill="rgb(255,255,255)" fill-opacity="1" d="M-90.68 -289.7 L-91.66 -289.7 L-92.65 -289.7 L-93.64 -289.8 L-94.63 -289.8 L-95.62 -289.9 L-96.61 -289.9 L-97.6 -289.9 L-98.58 -290 L-99.57 -290 L-100.6 -290.1 L-101.6 -290.1 L-102.5 -290.2 L-103.5 -290.2 L-104.5 -290.2 L-105.5 -290.3 L-106.5 -290.3 L-107.5 -290.4 L-108.5 -290.4 L-109.5 -290.4 L-110.4 -290.5 L-111.4 -290.5 L-112.4 -290.6 L-113.4 -290.6 L-114.4 -290.6 L-115.4 -290.7 L-115.3 -291.7 L-115.3 -292.7 L-115.3 -293.7 L-115.2 -294.6 L-115.2 -295.6 L-115.1 -296.6 L-115.1 -297.6 L-115.1 -298.6 L-115 -299.6 L-115 -300.6 L-114.9 -301.6 L-114.9 -302.5 L-114.9 -303.5 L-114.8 -304.5 L-114.8 -305.5 L-114.7 -306.5 L-114.7 -307.5 L-114.6 -308.5 L-114.6 -309.5 L-114.6 -310.5 L-114.5 -311.4 L-114.5 -312.4 L-114.4 -313.4 L-114.4 -314.4 L-114.4 -315.4 L-113.4 -315.4 L-112.4 -315.3 L-111.4 -315.3 L-110.4 -315.2 L-109.4 -315.2 L-108.4 -315.2 L-107.4 -315.1 L-106.5 -315.1 L-105.5 -315 L-104.5 -315 L-103.5 -314.9 L-102.5 -314.9 L-101.5 -314.9 L-100.5 -314.8 L-99.53 -314.8 L-98.54 -314.7 L-97.55 -314.7 L-96.57 -314.7 L-95.58 -314.6 L-94.59 -314.6 L-93.6 -314.5 L-92.61 -314.5 L-91.62 -314.5 L-90.64 -314.4 L-89.65 -314.4 L-89.69 -313.4 L-89.73 -312.4 L-89.77 -311.4 L-89.81 -310.4 L-89.85 -309.4 L-89.89 -308.4 L-89.94 -307.5 L-89.98 -306.5 L-90.02 -305.5 L-90.06 -304.5 L-90.1 -303.5 L-90.14 -302.5 L-90.18 -301.5 L-90.22 -300.5 L-90.26 -299.5 L-90.31 -298.6 L-90.35 -297.6 L-90.39 -296.6 L-90.43 -295.6 L-90.47 -294.6 L-90.51 -293.6 L-90.55 -292.6 L-90.59 -291.6 L-90.64 -290.6 L-90.68 -289.7 Z " />
<path stroke="rgb(0,0,0)" stroke-opacity="1" fill="rgb(255,255,255)" fill-opacity="1" d="M301.1 -12.54 L302.1 -12.44 L303.1 -12.25 L304.1 -11.99 L305.1 -11.65 L306 -11.23 L306.9 -10.75 L307.7 -10.19 L308.5 -9.571 L309.3 -8.888 L309.9 -8.148 L310.6 -7.356 L311.1 -6.516 L311.6 -5.633 L312.1 -4.715 L312.4 -3.765 L312.7 -2.791 L312.9 -1.797 L313 -0.792 L313 0.2194 L313 1.23 L312.9 2.235 L312.7 3.226 L312.4 4.198 L312 5.144 L311.6 6.059 L311.1 6.936 L310.5 7.771 L309.9 8.557 L309.2 9.29 L308.4 9.966 L307.6 10.58 L306.8 11.13 L305.9 11.61 L304.9 12.01 L304 12.34 L303 12.6 L302 12.77 L301 12.87 L300 12.88 L299 12.82 L298 12.67 L297 12.45 L296 12.15 L295.1 11.77 L294.2 11.32 L293.3 10.8 L292.5 10.21 L291.7 9.554 L291 8.842 L290.3 8.076 L289.7 7.259 L289.2 6.397 L288.7 5.496 L288.4 4.561 L288 3.598 L287.8 2.613 L287.7 1.613 L287.6 0.6042 L287.6 -0.4079 L287.7 -1.416 L287.8 -2.415 L288.1 -3.397 L288.4 -4.357 L288.8 -5.288 L289.3 -6.185 L289.8 -7.042 L290.4 -7.853 L291.1 -8.613 L291.8 -9.318 L292.6 -9.963 L293.4 -10.54 L294.3 -11.06 L295.2 -11.5 L296.1 -11.87 L297.1 -12.16 L298.1 -12.38 L299.1 -12.51 L300.1 -12.57 L301.1 -12.54 Z " />
<path stroke="rgb(0,0,0)" stroke-opacity="1" fill="rgb(255,255,255)" fill-opacity="1" d="M-616.2 -207.4 L-617.2 -207.8 L-618.1 -208.1 L-619 -208.5 L-619.9 -208.8 L-620.8 -209.2 L-621.8 -209.5 L-622.7 -209.9 L-623.6 -210.3 L-624.5 -210.6 L-625.5 -211 L-626.4 -211.3 L-627.3 -211.7 L-628.2 -212 L-629.2 -212.4 L-630.1 -212.8 L-631 -213.1 L-631.9 -213.5 L-632.8 -213.8 L-633.8 -214.2 L-634.7 -214.5 L-635.6 -214.9 L-636.5 -215.3 L-637.5 -215.6 L-638.4 -216 L-639.3 -216.3 L-638.9 -217.2 L-638.6 -218.2 L-638.2 -219.1 L-637.9 -220 L-637.5 -220.9 L-637.2 -221.9 L-636.8 -222.8 L-636.4 -223.7 L-636.1 -224.6 L-635.7 -225.6 L-635.4 -226.5 L-635 -227.4 L-634.7 -228.3 L-634.3 -229.2 L-633.9 -230.2 L-633.6 -231.1 L-633.2 -232 L-632.9 -232.9 L-632.5 -233.9 L-632.2 -234.8 L-631.8 -235.7 L-631.5 -236.6 L-631.1 -237.5 L-630.7 -238.5 L-630.4 -239.4 L-629.5 -239 L-628.5 -238.7 L-627.6 -238.3 L-626.7 -238 L-625.8 -237.6 L-624.8 -237.2 L-623.9 -236.9 L-623 -236.5 L-622.1 -236.2 L-621.2 -235.8 L-620.2 -235.5 L-619.3 -235.1 L-618.4 -234.8 L-617.5 -234.4 L-616.5 -234 L-615.6 -233.7 L-614.7 -233.3 L-613.8 -233 L-612.9 -232.6 L-611.9 -232.3 L-611 -231.9 L-610.1 -231.5 L-609.2 -231.2 L-608.2 -230.8 L-607.3 -230.5 L-607.7 -229.5 L-608 -228.6 L-608.4 -227.7 L-608.7 -226.8 L-609.1 -225.9 L-609.5 -224.9 L-609.8 -224 L-610.2 -223.1 L-610.5 -222.2 L-610.9 -221.2 L-611.2 -220.3 L-611.6 -219.4 L-612 -218.5 L-612.3 -217.6 L-612.7 -216.6 L-613 -215.7 L-613.4 -214.8 L-613.7 -213.9 L-614.1 -212.9 L-614.5 -212 L-614.8 -211.1 L-615.2 -210.2 L-615.5 -209.3 L-615.9 -208.3 L-616.2 -207.4 Z " />
<path stroke="rgb(0,0,0)" stroke-opacity="1" fill="rgb(255,255,255)" fill-opacity="1" d="M-199.6 87.74 L-198.6 87.79 L-197.6 87.91 L-196.7 88.12 L-195.7 88.39 L-194.8 88.75 L-193.9 89.17 L-193 89.67 L-192.2 90.23 L-191.5 90.85 L-190.8 91.54 L-190.1 92.27 L-189.5 93.06 L-189 93.89 L-188.5 94.76 L-188.1 95.67 L-187.8 96.6 L-187.5 97.56 L-187.4 98.53 L-187.3 99.52 L-187.3 100.5 L-187.3 101.5 L-187.5 102.5 L-187.7 103.4 L-188 104.4 L-188.4 105.3 L-188.8 106.2 L-189.3 107 L-189.9 107.8 L-190.6 108.6 L-191.2 109.3 L-192 109.9 L-192.8 110.5 L-193.6 111 L-194.5 111.4 L-195.4 111.8 L-196.4 112.1 L-197.3 112.3 L-198.3 112.5 L-199.3 112.6 L-200.3 112.6 L-201.3 112.5 L-202.2 112.3 L-203.2 112.1 L-204.1 111.7 L-205 111.4 L-205.9 110.9 L-206.7 110.4 L-207.5 109.8 L-208.3 109.1 L-209 108.4 L-209.6 107.6 L-210.2 106.8 L-210.6 106 L-211.1 105.1 L-211.4 104.2 L-211.7 103.2 L-211.9 102.3 L-212.1 101.3 L-212.1 100.3 L-212.1 99.31 L-212 98.33 L-211.8 97.36 L-211.5 96.41 L-211.2 95.48 L-210.8 94.58 L-210.3 93.72 L-209.8 92.9 L-209.2 92.12 L-208.5 91.39 L-207.8 90.72 L-207 90.11 L-206.2 89.56 L-205.3 89.08 L-204.4 88.67 L-203.5 88.33 L-202.5 88.07 L-201.6 87.88 L-200.6 87.77 L-199.6 87.74 Z " />
<path stroke="rgb(0,0,0)" stroke-opacity="1" fill="rgb(255,255,255)" fill-opacity="1" d="M-398.8 -195.2 L-399.7 -195.3 L-400.7 -195.5 L-401.7 -195.6 L-402.7 -195.8 L-403.7 -195.9 L-404.6 -196.1 L-405.6 -196.2 L-406.6 -196.3 L-407.6 -196.5 L-408.6 -196.6 L-409.5 -196.8 L-410.5 -196.9 L-411.5 -197.1 L-412.5 -197.2 L-413.4 -197.4 L-414.4 -197.5 L-415.4 -197.6 L-416.4 -197.8 L-417.4 -197.9 L-418.3 -198.1 L-419.3 -198.2 L-420.3 -198.4 L-421.3 -198.5 L-422.3 -198.7 L-423.2 -198.8 L-423.1 -199.8 L-422.9 -200.8 L-422.8 -201.7 L-422.7 -202.7 L-422.5 -203.7 L-422.4 -204.7 L-422.2 -205.7 L-422.1 -206.6 L-421.9 -207.6 L-421.8 -208.6 L-421.6 -209.6 L-421.5 -210.5 L-421.4 -211.5 L-421.2 -212.5 L-421.1 -213.5 L-420.9 -214.5 L-420.8 -215.4 L-420.6 -216.4 L-420.5 -217.4 L-420.3 -218.4 L-420.2 -219.4 L-420.1 -220.3 L-419.9 -221.3 L-419.8 -222.3 L-419.6 -223.3 L-418.6 -223.1 L-417.7 -223 L-416.7 -222.8 L-415.7 -222.7 L-414.7 -222.5 L-413.7 -222.4 L-412.8 -222.3 L-411.8 -222.1 L-410.8 -222 L-409.8 -221.8 L-408.9 -221.7 L-407.9 -221.5 L-406.9 -221.4 L-405.9 -221.2 L-404.9 -221.1 L-404 -221 L-403 -220.8 L-402 -220.7 L-401 -220.5 L-400 -220.4 L-399.1 -220.2 L-398.1 -220.1 L-397.1 -219.9 L-396.1 -219.8 L-395.2 -219.7 L-395.3 -218.7 L-395.4 -217.7 L-395.6 -216.7 L-395.7 -215.7 L-395.9 -214.8 L-396 -213.8 L-396.2 -212.8 L-396.3 -211.8 L-396.5 -210.8 L-396.6 -209.9 L-396.7 -208.9 L-396.9 -207.9 L-397 -206.9 L-397.2 -206 L-397.3 -205 L-397.5 -204 L-397.6 -203 L-397.8 -202 L-397.9 -201.1 L-398 -200.1 L-398.2 -199.1 L-398.3 -198.1 L-398.5 -197.1 L-398.6 -196.2 L-398.8 -195.2 Z " />
<path stroke="rgb(0,0,0)" stroke-opacity="1" fill="rgb(255,255,255)" fill-opacity="1" d="M0.4118 87.74 L1.398 87.79 L2.377 87.91 L3.343 88.12 L4.29 88.39 L5.212 88.75 L6.103 89.17 L6.957 89.67 L7.769 90.23 L8.534 90.85 L9.247 91.54 L9.904 92.27 L10.5 93.06 L11.03 93.89 L11.49 94.76 L11.89 95.67 L12.21 96.6 L12.45 97.56 L12.62 98.53 L12.71 99.52 L12.72 100.5 L12.65 101.5 L12.51 102.5 L12.29 103.4 L11.99 104.4 L11.62 105.3 L11.18 106.2 L10.66 107 L10.09 107.8 L9.448 108.6 L8.751 109.3 L8.001 109.9 L7.202 110.5 L6.36 111 L5.479 111.4 L4.566 111.8 L3.626 112.1 L2.665 112.3 L1.689 112.5 L0.7044 112.6 L-0.2828 112.6 L-1.266 112.5 L-2.24 112.3 L-3.197 112.1 L-4.132 111.7 L-5.039 111.4 L-5.912 110.9 L-6.746 110.4 L-7.535 109.8 L-8.275 109.1 L-8.96 108.4 L-9.587 107.6 L-10.15 106.8 L-10.65 106 L-11.08 105.1 L-11.43 104.2 L-11.72 103.2 L-11.92 102.3 L-12.05 101.3 L-12.1 100.3 L-12.08 99.31 L-11.97 98.33 L-11.79 97.36 L-11.53 96.41 L-11.19 95.48 L-10.78 94.58 L-10.31 93.72 L-9.761 92.9 L-9.152 92.12 L-8.484 91.39 L-7.76 90.72 L-6.985 90.11 L-6.164 89.56 L-5.302 89.08 L-4.404 88.67 L-3.477 88.33 L-2.525 88.07 L-1.556 87.88 L-0.5749 87.77 L0.4118 87.74 Z " />
<path stroke="rgb(0,0,0)" stroke-opacity="1" fill="rgb(255,255,255)" fill-opacity="1" d="M-190.7 -189.7 L-191.7 -189.7 L-192.7 -189.7 L-193.6 -189.8 L-194.6 -189.8 L-195.6 -189.9 L-196.6 -189.9 L-197.6 -189.9 L-198.6 -190 L-199.6 -190 L-200.6 -190.1 L-201.6 -190.1 L-202.5 -190.2 L-203.5 -190.2 L-204.5 -190.2 L-205.5 -190.3 L-206.5 -190.3 L-207.5 -190.4 L-208.5 -190.4 L-209.5 -190.4 L-210.4 -190.5 L-211.4 -190.5 L-212.4 -190.6 L-213.4 -190.6 L-214.4 -190.6 L-215.4 -190.7 L-215.3 -191.7 L-215.3 -192.7 L-215.3 -193.7 L-215.2 -194.6 L-215.2 -195.6 L-215.1 -196.6 L-215.1 -197.6 L-215.1 -198.6 L-215 -199.6 L-215 -200.6 L-214.9 -201.6 L-214.9 -202.5 L-214.9 -203.5 L-214.8 -204.5 L-214.8 -205.5 L-214.7 -206.5 L-214.7 -207.5 L-214.6 -208.5 L-214.6 -209.5 L-214.6 -210.5 L-214.5 -211.4 L-214.5 -212.4 L-214.4 -213.4 L-214.4 -214.4 L-214.4 -215.4 L-213.4 -215.4 L-212.4 -215.3 L-211.4 -215.3 L-210.4 -215.2 L-209.4 -215.2 L-208.4 -215.2 L-207.4 -215.1 L-206.5 -215.1 L-205.5 -215 L-204.5 -215 L-203.5 -214.9 L-202.5 -214.9 L-201.5 -214.9 L-200.5 -214.8 L-199.5 -214.8 L-198.5 -214.7 L-197.6 -214.7 L-196.6 -214.7 L-195.6 -214.6 L-194.6 -214.6 L-193.6 -214.5 L-192.6 -214.5 L-191.6 -214.5 L-190.6 -214.4 L-189.6 -214.4 L-189.7 -213.4 L-189.7 -212.4 L-189.8 -211.4 L-189.8 -210.4 L-189.9 -209.4 L-189.9 -208.4 L-189.9 -207.5 L-190 -206.5 L-190 -205.5 L-190.1 -204.5 L-190.1 -203.5 L-190.1 -202.5 L-190.2 -201.5 L-190.2 -200.5 L-190.3 -199.5 L-190.3 -198.6 L-190.3 -197.6 L-190.4 -196.6 L-190.4 -195.6 L-190.5 -194.6 L-190.5 -193.6 L-190.6 -192.6 L-190.6 -191.6 L-190.6 -190.6 L-190.7 -189.7 Z " />
<path stroke="rgb(0,0,0)" stroke-opacity="1" fill="rgb(255,255,255)" fill-opacity="1" d="M201.1 87.46 L202.1 87.56 L203.1 87.75 L204.1 88.01 L205.1 88.35 L206 88.77 L206.9 89.25 L207.7 89.81 L208.5 90.43 L209.3 91.11 L209.9 91.85 L210.6 92.64 L211.1 93.48 L211.6 94.37 L212.1 95.29 L212.4 96.24 L212.7 97.21 L212.9 98.2 L213 99.21 L213 100.2 L213 101.2 L212.9 102.2 L212.7 103.2 L212.4 104.2 L212 105.1 L211.6 106.1 L211.1 106.9 L210.5 107.8 L209.9 108.6 L209.2 109.3 L208.4 110 L207.6 110.6 L206.8 111.1 L205.9 111.6 L204.9 112 L204 112.3 L203 112.6 L202 112.8 L201 112.9 L200 112.9 L199 112.8 L198 112.7 L197 112.4 L196 112.1 L195.1 111.8 L194.2 111.3 L193.3 110.8 L192.5 110.2 L191.7 109.6 L191 108.8 L190.3 108.1 L189.7 107.3 L189.2 106.4 L188.7 105.5 L188.4 104.6 L188 103.6 L187.8 102.6 L187.7 101.6 L187.6 100.6 L187.6 99.59 L187.7 98.58 L187.8 97.59 L188.1 96.6 L188.4 95.64 L188.8 94.71 L189.3 93.82 L189.8 92.96 L190.4 92.15 L191.1 91.39 L191.8 90.68 L192.6 90.04 L193.4 89.46 L194.3 88.94 L195.2 88.5 L196.1 88.13 L197.1 87.84 L198.1 87.62 L199.1 87.49 L200.1 87.43 L201.1 87.46 Z " />
<path stroke="rgb(0,0,0)" stroke-opacity="1" fill="rgb(255,255,255)" fill-opacity="1" d="M11.74 -188 L10.75 -188 L9.766 -188 L8.776 -188 L7.787 -188.1 L6.797 -188.1 L5.808 -188.1 L4.819 -188.1 L3.829 -188.1 L2.84 -188.1 L1.851 -188.1 L0.8613 -188.1 L-0.1281 -188.1 L-1.117 -188.1 L-2.107 -188.2 L-3.096 -188.2 L-4.086 -188.2 L-5.075 -188.2 L-6.064 -188.2 L-7.054 -188.2 L-8.043 -188.2 L-9.032 -188.2 L-10.02 -188.2 L-11.01 -188.2 L-12 -188.2 L-12.99 -188.3 L-12.98 -189.2 L-12.97 -190.2 L-12.96 -191.2 L-12.95 -192.2 L-12.94 -193.2 L-12.93 -194.2 L-12.92 -195.2 L-12.91 -196.2 L-12.9 -197.2 L-12.89 -198.2 L-12.88 -199.1 L-12.87 -200.1 L-12.86 -201.1 L-12.85 -202.1 L-12.84 -203.1 L-12.83 -204.1 L-12.82 -205.1 L-12.81 -206.1 L-12.8 -207.1 L-12.79 -208 L-12.78 -209 L-12.77 -210 L-12.76 -211 L-12.76 -212 L-12.75 -213 L-11.76 -213 L-10.77 -213 L-9.777 -213 L-8.788 -213 L-7.798 -212.9 L-6.809 -212.9 L-5.82 -212.9 L-4.83 -212.9 L-3.841 -212.9 L-2.852 -212.9 L-1.862 -212.9 L-0.8729 -212.9 L0.1164 -212.9 L1.106 -212.9 L2.095 -212.8 L3.084 -212.8 L4.074 -212.8 L5.063 -212.8 L6.053 -212.8 L7.042 -212.8 L8.031 -212.8 L9.021 -212.8 L10.01 -212.8 L11 -212.8 L11.99 -212.7 L11.98 -211.8 L11.97 -210.8 L11.96 -209.8 L11.95 -208.8 L11.94 -207.8 L11.93 -206.8 L11.92 -205.8 L11.91 -204.8 L11.9 -203.8 L11.89 -202.9 L11.88 -201.9 L11.87 -200.9 L11.86 -199.9 L11.85 -198.9 L11.84 -197.9 L11.83 -196.9 L11.82 -195.9 L11.81 -194.9 L11.8 -193.9 L11.79 -193 L11.78 -192 L11.77 -191 L11.76 -190 L11.75 -189 L11.74 -188 Z " />
<path stroke="rgb(0,0,0)" stroke-opacity="1" fill="rgb(255,255,255)" fill-opacity="1" d="M-299.6 187.7 L-298.6 187.8 L-297.6 187.9 L-296.7 188.1 L-295.7 188.4 L-294.8 188.7 L-293.9 189.2 L-293 189.7 L-292.2 190.2 L-291.5 190.9 L-290.8 191.5 L-290.1 192.3 L-289.5 193.1 L-289 193.9 L-288.5 194.8 L-288.1 195.7 L-287.8 196.6 L-287.5 197.6 L-287.4 198.5 L-287.3 199.5 L-287.3 200.5 L-287.3 201.5 L-287.5 202.5 L-287.7 203.4 L-288 204.4 L-288.4 205.3 L-288.8 206.2 L-289.3 207 L-289.9 207.8 L-290.6 208.6 L-291.2 209.3 L-292 209.9 L-292.8 210.5 L-293.6 211 L-294.5 211.4 L-295.4 211.8 L-296.4 212.1 L-297.3 212.3 L-298.3 212.5 L-299.3 212.6 L-300.3 212.6 L-301.3 212.5 L-302.2 212.3 L-303.2 212.1 L-304.1 211.7 L-305 211.4 L-305.9 210.9 L-306.7 210.4 L-307.5 209.8 L-308.3 209.1 L-309 208.4 L-309.6 207.6 L-310.2 206.8 L-310.6 206 L-311.1 205.1 L-311.4 204.2 L-311.7 203.2 L-311.9 202.3 L-312.1 201.3 L-312.1 200.3 L-312.1 199.3 L-312 198.3 L-311.8 197.4 L-311.5 196.4 L-311.2 195.5 L-310.8 194.6 L-310.3 193.7 L-309.8 192.9 L-309.2 192.1 L-308.5 191.4 L-307.8 190.7 L-307 190.1 L-306.2 189.6 L-305.3 189.1 L-304.4 188.7 L-303.5 188.3 L-302.5 188.1 L-301.6 187.9 L-300.6 187.8 L-299.6 187.7 Z " />
<path stroke="rgb(0,0,0)" stroke-opacity="1" fill="rgb(255,255,255)" fill-opacity="1" d="M-498.8 -95.19 L-499.7 -95.33 L-500.7 -95.48 L-501.7 -95.62 L-502.7 -95.76 L-503.7 -95.91 L-504.6 -96.05 L-505.6 -96.2 L-506.6 -96.34 L-507.6 -96.49 L-508.6 -96.63 L-509.5 -96.78 L-510.5 -96.92 L-511.5 -97.07 L-512.5 -97.21 L-513.4 -97.36 L-514.4 -97.5 L-515.4 -97.64 L-516.4 -97.79 L-517.4 -97.93 L-518.3 -98.08 L-519.3 -98.22 L-520.3 -98.37 L-521.3 -98.51 L-522.3 -98.66 L-523.2 -98.8 L-523.1 -99.78 L-522.9 -100.8 L-522.8 -101.7 L-522.7 -102.7 L-522.5 -103.7 L-522.4 -104.7 L-522.2 -105.7 L-522.1 -106.6 L-521.9 -107.6 L-521.8 -108.6 L-521.6 -109.6 L-521.5 -110.5 L-521.4 -111.5 L-521.2 -112.5 L-521.1 -113.5 L-520.9 -114.5 L-520.8 -115.4 L-520.6 -116.4 L-520.5 -117.4 L-520.3 -118.4 L-520.2 -119.4 L-520.1 -120.3 L-519.9 -121.3 L-519.8 -122.3 L-519.6 -123.3 L-518.6 -123.1 L-517.7 -123 L-516.7 -122.8 L-515.7 -122.7 L-514.7 -122.5 L-513.7 -122.4 L-512.8 -122.3 L-511.8 -122.1 L-510.8 -122 L-509.8 -121.8 L-508.9 -121.7 L-507.9 -121.5 L-506.9 -121.4 L-505.9 -121.2 L-504.9 -121.1 L-504 -121 L-503 -120.8 L-502 -120.7 L-501 -120.5 L-500 -120.4 L-499.1 -120.2 L-498.1 -120.1 L-497.1 -119.9 L-496.1 -119.8 L-495.2 -119.7 L-495.3 -118.7 L-495.4 -117.7 L-495.6 -116.7 L-495.7 -115.7 L-495.9 -114.8 L-496 -113.8 L-496.2 -112.8 L-496.3 -111.8 L-496.5 -110.8 L-496.6 -109.9 L-496.7 -108.9 L-496.9 -107.9 L-497 -106.9 L-497.2 -106 L-497.3 -105 L-497.5 -104 L-497.6 -103 L-497.8 -102 L-497.9 -101.1 L-498 -100.1 L-498.2 -99.1 L-498.3 -98.12 L-498.5 -97.14 L-498.6 -96.16 L-498.8 -95.19 Z " />
<path stroke="rgb(0,0,0)" stroke-opacity="1" fill="rgb(255,255,255)" fill-opacity="1" d="M-99.59 187.7 L-98.6 187.8 L-97.62 187.9 L-96.66 188.1 L-95.71 188.4 L-94.79 188.7 L-93.9 189.2 L-93.04 189.7 L-92.23 190.2 L-91.47 190.9 L-90.75 191.5 L-90.1 192.3 L-89.5 193.1 L-88.97 193.9 L-88.51 194.8 L-88.11 195.7 L-87.79 196.6 L-87.55 197.6 L-87.38 198.5 L-87.29 199.5 L-87.28 200.5 L-87.35 201.5 L-87.49 202.5 L-87.71 203.4 L-88.01 204.4 L-88.38 205.3 L-88.82 206.2 L-89.34 207 L-89.91 207.8 L-90.55 208.6 L-91.25 209.3 L-92 209.9 L-92.8 210.5 L-93.64 211 L-94.52 211.4 L-95.43 211.8 L-96.37 212.1 L-97.34 212.3 L-98.31 212.5 L-99.3 212.6 L-100.3 212.6 L-101.3 212.5 L-102.2 212.3 L-103.2 212.1 L-104.1 211.7 L-105 211.4 L-105.9 210.9 L-106.7 210.4 L-107.5 209.8 L-108.3 209.1 L-109 208.4 L-109.6 207.6 L-110.2 206.8 L-110.6 206 L-111.1 205.1 L-111.4 204.2 L-111.7 203.2 L-111.9 202.3 L-112.1 201.3 L-112.1 200.3 L-112.1 199.3 L-112 198.3 L-111.8 197.4 L-111.5 196.4 L-111.2 195.5 L-110.8 194.6 L-110.3 193.7 L-109.8 192.9 L-109.2 192.1 L-108.5 191.4 L-107.8 190.7 L-107 190.1 L-106.2 189.6 L-105.3 189.1 L-104.4 188.7 L-103.5 188.3 L-102.5 188.1 L-101.6 187.9 L-100.6 187.8 L-99.59 187.7 Z " />
<path stroke="rgb(0,0,0)" stroke-opacity="1" fill="rgb(255,255,255)" fill-opacity="1" d="M-290.7 -89.66 L-291.7 -89.7 L-292.7 -89.74 L-293.6 -89.78 L-294.6 -89.82 L-295.6 -89.86 L-296.6 -89.9 L-297.6 -89.95 L-298.6 -89.99 L-299.6 -90.03 L-300.6 -90.07 L-301.6 -90.11 L-302.5 -90.15 L-303.5 -90.19 L-304.5 -90.23 L-305.5 -90.27 L-306.5 -90.32 L-307.5 -90.36 L-308.5 -90.4 L-309.5 -90.44 L-310.4 -90.48 L-311.4 -90.52 L-312.4 -90.56 L-313.4 -90.6 L-314.4 -90.65 L-315.4 -90.69 L-315.3 -91.68 L-315.3 -92.66 L-315.3 -93.65 L-315.2 -94.64 L-315.2 -95.63 L-315.1 -96.62 L-315.1 -97.61 L-315.1 -98.59 L-315 -99.58 L-315 -100.6 L-314.9 -101.6 L-314.9 -102.5 L-314.9 -103.5 L-314.8 -104.5 L-314.8 -105.5 L-314.7 -106.5 L-314.7 -107.5 L-314.6 -108.5 L-314.6 -109.5 L-314.6 -110.5 L-314.5 -111.4 L-314.5 -112.4 L-314.4 -113.4 L-314.4 -114.4 L-314.4 -115.4 L-313.4 -115.4 L-312.4 -115.3 L-311.4 -115.3 L-310.4 -115.2 L-309.4 -115.2 L-308.4 -115.2 L-307.4 -115.1 L-306.5 -115.1 L-305.5 -115 L-304.5 -115 L-303.5 -114.9 L-302.5 -114.9 L-301.5 -114.9 L-300.5 -114.8 L-299.5 -114.8 L-298.5 -114.7 L-297.6 -114.7 L-296.6 -114.7 L-295.6 -114.6 L-294.6 -114.6 L-293.6 -114.5 L-292.6 -114.5 L-291.6 -114.5 L-290.6 -114.4 L-289.6 -114.4 L-289.7 -113.4 L-289.7 -112.4 L-289.8 -111.4 L-289.8 -110.4 L-289.9 -109.4 L-289.9 -108.4 L-289.9 -107.5 L-290 -106.5 L-290 -105.5 L-290.1 -104.5 L-290.1 -103.5 L-290.1 -102.5 L-290.2 -101.5 L-290.2 -100.5 L-290.3 -99.54 L-290.3 -98.55 L-290.3 -97.57 L-290.4 -96.58 L-290.4 -95.59 L-290.5 -94.6 L-290.5 -93.61 L-290.6 -92.62 L-290.6 -91.63 L-290.6 -90.65 L-290.7 -89.66 Z " />
<path stroke="rgb(0,0,0)" stroke-opacity="1" fill="rgb(255,255,255)" fill-opacity="1" d="M101.1 187.5 L102.1 187.6 L103.1 187.7 L104.1 188 L105.1 188.4 L106 188.8 L106.9 189.3 L107.7 189.8 L108.5 190.4 L109.3 191.1 L109.9 191.9 L110.6 192.6 L111.1 193.5 L111.6 194.4 L112.1 195.3 L112.4 196.2 L112.7 197.2 L112.9 198.2 L113 199.2 L113 200.2 L113 201.2 L112.9 202.2 L112.7 203.2 L112.4 204.2 L112 205.1 L111.6 206.1 L111.1 206.9 L110.5 207.8 L109.9 208.6 L109.2 209.3 L108.4 210 L107.6 210.6 L106.8 211.1 L105.9 211.6 L104.9 212 L104 212.3 L103 212.6 L102 212.8 L101 212.9 L99.99 212.9 L98.98 212.8 L97.98 212.7 L96.99 212.4 L96.02 212.1 L95.09 211.8 L94.18 211.3 L93.31 210.8 L92.49 210.2 L91.72 209.6 L91 208.8 L90.34 208.1 L89.74 207.3 L89.21 206.4 L88.75 205.5 L88.36 204.6 L88.05 203.6 L87.81 202.6 L87.66 201.6 L87.58 200.6 L87.59 199.6 L87.67 198.6 L87.84 197.6 L88.08 196.6 L88.4 195.6 L88.8 194.7 L89.27 193.8 L89.81 193 L90.41 192.1 L91.08 191.4 L91.81 190.7 L92.59 190 L93.41 189.5 L94.29 188.9 L95.2 188.5 L96.14 188.1 L97.11 187.8 L98.1 187.6 L99.1 187.5 L100.1 187.4 L101.1 187.5 Z " />
<path stroke="rgb(0,0,0)" stroke-opacity="1" fill="rgb(255,255,255)" fill-opacity="1" d="M-88.26 -88.01 L-89.25 -88.02 L-90.23 -88.03 L-91.22 -88.04 L-92.21 -88.05 L-93.2 -88.06 L-94.19 -88.07 L-95.18 -88.08 L-96.17 -88.09 L-97.16 -88.1 L-98.15 -88.11 L-99.14 -88.12 L-100.1 -88.13 L-101.1 -88.14 L-102.1 -88.15 L-103.1 -88.16 L-104.1 -88.17 L-105.1 -88.18 L-106.1 -88.19 L-107.1 -88.2 L-108 -88.21 L-109 -88.22 L-110 -88.23 L-111 -88.24 L-112 -88.25 L-113 -88.26 L-113 -89.25 L-113 -90.24 L-113 -91.23 L-113 -92.22 L-112.9 -93.2 L-112.9 -94.19 L-112.9 -95.18 L-112.9 -96.17 L-112.9 -97.16 L-112.9 -98.15 L-112.9 -99.14 L-112.9 -100.1 L-112.9 -101.1 L-112.9 -102.1 L-112.8 -103.1 L-112.8 -104.1 L-112.8 -105.1 L-112.8 -106.1 L-112.8 -107.1 L-112.8 -108 L-112.8 -109 L-112.8 -110 L-112.8 -111 L-112.8 -112 L-112.7 -113 L-111.8 -113 L-110.8 -113 L-109.8 -113 L-108.8 -113 L-107.8 -112.9 L-106.8 -112.9 L-105.8 -112.9 L-104.8 -112.9 L-103.8 -112.9 L-102.9 -112.9 L-101.9 -112.9 L-100.9 -112.9 L-99.88 -112.9 L-98.89 -112.9 L-97.9 -112.8 L-96.92 -112.8 L-95.93 -112.8 L-94.94 -112.8 L-93.95 -112.8 L-92.96 -112.8 L-91.97 -112.8 L-90.98 -112.8 L-89.99 -112.8 L-89 -112.8 L-88.01 -112.7 L-88.02 -111.8 L-88.03 -110.8 L-88.04 -109.8 L-88.05 -108.8 L-88.06 -107.8 L-88.07 -106.8 L-88.08 -105.8 L-88.09 -104.8 L-88.1 -103.8 L-88.11 -102.9 L-88.12 -101.9 L-88.13 -100.9 L-88.14 -99.89 L-88.15 -98.9 L-88.16 -97.91 L-88.17 -96.92 L-88.18 -95.93 L-88.19 -94.94 L-88.2 -93.95 L-88.21 -92.96 L-88.22 -91.97 L-88.23 -90.98 L-88.24 -89.99 L-88.25 -89 L-88.26 -88.01 Z " />
<path stroke="rgb(0,0,0)" stroke-opacity="1" fill="rgb(255,255,255)" fill-opacity="1" d="M309.5 186.9 L310.5 187.7 L311.5 188.5 L312.4 189.5 L313.2 190.5 L313.9 191.5 L314.6 192.7 L315.1 193.8 L315.6 195 L315.9 196.3 L316.2 197.5 L316.4 198.8 L316.4 200.1 L316.4 201.4 L316.2 202.7 L316 203.9 L315.6 205.2 L315.2 206.4 L314.6 207.6 L314 208.7 L313.3 209.7 L312.5 210.8 L311.6 211.7 L310.6 212.6 L309.6 213.4 L308.5 214.1 L307.4 214.7 L306.2 215.2 L305 215.6 L303.8 216 L302.5 216.2 L301.2 216.3 L299.9 216.4 L298.7 216.3 L297.4 216.1 L296.1 215.9 L294.9 215.5 L293.7 215 L292.5 214.5 L291.4 213.8 L290.4 213.1 L289.4 212.2 L288.4 211.3 L287.6 210.4 L286.8 209.3 L286.1 208.2 L285.5 207.1 L285 205.9 L284.6 204.7 L284.3 203.4 L284.1 202.2 L284 200.9 L284 199.6 L284.1 198.3 L284.3 197 L284.6 195.8 L285 194.5 L285.5 193.4 L286.1 192.2 L286.7 191.1 L287.5 190.1 L288.3 189.1 L289.3 188.2 L290.2 187.4 L291.3 186.6 L292.4 185.9 L293.6 185.4 L294.8 184.9 L296 184.5 L297.2 184.2 L298.5 184 L299.8 184 L301.1 184 L302.4 184.1 L303.6 184.3 L304.9 184.6 L306.1 185.1 L307.3 185.6 L308.4 186.2 L309.5 186.9 Z " />
<path stroke="rgb(0,0,0)" stroke-opacity="1" fill="rgb(255,255,255)" fill-opacity="1" d="M-598.8 4.814 L-599.7 4.669 L-600.7 4.525 L-601.7 4.38 L-602.7 4.235 L-603.7 4.091 L-604.6 3.946 L-605.6 3.802 L-606.6 3.657 L-607.6 3.512 L-608.6 3.368 L-609.5 3.223 L-610.5 3.079 L-611.5 2.934 L-612.5 2.79 L-613.4 2.645 L-614.4 2.5 L-615.4 2.356 L-616.4 2.211 L-617.4 2.067 L-618.3 1.922 L-619.3 1.777 L-620.3 1.633 L-621.3 1.488 L-622.3 1.344 L-623.2 1.199 L-623.1 0.2203 L-622.9 -0.7583 L-622.8 -1.737 L-622.7 -2.716 L-622.5 -3.694 L-622.4 -4.673 L-622.2 -5.652 L-622.1 -6.63 L-621.9 -7.609 L-621.8 -8.588 L-621.6 -9.566 L-621.5 -10.55 L-621.4 -11.52 L-621.2 -12.5 L-621.1 -13.48 L-620.9 -14.46 L-620.8 -15.44 L-620.6 -16.42 L-620.5 -17.4 L-620.3 -18.37 L-620.2 -19.35 L-620.1 -20.33 L-619.9 -21.31 L-619.8 -22.29 L-619.6 -23.27 L-618.6 -23.12 L-617.7 -22.98 L-616.7 -22.83 L-615.7 -22.69 L-614.7 -22.54 L-613.7 -22.4 L-612.8 -22.26 L-611.8 -22.11 L-610.8 -21.97 L-609.8 -21.82 L-608.9 -21.68 L-607.9 -21.53 L-606.9 -21.39 L-605.9 -21.24 L-604.9 -21.1 L-604 -20.95 L-603 -20.81 L-602 -20.67 L-601 -20.52 L-600 -20.38 L-599.1 -20.23 L-598.1 -20.09 L-597.1 -19.94 L-596.1 -19.8 L-595.2 -19.65 L-595.3 -18.67 L-595.4 -17.7 L-595.6 -16.72 L-595.7 -15.74 L-595.9 -14.76 L-596 -13.78 L-596.2 -12.8 L-596.3 -11.82 L-596.5 -10.85 L-596.6 -9.866 L-596.7 -8.888 L-596.9 -7.909 L-597 -6.93 L-597.2 -5.952 L-597.3 -4.973 L-597.5 -3.994 L-597.6 -3.016 L-597.8 -2.037 L-597.9 -1.058 L-598 -0.07956 L-598.2 0.8991 L-598.3 1.878 L-598.5 2.856 L-598.6 3.835 L-598.8 4.814 Z " />
<path stroke="rgb(0,0,0)" stroke-opacity="1" fill="rgb(255,255,255)" fill-opacity="1" d="M-199.6 287.7 L-198.6 287.8 L-197.6 287.9 L-196.7 288.1 L-195.7 288.4 L-194.8 288.7 L-193.9 289.2 L-193 289.7 L-192.2 290.2 L-191.5 290.9 L-190.8 291.5 L-190.1 292.3 L-189.5 293.1 L-189 293.9 L-188.5 294.8 L-188.1 295.7 L-187.8 296.6 L-187.5 297.6 L-187.4 298.5 L-187.3 299.5 L-187.3 300.5 L-187.3 301.5 L-187.5 302.5 L-187.7 303.4 L-188 304.4 L-188.4 305.3 L-188.8 306.2 L-189.3 307 L-189.9 307.8 L-190.6 308.6 L-191.2 309.3 L-192 309.9 L-192.8 310.5 L-193.6 311 L-194.5 311.4 L-195.4 311.8 L-196.4 312.1 L-197.3 312.3 L-198.3 312.5 L-199.3 312.6 L-200.3 312.6 L-201.3 312.5 L-202.2 312.3 L-203.2 312.1 L-204.1 311.7 L-205 311.4 L-205.9 310.9 L-206.7 310.4 L-207.5 309.8 L-208.3 309.1 L-209 308.4 L-209.6 307.6 L-210.2 306.8 L-210.6 306 L-211.1 305.1 L-211.4 304.2 L-211.7 303.2 L-211.9 302.3 L-212.1 301.3 L-212.1 300.3 L-212.1 299.3 L-212 298.3 L-211.8 297.4 L-211.5 296.4 L-211.2 295.5 L-210.8 294.6 L-210.3 293.7 L-209.8 292.9 L-209.2 292.1 L-208.5 291.4 L-207.8 290.7 L-207 290.1 L-206.2 289.6 L-205.3 289.1 L-204.4 288.7 L-203.5 288.3 L-202.5 288.1 L-201.6 287.9 L-200.6 287.8 L-199.6 287.7 Z " />
<path stroke="rgb(0,0,0)" stroke-opacity="1" fill="rgb(255,255,255)" fill-opacity="1" d="M-390.7 10.34 L-391.7 10.3 L-392.7 10.26 L-393.6 10.22 L-394.6 10.18 L-395.6 10.14 L-396.6 10.1 L-397.6 10.05 L-398.6 10.01 L-399.6 9.972 L-400.6 9.931 L-401.6 9.89 L-402.5 9.849 L-403.5 9.808 L-404.5 9.766 L-405.5 9.725 L-406.5 9.684 L-407.5 9.643 L-408.5 9.602 L-409.5 9.56 L-410.4 9.519 L-411.4 9.478 L-412.4 9.437 L-413.4 9.396 L-414.4 9.355 L-415.4 9.313 L-415.3 8.325 L-415.3 7.336 L-415.3 6.348 L-415.2 5.359 L-415.2 4.371 L-415.1 3.382 L-415.1 2.394 L-415.1 1.405 L-415 0.4166 L-415 -0.5719 L-414.9 -1.56 L-414.9 -2.549 L-414.9 -3.537 L-414.8 -4.526 L-414.8 -5.515 L-414.7 -6.503 L-414.7 -7.492 L-414.6 -8.48 L-414.6 -9.469 L-414.6 -10.46 L-414.5 -11.45 L-414.5 -12.43 L-414.4 -13.42 L-414.4 -14.41 L-414.4 -15.4 L-413.4 -15.36 L-412.4 -15.32 L-411.4 -15.28 L-410.4 -15.24 L-409.4 -15.19 L-408.4 -15.15 L-407.4 -15.11 L-406.5 -15.07 L-405.5 -15.03 L-404.5 -14.99 L-403.5 -14.95 L-402.5 -14.91 L-401.5 -14.86 L-400.5 -14.82 L-399.5 -14.78 L-398.5 -14.74 L-397.6 -14.7 L-396.6 -14.66 L-395.6 -14.62 L-394.6 -14.58 L-393.6 -14.53 L-392.6 -14.49 L-391.6 -14.45 L-390.6 -14.41 L-389.6 -14.37 L-389.7 -13.38 L-389.7 -12.39 L-389.8 -11.4 L-389.8 -10.42 L-389.9 -9.427 L-389.9 -8.439 L-389.9 -7.45 L-390 -6.462 L-390 -5.473 L-390.1 -4.485 L-390.1 -3.496 L-390.1 -2.508 L-390.2 -1.519 L-390.2 -0.5308 L-390.3 0.4578 L-390.3 1.446 L-390.3 2.435 L-390.4 3.423 L-390.4 4.412 L-390.5 5.4 L-390.5 6.389 L-390.6 7.377 L-390.6 8.366 L-390.6 9.354 L-390.7 10.34 Z " />
<path stroke="rgb(0,0,0)" stroke-opacity="1" fill="rgb(255,255,255)" fill-opacity="1" d="M1.122 287.5 L2.128 287.6 L3.123 287.7 L4.1 288 L5.054 288.4 L5.977 288.8 L6.864 289.3 L7.71 289.8 L8.509 290.4 L9.256 291.1 L9.946 291.9 L10.58 292.6 L11.14 293.5 L11.64 294.4 L12.06 295.3 L12.41 296.2 L12.68 297.2 L12.88 298.2 L13 299.2 L13.03 300.2 L12.99 301.2 L12.86 302.2 L12.66 303.2 L12.37 304.2 L12.01 305.1 L11.58 306.1 L11.08 306.9 L10.5 307.8 L9.867 308.6 L9.169 309.3 L8.416 310 L7.611 310.6 L6.76 311.1 L5.868 311.6 L4.941 312 L3.984 312.3 L3.005 312.6 L2.008 312.8 L1.001 312.9 L-0.01145 312.9 L-1.021 312.8 L-2.023 312.7 L-3.01 312.4 L-3.976 312.1 L-4.915 311.8 L-5.821 311.3 L-6.688 310.8 L-7.511 310.2 L-8.285 309.6 L-9.004 308.8 L-9.664 308.1 L-10.26 307.3 L-10.79 306.4 L-11.25 305.5 L-11.64 304.6 L-11.95 303.6 L-12.19 302.6 L-12.34 301.6 L-12.42 300.6 L-12.41 299.6 L-12.33 298.6 L-12.16 297.6 L-11.92 296.6 L-11.6 295.6 L-11.2 294.7 L-10.73 293.8 L-10.19 293 L-9.588 292.1 L-8.921 291.4 L-8.195 290.7 L-7.415 290 L-6.586 289.5 L-5.714 288.9 L-4.804 288.5 L-3.861 288.1 L-2.893 287.8 L-1.904 287.6 L-0.9007 287.5 L0.1098 287.4 L1.122 287.5 Z " />
<path stroke="rgb(0,0,0)" stroke-opacity="1" fill="rgb(255,255,255)" fill-opacity="1" d="M-188.3 11.99 L-189.2 11.98 L-190.2 11.97 L-191.2 11.96 L-192.2 11.95 L-193.2 11.94 L-194.2 11.93 L-195.2 11.92 L-196.2 11.91 L-197.2 11.9 L-198.1 11.89 L-199.1 11.88 L-200.1 11.87 L-201.1 11.86 L-202.1 11.85 L-203.1 11.84 L-204.1 11.83 L-205.1 11.82 L-206.1 11.81 L-207.1 11.8 L-208 11.79 L-209 11.78 L-210 11.77 L-211 11.76 L-212 11.75 L-213 11.74 L-213 10.75 L-213 9.763 L-213 8.774 L-213 7.784 L-212.9 6.795 L-212.9 5.806 L-212.9 4.816 L-212.9 3.827 L-212.9 2.838 L-212.9 1.848 L-212.9 0.8589 L-212.9 -0.1305 L-212.9 -1.12 L-212.9 -2.109 L-212.8 -3.099 L-212.8 -4.088 L-212.8 -5.077 L-212.8 -6.067 L-212.8 -7.056 L-212.8 -8.045 L-212.8 -9.035 L-212.8 -10.02 L-212.8 -11.01 L-212.8 -12 L-212.7 -12.99 L-211.8 -12.98 L-210.8 -12.97 L-209.8 -12.96 L-208.8 -12.95 L-207.8 -12.94 L-206.8 -12.93 L-205.8 -12.92 L-204.8 -12.91 L-203.8 -12.9 L-202.9 -12.89 L-201.9 -12.88 L-200.9 -12.87 L-199.9 -12.87 L-198.9 -12.86 L-197.9 -12.85 L-196.9 -12.84 L-195.9 -12.83 L-194.9 -12.82 L-193.9 -12.81 L-193 -12.8 L-192 -12.79 L-191 -12.78 L-190 -12.77 L-189 -12.76 L-188 -12.75 L-188 -11.76 L-188 -10.77 L-188 -9.78 L-188.1 -8.79 L-188.1 -7.801 L-188.1 -6.812 L-188.1 -5.822 L-188.1 -4.833 L-188.1 -3.843 L-188.1 -2.854 L-188.1 -1.865 L-188.1 -0.8754 L-188.1 0.114 L-188.1 1.103 L-188.2 2.093 L-188.2 3.082 L-188.2 4.071 L-188.2 5.061 L-188.2 6.05 L-188.2 7.04 L-188.2 8.029 L-188.2 9.018 L-188.2 10.01 L-188.2 11 L-188.3 11.99 Z " />
<path stroke="rgb(0,0,0)" stroke-opacity="1" fill="rgb(255,255,255)" fill-opacity="1" d="M209.5 286.9 L210.5 287.7 L211.5 288.5 L212.4 289.5 L213.2 290.5 L213.9 291.5 L214.6 292.7 L215.1 293.8 L215.6 295 L215.9 296.3 L216.2 297.5 L216.4 298.8 L216.4 300.1 L216.4 301.4 L216.2 302.7 L216 303.9 L215.6 305.2 L215.2 306.4 L214.6 307.6 L214 308.7 L213.3 309.7 L212.5 310.8 L211.6 311.7 L210.6 312.6 L209.6 313.4 L208.5 314.1 L207.4 314.7 L206.2 315.2 L205 315.6 L203.8 316 L202.5 316.2 L201.2 316.3 L199.9 316.4 L198.7 316.3 L197.4 316.1 L196.1 315.9 L194.9 315.5 L193.7 315 L192.5 314.5 L191.4 313.8 L190.4 313.1 L189.4 312.2 L188.4 311.3 L187.6 310.4 L186.8 309.3 L186.1 308.2 L185.5 307.1 L185 305.9 L184.6 304.7 L184.3 303.4 L184.1 302.2 L184 300.9 L184 299.6 L184.1 298.3 L184.3 297 L184.6 295.8 L185 294.5 L185.5 293.4 L186.1 292.2 L186.7 291.1 L187.5 290.1 L188.3 289.1 L189.3 288.2 L190.2 287.4 L191.3 286.6 L192.4 285.9 L193.6 285.4 L194.8 284.9 L196 284.5 L197.2 284.2 L198.5 284 L199.8 284 L201.1 284 L202.4 284.1 L203.6 284.3 L204.9 284.6 L206.1 285.1 L207.3 285.6 L208.4 286.2 L209.5 286.9 Z " />
<path stroke="rgb(0,0,0)" stroke-opacity="1" fill="rgb(255,255,255)" fill-opacity="1" d="M11.91 12.1 L10.92 12.09 L9.931 12.08 L8.941 12.08 L7.952 12.07 L6.962 12.06 L5.973 12.05 L4.984 12.04 L3.994 12.04 L3.005 12.03 L2.016 12.02 L1.026 12.01 L0.03675 12.01 L-0.9526 12 L-1.942 11.99 L-2.931 11.98 L-3.921 11.98 L-4.91 11.97 L-5.9 11.96 L-6.889 11.95 L-7.878 11.95 L-8.868 11.94 L-9.857 11.93 L-10.85 11.92 L-11.84 11.92 L-12.83 11.91 L-12.82 10.92 L-12.81 9.929 L-12.8 8.939 L-12.79 7.95 L-12.79 6.961 L-12.78 5.971 L-12.77 4.982 L-12.76 3.992 L-12.76 3.003 L-12.75 2.014 L-12.74 1.024 L-12.73 0.03486 L-12.73 -0.9545 L-12.72 -1.944 L-12.71 -2.933 L-12.7 -3.923 L-12.7 -4.912 L-12.69 -5.901 L-12.68 -6.891 L-12.67 -7.88 L-12.66 -8.87 L-12.66 -9.859 L-12.65 -10.85 L-12.64 -11.84 L-12.63 -12.83 L-11.65 -12.82 L-10.66 -12.81 L-9.666 -12.8 L-8.677 -12.8 L-7.688 -12.79 L-6.698 -12.78 L-5.709 -12.77 L-4.719 -12.77 L-3.73 -12.76 L-2.741 -12.75 L-1.751 -12.74 L-0.7618 -12.74 L0.2275 -12.73 L1.217 -12.72 L2.206 -12.71 L3.196 -12.7 L4.185 -12.7 L5.174 -12.69 L6.164 -12.68 L7.153 -12.67 L8.143 -12.67 L9.132 -12.66 L10.12 -12.65 L11.11 -12.64 L12.1 -12.64 L12.09 -11.65 L12.08 -10.66 L12.08 -9.668 L12.07 -8.679 L12.06 -7.689 L12.05 -6.7 L12.05 -5.711 L12.04 -4.721 L12.03 -3.732 L12.02 -2.742 L12.02 -1.753 L12.01 -0.7637 L12 0.2256 L11.99 1.215 L11.99 2.204 L11.98 3.194 L11.97 4.183 L11.96 5.173 L11.96 6.162 L11.95 7.151 L11.94 8.141 L11.93 9.13 L11.92 10.12 L11.92 11.11 L11.91 12.1 Z " />
</g>
</g>
</svg>
