<!DOCTYPE svg>
<svg xmlns="http://www.w3.org/2000/svg" xmlns:xlink="http://www.w3.org/1999/xlink" width="1000" height="1000">
<g transform="translate(500.000000,500.000000)">
<g transform="scale(3.000000,3.000000)">
<path stroke="rgb(0,0,0)" stroke-opacity="1" fill="rgb(255,255,255)" fill-opacity="1" d="M-588.1 -587.8 L-589.1 -587.8 L-590.1 -587.8 L-591.1 -587.9 L-592.1 -587.9 L-593.1 -587.9 L-594.1 -587.9 L-595.1 -587.9 L-596.1 -587.9 L-597 -587.9 L-598 -587.9 L-599 -588 L-600 -588 L-601 -588 L-602 -588 L-603 -588 L-604 -588 L-605 -588 L-606 -588 L-607 -588.1 L-607.9 -588.1 L-608.9 -588.1 L-609.9 -588.1 L-610.9 -588.1 L-611.9 -588.1 L-612.9 -588.1 L-612.9 -589.1 L-612.9 -590.1 L-612.9 -591.1 L-612.9 -592.1 L-612.8 -593.1 L-612.8 -594.1 L-612.8 -595.1 L-612.8 -596.1 L-612.8 -597 L-612.8 -598 L-612.8 -599 L-612.8 -600 L-612.7 -601 L-612.7 -602 L-612.7 -603 L-612.7 -604 L-612.7 -605 L-612.7 -606 L-612.7 -607 L-612.7 -608 L-612.7 -608.9 L-612.6 -609.9 L-612.6 -610.9 L-612.6 -611.9 L-612.6 -612.9 L-611.6 -612.9 L-610.6 -612.9 L-609.6 -612.9 L-608.6 -612.9 L-607.6 -612.8 L-606.7 -612.8 L-605.7 -612.8 L-604.7 -612.8 L-603.7 -612.8 L-602.7 -612.8 L-601.7 -612.8 L-600.7 -612.8 L-599.7 -612.8 L-598.7 -612.7 L-597.7 -612.7 L-596.7 -612.7 L-595.7 -612.7 L-594.8 -612.7 L-593.8 -612.7 L-592.8 -612.7 L-591.8 -612.7 L-590.8 -612.6 L-589.8 -612.6 L-588.8 -612.6 L-587.8 -612.6 L-587.8 -611.6 L-587.8 -610.6 L-587.9 -609.6 L-587.9 -608.6 L-587.9 -607.6 L-587.9 -606.7 L-587.9 -605.7 L-587.9 -604.7 L-587.9 -603.7 L-587.9 -602.7 L-588 -601.7 L-588 -600.7 L-588 -599.7 L-588 -598.7 L-588 -597.7 L-588 -596.7 L-588 -595.8 L-588 -594.8 L-588 -593.8 L-588.1 -592.8 L-588.1 -591.8 L-588.1 -590.8 L-588.1 -589.8 L-588.1 -588.8 L-588.1 -587.8 Z " />
<path stroke="rgb(0,0,0)" stroke-opacity="0.5" fill="rgb(255,255,255)" fill-opacity="1" d="M-175.1 -299.8 L-175.2 -297.9 L-175.5 -295.9 L-175.9 -294 L-176.4 -292.1 L-177.2 -290.2 L-178 -288.4 L-179 -286.7 L-180.1 -285.1 L-181.4 -283.6 L-182.7 -282.1 L-184.2 -280.8 L-185.8 -279.6 L-187.4 -278.6 L-189.2 -277.6 L-191 -276.8 L-192.9 -276.2 L-194.8 -275.7 L-196.7 -275.4 L-198.7 -275.2 L-200.7 -275.2 L-202.6 -275.3 L-204.6 -275.6 L-206.5 -276 L-208.4 -276.6 L-210.2 -277.4 L-212 -278.2 L-213.7 -279.3 L-215.3 -280.4 L-216.8 -281.7 L-218.2 -283.1 L-219.5 -284.6 L-220.6 -286.2 L-221.7 -287.9 L-222.6 -289.6 L-223.3 -291.4 L-223.9 -293.3 L-224.4 -295.3 L-224.7 -297.2 L-224.8 -299.2 L-224.8 -301.2 L-224.7 -303.1 L-224.3 -305.1 L-223.8 -307 L-223.2 -308.9 L-222.4 -310.7 L-221.5 -312.4 L-220.5 -314.1 L-219.3 -315.7 L-218 -317.2 L-216.6 -318.5 L-215 -319.8 L-213.4 -320.9 L-211.7 -321.9 L-209.9 -322.8 L-208.1 -323.5 L-206.2 -324.1 L-204.3 -324.5 L-202.3 -324.7 L-200.3 -324.9 L-198.4 -324.8 L-196.4 -324.6 L-194.4 -324.2 L-192.5 -323.7 L-190.7 -323 L-188.9 -322.2 L-187.1 -321.3 L-185.5 -320.2 L-183.9 -319 L-182.5 -317.6 L-181.1 -316.2 L-179.9 -314.6 L-178.8 -313 L-177.8 -311.3 L-177 -309.5 L-176.3 -307.6 L-175.8 -305.7 L-175.4 -303.8 L-175.2 -301.8 L-175.1 -299.8 Z " />
<path stroke="rgb(0,0,0)" stroke-opacity="1" fill="rgb(255,255,255)" fill-opacity="1" d="M-389.1 -585.7 L-390.2 -585.8 L-391.2 -585.9 L-392.3 -586.1 L-393.3 -586.2 L-394.3 -586.4 L-395.4 -586.5 L-396.4 -586.6 L-397.4 -586.8 L-398.5 -586.9 L-399.5 -587.1 L-400.6 -587.2 L-401.6 -587.4 L-402.6 -587.5 L-403.7 -587.6 L-404.7 -587.8 L-405.7 -587.9 L-406.8 -588.1 L-407.8 -588.2 L-408.9 -588.3 L-409.9 -588.5 L-410.9 -588.6 L-412 -588.8 L-413 -588.9 L-414 -589 L-415.1 -589.2 L-414.9 -590.2 L-414.8 -591.3 L-414.7 -592.3 L-414.5 -593.3 L-414.4 -594.4 L-414.2 -595.4 L-414.1 -596.4 L-413.9 -597.5 L-413.8 -598.5 L-413.7 -599.6 L-413.5 -600.6 L-413.4 -601.6 L-413.2 -602.7 L-413.1 -603.7 L-413 -604.7 L-412.8 -605.8 L-412.7 -606.8 L-412.5 -607.9 L-412.4 -608.9 L-412.3 -609.9 L-412.1 -611 L-412 -612 L-411.8 -613 L-411.7 -614.1 L-411.6 -615.1 L-410.5 -615 L-409.5 -614.8 L-408.4 -614.7 L-407.4 -614.5 L-406.4 -614.4 L-405.3 -614.3 L-404.3 -614.1 L-403.3 -614 L-402.2 -613.8 L-401.2 -613.7 L-400.1 -613.6 L-399.1 -613.4 L-398.1 -613.3 L-397 -613.1 L-396 -613 L-395 -612.9 L-393.9 -612.7 L-392.9 -612.6 L-391.9 -612.4 L-390.8 -612.3 L-389.8 -612.2 L-388.7 -612 L-387.7 -611.9 L-386.7 -611.7 L-385.6 -611.6 L-385.8 -610.6 L-385.9 -609.5 L-386.1 -608.5 L-386.2 -607.4 L-386.3 -606.4 L-386.5 -605.4 L-386.6 -604.3 L-386.8 -603.3 L-386.9 -602.3 L-387 -601.2 L-387.2 -600.2 L-387.3 -599.1 L-387.5 -598.1 L-387.6 -597.1 L-387.7 -596 L-387.9 -595 L-388 -594 L-388.2 -592.9 L-388.3 -591.9 L-388.4 -590.8 L-388.6 -589.8 L-388.7 -588.8 L-388.9 -587.7 L-389 -586.7 L-389.1 -585.7 Z " />
<path stroke="rgb(0,0,0)" stroke-opacity="0.5" fill="rgb(255,255,255)" fill-opacity="1" d="M24.85 -299.8 L24.76 -297.9 L24.51 -295.9 L24.11 -294 L23.55 -292.1 L22.85 -290.2 L22 -288.4 L21.01 -286.7 L19.89 -285.1 L18.65 -283.6 L17.28 -282.1 L15.81 -280.8 L14.23 -279.6 L12.57 -278.6 L10.83 -277.6 L9.017 -276.8 L7.148 -276.2 L5.235 -275.7 L3.288 -275.4 L1.321 -275.2 L-0.6549 -275.2 L-2.627 -275.3 L-4.581 -275.6 L-6.507 -276 L-8.392 -276.6 L-10.22 -277.4 L-11.99 -278.2 L-13.68 -279.3 L-15.29 -280.4 L-16.8 -281.7 L-18.2 -283.1 L-19.48 -284.6 L-20.65 -286.2 L-21.68 -287.9 L-22.58 -289.6 L-23.33 -291.4 L-23.94 -293.3 L-24.39 -295.3 L-24.69 -297.2 L-24.83 -299.2 L-24.82 -301.2 L-24.65 -303.1 L-24.33 -305.1 L-23.85 -307 L-23.22 -308.9 L-22.44 -310.7 L-21.52 -312.4 L-20.47 -314.1 L-19.28 -315.7 L-17.97 -317.2 L-16.55 -318.5 L-15.03 -319.8 L-13.41 -320.9 L-11.71 -321.9 L-9.927 -322.8 L-8.085 -323.5 L-6.193 -324.1 L-4.261 -324.5 L-2.303 -324.7 L-0.3295 -324.9 L1.646 -324.8 L3.611 -324.6 L5.553 -324.2 L7.46 -323.7 L9.319 -323 L11.12 -322.2 L12.85 -321.3 L14.5 -320.2 L16.06 -319 L17.51 -317.6 L18.86 -316.2 L20.09 -314.6 L21.18 -313 L22.15 -311.3 L22.98 -309.5 L23.66 -307.6 L24.19 -305.7 L24.56 -303.8 L24.79 -301.8 L24.85 -299.8 Z " />
<path stroke="rgb(0,0,0)" stroke-opacity="1" fill="rgb(255,255,255)" fill-opacity="1" d="M-196 -578.2 L-197.1 -578.9 L-198.2 -579.6 L-199.2 -580.3 L-200.3 -581.1 L-201.3 -581.8 L-202.4 -582.5 L-203.5 -583.2 L-204.5 -583.9 L-205.6 -584.7 L-206.7 -585.4 L-207.7 -586.1 L-208.8 -586.8 L-209.8 -587.6 L-210.9 -588.3 L-212 -589 L-213 -589.7 L-214.1 -590.4 L-215.1 -591.2 L-216.2 -591.9 L-217.3 -592.6 L-218.3 -593.3 L-219.4 -594 L-220.5 -594.8 L-221.5 -595.5 L-222.6 -596.2 L-221.9 -597.3 L-221.1 -598.3 L-220.4 -599.4 L-219.7 -600.5 L-219 -601.5 L-218.2 -602.6 L-217.5 -603.6 L-216.8 -604.7 L-216.1 -605.8 L-215.4 -606.8 L-214.6 -607.9 L-213.9 -609 L-213.2 -610 L-212.5 -611.1 L-211.8 -612.1 L-211 -613.2 L-210.3 -614.3 L-209.6 -615.3 L-208.9 -616.4 L-208.1 -617.5 L-207.4 -618.5 L-206.7 -619.6 L-206 -620.6 L-205.3 -621.7 L-204.5 -622.8 L-203.5 -622 L-202.4 -621.3 L-201.3 -620.6 L-200.3 -619.9 L-199.2 -619.2 L-198.2 -618.4 L-197.1 -617.7 L-196 -617 L-195 -616.3 L-193.9 -615.5 L-192.8 -614.8 L-191.8 -614.1 L-190.7 -613.4 L-189.7 -612.7 L-188.6 -611.9 L-187.5 -611.2 L-186.5 -610.5 L-185.4 -609.8 L-184.4 -609 L-183.3 -608.3 L-182.2 -607.6 L-181.2 -606.9 L-180.1 -606.2 L-179 -605.4 L-178 -604.7 L-178.7 -603.6 L-179.4 -602.6 L-180.2 -601.5 L-180.9 -600.5 L-181.6 -599.4 L-182.3 -598.3 L-183 -597.3 L-183.8 -596.2 L-184.5 -595.2 L-185.2 -594.1 L-185.9 -593 L-186.6 -592 L-187.4 -590.9 L-188.1 -589.8 L-188.8 -588.8 L-189.5 -587.7 L-190.3 -586.7 L-191 -585.6 L-191.7 -584.5 L-192.4 -583.5 L-193.1 -582.4 L-193.9 -581.3 L-194.6 -580.3 L-195.3 -579.2 L-196 -578.2 Z " />
<path stroke="rgb(0,0,0)" stroke-opacity="0.5" fill="rgb(255,255,255)" fill-opacity="1" d="M224.9 -299.8 L224.8 -297.9 L224.5 -295.9 L224.1 -294 L223.6 -292.1 L222.8 -290.2 L222 -288.4 L221 -286.7 L219.9 -285.1 L218.6 -283.6 L217.3 -282.1 L215.8 -280.8 L214.2 -279.6 L212.6 -278.6 L210.8 -277.6 L209 -276.8 L207.1 -276.2 L205.2 -275.7 L203.3 -275.4 L201.3 -275.2 L199.3 -275.2 L197.4 -275.3 L195.4 -275.6 L193.5 -276 L191.6 -276.6 L189.8 -277.4 L188 -278.2 L186.3 -279.3 L184.7 -280.4 L183.2 -281.7 L181.8 -283.1 L180.5 -284.6 L179.4 -286.2 L178.3 -287.9 L177.4 -289.6 L176.7 -291.4 L176.1 -293.3 L175.6 -295.3 L175.3 -297.2 L175.2 -299.2 L175.2 -301.2 L175.3 -303.1 L175.7 -305.1 L176.2 -307 L176.8 -308.9 L177.6 -310.7 L178.5 -312.4 L179.5 -314.1 L180.7 -315.7 L182 -317.2 L183.4 -318.5 L185 -319.8 L186.6 -320.9 L188.3 -321.9 L190.1 -322.8 L191.9 -323.5 L193.8 -324.1 L195.7 -324.5 L197.7 -324.7 L199.7 -324.9 L201.6 -324.8 L203.6 -324.6 L205.6 -324.2 L207.5 -323.7 L209.3 -323 L211.1 -322.2 L212.9 -321.3 L214.5 -320.2 L216.1 -319 L217.5 -317.6 L218.9 -316.2 L220.1 -314.6 L221.2 -313 L222.2 -311.3 L223 -309.5 L223.7 -307.6 L224.2 -305.7 L224.6 -303.8 L224.8 -301.8 L224.9 -299.8 Z " />
<path stroke="rgb(0,0,0)" stroke-opacity="1" fill="rgb(255,255,255)" fill-opacity="1" d="M-14.52 -573.5 L-15.02 -575.1 L-15.52 -576.8 L-16.03 -578.4 L-16.53 -580.1 L-17.04 -581.8 L-17.54 -583.4 L-18.05 -585.1 L-18.55 -586.7 L-19.06 -588.4 L-19.56 -590.1 L-20.07 -591.7 L-20.57 -593.4 L-21.08 -595 L-21.58 -596.7 L-22.08 -598.3 L-22.59 -600 L-23.09 -601.7 L-23.6 -603.3 L-24.1 -605 L-24.61 -606.6 L-25.11 -608.3 L-25.62 -610 L-26.12 -611.6 L-26.63 -613.3 L-27.13 -614.9 L-25.47 -615.4 L-23.82 -615.9 L-22.16 -616.4 L-20.5 -616.9 L-18.84 -617.4 L-17.18 -618 L-15.53 -618.5 L-13.87 -619 L-12.21 -619.5 L-10.55 -620 L-8.893 -620.5 L-7.235 -621 L-5.577 -621.5 L-3.919 -622 L-2.261 -622.5 L-0.6035 -623 L1.055 -623.5 L2.713 -624 L4.371 -624.5 L6.029 -625 L7.687 -625.5 L9.345 -626 L11 -626.5 L12.66 -627 L14.32 -627.5 L14.82 -625.9 L15.33 -624.2 L15.83 -622.6 L16.34 -620.9 L16.84 -619.3 L17.35 -617.6 L17.85 -615.9 L18.36 -614.3 L18.86 -612.6 L19.37 -611 L19.87 -609.3 L20.37 -607.6 L20.88 -606 L21.38 -604.3 L21.89 -602.7 L22.39 -601 L22.9 -599.4 L23.4 -597.7 L23.91 -596 L24.41 -594.4 L24.92 -592.7 L25.42 -591.1 L25.93 -589.4 L26.43 -587.7 L26.93 -586.1 L25.28 -585.6 L23.62 -585.1 L21.96 -584.6 L20.3 -584.1 L18.64 -583.6 L16.99 -583.1 L15.33 -582.6 L13.67 -582.1 L12.01 -581.5 L10.35 -581 L8.697 -580.5 L7.039 -580 L5.381 -579.5 L3.723 -579 L2.065 -578.5 L0.4069 -578 L-1.251 -577.5 L-2.909 -577 L-4.567 -576.5 L-6.225 -576 L-7.883 -575.5 L-9.541 -575 L-11.2 -574.5 L-12.86 -574 L-14.52 -573.5 Z " />
<path stroke="rgb(0,0,0)" stroke-opacity="0.5" fill="rgb(255,255,255)" fill-opacity="1" d="M-275.1 -199.8 L-275.2 -197.9 L-275.5 -195.9 L-275.9 -194 L-276.4 -192.1 L-277.2 -190.2 L-278 -188.4 L-279 -186.7 L-280.1 -185.1 L-281.4 -183.6 L-282.7 -182.1 L-284.2 -180.8 L-285.8 -179.6 L-287.4 -178.6 L-289.2 -177.6 L-291 -176.8 L-292.9 -176.2 L-294.8 -175.7 L-296.7 -175.4 L-298.7 -175.2 L-300.7 -175.2 L-302.6 -175.3 L-304.6 -175.6 L-306.5 -176 L-308.4 -176.6 L-310.2 -177.4 L-312 -178.2 L-313.7 -179.3 L-315.3 -180.4 L-316.8 -181.7 L-318.2 -183.1 L-319.5 -184.6 L-320.6 -186.2 L-321.7 -187.9 L-322.6 -189.6 L-323.3 -191.4 L-323.9 -193.3 L-324.4 -195.3 L-324.7 -197.2 L-324.8 -199.2 L-324.8 -201.2 L-324.7 -203.1 L-324.3 -205.1 L-323.8 -207 L-323.2 -208.9 L-322.4 -210.7 L-321.5 -212.4 L-320.5 -214.1 L-319.3 -215.7 L-318 -217.2 L-316.6 -218.5 L-315 -219.8 L-313.4 -220.9 L-311.7 -221.9 L-309.9 -222.8 L-308.1 -223.5 L-306.2 -224.1 L-304.3 -224.5 L-302.3 -224.7 L-300.3 -224.9 L-298.4 -224.8 L-296.4 -224.6 L-294.4 -224.2 L-292.5 -223.7 L-290.7 -223 L-288.9 -222.2 L-287.1 -221.3 L-285.5 -220.2 L-283.9 -219 L-282.5 -217.6 L-281.1 -216.2 L-279.9 -214.6 L-278.8 -213 L-277.8 -211.3 L-277 -209.5 L-276.3 -207.6 L-275.8 -205.7 L-275.4 -203.8 L-275.2 -201.8 L-275.1 -199.8 Z " />
<path stroke="rgb(0,0,0)" stroke-opacity="1" fill="rgb(255,255,255)" fill-opacity="1" d="M-489.1 -485.7 L-490.2 -485.8 L-491.2 -485.9 L-492.3 -486.1 L-493.3 -486.2 L-494.3 -486.4 L-495.4 -486.5 L-496.4 -486.6 L-497.4 -486.8 L-498.5 -486.9 L-499.5 -487.1 L-500.6 -487.2 L-501.6 -487.4 L-502.6 -487.5 L-503.7 -487.6 L-504.7 -487.8 L-505.7 -487.9 L-506.8 -488.1 L-507.8 -488.2 L-508.9 -488.3 L-509.9 -488.5 L-510.9 -488.6 L-512 -488.8 L-513 -488.9 L-514 -489 L-515.1 -489.2 L-514.9 -490.2 L-514.8 -491.3 L-514.7 -492.3 L-514.5 -493.3 L-514.4 -494.4 L-514.2 -495.4 L-514.1 -496.4 L-513.9 -497.5 L-513.8 -498.5 L-513.7 -499.6 L-513.5 -500.6 L-513.4 -501.6 L-513.2 -502.7 L-513.1 -503.7 L-513 -504.7 L-512.8 -505.8 L-512.7 -506.8 L-512.5 -507.9 L-512.4 -508.9 L-512.3 -509.9 L-512.1 -511 L-512 -512 L-511.8 -513 L-511.7 -514.1 L-511.6 -515.1 L-510.5 -515 L-509.5 -514.8 L-508.4 -514.7 L-507.4 -514.5 L-506.4 -514.4 L-505.3 -514.3 L-504.3 -514.1 L-503.3 -514 L-502.2 -513.8 L-501.2 -513.7 L-500.1 -513.6 L-499.1 -513.4 L-498.1 -513.3 L-497 -513.1 L-496 -513 L-495 -512.9 L-493.9 -512.7 L-492.9 -512.6 L-491.9 -512.4 L-490.8 -512.3 L-489.8 -512.2 L-488.7 -512 L-487.7 -511.9 L-486.7 -511.7 L-485.6 -511.6 L-485.8 -510.6 L-485.9 -509.5 L-486.1 -508.5 L-486.2 -507.4 L-486.3 -506.4 L-486.5 -505.4 L-486.6 -504.3 L-486.8 -503.3 L-486.9 -502.3 L-487 -501.2 L-487.2 -500.2 L-487.3 -499.1 L-487.5 -498.1 L-487.6 -497.1 L-487.7 -496 L-487.9 -495 L-488 -494 L-488.2 -492.9 L-488.3 -491.9 L-488.4 -490.8 L-488.6 -489.8 L-488.7 -488.8 L-488.9 -487.7 L-489 -486.7 L-489.1 -485.7 Z " />
<path stroke="rgb(0,0,0)" stroke-opacity="0.5" fill="rgb(255,255,255)" fill-opacity="1" d="M-75.15 -199.8 L-75.24 -197.9 L-75.49 -195.9 L-75.89 -194 L-76.45 -192.1 L-77.15 -190.2 L-78 -188.4 L-78.99 -186.7 L-80.11 -185.1 L-81.35 -183.6 L-82.72 -182.1 L-84.19 -180.8 L-85.77 -179.6 L-87.43 -178.6 L-89.17 -177.6 L-90.98 -176.8 L-92.85 -176.2 L-94.77 -175.7 L-96.71 -175.4 L-98.68 -175.2 L-100.7 -175.2 L-102.6 -175.3 L-104.6 -175.6 L-106.5 -176 L-108.4 -176.6 L-110.2 -177.4 L-112 -178.2 L-113.7 -179.3 L-115.3 -180.4 L-116.8 -181.7 L-118.2 -183.1 L-119.5 -184.6 L-120.6 -186.2 L-121.7 -187.9 L-122.6 -189.6 L-123.3 -191.4 L-123.9 -193.3 L-124.4 -195.3 L-124.7 -197.2 L-124.8 -199.2 L-124.8 -201.2 L-124.7 -203.1 L-124.3 -205.1 L-123.8 -207 L-123.2 -208.9 L-122.4 -210.7 L-121.5 -212.4 L-120.5 -214.1 L-119.3 -215.7 L-118 -217.2 L-116.6 -218.5 L-115 -219.8 L-113.4 -220.9 L-111.7 -221.9 L-109.9 -222.8 L-108.1 -223.5 L-106.2 -224.1 L-104.3 -224.5 L-102.3 -224.7 L-100.3 -224.9 L-98.35 -224.8 L-96.39 -224.6 L-94.45 -224.2 L-92.54 -223.7 L-90.68 -223 L-88.88 -222.2 L-87.15 -221.3 L-85.5 -220.2 L-83.94 -219 L-82.49 -217.6 L-81.14 -216.2 L-79.91 -214.6 L-78.82 -213 L-77.85 -211.3 L-77.02 -209.5 L-76.34 -207.6 L-75.81 -205.7 L-75.44 -203.8 L-75.21 -201.8 L-75.15 -199.8 Z " />
<path stroke="rgb(0,0,0)" stroke-opacity="1" fill="rgb(255,255,255)" fill-opacity="1" d="M-296 -478.2 L-297.1 -478.9 L-298.2 -479.6 L-299.2 -480.3 L-300.3 -481.1 L-301.3 -481.8 L-302.4 -482.5 L-303.5 -483.2 L-304.5 -483.9 L-305.6 -484.7 L-306.7 -485.4 L-307.7 -486.1 L-308.8 -486.8 L-309.8 -487.6 L-310.9 -488.3 L-312 -489 L-313 -489.7 L-314.1 -490.4 L-315.1 -491.2 L-316.2 -491.9 L-317.3 -492.6 L-318.3 -493.3 L-319.4 -494 L-320.5 -494.8 L-321.5 -495.5 L-322.6 -496.2 L-321.9 -497.3 L-321.1 -498.3 L-320.4 -499.4 L-319.7 -500.5 L-319 -501.5 L-318.2 -502.6 L-317.5 -503.6 L-316.8 -504.7 L-316.1 -505.8 L-315.4 -506.8 L-314.6 -507.9 L-313.9 -509 L-313.2 -510 L-312.5 -511.1 L-311.8 -512.1 L-311 -513.2 L-310.3 -514.3 L-309.6 -515.3 L-308.9 -516.4 L-308.1 -517.5 L-307.4 -518.5 L-306.7 -519.6 L-306 -520.6 L-305.3 -521.7 L-304.5 -522.8 L-303.5 -522 L-302.4 -521.3 L-301.3 -520.6 L-300.3 -519.9 L-299.2 -519.2 L-298.2 -518.4 L-297.1 -517.7 L-296 -517 L-295 -516.3 L-293.9 -515.5 L-292.8 -514.8 L-291.8 -514.1 L-290.7 -513.4 L-289.7 -512.7 L-288.6 -511.9 L-287.5 -511.2 L-286.5 -510.5 L-285.4 -509.8 L-284.4 -509 L-283.3 -508.3 L-282.2 -507.6 L-281.2 -506.9 L-280.1 -506.2 L-279 -505.4 L-278 -504.7 L-278.7 -503.6 L-279.4 -502.6 L-280.2 -501.5 L-280.9 -500.5 L-281.6 -499.4 L-282.3 -498.3 L-283 -497.3 L-283.8 -496.2 L-284.5 -495.2 L-285.2 -494.1 L-285.9 -493 L-286.6 -492 L-287.4 -490.9 L-288.1 -489.8 L-288.8 -488.8 L-289.5 -487.7 L-290.3 -486.7 L-291 -485.6 L-291.7 -484.5 L-292.4 -483.5 L-293.1 -482.4 L-293.9 -481.3 L-294.6 -480.3 L-295.3 -479.2 L-296 -478.2 Z " />
<path stroke="rgb(0,0,0)" stroke-opacity="0.5" fill="rgb(255,255,255)" fill-opacity="1" d="M124.9 -199.8 L124.8 -197.9 L124.5 -195.9 L124.1 -194 L123.6 -192.1 L122.8 -190.2 L122 -188.4 L121 -186.7 L119.9 -185.1 L118.6 -183.6 L117.3 -182.1 L115.8 -180.8 L114.2 -179.6 L112.6 -178.6 L110.8 -177.6 L109 -176.8 L107.1 -176.2 L105.2 -175.7 L103.3 -175.4 L101.3 -175.2 L99.35 -175.2 L97.37 -175.3 L95.42 -175.6 L93.49 -176 L91.61 -176.6 L89.78 -177.4 L88.01 -178.2 L86.32 -179.3 L84.71 -180.4 L83.2 -181.7 L81.8 -183.1 L80.52 -184.6 L79.35 -186.2 L78.32 -187.9 L77.42 -189.6 L76.67 -191.4 L76.06 -193.3 L75.61 -195.3 L75.31 -197.2 L75.17 -199.2 L75.18 -201.2 L75.35 -203.1 L75.67 -205.1 L76.15 -207 L76.78 -208.9 L77.56 -210.7 L78.48 -212.4 L79.53 -214.1 L80.72 -215.7 L82.03 -217.2 L83.45 -218.5 L84.97 -219.8 L86.59 -220.9 L88.29 -221.9 L90.07 -222.8 L91.91 -223.5 L93.81 -224.1 L95.74 -224.5 L97.7 -224.7 L99.67 -224.9 L101.6 -224.8 L103.6 -224.6 L105.6 -224.2 L107.5 -223.7 L109.3 -223 L111.1 -222.2 L112.9 -221.3 L114.5 -220.2 L116.1 -219 L117.5 -217.6 L118.9 -216.2 L120.1 -214.6 L121.2 -213 L122.2 -211.3 L123 -209.5 L123.7 -207.6 L124.2 -205.7 L124.6 -203.8 L124.8 -201.8 L124.9 -199.8 Z " />
<path stroke="rgb(0,0,0)" stroke-opacity="1" fill="rgb(255,255,255)" fill-opacity="1" d="M-114.5 -473.5 L-115 -475.1 L-115.5 -476.8 L-116 -478.4 L-116.5 -480.1 L-117 -481.8 L-117.5 -483.4 L-118 -485.1 L-118.6 -486.7 L-119.1 -488.4 L-119.6 -490.1 L-120.1 -491.7 L-120.6 -493.4 L-121.1 -495 L-121.6 -496.7 L-122.1 -498.3 L-122.6 -500 L-123.1 -501.7 L-123.6 -503.3 L-124.1 -505 L-124.6 -506.6 L-125.1 -508.3 L-125.6 -510 L-126.1 -511.6 L-126.6 -513.3 L-127.1 -514.9 L-125.5 -515.4 L-123.8 -515.9 L-122.2 -516.4 L-120.5 -516.9 L-118.8 -517.4 L-117.2 -518 L-115.5 -518.5 L-113.9 -519 L-112.2 -519.5 L-110.6 -520 L-108.9 -520.5 L-107.2 -521 L-105.6 -521.5 L-103.9 -522 L-102.3 -522.5 L-100.6 -523 L-98.95 -523.5 L-97.29 -524 L-95.63 -524.5 L-93.97 -525 L-92.31 -525.5 L-90.66 -526 L-89 -526.5 L-87.34 -527 L-85.68 -527.5 L-85.18 -525.9 L-84.67 -524.2 L-84.17 -522.6 L-83.66 -520.9 L-83.16 -519.3 L-82.65 -517.6 L-82.15 -515.9 L-81.64 -514.3 L-81.14 -512.6 L-80.63 -511 L-80.13 -509.3 L-79.63 -507.6 L-79.12 -506 L-78.62 -504.3 L-78.11 -502.7 L-77.61 -501 L-77.1 -499.4 L-76.6 -497.7 L-76.09 -496 L-75.59 -494.4 L-75.08 -492.7 L-74.58 -491.1 L-74.07 -489.4 L-73.57 -487.7 L-73.07 -486.1 L-74.72 -485.6 L-76.38 -485.1 L-78.04 -484.6 L-79.7 -484.1 L-81.36 -483.6 L-83.01 -483.1 L-84.67 -482.6 L-86.33 -482.1 L-87.99 -481.5 L-89.65 -481 L-91.3 -480.5 L-92.96 -480 L-94.62 -479.5 L-96.28 -479 L-97.94 -478.5 L-99.59 -478 L-101.3 -477.5 L-102.9 -477 L-104.6 -476.5 L-106.2 -476 L-107.9 -475.5 L-109.5 -475 L-111.2 -474.5 L-112.9 -474 L-114.5 -473.5 Z " />
<path stroke="rgb(0,0,0)" stroke-opacity="0.5" fill="rgb(255,255,255)" fill-opacity="1" d="M324.9 -199.8 L324.8 -197.9 L324.5 -195.9 L324.1 -194 L323.6 -192.1 L322.8 -190.2 L322 -188.4 L321 -186.7 L319.9 -185.1 L318.6 -183.6 L317.3 -182.1 L315.8 -180.8 L314.2 -179.6 L312.6 -178.6 L310.8 -177.6 L309 -176.8 L307.1 -176.2 L305.2 -175.7 L303.3 -175.4 L301.3 -175.2 L299.3 -175.2 L297.4 -175.3 L295.4 -175.6 L293.5 -176 L291.6 -176.6 L289.8 -177.4 L288 -178.2 L286.3 -179.3 L284.7 -180.4 L283.2 -181.7 L281.8 -183.1 L280.5 -184.6 L279.4 -186.2 L278.3 -187.9 L277.4 -189.6 L276.7 -191.4 L276.1 -193.3 L275.6 -195.3 L275.3 -197.2 L275.2 -199.2 L275.2 -201.2 L275.3 -203.1 L275.7 -205.1 L276.2 -207 L276.8 -208.9 L277.6 -210.7 L278.5 -212.4 L279.5 -214.1 L280.7 -215.7 L282 -217.2 L283.4 -218.5 L285 -219.8 L286.6 -220.9 L288.3 -221.9 L290.1 -222.8 L291.9 -223.5 L293.8 -224.1 L295.7 -224.5 L297.7 -224.7 L299.7 -224.9 L301.6 -224.8 L303.6 -224.6 L305.6 -224.2 L307.5 -223.7 L309.3 -223 L311.1 -222.2 L312.9 -221.3 L314.5 -220.2 L316.1 -219 L317.5 -217.6 L318.9 -216.2 L320.1 -214.6 L321.2 -213 L322.2 -211.3 L323 -209.5 L323.7 -207.6 L324.2 -205.7 L324.6 -203.8 L324.8 -201.8 L324.9 -199.8 Z " />
<path stroke="rgb(0,0,0)" stroke-opacity="1" fill="rgb(255,255,255)" fill-opacity="1" d="M-589.1 -385.7 L-590.2 -385.8 L-591.2 -385.9 L-592.3 -386.1 L-593.3 -386.2 L-594.3 -386.4 L-595.4 -386.5 L-596.4 -386.6 L-597.4 -386.8 L-598.5 -386.9 L-599.5 -387.1 L-600.6 -387.2 L-601.6 -387.4 L-602.6 -387.5 L-603.7 -387.6 L-604.7 -387.8 L-605.7 -387.9 L-606.8 -388.1 L-607.8 -388.2 L-608.9 -388.3 L-609.9 -388.5 L-610.9 -388.6 L-612 -388.8 L-613 -388.9 L-614 -389 L-615.1 -389.2 L-614.9 -390.2 L-614.8 -391.3 L-614.7 -392.3 L-614.5 -393.3 L-614.4 -394.4 L-614.2 -395.4 L-614.1 -396.4 L-613.9 -397.5 L-613.8 -398.5 L-613.7 -399.6 L-613.5 -400.6 L-613.4 -401.6 L-613.2 -402.7 L-613.1 -403.7 L-613 -404.7 L-612.8 -405.8 L-612.7 -406.8 L-612.5 -407.9 L-612.4 -408.9 L-612.3 -409.9 L-612.1 -411 L-612 -412 L-611.8 -413 L-611.7 -414.1 L-611.6 -415.1 L-610.5 -415 L-609.5 -414.8 L-608.4 -414.7 L-607.4 -414.5 L-606.4 -414.4 L-605.3 -414.3 L-604.3 -414.1 L-603.3 -414 L-602.2 -413.8 L-601.2 -413.7 L-600.1 -413.6 L-599.1 -413.4 L-598.1 -413.3 L-597 -413.1 L-596 -413 L-595 -412.9 L-593.9 -412.7 L-592.9 -412.6 L-591.9 -412.4 L-590.8 -412.3 L-589.8 -412.2 L-588.7 -412 L-587.7 -411.9 L-586.7 -411.7 L-585.6 -411.6 L-585.8 -410.6 L-585.9 -409.5 L-586.1 -408.5 L-586.2 -407.4 L-586.3 -406.4 L-586.5 -405.4 L-586.6 -404.3 L-586.8 -403.3 L-586.9 -402.3 L-587 -401.2 L-587.2 -400.2 L-587.3 -399.1 L-587.5 -398.1 L-587.6 -397.1 L-587.7 -396 L-587.9 -395 L-588 -394 L-588.2 -392.9 L-588.3 -391.9 L-588.4 -390.8 L-588.6 -389.8 L-588.7 -388.8 L-588.9 -387.7 L-589 -386.7 L-589.1 -385.7 Z " />
<path stroke="rgb(0,0,0)" stroke-opacity="0.5" fill="rgb(255,255,255)" fill-opacity="1" d="M-175.1 -99.84 L-175.2 -97.87 L-175.5 -95.91 L-175.9 -93.97 L-176.4 -92.07 L-177.2 -90.23 L-178 -88.44 L-179 -86.73 L-180.1 -85.11 L-181.4 -83.57 L-182.7 -82.14 L-184.2 -80.83 L-185.8 -79.63 L-187.4 -78.56 L-189.2 -77.63 L-191 -76.84 L-192.9 -76.2 L-194.8 -75.71 L-196.7 -75.37 L-198.7 -75.19 L-200.7 -75.16 L-202.6 -75.29 L-204.6 -75.58 L-206.5 -76.02 L-208.4 -76.61 L-210.2 -77.35 L-212 -78.24 L-213.7 -79.26 L-215.3 -80.41 L-216.8 -81.69 L-218.2 -83.08 L-219.5 -84.58 L-220.6 -86.18 L-221.7 -87.86 L-222.6 -89.62 L-223.3 -91.45 L-223.9 -93.33 L-224.4 -95.25 L-224.7 -97.21 L-224.8 -99.18 L-224.8 -101.2 L-224.7 -103.1 L-224.3 -105.1 L-223.8 -107 L-223.2 -108.9 L-222.4 -110.7 L-221.5 -112.4 L-220.5 -114.1 L-219.3 -115.7 L-218 -117.2 L-216.6 -118.5 L-215 -119.8 L-213.4 -120.9 L-211.7 -121.9 L-209.9 -122.8 L-208.1 -123.5 L-206.2 -124.1 L-204.3 -124.5 L-202.3 -124.7 L-200.3 -124.9 L-198.4 -124.8 L-196.4 -124.6 L-194.4 -124.2 L-192.5 -123.7 L-190.7 -123 L-188.9 -122.2 L-187.1 -121.3 L-185.5 -120.2 L-183.9 -119 L-182.5 -117.6 L-181.1 -116.2 L-179.9 -114.6 L-178.8 -113 L-177.8 -111.3 L-177 -109.5 L-176.3 -107.6 L-175.8 -105.7 L-175.4 -103.8 L-175.2 -101.8 L-175.1 -99.84 Z " />
<path stroke="rgb(0,0,0)" stroke-opacity="1" fill="rgb(255,255,255)" fill-opacity="1" d="M-396 -378.2 L-397.1 -378.9 L-398.2 -379.6 L-399.2 -380.3 L-400.3 -381.1 L-401.3 -381.8 L-402.4 -382.5 L-403.5 -383.2 L-404.5 -383.9 L-405.6 -384.7 L-406.7 -385.4 L-407.7 -386.1 L-408.8 -386.8 L-409.8 -387.6 L-410.9 -388.3 L-412 -389 L-413 -389.7 L-414.1 -390.4 L-415.1 -391.2 L-416.2 -391.9 L-417.3 -392.6 L-418.3 -393.3 L-419.4 -394 L-420.5 -394.8 L-421.5 -395.5 L-422.6 -396.2 L-421.9 -397.3 L-421.1 -398.3 L-420.4 -399.4 L-419.7 -400.5 L-419 -401.5 L-418.2 -402.6 L-417.5 -403.6 L-416.8 -404.7 L-416.1 -405.8 L-415.4 -406.8 L-414.6 -407.9 L-413.9 -409 L-413.2 -410 L-412.5 -411.1 L-411.8 -412.1 L-411 -413.2 L-410.3 -414.3 L-409.6 -415.3 L-408.9 -416.4 L-408.1 -417.5 L-407.4 -418.5 L-406.7 -419.6 L-406 -420.6 L-405.3 -421.7 L-404.5 -422.8 L-403.5 -422 L-402.4 -421.3 L-401.3 -420.6 L-400.3 -419.9 L-399.2 -419.2 L-398.2 -418.4 L-397.1 -417.7 L-396 -417 L-395 -416.3 L-393.9 -415.5 L-392.8 -414.8 L-391.8 -414.1 L-390.7 -413.4 L-389.7 -412.7 L-388.6 -411.9 L-387.5 -411.2 L-386.5 -410.5 L-385.4 -409.8 L-384.4 -409 L-383.3 -408.3 L-382.2 -407.6 L-381.2 -406.9 L-380.1 -406.2 L-379 -405.4 L-378 -404.7 L-378.7 -403.6 L-379.4 -402.6 L-380.2 -401.5 L-380.9 -400.5 L-381.6 -399.4 L-382.3 -398.3 L-383 -397.3 L-383.8 -396.2 L-384.5 -395.2 L-385.2 -394.1 L-385.9 -393 L-386.6 -392 L-387.4 -390.9 L-388.1 -389.8 L-388.8 -388.8 L-389.5 -387.7 L-390.3 -386.7 L-391 -385.6 L-391.7 -384.5 L-392.4 -383.5 L-393.1 -382.4 L-393.9 -381.3 L-394.6 -380.3 L-395.3 -379.2 L-396 -378.2 Z " />
<path stroke="rgb(0,0,0)" stroke-opacity="0.5" fill="rgb(255,255,255)" fill-opacity="1" d="M24.85 -99.84 L24.76 -97.87 L24.51 -95.91 L24.11 -93.97 L23.55 -92.07 L22.85 -90.23 L22 -88.44 L21.01 -86.73 L19.89 -85.11 L18.65 -83.57 L17.28 -82.14 L15.81 -80.83 L14.23 -79.63 L12.57 -78.56 L10.83 -77.63 L9.017 -76.84 L7.148 -76.2 L5.235 -75.71 L3.288 -75.37 L1.321 -75.19 L-0.6549 -75.16 L-2.627 -75.29 L-4.581 -75.58 L-6.507 -76.02 L-8.392 -76.61 L-10.22 -77.35 L-11.99 -78.24 L-13.68 -79.26 L-15.29 -80.41 L-16.8 -81.69 L-18.2 -83.08 L-19.48 -84.58 L-20.65 -86.18 L-21.68 -87.86 L-22.58 -89.62 L-23.33 -91.45 L-23.94 -93.33 L-24.39 -95.25 L-24.69 -97.21 L-24.83 -99.18 L-24.82 -101.2 L-24.65 -103.1 L-24.33 -105.1 L-23.85 -107 L-23.22 -108.9 L-22.44 -110.7 L-21.52 -112.4 L-20.47 -114.1 L-19.28 -115.7 L-17.97 -117.2 L-16.55 -118.5 L-15.03 -119.8 L-13.41 -120.9 L-11.71 -121.9 L-9.927 -122.8 L-8.085 -123.5 L-6.193 -124.1 L-4.261 -124.5 L-2.303 -124.7 L-0.3295 -124.9 L1.646 -124.8 L3.611 -124.6 L5.553 -124.2 L7.46 -123.7 L9.319 -123 L11.12 -122.2 L12.85 -121.3 L14.5 -120.2 L16.06 -119 L17.51 -117.6 L18.86 -116.2 L20.09 -114.6 L21.18 -113 L22.15 -111.3 L22.98 -109.5 L23.66 -107.6 L24.19 -105.7 L24.56 -103.8 L24.79 -101.8 L24.85 -99.84 Z " />
<path stroke="rgb(0,0,0)" stroke-opacity="1" fill="rgb(255,255,255)" fill-opacity="1" d="M-214.5 -373.5 L-215 -375.1 L-215.5 -376.8 L-216 -378.4 L-216.5 -380.1 L-217 -381.8 L-217.5 -383.4 L-218 -385.1 L-218.6 -386.7 L-219.1 -388.4 L-219.6 -390.1 L-220.1 -391.7 L-220.6 -393.4 L-221.1 -395 L-221.6 -396.7 L-222.1 -398.3 L-222.6 -400 L-223.1 -401.7 L-223.6 -403.3 L-224.1 -405 L-224.6 -406.6 L-225.1 -408.3 L-225.6 -410 L-226.1 -411.6 L-226.6 -413.3 L-227.1 -414.9 L-225.5 -415.4 L-223.8 -415.9 L-222.2 -416.4 L-220.5 -416.9 L-218.8 -417.4 L-217.2 -418 L-215.5 -418.5 L-213.9 -419 L-212.2 -419.5 L-210.6 -420 L-208.9 -420.5 L-207.2 -421 L-205.6 -421.5 L-203.9 -422 L-202.3 -422.5 L-200.6 -423 L-198.9 -423.5 L-197.3 -424 L-195.6 -424.5 L-194 -425 L-192.3 -425.5 L-190.7 -426 L-189 -426.5 L-187.3 -427 L-185.7 -427.5 L-185.2 -425.9 L-184.7 -424.2 L-184.2 -422.6 L-183.7 -420.9 L-183.2 -419.3 L-182.7 -417.6 L-182.1 -415.9 L-181.6 -414.3 L-181.1 -412.6 L-180.6 -411 L-180.1 -409.3 L-179.6 -407.6 L-179.1 -406 L-178.6 -404.3 L-178.1 -402.7 L-177.6 -401 L-177.1 -399.4 L-176.6 -397.7 L-176.1 -396 L-175.6 -394.4 L-175.1 -392.7 L-174.6 -391.1 L-174.1 -389.4 L-173.6 -387.7 L-173.1 -386.1 L-174.7 -385.6 L-176.4 -385.1 L-178 -384.6 L-179.7 -384.1 L-181.4 -383.6 L-183 -383.1 L-184.7 -382.6 L-186.3 -382.1 L-188 -381.5 L-189.6 -381 L-191.3 -380.5 L-193 -380 L-194.6 -379.5 L-196.3 -379 L-197.9 -378.5 L-199.6 -378 L-201.3 -377.5 L-202.9 -377 L-204.6 -376.5 L-206.2 -376 L-207.9 -375.5 L-209.5 -375 L-211.2 -374.5 L-212.9 -374 L-214.5 -373.5 Z " />
<path stroke="rgb(0,0,0)" stroke-opacity="0.5" fill="rgb(255,255,255)" fill-opacity="1" d="M224.9 -99.84 L224.8 -97.87 L224.5 -95.91 L224.1 -93.97 L223.6 -92.07 L222.8 -90.23 L222 -88.44 L221 -86.73 L219.9 -85.11 L218.6 -83.57 L217.3 -82.14 L215.8 -80.83 L214.2 -79.63 L212.6 -78.56 L210.8 -77.63 L209 -76.84 L207.1 -76.2 L205.2 -75.71 L203.3 -75.37 L201.3 -75.19 L199.3 -75.16 L197.4 -75.29 L195.4 -75.58 L193.5 -76.02 L191.6 -76.61 L189.8 -77.35 L188 -78.24 L186.3 -79.26 L184.7 -80.41 L183.2 -81.69 L181.8 -83.08 L180.5 -84.58 L179.4 -86.18 L178.3 -87.86 L177.4 -89.62 L176.7 -91.45 L176.1 -93.33 L175.6 -95.25 L175.3 -97.21 L175.2 -99.18 L175.2 -101.2 L175.3 -103.1 L175.7 -105.1 L176.2 -107 L176.8 -108.9 L177.6 -110.7 L178.5 -112.4 L179.5 -114.1 L180.7 -115.7 L182 -117.2 L183.4 -118.5 L185 -119.8 L186.6 -120.9 L188.3 -121.9 L190.1 -122.8 L191.9 -123.5 L193.8 -124.1 L195.7 -124.5 L197.7 -124.7 L199.7 -124.9 L201.6 -124.8 L203.6 -124.6 L205.6 -124.2 L207.5 -123.7 L209.3 -123 L211.1 -122.2 L212.9 -121.3 L214.5 -120.2 L216.1 -119 L217.5 -117.6 L218.9 -116.2 L220.1 -114.6 L221.2 -113 L222.2 -111.3 L223 -109.5 L223.7 -107.6 L224.2 -105.7 L224.6 -103.8 L224.8 -101.8 L224.9 -99.84 Z " />
<path stroke="rgb(0,0,0)" stroke-opacity="1" fill="rgb(255,255,255)" fill-opacity="1" d="M-23.58 -375.4 L-23.64 -377.3 L-23.7 -379.3 L-23.77 -381.2 L-23.83 -383.2 L-23.89 -385.1 L-23.95 -387.1 L-24.01 -389 L-24.07 -391 L-24.13 -392.9 L-24.19 -394.9 L-24.25 -396.8 L-24.31 -398.8 L-24.37 -400.7 L-24.44 -402.6 L-24.5 -404.6 L-24.56 -406.5 L-24.62 -408.5 L-24.68 -410.4 L-24.74 -412.4 L-24.8 -414.3 L-24.86 -416.3 L-24.92 -418.2 L-24.98 -420.2 L-25.04 -422.1 L-25.11 -424.1 L-23.16 -424.1 L-21.21 -424.2 L-19.27 -424.2 L-17.32 -424.3 L-15.37 -424.4 L-13.42 -424.4 L-11.48 -424.5 L-9.531 -424.6 L-7.584 -424.6 L-5.637 -424.7 L-3.69 -424.7 L-1.743 -424.8 L0.204 -424.9 L2.151 -424.9 L4.098 -425 L6.045 -425 L7.992 -425.1 L9.939 -425.2 L11.89 -425.2 L13.83 -425.3 L15.78 -425.3 L17.73 -425.4 L19.67 -425.5 L21.62 -425.5 L23.57 -425.6 L23.63 -423.6 L23.69 -421.7 L23.75 -419.7 L23.81 -417.8 L23.87 -415.9 L23.93 -413.9 L23.99 -412 L24.05 -410 L24.12 -408.1 L24.18 -406.1 L24.24 -404.2 L24.3 -402.2 L24.36 -400.3 L24.42 -398.3 L24.48 -396.4 L24.54 -394.4 L24.6 -392.5 L24.66 -390.5 L24.72 -388.6 L24.79 -386.6 L24.85 -384.7 L24.91 -382.8 L24.97 -380.8 L25.03 -378.9 L25.09 -376.9 L23.14 -376.9 L21.2 -376.8 L19.25 -376.7 L17.3 -376.7 L15.36 -376.6 L13.41 -376.5 L11.46 -376.5 L9.515 -376.4 L7.568 -376.4 L5.621 -376.3 L3.675 -376.2 L1.728 -376.2 L-0.2193 -376.1 L-2.166 -376.1 L-4.113 -376 L-6.06 -375.9 L-8.007 -375.9 L-9.954 -375.8 L-11.9 -375.8 L-13.85 -375.7 L-15.79 -375.6 L-17.74 -375.6 L-19.69 -375.5 L-21.64 -375.5 L-23.58 -375.4 Z " />
<path stroke="rgb(0,0,0)" stroke-opacity="0.5" fill="rgb(255,255,255)" fill-opacity="1" d="M-275.1 0.1607 L-275.2 2.135 L-275.5 4.095 L-275.9 6.029 L-276.4 7.925 L-277.2 9.772 L-278 11.56 L-279 13.27 L-280.1 14.89 L-281.4 16.43 L-282.7 17.86 L-284.2 19.17 L-285.8 20.37 L-287.4 21.44 L-289.2 22.37 L-291 23.16 L-292.9 23.8 L-294.8 24.29 L-296.7 24.63 L-298.7 24.81 L-300.7 24.84 L-302.6 24.71 L-304.6 24.42 L-306.5 23.98 L-308.4 23.39 L-310.2 22.65 L-312 21.76 L-313.7 20.74 L-315.3 19.59 L-316.8 18.31 L-318.2 16.92 L-319.5 15.42 L-320.6 13.82 L-321.7 12.14 L-322.6 10.38 L-323.3 8.551 L-323.9 6.67 L-324.4 4.747 L-324.7 2.794 L-324.8 0.8233 L-324.8 -1.153 L-324.7 -3.121 L-324.3 -5.07 L-323.8 -6.987 L-323.2 -8.86 L-322.4 -10.68 L-321.5 -12.43 L-320.5 -14.1 L-319.3 -15.68 L-318 -17.16 L-316.6 -18.53 L-315 -19.79 L-313.4 -20.92 L-311.7 -21.92 L-309.9 -22.78 L-308.1 -23.5 L-306.2 -24.07 L-304.3 -24.48 L-302.3 -24.75 L-300.3 -24.85 L-298.4 -24.8 L-296.4 -24.59 L-294.4 -24.22 L-292.5 -23.71 L-290.7 -23.04 L-288.9 -22.23 L-287.1 -21.27 L-285.5 -20.18 L-283.9 -18.97 L-282.5 -17.63 L-281.1 -16.19 L-279.9 -14.64 L-278.8 -12.99 L-277.8 -11.27 L-277 -9.476 L-276.3 -7.62 L-275.8 -5.717 L-275.4 -3.777 L-275.2 -1.814 L-275.1 0.1607 Z " />
<path stroke="rgb(0,0,0)" stroke-opacity="1" fill="rgb(255,255,255)" fill-opacity="1" d="M-496 -278.2 L-497.1 -278.9 L-498.2 -279.6 L-499.2 -280.3 L-500.3 -281.1 L-501.3 -281.8 L-502.4 -282.5 L-503.5 -283.2 L-504.5 -283.9 L-505.6 -284.7 L-506.7 -285.4 L-507.7 -286.1 L-508.8 -286.8 L-509.8 -287.6 L-510.9 -288.3 L-512 -289 L-513 -289.7 L-514.1 -290.4 L-515.1 -291.2 L-516.2 -291.9 L-517.3 -292.6 L-518.3 -293.3 L-519.4 -294 L-520.5 -294.8 L-521.5 -295.5 L-522.6 -296.2 L-521.9 -297.3 L-521.1 -298.3 L-520.4 -299.4 L-519.7 -300.5 L-519 -301.5 L-518.2 -302.6 L-517.5 -303.6 L-516.8 -304.7 L-516.1 -305.8 L-515.4 -306.8 L-514.6 -307.9 L-513.9 -309 L-513.2 -310 L-512.5 -311.1 L-511.8 -312.1 L-511 -313.2 L-510.3 -314.3 L-509.6 -315.3 L-508.9 -316.4 L-508.1 -317.5 L-507.4 -318.5 L-506.7 -319.6 L-506 -320.6 L-505.3 -321.7 L-504.5 -322.8 L-503.5 -322 L-502.4 -321.3 L-501.3 -320.6 L-500.3 -319.9 L-499.2 -319.2 L-498.2 -318.4 L-497.1 -317.7 L-496 -317 L-495 -316.3 L-493.9 -315.5 L-492.8 -314.8 L-491.8 -314.1 L-490.7 -313.4 L-489.7 -312.7 L-488.6 -311.9 L-487.5 -311.2 L-486.5 -310.5 L-485.4 -309.8 L-484.4 -309 L-483.3 -308.3 L-482.2 -307.6 L-481.2 -306.9 L-480.1 -306.2 L-479 -305.4 L-478 -304.7 L-478.7 -303.6 L-479.4 -302.6 L-480.2 -301.5 L-480.9 -300.5 L-481.6 -299.4 L-482.3 -298.3 L-483 -297.3 L-483.8 -296.2 L-484.5 -295.2 L-485.2 -294.1 L-485.9 -293 L-486.6 -292 L-487.4 -290.9 L-488.1 -289.8 L-488.8 -288.8 L-489.5 -287.7 L-490.3 -286.7 L-491 -285.6 L-491.7 -284.5 L-492.4 -283.5 L-493.1 -282.4 L-493.9 -281.3 L-494.6 -280.3 L-495.3 -279.2 L-496 -278.2 Z " />
<path stroke="rgb(0,0,0)" stroke-opacity="0.5" fill="rgb(255,255,255)" fill-opacity="1" d="M-75.15 0.1607 L-75.24 2.135 L-75.49 4.095 L-75.89 6.029 L-76.45 7.925 L-77.15 9.772 L-78 11.56 L-78.99 13.27 L-80.11 14.89 L-81.35 16.43 L-82.72 17.86 L-84.19 19.17 L-85.77 20.37 L-87.43 21.44 L-89.17 22.37 L-90.98 23.16 L-92.85 23.8 L-94.77 24.29 L-96.71 24.63 L-98.68 24.81 L-100.7 24.84 L-102.6 24.71 L-104.6 24.42 L-106.5 23.98 L-108.4 23.39 L-110.2 22.65 L-112 21.76 L-113.7 20.74 L-115.3 19.59 L-116.8 18.31 L-118.2 16.92 L-119.5 15.42 L-120.6 13.82 L-121.7 12.14 L-122.6 10.38 L-123.3 8.551 L-123.9 6.67 L-124.4 4.747 L-124.7 2.794 L-124.8 0.8233 L-124.8 -1.153 L-124.7 -3.121 L-124.3 -5.07 L-123.8 -6.987 L-123.2 -8.86 L-122.4 -10.68 L-121.5 -12.43 L-120.5 -14.1 L-119.3 -15.68 L-118 -17.16 L-116.6 -18.53 L-115 -19.79 L-113.4 -20.92 L-111.7 -21.92 L-109.9 -22.78 L-108.1 -23.5 L-106.2 -24.07 L-104.3 -24.48 L-102.3 -24.75 L-100.3 -24.85 L-98.35 -24.8 L-96.39 -24.59 L-94.45 -24.22 L-92.54 -23.71 L-90.68 -23.04 L-88.88 -22.23 L-87.15 -21.27 L-85.5 -20.18 L-83.94 -18.97 L-82.49 -17.63 L-81.14 -16.19 L-79.91 -14.64 L-78.82 -12.99 L-77.85 -11.27 L-77.02 -9.476 L-76.34 -7.62 L-75.81 -5.717 L-75.44 -3.777 L-75.21 -1.814 L-75.15 0.1607 Z " />
<path stroke="rgb(0,0,0)" stroke-opacity="1" fill="rgb(255,255,255)" fill-opacity="1" d="M-314.5 -273.5 L-315 -275.1 L-315.5 -276.8 L-316 -278.4 L-316.5 -280.1 L-317 -281.8 L-317.5 -283.4 L-318 -285.1 L-318.6 -286.7 L-319.1 -288.4 L-319.6 -290.1 L-320.1 -291.7 L-320.6 -293.4 L-321.1 -295 L-321.6 -296.7 L-322.1 -298.3 L-322.6 -300 L-323.1 -301.7 L-323.6 -303.3 L-324.1 -305 L-324.6 -306.6 L-325.1 -308.3 L-325.6 -310 L-326.1 -311.6 L-326.6 -313.3 L-327.1 -314.9 L-325.5 -315.4 L-323.8 -315.9 L-322.2 -316.4 L-320.5 -316.9 L-318.8 -317.4 L-317.2 -318 L-315.5 -318.5 L-313.9 -319 L-312.2 -319.5 L-310.6 -320 L-308.9 -320.5 L-307.2 -321 L-305.6 -321.5 L-303.9 -322 L-302.3 -322.5 L-300.6 -323 L-298.9 -323.5 L-297.3 -324 L-295.6 -324.5 L-294 -325 L-292.3 -325.5 L-290.7 -326 L-289 -326.5 L-287.3 -327 L-285.7 -327.5 L-285.2 -325.9 L-284.7 -324.2 L-284.2 -322.6 L-283.7 -320.9 L-283.2 -319.3 L-282.7 -317.6 L-282.1 -315.9 L-281.6 -314.3 L-281.1 -312.6 L-280.6 -311 L-280.1 -309.3 L-279.6 -307.6 L-279.1 -306 L-278.6 -304.3 L-278.1 -302.7 L-277.6 -301 L-277.1 -299.4 L-276.6 -297.7 L-276.1 -296 L-275.6 -294.4 L-275.1 -292.7 L-274.6 -291.1 L-274.1 -289.4 L-273.6 -287.7 L-273.1 -286.1 L-274.7 -285.6 L-276.4 -285.1 L-278 -284.6 L-279.7 -284.1 L-281.4 -283.6 L-283 -283.1 L-284.7 -282.6 L-286.3 -282.1 L-288 -281.5 L-289.6 -281 L-291.3 -280.5 L-293 -280 L-294.6 -279.5 L-296.3 -279 L-297.9 -278.5 L-299.6 -278 L-301.3 -277.5 L-302.9 -277 L-304.6 -276.5 L-306.2 -276 L-307.9 -275.5 L-309.5 -275 L-311.2 -274.5 L-312.9 -274 L-314.5 -273.5 Z " />
<path stroke="rgb(0,0,0)" stroke-opacity="0.5" fill="rgb(255,255,255)" fill-opacity="1" d="M124.9 0.1607 L124.8 2.135 L124.5 4.095 L124.1 6.029 L123.6 7.925 L122.8 9.772 L122 11.56 L121 13.27 L119.9 14.89 L118.6 16.43 L117.3 17.86 L115.8 19.17 L114.2 20.37 L112.6 21.44 L110.8 22.37 L109 23.16 L107.1 23.8 L105.2 24.29 L103.3 24.63 L101.3 24.81 L99.35 24.84 L97.37 24.71 L95.42 24.42 L93.49 23.98 L91.61 23.39 L89.78 22.65 L88.01 21.76 L86.32 20.74 L84.71 19.59 L83.2 18.31 L81.8 16.92 L80.52 15.42 L79.35 13.82 L78.32 12.14 L77.42 10.38 L76.67 8.551 L76.06 6.67 L75.61 4.747 L75.31 2.794 L75.17 0.8233 L75.18 -1.153 L75.35 -3.121 L75.67 -5.07 L76.15 -6.987 L76.78 -8.86 L77.56 -10.68 L78.48 -12.43 L79.53 -14.1 L80.72 -15.68 L82.03 -17.16 L83.45 -18.53 L84.97 -19.79 L86.59 -20.92 L88.29 -21.92 L90.07 -22.78 L91.91 -23.5 L93.81 -24.07 L95.74 -24.48 L97.7 -24.75 L99.67 -24.85 L101.6 -24.8 L103.6 -24.59 L105.6 -24.22 L107.5 -23.71 L109.3 -23.04 L111.1 -22.23 L112.9 -21.27 L114.5 -20.18 L116.1 -18.97 L117.5 -17.63 L118.9 -16.19 L120.1 -14.64 L121.2 -12.99 L122.2 -11.27 L123 -9.476 L123.7 -7.62 L124.2 -5.717 L124.6 -3.777 L124.8 -1.814 L124.9 0.1607 Z " />
<path stroke="rgb(0,0,0)" stroke-opacity="1" fill="rgb(255,255,255)" fill-opacity="1" d="M-123.6 -275.4 L-123.6 -277.3 L-123.7 -279.3 L-123.8 -281.2 L-123.8 -283.2 L-123.9 -285.1 L-123.9 -287.1 L-124 -289 L-124.1 -291 L-124.1 -292.9 L-124.2 -294.9 L-124.3 -296.8 L-124.3 -298.8 L-124.4 -300.7 L-124.4 -302.6 L-124.5 -304.6 L-124.6 -306.5 L-124.6 -308.5 L-124.7 -310.4 L-124.7 -312.4 L-124.8 -314.3 L-124.9 -316.3 L-124.9 -318.2 L-125 -320.2 L-125 -322.1 L-125.1 -324.1 L-123.2 -324.1 L-121.2 -324.2 L-119.3 -324.2 L-117.3 -324.3 L-115.4 -324.4 L-113.4 -324.4 L-111.5 -324.5 L-109.5 -324.6 L-107.6 -324.6 L-105.6 -324.7 L-103.7 -324.7 L-101.7 -324.8 L-99.8 -324.9 L-97.85 -324.9 L-95.9 -325 L-93.96 -325 L-92.01 -325.1 L-90.06 -325.2 L-88.11 -325.2 L-86.17 -325.3 L-84.22 -325.3 L-82.27 -325.4 L-80.33 -325.5 L-78.38 -325.5 L-76.43 -325.6 L-76.37 -323.6 L-76.31 -321.7 L-76.25 -319.7 L-76.19 -317.8 L-76.13 -315.9 L-76.07 -313.9 L-76.01 -312 L-75.95 -310 L-75.88 -308.1 L-75.82 -306.1 L-75.76 -304.2 L-75.7 -302.2 L-75.64 -300.3 L-75.58 -298.3 L-75.52 -296.4 L-75.46 -294.4 L-75.4 -292.5 L-75.34 -290.5 L-75.28 -288.6 L-75.21 -286.6 L-75.15 -284.7 L-75.09 -282.8 L-75.03 -280.8 L-74.97 -278.9 L-74.91 -276.9 L-76.86 -276.9 L-78.8 -276.8 L-80.75 -276.7 L-82.7 -276.7 L-84.64 -276.6 L-86.59 -276.5 L-88.54 -276.5 L-90.48 -276.4 L-92.43 -276.4 L-94.38 -276.3 L-96.33 -276.2 L-98.27 -276.2 L-100.2 -276.1 L-102.2 -276.1 L-104.1 -276 L-106.1 -275.9 L-108 -275.9 L-110 -275.8 L-111.9 -275.8 L-113.8 -275.7 L-115.8 -275.6 L-117.7 -275.6 L-119.7 -275.5 L-121.6 -275.5 L-123.6 -275.4 Z " />
<path stroke="rgb(0,0,0)" stroke-opacity="0.5" fill="rgb(255,255,255)" fill-opacity="1" d="M324.9 0.1607 L324.8 2.135 L324.5 4.095 L324.1 6.029 L323.6 7.925 L322.8 9.772 L322 11.56 L321 13.27 L319.9 14.89 L318.6 16.43 L317.3 17.86 L315.8 19.17 L314.2 20.37 L312.6 21.44 L310.8 22.37 L309 23.16 L307.1 23.8 L305.2 24.29 L303.3 24.63 L301.3 24.81 L299.3 24.84 L297.4 24.71 L295.4 24.42 L293.5 23.98 L291.6 23.39 L289.8 22.65 L288 21.76 L286.3 20.74 L284.7 19.59 L283.2 18.31 L281.8 16.92 L280.5 15.42 L279.4 13.82 L278.3 12.14 L277.4 10.38 L276.7 8.551 L276.1 6.67 L275.6 4.747 L275.3 2.794 L275.2 0.8233 L275.2 -1.153 L275.3 -3.121 L275.7 -5.07 L276.2 -6.987 L276.8 -8.86 L277.6 -10.68 L278.5 -12.43 L279.5 -14.1 L280.7 -15.68 L282 -17.16 L283.4 -18.53 L285 -19.79 L286.6 -20.92 L288.3 -21.92 L290.1 -22.78 L291.9 -23.5 L293.8 -24.07 L295.7 -24.48 L297.7 -24.75 L299.7 -24.85 L301.6 -24.8 L303.6 -24.59 L305.6 -24.22 L307.5 -23.71 L309.3 -23.04 L311.1 -22.23 L312.9 -21.27 L314.5 -20.18 L316.1 -18.97 L317.5 -17.63 L318.9 -16.19 L320.1 -14.64 L321.2 -12.99 L322.2 -11.27 L323 -9.476 L323.7 -7.62 L324.2 -5.717 L324.6 -3.777 L324.8 -1.814 L324.9 0.1607 Z " />
<path stroke="rgb(0,0,0)" stroke-opacity="1" fill="rgb(255,255,255)" fill-opacity="1" d="M-596 -178.2 L-597.1 -178.9 L-598.2 -179.6 L-599.2 -180.3 L-600.3 -181.1 L-601.3 -181.8 L-602.4 -182.5 L-603.5 -183.2 L-604.5 -183.9 L-605.6 -184.7 L-606.7 -185.4 L-607.7 -186.1 L-608.8 -186.8 L-609.8 -187.6 L-610.9 -188.3 L-612 -189 L-613 -189.7 L-614.1 -190.4 L-615.1 -191.2 L-616.2 -191.9 L-617.3 -192.6 L-618.3 -193.3 L-619.4 -194 L-620.5 -194.8 L-621.5 -195.5 L-622.6 -196.2 L-621.9 -197.3 L-621.1 -198.3 L-620.4 -199.4 L-619.7 -200.5 L-619 -201.5 L-618.2 -202.6 L-617.5 -203.6 L-616.8 -204.7 L-616.1 -205.8 L-615.4 -206.8 L-614.6 -207.9 L-613.9 -209 L-613.2 -210 L-612.5 -211.1 L-611.8 -212.1 L-611 -213.2 L-610.3 -214.3 L-609.6 -215.3 L-608.9 -216.4 L-608.1 -217.5 L-607.4 -218.5 L-606.7 -219.6 L-606 -220.6 L-605.3 -221.7 L-604.5 -222.8 L-603.5 -222 L-602.4 -221.3 L-601.3 -220.6 L-600.3 -219.9 L-599.2 -219.2 L-598.2 -218.4 L-597.1 -217.7 L-596 -217 L-595 -216.3 L-593.9 -215.5 L-592.8 -214.8 L-591.8 -214.1 L-590.7 -213.4 L-589.7 -212.7 L-588.6 -211.9 L-587.5 -211.2 L-586.5 -210.5 L-585.4 -209.8 L-584.4 -209 L-583.3 -208.3 L-582.2 -207.6 L-581.2 -206.9 L-580.1 -206.2 L-579 -205.4 L-578 -204.7 L-578.7 -203.6 L-579.4 -202.6 L-580.2 -201.5 L-580.9 -200.5 L-581.6 -199.4 L-582.3 -198.3 L-583 -197.3 L-583.8 -196.2 L-584.5 -195.2 L-585.2 -194.1 L-585.9 -193 L-586.6 -192 L-587.4 -190.9 L-588.1 -189.8 L-588.8 -188.8 L-589.5 -187.7 L-590.3 -186.7 L-591 -185.6 L-591.7 -184.5 L-592.4 -183.5 L-593.1 -182.4 L-593.9 -181.3 L-594.6 -180.3 L-595.3 -179.2 L-596 -178.2 Z " />
<path stroke="rgb(0,0,0)" stroke-opacity="0.5" fill="rgb(255,255,255)" fill-opacity="1" d="M-175.1 100.2 L-175.2 102.1 L-175.5 104.1 L-175.9 106 L-176.4 107.9 L-177.2 109.8 L-178 111.6 L-179 113.3 L-180.1 114.9 L-181.4 116.4 L-182.7 117.9 L-184.2 119.2 L-185.8 120.4 L-187.4 121.4 L-189.2 122.4 L-191 123.2 L-192.9 123.8 L-194.8 124.3 L-196.7 124.6 L-198.7 124.8 L-200.7 124.8 L-202.6 124.7 L-204.6 124.4 L-206.5 124 L-208.4 123.4 L-210.2 122.6 L-212 121.8 L-213.7 120.7 L-215.3 119.6 L-216.8 118.3 L-218.2 116.9 L-219.5 115.4 L-220.6 113.8 L-221.7 112.1 L-222.6 110.4 L-223.3 108.6 L-223.9 106.7 L-224.4 104.7 L-224.7 102.8 L-224.8 100.8 L-224.8 98.85 L-224.7 96.88 L-224.3 94.93 L-223.8 93.01 L-223.2 91.14 L-222.4 89.32 L-221.5 87.57 L-220.5 85.9 L-219.3 84.32 L-218 82.84 L-216.6 81.47 L-215 80.21 L-213.4 79.08 L-211.7 78.08 L-209.9 77.22 L-208.1 76.5 L-206.2 75.93 L-204.3 75.52 L-202.3 75.25 L-200.3 75.15 L-198.4 75.2 L-196.4 75.41 L-194.4 75.78 L-192.5 76.29 L-190.7 76.96 L-188.9 77.77 L-187.1 78.73 L-185.5 79.82 L-183.9 81.03 L-182.5 82.37 L-181.1 83.81 L-179.9 85.36 L-178.8 87.01 L-177.8 88.73 L-177 90.52 L-176.3 92.38 L-175.8 94.28 L-175.4 96.22 L-175.2 98.19 L-175.1 100.2 Z " />
<path stroke="rgb(0,0,0)" stroke-opacity="1" fill="rgb(255,255,255)" fill-opacity="1" d="M-414.5 -173.5 L-415 -175.1 L-415.5 -176.8 L-416 -178.4 L-416.5 -180.1 L-417 -181.8 L-417.5 -183.4 L-418 -185.1 L-418.6 -186.7 L-419.1 -188.4 L-419.6 -190.1 L-420.1 -191.7 L-420.6 -193.4 L-421.1 -195 L-421.6 -196.7 L-422.1 -198.3 L-422.6 -200 L-423.1 -201.7 L-423.6 -203.3 L-424.1 -205 L-424.6 -206.6 L-425.1 -208.3 L-425.6 -210 L-426.1 -211.6 L-426.6 -213.3 L-427.1 -214.9 L-425.5 -215.4 L-423.8 -215.9 L-422.2 -216.4 L-420.5 -216.9 L-418.8 -217.4 L-417.2 -218 L-415.5 -218.5 L-413.9 -219 L-412.2 -219.5 L-410.6 -220 L-408.9 -220.5 L-407.2 -221 L-405.6 -221.5 L-403.9 -222 L-402.3 -222.5 L-400.6 -223 L-398.9 -223.5 L-397.3 -224 L-395.6 -224.5 L-394 -225 L-392.3 -225.5 L-390.7 -226 L-389 -226.5 L-387.3 -227 L-385.7 -227.5 L-385.2 -225.9 L-384.7 -224.2 L-384.2 -222.6 L-383.7 -220.9 L-383.2 -219.3 L-382.7 -217.6 L-382.1 -215.9 L-381.6 -214.3 L-381.1 -212.6 L-380.6 -211 L-380.1 -209.3 L-379.6 -207.6 L-379.1 -206 L-378.6 -204.3 L-378.1 -202.7 L-377.6 -201 L-377.1 -199.4 L-376.6 -197.7 L-376.1 -196 L-375.6 -194.4 L-375.1 -192.7 L-374.6 -191.1 L-374.1 -189.4 L-373.6 -187.7 L-373.1 -186.1 L-374.7 -185.6 L-376.4 -185.1 L-378 -184.6 L-379.7 -184.1 L-381.4 -183.6 L-383 -183.1 L-384.7 -182.6 L-386.3 -182.1 L-388 -181.5 L-389.6 -181 L-391.3 -180.5 L-393 -180 L-394.6 -179.5 L-396.3 -179 L-397.9 -178.5 L-399.6 -178 L-401.3 -177.5 L-402.9 -177 L-404.6 -176.5 L-406.2 -176 L-407.9 -175.5 L-409.5 -175 L-411.2 -174.5 L-412.9 -174 L-414.5 -173.5 Z " />
<path stroke="rgb(0,0,0)" stroke-opacity="0.5" fill="rgb(255,255,255)" fill-opacity="1" d="M24.85 100.2 L24.76 102.1 L24.51 104.1 L24.11 106 L23.55 107.9 L22.85 109.8 L22 111.6 L21.01 113.3 L19.89 114.9 L18.65 116.4 L17.28 117.9 L15.81 119.2 L14.23 120.4 L12.57 121.4 L10.83 122.4 L9.017 123.2 L7.148 123.8 L5.235 124.3 L3.288 124.6 L1.321 124.8 L-0.6549 124.8 L-2.627 124.7 L-4.581 124.4 L-6.507 124 L-8.392 123.4 L-10.22 122.6 L-11.99 121.8 L-13.68 120.7 L-15.29 119.6 L-16.8 118.3 L-18.2 116.9 L-19.48 115.4 L-20.65 113.8 L-21.68 112.1 L-22.58 110.4 L-23.33 108.6 L-23.94 106.7 L-24.39 104.7 L-24.69 102.8 L-24.83 100.8 L-24.82 98.85 L-24.65 96.88 L-24.33 94.93 L-23.85 93.01 L-23.22 91.14 L-22.44 89.32 L-21.52 87.57 L-20.47 85.9 L-19.28 84.32 L-17.97 82.84 L-16.55 81.47 L-15.03 80.21 L-13.41 79.08 L-11.71 78.08 L-9.927 77.22 L-8.085 76.5 L-6.193 75.93 L-4.261 75.52 L-2.303 75.25 L-0.3295 75.15 L1.646 75.2 L3.611 75.41 L5.553 75.78 L7.46 76.29 L9.319 76.96 L11.12 77.77 L12.85 78.73 L14.5 79.82 L16.06 81.03 L17.51 82.37 L18.86 83.81 L20.09 85.36 L21.18 87.01 L22.15 88.73 L22.98 90.52 L23.66 92.38 L24.19 94.28 L24.56 96.22 L24.79 98.19 L24.85 100.2 Z " />
<path stroke="rgb(0,0,0)" stroke-opacity="1" fill="rgb(255,255,255)" fill-opacity="1" d="M-223.6 -175.4 L-223.6 -177.3 L-223.7 -179.3 L-223.8 -181.2 L-223.8 -183.2 L-223.9 -185.1 L-223.9 -187.1 L-224 -189 L-224.1 -191 L-224.1 -192.9 L-224.2 -194.9 L-224.3 -196.8 L-224.3 -198.8 L-224.4 -200.7 L-224.4 -202.6 L-224.5 -204.6 L-224.6 -206.5 L-224.6 -208.5 L-224.7 -210.4 L-224.7 -212.4 L-224.8 -214.3 L-224.9 -216.3 L-224.9 -218.2 L-225 -220.2 L-225 -222.1 L-225.1 -224.1 L-223.2 -224.1 L-221.2 -224.2 L-219.3 -224.2 L-217.3 -224.3 L-215.4 -224.4 L-213.4 -224.4 L-211.5 -224.5 L-209.5 -224.6 L-207.6 -224.6 L-205.6 -224.7 L-203.7 -224.7 L-201.7 -224.8 L-199.8 -224.9 L-197.8 -224.9 L-195.9 -225 L-194 -225 L-192 -225.1 L-190.1 -225.2 L-188.1 -225.2 L-186.2 -225.3 L-184.2 -225.3 L-182.3 -225.4 L-180.3 -225.5 L-178.4 -225.5 L-176.4 -225.6 L-176.4 -223.6 L-176.3 -221.7 L-176.3 -219.7 L-176.2 -217.8 L-176.1 -215.9 L-176.1 -213.9 L-176 -212 L-175.9 -210 L-175.9 -208.1 L-175.8 -206.1 L-175.8 -204.2 L-175.7 -202.2 L-175.6 -200.3 L-175.6 -198.3 L-175.5 -196.4 L-175.5 -194.4 L-175.4 -192.5 L-175.3 -190.5 L-175.3 -188.6 L-175.2 -186.6 L-175.2 -184.7 L-175.1 -182.8 L-175 -180.8 L-175 -178.9 L-174.9 -176.9 L-176.9 -176.9 L-178.8 -176.8 L-180.8 -176.7 L-182.7 -176.7 L-184.6 -176.6 L-186.6 -176.5 L-188.5 -176.5 L-190.5 -176.4 L-192.4 -176.4 L-194.4 -176.3 L-196.3 -176.2 L-198.3 -176.2 L-200.2 -176.1 L-202.2 -176.1 L-204.1 -176 L-206.1 -175.9 L-208 -175.9 L-210 -175.8 L-211.9 -175.8 L-213.8 -175.7 L-215.8 -175.6 L-217.7 -175.6 L-219.7 -175.5 L-221.6 -175.5 L-223.6 -175.4 Z " />
<path stroke="rgb(0,0,0)" stroke-opacity="0.5" fill="rgb(255,255,255)" fill-opacity="1" d="M224.9 100.2 L224.8 102.1 L224.5 104.1 L224.1 106 L223.6 107.9 L222.8 109.8 L222 111.6 L221 113.3 L219.9 114.9 L218.6 116.4 L217.3 117.9 L215.8 119.2 L214.2 120.4 L212.6 121.4 L210.8 122.4 L209 123.2 L207.1 123.8 L205.2 124.3 L203.3 124.6 L201.3 124.8 L199.3 124.8 L197.4 124.7 L195.4 124.4 L193.5 124 L191.6 123.4 L189.8 122.6 L188 121.8 L186.3 120.7 L184.7 119.6 L183.2 118.3 L181.8 116.9 L180.5 115.4 L179.4 113.8 L178.3 112.1 L177.4 110.4 L176.7 108.6 L176.1 106.7 L175.6 104.7 L175.3 102.8 L175.2 100.8 L175.2 98.85 L175.3 96.88 L175.7 94.93 L176.2 93.01 L176.8 91.14 L177.6 89.32 L178.5 87.57 L179.5 85.9 L180.7 84.32 L182 82.84 L183.4 81.47 L185 80.21 L186.6 79.08 L188.3 78.08 L190.1 77.22 L191.9 76.5 L193.8 75.93 L195.7 75.52 L197.7 75.25 L199.7 75.15 L201.6 75.2 L203.6 75.41 L205.6 75.78 L207.5 76.29 L209.3 76.96 L211.1 77.77 L212.9 78.73 L214.5 79.82 L216.1 81.03 L217.5 82.37 L218.9 83.81 L220.1 85.36 L221.2 87.01 L222.2 88.73 L223 90.52 L223.7 92.38 L224.2 94.28 L224.6 96.22 L224.8 98.19 L224.9 100.2 Z " />
<path stroke="rgb(0,0,0)" stroke-opacity="1" fill="rgb(255,255,255)" fill-opacity="1" d="M-24.91 -175.9 L-24.9 -177.9 L-24.89 -179.8 L-24.87 -181.8 L-24.86 -183.8 L-24.85 -185.8 L-24.83 -187.8 L-24.82 -189.8 L-24.81 -191.7 L-24.8 -193.7 L-24.78 -195.7 L-24.77 -197.7 L-24.76 -199.7 L-24.75 -201.6 L-24.73 -203.6 L-24.72 -205.6 L-24.71 -207.6 L-24.69 -209.6 L-24.68 -211.5 L-24.67 -213.5 L-24.66 -215.5 L-24.64 -217.5 L-24.63 -219.5 L-24.62 -221.4 L-24.61 -223.4 L-24.59 -225.4 L-22.61 -225.4 L-20.63 -225.4 L-18.65 -225.4 L-16.67 -225.4 L-14.69 -225.3 L-12.71 -225.3 L-10.73 -225.3 L-8.747 -225.3 L-6.767 -225.3 L-4.786 -225.3 L-2.806 -225.3 L-0.825 -225.2 L1.156 -225.2 L3.136 -225.2 L5.117 -225.2 L7.097 -225.2 L9.078 -225.2 L11.06 -225.2 L13.04 -225.2 L15.02 -225.1 L17 -225.1 L18.98 -225.1 L20.96 -225.1 L22.94 -225.1 L24.92 -225.1 L24.91 -223.1 L24.9 -221.1 L24.88 -219.1 L24.87 -217.2 L24.86 -215.2 L24.85 -213.2 L24.83 -211.2 L24.82 -209.2 L24.81 -207.3 L24.8 -205.3 L24.78 -203.3 L24.77 -201.3 L24.76 -199.3 L24.74 -197.4 L24.73 -195.4 L24.72 -193.4 L24.71 -191.4 L24.69 -189.4 L24.68 -187.5 L24.67 -185.5 L24.65 -183.5 L24.64 -181.5 L24.63 -179.5 L24.62 -177.5 L24.6 -175.6 L22.62 -175.6 L20.64 -175.6 L18.66 -175.6 L16.68 -175.6 L14.7 -175.6 L12.72 -175.6 L10.74 -175.7 L8.759 -175.7 L6.778 -175.7 L4.798 -175.7 L2.817 -175.7 L0.8364 -175.7 L-1.144 -175.7 L-3.125 -175.7 L-5.105 -175.8 L-7.086 -175.8 L-9.067 -175.8 L-11.05 -175.8 L-13.03 -175.8 L-15.01 -175.8 L-16.99 -175.8 L-18.97 -175.8 L-20.95 -175.9 L-22.93 -175.9 L-24.91 -175.9 Z " />
<path stroke="rgb(0,0,0)" stroke-opacity="0.5" fill="rgb(255,255,255)" fill-opacity="1" d="M-275.1 200.2 L-275.2 202.1 L-275.5 204.1 L-275.9 206 L-276.4 207.9 L-277.2 209.8 L-278 211.6 L-279 213.3 L-280.1 214.9 L-281.4 216.4 L-282.7 217.9 L-284.2 219.2 L-285.8 220.4 L-287.4 221.4 L-289.2 222.4 L-291 223.2 L-292.9 223.8 L-294.8 224.3 L-296.7 224.6 L-298.7 224.8 L-300.7 224.8 L-302.6 224.7 L-304.6 224.4 L-306.5 224 L-308.4 223.4 L-310.2 222.6 L-312 221.8 L-313.7 220.7 L-315.3 219.6 L-316.8 218.3 L-318.2 216.9 L-319.5 215.4 L-320.6 213.8 L-321.7 212.1 L-322.6 210.4 L-323.3 208.6 L-323.9 206.7 L-324.4 204.7 L-324.7 202.8 L-324.8 200.8 L-324.8 198.8 L-324.7 196.9 L-324.3 194.9 L-323.8 193 L-323.2 191.1 L-322.4 189.3 L-321.5 187.6 L-320.5 185.9 L-319.3 184.3 L-318 182.8 L-316.6 181.5 L-315 180.2 L-313.4 179.1 L-311.7 178.1 L-309.9 177.2 L-308.1 176.5 L-306.2 175.9 L-304.3 175.5 L-302.3 175.3 L-300.3 175.1 L-298.4 175.2 L-296.4 175.4 L-294.4 175.8 L-292.5 176.3 L-290.7 177 L-288.9 177.8 L-287.1 178.7 L-285.5 179.8 L-283.9 181 L-282.5 182.4 L-281.1 183.8 L-279.9 185.4 L-278.8 187 L-277.8 188.7 L-277 190.5 L-276.3 192.4 L-275.8 194.3 L-275.4 196.2 L-275.2 198.2 L-275.1 200.2 Z " />
<path stroke="rgb(0,0,0)" stroke-opacity="1" fill="rgb(255,255,255)" fill-opacity="1" d="M-514.5 -73.48 L-515 -75.13 L-515.5 -76.79 L-516 -78.45 L-516.5 -80.11 L-517 -81.77 L-517.5 -83.42 L-518 -85.08 L-518.6 -86.74 L-519.1 -88.4 L-519.6 -90.06 L-520.1 -91.71 L-520.6 -93.37 L-521.1 -95.03 L-521.6 -96.69 L-522.1 -98.35 L-522.6 -100 L-523.1 -101.7 L-523.6 -103.3 L-524.1 -105 L-524.6 -106.6 L-525.1 -108.3 L-525.6 -110 L-526.1 -111.6 L-526.6 -113.3 L-527.1 -114.9 L-525.5 -115.4 L-523.8 -115.9 L-522.2 -116.4 L-520.5 -116.9 L-518.8 -117.4 L-517.2 -118 L-515.5 -118.5 L-513.9 -119 L-512.2 -119.5 L-510.6 -120 L-508.9 -120.5 L-507.2 -121 L-505.6 -121.5 L-503.9 -122 L-502.3 -122.5 L-500.6 -123 L-498.9 -123.5 L-497.3 -124 L-495.6 -124.5 L-494 -125 L-492.3 -125.5 L-490.7 -126 L-489 -126.5 L-487.3 -127 L-485.7 -127.5 L-485.2 -125.9 L-484.7 -124.2 L-484.2 -122.6 L-483.7 -120.9 L-483.2 -119.3 L-482.7 -117.6 L-482.1 -115.9 L-481.6 -114.3 L-481.1 -112.6 L-480.6 -111 L-480.1 -109.3 L-479.6 -107.6 L-479.1 -106 L-478.6 -104.3 L-478.1 -102.7 L-477.6 -101 L-477.1 -99.36 L-476.6 -97.7 L-476.1 -96.04 L-475.6 -94.38 L-475.1 -92.72 L-474.6 -91.07 L-474.1 -89.41 L-473.6 -87.75 L-473.1 -86.09 L-474.7 -85.59 L-476.4 -85.08 L-478 -84.58 L-479.7 -84.07 L-481.4 -83.57 L-483 -83.06 L-484.7 -82.56 L-486.3 -82.05 L-488 -81.55 L-489.6 -81.05 L-491.3 -80.54 L-493 -80.04 L-494.6 -79.53 L-496.3 -79.03 L-497.9 -78.52 L-499.6 -78.02 L-501.3 -77.51 L-502.9 -77.01 L-504.6 -76.5 L-506.2 -76 L-507.9 -75.49 L-509.5 -74.99 L-511.2 -74.48 L-512.9 -73.98 L-514.5 -73.48 Z " />
<path stroke="rgb(0,0,0)" stroke-opacity="0.5" fill="rgb(255,255,255)" fill-opacity="1" d="M-75.15 200.2 L-75.24 202.1 L-75.49 204.1 L-75.89 206 L-76.45 207.9 L-77.15 209.8 L-78 211.6 L-78.99 213.3 L-80.11 214.9 L-81.35 216.4 L-82.72 217.9 L-84.19 219.2 L-85.77 220.4 L-87.43 221.4 L-89.17 222.4 L-90.98 223.2 L-92.85 223.8 L-94.77 224.3 L-96.71 224.6 L-98.68 224.8 L-100.7 224.8 L-102.6 224.7 L-104.6 224.4 L-106.5 224 L-108.4 223.4 L-110.2 222.6 L-112 221.8 L-113.7 220.7 L-115.3 219.6 L-116.8 218.3 L-118.2 216.9 L-119.5 215.4 L-120.6 213.8 L-121.7 212.1 L-122.6 210.4 L-123.3 208.6 L-123.9 206.7 L-124.4 204.7 L-124.7 202.8 L-124.8 200.8 L-124.8 198.8 L-124.7 196.9 L-124.3 194.9 L-123.8 193 L-123.2 191.1 L-122.4 189.3 L-121.5 187.6 L-120.5 185.9 L-119.3 184.3 L-118 182.8 L-116.6 181.5 L-115 180.2 L-113.4 179.1 L-111.7 178.1 L-109.9 177.2 L-108.1 176.5 L-106.2 175.9 L-104.3 175.5 L-102.3 175.3 L-100.3 175.1 L-98.35 175.2 L-96.39 175.4 L-94.45 175.8 L-92.54 176.3 L-90.68 177 L-88.88 177.8 L-87.15 178.7 L-85.5 179.8 L-83.94 181 L-82.49 182.4 L-81.14 183.8 L-79.91 185.4 L-78.82 187 L-77.85 188.7 L-77.02 190.5 L-76.34 192.4 L-75.81 194.3 L-75.44 196.2 L-75.21 198.2 L-75.15 200.2 Z " />
<path stroke="rgb(0,0,0)" stroke-opacity="1" fill="rgb(255,255,255)" fill-opacity="1" d="M-323.6 -75.39 L-323.6 -77.34 L-323.7 -79.29 L-323.8 -81.23 L-323.8 -83.18 L-323.9 -85.13 L-323.9 -87.07 L-324 -89.02 L-324.1 -90.97 L-324.1 -92.91 L-324.2 -94.86 L-324.3 -96.81 L-324.3 -98.75 L-324.4 -100.7 L-324.4 -102.6 L-324.5 -104.6 L-324.6 -106.5 L-324.6 -108.5 L-324.7 -110.4 L-324.7 -112.4 L-324.8 -114.3 L-324.9 -116.3 L-324.9 -118.2 L-325 -120.2 L-325 -122.1 L-325.1 -124.1 L-323.2 -124.1 L-321.2 -124.2 L-319.3 -124.2 L-317.3 -124.3 L-315.4 -124.4 L-313.4 -124.4 L-311.5 -124.5 L-309.5 -124.6 L-307.6 -124.6 L-305.6 -124.7 L-303.7 -124.7 L-301.7 -124.8 L-299.8 -124.9 L-297.8 -124.9 L-295.9 -125 L-294 -125 L-292 -125.1 L-290.1 -125.2 L-288.1 -125.2 L-286.2 -125.3 L-284.2 -125.3 L-282.3 -125.4 L-280.3 -125.5 L-278.4 -125.5 L-276.4 -125.6 L-276.4 -123.6 L-276.3 -121.7 L-276.3 -119.7 L-276.2 -117.8 L-276.1 -115.9 L-276.1 -113.9 L-276 -112 L-275.9 -110 L-275.9 -108.1 L-275.8 -106.1 L-275.8 -104.2 L-275.7 -102.2 L-275.6 -100.3 L-275.6 -98.33 L-275.5 -96.38 L-275.5 -94.44 L-275.4 -92.49 L-275.3 -90.54 L-275.3 -88.6 L-275.2 -86.65 L-275.2 -84.7 L-275.1 -82.76 L-275 -80.81 L-275 -78.86 L-274.9 -76.91 L-276.9 -76.85 L-278.8 -76.79 L-280.8 -76.73 L-282.7 -76.67 L-284.6 -76.61 L-286.6 -76.55 L-288.5 -76.49 L-290.5 -76.43 L-292.4 -76.37 L-294.4 -76.31 L-296.3 -76.24 L-298.3 -76.18 L-300.2 -76.12 L-302.2 -76.06 L-304.1 -76 L-306.1 -75.94 L-308 -75.88 L-310 -75.82 L-311.9 -75.76 L-313.8 -75.7 L-315.8 -75.64 L-317.7 -75.57 L-319.7 -75.51 L-321.6 -75.45 L-323.6 -75.39 Z " />
<path stroke="rgb(0,0,0)" stroke-opacity="0.5" fill="rgb(255,255,255)" fill-opacity="1" d="M124.9 200.2 L124.8 202.1 L124.5 204.1 L124.1 206 L123.6 207.9 L122.8 209.8 L122 211.6 L121 213.3 L119.9 214.9 L118.6 216.4 L117.3 217.9 L115.8 219.2 L114.2 220.4 L112.6 221.4 L110.8 222.4 L109 223.2 L107.1 223.8 L105.2 224.3 L103.3 224.6 L101.3 224.8 L99.35 224.8 L97.37 224.7 L95.42 224.4 L93.49 224 L91.61 223.4 L89.78 222.6 L88.01 221.8 L86.32 220.7 L84.71 219.6 L83.2 218.3 L81.8 216.9 L80.52 215.4 L79.35 213.8 L78.32 212.1 L77.42 210.4 L76.67 208.6 L76.06 206.7 L75.61 204.7 L75.31 202.8 L75.17 200.8 L75.18 198.8 L75.35 196.9 L75.67 194.9 L76.15 193 L76.78 191.1 L77.56 189.3 L78.48 187.6 L79.53 185.9 L80.72 184.3 L82.03 182.8 L83.45 181.5 L84.97 180.2 L86.59 179.1 L88.29 178.1 L90.07 177.2 L91.91 176.5 L93.81 175.9 L95.74 175.5 L97.7 175.3 L99.67 175.1 L101.6 175.2 L103.6 175.4 L105.6 175.8 L107.5 176.3 L109.3 177 L111.1 177.8 L112.9 178.7 L114.5 179.8 L116.1 181 L117.5 182.4 L118.9 183.8 L120.1 185.4 L121.2 187 L122.2 188.7 L123 190.5 L123.7 192.4 L124.2 194.3 L124.6 196.2 L124.8 198.2 L124.9 200.2 Z " />
<path stroke="rgb(0,0,0)" stroke-opacity="1" fill="rgb(255,255,255)" fill-opacity="1" d="M-124.9 -75.89 L-124.9 -77.87 L-124.9 -79.85 L-124.9 -81.83 L-124.9 -83.81 L-124.8 -85.79 L-124.8 -87.77 L-124.8 -89.75 L-124.8 -91.73 L-124.8 -93.71 L-124.8 -95.69 L-124.8 -97.67 L-124.8 -99.65 L-124.7 -101.6 L-124.7 -103.6 L-124.7 -105.6 L-124.7 -107.6 L-124.7 -109.6 L-124.7 -111.5 L-124.7 -113.5 L-124.7 -115.5 L-124.6 -117.5 L-124.6 -119.5 L-124.6 -121.4 L-124.6 -123.4 L-124.6 -125.4 L-122.6 -125.4 L-120.6 -125.4 L-118.7 -125.4 L-116.7 -125.4 L-114.7 -125.3 L-112.7 -125.3 L-110.7 -125.3 L-108.7 -125.3 L-106.8 -125.3 L-104.8 -125.3 L-102.8 -125.3 L-100.8 -125.2 L-98.84 -125.2 L-96.86 -125.2 L-94.88 -125.2 L-92.9 -125.2 L-90.92 -125.2 L-88.94 -125.2 L-86.96 -125.2 L-84.98 -125.1 L-83 -125.1 L-81.02 -125.1 L-79.04 -125.1 L-77.06 -125.1 L-75.08 -125.1 L-75.09 -123.1 L-75.1 -121.1 L-75.12 -119.1 L-75.13 -117.2 L-75.14 -115.2 L-75.15 -113.2 L-75.17 -111.2 L-75.18 -109.2 L-75.19 -107.3 L-75.2 -105.3 L-75.22 -103.3 L-75.23 -101.3 L-75.24 -99.33 L-75.26 -97.35 L-75.27 -95.37 L-75.28 -93.39 L-75.29 -91.41 L-75.31 -89.43 L-75.32 -87.45 L-75.33 -85.47 L-75.35 -83.49 L-75.36 -81.51 L-75.37 -79.53 L-75.38 -77.55 L-75.4 -75.57 L-77.38 -75.58 L-79.36 -75.59 L-81.34 -75.61 L-83.32 -75.62 L-85.3 -75.63 L-87.28 -75.64 L-89.26 -75.66 L-91.24 -75.67 L-93.22 -75.68 L-95.2 -75.7 L-97.18 -75.71 L-99.16 -75.72 L-101.1 -75.73 L-103.1 -75.75 L-105.1 -75.76 L-107.1 -75.77 L-109.1 -75.78 L-111 -75.8 L-113 -75.81 L-115 -75.82 L-117 -75.84 L-119 -75.85 L-121 -75.86 L-122.9 -75.87 L-124.9 -75.89 Z " />
<path stroke="rgb(0,0,0)" stroke-opacity="0.5" fill="rgb(255,255,255)" fill-opacity="1" d="M324.9 200.2 L324.8 202.1 L324.5 204.1 L324.1 206 L323.6 207.9 L322.8 209.8 L322 211.6 L321 213.3 L319.9 214.9 L318.6 216.4 L317.3 217.9 L315.8 219.2 L314.2 220.4 L312.6 221.4 L310.8 222.4 L309 223.2 L307.1 223.8 L305.2 224.3 L303.3 224.6 L301.3 224.8 L299.3 224.8 L297.4 224.7 L295.4 224.4 L293.5 224 L291.6 223.4 L289.8 222.6 L288 221.8 L286.3 220.7 L284.7 219.6 L283.2 218.3 L281.8 216.9 L280.5 215.4 L279.4 213.8 L278.3 212.1 L277.4 210.4 L276.7 208.6 L276.1 206.7 L275.6 204.7 L275.3 202.8 L275.2 200.8 L275.2 198.8 L275.3 196.9 L275.7 194.9 L276.2 193 L276.8 191.1 L277.6 189.3 L278.5 187.6 L279.5 185.9 L280.7 184.3 L282 182.8 L283.4 181.5 L285 180.2 L286.6 179.1 L288.3 178.1 L290.1 177.2 L291.9 176.5 L293.8 175.9 L295.7 175.5 L297.7 175.3 L299.7 175.1 L301.6 175.2 L303.6 175.4 L305.6 175.8 L307.5 176.3 L309.3 177 L311.1 177.8 L312.9 178.7 L314.5 179.8 L316.1 181 L317.5 182.4 L318.9 183.8 L320.1 185.4 L321.2 187 L322.2 188.7 L323 190.5 L323.7 192.4 L324.2 194.3 L324.6 196.2 L324.8 198.2 L324.9 200.2 Z " />
<path stroke="rgb(0,0,0)" stroke-opacity="1" fill="rgb(255,255,255)" fill-opacity="1" d="M-614.5 26.52 L-615 24.87 L-615.5 23.21 L-616 21.55 L-616.5 19.89 L-617 18.23 L-617.5 16.58 L-618 14.92 L-618.6 13.26 L-619.1 11.6 L-619.6 9.944 L-620.1 8.286 L-620.6 6.628 L-621.1 4.97 L-621.6 3.312 L-622.1 1.654 L-622.6 -0.003544 L-623.1 -1.662 L-623.6 -3.32 L-624.1 -4.978 L-624.6 -6.636 L-625.1 -8.294 L-625.6 -9.952 L-626.1 -11.61 L-626.6 -13.27 L-627.1 -14.93 L-625.5 -15.43 L-623.8 -15.93 L-622.2 -16.44 L-620.5 -16.94 L-618.8 -17.45 L-617.2 -17.95 L-615.5 -18.46 L-613.9 -18.96 L-612.2 -19.47 L-610.6 -19.97 L-608.9 -20.48 L-607.2 -20.98 L-605.6 -21.49 L-603.9 -21.99 L-602.3 -22.5 L-600.6 -23 L-598.9 -23.5 L-597.3 -24.01 L-595.6 -24.51 L-594 -25.02 L-592.3 -25.52 L-590.7 -26.03 L-589 -26.53 L-587.3 -27.04 L-585.7 -27.54 L-585.2 -25.88 L-584.7 -24.23 L-584.2 -22.57 L-583.7 -20.91 L-583.2 -19.25 L-582.7 -17.59 L-582.1 -15.94 L-581.6 -14.28 L-581.1 -12.62 L-580.6 -10.96 L-580.1 -9.304 L-579.6 -7.646 L-579.1 -5.988 L-578.6 -4.33 L-578.1 -2.672 L-577.6 -1.014 L-577.1 0.6441 L-576.6 2.302 L-576.1 3.96 L-575.6 5.618 L-575.1 7.276 L-574.6 8.934 L-574.1 10.59 L-573.6 12.25 L-573.1 13.91 L-574.7 14.41 L-576.4 14.92 L-578 15.42 L-579.7 15.93 L-581.4 16.43 L-583 16.94 L-584.7 17.44 L-586.3 17.95 L-588 18.45 L-589.6 18.95 L-591.3 19.46 L-593 19.96 L-594.6 20.47 L-596.3 20.97 L-597.9 21.48 L-599.6 21.98 L-601.3 22.49 L-602.9 22.99 L-604.6 23.5 L-606.2 24 L-607.9 24.51 L-609.5 25.01 L-611.2 25.52 L-612.9 26.02 L-614.5 26.52 Z " />
<path stroke="rgb(0,0,0)" stroke-opacity="0.5" fill="rgb(255,255,255)" fill-opacity="1" d="M-175.1 300.2 L-175.2 302.1 L-175.5 304.1 L-175.9 306 L-176.4 307.9 L-177.2 309.8 L-178 311.6 L-179 313.3 L-180.1 314.9 L-181.4 316.4 L-182.7 317.9 L-184.2 319.2 L-185.8 320.4 L-187.4 321.4 L-189.2 322.4 L-191 323.2 L-192.9 323.8 L-194.8 324.3 L-196.7 324.6 L-198.7 324.8 L-200.7 324.8 L-202.6 324.7 L-204.6 324.4 L-206.5 324 L-208.4 323.4 L-210.2 322.6 L-212 321.8 L-213.7 320.7 L-215.3 319.6 L-216.8 318.3 L-218.2 316.9 L-219.5 315.4 L-220.6 313.8 L-221.7 312.1 L-222.6 310.4 L-223.3 308.6 L-223.9 306.7 L-224.4 304.7 L-224.7 302.8 L-224.8 300.8 L-224.8 298.8 L-224.7 296.9 L-224.3 294.9 L-223.8 293 L-223.2 291.1 L-222.4 289.3 L-221.5 287.6 L-220.5 285.9 L-219.3 284.3 L-218 282.8 L-216.6 281.5 L-215 280.2 L-213.4 279.1 L-211.7 278.1 L-209.9 277.2 L-208.1 276.5 L-206.2 275.9 L-204.3 275.5 L-202.3 275.3 L-200.3 275.1 L-198.4 275.2 L-196.4 275.4 L-194.4 275.8 L-192.5 276.3 L-190.7 277 L-188.9 277.8 L-187.1 278.7 L-185.5 279.8 L-183.9 281 L-182.5 282.4 L-181.1 283.8 L-179.9 285.4 L-178.8 287 L-177.8 288.7 L-177 290.5 L-176.3 292.4 L-175.8 294.3 L-175.4 296.2 L-175.2 298.2 L-175.1 300.2 Z " />
<path stroke="rgb(0,0,0)" stroke-opacity="1" fill="rgb(255,255,255)" fill-opacity="1" d="M-423.6 24.61 L-423.6 22.66 L-423.7 20.71 L-423.8 18.77 L-423.8 16.82 L-423.9 14.87 L-423.9 12.93 L-424 10.98 L-424.1 9.033 L-424.1 7.086 L-424.2 5.14 L-424.3 3.193 L-424.3 1.246 L-424.4 -0.7012 L-424.4 -2.648 L-424.5 -4.595 L-424.6 -6.542 L-424.6 -8.489 L-424.7 -10.44 L-424.7 -12.38 L-424.8 -14.33 L-424.9 -16.28 L-424.9 -18.22 L-425 -20.17 L-425 -22.12 L-425.1 -24.06 L-423.2 -24.13 L-421.2 -24.19 L-419.3 -24.25 L-417.3 -24.31 L-415.4 -24.37 L-413.4 -24.43 L-411.5 -24.49 L-409.5 -24.55 L-407.6 -24.61 L-405.6 -24.67 L-403.7 -24.73 L-401.7 -24.8 L-399.8 -24.86 L-397.8 -24.92 L-395.9 -24.98 L-394 -25.04 L-392 -25.1 L-390.1 -25.16 L-388.1 -25.22 L-386.2 -25.28 L-384.2 -25.34 L-382.3 -25.4 L-380.3 -25.47 L-378.4 -25.53 L-376.4 -25.59 L-376.4 -23.64 L-376.3 -21.69 L-376.3 -19.75 L-376.2 -17.8 L-376.1 -15.85 L-376.1 -13.91 L-376 -11.96 L-375.9 -10.01 L-375.9 -8.066 L-375.8 -6.119 L-375.8 -4.172 L-375.7 -2.225 L-375.6 -0.2779 L-375.6 1.669 L-375.5 3.616 L-375.5 5.563 L-375.4 7.51 L-375.3 9.457 L-375.3 11.4 L-375.2 13.35 L-375.2 15.3 L-375.1 17.24 L-375 19.19 L-375 21.14 L-374.9 23.09 L-376.9 23.15 L-378.8 23.21 L-380.8 23.27 L-382.7 23.33 L-384.6 23.39 L-386.6 23.45 L-388.5 23.51 L-390.5 23.57 L-392.4 23.63 L-394.4 23.69 L-396.3 23.76 L-398.3 23.82 L-400.2 23.88 L-402.2 23.94 L-404.1 24 L-406.1 24.06 L-408 24.12 L-410 24.18 L-411.9 24.24 L-413.8 24.3 L-415.8 24.36 L-417.7 24.43 L-419.7 24.49 L-421.6 24.55 L-423.6 24.61 Z " />
<path stroke="rgb(0,0,0)" stroke-opacity="0.5" fill="rgb(255,255,255)" fill-opacity="1" d="M24.85 300.2 L24.76 302.1 L24.51 304.1 L24.11 306 L23.55 307.9 L22.85 309.8 L22 311.6 L21.01 313.3 L19.89 314.9 L18.65 316.4 L17.28 317.9 L15.81 319.2 L14.23 320.4 L12.57 321.4 L10.83 322.4 L9.017 323.2 L7.148 323.8 L5.235 324.3 L3.288 324.6 L1.321 324.8 L-0.6549 324.8 L-2.627 324.7 L-4.581 324.4 L-6.507 324 L-8.392 323.4 L-10.22 322.6 L-11.99 321.8 L-13.68 320.7 L-15.29 319.6 L-16.8 318.3 L-18.2 316.9 L-19.48 315.4 L-20.65 313.8 L-21.68 312.1 L-22.58 310.4 L-23.33 308.6 L-23.94 306.7 L-24.39 304.7 L-24.69 302.8 L-24.83 300.8 L-24.82 298.8 L-24.65 296.9 L-24.33 294.9 L-23.85 293 L-23.22 291.1 L-22.44 289.3 L-21.52 287.6 L-20.47 285.9 L-19.28 284.3 L-17.97 282.8 L-16.55 281.5 L-15.03 280.2 L-13.41 279.1 L-11.71 278.1 L-9.927 277.2 L-8.085 276.5 L-6.193 275.9 L-4.261 275.5 L-2.303 275.3 L-0.3295 275.1 L1.646 275.2 L3.611 275.4 L5.553 275.8 L7.46 276.3 L9.319 277 L11.12 277.8 L12.85 278.7 L14.5 279.8 L16.06 281 L17.51 282.4 L18.86 283.8 L20.09 285.4 L21.18 287 L22.15 288.7 L22.98 290.5 L23.66 292.4 L24.19 294.3 L24.56 296.2 L24.79 298.2 L24.85 300.2 Z " />
<path stroke="rgb(0,0,0)" stroke-opacity="1" fill="rgb(255,255,255)" fill-opacity="1" d="M-224.9 24.11 L-224.9 22.13 L-224.9 20.15 L-224.9 18.17 L-224.9 16.19 L-224.8 14.21 L-224.8 12.23 L-224.8 10.25 L-224.8 8.269 L-224.8 6.288 L-224.8 4.307 L-224.8 2.327 L-224.8 0.3461 L-224.7 -1.634 L-224.7 -3.615 L-224.7 -5.596 L-224.7 -7.576 L-224.7 -9.557 L-224.7 -11.54 L-224.7 -13.52 L-224.7 -15.5 L-224.6 -17.48 L-224.6 -19.46 L-224.6 -21.44 L-224.6 -23.42 L-224.6 -25.4 L-222.6 -25.39 L-220.6 -25.38 L-218.7 -25.36 L-216.7 -25.35 L-214.7 -25.34 L-212.7 -25.33 L-210.7 -25.31 L-208.7 -25.3 L-206.8 -25.29 L-204.8 -25.27 L-202.8 -25.26 L-200.8 -25.25 L-198.8 -25.24 L-196.9 -25.22 L-194.9 -25.21 L-192.9 -25.2 L-190.9 -25.18 L-188.9 -25.17 L-187 -25.16 L-185 -25.15 L-183 -25.13 L-181 -25.12 L-179 -25.11 L-177.1 -25.1 L-175.1 -25.08 L-175.1 -23.1 L-175.1 -21.12 L-175.1 -19.14 L-175.1 -17.16 L-175.1 -15.18 L-175.2 -13.2 L-175.2 -11.22 L-175.2 -9.238 L-175.2 -7.257 L-175.2 -5.277 L-175.2 -3.296 L-175.2 -1.315 L-175.2 0.6653 L-175.3 2.646 L-175.3 4.627 L-175.3 6.607 L-175.3 8.588 L-175.3 10.57 L-175.3 12.55 L-175.3 14.53 L-175.3 16.51 L-175.4 18.49 L-175.4 20.47 L-175.4 22.45 L-175.4 24.43 L-177.4 24.42 L-179.4 24.41 L-181.3 24.39 L-183.3 24.38 L-185.3 24.37 L-187.3 24.36 L-189.3 24.34 L-191.2 24.33 L-193.2 24.32 L-195.2 24.3 L-197.2 24.29 L-199.2 24.28 L-201.1 24.27 L-203.1 24.25 L-205.1 24.24 L-207.1 24.23 L-209.1 24.22 L-211 24.2 L-213 24.19 L-215 24.18 L-217 24.16 L-219 24.15 L-221 24.14 L-222.9 24.13 L-224.9 24.11 Z " />
<path stroke="rgb(0,0,0)" stroke-opacity="0.5" fill="rgb(255,255,255)" fill-opacity="1" d="M224.9 300.2 L224.8 302.1 L224.5 304.1 L224.1 306 L223.6 307.9 L222.8 309.8 L222 311.6 L221 313.3 L219.9 314.9 L218.6 316.4 L217.3 317.9 L215.8 319.2 L214.2 320.4 L212.6 321.4 L210.8 322.4 L209 323.2 L207.1 323.8 L205.2 324.3 L203.3 324.6 L201.3 324.8 L199.3 324.8 L197.4 324.7 L195.4 324.4 L193.5 324 L191.6 323.4 L189.8 322.6 L188 321.8 L186.3 320.7 L184.7 319.6 L183.2 318.3 L181.8 316.9 L180.5 315.4 L179.4 313.8 L178.3 312.1 L177.4 310.4 L176.7 308.6 L176.1 306.7 L175.6 304.7 L175.3 302.8 L175.2 300.8 L175.2 298.8 L175.3 296.9 L175.7 294.9 L176.2 293 L176.8 291.1 L177.6 289.3 L178.5 287.6 L179.5 285.9 L180.7 284.3 L182 282.8 L183.4 281.5 L185 280.2 L186.6 279.1 L188.3 278.1 L190.1 277.2 L191.9 276.5 L193.8 275.9 L195.7 275.5 L197.7 275.3 L199.7 275.1 L201.6 275.2 L203.6 275.4 L205.6 275.8 L207.5 276.3 L209.3 277 L211.1 277.8 L212.9 278.7 L214.5 279.8 L216.1 281 L217.5 282.4 L218.9 283.8 L220.1 285.4 L221.2 287 L222.2 288.7 L223 290.5 L223.7 292.4 L224.2 294.3 L224.6 296.2 L224.8 298.2 L224.9 300.2 Z " />
<path stroke="rgb(0,0,0)" stroke-opacity="1" fill="rgb(255,255,255)" fill-opacity="1" d="M-24.91 24.11 L-24.9 22.13 L-24.89 20.15 L-24.87 18.17 L-24.86 16.19 L-24.85 14.21 L-24.83 12.23 L-24.82 10.25 L-24.81 8.269 L-24.8 6.288 L-24.78 4.307 L-24.77 2.327 L-24.76 0.3461 L-24.75 -1.634 L-24.73 -3.615 L-24.72 -5.596 L-24.71 -7.576 L-24.69 -9.557 L-24.68 -11.54 L-24.67 -13.52 L-24.66 -15.5 L-24.64 -17.48 L-24.63 -19.46 L-24.62 -21.44 L-24.61 -23.42 L-24.59 -25.4 L-22.61 -25.39 L-20.63 -25.38 L-18.65 -25.36 L-16.67 -25.35 L-14.69 -25.34 L-12.71 -25.33 L-10.73 -25.31 L-8.747 -25.3 L-6.767 -25.29 L-4.786 -25.27 L-2.806 -25.26 L-0.825 -25.25 L1.156 -25.24 L3.136 -25.22 L5.117 -25.21 L7.097 -25.2 L9.078 -25.18 L11.06 -25.17 L13.04 -25.16 L15.02 -25.15 L17 -25.13 L18.98 -25.12 L20.96 -25.11 L22.94 -25.1 L24.92 -25.08 L24.91 -23.1 L24.9 -21.12 L24.88 -19.14 L24.87 -17.16 L24.86 -15.18 L24.85 -13.2 L24.83 -11.22 L24.82 -9.238 L24.81 -7.257 L24.8 -5.277 L24.78 -3.296 L24.77 -1.315 L24.76 0.6653 L24.74 2.646 L24.73 4.627 L24.72 6.607 L24.71 8.588 L24.69 10.57 L24.68 12.55 L24.67 14.53 L24.65 16.51 L24.64 18.49 L24.63 20.47 L24.62 22.45 L24.6 24.43 L22.62 24.42 L20.64 24.41 L18.66 24.39 L16.68 24.38 L14.7 24.37 L12.72 24.36 L10.74 24.34 L8.759 24.33 L6.778 24.32 L4.798 24.3 L2.817 24.29 L0.8364 24.28 L-1.144 24.27 L-3.125 24.25 L-5.105 24.24 L-7.086 24.23 L-9.067 24.22 L-11.05 24.2 L-13.03 24.19 L-15.01 24.18 L-16.99 24.16 L-18.97 24.15 L-20.95 24.14 L-22.93 24.13 L-24.91 24.11 Z " />
</g>
</g>
</svg>
