<!DOCTYPE svg>
<svg xmlns="http://www.w3.org/2000/svg" xmlns:xlink="http://www.w3.org/1999/xlink" width="560" height="560">
<g transform="translate(280.000000,280.000000)">
<g transform="scale(3.000000,3.000000)">
<path stroke="rgb(0,0,0)" stroke-opacity="0.991" fill="rgb(255,255,255)" fill-opacity="1" d="M-324.2 -325 L-322.2 -325 L-320.2 -325 L-318.3 -324.9 L-316.3 -324.9 L-314.3 -324.9 L-312.4 -324.8 L-310.4 -324.8 L-308.4 -324.8 L-306.5 -324.7 L-304.5 -324.7 L-302.5 -324.7 L-300.6 -324.6 L-298.6 -324.6 L-296.6 -324.5 L-294.7 -324.5 L-292.7 -324.5 L-290.7 -324.4 L-288.8 -324.4 L-286.8 -324.4 L-284.8 -324.3 L-282.9 -324.3 L-280.9 -324.3 L-278.9 -324.2 L-276.9 -324.2 L-275 -324.2 L-275 -322.2 L-275 -320.2 L-275.1 -318.3 L-275.1 -316.3 L-275.2 -314.3 L-275.2 -312.4 L-275.2 -310.4 L-275.3 -308.4 L-275.3 -306.5 L-275.3 -304.5 L-275.4 -302.5 L-275.4 -300.6 L-275.4 -298.6 L-275.5 -296.6 L-275.5 -294.7 L-275.5 -292.7 L-275.6 -290.7 L-275.6 -288.7 L-275.6 -286.8 L-275.7 -284.8 L-275.7 -282.8 L-275.7 -280.9 L-275.8 -278.9 L-275.8 -276.9 L-275.8 -275 L-277.8 -275 L-279.8 -275 L-281.7 -275.1 L-283.7 -275.1 L-285.7 -275.1 L-287.6 -275.2 L-289.6 -275.2 L-291.6 -275.2 L-293.6 -275.3 L-295.5 -275.3 L-297.5 -275.3 L-299.5 -275.4 L-301.4 -275.4 L-303.4 -275.5 L-305.4 -275.5 L-307.3 -275.5 L-309.3 -275.6 L-311.3 -275.6 L-313.2 -275.6 L-315.2 -275.7 L-317.2 -275.7 L-319.1 -275.7 L-321.1 -275.8 L-323.1 -275.8 L-325 -275.8 L-325 -277.8 L-325 -279.8 L-324.9 -281.7 L-324.9 -283.7 L-324.9 -285.7 L-324.8 -287.6 L-324.8 -289.6 L-324.8 -291.6 L-324.7 -293.5 L-324.7 -295.5 L-324.7 -297.5 L-324.6 -299.4 L-324.6 -301.4 L-324.6 -303.4 L-324.5 -305.3 L-324.5 -307.3 L-324.5 -309.3 L-324.4 -311.3 L-324.4 -313.2 L-324.3 -315.2 L-324.3 -317.2 L-324.3 -319.1 L-324.2 -321.1 L-324.2 -323.1 L-324.2 -325 Z " />
<path stroke="rgb(0,0,0)" stroke-opacity="1" fill="rgb(255,255,255)" fill-opacity="1" d="M-975.4 -1099 L-975.5 -1098 L-975.8 -1096 L-976.2 -1094 L-976.7 -1092 L-977.4 -1090 L-978.3 -1088 L-979.3 -1087 L-980.4 -1085 L-981.6 -1084 L-982.9 -1082 L-984.4 -1081 L-986 -1080 L-987.6 -1079 L-989.3 -1078 L-991.1 -1077 L-992.9 -1076 L-994.8 -1076 L-996.7 -1076 L-998.6 -1075 L-1001 -1075 L-1003 -1076 L-1004 -1076 L-1006 -1076 L-1008 -1077 L-1010 -1078 L-1012 -1079 L-1013 -1080 L-1015 -1081 L-1016 -1082 L-1018 -1083 L-1019 -1085 L-1020 -1086 L-1021 -1088 L-1022 -1090 L-1023 -1092 L-1023 -1093 L-1024 -1095 L-1024 -1097 L-1024 -1099 L-1024 -1101 L-1024 -1103 L-1024 -1105 L-1023 -1107 L-1022 -1109 L-1022 -1110 L-1021 -1112 L-1020 -1114 L-1019 -1115 L-1017 -1117 L-1016 -1118 L-1014 -1119 L-1013 -1120 L-1011 -1121 L-1009 -1122 L-1008 -1123 L-1006 -1123 L-1004 -1124 L-1002 -1124 L-999.9 -1124 L-998 -1124 L-996 -1124 L-994.1 -1123 L-992.3 -1123 L-990.5 -1122 L-988.7 -1121 L-987 -1121 L-985.4 -1119 L-983.9 -1118 L-982.5 -1117 L-981.2 -1116 L-980 -1114 L-978.9 -1112 L-978 -1111 L-977.2 -1109 L-976.5 -1107 L-976 -1105 L-975.7 -1103 L-975.5 -1101 L-975.4 -1099 Z " />
<path stroke="rgb(0,0,0)" stroke-opacity="0.991" fill="rgb(255,255,255)" fill-opacity="1" d="M-124.2 -325 L-122.2 -325 L-120.2 -325 L-118.3 -324.9 L-116.3 -324.9 L-114.3 -324.9 L-112.4 -324.8 L-110.4 -324.8 L-108.4 -324.8 L-106.5 -324.7 L-104.5 -324.7 L-102.5 -324.7 L-100.6 -324.6 L-98.59 -324.6 L-96.63 -324.5 L-94.66 -324.5 L-92.69 -324.5 L-90.72 -324.4 L-88.76 -324.4 L-86.79 -324.4 L-84.82 -324.3 L-82.85 -324.3 L-80.88 -324.3 L-78.92 -324.2 L-76.95 -324.2 L-74.98 -324.2 L-75.01 -322.2 L-75.05 -320.2 L-75.08 -318.3 L-75.12 -316.3 L-75.15 -314.3 L-75.19 -312.4 L-75.22 -310.4 L-75.25 -308.4 L-75.29 -306.5 L-75.32 -304.5 L-75.36 -302.5 L-75.39 -300.6 L-75.43 -298.6 L-75.46 -296.6 L-75.5 -294.7 L-75.53 -292.7 L-75.56 -290.7 L-75.6 -288.7 L-75.63 -286.8 L-75.67 -284.8 L-75.7 -282.8 L-75.74 -280.9 L-75.77 -278.9 L-75.8 -276.9 L-75.84 -275 L-77.81 -275 L-79.77 -275 L-81.74 -275.1 L-83.71 -275.1 L-85.68 -275.1 L-87.65 -275.2 L-89.61 -275.2 L-91.58 -275.2 L-93.55 -275.3 L-95.52 -275.3 L-97.49 -275.3 L-99.45 -275.4 L-101.4 -275.4 L-103.4 -275.5 L-105.4 -275.5 L-107.3 -275.5 L-109.3 -275.6 L-111.3 -275.6 L-113.2 -275.6 L-115.2 -275.7 L-117.2 -275.7 L-119.1 -275.7 L-121.1 -275.8 L-123.1 -275.8 L-125 -275.8 L-125 -277.8 L-125 -279.8 L-124.9 -281.7 L-124.9 -283.7 L-124.9 -285.7 L-124.8 -287.6 L-124.8 -289.6 L-124.8 -291.6 L-124.7 -293.5 L-124.7 -295.5 L-124.7 -297.5 L-124.6 -299.4 L-124.6 -301.4 L-124.6 -303.4 L-124.5 -305.3 L-124.5 -307.3 L-124.5 -309.3 L-124.4 -311.3 L-124.4 -313.2 L-124.3 -315.2 L-124.3 -317.2 L-124.3 -319.1 L-124.2 -321.1 L-124.2 -323.1 L-124.2 -325 Z " />
<path stroke="rgb(0,0,0)" stroke-opacity="1" fill="rgb(255,255,255)" fill-opacity="1" d="M-775.4 -1099 L-775.5 -1098 L-775.8 -1096 L-776.2 -1094 L-776.7 -1092 L-777.4 -1090 L-778.3 -1088 L-779.3 -1087 L-780.4 -1085 L-781.6 -1084 L-782.9 -1082 L-784.4 -1081 L-786 -1080 L-787.6 -1079 L-789.3 -1078 L-791.1 -1077 L-792.9 -1076 L-794.8 -1076 L-796.7 -1076 L-798.6 -1075 L-800.6 -1075 L-802.5 -1076 L-804.4 -1076 L-806.3 -1076 L-808.2 -1077 L-809.9 -1078 L-811.7 -1079 L-813.3 -1080 L-814.9 -1081 L-816.4 -1082 L-817.7 -1083 L-819 -1085 L-820.1 -1086 L-821.1 -1088 L-822 -1090 L-822.7 -1092 L-823.3 -1093 L-823.7 -1095 L-824 -1097 L-824.1 -1099 L-824.1 -1101 L-823.9 -1103 L-823.6 -1105 L-823.1 -1107 L-822.5 -1109 L-821.7 -1110 L-820.8 -1112 L-819.7 -1114 L-818.6 -1115 L-817.3 -1117 L-815.9 -1118 L-814.4 -1119 L-812.8 -1120 L-811.1 -1121 L-809.3 -1122 L-807.5 -1123 L-805.7 -1123 L-803.8 -1124 L-801.8 -1124 L-799.9 -1124 L-798 -1124 L-796 -1124 L-794.1 -1123 L-792.3 -1123 L-790.5 -1122 L-788.7 -1121 L-787 -1121 L-785.4 -1119 L-783.9 -1118 L-782.5 -1117 L-781.2 -1116 L-780 -1114 L-778.9 -1112 L-778 -1111 L-777.2 -1109 L-776.5 -1107 L-776 -1105 L-775.7 -1103 L-775.5 -1101 L-775.4 -1099 Z " />
<path stroke="rgb(0,0,0)" stroke-opacity="0.991" fill="rgb(255,255,255)" fill-opacity="1" d="M75.82 -325 L77.79 -325 L79.76 -325 L81.73 -324.9 L83.69 -324.9 L85.66 -324.9 L87.63 -324.8 L89.6 -324.8 L91.57 -324.8 L93.53 -324.7 L95.5 -324.7 L97.47 -324.7 L99.44 -324.6 L101.4 -324.6 L103.4 -324.5 L105.3 -324.5 L107.3 -324.5 L109.3 -324.4 L111.2 -324.4 L113.2 -324.4 L115.2 -324.3 L117.1 -324.3 L119.1 -324.3 L121.1 -324.2 L123.1 -324.2 L125 -324.2 L125 -322.2 L125 -320.2 L124.9 -318.3 L124.9 -316.3 L124.8 -314.3 L124.8 -312.4 L124.8 -310.4 L124.7 -308.4 L124.7 -306.5 L124.7 -304.5 L124.6 -302.5 L124.6 -300.6 L124.6 -298.6 L124.5 -296.6 L124.5 -294.7 L124.5 -292.7 L124.4 -290.7 L124.4 -288.7 L124.4 -286.8 L124.3 -284.8 L124.3 -282.8 L124.3 -280.9 L124.2 -278.9 L124.2 -276.9 L124.2 -275 L122.2 -275 L120.2 -275 L118.3 -275.1 L116.3 -275.1 L114.3 -275.1 L112.4 -275.2 L110.4 -275.2 L108.4 -275.2 L106.4 -275.3 L104.5 -275.3 L102.5 -275.3 L100.5 -275.4 L98.58 -275.4 L96.61 -275.5 L94.64 -275.5 L92.67 -275.5 L90.71 -275.6 L88.74 -275.6 L86.77 -275.6 L84.8 -275.7 L82.83 -275.7 L80.87 -275.7 L78.9 -275.8 L76.93 -275.8 L74.96 -275.8 L75 -277.8 L75.03 -279.8 L75.07 -281.7 L75.1 -283.7 L75.13 -285.7 L75.17 -287.6 L75.2 -289.6 L75.24 -291.6 L75.27 -293.5 L75.31 -295.5 L75.34 -297.5 L75.38 -299.4 L75.41 -301.4 L75.44 -303.4 L75.48 -305.3 L75.51 -307.3 L75.55 -309.3 L75.58 -311.3 L75.62 -313.2 L75.65 -315.2 L75.68 -317.2 L75.72 -319.1 L75.75 -321.1 L75.79 -323.1 L75.82 -325 Z " />
<path stroke="rgb(0,0,0)" stroke-opacity="1" fill="rgb(255,255,255)" fill-opacity="1" d="M-575.4 -1099 L-575.5 -1098 L-575.8 -1096 L-576.2 -1094 L-576.7 -1092 L-577.4 -1090 L-578.3 -1088 L-579.3 -1087 L-580.4 -1085 L-581.6 -1084 L-582.9 -1082 L-584.4 -1081 L-586 -1080 L-587.6 -1079 L-589.3 -1078 L-591.1 -1077 L-592.9 -1076 L-594.8 -1076 L-596.7 -1076 L-598.6 -1075 L-600.6 -1075 L-602.5 -1076 L-604.4 -1076 L-606.3 -1076 L-608.2 -1077 L-609.9 -1078 L-611.7 -1079 L-613.3 -1080 L-614.9 -1081 L-616.4 -1082 L-617.7 -1083 L-619 -1085 L-620.1 -1086 L-621.1 -1088 L-622 -1090 L-622.7 -1092 L-623.3 -1093 L-623.7 -1095 L-624 -1097 L-624.1 -1099 L-624.1 -1101 L-623.9 -1103 L-623.6 -1105 L-623.1 -1107 L-622.5 -1109 L-621.7 -1110 L-620.8 -1112 L-619.7 -1114 L-618.6 -1115 L-617.3 -1117 L-615.9 -1118 L-614.4 -1119 L-612.8 -1120 L-611.1 -1121 L-609.3 -1122 L-607.5 -1123 L-605.7 -1123 L-603.8 -1124 L-601.8 -1124 L-599.9 -1124 L-598 -1124 L-596 -1124 L-594.1 -1123 L-592.3 -1123 L-590.5 -1122 L-588.7 -1121 L-587 -1121 L-585.4 -1119 L-583.9 -1118 L-582.5 -1117 L-581.2 -1116 L-580 -1114 L-578.9 -1112 L-578 -1111 L-577.2 -1109 L-576.5 -1107 L-576 -1105 L-575.7 -1103 L-575.5 -1101 L-575.4 -1099 Z " />
<path stroke="rgb(0,0,0)" stroke-opacity="0.991" fill="rgb(255,255,255)" fill-opacity="1" d="M275.8 -325 L277.8 -325 L279.8 -325 L281.7 -324.9 L283.7 -324.9 L285.7 -324.9 L287.6 -324.8 L289.6 -324.8 L291.6 -324.8 L293.5 -324.7 L295.5 -324.7 L297.5 -324.7 L299.4 -324.6 L301.4 -324.6 L303.4 -324.5 L305.3 -324.5 L307.3 -324.5 L309.3 -324.4 L311.2 -324.4 L313.2 -324.4 L315.2 -324.3 L317.1 -324.3 L319.1 -324.3 L321.1 -324.2 L323.1 -324.2 L325 -324.2 L325 -322.2 L325 -320.2 L324.9 -318.3 L324.9 -316.3 L324.8 -314.3 L324.8 -312.4 L324.8 -310.4 L324.7 -308.4 L324.7 -306.5 L324.7 -304.5 L324.6 -302.5 L324.6 -300.6 L324.6 -298.6 L324.5 -296.6 L324.5 -294.7 L324.5 -292.7 L324.4 -290.7 L324.4 -288.7 L324.4 -286.8 L324.3 -284.8 L324.3 -282.8 L324.3 -280.9 L324.2 -278.9 L324.2 -276.9 L324.2 -275 L322.2 -275 L320.2 -275 L318.3 -275.1 L316.3 -275.1 L314.3 -275.1 L312.4 -275.2 L310.4 -275.2 L308.4 -275.2 L306.4 -275.3 L304.5 -275.3 L302.5 -275.3 L300.5 -275.4 L298.6 -275.4 L296.6 -275.5 L294.6 -275.5 L292.7 -275.5 L290.7 -275.6 L288.7 -275.6 L286.8 -275.6 L284.8 -275.7 L282.8 -275.7 L280.9 -275.7 L278.9 -275.8 L276.9 -275.8 L275 -275.8 L275 -277.8 L275 -279.8 L275.1 -281.7 L275.1 -283.7 L275.1 -285.7 L275.2 -287.6 L275.2 -289.6 L275.2 -291.6 L275.3 -293.5 L275.3 -295.5 L275.3 -297.5 L275.4 -299.4 L275.4 -301.4 L275.4 -303.4 L275.5 -305.3 L275.5 -307.3 L275.5 -309.3 L275.6 -311.3 L275.6 -313.2 L275.7 -315.2 L275.7 -317.2 L275.7 -319.1 L275.8 -321.1 L275.8 -323.1 L275.8 -325 Z " />
<path stroke="rgb(0,0,0)" stroke-opacity="1" fill="rgb(255,255,255)" fill-opacity="1" d="M-1075 -999.4 L-1076 -997.5 L-1076 -995.6 L-1076 -993.7 L-1077 -991.8 L-1077 -990 L-1078 -988.3 L-1079 -986.6 L-1080 -985 L-1082 -983.5 L-1083 -982.1 L-1084 -980.9 L-1086 -979.7 L-1088 -978.7 L-1089 -977.8 L-1091 -977 L-1093 -976.4 L-1095 -975.9 L-1097 -975.6 L-1099 -975.4 L-1101 -975.4 L-1103 -975.6 L-1104 -975.9 L-1106 -976.3 L-1108 -976.9 L-1110 -977.6 L-1112 -978.5 L-1113 -979.5 L-1115 -980.7 L-1116 -981.9 L-1118 -983.3 L-1119 -984.8 L-1120 -986.4 L-1121 -988 L-1122 -989.8 L-1123 -991.6 L-1123 -993.4 L-1124 -995.3 L-1124 -997.2 L-1124 -999.1 L-1124 -1001 L-1124 -1003 L-1124 -1005 L-1123 -1007 L-1122 -1009 L-1122 -1010 L-1121 -1012 L-1120 -1014 L-1119 -1015 L-1117 -1017 L-1116 -1018 L-1114 -1019 L-1113 -1020 L-1111 -1021 L-1109 -1022 L-1108 -1023 L-1106 -1023 L-1104 -1024 L-1102 -1024 L-1100 -1024 L-1098 -1024 L-1096 -1024 L-1094 -1023 L-1092 -1023 L-1090 -1022 L-1089 -1021 L-1087 -1021 L-1085 -1019 L-1084 -1018 L-1082 -1017 L-1081 -1016 L-1080 -1014 L-1079 -1012 L-1078 -1011 L-1077 -1009 L-1077 -1007 L-1076 -1005 L-1076 -1003 L-1075 -1001 L-1075 -999.4 Z " />
<path stroke="rgb(0,0,0)" stroke-opacity="0.991" fill="rgb(255,255,255)" fill-opacity="1" d="M-224.2 -225 L-222.2 -225 L-220.2 -225 L-218.3 -224.9 L-216.3 -224.9 L-214.3 -224.9 L-212.4 -224.8 L-210.4 -224.8 L-208.4 -224.8 L-206.5 -224.7 L-204.5 -224.7 L-202.5 -224.7 L-200.6 -224.6 L-198.6 -224.6 L-196.6 -224.5 L-194.7 -224.5 L-192.7 -224.5 L-190.7 -224.4 L-188.8 -224.4 L-186.8 -224.4 L-184.8 -224.3 L-182.9 -224.3 L-180.9 -224.3 L-178.9 -224.2 L-176.9 -224.2 L-175 -224.2 L-175 -222.2 L-175 -220.2 L-175.1 -218.3 L-175.1 -216.3 L-175.2 -214.3 L-175.2 -212.4 L-175.2 -210.4 L-175.3 -208.4 L-175.3 -206.5 L-175.3 -204.5 L-175.4 -202.5 L-175.4 -200.6 L-175.4 -198.6 L-175.5 -196.6 L-175.5 -194.7 L-175.5 -192.7 L-175.6 -190.7 L-175.6 -188.7 L-175.6 -186.8 L-175.7 -184.8 L-175.7 -182.8 L-175.7 -180.9 L-175.8 -178.9 L-175.8 -176.9 L-175.8 -175 L-177.8 -175 L-179.8 -175 L-181.7 -175.1 L-183.7 -175.1 L-185.7 -175.1 L-187.6 -175.2 L-189.6 -175.2 L-191.6 -175.2 L-193.6 -175.3 L-195.5 -175.3 L-197.5 -175.3 L-199.5 -175.4 L-201.4 -175.4 L-203.4 -175.5 L-205.4 -175.5 L-207.3 -175.5 L-209.3 -175.6 L-211.3 -175.6 L-213.2 -175.6 L-215.2 -175.7 L-217.2 -175.7 L-219.1 -175.7 L-221.1 -175.8 L-223.1 -175.8 L-225 -175.8 L-225 -177.8 L-225 -179.8 L-224.9 -181.7 L-224.9 -183.7 L-224.9 -185.7 L-224.8 -187.6 L-224.8 -189.6 L-224.8 -191.6 L-224.7 -193.5 L-224.7 -195.5 L-224.7 -197.5 L-224.6 -199.4 L-224.6 -201.4 L-224.6 -203.4 L-224.5 -205.3 L-224.5 -207.3 L-224.5 -209.3 L-224.4 -211.3 L-224.4 -213.2 L-224.3 -215.2 L-224.3 -217.2 L-224.3 -219.1 L-224.2 -221.1 L-224.2 -223.1 L-224.2 -225 Z " />
<path stroke="rgb(0,0,0)" stroke-opacity="1" fill="rgb(255,255,255)" fill-opacity="1" d="M-875.4 -999.4 L-875.5 -997.5 L-875.8 -995.6 L-876.2 -993.7 L-876.7 -991.8 L-877.4 -990 L-878.3 -988.3 L-879.3 -986.6 L-880.4 -985 L-881.6 -983.5 L-882.9 -982.1 L-884.4 -980.9 L-886 -979.7 L-887.6 -978.7 L-889.3 -977.8 L-891.1 -977 L-892.9 -976.4 L-894.8 -975.9 L-896.7 -975.6 L-898.6 -975.4 L-900.6 -975.4 L-902.5 -975.6 L-904.4 -975.9 L-906.3 -976.3 L-908.2 -976.9 L-909.9 -977.6 L-911.7 -978.5 L-913.3 -979.5 L-914.9 -980.7 L-916.4 -981.9 L-917.7 -983.3 L-919 -984.8 L-920.1 -986.4 L-921.1 -988 L-922 -989.8 L-922.7 -991.6 L-923.3 -993.4 L-923.7 -995.3 L-924 -997.2 L-924.1 -999.1 L-924.1 -1001 L-923.9 -1003 L-923.6 -1005 L-923.1 -1007 L-922.5 -1009 L-921.7 -1010 L-920.8 -1012 L-919.7 -1014 L-918.6 -1015 L-917.3 -1017 L-915.9 -1018 L-914.4 -1019 L-912.8 -1020 L-911.1 -1021 L-909.3 -1022 L-907.5 -1023 L-905.7 -1023 L-903.8 -1024 L-901.8 -1024 L-899.9 -1024 L-898 -1024 L-896 -1024 L-894.1 -1023 L-892.3 -1023 L-890.5 -1022 L-888.7 -1021 L-887 -1021 L-885.4 -1019 L-883.9 -1018 L-882.5 -1017 L-881.2 -1016 L-880 -1014 L-878.9 -1012 L-878 -1011 L-877.2 -1009 L-876.5 -1007 L-876 -1005 L-875.7 -1003 L-875.5 -1001 L-875.4 -999.4 Z " />
<path stroke="rgb(0,0,0)" stroke-opacity="0.991" fill="rgb(255,255,255)" fill-opacity="1" d="M-24.18 -225 L-22.21 -225 L-20.24 -225 L-18.27 -224.9 L-16.31 -224.9 L-14.34 -224.9 L-12.37 -224.8 L-10.4 -224.8 L-8.434 -224.8 L-6.466 -224.7 L-4.498 -224.7 L-2.531 -224.7 L-0.5626 -224.6 L1.405 -224.6 L3.373 -224.5 L5.341 -224.5 L7.309 -224.5 L9.277 -224.4 L11.24 -224.4 L13.21 -224.4 L15.18 -224.3 L17.15 -224.3 L19.12 -224.3 L21.08 -224.2 L23.05 -224.2 L25.02 -224.2 L24.99 -222.2 L24.95 -220.2 L24.92 -218.3 L24.88 -216.3 L24.85 -214.3 L24.81 -212.4 L24.78 -210.4 L24.75 -208.4 L24.71 -206.5 L24.68 -204.5 L24.64 -202.5 L24.61 -200.6 L24.57 -198.6 L24.54 -196.6 L24.5 -194.7 L24.47 -192.7 L24.44 -190.7 L24.4 -188.7 L24.37 -186.8 L24.33 -184.8 L24.3 -182.8 L24.26 -180.9 L24.23 -178.9 L24.2 -176.9 L24.16 -175 L22.19 -175 L20.23 -175 L18.26 -175.1 L16.29 -175.1 L14.32 -175.1 L12.35 -175.2 L10.39 -175.2 L8.418 -175.2 L6.45 -175.3 L4.482 -175.3 L2.514 -175.3 L0.5461 -175.4 L-1.422 -175.4 L-3.39 -175.5 L-5.358 -175.5 L-7.326 -175.5 L-9.293 -175.6 L-11.26 -175.6 L-13.23 -175.6 L-15.2 -175.7 L-17.17 -175.7 L-19.13 -175.7 L-21.1 -175.8 L-23.07 -175.8 L-25.04 -175.8 L-25 -177.8 L-24.97 -179.8 L-24.93 -181.7 L-24.9 -183.7 L-24.87 -185.7 L-24.83 -187.6 L-24.8 -189.6 L-24.76 -191.6 L-24.73 -193.5 L-24.69 -195.5 L-24.66 -197.5 L-24.62 -199.4 L-24.59 -201.4 L-24.56 -203.4 L-24.52 -205.3 L-24.49 -207.3 L-24.45 -209.3 L-24.42 -211.3 L-24.38 -213.2 L-24.35 -215.2 L-24.32 -217.2 L-24.28 -219.1 L-24.25 -221.1 L-24.21 -223.1 L-24.18 -225 Z " />
<path stroke="rgb(0,0,0)" stroke-opacity="1" fill="rgb(255,255,255)" fill-opacity="1" d="M-675.4 -999.4 L-675.5 -997.5 L-675.8 -995.6 L-676.2 -993.7 L-676.7 -991.8 L-677.4 -990 L-678.3 -988.3 L-679.3 -986.6 L-680.4 -985 L-681.6 -983.5 L-682.9 -982.1 L-684.4 -980.9 L-686 -979.7 L-687.6 -978.7 L-689.3 -977.8 L-691.1 -977 L-692.9 -976.4 L-694.8 -975.9 L-696.7 -975.6 L-698.6 -975.4 L-700.6 -975.4 L-702.5 -975.6 L-704.4 -975.9 L-706.3 -976.3 L-708.2 -976.9 L-709.9 -977.6 L-711.7 -978.5 L-713.3 -979.5 L-714.9 -980.7 L-716.4 -981.9 L-717.7 -983.3 L-719 -984.8 L-720.1 -986.4 L-721.1 -988 L-722 -989.8 L-722.7 -991.6 L-723.3 -993.4 L-723.7 -995.3 L-724 -997.2 L-724.1 -999.1 L-724.1 -1001 L-723.9 -1003 L-723.6 -1005 L-723.1 -1007 L-722.5 -1009 L-721.7 -1010 L-720.8 -1012 L-719.7 -1014 L-718.6 -1015 L-717.3 -1017 L-715.9 -1018 L-714.4 -1019 L-712.8 -1020 L-711.1 -1021 L-709.3 -1022 L-707.5 -1023 L-705.7 -1023 L-703.8 -1024 L-701.8 -1024 L-699.9 -1024 L-698 -1024 L-696 -1024 L-694.1 -1023 L-692.3 -1023 L-690.5 -1022 L-688.7 -1021 L-687 -1021 L-685.4 -1019 L-683.9 -1018 L-682.5 -1017 L-681.2 -1016 L-680 -1014 L-678.9 -1012 L-678 -1011 L-677.2 -1009 L-676.5 -1007 L-676 -1005 L-675.7 -1003 L-675.5 -1001 L-675.4 -999.4 Z " />
<path stroke="rgb(0,0,0)" stroke-opacity="0.991" fill="rgb(255,255,255)" fill-opacity="1" d="M175.8 -225 L177.8 -225 L179.8 -225 L181.7 -224.9 L183.7 -224.9 L185.7 -224.9 L187.6 -224.8 L189.6 -224.8 L191.6 -224.8 L193.5 -224.7 L195.5 -224.7 L197.5 -224.7 L199.4 -224.6 L201.4 -224.6 L203.4 -224.5 L205.3 -224.5 L207.3 -224.5 L209.3 -224.4 L211.2 -224.4 L213.2 -224.4 L215.2 -224.3 L217.1 -224.3 L219.1 -224.3 L221.1 -224.2 L223.1 -224.2 L225 -224.2 L225 -222.2 L225 -220.2 L224.9 -218.3 L224.9 -216.3 L224.8 -214.3 L224.8 -212.4 L224.8 -210.4 L224.7 -208.4 L224.7 -206.5 L224.7 -204.5 L224.6 -202.5 L224.6 -200.6 L224.6 -198.6 L224.5 -196.6 L224.5 -194.7 L224.5 -192.7 L224.4 -190.7 L224.4 -188.7 L224.4 -186.8 L224.3 -184.8 L224.3 -182.8 L224.3 -180.9 L224.2 -178.9 L224.2 -176.9 L224.2 -175 L222.2 -175 L220.2 -175 L218.3 -175.1 L216.3 -175.1 L214.3 -175.1 L212.4 -175.2 L210.4 -175.2 L208.4 -175.2 L206.4 -175.3 L204.5 -175.3 L202.5 -175.3 L200.5 -175.4 L198.6 -175.4 L196.6 -175.5 L194.6 -175.5 L192.7 -175.5 L190.7 -175.6 L188.7 -175.6 L186.8 -175.6 L184.8 -175.7 L182.8 -175.7 L180.9 -175.7 L178.9 -175.8 L176.9 -175.8 L175 -175.8 L175 -177.8 L175 -179.8 L175.1 -181.7 L175.1 -183.7 L175.1 -185.7 L175.2 -187.6 L175.2 -189.6 L175.2 -191.6 L175.3 -193.5 L175.3 -195.5 L175.3 -197.5 L175.4 -199.4 L175.4 -201.4 L175.4 -203.4 L175.5 -205.3 L175.5 -207.3 L175.5 -209.3 L175.6 -211.3 L175.6 -213.2 L175.7 -215.2 L175.7 -217.2 L175.7 -219.1 L175.8 -221.1 L175.8 -223.1 L175.8 -225 Z " />
<path stroke="rgb(0,0,0)" stroke-opacity="1" fill="rgb(255,255,255)" fill-opacity="1" d="M-474.1 -995.4 L-474.5 -993.4 L-475.1 -991.4 L-475.8 -989.5 L-476.7 -987.6 L-477.8 -985.8 L-478.9 -984.1 L-480.3 -982.5 L-481.7 -981 L-483.3 -979.6 L-484.9 -978.4 L-486.7 -977.3 L-488.5 -976.3 L-490.4 -975.5 L-492.4 -974.8 L-494.4 -974.3 L-496.4 -973.9 L-498.5 -973.8 L-500.6 -973.7 L-502.6 -973.9 L-504.7 -974.2 L-506.7 -974.7 L-508.7 -975.3 L-510.6 -976.1 L-512.5 -977 L-514.2 -978.1 L-515.9 -979.3 L-517.5 -980.7 L-518.9 -982.1 L-520.3 -983.7 L-521.5 -985.4 L-522.6 -987.2 L-523.5 -989 L-524.3 -990.9 L-524.9 -992.9 L-525.4 -994.9 L-525.7 -997 L-525.9 -999 L-525.8 -1001 L-525.7 -1003 L-525.3 -1005 L-524.8 -1007 L-524.1 -1009 L-523.3 -1011 L-522.3 -1013 L-521.2 -1015 L-520 -1016 L-518.6 -1018 L-517.1 -1019 L-515.5 -1021 L-513.8 -1022 L-512 -1023 L-510.1 -1024 L-508.2 -1025 L-506.2 -1025 L-504.2 -1026 L-502.1 -1026 L-500 -1026 L-498 -1026 L-495.9 -1026 L-493.9 -1025 L-491.9 -1025 L-489.9 -1024 L-488 -1023 L-486.2 -1022 L-484.5 -1021 L-482.8 -1020 L-481.3 -1018 L-479.9 -1017 L-478.6 -1015 L-477.5 -1013 L-476.5 -1012 L-475.6 -1010 L-474.9 -1008 L-474.4 -1006 L-474 -1004 L-473.7 -1002 L-473.7 -999.6 L-473.8 -997.5 L-474.1 -995.4 Z " />
<path stroke="rgb(0,0,0)" stroke-opacity="0.991" fill="rgb(255,255,255)" fill-opacity="1" d="M-324.2 -125 L-322.2 -125 L-320.2 -125 L-318.3 -124.9 L-316.3 -124.9 L-314.3 -124.9 L-312.4 -124.8 L-310.4 -124.8 L-308.4 -124.8 L-306.5 -124.7 L-304.5 -124.7 L-302.5 -124.7 L-300.6 -124.6 L-298.6 -124.6 L-296.6 -124.5 L-294.7 -124.5 L-292.7 -124.5 L-290.7 -124.4 L-288.8 -124.4 L-286.8 -124.4 L-284.8 -124.3 L-282.9 -124.3 L-280.9 -124.3 L-278.9 -124.2 L-276.9 -124.2 L-275 -124.2 L-275 -122.2 L-275 -120.2 L-275.1 -118.3 L-275.1 -116.3 L-275.2 -114.3 L-275.2 -112.4 L-275.2 -110.4 L-275.3 -108.4 L-275.3 -106.5 L-275.3 -104.5 L-275.4 -102.5 L-275.4 -100.6 L-275.4 -98.59 L-275.5 -96.62 L-275.5 -94.65 L-275.5 -92.68 L-275.6 -90.71 L-275.6 -88.75 L-275.6 -86.78 L-275.7 -84.81 L-275.7 -82.84 L-275.7 -80.87 L-275.8 -78.91 L-275.8 -76.94 L-275.8 -74.97 L-277.8 -75.01 L-279.8 -75.04 L-281.7 -75.07 L-283.7 -75.11 L-285.7 -75.14 L-287.6 -75.18 L-289.6 -75.21 L-291.6 -75.25 L-293.6 -75.28 L-295.5 -75.31 L-297.5 -75.35 L-299.5 -75.38 L-301.4 -75.42 L-303.4 -75.45 L-305.4 -75.49 L-307.3 -75.52 L-309.3 -75.56 L-311.3 -75.59 L-313.2 -75.62 L-315.2 -75.66 L-317.2 -75.69 L-319.1 -75.73 L-321.1 -75.76 L-323.1 -75.8 L-325 -75.83 L-325 -77.8 L-325 -79.77 L-324.9 -81.73 L-324.9 -83.7 L-324.9 -85.67 L-324.8 -87.64 L-324.8 -89.61 L-324.8 -91.57 L-324.7 -93.54 L-324.7 -95.51 L-324.7 -97.48 L-324.6 -99.45 L-324.6 -101.4 L-324.6 -103.4 L-324.5 -105.3 L-324.5 -107.3 L-324.5 -109.3 L-324.4 -111.3 L-324.4 -113.2 L-324.3 -115.2 L-324.3 -117.2 L-324.3 -119.1 L-324.2 -121.1 L-324.2 -123.1 L-324.2 -125 Z " />
<path stroke="rgb(0,0,0)" stroke-opacity="1" fill="rgb(255,255,255)" fill-opacity="1" d="M-975.4 -899.4 L-975.5 -897.5 L-975.8 -895.6 L-976.2 -893.7 L-976.7 -891.8 L-977.4 -890 L-978.3 -888.3 L-979.3 -886.6 L-980.4 -885 L-981.6 -883.5 L-982.9 -882.1 L-984.4 -880.9 L-986 -879.7 L-987.6 -878.7 L-989.3 -877.8 L-991.1 -877 L-992.9 -876.4 L-994.8 -875.9 L-996.7 -875.6 L-998.6 -875.4 L-1001 -875.4 L-1003 -875.6 L-1004 -875.9 L-1006 -876.3 L-1008 -876.9 L-1010 -877.6 L-1012 -878.5 L-1013 -879.5 L-1015 -880.7 L-1016 -881.9 L-1018 -883.3 L-1019 -884.8 L-1020 -886.4 L-1021 -888 L-1022 -889.8 L-1023 -891.6 L-1023 -893.4 L-1024 -895.3 L-1024 -897.2 L-1024 -899.1 L-1024 -901.1 L-1024 -903 L-1024 -904.9 L-1023 -906.8 L-1022 -908.6 L-1022 -910.4 L-1021 -912.1 L-1020 -913.7 L-1019 -915.3 L-1017 -916.7 L-1016 -918.1 L-1014 -919.3 L-1013 -920.4 L-1011 -921.3 L-1009 -922.2 L-1008 -922.9 L-1006 -923.4 L-1004 -923.8 L-1002 -924 L-999.9 -924.1 L-998 -924.1 L-996 -923.8 L-994.1 -923.5 L-992.3 -923 L-990.5 -922.3 L-988.7 -921.5 L-987 -920.5 L-985.4 -919.5 L-983.9 -918.3 L-982.5 -916.9 L-981.2 -915.5 L-980 -914 L-978.9 -912.4 L-978 -910.7 L-977.2 -908.9 L-976.5 -907.1 L-976 -905.2 L-975.7 -903.3 L-975.5 -901.4 L-975.4 -899.4 Z " />
<path stroke="rgb(0,0,0)" stroke-opacity="0.991" fill="rgb(255,255,255)" fill-opacity="1" d="M-124.2 -125 L-122.2 -125 L-120.2 -125 L-118.3 -124.9 L-116.3 -124.9 L-114.3 -124.9 L-112.4 -124.8 L-110.4 -124.8 L-108.4 -124.8 L-106.5 -124.7 L-104.5 -124.7 L-102.5 -124.7 L-100.6 -124.6 L-98.59 -124.6 L-96.63 -124.5 L-94.66 -124.5 L-92.69 -124.5 L-90.72 -124.4 L-88.76 -124.4 L-86.79 -124.4 L-84.82 -124.3 L-82.85 -124.3 L-80.88 -124.3 L-78.92 -124.2 L-76.95 -124.2 L-74.98 -124.2 L-75.01 -122.2 L-75.05 -120.2 L-75.08 -118.3 L-75.12 -116.3 L-75.15 -114.3 L-75.19 -112.4 L-75.22 -110.4 L-75.25 -108.4 L-75.29 -106.5 L-75.32 -104.5 L-75.36 -102.5 L-75.39 -100.6 L-75.43 -98.59 L-75.46 -96.62 L-75.5 -94.65 L-75.53 -92.68 L-75.56 -90.71 L-75.6 -88.75 L-75.63 -86.78 L-75.67 -84.81 L-75.7 -82.84 L-75.74 -80.87 L-75.77 -78.91 L-75.8 -76.94 L-75.84 -74.97 L-77.81 -75.01 L-79.77 -75.04 L-81.74 -75.07 L-83.71 -75.11 L-85.68 -75.14 L-87.65 -75.18 L-89.61 -75.21 L-91.58 -75.25 L-93.55 -75.28 L-95.52 -75.31 L-97.49 -75.35 L-99.45 -75.38 L-101.4 -75.42 L-103.4 -75.45 L-105.4 -75.49 L-107.3 -75.52 L-109.3 -75.56 L-111.3 -75.59 L-113.2 -75.62 L-115.2 -75.66 L-117.2 -75.69 L-119.1 -75.73 L-121.1 -75.76 L-123.1 -75.8 L-125 -75.83 L-125 -77.8 L-125 -79.77 L-124.9 -81.73 L-124.9 -83.7 L-124.9 -85.67 L-124.8 -87.64 L-124.8 -89.61 L-124.8 -91.57 L-124.7 -93.54 L-124.7 -95.51 L-124.7 -97.48 L-124.6 -99.45 L-124.6 -101.4 L-124.6 -103.4 L-124.5 -105.3 L-124.5 -107.3 L-124.5 -109.3 L-124.4 -111.3 L-124.4 -113.2 L-124.3 -115.2 L-124.3 -117.2 L-124.3 -119.1 L-124.2 -121.1 L-124.2 -123.1 L-124.2 -125 Z " />
<path stroke="rgb(0,0,0)" stroke-opacity="1" fill="rgb(255,255,255)" fill-opacity="1" d="M-775.4 -899.4 L-775.5 -897.5 L-775.8 -895.6 L-776.2 -893.7 L-776.7 -891.8 L-777.4 -890 L-778.3 -888.3 L-779.3 -886.6 L-780.4 -885 L-781.6 -883.5 L-782.9 -882.1 L-784.4 -880.9 L-786 -879.7 L-787.6 -878.7 L-789.3 -877.8 L-791.1 -877 L-792.9 -876.4 L-794.8 -875.9 L-796.7 -875.6 L-798.6 -875.4 L-800.6 -875.4 L-802.5 -875.6 L-804.4 -875.9 L-806.3 -876.3 L-808.2 -876.9 L-809.9 -877.6 L-811.7 -878.5 L-813.3 -879.5 L-814.9 -880.7 L-816.4 -881.9 L-817.7 -883.3 L-819 -884.8 L-820.1 -886.4 L-821.1 -888 L-822 -889.8 L-822.7 -891.6 L-823.3 -893.4 L-823.7 -895.3 L-824 -897.2 L-824.1 -899.1 L-824.1 -901.1 L-823.9 -903 L-823.6 -904.9 L-823.1 -906.8 L-822.5 -908.6 L-821.7 -910.4 L-820.8 -912.1 L-819.7 -913.7 L-818.6 -915.3 L-817.3 -916.7 L-815.9 -918.1 L-814.4 -919.3 L-812.8 -920.4 L-811.1 -921.3 L-809.3 -922.2 L-807.5 -922.9 L-805.7 -923.4 L-803.8 -923.8 L-801.8 -924 L-799.9 -924.1 L-798 -924.1 L-796 -923.8 L-794.1 -923.5 L-792.3 -923 L-790.5 -922.3 L-788.7 -921.5 L-787 -920.5 L-785.4 -919.5 L-783.9 -918.3 L-782.5 -916.9 L-781.2 -915.5 L-780 -914 L-778.9 -912.4 L-778 -910.7 L-777.2 -908.9 L-776.5 -907.1 L-776 -905.2 L-775.7 -903.3 L-775.5 -901.4 L-775.4 -899.4 Z " />
<path stroke="rgb(0,0,0)" stroke-opacity="0.991" fill="rgb(255,255,255)" fill-opacity="1" d="M75.82 -125 L77.79 -125 L79.76 -125 L81.73 -124.9 L83.69 -124.9 L85.66 -124.9 L87.63 -124.8 L89.6 -124.8 L91.57 -124.8 L93.53 -124.7 L95.5 -124.7 L97.47 -124.7 L99.44 -124.6 L101.4 -124.6 L103.4 -124.5 L105.3 -124.5 L107.3 -124.5 L109.3 -124.4 L111.2 -124.4 L113.2 -124.4 L115.2 -124.3 L117.1 -124.3 L119.1 -124.3 L121.1 -124.2 L123.1 -124.2 L125 -124.2 L125 -122.2 L125 -120.2 L124.9 -118.3 L124.9 -116.3 L124.8 -114.3 L124.8 -112.4 L124.8 -110.4 L124.7 -108.4 L124.7 -106.5 L124.7 -104.5 L124.6 -102.5 L124.6 -100.6 L124.6 -98.59 L124.5 -96.62 L124.5 -94.65 L124.5 -92.68 L124.4 -90.71 L124.4 -88.75 L124.4 -86.78 L124.3 -84.81 L124.3 -82.84 L124.3 -80.87 L124.2 -78.91 L124.2 -76.94 L124.2 -74.97 L122.2 -75.01 L120.2 -75.04 L118.3 -75.07 L116.3 -75.11 L114.3 -75.14 L112.4 -75.18 L110.4 -75.21 L108.4 -75.25 L106.4 -75.28 L104.5 -75.31 L102.5 -75.35 L100.5 -75.38 L98.58 -75.42 L96.61 -75.45 L94.64 -75.49 L92.67 -75.52 L90.71 -75.56 L88.74 -75.59 L86.77 -75.62 L84.8 -75.66 L82.83 -75.69 L80.87 -75.73 L78.9 -75.76 L76.93 -75.8 L74.96 -75.83 L75 -77.8 L75.03 -79.77 L75.07 -81.73 L75.1 -83.7 L75.13 -85.67 L75.17 -87.64 L75.2 -89.61 L75.24 -91.57 L75.27 -93.54 L75.31 -95.51 L75.34 -97.48 L75.38 -99.45 L75.41 -101.4 L75.44 -103.4 L75.48 -105.3 L75.51 -107.3 L75.55 -109.3 L75.58 -111.3 L75.62 -113.2 L75.65 -115.2 L75.68 -117.2 L75.72 -119.1 L75.75 -121.1 L75.79 -123.1 L75.82 -125 Z " />
<path stroke="rgb(0,0,0)" stroke-opacity="1" fill="rgb(255,255,255)" fill-opacity="1" d="M-574.1 -895.4 L-574.5 -893.4 L-575.1 -891.4 L-575.8 -889.5 L-576.7 -887.6 L-577.8 -885.8 L-578.9 -884.1 L-580.3 -882.5 L-581.7 -881 L-583.3 -879.6 L-584.9 -878.4 L-586.7 -877.3 L-588.5 -876.3 L-590.4 -875.5 L-592.4 -874.8 L-594.4 -874.3 L-596.4 -873.9 L-598.5 -873.8 L-600.6 -873.7 L-602.6 -873.9 L-604.7 -874.2 L-606.7 -874.7 L-608.7 -875.3 L-610.6 -876.1 L-612.5 -877 L-614.2 -878.1 L-615.9 -879.3 L-617.5 -880.7 L-618.9 -882.1 L-620.3 -883.7 L-621.5 -885.4 L-622.6 -887.2 L-623.5 -889 L-624.3 -890.9 L-624.9 -892.9 L-625.4 -894.9 L-625.7 -897 L-625.9 -899 L-625.8 -901.1 L-625.7 -903.2 L-625.3 -905.2 L-624.8 -907.2 L-624.1 -909.2 L-623.3 -911.1 L-622.3 -912.9 L-621.2 -914.7 L-620 -916.4 L-618.6 -917.9 L-617.1 -919.3 L-615.5 -920.7 L-613.8 -921.8 L-612 -922.9 L-610.1 -923.8 L-608.2 -924.5 L-606.2 -925.1 L-604.2 -925.5 L-602.1 -925.8 L-600 -925.9 L-598 -925.9 L-595.9 -925.6 L-593.9 -925.2 L-591.9 -924.7 L-589.9 -924 L-588 -923.1 L-586.2 -922.1 L-584.5 -921 L-582.8 -919.7 L-581.3 -918.3 L-579.9 -916.7 L-578.6 -915.1 L-577.5 -913.4 L-576.5 -911.6 L-575.6 -909.7 L-574.9 -907.7 L-574.4 -905.7 L-574 -903.7 L-573.7 -901.6 L-573.7 -899.6 L-573.8 -897.5 L-574.1 -895.4 Z " />
<path stroke="rgb(0,0,0)" stroke-opacity="0.991" fill="rgb(255,255,255)" fill-opacity="1" d="M275.8 -125 L277.8 -125 L279.8 -125 L281.7 -124.9 L283.7 -124.9 L285.7 -124.9 L287.6 -124.8 L289.6 -124.8 L291.6 -124.8 L293.5 -124.7 L295.5 -124.7 L297.5 -124.7 L299.4 -124.6 L301.4 -124.6 L303.4 -124.5 L305.3 -124.5 L307.3 -124.5 L309.3 -124.4 L311.2 -124.4 L313.2 -124.4 L315.2 -124.3 L317.1 -124.3 L319.1 -124.3 L321.1 -124.2 L323.1 -124.2 L325 -124.2 L325 -122.2 L325 -120.2 L324.9 -118.3 L324.9 -116.3 L324.8 -114.3 L324.8 -112.4 L324.8 -110.4 L324.7 -108.4 L324.7 -106.5 L324.7 -104.5 L324.6 -102.5 L324.6 -100.6 L324.6 -98.59 L324.5 -96.62 L324.5 -94.65 L324.5 -92.68 L324.4 -90.71 L324.4 -88.75 L324.4 -86.78 L324.3 -84.81 L324.3 -82.84 L324.3 -80.87 L324.2 -78.91 L324.2 -76.94 L324.2 -74.97 L322.2 -75.01 L320.2 -75.04 L318.3 -75.07 L316.3 -75.11 L314.3 -75.14 L312.4 -75.18 L310.4 -75.21 L308.4 -75.25 L306.4 -75.28 L304.5 -75.31 L302.5 -75.35 L300.5 -75.38 L298.6 -75.42 L296.6 -75.45 L294.6 -75.49 L292.7 -75.52 L290.7 -75.56 L288.7 -75.59 L286.8 -75.62 L284.8 -75.66 L282.8 -75.69 L280.9 -75.73 L278.9 -75.76 L276.9 -75.8 L275 -75.83 L275 -77.8 L275 -79.77 L275.1 -81.73 L275.1 -83.7 L275.1 -85.67 L275.2 -87.64 L275.2 -89.61 L275.2 -91.57 L275.3 -93.54 L275.3 -95.51 L275.3 -97.48 L275.4 -99.45 L275.4 -101.4 L275.4 -103.4 L275.5 -105.3 L275.5 -107.3 L275.5 -109.3 L275.6 -111.3 L275.6 -113.2 L275.7 -115.2 L275.7 -117.2 L275.7 -119.1 L275.8 -121.1 L275.8 -123.1 L275.8 -125 Z " />
<path stroke="rgb(0,0,0)" stroke-opacity="1" fill="rgb(255,255,255)" fill-opacity="1" d="M-1075 -799.4 L-1076 -797.5 L-1076 -795.6 L-1076 -793.7 L-1077 -791.8 L-1077 -790 L-1078 -788.3 L-1079 -786.6 L-1080 -785 L-1082 -783.5 L-1083 -782.1 L-1084 -780.9 L-1086 -779.7 L-1088 -778.7 L-1089 -777.8 L-1091 -777 L-1093 -776.4 L-1095 -775.9 L-1097 -775.6 L-1099 -775.4 L-1101 -775.4 L-1103 -775.6 L-1104 -775.9 L-1106 -776.3 L-1108 -776.9 L-1110 -777.6 L-1112 -778.5 L-1113 -779.5 L-1115 -780.7 L-1116 -781.9 L-1118 -783.3 L-1119 -784.8 L-1120 -786.4 L-1121 -788 L-1122 -789.8 L-1123 -791.6 L-1123 -793.4 L-1124 -795.3 L-1124 -797.2 L-1124 -799.1 L-1124 -801.1 L-1124 -803 L-1124 -804.9 L-1123 -806.8 L-1122 -808.6 L-1122 -810.4 L-1121 -812.1 L-1120 -813.7 L-1119 -815.3 L-1117 -816.7 L-1116 -818.1 L-1114 -819.3 L-1113 -820.4 L-1111 -821.3 L-1109 -822.2 L-1108 -822.9 L-1106 -823.4 L-1104 -823.8 L-1102 -824 L-1100 -824.1 L-1098 -824.1 L-1096 -823.8 L-1094 -823.5 L-1092 -823 L-1090 -822.3 L-1089 -821.5 L-1087 -820.5 L-1085 -819.5 L-1084 -818.3 L-1082 -816.9 L-1081 -815.5 L-1080 -814 L-1079 -812.4 L-1078 -810.7 L-1077 -808.9 L-1077 -807.1 L-1076 -805.2 L-1076 -803.3 L-1075 -801.4 L-1075 -799.4 Z " />
<path stroke="rgb(0,0,0)" stroke-opacity="0.991" fill="rgb(255,255,255)" fill-opacity="1" d="M-224.2 -25.03 L-222.2 -24.99 L-220.2 -24.96 L-218.3 -24.93 L-216.3 -24.89 L-214.3 -24.86 L-212.4 -24.82 L-210.4 -24.79 L-208.4 -24.75 L-206.5 -24.72 L-204.5 -24.68 L-202.5 -24.65 L-200.6 -24.62 L-198.6 -24.58 L-196.6 -24.55 L-194.7 -24.51 L-192.7 -24.48 L-190.7 -24.44 L-188.8 -24.41 L-186.8 -24.38 L-184.8 -24.34 L-182.9 -24.31 L-180.9 -24.27 L-178.9 -24.24 L-176.9 -24.2 L-175 -24.17 L-175 -22.2 L-175 -20.23 L-175.1 -18.27 L-175.1 -16.3 L-175.2 -14.33 L-175.2 -12.36 L-175.2 -10.39 L-175.3 -8.426 L-175.3 -6.458 L-175.3 -4.49 L-175.4 -2.522 L-175.4 -0.5541 L-175.4 1.414 L-175.5 3.382 L-175.5 5.35 L-175.5 7.318 L-175.6 9.286 L-175.6 11.25 L-175.6 13.22 L-175.7 15.19 L-175.7 17.16 L-175.7 19.13 L-175.8 21.09 L-175.8 23.06 L-175.8 25.03 L-177.8 24.99 L-179.8 24.96 L-181.7 24.93 L-183.7 24.89 L-185.7 24.86 L-187.6 24.82 L-189.6 24.79 L-191.6 24.75 L-193.6 24.72 L-195.5 24.69 L-197.5 24.65 L-199.5 24.62 L-201.4 24.58 L-203.4 24.55 L-205.4 24.51 L-207.3 24.48 L-209.3 24.44 L-211.3 24.41 L-213.2 24.38 L-215.2 24.34 L-217.2 24.31 L-219.1 24.27 L-221.1 24.24 L-223.1 24.2 L-225 24.17 L-225 22.2 L-225 20.23 L-224.9 18.27 L-224.9 16.3 L-224.9 14.33 L-224.8 12.36 L-224.8 10.39 L-224.8 8.426 L-224.7 6.458 L-224.7 4.491 L-224.7 2.523 L-224.6 0.5547 L-224.6 -1.413 L-224.6 -3.381 L-224.5 -5.349 L-224.5 -7.317 L-224.5 -9.285 L-224.4 -11.25 L-224.4 -13.22 L-224.3 -15.19 L-224.3 -17.16 L-224.3 -19.12 L-224.2 -21.09 L-224.2 -23.06 L-224.2 -25.03 Z " />
<path stroke="rgb(0,0,0)" stroke-opacity="1" fill="rgb(255,255,255)" fill-opacity="1" d="M-875.4 -799.4 L-875.5 -797.5 L-875.8 -795.6 L-876.2 -793.7 L-876.7 -791.8 L-877.4 -790 L-878.3 -788.3 L-879.3 -786.6 L-880.4 -785 L-881.6 -783.5 L-882.9 -782.1 L-884.4 -780.9 L-886 -779.7 L-887.6 -778.7 L-889.3 -777.8 L-891.1 -777 L-892.9 -776.4 L-894.8 -775.9 L-896.7 -775.6 L-898.6 -775.4 L-900.6 -775.4 L-902.5 -775.6 L-904.4 -775.9 L-906.3 -776.3 L-908.2 -776.9 L-909.9 -777.6 L-911.7 -778.5 L-913.3 -779.5 L-914.9 -780.7 L-916.4 -781.9 L-917.7 -783.3 L-919 -784.8 L-920.1 -786.4 L-921.1 -788 L-922 -789.8 L-922.7 -791.6 L-923.3 -793.4 L-923.7 -795.3 L-924 -797.2 L-924.1 -799.1 L-924.1 -801.1 L-923.9 -803 L-923.6 -804.9 L-923.1 -806.8 L-922.5 -808.6 L-921.7 -810.4 L-920.8 -812.1 L-919.7 -813.7 L-918.6 -815.3 L-917.3 -816.7 L-915.9 -818.1 L-914.4 -819.3 L-912.8 -820.4 L-911.1 -821.3 L-909.3 -822.2 L-907.5 -822.9 L-905.7 -823.4 L-903.8 -823.8 L-901.8 -824 L-899.9 -824.1 L-898 -824.1 L-896 -823.8 L-894.1 -823.5 L-892.3 -823 L-890.5 -822.3 L-888.7 -821.5 L-887 -820.5 L-885.4 -819.5 L-883.9 -818.3 L-882.5 -816.9 L-881.2 -815.5 L-880 -814 L-878.9 -812.4 L-878 -810.7 L-877.2 -808.9 L-876.5 -807.1 L-876 -805.2 L-875.7 -803.3 L-875.5 -801.4 L-875.4 -799.4 Z " />
<path stroke="rgb(0,0,0)" stroke-opacity="0.991" fill="rgb(255,255,255)" fill-opacity="1" d="M-24.18 -25.03 L-22.21 -24.99 L-20.24 -24.96 L-18.27 -24.93 L-16.31 -24.89 L-14.34 -24.86 L-12.37 -24.82 L-10.4 -24.79 L-8.434 -24.75 L-6.466 -24.72 L-4.498 -24.68 L-2.531 -24.65 L-0.5626 -24.62 L1.405 -24.58 L3.373 -24.55 L5.341 -24.51 L7.309 -24.48 L9.277 -24.44 L11.24 -24.41 L13.21 -24.38 L15.18 -24.34 L17.15 -24.31 L19.12 -24.27 L21.08 -24.24 L23.05 -24.2 L25.02 -24.17 L24.99 -22.2 L24.95 -20.23 L24.92 -18.27 L24.88 -16.3 L24.85 -14.33 L24.81 -12.36 L24.78 -10.39 L24.75 -8.426 L24.71 -6.458 L24.68 -4.49 L24.64 -2.522 L24.61 -0.5541 L24.57 1.414 L24.54 3.382 L24.5 5.35 L24.47 7.318 L24.44 9.286 L24.4 11.25 L24.37 13.22 L24.33 15.19 L24.3 17.16 L24.26 19.13 L24.23 21.09 L24.2 23.06 L24.16 25.03 L22.19 24.99 L20.23 24.96 L18.26 24.93 L16.29 24.89 L14.32 24.86 L12.35 24.82 L10.39 24.79 L8.418 24.75 L6.45 24.72 L4.482 24.69 L2.514 24.65 L0.5461 24.62 L-1.422 24.58 L-3.39 24.55 L-5.358 24.51 L-7.326 24.48 L-9.293 24.44 L-11.26 24.41 L-13.23 24.38 L-15.2 24.34 L-17.17 24.31 L-19.13 24.27 L-21.1 24.24 L-23.07 24.2 L-25.04 24.17 L-25 22.2 L-24.97 20.23 L-24.93 18.27 L-24.9 16.3 L-24.87 14.33 L-24.83 12.36 L-24.8 10.39 L-24.76 8.426 L-24.73 6.458 L-24.69 4.491 L-24.66 2.523 L-24.62 0.5547 L-24.59 -1.413 L-24.56 -3.381 L-24.52 -5.349 L-24.49 -7.317 L-24.45 -9.285 L-24.42 -11.25 L-24.38 -13.22 L-24.35 -15.19 L-24.32 -17.16 L-24.28 -19.12 L-24.25 -21.09 L-24.21 -23.06 L-24.18 -25.03 Z " />
<path stroke="rgb(0,0,0)" stroke-opacity="1" fill="rgb(255,255,255)" fill-opacity="1" d="M-674.1 -795.4 L-674.5 -793.4 L-675.1 -791.4 L-675.8 -789.5 L-676.7 -787.6 L-677.8 -785.8 L-678.9 -784.1 L-680.3 -782.5 L-681.7 -781 L-683.3 -779.6 L-684.9 -778.4 L-686.7 -777.3 L-688.5 -776.3 L-690.4 -775.5 L-692.4 -774.8 L-694.4 -774.3 L-696.4 -773.9 L-698.5 -773.8 L-700.6 -773.7 L-702.6 -773.9 L-704.7 -774.2 L-706.7 -774.7 L-708.7 -775.3 L-710.6 -776.1 L-712.5 -777 L-714.2 -778.1 L-715.9 -779.3 L-717.5 -780.7 L-718.9 -782.1 L-720.3 -783.7 L-721.5 -785.4 L-722.6 -787.2 L-723.5 -789 L-724.3 -790.9 L-724.9 -792.9 L-725.4 -794.9 L-725.7 -797 L-725.9 -799 L-725.8 -801.1 L-725.7 -803.2 L-725.3 -805.2 L-724.8 -807.2 L-724.1 -809.2 L-723.3 -811.1 L-722.3 -812.9 L-721.2 -814.7 L-720 -816.4 L-718.6 -817.9 L-717.1 -819.3 L-715.5 -820.7 L-713.8 -821.8 L-712 -822.9 L-710.1 -823.8 L-708.2 -824.5 L-706.2 -825.1 L-704.2 -825.5 L-702.1 -825.8 L-700 -825.9 L-698 -825.9 L-695.9 -825.6 L-693.9 -825.2 L-691.9 -824.7 L-689.9 -824 L-688 -823.1 L-686.2 -822.1 L-684.5 -821 L-682.8 -819.7 L-681.3 -818.3 L-679.9 -816.7 L-678.6 -815.1 L-677.5 -813.4 L-676.5 -811.6 L-675.6 -809.7 L-674.9 -807.7 L-674.4 -805.7 L-674 -803.7 L-673.7 -801.6 L-673.7 -799.6 L-673.8 -797.5 L-674.1 -795.4 Z " />
<path stroke="rgb(0,0,0)" stroke-opacity="0.991" fill="rgb(255,255,255)" fill-opacity="1" d="M175.8 -25.03 L177.8 -24.99 L179.8 -24.96 L181.7 -24.93 L183.7 -24.89 L185.7 -24.86 L187.6 -24.82 L189.6 -24.79 L191.6 -24.75 L193.5 -24.72 L195.5 -24.68 L197.5 -24.65 L199.4 -24.62 L201.4 -24.58 L203.4 -24.55 L205.3 -24.51 L207.3 -24.48 L209.3 -24.44 L211.2 -24.41 L213.2 -24.38 L215.2 -24.34 L217.1 -24.31 L219.1 -24.27 L221.1 -24.24 L223.1 -24.2 L225 -24.17 L225 -22.2 L225 -20.23 L224.9 -18.27 L224.9 -16.3 L224.8 -14.33 L224.8 -12.36 L224.8 -10.39 L224.7 -8.426 L224.7 -6.458 L224.7 -4.49 L224.6 -2.522 L224.6 -0.5541 L224.6 1.414 L224.5 3.382 L224.5 5.35 L224.5 7.318 L224.4 9.286 L224.4 11.25 L224.4 13.22 L224.3 15.19 L224.3 17.16 L224.3 19.13 L224.2 21.09 L224.2 23.06 L224.2 25.03 L222.2 24.99 L220.2 24.96 L218.3 24.93 L216.3 24.89 L214.3 24.86 L212.4 24.82 L210.4 24.79 L208.4 24.75 L206.4 24.72 L204.5 24.69 L202.5 24.65 L200.5 24.62 L198.6 24.58 L196.6 24.55 L194.6 24.51 L192.7 24.48 L190.7 24.44 L188.7 24.41 L186.8 24.38 L184.8 24.34 L182.8 24.31 L180.9 24.27 L178.9 24.24 L176.9 24.2 L175 24.17 L175 22.2 L175 20.23 L175.1 18.27 L175.1 16.3 L175.1 14.33 L175.2 12.36 L175.2 10.39 L175.2 8.426 L175.3 6.458 L175.3 4.491 L175.3 2.523 L175.4 0.5547 L175.4 -1.413 L175.4 -3.381 L175.5 -5.349 L175.5 -7.317 L175.5 -9.285 L175.6 -11.25 L175.6 -13.22 L175.7 -15.19 L175.7 -17.16 L175.7 -19.12 L175.8 -21.09 L175.8 -23.06 L175.8 -25.03 Z " />
<path stroke="rgb(0,0,0)" stroke-opacity="1" fill="rgb(255,255,255)" fill-opacity="1" d="M-478.9 -769.2 L-481.4 -767.6 L-484.1 -766.3 L-486.8 -765.1 L-489.6 -764.2 L-492.5 -763.5 L-495.4 -763.1 L-498.4 -762.9 L-501.4 -762.9 L-504.3 -763.1 L-507.2 -763.6 L-510.1 -764.3 L-512.9 -765.3 L-515.7 -766.4 L-518.3 -767.8 L-520.8 -769.4 L-523.2 -771.1 L-525.4 -773.1 L-527.5 -775.2 L-529.4 -777.5 L-531.1 -779.9 L-532.6 -782.5 L-533.9 -785.2 L-535 -787.9 L-535.8 -790.8 L-536.5 -793.7 L-536.9 -796.6 L-537 -799.6 L-537 -802.5 L-536.7 -805.5 L-536.1 -808.4 L-535.3 -811.3 L-534.3 -814.1 L-533.1 -816.8 L-531.7 -819.4 L-530.1 -821.9 L-528.3 -824.2 L-526.3 -826.4 L-524.1 -828.4 L-521.8 -830.3 L-519.3 -831.9 L-516.7 -833.4 L-514 -834.6 L-511.2 -835.7 L-508.4 -836.5 L-505.5 -837 L-502.5 -837.4 L-499.6 -837.5 L-496.6 -837.3 L-493.6 -837 L-490.7 -836.4 L-487.9 -835.6 L-485.1 -834.5 L-482.4 -833.2 L-479.9 -831.8 L-477.4 -830.1 L-475.1 -828.2 L-473 -826.2 L-471 -824 L-469.2 -821.6 L-467.6 -819.1 L-466.2 -816.5 L-465 -813.8 L-464 -811 L-463.3 -808.1 L-462.7 -805.2 L-462.5 -802.2 L-462.4 -799.3 L-462.6 -796.3 L-463 -793.4 L-463.7 -790.5 L-464.6 -787.6 L-465.7 -784.9 L-467 -782.2 L-468.5 -779.7 L-470.2 -777.3 L-472.2 -775 L-474.2 -772.9 L-476.5 -770.9 L-478.9 -769.2 Z " />
<path stroke="rgb(0,0,0)" stroke-opacity="0.991" fill="rgb(255,255,255)" fill-opacity="1" d="M-324.2 74.97 L-322.2 75.01 L-320.2 75.04 L-318.3 75.07 L-316.3 75.11 L-314.3 75.14 L-312.4 75.18 L-310.4 75.21 L-308.4 75.25 L-306.5 75.28 L-304.5 75.32 L-302.5 75.35 L-300.6 75.38 L-298.6 75.42 L-296.6 75.45 L-294.7 75.49 L-292.7 75.52 L-290.7 75.56 L-288.8 75.59 L-286.8 75.62 L-284.8 75.66 L-282.9 75.69 L-280.9 75.73 L-278.9 75.76 L-276.9 75.8 L-275 75.83 L-275 77.8 L-275 79.77 L-275.1 81.73 L-275.1 83.7 L-275.2 85.67 L-275.2 87.64 L-275.2 89.61 L-275.3 91.57 L-275.3 93.54 L-275.3 95.51 L-275.4 97.48 L-275.4 99.45 L-275.4 101.4 L-275.5 103.4 L-275.5 105.3 L-275.5 107.3 L-275.6 109.3 L-275.6 111.3 L-275.6 113.2 L-275.7 115.2 L-275.7 117.2 L-275.7 119.1 L-275.8 121.1 L-275.8 123.1 L-275.8 125 L-277.8 125 L-279.8 125 L-281.7 124.9 L-283.7 124.9 L-285.7 124.9 L-287.6 124.8 L-289.6 124.8 L-291.6 124.8 L-293.6 124.7 L-295.5 124.7 L-297.5 124.7 L-299.5 124.6 L-301.4 124.6 L-303.4 124.5 L-305.4 124.5 L-307.3 124.5 L-309.3 124.4 L-311.3 124.4 L-313.2 124.4 L-315.2 124.3 L-317.2 124.3 L-319.1 124.3 L-321.1 124.2 L-323.1 124.2 L-325 124.2 L-325 122.2 L-325 120.2 L-324.9 118.3 L-324.9 116.3 L-324.9 114.3 L-324.8 112.4 L-324.8 110.4 L-324.8 108.4 L-324.7 106.5 L-324.7 104.5 L-324.7 102.5 L-324.6 100.6 L-324.6 98.59 L-324.6 96.62 L-324.5 94.65 L-324.5 92.68 L-324.5 90.72 L-324.4 88.75 L-324.4 86.78 L-324.3 84.81 L-324.3 82.84 L-324.3 80.88 L-324.2 78.91 L-324.2 76.94 L-324.2 74.97 Z " />
<path stroke="rgb(0,0,0)" stroke-opacity="1" fill="rgb(255,255,255)" fill-opacity="1" d="M-975.4 -699.4 L-975.5 -697.5 L-975.8 -695.6 L-976.2 -693.7 L-976.7 -691.8 L-977.4 -690 L-978.3 -688.3 L-979.3 -686.6 L-980.4 -685 L-981.6 -683.5 L-982.9 -682.1 L-984.4 -680.9 L-986 -679.7 L-987.6 -678.7 L-989.3 -677.8 L-991.1 -677 L-992.9 -676.4 L-994.8 -675.9 L-996.7 -675.6 L-998.6 -675.4 L-1001 -675.4 L-1003 -675.6 L-1004 -675.9 L-1006 -676.3 L-1008 -676.9 L-1010 -677.6 L-1012 -678.5 L-1013 -679.5 L-1015 -680.7 L-1016 -681.9 L-1018 -683.3 L-1019 -684.8 L-1020 -686.4 L-1021 -688 L-1022 -689.8 L-1023 -691.6 L-1023 -693.4 L-1024 -695.3 L-1024 -697.2 L-1024 -699.1 L-1024 -701.1 L-1024 -703 L-1024 -704.9 L-1023 -706.8 L-1022 -708.6 L-1022 -710.4 L-1021 -712.1 L-1020 -713.7 L-1019 -715.3 L-1017 -716.7 L-1016 -718.1 L-1014 -719.3 L-1013 -720.4 L-1011 -721.3 L-1009 -722.2 L-1008 -722.9 L-1006 -723.4 L-1004 -723.8 L-1002 -724 L-999.9 -724.1 L-998 -724.1 L-996 -723.8 L-994.1 -723.5 L-992.3 -723 L-990.5 -722.3 L-988.7 -721.5 L-987 -720.5 L-985.4 -719.5 L-983.9 -718.3 L-982.5 -716.9 L-981.2 -715.5 L-980 -714 L-978.9 -712.4 L-978 -710.7 L-977.2 -708.9 L-976.5 -707.1 L-976 -705.2 L-975.7 -703.3 L-975.5 -701.4 L-975.4 -699.4 Z " />
<path stroke="rgb(0,0,0)" stroke-opacity="0.991" fill="rgb(255,255,255)" fill-opacity="1" d="M-124.2 74.97 L-122.2 75.01 L-120.2 75.04 L-118.3 75.07 L-116.3 75.11 L-114.3 75.14 L-112.4 75.18 L-110.4 75.21 L-108.4 75.25 L-106.5 75.28 L-104.5 75.32 L-102.5 75.35 L-100.6 75.38 L-98.59 75.42 L-96.63 75.45 L-94.66 75.49 L-92.69 75.52 L-90.72 75.56 L-88.76 75.59 L-86.79 75.62 L-84.82 75.66 L-82.85 75.69 L-80.88 75.73 L-78.92 75.76 L-76.95 75.8 L-74.98 75.83 L-75.01 77.8 L-75.05 79.77 L-75.08 81.73 L-75.12 83.7 L-75.15 85.67 L-75.19 87.64 L-75.22 89.61 L-75.25 91.57 L-75.29 93.54 L-75.32 95.51 L-75.36 97.48 L-75.39 99.45 L-75.43 101.4 L-75.46 103.4 L-75.5 105.3 L-75.53 107.3 L-75.56 109.3 L-75.6 111.3 L-75.63 113.2 L-75.67 115.2 L-75.7 117.2 L-75.74 119.1 L-75.77 121.1 L-75.8 123.1 L-75.84 125 L-77.81 125 L-79.77 125 L-81.74 124.9 L-83.71 124.9 L-85.68 124.9 L-87.65 124.8 L-89.61 124.8 L-91.58 124.8 L-93.55 124.7 L-95.52 124.7 L-97.49 124.7 L-99.45 124.6 L-101.4 124.6 L-103.4 124.5 L-105.4 124.5 L-107.3 124.5 L-109.3 124.4 L-111.3 124.4 L-113.2 124.4 L-115.2 124.3 L-117.2 124.3 L-119.1 124.3 L-121.1 124.2 L-123.1 124.2 L-125 124.2 L-125 122.2 L-125 120.2 L-124.9 118.3 L-124.9 116.3 L-124.9 114.3 L-124.8 112.4 L-124.8 110.4 L-124.8 108.4 L-124.7 106.5 L-124.7 104.5 L-124.7 102.5 L-124.6 100.6 L-124.6 98.59 L-124.6 96.62 L-124.5 94.65 L-124.5 92.68 L-124.5 90.72 L-124.4 88.75 L-124.4 86.78 L-124.3 84.81 L-124.3 82.84 L-124.3 80.88 L-124.2 78.91 L-124.2 76.94 L-124.2 74.97 Z " />
<path stroke="rgb(0,0,0)" stroke-opacity="1" fill="rgb(255,255,255)" fill-opacity="1" d="M-774.1 -695.4 L-774.5 -693.4 L-775.1 -691.4 L-775.8 -689.5 L-776.7 -687.6 L-777.8 -685.8 L-778.9 -684.1 L-780.3 -682.5 L-781.7 -681 L-783.3 -679.6 L-784.9 -678.4 L-786.7 -677.3 L-788.5 -676.3 L-790.4 -675.5 L-792.4 -674.8 L-794.4 -674.3 L-796.4 -673.9 L-798.5 -673.8 L-800.6 -673.7 L-802.6 -673.9 L-804.7 -674.2 L-806.7 -674.7 L-808.7 -675.3 L-810.6 -676.1 L-812.5 -677 L-814.2 -678.1 L-815.9 -679.3 L-817.5 -680.7 L-818.9 -682.1 L-820.3 -683.7 L-821.5 -685.4 L-822.6 -687.2 L-823.5 -689 L-824.3 -690.9 L-824.9 -692.9 L-825.4 -694.9 L-825.7 -697 L-825.9 -699 L-825.8 -701.1 L-825.7 -703.2 L-825.3 -705.2 L-824.8 -707.2 L-824.1 -709.2 L-823.3 -711.1 L-822.3 -712.9 L-821.2 -714.7 L-820 -716.4 L-818.6 -717.9 L-817.1 -719.3 L-815.5 -720.7 L-813.8 -721.8 L-812 -722.9 L-810.1 -723.8 L-808.2 -724.5 L-806.2 -725.1 L-804.2 -725.5 L-802.1 -725.8 L-800 -725.9 L-798 -725.9 L-795.9 -725.6 L-793.9 -725.2 L-791.9 -724.7 L-789.9 -724 L-788 -723.1 L-786.2 -722.1 L-784.5 -721 L-782.8 -719.7 L-781.3 -718.3 L-779.9 -716.7 L-778.6 -715.1 L-777.5 -713.4 L-776.5 -711.6 L-775.6 -709.7 L-774.9 -707.7 L-774.4 -705.7 L-774 -703.7 L-773.7 -701.6 L-773.7 -699.6 L-773.8 -697.5 L-774.1 -695.4 Z " />
<path stroke="rgb(0,0,0)" stroke-opacity="0.991" fill="rgb(255,255,255)" fill-opacity="1" d="M75.82 74.97 L77.79 75.01 L79.76 75.04 L81.73 75.07 L83.69 75.11 L85.66 75.14 L87.63 75.18 L89.6 75.21 L91.57 75.25 L93.53 75.28 L95.5 75.32 L97.47 75.35 L99.44 75.38 L101.4 75.42 L103.4 75.45 L105.3 75.49 L107.3 75.52 L109.3 75.56 L111.2 75.59 L113.2 75.62 L115.2 75.66 L117.1 75.69 L119.1 75.73 L121.1 75.76 L123.1 75.8 L125 75.83 L125 77.8 L125 79.77 L124.9 81.73 L124.9 83.7 L124.8 85.67 L124.8 87.64 L124.8 89.61 L124.7 91.57 L124.7 93.54 L124.7 95.51 L124.6 97.48 L124.6 99.45 L124.6 101.4 L124.5 103.4 L124.5 105.3 L124.5 107.3 L124.4 109.3 L124.4 111.3 L124.4 113.2 L124.3 115.2 L124.3 117.2 L124.3 119.1 L124.2 121.1 L124.2 123.1 L124.2 125 L122.2 125 L120.2 125 L118.3 124.9 L116.3 124.9 L114.3 124.9 L112.4 124.8 L110.4 124.8 L108.4 124.8 L106.4 124.7 L104.5 124.7 L102.5 124.7 L100.5 124.6 L98.58 124.6 L96.61 124.5 L94.64 124.5 L92.67 124.5 L90.71 124.4 L88.74 124.4 L86.77 124.4 L84.8 124.3 L82.83 124.3 L80.87 124.3 L78.9 124.2 L76.93 124.2 L74.96 124.2 L75 122.2 L75.03 120.2 L75.07 118.3 L75.1 116.3 L75.13 114.3 L75.17 112.4 L75.2 110.4 L75.24 108.4 L75.27 106.5 L75.31 104.5 L75.34 102.5 L75.38 100.6 L75.41 98.59 L75.44 96.62 L75.48 94.65 L75.51 92.68 L75.55 90.72 L75.58 88.75 L75.62 86.78 L75.65 84.81 L75.68 82.84 L75.72 80.88 L75.75 78.91 L75.79 76.94 L75.82 74.97 Z " />
<path stroke="rgb(0,0,0)" stroke-opacity="1" fill="rgb(255,255,255)" fill-opacity="1" d="M-578.9 -669.2 L-581.4 -667.6 L-584.1 -666.3 L-586.8 -665.1 L-589.6 -664.2 L-592.5 -663.5 L-595.4 -663.1 L-598.4 -662.9 L-601.4 -662.9 L-604.3 -663.1 L-607.2 -663.6 L-610.1 -664.3 L-612.9 -665.3 L-615.7 -666.4 L-618.3 -667.8 L-620.8 -669.4 L-623.2 -671.1 L-625.4 -673.1 L-627.5 -675.2 L-629.4 -677.5 L-631.1 -679.9 L-632.6 -682.5 L-633.9 -685.2 L-635 -687.9 L-635.8 -690.8 L-636.5 -693.7 L-636.9 -696.6 L-637 -699.6 L-637 -702.5 L-636.7 -705.5 L-636.1 -708.4 L-635.3 -711.3 L-634.3 -714.1 L-633.1 -716.8 L-631.7 -719.4 L-630.1 -721.9 L-628.3 -724.2 L-626.3 -726.4 L-624.1 -728.4 L-621.8 -730.3 L-619.3 -731.9 L-616.7 -733.4 L-614 -734.6 L-611.2 -735.7 L-608.4 -736.5 L-605.5 -737 L-602.5 -737.4 L-599.6 -737.5 L-596.6 -737.3 L-593.6 -737 L-590.7 -736.4 L-587.9 -735.6 L-585.1 -734.5 L-582.4 -733.2 L-579.9 -731.8 L-577.4 -730.1 L-575.1 -728.2 L-573 -726.2 L-571 -724 L-569.2 -721.6 L-567.6 -719.1 L-566.2 -716.5 L-565 -713.8 L-564 -711 L-563.3 -708.1 L-562.7 -705.2 L-562.5 -702.2 L-562.4 -699.3 L-562.6 -696.3 L-563 -693.4 L-563.7 -690.5 L-564.6 -687.6 L-565.7 -684.9 L-567 -682.2 L-568.5 -679.7 L-570.2 -677.3 L-572.2 -675 L-574.2 -672.9 L-576.5 -670.9 L-578.9 -669.2 Z " />
<path stroke="rgb(0,0,0)" stroke-opacity="0.991" fill="rgb(255,255,255)" fill-opacity="1" d="M275.8 74.97 L277.8 75.01 L279.8 75.04 L281.7 75.07 L283.7 75.11 L285.7 75.14 L287.6 75.18 L289.6 75.21 L291.6 75.25 L293.5 75.28 L295.5 75.32 L297.5 75.35 L299.4 75.38 L301.4 75.42 L303.4 75.45 L305.3 75.49 L307.3 75.52 L309.3 75.56 L311.2 75.59 L313.2 75.62 L315.2 75.66 L317.1 75.69 L319.1 75.73 L321.1 75.76 L323.1 75.8 L325 75.83 L325 77.8 L325 79.77 L324.9 81.73 L324.9 83.7 L324.8 85.67 L324.8 87.64 L324.8 89.61 L324.7 91.57 L324.7 93.54 L324.7 95.51 L324.6 97.48 L324.6 99.45 L324.6 101.4 L324.5 103.4 L324.5 105.3 L324.5 107.3 L324.4 109.3 L324.4 111.3 L324.4 113.2 L324.3 115.2 L324.3 117.2 L324.3 119.1 L324.2 121.1 L324.2 123.1 L324.2 125 L322.2 125 L320.2 125 L318.3 124.9 L316.3 124.9 L314.3 124.9 L312.4 124.8 L310.4 124.8 L308.4 124.8 L306.4 124.7 L304.5 124.7 L302.5 124.7 L300.5 124.6 L298.6 124.6 L296.6 124.5 L294.6 124.5 L292.7 124.5 L290.7 124.4 L288.7 124.4 L286.8 124.4 L284.8 124.3 L282.8 124.3 L280.9 124.3 L278.9 124.2 L276.9 124.2 L275 124.2 L275 122.2 L275 120.2 L275.1 118.3 L275.1 116.3 L275.1 114.3 L275.2 112.4 L275.2 110.4 L275.2 108.4 L275.3 106.5 L275.3 104.5 L275.3 102.5 L275.4 100.6 L275.4 98.59 L275.4 96.62 L275.5 94.65 L275.5 92.68 L275.5 90.72 L275.6 88.75 L275.6 86.78 L275.7 84.81 L275.7 82.84 L275.7 80.88 L275.8 78.91 L275.8 76.94 L275.8 74.97 Z " />
<path stroke="rgb(0,0,0)" stroke-opacity="1" fill="rgb(255,255,255)" fill-opacity="1" d="M-1075 -599.4 L-1076 -597.5 L-1076 -595.6 L-1076 -593.7 L-1077 -591.8 L-1077 -590 L-1078 -588.3 L-1079 -586.6 L-1080 -585 L-1082 -583.5 L-1083 -582.1 L-1084 -580.9 L-1086 -579.7 L-1088 -578.7 L-1089 -577.8 L-1091 -577 L-1093 -576.4 L-1095 -575.9 L-1097 -575.6 L-1099 -575.4 L-1101 -575.4 L-1103 -575.6 L-1104 -575.9 L-1106 -576.3 L-1108 -576.9 L-1110 -577.6 L-1112 -578.5 L-1113 -579.5 L-1115 -580.7 L-1116 -581.9 L-1118 -583.3 L-1119 -584.8 L-1120 -586.4 L-1121 -588 L-1122 -589.8 L-1123 -591.6 L-1123 -593.4 L-1124 -595.3 L-1124 -597.2 L-1124 -599.1 L-1124 -601.1 L-1124 -603 L-1124 -604.9 L-1123 -606.8 L-1122 -608.6 L-1122 -610.4 L-1121 -612.1 L-1120 -613.7 L-1119 -615.3 L-1117 -616.7 L-1116 -618.1 L-1114 -619.3 L-1113 -620.4 L-1111 -621.3 L-1109 -622.2 L-1108 -622.9 L-1106 -623.4 L-1104 -623.8 L-1102 -624 L-1100 -624.1 L-1098 -624.1 L-1096 -623.8 L-1094 -623.5 L-1092 -623 L-1090 -622.3 L-1089 -621.5 L-1087 -620.5 L-1085 -619.5 L-1084 -618.3 L-1082 -616.9 L-1081 -615.5 L-1080 -614 L-1079 -612.4 L-1078 -610.7 L-1077 -608.9 L-1077 -607.1 L-1076 -605.2 L-1076 -603.3 L-1075 -601.4 L-1075 -599.4 Z " />
<path stroke="rgb(0,0,0)" stroke-opacity="0.991" fill="rgb(255,255,255)" fill-opacity="1" d="M-224.2 175 L-222.2 175 L-220.2 175 L-218.3 175.1 L-216.3 175.1 L-214.3 175.1 L-212.4 175.2 L-210.4 175.2 L-208.4 175.2 L-206.5 175.3 L-204.5 175.3 L-202.5 175.3 L-200.6 175.4 L-198.6 175.4 L-196.6 175.5 L-194.7 175.5 L-192.7 175.5 L-190.7 175.6 L-188.8 175.6 L-186.8 175.6 L-184.8 175.7 L-182.9 175.7 L-180.9 175.7 L-178.9 175.8 L-176.9 175.8 L-175 175.8 L-175 177.8 L-175 179.8 L-175.1 181.7 L-175.1 183.7 L-175.2 185.7 L-175.2 187.6 L-175.2 189.6 L-175.3 191.6 L-175.3 193.5 L-175.3 195.5 L-175.4 197.5 L-175.4 199.4 L-175.4 201.4 L-175.5 203.4 L-175.5 205.3 L-175.5 207.3 L-175.6 209.3 L-175.6 211.3 L-175.6 213.2 L-175.7 215.2 L-175.7 217.2 L-175.7 219.1 L-175.8 221.1 L-175.8 223.1 L-175.8 225 L-177.8 225 L-179.8 225 L-181.7 224.9 L-183.7 224.9 L-185.7 224.9 L-187.6 224.8 L-189.6 224.8 L-191.6 224.8 L-193.6 224.7 L-195.5 224.7 L-197.5 224.7 L-199.5 224.6 L-201.4 224.6 L-203.4 224.5 L-205.4 224.5 L-207.3 224.5 L-209.3 224.4 L-211.3 224.4 L-213.2 224.4 L-215.2 224.3 L-217.2 224.3 L-219.1 224.3 L-221.1 224.2 L-223.1 224.2 L-225 224.2 L-225 222.2 L-225 220.2 L-224.9 218.3 L-224.9 216.3 L-224.9 214.3 L-224.8 212.4 L-224.8 210.4 L-224.8 208.4 L-224.7 206.5 L-224.7 204.5 L-224.7 202.5 L-224.6 200.6 L-224.6 198.6 L-224.6 196.6 L-224.5 194.7 L-224.5 192.7 L-224.5 190.7 L-224.4 188.7 L-224.4 186.8 L-224.3 184.8 L-224.3 182.8 L-224.3 180.9 L-224.2 178.9 L-224.2 176.9 L-224.2 175 Z " />
<path stroke="rgb(0,0,0)" stroke-opacity="1" fill="rgb(255,255,255)" fill-opacity="1" d="M-874.1 -595.4 L-874.5 -593.4 L-875.1 -591.4 L-875.8 -589.5 L-876.7 -587.6 L-877.8 -585.8 L-878.9 -584.1 L-880.3 -582.5 L-881.7 -581 L-883.3 -579.6 L-884.9 -578.4 L-886.7 -577.3 L-888.5 -576.3 L-890.4 -575.5 L-892.4 -574.8 L-894.4 -574.3 L-896.4 -573.9 L-898.5 -573.8 L-900.6 -573.7 L-902.6 -573.9 L-904.7 -574.2 L-906.7 -574.7 L-908.7 -575.3 L-910.6 -576.1 L-912.5 -577 L-914.2 -578.1 L-915.9 -579.3 L-917.5 -580.7 L-918.9 -582.1 L-920.3 -583.7 L-921.5 -585.4 L-922.6 -587.2 L-923.5 -589 L-924.3 -590.9 L-924.9 -592.9 L-925.4 -594.9 L-925.7 -597 L-925.9 -599 L-925.8 -601.1 L-925.7 -603.2 L-925.3 -605.2 L-924.8 -607.2 L-924.1 -609.2 L-923.3 -611.1 L-922.3 -612.9 L-921.2 -614.7 L-920 -616.4 L-918.6 -617.9 L-917.1 -619.3 L-915.5 -620.7 L-913.8 -621.8 L-912 -622.9 L-910.1 -623.8 L-908.2 -624.5 L-906.2 -625.1 L-904.2 -625.5 L-902.1 -625.8 L-900 -625.9 L-898 -625.9 L-895.9 -625.6 L-893.9 -625.2 L-891.9 -624.7 L-889.9 -624 L-888 -623.1 L-886.2 -622.1 L-884.5 -621 L-882.8 -619.7 L-881.3 -618.3 L-879.9 -616.7 L-878.6 -615.1 L-877.5 -613.4 L-876.5 -611.6 L-875.6 -609.7 L-874.9 -607.7 L-874.4 -605.7 L-874 -603.7 L-873.7 -601.6 L-873.7 -599.6 L-873.8 -597.5 L-874.1 -595.4 Z " />
<path stroke="rgb(0,0,0)" stroke-opacity="0.991" fill="rgb(255,255,255)" fill-opacity="1" d="M-24.18 175 L-22.21 175 L-20.24 175 L-18.27 175.1 L-16.31 175.1 L-14.34 175.1 L-12.37 175.2 L-10.4 175.2 L-8.434 175.2 L-6.466 175.3 L-4.498 175.3 L-2.531 175.3 L-0.5626 175.4 L1.405 175.4 L3.373 175.5 L5.341 175.5 L7.309 175.5 L9.277 175.6 L11.24 175.6 L13.21 175.6 L15.18 175.7 L17.15 175.7 L19.12 175.7 L21.08 175.8 L23.05 175.8 L25.02 175.8 L24.99 177.8 L24.95 179.8 L24.92 181.7 L24.88 183.7 L24.85 185.7 L24.81 187.6 L24.78 189.6 L24.75 191.6 L24.71 193.5 L24.68 195.5 L24.64 197.5 L24.61 199.4 L24.57 201.4 L24.54 203.4 L24.5 205.3 L24.47 207.3 L24.44 209.3 L24.4 211.3 L24.37 213.2 L24.33 215.2 L24.3 217.2 L24.26 219.1 L24.23 221.1 L24.2 223.1 L24.16 225 L22.19 225 L20.23 225 L18.26 224.9 L16.29 224.9 L14.32 224.9 L12.35 224.8 L10.39 224.8 L8.418 224.8 L6.45 224.7 L4.482 224.7 L2.514 224.7 L0.5461 224.6 L-1.422 224.6 L-3.39 224.5 L-5.358 224.5 L-7.326 224.5 L-9.293 224.4 L-11.26 224.4 L-13.23 224.4 L-15.2 224.3 L-17.17 224.3 L-19.13 224.3 L-21.1 224.2 L-23.07 224.2 L-25.04 224.2 L-25 222.2 L-24.97 220.2 L-24.93 218.3 L-24.9 216.3 L-24.87 214.3 L-24.83 212.4 L-24.8 210.4 L-24.76 208.4 L-24.73 206.5 L-24.69 204.5 L-24.66 202.5 L-24.62 200.6 L-24.59 198.6 L-24.56 196.6 L-24.52 194.7 L-24.49 192.7 L-24.45 190.7 L-24.42 188.7 L-24.38 186.8 L-24.35 184.8 L-24.32 182.8 L-24.28 180.9 L-24.25 178.9 L-24.21 176.9 L-24.18 175 Z " />
<path stroke="rgb(0,0,0)" stroke-opacity="1" fill="rgb(255,255,255)" fill-opacity="1" d="M-678.9 -569.2 L-681.4 -567.6 L-684.1 -566.3 L-686.8 -565.1 L-689.6 -564.2 L-692.5 -563.5 L-695.4 -563.1 L-698.4 -562.9 L-701.4 -562.9 L-704.3 -563.1 L-707.2 -563.6 L-710.1 -564.3 L-712.9 -565.3 L-715.7 -566.4 L-718.3 -567.8 L-720.8 -569.4 L-723.2 -571.1 L-725.4 -573.1 L-727.5 -575.2 L-729.4 -577.5 L-731.1 -579.9 L-732.6 -582.5 L-733.9 -585.2 L-735 -587.9 L-735.8 -590.8 L-736.5 -593.7 L-736.9 -596.6 L-737 -599.6 L-737 -602.5 L-736.7 -605.5 L-736.1 -608.4 L-735.3 -611.3 L-734.3 -614.1 L-733.1 -616.8 L-731.7 -619.4 L-730.1 -621.9 L-728.3 -624.2 L-726.3 -626.4 L-724.1 -628.4 L-721.8 -630.3 L-719.3 -631.9 L-716.7 -633.4 L-714 -634.6 L-711.2 -635.7 L-708.4 -636.5 L-705.5 -637 L-702.5 -637.4 L-699.6 -637.5 L-696.6 -637.3 L-693.6 -637 L-690.7 -636.4 L-687.9 -635.6 L-685.1 -634.5 L-682.4 -633.2 L-679.9 -631.8 L-677.4 -630.1 L-675.1 -628.2 L-673 -626.2 L-671 -624 L-669.2 -621.6 L-667.6 -619.1 L-666.2 -616.5 L-665 -613.8 L-664 -611 L-663.3 -608.1 L-662.7 -605.2 L-662.5 -602.2 L-662.4 -599.3 L-662.6 -596.3 L-663 -593.4 L-663.7 -590.5 L-664.6 -587.6 L-665.7 -584.9 L-667 -582.2 L-668.5 -579.7 L-670.2 -577.3 L-672.2 -575 L-674.2 -572.9 L-676.5 -570.9 L-678.9 -569.2 Z " />
<path stroke="rgb(0,0,0)" stroke-opacity="0.991" fill="rgb(255,255,255)" fill-opacity="1" d="M175.8 175 L177.8 175 L179.8 175 L181.7 175.1 L183.7 175.1 L185.7 175.1 L187.6 175.2 L189.6 175.2 L191.6 175.2 L193.5 175.3 L195.5 175.3 L197.5 175.3 L199.4 175.4 L201.4 175.4 L203.4 175.5 L205.3 175.5 L207.3 175.5 L209.3 175.6 L211.2 175.6 L213.2 175.6 L215.2 175.7 L217.1 175.7 L219.1 175.7 L221.1 175.8 L223.1 175.8 L225 175.8 L225 177.8 L225 179.8 L224.9 181.7 L224.9 183.7 L224.8 185.7 L224.8 187.6 L224.8 189.6 L224.7 191.6 L224.7 193.5 L224.7 195.5 L224.6 197.5 L224.6 199.4 L224.6 201.4 L224.5 203.4 L224.5 205.3 L224.5 207.3 L224.4 209.3 L224.4 211.3 L224.4 213.2 L224.3 215.2 L224.3 217.2 L224.3 219.1 L224.2 221.1 L224.2 223.1 L224.2 225 L222.2 225 L220.2 225 L218.3 224.9 L216.3 224.9 L214.3 224.9 L212.4 224.8 L210.4 224.8 L208.4 224.8 L206.4 224.7 L204.5 224.7 L202.5 224.7 L200.5 224.6 L198.6 224.6 L196.6 224.5 L194.6 224.5 L192.7 224.5 L190.7 224.4 L188.7 224.4 L186.8 224.4 L184.8 224.3 L182.8 224.3 L180.9 224.3 L178.9 224.2 L176.9 224.2 L175 224.2 L175 222.2 L175 220.2 L175.1 218.3 L175.1 216.3 L175.1 214.3 L175.2 212.4 L175.2 210.4 L175.2 208.4 L175.3 206.5 L175.3 204.5 L175.3 202.5 L175.4 200.6 L175.4 198.6 L175.4 196.6 L175.5 194.7 L175.5 192.7 L175.5 190.7 L175.6 188.7 L175.6 186.8 L175.7 184.8 L175.7 182.8 L175.7 180.9 L175.8 178.9 L175.8 176.9 L175.8 175 Z " />
<path stroke="rgb(0,0,0)" stroke-opacity="1" fill="rgb(255,255,255)" fill-opacity="1" d="M-497.4 -552.9 L-501.1 -552.8 L-504.9 -553.1 L-508.7 -553.7 L-512.3 -554.6 L-515.9 -555.7 L-519.4 -557.2 L-522.8 -558.9 L-526 -560.9 L-529.1 -563.1 L-531.9 -565.6 L-534.6 -568.3 L-537 -571.2 L-539.2 -574.2 L-541.2 -577.5 L-542.9 -580.9 L-544.3 -584.4 L-545.4 -588 L-546.2 -591.7 L-546.8 -595.4 L-547 -599.2 L-547 -603 L-546.6 -606.7 L-545.9 -610.5 L-545 -614.1 L-543.8 -617.7 L-542.2 -621.2 L-540.5 -624.5 L-538.4 -627.7 L-536.1 -630.7 L-533.6 -633.5 L-530.9 -636.1 L-527.9 -638.5 L-524.8 -640.6 L-521.5 -642.5 L-518.1 -644.1 L-514.6 -645.5 L-510.9 -646.5 L-507.2 -647.3 L-503.5 -647.7 L-499.7 -647.9 L-495.9 -647.8 L-492.2 -647.3 L-488.5 -646.6 L-484.8 -645.6 L-481.3 -644.3 L-477.8 -642.7 L-474.5 -640.9 L-471.4 -638.7 L-468.4 -636.4 L-465.7 -633.8 L-463.1 -631 L-460.8 -628 L-458.7 -624.9 L-456.9 -621.6 L-455.4 -618.1 L-454.1 -614.5 L-453.1 -610.9 L-452.4 -607.2 L-452 -603.4 L-451.9 -599.6 L-452.1 -595.9 L-452.7 -592.1 L-453.5 -588.4 L-454.5 -584.8 L-455.9 -581.3 L-457.6 -577.9 L-459.5 -574.6 L-461.7 -571.5 L-464.1 -568.6 L-466.7 -565.9 L-469.6 -563.4 L-472.6 -561.2 L-475.8 -559.1 L-479.1 -557.4 L-482.6 -555.9 L-486.2 -554.7 L-489.9 -553.8 L-493.6 -553.2 L-497.4 -552.9 Z " />
<path stroke="rgb(0,0,0)" stroke-opacity="0.991" fill="rgb(255,255,255)" fill-opacity="1" d="M-324.2 275 L-322.2 275 L-320.2 275 L-318.3 275.1 L-316.3 275.1 L-314.3 275.1 L-312.4 275.2 L-310.4 275.2 L-308.4 275.2 L-306.5 275.3 L-304.5 275.3 L-302.5 275.3 L-300.6 275.4 L-298.6 275.4 L-296.6 275.5 L-294.7 275.5 L-292.7 275.5 L-290.7 275.6 L-288.8 275.6 L-286.8 275.6 L-284.8 275.7 L-282.9 275.7 L-280.9 275.7 L-278.9 275.8 L-276.9 275.8 L-275 275.8 L-275 277.8 L-275 279.8 L-275.1 281.7 L-275.1 283.7 L-275.2 285.7 L-275.2 287.6 L-275.2 289.6 L-275.3 291.6 L-275.3 293.5 L-275.3 295.5 L-275.4 297.5 L-275.4 299.4 L-275.4 301.4 L-275.5 303.4 L-275.5 305.3 L-275.5 307.3 L-275.6 309.3 L-275.6 311.3 L-275.6 313.2 L-275.7 315.2 L-275.7 317.2 L-275.7 319.1 L-275.8 321.1 L-275.8 323.1 L-275.8 325 L-277.8 325 L-279.8 325 L-281.7 324.9 L-283.7 324.9 L-285.7 324.9 L-287.6 324.8 L-289.6 324.8 L-291.6 324.8 L-293.6 324.7 L-295.5 324.7 L-297.5 324.7 L-299.5 324.6 L-301.4 324.6 L-303.4 324.5 L-305.4 324.5 L-307.3 324.5 L-309.3 324.4 L-311.3 324.4 L-313.2 324.4 L-315.2 324.3 L-317.2 324.3 L-319.1 324.3 L-321.1 324.2 L-323.1 324.2 L-325 324.2 L-325 322.2 L-325 320.2 L-324.9 318.3 L-324.9 316.3 L-324.9 314.3 L-324.8 312.4 L-324.8 310.4 L-324.8 308.4 L-324.7 306.5 L-324.7 304.5 L-324.7 302.5 L-324.6 300.6 L-324.6 298.6 L-324.6 296.6 L-324.5 294.7 L-324.5 292.7 L-324.5 290.7 L-324.4 288.7 L-324.4 286.8 L-324.3 284.8 L-324.3 282.8 L-324.3 280.9 L-324.2 278.9 L-324.2 276.9 L-324.2 275 Z " />
<path stroke="rgb(0,0,0)" stroke-opacity="1" fill="rgb(255,255,255)" fill-opacity="1" d="M-974.1 -495.4 L-974.5 -493.4 L-975.1 -491.4 L-975.8 -489.5 L-976.7 -487.6 L-977.8 -485.8 L-978.9 -484.1 L-980.3 -482.5 L-981.7 -481 L-983.3 -479.6 L-984.9 -478.4 L-986.7 -477.3 L-988.5 -476.3 L-990.4 -475.5 L-992.4 -474.8 L-994.4 -474.3 L-996.4 -473.9 L-998.5 -473.8 L-1001 -473.7 L-1003 -473.9 L-1005 -474.2 L-1007 -474.7 L-1009 -475.3 L-1011 -476.1 L-1012 -477 L-1014 -478.1 L-1016 -479.3 L-1017 -480.7 L-1019 -482.1 L-1020 -483.7 L-1022 -485.4 L-1023 -487.2 L-1024 -489 L-1024 -490.9 L-1025 -492.9 L-1025 -494.9 L-1026 -497 L-1026 -499 L-1026 -501.1 L-1026 -503.2 L-1025 -505.2 L-1025 -507.2 L-1024 -509.2 L-1023 -511.1 L-1022 -512.9 L-1021 -514.7 L-1020 -516.4 L-1019 -517.9 L-1017 -519.3 L-1015 -520.7 L-1014 -521.8 L-1012 -522.9 L-1010 -523.8 L-1008 -524.5 L-1006 -525.1 L-1004 -525.5 L-1002 -525.8 L-1000 -525.9 L-998 -525.9 L-995.9 -525.6 L-993.9 -525.2 L-991.9 -524.7 L-989.9 -524 L-988 -523.1 L-986.2 -522.1 L-984.5 -521 L-982.8 -519.7 L-981.3 -518.3 L-979.9 -516.7 L-978.6 -515.1 L-977.5 -513.4 L-976.5 -511.6 L-975.6 -509.7 L-974.9 -507.7 L-974.4 -505.7 L-974 -503.7 L-973.7 -501.6 L-973.7 -499.6 L-973.8 -497.5 L-974.1 -495.4 Z " />
<path stroke="rgb(0,0,0)" stroke-opacity="0.991" fill="rgb(255,255,255)" fill-opacity="1" d="M-124.2 275 L-122.2 275 L-120.2 275 L-118.3 275.1 L-116.3 275.1 L-114.3 275.1 L-112.4 275.2 L-110.4 275.2 L-108.4 275.2 L-106.5 275.3 L-104.5 275.3 L-102.5 275.3 L-100.6 275.4 L-98.59 275.4 L-96.63 275.5 L-94.66 275.5 L-92.69 275.5 L-90.72 275.6 L-88.76 275.6 L-86.79 275.6 L-84.82 275.7 L-82.85 275.7 L-80.88 275.7 L-78.92 275.8 L-76.95 275.8 L-74.98 275.8 L-75.01 277.8 L-75.05 279.8 L-75.08 281.7 L-75.12 283.7 L-75.15 285.7 L-75.19 287.6 L-75.22 289.6 L-75.25 291.6 L-75.29 293.5 L-75.32 295.5 L-75.36 297.5 L-75.39 299.4 L-75.43 301.4 L-75.46 303.4 L-75.5 305.3 L-75.53 307.3 L-75.56 309.3 L-75.6 311.3 L-75.63 313.2 L-75.67 315.2 L-75.7 317.2 L-75.74 319.1 L-75.77 321.1 L-75.8 323.1 L-75.84 325 L-77.81 325 L-79.77 325 L-81.74 324.9 L-83.71 324.9 L-85.68 324.9 L-87.65 324.8 L-89.61 324.8 L-91.58 324.8 L-93.55 324.7 L-95.52 324.7 L-97.49 324.7 L-99.45 324.6 L-101.4 324.6 L-103.4 324.5 L-105.4 324.5 L-107.3 324.5 L-109.3 324.4 L-111.3 324.4 L-113.2 324.4 L-115.2 324.3 L-117.2 324.3 L-119.1 324.3 L-121.1 324.2 L-123.1 324.2 L-125 324.2 L-125 322.2 L-125 320.2 L-124.9 318.3 L-124.9 316.3 L-124.9 314.3 L-124.8 312.4 L-124.8 310.4 L-124.8 308.4 L-124.7 306.5 L-124.7 304.5 L-124.7 302.5 L-124.6 300.6 L-124.6 298.6 L-124.6 296.6 L-124.5 294.7 L-124.5 292.7 L-124.5 290.7 L-124.4 288.7 L-124.4 286.8 L-124.3 284.8 L-124.3 282.8 L-124.3 280.9 L-124.2 278.9 L-124.2 276.9 L-124.2 275 Z " />
<path stroke="rgb(0,0,0)" stroke-opacity="1" fill="rgb(255,255,255)" fill-opacity="1" d="M-778.9 -469.2 L-781.4 -467.6 L-784.1 -466.3 L-786.8 -465.1 L-789.6 -464.2 L-792.5 -463.5 L-795.4 -463.1 L-798.4 -462.9 L-801.4 -462.9 L-804.3 -463.1 L-807.2 -463.6 L-810.1 -464.3 L-812.9 -465.3 L-815.7 -466.4 L-818.3 -467.8 L-820.8 -469.4 L-823.2 -471.1 L-825.4 -473.1 L-827.5 -475.2 L-829.4 -477.5 L-831.1 -479.9 L-832.6 -482.5 L-833.9 -485.2 L-835 -487.9 L-835.8 -490.8 L-836.5 -493.7 L-836.9 -496.6 L-837 -499.6 L-837 -502.5 L-836.7 -505.5 L-836.1 -508.4 L-835.3 -511.3 L-834.3 -514.1 L-833.1 -516.8 L-831.7 -519.4 L-830.1 -521.9 L-828.3 -524.2 L-826.3 -526.4 L-824.1 -528.4 L-821.8 -530.3 L-819.3 -531.9 L-816.7 -533.4 L-814 -534.6 L-811.2 -535.7 L-808.4 -536.5 L-805.5 -537 L-802.5 -537.4 L-799.6 -537.5 L-796.6 -537.3 L-793.6 -537 L-790.7 -536.4 L-787.9 -535.6 L-785.1 -534.5 L-782.4 -533.2 L-779.9 -531.8 L-777.4 -530.1 L-775.1 -528.2 L-773 -526.2 L-771 -524 L-769.2 -521.6 L-767.6 -519.1 L-766.2 -516.5 L-765 -513.8 L-764 -511 L-763.3 -508.1 L-762.7 -505.2 L-762.5 -502.2 L-762.4 -499.3 L-762.6 -496.3 L-763 -493.4 L-763.7 -490.5 L-764.6 -487.6 L-765.7 -484.9 L-767 -482.2 L-768.5 -479.7 L-770.2 -477.3 L-772.2 -475 L-774.2 -472.9 L-776.5 -470.9 L-778.9 -469.2 Z " />
<path stroke="rgb(0,0,0)" stroke-opacity="0.991" fill="rgb(255,255,255)" fill-opacity="1" d="M75.82 275 L77.79 275 L79.76 275 L81.73 275.1 L83.69 275.1 L85.66 275.1 L87.63 275.2 L89.6 275.2 L91.57 275.2 L93.53 275.3 L95.5 275.3 L97.47 275.3 L99.44 275.4 L101.4 275.4 L103.4 275.5 L105.3 275.5 L107.3 275.5 L109.3 275.6 L111.2 275.6 L113.2 275.6 L115.2 275.7 L117.1 275.7 L119.1 275.7 L121.1 275.8 L123.1 275.8 L125 275.8 L125 277.8 L125 279.8 L124.9 281.7 L124.9 283.7 L124.8 285.7 L124.8 287.6 L124.8 289.6 L124.7 291.6 L124.7 293.5 L124.7 295.5 L124.6 297.5 L124.6 299.4 L124.6 301.4 L124.5 303.4 L124.5 305.3 L124.5 307.3 L124.4 309.3 L124.4 311.3 L124.4 313.2 L124.3 315.2 L124.3 317.2 L124.3 319.1 L124.2 321.1 L124.2 323.1 L124.2 325 L122.2 325 L120.2 325 L118.3 324.9 L116.3 324.9 L114.3 324.9 L112.4 324.8 L110.4 324.8 L108.4 324.8 L106.4 324.7 L104.5 324.7 L102.5 324.7 L100.5 324.6 L98.58 324.6 L96.61 324.5 L94.64 324.5 L92.67 324.5 L90.71 324.4 L88.74 324.4 L86.77 324.4 L84.8 324.3 L82.83 324.3 L80.87 324.3 L78.9 324.2 L76.93 324.2 L74.96 324.2 L75 322.2 L75.03 320.2 L75.07 318.3 L75.1 316.3 L75.13 314.3 L75.17 312.4 L75.2 310.4 L75.24 308.4 L75.27 306.5 L75.31 304.5 L75.34 302.5 L75.38 300.6 L75.41 298.6 L75.44 296.6 L75.48 294.7 L75.51 292.7 L75.55 290.7 L75.58 288.7 L75.62 286.8 L75.65 284.8 L75.68 282.8 L75.72 280.9 L75.75 278.9 L75.79 276.9 L75.82 275 Z " />
<path stroke="rgb(0,0,0)" stroke-opacity="1" fill="rgb(255,255,255)" fill-opacity="1" d="M-597.4 -452.9 L-601.1 -452.8 L-604.9 -453.1 L-608.7 -453.7 L-612.3 -454.6 L-615.9 -455.7 L-619.4 -457.2 L-622.8 -458.9 L-626 -460.9 L-629.1 -463.1 L-631.9 -465.6 L-634.6 -468.3 L-637 -471.2 L-639.2 -474.2 L-641.2 -477.5 L-642.9 -480.9 L-644.3 -484.4 L-645.4 -488 L-646.2 -491.7 L-646.8 -495.4 L-647 -499.2 L-647 -503 L-646.6 -506.7 L-645.9 -510.5 L-645 -514.1 L-643.8 -517.7 L-642.2 -521.2 L-640.5 -524.5 L-638.4 -527.7 L-636.1 -530.7 L-633.6 -533.5 L-630.9 -536.1 L-627.9 -538.5 L-624.8 -540.6 L-621.5 -542.5 L-618.1 -544.1 L-614.6 -545.5 L-610.9 -546.5 L-607.2 -547.3 L-603.5 -547.7 L-599.7 -547.9 L-595.9 -547.8 L-592.2 -547.3 L-588.5 -546.6 L-584.8 -545.6 L-581.3 -544.3 L-577.8 -542.7 L-574.5 -540.9 L-571.4 -538.7 L-568.4 -536.4 L-565.7 -533.8 L-563.1 -531 L-560.8 -528 L-558.7 -524.9 L-556.9 -521.6 L-555.4 -518.1 L-554.1 -514.5 L-553.1 -510.9 L-552.4 -507.2 L-552 -503.4 L-551.9 -499.6 L-552.1 -495.9 L-552.7 -492.1 L-553.5 -488.4 L-554.5 -484.8 L-555.9 -481.3 L-557.6 -477.9 L-559.5 -474.6 L-561.7 -471.5 L-564.1 -468.6 L-566.7 -465.9 L-569.6 -463.4 L-572.6 -461.2 L-575.8 -459.1 L-579.1 -457.4 L-582.6 -455.9 L-586.2 -454.7 L-589.9 -453.8 L-593.6 -453.2 L-597.4 -452.9 Z " />
<path stroke="rgb(0,0,0)" stroke-opacity="0.991" fill="rgb(255,255,255)" fill-opacity="1" d="M275.8 275 L277.8 275 L279.8 275 L281.7 275.1 L283.7 275.1 L285.7 275.1 L287.6 275.2 L289.6 275.2 L291.6 275.2 L293.5 275.3 L295.5 275.3 L297.5 275.3 L299.4 275.4 L301.4 275.4 L303.4 275.5 L305.3 275.5 L307.3 275.5 L309.3 275.6 L311.2 275.6 L313.2 275.6 L315.2 275.7 L317.1 275.7 L319.1 275.7 L321.1 275.8 L323.1 275.8 L325 275.8 L325 277.8 L325 279.8 L324.9 281.7 L324.9 283.7 L324.8 285.7 L324.8 287.6 L324.8 289.6 L324.7 291.6 L324.7 293.5 L324.7 295.5 L324.6 297.5 L324.6 299.4 L324.6 301.4 L324.5 303.4 L324.5 305.3 L324.5 307.3 L324.4 309.3 L324.4 311.3 L324.4 313.2 L324.3 315.2 L324.3 317.2 L324.3 319.1 L324.2 321.1 L324.2 323.1 L324.2 325 L322.2 325 L320.2 325 L318.3 324.9 L316.3 324.9 L314.3 324.9 L312.4 324.8 L310.4 324.8 L308.4 324.8 L306.4 324.7 L304.5 324.7 L302.5 324.7 L300.5 324.6 L298.6 324.6 L296.6 324.5 L294.6 324.5 L292.7 324.5 L290.7 324.4 L288.7 324.4 L286.8 324.4 L284.8 324.3 L282.8 324.3 L280.9 324.3 L278.9 324.2 L276.9 324.2 L275 324.2 L275 322.2 L275 320.2 L275.1 318.3 L275.1 316.3 L275.1 314.3 L275.2 312.4 L275.2 310.4 L275.2 308.4 L275.3 306.5 L275.3 304.5 L275.3 302.5 L275.4 300.6 L275.4 298.6 L275.4 296.6 L275.5 294.7 L275.5 292.7 L275.5 290.7 L275.6 288.7 L275.6 286.8 L275.7 284.8 L275.7 282.8 L275.7 280.9 L275.8 278.9 L275.8 276.9 L275.8 275 Z " />
</g>
</g>
</svg>
