<!DOCTYPE svg>
<svg xmlns="http://www.w3.org/2000/svg" xmlns:xlink="http://www.w3.org/1999/xlink" width="1000" height="1000">
<g transform="translate(500.000000,500.000000)">
<g transform="scale(3.000000,3.000000)">
<path stroke="rgb(0,0,0)" stroke-opacity="1" fill="rgb(255,255,255)" fill-opacity="1" d="M-598.8 -595.2 L-599.7 -595.3 L-600.7 -595.5 L-601.7 -595.6 L-602.7 -595.8 L-603.7 -595.9 L-604.6 -596.1 L-605.6 -596.2 L-606.6 -596.3 L-607.6 -596.5 L-608.6 -596.6 L-609.5 -596.8 L-610.5 -596.9 L-611.5 -597.1 L-612.5 -597.2 L-613.4 -597.4 L-614.4 -597.5 L-615.4 -597.6 L-616.4 -597.8 L-617.4 -597.9 L-618.3 -598.1 L-619.3 -598.2 L-620.3 -598.4 L-621.3 -598.5 L-622.3 -598.7 L-623.2 -598.8 L-623.1 -599.8 L-622.9 -600.8 L-622.8 -601.7 L-622.7 -602.7 L-622.5 -603.7 L-622.4 -604.7 L-622.2 -605.7 L-622.1 -606.6 L-621.9 -607.6 L-621.8 -608.6 L-621.6 -609.6 L-621.5 -610.5 L-621.4 -611.5 L-621.2 -612.5 L-621.1 -613.5 L-620.9 -614.5 L-620.8 -615.4 L-620.6 -616.4 L-620.5 -617.4 L-620.3 -618.4 L-620.2 -619.4 L-620.1 -620.3 L-619.9 -621.3 L-619.8 -622.3 L-619.6 -623.3 L-618.6 -623.1 L-617.7 -623 L-616.7 -622.8 L-615.7 -622.7 L-614.7 -622.5 L-613.7 -622.4 L-612.8 -622.3 L-611.8 -622.1 L-610.8 -622 L-609.8 -621.8 L-608.9 -621.7 L-607.9 -621.5 L-606.9 -621.4 L-605.9 -621.2 L-604.9 -621.1 L-604 -621 L-603 -620.8 L-602 -620.7 L-601 -620.5 L-600 -620.4 L-599.1 -620.2 L-598.1 -620.1 L-597.1 -619.9 L-596.1 -619.8 L-595.2 -619.7 L-595.3 -618.7 L-595.4 -617.7 L-595.6 -616.7 L-595.7 -615.7 L-595.9 -614.8 L-596 -613.8 L-596.2 -612.8 L-596.3 -611.8 L-596.5 -610.8 L-596.6 -609.9 L-596.7 -608.9 L-596.9 -607.9 L-597 -606.9 L-597.2 -606 L-597.3 -605 L-597.5 -604 L-597.6 -603 L-597.8 -602 L-597.9 -601.1 L-598 -600.1 L-598.2 -599.1 L-598.3 -598.1 L-598.5 -597.1 L-598.6 -596.2 L-598.8 -595.2 Z " />
<path stroke="rgb(0,0,0)" stroke-opacity="1" fill="rgb(255,255,255)" fill-opacity="1" d="M-199.6 -312.3 L-198.6 -312.2 L-197.6 -312.1 L-196.7 -311.9 L-195.7 -311.6 L-194.8 -311.3 L-193.9 -310.8 L-193 -310.3 L-192.2 -309.8 L-191.5 -309.1 L-190.8 -308.5 L-190.1 -307.7 L-189.5 -306.9 L-189 -306.1 L-188.5 -305.2 L-188.1 -304.3 L-187.8 -303.4 L-187.5 -302.4 L-187.4 -301.5 L-187.3 -300.5 L-187.3 -299.5 L-187.3 -298.5 L-187.5 -297.5 L-187.7 -296.6 L-188 -295.6 L-188.4 -294.7 L-188.8 -293.8 L-189.3 -293 L-189.9 -292.2 L-190.6 -291.4 L-191.2 -290.7 L-192 -290.1 L-192.8 -289.5 L-193.6 -289 L-194.5 -288.6 L-195.4 -288.2 L-196.4 -287.9 L-197.3 -287.7 L-198.3 -287.5 L-199.3 -287.4 L-200.3 -287.4 L-201.3 -287.5 L-202.2 -287.7 L-203.2 -287.9 L-204.1 -288.3 L-205 -288.6 L-205.9 -289.1 L-206.7 -289.6 L-207.5 -290.2 L-208.3 -290.9 L-209 -291.6 L-209.6 -292.4 L-210.2 -293.2 L-210.6 -294 L-211.1 -294.9 L-211.4 -295.8 L-211.7 -296.8 L-211.9 -297.7 L-212.1 -298.7 L-212.1 -299.7 L-212.1 -300.7 L-212 -301.7 L-211.8 -302.6 L-211.5 -303.6 L-211.2 -304.5 L-210.8 -305.4 L-210.3 -306.3 L-209.8 -307.1 L-209.2 -307.9 L-208.5 -308.6 L-207.8 -309.3 L-207 -309.9 L-206.2 -310.4 L-205.3 -310.9 L-204.4 -311.3 L-203.5 -311.7 L-202.5 -311.9 L-201.6 -312.1 L-200.6 -312.2 L-199.6 -312.3 Z " />
<path stroke="rgb(0,0,0)" stroke-opacity="1" fill="rgb(255,255,255)" fill-opacity="1" d="M-390.7 -589.7 L-391.7 -589.7 L-392.7 -589.7 L-393.6 -589.8 L-394.6 -589.8 L-395.6 -589.9 L-396.6 -589.9 L-397.6 -589.9 L-398.6 -590 L-399.6 -590 L-400.6 -590.1 L-401.6 -590.1 L-402.5 -590.2 L-403.5 -590.2 L-404.5 -590.2 L-405.5 -590.3 L-406.5 -590.3 L-407.5 -590.4 L-408.5 -590.4 L-409.5 -590.4 L-410.4 -590.5 L-411.4 -590.5 L-412.4 -590.6 L-413.4 -590.6 L-414.4 -590.6 L-415.4 -590.7 L-415.3 -591.7 L-415.3 -592.7 L-415.3 -593.7 L-415.2 -594.6 L-415.2 -595.6 L-415.1 -596.6 L-415.1 -597.6 L-415.1 -598.6 L-415 -599.6 L-415 -600.6 L-414.9 -601.6 L-414.9 -602.5 L-414.9 -603.5 L-414.8 -604.5 L-414.8 -605.5 L-414.7 -606.5 L-414.7 -607.5 L-414.6 -608.5 L-414.6 -609.5 L-414.6 -610.5 L-414.5 -611.4 L-414.5 -612.4 L-414.4 -613.4 L-414.4 -614.4 L-414.4 -615.4 L-413.4 -615.4 L-412.4 -615.3 L-411.4 -615.3 L-410.4 -615.2 L-409.4 -615.2 L-408.4 -615.2 L-407.4 -615.1 L-406.5 -615.1 L-405.5 -615 L-404.5 -615 L-403.5 -614.9 L-402.5 -614.9 L-401.5 -614.9 L-400.5 -614.8 L-399.5 -614.8 L-398.5 -614.7 L-397.6 -614.7 L-396.6 -614.7 L-395.6 -614.6 L-394.6 -614.6 L-393.6 -614.5 L-392.6 -614.5 L-391.6 -614.5 L-390.6 -614.4 L-389.6 -614.4 L-389.7 -613.4 L-389.7 -612.4 L-389.8 -611.4 L-389.8 -610.4 L-389.9 -609.4 L-389.9 -608.4 L-389.9 -607.5 L-390 -606.5 L-390 -605.5 L-390.1 -604.5 L-390.1 -603.5 L-390.1 -602.5 L-390.2 -601.5 L-390.2 -600.5 L-390.3 -599.5 L-390.3 -598.6 L-390.3 -597.6 L-390.4 -596.6 L-390.4 -595.6 L-390.5 -594.6 L-390.5 -593.6 L-390.6 -592.6 L-390.6 -591.6 L-390.6 -590.6 L-390.7 -589.7 Z " />
<path stroke="rgb(0,0,0)" stroke-opacity="1" fill="rgb(255,255,255)" fill-opacity="1" d="M1.122 -312.5 L2.128 -312.4 L3.123 -312.3 L4.1 -312 L5.054 -311.6 L5.977 -311.2 L6.864 -310.7 L7.71 -310.2 L8.509 -309.6 L9.256 -308.9 L9.946 -308.1 L10.58 -307.4 L11.14 -306.5 L11.64 -305.6 L12.06 -304.7 L12.41 -303.8 L12.68 -302.8 L12.88 -301.8 L13 -300.8 L13.03 -299.8 L12.99 -298.8 L12.86 -297.8 L12.66 -296.8 L12.37 -295.8 L12.01 -294.9 L11.58 -293.9 L11.08 -293.1 L10.5 -292.2 L9.867 -291.4 L9.169 -290.7 L8.416 -290 L7.611 -289.4 L6.76 -288.9 L5.868 -288.4 L4.941 -288 L3.984 -287.7 L3.005 -287.4 L2.008 -287.2 L1.001 -287.1 L-0.01145 -287.1 L-1.021 -287.2 L-2.023 -287.3 L-3.01 -287.6 L-3.976 -287.9 L-4.915 -288.2 L-5.821 -288.7 L-6.688 -289.2 L-7.511 -289.8 L-8.285 -290.4 L-9.004 -291.2 L-9.664 -291.9 L-10.26 -292.7 L-10.79 -293.6 L-11.25 -294.5 L-11.64 -295.4 L-11.95 -296.4 L-12.19 -297.4 L-12.34 -298.4 L-12.42 -299.4 L-12.41 -300.4 L-12.33 -301.4 L-12.16 -302.4 L-11.92 -303.4 L-11.6 -304.4 L-11.2 -305.3 L-10.73 -306.2 L-10.19 -307 L-9.588 -307.9 L-8.921 -308.6 L-8.195 -309.3 L-7.415 -310 L-6.586 -310.5 L-5.714 -311.1 L-4.804 -311.5 L-3.861 -311.9 L-2.893 -312.2 L-1.904 -312.4 L-0.9007 -312.5 L0.1098 -312.6 L1.122 -312.5 Z " />
<path stroke="rgb(0,0,0)" stroke-opacity="1" fill="rgb(255,255,255)" fill-opacity="1" d="M-188.3 -588 L-189.2 -588 L-190.2 -588 L-191.2 -588 L-192.2 -588.1 L-193.2 -588.1 L-194.2 -588.1 L-195.2 -588.1 L-196.2 -588.1 L-197.2 -588.1 L-198.1 -588.1 L-199.1 -588.1 L-200.1 -588.1 L-201.1 -588.1 L-202.1 -588.2 L-203.1 -588.2 L-204.1 -588.2 L-205.1 -588.2 L-206.1 -588.2 L-207.1 -588.2 L-208 -588.2 L-209 -588.2 L-210 -588.2 L-211 -588.2 L-212 -588.2 L-213 -588.3 L-213 -589.2 L-213 -590.2 L-213 -591.2 L-213 -592.2 L-212.9 -593.2 L-212.9 -594.2 L-212.9 -595.2 L-212.9 -596.2 L-212.9 -597.2 L-212.9 -598.2 L-212.9 -599.1 L-212.9 -600.1 L-212.9 -601.1 L-212.9 -602.1 L-212.8 -603.1 L-212.8 -604.1 L-212.8 -605.1 L-212.8 -606.1 L-212.8 -607.1 L-212.8 -608 L-212.8 -609 L-212.8 -610 L-212.8 -611 L-212.8 -612 L-212.7 -613 L-211.8 -613 L-210.8 -613 L-209.8 -613 L-208.8 -613 L-207.8 -612.9 L-206.8 -612.9 L-205.8 -612.9 L-204.8 -612.9 L-203.8 -612.9 L-202.9 -612.9 L-201.9 -612.9 L-200.9 -612.9 L-199.9 -612.9 L-198.9 -612.9 L-197.9 -612.8 L-196.9 -612.8 L-195.9 -612.8 L-194.9 -612.8 L-193.9 -612.8 L-193 -612.8 L-192 -612.8 L-191 -612.8 L-190 -612.8 L-189 -612.8 L-188 -612.7 L-188 -611.8 L-188 -610.8 L-188 -609.8 L-188.1 -608.8 L-188.1 -607.8 L-188.1 -606.8 L-188.1 -605.8 L-188.1 -604.8 L-188.1 -603.8 L-188.1 -602.9 L-188.1 -601.9 L-188.1 -600.9 L-188.1 -599.9 L-188.1 -598.9 L-188.2 -597.9 L-188.2 -596.9 L-188.2 -595.9 L-188.2 -594.9 L-188.2 -593.9 L-188.2 -593 L-188.2 -592 L-188.2 -591 L-188.2 -590 L-188.2 -589 L-188.3 -588 Z " />
<path stroke="rgb(0,0,0)" stroke-opacity="1" fill="rgb(255,255,255)" fill-opacity="1" d="M209.5 -313.1 L210.5 -312.3 L211.5 -311.5 L212.4 -310.5 L213.2 -309.5 L213.9 -308.5 L214.6 -307.3 L215.1 -306.2 L215.6 -305 L215.9 -303.7 L216.2 -302.5 L216.4 -301.2 L216.4 -299.9 L216.4 -298.6 L216.2 -297.3 L216 -296.1 L215.6 -294.8 L215.2 -293.6 L214.6 -292.4 L214 -291.3 L213.3 -290.3 L212.5 -289.2 L211.6 -288.3 L210.6 -287.4 L209.6 -286.6 L208.5 -285.9 L207.4 -285.3 L206.2 -284.8 L205 -284.4 L203.8 -284 L202.5 -283.8 L201.2 -283.7 L199.9 -283.6 L198.7 -283.7 L197.4 -283.9 L196.1 -284.1 L194.9 -284.5 L193.7 -285 L192.5 -285.5 L191.4 -286.2 L190.4 -286.9 L189.4 -287.8 L188.4 -288.7 L187.6 -289.6 L186.8 -290.7 L186.1 -291.8 L185.5 -292.9 L185 -294.1 L184.6 -295.3 L184.3 -296.6 L184.1 -297.8 L184 -299.1 L184 -300.4 L184.1 -301.7 L184.3 -303 L184.6 -304.2 L185 -305.5 L185.5 -306.6 L186.1 -307.8 L186.7 -308.9 L187.5 -309.9 L188.3 -310.9 L189.3 -311.8 L190.2 -312.6 L191.3 -313.4 L192.4 -314.1 L193.6 -314.6 L194.8 -315.1 L196 -315.5 L197.2 -315.8 L198.5 -316 L199.8 -316 L201.1 -316 L202.4 -315.9 L203.6 -315.7 L204.9 -315.4 L206.1 -314.9 L207.3 -314.4 L208.4 -313.8 L209.5 -313.1 Z " />
<path stroke="rgb(0,0,0)" stroke-opacity="1" fill="rgb(255,255,255)" fill-opacity="1" d="M11.91 -587.9 L10.92 -587.9 L9.931 -587.9 L8.941 -587.9 L7.952 -587.9 L6.962 -587.9 L5.973 -587.9 L4.984 -588 L3.994 -588 L3.005 -588 L2.016 -588 L1.026 -588 L0.03675 -588 L-0.9526 -588 L-1.942 -588 L-2.931 -588 L-3.921 -588 L-4.91 -588 L-5.9 -588 L-6.889 -588 L-7.878 -588.1 L-8.868 -588.1 L-9.857 -588.1 L-10.85 -588.1 L-11.84 -588.1 L-12.83 -588.1 L-12.82 -589.1 L-12.81 -590.1 L-12.8 -591.1 L-12.79 -592.1 L-12.79 -593 L-12.78 -594 L-12.77 -595 L-12.76 -596 L-12.76 -597 L-12.75 -598 L-12.74 -599 L-12.73 -600 L-12.73 -601 L-12.72 -601.9 L-12.71 -602.9 L-12.7 -603.9 L-12.7 -604.9 L-12.69 -605.9 L-12.68 -606.9 L-12.67 -607.9 L-12.66 -608.9 L-12.66 -609.9 L-12.65 -610.8 L-12.64 -611.8 L-12.63 -612.8 L-11.65 -612.8 L-10.66 -612.8 L-9.666 -612.8 L-8.677 -612.8 L-7.688 -612.8 L-6.698 -612.8 L-5.709 -612.8 L-4.719 -612.8 L-3.73 -612.8 L-2.741 -612.8 L-1.751 -612.7 L-0.7618 -612.7 L0.2275 -612.7 L1.217 -612.7 L2.206 -612.7 L3.196 -612.7 L4.185 -612.7 L5.174 -612.7 L6.164 -612.7 L7.153 -612.7 L8.143 -612.7 L9.132 -612.7 L10.12 -612.7 L11.11 -612.6 L12.1 -612.6 L12.09 -611.6 L12.08 -610.7 L12.08 -609.7 L12.07 -608.7 L12.06 -607.7 L12.05 -606.7 L12.05 -605.7 L12.04 -604.7 L12.03 -603.7 L12.02 -602.7 L12.02 -601.8 L12.01 -600.8 L12 -599.8 L11.99 -598.8 L11.99 -597.8 L11.98 -596.8 L11.97 -595.8 L11.96 -594.8 L11.96 -593.8 L11.95 -592.8 L11.94 -591.9 L11.93 -590.9 L11.92 -589.9 L11.92 -588.9 L11.91 -587.9 Z " />
<path stroke="rgb(0,0,0)" stroke-opacity="1" fill="rgb(255,255,255)" fill-opacity="1" d="M-299.6 -212.3 L-298.6 -212.2 L-297.6 -212.1 L-296.7 -211.9 L-295.7 -211.6 L-294.8 -211.3 L-293.9 -210.8 L-293 -210.3 L-292.2 -209.8 L-291.5 -209.1 L-290.8 -208.5 L-290.1 -207.7 L-289.5 -206.9 L-289 -206.1 L-288.5 -205.2 L-288.1 -204.3 L-287.8 -203.4 L-287.5 -202.4 L-287.4 -201.5 L-287.3 -200.5 L-287.3 -199.5 L-287.3 -198.5 L-287.5 -197.5 L-287.7 -196.6 L-288 -195.6 L-288.4 -194.7 L-288.8 -193.8 L-289.3 -193 L-289.9 -192.2 L-290.6 -191.4 L-291.2 -190.7 L-292 -190.1 L-292.8 -189.5 L-293.6 -189 L-294.5 -188.6 L-295.4 -188.2 L-296.4 -187.9 L-297.3 -187.7 L-298.3 -187.5 L-299.3 -187.4 L-300.3 -187.4 L-301.3 -187.5 L-302.2 -187.7 L-303.2 -187.9 L-304.1 -188.3 L-305 -188.6 L-305.9 -189.1 L-306.7 -189.6 L-307.5 -190.2 L-308.3 -190.9 L-309 -191.6 L-309.6 -192.4 L-310.2 -193.2 L-310.6 -194 L-311.1 -194.9 L-311.4 -195.8 L-311.7 -196.8 L-311.9 -197.7 L-312.1 -198.7 L-312.1 -199.7 L-312.1 -200.7 L-312 -201.7 L-311.8 -202.6 L-311.5 -203.6 L-311.2 -204.5 L-310.8 -205.4 L-310.3 -206.3 L-309.8 -207.1 L-309.2 -207.9 L-308.5 -208.6 L-307.8 -209.3 L-307 -209.9 L-306.2 -210.4 L-305.3 -210.9 L-304.4 -211.3 L-303.5 -211.7 L-302.5 -211.9 L-301.6 -212.1 L-300.6 -212.2 L-299.6 -212.3 Z " />
<path stroke="rgb(0,0,0)" stroke-opacity="1" fill="rgb(255,255,255)" fill-opacity="1" d="M-490.7 -489.7 L-491.7 -489.7 L-492.7 -489.7 L-493.6 -489.8 L-494.6 -489.8 L-495.6 -489.9 L-496.6 -489.9 L-497.6 -489.9 L-498.6 -490 L-499.6 -490 L-500.6 -490.1 L-501.6 -490.1 L-502.5 -490.2 L-503.5 -490.2 L-504.5 -490.2 L-505.5 -490.3 L-506.5 -490.3 L-507.5 -490.4 L-508.5 -490.4 L-509.5 -490.4 L-510.4 -490.5 L-511.4 -490.5 L-512.4 -490.6 L-513.4 -490.6 L-514.4 -490.6 L-515.4 -490.7 L-515.3 -491.7 L-515.3 -492.7 L-515.3 -493.7 L-515.2 -494.6 L-515.2 -495.6 L-515.1 -496.6 L-515.1 -497.6 L-515.1 -498.6 L-515 -499.6 L-515 -500.6 L-514.9 -501.6 L-514.9 -502.5 L-514.9 -503.5 L-514.8 -504.5 L-514.8 -505.5 L-514.7 -506.5 L-514.7 -507.5 L-514.6 -508.5 L-514.6 -509.5 L-514.6 -510.5 L-514.5 -511.4 L-514.5 -512.4 L-514.4 -513.4 L-514.4 -514.4 L-514.4 -515.4 L-513.4 -515.4 L-512.4 -515.3 L-511.4 -515.3 L-510.4 -515.2 L-509.4 -515.2 L-508.4 -515.2 L-507.4 -515.1 L-506.5 -515.1 L-505.5 -515 L-504.5 -515 L-503.5 -514.9 L-502.5 -514.9 L-501.5 -514.9 L-500.5 -514.8 L-499.5 -514.8 L-498.5 -514.7 L-497.6 -514.7 L-496.6 -514.7 L-495.6 -514.6 L-494.6 -514.6 L-493.6 -514.5 L-492.6 -514.5 L-491.6 -514.5 L-490.6 -514.4 L-489.6 -514.4 L-489.7 -513.4 L-489.7 -512.4 L-489.8 -511.4 L-489.8 -510.4 L-489.9 -509.4 L-489.9 -508.4 L-489.9 -507.5 L-490 -506.5 L-490 -505.5 L-490.1 -504.5 L-490.1 -503.5 L-490.1 -502.5 L-490.2 -501.5 L-490.2 -500.5 L-490.3 -499.5 L-490.3 -498.6 L-490.3 -497.6 L-490.4 -496.6 L-490.4 -495.6 L-490.5 -494.6 L-490.5 -493.6 L-490.6 -492.6 L-490.6 -491.6 L-490.6 -490.6 L-490.7 -489.7 Z " />
<path stroke="rgb(0,0,0)" stroke-opacity="1" fill="rgb(255,255,255)" fill-opacity="1" d="M-98.88 -212.5 L-97.87 -212.4 L-96.88 -212.3 L-95.9 -212 L-94.95 -211.6 L-94.02 -211.2 L-93.14 -210.7 L-92.29 -210.2 L-91.49 -209.6 L-90.74 -208.9 L-90.05 -208.1 L-89.42 -207.4 L-88.86 -206.5 L-88.36 -205.6 L-87.94 -204.7 L-87.59 -203.8 L-87.32 -202.8 L-87.12 -201.8 L-87 -200.8 L-86.97 -199.8 L-87.01 -198.8 L-87.14 -197.8 L-87.34 -196.8 L-87.63 -195.8 L-87.99 -194.9 L-88.42 -193.9 L-88.92 -193.1 L-89.5 -192.2 L-90.13 -191.4 L-90.83 -190.7 L-91.58 -190 L-92.39 -189.4 L-93.24 -188.9 L-94.13 -188.4 L-95.06 -188 L-96.02 -187.7 L-97 -187.4 L-97.99 -187.2 L-99 -187.1 L-100 -187.1 L-101 -187.2 L-102 -187.3 L-103 -187.6 L-104 -187.9 L-104.9 -188.2 L-105.8 -188.7 L-106.7 -189.2 L-107.5 -189.8 L-108.3 -190.4 L-109 -191.2 L-109.7 -191.9 L-110.3 -192.7 L-110.8 -193.6 L-111.3 -194.5 L-111.6 -195.4 L-112 -196.4 L-112.2 -197.4 L-112.3 -198.4 L-112.4 -199.4 L-112.4 -200.4 L-112.3 -201.4 L-112.2 -202.4 L-111.9 -203.4 L-111.6 -204.4 L-111.2 -205.3 L-110.7 -206.2 L-110.2 -207 L-109.6 -207.9 L-108.9 -208.6 L-108.2 -209.3 L-107.4 -210 L-106.6 -210.5 L-105.7 -211.1 L-104.8 -211.5 L-103.9 -211.9 L-102.9 -212.2 L-101.9 -212.4 L-100.9 -212.5 L-99.89 -212.6 L-98.88 -212.5 Z " />
<path stroke="rgb(0,0,0)" stroke-opacity="1" fill="rgb(255,255,255)" fill-opacity="1" d="M-288.3 -488 L-289.2 -488 L-290.2 -488 L-291.2 -488 L-292.2 -488.1 L-293.2 -488.1 L-294.2 -488.1 L-295.2 -488.1 L-296.2 -488.1 L-297.2 -488.1 L-298.1 -488.1 L-299.1 -488.1 L-300.1 -488.1 L-301.1 -488.1 L-302.1 -488.2 L-303.1 -488.2 L-304.1 -488.2 L-305.1 -488.2 L-306.1 -488.2 L-307.1 -488.2 L-308 -488.2 L-309 -488.2 L-310 -488.2 L-311 -488.2 L-312 -488.2 L-313 -488.3 L-313 -489.2 L-313 -490.2 L-313 -491.2 L-313 -492.2 L-312.9 -493.2 L-312.9 -494.2 L-312.9 -495.2 L-312.9 -496.2 L-312.9 -497.2 L-312.9 -498.2 L-312.9 -499.1 L-312.9 -500.1 L-312.9 -501.1 L-312.9 -502.1 L-312.8 -503.1 L-312.8 -504.1 L-312.8 -505.1 L-312.8 -506.1 L-312.8 -507.1 L-312.8 -508 L-312.8 -509 L-312.8 -510 L-312.8 -511 L-312.8 -512 L-312.7 -513 L-311.8 -513 L-310.8 -513 L-309.8 -513 L-308.8 -513 L-307.8 -512.9 L-306.8 -512.9 L-305.8 -512.9 L-304.8 -512.9 L-303.8 -512.9 L-302.9 -512.9 L-301.9 -512.9 L-300.9 -512.9 L-299.9 -512.9 L-298.9 -512.9 L-297.9 -512.8 L-296.9 -512.8 L-295.9 -512.8 L-294.9 -512.8 L-293.9 -512.8 L-293 -512.8 L-292 -512.8 L-291 -512.8 L-290 -512.8 L-289 -512.8 L-288 -512.7 L-288 -511.8 L-288 -510.8 L-288 -509.8 L-288.1 -508.8 L-288.1 -507.8 L-288.1 -506.8 L-288.1 -505.8 L-288.1 -504.8 L-288.1 -503.8 L-288.1 -502.9 L-288.1 -501.9 L-288.1 -500.9 L-288.1 -499.9 L-288.1 -498.9 L-288.2 -497.9 L-288.2 -496.9 L-288.2 -495.9 L-288.2 -494.9 L-288.2 -493.9 L-288.2 -493 L-288.2 -492 L-288.2 -491 L-288.2 -490 L-288.2 -489 L-288.3 -488 Z " />
<path stroke="rgb(0,0,0)" stroke-opacity="1" fill="rgb(255,255,255)" fill-opacity="1" d="M109.5 -213.1 L110.5 -212.3 L111.5 -211.5 L112.4 -210.5 L113.2 -209.5 L113.9 -208.5 L114.6 -207.3 L115.1 -206.2 L115.6 -205 L115.9 -203.7 L116.2 -202.5 L116.4 -201.2 L116.4 -199.9 L116.4 -198.6 L116.2 -197.3 L116 -196.1 L115.6 -194.8 L115.2 -193.6 L114.6 -192.4 L114 -191.3 L113.3 -190.3 L112.5 -189.2 L111.6 -188.3 L110.6 -187.4 L109.6 -186.6 L108.5 -185.9 L107.4 -185.3 L106.2 -184.8 L105 -184.4 L103.8 -184 L102.5 -183.8 L101.2 -183.7 L99.94 -183.6 L98.65 -183.7 L97.38 -183.9 L96.12 -184.1 L94.88 -184.5 L93.68 -185 L92.52 -185.5 L91.41 -186.2 L90.36 -186.9 L89.36 -187.8 L88.44 -188.7 L87.59 -189.6 L86.82 -190.7 L86.13 -191.8 L85.54 -192.9 L85.03 -194.1 L84.62 -195.3 L84.31 -196.6 L84.1 -197.8 L83.99 -199.1 L83.99 -200.4 L84.09 -201.7 L84.29 -203 L84.58 -204.2 L84.98 -205.5 L85.48 -206.6 L86.06 -207.8 L86.74 -208.9 L87.5 -209.9 L88.35 -210.9 L89.26 -211.8 L90.25 -212.6 L91.3 -213.4 L92.4 -214.1 L93.56 -214.6 L94.75 -215.1 L95.98 -215.5 L97.24 -215.8 L98.52 -216 L99.81 -216 L101.1 -216 L102.4 -215.9 L103.6 -215.7 L104.9 -215.4 L106.1 -214.9 L107.3 -214.4 L108.4 -213.8 L109.5 -213.1 Z " />
<path stroke="rgb(0,0,0)" stroke-opacity="1" fill="rgb(255,255,255)" fill-opacity="1" d="M-88.09 -487.9 L-89.08 -487.9 L-90.07 -487.9 L-91.06 -487.9 L-92.05 -487.9 L-93.04 -487.9 L-94.03 -487.9 L-95.02 -488 L-96.01 -488 L-97 -488 L-97.98 -488 L-98.97 -488 L-99.96 -488 L-101 -488 L-101.9 -488 L-102.9 -488 L-103.9 -488 L-104.9 -488 L-105.9 -488 L-106.9 -488 L-107.9 -488.1 L-108.9 -488.1 L-109.9 -488.1 L-110.8 -488.1 L-111.8 -488.1 L-112.8 -488.1 L-112.8 -489.1 L-112.8 -490.1 L-112.8 -491.1 L-112.8 -492.1 L-112.8 -493 L-112.8 -494 L-112.8 -495 L-112.8 -496 L-112.8 -497 L-112.7 -498 L-112.7 -499 L-112.7 -500 L-112.7 -501 L-112.7 -501.9 L-112.7 -502.9 L-112.7 -503.9 L-112.7 -504.9 L-112.7 -505.9 L-112.7 -506.9 L-112.7 -507.9 L-112.7 -508.9 L-112.7 -509.9 L-112.6 -510.8 L-112.6 -511.8 L-112.6 -512.8 L-111.6 -512.8 L-110.7 -512.8 L-109.7 -512.8 L-108.7 -512.8 L-107.7 -512.8 L-106.7 -512.8 L-105.7 -512.8 L-104.7 -512.8 L-103.7 -512.8 L-102.7 -512.8 L-101.8 -512.7 L-100.8 -512.7 L-99.77 -512.7 L-98.78 -512.7 L-97.79 -512.7 L-96.8 -512.7 L-95.81 -512.7 L-94.83 -512.7 L-93.84 -512.7 L-92.85 -512.7 L-91.86 -512.7 L-90.87 -512.7 L-89.88 -512.7 L-88.89 -512.6 L-87.9 -512.6 L-87.91 -511.6 L-87.92 -510.7 L-87.92 -509.7 L-87.93 -508.7 L-87.94 -507.7 L-87.95 -506.7 L-87.95 -505.7 L-87.96 -504.7 L-87.97 -503.7 L-87.98 -502.7 L-87.98 -501.8 L-87.99 -500.8 L-88 -499.8 L-88.01 -498.8 L-88.01 -497.8 L-88.02 -496.8 L-88.03 -495.8 L-88.04 -494.8 L-88.04 -493.8 L-88.05 -492.8 L-88.06 -491.9 L-88.07 -490.9 L-88.08 -489.9 L-88.08 -488.9 L-88.09 -487.9 Z " />
<path stroke="rgb(0,0,0)" stroke-opacity="1" fill="rgb(255,255,255)" fill-opacity="1" d="M323 -203.4 L323.2 -201.6 L323.2 -199.7 L323.1 -197.9 L322.9 -196.1 L322.5 -194.3 L322 -192.5 L321.3 -190.8 L320.5 -189.1 L319.6 -187.5 L318.5 -186 L317.4 -184.6 L316.1 -183.2 L314.7 -182 L313.2 -180.9 L311.7 -179.9 L310.1 -179 L308.4 -178.3 L306.6 -177.7 L304.8 -177.3 L303 -177 L301.2 -176.8 L299.3 -176.8 L297.5 -176.9 L295.7 -177.2 L293.9 -177.6 L292.1 -178.2 L290.4 -178.8 L288.8 -179.7 L287.2 -180.6 L285.7 -181.7 L284.3 -182.9 L283 -184.2 L281.8 -185.6 L280.7 -187.1 L279.7 -188.7 L278.9 -190.3 L278.2 -192 L277.7 -193.8 L277.2 -195.6 L277 -197.4 L276.8 -199.3 L276.9 -201.1 L277 -202.9 L277.3 -204.8 L277.8 -206.5 L278.4 -208.3 L279.1 -210 L280 -211.6 L281 -213.2 L282.1 -214.6 L283.3 -216 L284.6 -217.3 L286.1 -218.5 L287.6 -219.5 L289.2 -220.5 L290.8 -221.3 L292.5 -221.9 L294.3 -222.4 L296.1 -222.8 L298 -223.1 L299.8 -223.2 L301.6 -223.1 L303.5 -222.9 L305.3 -222.5 L307.1 -222.1 L308.8 -221.4 L310.5 -220.7 L312.1 -219.8 L313.6 -218.8 L315.1 -217.6 L316.4 -216.4 L317.7 -215 L318.8 -213.6 L319.8 -212 L320.7 -210.4 L321.5 -208.7 L322.1 -207 L322.6 -205.2 L323 -203.4 Z " />
<path stroke="rgb(0,0,0)" stroke-opacity="1" fill="rgb(255,255,255)" fill-opacity="1" d="M-590.7 -389.7 L-591.7 -389.7 L-592.7 -389.7 L-593.6 -389.8 L-594.6 -389.8 L-595.6 -389.9 L-596.6 -389.9 L-597.6 -389.9 L-598.6 -390 L-599.6 -390 L-600.6 -390.1 L-601.6 -390.1 L-602.5 -390.2 L-603.5 -390.2 L-604.5 -390.2 L-605.5 -390.3 L-606.5 -390.3 L-607.5 -390.4 L-608.5 -390.4 L-609.5 -390.4 L-610.4 -390.5 L-611.4 -390.5 L-612.4 -390.6 L-613.4 -390.6 L-614.4 -390.6 L-615.4 -390.7 L-615.3 -391.7 L-615.3 -392.7 L-615.3 -393.7 L-615.2 -394.6 L-615.2 -395.6 L-615.1 -396.6 L-615.1 -397.6 L-615.1 -398.6 L-615 -399.6 L-615 -400.6 L-614.9 -401.6 L-614.9 -402.5 L-614.9 -403.5 L-614.8 -404.5 L-614.8 -405.5 L-614.7 -406.5 L-614.7 -407.5 L-614.6 -408.5 L-614.6 -409.5 L-614.6 -410.5 L-614.5 -411.4 L-614.5 -412.4 L-614.4 -413.4 L-614.4 -414.4 L-614.4 -415.4 L-613.4 -415.4 L-612.4 -415.3 L-611.4 -415.3 L-610.4 -415.2 L-609.4 -415.2 L-608.4 -415.2 L-607.4 -415.1 L-606.5 -415.1 L-605.5 -415 L-604.5 -415 L-603.5 -414.9 L-602.5 -414.9 L-601.5 -414.9 L-600.5 -414.8 L-599.5 -414.8 L-598.5 -414.7 L-597.6 -414.7 L-596.6 -414.7 L-595.6 -414.6 L-594.6 -414.6 L-593.6 -414.5 L-592.6 -414.5 L-591.6 -414.5 L-590.6 -414.4 L-589.6 -414.4 L-589.7 -413.4 L-589.7 -412.4 L-589.8 -411.4 L-589.8 -410.4 L-589.9 -409.4 L-589.9 -408.4 L-589.9 -407.5 L-590 -406.5 L-590 -405.5 L-590.1 -404.5 L-590.1 -403.5 L-590.1 -402.5 L-590.2 -401.5 L-590.2 -400.5 L-590.3 -399.5 L-590.3 -398.6 L-590.3 -397.6 L-590.4 -396.6 L-590.4 -395.6 L-590.5 -394.6 L-590.5 -393.6 L-590.6 -392.6 L-590.6 -391.6 L-590.6 -390.6 L-590.7 -389.7 Z " />
<path stroke="rgb(0,0,0)" stroke-opacity="1" fill="rgb(255,255,255)" fill-opacity="1" d="M-198.9 -112.5 L-197.9 -112.4 L-196.9 -112.3 L-195.9 -112 L-194.9 -111.6 L-194 -111.2 L-193.1 -110.7 L-192.3 -110.2 L-191.5 -109.6 L-190.7 -108.9 L-190.1 -108.1 L-189.4 -107.4 L-188.9 -106.5 L-188.4 -105.6 L-187.9 -104.7 L-187.6 -103.8 L-187.3 -102.8 L-187.1 -101.8 L-187 -100.8 L-187 -99.78 L-187 -98.77 L-187.1 -97.77 L-187.3 -96.77 L-187.6 -95.8 L-188 -94.86 L-188.4 -93.94 L-188.9 -93.06 L-189.5 -92.23 L-190.1 -91.44 L-190.8 -90.71 L-191.6 -90.03 L-192.4 -89.42 L-193.2 -88.87 L-194.1 -88.39 L-195.1 -87.99 L-196 -87.66 L-197 -87.4 L-198 -87.23 L-199 -87.13 L-200 -87.12 L-201 -87.18 L-202 -87.33 L-203 -87.55 L-204 -87.85 L-204.9 -88.23 L-205.8 -88.68 L-206.7 -89.2 L-207.5 -89.79 L-208.3 -90.45 L-209 -91.16 L-209.7 -91.92 L-210.3 -92.74 L-210.8 -93.6 L-211.3 -94.5 L-211.6 -95.44 L-212 -96.4 L-212.2 -97.39 L-212.3 -98.39 L-212.4 -99.4 L-212.4 -100.4 L-212.3 -101.4 L-212.2 -102.4 L-211.9 -103.4 L-211.6 -104.4 L-211.2 -105.3 L-210.7 -106.2 L-210.2 -107 L-209.6 -107.9 L-208.9 -108.6 L-208.2 -109.3 L-207.4 -110 L-206.6 -110.5 L-205.7 -111.1 L-204.8 -111.5 L-203.9 -111.9 L-202.9 -112.2 L-201.9 -112.4 L-200.9 -112.5 L-199.9 -112.6 L-198.9 -112.5 Z " />
<path stroke="rgb(0,0,0)" stroke-opacity="1" fill="rgb(255,255,255)" fill-opacity="1" d="M-388.3 -388 L-389.2 -388 L-390.2 -388 L-391.2 -388 L-392.2 -388.1 L-393.2 -388.1 L-394.2 -388.1 L-395.2 -388.1 L-396.2 -388.1 L-397.2 -388.1 L-398.1 -388.1 L-399.1 -388.1 L-400.1 -388.1 L-401.1 -388.1 L-402.1 -388.2 L-403.1 -388.2 L-404.1 -388.2 L-405.1 -388.2 L-406.1 -388.2 L-407.1 -388.2 L-408 -388.2 L-409 -388.2 L-410 -388.2 L-411 -388.2 L-412 -388.2 L-413 -388.3 L-413 -389.2 L-413 -390.2 L-413 -391.2 L-413 -392.2 L-412.9 -393.2 L-412.9 -394.2 L-412.9 -395.2 L-412.9 -396.2 L-412.9 -397.2 L-412.9 -398.2 L-412.9 -399.1 L-412.9 -400.1 L-412.9 -401.1 L-412.9 -402.1 L-412.8 -403.1 L-412.8 -404.1 L-412.8 -405.1 L-412.8 -406.1 L-412.8 -407.1 L-412.8 -408 L-412.8 -409 L-412.8 -410 L-412.8 -411 L-412.8 -412 L-412.7 -413 L-411.8 -413 L-410.8 -413 L-409.8 -413 L-408.8 -413 L-407.8 -412.9 L-406.8 -412.9 L-405.8 -412.9 L-404.8 -412.9 L-403.8 -412.9 L-402.9 -412.9 L-401.9 -412.9 L-400.9 -412.9 L-399.9 -412.9 L-398.9 -412.9 L-397.9 -412.8 L-396.9 -412.8 L-395.9 -412.8 L-394.9 -412.8 L-393.9 -412.8 L-393 -412.8 L-392 -412.8 L-391 -412.8 L-390 -412.8 L-389 -412.8 L-388 -412.7 L-388 -411.8 L-388 -410.8 L-388 -409.8 L-388.1 -408.8 L-388.1 -407.8 L-388.1 -406.8 L-388.1 -405.8 L-388.1 -404.8 L-388.1 -403.8 L-388.1 -402.9 L-388.1 -401.9 L-388.1 -400.9 L-388.1 -399.9 L-388.1 -398.9 L-388.2 -397.9 L-388.2 -396.9 L-388.2 -395.9 L-388.2 -394.9 L-388.2 -393.9 L-388.2 -393 L-388.2 -392 L-388.2 -391 L-388.2 -390 L-388.2 -389 L-388.3 -388 Z " />
<path stroke="rgb(0,0,0)" stroke-opacity="1" fill="rgb(255,255,255)" fill-opacity="1" d="M9.515 -113.1 L10.54 -112.3 L11.5 -111.5 L12.39 -110.5 L13.2 -109.5 L13.93 -108.5 L14.57 -107.3 L15.12 -106.2 L15.58 -105 L15.94 -103.7 L16.2 -102.5 L16.36 -101.2 L16.41 -99.9 L16.37 -98.61 L16.22 -97.33 L15.97 -96.07 L15.62 -94.83 L15.17 -93.62 L14.63 -92.45 L14 -91.32 L13.28 -90.25 L12.48 -89.24 L11.6 -88.3 L10.64 -87.43 L9.627 -86.64 L8.549 -85.93 L7.418 -85.31 L6.241 -84.79 L5.027 -84.35 L3.781 -84.02 L2.513 -83.78 L1.231 -83.65 L-0.05814 -83.62 L-1.346 -83.69 L-2.623 -83.86 L-3.883 -84.14 L-5.117 -84.51 L-6.318 -84.98 L-7.477 -85.55 L-8.588 -86.2 L-9.643 -86.94 L-10.64 -87.77 L-11.56 -88.66 L-12.41 -89.63 L-13.18 -90.67 L-13.87 -91.76 L-14.46 -92.9 L-14.97 -94.09 L-15.38 -95.31 L-15.69 -96.56 L-15.9 -97.84 L-16.01 -99.12 L-16.01 -100.4 L-15.91 -101.7 L-15.71 -103 L-15.42 -104.2 L-15.02 -105.5 L-14.52 -106.6 L-13.94 -107.8 L-13.26 -108.9 L-12.5 -109.9 L-11.65 -110.9 L-10.74 -111.8 L-9.752 -112.6 L-8.703 -113.4 L-7.597 -114.1 L-6.443 -114.6 L-5.246 -115.1 L-4.015 -115.5 L-2.758 -115.8 L-1.482 -116 L-0.1947 -116 L1.095 -116 L2.378 -115.9 L3.648 -115.7 L4.896 -115.4 L6.114 -114.9 L7.295 -114.4 L8.431 -113.8 L9.515 -113.1 Z " />
<path stroke="rgb(0,0,0)" stroke-opacity="1" fill="rgb(255,255,255)" fill-opacity="1" d="M-188.1 -387.9 L-189.1 -387.9 L-190.1 -387.9 L-191.1 -387.9 L-192 -387.9 L-193 -387.9 L-194 -387.9 L-195 -388 L-196 -388 L-197 -388 L-198 -388 L-199 -388 L-200 -388 L-201 -388 L-201.9 -388 L-202.9 -388 L-203.9 -388 L-204.9 -388 L-205.9 -388 L-206.9 -388 L-207.9 -388.1 L-208.9 -388.1 L-209.9 -388.1 L-210.8 -388.1 L-211.8 -388.1 L-212.8 -388.1 L-212.8 -389.1 L-212.8 -390.1 L-212.8 -391.1 L-212.8 -392.1 L-212.8 -393 L-212.8 -394 L-212.8 -395 L-212.8 -396 L-212.8 -397 L-212.7 -398 L-212.7 -399 L-212.7 -400 L-212.7 -401 L-212.7 -401.9 L-212.7 -402.9 L-212.7 -403.9 L-212.7 -404.9 L-212.7 -405.9 L-212.7 -406.9 L-212.7 -407.9 L-212.7 -408.9 L-212.7 -409.9 L-212.6 -410.8 L-212.6 -411.8 L-212.6 -412.8 L-211.6 -412.8 L-210.7 -412.8 L-209.7 -412.8 L-208.7 -412.8 L-207.7 -412.8 L-206.7 -412.8 L-205.7 -412.8 L-204.7 -412.8 L-203.7 -412.8 L-202.7 -412.8 L-201.8 -412.7 L-200.8 -412.7 L-199.8 -412.7 L-198.8 -412.7 L-197.8 -412.7 L-196.8 -412.7 L-195.8 -412.7 L-194.8 -412.7 L-193.8 -412.7 L-192.8 -412.7 L-191.9 -412.7 L-190.9 -412.7 L-189.9 -412.7 L-188.9 -412.6 L-187.9 -412.6 L-187.9 -411.6 L-187.9 -410.7 L-187.9 -409.7 L-187.9 -408.7 L-187.9 -407.7 L-187.9 -406.7 L-188 -405.7 L-188 -404.7 L-188 -403.7 L-188 -402.7 L-188 -401.8 L-188 -400.8 L-188 -399.8 L-188 -398.8 L-188 -397.8 L-188 -396.8 L-188 -395.8 L-188 -394.8 L-188 -393.8 L-188.1 -392.8 L-188.1 -391.9 L-188.1 -390.9 L-188.1 -389.9 L-188.1 -388.9 L-188.1 -387.9 Z " />
<path stroke="rgb(0,0,0)" stroke-opacity="1" fill="rgb(255,255,255)" fill-opacity="1" d="M223 -103.4 L223.2 -101.6 L223.2 -99.73 L223.1 -97.89 L222.9 -96.06 L222.5 -94.25 L222 -92.49 L221.3 -90.76 L220.5 -89.1 L219.6 -87.51 L218.5 -85.99 L217.4 -84.56 L216.1 -83.23 L214.7 -82.01 L213.2 -80.9 L211.7 -79.91 L210.1 -79.04 L208.4 -78.31 L206.6 -77.72 L204.8 -77.27 L203 -76.95 L201.2 -76.79 L199.3 -76.77 L197.5 -76.9 L195.7 -77.17 L193.9 -77.59 L192.1 -78.15 L190.4 -78.85 L188.8 -79.68 L187.2 -80.64 L185.7 -81.72 L184.3 -82.91 L183 -84.22 L181.8 -85.62 L180.7 -87.12 L179.7 -88.69 L178.9 -90.34 L178.2 -92.05 L177.7 -93.8 L177.2 -95.6 L177 -97.42 L176.8 -99.26 L176.9 -101.1 L177 -102.9 L177.3 -104.8 L177.8 -106.5 L178.4 -108.3 L179.1 -110 L180 -111.6 L181 -113.2 L182.1 -114.6 L183.3 -116 L184.6 -117.3 L186.1 -118.5 L187.6 -119.5 L189.2 -120.5 L190.8 -121.3 L192.5 -121.9 L194.3 -122.4 L196.1 -122.8 L198 -123.1 L199.8 -123.2 L201.6 -123.1 L203.5 -122.9 L205.3 -122.5 L207.1 -122.1 L208.8 -121.4 L210.5 -120.7 L212.1 -119.8 L213.6 -118.8 L215.1 -117.6 L216.4 -116.4 L217.7 -115 L218.8 -113.6 L219.8 -112 L220.7 -110.4 L221.5 -108.7 L222.1 -107 L222.6 -105.2 L223 -103.4 Z " />
<path stroke="rgb(0,0,0)" stroke-opacity="1" fill="rgb(255,255,255)" fill-opacity="1" d="M11.91 -387.9 L10.92 -387.9 L9.931 -387.9 L8.941 -387.9 L7.952 -387.9 L6.962 -387.9 L5.973 -387.9 L4.984 -388 L3.994 -388 L3.005 -388 L2.016 -388 L1.026 -388 L0.03675 -388 L-0.9526 -388 L-1.942 -388 L-2.931 -388 L-3.921 -388 L-4.91 -388 L-5.9 -388 L-6.889 -388 L-7.878 -388.1 L-8.868 -388.1 L-9.857 -388.1 L-10.85 -388.1 L-11.84 -388.1 L-12.83 -388.1 L-12.82 -389.1 L-12.81 -390.1 L-12.8 -391.1 L-12.79 -392.1 L-12.79 -393 L-12.78 -394 L-12.77 -395 L-12.76 -396 L-12.76 -397 L-12.75 -398 L-12.74 -399 L-12.73 -400 L-12.73 -401 L-12.72 -401.9 L-12.71 -402.9 L-12.7 -403.9 L-12.7 -404.9 L-12.69 -405.9 L-12.68 -406.9 L-12.67 -407.9 L-12.66 -408.9 L-12.66 -409.9 L-12.65 -410.8 L-12.64 -411.8 L-12.63 -412.8 L-11.65 -412.8 L-10.66 -412.8 L-9.666 -412.8 L-8.677 -412.8 L-7.688 -412.8 L-6.698 -412.8 L-5.709 -412.8 L-4.719 -412.8 L-3.73 -412.8 L-2.741 -412.8 L-1.751 -412.7 L-0.7618 -412.7 L0.2275 -412.7 L1.217 -412.7 L2.206 -412.7 L3.196 -412.7 L4.185 -412.7 L5.174 -412.7 L6.164 -412.7 L7.153 -412.7 L8.143 -412.7 L9.132 -412.7 L10.12 -412.7 L11.11 -412.6 L12.1 -412.6 L12.09 -411.6 L12.08 -410.7 L12.08 -409.7 L12.07 -408.7 L12.06 -407.7 L12.05 -406.7 L12.05 -405.7 L12.04 -404.7 L12.03 -403.7 L12.02 -402.7 L12.02 -401.8 L12.01 -400.8 L12 -399.8 L11.99 -398.8 L11.99 -397.8 L11.98 -396.8 L11.97 -395.8 L11.96 -394.8 L11.96 -393.8 L11.95 -392.8 L11.94 -391.9 L11.93 -390.9 L11.92 -389.9 L11.92 -388.9 L11.91 -387.9 Z " />
<path stroke="rgb(0,0,0)" stroke-opacity="1" fill="rgb(255,255,255)" fill-opacity="1" d="M-298.9 -12.54 L-297.9 -12.44 L-296.9 -12.25 L-295.9 -11.99 L-294.9 -11.65 L-294 -11.23 L-293.1 -10.75 L-292.3 -10.19 L-291.5 -9.571 L-290.7 -8.888 L-290.1 -8.148 L-289.4 -7.356 L-288.9 -6.516 L-288.4 -5.633 L-287.9 -4.715 L-287.6 -3.765 L-287.3 -2.791 L-287.1 -1.797 L-287 -0.792 L-287 0.2194 L-287 1.23 L-287.1 2.235 L-287.3 3.226 L-287.6 4.198 L-288 5.144 L-288.4 6.059 L-288.9 6.936 L-289.5 7.771 L-290.1 8.557 L-290.8 9.29 L-291.6 9.966 L-292.4 10.58 L-293.2 11.13 L-294.1 11.61 L-295.1 12.01 L-296 12.34 L-297 12.6 L-298 12.77 L-299 12.87 L-300 12.88 L-301 12.82 L-302 12.67 L-303 12.45 L-304 12.15 L-304.9 11.77 L-305.8 11.32 L-306.7 10.8 L-307.5 10.21 L-308.3 9.554 L-309 8.842 L-309.7 8.076 L-310.3 7.259 L-310.8 6.397 L-311.3 5.496 L-311.6 4.561 L-312 3.598 L-312.2 2.613 L-312.3 1.613 L-312.4 0.6042 L-312.4 -0.4079 L-312.3 -1.416 L-312.2 -2.415 L-311.9 -3.397 L-311.6 -4.357 L-311.2 -5.288 L-310.7 -6.185 L-310.2 -7.042 L-309.6 -7.853 L-308.9 -8.613 L-308.2 -9.318 L-307.4 -9.963 L-306.6 -10.54 L-305.7 -11.06 L-304.8 -11.5 L-303.9 -11.87 L-302.9 -12.16 L-301.9 -12.38 L-300.9 -12.51 L-299.9 -12.57 L-298.9 -12.54 Z " />
<path stroke="rgb(0,0,0)" stroke-opacity="1" fill="rgb(255,255,255)" fill-opacity="1" d="M-488.3 -288 L-489.2 -288 L-490.2 -288 L-491.2 -288 L-492.2 -288.1 L-493.2 -288.1 L-494.2 -288.1 L-495.2 -288.1 L-496.2 -288.1 L-497.2 -288.1 L-498.1 -288.1 L-499.1 -288.1 L-500.1 -288.1 L-501.1 -288.1 L-502.1 -288.2 L-503.1 -288.2 L-504.1 -288.2 L-505.1 -288.2 L-506.1 -288.2 L-507.1 -288.2 L-508 -288.2 L-509 -288.2 L-510 -288.2 L-511 -288.2 L-512 -288.2 L-513 -288.3 L-513 -289.2 L-513 -290.2 L-513 -291.2 L-513 -292.2 L-512.9 -293.2 L-512.9 -294.2 L-512.9 -295.2 L-512.9 -296.2 L-512.9 -297.2 L-512.9 -298.2 L-512.9 -299.1 L-512.9 -300.1 L-512.9 -301.1 L-512.9 -302.1 L-512.8 -303.1 L-512.8 -304.1 L-512.8 -305.1 L-512.8 -306.1 L-512.8 -307.1 L-512.8 -308 L-512.8 -309 L-512.8 -310 L-512.8 -311 L-512.8 -312 L-512.7 -313 L-511.8 -313 L-510.8 -313 L-509.8 -313 L-508.8 -313 L-507.8 -312.9 L-506.8 -312.9 L-505.8 -312.9 L-504.8 -312.9 L-503.8 -312.9 L-502.9 -312.9 L-501.9 -312.9 L-500.9 -312.9 L-499.9 -312.9 L-498.9 -312.9 L-497.9 -312.8 L-496.9 -312.8 L-495.9 -312.8 L-494.9 -312.8 L-493.9 -312.8 L-493 -312.8 L-492 -312.8 L-491 -312.8 L-490 -312.8 L-489 -312.8 L-488 -312.7 L-488 -311.8 L-488 -310.8 L-488 -309.8 L-488.1 -308.8 L-488.1 -307.8 L-488.1 -306.8 L-488.1 -305.8 L-488.1 -304.8 L-488.1 -303.8 L-488.1 -302.9 L-488.1 -301.9 L-488.1 -300.9 L-488.1 -299.9 L-488.1 -298.9 L-488.2 -297.9 L-488.2 -296.9 L-488.2 -295.9 L-488.2 -294.9 L-488.2 -293.9 L-488.2 -293 L-488.2 -292 L-488.2 -291 L-488.2 -290 L-488.2 -289 L-488.3 -288 Z " />
<path stroke="rgb(0,0,0)" stroke-opacity="1" fill="rgb(255,255,255)" fill-opacity="1" d="M-90.48 -13.11 L-89.46 -12.32 L-88.5 -11.46 L-87.61 -10.53 L-86.8 -9.525 L-86.07 -8.461 L-85.43 -7.343 L-84.88 -6.177 L-84.42 -4.972 L-84.06 -3.733 L-83.8 -2.47 L-83.64 -1.191 L-83.59 0.09761 L-83.63 1.386 L-83.78 2.667 L-84.03 3.932 L-84.38 5.174 L-84.83 6.383 L-85.37 7.554 L-86 8.677 L-86.72 9.747 L-87.52 10.76 L-88.4 11.7 L-89.36 12.57 L-90.37 13.36 L-91.45 14.07 L-92.58 14.69 L-93.76 15.21 L-94.97 15.65 L-96.22 15.98 L-97.49 16.22 L-98.77 16.35 L-100.1 16.38 L-101.3 16.31 L-102.6 16.14 L-103.9 15.86 L-105.1 15.49 L-106.3 15.02 L-107.5 14.45 L-108.6 13.8 L-109.6 13.06 L-110.6 12.23 L-111.6 11.34 L-112.4 10.37 L-113.2 9.332 L-113.9 8.24 L-114.5 7.098 L-115 5.911 L-115.4 4.688 L-115.7 3.436 L-115.9 2.164 L-116 0.8789 L-116 -0.4106 L-115.9 -1.696 L-115.7 -2.97 L-115.4 -4.225 L-115 -5.451 L-114.5 -6.642 L-113.9 -7.79 L-113.3 -8.887 L-112.5 -9.928 L-111.7 -10.9 L-110.7 -11.81 L-109.8 -12.64 L-108.7 -13.39 L-107.6 -14.06 L-106.4 -14.63 L-105.2 -15.11 L-104 -15.49 L-102.8 -15.78 L-101.5 -15.96 L-100.2 -16.05 L-98.91 -16.03 L-97.62 -15.9 L-96.35 -15.68 L-95.1 -15.36 L-93.89 -14.93 L-92.7 -14.41 L-91.57 -13.8 L-90.48 -13.11 Z " />
<path stroke="rgb(0,0,0)" stroke-opacity="1" fill="rgb(255,255,255)" fill-opacity="1" d="M-288.1 -287.9 L-289.1 -287.9 L-290.1 -287.9 L-291.1 -287.9 L-292 -287.9 L-293 -287.9 L-294 -287.9 L-295 -288 L-296 -288 L-297 -288 L-298 -288 L-299 -288 L-300 -288 L-301 -288 L-301.9 -288 L-302.9 -288 L-303.9 -288 L-304.9 -288 L-305.9 -288 L-306.9 -288 L-307.9 -288.1 L-308.9 -288.1 L-309.9 -288.1 L-310.8 -288.1 L-311.8 -288.1 L-312.8 -288.1 L-312.8 -289.1 L-312.8 -290.1 L-312.8 -291.1 L-312.8 -292.1 L-312.8 -293 L-312.8 -294 L-312.8 -295 L-312.8 -296 L-312.8 -297 L-312.7 -298 L-312.7 -299 L-312.7 -300 L-312.7 -301 L-312.7 -301.9 L-312.7 -302.9 L-312.7 -303.9 L-312.7 -304.9 L-312.7 -305.9 L-312.7 -306.9 L-312.7 -307.9 L-312.7 -308.9 L-312.7 -309.9 L-312.6 -310.8 L-312.6 -311.8 L-312.6 -312.8 L-311.6 -312.8 L-310.7 -312.8 L-309.7 -312.8 L-308.7 -312.8 L-307.7 -312.8 L-306.7 -312.8 L-305.7 -312.8 L-304.7 -312.8 L-303.7 -312.8 L-302.7 -312.8 L-301.8 -312.7 L-300.8 -312.7 L-299.8 -312.7 L-298.8 -312.7 L-297.8 -312.7 L-296.8 -312.7 L-295.8 -312.7 L-294.8 -312.7 L-293.8 -312.7 L-292.8 -312.7 L-291.9 -312.7 L-290.9 -312.7 L-289.9 -312.7 L-288.9 -312.6 L-287.9 -312.6 L-287.9 -311.6 L-287.9 -310.7 L-287.9 -309.7 L-287.9 -308.7 L-287.9 -307.7 L-287.9 -306.7 L-288 -305.7 L-288 -304.7 L-288 -303.7 L-288 -302.7 L-288 -301.8 L-288 -300.8 L-288 -299.8 L-288 -298.8 L-288 -297.8 L-288 -296.8 L-288 -295.8 L-288 -294.8 L-288 -293.8 L-288.1 -292.8 L-288.1 -291.9 L-288.1 -290.9 L-288.1 -289.9 L-288.1 -288.9 L-288.1 -287.9 Z " />
<path stroke="rgb(0,0,0)" stroke-opacity="1" fill="rgb(255,255,255)" fill-opacity="1" d="M123 -3.406 L123.2 -1.572 L123.2 0.2711 L123.1 2.113 L122.9 3.942 L122.5 5.747 L122 7.515 L121.3 9.236 L120.5 10.9 L119.6 12.49 L118.5 14.01 L117.4 15.44 L116.1 16.77 L114.7 17.99 L113.2 19.1 L111.7 20.09 L110.1 20.96 L108.4 21.69 L106.6 22.28 L104.8 22.73 L103 23.05 L101.2 23.21 L99.34 23.23 L97.5 23.1 L95.67 22.83 L93.88 22.41 L92.12 21.85 L90.41 21.15 L88.76 20.32 L87.19 19.36 L85.69 18.28 L84.29 17.09 L82.99 15.78 L81.79 14.38 L80.71 12.88 L79.75 11.31 L78.92 9.662 L78.22 7.955 L77.66 6.198 L77.24 4.401 L76.97 2.577 L76.84 0.7375 L76.86 -1.107 L77.02 -2.944 L77.33 -4.762 L77.79 -6.55 L78.38 -8.296 L79.11 -9.989 L79.97 -11.62 L80.96 -13.18 L82.08 -14.65 L83.3 -16.03 L84.63 -17.31 L86.06 -18.47 L87.57 -19.53 L89.17 -20.45 L90.83 -21.25 L92.55 -21.91 L94.32 -22.44 L96.12 -22.82 L97.95 -23.06 L99.79 -23.15 L101.6 -23.1 L103.5 -22.9 L105.3 -22.55 L107.1 -22.06 L108.8 -21.43 L110.5 -20.67 L112.1 -19.77 L113.6 -18.75 L115.1 -17.61 L116.4 -16.36 L117.7 -15.01 L118.8 -13.56 L119.8 -12.02 L120.7 -10.41 L121.5 -8.729 L122.1 -6.996 L122.6 -5.217 L123 -3.406 Z " />
<path stroke="rgb(0,0,0)" stroke-opacity="1" fill="rgb(255,255,255)" fill-opacity="1" d="M-88.09 -287.9 L-89.08 -287.9 L-90.07 -287.9 L-91.06 -287.9 L-92.05 -287.9 L-93.04 -287.9 L-94.03 -287.9 L-95.02 -288 L-96.01 -288 L-97 -288 L-97.98 -288 L-98.97 -288 L-99.96 -288 L-101 -288 L-101.9 -288 L-102.9 -288 L-103.9 -288 L-104.9 -288 L-105.9 -288 L-106.9 -288 L-107.9 -288.1 L-108.9 -288.1 L-109.9 -288.1 L-110.8 -288.1 L-111.8 -288.1 L-112.8 -288.1 L-112.8 -289.1 L-112.8 -290.1 L-112.8 -291.1 L-112.8 -292.1 L-112.8 -293 L-112.8 -294 L-112.8 -295 L-112.8 -296 L-112.8 -297 L-112.7 -298 L-112.7 -299 L-112.7 -300 L-112.7 -301 L-112.7 -301.9 L-112.7 -302.9 L-112.7 -303.9 L-112.7 -304.9 L-112.7 -305.9 L-112.7 -306.9 L-112.7 -307.9 L-112.7 -308.9 L-112.7 -309.9 L-112.6 -310.8 L-112.6 -311.8 L-112.6 -312.8 L-111.6 -312.8 L-110.7 -312.8 L-109.7 -312.8 L-108.7 -312.8 L-107.7 -312.8 L-106.7 -312.8 L-105.7 -312.8 L-104.7 -312.8 L-103.7 -312.8 L-102.7 -312.8 L-101.8 -312.7 L-100.8 -312.7 L-99.77 -312.7 L-98.78 -312.7 L-97.79 -312.7 L-96.8 -312.7 L-95.81 -312.7 L-94.83 -312.7 L-93.84 -312.7 L-92.85 -312.7 L-91.86 -312.7 L-90.87 -312.7 L-89.88 -312.7 L-88.89 -312.6 L-87.9 -312.6 L-87.91 -311.6 L-87.92 -310.7 L-87.92 -309.7 L-87.93 -308.7 L-87.94 -307.7 L-87.95 -306.7 L-87.95 -305.7 L-87.96 -304.7 L-87.97 -303.7 L-87.98 -302.7 L-87.98 -301.8 L-87.99 -300.8 L-88 -299.8 L-88.01 -298.8 L-88.01 -297.8 L-88.02 -296.8 L-88.03 -295.8 L-88.04 -294.8 L-88.04 -293.8 L-88.05 -292.8 L-88.06 -291.9 L-88.07 -290.9 L-88.08 -289.9 L-88.08 -288.9 L-88.09 -287.9 Z " />
<path stroke="rgb(0,0,0)" stroke-opacity="1" fill="rgb(255,255,255)" fill-opacity="1" d="M324.8 0.1495 L324.8 2.123 L324.5 4.083 L324.1 6.017 L323.6 7.913 L322.8 9.759 L322 11.54 L321 13.26 L319.9 14.88 L318.6 16.42 L317.3 17.85 L315.8 19.16 L314.2 20.36 L312.6 21.43 L310.8 22.36 L309 23.15 L307.2 23.79 L305.2 24.28 L303.3 24.62 L301.3 24.81 L299.4 24.84 L297.4 24.71 L295.4 24.42 L293.5 23.98 L291.6 23.39 L289.8 22.65 L288 21.76 L286.3 20.74 L284.7 19.59 L283.2 18.32 L281.8 16.92 L280.5 15.43 L279.4 13.83 L278.3 12.15 L277.4 10.39 L276.7 8.56 L276.1 6.68 L275.6 4.757 L275.3 2.805 L275.2 0.8345 L275.2 -1.141 L275.4 -3.109 L275.7 -5.058 L276.2 -6.975 L276.8 -8.847 L277.6 -10.66 L278.5 -12.41 L279.5 -14.08 L280.7 -15.67 L282 -17.15 L283.4 -18.52 L285 -19.78 L286.6 -20.91 L288.3 -21.91 L290.1 -22.77 L291.9 -23.49 L293.8 -24.06 L295.7 -24.48 L297.7 -24.74 L299.7 -24.84 L301.6 -24.79 L303.6 -24.59 L305.5 -24.22 L307.4 -23.71 L309.3 -23.04 L311.1 -22.23 L312.8 -21.27 L314.5 -20.19 L316 -18.97 L317.5 -17.64 L318.8 -16.19 L320.1 -14.64 L321.2 -13 L322.1 -11.28 L323 -9.484 L323.6 -7.629 L324.2 -5.727 L324.6 -3.788 L324.8 -1.825 L324.8 0.1495 Z " />
<path stroke="rgb(0,0,0)" stroke-opacity="1" fill="rgb(255,255,255)" fill-opacity="1" d="M-588.3 -188 L-589.2 -188 L-590.2 -188 L-591.2 -188 L-592.2 -188.1 L-593.2 -188.1 L-594.2 -188.1 L-595.2 -188.1 L-596.2 -188.1 L-597.2 -188.1 L-598.1 -188.1 L-599.1 -188.1 L-600.1 -188.1 L-601.1 -188.1 L-602.1 -188.2 L-603.1 -188.2 L-604.1 -188.2 L-605.1 -188.2 L-606.1 -188.2 L-607.1 -188.2 L-608 -188.2 L-609 -188.2 L-610 -188.2 L-611 -188.2 L-612 -188.2 L-613 -188.3 L-613 -189.2 L-613 -190.2 L-613 -191.2 L-613 -192.2 L-612.9 -193.2 L-612.9 -194.2 L-612.9 -195.2 L-612.9 -196.2 L-612.9 -197.2 L-612.9 -198.2 L-612.9 -199.1 L-612.9 -200.1 L-612.9 -201.1 L-612.9 -202.1 L-612.8 -203.1 L-612.8 -204.1 L-612.8 -205.1 L-612.8 -206.1 L-612.8 -207.1 L-612.8 -208 L-612.8 -209 L-612.8 -210 L-612.8 -211 L-612.8 -212 L-612.7 -213 L-611.8 -213 L-610.8 -213 L-609.8 -213 L-608.8 -213 L-607.8 -212.9 L-606.8 -212.9 L-605.8 -212.9 L-604.8 -212.9 L-603.8 -212.9 L-602.9 -212.9 L-601.9 -212.9 L-600.9 -212.9 L-599.9 -212.9 L-598.9 -212.9 L-597.9 -212.8 L-596.9 -212.8 L-595.9 -212.8 L-594.9 -212.8 L-593.9 -212.8 L-593 -212.8 L-592 -212.8 L-591 -212.8 L-590 -212.8 L-589 -212.8 L-588 -212.7 L-588 -211.8 L-588 -210.8 L-588 -209.8 L-588.1 -208.8 L-588.1 -207.8 L-588.1 -206.8 L-588.1 -205.8 L-588.1 -204.8 L-588.1 -203.8 L-588.1 -202.9 L-588.1 -201.9 L-588.1 -200.9 L-588.1 -199.9 L-588.1 -198.9 L-588.2 -197.9 L-588.2 -196.9 L-588.2 -195.9 L-588.2 -194.9 L-588.2 -193.9 L-588.2 -193 L-588.2 -192 L-588.2 -191 L-588.2 -190 L-588.2 -189 L-588.3 -188 Z " />
<path stroke="rgb(0,0,0)" stroke-opacity="1" fill="rgb(255,255,255)" fill-opacity="1" d="M-190.5 86.89 L-189.5 87.68 L-188.5 88.54 L-187.6 89.47 L-186.8 90.47 L-186.1 91.54 L-185.4 92.66 L-184.9 93.82 L-184.4 95.03 L-184.1 96.27 L-183.8 97.53 L-183.6 98.81 L-183.6 100.1 L-183.6 101.4 L-183.8 102.7 L-184 103.9 L-184.4 105.2 L-184.8 106.4 L-185.4 107.6 L-186 108.7 L-186.7 109.7 L-187.5 110.8 L-188.4 111.7 L-189.4 112.6 L-190.4 113.4 L-191.5 114.1 L-192.6 114.7 L-193.8 115.2 L-195 115.6 L-196.2 116 L-197.5 116.2 L-198.8 116.3 L-200.1 116.4 L-201.3 116.3 L-202.6 116.1 L-203.9 115.9 L-205.1 115.5 L-206.3 115 L-207.5 114.5 L-208.6 113.8 L-209.6 113.1 L-210.6 112.2 L-211.6 111.3 L-212.4 110.4 L-213.2 109.3 L-213.9 108.2 L-214.5 107.1 L-215 105.9 L-215.4 104.7 L-215.7 103.4 L-215.9 102.2 L-216 100.9 L-216 99.59 L-215.9 98.3 L-215.7 97.03 L-215.4 95.78 L-215 94.55 L-214.5 93.36 L-213.9 92.21 L-213.3 91.11 L-212.5 90.07 L-211.7 89.1 L-210.7 88.19 L-209.8 87.36 L-208.7 86.61 L-207.6 85.94 L-206.4 85.37 L-205.2 84.89 L-204 84.51 L-202.8 84.22 L-201.5 84.04 L-200.2 83.95 L-198.9 83.97 L-197.6 84.1 L-196.4 84.32 L-195.1 84.64 L-193.9 85.07 L-192.7 85.59 L-191.6 86.2 L-190.5 86.89 Z " />
<path stroke="rgb(0,0,0)" stroke-opacity="1" fill="rgb(255,255,255)" fill-opacity="1" d="M-388.1 -187.9 L-389.1 -187.9 L-390.1 -187.9 L-391.1 -187.9 L-392 -187.9 L-393 -187.9 L-394 -187.9 L-395 -188 L-396 -188 L-397 -188 L-398 -188 L-399 -188 L-400 -188 L-401 -188 L-401.9 -188 L-402.9 -188 L-403.9 -188 L-404.9 -188 L-405.9 -188 L-406.9 -188 L-407.9 -188.1 L-408.9 -188.1 L-409.9 -188.1 L-410.8 -188.1 L-411.8 -188.1 L-412.8 -188.1 L-412.8 -189.1 L-412.8 -190.1 L-412.8 -191.1 L-412.8 -192.1 L-412.8 -193 L-412.8 -194 L-412.8 -195 L-412.8 -196 L-412.8 -197 L-412.7 -198 L-412.7 -199 L-412.7 -200 L-412.7 -201 L-412.7 -201.9 L-412.7 -202.9 L-412.7 -203.9 L-412.7 -204.9 L-412.7 -205.9 L-412.7 -206.9 L-412.7 -207.9 L-412.7 -208.9 L-412.7 -209.9 L-412.6 -210.8 L-412.6 -211.8 L-412.6 -212.8 L-411.6 -212.8 L-410.7 -212.8 L-409.7 -212.8 L-408.7 -212.8 L-407.7 -212.8 L-406.7 -212.8 L-405.7 -212.8 L-404.7 -212.8 L-403.7 -212.8 L-402.7 -212.8 L-401.8 -212.7 L-400.8 -212.7 L-399.8 -212.7 L-398.8 -212.7 L-397.8 -212.7 L-396.8 -212.7 L-395.8 -212.7 L-394.8 -212.7 L-393.8 -212.7 L-392.8 -212.7 L-391.9 -212.7 L-390.9 -212.7 L-389.9 -212.7 L-388.9 -212.6 L-387.9 -212.6 L-387.9 -211.6 L-387.9 -210.7 L-387.9 -209.7 L-387.9 -208.7 L-387.9 -207.7 L-387.9 -206.7 L-388 -205.7 L-388 -204.7 L-388 -203.7 L-388 -202.7 L-388 -201.8 L-388 -200.8 L-388 -199.8 L-388 -198.8 L-388 -197.8 L-388 -196.8 L-388 -195.8 L-388 -194.8 L-388 -193.8 L-388.1 -192.8 L-388.1 -191.9 L-388.1 -190.9 L-388.1 -189.9 L-388.1 -188.9 L-388.1 -187.9 Z " />
<path stroke="rgb(0,0,0)" stroke-opacity="1" fill="rgb(255,255,255)" fill-opacity="1" d="M22.96 96.59 L23.17 98.43 L23.22 100.3 L23.13 102.1 L22.89 103.9 L22.51 105.7 L21.99 107.5 L21.32 109.2 L20.52 110.9 L19.6 112.5 L18.55 114 L17.38 115.4 L16.1 116.8 L14.72 118 L13.25 119.1 L11.69 120.1 L10.06 121 L8.37 121.7 L6.624 122.3 L4.836 122.7 L3.018 123 L1.181 123.2 L-0.6633 123.2 L-2.503 123.1 L-4.327 122.8 L-6.124 122.4 L-7.881 121.8 L-9.589 121.2 L-11.24 120.3 L-12.81 119.4 L-14.31 118.3 L-15.71 117.1 L-17.01 115.8 L-18.21 114.4 L-19.29 112.9 L-20.25 111.3 L-21.08 109.7 L-21.78 108 L-22.34 106.2 L-22.76 104.4 L-23.03 102.6 L-23.16 100.7 L-23.14 98.89 L-22.98 97.06 L-22.67 95.24 L-22.21 93.45 L-21.62 91.7 L-20.89 90.01 L-20.03 88.38 L-19.04 86.82 L-17.92 85.35 L-16.7 83.97 L-15.37 82.69 L-13.94 81.53 L-12.43 80.47 L-10.83 79.55 L-9.172 78.75 L-7.451 78.09 L-5.683 77.56 L-3.879 77.18 L-2.05 76.94 L-0.2075 76.85 L1.636 76.9 L3.469 77.1 L5.281 77.45 L7.059 77.94 L8.793 78.57 L10.47 79.33 L12.08 80.23 L13.62 81.25 L15.07 82.39 L16.43 83.64 L17.68 84.99 L18.82 86.44 L19.84 87.98 L20.73 89.59 L21.5 91.27 L22.13 93 L22.62 94.78 L22.96 96.59 Z " />
<path stroke="rgb(0,0,0)" stroke-opacity="1" fill="rgb(255,255,255)" fill-opacity="1" d="M-188.1 -187.9 L-189.1 -187.9 L-190.1 -187.9 L-191.1 -187.9 L-192 -187.9 L-193 -187.9 L-194 -187.9 L-195 -188 L-196 -188 L-197 -188 L-198 -188 L-199 -188 L-200 -188 L-201 -188 L-201.9 -188 L-202.9 -188 L-203.9 -188 L-204.9 -188 L-205.9 -188 L-206.9 -188 L-207.9 -188.1 L-208.9 -188.1 L-209.9 -188.1 L-210.8 -188.1 L-211.8 -188.1 L-212.8 -188.1 L-212.8 -189.1 L-212.8 -190.1 L-212.8 -191.1 L-212.8 -192.1 L-212.8 -193 L-212.8 -194 L-212.8 -195 L-212.8 -196 L-212.8 -197 L-212.7 -198 L-212.7 -199 L-212.7 -200 L-212.7 -201 L-212.7 -201.9 L-212.7 -202.9 L-212.7 -203.9 L-212.7 -204.9 L-212.7 -205.9 L-212.7 -206.9 L-212.7 -207.9 L-212.7 -208.9 L-212.7 -209.9 L-212.6 -210.8 L-212.6 -211.8 L-212.6 -212.8 L-211.6 -212.8 L-210.7 -212.8 L-209.7 -212.8 L-208.7 -212.8 L-207.7 -212.8 L-206.7 -212.8 L-205.7 -212.8 L-204.7 -212.8 L-203.7 -212.8 L-202.7 -212.8 L-201.8 -212.7 L-200.8 -212.7 L-199.8 -212.7 L-198.8 -212.7 L-197.8 -212.7 L-196.8 -212.7 L-195.8 -212.7 L-194.8 -212.7 L-193.8 -212.7 L-192.8 -212.7 L-191.9 -212.7 L-190.9 -212.7 L-189.9 -212.7 L-188.9 -212.6 L-187.9 -212.6 L-187.9 -211.6 L-187.9 -210.7 L-187.9 -209.7 L-187.9 -208.7 L-187.9 -207.7 L-187.9 -206.7 L-188 -205.7 L-188 -204.7 L-188 -203.7 L-188 -202.7 L-188 -201.8 L-188 -200.8 L-188 -199.8 L-188 -198.8 L-188 -197.8 L-188 -196.8 L-188 -195.8 L-188 -194.8 L-188 -193.8 L-188.1 -192.8 L-188.1 -191.9 L-188.1 -190.9 L-188.1 -189.9 L-188.1 -188.9 L-188.1 -187.9 Z " />
<path stroke="rgb(0,0,0)" stroke-opacity="1" fill="rgb(255,255,255)" fill-opacity="1" d="M224.8 100.1 L224.8 102.1 L224.5 104.1 L224.1 106 L223.6 107.9 L222.8 109.8 L222 111.5 L221 113.3 L219.9 114.9 L218.6 116.4 L217.3 117.8 L215.8 119.2 L214.2 120.4 L212.6 121.4 L210.8 122.4 L209 123.1 L207.2 123.8 L205.2 124.3 L203.3 124.6 L201.3 124.8 L199.4 124.8 L197.4 124.7 L195.4 124.4 L193.5 124 L191.6 123.4 L189.8 122.6 L188 121.8 L186.3 120.7 L184.7 119.6 L183.2 118.3 L181.8 116.9 L180.5 115.4 L179.4 113.8 L178.3 112.1 L177.4 110.4 L176.7 108.6 L176.1 106.7 L175.6 104.8 L175.3 102.8 L175.2 100.8 L175.2 98.86 L175.4 96.89 L175.7 94.94 L176.2 93.03 L176.8 91.15 L177.6 89.34 L178.5 87.59 L179.5 85.92 L180.7 84.33 L182 82.85 L183.4 81.48 L185 80.22 L186.6 79.09 L188.3 78.09 L190.1 77.23 L191.9 76.51 L193.8 75.94 L195.7 75.52 L197.7 75.26 L199.7 75.16 L201.6 75.21 L203.6 75.41 L205.5 75.78 L207.4 76.29 L209.3 76.96 L211.1 77.77 L212.8 78.73 L214.5 79.81 L216 81.03 L217.5 82.36 L218.8 83.81 L220.1 85.36 L221.2 87 L222.1 88.72 L223 90.52 L223.6 92.37 L224.2 94.27 L224.6 96.21 L224.8 98.18 L224.8 100.1 Z " />
<path stroke="rgb(0,0,0)" stroke-opacity="1" fill="rgb(255,255,255)" fill-opacity="1" d="M11.91 -187.9 L10.92 -187.9 L9.931 -187.9 L8.941 -187.9 L7.952 -187.9 L6.962 -187.9 L5.973 -187.9 L4.984 -188 L3.994 -188 L3.005 -188 L2.016 -188 L1.026 -188 L0.03675 -188 L-0.9526 -188 L-1.942 -188 L-2.931 -188 L-3.921 -188 L-4.91 -188 L-5.9 -188 L-6.889 -188 L-7.878 -188.1 L-8.868 -188.1 L-9.857 -188.1 L-10.85 -188.1 L-11.84 -188.1 L-12.83 -188.1 L-12.82 -189.1 L-12.81 -190.1 L-12.8 -191.1 L-12.79 -192.1 L-12.79 -193 L-12.78 -194 L-12.77 -195 L-12.76 -196 L-12.76 -197 L-12.75 -198 L-12.74 -199 L-12.73 -200 L-12.73 -201 L-12.72 -201.9 L-12.71 -202.9 L-12.7 -203.9 L-12.7 -204.9 L-12.69 -205.9 L-12.68 -206.9 L-12.67 -207.9 L-12.66 -208.9 L-12.66 -209.9 L-12.65 -210.8 L-12.64 -211.8 L-12.63 -212.8 L-11.65 -212.8 L-10.66 -212.8 L-9.666 -212.8 L-8.677 -212.8 L-7.688 -212.8 L-6.698 -212.8 L-5.709 -212.8 L-4.719 -212.8 L-3.73 -212.8 L-2.741 -212.8 L-1.751 -212.7 L-0.7618 -212.7 L0.2275 -212.7 L1.217 -212.7 L2.206 -212.7 L3.196 -212.7 L4.185 -212.7 L5.174 -212.7 L6.164 -212.7 L7.153 -212.7 L8.143 -212.7 L9.132 -212.7 L10.12 -212.7 L11.11 -212.6 L12.1 -212.6 L12.09 -211.6 L12.08 -210.7 L12.08 -209.7 L12.07 -208.7 L12.06 -207.7 L12.05 -206.7 L12.05 -205.7 L12.04 -204.7 L12.03 -203.7 L12.02 -202.7 L12.02 -201.8 L12.01 -200.8 L12 -199.8 L11.99 -198.8 L11.99 -197.8 L11.98 -196.8 L11.97 -195.8 L11.96 -194.8 L11.96 -193.8 L11.95 -192.8 L11.94 -191.9 L11.93 -190.9 L11.92 -189.9 L11.92 -188.9 L11.91 -187.9 Z " />
<path stroke="rgb(0,0,0)" stroke-opacity="1" fill="rgb(255,255,255)" fill-opacity="1" d="M-290.5 186.9 L-289.5 187.7 L-288.5 188.5 L-287.6 189.5 L-286.8 190.5 L-286.1 191.5 L-285.4 192.7 L-284.9 193.8 L-284.4 195 L-284.1 196.3 L-283.8 197.5 L-283.6 198.8 L-283.6 200.1 L-283.6 201.4 L-283.8 202.7 L-284 203.9 L-284.4 205.2 L-284.8 206.4 L-285.4 207.6 L-286 208.7 L-286.7 209.7 L-287.5 210.8 L-288.4 211.7 L-289.4 212.6 L-290.4 213.4 L-291.5 214.1 L-292.6 214.7 L-293.8 215.2 L-295 215.6 L-296.2 216 L-297.5 216.2 L-298.8 216.3 L-300.1 216.4 L-301.3 216.3 L-302.6 216.1 L-303.9 215.9 L-305.1 215.5 L-306.3 215 L-307.5 214.5 L-308.6 213.8 L-309.6 213.1 L-310.6 212.2 L-311.6 211.3 L-312.4 210.4 L-313.2 209.3 L-313.9 208.2 L-314.5 207.1 L-315 205.9 L-315.4 204.7 L-315.7 203.4 L-315.9 202.2 L-316 200.9 L-316 199.6 L-315.9 198.3 L-315.7 197 L-315.4 195.8 L-315 194.5 L-314.5 193.4 L-313.9 192.2 L-313.3 191.1 L-312.5 190.1 L-311.7 189.1 L-310.7 188.2 L-309.8 187.4 L-308.7 186.6 L-307.6 185.9 L-306.4 185.4 L-305.2 184.9 L-304 184.5 L-302.8 184.2 L-301.5 184 L-300.2 184 L-298.9 184 L-297.6 184.1 L-296.4 184.3 L-295.1 184.6 L-293.9 185.1 L-292.7 185.6 L-291.6 186.2 L-290.5 186.9 Z " />
<path stroke="rgb(0,0,0)" stroke-opacity="1" fill="rgb(255,255,255)" fill-opacity="1" d="M-488.1 -87.9 L-489.1 -87.91 L-490.1 -87.92 L-491.1 -87.92 L-492 -87.93 L-493 -87.94 L-494 -87.95 L-495 -87.96 L-496 -87.96 L-497 -87.97 L-498 -87.98 L-499 -87.99 L-500 -87.99 L-501 -88 L-501.9 -88.01 L-502.9 -88.02 L-503.9 -88.02 L-504.9 -88.03 L-505.9 -88.04 L-506.9 -88.05 L-507.9 -88.05 L-508.9 -88.06 L-509.9 -88.07 L-510.8 -88.08 L-511.8 -88.08 L-512.8 -88.09 L-512.8 -89.08 L-512.8 -90.07 L-512.8 -91.06 L-512.8 -92.05 L-512.8 -93.04 L-512.8 -94.03 L-512.8 -95.02 L-512.8 -96.01 L-512.8 -97 L-512.7 -97.99 L-512.7 -98.98 L-512.7 -99.97 L-512.7 -101 L-512.7 -101.9 L-512.7 -102.9 L-512.7 -103.9 L-512.7 -104.9 L-512.7 -105.9 L-512.7 -106.9 L-512.7 -107.9 L-512.7 -108.9 L-512.7 -109.9 L-512.6 -110.8 L-512.6 -111.8 L-512.6 -112.8 L-511.6 -112.8 L-510.7 -112.8 L-509.7 -112.8 L-508.7 -112.8 L-507.7 -112.8 L-506.7 -112.8 L-505.7 -112.8 L-504.7 -112.8 L-503.7 -112.8 L-502.7 -112.8 L-501.8 -112.7 L-500.8 -112.7 L-499.8 -112.7 L-498.8 -112.7 L-497.8 -112.7 L-496.8 -112.7 L-495.8 -112.7 L-494.8 -112.7 L-493.8 -112.7 L-492.8 -112.7 L-491.9 -112.7 L-490.9 -112.7 L-489.9 -112.7 L-488.9 -112.6 L-487.9 -112.6 L-487.9 -111.6 L-487.9 -110.7 L-487.9 -109.7 L-487.9 -108.7 L-487.9 -107.7 L-487.9 -106.7 L-488 -105.7 L-488 -104.7 L-488 -103.7 L-488 -102.7 L-488 -101.8 L-488 -100.8 L-488 -99.77 L-488 -98.78 L-488 -97.8 L-488 -96.81 L-488 -95.82 L-488 -94.83 L-488 -93.84 L-488.1 -92.85 L-488.1 -91.86 L-488.1 -90.87 L-488.1 -89.88 L-488.1 -88.89 L-488.1 -87.9 Z " />
<path stroke="rgb(0,0,0)" stroke-opacity="1" fill="rgb(255,255,255)" fill-opacity="1" d="M-77.04 196.6 L-76.83 198.4 L-76.78 200.3 L-76.87 202.1 L-77.11 203.9 L-77.49 205.7 L-78.01 207.5 L-78.68 209.2 L-79.48 210.9 L-80.4 212.5 L-81.45 214 L-82.62 215.4 L-83.9 216.8 L-85.28 218 L-86.75 219.1 L-88.31 220.1 L-89.94 221 L-91.63 221.7 L-93.38 222.3 L-95.16 222.7 L-96.98 223 L-98.82 223.2 L-100.7 223.2 L-102.5 223.1 L-104.3 222.8 L-106.1 222.4 L-107.9 221.8 L-109.6 221.2 L-111.2 220.3 L-112.8 219.4 L-114.3 218.3 L-115.7 217.1 L-117 215.8 L-118.2 214.4 L-119.3 212.9 L-120.3 211.3 L-121.1 209.7 L-121.8 208 L-122.3 206.2 L-122.8 204.4 L-123 202.6 L-123.2 200.7 L-123.1 198.9 L-123 197.1 L-122.7 195.2 L-122.2 193.5 L-121.6 191.7 L-120.9 190 L-120 188.4 L-119 186.8 L-117.9 185.4 L-116.7 184 L-115.4 182.7 L-113.9 181.5 L-112.4 180.5 L-110.8 179.5 L-109.2 178.7 L-107.5 178.1 L-105.7 177.6 L-103.9 177.2 L-102 176.9 L-100.2 176.8 L-98.36 176.9 L-96.53 177.1 L-94.72 177.5 L-92.94 177.9 L-91.21 178.6 L-89.53 179.3 L-87.92 180.2 L-86.38 181.2 L-84.93 182.4 L-83.57 183.6 L-82.32 185 L-81.18 186.4 L-80.16 188 L-79.27 189.6 L-78.5 191.3 L-77.87 193 L-77.38 194.8 L-77.04 196.6 Z " />
<path stroke="rgb(0,0,0)" stroke-opacity="1" fill="rgb(255,255,255)" fill-opacity="1" d="M-288.1 -87.9 L-289.1 -87.91 L-290.1 -87.92 L-291.1 -87.92 L-292 -87.93 L-293 -87.94 L-294 -87.95 L-295 -87.96 L-296 -87.96 L-297 -87.97 L-298 -87.98 L-299 -87.99 L-300 -87.99 L-301 -88 L-301.9 -88.01 L-302.9 -88.02 L-303.9 -88.02 L-304.9 -88.03 L-305.9 -88.04 L-306.9 -88.05 L-307.9 -88.05 L-308.9 -88.06 L-309.9 -88.07 L-310.8 -88.08 L-311.8 -88.08 L-312.8 -88.09 L-312.8 -89.08 L-312.8 -90.07 L-312.8 -91.06 L-312.8 -92.05 L-312.8 -93.04 L-312.8 -94.03 L-312.8 -95.02 L-312.8 -96.01 L-312.8 -97 L-312.7 -97.99 L-312.7 -98.98 L-312.7 -99.97 L-312.7 -101 L-312.7 -101.9 L-312.7 -102.9 L-312.7 -103.9 L-312.7 -104.9 L-312.7 -105.9 L-312.7 -106.9 L-312.7 -107.9 L-312.7 -108.9 L-312.7 -109.9 L-312.6 -110.8 L-312.6 -111.8 L-312.6 -112.8 L-311.6 -112.8 L-310.7 -112.8 L-309.7 -112.8 L-308.7 -112.8 L-307.7 -112.8 L-306.7 -112.8 L-305.7 -112.8 L-304.7 -112.8 L-303.7 -112.8 L-302.7 -112.8 L-301.8 -112.7 L-300.8 -112.7 L-299.8 -112.7 L-298.8 -112.7 L-297.8 -112.7 L-296.8 -112.7 L-295.8 -112.7 L-294.8 -112.7 L-293.8 -112.7 L-292.8 -112.7 L-291.9 -112.7 L-290.9 -112.7 L-289.9 -112.7 L-288.9 -112.6 L-287.9 -112.6 L-287.9 -111.6 L-287.9 -110.7 L-287.9 -109.7 L-287.9 -108.7 L-287.9 -107.7 L-287.9 -106.7 L-288 -105.7 L-288 -104.7 L-288 -103.7 L-288 -102.7 L-288 -101.8 L-288 -100.8 L-288 -99.77 L-288 -98.78 L-288 -97.8 L-288 -96.81 L-288 -95.82 L-288 -94.83 L-288 -93.84 L-288.1 -92.85 L-288.1 -91.86 L-288.1 -90.87 L-288.1 -89.88 L-288.1 -88.89 L-288.1 -87.9 Z " />
<path stroke="rgb(0,0,0)" stroke-opacity="1" fill="rgb(255,255,255)" fill-opacity="1" d="M124.8 200.1 L124.8 202.1 L124.5 204.1 L124.1 206 L123.6 207.9 L122.8 209.8 L122 211.5 L121 213.3 L119.9 214.9 L118.6 216.4 L117.3 217.8 L115.8 219.2 L114.2 220.4 L112.6 221.4 L110.8 222.4 L109 223.1 L107.2 223.8 L105.2 224.3 L103.3 224.6 L101.3 224.8 L99.36 224.8 L97.39 224.7 L95.43 224.4 L93.5 224 L91.62 223.4 L89.79 222.6 L88.02 221.8 L86.33 220.7 L84.72 219.6 L83.22 218.3 L81.81 216.9 L80.53 215.4 L79.36 213.8 L78.33 212.1 L77.43 210.4 L76.68 208.6 L76.07 206.7 L75.62 204.8 L75.32 202.8 L75.17 200.8 L75.18 198.9 L75.35 196.9 L75.68 194.9 L76.16 193 L76.78 191.2 L77.56 189.3 L78.48 187.6 L79.53 185.9 L80.72 184.3 L82.02 182.9 L83.44 181.5 L84.96 180.2 L86.58 179.1 L88.29 178.1 L90.07 177.2 L91.91 176.5 L93.8 175.9 L95.73 175.5 L97.69 175.3 L99.66 175.2 L101.6 175.2 L103.6 175.4 L105.5 175.8 L107.4 176.3 L109.3 177 L111.1 177.8 L112.8 178.7 L114.5 179.8 L116 181 L117.5 182.4 L118.8 183.8 L120.1 185.4 L121.2 187 L122.1 188.7 L123 190.5 L123.6 192.4 L124.2 194.3 L124.6 196.2 L124.8 198.2 L124.8 200.1 Z " />
<path stroke="rgb(0,0,0)" stroke-opacity="1" fill="rgb(255,255,255)" fill-opacity="1" d="M-88.09 -87.9 L-89.08 -87.91 L-90.07 -87.92 L-91.06 -87.92 L-92.05 -87.93 L-93.04 -87.94 L-94.03 -87.95 L-95.02 -87.96 L-96.01 -87.96 L-97 -87.97 L-97.98 -87.98 L-98.97 -87.99 L-99.96 -87.99 L-101 -88 L-101.9 -88.01 L-102.9 -88.02 L-103.9 -88.02 L-104.9 -88.03 L-105.9 -88.04 L-106.9 -88.05 L-107.9 -88.05 L-108.9 -88.06 L-109.9 -88.07 L-110.8 -88.08 L-111.8 -88.08 L-112.8 -88.09 L-112.8 -89.08 L-112.8 -90.07 L-112.8 -91.06 L-112.8 -92.05 L-112.8 -93.04 L-112.8 -94.03 L-112.8 -95.02 L-112.8 -96.01 L-112.8 -97 L-112.7 -97.99 L-112.7 -98.98 L-112.7 -99.97 L-112.7 -101 L-112.7 -101.9 L-112.7 -102.9 L-112.7 -103.9 L-112.7 -104.9 L-112.7 -105.9 L-112.7 -106.9 L-112.7 -107.9 L-112.7 -108.9 L-112.7 -109.9 L-112.6 -110.8 L-112.6 -111.8 L-112.6 -112.8 L-111.6 -112.8 L-110.7 -112.8 L-109.7 -112.8 L-108.7 -112.8 L-107.7 -112.8 L-106.7 -112.8 L-105.7 -112.8 L-104.7 -112.8 L-103.7 -112.8 L-102.7 -112.8 L-101.8 -112.7 L-100.8 -112.7 L-99.77 -112.7 L-98.78 -112.7 L-97.79 -112.7 L-96.8 -112.7 L-95.81 -112.7 L-94.83 -112.7 L-93.84 -112.7 L-92.85 -112.7 L-91.86 -112.7 L-90.87 -112.7 L-89.88 -112.7 L-88.89 -112.6 L-87.9 -112.6 L-87.91 -111.6 L-87.92 -110.7 L-87.92 -109.7 L-87.93 -108.7 L-87.94 -107.7 L-87.95 -106.7 L-87.95 -105.7 L-87.96 -104.7 L-87.97 -103.7 L-87.98 -102.7 L-87.98 -101.8 L-87.99 -100.8 L-88 -99.77 L-88.01 -98.78 L-88.01 -97.8 L-88.02 -96.81 L-88.03 -95.82 L-88.04 -94.83 L-88.04 -93.84 L-88.05 -92.85 L-88.06 -91.86 L-88.07 -90.87 L-88.08 -89.88 L-88.08 -88.89 L-88.09 -87.9 Z " />
<path stroke="rgb(0,0,0)" stroke-opacity="1" fill="rgb(255,255,255)" fill-opacity="1" d="M324.9 200.2 L324.8 202.1 L324.5 204.1 L324.1 206 L323.6 207.9 L322.8 209.8 L322 211.6 L321 213.3 L319.9 214.9 L318.6 216.4 L317.3 217.9 L315.8 219.2 L314.2 220.4 L312.6 221.4 L310.8 222.4 L309 223.2 L307.1 223.8 L305.2 224.3 L303.3 224.6 L301.3 224.8 L299.3 224.8 L297.4 224.7 L295.4 224.4 L293.5 224 L291.6 223.4 L289.8 222.6 L288 221.8 L286.3 220.7 L284.7 219.6 L283.2 218.3 L281.8 216.9 L280.5 215.4 L279.4 213.8 L278.3 212.1 L277.4 210.4 L276.7 208.6 L276.1 206.7 L275.6 204.7 L275.3 202.8 L275.2 200.8 L275.2 198.8 L275.3 196.9 L275.7 194.9 L276.2 193 L276.8 191.1 L277.6 189.3 L278.5 187.6 L279.5 185.9 L280.7 184.3 L282 182.8 L283.4 181.5 L285 180.2 L286.6 179.1 L288.3 178.1 L290.1 177.2 L291.9 176.5 L293.8 175.9 L295.7 175.5 L297.7 175.3 L299.7 175.1 L301.6 175.2 L303.6 175.4 L305.6 175.8 L307.5 176.3 L309.3 177 L311.1 177.8 L312.9 178.7 L314.5 179.8 L316.1 181 L317.5 182.4 L318.9 183.8 L320.1 185.4 L321.2 187 L322.2 188.7 L323 190.5 L323.7 192.4 L324.2 194.3 L324.6 196.2 L324.8 198.2 L324.9 200.2 Z " />
<path stroke="rgb(0,0,0)" stroke-opacity="1" fill="rgb(255,255,255)" fill-opacity="1" d="M-588.1 12.1 L-589.1 12.09 L-590.1 12.08 L-591.1 12.08 L-592 12.07 L-593 12.06 L-594 12.05 L-595 12.04 L-596 12.04 L-597 12.03 L-598 12.02 L-599 12.01 L-600 12.01 L-601 12 L-601.9 11.99 L-602.9 11.98 L-603.9 11.98 L-604.9 11.97 L-605.9 11.96 L-606.9 11.95 L-607.9 11.95 L-608.9 11.94 L-609.9 11.93 L-610.8 11.92 L-611.8 11.92 L-612.8 11.91 L-612.8 10.92 L-612.8 9.929 L-612.8 8.939 L-612.8 7.95 L-612.8 6.961 L-612.8 5.971 L-612.8 4.982 L-612.8 3.992 L-612.8 3.003 L-612.7 2.014 L-612.7 1.024 L-612.7 0.03486 L-612.7 -0.9545 L-612.7 -1.944 L-612.7 -2.933 L-612.7 -3.923 L-612.7 -4.912 L-612.7 -5.901 L-612.7 -6.891 L-612.7 -7.88 L-612.7 -8.87 L-612.7 -9.859 L-612.6 -10.85 L-612.6 -11.84 L-612.6 -12.83 L-611.6 -12.82 L-610.7 -12.81 L-609.7 -12.8 L-608.7 -12.8 L-607.7 -12.79 L-606.7 -12.78 L-605.7 -12.77 L-604.7 -12.77 L-603.7 -12.76 L-602.7 -12.75 L-601.8 -12.74 L-600.8 -12.74 L-599.8 -12.73 L-598.8 -12.72 L-597.8 -12.71 L-596.8 -12.7 L-595.8 -12.7 L-594.8 -12.69 L-593.8 -12.68 L-592.8 -12.67 L-591.9 -12.67 L-590.9 -12.66 L-589.9 -12.65 L-588.9 -12.64 L-587.9 -12.64 L-587.9 -11.65 L-587.9 -10.66 L-587.9 -9.668 L-587.9 -8.679 L-587.9 -7.689 L-587.9 -6.7 L-588 -5.711 L-588 -4.721 L-588 -3.732 L-588 -2.742 L-588 -1.753 L-588 -0.7637 L-588 0.2256 L-588 1.215 L-588 2.204 L-588 3.194 L-588 4.183 L-588 5.173 L-588 6.162 L-588.1 7.151 L-588.1 8.141 L-588.1 9.13 L-588.1 10.12 L-588.1 11.11 L-588.1 12.1 Z " />
<path stroke="rgb(0,0,0)" stroke-opacity="1" fill="rgb(255,255,255)" fill-opacity="1" d="M-177 296.6 L-176.8 298.4 L-176.8 300.3 L-176.9 302.1 L-177.1 303.9 L-177.5 305.7 L-178 307.5 L-178.7 309.2 L-179.5 310.9 L-180.4 312.5 L-181.5 314 L-182.6 315.4 L-183.9 316.8 L-185.3 318 L-186.8 319.1 L-188.3 320.1 L-189.9 321 L-191.6 321.7 L-193.4 322.3 L-195.2 322.7 L-197 323 L-198.8 323.2 L-200.7 323.2 L-202.5 323.1 L-204.3 322.8 L-206.1 322.4 L-207.9 321.8 L-209.6 321.2 L-211.2 320.3 L-212.8 319.4 L-214.3 318.3 L-215.7 317.1 L-217 315.8 L-218.2 314.4 L-219.3 312.9 L-220.3 311.3 L-221.1 309.7 L-221.8 308 L-222.3 306.2 L-222.8 304.4 L-223 302.6 L-223.2 300.7 L-223.1 298.9 L-223 297.1 L-222.7 295.2 L-222.2 293.5 L-221.6 291.7 L-220.9 290 L-220 288.4 L-219 286.8 L-217.9 285.4 L-216.7 284 L-215.4 282.7 L-213.9 281.5 L-212.4 280.5 L-210.8 279.5 L-209.2 278.7 L-207.5 278.1 L-205.7 277.6 L-203.9 277.2 L-202 276.9 L-200.2 276.8 L-198.4 276.9 L-196.5 277.1 L-194.7 277.5 L-192.9 277.9 L-191.2 278.6 L-189.5 279.3 L-187.9 280.2 L-186.4 281.2 L-184.9 282.4 L-183.6 283.6 L-182.3 285 L-181.2 286.4 L-180.2 288 L-179.3 289.6 L-178.5 291.3 L-177.9 293 L-177.4 294.8 L-177 296.6 Z " />
<path stroke="rgb(0,0,0)" stroke-opacity="1" fill="rgb(255,255,255)" fill-opacity="1" d="M-388.1 12.1 L-389.1 12.09 L-390.1 12.08 L-391.1 12.08 L-392 12.07 L-393 12.06 L-394 12.05 L-395 12.04 L-396 12.04 L-397 12.03 L-398 12.02 L-399 12.01 L-400 12.01 L-401 12 L-401.9 11.99 L-402.9 11.98 L-403.9 11.98 L-404.9 11.97 L-405.9 11.96 L-406.9 11.95 L-407.9 11.95 L-408.9 11.94 L-409.9 11.93 L-410.8 11.92 L-411.8 11.92 L-412.8 11.91 L-412.8 10.92 L-412.8 9.929 L-412.8 8.939 L-412.8 7.95 L-412.8 6.961 L-412.8 5.971 L-412.8 4.982 L-412.8 3.992 L-412.8 3.003 L-412.7 2.014 L-412.7 1.024 L-412.7 0.03486 L-412.7 -0.9545 L-412.7 -1.944 L-412.7 -2.933 L-412.7 -3.923 L-412.7 -4.912 L-412.7 -5.901 L-412.7 -6.891 L-412.7 -7.88 L-412.7 -8.87 L-412.7 -9.859 L-412.6 -10.85 L-412.6 -11.84 L-412.6 -12.83 L-411.6 -12.82 L-410.7 -12.81 L-409.7 -12.8 L-408.7 -12.8 L-407.7 -12.79 L-406.7 -12.78 L-405.7 -12.77 L-404.7 -12.77 L-403.7 -12.76 L-402.7 -12.75 L-401.8 -12.74 L-400.8 -12.74 L-399.8 -12.73 L-398.8 -12.72 L-397.8 -12.71 L-396.8 -12.7 L-395.8 -12.7 L-394.8 -12.69 L-393.8 -12.68 L-392.8 -12.67 L-391.9 -12.67 L-390.9 -12.66 L-389.9 -12.65 L-388.9 -12.64 L-387.9 -12.64 L-387.9 -11.65 L-387.9 -10.66 L-387.9 -9.668 L-387.9 -8.679 L-387.9 -7.689 L-387.9 -6.7 L-388 -5.711 L-388 -4.721 L-388 -3.732 L-388 -2.742 L-388 -1.753 L-388 -0.7637 L-388 0.2256 L-388 1.215 L-388 2.204 L-388 3.194 L-388 4.183 L-388 5.173 L-388 6.162 L-388.1 7.151 L-388.1 8.141 L-388.1 9.13 L-388.1 10.12 L-388.1 11.11 L-388.1 12.1 Z " />
<path stroke="rgb(0,0,0)" stroke-opacity="1" fill="rgb(255,255,255)" fill-opacity="1" d="M24.85 300.1 L24.76 302.1 L24.51 304.1 L24.11 306 L23.55 307.9 L22.85 309.8 L22 311.5 L21.01 313.3 L19.9 314.9 L18.65 316.4 L17.29 317.8 L15.81 319.2 L14.24 320.4 L12.58 321.4 L10.84 322.4 L9.026 323.1 L7.158 323.8 L5.245 324.3 L3.299 324.6 L1.332 324.8 L-0.6434 324.8 L-2.615 324.7 L-4.569 324.4 L-6.495 324 L-8.38 323.4 L-10.21 322.6 L-11.98 321.8 L-13.67 320.7 L-15.28 319.6 L-16.78 318.3 L-18.19 316.9 L-19.47 315.4 L-20.64 313.8 L-21.67 312.1 L-22.57 310.4 L-23.32 308.6 L-23.93 306.7 L-24.38 304.8 L-24.68 302.8 L-24.83 300.8 L-24.82 298.9 L-24.65 296.9 L-24.32 294.9 L-23.84 293 L-23.22 291.2 L-22.44 289.3 L-21.52 287.6 L-20.47 285.9 L-19.28 284.3 L-17.98 282.9 L-16.56 281.5 L-15.04 280.2 L-13.42 279.1 L-11.71 278.1 L-9.935 277.2 L-8.094 276.5 L-6.202 275.9 L-4.271 275.5 L-2.313 275.3 L-0.3406 275.2 L1.634 275.2 L3.599 275.4 L5.541 275.8 L7.447 276.3 L9.307 277 L11.11 277.8 L12.84 278.7 L14.49 279.8 L16.05 281 L17.5 282.4 L18.85 283.8 L20.08 285.4 L21.17 287 L22.14 288.7 L22.97 290.5 L23.65 292.4 L24.18 294.3 L24.56 296.2 L24.78 298.2 L24.85 300.1 Z " />
<path stroke="rgb(0,0,0)" stroke-opacity="1" fill="rgb(255,255,255)" fill-opacity="1" d="M-188.1 12.1 L-189.1 12.09 L-190.1 12.08 L-191.1 12.08 L-192 12.07 L-193 12.06 L-194 12.05 L-195 12.04 L-196 12.04 L-197 12.03 L-198 12.02 L-199 12.01 L-200 12.01 L-201 12 L-201.9 11.99 L-202.9 11.98 L-203.9 11.98 L-204.9 11.97 L-205.9 11.96 L-206.9 11.95 L-207.9 11.95 L-208.9 11.94 L-209.9 11.93 L-210.8 11.92 L-211.8 11.92 L-212.8 11.91 L-212.8 10.92 L-212.8 9.929 L-212.8 8.939 L-212.8 7.95 L-212.8 6.961 L-212.8 5.971 L-212.8 4.982 L-212.8 3.992 L-212.8 3.003 L-212.7 2.014 L-212.7 1.024 L-212.7 0.03486 L-212.7 -0.9545 L-212.7 -1.944 L-212.7 -2.933 L-212.7 -3.923 L-212.7 -4.912 L-212.7 -5.901 L-212.7 -6.891 L-212.7 -7.88 L-212.7 -8.87 L-212.7 -9.859 L-212.6 -10.85 L-212.6 -11.84 L-212.6 -12.83 L-211.6 -12.82 L-210.7 -12.81 L-209.7 -12.8 L-208.7 -12.8 L-207.7 -12.79 L-206.7 -12.78 L-205.7 -12.77 L-204.7 -12.77 L-203.7 -12.76 L-202.7 -12.75 L-201.8 -12.74 L-200.8 -12.74 L-199.8 -12.73 L-198.8 -12.72 L-197.8 -12.71 L-196.8 -12.7 L-195.8 -12.7 L-194.8 -12.69 L-193.8 -12.68 L-192.8 -12.67 L-191.9 -12.67 L-190.9 -12.66 L-189.9 -12.65 L-188.9 -12.64 L-187.9 -12.64 L-187.9 -11.65 L-187.9 -10.66 L-187.9 -9.668 L-187.9 -8.679 L-187.9 -7.689 L-187.9 -6.7 L-188 -5.711 L-188 -4.721 L-188 -3.732 L-188 -2.742 L-188 -1.753 L-188 -0.7637 L-188 0.2256 L-188 1.215 L-188 2.204 L-188 3.194 L-188 4.183 L-188 5.173 L-188 6.162 L-188.1 7.151 L-188.1 8.141 L-188.1 9.13 L-188.1 10.12 L-188.1 11.11 L-188.1 12.1 Z " />
<path stroke="rgb(0,0,0)" stroke-opacity="1" fill="rgb(255,255,255)" fill-opacity="1" d="M224.9 300.2 L224.8 302.1 L224.5 304.1 L224.1 306 L223.6 307.9 L222.8 309.8 L222 311.6 L221 313.3 L219.9 314.9 L218.6 316.4 L217.3 317.9 L215.8 319.2 L214.2 320.4 L212.6 321.4 L210.8 322.4 L209 323.2 L207.1 323.8 L205.2 324.3 L203.3 324.6 L201.3 324.8 L199.3 324.8 L197.4 324.7 L195.4 324.4 L193.5 324 L191.6 323.4 L189.8 322.6 L188 321.8 L186.3 320.7 L184.7 319.6 L183.2 318.3 L181.8 316.9 L180.5 315.4 L179.4 313.8 L178.3 312.1 L177.4 310.4 L176.7 308.6 L176.1 306.7 L175.6 304.7 L175.3 302.8 L175.2 300.8 L175.2 298.8 L175.3 296.9 L175.7 294.9 L176.2 293 L176.8 291.1 L177.6 289.3 L178.5 287.6 L179.5 285.9 L180.7 284.3 L182 282.8 L183.4 281.5 L185 280.2 L186.6 279.1 L188.3 278.1 L190.1 277.2 L191.9 276.5 L193.8 275.9 L195.7 275.5 L197.7 275.3 L199.7 275.1 L201.6 275.2 L203.6 275.4 L205.6 275.8 L207.5 276.3 L209.3 277 L211.1 277.8 L212.9 278.7 L214.5 279.8 L216.1 281 L217.5 282.4 L218.9 283.8 L220.1 285.4 L221.2 287 L222.2 288.7 L223 290.5 L223.7 292.4 L224.2 294.3 L224.6 296.2 L224.8 298.2 L224.9 300.2 Z " />
<path stroke="rgb(0,0,0)" stroke-opacity="1" fill="rgb(255,255,255)" fill-opacity="1" d="M11.91 12.1 L10.92 12.09 L9.931 12.08 L8.941 12.08 L7.952 12.07 L6.962 12.06 L5.973 12.05 L4.984 12.04 L3.994 12.04 L3.005 12.03 L2.016 12.02 L1.026 12.01 L0.03675 12.01 L-0.9526 12 L-1.942 11.99 L-2.931 11.98 L-3.921 11.98 L-4.91 11.97 L-5.9 11.96 L-6.889 11.95 L-7.878 11.95 L-8.868 11.94 L-9.857 11.93 L-10.85 11.92 L-11.84 11.92 L-12.83 11.91 L-12.82 10.92 L-12.81 9.929 L-12.8 8.939 L-12.79 7.95 L-12.79 6.961 L-12.78 5.971 L-12.77 4.982 L-12.76 3.992 L-12.76 3.003 L-12.75 2.014 L-12.74 1.024 L-12.73 0.03486 L-12.73 -0.9545 L-12.72 -1.944 L-12.71 -2.933 L-12.7 -3.923 L-12.7 -4.912 L-12.69 -5.901 L-12.68 -6.891 L-12.67 -7.88 L-12.66 -8.87 L-12.66 -9.859 L-12.65 -10.85 L-12.64 -11.84 L-12.63 -12.83 L-11.65 -12.82 L-10.66 -12.81 L-9.666 -12.8 L-8.677 -12.8 L-7.688 -12.79 L-6.698 -12.78 L-5.709 -12.77 L-4.719 -12.77 L-3.73 -12.76 L-2.741 -12.75 L-1.751 -12.74 L-0.7618 -12.74 L0.2275 -12.73 L1.217 -12.72 L2.206 -12.71 L3.196 -12.7 L4.185 -12.7 L5.174 -12.69 L6.164 -12.68 L7.153 -12.67 L8.143 -12.67 L9.132 -12.66 L10.12 -12.65 L11.11 -12.64 L12.1 -12.64 L12.09 -11.65 L12.08 -10.66 L12.08 -9.668 L12.07 -8.679 L12.06 -7.689 L12.05 -6.7 L12.05 -5.711 L12.04 -4.721 L12.03 -3.732 L12.02 -2.742 L12.02 -1.753 L12.01 -0.7637 L12 0.2256 L11.99 1.215 L11.99 2.204 L11.98 3.194 L11.97 4.183 L11.96 5.173 L11.96 6.162 L11.95 7.151 L11.94 8.141 L11.93 9.13 L11.92 10.12 L11.92 11.11 L11.91 12.1 Z " />
</g>
</g>
</svg>
