<!DOCTYPE svg>
<svg xmlns="http://www.w3.org/2000/svg" xmlns:xlink="http://www.w3.org/1999/xlink" width="1000" height="1000">
<g transform="translate(500.000000,500.000000)">
<g transform="scale(3.000000,3.000000)">
<path stroke="rgb(0,0,0)" stroke-opacity="1" fill="rgb(255,255,255)" fill-opacity="1" d="M-588.1 -587.9 L-589.1 -587.9 L-590.1 -587.9 L-591.1 -587.9 L-592 -587.9 L-593 -587.9 L-594 -587.9 L-595 -588 L-596 -588 L-597 -588 L-598 -588 L-599 -588 L-600 -588 L-601 -588 L-601.9 -588 L-602.9 -588 L-603.9 -588 L-604.9 -588 L-605.9 -588 L-606.9 -588 L-607.9 -588.1 L-608.9 -588.1 L-609.9 -588.1 L-610.8 -588.1 L-611.8 -588.1 L-612.8 -588.1 L-612.8 -589.1 L-612.8 -590.1 L-612.8 -591.1 L-612.8 -592.1 L-612.8 -593 L-612.8 -594 L-612.8 -595 L-612.8 -596 L-612.8 -597 L-612.7 -598 L-612.7 -599 L-612.7 -600 L-612.7 -601 L-612.7 -601.9 L-612.7 -602.9 L-612.7 -603.9 L-612.7 -604.9 L-612.7 -605.9 L-612.7 -606.9 L-612.7 -607.9 L-612.7 -608.9 L-612.7 -609.9 L-612.6 -610.8 L-612.6 -611.8 L-612.6 -612.8 L-611.6 -612.8 L-610.7 -612.8 L-609.7 -612.8 L-608.7 -612.8 L-607.7 -612.8 L-606.7 -612.8 L-605.7 -612.8 L-604.7 -612.8 L-603.7 -612.8 L-602.7 -612.8 L-601.8 -612.7 L-600.8 -612.7 L-599.8 -612.7 L-598.8 -612.7 L-597.8 -612.7 L-596.8 -612.7 L-595.8 -612.7 L-594.8 -612.7 L-593.8 -612.7 L-592.8 -612.7 L-591.9 -612.7 L-590.9 -612.7 L-589.9 -612.7 L-588.9 -612.6 L-587.9 -612.6 L-587.9 -611.6 L-587.9 -610.7 L-587.9 -609.7 L-587.9 -608.7 L-587.9 -607.7 L-587.9 -606.7 L-588 -605.7 L-588 -604.7 L-588 -603.7 L-588 -602.7 L-588 -601.8 L-588 -600.8 L-588 -599.8 L-588 -598.8 L-588 -597.8 L-588 -596.8 L-588 -595.8 L-588 -594.8 L-588 -593.8 L-588.1 -592.8 L-588.1 -591.9 L-588.1 -590.9 L-588.1 -589.9 L-588.1 -588.9 L-588.1 -587.9 Z " />
<path stroke="rgb(0,0,0)" stroke-opacity="0.593" fill="rgb(255,255,255)" fill-opacity="1" d="M-175.1 -299.8 L-175.2 -297.9 L-175.5 -295.9 L-175.9 -294 L-176.4 -292.1 L-177.2 -290.2 L-178 -288.4 L-179 -286.7 L-180.1 -285.1 L-181.4 -283.6 L-182.7 -282.1 L-184.2 -280.8 L-185.8 -279.6 L-187.4 -278.6 L-189.2 -277.6 L-191 -276.8 L-192.9 -276.2 L-194.8 -275.7 L-196.7 -275.4 L-198.7 -275.2 L-200.7 -275.2 L-202.6 -275.3 L-204.6 -275.6 L-206.5 -276 L-208.4 -276.6 L-210.2 -277.4 L-212 -278.2 L-213.7 -279.3 L-215.3 -280.4 L-216.8 -281.7 L-218.2 -283.1 L-219.5 -284.6 L-220.6 -286.2 L-221.7 -287.9 L-222.6 -289.6 L-223.3 -291.4 L-223.9 -293.3 L-224.4 -295.3 L-224.7 -297.2 L-224.8 -299.2 L-224.8 -301.2 L-224.7 -303.1 L-224.3 -305.1 L-223.8 -307 L-223.2 -308.9 L-222.4 -310.7 L-221.5 -312.4 L-220.5 -314.1 L-219.3 -315.7 L-218 -317.2 L-216.6 -318.5 L-215 -319.8 L-213.4 -320.9 L-211.7 -321.9 L-209.9 -322.8 L-208.1 -323.5 L-206.2 -324.1 L-204.3 -324.5 L-202.3 -324.7 L-200.3 -324.9 L-198.4 -324.8 L-196.4 -324.6 L-194.4 -324.2 L-192.5 -323.7 L-190.7 -323 L-188.9 -322.2 L-187.1 -321.3 L-185.5 -320.2 L-183.9 -319 L-182.5 -317.6 L-181.1 -316.2 L-179.9 -314.6 L-178.8 -313 L-177.8 -311.3 L-177 -309.5 L-176.3 -307.6 L-175.8 -305.7 L-175.4 -303.8 L-175.2 -301.8 L-175.1 -299.8 Z " />
<path stroke="rgb(0,0,0)" stroke-opacity="1" fill="rgb(255,255,255)" fill-opacity="1" d="M-388.5 -586.8 L-389.6 -586.9 L-390.6 -587 L-391.6 -587.1 L-392.6 -587.1 L-393.6 -587.2 L-394.6 -587.3 L-395.6 -587.3 L-396.7 -587.4 L-397.7 -587.5 L-398.7 -587.5 L-399.7 -587.6 L-400.7 -587.7 L-401.7 -587.7 L-402.7 -587.8 L-403.7 -587.9 L-404.8 -587.9 L-405.8 -588 L-406.8 -588.1 L-407.8 -588.2 L-408.8 -588.2 L-409.8 -588.3 L-410.8 -588.4 L-411.9 -588.4 L-412.9 -588.5 L-413.9 -588.6 L-413.8 -589.6 L-413.7 -590.6 L-413.7 -591.6 L-413.6 -592.6 L-413.5 -593.6 L-413.5 -594.6 L-413.4 -595.7 L-413.3 -596.7 L-413.3 -597.7 L-413.2 -598.7 L-413.1 -599.7 L-413.1 -600.7 L-413 -601.7 L-412.9 -602.8 L-412.9 -603.8 L-412.8 -604.8 L-412.7 -605.8 L-412.7 -606.8 L-412.6 -607.8 L-412.5 -608.8 L-412.4 -609.8 L-412.4 -610.9 L-412.3 -611.9 L-412.2 -612.9 L-412.2 -613.9 L-411.2 -613.8 L-410.1 -613.8 L-409.1 -613.7 L-408.1 -613.6 L-407.1 -613.6 L-406.1 -613.5 L-405.1 -613.4 L-404.1 -613.4 L-403 -613.3 L-402 -613.2 L-401 -613.1 L-400 -613.1 L-399 -613 L-398 -612.9 L-397 -612.9 L-396 -612.8 L-394.9 -612.7 L-393.9 -612.7 L-392.9 -612.6 L-391.9 -612.5 L-390.9 -612.5 L-389.9 -612.4 L-388.9 -612.3 L-387.8 -612.3 L-386.8 -612.2 L-386.9 -611.2 L-387 -610.2 L-387 -609.1 L-387.1 -608.1 L-387.2 -607.1 L-387.2 -606.1 L-387.3 -605.1 L-387.4 -604.1 L-387.4 -603.1 L-387.5 -602.1 L-387.6 -601 L-387.7 -600 L-387.7 -599 L-387.8 -598 L-387.9 -597 L-387.9 -596 L-388 -595 L-388.1 -593.9 L-388.1 -592.9 L-388.2 -591.9 L-388.3 -590.9 L-388.3 -589.9 L-388.4 -588.9 L-388.5 -587.9 L-388.5 -586.8 Z " />
<path stroke="rgb(0,0,0)" stroke-opacity="0.593" fill="rgb(255,255,255)" fill-opacity="1" d="M24.85 -299.8 L24.76 -297.9 L24.51 -295.9 L24.11 -294 L23.55 -292.1 L22.85 -290.2 L22 -288.4 L21.01 -286.7 L19.89 -285.1 L18.65 -283.6 L17.28 -282.1 L15.81 -280.8 L14.23 -279.6 L12.57 -278.6 L10.83 -277.6 L9.017 -276.8 L7.148 -276.2 L5.235 -275.7 L3.288 -275.4 L1.321 -275.2 L-0.6549 -275.2 L-2.627 -275.3 L-4.581 -275.6 L-6.507 -276 L-8.392 -276.6 L-10.22 -277.4 L-11.99 -278.2 L-13.68 -279.3 L-15.29 -280.4 L-16.8 -281.7 L-18.2 -283.1 L-19.48 -284.6 L-20.65 -286.2 L-21.68 -287.9 L-22.58 -289.6 L-23.33 -291.4 L-23.94 -293.3 L-24.39 -295.3 L-24.69 -297.2 L-24.83 -299.2 L-24.82 -301.2 L-24.65 -303.1 L-24.33 -305.1 L-23.85 -307 L-23.22 -308.9 L-22.44 -310.7 L-21.52 -312.4 L-20.47 -314.1 L-19.28 -315.7 L-17.97 -317.2 L-16.55 -318.5 L-15.03 -319.8 L-13.41 -320.9 L-11.71 -321.9 L-9.927 -322.8 L-8.085 -323.5 L-6.193 -324.1 L-4.261 -324.5 L-2.303 -324.7 L-0.3295 -324.9 L1.646 -324.8 L3.611 -324.6 L5.553 -324.2 L7.46 -323.7 L9.319 -323 L11.12 -322.2 L12.85 -321.3 L14.5 -320.2 L16.06 -319 L17.51 -317.6 L18.86 -316.2 L20.09 -314.6 L21.18 -313 L22.15 -311.3 L22.98 -309.5 L23.66 -307.6 L24.19 -305.7 L24.56 -303.8 L24.79 -301.8 L24.85 -299.8 Z " />
<path stroke="rgb(0,0,0)" stroke-opacity="1" fill="rgb(255,255,255)" fill-opacity="1" d="M-192.4 -581.3 L-193.4 -581.7 L-194.5 -582.2 L-195.6 -582.6 L-196.7 -583.1 L-197.8 -583.5 L-198.9 -584 L-199.9 -584.4 L-201 -584.9 L-202.1 -585.3 L-203.2 -585.8 L-204.3 -586.2 L-205.4 -586.7 L-206.5 -587.1 L-207.5 -587.6 L-208.6 -588 L-209.7 -588.4 L-210.8 -588.9 L-211.9 -589.3 L-213 -589.8 L-214 -590.2 L-215.1 -590.7 L-216.2 -591.1 L-217.3 -591.6 L-218.4 -592 L-219.5 -592.5 L-219 -593.6 L-218.6 -594.6 L-218.1 -595.7 L-217.7 -596.8 L-217.2 -597.9 L-216.8 -599 L-216.3 -600.1 L-215.9 -601.1 L-215.4 -602.2 L-215 -603.3 L-214.5 -604.4 L-214.1 -605.5 L-213.6 -606.6 L-213.2 -607.6 L-212.7 -608.7 L-212.3 -609.8 L-211.9 -610.9 L-211.4 -612 L-211 -613.1 L-210.5 -614.1 L-210.1 -615.2 L-209.6 -616.3 L-209.2 -617.4 L-208.7 -618.5 L-208.3 -619.6 L-207.2 -619.1 L-206.1 -618.7 L-205 -618.2 L-203.9 -617.8 L-202.9 -617.3 L-201.8 -616.9 L-200.7 -616.4 L-199.6 -616 L-198.5 -615.5 L-197.4 -615.1 L-196.4 -614.6 L-195.3 -614.2 L-194.2 -613.8 L-193.1 -613.3 L-192 -612.9 L-190.9 -612.4 L-189.9 -612 L-188.8 -611.5 L-187.7 -611.1 L-186.6 -610.6 L-185.5 -610.2 L-184.4 -609.7 L-183.4 -609.3 L-182.3 -608.8 L-181.2 -608.4 L-181.6 -607.3 L-182.1 -606.2 L-182.5 -605.1 L-183 -604.1 L-183.4 -603 L-183.9 -601.9 L-184.3 -600.8 L-184.8 -599.7 L-185.2 -598.6 L-185.7 -597.5 L-186.1 -596.5 L-186.5 -595.4 L-187 -594.3 L-187.4 -593.2 L-187.9 -592.1 L-188.3 -591 L-188.8 -590 L-189.2 -588.9 L-189.7 -587.8 L-190.1 -586.7 L-190.6 -585.6 L-191 -584.5 L-191.5 -583.5 L-191.9 -582.4 L-192.4 -581.3 Z " />
<path stroke="rgb(0,0,0)" stroke-opacity="0.593" fill="rgb(255,255,255)" fill-opacity="1" d="M224.9 -299.8 L224.8 -297.9 L224.5 -295.9 L224.1 -294 L223.6 -292.1 L222.8 -290.2 L222 -288.4 L221 -286.7 L219.9 -285.1 L218.6 -283.6 L217.3 -282.1 L215.8 -280.8 L214.2 -279.6 L212.6 -278.6 L210.8 -277.6 L209 -276.8 L207.1 -276.2 L205.2 -275.7 L203.3 -275.4 L201.3 -275.2 L199.3 -275.2 L197.4 -275.3 L195.4 -275.6 L193.5 -276 L191.6 -276.6 L189.8 -277.4 L188 -278.2 L186.3 -279.3 L184.7 -280.4 L183.2 -281.7 L181.8 -283.1 L180.5 -284.6 L179.4 -286.2 L178.3 -287.9 L177.4 -289.6 L176.7 -291.4 L176.1 -293.3 L175.6 -295.3 L175.3 -297.2 L175.2 -299.2 L175.2 -301.2 L175.3 -303.1 L175.7 -305.1 L176.2 -307 L176.8 -308.9 L177.6 -310.7 L178.5 -312.4 L179.5 -314.1 L180.7 -315.7 L182 -317.2 L183.4 -318.5 L185 -319.8 L186.6 -320.9 L188.3 -321.9 L190.1 -322.8 L191.9 -323.5 L193.8 -324.1 L195.7 -324.5 L197.7 -324.7 L199.7 -324.9 L201.6 -324.8 L203.6 -324.6 L205.6 -324.2 L207.5 -323.7 L209.3 -323 L211.1 -322.2 L212.9 -321.3 L214.5 -320.2 L216.1 -319 L217.5 -317.6 L218.9 -316.2 L220.1 -314.6 L221.2 -313 L222.2 -311.3 L223 -309.5 L223.7 -307.6 L224.2 -305.7 L224.6 -303.8 L224.8 -301.8 L224.9 -299.8 Z " />
<path stroke="rgb(0,0,0)" stroke-opacity="1" fill="rgb(255,255,255)" fill-opacity="1" d="M-8.861 -573.6 L-9.591 -575 L-10.32 -576.4 L-11.05 -577.8 L-11.78 -579.3 L-12.51 -580.7 L-13.24 -582.1 L-13.97 -583.5 L-14.7 -585 L-15.43 -586.4 L-16.16 -587.8 L-16.89 -589.2 L-17.62 -590.7 L-18.35 -592.1 L-19.08 -593.5 L-19.81 -595 L-20.54 -596.4 L-21.27 -597.8 L-22 -599.2 L-22.73 -600.7 L-23.46 -602.1 L-24.19 -603.5 L-24.92 -604.9 L-25.65 -606.4 L-26.38 -607.8 L-27.11 -609.2 L-25.68 -609.9 L-24.26 -610.7 L-22.83 -611.4 L-21.4 -612.1 L-19.98 -612.9 L-18.55 -613.6 L-17.12 -614.3 L-15.7 -615.1 L-14.27 -615.8 L-12.84 -616.5 L-11.42 -617.2 L-9.992 -618 L-8.565 -618.7 L-7.139 -619.4 L-5.713 -620.2 L-4.286 -620.9 L-2.86 -621.6 L-1.434 -622.4 L-0.007181 -623.1 L1.419 -623.8 L2.846 -624.5 L4.272 -625.3 L5.698 -626 L7.125 -626.7 L8.551 -627.5 L9.281 -626 L10.01 -624.6 L10.74 -623.2 L11.47 -621.8 L12.2 -620.3 L12.93 -618.9 L13.66 -617.5 L14.39 -616.1 L15.12 -614.6 L15.85 -613.2 L16.58 -611.8 L17.31 -610.3 L18.04 -608.9 L18.77 -607.5 L19.5 -606.1 L20.23 -604.6 L20.96 -603.2 L21.69 -601.8 L22.42 -600.4 L23.15 -598.9 L23.88 -597.5 L24.61 -596.1 L25.34 -594.7 L26.07 -593.2 L26.8 -591.8 L25.37 -591.1 L23.95 -590.3 L22.52 -589.6 L21.09 -588.9 L19.67 -588.2 L18.24 -587.4 L16.81 -586.7 L15.39 -586 L13.96 -585.2 L12.53 -584.5 L11.11 -583.8 L9.682 -583 L8.256 -582.3 L6.829 -581.6 L5.403 -580.9 L3.977 -580.1 L2.55 -579.4 L1.124 -578.7 L-0.3025 -577.9 L-1.729 -577.2 L-3.155 -576.5 L-4.582 -575.7 L-6.008 -575 L-7.434 -574.3 L-8.861 -573.6 Z " />
<path stroke="rgb(0,0,0)" stroke-opacity="0.593" fill="rgb(255,255,255)" fill-opacity="1" d="M-275.1 -199.8 L-275.2 -197.9 L-275.5 -195.9 L-275.9 -194 L-276.4 -192.1 L-277.2 -190.2 L-278 -188.4 L-279 -186.7 L-280.1 -185.1 L-281.4 -183.6 L-282.7 -182.1 L-284.2 -180.8 L-285.8 -179.6 L-287.4 -178.6 L-289.2 -177.6 L-291 -176.8 L-292.9 -176.2 L-294.8 -175.7 L-296.7 -175.4 L-298.7 -175.2 L-300.7 -175.2 L-302.6 -175.3 L-304.6 -175.6 L-306.5 -176 L-308.4 -176.6 L-310.2 -177.4 L-312 -178.2 L-313.7 -179.3 L-315.3 -180.4 L-316.8 -181.7 L-318.2 -183.1 L-319.5 -184.6 L-320.6 -186.2 L-321.7 -187.9 L-322.6 -189.6 L-323.3 -191.4 L-323.9 -193.3 L-324.4 -195.3 L-324.7 -197.2 L-324.8 -199.2 L-324.8 -201.2 L-324.7 -203.1 L-324.3 -205.1 L-323.8 -207 L-323.2 -208.9 L-322.4 -210.7 L-321.5 -212.4 L-320.5 -214.1 L-319.3 -215.7 L-318 -217.2 L-316.6 -218.5 L-315 -219.8 L-313.4 -220.9 L-311.7 -221.9 L-309.9 -222.8 L-308.1 -223.5 L-306.2 -224.1 L-304.3 -224.5 L-302.3 -224.7 L-300.3 -224.9 L-298.4 -224.8 L-296.4 -224.6 L-294.4 -224.2 L-292.5 -223.7 L-290.7 -223 L-288.9 -222.2 L-287.1 -221.3 L-285.5 -220.2 L-283.9 -219 L-282.5 -217.6 L-281.1 -216.2 L-279.9 -214.6 L-278.8 -213 L-277.8 -211.3 L-277 -209.5 L-276.3 -207.6 L-275.8 -205.7 L-275.4 -203.8 L-275.2 -201.8 L-275.1 -199.8 Z " />
<path stroke="rgb(0,0,0)" stroke-opacity="1" fill="rgb(255,255,255)" fill-opacity="1" d="M-488.5 -486.8 L-489.6 -486.9 L-490.6 -487 L-491.6 -487.1 L-492.6 -487.1 L-493.6 -487.2 L-494.6 -487.3 L-495.6 -487.3 L-496.7 -487.4 L-497.7 -487.5 L-498.7 -487.5 L-499.7 -487.6 L-500.7 -487.7 L-501.7 -487.7 L-502.7 -487.8 L-503.7 -487.9 L-504.8 -487.9 L-505.8 -488 L-506.8 -488.1 L-507.8 -488.2 L-508.8 -488.2 L-509.8 -488.3 L-510.8 -488.4 L-511.9 -488.4 L-512.9 -488.5 L-513.9 -488.6 L-513.8 -489.6 L-513.7 -490.6 L-513.7 -491.6 L-513.6 -492.6 L-513.5 -493.6 L-513.5 -494.6 L-513.4 -495.7 L-513.3 -496.7 L-513.3 -497.7 L-513.2 -498.7 L-513.1 -499.7 L-513.1 -500.7 L-513 -501.7 L-512.9 -502.8 L-512.9 -503.8 L-512.8 -504.8 L-512.7 -505.8 L-512.7 -506.8 L-512.6 -507.8 L-512.5 -508.8 L-512.4 -509.8 L-512.4 -510.9 L-512.3 -511.9 L-512.2 -512.9 L-512.2 -513.9 L-511.2 -513.8 L-510.1 -513.8 L-509.1 -513.7 L-508.1 -513.6 L-507.1 -513.6 L-506.1 -513.5 L-505.1 -513.4 L-504.1 -513.4 L-503 -513.3 L-502 -513.2 L-501 -513.1 L-500 -513.1 L-499 -513 L-498 -512.9 L-497 -512.9 L-496 -512.8 L-494.9 -512.7 L-493.9 -512.7 L-492.9 -512.6 L-491.9 -512.5 L-490.9 -512.5 L-489.9 -512.4 L-488.9 -512.3 L-487.8 -512.3 L-486.8 -512.2 L-486.9 -511.2 L-487 -510.2 L-487 -509.1 L-487.1 -508.1 L-487.2 -507.1 L-487.2 -506.1 L-487.3 -505.1 L-487.4 -504.1 L-487.4 -503.1 L-487.5 -502.1 L-487.6 -501 L-487.7 -500 L-487.7 -499 L-487.8 -498 L-487.9 -497 L-487.9 -496 L-488 -495 L-488.1 -493.9 L-488.1 -492.9 L-488.2 -491.9 L-488.3 -490.9 L-488.3 -489.9 L-488.4 -488.9 L-488.5 -487.9 L-488.5 -486.8 Z " />
<path stroke="rgb(0,0,0)" stroke-opacity="0.593" fill="rgb(255,255,255)" fill-opacity="1" d="M-75.15 -199.8 L-75.24 -197.9 L-75.49 -195.9 L-75.89 -194 L-76.45 -192.1 L-77.15 -190.2 L-78 -188.4 L-78.99 -186.7 L-80.11 -185.1 L-81.35 -183.6 L-82.72 -182.1 L-84.19 -180.8 L-85.77 -179.6 L-87.43 -178.6 L-89.17 -177.6 L-90.98 -176.8 L-92.85 -176.2 L-94.77 -175.7 L-96.71 -175.4 L-98.68 -175.2 L-100.7 -175.2 L-102.6 -175.3 L-104.6 -175.6 L-106.5 -176 L-108.4 -176.6 L-110.2 -177.4 L-112 -178.2 L-113.7 -179.3 L-115.3 -180.4 L-116.8 -181.7 L-118.2 -183.1 L-119.5 -184.6 L-120.6 -186.2 L-121.7 -187.9 L-122.6 -189.6 L-123.3 -191.4 L-123.9 -193.3 L-124.4 -195.3 L-124.7 -197.2 L-124.8 -199.2 L-124.8 -201.2 L-124.7 -203.1 L-124.3 -205.1 L-123.8 -207 L-123.2 -208.9 L-122.4 -210.7 L-121.5 -212.4 L-120.5 -214.1 L-119.3 -215.7 L-118 -217.2 L-116.6 -218.5 L-115 -219.8 L-113.4 -220.9 L-111.7 -221.9 L-109.9 -222.8 L-108.1 -223.5 L-106.2 -224.1 L-104.3 -224.5 L-102.3 -224.7 L-100.3 -224.9 L-98.35 -224.8 L-96.39 -224.6 L-94.45 -224.2 L-92.54 -223.7 L-90.68 -223 L-88.88 -222.2 L-87.15 -221.3 L-85.5 -220.2 L-83.94 -219 L-82.49 -217.6 L-81.14 -216.2 L-79.91 -214.6 L-78.82 -213 L-77.85 -211.3 L-77.02 -209.5 L-76.34 -207.6 L-75.81 -205.7 L-75.44 -203.8 L-75.21 -201.8 L-75.15 -199.8 Z " />
<path stroke="rgb(0,0,0)" stroke-opacity="1" fill="rgb(255,255,255)" fill-opacity="1" d="M-292.4 -481.3 L-293.4 -481.7 L-294.5 -482.2 L-295.6 -482.6 L-296.7 -483.1 L-297.8 -483.5 L-298.9 -484 L-299.9 -484.4 L-301 -484.9 L-302.1 -485.3 L-303.2 -485.8 L-304.3 -486.2 L-305.4 -486.7 L-306.5 -487.1 L-307.5 -487.6 L-308.6 -488 L-309.7 -488.4 L-310.8 -488.9 L-311.9 -489.3 L-313 -489.8 L-314 -490.2 L-315.1 -490.7 L-316.2 -491.1 L-317.3 -491.6 L-318.4 -492 L-319.5 -492.5 L-319 -493.6 L-318.6 -494.6 L-318.1 -495.7 L-317.7 -496.8 L-317.2 -497.9 L-316.8 -499 L-316.3 -500.1 L-315.9 -501.1 L-315.4 -502.2 L-315 -503.3 L-314.5 -504.4 L-314.1 -505.5 L-313.6 -506.6 L-313.2 -507.6 L-312.7 -508.7 L-312.3 -509.8 L-311.9 -510.9 L-311.4 -512 L-311 -513.1 L-310.5 -514.1 L-310.1 -515.2 L-309.6 -516.3 L-309.2 -517.4 L-308.7 -518.5 L-308.3 -519.6 L-307.2 -519.1 L-306.1 -518.7 L-305 -518.2 L-303.9 -517.8 L-302.9 -517.3 L-301.8 -516.9 L-300.7 -516.4 L-299.6 -516 L-298.5 -515.5 L-297.4 -515.1 L-296.4 -514.6 L-295.3 -514.2 L-294.2 -513.8 L-293.1 -513.3 L-292 -512.9 L-290.9 -512.4 L-289.9 -512 L-288.8 -511.5 L-287.7 -511.1 L-286.6 -510.6 L-285.5 -510.2 L-284.4 -509.7 L-283.4 -509.3 L-282.3 -508.8 L-281.2 -508.4 L-281.6 -507.3 L-282.1 -506.2 L-282.5 -505.1 L-283 -504.1 L-283.4 -503 L-283.9 -501.9 L-284.3 -500.8 L-284.8 -499.7 L-285.2 -498.6 L-285.7 -497.5 L-286.1 -496.5 L-286.5 -495.4 L-287 -494.3 L-287.4 -493.2 L-287.9 -492.1 L-288.3 -491 L-288.8 -490 L-289.2 -488.9 L-289.7 -487.8 L-290.1 -486.7 L-290.6 -485.6 L-291 -484.5 L-291.5 -483.5 L-291.9 -482.4 L-292.4 -481.3 Z " />
<path stroke="rgb(0,0,0)" stroke-opacity="0.593" fill="rgb(255,255,255)" fill-opacity="1" d="M124.9 -199.8 L124.8 -197.9 L124.5 -195.9 L124.1 -194 L123.6 -192.1 L122.8 -190.2 L122 -188.4 L121 -186.7 L119.9 -185.1 L118.6 -183.6 L117.3 -182.1 L115.8 -180.8 L114.2 -179.6 L112.6 -178.6 L110.8 -177.6 L109 -176.8 L107.1 -176.2 L105.2 -175.7 L103.3 -175.4 L101.3 -175.2 L99.35 -175.2 L97.37 -175.3 L95.42 -175.6 L93.49 -176 L91.61 -176.6 L89.78 -177.4 L88.01 -178.2 L86.32 -179.3 L84.71 -180.4 L83.2 -181.7 L81.8 -183.1 L80.52 -184.6 L79.35 -186.2 L78.32 -187.9 L77.42 -189.6 L76.67 -191.4 L76.06 -193.3 L75.61 -195.3 L75.31 -197.2 L75.17 -199.2 L75.18 -201.2 L75.35 -203.1 L75.67 -205.1 L76.15 -207 L76.78 -208.9 L77.56 -210.7 L78.48 -212.4 L79.53 -214.1 L80.72 -215.7 L82.03 -217.2 L83.45 -218.5 L84.97 -219.8 L86.59 -220.9 L88.29 -221.9 L90.07 -222.8 L91.91 -223.5 L93.81 -224.1 L95.74 -224.5 L97.7 -224.7 L99.67 -224.9 L101.6 -224.8 L103.6 -224.6 L105.6 -224.2 L107.5 -223.7 L109.3 -223 L111.1 -222.2 L112.9 -221.3 L114.5 -220.2 L116.1 -219 L117.5 -217.6 L118.9 -216.2 L120.1 -214.6 L121.2 -213 L122.2 -211.3 L123 -209.5 L123.7 -207.6 L124.2 -205.7 L124.6 -203.8 L124.8 -201.8 L124.9 -199.8 Z " />
<path stroke="rgb(0,0,0)" stroke-opacity="1" fill="rgb(255,255,255)" fill-opacity="1" d="M-108.9 -473.6 L-109.6 -475 L-110.3 -476.4 L-111.1 -477.8 L-111.8 -479.3 L-112.5 -480.7 L-113.2 -482.1 L-114 -483.5 L-114.7 -485 L-115.4 -486.4 L-116.2 -487.8 L-116.9 -489.2 L-117.6 -490.7 L-118.3 -492.1 L-119.1 -493.5 L-119.8 -495 L-120.5 -496.4 L-121.3 -497.8 L-122 -499.2 L-122.7 -500.7 L-123.5 -502.1 L-124.2 -503.5 L-124.9 -504.9 L-125.6 -506.4 L-126.4 -507.8 L-127.1 -509.2 L-125.7 -509.9 L-124.3 -510.7 L-122.8 -511.4 L-121.4 -512.1 L-120 -512.9 L-118.5 -513.6 L-117.1 -514.3 L-115.7 -515.1 L-114.3 -515.8 L-112.8 -516.5 L-111.4 -517.2 L-110 -518 L-108.6 -518.7 L-107.1 -519.4 L-105.7 -520.2 L-104.3 -520.9 L-102.9 -521.6 L-101.4 -522.4 L-100 -523.1 L-98.58 -523.8 L-97.15 -524.5 L-95.73 -525.3 L-94.3 -526 L-92.88 -526.7 L-91.45 -527.5 L-90.72 -526 L-89.99 -524.6 L-89.26 -523.2 L-88.53 -521.8 L-87.8 -520.3 L-87.07 -518.9 L-86.34 -517.5 L-85.61 -516.1 L-84.88 -514.6 L-84.15 -513.2 L-83.42 -511.8 L-82.69 -510.3 L-81.96 -508.9 L-81.23 -507.5 L-80.5 -506.1 L-79.77 -504.6 L-79.04 -503.2 L-78.31 -501.8 L-77.58 -500.4 L-76.85 -498.9 L-76.12 -497.5 L-75.39 -496.1 L-74.66 -494.7 L-73.93 -493.2 L-73.2 -491.8 L-74.63 -491.1 L-76.05 -490.3 L-77.48 -489.6 L-78.91 -488.9 L-80.33 -488.2 L-81.76 -487.4 L-83.19 -486.7 L-84.61 -486 L-86.04 -485.2 L-87.47 -484.5 L-88.89 -483.8 L-90.32 -483 L-91.74 -482.3 L-93.17 -481.6 L-94.6 -480.9 L-96.02 -480.1 L-97.45 -479.4 L-98.88 -478.7 L-100.3 -477.9 L-101.7 -477.2 L-103.2 -476.5 L-104.6 -475.7 L-106 -475 L-107.4 -474.3 L-108.9 -473.6 Z " />
<path stroke="rgb(0,0,0)" stroke-opacity="0.593" fill="rgb(255,255,255)" fill-opacity="1" d="M324.9 -199.8 L324.8 -197.9 L324.5 -195.9 L324.1 -194 L323.6 -192.1 L322.8 -190.2 L322 -188.4 L321 -186.7 L319.9 -185.1 L318.6 -183.6 L317.3 -182.1 L315.8 -180.8 L314.2 -179.6 L312.6 -178.6 L310.8 -177.6 L309 -176.8 L307.1 -176.2 L305.2 -175.7 L303.3 -175.4 L301.3 -175.2 L299.3 -175.2 L297.4 -175.3 L295.4 -175.6 L293.5 -176 L291.6 -176.6 L289.8 -177.4 L288 -178.2 L286.3 -179.3 L284.7 -180.4 L283.2 -181.7 L281.8 -183.1 L280.5 -184.6 L279.4 -186.2 L278.3 -187.9 L277.4 -189.6 L276.7 -191.4 L276.1 -193.3 L275.6 -195.3 L275.3 -197.2 L275.2 -199.2 L275.2 -201.2 L275.3 -203.1 L275.7 -205.1 L276.2 -207 L276.8 -208.9 L277.6 -210.7 L278.5 -212.4 L279.5 -214.1 L280.7 -215.7 L282 -217.2 L283.4 -218.5 L285 -219.8 L286.6 -220.9 L288.3 -221.9 L290.1 -222.8 L291.9 -223.5 L293.8 -224.1 L295.7 -224.5 L297.7 -224.7 L299.7 -224.9 L301.6 -224.8 L303.6 -224.6 L305.6 -224.2 L307.5 -223.7 L309.3 -223 L311.1 -222.2 L312.9 -221.3 L314.5 -220.2 L316.1 -219 L317.5 -217.6 L318.9 -216.2 L320.1 -214.6 L321.2 -213 L322.2 -211.3 L323 -209.5 L323.7 -207.6 L324.2 -205.7 L324.6 -203.8 L324.8 -201.8 L324.9 -199.8 Z " />
<path stroke="rgb(0,0,0)" stroke-opacity="1" fill="rgb(255,255,255)" fill-opacity="1" d="M-588.5 -386.8 L-589.6 -386.9 L-590.6 -387 L-591.6 -387.1 L-592.6 -387.1 L-593.6 -387.2 L-594.6 -387.3 L-595.6 -387.3 L-596.7 -387.4 L-597.7 -387.5 L-598.7 -387.5 L-599.7 -387.6 L-600.7 -387.7 L-601.7 -387.7 L-602.7 -387.8 L-603.7 -387.9 L-604.8 -387.9 L-605.8 -388 L-606.8 -388.1 L-607.8 -388.2 L-608.8 -388.2 L-609.8 -388.3 L-610.8 -388.4 L-611.9 -388.4 L-612.9 -388.5 L-613.9 -388.6 L-613.8 -389.6 L-613.7 -390.6 L-613.7 -391.6 L-613.6 -392.6 L-613.5 -393.6 L-613.5 -394.6 L-613.4 -395.7 L-613.3 -396.7 L-613.3 -397.7 L-613.2 -398.7 L-613.1 -399.7 L-613.1 -400.7 L-613 -401.7 L-612.9 -402.8 L-612.9 -403.8 L-612.8 -404.8 L-612.7 -405.8 L-612.7 -406.8 L-612.6 -407.8 L-612.5 -408.8 L-612.4 -409.8 L-612.4 -410.9 L-612.3 -411.9 L-612.2 -412.9 L-612.2 -413.9 L-611.2 -413.8 L-610.1 -413.8 L-609.1 -413.7 L-608.1 -413.6 L-607.1 -413.6 L-606.1 -413.5 L-605.1 -413.4 L-604.1 -413.4 L-603 -413.3 L-602 -413.2 L-601 -413.1 L-600 -413.1 L-599 -413 L-598 -412.9 L-597 -412.9 L-596 -412.8 L-594.9 -412.7 L-593.9 -412.7 L-592.9 -412.6 L-591.9 -412.5 L-590.9 -412.5 L-589.9 -412.4 L-588.9 -412.3 L-587.8 -412.3 L-586.8 -412.2 L-586.9 -411.2 L-587 -410.2 L-587 -409.1 L-587.1 -408.1 L-587.2 -407.1 L-587.2 -406.1 L-587.3 -405.1 L-587.4 -404.1 L-587.4 -403.1 L-587.5 -402.1 L-587.6 -401 L-587.7 -400 L-587.7 -399 L-587.8 -398 L-587.9 -397 L-587.9 -396 L-588 -395 L-588.1 -393.9 L-588.1 -392.9 L-588.2 -391.9 L-588.3 -390.9 L-588.3 -389.9 L-588.4 -388.9 L-588.5 -387.9 L-588.5 -386.8 Z " />
<path stroke="rgb(0,0,0)" stroke-opacity="0.593" fill="rgb(255,255,255)" fill-opacity="1" d="M-175.1 -99.84 L-175.2 -97.87 L-175.5 -95.91 L-175.9 -93.97 L-176.4 -92.07 L-177.2 -90.23 L-178 -88.44 L-179 -86.73 L-180.1 -85.11 L-181.4 -83.57 L-182.7 -82.14 L-184.2 -80.83 L-185.8 -79.63 L-187.4 -78.56 L-189.2 -77.63 L-191 -76.84 L-192.9 -76.2 L-194.8 -75.71 L-196.7 -75.37 L-198.7 -75.19 L-200.7 -75.16 L-202.6 -75.29 L-204.6 -75.58 L-206.5 -76.02 L-208.4 -76.61 L-210.2 -77.35 L-212 -78.24 L-213.7 -79.26 L-215.3 -80.41 L-216.8 -81.69 L-218.2 -83.08 L-219.5 -84.58 L-220.6 -86.18 L-221.7 -87.86 L-222.6 -89.62 L-223.3 -91.45 L-223.9 -93.33 L-224.4 -95.25 L-224.7 -97.21 L-224.8 -99.18 L-224.8 -101.2 L-224.7 -103.1 L-224.3 -105.1 L-223.8 -107 L-223.2 -108.9 L-222.4 -110.7 L-221.5 -112.4 L-220.5 -114.1 L-219.3 -115.7 L-218 -117.2 L-216.6 -118.5 L-215 -119.8 L-213.4 -120.9 L-211.7 -121.9 L-209.9 -122.8 L-208.1 -123.5 L-206.2 -124.1 L-204.3 -124.5 L-202.3 -124.7 L-200.3 -124.9 L-198.4 -124.8 L-196.4 -124.6 L-194.4 -124.2 L-192.5 -123.7 L-190.7 -123 L-188.9 -122.2 L-187.1 -121.3 L-185.5 -120.2 L-183.9 -119 L-182.5 -117.6 L-181.1 -116.2 L-179.9 -114.6 L-178.8 -113 L-177.8 -111.3 L-177 -109.5 L-176.3 -107.6 L-175.8 -105.7 L-175.4 -103.8 L-175.2 -101.8 L-175.1 -99.84 Z " />
<path stroke="rgb(0,0,0)" stroke-opacity="1" fill="rgb(255,255,255)" fill-opacity="1" d="M-392.4 -381.3 L-393.4 -381.7 L-394.5 -382.2 L-395.6 -382.6 L-396.7 -383.1 L-397.8 -383.5 L-398.9 -384 L-399.9 -384.4 L-401 -384.9 L-402.1 -385.3 L-403.2 -385.8 L-404.3 -386.2 L-405.4 -386.7 L-406.5 -387.1 L-407.5 -387.6 L-408.6 -388 L-409.7 -388.4 L-410.8 -388.9 L-411.9 -389.3 L-413 -389.8 L-414 -390.2 L-415.1 -390.7 L-416.2 -391.1 L-417.3 -391.6 L-418.4 -392 L-419.5 -392.5 L-419 -393.6 L-418.6 -394.6 L-418.1 -395.7 L-417.7 -396.8 L-417.2 -397.9 L-416.8 -399 L-416.3 -400.1 L-415.9 -401.1 L-415.4 -402.2 L-415 -403.3 L-414.5 -404.4 L-414.1 -405.5 L-413.6 -406.6 L-413.2 -407.6 L-412.7 -408.7 L-412.3 -409.8 L-411.9 -410.9 L-411.4 -412 L-411 -413.1 L-410.5 -414.1 L-410.1 -415.2 L-409.6 -416.3 L-409.2 -417.4 L-408.7 -418.5 L-408.3 -419.6 L-407.2 -419.1 L-406.1 -418.7 L-405 -418.2 L-403.9 -417.8 L-402.9 -417.3 L-401.8 -416.9 L-400.7 -416.4 L-399.6 -416 L-398.5 -415.5 L-397.4 -415.1 L-396.4 -414.6 L-395.3 -414.2 L-394.2 -413.8 L-393.1 -413.3 L-392 -412.9 L-390.9 -412.4 L-389.9 -412 L-388.8 -411.5 L-387.7 -411.1 L-386.6 -410.6 L-385.5 -410.2 L-384.4 -409.7 L-383.4 -409.3 L-382.3 -408.8 L-381.2 -408.4 L-381.6 -407.3 L-382.1 -406.2 L-382.5 -405.1 L-383 -404.1 L-383.4 -403 L-383.9 -401.9 L-384.3 -400.8 L-384.8 -399.7 L-385.2 -398.6 L-385.7 -397.5 L-386.1 -396.5 L-386.5 -395.4 L-387 -394.3 L-387.4 -393.2 L-387.9 -392.1 L-388.3 -391 L-388.8 -390 L-389.2 -388.9 L-389.7 -387.8 L-390.1 -386.7 L-390.6 -385.6 L-391 -384.5 L-391.5 -383.5 L-391.9 -382.4 L-392.4 -381.3 Z " />
<path stroke="rgb(0,0,0)" stroke-opacity="0.593" fill="rgb(255,255,255)" fill-opacity="1" d="M24.85 -99.84 L24.76 -97.87 L24.51 -95.91 L24.11 -93.97 L23.55 -92.07 L22.85 -90.23 L22 -88.44 L21.01 -86.73 L19.89 -85.11 L18.65 -83.57 L17.28 -82.14 L15.81 -80.83 L14.23 -79.63 L12.57 -78.56 L10.83 -77.63 L9.017 -76.84 L7.148 -76.2 L5.235 -75.71 L3.288 -75.37 L1.321 -75.19 L-0.6549 -75.16 L-2.627 -75.29 L-4.581 -75.58 L-6.507 -76.02 L-8.392 -76.61 L-10.22 -77.35 L-11.99 -78.24 L-13.68 -79.26 L-15.29 -80.41 L-16.8 -81.69 L-18.2 -83.08 L-19.48 -84.58 L-20.65 -86.18 L-21.68 -87.86 L-22.58 -89.62 L-23.33 -91.45 L-23.94 -93.33 L-24.39 -95.25 L-24.69 -97.21 L-24.83 -99.18 L-24.82 -101.2 L-24.65 -103.1 L-24.33 -105.1 L-23.85 -107 L-23.22 -108.9 L-22.44 -110.7 L-21.52 -112.4 L-20.47 -114.1 L-19.28 -115.7 L-17.97 -117.2 L-16.55 -118.5 L-15.03 -119.8 L-13.41 -120.9 L-11.71 -121.9 L-9.927 -122.8 L-8.085 -123.5 L-6.193 -124.1 L-4.261 -124.5 L-2.303 -124.7 L-0.3295 -124.9 L1.646 -124.8 L3.611 -124.6 L5.553 -124.2 L7.46 -123.7 L9.319 -123 L11.12 -122.2 L12.85 -121.3 L14.5 -120.2 L16.06 -119 L17.51 -117.6 L18.86 -116.2 L20.09 -114.6 L21.18 -113 L22.15 -111.3 L22.98 -109.5 L23.66 -107.6 L24.19 -105.7 L24.56 -103.8 L24.79 -101.8 L24.85 -99.84 Z " />
<path stroke="rgb(0,0,0)" stroke-opacity="1" fill="rgb(255,255,255)" fill-opacity="1" d="M-208.9 -373.6 L-209.6 -375 L-210.3 -376.4 L-211.1 -377.8 L-211.8 -379.3 L-212.5 -380.7 L-213.2 -382.1 L-214 -383.5 L-214.7 -385 L-215.4 -386.4 L-216.2 -387.8 L-216.9 -389.2 L-217.6 -390.7 L-218.3 -392.1 L-219.1 -393.5 L-219.8 -395 L-220.5 -396.4 L-221.3 -397.8 L-222 -399.2 L-222.7 -400.7 L-223.5 -402.1 L-224.2 -403.5 L-224.9 -404.9 L-225.6 -406.4 L-226.4 -407.8 L-227.1 -409.2 L-225.7 -409.9 L-224.3 -410.7 L-222.8 -411.4 L-221.4 -412.1 L-220 -412.9 L-218.5 -413.6 L-217.1 -414.3 L-215.7 -415.1 L-214.3 -415.8 L-212.8 -416.5 L-211.4 -417.2 L-210 -418 L-208.6 -418.7 L-207.1 -419.4 L-205.7 -420.2 L-204.3 -420.9 L-202.9 -421.6 L-201.4 -422.4 L-200 -423.1 L-198.6 -423.8 L-197.2 -424.5 L-195.7 -425.3 L-194.3 -426 L-192.9 -426.7 L-191.4 -427.5 L-190.7 -426 L-190 -424.6 L-189.3 -423.2 L-188.5 -421.8 L-187.8 -420.3 L-187.1 -418.9 L-186.3 -417.5 L-185.6 -416.1 L-184.9 -414.6 L-184.2 -413.2 L-183.4 -411.8 L-182.7 -410.3 L-182 -408.9 L-181.2 -407.5 L-180.5 -406.1 L-179.8 -404.6 L-179 -403.2 L-178.3 -401.8 L-177.6 -400.4 L-176.9 -398.9 L-176.1 -397.5 L-175.4 -396.1 L-174.7 -394.7 L-173.9 -393.2 L-173.2 -391.8 L-174.6 -391.1 L-176.1 -390.3 L-177.5 -389.6 L-178.9 -388.9 L-180.3 -388.2 L-181.8 -387.4 L-183.2 -386.7 L-184.6 -386 L-186 -385.2 L-187.5 -384.5 L-188.9 -383.8 L-190.3 -383 L-191.7 -382.3 L-193.2 -381.6 L-194.6 -380.9 L-196 -380.1 L-197.4 -379.4 L-198.9 -378.7 L-200.3 -377.9 L-201.7 -377.2 L-203.2 -376.5 L-204.6 -375.7 L-206 -375 L-207.4 -374.3 L-208.9 -373.6 Z " />
<path stroke="rgb(0,0,0)" stroke-opacity="0.593" fill="rgb(255,255,255)" fill-opacity="1" d="M224.9 -99.84 L224.8 -97.87 L224.5 -95.91 L224.1 -93.97 L223.6 -92.07 L222.8 -90.23 L222 -88.44 L221 -86.73 L219.9 -85.11 L218.6 -83.57 L217.3 -82.14 L215.8 -80.83 L214.2 -79.63 L212.6 -78.56 L210.8 -77.63 L209 -76.84 L207.1 -76.2 L205.2 -75.71 L203.3 -75.37 L201.3 -75.19 L199.3 -75.16 L197.4 -75.29 L195.4 -75.58 L193.5 -76.02 L191.6 -76.61 L189.8 -77.35 L188 -78.24 L186.3 -79.26 L184.7 -80.41 L183.2 -81.69 L181.8 -83.08 L180.5 -84.58 L179.4 -86.18 L178.3 -87.86 L177.4 -89.62 L176.7 -91.45 L176.1 -93.33 L175.6 -95.25 L175.3 -97.21 L175.2 -99.18 L175.2 -101.2 L175.3 -103.1 L175.7 -105.1 L176.2 -107 L176.8 -108.9 L177.6 -110.7 L178.5 -112.4 L179.5 -114.1 L180.7 -115.7 L182 -117.2 L183.4 -118.5 L185 -119.8 L186.6 -120.9 L188.3 -121.9 L190.1 -122.8 L191.9 -123.5 L193.8 -124.1 L195.7 -124.5 L197.7 -124.7 L199.7 -124.9 L201.6 -124.8 L203.6 -124.6 L205.6 -124.2 L207.5 -123.7 L209.3 -123 L211.1 -122.2 L212.9 -121.3 L214.5 -120.2 L216.1 -119 L217.5 -117.6 L218.9 -116.2 L220.1 -114.6 L221.2 -113 L222.2 -111.3 L223 -109.5 L223.7 -107.6 L224.2 -105.7 L224.6 -103.8 L224.8 -101.8 L224.9 -99.84 Z " />
<path stroke="rgb(0,0,0)" stroke-opacity="1" fill="rgb(255,255,255)" fill-opacity="1" d="M-21.77 -374.8 L-21.93 -376.7 L-22.08 -378.6 L-22.24 -380.5 L-22.4 -382.4 L-22.56 -384.3 L-22.72 -386.2 L-22.87 -388.1 L-23.03 -390 L-23.19 -391.9 L-23.35 -393.8 L-23.5 -395.7 L-23.66 -397.6 L-23.82 -399.5 L-23.98 -401.4 L-24.14 -403.3 L-24.29 -405.2 L-24.45 -407.1 L-24.61 -409 L-24.77 -410.9 L-24.93 -412.8 L-25.08 -414.6 L-25.24 -416.5 L-25.4 -418.4 L-25.56 -420.3 L-25.71 -422.2 L-23.82 -422.4 L-21.92 -422.6 L-20.02 -422.7 L-18.13 -422.9 L-16.23 -423 L-14.33 -423.2 L-12.43 -423.3 L-10.54 -423.5 L-8.639 -423.7 L-6.742 -423.8 L-4.845 -424 L-2.948 -424.1 L-1.05 -424.3 L0.847 -424.4 L2.744 -424.6 L4.642 -424.8 L6.539 -424.9 L8.436 -425.1 L10.33 -425.2 L12.23 -425.4 L14.13 -425.6 L16.03 -425.7 L17.92 -425.9 L19.82 -426 L21.72 -426.2 L21.87 -424.3 L22.03 -422.4 L22.19 -420.5 L22.35 -418.6 L22.51 -416.7 L22.66 -414.8 L22.82 -412.9 L22.98 -411 L23.14 -409.1 L23.3 -407.2 L23.45 -405.3 L23.61 -403.4 L23.77 -401.5 L23.93 -399.6 L24.08 -397.7 L24.24 -395.8 L24.4 -393.9 L24.56 -392 L24.72 -390.1 L24.87 -388.2 L25.03 -386.3 L25.19 -384.4 L25.35 -382.5 L25.51 -380.6 L25.66 -378.8 L23.77 -378.6 L21.87 -378.4 L19.97 -378.3 L18.07 -378.1 L16.18 -378 L14.28 -377.8 L12.38 -377.6 L10.49 -377.5 L8.588 -377.3 L6.691 -377.2 L4.793 -377 L2.896 -376.9 L0.9988 -376.7 L-0.8985 -376.5 L-2.796 -376.4 L-4.693 -376.2 L-6.59 -376.1 L-8.488 -375.9 L-10.38 -375.8 L-12.28 -375.6 L-14.18 -375.4 L-16.08 -375.3 L-17.97 -375.1 L-19.87 -375 L-21.77 -374.8 Z " />
<path stroke="rgb(0,0,0)" stroke-opacity="0.593" fill="rgb(255,255,255)" fill-opacity="1" d="M-275.1 0.1607 L-275.2 2.135 L-275.5 4.095 L-275.9 6.029 L-276.4 7.925 L-277.2 9.772 L-278 11.56 L-279 13.27 L-280.1 14.89 L-281.4 16.43 L-282.7 17.86 L-284.2 19.17 L-285.8 20.37 L-287.4 21.44 L-289.2 22.37 L-291 23.16 L-292.9 23.8 L-294.8 24.29 L-296.7 24.63 L-298.7 24.81 L-300.7 24.84 L-302.6 24.71 L-304.6 24.42 L-306.5 23.98 L-308.4 23.39 L-310.2 22.65 L-312 21.76 L-313.7 20.74 L-315.3 19.59 L-316.8 18.31 L-318.2 16.92 L-319.5 15.42 L-320.6 13.82 L-321.7 12.14 L-322.6 10.38 L-323.3 8.551 L-323.9 6.67 L-324.4 4.747 L-324.7 2.794 L-324.8 0.8233 L-324.8 -1.153 L-324.7 -3.121 L-324.3 -5.07 L-323.8 -6.987 L-323.2 -8.86 L-322.4 -10.68 L-321.5 -12.43 L-320.5 -14.1 L-319.3 -15.68 L-318 -17.16 L-316.6 -18.53 L-315 -19.79 L-313.4 -20.92 L-311.7 -21.92 L-309.9 -22.78 L-308.1 -23.5 L-306.2 -24.07 L-304.3 -24.48 L-302.3 -24.75 L-300.3 -24.85 L-298.4 -24.8 L-296.4 -24.59 L-294.4 -24.22 L-292.5 -23.71 L-290.7 -23.04 L-288.9 -22.23 L-287.1 -21.27 L-285.5 -20.18 L-283.9 -18.97 L-282.5 -17.63 L-281.1 -16.19 L-279.9 -14.64 L-278.8 -12.99 L-277.8 -11.27 L-277 -9.476 L-276.3 -7.62 L-275.8 -5.717 L-275.4 -3.777 L-275.2 -1.814 L-275.1 0.1607 Z " />
<path stroke="rgb(0,0,0)" stroke-opacity="1" fill="rgb(255,255,255)" fill-opacity="1" d="M-492.4 -281.3 L-493.4 -281.7 L-494.5 -282.2 L-495.6 -282.6 L-496.7 -283.1 L-497.8 -283.5 L-498.9 -284 L-499.9 -284.4 L-501 -284.9 L-502.1 -285.3 L-503.2 -285.8 L-504.3 -286.2 L-505.4 -286.7 L-506.5 -287.1 L-507.5 -287.6 L-508.6 -288 L-509.7 -288.4 L-510.8 -288.9 L-511.9 -289.3 L-513 -289.8 L-514 -290.2 L-515.1 -290.7 L-516.2 -291.1 L-517.3 -291.6 L-518.4 -292 L-519.5 -292.5 L-519 -293.6 L-518.6 -294.6 L-518.1 -295.7 L-517.7 -296.8 L-517.2 -297.9 L-516.8 -299 L-516.3 -300.1 L-515.9 -301.1 L-515.4 -302.2 L-515 -303.3 L-514.5 -304.4 L-514.1 -305.5 L-513.6 -306.6 L-513.2 -307.6 L-512.7 -308.7 L-512.3 -309.8 L-511.9 -310.9 L-511.4 -312 L-511 -313.1 L-510.5 -314.1 L-510.1 -315.2 L-509.6 -316.3 L-509.2 -317.4 L-508.7 -318.5 L-508.3 -319.6 L-507.2 -319.1 L-506.1 -318.7 L-505 -318.2 L-503.9 -317.8 L-502.9 -317.3 L-501.8 -316.9 L-500.7 -316.4 L-499.6 -316 L-498.5 -315.5 L-497.4 -315.1 L-496.4 -314.6 L-495.3 -314.2 L-494.2 -313.8 L-493.1 -313.3 L-492 -312.9 L-490.9 -312.4 L-489.9 -312 L-488.8 -311.5 L-487.7 -311.1 L-486.6 -310.6 L-485.5 -310.2 L-484.4 -309.7 L-483.4 -309.3 L-482.3 -308.8 L-481.2 -308.4 L-481.6 -307.3 L-482.1 -306.2 L-482.5 -305.1 L-483 -304.1 L-483.4 -303 L-483.9 -301.9 L-484.3 -300.8 L-484.8 -299.7 L-485.2 -298.6 L-485.7 -297.5 L-486.1 -296.5 L-486.5 -295.4 L-487 -294.3 L-487.4 -293.2 L-487.9 -292.1 L-488.3 -291 L-488.8 -290 L-489.2 -288.9 L-489.7 -287.8 L-490.1 -286.7 L-490.6 -285.6 L-491 -284.5 L-491.5 -283.5 L-491.9 -282.4 L-492.4 -281.3 Z " />
<path stroke="rgb(0,0,0)" stroke-opacity="0.593" fill="rgb(255,255,255)" fill-opacity="1" d="M-75.15 0.1607 L-75.24 2.135 L-75.49 4.095 L-75.89 6.029 L-76.45 7.925 L-77.15 9.772 L-78 11.56 L-78.99 13.27 L-80.11 14.89 L-81.35 16.43 L-82.72 17.86 L-84.19 19.17 L-85.77 20.37 L-87.43 21.44 L-89.17 22.37 L-90.98 23.16 L-92.85 23.8 L-94.77 24.29 L-96.71 24.63 L-98.68 24.81 L-100.7 24.84 L-102.6 24.71 L-104.6 24.42 L-106.5 23.98 L-108.4 23.39 L-110.2 22.65 L-112 21.76 L-113.7 20.74 L-115.3 19.59 L-116.8 18.31 L-118.2 16.92 L-119.5 15.42 L-120.6 13.82 L-121.7 12.14 L-122.6 10.38 L-123.3 8.551 L-123.9 6.67 L-124.4 4.747 L-124.7 2.794 L-124.8 0.8233 L-124.8 -1.153 L-124.7 -3.121 L-124.3 -5.07 L-123.8 -6.987 L-123.2 -8.86 L-122.4 -10.68 L-121.5 -12.43 L-120.5 -14.1 L-119.3 -15.68 L-118 -17.16 L-116.6 -18.53 L-115 -19.79 L-113.4 -20.92 L-111.7 -21.92 L-109.9 -22.78 L-108.1 -23.5 L-106.2 -24.07 L-104.3 -24.48 L-102.3 -24.75 L-100.3 -24.85 L-98.35 -24.8 L-96.39 -24.59 L-94.45 -24.22 L-92.54 -23.71 L-90.68 -23.04 L-88.88 -22.23 L-87.15 -21.27 L-85.5 -20.18 L-83.94 -18.97 L-82.49 -17.63 L-81.14 -16.19 L-79.91 -14.64 L-78.82 -12.99 L-77.85 -11.27 L-77.02 -9.476 L-76.34 -7.62 L-75.81 -5.717 L-75.44 -3.777 L-75.21 -1.814 L-75.15 0.1607 Z " />
<path stroke="rgb(0,0,0)" stroke-opacity="1" fill="rgb(255,255,255)" fill-opacity="1" d="M-308.9 -273.6 L-309.6 -275 L-310.3 -276.4 L-311.1 -277.8 L-311.8 -279.3 L-312.5 -280.7 L-313.2 -282.1 L-314 -283.5 L-314.7 -285 L-315.4 -286.4 L-316.2 -287.8 L-316.9 -289.2 L-317.6 -290.7 L-318.3 -292.1 L-319.1 -293.5 L-319.8 -295 L-320.5 -296.4 L-321.3 -297.8 L-322 -299.2 L-322.7 -300.7 L-323.5 -302.1 L-324.2 -303.5 L-324.9 -304.9 L-325.6 -306.4 L-326.4 -307.8 L-327.1 -309.2 L-325.7 -309.9 L-324.3 -310.7 L-322.8 -311.4 L-321.4 -312.1 L-320 -312.9 L-318.5 -313.6 L-317.1 -314.3 L-315.7 -315.1 L-314.3 -315.8 L-312.8 -316.5 L-311.4 -317.2 L-310 -318 L-308.6 -318.7 L-307.1 -319.4 L-305.7 -320.2 L-304.3 -320.9 L-302.9 -321.6 L-301.4 -322.4 L-300 -323.1 L-298.6 -323.8 L-297.2 -324.5 L-295.7 -325.3 L-294.3 -326 L-292.9 -326.7 L-291.4 -327.5 L-290.7 -326 L-290 -324.6 L-289.3 -323.2 L-288.5 -321.8 L-287.8 -320.3 L-287.1 -318.9 L-286.3 -317.5 L-285.6 -316.1 L-284.9 -314.6 L-284.2 -313.2 L-283.4 -311.8 L-282.7 -310.3 L-282 -308.9 L-281.2 -307.5 L-280.5 -306.1 L-279.8 -304.6 L-279 -303.2 L-278.3 -301.8 L-277.6 -300.4 L-276.9 -298.9 L-276.1 -297.5 L-275.4 -296.1 L-274.7 -294.7 L-273.9 -293.2 L-273.2 -291.8 L-274.6 -291.1 L-276.1 -290.3 L-277.5 -289.6 L-278.9 -288.9 L-280.3 -288.2 L-281.8 -287.4 L-283.2 -286.7 L-284.6 -286 L-286 -285.2 L-287.5 -284.5 L-288.9 -283.8 L-290.3 -283 L-291.7 -282.3 L-293.2 -281.6 L-294.6 -280.9 L-296 -280.1 L-297.4 -279.4 L-298.9 -278.7 L-300.3 -277.9 L-301.7 -277.2 L-303.2 -276.5 L-304.6 -275.7 L-306 -275 L-307.4 -274.3 L-308.9 -273.6 Z " />
<path stroke="rgb(0,0,0)" stroke-opacity="0.593" fill="rgb(255,255,255)" fill-opacity="1" d="M124.9 0.1607 L124.8 2.135 L124.5 4.095 L124.1 6.029 L123.6 7.925 L122.8 9.772 L122 11.56 L121 13.27 L119.9 14.89 L118.6 16.43 L117.3 17.86 L115.8 19.17 L114.2 20.37 L112.6 21.44 L110.8 22.37 L109 23.16 L107.1 23.8 L105.2 24.29 L103.3 24.63 L101.3 24.81 L99.35 24.84 L97.37 24.71 L95.42 24.42 L93.49 23.98 L91.61 23.39 L89.78 22.65 L88.01 21.76 L86.32 20.74 L84.71 19.59 L83.2 18.31 L81.8 16.92 L80.52 15.42 L79.35 13.82 L78.32 12.14 L77.42 10.38 L76.67 8.551 L76.06 6.67 L75.61 4.747 L75.31 2.794 L75.17 0.8233 L75.18 -1.153 L75.35 -3.121 L75.67 -5.07 L76.15 -6.987 L76.78 -8.86 L77.56 -10.68 L78.48 -12.43 L79.53 -14.1 L80.72 -15.68 L82.03 -17.16 L83.45 -18.53 L84.97 -19.79 L86.59 -20.92 L88.29 -21.92 L90.07 -22.78 L91.91 -23.5 L93.81 -24.07 L95.74 -24.48 L97.7 -24.75 L99.67 -24.85 L101.6 -24.8 L103.6 -24.59 L105.6 -24.22 L107.5 -23.71 L109.3 -23.04 L111.1 -22.23 L112.9 -21.27 L114.5 -20.18 L116.1 -18.97 L117.5 -17.63 L118.9 -16.19 L120.1 -14.64 L121.2 -12.99 L122.2 -11.27 L123 -9.476 L123.7 -7.62 L124.2 -5.717 L124.6 -3.777 L124.8 -1.814 L124.9 0.1607 Z " />
<path stroke="rgb(0,0,0)" stroke-opacity="1" fill="rgb(255,255,255)" fill-opacity="1" d="M-121.8 -274.8 L-121.9 -276.7 L-122.1 -278.6 L-122.2 -280.5 L-122.4 -282.4 L-122.6 -284.3 L-122.7 -286.2 L-122.9 -288.1 L-123 -290 L-123.2 -291.9 L-123.3 -293.8 L-123.5 -295.7 L-123.7 -297.6 L-123.8 -299.5 L-124 -301.4 L-124.1 -303.3 L-124.3 -305.2 L-124.5 -307.1 L-124.6 -309 L-124.8 -310.9 L-124.9 -312.8 L-125.1 -314.6 L-125.2 -316.5 L-125.4 -318.4 L-125.6 -320.3 L-125.7 -322.2 L-123.8 -322.4 L-121.9 -322.6 L-120 -322.7 L-118.1 -322.9 L-116.2 -323 L-114.3 -323.2 L-112.4 -323.3 L-110.5 -323.5 L-108.6 -323.7 L-106.7 -323.8 L-104.8 -324 L-102.9 -324.1 L-101.1 -324.3 L-99.15 -324.4 L-97.26 -324.6 L-95.36 -324.8 L-93.46 -324.9 L-91.56 -325.1 L-89.67 -325.2 L-87.77 -325.4 L-85.87 -325.6 L-83.97 -325.7 L-82.08 -325.9 L-80.18 -326 L-78.28 -326.2 L-78.13 -324.3 L-77.97 -322.4 L-77.81 -320.5 L-77.65 -318.6 L-77.49 -316.7 L-77.34 -314.8 L-77.18 -312.9 L-77.02 -311 L-76.86 -309.1 L-76.7 -307.2 L-76.55 -305.3 L-76.39 -303.4 L-76.23 -301.5 L-76.07 -299.6 L-75.92 -297.7 L-75.76 -295.8 L-75.6 -293.9 L-75.44 -292 L-75.28 -290.1 L-75.13 -288.2 L-74.97 -286.3 L-74.81 -284.4 L-74.65 -282.5 L-74.49 -280.6 L-74.34 -278.8 L-76.23 -278.6 L-78.13 -278.4 L-80.03 -278.3 L-81.93 -278.1 L-83.82 -278 L-85.72 -277.8 L-87.62 -277.6 L-89.51 -277.5 L-91.41 -277.3 L-93.31 -277.2 L-95.21 -277 L-97.1 -276.9 L-99 -276.7 L-100.9 -276.5 L-102.8 -276.4 L-104.7 -276.2 L-106.6 -276.1 L-108.5 -275.9 L-110.4 -275.8 L-112.3 -275.6 L-114.2 -275.4 L-116.1 -275.3 L-118 -275.1 L-119.9 -275 L-121.8 -274.8 Z " />
<path stroke="rgb(0,0,0)" stroke-opacity="0.593" fill="rgb(255,255,255)" fill-opacity="1" d="M324.9 0.1607 L324.8 2.135 L324.5 4.095 L324.1 6.029 L323.6 7.925 L322.8 9.772 L322 11.56 L321 13.27 L319.9 14.89 L318.6 16.43 L317.3 17.86 L315.8 19.17 L314.2 20.37 L312.6 21.44 L310.8 22.37 L309 23.16 L307.1 23.8 L305.2 24.29 L303.3 24.63 L301.3 24.81 L299.3 24.84 L297.4 24.71 L295.4 24.42 L293.5 23.98 L291.6 23.39 L289.8 22.65 L288 21.76 L286.3 20.74 L284.7 19.59 L283.2 18.31 L281.8 16.92 L280.5 15.42 L279.4 13.82 L278.3 12.14 L277.4 10.38 L276.7 8.551 L276.1 6.67 L275.6 4.747 L275.3 2.794 L275.2 0.8233 L275.2 -1.153 L275.3 -3.121 L275.7 -5.07 L276.2 -6.987 L276.8 -8.86 L277.6 -10.68 L278.5 -12.43 L279.5 -14.1 L280.7 -15.68 L282 -17.16 L283.4 -18.53 L285 -19.79 L286.6 -20.92 L288.3 -21.92 L290.1 -22.78 L291.9 -23.5 L293.8 -24.07 L295.7 -24.48 L297.7 -24.75 L299.7 -24.85 L301.6 -24.8 L303.6 -24.59 L305.6 -24.22 L307.5 -23.71 L309.3 -23.04 L311.1 -22.23 L312.9 -21.27 L314.5 -20.18 L316.1 -18.97 L317.5 -17.63 L318.9 -16.19 L320.1 -14.64 L321.2 -12.99 L322.2 -11.27 L323 -9.476 L323.7 -7.62 L324.2 -5.717 L324.6 -3.777 L324.8 -1.814 L324.9 0.1607 Z " />
<path stroke="rgb(0,0,0)" stroke-opacity="1" fill="rgb(255,255,255)" fill-opacity="1" d="M-592.4 -181.3 L-593.4 -181.7 L-594.5 -182.2 L-595.6 -182.6 L-596.7 -183.1 L-597.8 -183.5 L-598.9 -184 L-599.9 -184.4 L-601 -184.9 L-602.1 -185.3 L-603.2 -185.8 L-604.3 -186.2 L-605.4 -186.7 L-606.5 -187.1 L-607.5 -187.6 L-608.6 -188 L-609.7 -188.4 L-610.8 -188.9 L-611.9 -189.3 L-613 -189.8 L-614 -190.2 L-615.1 -190.7 L-616.2 -191.1 L-617.3 -191.6 L-618.4 -192 L-619.5 -192.5 L-619 -193.6 L-618.6 -194.6 L-618.1 -195.7 L-617.7 -196.8 L-617.2 -197.9 L-616.8 -199 L-616.3 -200.1 L-615.9 -201.1 L-615.4 -202.2 L-615 -203.3 L-614.5 -204.4 L-614.1 -205.5 L-613.6 -206.6 L-613.2 -207.6 L-612.7 -208.7 L-612.3 -209.8 L-611.9 -210.9 L-611.4 -212 L-611 -213.1 L-610.5 -214.1 L-610.1 -215.2 L-609.6 -216.3 L-609.2 -217.4 L-608.7 -218.5 L-608.3 -219.6 L-607.2 -219.1 L-606.1 -218.7 L-605 -218.2 L-603.9 -217.8 L-602.9 -217.3 L-601.8 -216.9 L-600.7 -216.4 L-599.6 -216 L-598.5 -215.5 L-597.4 -215.1 L-596.4 -214.6 L-595.3 -214.2 L-594.2 -213.8 L-593.1 -213.3 L-592 -212.9 L-590.9 -212.4 L-589.9 -212 L-588.8 -211.5 L-587.7 -211.1 L-586.6 -210.6 L-585.5 -210.2 L-584.4 -209.7 L-583.4 -209.3 L-582.3 -208.8 L-581.2 -208.4 L-581.6 -207.3 L-582.1 -206.2 L-582.5 -205.1 L-583 -204.1 L-583.4 -203 L-583.9 -201.9 L-584.3 -200.8 L-584.8 -199.7 L-585.2 -198.6 L-585.7 -197.5 L-586.1 -196.5 L-586.5 -195.4 L-587 -194.3 L-587.4 -193.2 L-587.9 -192.1 L-588.3 -191 L-588.8 -190 L-589.2 -188.9 L-589.7 -187.8 L-590.1 -186.7 L-590.6 -185.6 L-591 -184.5 L-591.5 -183.5 L-591.9 -182.4 L-592.4 -181.3 Z " />
<path stroke="rgb(0,0,0)" stroke-opacity="0.593" fill="rgb(255,255,255)" fill-opacity="1" d="M-175.1 100.2 L-175.2 102.1 L-175.5 104.1 L-175.9 106 L-176.4 107.9 L-177.2 109.8 L-178 111.6 L-179 113.3 L-180.1 114.9 L-181.4 116.4 L-182.7 117.9 L-184.2 119.2 L-185.8 120.4 L-187.4 121.4 L-189.2 122.4 L-191 123.2 L-192.9 123.8 L-194.8 124.3 L-196.7 124.6 L-198.7 124.8 L-200.7 124.8 L-202.6 124.7 L-204.6 124.4 L-206.5 124 L-208.4 123.4 L-210.2 122.6 L-212 121.8 L-213.7 120.7 L-215.3 119.6 L-216.8 118.3 L-218.2 116.9 L-219.5 115.4 L-220.6 113.8 L-221.7 112.1 L-222.6 110.4 L-223.3 108.6 L-223.9 106.7 L-224.4 104.7 L-224.7 102.8 L-224.8 100.8 L-224.8 98.85 L-224.7 96.88 L-224.3 94.93 L-223.8 93.01 L-223.2 91.14 L-222.4 89.32 L-221.5 87.57 L-220.5 85.9 L-219.3 84.32 L-218 82.84 L-216.6 81.47 L-215 80.21 L-213.4 79.08 L-211.7 78.08 L-209.9 77.22 L-208.1 76.5 L-206.2 75.93 L-204.3 75.52 L-202.3 75.25 L-200.3 75.15 L-198.4 75.2 L-196.4 75.41 L-194.4 75.78 L-192.5 76.29 L-190.7 76.96 L-188.9 77.77 L-187.1 78.73 L-185.5 79.82 L-183.9 81.03 L-182.5 82.37 L-181.1 83.81 L-179.9 85.36 L-178.8 87.01 L-177.8 88.73 L-177 90.52 L-176.3 92.38 L-175.8 94.28 L-175.4 96.22 L-175.2 98.19 L-175.1 100.2 Z " />
<path stroke="rgb(0,0,0)" stroke-opacity="1" fill="rgb(255,255,255)" fill-opacity="1" d="M-408.9 -173.6 L-409.6 -175 L-410.3 -176.4 L-411.1 -177.8 L-411.8 -179.3 L-412.5 -180.7 L-413.2 -182.1 L-414 -183.5 L-414.7 -185 L-415.4 -186.4 L-416.2 -187.8 L-416.9 -189.2 L-417.6 -190.7 L-418.3 -192.1 L-419.1 -193.5 L-419.8 -195 L-420.5 -196.4 L-421.3 -197.8 L-422 -199.2 L-422.7 -200.7 L-423.5 -202.1 L-424.2 -203.5 L-424.9 -204.9 L-425.6 -206.4 L-426.4 -207.8 L-427.1 -209.2 L-425.7 -209.9 L-424.3 -210.7 L-422.8 -211.4 L-421.4 -212.1 L-420 -212.9 L-418.5 -213.6 L-417.1 -214.3 L-415.7 -215.1 L-414.3 -215.8 L-412.8 -216.5 L-411.4 -217.2 L-410 -218 L-408.6 -218.7 L-407.1 -219.4 L-405.7 -220.2 L-404.3 -220.9 L-402.9 -221.6 L-401.4 -222.4 L-400 -223.1 L-398.6 -223.8 L-397.2 -224.5 L-395.7 -225.3 L-394.3 -226 L-392.9 -226.7 L-391.4 -227.5 L-390.7 -226 L-390 -224.6 L-389.3 -223.2 L-388.5 -221.8 L-387.8 -220.3 L-387.1 -218.9 L-386.3 -217.5 L-385.6 -216.1 L-384.9 -214.6 L-384.2 -213.2 L-383.4 -211.8 L-382.7 -210.3 L-382 -208.9 L-381.2 -207.5 L-380.5 -206.1 L-379.8 -204.6 L-379 -203.2 L-378.3 -201.8 L-377.6 -200.4 L-376.9 -198.9 L-376.1 -197.5 L-375.4 -196.1 L-374.7 -194.7 L-373.9 -193.2 L-373.2 -191.8 L-374.6 -191.1 L-376.1 -190.3 L-377.5 -189.6 L-378.9 -188.9 L-380.3 -188.2 L-381.8 -187.4 L-383.2 -186.7 L-384.6 -186 L-386 -185.2 L-387.5 -184.5 L-388.9 -183.8 L-390.3 -183 L-391.7 -182.3 L-393.2 -181.6 L-394.6 -180.9 L-396 -180.1 L-397.4 -179.4 L-398.9 -178.7 L-400.3 -177.9 L-401.7 -177.2 L-403.2 -176.5 L-404.6 -175.7 L-406 -175 L-407.4 -174.3 L-408.9 -173.6 Z " />
<path stroke="rgb(0,0,0)" stroke-opacity="0.593" fill="rgb(255,255,255)" fill-opacity="1" d="M24.85 100.2 L24.76 102.1 L24.51 104.1 L24.11 106 L23.55 107.9 L22.85 109.8 L22 111.6 L21.01 113.3 L19.89 114.9 L18.65 116.4 L17.28 117.9 L15.81 119.2 L14.23 120.4 L12.57 121.4 L10.83 122.4 L9.017 123.2 L7.148 123.8 L5.235 124.3 L3.288 124.6 L1.321 124.8 L-0.6549 124.8 L-2.627 124.7 L-4.581 124.4 L-6.507 124 L-8.392 123.4 L-10.22 122.6 L-11.99 121.8 L-13.68 120.7 L-15.29 119.6 L-16.8 118.3 L-18.2 116.9 L-19.48 115.4 L-20.65 113.8 L-21.68 112.1 L-22.58 110.4 L-23.33 108.6 L-23.94 106.7 L-24.39 104.7 L-24.69 102.8 L-24.83 100.8 L-24.82 98.85 L-24.65 96.88 L-24.33 94.93 L-23.85 93.01 L-23.22 91.14 L-22.44 89.32 L-21.52 87.57 L-20.47 85.9 L-19.28 84.32 L-17.97 82.84 L-16.55 81.47 L-15.03 80.21 L-13.41 79.08 L-11.71 78.08 L-9.927 77.22 L-8.085 76.5 L-6.193 75.93 L-4.261 75.52 L-2.303 75.25 L-0.3295 75.15 L1.646 75.2 L3.611 75.41 L5.553 75.78 L7.46 76.29 L9.319 76.96 L11.12 77.77 L12.85 78.73 L14.5 79.82 L16.06 81.03 L17.51 82.37 L18.86 83.81 L20.09 85.36 L21.18 87.01 L22.15 88.73 L22.98 90.52 L23.66 92.38 L24.19 94.28 L24.56 96.22 L24.79 98.19 L24.85 100.2 Z " />
<path stroke="rgb(0,0,0)" stroke-opacity="1" fill="rgb(255,255,255)" fill-opacity="1" d="M-221.8 -174.8 L-221.9 -176.7 L-222.1 -178.6 L-222.2 -180.5 L-222.4 -182.4 L-222.6 -184.3 L-222.7 -186.2 L-222.9 -188.1 L-223 -190 L-223.2 -191.9 L-223.3 -193.8 L-223.5 -195.7 L-223.7 -197.6 L-223.8 -199.5 L-224 -201.4 L-224.1 -203.3 L-224.3 -205.2 L-224.5 -207.1 L-224.6 -209 L-224.8 -210.9 L-224.9 -212.8 L-225.1 -214.6 L-225.2 -216.5 L-225.4 -218.4 L-225.6 -220.3 L-225.7 -222.2 L-223.8 -222.4 L-221.9 -222.6 L-220 -222.7 L-218.1 -222.9 L-216.2 -223 L-214.3 -223.2 L-212.4 -223.3 L-210.5 -223.5 L-208.6 -223.7 L-206.7 -223.8 L-204.8 -224 L-202.9 -224.1 L-201.1 -224.3 L-199.2 -224.4 L-197.3 -224.6 L-195.4 -224.8 L-193.5 -224.9 L-191.6 -225.1 L-189.7 -225.2 L-187.8 -225.4 L-185.9 -225.6 L-184 -225.7 L-182.1 -225.9 L-180.2 -226 L-178.3 -226.2 L-178.1 -224.3 L-178 -222.4 L-177.8 -220.5 L-177.7 -218.6 L-177.5 -216.7 L-177.3 -214.8 L-177.2 -212.9 L-177 -211 L-176.9 -209.1 L-176.7 -207.2 L-176.5 -205.3 L-176.4 -203.4 L-176.2 -201.5 L-176.1 -199.6 L-175.9 -197.7 L-175.8 -195.8 L-175.6 -193.9 L-175.4 -192 L-175.3 -190.1 L-175.1 -188.2 L-175 -186.3 L-174.8 -184.4 L-174.7 -182.5 L-174.5 -180.6 L-174.3 -178.8 L-176.2 -178.6 L-178.1 -178.4 L-180 -178.3 L-181.9 -178.1 L-183.8 -178 L-185.7 -177.8 L-187.6 -177.6 L-189.5 -177.5 L-191.4 -177.3 L-193.3 -177.2 L-195.2 -177 L-197.1 -176.9 L-199 -176.7 L-200.9 -176.5 L-202.8 -176.4 L-204.7 -176.2 L-206.6 -176.1 L-208.5 -175.9 L-210.4 -175.8 L-212.3 -175.6 L-214.2 -175.4 L-216.1 -175.3 L-218 -175.1 L-219.9 -175 L-221.8 -174.8 Z " />
<path stroke="rgb(0,0,0)" stroke-opacity="0.593" fill="rgb(255,255,255)" fill-opacity="1" d="M224.9 100.2 L224.8 102.1 L224.5 104.1 L224.1 106 L223.6 107.9 L222.8 109.8 L222 111.6 L221 113.3 L219.9 114.9 L218.6 116.4 L217.3 117.9 L215.8 119.2 L214.2 120.4 L212.6 121.4 L210.8 122.4 L209 123.2 L207.1 123.8 L205.2 124.3 L203.3 124.6 L201.3 124.8 L199.3 124.8 L197.4 124.7 L195.4 124.4 L193.5 124 L191.6 123.4 L189.8 122.6 L188 121.8 L186.3 120.7 L184.7 119.6 L183.2 118.3 L181.8 116.9 L180.5 115.4 L179.4 113.8 L178.3 112.1 L177.4 110.4 L176.7 108.6 L176.1 106.7 L175.6 104.7 L175.3 102.8 L175.2 100.8 L175.2 98.85 L175.3 96.88 L175.7 94.93 L176.2 93.01 L176.8 91.14 L177.6 89.32 L178.5 87.57 L179.5 85.9 L180.7 84.32 L182 82.84 L183.4 81.47 L185 80.21 L186.6 79.08 L188.3 78.08 L190.1 77.22 L191.9 76.5 L193.8 75.93 L195.7 75.52 L197.7 75.25 L199.7 75.15 L201.6 75.2 L203.6 75.41 L205.6 75.78 L207.5 76.29 L209.3 76.96 L211.1 77.77 L212.9 78.73 L214.5 79.82 L216.1 81.03 L217.5 82.37 L218.9 83.81 L220.1 85.36 L221.2 87.01 L222.2 88.73 L223 90.52 L223.7 92.38 L224.2 94.28 L224.6 96.22 L224.8 98.19 L224.9 100.2 Z " />
<path stroke="rgb(0,0,0)" stroke-opacity="1" fill="rgb(255,255,255)" fill-opacity="1" d="M-24.86 -175.9 L-24.85 -177.8 L-24.84 -179.8 L-24.83 -181.8 L-24.82 -183.8 L-24.81 -185.8 L-24.8 -187.7 L-24.79 -189.7 L-24.78 -191.7 L-24.77 -193.7 L-24.76 -195.7 L-24.75 -197.6 L-24.74 -199.6 L-24.73 -201.6 L-24.72 -203.6 L-24.71 -205.6 L-24.7 -207.5 L-24.69 -209.5 L-24.68 -211.5 L-24.67 -213.5 L-24.66 -215.5 L-24.65 -217.4 L-24.64 -219.4 L-24.63 -221.4 L-24.62 -223.4 L-24.61 -225.4 L-22.63 -225.3 L-20.65 -225.3 L-18.67 -225.3 L-16.69 -225.3 L-14.72 -225.3 L-12.74 -225.3 L-10.76 -225.3 L-8.777 -225.3 L-6.798 -225.3 L-4.818 -225.3 L-2.839 -225.2 L-0.8596 -225.2 L1.12 -225.2 L3.099 -225.2 L5.079 -225.2 L7.058 -225.2 L9.037 -225.2 L11.02 -225.2 L13 -225.2 L14.98 -225.2 L16.95 -225.1 L18.93 -225.1 L20.91 -225.1 L22.89 -225.1 L24.87 -225.1 L24.86 -223.1 L24.85 -221.1 L24.84 -219.2 L24.83 -217.2 L24.82 -215.2 L24.81 -213.2 L24.8 -211.2 L24.79 -209.3 L24.78 -207.3 L24.77 -205.3 L24.76 -203.3 L24.75 -201.3 L24.74 -199.4 L24.73 -197.4 L24.72 -195.4 L24.71 -193.4 L24.7 -191.5 L24.69 -189.5 L24.68 -187.5 L24.67 -185.5 L24.66 -183.5 L24.65 -181.6 L24.64 -179.6 L24.63 -177.6 L24.62 -175.6 L22.64 -175.6 L20.66 -175.6 L18.68 -175.6 L16.71 -175.7 L14.73 -175.7 L12.75 -175.7 L10.77 -175.7 L8.788 -175.7 L6.808 -175.7 L4.829 -175.7 L2.849 -175.7 L0.8699 -175.7 L-1.109 -175.7 L-3.089 -175.8 L-5.068 -175.8 L-7.048 -175.8 L-9.027 -175.8 L-11.01 -175.8 L-12.99 -175.8 L-14.97 -175.8 L-16.94 -175.8 L-18.92 -175.8 L-20.9 -175.8 L-22.88 -175.9 L-24.86 -175.9 Z " />
<path stroke="rgb(0,0,0)" stroke-opacity="0.593" fill="rgb(255,255,255)" fill-opacity="1" d="M-275.1 200.2 L-275.2 202.1 L-275.5 204.1 L-275.9 206 L-276.4 207.9 L-277.2 209.8 L-278 211.6 L-279 213.3 L-280.1 214.9 L-281.4 216.4 L-282.7 217.9 L-284.2 219.2 L-285.8 220.4 L-287.4 221.4 L-289.2 222.4 L-291 223.2 L-292.9 223.8 L-294.8 224.3 L-296.7 224.6 L-298.7 224.8 L-300.7 224.8 L-302.6 224.7 L-304.6 224.4 L-306.5 224 L-308.4 223.4 L-310.2 222.6 L-312 221.8 L-313.7 220.7 L-315.3 219.6 L-316.8 218.3 L-318.2 216.9 L-319.5 215.4 L-320.6 213.8 L-321.7 212.1 L-322.6 210.4 L-323.3 208.6 L-323.9 206.7 L-324.4 204.7 L-324.7 202.8 L-324.8 200.8 L-324.8 198.8 L-324.7 196.9 L-324.3 194.9 L-323.8 193 L-323.2 191.1 L-322.4 189.3 L-321.5 187.6 L-320.5 185.9 L-319.3 184.3 L-318 182.8 L-316.6 181.5 L-315 180.2 L-313.4 179.1 L-311.7 178.1 L-309.9 177.2 L-308.1 176.5 L-306.2 175.9 L-304.3 175.5 L-302.3 175.3 L-300.3 175.1 L-298.4 175.2 L-296.4 175.4 L-294.4 175.8 L-292.5 176.3 L-290.7 177 L-288.9 177.8 L-287.1 178.7 L-285.5 179.8 L-283.9 181 L-282.5 182.4 L-281.1 183.8 L-279.9 185.4 L-278.8 187 L-277.8 188.7 L-277 190.5 L-276.3 192.4 L-275.8 194.3 L-275.4 196.2 L-275.2 198.2 L-275.1 200.2 Z " />
<path stroke="rgb(0,0,0)" stroke-opacity="1" fill="rgb(255,255,255)" fill-opacity="1" d="M-508.9 -73.55 L-509.6 -74.98 L-510.3 -76.41 L-511.1 -77.83 L-511.8 -79.26 L-512.5 -80.69 L-513.2 -82.11 L-514 -83.54 L-514.7 -84.97 L-515.4 -86.39 L-516.2 -87.82 L-516.9 -89.24 L-517.6 -90.67 L-518.3 -92.1 L-519.1 -93.52 L-519.8 -94.95 L-520.5 -96.38 L-521.3 -97.8 L-522 -99.23 L-522.7 -100.7 L-523.5 -102.1 L-524.2 -103.5 L-524.9 -104.9 L-525.6 -106.4 L-526.4 -107.8 L-527.1 -109.2 L-525.7 -109.9 L-524.3 -110.7 L-522.8 -111.4 L-521.4 -112.1 L-520 -112.9 L-518.5 -113.6 L-517.1 -114.3 L-515.7 -115.1 L-514.3 -115.8 L-512.8 -116.5 L-511.4 -117.2 L-510 -118 L-508.6 -118.7 L-507.1 -119.4 L-505.7 -120.2 L-504.3 -120.9 L-502.9 -121.6 L-501.4 -122.4 L-500 -123.1 L-498.6 -123.8 L-497.2 -124.5 L-495.7 -125.3 L-494.3 -126 L-492.9 -126.7 L-491.4 -127.5 L-490.7 -126 L-490 -124.6 L-489.3 -123.2 L-488.5 -121.8 L-487.8 -120.3 L-487.1 -118.9 L-486.3 -117.5 L-485.6 -116.1 L-484.9 -114.6 L-484.2 -113.2 L-483.4 -111.8 L-482.7 -110.3 L-482 -108.9 L-481.2 -107.5 L-480.5 -106.1 L-479.8 -104.6 L-479 -103.2 L-478.3 -101.8 L-477.6 -100.4 L-476.9 -98.93 L-476.1 -97.51 L-475.4 -96.08 L-474.7 -94.65 L-473.9 -93.23 L-473.2 -91.8 L-474.6 -91.07 L-476.1 -90.34 L-477.5 -89.61 L-478.9 -88.88 L-480.3 -88.15 L-481.8 -87.42 L-483.2 -86.69 L-484.6 -85.96 L-486 -85.23 L-487.5 -84.5 L-488.9 -83.77 L-490.3 -83.04 L-491.7 -82.31 L-493.2 -81.58 L-494.6 -80.85 L-496 -80.12 L-497.4 -79.39 L-498.9 -78.66 L-500.3 -77.93 L-501.7 -77.2 L-503.2 -76.47 L-504.6 -75.74 L-506 -75.01 L-507.4 -74.28 L-508.9 -73.55 Z " />
<path stroke="rgb(0,0,0)" stroke-opacity="0.593" fill="rgb(255,255,255)" fill-opacity="1" d="M-75.15 200.2 L-75.24 202.1 L-75.49 204.1 L-75.89 206 L-76.45 207.9 L-77.15 209.8 L-78 211.6 L-78.99 213.3 L-80.11 214.9 L-81.35 216.4 L-82.72 217.9 L-84.19 219.2 L-85.77 220.4 L-87.43 221.4 L-89.17 222.4 L-90.98 223.2 L-92.85 223.8 L-94.77 224.3 L-96.71 224.6 L-98.68 224.8 L-100.7 224.8 L-102.6 224.7 L-104.6 224.4 L-106.5 224 L-108.4 223.4 L-110.2 222.6 L-112 221.8 L-113.7 220.7 L-115.3 219.6 L-116.8 218.3 L-118.2 216.9 L-119.5 215.4 L-120.6 213.8 L-121.7 212.1 L-122.6 210.4 L-123.3 208.6 L-123.9 206.7 L-124.4 204.7 L-124.7 202.8 L-124.8 200.8 L-124.8 198.8 L-124.7 196.9 L-124.3 194.9 L-123.8 193 L-123.2 191.1 L-122.4 189.3 L-121.5 187.6 L-120.5 185.9 L-119.3 184.3 L-118 182.8 L-116.6 181.5 L-115 180.2 L-113.4 179.1 L-111.7 178.1 L-109.9 177.2 L-108.1 176.5 L-106.2 175.9 L-104.3 175.5 L-102.3 175.3 L-100.3 175.1 L-98.35 175.2 L-96.39 175.4 L-94.45 175.8 L-92.54 176.3 L-90.68 177 L-88.88 177.8 L-87.15 178.7 L-85.5 179.8 L-83.94 181 L-82.49 182.4 L-81.14 183.8 L-79.91 185.4 L-78.82 187 L-77.85 188.7 L-77.02 190.5 L-76.34 192.4 L-75.81 194.3 L-75.44 196.2 L-75.21 198.2 L-75.15 200.2 Z " />
<path stroke="rgb(0,0,0)" stroke-opacity="1" fill="rgb(255,255,255)" fill-opacity="1" d="M-321.8 -74.81 L-321.9 -76.7 L-322.1 -78.6 L-322.2 -80.5 L-322.4 -82.4 L-322.6 -84.29 L-322.7 -86.19 L-322.9 -88.09 L-323 -89.98 L-323.2 -91.88 L-323.3 -93.78 L-323.5 -95.68 L-323.7 -97.57 L-323.8 -99.47 L-324 -101.4 L-324.1 -103.3 L-324.3 -105.2 L-324.5 -107.1 L-324.6 -109 L-324.8 -110.9 L-324.9 -112.8 L-325.1 -114.6 L-325.2 -116.5 L-325.4 -118.4 L-325.6 -120.3 L-325.7 -122.2 L-323.8 -122.4 L-321.9 -122.6 L-320 -122.7 L-318.1 -122.9 L-316.2 -123 L-314.3 -123.2 L-312.4 -123.3 L-310.5 -123.5 L-308.6 -123.7 L-306.7 -123.8 L-304.8 -124 L-302.9 -124.1 L-301.1 -124.3 L-299.2 -124.4 L-297.3 -124.6 L-295.4 -124.8 L-293.5 -124.9 L-291.6 -125.1 L-289.7 -125.2 L-287.8 -125.4 L-285.9 -125.6 L-284 -125.7 L-282.1 -125.9 L-280.2 -126 L-278.3 -126.2 L-278.1 -124.3 L-278 -122.4 L-277.8 -120.5 L-277.7 -118.6 L-277.5 -116.7 L-277.3 -114.8 L-277.2 -112.9 L-277 -111 L-276.9 -109.1 L-276.7 -107.2 L-276.5 -105.3 L-276.4 -103.4 L-276.2 -101.5 L-276.1 -99.62 L-275.9 -97.73 L-275.8 -95.83 L-275.6 -93.93 L-275.4 -92.03 L-275.3 -90.14 L-275.1 -88.24 L-275 -86.34 L-274.8 -84.44 L-274.7 -82.55 L-274.5 -80.65 L-274.3 -78.75 L-276.2 -78.59 L-278.1 -78.44 L-280 -78.28 L-281.9 -78.12 L-283.8 -77.96 L-285.7 -77.81 L-287.6 -77.65 L-289.5 -77.49 L-291.4 -77.33 L-293.3 -77.17 L-295.2 -77.02 L-297.1 -76.86 L-299 -76.7 L-300.9 -76.54 L-302.8 -76.38 L-304.7 -76.23 L-306.6 -76.07 L-308.5 -75.91 L-310.4 -75.75 L-312.3 -75.6 L-314.2 -75.44 L-316.1 -75.28 L-318 -75.12 L-319.9 -74.96 L-321.8 -74.81 Z " />
<path stroke="rgb(0,0,0)" stroke-opacity="0.593" fill="rgb(255,255,255)" fill-opacity="1" d="M124.9 200.2 L124.8 202.1 L124.5 204.1 L124.1 206 L123.6 207.9 L122.8 209.8 L122 211.6 L121 213.3 L119.9 214.9 L118.6 216.4 L117.3 217.9 L115.8 219.2 L114.2 220.4 L112.6 221.4 L110.8 222.4 L109 223.2 L107.1 223.8 L105.2 224.3 L103.3 224.6 L101.3 224.8 L99.35 224.8 L97.37 224.7 L95.42 224.4 L93.49 224 L91.61 223.4 L89.78 222.6 L88.01 221.8 L86.32 220.7 L84.71 219.6 L83.2 218.3 L81.8 216.9 L80.52 215.4 L79.35 213.8 L78.32 212.1 L77.42 210.4 L76.67 208.6 L76.06 206.7 L75.61 204.7 L75.31 202.8 L75.17 200.8 L75.18 198.8 L75.35 196.9 L75.67 194.9 L76.15 193 L76.78 191.1 L77.56 189.3 L78.48 187.6 L79.53 185.9 L80.72 184.3 L82.03 182.8 L83.45 181.5 L84.97 180.2 L86.59 179.1 L88.29 178.1 L90.07 177.2 L91.91 176.5 L93.81 175.9 L95.74 175.5 L97.7 175.3 L99.67 175.1 L101.6 175.2 L103.6 175.4 L105.6 175.8 L107.5 176.3 L109.3 177 L111.1 177.8 L112.9 178.7 L114.5 179.8 L116.1 181 L117.5 182.4 L118.9 183.8 L120.1 185.4 L121.2 187 L122.2 188.7 L123 190.5 L123.7 192.4 L124.2 194.3 L124.6 196.2 L124.8 198.2 L124.9 200.2 Z " />
<path stroke="rgb(0,0,0)" stroke-opacity="1" fill="rgb(255,255,255)" fill-opacity="1" d="M-124.9 -75.87 L-124.9 -77.85 L-124.8 -79.83 L-124.8 -81.81 L-124.8 -83.78 L-124.8 -85.76 L-124.8 -87.74 L-124.8 -89.72 L-124.8 -91.7 L-124.8 -93.68 L-124.8 -95.66 L-124.8 -97.64 L-124.7 -99.62 L-124.7 -101.6 L-124.7 -103.6 L-124.7 -105.6 L-124.7 -107.5 L-124.7 -109.5 L-124.7 -111.5 L-124.7 -113.5 L-124.7 -115.5 L-124.7 -117.4 L-124.6 -119.4 L-124.6 -121.4 L-124.6 -123.4 L-124.6 -125.4 L-122.6 -125.3 L-120.7 -125.3 L-118.7 -125.3 L-116.7 -125.3 L-114.7 -125.3 L-112.7 -125.3 L-110.8 -125.3 L-108.8 -125.3 L-106.8 -125.3 L-104.8 -125.3 L-102.8 -125.2 L-100.9 -125.2 L-98.88 -125.2 L-96.9 -125.2 L-94.92 -125.2 L-92.94 -125.2 L-90.96 -125.2 L-88.98 -125.2 L-87 -125.2 L-85.02 -125.2 L-83.05 -125.1 L-81.07 -125.1 L-79.09 -125.1 L-77.11 -125.1 L-75.13 -125.1 L-75.14 -123.1 L-75.15 -121.1 L-75.16 -119.2 L-75.17 -117.2 L-75.18 -115.2 L-75.19 -113.2 L-75.2 -111.2 L-75.21 -109.3 L-75.22 -107.3 L-75.23 -105.3 L-75.24 -103.3 L-75.25 -101.3 L-75.26 -99.37 L-75.27 -97.39 L-75.28 -95.41 L-75.29 -93.43 L-75.3 -91.45 L-75.31 -89.47 L-75.32 -87.49 L-75.33 -85.51 L-75.34 -83.53 L-75.35 -81.56 L-75.36 -79.58 L-75.37 -77.6 L-75.38 -75.62 L-77.36 -75.63 L-79.34 -75.64 L-81.32 -75.65 L-83.29 -75.66 L-85.27 -75.67 L-87.25 -75.68 L-89.23 -75.69 L-91.21 -75.7 L-93.19 -75.71 L-95.17 -75.72 L-97.15 -75.73 L-99.13 -75.74 L-101.1 -75.75 L-103.1 -75.76 L-105.1 -75.77 L-107 -75.78 L-109 -75.79 L-111 -75.8 L-113 -75.81 L-115 -75.82 L-116.9 -75.83 L-118.9 -75.84 L-120.9 -75.85 L-122.9 -75.86 L-124.9 -75.87 Z " />
<path stroke="rgb(0,0,0)" stroke-opacity="0.593" fill="rgb(255,255,255)" fill-opacity="1" d="M324.9 200.2 L324.8 202.1 L324.5 204.1 L324.1 206 L323.6 207.9 L322.8 209.8 L322 211.6 L321 213.3 L319.9 214.9 L318.6 216.4 L317.3 217.9 L315.8 219.2 L314.2 220.4 L312.6 221.4 L310.8 222.4 L309 223.2 L307.1 223.8 L305.2 224.3 L303.3 224.6 L301.3 224.8 L299.3 224.8 L297.4 224.7 L295.4 224.4 L293.5 224 L291.6 223.4 L289.8 222.6 L288 221.8 L286.3 220.7 L284.7 219.6 L283.2 218.3 L281.8 216.9 L280.5 215.4 L279.4 213.8 L278.3 212.1 L277.4 210.4 L276.7 208.6 L276.1 206.7 L275.6 204.7 L275.3 202.8 L275.2 200.8 L275.2 198.8 L275.3 196.9 L275.7 194.9 L276.2 193 L276.8 191.1 L277.6 189.3 L278.5 187.6 L279.5 185.9 L280.7 184.3 L282 182.8 L283.4 181.5 L285 180.2 L286.6 179.1 L288.3 178.1 L290.1 177.2 L291.9 176.5 L293.8 175.9 L295.7 175.5 L297.7 175.3 L299.7 175.1 L301.6 175.2 L303.6 175.4 L305.6 175.8 L307.5 176.3 L309.3 177 L311.1 177.8 L312.9 178.7 L314.5 179.8 L316.1 181 L317.5 182.4 L318.9 183.8 L320.1 185.4 L321.2 187 L322.2 188.7 L323 190.5 L323.7 192.4 L324.2 194.3 L324.6 196.2 L324.8 198.2 L324.9 200.2 Z " />
<path stroke="rgb(0,0,0)" stroke-opacity="1" fill="rgb(255,255,255)" fill-opacity="1" d="M-608.9 26.45 L-609.6 25.02 L-610.3 23.59 L-611.1 22.17 L-611.8 20.74 L-612.5 19.31 L-613.2 17.89 L-614 16.46 L-614.7 15.03 L-615.4 13.61 L-616.2 12.18 L-616.9 10.76 L-617.6 9.329 L-618.3 7.903 L-619.1 6.476 L-619.8 5.05 L-620.5 3.623 L-621.3 2.197 L-622 0.7708 L-622.7 -0.6556 L-623.5 -2.082 L-624.2 -3.508 L-624.9 -4.935 L-625.6 -6.361 L-626.4 -7.787 L-627.1 -9.214 L-625.7 -9.944 L-624.3 -10.67 L-622.8 -11.4 L-621.4 -12.13 L-620 -12.86 L-618.5 -13.59 L-617.1 -14.32 L-615.7 -15.05 L-614.3 -15.78 L-612.8 -16.51 L-611.4 -17.24 L-610 -17.97 L-608.6 -18.7 L-607.1 -19.43 L-605.7 -20.16 L-604.3 -20.89 L-602.9 -21.62 L-601.4 -22.35 L-600 -23.08 L-598.6 -23.81 L-597.2 -24.54 L-595.7 -25.27 L-594.3 -26 L-592.9 -26.73 L-591.4 -27.46 L-590.7 -26.03 L-590 -24.61 L-589.3 -23.18 L-588.5 -21.76 L-587.8 -20.33 L-587.1 -18.9 L-586.3 -17.48 L-585.6 -16.05 L-584.9 -14.62 L-584.2 -13.2 L-583.4 -11.77 L-582.7 -10.34 L-582 -8.918 L-581.2 -7.492 L-580.5 -6.066 L-579.8 -4.639 L-579 -3.213 L-578.3 -1.787 L-577.6 -0.3602 L-576.9 1.066 L-576.1 2.492 L-575.4 3.919 L-574.7 5.345 L-573.9 6.772 L-573.2 8.198 L-574.6 8.928 L-576.1 9.658 L-577.5 10.39 L-578.9 11.12 L-580.3 11.85 L-581.8 12.58 L-583.2 13.31 L-584.6 14.04 L-586 14.77 L-587.5 15.5 L-588.9 16.23 L-590.3 16.96 L-591.7 17.69 L-593.2 18.42 L-594.6 19.15 L-596 19.88 L-597.4 20.61 L-598.9 21.34 L-600.3 22.07 L-601.7 22.8 L-603.2 23.53 L-604.6 24.26 L-606 24.99 L-607.4 25.72 L-608.9 26.45 Z " />
<path stroke="rgb(0,0,0)" stroke-opacity="0.593" fill="rgb(255,255,255)" fill-opacity="1" d="M-175.1 300.2 L-175.2 302.1 L-175.5 304.1 L-175.9 306 L-176.4 307.9 L-177.2 309.8 L-178 311.6 L-179 313.3 L-180.1 314.9 L-181.4 316.4 L-182.7 317.9 L-184.2 319.2 L-185.8 320.4 L-187.4 321.4 L-189.2 322.4 L-191 323.2 L-192.9 323.8 L-194.8 324.3 L-196.7 324.6 L-198.7 324.8 L-200.7 324.8 L-202.6 324.7 L-204.6 324.4 L-206.5 324 L-208.4 323.4 L-210.2 322.6 L-212 321.8 L-213.7 320.7 L-215.3 319.6 L-216.8 318.3 L-218.2 316.9 L-219.5 315.4 L-220.6 313.8 L-221.7 312.1 L-222.6 310.4 L-223.3 308.6 L-223.9 306.7 L-224.4 304.7 L-224.7 302.8 L-224.8 300.8 L-224.8 298.8 L-224.7 296.9 L-224.3 294.9 L-223.8 293 L-223.2 291.1 L-222.4 289.3 L-221.5 287.6 L-220.5 285.9 L-219.3 284.3 L-218 282.8 L-216.6 281.5 L-215 280.2 L-213.4 279.1 L-211.7 278.1 L-209.9 277.2 L-208.1 276.5 L-206.2 275.9 L-204.3 275.5 L-202.3 275.3 L-200.3 275.1 L-198.4 275.2 L-196.4 275.4 L-194.4 275.8 L-192.5 276.3 L-190.7 277 L-188.9 277.8 L-187.1 278.7 L-185.5 279.8 L-183.9 281 L-182.5 282.4 L-181.1 283.8 L-179.9 285.4 L-178.8 287 L-177.8 288.7 L-177 290.5 L-176.3 292.4 L-175.8 294.3 L-175.4 296.2 L-175.2 298.2 L-175.1 300.2 Z " />
<path stroke="rgb(0,0,0)" stroke-opacity="1" fill="rgb(255,255,255)" fill-opacity="1" d="M-421.8 25.19 L-421.9 23.3 L-422.1 21.4 L-422.2 19.5 L-422.4 17.6 L-422.6 15.71 L-422.7 13.81 L-422.9 11.91 L-423 10.02 L-423.2 8.118 L-423.3 6.221 L-423.5 4.324 L-423.7 2.426 L-423.8 0.5291 L-424 -1.368 L-424.1 -3.265 L-424.3 -5.163 L-424.5 -7.06 L-424.6 -8.957 L-424.8 -10.85 L-424.9 -12.75 L-425.1 -14.65 L-425.2 -16.55 L-425.4 -18.44 L-425.6 -20.34 L-425.7 -22.24 L-423.8 -22.4 L-421.9 -22.55 L-420 -22.71 L-418.1 -22.87 L-416.2 -23.03 L-414.3 -23.19 L-412.4 -23.34 L-410.5 -23.5 L-408.6 -23.66 L-406.7 -23.82 L-404.8 -23.97 L-402.9 -24.13 L-401.1 -24.29 L-399.2 -24.45 L-397.3 -24.61 L-395.4 -24.76 L-393.5 -24.92 L-391.6 -25.08 L-389.7 -25.24 L-387.8 -25.4 L-385.9 -25.55 L-384 -25.71 L-382.1 -25.87 L-380.2 -26.03 L-378.3 -26.18 L-378.1 -24.29 L-378 -22.39 L-377.8 -20.49 L-377.7 -18.6 L-377.5 -16.7 L-377.3 -14.8 L-377.2 -12.9 L-377 -11.01 L-376.9 -9.109 L-376.7 -7.212 L-376.5 -5.314 L-376.4 -3.417 L-376.2 -1.52 L-376.1 0.3774 L-375.9 2.275 L-375.8 4.172 L-375.6 6.069 L-375.4 7.966 L-375.3 9.864 L-375.1 11.76 L-375 13.66 L-374.8 15.56 L-374.7 17.45 L-374.5 19.35 L-374.3 21.25 L-376.2 21.41 L-378.1 21.56 L-380 21.72 L-381.9 21.88 L-383.8 22.04 L-385.7 22.19 L-387.6 22.35 L-389.5 22.51 L-391.4 22.67 L-393.3 22.83 L-395.2 22.98 L-397.1 23.14 L-399 23.3 L-400.9 23.46 L-402.8 23.62 L-404.7 23.77 L-406.6 23.93 L-408.5 24.09 L-410.4 24.25 L-412.3 24.4 L-414.2 24.56 L-416.1 24.72 L-418 24.88 L-419.9 25.04 L-421.8 25.19 Z " />
<path stroke="rgb(0,0,0)" stroke-opacity="0.593" fill="rgb(255,255,255)" fill-opacity="1" d="M24.85 300.2 L24.76 302.1 L24.51 304.1 L24.11 306 L23.55 307.9 L22.85 309.8 L22 311.6 L21.01 313.3 L19.89 314.9 L18.65 316.4 L17.28 317.9 L15.81 319.2 L14.23 320.4 L12.57 321.4 L10.83 322.4 L9.017 323.2 L7.148 323.8 L5.235 324.3 L3.288 324.6 L1.321 324.8 L-0.6549 324.8 L-2.627 324.7 L-4.581 324.4 L-6.507 324 L-8.392 323.4 L-10.22 322.6 L-11.99 321.8 L-13.68 320.7 L-15.29 319.6 L-16.8 318.3 L-18.2 316.9 L-19.48 315.4 L-20.65 313.8 L-21.68 312.1 L-22.58 310.4 L-23.33 308.6 L-23.94 306.7 L-24.39 304.7 L-24.69 302.8 L-24.83 300.8 L-24.82 298.8 L-24.65 296.9 L-24.33 294.9 L-23.85 293 L-23.22 291.1 L-22.44 289.3 L-21.52 287.6 L-20.47 285.9 L-19.28 284.3 L-17.97 282.8 L-16.55 281.5 L-15.03 280.2 L-13.41 279.1 L-11.71 278.1 L-9.927 277.2 L-8.085 276.5 L-6.193 275.9 L-4.261 275.5 L-2.303 275.3 L-0.3295 275.1 L1.646 275.2 L3.611 275.4 L5.553 275.8 L7.46 276.3 L9.319 277 L11.12 277.8 L12.85 278.7 L14.5 279.8 L16.06 281 L17.51 282.4 L18.86 283.8 L20.09 285.4 L21.18 287 L22.15 288.7 L22.98 290.5 L23.66 292.4 L24.19 294.3 L24.56 296.2 L24.79 298.2 L24.85 300.2 Z " />
<path stroke="rgb(0,0,0)" stroke-opacity="1" fill="rgb(255,255,255)" fill-opacity="1" d="M-224.9 24.13 L-224.9 22.15 L-224.8 20.17 L-224.8 18.19 L-224.8 16.22 L-224.8 14.24 L-224.8 12.26 L-224.8 10.28 L-224.8 8.298 L-224.8 6.318 L-224.8 4.339 L-224.8 2.359 L-224.7 0.38 L-224.7 -1.599 L-224.7 -3.579 L-224.7 -5.558 L-224.7 -7.538 L-224.7 -9.517 L-224.7 -11.5 L-224.7 -13.48 L-224.7 -15.46 L-224.7 -17.43 L-224.6 -19.41 L-224.6 -21.39 L-224.6 -23.37 L-224.6 -25.35 L-222.6 -25.34 L-220.7 -25.33 L-218.7 -25.32 L-216.7 -25.31 L-214.7 -25.3 L-212.7 -25.29 L-210.8 -25.28 L-208.8 -25.27 L-206.8 -25.26 L-204.8 -25.25 L-202.8 -25.24 L-200.9 -25.23 L-198.9 -25.22 L-196.9 -25.21 L-194.9 -25.2 L-192.9 -25.19 L-191 -25.18 L-189 -25.17 L-187 -25.16 L-185 -25.15 L-183 -25.14 L-181.1 -25.13 L-179.1 -25.12 L-177.1 -25.11 L-175.1 -25.1 L-175.1 -23.12 L-175.1 -21.14 L-175.2 -19.16 L-175.2 -17.18 L-175.2 -15.21 L-175.2 -13.23 L-175.2 -11.25 L-175.2 -9.267 L-175.2 -7.288 L-175.2 -5.308 L-175.2 -3.329 L-175.2 -1.35 L-175.3 0.6298 L-175.3 2.609 L-175.3 4.589 L-175.3 6.568 L-175.3 8.547 L-175.3 10.53 L-175.3 12.51 L-175.3 14.49 L-175.3 16.47 L-175.3 18.44 L-175.4 20.42 L-175.4 22.4 L-175.4 24.38 L-177.4 24.37 L-179.3 24.36 L-181.3 24.35 L-183.3 24.34 L-185.3 24.33 L-187.3 24.32 L-189.2 24.31 L-191.2 24.3 L-193.2 24.29 L-195.2 24.28 L-197.2 24.27 L-199.1 24.26 L-201.1 24.25 L-203.1 24.24 L-205.1 24.23 L-207 24.22 L-209 24.21 L-211 24.2 L-213 24.19 L-215 24.18 L-216.9 24.17 L-218.9 24.16 L-220.9 24.15 L-222.9 24.14 L-224.9 24.13 Z " />
<path stroke="rgb(0,0,0)" stroke-opacity="0.593" fill="rgb(255,255,255)" fill-opacity="1" d="M224.9 300.2 L224.8 302.1 L224.5 304.1 L224.1 306 L223.6 307.9 L222.8 309.8 L222 311.6 L221 313.3 L219.9 314.9 L218.6 316.4 L217.3 317.9 L215.8 319.2 L214.2 320.4 L212.6 321.4 L210.8 322.4 L209 323.2 L207.1 323.8 L205.2 324.3 L203.3 324.6 L201.3 324.8 L199.3 324.8 L197.4 324.7 L195.4 324.4 L193.5 324 L191.6 323.4 L189.8 322.6 L188 321.8 L186.3 320.7 L184.7 319.6 L183.2 318.3 L181.8 316.9 L180.5 315.4 L179.4 313.8 L178.3 312.1 L177.4 310.4 L176.7 308.6 L176.1 306.7 L175.6 304.7 L175.3 302.8 L175.2 300.8 L175.2 298.8 L175.3 296.9 L175.7 294.9 L176.2 293 L176.8 291.1 L177.6 289.3 L178.5 287.6 L179.5 285.9 L180.7 284.3 L182 282.8 L183.4 281.5 L185 280.2 L186.6 279.1 L188.3 278.1 L190.1 277.2 L191.9 276.5 L193.8 275.9 L195.7 275.5 L197.7 275.3 L199.7 275.1 L201.6 275.2 L203.6 275.4 L205.6 275.8 L207.5 276.3 L209.3 277 L211.1 277.8 L212.9 278.7 L214.5 279.8 L216.1 281 L217.5 282.4 L218.9 283.8 L220.1 285.4 L221.2 287 L222.2 288.7 L223 290.5 L223.7 292.4 L224.2 294.3 L224.6 296.2 L224.8 298.2 L224.9 300.2 Z " />
<path stroke="rgb(0,0,0)" stroke-opacity="1" fill="rgb(255,255,255)" fill-opacity="1" d="M-24.91 24.11 L-24.9 22.13 L-24.89 20.15 L-24.87 18.17 L-24.86 16.19 L-24.85 14.21 L-24.83 12.23 L-24.82 10.25 L-24.81 8.269 L-24.8 6.288 L-24.78 4.307 L-24.77 2.327 L-24.76 0.3461 L-24.75 -1.634 L-24.73 -3.615 L-24.72 -5.596 L-24.71 -7.576 L-24.69 -9.557 L-24.68 -11.54 L-24.67 -13.52 L-24.66 -15.5 L-24.64 -17.48 L-24.63 -19.46 L-24.62 -21.44 L-24.61 -23.42 L-24.59 -25.4 L-22.61 -25.39 L-20.63 -25.38 L-18.65 -25.36 L-16.67 -25.35 L-14.69 -25.34 L-12.71 -25.33 L-10.73 -25.31 L-8.747 -25.3 L-6.767 -25.29 L-4.786 -25.27 L-2.806 -25.26 L-0.825 -25.25 L1.156 -25.24 L3.136 -25.22 L5.117 -25.21 L7.097 -25.2 L9.078 -25.18 L11.06 -25.17 L13.04 -25.16 L15.02 -25.15 L17 -25.13 L18.98 -25.12 L20.96 -25.11 L22.94 -25.1 L24.92 -25.08 L24.91 -23.1 L24.9 -21.12 L24.88 -19.14 L24.87 -17.16 L24.86 -15.18 L24.85 -13.2 L24.83 -11.22 L24.82 -9.238 L24.81 -7.257 L24.8 -5.277 L24.78 -3.296 L24.77 -1.315 L24.76 0.6653 L24.74 2.646 L24.73 4.627 L24.72 6.607 L24.71 8.588 L24.69 10.57 L24.68 12.55 L24.67 14.53 L24.65 16.51 L24.64 18.49 L24.63 20.47 L24.62 22.45 L24.6 24.43 L22.62 24.42 L20.64 24.41 L18.66 24.39 L16.68 24.38 L14.7 24.37 L12.72 24.36 L10.74 24.34 L8.759 24.33 L6.778 24.32 L4.798 24.3 L2.817 24.29 L0.8364 24.28 L-1.144 24.27 L-3.125 24.25 L-5.105 24.24 L-7.086 24.23 L-9.067 24.22 L-11.05 24.2 L-13.03 24.19 L-15.01 24.18 L-16.99 24.16 L-18.97 24.15 L-20.95 24.14 L-22.93 24.13 L-24.91 24.11 Z " />
</g>
</g>
</svg>
