<!DOCTYPE svg>
<svg xmlns="http://www.w3.org/2000/svg" xmlns:xlink="http://www.w3.org/1999/xlink" width="1000" height="1000">
<g transform="translate(500.000000,500.000000)">
<g transform="scale(3.000000,3.000000)">
<path stroke="rgb(0,0,0)" stroke-opacity="1" fill="rgb(255,255,255)" fill-opacity="1" d="M-988 -987.7 L-989 -987.7 L-989.9 -987.8 L-990.9 -987.8 L-991.9 -987.8 L-992.9 -987.8 L-993.8 -987.8 L-994.8 -987.8 L-995.8 -987.8 L-996.8 -987.8 L-997.8 -987.8 L-998.7 -987.8 L-999.7 -987.8 L-1001 -987.9 L-1002 -987.9 L-1003 -987.9 L-1004 -987.9 L-1005 -987.9 L-1006 -987.9 L-1007 -987.9 L-1008 -987.9 L-1009 -987.9 L-1010 -987.9 L-1010 -988 L-1011 -988 L-1012 -988 L-1012 -989 L-1012 -989.9 L-1012 -990.9 L-1012 -991.9 L-1012 -992.9 L-1012 -993.8 L-1012 -994.8 L-1012 -995.8 L-1012 -996.8 L-1012 -997.8 L-1012 -998.7 L-1012 -999.7 L-1012 -1001 L-1012 -1002 L-1012 -1003 L-1012 -1004 L-1012 -1005 L-1012 -1006 L-1012 -1007 L-1012 -1008 L-1012 -1009 L-1012 -1010 L-1012 -1010 L-1012 -1011 L-1012 -1012 L-1011 -1012 L-1010 -1012 L-1009 -1012 L-1008 -1012 L-1007 -1012 L-1006 -1012 L-1005 -1012 L-1004 -1012 L-1003 -1012 L-1002 -1012 L-1001 -1012 L-1000 -1012 L-999.5 -1012 L-998.5 -1012 L-997.5 -1012 L-996.5 -1012 L-995.6 -1012 L-994.6 -1012 L-993.6 -1012 L-992.6 -1012 L-991.6 -1012 L-990.7 -1012 L-989.7 -1012 L-988.7 -1012 L-987.7 -1012 L-987.7 -1011 L-987.8 -1010 L-987.8 -1009 L-987.8 -1008 L-987.8 -1007 L-987.8 -1006 L-987.8 -1005 L-987.8 -1004 L-987.8 -1003 L-987.8 -1002 L-987.8 -1001 L-987.8 -1000 L-987.9 -999.5 L-987.9 -998.5 L-987.9 -997.5 L-987.9 -996.5 L-987.9 -995.6 L-987.9 -994.6 L-987.9 -993.6 L-987.9 -992.6 L-987.9 -991.6 L-987.9 -990.7 L-988 -989.7 L-988 -988.7 L-988 -987.7 Z " />
<path stroke="rgb(0,0,0)" stroke-opacity="1" fill="rgb(255,255,255)" fill-opacity="1" d="M-199.5 -312.2 L-198.5 -312.1 L-197.6 -312 L-196.6 -311.8 L-195.7 -311.5 L-194.7 -311.2 L-193.9 -310.7 L-193 -310.2 L-192.2 -309.7 L-191.5 -309 L-190.7 -308.4 L-190.1 -307.6 L-189.5 -306.8 L-189 -306 L-188.5 -305.1 L-188.1 -304.2 L-187.8 -303.3 L-187.6 -302.3 L-187.4 -301.4 L-187.4 -300.4 L-187.4 -299.4 L-187.4 -298.4 L-187.6 -297.5 L-187.8 -296.5 L-188.1 -295.6 L-188.5 -294.7 L-188.9 -293.8 L-189.4 -293 L-190 -292.2 L-190.7 -291.4 L-191.4 -290.7 L-192.1 -290.1 L-192.9 -289.5 L-193.8 -289 L-194.6 -288.6 L-195.5 -288.2 L-196.5 -287.9 L-197.4 -287.7 L-198.4 -287.6 L-199.4 -287.5 L-200.4 -287.5 L-201.3 -287.6 L-202.3 -287.8 L-203.3 -288 L-204.2 -288.4 L-205.1 -288.7 L-206 -289.2 L-206.8 -289.7 L-207.6 -290.3 L-208.3 -291 L-209 -291.7 L-209.6 -292.5 L-210.1 -293.3 L-210.6 -294.1 L-211 -295 L-211.4 -295.9 L-211.7 -296.9 L-211.9 -297.8 L-212 -298.8 L-212 -299.8 L-212 -300.8 L-211.9 -301.7 L-211.7 -302.7 L-211.4 -303.7 L-211.1 -304.6 L-210.7 -305.5 L-210.2 -306.3 L-209.7 -307.1 L-209 -307.9 L-208.4 -308.6 L-207.6 -309.3 L-206.9 -309.9 L-206.1 -310.4 L-205.2 -310.9 L-204.3 -311.3 L-203.4 -311.6 L-202.4 -311.9 L-201.5 -312.1 L-200.5 -312.2 L-199.5 -312.2 Z " />
<path stroke="rgb(0,0,0)" stroke-opacity="1" fill="rgb(255,255,255)" fill-opacity="1" d="M-784.9 -985.6 L-785.9 -985.6 L-786.8 -985.6 L-787.8 -985.5 L-788.8 -985.5 L-789.8 -985.5 L-790.7 -985.4 L-791.7 -985.4 L-792.7 -985.4 L-793.7 -985.4 L-794.7 -985.3 L-795.6 -985.3 L-796.6 -985.3 L-797.6 -985.2 L-798.6 -985.2 L-799.6 -985.2 L-800.5 -985.1 L-801.5 -985.1 L-802.5 -985.1 L-803.5 -985.1 L-804.4 -985 L-805.4 -985 L-806.4 -985 L-807.4 -984.9 L-808.4 -984.9 L-809.3 -984.9 L-809.4 -985.8 L-809.4 -986.8 L-809.4 -987.8 L-809.5 -988.8 L-809.5 -989.8 L-809.5 -990.7 L-809.5 -991.7 L-809.6 -992.7 L-809.6 -993.7 L-809.6 -994.7 L-809.7 -995.6 L-809.7 -996.6 L-809.7 -997.6 L-809.8 -998.6 L-809.8 -999.5 L-809.8 -1001 L-809.8 -1001 L-809.9 -1002 L-809.9 -1003 L-809.9 -1004 L-810 -1005 L-810 -1006 L-810 -1007 L-810.1 -1008 L-810.1 -1009 L-809.1 -1009 L-808.1 -1009 L-807.2 -1009 L-806.2 -1009 L-805.2 -1009 L-804.2 -1010 L-803.2 -1010 L-802.3 -1010 L-801.3 -1010 L-800.3 -1010 L-799.3 -1010 L-798.4 -1010 L-797.4 -1010 L-796.4 -1010 L-795.4 -1010 L-794.4 -1010 L-793.5 -1010 L-792.5 -1010 L-791.5 -1010 L-790.5 -1010 L-789.5 -1010 L-788.6 -1010 L-787.6 -1010 L-786.6 -1010 L-785.6 -1010 L-785.6 -1009 L-785.6 -1008 L-785.5 -1007 L-785.5 -1006 L-785.5 -1005 L-785.5 -1004 L-785.4 -1003 L-785.4 -1002 L-785.4 -1001 L-785.3 -1000 L-785.3 -999.3 L-785.3 -998.3 L-785.2 -997.4 L-785.2 -996.4 L-785.2 -995.4 L-785.2 -994.4 L-785.1 -993.5 L-785.1 -992.5 L-785.1 -991.5 L-785 -990.5 L-785 -989.5 L-785 -988.6 L-784.9 -987.6 L-784.9 -986.6 L-784.9 -985.6 Z " />
<path stroke="rgb(0,0,0)" stroke-opacity="1" fill="rgb(255,255,255)" fill-opacity="1" d="M0.491 -312.2 L1.471 -312.1 L2.443 -312 L3.402 -311.8 L4.342 -311.5 L5.256 -311.2 L6.138 -310.7 L6.984 -310.2 L7.788 -309.7 L8.544 -309 L9.248 -308.4 L9.896 -307.6 L10.48 -306.8 L11.01 -306 L11.46 -305.1 L11.85 -304.2 L12.16 -303.3 L12.4 -302.3 L12.56 -301.4 L12.64 -300.4 L12.64 -299.4 L12.57 -298.4 L12.42 -297.5 L12.19 -296.5 L11.89 -295.6 L11.52 -294.7 L11.07 -293.8 L10.56 -293 L9.977 -292.2 L9.337 -291.4 L8.64 -290.7 L7.89 -290.1 L7.093 -289.5 L6.252 -289 L5.374 -288.6 L4.464 -288.2 L3.527 -287.9 L2.57 -287.7 L1.599 -287.6 L0.6202 -287.5 L-0.3609 -287.5 L-1.338 -287.6 L-2.304 -287.8 L-3.254 -288 L-4.182 -288.4 L-5.081 -288.7 L-5.946 -289.2 L-6.771 -289.7 L-7.552 -290.3 L-8.283 -291 L-8.959 -291.7 L-9.577 -292.5 L-10.13 -293.3 L-10.62 -294.1 L-11.04 -295 L-11.39 -295.9 L-11.67 -296.9 L-11.86 -297.8 L-11.99 -298.8 L-12.03 -299.8 L-12 -300.8 L-11.88 -301.7 L-11.7 -302.7 L-11.43 -303.6 L-11.09 -304.6 L-10.68 -305.5 L-10.2 -306.3 L-9.654 -307.1 L-9.044 -307.9 L-8.375 -308.6 L-7.651 -309.3 L-6.877 -309.9 L-6.057 -310.4 L-5.197 -310.9 L-4.302 -311.3 L-3.378 -311.6 L-2.431 -311.9 L-1.466 -312.1 L-0.49 -312.2 L0.491 -312.2 Z " />
<path stroke="rgb(0,0,0)" stroke-opacity="1" fill="rgb(255,255,255)" fill-opacity="1" d="M-575.8 -979.5 L-576.8 -979.3 L-577.7 -979.2 L-578.7 -979 L-579.7 -978.9 L-580.6 -978.7 L-581.6 -978.6 L-582.6 -978.4 L-583.5 -978.3 L-584.5 -978.2 L-585.5 -978 L-586.5 -977.9 L-587.4 -977.7 L-588.4 -977.6 L-589.4 -977.4 L-590.3 -977.3 L-591.3 -977.1 L-592.3 -977 L-593.2 -976.8 L-594.2 -976.7 L-595.2 -976.5 L-596.1 -976.4 L-597.1 -976.2 L-598.1 -976.1 L-599 -975.9 L-600 -975.8 L-600.1 -976.7 L-600.3 -977.7 L-600.4 -978.7 L-600.6 -979.6 L-600.7 -980.6 L-600.9 -981.6 L-601 -982.5 L-601.2 -983.5 L-601.3 -984.5 L-601.5 -985.4 L-601.6 -986.4 L-601.8 -987.4 L-601.9 -988.3 L-602.1 -989.3 L-602.2 -990.3 L-602.4 -991.3 L-602.5 -992.2 L-602.7 -993.2 L-602.8 -994.2 L-603 -995.1 L-603.1 -996.1 L-603.3 -997.1 L-603.4 -998 L-603.6 -999 L-603.7 -1000 L-602.7 -1000 L-601.8 -1000 L-600.8 -1000 L-599.8 -1001 L-598.9 -1001 L-597.9 -1001 L-596.9 -1001 L-596 -1001 L-595 -1001 L-594 -1001 L-593.1 -1002 L-592.1 -1002 L-591.1 -1002 L-590.2 -1002 L-589.2 -1002 L-588.2 -1002 L-587.3 -1002 L-586.3 -1003 L-585.3 -1003 L-584.4 -1003 L-583.4 -1003 L-582.4 -1003 L-581.5 -1003 L-580.5 -1004 L-579.5 -1004 L-579.4 -1003 L-579.2 -1002 L-579.1 -1001 L-578.9 -999.8 L-578.8 -998.8 L-578.6 -997.9 L-578.5 -996.9 L-578.3 -995.9 L-578.2 -995 L-578 -994 L-577.9 -993 L-577.7 -992.1 L-577.6 -991.1 L-577.4 -990.1 L-577.3 -989.2 L-577.1 -988.2 L-577 -987.2 L-576.9 -986.3 L-576.7 -985.3 L-576.6 -984.3 L-576.4 -983.4 L-576.3 -982.4 L-576.1 -981.4 L-576 -980.5 L-575.8 -979.5 Z " />
<path stroke="rgb(0,0,0)" stroke-opacity="1" fill="rgb(255,255,255)" fill-opacity="1" d="M200.5 -312.2 L201.5 -312.1 L202.4 -312 L203.4 -311.8 L204.3 -311.5 L205.3 -311.2 L206.1 -310.7 L207 -310.2 L207.8 -309.7 L208.5 -309 L209.2 -308.4 L209.9 -307.6 L210.5 -306.8 L211 -306 L211.5 -305.1 L211.8 -304.2 L212.2 -303.3 L212.4 -302.3 L212.6 -301.4 L212.6 -300.4 L212.6 -299.4 L212.6 -298.4 L212.4 -297.5 L212.2 -296.5 L211.9 -295.6 L211.5 -294.7 L211.1 -293.8 L210.6 -293 L210 -292.2 L209.3 -291.4 L208.6 -290.7 L207.9 -290.1 L207.1 -289.5 L206.3 -289 L205.4 -288.6 L204.5 -288.2 L203.5 -287.9 L202.6 -287.7 L201.6 -287.6 L200.6 -287.5 L199.6 -287.5 L198.7 -287.6 L197.7 -287.8 L196.7 -288 L195.8 -288.4 L194.9 -288.7 L194.1 -289.2 L193.2 -289.7 L192.4 -290.3 L191.7 -291 L191 -291.7 L190.4 -292.5 L189.9 -293.3 L189.4 -294.1 L189 -295 L188.6 -295.9 L188.3 -296.9 L188.1 -297.8 L188 -298.8 L188 -299.8 L188 -300.8 L188.1 -301.7 L188.3 -302.7 L188.6 -303.6 L188.9 -304.6 L189.3 -305.5 L189.8 -306.3 L190.3 -307.1 L191 -307.9 L191.6 -308.6 L192.3 -309.3 L193.1 -309.9 L193.9 -310.4 L194.8 -310.9 L195.7 -311.3 L196.6 -311.6 L197.6 -311.9 L198.5 -312.1 L199.5 -312.2 L200.5 -312.2 Z " />
<path stroke="rgb(0,0,0)" stroke-opacity="1" fill="rgb(255,255,255)" fill-opacity="1" d="M-358.1 -967.5 L-359 -967.1 L-359.9 -966.7 L-360.8 -966.4 L-361.7 -966 L-362.6 -965.6 L-363.5 -965.2 L-364.4 -964.8 L-365.3 -964.5 L-366.2 -964.1 L-367.1 -963.7 L-368 -963.3 L-368.9 -962.9 L-369.8 -962.6 L-370.7 -962.2 L-371.6 -961.8 L-372.5 -961.4 L-373.4 -961 L-374.3 -960.7 L-375.2 -960.3 L-376.1 -959.9 L-377 -959.5 L-377.9 -959.1 L-378.8 -958.8 L-379.7 -958.4 L-380.6 -958 L-381 -958.9 L-381.4 -959.8 L-381.8 -960.7 L-382.2 -961.6 L-382.5 -962.5 L-382.9 -963.4 L-383.3 -964.3 L-383.7 -965.2 L-384.1 -966.1 L-384.4 -967 L-384.8 -967.9 L-385.2 -968.8 L-385.6 -969.7 L-386 -970.6 L-386.3 -971.5 L-386.7 -972.4 L-387.1 -973.3 L-387.5 -974.2 L-387.9 -975.1 L-388.2 -976 L-388.6 -976.9 L-389 -977.8 L-389.4 -978.7 L-389.8 -979.6 L-390.1 -980.5 L-389.2 -980.9 L-388.3 -981.3 L-387.4 -981.7 L-386.5 -982.1 L-385.6 -982.4 L-384.7 -982.8 L-383.8 -983.2 L-382.9 -983.6 L-382 -984 L-381.1 -984.3 L-380.2 -984.7 L-379.3 -985.1 L-378.4 -985.5 L-377.5 -985.9 L-376.6 -986.2 L-375.7 -986.6 L-374.8 -987 L-373.9 -987.4 L-373 -987.8 L-372.1 -988.1 L-371.2 -988.5 L-370.3 -988.9 L-369.4 -989.3 L-368.5 -989.7 L-367.6 -990 L-367.2 -989.1 L-366.8 -988.2 L-366.4 -987.3 L-366.1 -986.4 L-365.7 -985.5 L-365.3 -984.6 L-364.9 -983.7 L-364.5 -982.8 L-364.2 -981.9 L-363.8 -981 L-363.4 -980.1 L-363 -979.2 L-362.6 -978.3 L-362.3 -977.4 L-361.9 -976.5 L-361.5 -975.6 L-361.1 -974.7 L-360.7 -973.8 L-360.4 -972.9 L-360 -972 L-359.6 -971.1 L-359.2 -970.2 L-358.8 -969.3 L-358.5 -968.4 L-358.1 -967.5 Z " />
<path stroke="rgb(0,0,0)" stroke-opacity="1" fill="rgb(255,255,255)" fill-opacity="1" d="M-299.5 -212.2 L-298.5 -212.1 L-297.6 -212 L-296.6 -211.8 L-295.7 -211.5 L-294.7 -211.2 L-293.9 -210.7 L-293 -210.2 L-292.2 -209.7 L-291.5 -209 L-290.7 -208.4 L-290.1 -207.6 L-289.5 -206.8 L-289 -206 L-288.5 -205.1 L-288.1 -204.2 L-287.8 -203.3 L-287.6 -202.3 L-287.4 -201.4 L-287.4 -200.4 L-287.4 -199.4 L-287.4 -198.4 L-287.6 -197.5 L-287.8 -196.5 L-288.1 -195.6 L-288.5 -194.7 L-288.9 -193.8 L-289.4 -193 L-290 -192.2 L-290.7 -191.4 L-291.4 -190.7 L-292.1 -190.1 L-292.9 -189.5 L-293.8 -189 L-294.6 -188.6 L-295.5 -188.2 L-296.5 -187.9 L-297.4 -187.7 L-298.4 -187.6 L-299.4 -187.5 L-300.4 -187.5 L-301.3 -187.6 L-302.3 -187.8 L-303.3 -188 L-304.2 -188.4 L-305.1 -188.7 L-306 -189.2 L-306.8 -189.7 L-307.6 -190.3 L-308.3 -191 L-309 -191.7 L-309.6 -192.5 L-310.1 -193.3 L-310.6 -194.1 L-311 -195 L-311.4 -195.9 L-311.7 -196.9 L-311.9 -197.8 L-312 -198.8 L-312 -199.8 L-312 -200.8 L-311.9 -201.7 L-311.7 -202.7 L-311.4 -203.7 L-311.1 -204.6 L-310.7 -205.5 L-310.2 -206.3 L-309.7 -207.1 L-309 -207.9 L-308.4 -208.6 L-307.6 -209.3 L-306.9 -209.9 L-306.1 -210.4 L-305.2 -210.9 L-304.3 -211.3 L-303.4 -211.6 L-302.4 -211.9 L-301.5 -212.1 L-300.5 -212.2 L-299.5 -212.2 Z " />
<path stroke="rgb(0,0,0)" stroke-opacity="1" fill="rgb(255,255,255)" fill-opacity="1" d="M-884.9 -885.6 L-885.9 -885.6 L-886.8 -885.6 L-887.8 -885.5 L-888.8 -885.5 L-889.8 -885.5 L-890.7 -885.4 L-891.7 -885.4 L-892.7 -885.4 L-893.7 -885.4 L-894.7 -885.3 L-895.6 -885.3 L-896.6 -885.3 L-897.6 -885.2 L-898.6 -885.2 L-899.6 -885.2 L-900.5 -885.1 L-901.5 -885.1 L-902.5 -885.1 L-903.5 -885.1 L-904.4 -885 L-905.4 -885 L-906.4 -885 L-907.4 -884.9 L-908.4 -884.9 L-909.3 -884.9 L-909.4 -885.8 L-909.4 -886.8 L-909.4 -887.8 L-909.5 -888.8 L-909.5 -889.8 L-909.5 -890.7 L-909.5 -891.7 L-909.6 -892.7 L-909.6 -893.7 L-909.6 -894.7 L-909.7 -895.6 L-909.7 -896.6 L-909.7 -897.6 L-909.8 -898.6 L-909.8 -899.5 L-909.8 -900.5 L-909.8 -901.5 L-909.9 -902.5 L-909.9 -903.5 L-909.9 -904.4 L-910 -905.4 L-910 -906.4 L-910 -907.4 L-910.1 -908.3 L-910.1 -909.3 L-909.1 -909.4 L-908.1 -909.4 L-907.2 -909.4 L-906.2 -909.4 L-905.2 -909.5 L-904.2 -909.5 L-903.2 -909.5 L-902.3 -909.6 L-901.3 -909.6 L-900.3 -909.6 L-899.3 -909.7 L-898.4 -909.7 L-897.4 -909.7 L-896.4 -909.7 L-895.4 -909.8 L-894.4 -909.8 L-893.5 -909.8 L-892.5 -909.9 L-891.5 -909.9 L-890.5 -909.9 L-889.5 -910 L-888.6 -910 L-887.6 -910 L-886.6 -910.1 L-885.6 -910.1 L-885.6 -909.1 L-885.6 -908.1 L-885.5 -907.1 L-885.5 -906.2 L-885.5 -905.2 L-885.5 -904.2 L-885.4 -903.2 L-885.4 -902.3 L-885.4 -901.3 L-885.3 -900.3 L-885.3 -899.3 L-885.3 -898.3 L-885.2 -897.4 L-885.2 -896.4 L-885.2 -895.4 L-885.2 -894.4 L-885.1 -893.5 L-885.1 -892.5 L-885.1 -891.5 L-885 -890.5 L-885 -889.5 L-885 -888.6 L-884.9 -887.6 L-884.9 -886.6 L-884.9 -885.6 Z " />
<path stroke="rgb(0,0,0)" stroke-opacity="1" fill="rgb(255,255,255)" fill-opacity="1" d="M-99.51 -212.2 L-98.53 -212.1 L-97.56 -212 L-96.6 -211.8 L-95.66 -211.5 L-94.74 -211.2 L-93.86 -210.7 L-93.02 -210.2 L-92.21 -209.7 L-91.46 -209 L-90.75 -208.4 L-90.1 -207.6 L-89.52 -206.8 L-88.99 -206 L-88.54 -205.1 L-88.15 -204.2 L-87.84 -203.3 L-87.6 -202.3 L-87.44 -201.4 L-87.36 -200.4 L-87.36 -199.4 L-87.43 -198.4 L-87.58 -197.5 L-87.81 -196.5 L-88.11 -195.6 L-88.48 -194.7 L-88.93 -193.8 L-89.44 -193 L-90.02 -192.2 L-90.66 -191.4 L-91.36 -190.7 L-92.11 -190.1 L-92.91 -189.5 L-93.75 -189 L-94.63 -188.6 L-95.54 -188.2 L-96.47 -187.9 L-97.43 -187.7 L-98.4 -187.6 L-99.38 -187.5 L-100.4 -187.5 L-101.3 -187.6 L-102.3 -187.8 L-103.3 -188 L-104.2 -188.4 L-105.1 -188.7 L-105.9 -189.2 L-106.8 -189.7 L-107.6 -190.3 L-108.3 -191 L-109 -191.7 L-109.6 -192.5 L-110.1 -193.3 L-110.6 -194.1 L-111 -195 L-111.4 -195.9 L-111.7 -196.9 L-111.9 -197.8 L-112 -198.8 L-112 -199.8 L-112 -200.8 L-111.9 -201.7 L-111.7 -202.7 L-111.4 -203.6 L-111.1 -204.6 L-110.7 -205.5 L-110.2 -206.3 L-109.7 -207.1 L-109 -207.9 L-108.4 -208.6 L-107.7 -209.3 L-106.9 -209.9 L-106.1 -210.4 L-105.2 -210.9 L-104.3 -211.3 L-103.4 -211.6 L-102.4 -211.9 L-101.5 -212.1 L-100.5 -212.2 L-99.51 -212.2 Z " />
<path stroke="rgb(0,0,0)" stroke-opacity="1" fill="rgb(255,255,255)" fill-opacity="1" d="M-675.8 -879.5 L-676.8 -879.3 L-677.7 -879.2 L-678.7 -879 L-679.7 -878.9 L-680.6 -878.7 L-681.6 -878.6 L-682.6 -878.4 L-683.5 -878.3 L-684.5 -878.2 L-685.5 -878 L-686.5 -877.9 L-687.4 -877.7 L-688.4 -877.6 L-689.4 -877.4 L-690.3 -877.3 L-691.3 -877.1 L-692.3 -877 L-693.2 -876.8 L-694.2 -876.7 L-695.2 -876.5 L-696.1 -876.4 L-697.1 -876.2 L-698.1 -876.1 L-699 -875.9 L-700 -875.8 L-700.1 -876.7 L-700.3 -877.7 L-700.4 -878.7 L-700.6 -879.6 L-700.7 -880.6 L-700.9 -881.6 L-701 -882.5 L-701.2 -883.5 L-701.3 -884.5 L-701.5 -885.4 L-701.6 -886.4 L-701.8 -887.4 L-701.9 -888.3 L-702.1 -889.3 L-702.2 -890.3 L-702.4 -891.3 L-702.5 -892.2 L-702.7 -893.2 L-702.8 -894.2 L-703 -895.1 L-703.1 -896.1 L-703.3 -897.1 L-703.4 -898 L-703.6 -899 L-703.7 -900 L-702.7 -900.1 L-701.8 -900.3 L-700.8 -900.4 L-699.8 -900.6 L-698.9 -900.7 L-697.9 -900.9 L-696.9 -901 L-696 -901.1 L-695 -901.3 L-694 -901.4 L-693.1 -901.6 L-692.1 -901.7 L-691.1 -901.9 L-690.2 -902 L-689.2 -902.2 L-688.2 -902.3 L-687.3 -902.5 L-686.3 -902.6 L-685.3 -902.8 L-684.4 -902.9 L-683.4 -903.1 L-682.4 -903.2 L-681.5 -903.4 L-680.5 -903.5 L-679.5 -903.7 L-679.4 -902.7 L-679.2 -901.7 L-679.1 -900.8 L-678.9 -899.8 L-678.8 -898.8 L-678.6 -897.9 L-678.5 -896.9 L-678.3 -895.9 L-678.2 -895 L-678 -894 L-677.9 -893 L-677.7 -892.1 L-677.6 -891.1 L-677.4 -890.1 L-677.3 -889.2 L-677.1 -888.2 L-677 -887.2 L-676.9 -886.3 L-676.7 -885.3 L-676.6 -884.3 L-676.4 -883.4 L-676.3 -882.4 L-676.1 -881.4 L-676 -880.5 L-675.8 -879.5 Z " />
<path stroke="rgb(0,0,0)" stroke-opacity="1" fill="rgb(255,255,255)" fill-opacity="1" d="M100.5 -212.2 L101.5 -212.1 L102.4 -212 L103.4 -211.8 L104.3 -211.5 L105.3 -211.2 L106.1 -210.7 L107 -210.2 L107.8 -209.7 L108.5 -209 L109.2 -208.4 L109.9 -207.6 L110.5 -206.8 L111 -206 L111.5 -205.1 L111.8 -204.2 L112.2 -203.3 L112.4 -202.3 L112.6 -201.4 L112.6 -200.4 L112.6 -199.4 L112.6 -198.4 L112.4 -197.5 L112.2 -196.5 L111.9 -195.6 L111.5 -194.7 L111.1 -193.8 L110.6 -193 L110 -192.2 L109.3 -191.4 L108.6 -190.7 L107.9 -190.1 L107.1 -189.5 L106.3 -189 L105.4 -188.6 L104.5 -188.2 L103.5 -187.9 L102.6 -187.7 L101.6 -187.6 L100.6 -187.5 L99.64 -187.5 L98.66 -187.6 L97.7 -187.8 L96.75 -188 L95.82 -188.4 L94.92 -188.7 L94.05 -189.2 L93.23 -189.7 L92.45 -190.3 L91.72 -191 L91.04 -191.7 L90.42 -192.5 L89.87 -193.3 L89.38 -194.1 L88.96 -195 L88.61 -195.9 L88.33 -196.9 L88.14 -197.8 L88.01 -198.8 L87.97 -199.8 L88 -200.8 L88.12 -201.7 L88.3 -202.7 L88.57 -203.6 L88.91 -204.6 L89.32 -205.5 L89.8 -206.3 L90.35 -207.1 L90.96 -207.9 L91.63 -208.6 L92.35 -209.3 L93.12 -209.9 L93.94 -210.4 L94.8 -210.9 L95.7 -211.3 L96.62 -211.6 L97.57 -211.9 L98.53 -212.1 L99.51 -212.2 L100.5 -212.2 Z " />
<path stroke="rgb(0,0,0)" stroke-opacity="1" fill="rgb(255,255,255)" fill-opacity="1" d="M-458.1 -867.5 L-459 -867.1 L-459.9 -866.7 L-460.8 -866.4 L-461.7 -866 L-462.6 -865.6 L-463.5 -865.2 L-464.4 -864.8 L-465.3 -864.5 L-466.2 -864.1 L-467.1 -863.7 L-468 -863.3 L-468.9 -862.9 L-469.8 -862.6 L-470.7 -862.2 L-471.6 -861.8 L-472.5 -861.4 L-473.4 -861 L-474.3 -860.7 L-475.2 -860.3 L-476.1 -859.9 L-477 -859.5 L-477.9 -859.1 L-478.8 -858.8 L-479.7 -858.4 L-480.6 -858 L-481 -858.9 L-481.4 -859.8 L-481.8 -860.7 L-482.2 -861.6 L-482.5 -862.5 L-482.9 -863.4 L-483.3 -864.3 L-483.7 -865.2 L-484.1 -866.1 L-484.4 -867 L-484.8 -867.9 L-485.2 -868.8 L-485.6 -869.7 L-486 -870.6 L-486.3 -871.5 L-486.7 -872.4 L-487.1 -873.3 L-487.5 -874.2 L-487.9 -875.1 L-488.2 -876 L-488.6 -876.9 L-489 -877.8 L-489.4 -878.7 L-489.8 -879.6 L-490.1 -880.5 L-489.2 -880.9 L-488.3 -881.3 L-487.4 -881.7 L-486.5 -882.1 L-485.6 -882.4 L-484.7 -882.8 L-483.8 -883.2 L-482.9 -883.6 L-482 -884 L-481.1 -884.3 L-480.2 -884.7 L-479.3 -885.1 L-478.4 -885.5 L-477.5 -885.9 L-476.6 -886.2 L-475.7 -886.6 L-474.8 -887 L-473.9 -887.4 L-473 -887.8 L-472.1 -888.1 L-471.2 -888.5 L-470.3 -888.9 L-469.4 -889.3 L-468.5 -889.7 L-467.6 -890 L-467.2 -889.1 L-466.8 -888.2 L-466.4 -887.3 L-466.1 -886.4 L-465.7 -885.5 L-465.3 -884.6 L-464.9 -883.7 L-464.5 -882.8 L-464.2 -881.9 L-463.8 -881 L-463.4 -880.1 L-463 -879.2 L-462.6 -878.3 L-462.3 -877.4 L-461.9 -876.5 L-461.5 -875.6 L-461.1 -874.7 L-460.7 -873.8 L-460.4 -872.9 L-460 -872 L-459.6 -871.1 L-459.2 -870.2 L-458.8 -869.3 L-458.5 -868.4 L-458.1 -867.5 Z " />
<path stroke="rgb(0,0,0)" stroke-opacity="1" fill="rgb(255,255,255)" fill-opacity="1" d="M300.5 -212.2 L301.5 -212.1 L302.4 -212 L303.4 -211.8 L304.3 -211.5 L305.3 -211.2 L306.1 -210.7 L307 -210.2 L307.8 -209.7 L308.5 -209 L309.2 -208.4 L309.9 -207.6 L310.5 -206.8 L311 -206 L311.5 -205.1 L311.8 -204.2 L312.2 -203.3 L312.4 -202.3 L312.6 -201.4 L312.6 -200.4 L312.6 -199.4 L312.6 -198.4 L312.4 -197.5 L312.2 -196.5 L311.9 -195.6 L311.5 -194.7 L311.1 -193.8 L310.6 -193 L310 -192.2 L309.3 -191.4 L308.6 -190.7 L307.9 -190.1 L307.1 -189.5 L306.3 -189 L305.4 -188.6 L304.5 -188.2 L303.5 -187.9 L302.6 -187.7 L301.6 -187.6 L300.6 -187.5 L299.6 -187.5 L298.7 -187.6 L297.7 -187.8 L296.7 -188 L295.8 -188.4 L294.9 -188.7 L294.1 -189.2 L293.2 -189.7 L292.4 -190.3 L291.7 -191 L291 -191.7 L290.4 -192.5 L289.9 -193.3 L289.4 -194.1 L289 -195 L288.6 -195.9 L288.3 -196.9 L288.1 -197.8 L288 -198.8 L288 -199.8 L288 -200.8 L288.1 -201.7 L288.3 -202.7 L288.6 -203.6 L288.9 -204.6 L289.3 -205.5 L289.8 -206.3 L290.3 -207.1 L291 -207.9 L291.6 -208.6 L292.3 -209.3 L293.1 -209.9 L293.9 -210.4 L294.8 -210.9 L295.7 -211.3 L296.6 -211.6 L297.6 -211.9 L298.5 -212.1 L299.5 -212.2 L300.5 -212.2 Z " />
<path stroke="rgb(0,0,0)" stroke-opacity="1" fill="rgb(255,255,255)" fill-opacity="1" d="M-984.9 -785.6 L-985.9 -785.6 L-986.8 -785.6 L-987.8 -785.5 L-988.8 -785.5 L-989.8 -785.5 L-990.7 -785.4 L-991.7 -785.4 L-992.7 -785.4 L-993.7 -785.4 L-994.7 -785.3 L-995.6 -785.3 L-996.6 -785.3 L-997.6 -785.2 L-998.6 -785.2 L-999.6 -785.2 L-1001 -785.1 L-1002 -785.1 L-1002 -785.1 L-1003 -785.1 L-1004 -785 L-1005 -785 L-1006 -785 L-1007 -784.9 L-1008 -784.9 L-1009 -784.9 L-1009 -785.8 L-1009 -786.8 L-1009 -787.8 L-1009 -788.8 L-1009 -789.8 L-1010 -790.7 L-1010 -791.7 L-1010 -792.7 L-1010 -793.7 L-1010 -794.7 L-1010 -795.6 L-1010 -796.6 L-1010 -797.6 L-1010 -798.6 L-1010 -799.5 L-1010 -800.5 L-1010 -801.5 L-1010 -802.5 L-1010 -803.5 L-1010 -804.4 L-1010 -805.4 L-1010 -806.4 L-1010 -807.4 L-1010 -808.3 L-1010 -809.3 L-1009 -809.4 L-1008 -809.4 L-1007 -809.4 L-1006 -809.4 L-1005 -809.5 L-1004 -809.5 L-1003 -809.5 L-1002 -809.6 L-1001 -809.6 L-1000 -809.6 L-999.3 -809.7 L-998.4 -809.7 L-997.4 -809.7 L-996.4 -809.7 L-995.4 -809.8 L-994.4 -809.8 L-993.5 -809.8 L-992.5 -809.9 L-991.5 -809.9 L-990.5 -809.9 L-989.5 -810 L-988.6 -810 L-987.6 -810 L-986.6 -810.1 L-985.6 -810.1 L-985.6 -809.1 L-985.6 -808.1 L-985.5 -807.1 L-985.5 -806.2 L-985.5 -805.2 L-985.5 -804.2 L-985.4 -803.2 L-985.4 -802.3 L-985.4 -801.3 L-985.3 -800.3 L-985.3 -799.3 L-985.3 -798.3 L-985.2 -797.4 L-985.2 -796.4 L-985.2 -795.4 L-985.2 -794.4 L-985.1 -793.5 L-985.1 -792.5 L-985.1 -791.5 L-985 -790.5 L-985 -789.5 L-985 -788.6 L-984.9 -787.6 L-984.9 -786.6 L-984.9 -785.6 Z " />
<path stroke="rgb(0,0,0)" stroke-opacity="1" fill="rgb(255,255,255)" fill-opacity="1" d="M-199.5 -112.2 L-198.5 -112.1 L-197.6 -112 L-196.6 -111.8 L-195.7 -111.5 L-194.7 -111.2 L-193.9 -110.7 L-193 -110.2 L-192.2 -109.7 L-191.5 -109 L-190.8 -108.4 L-190.1 -107.6 L-189.5 -106.8 L-189 -106 L-188.5 -105.1 L-188.2 -104.2 L-187.8 -103.3 L-187.6 -102.3 L-187.4 -101.4 L-187.4 -100.4 L-187.4 -99.42 L-187.4 -98.44 L-187.6 -97.47 L-187.8 -96.52 L-188.1 -95.58 L-188.5 -94.68 L-188.9 -93.8 L-189.4 -92.97 L-190 -92.17 L-190.7 -91.43 L-191.4 -90.74 L-192.1 -90.11 L-192.9 -89.54 L-193.7 -89.03 L-194.6 -88.59 L-195.5 -88.22 L-196.5 -87.93 L-197.4 -87.71 L-198.4 -87.57 L-199.4 -87.51 L-200.4 -87.52 L-201.3 -87.62 L-202.3 -87.79 L-203.3 -88.03 L-204.2 -88.35 L-205.1 -88.74 L-205.9 -89.21 L-206.8 -89.74 L-207.6 -90.33 L-208.3 -90.99 L-209 -91.7 L-209.6 -92.46 L-210.1 -93.27 L-210.6 -94.12 L-211 -95.01 L-211.4 -95.92 L-211.7 -96.87 L-211.9 -97.83 L-212 -98.8 L-212 -99.78 L-212 -100.8 L-211.9 -101.7 L-211.7 -102.7 L-211.4 -103.6 L-211.1 -104.6 L-210.7 -105.5 L-210.2 -106.3 L-209.7 -107.1 L-209 -107.9 L-208.4 -108.6 L-207.7 -109.3 L-206.9 -109.9 L-206.1 -110.4 L-205.2 -110.9 L-204.3 -111.3 L-203.4 -111.6 L-202.4 -111.9 L-201.5 -112.1 L-200.5 -112.2 L-199.5 -112.2 Z " />
<path stroke="rgb(0,0,0)" stroke-opacity="1" fill="rgb(255,255,255)" fill-opacity="1" d="M-775.8 -779.5 L-776.8 -779.3 L-777.7 -779.2 L-778.7 -779 L-779.7 -778.9 L-780.6 -778.7 L-781.6 -778.6 L-782.6 -778.4 L-783.5 -778.3 L-784.5 -778.2 L-785.5 -778 L-786.5 -777.9 L-787.4 -777.7 L-788.4 -777.6 L-789.4 -777.4 L-790.3 -777.3 L-791.3 -777.1 L-792.3 -777 L-793.2 -776.8 L-794.2 -776.7 L-795.2 -776.5 L-796.1 -776.4 L-797.1 -776.2 L-798.1 -776.1 L-799 -775.9 L-800 -775.8 L-800.1 -776.7 L-800.3 -777.7 L-800.4 -778.7 L-800.6 -779.6 L-800.7 -780.6 L-800.9 -781.6 L-801 -782.5 L-801.2 -783.5 L-801.3 -784.5 L-801.5 -785.4 L-801.6 -786.4 L-801.8 -787.4 L-801.9 -788.3 L-802.1 -789.3 L-802.2 -790.3 L-802.4 -791.3 L-802.5 -792.2 L-802.7 -793.2 L-802.8 -794.2 L-803 -795.1 L-803.1 -796.1 L-803.3 -797.1 L-803.4 -798 L-803.6 -799 L-803.7 -800 L-802.7 -800.1 L-801.8 -800.3 L-800.8 -800.4 L-799.8 -800.6 L-798.9 -800.7 L-797.9 -800.9 L-796.9 -801 L-796 -801.1 L-795 -801.3 L-794 -801.4 L-793.1 -801.6 L-792.1 -801.7 L-791.1 -801.9 L-790.2 -802 L-789.2 -802.2 L-788.2 -802.3 L-787.3 -802.5 L-786.3 -802.6 L-785.3 -802.8 L-784.4 -802.9 L-783.4 -803.1 L-782.4 -803.2 L-781.5 -803.4 L-780.5 -803.5 L-779.5 -803.7 L-779.4 -802.7 L-779.2 -801.7 L-779.1 -800.8 L-778.9 -799.8 L-778.8 -798.8 L-778.6 -797.9 L-778.5 -796.9 L-778.3 -795.9 L-778.2 -795 L-778 -794 L-777.9 -793 L-777.7 -792.1 L-777.6 -791.1 L-777.4 -790.1 L-777.3 -789.2 L-777.1 -788.2 L-777 -787.2 L-776.9 -786.3 L-776.7 -785.3 L-776.6 -784.3 L-776.4 -783.4 L-776.3 -782.4 L-776.1 -781.4 L-776 -780.5 L-775.8 -779.5 Z " />
<path stroke="rgb(0,0,0)" stroke-opacity="1" fill="rgb(255,255,255)" fill-opacity="1" d="M0.491 -112.2 L1.471 -112.1 L2.443 -112 L3.402 -111.8 L4.342 -111.5 L5.256 -111.2 L6.138 -110.7 L6.984 -110.2 L7.788 -109.7 L8.544 -109 L9.248 -108.4 L9.896 -107.6 L10.48 -106.8 L11.01 -106 L11.46 -105.1 L11.85 -104.2 L12.16 -103.3 L12.4 -102.3 L12.56 -101.4 L12.64 -100.4 L12.64 -99.42 L12.57 -98.44 L12.42 -97.47 L12.19 -96.52 L11.89 -95.58 L11.52 -94.68 L11.07 -93.8 L10.56 -92.97 L9.977 -92.17 L9.337 -91.43 L8.64 -90.74 L7.89 -90.11 L7.093 -89.54 L6.252 -89.03 L5.374 -88.59 L4.464 -88.22 L3.527 -87.93 L2.57 -87.71 L1.599 -87.57 L0.6202 -87.51 L-0.3609 -87.52 L-1.338 -87.62 L-2.304 -87.79 L-3.254 -88.03 L-4.182 -88.35 L-5.081 -88.74 L-5.946 -89.21 L-6.771 -89.74 L-7.552 -90.33 L-8.283 -90.99 L-8.959 -91.7 L-9.577 -92.46 L-10.13 -93.27 L-10.62 -94.12 L-11.04 -95.01 L-11.39 -95.92 L-11.67 -96.87 L-11.86 -97.83 L-11.99 -98.8 L-12.03 -99.78 L-12 -100.8 L-11.88 -101.7 L-11.7 -102.7 L-11.43 -103.6 L-11.09 -104.6 L-10.68 -105.5 L-10.2 -106.3 L-9.654 -107.1 L-9.044 -107.9 L-8.375 -108.6 L-7.651 -109.3 L-6.877 -109.9 L-6.057 -110.4 L-5.197 -110.9 L-4.302 -111.3 L-3.378 -111.6 L-2.431 -111.9 L-1.466 -112.1 L-0.49 -112.2 L0.491 -112.2 Z " />
<path stroke="rgb(0,0,0)" stroke-opacity="1" fill="rgb(255,255,255)" fill-opacity="1" d="M-558.1 -767.5 L-559 -767.1 L-559.9 -766.7 L-560.8 -766.4 L-561.7 -766 L-562.6 -765.6 L-563.5 -765.2 L-564.4 -764.8 L-565.3 -764.5 L-566.2 -764.1 L-567.1 -763.7 L-568 -763.3 L-568.9 -762.9 L-569.8 -762.6 L-570.7 -762.2 L-571.6 -761.8 L-572.5 -761.4 L-573.4 -761 L-574.3 -760.7 L-575.2 -760.3 L-576.1 -759.9 L-577 -759.5 L-577.9 -759.1 L-578.8 -758.8 L-579.7 -758.4 L-580.6 -758 L-581 -758.9 L-581.4 -759.8 L-581.8 -760.7 L-582.2 -761.6 L-582.5 -762.5 L-582.9 -763.4 L-583.3 -764.3 L-583.7 -765.2 L-584.1 -766.1 L-584.4 -767 L-584.8 -767.9 L-585.2 -768.8 L-585.6 -769.7 L-586 -770.6 L-586.3 -771.5 L-586.7 -772.4 L-587.1 -773.3 L-587.5 -774.2 L-587.9 -775.1 L-588.2 -776 L-588.6 -776.9 L-589 -777.8 L-589.4 -778.7 L-589.8 -779.6 L-590.1 -780.5 L-589.2 -780.9 L-588.3 -781.3 L-587.4 -781.7 L-586.5 -782.1 L-585.6 -782.4 L-584.7 -782.8 L-583.8 -783.2 L-582.9 -783.6 L-582 -784 L-581.1 -784.3 L-580.2 -784.7 L-579.3 -785.1 L-578.4 -785.5 L-577.5 -785.9 L-576.6 -786.2 L-575.7 -786.6 L-574.8 -787 L-573.9 -787.4 L-573 -787.8 L-572.1 -788.1 L-571.2 -788.5 L-570.3 -788.9 L-569.4 -789.3 L-568.5 -789.7 L-567.6 -790 L-567.2 -789.1 L-566.8 -788.2 L-566.4 -787.3 L-566.1 -786.4 L-565.7 -785.5 L-565.3 -784.6 L-564.9 -783.7 L-564.5 -782.8 L-564.2 -781.9 L-563.8 -781 L-563.4 -780.1 L-563 -779.2 L-562.6 -778.3 L-562.3 -777.4 L-561.9 -776.5 L-561.5 -775.6 L-561.1 -774.7 L-560.7 -773.8 L-560.4 -772.9 L-560 -772 L-559.6 -771.1 L-559.2 -770.2 L-558.8 -769.3 L-558.5 -768.4 L-558.1 -767.5 Z " />
<path stroke="rgb(0,0,0)" stroke-opacity="1" fill="rgb(255,255,255)" fill-opacity="1" d="M200.5 -112.2 L201.5 -112.1 L202.4 -112 L203.4 -111.8 L204.3 -111.5 L205.3 -111.2 L206.1 -110.7 L207 -110.2 L207.8 -109.7 L208.5 -109 L209.2 -108.4 L209.9 -107.6 L210.5 -106.8 L211 -106 L211.5 -105.1 L211.8 -104.2 L212.2 -103.3 L212.4 -102.3 L212.6 -101.4 L212.6 -100.4 L212.6 -99.42 L212.6 -98.44 L212.4 -97.47 L212.2 -96.52 L211.9 -95.58 L211.5 -94.68 L211.1 -93.8 L210.6 -92.97 L210 -92.17 L209.3 -91.43 L208.6 -90.74 L207.9 -90.11 L207.1 -89.54 L206.3 -89.03 L205.4 -88.59 L204.5 -88.22 L203.5 -87.93 L202.6 -87.71 L201.6 -87.57 L200.6 -87.51 L199.6 -87.52 L198.7 -87.62 L197.7 -87.79 L196.7 -88.03 L195.8 -88.35 L194.9 -88.74 L194.1 -89.21 L193.2 -89.74 L192.4 -90.33 L191.7 -90.99 L191 -91.7 L190.4 -92.46 L189.9 -93.27 L189.4 -94.12 L189 -95.01 L188.6 -95.92 L188.3 -96.87 L188.1 -97.83 L188 -98.8 L188 -99.78 L188 -100.8 L188.1 -101.7 L188.3 -102.7 L188.6 -103.6 L188.9 -104.6 L189.3 -105.5 L189.8 -106.3 L190.3 -107.1 L191 -107.9 L191.6 -108.6 L192.3 -109.3 L193.1 -109.9 L193.9 -110.4 L194.8 -110.9 L195.7 -111.3 L196.6 -111.6 L197.6 -111.9 L198.5 -112.1 L199.5 -112.2 L200.5 -112.2 Z " />
<path stroke="rgb(0,0,0)" stroke-opacity="1" fill="rgb(255,255,255)" fill-opacity="1" d="M-330.5 -748.1 L-331.2 -747.4 L-331.9 -746.7 L-332.5 -746 L-333.2 -745.3 L-333.9 -744.5 L-334.6 -743.8 L-335.2 -743.1 L-335.9 -742.4 L-336.6 -741.7 L-337.3 -741 L-337.9 -740.3 L-338.6 -739.6 L-339.3 -738.9 L-339.9 -738.2 L-340.6 -737.4 L-341.3 -736.7 L-342 -736 L-342.6 -735.3 L-343.3 -734.6 L-344 -733.9 L-344.7 -733.2 L-345.3 -732.5 L-346 -731.8 L-346.7 -731 L-347.4 -730.3 L-348.1 -731 L-348.8 -731.7 L-349.5 -732.4 L-350.2 -733 L-350.9 -733.7 L-351.6 -734.4 L-352.3 -735.1 L-353 -735.7 L-353.8 -736.4 L-354.5 -737.1 L-355.2 -737.8 L-355.9 -738.4 L-356.6 -739.1 L-357.3 -739.8 L-358 -740.4 L-358.7 -741.1 L-359.4 -741.8 L-360.2 -742.5 L-360.9 -743.1 L-361.6 -743.8 L-362.3 -744.5 L-363 -745.2 L-363.7 -745.8 L-364.4 -746.5 L-365.1 -747.2 L-364.5 -747.9 L-363.8 -748.6 L-363.1 -749.3 L-362.4 -750 L-361.8 -750.7 L-361.1 -751.4 L-360.4 -752.2 L-359.7 -752.9 L-359.1 -753.6 L-358.4 -754.3 L-357.7 -755 L-357 -755.7 L-356.4 -756.4 L-355.7 -757.1 L-355 -757.8 L-354.3 -758.6 L-353.7 -759.3 L-353 -760 L-352.3 -760.7 L-351.6 -761.4 L-351 -762.1 L-350.3 -762.8 L-349.6 -763.5 L-349 -764.2 L-348.3 -764.9 L-347.6 -764.3 L-346.9 -763.6 L-346.1 -762.9 L-345.4 -762.3 L-344.7 -761.6 L-344 -760.9 L-343.3 -760.2 L-342.6 -759.6 L-341.9 -758.9 L-341.2 -758.2 L-340.5 -757.5 L-339.8 -756.9 L-339 -756.2 L-338.3 -755.5 L-337.6 -754.8 L-336.9 -754.2 L-336.2 -753.5 L-335.5 -752.8 L-334.8 -752.1 L-334.1 -751.5 L-333.4 -750.8 L-332.6 -750.1 L-331.9 -749.5 L-331.2 -748.8 L-330.5 -748.1 Z " />
<path stroke="rgb(0,0,0)" stroke-opacity="1" fill="rgb(255,255,255)" fill-opacity="1" d="M-299.5 -12.19 L-298.5 -12.13 L-297.6 -12 L-296.6 -11.79 L-295.7 -11.51 L-294.7 -11.15 L-293.9 -10.72 L-293 -10.23 L-292.2 -9.663 L-291.5 -9.038 L-290.8 -8.355 L-290.1 -7.618 L-289.5 -6.832 L-289 -6.001 L-288.5 -5.132 L-288.2 -4.229 L-287.8 -3.299 L-287.6 -2.347 L-287.4 -1.379 L-287.4 -0.401 L-287.4 0.5803 L-287.4 1.559 L-287.6 2.528 L-287.8 3.483 L-288.1 4.417 L-288.5 5.323 L-288.9 6.197 L-289.4 7.033 L-290 7.826 L-290.7 8.569 L-291.4 9.26 L-292.1 9.893 L-292.9 10.46 L-293.7 10.97 L-294.6 11.41 L-295.5 11.78 L-296.5 12.07 L-297.4 12.29 L-298.4 12.43 L-299.4 12.49 L-300.4 12.48 L-301.3 12.38 L-302.3 12.21 L-303.3 11.97 L-304.2 11.65 L-305.1 11.26 L-305.9 10.79 L-306.8 10.26 L-307.6 9.667 L-308.3 9.012 L-309 8.301 L-309.6 7.539 L-310.1 6.73 L-310.6 5.88 L-311 4.993 L-311.4 4.076 L-311.7 3.134 L-311.9 2.173 L-312 1.199 L-312 0.2189 L-312 -0.7618 L-311.9 -1.737 L-311.7 -2.7 L-311.4 -3.644 L-311.1 -4.565 L-310.7 -5.456 L-310.2 -6.312 L-309.7 -7.127 L-309 -7.895 L-308.4 -8.613 L-307.7 -9.275 L-306.9 -9.878 L-306.1 -10.42 L-305.2 -10.89 L-304.3 -11.29 L-303.4 -11.62 L-302.4 -11.88 L-301.5 -12.06 L-300.5 -12.16 L-299.5 -12.19 Z " />
<path stroke="rgb(0,0,0)" stroke-opacity="1" fill="rgb(255,255,255)" fill-opacity="1" d="M-875.8 -679.5 L-876.8 -679.3 L-877.7 -679.2 L-878.7 -679 L-879.7 -678.9 L-880.6 -678.7 L-881.6 -678.6 L-882.6 -678.4 L-883.5 -678.3 L-884.5 -678.2 L-885.5 -678 L-886.5 -677.9 L-887.4 -677.7 L-888.4 -677.6 L-889.4 -677.4 L-890.3 -677.3 L-891.3 -677.1 L-892.3 -677 L-893.2 -676.8 L-894.2 -676.7 L-895.2 -676.5 L-896.1 -676.4 L-897.1 -676.2 L-898.1 -676.1 L-899 -675.9 L-900 -675.8 L-900.1 -676.7 L-900.3 -677.7 L-900.4 -678.7 L-900.6 -679.6 L-900.7 -680.6 L-900.9 -681.6 L-901 -682.5 L-901.2 -683.5 L-901.3 -684.5 L-901.5 -685.4 L-901.6 -686.4 L-901.8 -687.4 L-901.9 -688.3 L-902.1 -689.3 L-902.2 -690.3 L-902.4 -691.3 L-902.5 -692.2 L-902.7 -693.2 L-902.8 -694.2 L-903 -695.1 L-903.1 -696.1 L-903.3 -697.1 L-903.4 -698 L-903.6 -699 L-903.7 -700 L-902.7 -700.1 L-901.8 -700.3 L-900.8 -700.4 L-899.8 -700.6 L-898.9 -700.7 L-897.9 -700.9 L-896.9 -701 L-896 -701.1 L-895 -701.3 L-894 -701.4 L-893.1 -701.6 L-892.1 -701.7 L-891.1 -701.9 L-890.2 -702 L-889.2 -702.2 L-888.2 -702.3 L-887.3 -702.5 L-886.3 -702.6 L-885.3 -702.8 L-884.4 -702.9 L-883.4 -703.1 L-882.4 -703.2 L-881.5 -703.4 L-880.5 -703.5 L-879.5 -703.7 L-879.4 -702.7 L-879.2 -701.7 L-879.1 -700.8 L-878.9 -699.8 L-878.8 -698.8 L-878.6 -697.9 L-878.5 -696.9 L-878.3 -695.9 L-878.2 -695 L-878 -694 L-877.9 -693 L-877.7 -692.1 L-877.6 -691.1 L-877.4 -690.1 L-877.3 -689.2 L-877.1 -688.2 L-877 -687.2 L-876.9 -686.3 L-876.7 -685.3 L-876.6 -684.3 L-876.4 -683.4 L-876.3 -682.4 L-876.1 -681.4 L-876 -680.5 L-875.8 -679.5 Z " />
<path stroke="rgb(0,0,0)" stroke-opacity="1" fill="rgb(255,255,255)" fill-opacity="1" d="M-99.51 -12.19 L-98.53 -12.13 L-97.56 -12 L-96.6 -11.79 L-95.66 -11.51 L-94.74 -11.15 L-93.86 -10.72 L-93.02 -10.23 L-92.21 -9.663 L-91.46 -9.038 L-90.75 -8.355 L-90.1 -7.618 L-89.52 -6.832 L-88.99 -6.001 L-88.54 -5.132 L-88.15 -4.229 L-87.84 -3.299 L-87.6 -2.347 L-87.44 -1.379 L-87.36 -0.401 L-87.36 0.5803 L-87.43 1.559 L-87.58 2.528 L-87.81 3.483 L-88.11 4.417 L-88.48 5.323 L-88.93 6.197 L-89.44 7.033 L-90.02 7.826 L-90.66 8.569 L-91.36 9.26 L-92.11 9.893 L-92.91 10.46 L-93.75 10.97 L-94.63 11.41 L-95.54 11.78 L-96.47 12.07 L-97.43 12.29 L-98.4 12.43 L-99.38 12.49 L-100.4 12.48 L-101.3 12.38 L-102.3 12.21 L-103.3 11.97 L-104.2 11.65 L-105.1 11.26 L-105.9 10.79 L-106.8 10.26 L-107.6 9.667 L-108.3 9.012 L-109 8.301 L-109.6 7.539 L-110.1 6.73 L-110.6 5.88 L-111 4.993 L-111.4 4.076 L-111.7 3.134 L-111.9 2.173 L-112 1.199 L-112 0.2189 L-112 -0.7618 L-111.9 -1.737 L-111.7 -2.7 L-111.4 -3.644 L-111.1 -4.565 L-110.7 -5.456 L-110.2 -6.312 L-109.7 -7.127 L-109 -7.895 L-108.4 -8.613 L-107.7 -9.275 L-106.9 -9.878 L-106.1 -10.42 L-105.2 -10.89 L-104.3 -11.29 L-103.4 -11.62 L-102.4 -11.88 L-101.5 -12.06 L-100.5 -12.16 L-99.51 -12.19 Z " />
<path stroke="rgb(0,0,0)" stroke-opacity="1" fill="rgb(255,255,255)" fill-opacity="1" d="M-658.1 -667.5 L-659 -667.1 L-659.9 -666.7 L-660.8 -666.4 L-661.7 -666 L-662.6 -665.6 L-663.5 -665.2 L-664.4 -664.8 L-665.3 -664.5 L-666.2 -664.1 L-667.1 -663.7 L-668 -663.3 L-668.9 -662.9 L-669.8 -662.6 L-670.7 -662.2 L-671.6 -661.8 L-672.5 -661.4 L-673.4 -661 L-674.3 -660.7 L-675.2 -660.3 L-676.1 -659.9 L-677 -659.5 L-677.9 -659.1 L-678.8 -658.8 L-679.7 -658.4 L-680.6 -658 L-681 -658.9 L-681.4 -659.8 L-681.8 -660.7 L-682.2 -661.6 L-682.5 -662.5 L-682.9 -663.4 L-683.3 -664.3 L-683.7 -665.2 L-684.1 -666.1 L-684.4 -667 L-684.8 -667.9 L-685.2 -668.8 L-685.6 -669.7 L-686 -670.6 L-686.3 -671.5 L-686.7 -672.4 L-687.1 -673.3 L-687.5 -674.2 L-687.9 -675.1 L-688.2 -676 L-688.6 -676.9 L-689 -677.8 L-689.4 -678.7 L-689.8 -679.6 L-690.1 -680.5 L-689.2 -680.9 L-688.3 -681.3 L-687.4 -681.7 L-686.5 -682.1 L-685.6 -682.4 L-684.7 -682.8 L-683.8 -683.2 L-682.9 -683.6 L-682 -684 L-681.1 -684.3 L-680.2 -684.7 L-679.3 -685.1 L-678.4 -685.5 L-677.5 -685.9 L-676.6 -686.2 L-675.7 -686.6 L-674.8 -687 L-673.9 -687.4 L-673 -687.8 L-672.1 -688.1 L-671.2 -688.5 L-670.3 -688.9 L-669.4 -689.3 L-668.5 -689.7 L-667.6 -690 L-667.2 -689.1 L-666.8 -688.2 L-666.4 -687.3 L-666.1 -686.4 L-665.7 -685.5 L-665.3 -684.6 L-664.9 -683.7 L-664.5 -682.8 L-664.2 -681.9 L-663.8 -681 L-663.4 -680.1 L-663 -679.2 L-662.6 -678.3 L-662.3 -677.4 L-661.9 -676.5 L-661.5 -675.6 L-661.1 -674.7 L-660.7 -673.8 L-660.4 -672.9 L-660 -672 L-659.6 -671.1 L-659.2 -670.2 L-658.8 -669.3 L-658.5 -668.4 L-658.1 -667.5 Z " />
<path stroke="rgb(0,0,0)" stroke-opacity="1" fill="rgb(255,255,255)" fill-opacity="1" d="M100.5 -12.19 L101.5 -12.13 L102.4 -12 L103.4 -11.79 L104.3 -11.51 L105.3 -11.15 L106.1 -10.72 L107 -10.23 L107.8 -9.663 L108.5 -9.038 L109.2 -8.355 L109.9 -7.618 L110.5 -6.832 L111 -6.001 L111.5 -5.132 L111.8 -4.229 L112.2 -3.299 L112.4 -2.347 L112.6 -1.379 L112.6 -0.401 L112.6 0.5803 L112.6 1.559 L112.4 2.528 L112.2 3.483 L111.9 4.417 L111.5 5.323 L111.1 6.197 L110.6 7.033 L110 7.826 L109.3 8.569 L108.6 9.26 L107.9 9.893 L107.1 10.46 L106.3 10.97 L105.4 11.41 L104.5 11.78 L103.5 12.07 L102.6 12.29 L101.6 12.43 L100.6 12.49 L99.64 12.48 L98.66 12.38 L97.7 12.21 L96.75 11.97 L95.82 11.65 L94.92 11.26 L94.05 10.79 L93.23 10.26 L92.45 9.667 L91.72 9.012 L91.04 8.301 L90.42 7.539 L89.87 6.73 L89.38 5.88 L88.96 4.993 L88.61 4.076 L88.33 3.134 L88.14 2.173 L88.01 1.199 L87.97 0.2189 L88 -0.7618 L88.12 -1.737 L88.3 -2.7 L88.57 -3.644 L88.91 -4.565 L89.32 -5.456 L89.8 -6.312 L90.35 -7.127 L90.96 -7.895 L91.63 -8.613 L92.35 -9.275 L93.12 -9.878 L93.94 -10.42 L94.8 -10.89 L95.7 -11.29 L96.62 -11.62 L97.57 -11.88 L98.53 -12.06 L99.51 -12.16 L100.5 -12.19 Z " />
<path stroke="rgb(0,0,0)" stroke-opacity="1" fill="rgb(255,255,255)" fill-opacity="1" d="M-430.5 -648.1 L-431.2 -647.4 L-431.9 -646.7 L-432.5 -646 L-433.2 -645.3 L-433.9 -644.5 L-434.6 -643.8 L-435.2 -643.1 L-435.9 -642.4 L-436.6 -641.7 L-437.3 -641 L-437.9 -640.3 L-438.6 -639.6 L-439.3 -638.9 L-439.9 -638.2 L-440.6 -637.4 L-441.3 -636.7 L-442 -636 L-442.6 -635.3 L-443.3 -634.6 L-444 -633.9 L-444.7 -633.2 L-445.3 -632.5 L-446 -631.8 L-446.7 -631 L-447.4 -630.3 L-448.1 -631 L-448.8 -631.7 L-449.5 -632.4 L-450.2 -633 L-450.9 -633.7 L-451.6 -634.4 L-452.3 -635.1 L-453 -635.7 L-453.8 -636.4 L-454.5 -637.1 L-455.2 -637.8 L-455.9 -638.4 L-456.6 -639.1 L-457.3 -639.8 L-458 -640.4 L-458.7 -641.1 L-459.4 -641.8 L-460.2 -642.5 L-460.9 -643.1 L-461.6 -643.8 L-462.3 -644.5 L-463 -645.2 L-463.7 -645.8 L-464.4 -646.5 L-465.1 -647.2 L-464.5 -647.9 L-463.8 -648.6 L-463.1 -649.3 L-462.4 -650 L-461.8 -650.7 L-461.1 -651.4 L-460.4 -652.2 L-459.7 -652.9 L-459.1 -653.6 L-458.4 -654.3 L-457.7 -655 L-457 -655.7 L-456.4 -656.4 L-455.7 -657.1 L-455 -657.8 L-454.3 -658.6 L-453.7 -659.3 L-453 -660 L-452.3 -660.7 L-451.6 -661.4 L-451 -662.1 L-450.3 -662.8 L-449.6 -663.5 L-449 -664.2 L-448.3 -664.9 L-447.6 -664.3 L-446.9 -663.6 L-446.1 -662.9 L-445.4 -662.3 L-444.7 -661.6 L-444 -660.9 L-443.3 -660.2 L-442.6 -659.6 L-441.9 -658.9 L-441.2 -658.2 L-440.5 -657.5 L-439.8 -656.9 L-439 -656.2 L-438.3 -655.5 L-437.6 -654.8 L-436.9 -654.2 L-436.2 -653.5 L-435.5 -652.8 L-434.8 -652.1 L-434.1 -651.5 L-433.4 -650.8 L-432.6 -650.1 L-431.9 -649.5 L-431.2 -648.8 L-430.5 -648.1 Z " />
<path stroke="rgb(0,0,0)" stroke-opacity="1" fill="rgb(255,255,255)" fill-opacity="1" d="M300.5 -12.19 L301.5 -12.13 L302.4 -12 L303.4 -11.79 L304.3 -11.51 L305.3 -11.15 L306.1 -10.72 L307 -10.23 L307.8 -9.663 L308.5 -9.038 L309.2 -8.355 L309.9 -7.618 L310.5 -6.832 L311 -6.001 L311.5 -5.132 L311.8 -4.229 L312.2 -3.299 L312.4 -2.347 L312.6 -1.379 L312.6 -0.401 L312.6 0.5803 L312.6 1.559 L312.4 2.528 L312.2 3.483 L311.9 4.417 L311.5 5.323 L311.1 6.197 L310.6 7.033 L310 7.826 L309.3 8.569 L308.6 9.26 L307.9 9.893 L307.1 10.46 L306.3 10.97 L305.4 11.41 L304.5 11.78 L303.5 12.07 L302.6 12.29 L301.6 12.43 L300.6 12.49 L299.6 12.48 L298.7 12.38 L297.7 12.21 L296.7 11.97 L295.8 11.65 L294.9 11.26 L294.1 10.79 L293.2 10.26 L292.4 9.667 L291.7 9.012 L291 8.301 L290.4 7.539 L289.9 6.73 L289.4 5.88 L289 4.993 L288.6 4.076 L288.3 3.134 L288.1 2.173 L288 1.199 L288 0.2189 L288 -0.7618 L288.1 -1.737 L288.3 -2.7 L288.6 -3.644 L288.9 -4.565 L289.3 -5.456 L289.8 -6.312 L290.3 -7.127 L291 -7.895 L291.6 -8.613 L292.3 -9.275 L293.1 -9.878 L293.9 -10.42 L294.8 -10.89 L295.7 -11.29 L296.6 -11.62 L297.6 -11.88 L298.5 -12.06 L299.5 -12.16 L300.5 -12.19 Z " />
<path stroke="rgb(0,0,0)" stroke-opacity="1" fill="rgb(255,255,255)" fill-opacity="1" d="M-975.8 -579.5 L-976.8 -579.3 L-977.7 -579.2 L-978.7 -579 L-979.7 -578.9 L-980.6 -578.7 L-981.6 -578.6 L-982.6 -578.4 L-983.5 -578.3 L-984.5 -578.2 L-985.5 -578 L-986.5 -577.9 L-987.4 -577.7 L-988.4 -577.6 L-989.4 -577.4 L-990.3 -577.3 L-991.3 -577.1 L-992.3 -577 L-993.2 -576.8 L-994.2 -576.7 L-995.2 -576.5 L-996.1 -576.4 L-997.1 -576.2 L-998.1 -576.1 L-999 -575.9 L-1000 -575.8 L-1000 -576.7 L-1000 -577.7 L-1000 -578.7 L-1001 -579.6 L-1001 -580.6 L-1001 -581.6 L-1001 -582.5 L-1001 -583.5 L-1001 -584.5 L-1001 -585.4 L-1002 -586.4 L-1002 -587.4 L-1002 -588.3 L-1002 -589.3 L-1002 -590.3 L-1002 -591.3 L-1003 -592.2 L-1003 -593.2 L-1003 -594.2 L-1003 -595.1 L-1003 -596.1 L-1003 -597.1 L-1003 -598 L-1004 -599 L-1004 -600 L-1003 -600.1 L-1002 -600.3 L-1001 -600.4 L-999.8 -600.6 L-998.9 -600.7 L-997.9 -600.9 L-996.9 -601 L-996 -601.1 L-995 -601.3 L-994 -601.4 L-993.1 -601.6 L-992.1 -601.7 L-991.1 -601.9 L-990.2 -602 L-989.2 -602.2 L-988.2 -602.3 L-987.3 -602.5 L-986.3 -602.6 L-985.3 -602.8 L-984.4 -602.9 L-983.4 -603.1 L-982.4 -603.2 L-981.5 -603.4 L-980.5 -603.5 L-979.5 -603.7 L-979.4 -602.7 L-979.2 -601.7 L-979.1 -600.8 L-978.9 -599.8 L-978.8 -598.8 L-978.6 -597.9 L-978.5 -596.9 L-978.3 -595.9 L-978.2 -595 L-978 -594 L-977.9 -593 L-977.7 -592.1 L-977.6 -591.1 L-977.4 -590.1 L-977.3 -589.2 L-977.1 -588.2 L-977 -587.2 L-976.9 -586.3 L-976.7 -585.3 L-976.6 -584.3 L-976.4 -583.4 L-976.3 -582.4 L-976.1 -581.4 L-976 -580.5 L-975.8 -579.5 Z " />
<path stroke="rgb(0,0,0)" stroke-opacity="1" fill="rgb(255,255,255)" fill-opacity="1" d="M-199.5 87.81 L-198.5 87.87 L-197.6 88 L-196.6 88.21 L-195.7 88.49 L-194.7 88.85 L-193.9 89.28 L-193 89.77 L-192.2 90.34 L-191.5 90.96 L-190.8 91.65 L-190.1 92.38 L-189.5 93.17 L-189 94 L-188.5 94.87 L-188.2 95.77 L-187.8 96.7 L-187.6 97.65 L-187.4 98.62 L-187.4 99.6 L-187.4 100.6 L-187.4 101.6 L-187.6 102.5 L-187.8 103.5 L-188.1 104.4 L-188.5 105.3 L-188.9 106.2 L-189.4 107 L-190 107.8 L-190.7 108.6 L-191.4 109.3 L-192.1 109.9 L-192.9 110.5 L-193.7 111 L-194.6 111.4 L-195.5 111.8 L-196.5 112.1 L-197.4 112.3 L-198.4 112.4 L-199.4 112.5 L-200.4 112.5 L-201.3 112.4 L-202.3 112.2 L-203.3 112 L-204.2 111.6 L-205.1 111.3 L-205.9 110.8 L-206.8 110.3 L-207.6 109.7 L-208.3 109 L-209 108.3 L-209.6 107.5 L-210.1 106.7 L-210.6 105.9 L-211 105 L-211.4 104.1 L-211.7 103.1 L-211.9 102.2 L-212 101.2 L-212 100.2 L-212 99.24 L-211.9 98.26 L-211.7 97.3 L-211.4 96.36 L-211.1 95.43 L-210.7 94.54 L-210.2 93.69 L-209.7 92.87 L-209 92.1 L-208.4 91.39 L-207.7 90.72 L-206.9 90.12 L-206.1 89.58 L-205.2 89.11 L-204.3 88.71 L-203.4 88.38 L-202.4 88.12 L-201.5 87.94 L-200.5 87.84 L-199.5 87.81 Z " />
<path stroke="rgb(0,0,0)" stroke-opacity="1" fill="rgb(255,255,255)" fill-opacity="1" d="M-758.1 -567.5 L-759 -567.1 L-759.9 -566.7 L-760.8 -566.4 L-761.7 -566 L-762.6 -565.6 L-763.5 -565.2 L-764.4 -564.8 L-765.3 -564.5 L-766.2 -564.1 L-767.1 -563.7 L-768 -563.3 L-768.9 -562.9 L-769.8 -562.6 L-770.7 -562.2 L-771.6 -561.8 L-772.5 -561.4 L-773.4 -561 L-774.3 -560.7 L-775.2 -560.3 L-776.1 -559.9 L-777 -559.5 L-777.9 -559.1 L-778.8 -558.8 L-779.7 -558.4 L-780.6 -558 L-781 -558.9 L-781.4 -559.8 L-781.8 -560.7 L-782.2 -561.6 L-782.5 -562.5 L-782.9 -563.4 L-783.3 -564.3 L-783.7 -565.2 L-784.1 -566.1 L-784.4 -567 L-784.8 -567.9 L-785.2 -568.8 L-785.6 -569.7 L-786 -570.6 L-786.3 -571.5 L-786.7 -572.4 L-787.1 -573.3 L-787.5 -574.2 L-787.9 -575.1 L-788.2 -576 L-788.6 -576.9 L-789 -577.8 L-789.4 -578.7 L-789.8 -579.6 L-790.1 -580.5 L-789.2 -580.9 L-788.3 -581.3 L-787.4 -581.7 L-786.5 -582.1 L-785.6 -582.4 L-784.7 -582.8 L-783.8 -583.2 L-782.9 -583.6 L-782 -584 L-781.1 -584.3 L-780.2 -584.7 L-779.3 -585.1 L-778.4 -585.5 L-777.5 -585.9 L-776.6 -586.2 L-775.7 -586.6 L-774.8 -587 L-773.9 -587.4 L-773 -587.8 L-772.1 -588.1 L-771.2 -588.5 L-770.3 -588.9 L-769.4 -589.3 L-768.5 -589.7 L-767.6 -590 L-767.2 -589.1 L-766.8 -588.2 L-766.4 -587.3 L-766.1 -586.4 L-765.7 -585.5 L-765.3 -584.6 L-764.9 -583.7 L-764.5 -582.8 L-764.2 -581.9 L-763.8 -581 L-763.4 -580.1 L-763 -579.2 L-762.6 -578.3 L-762.3 -577.4 L-761.9 -576.5 L-761.5 -575.6 L-761.1 -574.7 L-760.7 -573.8 L-760.4 -572.9 L-760 -572 L-759.6 -571.1 L-759.2 -570.2 L-758.8 -569.3 L-758.5 -568.4 L-758.1 -567.5 Z " />
<path stroke="rgb(0,0,0)" stroke-opacity="1" fill="rgb(255,255,255)" fill-opacity="1" d="M0.491 87.81 L1.471 87.87 L2.443 88 L3.402 88.21 L4.342 88.49 L5.256 88.85 L6.138 89.28 L6.984 89.77 L7.788 90.34 L8.544 90.96 L9.248 91.65 L9.896 92.38 L10.48 93.17 L11.01 94 L11.46 94.87 L11.85 95.77 L12.16 96.7 L12.4 97.65 L12.56 98.62 L12.64 99.6 L12.64 100.6 L12.57 101.6 L12.42 102.5 L12.19 103.5 L11.89 104.4 L11.52 105.3 L11.07 106.2 L10.56 107 L9.977 107.8 L9.337 108.6 L8.64 109.3 L7.89 109.9 L7.093 110.5 L6.252 111 L5.374 111.4 L4.464 111.8 L3.527 112.1 L2.57 112.3 L1.599 112.4 L0.6202 112.5 L-0.3609 112.5 L-1.338 112.4 L-2.304 112.2 L-3.254 112 L-4.182 111.6 L-5.081 111.3 L-5.946 110.8 L-6.771 110.3 L-7.552 109.7 L-8.283 109 L-8.959 108.3 L-9.577 107.5 L-10.13 106.7 L-10.62 105.9 L-11.04 105 L-11.39 104.1 L-11.67 103.1 L-11.86 102.2 L-11.99 101.2 L-12.03 100.2 L-12 99.24 L-11.88 98.26 L-11.7 97.3 L-11.43 96.36 L-11.09 95.43 L-10.68 94.54 L-10.2 93.69 L-9.654 92.87 L-9.044 92.1 L-8.375 91.39 L-7.651 90.72 L-6.877 90.12 L-6.057 89.58 L-5.197 89.11 L-4.302 88.71 L-3.378 88.38 L-2.431 88.12 L-1.466 87.94 L-0.49 87.84 L0.491 87.81 Z " />
<path stroke="rgb(0,0,0)" stroke-opacity="1" fill="rgb(255,255,255)" fill-opacity="1" d="M-530.5 -548.1 L-531.2 -547.4 L-531.9 -546.7 L-532.5 -546 L-533.2 -545.3 L-533.9 -544.5 L-534.6 -543.8 L-535.2 -543.1 L-535.9 -542.4 L-536.6 -541.7 L-537.3 -541 L-537.9 -540.3 L-538.6 -539.6 L-539.3 -538.9 L-539.9 -538.2 L-540.6 -537.4 L-541.3 -536.7 L-542 -536 L-542.6 -535.3 L-543.3 -534.6 L-544 -533.9 L-544.7 -533.2 L-545.3 -532.5 L-546 -531.8 L-546.7 -531 L-547.4 -530.3 L-548.1 -531 L-548.8 -531.7 L-549.5 -532.4 L-550.2 -533 L-550.9 -533.7 L-551.6 -534.4 L-552.3 -535.1 L-553 -535.7 L-553.8 -536.4 L-554.5 -537.1 L-555.2 -537.8 L-555.9 -538.4 L-556.6 -539.1 L-557.3 -539.8 L-558 -540.4 L-558.7 -541.1 L-559.4 -541.8 L-560.2 -542.5 L-560.9 -543.1 L-561.6 -543.8 L-562.3 -544.5 L-563 -545.2 L-563.7 -545.8 L-564.4 -546.5 L-565.1 -547.2 L-564.5 -547.9 L-563.8 -548.6 L-563.1 -549.3 L-562.4 -550 L-561.8 -550.7 L-561.1 -551.4 L-560.4 -552.2 L-559.7 -552.9 L-559.1 -553.6 L-558.4 -554.3 L-557.7 -555 L-557 -555.7 L-556.4 -556.4 L-555.7 -557.1 L-555 -557.8 L-554.3 -558.6 L-553.7 -559.3 L-553 -560 L-552.3 -560.7 L-551.6 -561.4 L-551 -562.1 L-550.3 -562.8 L-549.6 -563.5 L-549 -564.2 L-548.3 -564.9 L-547.6 -564.3 L-546.9 -563.6 L-546.1 -562.9 L-545.4 -562.3 L-544.7 -561.6 L-544 -560.9 L-543.3 -560.2 L-542.6 -559.6 L-541.9 -558.9 L-541.2 -558.2 L-540.5 -557.5 L-539.8 -556.9 L-539 -556.2 L-538.3 -555.5 L-537.6 -554.8 L-536.9 -554.2 L-536.2 -553.5 L-535.5 -552.8 L-534.8 -552.1 L-534.1 -551.5 L-533.4 -550.8 L-532.6 -550.1 L-531.9 -549.5 L-531.2 -548.8 L-530.5 -548.1 Z " />
<path stroke="rgb(0,0,0)" stroke-opacity="1" fill="rgb(255,255,255)" fill-opacity="1" d="M200.5 87.81 L201.5 87.87 L202.4 88 L203.4 88.21 L204.3 88.49 L205.3 88.85 L206.1 89.28 L207 89.77 L207.8 90.34 L208.5 90.96 L209.2 91.65 L209.9 92.38 L210.5 93.17 L211 94 L211.5 94.87 L211.8 95.77 L212.2 96.7 L212.4 97.65 L212.6 98.62 L212.6 99.6 L212.6 100.6 L212.6 101.6 L212.4 102.5 L212.2 103.5 L211.9 104.4 L211.5 105.3 L211.1 106.2 L210.6 107 L210 107.8 L209.3 108.6 L208.6 109.3 L207.9 109.9 L207.1 110.5 L206.3 111 L205.4 111.4 L204.5 111.8 L203.5 112.1 L202.6 112.3 L201.6 112.4 L200.6 112.5 L199.6 112.5 L198.7 112.4 L197.7 112.2 L196.7 112 L195.8 111.6 L194.9 111.3 L194.1 110.8 L193.2 110.3 L192.4 109.7 L191.7 109 L191 108.3 L190.4 107.5 L189.9 106.7 L189.4 105.9 L189 105 L188.6 104.1 L188.3 103.1 L188.1 102.2 L188 101.2 L188 100.2 L188 99.24 L188.1 98.26 L188.3 97.3 L188.6 96.36 L188.9 95.43 L189.3 94.54 L189.8 93.69 L190.3 92.87 L191 92.1 L191.6 91.39 L192.3 90.72 L193.1 90.12 L193.9 89.58 L194.8 89.11 L195.7 88.71 L196.6 88.38 L197.6 88.12 L198.5 87.94 L199.5 87.84 L200.5 87.81 Z " />
<path stroke="rgb(0,0,0)" stroke-opacity="1" fill="rgb(255,255,255)" fill-opacity="1" d="M-307.5 -530.1 L-307.9 -529.2 L-308.2 -528.2 L-308.6 -527.3 L-308.9 -526.4 L-309.3 -525.5 L-309.7 -524.6 L-310 -523.7 L-310.4 -522.8 L-310.7 -521.9 L-311.1 -521 L-311.5 -520 L-311.8 -519.1 L-312.2 -518.2 L-312.5 -517.3 L-312.9 -516.4 L-313.3 -515.5 L-313.6 -514.6 L-314 -513.7 L-314.3 -512.8 L-314.7 -511.8 L-315.1 -510.9 L-315.4 -510 L-315.8 -509.1 L-316.1 -508.2 L-316.5 -507.3 L-317.4 -507.6 L-318.3 -508 L-319.2 -508.4 L-320.1 -508.7 L-321 -509.1 L-322 -509.4 L-322.9 -509.8 L-323.8 -510.2 L-324.7 -510.5 L-325.6 -510.9 L-326.5 -511.2 L-327.4 -511.6 L-328.3 -512 L-329.2 -512.3 L-330.2 -512.7 L-331.1 -513 L-332 -513.4 L-332.9 -513.7 L-333.8 -514.1 L-334.7 -514.5 L-335.6 -514.8 L-336.5 -515.2 L-337.4 -515.5 L-338.4 -515.9 L-339.3 -516.3 L-338.9 -517.2 L-338.6 -518.1 L-338.2 -519 L-337.8 -519.9 L-337.5 -520.8 L-337.1 -521.7 L-336.8 -522.6 L-336.4 -523.6 L-336 -524.5 L-335.7 -525.4 L-335.3 -526.3 L-335 -527.2 L-334.6 -528.1 L-334.2 -529 L-333.9 -529.9 L-333.5 -530.8 L-333.2 -531.8 L-332.8 -532.7 L-332.4 -533.6 L-332.1 -534.5 L-331.7 -535.4 L-331.4 -536.3 L-331 -537.2 L-330.7 -538.1 L-330.3 -539 L-329.4 -538.7 L-328.5 -538.3 L-327.6 -538 L-326.6 -537.6 L-325.7 -537.3 L-324.8 -536.9 L-323.9 -536.5 L-323 -536.2 L-322.1 -535.8 L-321.2 -535.5 L-320.3 -535.1 L-319.4 -534.7 L-318.4 -534.4 L-317.5 -534 L-316.6 -533.7 L-315.7 -533.3 L-314.8 -532.9 L-313.9 -532.6 L-313 -532.2 L-312.1 -531.9 L-311.2 -531.5 L-310.2 -531.1 L-309.3 -530.8 L-308.4 -530.4 L-307.5 -530.1 Z " />
<path stroke="rgb(0,0,0)" stroke-opacity="1" fill="rgb(255,255,255)" fill-opacity="1" d="M-299.5 187.8 L-298.5 187.9 L-297.6 188 L-296.6 188.2 L-295.7 188.5 L-294.7 188.8 L-293.9 189.3 L-293 189.8 L-292.2 190.3 L-291.5 191 L-290.8 191.6 L-290.1 192.4 L-289.5 193.2 L-289 194 L-288.5 194.9 L-288.2 195.8 L-287.8 196.7 L-287.6 197.7 L-287.4 198.6 L-287.4 199.6 L-287.4 200.6 L-287.4 201.6 L-287.6 202.5 L-287.8 203.5 L-288.1 204.4 L-288.5 205.3 L-288.9 206.2 L-289.4 207 L-290 207.8 L-290.7 208.6 L-291.4 209.3 L-292.1 209.9 L-292.9 210.5 L-293.7 211 L-294.6 211.4 L-295.5 211.8 L-296.5 212.1 L-297.4 212.3 L-298.4 212.4 L-299.4 212.5 L-300.4 212.5 L-301.3 212.4 L-302.3 212.2 L-303.3 212 L-304.2 211.6 L-305.1 211.3 L-305.9 210.8 L-306.8 210.3 L-307.6 209.7 L-308.3 209 L-309 208.3 L-309.6 207.5 L-310.1 206.7 L-310.6 205.9 L-311 205 L-311.4 204.1 L-311.7 203.1 L-311.9 202.2 L-312 201.2 L-312 200.2 L-312 199.2 L-311.9 198.3 L-311.7 197.3 L-311.4 196.4 L-311.1 195.4 L-310.7 194.5 L-310.2 193.7 L-309.7 192.9 L-309 192.1 L-308.4 191.4 L-307.7 190.7 L-306.9 190.1 L-306.1 189.6 L-305.2 189.1 L-304.3 188.7 L-303.4 188.4 L-302.4 188.1 L-301.5 187.9 L-300.5 187.8 L-299.5 187.8 Z " />
<path stroke="rgb(0,0,0)" stroke-opacity="1" fill="rgb(255,255,255)" fill-opacity="1" d="M-858.1 -467.5 L-859 -467.1 L-859.9 -466.7 L-860.8 -466.4 L-861.7 -466 L-862.6 -465.6 L-863.5 -465.2 L-864.4 -464.8 L-865.3 -464.5 L-866.2 -464.1 L-867.1 -463.7 L-868 -463.3 L-868.9 -462.9 L-869.8 -462.6 L-870.7 -462.2 L-871.6 -461.8 L-872.5 -461.4 L-873.4 -461 L-874.3 -460.7 L-875.2 -460.3 L-876.1 -459.9 L-877 -459.5 L-877.9 -459.1 L-878.8 -458.8 L-879.7 -458.4 L-880.6 -458 L-881 -458.9 L-881.4 -459.8 L-881.8 -460.7 L-882.2 -461.6 L-882.5 -462.5 L-882.9 -463.4 L-883.3 -464.3 L-883.7 -465.2 L-884.1 -466.1 L-884.4 -467 L-884.8 -467.9 L-885.2 -468.8 L-885.6 -469.7 L-886 -470.6 L-886.3 -471.5 L-886.7 -472.4 L-887.1 -473.3 L-887.5 -474.2 L-887.9 -475.1 L-888.2 -476 L-888.6 -476.9 L-889 -477.8 L-889.4 -478.7 L-889.8 -479.6 L-890.1 -480.5 L-889.2 -480.9 L-888.3 -481.3 L-887.4 -481.7 L-886.5 -482.1 L-885.6 -482.4 L-884.7 -482.8 L-883.8 -483.2 L-882.9 -483.6 L-882 -484 L-881.1 -484.3 L-880.2 -484.7 L-879.3 -485.1 L-878.4 -485.5 L-877.5 -485.9 L-876.6 -486.2 L-875.7 -486.6 L-874.8 -487 L-873.9 -487.4 L-873 -487.8 L-872.1 -488.1 L-871.2 -488.5 L-870.3 -488.9 L-869.4 -489.3 L-868.5 -489.7 L-867.6 -490 L-867.2 -489.1 L-866.8 -488.2 L-866.4 -487.3 L-866.1 -486.4 L-865.7 -485.5 L-865.3 -484.6 L-864.9 -483.7 L-864.5 -482.8 L-864.2 -481.9 L-863.8 -481 L-863.4 -480.1 L-863 -479.2 L-862.6 -478.3 L-862.3 -477.4 L-861.9 -476.5 L-861.5 -475.6 L-861.1 -474.7 L-860.7 -473.8 L-860.4 -472.9 L-860 -472 L-859.6 -471.1 L-859.2 -470.2 L-858.8 -469.3 L-858.5 -468.4 L-858.1 -467.5 Z " />
<path stroke="rgb(0,0,0)" stroke-opacity="1" fill="rgb(255,255,255)" fill-opacity="1" d="M-99.51 187.8 L-98.53 187.9 L-97.56 188 L-96.6 188.2 L-95.66 188.5 L-94.74 188.8 L-93.86 189.3 L-93.02 189.8 L-92.21 190.3 L-91.46 191 L-90.75 191.6 L-90.1 192.4 L-89.52 193.2 L-88.99 194 L-88.54 194.9 L-88.15 195.8 L-87.84 196.7 L-87.6 197.7 L-87.44 198.6 L-87.36 199.6 L-87.36 200.6 L-87.43 201.6 L-87.58 202.5 L-87.81 203.5 L-88.11 204.4 L-88.48 205.3 L-88.93 206.2 L-89.44 207 L-90.02 207.8 L-90.66 208.6 L-91.36 209.3 L-92.11 209.9 L-92.91 210.5 L-93.75 211 L-94.63 211.4 L-95.54 211.8 L-96.47 212.1 L-97.43 212.3 L-98.4 212.4 L-99.38 212.5 L-100.4 212.5 L-101.3 212.4 L-102.3 212.2 L-103.3 212 L-104.2 211.6 L-105.1 211.3 L-105.9 210.8 L-106.8 210.3 L-107.6 209.7 L-108.3 209 L-109 208.3 L-109.6 207.5 L-110.1 206.7 L-110.6 205.9 L-111 205 L-111.4 204.1 L-111.7 203.1 L-111.9 202.2 L-112 201.2 L-112 200.2 L-112 199.2 L-111.9 198.3 L-111.7 197.3 L-111.4 196.4 L-111.1 195.4 L-110.7 194.5 L-110.2 193.7 L-109.7 192.9 L-109 192.1 L-108.4 191.4 L-107.7 190.7 L-106.9 190.1 L-106.1 189.6 L-105.2 189.1 L-104.3 188.7 L-103.4 188.4 L-102.4 188.1 L-101.5 187.9 L-100.5 187.8 L-99.51 187.8 Z " />
<path stroke="rgb(0,0,0)" stroke-opacity="1" fill="rgb(255,255,255)" fill-opacity="1" d="M-630.5 -448.1 L-631.2 -447.4 L-631.9 -446.7 L-632.5 -446 L-633.2 -445.3 L-633.9 -444.5 L-634.6 -443.8 L-635.2 -443.1 L-635.9 -442.4 L-636.6 -441.7 L-637.3 -441 L-637.9 -440.3 L-638.6 -439.6 L-639.3 -438.9 L-639.9 -438.2 L-640.6 -437.4 L-641.3 -436.7 L-642 -436 L-642.6 -435.3 L-643.3 -434.6 L-644 -433.9 L-644.7 -433.2 L-645.3 -432.5 L-646 -431.8 L-646.7 -431 L-647.4 -430.3 L-648.1 -431 L-648.8 -431.7 L-649.5 -432.4 L-650.2 -433 L-650.9 -433.7 L-651.6 -434.4 L-652.3 -435.1 L-653 -435.7 L-653.8 -436.4 L-654.5 -437.1 L-655.2 -437.8 L-655.9 -438.4 L-656.6 -439.1 L-657.3 -439.8 L-658 -440.4 L-658.7 -441.1 L-659.4 -441.8 L-660.2 -442.5 L-660.9 -443.1 L-661.6 -443.8 L-662.3 -444.5 L-663 -445.2 L-663.7 -445.8 L-664.4 -446.5 L-665.1 -447.2 L-664.5 -447.9 L-663.8 -448.6 L-663.1 -449.3 L-662.4 -450 L-661.8 -450.7 L-661.1 -451.4 L-660.4 -452.2 L-659.7 -452.9 L-659.1 -453.6 L-658.4 -454.3 L-657.7 -455 L-657 -455.7 L-656.4 -456.4 L-655.7 -457.1 L-655 -457.8 L-654.3 -458.6 L-653.7 -459.3 L-653 -460 L-652.3 -460.7 L-651.6 -461.4 L-651 -462.1 L-650.3 -462.8 L-649.6 -463.5 L-649 -464.2 L-648.3 -464.9 L-647.6 -464.3 L-646.9 -463.6 L-646.1 -462.9 L-645.4 -462.3 L-644.7 -461.6 L-644 -460.9 L-643.3 -460.2 L-642.6 -459.6 L-641.9 -458.9 L-641.2 -458.2 L-640.5 -457.5 L-639.8 -456.9 L-639 -456.2 L-638.3 -455.5 L-637.6 -454.8 L-636.9 -454.2 L-636.2 -453.5 L-635.5 -452.8 L-634.8 -452.1 L-634.1 -451.5 L-633.4 -450.8 L-632.6 -450.1 L-631.9 -449.5 L-631.2 -448.8 L-630.5 -448.1 Z " />
<path stroke="rgb(0,0,0)" stroke-opacity="1" fill="rgb(255,255,255)" fill-opacity="1" d="M100.5 187.8 L101.5 187.9 L102.4 188 L103.4 188.2 L104.3 188.5 L105.3 188.8 L106.1 189.3 L107 189.8 L107.8 190.3 L108.5 191 L109.2 191.6 L109.9 192.4 L110.5 193.2 L111 194 L111.5 194.9 L111.8 195.8 L112.2 196.7 L112.4 197.7 L112.6 198.6 L112.6 199.6 L112.6 200.6 L112.6 201.6 L112.4 202.5 L112.2 203.5 L111.9 204.4 L111.5 205.3 L111.1 206.2 L110.6 207 L110 207.8 L109.3 208.6 L108.6 209.3 L107.9 209.9 L107.1 210.5 L106.3 211 L105.4 211.4 L104.5 211.8 L103.5 212.1 L102.6 212.3 L101.6 212.4 L100.6 212.5 L99.64 212.5 L98.66 212.4 L97.7 212.2 L96.75 212 L95.82 211.6 L94.92 211.3 L94.05 210.8 L93.23 210.3 L92.45 209.7 L91.72 209 L91.04 208.3 L90.42 207.5 L89.87 206.7 L89.38 205.9 L88.96 205 L88.61 204.1 L88.33 203.1 L88.14 202.2 L88.01 201.2 L87.97 200.2 L88 199.2 L88.12 198.3 L88.3 197.3 L88.57 196.4 L88.91 195.4 L89.32 194.5 L89.8 193.7 L90.35 192.9 L90.96 192.1 L91.63 191.4 L92.35 190.7 L93.12 190.1 L93.94 189.6 L94.8 189.1 L95.7 188.7 L96.62 188.4 L97.57 188.1 L98.53 187.9 L99.51 187.8 L100.5 187.8 Z " />
<path stroke="rgb(0,0,0)" stroke-opacity="1" fill="rgb(255,255,255)" fill-opacity="1" d="M-407.5 -430.1 L-407.9 -429.2 L-408.2 -428.2 L-408.6 -427.3 L-408.9 -426.4 L-409.3 -425.5 L-409.7 -424.6 L-410 -423.7 L-410.4 -422.8 L-410.7 -421.9 L-411.1 -421 L-411.5 -420 L-411.8 -419.1 L-412.2 -418.2 L-412.5 -417.3 L-412.9 -416.4 L-413.3 -415.5 L-413.6 -414.6 L-414 -413.7 L-414.3 -412.8 L-414.7 -411.8 L-415.1 -410.9 L-415.4 -410 L-415.8 -409.1 L-416.1 -408.2 L-416.5 -407.3 L-417.4 -407.6 L-418.3 -408 L-419.2 -408.4 L-420.1 -408.7 L-421 -409.1 L-422 -409.4 L-422.9 -409.8 L-423.8 -410.2 L-424.7 -410.5 L-425.6 -410.9 L-426.5 -411.2 L-427.4 -411.6 L-428.3 -412 L-429.2 -412.3 L-430.2 -412.7 L-431.1 -413 L-432 -413.4 L-432.9 -413.7 L-433.8 -414.1 L-434.7 -414.5 L-435.6 -414.8 L-436.5 -415.2 L-437.4 -415.5 L-438.4 -415.9 L-439.3 -416.3 L-438.9 -417.2 L-438.6 -418.1 L-438.2 -419 L-437.8 -419.9 L-437.5 -420.8 L-437.1 -421.7 L-436.8 -422.6 L-436.4 -423.6 L-436 -424.5 L-435.7 -425.4 L-435.3 -426.3 L-435 -427.2 L-434.6 -428.1 L-434.2 -429 L-433.9 -429.9 L-433.5 -430.8 L-433.2 -431.8 L-432.8 -432.7 L-432.4 -433.6 L-432.1 -434.5 L-431.7 -435.4 L-431.4 -436.3 L-431 -437.2 L-430.7 -438.1 L-430.3 -439 L-429.4 -438.7 L-428.5 -438.3 L-427.6 -438 L-426.6 -437.6 L-425.7 -437.3 L-424.8 -436.9 L-423.9 -436.5 L-423 -436.2 L-422.1 -435.8 L-421.2 -435.5 L-420.3 -435.1 L-419.4 -434.7 L-418.4 -434.4 L-417.5 -434 L-416.6 -433.7 L-415.7 -433.3 L-414.8 -432.9 L-413.9 -432.6 L-413 -432.2 L-412.1 -431.9 L-411.2 -431.5 L-410.2 -431.1 L-409.3 -430.8 L-408.4 -430.4 L-407.5 -430.1 Z " />
<path stroke="rgb(0,0,0)" stroke-opacity="1" fill="rgb(255,255,255)" fill-opacity="1" d="M300.5 187.8 L301.5 187.9 L302.4 188 L303.4 188.2 L304.3 188.5 L305.3 188.8 L306.1 189.3 L307 189.8 L307.8 190.3 L308.5 191 L309.2 191.6 L309.9 192.4 L310.5 193.2 L311 194 L311.5 194.9 L311.8 195.8 L312.2 196.7 L312.4 197.7 L312.6 198.6 L312.6 199.6 L312.6 200.6 L312.6 201.6 L312.4 202.5 L312.2 203.5 L311.9 204.4 L311.5 205.3 L311.1 206.2 L310.6 207 L310 207.8 L309.3 208.6 L308.6 209.3 L307.9 209.9 L307.1 210.5 L306.3 211 L305.4 211.4 L304.5 211.8 L303.5 212.1 L302.6 212.3 L301.6 212.4 L300.6 212.5 L299.6 212.5 L298.7 212.4 L297.7 212.2 L296.7 212 L295.8 211.6 L294.9 211.3 L294.1 210.8 L293.2 210.3 L292.4 209.7 L291.7 209 L291 208.3 L290.4 207.5 L289.9 206.7 L289.4 205.9 L289 205 L288.6 204.1 L288.3 203.1 L288.1 202.2 L288 201.2 L288 200.2 L288 199.2 L288.1 198.3 L288.3 197.3 L288.6 196.4 L288.9 195.4 L289.3 194.5 L289.8 193.7 L290.3 192.9 L291 192.1 L291.6 191.4 L292.3 190.7 L293.1 190.1 L293.9 189.6 L294.8 189.1 L295.7 188.7 L296.6 188.4 L297.6 188.1 L298.5 187.9 L299.5 187.8 L300.5 187.8 Z " />
<path stroke="rgb(0,0,0)" stroke-opacity="1" fill="rgb(255,255,255)" fill-opacity="1" d="M-958.1 -367.5 L-959 -367.1 L-959.9 -366.7 L-960.8 -366.4 L-961.7 -366 L-962.6 -365.6 L-963.5 -365.2 L-964.4 -364.8 L-965.3 -364.5 L-966.2 -364.1 L-967.1 -363.7 L-968 -363.3 L-968.9 -362.9 L-969.8 -362.6 L-970.7 -362.2 L-971.6 -361.8 L-972.5 -361.4 L-973.4 -361 L-974.3 -360.7 L-975.2 -360.3 L-976.1 -359.9 L-977 -359.5 L-977.9 -359.1 L-978.8 -358.8 L-979.7 -358.4 L-980.6 -358 L-981 -358.9 L-981.4 -359.8 L-981.8 -360.7 L-982.2 -361.6 L-982.5 -362.5 L-982.9 -363.4 L-983.3 -364.3 L-983.7 -365.2 L-984.1 -366.1 L-984.4 -367 L-984.8 -367.9 L-985.2 -368.8 L-985.6 -369.7 L-986 -370.6 L-986.3 -371.5 L-986.7 -372.4 L-987.1 -373.3 L-987.5 -374.2 L-987.9 -375.1 L-988.2 -376 L-988.6 -376.9 L-989 -377.8 L-989.4 -378.7 L-989.8 -379.6 L-990.1 -380.5 L-989.2 -380.9 L-988.3 -381.3 L-987.4 -381.7 L-986.5 -382.1 L-985.6 -382.4 L-984.7 -382.8 L-983.8 -383.2 L-982.9 -383.6 L-982 -384 L-981.1 -384.3 L-980.2 -384.7 L-979.3 -385.1 L-978.4 -385.5 L-977.5 -385.9 L-976.6 -386.2 L-975.7 -386.6 L-974.8 -387 L-973.9 -387.4 L-973 -387.8 L-972.1 -388.1 L-971.2 -388.5 L-970.3 -388.9 L-969.4 -389.3 L-968.5 -389.7 L-967.6 -390 L-967.2 -389.1 L-966.8 -388.2 L-966.4 -387.3 L-966.1 -386.4 L-965.7 -385.5 L-965.3 -384.6 L-964.9 -383.7 L-964.5 -382.8 L-964.2 -381.9 L-963.8 -381 L-963.4 -380.1 L-963 -379.2 L-962.6 -378.3 L-962.3 -377.4 L-961.9 -376.5 L-961.5 -375.6 L-961.1 -374.7 L-960.7 -373.8 L-960.4 -372.9 L-960 -372 L-959.6 -371.1 L-959.2 -370.2 L-958.8 -369.3 L-958.5 -368.4 L-958.1 -367.5 Z " />
<path stroke="rgb(0,0,0)" stroke-opacity="1" fill="rgb(255,255,255)" fill-opacity="1" d="M-199.5 287.8 L-198.5 287.9 L-197.6 288 L-196.6 288.2 L-195.7 288.5 L-194.7 288.8 L-193.9 289.3 L-193 289.8 L-192.2 290.3 L-191.5 291 L-190.8 291.6 L-190.1 292.4 L-189.5 293.2 L-189 294 L-188.5 294.9 L-188.2 295.8 L-187.8 296.7 L-187.6 297.7 L-187.4 298.6 L-187.4 299.6 L-187.4 300.6 L-187.4 301.6 L-187.6 302.5 L-187.8 303.5 L-188.1 304.4 L-188.5 305.3 L-188.9 306.2 L-189.4 307 L-190 307.8 L-190.7 308.6 L-191.4 309.3 L-192.1 309.9 L-192.9 310.5 L-193.7 311 L-194.6 311.4 L-195.5 311.8 L-196.5 312.1 L-197.4 312.3 L-198.4 312.4 L-199.4 312.5 L-200.4 312.5 L-201.3 312.4 L-202.3 312.2 L-203.3 312 L-204.2 311.6 L-205.1 311.3 L-205.9 310.8 L-206.8 310.3 L-207.6 309.7 L-208.3 309 L-209 308.3 L-209.6 307.5 L-210.1 306.7 L-210.6 305.9 L-211 305 L-211.4 304.1 L-211.7 303.1 L-211.9 302.2 L-212 301.2 L-212 300.2 L-212 299.2 L-211.9 298.3 L-211.7 297.3 L-211.4 296.4 L-211.1 295.4 L-210.7 294.5 L-210.2 293.7 L-209.7 292.9 L-209 292.1 L-208.4 291.4 L-207.7 290.7 L-206.9 290.1 L-206.1 289.6 L-205.2 289.1 L-204.3 288.7 L-203.4 288.4 L-202.4 288.1 L-201.5 287.9 L-200.5 287.8 L-199.5 287.8 Z " />
<path stroke="rgb(0,0,0)" stroke-opacity="1" fill="rgb(255,255,255)" fill-opacity="1" d="M-730.5 -348.1 L-731.2 -347.4 L-731.9 -346.7 L-732.5 -346 L-733.2 -345.3 L-733.9 -344.5 L-734.6 -343.8 L-735.2 -343.1 L-735.9 -342.4 L-736.6 -341.7 L-737.3 -341 L-737.9 -340.3 L-738.6 -339.6 L-739.3 -338.9 L-739.9 -338.2 L-740.6 -337.4 L-741.3 -336.7 L-742 -336 L-742.6 -335.3 L-743.3 -334.6 L-744 -333.9 L-744.7 -333.2 L-745.3 -332.5 L-746 -331.8 L-746.7 -331 L-747.4 -330.3 L-748.1 -331 L-748.8 -331.7 L-749.5 -332.4 L-750.2 -333 L-750.9 -333.7 L-751.6 -334.4 L-752.3 -335.1 L-753 -335.7 L-753.8 -336.4 L-754.5 -337.1 L-755.2 -337.8 L-755.9 -338.4 L-756.6 -339.1 L-757.3 -339.8 L-758 -340.4 L-758.7 -341.1 L-759.4 -341.8 L-760.2 -342.5 L-760.9 -343.1 L-761.6 -343.8 L-762.3 -344.5 L-763 -345.2 L-763.7 -345.8 L-764.4 -346.5 L-765.1 -347.2 L-764.5 -347.9 L-763.8 -348.6 L-763.1 -349.3 L-762.4 -350 L-761.8 -350.7 L-761.1 -351.4 L-760.4 -352.2 L-759.7 -352.9 L-759.1 -353.6 L-758.4 -354.3 L-757.7 -355 L-757 -355.7 L-756.4 -356.4 L-755.7 -357.1 L-755 -357.8 L-754.3 -358.6 L-753.7 -359.3 L-753 -360 L-752.3 -360.7 L-751.6 -361.4 L-751 -362.1 L-750.3 -362.8 L-749.6 -363.5 L-749 -364.2 L-748.3 -364.9 L-747.6 -364.3 L-746.9 -363.6 L-746.1 -362.9 L-745.4 -362.3 L-744.7 -361.6 L-744 -360.9 L-743.3 -360.2 L-742.6 -359.6 L-741.9 -358.9 L-741.2 -358.2 L-740.5 -357.5 L-739.8 -356.9 L-739 -356.2 L-738.3 -355.5 L-737.6 -354.8 L-736.9 -354.2 L-736.2 -353.5 L-735.5 -352.8 L-734.8 -352.1 L-734.1 -351.5 L-733.4 -350.8 L-732.6 -350.1 L-731.9 -349.5 L-731.2 -348.8 L-730.5 -348.1 Z " />
<path stroke="rgb(0,0,0)" stroke-opacity="1" fill="rgb(255,255,255)" fill-opacity="1" d="M0.491 287.8 L1.471 287.9 L2.443 288 L3.402 288.2 L4.342 288.5 L5.256 288.8 L6.138 289.3 L6.984 289.8 L7.788 290.3 L8.544 291 L9.248 291.6 L9.896 292.4 L10.48 293.2 L11.01 294 L11.46 294.9 L11.85 295.8 L12.16 296.7 L12.4 297.7 L12.56 298.6 L12.64 299.6 L12.64 300.6 L12.57 301.6 L12.42 302.5 L12.19 303.5 L11.89 304.4 L11.52 305.3 L11.07 306.2 L10.56 307 L9.977 307.8 L9.337 308.6 L8.64 309.3 L7.89 309.9 L7.093 310.5 L6.252 311 L5.374 311.4 L4.464 311.8 L3.527 312.1 L2.57 312.3 L1.599 312.4 L0.6202 312.5 L-0.3609 312.5 L-1.338 312.4 L-2.304 312.2 L-3.254 312 L-4.182 311.6 L-5.081 311.3 L-5.946 310.8 L-6.771 310.3 L-7.552 309.7 L-8.283 309 L-8.959 308.3 L-9.577 307.5 L-10.13 306.7 L-10.62 305.9 L-11.04 305 L-11.39 304.1 L-11.67 303.1 L-11.86 302.2 L-11.99 301.2 L-12.03 300.2 L-12 299.2 L-11.88 298.3 L-11.7 297.3 L-11.43 296.4 L-11.09 295.4 L-10.68 294.5 L-10.2 293.7 L-9.654 292.9 L-9.044 292.1 L-8.375 291.4 L-7.651 290.7 L-6.877 290.1 L-6.057 289.6 L-5.197 289.1 L-4.302 288.7 L-3.378 288.4 L-2.431 288.1 L-1.466 287.9 L-0.49 287.8 L0.491 287.8 Z " />
<path stroke="rgb(0,0,0)" stroke-opacity="1" fill="rgb(255,255,255)" fill-opacity="1" d="M-507.5 -330.1 L-507.9 -329.2 L-508.2 -328.2 L-508.6 -327.3 L-508.9 -326.4 L-509.3 -325.5 L-509.7 -324.6 L-510 -323.7 L-510.4 -322.8 L-510.7 -321.9 L-511.1 -321 L-511.5 -320 L-511.8 -319.1 L-512.2 -318.2 L-512.5 -317.3 L-512.9 -316.4 L-513.3 -315.5 L-513.6 -314.6 L-514 -313.7 L-514.3 -312.8 L-514.7 -311.8 L-515.1 -310.9 L-515.4 -310 L-515.8 -309.1 L-516.1 -308.2 L-516.5 -307.3 L-517.4 -307.6 L-518.3 -308 L-519.2 -308.4 L-520.1 -308.7 L-521 -309.1 L-522 -309.4 L-522.9 -309.8 L-523.8 -310.2 L-524.7 -310.5 L-525.6 -310.9 L-526.5 -311.2 L-527.4 -311.6 L-528.3 -312 L-529.2 -312.3 L-530.2 -312.7 L-531.1 -313 L-532 -313.4 L-532.9 -313.7 L-533.8 -314.1 L-534.7 -314.5 L-535.6 -314.8 L-536.5 -315.2 L-537.4 -315.5 L-538.4 -315.9 L-539.3 -316.3 L-538.9 -317.2 L-538.6 -318.1 L-538.2 -319 L-537.8 -319.9 L-537.5 -320.8 L-537.1 -321.7 L-536.8 -322.6 L-536.4 -323.6 L-536 -324.5 L-535.7 -325.4 L-535.3 -326.3 L-535 -327.2 L-534.6 -328.1 L-534.2 -329 L-533.9 -329.9 L-533.5 -330.8 L-533.2 -331.8 L-532.8 -332.7 L-532.4 -333.6 L-532.1 -334.5 L-531.7 -335.4 L-531.4 -336.3 L-531 -337.2 L-530.7 -338.1 L-530.3 -339 L-529.4 -338.7 L-528.5 -338.3 L-527.6 -338 L-526.6 -337.6 L-525.7 -337.3 L-524.8 -336.9 L-523.9 -336.5 L-523 -336.2 L-522.1 -335.8 L-521.2 -335.5 L-520.3 -335.1 L-519.4 -334.7 L-518.4 -334.4 L-517.5 -334 L-516.6 -333.7 L-515.7 -333.3 L-514.8 -332.9 L-513.9 -332.6 L-513 -332.2 L-512.1 -331.9 L-511.2 -331.5 L-510.2 -331.1 L-509.3 -330.8 L-508.4 -330.4 L-507.5 -330.1 Z " />
<path stroke="rgb(0,0,0)" stroke-opacity="1" fill="rgb(255,255,255)" fill-opacity="1" d="M200.5 287.8 L201.5 287.9 L202.4 288 L203.4 288.2 L204.3 288.5 L205.3 288.8 L206.1 289.3 L207 289.8 L207.8 290.3 L208.5 291 L209.2 291.6 L209.9 292.4 L210.5 293.2 L211 294 L211.5 294.9 L211.8 295.8 L212.2 296.7 L212.4 297.7 L212.6 298.6 L212.6 299.6 L212.6 300.6 L212.6 301.6 L212.4 302.5 L212.2 303.5 L211.9 304.4 L211.5 305.3 L211.1 306.2 L210.6 307 L210 307.8 L209.3 308.6 L208.6 309.3 L207.9 309.9 L207.1 310.5 L206.3 311 L205.4 311.4 L204.5 311.8 L203.5 312.1 L202.6 312.3 L201.6 312.4 L200.6 312.5 L199.6 312.5 L198.7 312.4 L197.7 312.2 L196.7 312 L195.8 311.6 L194.9 311.3 L194.1 310.8 L193.2 310.3 L192.4 309.7 L191.7 309 L191 308.3 L190.4 307.5 L189.9 306.7 L189.4 305.9 L189 305 L188.6 304.1 L188.3 303.1 L188.1 302.2 L188 301.2 L188 300.2 L188 299.2 L188.1 298.3 L188.3 297.3 L188.6 296.4 L188.9 295.4 L189.3 294.5 L189.8 293.7 L190.3 292.9 L191 292.1 L191.6 291.4 L192.3 290.7 L193.1 290.1 L193.9 289.6 L194.8 289.1 L195.7 288.7 L196.6 288.4 L197.6 288.1 L198.5 287.9 L199.5 287.8 L200.5 287.8 Z " />
<path stroke="rgb(0,0,0)" stroke-opacity="1" fill="rgb(255,255,255)" fill-opacity="1" d="M-295.2 -319.2 L-295.4 -318.2 L-295.5 -317.3 L-295.7 -316.3 L-295.8 -315.3 L-296 -314.4 L-296.1 -313.4 L-296.3 -312.4 L-296.4 -311.5 L-296.6 -310.5 L-296.7 -309.5 L-296.9 -308.6 L-297 -307.6 L-297.2 -306.6 L-297.3 -305.7 L-297.5 -304.7 L-297.6 -303.7 L-297.8 -302.8 L-297.9 -301.8 L-298.1 -300.8 L-298.2 -299.9 L-298.4 -298.9 L-298.5 -297.9 L-298.7 -296.9 L-298.8 -296 L-299 -295 L-300 -295.2 L-300.9 -295.3 L-301.9 -295.5 L-302.9 -295.6 L-303.8 -295.8 L-304.8 -295.9 L-305.8 -296.1 L-306.7 -296.2 L-307.7 -296.4 L-308.7 -296.5 L-309.6 -296.7 L-310.6 -296.8 L-311.6 -297 L-312.5 -297.1 L-313.5 -297.3 L-314.5 -297.4 L-315.4 -297.5 L-316.4 -297.7 L-317.4 -297.8 L-318.3 -298 L-319.3 -298.1 L-320.3 -298.3 L-321.3 -298.4 L-322.2 -298.6 L-323.2 -298.7 L-323 -299.7 L-322.9 -300.7 L-322.7 -301.6 L-322.6 -302.6 L-322.4 -303.6 L-322.3 -304.6 L-322.1 -305.5 L-322 -306.5 L-321.8 -307.5 L-321.7 -308.4 L-321.5 -309.4 L-321.4 -310.4 L-321.2 -311.3 L-321.1 -312.3 L-320.9 -313.3 L-320.8 -314.2 L-320.7 -315.2 L-320.5 -316.2 L-320.4 -317.1 L-320.2 -318.1 L-320.1 -319.1 L-319.9 -320 L-319.8 -321 L-319.6 -322 L-319.5 -323 L-318.5 -322.8 L-317.5 -322.7 L-316.6 -322.5 L-315.6 -322.4 L-314.6 -322.2 L-313.6 -322.1 L-312.7 -321.9 L-311.7 -321.8 L-310.7 -321.6 L-309.8 -321.5 L-308.8 -321.3 L-307.8 -321.2 L-306.9 -321 L-305.9 -320.9 L-304.9 -320.7 L-304 -320.6 L-303 -320.4 L-302 -320.3 L-301.1 -320.1 L-300.1 -320 L-299.1 -319.8 L-298.2 -319.7 L-297.2 -319.5 L-296.2 -319.4 L-295.2 -319.2 Z " />
</g>
</g>
</svg>
