<!DOCTYPE svg>
<svg xmlns="http://www.w3.org/2000/svg" xmlns:xlink="http://www.w3.org/1999/xlink" width="1000" height="1000">
<g transform="translate(500.000000,500.000000)">
<g transform="scale(3.000000,3.000000)">
<path stroke="rgb(0,0,0)" stroke-opacity="1" fill="rgb(255,255,255)" fill-opacity="1" d="M-588.1 -587.9 L-589.1 -587.9 L-590.1 -587.9 L-591.1 -587.9 L-592 -587.9 L-593 -587.9 L-594 -587.9 L-595 -588 L-596 -588 L-597 -588 L-598 -588 L-599 -588 L-600 -588 L-601 -588 L-601.9 -588 L-602.9 -588 L-603.9 -588 L-604.9 -588 L-605.9 -588 L-606.9 -588 L-607.9 -588.1 L-608.9 -588.1 L-609.9 -588.1 L-610.8 -588.1 L-611.8 -588.1 L-612.8 -588.1 L-612.8 -589.1 L-612.8 -590.1 L-612.8 -591.1 L-612.8 -592.1 L-612.8 -593 L-612.8 -594 L-612.8 -595 L-612.8 -596 L-612.8 -597 L-612.7 -598 L-612.7 -599 L-612.7 -600 L-612.7 -601 L-612.7 -601.9 L-612.7 -602.9 L-612.7 -603.9 L-612.7 -604.9 L-612.7 -605.9 L-612.7 -606.9 L-612.7 -607.9 L-612.7 -608.9 L-612.7 -609.9 L-612.6 -610.8 L-612.6 -611.8 L-612.6 -612.8 L-611.6 -612.8 L-610.7 -612.8 L-609.7 -612.8 L-608.7 -612.8 L-607.7 -612.8 L-606.7 -612.8 L-605.7 -612.8 L-604.7 -612.8 L-603.7 -612.8 L-602.7 -612.8 L-601.8 -612.7 L-600.8 -612.7 L-599.8 -612.7 L-598.8 -612.7 L-597.8 -612.7 L-596.8 -612.7 L-595.8 -612.7 L-594.8 -612.7 L-593.8 -612.7 L-592.8 -612.7 L-591.9 -612.7 L-590.9 -612.7 L-589.9 -612.7 L-588.9 -612.6 L-587.9 -612.6 L-587.9 -611.6 L-587.9 -610.7 L-587.9 -609.7 L-587.9 -608.7 L-587.9 -607.7 L-587.9 -606.7 L-588 -605.7 L-588 -604.7 L-588 -603.7 L-588 -602.7 L-588 -601.8 L-588 -600.8 L-588 -599.8 L-588 -598.8 L-588 -597.8 L-588 -596.8 L-588 -595.8 L-588 -594.8 L-588 -593.8 L-588.1 -592.8 L-588.1 -591.9 L-588.1 -590.9 L-588.1 -589.9 L-588.1 -588.9 L-588.1 -587.9 Z " />
<path stroke="rgb(0,0,0)" stroke-opacity="0.892" fill="rgb(255,255,255)" fill-opacity="1" d="M-175.1 -299.8 L-175.2 -297.9 L-175.5 -295.9 L-175.9 -294 L-176.4 -292.1 L-177.2 -290.2 L-178 -288.4 L-179 -286.7 L-180.1 -285.1 L-181.4 -283.6 L-182.7 -282.1 L-184.2 -280.8 L-185.8 -279.6 L-187.4 -278.6 L-189.2 -277.6 L-191 -276.8 L-192.9 -276.2 L-194.8 -275.7 L-196.7 -275.4 L-198.7 -275.2 L-200.7 -275.2 L-202.6 -275.3 L-204.6 -275.6 L-206.5 -276 L-208.4 -276.6 L-210.2 -277.4 L-212 -278.2 L-213.7 -279.3 L-215.3 -280.4 L-216.8 -281.7 L-218.2 -283.1 L-219.5 -284.6 L-220.6 -286.2 L-221.7 -287.9 L-222.6 -289.6 L-223.3 -291.4 L-223.9 -293.3 L-224.4 -295.3 L-224.7 -297.2 L-224.8 -299.2 L-224.8 -301.2 L-224.7 -303.1 L-224.3 -305.1 L-223.8 -307 L-223.2 -308.9 L-222.4 -310.7 L-221.5 -312.4 L-220.5 -314.1 L-219.3 -315.7 L-218 -317.2 L-216.6 -318.5 L-215 -319.8 L-213.4 -320.9 L-211.7 -321.9 L-209.9 -322.8 L-208.1 -323.5 L-206.2 -324.1 L-204.3 -324.5 L-202.3 -324.7 L-200.3 -324.9 L-198.4 -324.8 L-196.4 -324.6 L-194.4 -324.2 L-192.5 -323.7 L-190.7 -323 L-188.9 -322.2 L-187.1 -321.3 L-185.5 -320.2 L-183.9 -319 L-182.5 -317.6 L-181.1 -316.2 L-179.9 -314.6 L-178.8 -313 L-177.8 -311.3 L-177 -309.5 L-176.3 -307.6 L-175.8 -305.7 L-175.4 -303.8 L-175.2 -301.8 L-175.1 -299.8 Z " />
<path stroke="rgb(0,0,0)" stroke-opacity="1" fill="rgb(255,255,255)" fill-opacity="1" d="M-388.1 -587.9 L-389.1 -587.9 L-390.1 -587.9 L-391.1 -587.9 L-392 -587.9 L-393 -587.9 L-394 -587.9 L-395 -588 L-396 -588 L-397 -588 L-398 -588 L-399 -588 L-400 -588 L-401 -588 L-401.9 -588 L-402.9 -588 L-403.9 -588 L-404.9 -588 L-405.9 -588 L-406.9 -588 L-407.9 -588.1 L-408.9 -588.1 L-409.9 -588.1 L-410.8 -588.1 L-411.8 -588.1 L-412.8 -588.1 L-412.8 -589.1 L-412.8 -590.1 L-412.8 -591.1 L-412.8 -592.1 L-412.8 -593 L-412.8 -594 L-412.8 -595 L-412.8 -596 L-412.8 -597 L-412.7 -598 L-412.7 -599 L-412.7 -600 L-412.7 -601 L-412.7 -601.9 L-412.7 -602.9 L-412.7 -603.9 L-412.7 -604.9 L-412.7 -605.9 L-412.7 -606.9 L-412.7 -607.9 L-412.7 -608.9 L-412.7 -609.9 L-412.6 -610.8 L-412.6 -611.8 L-412.6 -612.8 L-411.6 -612.8 L-410.7 -612.8 L-409.7 -612.8 L-408.7 -612.8 L-407.7 -612.8 L-406.7 -612.8 L-405.7 -612.8 L-404.7 -612.8 L-403.7 -612.8 L-402.7 -612.8 L-401.8 -612.7 L-400.8 -612.7 L-399.8 -612.7 L-398.8 -612.7 L-397.8 -612.7 L-396.8 -612.7 L-395.8 -612.7 L-394.8 -612.7 L-393.8 -612.7 L-392.8 -612.7 L-391.9 -612.7 L-390.9 -612.7 L-389.9 -612.7 L-388.9 -612.6 L-387.9 -612.6 L-387.9 -611.6 L-387.9 -610.7 L-387.9 -609.7 L-387.9 -608.7 L-387.9 -607.7 L-387.9 -606.7 L-388 -605.7 L-388 -604.7 L-388 -603.7 L-388 -602.7 L-388 -601.8 L-388 -600.8 L-388 -599.8 L-388 -598.8 L-388 -597.8 L-388 -596.8 L-388 -595.8 L-388 -594.8 L-388 -593.8 L-388.1 -592.8 L-388.1 -591.9 L-388.1 -590.9 L-388.1 -589.9 L-388.1 -588.9 L-388.1 -587.9 Z " />
<path stroke="rgb(0,0,0)" stroke-opacity="0.892" fill="rgb(255,255,255)" fill-opacity="1" d="M24.85 -299.8 L24.76 -297.9 L24.51 -295.9 L24.11 -294 L23.55 -292.1 L22.85 -290.2 L22 -288.4 L21.01 -286.7 L19.89 -285.1 L18.65 -283.6 L17.28 -282.1 L15.81 -280.8 L14.23 -279.6 L12.57 -278.6 L10.83 -277.6 L9.017 -276.8 L7.148 -276.2 L5.235 -275.7 L3.288 -275.4 L1.321 -275.2 L-0.6549 -275.2 L-2.627 -275.3 L-4.581 -275.6 L-6.507 -276 L-8.392 -276.6 L-10.22 -277.4 L-11.99 -278.2 L-13.68 -279.3 L-15.29 -280.4 L-16.8 -281.7 L-18.2 -283.1 L-19.48 -284.6 L-20.65 -286.2 L-21.68 -287.9 L-22.58 -289.6 L-23.33 -291.4 L-23.94 -293.3 L-24.39 -295.3 L-24.69 -297.2 L-24.83 -299.2 L-24.82 -301.2 L-24.65 -303.1 L-24.33 -305.1 L-23.85 -307 L-23.22 -308.9 L-22.44 -310.7 L-21.52 -312.4 L-20.47 -314.1 L-19.28 -315.7 L-17.97 -317.2 L-16.55 -318.5 L-15.03 -319.8 L-13.41 -320.9 L-11.71 -321.9 L-9.927 -322.8 L-8.085 -323.5 L-6.193 -324.1 L-4.261 -324.5 L-2.303 -324.7 L-0.3295 -324.9 L1.646 -324.8 L3.611 -324.6 L5.553 -324.2 L7.46 -323.7 L9.319 -323 L11.12 -322.2 L12.85 -321.3 L14.5 -320.2 L16.06 -319 L17.51 -317.6 L18.86 -316.2 L20.09 -314.6 L21.18 -313 L22.15 -311.3 L22.98 -309.5 L23.66 -307.6 L24.19 -305.7 L24.56 -303.8 L24.79 -301.8 L24.85 -299.8 Z " />
<path stroke="rgb(0,0,0)" stroke-opacity="1" fill="rgb(255,255,255)" fill-opacity="1" d="M-188.1 -587.8 L-189.1 -587.8 L-190.1 -587.8 L-191.1 -587.9 L-192.1 -587.9 L-193.1 -587.9 L-194.1 -587.9 L-195.1 -587.9 L-196.1 -587.9 L-197 -587.9 L-198 -587.9 L-199 -588 L-200 -588 L-201 -588 L-202 -588 L-203 -588 L-204 -588 L-205 -588 L-206 -588 L-207 -588.1 L-207.9 -588.1 L-208.9 -588.1 L-209.9 -588.1 L-210.9 -588.1 L-211.9 -588.1 L-212.9 -588.1 L-212.9 -589.1 L-212.9 -590.1 L-212.9 -591.1 L-212.9 -592.1 L-212.8 -593.1 L-212.8 -594.1 L-212.8 -595.1 L-212.8 -596.1 L-212.8 -597 L-212.8 -598 L-212.8 -599 L-212.8 -600 L-212.7 -601 L-212.7 -602 L-212.7 -603 L-212.7 -604 L-212.7 -605 L-212.7 -606 L-212.7 -607 L-212.7 -608 L-212.7 -608.9 L-212.6 -609.9 L-212.6 -610.9 L-212.6 -611.9 L-212.6 -612.9 L-211.6 -612.9 L-210.6 -612.9 L-209.6 -612.9 L-208.6 -612.9 L-207.6 -612.8 L-206.7 -612.8 L-205.7 -612.8 L-204.7 -612.8 L-203.7 -612.8 L-202.7 -612.8 L-201.7 -612.8 L-200.7 -612.8 L-199.7 -612.8 L-198.7 -612.7 L-197.7 -612.7 L-196.7 -612.7 L-195.7 -612.7 L-194.8 -612.7 L-193.8 -612.7 L-192.8 -612.7 L-191.8 -612.7 L-190.8 -612.6 L-189.8 -612.6 L-188.8 -612.6 L-187.8 -612.6 L-187.8 -611.6 L-187.8 -610.6 L-187.9 -609.6 L-187.9 -608.6 L-187.9 -607.6 L-187.9 -606.7 L-187.9 -605.7 L-187.9 -604.7 L-187.9 -603.7 L-187.9 -602.7 L-188 -601.7 L-188 -600.7 L-188 -599.7 L-188 -598.7 L-188 -597.7 L-188 -596.7 L-188 -595.8 L-188 -594.8 L-188 -593.8 L-188.1 -592.8 L-188.1 -591.8 L-188.1 -590.8 L-188.1 -589.8 L-188.1 -588.8 L-188.1 -587.8 Z " />
<path stroke="rgb(0,0,0)" stroke-opacity="0.892" fill="rgb(255,255,255)" fill-opacity="1" d="M224.9 -299.8 L224.8 -297.9 L224.5 -295.9 L224.1 -294 L223.6 -292.1 L222.8 -290.2 L222 -288.4 L221 -286.7 L219.9 -285.1 L218.6 -283.6 L217.3 -282.1 L215.8 -280.8 L214.2 -279.6 L212.6 -278.6 L210.8 -277.6 L209 -276.8 L207.1 -276.2 L205.2 -275.7 L203.3 -275.4 L201.3 -275.2 L199.3 -275.2 L197.4 -275.3 L195.4 -275.6 L193.5 -276 L191.6 -276.6 L189.8 -277.4 L188 -278.2 L186.3 -279.3 L184.7 -280.4 L183.2 -281.7 L181.8 -283.1 L180.5 -284.6 L179.4 -286.2 L178.3 -287.9 L177.4 -289.6 L176.7 -291.4 L176.1 -293.3 L175.6 -295.3 L175.3 -297.2 L175.2 -299.2 L175.2 -301.2 L175.3 -303.1 L175.7 -305.1 L176.2 -307 L176.8 -308.9 L177.6 -310.7 L178.5 -312.4 L179.5 -314.1 L180.7 -315.7 L182 -317.2 L183.4 -318.5 L185 -319.8 L186.6 -320.9 L188.3 -321.9 L190.1 -322.8 L191.9 -323.5 L193.8 -324.1 L195.7 -324.5 L197.7 -324.7 L199.7 -324.9 L201.6 -324.8 L203.6 -324.6 L205.6 -324.2 L207.5 -323.7 L209.3 -323 L211.1 -322.2 L212.9 -321.3 L214.5 -320.2 L216.1 -319 L217.5 -317.6 L218.9 -316.2 L220.1 -314.6 L221.2 -313 L222.2 -311.3 L223 -309.5 L223.7 -307.6 L224.2 -305.7 L224.6 -303.8 L224.8 -301.8 L224.9 -299.8 Z " />
<path stroke="rgb(0,0,0)" stroke-opacity="1" fill="rgb(255,255,255)" fill-opacity="1" d="M10.85 -585.7 L9.816 -585.8 L8.778 -585.9 L7.741 -586.1 L6.704 -586.2 L5.667 -586.4 L4.63 -586.5 L3.593 -586.6 L2.556 -586.8 L1.518 -586.9 L0.4812 -587.1 L-0.5559 -587.2 L-1.593 -587.4 L-2.63 -587.5 L-3.667 -587.6 L-4.705 -587.8 L-5.742 -587.9 L-6.779 -588.1 L-7.816 -588.2 L-8.853 -588.3 L-9.89 -588.5 L-10.93 -588.6 L-11.96 -588.8 L-13 -588.9 L-14.04 -589 L-15.08 -589.2 L-14.94 -590.2 L-14.79 -591.3 L-14.65 -592.3 L-14.51 -593.3 L-14.37 -594.4 L-14.23 -595.4 L-14.09 -596.4 L-13.95 -597.5 L-13.81 -598.5 L-13.67 -599.6 L-13.53 -600.6 L-13.39 -601.6 L-13.25 -602.7 L-13.11 -603.7 L-12.96 -604.7 L-12.82 -605.8 L-12.68 -606.8 L-12.54 -607.9 L-12.4 -608.9 L-12.26 -609.9 L-12.12 -611 L-11.98 -612 L-11.84 -613 L-11.7 -614.1 L-11.56 -615.1 L-10.52 -615 L-9.482 -614.8 L-8.445 -614.7 L-7.408 -614.5 L-6.371 -614.4 L-5.334 -614.3 L-4.297 -614.1 L-3.259 -614 L-2.222 -613.8 L-1.185 -613.7 L-0.148 -613.6 L0.8891 -613.4 L1.926 -613.3 L2.963 -613.1 L4.001 -613 L5.038 -612.9 L6.075 -612.7 L7.112 -612.6 L8.149 -612.4 L9.186 -612.3 L10.22 -612.2 L11.26 -612 L12.3 -611.9 L13.33 -611.7 L14.37 -611.6 L14.23 -610.6 L14.09 -609.5 L13.95 -608.5 L13.81 -607.4 L13.67 -606.4 L13.53 -605.4 L13.39 -604.3 L13.25 -603.3 L13.11 -602.3 L12.96 -601.2 L12.82 -600.2 L12.68 -599.1 L12.54 -598.1 L12.4 -597.1 L12.26 -596 L12.12 -595 L11.98 -594 L11.84 -592.9 L11.7 -591.9 L11.56 -590.8 L11.42 -589.8 L11.27 -588.8 L11.13 -587.7 L10.99 -586.7 L10.85 -585.7 Z " />
<path stroke="rgb(0,0,0)" stroke-opacity="0.892" fill="rgb(255,255,255)" fill-opacity="1" d="M-275.1 -199.8 L-275.2 -197.9 L-275.5 -195.9 L-275.9 -194 L-276.4 -192.1 L-277.2 -190.2 L-278 -188.4 L-279 -186.7 L-280.1 -185.1 L-281.4 -183.6 L-282.7 -182.1 L-284.2 -180.8 L-285.8 -179.6 L-287.4 -178.6 L-289.2 -177.6 L-291 -176.8 L-292.9 -176.2 L-294.8 -175.7 L-296.7 -175.4 L-298.7 -175.2 L-300.7 -175.2 L-302.6 -175.3 L-304.6 -175.6 L-306.5 -176 L-308.4 -176.6 L-310.2 -177.4 L-312 -178.2 L-313.7 -179.3 L-315.3 -180.4 L-316.8 -181.7 L-318.2 -183.1 L-319.5 -184.6 L-320.6 -186.2 L-321.7 -187.9 L-322.6 -189.6 L-323.3 -191.4 L-323.9 -193.3 L-324.4 -195.3 L-324.7 -197.2 L-324.8 -199.2 L-324.8 -201.2 L-324.7 -203.1 L-324.3 -205.1 L-323.8 -207 L-323.2 -208.9 L-322.4 -210.7 L-321.5 -212.4 L-320.5 -214.1 L-319.3 -215.7 L-318 -217.2 L-316.6 -218.5 L-315 -219.8 L-313.4 -220.9 L-311.7 -221.9 L-309.9 -222.8 L-308.1 -223.5 L-306.2 -224.1 L-304.3 -224.5 L-302.3 -224.7 L-300.3 -224.9 L-298.4 -224.8 L-296.4 -224.6 L-294.4 -224.2 L-292.5 -223.7 L-290.7 -223 L-288.9 -222.2 L-287.1 -221.3 L-285.5 -220.2 L-283.9 -219 L-282.5 -217.6 L-281.1 -216.2 L-279.9 -214.6 L-278.8 -213 L-277.8 -211.3 L-277 -209.5 L-276.3 -207.6 L-275.8 -205.7 L-275.4 -203.8 L-275.2 -201.8 L-275.1 -199.8 Z " />
<path stroke="rgb(0,0,0)" stroke-opacity="1" fill="rgb(255,255,255)" fill-opacity="1" d="M-488.1 -487.9 L-489.1 -487.9 L-490.1 -487.9 L-491.1 -487.9 L-492 -487.9 L-493 -487.9 L-494 -487.9 L-495 -488 L-496 -488 L-497 -488 L-498 -488 L-499 -488 L-500 -488 L-501 -488 L-501.9 -488 L-502.9 -488 L-503.9 -488 L-504.9 -488 L-505.9 -488 L-506.9 -488 L-507.9 -488.1 L-508.9 -488.1 L-509.9 -488.1 L-510.8 -488.1 L-511.8 -488.1 L-512.8 -488.1 L-512.8 -489.1 L-512.8 -490.1 L-512.8 -491.1 L-512.8 -492.1 L-512.8 -493 L-512.8 -494 L-512.8 -495 L-512.8 -496 L-512.8 -497 L-512.7 -498 L-512.7 -499 L-512.7 -500 L-512.7 -501 L-512.7 -501.9 L-512.7 -502.9 L-512.7 -503.9 L-512.7 -504.9 L-512.7 -505.9 L-512.7 -506.9 L-512.7 -507.9 L-512.7 -508.9 L-512.7 -509.9 L-512.6 -510.8 L-512.6 -511.8 L-512.6 -512.8 L-511.6 -512.8 L-510.7 -512.8 L-509.7 -512.8 L-508.7 -512.8 L-507.7 -512.8 L-506.7 -512.8 L-505.7 -512.8 L-504.7 -512.8 L-503.7 -512.8 L-502.7 -512.8 L-501.8 -512.7 L-500.8 -512.7 L-499.8 -512.7 L-498.8 -512.7 L-497.8 -512.7 L-496.8 -512.7 L-495.8 -512.7 L-494.8 -512.7 L-493.8 -512.7 L-492.8 -512.7 L-491.9 -512.7 L-490.9 -512.7 L-489.9 -512.7 L-488.9 -512.6 L-487.9 -512.6 L-487.9 -511.6 L-487.9 -510.7 L-487.9 -509.7 L-487.9 -508.7 L-487.9 -507.7 L-487.9 -506.7 L-488 -505.7 L-488 -504.7 L-488 -503.7 L-488 -502.7 L-488 -501.8 L-488 -500.8 L-488 -499.8 L-488 -498.8 L-488 -497.8 L-488 -496.8 L-488 -495.8 L-488 -494.8 L-488 -493.8 L-488.1 -492.8 L-488.1 -491.9 L-488.1 -490.9 L-488.1 -489.9 L-488.1 -488.9 L-488.1 -487.9 Z " />
<path stroke="rgb(0,0,0)" stroke-opacity="0.892" fill="rgb(255,255,255)" fill-opacity="1" d="M-75.15 -199.8 L-75.24 -197.9 L-75.49 -195.9 L-75.89 -194 L-76.45 -192.1 L-77.15 -190.2 L-78 -188.4 L-78.99 -186.7 L-80.11 -185.1 L-81.35 -183.6 L-82.72 -182.1 L-84.19 -180.8 L-85.77 -179.6 L-87.43 -178.6 L-89.17 -177.6 L-90.98 -176.8 L-92.85 -176.2 L-94.77 -175.7 L-96.71 -175.4 L-98.68 -175.2 L-100.7 -175.2 L-102.6 -175.3 L-104.6 -175.6 L-106.5 -176 L-108.4 -176.6 L-110.2 -177.4 L-112 -178.2 L-113.7 -179.3 L-115.3 -180.4 L-116.8 -181.7 L-118.2 -183.1 L-119.5 -184.6 L-120.6 -186.2 L-121.7 -187.9 L-122.6 -189.6 L-123.3 -191.4 L-123.9 -193.3 L-124.4 -195.3 L-124.7 -197.2 L-124.8 -199.2 L-124.8 -201.2 L-124.7 -203.1 L-124.3 -205.1 L-123.8 -207 L-123.2 -208.9 L-122.4 -210.7 L-121.5 -212.4 L-120.5 -214.1 L-119.3 -215.7 L-118 -217.2 L-116.6 -218.5 L-115 -219.8 L-113.4 -220.9 L-111.7 -221.9 L-109.9 -222.8 L-108.1 -223.5 L-106.2 -224.1 L-104.3 -224.5 L-102.3 -224.7 L-100.3 -224.9 L-98.35 -224.8 L-96.39 -224.6 L-94.45 -224.2 L-92.54 -223.7 L-90.68 -223 L-88.88 -222.2 L-87.15 -221.3 L-85.5 -220.2 L-83.94 -219 L-82.49 -217.6 L-81.14 -216.2 L-79.91 -214.6 L-78.82 -213 L-77.85 -211.3 L-77.02 -209.5 L-76.34 -207.6 L-75.81 -205.7 L-75.44 -203.8 L-75.21 -201.8 L-75.15 -199.8 Z " />
<path stroke="rgb(0,0,0)" stroke-opacity="1" fill="rgb(255,255,255)" fill-opacity="1" d="M-288.1 -487.8 L-289.1 -487.8 L-290.1 -487.8 L-291.1 -487.9 L-292.1 -487.9 L-293.1 -487.9 L-294.1 -487.9 L-295.1 -487.9 L-296.1 -487.9 L-297 -487.9 L-298 -487.9 L-299 -488 L-300 -488 L-301 -488 L-302 -488 L-303 -488 L-304 -488 L-305 -488 L-306 -488 L-307 -488.1 L-307.9 -488.1 L-308.9 -488.1 L-309.9 -488.1 L-310.9 -488.1 L-311.9 -488.1 L-312.9 -488.1 L-312.9 -489.1 L-312.9 -490.1 L-312.9 -491.1 L-312.9 -492.1 L-312.8 -493.1 L-312.8 -494.1 L-312.8 -495.1 L-312.8 -496.1 L-312.8 -497 L-312.8 -498 L-312.8 -499 L-312.8 -500 L-312.7 -501 L-312.7 -502 L-312.7 -503 L-312.7 -504 L-312.7 -505 L-312.7 -506 L-312.7 -507 L-312.7 -508 L-312.7 -508.9 L-312.6 -509.9 L-312.6 -510.9 L-312.6 -511.9 L-312.6 -512.9 L-311.6 -512.9 L-310.6 -512.9 L-309.6 -512.9 L-308.6 -512.9 L-307.6 -512.8 L-306.7 -512.8 L-305.7 -512.8 L-304.7 -512.8 L-303.7 -512.8 L-302.7 -512.8 L-301.7 -512.8 L-300.7 -512.8 L-299.7 -512.8 L-298.7 -512.7 L-297.7 -512.7 L-296.7 -512.7 L-295.7 -512.7 L-294.8 -512.7 L-293.8 -512.7 L-292.8 -512.7 L-291.8 -512.7 L-290.8 -512.6 L-289.8 -512.6 L-288.8 -512.6 L-287.8 -512.6 L-287.8 -511.6 L-287.8 -510.6 L-287.9 -509.6 L-287.9 -508.6 L-287.9 -507.6 L-287.9 -506.7 L-287.9 -505.7 L-287.9 -504.7 L-287.9 -503.7 L-287.9 -502.7 L-288 -501.7 L-288 -500.7 L-288 -499.7 L-288 -498.7 L-288 -497.7 L-288 -496.7 L-288 -495.8 L-288 -494.8 L-288 -493.8 L-288.1 -492.8 L-288.1 -491.8 L-288.1 -490.8 L-288.1 -489.8 L-288.1 -488.8 L-288.1 -487.8 Z " />
<path stroke="rgb(0,0,0)" stroke-opacity="0.892" fill="rgb(255,255,255)" fill-opacity="1" d="M124.9 -199.8 L124.8 -197.9 L124.5 -195.9 L124.1 -194 L123.6 -192.1 L122.8 -190.2 L122 -188.4 L121 -186.7 L119.9 -185.1 L118.6 -183.6 L117.3 -182.1 L115.8 -180.8 L114.2 -179.6 L112.6 -178.6 L110.8 -177.6 L109 -176.8 L107.1 -176.2 L105.2 -175.7 L103.3 -175.4 L101.3 -175.2 L99.35 -175.2 L97.37 -175.3 L95.42 -175.6 L93.49 -176 L91.61 -176.6 L89.78 -177.4 L88.01 -178.2 L86.32 -179.3 L84.71 -180.4 L83.2 -181.7 L81.8 -183.1 L80.52 -184.6 L79.35 -186.2 L78.32 -187.9 L77.42 -189.6 L76.67 -191.4 L76.06 -193.3 L75.61 -195.3 L75.31 -197.2 L75.17 -199.2 L75.18 -201.2 L75.35 -203.1 L75.67 -205.1 L76.15 -207 L76.78 -208.9 L77.56 -210.7 L78.48 -212.4 L79.53 -214.1 L80.72 -215.7 L82.03 -217.2 L83.45 -218.5 L84.97 -219.8 L86.59 -220.9 L88.29 -221.9 L90.07 -222.8 L91.91 -223.5 L93.81 -224.1 L95.74 -224.5 L97.7 -224.7 L99.67 -224.9 L101.6 -224.8 L103.6 -224.6 L105.6 -224.2 L107.5 -223.7 L109.3 -223 L111.1 -222.2 L112.9 -221.3 L114.5 -220.2 L116.1 -219 L117.5 -217.6 L118.9 -216.2 L120.1 -214.6 L121.2 -213 L122.2 -211.3 L123 -209.5 L123.7 -207.6 L124.2 -205.7 L124.6 -203.8 L124.8 -201.8 L124.9 -199.8 Z " />
<path stroke="rgb(0,0,0)" stroke-opacity="1" fill="rgb(255,255,255)" fill-opacity="1" d="M-89.15 -485.7 L-90.18 -485.8 L-91.22 -485.9 L-92.26 -486.1 L-93.3 -486.2 L-94.33 -486.4 L-95.37 -486.5 L-96.41 -486.6 L-97.44 -486.8 L-98.48 -486.9 L-99.52 -487.1 L-100.6 -487.2 L-101.6 -487.4 L-102.6 -487.5 L-103.7 -487.6 L-104.7 -487.8 L-105.7 -487.9 L-106.8 -488.1 L-107.8 -488.2 L-108.9 -488.3 L-109.9 -488.5 L-110.9 -488.6 L-112 -488.8 L-113 -488.9 L-114 -489 L-115.1 -489.2 L-114.9 -490.2 L-114.8 -491.3 L-114.7 -492.3 L-114.5 -493.3 L-114.4 -494.4 L-114.2 -495.4 L-114.1 -496.4 L-113.9 -497.5 L-113.8 -498.5 L-113.7 -499.6 L-113.5 -500.6 L-113.4 -501.6 L-113.2 -502.7 L-113.1 -503.7 L-113 -504.7 L-112.8 -505.8 L-112.7 -506.8 L-112.5 -507.9 L-112.4 -508.9 L-112.3 -509.9 L-112.1 -511 L-112 -512 L-111.8 -513 L-111.7 -514.1 L-111.6 -515.1 L-110.5 -515 L-109.5 -514.8 L-108.4 -514.7 L-107.4 -514.5 L-106.4 -514.4 L-105.3 -514.3 L-104.3 -514.1 L-103.3 -514 L-102.2 -513.8 L-101.2 -513.7 L-100.1 -513.6 L-99.11 -513.4 L-98.07 -513.3 L-97.04 -513.1 L-96 -513 L-94.96 -512.9 L-93.93 -512.7 L-92.89 -512.6 L-91.85 -512.4 L-90.81 -512.3 L-89.78 -512.2 L-88.74 -512 L-87.7 -511.9 L-86.67 -511.7 L-85.63 -511.6 L-85.77 -510.6 L-85.91 -509.5 L-86.05 -508.5 L-86.19 -507.4 L-86.33 -506.4 L-86.47 -505.4 L-86.61 -504.3 L-86.75 -503.3 L-86.89 -502.3 L-87.04 -501.2 L-87.18 -500.2 L-87.32 -499.1 L-87.46 -498.1 L-87.6 -497.1 L-87.74 -496 L-87.88 -495 L-88.02 -494 L-88.16 -492.9 L-88.3 -491.9 L-88.44 -490.8 L-88.58 -489.8 L-88.73 -488.8 L-88.87 -487.7 L-89.01 -486.7 L-89.15 -485.7 Z " />
<path stroke="rgb(0,0,0)" stroke-opacity="0.892" fill="rgb(255,255,255)" fill-opacity="1" d="M324.9 -199.8 L324.8 -197.9 L324.5 -195.9 L324.1 -194 L323.6 -192.1 L322.8 -190.2 L322 -188.4 L321 -186.7 L319.9 -185.1 L318.6 -183.6 L317.3 -182.1 L315.8 -180.8 L314.2 -179.6 L312.6 -178.6 L310.8 -177.6 L309 -176.8 L307.1 -176.2 L305.2 -175.7 L303.3 -175.4 L301.3 -175.2 L299.3 -175.2 L297.4 -175.3 L295.4 -175.6 L293.5 -176 L291.6 -176.6 L289.8 -177.4 L288 -178.2 L286.3 -179.3 L284.7 -180.4 L283.2 -181.7 L281.8 -183.1 L280.5 -184.6 L279.4 -186.2 L278.3 -187.9 L277.4 -189.6 L276.7 -191.4 L276.1 -193.3 L275.6 -195.3 L275.3 -197.2 L275.2 -199.2 L275.2 -201.2 L275.3 -203.1 L275.7 -205.1 L276.2 -207 L276.8 -208.9 L277.6 -210.7 L278.5 -212.4 L279.5 -214.1 L280.7 -215.7 L282 -217.2 L283.4 -218.5 L285 -219.8 L286.6 -220.9 L288.3 -221.9 L290.1 -222.8 L291.9 -223.5 L293.8 -224.1 L295.7 -224.5 L297.7 -224.7 L299.7 -224.9 L301.6 -224.8 L303.6 -224.6 L305.6 -224.2 L307.5 -223.7 L309.3 -223 L311.1 -222.2 L312.9 -221.3 L314.5 -220.2 L316.1 -219 L317.5 -217.6 L318.9 -216.2 L320.1 -214.6 L321.2 -213 L322.2 -211.3 L323 -209.5 L323.7 -207.6 L324.2 -205.7 L324.6 -203.8 L324.8 -201.8 L324.9 -199.8 Z " />
<path stroke="rgb(0,0,0)" stroke-opacity="1" fill="rgb(255,255,255)" fill-opacity="1" d="M-588.1 -387.9 L-589.1 -387.9 L-590.1 -387.9 L-591.1 -387.9 L-592 -387.9 L-593 -387.9 L-594 -387.9 L-595 -388 L-596 -388 L-597 -388 L-598 -388 L-599 -388 L-600 -388 L-601 -388 L-601.9 -388 L-602.9 -388 L-603.9 -388 L-604.9 -388 L-605.9 -388 L-606.9 -388 L-607.9 -388.1 L-608.9 -388.1 L-609.9 -388.1 L-610.8 -388.1 L-611.8 -388.1 L-612.8 -388.1 L-612.8 -389.1 L-612.8 -390.1 L-612.8 -391.1 L-612.8 -392.1 L-612.8 -393 L-612.8 -394 L-612.8 -395 L-612.8 -396 L-612.8 -397 L-612.7 -398 L-612.7 -399 L-612.7 -400 L-612.7 -401 L-612.7 -401.9 L-612.7 -402.9 L-612.7 -403.9 L-612.7 -404.9 L-612.7 -405.9 L-612.7 -406.9 L-612.7 -407.9 L-612.7 -408.9 L-612.7 -409.9 L-612.6 -410.8 L-612.6 -411.8 L-612.6 -412.8 L-611.6 -412.8 L-610.7 -412.8 L-609.7 -412.8 L-608.7 -412.8 L-607.7 -412.8 L-606.7 -412.8 L-605.7 -412.8 L-604.7 -412.8 L-603.7 -412.8 L-602.7 -412.8 L-601.8 -412.7 L-600.8 -412.7 L-599.8 -412.7 L-598.8 -412.7 L-597.8 -412.7 L-596.8 -412.7 L-595.8 -412.7 L-594.8 -412.7 L-593.8 -412.7 L-592.8 -412.7 L-591.9 -412.7 L-590.9 -412.7 L-589.9 -412.7 L-588.9 -412.6 L-587.9 -412.6 L-587.9 -411.6 L-587.9 -410.7 L-587.9 -409.7 L-587.9 -408.7 L-587.9 -407.7 L-587.9 -406.7 L-588 -405.7 L-588 -404.7 L-588 -403.7 L-588 -402.7 L-588 -401.8 L-588 -400.8 L-588 -399.8 L-588 -398.8 L-588 -397.8 L-588 -396.8 L-588 -395.8 L-588 -394.8 L-588 -393.8 L-588.1 -392.8 L-588.1 -391.9 L-588.1 -390.9 L-588.1 -389.9 L-588.1 -388.9 L-588.1 -387.9 Z " />
<path stroke="rgb(0,0,0)" stroke-opacity="0.892" fill="rgb(255,255,255)" fill-opacity="1" d="M-175.1 -99.84 L-175.2 -97.87 L-175.5 -95.91 L-175.9 -93.97 L-176.4 -92.07 L-177.2 -90.23 L-178 -88.44 L-179 -86.73 L-180.1 -85.11 L-181.4 -83.57 L-182.7 -82.14 L-184.2 -80.83 L-185.8 -79.63 L-187.4 -78.56 L-189.2 -77.63 L-191 -76.84 L-192.9 -76.2 L-194.8 -75.71 L-196.7 -75.37 L-198.7 -75.19 L-200.7 -75.16 L-202.6 -75.29 L-204.6 -75.58 L-206.5 -76.02 L-208.4 -76.61 L-210.2 -77.35 L-212 -78.24 L-213.7 -79.26 L-215.3 -80.41 L-216.8 -81.69 L-218.2 -83.08 L-219.5 -84.58 L-220.6 -86.18 L-221.7 -87.86 L-222.6 -89.62 L-223.3 -91.45 L-223.9 -93.33 L-224.4 -95.25 L-224.7 -97.21 L-224.8 -99.18 L-224.8 -101.2 L-224.7 -103.1 L-224.3 -105.1 L-223.8 -107 L-223.2 -108.9 L-222.4 -110.7 L-221.5 -112.4 L-220.5 -114.1 L-219.3 -115.7 L-218 -117.2 L-216.6 -118.5 L-215 -119.8 L-213.4 -120.9 L-211.7 -121.9 L-209.9 -122.8 L-208.1 -123.5 L-206.2 -124.1 L-204.3 -124.5 L-202.3 -124.7 L-200.3 -124.9 L-198.4 -124.8 L-196.4 -124.6 L-194.4 -124.2 L-192.5 -123.7 L-190.7 -123 L-188.9 -122.2 L-187.1 -121.3 L-185.5 -120.2 L-183.9 -119 L-182.5 -117.6 L-181.1 -116.2 L-179.9 -114.6 L-178.8 -113 L-177.8 -111.3 L-177 -109.5 L-176.3 -107.6 L-175.8 -105.7 L-175.4 -103.8 L-175.2 -101.8 L-175.1 -99.84 Z " />
<path stroke="rgb(0,0,0)" stroke-opacity="1" fill="rgb(255,255,255)" fill-opacity="1" d="M-388.1 -387.8 L-389.1 -387.8 L-390.1 -387.8 L-391.1 -387.9 L-392.1 -387.9 L-393.1 -387.9 L-394.1 -387.9 L-395.1 -387.9 L-396.1 -387.9 L-397 -387.9 L-398 -387.9 L-399 -388 L-400 -388 L-401 -388 L-402 -388 L-403 -388 L-404 -388 L-405 -388 L-406 -388 L-407 -388.1 L-407.9 -388.1 L-408.9 -388.1 L-409.9 -388.1 L-410.9 -388.1 L-411.9 -388.1 L-412.9 -388.1 L-412.9 -389.1 L-412.9 -390.1 L-412.9 -391.1 L-412.9 -392.1 L-412.8 -393.1 L-412.8 -394.1 L-412.8 -395.1 L-412.8 -396.1 L-412.8 -397 L-412.8 -398 L-412.8 -399 L-412.8 -400 L-412.7 -401 L-412.7 -402 L-412.7 -403 L-412.7 -404 L-412.7 -405 L-412.7 -406 L-412.7 -407 L-412.7 -408 L-412.7 -408.9 L-412.6 -409.9 L-412.6 -410.9 L-412.6 -411.9 L-412.6 -412.9 L-411.6 -412.9 L-410.6 -412.9 L-409.6 -412.9 L-408.6 -412.9 L-407.6 -412.8 L-406.7 -412.8 L-405.7 -412.8 L-404.7 -412.8 L-403.7 -412.8 L-402.7 -412.8 L-401.7 -412.8 L-400.7 -412.8 L-399.7 -412.8 L-398.7 -412.7 L-397.7 -412.7 L-396.7 -412.7 L-395.7 -412.7 L-394.8 -412.7 L-393.8 -412.7 L-392.8 -412.7 L-391.8 -412.7 L-390.8 -412.6 L-389.8 -412.6 L-388.8 -412.6 L-387.8 -412.6 L-387.8 -411.6 L-387.8 -410.6 L-387.9 -409.6 L-387.9 -408.6 L-387.9 -407.6 L-387.9 -406.7 L-387.9 -405.7 L-387.9 -404.7 L-387.9 -403.7 L-387.9 -402.7 L-388 -401.7 L-388 -400.7 L-388 -399.7 L-388 -398.7 L-388 -397.7 L-388 -396.7 L-388 -395.8 L-388 -394.8 L-388 -393.8 L-388.1 -392.8 L-388.1 -391.8 L-388.1 -390.8 L-388.1 -389.8 L-388.1 -388.8 L-388.1 -387.8 Z " />
<path stroke="rgb(0,0,0)" stroke-opacity="0.892" fill="rgb(255,255,255)" fill-opacity="1" d="M24.85 -99.84 L24.76 -97.87 L24.51 -95.91 L24.11 -93.97 L23.55 -92.07 L22.85 -90.23 L22 -88.44 L21.01 -86.73 L19.89 -85.11 L18.65 -83.57 L17.28 -82.14 L15.81 -80.83 L14.23 -79.63 L12.57 -78.56 L10.83 -77.63 L9.017 -76.84 L7.148 -76.2 L5.235 -75.71 L3.288 -75.37 L1.321 -75.19 L-0.6549 -75.16 L-2.627 -75.29 L-4.581 -75.58 L-6.507 -76.02 L-8.392 -76.61 L-10.22 -77.35 L-11.99 -78.24 L-13.68 -79.26 L-15.29 -80.41 L-16.8 -81.69 L-18.2 -83.08 L-19.48 -84.58 L-20.65 -86.18 L-21.68 -87.86 L-22.58 -89.62 L-23.33 -91.45 L-23.94 -93.33 L-24.39 -95.25 L-24.69 -97.21 L-24.83 -99.18 L-24.82 -101.2 L-24.65 -103.1 L-24.33 -105.1 L-23.85 -107 L-23.22 -108.9 L-22.44 -110.7 L-21.52 -112.4 L-20.47 -114.1 L-19.28 -115.7 L-17.97 -117.2 L-16.55 -118.5 L-15.03 -119.8 L-13.41 -120.9 L-11.71 -121.9 L-9.927 -122.8 L-8.085 -123.5 L-6.193 -124.1 L-4.261 -124.5 L-2.303 -124.7 L-0.3295 -124.9 L1.646 -124.8 L3.611 -124.6 L5.553 -124.2 L7.46 -123.7 L9.319 -123 L11.12 -122.2 L12.85 -121.3 L14.5 -120.2 L16.06 -119 L17.51 -117.6 L18.86 -116.2 L20.09 -114.6 L21.18 -113 L22.15 -111.3 L22.98 -109.5 L23.66 -107.6 L24.19 -105.7 L24.56 -103.8 L24.79 -101.8 L24.85 -99.84 Z " />
<path stroke="rgb(0,0,0)" stroke-opacity="1" fill="rgb(255,255,255)" fill-opacity="1" d="M-189.1 -385.7 L-190.2 -385.8 L-191.2 -385.9 L-192.3 -386.1 L-193.3 -386.2 L-194.3 -386.4 L-195.4 -386.5 L-196.4 -386.6 L-197.4 -386.8 L-198.5 -386.9 L-199.5 -387.1 L-200.6 -387.2 L-201.6 -387.4 L-202.6 -387.5 L-203.7 -387.6 L-204.7 -387.8 L-205.7 -387.9 L-206.8 -388.1 L-207.8 -388.2 L-208.9 -388.3 L-209.9 -388.5 L-210.9 -388.6 L-212 -388.8 L-213 -388.9 L-214 -389 L-215.1 -389.2 L-214.9 -390.2 L-214.8 -391.3 L-214.7 -392.3 L-214.5 -393.3 L-214.4 -394.4 L-214.2 -395.4 L-214.1 -396.4 L-213.9 -397.5 L-213.8 -398.5 L-213.7 -399.6 L-213.5 -400.6 L-213.4 -401.6 L-213.2 -402.7 L-213.1 -403.7 L-213 -404.7 L-212.8 -405.8 L-212.7 -406.8 L-212.5 -407.9 L-212.4 -408.9 L-212.3 -409.9 L-212.1 -411 L-212 -412 L-211.8 -413 L-211.7 -414.1 L-211.6 -415.1 L-210.5 -415 L-209.5 -414.8 L-208.4 -414.7 L-207.4 -414.5 L-206.4 -414.4 L-205.3 -414.3 L-204.3 -414.1 L-203.3 -414 L-202.2 -413.8 L-201.2 -413.7 L-200.1 -413.6 L-199.1 -413.4 L-198.1 -413.3 L-197 -413.1 L-196 -413 L-195 -412.9 L-193.9 -412.7 L-192.9 -412.6 L-191.9 -412.4 L-190.8 -412.3 L-189.8 -412.2 L-188.7 -412 L-187.7 -411.9 L-186.7 -411.7 L-185.6 -411.6 L-185.8 -410.6 L-185.9 -409.5 L-186.1 -408.5 L-186.2 -407.4 L-186.3 -406.4 L-186.5 -405.4 L-186.6 -404.3 L-186.8 -403.3 L-186.9 -402.3 L-187 -401.2 L-187.2 -400.2 L-187.3 -399.1 L-187.5 -398.1 L-187.6 -397.1 L-187.7 -396 L-187.9 -395 L-188 -394 L-188.2 -392.9 L-188.3 -391.9 L-188.4 -390.8 L-188.6 -389.8 L-188.7 -388.8 L-188.9 -387.7 L-189 -386.7 L-189.1 -385.7 Z " />
<path stroke="rgb(0,0,0)" stroke-opacity="0.892" fill="rgb(255,255,255)" fill-opacity="1" d="M224.9 -99.84 L224.8 -97.87 L224.5 -95.91 L224.1 -93.97 L223.6 -92.07 L222.8 -90.23 L222 -88.44 L221 -86.73 L219.9 -85.11 L218.6 -83.57 L217.3 -82.14 L215.8 -80.83 L214.2 -79.63 L212.6 -78.56 L210.8 -77.63 L209 -76.84 L207.1 -76.2 L205.2 -75.71 L203.3 -75.37 L201.3 -75.19 L199.3 -75.16 L197.4 -75.29 L195.4 -75.58 L193.5 -76.02 L191.6 -76.61 L189.8 -77.35 L188 -78.24 L186.3 -79.26 L184.7 -80.41 L183.2 -81.69 L181.8 -83.08 L180.5 -84.58 L179.4 -86.18 L178.3 -87.86 L177.4 -89.62 L176.7 -91.45 L176.1 -93.33 L175.6 -95.25 L175.3 -97.21 L175.2 -99.18 L175.2 -101.2 L175.3 -103.1 L175.7 -105.1 L176.2 -107 L176.8 -108.9 L177.6 -110.7 L178.5 -112.4 L179.5 -114.1 L180.7 -115.7 L182 -117.2 L183.4 -118.5 L185 -119.8 L186.6 -120.9 L188.3 -121.9 L190.1 -122.8 L191.9 -123.5 L193.8 -124.1 L195.7 -124.5 L197.7 -124.7 L199.7 -124.9 L201.6 -124.8 L203.6 -124.6 L205.6 -124.2 L207.5 -123.7 L209.3 -123 L211.1 -122.2 L212.9 -121.3 L214.5 -120.2 L216.1 -119 L217.5 -117.6 L218.9 -116.2 L220.1 -114.6 L221.2 -113 L222.2 -111.3 L223 -109.5 L223.7 -107.6 L224.2 -105.7 L224.6 -103.8 L224.8 -101.8 L224.9 -99.84 Z " />
<path stroke="rgb(0,0,0)" stroke-opacity="1" fill="rgb(255,255,255)" fill-opacity="1" d="M3.964 -378.2 L2.902 -378.9 L1.84 -379.6 L0.7781 -380.3 L-0.2837 -381.1 L-1.346 -381.8 L-2.407 -382.5 L-3.469 -383.2 L-4.531 -383.9 L-5.593 -384.7 L-6.655 -385.4 L-7.716 -386.1 L-8.778 -386.8 L-9.84 -387.6 L-10.9 -388.3 L-11.96 -389 L-13.03 -389.7 L-14.09 -390.4 L-15.15 -391.2 L-16.21 -391.9 L-17.27 -392.6 L-18.33 -393.3 L-19.4 -394 L-20.46 -394.8 L-21.52 -395.5 L-22.58 -396.2 L-21.86 -397.3 L-21.14 -398.3 L-20.42 -399.4 L-19.69 -400.5 L-18.97 -401.5 L-18.25 -402.6 L-17.53 -403.6 L-16.81 -404.7 L-16.08 -405.8 L-15.36 -406.8 L-14.64 -407.9 L-13.92 -409 L-13.19 -410 L-12.47 -411.1 L-11.75 -412.1 L-11.03 -413.2 L-10.31 -414.3 L-9.584 -415.3 L-8.862 -416.4 L-8.14 -417.5 L-7.418 -418.5 L-6.696 -419.6 L-5.974 -420.6 L-5.252 -421.7 L-4.53 -422.8 L-3.468 -422 L-2.406 -421.3 L-1.344 -420.6 L-0.2824 -419.9 L0.7794 -419.2 L1.841 -418.4 L2.903 -417.7 L3.965 -417 L5.027 -416.3 L6.088 -415.5 L7.15 -414.8 L8.212 -414.1 L9.274 -413.4 L10.34 -412.7 L11.4 -411.9 L12.46 -411.2 L13.52 -410.5 L14.58 -409.8 L15.64 -409 L16.71 -408.3 L17.77 -407.6 L18.83 -406.9 L19.89 -406.2 L20.95 -405.4 L22.02 -404.7 L21.29 -403.6 L20.57 -402.6 L19.85 -401.5 L19.13 -400.5 L18.41 -399.4 L17.68 -398.3 L16.96 -397.3 L16.24 -396.2 L15.52 -395.2 L14.79 -394.1 L14.07 -393 L13.35 -392 L12.63 -390.9 L11.91 -389.8 L11.18 -388.8 L10.46 -387.7 L9.74 -386.7 L9.018 -385.6 L8.296 -384.5 L7.574 -383.5 L6.852 -382.4 L6.13 -381.3 L5.408 -380.3 L4.686 -379.2 L3.964 -378.2 Z " />
<path stroke="rgb(0,0,0)" stroke-opacity="0.892" fill="rgb(255,255,255)" fill-opacity="1" d="M-275.1 0.1607 L-275.2 2.135 L-275.5 4.095 L-275.9 6.029 L-276.4 7.925 L-277.2 9.772 L-278 11.56 L-279 13.27 L-280.1 14.89 L-281.4 16.43 L-282.7 17.86 L-284.2 19.17 L-285.8 20.37 L-287.4 21.44 L-289.2 22.37 L-291 23.16 L-292.9 23.8 L-294.8 24.29 L-296.7 24.63 L-298.7 24.81 L-300.7 24.84 L-302.6 24.71 L-304.6 24.42 L-306.5 23.98 L-308.4 23.39 L-310.2 22.65 L-312 21.76 L-313.7 20.74 L-315.3 19.59 L-316.8 18.31 L-318.2 16.92 L-319.5 15.42 L-320.6 13.82 L-321.7 12.14 L-322.6 10.38 L-323.3 8.551 L-323.9 6.67 L-324.4 4.747 L-324.7 2.794 L-324.8 0.8233 L-324.8 -1.153 L-324.7 -3.121 L-324.3 -5.07 L-323.8 -6.987 L-323.2 -8.86 L-322.4 -10.68 L-321.5 -12.43 L-320.5 -14.1 L-319.3 -15.68 L-318 -17.16 L-316.6 -18.53 L-315 -19.79 L-313.4 -20.92 L-311.7 -21.92 L-309.9 -22.78 L-308.1 -23.5 L-306.2 -24.07 L-304.3 -24.48 L-302.3 -24.75 L-300.3 -24.85 L-298.4 -24.8 L-296.4 -24.59 L-294.4 -24.22 L-292.5 -23.71 L-290.7 -23.04 L-288.9 -22.23 L-287.1 -21.27 L-285.5 -20.18 L-283.9 -18.97 L-282.5 -17.63 L-281.1 -16.19 L-279.9 -14.64 L-278.8 -12.99 L-277.8 -11.27 L-277 -9.476 L-276.3 -7.62 L-275.8 -5.717 L-275.4 -3.777 L-275.2 -1.814 L-275.1 0.1607 Z " />
<path stroke="rgb(0,0,0)" stroke-opacity="1" fill="rgb(255,255,255)" fill-opacity="1" d="M-488.1 -287.8 L-489.1 -287.8 L-490.1 -287.8 L-491.1 -287.9 L-492.1 -287.9 L-493.1 -287.9 L-494.1 -287.9 L-495.1 -287.9 L-496.1 -287.9 L-497 -287.9 L-498 -287.9 L-499 -288 L-500 -288 L-501 -288 L-502 -288 L-503 -288 L-504 -288 L-505 -288 L-506 -288 L-507 -288.1 L-507.9 -288.1 L-508.9 -288.1 L-509.9 -288.1 L-510.9 -288.1 L-511.9 -288.1 L-512.9 -288.1 L-512.9 -289.1 L-512.9 -290.1 L-512.9 -291.1 L-512.9 -292.1 L-512.8 -293.1 L-512.8 -294.1 L-512.8 -295.1 L-512.8 -296.1 L-512.8 -297 L-512.8 -298 L-512.8 -299 L-512.8 -300 L-512.7 -301 L-512.7 -302 L-512.7 -303 L-512.7 -304 L-512.7 -305 L-512.7 -306 L-512.7 -307 L-512.7 -308 L-512.7 -308.9 L-512.6 -309.9 L-512.6 -310.9 L-512.6 -311.9 L-512.6 -312.9 L-511.6 -312.9 L-510.6 -312.9 L-509.6 -312.9 L-508.6 -312.9 L-507.6 -312.8 L-506.7 -312.8 L-505.7 -312.8 L-504.7 -312.8 L-503.7 -312.8 L-502.7 -312.8 L-501.7 -312.8 L-500.7 -312.8 L-499.7 -312.8 L-498.7 -312.7 L-497.7 -312.7 L-496.7 -312.7 L-495.7 -312.7 L-494.8 -312.7 L-493.8 -312.7 L-492.8 -312.7 L-491.8 -312.7 L-490.8 -312.6 L-489.8 -312.6 L-488.8 -312.6 L-487.8 -312.6 L-487.8 -311.6 L-487.8 -310.6 L-487.9 -309.6 L-487.9 -308.6 L-487.9 -307.6 L-487.9 -306.7 L-487.9 -305.7 L-487.9 -304.7 L-487.9 -303.7 L-487.9 -302.7 L-488 -301.7 L-488 -300.7 L-488 -299.7 L-488 -298.7 L-488 -297.7 L-488 -296.7 L-488 -295.8 L-488 -294.8 L-488 -293.8 L-488.1 -292.8 L-488.1 -291.8 L-488.1 -290.8 L-488.1 -289.8 L-488.1 -288.8 L-488.1 -287.8 Z " />
<path stroke="rgb(0,0,0)" stroke-opacity="0.892" fill="rgb(255,255,255)" fill-opacity="1" d="M-75.15 0.1607 L-75.24 2.135 L-75.49 4.095 L-75.89 6.029 L-76.45 7.925 L-77.15 9.772 L-78 11.56 L-78.99 13.27 L-80.11 14.89 L-81.35 16.43 L-82.72 17.86 L-84.19 19.17 L-85.77 20.37 L-87.43 21.44 L-89.17 22.37 L-90.98 23.16 L-92.85 23.8 L-94.77 24.29 L-96.71 24.63 L-98.68 24.81 L-100.7 24.84 L-102.6 24.71 L-104.6 24.42 L-106.5 23.98 L-108.4 23.39 L-110.2 22.65 L-112 21.76 L-113.7 20.74 L-115.3 19.59 L-116.8 18.31 L-118.2 16.92 L-119.5 15.42 L-120.6 13.82 L-121.7 12.14 L-122.6 10.38 L-123.3 8.551 L-123.9 6.67 L-124.4 4.747 L-124.7 2.794 L-124.8 0.8233 L-124.8 -1.153 L-124.7 -3.121 L-124.3 -5.07 L-123.8 -6.987 L-123.2 -8.86 L-122.4 -10.68 L-121.5 -12.43 L-120.5 -14.1 L-119.3 -15.68 L-118 -17.16 L-116.6 -18.53 L-115 -19.79 L-113.4 -20.92 L-111.7 -21.92 L-109.9 -22.78 L-108.1 -23.5 L-106.2 -24.07 L-104.3 -24.48 L-102.3 -24.75 L-100.3 -24.85 L-98.35 -24.8 L-96.39 -24.59 L-94.45 -24.22 L-92.54 -23.71 L-90.68 -23.04 L-88.88 -22.23 L-87.15 -21.27 L-85.5 -20.18 L-83.94 -18.97 L-82.49 -17.63 L-81.14 -16.19 L-79.91 -14.64 L-78.82 -12.99 L-77.85 -11.27 L-77.02 -9.476 L-76.34 -7.62 L-75.81 -5.717 L-75.44 -3.777 L-75.21 -1.814 L-75.15 0.1607 Z " />
<path stroke="rgb(0,0,0)" stroke-opacity="1" fill="rgb(255,255,255)" fill-opacity="1" d="M-289.1 -285.7 L-290.2 -285.8 L-291.2 -285.9 L-292.3 -286.1 L-293.3 -286.2 L-294.3 -286.4 L-295.4 -286.5 L-296.4 -286.6 L-297.4 -286.8 L-298.5 -286.9 L-299.5 -287.1 L-300.6 -287.2 L-301.6 -287.4 L-302.6 -287.5 L-303.7 -287.6 L-304.7 -287.8 L-305.7 -287.9 L-306.8 -288.1 L-307.8 -288.2 L-308.9 -288.3 L-309.9 -288.5 L-310.9 -288.6 L-312 -288.8 L-313 -288.9 L-314 -289 L-315.1 -289.2 L-314.9 -290.2 L-314.8 -291.3 L-314.7 -292.3 L-314.5 -293.3 L-314.4 -294.4 L-314.2 -295.4 L-314.1 -296.4 L-313.9 -297.5 L-313.8 -298.5 L-313.7 -299.6 L-313.5 -300.6 L-313.4 -301.6 L-313.2 -302.7 L-313.1 -303.7 L-313 -304.7 L-312.8 -305.8 L-312.7 -306.8 L-312.5 -307.9 L-312.4 -308.9 L-312.3 -309.9 L-312.1 -311 L-312 -312 L-311.8 -313 L-311.7 -314.1 L-311.6 -315.1 L-310.5 -315 L-309.5 -314.8 L-308.4 -314.7 L-307.4 -314.5 L-306.4 -314.4 L-305.3 -314.3 L-304.3 -314.1 L-303.3 -314 L-302.2 -313.8 L-301.2 -313.7 L-300.1 -313.6 L-299.1 -313.4 L-298.1 -313.3 L-297 -313.1 L-296 -313 L-295 -312.9 L-293.9 -312.7 L-292.9 -312.6 L-291.9 -312.4 L-290.8 -312.3 L-289.8 -312.2 L-288.7 -312 L-287.7 -311.9 L-286.7 -311.7 L-285.6 -311.6 L-285.8 -310.6 L-285.9 -309.5 L-286.1 -308.5 L-286.2 -307.4 L-286.3 -306.4 L-286.5 -305.4 L-286.6 -304.3 L-286.8 -303.3 L-286.9 -302.3 L-287 -301.2 L-287.2 -300.2 L-287.3 -299.1 L-287.5 -298.1 L-287.6 -297.1 L-287.7 -296 L-287.9 -295 L-288 -294 L-288.2 -292.9 L-288.3 -291.9 L-288.4 -290.8 L-288.6 -289.8 L-288.7 -288.8 L-288.9 -287.7 L-289 -286.7 L-289.1 -285.7 Z " />
<path stroke="rgb(0,0,0)" stroke-opacity="0.892" fill="rgb(255,255,255)" fill-opacity="1" d="M124.9 0.1607 L124.8 2.135 L124.5 4.095 L124.1 6.029 L123.6 7.925 L122.8 9.772 L122 11.56 L121 13.27 L119.9 14.89 L118.6 16.43 L117.3 17.86 L115.8 19.17 L114.2 20.37 L112.6 21.44 L110.8 22.37 L109 23.16 L107.1 23.8 L105.2 24.29 L103.3 24.63 L101.3 24.81 L99.35 24.84 L97.37 24.71 L95.42 24.42 L93.49 23.98 L91.61 23.39 L89.78 22.65 L88.01 21.76 L86.32 20.74 L84.71 19.59 L83.2 18.31 L81.8 16.92 L80.52 15.42 L79.35 13.82 L78.32 12.14 L77.42 10.38 L76.67 8.551 L76.06 6.67 L75.61 4.747 L75.31 2.794 L75.17 0.8233 L75.18 -1.153 L75.35 -3.121 L75.67 -5.07 L76.15 -6.987 L76.78 -8.86 L77.56 -10.68 L78.48 -12.43 L79.53 -14.1 L80.72 -15.68 L82.03 -17.16 L83.45 -18.53 L84.97 -19.79 L86.59 -20.92 L88.29 -21.92 L90.07 -22.78 L91.91 -23.5 L93.81 -24.07 L95.74 -24.48 L97.7 -24.75 L99.67 -24.85 L101.6 -24.8 L103.6 -24.59 L105.6 -24.22 L107.5 -23.71 L109.3 -23.04 L111.1 -22.23 L112.9 -21.27 L114.5 -20.18 L116.1 -18.97 L117.5 -17.63 L118.9 -16.19 L120.1 -14.64 L121.2 -12.99 L122.2 -11.27 L123 -9.476 L123.7 -7.62 L124.2 -5.717 L124.6 -3.777 L124.8 -1.814 L124.9 0.1607 Z " />
<path stroke="rgb(0,0,0)" stroke-opacity="1" fill="rgb(255,255,255)" fill-opacity="1" d="M-96.04 -278.2 L-97.1 -278.9 L-98.16 -279.6 L-99.22 -280.3 L-100.3 -281.1 L-101.3 -281.8 L-102.4 -282.5 L-103.5 -283.2 L-104.5 -283.9 L-105.6 -284.7 L-106.7 -285.4 L-107.7 -286.1 L-108.8 -286.8 L-109.8 -287.6 L-110.9 -288.3 L-112 -289 L-113 -289.7 L-114.1 -290.4 L-115.1 -291.2 L-116.2 -291.9 L-117.3 -292.6 L-118.3 -293.3 L-119.4 -294 L-120.5 -294.8 L-121.5 -295.5 L-122.6 -296.2 L-121.9 -297.3 L-121.1 -298.3 L-120.4 -299.4 L-119.7 -300.5 L-119 -301.5 L-118.2 -302.6 L-117.5 -303.6 L-116.8 -304.7 L-116.1 -305.8 L-115.4 -306.8 L-114.6 -307.9 L-113.9 -309 L-113.2 -310 L-112.5 -311.1 L-111.8 -312.1 L-111 -313.2 L-110.3 -314.3 L-109.6 -315.3 L-108.9 -316.4 L-108.1 -317.5 L-107.4 -318.5 L-106.7 -319.6 L-106 -320.6 L-105.3 -321.7 L-104.5 -322.8 L-103.5 -322 L-102.4 -321.3 L-101.3 -320.6 L-100.3 -319.9 L-99.22 -319.2 L-98.16 -318.4 L-97.1 -317.7 L-96.04 -317 L-94.97 -316.3 L-93.91 -315.5 L-92.85 -314.8 L-91.79 -314.1 L-90.73 -313.4 L-89.66 -312.7 L-88.6 -311.9 L-87.54 -311.2 L-86.48 -310.5 L-85.42 -309.8 L-84.36 -309 L-83.29 -308.3 L-82.23 -307.6 L-81.17 -306.9 L-80.11 -306.2 L-79.05 -305.4 L-77.98 -304.7 L-78.71 -303.6 L-79.43 -302.6 L-80.15 -301.5 L-80.87 -300.5 L-81.59 -299.4 L-82.32 -298.3 L-83.04 -297.3 L-83.76 -296.2 L-84.48 -295.2 L-85.21 -294.1 L-85.93 -293 L-86.65 -292 L-87.37 -290.9 L-88.09 -289.8 L-88.82 -288.8 L-89.54 -287.7 L-90.26 -286.7 L-90.98 -285.6 L-91.7 -284.5 L-92.43 -283.5 L-93.15 -282.4 L-93.87 -281.3 L-94.59 -280.3 L-95.31 -279.2 L-96.04 -278.2 Z " />
<path stroke="rgb(0,0,0)" stroke-opacity="0.892" fill="rgb(255,255,255)" fill-opacity="1" d="M324.9 0.1607 L324.8 2.135 L324.5 4.095 L324.1 6.029 L323.6 7.925 L322.8 9.772 L322 11.56 L321 13.27 L319.9 14.89 L318.6 16.43 L317.3 17.86 L315.8 19.17 L314.2 20.37 L312.6 21.44 L310.8 22.37 L309 23.16 L307.1 23.8 L305.2 24.29 L303.3 24.63 L301.3 24.81 L299.3 24.84 L297.4 24.71 L295.4 24.42 L293.5 23.98 L291.6 23.39 L289.8 22.65 L288 21.76 L286.3 20.74 L284.7 19.59 L283.2 18.31 L281.8 16.92 L280.5 15.42 L279.4 13.82 L278.3 12.14 L277.4 10.38 L276.7 8.551 L276.1 6.67 L275.6 4.747 L275.3 2.794 L275.2 0.8233 L275.2 -1.153 L275.3 -3.121 L275.7 -5.07 L276.2 -6.987 L276.8 -8.86 L277.6 -10.68 L278.5 -12.43 L279.5 -14.1 L280.7 -15.68 L282 -17.16 L283.4 -18.53 L285 -19.79 L286.6 -20.92 L288.3 -21.92 L290.1 -22.78 L291.9 -23.5 L293.8 -24.07 L295.7 -24.48 L297.7 -24.75 L299.7 -24.85 L301.6 -24.8 L303.6 -24.59 L305.6 -24.22 L307.5 -23.71 L309.3 -23.04 L311.1 -22.23 L312.9 -21.27 L314.5 -20.18 L316.1 -18.97 L317.5 -17.63 L318.9 -16.19 L320.1 -14.64 L321.2 -12.99 L322.2 -11.27 L323 -9.476 L323.7 -7.62 L324.2 -5.717 L324.6 -3.777 L324.8 -1.814 L324.9 0.1607 Z " />
<path stroke="rgb(0,0,0)" stroke-opacity="1" fill="rgb(255,255,255)" fill-opacity="1" d="M-588.1 -187.8 L-589.1 -187.8 L-590.1 -187.8 L-591.1 -187.9 L-592.1 -187.9 L-593.1 -187.9 L-594.1 -187.9 L-595.1 -187.9 L-596.1 -187.9 L-597 -187.9 L-598 -187.9 L-599 -188 L-600 -188 L-601 -188 L-602 -188 L-603 -188 L-604 -188 L-605 -188 L-606 -188 L-607 -188.1 L-607.9 -188.1 L-608.9 -188.1 L-609.9 -188.1 L-610.9 -188.1 L-611.9 -188.1 L-612.9 -188.1 L-612.9 -189.1 L-612.9 -190.1 L-612.9 -191.1 L-612.9 -192.1 L-612.8 -193.1 L-612.8 -194.1 L-612.8 -195.1 L-612.8 -196.1 L-612.8 -197 L-612.8 -198 L-612.8 -199 L-612.8 -200 L-612.7 -201 L-612.7 -202 L-612.7 -203 L-612.7 -204 L-612.7 -205 L-612.7 -206 L-612.7 -207 L-612.7 -208 L-612.7 -208.9 L-612.6 -209.9 L-612.6 -210.9 L-612.6 -211.9 L-612.6 -212.9 L-611.6 -212.9 L-610.6 -212.9 L-609.6 -212.9 L-608.6 -212.9 L-607.6 -212.8 L-606.7 -212.8 L-605.7 -212.8 L-604.7 -212.8 L-603.7 -212.8 L-602.7 -212.8 L-601.7 -212.8 L-600.7 -212.8 L-599.7 -212.8 L-598.7 -212.7 L-597.7 -212.7 L-596.7 -212.7 L-595.7 -212.7 L-594.8 -212.7 L-593.8 -212.7 L-592.8 -212.7 L-591.8 -212.7 L-590.8 -212.6 L-589.8 -212.6 L-588.8 -212.6 L-587.8 -212.6 L-587.8 -211.6 L-587.8 -210.6 L-587.9 -209.6 L-587.9 -208.6 L-587.9 -207.6 L-587.9 -206.7 L-587.9 -205.7 L-587.9 -204.7 L-587.9 -203.7 L-587.9 -202.7 L-588 -201.7 L-588 -200.7 L-588 -199.7 L-588 -198.7 L-588 -197.7 L-588 -196.7 L-588 -195.8 L-588 -194.8 L-588 -193.8 L-588.1 -192.8 L-588.1 -191.8 L-588.1 -190.8 L-588.1 -189.8 L-588.1 -188.8 L-588.1 -187.8 Z " />
<path stroke="rgb(0,0,0)" stroke-opacity="0.892" fill="rgb(255,255,255)" fill-opacity="1" d="M-175.1 100.2 L-175.2 102.1 L-175.5 104.1 L-175.9 106 L-176.4 107.9 L-177.2 109.8 L-178 111.6 L-179 113.3 L-180.1 114.9 L-181.4 116.4 L-182.7 117.9 L-184.2 119.2 L-185.8 120.4 L-187.4 121.4 L-189.2 122.4 L-191 123.2 L-192.9 123.8 L-194.8 124.3 L-196.7 124.6 L-198.7 124.8 L-200.7 124.8 L-202.6 124.7 L-204.6 124.4 L-206.5 124 L-208.4 123.4 L-210.2 122.6 L-212 121.8 L-213.7 120.7 L-215.3 119.6 L-216.8 118.3 L-218.2 116.9 L-219.5 115.4 L-220.6 113.8 L-221.7 112.1 L-222.6 110.4 L-223.3 108.6 L-223.9 106.7 L-224.4 104.7 L-224.7 102.8 L-224.8 100.8 L-224.8 98.85 L-224.7 96.88 L-224.3 94.93 L-223.8 93.01 L-223.2 91.14 L-222.4 89.32 L-221.5 87.57 L-220.5 85.9 L-219.3 84.32 L-218 82.84 L-216.6 81.47 L-215 80.21 L-213.4 79.08 L-211.7 78.08 L-209.9 77.22 L-208.1 76.5 L-206.2 75.93 L-204.3 75.52 L-202.3 75.25 L-200.3 75.15 L-198.4 75.2 L-196.4 75.41 L-194.4 75.78 L-192.5 76.29 L-190.7 76.96 L-188.9 77.77 L-187.1 78.73 L-185.5 79.82 L-183.9 81.03 L-182.5 82.37 L-181.1 83.81 L-179.9 85.36 L-178.8 87.01 L-177.8 88.73 L-177 90.52 L-176.3 92.38 L-175.8 94.28 L-175.4 96.22 L-175.2 98.19 L-175.1 100.2 Z " />
<path stroke="rgb(0,0,0)" stroke-opacity="1" fill="rgb(255,255,255)" fill-opacity="1" d="M-389.1 -185.7 L-390.2 -185.8 L-391.2 -185.9 L-392.3 -186.1 L-393.3 -186.2 L-394.3 -186.4 L-395.4 -186.5 L-396.4 -186.6 L-397.4 -186.8 L-398.5 -186.9 L-399.5 -187.1 L-400.6 -187.2 L-401.6 -187.4 L-402.6 -187.5 L-403.7 -187.6 L-404.7 -187.8 L-405.7 -187.9 L-406.8 -188.1 L-407.8 -188.2 L-408.9 -188.3 L-409.9 -188.5 L-410.9 -188.6 L-412 -188.8 L-413 -188.9 L-414 -189 L-415.1 -189.2 L-414.9 -190.2 L-414.8 -191.3 L-414.7 -192.3 L-414.5 -193.3 L-414.4 -194.4 L-414.2 -195.4 L-414.1 -196.4 L-413.9 -197.5 L-413.8 -198.5 L-413.7 -199.6 L-413.5 -200.6 L-413.4 -201.6 L-413.2 -202.7 L-413.1 -203.7 L-413 -204.7 L-412.8 -205.8 L-412.7 -206.8 L-412.5 -207.9 L-412.4 -208.9 L-412.3 -209.9 L-412.1 -211 L-412 -212 L-411.8 -213 L-411.7 -214.1 L-411.6 -215.1 L-410.5 -215 L-409.5 -214.8 L-408.4 -214.7 L-407.4 -214.5 L-406.4 -214.4 L-405.3 -214.3 L-404.3 -214.1 L-403.3 -214 L-402.2 -213.8 L-401.2 -213.7 L-400.1 -213.6 L-399.1 -213.4 L-398.1 -213.3 L-397 -213.1 L-396 -213 L-395 -212.9 L-393.9 -212.7 L-392.9 -212.6 L-391.9 -212.4 L-390.8 -212.3 L-389.8 -212.2 L-388.7 -212 L-387.7 -211.9 L-386.7 -211.7 L-385.6 -211.6 L-385.8 -210.6 L-385.9 -209.5 L-386.1 -208.5 L-386.2 -207.4 L-386.3 -206.4 L-386.5 -205.4 L-386.6 -204.3 L-386.8 -203.3 L-386.9 -202.3 L-387 -201.2 L-387.2 -200.2 L-387.3 -199.1 L-387.5 -198.1 L-387.6 -197.1 L-387.7 -196 L-387.9 -195 L-388 -194 L-388.2 -192.9 L-388.3 -191.9 L-388.4 -190.8 L-388.6 -189.8 L-388.7 -188.8 L-388.9 -187.7 L-389 -186.7 L-389.1 -185.7 Z " />
<path stroke="rgb(0,0,0)" stroke-opacity="0.892" fill="rgb(255,255,255)" fill-opacity="1" d="M24.85 100.2 L24.76 102.1 L24.51 104.1 L24.11 106 L23.55 107.9 L22.85 109.8 L22 111.6 L21.01 113.3 L19.89 114.9 L18.65 116.4 L17.28 117.9 L15.81 119.2 L14.23 120.4 L12.57 121.4 L10.83 122.4 L9.017 123.2 L7.148 123.8 L5.235 124.3 L3.288 124.6 L1.321 124.8 L-0.6549 124.8 L-2.627 124.7 L-4.581 124.4 L-6.507 124 L-8.392 123.4 L-10.22 122.6 L-11.99 121.8 L-13.68 120.7 L-15.29 119.6 L-16.8 118.3 L-18.2 116.9 L-19.48 115.4 L-20.65 113.8 L-21.68 112.1 L-22.58 110.4 L-23.33 108.6 L-23.94 106.7 L-24.39 104.7 L-24.69 102.8 L-24.83 100.8 L-24.82 98.85 L-24.65 96.88 L-24.33 94.93 L-23.85 93.01 L-23.22 91.14 L-22.44 89.32 L-21.52 87.57 L-20.47 85.9 L-19.28 84.32 L-17.97 82.84 L-16.55 81.47 L-15.03 80.21 L-13.41 79.08 L-11.71 78.08 L-9.927 77.22 L-8.085 76.5 L-6.193 75.93 L-4.261 75.52 L-2.303 75.25 L-0.3295 75.15 L1.646 75.2 L3.611 75.41 L5.553 75.78 L7.46 76.29 L9.319 76.96 L11.12 77.77 L12.85 78.73 L14.5 79.82 L16.06 81.03 L17.51 82.37 L18.86 83.81 L20.09 85.36 L21.18 87.01 L22.15 88.73 L22.98 90.52 L23.66 92.38 L24.19 94.28 L24.56 96.22 L24.79 98.19 L24.85 100.2 Z " />
<path stroke="rgb(0,0,0)" stroke-opacity="1" fill="rgb(255,255,255)" fill-opacity="1" d="M-196 -178.2 L-197.1 -178.9 L-198.2 -179.6 L-199.2 -180.3 L-200.3 -181.1 L-201.3 -181.8 L-202.4 -182.5 L-203.5 -183.2 L-204.5 -183.9 L-205.6 -184.7 L-206.7 -185.4 L-207.7 -186.1 L-208.8 -186.8 L-209.8 -187.6 L-210.9 -188.3 L-212 -189 L-213 -189.7 L-214.1 -190.4 L-215.1 -191.2 L-216.2 -191.9 L-217.3 -192.6 L-218.3 -193.3 L-219.4 -194 L-220.5 -194.8 L-221.5 -195.5 L-222.6 -196.2 L-221.9 -197.3 L-221.1 -198.3 L-220.4 -199.4 L-219.7 -200.5 L-219 -201.5 L-218.2 -202.6 L-217.5 -203.6 L-216.8 -204.7 L-216.1 -205.8 L-215.4 -206.8 L-214.6 -207.9 L-213.9 -209 L-213.2 -210 L-212.5 -211.1 L-211.8 -212.1 L-211 -213.2 L-210.3 -214.3 L-209.6 -215.3 L-208.9 -216.4 L-208.1 -217.5 L-207.4 -218.5 L-206.7 -219.6 L-206 -220.6 L-205.3 -221.7 L-204.5 -222.8 L-203.5 -222 L-202.4 -221.3 L-201.3 -220.6 L-200.3 -219.9 L-199.2 -219.2 L-198.2 -218.4 L-197.1 -217.7 L-196 -217 L-195 -216.3 L-193.9 -215.5 L-192.8 -214.8 L-191.8 -214.1 L-190.7 -213.4 L-189.7 -212.7 L-188.6 -211.9 L-187.5 -211.2 L-186.5 -210.5 L-185.4 -209.8 L-184.4 -209 L-183.3 -208.3 L-182.2 -207.6 L-181.2 -206.9 L-180.1 -206.2 L-179 -205.4 L-178 -204.7 L-178.7 -203.6 L-179.4 -202.6 L-180.2 -201.5 L-180.9 -200.5 L-181.6 -199.4 L-182.3 -198.3 L-183 -197.3 L-183.8 -196.2 L-184.5 -195.2 L-185.2 -194.1 L-185.9 -193 L-186.6 -192 L-187.4 -190.9 L-188.1 -189.8 L-188.8 -188.8 L-189.5 -187.7 L-190.3 -186.7 L-191 -185.6 L-191.7 -184.5 L-192.4 -183.5 L-193.1 -182.4 L-193.9 -181.3 L-194.6 -180.3 L-195.3 -179.2 L-196 -178.2 Z " />
<path stroke="rgb(0,0,0)" stroke-opacity="0.892" fill="rgb(255,255,255)" fill-opacity="1" d="M224.9 100.2 L224.8 102.1 L224.5 104.1 L224.1 106 L223.6 107.9 L222.8 109.8 L222 111.6 L221 113.3 L219.9 114.9 L218.6 116.4 L217.3 117.9 L215.8 119.2 L214.2 120.4 L212.6 121.4 L210.8 122.4 L209 123.2 L207.1 123.8 L205.2 124.3 L203.3 124.6 L201.3 124.8 L199.3 124.8 L197.4 124.7 L195.4 124.4 L193.5 124 L191.6 123.4 L189.8 122.6 L188 121.8 L186.3 120.7 L184.7 119.6 L183.2 118.3 L181.8 116.9 L180.5 115.4 L179.4 113.8 L178.3 112.1 L177.4 110.4 L176.7 108.6 L176.1 106.7 L175.6 104.7 L175.3 102.8 L175.2 100.8 L175.2 98.85 L175.3 96.88 L175.7 94.93 L176.2 93.01 L176.8 91.14 L177.6 89.32 L178.5 87.57 L179.5 85.9 L180.7 84.32 L182 82.84 L183.4 81.47 L185 80.21 L186.6 79.08 L188.3 78.08 L190.1 77.22 L191.9 76.5 L193.8 75.93 L195.7 75.52 L197.7 75.25 L199.7 75.15 L201.6 75.2 L203.6 75.41 L205.6 75.78 L207.5 76.29 L209.3 76.96 L211.1 77.77 L212.9 78.73 L214.5 79.82 L216.1 81.03 L217.5 82.37 L218.9 83.81 L220.1 85.36 L221.2 87.01 L222.2 88.73 L223 90.52 L223.7 92.38 L224.2 94.28 L224.6 96.22 L224.8 98.19 L224.9 100.2 Z " />
<path stroke="rgb(0,0,0)" stroke-opacity="1" fill="rgb(255,255,255)" fill-opacity="1" d="M-14.52 -173.5 L-15.02 -175.1 L-15.52 -176.8 L-16.03 -178.4 L-16.53 -180.1 L-17.04 -181.8 L-17.54 -183.4 L-18.05 -185.1 L-18.55 -186.7 L-19.06 -188.4 L-19.56 -190.1 L-20.07 -191.7 L-20.57 -193.4 L-21.08 -195 L-21.58 -196.7 L-22.08 -198.3 L-22.59 -200 L-23.09 -201.7 L-23.6 -203.3 L-24.1 -205 L-24.61 -206.6 L-25.11 -208.3 L-25.62 -210 L-26.12 -211.6 L-26.63 -213.3 L-27.13 -214.9 L-25.47 -215.4 L-23.82 -215.9 L-22.16 -216.4 L-20.5 -216.9 L-18.84 -217.4 L-17.18 -218 L-15.53 -218.5 L-13.87 -219 L-12.21 -219.5 L-10.55 -220 L-8.893 -220.5 L-7.235 -221 L-5.577 -221.5 L-3.919 -222 L-2.261 -222.5 L-0.6035 -223 L1.055 -223.5 L2.713 -224 L4.371 -224.5 L6.029 -225 L7.687 -225.5 L9.345 -226 L11 -226.5 L12.66 -227 L14.32 -227.5 L14.82 -225.9 L15.33 -224.2 L15.83 -222.6 L16.34 -220.9 L16.84 -219.3 L17.35 -217.6 L17.85 -215.9 L18.36 -214.3 L18.86 -212.6 L19.37 -211 L19.87 -209.3 L20.37 -207.6 L20.88 -206 L21.38 -204.3 L21.89 -202.7 L22.39 -201 L22.9 -199.4 L23.4 -197.7 L23.91 -196 L24.41 -194.4 L24.92 -192.7 L25.42 -191.1 L25.93 -189.4 L26.43 -187.7 L26.93 -186.1 L25.28 -185.6 L23.62 -185.1 L21.96 -184.6 L20.3 -184.1 L18.64 -183.6 L16.99 -183.1 L15.33 -182.6 L13.67 -182.1 L12.01 -181.5 L10.35 -181 L8.697 -180.5 L7.039 -180 L5.381 -179.5 L3.723 -179 L2.065 -178.5 L0.4069 -178 L-1.251 -177.5 L-2.909 -177 L-4.567 -176.5 L-6.225 -176 L-7.883 -175.5 L-9.541 -175 L-11.2 -174.5 L-12.86 -174 L-14.52 -173.5 Z " />
<path stroke="rgb(0,0,0)" stroke-opacity="0.892" fill="rgb(255,255,255)" fill-opacity="1" d="M-275.1 200.2 L-275.2 202.1 L-275.5 204.1 L-275.9 206 L-276.4 207.9 L-277.2 209.8 L-278 211.6 L-279 213.3 L-280.1 214.9 L-281.4 216.4 L-282.7 217.9 L-284.2 219.2 L-285.8 220.4 L-287.4 221.4 L-289.2 222.4 L-291 223.2 L-292.9 223.8 L-294.8 224.3 L-296.7 224.6 L-298.7 224.8 L-300.7 224.8 L-302.6 224.7 L-304.6 224.4 L-306.5 224 L-308.4 223.4 L-310.2 222.6 L-312 221.8 L-313.7 220.7 L-315.3 219.6 L-316.8 218.3 L-318.2 216.9 L-319.5 215.4 L-320.6 213.8 L-321.7 212.1 L-322.6 210.4 L-323.3 208.6 L-323.9 206.7 L-324.4 204.7 L-324.7 202.8 L-324.8 200.8 L-324.8 198.8 L-324.7 196.9 L-324.3 194.9 L-323.8 193 L-323.2 191.1 L-322.4 189.3 L-321.5 187.6 L-320.5 185.9 L-319.3 184.3 L-318 182.8 L-316.6 181.5 L-315 180.2 L-313.4 179.1 L-311.7 178.1 L-309.9 177.2 L-308.1 176.5 L-306.2 175.9 L-304.3 175.5 L-302.3 175.3 L-300.3 175.1 L-298.4 175.2 L-296.4 175.4 L-294.4 175.8 L-292.5 176.3 L-290.7 177 L-288.9 177.8 L-287.1 178.7 L-285.5 179.8 L-283.9 181 L-282.5 182.4 L-281.1 183.8 L-279.9 185.4 L-278.8 187 L-277.8 188.7 L-277 190.5 L-276.3 192.4 L-275.8 194.3 L-275.4 196.2 L-275.2 198.2 L-275.1 200.2 Z " />
<path stroke="rgb(0,0,0)" stroke-opacity="1" fill="rgb(255,255,255)" fill-opacity="1" d="M-489.1 -85.66 L-490.2 -85.8 L-491.2 -85.94 L-492.3 -86.09 L-493.3 -86.23 L-494.3 -86.37 L-495.4 -86.51 L-496.4 -86.65 L-497.4 -86.79 L-498.5 -86.93 L-499.5 -87.07 L-500.6 -87.21 L-501.6 -87.35 L-502.6 -87.49 L-503.7 -87.63 L-504.7 -87.77 L-505.7 -87.92 L-506.8 -88.06 L-507.8 -88.2 L-508.9 -88.34 L-509.9 -88.48 L-510.9 -88.62 L-512 -88.76 L-513 -88.9 L-514 -89.04 L-515.1 -89.18 L-514.9 -90.22 L-514.8 -91.26 L-514.7 -92.29 L-514.5 -93.33 L-514.4 -94.37 L-514.2 -95.41 L-514.1 -96.44 L-513.9 -97.48 L-513.8 -98.52 L-513.7 -99.55 L-513.5 -100.6 L-513.4 -101.6 L-513.2 -102.7 L-513.1 -103.7 L-513 -104.7 L-512.8 -105.8 L-512.7 -106.8 L-512.5 -107.9 L-512.4 -108.9 L-512.3 -109.9 L-512.1 -111 L-512 -112 L-511.8 -113 L-511.7 -114.1 L-511.6 -115.1 L-510.5 -115 L-509.5 -114.8 L-508.4 -114.7 L-507.4 -114.5 L-506.4 -114.4 L-505.3 -114.3 L-504.3 -114.1 L-503.3 -114 L-502.2 -113.8 L-501.2 -113.7 L-500.1 -113.6 L-499.1 -113.4 L-498.1 -113.3 L-497 -113.1 L-496 -113 L-495 -112.9 L-493.9 -112.7 L-492.9 -112.6 L-491.9 -112.4 L-490.8 -112.3 L-489.8 -112.2 L-488.7 -112 L-487.7 -111.9 L-486.7 -111.7 L-485.6 -111.6 L-485.8 -110.6 L-485.9 -109.5 L-486.1 -108.5 L-486.2 -107.4 L-486.3 -106.4 L-486.5 -105.4 L-486.6 -104.3 L-486.8 -103.3 L-486.9 -102.3 L-487 -101.2 L-487.2 -100.2 L-487.3 -99.15 L-487.5 -98.11 L-487.6 -97.07 L-487.7 -96.03 L-487.9 -95 L-488 -93.96 L-488.2 -92.92 L-488.3 -91.89 L-488.4 -90.85 L-488.6 -89.81 L-488.7 -88.77 L-488.9 -87.74 L-489 -86.7 L-489.1 -85.66 Z " />
<path stroke="rgb(0,0,0)" stroke-opacity="0.892" fill="rgb(255,255,255)" fill-opacity="1" d="M-75.15 200.2 L-75.24 202.1 L-75.49 204.1 L-75.89 206 L-76.45 207.9 L-77.15 209.8 L-78 211.6 L-78.99 213.3 L-80.11 214.9 L-81.35 216.4 L-82.72 217.9 L-84.19 219.2 L-85.77 220.4 L-87.43 221.4 L-89.17 222.4 L-90.98 223.2 L-92.85 223.8 L-94.77 224.3 L-96.71 224.6 L-98.68 224.8 L-100.7 224.8 L-102.6 224.7 L-104.6 224.4 L-106.5 224 L-108.4 223.4 L-110.2 222.6 L-112 221.8 L-113.7 220.7 L-115.3 219.6 L-116.8 218.3 L-118.2 216.9 L-119.5 215.4 L-120.6 213.8 L-121.7 212.1 L-122.6 210.4 L-123.3 208.6 L-123.9 206.7 L-124.4 204.7 L-124.7 202.8 L-124.8 200.8 L-124.8 198.8 L-124.7 196.9 L-124.3 194.9 L-123.8 193 L-123.2 191.1 L-122.4 189.3 L-121.5 187.6 L-120.5 185.9 L-119.3 184.3 L-118 182.8 L-116.6 181.5 L-115 180.2 L-113.4 179.1 L-111.7 178.1 L-109.9 177.2 L-108.1 176.5 L-106.2 175.9 L-104.3 175.5 L-102.3 175.3 L-100.3 175.1 L-98.35 175.2 L-96.39 175.4 L-94.45 175.8 L-92.54 176.3 L-90.68 177 L-88.88 177.8 L-87.15 178.7 L-85.5 179.8 L-83.94 181 L-82.49 182.4 L-81.14 183.8 L-79.91 185.4 L-78.82 187 L-77.85 188.7 L-77.02 190.5 L-76.34 192.4 L-75.81 194.3 L-75.44 196.2 L-75.21 198.2 L-75.15 200.2 Z " />
<path stroke="rgb(0,0,0)" stroke-opacity="1" fill="rgb(255,255,255)" fill-opacity="1" d="M-296 -78.16 L-297.1 -78.89 L-298.2 -79.61 L-299.2 -80.33 L-300.3 -81.05 L-301.3 -81.77 L-302.4 -82.5 L-303.5 -83.22 L-304.5 -83.94 L-305.6 -84.66 L-306.7 -85.38 L-307.7 -86.11 L-308.8 -86.83 L-309.8 -87.55 L-310.9 -88.27 L-312 -88.99 L-313 -89.72 L-314.1 -90.44 L-315.1 -91.16 L-316.2 -91.88 L-317.3 -92.6 L-318.3 -93.33 L-319.4 -94.05 L-320.5 -94.77 L-321.5 -95.49 L-322.6 -96.22 L-321.9 -97.28 L-321.1 -98.34 L-320.4 -99.4 L-319.7 -100.5 L-319 -101.5 L-318.2 -102.6 L-317.5 -103.6 L-316.8 -104.7 L-316.1 -105.8 L-315.4 -106.8 L-314.6 -107.9 L-313.9 -109 L-313.2 -110 L-312.5 -111.1 L-311.8 -112.1 L-311 -113.2 L-310.3 -114.3 L-309.6 -115.3 L-308.9 -116.4 L-308.1 -117.5 L-307.4 -118.5 L-306.7 -119.6 L-306 -120.6 L-305.3 -121.7 L-304.5 -122.8 L-303.5 -122 L-302.4 -121.3 L-301.3 -120.6 L-300.3 -119.9 L-299.2 -119.2 L-298.2 -118.4 L-297.1 -117.7 L-296 -117 L-295 -116.3 L-293.9 -115.5 L-292.8 -114.8 L-291.8 -114.1 L-290.7 -113.4 L-289.7 -112.7 L-288.6 -111.9 L-287.5 -111.2 L-286.5 -110.5 L-285.4 -109.8 L-284.4 -109 L-283.3 -108.3 L-282.2 -107.6 L-281.2 -106.9 L-280.1 -106.2 L-279 -105.4 L-278 -104.7 L-278.7 -103.6 L-279.4 -102.6 L-280.2 -101.5 L-280.9 -100.5 L-281.6 -99.4 L-282.3 -98.34 L-283 -97.28 L-283.8 -96.21 L-284.5 -95.15 L-285.2 -94.09 L-285.9 -93.03 L-286.6 -91.97 L-287.4 -90.9 L-288.1 -89.84 L-288.8 -88.78 L-289.5 -87.72 L-290.3 -86.66 L-291 -85.6 L-291.7 -84.53 L-292.4 -83.47 L-293.1 -82.41 L-293.9 -81.35 L-294.6 -80.29 L-295.3 -79.22 L-296 -78.16 Z " />
<path stroke="rgb(0,0,0)" stroke-opacity="0.892" fill="rgb(255,255,255)" fill-opacity="1" d="M124.9 200.2 L124.8 202.1 L124.5 204.1 L124.1 206 L123.6 207.9 L122.8 209.8 L122 211.6 L121 213.3 L119.9 214.9 L118.6 216.4 L117.3 217.9 L115.8 219.2 L114.2 220.4 L112.6 221.4 L110.8 222.4 L109 223.2 L107.1 223.8 L105.2 224.3 L103.3 224.6 L101.3 224.8 L99.35 224.8 L97.37 224.7 L95.42 224.4 L93.49 224 L91.61 223.4 L89.78 222.6 L88.01 221.8 L86.32 220.7 L84.71 219.6 L83.2 218.3 L81.8 216.9 L80.52 215.4 L79.35 213.8 L78.32 212.1 L77.42 210.4 L76.67 208.6 L76.06 206.7 L75.61 204.7 L75.31 202.8 L75.17 200.8 L75.18 198.8 L75.35 196.9 L75.67 194.9 L76.15 193 L76.78 191.1 L77.56 189.3 L78.48 187.6 L79.53 185.9 L80.72 184.3 L82.03 182.8 L83.45 181.5 L84.97 180.2 L86.59 179.1 L88.29 178.1 L90.07 177.2 L91.91 176.5 L93.81 175.9 L95.74 175.5 L97.7 175.3 L99.67 175.1 L101.6 175.2 L103.6 175.4 L105.6 175.8 L107.5 176.3 L109.3 177 L111.1 177.8 L112.9 178.7 L114.5 179.8 L116.1 181 L117.5 182.4 L118.9 183.8 L120.1 185.4 L121.2 187 L122.2 188.7 L123 190.5 L123.7 192.4 L124.2 194.3 L124.6 196.2 L124.8 198.2 L124.9 200.2 Z " />
<path stroke="rgb(0,0,0)" stroke-opacity="1" fill="rgb(255,255,255)" fill-opacity="1" d="M-114.5 -73.48 L-115 -75.13 L-115.5 -76.79 L-116 -78.45 L-116.5 -80.11 L-117 -81.77 L-117.5 -83.42 L-118 -85.08 L-118.6 -86.74 L-119.1 -88.4 L-119.6 -90.06 L-120.1 -91.71 L-120.6 -93.37 L-121.1 -95.03 L-121.6 -96.69 L-122.1 -98.35 L-122.6 -100 L-123.1 -101.7 L-123.6 -103.3 L-124.1 -105 L-124.6 -106.6 L-125.1 -108.3 L-125.6 -110 L-126.1 -111.6 L-126.6 -113.3 L-127.1 -114.9 L-125.5 -115.4 L-123.8 -115.9 L-122.2 -116.4 L-120.5 -116.9 L-118.8 -117.4 L-117.2 -118 L-115.5 -118.5 L-113.9 -119 L-112.2 -119.5 L-110.6 -120 L-108.9 -120.5 L-107.2 -121 L-105.6 -121.5 L-103.9 -122 L-102.3 -122.5 L-100.6 -123 L-98.95 -123.5 L-97.29 -124 L-95.63 -124.5 L-93.97 -125 L-92.31 -125.5 L-90.66 -126 L-89 -126.5 L-87.34 -127 L-85.68 -127.5 L-85.18 -125.9 L-84.67 -124.2 L-84.17 -122.6 L-83.66 -120.9 L-83.16 -119.3 L-82.65 -117.6 L-82.15 -115.9 L-81.64 -114.3 L-81.14 -112.6 L-80.63 -111 L-80.13 -109.3 L-79.63 -107.6 L-79.12 -106 L-78.62 -104.3 L-78.11 -102.7 L-77.61 -101 L-77.1 -99.36 L-76.6 -97.7 L-76.09 -96.04 L-75.59 -94.38 L-75.08 -92.72 L-74.58 -91.07 L-74.07 -89.41 L-73.57 -87.75 L-73.07 -86.09 L-74.72 -85.59 L-76.38 -85.08 L-78.04 -84.58 L-79.7 -84.07 L-81.36 -83.57 L-83.01 -83.06 L-84.67 -82.56 L-86.33 -82.05 L-87.99 -81.55 L-89.65 -81.05 L-91.3 -80.54 L-92.96 -80.04 L-94.62 -79.53 L-96.28 -79.03 L-97.94 -78.52 L-99.59 -78.02 L-101.3 -77.51 L-102.9 -77.01 L-104.6 -76.5 L-106.2 -76 L-107.9 -75.49 L-109.5 -74.99 L-111.2 -74.48 L-112.9 -73.98 L-114.5 -73.48 Z " />
<path stroke="rgb(0,0,0)" stroke-opacity="0.892" fill="rgb(255,255,255)" fill-opacity="1" d="M324.9 200.2 L324.8 202.1 L324.5 204.1 L324.1 206 L323.6 207.9 L322.8 209.8 L322 211.6 L321 213.3 L319.9 214.9 L318.6 216.4 L317.3 217.9 L315.8 219.2 L314.2 220.4 L312.6 221.4 L310.8 222.4 L309 223.2 L307.1 223.8 L305.2 224.3 L303.3 224.6 L301.3 224.8 L299.3 224.8 L297.4 224.7 L295.4 224.4 L293.5 224 L291.6 223.4 L289.8 222.6 L288 221.8 L286.3 220.7 L284.7 219.6 L283.2 218.3 L281.8 216.9 L280.5 215.4 L279.4 213.8 L278.3 212.1 L277.4 210.4 L276.7 208.6 L276.1 206.7 L275.6 204.7 L275.3 202.8 L275.2 200.8 L275.2 198.8 L275.3 196.9 L275.7 194.9 L276.2 193 L276.8 191.1 L277.6 189.3 L278.5 187.6 L279.5 185.9 L280.7 184.3 L282 182.8 L283.4 181.5 L285 180.2 L286.6 179.1 L288.3 178.1 L290.1 177.2 L291.9 176.5 L293.8 175.9 L295.7 175.5 L297.7 175.3 L299.7 175.1 L301.6 175.2 L303.6 175.4 L305.6 175.8 L307.5 176.3 L309.3 177 L311.1 177.8 L312.9 178.7 L314.5 179.8 L316.1 181 L317.5 182.4 L318.9 183.8 L320.1 185.4 L321.2 187 L322.2 188.7 L323 190.5 L323.7 192.4 L324.2 194.3 L324.6 196.2 L324.8 198.2 L324.9 200.2 Z " />
<path stroke="rgb(0,0,0)" stroke-opacity="1" fill="rgb(255,255,255)" fill-opacity="1" d="M-589.1 14.34 L-590.2 14.2 L-591.2 14.06 L-592.3 13.91 L-593.3 13.77 L-594.3 13.63 L-595.4 13.49 L-596.4 13.35 L-597.4 13.21 L-598.5 13.07 L-599.5 12.93 L-600.6 12.79 L-601.6 12.65 L-602.6 12.51 L-603.7 12.37 L-604.7 12.23 L-605.7 12.08 L-606.8 11.94 L-607.8 11.8 L-608.9 11.66 L-609.9 11.52 L-610.9 11.38 L-612 11.24 L-613 11.1 L-614 10.96 L-615.1 10.82 L-614.9 9.781 L-614.8 8.744 L-614.7 7.706 L-614.5 6.669 L-614.4 5.632 L-614.2 4.595 L-614.1 3.558 L-613.9 2.521 L-613.8 1.484 L-613.7 0.4464 L-613.5 -0.5908 L-613.4 -1.628 L-613.2 -2.665 L-613.1 -3.702 L-613 -4.739 L-612.8 -5.777 L-612.7 -6.814 L-612.5 -7.851 L-612.4 -8.888 L-612.3 -9.925 L-612.1 -10.96 L-612 -12 L-611.8 -13.04 L-611.7 -14.07 L-611.6 -15.11 L-610.5 -14.97 L-609.5 -14.83 L-608.4 -14.69 L-607.4 -14.55 L-606.4 -14.41 L-605.3 -14.27 L-604.3 -14.13 L-603.3 -13.98 L-602.2 -13.84 L-601.2 -13.7 L-600.1 -13.56 L-599.1 -13.42 L-598.1 -13.28 L-597 -13.14 L-596 -13 L-595 -12.86 L-593.9 -12.72 L-592.9 -12.58 L-591.9 -12.44 L-590.8 -12.3 L-589.8 -12.15 L-588.7 -12.01 L-587.7 -11.87 L-586.7 -11.73 L-585.6 -11.59 L-585.8 -10.55 L-585.9 -9.517 L-586.1 -8.48 L-586.2 -7.443 L-586.3 -6.406 L-586.5 -5.369 L-586.6 -4.331 L-586.8 -3.294 L-586.9 -2.257 L-587 -1.22 L-587.2 -0.1829 L-587.3 0.8543 L-587.5 1.891 L-587.6 2.929 L-587.7 3.966 L-587.9 5.003 L-588 6.04 L-588.2 7.077 L-588.3 8.114 L-588.4 9.151 L-588.6 10.19 L-588.7 11.23 L-588.9 12.26 L-589 13.3 L-589.1 14.34 Z " />
<path stroke="rgb(0,0,0)" stroke-opacity="0.892" fill="rgb(255,255,255)" fill-opacity="1" d="M-175.1 300.2 L-175.2 302.1 L-175.5 304.1 L-175.9 306 L-176.4 307.9 L-177.2 309.8 L-178 311.6 L-179 313.3 L-180.1 314.9 L-181.4 316.4 L-182.7 317.9 L-184.2 319.2 L-185.8 320.4 L-187.4 321.4 L-189.2 322.4 L-191 323.2 L-192.9 323.8 L-194.8 324.3 L-196.7 324.6 L-198.7 324.8 L-200.7 324.8 L-202.6 324.7 L-204.6 324.4 L-206.5 324 L-208.4 323.4 L-210.2 322.6 L-212 321.8 L-213.7 320.7 L-215.3 319.6 L-216.8 318.3 L-218.2 316.9 L-219.5 315.4 L-220.6 313.8 L-221.7 312.1 L-222.6 310.4 L-223.3 308.6 L-223.9 306.7 L-224.4 304.7 L-224.7 302.8 L-224.8 300.8 L-224.8 298.8 L-224.7 296.9 L-224.3 294.9 L-223.8 293 L-223.2 291.1 L-222.4 289.3 L-221.5 287.6 L-220.5 285.9 L-219.3 284.3 L-218 282.8 L-216.6 281.5 L-215 280.2 L-213.4 279.1 L-211.7 278.1 L-209.9 277.2 L-208.1 276.5 L-206.2 275.9 L-204.3 275.5 L-202.3 275.3 L-200.3 275.1 L-198.4 275.2 L-196.4 275.4 L-194.4 275.8 L-192.5 276.3 L-190.7 277 L-188.9 277.8 L-187.1 278.7 L-185.5 279.8 L-183.9 281 L-182.5 282.4 L-181.1 283.8 L-179.9 285.4 L-178.8 287 L-177.8 288.7 L-177 290.5 L-176.3 292.4 L-175.8 294.3 L-175.4 296.2 L-175.2 298.2 L-175.1 300.2 Z " />
<path stroke="rgb(0,0,0)" stroke-opacity="1" fill="rgb(255,255,255)" fill-opacity="1" d="M-396 21.84 L-397.1 21.11 L-398.2 20.39 L-399.2 19.67 L-400.3 18.95 L-401.3 18.23 L-402.4 17.5 L-403.5 16.78 L-404.5 16.06 L-405.6 15.34 L-406.7 14.62 L-407.7 13.89 L-408.8 13.17 L-409.8 12.45 L-410.9 11.73 L-412 11.01 L-413 10.28 L-414.1 9.561 L-415.1 8.839 L-416.2 8.117 L-417.3 7.395 L-418.3 6.673 L-419.4 5.951 L-420.5 5.229 L-421.5 4.507 L-422.6 3.785 L-421.9 2.723 L-421.1 1.661 L-420.4 0.5993 L-419.7 -0.4625 L-419 -1.524 L-418.2 -2.586 L-417.5 -3.648 L-416.8 -4.71 L-416.1 -5.772 L-415.4 -6.833 L-414.6 -7.895 L-413.9 -8.957 L-413.2 -10.02 L-412.5 -11.08 L-411.8 -12.14 L-411 -13.2 L-410.3 -14.27 L-409.6 -15.33 L-408.9 -16.39 L-408.1 -17.45 L-407.4 -18.51 L-406.7 -19.58 L-406 -20.64 L-405.3 -21.7 L-404.5 -22.76 L-403.5 -22.04 L-402.4 -21.32 L-401.3 -20.59 L-400.3 -19.87 L-399.2 -19.15 L-398.2 -18.43 L-397.1 -17.71 L-396 -16.98 L-395 -16.26 L-393.9 -15.54 L-392.8 -14.82 L-391.8 -14.1 L-390.7 -13.37 L-389.7 -12.65 L-388.6 -11.93 L-387.5 -11.21 L-386.5 -10.49 L-385.4 -9.763 L-384.4 -9.041 L-383.3 -8.319 L-382.2 -7.597 L-381.2 -6.875 L-380.1 -6.153 L-379 -5.431 L-378 -4.708 L-378.7 -3.647 L-379.4 -2.585 L-380.2 -1.523 L-380.9 -0.4612 L-381.6 0.6006 L-382.3 1.662 L-383 2.724 L-383.8 3.786 L-384.5 4.848 L-385.2 5.91 L-385.9 6.971 L-386.6 8.033 L-387.4 9.095 L-388.1 10.16 L-388.8 11.22 L-389.5 12.28 L-390.3 13.34 L-391 14.4 L-391.7 15.47 L-392.4 16.53 L-393.1 17.59 L-393.9 18.65 L-394.6 19.71 L-395.3 20.78 L-396 21.84 Z " />
<path stroke="rgb(0,0,0)" stroke-opacity="0.892" fill="rgb(255,255,255)" fill-opacity="1" d="M24.85 300.2 L24.76 302.1 L24.51 304.1 L24.11 306 L23.55 307.9 L22.85 309.8 L22 311.6 L21.01 313.3 L19.89 314.9 L18.65 316.4 L17.28 317.9 L15.81 319.2 L14.23 320.4 L12.57 321.4 L10.83 322.4 L9.017 323.2 L7.148 323.8 L5.235 324.3 L3.288 324.6 L1.321 324.8 L-0.6549 324.8 L-2.627 324.7 L-4.581 324.4 L-6.507 324 L-8.392 323.4 L-10.22 322.6 L-11.99 321.8 L-13.68 320.7 L-15.29 319.6 L-16.8 318.3 L-18.2 316.9 L-19.48 315.4 L-20.65 313.8 L-21.68 312.1 L-22.58 310.4 L-23.33 308.6 L-23.94 306.7 L-24.39 304.7 L-24.69 302.8 L-24.83 300.8 L-24.82 298.8 L-24.65 296.9 L-24.33 294.9 L-23.85 293 L-23.22 291.1 L-22.44 289.3 L-21.52 287.6 L-20.47 285.9 L-19.28 284.3 L-17.97 282.8 L-16.55 281.5 L-15.03 280.2 L-13.41 279.1 L-11.71 278.1 L-9.927 277.2 L-8.085 276.5 L-6.193 275.9 L-4.261 275.5 L-2.303 275.3 L-0.3295 275.1 L1.646 275.2 L3.611 275.4 L5.553 275.8 L7.46 276.3 L9.319 277 L11.12 277.8 L12.85 278.7 L14.5 279.8 L16.06 281 L17.51 282.4 L18.86 283.8 L20.09 285.4 L21.18 287 L22.15 288.7 L22.98 290.5 L23.66 292.4 L24.19 294.3 L24.56 296.2 L24.79 298.2 L24.85 300.2 Z " />
<path stroke="rgb(0,0,0)" stroke-opacity="1" fill="rgb(255,255,255)" fill-opacity="1" d="M-214.5 26.52 L-215 24.87 L-215.5 23.21 L-216 21.55 L-216.5 19.89 L-217 18.23 L-217.5 16.58 L-218 14.92 L-218.6 13.26 L-219.1 11.6 L-219.6 9.944 L-220.1 8.286 L-220.6 6.628 L-221.1 4.97 L-221.6 3.312 L-222.1 1.654 L-222.6 -0.003544 L-223.1 -1.662 L-223.6 -3.32 L-224.1 -4.978 L-224.6 -6.636 L-225.1 -8.294 L-225.6 -9.952 L-226.1 -11.61 L-226.6 -13.27 L-227.1 -14.93 L-225.5 -15.43 L-223.8 -15.93 L-222.2 -16.44 L-220.5 -16.94 L-218.8 -17.45 L-217.2 -17.95 L-215.5 -18.46 L-213.9 -18.96 L-212.2 -19.47 L-210.6 -19.97 L-208.9 -20.48 L-207.2 -20.98 L-205.6 -21.49 L-203.9 -21.99 L-202.3 -22.5 L-200.6 -23 L-198.9 -23.5 L-197.3 -24.01 L-195.6 -24.51 L-194 -25.02 L-192.3 -25.52 L-190.7 -26.03 L-189 -26.53 L-187.3 -27.04 L-185.7 -27.54 L-185.2 -25.88 L-184.7 -24.23 L-184.2 -22.57 L-183.7 -20.91 L-183.2 -19.25 L-182.7 -17.59 L-182.1 -15.94 L-181.6 -14.28 L-181.1 -12.62 L-180.6 -10.96 L-180.1 -9.304 L-179.6 -7.646 L-179.1 -5.988 L-178.6 -4.33 L-178.1 -2.672 L-177.6 -1.014 L-177.1 0.6441 L-176.6 2.302 L-176.1 3.96 L-175.6 5.618 L-175.1 7.276 L-174.6 8.934 L-174.1 10.59 L-173.6 12.25 L-173.1 13.91 L-174.7 14.41 L-176.4 14.92 L-178 15.42 L-179.7 15.93 L-181.4 16.43 L-183 16.94 L-184.7 17.44 L-186.3 17.95 L-188 18.45 L-189.6 18.95 L-191.3 19.46 L-193 19.96 L-194.6 20.47 L-196.3 20.97 L-197.9 21.48 L-199.6 21.98 L-201.3 22.49 L-202.9 22.99 L-204.6 23.5 L-206.2 24 L-207.9 24.51 L-209.5 25.01 L-211.2 25.52 L-212.9 26.02 L-214.5 26.52 Z " />
<path stroke="rgb(0,0,0)" stroke-opacity="0.892" fill="rgb(255,255,255)" fill-opacity="1" d="M224.9 300.2 L224.8 302.1 L224.5 304.1 L224.1 306 L223.6 307.9 L222.8 309.8 L222 311.6 L221 313.3 L219.9 314.9 L218.6 316.4 L217.3 317.9 L215.8 319.2 L214.2 320.4 L212.6 321.4 L210.8 322.4 L209 323.2 L207.1 323.8 L205.2 324.3 L203.3 324.6 L201.3 324.8 L199.3 324.8 L197.4 324.7 L195.4 324.4 L193.5 324 L191.6 323.4 L189.8 322.6 L188 321.8 L186.3 320.7 L184.7 319.6 L183.2 318.3 L181.8 316.9 L180.5 315.4 L179.4 313.8 L178.3 312.1 L177.4 310.4 L176.7 308.6 L176.1 306.7 L175.6 304.7 L175.3 302.8 L175.2 300.8 L175.2 298.8 L175.3 296.9 L175.7 294.9 L176.2 293 L176.8 291.1 L177.6 289.3 L178.5 287.6 L179.5 285.9 L180.7 284.3 L182 282.8 L183.4 281.5 L185 280.2 L186.6 279.1 L188.3 278.1 L190.1 277.2 L191.9 276.5 L193.8 275.9 L195.7 275.5 L197.7 275.3 L199.7 275.1 L201.6 275.2 L203.6 275.4 L205.6 275.8 L207.5 276.3 L209.3 277 L211.1 277.8 L212.9 278.7 L214.5 279.8 L216.1 281 L217.5 282.4 L218.9 283.8 L220.1 285.4 L221.2 287 L222.2 288.7 L223 290.5 L223.7 292.4 L224.2 294.3 L224.6 296.2 L224.8 298.2 L224.9 300.2 Z " />
<path stroke="rgb(0,0,0)" stroke-opacity="1" fill="rgb(255,255,255)" fill-opacity="1" d="M-23.58 24.61 L-23.64 22.66 L-23.7 20.71 L-23.77 18.77 L-23.83 16.82 L-23.89 14.87 L-23.95 12.93 L-24.01 10.98 L-24.07 9.033 L-24.13 7.086 L-24.19 5.14 L-24.25 3.193 L-24.31 1.246 L-24.37 -0.7012 L-24.44 -2.648 L-24.5 -4.595 L-24.56 -6.542 L-24.62 -8.489 L-24.68 -10.44 L-24.74 -12.38 L-24.8 -14.33 L-24.86 -16.28 L-24.92 -18.22 L-24.98 -20.17 L-25.04 -22.12 L-25.11 -24.06 L-23.16 -24.13 L-21.21 -24.19 L-19.27 -24.25 L-17.32 -24.31 L-15.37 -24.37 L-13.42 -24.43 L-11.48 -24.49 L-9.531 -24.55 L-7.584 -24.61 L-5.637 -24.67 L-3.69 -24.73 L-1.743 -24.8 L0.204 -24.86 L2.151 -24.92 L4.098 -24.98 L6.045 -25.04 L7.992 -25.1 L9.939 -25.16 L11.89 -25.22 L13.83 -25.28 L15.78 -25.34 L17.73 -25.4 L19.67 -25.47 L21.62 -25.53 L23.57 -25.59 L23.63 -23.64 L23.69 -21.69 L23.75 -19.75 L23.81 -17.8 L23.87 -15.85 L23.93 -13.91 L23.99 -11.96 L24.05 -10.01 L24.12 -8.066 L24.18 -6.119 L24.24 -4.172 L24.3 -2.225 L24.36 -0.2779 L24.42 1.669 L24.48 3.616 L24.54 5.563 L24.6 7.51 L24.66 9.457 L24.72 11.4 L24.79 13.35 L24.85 15.3 L24.91 17.24 L24.97 19.19 L25.03 21.14 L25.09 23.09 L23.14 23.15 L21.2 23.21 L19.25 23.27 L17.3 23.33 L15.36 23.39 L13.41 23.45 L11.46 23.51 L9.515 23.57 L7.568 23.63 L5.621 23.69 L3.675 23.76 L1.728 23.82 L-0.2193 23.88 L-2.166 23.94 L-4.113 24 L-6.06 24.06 L-8.007 24.12 L-9.954 24.18 L-11.9 24.24 L-13.85 24.3 L-15.79 24.36 L-17.74 24.43 L-19.69 24.49 L-21.64 24.55 L-23.58 24.61 Z " />
</g>
</g>
</svg>
