<!DOCTYPE svg>
<svg xmlns="http://www.w3.org/2000/svg" xmlns:xlink="http://www.w3.org/1999/xlink" width="1000" height="1000">
<g transform="translate(500.000000,500.000000)">
<g transform="scale(3.000000,3.000000)">
<path stroke="rgb(0,0,0)" stroke-opacity="1" fill="rgb(255,255,255)" fill-opacity="1" d="M-715.1 -690.7 L-715.1 -691.7 L-715 -692.7 L-715 -693.7 L-715 -694.7 L-714.9 -695.7 L-714.9 -696.7 L-714.8 -697.6 L-714.8 -698.6 L-714.7 -699.6 L-714.7 -700.6 L-714.7 -701.6 L-714.6 -702.6 L-714.6 -703.5 L-714.5 -704.5 L-714.5 -705.5 L-714.4 -706.5 L-714.4 -707.5 L-714.3 -708.5 L-714.3 -709.5 L-714.3 -710.4 L-714.2 -711.4 L-714.2 -712.4 L-714.1 -713.4 L-714.1 -714.4 L-714 -715.4 L-713.1 -715.3 L-712.1 -715.3 L-711.1 -715.2 L-710.1 -715.2 L-709.1 -715.2 L-708.1 -715.1 L-707.2 -715.1 L-706.2 -715 L-705.2 -715 L-704.2 -714.9 L-703.2 -714.9 L-702.2 -714.9 L-701.2 -714.8 L-700.3 -714.8 L-699.3 -714.7 L-698.3 -714.7 L-697.3 -714.6 L-696.3 -714.6 L-695.3 -714.6 L-694.3 -714.5 L-693.4 -714.5 L-692.4 -714.4 L-691.4 -714.4 L-690.4 -714.3 L-689.4 -714.3 L-689.5 -713.3 L-689.5 -712.3 L-689.5 -711.3 L-689.6 -710.4 L-689.6 -709.4 L-689.7 -708.4 L-689.7 -707.4 L-689.8 -706.4 L-689.8 -705.4 L-689.8 -704.4 L-689.9 -703.5 L-689.9 -702.5 L-690 -701.5 L-690 -700.5 L-690.1 -699.5 L-690.1 -698.5 L-690.2 -697.5 L-690.2 -696.6 L-690.2 -695.6 L-690.3 -694.6 L-690.3 -693.6 L-690.4 -692.6 L-690.4 -691.6 L-690.5 -690.6 L-690.5 -689.7 L-691.5 -689.7 L-692.5 -689.7 L-693.5 -689.8 L-694.4 -689.8 L-695.4 -689.9 L-696.4 -689.9 L-697.4 -690 L-698.4 -690 L-699.4 -690 L-700.3 -690.1 L-701.3 -690.1 L-702.3 -690.2 L-703.3 -690.2 L-704.3 -690.3 L-705.3 -690.3 L-706.3 -690.4 L-707.2 -690.4 L-708.2 -690.4 L-709.2 -690.5 L-710.2 -690.5 L-711.2 -690.6 L-712.2 -690.6 L-713.2 -690.7 L-714.1 -690.7 L-715.1 -690.7 Z " />
<path stroke="rgb(0,0,0)" stroke-opacity="1" fill="rgb(255,255,255)" fill-opacity="1" d="M-198.9 -312.5 L-197.8 -312.4 L-196.9 -312.2 L-195.9 -312 L-194.9 -311.6 L-194 -311.2 L-193.1 -310.7 L-192.3 -310.2 L-191.5 -309.5 L-190.7 -308.9 L-190.1 -308.1 L-189.4 -307.3 L-188.9 -306.5 L-188.4 -305.6 L-188 -304.7 L-187.6 -303.7 L-187.3 -302.8 L-187.1 -301.8 L-187 -300.8 L-187 -299.8 L-187 -298.7 L-187.2 -297.7 L-187.4 -296.8 L-187.7 -295.8 L-188 -294.8 L-188.5 -293.9 L-189 -293.1 L-189.5 -292.2 L-190.2 -291.4 L-190.9 -290.7 L-191.6 -290 L-192.4 -289.4 L-193.3 -288.9 L-194.2 -288.4 L-195.1 -288 L-196 -287.7 L-197 -287.4 L-198 -287.2 L-199 -287.2 L-200 -287.1 L-201 -287.2 L-202 -287.4 L-203 -287.6 L-204 -287.9 L-204.9 -288.3 L-205.8 -288.7 L-206.7 -289.2 L-207.5 -289.8 L-208.3 -290.5 L-209 -291.2 L-209.7 -292 L-210.3 -292.8 L-210.8 -293.6 L-211.2 -294.5 L-211.6 -295.5 L-211.9 -296.4 L-212.2 -297.4 L-212.3 -298.4 L-212.4 -299.4 L-212.4 -300.4 L-212.3 -301.4 L-212.1 -302.4 L-211.9 -303.4 L-211.6 -304.4 L-211.2 -305.3 L-210.7 -306.2 L-210.2 -307.1 L-209.6 -307.9 L-208.9 -308.6 L-208.2 -309.3 L-207.4 -310 L-206.5 -310.5 L-205.7 -311 L-204.8 -311.5 L-203.8 -311.9 L-202.9 -312.1 L-201.9 -312.4 L-200.9 -312.5 L-199.9 -312.5 L-198.9 -312.5 Z " />
<path stroke="rgb(0,0,0)" stroke-opacity="1" fill="rgb(255,255,255)" fill-opacity="1" d="M-512.7 -688.3 L-512.7 -689.3 L-512.7 -690.3 L-512.7 -691.3 L-512.7 -692.3 L-512.7 -693.3 L-512.7 -694.2 L-512.6 -695.2 L-512.6 -696.2 L-512.6 -697.2 L-512.6 -698.2 L-512.6 -699.2 L-512.6 -700.2 L-512.6 -701.1 L-512.6 -702.1 L-512.6 -703.1 L-512.5 -704.1 L-512.5 -705.1 L-512.5 -706.1 L-512.5 -707.1 L-512.5 -708 L-512.5 -709 L-512.5 -710 L-512.5 -711 L-512.4 -712 L-512.4 -713 L-511.4 -713 L-510.5 -712.9 L-509.5 -712.9 L-508.5 -712.9 L-507.5 -712.9 L-506.5 -712.9 L-505.5 -712.9 L-504.5 -712.9 L-503.6 -712.9 L-502.6 -712.9 L-501.6 -712.8 L-500.6 -712.8 L-499.6 -712.8 L-498.6 -712.8 L-497.6 -712.8 L-496.7 -712.8 L-495.7 -712.8 L-494.7 -712.8 L-493.7 -712.7 L-492.7 -712.7 L-491.7 -712.7 L-490.7 -712.7 L-489.8 -712.7 L-488.8 -712.7 L-487.8 -712.7 L-487.8 -711.7 L-487.8 -710.7 L-487.8 -709.7 L-487.8 -708.7 L-487.8 -707.7 L-487.8 -706.8 L-487.9 -705.8 L-487.9 -704.8 L-487.9 -703.8 L-487.9 -702.8 L-487.9 -701.8 L-487.9 -700.8 L-487.9 -699.9 L-487.9 -698.9 L-488 -697.9 L-488 -696.9 L-488 -695.9 L-488 -694.9 L-488 -693.9 L-488 -693 L-488 -692 L-488 -691 L-488.1 -690 L-488.1 -689 L-488.1 -688 L-489.1 -688 L-490 -688 L-491 -688.1 L-492 -688.1 L-493 -688.1 L-494 -688.1 L-495 -688.1 L-496 -688.1 L-497 -688.1 L-497.9 -688.1 L-498.9 -688.2 L-499.9 -688.2 L-500.9 -688.2 L-501.9 -688.2 L-502.9 -688.2 L-503.9 -688.2 L-504.8 -688.2 L-505.8 -688.2 L-506.8 -688.2 L-507.8 -688.3 L-508.8 -688.3 L-509.8 -688.3 L-510.8 -688.3 L-511.7 -688.3 L-512.7 -688.3 Z " />
<path stroke="rgb(0,0,0)" stroke-opacity="1" fill="rgb(255,255,255)" fill-opacity="1" d="M9.525 -313.1 L10.55 -312.3 L11.5 -311.4 L12.39 -310.5 L13.19 -309.5 L13.92 -308.4 L14.56 -307.3 L15.1 -306.1 L15.56 -304.9 L15.91 -303.7 L16.17 -302.4 L16.33 -301.2 L16.38 -299.9 L16.33 -298.6 L16.18 -297.3 L15.93 -296 L15.58 -294.8 L15.13 -293.6 L14.59 -292.4 L13.95 -291.3 L13.23 -290.2 L12.43 -289.2 L11.55 -288.3 L10.6 -287.4 L9.579 -286.6 L8.501 -285.9 L7.372 -285.3 L6.196 -284.8 L4.983 -284.4 L3.74 -284 L2.474 -283.8 L1.193 -283.7 L-0.09308 -283.7 L-1.378 -283.7 L-2.653 -283.9 L-3.909 -284.2 L-5.14 -284.6 L-6.337 -285 L-7.493 -285.6 L-8.6 -286.2 L-9.652 -287 L-10.64 -287.8 L-11.56 -288.7 L-12.41 -289.7 L-13.18 -290.7 L-13.86 -291.8 L-14.45 -292.9 L-14.95 -294.1 L-15.36 -295.4 L-15.66 -296.6 L-15.87 -297.9 L-15.97 -299.2 L-15.98 -300.4 L-15.88 -301.7 L-15.68 -303 L-15.37 -304.3 L-14.97 -305.5 L-14.48 -306.7 L-13.89 -307.8 L-13.21 -308.9 L-12.45 -309.9 L-11.61 -310.9 L-10.69 -311.8 L-9.704 -312.6 L-8.655 -313.4 L-7.551 -314 L-6.397 -314.6 L-5.202 -315.1 L-3.973 -315.5 L-2.717 -315.8 L-1.443 -315.9 L-0.1587 -316 L1.128 -316 L2.409 -315.9 L3.676 -315.6 L4.92 -315.3 L6.135 -314.9 L7.313 -314.4 L8.445 -313.8 L9.525 -313.1 Z " />
<path stroke="rgb(0,0,0)" stroke-opacity="1" fill="rgb(255,255,255)" fill-opacity="1" d="M-312.6 -688.2 L-312.6 -689.1 L-312.5 -690.1 L-312.5 -691.1 L-312.5 -692.1 L-312.5 -693.1 L-312.5 -694.1 L-312.5 -695.1 L-312.5 -696 L-312.5 -697 L-312.5 -698 L-312.5 -699 L-312.4 -700 L-312.4 -701 L-312.4 -702 L-312.4 -702.9 L-312.4 -703.9 L-312.4 -704.9 L-312.4 -705.9 L-312.4 -706.9 L-312.4 -707.9 L-312.4 -708.9 L-312.4 -709.8 L-312.3 -710.8 L-312.3 -711.8 L-312.3 -712.8 L-311.3 -712.8 L-310.3 -712.8 L-309.4 -712.8 L-308.4 -712.8 L-307.4 -712.8 L-306.4 -712.7 L-305.4 -712.7 L-304.4 -712.7 L-303.4 -712.7 L-302.5 -712.7 L-301.5 -712.7 L-300.5 -712.7 L-299.5 -712.7 L-298.5 -712.7 L-297.5 -712.7 L-296.5 -712.7 L-295.6 -712.6 L-294.6 -712.6 L-293.6 -712.6 L-292.6 -712.6 L-291.6 -712.6 L-290.6 -712.6 L-289.6 -712.6 L-288.7 -712.6 L-287.7 -712.6 L-287.7 -711.6 L-287.7 -710.6 L-287.7 -709.6 L-287.7 -708.6 L-287.7 -707.6 L-287.7 -706.6 L-287.7 -705.7 L-287.7 -704.7 L-287.8 -703.7 L-287.8 -702.7 L-287.8 -701.7 L-287.8 -700.7 L-287.8 -699.7 L-287.8 -698.8 L-287.8 -697.8 L-287.8 -696.8 L-287.8 -695.8 L-287.8 -694.8 L-287.9 -693.8 L-287.9 -692.8 L-287.9 -691.9 L-287.9 -690.9 L-287.9 -689.9 L-287.9 -688.9 L-287.9 -687.9 L-288.9 -687.9 L-289.9 -687.9 L-290.9 -687.9 L-291.9 -688 L-292.8 -688 L-293.8 -688 L-294.8 -688 L-295.8 -688 L-296.8 -688 L-297.8 -688 L-298.8 -688 L-299.7 -688 L-300.7 -688 L-301.7 -688 L-302.7 -688.1 L-303.7 -688.1 L-304.7 -688.1 L-305.7 -688.1 L-306.6 -688.1 L-307.6 -688.1 L-308.6 -688.1 L-309.6 -688.1 L-310.6 -688.1 L-311.6 -688.1 L-312.6 -688.2 Z " />
<path stroke="rgb(0,0,0)" stroke-opacity="1" fill="rgb(255,255,255)" fill-opacity="1" d="M222.9 -303.3 L223.1 -301.5 L223.2 -299.7 L223.1 -297.8 L222.8 -296 L222.5 -294.2 L221.9 -292.5 L221.3 -290.7 L220.5 -289.1 L219.5 -287.5 L218.5 -286 L217.3 -284.6 L216 -283.2 L214.7 -282 L213.2 -280.9 L211.6 -279.9 L210 -279.1 L208.3 -278.3 L206.6 -277.7 L204.8 -277.3 L203 -277 L201.1 -276.8 L199.3 -276.8 L197.5 -277 L195.6 -277.2 L193.8 -277.6 L192.1 -278.2 L190.4 -278.9 L188.7 -279.7 L187.2 -280.7 L185.7 -281.8 L184.3 -283 L183 -284.3 L181.8 -285.7 L180.7 -287.2 L179.8 -288.8 L178.9 -290.4 L178.2 -292.1 L177.7 -293.9 L177.3 -295.7 L177 -297.5 L176.9 -299.3 L176.9 -301.2 L177.1 -303 L177.4 -304.8 L177.8 -306.6 L178.4 -308.3 L179.2 -310 L180 -311.6 L181 -313.2 L182.1 -314.7 L183.4 -316 L184.7 -317.3 L186.1 -318.5 L187.6 -319.5 L189.2 -320.4 L190.9 -321.2 L192.6 -321.9 L194.4 -322.4 L196.2 -322.8 L198 -323 L199.8 -323.1 L201.7 -323 L203.5 -322.8 L205.3 -322.5 L207.1 -322 L208.8 -321.4 L210.5 -320.6 L212.1 -319.7 L213.6 -318.7 L215.1 -317.5 L216.4 -316.3 L217.7 -314.9 L218.8 -313.5 L219.8 -312 L220.7 -310.3 L221.5 -308.7 L222.1 -306.9 L222.6 -305.2 L222.9 -303.3 Z " />
<path stroke="rgb(0,0,0)" stroke-opacity="1" fill="rgb(255,255,255)" fill-opacity="1" d="M-112.6 -688.2 L-112.6 -689.1 L-112.5 -690.1 L-112.5 -691.1 L-112.5 -692.1 L-112.5 -693.1 L-112.5 -694.1 L-112.5 -695.1 L-112.5 -696 L-112.5 -697 L-112.5 -698 L-112.5 -699 L-112.4 -700 L-112.4 -701 L-112.4 -702 L-112.4 -702.9 L-112.4 -703.9 L-112.4 -704.9 L-112.4 -705.9 L-112.4 -706.9 L-112.4 -707.9 L-112.4 -708.9 L-112.4 -709.8 L-112.3 -710.8 L-112.3 -711.8 L-112.3 -712.8 L-111.3 -712.8 L-110.3 -712.8 L-109.4 -712.8 L-108.4 -712.8 L-107.4 -712.8 L-106.4 -712.7 L-105.4 -712.7 L-104.4 -712.7 L-103.4 -712.7 L-102.5 -712.7 L-101.5 -712.7 L-100.5 -712.7 L-99.5 -712.7 L-98.51 -712.7 L-97.53 -712.7 L-96.54 -712.7 L-95.56 -712.6 L-94.57 -712.6 L-93.58 -712.6 L-92.6 -712.6 L-91.61 -712.6 L-90.63 -712.6 L-89.64 -712.6 L-88.65 -712.6 L-87.67 -712.6 L-87.68 -711.6 L-87.69 -710.6 L-87.7 -709.6 L-87.71 -708.6 L-87.72 -707.6 L-87.73 -706.6 L-87.74 -705.7 L-87.74 -704.7 L-87.75 -703.7 L-87.76 -702.7 L-87.77 -701.7 L-87.78 -700.7 L-87.79 -699.7 L-87.8 -698.8 L-87.81 -697.8 L-87.82 -696.8 L-87.83 -695.8 L-87.84 -694.8 L-87.85 -693.8 L-87.86 -692.8 L-87.87 -691.9 L-87.88 -690.9 L-87.89 -689.9 L-87.9 -688.9 L-87.91 -687.9 L-88.9 -687.9 L-89.88 -687.9 L-90.87 -687.9 L-91.85 -688 L-92.84 -688 L-93.83 -688 L-94.81 -688 L-95.8 -688 L-96.79 -688 L-97.77 -688 L-98.76 -688 L-99.74 -688 L-100.7 -688 L-101.7 -688 L-102.7 -688.1 L-103.7 -688.1 L-104.7 -688.1 L-105.7 -688.1 L-106.6 -688.1 L-107.6 -688.1 L-108.6 -688.1 L-109.6 -688.1 L-110.6 -688.1 L-111.6 -688.1 L-112.6 -688.2 Z " />
<path stroke="rgb(0,0,0)" stroke-opacity="1" fill="rgb(255,255,255)" fill-opacity="1" d="M-298.9 -212.5 L-297.8 -212.4 L-296.9 -212.2 L-295.9 -212 L-294.9 -211.6 L-294 -211.2 L-293.1 -210.7 L-292.3 -210.2 L-291.5 -209.5 L-290.7 -208.9 L-290.1 -208.1 L-289.4 -207.3 L-288.9 -206.5 L-288.4 -205.6 L-288 -204.7 L-287.6 -203.7 L-287.3 -202.8 L-287.1 -201.8 L-287 -200.8 L-287 -199.8 L-287 -198.7 L-287.2 -197.7 L-287.4 -196.8 L-287.7 -195.8 L-288 -194.8 L-288.5 -193.9 L-289 -193.1 L-289.5 -192.2 L-290.2 -191.4 L-290.9 -190.7 L-291.6 -190 L-292.4 -189.4 L-293.3 -188.9 L-294.2 -188.4 L-295.1 -188 L-296 -187.7 L-297 -187.4 L-298 -187.2 L-299 -187.2 L-300 -187.1 L-301 -187.2 L-302 -187.4 L-303 -187.6 L-304 -187.9 L-304.9 -188.3 L-305.8 -188.7 L-306.7 -189.2 L-307.5 -189.8 L-308.3 -190.5 L-309 -191.2 L-309.7 -192 L-310.3 -192.8 L-310.8 -193.6 L-311.2 -194.5 L-311.6 -195.5 L-311.9 -196.4 L-312.2 -197.4 L-312.3 -198.4 L-312.4 -199.4 L-312.4 -200.4 L-312.3 -201.4 L-312.1 -202.4 L-311.9 -203.4 L-311.6 -204.4 L-311.2 -205.3 L-310.7 -206.2 L-310.2 -207.1 L-309.6 -207.9 L-308.9 -208.6 L-308.2 -209.3 L-307.4 -210 L-306.5 -210.5 L-305.7 -211 L-304.8 -211.5 L-303.8 -211.9 L-302.9 -212.1 L-301.9 -212.4 L-300.9 -212.5 L-299.9 -212.5 L-298.9 -212.5 Z " />
<path stroke="rgb(0,0,0)" stroke-opacity="1" fill="rgb(255,255,255)" fill-opacity="1" d="M-612.7 -588.3 L-612.7 -589.3 L-612.7 -590.3 L-612.7 -591.3 L-612.7 -592.3 L-612.7 -593.3 L-612.7 -594.2 L-612.6 -595.2 L-612.6 -596.2 L-612.6 -597.2 L-612.6 -598.2 L-612.6 -599.2 L-612.6 -600.2 L-612.6 -601.1 L-612.6 -602.1 L-612.6 -603.1 L-612.5 -604.1 L-612.5 -605.1 L-612.5 -606.1 L-612.5 -607.1 L-612.5 -608 L-612.5 -609 L-612.5 -610 L-612.5 -611 L-612.4 -612 L-612.4 -613 L-611.4 -613 L-610.5 -612.9 L-609.5 -612.9 L-608.5 -612.9 L-607.5 -612.9 L-606.5 -612.9 L-605.5 -612.9 L-604.5 -612.9 L-603.6 -612.9 L-602.6 -612.9 L-601.6 -612.8 L-600.6 -612.8 L-599.6 -612.8 L-598.6 -612.8 L-597.6 -612.8 L-596.7 -612.8 L-595.7 -612.8 L-594.7 -612.8 L-593.7 -612.7 L-592.7 -612.7 L-591.7 -612.7 L-590.7 -612.7 L-589.8 -612.7 L-588.8 -612.7 L-587.8 -612.7 L-587.8 -611.7 L-587.8 -610.7 L-587.8 -609.7 L-587.8 -608.7 L-587.8 -607.7 L-587.8 -606.8 L-587.9 -605.8 L-587.9 -604.8 L-587.9 -603.8 L-587.9 -602.8 L-587.9 -601.8 L-587.9 -600.8 L-587.9 -599.9 L-587.9 -598.9 L-588 -597.9 L-588 -596.9 L-588 -595.9 L-588 -594.9 L-588 -593.9 L-588 -593 L-588 -592 L-588 -591 L-588.1 -590 L-588.1 -589 L-588.1 -588 L-589.1 -588 L-590 -588 L-591 -588.1 L-592 -588.1 L-593 -588.1 L-594 -588.1 L-595 -588.1 L-596 -588.1 L-597 -588.1 L-597.9 -588.1 L-598.9 -588.2 L-599.9 -588.2 L-600.9 -588.2 L-601.9 -588.2 L-602.9 -588.2 L-603.9 -588.2 L-604.8 -588.2 L-605.8 -588.2 L-606.8 -588.2 L-607.8 -588.3 L-608.8 -588.3 L-609.8 -588.3 L-610.8 -588.3 L-611.7 -588.3 L-612.7 -588.3 Z " />
<path stroke="rgb(0,0,0)" stroke-opacity="1" fill="rgb(255,255,255)" fill-opacity="1" d="M-90.47 -213.1 L-89.45 -212.3 L-88.5 -211.4 L-87.61 -210.5 L-86.81 -209.5 L-86.08 -208.4 L-85.44 -207.3 L-84.9 -206.1 L-84.44 -204.9 L-84.09 -203.7 L-83.83 -202.4 L-83.67 -201.2 L-83.62 -199.9 L-83.67 -198.6 L-83.82 -197.3 L-84.07 -196 L-84.42 -194.8 L-84.87 -193.6 L-85.41 -192.4 L-86.05 -191.3 L-86.77 -190.2 L-87.57 -189.2 L-88.45 -188.3 L-89.4 -187.4 L-90.42 -186.6 L-91.5 -185.9 L-92.63 -185.3 L-93.8 -184.8 L-95.02 -184.4 L-96.26 -184 L-97.53 -183.8 L-98.81 -183.7 L-100.1 -183.7 L-101.4 -183.7 L-102.7 -183.9 L-103.9 -184.2 L-105.1 -184.6 L-106.3 -185 L-107.5 -185.6 L-108.6 -186.2 L-109.7 -187 L-110.6 -187.8 L-111.6 -188.7 L-112.4 -189.7 L-113.2 -190.7 L-113.9 -191.8 L-114.5 -192.9 L-115 -194.1 L-115.4 -195.4 L-115.7 -196.6 L-115.9 -197.9 L-116 -199.2 L-116 -200.4 L-115.9 -201.7 L-115.7 -203 L-115.4 -204.3 L-115 -205.5 L-114.5 -206.7 L-113.9 -207.8 L-113.2 -208.9 L-112.4 -209.9 L-111.6 -210.9 L-110.7 -211.8 L-109.7 -212.6 L-108.7 -213.4 L-107.6 -214 L-106.4 -214.6 L-105.2 -215.1 L-104 -215.5 L-102.7 -215.8 L-101.4 -215.9 L-100.2 -216 L-98.87 -216 L-97.59 -215.9 L-96.32 -215.6 L-95.08 -215.3 L-93.86 -214.9 L-92.69 -214.4 L-91.55 -213.8 L-90.47 -213.1 Z " />
<path stroke="rgb(0,0,0)" stroke-opacity="1" fill="rgb(255,255,255)" fill-opacity="1" d="M-412.6 -588.2 L-412.6 -589.1 L-412.5 -590.1 L-412.5 -591.1 L-412.5 -592.1 L-412.5 -593.1 L-412.5 -594.1 L-412.5 -595.1 L-412.5 -596 L-412.5 -597 L-412.5 -598 L-412.5 -599 L-412.4 -600 L-412.4 -601 L-412.4 -602 L-412.4 -602.9 L-412.4 -603.9 L-412.4 -604.9 L-412.4 -605.9 L-412.4 -606.9 L-412.4 -607.9 L-412.4 -608.9 L-412.4 -609.8 L-412.3 -610.8 L-412.3 -611.8 L-412.3 -612.8 L-411.3 -612.8 L-410.3 -612.8 L-409.4 -612.8 L-408.4 -612.8 L-407.4 -612.8 L-406.4 -612.7 L-405.4 -612.7 L-404.4 -612.7 L-403.4 -612.7 L-402.5 -612.7 L-401.5 -612.7 L-400.5 -612.7 L-399.5 -612.7 L-398.5 -612.7 L-397.5 -612.7 L-396.5 -612.7 L-395.6 -612.6 L-394.6 -612.6 L-393.6 -612.6 L-392.6 -612.6 L-391.6 -612.6 L-390.6 -612.6 L-389.6 -612.6 L-388.7 -612.6 L-387.7 -612.6 L-387.7 -611.6 L-387.7 -610.6 L-387.7 -609.6 L-387.7 -608.6 L-387.7 -607.6 L-387.7 -606.6 L-387.7 -605.7 L-387.7 -604.7 L-387.8 -603.7 L-387.8 -602.7 L-387.8 -601.7 L-387.8 -600.7 L-387.8 -599.7 L-387.8 -598.8 L-387.8 -597.8 L-387.8 -596.8 L-387.8 -595.8 L-387.8 -594.8 L-387.9 -593.8 L-387.9 -592.8 L-387.9 -591.9 L-387.9 -590.9 L-387.9 -589.9 L-387.9 -588.9 L-387.9 -587.9 L-388.9 -587.9 L-389.9 -587.9 L-390.9 -587.9 L-391.9 -588 L-392.8 -588 L-393.8 -588 L-394.8 -588 L-395.8 -588 L-396.8 -588 L-397.8 -588 L-398.8 -588 L-399.7 -588 L-400.7 -588 L-401.7 -588 L-402.7 -588.1 L-403.7 -588.1 L-404.7 -588.1 L-405.7 -588.1 L-406.6 -588.1 L-407.6 -588.1 L-408.6 -588.1 L-409.6 -588.1 L-410.6 -588.1 L-411.6 -588.1 L-412.6 -588.2 Z " />
<path stroke="rgb(0,0,0)" stroke-opacity="1" fill="rgb(255,255,255)" fill-opacity="1" d="M122.9 -203.3 L123.1 -201.5 L123.2 -199.7 L123.1 -197.8 L122.8 -196 L122.5 -194.2 L121.9 -192.5 L121.3 -190.7 L120.5 -189.1 L119.5 -187.5 L118.5 -186 L117.3 -184.6 L116 -183.2 L114.7 -182 L113.2 -180.9 L111.6 -179.9 L110 -179.1 L108.3 -178.3 L106.6 -177.7 L104.8 -177.3 L103 -177 L101.1 -176.8 L99.29 -176.8 L97.45 -177 L95.63 -177.2 L93.84 -177.6 L92.09 -178.2 L90.39 -178.9 L88.74 -179.7 L87.17 -180.7 L85.68 -181.8 L84.29 -183 L82.99 -184.3 L81.8 -185.7 L80.72 -187.2 L79.77 -188.8 L78.94 -190.4 L78.25 -192.1 L77.69 -193.9 L77.28 -195.7 L77.01 -197.5 L76.89 -199.3 L76.91 -201.2 L77.08 -203 L77.39 -204.8 L77.85 -206.6 L78.44 -208.3 L79.18 -210 L80.04 -211.6 L81.03 -213.2 L82.14 -214.7 L83.37 -216 L84.7 -217.3 L86.12 -218.5 L87.64 -219.5 L89.23 -220.4 L90.89 -221.2 L92.61 -221.9 L94.38 -222.4 L96.18 -222.8 L98.01 -223 L99.84 -223.1 L101.7 -223 L103.5 -222.8 L105.3 -222.5 L107.1 -222 L108.8 -221.4 L110.5 -220.6 L112.1 -219.7 L113.6 -218.7 L115.1 -217.5 L116.4 -216.3 L117.7 -214.9 L118.8 -213.5 L119.8 -212 L120.7 -210.3 L121.5 -208.7 L122.1 -206.9 L122.6 -205.2 L122.9 -203.3 Z " />
<path stroke="rgb(0,0,0)" stroke-opacity="1" fill="rgb(255,255,255)" fill-opacity="1" d="M-212.6 -588.2 L-212.6 -589.1 L-212.5 -590.1 L-212.5 -591.1 L-212.5 -592.1 L-212.5 -593.1 L-212.5 -594.1 L-212.5 -595.1 L-212.5 -596 L-212.5 -597 L-212.5 -598 L-212.5 -599 L-212.4 -600 L-212.4 -601 L-212.4 -602 L-212.4 -602.9 L-212.4 -603.9 L-212.4 -604.9 L-212.4 -605.9 L-212.4 -606.9 L-212.4 -607.9 L-212.4 -608.9 L-212.4 -609.8 L-212.3 -610.8 L-212.3 -611.8 L-212.3 -612.8 L-211.3 -612.8 L-210.3 -612.8 L-209.4 -612.8 L-208.4 -612.8 L-207.4 -612.8 L-206.4 -612.7 L-205.4 -612.7 L-204.4 -612.7 L-203.4 -612.7 L-202.5 -612.7 L-201.5 -612.7 L-200.5 -612.7 L-199.5 -612.7 L-198.5 -612.7 L-197.5 -612.7 L-196.5 -612.7 L-195.6 -612.6 L-194.6 -612.6 L-193.6 -612.6 L-192.6 -612.6 L-191.6 -612.6 L-190.6 -612.6 L-189.6 -612.6 L-188.7 -612.6 L-187.7 -612.6 L-187.7 -611.6 L-187.7 -610.6 L-187.7 -609.6 L-187.7 -608.6 L-187.7 -607.6 L-187.7 -606.6 L-187.7 -605.7 L-187.7 -604.7 L-187.8 -603.7 L-187.8 -602.7 L-187.8 -601.7 L-187.8 -600.7 L-187.8 -599.7 L-187.8 -598.8 L-187.8 -597.8 L-187.8 -596.8 L-187.8 -595.8 L-187.8 -594.8 L-187.9 -593.8 L-187.9 -592.8 L-187.9 -591.9 L-187.9 -590.9 L-187.9 -589.9 L-187.9 -588.9 L-187.9 -587.9 L-188.9 -587.9 L-189.9 -587.9 L-190.9 -587.9 L-191.9 -588 L-192.8 -588 L-193.8 -588 L-194.8 -588 L-195.8 -588 L-196.8 -588 L-197.8 -588 L-198.8 -588 L-199.7 -588 L-200.7 -588 L-201.7 -588 L-202.7 -588.1 L-203.7 -588.1 L-204.7 -588.1 L-205.7 -588.1 L-206.6 -588.1 L-207.6 -588.1 L-208.6 -588.1 L-209.6 -588.1 L-210.6 -588.1 L-211.6 -588.1 L-212.6 -588.2 Z " />
<path stroke="rgb(0,0,0)" stroke-opacity="1" fill="rgb(255,255,255)" fill-opacity="1" d="M324.8 -199.8 L324.7 -197.8 L324.5 -195.9 L324 -193.9 L323.5 -192.1 L322.8 -190.2 L321.9 -188.4 L320.9 -186.7 L319.8 -185.1 L318.6 -183.6 L317.2 -182.2 L315.7 -180.8 L314.2 -179.7 L312.5 -178.6 L310.8 -177.7 L309 -176.9 L307.1 -176.2 L305.2 -175.8 L303.2 -175.4 L301.3 -175.2 L299.3 -175.2 L297.3 -175.4 L295.4 -175.6 L293.5 -176.1 L291.6 -176.7 L289.8 -177.4 L288 -178.3 L286.3 -179.3 L284.7 -180.5 L283.2 -181.8 L281.8 -183.2 L280.5 -184.6 L279.4 -186.2 L278.3 -187.9 L277.5 -189.7 L276.7 -191.5 L276.1 -193.4 L275.7 -195.3 L275.4 -197.3 L275.2 -199.2 L275.2 -201.2 L275.4 -203.2 L275.7 -205.1 L276.2 -207 L276.9 -208.9 L277.6 -210.7 L278.5 -212.4 L279.6 -214.1 L280.8 -215.7 L282.1 -217.2 L283.5 -218.5 L285 -219.8 L286.7 -220.9 L288.4 -221.9 L290.1 -222.8 L292 -223.5 L293.9 -224 L295.8 -224.4 L297.7 -224.7 L299.7 -224.8 L301.7 -224.7 L303.6 -224.5 L305.6 -224.2 L307.5 -223.6 L309.3 -223 L311.1 -222.2 L312.9 -221.2 L314.5 -220.1 L316.1 -218.9 L317.5 -217.6 L318.8 -216.1 L320.1 -214.6 L321.2 -212.9 L322.1 -211.2 L322.9 -209.4 L323.6 -207.6 L324.1 -205.7 L324.5 -203.7 L324.7 -201.8 L324.8 -199.8 Z " />
<path stroke="rgb(0,0,0)" stroke-opacity="1" fill="rgb(255,255,255)" fill-opacity="1" d="M-712.7 -488.3 L-712.7 -489.3 L-712.7 -490.3 L-712.7 -491.3 L-712.7 -492.3 L-712.7 -493.3 L-712.7 -494.2 L-712.6 -495.2 L-712.6 -496.2 L-712.6 -497.2 L-712.6 -498.2 L-712.6 -499.2 L-712.6 -500.2 L-712.6 -501.1 L-712.6 -502.1 L-712.6 -503.1 L-712.5 -504.1 L-712.5 -505.1 L-712.5 -506.1 L-712.5 -507.1 L-712.5 -508 L-712.5 -509 L-712.5 -510 L-712.5 -511 L-712.4 -512 L-712.4 -513 L-711.4 -513 L-710.5 -512.9 L-709.5 -512.9 L-708.5 -512.9 L-707.5 -512.9 L-706.5 -512.9 L-705.5 -512.9 L-704.5 -512.9 L-703.6 -512.9 L-702.6 -512.9 L-701.6 -512.8 L-700.6 -512.8 L-699.6 -512.8 L-698.6 -512.8 L-697.6 -512.8 L-696.7 -512.8 L-695.7 -512.8 L-694.7 -512.8 L-693.7 -512.7 L-692.7 -512.7 L-691.7 -512.7 L-690.7 -512.7 L-689.8 -512.7 L-688.8 -512.7 L-687.8 -512.7 L-687.8 -511.7 L-687.8 -510.7 L-687.8 -509.7 L-687.8 -508.7 L-687.8 -507.7 L-687.8 -506.8 L-687.9 -505.8 L-687.9 -504.8 L-687.9 -503.8 L-687.9 -502.8 L-687.9 -501.8 L-687.9 -500.8 L-687.9 -499.9 L-687.9 -498.9 L-688 -497.9 L-688 -496.9 L-688 -495.9 L-688 -494.9 L-688 -493.9 L-688 -493 L-688 -492 L-688 -491 L-688.1 -490 L-688.1 -489 L-688.1 -488 L-689.1 -488 L-690 -488 L-691 -488.1 L-692 -488.1 L-693 -488.1 L-694 -488.1 L-695 -488.1 L-696 -488.1 L-697 -488.1 L-697.9 -488.1 L-698.9 -488.2 L-699.9 -488.2 L-700.9 -488.2 L-701.9 -488.2 L-702.9 -488.2 L-703.9 -488.2 L-704.8 -488.2 L-705.8 -488.2 L-706.8 -488.2 L-707.8 -488.3 L-708.8 -488.3 L-709.8 -488.3 L-710.8 -488.3 L-711.7 -488.3 L-712.7 -488.3 Z " />
<path stroke="rgb(0,0,0)" stroke-opacity="1" fill="rgb(255,255,255)" fill-opacity="1" d="M-190.5 -113.1 L-189.5 -112.3 L-188.5 -111.4 L-187.6 -110.5 L-186.8 -109.5 L-186.1 -108.4 L-185.4 -107.3 L-184.9 -106.1 L-184.4 -104.9 L-184.1 -103.7 L-183.8 -102.4 L-183.7 -101.2 L-183.6 -99.87 L-183.7 -98.58 L-183.8 -97.3 L-184.1 -96.04 L-184.4 -94.8 L-184.9 -93.6 L-185.4 -92.43 L-186 -91.31 L-186.8 -90.24 L-187.6 -89.24 L-188.5 -88.3 L-189.4 -87.43 L-190.4 -86.65 L-191.5 -85.94 L-192.6 -85.33 L-193.8 -84.8 L-195 -84.37 L-196.3 -84.04 L-197.5 -83.81 L-198.8 -83.68 L-200.1 -83.65 L-201.4 -83.73 L-202.7 -83.9 L-203.9 -84.18 L-205.1 -84.56 L-206.3 -85.03 L-207.5 -85.59 L-208.6 -86.25 L-209.7 -86.99 L-210.6 -87.81 L-211.6 -88.71 L-212.4 -89.68 L-213.2 -90.72 L-213.9 -91.81 L-214.5 -92.95 L-215 -94.13 L-215.4 -95.36 L-215.7 -96.61 L-215.9 -97.88 L-216 -99.16 L-216 -100.4 L-215.9 -101.7 L-215.7 -103 L-215.4 -104.3 L-215 -105.5 L-214.5 -106.7 L-213.9 -107.8 L-213.2 -108.9 L-212.4 -109.9 L-211.6 -110.9 L-210.7 -111.8 L-209.7 -112.6 L-208.7 -113.4 L-207.6 -114 L-206.4 -114.6 L-205.2 -115.1 L-204 -115.5 L-202.7 -115.8 L-201.4 -115.9 L-200.2 -116 L-198.9 -116 L-197.6 -115.9 L-196.3 -115.6 L-195.1 -115.3 L-193.9 -114.9 L-192.7 -114.4 L-191.6 -113.8 L-190.5 -113.1 Z " />
<path stroke="rgb(0,0,0)" stroke-opacity="1" fill="rgb(255,255,255)" fill-opacity="1" d="M-512.6 -488.2 L-512.6 -489.1 L-512.5 -490.1 L-512.5 -491.1 L-512.5 -492.1 L-512.5 -493.1 L-512.5 -494.1 L-512.5 -495.1 L-512.5 -496 L-512.5 -497 L-512.5 -498 L-512.5 -499 L-512.4 -500 L-512.4 -501 L-512.4 -502 L-512.4 -502.9 L-512.4 -503.9 L-512.4 -504.9 L-512.4 -505.9 L-512.4 -506.9 L-512.4 -507.9 L-512.4 -508.9 L-512.4 -509.8 L-512.3 -510.8 L-512.3 -511.8 L-512.3 -512.8 L-511.3 -512.8 L-510.3 -512.8 L-509.4 -512.8 L-508.4 -512.8 L-507.4 -512.8 L-506.4 -512.7 L-505.4 -512.7 L-504.4 -512.7 L-503.4 -512.7 L-502.5 -512.7 L-501.5 -512.7 L-500.5 -512.7 L-499.5 -512.7 L-498.5 -512.7 L-497.5 -512.7 L-496.5 -512.7 L-495.6 -512.6 L-494.6 -512.6 L-493.6 -512.6 L-492.6 -512.6 L-491.6 -512.6 L-490.6 -512.6 L-489.6 -512.6 L-488.7 -512.6 L-487.7 -512.6 L-487.7 -511.6 L-487.7 -510.6 L-487.7 -509.6 L-487.7 -508.6 L-487.7 -507.6 L-487.7 -506.6 L-487.7 -505.7 L-487.7 -504.7 L-487.8 -503.7 L-487.8 -502.7 L-487.8 -501.7 L-487.8 -500.7 L-487.8 -499.7 L-487.8 -498.8 L-487.8 -497.8 L-487.8 -496.8 L-487.8 -495.8 L-487.8 -494.8 L-487.9 -493.8 L-487.9 -492.8 L-487.9 -491.9 L-487.9 -490.9 L-487.9 -489.9 L-487.9 -488.9 L-487.9 -487.9 L-488.9 -487.9 L-489.9 -487.9 L-490.9 -487.9 L-491.9 -488 L-492.8 -488 L-493.8 -488 L-494.8 -488 L-495.8 -488 L-496.8 -488 L-497.8 -488 L-498.8 -488 L-499.7 -488 L-500.7 -488 L-501.7 -488 L-502.7 -488.1 L-503.7 -488.1 L-504.7 -488.1 L-505.7 -488.1 L-506.6 -488.1 L-507.6 -488.1 L-508.6 -488.1 L-509.6 -488.1 L-510.6 -488.1 L-511.6 -488.1 L-512.6 -488.2 Z " />
<path stroke="rgb(0,0,0)" stroke-opacity="1" fill="rgb(255,255,255)" fill-opacity="1" d="M22.93 -103.3 L23.12 -101.5 L23.17 -99.68 L23.08 -97.84 L22.84 -96.02 L22.45 -94.22 L21.93 -92.45 L21.26 -90.74 L20.46 -89.08 L19.53 -87.49 L18.48 -85.98 L17.31 -84.56 L16.03 -83.23 L14.65 -82.01 L13.18 -80.91 L11.63 -79.92 L9.998 -79.07 L8.306 -78.34 L6.563 -77.75 L4.777 -77.3 L2.962 -76.99 L1.129 -76.83 L-0.712 -76.82 L-2.548 -76.95 L-4.368 -77.23 L-6.16 -77.65 L-7.912 -78.21 L-9.615 -78.91 L-11.26 -79.74 L-12.83 -80.7 L-14.32 -81.79 L-15.71 -82.98 L-17.01 -84.29 L-18.2 -85.69 L-19.28 -87.18 L-20.23 -88.76 L-21.06 -90.4 L-21.75 -92.11 L-22.31 -93.86 L-22.72 -95.66 L-22.99 -97.48 L-23.11 -99.32 L-23.09 -101.2 L-22.92 -103 L-22.61 -104.8 L-22.15 -106.6 L-21.56 -108.3 L-20.82 -110 L-19.96 -111.6 L-18.97 -113.2 L-17.86 -114.7 L-16.63 -116 L-15.3 -117.3 L-13.88 -118.5 L-12.36 -119.5 L-10.77 -120.4 L-9.107 -121.2 L-7.388 -121.9 L-5.622 -122.4 L-3.82 -122.8 L-1.995 -123 L-0.156 -123.1 L1.684 -123 L3.513 -122.8 L5.32 -122.5 L7.094 -122 L8.823 -121.4 L10.5 -120.6 L12.1 -119.7 L13.63 -118.7 L15.08 -117.5 L16.43 -116.3 L17.68 -114.9 L18.81 -113.5 L19.83 -112 L20.72 -110.3 L21.48 -108.7 L22.1 -106.9 L22.58 -105.2 L22.93 -103.3 Z " />
<path stroke="rgb(0,0,0)" stroke-opacity="1" fill="rgb(255,255,255)" fill-opacity="1" d="M-312.6 -488.2 L-312.6 -489.1 L-312.5 -490.1 L-312.5 -491.1 L-312.5 -492.1 L-312.5 -493.1 L-312.5 -494.1 L-312.5 -495.1 L-312.5 -496 L-312.5 -497 L-312.5 -498 L-312.5 -499 L-312.4 -500 L-312.4 -501 L-312.4 -502 L-312.4 -502.9 L-312.4 -503.9 L-312.4 -504.9 L-312.4 -505.9 L-312.4 -506.9 L-312.4 -507.9 L-312.4 -508.9 L-312.4 -509.8 L-312.3 -510.8 L-312.3 -511.8 L-312.3 -512.8 L-311.3 -512.8 L-310.3 -512.8 L-309.4 -512.8 L-308.4 -512.8 L-307.4 -512.8 L-306.4 -512.7 L-305.4 -512.7 L-304.4 -512.7 L-303.4 -512.7 L-302.5 -512.7 L-301.5 -512.7 L-300.5 -512.7 L-299.5 -512.7 L-298.5 -512.7 L-297.5 -512.7 L-296.5 -512.7 L-295.6 -512.6 L-294.6 -512.6 L-293.6 -512.6 L-292.6 -512.6 L-291.6 -512.6 L-290.6 -512.6 L-289.6 -512.6 L-288.7 -512.6 L-287.7 -512.6 L-287.7 -511.6 L-287.7 -510.6 L-287.7 -509.6 L-287.7 -508.6 L-287.7 -507.6 L-287.7 -506.6 L-287.7 -505.7 L-287.7 -504.7 L-287.8 -503.7 L-287.8 -502.7 L-287.8 -501.7 L-287.8 -500.7 L-287.8 -499.7 L-287.8 -498.8 L-287.8 -497.8 L-287.8 -496.8 L-287.8 -495.8 L-287.8 -494.8 L-287.9 -493.8 L-287.9 -492.8 L-287.9 -491.9 L-287.9 -490.9 L-287.9 -489.9 L-287.9 -488.9 L-287.9 -487.9 L-288.9 -487.9 L-289.9 -487.9 L-290.9 -487.9 L-291.9 -488 L-292.8 -488 L-293.8 -488 L-294.8 -488 L-295.8 -488 L-296.8 -488 L-297.8 -488 L-298.8 -488 L-299.7 -488 L-300.7 -488 L-301.7 -488 L-302.7 -488.1 L-303.7 -488.1 L-304.7 -488.1 L-305.7 -488.1 L-306.6 -488.1 L-307.6 -488.1 L-308.6 -488.1 L-309.6 -488.1 L-310.6 -488.1 L-311.6 -488.1 L-312.6 -488.2 Z " />
<path stroke="rgb(0,0,0)" stroke-opacity="1" fill="rgb(255,255,255)" fill-opacity="1" d="M224.8 -99.8 L224.7 -97.83 L224.5 -95.87 L224 -93.94 L223.5 -92.05 L222.8 -90.21 L221.9 -88.43 L220.9 -86.73 L219.8 -85.1 L218.6 -83.58 L217.2 -82.15 L215.7 -80.84 L214.2 -79.65 L212.5 -78.59 L210.8 -77.67 L209 -76.88 L207.1 -76.24 L205.2 -75.75 L203.2 -75.42 L201.3 -75.24 L199.3 -75.22 L197.3 -75.35 L195.4 -75.64 L193.5 -76.08 L191.6 -76.68 L189.8 -77.42 L188 -78.31 L186.3 -79.33 L184.7 -80.48 L183.2 -81.76 L181.8 -83.15 L180.5 -84.65 L179.4 -86.24 L178.3 -87.93 L177.5 -89.68 L176.7 -91.51 L176.1 -93.39 L175.7 -95.31 L175.4 -97.26 L175.2 -99.22 L175.2 -101.2 L175.4 -103.2 L175.7 -105.1 L176.2 -107 L176.9 -108.9 L177.6 -110.7 L178.5 -112.4 L179.6 -114.1 L180.8 -115.7 L182.1 -117.2 L183.5 -118.5 L185 -119.8 L186.7 -120.9 L188.4 -121.9 L190.1 -122.8 L192 -123.5 L193.9 -124 L195.8 -124.4 L197.7 -124.7 L199.7 -124.8 L201.7 -124.7 L203.6 -124.5 L205.6 -124.2 L207.5 -123.6 L209.3 -123 L211.1 -122.2 L212.9 -121.2 L214.5 -120.1 L216.1 -118.9 L217.5 -117.6 L218.8 -116.1 L220.1 -114.6 L221.2 -112.9 L222.1 -111.2 L222.9 -109.4 L223.6 -107.6 L224.1 -105.7 L224.5 -103.7 L224.7 -101.8 L224.8 -99.8 Z " />
<path stroke="rgb(0,0,0)" stroke-opacity="1" fill="rgb(255,255,255)" fill-opacity="1" d="M-112.6 -488.2 L-112.6 -489.1 L-112.5 -490.1 L-112.5 -491.1 L-112.5 -492.1 L-112.5 -493.1 L-112.5 -494.1 L-112.5 -495.1 L-112.5 -496 L-112.5 -497 L-112.5 -498 L-112.5 -499 L-112.4 -500 L-112.4 -501 L-112.4 -502 L-112.4 -502.9 L-112.4 -503.9 L-112.4 -504.9 L-112.4 -505.9 L-112.4 -506.9 L-112.4 -507.9 L-112.4 -508.9 L-112.4 -509.8 L-112.3 -510.8 L-112.3 -511.8 L-112.3 -512.8 L-111.3 -512.8 L-110.3 -512.8 L-109.4 -512.8 L-108.4 -512.8 L-107.4 -512.8 L-106.4 -512.7 L-105.4 -512.7 L-104.4 -512.7 L-103.4 -512.7 L-102.5 -512.7 L-101.5 -512.7 L-100.5 -512.7 L-99.5 -512.7 L-98.51 -512.7 L-97.53 -512.7 L-96.54 -512.7 L-95.56 -512.6 L-94.57 -512.6 L-93.58 -512.6 L-92.6 -512.6 L-91.61 -512.6 L-90.63 -512.6 L-89.64 -512.6 L-88.65 -512.6 L-87.67 -512.6 L-87.68 -511.6 L-87.69 -510.6 L-87.7 -509.6 L-87.71 -508.6 L-87.72 -507.6 L-87.73 -506.6 L-87.74 -505.7 L-87.74 -504.7 L-87.75 -503.7 L-87.76 -502.7 L-87.77 -501.7 L-87.78 -500.7 L-87.79 -499.7 L-87.8 -498.8 L-87.81 -497.8 L-87.82 -496.8 L-87.83 -495.8 L-87.84 -494.8 L-87.85 -493.8 L-87.86 -492.8 L-87.87 -491.9 L-87.88 -490.9 L-87.89 -489.9 L-87.9 -488.9 L-87.91 -487.9 L-88.9 -487.9 L-89.88 -487.9 L-90.87 -487.9 L-91.85 -488 L-92.84 -488 L-93.83 -488 L-94.81 -488 L-95.8 -488 L-96.79 -488 L-97.77 -488 L-98.76 -488 L-99.74 -488 L-100.7 -488 L-101.7 -488 L-102.7 -488.1 L-103.7 -488.1 L-104.7 -488.1 L-105.7 -488.1 L-106.6 -488.1 L-107.6 -488.1 L-108.6 -488.1 L-109.6 -488.1 L-110.6 -488.1 L-111.6 -488.1 L-112.6 -488.2 Z " />
<path stroke="rgb(0,0,0)" stroke-opacity="1" fill="rgb(255,255,255)" fill-opacity="1" d="M-290.5 -13.06 L-289.5 -12.28 L-288.5 -11.42 L-287.6 -10.48 L-286.8 -9.478 L-286.1 -8.415 L-285.4 -7.297 L-284.9 -6.133 L-284.4 -4.928 L-284.1 -3.692 L-283.8 -2.431 L-283.7 -1.153 L-283.6 0.1325 L-283.7 1.418 L-283.8 2.696 L-284.1 3.959 L-284.4 5.197 L-284.9 6.403 L-285.4 7.57 L-286 8.69 L-286.8 9.756 L-287.6 10.76 L-288.5 11.7 L-289.4 12.57 L-290.4 13.35 L-291.5 14.06 L-292.6 14.67 L-293.8 15.2 L-295 15.63 L-296.3 15.96 L-297.5 16.19 L-298.8 16.32 L-300.1 16.35 L-301.4 16.27 L-302.7 16.1 L-303.9 15.82 L-305.1 15.44 L-306.3 14.97 L-307.5 14.41 L-308.6 13.75 L-309.7 13.01 L-310.6 12.19 L-311.6 11.29 L-312.4 10.32 L-313.2 9.284 L-313.9 8.193 L-314.5 7.051 L-315 5.866 L-315.4 4.644 L-315.7 3.394 L-315.9 2.124 L-316 0.8415 L-316 -0.4453 L-315.9 -1.728 L-315.7 -2.999 L-315.4 -4.25 L-315 -5.474 L-314.5 -6.661 L-313.9 -7.805 L-313.2 -8.899 L-312.4 -9.936 L-311.6 -10.91 L-310.7 -11.81 L-309.7 -12.64 L-308.7 -13.38 L-307.6 -14.04 L-306.4 -14.62 L-305.2 -15.09 L-304 -15.47 L-302.7 -15.75 L-301.4 -15.94 L-300.2 -16.02 L-298.9 -15.99 L-297.6 -15.87 L-296.3 -15.64 L-295.1 -15.31 L-293.9 -14.89 L-292.7 -14.37 L-291.6 -13.76 L-290.5 -13.06 Z " />
<path stroke="rgb(0,0,0)" stroke-opacity="1" fill="rgb(255,255,255)" fill-opacity="1" d="M-612.6 -388.2 L-612.6 -389.1 L-612.5 -390.1 L-612.5 -391.1 L-612.5 -392.1 L-612.5 -393.1 L-612.5 -394.1 L-612.5 -395.1 L-612.5 -396 L-612.5 -397 L-612.5 -398 L-612.5 -399 L-612.4 -400 L-612.4 -401 L-612.4 -402 L-612.4 -402.9 L-612.4 -403.9 L-612.4 -404.9 L-612.4 -405.9 L-612.4 -406.9 L-612.4 -407.9 L-612.4 -408.9 L-612.4 -409.8 L-612.3 -410.8 L-612.3 -411.8 L-612.3 -412.8 L-611.3 -412.8 L-610.3 -412.8 L-609.4 -412.8 L-608.4 -412.8 L-607.4 -412.8 L-606.4 -412.7 L-605.4 -412.7 L-604.4 -412.7 L-603.4 -412.7 L-602.5 -412.7 L-601.5 -412.7 L-600.5 -412.7 L-599.5 -412.7 L-598.5 -412.7 L-597.5 -412.7 L-596.5 -412.7 L-595.6 -412.6 L-594.6 -412.6 L-593.6 -412.6 L-592.6 -412.6 L-591.6 -412.6 L-590.6 -412.6 L-589.6 -412.6 L-588.7 -412.6 L-587.7 -412.6 L-587.7 -411.6 L-587.7 -410.6 L-587.7 -409.6 L-587.7 -408.6 L-587.7 -407.6 L-587.7 -406.6 L-587.7 -405.7 L-587.7 -404.7 L-587.8 -403.7 L-587.8 -402.7 L-587.8 -401.7 L-587.8 -400.7 L-587.8 -399.7 L-587.8 -398.8 L-587.8 -397.8 L-587.8 -396.8 L-587.8 -395.8 L-587.8 -394.8 L-587.9 -393.8 L-587.9 -392.8 L-587.9 -391.9 L-587.9 -390.9 L-587.9 -389.9 L-587.9 -388.9 L-587.9 -387.9 L-588.9 -387.9 L-589.9 -387.9 L-590.9 -387.9 L-591.9 -388 L-592.8 -388 L-593.8 -388 L-594.8 -388 L-595.8 -388 L-596.8 -388 L-597.8 -388 L-598.8 -388 L-599.7 -388 L-600.7 -388 L-601.7 -388 L-602.7 -388.1 L-603.7 -388.1 L-604.7 -388.1 L-605.7 -388.1 L-606.6 -388.1 L-607.6 -388.1 L-608.6 -388.1 L-609.6 -388.1 L-610.6 -388.1 L-611.6 -388.1 L-612.6 -388.2 Z " />
<path stroke="rgb(0,0,0)" stroke-opacity="1" fill="rgb(255,255,255)" fill-opacity="1" d="M-77.07 -3.35 L-76.88 -1.52 L-76.83 0.3204 L-76.92 2.159 L-77.16 3.984 L-77.55 5.783 L-78.07 7.547 L-78.74 9.263 L-79.54 10.92 L-80.47 12.51 L-81.52 14.02 L-82.69 15.44 L-83.97 16.77 L-85.35 17.99 L-86.82 19.09 L-88.37 20.08 L-90 20.93 L-91.69 21.66 L-93.44 22.25 L-95.22 22.7 L-97.04 23.01 L-98.87 23.17 L-100.7 23.18 L-102.5 23.05 L-104.4 22.77 L-106.2 22.35 L-107.9 21.79 L-109.6 21.09 L-111.3 20.26 L-112.8 19.3 L-114.3 18.21 L-115.7 17.02 L-117 15.71 L-118.2 14.31 L-119.3 12.82 L-120.2 11.24 L-121.1 9.596 L-121.8 7.891 L-122.3 6.136 L-122.7 4.342 L-123 2.521 L-123.1 0.6849 L-123.1 -1.156 L-122.9 -2.989 L-122.6 -4.803 L-122.2 -6.586 L-121.6 -8.327 L-120.8 -10.02 L-120 -11.64 L-119 -13.19 L-117.9 -14.66 L-116.6 -16.03 L-115.3 -17.31 L-113.9 -18.47 L-112.4 -19.51 L-110.8 -20.44 L-109.1 -21.23 L-107.4 -21.89 L-105.6 -22.41 L-103.8 -22.79 L-102 -23.02 L-100.2 -23.11 L-98.32 -23.05 L-96.49 -22.84 L-94.68 -22.49 L-92.91 -22 L-91.18 -21.37 L-89.5 -20.6 L-87.9 -19.71 L-86.37 -18.68 L-84.92 -17.54 L-83.57 -16.29 L-82.32 -14.94 L-81.19 -13.49 L-80.17 -11.95 L-79.28 -10.34 L-78.52 -8.666 L-77.9 -6.934 L-77.42 -5.158 L-77.07 -3.35 Z " />
<path stroke="rgb(0,0,0)" stroke-opacity="1" fill="rgb(255,255,255)" fill-opacity="1" d="M-412.6 -388.2 L-412.6 -389.1 L-412.5 -390.1 L-412.5 -391.1 L-412.5 -392.1 L-412.5 -393.1 L-412.5 -394.1 L-412.5 -395.1 L-412.5 -396 L-412.5 -397 L-412.5 -398 L-412.5 -399 L-412.4 -400 L-412.4 -401 L-412.4 -402 L-412.4 -402.9 L-412.4 -403.9 L-412.4 -404.9 L-412.4 -405.9 L-412.4 -406.9 L-412.4 -407.9 L-412.4 -408.9 L-412.4 -409.8 L-412.3 -410.8 L-412.3 -411.8 L-412.3 -412.8 L-411.3 -412.8 L-410.3 -412.8 L-409.4 -412.8 L-408.4 -412.8 L-407.4 -412.8 L-406.4 -412.7 L-405.4 -412.7 L-404.4 -412.7 L-403.4 -412.7 L-402.5 -412.7 L-401.5 -412.7 L-400.5 -412.7 L-399.5 -412.7 L-398.5 -412.7 L-397.5 -412.7 L-396.5 -412.7 L-395.6 -412.6 L-394.6 -412.6 L-393.6 -412.6 L-392.6 -412.6 L-391.6 -412.6 L-390.6 -412.6 L-389.6 -412.6 L-388.7 -412.6 L-387.7 -412.6 L-387.7 -411.6 L-387.7 -410.6 L-387.7 -409.6 L-387.7 -408.6 L-387.7 -407.6 L-387.7 -406.6 L-387.7 -405.7 L-387.7 -404.7 L-387.8 -403.7 L-387.8 -402.7 L-387.8 -401.7 L-387.8 -400.7 L-387.8 -399.7 L-387.8 -398.8 L-387.8 -397.8 L-387.8 -396.8 L-387.8 -395.8 L-387.8 -394.8 L-387.9 -393.8 L-387.9 -392.8 L-387.9 -391.9 L-387.9 -390.9 L-387.9 -389.9 L-387.9 -388.9 L-387.9 -387.9 L-388.9 -387.9 L-389.9 -387.9 L-390.9 -387.9 L-391.9 -388 L-392.8 -388 L-393.8 -388 L-394.8 -388 L-395.8 -388 L-396.8 -388 L-397.8 -388 L-398.8 -388 L-399.7 -388 L-400.7 -388 L-401.7 -388 L-402.7 -388.1 L-403.7 -388.1 L-404.7 -388.1 L-405.7 -388.1 L-406.6 -388.1 L-407.6 -388.1 L-408.6 -388.1 L-409.6 -388.1 L-410.6 -388.1 L-411.6 -388.1 L-412.6 -388.2 Z " />
<path stroke="rgb(0,0,0)" stroke-opacity="1" fill="rgb(255,255,255)" fill-opacity="1" d="M124.8 0.2027 L124.7 2.172 L124.5 4.128 L124 6.057 L123.5 7.948 L122.8 9.789 L121.9 11.57 L120.9 13.27 L119.8 14.9 L118.6 16.42 L117.2 17.85 L115.7 19.16 L114.2 20.35 L112.5 21.41 L110.8 22.33 L109 23.12 L107.1 23.76 L105.2 24.25 L103.2 24.58 L101.3 24.76 L99.3 24.78 L97.34 24.65 L95.39 24.36 L93.47 23.92 L91.59 23.32 L89.76 22.58 L88 21.69 L86.31 20.67 L84.71 19.52 L83.21 18.24 L81.81 16.85 L80.53 15.35 L79.37 13.76 L78.35 12.07 L77.46 10.32 L76.71 8.491 L76.11 6.613 L75.66 4.694 L75.36 2.745 L75.22 0.7781 L75.24 -1.193 L75.41 -3.157 L75.74 -5.101 L76.22 -7.013 L76.85 -8.881 L77.63 -10.69 L78.55 -12.44 L79.61 -14.1 L80.79 -15.68 L82.1 -17.15 L83.51 -18.52 L85.04 -19.77 L86.66 -20.9 L88.36 -21.89 L90.14 -22.75 L91.97 -23.46 L93.86 -24.03 L95.79 -24.44 L97.75 -24.7 L99.71 -24.8 L101.7 -24.74 L103.6 -24.53 L105.6 -24.16 L107.5 -23.64 L109.3 -22.97 L111.1 -22.16 L112.9 -21.2 L114.5 -20.12 L116.1 -18.9 L117.5 -17.56 L118.8 -16.12 L120.1 -14.57 L121.2 -12.93 L122.1 -11.21 L122.9 -9.416 L123.6 -7.563 L124.1 -5.663 L124.5 -3.727 L124.7 -1.768 L124.8 0.2027 Z " />
<path stroke="rgb(0,0,0)" stroke-opacity="1" fill="rgb(255,255,255)" fill-opacity="1" d="M-212.6 -388.2 L-212.6 -389.1 L-212.5 -390.1 L-212.5 -391.1 L-212.5 -392.1 L-212.5 -393.1 L-212.5 -394.1 L-212.5 -395.1 L-212.5 -396 L-212.5 -397 L-212.5 -398 L-212.5 -399 L-212.4 -400 L-212.4 -401 L-212.4 -402 L-212.4 -402.9 L-212.4 -403.9 L-212.4 -404.9 L-212.4 -405.9 L-212.4 -406.9 L-212.4 -407.9 L-212.4 -408.9 L-212.4 -409.8 L-212.3 -410.8 L-212.3 -411.8 L-212.3 -412.8 L-211.3 -412.8 L-210.3 -412.8 L-209.4 -412.8 L-208.4 -412.8 L-207.4 -412.8 L-206.4 -412.7 L-205.4 -412.7 L-204.4 -412.7 L-203.4 -412.7 L-202.5 -412.7 L-201.5 -412.7 L-200.5 -412.7 L-199.5 -412.7 L-198.5 -412.7 L-197.5 -412.7 L-196.5 -412.7 L-195.6 -412.6 L-194.6 -412.6 L-193.6 -412.6 L-192.6 -412.6 L-191.6 -412.6 L-190.6 -412.6 L-189.6 -412.6 L-188.7 -412.6 L-187.7 -412.6 L-187.7 -411.6 L-187.7 -410.6 L-187.7 -409.6 L-187.7 -408.6 L-187.7 -407.6 L-187.7 -406.6 L-187.7 -405.7 L-187.7 -404.7 L-187.8 -403.7 L-187.8 -402.7 L-187.8 -401.7 L-187.8 -400.7 L-187.8 -399.7 L-187.8 -398.8 L-187.8 -397.8 L-187.8 -396.8 L-187.8 -395.8 L-187.8 -394.8 L-187.9 -393.8 L-187.9 -392.8 L-187.9 -391.9 L-187.9 -390.9 L-187.9 -389.9 L-187.9 -388.9 L-187.9 -387.9 L-188.9 -387.9 L-189.9 -387.9 L-190.9 -387.9 L-191.9 -388 L-192.8 -388 L-193.8 -388 L-194.8 -388 L-195.8 -388 L-196.8 -388 L-197.8 -388 L-198.8 -388 L-199.7 -388 L-200.7 -388 L-201.7 -388 L-202.7 -388.1 L-203.7 -388.1 L-204.7 -388.1 L-205.7 -388.1 L-206.6 -388.1 L-207.6 -388.1 L-208.6 -388.1 L-209.6 -388.1 L-210.6 -388.1 L-211.6 -388.1 L-212.6 -388.2 Z " />
<path stroke="rgb(0,0,0)" stroke-opacity="1" fill="rgb(255,255,255)" fill-opacity="1" d="M324.8 0.2139 L324.7 2.184 L324.5 4.139 L324 6.069 L323.5 7.96 L322.8 9.801 L321.9 11.58 L320.9 13.29 L319.8 14.91 L318.6 16.43 L317.2 17.86 L315.7 19.17 L314.2 20.36 L312.5 21.42 L310.8 22.34 L308.9 23.13 L307.1 23.77 L305.2 24.25 L303.2 24.59 L301.3 24.77 L299.3 24.79 L297.3 24.65 L295.4 24.36 L293.5 23.92 L291.6 23.32 L289.7 22.58 L288 21.69 L286.3 20.67 L284.7 19.52 L283.2 18.24 L281.8 16.84 L280.5 15.35 L279.4 13.75 L278.3 12.07 L277.4 10.31 L276.7 8.482 L276.1 6.604 L275.6 4.684 L275.4 2.734 L275.2 0.7668 L275.2 -1.205 L275.4 -3.169 L275.7 -5.114 L276.2 -7.026 L276.9 -8.893 L277.6 -10.7 L278.6 -12.45 L279.6 -14.11 L280.8 -15.69 L282.1 -17.17 L283.5 -18.53 L285 -19.78 L286.7 -20.91 L288.4 -21.9 L290.1 -22.76 L292 -23.47 L293.9 -24.03 L295.8 -24.44 L297.8 -24.7 L299.7 -24.8 L301.7 -24.75 L303.7 -24.53 L305.6 -24.16 L307.5 -23.64 L309.4 -22.97 L311.1 -22.16 L312.9 -21.2 L314.5 -20.11 L316.1 -18.9 L317.5 -17.56 L318.9 -16.11 L320.1 -14.56 L321.2 -12.92 L322.1 -11.2 L323 -9.407 L323.6 -7.554 L324.2 -5.654 L324.5 -3.717 L324.7 -1.757 L324.8 0.2139 Z " />
<path stroke="rgb(0,0,0)" stroke-opacity="1" fill="rgb(255,255,255)" fill-opacity="1" d="M-712.6 -288.2 L-712.6 -289.1 L-712.5 -290.1 L-712.5 -291.1 L-712.5 -292.1 L-712.5 -293.1 L-712.5 -294.1 L-712.5 -295.1 L-712.5 -296 L-712.5 -297 L-712.5 -298 L-712.5 -299 L-712.4 -300 L-712.4 -301 L-712.4 -302 L-712.4 -302.9 L-712.4 -303.9 L-712.4 -304.9 L-712.4 -305.9 L-712.4 -306.9 L-712.4 -307.9 L-712.4 -308.9 L-712.4 -309.8 L-712.3 -310.8 L-712.3 -311.8 L-712.3 -312.8 L-711.3 -312.8 L-710.3 -312.8 L-709.4 -312.8 L-708.4 -312.8 L-707.4 -312.8 L-706.4 -312.7 L-705.4 -312.7 L-704.4 -312.7 L-703.4 -312.7 L-702.5 -312.7 L-701.5 -312.7 L-700.5 -312.7 L-699.5 -312.7 L-698.5 -312.7 L-697.5 -312.7 L-696.5 -312.7 L-695.6 -312.6 L-694.6 -312.6 L-693.6 -312.6 L-692.6 -312.6 L-691.6 -312.6 L-690.6 -312.6 L-689.6 -312.6 L-688.7 -312.6 L-687.7 -312.6 L-687.7 -311.6 L-687.7 -310.6 L-687.7 -309.6 L-687.7 -308.6 L-687.7 -307.6 L-687.7 -306.6 L-687.7 -305.7 L-687.7 -304.7 L-687.8 -303.7 L-687.8 -302.7 L-687.8 -301.7 L-687.8 -300.7 L-687.8 -299.7 L-687.8 -298.8 L-687.8 -297.8 L-687.8 -296.8 L-687.8 -295.8 L-687.8 -294.8 L-687.9 -293.8 L-687.9 -292.8 L-687.9 -291.9 L-687.9 -290.9 L-687.9 -289.9 L-687.9 -288.9 L-687.9 -287.9 L-688.9 -287.9 L-689.9 -287.9 L-690.9 -287.9 L-691.9 -288 L-692.8 -288 L-693.8 -288 L-694.8 -288 L-695.8 -288 L-696.8 -288 L-697.8 -288 L-698.8 -288 L-699.7 -288 L-700.7 -288 L-701.7 -288 L-702.7 -288.1 L-703.7 -288.1 L-704.7 -288.1 L-705.7 -288.1 L-706.6 -288.1 L-707.6 -288.1 L-708.6 -288.1 L-709.6 -288.1 L-710.6 -288.1 L-711.6 -288.1 L-712.6 -288.2 Z " />
<path stroke="rgb(0,0,0)" stroke-opacity="1" fill="rgb(255,255,255)" fill-opacity="1" d="M-177.1 96.65 L-176.9 98.48 L-176.8 100.3 L-176.9 102.2 L-177.2 104 L-177.5 105.8 L-178.1 107.5 L-178.7 109.3 L-179.5 110.9 L-180.5 112.5 L-181.5 114 L-182.7 115.4 L-184 116.8 L-185.3 118 L-186.8 119.1 L-188.4 120.1 L-190 120.9 L-191.7 121.7 L-193.4 122.3 L-195.2 122.7 L-197 123 L-198.9 123.2 L-200.7 123.2 L-202.5 123 L-204.4 122.8 L-206.2 122.4 L-207.9 121.8 L-209.6 121.1 L-211.3 120.3 L-212.8 119.3 L-214.3 118.2 L-215.7 117 L-217 115.7 L-218.2 114.3 L-219.3 112.8 L-220.2 111.2 L-221.1 109.6 L-221.8 107.9 L-222.3 106.1 L-222.7 104.3 L-223 102.5 L-223.1 100.7 L-223.1 98.84 L-222.9 97.01 L-222.6 95.2 L-222.2 93.41 L-221.6 91.67 L-220.8 89.98 L-220 88.36 L-219 86.81 L-217.9 85.34 L-216.6 83.97 L-215.3 82.69 L-213.9 81.53 L-212.4 80.49 L-210.8 79.56 L-209.1 78.77 L-207.4 78.11 L-205.6 77.59 L-203.8 77.21 L-202 76.98 L-200.2 76.89 L-198.3 76.95 L-196.5 77.16 L-194.7 77.51 L-192.9 78 L-191.2 78.63 L-189.5 79.4 L-187.9 80.29 L-186.4 81.32 L-184.9 82.46 L-183.6 83.71 L-182.3 85.06 L-181.2 86.51 L-180.2 88.05 L-179.3 89.66 L-178.5 91.33 L-177.9 93.07 L-177.4 94.84 L-177.1 96.65 Z " />
<path stroke="rgb(0,0,0)" stroke-opacity="1" fill="rgb(255,255,255)" fill-opacity="1" d="M-512.6 -288.2 L-512.6 -289.1 L-512.5 -290.1 L-512.5 -291.1 L-512.5 -292.1 L-512.5 -293.1 L-512.5 -294.1 L-512.5 -295.1 L-512.5 -296 L-512.5 -297 L-512.5 -298 L-512.5 -299 L-512.4 -300 L-512.4 -301 L-512.4 -302 L-512.4 -302.9 L-512.4 -303.9 L-512.4 -304.9 L-512.4 -305.9 L-512.4 -306.9 L-512.4 -307.9 L-512.4 -308.9 L-512.4 -309.8 L-512.3 -310.8 L-512.3 -311.8 L-512.3 -312.8 L-511.3 -312.8 L-510.3 -312.8 L-509.4 -312.8 L-508.4 -312.8 L-507.4 -312.8 L-506.4 -312.7 L-505.4 -312.7 L-504.4 -312.7 L-503.4 -312.7 L-502.5 -312.7 L-501.5 -312.7 L-500.5 -312.7 L-499.5 -312.7 L-498.5 -312.7 L-497.5 -312.7 L-496.5 -312.7 L-495.6 -312.6 L-494.6 -312.6 L-493.6 -312.6 L-492.6 -312.6 L-491.6 -312.6 L-490.6 -312.6 L-489.6 -312.6 L-488.7 -312.6 L-487.7 -312.6 L-487.7 -311.6 L-487.7 -310.6 L-487.7 -309.6 L-487.7 -308.6 L-487.7 -307.6 L-487.7 -306.6 L-487.7 -305.7 L-487.7 -304.7 L-487.8 -303.7 L-487.8 -302.7 L-487.8 -301.7 L-487.8 -300.7 L-487.8 -299.7 L-487.8 -298.8 L-487.8 -297.8 L-487.8 -296.8 L-487.8 -295.8 L-487.8 -294.8 L-487.9 -293.8 L-487.9 -292.8 L-487.9 -291.9 L-487.9 -290.9 L-487.9 -289.9 L-487.9 -288.9 L-487.9 -287.9 L-488.9 -287.9 L-489.9 -287.9 L-490.9 -287.9 L-491.9 -288 L-492.8 -288 L-493.8 -288 L-494.8 -288 L-495.8 -288 L-496.8 -288 L-497.8 -288 L-498.8 -288 L-499.7 -288 L-500.7 -288 L-501.7 -288 L-502.7 -288.1 L-503.7 -288.1 L-504.7 -288.1 L-505.7 -288.1 L-506.6 -288.1 L-507.6 -288.1 L-508.6 -288.1 L-509.6 -288.1 L-510.6 -288.1 L-511.6 -288.1 L-512.6 -288.2 Z " />
<path stroke="rgb(0,0,0)" stroke-opacity="1" fill="rgb(255,255,255)" fill-opacity="1" d="M24.8 100.2 L24.7 102.2 L24.45 104.1 L24.05 106.1 L23.49 107.9 L22.78 109.8 L21.93 111.6 L20.94 113.3 L19.82 114.9 L18.58 116.4 L17.21 117.8 L15.74 119.2 L14.17 120.3 L12.51 121.4 L10.77 122.3 L8.958 123.1 L7.092 123.8 L5.182 124.2 L3.239 124.6 L1.276 124.8 L-0.6956 124.8 L-2.663 124.6 L-4.613 124.4 L-6.534 123.9 L-8.414 123.3 L-10.24 122.6 L-12 121.7 L-13.69 120.7 L-15.29 119.5 L-16.79 118.2 L-18.19 116.8 L-19.47 115.4 L-20.63 113.8 L-21.65 112.1 L-22.54 110.3 L-23.29 108.5 L-23.89 106.6 L-24.34 104.7 L-24.64 102.7 L-24.78 100.8 L-24.76 98.81 L-24.59 96.84 L-24.26 94.9 L-23.78 92.99 L-23.15 91.12 L-22.37 89.31 L-21.45 87.56 L-20.39 85.9 L-19.21 84.32 L-17.9 82.85 L-16.49 81.48 L-14.96 80.23 L-13.34 79.1 L-11.64 78.11 L-9.865 77.25 L-8.026 76.54 L-6.137 75.97 L-4.209 75.56 L-2.254 75.3 L-0.2852 75.2 L1.686 75.26 L3.646 75.47 L5.583 75.84 L7.485 76.36 L9.339 77.03 L11.13 77.84 L12.86 78.8 L14.5 79.88 L16.06 81.1 L17.51 82.44 L18.85 83.88 L20.07 85.43 L21.16 87.07 L22.12 88.79 L22.94 90.58 L23.62 92.44 L24.14 94.34 L24.52 96.27 L24.74 98.23 L24.8 100.2 Z " />
<path stroke="rgb(0,0,0)" stroke-opacity="1" fill="rgb(255,255,255)" fill-opacity="1" d="M-312.6 -288.2 L-312.6 -289.1 L-312.5 -290.1 L-312.5 -291.1 L-312.5 -292.1 L-312.5 -293.1 L-312.5 -294.1 L-312.5 -295.1 L-312.5 -296 L-312.5 -297 L-312.5 -298 L-312.5 -299 L-312.4 -300 L-312.4 -301 L-312.4 -302 L-312.4 -302.9 L-312.4 -303.9 L-312.4 -304.9 L-312.4 -305.9 L-312.4 -306.9 L-312.4 -307.9 L-312.4 -308.9 L-312.4 -309.8 L-312.3 -310.8 L-312.3 -311.8 L-312.3 -312.8 L-311.3 -312.8 L-310.3 -312.8 L-309.4 -312.8 L-308.4 -312.8 L-307.4 -312.8 L-306.4 -312.7 L-305.4 -312.7 L-304.4 -312.7 L-303.4 -312.7 L-302.5 -312.7 L-301.5 -312.7 L-300.5 -312.7 L-299.5 -312.7 L-298.5 -312.7 L-297.5 -312.7 L-296.5 -312.7 L-295.6 -312.6 L-294.6 -312.6 L-293.6 -312.6 L-292.6 -312.6 L-291.6 -312.6 L-290.6 -312.6 L-289.6 -312.6 L-288.7 -312.6 L-287.7 -312.6 L-287.7 -311.6 L-287.7 -310.6 L-287.7 -309.6 L-287.7 -308.6 L-287.7 -307.6 L-287.7 -306.6 L-287.7 -305.7 L-287.7 -304.7 L-287.8 -303.7 L-287.8 -302.7 L-287.8 -301.7 L-287.8 -300.7 L-287.8 -299.7 L-287.8 -298.8 L-287.8 -297.8 L-287.8 -296.8 L-287.8 -295.8 L-287.8 -294.8 L-287.9 -293.8 L-287.9 -292.8 L-287.9 -291.9 L-287.9 -290.9 L-287.9 -289.9 L-287.9 -288.9 L-287.9 -287.9 L-288.9 -287.9 L-289.9 -287.9 L-290.9 -287.9 L-291.9 -288 L-292.8 -288 L-293.8 -288 L-294.8 -288 L-295.8 -288 L-296.8 -288 L-297.8 -288 L-298.8 -288 L-299.7 -288 L-300.7 -288 L-301.7 -288 L-302.7 -288.1 L-303.7 -288.1 L-304.7 -288.1 L-305.7 -288.1 L-306.6 -288.1 L-307.6 -288.1 L-308.6 -288.1 L-309.6 -288.1 L-310.6 -288.1 L-311.6 -288.1 L-312.6 -288.2 Z " />
<path stroke="rgb(0,0,0)" stroke-opacity="1" fill="rgb(255,255,255)" fill-opacity="1" d="M224.8 100.2 L224.7 102.2 L224.5 104.1 L224 106.1 L223.5 108 L222.8 109.8 L221.9 111.6 L220.9 113.3 L219.8 114.9 L218.6 116.4 L217.2 117.9 L215.7 119.2 L214.2 120.4 L212.5 121.4 L210.8 122.3 L208.9 123.1 L207.1 123.8 L205.2 124.3 L203.2 124.6 L201.3 124.8 L199.3 124.8 L197.3 124.7 L195.4 124.4 L193.5 123.9 L191.6 123.3 L189.7 122.6 L188 121.7 L186.3 120.7 L184.7 119.5 L183.2 118.2 L181.8 116.8 L180.5 115.3 L179.4 113.7 L178.3 112.1 L177.4 110.3 L176.7 108.5 L176.1 106.6 L175.6 104.7 L175.4 102.7 L175.2 100.8 L175.2 98.79 L175.4 96.83 L175.7 94.89 L176.2 92.97 L176.9 91.11 L177.6 89.3 L178.6 87.55 L179.6 85.89 L180.8 84.31 L182.1 82.83 L183.5 81.47 L185 80.22 L186.7 79.09 L188.4 78.1 L190.1 77.24 L192 76.53 L193.9 75.97 L195.8 75.56 L197.8 75.3 L199.7 75.2 L201.7 75.25 L203.7 75.47 L205.6 75.84 L207.5 76.36 L209.4 77.03 L211.1 77.84 L212.9 78.8 L214.5 79.89 L216.1 81.1 L217.5 82.44 L218.9 83.89 L220.1 85.44 L221.2 87.08 L222.1 88.8 L223 90.59 L223.6 92.45 L224.2 94.35 L224.5 96.28 L224.7 98.24 L224.8 100.2 Z " />
<path stroke="rgb(0,0,0)" stroke-opacity="1" fill="rgb(255,255,255)" fill-opacity="1" d="M-112.6 -288.2 L-112.6 -289.1 L-112.5 -290.1 L-112.5 -291.1 L-112.5 -292.1 L-112.5 -293.1 L-112.5 -294.1 L-112.5 -295.1 L-112.5 -296 L-112.5 -297 L-112.5 -298 L-112.5 -299 L-112.4 -300 L-112.4 -301 L-112.4 -302 L-112.4 -302.9 L-112.4 -303.9 L-112.4 -304.9 L-112.4 -305.9 L-112.4 -306.9 L-112.4 -307.9 L-112.4 -308.9 L-112.4 -309.8 L-112.3 -310.8 L-112.3 -311.8 L-112.3 -312.8 L-111.3 -312.8 L-110.3 -312.8 L-109.4 -312.8 L-108.4 -312.8 L-107.4 -312.8 L-106.4 -312.7 L-105.4 -312.7 L-104.4 -312.7 L-103.4 -312.7 L-102.5 -312.7 L-101.5 -312.7 L-100.5 -312.7 L-99.5 -312.7 L-98.51 -312.7 L-97.53 -312.7 L-96.54 -312.7 L-95.56 -312.6 L-94.57 -312.6 L-93.58 -312.6 L-92.6 -312.6 L-91.61 -312.6 L-90.63 -312.6 L-89.64 -312.6 L-88.65 -312.6 L-87.67 -312.6 L-87.68 -311.6 L-87.69 -310.6 L-87.7 -309.6 L-87.71 -308.6 L-87.72 -307.6 L-87.73 -306.6 L-87.74 -305.7 L-87.74 -304.7 L-87.75 -303.7 L-87.76 -302.7 L-87.77 -301.7 L-87.78 -300.7 L-87.79 -299.7 L-87.8 -298.8 L-87.81 -297.8 L-87.82 -296.8 L-87.83 -295.8 L-87.84 -294.8 L-87.85 -293.8 L-87.86 -292.8 L-87.87 -291.9 L-87.88 -290.9 L-87.89 -289.9 L-87.9 -288.9 L-87.91 -287.9 L-88.9 -287.9 L-89.88 -287.9 L-90.87 -287.9 L-91.85 -288 L-92.84 -288 L-93.83 -288 L-94.81 -288 L-95.8 -288 L-96.79 -288 L-97.77 -288 L-98.76 -288 L-99.74 -288 L-100.7 -288 L-101.7 -288 L-102.7 -288.1 L-103.7 -288.1 L-104.7 -288.1 L-105.7 -288.1 L-106.6 -288.1 L-107.6 -288.1 L-108.6 -288.1 L-109.6 -288.1 L-110.6 -288.1 L-111.6 -288.1 L-112.6 -288.2 Z " />
<path stroke="rgb(0,0,0)" stroke-opacity="1" fill="rgb(255,255,255)" fill-opacity="1" d="M-277.1 196.7 L-276.9 198.5 L-276.8 200.3 L-276.9 202.2 L-277.2 204 L-277.5 205.8 L-278.1 207.5 L-278.7 209.3 L-279.5 210.9 L-280.5 212.5 L-281.5 214 L-282.7 215.4 L-284 216.8 L-285.3 218 L-286.8 219.1 L-288.4 220.1 L-290 220.9 L-291.7 221.7 L-293.4 222.3 L-295.2 222.7 L-297 223 L-298.9 223.2 L-300.7 223.2 L-302.5 223 L-304.4 222.8 L-306.2 222.4 L-307.9 221.8 L-309.6 221.1 L-311.3 220.3 L-312.8 219.3 L-314.3 218.2 L-315.7 217 L-317 215.7 L-318.2 214.3 L-319.3 212.8 L-320.2 211.2 L-321.1 209.6 L-321.8 207.9 L-322.3 206.1 L-322.7 204.3 L-323 202.5 L-323.1 200.7 L-323.1 198.8 L-322.9 197 L-322.6 195.2 L-322.2 193.4 L-321.6 191.7 L-320.8 190 L-320 188.4 L-319 186.8 L-317.9 185.3 L-316.6 184 L-315.3 182.7 L-313.9 181.5 L-312.4 180.5 L-310.8 179.6 L-309.1 178.8 L-307.4 178.1 L-305.6 177.6 L-303.8 177.2 L-302 177 L-300.2 176.9 L-298.3 177 L-296.5 177.2 L-294.7 177.5 L-292.9 178 L-291.2 178.6 L-289.5 179.4 L-287.9 180.3 L-286.4 181.3 L-284.9 182.5 L-283.6 183.7 L-282.3 185.1 L-281.2 186.5 L-280.2 188 L-279.3 189.7 L-278.5 191.3 L-277.9 193.1 L-277.4 194.8 L-277.1 196.7 Z " />
<path stroke="rgb(0,0,0)" stroke-opacity="1" fill="rgb(255,255,255)" fill-opacity="1" d="M-612.6 -188.2 L-612.6 -189.1 L-612.5 -190.1 L-612.5 -191.1 L-612.5 -192.1 L-612.5 -193.1 L-612.5 -194.1 L-612.5 -195.1 L-612.5 -196 L-612.5 -197 L-612.5 -198 L-612.5 -199 L-612.4 -200 L-612.4 -201 L-612.4 -202 L-612.4 -202.9 L-612.4 -203.9 L-612.4 -204.9 L-612.4 -205.9 L-612.4 -206.9 L-612.4 -207.9 L-612.4 -208.9 L-612.4 -209.8 L-612.3 -210.8 L-612.3 -211.8 L-612.3 -212.8 L-611.3 -212.8 L-610.3 -212.8 L-609.4 -212.8 L-608.4 -212.8 L-607.4 -212.8 L-606.4 -212.7 L-605.4 -212.7 L-604.4 -212.7 L-603.4 -212.7 L-602.5 -212.7 L-601.5 -212.7 L-600.5 -212.7 L-599.5 -212.7 L-598.5 -212.7 L-597.5 -212.7 L-596.5 -212.7 L-595.6 -212.6 L-594.6 -212.6 L-593.6 -212.6 L-592.6 -212.6 L-591.6 -212.6 L-590.6 -212.6 L-589.6 -212.6 L-588.7 -212.6 L-587.7 -212.6 L-587.7 -211.6 L-587.7 -210.6 L-587.7 -209.6 L-587.7 -208.6 L-587.7 -207.6 L-587.7 -206.6 L-587.7 -205.7 L-587.7 -204.7 L-587.8 -203.7 L-587.8 -202.7 L-587.8 -201.7 L-587.8 -200.7 L-587.8 -199.7 L-587.8 -198.8 L-587.8 -197.8 L-587.8 -196.8 L-587.8 -195.8 L-587.8 -194.8 L-587.9 -193.8 L-587.9 -192.8 L-587.9 -191.9 L-587.9 -190.9 L-587.9 -189.9 L-587.9 -188.9 L-587.9 -187.9 L-588.9 -187.9 L-589.9 -187.9 L-590.9 -187.9 L-591.9 -188 L-592.8 -188 L-593.8 -188 L-594.8 -188 L-595.8 -188 L-596.8 -188 L-597.8 -188 L-598.8 -188 L-599.7 -188 L-600.7 -188 L-601.7 -188 L-602.7 -188.1 L-603.7 -188.1 L-604.7 -188.1 L-605.7 -188.1 L-606.6 -188.1 L-607.6 -188.1 L-608.6 -188.1 L-609.6 -188.1 L-610.6 -188.1 L-611.6 -188.1 L-612.6 -188.2 Z " />
<path stroke="rgb(0,0,0)" stroke-opacity="1" fill="rgb(255,255,255)" fill-opacity="1" d="M-75.2 200.2 L-75.3 202.2 L-75.55 204.1 L-75.95 206.1 L-76.51 207.9 L-77.22 209.8 L-78.07 211.6 L-79.06 213.3 L-80.18 214.9 L-81.42 216.4 L-82.79 217.8 L-84.26 219.2 L-85.83 220.3 L-87.49 221.4 L-89.23 222.3 L-91.04 223.1 L-92.91 223.8 L-94.82 224.2 L-96.76 224.6 L-98.72 224.8 L-100.7 224.8 L-102.7 224.6 L-104.6 224.4 L-106.5 223.9 L-108.4 223.3 L-110.2 222.6 L-112 221.7 L-113.7 220.7 L-115.3 219.5 L-116.8 218.2 L-118.2 216.8 L-119.5 215.4 L-120.6 213.8 L-121.7 212.1 L-122.5 210.3 L-123.3 208.5 L-123.9 206.6 L-124.3 204.7 L-124.6 202.7 L-124.8 200.8 L-124.8 198.8 L-124.6 196.8 L-124.3 194.9 L-123.8 193 L-123.1 191.1 L-122.4 189.3 L-121.5 187.6 L-120.4 185.9 L-119.2 184.3 L-117.9 182.8 L-116.5 181.5 L-115 180.2 L-113.3 179.1 L-111.6 178.1 L-109.9 177.2 L-108 176.5 L-106.1 176 L-104.2 175.6 L-102.3 175.3 L-100.3 175.2 L-98.31 175.3 L-96.35 175.5 L-94.42 175.8 L-92.52 176.4 L-90.66 177 L-88.87 177.8 L-87.14 178.8 L-85.5 179.9 L-83.94 181.1 L-82.49 182.4 L-81.15 183.9 L-79.93 185.4 L-78.84 187.1 L-77.88 188.8 L-77.06 190.6 L-76.38 192.4 L-75.86 194.3 L-75.48 196.3 L-75.26 198.2 L-75.2 200.2 Z " />
<path stroke="rgb(0,0,0)" stroke-opacity="1" fill="rgb(255,255,255)" fill-opacity="1" d="M-412.6 -188.2 L-412.6 -189.1 L-412.5 -190.1 L-412.5 -191.1 L-412.5 -192.1 L-412.5 -193.1 L-412.5 -194.1 L-412.5 -195.1 L-412.5 -196 L-412.5 -197 L-412.5 -198 L-412.5 -199 L-412.4 -200 L-412.4 -201 L-412.4 -202 L-412.4 -202.9 L-412.4 -203.9 L-412.4 -204.9 L-412.4 -205.9 L-412.4 -206.9 L-412.4 -207.9 L-412.4 -208.9 L-412.4 -209.8 L-412.3 -210.8 L-412.3 -211.8 L-412.3 -212.8 L-411.3 -212.8 L-410.3 -212.8 L-409.4 -212.8 L-408.4 -212.8 L-407.4 -212.8 L-406.4 -212.7 L-405.4 -212.7 L-404.4 -212.7 L-403.4 -212.7 L-402.5 -212.7 L-401.5 -212.7 L-400.5 -212.7 L-399.5 -212.7 L-398.5 -212.7 L-397.5 -212.7 L-396.5 -212.7 L-395.6 -212.6 L-394.6 -212.6 L-393.6 -212.6 L-392.6 -212.6 L-391.6 -212.6 L-390.6 -212.6 L-389.6 -212.6 L-388.7 -212.6 L-387.7 -212.6 L-387.7 -211.6 L-387.7 -210.6 L-387.7 -209.6 L-387.7 -208.6 L-387.7 -207.6 L-387.7 -206.6 L-387.7 -205.7 L-387.7 -204.7 L-387.8 -203.7 L-387.8 -202.7 L-387.8 -201.7 L-387.8 -200.7 L-387.8 -199.7 L-387.8 -198.8 L-387.8 -197.8 L-387.8 -196.8 L-387.8 -195.8 L-387.8 -194.8 L-387.9 -193.8 L-387.9 -192.8 L-387.9 -191.9 L-387.9 -190.9 L-387.9 -189.9 L-387.9 -188.9 L-387.9 -187.9 L-388.9 -187.9 L-389.9 -187.9 L-390.9 -187.9 L-391.9 -188 L-392.8 -188 L-393.8 -188 L-394.8 -188 L-395.8 -188 L-396.8 -188 L-397.8 -188 L-398.8 -188 L-399.7 -188 L-400.7 -188 L-401.7 -188 L-402.7 -188.1 L-403.7 -188.1 L-404.7 -188.1 L-405.7 -188.1 L-406.6 -188.1 L-407.6 -188.1 L-408.6 -188.1 L-409.6 -188.1 L-410.6 -188.1 L-411.6 -188.1 L-412.6 -188.2 Z " />
<path stroke="rgb(0,0,0)" stroke-opacity="1" fill="rgb(255,255,255)" fill-opacity="1" d="M124.8 200.2 L124.7 202.2 L124.5 204.1 L124 206.1 L123.5 208 L122.8 209.8 L121.9 211.6 L120.9 213.3 L119.8 214.9 L118.6 216.4 L117.2 217.9 L115.7 219.2 L114.2 220.4 L112.5 221.4 L110.8 222.3 L108.9 223.1 L107.1 223.8 L105.2 224.3 L103.2 224.6 L101.3 224.8 L99.29 224.8 L97.33 224.7 L95.38 224.4 L93.45 223.9 L91.57 223.3 L89.75 222.6 L87.99 221.7 L86.3 220.7 L84.7 219.5 L83.2 218.2 L81.8 216.8 L80.52 215.3 L79.36 213.7 L78.34 212.1 L77.45 210.3 L76.7 208.5 L76.1 206.6 L75.65 204.7 L75.35 202.7 L75.21 200.8 L75.23 198.8 L75.4 196.8 L75.73 194.9 L76.22 193 L76.85 191.1 L77.63 189.3 L78.55 187.6 L79.61 185.9 L80.79 184.3 L82.1 182.8 L83.52 181.5 L85.04 180.2 L86.66 179.1 L88.37 178.1 L90.14 177.2 L91.98 176.5 L93.87 176 L95.8 175.6 L97.76 175.3 L99.73 175.2 L101.7 175.3 L103.7 175.5 L105.6 175.8 L107.5 176.4 L109.4 177 L111.1 177.8 L112.9 178.8 L114.5 179.9 L116.1 181.1 L117.5 182.4 L118.9 183.9 L120.1 185.4 L121.2 187.1 L122.1 188.8 L123 190.6 L123.6 192.4 L124.2 194.3 L124.5 196.3 L124.7 198.2 L124.8 200.2 Z " />
<path stroke="rgb(0,0,0)" stroke-opacity="1" fill="rgb(255,255,255)" fill-opacity="1" d="M-212.6 -188.2 L-212.6 -189.1 L-212.5 -190.1 L-212.5 -191.1 L-212.5 -192.1 L-212.5 -193.1 L-212.5 -194.1 L-212.5 -195.1 L-212.5 -196 L-212.5 -197 L-212.5 -198 L-212.5 -199 L-212.4 -200 L-212.4 -201 L-212.4 -202 L-212.4 -202.9 L-212.4 -203.9 L-212.4 -204.9 L-212.4 -205.9 L-212.4 -206.9 L-212.4 -207.9 L-212.4 -208.9 L-212.4 -209.8 L-212.3 -210.8 L-212.3 -211.8 L-212.3 -212.8 L-211.3 -212.8 L-210.3 -212.8 L-209.4 -212.8 L-208.4 -212.8 L-207.4 -212.8 L-206.4 -212.7 L-205.4 -212.7 L-204.4 -212.7 L-203.4 -212.7 L-202.5 -212.7 L-201.5 -212.7 L-200.5 -212.7 L-199.5 -212.7 L-198.5 -212.7 L-197.5 -212.7 L-196.5 -212.7 L-195.6 -212.6 L-194.6 -212.6 L-193.6 -212.6 L-192.6 -212.6 L-191.6 -212.6 L-190.6 -212.6 L-189.6 -212.6 L-188.7 -212.6 L-187.7 -212.6 L-187.7 -211.6 L-187.7 -210.6 L-187.7 -209.6 L-187.7 -208.6 L-187.7 -207.6 L-187.7 -206.6 L-187.7 -205.7 L-187.7 -204.7 L-187.8 -203.7 L-187.8 -202.7 L-187.8 -201.7 L-187.8 -200.7 L-187.8 -199.7 L-187.8 -198.8 L-187.8 -197.8 L-187.8 -196.8 L-187.8 -195.8 L-187.8 -194.8 L-187.9 -193.8 L-187.9 -192.8 L-187.9 -191.9 L-187.9 -190.9 L-187.9 -189.9 L-187.9 -188.9 L-187.9 -187.9 L-188.9 -187.9 L-189.9 -187.9 L-190.9 -187.9 L-191.9 -188 L-192.8 -188 L-193.8 -188 L-194.8 -188 L-195.8 -188 L-196.8 -188 L-197.8 -188 L-198.8 -188 L-199.7 -188 L-200.7 -188 L-201.7 -188 L-202.7 -188.1 L-203.7 -188.1 L-204.7 -188.1 L-205.7 -188.1 L-206.6 -188.1 L-207.6 -188.1 L-208.6 -188.1 L-209.6 -188.1 L-210.6 -188.1 L-211.6 -188.1 L-212.6 -188.2 Z " />
<path stroke="rgb(0,0,0)" stroke-opacity="1" fill="rgb(255,255,255)" fill-opacity="1" d="M324.8 200.2 L324.7 202.2 L324.5 204.1 L324 206.1 L323.5 208 L322.8 209.8 L321.9 211.6 L320.9 213.3 L319.8 214.9 L318.6 216.4 L317.2 217.9 L315.7 219.2 L314.2 220.4 L312.5 221.4 L310.8 222.3 L308.9 223.1 L307.1 223.8 L305.2 224.3 L303.2 224.6 L301.3 224.8 L299.3 224.8 L297.3 224.7 L295.4 224.4 L293.5 223.9 L291.6 223.3 L289.7 222.6 L288 221.7 L286.3 220.7 L284.7 219.5 L283.2 218.2 L281.8 216.8 L280.5 215.3 L279.4 213.7 L278.3 212.1 L277.4 210.3 L276.7 208.5 L276.1 206.6 L275.6 204.7 L275.4 202.7 L275.2 200.8 L275.2 198.8 L275.4 196.8 L275.7 194.9 L276.2 193 L276.9 191.1 L277.6 189.3 L278.6 187.6 L279.6 185.9 L280.8 184.3 L282.1 182.8 L283.5 181.5 L285 180.2 L286.7 179.1 L288.4 178.1 L290.1 177.2 L292 176.5 L293.9 176 L295.8 175.6 L297.8 175.3 L299.7 175.2 L301.7 175.3 L303.7 175.5 L305.6 175.8 L307.5 176.4 L309.4 177 L311.1 177.8 L312.9 178.8 L314.5 179.9 L316.1 181.1 L317.5 182.4 L318.9 183.9 L320.1 185.4 L321.2 187.1 L322.1 188.8 L323 190.6 L323.6 192.4 L324.2 194.3 L324.5 196.3 L324.7 198.2 L324.8 200.2 Z " />
<path stroke="rgb(0,0,0)" stroke-opacity="1" fill="rgb(255,255,255)" fill-opacity="1" d="M-712.6 -88.15 L-712.6 -89.14 L-712.5 -90.13 L-712.5 -91.11 L-712.5 -92.1 L-712.5 -93.09 L-712.5 -94.07 L-712.5 -95.06 L-712.5 -96.04 L-712.5 -97.03 L-712.5 -98.02 L-712.5 -99 L-712.4 -99.99 L-712.4 -101 L-712.4 -102 L-712.4 -102.9 L-712.4 -103.9 L-712.4 -104.9 L-712.4 -105.9 L-712.4 -106.9 L-712.4 -107.9 L-712.4 -108.9 L-712.4 -109.8 L-712.3 -110.8 L-712.3 -111.8 L-712.3 -112.8 L-711.3 -112.8 L-710.3 -112.8 L-709.4 -112.8 L-708.4 -112.8 L-707.4 -112.8 L-706.4 -112.7 L-705.4 -112.7 L-704.4 -112.7 L-703.4 -112.7 L-702.5 -112.7 L-701.5 -112.7 L-700.5 -112.7 L-699.5 -112.7 L-698.5 -112.7 L-697.5 -112.7 L-696.5 -112.7 L-695.6 -112.6 L-694.6 -112.6 L-693.6 -112.6 L-692.6 -112.6 L-691.6 -112.6 L-690.6 -112.6 L-689.6 -112.6 L-688.7 -112.6 L-687.7 -112.6 L-687.7 -111.6 L-687.7 -110.6 L-687.7 -109.6 L-687.7 -108.6 L-687.7 -107.6 L-687.7 -106.6 L-687.7 -105.7 L-687.7 -104.7 L-687.8 -103.7 L-687.8 -102.7 L-687.8 -101.7 L-687.8 -100.7 L-687.8 -99.75 L-687.8 -98.76 L-687.8 -97.77 L-687.8 -96.79 L-687.8 -95.8 L-687.8 -94.81 L-687.9 -93.83 L-687.9 -92.84 L-687.9 -91.86 L-687.9 -90.87 L-687.9 -89.88 L-687.9 -88.9 L-687.9 -87.91 L-688.9 -87.92 L-689.9 -87.93 L-690.9 -87.94 L-691.9 -87.95 L-692.8 -87.96 L-693.8 -87.97 L-694.8 -87.98 L-695.8 -87.99 L-696.8 -88 L-697.8 -88.01 L-698.8 -88.02 L-699.7 -88.03 L-700.7 -88.04 L-701.7 -88.05 L-702.7 -88.06 L-703.7 -88.07 L-704.7 -88.08 L-705.7 -88.09 L-706.6 -88.1 L-707.6 -88.11 L-708.6 -88.12 L-709.6 -88.13 L-710.6 -88.13 L-711.6 -88.14 L-712.6 -88.15 Z " />
<path stroke="rgb(0,0,0)" stroke-opacity="1" fill="rgb(255,255,255)" fill-opacity="1" d="M-175.2 300.2 L-175.3 302.2 L-175.5 304.1 L-176 306.1 L-176.5 307.9 L-177.2 309.8 L-178.1 311.6 L-179.1 313.3 L-180.2 314.9 L-181.4 316.4 L-182.8 317.8 L-184.3 319.2 L-185.8 320.3 L-187.5 321.4 L-189.2 322.3 L-191 323.1 L-192.9 323.8 L-194.8 324.2 L-196.8 324.6 L-198.7 324.8 L-200.7 324.8 L-202.7 324.6 L-204.6 324.4 L-206.5 323.9 L-208.4 323.3 L-210.2 322.6 L-212 321.7 L-213.7 320.7 L-215.3 319.5 L-216.8 318.2 L-218.2 316.8 L-219.5 315.4 L-220.6 313.8 L-221.7 312.1 L-222.5 310.3 L-223.3 308.5 L-223.9 306.6 L-224.3 304.7 L-224.6 302.7 L-224.8 300.8 L-224.8 298.8 L-224.6 296.8 L-224.3 294.9 L-223.8 293 L-223.1 291.1 L-222.4 289.3 L-221.5 287.6 L-220.4 285.9 L-219.2 284.3 L-217.9 282.8 L-216.5 281.5 L-215 280.2 L-213.3 279.1 L-211.6 278.1 L-209.9 277.2 L-208 276.5 L-206.1 276 L-204.2 275.6 L-202.3 275.3 L-200.3 275.2 L-198.3 275.3 L-196.4 275.5 L-194.4 275.8 L-192.5 276.4 L-190.7 277 L-188.9 277.8 L-187.1 278.8 L-185.5 279.9 L-183.9 281.1 L-182.5 282.4 L-181.2 283.9 L-179.9 285.4 L-178.8 287.1 L-177.9 288.8 L-177.1 290.6 L-176.4 292.4 L-175.9 294.3 L-175.5 296.3 L-175.3 298.2 L-175.2 300.2 Z " />
<path stroke="rgb(0,0,0)" stroke-opacity="1" fill="rgb(255,255,255)" fill-opacity="1" d="M-512.6 -88.15 L-512.6 -89.14 L-512.5 -90.13 L-512.5 -91.11 L-512.5 -92.1 L-512.5 -93.09 L-512.5 -94.07 L-512.5 -95.06 L-512.5 -96.04 L-512.5 -97.03 L-512.5 -98.02 L-512.5 -99 L-512.4 -99.99 L-512.4 -101 L-512.4 -102 L-512.4 -102.9 L-512.4 -103.9 L-512.4 -104.9 L-512.4 -105.9 L-512.4 -106.9 L-512.4 -107.9 L-512.4 -108.9 L-512.4 -109.8 L-512.3 -110.8 L-512.3 -111.8 L-512.3 -112.8 L-511.3 -112.8 L-510.3 -112.8 L-509.4 -112.8 L-508.4 -112.8 L-507.4 -112.8 L-506.4 -112.7 L-505.4 -112.7 L-504.4 -112.7 L-503.4 -112.7 L-502.5 -112.7 L-501.5 -112.7 L-500.5 -112.7 L-499.5 -112.7 L-498.5 -112.7 L-497.5 -112.7 L-496.5 -112.7 L-495.6 -112.6 L-494.6 -112.6 L-493.6 -112.6 L-492.6 -112.6 L-491.6 -112.6 L-490.6 -112.6 L-489.6 -112.6 L-488.7 -112.6 L-487.7 -112.6 L-487.7 -111.6 L-487.7 -110.6 L-487.7 -109.6 L-487.7 -108.6 L-487.7 -107.6 L-487.7 -106.6 L-487.7 -105.7 L-487.7 -104.7 L-487.8 -103.7 L-487.8 -102.7 L-487.8 -101.7 L-487.8 -100.7 L-487.8 -99.75 L-487.8 -98.76 L-487.8 -97.77 L-487.8 -96.79 L-487.8 -95.8 L-487.8 -94.81 L-487.9 -93.83 L-487.9 -92.84 L-487.9 -91.86 L-487.9 -90.87 L-487.9 -89.88 L-487.9 -88.9 L-487.9 -87.91 L-488.9 -87.92 L-489.9 -87.93 L-490.9 -87.94 L-491.9 -87.95 L-492.8 -87.96 L-493.8 -87.97 L-494.8 -87.98 L-495.8 -87.99 L-496.8 -88 L-497.8 -88.01 L-498.8 -88.02 L-499.7 -88.03 L-500.7 -88.04 L-501.7 -88.05 L-502.7 -88.06 L-503.7 -88.07 L-504.7 -88.08 L-505.7 -88.09 L-506.6 -88.1 L-507.6 -88.11 L-508.6 -88.12 L-509.6 -88.13 L-510.6 -88.13 L-511.6 -88.14 L-512.6 -88.15 Z " />
<path stroke="rgb(0,0,0)" stroke-opacity="1" fill="rgb(255,255,255)" fill-opacity="1" d="M24.8 300.2 L24.71 302.2 L24.45 304.1 L24.05 306.1 L23.49 308 L22.78 309.8 L21.93 311.6 L20.94 313.3 L19.82 314.9 L18.57 316.4 L17.21 317.9 L15.74 319.2 L14.16 320.4 L12.5 321.4 L10.76 322.3 L8.949 323.1 L7.083 323.8 L5.172 324.3 L3.229 324.6 L1.265 324.8 L-0.7071 324.8 L-2.674 324.7 L-4.625 324.4 L-6.546 323.9 L-8.426 323.3 L-10.25 322.6 L-12.01 321.7 L-13.7 320.7 L-15.3 319.5 L-16.8 318.2 L-18.2 316.8 L-19.48 315.3 L-20.64 313.7 L-21.66 312.1 L-22.55 310.3 L-23.3 308.5 L-23.9 306.6 L-24.35 304.7 L-24.65 302.7 L-24.79 300.8 L-24.77 298.8 L-24.6 296.8 L-24.27 294.9 L-23.78 293 L-23.15 291.1 L-22.37 289.3 L-21.45 287.6 L-20.39 285.9 L-19.21 284.3 L-17.9 282.8 L-16.48 281.5 L-14.96 280.2 L-13.34 279.1 L-11.63 278.1 L-9.856 277.2 L-8.017 276.5 L-6.127 276 L-4.199 275.6 L-2.243 275.3 L-0.274 275.2 L1.697 275.3 L3.658 275.5 L5.595 275.8 L7.497 276.4 L9.352 277 L11.15 277.8 L12.87 278.8 L14.52 279.9 L16.07 281.1 L17.52 282.4 L18.86 283.9 L20.08 285.4 L21.17 287.1 L22.13 288.8 L22.95 290.6 L23.63 292.4 L24.15 294.3 L24.52 296.3 L24.74 298.2 L24.8 300.2 Z " />
<path stroke="rgb(0,0,0)" stroke-opacity="1" fill="rgb(255,255,255)" fill-opacity="1" d="M-312.6 -88.15 L-312.6 -89.14 L-312.5 -90.13 L-312.5 -91.11 L-312.5 -92.1 L-312.5 -93.09 L-312.5 -94.07 L-312.5 -95.06 L-312.5 -96.04 L-312.5 -97.03 L-312.5 -98.02 L-312.5 -99 L-312.4 -99.99 L-312.4 -101 L-312.4 -102 L-312.4 -102.9 L-312.4 -103.9 L-312.4 -104.9 L-312.4 -105.9 L-312.4 -106.9 L-312.4 -107.9 L-312.4 -108.9 L-312.4 -109.8 L-312.3 -110.8 L-312.3 -111.8 L-312.3 -112.8 L-311.3 -112.8 L-310.3 -112.8 L-309.4 -112.8 L-308.4 -112.8 L-307.4 -112.8 L-306.4 -112.7 L-305.4 -112.7 L-304.4 -112.7 L-303.4 -112.7 L-302.5 -112.7 L-301.5 -112.7 L-300.5 -112.7 L-299.5 -112.7 L-298.5 -112.7 L-297.5 -112.7 L-296.5 -112.7 L-295.6 -112.6 L-294.6 -112.6 L-293.6 -112.6 L-292.6 -112.6 L-291.6 -112.6 L-290.6 -112.6 L-289.6 -112.6 L-288.7 -112.6 L-287.7 -112.6 L-287.7 -111.6 L-287.7 -110.6 L-287.7 -109.6 L-287.7 -108.6 L-287.7 -107.6 L-287.7 -106.6 L-287.7 -105.7 L-287.7 -104.7 L-287.8 -103.7 L-287.8 -102.7 L-287.8 -101.7 L-287.8 -100.7 L-287.8 -99.75 L-287.8 -98.76 L-287.8 -97.77 L-287.8 -96.79 L-287.8 -95.8 L-287.8 -94.81 L-287.9 -93.83 L-287.9 -92.84 L-287.9 -91.86 L-287.9 -90.87 L-287.9 -89.88 L-287.9 -88.9 L-287.9 -87.91 L-288.9 -87.92 L-289.9 -87.93 L-290.9 -87.94 L-291.9 -87.95 L-292.8 -87.96 L-293.8 -87.97 L-294.8 -87.98 L-295.8 -87.99 L-296.8 -88 L-297.8 -88.01 L-298.8 -88.02 L-299.7 -88.03 L-300.7 -88.04 L-301.7 -88.05 L-302.7 -88.06 L-303.7 -88.07 L-304.7 -88.08 L-305.7 -88.09 L-306.6 -88.1 L-307.6 -88.11 L-308.6 -88.12 L-309.6 -88.13 L-310.6 -88.13 L-311.6 -88.14 L-312.6 -88.15 Z " />
<path stroke="rgb(0,0,0)" stroke-opacity="1" fill="rgb(255,255,255)" fill-opacity="1" d="M224.8 300.2 L224.7 302.2 L224.5 304.1 L224 306.1 L223.5 308 L222.8 309.8 L221.9 311.6 L220.9 313.3 L219.8 314.9 L218.6 316.4 L217.2 317.9 L215.7 319.2 L214.2 320.4 L212.5 321.4 L210.8 322.3 L208.9 323.1 L207.1 323.8 L205.2 324.3 L203.2 324.6 L201.3 324.8 L199.3 324.8 L197.3 324.7 L195.4 324.4 L193.5 323.9 L191.6 323.3 L189.7 322.6 L188 321.7 L186.3 320.7 L184.7 319.5 L183.2 318.2 L181.8 316.8 L180.5 315.3 L179.4 313.7 L178.3 312.1 L177.4 310.3 L176.7 308.5 L176.1 306.6 L175.6 304.7 L175.4 302.7 L175.2 300.8 L175.2 298.8 L175.4 296.8 L175.7 294.9 L176.2 293 L176.9 291.1 L177.6 289.3 L178.6 287.6 L179.6 285.9 L180.8 284.3 L182.1 282.8 L183.5 281.5 L185 280.2 L186.7 279.1 L188.4 278.1 L190.1 277.2 L192 276.5 L193.9 276 L195.8 275.6 L197.8 275.3 L199.7 275.2 L201.7 275.3 L203.7 275.5 L205.6 275.8 L207.5 276.4 L209.4 277 L211.1 277.8 L212.9 278.8 L214.5 279.9 L216.1 281.1 L217.5 282.4 L218.9 283.9 L220.1 285.4 L221.2 287.1 L222.1 288.8 L223 290.6 L223.6 292.4 L224.2 294.3 L224.5 296.3 L224.7 298.2 L224.8 300.2 Z " />
<path stroke="rgb(0,0,0)" stroke-opacity="1" fill="rgb(255,255,255)" fill-opacity="1" d="M-112.6 -88.15 L-112.6 -89.14 L-112.5 -90.13 L-112.5 -91.11 L-112.5 -92.1 L-112.5 -93.09 L-112.5 -94.07 L-112.5 -95.06 L-112.5 -96.04 L-112.5 -97.03 L-112.5 -98.02 L-112.5 -99 L-112.4 -99.99 L-112.4 -101 L-112.4 -102 L-112.4 -102.9 L-112.4 -103.9 L-112.4 -104.9 L-112.4 -105.9 L-112.4 -106.9 L-112.4 -107.9 L-112.4 -108.9 L-112.4 -109.8 L-112.3 -110.8 L-112.3 -111.8 L-112.3 -112.8 L-111.3 -112.8 L-110.3 -112.8 L-109.4 -112.8 L-108.4 -112.8 L-107.4 -112.8 L-106.4 -112.7 L-105.4 -112.7 L-104.4 -112.7 L-103.4 -112.7 L-102.5 -112.7 L-101.5 -112.7 L-100.5 -112.7 L-99.5 -112.7 L-98.51 -112.7 L-97.53 -112.7 L-96.54 -112.7 L-95.56 -112.6 L-94.57 -112.6 L-93.58 -112.6 L-92.6 -112.6 L-91.61 -112.6 L-90.63 -112.6 L-89.64 -112.6 L-88.65 -112.6 L-87.67 -112.6 L-87.68 -111.6 L-87.69 -110.6 L-87.7 -109.6 L-87.71 -108.6 L-87.72 -107.6 L-87.73 -106.6 L-87.74 -105.7 L-87.74 -104.7 L-87.75 -103.7 L-87.76 -102.7 L-87.77 -101.7 L-87.78 -100.7 L-87.79 -99.75 L-87.8 -98.76 L-87.81 -97.77 L-87.82 -96.79 L-87.83 -95.8 L-87.84 -94.81 L-87.85 -93.83 L-87.86 -92.84 L-87.87 -91.86 L-87.88 -90.87 L-87.89 -89.88 L-87.9 -88.9 L-87.91 -87.91 L-88.9 -87.92 L-89.88 -87.93 L-90.87 -87.94 L-91.85 -87.95 L-92.84 -87.96 L-93.83 -87.97 L-94.81 -87.98 L-95.8 -87.99 L-96.79 -88 L-97.77 -88.01 L-98.76 -88.02 L-99.74 -88.03 L-100.7 -88.04 L-101.7 -88.05 L-102.7 -88.06 L-103.7 -88.07 L-104.7 -88.08 L-105.7 -88.09 L-106.6 -88.1 L-107.6 -88.11 L-108.6 -88.12 L-109.6 -88.13 L-110.6 -88.13 L-111.6 -88.14 L-112.6 -88.15 Z " />
</g>
</g>
</svg>
