<!DOCTYPE svg>
<svg xmlns="http://www.w3.org/2000/svg" xmlns:xlink="http://www.w3.org/1999/xlink" width="1000" height="1000">
<g transform="translate(500.000000,500.000000)">
<g transform="scale(3.000000,3.000000)">
<path stroke="rgb(0,0,0)" stroke-opacity="1" fill="rgb(255,255,255)" fill-opacity="1" d="M-487.5 -512.3 L-487.5 -511.3 L-487.6 -510.3 L-487.6 -509.3 L-487.6 -508.3 L-487.6 -507.3 L-487.7 -506.3 L-487.7 -505.3 L-487.7 -504.3 L-487.8 -503.3 L-487.8 -502.3 L-487.8 -501.3 L-487.8 -500.3 L-487.9 -499.3 L-487.9 -498.3 L-487.9 -497.3 L-487.9 -496.3 L-488 -495.3 L-488 -494.3 L-488 -493.3 L-488.1 -492.3 L-488.1 -491.3 L-488.1 -490.3 L-488.1 -489.3 L-488.2 -488.3 L-488.2 -487.3 L-489.2 -487.3 L-490.2 -487.3 L-491.2 -487.3 L-492.2 -487.4 L-493.2 -487.4 L-494.2 -487.4 L-495.2 -487.4 L-496.2 -487.5 L-497.2 -487.5 L-498.2 -487.5 L-499.2 -487.6 L-500.2 -487.6 L-501.2 -487.6 L-502.2 -487.6 L-503.2 -487.7 L-504.2 -487.7 L-505.2 -487.7 L-506.2 -487.8 L-507.2 -487.8 L-508.2 -487.8 L-509.2 -487.8 L-510.2 -487.9 L-511.2 -487.9 L-512.2 -487.9 L-513.2 -487.9 L-513.2 -488.9 L-513.2 -489.9 L-513.2 -490.9 L-513.1 -491.9 L-513.1 -493 L-513.1 -494 L-513 -495 L-513 -496 L-513 -497 L-513 -498 L-512.9 -499 L-512.9 -500 L-512.9 -501 L-512.9 -502 L-512.8 -503 L-512.8 -504 L-512.8 -505 L-512.7 -506 L-512.7 -507 L-512.7 -508 L-512.7 -509 L-512.6 -510 L-512.6 -511 L-512.6 -512 L-512.6 -513 L-511.6 -513 L-510.5 -512.9 L-509.5 -512.9 L-508.5 -512.9 L-507.5 -512.8 L-506.5 -512.8 L-505.5 -512.8 L-504.5 -512.8 L-503.5 -512.7 L-502.5 -512.7 L-501.5 -512.7 L-500.5 -512.7 L-499.5 -512.6 L-498.5 -512.6 L-497.5 -512.6 L-496.5 -512.5 L-495.5 -512.5 L-494.5 -512.5 L-493.5 -512.5 L-492.5 -512.4 L-491.5 -512.4 L-490.5 -512.4 L-489.5 -512.4 L-488.5 -512.3 L-487.5 -512.3 Z " />
<path stroke="rgb(0,0,0)" stroke-opacity="0.407" fill="rgb(255,255,255)" fill-opacity="1" d="M-175.1 -299.9 L-175.2 -297.9 L-175.4 -295.9 L-175.8 -294 L-176.4 -292.1 L-177.1 -290.3 L-177.9 -288.5 L-178.9 -286.8 L-180 -285.1 L-181.3 -283.6 L-182.6 -282.1 L-184.1 -280.8 L-185.7 -279.6 L-187.4 -278.5 L-189.1 -277.6 L-190.9 -276.8 L-192.8 -276.2 L-194.7 -275.7 L-196.7 -275.3 L-198.6 -275.1 L-200.6 -275.1 L-202.6 -275.2 L-204.5 -275.5 L-206.5 -276 L-208.4 -276.5 L-210.2 -277.3 L-212 -278.2 L-213.7 -279.2 L-215.3 -280.3 L-216.8 -281.6 L-218.2 -283 L-219.5 -284.5 L-220.7 -286.1 L-221.7 -287.8 L-222.6 -289.6 L-223.4 -291.4 L-224 -293.3 L-224.4 -295.2 L-224.7 -297.1 L-224.9 -299.1 L-224.9 -301.1 L-224.7 -303.1 L-224.4 -305 L-223.9 -306.9 L-223.3 -308.8 L-222.5 -310.6 L-221.6 -312.4 L-220.5 -314.1 L-219.4 -315.7 L-218 -317.2 L-216.6 -318.5 L-215.1 -319.8 L-213.5 -320.9 L-211.8 -321.9 L-210 -322.8 L-208.2 -323.5 L-206.3 -324.1 L-204.3 -324.5 L-202.4 -324.8 L-200.4 -324.9 L-198.4 -324.9 L-196.4 -324.6 L-194.5 -324.3 L-192.6 -323.8 L-190.7 -323.1 L-188.9 -322.3 L-187.2 -321.3 L-185.5 -320.3 L-184 -319 L-182.5 -317.7 L-181.1 -316.3 L-179.9 -314.7 L-178.8 -313.1 L-177.8 -311.3 L-177 -309.5 L-176.3 -307.7 L-175.8 -305.8 L-175.4 -303.8 L-175.2 -301.9 L-175.1 -299.9 Z " />
<path stroke="rgb(0,0,0)" stroke-opacity="1" fill="rgb(255,255,255)" fill-opacity="1" d="M-283.8 -510.3 L-284.1 -509.2 L-284.3 -508.1 L-284.6 -507.1 L-284.8 -506 L-285.1 -504.9 L-285.4 -503.9 L-285.6 -502.8 L-285.9 -501.7 L-286.1 -500.6 L-286.4 -499.6 L-286.7 -498.5 L-286.9 -497.4 L-287.2 -496.4 L-287.4 -495.3 L-287.7 -494.2 L-288 -493.2 L-288.2 -492.1 L-288.5 -491 L-288.7 -490 L-289 -488.9 L-289.2 -487.8 L-289.5 -486.7 L-289.8 -485.7 L-290 -484.6 L-290.3 -483.5 L-291.4 -483.8 L-292.4 -484.1 L-293.5 -484.3 L-294.6 -484.6 L-295.6 -484.8 L-296.7 -485.1 L-297.8 -485.4 L-298.8 -485.6 L-299.9 -485.9 L-301 -486.1 L-302 -486.4 L-303.1 -486.7 L-304.2 -486.9 L-305.3 -487.2 L-306.3 -487.4 L-307.4 -487.7 L-308.5 -487.9 L-309.5 -488.2 L-310.6 -488.5 L-311.7 -488.7 L-312.7 -489 L-313.8 -489.2 L-314.9 -489.5 L-315.9 -489.8 L-317 -490 L-316.8 -491.1 L-316.5 -492.2 L-316.2 -493.2 L-316 -494.3 L-315.7 -495.4 L-315.5 -496.4 L-315.2 -497.5 L-314.9 -498.6 L-314.7 -499.6 L-314.4 -500.7 L-314.2 -501.8 L-313.9 -502.8 L-313.6 -503.9 L-313.4 -505 L-313.1 -506.1 L-312.9 -507.1 L-312.6 -508.2 L-312.3 -509.3 L-312.1 -510.3 L-311.8 -511.4 L-311.6 -512.5 L-311.3 -513.5 L-311 -514.6 L-310.8 -515.7 L-310.5 -516.7 L-309.5 -516.5 L-308.4 -516.2 L-307.3 -516 L-306.3 -515.7 L-305.2 -515.5 L-304.1 -515.2 L-303 -514.9 L-302 -514.7 L-300.9 -514.4 L-299.8 -514.2 L-298.8 -513.9 L-297.7 -513.6 L-296.6 -513.4 L-295.6 -513.1 L-294.5 -512.9 L-293.4 -512.6 L-292.4 -512.3 L-291.3 -512.1 L-290.2 -511.8 L-289.1 -511.6 L-288.1 -511.3 L-287 -511 L-285.9 -510.8 L-284.9 -510.5 L-283.8 -510.3 Z " />
<path stroke="rgb(0,0,0)" stroke-opacity="0.407" fill="rgb(255,255,255)" fill-opacity="1" d="M24.9 -299.9 L24.81 -297.9 L24.57 -295.9 L24.17 -294 L23.62 -292.1 L22.92 -290.3 L22.07 -288.5 L21.08 -286.8 L19.96 -285.1 L18.72 -283.6 L17.35 -282.1 L15.88 -280.8 L14.31 -279.6 L12.64 -278.5 L10.9 -277.6 L9.085 -276.8 L7.214 -276.2 L5.298 -275.7 L3.348 -275.3 L1.377 -275.1 L-0.6025 -275.1 L-2.578 -275.2 L-4.538 -275.5 L-6.469 -276 L-8.359 -276.5 L-10.2 -277.3 L-11.97 -278.2 L-13.67 -279.2 L-15.28 -280.3 L-16.79 -281.6 L-18.2 -283 L-19.49 -284.5 L-20.66 -286.1 L-21.7 -287.8 L-22.6 -289.6 L-23.36 -291.4 L-23.97 -293.3 L-24.43 -295.2 L-24.73 -297.1 L-24.88 -299.1 L-24.87 -301.1 L-24.71 -303.1 L-24.39 -305 L-23.91 -306.9 L-23.28 -308.8 L-22.51 -310.6 L-21.59 -312.4 L-20.54 -314.1 L-19.35 -315.7 L-18.05 -317.2 L-16.63 -318.5 L-15.1 -319.8 L-13.48 -320.9 L-11.78 -321.9 L-9.997 -322.8 L-8.153 -323.5 L-6.258 -324.1 L-4.324 -324.5 L-2.362 -324.8 L-0.3851 -324.9 L1.594 -324.9 L3.563 -324.6 L5.51 -324.3 L7.422 -323.8 L9.287 -323.1 L11.09 -322.3 L12.83 -321.3 L14.48 -320.3 L16.05 -319 L17.51 -317.7 L18.86 -316.3 L20.09 -314.7 L21.2 -313.1 L22.17 -311.3 L23 -309.5 L23.69 -307.7 L24.22 -305.8 L24.6 -303.8 L24.83 -301.9 L24.9 -299.9 Z " />
<path stroke="rgb(0,0,0)" stroke-opacity="1" fill="rgb(255,255,255)" fill-opacity="1" d="M-74.97 -498.4 L-76.07 -497.4 L-77.16 -496.5 L-78.26 -495.5 L-79.36 -494.6 L-80.45 -493.6 L-81.55 -492.7 L-82.65 -491.8 L-83.74 -490.8 L-84.84 -489.9 L-85.94 -488.9 L-87.03 -488 L-88.13 -487 L-89.23 -486.1 L-90.32 -485.1 L-91.42 -484.2 L-92.52 -483.2 L-93.61 -482.3 L-94.71 -481.4 L-95.81 -480.4 L-96.91 -479.5 L-98 -478.5 L-99.1 -477.6 L-100.2 -476.6 L-101.3 -475.7 L-102.4 -474.7 L-103.3 -475.8 L-104.3 -476.9 L-105.2 -478 L-106.2 -479.1 L-107.1 -480.2 L-108.1 -481.3 L-109 -482.4 L-110 -483.5 L-110.9 -484.6 L-111.8 -485.7 L-112.8 -486.8 L-113.7 -487.9 L-114.7 -489 L-115.6 -490.1 L-116.6 -491.2 L-117.5 -492.3 L-118.5 -493.4 L-119.4 -494.5 L-120.4 -495.6 L-121.3 -496.7 L-122.2 -497.8 L-123.2 -498.9 L-124.1 -500 L-125.1 -501.1 L-126 -502.2 L-124.9 -503.1 L-123.8 -504 L-122.7 -505 L-121.6 -505.9 L-120.5 -506.9 L-119.4 -507.8 L-118.3 -508.8 L-117.2 -509.7 L-116.2 -510.7 L-115.1 -511.6 L-114 -512.6 L-112.9 -513.5 L-111.8 -514.4 L-110.7 -515.4 L-109.6 -516.3 L-108.5 -517.3 L-107.4 -518.2 L-106.3 -519.2 L-105.2 -520.1 L-104.1 -521.1 L-103 -522 L-101.9 -523 L-100.8 -523.9 L-99.7 -524.8 L-98.6 -525.8 L-97.66 -524.7 L-96.71 -523.6 L-95.77 -522.5 L-94.82 -521.4 L-93.88 -520.3 L-92.93 -519.2 L-91.98 -518.1 L-91.04 -517 L-90.09 -515.9 L-89.15 -514.8 L-88.2 -513.7 L-87.26 -512.6 L-86.31 -511.5 L-85.37 -510.4 L-84.42 -509.3 L-83.48 -508.2 L-82.53 -507.1 L-81.59 -506 L-80.64 -504.9 L-79.7 -503.9 L-78.75 -502.8 L-77.8 -501.7 L-76.86 -500.6 L-75.91 -499.5 L-74.97 -498.4 Z " />
<path stroke="rgb(0,0,0)" stroke-opacity="0.407" fill="rgb(255,255,255)" fill-opacity="1" d="M224.9 -299.9 L224.8 -297.9 L224.6 -295.9 L224.2 -294 L223.6 -292.1 L222.9 -290.3 L222.1 -288.5 L221.1 -286.8 L220 -285.1 L218.7 -283.6 L217.4 -282.1 L215.9 -280.8 L214.3 -279.6 L212.6 -278.5 L210.9 -277.6 L209.1 -276.8 L207.2 -276.2 L205.3 -275.7 L203.3 -275.3 L201.4 -275.1 L199.4 -275.1 L197.4 -275.2 L195.5 -275.5 L193.5 -276 L191.6 -276.5 L189.8 -277.3 L188 -278.2 L186.3 -279.2 L184.7 -280.3 L183.2 -281.6 L181.8 -283 L180.5 -284.5 L179.3 -286.1 L178.3 -287.8 L177.4 -289.6 L176.6 -291.4 L176 -293.3 L175.6 -295.2 L175.3 -297.1 L175.1 -299.1 L175.1 -301.1 L175.3 -303.1 L175.6 -305 L176.1 -306.9 L176.7 -308.8 L177.5 -310.6 L178.4 -312.4 L179.5 -314.1 L180.6 -315.7 L182 -317.2 L183.4 -318.5 L184.9 -319.8 L186.5 -320.9 L188.2 -321.9 L190 -322.8 L191.8 -323.5 L193.7 -324.1 L195.7 -324.5 L197.6 -324.8 L199.6 -324.9 L201.6 -324.9 L203.6 -324.6 L205.5 -324.3 L207.4 -323.8 L209.3 -323.1 L211.1 -322.3 L212.8 -321.3 L214.5 -320.3 L216 -319 L217.5 -317.7 L218.9 -316.3 L220.1 -314.7 L221.2 -313.1 L222.2 -311.3 L223 -309.5 L223.7 -307.7 L224.2 -305.8 L224.6 -303.8 L224.8 -301.9 L224.9 -299.9 Z " />
<path stroke="rgb(0,0,0)" stroke-opacity="1" fill="rgb(255,255,255)" fill-opacity="1" d="M126.1 -481.7 L124.2 -481.4 L122.4 -481 L120.6 -480.7 L118.8 -480.4 L117 -480.1 L115.2 -479.8 L113.4 -479.5 L111.6 -479.2 L109.7 -478.9 L107.9 -478.6 L106.1 -478.2 L104.3 -477.9 L102.5 -477.6 L100.7 -477.3 L98.86 -477 L97.05 -476.7 L95.24 -476.4 L93.42 -476.1 L91.61 -475.7 L89.8 -475.4 L87.99 -475.1 L86.17 -474.8 L84.36 -474.5 L82.55 -474.2 L80.73 -473.9 L80.42 -475.7 L80.11 -477.5 L79.8 -479.3 L79.49 -481.1 L79.17 -482.9 L78.86 -484.7 L78.55 -486.6 L78.24 -488.4 L77.93 -490.2 L77.62 -492 L77.3 -493.8 L76.99 -495.6 L76.68 -497.4 L76.37 -499.2 L76.06 -501.1 L75.74 -502.9 L75.43 -504.7 L75.12 -506.5 L74.81 -508.3 L74.5 -510.1 L74.18 -511.9 L73.87 -513.8 L73.56 -515.6 L73.25 -517.4 L72.94 -519.2 L74.75 -519.5 L76.56 -519.8 L78.37 -520.1 L80.19 -520.4 L82 -520.7 L83.81 -521.1 L85.62 -521.4 L87.44 -521.7 L89.25 -522 L91.06 -522.3 L92.88 -522.6 L94.69 -522.9 L96.5 -523.2 L98.31 -523.6 L100.1 -523.9 L101.9 -524.2 L103.8 -524.5 L105.6 -524.8 L107.4 -525.1 L109.2 -525.4 L111 -525.7 L112.8 -526.1 L114.6 -526.4 L116.4 -526.7 L118.3 -527 L118.6 -525.2 L118.9 -523.4 L119.2 -521.5 L119.5 -519.7 L119.8 -517.9 L120.1 -516.1 L120.4 -514.3 L120.7 -512.5 L121.1 -510.7 L121.4 -508.9 L121.7 -507 L122 -505.2 L122.3 -503.4 L122.6 -501.6 L122.9 -499.8 L123.2 -498 L123.6 -496.2 L123.9 -494.4 L124.2 -492.5 L124.5 -490.7 L124.8 -488.9 L125.1 -487.1 L125.4 -485.3 L125.7 -483.5 L126.1 -481.7 Z " />
<path stroke="rgb(0,0,0)" stroke-opacity="0.407" fill="rgb(255,255,255)" fill-opacity="1" d="M-275.1 -199.9 L-275.2 -197.9 L-275.4 -195.9 L-275.8 -194 L-276.4 -192.1 L-277.1 -190.3 L-277.9 -188.5 L-278.9 -186.8 L-280 -185.1 L-281.3 -183.6 L-282.6 -182.1 L-284.1 -180.8 L-285.7 -179.6 L-287.4 -178.5 L-289.1 -177.6 L-290.9 -176.8 L-292.8 -176.2 L-294.7 -175.7 L-296.7 -175.3 L-298.6 -175.1 L-300.6 -175.1 L-302.6 -175.2 L-304.5 -175.5 L-306.5 -176 L-308.4 -176.5 L-310.2 -177.3 L-312 -178.2 L-313.7 -179.2 L-315.3 -180.3 L-316.8 -181.6 L-318.2 -183 L-319.5 -184.5 L-320.7 -186.1 L-321.7 -187.8 L-322.6 -189.6 L-323.4 -191.4 L-324 -193.3 L-324.4 -195.2 L-324.7 -197.1 L-324.9 -199.1 L-324.9 -201.1 L-324.7 -203.1 L-324.4 -205 L-323.9 -206.9 L-323.3 -208.8 L-322.5 -210.6 L-321.6 -212.4 L-320.5 -214.1 L-319.4 -215.7 L-318 -217.2 L-316.6 -218.5 L-315.1 -219.8 L-313.5 -220.9 L-311.8 -221.9 L-310 -222.8 L-308.2 -223.5 L-306.3 -224.1 L-304.3 -224.5 L-302.4 -224.8 L-300.4 -224.9 L-298.4 -224.9 L-296.4 -224.6 L-294.5 -224.3 L-292.6 -223.8 L-290.7 -223.1 L-288.9 -222.3 L-287.2 -221.3 L-285.5 -220.3 L-284 -219 L-282.5 -217.7 L-281.1 -216.3 L-279.9 -214.7 L-278.8 -213.1 L-277.8 -211.3 L-277 -209.5 L-276.3 -207.7 L-275.8 -205.8 L-275.4 -203.8 L-275.2 -201.9 L-275.1 -199.9 Z " />
<path stroke="rgb(0,0,0)" stroke-opacity="1" fill="rgb(255,255,255)" fill-opacity="1" d="M-383.8 -410.3 L-384.1 -409.2 L-384.3 -408.1 L-384.6 -407.1 L-384.8 -406 L-385.1 -404.9 L-385.4 -403.9 L-385.6 -402.8 L-385.9 -401.7 L-386.1 -400.6 L-386.4 -399.6 L-386.7 -398.5 L-386.9 -397.4 L-387.2 -396.4 L-387.4 -395.3 L-387.7 -394.2 L-388 -393.2 L-388.2 -392.1 L-388.5 -391 L-388.7 -390 L-389 -388.9 L-389.2 -387.8 L-389.5 -386.7 L-389.8 -385.7 L-390 -384.6 L-390.3 -383.5 L-391.4 -383.8 L-392.4 -384.1 L-393.5 -384.3 L-394.6 -384.6 L-395.6 -384.8 L-396.7 -385.1 L-397.8 -385.4 L-398.8 -385.6 L-399.9 -385.9 L-401 -386.1 L-402 -386.4 L-403.1 -386.7 L-404.2 -386.9 L-405.3 -387.2 L-406.3 -387.4 L-407.4 -387.7 L-408.5 -387.9 L-409.5 -388.2 L-410.6 -388.5 L-411.7 -388.7 L-412.7 -389 L-413.8 -389.2 L-414.9 -389.5 L-415.9 -389.8 L-417 -390 L-416.8 -391.1 L-416.5 -392.2 L-416.2 -393.2 L-416 -394.3 L-415.7 -395.4 L-415.5 -396.4 L-415.2 -397.5 L-414.9 -398.6 L-414.7 -399.6 L-414.4 -400.7 L-414.2 -401.8 L-413.9 -402.8 L-413.6 -403.9 L-413.4 -405 L-413.1 -406.1 L-412.9 -407.1 L-412.6 -408.2 L-412.3 -409.3 L-412.1 -410.3 L-411.8 -411.4 L-411.6 -412.5 L-411.3 -413.5 L-411 -414.6 L-410.8 -415.7 L-410.5 -416.7 L-409.5 -416.5 L-408.4 -416.2 L-407.3 -416 L-406.3 -415.7 L-405.2 -415.5 L-404.1 -415.2 L-403 -414.9 L-402 -414.7 L-400.9 -414.4 L-399.8 -414.2 L-398.8 -413.9 L-397.7 -413.6 L-396.6 -413.4 L-395.6 -413.1 L-394.5 -412.9 L-393.4 -412.6 L-392.4 -412.3 L-391.3 -412.1 L-390.2 -411.8 L-389.1 -411.6 L-388.1 -411.3 L-387 -411 L-385.9 -410.8 L-384.9 -410.5 L-383.8 -410.3 Z " />
<path stroke="rgb(0,0,0)" stroke-opacity="0.407" fill="rgb(255,255,255)" fill-opacity="1" d="M-75.1 -199.9 L-75.19 -197.9 L-75.43 -195.9 L-75.83 -194 L-76.38 -192.1 L-77.08 -190.3 L-77.93 -188.5 L-78.92 -186.8 L-80.04 -185.1 L-81.28 -183.6 L-82.65 -182.1 L-84.12 -180.8 L-85.69 -179.6 L-87.36 -178.5 L-89.1 -177.6 L-90.92 -176.8 L-92.79 -176.2 L-94.7 -175.7 L-96.65 -175.3 L-98.62 -175.1 L-100.6 -175.1 L-102.6 -175.2 L-104.5 -175.5 L-106.5 -176 L-108.4 -176.5 L-110.2 -177.3 L-112 -178.2 L-113.7 -179.2 L-115.3 -180.3 L-116.8 -181.6 L-118.2 -183 L-119.5 -184.5 L-120.7 -186.1 L-121.7 -187.8 L-122.6 -189.6 L-123.4 -191.4 L-124 -193.3 L-124.4 -195.2 L-124.7 -197.1 L-124.9 -199.1 L-124.9 -201.1 L-124.7 -203.1 L-124.4 -205 L-123.9 -206.9 L-123.3 -208.8 L-122.5 -210.6 L-121.6 -212.4 L-120.5 -214.1 L-119.4 -215.7 L-118 -217.2 L-116.6 -218.5 L-115.1 -219.8 L-113.5 -220.9 L-111.8 -221.9 L-110 -222.8 L-108.2 -223.5 L-106.3 -224.1 L-104.3 -224.5 L-102.4 -224.8 L-100.4 -224.9 L-98.41 -224.9 L-96.44 -224.6 L-94.49 -224.3 L-92.58 -223.8 L-90.71 -223.1 L-88.91 -222.3 L-87.17 -221.3 L-85.52 -220.3 L-83.95 -219 L-82.49 -217.7 L-81.14 -216.3 L-79.91 -214.7 L-78.8 -213.1 L-77.83 -211.3 L-77 -209.5 L-76.31 -207.7 L-75.78 -205.8 L-75.4 -203.8 L-75.17 -201.9 L-75.1 -199.9 Z " />
<path stroke="rgb(0,0,0)" stroke-opacity="1" fill="rgb(255,255,255)" fill-opacity="1" d="M-175 -398.4 L-176.1 -397.4 L-177.2 -396.5 L-178.3 -395.5 L-179.4 -394.6 L-180.5 -393.6 L-181.5 -392.7 L-182.6 -391.8 L-183.7 -390.8 L-184.8 -389.9 L-185.9 -388.9 L-187 -388 L-188.1 -387 L-189.2 -386.1 L-190.3 -385.1 L-191.4 -384.2 L-192.5 -383.2 L-193.6 -382.3 L-194.7 -381.4 L-195.8 -380.4 L-196.9 -379.5 L-198 -378.5 L-199.1 -377.6 L-200.2 -376.6 L-201.3 -375.7 L-202.4 -374.7 L-203.3 -375.8 L-204.3 -376.9 L-205.2 -378 L-206.2 -379.1 L-207.1 -380.2 L-208.1 -381.3 L-209 -382.4 L-210 -383.5 L-210.9 -384.6 L-211.8 -385.7 L-212.8 -386.8 L-213.7 -387.9 L-214.7 -389 L-215.6 -390.1 L-216.6 -391.2 L-217.5 -392.3 L-218.5 -393.4 L-219.4 -394.5 L-220.4 -395.6 L-221.3 -396.7 L-222.2 -397.8 L-223.2 -398.9 L-224.1 -400 L-225.1 -401.1 L-226 -402.2 L-224.9 -403.1 L-223.8 -404 L-222.7 -405 L-221.6 -405.9 L-220.5 -406.9 L-219.4 -407.8 L-218.3 -408.8 L-217.2 -409.7 L-216.2 -410.7 L-215.1 -411.6 L-214 -412.6 L-212.9 -413.5 L-211.8 -414.4 L-210.7 -415.4 L-209.6 -416.3 L-208.5 -417.3 L-207.4 -418.2 L-206.3 -419.2 L-205.2 -420.1 L-204.1 -421.1 L-203 -422 L-201.9 -423 L-200.8 -423.9 L-199.7 -424.8 L-198.6 -425.8 L-197.7 -424.7 L-196.7 -423.6 L-195.8 -422.5 L-194.8 -421.4 L-193.9 -420.3 L-192.9 -419.2 L-192 -418.1 L-191 -417 L-190.1 -415.9 L-189.1 -414.8 L-188.2 -413.7 L-187.3 -412.6 L-186.3 -411.5 L-185.4 -410.4 L-184.4 -409.3 L-183.5 -408.2 L-182.5 -407.1 L-181.6 -406 L-180.6 -404.9 L-179.7 -403.9 L-178.7 -402.8 L-177.8 -401.7 L-176.9 -400.6 L-175.9 -399.5 L-175 -398.4 Z " />
<path stroke="rgb(0,0,0)" stroke-opacity="0.407" fill="rgb(255,255,255)" fill-opacity="1" d="M124.9 -199.9 L124.8 -197.9 L124.6 -195.9 L124.2 -194 L123.6 -192.1 L122.9 -190.3 L122.1 -188.5 L121.1 -186.8 L120 -185.1 L118.7 -183.6 L117.4 -182.1 L115.9 -180.8 L114.3 -179.6 L112.6 -178.5 L110.9 -177.6 L109.1 -176.8 L107.2 -176.2 L105.3 -175.7 L103.3 -175.3 L101.4 -175.1 L99.4 -175.1 L97.42 -175.2 L95.46 -175.5 L93.53 -176 L91.64 -176.5 L89.8 -177.3 L88.03 -178.2 L86.33 -179.2 L84.72 -180.3 L83.21 -181.6 L81.8 -183 L80.51 -184.5 L79.34 -186.1 L78.3 -187.8 L77.4 -189.6 L76.64 -191.4 L76.03 -193.3 L75.57 -195.2 L75.27 -197.1 L75.12 -199.1 L75.13 -201.1 L75.29 -203.1 L75.61 -205 L76.09 -206.9 L76.72 -208.8 L77.49 -210.6 L78.41 -212.4 L79.46 -214.1 L80.65 -215.7 L81.95 -217.2 L83.37 -218.5 L84.9 -219.8 L86.52 -220.9 L88.22 -221.9 L90 -222.8 L91.85 -223.5 L93.74 -224.1 L95.68 -224.5 L97.64 -224.8 L99.61 -224.9 L101.6 -224.9 L103.6 -224.6 L105.5 -224.3 L107.4 -223.8 L109.3 -223.1 L111.1 -222.3 L112.8 -221.3 L114.5 -220.3 L116 -219 L117.5 -217.7 L118.9 -216.3 L120.1 -214.7 L121.2 -213.1 L122.2 -211.3 L123 -209.5 L123.7 -207.7 L124.2 -205.8 L124.6 -203.8 L124.8 -201.9 L124.9 -199.9 Z " />
<path stroke="rgb(0,0,0)" stroke-opacity="1" fill="rgb(255,255,255)" fill-opacity="1" d="M26.05 -381.7 L24.24 -381.4 L22.43 -381 L20.61 -380.7 L18.8 -380.4 L16.99 -380.1 L15.18 -379.8 L13.36 -379.5 L11.55 -379.2 L9.738 -378.9 L7.925 -378.6 L6.112 -378.2 L4.299 -377.9 L2.487 -377.6 L0.6741 -377.3 L-1.139 -377 L-2.951 -376.7 L-4.764 -376.4 L-6.577 -376.1 L-8.389 -375.7 L-10.2 -375.4 L-12.01 -375.1 L-13.83 -374.8 L-15.64 -374.5 L-17.45 -374.2 L-19.27 -373.9 L-19.58 -375.7 L-19.89 -377.5 L-20.2 -379.3 L-20.51 -381.1 L-20.83 -382.9 L-21.14 -384.7 L-21.45 -386.6 L-21.76 -388.4 L-22.07 -390.2 L-22.38 -392 L-22.7 -393.8 L-23.01 -395.6 L-23.32 -397.4 L-23.63 -399.2 L-23.94 -401.1 L-24.26 -402.9 L-24.57 -404.7 L-24.88 -406.5 L-25.19 -408.3 L-25.5 -410.1 L-25.82 -411.9 L-26.13 -413.8 L-26.44 -415.6 L-26.75 -417.4 L-27.06 -419.2 L-25.25 -419.5 L-23.44 -419.8 L-21.63 -420.1 L-19.81 -420.4 L-18 -420.7 L-16.19 -421.1 L-14.38 -421.4 L-12.56 -421.7 L-10.75 -422 L-8.937 -422.3 L-7.124 -422.6 L-5.312 -422.9 L-3.499 -423.2 L-1.686 -423.6 L0.1263 -423.9 L1.939 -424.2 L3.752 -424.5 L5.564 -424.8 L7.377 -425.1 L9.19 -425.4 L11 -425.7 L12.82 -426.1 L14.63 -426.4 L16.44 -426.7 L18.25 -427 L18.57 -425.2 L18.88 -423.4 L19.19 -421.5 L19.5 -419.7 L19.81 -417.9 L20.12 -416.1 L20.44 -414.3 L20.75 -412.5 L21.06 -410.7 L21.37 -408.9 L21.68 -407 L22 -405.2 L22.31 -403.4 L22.62 -401.6 L22.93 -399.8 L23.24 -398 L23.56 -396.2 L23.87 -394.4 L24.18 -392.5 L24.49 -390.7 L24.8 -388.9 L25.12 -387.1 L25.43 -385.3 L25.74 -383.5 L26.05 -381.7 Z " />
<path stroke="rgb(0,0,0)" stroke-opacity="0.407" fill="rgb(255,255,255)" fill-opacity="1" d="M324.9 -199.9 L324.8 -197.9 L324.6 -195.9 L324.2 -194 L323.6 -192.1 L322.9 -190.3 L322.1 -188.5 L321.1 -186.8 L320 -185.1 L318.7 -183.6 L317.4 -182.1 L315.9 -180.8 L314.3 -179.6 L312.6 -178.5 L310.9 -177.6 L309.1 -176.8 L307.2 -176.2 L305.3 -175.7 L303.3 -175.3 L301.4 -175.1 L299.4 -175.1 L297.4 -175.2 L295.5 -175.5 L293.5 -176 L291.6 -176.5 L289.8 -177.3 L288 -178.2 L286.3 -179.2 L284.7 -180.3 L283.2 -181.6 L281.8 -183 L280.5 -184.5 L279.3 -186.1 L278.3 -187.8 L277.4 -189.6 L276.6 -191.4 L276 -193.3 L275.6 -195.2 L275.3 -197.1 L275.1 -199.1 L275.1 -201.1 L275.3 -203.1 L275.6 -205 L276.1 -206.9 L276.7 -208.8 L277.5 -210.6 L278.4 -212.4 L279.5 -214.1 L280.6 -215.7 L282 -217.2 L283.4 -218.5 L284.9 -219.8 L286.5 -220.9 L288.2 -221.9 L290 -222.8 L291.8 -223.5 L293.7 -224.1 L295.7 -224.5 L297.6 -224.8 L299.6 -224.9 L301.6 -224.9 L303.6 -224.6 L305.5 -224.3 L307.4 -223.8 L309.3 -223.1 L311.1 -222.3 L312.8 -221.3 L314.5 -220.3 L316 -219 L317.5 -217.7 L318.9 -216.3 L320.1 -214.7 L321.2 -213.1 L322.2 -211.3 L323 -209.5 L323.7 -207.7 L324.2 -205.8 L324.6 -203.8 L324.8 -201.9 L324.9 -199.9 Z " />
<path stroke="rgb(0,0,0)" stroke-opacity="1" fill="rgb(255,255,255)" fill-opacity="1" d="M-483.8 -310.3 L-484.1 -309.2 L-484.3 -308.1 L-484.6 -307.1 L-484.8 -306 L-485.1 -304.9 L-485.4 -303.9 L-485.6 -302.8 L-485.9 -301.7 L-486.1 -300.6 L-486.4 -299.6 L-486.7 -298.5 L-486.9 -297.4 L-487.2 -296.4 L-487.4 -295.3 L-487.7 -294.2 L-488 -293.2 L-488.2 -292.1 L-488.5 -291 L-488.7 -290 L-489 -288.9 L-489.2 -287.8 L-489.5 -286.7 L-489.8 -285.7 L-490 -284.6 L-490.3 -283.5 L-491.4 -283.8 L-492.4 -284.1 L-493.5 -284.3 L-494.6 -284.6 L-495.6 -284.8 L-496.7 -285.1 L-497.8 -285.4 L-498.8 -285.6 L-499.9 -285.9 L-501 -286.1 L-502 -286.4 L-503.1 -286.7 L-504.2 -286.9 L-505.3 -287.2 L-506.3 -287.4 L-507.4 -287.7 L-508.5 -287.9 L-509.5 -288.2 L-510.6 -288.5 L-511.7 -288.7 L-512.7 -289 L-513.8 -289.2 L-514.9 -289.5 L-515.9 -289.8 L-517 -290 L-516.8 -291.1 L-516.5 -292.2 L-516.2 -293.2 L-516 -294.3 L-515.7 -295.4 L-515.5 -296.4 L-515.2 -297.5 L-514.9 -298.6 L-514.7 -299.6 L-514.4 -300.7 L-514.2 -301.8 L-513.9 -302.8 L-513.6 -303.9 L-513.4 -305 L-513.1 -306.1 L-512.9 -307.1 L-512.6 -308.2 L-512.3 -309.3 L-512.1 -310.3 L-511.8 -311.4 L-511.6 -312.5 L-511.3 -313.5 L-511 -314.6 L-510.8 -315.7 L-510.5 -316.7 L-509.5 -316.5 L-508.4 -316.2 L-507.3 -316 L-506.3 -315.7 L-505.2 -315.5 L-504.1 -315.2 L-503 -314.9 L-502 -314.7 L-500.9 -314.4 L-499.8 -314.2 L-498.8 -313.9 L-497.7 -313.6 L-496.6 -313.4 L-495.6 -313.1 L-494.5 -312.9 L-493.4 -312.6 L-492.4 -312.3 L-491.3 -312.1 L-490.2 -311.8 L-489.1 -311.6 L-488.1 -311.3 L-487 -311 L-485.9 -310.8 L-484.9 -310.5 L-483.8 -310.3 Z " />
<path stroke="rgb(0,0,0)" stroke-opacity="0.407" fill="rgb(255,255,255)" fill-opacity="1" d="M-175.1 -99.89 L-175.2 -97.91 L-175.4 -95.95 L-175.8 -94.01 L-176.4 -92.11 L-177.1 -90.26 L-177.9 -88.47 L-178.9 -86.75 L-180 -85.12 L-181.3 -83.58 L-182.6 -82.14 L-184.1 -80.82 L-185.7 -79.62 L-187.4 -78.55 L-189.1 -77.61 L-190.9 -76.82 L-192.8 -76.17 L-194.7 -75.67 L-196.7 -75.33 L-198.6 -75.14 L-200.6 -75.11 L-202.6 -75.24 L-204.5 -75.52 L-206.5 -75.96 L-208.4 -76.55 L-210.2 -77.28 L-212 -78.17 L-213.7 -79.19 L-215.3 -80.34 L-216.8 -81.61 L-218.2 -83.01 L-219.5 -84.51 L-220.7 -86.1 L-221.7 -87.79 L-222.6 -89.55 L-223.4 -91.38 L-224 -93.26 L-224.4 -95.19 L-224.7 -97.15 L-224.9 -99.12 L-224.9 -101.1 L-224.7 -103.1 L-224.4 -105 L-223.9 -106.9 L-223.3 -108.8 L-222.5 -110.6 L-221.6 -112.4 L-220.5 -114.1 L-219.4 -115.7 L-218 -117.2 L-216.6 -118.5 L-215.1 -119.8 L-213.5 -120.9 L-211.8 -121.9 L-210 -122.8 L-208.2 -123.5 L-206.3 -124.1 L-204.3 -124.5 L-202.4 -124.8 L-200.4 -124.9 L-198.4 -124.9 L-196.4 -124.6 L-194.5 -124.3 L-192.6 -123.8 L-190.7 -123.1 L-188.9 -122.3 L-187.2 -121.3 L-185.5 -120.3 L-184 -119 L-182.5 -117.7 L-181.1 -116.3 L-179.9 -114.7 L-178.8 -113.1 L-177.8 -111.3 L-177 -109.5 L-176.3 -107.7 L-175.8 -105.8 L-175.4 -103.8 L-175.2 -101.9 L-175.1 -99.89 Z " />
<path stroke="rgb(0,0,0)" stroke-opacity="1" fill="rgb(255,255,255)" fill-opacity="1" d="M-275 -298.4 L-276.1 -297.4 L-277.2 -296.5 L-278.3 -295.5 L-279.4 -294.6 L-280.5 -293.6 L-281.5 -292.7 L-282.6 -291.8 L-283.7 -290.8 L-284.8 -289.9 L-285.9 -288.9 L-287 -288 L-288.1 -287 L-289.2 -286.1 L-290.3 -285.1 L-291.4 -284.2 L-292.5 -283.2 L-293.6 -282.3 L-294.7 -281.4 L-295.8 -280.4 L-296.9 -279.5 L-298 -278.5 L-299.1 -277.6 L-300.2 -276.6 L-301.3 -275.7 L-302.4 -274.7 L-303.3 -275.8 L-304.3 -276.9 L-305.2 -278 L-306.2 -279.1 L-307.1 -280.2 L-308.1 -281.3 L-309 -282.4 L-310 -283.5 L-310.9 -284.6 L-311.8 -285.7 L-312.8 -286.8 L-313.7 -287.9 L-314.7 -289 L-315.6 -290.1 L-316.6 -291.2 L-317.5 -292.3 L-318.5 -293.4 L-319.4 -294.5 L-320.4 -295.6 L-321.3 -296.7 L-322.2 -297.8 L-323.2 -298.9 L-324.1 -300 L-325.1 -301.1 L-326 -302.2 L-324.9 -303.1 L-323.8 -304 L-322.7 -305 L-321.6 -305.9 L-320.5 -306.9 L-319.4 -307.8 L-318.3 -308.8 L-317.2 -309.7 L-316.2 -310.7 L-315.1 -311.6 L-314 -312.6 L-312.9 -313.5 L-311.8 -314.4 L-310.7 -315.4 L-309.6 -316.3 L-308.5 -317.3 L-307.4 -318.2 L-306.3 -319.2 L-305.2 -320.1 L-304.1 -321.1 L-303 -322 L-301.9 -323 L-300.8 -323.9 L-299.7 -324.8 L-298.6 -325.8 L-297.7 -324.7 L-296.7 -323.6 L-295.8 -322.5 L-294.8 -321.4 L-293.9 -320.3 L-292.9 -319.2 L-292 -318.1 L-291 -317 L-290.1 -315.9 L-289.1 -314.8 L-288.2 -313.7 L-287.3 -312.6 L-286.3 -311.5 L-285.4 -310.4 L-284.4 -309.3 L-283.5 -308.2 L-282.5 -307.1 L-281.6 -306 L-280.6 -304.9 L-279.7 -303.9 L-278.7 -302.8 L-277.8 -301.7 L-276.9 -300.6 L-275.9 -299.5 L-275 -298.4 Z " />
<path stroke="rgb(0,0,0)" stroke-opacity="0.407" fill="rgb(255,255,255)" fill-opacity="1" d="M24.9 -99.89 L24.81 -97.91 L24.57 -95.95 L24.17 -94.01 L23.62 -92.11 L22.92 -90.26 L22.07 -88.47 L21.08 -86.75 L19.96 -85.12 L18.72 -83.58 L17.35 -82.14 L15.88 -80.82 L14.31 -79.62 L12.64 -78.55 L10.9 -77.61 L9.085 -76.82 L7.214 -76.17 L5.298 -75.67 L3.348 -75.33 L1.377 -75.14 L-0.6025 -75.11 L-2.578 -75.24 L-4.538 -75.52 L-6.469 -75.96 L-8.359 -76.55 L-10.2 -77.28 L-11.97 -78.17 L-13.67 -79.19 L-15.28 -80.34 L-16.79 -81.61 L-18.2 -83.01 L-19.49 -84.51 L-20.66 -86.1 L-21.7 -87.79 L-22.6 -89.55 L-23.36 -91.38 L-23.97 -93.26 L-24.43 -95.19 L-24.73 -97.15 L-24.88 -99.12 L-24.87 -101.1 L-24.71 -103.1 L-24.39 -105 L-23.91 -106.9 L-23.28 -108.8 L-22.51 -110.6 L-21.59 -112.4 L-20.54 -114.1 L-19.35 -115.7 L-18.05 -117.2 L-16.63 -118.5 L-15.1 -119.8 L-13.48 -120.9 L-11.78 -121.9 L-9.997 -122.8 L-8.153 -123.5 L-6.258 -124.1 L-4.324 -124.5 L-2.362 -124.8 L-0.3851 -124.9 L1.594 -124.9 L3.563 -124.6 L5.51 -124.3 L7.422 -123.8 L9.287 -123.1 L11.09 -122.3 L12.83 -121.3 L14.48 -120.3 L16.05 -119 L17.51 -117.7 L18.86 -116.3 L20.09 -114.7 L21.2 -113.1 L22.17 -111.3 L23 -109.5 L23.69 -107.7 L24.22 -105.8 L24.6 -103.8 L24.83 -101.9 L24.9 -99.89 Z " />
<path stroke="rgb(0,0,0)" stroke-opacity="1" fill="rgb(255,255,255)" fill-opacity="1" d="M-73.95 -281.7 L-75.76 -281.4 L-77.57 -281 L-79.39 -280.7 L-81.2 -280.4 L-83.01 -280.1 L-84.82 -279.8 L-86.64 -279.5 L-88.45 -279.2 L-90.26 -278.9 L-92.08 -278.6 L-93.89 -278.2 L-95.7 -277.9 L-97.51 -277.6 L-99.33 -277.3 L-101.1 -277 L-103 -276.7 L-104.8 -276.4 L-106.6 -276.1 L-108.4 -275.7 L-110.2 -275.4 L-112 -275.1 L-113.8 -274.8 L-115.6 -274.5 L-117.5 -274.2 L-119.3 -273.9 L-119.6 -275.7 L-119.9 -277.5 L-120.2 -279.3 L-120.5 -281.1 L-120.8 -282.9 L-121.1 -284.7 L-121.4 -286.6 L-121.8 -288.4 L-122.1 -290.2 L-122.4 -292 L-122.7 -293.8 L-123 -295.6 L-123.3 -297.4 L-123.6 -299.2 L-123.9 -301.1 L-124.3 -302.9 L-124.6 -304.7 L-124.9 -306.5 L-125.2 -308.3 L-125.5 -310.1 L-125.8 -311.9 L-126.1 -313.8 L-126.4 -315.6 L-126.8 -317.4 L-127.1 -319.2 L-125.3 -319.5 L-123.4 -319.8 L-121.6 -320.1 L-119.8 -320.4 L-118 -320.7 L-116.2 -321.1 L-114.4 -321.4 L-112.6 -321.7 L-110.7 -322 L-108.9 -322.3 L-107.1 -322.6 L-105.3 -322.9 L-103.5 -323.2 L-101.7 -323.6 L-99.87 -323.9 L-98.06 -324.2 L-96.25 -324.5 L-94.44 -324.8 L-92.62 -325.1 L-90.81 -325.4 L-89 -325.7 L-87.18 -326.1 L-85.37 -326.4 L-83.56 -326.7 L-81.75 -327 L-81.43 -325.2 L-81.12 -323.4 L-80.81 -321.5 L-80.5 -319.7 L-80.19 -317.9 L-79.88 -316.1 L-79.56 -314.3 L-79.25 -312.5 L-78.94 -310.7 L-78.63 -308.9 L-78.32 -307 L-78 -305.2 L-77.69 -303.4 L-77.38 -301.6 L-77.07 -299.8 L-76.76 -298 L-76.44 -296.2 L-76.13 -294.4 L-75.82 -292.5 L-75.51 -290.7 L-75.2 -288.9 L-74.88 -287.1 L-74.57 -285.3 L-74.26 -283.5 L-73.95 -281.7 Z " />
<path stroke="rgb(0,0,0)" stroke-opacity="0.407" fill="rgb(255,255,255)" fill-opacity="1" d="M224.9 -99.89 L224.8 -97.91 L224.6 -95.95 L224.2 -94.01 L223.6 -92.11 L222.9 -90.26 L222.1 -88.47 L221.1 -86.75 L220 -85.12 L218.7 -83.58 L217.4 -82.14 L215.9 -80.82 L214.3 -79.62 L212.6 -78.55 L210.9 -77.61 L209.1 -76.82 L207.2 -76.17 L205.3 -75.67 L203.3 -75.33 L201.4 -75.14 L199.4 -75.11 L197.4 -75.24 L195.5 -75.52 L193.5 -75.96 L191.6 -76.55 L189.8 -77.28 L188 -78.17 L186.3 -79.19 L184.7 -80.34 L183.2 -81.61 L181.8 -83.01 L180.5 -84.51 L179.3 -86.1 L178.3 -87.79 L177.4 -89.55 L176.6 -91.38 L176 -93.26 L175.6 -95.19 L175.3 -97.15 L175.1 -99.12 L175.1 -101.1 L175.3 -103.1 L175.6 -105 L176.1 -106.9 L176.7 -108.8 L177.5 -110.6 L178.4 -112.4 L179.5 -114.1 L180.6 -115.7 L182 -117.2 L183.4 -118.5 L184.9 -119.8 L186.5 -120.9 L188.2 -121.9 L190 -122.8 L191.8 -123.5 L193.7 -124.1 L195.7 -124.5 L197.6 -124.8 L199.6 -124.9 L201.6 -124.9 L203.6 -124.6 L205.5 -124.3 L207.4 -123.8 L209.3 -123.1 L211.1 -122.3 L212.8 -121.3 L214.5 -120.3 L216 -119 L217.5 -117.7 L218.9 -116.3 L220.1 -114.7 L221.2 -113.1 L222.2 -111.3 L223 -109.5 L223.7 -107.7 L224.2 -105.8 L224.6 -103.8 L224.8 -101.9 L224.9 -99.89 Z " />
<path stroke="rgb(0,0,0)" stroke-opacity="1" fill="rgb(255,255,255)" fill-opacity="1" d="M124.4 -275.9 L122.4 -275.9 L120.4 -275.9 L118.5 -275.9 L116.5 -275.9 L114.5 -275.9 L112.5 -275.9 L110.6 -275.8 L108.6 -275.8 L106.6 -275.8 L104.6 -275.8 L102.6 -275.8 L100.7 -275.8 L98.69 -275.8 L96.71 -275.8 L94.74 -275.7 L92.76 -275.7 L90.78 -275.7 L88.81 -275.7 L86.83 -275.7 L84.85 -275.7 L82.87 -275.7 L80.9 -275.6 L78.92 -275.6 L76.94 -275.6 L74.97 -275.6 L74.95 -277.6 L74.94 -279.6 L74.92 -281.5 L74.91 -283.5 L74.9 -285.5 L74.88 -287.5 L74.87 -289.4 L74.86 -291.4 L74.84 -293.4 L74.83 -295.4 L74.82 -297.4 L74.8 -299.3 L74.79 -301.3 L74.77 -303.3 L74.76 -305.3 L74.75 -307.2 L74.73 -309.2 L74.72 -311.2 L74.71 -313.2 L74.69 -315.1 L74.68 -317.1 L74.67 -319.1 L74.65 -321.1 L74.64 -323.1 L74.62 -325 L76.6 -325 L78.58 -325.1 L80.56 -325.1 L82.53 -325.1 L84.51 -325.1 L86.49 -325.1 L88.47 -325.1 L90.44 -325.1 L92.42 -325.2 L94.4 -325.2 L96.37 -325.2 L98.35 -325.2 L100.3 -325.2 L102.3 -325.2 L104.3 -325.2 L106.3 -325.2 L108.2 -325.3 L110.2 -325.3 L112.2 -325.3 L114.2 -325.3 L116.1 -325.3 L118.1 -325.3 L120.1 -325.3 L122.1 -325.4 L124.1 -325.4 L124.1 -323.4 L124.1 -321.4 L124.1 -319.4 L124.1 -317.5 L124.1 -315.5 L124.1 -313.5 L124.2 -311.5 L124.2 -309.6 L124.2 -307.6 L124.2 -305.6 L124.2 -303.6 L124.2 -301.6 L124.2 -299.7 L124.2 -297.7 L124.3 -295.7 L124.3 -293.7 L124.3 -291.8 L124.3 -289.8 L124.3 -287.8 L124.3 -285.8 L124.3 -283.8 L124.4 -281.9 L124.4 -279.9 L124.4 -277.9 L124.4 -275.9 Z " />
<path stroke="rgb(0,0,0)" stroke-opacity="0.407" fill="rgb(255,255,255)" fill-opacity="1" d="M-275.1 0.1074 L-275.2 2.085 L-275.4 4.05 L-275.8 5.989 L-276.4 7.89 L-277.1 9.742 L-277.9 11.53 L-278.9 13.25 L-280 14.88 L-281.3 16.42 L-282.6 17.86 L-284.1 19.18 L-285.7 20.38 L-287.4 21.45 L-289.1 22.39 L-290.9 23.18 L-292.8 23.83 L-294.7 24.33 L-296.7 24.67 L-298.6 24.86 L-300.6 24.89 L-302.6 24.76 L-304.5 24.48 L-306.5 24.04 L-308.4 23.45 L-310.2 22.72 L-312 21.83 L-313.7 20.81 L-315.3 19.66 L-316.8 18.39 L-318.2 16.99 L-319.5 15.49 L-320.7 13.9 L-321.7 12.21 L-322.6 10.45 L-323.4 8.62 L-324 6.736 L-324.4 4.81 L-324.7 2.854 L-324.9 0.8799 L-324.9 -1.1 L-324.7 -3.073 L-324.4 -5.026 L-323.9 -6.948 L-323.3 -8.826 L-322.5 -10.65 L-321.6 -12.4 L-320.5 -14.08 L-319.4 -15.67 L-318 -17.15 L-316.6 -18.53 L-315.1 -19.8 L-313.5 -20.93 L-311.8 -21.94 L-310 -22.81 L-308.2 -23.53 L-306.3 -24.1 L-304.3 -24.52 L-302.4 -24.79 L-300.4 -24.9 L-298.4 -24.85 L-296.4 -24.65 L-294.5 -24.28 L-292.6 -23.77 L-290.7 -23.11 L-288.9 -22.29 L-287.2 -21.34 L-285.5 -20.26 L-284 -19.04 L-282.5 -17.71 L-281.1 -16.26 L-279.9 -14.71 L-278.8 -13.07 L-277.8 -11.34 L-277 -9.544 L-276.3 -7.687 L-275.8 -5.781 L-275.4 -3.838 L-275.2 -1.871 L-275.1 0.1074 Z " />
<path stroke="rgb(0,0,0)" stroke-opacity="1" fill="rgb(255,255,255)" fill-opacity="1" d="M-375 -198.4 L-376.1 -197.4 L-377.2 -196.5 L-378.3 -195.5 L-379.4 -194.6 L-380.5 -193.6 L-381.5 -192.7 L-382.6 -191.8 L-383.7 -190.8 L-384.8 -189.9 L-385.9 -188.9 L-387 -188 L-388.1 -187 L-389.2 -186.1 L-390.3 -185.1 L-391.4 -184.2 L-392.5 -183.2 L-393.6 -182.3 L-394.7 -181.4 L-395.8 -180.4 L-396.9 -179.5 L-398 -178.5 L-399.1 -177.6 L-400.2 -176.6 L-401.3 -175.7 L-402.4 -174.7 L-403.3 -175.8 L-404.3 -176.9 L-405.2 -178 L-406.2 -179.1 L-407.1 -180.2 L-408.1 -181.3 L-409 -182.4 L-410 -183.5 L-410.9 -184.6 L-411.8 -185.7 L-412.8 -186.8 L-413.7 -187.9 L-414.7 -189 L-415.6 -190.1 L-416.6 -191.2 L-417.5 -192.3 L-418.5 -193.4 L-419.4 -194.5 L-420.4 -195.6 L-421.3 -196.7 L-422.2 -197.8 L-423.2 -198.9 L-424.1 -200 L-425.1 -201.1 L-426 -202.2 L-424.9 -203.1 L-423.8 -204 L-422.7 -205 L-421.6 -205.9 L-420.5 -206.9 L-419.4 -207.8 L-418.3 -208.8 L-417.2 -209.7 L-416.2 -210.7 L-415.1 -211.6 L-414 -212.6 L-412.9 -213.5 L-411.8 -214.4 L-410.7 -215.4 L-409.6 -216.3 L-408.5 -217.3 L-407.4 -218.2 L-406.3 -219.2 L-405.2 -220.1 L-404.1 -221.1 L-403 -222 L-401.9 -223 L-400.8 -223.9 L-399.7 -224.8 L-398.6 -225.8 L-397.7 -224.7 L-396.7 -223.6 L-395.8 -222.5 L-394.8 -221.4 L-393.9 -220.3 L-392.9 -219.2 L-392 -218.1 L-391 -217 L-390.1 -215.9 L-389.1 -214.8 L-388.2 -213.7 L-387.3 -212.6 L-386.3 -211.5 L-385.4 -210.4 L-384.4 -209.3 L-383.5 -208.2 L-382.5 -207.1 L-381.6 -206 L-380.6 -204.9 L-379.7 -203.9 L-378.7 -202.8 L-377.8 -201.7 L-376.9 -200.6 L-375.9 -199.5 L-375 -198.4 Z " />
<path stroke="rgb(0,0,0)" stroke-opacity="0.407" fill="rgb(255,255,255)" fill-opacity="1" d="M-75.1 0.1074 L-75.19 2.085 L-75.43 4.05 L-75.83 5.989 L-76.38 7.89 L-77.08 9.742 L-77.93 11.53 L-78.92 13.25 L-80.04 14.88 L-81.28 16.42 L-82.65 17.86 L-84.12 19.18 L-85.69 20.38 L-87.36 21.45 L-89.1 22.39 L-90.92 23.18 L-92.79 23.83 L-94.7 24.33 L-96.65 24.67 L-98.62 24.86 L-100.6 24.89 L-102.6 24.76 L-104.5 24.48 L-106.5 24.04 L-108.4 23.45 L-110.2 22.72 L-112 21.83 L-113.7 20.81 L-115.3 19.66 L-116.8 18.39 L-118.2 16.99 L-119.5 15.49 L-120.7 13.9 L-121.7 12.21 L-122.6 10.45 L-123.4 8.62 L-124 6.736 L-124.4 4.81 L-124.7 2.854 L-124.9 0.8799 L-124.9 -1.1 L-124.7 -3.073 L-124.4 -5.026 L-123.9 -6.948 L-123.3 -8.826 L-122.5 -10.65 L-121.6 -12.4 L-120.5 -14.08 L-119.4 -15.67 L-118 -17.15 L-116.6 -18.53 L-115.1 -19.8 L-113.5 -20.93 L-111.8 -21.94 L-110 -22.81 L-108.2 -23.53 L-106.3 -24.1 L-104.3 -24.52 L-102.4 -24.79 L-100.4 -24.9 L-98.41 -24.85 L-96.44 -24.65 L-94.49 -24.28 L-92.58 -23.77 L-90.71 -23.11 L-88.91 -22.29 L-87.17 -21.34 L-85.52 -20.26 L-83.95 -19.04 L-82.49 -17.71 L-81.14 -16.26 L-79.91 -14.71 L-78.8 -13.07 L-77.83 -11.34 L-77 -9.544 L-76.31 -7.687 L-75.78 -5.781 L-75.4 -3.838 L-75.17 -1.871 L-75.1 0.1074 Z " />
<path stroke="rgb(0,0,0)" stroke-opacity="1" fill="rgb(255,255,255)" fill-opacity="1" d="M-173.9 -181.7 L-175.8 -181.4 L-177.6 -181 L-179.4 -180.7 L-181.2 -180.4 L-183 -180.1 L-184.8 -179.8 L-186.6 -179.5 L-188.4 -179.2 L-190.3 -178.9 L-192.1 -178.6 L-193.9 -178.2 L-195.7 -177.9 L-197.5 -177.6 L-199.3 -177.3 L-201.1 -177 L-203 -176.7 L-204.8 -176.4 L-206.6 -176.1 L-208.4 -175.7 L-210.2 -175.4 L-212 -175.1 L-213.8 -174.8 L-215.6 -174.5 L-217.5 -174.2 L-219.3 -173.9 L-219.6 -175.7 L-219.9 -177.5 L-220.2 -179.3 L-220.5 -181.1 L-220.8 -182.9 L-221.1 -184.7 L-221.4 -186.6 L-221.8 -188.4 L-222.1 -190.2 L-222.4 -192 L-222.7 -193.8 L-223 -195.6 L-223.3 -197.4 L-223.6 -199.2 L-223.9 -201.1 L-224.3 -202.9 L-224.6 -204.7 L-224.9 -206.5 L-225.2 -208.3 L-225.5 -210.1 L-225.8 -211.9 L-226.1 -213.8 L-226.4 -215.6 L-226.8 -217.4 L-227.1 -219.2 L-225.3 -219.5 L-223.4 -219.8 L-221.6 -220.1 L-219.8 -220.4 L-218 -220.7 L-216.2 -221.1 L-214.4 -221.4 L-212.6 -221.7 L-210.7 -222 L-208.9 -222.3 L-207.1 -222.6 L-205.3 -222.9 L-203.5 -223.2 L-201.7 -223.6 L-199.9 -223.9 L-198.1 -224.2 L-196.2 -224.5 L-194.4 -224.8 L-192.6 -225.1 L-190.8 -225.4 L-189 -225.7 L-187.2 -226.1 L-185.4 -226.4 L-183.6 -226.7 L-181.7 -227 L-181.4 -225.2 L-181.1 -223.4 L-180.8 -221.5 L-180.5 -219.7 L-180.2 -217.9 L-179.9 -216.1 L-179.6 -214.3 L-179.3 -212.5 L-178.9 -210.7 L-178.6 -208.9 L-178.3 -207 L-178 -205.2 L-177.7 -203.4 L-177.4 -201.6 L-177.1 -199.8 L-176.8 -198 L-176.4 -196.2 L-176.1 -194.4 L-175.8 -192.5 L-175.5 -190.7 L-175.2 -188.9 L-174.9 -187.1 L-174.6 -185.3 L-174.3 -183.5 L-173.9 -181.7 Z " />
<path stroke="rgb(0,0,0)" stroke-opacity="0.407" fill="rgb(255,255,255)" fill-opacity="1" d="M124.9 0.1074 L124.8 2.085 L124.6 4.05 L124.2 5.989 L123.6 7.89 L122.9 9.742 L122.1 11.53 L121.1 13.25 L120 14.88 L118.7 16.42 L117.4 17.86 L115.9 19.18 L114.3 20.38 L112.6 21.45 L110.9 22.39 L109.1 23.18 L107.2 23.83 L105.3 24.33 L103.3 24.67 L101.4 24.86 L99.4 24.89 L97.42 24.76 L95.46 24.48 L93.53 24.04 L91.64 23.45 L89.8 22.72 L88.03 21.83 L86.33 20.81 L84.72 19.66 L83.21 18.39 L81.8 16.99 L80.51 15.49 L79.34 13.9 L78.3 12.21 L77.4 10.45 L76.64 8.62 L76.03 6.736 L75.57 4.81 L75.27 2.854 L75.12 0.8799 L75.13 -1.1 L75.29 -3.073 L75.61 -5.026 L76.09 -6.948 L76.72 -8.826 L77.49 -10.65 L78.41 -12.4 L79.46 -14.08 L80.65 -15.67 L81.95 -17.15 L83.37 -18.53 L84.9 -19.8 L86.52 -20.93 L88.22 -21.94 L90 -22.81 L91.85 -23.53 L93.74 -24.1 L95.68 -24.52 L97.64 -24.79 L99.61 -24.9 L101.6 -24.85 L103.6 -24.65 L105.5 -24.28 L107.4 -23.77 L109.3 -23.11 L111.1 -22.29 L112.8 -21.34 L114.5 -20.26 L116 -19.04 L117.5 -17.71 L118.9 -16.26 L120.1 -14.71 L121.2 -13.07 L122.2 -11.34 L123 -9.544 L123.7 -7.687 L124.2 -5.781 L124.6 -3.838 L124.8 -1.871 L124.9 0.1074 Z " />
<path stroke="rgb(0,0,0)" stroke-opacity="1" fill="rgb(255,255,255)" fill-opacity="1" d="M24.4 -175.9 L22.42 -175.9 L20.44 -175.9 L18.46 -175.9 L16.49 -175.9 L14.51 -175.9 L12.53 -175.9 L10.56 -175.8 L8.578 -175.8 L6.601 -175.8 L4.624 -175.8 L2.646 -175.8 L0.6692 -175.8 L-1.308 -175.8 L-3.285 -175.8 L-5.263 -175.7 L-7.24 -175.7 L-9.217 -175.7 L-11.19 -175.7 L-13.17 -175.7 L-15.15 -175.7 L-17.13 -175.7 L-19.1 -175.6 L-21.08 -175.6 L-23.06 -175.6 L-25.03 -175.6 L-25.05 -177.6 L-25.06 -179.6 L-25.08 -181.5 L-25.09 -183.5 L-25.1 -185.5 L-25.12 -187.5 L-25.13 -189.4 L-25.14 -191.4 L-25.16 -193.4 L-25.17 -195.4 L-25.18 -197.4 L-25.2 -199.3 L-25.21 -201.3 L-25.23 -203.3 L-25.24 -205.3 L-25.25 -207.2 L-25.27 -209.2 L-25.28 -211.2 L-25.29 -213.2 L-25.31 -215.1 L-25.32 -217.1 L-25.33 -219.1 L-25.35 -221.1 L-25.36 -223.1 L-25.38 -225 L-23.4 -225 L-21.42 -225.1 L-19.44 -225.1 L-17.47 -225.1 L-15.49 -225.1 L-13.51 -225.1 L-11.53 -225.1 L-9.557 -225.1 L-7.58 -225.2 L-5.603 -225.2 L-3.626 -225.2 L-1.648 -225.2 L0.3289 -225.2 L2.306 -225.2 L4.283 -225.2 L6.261 -225.2 L8.238 -225.3 L10.22 -225.3 L12.19 -225.3 L14.17 -225.3 L16.15 -225.3 L18.12 -225.3 L20.1 -225.3 L22.08 -225.4 L24.06 -225.4 L24.07 -223.4 L24.08 -221.4 L24.1 -219.4 L24.11 -217.5 L24.12 -215.5 L24.14 -213.5 L24.15 -211.5 L24.16 -209.6 L24.18 -207.6 L24.19 -205.6 L24.21 -203.6 L24.22 -201.6 L24.23 -199.7 L24.25 -197.7 L24.26 -195.7 L24.27 -193.7 L24.29 -191.8 L24.3 -189.8 L24.31 -187.8 L24.33 -185.8 L24.34 -183.8 L24.36 -181.9 L24.37 -179.9 L24.38 -177.9 L24.4 -175.9 Z " />
<path stroke="rgb(0,0,0)" stroke-opacity="0.407" fill="rgb(255,255,255)" fill-opacity="1" d="M324.9 0.1074 L324.8 2.085 L324.6 4.05 L324.2 5.989 L323.6 7.89 L322.9 9.742 L322.1 11.53 L321.1 13.25 L320 14.88 L318.7 16.42 L317.4 17.86 L315.9 19.18 L314.3 20.38 L312.6 21.45 L310.9 22.39 L309.1 23.18 L307.2 23.83 L305.3 24.33 L303.3 24.67 L301.4 24.86 L299.4 24.89 L297.4 24.76 L295.5 24.48 L293.5 24.04 L291.6 23.45 L289.8 22.72 L288 21.83 L286.3 20.81 L284.7 19.66 L283.2 18.39 L281.8 16.99 L280.5 15.49 L279.3 13.9 L278.3 12.21 L277.4 10.45 L276.6 8.62 L276 6.736 L275.6 4.81 L275.3 2.854 L275.1 0.8799 L275.1 -1.1 L275.3 -3.073 L275.6 -5.026 L276.1 -6.948 L276.7 -8.826 L277.5 -10.65 L278.4 -12.4 L279.5 -14.08 L280.6 -15.67 L282 -17.15 L283.4 -18.53 L284.9 -19.8 L286.5 -20.93 L288.2 -21.94 L290 -22.81 L291.8 -23.53 L293.7 -24.1 L295.7 -24.52 L297.6 -24.79 L299.6 -24.9 L301.6 -24.85 L303.6 -24.65 L305.5 -24.28 L307.4 -23.77 L309.3 -23.11 L311.1 -22.29 L312.8 -21.34 L314.5 -20.26 L316 -19.04 L317.5 -17.71 L318.9 -16.26 L320.1 -14.71 L321.2 -13.07 L322.2 -11.34 L323 -9.544 L323.7 -7.687 L324.2 -5.781 L324.6 -3.838 L324.8 -1.871 L324.9 0.1074 Z " />
<path stroke="rgb(0,0,0)" stroke-opacity="1" fill="rgb(255,255,255)" fill-opacity="1" d="M-475 -98.37 L-476.1 -97.42 L-477.2 -96.48 L-478.3 -95.53 L-479.4 -94.59 L-480.5 -93.64 L-481.5 -92.7 L-482.6 -91.75 L-483.7 -90.81 L-484.8 -89.86 L-485.9 -88.91 L-487 -87.97 L-488.1 -87.02 L-489.2 -86.08 L-490.3 -85.13 L-491.4 -84.19 L-492.5 -83.24 L-493.6 -82.3 L-494.7 -81.35 L-495.8 -80.41 L-496.9 -79.46 L-498 -78.52 L-499.1 -77.57 L-500.2 -76.63 L-501.3 -75.68 L-502.4 -74.73 L-503.3 -75.83 L-504.3 -76.93 L-505.2 -78.03 L-506.2 -79.12 L-507.1 -80.22 L-508.1 -81.32 L-509 -82.41 L-510 -83.51 L-510.9 -84.61 L-511.8 -85.7 L-512.8 -86.8 L-513.7 -87.9 L-514.7 -88.99 L-515.6 -90.09 L-516.6 -91.19 L-517.5 -92.28 L-518.5 -93.38 L-519.4 -94.48 L-520.4 -95.57 L-521.3 -96.67 L-522.2 -97.77 L-523.2 -98.87 L-524.1 -99.96 L-525.1 -101.1 L-526 -102.2 L-524.9 -103.1 L-523.8 -104 L-522.7 -105 L-521.6 -105.9 L-520.5 -106.9 L-519.4 -107.8 L-518.3 -108.8 L-517.2 -109.7 L-516.2 -110.7 L-515.1 -111.6 L-514 -112.6 L-512.9 -113.5 L-511.8 -114.4 L-510.7 -115.4 L-509.6 -116.3 L-508.5 -117.3 L-507.4 -118.2 L-506.3 -119.2 L-505.2 -120.1 L-504.1 -121.1 L-503 -122 L-501.9 -123 L-500.8 -123.9 L-499.7 -124.8 L-498.6 -125.8 L-497.7 -124.7 L-496.7 -123.6 L-495.8 -122.5 L-494.8 -121.4 L-493.9 -120.3 L-492.9 -119.2 L-492 -118.1 L-491 -117 L-490.1 -115.9 L-489.1 -114.8 L-488.2 -113.7 L-487.3 -112.6 L-486.3 -111.5 L-485.4 -110.4 L-484.4 -109.3 L-483.5 -108.2 L-482.5 -107.1 L-481.6 -106 L-480.6 -104.9 L-479.7 -103.9 L-478.7 -102.8 L-477.8 -101.7 L-476.9 -100.6 L-475.9 -99.46 L-475 -98.37 Z " />
<path stroke="rgb(0,0,0)" stroke-opacity="0.407" fill="rgb(255,255,255)" fill-opacity="1" d="M-175.1 100.1 L-175.2 102.1 L-175.4 104.1 L-175.8 106 L-176.4 107.9 L-177.1 109.7 L-177.9 111.5 L-178.9 113.2 L-180 114.9 L-181.3 116.4 L-182.6 117.9 L-184.1 119.2 L-185.7 120.4 L-187.4 121.5 L-189.1 122.4 L-190.9 123.2 L-192.8 123.8 L-194.7 124.3 L-196.7 124.7 L-198.6 124.9 L-200.6 124.9 L-202.6 124.8 L-204.5 124.5 L-206.5 124 L-208.4 123.5 L-210.2 122.7 L-212 121.8 L-213.7 120.8 L-215.3 119.7 L-216.8 118.4 L-218.2 117 L-219.5 115.5 L-220.7 113.9 L-221.7 112.2 L-222.6 110.4 L-223.4 108.6 L-224 106.7 L-224.4 104.8 L-224.7 102.9 L-224.9 100.9 L-224.9 98.9 L-224.7 96.93 L-224.4 94.97 L-223.9 93.05 L-223.3 91.17 L-222.5 89.35 L-221.6 87.6 L-220.5 85.92 L-219.4 84.33 L-218 82.85 L-216.6 81.47 L-215.1 80.2 L-213.5 79.07 L-211.8 78.06 L-210 77.19 L-208.2 76.47 L-206.3 75.9 L-204.3 75.48 L-202.4 75.21 L-200.4 75.1 L-198.4 75.15 L-196.4 75.35 L-194.5 75.72 L-192.6 76.23 L-190.7 76.89 L-188.9 77.71 L-187.2 78.66 L-185.5 79.74 L-184 80.96 L-182.5 82.29 L-181.1 83.74 L-179.9 85.29 L-178.8 86.93 L-177.8 88.66 L-177 90.46 L-176.3 92.31 L-175.8 94.22 L-175.4 96.16 L-175.2 98.13 L-175.1 100.1 Z " />
<path stroke="rgb(0,0,0)" stroke-opacity="1" fill="rgb(255,255,255)" fill-opacity="1" d="M-273.9 -81.67 L-275.8 -81.36 L-277.6 -81.05 L-279.4 -80.73 L-281.2 -80.42 L-283 -80.11 L-284.8 -79.8 L-286.6 -79.49 L-288.4 -79.17 L-290.3 -78.86 L-292.1 -78.55 L-293.9 -78.24 L-295.7 -77.93 L-297.5 -77.61 L-299.3 -77.3 L-301.1 -76.99 L-303 -76.68 L-304.8 -76.37 L-306.6 -76.05 L-308.4 -75.74 L-310.2 -75.43 L-312 -75.12 L-313.8 -74.81 L-315.6 -74.49 L-317.5 -74.18 L-319.3 -73.87 L-319.6 -75.68 L-319.9 -77.5 L-320.2 -79.31 L-320.5 -81.12 L-320.8 -82.93 L-321.1 -84.75 L-321.4 -86.56 L-321.8 -88.37 L-322.1 -90.19 L-322.4 -92 L-322.7 -93.81 L-323 -95.62 L-323.3 -97.44 L-323.6 -99.25 L-323.9 -101.1 L-324.3 -102.9 L-324.6 -104.7 L-324.9 -106.5 L-325.2 -108.3 L-325.5 -110.1 L-325.8 -111.9 L-326.1 -113.8 L-326.4 -115.6 L-326.8 -117.4 L-327.1 -119.2 L-325.3 -119.5 L-323.4 -119.8 L-321.6 -120.1 L-319.8 -120.4 L-318 -120.7 L-316.2 -121.1 L-314.4 -121.4 L-312.6 -121.7 L-310.7 -122 L-308.9 -122.3 L-307.1 -122.6 L-305.3 -122.9 L-303.5 -123.2 L-301.7 -123.6 L-299.9 -123.9 L-298.1 -124.2 L-296.2 -124.5 L-294.4 -124.8 L-292.6 -125.1 L-290.8 -125.4 L-289 -125.7 L-287.2 -126.1 L-285.4 -126.4 L-283.6 -126.7 L-281.7 -127 L-281.4 -125.2 L-281.1 -123.4 L-280.8 -121.5 L-280.5 -119.7 L-280.2 -117.9 L-279.9 -116.1 L-279.6 -114.3 L-279.3 -112.5 L-278.9 -110.7 L-278.6 -108.9 L-278.3 -107 L-278 -105.2 L-277.7 -103.4 L-277.4 -101.6 L-277.1 -99.8 L-276.8 -97.98 L-276.4 -96.17 L-276.1 -94.36 L-275.8 -92.55 L-275.5 -90.73 L-275.2 -88.92 L-274.9 -87.11 L-274.6 -85.3 L-274.3 -83.48 L-273.9 -81.67 Z " />
<path stroke="rgb(0,0,0)" stroke-opacity="0.407" fill="rgb(255,255,255)" fill-opacity="1" d="M24.9 100.1 L24.81 102.1 L24.57 104.1 L24.17 106 L23.62 107.9 L22.92 109.7 L22.07 111.5 L21.08 113.2 L19.96 114.9 L18.72 116.4 L17.35 117.9 L15.88 119.2 L14.31 120.4 L12.64 121.5 L10.9 122.4 L9.085 123.2 L7.214 123.8 L5.298 124.3 L3.348 124.7 L1.377 124.9 L-0.6025 124.9 L-2.578 124.8 L-4.538 124.5 L-6.469 124 L-8.359 123.5 L-10.2 122.7 L-11.97 121.8 L-13.67 120.8 L-15.28 119.7 L-16.79 118.4 L-18.2 117 L-19.49 115.5 L-20.66 113.9 L-21.7 112.2 L-22.6 110.4 L-23.36 108.6 L-23.97 106.7 L-24.43 104.8 L-24.73 102.9 L-24.88 100.9 L-24.87 98.9 L-24.71 96.93 L-24.39 94.97 L-23.91 93.05 L-23.28 91.17 L-22.51 89.35 L-21.59 87.6 L-20.54 85.92 L-19.35 84.33 L-18.05 82.85 L-16.63 81.47 L-15.1 80.2 L-13.48 79.07 L-11.78 78.06 L-9.997 77.19 L-8.153 76.47 L-6.258 75.9 L-4.324 75.48 L-2.362 75.21 L-0.3851 75.1 L1.594 75.15 L3.563 75.35 L5.51 75.72 L7.422 76.23 L9.287 76.89 L11.09 77.71 L12.83 78.66 L14.48 79.74 L16.05 80.96 L17.51 82.29 L18.86 83.74 L20.09 85.29 L21.2 86.93 L22.17 88.66 L23 90.46 L23.69 92.31 L24.22 94.22 L24.6 96.16 L24.83 98.13 L24.9 100.1 Z " />
<path stroke="rgb(0,0,0)" stroke-opacity="1" fill="rgb(255,255,255)" fill-opacity="1" d="M-75.6 -75.94 L-77.58 -75.93 L-79.56 -75.91 L-81.54 -75.9 L-83.51 -75.89 L-85.49 -75.87 L-87.47 -75.86 L-89.44 -75.85 L-91.42 -75.83 L-93.4 -75.82 L-95.38 -75.8 L-97.35 -75.79 L-99.33 -75.78 L-101.3 -75.76 L-103.3 -75.75 L-105.3 -75.74 L-107.2 -75.72 L-109.2 -75.71 L-111.2 -75.7 L-113.2 -75.68 L-115.1 -75.67 L-117.1 -75.66 L-119.1 -75.64 L-121.1 -75.63 L-123.1 -75.61 L-125 -75.6 L-125 -77.58 L-125.1 -79.56 L-125.1 -81.53 L-125.1 -83.51 L-125.1 -85.49 L-125.1 -87.46 L-125.1 -89.44 L-125.1 -91.42 L-125.2 -93.4 L-125.2 -95.37 L-125.2 -97.35 L-125.2 -99.33 L-125.2 -101.3 L-125.2 -103.3 L-125.2 -105.3 L-125.3 -107.2 L-125.3 -109.2 L-125.3 -111.2 L-125.3 -113.2 L-125.3 -115.1 L-125.3 -117.1 L-125.3 -119.1 L-125.3 -121.1 L-125.4 -123.1 L-125.4 -125 L-123.4 -125 L-121.4 -125.1 L-119.4 -125.1 L-117.5 -125.1 L-115.5 -125.1 L-113.5 -125.1 L-111.5 -125.1 L-109.6 -125.1 L-107.6 -125.2 L-105.6 -125.2 L-103.6 -125.2 L-101.6 -125.2 L-99.67 -125.2 L-97.69 -125.2 L-95.72 -125.2 L-93.74 -125.2 L-91.76 -125.3 L-89.78 -125.3 L-87.81 -125.3 L-85.83 -125.3 L-83.85 -125.3 L-81.88 -125.3 L-79.9 -125.3 L-77.92 -125.4 L-75.94 -125.4 L-75.93 -123.4 L-75.92 -121.4 L-75.9 -119.4 L-75.89 -117.5 L-75.88 -115.5 L-75.86 -113.5 L-75.85 -111.5 L-75.84 -109.6 L-75.82 -107.6 L-75.81 -105.6 L-75.79 -103.6 L-75.78 -101.6 L-75.77 -99.67 L-75.75 -97.69 L-75.74 -95.71 L-75.73 -93.74 L-75.71 -91.76 L-75.7 -89.78 L-75.69 -87.8 L-75.67 -85.83 L-75.66 -83.85 L-75.64 -81.87 L-75.63 -79.9 L-75.62 -77.92 L-75.6 -75.94 Z " />
<path stroke="rgb(0,0,0)" stroke-opacity="0.407" fill="rgb(255,255,255)" fill-opacity="1" d="M224.9 100.1 L224.8 102.1 L224.6 104.1 L224.2 106 L223.6 107.9 L222.9 109.7 L222.1 111.5 L221.1 113.2 L220 114.9 L218.7 116.4 L217.4 117.9 L215.9 119.2 L214.3 120.4 L212.6 121.5 L210.9 122.4 L209.1 123.2 L207.2 123.8 L205.3 124.3 L203.3 124.7 L201.4 124.9 L199.4 124.9 L197.4 124.8 L195.5 124.5 L193.5 124 L191.6 123.5 L189.8 122.7 L188 121.8 L186.3 120.8 L184.7 119.7 L183.2 118.4 L181.8 117 L180.5 115.5 L179.3 113.9 L178.3 112.2 L177.4 110.4 L176.6 108.6 L176 106.7 L175.6 104.8 L175.3 102.9 L175.1 100.9 L175.1 98.9 L175.3 96.93 L175.6 94.97 L176.1 93.05 L176.7 91.17 L177.5 89.35 L178.4 87.6 L179.5 85.92 L180.6 84.33 L182 82.85 L183.4 81.47 L184.9 80.2 L186.5 79.07 L188.2 78.06 L190 77.19 L191.8 76.47 L193.7 75.9 L195.7 75.48 L197.6 75.21 L199.6 75.1 L201.6 75.15 L203.6 75.35 L205.5 75.72 L207.4 76.23 L209.3 76.89 L211.1 77.71 L212.8 78.66 L214.5 79.74 L216 80.96 L217.5 82.29 L218.9 83.74 L220.1 85.29 L221.2 86.93 L222.2 88.66 L223 90.46 L223.7 92.31 L224.2 94.22 L224.6 96.16 L224.8 98.13 L224.9 100.1 Z " />
<path stroke="rgb(0,0,0)" stroke-opacity="1" fill="rgb(255,255,255)" fill-opacity="1" d="M124.2 -75.55 L122.3 -75.55 L120.3 -75.56 L118.3 -75.57 L116.3 -75.58 L114.3 -75.59 L112.3 -75.6 L110.3 -75.6 L108.3 -75.61 L106.4 -75.62 L104.4 -75.63 L102.4 -75.64 L100.4 -75.65 L98.41 -75.66 L96.42 -75.66 L94.44 -75.67 L92.45 -75.68 L90.46 -75.69 L88.48 -75.7 L86.49 -75.71 L84.5 -75.72 L82.52 -75.72 L80.53 -75.73 L78.54 -75.74 L76.55 -75.75 L74.57 -75.76 L74.58 -77.75 L74.58 -79.73 L74.59 -81.72 L74.6 -83.71 L74.61 -85.69 L74.62 -87.68 L74.63 -89.67 L74.64 -91.66 L74.64 -93.64 L74.65 -95.63 L74.66 -97.62 L74.67 -99.6 L74.68 -101.6 L74.69 -103.6 L74.7 -105.6 L74.7 -107.6 L74.71 -109.5 L74.72 -111.5 L74.73 -113.5 L74.74 -115.5 L74.75 -117.5 L74.75 -119.5 L74.76 -121.5 L74.77 -123.4 L74.78 -125.4 L76.77 -125.4 L78.75 -125.4 L80.74 -125.4 L82.73 -125.4 L84.72 -125.4 L86.7 -125.4 L88.69 -125.4 L90.68 -125.4 L92.66 -125.4 L94.65 -125.3 L96.64 -125.3 L98.63 -125.3 L100.6 -125.3 L102.6 -125.3 L104.6 -125.3 L106.6 -125.3 L108.6 -125.3 L110.5 -125.3 L112.5 -125.3 L114.5 -125.3 L116.5 -125.3 L118.5 -125.2 L120.5 -125.2 L122.5 -125.2 L124.5 -125.2 L124.4 -123.2 L124.4 -121.2 L124.4 -119.3 L124.4 -117.3 L124.4 -115.3 L124.4 -113.3 L124.4 -111.3 L124.4 -109.3 L124.4 -107.3 L124.4 -105.4 L124.4 -103.4 L124.4 -101.4 L124.3 -99.39 L124.3 -97.4 L124.3 -95.42 L124.3 -93.43 L124.3 -91.44 L124.3 -89.45 L124.3 -87.47 L124.3 -85.48 L124.3 -83.49 L124.3 -81.51 L124.3 -79.52 L124.3 -77.53 L124.2 -75.55 Z " />
<path stroke="rgb(0,0,0)" stroke-opacity="0.407" fill="rgb(255,255,255)" fill-opacity="1" d="M-275.1 200.1 L-275.2 202.1 L-275.4 204.1 L-275.8 206 L-276.4 207.9 L-277.1 209.7 L-277.9 211.5 L-278.9 213.2 L-280 214.9 L-281.3 216.4 L-282.6 217.9 L-284.1 219.2 L-285.7 220.4 L-287.4 221.5 L-289.1 222.4 L-290.9 223.2 L-292.8 223.8 L-294.7 224.3 L-296.7 224.7 L-298.6 224.9 L-300.6 224.9 L-302.6 224.8 L-304.5 224.5 L-306.5 224 L-308.4 223.5 L-310.2 222.7 L-312 221.8 L-313.7 220.8 L-315.3 219.7 L-316.8 218.4 L-318.2 217 L-319.5 215.5 L-320.7 213.9 L-321.7 212.2 L-322.6 210.4 L-323.4 208.6 L-324 206.7 L-324.4 204.8 L-324.7 202.9 L-324.9 200.9 L-324.9 198.9 L-324.7 196.9 L-324.4 195 L-323.9 193.1 L-323.3 191.2 L-322.5 189.4 L-321.6 187.6 L-320.5 185.9 L-319.4 184.3 L-318 182.8 L-316.6 181.5 L-315.1 180.2 L-313.5 179.1 L-311.8 178.1 L-310 177.2 L-308.2 176.5 L-306.3 175.9 L-304.3 175.5 L-302.4 175.2 L-300.4 175.1 L-298.4 175.1 L-296.4 175.4 L-294.5 175.7 L-292.6 176.2 L-290.7 176.9 L-288.9 177.7 L-287.2 178.7 L-285.5 179.7 L-284 181 L-282.5 182.3 L-281.1 183.7 L-279.9 185.3 L-278.8 186.9 L-277.8 188.7 L-277 190.5 L-276.3 192.3 L-275.8 194.2 L-275.4 196.2 L-275.2 198.1 L-275.1 200.1 Z " />
<path stroke="rgb(0,0,0)" stroke-opacity="1" fill="rgb(255,255,255)" fill-opacity="1" d="M-373.9 18.33 L-375.8 18.64 L-377.6 18.95 L-379.4 19.27 L-381.2 19.58 L-383 19.89 L-384.8 20.2 L-386.6 20.51 L-388.4 20.83 L-390.3 21.14 L-392.1 21.45 L-393.9 21.76 L-395.7 22.07 L-397.5 22.39 L-399.3 22.7 L-401.1 23.01 L-403 23.32 L-404.8 23.63 L-406.6 23.95 L-408.4 24.26 L-410.2 24.57 L-412 24.88 L-413.8 25.19 L-415.6 25.51 L-417.5 25.82 L-419.3 26.13 L-419.6 24.32 L-419.9 22.5 L-420.2 20.69 L-420.5 18.88 L-420.8 17.07 L-421.1 15.25 L-421.4 13.44 L-421.8 11.63 L-422.1 9.815 L-422.4 8.002 L-422.7 6.189 L-423 4.377 L-423.3 2.564 L-423.6 0.7513 L-423.9 -1.061 L-424.3 -2.874 L-424.6 -4.687 L-424.9 -6.499 L-425.2 -8.312 L-425.5 -10.12 L-425.8 -11.94 L-426.1 -13.75 L-426.4 -15.56 L-426.8 -17.38 L-427.1 -19.19 L-425.3 -19.5 L-423.4 -19.81 L-421.6 -20.12 L-419.8 -20.44 L-418 -20.75 L-416.2 -21.06 L-414.4 -21.37 L-412.6 -21.68 L-410.7 -22 L-408.9 -22.31 L-407.1 -22.62 L-405.3 -22.93 L-403.5 -23.24 L-401.7 -23.56 L-399.9 -23.87 L-398.1 -24.18 L-396.2 -24.49 L-394.4 -24.8 L-392.6 -25.12 L-390.8 -25.43 L-389 -25.74 L-387.2 -26.05 L-385.4 -26.36 L-383.6 -26.67 L-381.7 -26.99 L-381.4 -25.17 L-381.1 -23.36 L-380.8 -21.55 L-380.5 -19.74 L-380.2 -17.92 L-379.9 -16.11 L-379.6 -14.3 L-379.3 -12.49 L-378.9 -10.67 L-378.6 -8.86 L-378.3 -7.047 L-378 -5.235 L-377.7 -3.422 L-377.4 -1.609 L-377.1 0.2035 L-376.8 2.016 L-376.4 3.829 L-376.1 5.642 L-375.8 7.454 L-375.5 9.267 L-375.2 11.08 L-374.9 12.89 L-374.6 14.7 L-374.3 16.52 L-373.9 18.33 Z " />
<path stroke="rgb(0,0,0)" stroke-opacity="0.407" fill="rgb(255,255,255)" fill-opacity="1" d="M-75.1 200.1 L-75.19 202.1 L-75.43 204.1 L-75.83 206 L-76.38 207.9 L-77.08 209.7 L-77.93 211.5 L-78.92 213.2 L-80.04 214.9 L-81.28 216.4 L-82.65 217.9 L-84.12 219.2 L-85.69 220.4 L-87.36 221.5 L-89.1 222.4 L-90.92 223.2 L-92.79 223.8 L-94.7 224.3 L-96.65 224.7 L-98.62 224.9 L-100.6 224.9 L-102.6 224.8 L-104.5 224.5 L-106.5 224 L-108.4 223.5 L-110.2 222.7 L-112 221.8 L-113.7 220.8 L-115.3 219.7 L-116.8 218.4 L-118.2 217 L-119.5 215.5 L-120.7 213.9 L-121.7 212.2 L-122.6 210.4 L-123.4 208.6 L-124 206.7 L-124.4 204.8 L-124.7 202.9 L-124.9 200.9 L-124.9 198.9 L-124.7 196.9 L-124.4 195 L-123.9 193.1 L-123.3 191.2 L-122.5 189.4 L-121.6 187.6 L-120.5 185.9 L-119.4 184.3 L-118 182.8 L-116.6 181.5 L-115.1 180.2 L-113.5 179.1 L-111.8 178.1 L-110 177.2 L-108.2 176.5 L-106.3 175.9 L-104.3 175.5 L-102.4 175.2 L-100.4 175.1 L-98.41 175.1 L-96.44 175.4 L-94.49 175.7 L-92.58 176.2 L-90.71 176.9 L-88.91 177.7 L-87.17 178.7 L-85.52 179.7 L-83.95 181 L-82.49 182.3 L-81.14 183.7 L-79.91 185.3 L-78.8 186.9 L-77.83 188.7 L-77 190.5 L-76.31 192.3 L-75.78 194.2 L-75.4 196.2 L-75.17 198.1 L-75.1 200.1 Z " />
<path stroke="rgb(0,0,0)" stroke-opacity="1" fill="rgb(255,255,255)" fill-opacity="1" d="M-175.6 24.06 L-177.6 24.07 L-179.6 24.09 L-181.5 24.1 L-183.5 24.11 L-185.5 24.13 L-187.5 24.14 L-189.4 24.15 L-191.4 24.17 L-193.4 24.18 L-195.4 24.2 L-197.4 24.21 L-199.3 24.22 L-201.3 24.24 L-203.3 24.25 L-205.3 24.26 L-207.2 24.28 L-209.2 24.29 L-211.2 24.3 L-213.2 24.32 L-215.1 24.33 L-217.1 24.34 L-219.1 24.36 L-221.1 24.37 L-223.1 24.39 L-225 24.4 L-225 22.42 L-225.1 20.44 L-225.1 18.47 L-225.1 16.49 L-225.1 14.51 L-225.1 12.54 L-225.1 10.56 L-225.1 8.581 L-225.2 6.604 L-225.2 4.627 L-225.2 2.65 L-225.2 0.6725 L-225.2 -1.305 L-225.2 -3.282 L-225.2 -5.259 L-225.3 -7.236 L-225.3 -9.214 L-225.3 -11.19 L-225.3 -13.17 L-225.3 -15.15 L-225.3 -17.12 L-225.3 -19.1 L-225.3 -21.08 L-225.4 -23.05 L-225.4 -25.03 L-223.4 -25.05 L-221.4 -25.06 L-219.4 -25.07 L-217.5 -25.09 L-215.5 -25.1 L-213.5 -25.11 L-211.5 -25.13 L-209.6 -25.14 L-207.6 -25.15 L-205.6 -25.17 L-203.6 -25.18 L-201.6 -25.19 L-199.7 -25.21 L-197.7 -25.22 L-195.7 -25.24 L-193.7 -25.25 L-191.8 -25.26 L-189.8 -25.28 L-187.8 -25.29 L-185.8 -25.3 L-183.9 -25.32 L-181.9 -25.33 L-179.9 -25.34 L-177.9 -25.36 L-175.9 -25.37 L-175.9 -23.39 L-175.9 -21.42 L-175.9 -19.44 L-175.9 -17.46 L-175.9 -15.49 L-175.9 -13.51 L-175.8 -11.53 L-175.8 -9.554 L-175.8 -7.577 L-175.8 -5.599 L-175.8 -3.622 L-175.8 -1.645 L-175.8 0.3322 L-175.8 2.309 L-175.7 4.287 L-175.7 6.264 L-175.7 8.241 L-175.7 10.22 L-175.7 12.2 L-175.7 14.17 L-175.7 16.15 L-175.6 18.13 L-175.6 20.1 L-175.6 22.08 L-175.6 24.06 Z " />
<path stroke="rgb(0,0,0)" stroke-opacity="0.407" fill="rgb(255,255,255)" fill-opacity="1" d="M124.9 200.1 L124.8 202.1 L124.6 204.1 L124.2 206 L123.6 207.9 L122.9 209.7 L122.1 211.5 L121.1 213.2 L120 214.9 L118.7 216.4 L117.4 217.9 L115.9 219.2 L114.3 220.4 L112.6 221.5 L110.9 222.4 L109.1 223.2 L107.2 223.8 L105.3 224.3 L103.3 224.7 L101.4 224.9 L99.4 224.9 L97.42 224.8 L95.46 224.5 L93.53 224 L91.64 223.5 L89.8 222.7 L88.03 221.8 L86.33 220.8 L84.72 219.7 L83.21 218.4 L81.8 217 L80.51 215.5 L79.34 213.9 L78.3 212.2 L77.4 210.4 L76.64 208.6 L76.03 206.7 L75.57 204.8 L75.27 202.9 L75.12 200.9 L75.13 198.9 L75.29 196.9 L75.61 195 L76.09 193.1 L76.72 191.2 L77.49 189.4 L78.41 187.6 L79.46 185.9 L80.65 184.3 L81.95 182.8 L83.37 181.5 L84.9 180.2 L86.52 179.1 L88.22 178.1 L90 177.2 L91.85 176.5 L93.74 175.9 L95.68 175.5 L97.64 175.2 L99.61 175.1 L101.6 175.1 L103.6 175.4 L105.5 175.7 L107.4 176.2 L109.3 176.9 L111.1 177.7 L112.8 178.7 L114.5 179.7 L116 181 L117.5 182.3 L118.9 183.7 L120.1 185.3 L121.2 186.9 L122.2 188.7 L123 190.5 L123.7 192.3 L124.2 194.2 L124.6 196.2 L124.8 198.1 L124.9 200.1 Z " />
<path stroke="rgb(0,0,0)" stroke-opacity="1" fill="rgb(255,255,255)" fill-opacity="1" d="M24.24 24.45 L22.26 24.45 L20.27 24.44 L18.28 24.43 L16.3 24.42 L14.31 24.41 L12.32 24.4 L10.33 24.4 L8.347 24.39 L6.36 24.38 L4.373 24.37 L2.386 24.36 L0.3987 24.35 L-1.588 24.34 L-3.575 24.34 L-5.562 24.33 L-7.55 24.32 L-9.537 24.31 L-11.52 24.3 L-13.51 24.29 L-15.5 24.28 L-17.48 24.28 L-19.47 24.27 L-21.46 24.26 L-23.45 24.25 L-25.43 24.24 L-25.42 22.25 L-25.42 20.27 L-25.41 18.28 L-25.4 16.29 L-25.39 14.31 L-25.38 12.32 L-25.37 10.33 L-25.36 8.345 L-25.36 6.358 L-25.35 4.371 L-25.34 2.384 L-25.33 0.3966 L-25.32 -1.59 L-25.31 -3.578 L-25.3 -5.565 L-25.3 -7.552 L-25.29 -9.539 L-25.28 -11.53 L-25.27 -13.51 L-25.26 -15.5 L-25.25 -17.49 L-25.25 -19.47 L-25.24 -21.46 L-25.23 -23.45 L-25.22 -25.44 L-23.23 -25.43 L-21.25 -25.42 L-19.26 -25.41 L-17.27 -25.4 L-15.28 -25.39 L-13.3 -25.38 L-11.31 -25.38 L-9.323 -25.37 L-7.336 -25.36 L-5.349 -25.35 L-3.362 -25.34 L-1.375 -25.33 L0.6122 -25.32 L2.599 -25.32 L4.586 -25.31 L6.573 -25.3 L8.56 -25.29 L10.55 -25.28 L12.53 -25.27 L14.52 -25.26 L16.51 -25.26 L18.5 -25.25 L20.48 -25.24 L22.47 -25.23 L24.46 -25.22 L24.45 -23.23 L24.44 -21.25 L24.43 -19.26 L24.42 -17.27 L24.41 -15.29 L24.41 -13.3 L24.4 -11.31 L24.39 -9.325 L24.38 -7.338 L24.37 -5.351 L24.36 -3.364 L24.35 -1.377 L24.35 0.6101 L24.34 2.597 L24.33 4.584 L24.32 6.571 L24.31 8.558 L24.3 10.55 L24.29 12.53 L24.29 14.52 L24.28 16.51 L24.27 18.49 L24.26 20.48 L24.25 22.47 L24.24 24.45 Z " />
<path stroke="rgb(0,0,0)" stroke-opacity="0.407" fill="rgb(255,255,255)" fill-opacity="1" d="M324.9 200.1 L324.8 202.1 L324.6 204.1 L324.2 206 L323.6 207.9 L322.9 209.7 L322.1 211.5 L321.1 213.2 L320 214.9 L318.7 216.4 L317.4 217.9 L315.9 219.2 L314.3 220.4 L312.6 221.5 L310.9 222.4 L309.1 223.2 L307.2 223.8 L305.3 224.3 L303.3 224.7 L301.4 224.9 L299.4 224.9 L297.4 224.8 L295.5 224.5 L293.5 224 L291.6 223.5 L289.8 222.7 L288 221.8 L286.3 220.8 L284.7 219.7 L283.2 218.4 L281.8 217 L280.5 215.5 L279.3 213.9 L278.3 212.2 L277.4 210.4 L276.6 208.6 L276 206.7 L275.6 204.8 L275.3 202.9 L275.1 200.9 L275.1 198.9 L275.3 196.9 L275.6 195 L276.1 193.1 L276.7 191.2 L277.5 189.4 L278.4 187.6 L279.5 185.9 L280.6 184.3 L282 182.8 L283.4 181.5 L284.9 180.2 L286.5 179.1 L288.2 178.1 L290 177.2 L291.8 176.5 L293.7 175.9 L295.7 175.5 L297.6 175.2 L299.6 175.1 L301.6 175.1 L303.6 175.4 L305.5 175.7 L307.4 176.2 L309.3 176.9 L311.1 177.7 L312.8 178.7 L314.5 179.7 L316 181 L317.5 182.3 L318.9 183.7 L320.1 185.3 L321.2 186.9 L322.2 188.7 L323 190.5 L323.7 192.3 L324.2 194.2 L324.6 196.2 L324.8 198.1 L324.9 200.1 Z " />
<path stroke="rgb(0,0,0)" stroke-opacity="1" fill="rgb(255,255,255)" fill-opacity="1" d="M-473.9 118.3 L-475.8 118.6 L-477.6 119 L-479.4 119.3 L-481.2 119.6 L-483 119.9 L-484.8 120.2 L-486.6 120.5 L-488.4 120.8 L-490.3 121.1 L-492.1 121.4 L-493.9 121.8 L-495.7 122.1 L-497.5 122.4 L-499.3 122.7 L-501.1 123 L-503 123.3 L-504.8 123.6 L-506.6 123.9 L-508.4 124.3 L-510.2 124.6 L-512 124.9 L-513.8 125.2 L-515.6 125.5 L-517.5 125.8 L-519.3 126.1 L-519.6 124.3 L-519.9 122.5 L-520.2 120.7 L-520.5 118.9 L-520.8 117.1 L-521.1 115.3 L-521.4 113.4 L-521.8 111.6 L-522.1 109.8 L-522.4 108 L-522.7 106.2 L-523 104.4 L-523.3 102.6 L-523.6 100.8 L-523.9 98.94 L-524.3 97.13 L-524.6 95.31 L-524.9 93.5 L-525.2 91.69 L-525.5 89.88 L-525.8 88.06 L-526.1 86.25 L-526.4 84.44 L-526.8 82.62 L-527.1 80.81 L-525.3 80.5 L-523.4 80.19 L-521.6 79.88 L-519.8 79.56 L-518 79.25 L-516.2 78.94 L-514.4 78.63 L-512.6 78.32 L-510.7 78 L-508.9 77.69 L-507.1 77.38 L-505.3 77.07 L-503.5 76.76 L-501.7 76.44 L-499.9 76.13 L-498.1 75.82 L-496.2 75.51 L-494.4 75.2 L-492.6 74.88 L-490.8 74.57 L-489 74.26 L-487.2 73.95 L-485.4 73.64 L-483.6 73.33 L-481.7 73.01 L-481.4 74.83 L-481.1 76.64 L-480.8 78.45 L-480.5 80.26 L-480.2 82.08 L-479.9 83.89 L-479.6 85.7 L-479.3 87.51 L-478.9 89.33 L-478.6 91.14 L-478.3 92.95 L-478 94.77 L-477.7 96.58 L-477.4 98.39 L-477.1 100.2 L-476.8 102 L-476.4 103.8 L-476.1 105.6 L-475.8 107.5 L-475.5 109.3 L-475.2 111.1 L-474.9 112.9 L-474.6 114.7 L-474.3 116.5 L-473.9 118.3 Z " />
<path stroke="rgb(0,0,0)" stroke-opacity="0.407" fill="rgb(255,255,255)" fill-opacity="1" d="M-175.1 300.1 L-175.2 302.1 L-175.4 304.1 L-175.8 306 L-176.4 307.9 L-177.1 309.7 L-177.9 311.5 L-178.9 313.2 L-180 314.9 L-181.3 316.4 L-182.6 317.9 L-184.1 319.2 L-185.7 320.4 L-187.4 321.5 L-189.1 322.4 L-190.9 323.2 L-192.8 323.8 L-194.7 324.3 L-196.7 324.7 L-198.6 324.9 L-200.6 324.9 L-202.6 324.8 L-204.5 324.5 L-206.5 324 L-208.4 323.5 L-210.2 322.7 L-212 321.8 L-213.7 320.8 L-215.3 319.7 L-216.8 318.4 L-218.2 317 L-219.5 315.5 L-220.7 313.9 L-221.7 312.2 L-222.6 310.4 L-223.4 308.6 L-224 306.7 L-224.4 304.8 L-224.7 302.9 L-224.9 300.9 L-224.9 298.9 L-224.7 296.9 L-224.4 295 L-223.9 293.1 L-223.3 291.2 L-222.5 289.4 L-221.6 287.6 L-220.5 285.9 L-219.4 284.3 L-218 282.8 L-216.6 281.5 L-215.1 280.2 L-213.5 279.1 L-211.8 278.1 L-210 277.2 L-208.2 276.5 L-206.3 275.9 L-204.3 275.5 L-202.4 275.2 L-200.4 275.1 L-198.4 275.1 L-196.4 275.4 L-194.5 275.7 L-192.6 276.2 L-190.7 276.9 L-188.9 277.7 L-187.2 278.7 L-185.5 279.7 L-184 281 L-182.5 282.3 L-181.1 283.7 L-179.9 285.3 L-178.8 286.9 L-177.8 288.7 L-177 290.5 L-176.3 292.3 L-175.8 294.2 L-175.4 296.2 L-175.2 298.1 L-175.1 300.1 Z " />
<path stroke="rgb(0,0,0)" stroke-opacity="1" fill="rgb(255,255,255)" fill-opacity="1" d="M-275.6 124.1 L-277.6 124.1 L-279.6 124.1 L-281.5 124.1 L-283.5 124.1 L-285.5 124.1 L-287.5 124.1 L-289.4 124.2 L-291.4 124.2 L-293.4 124.2 L-295.4 124.2 L-297.4 124.2 L-299.3 124.2 L-301.3 124.2 L-303.3 124.2 L-305.3 124.3 L-307.2 124.3 L-309.2 124.3 L-311.2 124.3 L-313.2 124.3 L-315.1 124.3 L-317.1 124.3 L-319.1 124.4 L-321.1 124.4 L-323.1 124.4 L-325 124.4 L-325 122.4 L-325.1 120.4 L-325.1 118.5 L-325.1 116.5 L-325.1 114.5 L-325.1 112.5 L-325.1 110.6 L-325.1 108.6 L-325.2 106.6 L-325.2 104.6 L-325.2 102.6 L-325.2 100.7 L-325.2 98.7 L-325.2 96.72 L-325.2 94.74 L-325.3 92.76 L-325.3 90.79 L-325.3 88.81 L-325.3 86.83 L-325.3 84.85 L-325.3 82.88 L-325.3 80.9 L-325.3 78.92 L-325.4 76.95 L-325.4 74.97 L-323.4 74.95 L-321.4 74.94 L-319.4 74.93 L-317.5 74.91 L-315.5 74.9 L-313.5 74.89 L-311.5 74.87 L-309.6 74.86 L-307.6 74.85 L-305.6 74.83 L-303.6 74.82 L-301.6 74.81 L-299.7 74.79 L-297.7 74.78 L-295.7 74.76 L-293.7 74.75 L-291.8 74.74 L-289.8 74.72 L-287.8 74.71 L-285.8 74.7 L-283.9 74.68 L-281.9 74.67 L-279.9 74.66 L-277.9 74.64 L-275.9 74.63 L-275.9 76.61 L-275.9 78.58 L-275.9 80.56 L-275.9 82.54 L-275.9 84.51 L-275.9 86.49 L-275.8 88.47 L-275.8 90.45 L-275.8 92.42 L-275.8 94.4 L-275.8 96.38 L-275.8 98.36 L-275.8 100.3 L-275.8 102.3 L-275.7 104.3 L-275.7 106.3 L-275.7 108.2 L-275.7 110.2 L-275.7 112.2 L-275.7 114.2 L-275.7 116.2 L-275.6 118.1 L-275.6 120.1 L-275.6 122.1 L-275.6 124.1 Z " />
<path stroke="rgb(0,0,0)" stroke-opacity="0.407" fill="rgb(255,255,255)" fill-opacity="1" d="M24.9 300.1 L24.81 302.1 L24.57 304.1 L24.17 306 L23.62 307.9 L22.92 309.7 L22.07 311.5 L21.08 313.2 L19.96 314.9 L18.72 316.4 L17.35 317.9 L15.88 319.2 L14.31 320.4 L12.64 321.5 L10.9 322.4 L9.085 323.2 L7.214 323.8 L5.298 324.3 L3.348 324.7 L1.377 324.9 L-0.6025 324.9 L-2.578 324.8 L-4.538 324.5 L-6.469 324 L-8.359 323.5 L-10.2 322.7 L-11.97 321.8 L-13.67 320.8 L-15.28 319.7 L-16.79 318.4 L-18.2 317 L-19.49 315.5 L-20.66 313.9 L-21.7 312.2 L-22.6 310.4 L-23.36 308.6 L-23.97 306.7 L-24.43 304.8 L-24.73 302.9 L-24.88 300.9 L-24.87 298.9 L-24.71 296.9 L-24.39 295 L-23.91 293.1 L-23.28 291.2 L-22.51 289.4 L-21.59 287.6 L-20.54 285.9 L-19.35 284.3 L-18.05 282.8 L-16.63 281.5 L-15.1 280.2 L-13.48 279.1 L-11.78 278.1 L-9.997 277.2 L-8.153 276.5 L-6.258 275.9 L-4.324 275.5 L-2.362 275.2 L-0.3851 275.1 L1.594 275.1 L3.563 275.4 L5.51 275.7 L7.422 276.2 L9.287 276.9 L11.09 277.7 L12.83 278.7 L14.48 279.7 L16.05 281 L17.51 282.3 L18.86 283.7 L20.09 285.3 L21.2 286.9 L22.17 288.7 L23 290.5 L23.69 292.3 L24.22 294.2 L24.6 296.2 L24.83 298.1 L24.9 300.1 Z " />
<path stroke="rgb(0,0,0)" stroke-opacity="1" fill="rgb(255,255,255)" fill-opacity="1" d="M-75.76 124.5 L-77.74 124.4 L-79.73 124.4 L-81.72 124.4 L-83.7 124.4 L-85.69 124.4 L-87.68 124.4 L-89.67 124.4 L-91.65 124.4 L-93.64 124.4 L-95.63 124.4 L-97.61 124.4 L-99.6 124.4 L-101.6 124.3 L-103.6 124.3 L-105.6 124.3 L-107.5 124.3 L-109.5 124.3 L-111.5 124.3 L-113.5 124.3 L-115.5 124.3 L-117.5 124.3 L-119.5 124.3 L-121.5 124.3 L-123.4 124.2 L-125.4 124.2 L-125.4 122.3 L-125.4 120.3 L-125.4 118.3 L-125.4 116.3 L-125.4 114.3 L-125.4 112.3 L-125.4 110.3 L-125.4 108.3 L-125.4 106.4 L-125.3 104.4 L-125.3 102.4 L-125.3 100.4 L-125.3 98.41 L-125.3 96.42 L-125.3 94.44 L-125.3 92.45 L-125.3 90.46 L-125.3 88.47 L-125.3 86.49 L-125.3 84.5 L-125.3 82.51 L-125.2 80.53 L-125.2 78.54 L-125.2 76.55 L-125.2 74.56 L-123.2 74.57 L-121.2 74.58 L-119.3 74.59 L-117.3 74.6 L-115.3 74.61 L-113.3 74.62 L-111.3 74.62 L-109.3 74.63 L-107.3 74.64 L-105.3 74.65 L-103.4 74.66 L-101.4 74.67 L-99.39 74.68 L-97.4 74.68 L-95.41 74.69 L-93.43 74.7 L-91.44 74.71 L-89.45 74.72 L-87.47 74.73 L-85.48 74.74 L-83.49 74.74 L-81.5 74.75 L-79.52 74.76 L-77.53 74.77 L-75.54 74.78 L-75.55 76.77 L-75.56 78.75 L-75.57 80.74 L-75.58 82.73 L-75.59 84.71 L-75.59 86.7 L-75.6 88.69 L-75.61 90.67 L-75.62 92.66 L-75.63 94.65 L-75.64 96.64 L-75.65 98.62 L-75.65 100.6 L-75.66 102.6 L-75.67 104.6 L-75.68 106.6 L-75.69 108.6 L-75.7 110.5 L-75.71 112.5 L-75.71 114.5 L-75.72 116.5 L-75.73 118.5 L-75.74 120.5 L-75.75 122.5 L-75.76 124.5 Z " />
<path stroke="rgb(0,0,0)" stroke-opacity="0.407" fill="rgb(255,255,255)" fill-opacity="1" d="M224.9 300.1 L224.8 302.1 L224.6 304.1 L224.2 306 L223.6 307.9 L222.9 309.7 L222.1 311.5 L221.1 313.2 L220 314.9 L218.7 316.4 L217.4 317.9 L215.9 319.2 L214.3 320.4 L212.6 321.5 L210.9 322.4 L209.1 323.2 L207.2 323.8 L205.3 324.3 L203.3 324.7 L201.4 324.9 L199.4 324.9 L197.4 324.8 L195.5 324.5 L193.5 324 L191.6 323.5 L189.8 322.7 L188 321.8 L186.3 320.8 L184.7 319.7 L183.2 318.4 L181.8 317 L180.5 315.5 L179.3 313.9 L178.3 312.2 L177.4 310.4 L176.6 308.6 L176 306.7 L175.6 304.8 L175.3 302.9 L175.1 300.9 L175.1 298.9 L175.3 296.9 L175.6 295 L176.1 293.1 L176.7 291.2 L177.5 289.4 L178.4 287.6 L179.5 285.9 L180.6 284.3 L182 282.8 L183.4 281.5 L184.9 280.2 L186.5 279.1 L188.2 278.1 L190 277.2 L191.8 276.5 L193.7 275.9 L195.7 275.5 L197.6 275.2 L199.6 275.1 L201.6 275.1 L203.6 275.4 L205.5 275.7 L207.4 276.2 L209.3 276.9 L211.1 277.7 L212.8 278.7 L214.5 279.7 L216 281 L217.5 282.3 L218.9 283.7 L220.1 285.3 L221.2 286.9 L222.2 288.7 L223 290.5 L223.7 292.3 L224.2 294.2 L224.6 296.2 L224.8 298.1 L224.9 300.1 Z " />
<path stroke="rgb(0,0,0)" stroke-opacity="1" fill="rgb(255,255,255)" fill-opacity="1" d="M124.2 124.5 L122.3 124.4 L120.3 124.4 L118.3 124.4 L116.3 124.4 L114.3 124.4 L112.3 124.4 L110.3 124.4 L108.3 124.4 L106.4 124.4 L104.4 124.4 L102.4 124.4 L100.4 124.4 L98.41 124.3 L96.42 124.3 L94.44 124.3 L92.45 124.3 L90.46 124.3 L88.48 124.3 L86.49 124.3 L84.5 124.3 L82.52 124.3 L80.53 124.3 L78.54 124.3 L76.55 124.2 L74.57 124.2 L74.58 122.3 L74.58 120.3 L74.59 118.3 L74.6 116.3 L74.61 114.3 L74.62 112.3 L74.63 110.3 L74.64 108.3 L74.64 106.4 L74.65 104.4 L74.66 102.4 L74.67 100.4 L74.68 98.41 L74.69 96.42 L74.7 94.44 L74.7 92.45 L74.71 90.46 L74.72 88.47 L74.73 86.49 L74.74 84.5 L74.75 82.51 L74.75 80.53 L74.76 78.54 L74.77 76.55 L74.78 74.56 L76.77 74.57 L78.75 74.58 L80.74 74.59 L82.73 74.6 L84.72 74.61 L86.7 74.62 L88.69 74.62 L90.68 74.63 L92.66 74.64 L94.65 74.65 L96.64 74.66 L98.63 74.67 L100.6 74.68 L102.6 74.68 L104.6 74.69 L106.6 74.7 L108.6 74.71 L110.5 74.72 L112.5 74.73 L114.5 74.74 L116.5 74.74 L118.5 74.75 L120.5 74.76 L122.5 74.77 L124.5 74.78 L124.4 76.77 L124.4 78.75 L124.4 80.74 L124.4 82.73 L124.4 84.71 L124.4 86.7 L124.4 88.69 L124.4 90.67 L124.4 92.66 L124.4 94.65 L124.4 96.64 L124.4 98.62 L124.3 100.6 L124.3 102.6 L124.3 104.6 L124.3 106.6 L124.3 108.6 L124.3 110.5 L124.3 112.5 L124.3 114.5 L124.3 116.5 L124.3 118.5 L124.3 120.5 L124.3 122.5 L124.2 124.5 Z " />
</g>
</g>
</svg>
