<!DOCTYPE svg>
<svg xmlns="http://www.w3.org/2000/svg" xmlns:xlink="http://www.w3.org/1999/xlink" width="1000" height="1000">
<g transform="translate(500.000000,500.000000)">
<g transform="scale(3.000000,3.000000)">
<path stroke="rgb(0,0,0)" stroke-opacity="1" fill="rgb(255,255,255)" fill-opacity="1" d="M-415.5 -417 L-414.5 -417 L-413.5 -416.9 L-412.5 -416.9 L-411.5 -416.8 L-410.5 -416.7 L-409.6 -416.7 L-408.6 -416.6 L-407.6 -416.5 L-406.6 -416.5 L-405.6 -416.4 L-404.6 -416.4 L-403.6 -416.3 L-402.6 -416.2 L-401.6 -416.2 L-400.6 -416.1 L-399.6 -416.1 L-398.6 -416 L-397.6 -415.9 L-396.6 -415.9 L-395.6 -415.8 L-394.6 -415.7 L-393.6 -415.7 L-392.7 -415.6 L-391.7 -415.6 L-390.7 -415.5 L-390.7 -414.5 L-390.8 -413.5 L-390.9 -412.5 L-390.9 -411.5 L-391 -410.5 L-391 -409.5 L-391.1 -408.5 L-391.2 -407.5 L-391.2 -406.6 L-391.3 -405.6 L-391.3 -404.6 L-391.4 -403.6 L-391.5 -402.6 L-391.5 -401.6 L-391.6 -400.6 L-391.7 -399.6 L-391.7 -398.6 L-391.8 -397.6 L-391.8 -396.6 L-391.9 -395.6 L-392 -394.6 L-392 -393.6 L-392.1 -392.6 L-392.1 -391.6 L-392.2 -390.7 L-393.2 -390.7 L-394.2 -390.8 L-395.2 -390.8 L-396.2 -390.9 L-397.2 -391 L-398.2 -391 L-399.2 -391.1 L-400.2 -391.1 L-401.2 -391.2 L-402.1 -391.3 L-403.1 -391.3 L-404.1 -391.4 L-405.1 -391.5 L-406.1 -391.5 L-407.1 -391.6 L-408.1 -391.6 L-409.1 -391.7 L-410.1 -391.8 L-411.1 -391.8 L-412.1 -391.9 L-413.1 -391.9 L-414.1 -392 L-415.1 -392.1 L-416.1 -392.1 L-417.1 -392.2 L-417 -393.2 L-416.9 -394.2 L-416.9 -395.2 L-416.8 -396.2 L-416.7 -397.2 L-416.7 -398.2 L-416.6 -399.2 L-416.6 -400.1 L-416.5 -401.1 L-416.4 -402.1 L-416.4 -403.1 L-416.3 -404.1 L-416.3 -405.1 L-416.2 -406.1 L-416.1 -407.1 L-416.1 -408.1 L-416 -409.1 L-415.9 -410.1 L-415.9 -411.1 L-415.8 -412.1 L-415.8 -413.1 L-415.7 -414.1 L-415.6 -415.1 L-415.6 -416 L-415.5 -417 Z " />
<path stroke="rgb(0,0,0)" stroke-opacity="1" fill="rgb(255,255,255)" fill-opacity="1" d="M-199.5 -312.4 L-198.5 -312.3 L-197.5 -312.2 L-196.5 -312 L-195.6 -311.7 L-194.7 -311.3 L-193.8 -310.9 L-192.9 -310.4 L-192.1 -309.8 L-191.3 -309.2 L-190.6 -308.5 L-189.9 -307.7 L-189.4 -306.9 L-188.8 -306.1 L-188.4 -305.2 L-188 -304.3 L-187.7 -303.3 L-187.4 -302.4 L-187.3 -301.4 L-187.2 -300.4 L-187.2 -299.4 L-187.2 -298.4 L-187.4 -297.4 L-187.6 -296.5 L-187.9 -295.5 L-188.3 -294.6 L-188.8 -293.7 L-189.3 -292.8 L-189.9 -292 L-190.5 -291.3 L-191.2 -290.6 L-192 -289.9 L-192.8 -289.4 L-193.7 -288.9 L-194.6 -288.4 L-195.5 -288 L-196.4 -287.7 L-197.4 -287.5 L-198.4 -287.4 L-199.4 -287.3 L-200.4 -287.3 L-201.4 -287.4 L-202.4 -287.6 L-203.3 -287.9 L-204.3 -288.2 L-205.2 -288.6 L-206.1 -289 L-206.9 -289.6 L-207.7 -290.2 L-208.4 -290.9 L-209.1 -291.6 L-209.7 -292.4 L-210.3 -293.2 L-210.8 -294 L-211.2 -294.9 L-211.6 -295.9 L-211.9 -296.8 L-212.1 -297.8 L-212.2 -298.8 L-212.2 -299.8 L-212.2 -300.8 L-212.1 -301.8 L-211.9 -302.8 L-211.6 -303.7 L-211.3 -304.6 L-210.8 -305.6 L-210.4 -306.4 L-209.8 -307.2 L-209.2 -308 L-208.5 -308.8 L-207.8 -309.4 L-207 -310 L-206.1 -310.6 L-205.3 -311.1 L-204.4 -311.5 L-203.4 -311.8 L-202.5 -312.1 L-201.5 -312.2 L-200.5 -312.3 L-199.5 -312.4 Z " />
<path stroke="rgb(0,0,0)" stroke-opacity="1" fill="rgb(255,255,255)" fill-opacity="1" d="M-212.9 -413.2 L-211.9 -413.2 L-210.9 -413.1 L-209.9 -413.1 L-208.9 -413.1 L-207.9 -413.1 L-206.9 -413.1 L-205.9 -413.1 L-204.9 -413.1 L-203.9 -413.1 L-202.9 -413.1 L-201.9 -413.1 L-201 -413 L-200 -413 L-199 -413 L-198 -413 L-197 -413 L-196 -413 L-195 -413 L-194 -413 L-193 -413 L-192 -412.9 L-191 -412.9 L-190 -412.9 L-189 -412.9 L-188 -412.9 L-188 -411.9 L-188 -410.9 L-188 -409.9 L-188.1 -408.9 L-188.1 -407.9 L-188.1 -406.9 L-188.1 -405.9 L-188.1 -404.9 L-188.1 -403.9 L-188.1 -402.9 L-188.1 -401.9 L-188.1 -401 L-188.1 -400 L-188.2 -399 L-188.2 -398 L-188.2 -397 L-188.2 -396 L-188.2 -395 L-188.2 -394 L-188.2 -393 L-188.2 -392 L-188.2 -391 L-188.3 -390 L-188.3 -389 L-188.3 -388 L-189.3 -388 L-190.3 -388 L-191.3 -388 L-192.3 -388 L-193.3 -388.1 L-194.3 -388.1 L-195.2 -388.1 L-196.2 -388.1 L-197.2 -388.1 L-198.2 -388.1 L-199.2 -388.1 L-200.2 -388.1 L-201.2 -388.1 L-202.2 -388.2 L-203.2 -388.2 L-204.2 -388.2 L-205.2 -388.2 L-206.2 -388.2 L-207.2 -388.2 L-208.2 -388.2 L-209.2 -388.2 L-210.2 -388.2 L-211.2 -388.3 L-212.2 -388.3 L-213.2 -388.3 L-213.2 -389.3 L-213.1 -390.3 L-213.1 -391.3 L-213.1 -392.3 L-213.1 -393.3 L-213.1 -394.2 L-213.1 -395.2 L-213.1 -396.2 L-213.1 -397.2 L-213.1 -398.2 L-213.1 -399.2 L-213 -400.2 L-213 -401.2 L-213 -402.2 L-213 -403.2 L-213 -404.2 L-213 -405.2 L-213 -406.2 L-213 -407.2 L-213 -408.2 L-212.9 -409.2 L-212.9 -410.2 L-212.9 -411.2 L-212.9 -412.2 L-212.9 -413.2 Z " />
<path stroke="rgb(0,0,0)" stroke-opacity="1" fill="rgb(255,255,255)" fill-opacity="1" d="M4.988 -313.5 L6.056 -313 L7.087 -312.5 L8.075 -312 L9.014 -311.3 L9.897 -310.6 L10.72 -309.8 L11.47 -308.9 L12.16 -308 L12.77 -307 L13.3 -306 L13.75 -304.9 L14.11 -303.8 L14.39 -302.7 L14.57 -301.6 L14.67 -300.5 L14.67 -299.3 L14.58 -298.2 L14.41 -297 L14.14 -295.9 L13.79 -294.8 L13.34 -293.8 L12.82 -292.7 L12.22 -291.8 L11.54 -290.8 L10.79 -290 L9.975 -289.2 L9.097 -288.4 L8.163 -287.8 L7.179 -287.2 L6.152 -286.7 L5.087 -286.2 L3.992 -285.9 L2.873 -285.6 L1.737 -285.5 L0.5926 -285.4 L-0.5544 -285.4 L-1.696 -285.5 L-2.826 -285.7 L-3.936 -286 L-5.02 -286.4 L-6.07 -286.9 L-7.08 -287.4 L-8.044 -288 L-8.956 -288.7 L-9.809 -289.5 L-10.6 -290.3 L-11.32 -291.2 L-11.97 -292.2 L-12.54 -293.2 L-13.03 -294.2 L-13.43 -295.3 L-13.75 -296.4 L-13.98 -297.5 L-14.12 -298.6 L-14.17 -299.8 L-14.13 -300.9 L-14 -302.1 L-13.78 -303.2 L-13.47 -304.3 L-13.07 -305.4 L-12.59 -306.4 L-12.02 -307.4 L-11.38 -308.4 L-10.67 -309.3 L-9.884 -310.1 L-9.036 -310.9 L-8.13 -311.6 L-7.171 -312.2 L-6.164 -312.8 L-5.117 -313.2 L-4.036 -313.6 L-2.928 -313.9 L-1.8 -314.1 L-0.6591 -314.2 L0.4877 -314.3 L1.633 -314.2 L2.77 -314 L3.891 -313.8 L4.988 -313.5 Z " />
<path stroke="rgb(0,0,0)" stroke-opacity="1" fill="rgb(255,255,255)" fill-opacity="1" d="M-12.53 -412.6 L-11.53 -412.6 L-10.54 -412.6 L-9.54 -412.6 L-8.545 -412.6 L-7.549 -412.6 L-6.553 -412.6 L-5.557 -412.6 L-4.561 -412.6 L-3.565 -412.6 L-2.57 -412.6 L-1.574 -412.6 L-0.5779 -412.6 L0.4179 -412.6 L1.414 -412.6 L2.41 -412.6 L3.405 -412.6 L4.401 -412.6 L5.397 -412.6 L6.393 -412.5 L7.389 -412.5 L8.385 -412.5 L9.38 -412.5 L10.38 -412.5 L11.37 -412.5 L12.37 -412.5 L12.36 -411.5 L12.36 -410.5 L12.36 -409.5 L12.35 -408.5 L12.35 -407.5 L12.35 -406.6 L12.34 -405.6 L12.34 -404.6 L12.34 -403.6 L12.33 -402.6 L12.33 -401.6 L12.33 -400.6 L12.32 -399.6 L12.32 -398.6 L12.32 -397.6 L12.31 -396.6 L12.31 -395.6 L12.31 -394.6 L12.3 -393.6 L12.3 -392.6 L12.3 -391.6 L12.29 -390.6 L12.29 -389.6 L12.29 -388.6 L12.28 -387.6 L11.29 -387.6 L10.29 -387.6 L9.295 -387.6 L8.3 -387.6 L7.304 -387.6 L6.308 -387.7 L5.312 -387.7 L4.316 -387.7 L3.32 -387.7 L2.325 -387.7 L1.329 -387.7 L0.3329 -387.7 L-0.663 -387.7 L-1.659 -387.7 L-2.655 -387.7 L-3.65 -387.7 L-4.646 -387.7 L-5.642 -387.7 L-6.638 -387.7 L-7.634 -387.7 L-8.63 -387.7 L-9.626 -387.7 L-10.62 -387.7 L-11.62 -387.7 L-12.61 -387.7 L-12.61 -388.7 L-12.61 -389.7 L-12.6 -390.7 L-12.6 -391.7 L-12.6 -392.7 L-12.59 -393.7 L-12.59 -394.7 L-12.59 -395.7 L-12.58 -396.7 L-12.58 -397.7 L-12.58 -398.7 L-12.57 -399.7 L-12.57 -400.7 L-12.57 -401.7 L-12.56 -402.7 L-12.56 -403.6 L-12.56 -404.6 L-12.55 -405.6 L-12.55 -406.6 L-12.55 -407.6 L-12.54 -408.6 L-12.54 -409.6 L-12.53 -410.6 L-12.53 -411.6 L-12.53 -412.6 Z " />
<path stroke="rgb(0,0,0)" stroke-opacity="1" fill="rgb(255,255,255)" fill-opacity="1" d="M220.5 -306.9 L220.9 -305.2 L221.3 -303.6 L221.5 -301.9 L221.6 -300.1 L221.6 -298.4 L221.4 -296.7 L221.1 -295 L220.6 -293.4 L220 -291.8 L219.3 -290.2 L218.5 -288.7 L217.5 -287.3 L216.5 -285.9 L215.3 -284.7 L214.1 -283.5 L212.7 -282.5 L211.3 -281.5 L209.8 -280.7 L208.2 -280 L206.6 -279.4 L205 -278.9 L203.3 -278.6 L201.6 -278.4 L199.9 -278.4 L198.1 -278.4 L196.5 -278.7 L194.8 -279 L193.1 -279.5 L191.5 -280.1 L190 -280.9 L188.5 -281.7 L187.1 -282.7 L185.8 -283.8 L184.5 -285 L183.4 -286.2 L182.4 -287.6 L181.4 -289.1 L180.6 -290.6 L180 -292.1 L179.4 -293.8 L179 -295.4 L178.7 -297.1 L178.5 -298.8 L178.5 -300.5 L178.6 -302.2 L178.9 -303.9 L179.3 -305.6 L179.8 -307.2 L180.4 -308.8 L181.2 -310.4 L182.1 -311.8 L183.1 -313.2 L184.2 -314.5 L185.4 -315.7 L186.7 -316.8 L188.1 -317.9 L189.6 -318.7 L191.1 -319.5 L192.7 -320.2 L194.3 -320.7 L196 -321.1 L197.7 -321.3 L199.4 -321.5 L201.1 -321.4 L202.8 -321.3 L204.5 -321 L206.2 -320.6 L207.8 -320 L209.4 -319.4 L210.9 -318.6 L212.3 -317.6 L213.7 -316.6 L215 -315.5 L216.2 -314.2 L217.3 -312.9 L218.2 -311.5 L219.1 -310 L219.8 -308.5 L220.5 -306.9 Z " />
<path stroke="rgb(0,0,0)" stroke-opacity="1" fill="rgb(255,255,255)" fill-opacity="1" d="M187.5 -412.6 L188.5 -412.6 L189.5 -412.6 L190.5 -412.6 L191.5 -412.6 L192.5 -412.6 L193.4 -412.6 L194.4 -412.6 L195.4 -412.6 L196.4 -412.6 L197.4 -412.6 L198.4 -412.6 L199.4 -412.6 L200.4 -412.6 L201.4 -412.6 L202.4 -412.6 L203.4 -412.6 L204.4 -412.6 L205.4 -412.6 L206.4 -412.5 L207.4 -412.5 L208.4 -412.5 L209.4 -412.5 L210.4 -412.5 L211.4 -412.5 L212.4 -412.5 L212.4 -411.5 L212.4 -410.5 L212.4 -409.5 L212.4 -408.5 L212.4 -407.5 L212.3 -406.6 L212.3 -405.6 L212.3 -404.6 L212.3 -403.6 L212.3 -402.6 L212.3 -401.6 L212.3 -400.6 L212.3 -399.6 L212.3 -398.6 L212.3 -397.6 L212.3 -396.6 L212.3 -395.6 L212.3 -394.6 L212.3 -393.6 L212.3 -392.6 L212.3 -391.6 L212.3 -390.6 L212.3 -389.6 L212.3 -388.6 L212.3 -387.6 L211.3 -387.6 L210.3 -387.6 L209.3 -387.6 L208.3 -387.6 L207.3 -387.6 L206.3 -387.7 L205.3 -387.7 L204.3 -387.7 L203.3 -387.7 L202.3 -387.7 L201.3 -387.7 L200.3 -387.7 L199.3 -387.7 L198.3 -387.7 L197.3 -387.7 L196.3 -387.7 L195.4 -387.7 L194.4 -387.7 L193.4 -387.7 L192.4 -387.7 L191.4 -387.7 L190.4 -387.7 L189.4 -387.7 L188.4 -387.7 L187.4 -387.7 L187.4 -388.7 L187.4 -389.7 L187.4 -390.7 L187.4 -391.7 L187.4 -392.7 L187.4 -393.7 L187.4 -394.7 L187.4 -395.7 L187.4 -396.7 L187.4 -397.7 L187.4 -398.7 L187.4 -399.7 L187.4 -400.7 L187.4 -401.7 L187.4 -402.7 L187.4 -403.6 L187.4 -404.6 L187.4 -405.6 L187.5 -406.6 L187.5 -407.6 L187.5 -408.6 L187.5 -409.6 L187.5 -410.6 L187.5 -411.6 L187.5 -412.6 Z " />
<path stroke="rgb(0,0,0)" stroke-opacity="1" fill="rgb(255,255,255)" fill-opacity="1" d="M-299.5 -212.4 L-298.5 -212.3 L-297.5 -212.2 L-296.5 -212 L-295.6 -211.7 L-294.7 -211.3 L-293.8 -210.9 L-292.9 -210.4 L-292.1 -209.8 L-291.3 -209.2 L-290.6 -208.5 L-289.9 -207.7 L-289.4 -206.9 L-288.8 -206.1 L-288.4 -205.2 L-288 -204.3 L-287.7 -203.3 L-287.4 -202.4 L-287.3 -201.4 L-287.2 -200.4 L-287.2 -199.4 L-287.2 -198.4 L-287.4 -197.4 L-287.6 -196.5 L-287.9 -195.5 L-288.3 -194.6 L-288.8 -193.7 L-289.3 -192.8 L-289.9 -192 L-290.5 -191.3 L-291.2 -190.6 L-292 -189.9 L-292.8 -189.4 L-293.7 -188.9 L-294.6 -188.4 L-295.5 -188 L-296.4 -187.7 L-297.4 -187.5 L-298.4 -187.4 L-299.4 -187.3 L-300.4 -187.3 L-301.4 -187.4 L-302.4 -187.6 L-303.3 -187.9 L-304.3 -188.2 L-305.2 -188.6 L-306.1 -189 L-306.9 -189.6 L-307.7 -190.2 L-308.4 -190.9 L-309.1 -191.6 L-309.7 -192.4 L-310.3 -193.2 L-310.8 -194 L-311.2 -194.9 L-311.6 -195.9 L-311.9 -196.8 L-312.1 -197.8 L-312.2 -198.8 L-312.2 -199.8 L-312.2 -200.8 L-312.1 -201.8 L-311.9 -202.8 L-311.6 -203.7 L-311.3 -204.6 L-310.8 -205.6 L-310.4 -206.4 L-309.8 -207.2 L-309.2 -208 L-308.5 -208.8 L-307.8 -209.4 L-307 -210 L-306.1 -210.6 L-305.3 -211.1 L-304.4 -211.5 L-303.4 -211.8 L-302.5 -212.1 L-301.5 -212.2 L-300.5 -212.3 L-299.5 -212.4 Z " />
<path stroke="rgb(0,0,0)" stroke-opacity="1" fill="rgb(255,255,255)" fill-opacity="1" d="M-312.9 -313.2 L-311.9 -313.2 L-310.9 -313.1 L-309.9 -313.1 L-308.9 -313.1 L-307.9 -313.1 L-306.9 -313.1 L-305.9 -313.1 L-304.9 -313.1 L-303.9 -313.1 L-302.9 -313.1 L-301.9 -313.1 L-301 -313 L-300 -313 L-299 -313 L-298 -313 L-297 -313 L-296 -313 L-295 -313 L-294 -313 L-293 -313 L-292 -312.9 L-291 -312.9 L-290 -312.9 L-289 -312.9 L-288 -312.9 L-288 -311.9 L-288 -310.9 L-288 -309.9 L-288.1 -308.9 L-288.1 -307.9 L-288.1 -306.9 L-288.1 -305.9 L-288.1 -304.9 L-288.1 -303.9 L-288.1 -302.9 L-288.1 -301.9 L-288.1 -301 L-288.1 -300 L-288.2 -299 L-288.2 -298 L-288.2 -297 L-288.2 -296 L-288.2 -295 L-288.2 -294 L-288.2 -293 L-288.2 -292 L-288.2 -291 L-288.3 -290 L-288.3 -289 L-288.3 -288 L-289.3 -288 L-290.3 -288 L-291.3 -288 L-292.3 -288 L-293.3 -288.1 L-294.3 -288.1 L-295.2 -288.1 L-296.2 -288.1 L-297.2 -288.1 L-298.2 -288.1 L-299.2 -288.1 L-300.2 -288.1 L-301.2 -288.1 L-302.2 -288.2 L-303.2 -288.2 L-304.2 -288.2 L-305.2 -288.2 L-306.2 -288.2 L-307.2 -288.2 L-308.2 -288.2 L-309.2 -288.2 L-310.2 -288.2 L-311.2 -288.3 L-312.2 -288.3 L-313.2 -288.3 L-313.2 -289.3 L-313.1 -290.3 L-313.1 -291.3 L-313.1 -292.3 L-313.1 -293.3 L-313.1 -294.2 L-313.1 -295.2 L-313.1 -296.2 L-313.1 -297.2 L-313.1 -298.2 L-313.1 -299.2 L-313 -300.2 L-313 -301.2 L-313 -302.2 L-313 -303.2 L-313 -304.2 L-313 -305.2 L-313 -306.2 L-313 -307.2 L-313 -308.2 L-312.9 -309.2 L-312.9 -310.2 L-312.9 -311.2 L-312.9 -312.2 L-312.9 -313.2 Z " />
<path stroke="rgb(0,0,0)" stroke-opacity="1" fill="rgb(255,255,255)" fill-opacity="1" d="M-95.01 -213.5 L-93.94 -213 L-92.91 -212.5 L-91.92 -212 L-90.99 -211.3 L-90.1 -210.6 L-89.28 -209.8 L-88.53 -208.9 L-87.84 -208 L-87.23 -207 L-86.7 -206 L-86.25 -204.9 L-85.89 -203.8 L-85.61 -202.7 L-85.43 -201.6 L-85.33 -200.5 L-85.33 -199.3 L-85.42 -198.2 L-85.59 -197 L-85.86 -195.9 L-86.21 -194.8 L-86.66 -193.8 L-87.18 -192.7 L-87.78 -191.8 L-88.46 -190.8 L-89.21 -190 L-90.03 -189.2 L-90.9 -188.4 L-91.84 -187.8 L-92.82 -187.2 L-93.85 -186.7 L-94.91 -186.2 L-96.01 -185.9 L-97.13 -185.6 L-98.26 -185.5 L-99.41 -185.4 L-100.6 -185.4 L-101.7 -185.5 L-102.8 -185.7 L-103.9 -186 L-105 -186.4 L-106.1 -186.9 L-107.1 -187.4 L-108 -188 L-109 -188.7 L-109.8 -189.5 L-110.6 -190.3 L-111.3 -191.2 L-112 -192.2 L-112.5 -193.2 L-113 -194.2 L-113.4 -195.3 L-113.8 -196.4 L-114 -197.5 L-114.1 -198.6 L-114.2 -199.8 L-114.1 -200.9 L-114 -202.1 L-113.8 -203.2 L-113.5 -204.3 L-113.1 -205.4 L-112.6 -206.4 L-112 -207.4 L-111.4 -208.4 L-110.7 -209.3 L-109.9 -210.1 L-109 -210.9 L-108.1 -211.6 L-107.2 -212.2 L-106.2 -212.8 L-105.1 -213.2 L-104 -213.6 L-102.9 -213.9 L-101.8 -214.1 L-100.7 -214.2 L-99.51 -214.3 L-98.37 -214.2 L-97.23 -214 L-96.11 -213.8 L-95.01 -213.5 Z " />
<path stroke="rgb(0,0,0)" stroke-opacity="1" fill="rgb(255,255,255)" fill-opacity="1" d="M-112.5 -312.6 L-111.5 -312.6 L-110.5 -312.6 L-109.5 -312.6 L-108.5 -312.6 L-107.5 -312.6 L-106.6 -312.6 L-105.6 -312.6 L-104.6 -312.6 L-103.6 -312.6 L-102.6 -312.6 L-101.6 -312.6 L-100.6 -312.6 L-99.58 -312.6 L-98.59 -312.6 L-97.59 -312.6 L-96.59 -312.6 L-95.6 -312.6 L-94.6 -312.6 L-93.61 -312.5 L-92.61 -312.5 L-91.62 -312.5 L-90.62 -312.5 L-89.62 -312.5 L-88.63 -312.5 L-87.63 -312.5 L-87.64 -311.5 L-87.64 -310.5 L-87.64 -309.5 L-87.65 -308.5 L-87.65 -307.5 L-87.65 -306.6 L-87.66 -305.6 L-87.66 -304.6 L-87.66 -303.6 L-87.67 -302.6 L-87.67 -301.6 L-87.67 -300.6 L-87.68 -299.6 L-87.68 -298.6 L-87.68 -297.6 L-87.69 -296.6 L-87.69 -295.6 L-87.69 -294.6 L-87.7 -293.6 L-87.7 -292.6 L-87.7 -291.6 L-87.71 -290.6 L-87.71 -289.6 L-87.71 -288.6 L-87.72 -287.6 L-88.71 -287.6 L-89.71 -287.6 L-90.7 -287.6 L-91.7 -287.6 L-92.7 -287.6 L-93.69 -287.7 L-94.69 -287.7 L-95.68 -287.7 L-96.68 -287.7 L-97.68 -287.7 L-98.67 -287.7 L-99.67 -287.7 L-100.7 -287.7 L-101.7 -287.7 L-102.7 -287.7 L-103.7 -287.7 L-104.6 -287.7 L-105.6 -287.7 L-106.6 -287.7 L-107.6 -287.7 L-108.6 -287.7 L-109.6 -287.7 L-110.6 -287.7 L-111.6 -287.7 L-112.6 -287.7 L-112.6 -288.7 L-112.6 -289.7 L-112.6 -290.7 L-112.6 -291.7 L-112.6 -292.7 L-112.6 -293.7 L-112.6 -294.7 L-112.6 -295.7 L-112.6 -296.7 L-112.6 -297.7 L-112.6 -298.7 L-112.6 -299.7 L-112.6 -300.7 L-112.6 -301.7 L-112.6 -302.7 L-112.6 -303.6 L-112.6 -304.6 L-112.6 -305.6 L-112.5 -306.6 L-112.5 -307.6 L-112.5 -308.6 L-112.5 -309.6 L-112.5 -310.6 L-112.5 -311.6 L-112.5 -312.6 Z " />
<path stroke="rgb(0,0,0)" stroke-opacity="1" fill="rgb(255,255,255)" fill-opacity="1" d="M120.5 -206.9 L120.9 -205.2 L121.3 -203.6 L121.5 -201.9 L121.6 -200.1 L121.6 -198.4 L121.4 -196.7 L121.1 -195 L120.6 -193.4 L120 -191.8 L119.3 -190.2 L118.5 -188.7 L117.5 -187.3 L116.5 -185.9 L115.3 -184.7 L114.1 -183.5 L112.7 -182.5 L111.3 -181.5 L109.8 -180.7 L108.2 -180 L106.6 -179.4 L105 -178.9 L103.3 -178.6 L101.6 -178.4 L99.86 -178.4 L98.15 -178.4 L96.45 -178.7 L94.77 -179 L93.13 -179.5 L91.53 -180.1 L89.99 -180.9 L88.5 -181.7 L87.09 -182.7 L85.77 -183.8 L84.53 -185 L83.39 -186.2 L82.36 -187.6 L81.44 -189.1 L80.63 -190.6 L79.95 -192.1 L79.4 -193.8 L78.98 -195.4 L78.69 -197.1 L78.53 -198.8 L78.51 -200.5 L78.63 -202.2 L78.89 -203.9 L79.27 -205.6 L79.79 -207.2 L80.44 -208.8 L81.21 -210.4 L82.1 -211.8 L83.1 -213.2 L84.21 -214.5 L85.42 -215.7 L86.73 -216.8 L88.11 -217.9 L89.58 -218.7 L91.11 -219.5 L92.69 -220.2 L94.32 -220.7 L95.99 -221.1 L97.69 -221.3 L99.4 -221.5 L101.1 -221.4 L102.8 -221.3 L104.5 -221 L106.2 -220.6 L107.8 -220 L109.4 -219.4 L110.9 -218.6 L112.3 -217.6 L113.7 -216.6 L115 -215.5 L116.2 -214.2 L117.3 -212.9 L118.2 -211.5 L119.1 -210 L119.8 -208.5 L120.5 -206.9 Z " />
<path stroke="rgb(0,0,0)" stroke-opacity="1" fill="rgb(255,255,255)" fill-opacity="1" d="M87.47 -312.6 L88.47 -312.6 L89.46 -312.6 L90.46 -312.6 L91.46 -312.6 L92.45 -312.6 L93.45 -312.6 L94.44 -312.6 L95.44 -312.6 L96.43 -312.6 L97.43 -312.6 L98.43 -312.6 L99.42 -312.6 L100.4 -312.6 L101.4 -312.6 L102.4 -312.6 L103.4 -312.6 L104.4 -312.6 L105.4 -312.6 L106.4 -312.5 L107.4 -312.5 L108.4 -312.5 L109.4 -312.5 L110.4 -312.5 L111.4 -312.5 L112.4 -312.5 L112.4 -311.5 L112.4 -310.5 L112.4 -309.5 L112.4 -308.5 L112.4 -307.5 L112.3 -306.6 L112.3 -305.6 L112.3 -304.6 L112.3 -303.6 L112.3 -302.6 L112.3 -301.6 L112.3 -300.6 L112.3 -299.6 L112.3 -298.6 L112.3 -297.6 L112.3 -296.6 L112.3 -295.6 L112.3 -294.6 L112.3 -293.6 L112.3 -292.6 L112.3 -291.6 L112.3 -290.6 L112.3 -289.6 L112.3 -288.6 L112.3 -287.6 L111.3 -287.6 L110.3 -287.6 L109.3 -287.6 L108.3 -287.6 L107.3 -287.6 L106.3 -287.7 L105.3 -287.7 L104.3 -287.7 L103.3 -287.7 L102.3 -287.7 L101.3 -287.7 L100.3 -287.7 L99.34 -287.7 L98.34 -287.7 L97.35 -287.7 L96.35 -287.7 L95.35 -287.7 L94.36 -287.7 L93.36 -287.7 L92.37 -287.7 L91.37 -287.7 L90.37 -287.7 L89.38 -287.7 L88.38 -287.7 L87.39 -287.7 L87.39 -288.7 L87.39 -289.7 L87.4 -290.7 L87.4 -291.7 L87.4 -292.7 L87.41 -293.7 L87.41 -294.7 L87.41 -295.7 L87.42 -296.7 L87.42 -297.7 L87.42 -298.7 L87.43 -299.7 L87.43 -300.7 L87.43 -301.7 L87.44 -302.7 L87.44 -303.6 L87.44 -304.6 L87.45 -305.6 L87.45 -306.6 L87.45 -307.6 L87.46 -308.6 L87.46 -309.6 L87.47 -310.6 L87.47 -311.6 L87.47 -312.6 Z " />
<path stroke="rgb(0,0,0)" stroke-opacity="1" fill="rgb(255,255,255)" fill-opacity="1" d="M324.8 -200.2 L324.8 -198.3 L324.5 -196.3 L324.2 -194.4 L323.6 -192.5 L323 -190.6 L322.2 -188.8 L321.2 -187.1 L320.1 -185.5 L318.9 -183.9 L317.6 -182.5 L316.1 -181.1 L314.6 -179.9 L312.9 -178.8 L311.2 -177.8 L309.4 -177 L307.5 -176.4 L305.6 -175.8 L303.7 -175.5 L301.7 -175.2 L299.8 -175.2 L297.8 -175.3 L295.8 -175.5 L293.9 -175.9 L292 -176.5 L290.2 -177.2 L288.4 -178.1 L286.7 -179.1 L285.1 -180.2 L283.5 -181.4 L282.1 -182.8 L280.8 -184.3 L279.6 -185.9 L278.6 -187.5 L277.6 -189.3 L276.8 -191.1 L276.2 -192.9 L275.7 -194.9 L275.4 -196.8 L275.2 -198.8 L275.2 -200.7 L275.3 -202.7 L275.6 -204.7 L276.1 -206.6 L276.7 -208.5 L277.4 -210.3 L278.3 -212 L279.3 -213.7 L280.5 -215.3 L281.8 -216.8 L283.2 -218.2 L284.7 -219.5 L286.3 -220.7 L287.9 -221.7 L289.7 -222.6 L291.5 -223.3 L293.4 -223.9 L295.3 -224.4 L297.3 -224.7 L299.3 -224.8 L301.2 -224.8 L303.2 -224.6 L305.1 -224.3 L307.1 -223.8 L308.9 -223.2 L310.7 -222.4 L312.5 -221.4 L314.1 -220.4 L315.7 -219.2 L317.2 -217.9 L318.6 -216.5 L319.8 -214.9 L320.9 -213.3 L321.9 -211.6 L322.8 -209.8 L323.5 -208 L324.1 -206.1 L324.5 -204.2 L324.7 -202.2 L324.8 -200.2 Z " />
<path stroke="rgb(0,0,0)" stroke-opacity="1" fill="rgb(255,255,255)" fill-opacity="1" d="M-412.9 -213.2 L-411.9 -213.2 L-410.9 -213.1 L-409.9 -213.1 L-408.9 -213.1 L-407.9 -213.1 L-406.9 -213.1 L-405.9 -213.1 L-404.9 -213.1 L-403.9 -213.1 L-402.9 -213.1 L-401.9 -213.1 L-401 -213 L-400 -213 L-399 -213 L-398 -213 L-397 -213 L-396 -213 L-395 -213 L-394 -213 L-393 -213 L-392 -212.9 L-391 -212.9 L-390 -212.9 L-389 -212.9 L-388 -212.9 L-388 -211.9 L-388 -210.9 L-388 -209.9 L-388.1 -208.9 L-388.1 -207.9 L-388.1 -206.9 L-388.1 -205.9 L-388.1 -204.9 L-388.1 -203.9 L-388.1 -202.9 L-388.1 -201.9 L-388.1 -201 L-388.1 -200 L-388.2 -199 L-388.2 -198 L-388.2 -197 L-388.2 -196 L-388.2 -195 L-388.2 -194 L-388.2 -193 L-388.2 -192 L-388.2 -191 L-388.3 -190 L-388.3 -189 L-388.3 -188 L-389.3 -188 L-390.3 -188 L-391.3 -188 L-392.3 -188 L-393.3 -188.1 L-394.3 -188.1 L-395.2 -188.1 L-396.2 -188.1 L-397.2 -188.1 L-398.2 -188.1 L-399.2 -188.1 L-400.2 -188.1 L-401.2 -188.1 L-402.2 -188.2 L-403.2 -188.2 L-404.2 -188.2 L-405.2 -188.2 L-406.2 -188.2 L-407.2 -188.2 L-408.2 -188.2 L-409.2 -188.2 L-410.2 -188.2 L-411.2 -188.3 L-412.2 -188.3 L-413.2 -188.3 L-413.2 -189.3 L-413.1 -190.3 L-413.1 -191.3 L-413.1 -192.3 L-413.1 -193.3 L-413.1 -194.2 L-413.1 -195.2 L-413.1 -196.2 L-413.1 -197.2 L-413.1 -198.2 L-413.1 -199.2 L-413 -200.2 L-413 -201.2 L-413 -202.2 L-413 -203.2 L-413 -204.2 L-413 -205.2 L-413 -206.2 L-413 -207.2 L-413 -208.2 L-412.9 -209.2 L-412.9 -210.2 L-412.9 -211.2 L-412.9 -212.2 L-412.9 -213.2 Z " />
<path stroke="rgb(0,0,0)" stroke-opacity="1" fill="rgb(255,255,255)" fill-opacity="1" d="M-195 -113.5 L-193.9 -113 L-192.9 -112.5 L-191.9 -112 L-191 -111.3 L-190.1 -110.6 L-189.3 -109.8 L-188.5 -108.9 L-187.8 -108 L-187.2 -107 L-186.7 -106 L-186.3 -104.9 L-185.9 -103.8 L-185.6 -102.7 L-185.4 -101.6 L-185.3 -100.5 L-185.3 -99.31 L-185.4 -98.16 L-185.6 -97.03 L-185.9 -95.92 L-186.2 -94.82 L-186.7 -93.77 L-187.2 -92.74 L-187.8 -91.77 L-188.5 -90.84 L-189.2 -89.97 L-190 -89.17 L-190.9 -88.43 L-191.8 -87.76 L-192.8 -87.17 L-193.8 -86.66 L-194.9 -86.24 L-196 -85.89 L-197.1 -85.64 L-198.3 -85.48 L-199.4 -85.41 L-200.6 -85.42 L-201.7 -85.53 L-202.8 -85.73 L-203.9 -86.02 L-205 -86.4 L-206.1 -86.86 L-207.1 -87.4 L-208 -88.03 L-209 -88.72 L-209.8 -89.49 L-210.6 -90.32 L-211.3 -91.21 L-212 -92.16 L-212.5 -93.16 L-213 -94.19 L-213.4 -95.27 L-213.8 -96.37 L-214 -97.49 L-214.1 -98.63 L-214.2 -99.78 L-214.1 -100.9 L-214 -102.1 L-213.8 -103.2 L-213.5 -104.3 L-213.1 -105.4 L-212.6 -106.4 L-212 -107.4 L-211.4 -108.4 L-210.7 -109.3 L-209.9 -110.1 L-209 -110.9 L-208.1 -111.6 L-207.2 -112.2 L-206.2 -112.8 L-205.1 -113.2 L-204 -113.6 L-202.9 -113.9 L-201.8 -114.1 L-200.7 -114.2 L-199.5 -114.3 L-198.4 -114.2 L-197.2 -114 L-196.1 -113.8 L-195 -113.5 Z " />
<path stroke="rgb(0,0,0)" stroke-opacity="1" fill="rgb(255,255,255)" fill-opacity="1" d="M-212.5 -212.6 L-211.5 -212.6 L-210.5 -212.6 L-209.5 -212.6 L-208.5 -212.6 L-207.5 -212.6 L-206.6 -212.6 L-205.6 -212.6 L-204.6 -212.6 L-203.6 -212.6 L-202.6 -212.6 L-201.6 -212.6 L-200.6 -212.6 L-199.6 -212.6 L-198.6 -212.6 L-197.6 -212.6 L-196.6 -212.6 L-195.6 -212.6 L-194.6 -212.6 L-193.6 -212.5 L-192.6 -212.5 L-191.6 -212.5 L-190.6 -212.5 L-189.6 -212.5 L-188.6 -212.5 L-187.6 -212.5 L-187.6 -211.5 L-187.6 -210.5 L-187.6 -209.5 L-187.6 -208.5 L-187.6 -207.5 L-187.7 -206.6 L-187.7 -205.6 L-187.7 -204.6 L-187.7 -203.6 L-187.7 -202.6 L-187.7 -201.6 L-187.7 -200.6 L-187.7 -199.6 L-187.7 -198.6 L-187.7 -197.6 L-187.7 -196.6 L-187.7 -195.6 L-187.7 -194.6 L-187.7 -193.6 L-187.7 -192.6 L-187.7 -191.6 L-187.7 -190.6 L-187.7 -189.6 L-187.7 -188.6 L-187.7 -187.6 L-188.7 -187.6 L-189.7 -187.6 L-190.7 -187.6 L-191.7 -187.6 L-192.7 -187.6 L-193.7 -187.7 L-194.7 -187.7 L-195.7 -187.7 L-196.7 -187.7 L-197.7 -187.7 L-198.7 -187.7 L-199.7 -187.7 L-200.7 -187.7 L-201.7 -187.7 L-202.7 -187.7 L-203.7 -187.7 L-204.6 -187.7 L-205.6 -187.7 L-206.6 -187.7 L-207.6 -187.7 L-208.6 -187.7 L-209.6 -187.7 L-210.6 -187.7 L-211.6 -187.7 L-212.6 -187.7 L-212.6 -188.7 L-212.6 -189.7 L-212.6 -190.7 L-212.6 -191.7 L-212.6 -192.7 L-212.6 -193.7 L-212.6 -194.7 L-212.6 -195.7 L-212.6 -196.7 L-212.6 -197.7 L-212.6 -198.7 L-212.6 -199.7 L-212.6 -200.7 L-212.6 -201.7 L-212.6 -202.7 L-212.6 -203.6 L-212.6 -204.6 L-212.6 -205.6 L-212.5 -206.6 L-212.5 -207.6 L-212.5 -208.6 L-212.5 -209.6 L-212.5 -210.6 L-212.5 -211.6 L-212.5 -212.6 Z " />
<path stroke="rgb(0,0,0)" stroke-opacity="1" fill="rgb(255,255,255)" fill-opacity="1" d="M20.45 -106.9 L20.94 -105.2 L21.3 -103.6 L21.52 -101.9 L21.61 -100.1 L21.56 -98.43 L21.37 -96.73 L21.05 -95.05 L20.6 -93.39 L20.02 -91.78 L19.31 -90.22 L18.48 -88.72 L17.53 -87.29 L16.47 -85.95 L15.31 -84.69 L14.05 -83.52 L12.71 -82.46 L11.28 -81.51 L9.782 -80.68 L8.223 -79.97 L6.612 -79.38 L4.961 -78.93 L3.278 -78.6 L1.574 -78.41 L-0.1384 -78.36 L-1.85 -78.45 L-3.55 -78.67 L-5.226 -79.02 L-6.87 -79.5 L-8.469 -80.12 L-10.01 -80.86 L-11.5 -81.72 L-12.91 -82.7 L-14.23 -83.78 L-15.47 -84.97 L-16.61 -86.25 L-17.64 -87.61 L-18.56 -89.06 L-19.37 -90.57 L-20.05 -92.15 L-20.6 -93.77 L-21.02 -95.43 L-21.31 -97.12 L-21.47 -98.82 L-21.49 -100.5 L-21.37 -102.2 L-21.11 -103.9 L-20.73 -105.6 L-20.21 -107.2 L-19.56 -108.8 L-18.79 -110.4 L-17.9 -111.8 L-16.9 -113.2 L-15.79 -114.5 L-14.58 -115.7 L-13.27 -116.8 L-11.89 -117.9 L-10.42 -118.7 L-8.894 -119.5 L-7.308 -120.2 L-5.676 -120.7 L-4.007 -121.1 L-2.313 -121.3 L-0.6034 -121.5 L1.11 -121.4 L2.817 -121.3 L4.507 -121 L6.168 -120.6 L7.791 -120 L9.364 -119.4 L10.88 -118.6 L12.33 -117.6 L13.69 -116.6 L14.98 -115.5 L16.17 -114.2 L17.25 -112.9 L18.23 -111.5 L19.09 -110 L19.84 -108.5 L20.45 -106.9 Z " />
<path stroke="rgb(0,0,0)" stroke-opacity="1" fill="rgb(255,255,255)" fill-opacity="1" d="M-12.53 -212.6 L-11.53 -212.6 L-10.54 -212.6 L-9.54 -212.6 L-8.545 -212.6 L-7.549 -212.6 L-6.553 -212.6 L-5.557 -212.6 L-4.561 -212.6 L-3.565 -212.6 L-2.57 -212.6 L-1.574 -212.6 L-0.5779 -212.6 L0.4179 -212.6 L1.414 -212.6 L2.41 -212.6 L3.405 -212.6 L4.401 -212.6 L5.397 -212.6 L6.393 -212.5 L7.389 -212.5 L8.385 -212.5 L9.38 -212.5 L10.38 -212.5 L11.37 -212.5 L12.37 -212.5 L12.36 -211.5 L12.36 -210.5 L12.36 -209.5 L12.35 -208.5 L12.35 -207.5 L12.35 -206.6 L12.34 -205.6 L12.34 -204.6 L12.34 -203.6 L12.33 -202.6 L12.33 -201.6 L12.33 -200.6 L12.32 -199.6 L12.32 -198.6 L12.32 -197.6 L12.31 -196.6 L12.31 -195.6 L12.31 -194.6 L12.3 -193.6 L12.3 -192.6 L12.3 -191.6 L12.29 -190.6 L12.29 -189.6 L12.29 -188.6 L12.28 -187.6 L11.29 -187.6 L10.29 -187.6 L9.295 -187.6 L8.3 -187.6 L7.304 -187.6 L6.308 -187.7 L5.312 -187.7 L4.316 -187.7 L3.32 -187.7 L2.325 -187.7 L1.329 -187.7 L0.3329 -187.7 L-0.663 -187.7 L-1.659 -187.7 L-2.655 -187.7 L-3.65 -187.7 L-4.646 -187.7 L-5.642 -187.7 L-6.638 -187.7 L-7.634 -187.7 L-8.63 -187.7 L-9.626 -187.7 L-10.62 -187.7 L-11.62 -187.7 L-12.61 -187.7 L-12.61 -188.7 L-12.61 -189.7 L-12.6 -190.7 L-12.6 -191.7 L-12.6 -192.7 L-12.59 -193.7 L-12.59 -194.7 L-12.59 -195.7 L-12.58 -196.7 L-12.58 -197.7 L-12.58 -198.7 L-12.57 -199.7 L-12.57 -200.7 L-12.57 -201.7 L-12.56 -202.7 L-12.56 -203.6 L-12.56 -204.6 L-12.55 -205.6 L-12.55 -206.6 L-12.55 -207.6 L-12.54 -208.6 L-12.54 -209.6 L-12.53 -210.6 L-12.53 -211.6 L-12.53 -212.6 Z " />
<path stroke="rgb(0,0,0)" stroke-opacity="1" fill="rgb(255,255,255)" fill-opacity="1" d="M224.8 -100.2 L224.8 -98.27 L224.5 -96.31 L224.2 -94.38 L223.6 -92.47 L223 -90.62 L222.2 -88.82 L221.2 -87.1 L220.1 -85.45 L218.9 -83.9 L217.6 -82.45 L216.1 -81.11 L214.6 -79.89 L212.9 -78.8 L211.2 -77.84 L209.4 -77.03 L207.5 -76.35 L205.6 -75.83 L203.7 -75.46 L201.7 -75.24 L199.8 -75.18 L197.8 -75.28 L195.8 -75.53 L193.9 -75.94 L192 -76.5 L190.2 -77.21 L188.4 -78.07 L186.7 -79.06 L185.1 -80.18 L183.5 -81.43 L182.1 -82.8 L180.8 -84.28 L179.6 -85.85 L178.6 -87.52 L177.6 -89.26 L176.8 -91.07 L176.2 -92.94 L175.7 -94.85 L175.4 -96.8 L175.2 -98.76 L175.2 -100.7 L175.3 -102.7 L175.6 -104.7 L176.1 -106.6 L176.7 -108.5 L177.4 -110.3 L178.3 -112 L179.3 -113.7 L180.5 -115.3 L181.8 -116.8 L183.2 -118.2 L184.7 -119.5 L186.3 -120.7 L187.9 -121.7 L189.7 -122.6 L191.5 -123.3 L193.4 -123.9 L195.3 -124.4 L197.3 -124.7 L199.3 -124.8 L201.2 -124.8 L203.2 -124.6 L205.1 -124.3 L207.1 -123.8 L208.9 -123.2 L210.7 -122.4 L212.5 -121.4 L214.1 -120.4 L215.7 -119.2 L217.2 -117.9 L218.6 -116.5 L219.8 -114.9 L220.9 -113.3 L221.9 -111.6 L222.8 -109.8 L223.5 -108 L224.1 -106.1 L224.5 -104.2 L224.7 -102.2 L224.8 -100.2 Z " />
<path stroke="rgb(0,0,0)" stroke-opacity="1" fill="rgb(255,255,255)" fill-opacity="1" d="M187.5 -212.6 L188.5 -212.6 L189.5 -212.6 L190.5 -212.6 L191.5 -212.6 L192.5 -212.6 L193.4 -212.6 L194.4 -212.6 L195.4 -212.6 L196.4 -212.6 L197.4 -212.6 L198.4 -212.6 L199.4 -212.6 L200.4 -212.6 L201.4 -212.6 L202.4 -212.6 L203.4 -212.6 L204.4 -212.6 L205.4 -212.6 L206.4 -212.5 L207.4 -212.5 L208.4 -212.5 L209.4 -212.5 L210.4 -212.5 L211.4 -212.5 L212.4 -212.5 L212.4 -211.5 L212.4 -210.5 L212.4 -209.5 L212.4 -208.5 L212.4 -207.5 L212.3 -206.6 L212.3 -205.6 L212.3 -204.6 L212.3 -203.6 L212.3 -202.6 L212.3 -201.6 L212.3 -200.6 L212.3 -199.6 L212.3 -198.6 L212.3 -197.6 L212.3 -196.6 L212.3 -195.6 L212.3 -194.6 L212.3 -193.6 L212.3 -192.6 L212.3 -191.6 L212.3 -190.6 L212.3 -189.6 L212.3 -188.6 L212.3 -187.6 L211.3 -187.6 L210.3 -187.6 L209.3 -187.6 L208.3 -187.6 L207.3 -187.6 L206.3 -187.7 L205.3 -187.7 L204.3 -187.7 L203.3 -187.7 L202.3 -187.7 L201.3 -187.7 L200.3 -187.7 L199.3 -187.7 L198.3 -187.7 L197.3 -187.7 L196.3 -187.7 L195.4 -187.7 L194.4 -187.7 L193.4 -187.7 L192.4 -187.7 L191.4 -187.7 L190.4 -187.7 L189.4 -187.7 L188.4 -187.7 L187.4 -187.7 L187.4 -188.7 L187.4 -189.7 L187.4 -190.7 L187.4 -191.7 L187.4 -192.7 L187.4 -193.7 L187.4 -194.7 L187.4 -195.7 L187.4 -196.7 L187.4 -197.7 L187.4 -198.7 L187.4 -199.7 L187.4 -200.7 L187.4 -201.7 L187.4 -202.7 L187.4 -203.6 L187.4 -204.6 L187.4 -205.6 L187.5 -206.6 L187.5 -207.6 L187.5 -208.6 L187.5 -209.6 L187.5 -210.6 L187.5 -211.6 L187.5 -212.6 Z " />
<path stroke="rgb(0,0,0)" stroke-opacity="1" fill="rgb(255,255,255)" fill-opacity="1" d="M-295 -13.46 L-293.9 -13.04 L-292.9 -12.54 L-291.9 -11.95 L-291 -11.29 L-290.1 -10.56 L-289.3 -9.761 L-288.5 -8.898 L-287.8 -7.978 L-287.2 -7.006 L-286.7 -5.989 L-286.3 -4.933 L-285.9 -3.845 L-285.6 -2.731 L-285.4 -1.599 L-285.3 -0.4556 L-285.3 0.6915 L-285.4 1.835 L-285.6 2.969 L-285.9 4.084 L-286.2 5.175 L-286.7 6.235 L-287.2 7.256 L-287.8 8.232 L-288.5 9.157 L-289.2 10.03 L-290 10.83 L-290.9 11.57 L-291.8 12.24 L-292.8 12.83 L-293.8 13.34 L-294.9 13.76 L-296 14.11 L-297.1 14.36 L-298.3 14.52 L-299.4 14.59 L-300.6 14.58 L-301.7 14.47 L-302.8 14.27 L-303.9 13.98 L-305 13.6 L-306.1 13.14 L-307.1 12.6 L-308 11.97 L-309 11.28 L-309.8 10.51 L-310.6 9.678 L-311.3 8.785 L-312 7.839 L-312.5 6.843 L-313 5.806 L-313.4 4.733 L-313.8 3.631 L-314 2.507 L-314.1 1.369 L-314.2 0.2228 L-314.1 -0.9236 L-314 -2.063 L-313.8 -3.189 L-313.5 -4.293 L-313.1 -5.369 L-312.6 -6.41 L-312 -7.409 L-311.4 -8.36 L-310.7 -9.258 L-309.9 -10.1 L-309 -10.87 L-308.1 -11.57 L-307.2 -12.2 L-306.2 -12.75 L-305.1 -13.22 L-304 -13.6 L-302.9 -13.9 L-301.8 -14.11 L-300.7 -14.23 L-299.5 -14.26 L-298.4 -14.19 L-297.2 -14.04 L-296.1 -13.79 L-295 -13.46 Z " />
<path stroke="rgb(0,0,0)" stroke-opacity="1" fill="rgb(255,255,255)" fill-opacity="1" d="M-312.5 -112.6 L-311.5 -112.6 L-310.5 -112.6 L-309.5 -112.6 L-308.5 -112.6 L-307.5 -112.6 L-306.6 -112.6 L-305.6 -112.6 L-304.6 -112.6 L-303.6 -112.6 L-302.6 -112.6 L-301.6 -112.6 L-300.6 -112.6 L-299.6 -112.6 L-298.6 -112.6 L-297.6 -112.6 L-296.6 -112.6 L-295.6 -112.6 L-294.6 -112.6 L-293.6 -112.5 L-292.6 -112.5 L-291.6 -112.5 L-290.6 -112.5 L-289.6 -112.5 L-288.6 -112.5 L-287.6 -112.5 L-287.6 -111.5 L-287.6 -110.5 L-287.6 -109.5 L-287.6 -108.5 L-287.6 -107.5 L-287.7 -106.6 L-287.7 -105.6 L-287.7 -104.6 L-287.7 -103.6 L-287.7 -102.6 L-287.7 -101.6 L-287.7 -100.6 L-287.7 -99.58 L-287.7 -98.59 L-287.7 -97.59 L-287.7 -96.59 L-287.7 -95.6 L-287.7 -94.6 L-287.7 -93.61 L-287.7 -92.61 L-287.7 -91.61 L-287.7 -90.62 L-287.7 -89.62 L-287.7 -88.63 L-287.7 -87.63 L-288.7 -87.63 L-289.7 -87.64 L-290.7 -87.64 L-291.7 -87.64 L-292.7 -87.65 L-293.7 -87.65 L-294.7 -87.66 L-295.7 -87.66 L-296.7 -87.66 L-297.7 -87.67 L-298.7 -87.67 L-299.7 -87.67 L-300.7 -87.68 L-301.7 -87.68 L-302.7 -87.68 L-303.7 -87.69 L-304.6 -87.69 L-305.6 -87.69 L-306.6 -87.7 L-307.6 -87.7 L-308.6 -87.7 L-309.6 -87.71 L-310.6 -87.71 L-311.6 -87.71 L-312.6 -87.72 L-312.6 -88.71 L-312.6 -89.71 L-312.6 -90.7 L-312.6 -91.7 L-312.6 -92.7 L-312.6 -93.69 L-312.6 -94.69 L-312.6 -95.68 L-312.6 -96.68 L-312.6 -97.67 L-312.6 -98.67 L-312.6 -99.67 L-312.6 -100.7 L-312.6 -101.7 L-312.6 -102.7 L-312.6 -103.6 L-312.6 -104.6 L-312.6 -105.6 L-312.5 -106.6 L-312.5 -107.6 L-312.5 -108.6 L-312.5 -109.6 L-312.5 -110.6 L-312.5 -111.6 L-312.5 -112.6 Z " />
<path stroke="rgb(0,0,0)" stroke-opacity="1" fill="rgb(255,255,255)" fill-opacity="1" d="M-79.55 -6.875 L-79.06 -5.232 L-78.7 -3.556 L-78.48 -1.857 L-78.39 -0.1455 L-78.44 1.567 L-78.63 3.271 L-78.95 4.954 L-79.4 6.607 L-79.98 8.218 L-80.69 9.778 L-81.52 11.28 L-82.47 12.71 L-83.53 14.05 L-84.69 15.31 L-85.95 16.48 L-87.29 17.54 L-88.72 18.49 L-90.22 19.32 L-91.78 20.03 L-93.39 20.62 L-95.04 21.07 L-96.72 21.4 L-98.43 21.59 L-100.1 21.64 L-101.9 21.55 L-103.5 21.33 L-105.2 20.98 L-106.9 20.5 L-108.5 19.88 L-110 19.14 L-111.5 18.28 L-112.9 17.3 L-114.2 16.22 L-115.5 15.03 L-116.6 13.75 L-117.6 12.39 L-118.6 10.94 L-119.4 9.427 L-120 7.854 L-120.6 6.232 L-121 4.572 L-121.3 2.883 L-121.5 1.176 L-121.5 -0.5374 L-121.4 -2.247 L-121.1 -3.942 L-120.7 -5.611 L-120.2 -7.245 L-119.6 -8.831 L-118.8 -10.36 L-117.9 -11.83 L-116.9 -13.22 L-115.8 -14.52 L-114.6 -15.73 L-113.3 -16.85 L-111.9 -17.85 L-110.4 -18.74 L-108.9 -19.52 L-107.3 -20.17 L-105.7 -20.69 L-104 -21.08 L-102.3 -21.33 L-100.6 -21.45 L-98.89 -21.44 L-97.18 -21.29 L-95.49 -21 L-93.83 -20.58 L-92.21 -20.03 L-90.64 -19.35 L-89.12 -18.55 L-87.67 -17.63 L-86.31 -16.6 L-85.02 -15.46 L-83.83 -14.23 L-82.75 -12.91 L-81.77 -11.5 L-80.91 -10.02 L-80.16 -8.473 L-79.55 -6.875 Z " />
<path stroke="rgb(0,0,0)" stroke-opacity="1" fill="rgb(255,255,255)" fill-opacity="1" d="M-112.5 -112.6 L-111.5 -112.6 L-110.5 -112.6 L-109.5 -112.6 L-108.5 -112.6 L-107.5 -112.6 L-106.6 -112.6 L-105.6 -112.6 L-104.6 -112.6 L-103.6 -112.6 L-102.6 -112.6 L-101.6 -112.6 L-100.6 -112.6 L-99.58 -112.6 L-98.59 -112.6 L-97.59 -112.6 L-96.59 -112.6 L-95.6 -112.6 L-94.6 -112.6 L-93.61 -112.5 L-92.61 -112.5 L-91.62 -112.5 L-90.62 -112.5 L-89.62 -112.5 L-88.63 -112.5 L-87.63 -112.5 L-87.64 -111.5 L-87.64 -110.5 L-87.64 -109.5 L-87.65 -108.5 L-87.65 -107.5 L-87.65 -106.6 L-87.66 -105.6 L-87.66 -104.6 L-87.66 -103.6 L-87.67 -102.6 L-87.67 -101.6 L-87.67 -100.6 L-87.68 -99.58 L-87.68 -98.59 L-87.68 -97.59 L-87.69 -96.59 L-87.69 -95.6 L-87.69 -94.6 L-87.7 -93.61 L-87.7 -92.61 L-87.7 -91.61 L-87.71 -90.62 L-87.71 -89.62 L-87.71 -88.63 L-87.72 -87.63 L-88.71 -87.63 L-89.71 -87.64 L-90.7 -87.64 L-91.7 -87.64 L-92.7 -87.65 L-93.69 -87.65 L-94.69 -87.66 L-95.68 -87.66 L-96.68 -87.66 L-97.68 -87.67 L-98.67 -87.67 L-99.67 -87.67 L-100.7 -87.68 L-101.7 -87.68 L-102.7 -87.68 L-103.7 -87.69 L-104.6 -87.69 L-105.6 -87.69 L-106.6 -87.7 L-107.6 -87.7 L-108.6 -87.7 L-109.6 -87.71 L-110.6 -87.71 L-111.6 -87.71 L-112.6 -87.72 L-112.6 -88.71 L-112.6 -89.71 L-112.6 -90.7 L-112.6 -91.7 L-112.6 -92.7 L-112.6 -93.69 L-112.6 -94.69 L-112.6 -95.68 L-112.6 -96.68 L-112.6 -97.67 L-112.6 -98.67 L-112.6 -99.67 L-112.6 -100.7 L-112.6 -101.7 L-112.6 -102.7 L-112.6 -103.6 L-112.6 -104.6 L-112.6 -105.6 L-112.5 -106.6 L-112.5 -107.6 L-112.5 -108.6 L-112.5 -109.6 L-112.5 -110.6 L-112.5 -111.6 L-112.5 -112.6 Z " />
<path stroke="rgb(0,0,0)" stroke-opacity="1" fill="rgb(255,255,255)" fill-opacity="1" d="M124.8 -0.247 L124.8 1.725 L124.5 3.687 L124.2 5.625 L123.6 7.527 L123 9.382 L122.2 11.18 L121.2 12.9 L120.1 14.55 L118.9 16.1 L117.6 17.55 L116.1 18.89 L114.6 20.11 L112.9 21.2 L111.2 22.16 L109.4 22.97 L107.5 23.65 L105.6 24.17 L103.7 24.54 L101.7 24.76 L99.76 24.82 L97.79 24.72 L95.83 24.47 L93.9 24.06 L92.01 23.5 L90.17 22.79 L88.39 21.93 L86.68 20.94 L85.06 19.82 L83.54 18.57 L82.11 17.2 L80.8 15.72 L79.61 14.15 L78.55 12.48 L77.63 10.74 L76.85 8.93 L76.21 7.062 L75.73 5.15 L75.39 3.205 L75.22 1.24 L75.2 -0.7334 L75.34 -2.702 L75.63 -4.653 L76.07 -6.575 L76.67 -8.455 L77.42 -10.28 L78.31 -12.04 L79.33 -13.73 L80.49 -15.33 L81.77 -16.83 L83.16 -18.23 L84.67 -19.51 L86.26 -20.66 L87.95 -21.69 L89.71 -22.58 L91.54 -23.32 L93.42 -23.92 L95.34 -24.37 L97.29 -24.66 L99.26 -24.8 L101.2 -24.78 L103.2 -24.61 L105.1 -24.27 L107.1 -23.79 L108.9 -23.15 L110.7 -22.37 L112.5 -21.45 L114.1 -20.39 L115.7 -19.2 L117.2 -17.89 L118.6 -16.47 L119.8 -14.94 L120.9 -13.32 L121.9 -11.62 L122.8 -9.837 L123.5 -7.996 L124.1 -6.105 L124.5 -4.174 L124.7 -2.218 L124.8 -0.247 Z " />
<path stroke="rgb(0,0,0)" stroke-opacity="1" fill="rgb(255,255,255)" fill-opacity="1" d="M87.47 -112.6 L88.47 -112.6 L89.46 -112.6 L90.46 -112.6 L91.46 -112.6 L92.45 -112.6 L93.45 -112.6 L94.44 -112.6 L95.44 -112.6 L96.43 -112.6 L97.43 -112.6 L98.43 -112.6 L99.42 -112.6 L100.4 -112.6 L101.4 -112.6 L102.4 -112.6 L103.4 -112.6 L104.4 -112.6 L105.4 -112.6 L106.4 -112.5 L107.4 -112.5 L108.4 -112.5 L109.4 -112.5 L110.4 -112.5 L111.4 -112.5 L112.4 -112.5 L112.4 -111.5 L112.4 -110.5 L112.4 -109.5 L112.4 -108.5 L112.4 -107.5 L112.3 -106.6 L112.3 -105.6 L112.3 -104.6 L112.3 -103.6 L112.3 -102.6 L112.3 -101.6 L112.3 -100.6 L112.3 -99.58 L112.3 -98.59 L112.3 -97.59 L112.3 -96.59 L112.3 -95.6 L112.3 -94.6 L112.3 -93.61 L112.3 -92.61 L112.3 -91.61 L112.3 -90.62 L112.3 -89.62 L112.3 -88.63 L112.3 -87.63 L111.3 -87.63 L110.3 -87.64 L109.3 -87.64 L108.3 -87.64 L107.3 -87.65 L106.3 -87.65 L105.3 -87.66 L104.3 -87.66 L103.3 -87.66 L102.3 -87.67 L101.3 -87.67 L100.3 -87.67 L99.34 -87.68 L98.34 -87.68 L97.35 -87.68 L96.35 -87.69 L95.35 -87.69 L94.36 -87.69 L93.36 -87.7 L92.37 -87.7 L91.37 -87.7 L90.37 -87.71 L89.38 -87.71 L88.38 -87.71 L87.39 -87.72 L87.39 -88.71 L87.39 -89.71 L87.4 -90.7 L87.4 -91.7 L87.4 -92.7 L87.41 -93.69 L87.41 -94.69 L87.41 -95.68 L87.42 -96.68 L87.42 -97.67 L87.42 -98.67 L87.43 -99.67 L87.43 -100.7 L87.43 -101.7 L87.44 -102.7 L87.44 -103.6 L87.44 -104.6 L87.45 -105.6 L87.45 -106.6 L87.45 -107.6 L87.46 -108.6 L87.46 -109.6 L87.47 -110.6 L87.47 -111.6 L87.47 -112.6 Z " />
<path stroke="rgb(0,0,0)" stroke-opacity="1" fill="rgb(255,255,255)" fill-opacity="1" d="M325 0.05379 L324.9 2.036 L324.6 4.005 L324.2 5.949 L323.7 7.855 L323 9.712 L322.1 11.51 L321.2 13.23 L320 14.87 L318.8 16.41 L317.4 17.85 L316 19.18 L314.4 20.39 L312.7 21.47 L311 22.41 L309.2 23.21 L307.3 23.86 L305.4 24.37 L303.4 24.72 L301.4 24.91 L299.5 24.94 L297.5 24.82 L295.5 24.54 L293.6 24.11 L291.7 23.52 L289.8 22.78 L288.1 21.9 L286.4 20.89 L284.7 19.74 L283.2 18.46 L281.8 17.07 L280.5 15.57 L279.3 13.97 L278.3 12.28 L277.4 10.52 L276.6 8.689 L276 6.803 L275.5 4.874 L275.2 2.915 L275.1 0.9368 L275.1 -1.047 L275.2 -3.024 L275.6 -4.982 L276 -6.909 L276.7 -8.792 L277.4 -10.62 L278.3 -12.38 L279.4 -14.06 L280.6 -15.65 L281.9 -17.15 L283.3 -18.53 L284.8 -19.8 L286.4 -20.95 L288.2 -21.96 L289.9 -22.83 L291.8 -23.56 L293.7 -24.14 L295.6 -24.56 L297.6 -24.83 L299.6 -24.95 L301.5 -24.9 L303.5 -24.7 L305.5 -24.34 L307.4 -23.83 L309.3 -23.17 L311.1 -22.36 L312.8 -21.41 L314.5 -20.33 L316 -19.11 L317.5 -17.78 L318.9 -16.33 L320.1 -14.78 L321.2 -13.14 L322.2 -11.41 L323 -9.613 L323.7 -7.753 L324.3 -5.845 L324.6 -3.899 L324.9 -1.929 L325 0.05379 Z " />
<path stroke="rgb(0,0,0)" stroke-opacity="1" fill="rgb(255,255,255)" fill-opacity="1" d="M-412.5 -12.61 L-411.5 -12.61 L-410.5 -12.61 L-409.5 -12.6 L-408.5 -12.6 L-407.5 -12.6 L-406.6 -12.59 L-405.6 -12.59 L-404.6 -12.58 L-403.6 -12.58 L-402.6 -12.58 L-401.6 -12.57 L-400.6 -12.57 L-399.6 -12.57 L-398.6 -12.56 L-397.6 -12.56 L-396.6 -12.56 L-395.6 -12.55 L-394.6 -12.55 L-393.6 -12.55 L-392.6 -12.54 L-391.6 -12.54 L-390.6 -12.54 L-389.6 -12.53 L-388.6 -12.53 L-387.6 -12.53 L-387.6 -11.53 L-387.6 -10.54 L-387.6 -9.54 L-387.6 -8.544 L-387.6 -7.548 L-387.7 -6.552 L-387.7 -5.556 L-387.7 -4.56 L-387.7 -3.565 L-387.7 -2.569 L-387.7 -1.573 L-387.7 -0.5771 L-387.7 0.4187 L-387.7 1.415 L-387.7 2.41 L-387.7 3.406 L-387.7 4.402 L-387.7 5.398 L-387.7 6.394 L-387.7 7.39 L-387.7 8.385 L-387.7 9.381 L-387.7 10.38 L-387.7 11.37 L-387.7 12.37 L-388.7 12.37 L-389.7 12.36 L-390.7 12.36 L-391.7 12.36 L-392.7 12.35 L-393.7 12.35 L-394.7 12.34 L-395.7 12.34 L-396.7 12.34 L-397.7 12.33 L-398.7 12.33 L-399.7 12.33 L-400.7 12.32 L-401.7 12.32 L-402.7 12.32 L-403.7 12.31 L-404.6 12.31 L-405.6 12.31 L-406.6 12.3 L-407.6 12.3 L-408.6 12.3 L-409.6 12.29 L-410.6 12.29 L-411.6 12.29 L-412.6 12.28 L-412.6 11.29 L-412.6 10.29 L-412.6 9.296 L-412.6 8.3 L-412.6 7.305 L-412.6 6.309 L-412.6 5.313 L-412.6 4.317 L-412.6 3.321 L-412.6 2.325 L-412.6 1.33 L-412.6 0.3337 L-412.6 -0.6621 L-412.6 -1.658 L-412.6 -2.654 L-412.6 -3.65 L-412.6 -4.645 L-412.6 -5.641 L-412.5 -6.637 L-412.5 -7.633 L-412.5 -8.629 L-412.5 -9.625 L-412.5 -10.62 L-412.5 -11.62 L-412.5 -12.61 Z " />
<path stroke="rgb(0,0,0)" stroke-opacity="1" fill="rgb(255,255,255)" fill-opacity="1" d="M-179.5 93.13 L-179.1 94.77 L-178.7 96.44 L-178.5 98.14 L-178.4 99.85 L-178.4 101.6 L-178.6 103.3 L-178.9 105 L-179.4 106.6 L-180 108.2 L-180.7 109.8 L-181.5 111.3 L-182.5 112.7 L-183.5 114.1 L-184.7 115.3 L-185.9 116.5 L-187.3 117.5 L-188.7 118.5 L-190.2 119.3 L-191.8 120 L-193.4 120.6 L-195 121.1 L-196.7 121.4 L-198.4 121.6 L-200.1 121.6 L-201.9 121.6 L-203.5 121.3 L-205.2 121 L-206.9 120.5 L-208.5 119.9 L-210 119.1 L-211.5 118.3 L-212.9 117.3 L-214.2 116.2 L-215.5 115 L-216.6 113.8 L-217.6 112.4 L-218.6 110.9 L-219.4 109.4 L-220 107.9 L-220.6 106.2 L-221 104.6 L-221.3 102.9 L-221.5 101.2 L-221.5 99.46 L-221.4 97.75 L-221.1 96.06 L-220.7 94.39 L-220.2 92.76 L-219.6 91.17 L-218.8 89.64 L-217.9 88.17 L-216.9 86.78 L-215.8 85.48 L-214.6 84.27 L-213.3 83.15 L-211.9 82.15 L-210.4 81.26 L-208.9 80.48 L-207.3 79.83 L-205.7 79.31 L-204 78.92 L-202.3 78.67 L-200.6 78.55 L-198.9 78.56 L-197.2 78.71 L-195.5 79 L-193.8 79.42 L-192.2 79.97 L-190.6 80.65 L-189.1 81.45 L-187.7 82.37 L-186.3 83.4 L-185 84.54 L-183.8 85.77 L-182.7 87.09 L-181.8 88.5 L-180.9 89.98 L-180.2 91.53 L-179.5 93.13 Z " />
<path stroke="rgb(0,0,0)" stroke-opacity="1" fill="rgb(255,255,255)" fill-opacity="1" d="M-212.5 -12.61 L-211.5 -12.61 L-210.5 -12.61 L-209.5 -12.6 L-208.5 -12.6 L-207.5 -12.6 L-206.6 -12.59 L-205.6 -12.59 L-204.6 -12.58 L-203.6 -12.58 L-202.6 -12.58 L-201.6 -12.57 L-200.6 -12.57 L-199.6 -12.57 L-198.6 -12.56 L-197.6 -12.56 L-196.6 -12.56 L-195.6 -12.55 L-194.6 -12.55 L-193.6 -12.55 L-192.6 -12.54 L-191.6 -12.54 L-190.6 -12.54 L-189.6 -12.53 L-188.6 -12.53 L-187.6 -12.53 L-187.6 -11.53 L-187.6 -10.54 L-187.6 -9.54 L-187.6 -8.544 L-187.6 -7.548 L-187.7 -6.552 L-187.7 -5.556 L-187.7 -4.56 L-187.7 -3.565 L-187.7 -2.569 L-187.7 -1.573 L-187.7 -0.5771 L-187.7 0.4187 L-187.7 1.415 L-187.7 2.41 L-187.7 3.406 L-187.7 4.402 L-187.7 5.398 L-187.7 6.394 L-187.7 7.39 L-187.7 8.385 L-187.7 9.381 L-187.7 10.38 L-187.7 11.37 L-187.7 12.37 L-188.7 12.37 L-189.7 12.36 L-190.7 12.36 L-191.7 12.36 L-192.7 12.35 L-193.7 12.35 L-194.7 12.34 L-195.7 12.34 L-196.7 12.34 L-197.7 12.33 L-198.7 12.33 L-199.7 12.33 L-200.7 12.32 L-201.7 12.32 L-202.7 12.32 L-203.7 12.31 L-204.6 12.31 L-205.6 12.31 L-206.6 12.3 L-207.6 12.3 L-208.6 12.3 L-209.6 12.29 L-210.6 12.29 L-211.6 12.29 L-212.6 12.28 L-212.6 11.29 L-212.6 10.29 L-212.6 9.296 L-212.6 8.3 L-212.6 7.305 L-212.6 6.309 L-212.6 5.313 L-212.6 4.317 L-212.6 3.321 L-212.6 2.325 L-212.6 1.33 L-212.6 0.3337 L-212.6 -0.6621 L-212.6 -1.658 L-212.6 -2.654 L-212.6 -3.65 L-212.6 -4.645 L-212.6 -5.641 L-212.5 -6.637 L-212.5 -7.633 L-212.5 -8.629 L-212.5 -9.625 L-212.5 -10.62 L-212.5 -11.62 L-212.5 -12.61 Z " />
<path stroke="rgb(0,0,0)" stroke-opacity="1" fill="rgb(255,255,255)" fill-opacity="1" d="M24.82 99.75 L24.76 101.7 L24.54 103.7 L24.17 105.6 L23.65 107.5 L22.98 109.4 L22.16 111.2 L21.2 112.9 L20.11 114.5 L18.89 116.1 L17.55 117.5 L16.1 118.9 L14.55 120.1 L12.91 121.2 L11.18 122.2 L9.388 123 L7.533 123.6 L5.631 124.2 L3.693 124.5 L1.731 124.8 L-0.2409 124.8 L-2.212 124.7 L-4.168 124.5 L-6.099 124.1 L-7.99 123.5 L-9.832 122.8 L-11.61 121.9 L-13.32 120.9 L-14.94 119.8 L-16.46 118.6 L-17.89 117.2 L-19.2 115.7 L-20.39 114.1 L-21.45 112.5 L-22.37 110.7 L-23.15 108.9 L-23.79 107.1 L-24.27 105.1 L-24.61 103.2 L-24.78 101.2 L-24.8 99.27 L-24.66 97.3 L-24.37 95.35 L-23.93 93.43 L-23.33 91.54 L-22.58 89.72 L-21.69 87.96 L-20.67 86.27 L-19.51 84.67 L-18.23 83.17 L-16.84 81.77 L-15.33 80.49 L-13.74 79.34 L-12.05 78.31 L-10.29 77.42 L-8.462 76.68 L-6.582 76.08 L-4.661 75.63 L-2.709 75.34 L-0.7411 75.2 L1.232 75.22 L3.197 75.39 L5.142 75.73 L7.055 76.21 L8.923 76.85 L10.73 77.63 L12.48 78.55 L14.14 79.61 L15.72 80.8 L17.19 82.11 L18.56 83.53 L19.81 85.06 L20.94 86.68 L21.93 88.38 L22.78 90.16 L23.49 92 L24.05 93.9 L24.46 95.83 L24.72 97.78 L24.82 99.75 Z " />
<path stroke="rgb(0,0,0)" stroke-opacity="1" fill="rgb(255,255,255)" fill-opacity="1" d="M-12.53 -12.61 L-11.53 -12.61 L-10.54 -12.61 L-9.54 -12.6 L-8.545 -12.6 L-7.549 -12.6 L-6.553 -12.59 L-5.557 -12.59 L-4.561 -12.58 L-3.565 -12.58 L-2.57 -12.58 L-1.574 -12.57 L-0.5779 -12.57 L0.4179 -12.57 L1.414 -12.56 L2.41 -12.56 L3.405 -12.56 L4.401 -12.55 L5.397 -12.55 L6.393 -12.55 L7.389 -12.54 L8.385 -12.54 L9.38 -12.54 L10.38 -12.53 L11.37 -12.53 L12.37 -12.53 L12.36 -11.53 L12.36 -10.54 L12.36 -9.54 L12.35 -8.544 L12.35 -7.548 L12.35 -6.552 L12.34 -5.556 L12.34 -4.56 L12.34 -3.565 L12.33 -2.569 L12.33 -1.573 L12.33 -0.5771 L12.32 0.4187 L12.32 1.415 L12.32 2.41 L12.31 3.406 L12.31 4.402 L12.31 5.398 L12.3 6.394 L12.3 7.39 L12.3 8.385 L12.29 9.381 L12.29 10.38 L12.29 11.37 L12.28 12.37 L11.29 12.37 L10.29 12.36 L9.295 12.36 L8.3 12.36 L7.304 12.35 L6.308 12.35 L5.312 12.34 L4.316 12.34 L3.32 12.34 L2.325 12.33 L1.329 12.33 L0.3329 12.33 L-0.663 12.32 L-1.659 12.32 L-2.655 12.32 L-3.65 12.31 L-4.646 12.31 L-5.642 12.31 L-6.638 12.3 L-7.634 12.3 L-8.63 12.3 L-9.626 12.29 L-10.62 12.29 L-11.62 12.29 L-12.61 12.28 L-12.61 11.29 L-12.61 10.29 L-12.6 9.296 L-12.6 8.3 L-12.6 7.305 L-12.59 6.309 L-12.59 5.313 L-12.59 4.317 L-12.58 3.321 L-12.58 2.325 L-12.58 1.33 L-12.57 0.3337 L-12.57 -0.6621 L-12.57 -1.658 L-12.56 -2.654 L-12.56 -3.65 L-12.56 -4.645 L-12.55 -5.641 L-12.55 -6.637 L-12.55 -7.633 L-12.54 -8.629 L-12.54 -9.625 L-12.53 -10.62 L-12.53 -11.62 L-12.53 -12.61 Z " />
<path stroke="rgb(0,0,0)" stroke-opacity="1" fill="rgb(255,255,255)" fill-opacity="1" d="M225 100.1 L224.9 102 L224.6 104 L224.2 105.9 L223.7 107.9 L223 109.7 L222.1 111.5 L221.2 113.2 L220 114.9 L218.8 116.4 L217.4 117.9 L216 119.2 L214.4 120.4 L212.7 121.5 L211 122.4 L209.2 123.2 L207.3 123.9 L205.4 124.4 L203.4 124.7 L201.4 124.9 L199.5 124.9 L197.5 124.8 L195.5 124.5 L193.6 124.1 L191.7 123.5 L189.8 122.8 L188.1 121.9 L186.4 120.9 L184.7 119.7 L183.2 118.5 L181.8 117.1 L180.5 115.6 L179.3 114 L178.3 112.3 L177.4 110.5 L176.6 108.7 L176 106.8 L175.5 104.9 L175.2 102.9 L175.1 100.9 L175.1 98.95 L175.2 96.98 L175.6 95.02 L176 93.09 L176.7 91.21 L177.4 89.38 L178.3 87.62 L179.4 85.94 L180.6 84.35 L181.9 82.85 L183.3 81.47 L184.8 80.2 L186.4 79.05 L188.2 78.04 L189.9 77.17 L191.8 76.44 L193.7 75.86 L195.6 75.44 L197.6 75.17 L199.6 75.05 L201.5 75.1 L203.5 75.3 L205.5 75.66 L207.4 76.17 L209.3 76.83 L211.1 77.64 L212.8 78.59 L214.5 79.67 L216 80.89 L217.5 82.22 L218.9 83.67 L220.1 85.22 L221.2 86.86 L222.2 88.59 L223 90.39 L223.7 92.25 L224.3 94.16 L224.6 96.1 L224.9 98.07 L225 100.1 Z " />
<path stroke="rgb(0,0,0)" stroke-opacity="1" fill="rgb(255,255,255)" fill-opacity="1" d="M187.5 -12.61 L188.5 -12.61 L189.5 -12.61 L190.5 -12.6 L191.5 -12.6 L192.5 -12.6 L193.4 -12.59 L194.4 -12.59 L195.4 -12.58 L196.4 -12.58 L197.4 -12.58 L198.4 -12.57 L199.4 -12.57 L200.4 -12.57 L201.4 -12.56 L202.4 -12.56 L203.4 -12.56 L204.4 -12.55 L205.4 -12.55 L206.4 -12.55 L207.4 -12.54 L208.4 -12.54 L209.4 -12.54 L210.4 -12.53 L211.4 -12.53 L212.4 -12.53 L212.4 -11.53 L212.4 -10.54 L212.4 -9.54 L212.4 -8.544 L212.4 -7.548 L212.3 -6.552 L212.3 -5.556 L212.3 -4.56 L212.3 -3.565 L212.3 -2.569 L212.3 -1.573 L212.3 -0.5771 L212.3 0.4187 L212.3 1.415 L212.3 2.41 L212.3 3.406 L212.3 4.402 L212.3 5.398 L212.3 6.394 L212.3 7.39 L212.3 8.385 L212.3 9.381 L212.3 10.38 L212.3 11.37 L212.3 12.37 L211.3 12.37 L210.3 12.36 L209.3 12.36 L208.3 12.36 L207.3 12.35 L206.3 12.35 L205.3 12.34 L204.3 12.34 L203.3 12.34 L202.3 12.33 L201.3 12.33 L200.3 12.33 L199.3 12.32 L198.3 12.32 L197.3 12.32 L196.3 12.31 L195.4 12.31 L194.4 12.31 L193.4 12.3 L192.4 12.3 L191.4 12.3 L190.4 12.29 L189.4 12.29 L188.4 12.29 L187.4 12.28 L187.4 11.29 L187.4 10.29 L187.4 9.296 L187.4 8.3 L187.4 7.305 L187.4 6.309 L187.4 5.313 L187.4 4.317 L187.4 3.321 L187.4 2.325 L187.4 1.33 L187.4 0.3337 L187.4 -0.6621 L187.4 -1.658 L187.4 -2.654 L187.4 -3.65 L187.4 -4.645 L187.4 -5.641 L187.5 -6.637 L187.5 -7.633 L187.5 -8.629 L187.5 -9.625 L187.5 -10.62 L187.5 -11.62 L187.5 -12.61 Z " />
<path stroke="rgb(0,0,0)" stroke-opacity="1" fill="rgb(255,255,255)" fill-opacity="1" d="M-279.5 193.1 L-279.1 194.8 L-278.7 196.4 L-278.5 198.1 L-278.4 199.9 L-278.4 201.6 L-278.6 203.3 L-278.9 205 L-279.4 206.6 L-280 208.2 L-280.7 209.8 L-281.5 211.3 L-282.5 212.7 L-283.5 214.1 L-284.7 215.3 L-285.9 216.5 L-287.3 217.5 L-288.7 218.5 L-290.2 219.3 L-291.8 220 L-293.4 220.6 L-295 221.1 L-296.7 221.4 L-298.4 221.6 L-300.1 221.6 L-301.9 221.6 L-303.5 221.3 L-305.2 221 L-306.9 220.5 L-308.5 219.9 L-310 219.1 L-311.5 218.3 L-312.9 217.3 L-314.2 216.2 L-315.5 215 L-316.6 213.8 L-317.6 212.4 L-318.6 210.9 L-319.4 209.4 L-320 207.9 L-320.6 206.2 L-321 204.6 L-321.3 202.9 L-321.5 201.2 L-321.5 199.5 L-321.4 197.8 L-321.1 196.1 L-320.7 194.4 L-320.2 192.8 L-319.6 191.2 L-318.8 189.6 L-317.9 188.2 L-316.9 186.8 L-315.8 185.5 L-314.6 184.3 L-313.3 183.2 L-311.9 182.1 L-310.4 181.3 L-308.9 180.5 L-307.3 179.8 L-305.7 179.3 L-304 178.9 L-302.3 178.7 L-300.6 178.5 L-298.9 178.6 L-297.2 178.7 L-295.5 179 L-293.8 179.4 L-292.2 180 L-290.6 180.6 L-289.1 181.4 L-287.7 182.4 L-286.3 183.4 L-285 184.5 L-283.8 185.8 L-282.7 187.1 L-281.8 188.5 L-280.9 190 L-280.2 191.5 L-279.5 193.1 Z " />
<path stroke="rgb(0,0,0)" stroke-opacity="1" fill="rgb(255,255,255)" fill-opacity="1" d="M-312.5 87.39 L-311.5 87.39 L-310.5 87.39 L-309.5 87.4 L-308.5 87.4 L-307.5 87.4 L-306.6 87.41 L-305.6 87.41 L-304.6 87.42 L-303.6 87.42 L-302.6 87.42 L-301.6 87.43 L-300.6 87.43 L-299.6 87.43 L-298.6 87.44 L-297.6 87.44 L-296.6 87.44 L-295.6 87.45 L-294.6 87.45 L-293.6 87.45 L-292.6 87.46 L-291.6 87.46 L-290.6 87.46 L-289.6 87.47 L-288.6 87.47 L-287.6 87.47 L-287.6 88.47 L-287.6 89.46 L-287.6 90.46 L-287.6 91.46 L-287.6 92.45 L-287.7 93.45 L-287.7 94.44 L-287.7 95.44 L-287.7 96.44 L-287.7 97.43 L-287.7 98.43 L-287.7 99.42 L-287.7 100.4 L-287.7 101.4 L-287.7 102.4 L-287.7 103.4 L-287.7 104.4 L-287.7 105.4 L-287.7 106.4 L-287.7 107.4 L-287.7 108.4 L-287.7 109.4 L-287.7 110.4 L-287.7 111.4 L-287.7 112.4 L-288.7 112.4 L-289.7 112.4 L-290.7 112.4 L-291.7 112.4 L-292.7 112.4 L-293.7 112.3 L-294.7 112.3 L-295.7 112.3 L-296.7 112.3 L-297.7 112.3 L-298.7 112.3 L-299.7 112.3 L-300.7 112.3 L-301.7 112.3 L-302.7 112.3 L-303.7 112.3 L-304.6 112.3 L-305.6 112.3 L-306.6 112.3 L-307.6 112.3 L-308.6 112.3 L-309.6 112.3 L-310.6 112.3 L-311.6 112.3 L-312.6 112.3 L-312.6 111.3 L-312.6 110.3 L-312.6 109.3 L-312.6 108.3 L-312.6 107.3 L-312.6 106.3 L-312.6 105.3 L-312.6 104.3 L-312.6 103.3 L-312.6 102.3 L-312.6 101.3 L-312.6 100.3 L-312.6 99.34 L-312.6 98.34 L-312.6 97.35 L-312.6 96.35 L-312.6 95.35 L-312.6 94.36 L-312.5 93.36 L-312.5 92.37 L-312.5 91.37 L-312.5 90.38 L-312.5 89.38 L-312.5 88.38 L-312.5 87.39 Z " />
<path stroke="rgb(0,0,0)" stroke-opacity="1" fill="rgb(255,255,255)" fill-opacity="1" d="M-75.18 199.8 L-75.24 201.7 L-75.46 203.7 L-75.83 205.6 L-76.35 207.5 L-77.02 209.4 L-77.84 211.2 L-78.8 212.9 L-79.89 214.5 L-81.11 216.1 L-82.45 217.5 L-83.9 218.9 L-85.45 220.1 L-87.09 221.2 L-88.82 222.2 L-90.61 223 L-92.47 223.6 L-94.37 224.2 L-96.31 224.5 L-98.27 224.8 L-100.2 224.8 L-102.2 224.7 L-104.2 224.5 L-106.1 224.1 L-108 223.5 L-109.8 222.8 L-111.6 221.9 L-113.3 220.9 L-114.9 219.8 L-116.5 218.6 L-117.9 217.2 L-119.2 215.7 L-120.4 214.1 L-121.4 212.5 L-122.4 210.7 L-123.2 208.9 L-123.8 207.1 L-124.3 205.1 L-124.6 203.2 L-124.8 201.2 L-124.8 199.3 L-124.7 197.3 L-124.4 195.3 L-123.9 193.4 L-123.3 191.5 L-122.6 189.7 L-121.7 188 L-120.7 186.3 L-119.5 184.7 L-118.2 183.2 L-116.8 181.8 L-115.3 180.5 L-113.7 179.3 L-112.1 178.3 L-110.3 177.4 L-108.5 176.7 L-106.6 176.1 L-104.7 175.6 L-102.7 175.3 L-100.7 175.2 L-98.77 175.2 L-96.8 175.4 L-94.86 175.7 L-92.95 176.2 L-91.08 176.8 L-89.27 177.6 L-87.52 178.6 L-85.86 179.6 L-84.28 180.8 L-82.81 182.1 L-81.44 183.5 L-80.19 185.1 L-79.06 186.7 L-78.07 188.4 L-77.22 190.2 L-76.51 192 L-75.95 193.9 L-75.54 195.8 L-75.28 197.8 L-75.18 199.8 Z " />
<path stroke="rgb(0,0,0)" stroke-opacity="1" fill="rgb(255,255,255)" fill-opacity="1" d="M-112.5 87.39 L-111.5 87.39 L-110.5 87.39 L-109.5 87.4 L-108.5 87.4 L-107.5 87.4 L-106.6 87.41 L-105.6 87.41 L-104.6 87.42 L-103.6 87.42 L-102.6 87.42 L-101.6 87.43 L-100.6 87.43 L-99.58 87.43 L-98.59 87.44 L-97.59 87.44 L-96.59 87.44 L-95.6 87.45 L-94.6 87.45 L-93.61 87.45 L-92.61 87.46 L-91.62 87.46 L-90.62 87.46 L-89.62 87.47 L-88.63 87.47 L-87.63 87.47 L-87.64 88.47 L-87.64 89.46 L-87.64 90.46 L-87.65 91.46 L-87.65 92.45 L-87.65 93.45 L-87.66 94.44 L-87.66 95.44 L-87.66 96.44 L-87.67 97.43 L-87.67 98.43 L-87.67 99.42 L-87.68 100.4 L-87.68 101.4 L-87.68 102.4 L-87.69 103.4 L-87.69 104.4 L-87.69 105.4 L-87.7 106.4 L-87.7 107.4 L-87.7 108.4 L-87.71 109.4 L-87.71 110.4 L-87.71 111.4 L-87.72 112.4 L-88.71 112.4 L-89.71 112.4 L-90.7 112.4 L-91.7 112.4 L-92.7 112.4 L-93.69 112.3 L-94.69 112.3 L-95.68 112.3 L-96.68 112.3 L-97.68 112.3 L-98.67 112.3 L-99.67 112.3 L-100.7 112.3 L-101.7 112.3 L-102.7 112.3 L-103.7 112.3 L-104.6 112.3 L-105.6 112.3 L-106.6 112.3 L-107.6 112.3 L-108.6 112.3 L-109.6 112.3 L-110.6 112.3 L-111.6 112.3 L-112.6 112.3 L-112.6 111.3 L-112.6 110.3 L-112.6 109.3 L-112.6 108.3 L-112.6 107.3 L-112.6 106.3 L-112.6 105.3 L-112.6 104.3 L-112.6 103.3 L-112.6 102.3 L-112.6 101.3 L-112.6 100.3 L-112.6 99.34 L-112.6 98.34 L-112.6 97.35 L-112.6 96.35 L-112.6 95.35 L-112.6 94.36 L-112.5 93.36 L-112.5 92.37 L-112.5 91.37 L-112.5 90.38 L-112.5 89.38 L-112.5 88.38 L-112.5 87.39 Z " />
<path stroke="rgb(0,0,0)" stroke-opacity="1" fill="rgb(255,255,255)" fill-opacity="1" d="M125 200.1 L124.9 202 L124.6 204 L124.2 205.9 L123.7 207.9 L123 209.7 L122.1 211.5 L121.2 213.2 L120 214.9 L118.8 216.4 L117.4 217.9 L116 219.2 L114.4 220.4 L112.7 221.5 L111 222.4 L109.2 223.2 L107.3 223.9 L105.4 224.4 L103.4 224.7 L101.4 224.9 L99.45 224.9 L97.47 224.8 L95.51 224.5 L93.57 224.1 L91.68 223.5 L89.83 222.8 L88.05 221.9 L86.35 220.9 L84.74 219.7 L83.22 218.5 L81.8 217.1 L80.5 215.6 L79.33 214 L78.28 212.3 L77.38 210.5 L76.61 208.7 L76 206.8 L75.53 204.9 L75.22 202.9 L75.07 200.9 L75.07 199 L75.23 197 L75.55 195 L76.03 193.1 L76.65 191.2 L77.42 189.4 L78.34 187.6 L79.39 185.9 L80.57 184.3 L81.88 182.9 L83.3 181.5 L84.82 180.2 L86.44 179.1 L88.15 178 L89.93 177.2 L91.78 176.4 L93.68 175.9 L95.61 175.4 L97.58 175.2 L99.56 175.1 L101.5 175.1 L103.5 175.3 L105.5 175.7 L107.4 176.2 L109.3 176.8 L111.1 177.6 L112.8 178.6 L114.5 179.7 L116 180.9 L117.5 182.2 L118.9 183.7 L120.1 185.2 L121.2 186.9 L122.2 188.6 L123 190.4 L123.7 192.2 L124.3 194.2 L124.6 196.1 L124.9 198.1 L125 200.1 Z " />
<path stroke="rgb(0,0,0)" stroke-opacity="1" fill="rgb(255,255,255)" fill-opacity="1" d="M87.47 87.39 L88.47 87.39 L89.46 87.39 L90.46 87.4 L91.46 87.4 L92.45 87.4 L93.45 87.41 L94.44 87.41 L95.44 87.42 L96.43 87.42 L97.43 87.42 L98.43 87.43 L99.42 87.43 L100.4 87.43 L101.4 87.44 L102.4 87.44 L103.4 87.44 L104.4 87.45 L105.4 87.45 L106.4 87.45 L107.4 87.46 L108.4 87.46 L109.4 87.46 L110.4 87.47 L111.4 87.47 L112.4 87.47 L112.4 88.47 L112.4 89.46 L112.4 90.46 L112.4 91.46 L112.4 92.45 L112.3 93.45 L112.3 94.44 L112.3 95.44 L112.3 96.44 L112.3 97.43 L112.3 98.43 L112.3 99.42 L112.3 100.4 L112.3 101.4 L112.3 102.4 L112.3 103.4 L112.3 104.4 L112.3 105.4 L112.3 106.4 L112.3 107.4 L112.3 108.4 L112.3 109.4 L112.3 110.4 L112.3 111.4 L112.3 112.4 L111.3 112.4 L110.3 112.4 L109.3 112.4 L108.3 112.4 L107.3 112.4 L106.3 112.3 L105.3 112.3 L104.3 112.3 L103.3 112.3 L102.3 112.3 L101.3 112.3 L100.3 112.3 L99.34 112.3 L98.34 112.3 L97.35 112.3 L96.35 112.3 L95.35 112.3 L94.36 112.3 L93.36 112.3 L92.37 112.3 L91.37 112.3 L90.37 112.3 L89.38 112.3 L88.38 112.3 L87.39 112.3 L87.39 111.3 L87.39 110.3 L87.4 109.3 L87.4 108.3 L87.4 107.3 L87.41 106.3 L87.41 105.3 L87.41 104.3 L87.42 103.3 L87.42 102.3 L87.42 101.3 L87.43 100.3 L87.43 99.34 L87.43 98.34 L87.44 97.35 L87.44 96.35 L87.44 95.35 L87.45 94.36 L87.45 93.36 L87.45 92.37 L87.46 91.37 L87.46 90.38 L87.47 89.38 L87.47 88.38 L87.47 87.39 Z " />
<path stroke="rgb(0,0,0)" stroke-opacity="1" fill="rgb(255,255,255)" fill-opacity="1" d="M325 200.1 L324.9 202 L324.6 204 L324.2 205.9 L323.7 207.9 L323 209.7 L322.1 211.5 L321.2 213.2 L320 214.9 L318.8 216.4 L317.4 217.9 L316 219.2 L314.4 220.4 L312.7 221.5 L311 222.4 L309.2 223.2 L307.3 223.9 L305.4 224.4 L303.4 224.7 L301.4 224.9 L299.5 224.9 L297.5 224.8 L295.5 224.5 L293.6 224.1 L291.7 223.5 L289.8 222.8 L288.1 221.9 L286.4 220.9 L284.7 219.7 L283.2 218.5 L281.8 217.1 L280.5 215.6 L279.3 214 L278.3 212.3 L277.4 210.5 L276.6 208.7 L276 206.8 L275.5 204.9 L275.2 202.9 L275.1 200.9 L275.1 199 L275.2 197 L275.6 195 L276 193.1 L276.7 191.2 L277.4 189.4 L278.3 187.6 L279.4 185.9 L280.6 184.3 L281.9 182.9 L283.3 181.5 L284.8 180.2 L286.4 179.1 L288.2 178 L289.9 177.2 L291.8 176.4 L293.7 175.9 L295.6 175.4 L297.6 175.2 L299.6 175.1 L301.5 175.1 L303.5 175.3 L305.5 175.7 L307.4 176.2 L309.3 176.8 L311.1 177.6 L312.8 178.6 L314.5 179.7 L316 180.9 L317.5 182.2 L318.9 183.7 L320.1 185.2 L321.2 186.9 L322.2 188.6 L323 190.4 L323.7 192.2 L324.3 194.2 L324.6 196.1 L324.9 198.1 L325 200.1 Z " />
<path stroke="rgb(0,0,0)" stroke-opacity="1" fill="rgb(255,255,255)" fill-opacity="1" d="M-412.5 187.4 L-411.5 187.4 L-410.5 187.4 L-409.5 187.4 L-408.5 187.4 L-407.5 187.4 L-406.6 187.4 L-405.6 187.4 L-404.6 187.4 L-403.6 187.4 L-402.6 187.4 L-401.6 187.4 L-400.6 187.4 L-399.6 187.4 L-398.6 187.4 L-397.6 187.4 L-396.6 187.4 L-395.6 187.4 L-394.6 187.4 L-393.6 187.5 L-392.6 187.5 L-391.6 187.5 L-390.6 187.5 L-389.6 187.5 L-388.6 187.5 L-387.6 187.5 L-387.6 188.5 L-387.6 189.5 L-387.6 190.5 L-387.6 191.5 L-387.6 192.5 L-387.7 193.4 L-387.7 194.4 L-387.7 195.4 L-387.7 196.4 L-387.7 197.4 L-387.7 198.4 L-387.7 199.4 L-387.7 200.4 L-387.7 201.4 L-387.7 202.4 L-387.7 203.4 L-387.7 204.4 L-387.7 205.4 L-387.7 206.4 L-387.7 207.4 L-387.7 208.4 L-387.7 209.4 L-387.7 210.4 L-387.7 211.4 L-387.7 212.4 L-388.7 212.4 L-389.7 212.4 L-390.7 212.4 L-391.7 212.4 L-392.7 212.4 L-393.7 212.3 L-394.7 212.3 L-395.7 212.3 L-396.7 212.3 L-397.7 212.3 L-398.7 212.3 L-399.7 212.3 L-400.7 212.3 L-401.7 212.3 L-402.7 212.3 L-403.7 212.3 L-404.6 212.3 L-405.6 212.3 L-406.6 212.3 L-407.6 212.3 L-408.6 212.3 L-409.6 212.3 L-410.6 212.3 L-411.6 212.3 L-412.6 212.3 L-412.6 211.3 L-412.6 210.3 L-412.6 209.3 L-412.6 208.3 L-412.6 207.3 L-412.6 206.3 L-412.6 205.3 L-412.6 204.3 L-412.6 203.3 L-412.6 202.3 L-412.6 201.3 L-412.6 200.3 L-412.6 199.3 L-412.6 198.3 L-412.6 197.3 L-412.6 196.4 L-412.6 195.4 L-412.6 194.4 L-412.5 193.4 L-412.5 192.4 L-412.5 191.4 L-412.5 190.4 L-412.5 189.4 L-412.5 188.4 L-412.5 187.4 Z " />
<path stroke="rgb(0,0,0)" stroke-opacity="1" fill="rgb(255,255,255)" fill-opacity="1" d="M-175.2 299.8 L-175.2 301.7 L-175.5 303.7 L-175.8 305.6 L-176.4 307.5 L-177 309.4 L-177.8 311.2 L-178.8 312.9 L-179.9 314.5 L-181.1 316.1 L-182.4 317.5 L-183.9 318.9 L-185.4 320.1 L-187.1 321.2 L-188.8 322.2 L-190.6 323 L-192.5 323.6 L-194.4 324.2 L-196.3 324.5 L-198.3 324.8 L-200.2 324.8 L-202.2 324.7 L-204.2 324.5 L-206.1 324.1 L-208 323.5 L-209.8 322.8 L-211.6 321.9 L-213.3 320.9 L-214.9 319.8 L-216.5 318.6 L-217.9 317.2 L-219.2 315.7 L-220.4 314.1 L-221.4 312.5 L-222.4 310.7 L-223.2 308.9 L-223.8 307.1 L-224.3 305.1 L-224.6 303.2 L-224.8 301.2 L-224.8 299.3 L-224.7 297.3 L-224.4 295.3 L-223.9 293.4 L-223.3 291.5 L-222.6 289.7 L-221.7 288 L-220.7 286.3 L-219.5 284.7 L-218.2 283.2 L-216.8 281.8 L-215.3 280.5 L-213.7 279.3 L-212.1 278.3 L-210.3 277.4 L-208.5 276.7 L-206.6 276.1 L-204.7 275.6 L-202.7 275.3 L-200.7 275.2 L-198.8 275.2 L-196.8 275.4 L-194.9 275.7 L-192.9 276.2 L-191.1 276.8 L-189.3 277.6 L-187.5 278.6 L-185.9 279.6 L-184.3 280.8 L-182.8 282.1 L-181.4 283.5 L-180.2 285.1 L-179.1 286.7 L-178.1 288.4 L-177.2 290.2 L-176.5 292 L-175.9 293.9 L-175.5 295.8 L-175.3 297.8 L-175.2 299.8 Z " />
<path stroke="rgb(0,0,0)" stroke-opacity="1" fill="rgb(255,255,255)" fill-opacity="1" d="M-212.5 187.4 L-211.5 187.4 L-210.5 187.4 L-209.5 187.4 L-208.5 187.4 L-207.5 187.4 L-206.6 187.4 L-205.6 187.4 L-204.6 187.4 L-203.6 187.4 L-202.6 187.4 L-201.6 187.4 L-200.6 187.4 L-199.6 187.4 L-198.6 187.4 L-197.6 187.4 L-196.6 187.4 L-195.6 187.4 L-194.6 187.4 L-193.6 187.5 L-192.6 187.5 L-191.6 187.5 L-190.6 187.5 L-189.6 187.5 L-188.6 187.5 L-187.6 187.5 L-187.6 188.5 L-187.6 189.5 L-187.6 190.5 L-187.6 191.5 L-187.6 192.5 L-187.7 193.4 L-187.7 194.4 L-187.7 195.4 L-187.7 196.4 L-187.7 197.4 L-187.7 198.4 L-187.7 199.4 L-187.7 200.4 L-187.7 201.4 L-187.7 202.4 L-187.7 203.4 L-187.7 204.4 L-187.7 205.4 L-187.7 206.4 L-187.7 207.4 L-187.7 208.4 L-187.7 209.4 L-187.7 210.4 L-187.7 211.4 L-187.7 212.4 L-188.7 212.4 L-189.7 212.4 L-190.7 212.4 L-191.7 212.4 L-192.7 212.4 L-193.7 212.3 L-194.7 212.3 L-195.7 212.3 L-196.7 212.3 L-197.7 212.3 L-198.7 212.3 L-199.7 212.3 L-200.7 212.3 L-201.7 212.3 L-202.7 212.3 L-203.7 212.3 L-204.6 212.3 L-205.6 212.3 L-206.6 212.3 L-207.6 212.3 L-208.6 212.3 L-209.6 212.3 L-210.6 212.3 L-211.6 212.3 L-212.6 212.3 L-212.6 211.3 L-212.6 210.3 L-212.6 209.3 L-212.6 208.3 L-212.6 207.3 L-212.6 206.3 L-212.6 205.3 L-212.6 204.3 L-212.6 203.3 L-212.6 202.3 L-212.6 201.3 L-212.6 200.3 L-212.6 199.3 L-212.6 198.3 L-212.6 197.3 L-212.6 196.4 L-212.6 195.4 L-212.6 194.4 L-212.5 193.4 L-212.5 192.4 L-212.5 191.4 L-212.5 190.4 L-212.5 189.4 L-212.5 188.4 L-212.5 187.4 Z " />
<path stroke="rgb(0,0,0)" stroke-opacity="1" fill="rgb(255,255,255)" fill-opacity="1" d="M24.95 300.1 L24.87 302 L24.63 304 L24.23 305.9 L23.68 307.9 L22.98 309.7 L22.14 311.5 L21.15 313.2 L20.04 314.9 L18.79 316.4 L17.43 317.9 L15.95 319.2 L14.38 320.4 L12.71 321.5 L10.97 322.4 L9.153 323.2 L7.28 323.9 L5.361 324.4 L3.408 324.7 L1.434 324.9 L-0.5499 324.9 L-2.53 324.8 L-4.494 324.5 L-6.43 324.1 L-8.325 323.5 L-10.17 322.8 L-11.95 321.9 L-13.65 320.9 L-15.26 319.7 L-16.78 318.5 L-18.2 317.1 L-19.5 315.6 L-20.67 314 L-21.72 312.3 L-22.62 310.5 L-23.39 308.7 L-24 306.8 L-24.47 304.9 L-24.78 302.9 L-24.93 300.9 L-24.93 299 L-24.77 297 L-24.45 295 L-23.97 293.1 L-23.35 291.2 L-22.58 289.4 L-21.66 287.6 L-20.61 285.9 L-19.43 284.3 L-18.12 282.9 L-16.7 281.5 L-15.18 280.2 L-13.56 279.1 L-11.85 278 L-10.07 277.2 L-8.222 276.4 L-6.324 275.9 L-4.387 275.4 L-2.422 275.2 L-0.441 275.1 L1.542 275.1 L3.516 275.3 L5.467 275.7 L7.384 276.2 L9.254 276.8 L11.07 277.6 L12.81 278.6 L14.47 279.7 L16.04 280.9 L17.51 282.2 L18.86 283.7 L20.1 285.2 L21.21 286.9 L22.19 288.6 L23.02 290.4 L23.72 292.2 L24.26 294.2 L24.64 296.1 L24.88 298.1 L24.95 300.1 Z " />
<path stroke="rgb(0,0,0)" stroke-opacity="1" fill="rgb(255,255,255)" fill-opacity="1" d="M-12.53 187.4 L-11.53 187.4 L-10.54 187.4 L-9.54 187.4 L-8.545 187.4 L-7.549 187.4 L-6.553 187.4 L-5.557 187.4 L-4.561 187.4 L-3.565 187.4 L-2.57 187.4 L-1.574 187.4 L-0.5779 187.4 L0.4179 187.4 L1.414 187.4 L2.41 187.4 L3.405 187.4 L4.401 187.4 L5.397 187.4 L6.393 187.5 L7.389 187.5 L8.385 187.5 L9.38 187.5 L10.38 187.5 L11.37 187.5 L12.37 187.5 L12.36 188.5 L12.36 189.5 L12.36 190.5 L12.35 191.5 L12.35 192.5 L12.35 193.4 L12.34 194.4 L12.34 195.4 L12.34 196.4 L12.33 197.4 L12.33 198.4 L12.33 199.4 L12.32 200.4 L12.32 201.4 L12.32 202.4 L12.31 203.4 L12.31 204.4 L12.31 205.4 L12.3 206.4 L12.3 207.4 L12.3 208.4 L12.29 209.4 L12.29 210.4 L12.29 211.4 L12.28 212.4 L11.29 212.4 L10.29 212.4 L9.295 212.4 L8.3 212.4 L7.304 212.4 L6.308 212.3 L5.312 212.3 L4.316 212.3 L3.32 212.3 L2.325 212.3 L1.329 212.3 L0.3329 212.3 L-0.663 212.3 L-1.659 212.3 L-2.655 212.3 L-3.65 212.3 L-4.646 212.3 L-5.642 212.3 L-6.638 212.3 L-7.634 212.3 L-8.63 212.3 L-9.626 212.3 L-10.62 212.3 L-11.62 212.3 L-12.61 212.3 L-12.61 211.3 L-12.61 210.3 L-12.6 209.3 L-12.6 208.3 L-12.6 207.3 L-12.59 206.3 L-12.59 205.3 L-12.59 204.3 L-12.58 203.3 L-12.58 202.3 L-12.58 201.3 L-12.57 200.3 L-12.57 199.3 L-12.57 198.3 L-12.56 197.3 L-12.56 196.4 L-12.56 195.4 L-12.55 194.4 L-12.55 193.4 L-12.55 192.4 L-12.54 191.4 L-12.54 190.4 L-12.53 189.4 L-12.53 188.4 L-12.53 187.4 Z " />
<path stroke="rgb(0,0,0)" stroke-opacity="1" fill="rgb(255,255,255)" fill-opacity="1" d="M225 300.1 L224.9 302 L224.6 304 L224.2 305.9 L223.7 307.9 L223 309.7 L222.1 311.5 L221.2 313.2 L220 314.9 L218.8 316.4 L217.4 317.9 L216 319.2 L214.4 320.4 L212.7 321.5 L211 322.4 L209.2 323.2 L207.3 323.9 L205.4 324.4 L203.4 324.7 L201.4 324.9 L199.5 324.9 L197.5 324.8 L195.5 324.5 L193.6 324.1 L191.7 323.5 L189.8 322.8 L188.1 321.9 L186.4 320.9 L184.7 319.7 L183.2 318.5 L181.8 317.1 L180.5 315.6 L179.3 314 L178.3 312.3 L177.4 310.5 L176.6 308.7 L176 306.8 L175.5 304.9 L175.2 302.9 L175.1 300.9 L175.1 299 L175.2 297 L175.6 295 L176 293.1 L176.7 291.2 L177.4 289.4 L178.3 287.6 L179.4 285.9 L180.6 284.3 L181.9 282.9 L183.3 281.5 L184.8 280.2 L186.4 279.1 L188.2 278 L189.9 277.2 L191.8 276.4 L193.7 275.9 L195.6 275.4 L197.6 275.2 L199.6 275.1 L201.5 275.1 L203.5 275.3 L205.5 275.7 L207.4 276.2 L209.3 276.8 L211.1 277.6 L212.8 278.6 L214.5 279.7 L216 280.9 L217.5 282.2 L218.9 283.7 L220.1 285.2 L221.2 286.9 L222.2 288.6 L223 290.4 L223.7 292.2 L224.3 294.2 L224.6 296.1 L224.9 298.1 L225 300.1 Z " />
<path stroke="rgb(0,0,0)" stroke-opacity="1" fill="rgb(255,255,255)" fill-opacity="1" d="M187.5 187.4 L188.5 187.4 L189.5 187.4 L190.5 187.4 L191.5 187.4 L192.5 187.4 L193.4 187.4 L194.4 187.4 L195.4 187.4 L196.4 187.4 L197.4 187.4 L198.4 187.4 L199.4 187.4 L200.4 187.4 L201.4 187.4 L202.4 187.4 L203.4 187.4 L204.4 187.4 L205.4 187.4 L206.4 187.5 L207.4 187.5 L208.4 187.5 L209.4 187.5 L210.4 187.5 L211.4 187.5 L212.4 187.5 L212.4 188.5 L212.4 189.5 L212.4 190.5 L212.4 191.5 L212.4 192.5 L212.3 193.4 L212.3 194.4 L212.3 195.4 L212.3 196.4 L212.3 197.4 L212.3 198.4 L212.3 199.4 L212.3 200.4 L212.3 201.4 L212.3 202.4 L212.3 203.4 L212.3 204.4 L212.3 205.4 L212.3 206.4 L212.3 207.4 L212.3 208.4 L212.3 209.4 L212.3 210.4 L212.3 211.4 L212.3 212.4 L211.3 212.4 L210.3 212.4 L209.3 212.4 L208.3 212.4 L207.3 212.4 L206.3 212.3 L205.3 212.3 L204.3 212.3 L203.3 212.3 L202.3 212.3 L201.3 212.3 L200.3 212.3 L199.3 212.3 L198.3 212.3 L197.3 212.3 L196.3 212.3 L195.4 212.3 L194.4 212.3 L193.4 212.3 L192.4 212.3 L191.4 212.3 L190.4 212.3 L189.4 212.3 L188.4 212.3 L187.4 212.3 L187.4 211.3 L187.4 210.3 L187.4 209.3 L187.4 208.3 L187.4 207.3 L187.4 206.3 L187.4 205.3 L187.4 204.3 L187.4 203.3 L187.4 202.3 L187.4 201.3 L187.4 200.3 L187.4 199.3 L187.4 198.3 L187.4 197.3 L187.4 196.4 L187.4 195.4 L187.4 194.4 L187.5 193.4 L187.5 192.4 L187.5 191.4 L187.5 190.4 L187.5 189.4 L187.5 188.4 L187.5 187.4 Z " />
</g>
</g>
</svg>
