<!DOCTYPE svg>
<svg xmlns="http://www.w3.org/2000/svg" xmlns:xlink="http://www.w3.org/1999/xlink" width="1000" height="1000">
<g transform="translate(500.000000,500.000000)">
<g transform="scale(3.000000,3.000000)">
<path stroke="rgb(0,0,0)" stroke-opacity="1" fill="rgb(255,255,255)" fill-opacity="1" d="M-819.3 -822.9 L-818.3 -822.8 L-817.3 -822.6 L-816.4 -822.5 L-815.4 -822.3 L-814.4 -822.2 L-813.5 -822.1 L-812.5 -821.9 L-811.5 -821.8 L-810.5 -821.6 L-809.6 -821.5 L-808.6 -821.3 L-807.6 -821.2 L-806.6 -821 L-805.7 -820.9 L-804.7 -820.7 L-803.7 -820.6 L-802.8 -820.4 L-801.8 -820.3 L-800.8 -820.1 L-799.8 -820 L-798.9 -819.8 L-797.9 -819.7 L-796.9 -819.5 L-796 -819.4 L-795 -819.2 L-795.1 -818.3 L-795.3 -817.3 L-795.4 -816.3 L-795.6 -815.4 L-795.7 -814.4 L-795.9 -813.4 L-796 -812.4 L-796.2 -811.5 L-796.3 -810.5 L-796.5 -809.5 L-796.6 -808.6 L-796.8 -807.6 L-796.9 -806.6 L-797.1 -805.6 L-797.2 -804.7 L-797.4 -803.7 L-797.5 -802.7 L-797.6 -801.8 L-797.8 -800.8 L-797.9 -799.8 L-798.1 -798.8 L-798.2 -797.9 L-798.4 -796.9 L-798.5 -795.9 L-798.7 -795 L-799.7 -795.1 L-800.6 -795.2 L-801.6 -795.4 L-802.6 -795.5 L-803.5 -795.7 L-804.5 -795.8 L-805.5 -796 L-806.5 -796.1 L-807.4 -796.3 L-808.4 -796.4 L-809.4 -796.6 L-810.3 -796.7 L-811.3 -796.9 L-812.3 -797 L-813.3 -797.2 L-814.2 -797.3 L-815.2 -797.5 L-816.2 -797.6 L-817.1 -797.8 L-818.1 -797.9 L-819.1 -798.1 L-820.1 -798.2 L-821 -798.4 L-822 -798.5 L-823 -798.6 L-822.8 -799.6 L-822.7 -800.6 L-822.5 -801.6 L-822.4 -802.5 L-822.2 -803.5 L-822.1 -804.5 L-821.9 -805.4 L-821.8 -806.4 L-821.6 -807.4 L-821.5 -808.4 L-821.4 -809.3 L-821.2 -810.3 L-821.1 -811.3 L-820.9 -812.3 L-820.8 -813.2 L-820.6 -814.2 L-820.5 -815.2 L-820.3 -816.1 L-820.2 -817.1 L-820 -818.1 L-819.9 -819.1 L-819.7 -820 L-819.6 -821 L-819.4 -822 L-819.3 -822.9 Z " />
<path stroke="rgb(0,0,0)" stroke-opacity="1" fill="rgb(255,255,255)" fill-opacity="1" d="M-199.5 -312.2 L-198.6 -312.2 L-197.6 -312 L-196.6 -311.8 L-195.7 -311.5 L-194.8 -311.2 L-193.9 -310.8 L-193 -310.3 L-192.2 -309.7 L-191.5 -309.1 L-190.8 -308.4 L-190.1 -307.7 L-189.5 -306.9 L-189 -306 L-188.5 -305.2 L-188.1 -304.3 L-187.8 -303.3 L-187.6 -302.4 L-187.4 -301.4 L-187.3 -300.4 L-187.3 -299.4 L-187.4 -298.5 L-187.5 -297.5 L-187.8 -296.5 L-188.1 -295.6 L-188.4 -294.7 L-188.9 -293.8 L-189.4 -293 L-190 -292.2 L-190.6 -291.4 L-191.3 -290.7 L-192.1 -290.1 L-192.9 -289.5 L-193.7 -289 L-194.6 -288.6 L-195.5 -288.2 L-196.4 -287.9 L-197.4 -287.7 L-198.4 -287.6 L-199.4 -287.5 L-200.3 -287.5 L-201.3 -287.6 L-202.3 -287.8 L-203.2 -288 L-204.2 -288.3 L-205.1 -288.7 L-205.9 -289.2 L-206.8 -289.7 L-207.5 -290.3 L-208.3 -291 L-209 -291.7 L-209.6 -292.4 L-210.1 -293.2 L-210.6 -294.1 L-211.1 -295 L-211.4 -295.9 L-211.7 -296.8 L-211.9 -297.8 L-212 -298.8 L-212.1 -299.8 L-212 -300.7 L-211.9 -301.7 L-211.7 -302.7 L-211.5 -303.6 L-211.1 -304.5 L-210.7 -305.4 L-210.2 -306.3 L-209.7 -307.1 L-209.1 -307.9 L-208.4 -308.6 L-207.7 -309.3 L-206.9 -309.9 L-206.1 -310.4 L-205.2 -310.9 L-204.3 -311.3 L-203.4 -311.6 L-202.5 -311.9 L-201.5 -312.1 L-200.5 -312.2 L-199.5 -312.2 Z " />
<path stroke="rgb(0,0,0)" stroke-opacity="1" fill="rgb(255,255,255)" fill-opacity="1" d="M-614 -815.1 L-613 -815.1 L-612 -815 L-611 -815 L-610.1 -814.9 L-609.1 -814.9 L-608.1 -814.8 L-607.1 -814.8 L-606.1 -814.7 L-605.2 -814.7 L-604.2 -814.7 L-603.2 -814.6 L-602.2 -814.6 L-601.2 -814.5 L-600.2 -814.5 L-599.3 -814.4 L-598.3 -814.4 L-597.3 -814.3 L-596.3 -814.3 L-595.3 -814.3 L-594.4 -814.2 L-593.4 -814.2 L-592.4 -814.1 L-591.4 -814.1 L-590.4 -814 L-589.4 -814 L-589.5 -813 L-589.5 -812 L-589.6 -811 L-589.6 -810.1 L-589.7 -809.1 L-589.7 -808.1 L-589.8 -807.1 L-589.8 -806.1 L-589.8 -805.1 L-589.9 -804.2 L-589.9 -803.2 L-590 -802.2 L-590 -801.2 L-590.1 -800.2 L-590.1 -799.3 L-590.2 -798.3 L-590.2 -797.3 L-590.3 -796.3 L-590.3 -795.3 L-590.3 -794.3 L-590.4 -793.4 L-590.4 -792.4 L-590.5 -791.4 L-590.5 -790.4 L-590.6 -789.4 L-591.6 -789.5 L-592.5 -789.5 L-593.5 -789.6 L-594.5 -789.6 L-595.5 -789.7 L-596.5 -789.7 L-597.4 -789.7 L-598.4 -789.8 L-599.4 -789.8 L-600.4 -789.9 L-601.4 -789.9 L-602.4 -790 L-603.3 -790 L-604.3 -790.1 L-605.3 -790.1 L-606.3 -790.2 L-607.3 -790.2 L-608.2 -790.2 L-609.2 -790.3 L-610.2 -790.3 L-611.2 -790.4 L-612.2 -790.4 L-613.2 -790.5 L-614.1 -790.5 L-615.1 -790.6 L-615.1 -791.5 L-615 -792.5 L-615 -793.5 L-614.9 -794.5 L-614.9 -795.5 L-614.8 -796.5 L-614.8 -797.4 L-614.8 -798.4 L-614.7 -799.4 L-614.7 -800.4 L-614.6 -801.4 L-614.6 -802.3 L-614.5 -803.3 L-614.5 -804.3 L-614.4 -805.3 L-614.4 -806.3 L-614.4 -807.3 L-614.3 -808.2 L-614.3 -809.2 L-614.2 -810.2 L-614.2 -811.2 L-614.1 -812.2 L-614.1 -813.1 L-614 -814.1 L-614 -815.1 Z " />
<path stroke="rgb(0,0,0)" stroke-opacity="1" fill="rgb(255,255,255)" fill-opacity="1" d="M1.173 -312.5 L2.175 -312.4 L3.165 -312.2 L4.137 -311.9 L5.085 -311.6 L6.003 -311.2 L6.885 -310.7 L7.725 -310.1 L8.518 -309.5 L9.259 -308.8 L9.943 -308.1 L10.57 -307.3 L11.13 -306.4 L11.62 -305.6 L12.03 -304.6 L12.38 -303.7 L12.65 -302.7 L12.84 -301.7 L12.95 -300.7 L12.98 -299.7 L12.93 -298.7 L12.8 -297.7 L12.59 -296.7 L12.31 -295.8 L11.94 -294.8 L11.51 -293.9 L11 -293 L10.43 -292.2 L9.791 -291.4 L9.093 -290.7 L8.34 -290 L7.536 -289.4 L6.686 -288.9 L5.795 -288.4 L4.87 -288 L3.916 -287.7 L2.939 -287.4 L1.946 -287.3 L0.9418 -287.2 L-0.06618 -287.2 L-1.072 -287.2 L-2.069 -287.4 L-3.051 -287.6 L-4.012 -287.9 L-4.945 -288.3 L-5.845 -288.8 L-6.707 -289.3 L-7.524 -289.9 L-8.292 -290.5 L-9.005 -291.2 L-9.66 -292 L-10.25 -292.8 L-10.78 -293.7 L-11.23 -294.6 L-11.61 -295.5 L-11.92 -296.5 L-12.15 -297.5 L-12.3 -298.4 L-12.37 -299.5 L-12.36 -300.5 L-12.27 -301.5 L-12.1 -302.5 L-11.86 -303.4 L-11.53 -304.4 L-11.13 -305.3 L-10.66 -306.2 L-10.12 -307.1 L-9.515 -307.9 L-8.846 -308.6 L-8.12 -309.3 L-7.341 -310 L-6.513 -310.5 L-5.642 -311 L-4.733 -311.5 L-3.793 -311.8 L-2.827 -312.1 L-1.841 -312.3 L-0.8414 -312.5 L0.1653 -312.5 L1.173 -312.5 Z " />
<path stroke="rgb(0,0,0)" stroke-opacity="1" fill="rgb(255,255,255)" fill-opacity="1" d="M-412.4 -812.7 L-411.4 -812.7 L-410.4 -812.7 L-409.4 -812.7 L-408.4 -812.7 L-407.5 -812.6 L-406.5 -812.6 L-405.5 -812.6 L-404.5 -812.6 L-403.5 -812.6 L-402.5 -812.6 L-401.6 -812.6 L-400.6 -812.5 L-399.6 -812.5 L-398.6 -812.5 L-397.6 -812.5 L-396.6 -812.5 L-395.7 -812.5 L-394.7 -812.5 L-393.7 -812.4 L-392.7 -812.4 L-391.7 -812.4 L-390.7 -812.4 L-389.8 -812.4 L-388.8 -812.4 L-387.8 -812.4 L-387.8 -811.4 L-387.8 -810.4 L-387.8 -809.4 L-387.9 -808.4 L-387.9 -807.4 L-387.9 -806.5 L-387.9 -805.5 L-387.9 -804.5 L-387.9 -803.5 L-387.9 -802.5 L-387.9 -801.6 L-388 -800.6 L-388 -799.6 L-388 -798.6 L-388 -797.6 L-388 -796.6 L-388 -795.7 L-388 -794.7 L-388.1 -793.7 L-388.1 -792.7 L-388.1 -791.7 L-388.1 -790.7 L-388.1 -789.8 L-388.1 -788.8 L-388.1 -787.8 L-389.1 -787.8 L-390.1 -787.8 L-391.1 -787.8 L-392.1 -787.8 L-393.1 -787.9 L-394 -787.9 L-395 -787.9 L-396 -787.9 L-397 -787.9 L-398 -787.9 L-399 -787.9 L-399.9 -788 L-400.9 -788 L-401.9 -788 L-402.9 -788 L-403.9 -788 L-404.9 -788 L-405.8 -788 L-406.8 -788.1 L-407.8 -788.1 L-408.8 -788.1 L-409.8 -788.1 L-410.7 -788.1 L-411.7 -788.1 L-412.7 -788.1 L-412.7 -789.1 L-412.7 -790.1 L-412.7 -791.1 L-412.7 -792.1 L-412.6 -793.1 L-412.6 -794 L-412.6 -795 L-412.6 -796 L-412.6 -797 L-412.6 -798 L-412.6 -799 L-412.5 -799.9 L-412.5 -800.9 L-412.5 -801.9 L-412.5 -802.9 L-412.5 -803.9 L-412.5 -804.8 L-412.5 -805.8 L-412.5 -806.8 L-412.4 -807.8 L-412.4 -808.8 L-412.4 -809.8 L-412.4 -810.7 L-412.4 -811.7 L-412.4 -812.7 Z " />
<path stroke="rgb(0,0,0)" stroke-opacity="1" fill="rgb(255,255,255)" fill-opacity="1" d="M209.5 -313 L210.6 -312.2 L211.5 -311.4 L212.4 -310.4 L213.2 -309.4 L213.9 -308.4 L214.5 -307.3 L215.1 -306.1 L215.5 -304.9 L215.9 -303.7 L216.1 -302.4 L216.3 -301.1 L216.3 -299.8 L216.3 -298.5 L216.1 -297.3 L215.9 -296 L215.5 -294.8 L215.1 -293.6 L214.5 -292.4 L213.9 -291.3 L213.2 -290.2 L212.4 -289.2 L211.5 -288.3 L210.5 -287.4 L209.5 -286.7 L208.5 -286 L207.3 -285.3 L206.2 -284.8 L204.9 -284.4 L203.7 -284.1 L202.4 -283.8 L201.2 -283.7 L199.9 -283.7 L198.6 -283.8 L197.3 -283.9 L196.1 -284.2 L194.8 -284.6 L193.6 -285.1 L192.5 -285.6 L191.4 -286.3 L190.3 -287 L189.4 -287.9 L188.4 -288.8 L187.6 -289.7 L186.8 -290.8 L186.2 -291.9 L185.6 -293 L185.1 -294.2 L184.7 -295.4 L184.4 -296.6 L184.2 -297.9 L184.1 -299.2 L184.1 -300.5 L184.2 -301.8 L184.4 -303 L184.7 -304.3 L185.1 -305.5 L185.6 -306.7 L186.2 -307.8 L186.8 -308.9 L187.6 -309.9 L188.4 -310.9 L189.4 -311.8 L190.3 -312.6 L191.4 -313.4 L192.5 -314 L193.6 -314.6 L194.8 -315.1 L196.1 -315.5 L197.3 -315.7 L198.6 -315.9 L199.9 -316 L201.2 -316 L202.4 -315.8 L203.7 -315.6 L204.9 -315.3 L206.2 -314.8 L207.3 -314.3 L208.5 -313.7 L209.5 -313 Z " />
<path stroke="rgb(0,0,0)" stroke-opacity="1" fill="rgb(255,255,255)" fill-opacity="1" d="M-212.3 -812.5 L-211.3 -812.5 L-210.3 -812.5 L-209.3 -812.5 L-208.3 -812.5 L-207.3 -812.5 L-206.4 -812.5 L-205.4 -812.5 L-204.4 -812.5 L-203.4 -812.4 L-202.4 -812.4 L-201.4 -812.4 L-200.5 -812.4 L-199.5 -812.4 L-198.5 -812.4 L-197.5 -812.4 L-196.5 -812.4 L-195.5 -812.3 L-194.6 -812.3 L-193.6 -812.3 L-192.6 -812.3 L-191.6 -812.3 L-190.6 -812.3 L-189.6 -812.3 L-188.7 -812.3 L-187.7 -812.3 L-187.7 -811.3 L-187.7 -810.3 L-187.7 -809.3 L-187.7 -808.3 L-187.7 -807.3 L-187.8 -806.4 L-187.8 -805.4 L-187.8 -804.4 L-187.8 -803.4 L-187.8 -802.4 L-187.8 -801.4 L-187.8 -800.5 L-187.8 -799.5 L-187.8 -798.5 L-187.9 -797.5 L-187.9 -796.5 L-187.9 -795.5 L-187.9 -794.6 L-187.9 -793.6 L-187.9 -792.6 L-187.9 -791.6 L-187.9 -790.6 L-188 -789.6 L-188 -788.7 L-188 -787.7 L-189 -787.7 L-189.9 -787.7 L-190.9 -787.7 L-191.9 -787.7 L-192.9 -787.7 L-193.9 -787.8 L-194.9 -787.8 L-195.8 -787.8 L-196.8 -787.8 L-197.8 -787.8 L-198.8 -787.8 L-199.8 -787.8 L-200.8 -787.8 L-201.7 -787.8 L-202.7 -787.9 L-203.7 -787.9 L-204.7 -787.9 L-205.7 -787.9 L-206.7 -787.9 L-207.6 -787.9 L-208.6 -787.9 L-209.6 -787.9 L-210.6 -788 L-211.6 -788 L-212.6 -788 L-212.5 -789 L-212.5 -789.9 L-212.5 -790.9 L-212.5 -791.9 L-212.5 -792.9 L-212.5 -793.9 L-212.5 -794.9 L-212.5 -795.8 L-212.4 -796.8 L-212.4 -797.8 L-212.4 -798.8 L-212.4 -799.8 L-212.4 -800.8 L-212.4 -801.7 L-212.4 -802.7 L-212.4 -803.7 L-212.4 -804.7 L-212.3 -805.7 L-212.3 -806.7 L-212.3 -807.6 L-212.3 -808.6 L-212.3 -809.6 L-212.3 -810.6 L-212.3 -811.6 L-212.3 -812.5 Z " />
<path stroke="rgb(0,0,0)" stroke-opacity="1" fill="rgb(255,255,255)" fill-opacity="1" d="M-299.5 -212.2 L-298.6 -212.2 L-297.6 -212 L-296.6 -211.8 L-295.7 -211.5 L-294.8 -211.2 L-293.9 -210.8 L-293 -210.3 L-292.2 -209.7 L-291.5 -209.1 L-290.8 -208.4 L-290.1 -207.7 L-289.5 -206.9 L-289 -206 L-288.5 -205.2 L-288.1 -204.3 L-287.8 -203.3 L-287.6 -202.4 L-287.4 -201.4 L-287.3 -200.4 L-287.3 -199.4 L-287.4 -198.5 L-287.5 -197.5 L-287.8 -196.5 L-288.1 -195.6 L-288.4 -194.7 L-288.9 -193.8 L-289.4 -193 L-290 -192.2 L-290.6 -191.4 L-291.3 -190.7 L-292.1 -190.1 L-292.9 -189.5 L-293.7 -189 L-294.6 -188.6 L-295.5 -188.2 L-296.4 -187.9 L-297.4 -187.7 L-298.4 -187.6 L-299.4 -187.5 L-300.3 -187.5 L-301.3 -187.6 L-302.3 -187.8 L-303.2 -188 L-304.2 -188.3 L-305.1 -188.7 L-305.9 -189.2 L-306.8 -189.7 L-307.5 -190.3 L-308.3 -191 L-309 -191.7 L-309.6 -192.4 L-310.1 -193.2 L-310.6 -194.1 L-311.1 -195 L-311.4 -195.9 L-311.7 -196.8 L-311.9 -197.8 L-312 -198.8 L-312.1 -199.8 L-312 -200.7 L-311.9 -201.7 L-311.7 -202.7 L-311.5 -203.6 L-311.1 -204.5 L-310.7 -205.4 L-310.2 -206.3 L-309.7 -207.1 L-309.1 -207.9 L-308.4 -208.6 L-307.7 -209.3 L-306.9 -209.9 L-306.1 -210.4 L-305.2 -210.9 L-304.3 -211.3 L-303.4 -211.6 L-302.5 -211.9 L-301.5 -212.1 L-300.5 -212.2 L-299.5 -212.2 Z " />
<path stroke="rgb(0,0,0)" stroke-opacity="1" fill="rgb(255,255,255)" fill-opacity="1" d="M-714 -715.1 L-713 -715.1 L-712 -715 L-711 -715 L-710.1 -714.9 L-709.1 -714.9 L-708.1 -714.8 L-707.1 -714.8 L-706.1 -714.7 L-705.2 -714.7 L-704.2 -714.7 L-703.2 -714.6 L-702.2 -714.6 L-701.2 -714.5 L-700.2 -714.5 L-699.3 -714.4 L-698.3 -714.4 L-697.3 -714.3 L-696.3 -714.3 L-695.3 -714.3 L-694.4 -714.2 L-693.4 -714.2 L-692.4 -714.1 L-691.4 -714.1 L-690.4 -714 L-689.4 -714 L-689.5 -713 L-689.5 -712 L-689.6 -711 L-689.6 -710.1 L-689.7 -709.1 L-689.7 -708.1 L-689.8 -707.1 L-689.8 -706.1 L-689.8 -705.1 L-689.9 -704.2 L-689.9 -703.2 L-690 -702.2 L-690 -701.2 L-690.1 -700.2 L-690.1 -699.3 L-690.2 -698.3 L-690.2 -697.3 L-690.3 -696.3 L-690.3 -695.3 L-690.3 -694.3 L-690.4 -693.4 L-690.4 -692.4 L-690.5 -691.4 L-690.5 -690.4 L-690.6 -689.4 L-691.6 -689.5 L-692.5 -689.5 L-693.5 -689.6 L-694.5 -689.6 L-695.5 -689.7 L-696.5 -689.7 L-697.4 -689.7 L-698.4 -689.8 L-699.4 -689.8 L-700.4 -689.9 L-701.4 -689.9 L-702.4 -690 L-703.3 -690 L-704.3 -690.1 L-705.3 -690.1 L-706.3 -690.2 L-707.3 -690.2 L-708.2 -690.2 L-709.2 -690.3 L-710.2 -690.3 L-711.2 -690.4 L-712.2 -690.4 L-713.2 -690.5 L-714.1 -690.5 L-715.1 -690.6 L-715.1 -691.5 L-715 -692.5 L-715 -693.5 L-714.9 -694.5 L-714.9 -695.5 L-714.8 -696.5 L-714.8 -697.4 L-714.8 -698.4 L-714.7 -699.4 L-714.7 -700.4 L-714.6 -701.4 L-714.6 -702.3 L-714.5 -703.3 L-714.5 -704.3 L-714.4 -705.3 L-714.4 -706.3 L-714.4 -707.3 L-714.3 -708.2 L-714.3 -709.2 L-714.2 -710.2 L-714.2 -711.2 L-714.1 -712.2 L-714.1 -713.1 L-714 -714.1 L-714 -715.1 Z " />
<path stroke="rgb(0,0,0)" stroke-opacity="1" fill="rgb(255,255,255)" fill-opacity="1" d="M-98.83 -212.5 L-97.83 -212.4 L-96.83 -212.2 L-95.86 -211.9 L-94.91 -211.6 L-94 -211.2 L-93.12 -210.7 L-92.28 -210.1 L-91.48 -209.5 L-90.74 -208.8 L-90.06 -208.1 L-89.43 -207.3 L-88.87 -206.4 L-88.38 -205.6 L-87.97 -204.6 L-87.62 -203.7 L-87.35 -202.7 L-87.16 -201.7 L-87.05 -200.7 L-87.02 -199.7 L-87.07 -198.7 L-87.2 -197.7 L-87.41 -196.7 L-87.69 -195.8 L-88.06 -194.8 L-88.49 -193.9 L-89 -193 L-89.57 -192.2 L-90.21 -191.4 L-90.91 -190.7 L-91.66 -190 L-92.46 -189.4 L-93.31 -188.9 L-94.2 -188.4 L-95.13 -188 L-96.08 -187.7 L-97.06 -187.4 L-98.05 -187.3 L-99.06 -187.2 L-100.1 -187.2 L-101.1 -187.2 L-102.1 -187.4 L-103.1 -187.6 L-104 -187.9 L-104.9 -188.3 L-105.8 -188.8 L-106.7 -189.3 L-107.5 -189.9 L-108.3 -190.5 L-109 -191.2 L-109.7 -192 L-110.3 -192.8 L-110.8 -193.7 L-111.2 -194.6 L-111.6 -195.5 L-111.9 -196.5 L-112.1 -197.5 L-112.3 -198.4 L-112.4 -199.5 L-112.4 -200.5 L-112.3 -201.5 L-112.1 -202.5 L-111.9 -203.4 L-111.5 -204.4 L-111.1 -205.3 L-110.7 -206.2 L-110.1 -207.1 L-109.5 -207.9 L-108.8 -208.6 L-108.1 -209.3 L-107.3 -210 L-106.5 -210.5 L-105.6 -211 L-104.7 -211.5 L-103.8 -211.8 L-102.8 -212.1 L-101.8 -212.3 L-100.8 -212.5 L-99.83 -212.5 L-98.83 -212.5 Z " />
<path stroke="rgb(0,0,0)" stroke-opacity="1" fill="rgb(255,255,255)" fill-opacity="1" d="M-512.4 -712.7 L-511.4 -712.7 L-510.4 -712.7 L-509.4 -712.7 L-508.4 -712.7 L-507.5 -712.6 L-506.5 -712.6 L-505.5 -712.6 L-504.5 -712.6 L-503.5 -712.6 L-502.5 -712.6 L-501.6 -712.6 L-500.6 -712.5 L-499.6 -712.5 L-498.6 -712.5 L-497.6 -712.5 L-496.6 -712.5 L-495.7 -712.5 L-494.7 -712.5 L-493.7 -712.4 L-492.7 -712.4 L-491.7 -712.4 L-490.7 -712.4 L-489.8 -712.4 L-488.8 -712.4 L-487.8 -712.4 L-487.8 -711.4 L-487.8 -710.4 L-487.8 -709.4 L-487.9 -708.4 L-487.9 -707.4 L-487.9 -706.5 L-487.9 -705.5 L-487.9 -704.5 L-487.9 -703.5 L-487.9 -702.5 L-487.9 -701.6 L-488 -700.6 L-488 -699.6 L-488 -698.6 L-488 -697.6 L-488 -696.6 L-488 -695.7 L-488 -694.7 L-488.1 -693.7 L-488.1 -692.7 L-488.1 -691.7 L-488.1 -690.7 L-488.1 -689.8 L-488.1 -688.8 L-488.1 -687.8 L-489.1 -687.8 L-490.1 -687.8 L-491.1 -687.8 L-492.1 -687.8 L-493.1 -687.9 L-494 -687.9 L-495 -687.9 L-496 -687.9 L-497 -687.9 L-498 -687.9 L-499 -687.9 L-499.9 -688 L-500.9 -688 L-501.9 -688 L-502.9 -688 L-503.9 -688 L-504.9 -688 L-505.8 -688 L-506.8 -688.1 L-507.8 -688.1 L-508.8 -688.1 L-509.8 -688.1 L-510.7 -688.1 L-511.7 -688.1 L-512.7 -688.1 L-512.7 -689.1 L-512.7 -690.1 L-512.7 -691.1 L-512.7 -692.1 L-512.6 -693.1 L-512.6 -694 L-512.6 -695 L-512.6 -696 L-512.6 -697 L-512.6 -698 L-512.6 -699 L-512.5 -699.9 L-512.5 -700.9 L-512.5 -701.9 L-512.5 -702.9 L-512.5 -703.9 L-512.5 -704.8 L-512.5 -705.8 L-512.5 -706.8 L-512.4 -707.8 L-512.4 -708.8 L-512.4 -709.8 L-512.4 -710.7 L-512.4 -711.7 L-512.4 -712.7 Z " />
<path stroke="rgb(0,0,0)" stroke-opacity="1" fill="rgb(255,255,255)" fill-opacity="1" d="M109.5 -213 L110.6 -212.2 L111.5 -211.4 L112.4 -210.4 L113.2 -209.4 L113.9 -208.4 L114.5 -207.3 L115.1 -206.1 L115.5 -204.9 L115.9 -203.7 L116.1 -202.4 L116.3 -201.1 L116.3 -199.8 L116.3 -198.5 L116.1 -197.3 L115.9 -196 L115.5 -194.8 L115.1 -193.6 L114.5 -192.4 L113.9 -191.3 L113.2 -190.2 L112.4 -189.2 L111.5 -188.3 L110.5 -187.4 L109.5 -186.7 L108.5 -186 L107.3 -185.3 L106.2 -184.8 L104.9 -184.4 L103.7 -184.1 L102.4 -183.8 L101.2 -183.7 L99.87 -183.7 L98.59 -183.8 L97.32 -183.9 L96.06 -184.2 L94.84 -184.6 L93.64 -185.1 L92.49 -185.6 L91.39 -186.3 L90.34 -187 L89.35 -187.9 L88.44 -188.8 L87.59 -189.7 L86.83 -190.8 L86.15 -191.9 L85.56 -193 L85.07 -194.2 L84.66 -195.4 L84.36 -196.6 L84.16 -197.9 L84.06 -199.2 L84.06 -200.5 L84.16 -201.8 L84.36 -203 L84.67 -204.3 L85.07 -205.5 L85.57 -206.7 L86.16 -207.8 L86.83 -208.9 L87.6 -209.9 L88.44 -210.9 L89.36 -211.8 L90.34 -212.6 L91.39 -213.4 L92.5 -214 L93.65 -214.6 L94.84 -215.1 L96.07 -215.5 L97.32 -215.7 L98.6 -215.9 L99.88 -216 L101.2 -216 L102.4 -215.8 L103.7 -215.6 L104.9 -215.3 L106.2 -214.8 L107.3 -214.3 L108.5 -213.7 L109.5 -213 Z " />
<path stroke="rgb(0,0,0)" stroke-opacity="1" fill="rgb(255,255,255)" fill-opacity="1" d="M-312.3 -712.5 L-311.3 -712.5 L-310.3 -712.5 L-309.3 -712.5 L-308.3 -712.5 L-307.3 -712.5 L-306.4 -712.5 L-305.4 -712.5 L-304.4 -712.5 L-303.4 -712.4 L-302.4 -712.4 L-301.4 -712.4 L-300.5 -712.4 L-299.5 -712.4 L-298.5 -712.4 L-297.5 -712.4 L-296.5 -712.4 L-295.5 -712.3 L-294.6 -712.3 L-293.6 -712.3 L-292.6 -712.3 L-291.6 -712.3 L-290.6 -712.3 L-289.6 -712.3 L-288.7 -712.3 L-287.7 -712.3 L-287.7 -711.3 L-287.7 -710.3 L-287.7 -709.3 L-287.7 -708.3 L-287.7 -707.3 L-287.8 -706.4 L-287.8 -705.4 L-287.8 -704.4 L-287.8 -703.4 L-287.8 -702.4 L-287.8 -701.4 L-287.8 -700.5 L-287.8 -699.5 L-287.8 -698.5 L-287.9 -697.5 L-287.9 -696.5 L-287.9 -695.5 L-287.9 -694.6 L-287.9 -693.6 L-287.9 -692.6 L-287.9 -691.6 L-287.9 -690.6 L-288 -689.6 L-288 -688.7 L-288 -687.7 L-289 -687.7 L-289.9 -687.7 L-290.9 -687.7 L-291.9 -687.7 L-292.9 -687.7 L-293.9 -687.8 L-294.9 -687.8 L-295.8 -687.8 L-296.8 -687.8 L-297.8 -687.8 L-298.8 -687.8 L-299.8 -687.8 L-300.8 -687.8 L-301.7 -687.8 L-302.7 -687.9 L-303.7 -687.9 L-304.7 -687.9 L-305.7 -687.9 L-306.7 -687.9 L-307.6 -687.9 L-308.6 -687.9 L-309.6 -687.9 L-310.6 -688 L-311.6 -688 L-312.6 -688 L-312.5 -689 L-312.5 -689.9 L-312.5 -690.9 L-312.5 -691.9 L-312.5 -692.9 L-312.5 -693.9 L-312.5 -694.9 L-312.5 -695.8 L-312.4 -696.8 L-312.4 -697.8 L-312.4 -698.8 L-312.4 -699.8 L-312.4 -700.8 L-312.4 -701.7 L-312.4 -702.7 L-312.4 -703.7 L-312.4 -704.7 L-312.3 -705.7 L-312.3 -706.7 L-312.3 -707.6 L-312.3 -708.6 L-312.3 -709.6 L-312.3 -710.6 L-312.3 -711.6 L-312.3 -712.5 Z " />
<path stroke="rgb(0,0,0)" stroke-opacity="1" fill="rgb(255,255,255)" fill-opacity="1" d="M322.9 -203.3 L323.1 -201.5 L323.1 -199.6 L323 -197.8 L322.8 -196 L322.4 -194.2 L321.9 -192.4 L321.2 -190.7 L320.4 -189.1 L319.5 -187.5 L318.4 -186 L317.2 -184.6 L316 -183.2 L314.6 -182 L313.1 -180.9 L311.6 -179.9 L309.9 -179.1 L308.2 -178.4 L306.5 -177.8 L304.7 -177.3 L302.9 -177 L301.1 -176.9 L299.2 -176.9 L297.4 -177 L295.6 -177.3 L293.8 -177.7 L292.1 -178.3 L290.4 -179 L288.7 -179.8 L287.2 -180.8 L285.7 -181.9 L284.3 -183.1 L283 -184.4 L281.8 -185.8 L280.7 -187.3 L279.8 -188.8 L279 -190.5 L278.3 -192.2 L277.7 -193.9 L277.3 -195.7 L277.1 -197.5 L276.9 -199.4 L277 -201.2 L277.1 -203 L277.4 -204.8 L277.9 -206.6 L278.5 -208.4 L279.2 -210 L280.1 -211.7 L281.1 -213.2 L282.2 -214.7 L283.4 -216 L284.8 -217.3 L286.2 -218.5 L287.7 -219.5 L289.3 -220.4 L291 -221.2 L292.7 -221.9 L294.4 -222.4 L296.2 -222.7 L298.1 -223 L299.9 -223.1 L301.7 -223 L303.6 -222.8 L305.4 -222.4 L307.1 -221.9 L308.9 -221.3 L310.5 -220.5 L312.1 -219.6 L313.6 -218.6 L315.1 -217.5 L316.4 -216.2 L317.7 -214.9 L318.8 -213.4 L319.8 -211.9 L320.7 -210.3 L321.5 -208.6 L322.1 -206.9 L322.6 -205.1 L322.9 -203.3 Z " />
<path stroke="rgb(0,0,0)" stroke-opacity="1" fill="rgb(255,255,255)" fill-opacity="1" d="M-814 -615.1 L-813 -615.1 L-812 -615 L-811 -615 L-810.1 -614.9 L-809.1 -614.9 L-808.1 -614.8 L-807.1 -614.8 L-806.1 -614.7 L-805.2 -614.7 L-804.2 -614.7 L-803.2 -614.6 L-802.2 -614.6 L-801.2 -614.5 L-800.2 -614.5 L-799.3 -614.4 L-798.3 -614.4 L-797.3 -614.3 L-796.3 -614.3 L-795.3 -614.3 L-794.4 -614.2 L-793.4 -614.2 L-792.4 -614.1 L-791.4 -614.1 L-790.4 -614 L-789.4 -614 L-789.5 -613 L-789.5 -612 L-789.6 -611 L-789.6 -610.1 L-789.7 -609.1 L-789.7 -608.1 L-789.8 -607.1 L-789.8 -606.1 L-789.8 -605.1 L-789.9 -604.2 L-789.9 -603.2 L-790 -602.2 L-790 -601.2 L-790.1 -600.2 L-790.1 -599.3 L-790.2 -598.3 L-790.2 -597.3 L-790.3 -596.3 L-790.3 -595.3 L-790.3 -594.3 L-790.4 -593.4 L-790.4 -592.4 L-790.5 -591.4 L-790.5 -590.4 L-790.6 -589.4 L-791.6 -589.5 L-792.5 -589.5 L-793.5 -589.6 L-794.5 -589.6 L-795.5 -589.7 L-796.5 -589.7 L-797.4 -589.7 L-798.4 -589.8 L-799.4 -589.8 L-800.4 -589.9 L-801.4 -589.9 L-802.4 -590 L-803.3 -590 L-804.3 -590.1 L-805.3 -590.1 L-806.3 -590.2 L-807.3 -590.2 L-808.2 -590.2 L-809.2 -590.3 L-810.2 -590.3 L-811.2 -590.4 L-812.2 -590.4 L-813.2 -590.5 L-814.1 -590.5 L-815.1 -590.6 L-815.1 -591.5 L-815 -592.5 L-815 -593.5 L-814.9 -594.5 L-814.9 -595.5 L-814.8 -596.5 L-814.8 -597.4 L-814.8 -598.4 L-814.7 -599.4 L-814.7 -600.4 L-814.6 -601.4 L-814.6 -602.3 L-814.5 -603.3 L-814.5 -604.3 L-814.4 -605.3 L-814.4 -606.3 L-814.4 -607.3 L-814.3 -608.2 L-814.3 -609.2 L-814.2 -610.2 L-814.2 -611.2 L-814.1 -612.2 L-814.1 -613.1 L-814 -614.1 L-814 -615.1 Z " />
<path stroke="rgb(0,0,0)" stroke-opacity="1" fill="rgb(255,255,255)" fill-opacity="1" d="M-198.8 -112.5 L-197.8 -112.4 L-196.8 -112.2 L-195.9 -111.9 L-194.9 -111.6 L-194 -111.2 L-193.1 -110.7 L-192.3 -110.1 L-191.5 -109.5 L-190.7 -108.8 L-190.1 -108.1 L-189.4 -107.3 L-188.9 -106.4 L-188.4 -105.6 L-188 -104.6 L-187.6 -103.7 L-187.4 -102.7 L-187.2 -101.7 L-187.1 -100.7 L-187 -99.73 L-187.1 -98.72 L-187.2 -97.72 L-187.4 -96.73 L-187.7 -95.77 L-188.1 -94.83 L-188.5 -93.92 L-189 -93.04 L-189.6 -92.22 L-190.2 -91.44 L-190.9 -90.71 L-191.7 -90.04 L-192.5 -89.43 L-193.3 -88.89 L-194.2 -88.42 L-195.1 -88.02 L-196.1 -87.69 L-197.1 -87.44 L-198.1 -87.27 L-199.1 -87.18 L-200.1 -87.17 L-201.1 -87.24 L-202.1 -87.39 L-203.1 -87.62 L-204 -87.92 L-204.9 -88.3 L-205.8 -88.75 L-206.7 -89.28 L-207.5 -89.87 L-208.3 -90.52 L-209 -91.23 L-209.7 -92 L-210.3 -92.82 L-210.8 -93.68 L-211.2 -94.58 L-211.6 -95.51 L-211.9 -96.47 L-212.1 -97.45 L-212.3 -98.45 L-212.4 -99.45 L-212.4 -100.5 L-212.3 -101.5 L-212.1 -102.5 L-211.9 -103.4 L-211.5 -104.4 L-211.1 -105.3 L-210.7 -106.2 L-210.1 -107.1 L-209.5 -107.9 L-208.8 -108.6 L-208.1 -109.3 L-207.3 -110 L-206.5 -110.5 L-205.6 -111 L-204.7 -111.5 L-203.8 -111.8 L-202.8 -112.1 L-201.8 -112.3 L-200.8 -112.5 L-199.8 -112.5 L-198.8 -112.5 Z " />
<path stroke="rgb(0,0,0)" stroke-opacity="1" fill="rgb(255,255,255)" fill-opacity="1" d="M-612.4 -612.7 L-611.4 -612.7 L-610.4 -612.7 L-609.4 -612.7 L-608.4 -612.7 L-607.5 -612.6 L-606.5 -612.6 L-605.5 -612.6 L-604.5 -612.6 L-603.5 -612.6 L-602.5 -612.6 L-601.6 -612.6 L-600.6 -612.5 L-599.6 -612.5 L-598.6 -612.5 L-597.6 -612.5 L-596.6 -612.5 L-595.7 -612.5 L-594.7 -612.5 L-593.7 -612.4 L-592.7 -612.4 L-591.7 -612.4 L-590.7 -612.4 L-589.8 -612.4 L-588.8 -612.4 L-587.8 -612.4 L-587.8 -611.4 L-587.8 -610.4 L-587.8 -609.4 L-587.9 -608.4 L-587.9 -607.4 L-587.9 -606.5 L-587.9 -605.5 L-587.9 -604.5 L-587.9 -603.5 L-587.9 -602.5 L-587.9 -601.6 L-588 -600.6 L-588 -599.6 L-588 -598.6 L-588 -597.6 L-588 -596.6 L-588 -595.7 L-588 -594.7 L-588.1 -593.7 L-588.1 -592.7 L-588.1 -591.7 L-588.1 -590.7 L-588.1 -589.8 L-588.1 -588.8 L-588.1 -587.8 L-589.1 -587.8 L-590.1 -587.8 L-591.1 -587.8 L-592.1 -587.8 L-593.1 -587.9 L-594 -587.9 L-595 -587.9 L-596 -587.9 L-597 -587.9 L-598 -587.9 L-599 -587.9 L-599.9 -588 L-600.9 -588 L-601.9 -588 L-602.9 -588 L-603.9 -588 L-604.9 -588 L-605.8 -588 L-606.8 -588.1 L-607.8 -588.1 L-608.8 -588.1 L-609.8 -588.1 L-610.7 -588.1 L-611.7 -588.1 L-612.7 -588.1 L-612.7 -589.1 L-612.7 -590.1 L-612.7 -591.1 L-612.7 -592.1 L-612.6 -593.1 L-612.6 -594 L-612.6 -595 L-612.6 -596 L-612.6 -597 L-612.6 -598 L-612.6 -599 L-612.5 -599.9 L-612.5 -600.9 L-612.5 -601.9 L-612.5 -602.9 L-612.5 -603.9 L-612.5 -604.8 L-612.5 -605.8 L-612.5 -606.8 L-612.4 -607.8 L-612.4 -608.8 L-612.4 -609.8 L-612.4 -610.7 L-612.4 -611.7 L-612.4 -612.7 Z " />
<path stroke="rgb(0,0,0)" stroke-opacity="1" fill="rgb(255,255,255)" fill-opacity="1" d="M9.535 -113 L10.55 -112.2 L11.5 -111.4 L12.39 -110.4 L13.19 -109.4 L13.91 -108.4 L14.54 -107.3 L15.09 -106.1 L15.54 -104.9 L15.89 -103.7 L16.14 -102.4 L16.3 -101.1 L16.35 -99.83 L16.3 -98.55 L16.14 -97.27 L15.89 -96.02 L15.54 -94.78 L15.09 -93.58 L14.54 -92.41 L13.91 -91.3 L13.19 -90.24 L12.38 -89.23 L11.5 -88.3 L10.55 -87.44 L9.531 -86.65 L8.454 -85.95 L7.325 -85.34 L6.151 -84.82 L4.94 -84.4 L3.698 -84.07 L2.434 -83.84 L1.156 -83.71 L-0.1279 -83.69 L-1.41 -83.76 L-2.682 -83.94 L-3.935 -84.22 L-5.163 -84.6 L-6.357 -85.07 L-7.509 -85.64 L-8.612 -86.3 L-9.66 -87.04 L-10.65 -87.86 L-11.56 -88.76 L-12.41 -89.73 L-13.17 -90.76 L-13.85 -91.85 L-14.44 -93 L-14.93 -94.18 L-15.34 -95.4 L-15.64 -96.65 L-15.84 -97.92 L-15.94 -99.2 L-15.94 -100.5 L-15.84 -101.8 L-15.64 -103 L-15.33 -104.3 L-14.93 -105.5 L-14.43 -106.7 L-13.84 -107.8 L-13.17 -108.9 L-12.4 -109.9 L-11.56 -110.9 L-10.64 -111.8 L-9.656 -112.6 L-8.608 -113.4 L-7.504 -114 L-6.352 -114.6 L-5.158 -115.1 L-3.931 -115.5 L-2.677 -115.7 L-1.405 -115.9 L-0.1229 -116 L1.161 -116 L2.439 -115.8 L3.703 -115.6 L4.944 -115.3 L6.156 -114.8 L7.33 -114.3 L8.459 -113.7 L9.535 -113 Z " />
<path stroke="rgb(0,0,0)" stroke-opacity="1" fill="rgb(255,255,255)" fill-opacity="1" d="M-412.3 -612.5 L-411.3 -612.5 L-410.3 -612.5 L-409.3 -612.5 L-408.3 -612.5 L-407.3 -612.5 L-406.4 -612.5 L-405.4 -612.5 L-404.4 -612.5 L-403.4 -612.4 L-402.4 -612.4 L-401.4 -612.4 L-400.5 -612.4 L-399.5 -612.4 L-398.5 -612.4 L-397.5 -612.4 L-396.5 -612.4 L-395.5 -612.3 L-394.6 -612.3 L-393.6 -612.3 L-392.6 -612.3 L-391.6 -612.3 L-390.6 -612.3 L-389.6 -612.3 L-388.7 -612.3 L-387.7 -612.3 L-387.7 -611.3 L-387.7 -610.3 L-387.7 -609.3 L-387.7 -608.3 L-387.7 -607.3 L-387.8 -606.4 L-387.8 -605.4 L-387.8 -604.4 L-387.8 -603.4 L-387.8 -602.4 L-387.8 -601.4 L-387.8 -600.5 L-387.8 -599.5 L-387.8 -598.5 L-387.9 -597.5 L-387.9 -596.5 L-387.9 -595.5 L-387.9 -594.6 L-387.9 -593.6 L-387.9 -592.6 L-387.9 -591.6 L-387.9 -590.6 L-388 -589.6 L-388 -588.7 L-388 -587.7 L-389 -587.7 L-389.9 -587.7 L-390.9 -587.7 L-391.9 -587.7 L-392.9 -587.7 L-393.9 -587.8 L-394.9 -587.8 L-395.8 -587.8 L-396.8 -587.8 L-397.8 -587.8 L-398.8 -587.8 L-399.8 -587.8 L-400.8 -587.8 L-401.7 -587.8 L-402.7 -587.9 L-403.7 -587.9 L-404.7 -587.9 L-405.7 -587.9 L-406.7 -587.9 L-407.6 -587.9 L-408.6 -587.9 L-409.6 -587.9 L-410.6 -588 L-411.6 -588 L-412.6 -588 L-412.5 -589 L-412.5 -589.9 L-412.5 -590.9 L-412.5 -591.9 L-412.5 -592.9 L-412.5 -593.9 L-412.5 -594.9 L-412.5 -595.8 L-412.4 -596.8 L-412.4 -597.8 L-412.4 -598.8 L-412.4 -599.8 L-412.4 -600.8 L-412.4 -601.7 L-412.4 -602.7 L-412.4 -603.7 L-412.4 -604.7 L-412.3 -605.7 L-412.3 -606.7 L-412.3 -607.6 L-412.3 -608.6 L-412.3 -609.6 L-412.3 -610.6 L-412.3 -611.6 L-412.3 -612.5 Z " />
<path stroke="rgb(0,0,0)" stroke-opacity="1" fill="rgb(255,255,255)" fill-opacity="1" d="M222.9 -103.3 L223.1 -101.5 L223.1 -99.63 L223 -97.8 L222.8 -95.98 L222.4 -94.18 L221.9 -92.42 L221.2 -90.71 L220.4 -89.06 L219.5 -87.47 L218.4 -85.97 L217.2 -84.55 L216 -83.23 L214.6 -82.02 L213.1 -80.92 L211.6 -79.94 L209.9 -79.09 L208.2 -78.37 L206.5 -77.78 L204.7 -77.34 L202.9 -77.04 L201.1 -76.88 L199.2 -76.87 L197.4 -77 L195.6 -77.28 L193.8 -77.71 L192.1 -78.27 L190.4 -78.98 L188.7 -79.81 L187.2 -80.77 L185.7 -81.85 L184.3 -83.05 L183 -84.36 L181.8 -85.76 L180.7 -87.25 L179.8 -88.83 L179 -90.47 L178.3 -92.17 L177.7 -93.93 L177.3 -95.72 L177.1 -97.53 L176.9 -99.37 L177 -101.2 L177.1 -103 L177.4 -104.8 L177.9 -106.6 L178.5 -108.4 L179.2 -110 L180.1 -111.7 L181.1 -113.2 L182.2 -114.7 L183.4 -116 L184.8 -117.3 L186.2 -118.5 L187.7 -119.5 L189.3 -120.4 L191 -121.2 L192.7 -121.9 L194.4 -122.4 L196.2 -122.7 L198.1 -123 L199.9 -123.1 L201.7 -123 L203.6 -122.8 L205.4 -122.4 L207.1 -121.9 L208.9 -121.3 L210.5 -120.5 L212.1 -119.6 L213.6 -118.6 L215.1 -117.5 L216.4 -116.2 L217.7 -114.9 L218.8 -113.4 L219.8 -111.9 L220.7 -110.3 L221.5 -108.6 L222.1 -106.9 L222.6 -105.1 L222.9 -103.3 Z " />
<path stroke="rgb(0,0,0)" stroke-opacity="1" fill="rgb(255,255,255)" fill-opacity="1" d="M-212.3 -612.5 L-211.3 -612.5 L-210.3 -612.5 L-209.3 -612.5 L-208.3 -612.5 L-207.3 -612.5 L-206.4 -612.5 L-205.4 -612.5 L-204.4 -612.5 L-203.4 -612.4 L-202.4 -612.4 L-201.4 -612.4 L-200.5 -612.4 L-199.5 -612.4 L-198.5 -612.4 L-197.5 -612.4 L-196.5 -612.4 L-195.5 -612.3 L-194.6 -612.3 L-193.6 -612.3 L-192.6 -612.3 L-191.6 -612.3 L-190.6 -612.3 L-189.6 -612.3 L-188.7 -612.3 L-187.7 -612.3 L-187.7 -611.3 L-187.7 -610.3 L-187.7 -609.3 L-187.7 -608.3 L-187.7 -607.3 L-187.8 -606.4 L-187.8 -605.4 L-187.8 -604.4 L-187.8 -603.4 L-187.8 -602.4 L-187.8 -601.4 L-187.8 -600.5 L-187.8 -599.5 L-187.8 -598.5 L-187.9 -597.5 L-187.9 -596.5 L-187.9 -595.5 L-187.9 -594.6 L-187.9 -593.6 L-187.9 -592.6 L-187.9 -591.6 L-187.9 -590.6 L-188 -589.6 L-188 -588.7 L-188 -587.7 L-189 -587.7 L-189.9 -587.7 L-190.9 -587.7 L-191.9 -587.7 L-192.9 -587.7 L-193.9 -587.8 L-194.9 -587.8 L-195.8 -587.8 L-196.8 -587.8 L-197.8 -587.8 L-198.8 -587.8 L-199.8 -587.8 L-200.8 -587.8 L-201.7 -587.8 L-202.7 -587.9 L-203.7 -587.9 L-204.7 -587.9 L-205.7 -587.9 L-206.7 -587.9 L-207.6 -587.9 L-208.6 -587.9 L-209.6 -587.9 L-210.6 -588 L-211.6 -588 L-212.6 -588 L-212.5 -589 L-212.5 -589.9 L-212.5 -590.9 L-212.5 -591.9 L-212.5 -592.9 L-212.5 -593.9 L-212.5 -594.9 L-212.5 -595.8 L-212.4 -596.8 L-212.4 -597.8 L-212.4 -598.8 L-212.4 -599.8 L-212.4 -600.8 L-212.4 -601.7 L-212.4 -602.7 L-212.4 -603.7 L-212.4 -604.7 L-212.3 -605.7 L-212.3 -606.7 L-212.3 -607.6 L-212.3 -608.6 L-212.3 -609.6 L-212.3 -610.6 L-212.3 -611.6 L-212.3 -612.5 Z " />
<path stroke="rgb(0,0,0)" stroke-opacity="1" fill="rgb(255,255,255)" fill-opacity="1" d="M-298.8 -12.49 L-297.8 -12.38 L-296.8 -12.19 L-295.9 -11.93 L-294.9 -11.58 L-294 -11.17 L-293.1 -10.68 L-292.3 -10.12 L-291.5 -9.497 L-290.7 -8.813 L-290.1 -8.073 L-289.4 -7.281 L-288.9 -6.442 L-288.4 -5.562 L-288 -4.645 L-287.6 -3.697 L-287.4 -2.726 L-287.2 -1.736 L-287.1 -0.7337 L-287 0.2739 L-287.1 1.281 L-287.2 2.28 L-287.4 3.267 L-287.7 4.233 L-288.1 5.174 L-288.5 6.083 L-289 6.955 L-289.6 7.784 L-290.2 8.564 L-290.9 9.292 L-291.7 9.961 L-292.5 10.57 L-293.3 11.11 L-294.2 11.58 L-295.1 11.98 L-296.1 12.31 L-297.1 12.56 L-298.1 12.73 L-299.1 12.82 L-300.1 12.83 L-301.1 12.76 L-302.1 12.61 L-303.1 12.38 L-304 12.08 L-304.9 11.7 L-305.8 11.25 L-306.7 10.72 L-307.5 10.13 L-308.3 9.479 L-309 8.766 L-309.7 8 L-310.3 7.184 L-310.8 6.323 L-311.2 5.423 L-311.6 4.491 L-311.9 3.53 L-312.1 2.549 L-312.3 1.552 L-312.4 0.5464 L-312.4 -0.4616 L-312.3 -1.466 L-312.1 -2.459 L-311.9 -3.437 L-311.5 -4.391 L-311.1 -5.317 L-310.7 -6.208 L-310.1 -7.059 L-309.5 -7.864 L-308.8 -8.619 L-308.1 -9.318 L-307.3 -9.957 L-306.5 -10.53 L-305.6 -11.04 L-304.7 -11.48 L-303.8 -11.84 L-302.8 -12.13 L-301.8 -12.34 L-300.8 -12.47 L-299.8 -12.52 L-298.8 -12.49 Z " />
<path stroke="rgb(0,0,0)" stroke-opacity="1" fill="rgb(255,255,255)" fill-opacity="1" d="M-712.4 -512.7 L-711.4 -512.7 L-710.4 -512.7 L-709.4 -512.7 L-708.4 -512.7 L-707.5 -512.6 L-706.5 -512.6 L-705.5 -512.6 L-704.5 -512.6 L-703.5 -512.6 L-702.5 -512.6 L-701.6 -512.6 L-700.6 -512.5 L-699.6 -512.5 L-698.6 -512.5 L-697.6 -512.5 L-696.6 -512.5 L-695.7 -512.5 L-694.7 -512.5 L-693.7 -512.4 L-692.7 -512.4 L-691.7 -512.4 L-690.7 -512.4 L-689.8 -512.4 L-688.8 -512.4 L-687.8 -512.4 L-687.8 -511.4 L-687.8 -510.4 L-687.8 -509.4 L-687.9 -508.4 L-687.9 -507.4 L-687.9 -506.5 L-687.9 -505.5 L-687.9 -504.5 L-687.9 -503.5 L-687.9 -502.5 L-687.9 -501.6 L-688 -500.6 L-688 -499.6 L-688 -498.6 L-688 -497.6 L-688 -496.6 L-688 -495.7 L-688 -494.7 L-688.1 -493.7 L-688.1 -492.7 L-688.1 -491.7 L-688.1 -490.7 L-688.1 -489.8 L-688.1 -488.8 L-688.1 -487.8 L-689.1 -487.8 L-690.1 -487.8 L-691.1 -487.8 L-692.1 -487.8 L-693.1 -487.9 L-694 -487.9 L-695 -487.9 L-696 -487.9 L-697 -487.9 L-698 -487.9 L-699 -487.9 L-699.9 -488 L-700.9 -488 L-701.9 -488 L-702.9 -488 L-703.9 -488 L-704.9 -488 L-705.8 -488 L-706.8 -488.1 L-707.8 -488.1 L-708.8 -488.1 L-709.8 -488.1 L-710.7 -488.1 L-711.7 -488.1 L-712.7 -488.1 L-712.7 -489.1 L-712.7 -490.1 L-712.7 -491.1 L-712.7 -492.1 L-712.6 -493.1 L-712.6 -494 L-712.6 -495 L-712.6 -496 L-712.6 -497 L-712.6 -498 L-712.6 -499 L-712.5 -499.9 L-712.5 -500.9 L-712.5 -501.9 L-712.5 -502.9 L-712.5 -503.9 L-712.5 -504.8 L-712.5 -505.8 L-712.5 -506.8 L-712.4 -507.8 L-712.4 -508.8 L-712.4 -509.8 L-712.4 -510.7 L-712.4 -511.7 L-712.4 -512.7 Z " />
<path stroke="rgb(0,0,0)" stroke-opacity="1" fill="rgb(255,255,255)" fill-opacity="1" d="M-90.46 -13.01 L-89.45 -12.23 L-88.5 -11.37 L-87.61 -10.43 L-86.81 -9.431 L-86.09 -8.368 L-85.46 -7.252 L-84.91 -6.088 L-84.46 -4.885 L-84.11 -3.65 L-83.86 -2.391 L-83.7 -1.116 L-83.65 0.1672 L-83.7 1.451 L-83.86 2.726 L-84.11 3.985 L-84.46 5.219 L-84.91 6.422 L-85.46 7.586 L-86.09 8.702 L-86.81 9.764 L-87.62 10.77 L-88.5 11.7 L-89.45 12.56 L-90.47 13.35 L-91.55 14.05 L-92.67 14.66 L-93.85 15.18 L-95.06 15.6 L-96.3 15.93 L-97.57 16.16 L-98.84 16.29 L-100.1 16.31 L-101.4 16.24 L-102.7 16.06 L-103.9 15.78 L-105.2 15.4 L-106.4 14.93 L-107.5 14.36 L-108.6 13.7 L-109.7 12.96 L-110.6 12.14 L-111.6 11.24 L-112.4 10.27 L-113.2 9.236 L-113.8 8.146 L-114.4 7.005 L-114.9 5.821 L-115.3 4.601 L-115.6 3.353 L-115.8 2.085 L-115.9 0.8044 L-115.9 -0.4799 L-115.8 -1.76 L-115.6 -3.028 L-115.3 -4.276 L-114.9 -5.496 L-114.4 -6.68 L-113.8 -7.821 L-113.2 -8.911 L-112.4 -9.944 L-111.6 -10.91 L-110.6 -11.81 L-109.7 -12.63 L-108.6 -13.38 L-107.5 -14.03 L-106.4 -14.6 L-105.2 -15.07 L-103.9 -15.45 L-102.7 -15.73 L-101.4 -15.91 L-100.1 -15.98 L-98.84 -15.96 L-97.56 -15.83 L-96.3 -15.6 L-95.06 -15.27 L-93.84 -14.85 L-92.67 -14.33 L-91.54 -13.71 L-90.46 -13.01 Z " />
<path stroke="rgb(0,0,0)" stroke-opacity="1" fill="rgb(255,255,255)" fill-opacity="1" d="M-512.3 -512.5 L-511.3 -512.5 L-510.3 -512.5 L-509.3 -512.5 L-508.3 -512.5 L-507.3 -512.5 L-506.4 -512.5 L-505.4 -512.5 L-504.4 -512.5 L-503.4 -512.4 L-502.4 -512.4 L-501.4 -512.4 L-500.5 -512.4 L-499.5 -512.4 L-498.5 -512.4 L-497.5 -512.4 L-496.5 -512.4 L-495.5 -512.3 L-494.6 -512.3 L-493.6 -512.3 L-492.6 -512.3 L-491.6 -512.3 L-490.6 -512.3 L-489.6 -512.3 L-488.7 -512.3 L-487.7 -512.3 L-487.7 -511.3 L-487.7 -510.3 L-487.7 -509.3 L-487.7 -508.3 L-487.7 -507.3 L-487.8 -506.4 L-487.8 -505.4 L-487.8 -504.4 L-487.8 -503.4 L-487.8 -502.4 L-487.8 -501.4 L-487.8 -500.5 L-487.8 -499.5 L-487.8 -498.5 L-487.9 -497.5 L-487.9 -496.5 L-487.9 -495.5 L-487.9 -494.6 L-487.9 -493.6 L-487.9 -492.6 L-487.9 -491.6 L-487.9 -490.6 L-488 -489.6 L-488 -488.7 L-488 -487.7 L-489 -487.7 L-489.9 -487.7 L-490.9 -487.7 L-491.9 -487.7 L-492.9 -487.7 L-493.9 -487.8 L-494.9 -487.8 L-495.8 -487.8 L-496.8 -487.8 L-497.8 -487.8 L-498.8 -487.8 L-499.8 -487.8 L-500.8 -487.8 L-501.7 -487.8 L-502.7 -487.9 L-503.7 -487.9 L-504.7 -487.9 L-505.7 -487.9 L-506.7 -487.9 L-507.6 -487.9 L-508.6 -487.9 L-509.6 -487.9 L-510.6 -488 L-511.6 -488 L-512.6 -488 L-512.5 -489 L-512.5 -489.9 L-512.5 -490.9 L-512.5 -491.9 L-512.5 -492.9 L-512.5 -493.9 L-512.5 -494.9 L-512.5 -495.8 L-512.4 -496.8 L-512.4 -497.8 L-512.4 -498.8 L-512.4 -499.8 L-512.4 -500.8 L-512.4 -501.7 L-512.4 -502.7 L-512.4 -503.7 L-512.4 -504.7 L-512.3 -505.7 L-512.3 -506.7 L-512.3 -507.6 L-512.3 -508.6 L-512.3 -509.6 L-512.3 -510.6 L-512.3 -511.6 L-512.3 -512.5 Z " />
<path stroke="rgb(0,0,0)" stroke-opacity="1" fill="rgb(255,255,255)" fill-opacity="1" d="M122.9 -3.294 L123.1 -1.467 L123.1 0.3696 L123 2.204 L122.8 4.025 L122.4 5.82 L121.9 7.579 L121.2 9.29 L120.4 10.94 L119.5 12.53 L118.4 14.03 L117.2 15.45 L116 16.77 L114.6 17.98 L113.1 19.08 L111.6 20.06 L109.9 20.91 L108.2 21.63 L106.5 22.22 L104.7 22.66 L102.9 22.96 L101.1 23.12 L99.24 23.13 L97.41 23 L95.59 22.72 L93.8 22.29 L92.06 21.73 L90.36 21.02 L88.72 20.19 L87.16 19.23 L85.67 18.15 L84.28 16.95 L82.99 15.64 L81.8 14.24 L80.73 12.75 L79.78 11.17 L78.96 9.531 L78.27 7.827 L77.72 6.074 L77.32 4.283 L77.05 2.466 L76.93 0.6325 L76.96 -1.204 L77.13 -3.033 L77.45 -4.843 L77.91 -6.621 L78.5 -8.358 L79.24 -10.04 L80.11 -11.66 L81.1 -13.21 L82.21 -14.67 L83.44 -16.04 L84.77 -17.3 L86.19 -18.46 L87.71 -19.5 L89.3 -20.42 L90.96 -21.21 L92.68 -21.86 L94.44 -22.38 L96.24 -22.75 L98.06 -22.98 L99.9 -23.06 L101.7 -23 L103.6 -22.79 L105.4 -22.44 L107.1 -21.94 L108.9 -21.31 L110.5 -20.54 L112.1 -19.64 L113.6 -18.62 L115.1 -17.48 L116.4 -16.23 L117.7 -14.87 L118.8 -13.42 L119.8 -11.89 L120.7 -10.28 L121.5 -8.602 L122.1 -6.873 L122.6 -5.099 L122.9 -3.294 Z " />
<path stroke="rgb(0,0,0)" stroke-opacity="1" fill="rgb(255,255,255)" fill-opacity="1" d="M-312.3 -512.5 L-311.3 -512.5 L-310.3 -512.5 L-309.3 -512.5 L-308.3 -512.5 L-307.3 -512.5 L-306.4 -512.5 L-305.4 -512.5 L-304.4 -512.5 L-303.4 -512.4 L-302.4 -512.4 L-301.4 -512.4 L-300.5 -512.4 L-299.5 -512.4 L-298.5 -512.4 L-297.5 -512.4 L-296.5 -512.4 L-295.5 -512.3 L-294.6 -512.3 L-293.6 -512.3 L-292.6 -512.3 L-291.6 -512.3 L-290.6 -512.3 L-289.6 -512.3 L-288.7 -512.3 L-287.7 -512.3 L-287.7 -511.3 L-287.7 -510.3 L-287.7 -509.3 L-287.7 -508.3 L-287.7 -507.3 L-287.8 -506.4 L-287.8 -505.4 L-287.8 -504.4 L-287.8 -503.4 L-287.8 -502.4 L-287.8 -501.4 L-287.8 -500.5 L-287.8 -499.5 L-287.8 -498.5 L-287.9 -497.5 L-287.9 -496.5 L-287.9 -495.5 L-287.9 -494.6 L-287.9 -493.6 L-287.9 -492.6 L-287.9 -491.6 L-287.9 -490.6 L-288 -489.6 L-288 -488.7 L-288 -487.7 L-289 -487.7 L-289.9 -487.7 L-290.9 -487.7 L-291.9 -487.7 L-292.9 -487.7 L-293.9 -487.8 L-294.9 -487.8 L-295.8 -487.8 L-296.8 -487.8 L-297.8 -487.8 L-298.8 -487.8 L-299.8 -487.8 L-300.8 -487.8 L-301.7 -487.8 L-302.7 -487.9 L-303.7 -487.9 L-304.7 -487.9 L-305.7 -487.9 L-306.7 -487.9 L-307.6 -487.9 L-308.6 -487.9 L-309.6 -487.9 L-310.6 -488 L-311.6 -488 L-312.6 -488 L-312.5 -489 L-312.5 -489.9 L-312.5 -490.9 L-312.5 -491.9 L-312.5 -492.9 L-312.5 -493.9 L-312.5 -494.9 L-312.5 -495.8 L-312.4 -496.8 L-312.4 -497.8 L-312.4 -498.8 L-312.4 -499.8 L-312.4 -500.8 L-312.4 -501.7 L-312.4 -502.7 L-312.4 -503.7 L-312.4 -504.7 L-312.3 -505.7 L-312.3 -506.7 L-312.3 -507.6 L-312.3 -508.6 L-312.3 -509.6 L-312.3 -510.6 L-312.3 -511.6 L-312.3 -512.5 Z " />
<path stroke="rgb(0,0,0)" stroke-opacity="1" fill="rgb(255,255,255)" fill-opacity="1" d="M324.7 0.2556 L324.6 2.221 L324.4 4.172 L324 6.097 L323.4 7.983 L322.7 9.818 L321.9 11.59 L320.9 13.29 L319.8 14.91 L318.5 16.43 L317.1 17.85 L315.7 19.15 L314.1 20.34 L312.4 21.39 L310.7 22.31 L308.9 23.09 L307 23.73 L305.1 24.21 L303.2 24.54 L301.2 24.71 L299.3 24.73 L297.3 24.59 L295.3 24.3 L293.4 23.85 L291.6 23.26 L289.7 22.51 L288 21.62 L286.3 20.6 L284.7 19.45 L283.2 18.17 L281.8 16.78 L280.5 15.28 L279.4 13.68 L278.4 12 L277.5 10.24 L276.7 8.423 L276.1 6.547 L275.7 4.631 L275.4 2.685 L275.3 0.7219 L275.3 -1.246 L275.5 -3.205 L275.8 -5.145 L276.3 -7.052 L276.9 -8.914 L277.7 -10.72 L278.6 -12.46 L279.7 -14.12 L280.9 -15.69 L282.2 -17.16 L283.6 -18.52 L285.1 -19.77 L286.7 -20.89 L288.4 -21.88 L290.2 -22.73 L292 -23.43 L293.9 -23.99 L295.9 -24.4 L297.8 -24.65 L299.8 -24.75 L301.7 -24.69 L303.7 -24.47 L305.6 -24.1 L307.5 -23.58 L309.4 -22.91 L311.2 -22.09 L312.9 -21.13 L314.5 -20.04 L316.1 -18.83 L317.5 -17.49 L318.8 -16.05 L320.1 -14.5 L321.1 -12.86 L322.1 -11.14 L322.9 -9.347 L323.6 -7.497 L324.1 -5.6 L324.5 -3.667 L324.7 -1.711 L324.7 0.2556 Z " />
<path stroke="rgb(0,0,0)" stroke-opacity="1" fill="rgb(255,255,255)" fill-opacity="1" d="M-812.4 -412.7 L-811.4 -412.7 L-810.4 -412.7 L-809.4 -412.7 L-808.4 -412.7 L-807.5 -412.6 L-806.5 -412.6 L-805.5 -412.6 L-804.5 -412.6 L-803.5 -412.6 L-802.5 -412.6 L-801.6 -412.6 L-800.6 -412.5 L-799.6 -412.5 L-798.6 -412.5 L-797.6 -412.5 L-796.6 -412.5 L-795.7 -412.5 L-794.7 -412.5 L-793.7 -412.4 L-792.7 -412.4 L-791.7 -412.4 L-790.7 -412.4 L-789.8 -412.4 L-788.8 -412.4 L-787.8 -412.4 L-787.8 -411.4 L-787.8 -410.4 L-787.8 -409.4 L-787.9 -408.4 L-787.9 -407.4 L-787.9 -406.5 L-787.9 -405.5 L-787.9 -404.5 L-787.9 -403.5 L-787.9 -402.5 L-787.9 -401.6 L-788 -400.6 L-788 -399.6 L-788 -398.6 L-788 -397.6 L-788 -396.6 L-788 -395.7 L-788 -394.7 L-788.1 -393.7 L-788.1 -392.7 L-788.1 -391.7 L-788.1 -390.7 L-788.1 -389.8 L-788.1 -388.8 L-788.1 -387.8 L-789.1 -387.8 L-790.1 -387.8 L-791.1 -387.8 L-792.1 -387.8 L-793.1 -387.9 L-794 -387.9 L-795 -387.9 L-796 -387.9 L-797 -387.9 L-798 -387.9 L-799 -387.9 L-799.9 -388 L-800.9 -388 L-801.9 -388 L-802.9 -388 L-803.9 -388 L-804.9 -388 L-805.8 -388 L-806.8 -388.1 L-807.8 -388.1 L-808.8 -388.1 L-809.8 -388.1 L-810.7 -388.1 L-811.7 -388.1 L-812.7 -388.1 L-812.7 -389.1 L-812.7 -390.1 L-812.7 -391.1 L-812.7 -392.1 L-812.6 -393.1 L-812.6 -394 L-812.6 -395 L-812.6 -396 L-812.6 -397 L-812.6 -398 L-812.6 -399 L-812.5 -399.9 L-812.5 -400.9 L-812.5 -401.9 L-812.5 -402.9 L-812.5 -403.9 L-812.5 -404.8 L-812.5 -405.8 L-812.5 -406.8 L-812.4 -407.8 L-812.4 -408.8 L-812.4 -409.8 L-812.4 -410.7 L-812.4 -411.7 L-812.4 -412.7 Z " />
<path stroke="rgb(0,0,0)" stroke-opacity="1" fill="rgb(255,255,255)" fill-opacity="1" d="M-190.5 86.99 L-189.4 87.77 L-188.5 88.63 L-187.6 89.57 L-186.8 90.57 L-186.1 91.63 L-185.5 92.75 L-184.9 93.91 L-184.5 95.11 L-184.1 96.35 L-183.9 97.61 L-183.7 98.88 L-183.7 100.2 L-183.7 101.5 L-183.9 102.7 L-184.1 104 L-184.5 105.2 L-184.9 106.4 L-185.5 107.6 L-186.1 108.7 L-186.8 109.8 L-187.6 110.8 L-188.5 111.7 L-189.5 112.6 L-190.5 113.3 L-191.5 114 L-192.7 114.7 L-193.8 115.2 L-195.1 115.6 L-196.3 115.9 L-197.6 116.2 L-198.8 116.3 L-200.1 116.3 L-201.4 116.2 L-202.7 116.1 L-203.9 115.8 L-205.2 115.4 L-206.4 114.9 L-207.5 114.4 L-208.6 113.7 L-209.7 113 L-210.6 112.1 L-211.6 111.2 L-212.4 110.3 L-213.2 109.2 L-213.8 108.1 L-214.4 107 L-214.9 105.8 L-215.3 104.6 L-215.6 103.4 L-215.8 102.1 L-215.9 100.8 L-215.9 99.52 L-215.8 98.24 L-215.6 96.97 L-215.3 95.72 L-214.9 94.5 L-214.4 93.32 L-213.8 92.18 L-213.2 91.09 L-212.4 90.06 L-211.6 89.09 L-210.6 88.19 L-209.7 87.37 L-208.6 86.62 L-207.5 85.97 L-206.4 85.4 L-205.2 84.93 L-203.9 84.55 L-202.7 84.27 L-201.4 84.09 L-200.1 84.02 L-198.8 84.04 L-197.6 84.17 L-196.3 84.4 L-195.1 84.73 L-193.8 85.15 L-192.7 85.67 L-191.5 86.29 L-190.5 86.99 Z " />
<path stroke="rgb(0,0,0)" stroke-opacity="1" fill="rgb(255,255,255)" fill-opacity="1" d="M-612.3 -412.5 L-611.3 -412.5 L-610.3 -412.5 L-609.3 -412.5 L-608.3 -412.5 L-607.3 -412.5 L-606.4 -412.5 L-605.4 -412.5 L-604.4 -412.5 L-603.4 -412.4 L-602.4 -412.4 L-601.4 -412.4 L-600.5 -412.4 L-599.5 -412.4 L-598.5 -412.4 L-597.5 -412.4 L-596.5 -412.4 L-595.5 -412.3 L-594.6 -412.3 L-593.6 -412.3 L-592.6 -412.3 L-591.6 -412.3 L-590.6 -412.3 L-589.6 -412.3 L-588.7 -412.3 L-587.7 -412.3 L-587.7 -411.3 L-587.7 -410.3 L-587.7 -409.3 L-587.7 -408.3 L-587.7 -407.3 L-587.8 -406.4 L-587.8 -405.4 L-587.8 -404.4 L-587.8 -403.4 L-587.8 -402.4 L-587.8 -401.4 L-587.8 -400.5 L-587.8 -399.5 L-587.8 -398.5 L-587.9 -397.5 L-587.9 -396.5 L-587.9 -395.5 L-587.9 -394.6 L-587.9 -393.6 L-587.9 -392.6 L-587.9 -391.6 L-587.9 -390.6 L-588 -389.6 L-588 -388.7 L-588 -387.7 L-589 -387.7 L-589.9 -387.7 L-590.9 -387.7 L-591.9 -387.7 L-592.9 -387.7 L-593.9 -387.8 L-594.9 -387.8 L-595.8 -387.8 L-596.8 -387.8 L-597.8 -387.8 L-598.8 -387.8 L-599.8 -387.8 L-600.8 -387.8 L-601.7 -387.8 L-602.7 -387.9 L-603.7 -387.9 L-604.7 -387.9 L-605.7 -387.9 L-606.7 -387.9 L-607.6 -387.9 L-608.6 -387.9 L-609.6 -387.9 L-610.6 -388 L-611.6 -388 L-612.6 -388 L-612.5 -389 L-612.5 -389.9 L-612.5 -390.9 L-612.5 -391.9 L-612.5 -392.9 L-612.5 -393.9 L-612.5 -394.9 L-612.5 -395.8 L-612.4 -396.8 L-612.4 -397.8 L-612.4 -398.8 L-612.4 -399.8 L-612.4 -400.8 L-612.4 -401.7 L-612.4 -402.7 L-612.4 -403.7 L-612.4 -404.7 L-612.3 -405.7 L-612.3 -406.7 L-612.3 -407.6 L-612.3 -408.6 L-612.3 -409.6 L-612.3 -410.6 L-612.3 -411.6 L-612.3 -412.5 Z " />
<path stroke="rgb(0,0,0)" stroke-opacity="1" fill="rgb(255,255,255)" fill-opacity="1" d="M22.89 96.71 L23.08 98.53 L23.13 100.4 L23.03 102.2 L22.78 104 L22.4 105.8 L21.87 107.6 L21.2 109.3 L20.4 110.9 L19.47 112.5 L18.41 114 L17.24 115.4 L15.96 116.8 L14.58 118 L13.11 119.1 L11.56 120.1 L9.933 120.9 L8.243 121.6 L6.502 122.2 L4.719 122.7 L2.907 123 L1.077 123.1 L-0.7604 123.1 L-2.592 123 L-4.408 122.7 L-6.195 122.3 L-7.943 121.7 L-9.641 121 L-11.28 120.2 L-12.84 119.2 L-14.33 118.1 L-15.72 116.9 L-17.01 115.6 L-18.2 114.2 L-19.27 112.7 L-20.22 111.2 L-21.04 109.5 L-21.73 107.8 L-22.28 106.1 L-22.68 104.3 L-22.95 102.5 L-23.07 100.6 L-23.04 98.8 L-22.87 96.97 L-22.55 95.16 L-22.09 93.38 L-21.5 91.64 L-20.76 89.96 L-19.89 88.34 L-18.9 86.79 L-17.79 85.33 L-16.56 83.96 L-15.23 82.7 L-13.81 81.54 L-12.29 80.5 L-10.7 79.58 L-9.042 78.79 L-7.325 78.14 L-5.561 77.62 L-3.763 77.25 L-1.94 77.02 L-0.1047 76.94 L1.731 77 L3.556 77.21 L5.359 77.56 L7.128 78.06 L8.853 78.69 L10.52 79.46 L12.12 80.36 L13.65 81.38 L15.09 82.52 L16.43 83.77 L17.67 85.13 L18.8 86.58 L19.81 88.11 L20.7 89.72 L21.45 91.4 L22.07 93.13 L22.55 94.9 L22.89 96.71 Z " />
<path stroke="rgb(0,0,0)" stroke-opacity="1" fill="rgb(255,255,255)" fill-opacity="1" d="M-412.3 -412.5 L-411.3 -412.5 L-410.3 -412.5 L-409.3 -412.5 L-408.3 -412.5 L-407.3 -412.5 L-406.4 -412.5 L-405.4 -412.5 L-404.4 -412.5 L-403.4 -412.4 L-402.4 -412.4 L-401.4 -412.4 L-400.5 -412.4 L-399.5 -412.4 L-398.5 -412.4 L-397.5 -412.4 L-396.5 -412.4 L-395.5 -412.3 L-394.6 -412.3 L-393.6 -412.3 L-392.6 -412.3 L-391.6 -412.3 L-390.6 -412.3 L-389.6 -412.3 L-388.7 -412.3 L-387.7 -412.3 L-387.7 -411.3 L-387.7 -410.3 L-387.7 -409.3 L-387.7 -408.3 L-387.7 -407.3 L-387.8 -406.4 L-387.8 -405.4 L-387.8 -404.4 L-387.8 -403.4 L-387.8 -402.4 L-387.8 -401.4 L-387.8 -400.5 L-387.8 -399.5 L-387.8 -398.5 L-387.9 -397.5 L-387.9 -396.5 L-387.9 -395.5 L-387.9 -394.6 L-387.9 -393.6 L-387.9 -392.6 L-387.9 -391.6 L-387.9 -390.6 L-388 -389.6 L-388 -388.7 L-388 -387.7 L-389 -387.7 L-389.9 -387.7 L-390.9 -387.7 L-391.9 -387.7 L-392.9 -387.7 L-393.9 -387.8 L-394.9 -387.8 L-395.8 -387.8 L-396.8 -387.8 L-397.8 -387.8 L-398.8 -387.8 L-399.8 -387.8 L-400.8 -387.8 L-401.7 -387.8 L-402.7 -387.9 L-403.7 -387.9 L-404.7 -387.9 L-405.7 -387.9 L-406.7 -387.9 L-407.6 -387.9 L-408.6 -387.9 L-409.6 -387.9 L-410.6 -388 L-411.6 -388 L-412.6 -388 L-412.5 -389 L-412.5 -389.9 L-412.5 -390.9 L-412.5 -391.9 L-412.5 -392.9 L-412.5 -393.9 L-412.5 -394.9 L-412.5 -395.8 L-412.4 -396.8 L-412.4 -397.8 L-412.4 -398.8 L-412.4 -399.8 L-412.4 -400.8 L-412.4 -401.7 L-412.4 -402.7 L-412.4 -403.7 L-412.4 -404.7 L-412.3 -405.7 L-412.3 -406.7 L-412.3 -407.6 L-412.3 -408.6 L-412.3 -409.6 L-412.3 -410.6 L-412.3 -411.6 L-412.3 -412.5 Z " />
<path stroke="rgb(0,0,0)" stroke-opacity="1" fill="rgb(255,255,255)" fill-opacity="1" d="M224.7 100.3 L224.6 102.2 L224.4 104.2 L224 106.1 L223.4 108 L222.7 109.8 L221.9 111.6 L220.9 113.3 L219.8 114.9 L218.5 116.4 L217.1 117.8 L215.7 119.2 L214.1 120.3 L212.4 121.4 L210.7 122.3 L208.9 123.1 L207 123.7 L205.1 124.2 L203.2 124.5 L201.2 124.7 L199.3 124.7 L197.3 124.6 L195.3 124.3 L193.4 123.9 L191.6 123.3 L189.7 122.5 L188 121.6 L186.3 120.6 L184.7 119.4 L183.2 118.2 L181.8 116.8 L180.5 115.3 L179.4 113.7 L178.4 112 L177.5 110.2 L176.7 108.4 L176.1 106.5 L175.7 104.6 L175.4 102.7 L175.3 100.7 L175.3 98.75 L175.5 96.79 L175.8 94.86 L176.3 92.95 L176.9 91.09 L177.7 89.28 L178.6 87.54 L179.7 85.88 L180.9 84.31 L182.2 82.84 L183.6 81.48 L185.1 80.23 L186.7 79.11 L188.4 78.12 L190.2 77.27 L192 76.57 L193.9 76.01 L195.9 75.6 L197.8 75.35 L199.8 75.25 L201.7 75.31 L203.7 75.53 L205.6 75.9 L207.5 76.42 L209.4 77.09 L211.2 77.91 L212.9 78.87 L214.5 79.96 L216.1 81.17 L217.5 82.51 L218.8 83.95 L220.1 85.5 L221.1 87.14 L222.1 88.86 L222.9 90.65 L223.6 92.5 L224.1 94.4 L224.5 96.33 L224.7 98.29 L224.7 100.3 Z " />
<path stroke="rgb(0,0,0)" stroke-opacity="1" fill="rgb(255,255,255)" fill-opacity="1" d="M-212.3 -412.5 L-211.3 -412.5 L-210.3 -412.5 L-209.3 -412.5 L-208.3 -412.5 L-207.3 -412.5 L-206.4 -412.5 L-205.4 -412.5 L-204.4 -412.5 L-203.4 -412.4 L-202.4 -412.4 L-201.4 -412.4 L-200.5 -412.4 L-199.5 -412.4 L-198.5 -412.4 L-197.5 -412.4 L-196.5 -412.4 L-195.5 -412.3 L-194.6 -412.3 L-193.6 -412.3 L-192.6 -412.3 L-191.6 -412.3 L-190.6 -412.3 L-189.6 -412.3 L-188.7 -412.3 L-187.7 -412.3 L-187.7 -411.3 L-187.7 -410.3 L-187.7 -409.3 L-187.7 -408.3 L-187.7 -407.3 L-187.8 -406.4 L-187.8 -405.4 L-187.8 -404.4 L-187.8 -403.4 L-187.8 -402.4 L-187.8 -401.4 L-187.8 -400.5 L-187.8 -399.5 L-187.8 -398.5 L-187.9 -397.5 L-187.9 -396.5 L-187.9 -395.5 L-187.9 -394.6 L-187.9 -393.6 L-187.9 -392.6 L-187.9 -391.6 L-187.9 -390.6 L-188 -389.6 L-188 -388.7 L-188 -387.7 L-189 -387.7 L-189.9 -387.7 L-190.9 -387.7 L-191.9 -387.7 L-192.9 -387.7 L-193.9 -387.8 L-194.9 -387.8 L-195.8 -387.8 L-196.8 -387.8 L-197.8 -387.8 L-198.8 -387.8 L-199.8 -387.8 L-200.8 -387.8 L-201.7 -387.8 L-202.7 -387.9 L-203.7 -387.9 L-204.7 -387.9 L-205.7 -387.9 L-206.7 -387.9 L-207.6 -387.9 L-208.6 -387.9 L-209.6 -387.9 L-210.6 -388 L-211.6 -388 L-212.6 -388 L-212.5 -389 L-212.5 -389.9 L-212.5 -390.9 L-212.5 -391.9 L-212.5 -392.9 L-212.5 -393.9 L-212.5 -394.9 L-212.5 -395.8 L-212.4 -396.8 L-212.4 -397.8 L-212.4 -398.8 L-212.4 -399.8 L-212.4 -400.8 L-212.4 -401.7 L-212.4 -402.7 L-212.4 -403.7 L-212.4 -404.7 L-212.3 -405.7 L-212.3 -406.7 L-212.3 -407.6 L-212.3 -408.6 L-212.3 -409.6 L-212.3 -410.6 L-212.3 -411.6 L-212.3 -412.5 Z " />
<path stroke="rgb(0,0,0)" stroke-opacity="1" fill="rgb(255,255,255)" fill-opacity="1" d="M-290.5 187 L-289.4 187.8 L-288.5 188.6 L-287.6 189.6 L-286.8 190.6 L-286.1 191.6 L-285.5 192.7 L-284.9 193.9 L-284.5 195.1 L-284.1 196.3 L-283.9 197.6 L-283.7 198.9 L-283.7 200.2 L-283.7 201.5 L-283.9 202.7 L-284.1 204 L-284.5 205.2 L-284.9 206.4 L-285.5 207.6 L-286.1 208.7 L-286.8 209.8 L-287.6 210.8 L-288.5 211.7 L-289.5 212.6 L-290.5 213.3 L-291.5 214 L-292.7 214.7 L-293.8 215.2 L-295.1 215.6 L-296.3 215.9 L-297.6 216.2 L-298.8 216.3 L-300.1 216.3 L-301.4 216.2 L-302.7 216.1 L-303.9 215.8 L-305.2 215.4 L-306.4 214.9 L-307.5 214.4 L-308.6 213.7 L-309.7 213 L-310.6 212.1 L-311.6 211.2 L-312.4 210.3 L-313.2 209.2 L-313.8 208.1 L-314.4 207 L-314.9 205.8 L-315.3 204.6 L-315.6 203.4 L-315.8 202.1 L-315.9 200.8 L-315.9 199.5 L-315.8 198.2 L-315.6 197 L-315.3 195.7 L-314.9 194.5 L-314.4 193.3 L-313.8 192.2 L-313.2 191.1 L-312.4 190.1 L-311.6 189.1 L-310.6 188.2 L-309.7 187.4 L-308.6 186.6 L-307.5 186 L-306.4 185.4 L-305.2 184.9 L-303.9 184.5 L-302.7 184.3 L-301.4 184.1 L-300.1 184 L-298.8 184 L-297.6 184.2 L-296.3 184.4 L-295.1 184.7 L-293.8 185.2 L-292.7 185.7 L-291.5 186.3 L-290.5 187 Z " />
<path stroke="rgb(0,0,0)" stroke-opacity="1" fill="rgb(255,255,255)" fill-opacity="1" d="M-712.3 -312.5 L-711.3 -312.5 L-710.3 -312.5 L-709.3 -312.5 L-708.3 -312.5 L-707.3 -312.5 L-706.4 -312.5 L-705.4 -312.5 L-704.4 -312.5 L-703.4 -312.4 L-702.4 -312.4 L-701.4 -312.4 L-700.5 -312.4 L-699.5 -312.4 L-698.5 -312.4 L-697.5 -312.4 L-696.5 -312.4 L-695.5 -312.3 L-694.6 -312.3 L-693.6 -312.3 L-692.6 -312.3 L-691.6 -312.3 L-690.6 -312.3 L-689.6 -312.3 L-688.7 -312.3 L-687.7 -312.3 L-687.7 -311.3 L-687.7 -310.3 L-687.7 -309.3 L-687.7 -308.3 L-687.7 -307.3 L-687.8 -306.4 L-687.8 -305.4 L-687.8 -304.4 L-687.8 -303.4 L-687.8 -302.4 L-687.8 -301.4 L-687.8 -300.5 L-687.8 -299.5 L-687.8 -298.5 L-687.9 -297.5 L-687.9 -296.5 L-687.9 -295.5 L-687.9 -294.6 L-687.9 -293.6 L-687.9 -292.6 L-687.9 -291.6 L-687.9 -290.6 L-688 -289.6 L-688 -288.7 L-688 -287.7 L-689 -287.7 L-689.9 -287.7 L-690.9 -287.7 L-691.9 -287.7 L-692.9 -287.7 L-693.9 -287.8 L-694.9 -287.8 L-695.8 -287.8 L-696.8 -287.8 L-697.8 -287.8 L-698.8 -287.8 L-699.8 -287.8 L-700.8 -287.8 L-701.7 -287.8 L-702.7 -287.9 L-703.7 -287.9 L-704.7 -287.9 L-705.7 -287.9 L-706.7 -287.9 L-707.6 -287.9 L-708.6 -287.9 L-709.6 -287.9 L-710.6 -288 L-711.6 -288 L-712.6 -288 L-712.5 -289 L-712.5 -289.9 L-712.5 -290.9 L-712.5 -291.9 L-712.5 -292.9 L-712.5 -293.9 L-712.5 -294.9 L-712.5 -295.8 L-712.4 -296.8 L-712.4 -297.8 L-712.4 -298.8 L-712.4 -299.8 L-712.4 -300.8 L-712.4 -301.7 L-712.4 -302.7 L-712.4 -303.7 L-712.4 -304.7 L-712.3 -305.7 L-712.3 -306.7 L-712.3 -307.6 L-712.3 -308.6 L-712.3 -309.6 L-712.3 -310.6 L-712.3 -311.6 L-712.3 -312.5 Z " />
<path stroke="rgb(0,0,0)" stroke-opacity="1" fill="rgb(255,255,255)" fill-opacity="1" d="M-77.11 196.7 L-76.92 198.5 L-76.87 200.4 L-76.97 202.2 L-77.22 204 L-77.6 205.8 L-78.13 207.6 L-78.8 209.3 L-79.6 210.9 L-80.53 212.5 L-81.59 214 L-82.76 215.4 L-84.04 216.8 L-85.42 218 L-86.89 219.1 L-88.44 220.1 L-90.07 220.9 L-91.76 221.6 L-93.5 222.2 L-95.28 222.7 L-97.09 223 L-98.92 223.1 L-100.8 223.1 L-102.6 223 L-104.4 222.7 L-106.2 222.3 L-107.9 221.7 L-109.6 221 L-111.3 220.2 L-112.8 219.2 L-114.3 218.1 L-115.7 216.9 L-117 215.6 L-118.2 214.2 L-119.3 212.7 L-120.2 211.2 L-121 209.5 L-121.7 207.8 L-122.3 206.1 L-122.7 204.3 L-122.9 202.5 L-123.1 200.6 L-123 198.8 L-122.9 197 L-122.6 195.2 L-122.1 193.4 L-121.5 191.6 L-120.8 190 L-119.9 188.3 L-118.9 186.8 L-117.8 185.3 L-116.6 184 L-115.2 182.7 L-113.8 181.5 L-112.3 180.5 L-110.7 179.6 L-109 178.8 L-107.3 178.1 L-105.6 177.6 L-103.8 177.3 L-101.9 177 L-100.1 176.9 L-98.27 177 L-96.44 177.2 L-94.64 177.6 L-92.87 178.1 L-91.15 178.7 L-89.48 179.5 L-87.88 180.4 L-86.35 181.4 L-84.91 182.5 L-83.57 183.8 L-82.33 185.1 L-81.2 186.6 L-80.19 188.1 L-79.3 189.7 L-78.55 191.4 L-77.93 193.1 L-77.45 194.9 L-77.11 196.7 Z " />
<path stroke="rgb(0,0,0)" stroke-opacity="1" fill="rgb(255,255,255)" fill-opacity="1" d="M-512.3 -312.5 L-511.3 -312.5 L-510.3 -312.5 L-509.3 -312.5 L-508.3 -312.5 L-507.3 -312.5 L-506.4 -312.5 L-505.4 -312.5 L-504.4 -312.5 L-503.4 -312.4 L-502.4 -312.4 L-501.4 -312.4 L-500.5 -312.4 L-499.5 -312.4 L-498.5 -312.4 L-497.5 -312.4 L-496.5 -312.4 L-495.5 -312.3 L-494.6 -312.3 L-493.6 -312.3 L-492.6 -312.3 L-491.6 -312.3 L-490.6 -312.3 L-489.6 -312.3 L-488.7 -312.3 L-487.7 -312.3 L-487.7 -311.3 L-487.7 -310.3 L-487.7 -309.3 L-487.7 -308.3 L-487.7 -307.3 L-487.8 -306.4 L-487.8 -305.4 L-487.8 -304.4 L-487.8 -303.4 L-487.8 -302.4 L-487.8 -301.4 L-487.8 -300.5 L-487.8 -299.5 L-487.8 -298.5 L-487.9 -297.5 L-487.9 -296.5 L-487.9 -295.5 L-487.9 -294.6 L-487.9 -293.6 L-487.9 -292.6 L-487.9 -291.6 L-487.9 -290.6 L-488 -289.6 L-488 -288.7 L-488 -287.7 L-489 -287.7 L-489.9 -287.7 L-490.9 -287.7 L-491.9 -287.7 L-492.9 -287.7 L-493.9 -287.8 L-494.9 -287.8 L-495.8 -287.8 L-496.8 -287.8 L-497.8 -287.8 L-498.8 -287.8 L-499.8 -287.8 L-500.8 -287.8 L-501.7 -287.8 L-502.7 -287.9 L-503.7 -287.9 L-504.7 -287.9 L-505.7 -287.9 L-506.7 -287.9 L-507.6 -287.9 L-508.6 -287.9 L-509.6 -287.9 L-510.6 -288 L-511.6 -288 L-512.6 -288 L-512.5 -289 L-512.5 -289.9 L-512.5 -290.9 L-512.5 -291.9 L-512.5 -292.9 L-512.5 -293.9 L-512.5 -294.9 L-512.5 -295.8 L-512.4 -296.8 L-512.4 -297.8 L-512.4 -298.8 L-512.4 -299.8 L-512.4 -300.8 L-512.4 -301.7 L-512.4 -302.7 L-512.4 -303.7 L-512.4 -304.7 L-512.3 -305.7 L-512.3 -306.7 L-512.3 -307.6 L-512.3 -308.6 L-512.3 -309.6 L-512.3 -310.6 L-512.3 -311.6 L-512.3 -312.5 Z " />
<path stroke="rgb(0,0,0)" stroke-opacity="1" fill="rgb(255,255,255)" fill-opacity="1" d="M124.7 200.3 L124.6 202.2 L124.4 204.2 L124 206.1 L123.4 208 L122.7 209.8 L121.9 211.6 L120.9 213.3 L119.8 214.9 L118.5 216.4 L117.1 217.8 L115.7 219.2 L114.1 220.3 L112.4 221.4 L110.7 222.3 L108.9 223.1 L107 223.7 L105.1 224.2 L103.2 224.5 L101.2 224.7 L99.25 224.7 L97.29 224.6 L95.34 224.3 L93.43 223.9 L91.55 223.3 L89.73 222.5 L87.98 221.6 L86.3 220.6 L84.7 219.4 L83.21 218.2 L81.81 216.8 L80.54 215.3 L79.39 213.7 L78.36 212 L77.48 210.2 L76.74 208.4 L76.14 206.5 L75.69 204.6 L75.4 202.7 L75.27 200.7 L75.29 198.8 L75.47 196.8 L75.8 194.9 L76.28 192.9 L76.92 191.1 L77.7 189.3 L78.62 187.5 L79.68 185.9 L80.86 184.3 L82.17 182.8 L83.59 181.5 L85.11 180.2 L86.73 179.1 L88.43 178.1 L90.21 177.3 L92.04 176.6 L93.93 176 L95.85 175.6 L97.8 175.3 L99.77 175.3 L101.7 175.3 L103.7 175.5 L105.6 175.9 L107.5 176.4 L109.4 177.1 L111.2 177.9 L112.9 178.9 L114.5 180 L116.1 181.2 L117.5 182.5 L118.8 184 L120.1 185.5 L121.1 187.1 L122.1 188.9 L122.9 190.7 L123.6 192.5 L124.1 194.4 L124.5 196.3 L124.7 198.3 L124.7 200.3 Z " />
<path stroke="rgb(0,0,0)" stroke-opacity="1" fill="rgb(255,255,255)" fill-opacity="1" d="M-312.3 -312.5 L-311.3 -312.5 L-310.3 -312.5 L-309.3 -312.5 L-308.3 -312.5 L-307.3 -312.5 L-306.4 -312.5 L-305.4 -312.5 L-304.4 -312.5 L-303.4 -312.4 L-302.4 -312.4 L-301.4 -312.4 L-300.5 -312.4 L-299.5 -312.4 L-298.5 -312.4 L-297.5 -312.4 L-296.5 -312.4 L-295.5 -312.3 L-294.6 -312.3 L-293.6 -312.3 L-292.6 -312.3 L-291.6 -312.3 L-290.6 -312.3 L-289.6 -312.3 L-288.7 -312.3 L-287.7 -312.3 L-287.7 -311.3 L-287.7 -310.3 L-287.7 -309.3 L-287.7 -308.3 L-287.7 -307.3 L-287.8 -306.4 L-287.8 -305.4 L-287.8 -304.4 L-287.8 -303.4 L-287.8 -302.4 L-287.8 -301.4 L-287.8 -300.5 L-287.8 -299.5 L-287.8 -298.5 L-287.9 -297.5 L-287.9 -296.5 L-287.9 -295.5 L-287.9 -294.6 L-287.9 -293.6 L-287.9 -292.6 L-287.9 -291.6 L-287.9 -290.6 L-288 -289.6 L-288 -288.7 L-288 -287.7 L-289 -287.7 L-289.9 -287.7 L-290.9 -287.7 L-291.9 -287.7 L-292.9 -287.7 L-293.9 -287.8 L-294.9 -287.8 L-295.8 -287.8 L-296.8 -287.8 L-297.8 -287.8 L-298.8 -287.8 L-299.8 -287.8 L-300.8 -287.8 L-301.7 -287.8 L-302.7 -287.9 L-303.7 -287.9 L-304.7 -287.9 L-305.7 -287.9 L-306.7 -287.9 L-307.6 -287.9 L-308.6 -287.9 L-309.6 -287.9 L-310.6 -288 L-311.6 -288 L-312.6 -288 L-312.5 -289 L-312.5 -289.9 L-312.5 -290.9 L-312.5 -291.9 L-312.5 -292.9 L-312.5 -293.9 L-312.5 -294.9 L-312.5 -295.8 L-312.4 -296.8 L-312.4 -297.8 L-312.4 -298.8 L-312.4 -299.8 L-312.4 -300.8 L-312.4 -301.7 L-312.4 -302.7 L-312.4 -303.7 L-312.4 -304.7 L-312.3 -305.7 L-312.3 -306.7 L-312.3 -307.6 L-312.3 -308.6 L-312.3 -309.6 L-312.3 -310.6 L-312.3 -311.6 L-312.3 -312.5 Z " />
<path stroke="rgb(0,0,0)" stroke-opacity="1" fill="rgb(255,255,255)" fill-opacity="1" d="M324.8 200.3 L324.7 202.2 L324.4 204.2 L324 206.1 L323.4 208 L322.7 209.8 L321.9 211.6 L320.9 213.3 L319.7 214.9 L318.5 216.4 L317.1 217.9 L315.7 219.2 L314.1 220.3 L312.4 221.4 L310.7 222.3 L308.9 223.1 L307 223.7 L305.1 224.2 L303.2 224.5 L301.2 224.7 L299.2 224.7 L297.3 224.6 L295.3 224.3 L293.4 223.9 L291.5 223.3 L289.7 222.5 L288 221.6 L286.3 220.6 L284.7 219.4 L283.2 218.2 L281.8 216.8 L280.5 215.3 L279.4 213.7 L278.4 212 L277.5 210.2 L276.7 208.4 L276.1 206.5 L275.7 204.6 L275.4 202.7 L275.3 200.7 L275.3 198.7 L275.5 196.8 L275.8 194.8 L276.3 192.9 L276.9 191.1 L277.7 189.3 L278.6 187.5 L279.7 185.9 L280.9 184.3 L282.2 182.8 L283.6 181.5 L285.1 180.2 L286.7 179.1 L288.4 178.1 L290.2 177.3 L292.1 176.6 L293.9 176 L295.9 175.6 L297.8 175.3 L299.8 175.2 L301.7 175.3 L303.7 175.5 L305.6 175.9 L307.5 176.4 L309.4 177.1 L311.2 177.9 L312.9 178.9 L314.5 180 L316.1 181.2 L317.5 182.5 L318.9 184 L320.1 185.5 L321.2 187.1 L322.1 188.9 L322.9 190.7 L323.6 192.5 L324.1 194.4 L324.5 196.3 L324.7 198.3 L324.8 200.3 Z " />
<path stroke="rgb(0,0,0)" stroke-opacity="1" fill="rgb(255,255,255)" fill-opacity="1" d="M-812.3 -212.5 L-811.3 -212.5 L-810.3 -212.5 L-809.3 -212.5 L-808.3 -212.5 L-807.3 -212.5 L-806.4 -212.5 L-805.4 -212.5 L-804.4 -212.5 L-803.4 -212.4 L-802.4 -212.4 L-801.4 -212.4 L-800.5 -212.4 L-799.5 -212.4 L-798.5 -212.4 L-797.5 -212.4 L-796.5 -212.4 L-795.5 -212.3 L-794.6 -212.3 L-793.6 -212.3 L-792.6 -212.3 L-791.6 -212.3 L-790.6 -212.3 L-789.6 -212.3 L-788.7 -212.3 L-787.7 -212.3 L-787.7 -211.3 L-787.7 -210.3 L-787.7 -209.3 L-787.7 -208.3 L-787.7 -207.3 L-787.8 -206.4 L-787.8 -205.4 L-787.8 -204.4 L-787.8 -203.4 L-787.8 -202.4 L-787.8 -201.4 L-787.8 -200.5 L-787.8 -199.5 L-787.8 -198.5 L-787.9 -197.5 L-787.9 -196.5 L-787.9 -195.5 L-787.9 -194.6 L-787.9 -193.6 L-787.9 -192.6 L-787.9 -191.6 L-787.9 -190.6 L-788 -189.6 L-788 -188.7 L-788 -187.7 L-789 -187.7 L-789.9 -187.7 L-790.9 -187.7 L-791.9 -187.7 L-792.9 -187.7 L-793.9 -187.8 L-794.9 -187.8 L-795.8 -187.8 L-796.8 -187.8 L-797.8 -187.8 L-798.8 -187.8 L-799.8 -187.8 L-800.8 -187.8 L-801.7 -187.8 L-802.7 -187.9 L-803.7 -187.9 L-804.7 -187.9 L-805.7 -187.9 L-806.7 -187.9 L-807.6 -187.9 L-808.6 -187.9 L-809.6 -187.9 L-810.6 -188 L-811.6 -188 L-812.6 -188 L-812.5 -189 L-812.5 -189.9 L-812.5 -190.9 L-812.5 -191.9 L-812.5 -192.9 L-812.5 -193.9 L-812.5 -194.9 L-812.5 -195.8 L-812.4 -196.8 L-812.4 -197.8 L-812.4 -198.8 L-812.4 -199.8 L-812.4 -200.8 L-812.4 -201.7 L-812.4 -202.7 L-812.4 -203.7 L-812.4 -204.7 L-812.3 -205.7 L-812.3 -206.7 L-812.3 -207.6 L-812.3 -208.6 L-812.3 -209.6 L-812.3 -210.6 L-812.3 -211.6 L-812.3 -212.5 Z " />
<path stroke="rgb(0,0,0)" stroke-opacity="1" fill="rgb(255,255,255)" fill-opacity="1" d="M-177.1 296.7 L-176.9 298.5 L-176.9 300.4 L-177 302.2 L-177.2 304 L-177.6 305.8 L-178.1 307.6 L-178.8 309.3 L-179.6 310.9 L-180.5 312.5 L-181.6 314 L-182.8 315.4 L-184 316.8 L-185.4 318 L-186.9 319.1 L-188.4 320.1 L-190.1 320.9 L-191.8 321.6 L-193.5 322.2 L-195.3 322.7 L-197.1 323 L-198.9 323.1 L-200.8 323.1 L-202.6 323 L-204.4 322.7 L-206.2 322.3 L-207.9 321.7 L-209.6 321 L-211.3 320.2 L-212.8 319.2 L-214.3 318.1 L-215.7 316.9 L-217 315.6 L-218.2 314.2 L-219.3 312.7 L-220.2 311.2 L-221 309.5 L-221.7 307.8 L-222.3 306.1 L-222.7 304.3 L-222.9 302.5 L-223.1 300.6 L-223 298.8 L-222.9 297 L-222.6 295.2 L-222.1 293.4 L-221.5 291.6 L-220.8 290 L-219.9 288.3 L-218.9 286.8 L-217.8 285.3 L-216.6 284 L-215.2 282.7 L-213.8 281.5 L-212.3 280.5 L-210.7 279.6 L-209 278.8 L-207.3 278.1 L-205.6 277.6 L-203.8 277.3 L-201.9 277 L-200.1 276.9 L-198.3 277 L-196.4 277.2 L-194.6 277.6 L-192.9 278.1 L-191.1 278.7 L-189.5 279.5 L-187.9 280.4 L-186.4 281.4 L-184.9 282.5 L-183.6 283.8 L-182.3 285.1 L-181.2 286.6 L-180.2 288.1 L-179.3 289.7 L-178.5 291.4 L-177.9 293.1 L-177.4 294.9 L-177.1 296.7 Z " />
<path stroke="rgb(0,0,0)" stroke-opacity="1" fill="rgb(255,255,255)" fill-opacity="1" d="M-612.3 -212.5 L-611.3 -212.5 L-610.3 -212.5 L-609.3 -212.5 L-608.3 -212.5 L-607.3 -212.5 L-606.4 -212.5 L-605.4 -212.5 L-604.4 -212.5 L-603.4 -212.4 L-602.4 -212.4 L-601.4 -212.4 L-600.5 -212.4 L-599.5 -212.4 L-598.5 -212.4 L-597.5 -212.4 L-596.5 -212.4 L-595.5 -212.3 L-594.6 -212.3 L-593.6 -212.3 L-592.6 -212.3 L-591.6 -212.3 L-590.6 -212.3 L-589.6 -212.3 L-588.7 -212.3 L-587.7 -212.3 L-587.7 -211.3 L-587.7 -210.3 L-587.7 -209.3 L-587.7 -208.3 L-587.7 -207.3 L-587.8 -206.4 L-587.8 -205.4 L-587.8 -204.4 L-587.8 -203.4 L-587.8 -202.4 L-587.8 -201.4 L-587.8 -200.5 L-587.8 -199.5 L-587.8 -198.5 L-587.9 -197.5 L-587.9 -196.5 L-587.9 -195.5 L-587.9 -194.6 L-587.9 -193.6 L-587.9 -192.6 L-587.9 -191.6 L-587.9 -190.6 L-588 -189.6 L-588 -188.7 L-588 -187.7 L-589 -187.7 L-589.9 -187.7 L-590.9 -187.7 L-591.9 -187.7 L-592.9 -187.7 L-593.9 -187.8 L-594.9 -187.8 L-595.8 -187.8 L-596.8 -187.8 L-597.8 -187.8 L-598.8 -187.8 L-599.8 -187.8 L-600.8 -187.8 L-601.7 -187.8 L-602.7 -187.9 L-603.7 -187.9 L-604.7 -187.9 L-605.7 -187.9 L-606.7 -187.9 L-607.6 -187.9 L-608.6 -187.9 L-609.6 -187.9 L-610.6 -188 L-611.6 -188 L-612.6 -188 L-612.5 -189 L-612.5 -189.9 L-612.5 -190.9 L-612.5 -191.9 L-612.5 -192.9 L-612.5 -193.9 L-612.5 -194.9 L-612.5 -195.8 L-612.4 -196.8 L-612.4 -197.8 L-612.4 -198.8 L-612.4 -199.8 L-612.4 -200.8 L-612.4 -201.7 L-612.4 -202.7 L-612.4 -203.7 L-612.4 -204.7 L-612.3 -205.7 L-612.3 -206.7 L-612.3 -207.6 L-612.3 -208.6 L-612.3 -209.6 L-612.3 -210.6 L-612.3 -211.6 L-612.3 -212.5 Z " />
<path stroke="rgb(0,0,0)" stroke-opacity="1" fill="rgb(255,255,255)" fill-opacity="1" d="M24.75 300.3 L24.65 302.2 L24.39 304.2 L23.99 306.1 L23.43 308 L22.72 309.8 L21.86 311.6 L20.87 313.3 L19.75 314.9 L18.5 316.4 L17.14 317.8 L15.67 319.2 L14.1 320.3 L12.44 321.4 L10.7 322.3 L8.89 323.1 L7.027 323.7 L5.12 324.2 L3.18 324.5 L1.22 324.7 L-0.7476 324.7 L-2.71 324.6 L-4.656 324.3 L-6.572 323.9 L-8.447 323.3 L-10.27 322.5 L-12.02 321.6 L-13.7 320.6 L-15.3 319.4 L-16.79 318.2 L-18.19 316.8 L-19.46 315.3 L-20.61 313.7 L-21.64 312 L-22.52 310.2 L-23.26 308.4 L-23.86 306.5 L-24.31 304.6 L-24.6 302.7 L-24.73 300.7 L-24.71 298.8 L-24.53 296.8 L-24.2 294.9 L-23.72 292.9 L-23.08 291.1 L-22.3 289.3 L-21.38 287.5 L-20.32 285.9 L-19.14 284.3 L-17.83 282.8 L-16.41 281.5 L-14.89 280.2 L-13.27 279.1 L-11.57 278.1 L-9.795 277.3 L-7.958 276.6 L-6.072 276 L-4.147 275.6 L-2.195 275.3 L-0.23 275.3 L1.737 275.3 L3.693 275.5 L5.625 275.9 L7.522 276.4 L9.371 277.1 L11.16 277.9 L12.88 278.9 L14.52 280 L16.07 281.2 L17.51 282.5 L18.84 284 L20.06 285.5 L21.15 287.1 L22.1 288.9 L22.92 290.7 L23.59 292.5 L24.11 294.4 L24.48 296.3 L24.69 298.3 L24.75 300.3 Z " />
<path stroke="rgb(0,0,0)" stroke-opacity="1" fill="rgb(255,255,255)" fill-opacity="1" d="M-412.3 -212.5 L-411.3 -212.5 L-410.3 -212.5 L-409.3 -212.5 L-408.3 -212.5 L-407.3 -212.5 L-406.4 -212.5 L-405.4 -212.5 L-404.4 -212.5 L-403.4 -212.4 L-402.4 -212.4 L-401.4 -212.4 L-400.5 -212.4 L-399.5 -212.4 L-398.5 -212.4 L-397.5 -212.4 L-396.5 -212.4 L-395.5 -212.3 L-394.6 -212.3 L-393.6 -212.3 L-392.6 -212.3 L-391.6 -212.3 L-390.6 -212.3 L-389.6 -212.3 L-388.7 -212.3 L-387.7 -212.3 L-387.7 -211.3 L-387.7 -210.3 L-387.7 -209.3 L-387.7 -208.3 L-387.7 -207.3 L-387.8 -206.4 L-387.8 -205.4 L-387.8 -204.4 L-387.8 -203.4 L-387.8 -202.4 L-387.8 -201.4 L-387.8 -200.5 L-387.8 -199.5 L-387.8 -198.5 L-387.9 -197.5 L-387.9 -196.5 L-387.9 -195.5 L-387.9 -194.6 L-387.9 -193.6 L-387.9 -192.6 L-387.9 -191.6 L-387.9 -190.6 L-388 -189.6 L-388 -188.7 L-388 -187.7 L-389 -187.7 L-389.9 -187.7 L-390.9 -187.7 L-391.9 -187.7 L-392.9 -187.7 L-393.9 -187.8 L-394.9 -187.8 L-395.8 -187.8 L-396.8 -187.8 L-397.8 -187.8 L-398.8 -187.8 L-399.8 -187.8 L-400.8 -187.8 L-401.7 -187.8 L-402.7 -187.9 L-403.7 -187.9 L-404.7 -187.9 L-405.7 -187.9 L-406.7 -187.9 L-407.6 -187.9 L-408.6 -187.9 L-409.6 -187.9 L-410.6 -188 L-411.6 -188 L-412.6 -188 L-412.5 -189 L-412.5 -189.9 L-412.5 -190.9 L-412.5 -191.9 L-412.5 -192.9 L-412.5 -193.9 L-412.5 -194.9 L-412.5 -195.8 L-412.4 -196.8 L-412.4 -197.8 L-412.4 -198.8 L-412.4 -199.8 L-412.4 -200.8 L-412.4 -201.7 L-412.4 -202.7 L-412.4 -203.7 L-412.4 -204.7 L-412.3 -205.7 L-412.3 -206.7 L-412.3 -207.6 L-412.3 -208.6 L-412.3 -209.6 L-412.3 -210.6 L-412.3 -211.6 L-412.3 -212.5 Z " />
<path stroke="rgb(0,0,0)" stroke-opacity="1" fill="rgb(255,255,255)" fill-opacity="1" d="M224.8 300.3 L224.7 302.2 L224.4 304.2 L224 306.1 L223.4 308 L222.7 309.8 L221.9 311.6 L220.9 313.3 L219.7 314.9 L218.5 316.4 L217.1 317.9 L215.7 319.2 L214.1 320.3 L212.4 321.4 L210.7 322.3 L208.9 323.1 L207 323.7 L205.1 324.2 L203.2 324.5 L201.2 324.7 L199.2 324.7 L197.3 324.6 L195.3 324.3 L193.4 323.9 L191.5 323.3 L189.7 322.5 L188 321.6 L186.3 320.6 L184.7 319.4 L183.2 318.2 L181.8 316.8 L180.5 315.3 L179.4 313.7 L178.4 312 L177.5 310.2 L176.7 308.4 L176.1 306.5 L175.7 304.6 L175.4 302.7 L175.3 300.7 L175.3 298.7 L175.5 296.8 L175.8 294.8 L176.3 292.9 L176.9 291.1 L177.7 289.3 L178.6 287.5 L179.7 285.9 L180.9 284.3 L182.2 282.8 L183.6 281.5 L185.1 280.2 L186.7 279.1 L188.4 278.1 L190.2 277.3 L192.1 276.6 L193.9 276 L195.9 275.6 L197.8 275.3 L199.8 275.2 L201.7 275.3 L203.7 275.5 L205.6 275.9 L207.5 276.4 L209.4 277.1 L211.2 277.9 L212.9 278.9 L214.5 280 L216.1 281.2 L217.5 282.5 L218.9 284 L220.1 285.5 L221.2 287.1 L222.1 288.9 L222.9 290.7 L223.6 292.5 L224.1 294.4 L224.5 296.3 L224.7 298.3 L224.8 300.3 Z " />
<path stroke="rgb(0,0,0)" stroke-opacity="1" fill="rgb(255,255,255)" fill-opacity="1" d="M-212.3 -212.5 L-211.3 -212.5 L-210.3 -212.5 L-209.3 -212.5 L-208.3 -212.5 L-207.3 -212.5 L-206.4 -212.5 L-205.4 -212.5 L-204.4 -212.5 L-203.4 -212.4 L-202.4 -212.4 L-201.4 -212.4 L-200.5 -212.4 L-199.5 -212.4 L-198.5 -212.4 L-197.5 -212.4 L-196.5 -212.4 L-195.5 -212.3 L-194.6 -212.3 L-193.6 -212.3 L-192.6 -212.3 L-191.6 -212.3 L-190.6 -212.3 L-189.6 -212.3 L-188.7 -212.3 L-187.7 -212.3 L-187.7 -211.3 L-187.7 -210.3 L-187.7 -209.3 L-187.7 -208.3 L-187.7 -207.3 L-187.8 -206.4 L-187.8 -205.4 L-187.8 -204.4 L-187.8 -203.4 L-187.8 -202.4 L-187.8 -201.4 L-187.8 -200.5 L-187.8 -199.5 L-187.8 -198.5 L-187.9 -197.5 L-187.9 -196.5 L-187.9 -195.5 L-187.9 -194.6 L-187.9 -193.6 L-187.9 -192.6 L-187.9 -191.6 L-187.9 -190.6 L-188 -189.6 L-188 -188.7 L-188 -187.7 L-189 -187.7 L-189.9 -187.7 L-190.9 -187.7 L-191.9 -187.7 L-192.9 -187.7 L-193.9 -187.8 L-194.9 -187.8 L-195.8 -187.8 L-196.8 -187.8 L-197.8 -187.8 L-198.8 -187.8 L-199.8 -187.8 L-200.8 -187.8 L-201.7 -187.8 L-202.7 -187.9 L-203.7 -187.9 L-204.7 -187.9 L-205.7 -187.9 L-206.7 -187.9 L-207.6 -187.9 L-208.6 -187.9 L-209.6 -187.9 L-210.6 -188 L-211.6 -188 L-212.6 -188 L-212.5 -189 L-212.5 -189.9 L-212.5 -190.9 L-212.5 -191.9 L-212.5 -192.9 L-212.5 -193.9 L-212.5 -194.9 L-212.5 -195.8 L-212.4 -196.8 L-212.4 -197.8 L-212.4 -198.8 L-212.4 -199.8 L-212.4 -200.8 L-212.4 -201.7 L-212.4 -202.7 L-212.4 -203.7 L-212.4 -204.7 L-212.3 -205.7 L-212.3 -206.7 L-212.3 -207.6 L-212.3 -208.6 L-212.3 -209.6 L-212.3 -210.6 L-212.3 -211.6 L-212.3 -212.5 Z " />
</g>
</g>
</svg>
