<!DOCTYPE svg>
<svg xmlns="http://www.w3.org/2000/svg" xmlns:xlink="http://www.w3.org/1999/xlink" width="1000" height="1000">
<g transform="translate(500.000000,500.000000)">
<g transform="scale(3.000000,3.000000)">
<path stroke="rgb(0,0,0)" stroke-opacity="1" fill="rgb(255,255,255)" fill-opacity="1" d="M-712.6 -688.1 L-712.6 -689.1 L-712.5 -690.1 L-712.5 -691.1 L-712.5 -692.1 L-712.5 -693 L-712.5 -694 L-712.5 -695 L-712.5 -696 L-712.5 -697 L-712.5 -698 L-712.5 -699 L-712.5 -700 L-712.5 -700.9 L-712.5 -701.9 L-712.4 -702.9 L-712.4 -703.9 L-712.4 -704.9 L-712.4 -705.9 L-712.4 -706.9 L-712.4 -707.9 L-712.4 -708.9 L-712.4 -709.8 L-712.4 -710.8 L-712.4 -711.8 L-712.4 -712.8 L-711.4 -712.8 L-710.4 -712.8 L-709.4 -712.8 L-708.4 -712.8 L-707.4 -712.8 L-706.4 -712.8 L-705.5 -712.8 L-704.5 -712.7 L-703.5 -712.7 L-702.5 -712.7 L-701.5 -712.7 L-700.5 -712.7 L-699.5 -712.7 L-698.5 -712.7 L-697.6 -712.7 L-696.6 -712.7 L-695.6 -712.7 L-694.6 -712.7 L-693.6 -712.7 L-692.6 -712.7 L-691.6 -712.6 L-690.6 -712.6 L-689.6 -712.6 L-688.7 -712.6 L-687.7 -712.6 L-687.7 -711.6 L-687.7 -710.6 L-687.7 -709.7 L-687.7 -708.7 L-687.7 -707.7 L-687.7 -706.7 L-687.7 -705.7 L-687.7 -704.7 L-687.7 -703.7 L-687.7 -702.7 L-687.8 -701.7 L-687.8 -700.8 L-687.8 -699.8 L-687.8 -698.8 L-687.8 -697.8 L-687.8 -696.8 L-687.8 -695.8 L-687.8 -694.8 L-687.8 -693.8 L-687.8 -692.9 L-687.8 -691.9 L-687.8 -690.9 L-687.8 -689.9 L-687.9 -688.9 L-687.9 -687.9 L-688.8 -687.9 L-689.8 -687.9 L-690.8 -687.9 L-691.8 -687.9 L-692.8 -688 L-693.8 -688 L-694.8 -688 L-695.8 -688 L-696.8 -688 L-697.7 -688 L-698.7 -688 L-699.7 -688 L-700.7 -688 L-701.7 -688 L-702.7 -688 L-703.7 -688 L-704.7 -688 L-705.6 -688.1 L-706.6 -688.1 L-707.6 -688.1 L-708.6 -688.1 L-709.6 -688.1 L-710.6 -688.1 L-711.6 -688.1 L-712.6 -688.1 Z " />
<path stroke="rgb(0,0,0)" stroke-opacity="1" fill="rgb(255,255,255)" fill-opacity="1" d="M-198.9 -312.5 L-197.9 -312.4 L-196.9 -312.3 L-195.9 -312 L-194.9 -311.6 L-194 -311.2 L-193.1 -310.7 L-192.3 -310.2 L-191.5 -309.6 L-190.7 -308.9 L-190 -308.1 L-189.4 -307.4 L-188.9 -306.5 L-188.4 -305.6 L-187.9 -304.7 L-187.6 -303.8 L-187.3 -302.8 L-187.1 -301.8 L-187 -300.8 L-187 -299.8 L-187 -298.8 L-187.1 -297.8 L-187.3 -296.8 L-187.6 -295.8 L-188 -294.8 L-188.4 -293.9 L-188.9 -293.1 L-189.5 -292.2 L-190.1 -291.4 L-190.8 -290.7 L-191.6 -290 L-192.4 -289.4 L-193.2 -288.9 L-194.1 -288.4 L-195.1 -288 L-196 -287.7 L-197 -287.4 L-198 -287.2 L-199 -287.1 L-200 -287.1 L-201 -287.2 L-202 -287.3 L-203 -287.6 L-204 -287.9 L-204.9 -288.2 L-205.8 -288.7 L-206.7 -289.2 L-207.5 -289.8 L-208.3 -290.4 L-209 -291.2 L-209.7 -291.9 L-210.3 -292.7 L-210.8 -293.6 L-211.3 -294.5 L-211.6 -295.4 L-212 -296.4 L-212.2 -297.4 L-212.3 -298.4 L-212.4 -299.4 L-212.4 -300.4 L-212.3 -301.4 L-212.2 -302.4 L-211.9 -303.4 L-211.6 -304.4 L-211.2 -305.3 L-210.7 -306.2 L-210.2 -307 L-209.6 -307.9 L-208.9 -308.6 L-208.2 -309.3 L-207.4 -310 L-206.6 -310.5 L-205.7 -311.1 L-204.8 -311.5 L-203.9 -311.9 L-202.9 -312.2 L-201.9 -312.4 L-200.9 -312.5 L-199.9 -312.6 L-198.9 -312.5 Z " />
<path stroke="rgb(0,0,0)" stroke-opacity="1" fill="rgb(255,255,255)" fill-opacity="1" d="M-511.7 -687.2 L-511.7 -688.2 L-511.7 -689.2 L-511.7 -690.2 L-511.7 -691.2 L-511.7 -692.2 L-511.7 -693.2 L-511.7 -694.1 L-511.7 -695.1 L-511.7 -696.1 L-511.7 -697.1 L-511.7 -698.1 L-511.7 -699.1 L-511.7 -700.1 L-511.7 -701.1 L-511.7 -702 L-511.7 -703 L-511.7 -704 L-511.8 -705 L-511.8 -706 L-511.8 -707 L-511.8 -708 L-511.8 -709 L-511.8 -710 L-511.8 -710.9 L-511.8 -711.9 L-510.8 -711.9 L-509.8 -711.9 L-508.8 -711.9 L-507.8 -711.9 L-506.8 -711.9 L-505.9 -712 L-504.9 -712 L-503.9 -712 L-502.9 -712 L-501.9 -712 L-500.9 -712 L-499.9 -712 L-498.9 -712 L-497.9 -712 L-497 -712 L-496 -712 L-495 -712 L-494 -712 L-493 -712 L-492 -712 L-491 -712 L-490 -712 L-489.1 -712 L-488.1 -712 L-487.1 -712 L-487.1 -711 L-487.1 -710 L-487.1 -709.1 L-487.1 -708.1 L-487.1 -707.1 L-487.1 -706.1 L-487 -705.1 L-487 -704.1 L-487 -703.1 L-487 -702.1 L-487 -701.2 L-487 -700.2 L-487 -699.2 L-487 -698.2 L-487 -697.2 L-487 -696.2 L-487 -695.2 L-487 -694.2 L-487 -693.2 L-487 -692.3 L-487 -691.3 L-487 -690.3 L-487 -689.3 L-487 -688.3 L-487 -687.3 L-488 -687.3 L-489 -687.3 L-489.9 -687.3 L-490.9 -687.3 L-491.9 -687.3 L-492.9 -687.3 L-493.9 -687.3 L-494.9 -687.3 L-495.9 -687.3 L-496.9 -687.3 L-497.8 -687.3 L-498.8 -687.3 L-499.8 -687.3 L-500.8 -687.3 L-501.8 -687.3 L-502.8 -687.3 L-503.8 -687.3 L-504.8 -687.2 L-505.8 -687.2 L-506.7 -687.2 L-507.7 -687.2 L-508.7 -687.2 L-509.7 -687.2 L-510.7 -687.2 L-511.7 -687.2 Z " />
<path stroke="rgb(0,0,0)" stroke-opacity="1" fill="rgb(255,255,255)" fill-opacity="1" d="M0.4118 -312.3 L1.398 -312.2 L2.377 -312.1 L3.343 -311.9 L4.29 -311.6 L5.212 -311.3 L6.103 -310.8 L6.957 -310.3 L7.769 -309.8 L8.534 -309.1 L9.247 -308.5 L9.904 -307.7 L10.5 -306.9 L11.03 -306.1 L11.49 -305.2 L11.89 -304.3 L12.21 -303.4 L12.45 -302.4 L12.62 -301.5 L12.71 -300.5 L12.72 -299.5 L12.65 -298.5 L12.51 -297.5 L12.29 -296.6 L11.99 -295.6 L11.62 -294.7 L11.18 -293.8 L10.66 -293 L10.09 -292.2 L9.448 -291.4 L8.751 -290.7 L8.001 -290.1 L7.202 -289.5 L6.36 -289 L5.479 -288.6 L4.566 -288.2 L3.626 -287.9 L2.665 -287.7 L1.689 -287.5 L0.7044 -287.4 L-0.2828 -287.4 L-1.266 -287.5 L-2.24 -287.7 L-3.197 -287.9 L-4.132 -288.3 L-5.039 -288.6 L-5.912 -289.1 L-6.746 -289.6 L-7.535 -290.2 L-8.275 -290.9 L-8.96 -291.6 L-9.587 -292.4 L-10.15 -293.2 L-10.65 -294 L-11.08 -294.9 L-11.43 -295.8 L-11.72 -296.8 L-11.92 -297.7 L-12.05 -298.7 L-12.1 -299.7 L-12.08 -300.7 L-11.97 -301.7 L-11.79 -302.6 L-11.53 -303.6 L-11.19 -304.5 L-10.78 -305.4 L-10.31 -306.3 L-9.761 -307.1 L-9.152 -307.9 L-8.484 -308.6 L-7.76 -309.3 L-6.985 -309.9 L-6.164 -310.4 L-5.302 -310.9 L-4.404 -311.3 L-3.477 -311.7 L-2.525 -311.9 L-1.556 -312.1 L-0.5749 -312.2 L0.4118 -312.3 Z " />
<path stroke="rgb(0,0,0)" stroke-opacity="1" fill="rgb(255,255,255)" fill-opacity="1" d="M-306.9 -682.5 L-306.9 -683.5 L-307 -684.4 L-307.1 -685.4 L-307.1 -686.4 L-307.2 -687.4 L-307.3 -688.4 L-307.3 -689.4 L-307.4 -690.4 L-307.5 -691.3 L-307.5 -692.3 L-307.6 -693.3 L-307.7 -694.3 L-307.7 -695.3 L-307.8 -696.3 L-307.9 -697.3 L-307.9 -698.3 L-308 -699.2 L-308.1 -700.2 L-308.1 -701.2 L-308.2 -702.2 L-308.3 -703.2 L-308.3 -704.2 L-308.4 -705.2 L-308.5 -706.1 L-308.5 -707.1 L-307.5 -707.2 L-306.6 -707.3 L-305.6 -707.3 L-304.6 -707.4 L-303.6 -707.5 L-302.6 -707.5 L-301.6 -707.6 L-300.6 -707.7 L-299.7 -707.7 L-298.7 -707.8 L-297.7 -707.9 L-296.7 -707.9 L-295.7 -708 L-294.7 -708.1 L-293.7 -708.1 L-292.8 -708.2 L-291.8 -708.2 L-290.8 -708.3 L-289.8 -708.4 L-288.8 -708.4 L-287.8 -708.5 L-286.8 -708.6 L-285.9 -708.6 L-284.9 -708.7 L-283.9 -708.8 L-283.8 -707.8 L-283.7 -706.8 L-283.7 -705.8 L-283.6 -704.8 L-283.6 -703.8 L-283.5 -702.9 L-283.4 -701.9 L-283.4 -700.9 L-283.3 -699.9 L-283.2 -698.9 L-283.2 -697.9 L-283.1 -696.9 L-283 -696 L-283 -695 L-282.9 -694 L-282.8 -693 L-282.8 -692 L-282.7 -691 L-282.6 -690 L-282.6 -689.1 L-282.5 -688.1 L-282.4 -687.1 L-282.4 -686.1 L-282.3 -685.1 L-282.2 -684.1 L-283.2 -684.1 L-284.2 -684 L-285.2 -683.9 L-286.2 -683.9 L-287.2 -683.8 L-288.1 -683.7 L-289.1 -683.7 L-290.1 -683.6 L-291.1 -683.5 L-292.1 -683.5 L-293.1 -683.4 L-294.1 -683.3 L-295 -683.3 L-296 -683.2 L-297 -683.1 L-298 -683.1 L-299 -683 L-300 -682.9 L-301 -682.9 L-302 -682.8 L-302.9 -682.7 L-303.9 -682.7 L-304.9 -682.6 L-305.9 -682.5 L-306.9 -682.5 Z " />
<path stroke="rgb(0,0,0)" stroke-opacity="1" fill="rgb(255,255,255)" fill-opacity="1" d="M200.4 -312.3 L201.4 -312.2 L202.4 -312.1 L203.3 -311.9 L204.3 -311.6 L205.2 -311.3 L206.1 -310.8 L207 -310.3 L207.8 -309.8 L208.5 -309.1 L209.2 -308.5 L209.9 -307.7 L210.5 -306.9 L211 -306.1 L211.5 -305.2 L211.9 -304.3 L212.2 -303.4 L212.5 -302.4 L212.6 -301.5 L212.7 -300.5 L212.7 -299.5 L212.7 -298.5 L212.5 -297.5 L212.3 -296.6 L212 -295.6 L211.6 -294.7 L211.2 -293.8 L210.7 -293 L210.1 -292.2 L209.4 -291.4 L208.8 -290.7 L208 -290.1 L207.2 -289.5 L206.4 -289 L205.5 -288.6 L204.6 -288.2 L203.6 -287.9 L202.7 -287.7 L201.7 -287.5 L200.7 -287.4 L199.7 -287.4 L198.7 -287.5 L197.8 -287.7 L196.8 -287.9 L195.9 -288.3 L195 -288.6 L194.1 -289.1 L193.3 -289.6 L192.5 -290.2 L191.7 -290.9 L191 -291.6 L190.4 -292.4 L189.8 -293.2 L189.4 -294 L188.9 -294.9 L188.6 -295.8 L188.3 -296.8 L188.1 -297.7 L187.9 -298.7 L187.9 -299.7 L187.9 -300.7 L188 -301.7 L188.2 -302.6 L188.5 -303.6 L188.8 -304.5 L189.2 -305.4 L189.7 -306.3 L190.2 -307.1 L190.8 -307.9 L191.5 -308.6 L192.2 -309.3 L193 -309.9 L193.8 -310.4 L194.7 -310.9 L195.6 -311.3 L196.5 -311.7 L197.5 -311.9 L198.4 -312.1 L199.4 -312.2 L200.4 -312.3 Z " />
<path stroke="rgb(0,0,0)" stroke-opacity="1" fill="rgb(255,255,255)" fill-opacity="1" d="M-94.62 -670.8 L-94.84 -671.7 L-95.06 -672.7 L-95.28 -673.7 L-95.5 -674.6 L-95.72 -675.6 L-95.94 -676.6 L-96.16 -677.5 L-96.39 -678.5 L-96.61 -679.4 L-96.83 -680.4 L-97.05 -681.4 L-97.27 -682.3 L-97.49 -683.3 L-97.71 -684.3 L-97.93 -685.2 L-98.15 -686.2 L-98.37 -687.2 L-98.59 -688.1 L-98.81 -689.1 L-99.03 -690 L-99.25 -691 L-99.47 -692 L-99.69 -692.9 L-99.91 -693.9 L-100.1 -694.9 L-99.17 -695.1 L-98.21 -695.3 L-97.24 -695.5 L-96.28 -695.7 L-95.32 -696 L-94.35 -696.2 L-93.39 -696.4 L-92.43 -696.6 L-91.46 -696.8 L-90.5 -697.1 L-89.54 -697.3 L-88.57 -697.5 L-87.61 -697.7 L-86.65 -697.9 L-85.68 -698.2 L-84.72 -698.4 L-83.76 -698.6 L-82.79 -698.8 L-81.83 -699 L-80.86 -699.3 L-79.9 -699.5 L-78.94 -699.7 L-77.97 -699.9 L-77.01 -700.2 L-76.05 -700.4 L-75.83 -699.4 L-75.61 -698.4 L-75.39 -697.5 L-75.17 -696.5 L-74.94 -695.6 L-74.72 -694.6 L-74.5 -693.6 L-74.28 -692.7 L-74.06 -691.7 L-73.84 -690.7 L-73.62 -689.8 L-73.4 -688.8 L-73.18 -687.8 L-72.96 -686.9 L-72.74 -685.9 L-72.52 -685 L-72.3 -684 L-72.08 -683 L-71.86 -682.1 L-71.64 -681.1 L-71.42 -680.1 L-71.2 -679.2 L-70.98 -678.2 L-70.76 -677.2 L-70.53 -676.3 L-71.5 -676.1 L-72.46 -675.8 L-73.43 -675.6 L-74.39 -675.4 L-75.35 -675.2 L-76.32 -675 L-77.28 -674.7 L-78.24 -674.5 L-79.21 -674.3 L-80.17 -674.1 L-81.13 -673.9 L-82.1 -673.6 L-83.06 -673.4 L-84.02 -673.2 L-84.99 -673 L-85.95 -672.8 L-86.91 -672.5 L-87.88 -672.3 L-88.84 -672.1 L-89.8 -671.9 L-90.77 -671.7 L-91.73 -671.4 L-92.69 -671.2 L-93.66 -671 L-94.62 -670.8 Z " />
<path stroke="rgb(0,0,0)" stroke-opacity="1" fill="rgb(255,255,255)" fill-opacity="1" d="M-298.9 -212.5 L-297.9 -212.4 L-296.9 -212.3 L-295.9 -212 L-294.9 -211.6 L-294 -211.2 L-293.1 -210.7 L-292.3 -210.2 L-291.5 -209.6 L-290.7 -208.9 L-290 -208.1 L-289.4 -207.4 L-288.9 -206.5 L-288.4 -205.6 L-287.9 -204.7 L-287.6 -203.8 L-287.3 -202.8 L-287.1 -201.8 L-287 -200.8 L-287 -199.8 L-287 -198.8 L-287.1 -197.8 L-287.3 -196.8 L-287.6 -195.8 L-288 -194.8 L-288.4 -193.9 L-288.9 -193.1 L-289.5 -192.2 L-290.1 -191.4 L-290.8 -190.7 L-291.6 -190 L-292.4 -189.4 L-293.2 -188.9 L-294.1 -188.4 L-295.1 -188 L-296 -187.7 L-297 -187.4 L-298 -187.2 L-299 -187.1 L-300 -187.1 L-301 -187.2 L-302 -187.3 L-303 -187.6 L-304 -187.9 L-304.9 -188.2 L-305.8 -188.7 L-306.7 -189.2 L-307.5 -189.8 L-308.3 -190.4 L-309 -191.2 L-309.7 -191.9 L-310.3 -192.7 L-310.8 -193.6 L-311.3 -194.5 L-311.6 -195.4 L-312 -196.4 L-312.2 -197.4 L-312.3 -198.4 L-312.4 -199.4 L-312.4 -200.4 L-312.3 -201.4 L-312.2 -202.4 L-311.9 -203.4 L-311.6 -204.4 L-311.2 -205.3 L-310.7 -206.2 L-310.2 -207 L-309.6 -207.9 L-308.9 -208.6 L-308.2 -209.3 L-307.4 -210 L-306.6 -210.5 L-305.7 -211.1 L-304.8 -211.5 L-303.9 -211.9 L-302.9 -212.2 L-301.9 -212.4 L-300.9 -212.5 L-299.9 -212.6 L-298.9 -212.5 Z " />
<path stroke="rgb(0,0,0)" stroke-opacity="1" fill="rgb(255,255,255)" fill-opacity="1" d="M-611.7 -587.2 L-611.7 -588.2 L-611.7 -589.2 L-611.7 -590.2 L-611.7 -591.2 L-611.7 -592.2 L-611.7 -593.2 L-611.7 -594.1 L-611.7 -595.1 L-611.7 -596.1 L-611.7 -597.1 L-611.7 -598.1 L-611.7 -599.1 L-611.7 -600.1 L-611.7 -601.1 L-611.7 -602 L-611.7 -603 L-611.7 -604 L-611.8 -605 L-611.8 -606 L-611.8 -607 L-611.8 -608 L-611.8 -609 L-611.8 -610 L-611.8 -610.9 L-611.8 -611.9 L-610.8 -611.9 L-609.8 -611.9 L-608.8 -611.9 L-607.8 -611.9 L-606.8 -611.9 L-605.9 -612 L-604.9 -612 L-603.9 -612 L-602.9 -612 L-601.9 -612 L-600.9 -612 L-599.9 -612 L-598.9 -612 L-597.9 -612 L-597 -612 L-596 -612 L-595 -612 L-594 -612 L-593 -612 L-592 -612 L-591 -612 L-590 -612 L-589.1 -612 L-588.1 -612 L-587.1 -612 L-587.1 -611 L-587.1 -610 L-587.1 -609.1 L-587.1 -608.1 L-587.1 -607.1 L-587.1 -606.1 L-587 -605.1 L-587 -604.1 L-587 -603.1 L-587 -602.1 L-587 -601.2 L-587 -600.2 L-587 -599.2 L-587 -598.2 L-587 -597.2 L-587 -596.2 L-587 -595.2 L-587 -594.2 L-587 -593.2 L-587 -592.3 L-587 -591.3 L-587 -590.3 L-587 -589.3 L-587 -588.3 L-587 -587.3 L-588 -587.3 L-589 -587.3 L-589.9 -587.3 L-590.9 -587.3 L-591.9 -587.3 L-592.9 -587.3 L-593.9 -587.3 L-594.9 -587.3 L-595.9 -587.3 L-596.9 -587.3 L-597.8 -587.3 L-598.8 -587.3 L-599.8 -587.3 L-600.8 -587.3 L-601.8 -587.3 L-602.8 -587.3 L-603.8 -587.3 L-604.8 -587.2 L-605.8 -587.2 L-606.7 -587.2 L-607.7 -587.2 L-608.7 -587.2 L-609.7 -587.2 L-610.7 -587.2 L-611.7 -587.2 Z " />
<path stroke="rgb(0,0,0)" stroke-opacity="1" fill="rgb(255,255,255)" fill-opacity="1" d="M-99.59 -212.3 L-98.6 -212.2 L-97.62 -212.1 L-96.66 -211.9 L-95.71 -211.6 L-94.79 -211.3 L-93.9 -210.8 L-93.04 -210.3 L-92.23 -209.8 L-91.47 -209.1 L-90.75 -208.5 L-90.1 -207.7 L-89.5 -206.9 L-88.97 -206.1 L-88.51 -205.2 L-88.11 -204.3 L-87.79 -203.4 L-87.55 -202.4 L-87.38 -201.5 L-87.29 -200.5 L-87.28 -199.5 L-87.35 -198.5 L-87.49 -197.5 L-87.71 -196.6 L-88.01 -195.6 L-88.38 -194.7 L-88.82 -193.8 L-89.34 -193 L-89.91 -192.2 L-90.55 -191.4 L-91.25 -190.7 L-92 -190.1 L-92.8 -189.5 L-93.64 -189 L-94.52 -188.6 L-95.43 -188.2 L-96.37 -187.9 L-97.34 -187.7 L-98.31 -187.5 L-99.3 -187.4 L-100.3 -187.4 L-101.3 -187.5 L-102.2 -187.7 L-103.2 -187.9 L-104.1 -188.3 L-105 -188.6 L-105.9 -189.1 L-106.7 -189.6 L-107.5 -190.2 L-108.3 -190.9 L-109 -191.6 L-109.6 -192.4 L-110.2 -193.2 L-110.6 -194 L-111.1 -194.9 L-111.4 -195.8 L-111.7 -196.8 L-111.9 -197.7 L-112.1 -198.7 L-112.1 -199.7 L-112.1 -200.7 L-112 -201.7 L-111.8 -202.6 L-111.5 -203.6 L-111.2 -204.5 L-110.8 -205.4 L-110.3 -206.3 L-109.8 -207.1 L-109.2 -207.9 L-108.5 -208.6 L-107.8 -209.3 L-107 -209.9 L-106.2 -210.4 L-105.3 -210.9 L-104.4 -211.3 L-103.5 -211.7 L-102.5 -211.9 L-101.6 -212.1 L-100.6 -212.2 L-99.59 -212.3 Z " />
<path stroke="rgb(0,0,0)" stroke-opacity="1" fill="rgb(255,255,255)" fill-opacity="1" d="M-406.9 -582.5 L-406.9 -583.5 L-407 -584.4 L-407.1 -585.4 L-407.1 -586.4 L-407.2 -587.4 L-407.3 -588.4 L-407.3 -589.4 L-407.4 -590.4 L-407.5 -591.3 L-407.5 -592.3 L-407.6 -593.3 L-407.7 -594.3 L-407.7 -595.3 L-407.8 -596.3 L-407.9 -597.3 L-407.9 -598.3 L-408 -599.2 L-408.1 -600.2 L-408.1 -601.2 L-408.2 -602.2 L-408.3 -603.2 L-408.3 -604.2 L-408.4 -605.2 L-408.5 -606.1 L-408.5 -607.1 L-407.5 -607.2 L-406.6 -607.3 L-405.6 -607.3 L-404.6 -607.4 L-403.6 -607.5 L-402.6 -607.5 L-401.6 -607.6 L-400.6 -607.7 L-399.7 -607.7 L-398.7 -607.8 L-397.7 -607.9 L-396.7 -607.9 L-395.7 -608 L-394.7 -608.1 L-393.7 -608.1 L-392.8 -608.2 L-391.8 -608.2 L-390.8 -608.3 L-389.8 -608.4 L-388.8 -608.4 L-387.8 -608.5 L-386.8 -608.6 L-385.9 -608.6 L-384.9 -608.7 L-383.9 -608.8 L-383.8 -607.8 L-383.7 -606.8 L-383.7 -605.8 L-383.6 -604.8 L-383.6 -603.8 L-383.5 -602.9 L-383.4 -601.9 L-383.4 -600.9 L-383.3 -599.9 L-383.2 -598.9 L-383.2 -597.9 L-383.1 -596.9 L-383 -596 L-383 -595 L-382.9 -594 L-382.8 -593 L-382.8 -592 L-382.7 -591 L-382.6 -590 L-382.6 -589.1 L-382.5 -588.1 L-382.4 -587.1 L-382.4 -586.1 L-382.3 -585.1 L-382.2 -584.1 L-383.2 -584.1 L-384.2 -584 L-385.2 -583.9 L-386.2 -583.9 L-387.2 -583.8 L-388.1 -583.7 L-389.1 -583.7 L-390.1 -583.6 L-391.1 -583.5 L-392.1 -583.5 L-393.1 -583.4 L-394.1 -583.3 L-395 -583.3 L-396 -583.2 L-397 -583.1 L-398 -583.1 L-399 -583 L-400 -582.9 L-401 -582.9 L-402 -582.8 L-402.9 -582.7 L-403.9 -582.7 L-404.9 -582.6 L-405.9 -582.5 L-406.9 -582.5 Z " />
<path stroke="rgb(0,0,0)" stroke-opacity="1" fill="rgb(255,255,255)" fill-opacity="1" d="M100.4 -212.3 L101.4 -212.2 L102.4 -212.1 L103.3 -211.9 L104.3 -211.6 L105.2 -211.3 L106.1 -210.8 L107 -210.3 L107.8 -209.8 L108.5 -209.1 L109.2 -208.5 L109.9 -207.7 L110.5 -206.9 L111 -206.1 L111.5 -205.2 L111.9 -204.3 L112.2 -203.4 L112.5 -202.4 L112.6 -201.5 L112.7 -200.5 L112.7 -199.5 L112.7 -198.5 L112.5 -197.5 L112.3 -196.6 L112 -195.6 L111.6 -194.7 L111.2 -193.8 L110.7 -193 L110.1 -192.2 L109.4 -191.4 L108.8 -190.7 L108 -190.1 L107.2 -189.5 L106.4 -189 L105.5 -188.6 L104.6 -188.2 L103.6 -187.9 L102.7 -187.7 L101.7 -187.5 L100.7 -187.4 L99.72 -187.4 L98.73 -187.5 L97.76 -187.7 L96.8 -187.9 L95.87 -188.3 L94.96 -188.6 L94.09 -189.1 L93.25 -189.6 L92.46 -190.2 L91.73 -190.9 L91.04 -191.6 L90.41 -192.4 L89.85 -193.2 L89.35 -194 L88.92 -194.9 L88.57 -195.8 L88.28 -196.8 L88.08 -197.7 L87.95 -198.7 L87.9 -199.7 L87.92 -200.7 L88.03 -201.7 L88.21 -202.6 L88.47 -203.6 L88.81 -204.5 L89.22 -205.4 L89.69 -206.3 L90.24 -207.1 L90.85 -207.9 L91.52 -208.6 L92.24 -209.3 L93.02 -209.9 L93.84 -210.4 L94.7 -210.9 L95.6 -211.3 L96.52 -211.7 L97.47 -211.9 L98.44 -212.1 L99.43 -212.2 L100.4 -212.3 Z " />
<path stroke="rgb(0,0,0)" stroke-opacity="1" fill="rgb(255,255,255)" fill-opacity="1" d="M-194.6 -570.8 L-194.8 -571.7 L-195.1 -572.7 L-195.3 -573.7 L-195.5 -574.6 L-195.7 -575.6 L-195.9 -576.6 L-196.2 -577.5 L-196.4 -578.5 L-196.6 -579.4 L-196.8 -580.4 L-197 -581.4 L-197.3 -582.3 L-197.5 -583.3 L-197.7 -584.3 L-197.9 -585.2 L-198.1 -586.2 L-198.4 -587.2 L-198.6 -588.1 L-198.8 -589.1 L-199 -590 L-199.3 -591 L-199.5 -592 L-199.7 -592.9 L-199.9 -593.9 L-200.1 -594.9 L-199.2 -595.1 L-198.2 -595.3 L-197.2 -595.5 L-196.3 -595.7 L-195.3 -596 L-194.4 -596.2 L-193.4 -596.4 L-192.4 -596.6 L-191.5 -596.8 L-190.5 -597.1 L-189.5 -597.3 L-188.6 -597.5 L-187.6 -597.7 L-186.6 -597.9 L-185.7 -598.2 L-184.7 -598.4 L-183.8 -598.6 L-182.8 -598.8 L-181.8 -599 L-180.9 -599.3 L-179.9 -599.5 L-178.9 -599.7 L-178 -599.9 L-177 -600.2 L-176 -600.4 L-175.8 -599.4 L-175.6 -598.4 L-175.4 -597.5 L-175.2 -596.5 L-174.9 -595.6 L-174.7 -594.6 L-174.5 -593.6 L-174.3 -592.7 L-174.1 -591.7 L-173.8 -590.7 L-173.6 -589.8 L-173.4 -588.8 L-173.2 -587.8 L-173 -586.9 L-172.7 -585.9 L-172.5 -585 L-172.3 -584 L-172.1 -583 L-171.9 -582.1 L-171.6 -581.1 L-171.4 -580.1 L-171.2 -579.2 L-171 -578.2 L-170.8 -577.2 L-170.5 -576.3 L-171.5 -576.1 L-172.5 -575.8 L-173.4 -575.6 L-174.4 -575.4 L-175.4 -575.2 L-176.3 -575 L-177.3 -574.7 L-178.2 -574.5 L-179.2 -574.3 L-180.2 -574.1 L-181.1 -573.9 L-182.1 -573.6 L-183.1 -573.4 L-184 -573.2 L-185 -573 L-186 -572.8 L-186.9 -572.5 L-187.9 -572.3 L-188.8 -572.1 L-189.8 -571.9 L-190.8 -571.7 L-191.7 -571.4 L-192.7 -571.2 L-193.7 -571 L-194.6 -570.8 Z " />
<path stroke="rgb(0,0,0)" stroke-opacity="1" fill="rgb(255,255,255)" fill-opacity="1" d="M300.4 -212.3 L301.4 -212.2 L302.4 -212.1 L303.3 -211.9 L304.3 -211.6 L305.2 -211.3 L306.1 -210.8 L307 -210.3 L307.8 -209.8 L308.5 -209.1 L309.2 -208.5 L309.9 -207.7 L310.5 -206.9 L311 -206.1 L311.5 -205.2 L311.9 -204.3 L312.2 -203.4 L312.5 -202.4 L312.6 -201.5 L312.7 -200.5 L312.7 -199.5 L312.7 -198.5 L312.5 -197.5 L312.3 -196.6 L312 -195.6 L311.6 -194.7 L311.2 -193.8 L310.7 -193 L310.1 -192.2 L309.4 -191.4 L308.8 -190.7 L308 -190.1 L307.2 -189.5 L306.4 -189 L305.5 -188.6 L304.6 -188.2 L303.6 -187.9 L302.7 -187.7 L301.7 -187.5 L300.7 -187.4 L299.7 -187.4 L298.7 -187.5 L297.8 -187.7 L296.8 -187.9 L295.9 -188.3 L295 -188.6 L294.1 -189.1 L293.3 -189.6 L292.5 -190.2 L291.7 -190.9 L291 -191.6 L290.4 -192.4 L289.8 -193.2 L289.4 -194 L288.9 -194.9 L288.6 -195.8 L288.3 -196.8 L288.1 -197.7 L287.9 -198.7 L287.9 -199.7 L287.9 -200.7 L288 -201.7 L288.2 -202.6 L288.5 -203.6 L288.8 -204.5 L289.2 -205.4 L289.7 -206.3 L290.2 -207.1 L290.8 -207.9 L291.5 -208.6 L292.2 -209.3 L293 -209.9 L293.8 -210.4 L294.7 -210.9 L295.6 -211.3 L296.5 -211.7 L297.5 -211.9 L298.4 -212.1 L299.4 -212.2 L300.4 -212.3 Z " />
<path stroke="rgb(0,0,0)" stroke-opacity="1" fill="rgb(255,255,255)" fill-opacity="1" d="M-711.7 -487.2 L-711.7 -488.2 L-711.7 -489.2 L-711.7 -490.2 L-711.7 -491.2 L-711.7 -492.2 L-711.7 -493.2 L-711.7 -494.1 L-711.7 -495.1 L-711.7 -496.1 L-711.7 -497.1 L-711.7 -498.1 L-711.7 -499.1 L-711.7 -500.1 L-711.7 -501.1 L-711.7 -502 L-711.7 -503 L-711.7 -504 L-711.8 -505 L-711.8 -506 L-711.8 -507 L-711.8 -508 L-711.8 -509 L-711.8 -510 L-711.8 -510.9 L-711.8 -511.9 L-710.8 -511.9 L-709.8 -511.9 L-708.8 -511.9 L-707.8 -511.9 L-706.8 -511.9 L-705.9 -512 L-704.9 -512 L-703.9 -512 L-702.9 -512 L-701.9 -512 L-700.9 -512 L-699.9 -512 L-698.9 -512 L-697.9 -512 L-697 -512 L-696 -512 L-695 -512 L-694 -512 L-693 -512 L-692 -512 L-691 -512 L-690 -512 L-689.1 -512 L-688.1 -512 L-687.1 -512 L-687.1 -511 L-687.1 -510 L-687.1 -509.1 L-687.1 -508.1 L-687.1 -507.1 L-687.1 -506.1 L-687 -505.1 L-687 -504.1 L-687 -503.1 L-687 -502.1 L-687 -501.2 L-687 -500.2 L-687 -499.2 L-687 -498.2 L-687 -497.2 L-687 -496.2 L-687 -495.2 L-687 -494.2 L-687 -493.2 L-687 -492.3 L-687 -491.3 L-687 -490.3 L-687 -489.3 L-687 -488.3 L-687 -487.3 L-688 -487.3 L-689 -487.3 L-689.9 -487.3 L-690.9 -487.3 L-691.9 -487.3 L-692.9 -487.3 L-693.9 -487.3 L-694.9 -487.3 L-695.9 -487.3 L-696.9 -487.3 L-697.8 -487.3 L-698.8 -487.3 L-699.8 -487.3 L-700.8 -487.3 L-701.8 -487.3 L-702.8 -487.3 L-703.8 -487.3 L-704.8 -487.2 L-705.8 -487.2 L-706.7 -487.2 L-707.7 -487.2 L-708.7 -487.2 L-709.7 -487.2 L-710.7 -487.2 L-711.7 -487.2 Z " />
<path stroke="rgb(0,0,0)" stroke-opacity="1" fill="rgb(255,255,255)" fill-opacity="1" d="M-199.6 -112.3 L-198.6 -112.2 L-197.6 -112.1 L-196.7 -111.9 L-195.7 -111.6 L-194.8 -111.3 L-193.9 -110.8 L-193 -110.3 L-192.2 -109.8 L-191.5 -109.1 L-190.8 -108.5 L-190.1 -107.7 L-189.5 -106.9 L-189 -106.1 L-188.5 -105.2 L-188.1 -104.3 L-187.8 -103.4 L-187.5 -102.4 L-187.4 -101.5 L-187.3 -100.5 L-187.3 -99.5 L-187.3 -98.51 L-187.5 -97.54 L-187.7 -96.57 L-188 -95.63 L-188.4 -94.72 L-188.8 -93.84 L-189.3 -92.99 L-189.9 -92.19 L-190.6 -91.44 L-191.2 -90.74 L-192 -90.1 L-192.8 -89.52 L-193.6 -89 L-194.5 -88.56 L-195.4 -88.18 L-196.4 -87.88 L-197.3 -87.65 L-198.3 -87.51 L-199.3 -87.44 L-200.3 -87.44 L-201.3 -87.53 L-202.2 -87.69 L-203.2 -87.94 L-204.1 -88.25 L-205 -88.64 L-205.9 -89.1 L-206.7 -89.63 L-207.5 -90.22 L-208.3 -90.88 L-209 -91.59 L-209.6 -92.35 L-210.2 -93.16 L-210.6 -94.01 L-211.1 -94.9 L-211.4 -95.82 L-211.7 -96.77 L-211.9 -97.73 L-212.1 -98.71 L-212.1 -99.7 L-212.1 -100.7 L-212 -101.7 L-211.8 -102.6 L-211.5 -103.6 L-211.2 -104.5 L-210.8 -105.4 L-210.3 -106.3 L-209.8 -107.1 L-209.2 -107.9 L-208.5 -108.6 L-207.8 -109.3 L-207 -109.9 L-206.2 -110.4 L-205.3 -110.9 L-204.4 -111.3 L-203.5 -111.7 L-202.5 -111.9 L-201.6 -112.1 L-200.6 -112.2 L-199.6 -112.3 Z " />
<path stroke="rgb(0,0,0)" stroke-opacity="1" fill="rgb(255,255,255)" fill-opacity="1" d="M-506.9 -482.5 L-506.9 -483.5 L-507 -484.4 L-507.1 -485.4 L-507.1 -486.4 L-507.2 -487.4 L-507.3 -488.4 L-507.3 -489.4 L-507.4 -490.4 L-507.5 -491.3 L-507.5 -492.3 L-507.6 -493.3 L-507.7 -494.3 L-507.7 -495.3 L-507.8 -496.3 L-507.9 -497.3 L-507.9 -498.3 L-508 -499.2 L-508.1 -500.2 L-508.1 -501.2 L-508.2 -502.2 L-508.3 -503.2 L-508.3 -504.2 L-508.4 -505.2 L-508.5 -506.1 L-508.5 -507.1 L-507.5 -507.2 L-506.6 -507.3 L-505.6 -507.3 L-504.6 -507.4 L-503.6 -507.5 L-502.6 -507.5 L-501.6 -507.6 L-500.6 -507.7 L-499.7 -507.7 L-498.7 -507.8 L-497.7 -507.9 L-496.7 -507.9 L-495.7 -508 L-494.7 -508.1 L-493.7 -508.1 L-492.8 -508.2 L-491.8 -508.2 L-490.8 -508.3 L-489.8 -508.4 L-488.8 -508.4 L-487.8 -508.5 L-486.8 -508.6 L-485.9 -508.6 L-484.9 -508.7 L-483.9 -508.8 L-483.8 -507.8 L-483.7 -506.8 L-483.7 -505.8 L-483.6 -504.8 L-483.6 -503.8 L-483.5 -502.9 L-483.4 -501.9 L-483.4 -500.9 L-483.3 -499.9 L-483.2 -498.9 L-483.2 -497.9 L-483.1 -496.9 L-483 -496 L-483 -495 L-482.9 -494 L-482.8 -493 L-482.8 -492 L-482.7 -491 L-482.6 -490 L-482.6 -489.1 L-482.5 -488.1 L-482.4 -487.1 L-482.4 -486.1 L-482.3 -485.1 L-482.2 -484.1 L-483.2 -484.1 L-484.2 -484 L-485.2 -483.9 L-486.2 -483.9 L-487.2 -483.8 L-488.1 -483.7 L-489.1 -483.7 L-490.1 -483.6 L-491.1 -483.5 L-492.1 -483.5 L-493.1 -483.4 L-494.1 -483.3 L-495 -483.3 L-496 -483.2 L-497 -483.1 L-498 -483.1 L-499 -483 L-500 -482.9 L-501 -482.9 L-502 -482.8 L-502.9 -482.7 L-503.9 -482.7 L-504.9 -482.6 L-505.9 -482.5 L-506.9 -482.5 Z " />
<path stroke="rgb(0,0,0)" stroke-opacity="1" fill="rgb(255,255,255)" fill-opacity="1" d="M0.4118 -112.3 L1.398 -112.2 L2.377 -112.1 L3.343 -111.9 L4.29 -111.6 L5.212 -111.3 L6.103 -110.8 L6.957 -110.3 L7.769 -109.8 L8.534 -109.1 L9.247 -108.5 L9.904 -107.7 L10.5 -106.9 L11.03 -106.1 L11.49 -105.2 L11.89 -104.3 L12.21 -103.4 L12.45 -102.4 L12.62 -101.5 L12.71 -100.5 L12.72 -99.5 L12.65 -98.51 L12.51 -97.54 L12.29 -96.57 L11.99 -95.63 L11.62 -94.72 L11.18 -93.84 L10.66 -92.99 L10.09 -92.19 L9.448 -91.44 L8.751 -90.74 L8.001 -90.1 L7.202 -89.52 L6.36 -89 L5.479 -88.56 L4.566 -88.18 L3.626 -87.88 L2.665 -87.65 L1.689 -87.51 L0.7044 -87.44 L-0.2828 -87.44 L-1.266 -87.53 L-2.24 -87.69 L-3.197 -87.94 L-4.132 -88.25 L-5.039 -88.64 L-5.912 -89.1 L-6.746 -89.63 L-7.535 -90.22 L-8.275 -90.88 L-8.96 -91.59 L-9.587 -92.35 L-10.15 -93.16 L-10.65 -94.01 L-11.08 -94.9 L-11.43 -95.82 L-11.72 -96.77 L-11.92 -97.73 L-12.05 -98.71 L-12.1 -99.7 L-12.08 -100.7 L-11.97 -101.7 L-11.79 -102.6 L-11.53 -103.6 L-11.19 -104.5 L-10.78 -105.4 L-10.31 -106.3 L-9.761 -107.1 L-9.152 -107.9 L-8.484 -108.6 L-7.76 -109.3 L-6.985 -109.9 L-6.164 -110.4 L-5.302 -110.9 L-4.404 -111.3 L-3.477 -111.7 L-2.525 -111.9 L-1.556 -112.1 L-0.5749 -112.2 L0.4118 -112.3 Z " />
<path stroke="rgb(0,0,0)" stroke-opacity="1" fill="rgb(255,255,255)" fill-opacity="1" d="M-294.6 -470.8 L-294.8 -471.7 L-295.1 -472.7 L-295.3 -473.7 L-295.5 -474.6 L-295.7 -475.6 L-295.9 -476.6 L-296.2 -477.5 L-296.4 -478.5 L-296.6 -479.4 L-296.8 -480.4 L-297 -481.4 L-297.3 -482.3 L-297.5 -483.3 L-297.7 -484.3 L-297.9 -485.2 L-298.1 -486.2 L-298.4 -487.2 L-298.6 -488.1 L-298.8 -489.1 L-299 -490 L-299.3 -491 L-299.5 -492 L-299.7 -492.9 L-299.9 -493.9 L-300.1 -494.9 L-299.2 -495.1 L-298.2 -495.3 L-297.2 -495.5 L-296.3 -495.7 L-295.3 -496 L-294.4 -496.2 L-293.4 -496.4 L-292.4 -496.6 L-291.5 -496.8 L-290.5 -497.1 L-289.5 -497.3 L-288.6 -497.5 L-287.6 -497.7 L-286.6 -497.9 L-285.7 -498.2 L-284.7 -498.4 L-283.8 -498.6 L-282.8 -498.8 L-281.8 -499 L-280.9 -499.3 L-279.9 -499.5 L-278.9 -499.7 L-278 -499.9 L-277 -500.2 L-276 -500.4 L-275.8 -499.4 L-275.6 -498.4 L-275.4 -497.5 L-275.2 -496.5 L-274.9 -495.6 L-274.7 -494.6 L-274.5 -493.6 L-274.3 -492.7 L-274.1 -491.7 L-273.8 -490.7 L-273.6 -489.8 L-273.4 -488.8 L-273.2 -487.8 L-273 -486.9 L-272.7 -485.9 L-272.5 -485 L-272.3 -484 L-272.1 -483 L-271.9 -482.1 L-271.6 -481.1 L-271.4 -480.1 L-271.2 -479.2 L-271 -478.2 L-270.8 -477.2 L-270.5 -476.3 L-271.5 -476.1 L-272.5 -475.8 L-273.4 -475.6 L-274.4 -475.4 L-275.4 -475.2 L-276.3 -475 L-277.3 -474.7 L-278.2 -474.5 L-279.2 -474.3 L-280.2 -474.1 L-281.1 -473.9 L-282.1 -473.6 L-283.1 -473.4 L-284 -473.2 L-285 -473 L-286 -472.8 L-286.9 -472.5 L-287.9 -472.3 L-288.8 -472.1 L-289.8 -471.9 L-290.8 -471.7 L-291.7 -471.4 L-292.7 -471.2 L-293.7 -471 L-294.6 -470.8 Z " />
<path stroke="rgb(0,0,0)" stroke-opacity="1" fill="rgb(255,255,255)" fill-opacity="1" d="M200.4 -112.3 L201.4 -112.2 L202.4 -112.1 L203.3 -111.9 L204.3 -111.6 L205.2 -111.3 L206.1 -110.8 L207 -110.3 L207.8 -109.8 L208.5 -109.1 L209.2 -108.5 L209.9 -107.7 L210.5 -106.9 L211 -106.1 L211.5 -105.2 L211.9 -104.3 L212.2 -103.4 L212.5 -102.4 L212.6 -101.5 L212.7 -100.5 L212.7 -99.5 L212.7 -98.51 L212.5 -97.54 L212.3 -96.57 L212 -95.63 L211.6 -94.72 L211.2 -93.84 L210.7 -92.99 L210.1 -92.19 L209.4 -91.44 L208.8 -90.74 L208 -90.1 L207.2 -89.52 L206.4 -89 L205.5 -88.56 L204.6 -88.18 L203.6 -87.88 L202.7 -87.65 L201.7 -87.51 L200.7 -87.44 L199.7 -87.44 L198.7 -87.53 L197.8 -87.69 L196.8 -87.94 L195.9 -88.25 L195 -88.64 L194.1 -89.1 L193.3 -89.63 L192.5 -90.22 L191.7 -90.88 L191 -91.59 L190.4 -92.35 L189.8 -93.16 L189.4 -94.01 L188.9 -94.9 L188.6 -95.82 L188.3 -96.77 L188.1 -97.73 L187.9 -98.71 L187.9 -99.7 L187.9 -100.7 L188 -101.7 L188.2 -102.6 L188.5 -103.6 L188.8 -104.5 L189.2 -105.4 L189.7 -106.3 L190.2 -107.1 L190.8 -107.9 L191.5 -108.6 L192.2 -109.3 L193 -109.9 L193.8 -110.4 L194.7 -110.9 L195.6 -111.3 L196.5 -111.7 L197.5 -111.9 L198.4 -112.1 L199.4 -112.2 L200.4 -112.3 Z " />
<path stroke="rgb(0,0,0)" stroke-opacity="1" fill="rgb(255,255,255)" fill-opacity="1" d="M-70.99 -449.8 L-71.48 -450.6 L-71.98 -451.5 L-72.47 -452.4 L-72.96 -453.2 L-73.46 -454.1 L-73.95 -454.9 L-74.44 -455.8 L-74.94 -456.6 L-75.43 -457.5 L-75.92 -458.4 L-76.42 -459.2 L-76.91 -460.1 L-77.4 -460.9 L-77.9 -461.8 L-78.39 -462.6 L-78.88 -463.5 L-79.38 -464.3 L-79.87 -465.2 L-80.36 -466.1 L-80.86 -466.9 L-81.35 -467.8 L-81.84 -468.6 L-82.34 -469.5 L-82.83 -470.3 L-83.32 -471.2 L-82.47 -471.7 L-81.61 -472.2 L-80.75 -472.7 L-79.9 -473.2 L-79.04 -473.7 L-78.18 -474.2 L-77.33 -474.7 L-76.47 -475.1 L-75.61 -475.6 L-74.76 -476.1 L-73.9 -476.6 L-73.04 -477.1 L-72.19 -477.6 L-71.33 -478.1 L-70.47 -478.6 L-69.61 -479.1 L-68.76 -479.6 L-67.9 -480.1 L-67.04 -480.6 L-66.19 -481.1 L-65.33 -481.6 L-64.47 -482.1 L-63.62 -482.5 L-62.76 -483 L-61.9 -483.5 L-61.41 -482.7 L-60.92 -481.8 L-60.42 -481 L-59.93 -480.1 L-59.44 -479.3 L-58.94 -478.4 L-58.45 -477.5 L-57.96 -476.7 L-57.46 -475.8 L-56.97 -475 L-56.48 -474.1 L-55.98 -473.3 L-55.49 -472.4 L-55 -471.5 L-54.51 -470.7 L-54.01 -469.8 L-53.52 -469 L-53.03 -468.1 L-52.53 -467.3 L-52.04 -466.4 L-51.55 -465.5 L-51.05 -464.7 L-50.56 -463.8 L-50.07 -463 L-49.57 -462.1 L-50.43 -461.6 L-51.29 -461.1 L-52.14 -460.6 L-53 -460.1 L-53.86 -459.6 L-54.71 -459.2 L-55.57 -458.7 L-56.43 -458.2 L-57.28 -457.7 L-58.14 -457.2 L-59 -456.7 L-59.85 -456.2 L-60.71 -455.7 L-61.57 -455.2 L-62.42 -454.7 L-63.28 -454.2 L-64.14 -453.7 L-64.99 -453.2 L-65.85 -452.7 L-66.71 -452.3 L-67.56 -451.8 L-68.42 -451.3 L-69.28 -450.8 L-70.13 -450.3 L-70.99 -449.8 Z " />
<path stroke="rgb(0,0,0)" stroke-opacity="1" fill="rgb(255,255,255)" fill-opacity="1" d="M-299.6 -12.26 L-298.6 -12.21 L-297.6 -12.09 L-296.7 -11.88 L-295.7 -11.61 L-294.8 -11.25 L-293.9 -10.83 L-293 -10.33 L-292.2 -9.771 L-291.5 -9.147 L-290.8 -8.464 L-290.1 -7.727 L-289.5 -6.94 L-289 -6.108 L-288.5 -5.236 L-288.1 -4.331 L-287.8 -3.397 L-287.5 -2.44 L-287.4 -1.468 L-287.3 -0.4846 L-287.3 0.5025 L-287.3 1.487 L-287.5 2.464 L-287.7 3.426 L-288 4.367 L-288.4 5.282 L-288.8 6.164 L-289.3 7.008 L-289.9 7.809 L-290.6 8.561 L-291.2 9.261 L-292 9.902 L-292.8 10.48 L-293.6 11 L-294.5 11.44 L-295.4 11.82 L-296.4 12.12 L-297.3 12.35 L-298.3 12.49 L-299.3 12.56 L-300.3 12.56 L-301.3 12.47 L-302.2 12.31 L-303.2 12.06 L-304.1 11.75 L-305 11.36 L-305.9 10.9 L-306.7 10.37 L-307.5 9.777 L-308.3 9.123 L-309 8.412 L-309.6 7.65 L-310.2 6.839 L-310.6 5.987 L-311.1 5.098 L-311.4 4.177 L-311.7 3.231 L-311.9 2.266 L-312.1 1.287 L-312.1 0.3015 L-312.1 -0.6853 L-312 -1.667 L-311.8 -2.637 L-311.5 -3.589 L-311.2 -4.518 L-310.8 -5.417 L-310.3 -6.281 L-309.8 -7.104 L-309.2 -7.881 L-308.5 -8.607 L-307.8 -9.279 L-307 -9.89 L-306.2 -10.44 L-305.3 -10.92 L-304.4 -11.33 L-303.5 -11.67 L-302.5 -11.93 L-301.6 -12.12 L-300.6 -12.23 L-299.6 -12.26 Z " />
<path stroke="rgb(0,0,0)" stroke-opacity="1" fill="rgb(255,255,255)" fill-opacity="1" d="M-606.9 -382.5 L-606.9 -383.5 L-607 -384.4 L-607.1 -385.4 L-607.1 -386.4 L-607.2 -387.4 L-607.3 -388.4 L-607.3 -389.4 L-607.4 -390.4 L-607.5 -391.3 L-607.5 -392.3 L-607.6 -393.3 L-607.7 -394.3 L-607.7 -395.3 L-607.8 -396.3 L-607.9 -397.3 L-607.9 -398.3 L-608 -399.2 L-608.1 -400.2 L-608.1 -401.2 L-608.2 -402.2 L-608.3 -403.2 L-608.3 -404.2 L-608.4 -405.2 L-608.5 -406.1 L-608.5 -407.1 L-607.5 -407.2 L-606.6 -407.3 L-605.6 -407.3 L-604.6 -407.4 L-603.6 -407.5 L-602.6 -407.5 L-601.6 -407.6 L-600.6 -407.7 L-599.7 -407.7 L-598.7 -407.8 L-597.7 -407.9 L-596.7 -407.9 L-595.7 -408 L-594.7 -408.1 L-593.7 -408.1 L-592.8 -408.2 L-591.8 -408.2 L-590.8 -408.3 L-589.8 -408.4 L-588.8 -408.4 L-587.8 -408.5 L-586.8 -408.6 L-585.9 -408.6 L-584.9 -408.7 L-583.9 -408.8 L-583.8 -407.8 L-583.7 -406.8 L-583.7 -405.8 L-583.6 -404.8 L-583.6 -403.8 L-583.5 -402.9 L-583.4 -401.9 L-583.4 -400.9 L-583.3 -399.9 L-583.2 -398.9 L-583.2 -397.9 L-583.1 -396.9 L-583 -396 L-583 -395 L-582.9 -394 L-582.8 -393 L-582.8 -392 L-582.7 -391 L-582.6 -390 L-582.6 -389.1 L-582.5 -388.1 L-582.4 -387.1 L-582.4 -386.1 L-582.3 -385.1 L-582.2 -384.1 L-583.2 -384.1 L-584.2 -384 L-585.2 -383.9 L-586.2 -383.9 L-587.2 -383.8 L-588.1 -383.7 L-589.1 -383.7 L-590.1 -383.6 L-591.1 -383.5 L-592.1 -383.5 L-593.1 -383.4 L-594.1 -383.3 L-595 -383.3 L-596 -383.2 L-597 -383.1 L-598 -383.1 L-599 -383 L-600 -382.9 L-601 -382.9 L-602 -382.8 L-602.9 -382.7 L-603.9 -382.7 L-604.9 -382.6 L-605.9 -382.5 L-606.9 -382.5 Z " />
<path stroke="rgb(0,0,0)" stroke-opacity="1" fill="rgb(255,255,255)" fill-opacity="1" d="M-99.59 -12.26 L-98.6 -12.21 L-97.62 -12.09 L-96.66 -11.88 L-95.71 -11.61 L-94.79 -11.25 L-93.9 -10.83 L-93.04 -10.33 L-92.23 -9.771 L-91.47 -9.147 L-90.75 -8.464 L-90.1 -7.727 L-89.5 -6.94 L-88.97 -6.108 L-88.51 -5.236 L-88.11 -4.331 L-87.79 -3.397 L-87.55 -2.44 L-87.38 -1.468 L-87.29 -0.4846 L-87.28 0.5025 L-87.35 1.487 L-87.49 2.464 L-87.71 3.426 L-88.01 4.367 L-88.38 5.282 L-88.82 6.164 L-89.34 7.008 L-89.91 7.809 L-90.55 8.561 L-91.25 9.261 L-92 9.902 L-92.8 10.48 L-93.64 11 L-94.52 11.44 L-95.43 11.82 L-96.37 12.12 L-97.34 12.35 L-98.31 12.49 L-99.3 12.56 L-100.3 12.56 L-101.3 12.47 L-102.2 12.31 L-103.2 12.06 L-104.1 11.75 L-105 11.36 L-105.9 10.9 L-106.7 10.37 L-107.5 9.777 L-108.3 9.123 L-109 8.412 L-109.6 7.65 L-110.2 6.839 L-110.6 5.987 L-111.1 5.098 L-111.4 4.177 L-111.7 3.231 L-111.9 2.266 L-112.1 1.287 L-112.1 0.3015 L-112.1 -0.6853 L-112 -1.667 L-111.8 -2.637 L-111.5 -3.589 L-111.2 -4.518 L-110.8 -5.417 L-110.3 -6.281 L-109.8 -7.104 L-109.2 -7.881 L-108.5 -8.607 L-107.8 -9.279 L-107 -9.89 L-106.2 -10.44 L-105.3 -10.92 L-104.4 -11.33 L-103.5 -11.67 L-102.5 -11.93 L-101.6 -12.12 L-100.6 -12.23 L-99.59 -12.26 Z " />
<path stroke="rgb(0,0,0)" stroke-opacity="1" fill="rgb(255,255,255)" fill-opacity="1" d="M-394.6 -370.8 L-394.8 -371.7 L-395.1 -372.7 L-395.3 -373.7 L-395.5 -374.6 L-395.7 -375.6 L-395.9 -376.6 L-396.2 -377.5 L-396.4 -378.5 L-396.6 -379.4 L-396.8 -380.4 L-397 -381.4 L-397.3 -382.3 L-397.5 -383.3 L-397.7 -384.3 L-397.9 -385.2 L-398.1 -386.2 L-398.4 -387.2 L-398.6 -388.1 L-398.8 -389.1 L-399 -390 L-399.3 -391 L-399.5 -392 L-399.7 -392.9 L-399.9 -393.9 L-400.1 -394.9 L-399.2 -395.1 L-398.2 -395.3 L-397.2 -395.5 L-396.3 -395.7 L-395.3 -396 L-394.4 -396.2 L-393.4 -396.4 L-392.4 -396.6 L-391.5 -396.8 L-390.5 -397.1 L-389.5 -397.3 L-388.6 -397.5 L-387.6 -397.7 L-386.6 -397.9 L-385.7 -398.2 L-384.7 -398.4 L-383.8 -398.6 L-382.8 -398.8 L-381.8 -399 L-380.9 -399.3 L-379.9 -399.5 L-378.9 -399.7 L-378 -399.9 L-377 -400.2 L-376 -400.4 L-375.8 -399.4 L-375.6 -398.4 L-375.4 -397.5 L-375.2 -396.5 L-374.9 -395.6 L-374.7 -394.6 L-374.5 -393.6 L-374.3 -392.7 L-374.1 -391.7 L-373.8 -390.7 L-373.6 -389.8 L-373.4 -388.8 L-373.2 -387.8 L-373 -386.9 L-372.7 -385.9 L-372.5 -385 L-372.3 -384 L-372.1 -383 L-371.9 -382.1 L-371.6 -381.1 L-371.4 -380.1 L-371.2 -379.2 L-371 -378.2 L-370.8 -377.2 L-370.5 -376.3 L-371.5 -376.1 L-372.5 -375.8 L-373.4 -375.6 L-374.4 -375.4 L-375.4 -375.2 L-376.3 -375 L-377.3 -374.7 L-378.2 -374.5 L-379.2 -374.3 L-380.2 -374.1 L-381.1 -373.9 L-382.1 -373.6 L-383.1 -373.4 L-384 -373.2 L-385 -373 L-386 -372.8 L-386.9 -372.5 L-387.9 -372.3 L-388.8 -372.1 L-389.8 -371.9 L-390.8 -371.7 L-391.7 -371.4 L-392.7 -371.2 L-393.7 -371 L-394.6 -370.8 Z " />
<path stroke="rgb(0,0,0)" stroke-opacity="1" fill="rgb(255,255,255)" fill-opacity="1" d="M100.4 -12.26 L101.4 -12.21 L102.4 -12.09 L103.3 -11.88 L104.3 -11.61 L105.2 -11.25 L106.1 -10.83 L107 -10.33 L107.8 -9.771 L108.5 -9.147 L109.2 -8.464 L109.9 -7.727 L110.5 -6.94 L111 -6.108 L111.5 -5.236 L111.9 -4.331 L112.2 -3.397 L112.5 -2.44 L112.6 -1.468 L112.7 -0.4846 L112.7 0.5025 L112.7 1.487 L112.5 2.464 L112.3 3.426 L112 4.367 L111.6 5.282 L111.2 6.164 L110.7 7.008 L110.1 7.809 L109.4 8.561 L108.8 9.261 L108 9.902 L107.2 10.48 L106.4 11 L105.5 11.44 L104.6 11.82 L103.6 12.12 L102.7 12.35 L101.7 12.49 L100.7 12.56 L99.72 12.56 L98.73 12.47 L97.76 12.31 L96.8 12.06 L95.87 11.75 L94.96 11.36 L94.09 10.9 L93.25 10.37 L92.46 9.777 L91.73 9.123 L91.04 8.412 L90.41 7.65 L89.85 6.839 L89.35 5.987 L88.92 5.098 L88.57 4.177 L88.28 3.231 L88.08 2.266 L87.95 1.287 L87.9 0.3015 L87.92 -0.6853 L88.03 -1.667 L88.21 -2.637 L88.47 -3.589 L88.81 -4.518 L89.22 -5.417 L89.69 -6.281 L90.24 -7.104 L90.85 -7.881 L91.52 -8.607 L92.24 -9.279 L93.02 -9.89 L93.84 -10.44 L94.7 -10.92 L95.6 -11.33 L96.52 -11.67 L97.47 -11.93 L98.44 -12.12 L99.43 -12.23 L100.4 -12.26 Z " />
<path stroke="rgb(0,0,0)" stroke-opacity="1" fill="rgb(255,255,255)" fill-opacity="1" d="M-171 -349.8 L-171.5 -350.6 L-172 -351.5 L-172.5 -352.4 L-173 -353.2 L-173.5 -354.1 L-174 -354.9 L-174.4 -355.8 L-174.9 -356.6 L-175.4 -357.5 L-175.9 -358.4 L-176.4 -359.2 L-176.9 -360.1 L-177.4 -360.9 L-177.9 -361.8 L-178.4 -362.6 L-178.9 -363.5 L-179.4 -364.3 L-179.9 -365.2 L-180.4 -366.1 L-180.9 -366.9 L-181.3 -367.8 L-181.8 -368.6 L-182.3 -369.5 L-182.8 -370.3 L-183.3 -371.2 L-182.5 -371.7 L-181.6 -372.2 L-180.8 -372.7 L-179.9 -373.2 L-179 -373.7 L-178.2 -374.2 L-177.3 -374.7 L-176.5 -375.1 L-175.6 -375.6 L-174.8 -376.1 L-173.9 -376.6 L-173 -377.1 L-172.2 -377.6 L-171.3 -378.1 L-170.5 -378.6 L-169.6 -379.1 L-168.8 -379.6 L-167.9 -380.1 L-167 -380.6 L-166.2 -381.1 L-165.3 -381.6 L-164.5 -382.1 L-163.6 -382.5 L-162.8 -383 L-161.9 -383.5 L-161.4 -382.7 L-160.9 -381.8 L-160.4 -381 L-159.9 -380.1 L-159.4 -379.3 L-158.9 -378.4 L-158.5 -377.5 L-158 -376.7 L-157.5 -375.8 L-157 -375 L-156.5 -374.1 L-156 -373.3 L-155.5 -372.4 L-155 -371.5 L-154.5 -370.7 L-154 -369.8 L-153.5 -369 L-153 -368.1 L-152.5 -367.3 L-152 -366.4 L-151.5 -365.5 L-151.1 -364.7 L-150.6 -363.8 L-150.1 -363 L-149.6 -362.1 L-150.4 -361.6 L-151.3 -361.1 L-152.1 -360.6 L-153 -360.1 L-153.9 -359.6 L-154.7 -359.2 L-155.6 -358.7 L-156.4 -358.2 L-157.3 -357.7 L-158.1 -357.2 L-159 -356.7 L-159.9 -356.2 L-160.7 -355.7 L-161.6 -355.2 L-162.4 -354.7 L-163.3 -354.2 L-164.1 -353.7 L-165 -353.2 L-165.9 -352.7 L-166.7 -352.3 L-167.6 -351.8 L-168.4 -351.3 L-169.3 -350.8 L-170.1 -350.3 L-171 -349.8 Z " />
<path stroke="rgb(0,0,0)" stroke-opacity="1" fill="rgb(255,255,255)" fill-opacity="1" d="M300.4 -12.26 L301.4 -12.21 L302.4 -12.09 L303.3 -11.88 L304.3 -11.61 L305.2 -11.25 L306.1 -10.83 L307 -10.33 L307.8 -9.771 L308.5 -9.147 L309.2 -8.464 L309.9 -7.727 L310.5 -6.94 L311 -6.108 L311.5 -5.236 L311.9 -4.331 L312.2 -3.397 L312.5 -2.44 L312.6 -1.468 L312.7 -0.4846 L312.7 0.5025 L312.7 1.487 L312.5 2.464 L312.3 3.426 L312 4.367 L311.6 5.282 L311.2 6.164 L310.7 7.008 L310.1 7.809 L309.4 8.561 L308.8 9.261 L308 9.902 L307.2 10.48 L306.4 11 L305.5 11.44 L304.6 11.82 L303.6 12.12 L302.7 12.35 L301.7 12.49 L300.7 12.56 L299.7 12.56 L298.7 12.47 L297.8 12.31 L296.8 12.06 L295.9 11.75 L295 11.36 L294.1 10.9 L293.3 10.37 L292.5 9.777 L291.7 9.123 L291 8.412 L290.4 7.65 L289.8 6.839 L289.4 5.987 L288.9 5.098 L288.6 4.177 L288.3 3.231 L288.1 2.266 L287.9 1.287 L287.9 0.3015 L287.9 -0.6853 L288 -1.667 L288.2 -2.637 L288.5 -3.589 L288.8 -4.518 L289.2 -5.417 L289.7 -6.281 L290.2 -7.104 L290.8 -7.881 L291.5 -8.607 L292.2 -9.279 L293 -9.89 L293.8 -10.44 L294.7 -10.92 L295.6 -11.33 L296.5 -11.67 L297.5 -11.93 L298.4 -12.12 L299.4 -12.23 L300.4 -12.26 Z " />
<path stroke="rgb(0,0,0)" stroke-opacity="1" fill="rgb(255,255,255)" fill-opacity="1" d="M-706.9 -282.5 L-706.9 -283.5 L-707 -284.4 L-707.1 -285.4 L-707.1 -286.4 L-707.2 -287.4 L-707.3 -288.4 L-707.3 -289.4 L-707.4 -290.4 L-707.5 -291.3 L-707.5 -292.3 L-707.6 -293.3 L-707.7 -294.3 L-707.7 -295.3 L-707.8 -296.3 L-707.9 -297.3 L-707.9 -298.3 L-708 -299.2 L-708.1 -300.2 L-708.1 -301.2 L-708.2 -302.2 L-708.3 -303.2 L-708.3 -304.2 L-708.4 -305.2 L-708.5 -306.1 L-708.5 -307.1 L-707.5 -307.2 L-706.6 -307.3 L-705.6 -307.3 L-704.6 -307.4 L-703.6 -307.5 L-702.6 -307.5 L-701.6 -307.6 L-700.6 -307.7 L-699.7 -307.7 L-698.7 -307.8 L-697.7 -307.9 L-696.7 -307.9 L-695.7 -308 L-694.7 -308.1 L-693.7 -308.1 L-692.8 -308.2 L-691.8 -308.2 L-690.8 -308.3 L-689.8 -308.4 L-688.8 -308.4 L-687.8 -308.5 L-686.8 -308.6 L-685.9 -308.6 L-684.9 -308.7 L-683.9 -308.8 L-683.8 -307.8 L-683.7 -306.8 L-683.7 -305.8 L-683.6 -304.8 L-683.6 -303.8 L-683.5 -302.9 L-683.4 -301.9 L-683.4 -300.9 L-683.3 -299.9 L-683.2 -298.9 L-683.2 -297.9 L-683.1 -296.9 L-683 -296 L-683 -295 L-682.9 -294 L-682.8 -293 L-682.8 -292 L-682.7 -291 L-682.6 -290 L-682.6 -289.1 L-682.5 -288.1 L-682.4 -287.1 L-682.4 -286.1 L-682.3 -285.1 L-682.2 -284.1 L-683.2 -284.1 L-684.2 -284 L-685.2 -283.9 L-686.2 -283.9 L-687.2 -283.8 L-688.1 -283.7 L-689.1 -283.7 L-690.1 -283.6 L-691.1 -283.5 L-692.1 -283.5 L-693.1 -283.4 L-694.1 -283.3 L-695 -283.3 L-696 -283.2 L-697 -283.1 L-698 -283.1 L-699 -283 L-700 -282.9 L-701 -282.9 L-702 -282.8 L-702.9 -282.7 L-703.9 -282.7 L-704.9 -282.6 L-705.9 -282.5 L-706.9 -282.5 Z " />
<path stroke="rgb(0,0,0)" stroke-opacity="1" fill="rgb(255,255,255)" fill-opacity="1" d="M-199.6 87.74 L-198.6 87.79 L-197.6 87.91 L-196.7 88.12 L-195.7 88.39 L-194.8 88.75 L-193.9 89.17 L-193 89.67 L-192.2 90.23 L-191.5 90.85 L-190.8 91.54 L-190.1 92.27 L-189.5 93.06 L-189 93.89 L-188.5 94.76 L-188.1 95.67 L-187.8 96.6 L-187.5 97.56 L-187.4 98.53 L-187.3 99.52 L-187.3 100.5 L-187.3 101.5 L-187.5 102.5 L-187.7 103.4 L-188 104.4 L-188.4 105.3 L-188.8 106.2 L-189.3 107 L-189.9 107.8 L-190.6 108.6 L-191.2 109.3 L-192 109.9 L-192.8 110.5 L-193.6 111 L-194.5 111.4 L-195.4 111.8 L-196.4 112.1 L-197.3 112.3 L-198.3 112.5 L-199.3 112.6 L-200.3 112.6 L-201.3 112.5 L-202.2 112.3 L-203.2 112.1 L-204.1 111.7 L-205 111.4 L-205.9 110.9 L-206.7 110.4 L-207.5 109.8 L-208.3 109.1 L-209 108.4 L-209.6 107.6 L-210.2 106.8 L-210.6 106 L-211.1 105.1 L-211.4 104.2 L-211.7 103.2 L-211.9 102.3 L-212.1 101.3 L-212.1 100.3 L-212.1 99.31 L-212 98.33 L-211.8 97.36 L-211.5 96.41 L-211.2 95.48 L-210.8 94.58 L-210.3 93.72 L-209.8 92.9 L-209.2 92.12 L-208.5 91.39 L-207.8 90.72 L-207 90.11 L-206.2 89.56 L-205.3 89.08 L-204.4 88.67 L-203.5 88.33 L-202.5 88.07 L-201.6 87.88 L-200.6 87.77 L-199.6 87.74 Z " />
<path stroke="rgb(0,0,0)" stroke-opacity="1" fill="rgb(255,255,255)" fill-opacity="1" d="M-494.6 -270.8 L-494.8 -271.7 L-495.1 -272.7 L-495.3 -273.7 L-495.5 -274.6 L-495.7 -275.6 L-495.9 -276.6 L-496.2 -277.5 L-496.4 -278.5 L-496.6 -279.4 L-496.8 -280.4 L-497 -281.4 L-497.3 -282.3 L-497.5 -283.3 L-497.7 -284.3 L-497.9 -285.2 L-498.1 -286.2 L-498.4 -287.2 L-498.6 -288.1 L-498.8 -289.1 L-499 -290 L-499.3 -291 L-499.5 -292 L-499.7 -292.9 L-499.9 -293.9 L-500.1 -294.9 L-499.2 -295.1 L-498.2 -295.3 L-497.2 -295.5 L-496.3 -295.7 L-495.3 -296 L-494.4 -296.2 L-493.4 -296.4 L-492.4 -296.6 L-491.5 -296.8 L-490.5 -297.1 L-489.5 -297.3 L-488.6 -297.5 L-487.6 -297.7 L-486.6 -297.9 L-485.7 -298.2 L-484.7 -298.4 L-483.8 -298.6 L-482.8 -298.8 L-481.8 -299 L-480.9 -299.3 L-479.9 -299.5 L-478.9 -299.7 L-478 -299.9 L-477 -300.2 L-476 -300.4 L-475.8 -299.4 L-475.6 -298.4 L-475.4 -297.5 L-475.2 -296.5 L-474.9 -295.6 L-474.7 -294.6 L-474.5 -293.6 L-474.3 -292.7 L-474.1 -291.7 L-473.8 -290.7 L-473.6 -289.8 L-473.4 -288.8 L-473.2 -287.8 L-473 -286.9 L-472.7 -285.9 L-472.5 -285 L-472.3 -284 L-472.1 -283 L-471.9 -282.1 L-471.6 -281.1 L-471.4 -280.1 L-471.2 -279.2 L-471 -278.2 L-470.8 -277.2 L-470.5 -276.3 L-471.5 -276.1 L-472.5 -275.8 L-473.4 -275.6 L-474.4 -275.4 L-475.4 -275.2 L-476.3 -275 L-477.3 -274.7 L-478.2 -274.5 L-479.2 -274.3 L-480.2 -274.1 L-481.1 -273.9 L-482.1 -273.6 L-483.1 -273.4 L-484 -273.2 L-485 -273 L-486 -272.8 L-486.9 -272.5 L-487.9 -272.3 L-488.8 -272.1 L-489.8 -271.9 L-490.8 -271.7 L-491.7 -271.4 L-492.7 -271.2 L-493.7 -271 L-494.6 -270.8 Z " />
<path stroke="rgb(0,0,0)" stroke-opacity="1" fill="rgb(255,255,255)" fill-opacity="1" d="M0.4118 87.74 L1.398 87.79 L2.377 87.91 L3.343 88.12 L4.29 88.39 L5.212 88.75 L6.103 89.17 L6.957 89.67 L7.769 90.23 L8.534 90.85 L9.247 91.54 L9.904 92.27 L10.5 93.06 L11.03 93.89 L11.49 94.76 L11.89 95.67 L12.21 96.6 L12.45 97.56 L12.62 98.53 L12.71 99.52 L12.72 100.5 L12.65 101.5 L12.51 102.5 L12.29 103.4 L11.99 104.4 L11.62 105.3 L11.18 106.2 L10.66 107 L10.09 107.8 L9.448 108.6 L8.751 109.3 L8.001 109.9 L7.202 110.5 L6.36 111 L5.479 111.4 L4.566 111.8 L3.626 112.1 L2.665 112.3 L1.689 112.5 L0.7044 112.6 L-0.2828 112.6 L-1.266 112.5 L-2.24 112.3 L-3.197 112.1 L-4.132 111.7 L-5.039 111.4 L-5.912 110.9 L-6.746 110.4 L-7.535 109.8 L-8.275 109.1 L-8.96 108.4 L-9.587 107.6 L-10.15 106.8 L-10.65 106 L-11.08 105.1 L-11.43 104.2 L-11.72 103.2 L-11.92 102.3 L-12.05 101.3 L-12.1 100.3 L-12.08 99.31 L-11.97 98.33 L-11.79 97.36 L-11.53 96.41 L-11.19 95.48 L-10.78 94.58 L-10.31 93.72 L-9.761 92.9 L-9.152 92.12 L-8.484 91.39 L-7.76 90.72 L-6.985 90.11 L-6.164 89.56 L-5.302 89.08 L-4.404 88.67 L-3.477 88.33 L-2.525 88.07 L-1.556 87.88 L-0.5749 87.77 L0.4118 87.74 Z " />
<path stroke="rgb(0,0,0)" stroke-opacity="1" fill="rgb(255,255,255)" fill-opacity="1" d="M-271 -249.8 L-271.5 -250.6 L-272 -251.5 L-272.5 -252.4 L-273 -253.2 L-273.5 -254.1 L-274 -254.9 L-274.4 -255.8 L-274.9 -256.6 L-275.4 -257.5 L-275.9 -258.4 L-276.4 -259.2 L-276.9 -260.1 L-277.4 -260.9 L-277.9 -261.8 L-278.4 -262.6 L-278.9 -263.5 L-279.4 -264.3 L-279.9 -265.2 L-280.4 -266.1 L-280.9 -266.9 L-281.3 -267.8 L-281.8 -268.6 L-282.3 -269.5 L-282.8 -270.3 L-283.3 -271.2 L-282.5 -271.7 L-281.6 -272.2 L-280.8 -272.7 L-279.9 -273.2 L-279 -273.7 L-278.2 -274.2 L-277.3 -274.7 L-276.5 -275.1 L-275.6 -275.6 L-274.8 -276.1 L-273.9 -276.6 L-273 -277.1 L-272.2 -277.6 L-271.3 -278.1 L-270.5 -278.6 L-269.6 -279.1 L-268.8 -279.6 L-267.9 -280.1 L-267 -280.6 L-266.2 -281.1 L-265.3 -281.6 L-264.5 -282.1 L-263.6 -282.5 L-262.8 -283 L-261.9 -283.5 L-261.4 -282.7 L-260.9 -281.8 L-260.4 -281 L-259.9 -280.1 L-259.4 -279.3 L-258.9 -278.4 L-258.5 -277.5 L-258 -276.7 L-257.5 -275.8 L-257 -275 L-256.5 -274.1 L-256 -273.3 L-255.5 -272.4 L-255 -271.5 L-254.5 -270.7 L-254 -269.8 L-253.5 -269 L-253 -268.1 L-252.5 -267.3 L-252 -266.4 L-251.5 -265.5 L-251.1 -264.7 L-250.6 -263.8 L-250.1 -263 L-249.6 -262.1 L-250.4 -261.6 L-251.3 -261.1 L-252.1 -260.6 L-253 -260.1 L-253.9 -259.6 L-254.7 -259.2 L-255.6 -258.7 L-256.4 -258.2 L-257.3 -257.7 L-258.1 -257.2 L-259 -256.7 L-259.9 -256.2 L-260.7 -255.7 L-261.6 -255.2 L-262.4 -254.7 L-263.3 -254.2 L-264.1 -253.7 L-265 -253.2 L-265.9 -252.7 L-266.7 -252.3 L-267.6 -251.8 L-268.4 -251.3 L-269.3 -250.8 L-270.1 -250.3 L-271 -249.8 Z " />
<path stroke="rgb(0,0,0)" stroke-opacity="1" fill="rgb(255,255,255)" fill-opacity="1" d="M200.4 87.74 L201.4 87.79 L202.4 87.91 L203.3 88.12 L204.3 88.39 L205.2 88.75 L206.1 89.17 L207 89.67 L207.8 90.23 L208.5 90.85 L209.2 91.54 L209.9 92.27 L210.5 93.06 L211 93.89 L211.5 94.76 L211.9 95.67 L212.2 96.6 L212.5 97.56 L212.6 98.53 L212.7 99.52 L212.7 100.5 L212.7 101.5 L212.5 102.5 L212.3 103.4 L212 104.4 L211.6 105.3 L211.2 106.2 L210.7 107 L210.1 107.8 L209.4 108.6 L208.8 109.3 L208 109.9 L207.2 110.5 L206.4 111 L205.5 111.4 L204.6 111.8 L203.6 112.1 L202.7 112.3 L201.7 112.5 L200.7 112.6 L199.7 112.6 L198.7 112.5 L197.8 112.3 L196.8 112.1 L195.9 111.7 L195 111.4 L194.1 110.9 L193.3 110.4 L192.5 109.8 L191.7 109.1 L191 108.4 L190.4 107.6 L189.8 106.8 L189.4 106 L188.9 105.1 L188.6 104.2 L188.3 103.2 L188.1 102.3 L187.9 101.3 L187.9 100.3 L187.9 99.31 L188 98.33 L188.2 97.36 L188.5 96.41 L188.8 95.48 L189.2 94.58 L189.7 93.72 L190.2 92.9 L190.8 92.12 L191.5 91.39 L192.2 90.72 L193 90.11 L193.8 89.56 L194.7 89.08 L195.6 88.67 L196.5 88.33 L197.5 88.07 L198.4 87.88 L199.4 87.77 L200.4 87.74 Z " />
<path stroke="rgb(0,0,0)" stroke-opacity="1" fill="rgb(255,255,255)" fill-opacity="1" d="M-35.08 -221.2 L-35.9 -221.7 L-36.71 -222.3 L-37.52 -222.9 L-38.34 -223.4 L-39.15 -224 L-39.97 -224.5 L-40.78 -225.1 L-41.59 -225.7 L-42.41 -226.2 L-43.22 -226.8 L-44.03 -227.4 L-44.85 -227.9 L-45.66 -228.5 L-46.48 -229 L-47.29 -229.6 L-48.1 -230.2 L-48.92 -230.7 L-49.73 -231.3 L-50.55 -231.9 L-51.36 -232.4 L-52.17 -233 L-52.99 -233.5 L-53.8 -234.1 L-54.62 -234.7 L-55.43 -235.2 L-54.87 -236 L-54.31 -236.8 L-53.75 -237.7 L-53.18 -238.5 L-52.62 -239.3 L-52.06 -240.1 L-51.5 -240.9 L-50.94 -241.7 L-50.38 -242.5 L-49.81 -243.4 L-49.25 -244.2 L-48.69 -245 L-48.13 -245.8 L-47.57 -246.6 L-47.01 -247.4 L-46.44 -248.2 L-45.88 -249.1 L-45.32 -249.9 L-44.76 -250.7 L-44.2 -251.5 L-43.63 -252.3 L-43.07 -253.1 L-42.51 -253.9 L-41.95 -254.8 L-41.39 -255.6 L-40.57 -255 L-39.76 -254.4 L-38.95 -253.9 L-38.13 -253.3 L-37.32 -252.8 L-36.5 -252.2 L-35.69 -251.6 L-34.88 -251.1 L-34.06 -250.5 L-33.25 -250 L-32.43 -249.4 L-31.62 -248.8 L-30.81 -248.3 L-29.99 -247.7 L-29.18 -247.1 L-28.36 -246.6 L-27.55 -246 L-26.74 -245.5 L-25.92 -244.9 L-25.11 -244.3 L-24.3 -243.8 L-23.48 -243.2 L-22.67 -242.7 L-21.85 -242.1 L-21.04 -241.5 L-21.6 -240.7 L-22.16 -239.9 L-22.72 -239.1 L-23.29 -238.3 L-23.85 -237.5 L-24.41 -236.6 L-24.97 -235.8 L-25.53 -235 L-26.09 -234.2 L-26.66 -233.4 L-27.22 -232.6 L-27.78 -231.8 L-28.34 -230.9 L-28.9 -230.1 L-29.46 -229.3 L-30.03 -228.5 L-30.59 -227.7 L-31.15 -226.9 L-31.71 -226.1 L-32.27 -225.2 L-32.83 -224.4 L-33.4 -223.6 L-33.96 -222.8 L-34.52 -222 L-35.08 -221.2 Z " />
<path stroke="rgb(0,0,0)" stroke-opacity="1" fill="rgb(255,255,255)" fill-opacity="1" d="M-299.6 187.7 L-298.6 187.8 L-297.6 187.9 L-296.7 188.1 L-295.7 188.4 L-294.8 188.7 L-293.9 189.2 L-293 189.7 L-292.2 190.2 L-291.5 190.9 L-290.8 191.5 L-290.1 192.3 L-289.5 193.1 L-289 193.9 L-288.5 194.8 L-288.1 195.7 L-287.8 196.6 L-287.5 197.6 L-287.4 198.5 L-287.3 199.5 L-287.3 200.5 L-287.3 201.5 L-287.5 202.5 L-287.7 203.4 L-288 204.4 L-288.4 205.3 L-288.8 206.2 L-289.3 207 L-289.9 207.8 L-290.6 208.6 L-291.2 209.3 L-292 209.9 L-292.8 210.5 L-293.6 211 L-294.5 211.4 L-295.4 211.8 L-296.4 212.1 L-297.3 212.3 L-298.3 212.5 L-299.3 212.6 L-300.3 212.6 L-301.3 212.5 L-302.2 212.3 L-303.2 212.1 L-304.1 211.7 L-305 211.4 L-305.9 210.9 L-306.7 210.4 L-307.5 209.8 L-308.3 209.1 L-309 208.4 L-309.6 207.6 L-310.2 206.8 L-310.6 206 L-311.1 205.1 L-311.4 204.2 L-311.7 203.2 L-311.9 202.3 L-312.1 201.3 L-312.1 200.3 L-312.1 199.3 L-312 198.3 L-311.8 197.4 L-311.5 196.4 L-311.2 195.5 L-310.8 194.6 L-310.3 193.7 L-309.8 192.9 L-309.2 192.1 L-308.5 191.4 L-307.8 190.7 L-307 190.1 L-306.2 189.6 L-305.3 189.1 L-304.4 188.7 L-303.5 188.3 L-302.5 188.1 L-301.6 187.9 L-300.6 187.8 L-299.6 187.7 Z " />
<path stroke="rgb(0,0,0)" stroke-opacity="1" fill="rgb(255,255,255)" fill-opacity="1" d="M-594.6 -170.8 L-594.8 -171.7 L-595.1 -172.7 L-595.3 -173.7 L-595.5 -174.6 L-595.7 -175.6 L-595.9 -176.6 L-596.2 -177.5 L-596.4 -178.5 L-596.6 -179.4 L-596.8 -180.4 L-597 -181.4 L-597.3 -182.3 L-597.5 -183.3 L-597.7 -184.3 L-597.9 -185.2 L-598.1 -186.2 L-598.4 -187.2 L-598.6 -188.1 L-598.8 -189.1 L-599 -190 L-599.3 -191 L-599.5 -192 L-599.7 -192.9 L-599.9 -193.9 L-600.1 -194.9 L-599.2 -195.1 L-598.2 -195.3 L-597.2 -195.5 L-596.3 -195.7 L-595.3 -196 L-594.4 -196.2 L-593.4 -196.4 L-592.4 -196.6 L-591.5 -196.8 L-590.5 -197.1 L-589.5 -197.3 L-588.6 -197.5 L-587.6 -197.7 L-586.6 -197.9 L-585.7 -198.2 L-584.7 -198.4 L-583.8 -198.6 L-582.8 -198.8 L-581.8 -199 L-580.9 -199.3 L-579.9 -199.5 L-578.9 -199.7 L-578 -199.9 L-577 -200.2 L-576 -200.4 L-575.8 -199.4 L-575.6 -198.4 L-575.4 -197.5 L-575.2 -196.5 L-574.9 -195.6 L-574.7 -194.6 L-574.5 -193.6 L-574.3 -192.7 L-574.1 -191.7 L-573.8 -190.7 L-573.6 -189.8 L-573.4 -188.8 L-573.2 -187.8 L-573 -186.9 L-572.7 -185.9 L-572.5 -185 L-572.3 -184 L-572.1 -183 L-571.9 -182.1 L-571.6 -181.1 L-571.4 -180.1 L-571.2 -179.2 L-571 -178.2 L-570.8 -177.2 L-570.5 -176.3 L-571.5 -176.1 L-572.5 -175.8 L-573.4 -175.6 L-574.4 -175.4 L-575.4 -175.2 L-576.3 -175 L-577.3 -174.7 L-578.2 -174.5 L-579.2 -174.3 L-580.2 -174.1 L-581.1 -173.9 L-582.1 -173.6 L-583.1 -173.4 L-584 -173.2 L-585 -173 L-586 -172.8 L-586.9 -172.5 L-587.9 -172.3 L-588.8 -172.1 L-589.8 -171.9 L-590.8 -171.7 L-591.7 -171.4 L-592.7 -171.2 L-593.7 -171 L-594.6 -170.8 Z " />
<path stroke="rgb(0,0,0)" stroke-opacity="1" fill="rgb(255,255,255)" fill-opacity="1" d="M-99.59 187.7 L-98.6 187.8 L-97.62 187.9 L-96.66 188.1 L-95.71 188.4 L-94.79 188.7 L-93.9 189.2 L-93.04 189.7 L-92.23 190.2 L-91.47 190.9 L-90.75 191.5 L-90.1 192.3 L-89.5 193.1 L-88.97 193.9 L-88.51 194.8 L-88.11 195.7 L-87.79 196.6 L-87.55 197.6 L-87.38 198.5 L-87.29 199.5 L-87.28 200.5 L-87.35 201.5 L-87.49 202.5 L-87.71 203.4 L-88.01 204.4 L-88.38 205.3 L-88.82 206.2 L-89.34 207 L-89.91 207.8 L-90.55 208.6 L-91.25 209.3 L-92 209.9 L-92.8 210.5 L-93.64 211 L-94.52 211.4 L-95.43 211.8 L-96.37 212.1 L-97.34 212.3 L-98.31 212.5 L-99.3 212.6 L-100.3 212.6 L-101.3 212.5 L-102.2 212.3 L-103.2 212.1 L-104.1 211.7 L-105 211.4 L-105.9 210.9 L-106.7 210.4 L-107.5 209.8 L-108.3 209.1 L-109 208.4 L-109.6 207.6 L-110.2 206.8 L-110.6 206 L-111.1 205.1 L-111.4 204.2 L-111.7 203.2 L-111.9 202.3 L-112.1 201.3 L-112.1 200.3 L-112.1 199.3 L-112 198.3 L-111.8 197.4 L-111.5 196.4 L-111.2 195.5 L-110.8 194.6 L-110.3 193.7 L-109.8 192.9 L-109.2 192.1 L-108.5 191.4 L-107.8 190.7 L-107 190.1 L-106.2 189.6 L-105.3 189.1 L-104.4 188.7 L-103.5 188.3 L-102.5 188.1 L-101.6 187.9 L-100.6 187.8 L-99.59 187.7 Z " />
<path stroke="rgb(0,0,0)" stroke-opacity="1" fill="rgb(255,255,255)" fill-opacity="1" d="M-371 -149.8 L-371.5 -150.6 L-372 -151.5 L-372.5 -152.4 L-373 -153.2 L-373.5 -154.1 L-374 -154.9 L-374.4 -155.8 L-374.9 -156.6 L-375.4 -157.5 L-375.9 -158.4 L-376.4 -159.2 L-376.9 -160.1 L-377.4 -160.9 L-377.9 -161.8 L-378.4 -162.6 L-378.9 -163.5 L-379.4 -164.3 L-379.9 -165.2 L-380.4 -166.1 L-380.9 -166.9 L-381.3 -167.8 L-381.8 -168.6 L-382.3 -169.5 L-382.8 -170.3 L-383.3 -171.2 L-382.5 -171.7 L-381.6 -172.2 L-380.8 -172.7 L-379.9 -173.2 L-379 -173.7 L-378.2 -174.2 L-377.3 -174.7 L-376.5 -175.1 L-375.6 -175.6 L-374.8 -176.1 L-373.9 -176.6 L-373 -177.1 L-372.2 -177.6 L-371.3 -178.1 L-370.5 -178.6 L-369.6 -179.1 L-368.8 -179.6 L-367.9 -180.1 L-367 -180.6 L-366.2 -181.1 L-365.3 -181.6 L-364.5 -182.1 L-363.6 -182.5 L-362.8 -183 L-361.9 -183.5 L-361.4 -182.7 L-360.9 -181.8 L-360.4 -181 L-359.9 -180.1 L-359.4 -179.3 L-358.9 -178.4 L-358.5 -177.5 L-358 -176.7 L-357.5 -175.8 L-357 -175 L-356.5 -174.1 L-356 -173.3 L-355.5 -172.4 L-355 -171.5 L-354.5 -170.7 L-354 -169.8 L-353.5 -169 L-353 -168.1 L-352.5 -167.3 L-352 -166.4 L-351.5 -165.5 L-351.1 -164.7 L-350.6 -163.8 L-350.1 -163 L-349.6 -162.1 L-350.4 -161.6 L-351.3 -161.1 L-352.1 -160.6 L-353 -160.1 L-353.9 -159.6 L-354.7 -159.2 L-355.6 -158.7 L-356.4 -158.2 L-357.3 -157.7 L-358.1 -157.2 L-359 -156.7 L-359.9 -156.2 L-360.7 -155.7 L-361.6 -155.2 L-362.4 -154.7 L-363.3 -154.2 L-364.1 -153.7 L-365 -153.2 L-365.9 -152.7 L-366.7 -152.3 L-367.6 -151.8 L-368.4 -151.3 L-369.3 -150.8 L-370.1 -150.3 L-371 -149.8 Z " />
<path stroke="rgb(0,0,0)" stroke-opacity="1" fill="rgb(255,255,255)" fill-opacity="1" d="M100.4 187.7 L101.4 187.8 L102.4 187.9 L103.3 188.1 L104.3 188.4 L105.2 188.7 L106.1 189.2 L107 189.7 L107.8 190.2 L108.5 190.9 L109.2 191.5 L109.9 192.3 L110.5 193.1 L111 193.9 L111.5 194.8 L111.9 195.7 L112.2 196.6 L112.5 197.6 L112.6 198.5 L112.7 199.5 L112.7 200.5 L112.7 201.5 L112.5 202.5 L112.3 203.4 L112 204.4 L111.6 205.3 L111.2 206.2 L110.7 207 L110.1 207.8 L109.4 208.6 L108.8 209.3 L108 209.9 L107.2 210.5 L106.4 211 L105.5 211.4 L104.6 211.8 L103.6 212.1 L102.7 212.3 L101.7 212.5 L100.7 212.6 L99.72 212.6 L98.73 212.5 L97.76 212.3 L96.8 212.1 L95.87 211.7 L94.96 211.4 L94.09 210.9 L93.25 210.4 L92.46 209.8 L91.73 209.1 L91.04 208.4 L90.41 207.6 L89.85 206.8 L89.35 206 L88.92 205.1 L88.57 204.2 L88.28 203.2 L88.08 202.3 L87.95 201.3 L87.9 200.3 L87.92 199.3 L88.03 198.3 L88.21 197.4 L88.47 196.4 L88.81 195.5 L89.22 194.6 L89.69 193.7 L90.24 192.9 L90.85 192.1 L91.52 191.4 L92.24 190.7 L93.02 190.1 L93.84 189.6 L94.7 189.1 L95.6 188.7 L96.52 188.3 L97.47 188.1 L98.44 187.9 L99.43 187.8 L100.4 187.7 Z " />
<path stroke="rgb(0,0,0)" stroke-opacity="1" fill="rgb(255,255,255)" fill-opacity="1" d="M-135.1 -121.2 L-135.9 -121.7 L-136.7 -122.3 L-137.5 -122.9 L-138.3 -123.4 L-139.2 -124 L-140 -124.5 L-140.8 -125.1 L-141.6 -125.7 L-142.4 -126.2 L-143.2 -126.8 L-144 -127.4 L-144.8 -127.9 L-145.7 -128.5 L-146.5 -129 L-147.3 -129.6 L-148.1 -130.2 L-148.9 -130.7 L-149.7 -131.3 L-150.5 -131.9 L-151.4 -132.4 L-152.2 -133 L-153 -133.5 L-153.8 -134.1 L-154.6 -134.7 L-155.4 -135.2 L-154.9 -136 L-154.3 -136.8 L-153.7 -137.7 L-153.2 -138.5 L-152.6 -139.3 L-152.1 -140.1 L-151.5 -140.9 L-150.9 -141.7 L-150.4 -142.5 L-149.8 -143.4 L-149.3 -144.2 L-148.7 -145 L-148.1 -145.8 L-147.6 -146.6 L-147 -147.4 L-146.4 -148.2 L-145.9 -149.1 L-145.3 -149.9 L-144.8 -150.7 L-144.2 -151.5 L-143.6 -152.3 L-143.1 -153.1 L-142.5 -153.9 L-141.9 -154.8 L-141.4 -155.6 L-140.6 -155 L-139.8 -154.4 L-138.9 -153.9 L-138.1 -153.3 L-137.3 -152.8 L-136.5 -152.2 L-135.7 -151.6 L-134.9 -151.1 L-134.1 -150.5 L-133.2 -150 L-132.4 -149.4 L-131.6 -148.8 L-130.8 -148.3 L-130 -147.7 L-129.2 -147.1 L-128.4 -146.6 L-127.6 -146 L-126.7 -145.5 L-125.9 -144.9 L-125.1 -144.3 L-124.3 -143.8 L-123.5 -143.2 L-122.7 -142.7 L-121.9 -142.1 L-121 -141.5 L-121.6 -140.7 L-122.2 -139.9 L-122.7 -139.1 L-123.3 -138.3 L-123.8 -137.5 L-124.4 -136.6 L-125 -135.8 L-125.5 -135 L-126.1 -134.2 L-126.7 -133.4 L-127.2 -132.6 L-127.8 -131.8 L-128.3 -130.9 L-128.9 -130.1 L-129.5 -129.3 L-130 -128.5 L-130.6 -127.7 L-131.1 -126.9 L-131.7 -126.1 L-132.3 -125.2 L-132.8 -124.4 L-133.4 -123.6 L-134 -122.8 L-134.5 -122 L-135.1 -121.2 Z " />
<path stroke="rgb(0,0,0)" stroke-opacity="1" fill="rgb(255,255,255)" fill-opacity="1" d="M300.4 187.7 L301.4 187.8 L302.4 187.9 L303.3 188.1 L304.3 188.4 L305.2 188.7 L306.1 189.2 L307 189.7 L307.8 190.2 L308.5 190.9 L309.2 191.5 L309.9 192.3 L310.5 193.1 L311 193.9 L311.5 194.8 L311.9 195.7 L312.2 196.6 L312.5 197.6 L312.6 198.5 L312.7 199.5 L312.7 200.5 L312.7 201.5 L312.5 202.5 L312.3 203.4 L312 204.4 L311.6 205.3 L311.2 206.2 L310.7 207 L310.1 207.8 L309.4 208.6 L308.8 209.3 L308 209.9 L307.2 210.5 L306.4 211 L305.5 211.4 L304.6 211.8 L303.6 212.1 L302.7 212.3 L301.7 212.5 L300.7 212.6 L299.7 212.6 L298.7 212.5 L297.8 212.3 L296.8 212.1 L295.9 211.7 L295 211.4 L294.1 210.9 L293.3 210.4 L292.5 209.8 L291.7 209.1 L291 208.4 L290.4 207.6 L289.8 206.8 L289.4 206 L288.9 205.1 L288.6 204.2 L288.3 203.2 L288.1 202.3 L287.9 201.3 L287.9 200.3 L287.9 199.3 L288 198.3 L288.2 197.4 L288.5 196.4 L288.8 195.5 L289.2 194.6 L289.7 193.7 L290.2 192.9 L290.8 192.1 L291.5 191.4 L292.2 190.7 L293 190.1 L293.8 189.6 L294.7 189.1 L295.6 188.7 L296.5 188.3 L297.5 188.1 L298.4 187.9 L299.4 187.8 L300.4 187.7 Z " />
<path stroke="rgb(0,0,0)" stroke-opacity="1" fill="rgb(255,255,255)" fill-opacity="1" d="M-694.6 -70.77 L-694.8 -71.74 L-695.1 -72.7 L-695.3 -73.66 L-695.5 -74.63 L-695.7 -75.59 L-695.9 -76.55 L-696.2 -77.52 L-696.4 -78.48 L-696.6 -79.44 L-696.8 -80.41 L-697 -81.37 L-697.3 -82.33 L-697.5 -83.3 L-697.7 -84.26 L-697.9 -85.23 L-698.1 -86.19 L-698.4 -87.15 L-698.6 -88.12 L-698.8 -89.08 L-699 -90.04 L-699.3 -91.01 L-699.5 -91.97 L-699.7 -92.93 L-699.9 -93.9 L-700.1 -94.86 L-699.2 -95.08 L-698.2 -95.3 L-697.2 -95.52 L-696.3 -95.74 L-695.3 -95.96 L-694.4 -96.18 L-693.4 -96.4 L-692.4 -96.62 L-691.5 -96.84 L-690.5 -97.06 L-689.5 -97.29 L-688.6 -97.51 L-687.6 -97.73 L-686.6 -97.95 L-685.7 -98.17 L-684.7 -98.39 L-683.8 -98.61 L-682.8 -98.83 L-681.8 -99.05 L-680.9 -99.27 L-679.9 -99.49 L-678.9 -99.71 L-678 -99.93 L-677 -100.2 L-676 -100.4 L-675.8 -99.41 L-675.6 -98.45 L-675.4 -97.48 L-675.2 -96.52 L-674.9 -95.56 L-674.7 -94.59 L-674.5 -93.63 L-674.3 -92.66 L-674.1 -91.7 L-673.8 -90.74 L-673.6 -89.77 L-673.4 -88.81 L-673.2 -87.85 L-673 -86.88 L-672.7 -85.92 L-672.5 -84.96 L-672.3 -83.99 L-672.1 -83.03 L-671.9 -82.07 L-671.6 -81.1 L-671.4 -80.14 L-671.2 -79.18 L-671 -78.21 L-670.8 -77.25 L-670.5 -76.29 L-671.5 -76.07 L-672.5 -75.84 L-673.4 -75.62 L-674.4 -75.4 L-675.4 -75.18 L-676.3 -74.96 L-677.3 -74.74 L-678.2 -74.52 L-679.2 -74.3 L-680.2 -74.08 L-681.1 -73.86 L-682.1 -73.64 L-683.1 -73.42 L-684 -73.2 L-685 -72.98 L-686 -72.76 L-686.9 -72.54 L-687.9 -72.32 L-688.8 -72.1 L-689.8 -71.88 L-690.8 -71.66 L-691.7 -71.43 L-692.7 -71.21 L-693.7 -70.99 L-694.6 -70.77 Z " />
<path stroke="rgb(0,0,0)" stroke-opacity="1" fill="rgb(255,255,255)" fill-opacity="1" d="M-199.6 287.7 L-198.6 287.8 L-197.6 287.9 L-196.7 288.1 L-195.7 288.4 L-194.8 288.7 L-193.9 289.2 L-193 289.7 L-192.2 290.2 L-191.5 290.9 L-190.8 291.5 L-190.1 292.3 L-189.5 293.1 L-189 293.9 L-188.5 294.8 L-188.1 295.7 L-187.8 296.6 L-187.5 297.6 L-187.4 298.5 L-187.3 299.5 L-187.3 300.5 L-187.3 301.5 L-187.5 302.5 L-187.7 303.4 L-188 304.4 L-188.4 305.3 L-188.8 306.2 L-189.3 307 L-189.9 307.8 L-190.6 308.6 L-191.2 309.3 L-192 309.9 L-192.8 310.5 L-193.6 311 L-194.5 311.4 L-195.4 311.8 L-196.4 312.1 L-197.3 312.3 L-198.3 312.5 L-199.3 312.6 L-200.3 312.6 L-201.3 312.5 L-202.2 312.3 L-203.2 312.1 L-204.1 311.7 L-205 311.4 L-205.9 310.9 L-206.7 310.4 L-207.5 309.8 L-208.3 309.1 L-209 308.4 L-209.6 307.6 L-210.2 306.8 L-210.6 306 L-211.1 305.1 L-211.4 304.2 L-211.7 303.2 L-211.9 302.3 L-212.1 301.3 L-212.1 300.3 L-212.1 299.3 L-212 298.3 L-211.8 297.4 L-211.5 296.4 L-211.2 295.5 L-210.8 294.6 L-210.3 293.7 L-209.8 292.9 L-209.2 292.1 L-208.5 291.4 L-207.8 290.7 L-207 290.1 L-206.2 289.6 L-205.3 289.1 L-204.4 288.7 L-203.5 288.3 L-202.5 288.1 L-201.6 287.9 L-200.6 287.8 L-199.6 287.7 Z " />
<path stroke="rgb(0,0,0)" stroke-opacity="1" fill="rgb(255,255,255)" fill-opacity="1" d="M-471 -49.78 L-471.5 -50.64 L-472 -51.5 L-472.5 -52.35 L-473 -53.21 L-473.5 -54.07 L-474 -54.92 L-474.4 -55.78 L-474.9 -56.64 L-475.4 -57.49 L-475.9 -58.35 L-476.4 -59.21 L-476.9 -60.07 L-477.4 -60.92 L-477.9 -61.78 L-478.4 -62.64 L-478.9 -63.49 L-479.4 -64.35 L-479.9 -65.21 L-480.4 -66.06 L-480.9 -66.92 L-481.3 -67.78 L-481.8 -68.63 L-482.3 -69.49 L-482.8 -70.35 L-483.3 -71.2 L-482.5 -71.7 L-481.6 -72.19 L-480.8 -72.68 L-479.9 -73.18 L-479 -73.67 L-478.2 -74.16 L-477.3 -74.66 L-476.5 -75.15 L-475.6 -75.64 L-474.8 -76.14 L-473.9 -76.63 L-473 -77.12 L-472.2 -77.62 L-471.3 -78.11 L-470.5 -78.6 L-469.6 -79.1 L-468.8 -79.59 L-467.9 -80.08 L-467 -80.58 L-466.2 -81.07 L-465.3 -81.56 L-464.5 -82.05 L-463.6 -82.55 L-462.8 -83.04 L-461.9 -83.53 L-461.4 -82.68 L-460.9 -81.82 L-460.4 -80.96 L-459.9 -80.11 L-459.4 -79.25 L-458.9 -78.39 L-458.5 -77.54 L-458 -76.68 L-457.5 -75.82 L-457 -74.97 L-456.5 -74.11 L-456 -73.25 L-455.5 -72.4 L-455 -71.54 L-454.5 -70.68 L-454 -69.83 L-453.5 -68.97 L-453 -68.11 L-452.5 -67.26 L-452 -66.4 L-451.5 -65.54 L-451.1 -64.69 L-450.6 -63.83 L-450.1 -62.97 L-449.6 -62.12 L-450.4 -61.62 L-451.3 -61.13 L-452.1 -60.64 L-453 -60.14 L-453.9 -59.65 L-454.7 -59.16 L-455.6 -58.66 L-456.4 -58.17 L-457.3 -57.68 L-458.1 -57.18 L-459 -56.69 L-459.9 -56.2 L-460.7 -55.7 L-461.6 -55.21 L-462.4 -54.72 L-463.3 -54.22 L-464.1 -53.73 L-465 -53.24 L-465.9 -52.74 L-466.7 -52.25 L-467.6 -51.76 L-468.4 -51.26 L-469.3 -50.77 L-470.1 -50.28 L-471 -49.78 Z " />
<path stroke="rgb(0,0,0)" stroke-opacity="1" fill="rgb(255,255,255)" fill-opacity="1" d="M0.4118 287.7 L1.398 287.8 L2.377 287.9 L3.343 288.1 L4.29 288.4 L5.212 288.7 L6.103 289.2 L6.957 289.7 L7.769 290.2 L8.534 290.9 L9.247 291.5 L9.904 292.3 L10.5 293.1 L11.03 293.9 L11.49 294.8 L11.89 295.7 L12.21 296.6 L12.45 297.6 L12.62 298.5 L12.71 299.5 L12.72 300.5 L12.65 301.5 L12.51 302.5 L12.29 303.4 L11.99 304.4 L11.62 305.3 L11.18 306.2 L10.66 307 L10.09 307.8 L9.448 308.6 L8.751 309.3 L8.001 309.9 L7.202 310.5 L6.36 311 L5.479 311.4 L4.566 311.8 L3.626 312.1 L2.665 312.3 L1.689 312.5 L0.7044 312.6 L-0.2828 312.6 L-1.266 312.5 L-2.24 312.3 L-3.197 312.1 L-4.132 311.7 L-5.039 311.4 L-5.912 310.9 L-6.746 310.4 L-7.535 309.8 L-8.275 309.1 L-8.96 308.4 L-9.587 307.6 L-10.15 306.8 L-10.65 306 L-11.08 305.1 L-11.43 304.2 L-11.72 303.2 L-11.92 302.3 L-12.05 301.3 L-12.1 300.3 L-12.08 299.3 L-11.97 298.3 L-11.79 297.4 L-11.53 296.4 L-11.19 295.5 L-10.78 294.6 L-10.31 293.7 L-9.761 292.9 L-9.152 292.1 L-8.484 291.4 L-7.76 290.7 L-6.985 290.1 L-6.164 289.6 L-5.302 289.1 L-4.404 288.7 L-3.477 288.3 L-2.525 288.1 L-1.556 287.9 L-0.5749 287.8 L0.4118 287.7 Z " />
<path stroke="rgb(0,0,0)" stroke-opacity="1" fill="rgb(255,255,255)" fill-opacity="1" d="M-235.1 -21.18 L-235.9 -21.74 L-236.7 -22.3 L-237.5 -22.86 L-238.3 -23.43 L-239.2 -23.99 L-240 -24.55 L-240.8 -25.11 L-241.6 -25.67 L-242.4 -26.23 L-243.2 -26.8 L-244 -27.36 L-244.8 -27.92 L-245.7 -28.48 L-246.5 -29.04 L-247.3 -29.6 L-248.1 -30.17 L-248.9 -30.73 L-249.7 -31.29 L-250.5 -31.85 L-251.4 -32.41 L-252.2 -32.97 L-253 -33.54 L-253.8 -34.1 L-254.6 -34.66 L-255.4 -35.22 L-254.9 -36.03 L-254.3 -36.85 L-253.7 -37.66 L-253.2 -38.48 L-252.6 -39.29 L-252.1 -40.1 L-251.5 -40.92 L-250.9 -41.73 L-250.4 -42.55 L-249.8 -43.36 L-249.3 -44.17 L-248.7 -44.99 L-248.1 -45.8 L-247.6 -46.62 L-247 -47.43 L-246.4 -48.24 L-245.9 -49.06 L-245.3 -49.87 L-244.8 -50.69 L-244.2 -51.5 L-243.6 -52.31 L-243.1 -53.13 L-242.5 -53.94 L-241.9 -54.76 L-241.4 -55.57 L-240.6 -55.01 L-239.8 -54.45 L-238.9 -53.88 L-238.1 -53.32 L-237.3 -52.76 L-236.5 -52.2 L-235.7 -51.64 L-234.9 -51.08 L-234.1 -50.51 L-233.2 -49.95 L-232.4 -49.39 L-231.6 -48.83 L-230.8 -48.27 L-230 -47.71 L-229.2 -47.14 L-228.4 -46.58 L-227.6 -46.02 L-226.7 -45.46 L-225.9 -44.9 L-225.1 -44.34 L-224.3 -43.77 L-223.5 -43.21 L-222.7 -42.65 L-221.9 -42.09 L-221 -41.53 L-221.6 -40.71 L-222.2 -39.9 L-222.7 -39.09 L-223.3 -38.27 L-223.8 -37.46 L-224.4 -36.64 L-225 -35.83 L-225.5 -35.02 L-226.1 -34.2 L-226.7 -33.39 L-227.2 -32.57 L-227.8 -31.76 L-228.3 -30.95 L-228.9 -30.13 L-229.5 -29.32 L-230 -28.5 L-230.6 -27.69 L-231.1 -26.88 L-231.7 -26.06 L-232.3 -25.25 L-232.8 -24.43 L-233.4 -23.62 L-234 -22.81 L-234.5 -21.99 L-235.1 -21.18 Z " />
<path stroke="rgb(0,0,0)" stroke-opacity="1" fill="rgb(255,255,255)" fill-opacity="1" d="M200.4 287.7 L201.4 287.8 L202.4 287.9 L203.3 288.1 L204.3 288.4 L205.2 288.7 L206.1 289.2 L207 289.7 L207.8 290.2 L208.5 290.9 L209.2 291.5 L209.9 292.3 L210.5 293.1 L211 293.9 L211.5 294.8 L211.9 295.7 L212.2 296.6 L212.5 297.6 L212.6 298.5 L212.7 299.5 L212.7 300.5 L212.7 301.5 L212.5 302.5 L212.3 303.4 L212 304.4 L211.6 305.3 L211.2 306.2 L210.7 307 L210.1 307.8 L209.4 308.6 L208.8 309.3 L208 309.9 L207.2 310.5 L206.4 311 L205.5 311.4 L204.6 311.8 L203.6 312.1 L202.7 312.3 L201.7 312.5 L200.7 312.6 L199.7 312.6 L198.7 312.5 L197.8 312.3 L196.8 312.1 L195.9 311.7 L195 311.4 L194.1 310.9 L193.3 310.4 L192.5 309.8 L191.7 309.1 L191 308.4 L190.4 307.6 L189.8 306.8 L189.4 306 L188.9 305.1 L188.6 304.2 L188.3 303.2 L188.1 302.3 L187.9 301.3 L187.9 300.3 L187.9 299.3 L188 298.3 L188.2 297.4 L188.5 296.4 L188.8 295.5 L189.2 294.6 L189.7 293.7 L190.2 292.9 L190.8 292.1 L191.5 291.4 L192.2 290.7 L193 290.1 L193.8 289.6 L194.7 289.1 L195.6 288.7 L196.5 288.3 L197.5 288.1 L198.4 287.9 L199.4 287.8 L200.4 287.7 Z " />
<path stroke="rgb(0,0,0)" stroke-opacity="1" fill="rgb(255,255,255)" fill-opacity="1" d="M-9.125 -2.379 L-10.08 -2.651 L-11.03 -2.924 L-11.98 -3.196 L-12.93 -3.469 L-13.88 -3.741 L-14.83 -4.014 L-15.78 -4.286 L-16.73 -4.559 L-17.68 -4.831 L-18.63 -5.104 L-19.58 -5.377 L-20.54 -5.649 L-21.49 -5.922 L-22.44 -6.194 L-23.39 -6.467 L-24.34 -6.739 L-25.29 -7.012 L-26.24 -7.284 L-27.19 -7.557 L-28.14 -7.829 L-29.09 -8.102 L-30.04 -8.375 L-31 -8.647 L-31.95 -8.92 L-32.9 -9.192 L-32.62 -10.14 L-32.35 -11.09 L-32.08 -12.04 L-31.81 -13 L-31.53 -13.95 L-31.26 -14.9 L-30.99 -15.85 L-30.72 -16.8 L-30.44 -17.75 L-30.17 -18.7 L-29.9 -19.65 L-29.63 -20.6 L-29.35 -21.55 L-29.08 -22.5 L-28.81 -23.46 L-28.54 -24.41 L-28.26 -25.36 L-27.99 -26.31 L-27.72 -27.26 L-27.45 -28.21 L-27.17 -29.16 L-26.9 -30.11 L-26.63 -31.06 L-26.36 -32.01 L-26.08 -32.96 L-25.13 -32.69 L-24.18 -32.42 L-23.23 -32.15 L-22.28 -31.87 L-21.33 -31.6 L-20.38 -31.33 L-19.43 -31.06 L-18.48 -30.78 L-17.53 -30.51 L-16.57 -30.24 L-15.62 -29.97 L-14.67 -29.69 L-13.72 -29.42 L-12.77 -29.15 L-11.82 -28.88 L-10.87 -28.6 L-9.918 -28.33 L-8.967 -28.06 L-8.017 -27.79 L-7.066 -27.51 L-6.115 -27.24 L-5.164 -26.97 L-4.213 -26.7 L-3.262 -26.42 L-2.311 -26.15 L-2.584 -25.2 L-2.856 -24.25 L-3.129 -23.3 L-3.401 -22.35 L-3.674 -21.4 L-3.946 -20.45 L-4.219 -19.49 L-4.491 -18.54 L-4.764 -17.59 L-5.037 -16.64 L-5.309 -15.69 L-5.582 -14.74 L-5.854 -13.79 L-6.127 -12.84 L-6.399 -11.89 L-6.672 -10.94 L-6.944 -9.986 L-7.217 -9.035 L-7.489 -8.084 L-7.762 -7.133 L-8.035 -6.182 L-8.307 -5.231 L-8.58 -4.28 L-8.852 -3.329 L-9.125 -2.379 Z " />
</g>
</g>
</svg>
