<!DOCTYPE svg>
<svg xmlns="http://www.w3.org/2000/svg" xmlns:xlink="http://www.w3.org/1999/xlink" width="1000" height="1000">
<g transform="translate(500.000000,500.000000)">
<g transform="scale(3.000000,3.000000)">
<path stroke="rgb(0,0,0)" stroke-opacity="1" fill="rgb(255,255,255)" fill-opacity="1" d="M-723.9 -698.8 L-723 -699.8 L-722.1 -700.8 L-721.2 -701.8 L-720.3 -702.9 L-719.4 -703.9 L-718.5 -704.9 L-717.6 -705.9 L-716.7 -706.9 L-715.8 -707.9 L-714.9 -708.9 L-714 -710 L-713.1 -711 L-712.2 -712 L-711.3 -713 L-710.4 -714 L-709.5 -715 L-708.6 -716 L-707.7 -717.1 L-706.9 -718.1 L-706 -719.1 L-705.1 -720.1 L-704.2 -721.1 L-703.3 -722.1 L-702.4 -723.1 L-701.5 -724.2 L-700.4 -723.3 L-699.4 -722.4 L-698.4 -721.5 L-697.4 -720.6 L-696.4 -719.7 L-695.4 -718.8 L-694.4 -717.9 L-693.3 -717 L-692.3 -716.1 L-691.3 -715.2 L-690.3 -714.3 L-689.3 -713.4 L-688.3 -712.5 L-687.3 -711.6 L-686.2 -710.7 L-685.2 -709.8 L-684.2 -708.9 L-683.2 -708 L-682.2 -707.1 L-681.2 -706.2 L-680.2 -705.3 L-679.1 -704.4 L-678.1 -703.5 L-677.1 -702.6 L-676.1 -701.7 L-677 -700.7 L-677.9 -699.7 L-678.8 -698.7 L-679.7 -697.7 L-680.6 -696.6 L-681.5 -695.6 L-682.4 -694.6 L-683.3 -693.6 L-684.2 -692.6 L-685.1 -691.6 L-686 -690.6 L-686.9 -689.5 L-687.8 -688.5 L-688.7 -687.5 L-689.6 -686.5 L-690.5 -685.5 L-691.4 -684.5 L-692.3 -683.5 L-693.2 -682.4 L-694.1 -681.4 L-694.9 -680.4 L-695.8 -679.4 L-696.7 -678.4 L-697.6 -677.4 L-698.5 -676.3 L-699.6 -677.2 L-700.6 -678.1 L-701.6 -679 L-702.6 -679.9 L-703.6 -680.8 L-704.6 -681.7 L-705.6 -682.6 L-706.7 -683.5 L-707.7 -684.4 L-708.7 -685.3 L-709.7 -686.2 L-710.7 -687.1 L-711.7 -688 L-712.7 -688.9 L-713.8 -689.8 L-714.8 -690.7 L-715.8 -691.6 L-716.8 -692.5 L-717.8 -693.4 L-718.8 -694.3 L-719.8 -695.2 L-720.9 -696.1 L-721.9 -697 L-722.9 -697.9 L-723.9 -698.8 Z " />
<path stroke="rgb(0,0,0)" stroke-opacity="0.999" fill="rgb(255,255,255)" fill-opacity="1" d="M-175.2 -299.8 L-175.3 -297.8 L-175.5 -295.9 L-176 -293.9 L-176.5 -292 L-177.2 -290.2 L-178.1 -288.4 L-179.1 -286.7 L-180.2 -285.1 L-181.4 -283.6 L-182.8 -282.1 L-184.3 -280.8 L-185.8 -279.6 L-187.5 -278.6 L-189.2 -277.7 L-191.1 -276.9 L-192.9 -276.2 L-194.8 -275.7 L-196.8 -275.4 L-198.7 -275.2 L-200.7 -275.2 L-202.7 -275.3 L-204.6 -275.6 L-206.5 -276.1 L-208.4 -276.7 L-210.3 -277.4 L-212 -278.3 L-213.7 -279.3 L-215.3 -280.5 L-216.8 -281.8 L-218.2 -283.2 L-219.5 -284.7 L-220.6 -286.3 L-221.7 -287.9 L-222.6 -289.7 L-223.3 -291.5 L-223.9 -293.4 L-224.4 -295.3 L-224.6 -297.3 L-224.8 -299.2 L-224.8 -301.2 L-224.6 -303.2 L-224.3 -305.1 L-223.8 -307 L-223.1 -308.9 L-222.4 -310.7 L-221.4 -312.4 L-220.4 -314.1 L-219.2 -315.7 L-217.9 -317.2 L-216.5 -318.5 L-215 -319.8 L-213.3 -320.9 L-211.6 -321.9 L-209.9 -322.8 L-208 -323.5 L-206.1 -324 L-204.2 -324.4 L-202.2 -324.7 L-200.3 -324.8 L-198.3 -324.7 L-196.3 -324.5 L-194.4 -324.2 L-192.5 -323.6 L-190.6 -323 L-188.9 -322.2 L-187.1 -321.2 L-185.5 -320.1 L-183.9 -318.9 L-182.5 -317.6 L-181.1 -316.1 L-179.9 -314.6 L-178.8 -312.9 L-177.9 -311.2 L-177 -309.4 L-176.4 -307.6 L-175.8 -305.7 L-175.5 -303.7 L-175.3 -301.8 L-175.2 -299.8 Z " />
<path stroke="rgb(0,0,0)" stroke-opacity="1" fill="rgb(255,255,255)" fill-opacity="1" d="M-515.6 -689.6 L-515.4 -690.7 L-515.2 -691.7 L-515 -692.8 L-514.9 -693.8 L-514.7 -694.9 L-514.5 -695.9 L-514.3 -697 L-514.1 -698 L-513.9 -699.1 L-513.7 -700.1 L-513.5 -701.2 L-513.3 -702.2 L-513.1 -703.3 L-512.9 -704.3 L-512.7 -705.4 L-512.5 -706.4 L-512.3 -707.5 L-512.1 -708.5 L-511.9 -709.6 L-511.8 -710.6 L-511.6 -711.7 L-511.4 -712.7 L-511.2 -713.8 L-511 -714.8 L-510.8 -715.9 L-509.7 -715.7 L-508.7 -715.5 L-507.6 -715.3 L-506.6 -715.1 L-505.5 -714.9 L-504.5 -714.7 L-503.4 -714.5 L-502.4 -714.3 L-501.3 -714.1 L-500.3 -713.9 L-499.2 -713.8 L-498.2 -713.6 L-497.1 -713.4 L-496.1 -713.2 L-495 -713 L-494 -712.8 L-492.9 -712.6 L-491.9 -712.4 L-490.8 -712.2 L-489.8 -712 L-488.7 -711.8 L-487.7 -711.6 L-486.6 -711.4 L-485.6 -711.2 L-484.5 -711 L-484.7 -710 L-484.9 -708.9 L-485.1 -707.9 L-485.3 -706.8 L-485.5 -705.8 L-485.7 -704.7 L-485.9 -703.7 L-486.1 -702.6 L-486.3 -701.6 L-486.5 -700.5 L-486.7 -699.5 L-486.9 -698.4 L-487.1 -697.4 L-487.3 -696.3 L-487.4 -695.3 L-487.6 -694.2 L-487.8 -693.2 L-488 -692.1 L-488.2 -691.1 L-488.4 -690 L-488.6 -689 L-488.8 -688 L-489 -686.9 L-489.2 -685.9 L-489.4 -684.8 L-490.4 -685 L-491.5 -685.2 L-492.5 -685.4 L-493.6 -685.6 L-494.6 -685.8 L-495.7 -686 L-496.7 -686.2 L-497.8 -686.4 L-498.8 -686.5 L-499.9 -686.7 L-500.9 -686.9 L-502 -687.1 L-503 -687.3 L-504.1 -687.5 L-505.1 -687.7 L-506.2 -687.9 L-507.2 -688.1 L-508.3 -688.3 L-509.3 -688.5 L-510.4 -688.7 L-511.4 -688.9 L-512.5 -689.1 L-513.5 -689.3 L-514.6 -689.5 L-515.6 -689.6 Z " />
<path stroke="rgb(0,0,0)" stroke-opacity="0.999" fill="rgb(255,255,255)" fill-opacity="1" d="M24.8 -299.8 L24.71 -297.8 L24.45 -295.9 L24.05 -293.9 L23.49 -292 L22.78 -290.2 L21.93 -288.4 L20.94 -286.7 L19.82 -285.1 L18.57 -283.6 L17.21 -282.1 L15.74 -280.8 L14.16 -279.6 L12.5 -278.6 L10.76 -277.7 L8.949 -276.9 L7.083 -276.2 L5.172 -275.7 L3.229 -275.4 L1.265 -275.2 L-0.7071 -275.2 L-2.674 -275.3 L-4.625 -275.6 L-6.546 -276.1 L-8.426 -276.7 L-10.25 -277.4 L-12.01 -278.3 L-13.7 -279.3 L-15.3 -280.5 L-16.8 -281.8 L-18.2 -283.2 L-19.48 -284.7 L-20.64 -286.3 L-21.66 -287.9 L-22.55 -289.7 L-23.3 -291.5 L-23.9 -293.4 L-24.35 -295.3 L-24.65 -297.3 L-24.79 -299.2 L-24.77 -301.2 L-24.6 -303.2 L-24.27 -305.1 L-23.78 -307 L-23.15 -308.9 L-22.37 -310.7 L-21.45 -312.4 L-20.39 -314.1 L-19.21 -315.7 L-17.9 -317.2 L-16.48 -318.5 L-14.96 -319.8 L-13.34 -320.9 L-11.63 -321.9 L-9.856 -322.8 L-8.017 -323.5 L-6.127 -324 L-4.199 -324.4 L-2.243 -324.7 L-0.274 -324.8 L1.697 -324.7 L3.658 -324.5 L5.595 -324.2 L7.497 -323.6 L9.352 -323 L11.15 -322.2 L12.87 -321.2 L14.52 -320.1 L16.07 -318.9 L17.52 -317.6 L18.86 -316.1 L20.08 -314.6 L21.17 -312.9 L22.13 -311.2 L22.95 -309.4 L23.63 -307.6 L24.15 -305.7 L24.52 -303.7 L24.74 -301.8 L24.8 -299.8 Z " />
<path stroke="rgb(0,0,0)" stroke-opacity="1" fill="rgb(255,255,255)" fill-opacity="1" d="M-312.8 -688.2 L-312.7 -689.2 L-312.7 -690.2 L-312.7 -691.2 L-312.7 -692.2 L-312.7 -693.1 L-312.6 -694.1 L-312.6 -695.1 L-312.6 -696.1 L-312.6 -697.1 L-312.6 -698.1 L-312.6 -699.1 L-312.5 -700.1 L-312.5 -701.1 L-312.5 -702.1 L-312.5 -703.1 L-312.5 -704.1 L-312.4 -705.1 L-312.4 -706.1 L-312.4 -707 L-312.4 -708 L-312.4 -709 L-312.3 -710 L-312.3 -711 L-312.3 -712 L-312.3 -713 L-311.3 -713 L-310.3 -713 L-309.3 -712.9 L-308.3 -712.9 L-307.3 -712.9 L-306.3 -712.9 L-305.3 -712.9 L-304.3 -712.9 L-303.4 -712.8 L-302.4 -712.8 L-301.4 -712.8 L-300.4 -712.8 L-299.4 -712.8 L-298.4 -712.7 L-297.4 -712.7 L-296.4 -712.7 L-295.4 -712.7 L-294.4 -712.7 L-293.4 -712.6 L-292.4 -712.6 L-291.4 -712.6 L-290.4 -712.6 L-289.5 -712.6 L-288.5 -712.6 L-287.5 -712.5 L-287.5 -711.5 L-287.5 -710.6 L-287.5 -709.6 L-287.5 -708.6 L-287.6 -707.6 L-287.6 -706.6 L-287.6 -705.6 L-287.6 -704.6 L-287.6 -703.6 L-287.7 -702.6 L-287.7 -701.6 L-287.7 -700.6 L-287.7 -699.6 L-287.7 -698.6 L-287.7 -697.6 L-287.8 -696.7 L-287.8 -695.7 L-287.8 -694.7 L-287.8 -693.7 L-287.8 -692.7 L-287.9 -691.7 L-287.9 -690.7 L-287.9 -689.7 L-287.9 -688.7 L-287.9 -687.7 L-288.9 -687.7 L-289.9 -687.8 L-290.9 -687.8 L-291.9 -687.8 L-292.9 -687.8 L-293.9 -687.8 L-294.9 -687.8 L-295.9 -687.9 L-296.9 -687.9 L-297.9 -687.9 L-298.9 -687.9 L-299.9 -687.9 L-300.8 -688 L-301.8 -688 L-302.8 -688 L-303.8 -688 L-304.8 -688 L-305.8 -688.1 L-306.8 -688.1 L-307.8 -688.1 L-308.8 -688.1 L-309.8 -688.1 L-310.8 -688.1 L-311.8 -688.2 L-312.8 -688.2 Z " />
<path stroke="rgb(0,0,0)" stroke-opacity="0.999" fill="rgb(255,255,255)" fill-opacity="1" d="M224.8 -299.8 L224.7 -297.8 L224.5 -295.9 L224 -293.9 L223.5 -292 L222.8 -290.2 L221.9 -288.4 L220.9 -286.7 L219.8 -285.1 L218.6 -283.6 L217.2 -282.1 L215.7 -280.8 L214.2 -279.6 L212.5 -278.6 L210.8 -277.7 L208.9 -276.9 L207.1 -276.2 L205.2 -275.7 L203.2 -275.4 L201.3 -275.2 L199.3 -275.2 L197.3 -275.3 L195.4 -275.6 L193.5 -276.1 L191.6 -276.7 L189.7 -277.4 L188 -278.3 L186.3 -279.3 L184.7 -280.5 L183.2 -281.8 L181.8 -283.2 L180.5 -284.7 L179.4 -286.3 L178.3 -287.9 L177.4 -289.7 L176.7 -291.5 L176.1 -293.4 L175.6 -295.3 L175.4 -297.3 L175.2 -299.2 L175.2 -301.2 L175.4 -303.2 L175.7 -305.1 L176.2 -307 L176.9 -308.9 L177.6 -310.7 L178.6 -312.4 L179.6 -314.1 L180.8 -315.7 L182.1 -317.2 L183.5 -318.5 L185 -319.8 L186.7 -320.9 L188.4 -321.9 L190.1 -322.8 L192 -323.5 L193.9 -324 L195.8 -324.4 L197.8 -324.7 L199.7 -324.8 L201.7 -324.7 L203.7 -324.5 L205.6 -324.2 L207.5 -323.6 L209.4 -323 L211.1 -322.2 L212.9 -321.2 L214.5 -320.1 L216.1 -318.9 L217.5 -317.6 L218.9 -316.1 L220.1 -314.6 L221.2 -312.9 L222.1 -311.2 L223 -309.4 L223.6 -307.6 L224.2 -305.7 L224.5 -303.7 L224.7 -301.8 L224.8 -299.8 Z " />
<path stroke="rgb(0,0,0)" stroke-opacity="1" fill="rgb(255,255,255)" fill-opacity="1" d="M-112.6 -688.1 L-112.6 -689.1 L-112.5 -690.1 L-112.5 -691.1 L-112.5 -692.1 L-112.5 -693 L-112.5 -694 L-112.5 -695 L-112.5 -696 L-112.5 -697 L-112.5 -698 L-112.5 -699 L-112.5 -700 L-112.5 -700.9 L-112.5 -701.9 L-112.4 -702.9 L-112.4 -703.9 L-112.4 -704.9 L-112.4 -705.9 L-112.4 -706.9 L-112.4 -707.9 L-112.4 -708.9 L-112.4 -709.8 L-112.4 -710.8 L-112.4 -711.8 L-112.4 -712.8 L-111.4 -712.8 L-110.4 -712.8 L-109.4 -712.8 L-108.4 -712.8 L-107.4 -712.8 L-106.4 -712.8 L-105.5 -712.8 L-104.5 -712.7 L-103.5 -712.7 L-102.5 -712.7 L-101.5 -712.7 L-100.5 -712.7 L-99.53 -712.7 L-98.54 -712.7 L-97.55 -712.7 L-96.56 -712.7 L-95.57 -712.7 L-94.59 -712.7 L-93.6 -712.7 L-92.61 -712.7 L-91.62 -712.6 L-90.63 -712.6 L-89.65 -712.6 L-88.66 -712.6 L-87.67 -712.6 L-87.68 -711.6 L-87.68 -710.6 L-87.69 -709.7 L-87.7 -708.7 L-87.71 -707.7 L-87.71 -706.7 L-87.72 -705.7 L-87.73 -704.7 L-87.74 -703.7 L-87.74 -702.7 L-87.75 -701.7 L-87.76 -700.8 L-87.77 -699.8 L-87.78 -698.8 L-87.78 -697.8 L-87.79 -696.8 L-87.8 -695.8 L-87.81 -694.8 L-87.81 -693.8 L-87.82 -692.9 L-87.83 -691.9 L-87.84 -690.9 L-87.84 -689.9 L-87.85 -688.9 L-87.86 -687.9 L-88.85 -687.9 L-89.83 -687.9 L-90.82 -687.9 L-91.81 -687.9 L-92.8 -688 L-93.79 -688 L-94.78 -688 L-95.76 -688 L-96.75 -688 L-97.74 -688 L-98.73 -688 L-99.72 -688 L-100.7 -688 L-101.7 -688 L-102.7 -688 L-103.7 -688 L-104.7 -688 L-105.6 -688.1 L-106.6 -688.1 L-107.6 -688.1 L-108.6 -688.1 L-109.6 -688.1 L-110.6 -688.1 L-111.6 -688.1 L-112.6 -688.1 Z " />
<path stroke="rgb(0,0,0)" stroke-opacity="0.999" fill="rgb(255,255,255)" fill-opacity="1" d="M-275.2 -199.8 L-275.3 -197.8 L-275.5 -195.9 L-276 -193.9 L-276.5 -192 L-277.2 -190.2 L-278.1 -188.4 L-279.1 -186.7 L-280.2 -185.1 L-281.4 -183.6 L-282.8 -182.1 L-284.3 -180.8 L-285.8 -179.6 L-287.5 -178.6 L-289.2 -177.7 L-291.1 -176.9 L-292.9 -176.2 L-294.8 -175.7 L-296.8 -175.4 L-298.7 -175.2 L-300.7 -175.2 L-302.7 -175.3 L-304.6 -175.6 L-306.5 -176.1 L-308.4 -176.7 L-310.3 -177.4 L-312 -178.3 L-313.7 -179.3 L-315.3 -180.5 L-316.8 -181.8 L-318.2 -183.2 L-319.5 -184.7 L-320.6 -186.3 L-321.7 -187.9 L-322.6 -189.7 L-323.3 -191.5 L-323.9 -193.4 L-324.4 -195.3 L-324.6 -197.3 L-324.8 -199.2 L-324.8 -201.2 L-324.6 -203.2 L-324.3 -205.1 L-323.8 -207 L-323.1 -208.9 L-322.4 -210.7 L-321.4 -212.4 L-320.4 -214.1 L-319.2 -215.7 L-317.9 -217.2 L-316.5 -218.5 L-315 -219.8 L-313.3 -220.9 L-311.6 -221.9 L-309.9 -222.8 L-308 -223.5 L-306.1 -224 L-304.2 -224.4 L-302.2 -224.7 L-300.3 -224.8 L-298.3 -224.7 L-296.3 -224.5 L-294.4 -224.2 L-292.5 -223.6 L-290.6 -223 L-288.9 -222.2 L-287.1 -221.2 L-285.5 -220.1 L-283.9 -218.9 L-282.5 -217.6 L-281.1 -216.1 L-279.9 -214.6 L-278.8 -212.9 L-277.9 -211.2 L-277 -209.4 L-276.4 -207.6 L-275.8 -205.7 L-275.5 -203.7 L-275.3 -201.8 L-275.2 -199.8 Z " />
<path stroke="rgb(0,0,0)" stroke-opacity="1" fill="rgb(255,255,255)" fill-opacity="1" d="M-615.6 -589.6 L-615.4 -590.7 L-615.2 -591.7 L-615 -592.8 L-614.9 -593.8 L-614.7 -594.9 L-614.5 -595.9 L-614.3 -597 L-614.1 -598 L-613.9 -599.1 L-613.7 -600.1 L-613.5 -601.2 L-613.3 -602.2 L-613.1 -603.3 L-612.9 -604.3 L-612.7 -605.4 L-612.5 -606.4 L-612.3 -607.5 L-612.1 -608.5 L-611.9 -609.6 L-611.8 -610.6 L-611.6 -611.7 L-611.4 -612.7 L-611.2 -613.8 L-611 -614.8 L-610.8 -615.9 L-609.7 -615.7 L-608.7 -615.5 L-607.6 -615.3 L-606.6 -615.1 L-605.5 -614.9 L-604.5 -614.7 L-603.4 -614.5 L-602.4 -614.3 L-601.3 -614.1 L-600.3 -613.9 L-599.2 -613.8 L-598.2 -613.6 L-597.1 -613.4 L-596.1 -613.2 L-595 -613 L-594 -612.8 L-592.9 -612.6 L-591.9 -612.4 L-590.8 -612.2 L-589.8 -612 L-588.7 -611.8 L-587.7 -611.6 L-586.6 -611.4 L-585.6 -611.2 L-584.5 -611 L-584.7 -610 L-584.9 -608.9 L-585.1 -607.9 L-585.3 -606.8 L-585.5 -605.8 L-585.7 -604.7 L-585.9 -603.7 L-586.1 -602.6 L-586.3 -601.6 L-586.5 -600.5 L-586.7 -599.5 L-586.9 -598.4 L-587.1 -597.4 L-587.3 -596.3 L-587.4 -595.3 L-587.6 -594.2 L-587.8 -593.2 L-588 -592.1 L-588.2 -591.1 L-588.4 -590 L-588.6 -589 L-588.8 -588 L-589 -586.9 L-589.2 -585.9 L-589.4 -584.8 L-590.4 -585 L-591.5 -585.2 L-592.5 -585.4 L-593.6 -585.6 L-594.6 -585.8 L-595.7 -586 L-596.7 -586.2 L-597.8 -586.4 L-598.8 -586.5 L-599.9 -586.7 L-600.9 -586.9 L-602 -587.1 L-603 -587.3 L-604.1 -587.5 L-605.1 -587.7 L-606.2 -587.9 L-607.2 -588.1 L-608.3 -588.3 L-609.3 -588.5 L-610.4 -588.7 L-611.4 -588.9 L-612.5 -589.1 L-613.5 -589.3 L-614.6 -589.5 L-615.6 -589.6 Z " />
<path stroke="rgb(0,0,0)" stroke-opacity="0.999" fill="rgb(255,255,255)" fill-opacity="1" d="M-75.2 -199.8 L-75.29 -197.8 L-75.55 -195.9 L-75.95 -193.9 L-76.51 -192 L-77.22 -190.2 L-78.07 -188.4 L-79.06 -186.7 L-80.18 -185.1 L-81.43 -183.6 L-82.79 -182.1 L-84.26 -180.8 L-85.84 -179.6 L-87.5 -178.6 L-89.24 -177.7 L-91.05 -176.9 L-92.92 -176.2 L-94.83 -175.7 L-96.77 -175.4 L-98.74 -175.2 L-100.7 -175.2 L-102.7 -175.3 L-104.6 -175.6 L-106.5 -176.1 L-108.4 -176.7 L-110.3 -177.4 L-112 -178.3 L-113.7 -179.3 L-115.3 -180.5 L-116.8 -181.8 L-118.2 -183.2 L-119.5 -184.7 L-120.6 -186.3 L-121.7 -187.9 L-122.6 -189.7 L-123.3 -191.5 L-123.9 -193.4 L-124.4 -195.3 L-124.6 -197.3 L-124.8 -199.2 L-124.8 -201.2 L-124.6 -203.2 L-124.3 -205.1 L-123.8 -207 L-123.1 -208.9 L-122.4 -210.7 L-121.4 -212.4 L-120.4 -214.1 L-119.2 -215.7 L-117.9 -217.2 L-116.5 -218.5 L-115 -219.8 L-113.3 -220.9 L-111.6 -221.9 L-109.9 -222.8 L-108 -223.5 L-106.1 -224 L-104.2 -224.4 L-102.2 -224.7 L-100.3 -224.8 L-98.3 -224.7 L-96.34 -224.5 L-94.41 -224.2 L-92.5 -223.6 L-90.65 -223 L-88.85 -222.2 L-87.13 -221.2 L-85.48 -220.1 L-83.93 -218.9 L-82.48 -217.6 L-81.14 -216.1 L-79.92 -214.6 L-78.83 -212.9 L-77.87 -211.2 L-77.05 -209.4 L-76.37 -207.6 L-75.85 -205.7 L-75.48 -203.7 L-75.26 -201.8 L-75.2 -199.8 Z " />
<path stroke="rgb(0,0,0)" stroke-opacity="1" fill="rgb(255,255,255)" fill-opacity="1" d="M-412.8 -588.2 L-412.7 -589.2 L-412.7 -590.2 L-412.7 -591.2 L-412.7 -592.2 L-412.7 -593.1 L-412.6 -594.1 L-412.6 -595.1 L-412.6 -596.1 L-412.6 -597.1 L-412.6 -598.1 L-412.6 -599.1 L-412.5 -600.1 L-412.5 -601.1 L-412.5 -602.1 L-412.5 -603.1 L-412.5 -604.1 L-412.4 -605.1 L-412.4 -606.1 L-412.4 -607 L-412.4 -608 L-412.4 -609 L-412.3 -610 L-412.3 -611 L-412.3 -612 L-412.3 -613 L-411.3 -613 L-410.3 -613 L-409.3 -612.9 L-408.3 -612.9 L-407.3 -612.9 L-406.3 -612.9 L-405.3 -612.9 L-404.3 -612.9 L-403.4 -612.8 L-402.4 -612.8 L-401.4 -612.8 L-400.4 -612.8 L-399.4 -612.8 L-398.4 -612.7 L-397.4 -612.7 L-396.4 -612.7 L-395.4 -612.7 L-394.4 -612.7 L-393.4 -612.6 L-392.4 -612.6 L-391.4 -612.6 L-390.4 -612.6 L-389.5 -612.6 L-388.5 -612.6 L-387.5 -612.5 L-387.5 -611.5 L-387.5 -610.6 L-387.5 -609.6 L-387.5 -608.6 L-387.6 -607.6 L-387.6 -606.6 L-387.6 -605.6 L-387.6 -604.6 L-387.6 -603.6 L-387.7 -602.6 L-387.7 -601.6 L-387.7 -600.6 L-387.7 -599.6 L-387.7 -598.6 L-387.7 -597.6 L-387.8 -596.7 L-387.8 -595.7 L-387.8 -594.7 L-387.8 -593.7 L-387.8 -592.7 L-387.9 -591.7 L-387.9 -590.7 L-387.9 -589.7 L-387.9 -588.7 L-387.9 -587.7 L-388.9 -587.7 L-389.9 -587.8 L-390.9 -587.8 L-391.9 -587.8 L-392.9 -587.8 L-393.9 -587.8 L-394.9 -587.8 L-395.9 -587.9 L-396.9 -587.9 L-397.9 -587.9 L-398.9 -587.9 L-399.9 -587.9 L-400.8 -588 L-401.8 -588 L-402.8 -588 L-403.8 -588 L-404.8 -588 L-405.8 -588.1 L-406.8 -588.1 L-407.8 -588.1 L-408.8 -588.1 L-409.8 -588.1 L-410.8 -588.1 L-411.8 -588.2 L-412.8 -588.2 Z " />
<path stroke="rgb(0,0,0)" stroke-opacity="0.999" fill="rgb(255,255,255)" fill-opacity="1" d="M124.8 -199.8 L124.7 -197.8 L124.5 -195.9 L124 -193.9 L123.5 -192 L122.8 -190.2 L121.9 -188.4 L120.9 -186.7 L119.8 -185.1 L118.6 -183.6 L117.2 -182.1 L115.7 -180.8 L114.2 -179.6 L112.5 -178.6 L110.8 -177.7 L108.9 -176.9 L107.1 -176.2 L105.2 -175.7 L103.2 -175.4 L101.3 -175.2 L99.29 -175.2 L97.33 -175.3 L95.38 -175.6 L93.45 -176.1 L91.57 -176.7 L89.75 -177.4 L87.99 -178.3 L86.3 -179.3 L84.7 -180.5 L83.2 -181.8 L81.8 -183.2 L80.52 -184.7 L79.36 -186.3 L78.34 -187.9 L77.45 -189.7 L76.7 -191.5 L76.1 -193.4 L75.65 -195.3 L75.35 -197.3 L75.21 -199.2 L75.23 -201.2 L75.4 -203.2 L75.73 -205.1 L76.22 -207 L76.85 -208.9 L77.63 -210.7 L78.55 -212.4 L79.61 -214.1 L80.79 -215.7 L82.1 -217.2 L83.52 -218.5 L85.04 -219.8 L86.66 -220.9 L88.37 -221.9 L90.14 -222.8 L91.98 -223.5 L93.87 -224 L95.8 -224.4 L97.76 -224.7 L99.73 -224.8 L101.7 -224.7 L103.7 -224.5 L105.6 -224.2 L107.5 -223.6 L109.4 -223 L111.1 -222.2 L112.9 -221.2 L114.5 -220.1 L116.1 -218.9 L117.5 -217.6 L118.9 -216.1 L120.1 -214.6 L121.2 -212.9 L122.1 -211.2 L123 -209.4 L123.6 -207.6 L124.2 -205.7 L124.5 -203.7 L124.7 -201.8 L124.8 -199.8 Z " />
<path stroke="rgb(0,0,0)" stroke-opacity="1" fill="rgb(255,255,255)" fill-opacity="1" d="M-212.6 -588.1 L-212.6 -589.1 L-212.5 -590.1 L-212.5 -591.1 L-212.5 -592.1 L-212.5 -593 L-212.5 -594 L-212.5 -595 L-212.5 -596 L-212.5 -597 L-212.5 -598 L-212.5 -599 L-212.5 -600 L-212.5 -600.9 L-212.5 -601.9 L-212.4 -602.9 L-212.4 -603.9 L-212.4 -604.9 L-212.4 -605.9 L-212.4 -606.9 L-212.4 -607.9 L-212.4 -608.9 L-212.4 -609.8 L-212.4 -610.8 L-212.4 -611.8 L-212.4 -612.8 L-211.4 -612.8 L-210.4 -612.8 L-209.4 -612.8 L-208.4 -612.8 L-207.4 -612.8 L-206.4 -612.8 L-205.5 -612.8 L-204.5 -612.7 L-203.5 -612.7 L-202.5 -612.7 L-201.5 -612.7 L-200.5 -612.7 L-199.5 -612.7 L-198.5 -612.7 L-197.6 -612.7 L-196.6 -612.7 L-195.6 -612.7 L-194.6 -612.7 L-193.6 -612.7 L-192.6 -612.7 L-191.6 -612.6 L-190.6 -612.6 L-189.6 -612.6 L-188.7 -612.6 L-187.7 -612.6 L-187.7 -611.6 L-187.7 -610.6 L-187.7 -609.7 L-187.7 -608.7 L-187.7 -607.7 L-187.7 -606.7 L-187.7 -605.7 L-187.7 -604.7 L-187.7 -603.7 L-187.7 -602.7 L-187.8 -601.7 L-187.8 -600.8 L-187.8 -599.8 L-187.8 -598.8 L-187.8 -597.8 L-187.8 -596.8 L-187.8 -595.8 L-187.8 -594.8 L-187.8 -593.8 L-187.8 -592.9 L-187.8 -591.9 L-187.8 -590.9 L-187.8 -589.9 L-187.9 -588.9 L-187.9 -587.9 L-188.8 -587.9 L-189.8 -587.9 L-190.8 -587.9 L-191.8 -587.9 L-192.8 -588 L-193.8 -588 L-194.8 -588 L-195.8 -588 L-196.8 -588 L-197.7 -588 L-198.7 -588 L-199.7 -588 L-200.7 -588 L-201.7 -588 L-202.7 -588 L-203.7 -588 L-204.7 -588 L-205.6 -588.1 L-206.6 -588.1 L-207.6 -588.1 L-208.6 -588.1 L-209.6 -588.1 L-210.6 -588.1 L-211.6 -588.1 L-212.6 -588.1 Z " />
<path stroke="rgb(0,0,0)" stroke-opacity="0.999" fill="rgb(255,255,255)" fill-opacity="1" d="M324.8 -199.8 L324.7 -197.8 L324.5 -195.9 L324 -193.9 L323.5 -192 L322.8 -190.2 L321.9 -188.4 L320.9 -186.7 L319.8 -185.1 L318.6 -183.6 L317.2 -182.1 L315.7 -180.8 L314.2 -179.6 L312.5 -178.6 L310.8 -177.7 L308.9 -176.9 L307.1 -176.2 L305.2 -175.7 L303.2 -175.4 L301.3 -175.2 L299.3 -175.2 L297.3 -175.3 L295.4 -175.6 L293.5 -176.1 L291.6 -176.7 L289.7 -177.4 L288 -178.3 L286.3 -179.3 L284.7 -180.5 L283.2 -181.8 L281.8 -183.2 L280.5 -184.7 L279.4 -186.3 L278.3 -187.9 L277.4 -189.7 L276.7 -191.5 L276.1 -193.4 L275.6 -195.3 L275.4 -197.3 L275.2 -199.2 L275.2 -201.2 L275.4 -203.2 L275.7 -205.1 L276.2 -207 L276.9 -208.9 L277.6 -210.7 L278.6 -212.4 L279.6 -214.1 L280.8 -215.7 L282.1 -217.2 L283.5 -218.5 L285 -219.8 L286.7 -220.9 L288.4 -221.9 L290.1 -222.8 L292 -223.5 L293.9 -224 L295.8 -224.4 L297.8 -224.7 L299.7 -224.8 L301.7 -224.7 L303.7 -224.5 L305.6 -224.2 L307.5 -223.6 L309.4 -223 L311.1 -222.2 L312.9 -221.2 L314.5 -220.1 L316.1 -218.9 L317.5 -217.6 L318.9 -216.1 L320.1 -214.6 L321.2 -212.9 L322.1 -211.2 L323 -209.4 L323.6 -207.6 L324.2 -205.7 L324.5 -203.7 L324.7 -201.8 L324.8 -199.8 Z " />
<path stroke="rgb(0,0,0)" stroke-opacity="1" fill="rgb(255,255,255)" fill-opacity="1" d="M-715.6 -489.6 L-715.4 -490.7 L-715.2 -491.7 L-715 -492.8 L-714.9 -493.8 L-714.7 -494.9 L-714.5 -495.9 L-714.3 -497 L-714.1 -498 L-713.9 -499.1 L-713.7 -500.1 L-713.5 -501.2 L-713.3 -502.2 L-713.1 -503.3 L-712.9 -504.3 L-712.7 -505.4 L-712.5 -506.4 L-712.3 -507.5 L-712.1 -508.5 L-711.9 -509.6 L-711.8 -510.6 L-711.6 -511.7 L-711.4 -512.7 L-711.2 -513.8 L-711 -514.8 L-710.8 -515.9 L-709.7 -515.7 L-708.7 -515.5 L-707.6 -515.3 L-706.6 -515.1 L-705.5 -514.9 L-704.5 -514.7 L-703.4 -514.5 L-702.4 -514.3 L-701.3 -514.1 L-700.3 -513.9 L-699.2 -513.8 L-698.2 -513.6 L-697.1 -513.4 L-696.1 -513.2 L-695 -513 L-694 -512.8 L-692.9 -512.6 L-691.9 -512.4 L-690.8 -512.2 L-689.8 -512 L-688.7 -511.8 L-687.7 -511.6 L-686.6 -511.4 L-685.6 -511.2 L-684.5 -511 L-684.7 -510 L-684.9 -508.9 L-685.1 -507.9 L-685.3 -506.8 L-685.5 -505.8 L-685.7 -504.7 L-685.9 -503.7 L-686.1 -502.6 L-686.3 -501.6 L-686.5 -500.5 L-686.7 -499.5 L-686.9 -498.4 L-687.1 -497.4 L-687.3 -496.3 L-687.4 -495.3 L-687.6 -494.2 L-687.8 -493.2 L-688 -492.1 L-688.2 -491.1 L-688.4 -490 L-688.6 -489 L-688.8 -488 L-689 -486.9 L-689.2 -485.9 L-689.4 -484.8 L-690.4 -485 L-691.5 -485.2 L-692.5 -485.4 L-693.6 -485.6 L-694.6 -485.8 L-695.7 -486 L-696.7 -486.2 L-697.8 -486.4 L-698.8 -486.5 L-699.9 -486.7 L-700.9 -486.9 L-702 -487.1 L-703 -487.3 L-704.1 -487.5 L-705.1 -487.7 L-706.2 -487.9 L-707.2 -488.1 L-708.3 -488.3 L-709.3 -488.5 L-710.4 -488.7 L-711.4 -488.9 L-712.5 -489.1 L-713.5 -489.3 L-714.6 -489.5 L-715.6 -489.6 Z " />
<path stroke="rgb(0,0,0)" stroke-opacity="0.999" fill="rgb(255,255,255)" fill-opacity="1" d="M-175.2 -99.79 L-175.3 -97.82 L-175.5 -95.86 L-176 -93.93 L-176.5 -92.04 L-177.2 -90.2 L-178.1 -88.42 L-179.1 -86.71 L-180.2 -85.09 L-181.4 -83.57 L-182.8 -82.14 L-184.3 -80.83 L-185.8 -79.64 L-187.5 -78.58 L-189.2 -77.66 L-191.1 -76.87 L-192.9 -76.23 L-194.8 -75.75 L-196.8 -75.41 L-198.7 -75.23 L-200.7 -75.21 L-202.7 -75.35 L-204.6 -75.64 L-206.5 -76.08 L-208.4 -76.68 L-210.3 -77.42 L-212 -78.31 L-213.7 -79.33 L-215.3 -80.48 L-216.8 -81.76 L-218.2 -83.16 L-219.5 -84.65 L-220.6 -86.25 L-221.7 -87.93 L-222.6 -89.69 L-223.3 -91.52 L-223.9 -93.4 L-224.4 -95.32 L-224.6 -97.27 L-224.8 -99.23 L-224.8 -101.2 L-224.6 -103.2 L-224.3 -105.1 L-223.8 -107 L-223.1 -108.9 L-222.4 -110.7 L-221.4 -112.4 L-220.4 -114.1 L-219.2 -115.7 L-217.9 -117.2 L-216.5 -118.5 L-215 -119.8 L-213.3 -120.9 L-211.6 -121.9 L-209.9 -122.8 L-208 -123.5 L-206.1 -124 L-204.2 -124.4 L-202.2 -124.7 L-200.3 -124.8 L-198.3 -124.7 L-196.3 -124.5 L-194.4 -124.2 L-192.5 -123.6 L-190.6 -123 L-188.9 -122.2 L-187.1 -121.2 L-185.5 -120.1 L-183.9 -118.9 L-182.5 -117.6 L-181.1 -116.1 L-179.9 -114.6 L-178.8 -112.9 L-177.9 -111.2 L-177 -109.4 L-176.4 -107.6 L-175.8 -105.7 L-175.5 -103.7 L-175.3 -101.8 L-175.2 -99.79 Z " />
<path stroke="rgb(0,0,0)" stroke-opacity="1" fill="rgb(255,255,255)" fill-opacity="1" d="M-512.8 -488.2 L-512.7 -489.2 L-512.7 -490.2 L-512.7 -491.2 L-512.7 -492.2 L-512.7 -493.1 L-512.6 -494.1 L-512.6 -495.1 L-512.6 -496.1 L-512.6 -497.1 L-512.6 -498.1 L-512.6 -499.1 L-512.5 -500.1 L-512.5 -501.1 L-512.5 -502.1 L-512.5 -503.1 L-512.5 -504.1 L-512.4 -505.1 L-512.4 -506.1 L-512.4 -507 L-512.4 -508 L-512.4 -509 L-512.3 -510 L-512.3 -511 L-512.3 -512 L-512.3 -513 L-511.3 -513 L-510.3 -513 L-509.3 -512.9 L-508.3 -512.9 L-507.3 -512.9 L-506.3 -512.9 L-505.3 -512.9 L-504.3 -512.9 L-503.4 -512.8 L-502.4 -512.8 L-501.4 -512.8 L-500.4 -512.8 L-499.4 -512.8 L-498.4 -512.7 L-497.4 -512.7 L-496.4 -512.7 L-495.4 -512.7 L-494.4 -512.7 L-493.4 -512.6 L-492.4 -512.6 L-491.4 -512.6 L-490.4 -512.6 L-489.5 -512.6 L-488.5 -512.6 L-487.5 -512.5 L-487.5 -511.5 L-487.5 -510.6 L-487.5 -509.6 L-487.5 -508.6 L-487.6 -507.6 L-487.6 -506.6 L-487.6 -505.6 L-487.6 -504.6 L-487.6 -503.6 L-487.7 -502.6 L-487.7 -501.6 L-487.7 -500.6 L-487.7 -499.6 L-487.7 -498.6 L-487.7 -497.6 L-487.8 -496.7 L-487.8 -495.7 L-487.8 -494.7 L-487.8 -493.7 L-487.8 -492.7 L-487.9 -491.7 L-487.9 -490.7 L-487.9 -489.7 L-487.9 -488.7 L-487.9 -487.7 L-488.9 -487.7 L-489.9 -487.8 L-490.9 -487.8 L-491.9 -487.8 L-492.9 -487.8 L-493.9 -487.8 L-494.9 -487.8 L-495.9 -487.9 L-496.9 -487.9 L-497.9 -487.9 L-498.9 -487.9 L-499.9 -487.9 L-500.8 -488 L-501.8 -488 L-502.8 -488 L-503.8 -488 L-504.8 -488 L-505.8 -488.1 L-506.8 -488.1 L-507.8 -488.1 L-508.8 -488.1 L-509.8 -488.1 L-510.8 -488.1 L-511.8 -488.2 L-512.8 -488.2 Z " />
<path stroke="rgb(0,0,0)" stroke-opacity="0.999" fill="rgb(255,255,255)" fill-opacity="1" d="M24.8 -99.79 L24.71 -97.82 L24.45 -95.86 L24.05 -93.93 L23.49 -92.04 L22.78 -90.2 L21.93 -88.42 L20.94 -86.71 L19.82 -85.09 L18.57 -83.57 L17.21 -82.14 L15.74 -80.83 L14.16 -79.64 L12.5 -78.58 L10.76 -77.66 L8.949 -76.87 L7.083 -76.23 L5.172 -75.75 L3.229 -75.41 L1.265 -75.23 L-0.7071 -75.21 L-2.674 -75.35 L-4.625 -75.64 L-6.546 -76.08 L-8.426 -76.68 L-10.25 -77.42 L-12.01 -78.31 L-13.7 -79.33 L-15.3 -80.48 L-16.8 -81.76 L-18.2 -83.16 L-19.48 -84.65 L-20.64 -86.25 L-21.66 -87.93 L-22.55 -89.69 L-23.3 -91.52 L-23.9 -93.4 L-24.35 -95.32 L-24.65 -97.27 L-24.79 -99.23 L-24.77 -101.2 L-24.6 -103.2 L-24.27 -105.1 L-23.78 -107 L-23.15 -108.9 L-22.37 -110.7 L-21.45 -112.4 L-20.39 -114.1 L-19.21 -115.7 L-17.9 -117.2 L-16.48 -118.5 L-14.96 -119.8 L-13.34 -120.9 L-11.63 -121.9 L-9.856 -122.8 L-8.017 -123.5 L-6.127 -124 L-4.199 -124.4 L-2.243 -124.7 L-0.274 -124.8 L1.697 -124.7 L3.658 -124.5 L5.595 -124.2 L7.497 -123.6 L9.352 -123 L11.15 -122.2 L12.87 -121.2 L14.52 -120.1 L16.07 -118.9 L17.52 -117.6 L18.86 -116.1 L20.08 -114.6 L21.17 -112.9 L22.13 -111.2 L22.95 -109.4 L23.63 -107.6 L24.15 -105.7 L24.52 -103.7 L24.74 -101.8 L24.8 -99.79 Z " />
<path stroke="rgb(0,0,0)" stroke-opacity="1" fill="rgb(255,255,255)" fill-opacity="1" d="M-312.6 -488.1 L-312.6 -489.1 L-312.5 -490.1 L-312.5 -491.1 L-312.5 -492.1 L-312.5 -493 L-312.5 -494 L-312.5 -495 L-312.5 -496 L-312.5 -497 L-312.5 -498 L-312.5 -499 L-312.5 -500 L-312.5 -500.9 L-312.5 -501.9 L-312.4 -502.9 L-312.4 -503.9 L-312.4 -504.9 L-312.4 -505.9 L-312.4 -506.9 L-312.4 -507.9 L-312.4 -508.9 L-312.4 -509.8 L-312.4 -510.8 L-312.4 -511.8 L-312.4 -512.8 L-311.4 -512.8 L-310.4 -512.8 L-309.4 -512.8 L-308.4 -512.8 L-307.4 -512.8 L-306.4 -512.8 L-305.5 -512.8 L-304.5 -512.7 L-303.5 -512.7 L-302.5 -512.7 L-301.5 -512.7 L-300.5 -512.7 L-299.5 -512.7 L-298.5 -512.7 L-297.6 -512.7 L-296.6 -512.7 L-295.6 -512.7 L-294.6 -512.7 L-293.6 -512.7 L-292.6 -512.7 L-291.6 -512.6 L-290.6 -512.6 L-289.6 -512.6 L-288.7 -512.6 L-287.7 -512.6 L-287.7 -511.6 L-287.7 -510.6 L-287.7 -509.7 L-287.7 -508.7 L-287.7 -507.7 L-287.7 -506.7 L-287.7 -505.7 L-287.7 -504.7 L-287.7 -503.7 L-287.7 -502.7 L-287.8 -501.7 L-287.8 -500.8 L-287.8 -499.8 L-287.8 -498.8 L-287.8 -497.8 L-287.8 -496.8 L-287.8 -495.8 L-287.8 -494.8 L-287.8 -493.8 L-287.8 -492.9 L-287.8 -491.9 L-287.8 -490.9 L-287.8 -489.9 L-287.9 -488.9 L-287.9 -487.9 L-288.8 -487.9 L-289.8 -487.9 L-290.8 -487.9 L-291.8 -487.9 L-292.8 -488 L-293.8 -488 L-294.8 -488 L-295.8 -488 L-296.8 -488 L-297.7 -488 L-298.7 -488 L-299.7 -488 L-300.7 -488 L-301.7 -488 L-302.7 -488 L-303.7 -488 L-304.7 -488 L-305.6 -488.1 L-306.6 -488.1 L-307.6 -488.1 L-308.6 -488.1 L-309.6 -488.1 L-310.6 -488.1 L-311.6 -488.1 L-312.6 -488.1 Z " />
<path stroke="rgb(0,0,0)" stroke-opacity="0.999" fill="rgb(255,255,255)" fill-opacity="1" d="M224.8 -99.79 L224.7 -97.82 L224.5 -95.86 L224 -93.93 L223.5 -92.04 L222.8 -90.2 L221.9 -88.42 L220.9 -86.71 L219.8 -85.09 L218.6 -83.57 L217.2 -82.14 L215.7 -80.83 L214.2 -79.64 L212.5 -78.58 L210.8 -77.66 L208.9 -76.87 L207.1 -76.23 L205.2 -75.75 L203.2 -75.41 L201.3 -75.23 L199.3 -75.21 L197.3 -75.35 L195.4 -75.64 L193.5 -76.08 L191.6 -76.68 L189.7 -77.42 L188 -78.31 L186.3 -79.33 L184.7 -80.48 L183.2 -81.76 L181.8 -83.16 L180.5 -84.65 L179.4 -86.25 L178.3 -87.93 L177.4 -89.69 L176.7 -91.52 L176.1 -93.4 L175.6 -95.32 L175.4 -97.27 L175.2 -99.23 L175.2 -101.2 L175.4 -103.2 L175.7 -105.1 L176.2 -107 L176.9 -108.9 L177.6 -110.7 L178.6 -112.4 L179.6 -114.1 L180.8 -115.7 L182.1 -117.2 L183.5 -118.5 L185 -119.8 L186.7 -120.9 L188.4 -121.9 L190.1 -122.8 L192 -123.5 L193.9 -124 L195.8 -124.4 L197.8 -124.7 L199.7 -124.8 L201.7 -124.7 L203.7 -124.5 L205.6 -124.2 L207.5 -123.6 L209.4 -123 L211.1 -122.2 L212.9 -121.2 L214.5 -120.1 L216.1 -118.9 L217.5 -117.6 L218.9 -116.1 L220.1 -114.6 L221.2 -112.9 L222.1 -111.2 L223 -109.4 L223.6 -107.6 L224.2 -105.7 L224.5 -103.7 L224.7 -101.8 L224.8 -99.79 Z " />
<path stroke="rgb(0,0,0)" stroke-opacity="1" fill="rgb(255,255,255)" fill-opacity="1" d="M-112.6 -488.1 L-112.6 -489.1 L-112.5 -490.1 L-112.5 -491.1 L-112.5 -492.1 L-112.5 -493 L-112.5 -494 L-112.5 -495 L-112.5 -496 L-112.5 -497 L-112.5 -498 L-112.5 -499 L-112.5 -500 L-112.5 -500.9 L-112.5 -501.9 L-112.4 -502.9 L-112.4 -503.9 L-112.4 -504.9 L-112.4 -505.9 L-112.4 -506.9 L-112.4 -507.9 L-112.4 -508.9 L-112.4 -509.8 L-112.4 -510.8 L-112.4 -511.8 L-112.4 -512.8 L-111.4 -512.8 L-110.4 -512.8 L-109.4 -512.8 L-108.4 -512.8 L-107.4 -512.8 L-106.4 -512.8 L-105.5 -512.8 L-104.5 -512.7 L-103.5 -512.7 L-102.5 -512.7 L-101.5 -512.7 L-100.5 -512.7 L-99.53 -512.7 L-98.54 -512.7 L-97.55 -512.7 L-96.56 -512.7 L-95.57 -512.7 L-94.59 -512.7 L-93.6 -512.7 L-92.61 -512.7 L-91.62 -512.6 L-90.63 -512.6 L-89.65 -512.6 L-88.66 -512.6 L-87.67 -512.6 L-87.68 -511.6 L-87.68 -510.6 L-87.69 -509.7 L-87.7 -508.7 L-87.71 -507.7 L-87.71 -506.7 L-87.72 -505.7 L-87.73 -504.7 L-87.74 -503.7 L-87.74 -502.7 L-87.75 -501.7 L-87.76 -500.8 L-87.77 -499.8 L-87.78 -498.8 L-87.78 -497.8 L-87.79 -496.8 L-87.8 -495.8 L-87.81 -494.8 L-87.81 -493.8 L-87.82 -492.9 L-87.83 -491.9 L-87.84 -490.9 L-87.84 -489.9 L-87.85 -488.9 L-87.86 -487.9 L-88.85 -487.9 L-89.83 -487.9 L-90.82 -487.9 L-91.81 -487.9 L-92.8 -488 L-93.79 -488 L-94.78 -488 L-95.76 -488 L-96.75 -488 L-97.74 -488 L-98.73 -488 L-99.72 -488 L-100.7 -488 L-101.7 -488 L-102.7 -488 L-103.7 -488 L-104.7 -488 L-105.6 -488.1 L-106.6 -488.1 L-107.6 -488.1 L-108.6 -488.1 L-109.6 -488.1 L-110.6 -488.1 L-111.6 -488.1 L-112.6 -488.1 Z " />
<path stroke="rgb(0,0,0)" stroke-opacity="0.999" fill="rgb(255,255,255)" fill-opacity="1" d="M-275.2 0.2139 L-275.3 2.184 L-275.5 4.139 L-276 6.069 L-276.5 7.96 L-277.2 9.801 L-278.1 11.58 L-279.1 13.29 L-280.2 14.91 L-281.4 16.43 L-282.8 17.86 L-284.3 19.17 L-285.8 20.36 L-287.5 21.42 L-289.2 22.34 L-291.1 23.13 L-292.9 23.77 L-294.8 24.25 L-296.8 24.59 L-298.7 24.77 L-300.7 24.79 L-302.7 24.65 L-304.6 24.36 L-306.5 23.92 L-308.4 23.32 L-310.3 22.58 L-312 21.69 L-313.7 20.67 L-315.3 19.52 L-316.8 18.24 L-318.2 16.84 L-319.5 15.35 L-320.6 13.75 L-321.7 12.07 L-322.6 10.31 L-323.3 8.482 L-323.9 6.604 L-324.4 4.684 L-324.6 2.734 L-324.8 0.7668 L-324.8 -1.205 L-324.6 -3.169 L-324.3 -5.114 L-323.8 -7.026 L-323.1 -8.893 L-322.4 -10.7 L-321.4 -12.45 L-320.4 -14.11 L-319.2 -15.69 L-317.9 -17.17 L-316.5 -18.53 L-315 -19.78 L-313.3 -20.91 L-311.6 -21.9 L-309.9 -22.76 L-308 -23.47 L-306.1 -24.03 L-304.2 -24.44 L-302.2 -24.7 L-300.3 -24.8 L-298.3 -24.75 L-296.3 -24.53 L-294.4 -24.16 L-292.5 -23.64 L-290.6 -22.97 L-288.9 -22.16 L-287.1 -21.2 L-285.5 -20.11 L-283.9 -18.9 L-282.5 -17.56 L-281.1 -16.11 L-279.9 -14.56 L-278.8 -12.92 L-277.9 -11.2 L-277 -9.407 L-276.4 -7.554 L-275.8 -5.654 L-275.5 -3.717 L-275.3 -1.757 L-275.2 0.2139 Z " />
<path stroke="rgb(0,0,0)" stroke-opacity="1" fill="rgb(255,255,255)" fill-opacity="1" d="M-612.8 -388.2 L-612.7 -389.2 L-612.7 -390.2 L-612.7 -391.2 L-612.7 -392.2 L-612.7 -393.1 L-612.6 -394.1 L-612.6 -395.1 L-612.6 -396.1 L-612.6 -397.1 L-612.6 -398.1 L-612.6 -399.1 L-612.5 -400.1 L-612.5 -401.1 L-612.5 -402.1 L-612.5 -403.1 L-612.5 -404.1 L-612.4 -405.1 L-612.4 -406.1 L-612.4 -407 L-612.4 -408 L-612.4 -409 L-612.3 -410 L-612.3 -411 L-612.3 -412 L-612.3 -413 L-611.3 -413 L-610.3 -413 L-609.3 -412.9 L-608.3 -412.9 L-607.3 -412.9 L-606.3 -412.9 L-605.3 -412.9 L-604.3 -412.9 L-603.4 -412.8 L-602.4 -412.8 L-601.4 -412.8 L-600.4 -412.8 L-599.4 -412.8 L-598.4 -412.7 L-597.4 -412.7 L-596.4 -412.7 L-595.4 -412.7 L-594.4 -412.7 L-593.4 -412.6 L-592.4 -412.6 L-591.4 -412.6 L-590.4 -412.6 L-589.5 -412.6 L-588.5 -412.6 L-587.5 -412.5 L-587.5 -411.5 L-587.5 -410.6 L-587.5 -409.6 L-587.5 -408.6 L-587.6 -407.6 L-587.6 -406.6 L-587.6 -405.6 L-587.6 -404.6 L-587.6 -403.6 L-587.7 -402.6 L-587.7 -401.6 L-587.7 -400.6 L-587.7 -399.6 L-587.7 -398.6 L-587.7 -397.6 L-587.8 -396.7 L-587.8 -395.7 L-587.8 -394.7 L-587.8 -393.7 L-587.8 -392.7 L-587.9 -391.7 L-587.9 -390.7 L-587.9 -389.7 L-587.9 -388.7 L-587.9 -387.7 L-588.9 -387.7 L-589.9 -387.8 L-590.9 -387.8 L-591.9 -387.8 L-592.9 -387.8 L-593.9 -387.8 L-594.9 -387.8 L-595.9 -387.9 L-596.9 -387.9 L-597.9 -387.9 L-598.9 -387.9 L-599.9 -387.9 L-600.8 -388 L-601.8 -388 L-602.8 -388 L-603.8 -388 L-604.8 -388 L-605.8 -388.1 L-606.8 -388.1 L-607.8 -388.1 L-608.8 -388.1 L-609.8 -388.1 L-610.8 -388.1 L-611.8 -388.2 L-612.8 -388.2 Z " />
<path stroke="rgb(0,0,0)" stroke-opacity="0.999" fill="rgb(255,255,255)" fill-opacity="1" d="M-75.2 0.2139 L-75.29 2.184 L-75.55 4.139 L-75.95 6.069 L-76.51 7.96 L-77.22 9.801 L-78.07 11.58 L-79.06 13.29 L-80.18 14.91 L-81.43 16.43 L-82.79 17.86 L-84.26 19.17 L-85.84 20.36 L-87.5 21.42 L-89.24 22.34 L-91.05 23.13 L-92.92 23.77 L-94.83 24.25 L-96.77 24.59 L-98.74 24.77 L-100.7 24.79 L-102.7 24.65 L-104.6 24.36 L-106.5 23.92 L-108.4 23.32 L-110.3 22.58 L-112 21.69 L-113.7 20.67 L-115.3 19.52 L-116.8 18.24 L-118.2 16.84 L-119.5 15.35 L-120.6 13.75 L-121.7 12.07 L-122.6 10.31 L-123.3 8.482 L-123.9 6.604 L-124.4 4.684 L-124.6 2.734 L-124.8 0.7668 L-124.8 -1.205 L-124.6 -3.169 L-124.3 -5.114 L-123.8 -7.026 L-123.1 -8.893 L-122.4 -10.7 L-121.4 -12.45 L-120.4 -14.11 L-119.2 -15.69 L-117.9 -17.17 L-116.5 -18.53 L-115 -19.78 L-113.3 -20.91 L-111.6 -21.9 L-109.9 -22.76 L-108 -23.47 L-106.1 -24.03 L-104.2 -24.44 L-102.2 -24.7 L-100.3 -24.8 L-98.3 -24.75 L-96.34 -24.53 L-94.41 -24.16 L-92.5 -23.64 L-90.65 -22.97 L-88.85 -22.16 L-87.13 -21.2 L-85.48 -20.11 L-83.93 -18.9 L-82.48 -17.56 L-81.14 -16.11 L-79.92 -14.56 L-78.83 -12.92 L-77.87 -11.2 L-77.05 -9.407 L-76.37 -7.554 L-75.85 -5.654 L-75.48 -3.717 L-75.26 -1.757 L-75.2 0.2139 Z " />
<path stroke="rgb(0,0,0)" stroke-opacity="1" fill="rgb(255,255,255)" fill-opacity="1" d="M-412.6 -388.1 L-412.6 -389.1 L-412.5 -390.1 L-412.5 -391.1 L-412.5 -392.1 L-412.5 -393 L-412.5 -394 L-412.5 -395 L-412.5 -396 L-412.5 -397 L-412.5 -398 L-412.5 -399 L-412.5 -400 L-412.5 -400.9 L-412.5 -401.9 L-412.4 -402.9 L-412.4 -403.9 L-412.4 -404.9 L-412.4 -405.9 L-412.4 -406.9 L-412.4 -407.9 L-412.4 -408.9 L-412.4 -409.8 L-412.4 -410.8 L-412.4 -411.8 L-412.4 -412.8 L-411.4 -412.8 L-410.4 -412.8 L-409.4 -412.8 L-408.4 -412.8 L-407.4 -412.8 L-406.4 -412.8 L-405.5 -412.8 L-404.5 -412.7 L-403.5 -412.7 L-402.5 -412.7 L-401.5 -412.7 L-400.5 -412.7 L-399.5 -412.7 L-398.5 -412.7 L-397.6 -412.7 L-396.6 -412.7 L-395.6 -412.7 L-394.6 -412.7 L-393.6 -412.7 L-392.6 -412.7 L-391.6 -412.6 L-390.6 -412.6 L-389.6 -412.6 L-388.7 -412.6 L-387.7 -412.6 L-387.7 -411.6 L-387.7 -410.6 L-387.7 -409.7 L-387.7 -408.7 L-387.7 -407.7 L-387.7 -406.7 L-387.7 -405.7 L-387.7 -404.7 L-387.7 -403.7 L-387.7 -402.7 L-387.8 -401.7 L-387.8 -400.8 L-387.8 -399.8 L-387.8 -398.8 L-387.8 -397.8 L-387.8 -396.8 L-387.8 -395.8 L-387.8 -394.8 L-387.8 -393.8 L-387.8 -392.9 L-387.8 -391.9 L-387.8 -390.9 L-387.8 -389.9 L-387.9 -388.9 L-387.9 -387.9 L-388.8 -387.9 L-389.8 -387.9 L-390.8 -387.9 L-391.8 -387.9 L-392.8 -388 L-393.8 -388 L-394.8 -388 L-395.8 -388 L-396.8 -388 L-397.7 -388 L-398.7 -388 L-399.7 -388 L-400.7 -388 L-401.7 -388 L-402.7 -388 L-403.7 -388 L-404.7 -388 L-405.6 -388.1 L-406.6 -388.1 L-407.6 -388.1 L-408.6 -388.1 L-409.6 -388.1 L-410.6 -388.1 L-411.6 -388.1 L-412.6 -388.1 Z " />
<path stroke="rgb(0,0,0)" stroke-opacity="0.999" fill="rgb(255,255,255)" fill-opacity="1" d="M124.8 0.2139 L124.7 2.184 L124.5 4.139 L124 6.069 L123.5 7.96 L122.8 9.801 L121.9 11.58 L120.9 13.29 L119.8 14.91 L118.6 16.43 L117.2 17.86 L115.7 19.17 L114.2 20.36 L112.5 21.42 L110.8 22.34 L108.9 23.13 L107.1 23.77 L105.2 24.25 L103.2 24.59 L101.3 24.77 L99.29 24.79 L97.33 24.65 L95.38 24.36 L93.45 23.92 L91.57 23.32 L89.75 22.58 L87.99 21.69 L86.3 20.67 L84.7 19.52 L83.2 18.24 L81.8 16.84 L80.52 15.35 L79.36 13.75 L78.34 12.07 L77.45 10.31 L76.7 8.482 L76.1 6.604 L75.65 4.684 L75.35 2.734 L75.21 0.7668 L75.23 -1.205 L75.4 -3.169 L75.73 -5.114 L76.22 -7.026 L76.85 -8.893 L77.63 -10.7 L78.55 -12.45 L79.61 -14.11 L80.79 -15.69 L82.1 -17.17 L83.52 -18.53 L85.04 -19.78 L86.66 -20.91 L88.37 -21.9 L90.14 -22.76 L91.98 -23.47 L93.87 -24.03 L95.8 -24.44 L97.76 -24.7 L99.73 -24.8 L101.7 -24.75 L103.7 -24.53 L105.6 -24.16 L107.5 -23.64 L109.4 -22.97 L111.1 -22.16 L112.9 -21.2 L114.5 -20.11 L116.1 -18.9 L117.5 -17.56 L118.9 -16.11 L120.1 -14.56 L121.2 -12.92 L122.1 -11.2 L123 -9.407 L123.6 -7.554 L124.2 -5.654 L124.5 -3.717 L124.7 -1.757 L124.8 0.2139 Z " />
<path stroke="rgb(0,0,0)" stroke-opacity="1" fill="rgb(255,255,255)" fill-opacity="1" d="M-212.6 -388.1 L-212.6 -389.1 L-212.5 -390.1 L-212.5 -391.1 L-212.5 -392.1 L-212.5 -393 L-212.5 -394 L-212.5 -395 L-212.5 -396 L-212.5 -397 L-212.5 -398 L-212.5 -399 L-212.5 -400 L-212.5 -400.9 L-212.5 -401.9 L-212.4 -402.9 L-212.4 -403.9 L-212.4 -404.9 L-212.4 -405.9 L-212.4 -406.9 L-212.4 -407.9 L-212.4 -408.9 L-212.4 -409.8 L-212.4 -410.8 L-212.4 -411.8 L-212.4 -412.8 L-211.4 -412.8 L-210.4 -412.8 L-209.4 -412.8 L-208.4 -412.8 L-207.4 -412.8 L-206.4 -412.8 L-205.5 -412.8 L-204.5 -412.7 L-203.5 -412.7 L-202.5 -412.7 L-201.5 -412.7 L-200.5 -412.7 L-199.5 -412.7 L-198.5 -412.7 L-197.6 -412.7 L-196.6 -412.7 L-195.6 -412.7 L-194.6 -412.7 L-193.6 -412.7 L-192.6 -412.7 L-191.6 -412.6 L-190.6 -412.6 L-189.6 -412.6 L-188.7 -412.6 L-187.7 -412.6 L-187.7 -411.6 L-187.7 -410.6 L-187.7 -409.7 L-187.7 -408.7 L-187.7 -407.7 L-187.7 -406.7 L-187.7 -405.7 L-187.7 -404.7 L-187.7 -403.7 L-187.7 -402.7 L-187.8 -401.7 L-187.8 -400.8 L-187.8 -399.8 L-187.8 -398.8 L-187.8 -397.8 L-187.8 -396.8 L-187.8 -395.8 L-187.8 -394.8 L-187.8 -393.8 L-187.8 -392.9 L-187.8 -391.9 L-187.8 -390.9 L-187.8 -389.9 L-187.9 -388.9 L-187.9 -387.9 L-188.8 -387.9 L-189.8 -387.9 L-190.8 -387.9 L-191.8 -387.9 L-192.8 -388 L-193.8 -388 L-194.8 -388 L-195.8 -388 L-196.8 -388 L-197.7 -388 L-198.7 -388 L-199.7 -388 L-200.7 -388 L-201.7 -388 L-202.7 -388 L-203.7 -388 L-204.7 -388 L-205.6 -388.1 L-206.6 -388.1 L-207.6 -388.1 L-208.6 -388.1 L-209.6 -388.1 L-210.6 -388.1 L-211.6 -388.1 L-212.6 -388.1 Z " />
<path stroke="rgb(0,0,0)" stroke-opacity="0.999" fill="rgb(255,255,255)" fill-opacity="1" d="M324.8 0.2139 L324.7 2.184 L324.5 4.139 L324 6.069 L323.5 7.96 L322.8 9.801 L321.9 11.58 L320.9 13.29 L319.8 14.91 L318.6 16.43 L317.2 17.86 L315.7 19.17 L314.2 20.36 L312.5 21.42 L310.8 22.34 L308.9 23.13 L307.1 23.77 L305.2 24.25 L303.2 24.59 L301.3 24.77 L299.3 24.79 L297.3 24.65 L295.4 24.36 L293.5 23.92 L291.6 23.32 L289.7 22.58 L288 21.69 L286.3 20.67 L284.7 19.52 L283.2 18.24 L281.8 16.84 L280.5 15.35 L279.4 13.75 L278.3 12.07 L277.4 10.31 L276.7 8.482 L276.1 6.604 L275.6 4.684 L275.4 2.734 L275.2 0.7668 L275.2 -1.205 L275.4 -3.169 L275.7 -5.114 L276.2 -7.026 L276.9 -8.893 L277.6 -10.7 L278.6 -12.45 L279.6 -14.11 L280.8 -15.69 L282.1 -17.17 L283.5 -18.53 L285 -19.78 L286.7 -20.91 L288.4 -21.9 L290.1 -22.76 L292 -23.47 L293.9 -24.03 L295.8 -24.44 L297.8 -24.7 L299.7 -24.8 L301.7 -24.75 L303.7 -24.53 L305.6 -24.16 L307.5 -23.64 L309.4 -22.97 L311.1 -22.16 L312.9 -21.2 L314.5 -20.11 L316.1 -18.9 L317.5 -17.56 L318.9 -16.11 L320.1 -14.56 L321.2 -12.92 L322.1 -11.2 L323 -9.407 L323.6 -7.554 L324.2 -5.654 L324.5 -3.717 L324.7 -1.757 L324.8 0.2139 Z " />
<path stroke="rgb(0,0,0)" stroke-opacity="1" fill="rgb(255,255,255)" fill-opacity="1" d="M-712.8 -288.2 L-712.7 -289.2 L-712.7 -290.2 L-712.7 -291.2 L-712.7 -292.2 L-712.7 -293.1 L-712.6 -294.1 L-712.6 -295.1 L-712.6 -296.1 L-712.6 -297.1 L-712.6 -298.1 L-712.6 -299.1 L-712.5 -300.1 L-712.5 -301.1 L-712.5 -302.1 L-712.5 -303.1 L-712.5 -304.1 L-712.4 -305.1 L-712.4 -306.1 L-712.4 -307 L-712.4 -308 L-712.4 -309 L-712.3 -310 L-712.3 -311 L-712.3 -312 L-712.3 -313 L-711.3 -313 L-710.3 -313 L-709.3 -312.9 L-708.3 -312.9 L-707.3 -312.9 L-706.3 -312.9 L-705.3 -312.9 L-704.3 -312.9 L-703.4 -312.8 L-702.4 -312.8 L-701.4 -312.8 L-700.4 -312.8 L-699.4 -312.8 L-698.4 -312.7 L-697.4 -312.7 L-696.4 -312.7 L-695.4 -312.7 L-694.4 -312.7 L-693.4 -312.6 L-692.4 -312.6 L-691.4 -312.6 L-690.4 -312.6 L-689.5 -312.6 L-688.5 -312.6 L-687.5 -312.5 L-687.5 -311.5 L-687.5 -310.6 L-687.5 -309.6 L-687.5 -308.6 L-687.6 -307.6 L-687.6 -306.6 L-687.6 -305.6 L-687.6 -304.6 L-687.6 -303.6 L-687.7 -302.6 L-687.7 -301.6 L-687.7 -300.6 L-687.7 -299.6 L-687.7 -298.6 L-687.7 -297.6 L-687.8 -296.7 L-687.8 -295.7 L-687.8 -294.7 L-687.8 -293.7 L-687.8 -292.7 L-687.9 -291.7 L-687.9 -290.7 L-687.9 -289.7 L-687.9 -288.7 L-687.9 -287.7 L-688.9 -287.7 L-689.9 -287.8 L-690.9 -287.8 L-691.9 -287.8 L-692.9 -287.8 L-693.9 -287.8 L-694.9 -287.8 L-695.9 -287.9 L-696.9 -287.9 L-697.9 -287.9 L-698.9 -287.9 L-699.9 -287.9 L-700.8 -288 L-701.8 -288 L-702.8 -288 L-703.8 -288 L-704.8 -288 L-705.8 -288.1 L-706.8 -288.1 L-707.8 -288.1 L-708.8 -288.1 L-709.8 -288.1 L-710.8 -288.1 L-711.8 -288.2 L-712.8 -288.2 Z " />
<path stroke="rgb(0,0,0)" stroke-opacity="0.999" fill="rgb(255,255,255)" fill-opacity="1" d="M-175.2 100.2 L-175.3 102.2 L-175.5 104.1 L-176 106.1 L-176.5 108 L-177.2 109.8 L-178.1 111.6 L-179.1 113.3 L-180.2 114.9 L-181.4 116.4 L-182.8 117.9 L-184.3 119.2 L-185.8 120.4 L-187.5 121.4 L-189.2 122.3 L-191.1 123.1 L-192.9 123.8 L-194.8 124.3 L-196.8 124.6 L-198.7 124.8 L-200.7 124.8 L-202.7 124.7 L-204.6 124.4 L-206.5 123.9 L-208.4 123.3 L-210.3 122.6 L-212 121.7 L-213.7 120.7 L-215.3 119.5 L-216.8 118.2 L-218.2 116.8 L-219.5 115.3 L-220.6 113.7 L-221.7 112.1 L-222.6 110.3 L-223.3 108.5 L-223.9 106.6 L-224.4 104.7 L-224.6 102.7 L-224.8 100.8 L-224.8 98.79 L-224.6 96.83 L-224.3 94.89 L-223.8 92.97 L-223.1 91.11 L-222.4 89.3 L-221.4 87.55 L-220.4 85.89 L-219.2 84.31 L-217.9 82.83 L-216.5 81.47 L-215 80.22 L-213.3 79.09 L-211.6 78.1 L-209.9 77.24 L-208 76.53 L-206.1 75.97 L-204.2 75.56 L-202.2 75.3 L-200.3 75.2 L-198.3 75.25 L-196.3 75.47 L-194.4 75.84 L-192.5 76.36 L-190.6 77.03 L-188.9 77.84 L-187.1 78.8 L-185.5 79.89 L-183.9 81.1 L-182.5 82.44 L-181.1 83.89 L-179.9 85.44 L-178.8 87.08 L-177.9 88.8 L-177 90.59 L-176.4 92.45 L-175.8 94.35 L-175.5 96.28 L-175.3 98.24 L-175.2 100.2 Z " />
<path stroke="rgb(0,0,0)" stroke-opacity="1" fill="rgb(255,255,255)" fill-opacity="1" d="M-512.6 -288.1 L-512.6 -289.1 L-512.5 -290.1 L-512.5 -291.1 L-512.5 -292.1 L-512.5 -293 L-512.5 -294 L-512.5 -295 L-512.5 -296 L-512.5 -297 L-512.5 -298 L-512.5 -299 L-512.5 -300 L-512.5 -300.9 L-512.5 -301.9 L-512.4 -302.9 L-512.4 -303.9 L-512.4 -304.9 L-512.4 -305.9 L-512.4 -306.9 L-512.4 -307.9 L-512.4 -308.9 L-512.4 -309.8 L-512.4 -310.8 L-512.4 -311.8 L-512.4 -312.8 L-511.4 -312.8 L-510.4 -312.8 L-509.4 -312.8 L-508.4 -312.8 L-507.4 -312.8 L-506.4 -312.8 L-505.5 -312.8 L-504.5 -312.7 L-503.5 -312.7 L-502.5 -312.7 L-501.5 -312.7 L-500.5 -312.7 L-499.5 -312.7 L-498.5 -312.7 L-497.6 -312.7 L-496.6 -312.7 L-495.6 -312.7 L-494.6 -312.7 L-493.6 -312.7 L-492.6 -312.7 L-491.6 -312.6 L-490.6 -312.6 L-489.6 -312.6 L-488.7 -312.6 L-487.7 -312.6 L-487.7 -311.6 L-487.7 -310.6 L-487.7 -309.7 L-487.7 -308.7 L-487.7 -307.7 L-487.7 -306.7 L-487.7 -305.7 L-487.7 -304.7 L-487.7 -303.7 L-487.7 -302.7 L-487.8 -301.7 L-487.8 -300.8 L-487.8 -299.8 L-487.8 -298.8 L-487.8 -297.8 L-487.8 -296.8 L-487.8 -295.8 L-487.8 -294.8 L-487.8 -293.8 L-487.8 -292.9 L-487.8 -291.9 L-487.8 -290.9 L-487.8 -289.9 L-487.9 -288.9 L-487.9 -287.9 L-488.8 -287.9 L-489.8 -287.9 L-490.8 -287.9 L-491.8 -287.9 L-492.8 -288 L-493.8 -288 L-494.8 -288 L-495.8 -288 L-496.8 -288 L-497.7 -288 L-498.7 -288 L-499.7 -288 L-500.7 -288 L-501.7 -288 L-502.7 -288 L-503.7 -288 L-504.7 -288 L-505.6 -288.1 L-506.6 -288.1 L-507.6 -288.1 L-508.6 -288.1 L-509.6 -288.1 L-510.6 -288.1 L-511.6 -288.1 L-512.6 -288.1 Z " />
<path stroke="rgb(0,0,0)" stroke-opacity="0.999" fill="rgb(255,255,255)" fill-opacity="1" d="M24.8 100.2 L24.71 102.2 L24.45 104.1 L24.05 106.1 L23.49 108 L22.78 109.8 L21.93 111.6 L20.94 113.3 L19.82 114.9 L18.57 116.4 L17.21 117.9 L15.74 119.2 L14.16 120.4 L12.5 121.4 L10.76 122.3 L8.949 123.1 L7.083 123.8 L5.172 124.3 L3.229 124.6 L1.265 124.8 L-0.7071 124.8 L-2.674 124.7 L-4.625 124.4 L-6.546 123.9 L-8.426 123.3 L-10.25 122.6 L-12.01 121.7 L-13.7 120.7 L-15.3 119.5 L-16.8 118.2 L-18.2 116.8 L-19.48 115.3 L-20.64 113.7 L-21.66 112.1 L-22.55 110.3 L-23.3 108.5 L-23.9 106.6 L-24.35 104.7 L-24.65 102.7 L-24.79 100.8 L-24.77 98.79 L-24.6 96.83 L-24.27 94.89 L-23.78 92.97 L-23.15 91.11 L-22.37 89.3 L-21.45 87.55 L-20.39 85.89 L-19.21 84.31 L-17.9 82.83 L-16.48 81.47 L-14.96 80.22 L-13.34 79.09 L-11.63 78.1 L-9.856 77.24 L-8.017 76.53 L-6.127 75.97 L-4.199 75.56 L-2.243 75.3 L-0.274 75.2 L1.697 75.25 L3.658 75.47 L5.595 75.84 L7.497 76.36 L9.352 77.03 L11.15 77.84 L12.87 78.8 L14.52 79.89 L16.07 81.1 L17.52 82.44 L18.86 83.89 L20.08 85.44 L21.17 87.08 L22.13 88.8 L22.95 90.59 L23.63 92.45 L24.15 94.35 L24.52 96.28 L24.74 98.24 L24.8 100.2 Z " />
<path stroke="rgb(0,0,0)" stroke-opacity="1" fill="rgb(255,255,255)" fill-opacity="1" d="M-312.6 -288.1 L-312.6 -289.1 L-312.5 -290.1 L-312.5 -291.1 L-312.5 -292.1 L-312.5 -293 L-312.5 -294 L-312.5 -295 L-312.5 -296 L-312.5 -297 L-312.5 -298 L-312.5 -299 L-312.5 -300 L-312.5 -300.9 L-312.5 -301.9 L-312.4 -302.9 L-312.4 -303.9 L-312.4 -304.9 L-312.4 -305.9 L-312.4 -306.9 L-312.4 -307.9 L-312.4 -308.9 L-312.4 -309.8 L-312.4 -310.8 L-312.4 -311.8 L-312.4 -312.8 L-311.4 -312.8 L-310.4 -312.8 L-309.4 -312.8 L-308.4 -312.8 L-307.4 -312.8 L-306.4 -312.8 L-305.5 -312.8 L-304.5 -312.7 L-303.5 -312.7 L-302.5 -312.7 L-301.5 -312.7 L-300.5 -312.7 L-299.5 -312.7 L-298.5 -312.7 L-297.6 -312.7 L-296.6 -312.7 L-295.6 -312.7 L-294.6 -312.7 L-293.6 -312.7 L-292.6 -312.7 L-291.6 -312.6 L-290.6 -312.6 L-289.6 -312.6 L-288.7 -312.6 L-287.7 -312.6 L-287.7 -311.6 L-287.7 -310.6 L-287.7 -309.7 L-287.7 -308.7 L-287.7 -307.7 L-287.7 -306.7 L-287.7 -305.7 L-287.7 -304.7 L-287.7 -303.7 L-287.7 -302.7 L-287.8 -301.7 L-287.8 -300.8 L-287.8 -299.8 L-287.8 -298.8 L-287.8 -297.8 L-287.8 -296.8 L-287.8 -295.8 L-287.8 -294.8 L-287.8 -293.8 L-287.8 -292.9 L-287.8 -291.9 L-287.8 -290.9 L-287.8 -289.9 L-287.9 -288.9 L-287.9 -287.9 L-288.8 -287.9 L-289.8 -287.9 L-290.8 -287.9 L-291.8 -287.9 L-292.8 -288 L-293.8 -288 L-294.8 -288 L-295.8 -288 L-296.8 -288 L-297.7 -288 L-298.7 -288 L-299.7 -288 L-300.7 -288 L-301.7 -288 L-302.7 -288 L-303.7 -288 L-304.7 -288 L-305.6 -288.1 L-306.6 -288.1 L-307.6 -288.1 L-308.6 -288.1 L-309.6 -288.1 L-310.6 -288.1 L-311.6 -288.1 L-312.6 -288.1 Z " />
<path stroke="rgb(0,0,0)" stroke-opacity="0.999" fill="rgb(255,255,255)" fill-opacity="1" d="M224.8 100.2 L224.7 102.2 L224.5 104.1 L224 106.1 L223.5 108 L222.8 109.8 L221.9 111.6 L220.9 113.3 L219.8 114.9 L218.6 116.4 L217.2 117.9 L215.7 119.2 L214.2 120.4 L212.5 121.4 L210.8 122.3 L208.9 123.1 L207.1 123.8 L205.2 124.3 L203.2 124.6 L201.3 124.8 L199.3 124.8 L197.3 124.7 L195.4 124.4 L193.5 123.9 L191.6 123.3 L189.7 122.6 L188 121.7 L186.3 120.7 L184.7 119.5 L183.2 118.2 L181.8 116.8 L180.5 115.3 L179.4 113.7 L178.3 112.1 L177.4 110.3 L176.7 108.5 L176.1 106.6 L175.6 104.7 L175.4 102.7 L175.2 100.8 L175.2 98.79 L175.4 96.83 L175.7 94.89 L176.2 92.97 L176.9 91.11 L177.6 89.3 L178.6 87.55 L179.6 85.89 L180.8 84.31 L182.1 82.83 L183.5 81.47 L185 80.22 L186.7 79.09 L188.4 78.1 L190.1 77.24 L192 76.53 L193.9 75.97 L195.8 75.56 L197.8 75.3 L199.7 75.2 L201.7 75.25 L203.7 75.47 L205.6 75.84 L207.5 76.36 L209.4 77.03 L211.1 77.84 L212.9 78.8 L214.5 79.89 L216.1 81.1 L217.5 82.44 L218.9 83.89 L220.1 85.44 L221.2 87.08 L222.1 88.8 L223 90.59 L223.6 92.45 L224.2 94.35 L224.5 96.28 L224.7 98.24 L224.8 100.2 Z " />
<path stroke="rgb(0,0,0)" stroke-opacity="1" fill="rgb(255,255,255)" fill-opacity="1" d="M-112.6 -288.1 L-112.6 -289.1 L-112.5 -290.1 L-112.5 -291.1 L-112.5 -292.1 L-112.5 -293 L-112.5 -294 L-112.5 -295 L-112.5 -296 L-112.5 -297 L-112.5 -298 L-112.5 -299 L-112.5 -300 L-112.5 -300.9 L-112.5 -301.9 L-112.4 -302.9 L-112.4 -303.9 L-112.4 -304.9 L-112.4 -305.9 L-112.4 -306.9 L-112.4 -307.9 L-112.4 -308.9 L-112.4 -309.8 L-112.4 -310.8 L-112.4 -311.8 L-112.4 -312.8 L-111.4 -312.8 L-110.4 -312.8 L-109.4 -312.8 L-108.4 -312.8 L-107.4 -312.8 L-106.4 -312.8 L-105.5 -312.8 L-104.5 -312.7 L-103.5 -312.7 L-102.5 -312.7 L-101.5 -312.7 L-100.5 -312.7 L-99.53 -312.7 L-98.54 -312.7 L-97.55 -312.7 L-96.56 -312.7 L-95.57 -312.7 L-94.59 -312.7 L-93.6 -312.7 L-92.61 -312.7 L-91.62 -312.6 L-90.63 -312.6 L-89.65 -312.6 L-88.66 -312.6 L-87.67 -312.6 L-87.68 -311.6 L-87.68 -310.6 L-87.69 -309.7 L-87.7 -308.7 L-87.71 -307.7 L-87.71 -306.7 L-87.72 -305.7 L-87.73 -304.7 L-87.74 -303.7 L-87.74 -302.7 L-87.75 -301.7 L-87.76 -300.8 L-87.77 -299.8 L-87.78 -298.8 L-87.78 -297.8 L-87.79 -296.8 L-87.8 -295.8 L-87.81 -294.8 L-87.81 -293.8 L-87.82 -292.9 L-87.83 -291.9 L-87.84 -290.9 L-87.84 -289.9 L-87.85 -288.9 L-87.86 -287.9 L-88.85 -287.9 L-89.83 -287.9 L-90.82 -287.9 L-91.81 -287.9 L-92.8 -288 L-93.79 -288 L-94.78 -288 L-95.76 -288 L-96.75 -288 L-97.74 -288 L-98.73 -288 L-99.72 -288 L-100.7 -288 L-101.7 -288 L-102.7 -288 L-103.7 -288 L-104.7 -288 L-105.6 -288.1 L-106.6 -288.1 L-107.6 -288.1 L-108.6 -288.1 L-109.6 -288.1 L-110.6 -288.1 L-111.6 -288.1 L-112.6 -288.1 Z " />
<path stroke="rgb(0,0,0)" stroke-opacity="0.999" fill="rgb(255,255,255)" fill-opacity="1" d="M-275.2 200.2 L-275.3 202.2 L-275.5 204.1 L-276 206.1 L-276.5 208 L-277.2 209.8 L-278.1 211.6 L-279.1 213.3 L-280.2 214.9 L-281.4 216.4 L-282.8 217.9 L-284.3 219.2 L-285.8 220.4 L-287.5 221.4 L-289.2 222.3 L-291.1 223.1 L-292.9 223.8 L-294.8 224.3 L-296.8 224.6 L-298.7 224.8 L-300.7 224.8 L-302.7 224.7 L-304.6 224.4 L-306.5 223.9 L-308.4 223.3 L-310.3 222.6 L-312 221.7 L-313.7 220.7 L-315.3 219.5 L-316.8 218.2 L-318.2 216.8 L-319.5 215.3 L-320.6 213.7 L-321.7 212.1 L-322.6 210.3 L-323.3 208.5 L-323.9 206.6 L-324.4 204.7 L-324.6 202.7 L-324.8 200.8 L-324.8 198.8 L-324.6 196.8 L-324.3 194.9 L-323.8 193 L-323.1 191.1 L-322.4 189.3 L-321.4 187.6 L-320.4 185.9 L-319.2 184.3 L-317.9 182.8 L-316.5 181.5 L-315 180.2 L-313.3 179.1 L-311.6 178.1 L-309.9 177.2 L-308 176.5 L-306.1 176 L-304.2 175.6 L-302.2 175.3 L-300.3 175.2 L-298.3 175.3 L-296.3 175.5 L-294.4 175.8 L-292.5 176.4 L-290.6 177 L-288.9 177.8 L-287.1 178.8 L-285.5 179.9 L-283.9 181.1 L-282.5 182.4 L-281.1 183.9 L-279.9 185.4 L-278.8 187.1 L-277.9 188.8 L-277 190.6 L-276.4 192.4 L-275.8 194.3 L-275.5 196.3 L-275.3 198.2 L-275.2 200.2 Z " />
<path stroke="rgb(0,0,0)" stroke-opacity="1" fill="rgb(255,255,255)" fill-opacity="1" d="M-612.6 -188.1 L-612.6 -189.1 L-612.5 -190.1 L-612.5 -191.1 L-612.5 -192.1 L-612.5 -193 L-612.5 -194 L-612.5 -195 L-612.5 -196 L-612.5 -197 L-612.5 -198 L-612.5 -199 L-612.5 -200 L-612.5 -200.9 L-612.5 -201.9 L-612.4 -202.9 L-612.4 -203.9 L-612.4 -204.9 L-612.4 -205.9 L-612.4 -206.9 L-612.4 -207.9 L-612.4 -208.9 L-612.4 -209.8 L-612.4 -210.8 L-612.4 -211.8 L-612.4 -212.8 L-611.4 -212.8 L-610.4 -212.8 L-609.4 -212.8 L-608.4 -212.8 L-607.4 -212.8 L-606.4 -212.8 L-605.5 -212.8 L-604.5 -212.7 L-603.5 -212.7 L-602.5 -212.7 L-601.5 -212.7 L-600.5 -212.7 L-599.5 -212.7 L-598.5 -212.7 L-597.6 -212.7 L-596.6 -212.7 L-595.6 -212.7 L-594.6 -212.7 L-593.6 -212.7 L-592.6 -212.7 L-591.6 -212.6 L-590.6 -212.6 L-589.6 -212.6 L-588.7 -212.6 L-587.7 -212.6 L-587.7 -211.6 L-587.7 -210.6 L-587.7 -209.7 L-587.7 -208.7 L-587.7 -207.7 L-587.7 -206.7 L-587.7 -205.7 L-587.7 -204.7 L-587.7 -203.7 L-587.7 -202.7 L-587.8 -201.7 L-587.8 -200.8 L-587.8 -199.8 L-587.8 -198.8 L-587.8 -197.8 L-587.8 -196.8 L-587.8 -195.8 L-587.8 -194.8 L-587.8 -193.8 L-587.8 -192.9 L-587.8 -191.9 L-587.8 -190.9 L-587.8 -189.9 L-587.9 -188.9 L-587.9 -187.9 L-588.8 -187.9 L-589.8 -187.9 L-590.8 -187.9 L-591.8 -187.9 L-592.8 -188 L-593.8 -188 L-594.8 -188 L-595.8 -188 L-596.8 -188 L-597.7 -188 L-598.7 -188 L-599.7 -188 L-600.7 -188 L-601.7 -188 L-602.7 -188 L-603.7 -188 L-604.7 -188 L-605.6 -188.1 L-606.6 -188.1 L-607.6 -188.1 L-608.6 -188.1 L-609.6 -188.1 L-610.6 -188.1 L-611.6 -188.1 L-612.6 -188.1 Z " />
<path stroke="rgb(0,0,0)" stroke-opacity="0.999" fill="rgb(255,255,255)" fill-opacity="1" d="M-75.2 200.2 L-75.29 202.2 L-75.55 204.1 L-75.95 206.1 L-76.51 208 L-77.22 209.8 L-78.07 211.6 L-79.06 213.3 L-80.18 214.9 L-81.43 216.4 L-82.79 217.9 L-84.26 219.2 L-85.84 220.4 L-87.5 221.4 L-89.24 222.3 L-91.05 223.1 L-92.92 223.8 L-94.83 224.3 L-96.77 224.6 L-98.74 224.8 L-100.7 224.8 L-102.7 224.7 L-104.6 224.4 L-106.5 223.9 L-108.4 223.3 L-110.3 222.6 L-112 221.7 L-113.7 220.7 L-115.3 219.5 L-116.8 218.2 L-118.2 216.8 L-119.5 215.3 L-120.6 213.7 L-121.7 212.1 L-122.6 210.3 L-123.3 208.5 L-123.9 206.6 L-124.4 204.7 L-124.6 202.7 L-124.8 200.8 L-124.8 198.8 L-124.6 196.8 L-124.3 194.9 L-123.8 193 L-123.1 191.1 L-122.4 189.3 L-121.4 187.6 L-120.4 185.9 L-119.2 184.3 L-117.9 182.8 L-116.5 181.5 L-115 180.2 L-113.3 179.1 L-111.6 178.1 L-109.9 177.2 L-108 176.5 L-106.1 176 L-104.2 175.6 L-102.2 175.3 L-100.3 175.2 L-98.3 175.3 L-96.34 175.5 L-94.41 175.8 L-92.5 176.4 L-90.65 177 L-88.85 177.8 L-87.13 178.8 L-85.48 179.9 L-83.93 181.1 L-82.48 182.4 L-81.14 183.9 L-79.92 185.4 L-78.83 187.1 L-77.87 188.8 L-77.05 190.6 L-76.37 192.4 L-75.85 194.3 L-75.48 196.3 L-75.26 198.2 L-75.2 200.2 Z " />
<path stroke="rgb(0,0,0)" stroke-opacity="1" fill="rgb(255,255,255)" fill-opacity="1" d="M-412.6 -188.1 L-412.6 -189.1 L-412.5 -190.1 L-412.5 -191.1 L-412.5 -192.1 L-412.5 -193 L-412.5 -194 L-412.5 -195 L-412.5 -196 L-412.5 -197 L-412.5 -198 L-412.5 -199 L-412.5 -200 L-412.5 -200.9 L-412.5 -201.9 L-412.4 -202.9 L-412.4 -203.9 L-412.4 -204.9 L-412.4 -205.9 L-412.4 -206.9 L-412.4 -207.9 L-412.4 -208.9 L-412.4 -209.8 L-412.4 -210.8 L-412.4 -211.8 L-412.4 -212.8 L-411.4 -212.8 L-410.4 -212.8 L-409.4 -212.8 L-408.4 -212.8 L-407.4 -212.8 L-406.4 -212.8 L-405.5 -212.8 L-404.5 -212.7 L-403.5 -212.7 L-402.5 -212.7 L-401.5 -212.7 L-400.5 -212.7 L-399.5 -212.7 L-398.5 -212.7 L-397.6 -212.7 L-396.6 -212.7 L-395.6 -212.7 L-394.6 -212.7 L-393.6 -212.7 L-392.6 -212.7 L-391.6 -212.6 L-390.6 -212.6 L-389.6 -212.6 L-388.7 -212.6 L-387.7 -212.6 L-387.7 -211.6 L-387.7 -210.6 L-387.7 -209.7 L-387.7 -208.7 L-387.7 -207.7 L-387.7 -206.7 L-387.7 -205.7 L-387.7 -204.7 L-387.7 -203.7 L-387.7 -202.7 L-387.8 -201.7 L-387.8 -200.8 L-387.8 -199.8 L-387.8 -198.8 L-387.8 -197.8 L-387.8 -196.8 L-387.8 -195.8 L-387.8 -194.8 L-387.8 -193.8 L-387.8 -192.9 L-387.8 -191.9 L-387.8 -190.9 L-387.8 -189.9 L-387.9 -188.9 L-387.9 -187.9 L-388.8 -187.9 L-389.8 -187.9 L-390.8 -187.9 L-391.8 -187.9 L-392.8 -188 L-393.8 -188 L-394.8 -188 L-395.8 -188 L-396.8 -188 L-397.7 -188 L-398.7 -188 L-399.7 -188 L-400.7 -188 L-401.7 -188 L-402.7 -188 L-403.7 -188 L-404.7 -188 L-405.6 -188.1 L-406.6 -188.1 L-407.6 -188.1 L-408.6 -188.1 L-409.6 -188.1 L-410.6 -188.1 L-411.6 -188.1 L-412.6 -188.1 Z " />
<path stroke="rgb(0,0,0)" stroke-opacity="0.999" fill="rgb(255,255,255)" fill-opacity="1" d="M124.8 200.2 L124.7 202.2 L124.5 204.1 L124 206.1 L123.5 208 L122.8 209.8 L121.9 211.6 L120.9 213.3 L119.8 214.9 L118.6 216.4 L117.2 217.9 L115.7 219.2 L114.2 220.4 L112.5 221.4 L110.8 222.3 L108.9 223.1 L107.1 223.8 L105.2 224.3 L103.2 224.6 L101.3 224.8 L99.29 224.8 L97.33 224.7 L95.38 224.4 L93.45 223.9 L91.57 223.3 L89.75 222.6 L87.99 221.7 L86.3 220.7 L84.7 219.5 L83.2 218.2 L81.8 216.8 L80.52 215.3 L79.36 213.7 L78.34 212.1 L77.45 210.3 L76.7 208.5 L76.1 206.6 L75.65 204.7 L75.35 202.7 L75.21 200.8 L75.23 198.8 L75.4 196.8 L75.73 194.9 L76.22 193 L76.85 191.1 L77.63 189.3 L78.55 187.6 L79.61 185.9 L80.79 184.3 L82.1 182.8 L83.52 181.5 L85.04 180.2 L86.66 179.1 L88.37 178.1 L90.14 177.2 L91.98 176.5 L93.87 176 L95.8 175.6 L97.76 175.3 L99.73 175.2 L101.7 175.3 L103.7 175.5 L105.6 175.8 L107.5 176.4 L109.4 177 L111.1 177.8 L112.9 178.8 L114.5 179.9 L116.1 181.1 L117.5 182.4 L118.9 183.9 L120.1 185.4 L121.2 187.1 L122.1 188.8 L123 190.6 L123.6 192.4 L124.2 194.3 L124.5 196.3 L124.7 198.2 L124.8 200.2 Z " />
<path stroke="rgb(0,0,0)" stroke-opacity="1" fill="rgb(255,255,255)" fill-opacity="1" d="M-212.6 -188.1 L-212.6 -189.1 L-212.5 -190.1 L-212.5 -191.1 L-212.5 -192.1 L-212.5 -193 L-212.5 -194 L-212.5 -195 L-212.5 -196 L-212.5 -197 L-212.5 -198 L-212.5 -199 L-212.5 -200 L-212.5 -200.9 L-212.5 -201.9 L-212.4 -202.9 L-212.4 -203.9 L-212.4 -204.9 L-212.4 -205.9 L-212.4 -206.9 L-212.4 -207.9 L-212.4 -208.9 L-212.4 -209.8 L-212.4 -210.8 L-212.4 -211.8 L-212.4 -212.8 L-211.4 -212.8 L-210.4 -212.8 L-209.4 -212.8 L-208.4 -212.8 L-207.4 -212.8 L-206.4 -212.8 L-205.5 -212.8 L-204.5 -212.7 L-203.5 -212.7 L-202.5 -212.7 L-201.5 -212.7 L-200.5 -212.7 L-199.5 -212.7 L-198.5 -212.7 L-197.6 -212.7 L-196.6 -212.7 L-195.6 -212.7 L-194.6 -212.7 L-193.6 -212.7 L-192.6 -212.7 L-191.6 -212.6 L-190.6 -212.6 L-189.6 -212.6 L-188.7 -212.6 L-187.7 -212.6 L-187.7 -211.6 L-187.7 -210.6 L-187.7 -209.7 L-187.7 -208.7 L-187.7 -207.7 L-187.7 -206.7 L-187.7 -205.7 L-187.7 -204.7 L-187.7 -203.7 L-187.7 -202.7 L-187.8 -201.7 L-187.8 -200.8 L-187.8 -199.8 L-187.8 -198.8 L-187.8 -197.8 L-187.8 -196.8 L-187.8 -195.8 L-187.8 -194.8 L-187.8 -193.8 L-187.8 -192.9 L-187.8 -191.9 L-187.8 -190.9 L-187.8 -189.9 L-187.9 -188.9 L-187.9 -187.9 L-188.8 -187.9 L-189.8 -187.9 L-190.8 -187.9 L-191.8 -187.9 L-192.8 -188 L-193.8 -188 L-194.8 -188 L-195.8 -188 L-196.8 -188 L-197.7 -188 L-198.7 -188 L-199.7 -188 L-200.7 -188 L-201.7 -188 L-202.7 -188 L-203.7 -188 L-204.7 -188 L-205.6 -188.1 L-206.6 -188.1 L-207.6 -188.1 L-208.6 -188.1 L-209.6 -188.1 L-210.6 -188.1 L-211.6 -188.1 L-212.6 -188.1 Z " />
<path stroke="rgb(0,0,0)" stroke-opacity="0.999" fill="rgb(255,255,255)" fill-opacity="1" d="M324.8 200.2 L324.7 202.2 L324.5 204.1 L324 206.1 L323.5 208 L322.8 209.8 L321.9 211.6 L320.9 213.3 L319.8 214.9 L318.6 216.4 L317.2 217.9 L315.7 219.2 L314.2 220.4 L312.5 221.4 L310.8 222.3 L308.9 223.1 L307.1 223.8 L305.2 224.3 L303.2 224.6 L301.3 224.8 L299.3 224.8 L297.3 224.7 L295.4 224.4 L293.5 223.9 L291.6 223.3 L289.7 222.6 L288 221.7 L286.3 220.7 L284.7 219.5 L283.2 218.2 L281.8 216.8 L280.5 215.3 L279.4 213.7 L278.3 212.1 L277.4 210.3 L276.7 208.5 L276.1 206.6 L275.6 204.7 L275.4 202.7 L275.2 200.8 L275.2 198.8 L275.4 196.8 L275.7 194.9 L276.2 193 L276.9 191.1 L277.6 189.3 L278.6 187.6 L279.6 185.9 L280.8 184.3 L282.1 182.8 L283.5 181.5 L285 180.2 L286.7 179.1 L288.4 178.1 L290.1 177.2 L292 176.5 L293.9 176 L295.8 175.6 L297.8 175.3 L299.7 175.2 L301.7 175.3 L303.7 175.5 L305.6 175.8 L307.5 176.4 L309.4 177 L311.1 177.8 L312.9 178.8 L314.5 179.9 L316.1 181.1 L317.5 182.4 L318.9 183.9 L320.1 185.4 L321.2 187.1 L322.1 188.8 L323 190.6 L323.6 192.4 L324.2 194.3 L324.5 196.3 L324.7 198.2 L324.8 200.2 Z " />
<path stroke="rgb(0,0,0)" stroke-opacity="1" fill="rgb(255,255,255)" fill-opacity="1" d="M-712.6 -88.1 L-712.6 -89.09 L-712.5 -90.08 L-712.5 -91.07 L-712.5 -92.06 L-712.5 -93.04 L-712.5 -94.03 L-712.5 -95.02 L-712.5 -96.01 L-712.5 -97 L-712.5 -97.98 L-712.5 -98.97 L-712.5 -99.96 L-712.5 -100.9 L-712.5 -101.9 L-712.4 -102.9 L-712.4 -103.9 L-712.4 -104.9 L-712.4 -105.9 L-712.4 -106.9 L-712.4 -107.9 L-712.4 -108.9 L-712.4 -109.8 L-712.4 -110.8 L-712.4 -111.8 L-712.4 -112.8 L-711.4 -112.8 L-710.4 -112.8 L-709.4 -112.8 L-708.4 -112.8 L-707.4 -112.8 L-706.4 -112.8 L-705.5 -112.8 L-704.5 -112.7 L-703.5 -112.7 L-702.5 -112.7 L-701.5 -112.7 L-700.5 -112.7 L-699.5 -112.7 L-698.5 -112.7 L-697.6 -112.7 L-696.6 -112.7 L-695.6 -112.7 L-694.6 -112.7 L-693.6 -112.7 L-692.6 -112.7 L-691.6 -112.6 L-690.6 -112.6 L-689.6 -112.6 L-688.7 -112.6 L-687.7 -112.6 L-687.7 -111.6 L-687.7 -110.6 L-687.7 -109.7 L-687.7 -108.7 L-687.7 -107.7 L-687.7 -106.7 L-687.7 -105.7 L-687.7 -104.7 L-687.7 -103.7 L-687.7 -102.7 L-687.8 -101.7 L-687.8 -100.8 L-687.8 -99.77 L-687.8 -98.78 L-687.8 -97.8 L-687.8 -96.81 L-687.8 -95.82 L-687.8 -94.83 L-687.8 -93.84 L-687.8 -92.85 L-687.8 -91.87 L-687.8 -90.88 L-687.8 -89.89 L-687.9 -88.9 L-687.9 -87.91 L-688.8 -87.92 L-689.8 -87.93 L-690.8 -87.94 L-691.8 -87.94 L-692.8 -87.95 L-693.8 -87.96 L-694.8 -87.97 L-695.8 -87.97 L-696.8 -87.98 L-697.7 -87.99 L-698.7 -88 L-699.7 -88 L-700.7 -88.01 L-701.7 -88.02 L-702.7 -88.03 L-703.7 -88.03 L-704.7 -88.04 L-705.6 -88.05 L-706.6 -88.06 L-707.6 -88.07 L-708.6 -88.07 L-709.6 -88.08 L-710.6 -88.09 L-711.6 -88.1 L-712.6 -88.1 Z " />
<path stroke="rgb(0,0,0)" stroke-opacity="0.999" fill="rgb(255,255,255)" fill-opacity="1" d="M-175.2 300.2 L-175.3 302.2 L-175.5 304.1 L-176 306.1 L-176.5 308 L-177.2 309.8 L-178.1 311.6 L-179.1 313.3 L-180.2 314.9 L-181.4 316.4 L-182.8 317.9 L-184.3 319.2 L-185.8 320.4 L-187.5 321.4 L-189.2 322.3 L-191.1 323.1 L-192.9 323.8 L-194.8 324.3 L-196.8 324.6 L-198.7 324.8 L-200.7 324.8 L-202.7 324.7 L-204.6 324.4 L-206.5 323.9 L-208.4 323.3 L-210.3 322.6 L-212 321.7 L-213.7 320.7 L-215.3 319.5 L-216.8 318.2 L-218.2 316.8 L-219.5 315.3 L-220.6 313.7 L-221.7 312.1 L-222.6 310.3 L-223.3 308.5 L-223.9 306.6 L-224.4 304.7 L-224.6 302.7 L-224.8 300.8 L-224.8 298.8 L-224.6 296.8 L-224.3 294.9 L-223.8 293 L-223.1 291.1 L-222.4 289.3 L-221.4 287.6 L-220.4 285.9 L-219.2 284.3 L-217.9 282.8 L-216.5 281.5 L-215 280.2 L-213.3 279.1 L-211.6 278.1 L-209.9 277.2 L-208 276.5 L-206.1 276 L-204.2 275.6 L-202.2 275.3 L-200.3 275.2 L-198.3 275.3 L-196.3 275.5 L-194.4 275.8 L-192.5 276.4 L-190.6 277 L-188.9 277.8 L-187.1 278.8 L-185.5 279.9 L-183.9 281.1 L-182.5 282.4 L-181.1 283.9 L-179.9 285.4 L-178.8 287.1 L-177.9 288.8 L-177 290.6 L-176.4 292.4 L-175.8 294.3 L-175.5 296.3 L-175.3 298.2 L-175.2 300.2 Z " />
<path stroke="rgb(0,0,0)" stroke-opacity="1" fill="rgb(255,255,255)" fill-opacity="1" d="M-512.6 -88.1 L-512.6 -89.09 L-512.5 -90.08 L-512.5 -91.07 L-512.5 -92.06 L-512.5 -93.04 L-512.5 -94.03 L-512.5 -95.02 L-512.5 -96.01 L-512.5 -97 L-512.5 -97.98 L-512.5 -98.97 L-512.5 -99.96 L-512.5 -100.9 L-512.5 -101.9 L-512.4 -102.9 L-512.4 -103.9 L-512.4 -104.9 L-512.4 -105.9 L-512.4 -106.9 L-512.4 -107.9 L-512.4 -108.9 L-512.4 -109.8 L-512.4 -110.8 L-512.4 -111.8 L-512.4 -112.8 L-511.4 -112.8 L-510.4 -112.8 L-509.4 -112.8 L-508.4 -112.8 L-507.4 -112.8 L-506.4 -112.8 L-505.5 -112.8 L-504.5 -112.7 L-503.5 -112.7 L-502.5 -112.7 L-501.5 -112.7 L-500.5 -112.7 L-499.5 -112.7 L-498.5 -112.7 L-497.6 -112.7 L-496.6 -112.7 L-495.6 -112.7 L-494.6 -112.7 L-493.6 -112.7 L-492.6 -112.7 L-491.6 -112.6 L-490.6 -112.6 L-489.6 -112.6 L-488.7 -112.6 L-487.7 -112.6 L-487.7 -111.6 L-487.7 -110.6 L-487.7 -109.7 L-487.7 -108.7 L-487.7 -107.7 L-487.7 -106.7 L-487.7 -105.7 L-487.7 -104.7 L-487.7 -103.7 L-487.7 -102.7 L-487.8 -101.7 L-487.8 -100.8 L-487.8 -99.77 L-487.8 -98.78 L-487.8 -97.8 L-487.8 -96.81 L-487.8 -95.82 L-487.8 -94.83 L-487.8 -93.84 L-487.8 -92.85 L-487.8 -91.87 L-487.8 -90.88 L-487.8 -89.89 L-487.9 -88.9 L-487.9 -87.91 L-488.8 -87.92 L-489.8 -87.93 L-490.8 -87.94 L-491.8 -87.94 L-492.8 -87.95 L-493.8 -87.96 L-494.8 -87.97 L-495.8 -87.97 L-496.8 -87.98 L-497.7 -87.99 L-498.7 -88 L-499.7 -88 L-500.7 -88.01 L-501.7 -88.02 L-502.7 -88.03 L-503.7 -88.03 L-504.7 -88.04 L-505.6 -88.05 L-506.6 -88.06 L-507.6 -88.07 L-508.6 -88.07 L-509.6 -88.08 L-510.6 -88.09 L-511.6 -88.1 L-512.6 -88.1 Z " />
<path stroke="rgb(0,0,0)" stroke-opacity="0.999" fill="rgb(255,255,255)" fill-opacity="1" d="M24.8 300.2 L24.71 302.2 L24.45 304.1 L24.05 306.1 L23.49 308 L22.78 309.8 L21.93 311.6 L20.94 313.3 L19.82 314.9 L18.57 316.4 L17.21 317.9 L15.74 319.2 L14.16 320.4 L12.5 321.4 L10.76 322.3 L8.949 323.1 L7.083 323.8 L5.172 324.3 L3.229 324.6 L1.265 324.8 L-0.7071 324.8 L-2.674 324.7 L-4.625 324.4 L-6.546 323.9 L-8.426 323.3 L-10.25 322.6 L-12.01 321.7 L-13.7 320.7 L-15.3 319.5 L-16.8 318.2 L-18.2 316.8 L-19.48 315.3 L-20.64 313.7 L-21.66 312.1 L-22.55 310.3 L-23.3 308.5 L-23.9 306.6 L-24.35 304.7 L-24.65 302.7 L-24.79 300.8 L-24.77 298.8 L-24.6 296.8 L-24.27 294.9 L-23.78 293 L-23.15 291.1 L-22.37 289.3 L-21.45 287.6 L-20.39 285.9 L-19.21 284.3 L-17.9 282.8 L-16.48 281.5 L-14.96 280.2 L-13.34 279.1 L-11.63 278.1 L-9.856 277.2 L-8.017 276.5 L-6.127 276 L-4.199 275.6 L-2.243 275.3 L-0.274 275.2 L1.697 275.3 L3.658 275.5 L5.595 275.8 L7.497 276.4 L9.352 277 L11.15 277.8 L12.87 278.8 L14.52 279.9 L16.07 281.1 L17.52 282.4 L18.86 283.9 L20.08 285.4 L21.17 287.1 L22.13 288.8 L22.95 290.6 L23.63 292.4 L24.15 294.3 L24.52 296.3 L24.74 298.2 L24.8 300.2 Z " />
<path stroke="rgb(0,0,0)" stroke-opacity="1" fill="rgb(255,255,255)" fill-opacity="1" d="M-312.6 -88.1 L-312.6 -89.09 L-312.5 -90.08 L-312.5 -91.07 L-312.5 -92.06 L-312.5 -93.04 L-312.5 -94.03 L-312.5 -95.02 L-312.5 -96.01 L-312.5 -97 L-312.5 -97.98 L-312.5 -98.97 L-312.5 -99.96 L-312.5 -100.9 L-312.5 -101.9 L-312.4 -102.9 L-312.4 -103.9 L-312.4 -104.9 L-312.4 -105.9 L-312.4 -106.9 L-312.4 -107.9 L-312.4 -108.9 L-312.4 -109.8 L-312.4 -110.8 L-312.4 -111.8 L-312.4 -112.8 L-311.4 -112.8 L-310.4 -112.8 L-309.4 -112.8 L-308.4 -112.8 L-307.4 -112.8 L-306.4 -112.8 L-305.5 -112.8 L-304.5 -112.7 L-303.5 -112.7 L-302.5 -112.7 L-301.5 -112.7 L-300.5 -112.7 L-299.5 -112.7 L-298.5 -112.7 L-297.6 -112.7 L-296.6 -112.7 L-295.6 -112.7 L-294.6 -112.7 L-293.6 -112.7 L-292.6 -112.7 L-291.6 -112.6 L-290.6 -112.6 L-289.6 -112.6 L-288.7 -112.6 L-287.7 -112.6 L-287.7 -111.6 L-287.7 -110.6 L-287.7 -109.7 L-287.7 -108.7 L-287.7 -107.7 L-287.7 -106.7 L-287.7 -105.7 L-287.7 -104.7 L-287.7 -103.7 L-287.7 -102.7 L-287.8 -101.7 L-287.8 -100.8 L-287.8 -99.77 L-287.8 -98.78 L-287.8 -97.8 L-287.8 -96.81 L-287.8 -95.82 L-287.8 -94.83 L-287.8 -93.84 L-287.8 -92.85 L-287.8 -91.87 L-287.8 -90.88 L-287.8 -89.89 L-287.9 -88.9 L-287.9 -87.91 L-288.8 -87.92 L-289.8 -87.93 L-290.8 -87.94 L-291.8 -87.94 L-292.8 -87.95 L-293.8 -87.96 L-294.8 -87.97 L-295.8 -87.97 L-296.8 -87.98 L-297.7 -87.99 L-298.7 -88 L-299.7 -88 L-300.7 -88.01 L-301.7 -88.02 L-302.7 -88.03 L-303.7 -88.03 L-304.7 -88.04 L-305.6 -88.05 L-306.6 -88.06 L-307.6 -88.07 L-308.6 -88.07 L-309.6 -88.08 L-310.6 -88.09 L-311.6 -88.1 L-312.6 -88.1 Z " />
<path stroke="rgb(0,0,0)" stroke-opacity="0.999" fill="rgb(255,255,255)" fill-opacity="1" d="M224.8 300.2 L224.7 302.2 L224.5 304.1 L224 306.1 L223.5 308 L222.8 309.8 L221.9 311.6 L220.9 313.3 L219.8 314.9 L218.6 316.4 L217.2 317.9 L215.7 319.2 L214.2 320.4 L212.5 321.4 L210.8 322.3 L208.9 323.1 L207.1 323.8 L205.2 324.3 L203.2 324.6 L201.3 324.8 L199.3 324.8 L197.3 324.7 L195.4 324.4 L193.5 323.9 L191.6 323.3 L189.7 322.6 L188 321.7 L186.3 320.7 L184.7 319.5 L183.2 318.2 L181.8 316.8 L180.5 315.3 L179.4 313.7 L178.3 312.1 L177.4 310.3 L176.7 308.5 L176.1 306.6 L175.6 304.7 L175.4 302.7 L175.2 300.8 L175.2 298.8 L175.4 296.8 L175.7 294.9 L176.2 293 L176.9 291.1 L177.6 289.3 L178.6 287.6 L179.6 285.9 L180.8 284.3 L182.1 282.8 L183.5 281.5 L185 280.2 L186.7 279.1 L188.4 278.1 L190.1 277.2 L192 276.5 L193.9 276 L195.8 275.6 L197.8 275.3 L199.7 275.2 L201.7 275.3 L203.7 275.5 L205.6 275.8 L207.5 276.4 L209.4 277 L211.1 277.8 L212.9 278.8 L214.5 279.9 L216.1 281.1 L217.5 282.4 L218.9 283.9 L220.1 285.4 L221.2 287.1 L222.1 288.8 L223 290.6 L223.6 292.4 L224.2 294.3 L224.5 296.3 L224.7 298.2 L224.8 300.2 Z " />
<path stroke="rgb(0,0,0)" stroke-opacity="1" fill="rgb(255,255,255)" fill-opacity="1" d="M-112.6 -88.1 L-112.6 -89.09 L-112.5 -90.08 L-112.5 -91.07 L-112.5 -92.06 L-112.5 -93.04 L-112.5 -94.03 L-112.5 -95.02 L-112.5 -96.01 L-112.5 -97 L-112.5 -97.98 L-112.5 -98.97 L-112.5 -99.96 L-112.5 -100.9 L-112.5 -101.9 L-112.4 -102.9 L-112.4 -103.9 L-112.4 -104.9 L-112.4 -105.9 L-112.4 -106.9 L-112.4 -107.9 L-112.4 -108.9 L-112.4 -109.8 L-112.4 -110.8 L-112.4 -111.8 L-112.4 -112.8 L-111.4 -112.8 L-110.4 -112.8 L-109.4 -112.8 L-108.4 -112.8 L-107.4 -112.8 L-106.4 -112.8 L-105.5 -112.8 L-104.5 -112.7 L-103.5 -112.7 L-102.5 -112.7 L-101.5 -112.7 L-100.5 -112.7 L-99.53 -112.7 L-98.54 -112.7 L-97.55 -112.7 L-96.56 -112.7 L-95.57 -112.7 L-94.59 -112.7 L-93.6 -112.7 L-92.61 -112.7 L-91.62 -112.6 L-90.63 -112.6 L-89.65 -112.6 L-88.66 -112.6 L-87.67 -112.6 L-87.68 -111.6 L-87.68 -110.6 L-87.69 -109.7 L-87.7 -108.7 L-87.71 -107.7 L-87.71 -106.7 L-87.72 -105.7 L-87.73 -104.7 L-87.74 -103.7 L-87.74 -102.7 L-87.75 -101.7 L-87.76 -100.8 L-87.77 -99.77 L-87.78 -98.78 L-87.78 -97.8 L-87.79 -96.81 L-87.8 -95.82 L-87.81 -94.83 L-87.81 -93.84 L-87.82 -92.85 L-87.83 -91.87 L-87.84 -90.88 L-87.84 -89.89 L-87.85 -88.9 L-87.86 -87.91 L-88.85 -87.92 L-89.83 -87.93 L-90.82 -87.94 L-91.81 -87.94 L-92.8 -87.95 L-93.79 -87.96 L-94.78 -87.97 L-95.76 -87.97 L-96.75 -87.98 L-97.74 -87.99 L-98.73 -88 L-99.72 -88 L-100.7 -88.01 L-101.7 -88.02 L-102.7 -88.03 L-103.7 -88.03 L-104.7 -88.04 L-105.6 -88.05 L-106.6 -88.06 L-107.6 -88.07 L-108.6 -88.07 L-109.6 -88.08 L-110.6 -88.09 L-111.6 -88.1 L-112.6 -88.1 Z " />
</g>
</g>
</svg>
