<!DOCTYPE svg>
<svg xmlns="http://www.w3.org/2000/svg" xmlns:xlink="http://www.w3.org/1999/xlink" width="1000" height="1000">
<g transform="translate(500.000000,500.000000)">
<g transform="scale(3.000000,3.000000)">
<path stroke="rgb(0,0,0)" stroke-opacity="1" fill="rgb(255,255,255)" fill-opacity="1" d="M-486.8 -512 L-486.9 -511 L-487 -510 L-487 -509 L-487.1 -507.9 L-487.2 -506.9 L-487.2 -505.9 L-487.3 -504.9 L-487.4 -503.9 L-487.4 -502.9 L-487.5 -501.8 L-487.6 -500.8 L-487.6 -499.8 L-487.7 -498.8 L-487.8 -497.8 L-487.8 -496.8 L-487.9 -495.7 L-488 -494.7 L-488 -493.7 L-488.1 -492.7 L-488.2 -491.7 L-488.2 -490.6 L-488.3 -489.6 L-488.4 -488.6 L-488.4 -487.6 L-488.5 -486.6 L-489.5 -486.6 L-490.5 -486.7 L-491.5 -486.8 L-492.6 -486.8 L-493.6 -486.9 L-494.6 -487 L-495.6 -487 L-496.6 -487.1 L-497.6 -487.2 L-498.7 -487.2 L-499.7 -487.3 L-500.7 -487.4 L-501.7 -487.4 L-502.7 -487.5 L-503.8 -487.6 L-504.8 -487.6 L-505.8 -487.7 L-506.8 -487.8 L-507.8 -487.8 L-508.8 -487.9 L-509.9 -488 L-510.9 -488 L-511.9 -488.1 L-512.9 -488.2 L-513.9 -488.2 L-513.9 -489.3 L-513.8 -490.3 L-513.7 -491.3 L-513.7 -492.3 L-513.6 -493.3 L-513.5 -494.3 L-513.5 -495.4 L-513.4 -496.4 L-513.3 -497.4 L-513.3 -498.4 L-513.2 -499.4 L-513.1 -500.4 L-513.1 -501.5 L-513 -502.5 L-512.9 -503.5 L-512.9 -504.5 L-512.8 -505.5 L-512.7 -506.6 L-512.7 -507.6 L-512.6 -508.6 L-512.5 -509.6 L-512.5 -510.6 L-512.4 -511.6 L-512.3 -512.7 L-512.3 -513.7 L-511.2 -513.6 L-510.2 -513.5 L-509.2 -513.5 L-508.2 -513.4 L-507.2 -513.3 L-506.2 -513.3 L-505.1 -513.2 L-504.1 -513.1 L-503.1 -513.1 L-502.1 -513 L-501.1 -512.9 L-500.1 -512.9 L-499 -512.8 L-498 -512.7 L-497 -512.7 L-496 -512.6 L-495 -512.5 L-494 -512.5 L-492.9 -512.4 L-491.9 -512.3 L-490.9 -512.3 L-489.9 -512.2 L-488.9 -512.1 L-487.8 -512.1 L-486.8 -512 Z " />
<path stroke="rgb(0,0,0)" stroke-opacity="0.325" fill="rgb(255,255,255)" fill-opacity="1" d="M-175.1 -299.9 L-175.2 -297.9 L-175.4 -295.9 L-175.8 -294 L-176.4 -292.1 L-177.1 -290.3 L-177.9 -288.5 L-178.9 -286.8 L-180 -285.1 L-181.3 -283.6 L-182.6 -282.1 L-184.1 -280.8 L-185.7 -279.6 L-187.4 -278.5 L-189.1 -277.6 L-190.9 -276.8 L-192.8 -276.2 L-194.7 -275.7 L-196.7 -275.3 L-198.6 -275.1 L-200.6 -275.1 L-202.6 -275.2 L-204.5 -275.5 L-206.5 -276 L-208.4 -276.5 L-210.2 -277.3 L-212 -278.2 L-213.7 -279.2 L-215.3 -280.3 L-216.8 -281.6 L-218.2 -283 L-219.5 -284.5 L-220.7 -286.1 L-221.7 -287.8 L-222.6 -289.6 L-223.4 -291.4 L-224 -293.3 L-224.4 -295.2 L-224.7 -297.1 L-224.9 -299.1 L-224.9 -301.1 L-224.7 -303.1 L-224.4 -305 L-223.9 -306.9 L-223.3 -308.8 L-222.5 -310.6 L-221.6 -312.4 L-220.5 -314.1 L-219.4 -315.7 L-218 -317.2 L-216.6 -318.5 L-215.1 -319.8 L-213.5 -320.9 L-211.8 -321.9 L-210 -322.8 L-208.2 -323.5 L-206.3 -324.1 L-204.3 -324.5 L-202.4 -324.8 L-200.4 -324.9 L-198.4 -324.9 L-196.4 -324.6 L-194.5 -324.3 L-192.6 -323.8 L-190.7 -323.1 L-188.9 -322.3 L-187.2 -321.3 L-185.5 -320.3 L-184 -319 L-182.5 -317.7 L-181.1 -316.3 L-179.9 -314.7 L-178.8 -313.1 L-177.8 -311.3 L-177 -309.5 L-176.3 -307.7 L-175.8 -305.8 L-175.4 -303.8 L-175.2 -301.9 L-175.1 -299.9 Z " />
<path stroke="rgb(0,0,0)" stroke-opacity="1" fill="rgb(255,255,255)" fill-opacity="1" d="M-281.3 -508.2 L-281.7 -507.1 L-282.1 -506 L-282.6 -504.9 L-283 -503.8 L-283.5 -502.7 L-283.9 -501.7 L-284.4 -500.6 L-284.8 -499.5 L-285.3 -498.4 L-285.7 -497.3 L-286.2 -496.2 L-286.6 -495.1 L-287.1 -494 L-287.5 -493 L-287.9 -491.9 L-288.4 -490.8 L-288.8 -489.7 L-289.3 -488.6 L-289.7 -487.5 L-290.2 -486.4 L-290.6 -485.3 L-291.1 -484.2 L-291.5 -483.2 L-292 -482.1 L-292.4 -481 L-293.5 -481.4 L-294.6 -481.9 L-295.7 -482.3 L-296.8 -482.8 L-297.9 -483.2 L-298.9 -483.7 L-300 -484.1 L-301.1 -484.6 L-302.2 -485 L-303.3 -485.4 L-304.4 -485.9 L-305.5 -486.3 L-306.6 -486.8 L-307.6 -487.2 L-308.7 -487.7 L-309.8 -488.1 L-310.9 -488.6 L-312 -489 L-313.1 -489.5 L-314.2 -489.9 L-315.3 -490.4 L-316.4 -490.8 L-317.4 -491.2 L-318.5 -491.7 L-319.6 -492.1 L-319.2 -493.2 L-318.7 -494.3 L-318.3 -495.4 L-317.8 -496.5 L-317.4 -497.6 L-316.9 -498.7 L-316.5 -499.8 L-316 -500.8 L-315.6 -501.9 L-315.2 -503 L-314.7 -504.1 L-314.3 -505.2 L-313.8 -506.3 L-313.4 -507.4 L-312.9 -508.5 L-312.5 -509.6 L-312 -510.6 L-311.6 -511.7 L-311.1 -512.8 L-310.7 -513.9 L-310.2 -515 L-309.8 -516.1 L-309.3 -517.2 L-308.9 -518.3 L-308.5 -519.3 L-307.4 -518.9 L-306.3 -518.5 L-305.2 -518 L-304.1 -517.6 L-303 -517.1 L-301.9 -516.7 L-300.8 -516.2 L-299.8 -515.8 L-298.7 -515.3 L-297.6 -514.9 L-296.5 -514.4 L-295.4 -514 L-294.3 -513.5 L-293.2 -513.1 L-292.1 -512.7 L-291 -512.2 L-290 -511.8 L-288.9 -511.3 L-287.8 -510.9 L-286.7 -510.4 L-285.6 -510 L-284.5 -509.5 L-283.4 -509.1 L-282.3 -508.6 L-281.3 -508.2 Z " />
<path stroke="rgb(0,0,0)" stroke-opacity="0.325" fill="rgb(255,255,255)" fill-opacity="1" d="M24.9 -299.9 L24.81 -297.9 L24.57 -295.9 L24.17 -294 L23.62 -292.1 L22.92 -290.3 L22.07 -288.5 L21.08 -286.8 L19.96 -285.1 L18.72 -283.6 L17.35 -282.1 L15.88 -280.8 L14.31 -279.6 L12.64 -278.5 L10.9 -277.6 L9.085 -276.8 L7.214 -276.2 L5.298 -275.7 L3.348 -275.3 L1.377 -275.1 L-0.6025 -275.1 L-2.578 -275.2 L-4.538 -275.5 L-6.469 -276 L-8.359 -276.5 L-10.2 -277.3 L-11.97 -278.2 L-13.67 -279.2 L-15.28 -280.3 L-16.79 -281.6 L-18.2 -283 L-19.49 -284.5 L-20.66 -286.1 L-21.7 -287.8 L-22.6 -289.6 L-23.36 -291.4 L-23.97 -293.3 L-24.43 -295.2 L-24.73 -297.1 L-24.88 -299.1 L-24.87 -301.1 L-24.71 -303.1 L-24.39 -305 L-23.91 -306.9 L-23.28 -308.8 L-22.51 -310.6 L-21.59 -312.4 L-20.54 -314.1 L-19.35 -315.7 L-18.05 -317.2 L-16.63 -318.5 L-15.1 -319.8 L-13.48 -320.9 L-11.78 -321.9 L-9.997 -322.8 L-8.153 -323.5 L-6.258 -324.1 L-4.324 -324.5 L-2.362 -324.8 L-0.3851 -324.9 L1.594 -324.9 L3.563 -324.6 L5.51 -324.3 L7.422 -323.8 L9.287 -323.1 L11.09 -322.3 L12.83 -321.3 L14.48 -320.3 L16.05 -319 L17.51 -317.7 L18.86 -316.3 L20.09 -314.7 L21.2 -313.1 L22.17 -311.3 L23 -309.5 L23.69 -307.7 L24.22 -305.8 L24.6 -303.8 L24.83 -301.9 L24.9 -299.9 Z " />
<path stroke="rgb(0,0,0)" stroke-opacity="1" fill="rgb(255,255,255)" fill-opacity="1" d="M-73.45 -491.7 L-74.88 -490.9 L-76.31 -490.2 L-77.74 -489.4 L-79.17 -488.7 L-80.6 -488 L-82.03 -487.2 L-83.46 -486.5 L-84.89 -485.8 L-86.32 -485 L-87.75 -484.3 L-89.18 -483.6 L-90.6 -482.8 L-92.03 -482.1 L-93.46 -481.4 L-94.89 -480.6 L-96.32 -479.9 L-97.75 -479.2 L-99.18 -478.4 L-100.6 -477.7 L-102 -476.9 L-103.5 -476.2 L-104.9 -475.5 L-106.3 -474.7 L-107.8 -474 L-109.2 -473.3 L-109.9 -474.7 L-110.7 -476.1 L-111.4 -477.6 L-112.1 -479 L-112.9 -480.4 L-113.6 -481.8 L-114.3 -483.3 L-115.1 -484.7 L-115.8 -486.1 L-116.5 -487.6 L-117.3 -489 L-118 -490.4 L-118.7 -491.9 L-119.5 -493.3 L-120.2 -494.7 L-121 -496.1 L-121.7 -497.6 L-122.4 -499 L-123.2 -500.4 L-123.9 -501.9 L-124.6 -503.3 L-125.4 -504.7 L-126.1 -506.1 L-126.8 -507.6 L-127.6 -509 L-126.1 -509.7 L-124.7 -510.5 L-123.3 -511.2 L-121.9 -511.9 L-120.4 -512.7 L-119 -513.4 L-117.6 -514.2 L-116.1 -514.9 L-114.7 -515.6 L-113.3 -516.4 L-111.8 -517.1 L-110.4 -517.8 L-109 -518.6 L-107.6 -519.3 L-106.1 -520 L-104.7 -520.8 L-103.3 -521.5 L-101.8 -522.2 L-100.4 -523 L-98.98 -523.7 L-97.55 -524.4 L-96.12 -525.2 L-94.69 -525.9 L-93.26 -526.7 L-91.84 -527.4 L-91.1 -526 L-90.36 -524.5 L-89.63 -523.1 L-88.89 -521.7 L-88.16 -520.2 L-87.42 -518.8 L-86.69 -517.4 L-85.95 -516 L-85.22 -514.5 L-84.48 -513.1 L-83.75 -511.7 L-83.01 -510.2 L-82.28 -508.8 L-81.54 -507.4 L-80.81 -505.9 L-80.07 -504.5 L-79.33 -503.1 L-78.6 -501.7 L-77.86 -500.2 L-77.13 -498.8 L-76.39 -497.4 L-75.66 -495.9 L-74.92 -494.5 L-74.19 -493.1 L-73.45 -491.7 Z " />
<path stroke="rgb(0,0,0)" stroke-opacity="0.325" fill="rgb(255,255,255)" fill-opacity="1" d="M224.9 -299.9 L224.8 -297.9 L224.6 -295.9 L224.2 -294 L223.6 -292.1 L222.9 -290.3 L222.1 -288.5 L221.1 -286.8 L220 -285.1 L218.7 -283.6 L217.4 -282.1 L215.9 -280.8 L214.3 -279.6 L212.6 -278.5 L210.9 -277.6 L209.1 -276.8 L207.2 -276.2 L205.3 -275.7 L203.3 -275.3 L201.4 -275.1 L199.4 -275.1 L197.4 -275.2 L195.5 -275.5 L193.5 -276 L191.6 -276.5 L189.8 -277.3 L188 -278.2 L186.3 -279.2 L184.7 -280.3 L183.2 -281.6 L181.8 -283 L180.5 -284.5 L179.3 -286.1 L178.3 -287.8 L177.4 -289.6 L176.6 -291.4 L176 -293.3 L175.6 -295.2 L175.3 -297.1 L175.1 -299.1 L175.1 -301.1 L175.3 -303.1 L175.6 -305 L176.1 -306.9 L176.7 -308.8 L177.5 -310.6 L178.4 -312.4 L179.5 -314.1 L180.6 -315.7 L182 -317.2 L183.4 -318.5 L184.9 -319.8 L186.5 -320.9 L188.2 -321.9 L190 -322.8 L191.8 -323.5 L193.7 -324.1 L195.7 -324.5 L197.6 -324.8 L199.6 -324.9 L201.6 -324.9 L203.6 -324.6 L205.5 -324.3 L207.4 -323.8 L209.3 -323.1 L211.1 -322.3 L212.8 -321.3 L214.5 -320.3 L216 -319 L217.5 -317.7 L218.9 -316.3 L220.1 -314.7 L221.2 -313.1 L222.2 -311.3 L223 -309.5 L223.7 -307.7 L224.2 -305.8 L224.6 -303.8 L224.8 -301.9 L224.9 -299.9 Z " />
<path stroke="rgb(0,0,0)" stroke-opacity="1" fill="rgb(255,255,255)" fill-opacity="1" d="M125.3 -478.7 L123.4 -478.5 L121.5 -478.4 L119.6 -478.2 L117.7 -478.1 L115.8 -477.9 L113.9 -477.7 L112 -477.6 L110.1 -477.4 L108.2 -477.2 L106.3 -477.1 L104.4 -476.9 L102.5 -476.8 L100.6 -476.6 L98.68 -476.4 L96.77 -476.3 L94.87 -476.1 L92.97 -475.9 L91.06 -475.8 L89.16 -475.6 L87.26 -475.5 L85.36 -475.3 L83.45 -475.1 L81.55 -475 L79.65 -474.8 L77.74 -474.6 L77.58 -476.5 L77.42 -478.4 L77.26 -480.3 L77.09 -482.3 L76.93 -484.2 L76.77 -486.1 L76.61 -488 L76.44 -489.9 L76.28 -491.8 L76.12 -493.7 L75.96 -495.6 L75.79 -497.5 L75.63 -499.4 L75.47 -501.3 L75.31 -503.2 L75.14 -505.1 L74.98 -507 L74.82 -508.9 L74.66 -510.8 L74.49 -512.7 L74.33 -514.6 L74.17 -516.5 L74.01 -518.4 L73.84 -520.3 L73.68 -522.2 L75.58 -522.4 L77.49 -522.5 L79.39 -522.7 L81.29 -522.9 L83.2 -523 L85.1 -523.2 L87 -523.4 L88.91 -523.5 L90.81 -523.7 L92.71 -523.8 L94.62 -524 L96.52 -524.2 L98.42 -524.3 L100.3 -524.5 L102.2 -524.7 L104.1 -524.8 L106 -525 L107.9 -525.1 L109.8 -525.3 L111.7 -525.5 L113.6 -525.6 L115.5 -525.8 L117.5 -526 L119.4 -526.1 L121.3 -526.3 L121.4 -524.4 L121.6 -522.5 L121.7 -520.6 L121.9 -518.7 L122.1 -516.8 L122.2 -514.9 L122.4 -513 L122.6 -511.1 L122.7 -509.2 L122.9 -507.2 L123 -505.3 L123.2 -503.4 L123.4 -501.5 L123.5 -499.6 L123.7 -497.7 L123.9 -495.8 L124 -493.9 L124.2 -492 L124.3 -490.1 L124.5 -488.2 L124.7 -486.3 L124.8 -484.4 L125 -482.5 L125.2 -480.6 L125.3 -478.7 Z " />
<path stroke="rgb(0,0,0)" stroke-opacity="0.325" fill="rgb(255,255,255)" fill-opacity="1" d="M-275.1 -199.9 L-275.2 -197.9 L-275.4 -195.9 L-275.8 -194 L-276.4 -192.1 L-277.1 -190.3 L-277.9 -188.5 L-278.9 -186.8 L-280 -185.1 L-281.3 -183.6 L-282.6 -182.1 L-284.1 -180.8 L-285.7 -179.6 L-287.4 -178.5 L-289.1 -177.6 L-290.9 -176.8 L-292.8 -176.2 L-294.7 -175.7 L-296.7 -175.3 L-298.6 -175.1 L-300.6 -175.1 L-302.6 -175.2 L-304.5 -175.5 L-306.5 -176 L-308.4 -176.5 L-310.2 -177.3 L-312 -178.2 L-313.7 -179.2 L-315.3 -180.3 L-316.8 -181.6 L-318.2 -183 L-319.5 -184.5 L-320.7 -186.1 L-321.7 -187.8 L-322.6 -189.6 L-323.4 -191.4 L-324 -193.3 L-324.4 -195.2 L-324.7 -197.1 L-324.9 -199.1 L-324.9 -201.1 L-324.7 -203.1 L-324.4 -205 L-323.9 -206.9 L-323.3 -208.8 L-322.5 -210.6 L-321.6 -212.4 L-320.5 -214.1 L-319.4 -215.7 L-318 -217.2 L-316.6 -218.5 L-315.1 -219.8 L-313.5 -220.9 L-311.8 -221.9 L-310 -222.8 L-308.2 -223.5 L-306.3 -224.1 L-304.3 -224.5 L-302.4 -224.8 L-300.4 -224.9 L-298.4 -224.9 L-296.4 -224.6 L-294.5 -224.3 L-292.6 -223.8 L-290.7 -223.1 L-288.9 -222.3 L-287.2 -221.3 L-285.5 -220.3 L-284 -219 L-282.5 -217.7 L-281.1 -216.3 L-279.9 -214.7 L-278.8 -213.1 L-277.8 -211.3 L-277 -209.5 L-276.3 -207.7 L-275.8 -205.8 L-275.4 -203.8 L-275.2 -201.9 L-275.1 -199.9 Z " />
<path stroke="rgb(0,0,0)" stroke-opacity="1" fill="rgb(255,255,255)" fill-opacity="1" d="M-381.3 -408.2 L-381.7 -407.1 L-382.1 -406 L-382.6 -404.9 L-383 -403.8 L-383.5 -402.7 L-383.9 -401.7 L-384.4 -400.6 L-384.8 -399.5 L-385.3 -398.4 L-385.7 -397.3 L-386.2 -396.2 L-386.6 -395.1 L-387.1 -394 L-387.5 -393 L-387.9 -391.9 L-388.4 -390.8 L-388.8 -389.7 L-389.3 -388.6 L-389.7 -387.5 L-390.2 -386.4 L-390.6 -385.3 L-391.1 -384.2 L-391.5 -383.2 L-392 -382.1 L-392.4 -381 L-393.5 -381.4 L-394.6 -381.9 L-395.7 -382.3 L-396.8 -382.8 L-397.9 -383.2 L-398.9 -383.7 L-400 -384.1 L-401.1 -384.6 L-402.2 -385 L-403.3 -385.4 L-404.4 -385.9 L-405.5 -386.3 L-406.6 -386.8 L-407.6 -387.2 L-408.7 -387.7 L-409.8 -388.1 L-410.9 -388.6 L-412 -389 L-413.1 -389.5 L-414.2 -389.9 L-415.3 -390.4 L-416.4 -390.8 L-417.4 -391.2 L-418.5 -391.7 L-419.6 -392.1 L-419.2 -393.2 L-418.7 -394.3 L-418.3 -395.4 L-417.8 -396.5 L-417.4 -397.6 L-416.9 -398.7 L-416.5 -399.8 L-416 -400.8 L-415.6 -401.9 L-415.2 -403 L-414.7 -404.1 L-414.3 -405.2 L-413.8 -406.3 L-413.4 -407.4 L-412.9 -408.5 L-412.5 -409.6 L-412 -410.6 L-411.6 -411.7 L-411.1 -412.8 L-410.7 -413.9 L-410.2 -415 L-409.8 -416.1 L-409.3 -417.2 L-408.9 -418.3 L-408.5 -419.3 L-407.4 -418.9 L-406.3 -418.5 L-405.2 -418 L-404.1 -417.6 L-403 -417.1 L-401.9 -416.7 L-400.8 -416.2 L-399.8 -415.8 L-398.7 -415.3 L-397.6 -414.9 L-396.5 -414.4 L-395.4 -414 L-394.3 -413.5 L-393.2 -413.1 L-392.1 -412.7 L-391 -412.2 L-390 -411.8 L-388.9 -411.3 L-387.8 -410.9 L-386.7 -410.4 L-385.6 -410 L-384.5 -409.5 L-383.4 -409.1 L-382.3 -408.6 L-381.3 -408.2 Z " />
<path stroke="rgb(0,0,0)" stroke-opacity="0.325" fill="rgb(255,255,255)" fill-opacity="1" d="M-75.1 -199.9 L-75.19 -197.9 L-75.43 -195.9 L-75.83 -194 L-76.38 -192.1 L-77.08 -190.3 L-77.93 -188.5 L-78.92 -186.8 L-80.04 -185.1 L-81.28 -183.6 L-82.65 -182.1 L-84.12 -180.8 L-85.69 -179.6 L-87.36 -178.5 L-89.1 -177.6 L-90.92 -176.8 L-92.79 -176.2 L-94.7 -175.7 L-96.65 -175.3 L-98.62 -175.1 L-100.6 -175.1 L-102.6 -175.2 L-104.5 -175.5 L-106.5 -176 L-108.4 -176.5 L-110.2 -177.3 L-112 -178.2 L-113.7 -179.2 L-115.3 -180.3 L-116.8 -181.6 L-118.2 -183 L-119.5 -184.5 L-120.7 -186.1 L-121.7 -187.8 L-122.6 -189.6 L-123.4 -191.4 L-124 -193.3 L-124.4 -195.2 L-124.7 -197.1 L-124.9 -199.1 L-124.9 -201.1 L-124.7 -203.1 L-124.4 -205 L-123.9 -206.9 L-123.3 -208.8 L-122.5 -210.6 L-121.6 -212.4 L-120.5 -214.1 L-119.4 -215.7 L-118 -217.2 L-116.6 -218.5 L-115.1 -219.8 L-113.5 -220.9 L-111.8 -221.9 L-110 -222.8 L-108.2 -223.5 L-106.3 -224.1 L-104.3 -224.5 L-102.4 -224.8 L-100.4 -224.9 L-98.41 -224.9 L-96.44 -224.6 L-94.49 -224.3 L-92.58 -223.8 L-90.71 -223.1 L-88.91 -222.3 L-87.17 -221.3 L-85.52 -220.3 L-83.95 -219 L-82.49 -217.7 L-81.14 -216.3 L-79.91 -214.7 L-78.8 -213.1 L-77.83 -211.3 L-77 -209.5 L-76.31 -207.7 L-75.78 -205.8 L-75.4 -203.8 L-75.17 -201.9 L-75.1 -199.9 Z " />
<path stroke="rgb(0,0,0)" stroke-opacity="1" fill="rgb(255,255,255)" fill-opacity="1" d="M-173.5 -391.7 L-174.9 -390.9 L-176.3 -390.2 L-177.7 -389.4 L-179.2 -388.7 L-180.6 -388 L-182 -387.2 L-183.5 -386.5 L-184.9 -385.8 L-186.3 -385 L-187.7 -384.3 L-189.2 -383.6 L-190.6 -382.8 L-192 -382.1 L-193.5 -381.4 L-194.9 -380.6 L-196.3 -379.9 L-197.8 -379.2 L-199.2 -378.4 L-200.6 -377.7 L-202 -376.9 L-203.5 -376.2 L-204.9 -375.5 L-206.3 -374.7 L-207.8 -374 L-209.2 -373.3 L-209.9 -374.7 L-210.7 -376.1 L-211.4 -377.6 L-212.1 -379 L-212.9 -380.4 L-213.6 -381.8 L-214.3 -383.3 L-215.1 -384.7 L-215.8 -386.1 L-216.5 -387.6 L-217.3 -389 L-218 -390.4 L-218.7 -391.9 L-219.5 -393.3 L-220.2 -394.7 L-221 -396.1 L-221.7 -397.6 L-222.4 -399 L-223.2 -400.4 L-223.9 -401.9 L-224.6 -403.3 L-225.4 -404.7 L-226.1 -406.1 L-226.8 -407.6 L-227.6 -409 L-226.1 -409.7 L-224.7 -410.5 L-223.3 -411.2 L-221.9 -411.9 L-220.4 -412.7 L-219 -413.4 L-217.6 -414.2 L-216.1 -414.9 L-214.7 -415.6 L-213.3 -416.4 L-211.8 -417.1 L-210.4 -417.8 L-209 -418.6 L-207.6 -419.3 L-206.1 -420 L-204.7 -420.8 L-203.3 -421.5 L-201.8 -422.2 L-200.4 -423 L-199 -423.7 L-197.6 -424.4 L-196.1 -425.2 L-194.7 -425.9 L-193.3 -426.7 L-191.8 -427.4 L-191.1 -426 L-190.4 -424.5 L-189.6 -423.1 L-188.9 -421.7 L-188.2 -420.2 L-187.4 -418.8 L-186.7 -417.4 L-186 -416 L-185.2 -414.5 L-184.5 -413.1 L-183.7 -411.7 L-183 -410.2 L-182.3 -408.8 L-181.5 -407.4 L-180.8 -405.9 L-180.1 -404.5 L-179.3 -403.1 L-178.6 -401.7 L-177.9 -400.2 L-177.1 -398.8 L-176.4 -397.4 L-175.7 -395.9 L-174.9 -394.5 L-174.2 -393.1 L-173.5 -391.7 Z " />
<path stroke="rgb(0,0,0)" stroke-opacity="0.325" fill="rgb(255,255,255)" fill-opacity="1" d="M124.9 -199.9 L124.8 -197.9 L124.6 -195.9 L124.2 -194 L123.6 -192.1 L122.9 -190.3 L122.1 -188.5 L121.1 -186.8 L120 -185.1 L118.7 -183.6 L117.4 -182.1 L115.9 -180.8 L114.3 -179.6 L112.6 -178.5 L110.9 -177.6 L109.1 -176.8 L107.2 -176.2 L105.3 -175.7 L103.3 -175.3 L101.4 -175.1 L99.4 -175.1 L97.42 -175.2 L95.46 -175.5 L93.53 -176 L91.64 -176.5 L89.8 -177.3 L88.03 -178.2 L86.33 -179.2 L84.72 -180.3 L83.21 -181.6 L81.8 -183 L80.51 -184.5 L79.34 -186.1 L78.3 -187.8 L77.4 -189.6 L76.64 -191.4 L76.03 -193.3 L75.57 -195.2 L75.27 -197.1 L75.12 -199.1 L75.13 -201.1 L75.29 -203.1 L75.61 -205 L76.09 -206.9 L76.72 -208.8 L77.49 -210.6 L78.41 -212.4 L79.46 -214.1 L80.65 -215.7 L81.95 -217.2 L83.37 -218.5 L84.9 -219.8 L86.52 -220.9 L88.22 -221.9 L90 -222.8 L91.85 -223.5 L93.74 -224.1 L95.68 -224.5 L97.64 -224.8 L99.61 -224.9 L101.6 -224.9 L103.6 -224.6 L105.5 -224.3 L107.4 -223.8 L109.3 -223.1 L111.1 -222.3 L112.8 -221.3 L114.5 -220.3 L116 -219 L117.5 -217.7 L118.9 -216.3 L120.1 -214.7 L121.2 -213.1 L122.2 -211.3 L123 -209.5 L123.7 -207.7 L124.2 -205.8 L124.6 -203.8 L124.8 -201.9 L124.9 -199.9 Z " />
<path stroke="rgb(0,0,0)" stroke-opacity="1" fill="rgb(255,255,255)" fill-opacity="1" d="M25.32 -378.7 L23.42 -378.5 L21.51 -378.4 L19.61 -378.2 L17.71 -378.1 L15.8 -377.9 L13.9 -377.7 L12 -377.6 L10.1 -377.4 L8.193 -377.2 L6.29 -377.1 L4.386 -376.9 L2.483 -376.8 L0.5803 -376.6 L-1.323 -376.4 L-3.226 -376.3 L-5.129 -376.1 L-7.032 -375.9 L-8.935 -375.8 L-10.84 -375.6 L-12.74 -375.5 L-14.64 -375.3 L-16.55 -375.1 L-18.45 -375 L-20.35 -374.8 L-22.26 -374.6 L-22.42 -376.5 L-22.58 -378.4 L-22.74 -380.3 L-22.91 -382.3 L-23.07 -384.2 L-23.23 -386.1 L-23.39 -388 L-23.56 -389.9 L-23.72 -391.8 L-23.88 -393.7 L-24.04 -395.6 L-24.21 -397.5 L-24.37 -399.4 L-24.53 -401.3 L-24.69 -403.2 L-24.86 -405.1 L-25.02 -407 L-25.18 -408.9 L-25.34 -410.8 L-25.51 -412.7 L-25.67 -414.6 L-25.83 -416.5 L-25.99 -418.4 L-26.16 -420.3 L-26.32 -422.2 L-24.42 -422.4 L-22.51 -422.5 L-20.61 -422.7 L-18.71 -422.9 L-16.8 -423 L-14.9 -423.2 L-13 -423.4 L-11.09 -423.5 L-9.19 -423.7 L-7.287 -423.8 L-5.384 -424 L-3.481 -424.2 L-1.578 -424.3 L0.3251 -424.5 L2.228 -424.7 L4.131 -424.8 L6.034 -425 L7.937 -425.1 L9.841 -425.3 L11.74 -425.5 L13.65 -425.6 L15.55 -425.8 L17.45 -426 L19.36 -426.1 L21.26 -426.3 L21.42 -424.4 L21.58 -422.5 L21.75 -420.6 L21.91 -418.7 L22.07 -416.8 L22.23 -414.9 L22.4 -413 L22.56 -411.1 L22.72 -409.2 L22.88 -407.2 L23.05 -405.3 L23.21 -403.4 L23.37 -401.5 L23.53 -399.6 L23.7 -397.7 L23.86 -395.8 L24.02 -393.9 L24.18 -392 L24.35 -390.1 L24.51 -388.2 L24.67 -386.3 L24.83 -384.4 L25 -382.5 L25.16 -380.6 L25.32 -378.7 Z " />
<path stroke="rgb(0,0,0)" stroke-opacity="0.325" fill="rgb(255,255,255)" fill-opacity="1" d="M324.9 -199.9 L324.8 -197.9 L324.6 -195.9 L324.2 -194 L323.6 -192.1 L322.9 -190.3 L322.1 -188.5 L321.1 -186.8 L320 -185.1 L318.7 -183.6 L317.4 -182.1 L315.9 -180.8 L314.3 -179.6 L312.6 -178.5 L310.9 -177.6 L309.1 -176.8 L307.2 -176.2 L305.3 -175.7 L303.3 -175.3 L301.4 -175.1 L299.4 -175.1 L297.4 -175.2 L295.5 -175.5 L293.5 -176 L291.6 -176.5 L289.8 -177.3 L288 -178.2 L286.3 -179.2 L284.7 -180.3 L283.2 -181.6 L281.8 -183 L280.5 -184.5 L279.3 -186.1 L278.3 -187.8 L277.4 -189.6 L276.6 -191.4 L276 -193.3 L275.6 -195.2 L275.3 -197.1 L275.1 -199.1 L275.1 -201.1 L275.3 -203.1 L275.6 -205 L276.1 -206.9 L276.7 -208.8 L277.5 -210.6 L278.4 -212.4 L279.5 -214.1 L280.6 -215.7 L282 -217.2 L283.4 -218.5 L284.9 -219.8 L286.5 -220.9 L288.2 -221.9 L290 -222.8 L291.8 -223.5 L293.7 -224.1 L295.7 -224.5 L297.6 -224.8 L299.6 -224.9 L301.6 -224.9 L303.6 -224.6 L305.5 -224.3 L307.4 -223.8 L309.3 -223.1 L311.1 -222.3 L312.8 -221.3 L314.5 -220.3 L316 -219 L317.5 -217.7 L318.9 -216.3 L320.1 -214.7 L321.2 -213.1 L322.2 -211.3 L323 -209.5 L323.7 -207.7 L324.2 -205.8 L324.6 -203.8 L324.8 -201.9 L324.9 -199.9 Z " />
<path stroke="rgb(0,0,0)" stroke-opacity="1" fill="rgb(255,255,255)" fill-opacity="1" d="M-481.3 -308.2 L-481.7 -307.1 L-482.1 -306 L-482.6 -304.9 L-483 -303.8 L-483.5 -302.7 L-483.9 -301.7 L-484.4 -300.6 L-484.8 -299.5 L-485.3 -298.4 L-485.7 -297.3 L-486.2 -296.2 L-486.6 -295.1 L-487.1 -294 L-487.5 -293 L-487.9 -291.9 L-488.4 -290.8 L-488.8 -289.7 L-489.3 -288.6 L-489.7 -287.5 L-490.2 -286.4 L-490.6 -285.3 L-491.1 -284.2 L-491.5 -283.2 L-492 -282.1 L-492.4 -281 L-493.5 -281.4 L-494.6 -281.9 L-495.7 -282.3 L-496.8 -282.8 L-497.9 -283.2 L-498.9 -283.7 L-500 -284.1 L-501.1 -284.6 L-502.2 -285 L-503.3 -285.4 L-504.4 -285.9 L-505.5 -286.3 L-506.6 -286.8 L-507.6 -287.2 L-508.7 -287.7 L-509.8 -288.1 L-510.9 -288.6 L-512 -289 L-513.1 -289.5 L-514.2 -289.9 L-515.3 -290.4 L-516.4 -290.8 L-517.4 -291.2 L-518.5 -291.7 L-519.6 -292.1 L-519.2 -293.2 L-518.7 -294.3 L-518.3 -295.4 L-517.8 -296.5 L-517.4 -297.6 L-516.9 -298.7 L-516.5 -299.8 L-516 -300.8 L-515.6 -301.9 L-515.2 -303 L-514.7 -304.1 L-514.3 -305.2 L-513.8 -306.3 L-513.4 -307.4 L-512.9 -308.5 L-512.5 -309.6 L-512 -310.6 L-511.6 -311.7 L-511.1 -312.8 L-510.7 -313.9 L-510.2 -315 L-509.8 -316.1 L-509.3 -317.2 L-508.9 -318.3 L-508.5 -319.3 L-507.4 -318.9 L-506.3 -318.5 L-505.2 -318 L-504.1 -317.6 L-503 -317.1 L-501.9 -316.7 L-500.8 -316.2 L-499.8 -315.8 L-498.7 -315.3 L-497.6 -314.9 L-496.5 -314.4 L-495.4 -314 L-494.3 -313.5 L-493.2 -313.1 L-492.1 -312.7 L-491 -312.2 L-490 -311.8 L-488.9 -311.3 L-487.8 -310.9 L-486.7 -310.4 L-485.6 -310 L-484.5 -309.5 L-483.4 -309.1 L-482.3 -308.6 L-481.3 -308.2 Z " />
<path stroke="rgb(0,0,0)" stroke-opacity="0.325" fill="rgb(255,255,255)" fill-opacity="1" d="M-175.1 -99.89 L-175.2 -97.91 L-175.4 -95.95 L-175.8 -94.01 L-176.4 -92.11 L-177.1 -90.26 L-177.9 -88.47 L-178.9 -86.75 L-180 -85.12 L-181.3 -83.58 L-182.6 -82.14 L-184.1 -80.82 L-185.7 -79.62 L-187.4 -78.55 L-189.1 -77.61 L-190.9 -76.82 L-192.8 -76.17 L-194.7 -75.67 L-196.7 -75.33 L-198.6 -75.14 L-200.6 -75.11 L-202.6 -75.24 L-204.5 -75.52 L-206.5 -75.96 L-208.4 -76.55 L-210.2 -77.28 L-212 -78.17 L-213.7 -79.19 L-215.3 -80.34 L-216.8 -81.61 L-218.2 -83.01 L-219.5 -84.51 L-220.7 -86.1 L-221.7 -87.79 L-222.6 -89.55 L-223.4 -91.38 L-224 -93.26 L-224.4 -95.19 L-224.7 -97.15 L-224.9 -99.12 L-224.9 -101.1 L-224.7 -103.1 L-224.4 -105 L-223.9 -106.9 L-223.3 -108.8 L-222.5 -110.6 L-221.6 -112.4 L-220.5 -114.1 L-219.4 -115.7 L-218 -117.2 L-216.6 -118.5 L-215.1 -119.8 L-213.5 -120.9 L-211.8 -121.9 L-210 -122.8 L-208.2 -123.5 L-206.3 -124.1 L-204.3 -124.5 L-202.4 -124.8 L-200.4 -124.9 L-198.4 -124.9 L-196.4 -124.6 L-194.5 -124.3 L-192.6 -123.8 L-190.7 -123.1 L-188.9 -122.3 L-187.2 -121.3 L-185.5 -120.3 L-184 -119 L-182.5 -117.7 L-181.1 -116.3 L-179.9 -114.7 L-178.8 -113.1 L-177.8 -111.3 L-177 -109.5 L-176.3 -107.7 L-175.8 -105.8 L-175.4 -103.8 L-175.2 -101.9 L-175.1 -99.89 Z " />
<path stroke="rgb(0,0,0)" stroke-opacity="1" fill="rgb(255,255,255)" fill-opacity="1" d="M-273.5 -291.7 L-274.9 -290.9 L-276.3 -290.2 L-277.7 -289.4 L-279.2 -288.7 L-280.6 -288 L-282 -287.2 L-283.5 -286.5 L-284.9 -285.8 L-286.3 -285 L-287.7 -284.3 L-289.2 -283.6 L-290.6 -282.8 L-292 -282.1 L-293.5 -281.4 L-294.9 -280.6 L-296.3 -279.9 L-297.8 -279.2 L-299.2 -278.4 L-300.6 -277.7 L-302 -276.9 L-303.5 -276.2 L-304.9 -275.5 L-306.3 -274.7 L-307.8 -274 L-309.2 -273.3 L-309.9 -274.7 L-310.7 -276.1 L-311.4 -277.6 L-312.1 -279 L-312.9 -280.4 L-313.6 -281.8 L-314.3 -283.3 L-315.1 -284.7 L-315.8 -286.1 L-316.5 -287.6 L-317.3 -289 L-318 -290.4 L-318.7 -291.9 L-319.5 -293.3 L-320.2 -294.7 L-321 -296.1 L-321.7 -297.6 L-322.4 -299 L-323.2 -300.4 L-323.9 -301.9 L-324.6 -303.3 L-325.4 -304.7 L-326.1 -306.1 L-326.8 -307.6 L-327.6 -309 L-326.1 -309.7 L-324.7 -310.5 L-323.3 -311.2 L-321.9 -311.9 L-320.4 -312.7 L-319 -313.4 L-317.6 -314.2 L-316.1 -314.9 L-314.7 -315.6 L-313.3 -316.4 L-311.8 -317.1 L-310.4 -317.8 L-309 -318.6 L-307.6 -319.3 L-306.1 -320 L-304.7 -320.8 L-303.3 -321.5 L-301.8 -322.2 L-300.4 -323 L-299 -323.7 L-297.6 -324.4 L-296.1 -325.2 L-294.7 -325.9 L-293.3 -326.7 L-291.8 -327.4 L-291.1 -326 L-290.4 -324.5 L-289.6 -323.1 L-288.9 -321.7 L-288.2 -320.2 L-287.4 -318.8 L-286.7 -317.4 L-286 -316 L-285.2 -314.5 L-284.5 -313.1 L-283.7 -311.7 L-283 -310.2 L-282.3 -308.8 L-281.5 -307.4 L-280.8 -305.9 L-280.1 -304.5 L-279.3 -303.1 L-278.6 -301.7 L-277.9 -300.2 L-277.1 -298.8 L-276.4 -297.4 L-275.7 -295.9 L-274.9 -294.5 L-274.2 -293.1 L-273.5 -291.7 Z " />
<path stroke="rgb(0,0,0)" stroke-opacity="0.325" fill="rgb(255,255,255)" fill-opacity="1" d="M24.9 -99.89 L24.81 -97.91 L24.57 -95.95 L24.17 -94.01 L23.62 -92.11 L22.92 -90.26 L22.07 -88.47 L21.08 -86.75 L19.96 -85.12 L18.72 -83.58 L17.35 -82.14 L15.88 -80.82 L14.31 -79.62 L12.64 -78.55 L10.9 -77.61 L9.085 -76.82 L7.214 -76.17 L5.298 -75.67 L3.348 -75.33 L1.377 -75.14 L-0.6025 -75.11 L-2.578 -75.24 L-4.538 -75.52 L-6.469 -75.96 L-8.359 -76.55 L-10.2 -77.28 L-11.97 -78.17 L-13.67 -79.19 L-15.28 -80.34 L-16.79 -81.61 L-18.2 -83.01 L-19.49 -84.51 L-20.66 -86.1 L-21.7 -87.79 L-22.6 -89.55 L-23.36 -91.38 L-23.97 -93.26 L-24.43 -95.19 L-24.73 -97.15 L-24.88 -99.12 L-24.87 -101.1 L-24.71 -103.1 L-24.39 -105 L-23.91 -106.9 L-23.28 -108.8 L-22.51 -110.6 L-21.59 -112.4 L-20.54 -114.1 L-19.35 -115.7 L-18.05 -117.2 L-16.63 -118.5 L-15.1 -119.8 L-13.48 -120.9 L-11.78 -121.9 L-9.997 -122.8 L-8.153 -123.5 L-6.258 -124.1 L-4.324 -124.5 L-2.362 -124.8 L-0.3851 -124.9 L1.594 -124.9 L3.563 -124.6 L5.51 -124.3 L7.422 -123.8 L9.287 -123.1 L11.09 -122.3 L12.83 -121.3 L14.48 -120.3 L16.05 -119 L17.51 -117.7 L18.86 -116.3 L20.09 -114.7 L21.2 -113.1 L22.17 -111.3 L23 -109.5 L23.69 -107.7 L24.22 -105.8 L24.6 -103.8 L24.83 -101.9 L24.9 -99.89 Z " />
<path stroke="rgb(0,0,0)" stroke-opacity="1" fill="rgb(255,255,255)" fill-opacity="1" d="M-74.68 -278.7 L-76.58 -278.5 L-78.49 -278.4 L-80.39 -278.2 L-82.29 -278.1 L-84.2 -277.9 L-86.1 -277.7 L-88 -277.6 L-89.9 -277.4 L-91.81 -277.2 L-93.71 -277.1 L-95.61 -276.9 L-97.52 -276.8 L-99.42 -276.6 L-101.3 -276.4 L-103.2 -276.3 L-105.1 -276.1 L-107 -275.9 L-108.9 -275.8 L-110.8 -275.6 L-112.7 -275.5 L-114.6 -275.3 L-116.5 -275.1 L-118.5 -275 L-120.4 -274.8 L-122.3 -274.6 L-122.4 -276.5 L-122.6 -278.4 L-122.7 -280.3 L-122.9 -282.3 L-123.1 -284.2 L-123.2 -286.1 L-123.4 -288 L-123.6 -289.9 L-123.7 -291.8 L-123.9 -293.7 L-124 -295.6 L-124.2 -297.5 L-124.4 -299.4 L-124.5 -301.3 L-124.7 -303.2 L-124.9 -305.1 L-125 -307 L-125.2 -308.9 L-125.3 -310.8 L-125.5 -312.7 L-125.7 -314.6 L-125.8 -316.5 L-126 -318.4 L-126.2 -320.3 L-126.3 -322.2 L-124.4 -322.4 L-122.5 -322.5 L-120.6 -322.7 L-118.7 -322.9 L-116.8 -323 L-114.9 -323.2 L-113 -323.4 L-111.1 -323.5 L-109.2 -323.7 L-107.3 -323.8 L-105.4 -324 L-103.5 -324.2 L-101.6 -324.3 L-99.67 -324.5 L-97.77 -324.7 L-95.87 -324.8 L-93.97 -325 L-92.06 -325.1 L-90.16 -325.3 L-88.26 -325.5 L-86.35 -325.6 L-84.45 -325.8 L-82.55 -326 L-80.64 -326.1 L-78.74 -326.3 L-78.58 -324.4 L-78.42 -322.5 L-78.25 -320.6 L-78.09 -318.7 L-77.93 -316.8 L-77.77 -314.9 L-77.6 -313 L-77.44 -311.1 L-77.28 -309.2 L-77.12 -307.2 L-76.95 -305.3 L-76.79 -303.4 L-76.63 -301.5 L-76.47 -299.6 L-76.3 -297.7 L-76.14 -295.8 L-75.98 -293.9 L-75.82 -292 L-75.65 -290.1 L-75.49 -288.2 L-75.33 -286.3 L-75.17 -284.4 L-75 -282.5 L-74.84 -280.6 L-74.68 -278.7 Z " />
<path stroke="rgb(0,0,0)" stroke-opacity="0.325" fill="rgb(255,255,255)" fill-opacity="1" d="M224.9 -99.89 L224.8 -97.91 L224.6 -95.95 L224.2 -94.01 L223.6 -92.11 L222.9 -90.26 L222.1 -88.47 L221.1 -86.75 L220 -85.12 L218.7 -83.58 L217.4 -82.14 L215.9 -80.82 L214.3 -79.62 L212.6 -78.55 L210.9 -77.61 L209.1 -76.82 L207.2 -76.17 L205.3 -75.67 L203.3 -75.33 L201.4 -75.14 L199.4 -75.11 L197.4 -75.24 L195.5 -75.52 L193.5 -75.96 L191.6 -76.55 L189.8 -77.28 L188 -78.17 L186.3 -79.19 L184.7 -80.34 L183.2 -81.61 L181.8 -83.01 L180.5 -84.51 L179.3 -86.1 L178.3 -87.79 L177.4 -89.55 L176.6 -91.38 L176 -93.26 L175.6 -95.19 L175.3 -97.15 L175.1 -99.12 L175.1 -101.1 L175.3 -103.1 L175.6 -105 L176.1 -106.9 L176.7 -108.8 L177.5 -110.6 L178.4 -112.4 L179.5 -114.1 L180.6 -115.7 L182 -117.2 L183.4 -118.5 L184.9 -119.8 L186.5 -120.9 L188.2 -121.9 L190 -122.8 L191.8 -123.5 L193.7 -124.1 L195.7 -124.5 L197.6 -124.8 L199.6 -124.9 L201.6 -124.9 L203.6 -124.6 L205.5 -124.3 L207.4 -123.8 L209.3 -123.1 L211.1 -122.3 L212.8 -121.3 L214.5 -120.3 L216 -119 L217.5 -117.7 L218.9 -116.3 L220.1 -114.7 L221.2 -113.1 L222.2 -111.3 L223 -109.5 L223.7 -107.7 L224.2 -105.8 L224.6 -103.8 L224.8 -101.9 L224.9 -99.89 Z " />
<path stroke="rgb(0,0,0)" stroke-opacity="1" fill="rgb(255,255,255)" fill-opacity="1" d="M124.3 -275.6 L122.3 -275.6 L120.3 -275.6 L118.3 -275.6 L116.3 -275.6 L114.3 -275.6 L112.3 -275.6 L110.4 -275.6 L108.4 -275.6 L106.4 -275.6 L104.4 -275.7 L102.4 -275.7 L100.4 -275.7 L98.45 -275.7 L96.46 -275.7 L94.48 -275.7 L92.49 -275.7 L90.5 -275.7 L88.52 -275.7 L86.53 -275.7 L84.55 -275.7 L82.56 -275.7 L80.57 -275.7 L78.59 -275.7 L76.6 -275.7 L74.62 -275.7 L74.62 -277.7 L74.63 -279.7 L74.63 -281.7 L74.64 -283.7 L74.65 -285.7 L74.65 -287.7 L74.66 -289.6 L74.66 -291.6 L74.67 -293.6 L74.67 -295.6 L74.68 -297.6 L74.69 -299.6 L74.69 -301.6 L74.7 -303.5 L74.7 -305.5 L74.71 -307.5 L74.71 -309.5 L74.72 -311.5 L74.73 -313.5 L74.73 -315.5 L74.74 -317.4 L74.74 -319.4 L74.75 -321.4 L74.75 -323.4 L74.76 -325.4 L76.75 -325.4 L78.73 -325.4 L80.72 -325.4 L82.7 -325.4 L84.69 -325.4 L86.68 -325.4 L88.66 -325.3 L90.65 -325.3 L92.63 -325.3 L94.62 -325.3 L96.6 -325.3 L98.59 -325.3 L100.6 -325.3 L102.6 -325.3 L104.5 -325.3 L106.5 -325.3 L108.5 -325.3 L110.5 -325.3 L112.5 -325.3 L114.5 -325.3 L116.5 -325.3 L118.4 -325.3 L120.4 -325.3 L122.4 -325.2 L124.4 -325.2 L124.4 -323.3 L124.4 -321.3 L124.4 -319.3 L124.4 -317.3 L124.4 -315.3 L124.4 -313.3 L124.4 -311.3 L124.4 -309.4 L124.4 -307.4 L124.3 -305.4 L124.3 -303.4 L124.3 -301.4 L124.3 -299.4 L124.3 -297.4 L124.3 -295.5 L124.3 -293.5 L124.3 -291.5 L124.3 -289.5 L124.3 -287.5 L124.3 -285.5 L124.3 -283.5 L124.3 -281.6 L124.3 -279.6 L124.3 -277.6 L124.3 -275.6 Z " />
<path stroke="rgb(0,0,0)" stroke-opacity="0.325" fill="rgb(255,255,255)" fill-opacity="1" d="M-275.1 0.1074 L-275.2 2.085 L-275.4 4.05 L-275.8 5.989 L-276.4 7.89 L-277.1 9.742 L-277.9 11.53 L-278.9 13.25 L-280 14.88 L-281.3 16.42 L-282.6 17.86 L-284.1 19.18 L-285.7 20.38 L-287.4 21.45 L-289.1 22.39 L-290.9 23.18 L-292.8 23.83 L-294.7 24.33 L-296.7 24.67 L-298.6 24.86 L-300.6 24.89 L-302.6 24.76 L-304.5 24.48 L-306.5 24.04 L-308.4 23.45 L-310.2 22.72 L-312 21.83 L-313.7 20.81 L-315.3 19.66 L-316.8 18.39 L-318.2 16.99 L-319.5 15.49 L-320.7 13.9 L-321.7 12.21 L-322.6 10.45 L-323.4 8.62 L-324 6.736 L-324.4 4.81 L-324.7 2.854 L-324.9 0.8799 L-324.9 -1.1 L-324.7 -3.073 L-324.4 -5.026 L-323.9 -6.948 L-323.3 -8.826 L-322.5 -10.65 L-321.6 -12.4 L-320.5 -14.08 L-319.4 -15.67 L-318 -17.15 L-316.6 -18.53 L-315.1 -19.8 L-313.5 -20.93 L-311.8 -21.94 L-310 -22.81 L-308.2 -23.53 L-306.3 -24.1 L-304.3 -24.52 L-302.4 -24.79 L-300.4 -24.9 L-298.4 -24.85 L-296.4 -24.65 L-294.5 -24.28 L-292.6 -23.77 L-290.7 -23.11 L-288.9 -22.29 L-287.2 -21.34 L-285.5 -20.26 L-284 -19.04 L-282.5 -17.71 L-281.1 -16.26 L-279.9 -14.71 L-278.8 -13.07 L-277.8 -11.34 L-277 -9.544 L-276.3 -7.687 L-275.8 -5.781 L-275.4 -3.838 L-275.2 -1.871 L-275.1 0.1074 Z " />
<path stroke="rgb(0,0,0)" stroke-opacity="1" fill="rgb(255,255,255)" fill-opacity="1" d="M-373.5 -191.7 L-374.9 -190.9 L-376.3 -190.2 L-377.7 -189.4 L-379.2 -188.7 L-380.6 -188 L-382 -187.2 L-383.5 -186.5 L-384.9 -185.8 L-386.3 -185 L-387.7 -184.3 L-389.2 -183.6 L-390.6 -182.8 L-392 -182.1 L-393.5 -181.4 L-394.9 -180.6 L-396.3 -179.9 L-397.8 -179.2 L-399.2 -178.4 L-400.6 -177.7 L-402 -176.9 L-403.5 -176.2 L-404.9 -175.5 L-406.3 -174.7 L-407.8 -174 L-409.2 -173.3 L-409.9 -174.7 L-410.7 -176.1 L-411.4 -177.6 L-412.1 -179 L-412.9 -180.4 L-413.6 -181.8 L-414.3 -183.3 L-415.1 -184.7 L-415.8 -186.1 L-416.5 -187.6 L-417.3 -189 L-418 -190.4 L-418.7 -191.9 L-419.5 -193.3 L-420.2 -194.7 L-421 -196.1 L-421.7 -197.6 L-422.4 -199 L-423.2 -200.4 L-423.9 -201.9 L-424.6 -203.3 L-425.4 -204.7 L-426.1 -206.1 L-426.8 -207.6 L-427.6 -209 L-426.1 -209.7 L-424.7 -210.5 L-423.3 -211.2 L-421.9 -211.9 L-420.4 -212.7 L-419 -213.4 L-417.6 -214.2 L-416.1 -214.9 L-414.7 -215.6 L-413.3 -216.4 L-411.8 -217.1 L-410.4 -217.8 L-409 -218.6 L-407.6 -219.3 L-406.1 -220 L-404.7 -220.8 L-403.3 -221.5 L-401.8 -222.2 L-400.4 -223 L-399 -223.7 L-397.6 -224.4 L-396.1 -225.2 L-394.7 -225.9 L-393.3 -226.7 L-391.8 -227.4 L-391.1 -226 L-390.4 -224.5 L-389.6 -223.1 L-388.9 -221.7 L-388.2 -220.2 L-387.4 -218.8 L-386.7 -217.4 L-386 -216 L-385.2 -214.5 L-384.5 -213.1 L-383.7 -211.7 L-383 -210.2 L-382.3 -208.8 L-381.5 -207.4 L-380.8 -205.9 L-380.1 -204.5 L-379.3 -203.1 L-378.6 -201.7 L-377.9 -200.2 L-377.1 -198.8 L-376.4 -197.4 L-375.7 -195.9 L-374.9 -194.5 L-374.2 -193.1 L-373.5 -191.7 Z " />
<path stroke="rgb(0,0,0)" stroke-opacity="0.325" fill="rgb(255,255,255)" fill-opacity="1" d="M-75.1 0.1074 L-75.19 2.085 L-75.43 4.05 L-75.83 5.989 L-76.38 7.89 L-77.08 9.742 L-77.93 11.53 L-78.92 13.25 L-80.04 14.88 L-81.28 16.42 L-82.65 17.86 L-84.12 19.18 L-85.69 20.38 L-87.36 21.45 L-89.1 22.39 L-90.92 23.18 L-92.79 23.83 L-94.7 24.33 L-96.65 24.67 L-98.62 24.86 L-100.6 24.89 L-102.6 24.76 L-104.5 24.48 L-106.5 24.04 L-108.4 23.45 L-110.2 22.72 L-112 21.83 L-113.7 20.81 L-115.3 19.66 L-116.8 18.39 L-118.2 16.99 L-119.5 15.49 L-120.7 13.9 L-121.7 12.21 L-122.6 10.45 L-123.4 8.62 L-124 6.736 L-124.4 4.81 L-124.7 2.854 L-124.9 0.8799 L-124.9 -1.1 L-124.7 -3.073 L-124.4 -5.026 L-123.9 -6.948 L-123.3 -8.826 L-122.5 -10.65 L-121.6 -12.4 L-120.5 -14.08 L-119.4 -15.67 L-118 -17.15 L-116.6 -18.53 L-115.1 -19.8 L-113.5 -20.93 L-111.8 -21.94 L-110 -22.81 L-108.2 -23.53 L-106.3 -24.1 L-104.3 -24.52 L-102.4 -24.79 L-100.4 -24.9 L-98.41 -24.85 L-96.44 -24.65 L-94.49 -24.28 L-92.58 -23.77 L-90.71 -23.11 L-88.91 -22.29 L-87.17 -21.34 L-85.52 -20.26 L-83.95 -19.04 L-82.49 -17.71 L-81.14 -16.26 L-79.91 -14.71 L-78.8 -13.07 L-77.83 -11.34 L-77 -9.544 L-76.31 -7.687 L-75.78 -5.781 L-75.4 -3.838 L-75.17 -1.871 L-75.1 0.1074 Z " />
<path stroke="rgb(0,0,0)" stroke-opacity="1" fill="rgb(255,255,255)" fill-opacity="1" d="M-174.7 -178.7 L-176.6 -178.5 L-178.5 -178.4 L-180.4 -178.2 L-182.3 -178.1 L-184.2 -177.9 L-186.1 -177.7 L-188 -177.6 L-189.9 -177.4 L-191.8 -177.2 L-193.7 -177.1 L-195.6 -176.9 L-197.5 -176.8 L-199.4 -176.6 L-201.3 -176.4 L-203.2 -176.3 L-205.1 -176.1 L-207 -175.9 L-208.9 -175.8 L-210.8 -175.6 L-212.7 -175.5 L-214.6 -175.3 L-216.5 -175.1 L-218.5 -175 L-220.4 -174.8 L-222.3 -174.6 L-222.4 -176.5 L-222.6 -178.4 L-222.7 -180.3 L-222.9 -182.3 L-223.1 -184.2 L-223.2 -186.1 L-223.4 -188 L-223.6 -189.9 L-223.7 -191.8 L-223.9 -193.7 L-224 -195.6 L-224.2 -197.5 L-224.4 -199.4 L-224.5 -201.3 L-224.7 -203.2 L-224.9 -205.1 L-225 -207 L-225.2 -208.9 L-225.3 -210.8 L-225.5 -212.7 L-225.7 -214.6 L-225.8 -216.5 L-226 -218.4 L-226.2 -220.3 L-226.3 -222.2 L-224.4 -222.4 L-222.5 -222.5 L-220.6 -222.7 L-218.7 -222.9 L-216.8 -223 L-214.9 -223.2 L-213 -223.4 L-211.1 -223.5 L-209.2 -223.7 L-207.3 -223.8 L-205.4 -224 L-203.5 -224.2 L-201.6 -224.3 L-199.7 -224.5 L-197.8 -224.7 L-195.9 -224.8 L-194 -225 L-192.1 -225.1 L-190.2 -225.3 L-188.3 -225.5 L-186.4 -225.6 L-184.5 -225.8 L-182.5 -226 L-180.6 -226.1 L-178.7 -226.3 L-178.6 -224.4 L-178.4 -222.5 L-178.3 -220.6 L-178.1 -218.7 L-177.9 -216.8 L-177.8 -214.9 L-177.6 -213 L-177.4 -211.1 L-177.3 -209.2 L-177.1 -207.2 L-177 -205.3 L-176.8 -203.4 L-176.6 -201.5 L-176.5 -199.6 L-176.3 -197.7 L-176.1 -195.8 L-176 -193.9 L-175.8 -192 L-175.7 -190.1 L-175.5 -188.2 L-175.3 -186.3 L-175.2 -184.4 L-175 -182.5 L-174.8 -180.6 L-174.7 -178.7 Z " />
<path stroke="rgb(0,0,0)" stroke-opacity="0.325" fill="rgb(255,255,255)" fill-opacity="1" d="M124.9 0.1074 L124.8 2.085 L124.6 4.05 L124.2 5.989 L123.6 7.89 L122.9 9.742 L122.1 11.53 L121.1 13.25 L120 14.88 L118.7 16.42 L117.4 17.86 L115.9 19.18 L114.3 20.38 L112.6 21.45 L110.9 22.39 L109.1 23.18 L107.2 23.83 L105.3 24.33 L103.3 24.67 L101.4 24.86 L99.4 24.89 L97.42 24.76 L95.46 24.48 L93.53 24.04 L91.64 23.45 L89.8 22.72 L88.03 21.83 L86.33 20.81 L84.72 19.66 L83.21 18.39 L81.8 16.99 L80.51 15.49 L79.34 13.9 L78.3 12.21 L77.4 10.45 L76.64 8.62 L76.03 6.736 L75.57 4.81 L75.27 2.854 L75.12 0.8799 L75.13 -1.1 L75.29 -3.073 L75.61 -5.026 L76.09 -6.948 L76.72 -8.826 L77.49 -10.65 L78.41 -12.4 L79.46 -14.08 L80.65 -15.67 L81.95 -17.15 L83.37 -18.53 L84.9 -19.8 L86.52 -20.93 L88.22 -21.94 L90 -22.81 L91.85 -23.53 L93.74 -24.1 L95.68 -24.52 L97.64 -24.79 L99.61 -24.9 L101.6 -24.85 L103.6 -24.65 L105.5 -24.28 L107.4 -23.77 L109.3 -23.11 L111.1 -22.29 L112.8 -21.34 L114.5 -20.26 L116 -19.04 L117.5 -17.71 L118.9 -16.26 L120.1 -14.71 L121.2 -13.07 L122.2 -11.34 L123 -9.544 L123.7 -7.687 L124.2 -5.781 L124.6 -3.838 L124.8 -1.871 L124.9 0.1074 Z " />
<path stroke="rgb(0,0,0)" stroke-opacity="1" fill="rgb(255,255,255)" fill-opacity="1" d="M24.26 -175.6 L22.28 -175.6 L20.29 -175.6 L18.31 -175.6 L16.32 -175.6 L14.33 -175.6 L12.35 -175.6 L10.36 -175.6 L8.376 -175.6 L6.39 -175.6 L4.404 -175.7 L2.419 -175.7 L0.4327 -175.7 L-1.553 -175.7 L-3.539 -175.7 L-5.525 -175.7 L-7.511 -175.7 L-9.497 -175.7 L-11.48 -175.7 L-13.47 -175.7 L-15.45 -175.7 L-17.44 -175.7 L-19.43 -175.7 L-21.41 -175.7 L-23.4 -175.7 L-25.38 -175.7 L-25.38 -177.7 L-25.37 -179.7 L-25.37 -181.7 L-25.36 -183.7 L-25.35 -185.7 L-25.35 -187.7 L-25.34 -189.6 L-25.34 -191.6 L-25.33 -193.6 L-25.33 -195.6 L-25.32 -197.6 L-25.31 -199.6 L-25.31 -201.6 L-25.3 -203.5 L-25.3 -205.5 L-25.29 -207.5 L-25.29 -209.5 L-25.28 -211.5 L-25.27 -213.5 L-25.27 -215.5 L-25.26 -217.4 L-25.26 -219.4 L-25.25 -221.4 L-25.25 -223.4 L-25.24 -225.4 L-23.25 -225.4 L-21.27 -225.4 L-19.28 -225.4 L-17.3 -225.4 L-15.31 -225.4 L-13.32 -225.4 L-11.34 -225.3 L-9.353 -225.3 L-7.367 -225.3 L-5.381 -225.3 L-3.395 -225.3 L-1.409 -225.3 L0.5766 -225.3 L2.562 -225.3 L4.548 -225.3 L6.534 -225.3 L8.52 -225.3 L10.51 -225.3 L12.49 -225.3 L14.48 -225.3 L16.46 -225.3 L18.45 -225.3 L20.44 -225.3 L22.42 -225.2 L24.41 -225.2 L24.4 -223.3 L24.4 -221.3 L24.39 -219.3 L24.38 -217.3 L24.38 -215.3 L24.37 -213.3 L24.37 -211.3 L24.36 -209.4 L24.35 -207.4 L24.35 -205.4 L24.34 -203.4 L24.34 -201.4 L24.33 -199.4 L24.33 -197.4 L24.32 -195.5 L24.31 -193.5 L24.31 -191.5 L24.3 -189.5 L24.3 -187.5 L24.29 -185.5 L24.29 -183.5 L24.28 -181.6 L24.27 -179.6 L24.27 -177.6 L24.26 -175.6 Z " />
<path stroke="rgb(0,0,0)" stroke-opacity="0.325" fill="rgb(255,255,255)" fill-opacity="1" d="M324.9 0.1074 L324.8 2.085 L324.6 4.05 L324.2 5.989 L323.6 7.89 L322.9 9.742 L322.1 11.53 L321.1 13.25 L320 14.88 L318.7 16.42 L317.4 17.86 L315.9 19.18 L314.3 20.38 L312.6 21.45 L310.9 22.39 L309.1 23.18 L307.2 23.83 L305.3 24.33 L303.3 24.67 L301.4 24.86 L299.4 24.89 L297.4 24.76 L295.5 24.48 L293.5 24.04 L291.6 23.45 L289.8 22.72 L288 21.83 L286.3 20.81 L284.7 19.66 L283.2 18.39 L281.8 16.99 L280.5 15.49 L279.3 13.9 L278.3 12.21 L277.4 10.45 L276.6 8.62 L276 6.736 L275.6 4.81 L275.3 2.854 L275.1 0.8799 L275.1 -1.1 L275.3 -3.073 L275.6 -5.026 L276.1 -6.948 L276.7 -8.826 L277.5 -10.65 L278.4 -12.4 L279.5 -14.08 L280.6 -15.67 L282 -17.15 L283.4 -18.53 L284.9 -19.8 L286.5 -20.93 L288.2 -21.94 L290 -22.81 L291.8 -23.53 L293.7 -24.1 L295.7 -24.52 L297.6 -24.79 L299.6 -24.9 L301.6 -24.85 L303.6 -24.65 L305.5 -24.28 L307.4 -23.77 L309.3 -23.11 L311.1 -22.29 L312.8 -21.34 L314.5 -20.26 L316 -19.04 L317.5 -17.71 L318.9 -16.26 L320.1 -14.71 L321.2 -13.07 L322.2 -11.34 L323 -9.544 L323.7 -7.687 L324.2 -5.781 L324.6 -3.838 L324.8 -1.871 L324.9 0.1074 Z " />
<path stroke="rgb(0,0,0)" stroke-opacity="1" fill="rgb(255,255,255)" fill-opacity="1" d="M-473.5 -91.65 L-474.9 -90.92 L-476.3 -90.18 L-477.7 -89.45 L-479.2 -88.71 L-480.6 -87.98 L-482 -87.24 L-483.5 -86.51 L-484.9 -85.77 L-486.3 -85.04 L-487.7 -84.3 L-489.2 -83.56 L-490.6 -82.83 L-492 -82.09 L-493.5 -81.36 L-494.9 -80.62 L-496.3 -79.89 L-497.8 -79.15 L-499.2 -78.42 L-500.6 -77.68 L-502 -76.95 L-503.5 -76.21 L-504.9 -75.48 L-506.3 -74.74 L-507.8 -74.01 L-509.2 -73.27 L-509.9 -74.7 L-510.7 -76.13 L-511.4 -77.56 L-512.1 -78.99 L-512.9 -80.42 L-513.6 -81.85 L-514.3 -83.28 L-515.1 -84.71 L-515.8 -86.13 L-516.5 -87.56 L-517.3 -88.99 L-518 -90.42 L-518.7 -91.85 L-519.5 -93.28 L-520.2 -94.71 L-521 -96.14 L-521.7 -97.57 L-522.4 -99 L-523.2 -100.4 L-523.9 -101.9 L-524.6 -103.3 L-525.4 -104.7 L-526.1 -106.1 L-526.8 -107.6 L-527.6 -109 L-526.1 -109.7 L-524.7 -110.5 L-523.3 -111.2 L-521.9 -111.9 L-520.4 -112.7 L-519 -113.4 L-517.6 -114.2 L-516.1 -114.9 L-514.7 -115.6 L-513.3 -116.4 L-511.8 -117.1 L-510.4 -117.8 L-509 -118.6 L-507.6 -119.3 L-506.1 -120 L-504.7 -120.8 L-503.3 -121.5 L-501.8 -122.2 L-500.4 -123 L-499 -123.7 L-497.6 -124.4 L-496.1 -125.2 L-494.7 -125.9 L-493.3 -126.7 L-491.8 -127.4 L-491.1 -126 L-490.4 -124.5 L-489.6 -123.1 L-488.9 -121.7 L-488.2 -120.2 L-487.4 -118.8 L-486.7 -117.4 L-486 -116 L-485.2 -114.5 L-484.5 -113.1 L-483.7 -111.7 L-483 -110.2 L-482.3 -108.8 L-481.5 -107.4 L-480.8 -105.9 L-480.1 -104.5 L-479.3 -103.1 L-478.6 -101.7 L-477.9 -100.2 L-477.1 -98.8 L-476.4 -97.37 L-475.7 -95.94 L-474.9 -94.51 L-474.2 -93.08 L-473.5 -91.65 Z " />
<path stroke="rgb(0,0,0)" stroke-opacity="0.325" fill="rgb(255,255,255)" fill-opacity="1" d="M-175.1 100.1 L-175.2 102.1 L-175.4 104.1 L-175.8 106 L-176.4 107.9 L-177.1 109.7 L-177.9 111.5 L-178.9 113.2 L-180 114.9 L-181.3 116.4 L-182.6 117.9 L-184.1 119.2 L-185.7 120.4 L-187.4 121.5 L-189.1 122.4 L-190.9 123.2 L-192.8 123.8 L-194.7 124.3 L-196.7 124.7 L-198.6 124.9 L-200.6 124.9 L-202.6 124.8 L-204.5 124.5 L-206.5 124 L-208.4 123.5 L-210.2 122.7 L-212 121.8 L-213.7 120.8 L-215.3 119.7 L-216.8 118.4 L-218.2 117 L-219.5 115.5 L-220.7 113.9 L-221.7 112.2 L-222.6 110.4 L-223.4 108.6 L-224 106.7 L-224.4 104.8 L-224.7 102.9 L-224.9 100.9 L-224.9 98.9 L-224.7 96.93 L-224.4 94.97 L-223.9 93.05 L-223.3 91.17 L-222.5 89.35 L-221.6 87.6 L-220.5 85.92 L-219.4 84.33 L-218 82.85 L-216.6 81.47 L-215.1 80.2 L-213.5 79.07 L-211.8 78.06 L-210 77.19 L-208.2 76.47 L-206.3 75.9 L-204.3 75.48 L-202.4 75.21 L-200.4 75.1 L-198.4 75.15 L-196.4 75.35 L-194.5 75.72 L-192.6 76.23 L-190.7 76.89 L-188.9 77.71 L-187.2 78.66 L-185.5 79.74 L-184 80.96 L-182.5 82.29 L-181.1 83.74 L-179.9 85.29 L-178.8 86.93 L-177.8 88.66 L-177 90.46 L-176.3 92.31 L-175.8 94.22 L-175.4 96.16 L-175.2 98.13 L-175.1 100.1 Z " />
<path stroke="rgb(0,0,0)" stroke-opacity="1" fill="rgb(255,255,255)" fill-opacity="1" d="M-274.7 -78.7 L-276.6 -78.54 L-278.5 -78.38 L-280.4 -78.21 L-282.3 -78.05 L-284.2 -77.89 L-286.1 -77.73 L-288 -77.56 L-289.9 -77.4 L-291.8 -77.24 L-293.7 -77.08 L-295.6 -76.91 L-297.5 -76.75 L-299.4 -76.59 L-301.3 -76.43 L-303.2 -76.26 L-305.1 -76.1 L-307 -75.94 L-308.9 -75.78 L-310.8 -75.61 L-312.7 -75.45 L-314.6 -75.29 L-316.5 -75.13 L-318.5 -74.96 L-320.4 -74.8 L-322.3 -74.64 L-322.4 -76.54 L-322.6 -78.45 L-322.7 -80.35 L-322.9 -82.25 L-323.1 -84.15 L-323.2 -86.06 L-323.4 -87.96 L-323.6 -89.86 L-323.7 -91.77 L-323.9 -93.67 L-324 -95.57 L-324.2 -97.48 L-324.4 -99.38 L-324.5 -101.3 L-324.7 -103.2 L-324.9 -105.1 L-325 -107 L-325.2 -108.9 L-325.3 -110.8 L-325.5 -112.7 L-325.7 -114.6 L-325.8 -116.5 L-326 -118.4 L-326.2 -120.3 L-326.3 -122.2 L-324.4 -122.4 L-322.5 -122.5 L-320.6 -122.7 L-318.7 -122.9 L-316.8 -123 L-314.9 -123.2 L-313 -123.4 L-311.1 -123.5 L-309.2 -123.7 L-307.3 -123.8 L-305.4 -124 L-303.5 -124.2 L-301.6 -124.3 L-299.7 -124.5 L-297.8 -124.7 L-295.9 -124.8 L-294 -125 L-292.1 -125.1 L-290.2 -125.3 L-288.3 -125.5 L-286.4 -125.6 L-284.5 -125.8 L-282.5 -126 L-280.6 -126.1 L-278.7 -126.3 L-278.6 -124.4 L-278.4 -122.5 L-278.3 -120.6 L-278.1 -118.7 L-277.9 -116.8 L-277.8 -114.9 L-277.6 -113 L-277.4 -111.1 L-277.3 -109.2 L-277.1 -107.2 L-277 -105.3 L-276.8 -103.4 L-276.6 -101.5 L-276.5 -99.63 L-276.3 -97.73 L-276.1 -95.83 L-276 -93.93 L-275.8 -92.02 L-275.7 -90.12 L-275.5 -88.22 L-275.3 -86.31 L-275.2 -84.41 L-275 -82.51 L-274.8 -80.6 L-274.7 -78.7 Z " />
<path stroke="rgb(0,0,0)" stroke-opacity="0.325" fill="rgb(255,255,255)" fill-opacity="1" d="M24.9 100.1 L24.81 102.1 L24.57 104.1 L24.17 106 L23.62 107.9 L22.92 109.7 L22.07 111.5 L21.08 113.2 L19.96 114.9 L18.72 116.4 L17.35 117.9 L15.88 119.2 L14.31 120.4 L12.64 121.5 L10.9 122.4 L9.085 123.2 L7.214 123.8 L5.298 124.3 L3.348 124.7 L1.377 124.9 L-0.6025 124.9 L-2.578 124.8 L-4.538 124.5 L-6.469 124 L-8.359 123.5 L-10.2 122.7 L-11.97 121.8 L-13.67 120.8 L-15.28 119.7 L-16.79 118.4 L-18.2 117 L-19.49 115.5 L-20.66 113.9 L-21.7 112.2 L-22.6 110.4 L-23.36 108.6 L-23.97 106.7 L-24.43 104.8 L-24.73 102.9 L-24.88 100.9 L-24.87 98.9 L-24.71 96.93 L-24.39 94.97 L-23.91 93.05 L-23.28 91.17 L-22.51 89.35 L-21.59 87.6 L-20.54 85.92 L-19.35 84.33 L-18.05 82.85 L-16.63 81.47 L-15.1 80.2 L-13.48 79.07 L-11.78 78.06 L-9.997 77.19 L-8.153 76.47 L-6.258 75.9 L-4.324 75.48 L-2.362 75.21 L-0.3851 75.1 L1.594 75.15 L3.563 75.35 L5.51 75.72 L7.422 76.23 L9.287 76.89 L11.09 77.71 L12.83 78.66 L14.48 79.74 L16.05 80.96 L17.51 82.29 L18.86 83.74 L20.09 85.29 L21.2 86.93 L22.17 88.66 L23 90.46 L23.69 92.31 L24.22 94.22 L24.6 96.16 L24.83 98.13 L24.9 100.1 Z " />
<path stroke="rgb(0,0,0)" stroke-opacity="1" fill="rgb(255,255,255)" fill-opacity="1" d="M-75.74 -75.59 L-77.72 -75.6 L-79.71 -75.61 L-81.69 -75.61 L-83.68 -75.62 L-85.67 -75.62 L-87.65 -75.63 L-89.64 -75.64 L-91.62 -75.64 L-93.61 -75.65 L-95.6 -75.65 L-97.58 -75.66 L-99.57 -75.66 L-101.6 -75.67 L-103.5 -75.68 L-105.5 -75.68 L-107.5 -75.69 L-109.5 -75.69 L-111.5 -75.7 L-113.5 -75.7 L-115.5 -75.71 L-117.4 -75.72 L-119.4 -75.72 L-121.4 -75.73 L-123.4 -75.73 L-125.4 -75.74 L-125.4 -77.72 L-125.4 -79.71 L-125.4 -81.7 L-125.4 -83.68 L-125.4 -85.67 L-125.3 -87.65 L-125.3 -89.64 L-125.3 -91.63 L-125.3 -93.61 L-125.3 -95.6 L-125.3 -97.58 L-125.3 -99.57 L-125.3 -101.6 L-125.3 -103.5 L-125.3 -105.5 L-125.3 -107.5 L-125.3 -109.5 L-125.3 -111.5 L-125.3 -113.5 L-125.3 -115.5 L-125.3 -117.4 L-125.3 -119.4 L-125.3 -121.4 L-125.2 -123.4 L-125.2 -125.4 L-123.3 -125.4 L-121.3 -125.4 L-119.3 -125.4 L-117.3 -125.4 L-115.3 -125.4 L-113.3 -125.4 L-111.3 -125.3 L-109.4 -125.3 L-107.4 -125.3 L-105.4 -125.3 L-103.4 -125.3 L-101.4 -125.3 L-99.42 -125.3 L-97.44 -125.3 L-95.45 -125.3 L-93.47 -125.3 L-91.48 -125.3 L-89.49 -125.3 L-87.51 -125.3 L-85.52 -125.3 L-83.54 -125.3 L-81.55 -125.3 L-79.56 -125.3 L-77.58 -125.2 L-75.59 -125.2 L-75.6 -123.3 L-75.6 -121.3 L-75.61 -119.3 L-75.62 -117.3 L-75.62 -115.3 L-75.63 -113.3 L-75.63 -111.3 L-75.64 -109.4 L-75.65 -107.4 L-75.65 -105.4 L-75.66 -103.4 L-75.66 -101.4 L-75.67 -99.42 L-75.67 -97.44 L-75.68 -95.45 L-75.69 -93.47 L-75.69 -91.48 L-75.7 -89.5 L-75.7 -87.51 L-75.71 -85.52 L-75.71 -83.54 L-75.72 -81.55 L-75.73 -79.57 L-75.73 -77.58 L-75.74 -75.59 Z " />
<path stroke="rgb(0,0,0)" stroke-opacity="0.325" fill="rgb(255,255,255)" fill-opacity="1" d="M224.9 100.1 L224.8 102.1 L224.6 104.1 L224.2 106 L223.6 107.9 L222.9 109.7 L222.1 111.5 L221.1 113.2 L220 114.9 L218.7 116.4 L217.4 117.9 L215.9 119.2 L214.3 120.4 L212.6 121.5 L210.9 122.4 L209.1 123.2 L207.2 123.8 L205.3 124.3 L203.3 124.7 L201.4 124.9 L199.4 124.9 L197.4 124.8 L195.5 124.5 L193.5 124 L191.6 123.5 L189.8 122.7 L188 121.8 L186.3 120.8 L184.7 119.7 L183.2 118.4 L181.8 117 L180.5 115.5 L179.3 113.9 L178.3 112.2 L177.4 110.4 L176.6 108.6 L176 106.7 L175.6 104.8 L175.3 102.9 L175.1 100.9 L175.1 98.9 L175.3 96.93 L175.6 94.97 L176.1 93.05 L176.7 91.17 L177.5 89.35 L178.4 87.6 L179.5 85.92 L180.6 84.33 L182 82.85 L183.4 81.47 L184.9 80.2 L186.5 79.07 L188.2 78.06 L190 77.19 L191.8 76.47 L193.7 75.9 L195.7 75.48 L197.6 75.21 L199.6 75.1 L201.6 75.15 L203.6 75.35 L205.5 75.72 L207.4 76.23 L209.3 76.89 L211.1 77.71 L212.8 78.66 L214.5 79.74 L216 80.96 L217.5 82.29 L218.9 83.74 L220.1 85.29 L221.2 86.93 L222.2 88.66 L223 90.46 L223.7 92.31 L224.2 94.22 L224.6 96.16 L224.8 98.13 L224.9 100.1 Z " />
<path stroke="rgb(0,0,0)" stroke-opacity="1" fill="rgb(255,255,255)" fill-opacity="1" d="M124.2 -75.55 L122.3 -75.55 L120.3 -75.56 L118.3 -75.57 L116.3 -75.58 L114.3 -75.59 L112.3 -75.6 L110.3 -75.6 L108.3 -75.61 L106.4 -75.62 L104.4 -75.63 L102.4 -75.64 L100.4 -75.65 L98.41 -75.66 L96.42 -75.66 L94.44 -75.67 L92.45 -75.68 L90.46 -75.69 L88.48 -75.7 L86.49 -75.71 L84.5 -75.72 L82.52 -75.72 L80.53 -75.73 L78.54 -75.74 L76.55 -75.75 L74.57 -75.76 L74.58 -77.75 L74.58 -79.73 L74.59 -81.72 L74.6 -83.71 L74.61 -85.69 L74.62 -87.68 L74.63 -89.67 L74.64 -91.66 L74.64 -93.64 L74.65 -95.63 L74.66 -97.62 L74.67 -99.6 L74.68 -101.6 L74.69 -103.6 L74.7 -105.6 L74.7 -107.6 L74.71 -109.5 L74.72 -111.5 L74.73 -113.5 L74.74 -115.5 L74.75 -117.5 L74.75 -119.5 L74.76 -121.5 L74.77 -123.4 L74.78 -125.4 L76.77 -125.4 L78.75 -125.4 L80.74 -125.4 L82.73 -125.4 L84.72 -125.4 L86.7 -125.4 L88.69 -125.4 L90.68 -125.4 L92.66 -125.4 L94.65 -125.3 L96.64 -125.3 L98.63 -125.3 L100.6 -125.3 L102.6 -125.3 L104.6 -125.3 L106.6 -125.3 L108.6 -125.3 L110.5 -125.3 L112.5 -125.3 L114.5 -125.3 L116.5 -125.3 L118.5 -125.2 L120.5 -125.2 L122.5 -125.2 L124.5 -125.2 L124.4 -123.2 L124.4 -121.2 L124.4 -119.3 L124.4 -117.3 L124.4 -115.3 L124.4 -113.3 L124.4 -111.3 L124.4 -109.3 L124.4 -107.3 L124.4 -105.4 L124.4 -103.4 L124.4 -101.4 L124.3 -99.39 L124.3 -97.4 L124.3 -95.42 L124.3 -93.43 L124.3 -91.44 L124.3 -89.45 L124.3 -87.47 L124.3 -85.48 L124.3 -83.49 L124.3 -81.51 L124.3 -79.52 L124.3 -77.53 L124.2 -75.55 Z " />
<path stroke="rgb(0,0,0)" stroke-opacity="0.325" fill="rgb(255,255,255)" fill-opacity="1" d="M-275.1 200.1 L-275.2 202.1 L-275.4 204.1 L-275.8 206 L-276.4 207.9 L-277.1 209.7 L-277.9 211.5 L-278.9 213.2 L-280 214.9 L-281.3 216.4 L-282.6 217.9 L-284.1 219.2 L-285.7 220.4 L-287.4 221.5 L-289.1 222.4 L-290.9 223.2 L-292.8 223.8 L-294.7 224.3 L-296.7 224.7 L-298.6 224.9 L-300.6 224.9 L-302.6 224.8 L-304.5 224.5 L-306.5 224 L-308.4 223.5 L-310.2 222.7 L-312 221.8 L-313.7 220.8 L-315.3 219.7 L-316.8 218.4 L-318.2 217 L-319.5 215.5 L-320.7 213.9 L-321.7 212.2 L-322.6 210.4 L-323.4 208.6 L-324 206.7 L-324.4 204.8 L-324.7 202.9 L-324.9 200.9 L-324.9 198.9 L-324.7 196.9 L-324.4 195 L-323.9 193.1 L-323.3 191.2 L-322.5 189.4 L-321.6 187.6 L-320.5 185.9 L-319.4 184.3 L-318 182.8 L-316.6 181.5 L-315.1 180.2 L-313.5 179.1 L-311.8 178.1 L-310 177.2 L-308.2 176.5 L-306.3 175.9 L-304.3 175.5 L-302.4 175.2 L-300.4 175.1 L-298.4 175.1 L-296.4 175.4 L-294.5 175.7 L-292.6 176.2 L-290.7 176.9 L-288.9 177.7 L-287.2 178.7 L-285.5 179.7 L-284 181 L-282.5 182.3 L-281.1 183.7 L-279.9 185.3 L-278.8 186.9 L-277.8 188.7 L-277 190.5 L-276.3 192.3 L-275.8 194.2 L-275.4 196.2 L-275.2 198.1 L-275.1 200.1 Z " />
<path stroke="rgb(0,0,0)" stroke-opacity="1" fill="rgb(255,255,255)" fill-opacity="1" d="M-374.7 21.3 L-376.6 21.46 L-378.5 21.62 L-380.4 21.79 L-382.3 21.95 L-384.2 22.11 L-386.1 22.27 L-388 22.44 L-389.9 22.6 L-391.8 22.76 L-393.7 22.92 L-395.6 23.09 L-397.5 23.25 L-399.4 23.41 L-401.3 23.57 L-403.2 23.74 L-405.1 23.9 L-407 24.06 L-408.9 24.22 L-410.8 24.39 L-412.7 24.55 L-414.6 24.71 L-416.5 24.87 L-418.5 25.04 L-420.4 25.2 L-422.3 25.36 L-422.4 23.46 L-422.6 21.55 L-422.7 19.65 L-422.9 17.75 L-423.1 15.85 L-423.2 13.94 L-423.4 12.04 L-423.6 10.14 L-423.7 8.233 L-423.9 6.33 L-424 4.427 L-424.2 2.524 L-424.4 0.6205 L-424.5 -1.283 L-424.7 -3.186 L-424.9 -5.089 L-425 -6.992 L-425.2 -8.895 L-425.3 -10.8 L-425.5 -12.7 L-425.7 -14.6 L-425.8 -16.51 L-426 -18.41 L-426.2 -20.31 L-426.3 -22.22 L-424.4 -22.38 L-422.5 -22.54 L-420.6 -22.7 L-418.7 -22.87 L-416.8 -23.03 L-414.9 -23.19 L-413 -23.35 L-411.1 -23.52 L-409.2 -23.68 L-407.3 -23.84 L-405.4 -24 L-403.5 -24.17 L-401.6 -24.33 L-399.7 -24.49 L-397.8 -24.65 L-395.9 -24.82 L-394 -24.98 L-392.1 -25.14 L-390.2 -25.3 L-388.3 -25.47 L-386.4 -25.63 L-384.5 -25.79 L-382.5 -25.95 L-380.6 -26.12 L-378.7 -26.28 L-378.6 -24.37 L-378.4 -22.47 L-378.3 -20.57 L-378.1 -18.67 L-377.9 -16.76 L-377.8 -14.86 L-377.6 -12.96 L-377.4 -11.05 L-377.3 -9.15 L-377.1 -7.247 L-377 -5.344 L-376.8 -3.441 L-376.6 -1.538 L-376.5 0.3653 L-376.3 2.268 L-376.1 4.171 L-376 6.075 L-375.8 7.978 L-375.7 9.881 L-375.5 11.78 L-375.3 13.69 L-375.2 15.59 L-375 17.49 L-374.8 19.4 L-374.7 21.3 Z " />
<path stroke="rgb(0,0,0)" stroke-opacity="0.325" fill="rgb(255,255,255)" fill-opacity="1" d="M-75.1 200.1 L-75.19 202.1 L-75.43 204.1 L-75.83 206 L-76.38 207.9 L-77.08 209.7 L-77.93 211.5 L-78.92 213.2 L-80.04 214.9 L-81.28 216.4 L-82.65 217.9 L-84.12 219.2 L-85.69 220.4 L-87.36 221.5 L-89.1 222.4 L-90.92 223.2 L-92.79 223.8 L-94.7 224.3 L-96.65 224.7 L-98.62 224.9 L-100.6 224.9 L-102.6 224.8 L-104.5 224.5 L-106.5 224 L-108.4 223.5 L-110.2 222.7 L-112 221.8 L-113.7 220.8 L-115.3 219.7 L-116.8 218.4 L-118.2 217 L-119.5 215.5 L-120.7 213.9 L-121.7 212.2 L-122.6 210.4 L-123.4 208.6 L-124 206.7 L-124.4 204.8 L-124.7 202.9 L-124.9 200.9 L-124.9 198.9 L-124.7 196.9 L-124.4 195 L-123.9 193.1 L-123.3 191.2 L-122.5 189.4 L-121.6 187.6 L-120.5 185.9 L-119.4 184.3 L-118 182.8 L-116.6 181.5 L-115.1 180.2 L-113.5 179.1 L-111.8 178.1 L-110 177.2 L-108.2 176.5 L-106.3 175.9 L-104.3 175.5 L-102.4 175.2 L-100.4 175.1 L-98.41 175.1 L-96.44 175.4 L-94.49 175.7 L-92.58 176.2 L-90.71 176.9 L-88.91 177.7 L-87.17 178.7 L-85.52 179.7 L-83.95 181 L-82.49 182.3 L-81.14 183.7 L-79.91 185.3 L-78.8 186.9 L-77.83 188.7 L-77 190.5 L-76.31 192.3 L-75.78 194.2 L-75.4 196.2 L-75.17 198.1 L-75.1 200.1 Z " />
<path stroke="rgb(0,0,0)" stroke-opacity="1" fill="rgb(255,255,255)" fill-opacity="1" d="M-175.7 24.41 L-177.7 24.4 L-179.7 24.39 L-181.7 24.39 L-183.7 24.38 L-185.7 24.38 L-187.7 24.37 L-189.6 24.36 L-191.6 24.36 L-193.6 24.35 L-195.6 24.35 L-197.6 24.34 L-199.6 24.34 L-201.6 24.33 L-203.5 24.32 L-205.5 24.32 L-207.5 24.31 L-209.5 24.31 L-211.5 24.3 L-213.5 24.3 L-215.5 24.29 L-217.4 24.28 L-219.4 24.28 L-221.4 24.27 L-223.4 24.27 L-225.4 24.26 L-225.4 22.28 L-225.4 20.29 L-225.4 18.3 L-225.4 16.32 L-225.4 14.33 L-225.3 12.35 L-225.3 10.36 L-225.3 8.375 L-225.3 6.389 L-225.3 4.403 L-225.3 2.417 L-225.3 0.4312 L-225.3 -1.555 L-225.3 -3.54 L-225.3 -5.526 L-225.3 -7.512 L-225.3 -9.498 L-225.3 -11.48 L-225.3 -13.47 L-225.3 -15.46 L-225.3 -17.44 L-225.3 -19.43 L-225.3 -21.41 L-225.2 -23.4 L-225.2 -25.38 L-223.3 -25.38 L-221.3 -25.37 L-219.3 -25.37 L-217.3 -25.36 L-215.3 -25.36 L-213.3 -25.35 L-211.3 -25.34 L-209.4 -25.34 L-207.4 -25.33 L-205.4 -25.33 L-203.4 -25.32 L-201.4 -25.32 L-199.4 -25.31 L-197.4 -25.3 L-195.5 -25.3 L-193.5 -25.29 L-191.5 -25.29 L-189.5 -25.28 L-187.5 -25.28 L-185.5 -25.27 L-183.5 -25.26 L-181.6 -25.26 L-179.6 -25.25 L-177.6 -25.25 L-175.6 -25.24 L-175.6 -23.25 L-175.6 -21.27 L-175.6 -19.28 L-175.6 -17.3 L-175.6 -15.31 L-175.6 -13.33 L-175.6 -11.34 L-175.6 -9.354 L-175.6 -7.368 L-175.7 -5.382 L-175.7 -3.396 L-175.7 -1.411 L-175.7 0.5752 L-175.7 2.561 L-175.7 4.547 L-175.7 6.533 L-175.7 8.519 L-175.7 10.5 L-175.7 12.49 L-175.7 14.48 L-175.7 16.46 L-175.7 18.45 L-175.7 20.43 L-175.7 22.42 L-175.7 24.41 Z " />
<path stroke="rgb(0,0,0)" stroke-opacity="0.325" fill="rgb(255,255,255)" fill-opacity="1" d="M124.9 200.1 L124.8 202.1 L124.6 204.1 L124.2 206 L123.6 207.9 L122.9 209.7 L122.1 211.5 L121.1 213.2 L120 214.9 L118.7 216.4 L117.4 217.9 L115.9 219.2 L114.3 220.4 L112.6 221.5 L110.9 222.4 L109.1 223.2 L107.2 223.8 L105.3 224.3 L103.3 224.7 L101.4 224.9 L99.4 224.9 L97.42 224.8 L95.46 224.5 L93.53 224 L91.64 223.5 L89.8 222.7 L88.03 221.8 L86.33 220.8 L84.72 219.7 L83.21 218.4 L81.8 217 L80.51 215.5 L79.34 213.9 L78.3 212.2 L77.4 210.4 L76.64 208.6 L76.03 206.7 L75.57 204.8 L75.27 202.9 L75.12 200.9 L75.13 198.9 L75.29 196.9 L75.61 195 L76.09 193.1 L76.72 191.2 L77.49 189.4 L78.41 187.6 L79.46 185.9 L80.65 184.3 L81.95 182.8 L83.37 181.5 L84.9 180.2 L86.52 179.1 L88.22 178.1 L90 177.2 L91.85 176.5 L93.74 175.9 L95.68 175.5 L97.64 175.2 L99.61 175.1 L101.6 175.1 L103.6 175.4 L105.5 175.7 L107.4 176.2 L109.3 176.9 L111.1 177.7 L112.8 178.7 L114.5 179.7 L116 181 L117.5 182.3 L118.9 183.7 L120.1 185.3 L121.2 186.9 L122.2 188.7 L123 190.5 L123.7 192.3 L124.2 194.2 L124.6 196.2 L124.8 198.1 L124.9 200.1 Z " />
<path stroke="rgb(0,0,0)" stroke-opacity="1" fill="rgb(255,255,255)" fill-opacity="1" d="M24.24 24.45 L22.26 24.45 L20.27 24.44 L18.28 24.43 L16.3 24.42 L14.31 24.41 L12.32 24.4 L10.33 24.4 L8.347 24.39 L6.36 24.38 L4.373 24.37 L2.386 24.36 L0.3987 24.35 L-1.588 24.34 L-3.575 24.34 L-5.562 24.33 L-7.55 24.32 L-9.537 24.31 L-11.52 24.3 L-13.51 24.29 L-15.5 24.28 L-17.48 24.28 L-19.47 24.27 L-21.46 24.26 L-23.45 24.25 L-25.43 24.24 L-25.42 22.25 L-25.42 20.27 L-25.41 18.28 L-25.4 16.29 L-25.39 14.31 L-25.38 12.32 L-25.37 10.33 L-25.36 8.345 L-25.36 6.358 L-25.35 4.371 L-25.34 2.384 L-25.33 0.3966 L-25.32 -1.59 L-25.31 -3.578 L-25.3 -5.565 L-25.3 -7.552 L-25.29 -9.539 L-25.28 -11.53 L-25.27 -13.51 L-25.26 -15.5 L-25.25 -17.49 L-25.25 -19.47 L-25.24 -21.46 L-25.23 -23.45 L-25.22 -25.44 L-23.23 -25.43 L-21.25 -25.42 L-19.26 -25.41 L-17.27 -25.4 L-15.28 -25.39 L-13.3 -25.38 L-11.31 -25.38 L-9.323 -25.37 L-7.336 -25.36 L-5.349 -25.35 L-3.362 -25.34 L-1.375 -25.33 L0.6122 -25.32 L2.599 -25.32 L4.586 -25.31 L6.573 -25.3 L8.56 -25.29 L10.55 -25.28 L12.53 -25.27 L14.52 -25.26 L16.51 -25.26 L18.5 -25.25 L20.48 -25.24 L22.47 -25.23 L24.46 -25.22 L24.45 -23.23 L24.44 -21.25 L24.43 -19.26 L24.42 -17.27 L24.41 -15.29 L24.41 -13.3 L24.4 -11.31 L24.39 -9.325 L24.38 -7.338 L24.37 -5.351 L24.36 -3.364 L24.35 -1.377 L24.35 0.6101 L24.34 2.597 L24.33 4.584 L24.32 6.571 L24.31 8.558 L24.3 10.55 L24.29 12.53 L24.29 14.52 L24.28 16.51 L24.27 18.49 L24.26 20.48 L24.25 22.47 L24.24 24.45 Z " />
<path stroke="rgb(0,0,0)" stroke-opacity="0.325" fill="rgb(255,255,255)" fill-opacity="1" d="M324.9 200.1 L324.8 202.1 L324.6 204.1 L324.2 206 L323.6 207.9 L322.9 209.7 L322.1 211.5 L321.1 213.2 L320 214.9 L318.7 216.4 L317.4 217.9 L315.9 219.2 L314.3 220.4 L312.6 221.5 L310.9 222.4 L309.1 223.2 L307.2 223.8 L305.3 224.3 L303.3 224.7 L301.4 224.9 L299.4 224.9 L297.4 224.8 L295.5 224.5 L293.5 224 L291.6 223.5 L289.8 222.7 L288 221.8 L286.3 220.8 L284.7 219.7 L283.2 218.4 L281.8 217 L280.5 215.5 L279.3 213.9 L278.3 212.2 L277.4 210.4 L276.6 208.6 L276 206.7 L275.6 204.8 L275.3 202.9 L275.1 200.9 L275.1 198.9 L275.3 196.9 L275.6 195 L276.1 193.1 L276.7 191.2 L277.5 189.4 L278.4 187.6 L279.5 185.9 L280.6 184.3 L282 182.8 L283.4 181.5 L284.9 180.2 L286.5 179.1 L288.2 178.1 L290 177.2 L291.8 176.5 L293.7 175.9 L295.7 175.5 L297.6 175.2 L299.6 175.1 L301.6 175.1 L303.6 175.4 L305.5 175.7 L307.4 176.2 L309.3 176.9 L311.1 177.7 L312.8 178.7 L314.5 179.7 L316 181 L317.5 182.3 L318.9 183.7 L320.1 185.3 L321.2 186.9 L322.2 188.7 L323 190.5 L323.7 192.3 L324.2 194.2 L324.6 196.2 L324.8 198.1 L324.9 200.1 Z " />
<path stroke="rgb(0,0,0)" stroke-opacity="1" fill="rgb(255,255,255)" fill-opacity="1" d="M-474.7 121.3 L-476.6 121.5 L-478.5 121.6 L-480.4 121.8 L-482.3 121.9 L-484.2 122.1 L-486.1 122.3 L-488 122.4 L-489.9 122.6 L-491.8 122.8 L-493.7 122.9 L-495.6 123.1 L-497.5 123.2 L-499.4 123.4 L-501.3 123.6 L-503.2 123.7 L-505.1 123.9 L-507 124.1 L-508.9 124.2 L-510.8 124.4 L-512.7 124.5 L-514.6 124.7 L-516.5 124.9 L-518.5 125 L-520.4 125.2 L-522.3 125.4 L-522.4 123.5 L-522.6 121.6 L-522.7 119.7 L-522.9 117.7 L-523.1 115.8 L-523.2 113.9 L-523.4 112 L-523.6 110.1 L-523.7 108.2 L-523.9 106.3 L-524 104.4 L-524.2 102.5 L-524.4 100.6 L-524.5 98.72 L-524.7 96.81 L-524.9 94.91 L-525 93.01 L-525.2 91.11 L-525.3 89.2 L-525.5 87.3 L-525.7 85.4 L-525.8 83.49 L-526 81.59 L-526.2 79.69 L-526.3 77.78 L-524.4 77.62 L-522.5 77.46 L-520.6 77.3 L-518.7 77.13 L-516.8 76.97 L-514.9 76.81 L-513 76.65 L-511.1 76.48 L-509.2 76.32 L-507.3 76.16 L-505.4 76 L-503.5 75.83 L-501.6 75.67 L-499.7 75.51 L-497.8 75.35 L-495.9 75.18 L-494 75.02 L-492.1 74.86 L-490.2 74.7 L-488.3 74.53 L-486.4 74.37 L-484.5 74.21 L-482.5 74.05 L-480.6 73.88 L-478.7 73.72 L-478.6 75.63 L-478.4 77.53 L-478.3 79.43 L-478.1 81.33 L-477.9 83.24 L-477.8 85.14 L-477.6 87.04 L-477.4 88.95 L-477.3 90.85 L-477.1 92.75 L-477 94.66 L-476.8 96.56 L-476.6 98.46 L-476.5 100.4 L-476.3 102.3 L-476.1 104.2 L-476 106.1 L-475.8 108 L-475.7 109.9 L-475.5 111.8 L-475.3 113.7 L-475.2 115.6 L-475 117.5 L-474.8 119.4 L-474.7 121.3 Z " />
<path stroke="rgb(0,0,0)" stroke-opacity="0.325" fill="rgb(255,255,255)" fill-opacity="1" d="M-175.1 300.1 L-175.2 302.1 L-175.4 304.1 L-175.8 306 L-176.4 307.9 L-177.1 309.7 L-177.9 311.5 L-178.9 313.2 L-180 314.9 L-181.3 316.4 L-182.6 317.9 L-184.1 319.2 L-185.7 320.4 L-187.4 321.5 L-189.1 322.4 L-190.9 323.2 L-192.8 323.8 L-194.7 324.3 L-196.7 324.7 L-198.6 324.9 L-200.6 324.9 L-202.6 324.8 L-204.5 324.5 L-206.5 324 L-208.4 323.5 L-210.2 322.7 L-212 321.8 L-213.7 320.8 L-215.3 319.7 L-216.8 318.4 L-218.2 317 L-219.5 315.5 L-220.7 313.9 L-221.7 312.2 L-222.6 310.4 L-223.4 308.6 L-224 306.7 L-224.4 304.8 L-224.7 302.9 L-224.9 300.9 L-224.9 298.9 L-224.7 296.9 L-224.4 295 L-223.9 293.1 L-223.3 291.2 L-222.5 289.4 L-221.6 287.6 L-220.5 285.9 L-219.4 284.3 L-218 282.8 L-216.6 281.5 L-215.1 280.2 L-213.5 279.1 L-211.8 278.1 L-210 277.2 L-208.2 276.5 L-206.3 275.9 L-204.3 275.5 L-202.4 275.2 L-200.4 275.1 L-198.4 275.1 L-196.4 275.4 L-194.5 275.7 L-192.6 276.2 L-190.7 276.9 L-188.9 277.7 L-187.2 278.7 L-185.5 279.7 L-184 281 L-182.5 282.3 L-181.1 283.7 L-179.9 285.3 L-178.8 286.9 L-177.8 288.7 L-177 290.5 L-176.3 292.3 L-175.8 294.2 L-175.4 296.2 L-175.2 298.1 L-175.1 300.1 Z " />
<path stroke="rgb(0,0,0)" stroke-opacity="1" fill="rgb(255,255,255)" fill-opacity="1" d="M-275.7 124.4 L-277.7 124.4 L-279.7 124.4 L-281.7 124.4 L-283.7 124.4 L-285.7 124.4 L-287.7 124.4 L-289.6 124.4 L-291.6 124.4 L-293.6 124.4 L-295.6 124.3 L-297.6 124.3 L-299.6 124.3 L-301.6 124.3 L-303.5 124.3 L-305.5 124.3 L-307.5 124.3 L-309.5 124.3 L-311.5 124.3 L-313.5 124.3 L-315.5 124.3 L-317.4 124.3 L-319.4 124.3 L-321.4 124.3 L-323.4 124.3 L-325.4 124.3 L-325.4 122.3 L-325.4 120.3 L-325.4 118.3 L-325.4 116.3 L-325.4 114.3 L-325.3 112.3 L-325.3 110.4 L-325.3 108.4 L-325.3 106.4 L-325.3 104.4 L-325.3 102.4 L-325.3 100.4 L-325.3 98.45 L-325.3 96.46 L-325.3 94.47 L-325.3 92.49 L-325.3 90.5 L-325.3 88.52 L-325.3 86.53 L-325.3 84.54 L-325.3 82.56 L-325.3 80.57 L-325.3 78.59 L-325.2 76.6 L-325.2 74.62 L-323.3 74.62 L-321.3 74.63 L-319.3 74.63 L-317.3 74.64 L-315.3 74.64 L-313.3 74.65 L-311.3 74.66 L-309.4 74.66 L-307.4 74.67 L-305.4 74.67 L-303.4 74.68 L-301.4 74.68 L-299.4 74.69 L-297.4 74.7 L-295.5 74.7 L-293.5 74.71 L-291.5 74.71 L-289.5 74.72 L-287.5 74.72 L-285.5 74.73 L-283.5 74.74 L-281.6 74.74 L-279.6 74.75 L-277.6 74.75 L-275.6 74.76 L-275.6 76.75 L-275.6 78.73 L-275.6 80.72 L-275.6 82.7 L-275.6 84.69 L-275.6 86.67 L-275.6 88.66 L-275.6 90.65 L-275.6 92.63 L-275.7 94.62 L-275.7 96.6 L-275.7 98.59 L-275.7 100.6 L-275.7 102.6 L-275.7 104.5 L-275.7 106.5 L-275.7 108.5 L-275.7 110.5 L-275.7 112.5 L-275.7 114.5 L-275.7 116.5 L-275.7 118.4 L-275.7 120.4 L-275.7 122.4 L-275.7 124.4 Z " />
<path stroke="rgb(0,0,0)" stroke-opacity="0.325" fill="rgb(255,255,255)" fill-opacity="1" d="M24.9 300.1 L24.81 302.1 L24.57 304.1 L24.17 306 L23.62 307.9 L22.92 309.7 L22.07 311.5 L21.08 313.2 L19.96 314.9 L18.72 316.4 L17.35 317.9 L15.88 319.2 L14.31 320.4 L12.64 321.5 L10.9 322.4 L9.085 323.2 L7.214 323.8 L5.298 324.3 L3.348 324.7 L1.377 324.9 L-0.6025 324.9 L-2.578 324.8 L-4.538 324.5 L-6.469 324 L-8.359 323.5 L-10.2 322.7 L-11.97 321.8 L-13.67 320.8 L-15.28 319.7 L-16.79 318.4 L-18.2 317 L-19.49 315.5 L-20.66 313.9 L-21.7 312.2 L-22.6 310.4 L-23.36 308.6 L-23.97 306.7 L-24.43 304.8 L-24.73 302.9 L-24.88 300.9 L-24.87 298.9 L-24.71 296.9 L-24.39 295 L-23.91 293.1 L-23.28 291.2 L-22.51 289.4 L-21.59 287.6 L-20.54 285.9 L-19.35 284.3 L-18.05 282.8 L-16.63 281.5 L-15.1 280.2 L-13.48 279.1 L-11.78 278.1 L-9.997 277.2 L-8.153 276.5 L-6.258 275.9 L-4.324 275.5 L-2.362 275.2 L-0.3851 275.1 L1.594 275.1 L3.563 275.4 L5.51 275.7 L7.422 276.2 L9.287 276.9 L11.09 277.7 L12.83 278.7 L14.48 279.7 L16.05 281 L17.51 282.3 L18.86 283.7 L20.09 285.3 L21.2 286.9 L22.17 288.7 L23 290.5 L23.69 292.3 L24.22 294.2 L24.6 296.2 L24.83 298.1 L24.9 300.1 Z " />
<path stroke="rgb(0,0,0)" stroke-opacity="1" fill="rgb(255,255,255)" fill-opacity="1" d="M-75.76 124.5 L-77.74 124.4 L-79.73 124.4 L-81.72 124.4 L-83.7 124.4 L-85.69 124.4 L-87.68 124.4 L-89.67 124.4 L-91.65 124.4 L-93.64 124.4 L-95.63 124.4 L-97.61 124.4 L-99.6 124.4 L-101.6 124.3 L-103.6 124.3 L-105.6 124.3 L-107.5 124.3 L-109.5 124.3 L-111.5 124.3 L-113.5 124.3 L-115.5 124.3 L-117.5 124.3 L-119.5 124.3 L-121.5 124.3 L-123.4 124.2 L-125.4 124.2 L-125.4 122.3 L-125.4 120.3 L-125.4 118.3 L-125.4 116.3 L-125.4 114.3 L-125.4 112.3 L-125.4 110.3 L-125.4 108.3 L-125.4 106.4 L-125.3 104.4 L-125.3 102.4 L-125.3 100.4 L-125.3 98.41 L-125.3 96.42 L-125.3 94.44 L-125.3 92.45 L-125.3 90.46 L-125.3 88.47 L-125.3 86.49 L-125.3 84.5 L-125.3 82.51 L-125.2 80.53 L-125.2 78.54 L-125.2 76.55 L-125.2 74.56 L-123.2 74.57 L-121.2 74.58 L-119.3 74.59 L-117.3 74.6 L-115.3 74.61 L-113.3 74.62 L-111.3 74.62 L-109.3 74.63 L-107.3 74.64 L-105.3 74.65 L-103.4 74.66 L-101.4 74.67 L-99.39 74.68 L-97.4 74.68 L-95.41 74.69 L-93.43 74.7 L-91.44 74.71 L-89.45 74.72 L-87.47 74.73 L-85.48 74.74 L-83.49 74.74 L-81.5 74.75 L-79.52 74.76 L-77.53 74.77 L-75.54 74.78 L-75.55 76.77 L-75.56 78.75 L-75.57 80.74 L-75.58 82.73 L-75.59 84.71 L-75.59 86.7 L-75.6 88.69 L-75.61 90.67 L-75.62 92.66 L-75.63 94.65 L-75.64 96.64 L-75.65 98.62 L-75.65 100.6 L-75.66 102.6 L-75.67 104.6 L-75.68 106.6 L-75.69 108.6 L-75.7 110.5 L-75.71 112.5 L-75.71 114.5 L-75.72 116.5 L-75.73 118.5 L-75.74 120.5 L-75.75 122.5 L-75.76 124.5 Z " />
<path stroke="rgb(0,0,0)" stroke-opacity="0.325" fill="rgb(255,255,255)" fill-opacity="1" d="M224.9 300.1 L224.8 302.1 L224.6 304.1 L224.2 306 L223.6 307.9 L222.9 309.7 L222.1 311.5 L221.1 313.2 L220 314.9 L218.7 316.4 L217.4 317.9 L215.9 319.2 L214.3 320.4 L212.6 321.5 L210.9 322.4 L209.1 323.2 L207.2 323.8 L205.3 324.3 L203.3 324.7 L201.4 324.9 L199.4 324.9 L197.4 324.8 L195.5 324.5 L193.5 324 L191.6 323.5 L189.8 322.7 L188 321.8 L186.3 320.8 L184.7 319.7 L183.2 318.4 L181.8 317 L180.5 315.5 L179.3 313.9 L178.3 312.2 L177.4 310.4 L176.6 308.6 L176 306.7 L175.6 304.8 L175.3 302.9 L175.1 300.9 L175.1 298.9 L175.3 296.9 L175.6 295 L176.1 293.1 L176.7 291.2 L177.5 289.4 L178.4 287.6 L179.5 285.9 L180.6 284.3 L182 282.8 L183.4 281.5 L184.9 280.2 L186.5 279.1 L188.2 278.1 L190 277.2 L191.8 276.5 L193.7 275.9 L195.7 275.5 L197.6 275.2 L199.6 275.1 L201.6 275.1 L203.6 275.4 L205.5 275.7 L207.4 276.2 L209.3 276.9 L211.1 277.7 L212.8 278.7 L214.5 279.7 L216 281 L217.5 282.3 L218.9 283.7 L220.1 285.3 L221.2 286.9 L222.2 288.7 L223 290.5 L223.7 292.3 L224.2 294.2 L224.6 296.2 L224.8 298.1 L224.9 300.1 Z " />
<path stroke="rgb(0,0,0)" stroke-opacity="1" fill="rgb(255,255,255)" fill-opacity="1" d="M124.2 124.5 L122.3 124.4 L120.3 124.4 L118.3 124.4 L116.3 124.4 L114.3 124.4 L112.3 124.4 L110.3 124.4 L108.3 124.4 L106.4 124.4 L104.4 124.4 L102.4 124.4 L100.4 124.4 L98.41 124.3 L96.42 124.3 L94.44 124.3 L92.45 124.3 L90.46 124.3 L88.48 124.3 L86.49 124.3 L84.5 124.3 L82.52 124.3 L80.53 124.3 L78.54 124.3 L76.55 124.2 L74.57 124.2 L74.58 122.3 L74.58 120.3 L74.59 118.3 L74.6 116.3 L74.61 114.3 L74.62 112.3 L74.63 110.3 L74.64 108.3 L74.64 106.4 L74.65 104.4 L74.66 102.4 L74.67 100.4 L74.68 98.41 L74.69 96.42 L74.7 94.44 L74.7 92.45 L74.71 90.46 L74.72 88.47 L74.73 86.49 L74.74 84.5 L74.75 82.51 L74.75 80.53 L74.76 78.54 L74.77 76.55 L74.78 74.56 L76.77 74.57 L78.75 74.58 L80.74 74.59 L82.73 74.6 L84.72 74.61 L86.7 74.62 L88.69 74.62 L90.68 74.63 L92.66 74.64 L94.65 74.65 L96.64 74.66 L98.63 74.67 L100.6 74.68 L102.6 74.68 L104.6 74.69 L106.6 74.7 L108.6 74.71 L110.5 74.72 L112.5 74.73 L114.5 74.74 L116.5 74.74 L118.5 74.75 L120.5 74.76 L122.5 74.77 L124.5 74.78 L124.4 76.77 L124.4 78.75 L124.4 80.74 L124.4 82.73 L124.4 84.71 L124.4 86.7 L124.4 88.69 L124.4 90.67 L124.4 92.66 L124.4 94.65 L124.4 96.64 L124.4 98.62 L124.3 100.6 L124.3 102.6 L124.3 104.6 L124.3 106.6 L124.3 108.6 L124.3 110.5 L124.3 112.5 L124.3 114.5 L124.3 116.5 L124.3 118.5 L124.3 120.5 L124.3 122.5 L124.2 124.5 Z " />
</g>
</g>
</svg>
