<!DOCTYPE svg>
<svg xmlns="http://www.w3.org/2000/svg" xmlns:xlink="http://www.w3.org/1999/xlink" width="560" height="560">
<g transform="translate(280.000000,280.000000)">
<g transform="scale(3.000000,3.000000)">
<path stroke="rgb(0,0,0)" stroke-opacity="1" fill="rgb(255,255,255)" fill-opacity="1" d="M-312.6 -288.3 L-312.6 -289.2 L-312.6 -290.2 L-312.6 -291.2 L-312.6 -292.2 L-312.6 -293.2 L-312.5 -294.2 L-312.5 -295.2 L-312.5 -296.1 L-312.5 -297.1 L-312.5 -298.1 L-312.5 -299.1 L-312.4 -300.1 L-312.4 -301.1 L-312.4 -302.1 L-312.4 -303 L-312.4 -304 L-312.4 -305 L-312.3 -306 L-312.3 -307 L-312.3 -308 L-312.3 -309 L-312.3 -309.9 L-312.3 -310.9 L-312.2 -311.9 L-312.2 -312.9 L-311.2 -312.9 L-310.3 -312.9 L-309.3 -312.8 L-308.3 -312.8 L-307.3 -312.8 L-306.3 -312.8 L-305.3 -312.8 L-304.3 -312.8 L-303.4 -312.7 L-302.4 -312.7 L-301.4 -312.7 L-300.4 -312.7 L-299.4 -312.7 L-298.4 -312.7 L-297.5 -312.6 L-296.5 -312.6 L-295.5 -312.6 L-294.5 -312.6 L-293.5 -312.6 L-292.5 -312.6 L-291.5 -312.5 L-290.6 -312.5 L-289.6 -312.5 L-288.6 -312.5 L-287.6 -312.5 L-287.6 -311.5 L-287.6 -310.5 L-287.6 -309.5 L-287.7 -308.5 L-287.7 -307.5 L-287.7 -306.6 L-287.7 -305.6 L-287.7 -304.6 L-287.7 -303.6 L-287.8 -302.6 L-287.8 -301.6 L-287.8 -300.7 L-287.8 -299.7 L-287.8 -298.7 L-287.8 -297.7 L-287.9 -296.7 L-287.9 -295.7 L-287.9 -294.7 L-287.9 -293.8 L-287.9 -292.8 L-288 -291.8 L-288 -290.8 L-288 -289.8 L-288 -288.8 L-288 -287.8 L-289 -287.9 L-290 -287.9 L-291 -287.9 L-292 -287.9 L-292.9 -287.9 L-293.9 -287.9 L-294.9 -288 L-295.9 -288 L-296.9 -288 L-297.9 -288 L-298.9 -288 L-299.8 -288 L-300.8 -288.1 L-301.8 -288.1 L-302.8 -288.1 L-303.8 -288.1 L-304.8 -288.1 L-305.8 -288.1 L-306.7 -288.2 L-307.7 -288.2 L-308.7 -288.2 L-309.7 -288.2 L-310.7 -288.2 L-311.7 -288.2 L-312.6 -288.3 Z " />
<path stroke="rgb(0,0,0)" stroke-opacity="1" fill="rgb(255,255,255)" fill-opacity="1" d="M-851.3 -999.2 L-851.5 -995.3 L-852 -991.5 L-852.8 -987.7 L-853.9 -983.9 L-855.3 -980.3 L-857 -976.8 L-859 -973.5 L-861.2 -970.3 L-863.7 -967.3 L-866.4 -964.5 L-869.3 -961.9 L-872.4 -959.6 L-875.7 -957.5 L-879.1 -955.7 L-882.7 -954.2 L-886.3 -953 L-890.1 -952 L-893.9 -951.4 L-897.8 -951 L-901.7 -951 L-905.6 -951.3 L-909.4 -951.9 L-913.2 -952.8 L-916.9 -954 L-920.5 -955.4 L-923.9 -957.2 L-927.2 -959.2 L-930.4 -961.5 L-933.3 -964 L-936.1 -966.8 L-938.6 -969.7 L-940.8 -972.9 L-942.8 -976.2 L-944.6 -979.7 L-946 -983.3 L-947.2 -987 L-948.1 -990.8 L-948.6 -994.6 L-948.9 -998.5 L-948.8 -1002 L-948.5 -1006 L-947.8 -1010 L-946.9 -1014 L-945.6 -1017 L-944.1 -1021 L-942.2 -1024 L-940.1 -1028 L-937.8 -1031 L-935.2 -1034 L-932.4 -1036 L-929.4 -1039 L-926.2 -1041 L-922.8 -1043 L-919.3 -1045 L-915.7 -1046 L-912 -1047 L-908.2 -1048 L-904.3 -1048 L-900.4 -1049 L-896.6 -1048 L-892.7 -1048 L-888.9 -1047 L-885.2 -1046 L-881.5 -1045 L-878 -1043 L-874.6 -1041 L-871.4 -1039 L-868.3 -1037 L-865.5 -1034 L-862.9 -1031 L-860.5 -1028 L-858.3 -1025 L-856.4 -1022 L-854.8 -1018 L-853.5 -1014 L-852.5 -1011 L-851.8 -1007 L-851.4 -1003 L-851.3 -999.2 Z " />
<path stroke="rgb(0,0,0)" stroke-opacity="1" fill="rgb(255,255,255)" fill-opacity="1" d="M-114.1 -288.9 L-114 -289.9 L-113.9 -291 L-113.8 -292 L-113.7 -293 L-113.6 -294 L-113.5 -295 L-113.4 -296.1 L-113.3 -297.1 L-113.2 -298.1 L-113.1 -299.1 L-113 -300.1 L-112.9 -301.1 L-112.8 -302.2 L-112.7 -303.2 L-112.6 -304.2 L-112.5 -305.2 L-112.4 -306.2 L-112.3 -307.2 L-112.2 -308.3 L-112.1 -309.3 L-111.9 -310.3 L-111.8 -311.3 L-111.7 -312.3 L-111.6 -313.4 L-111.5 -314.4 L-110.5 -314.3 L-109.5 -314.2 L-108.5 -314.1 L-107.5 -314 L-106.4 -313.9 L-105.4 -313.8 L-104.4 -313.6 L-103.4 -313.5 L-102.4 -313.4 L-101.4 -313.3 L-100.3 -313.2 L-99.33 -313.1 L-98.31 -313 L-97.29 -312.9 L-96.27 -312.8 L-95.26 -312.7 L-94.24 -312.6 L-93.22 -312.5 L-92.2 -312.4 L-91.19 -312.3 L-90.17 -312.2 L-89.15 -312.1 L-88.13 -312 L-87.12 -311.9 L-86.1 -311.8 L-86.2 -310.8 L-86.31 -309.8 L-86.41 -308.7 L-86.51 -307.7 L-86.62 -306.7 L-86.72 -305.7 L-86.82 -304.7 L-86.93 -303.6 L-87.03 -302.6 L-87.13 -301.6 L-87.24 -300.6 L-87.34 -299.6 L-87.44 -298.6 L-87.54 -297.5 L-87.65 -296.5 L-87.75 -295.5 L-87.85 -294.5 L-87.96 -293.5 L-88.06 -292.5 L-88.16 -291.4 L-88.27 -290.4 L-88.37 -289.4 L-88.47 -288.4 L-88.58 -287.4 L-88.68 -286.4 L-89.7 -286.5 L-90.72 -286.6 L-91.73 -286.7 L-92.75 -286.8 L-93.77 -286.9 L-94.79 -287 L-95.8 -287.1 L-96.82 -287.2 L-97.84 -287.3 L-98.86 -287.4 L-99.87 -287.5 L-100.9 -287.6 L-101.9 -287.7 L-102.9 -287.8 L-103.9 -287.9 L-105 -288 L-106 -288.1 L-107 -288.2 L-108 -288.3 L-109 -288.4 L-110 -288.5 L-111.1 -288.6 L-112.1 -288.7 L-113.1 -288.8 L-114.1 -288.9 Z " />
<path stroke="rgb(0,0,0)" stroke-opacity="1" fill="rgb(255,255,255)" fill-opacity="1" d="M-651.3 -999.2 L-651.5 -995.3 L-652 -991.5 L-652.8 -987.7 L-653.9 -983.9 L-655.3 -980.3 L-657 -976.8 L-659 -973.5 L-661.2 -970.3 L-663.7 -967.3 L-666.4 -964.5 L-669.3 -961.9 L-672.4 -959.6 L-675.7 -957.5 L-679.1 -955.7 L-682.7 -954.2 L-686.3 -953 L-690.1 -952 L-693.9 -951.4 L-697.8 -951 L-701.7 -951 L-705.6 -951.3 L-709.4 -951.9 L-713.2 -952.8 L-716.9 -954 L-720.5 -955.4 L-723.9 -957.2 L-727.2 -959.2 L-730.4 -961.5 L-733.3 -964 L-736.1 -966.8 L-738.6 -969.7 L-740.8 -972.9 L-742.8 -976.2 L-744.6 -979.7 L-746 -983.3 L-747.2 -987 L-748.1 -990.8 L-748.6 -994.6 L-748.9 -998.5 L-748.8 -1002 L-748.5 -1006 L-747.8 -1010 L-746.9 -1014 L-745.6 -1017 L-744.1 -1021 L-742.2 -1024 L-740.1 -1028 L-737.8 -1031 L-735.2 -1034 L-732.4 -1036 L-729.4 -1039 L-726.2 -1041 L-722.8 -1043 L-719.3 -1045 L-715.7 -1046 L-712 -1047 L-708.2 -1048 L-704.3 -1048 L-700.4 -1049 L-696.6 -1048 L-692.7 -1048 L-688.9 -1047 L-685.2 -1046 L-681.5 -1045 L-678 -1043 L-674.6 -1041 L-671.4 -1039 L-668.3 -1037 L-665.5 -1034 L-662.9 -1031 L-660.5 -1028 L-658.3 -1025 L-656.4 -1022 L-654.8 -1018 L-653.5 -1014 L-652.5 -1011 L-651.8 -1007 L-651.4 -1003 L-651.3 -999.2 Z " />
<path stroke="rgb(0,0,0)" stroke-opacity="1" fill="rgb(255,255,255)" fill-opacity="1" d="M74.37 -303.4 L75.52 -304.3 L76.67 -305.2 L77.82 -306.1 L78.98 -307 L80.13 -307.9 L81.28 -308.8 L82.43 -309.7 L83.58 -310.6 L84.74 -311.5 L85.89 -312.4 L87.04 -313.3 L88.19 -314.2 L89.34 -315.1 L90.5 -316 L91.65 -316.9 L92.8 -317.8 L93.95 -318.7 L95.1 -319.6 L96.26 -320.5 L97.41 -321.4 L98.56 -322.3 L99.71 -323.2 L100.9 -324.1 L102 -325 L103.2 -325.9 L104.1 -324.7 L105 -323.6 L105.9 -322.4 L106.8 -321.2 L107.7 -320.1 L108.6 -318.9 L109.5 -317.8 L110.4 -316.6 L111.3 -315.5 L112.2 -314.3 L113.1 -313.2 L114 -312 L114.9 -310.9 L115.8 -309.7 L116.7 -308.6 L117.6 -307.4 L118.5 -306.3 L119.4 -305.1 L120.2 -304 L121.1 -302.8 L122 -301.7 L122.9 -300.5 L123.8 -299.4 L124.7 -298.2 L125.6 -297.1 L124.5 -296.2 L123.3 -295.3 L122.2 -294.4 L121 -293.5 L119.9 -292.6 L118.7 -291.7 L117.6 -290.8 L116.4 -289.9 L115.3 -289 L114.1 -288.1 L113 -287.2 L111.8 -286.3 L110.7 -285.4 L109.5 -284.5 L108.4 -283.6 L107.2 -282.7 L106.1 -281.8 L104.9 -280.9 L103.8 -280 L102.6 -279.1 L101.5 -278.2 L100.3 -277.3 L99.15 -276.4 L98 -275.5 L96.84 -274.6 L95.95 -275.7 L95.05 -276.9 L94.15 -278 L93.25 -279.2 L92.35 -280.3 L91.45 -281.5 L90.55 -282.6 L89.65 -283.8 L88.75 -284.9 L87.85 -286.1 L86.96 -287.2 L86.06 -288.4 L85.16 -289.6 L84.26 -290.7 L83.36 -291.9 L82.46 -293 L81.56 -294.2 L80.66 -295.3 L79.76 -296.5 L78.86 -297.6 L77.96 -298.8 L77.07 -299.9 L76.17 -301.1 L75.27 -302.2 L74.37 -303.4 Z " />
<path stroke="rgb(0,0,0)" stroke-opacity="1" fill="rgb(255,255,255)" fill-opacity="1" d="M-451.3 -999.2 L-451.5 -995.3 L-452 -991.5 L-452.8 -987.7 L-453.9 -983.9 L-455.3 -980.3 L-457 -976.8 L-459 -973.5 L-461.2 -970.3 L-463.7 -967.3 L-466.4 -964.5 L-469.3 -961.9 L-472.4 -959.6 L-475.7 -957.5 L-479.1 -955.7 L-482.7 -954.2 L-486.3 -953 L-490.1 -952 L-493.9 -951.4 L-497.8 -951 L-501.7 -951 L-505.6 -951.3 L-509.4 -951.9 L-513.2 -952.8 L-516.9 -954 L-520.5 -955.4 L-523.9 -957.2 L-527.2 -959.2 L-530.4 -961.5 L-533.3 -964 L-536.1 -966.8 L-538.6 -969.7 L-540.8 -972.9 L-542.8 -976.2 L-544.6 -979.7 L-546 -983.3 L-547.2 -987 L-548.1 -990.8 L-548.6 -994.6 L-548.9 -998.5 L-548.8 -1002 L-548.5 -1006 L-547.8 -1010 L-546.9 -1014 L-545.6 -1017 L-544.1 -1021 L-542.2 -1024 L-540.1 -1028 L-537.8 -1031 L-535.2 -1034 L-532.4 -1036 L-529.4 -1039 L-526.2 -1041 L-522.8 -1043 L-519.3 -1045 L-515.7 -1046 L-512 -1047 L-508.2 -1048 L-504.3 -1048 L-500.4 -1049 L-496.6 -1048 L-492.7 -1048 L-488.9 -1047 L-485.2 -1046 L-481.5 -1045 L-478 -1043 L-474.6 -1041 L-471.4 -1039 L-468.3 -1037 L-465.5 -1034 L-462.9 -1031 L-460.5 -1028 L-458.3 -1025 L-456.4 -1022 L-454.8 -1018 L-453.5 -1014 L-452.5 -1011 L-451.8 -1007 L-451.4 -1003 L-451.3 -999.2 Z " />
<path stroke="rgb(0,0,0)" stroke-opacity="1" fill="rgb(255,255,255)" fill-opacity="1" d="M275.1 -323.5 L277.1 -323.6 L279 -323.6 L280.9 -323.7 L282.9 -323.7 L284.8 -323.8 L286.7 -323.8 L288.7 -323.9 L290.6 -323.9 L292.6 -324 L294.5 -324.1 L296.4 -324.1 L298.4 -324.2 L300.3 -324.2 L302.2 -324.3 L304.2 -324.3 L306.1 -324.4 L308 -324.4 L310 -324.5 L311.9 -324.5 L313.8 -324.6 L315.8 -324.7 L317.7 -324.7 L319.6 -324.8 L321.6 -324.8 L323.5 -324.9 L323.5 -322.9 L323.6 -321 L323.7 -319.1 L323.7 -317.1 L323.8 -315.2 L323.8 -313.3 L323.9 -311.3 L323.9 -309.4 L324 -307.5 L324 -305.5 L324.1 -303.6 L324.1 -301.7 L324.2 -299.7 L324.3 -297.8 L324.3 -295.9 L324.4 -293.9 L324.4 -292 L324.5 -290.1 L324.5 -288.1 L324.6 -286.2 L324.6 -284.3 L324.7 -282.3 L324.7 -280.4 L324.8 -278.5 L324.9 -276.5 L322.9 -276.5 L321 -276.4 L319.1 -276.4 L317.1 -276.3 L315.2 -276.2 L313.2 -276.2 L311.3 -276.1 L309.4 -276.1 L307.4 -276 L305.5 -276 L303.6 -275.9 L301.6 -275.9 L299.7 -275.8 L297.8 -275.8 L295.8 -275.7 L293.9 -275.7 L292 -275.6 L290 -275.5 L288.1 -275.5 L286.2 -275.4 L284.2 -275.4 L282.3 -275.3 L280.4 -275.3 L278.4 -275.2 L276.5 -275.2 L276.4 -277.1 L276.4 -279 L276.3 -281 L276.3 -282.9 L276.2 -284.8 L276.2 -286.8 L276.1 -288.7 L276.1 -290.6 L276 -292.6 L276 -294.5 L275.9 -296.4 L275.9 -298.4 L275.8 -300.3 L275.7 -302.2 L275.7 -304.2 L275.6 -306.1 L275.6 -308 L275.5 -310 L275.5 -311.9 L275.4 -313.8 L275.4 -315.8 L275.3 -317.7 L275.3 -319.6 L275.2 -321.6 L275.1 -323.5 Z " />
<path stroke="rgb(0,0,0)" stroke-opacity="1" fill="rgb(255,255,255)" fill-opacity="1" d="M-951.3 -899.2 L-951.5 -895.3 L-952 -891.5 L-952.8 -887.7 L-953.9 -883.9 L-955.3 -880.3 L-957 -876.8 L-959 -873.5 L-961.2 -870.3 L-963.7 -867.3 L-966.4 -864.5 L-969.3 -861.9 L-972.4 -859.6 L-975.7 -857.5 L-979.1 -855.7 L-982.7 -854.2 L-986.3 -853 L-990.1 -852 L-993.9 -851.4 L-997.8 -851 L-1002 -851 L-1006 -851.3 L-1009 -851.9 L-1013 -852.8 L-1017 -854 L-1020 -855.4 L-1024 -857.2 L-1027 -859.2 L-1030 -861.5 L-1033 -864 L-1036 -866.8 L-1039 -869.7 L-1041 -872.9 L-1043 -876.2 L-1045 -879.7 L-1046 -883.3 L-1047 -887 L-1048 -890.8 L-1049 -894.6 L-1049 -898.5 L-1049 -902.4 L-1048 -906.2 L-1048 -910.1 L-1047 -913.8 L-1046 -917.5 L-1044 -921 L-1042 -924.5 L-1040 -927.7 L-1038 -930.8 L-1035 -933.7 L-1032 -936.4 L-1029 -938.9 L-1026 -941.1 L-1023 -943 L-1019 -944.7 L-1016 -946.1 L-1012 -947.2 L-1008 -948 L-1004 -948.4 L-1000 -948.6 L-996.6 -948.5 L-992.7 -948.1 L-988.9 -947.3 L-985.2 -946.3 L-981.5 -944.9 L-978 -943.3 L-974.6 -941.4 L-971.4 -939.3 L-968.3 -936.9 L-965.5 -934.2 L-962.9 -931.4 L-960.5 -928.3 L-958.3 -925.1 L-956.4 -921.7 L-954.8 -918.1 L-953.5 -914.5 L-952.5 -910.7 L-951.8 -906.9 L-951.4 -903.1 L-951.3 -899.2 Z " />
<path stroke="rgb(0,0,0)" stroke-opacity="1" fill="rgb(255,255,255)" fill-opacity="1" d="M-214.1 -188.9 L-214 -189.9 L-213.9 -191 L-213.8 -192 L-213.7 -193 L-213.6 -194 L-213.5 -195 L-213.4 -196.1 L-213.3 -197.1 L-213.2 -198.1 L-213.1 -199.1 L-213 -200.1 L-212.9 -201.1 L-212.8 -202.2 L-212.7 -203.2 L-212.6 -204.2 L-212.5 -205.2 L-212.4 -206.2 L-212.3 -207.2 L-212.2 -208.3 L-212.1 -209.3 L-211.9 -210.3 L-211.8 -211.3 L-211.7 -212.3 L-211.6 -213.4 L-211.5 -214.4 L-210.5 -214.3 L-209.5 -214.2 L-208.5 -214.1 L-207.5 -214 L-206.4 -213.9 L-205.4 -213.8 L-204.4 -213.6 L-203.4 -213.5 L-202.4 -213.4 L-201.4 -213.3 L-200.3 -213.2 L-199.3 -213.1 L-198.3 -213 L-197.3 -212.9 L-196.3 -212.8 L-195.3 -212.7 L-194.2 -212.6 L-193.2 -212.5 L-192.2 -212.4 L-191.2 -212.3 L-190.2 -212.2 L-189.2 -212.1 L-188.1 -212 L-187.1 -211.9 L-186.1 -211.8 L-186.2 -210.8 L-186.3 -209.8 L-186.4 -208.7 L-186.5 -207.7 L-186.6 -206.7 L-186.7 -205.7 L-186.8 -204.7 L-186.9 -203.6 L-187 -202.6 L-187.1 -201.6 L-187.2 -200.6 L-187.3 -199.6 L-187.4 -198.6 L-187.5 -197.5 L-187.6 -196.5 L-187.8 -195.5 L-187.9 -194.5 L-188 -193.5 L-188.1 -192.5 L-188.2 -191.4 L-188.3 -190.4 L-188.4 -189.4 L-188.5 -188.4 L-188.6 -187.4 L-188.7 -186.4 L-189.7 -186.5 L-190.7 -186.6 L-191.7 -186.7 L-192.8 -186.8 L-193.8 -186.9 L-194.8 -187 L-195.8 -187.1 L-196.8 -187.2 L-197.8 -187.3 L-198.9 -187.4 L-199.9 -187.5 L-200.9 -187.6 L-201.9 -187.7 L-202.9 -187.8 L-203.9 -187.9 L-205 -188 L-206 -188.1 L-207 -188.2 L-208 -188.3 L-209 -188.4 L-210 -188.5 L-211.1 -188.6 L-212.1 -188.7 L-213.1 -188.8 L-214.1 -188.9 Z " />
<path stroke="rgb(0,0,0)" stroke-opacity="1" fill="rgb(255,255,255)" fill-opacity="1" d="M-751.3 -899.2 L-751.5 -895.3 L-752 -891.5 L-752.8 -887.7 L-753.9 -883.9 L-755.3 -880.3 L-757 -876.8 L-759 -873.5 L-761.2 -870.3 L-763.7 -867.3 L-766.4 -864.5 L-769.3 -861.9 L-772.4 -859.6 L-775.7 -857.5 L-779.1 -855.7 L-782.7 -854.2 L-786.3 -853 L-790.1 -852 L-793.9 -851.4 L-797.8 -851 L-801.7 -851 L-805.6 -851.3 L-809.4 -851.9 L-813.2 -852.8 L-816.9 -854 L-820.5 -855.4 L-823.9 -857.2 L-827.2 -859.2 L-830.4 -861.5 L-833.3 -864 L-836.1 -866.8 L-838.6 -869.7 L-840.8 -872.9 L-842.8 -876.2 L-844.6 -879.7 L-846 -883.3 L-847.2 -887 L-848.1 -890.8 L-848.6 -894.6 L-848.9 -898.5 L-848.8 -902.4 L-848.5 -906.2 L-847.8 -910.1 L-846.9 -913.8 L-845.6 -917.5 L-844.1 -921 L-842.2 -924.5 L-840.1 -927.7 L-837.8 -930.8 L-835.2 -933.7 L-832.4 -936.4 L-829.4 -938.9 L-826.2 -941.1 L-822.8 -943 L-819.3 -944.7 L-815.7 -946.1 L-812 -947.2 L-808.2 -948 L-804.3 -948.4 L-800.4 -948.6 L-796.6 -948.5 L-792.7 -948.1 L-788.9 -947.3 L-785.2 -946.3 L-781.5 -944.9 L-778 -943.3 L-774.6 -941.4 L-771.4 -939.3 L-768.3 -936.9 L-765.5 -934.2 L-762.9 -931.4 L-760.5 -928.3 L-758.3 -925.1 L-756.4 -921.7 L-754.8 -918.1 L-753.5 -914.5 L-752.5 -910.7 L-751.8 -906.9 L-751.4 -903.1 L-751.3 -899.2 Z " />
<path stroke="rgb(0,0,0)" stroke-opacity="1" fill="rgb(255,255,255)" fill-opacity="1" d="M-25.63 -203.4 L-24.48 -204.3 L-23.33 -205.2 L-22.18 -206.1 L-21.02 -207 L-19.87 -207.9 L-18.72 -208.8 L-17.57 -209.7 L-16.42 -210.6 L-15.26 -211.5 L-14.11 -212.4 L-12.96 -213.3 L-11.81 -214.2 L-10.66 -215.1 L-9.504 -216 L-8.352 -216.9 L-7.2 -217.8 L-6.048 -218.7 L-4.896 -219.6 L-3.744 -220.5 L-2.592 -221.4 L-1.44 -222.3 L-0.2881 -223.2 L0.8638 -224.1 L2.016 -225 L3.168 -225.9 L4.067 -224.7 L4.966 -223.6 L5.865 -222.4 L6.764 -221.2 L7.663 -220.1 L8.562 -218.9 L9.461 -217.8 L10.36 -216.6 L11.26 -215.5 L12.16 -214.3 L13.06 -213.2 L13.96 -212 L14.86 -210.9 L15.75 -209.7 L16.65 -208.6 L17.55 -207.4 L18.45 -206.3 L19.35 -205.1 L20.25 -204 L21.15 -202.8 L22.05 -201.7 L22.95 -200.5 L23.85 -199.4 L24.75 -198.2 L25.64 -197.1 L24.49 -196.2 L23.34 -195.3 L22.19 -194.4 L21.04 -193.5 L19.88 -192.6 L18.73 -191.7 L17.58 -190.8 L16.43 -189.9 L15.28 -189 L14.12 -188.1 L12.97 -187.2 L11.82 -186.3 L10.67 -185.4 L9.517 -184.5 L8.365 -183.6 L7.213 -182.7 L6.061 -181.8 L4.909 -180.9 L3.757 -180 L2.605 -179.1 L1.453 -178.2 L0.3008 -177.3 L-0.8512 -176.4 L-2.003 -175.5 L-3.155 -174.6 L-4.054 -175.7 L-4.953 -176.9 L-5.852 -178 L-6.751 -179.2 L-7.65 -180.3 L-8.55 -181.5 L-9.449 -182.6 L-10.35 -183.8 L-11.25 -184.9 L-12.15 -186.1 L-13.04 -187.2 L-13.94 -188.4 L-14.84 -189.6 L-15.74 -190.7 L-16.64 -191.9 L-17.54 -193 L-18.44 -194.2 L-19.34 -195.3 L-20.24 -196.5 L-21.14 -197.6 L-22.04 -198.8 L-22.93 -199.9 L-23.83 -201.1 L-24.73 -202.2 L-25.63 -203.4 Z " />
<path stroke="rgb(0,0,0)" stroke-opacity="1" fill="rgb(255,255,255)" fill-opacity="1" d="M-551.3 -899.2 L-551.5 -895.3 L-552 -891.5 L-552.8 -887.7 L-553.9 -883.9 L-555.3 -880.3 L-557 -876.8 L-559 -873.5 L-561.2 -870.3 L-563.7 -867.3 L-566.4 -864.5 L-569.3 -861.9 L-572.4 -859.6 L-575.7 -857.5 L-579.1 -855.7 L-582.7 -854.2 L-586.3 -853 L-590.1 -852 L-593.9 -851.4 L-597.8 -851 L-601.7 -851 L-605.6 -851.3 L-609.4 -851.9 L-613.2 -852.8 L-616.9 -854 L-620.5 -855.4 L-623.9 -857.2 L-627.2 -859.2 L-630.4 -861.5 L-633.3 -864 L-636.1 -866.8 L-638.6 -869.7 L-640.8 -872.9 L-642.8 -876.2 L-644.6 -879.7 L-646 -883.3 L-647.2 -887 L-648.1 -890.8 L-648.6 -894.6 L-648.9 -898.5 L-648.8 -902.4 L-648.5 -906.2 L-647.8 -910.1 L-646.9 -913.8 L-645.6 -917.5 L-644.1 -921 L-642.2 -924.5 L-640.1 -927.7 L-637.8 -930.8 L-635.2 -933.7 L-632.4 -936.4 L-629.4 -938.9 L-626.2 -941.1 L-622.8 -943 L-619.3 -944.7 L-615.7 -946.1 L-612 -947.2 L-608.2 -948 L-604.3 -948.4 L-600.4 -948.6 L-596.6 -948.5 L-592.7 -948.1 L-588.9 -947.3 L-585.2 -946.3 L-581.5 -944.9 L-578 -943.3 L-574.6 -941.4 L-571.4 -939.3 L-568.3 -936.9 L-565.5 -934.2 L-562.9 -931.4 L-560.5 -928.3 L-558.3 -925.1 L-556.4 -921.7 L-554.8 -918.1 L-553.5 -914.5 L-552.5 -910.7 L-551.8 -906.9 L-551.4 -903.1 L-551.3 -899.2 Z " />
<path stroke="rgb(0,0,0)" stroke-opacity="1" fill="rgb(255,255,255)" fill-opacity="1" d="M175.1 -223.5 L177.1 -223.6 L179 -223.6 L180.9 -223.7 L182.9 -223.7 L184.8 -223.8 L186.7 -223.8 L188.7 -223.9 L190.6 -223.9 L192.6 -224 L194.5 -224.1 L196.4 -224.1 L198.4 -224.2 L200.3 -224.2 L202.2 -224.3 L204.2 -224.3 L206.1 -224.4 L208 -224.4 L210 -224.5 L211.9 -224.5 L213.8 -224.6 L215.8 -224.7 L217.7 -224.7 L219.6 -224.8 L221.6 -224.8 L223.5 -224.9 L223.5 -222.9 L223.6 -221 L223.7 -219.1 L223.7 -217.1 L223.8 -215.2 L223.8 -213.3 L223.9 -211.3 L223.9 -209.4 L224 -207.5 L224 -205.5 L224.1 -203.6 L224.1 -201.7 L224.2 -199.7 L224.3 -197.8 L224.3 -195.9 L224.4 -193.9 L224.4 -192 L224.5 -190.1 L224.5 -188.1 L224.6 -186.2 L224.6 -184.3 L224.7 -182.3 L224.7 -180.4 L224.8 -178.5 L224.9 -176.5 L222.9 -176.5 L221 -176.4 L219.1 -176.4 L217.1 -176.3 L215.2 -176.2 L213.2 -176.2 L211.3 -176.1 L209.4 -176.1 L207.4 -176 L205.5 -176 L203.6 -175.9 L201.6 -175.9 L199.7 -175.8 L197.8 -175.8 L195.8 -175.7 L193.9 -175.7 L192 -175.6 L190 -175.5 L188.1 -175.5 L186.2 -175.4 L184.2 -175.4 L182.3 -175.3 L180.4 -175.3 L178.4 -175.2 L176.5 -175.2 L176.4 -177.1 L176.4 -179 L176.3 -181 L176.3 -182.9 L176.2 -184.8 L176.2 -186.8 L176.1 -188.7 L176.1 -190.6 L176 -192.6 L176 -194.5 L175.9 -196.4 L175.9 -198.4 L175.8 -200.3 L175.7 -202.2 L175.7 -204.2 L175.6 -206.1 L175.6 -208 L175.5 -210 L175.5 -211.9 L175.4 -213.8 L175.4 -215.8 L175.3 -217.7 L175.3 -219.6 L175.2 -221.6 L175.1 -223.5 Z " />
<path stroke="rgb(0,0,0)" stroke-opacity="1" fill="rgb(255,255,255)" fill-opacity="1" d="M-351.3 -899.2 L-351.5 -895.3 L-352 -891.5 L-352.8 -887.7 L-353.9 -883.9 L-355.3 -880.3 L-357 -876.8 L-359 -873.5 L-361.2 -870.3 L-363.7 -867.3 L-366.4 -864.5 L-369.3 -861.9 L-372.4 -859.6 L-375.7 -857.5 L-379.1 -855.7 L-382.7 -854.2 L-386.3 -853 L-390.1 -852 L-393.9 -851.4 L-397.8 -851 L-401.7 -851 L-405.6 -851.3 L-409.4 -851.9 L-413.2 -852.8 L-416.9 -854 L-420.5 -855.4 L-423.9 -857.2 L-427.2 -859.2 L-430.4 -861.5 L-433.3 -864 L-436.1 -866.8 L-438.6 -869.7 L-440.8 -872.9 L-442.8 -876.2 L-444.6 -879.7 L-446 -883.3 L-447.2 -887 L-448.1 -890.8 L-448.6 -894.6 L-448.9 -898.5 L-448.8 -902.4 L-448.5 -906.2 L-447.8 -910.1 L-446.9 -913.8 L-445.6 -917.5 L-444.1 -921 L-442.2 -924.5 L-440.1 -927.7 L-437.8 -930.8 L-435.2 -933.7 L-432.4 -936.4 L-429.4 -938.9 L-426.2 -941.1 L-422.8 -943 L-419.3 -944.7 L-415.7 -946.1 L-412 -947.2 L-408.2 -948 L-404.3 -948.4 L-400.4 -948.6 L-396.6 -948.5 L-392.7 -948.1 L-388.9 -947.3 L-385.2 -946.3 L-381.5 -944.9 L-378 -943.3 L-374.6 -941.4 L-371.4 -939.3 L-368.3 -936.9 L-365.5 -934.2 L-362.9 -931.4 L-360.5 -928.3 L-358.3 -925.1 L-356.4 -921.7 L-354.8 -918.1 L-353.5 -914.5 L-352.5 -910.7 L-351.8 -906.9 L-351.4 -903.1 L-351.3 -899.2 Z " />
<path stroke="rgb(0,0,0)" stroke-opacity="1" fill="rgb(255,255,255)" fill-opacity="1" d="M-314.1 -88.93 L-314 -89.95 L-313.9 -90.97 L-313.8 -91.98 L-313.7 -93 L-313.6 -94.02 L-313.5 -95.04 L-313.4 -96.05 L-313.3 -97.07 L-313.2 -98.09 L-313.1 -99.11 L-313 -100.1 L-312.9 -101.1 L-312.8 -102.2 L-312.7 -103.2 L-312.6 -104.2 L-312.5 -105.2 L-312.4 -106.2 L-312.3 -107.2 L-312.2 -108.3 L-312.1 -109.3 L-311.9 -110.3 L-311.8 -111.3 L-311.7 -112.3 L-311.6 -113.4 L-311.5 -114.4 L-310.5 -114.3 L-309.5 -114.2 L-308.5 -114.1 L-307.5 -114 L-306.4 -113.9 L-305.4 -113.8 L-304.4 -113.6 L-303.4 -113.5 L-302.4 -113.4 L-301.4 -113.3 L-300.3 -113.2 L-299.3 -113.1 L-298.3 -113 L-297.3 -112.9 L-296.3 -112.8 L-295.3 -112.7 L-294.2 -112.6 L-293.2 -112.5 L-292.2 -112.4 L-291.2 -112.3 L-290.2 -112.2 L-289.2 -112.1 L-288.1 -112 L-287.1 -111.9 L-286.1 -111.8 L-286.2 -110.8 L-286.3 -109.8 L-286.4 -108.7 L-286.5 -107.7 L-286.6 -106.7 L-286.7 -105.7 L-286.8 -104.7 L-286.9 -103.6 L-287 -102.6 L-287.1 -101.6 L-287.2 -100.6 L-287.3 -99.58 L-287.4 -98.56 L-287.5 -97.54 L-287.6 -96.53 L-287.8 -95.51 L-287.9 -94.49 L-288 -93.47 L-288.1 -92.46 L-288.2 -91.44 L-288.3 -90.42 L-288.4 -89.4 L-288.5 -88.39 L-288.6 -87.37 L-288.7 -86.35 L-289.7 -86.45 L-290.7 -86.56 L-291.7 -86.66 L-292.8 -86.76 L-293.8 -86.87 L-294.8 -86.97 L-295.8 -87.07 L-296.8 -87.18 L-297.8 -87.28 L-298.9 -87.38 L-299.9 -87.49 L-300.9 -87.59 L-301.9 -87.69 L-302.9 -87.8 L-303.9 -87.9 L-305 -88 L-306 -88.11 L-307 -88.21 L-308 -88.31 L-309 -88.42 L-310 -88.52 L-311.1 -88.62 L-312.1 -88.73 L-313.1 -88.83 L-314.1 -88.93 Z " />
<path stroke="rgb(0,0,0)" stroke-opacity="1" fill="rgb(255,255,255)" fill-opacity="1" d="M-851.3 -799.2 L-851.5 -795.3 L-852 -791.5 L-852.8 -787.7 L-853.9 -783.9 L-855.3 -780.3 L-857 -776.8 L-859 -773.5 L-861.2 -770.3 L-863.7 -767.3 L-866.4 -764.5 L-869.3 -761.9 L-872.4 -759.6 L-875.7 -757.5 L-879.1 -755.7 L-882.7 -754.2 L-886.3 -753 L-890.1 -752 L-893.9 -751.4 L-897.8 -751 L-901.7 -751 L-905.6 -751.3 L-909.4 -751.9 L-913.2 -752.8 L-916.9 -754 L-920.5 -755.4 L-923.9 -757.2 L-927.2 -759.2 L-930.4 -761.5 L-933.3 -764 L-936.1 -766.8 L-938.6 -769.7 L-940.8 -772.9 L-942.8 -776.2 L-944.6 -779.7 L-946 -783.3 L-947.2 -787 L-948.1 -790.8 L-948.6 -794.6 L-948.9 -798.5 L-948.8 -802.4 L-948.5 -806.2 L-947.8 -810.1 L-946.9 -813.8 L-945.6 -817.5 L-944.1 -821 L-942.2 -824.5 L-940.1 -827.7 L-937.8 -830.8 L-935.2 -833.7 L-932.4 -836.4 L-929.4 -838.9 L-926.2 -841.1 L-922.8 -843 L-919.3 -844.7 L-915.7 -846.1 L-912 -847.2 L-908.2 -848 L-904.3 -848.4 L-900.4 -848.6 L-896.6 -848.5 L-892.7 -848.1 L-888.9 -847.3 L-885.2 -846.3 L-881.5 -844.9 L-878 -843.3 L-874.6 -841.4 L-871.4 -839.3 L-868.3 -836.9 L-865.5 -834.2 L-862.9 -831.4 L-860.5 -828.3 L-858.3 -825.1 L-856.4 -821.7 L-854.8 -818.1 L-853.5 -814.5 L-852.5 -810.7 L-851.8 -806.9 L-851.4 -803.1 L-851.3 -799.2 Z " />
<path stroke="rgb(0,0,0)" stroke-opacity="1" fill="rgb(255,255,255)" fill-opacity="1" d="M-125.6 -103.4 L-124.5 -104.3 L-123.3 -105.2 L-122.2 -106.1 L-121 -107 L-119.9 -107.9 L-118.7 -108.8 L-117.6 -109.7 L-116.4 -110.6 L-115.3 -111.5 L-114.1 -112.4 L-113 -113.3 L-111.8 -114.2 L-110.7 -115.1 L-109.5 -116 L-108.4 -116.9 L-107.2 -117.8 L-106 -118.7 L-104.9 -119.6 L-103.7 -120.5 L-102.6 -121.4 L-101.4 -122.3 L-100.3 -123.2 L-99.14 -124.1 L-97.98 -125 L-96.83 -125.9 L-95.93 -124.7 L-95.03 -123.6 L-94.14 -122.4 L-93.24 -121.2 L-92.34 -120.1 L-91.44 -118.9 L-90.54 -117.8 L-89.64 -116.6 L-88.74 -115.5 L-87.84 -114.3 L-86.94 -113.2 L-86.04 -112 L-85.14 -110.9 L-84.25 -109.7 L-83.35 -108.6 L-82.45 -107.4 L-81.55 -106.3 L-80.65 -105.1 L-79.75 -104 L-78.85 -102.8 L-77.95 -101.7 L-77.05 -100.5 L-76.15 -99.36 L-75.25 -98.21 L-74.36 -97.05 L-75.51 -96.16 L-76.66 -95.26 L-77.81 -94.36 L-78.96 -93.46 L-80.12 -92.56 L-81.27 -91.66 L-82.42 -90.76 L-83.57 -89.86 L-84.72 -88.96 L-85.88 -88.06 L-87.03 -87.17 L-88.18 -86.27 L-89.33 -85.37 L-90.48 -84.47 L-91.64 -83.57 L-92.79 -82.67 L-93.94 -81.77 L-95.09 -80.87 L-96.24 -79.97 L-97.4 -79.07 L-98.55 -78.17 L-99.7 -77.28 L-100.9 -76.38 L-102 -75.48 L-103.2 -74.58 L-104.1 -75.73 L-105 -76.88 L-105.9 -78.03 L-106.8 -79.19 L-107.7 -80.34 L-108.5 -81.49 L-109.4 -82.64 L-110.3 -83.79 L-111.2 -84.95 L-112.1 -86.1 L-113 -87.25 L-113.9 -88.4 L-114.8 -89.55 L-115.7 -90.71 L-116.6 -91.86 L-117.5 -93.01 L-118.4 -94.16 L-119.3 -95.31 L-120.2 -96.47 L-121.1 -97.62 L-122 -98.77 L-122.9 -99.92 L-123.8 -101.1 L-124.7 -102.2 L-125.6 -103.4 Z " />
<path stroke="rgb(0,0,0)" stroke-opacity="1" fill="rgb(255,255,255)" fill-opacity="1" d="M-651.3 -799.2 L-651.5 -795.3 L-652 -791.5 L-652.8 -787.7 L-653.9 -783.9 L-655.3 -780.3 L-657 -776.8 L-659 -773.5 L-661.2 -770.3 L-663.7 -767.3 L-666.4 -764.5 L-669.3 -761.9 L-672.4 -759.6 L-675.7 -757.5 L-679.1 -755.7 L-682.7 -754.2 L-686.3 -753 L-690.1 -752 L-693.9 -751.4 L-697.8 -751 L-701.7 -751 L-705.6 -751.3 L-709.4 -751.9 L-713.2 -752.8 L-716.9 -754 L-720.5 -755.4 L-723.9 -757.2 L-727.2 -759.2 L-730.4 -761.5 L-733.3 -764 L-736.1 -766.8 L-738.6 -769.7 L-740.8 -772.9 L-742.8 -776.2 L-744.6 -779.7 L-746 -783.3 L-747.2 -787 L-748.1 -790.8 L-748.6 -794.6 L-748.9 -798.5 L-748.8 -802.4 L-748.5 -806.2 L-747.8 -810.1 L-746.9 -813.8 L-745.6 -817.5 L-744.1 -821 L-742.2 -824.5 L-740.1 -827.7 L-737.8 -830.8 L-735.2 -833.7 L-732.4 -836.4 L-729.4 -838.9 L-726.2 -841.1 L-722.8 -843 L-719.3 -844.7 L-715.7 -846.1 L-712 -847.2 L-708.2 -848 L-704.3 -848.4 L-700.4 -848.6 L-696.6 -848.5 L-692.7 -848.1 L-688.9 -847.3 L-685.2 -846.3 L-681.5 -844.9 L-678 -843.3 L-674.6 -841.4 L-671.4 -839.3 L-668.3 -836.9 L-665.5 -834.2 L-662.9 -831.4 L-660.5 -828.3 L-658.3 -825.1 L-656.4 -821.7 L-654.8 -818.1 L-653.5 -814.5 L-652.5 -810.7 L-651.8 -806.9 L-651.4 -803.1 L-651.3 -799.2 Z " />
<path stroke="rgb(0,0,0)" stroke-opacity="1" fill="rgb(255,255,255)" fill-opacity="1" d="M75.14 -123.5 L77.08 -123.6 L79.01 -123.6 L80.95 -123.7 L82.88 -123.7 L84.81 -123.8 L86.75 -123.8 L88.68 -123.9 L90.62 -123.9 L92.55 -124 L94.48 -124.1 L96.42 -124.1 L98.35 -124.2 L100.3 -124.2 L102.2 -124.3 L104.2 -124.3 L106.1 -124.4 L108 -124.4 L110 -124.5 L111.9 -124.5 L113.8 -124.6 L115.8 -124.7 L117.7 -124.7 L119.6 -124.8 L121.6 -124.8 L123.5 -124.9 L123.5 -122.9 L123.6 -121 L123.7 -119.1 L123.7 -117.1 L123.8 -115.2 L123.8 -113.3 L123.9 -111.3 L123.9 -109.4 L124 -107.5 L124 -105.5 L124.1 -103.6 L124.1 -101.7 L124.2 -99.73 L124.3 -97.79 L124.3 -95.86 L124.4 -93.93 L124.4 -91.99 L124.5 -90.06 L124.5 -88.12 L124.6 -86.19 L124.6 -84.26 L124.7 -82.32 L124.7 -80.39 L124.8 -78.45 L124.9 -76.52 L122.9 -76.47 L121 -76.41 L119.1 -76.36 L117.1 -76.3 L115.2 -76.25 L113.2 -76.19 L111.3 -76.14 L109.4 -76.09 L107.4 -76.03 L105.5 -75.98 L103.6 -75.92 L101.6 -75.87 L99.71 -75.81 L97.78 -75.76 L95.84 -75.7 L93.91 -75.65 L91.98 -75.6 L90.04 -75.54 L88.11 -75.49 L86.17 -75.43 L84.24 -75.38 L82.31 -75.32 L80.37 -75.27 L78.44 -75.22 L76.5 -75.16 L76.45 -77.09 L76.4 -79.03 L76.34 -80.96 L76.29 -82.9 L76.23 -84.83 L76.18 -86.76 L76.12 -88.7 L76.07 -90.63 L76.01 -92.57 L75.96 -94.5 L75.91 -96.43 L75.85 -98.37 L75.8 -100.3 L75.74 -102.2 L75.69 -104.2 L75.63 -106.1 L75.58 -108 L75.53 -110 L75.47 -111.9 L75.42 -113.8 L75.36 -115.8 L75.31 -117.7 L75.25 -119.6 L75.2 -121.6 L75.14 -123.5 Z " />
<path stroke="rgb(0,0,0)" stroke-opacity="1" fill="rgb(255,255,255)" fill-opacity="1" d="M-451.3 -799.2 L-451.5 -795.3 L-452 -791.5 L-452.8 -787.7 L-453.9 -783.9 L-455.3 -780.3 L-457 -776.8 L-459 -773.5 L-461.2 -770.3 L-463.7 -767.3 L-466.4 -764.5 L-469.3 -761.9 L-472.4 -759.6 L-475.7 -757.5 L-479.1 -755.7 L-482.7 -754.2 L-486.3 -753 L-490.1 -752 L-493.9 -751.4 L-497.8 -751 L-501.7 -751 L-505.6 -751.3 L-509.4 -751.9 L-513.2 -752.8 L-516.9 -754 L-520.5 -755.4 L-523.9 -757.2 L-527.2 -759.2 L-530.4 -761.5 L-533.3 -764 L-536.1 -766.8 L-538.6 -769.7 L-540.8 -772.9 L-542.8 -776.2 L-544.6 -779.7 L-546 -783.3 L-547.2 -787 L-548.1 -790.8 L-548.6 -794.6 L-548.9 -798.5 L-548.8 -802.4 L-548.5 -806.2 L-547.8 -810.1 L-546.9 -813.8 L-545.6 -817.5 L-544.1 -821 L-542.2 -824.5 L-540.1 -827.7 L-537.8 -830.8 L-535.2 -833.7 L-532.4 -836.4 L-529.4 -838.9 L-526.2 -841.1 L-522.8 -843 L-519.3 -844.7 L-515.7 -846.1 L-512 -847.2 L-508.2 -848 L-504.3 -848.4 L-500.4 -848.6 L-496.6 -848.5 L-492.7 -848.1 L-488.9 -847.3 L-485.2 -846.3 L-481.5 -844.9 L-478 -843.3 L-474.6 -841.4 L-471.4 -839.3 L-468.3 -836.9 L-465.5 -834.2 L-462.9 -831.4 L-460.5 -828.3 L-458.3 -825.1 L-456.4 -821.7 L-454.8 -818.1 L-453.5 -814.5 L-452.5 -810.7 L-451.8 -806.9 L-451.4 -803.1 L-451.3 -799.2 Z " />
<path stroke="rgb(0,0,0)" stroke-opacity="1" fill="rgb(255,255,255)" fill-opacity="1" d="M275.7 -125 L277.7 -125 L279.7 -125 L281.6 -124.9 L283.6 -124.9 L285.6 -124.9 L287.6 -124.8 L289.5 -124.8 L291.5 -124.8 L293.5 -124.8 L295.4 -124.7 L297.4 -124.7 L299.4 -124.7 L301.4 -124.6 L303.3 -124.6 L305.3 -124.6 L307.3 -124.5 L309.2 -124.5 L311.2 -124.5 L313.2 -124.5 L315.2 -124.4 L317.1 -124.4 L319.1 -124.4 L321.1 -124.3 L323 -124.3 L325 -124.3 L325 -122.3 L325 -120.3 L324.9 -118.4 L324.9 -116.4 L324.9 -114.4 L324.8 -112.4 L324.8 -110.5 L324.8 -108.5 L324.7 -106.5 L324.7 -104.6 L324.7 -102.6 L324.7 -100.6 L324.6 -98.64 L324.6 -96.67 L324.6 -94.69 L324.5 -92.72 L324.5 -90.75 L324.5 -88.78 L324.4 -86.81 L324.4 -84.83 L324.4 -82.86 L324.4 -80.89 L324.3 -78.92 L324.3 -76.95 L324.3 -74.97 L322.3 -75 L320.3 -75.03 L318.3 -75.06 L316.4 -75.09 L314.4 -75.12 L312.4 -75.15 L310.5 -75.18 L308.5 -75.21 L306.5 -75.24 L304.5 -75.28 L302.6 -75.31 L300.6 -75.34 L298.6 -75.37 L296.7 -75.4 L294.7 -75.43 L292.7 -75.46 L290.7 -75.49 L288.8 -75.52 L286.8 -75.55 L284.8 -75.58 L282.9 -75.61 L280.9 -75.64 L278.9 -75.67 L276.9 -75.7 L275 -75.73 L275 -77.7 L275 -79.67 L275.1 -81.64 L275.1 -83.61 L275.1 -85.59 L275.1 -87.56 L275.2 -89.53 L275.2 -91.5 L275.2 -93.47 L275.3 -95.45 L275.3 -97.42 L275.3 -99.39 L275.4 -101.4 L275.4 -103.3 L275.4 -105.3 L275.4 -107.3 L275.5 -109.3 L275.5 -111.2 L275.5 -113.2 L275.6 -115.2 L275.6 -117.1 L275.6 -119.1 L275.7 -121.1 L275.7 -123.1 L275.7 -125 Z " />
<path stroke="rgb(0,0,0)" stroke-opacity="1" fill="rgb(255,255,255)" fill-opacity="1" d="M-951.3 -699.2 L-951.5 -695.3 L-952 -691.5 L-952.8 -687.7 L-953.9 -683.9 L-955.3 -680.3 L-957 -676.8 L-959 -673.5 L-961.2 -670.3 L-963.7 -667.3 L-966.4 -664.5 L-969.3 -661.9 L-972.4 -659.6 L-975.7 -657.5 L-979.1 -655.7 L-982.7 -654.2 L-986.3 -653 L-990.1 -652 L-993.9 -651.4 L-997.8 -651 L-1002 -651 L-1006 -651.3 L-1009 -651.9 L-1013 -652.8 L-1017 -654 L-1020 -655.4 L-1024 -657.2 L-1027 -659.2 L-1030 -661.5 L-1033 -664 L-1036 -666.8 L-1039 -669.7 L-1041 -672.9 L-1043 -676.2 L-1045 -679.7 L-1046 -683.3 L-1047 -687 L-1048 -690.8 L-1049 -694.6 L-1049 -698.5 L-1049 -702.4 L-1048 -706.2 L-1048 -710.1 L-1047 -713.8 L-1046 -717.5 L-1044 -721 L-1042 -724.5 L-1040 -727.7 L-1038 -730.8 L-1035 -733.7 L-1032 -736.4 L-1029 -738.9 L-1026 -741.1 L-1023 -743 L-1019 -744.7 L-1016 -746.1 L-1012 -747.2 L-1008 -748 L-1004 -748.4 L-1000 -748.6 L-996.6 -748.5 L-992.7 -748.1 L-988.9 -747.3 L-985.2 -746.3 L-981.5 -744.9 L-978 -743.3 L-974.6 -741.4 L-971.4 -739.3 L-968.3 -736.9 L-965.5 -734.2 L-962.9 -731.4 L-960.5 -728.3 L-958.3 -725.1 L-956.4 -721.7 L-954.8 -718.1 L-953.5 -714.5 L-952.5 -710.7 L-951.8 -706.9 L-951.4 -703.1 L-951.3 -699.2 Z " />
<path stroke="rgb(0,0,0)" stroke-opacity="1" fill="rgb(255,255,255)" fill-opacity="1" d="M-225.6 -3.378 L-224.5 -4.277 L-223.3 -5.176 L-222.2 -6.075 L-221 -6.974 L-219.9 -7.873 L-218.7 -8.772 L-217.6 -9.671 L-216.4 -10.57 L-215.3 -11.47 L-214.1 -12.37 L-213 -13.27 L-211.8 -14.17 L-210.7 -15.07 L-209.5 -15.96 L-208.4 -16.86 L-207.2 -17.76 L-206 -18.66 L-204.9 -19.56 L-203.7 -20.46 L-202.6 -21.36 L-201.4 -22.26 L-200.3 -23.16 L-199.1 -24.06 L-198 -24.96 L-196.8 -25.85 L-195.9 -24.7 L-195 -23.55 L-194.1 -22.4 L-193.2 -21.25 L-192.3 -20.09 L-191.4 -18.94 L-190.5 -17.79 L-189.6 -16.64 L-188.7 -15.49 L-187.8 -14.33 L-186.9 -13.18 L-186 -12.03 L-185.1 -10.88 L-184.2 -9.727 L-183.3 -8.575 L-182.4 -7.423 L-181.5 -6.271 L-180.6 -5.119 L-179.8 -3.967 L-178.9 -2.815 L-178 -1.663 L-177.1 -0.5107 L-176.2 0.6413 L-175.3 1.793 L-174.4 2.945 L-175.5 3.844 L-176.7 4.743 L-177.8 5.642 L-179 6.542 L-180.1 7.441 L-181.3 8.34 L-182.4 9.239 L-183.6 10.14 L-184.7 11.04 L-185.9 11.94 L-187 12.83 L-188.2 13.73 L-189.3 14.63 L-190.5 15.53 L-191.6 16.43 L-192.8 17.33 L-193.9 18.23 L-195.1 19.13 L-196.2 20.03 L-197.4 20.93 L-198.5 21.83 L-199.7 22.72 L-200.9 23.62 L-202 24.52 L-203.2 25.42 L-204.1 24.27 L-205 23.12 L-205.9 21.97 L-206.8 20.81 L-207.7 19.66 L-208.5 18.51 L-209.4 17.36 L-210.3 16.21 L-211.2 15.05 L-212.1 13.9 L-213 12.75 L-213.9 11.6 L-214.8 10.45 L-215.7 9.294 L-216.6 8.142 L-217.5 6.99 L-218.4 5.838 L-219.3 4.686 L-220.2 3.534 L-221.1 2.382 L-222 1.23 L-222.9 0.07824 L-223.8 -1.074 L-224.7 -2.226 L-225.6 -3.378 Z " />
<path stroke="rgb(0,0,0)" stroke-opacity="1" fill="rgb(255,255,255)" fill-opacity="1" d="M-751.3 -699.2 L-751.5 -695.3 L-752 -691.5 L-752.8 -687.7 L-753.9 -683.9 L-755.3 -680.3 L-757 -676.8 L-759 -673.5 L-761.2 -670.3 L-763.7 -667.3 L-766.4 -664.5 L-769.3 -661.9 L-772.4 -659.6 L-775.7 -657.5 L-779.1 -655.7 L-782.7 -654.2 L-786.3 -653 L-790.1 -652 L-793.9 -651.4 L-797.8 -651 L-801.7 -651 L-805.6 -651.3 L-809.4 -651.9 L-813.2 -652.8 L-816.9 -654 L-820.5 -655.4 L-823.9 -657.2 L-827.2 -659.2 L-830.4 -661.5 L-833.3 -664 L-836.1 -666.8 L-838.6 -669.7 L-840.8 -672.9 L-842.8 -676.2 L-844.6 -679.7 L-846 -683.3 L-847.2 -687 L-848.1 -690.8 L-848.6 -694.6 L-848.9 -698.5 L-848.8 -702.4 L-848.5 -706.2 L-847.8 -710.1 L-846.9 -713.8 L-845.6 -717.5 L-844.1 -721 L-842.2 -724.5 L-840.1 -727.7 L-837.8 -730.8 L-835.2 -733.7 L-832.4 -736.4 L-829.4 -738.9 L-826.2 -741.1 L-822.8 -743 L-819.3 -744.7 L-815.7 -746.1 L-812 -747.2 L-808.2 -748 L-804.3 -748.4 L-800.4 -748.6 L-796.6 -748.5 L-792.7 -748.1 L-788.9 -747.3 L-785.2 -746.3 L-781.5 -744.9 L-778 -743.3 L-774.6 -741.4 L-771.4 -739.3 L-768.3 -736.9 L-765.5 -734.2 L-762.9 -731.4 L-760.5 -728.3 L-758.3 -725.1 L-756.4 -721.7 L-754.8 -718.1 L-753.5 -714.5 L-752.5 -710.7 L-751.8 -706.9 L-751.4 -703.1 L-751.3 -699.2 Z " />
<path stroke="rgb(0,0,0)" stroke-opacity="1" fill="rgb(255,255,255)" fill-opacity="1" d="M-24.86 -23.51 L-22.92 -23.56 L-20.99 -23.62 L-19.05 -23.67 L-17.12 -23.73 L-15.19 -23.78 L-13.25 -23.84 L-11.32 -23.89 L-9.384 -23.94 L-7.45 -24 L-5.516 -24.05 L-3.582 -24.11 L-1.648 -24.16 L0.2858 -24.22 L2.22 -24.27 L4.154 -24.32 L6.088 -24.38 L8.021 -24.43 L9.955 -24.49 L11.89 -24.54 L13.82 -24.6 L15.76 -24.65 L17.69 -24.71 L19.63 -24.76 L21.56 -24.81 L23.49 -24.87 L23.55 -22.93 L23.6 -21 L23.66 -19.07 L23.71 -17.13 L23.76 -15.2 L23.82 -13.27 L23.87 -11.33 L23.93 -9.397 L23.98 -7.463 L24.04 -5.529 L24.09 -3.596 L24.15 -1.662 L24.2 0.2723 L24.25 2.206 L24.31 4.14 L24.36 6.074 L24.42 8.008 L24.47 9.942 L24.53 11.88 L24.58 13.81 L24.63 15.74 L24.69 17.68 L24.74 19.61 L24.8 21.55 L24.85 23.48 L22.92 23.53 L20.98 23.59 L19.05 23.64 L17.12 23.7 L15.18 23.75 L13.25 23.81 L11.31 23.86 L9.381 23.91 L7.447 23.97 L5.513 24.02 L3.579 24.08 L1.645 24.13 L-0.2887 24.19 L-2.223 24.24 L-4.157 24.3 L-6.09 24.35 L-8.024 24.4 L-9.958 24.46 L-11.89 24.51 L-13.83 24.57 L-15.76 24.62 L-17.69 24.68 L-19.63 24.73 L-21.56 24.78 L-23.5 24.84 L-23.55 22.91 L-23.6 20.97 L-23.66 19.04 L-23.71 17.1 L-23.77 15.17 L-23.82 13.24 L-23.88 11.3 L-23.93 9.368 L-23.99 7.434 L-24.04 5.5 L-24.09 3.566 L-24.15 1.632 L-24.2 -0.3021 L-24.26 -2.236 L-24.31 -4.17 L-24.37 -6.104 L-24.42 -8.038 L-24.47 -9.972 L-24.53 -11.91 L-24.58 -13.84 L-24.64 -15.77 L-24.69 -17.71 L-24.75 -19.64 L-24.8 -21.58 L-24.86 -23.51 Z " />
<path stroke="rgb(0,0,0)" stroke-opacity="1" fill="rgb(255,255,255)" fill-opacity="1" d="M-551.3 -699.2 L-551.5 -695.3 L-552 -691.5 L-552.8 -687.7 L-553.9 -683.9 L-555.3 -680.3 L-557 -676.8 L-559 -673.5 L-561.2 -670.3 L-563.7 -667.3 L-566.4 -664.5 L-569.3 -661.9 L-572.4 -659.6 L-575.7 -657.5 L-579.1 -655.7 L-582.7 -654.2 L-586.3 -653 L-590.1 -652 L-593.9 -651.4 L-597.8 -651 L-601.7 -651 L-605.6 -651.3 L-609.4 -651.9 L-613.2 -652.8 L-616.9 -654 L-620.5 -655.4 L-623.9 -657.2 L-627.2 -659.2 L-630.4 -661.5 L-633.3 -664 L-636.1 -666.8 L-638.6 -669.7 L-640.8 -672.9 L-642.8 -676.2 L-644.6 -679.7 L-646 -683.3 L-647.2 -687 L-648.1 -690.8 L-648.6 -694.6 L-648.9 -698.5 L-648.8 -702.4 L-648.5 -706.2 L-647.8 -710.1 L-646.9 -713.8 L-645.6 -717.5 L-644.1 -721 L-642.2 -724.5 L-640.1 -727.7 L-637.8 -730.8 L-635.2 -733.7 L-632.4 -736.4 L-629.4 -738.9 L-626.2 -741.1 L-622.8 -743 L-619.3 -744.7 L-615.7 -746.1 L-612 -747.2 L-608.2 -748 L-604.3 -748.4 L-600.4 -748.6 L-596.6 -748.5 L-592.7 -748.1 L-588.9 -747.3 L-585.2 -746.3 L-581.5 -744.9 L-578 -743.3 L-574.6 -741.4 L-571.4 -739.3 L-568.3 -736.9 L-565.5 -734.2 L-562.9 -731.4 L-560.5 -728.3 L-558.3 -725.1 L-556.4 -721.7 L-554.8 -718.1 L-553.5 -714.5 L-552.5 -710.7 L-551.8 -706.9 L-551.4 -703.1 L-551.3 -699.2 Z " />
<path stroke="rgb(0,0,0)" stroke-opacity="1" fill="rgb(255,255,255)" fill-opacity="1" d="M175.7 -25.03 L177.7 -25 L179.7 -24.97 L181.6 -24.94 L183.6 -24.91 L185.6 -24.88 L187.6 -24.84 L189.5 -24.81 L191.5 -24.78 L193.5 -24.75 L195.4 -24.72 L197.4 -24.69 L199.4 -24.66 L201.4 -24.63 L203.3 -24.6 L205.3 -24.57 L207.3 -24.54 L209.2 -24.51 L211.2 -24.48 L213.2 -24.45 L215.2 -24.42 L217.1 -24.39 L219.1 -24.36 L221.1 -24.33 L223 -24.3 L225 -24.27 L225 -22.3 L225 -20.33 L224.9 -18.36 L224.9 -16.38 L224.9 -14.41 L224.8 -12.44 L224.8 -10.47 L224.8 -8.497 L224.7 -6.525 L224.7 -4.553 L224.7 -2.581 L224.7 -0.6091 L224.6 1.363 L224.6 3.335 L224.6 5.307 L224.5 7.279 L224.5 9.251 L224.5 11.22 L224.4 13.19 L224.4 15.17 L224.4 17.14 L224.4 19.11 L224.3 21.08 L224.3 23.05 L224.3 25.03 L222.3 25 L220.3 24.97 L218.3 24.94 L216.4 24.91 L214.4 24.88 L212.4 24.85 L210.5 24.82 L208.5 24.79 L206.5 24.76 L204.5 24.72 L202.6 24.69 L200.6 24.66 L198.6 24.63 L196.7 24.6 L194.7 24.57 L192.7 24.54 L190.7 24.51 L188.8 24.48 L186.8 24.45 L184.8 24.42 L182.9 24.39 L180.9 24.36 L178.9 24.33 L176.9 24.3 L175 24.27 L175 22.3 L175 20.33 L175.1 18.36 L175.1 16.39 L175.1 14.41 L175.1 12.44 L175.2 10.47 L175.2 8.497 L175.2 6.525 L175.3 4.553 L175.3 2.582 L175.3 0.6096 L175.4 -1.362 L175.4 -3.334 L175.4 -5.306 L175.4 -7.278 L175.5 -9.25 L175.5 -11.22 L175.5 -13.19 L175.6 -15.17 L175.6 -17.14 L175.6 -19.11 L175.7 -21.08 L175.7 -23.05 L175.7 -25.03 Z " />
<path stroke="rgb(0,0,0)" stroke-opacity="1" fill="rgb(255,255,255)" fill-opacity="1" d="M-351.3 -699.2 L-351.5 -695.3 L-352 -691.5 L-352.8 -687.7 L-353.9 -683.9 L-355.3 -680.3 L-357 -676.8 L-359 -673.5 L-361.2 -670.3 L-363.7 -667.3 L-366.4 -664.5 L-369.3 -661.9 L-372.4 -659.6 L-375.7 -657.5 L-379.1 -655.7 L-382.7 -654.2 L-386.3 -653 L-390.1 -652 L-393.9 -651.4 L-397.8 -651 L-401.7 -651 L-405.6 -651.3 L-409.4 -651.9 L-413.2 -652.8 L-416.9 -654 L-420.5 -655.4 L-423.9 -657.2 L-427.2 -659.2 L-430.4 -661.5 L-433.3 -664 L-436.1 -666.8 L-438.6 -669.7 L-440.8 -672.9 L-442.8 -676.2 L-444.6 -679.7 L-446 -683.3 L-447.2 -687 L-448.1 -690.8 L-448.6 -694.6 L-448.9 -698.5 L-448.8 -702.4 L-448.5 -706.2 L-447.8 -710.1 L-446.9 -713.8 L-445.6 -717.5 L-444.1 -721 L-442.2 -724.5 L-440.1 -727.7 L-437.8 -730.8 L-435.2 -733.7 L-432.4 -736.4 L-429.4 -738.9 L-426.2 -741.1 L-422.8 -743 L-419.3 -744.7 L-415.7 -746.1 L-412 -747.2 L-408.2 -748 L-404.3 -748.4 L-400.4 -748.6 L-396.6 -748.5 L-392.7 -748.1 L-388.9 -747.3 L-385.2 -746.3 L-381.5 -744.9 L-378 -743.3 L-374.6 -741.4 L-371.4 -739.3 L-368.3 -736.9 L-365.5 -734.2 L-362.9 -731.4 L-360.5 -728.3 L-358.3 -725.1 L-356.4 -721.7 L-354.8 -718.1 L-353.5 -714.5 L-352.5 -710.7 L-351.8 -706.9 L-351.4 -703.1 L-351.3 -699.2 Z " />
<path stroke="rgb(0,0,0)" stroke-opacity="1" fill="rgb(255,255,255)" fill-opacity="1" d="M-325.6 96.62 L-324.5 95.72 L-323.3 94.82 L-322.2 93.93 L-321 93.03 L-319.9 92.13 L-318.7 91.23 L-317.6 90.33 L-316.4 89.43 L-315.3 88.53 L-314.1 87.63 L-313 86.73 L-311.8 85.83 L-310.7 84.93 L-309.5 84.04 L-308.4 83.14 L-307.2 82.24 L-306 81.34 L-304.9 80.44 L-303.7 79.54 L-302.6 78.64 L-301.4 77.74 L-300.3 76.84 L-299.1 75.94 L-298 75.04 L-296.8 74.15 L-295.9 75.3 L-295 76.45 L-294.1 77.6 L-293.2 78.75 L-292.3 79.91 L-291.4 81.06 L-290.5 82.21 L-289.6 83.36 L-288.7 84.51 L-287.8 85.67 L-286.9 86.82 L-286 87.97 L-285.1 89.12 L-284.2 90.27 L-283.3 91.43 L-282.4 92.58 L-281.5 93.73 L-280.6 94.88 L-279.8 96.03 L-278.9 97.19 L-278 98.34 L-277.1 99.49 L-276.2 100.6 L-275.3 101.8 L-274.4 102.9 L-275.5 103.8 L-276.7 104.7 L-277.8 105.6 L-279 106.5 L-280.1 107.4 L-281.3 108.3 L-282.4 109.2 L-283.6 110.1 L-284.7 111 L-285.9 111.9 L-287 112.8 L-288.2 113.7 L-289.3 114.6 L-290.5 115.5 L-291.6 116.4 L-292.8 117.3 L-293.9 118.2 L-295.1 119.1 L-296.2 120 L-297.4 120.9 L-298.5 121.8 L-299.7 122.7 L-300.9 123.6 L-302 124.5 L-303.2 125.4 L-304.1 124.3 L-305 123.1 L-305.9 122 L-306.8 120.8 L-307.7 119.7 L-308.5 118.5 L-309.4 117.4 L-310.3 116.2 L-311.2 115.1 L-312.1 113.9 L-313 112.8 L-313.9 111.6 L-314.8 110.4 L-315.7 109.3 L-316.6 108.1 L-317.5 107 L-318.4 105.8 L-319.3 104.7 L-320.2 103.5 L-321.1 102.4 L-322 101.2 L-322.9 100.1 L-323.8 98.93 L-324.7 97.77 L-325.6 96.62 Z " />
<path stroke="rgb(0,0,0)" stroke-opacity="1" fill="rgb(255,255,255)" fill-opacity="1" d="M-851.3 -599.2 L-851.5 -595.3 L-852 -591.5 L-852.8 -587.7 L-853.9 -583.9 L-855.3 -580.3 L-857 -576.8 L-859 -573.5 L-861.2 -570.3 L-863.7 -567.3 L-866.4 -564.5 L-869.3 -561.9 L-872.4 -559.6 L-875.7 -557.5 L-879.1 -555.7 L-882.7 -554.2 L-886.3 -553 L-890.1 -552 L-893.9 -551.4 L-897.8 -551 L-901.7 -551 L-905.6 -551.3 L-909.4 -551.9 L-913.2 -552.8 L-916.9 -554 L-920.5 -555.4 L-923.9 -557.2 L-927.2 -559.2 L-930.4 -561.5 L-933.3 -564 L-936.1 -566.8 L-938.6 -569.7 L-940.8 -572.9 L-942.8 -576.2 L-944.6 -579.7 L-946 -583.3 L-947.2 -587 L-948.1 -590.8 L-948.6 -594.6 L-948.9 -598.5 L-948.8 -602.4 L-948.5 -606.2 L-947.8 -610.1 L-946.9 -613.8 L-945.6 -617.5 L-944.1 -621 L-942.2 -624.5 L-940.1 -627.7 L-937.8 -630.8 L-935.2 -633.7 L-932.4 -636.4 L-929.4 -638.9 L-926.2 -641.1 L-922.8 -643 L-919.3 -644.7 L-915.7 -646.1 L-912 -647.2 L-908.2 -648 L-904.3 -648.4 L-900.4 -648.6 L-896.6 -648.5 L-892.7 -648.1 L-888.9 -647.3 L-885.2 -646.3 L-881.5 -644.9 L-878 -643.3 L-874.6 -641.4 L-871.4 -639.3 L-868.3 -636.9 L-865.5 -634.2 L-862.9 -631.4 L-860.5 -628.3 L-858.3 -625.1 L-856.4 -621.7 L-854.8 -618.1 L-853.5 -614.5 L-852.5 -610.7 L-851.8 -606.9 L-851.4 -603.1 L-851.3 -599.2 Z " />
<path stroke="rgb(0,0,0)" stroke-opacity="1" fill="rgb(255,255,255)" fill-opacity="1" d="M-124.9 76.49 L-122.9 76.44 L-121 76.38 L-119.1 76.33 L-117.1 76.27 L-115.2 76.22 L-113.3 76.16 L-111.3 76.11 L-109.4 76.06 L-107.4 76 L-105.5 75.95 L-103.6 75.89 L-101.6 75.84 L-99.71 75.78 L-97.78 75.73 L-95.85 75.68 L-93.91 75.62 L-91.98 75.57 L-90.04 75.51 L-88.11 75.46 L-86.18 75.4 L-84.24 75.35 L-82.31 75.29 L-80.37 75.24 L-78.44 75.19 L-76.51 75.13 L-76.45 77.07 L-76.4 79 L-76.34 80.93 L-76.29 82.87 L-76.24 84.8 L-76.18 86.73 L-76.13 88.67 L-76.07 90.6 L-76.02 92.54 L-75.96 94.47 L-75.91 96.4 L-75.85 98.34 L-75.8 100.3 L-75.75 102.2 L-75.69 104.1 L-75.64 106.1 L-75.58 108 L-75.53 109.9 L-75.47 111.9 L-75.42 113.8 L-75.37 115.7 L-75.31 117.7 L-75.26 119.6 L-75.2 121.5 L-75.15 123.5 L-77.08 123.5 L-79.02 123.6 L-80.95 123.6 L-82.88 123.7 L-84.82 123.8 L-86.75 123.8 L-88.69 123.9 L-90.62 123.9 L-92.55 124 L-94.49 124 L-96.42 124.1 L-98.35 124.1 L-100.3 124.2 L-102.2 124.2 L-104.2 124.3 L-106.1 124.3 L-108 124.4 L-110 124.5 L-111.9 124.5 L-113.8 124.6 L-115.8 124.6 L-117.7 124.7 L-119.6 124.7 L-121.6 124.8 L-123.5 124.8 L-123.6 122.9 L-123.6 121 L-123.7 119 L-123.7 117.1 L-123.8 115.2 L-123.8 113.2 L-123.9 111.3 L-123.9 109.4 L-124 107.4 L-124 105.5 L-124.1 103.6 L-124.1 101.6 L-124.2 99.7 L-124.3 97.76 L-124.3 95.83 L-124.4 93.9 L-124.4 91.96 L-124.5 90.03 L-124.5 88.09 L-124.6 86.16 L-124.6 84.23 L-124.7 82.29 L-124.7 80.36 L-124.8 78.42 L-124.9 76.49 Z " />
<path stroke="rgb(0,0,0)" stroke-opacity="1" fill="rgb(255,255,255)" fill-opacity="1" d="M-651.3 -599.2 L-651.5 -595.3 L-652 -591.5 L-652.8 -587.7 L-653.9 -583.9 L-655.3 -580.3 L-657 -576.8 L-659 -573.5 L-661.2 -570.3 L-663.7 -567.3 L-666.4 -564.5 L-669.3 -561.9 L-672.4 -559.6 L-675.7 -557.5 L-679.1 -555.7 L-682.7 -554.2 L-686.3 -553 L-690.1 -552 L-693.9 -551.4 L-697.8 -551 L-701.7 -551 L-705.6 -551.3 L-709.4 -551.9 L-713.2 -552.8 L-716.9 -554 L-720.5 -555.4 L-723.9 -557.2 L-727.2 -559.2 L-730.4 -561.5 L-733.3 -564 L-736.1 -566.8 L-738.6 -569.7 L-740.8 -572.9 L-742.8 -576.2 L-744.6 -579.7 L-746 -583.3 L-747.2 -587 L-748.1 -590.8 L-748.6 -594.6 L-748.9 -598.5 L-748.8 -602.4 L-748.5 -606.2 L-747.8 -610.1 L-746.9 -613.8 L-745.6 -617.5 L-744.1 -621 L-742.2 -624.5 L-740.1 -627.7 L-737.8 -630.8 L-735.2 -633.7 L-732.4 -636.4 L-729.4 -638.9 L-726.2 -641.1 L-722.8 -643 L-719.3 -644.7 L-715.7 -646.1 L-712 -647.2 L-708.2 -648 L-704.3 -648.4 L-700.4 -648.6 L-696.6 -648.5 L-692.7 -648.1 L-688.9 -647.3 L-685.2 -646.3 L-681.5 -644.9 L-678 -643.3 L-674.6 -641.4 L-671.4 -639.3 L-668.3 -636.9 L-665.5 -634.2 L-662.9 -631.4 L-660.5 -628.3 L-658.3 -625.1 L-656.4 -621.7 L-654.8 -618.1 L-653.5 -614.5 L-652.5 -610.7 L-651.8 -606.9 L-651.4 -603.1 L-651.3 -599.2 Z " />
<path stroke="rgb(0,0,0)" stroke-opacity="1" fill="rgb(255,255,255)" fill-opacity="1" d="M75.72 74.97 L77.69 75 L79.66 75.03 L81.64 75.06 L83.61 75.09 L85.58 75.12 L87.55 75.16 L89.52 75.19 L91.5 75.22 L93.47 75.25 L95.44 75.28 L97.41 75.31 L99.38 75.34 L101.4 75.37 L103.3 75.4 L105.3 75.43 L107.3 75.46 L109.2 75.49 L111.2 75.52 L113.2 75.55 L115.2 75.58 L117.1 75.61 L119.1 75.64 L121.1 75.67 L123 75.7 L125 75.73 L125 77.7 L125 79.67 L124.9 81.64 L124.9 83.62 L124.9 85.59 L124.8 87.56 L124.8 89.53 L124.8 91.5 L124.7 93.48 L124.7 95.45 L124.7 97.42 L124.7 99.39 L124.6 101.4 L124.6 103.3 L124.6 105.3 L124.5 107.3 L124.5 109.3 L124.5 111.2 L124.4 113.2 L124.4 115.2 L124.4 117.1 L124.4 119.1 L124.3 121.1 L124.3 123.1 L124.3 125 L122.3 125 L120.3 125 L118.3 124.9 L116.4 124.9 L114.4 124.9 L112.4 124.8 L110.5 124.8 L108.5 124.8 L106.5 124.8 L104.5 124.7 L102.6 124.7 L100.6 124.7 L98.63 124.6 L96.66 124.6 L94.69 124.6 L92.71 124.5 L90.74 124.5 L88.77 124.5 L86.8 124.5 L84.83 124.4 L82.85 124.4 L80.88 124.4 L78.91 124.3 L76.94 124.3 L74.97 124.3 L75 122.3 L75.03 120.3 L75.06 118.4 L75.09 116.4 L75.12 114.4 L75.15 112.4 L75.18 110.5 L75.21 108.5 L75.24 106.5 L75.27 104.6 L75.3 102.6 L75.33 100.6 L75.36 98.64 L75.39 96.67 L75.42 94.69 L75.45 92.72 L75.48 90.75 L75.51 88.78 L75.54 86.81 L75.57 84.83 L75.6 82.86 L75.63 80.89 L75.66 78.92 L75.69 76.95 L75.72 74.97 Z " />
<path stroke="rgb(0,0,0)" stroke-opacity="1" fill="rgb(255,255,255)" fill-opacity="1" d="M-451.3 -599.2 L-451.5 -595.3 L-452 -591.5 L-452.8 -587.7 L-453.9 -583.9 L-455.3 -580.3 L-457 -576.8 L-459 -573.5 L-461.2 -570.3 L-463.7 -567.3 L-466.4 -564.5 L-469.3 -561.9 L-472.4 -559.6 L-475.7 -557.5 L-479.1 -555.7 L-482.7 -554.2 L-486.3 -553 L-490.1 -552 L-493.9 -551.4 L-497.8 -551 L-501.7 -551 L-505.6 -551.3 L-509.4 -551.9 L-513.2 -552.8 L-516.9 -554 L-520.5 -555.4 L-523.9 -557.2 L-527.2 -559.2 L-530.4 -561.5 L-533.3 -564 L-536.1 -566.8 L-538.6 -569.7 L-540.8 -572.9 L-542.8 -576.2 L-544.6 -579.7 L-546 -583.3 L-547.2 -587 L-548.1 -590.8 L-548.6 -594.6 L-548.9 -598.5 L-548.8 -602.4 L-548.5 -606.2 L-547.8 -610.1 L-546.9 -613.8 L-545.6 -617.5 L-544.1 -621 L-542.2 -624.5 L-540.1 -627.7 L-537.8 -630.8 L-535.2 -633.7 L-532.4 -636.4 L-529.4 -638.9 L-526.2 -641.1 L-522.8 -643 L-519.3 -644.7 L-515.7 -646.1 L-512 -647.2 L-508.2 -648 L-504.3 -648.4 L-500.4 -648.6 L-496.6 -648.5 L-492.7 -648.1 L-488.9 -647.3 L-485.2 -646.3 L-481.5 -644.9 L-478 -643.3 L-474.6 -641.4 L-471.4 -639.3 L-468.3 -636.9 L-465.5 -634.2 L-462.9 -631.4 L-460.5 -628.3 L-458.3 -625.1 L-456.4 -621.7 L-454.8 -618.1 L-453.5 -614.5 L-452.5 -610.7 L-451.8 -606.9 L-451.4 -603.1 L-451.3 -599.2 Z " />
<path stroke="rgb(0,0,0)" stroke-opacity="1" fill="rgb(255,255,255)" fill-opacity="1" d="M275.7 74.97 L277.7 75 L279.7 75.03 L281.6 75.06 L283.6 75.09 L285.6 75.12 L287.6 75.16 L289.5 75.19 L291.5 75.22 L293.5 75.25 L295.4 75.28 L297.4 75.31 L299.4 75.34 L301.4 75.37 L303.3 75.4 L305.3 75.43 L307.3 75.46 L309.2 75.49 L311.2 75.52 L313.2 75.55 L315.2 75.58 L317.1 75.61 L319.1 75.64 L321.1 75.67 L323 75.7 L325 75.73 L325 77.7 L325 79.67 L324.9 81.64 L324.9 83.62 L324.9 85.59 L324.8 87.56 L324.8 89.53 L324.8 91.5 L324.7 93.48 L324.7 95.45 L324.7 97.42 L324.7 99.39 L324.6 101.4 L324.6 103.3 L324.6 105.3 L324.5 107.3 L324.5 109.3 L324.5 111.2 L324.4 113.2 L324.4 115.2 L324.4 117.1 L324.4 119.1 L324.3 121.1 L324.3 123.1 L324.3 125 L322.3 125 L320.3 125 L318.3 124.9 L316.4 124.9 L314.4 124.9 L312.4 124.8 L310.5 124.8 L308.5 124.8 L306.5 124.8 L304.5 124.7 L302.6 124.7 L300.6 124.7 L298.6 124.6 L296.7 124.6 L294.7 124.6 L292.7 124.5 L290.7 124.5 L288.8 124.5 L286.8 124.5 L284.8 124.4 L282.9 124.4 L280.9 124.4 L278.9 124.3 L276.9 124.3 L275 124.3 L275 122.3 L275 120.3 L275.1 118.4 L275.1 116.4 L275.1 114.4 L275.1 112.4 L275.2 110.5 L275.2 108.5 L275.2 106.5 L275.3 104.6 L275.3 102.6 L275.3 100.6 L275.4 98.64 L275.4 96.67 L275.4 94.69 L275.4 92.72 L275.5 90.75 L275.5 88.78 L275.5 86.81 L275.6 84.83 L275.6 82.86 L275.6 80.89 L275.7 78.92 L275.7 76.95 L275.7 74.97 Z " />
<path stroke="rgb(0,0,0)" stroke-opacity="1" fill="rgb(255,255,255)" fill-opacity="1" d="M-951.3 -499.2 L-951.5 -495.3 L-952 -491.5 L-952.8 -487.7 L-953.9 -483.9 L-955.3 -480.3 L-957 -476.8 L-959 -473.5 L-961.2 -470.3 L-963.7 -467.3 L-966.4 -464.5 L-969.3 -461.9 L-972.4 -459.6 L-975.7 -457.5 L-979.1 -455.7 L-982.7 -454.2 L-986.3 -453 L-990.1 -452 L-993.9 -451.4 L-997.8 -451 L-1002 -451 L-1006 -451.3 L-1009 -451.9 L-1013 -452.8 L-1017 -454 L-1020 -455.4 L-1024 -457.2 L-1027 -459.2 L-1030 -461.5 L-1033 -464 L-1036 -466.8 L-1039 -469.7 L-1041 -472.9 L-1043 -476.2 L-1045 -479.7 L-1046 -483.3 L-1047 -487 L-1048 -490.8 L-1049 -494.6 L-1049 -498.5 L-1049 -502.4 L-1048 -506.2 L-1048 -510.1 L-1047 -513.8 L-1046 -517.5 L-1044 -521 L-1042 -524.5 L-1040 -527.7 L-1038 -530.8 L-1035 -533.7 L-1032 -536.4 L-1029 -538.9 L-1026 -541.1 L-1023 -543 L-1019 -544.7 L-1016 -546.1 L-1012 -547.2 L-1008 -548 L-1004 -548.4 L-1000 -548.6 L-996.6 -548.5 L-992.7 -548.1 L-988.9 -547.3 L-985.2 -546.3 L-981.5 -544.9 L-978 -543.3 L-974.6 -541.4 L-971.4 -539.3 L-968.3 -536.9 L-965.5 -534.2 L-962.9 -531.4 L-960.5 -528.3 L-958.3 -525.1 L-956.4 -521.7 L-954.8 -518.1 L-953.5 -514.5 L-952.5 -510.7 L-951.8 -506.9 L-951.4 -503.1 L-951.3 -499.2 Z " />
<path stroke="rgb(0,0,0)" stroke-opacity="1" fill="rgb(255,255,255)" fill-opacity="1" d="M-224.9 176.5 L-222.9 176.4 L-221 176.4 L-219.1 176.3 L-217.1 176.3 L-215.2 176.2 L-213.3 176.2 L-211.3 176.1 L-209.4 176.1 L-207.4 176 L-205.5 175.9 L-203.6 175.9 L-201.6 175.8 L-199.7 175.8 L-197.8 175.7 L-195.8 175.7 L-193.9 175.6 L-192 175.6 L-190 175.5 L-188.1 175.5 L-186.2 175.4 L-184.2 175.3 L-182.3 175.3 L-180.4 175.2 L-178.4 175.2 L-176.5 175.1 L-176.5 177.1 L-176.4 179 L-176.3 180.9 L-176.3 182.9 L-176.2 184.8 L-176.2 186.7 L-176.1 188.7 L-176.1 190.6 L-176 192.5 L-176 194.5 L-175.9 196.4 L-175.9 198.3 L-175.8 200.3 L-175.7 202.2 L-175.7 204.1 L-175.6 206.1 L-175.6 208 L-175.5 209.9 L-175.5 211.9 L-175.4 213.8 L-175.4 215.7 L-175.3 217.7 L-175.3 219.6 L-175.2 221.5 L-175.1 223.5 L-177.1 223.5 L-179 223.6 L-180.9 223.6 L-182.9 223.7 L-184.8 223.8 L-186.8 223.8 L-188.7 223.9 L-190.6 223.9 L-192.6 224 L-194.5 224 L-196.4 224.1 L-198.4 224.1 L-200.3 224.2 L-202.2 224.2 L-204.2 224.3 L-206.1 224.3 L-208 224.4 L-210 224.5 L-211.9 224.5 L-213.8 224.6 L-215.8 224.6 L-217.7 224.7 L-219.6 224.7 L-221.6 224.8 L-223.5 224.8 L-223.6 222.9 L-223.6 221 L-223.7 219 L-223.7 217.1 L-223.8 215.2 L-223.8 213.2 L-223.9 211.3 L-223.9 209.4 L-224 207.4 L-224 205.5 L-224.1 203.6 L-224.1 201.6 L-224.2 199.7 L-224.3 197.8 L-224.3 195.8 L-224.4 193.9 L-224.4 192 L-224.5 190 L-224.5 188.1 L-224.6 186.2 L-224.6 184.2 L-224.7 182.3 L-224.7 180.4 L-224.8 178.4 L-224.9 176.5 Z " />
<path stroke="rgb(0,0,0)" stroke-opacity="1" fill="rgb(255,255,255)" fill-opacity="1" d="M-751.3 -499.2 L-751.5 -495.3 L-752 -491.5 L-752.8 -487.7 L-753.9 -483.9 L-755.3 -480.3 L-757 -476.8 L-759 -473.5 L-761.2 -470.3 L-763.7 -467.3 L-766.4 -464.5 L-769.3 -461.9 L-772.4 -459.6 L-775.7 -457.5 L-779.1 -455.7 L-782.7 -454.2 L-786.3 -453 L-790.1 -452 L-793.9 -451.4 L-797.8 -451 L-801.7 -451 L-805.6 -451.3 L-809.4 -451.9 L-813.2 -452.8 L-816.9 -454 L-820.5 -455.4 L-823.9 -457.2 L-827.2 -459.2 L-830.4 -461.5 L-833.3 -464 L-836.1 -466.8 L-838.6 -469.7 L-840.8 -472.9 L-842.8 -476.2 L-844.6 -479.7 L-846 -483.3 L-847.2 -487 L-848.1 -490.8 L-848.6 -494.6 L-848.9 -498.5 L-848.8 -502.4 L-848.5 -506.2 L-847.8 -510.1 L-846.9 -513.8 L-845.6 -517.5 L-844.1 -521 L-842.2 -524.5 L-840.1 -527.7 L-837.8 -530.8 L-835.2 -533.7 L-832.4 -536.4 L-829.4 -538.9 L-826.2 -541.1 L-822.8 -543 L-819.3 -544.7 L-815.7 -546.1 L-812 -547.2 L-808.2 -548 L-804.3 -548.4 L-800.4 -548.6 L-796.6 -548.5 L-792.7 -548.1 L-788.9 -547.3 L-785.2 -546.3 L-781.5 -544.9 L-778 -543.3 L-774.6 -541.4 L-771.4 -539.3 L-768.3 -536.9 L-765.5 -534.2 L-762.9 -531.4 L-760.5 -528.3 L-758.3 -525.1 L-756.4 -521.7 L-754.8 -518.1 L-753.5 -514.5 L-752.5 -510.7 L-751.8 -506.9 L-751.4 -503.1 L-751.3 -499.2 Z " />
<path stroke="rgb(0,0,0)" stroke-opacity="1" fill="rgb(255,255,255)" fill-opacity="1" d="M-24.28 175 L-22.31 175 L-20.34 175 L-18.36 175.1 L-16.39 175.1 L-14.42 175.1 L-12.45 175.2 L-10.48 175.2 L-8.504 175.2 L-6.532 175.2 L-4.56 175.3 L-2.588 175.3 L-0.6165 175.3 L1.355 175.4 L3.327 175.4 L5.299 175.4 L7.271 175.5 L9.243 175.5 L11.22 175.5 L13.19 175.5 L15.16 175.6 L17.13 175.6 L19.1 175.6 L21.07 175.7 L23.05 175.7 L25.02 175.7 L24.99 177.7 L24.96 179.7 L24.93 181.6 L24.9 183.6 L24.87 185.6 L24.84 187.6 L24.81 189.5 L24.78 191.5 L24.75 193.5 L24.72 195.4 L24.69 197.4 L24.66 199.4 L24.63 201.4 L24.6 203.3 L24.57 205.3 L24.54 207.3 L24.51 209.3 L24.48 211.2 L24.45 213.2 L24.42 215.2 L24.39 217.1 L24.36 219.1 L24.33 221.1 L24.3 223.1 L24.27 225 L22.29 225 L20.32 225 L18.35 224.9 L16.38 224.9 L14.41 224.9 L12.43 224.8 L10.46 224.8 L8.49 224.8 L6.518 224.8 L4.546 224.7 L2.574 224.7 L0.6021 224.7 L-1.37 224.6 L-3.342 224.6 L-5.314 224.6 L-7.286 224.5 L-9.258 224.5 L-11.23 224.5 L-13.2 224.5 L-15.17 224.4 L-17.15 224.4 L-19.12 224.4 L-21.09 224.3 L-23.06 224.3 L-25.03 224.3 L-25 222.3 L-24.97 220.3 L-24.94 218.4 L-24.91 216.4 L-24.88 214.4 L-24.85 212.4 L-24.82 210.5 L-24.79 208.5 L-24.76 206.5 L-24.73 204.6 L-24.7 202.6 L-24.67 200.6 L-24.64 198.6 L-24.61 196.7 L-24.58 194.7 L-24.55 192.7 L-24.52 190.7 L-24.49 188.8 L-24.46 186.8 L-24.43 184.8 L-24.4 182.9 L-24.37 180.9 L-24.34 178.9 L-24.31 176.9 L-24.28 175 Z " />
<path stroke="rgb(0,0,0)" stroke-opacity="1" fill="rgb(255,255,255)" fill-opacity="1" d="M-551.3 -499.2 L-551.5 -495.3 L-552 -491.5 L-552.8 -487.7 L-553.9 -483.9 L-555.3 -480.3 L-557 -476.8 L-559 -473.5 L-561.2 -470.3 L-563.7 -467.3 L-566.4 -464.5 L-569.3 -461.9 L-572.4 -459.6 L-575.7 -457.5 L-579.1 -455.7 L-582.7 -454.2 L-586.3 -453 L-590.1 -452 L-593.9 -451.4 L-597.8 -451 L-601.7 -451 L-605.6 -451.3 L-609.4 -451.9 L-613.2 -452.8 L-616.9 -454 L-620.5 -455.4 L-623.9 -457.2 L-627.2 -459.2 L-630.4 -461.5 L-633.3 -464 L-636.1 -466.8 L-638.6 -469.7 L-640.8 -472.9 L-642.8 -476.2 L-644.6 -479.7 L-646 -483.3 L-647.2 -487 L-648.1 -490.8 L-648.6 -494.6 L-648.9 -498.5 L-648.8 -502.4 L-648.5 -506.2 L-647.8 -510.1 L-646.9 -513.8 L-645.6 -517.5 L-644.1 -521 L-642.2 -524.5 L-640.1 -527.7 L-637.8 -530.8 L-635.2 -533.7 L-632.4 -536.4 L-629.4 -538.9 L-626.2 -541.1 L-622.8 -543 L-619.3 -544.7 L-615.7 -546.1 L-612 -547.2 L-608.2 -548 L-604.3 -548.4 L-600.4 -548.6 L-596.6 -548.5 L-592.7 -548.1 L-588.9 -547.3 L-585.2 -546.3 L-581.5 -544.9 L-578 -543.3 L-574.6 -541.4 L-571.4 -539.3 L-568.3 -536.9 L-565.5 -534.2 L-562.9 -531.4 L-560.5 -528.3 L-558.3 -525.1 L-556.4 -521.7 L-554.8 -518.1 L-553.5 -514.5 L-552.5 -510.7 L-551.8 -506.9 L-551.4 -503.1 L-551.3 -499.2 Z " />
<path stroke="rgb(0,0,0)" stroke-opacity="1" fill="rgb(255,255,255)" fill-opacity="1" d="M175.7 175 L177.7 175 L179.7 175 L181.6 175.1 L183.6 175.1 L185.6 175.1 L187.6 175.2 L189.5 175.2 L191.5 175.2 L193.5 175.2 L195.4 175.3 L197.4 175.3 L199.4 175.3 L201.4 175.4 L203.3 175.4 L205.3 175.4 L207.3 175.5 L209.2 175.5 L211.2 175.5 L213.2 175.5 L215.2 175.6 L217.1 175.6 L219.1 175.6 L221.1 175.7 L223 175.7 L225 175.7 L225 177.7 L225 179.7 L224.9 181.6 L224.9 183.6 L224.9 185.6 L224.8 187.6 L224.8 189.5 L224.8 191.5 L224.7 193.5 L224.7 195.4 L224.7 197.4 L224.7 199.4 L224.6 201.4 L224.6 203.3 L224.6 205.3 L224.5 207.3 L224.5 209.3 L224.5 211.2 L224.4 213.2 L224.4 215.2 L224.4 217.1 L224.4 219.1 L224.3 221.1 L224.3 223.1 L224.3 225 L222.3 225 L220.3 225 L218.3 224.9 L216.4 224.9 L214.4 224.9 L212.4 224.8 L210.5 224.8 L208.5 224.8 L206.5 224.8 L204.5 224.7 L202.6 224.7 L200.6 224.7 L198.6 224.6 L196.7 224.6 L194.7 224.6 L192.7 224.5 L190.7 224.5 L188.8 224.5 L186.8 224.5 L184.8 224.4 L182.9 224.4 L180.9 224.4 L178.9 224.3 L176.9 224.3 L175 224.3 L175 222.3 L175 220.3 L175.1 218.4 L175.1 216.4 L175.1 214.4 L175.1 212.4 L175.2 210.5 L175.2 208.5 L175.2 206.5 L175.3 204.6 L175.3 202.6 L175.3 200.6 L175.4 198.6 L175.4 196.7 L175.4 194.7 L175.4 192.7 L175.5 190.7 L175.5 188.8 L175.5 186.8 L175.6 184.8 L175.6 182.9 L175.6 180.9 L175.7 178.9 L175.7 176.9 L175.7 175 Z " />
<path stroke="rgb(0,0,0)" stroke-opacity="1" fill="rgb(255,255,255)" fill-opacity="1" d="M-352.5 -501.9 L-352.5 -498.1 L-352.8 -494.3 L-353.4 -490.5 L-354.2 -486.9 L-355.4 -483.3 L-356.9 -479.8 L-358.6 -476.4 L-360.6 -473.2 L-362.8 -470.1 L-365.3 -467.3 L-368 -464.6 L-370.9 -462.2 L-374 -460 L-377.2 -458 L-380.6 -456.3 L-384.1 -454.9 L-387.7 -453.8 L-391.4 -452.9 L-395.2 -452.4 L-398.9 -452.2 L-402.7 -452.2 L-406.5 -452.6 L-410.2 -453.2 L-413.9 -454.2 L-417.5 -455.4 L-420.9 -457 L-424.3 -458.8 L-427.5 -460.8 L-430.5 -463.1 L-433.3 -465.6 L-435.9 -468.4 L-438.3 -471.3 L-440.4 -474.4 L-442.3 -477.7 L-443.9 -481.2 L-445.3 -484.7 L-446.3 -488.3 L-447.1 -492 L-447.5 -495.8 L-447.7 -499.6 L-447.6 -503.4 L-447.1 -507.1 L-446.4 -510.8 L-445.4 -514.5 L-444.1 -518 L-442.5 -521.5 L-440.6 -524.8 L-438.5 -527.9 L-436.1 -530.9 L-433.5 -533.6 L-430.8 -536.2 L-427.8 -538.5 L-424.6 -540.6 L-421.3 -542.4 L-417.8 -544 L-414.3 -545.2 L-410.6 -546.2 L-406.9 -546.9 L-403.1 -547.3 L-399.3 -547.4 L-395.5 -547.2 L-391.8 -546.7 L-388.1 -545.9 L-384.5 -544.8 L-380.9 -543.4 L-377.5 -541.7 L-374.3 -539.8 L-371.2 -537.6 L-368.3 -535.2 L-365.5 -532.6 L-363 -529.7 L-360.8 -526.7 L-358.8 -523.5 L-357 -520.1 L-355.5 -516.6 L-354.3 -513 L-353.4 -509.4 L-352.8 -505.6 L-352.5 -501.9 Z " />
<path stroke="rgb(0,0,0)" stroke-opacity="1" fill="rgb(255,255,255)" fill-opacity="1" d="M-324.9 276.5 L-322.9 276.4 L-321 276.4 L-319.1 276.3 L-317.1 276.3 L-315.2 276.2 L-313.3 276.2 L-311.3 276.1 L-309.4 276.1 L-307.4 276 L-305.5 275.9 L-303.6 275.9 L-301.6 275.8 L-299.7 275.8 L-297.8 275.7 L-295.8 275.7 L-293.9 275.6 L-292 275.6 L-290 275.5 L-288.1 275.5 L-286.2 275.4 L-284.2 275.3 L-282.3 275.3 L-280.4 275.2 L-278.4 275.2 L-276.5 275.1 L-276.5 277.1 L-276.4 279 L-276.3 280.9 L-276.3 282.9 L-276.2 284.8 L-276.2 286.7 L-276.1 288.7 L-276.1 290.6 L-276 292.5 L-276 294.5 L-275.9 296.4 L-275.9 298.3 L-275.8 300.3 L-275.7 302.2 L-275.7 304.1 L-275.6 306.1 L-275.6 308 L-275.5 309.9 L-275.5 311.9 L-275.4 313.8 L-275.4 315.7 L-275.3 317.7 L-275.3 319.6 L-275.2 321.5 L-275.1 323.5 L-277.1 323.5 L-279 323.6 L-280.9 323.6 L-282.9 323.7 L-284.8 323.8 L-286.8 323.8 L-288.7 323.9 L-290.6 323.9 L-292.6 324 L-294.5 324 L-296.4 324.1 L-298.4 324.1 L-300.3 324.2 L-302.2 324.2 L-304.2 324.3 L-306.1 324.3 L-308 324.4 L-310 324.5 L-311.9 324.5 L-313.8 324.6 L-315.8 324.6 L-317.7 324.7 L-319.6 324.7 L-321.6 324.8 L-323.5 324.8 L-323.6 322.9 L-323.6 321 L-323.7 319 L-323.7 317.1 L-323.8 315.2 L-323.8 313.2 L-323.9 311.3 L-323.9 309.4 L-324 307.4 L-324 305.5 L-324.1 303.6 L-324.1 301.6 L-324.2 299.7 L-324.3 297.8 L-324.3 295.8 L-324.4 293.9 L-324.4 292 L-324.5 290 L-324.5 288.1 L-324.6 286.2 L-324.6 284.2 L-324.7 282.3 L-324.7 280.4 L-324.8 278.4 L-324.9 276.5 Z " />
<path stroke="rgb(0,0,0)" stroke-opacity="1" fill="rgb(255,255,255)" fill-opacity="1" d="M-851.3 -399.2 L-851.5 -395.3 L-852 -391.5 L-852.8 -387.7 L-853.9 -383.9 L-855.3 -380.3 L-857 -376.8 L-859 -373.5 L-861.2 -370.3 L-863.7 -367.3 L-866.4 -364.5 L-869.3 -361.9 L-872.4 -359.6 L-875.7 -357.5 L-879.1 -355.7 L-882.7 -354.2 L-886.3 -353 L-890.1 -352 L-893.9 -351.4 L-897.8 -351 L-901.7 -351 L-905.6 -351.3 L-909.4 -351.9 L-913.2 -352.8 L-916.9 -354 L-920.5 -355.4 L-923.9 -357.2 L-927.2 -359.2 L-930.4 -361.5 L-933.3 -364 L-936.1 -366.8 L-938.6 -369.7 L-940.8 -372.9 L-942.8 -376.2 L-944.6 -379.7 L-946 -383.3 L-947.2 -387 L-948.1 -390.8 L-948.6 -394.6 L-948.9 -398.5 L-948.8 -402.4 L-948.5 -406.2 L-947.8 -410.1 L-946.9 -413.8 L-945.6 -417.5 L-944.1 -421 L-942.2 -424.5 L-940.1 -427.7 L-937.8 -430.8 L-935.2 -433.7 L-932.4 -436.4 L-929.4 -438.9 L-926.2 -441.1 L-922.8 -443 L-919.3 -444.7 L-915.7 -446.1 L-912 -447.2 L-908.2 -448 L-904.3 -448.4 L-900.4 -448.6 L-896.6 -448.5 L-892.7 -448.1 L-888.9 -447.3 L-885.2 -446.3 L-881.5 -444.9 L-878 -443.3 L-874.6 -441.4 L-871.4 -439.3 L-868.3 -436.9 L-865.5 -434.2 L-862.9 -431.4 L-860.5 -428.3 L-858.3 -425.1 L-856.4 -421.7 L-854.8 -418.1 L-853.5 -414.5 L-852.5 -410.7 L-851.8 -406.9 L-851.4 -403.1 L-851.3 -399.2 Z " />
<path stroke="rgb(0,0,0)" stroke-opacity="1" fill="rgb(255,255,255)" fill-opacity="1" d="M-124.3 275 L-122.3 275 L-120.3 275 L-118.4 275.1 L-116.4 275.1 L-114.4 275.1 L-112.4 275.2 L-110.5 275.2 L-108.5 275.2 L-106.5 275.2 L-104.6 275.3 L-102.6 275.3 L-100.6 275.3 L-98.64 275.4 L-96.67 275.4 L-94.7 275.4 L-92.73 275.5 L-90.76 275.5 L-88.78 275.5 L-86.81 275.5 L-84.84 275.6 L-82.87 275.6 L-80.9 275.6 L-78.93 275.7 L-76.95 275.7 L-74.98 275.7 L-75.01 277.7 L-75.04 279.7 L-75.07 281.6 L-75.1 283.6 L-75.13 285.6 L-75.16 287.6 L-75.19 289.5 L-75.22 291.5 L-75.25 293.5 L-75.28 295.4 L-75.31 297.4 L-75.34 299.4 L-75.37 301.4 L-75.4 303.3 L-75.43 305.3 L-75.46 307.3 L-75.49 309.3 L-75.52 311.2 L-75.55 313.2 L-75.58 315.2 L-75.61 317.1 L-75.64 319.1 L-75.67 321.1 L-75.7 323.1 L-75.73 325 L-77.71 325 L-79.68 325 L-81.65 324.9 L-83.62 324.9 L-85.59 324.9 L-87.57 324.8 L-89.54 324.8 L-91.51 324.8 L-93.48 324.8 L-95.45 324.7 L-97.43 324.7 L-99.4 324.7 L-101.4 324.6 L-103.3 324.6 L-105.3 324.6 L-107.3 324.5 L-109.3 324.5 L-111.2 324.5 L-113.2 324.5 L-115.2 324.4 L-117.1 324.4 L-119.1 324.4 L-121.1 324.3 L-123.1 324.3 L-125 324.3 L-125 322.3 L-125 320.3 L-124.9 318.4 L-124.9 316.4 L-124.9 314.4 L-124.9 312.4 L-124.8 310.5 L-124.8 308.5 L-124.8 306.5 L-124.7 304.6 L-124.7 302.6 L-124.7 300.6 L-124.6 298.6 L-124.6 296.7 L-124.6 294.7 L-124.6 292.7 L-124.5 290.7 L-124.5 288.8 L-124.5 286.8 L-124.4 284.8 L-124.4 282.9 L-124.4 280.9 L-124.3 278.9 L-124.3 276.9 L-124.3 275 Z " />
<path stroke="rgb(0,0,0)" stroke-opacity="1" fill="rgb(255,255,255)" fill-opacity="1" d="M-651.3 -399.2 L-651.5 -395.3 L-652 -391.5 L-652.8 -387.7 L-653.9 -383.9 L-655.3 -380.3 L-657 -376.8 L-659 -373.5 L-661.2 -370.3 L-663.7 -367.3 L-666.4 -364.5 L-669.3 -361.9 L-672.4 -359.6 L-675.7 -357.5 L-679.1 -355.7 L-682.7 -354.2 L-686.3 -353 L-690.1 -352 L-693.9 -351.4 L-697.8 -351 L-701.7 -351 L-705.6 -351.3 L-709.4 -351.9 L-713.2 -352.8 L-716.9 -354 L-720.5 -355.4 L-723.9 -357.2 L-727.2 -359.2 L-730.4 -361.5 L-733.3 -364 L-736.1 -366.8 L-738.6 -369.7 L-740.8 -372.9 L-742.8 -376.2 L-744.6 -379.7 L-746 -383.3 L-747.2 -387 L-748.1 -390.8 L-748.6 -394.6 L-748.9 -398.5 L-748.8 -402.4 L-748.5 -406.2 L-747.8 -410.1 L-746.9 -413.8 L-745.6 -417.5 L-744.1 -421 L-742.2 -424.5 L-740.1 -427.7 L-737.8 -430.8 L-735.2 -433.7 L-732.4 -436.4 L-729.4 -438.9 L-726.2 -441.1 L-722.8 -443 L-719.3 -444.7 L-715.7 -446.1 L-712 -447.2 L-708.2 -448 L-704.3 -448.4 L-700.4 -448.6 L-696.6 -448.5 L-692.7 -448.1 L-688.9 -447.3 L-685.2 -446.3 L-681.5 -444.9 L-678 -443.3 L-674.6 -441.4 L-671.4 -439.3 L-668.3 -436.9 L-665.5 -434.2 L-662.9 -431.4 L-660.5 -428.3 L-658.3 -425.1 L-656.4 -421.7 L-654.8 -418.1 L-653.5 -414.5 L-652.5 -410.7 L-651.8 -406.9 L-651.4 -403.1 L-651.3 -399.2 Z " />
<path stroke="rgb(0,0,0)" stroke-opacity="1" fill="rgb(255,255,255)" fill-opacity="1" d="M75.72 275 L77.69 275 L79.66 275 L81.64 275.1 L83.61 275.1 L85.58 275.1 L87.55 275.2 L89.52 275.2 L91.5 275.2 L93.47 275.2 L95.44 275.3 L97.41 275.3 L99.38 275.3 L101.4 275.4 L103.3 275.4 L105.3 275.4 L107.3 275.5 L109.2 275.5 L111.2 275.5 L113.2 275.5 L115.2 275.6 L117.1 275.6 L119.1 275.6 L121.1 275.7 L123 275.7 L125 275.7 L125 277.7 L125 279.7 L124.9 281.6 L124.9 283.6 L124.9 285.6 L124.8 287.6 L124.8 289.5 L124.8 291.5 L124.7 293.5 L124.7 295.4 L124.7 297.4 L124.7 299.4 L124.6 301.4 L124.6 303.3 L124.6 305.3 L124.5 307.3 L124.5 309.3 L124.5 311.2 L124.4 313.2 L124.4 315.2 L124.4 317.1 L124.4 319.1 L124.3 321.1 L124.3 323.1 L124.3 325 L122.3 325 L120.3 325 L118.3 324.9 L116.4 324.9 L114.4 324.9 L112.4 324.8 L110.5 324.8 L108.5 324.8 L106.5 324.8 L104.5 324.7 L102.6 324.7 L100.6 324.7 L98.63 324.6 L96.66 324.6 L94.69 324.6 L92.71 324.5 L90.74 324.5 L88.77 324.5 L86.8 324.5 L84.83 324.4 L82.85 324.4 L80.88 324.4 L78.91 324.3 L76.94 324.3 L74.97 324.3 L75 322.3 L75.03 320.3 L75.06 318.4 L75.09 316.4 L75.12 314.4 L75.15 312.4 L75.18 310.5 L75.21 308.5 L75.24 306.5 L75.27 304.6 L75.3 302.6 L75.33 300.6 L75.36 298.6 L75.39 296.7 L75.42 294.7 L75.45 292.7 L75.48 290.7 L75.51 288.8 L75.54 286.8 L75.57 284.8 L75.6 282.9 L75.63 280.9 L75.66 278.9 L75.69 276.9 L75.72 275 Z " />
<path stroke="rgb(0,0,0)" stroke-opacity="1" fill="rgb(255,255,255)" fill-opacity="1" d="M-452.5 -401.9 L-452.5 -398.1 L-452.8 -394.3 L-453.4 -390.5 L-454.2 -386.9 L-455.4 -383.3 L-456.9 -379.8 L-458.6 -376.4 L-460.6 -373.2 L-462.8 -370.1 L-465.3 -367.3 L-468 -364.6 L-470.9 -362.2 L-474 -360 L-477.2 -358 L-480.6 -356.3 L-484.1 -354.9 L-487.7 -353.8 L-491.4 -352.9 L-495.2 -352.4 L-498.9 -352.2 L-502.7 -352.2 L-506.5 -352.6 L-510.2 -353.2 L-513.9 -354.2 L-517.5 -355.4 L-520.9 -357 L-524.3 -358.8 L-527.5 -360.8 L-530.5 -363.1 L-533.3 -365.6 L-535.9 -368.4 L-538.3 -371.3 L-540.4 -374.4 L-542.3 -377.7 L-543.9 -381.2 L-545.3 -384.7 L-546.3 -388.3 L-547.1 -392 L-547.5 -395.8 L-547.7 -399.6 L-547.6 -403.4 L-547.1 -407.1 L-546.4 -410.8 L-545.4 -414.5 L-544.1 -418 L-542.5 -421.5 L-540.6 -424.8 L-538.5 -427.9 L-536.1 -430.9 L-533.5 -433.6 L-530.8 -436.2 L-527.8 -438.5 L-524.6 -440.6 L-521.3 -442.4 L-517.8 -444 L-514.3 -445.2 L-510.6 -446.2 L-506.9 -446.9 L-503.1 -447.3 L-499.3 -447.4 L-495.5 -447.2 L-491.8 -446.7 L-488.1 -445.9 L-484.5 -444.8 L-480.9 -443.4 L-477.5 -441.7 L-474.3 -439.8 L-471.2 -437.6 L-468.3 -435.2 L-465.5 -432.6 L-463 -429.7 L-460.8 -426.7 L-458.8 -423.5 L-457 -420.1 L-455.5 -416.6 L-454.3 -413 L-453.4 -409.4 L-452.8 -405.6 L-452.5 -401.9 Z " />
<path stroke="rgb(0,0,0)" stroke-opacity="1" fill="rgb(255,255,255)" fill-opacity="1" d="M275.7 275 L277.7 275 L279.7 275 L281.6 275.1 L283.6 275.1 L285.6 275.1 L287.6 275.2 L289.5 275.2 L291.5 275.2 L293.5 275.2 L295.4 275.3 L297.4 275.3 L299.4 275.3 L301.4 275.4 L303.3 275.4 L305.3 275.4 L307.3 275.5 L309.2 275.5 L311.2 275.5 L313.2 275.5 L315.2 275.6 L317.1 275.6 L319.1 275.6 L321.1 275.7 L323 275.7 L325 275.7 L325 277.7 L325 279.7 L324.9 281.6 L324.9 283.6 L324.9 285.6 L324.8 287.6 L324.8 289.5 L324.8 291.5 L324.7 293.5 L324.7 295.4 L324.7 297.4 L324.7 299.4 L324.6 301.4 L324.6 303.3 L324.6 305.3 L324.5 307.3 L324.5 309.3 L324.5 311.2 L324.4 313.2 L324.4 315.2 L324.4 317.1 L324.4 319.1 L324.3 321.1 L324.3 323.1 L324.3 325 L322.3 325 L320.3 325 L318.3 324.9 L316.4 324.9 L314.4 324.9 L312.4 324.8 L310.5 324.8 L308.5 324.8 L306.5 324.8 L304.5 324.7 L302.6 324.7 L300.6 324.7 L298.6 324.6 L296.7 324.6 L294.7 324.6 L292.7 324.5 L290.7 324.5 L288.8 324.5 L286.8 324.5 L284.8 324.4 L282.9 324.4 L280.9 324.4 L278.9 324.3 L276.9 324.3 L275 324.3 L275 322.3 L275 320.3 L275.1 318.4 L275.1 316.4 L275.1 314.4 L275.1 312.4 L275.2 310.5 L275.2 308.5 L275.2 306.5 L275.3 304.6 L275.3 302.6 L275.3 300.6 L275.4 298.6 L275.4 296.7 L275.4 294.7 L275.4 292.7 L275.5 290.7 L275.5 288.8 L275.5 286.8 L275.6 284.8 L275.6 282.9 L275.6 280.9 L275.7 278.9 L275.7 276.9 L275.7 275 Z " />
</g>
</g>
</svg>
