<!DOCTYPE svg>
<svg xmlns="http://www.w3.org/2000/svg" xmlns:xlink="http://www.w3.org/1999/xlink" width="1000" height="1000">
<g transform="translate(500.000000,500.000000)">
<g transform="scale(3.000000,3.000000)">
<path stroke="rgb(0,0,0)" stroke-opacity="1" fill="rgb(255,255,255)" fill-opacity="1" d="M-724.5 -724.9 L-722.5 -724.9 L-720.5 -724.8 L-718.5 -724.8 L-716.6 -724.8 L-714.6 -724.8 L-712.6 -724.8 L-710.6 -724.8 L-708.7 -724.7 L-706.7 -724.7 L-704.7 -724.7 L-702.7 -724.7 L-700.8 -724.7 L-698.8 -724.7 L-696.8 -724.6 L-694.8 -724.6 L-692.9 -724.6 L-690.9 -724.6 L-688.9 -724.6 L-687 -724.6 L-685 -724.5 L-683 -724.5 L-681 -724.5 L-679.1 -724.5 L-677.1 -724.5 L-675.1 -724.5 L-675.1 -722.5 L-675.1 -720.5 L-675.2 -718.5 L-675.2 -716.6 L-675.2 -714.6 L-675.2 -712.6 L-675.2 -710.6 L-675.2 -708.7 L-675.3 -706.7 L-675.3 -704.7 L-675.3 -702.7 L-675.3 -700.8 L-675.3 -698.8 L-675.3 -696.8 L-675.4 -694.8 L-675.4 -692.9 L-675.4 -690.9 L-675.4 -688.9 L-675.4 -686.9 L-675.4 -685 L-675.5 -683 L-675.5 -681 L-675.5 -679.1 L-675.5 -677.1 L-675.5 -675.1 L-677.5 -675.1 L-679.5 -675.1 L-681.5 -675.2 L-683.4 -675.2 L-685.4 -675.2 L-687.4 -675.2 L-689.4 -675.2 L-691.3 -675.2 L-693.3 -675.3 L-695.3 -675.3 L-697.2 -675.3 L-699.2 -675.3 L-701.2 -675.3 L-703.2 -675.3 L-705.1 -675.4 L-707.1 -675.4 L-709.1 -675.4 L-711.1 -675.4 L-713 -675.4 L-715 -675.4 L-717 -675.5 L-719 -675.5 L-720.9 -675.5 L-722.9 -675.5 L-724.9 -675.5 L-724.9 -677.5 L-724.9 -679.5 L-724.8 -681.5 L-724.8 -683.4 L-724.8 -685.4 L-724.8 -687.4 L-724.8 -689.3 L-724.8 -691.3 L-724.7 -693.3 L-724.7 -695.3 L-724.7 -697.2 L-724.7 -699.2 L-724.7 -701.2 L-724.6 -703.2 L-724.6 -705.1 L-724.6 -707.1 L-724.6 -709.1 L-724.6 -711.1 L-724.6 -713 L-724.5 -715 L-724.5 -717 L-724.5 -719 L-724.5 -720.9 L-724.5 -722.9 L-724.5 -724.9 Z " />
<path stroke="rgb(0,0,0)" stroke-opacity="0.197" fill="rgb(255,255,255)" fill-opacity="1" d="M-175.2 -299.8 L-175.3 -297.8 L-175.5 -295.9 L-176 -293.9 L-176.5 -292 L-177.2 -290.2 L-178.1 -288.4 L-179.1 -286.7 L-180.2 -285.1 L-181.4 -283.6 L-182.8 -282.1 L-184.3 -280.8 L-185.8 -279.6 L-187.5 -278.6 L-189.2 -277.7 L-191.1 -276.9 L-192.9 -276.2 L-194.8 -275.7 L-196.8 -275.4 L-198.7 -275.2 L-200.7 -275.2 L-202.7 -275.3 L-204.6 -275.6 L-206.5 -276.1 L-208.4 -276.7 L-210.3 -277.4 L-212 -278.3 L-213.7 -279.3 L-215.3 -280.5 L-216.8 -281.8 L-218.2 -283.2 L-219.5 -284.7 L-220.6 -286.3 L-221.7 -287.9 L-222.6 -289.7 L-223.3 -291.5 L-223.9 -293.4 L-224.4 -295.3 L-224.6 -297.3 L-224.8 -299.2 L-224.8 -301.2 L-224.6 -303.2 L-224.3 -305.1 L-223.8 -307 L-223.1 -308.9 L-222.4 -310.7 L-221.4 -312.4 L-220.4 -314.1 L-219.2 -315.7 L-217.9 -317.2 L-216.5 -318.5 L-215 -319.8 L-213.3 -320.9 L-211.6 -321.9 L-209.9 -322.8 L-208 -323.5 L-206.1 -324 L-204.2 -324.4 L-202.2 -324.7 L-200.3 -324.8 L-198.3 -324.7 L-196.3 -324.5 L-194.4 -324.2 L-192.5 -323.6 L-190.6 -323 L-188.9 -322.2 L-187.1 -321.2 L-185.5 -320.1 L-183.9 -318.9 L-182.5 -317.6 L-181.1 -316.1 L-179.9 -314.6 L-178.8 -312.9 L-177.9 -311.2 L-177 -309.4 L-176.4 -307.6 L-175.8 -305.7 L-175.5 -303.7 L-175.3 -301.8 L-175.2 -299.8 Z " />
<path stroke="rgb(0,0,0)" stroke-opacity="1" fill="rgb(255,255,255)" fill-opacity="1" d="M-524.5 -724.9 L-522.5 -724.9 L-520.5 -724.8 L-518.5 -724.8 L-516.6 -724.8 L-514.6 -724.8 L-512.6 -724.8 L-510.6 -724.8 L-508.7 -724.7 L-506.7 -724.7 L-504.7 -724.7 L-502.7 -724.7 L-500.8 -724.7 L-498.8 -724.7 L-496.8 -724.6 L-494.8 -724.6 L-492.9 -724.6 L-490.9 -724.6 L-488.9 -724.6 L-487 -724.6 L-485 -724.5 L-483 -724.5 L-481 -724.5 L-479.1 -724.5 L-477.1 -724.5 L-475.1 -724.5 L-475.1 -722.5 L-475.1 -720.5 L-475.2 -718.5 L-475.2 -716.6 L-475.2 -714.6 L-475.2 -712.6 L-475.2 -710.6 L-475.2 -708.7 L-475.3 -706.7 L-475.3 -704.7 L-475.3 -702.7 L-475.3 -700.8 L-475.3 -698.8 L-475.3 -696.8 L-475.4 -694.8 L-475.4 -692.9 L-475.4 -690.9 L-475.4 -688.9 L-475.4 -686.9 L-475.4 -685 L-475.5 -683 L-475.5 -681 L-475.5 -679.1 L-475.5 -677.1 L-475.5 -675.1 L-477.5 -675.1 L-479.5 -675.1 L-481.5 -675.2 L-483.4 -675.2 L-485.4 -675.2 L-487.4 -675.2 L-489.4 -675.2 L-491.3 -675.2 L-493.3 -675.3 L-495.3 -675.3 L-497.2 -675.3 L-499.2 -675.3 L-501.2 -675.3 L-503.2 -675.3 L-505.1 -675.4 L-507.1 -675.4 L-509.1 -675.4 L-511.1 -675.4 L-513 -675.4 L-515 -675.4 L-517 -675.5 L-519 -675.5 L-520.9 -675.5 L-522.9 -675.5 L-524.9 -675.5 L-524.9 -677.5 L-524.9 -679.5 L-524.8 -681.5 L-524.8 -683.4 L-524.8 -685.4 L-524.8 -687.4 L-524.8 -689.3 L-524.8 -691.3 L-524.7 -693.3 L-524.7 -695.3 L-524.7 -697.2 L-524.7 -699.2 L-524.7 -701.2 L-524.6 -703.2 L-524.6 -705.1 L-524.6 -707.1 L-524.6 -709.1 L-524.6 -711.1 L-524.6 -713 L-524.5 -715 L-524.5 -717 L-524.5 -719 L-524.5 -720.9 L-524.5 -722.9 L-524.5 -724.9 Z " />
<path stroke="rgb(0,0,0)" stroke-opacity="0.197" fill="rgb(255,255,255)" fill-opacity="1" d="M24.8 -299.8 L24.71 -297.8 L24.45 -295.9 L24.05 -293.9 L23.49 -292 L22.78 -290.2 L21.93 -288.4 L20.94 -286.7 L19.82 -285.1 L18.57 -283.6 L17.21 -282.1 L15.74 -280.8 L14.16 -279.6 L12.5 -278.6 L10.76 -277.7 L8.949 -276.9 L7.083 -276.2 L5.172 -275.7 L3.229 -275.4 L1.265 -275.2 L-0.7071 -275.2 L-2.674 -275.3 L-4.625 -275.6 L-6.546 -276.1 L-8.426 -276.7 L-10.25 -277.4 L-12.01 -278.3 L-13.7 -279.3 L-15.3 -280.5 L-16.8 -281.8 L-18.2 -283.2 L-19.48 -284.7 L-20.64 -286.3 L-21.66 -287.9 L-22.55 -289.7 L-23.3 -291.5 L-23.9 -293.4 L-24.35 -295.3 L-24.65 -297.3 L-24.79 -299.2 L-24.77 -301.2 L-24.6 -303.2 L-24.27 -305.1 L-23.78 -307 L-23.15 -308.9 L-22.37 -310.7 L-21.45 -312.4 L-20.39 -314.1 L-19.21 -315.7 L-17.9 -317.2 L-16.48 -318.5 L-14.96 -319.8 L-13.34 -320.9 L-11.63 -321.9 L-9.856 -322.8 L-8.017 -323.5 L-6.127 -324 L-4.199 -324.4 L-2.243 -324.7 L-0.274 -324.8 L1.697 -324.7 L3.658 -324.5 L5.595 -324.2 L7.497 -323.6 L9.352 -323 L11.15 -322.2 L12.87 -321.2 L14.52 -320.1 L16.07 -318.9 L17.52 -317.6 L18.86 -316.1 L20.08 -314.6 L21.17 -312.9 L22.13 -311.2 L22.95 -309.4 L23.63 -307.6 L24.15 -305.7 L24.52 -303.7 L24.74 -301.8 L24.8 -299.8 Z " />
<path stroke="rgb(0,0,0)" stroke-opacity="1" fill="rgb(255,255,255)" fill-opacity="1" d="M-324.5 -724.9 L-322.5 -724.9 L-320.5 -724.8 L-318.5 -724.8 L-316.6 -724.8 L-314.6 -724.8 L-312.6 -724.8 L-310.6 -724.8 L-308.7 -724.7 L-306.7 -724.7 L-304.7 -724.7 L-302.7 -724.7 L-300.8 -724.7 L-298.8 -724.7 L-296.8 -724.6 L-294.8 -724.6 L-292.9 -724.6 L-290.9 -724.6 L-288.9 -724.6 L-287 -724.6 L-285 -724.5 L-283 -724.5 L-281 -724.5 L-279.1 -724.5 L-277.1 -724.5 L-275.1 -724.5 L-275.1 -722.5 L-275.1 -720.5 L-275.2 -718.5 L-275.2 -716.6 L-275.2 -714.6 L-275.2 -712.6 L-275.2 -710.6 L-275.2 -708.7 L-275.3 -706.7 L-275.3 -704.7 L-275.3 -702.7 L-275.3 -700.8 L-275.3 -698.8 L-275.3 -696.8 L-275.4 -694.8 L-275.4 -692.9 L-275.4 -690.9 L-275.4 -688.9 L-275.4 -686.9 L-275.4 -685 L-275.5 -683 L-275.5 -681 L-275.5 -679.1 L-275.5 -677.1 L-275.5 -675.1 L-277.5 -675.1 L-279.5 -675.1 L-281.5 -675.2 L-283.4 -675.2 L-285.4 -675.2 L-287.4 -675.2 L-289.4 -675.2 L-291.3 -675.2 L-293.3 -675.3 L-295.3 -675.3 L-297.2 -675.3 L-299.2 -675.3 L-301.2 -675.3 L-303.2 -675.3 L-305.1 -675.4 L-307.1 -675.4 L-309.1 -675.4 L-311.1 -675.4 L-313 -675.4 L-315 -675.4 L-317 -675.5 L-319 -675.5 L-320.9 -675.5 L-322.9 -675.5 L-324.9 -675.5 L-324.9 -677.5 L-324.9 -679.5 L-324.8 -681.5 L-324.8 -683.4 L-324.8 -685.4 L-324.8 -687.4 L-324.8 -689.3 L-324.8 -691.3 L-324.7 -693.3 L-324.7 -695.3 L-324.7 -697.2 L-324.7 -699.2 L-324.7 -701.2 L-324.6 -703.2 L-324.6 -705.1 L-324.6 -707.1 L-324.6 -709.1 L-324.6 -711.1 L-324.6 -713 L-324.5 -715 L-324.5 -717 L-324.5 -719 L-324.5 -720.9 L-324.5 -722.9 L-324.5 -724.9 Z " />
<path stroke="rgb(0,0,0)" stroke-opacity="0.197" fill="rgb(255,255,255)" fill-opacity="1" d="M224.8 -299.8 L224.7 -297.8 L224.5 -295.9 L224 -293.9 L223.5 -292 L222.8 -290.2 L221.9 -288.4 L220.9 -286.7 L219.8 -285.1 L218.6 -283.6 L217.2 -282.1 L215.7 -280.8 L214.2 -279.6 L212.5 -278.6 L210.8 -277.7 L208.9 -276.9 L207.1 -276.2 L205.2 -275.7 L203.2 -275.4 L201.3 -275.2 L199.3 -275.2 L197.3 -275.3 L195.4 -275.6 L193.5 -276.1 L191.6 -276.7 L189.7 -277.4 L188 -278.3 L186.3 -279.3 L184.7 -280.5 L183.2 -281.8 L181.8 -283.2 L180.5 -284.7 L179.4 -286.3 L178.3 -287.9 L177.4 -289.7 L176.7 -291.5 L176.1 -293.4 L175.6 -295.3 L175.4 -297.3 L175.2 -299.2 L175.2 -301.2 L175.4 -303.2 L175.7 -305.1 L176.2 -307 L176.9 -308.9 L177.6 -310.7 L178.6 -312.4 L179.6 -314.1 L180.8 -315.7 L182.1 -317.2 L183.5 -318.5 L185 -319.8 L186.7 -320.9 L188.4 -321.9 L190.1 -322.8 L192 -323.5 L193.9 -324 L195.8 -324.4 L197.8 -324.7 L199.7 -324.8 L201.7 -324.7 L203.7 -324.5 L205.6 -324.2 L207.5 -323.6 L209.4 -323 L211.1 -322.2 L212.9 -321.2 L214.5 -320.1 L216.1 -318.9 L217.5 -317.6 L218.9 -316.1 L220.1 -314.6 L221.2 -312.9 L222.1 -311.2 L223 -309.4 L223.6 -307.6 L224.2 -305.7 L224.5 -303.7 L224.7 -301.8 L224.8 -299.8 Z " />
<path stroke="rgb(0,0,0)" stroke-opacity="1" fill="rgb(255,255,255)" fill-opacity="1" d="M-124.5 -724.9 L-122.5 -724.9 L-120.5 -724.8 L-118.5 -724.8 L-116.6 -724.8 L-114.6 -724.8 L-112.6 -724.8 L-110.6 -724.8 L-108.7 -724.7 L-106.7 -724.7 L-104.7 -724.7 L-102.7 -724.7 L-100.8 -724.7 L-98.8 -724.7 L-96.82 -724.6 L-94.85 -724.6 L-92.87 -724.6 L-90.9 -724.6 L-88.93 -724.6 L-86.95 -724.6 L-84.98 -724.5 L-83 -724.5 L-81.03 -724.5 L-79.06 -724.5 L-77.08 -724.5 L-75.11 -724.5 L-75.12 -722.5 L-75.14 -720.5 L-75.16 -718.5 L-75.18 -716.6 L-75.19 -714.6 L-75.21 -712.6 L-75.23 -710.6 L-75.24 -708.7 L-75.26 -706.7 L-75.28 -704.7 L-75.29 -702.7 L-75.31 -700.8 L-75.33 -698.8 L-75.35 -696.8 L-75.36 -694.8 L-75.38 -692.9 L-75.4 -690.9 L-75.41 -688.9 L-75.43 -686.9 L-75.45 -685 L-75.46 -683 L-75.48 -681 L-75.5 -679.1 L-75.51 -677.1 L-75.53 -675.1 L-77.51 -675.1 L-79.48 -675.1 L-81.45 -675.2 L-83.43 -675.2 L-85.4 -675.2 L-87.38 -675.2 L-89.35 -675.2 L-91.33 -675.2 L-93.3 -675.3 L-95.27 -675.3 L-97.25 -675.3 L-99.22 -675.3 L-101.2 -675.3 L-103.2 -675.3 L-105.1 -675.4 L-107.1 -675.4 L-109.1 -675.4 L-111.1 -675.4 L-113 -675.4 L-115 -675.4 L-117 -675.5 L-119 -675.5 L-120.9 -675.5 L-122.9 -675.5 L-124.9 -675.5 L-124.9 -677.5 L-124.9 -679.5 L-124.8 -681.5 L-124.8 -683.4 L-124.8 -685.4 L-124.8 -687.4 L-124.8 -689.3 L-124.8 -691.3 L-124.7 -693.3 L-124.7 -695.3 L-124.7 -697.2 L-124.7 -699.2 L-124.7 -701.2 L-124.6 -703.2 L-124.6 -705.1 L-124.6 -707.1 L-124.6 -709.1 L-124.6 -711.1 L-124.6 -713 L-124.5 -715 L-124.5 -717 L-124.5 -719 L-124.5 -720.9 L-124.5 -722.9 L-124.5 -724.9 Z " />
<path stroke="rgb(0,0,0)" stroke-opacity="0.197" fill="rgb(255,255,255)" fill-opacity="1" d="M-275.2 -199.8 L-275.3 -197.8 L-275.5 -195.9 L-276 -193.9 L-276.5 -192 L-277.2 -190.2 L-278.1 -188.4 L-279.1 -186.7 L-280.2 -185.1 L-281.4 -183.6 L-282.8 -182.1 L-284.3 -180.8 L-285.8 -179.6 L-287.5 -178.6 L-289.2 -177.7 L-291.1 -176.9 L-292.9 -176.2 L-294.8 -175.7 L-296.8 -175.4 L-298.7 -175.2 L-300.7 -175.2 L-302.7 -175.3 L-304.6 -175.6 L-306.5 -176.1 L-308.4 -176.7 L-310.3 -177.4 L-312 -178.3 L-313.7 -179.3 L-315.3 -180.5 L-316.8 -181.8 L-318.2 -183.2 L-319.5 -184.7 L-320.6 -186.3 L-321.7 -187.9 L-322.6 -189.7 L-323.3 -191.5 L-323.9 -193.4 L-324.4 -195.3 L-324.6 -197.3 L-324.8 -199.2 L-324.8 -201.2 L-324.6 -203.2 L-324.3 -205.1 L-323.8 -207 L-323.1 -208.9 L-322.4 -210.7 L-321.4 -212.4 L-320.4 -214.1 L-319.2 -215.7 L-317.9 -217.2 L-316.5 -218.5 L-315 -219.8 L-313.3 -220.9 L-311.6 -221.9 L-309.9 -222.8 L-308 -223.5 L-306.1 -224 L-304.2 -224.4 L-302.2 -224.7 L-300.3 -224.8 L-298.3 -224.7 L-296.3 -224.5 L-294.4 -224.2 L-292.5 -223.6 L-290.6 -223 L-288.9 -222.2 L-287.1 -221.2 L-285.5 -220.1 L-283.9 -218.9 L-282.5 -217.6 L-281.1 -216.1 L-279.9 -214.6 L-278.8 -212.9 L-277.9 -211.2 L-277 -209.4 L-276.4 -207.6 L-275.8 -205.7 L-275.5 -203.7 L-275.3 -201.8 L-275.2 -199.8 Z " />
<path stroke="rgb(0,0,0)" stroke-opacity="1" fill="rgb(255,255,255)" fill-opacity="1" d="M-624.5 -624.9 L-622.5 -624.9 L-620.5 -624.8 L-618.5 -624.8 L-616.6 -624.8 L-614.6 -624.8 L-612.6 -624.8 L-610.6 -624.8 L-608.7 -624.7 L-606.7 -624.7 L-604.7 -624.7 L-602.7 -624.7 L-600.8 -624.7 L-598.8 -624.7 L-596.8 -624.6 L-594.8 -624.6 L-592.9 -624.6 L-590.9 -624.6 L-588.9 -624.6 L-587 -624.6 L-585 -624.5 L-583 -624.5 L-581 -624.5 L-579.1 -624.5 L-577.1 -624.5 L-575.1 -624.5 L-575.1 -622.5 L-575.1 -620.5 L-575.2 -618.5 L-575.2 -616.6 L-575.2 -614.6 L-575.2 -612.6 L-575.2 -610.6 L-575.2 -608.7 L-575.3 -606.7 L-575.3 -604.7 L-575.3 -602.7 L-575.3 -600.8 L-575.3 -598.8 L-575.3 -596.8 L-575.4 -594.8 L-575.4 -592.9 L-575.4 -590.9 L-575.4 -588.9 L-575.4 -586.9 L-575.4 -585 L-575.5 -583 L-575.5 -581 L-575.5 -579.1 L-575.5 -577.1 L-575.5 -575.1 L-577.5 -575.1 L-579.5 -575.1 L-581.5 -575.2 L-583.4 -575.2 L-585.4 -575.2 L-587.4 -575.2 L-589.4 -575.2 L-591.3 -575.2 L-593.3 -575.3 L-595.3 -575.3 L-597.2 -575.3 L-599.2 -575.3 L-601.2 -575.3 L-603.2 -575.3 L-605.1 -575.4 L-607.1 -575.4 L-609.1 -575.4 L-611.1 -575.4 L-613 -575.4 L-615 -575.4 L-617 -575.5 L-619 -575.5 L-620.9 -575.5 L-622.9 -575.5 L-624.9 -575.5 L-624.9 -577.5 L-624.9 -579.5 L-624.8 -581.5 L-624.8 -583.4 L-624.8 -585.4 L-624.8 -587.4 L-624.8 -589.3 L-624.8 -591.3 L-624.7 -593.3 L-624.7 -595.3 L-624.7 -597.2 L-624.7 -599.2 L-624.7 -601.2 L-624.6 -603.2 L-624.6 -605.1 L-624.6 -607.1 L-624.6 -609.1 L-624.6 -611.1 L-624.6 -613 L-624.5 -615 L-624.5 -617 L-624.5 -619 L-624.5 -620.9 L-624.5 -622.9 L-624.5 -624.9 Z " />
<path stroke="rgb(0,0,0)" stroke-opacity="0.197" fill="rgb(255,255,255)" fill-opacity="1" d="M-75.2 -199.8 L-75.29 -197.8 L-75.55 -195.9 L-75.95 -193.9 L-76.51 -192 L-77.22 -190.2 L-78.07 -188.4 L-79.06 -186.7 L-80.18 -185.1 L-81.43 -183.6 L-82.79 -182.1 L-84.26 -180.8 L-85.84 -179.6 L-87.5 -178.6 L-89.24 -177.7 L-91.05 -176.9 L-92.92 -176.2 L-94.83 -175.7 L-96.77 -175.4 L-98.74 -175.2 L-100.7 -175.2 L-102.7 -175.3 L-104.6 -175.6 L-106.5 -176.1 L-108.4 -176.7 L-110.3 -177.4 L-112 -178.3 L-113.7 -179.3 L-115.3 -180.5 L-116.8 -181.8 L-118.2 -183.2 L-119.5 -184.7 L-120.6 -186.3 L-121.7 -187.9 L-122.6 -189.7 L-123.3 -191.5 L-123.9 -193.4 L-124.4 -195.3 L-124.6 -197.3 L-124.8 -199.2 L-124.8 -201.2 L-124.6 -203.2 L-124.3 -205.1 L-123.8 -207 L-123.1 -208.9 L-122.4 -210.7 L-121.4 -212.4 L-120.4 -214.1 L-119.2 -215.7 L-117.9 -217.2 L-116.5 -218.5 L-115 -219.8 L-113.3 -220.9 L-111.6 -221.9 L-109.9 -222.8 L-108 -223.5 L-106.1 -224 L-104.2 -224.4 L-102.2 -224.7 L-100.3 -224.8 L-98.3 -224.7 L-96.34 -224.5 L-94.41 -224.2 L-92.5 -223.6 L-90.65 -223 L-88.85 -222.2 L-87.13 -221.2 L-85.48 -220.1 L-83.93 -218.9 L-82.48 -217.6 L-81.14 -216.1 L-79.92 -214.6 L-78.83 -212.9 L-77.87 -211.2 L-77.05 -209.4 L-76.37 -207.6 L-75.85 -205.7 L-75.48 -203.7 L-75.26 -201.8 L-75.2 -199.8 Z " />
<path stroke="rgb(0,0,0)" stroke-opacity="1" fill="rgb(255,255,255)" fill-opacity="1" d="M-424.5 -624.9 L-422.5 -624.9 L-420.5 -624.8 L-418.5 -624.8 L-416.6 -624.8 L-414.6 -624.8 L-412.6 -624.8 L-410.6 -624.8 L-408.7 -624.7 L-406.7 -624.7 L-404.7 -624.7 L-402.7 -624.7 L-400.8 -624.7 L-398.8 -624.7 L-396.8 -624.6 L-394.8 -624.6 L-392.9 -624.6 L-390.9 -624.6 L-388.9 -624.6 L-387 -624.6 L-385 -624.5 L-383 -624.5 L-381 -624.5 L-379.1 -624.5 L-377.1 -624.5 L-375.1 -624.5 L-375.1 -622.5 L-375.1 -620.5 L-375.2 -618.5 L-375.2 -616.6 L-375.2 -614.6 L-375.2 -612.6 L-375.2 -610.6 L-375.2 -608.7 L-375.3 -606.7 L-375.3 -604.7 L-375.3 -602.7 L-375.3 -600.8 L-375.3 -598.8 L-375.3 -596.8 L-375.4 -594.8 L-375.4 -592.9 L-375.4 -590.9 L-375.4 -588.9 L-375.4 -586.9 L-375.4 -585 L-375.5 -583 L-375.5 -581 L-375.5 -579.1 L-375.5 -577.1 L-375.5 -575.1 L-377.5 -575.1 L-379.5 -575.1 L-381.5 -575.2 L-383.4 -575.2 L-385.4 -575.2 L-387.4 -575.2 L-389.4 -575.2 L-391.3 -575.2 L-393.3 -575.3 L-395.3 -575.3 L-397.2 -575.3 L-399.2 -575.3 L-401.2 -575.3 L-403.2 -575.3 L-405.1 -575.4 L-407.1 -575.4 L-409.1 -575.4 L-411.1 -575.4 L-413 -575.4 L-415 -575.4 L-417 -575.5 L-419 -575.5 L-420.9 -575.5 L-422.9 -575.5 L-424.9 -575.5 L-424.9 -577.5 L-424.9 -579.5 L-424.8 -581.5 L-424.8 -583.4 L-424.8 -585.4 L-424.8 -587.4 L-424.8 -589.3 L-424.8 -591.3 L-424.7 -593.3 L-424.7 -595.3 L-424.7 -597.2 L-424.7 -599.2 L-424.7 -601.2 L-424.6 -603.2 L-424.6 -605.1 L-424.6 -607.1 L-424.6 -609.1 L-424.6 -611.1 L-424.6 -613 L-424.5 -615 L-424.5 -617 L-424.5 -619 L-424.5 -620.9 L-424.5 -622.9 L-424.5 -624.9 Z " />
<path stroke="rgb(0,0,0)" stroke-opacity="0.197" fill="rgb(255,255,255)" fill-opacity="1" d="M124.8 -199.8 L124.7 -197.8 L124.5 -195.9 L124 -193.9 L123.5 -192 L122.8 -190.2 L121.9 -188.4 L120.9 -186.7 L119.8 -185.1 L118.6 -183.6 L117.2 -182.1 L115.7 -180.8 L114.2 -179.6 L112.5 -178.6 L110.8 -177.7 L108.9 -176.9 L107.1 -176.2 L105.2 -175.7 L103.2 -175.4 L101.3 -175.2 L99.29 -175.2 L97.33 -175.3 L95.38 -175.6 L93.45 -176.1 L91.57 -176.7 L89.75 -177.4 L87.99 -178.3 L86.3 -179.3 L84.7 -180.5 L83.2 -181.8 L81.8 -183.2 L80.52 -184.7 L79.36 -186.3 L78.34 -187.9 L77.45 -189.7 L76.7 -191.5 L76.1 -193.4 L75.65 -195.3 L75.35 -197.3 L75.21 -199.2 L75.23 -201.2 L75.4 -203.2 L75.73 -205.1 L76.22 -207 L76.85 -208.9 L77.63 -210.7 L78.55 -212.4 L79.61 -214.1 L80.79 -215.7 L82.1 -217.2 L83.52 -218.5 L85.04 -219.8 L86.66 -220.9 L88.37 -221.9 L90.14 -222.8 L91.98 -223.5 L93.87 -224 L95.8 -224.4 L97.76 -224.7 L99.73 -224.8 L101.7 -224.7 L103.7 -224.5 L105.6 -224.2 L107.5 -223.6 L109.4 -223 L111.1 -222.2 L112.9 -221.2 L114.5 -220.1 L116.1 -218.9 L117.5 -217.6 L118.9 -216.1 L120.1 -214.6 L121.2 -212.9 L122.1 -211.2 L123 -209.4 L123.6 -207.6 L124.2 -205.7 L124.5 -203.7 L124.7 -201.8 L124.8 -199.8 Z " />
<path stroke="rgb(0,0,0)" stroke-opacity="1" fill="rgb(255,255,255)" fill-opacity="1" d="M-224.5 -624.9 L-222.5 -624.9 L-220.5 -624.8 L-218.5 -624.8 L-216.6 -624.8 L-214.6 -624.8 L-212.6 -624.8 L-210.6 -624.8 L-208.7 -624.7 L-206.7 -624.7 L-204.7 -624.7 L-202.7 -624.7 L-200.8 -624.7 L-198.8 -624.7 L-196.8 -624.6 L-194.8 -624.6 L-192.9 -624.6 L-190.9 -624.6 L-188.9 -624.6 L-187 -624.6 L-185 -624.5 L-183 -624.5 L-181 -624.5 L-179.1 -624.5 L-177.1 -624.5 L-175.1 -624.5 L-175.1 -622.5 L-175.1 -620.5 L-175.2 -618.5 L-175.2 -616.6 L-175.2 -614.6 L-175.2 -612.6 L-175.2 -610.6 L-175.2 -608.7 L-175.3 -606.7 L-175.3 -604.7 L-175.3 -602.7 L-175.3 -600.8 L-175.3 -598.8 L-175.3 -596.8 L-175.4 -594.8 L-175.4 -592.9 L-175.4 -590.9 L-175.4 -588.9 L-175.4 -586.9 L-175.4 -585 L-175.5 -583 L-175.5 -581 L-175.5 -579.1 L-175.5 -577.1 L-175.5 -575.1 L-177.5 -575.1 L-179.5 -575.1 L-181.5 -575.2 L-183.4 -575.2 L-185.4 -575.2 L-187.4 -575.2 L-189.4 -575.2 L-191.3 -575.2 L-193.3 -575.3 L-195.3 -575.3 L-197.2 -575.3 L-199.2 -575.3 L-201.2 -575.3 L-203.2 -575.3 L-205.1 -575.4 L-207.1 -575.4 L-209.1 -575.4 L-211.1 -575.4 L-213 -575.4 L-215 -575.4 L-217 -575.5 L-219 -575.5 L-220.9 -575.5 L-222.9 -575.5 L-224.9 -575.5 L-224.9 -577.5 L-224.9 -579.5 L-224.8 -581.5 L-224.8 -583.4 L-224.8 -585.4 L-224.8 -587.4 L-224.8 -589.3 L-224.8 -591.3 L-224.7 -593.3 L-224.7 -595.3 L-224.7 -597.2 L-224.7 -599.2 L-224.7 -601.2 L-224.6 -603.2 L-224.6 -605.1 L-224.6 -607.1 L-224.6 -609.1 L-224.6 -611.1 L-224.6 -613 L-224.5 -615 L-224.5 -617 L-224.5 -619 L-224.5 -620.9 L-224.5 -622.9 L-224.5 -624.9 Z " />
<path stroke="rgb(0,0,0)" stroke-opacity="0.197" fill="rgb(255,255,255)" fill-opacity="1" d="M324.8 -199.8 L324.7 -197.8 L324.5 -195.9 L324 -193.9 L323.5 -192 L322.8 -190.2 L321.9 -188.4 L320.9 -186.7 L319.8 -185.1 L318.6 -183.6 L317.2 -182.1 L315.7 -180.8 L314.2 -179.6 L312.5 -178.6 L310.8 -177.7 L308.9 -176.9 L307.1 -176.2 L305.2 -175.7 L303.2 -175.4 L301.3 -175.2 L299.3 -175.2 L297.3 -175.3 L295.4 -175.6 L293.5 -176.1 L291.6 -176.7 L289.7 -177.4 L288 -178.3 L286.3 -179.3 L284.7 -180.5 L283.2 -181.8 L281.8 -183.2 L280.5 -184.7 L279.4 -186.3 L278.3 -187.9 L277.4 -189.7 L276.7 -191.5 L276.1 -193.4 L275.6 -195.3 L275.4 -197.3 L275.2 -199.2 L275.2 -201.2 L275.4 -203.2 L275.7 -205.1 L276.2 -207 L276.9 -208.9 L277.6 -210.7 L278.6 -212.4 L279.6 -214.1 L280.8 -215.7 L282.1 -217.2 L283.5 -218.5 L285 -219.8 L286.7 -220.9 L288.4 -221.9 L290.1 -222.8 L292 -223.5 L293.9 -224 L295.8 -224.4 L297.8 -224.7 L299.7 -224.8 L301.7 -224.7 L303.7 -224.5 L305.6 -224.2 L307.5 -223.6 L309.4 -223 L311.1 -222.2 L312.9 -221.2 L314.5 -220.1 L316.1 -218.9 L317.5 -217.6 L318.9 -216.1 L320.1 -214.6 L321.2 -212.9 L322.1 -211.2 L323 -209.4 L323.6 -207.6 L324.2 -205.7 L324.5 -203.7 L324.7 -201.8 L324.8 -199.8 Z " />
<path stroke="rgb(0,0,0)" stroke-opacity="1" fill="rgb(255,255,255)" fill-opacity="1" d="M-724.5 -524.9 L-722.5 -524.9 L-720.5 -524.8 L-718.5 -524.8 L-716.6 -524.8 L-714.6 -524.8 L-712.6 -524.8 L-710.6 -524.8 L-708.7 -524.7 L-706.7 -524.7 L-704.7 -524.7 L-702.7 -524.7 L-700.8 -524.7 L-698.8 -524.7 L-696.8 -524.6 L-694.8 -524.6 L-692.9 -524.6 L-690.9 -524.6 L-688.9 -524.6 L-687 -524.6 L-685 -524.5 L-683 -524.5 L-681 -524.5 L-679.1 -524.5 L-677.1 -524.5 L-675.1 -524.5 L-675.1 -522.5 L-675.1 -520.5 L-675.2 -518.5 L-675.2 -516.6 L-675.2 -514.6 L-675.2 -512.6 L-675.2 -510.6 L-675.2 -508.7 L-675.3 -506.7 L-675.3 -504.7 L-675.3 -502.7 L-675.3 -500.8 L-675.3 -498.8 L-675.3 -496.8 L-675.4 -494.8 L-675.4 -492.9 L-675.4 -490.9 L-675.4 -488.9 L-675.4 -486.9 L-675.4 -485 L-675.5 -483 L-675.5 -481 L-675.5 -479.1 L-675.5 -477.1 L-675.5 -475.1 L-677.5 -475.1 L-679.5 -475.1 L-681.5 -475.2 L-683.4 -475.2 L-685.4 -475.2 L-687.4 -475.2 L-689.4 -475.2 L-691.3 -475.2 L-693.3 -475.3 L-695.3 -475.3 L-697.2 -475.3 L-699.2 -475.3 L-701.2 -475.3 L-703.2 -475.3 L-705.1 -475.4 L-707.1 -475.4 L-709.1 -475.4 L-711.1 -475.4 L-713 -475.4 L-715 -475.4 L-717 -475.5 L-719 -475.5 L-720.9 -475.5 L-722.9 -475.5 L-724.9 -475.5 L-724.9 -477.5 L-724.9 -479.5 L-724.8 -481.5 L-724.8 -483.4 L-724.8 -485.4 L-724.8 -487.4 L-724.8 -489.3 L-724.8 -491.3 L-724.7 -493.3 L-724.7 -495.3 L-724.7 -497.2 L-724.7 -499.2 L-724.7 -501.2 L-724.6 -503.2 L-724.6 -505.1 L-724.6 -507.1 L-724.6 -509.1 L-724.6 -511.1 L-724.6 -513 L-724.5 -515 L-724.5 -517 L-724.5 -519 L-724.5 -520.9 L-724.5 -522.9 L-724.5 -524.9 Z " />
<path stroke="rgb(0,0,0)" stroke-opacity="0.197" fill="rgb(255,255,255)" fill-opacity="1" d="M-175.2 -99.79 L-175.3 -97.82 L-175.5 -95.86 L-176 -93.93 L-176.5 -92.04 L-177.2 -90.2 L-178.1 -88.42 L-179.1 -86.71 L-180.2 -85.09 L-181.4 -83.57 L-182.8 -82.14 L-184.3 -80.83 L-185.8 -79.64 L-187.5 -78.58 L-189.2 -77.66 L-191.1 -76.87 L-192.9 -76.23 L-194.8 -75.75 L-196.8 -75.41 L-198.7 -75.23 L-200.7 -75.21 L-202.7 -75.35 L-204.6 -75.64 L-206.5 -76.08 L-208.4 -76.68 L-210.3 -77.42 L-212 -78.31 L-213.7 -79.33 L-215.3 -80.48 L-216.8 -81.76 L-218.2 -83.16 L-219.5 -84.65 L-220.6 -86.25 L-221.7 -87.93 L-222.6 -89.69 L-223.3 -91.52 L-223.9 -93.4 L-224.4 -95.32 L-224.6 -97.27 L-224.8 -99.23 L-224.8 -101.2 L-224.6 -103.2 L-224.3 -105.1 L-223.8 -107 L-223.1 -108.9 L-222.4 -110.7 L-221.4 -112.4 L-220.4 -114.1 L-219.2 -115.7 L-217.9 -117.2 L-216.5 -118.5 L-215 -119.8 L-213.3 -120.9 L-211.6 -121.9 L-209.9 -122.8 L-208 -123.5 L-206.1 -124 L-204.2 -124.4 L-202.2 -124.7 L-200.3 -124.8 L-198.3 -124.7 L-196.3 -124.5 L-194.4 -124.2 L-192.5 -123.6 L-190.6 -123 L-188.9 -122.2 L-187.1 -121.2 L-185.5 -120.1 L-183.9 -118.9 L-182.5 -117.6 L-181.1 -116.1 L-179.9 -114.6 L-178.8 -112.9 L-177.9 -111.2 L-177 -109.4 L-176.4 -107.6 L-175.8 -105.7 L-175.5 -103.7 L-175.3 -101.8 L-175.2 -99.79 Z " />
<path stroke="rgb(0,0,0)" stroke-opacity="1" fill="rgb(255,255,255)" fill-opacity="1" d="M-524.5 -524.9 L-522.5 -524.9 L-520.5 -524.8 L-518.5 -524.8 L-516.6 -524.8 L-514.6 -524.8 L-512.6 -524.8 L-510.6 -524.8 L-508.7 -524.7 L-506.7 -524.7 L-504.7 -524.7 L-502.7 -524.7 L-500.8 -524.7 L-498.8 -524.7 L-496.8 -524.6 L-494.8 -524.6 L-492.9 -524.6 L-490.9 -524.6 L-488.9 -524.6 L-487 -524.6 L-485 -524.5 L-483 -524.5 L-481 -524.5 L-479.1 -524.5 L-477.1 -524.5 L-475.1 -524.5 L-475.1 -522.5 L-475.1 -520.5 L-475.2 -518.5 L-475.2 -516.6 L-475.2 -514.6 L-475.2 -512.6 L-475.2 -510.6 L-475.2 -508.7 L-475.3 -506.7 L-475.3 -504.7 L-475.3 -502.7 L-475.3 -500.8 L-475.3 -498.8 L-475.3 -496.8 L-475.4 -494.8 L-475.4 -492.9 L-475.4 -490.9 L-475.4 -488.9 L-475.4 -486.9 L-475.4 -485 L-475.5 -483 L-475.5 -481 L-475.5 -479.1 L-475.5 -477.1 L-475.5 -475.1 L-477.5 -475.1 L-479.5 -475.1 L-481.5 -475.2 L-483.4 -475.2 L-485.4 -475.2 L-487.4 -475.2 L-489.4 -475.2 L-491.3 -475.2 L-493.3 -475.3 L-495.3 -475.3 L-497.2 -475.3 L-499.2 -475.3 L-501.2 -475.3 L-503.2 -475.3 L-505.1 -475.4 L-507.1 -475.4 L-509.1 -475.4 L-511.1 -475.4 L-513 -475.4 L-515 -475.4 L-517 -475.5 L-519 -475.5 L-520.9 -475.5 L-522.9 -475.5 L-524.9 -475.5 L-524.9 -477.5 L-524.9 -479.5 L-524.8 -481.5 L-524.8 -483.4 L-524.8 -485.4 L-524.8 -487.4 L-524.8 -489.3 L-524.8 -491.3 L-524.7 -493.3 L-524.7 -495.3 L-524.7 -497.2 L-524.7 -499.2 L-524.7 -501.2 L-524.6 -503.2 L-524.6 -505.1 L-524.6 -507.1 L-524.6 -509.1 L-524.6 -511.1 L-524.6 -513 L-524.5 -515 L-524.5 -517 L-524.5 -519 L-524.5 -520.9 L-524.5 -522.9 L-524.5 -524.9 Z " />
<path stroke="rgb(0,0,0)" stroke-opacity="0.197" fill="rgb(255,255,255)" fill-opacity="1" d="M24.8 -99.79 L24.71 -97.82 L24.45 -95.86 L24.05 -93.93 L23.49 -92.04 L22.78 -90.2 L21.93 -88.42 L20.94 -86.71 L19.82 -85.09 L18.57 -83.57 L17.21 -82.14 L15.74 -80.83 L14.16 -79.64 L12.5 -78.58 L10.76 -77.66 L8.949 -76.87 L7.083 -76.23 L5.172 -75.75 L3.229 -75.41 L1.265 -75.23 L-0.7071 -75.21 L-2.674 -75.35 L-4.625 -75.64 L-6.546 -76.08 L-8.426 -76.68 L-10.25 -77.42 L-12.01 -78.31 L-13.7 -79.33 L-15.3 -80.48 L-16.8 -81.76 L-18.2 -83.16 L-19.48 -84.65 L-20.64 -86.25 L-21.66 -87.93 L-22.55 -89.69 L-23.3 -91.52 L-23.9 -93.4 L-24.35 -95.32 L-24.65 -97.27 L-24.79 -99.23 L-24.77 -101.2 L-24.6 -103.2 L-24.27 -105.1 L-23.78 -107 L-23.15 -108.9 L-22.37 -110.7 L-21.45 -112.4 L-20.39 -114.1 L-19.21 -115.7 L-17.9 -117.2 L-16.48 -118.5 L-14.96 -119.8 L-13.34 -120.9 L-11.63 -121.9 L-9.856 -122.8 L-8.017 -123.5 L-6.127 -124 L-4.199 -124.4 L-2.243 -124.7 L-0.274 -124.8 L1.697 -124.7 L3.658 -124.5 L5.595 -124.2 L7.497 -123.6 L9.352 -123 L11.15 -122.2 L12.87 -121.2 L14.52 -120.1 L16.07 -118.9 L17.52 -117.6 L18.86 -116.1 L20.08 -114.6 L21.17 -112.9 L22.13 -111.2 L22.95 -109.4 L23.63 -107.6 L24.15 -105.7 L24.52 -103.7 L24.74 -101.8 L24.8 -99.79 Z " />
<path stroke="rgb(0,0,0)" stroke-opacity="1" fill="rgb(255,255,255)" fill-opacity="1" d="M-324.5 -524.9 L-322.5 -524.9 L-320.5 -524.8 L-318.5 -524.8 L-316.6 -524.8 L-314.6 -524.8 L-312.6 -524.8 L-310.6 -524.8 L-308.7 -524.7 L-306.7 -524.7 L-304.7 -524.7 L-302.7 -524.7 L-300.8 -524.7 L-298.8 -524.7 L-296.8 -524.6 L-294.8 -524.6 L-292.9 -524.6 L-290.9 -524.6 L-288.9 -524.6 L-287 -524.6 L-285 -524.5 L-283 -524.5 L-281 -524.5 L-279.1 -524.5 L-277.1 -524.5 L-275.1 -524.5 L-275.1 -522.5 L-275.1 -520.5 L-275.2 -518.5 L-275.2 -516.6 L-275.2 -514.6 L-275.2 -512.6 L-275.2 -510.6 L-275.2 -508.7 L-275.3 -506.7 L-275.3 -504.7 L-275.3 -502.7 L-275.3 -500.8 L-275.3 -498.8 L-275.3 -496.8 L-275.4 -494.8 L-275.4 -492.9 L-275.4 -490.9 L-275.4 -488.9 L-275.4 -486.9 L-275.4 -485 L-275.5 -483 L-275.5 -481 L-275.5 -479.1 L-275.5 -477.1 L-275.5 -475.1 L-277.5 -475.1 L-279.5 -475.1 L-281.5 -475.2 L-283.4 -475.2 L-285.4 -475.2 L-287.4 -475.2 L-289.4 -475.2 L-291.3 -475.2 L-293.3 -475.3 L-295.3 -475.3 L-297.2 -475.3 L-299.2 -475.3 L-301.2 -475.3 L-303.2 -475.3 L-305.1 -475.4 L-307.1 -475.4 L-309.1 -475.4 L-311.1 -475.4 L-313 -475.4 L-315 -475.4 L-317 -475.5 L-319 -475.5 L-320.9 -475.5 L-322.9 -475.5 L-324.9 -475.5 L-324.9 -477.5 L-324.9 -479.5 L-324.8 -481.5 L-324.8 -483.4 L-324.8 -485.4 L-324.8 -487.4 L-324.8 -489.3 L-324.8 -491.3 L-324.7 -493.3 L-324.7 -495.3 L-324.7 -497.2 L-324.7 -499.2 L-324.7 -501.2 L-324.6 -503.2 L-324.6 -505.1 L-324.6 -507.1 L-324.6 -509.1 L-324.6 -511.1 L-324.6 -513 L-324.5 -515 L-324.5 -517 L-324.5 -519 L-324.5 -520.9 L-324.5 -522.9 L-324.5 -524.9 Z " />
<path stroke="rgb(0,0,0)" stroke-opacity="0.197" fill="rgb(255,255,255)" fill-opacity="1" d="M224.8 -99.79 L224.7 -97.82 L224.5 -95.86 L224 -93.93 L223.5 -92.04 L222.8 -90.2 L221.9 -88.42 L220.9 -86.71 L219.8 -85.09 L218.6 -83.57 L217.2 -82.14 L215.7 -80.83 L214.2 -79.64 L212.5 -78.58 L210.8 -77.66 L208.9 -76.87 L207.1 -76.23 L205.2 -75.75 L203.2 -75.41 L201.3 -75.23 L199.3 -75.21 L197.3 -75.35 L195.4 -75.64 L193.5 -76.08 L191.6 -76.68 L189.7 -77.42 L188 -78.31 L186.3 -79.33 L184.7 -80.48 L183.2 -81.76 L181.8 -83.16 L180.5 -84.65 L179.4 -86.25 L178.3 -87.93 L177.4 -89.69 L176.7 -91.52 L176.1 -93.4 L175.6 -95.32 L175.4 -97.27 L175.2 -99.23 L175.2 -101.2 L175.4 -103.2 L175.7 -105.1 L176.2 -107 L176.9 -108.9 L177.6 -110.7 L178.6 -112.4 L179.6 -114.1 L180.8 -115.7 L182.1 -117.2 L183.5 -118.5 L185 -119.8 L186.7 -120.9 L188.4 -121.9 L190.1 -122.8 L192 -123.5 L193.9 -124 L195.8 -124.4 L197.8 -124.7 L199.7 -124.8 L201.7 -124.7 L203.7 -124.5 L205.6 -124.2 L207.5 -123.6 L209.4 -123 L211.1 -122.2 L212.9 -121.2 L214.5 -120.1 L216.1 -118.9 L217.5 -117.6 L218.9 -116.1 L220.1 -114.6 L221.2 -112.9 L222.1 -111.2 L223 -109.4 L223.6 -107.6 L224.2 -105.7 L224.5 -103.7 L224.7 -101.8 L224.8 -99.79 Z " />
<path stroke="rgb(0,0,0)" stroke-opacity="1" fill="rgb(255,255,255)" fill-opacity="1" d="M-125.2 -522.8 L-123.3 -522.9 L-121.4 -523 L-119.5 -523.1 L-117.5 -523.2 L-115.6 -523.3 L-113.7 -523.4 L-111.8 -523.5 L-109.9 -523.6 L-107.9 -523.7 L-106 -523.8 L-104.1 -523.9 L-102.2 -524 L-100.3 -524.1 L-98.34 -524.2 L-96.42 -524.3 L-94.5 -524.4 L-92.58 -524.5 L-90.66 -524.6 L-88.74 -524.7 L-86.82 -524.8 L-84.9 -524.9 L-82.98 -525 L-81.06 -525.1 L-79.14 -525.2 L-77.22 -525.2 L-77.12 -523.3 L-77.02 -521.4 L-76.92 -519.5 L-76.82 -517.6 L-76.72 -515.6 L-76.62 -513.7 L-76.53 -511.8 L-76.43 -509.9 L-76.33 -508 L-76.23 -506 L-76.13 -504.1 L-76.03 -502.2 L-75.94 -500.3 L-75.84 -498.4 L-75.74 -496.4 L-75.64 -494.5 L-75.54 -492.6 L-75.44 -490.7 L-75.34 -488.8 L-75.25 -486.8 L-75.15 -484.9 L-75.05 -483 L-74.95 -481.1 L-74.85 -479.2 L-74.75 -477.2 L-76.67 -477.1 L-78.59 -477 L-80.51 -476.9 L-82.43 -476.8 L-84.36 -476.7 L-86.28 -476.6 L-88.2 -476.6 L-90.12 -476.5 L-92.04 -476.4 L-93.96 -476.3 L-95.88 -476.2 L-97.8 -476.1 L-99.72 -476 L-101.6 -475.9 L-103.6 -475.8 L-105.5 -475.7 L-107.4 -475.6 L-109.3 -475.5 L-111.2 -475.4 L-113.2 -475.3 L-115.1 -475.2 L-117 -475.1 L-118.9 -475 L-120.8 -474.9 L-122.8 -474.8 L-122.9 -476.7 L-123 -478.6 L-123.1 -480.5 L-123.2 -482.5 L-123.3 -484.4 L-123.4 -486.3 L-123.5 -488.2 L-123.6 -490.1 L-123.6 -492.1 L-123.7 -494 L-123.8 -495.9 L-123.9 -497.8 L-124 -499.7 L-124.1 -501.7 L-124.2 -503.6 L-124.3 -505.5 L-124.4 -507.4 L-124.5 -509.3 L-124.6 -511.3 L-124.7 -513.2 L-124.8 -515.1 L-124.9 -517 L-125 -518.9 L-125.1 -520.9 L-125.2 -522.8 Z " />
<path stroke="rgb(0,0,0)" stroke-opacity="0.197" fill="rgb(255,255,255)" fill-opacity="1" d="M-275.2 0.2139 L-275.3 2.184 L-275.5 4.139 L-276 6.069 L-276.5 7.96 L-277.2 9.801 L-278.1 11.58 L-279.1 13.29 L-280.2 14.91 L-281.4 16.43 L-282.8 17.86 L-284.3 19.17 L-285.8 20.36 L-287.5 21.42 L-289.2 22.34 L-291.1 23.13 L-292.9 23.77 L-294.8 24.25 L-296.8 24.59 L-298.7 24.77 L-300.7 24.79 L-302.7 24.65 L-304.6 24.36 L-306.5 23.92 L-308.4 23.32 L-310.3 22.58 L-312 21.69 L-313.7 20.67 L-315.3 19.52 L-316.8 18.24 L-318.2 16.84 L-319.5 15.35 L-320.6 13.75 L-321.7 12.07 L-322.6 10.31 L-323.3 8.482 L-323.9 6.604 L-324.4 4.684 L-324.6 2.734 L-324.8 0.7668 L-324.8 -1.205 L-324.6 -3.169 L-324.3 -5.114 L-323.8 -7.026 L-323.1 -8.893 L-322.4 -10.7 L-321.4 -12.45 L-320.4 -14.11 L-319.2 -15.69 L-317.9 -17.17 L-316.5 -18.53 L-315 -19.78 L-313.3 -20.91 L-311.6 -21.9 L-309.9 -22.76 L-308 -23.47 L-306.1 -24.03 L-304.2 -24.44 L-302.2 -24.7 L-300.3 -24.8 L-298.3 -24.75 L-296.3 -24.53 L-294.4 -24.16 L-292.5 -23.64 L-290.6 -22.97 L-288.9 -22.16 L-287.1 -21.2 L-285.5 -20.11 L-283.9 -18.9 L-282.5 -17.56 L-281.1 -16.11 L-279.9 -14.56 L-278.8 -12.92 L-277.9 -11.2 L-277 -9.407 L-276.4 -7.554 L-275.8 -5.654 L-275.5 -3.717 L-275.3 -1.757 L-275.2 0.2139 Z " />
<path stroke="rgb(0,0,0)" stroke-opacity="1" fill="rgb(255,255,255)" fill-opacity="1" d="M-624.5 -424.9 L-622.5 -424.9 L-620.5 -424.8 L-618.5 -424.8 L-616.6 -424.8 L-614.6 -424.8 L-612.6 -424.8 L-610.6 -424.8 L-608.7 -424.7 L-606.7 -424.7 L-604.7 -424.7 L-602.7 -424.7 L-600.8 -424.7 L-598.8 -424.7 L-596.8 -424.6 L-594.8 -424.6 L-592.9 -424.6 L-590.9 -424.6 L-588.9 -424.6 L-587 -424.6 L-585 -424.5 L-583 -424.5 L-581 -424.5 L-579.1 -424.5 L-577.1 -424.5 L-575.1 -424.5 L-575.1 -422.5 L-575.1 -420.5 L-575.2 -418.5 L-575.2 -416.6 L-575.2 -414.6 L-575.2 -412.6 L-575.2 -410.6 L-575.2 -408.7 L-575.3 -406.7 L-575.3 -404.7 L-575.3 -402.7 L-575.3 -400.8 L-575.3 -398.8 L-575.3 -396.8 L-575.4 -394.8 L-575.4 -392.9 L-575.4 -390.9 L-575.4 -388.9 L-575.4 -386.9 L-575.4 -385 L-575.5 -383 L-575.5 -381 L-575.5 -379.1 L-575.5 -377.1 L-575.5 -375.1 L-577.5 -375.1 L-579.5 -375.1 L-581.5 -375.2 L-583.4 -375.2 L-585.4 -375.2 L-587.4 -375.2 L-589.4 -375.2 L-591.3 -375.2 L-593.3 -375.3 L-595.3 -375.3 L-597.2 -375.3 L-599.2 -375.3 L-601.2 -375.3 L-603.2 -375.3 L-605.1 -375.4 L-607.1 -375.4 L-609.1 -375.4 L-611.1 -375.4 L-613 -375.4 L-615 -375.4 L-617 -375.5 L-619 -375.5 L-620.9 -375.5 L-622.9 -375.5 L-624.9 -375.5 L-624.9 -377.5 L-624.9 -379.5 L-624.8 -381.5 L-624.8 -383.4 L-624.8 -385.4 L-624.8 -387.4 L-624.8 -389.3 L-624.8 -391.3 L-624.7 -393.3 L-624.7 -395.3 L-624.7 -397.2 L-624.7 -399.2 L-624.7 -401.2 L-624.6 -403.2 L-624.6 -405.1 L-624.6 -407.1 L-624.6 -409.1 L-624.6 -411.1 L-624.6 -413 L-624.5 -415 L-624.5 -417 L-624.5 -419 L-624.5 -420.9 L-624.5 -422.9 L-624.5 -424.9 Z " />
<path stroke="rgb(0,0,0)" stroke-opacity="0.197" fill="rgb(255,255,255)" fill-opacity="1" d="M-75.2 0.2139 L-75.29 2.184 L-75.55 4.139 L-75.95 6.069 L-76.51 7.96 L-77.22 9.801 L-78.07 11.58 L-79.06 13.29 L-80.18 14.91 L-81.43 16.43 L-82.79 17.86 L-84.26 19.17 L-85.84 20.36 L-87.5 21.42 L-89.24 22.34 L-91.05 23.13 L-92.92 23.77 L-94.83 24.25 L-96.77 24.59 L-98.74 24.77 L-100.7 24.79 L-102.7 24.65 L-104.6 24.36 L-106.5 23.92 L-108.4 23.32 L-110.3 22.58 L-112 21.69 L-113.7 20.67 L-115.3 19.52 L-116.8 18.24 L-118.2 16.84 L-119.5 15.35 L-120.6 13.75 L-121.7 12.07 L-122.6 10.31 L-123.3 8.482 L-123.9 6.604 L-124.4 4.684 L-124.6 2.734 L-124.8 0.7668 L-124.8 -1.205 L-124.6 -3.169 L-124.3 -5.114 L-123.8 -7.026 L-123.1 -8.893 L-122.4 -10.7 L-121.4 -12.45 L-120.4 -14.11 L-119.2 -15.69 L-117.9 -17.17 L-116.5 -18.53 L-115 -19.78 L-113.3 -20.91 L-111.6 -21.9 L-109.9 -22.76 L-108 -23.47 L-106.1 -24.03 L-104.2 -24.44 L-102.2 -24.7 L-100.3 -24.8 L-98.3 -24.75 L-96.34 -24.53 L-94.41 -24.16 L-92.5 -23.64 L-90.65 -22.97 L-88.85 -22.16 L-87.13 -21.2 L-85.48 -20.11 L-83.93 -18.9 L-82.48 -17.56 L-81.14 -16.11 L-79.92 -14.56 L-78.83 -12.92 L-77.87 -11.2 L-77.05 -9.407 L-76.37 -7.554 L-75.85 -5.654 L-75.48 -3.717 L-75.26 -1.757 L-75.2 0.2139 Z " />
<path stroke="rgb(0,0,0)" stroke-opacity="1" fill="rgb(255,255,255)" fill-opacity="1" d="M-424.5 -424.9 L-422.5 -424.9 L-420.5 -424.8 L-418.5 -424.8 L-416.6 -424.8 L-414.6 -424.8 L-412.6 -424.8 L-410.6 -424.8 L-408.7 -424.7 L-406.7 -424.7 L-404.7 -424.7 L-402.7 -424.7 L-400.8 -424.7 L-398.8 -424.7 L-396.8 -424.6 L-394.8 -424.6 L-392.9 -424.6 L-390.9 -424.6 L-388.9 -424.6 L-387 -424.6 L-385 -424.5 L-383 -424.5 L-381 -424.5 L-379.1 -424.5 L-377.1 -424.5 L-375.1 -424.5 L-375.1 -422.5 L-375.1 -420.5 L-375.2 -418.5 L-375.2 -416.6 L-375.2 -414.6 L-375.2 -412.6 L-375.2 -410.6 L-375.2 -408.7 L-375.3 -406.7 L-375.3 -404.7 L-375.3 -402.7 L-375.3 -400.8 L-375.3 -398.8 L-375.3 -396.8 L-375.4 -394.8 L-375.4 -392.9 L-375.4 -390.9 L-375.4 -388.9 L-375.4 -386.9 L-375.4 -385 L-375.5 -383 L-375.5 -381 L-375.5 -379.1 L-375.5 -377.1 L-375.5 -375.1 L-377.5 -375.1 L-379.5 -375.1 L-381.5 -375.2 L-383.4 -375.2 L-385.4 -375.2 L-387.4 -375.2 L-389.4 -375.2 L-391.3 -375.2 L-393.3 -375.3 L-395.3 -375.3 L-397.2 -375.3 L-399.2 -375.3 L-401.2 -375.3 L-403.2 -375.3 L-405.1 -375.4 L-407.1 -375.4 L-409.1 -375.4 L-411.1 -375.4 L-413 -375.4 L-415 -375.4 L-417 -375.5 L-419 -375.5 L-420.9 -375.5 L-422.9 -375.5 L-424.9 -375.5 L-424.9 -377.5 L-424.9 -379.5 L-424.8 -381.5 L-424.8 -383.4 L-424.8 -385.4 L-424.8 -387.4 L-424.8 -389.3 L-424.8 -391.3 L-424.7 -393.3 L-424.7 -395.3 L-424.7 -397.2 L-424.7 -399.2 L-424.7 -401.2 L-424.6 -403.2 L-424.6 -405.1 L-424.6 -407.1 L-424.6 -409.1 L-424.6 -411.1 L-424.6 -413 L-424.5 -415 L-424.5 -417 L-424.5 -419 L-424.5 -420.9 L-424.5 -422.9 L-424.5 -424.9 Z " />
<path stroke="rgb(0,0,0)" stroke-opacity="0.197" fill="rgb(255,255,255)" fill-opacity="1" d="M124.8 0.2139 L124.7 2.184 L124.5 4.139 L124 6.069 L123.5 7.96 L122.8 9.801 L121.9 11.58 L120.9 13.29 L119.8 14.91 L118.6 16.43 L117.2 17.86 L115.7 19.17 L114.2 20.36 L112.5 21.42 L110.8 22.34 L108.9 23.13 L107.1 23.77 L105.2 24.25 L103.2 24.59 L101.3 24.77 L99.29 24.79 L97.33 24.65 L95.38 24.36 L93.45 23.92 L91.57 23.32 L89.75 22.58 L87.99 21.69 L86.3 20.67 L84.7 19.52 L83.2 18.24 L81.8 16.84 L80.52 15.35 L79.36 13.75 L78.34 12.07 L77.45 10.31 L76.7 8.482 L76.1 6.604 L75.65 4.684 L75.35 2.734 L75.21 0.7668 L75.23 -1.205 L75.4 -3.169 L75.73 -5.114 L76.22 -7.026 L76.85 -8.893 L77.63 -10.7 L78.55 -12.45 L79.61 -14.11 L80.79 -15.69 L82.1 -17.17 L83.52 -18.53 L85.04 -19.78 L86.66 -20.91 L88.37 -21.9 L90.14 -22.76 L91.98 -23.47 L93.87 -24.03 L95.8 -24.44 L97.76 -24.7 L99.73 -24.8 L101.7 -24.75 L103.7 -24.53 L105.6 -24.16 L107.5 -23.64 L109.4 -22.97 L111.1 -22.16 L112.9 -21.2 L114.5 -20.11 L116.1 -18.9 L117.5 -17.56 L118.9 -16.11 L120.1 -14.56 L121.2 -12.92 L122.1 -11.2 L123 -9.407 L123.6 -7.554 L124.2 -5.654 L124.5 -3.717 L124.7 -1.757 L124.8 0.2139 Z " />
<path stroke="rgb(0,0,0)" stroke-opacity="1" fill="rgb(255,255,255)" fill-opacity="1" d="M-225.2 -422.8 L-223.3 -422.9 L-221.4 -423 L-219.5 -423.1 L-217.5 -423.2 L-215.6 -423.3 L-213.7 -423.4 L-211.8 -423.5 L-209.9 -423.6 L-207.9 -423.7 L-206 -423.8 L-204.1 -423.9 L-202.2 -424 L-200.3 -424.1 L-198.3 -424.2 L-196.4 -424.3 L-194.5 -424.4 L-192.6 -424.5 L-190.7 -424.6 L-188.7 -424.7 L-186.8 -424.8 L-184.9 -424.9 L-183 -425 L-181.1 -425.1 L-179.1 -425.2 L-177.2 -425.2 L-177.1 -423.3 L-177 -421.4 L-176.9 -419.5 L-176.8 -417.6 L-176.7 -415.6 L-176.6 -413.7 L-176.5 -411.8 L-176.4 -409.9 L-176.3 -408 L-176.2 -406 L-176.1 -404.1 L-176 -402.2 L-175.9 -400.3 L-175.8 -398.4 L-175.7 -396.4 L-175.6 -394.5 L-175.5 -392.6 L-175.4 -390.7 L-175.3 -388.8 L-175.2 -386.8 L-175.1 -384.9 L-175 -383 L-175 -381.1 L-174.9 -379.2 L-174.8 -377.2 L-176.7 -377.1 L-178.6 -377 L-180.5 -376.9 L-182.4 -376.8 L-184.4 -376.7 L-186.3 -376.6 L-188.2 -376.6 L-190.1 -376.5 L-192 -376.4 L-194 -376.3 L-195.9 -376.2 L-197.8 -376.1 L-199.7 -376 L-201.6 -375.9 L-203.6 -375.8 L-205.5 -375.7 L-207.4 -375.6 L-209.3 -375.5 L-211.2 -375.4 L-213.2 -375.3 L-215.1 -375.2 L-217 -375.1 L-218.9 -375 L-220.8 -374.9 L-222.8 -374.8 L-222.9 -376.7 L-223 -378.6 L-223.1 -380.5 L-223.2 -382.5 L-223.3 -384.4 L-223.4 -386.3 L-223.5 -388.2 L-223.6 -390.1 L-223.6 -392.1 L-223.7 -394 L-223.8 -395.9 L-223.9 -397.8 L-224 -399.7 L-224.1 -401.7 L-224.2 -403.6 L-224.3 -405.5 L-224.4 -407.4 L-224.5 -409.3 L-224.6 -411.3 L-224.7 -413.2 L-224.8 -415.1 L-224.9 -417 L-225 -418.9 L-225.1 -420.9 L-225.2 -422.8 Z " />
<path stroke="rgb(0,0,0)" stroke-opacity="0.197" fill="rgb(255,255,255)" fill-opacity="1" d="M324.8 0.2139 L324.7 2.184 L324.5 4.139 L324 6.069 L323.5 7.96 L322.8 9.801 L321.9 11.58 L320.9 13.29 L319.8 14.91 L318.6 16.43 L317.2 17.86 L315.7 19.17 L314.2 20.36 L312.5 21.42 L310.8 22.34 L308.9 23.13 L307.1 23.77 L305.2 24.25 L303.2 24.59 L301.3 24.77 L299.3 24.79 L297.3 24.65 L295.4 24.36 L293.5 23.92 L291.6 23.32 L289.7 22.58 L288 21.69 L286.3 20.67 L284.7 19.52 L283.2 18.24 L281.8 16.84 L280.5 15.35 L279.4 13.75 L278.3 12.07 L277.4 10.31 L276.7 8.482 L276.1 6.604 L275.6 4.684 L275.4 2.734 L275.2 0.7668 L275.2 -1.205 L275.4 -3.169 L275.7 -5.114 L276.2 -7.026 L276.9 -8.893 L277.6 -10.7 L278.6 -12.45 L279.6 -14.11 L280.8 -15.69 L282.1 -17.17 L283.5 -18.53 L285 -19.78 L286.7 -20.91 L288.4 -21.9 L290.1 -22.76 L292 -23.47 L293.9 -24.03 L295.8 -24.44 L297.8 -24.7 L299.7 -24.8 L301.7 -24.75 L303.7 -24.53 L305.6 -24.16 L307.5 -23.64 L309.4 -22.97 L311.1 -22.16 L312.9 -21.2 L314.5 -20.11 L316.1 -18.9 L317.5 -17.56 L318.9 -16.11 L320.1 -14.56 L321.2 -12.92 L322.1 -11.2 L323 -9.407 L323.6 -7.554 L324.2 -5.654 L324.5 -3.717 L324.7 -1.757 L324.8 0.2139 Z " />
<path stroke="rgb(0,0,0)" stroke-opacity="1" fill="rgb(255,255,255)" fill-opacity="1" d="M-724.5 -324.9 L-722.5 -324.9 L-720.5 -324.8 L-718.5 -324.8 L-716.6 -324.8 L-714.6 -324.8 L-712.6 -324.8 L-710.6 -324.8 L-708.7 -324.7 L-706.7 -324.7 L-704.7 -324.7 L-702.7 -324.7 L-700.8 -324.7 L-698.8 -324.7 L-696.8 -324.6 L-694.8 -324.6 L-692.9 -324.6 L-690.9 -324.6 L-688.9 -324.6 L-687 -324.6 L-685 -324.5 L-683 -324.5 L-681 -324.5 L-679.1 -324.5 L-677.1 -324.5 L-675.1 -324.5 L-675.1 -322.5 L-675.1 -320.5 L-675.2 -318.5 L-675.2 -316.6 L-675.2 -314.6 L-675.2 -312.6 L-675.2 -310.6 L-675.2 -308.7 L-675.3 -306.7 L-675.3 -304.7 L-675.3 -302.7 L-675.3 -300.8 L-675.3 -298.8 L-675.3 -296.8 L-675.4 -294.8 L-675.4 -292.9 L-675.4 -290.9 L-675.4 -288.9 L-675.4 -286.9 L-675.4 -285 L-675.5 -283 L-675.5 -281 L-675.5 -279.1 L-675.5 -277.1 L-675.5 -275.1 L-677.5 -275.1 L-679.5 -275.1 L-681.5 -275.2 L-683.4 -275.2 L-685.4 -275.2 L-687.4 -275.2 L-689.4 -275.2 L-691.3 -275.2 L-693.3 -275.3 L-695.3 -275.3 L-697.2 -275.3 L-699.2 -275.3 L-701.2 -275.3 L-703.2 -275.3 L-705.1 -275.4 L-707.1 -275.4 L-709.1 -275.4 L-711.1 -275.4 L-713 -275.4 L-715 -275.4 L-717 -275.5 L-719 -275.5 L-720.9 -275.5 L-722.9 -275.5 L-724.9 -275.5 L-724.9 -277.5 L-724.9 -279.5 L-724.8 -281.5 L-724.8 -283.4 L-724.8 -285.4 L-724.8 -287.4 L-724.8 -289.3 L-724.8 -291.3 L-724.7 -293.3 L-724.7 -295.3 L-724.7 -297.2 L-724.7 -299.2 L-724.7 -301.2 L-724.6 -303.2 L-724.6 -305.1 L-724.6 -307.1 L-724.6 -309.1 L-724.6 -311.1 L-724.6 -313 L-724.5 -315 L-724.5 -317 L-724.5 -319 L-724.5 -320.9 L-724.5 -322.9 L-724.5 -324.9 Z " />
<path stroke="rgb(0,0,0)" stroke-opacity="0.197" fill="rgb(255,255,255)" fill-opacity="1" d="M-175.2 100.2 L-175.3 102.2 L-175.5 104.1 L-176 106.1 L-176.5 108 L-177.2 109.8 L-178.1 111.6 L-179.1 113.3 L-180.2 114.9 L-181.4 116.4 L-182.8 117.9 L-184.3 119.2 L-185.8 120.4 L-187.5 121.4 L-189.2 122.3 L-191.1 123.1 L-192.9 123.8 L-194.8 124.3 L-196.8 124.6 L-198.7 124.8 L-200.7 124.8 L-202.7 124.7 L-204.6 124.4 L-206.5 123.9 L-208.4 123.3 L-210.3 122.6 L-212 121.7 L-213.7 120.7 L-215.3 119.5 L-216.8 118.2 L-218.2 116.8 L-219.5 115.3 L-220.6 113.7 L-221.7 112.1 L-222.6 110.3 L-223.3 108.5 L-223.9 106.6 L-224.4 104.7 L-224.6 102.7 L-224.8 100.8 L-224.8 98.79 L-224.6 96.83 L-224.3 94.89 L-223.8 92.97 L-223.1 91.11 L-222.4 89.3 L-221.4 87.55 L-220.4 85.89 L-219.2 84.31 L-217.9 82.83 L-216.5 81.47 L-215 80.22 L-213.3 79.09 L-211.6 78.1 L-209.9 77.24 L-208 76.53 L-206.1 75.97 L-204.2 75.56 L-202.2 75.3 L-200.3 75.2 L-198.3 75.25 L-196.3 75.47 L-194.4 75.84 L-192.5 76.36 L-190.6 77.03 L-188.9 77.84 L-187.1 78.8 L-185.5 79.89 L-183.9 81.1 L-182.5 82.44 L-181.1 83.89 L-179.9 85.44 L-178.8 87.08 L-177.9 88.8 L-177 90.59 L-176.4 92.45 L-175.8 94.35 L-175.5 96.28 L-175.3 98.24 L-175.2 100.2 Z " />
<path stroke="rgb(0,0,0)" stroke-opacity="1" fill="rgb(255,255,255)" fill-opacity="1" d="M-524.5 -324.9 L-522.5 -324.9 L-520.5 -324.8 L-518.5 -324.8 L-516.6 -324.8 L-514.6 -324.8 L-512.6 -324.8 L-510.6 -324.8 L-508.7 -324.7 L-506.7 -324.7 L-504.7 -324.7 L-502.7 -324.7 L-500.8 -324.7 L-498.8 -324.7 L-496.8 -324.6 L-494.8 -324.6 L-492.9 -324.6 L-490.9 -324.6 L-488.9 -324.6 L-487 -324.6 L-485 -324.5 L-483 -324.5 L-481 -324.5 L-479.1 -324.5 L-477.1 -324.5 L-475.1 -324.5 L-475.1 -322.5 L-475.1 -320.5 L-475.2 -318.5 L-475.2 -316.6 L-475.2 -314.6 L-475.2 -312.6 L-475.2 -310.6 L-475.2 -308.7 L-475.3 -306.7 L-475.3 -304.7 L-475.3 -302.7 L-475.3 -300.8 L-475.3 -298.8 L-475.3 -296.8 L-475.4 -294.8 L-475.4 -292.9 L-475.4 -290.9 L-475.4 -288.9 L-475.4 -286.9 L-475.4 -285 L-475.5 -283 L-475.5 -281 L-475.5 -279.1 L-475.5 -277.1 L-475.5 -275.1 L-477.5 -275.1 L-479.5 -275.1 L-481.5 -275.2 L-483.4 -275.2 L-485.4 -275.2 L-487.4 -275.2 L-489.4 -275.2 L-491.3 -275.2 L-493.3 -275.3 L-495.3 -275.3 L-497.2 -275.3 L-499.2 -275.3 L-501.2 -275.3 L-503.2 -275.3 L-505.1 -275.4 L-507.1 -275.4 L-509.1 -275.4 L-511.1 -275.4 L-513 -275.4 L-515 -275.4 L-517 -275.5 L-519 -275.5 L-520.9 -275.5 L-522.9 -275.5 L-524.9 -275.5 L-524.9 -277.5 L-524.9 -279.5 L-524.8 -281.5 L-524.8 -283.4 L-524.8 -285.4 L-524.8 -287.4 L-524.8 -289.3 L-524.8 -291.3 L-524.7 -293.3 L-524.7 -295.3 L-524.7 -297.2 L-524.7 -299.2 L-524.7 -301.2 L-524.6 -303.2 L-524.6 -305.1 L-524.6 -307.1 L-524.6 -309.1 L-524.6 -311.1 L-524.6 -313 L-524.5 -315 L-524.5 -317 L-524.5 -319 L-524.5 -320.9 L-524.5 -322.9 L-524.5 -324.9 Z " />
<path stroke="rgb(0,0,0)" stroke-opacity="0.197" fill="rgb(255,255,255)" fill-opacity="1" d="M24.8 100.2 L24.71 102.2 L24.45 104.1 L24.05 106.1 L23.49 108 L22.78 109.8 L21.93 111.6 L20.94 113.3 L19.82 114.9 L18.57 116.4 L17.21 117.9 L15.74 119.2 L14.16 120.4 L12.5 121.4 L10.76 122.3 L8.949 123.1 L7.083 123.8 L5.172 124.3 L3.229 124.6 L1.265 124.8 L-0.7071 124.8 L-2.674 124.7 L-4.625 124.4 L-6.546 123.9 L-8.426 123.3 L-10.25 122.6 L-12.01 121.7 L-13.7 120.7 L-15.3 119.5 L-16.8 118.2 L-18.2 116.8 L-19.48 115.3 L-20.64 113.7 L-21.66 112.1 L-22.55 110.3 L-23.3 108.5 L-23.9 106.6 L-24.35 104.7 L-24.65 102.7 L-24.79 100.8 L-24.77 98.79 L-24.6 96.83 L-24.27 94.89 L-23.78 92.97 L-23.15 91.11 L-22.37 89.3 L-21.45 87.55 L-20.39 85.89 L-19.21 84.31 L-17.9 82.83 L-16.48 81.47 L-14.96 80.22 L-13.34 79.09 L-11.63 78.1 L-9.856 77.24 L-8.017 76.53 L-6.127 75.97 L-4.199 75.56 L-2.243 75.3 L-0.274 75.2 L1.697 75.25 L3.658 75.47 L5.595 75.84 L7.497 76.36 L9.352 77.03 L11.15 77.84 L12.87 78.8 L14.52 79.89 L16.07 81.1 L17.52 82.44 L18.86 83.89 L20.08 85.44 L21.17 87.08 L22.13 88.8 L22.95 90.59 L23.63 92.45 L24.15 94.35 L24.52 96.28 L24.74 98.24 L24.8 100.2 Z " />
<path stroke="rgb(0,0,0)" stroke-opacity="1" fill="rgb(255,255,255)" fill-opacity="1" d="M-325.2 -322.8 L-323.3 -322.9 L-321.4 -323 L-319.5 -323.1 L-317.5 -323.2 L-315.6 -323.3 L-313.7 -323.4 L-311.8 -323.5 L-309.9 -323.6 L-307.9 -323.7 L-306 -323.8 L-304.1 -323.9 L-302.2 -324 L-300.3 -324.1 L-298.3 -324.2 L-296.4 -324.3 L-294.5 -324.4 L-292.6 -324.5 L-290.7 -324.6 L-288.7 -324.7 L-286.8 -324.8 L-284.9 -324.9 L-283 -325 L-281.1 -325.1 L-279.1 -325.2 L-277.2 -325.2 L-277.1 -323.3 L-277 -321.4 L-276.9 -319.5 L-276.8 -317.6 L-276.7 -315.6 L-276.6 -313.7 L-276.5 -311.8 L-276.4 -309.9 L-276.3 -308 L-276.2 -306 L-276.1 -304.1 L-276 -302.2 L-275.9 -300.3 L-275.8 -298.4 L-275.7 -296.4 L-275.6 -294.5 L-275.5 -292.6 L-275.4 -290.7 L-275.3 -288.8 L-275.2 -286.8 L-275.1 -284.9 L-275 -283 L-275 -281.1 L-274.9 -279.2 L-274.8 -277.2 L-276.7 -277.1 L-278.6 -277 L-280.5 -276.9 L-282.4 -276.8 L-284.4 -276.7 L-286.3 -276.6 L-288.2 -276.6 L-290.1 -276.5 L-292 -276.4 L-294 -276.3 L-295.9 -276.2 L-297.8 -276.1 L-299.7 -276 L-301.6 -275.9 L-303.6 -275.8 L-305.5 -275.7 L-307.4 -275.6 L-309.3 -275.5 L-311.2 -275.4 L-313.2 -275.3 L-315.1 -275.2 L-317 -275.1 L-318.9 -275 L-320.8 -274.9 L-322.8 -274.8 L-322.9 -276.7 L-323 -278.6 L-323.1 -280.5 L-323.2 -282.5 L-323.3 -284.4 L-323.4 -286.3 L-323.5 -288.2 L-323.6 -290.1 L-323.6 -292.1 L-323.7 -294 L-323.8 -295.9 L-323.9 -297.8 L-324 -299.7 L-324.1 -301.7 L-324.2 -303.6 L-324.3 -305.5 L-324.4 -307.4 L-324.5 -309.3 L-324.6 -311.3 L-324.7 -313.2 L-324.8 -315.1 L-324.9 -317 L-325 -318.9 L-325.1 -320.9 L-325.2 -322.8 Z " />
<path stroke="rgb(0,0,0)" stroke-opacity="0.197" fill="rgb(255,255,255)" fill-opacity="1" d="M224.8 100.2 L224.7 102.2 L224.5 104.1 L224 106.1 L223.5 108 L222.8 109.8 L221.9 111.6 L220.9 113.3 L219.8 114.9 L218.6 116.4 L217.2 117.9 L215.7 119.2 L214.2 120.4 L212.5 121.4 L210.8 122.3 L208.9 123.1 L207.1 123.8 L205.2 124.3 L203.2 124.6 L201.3 124.8 L199.3 124.8 L197.3 124.7 L195.4 124.4 L193.5 123.9 L191.6 123.3 L189.7 122.6 L188 121.7 L186.3 120.7 L184.7 119.5 L183.2 118.2 L181.8 116.8 L180.5 115.3 L179.4 113.7 L178.3 112.1 L177.4 110.3 L176.7 108.5 L176.1 106.6 L175.6 104.7 L175.4 102.7 L175.2 100.8 L175.2 98.79 L175.4 96.83 L175.7 94.89 L176.2 92.97 L176.9 91.11 L177.6 89.3 L178.6 87.55 L179.6 85.89 L180.8 84.31 L182.1 82.83 L183.5 81.47 L185 80.22 L186.7 79.09 L188.4 78.1 L190.1 77.24 L192 76.53 L193.9 75.97 L195.8 75.56 L197.8 75.3 L199.7 75.2 L201.7 75.25 L203.7 75.47 L205.6 75.84 L207.5 76.36 L209.4 77.03 L211.1 77.84 L212.9 78.8 L214.5 79.89 L216.1 81.1 L217.5 82.44 L218.9 83.89 L220.1 85.44 L221.2 87.08 L222.1 88.8 L223 90.59 L223.6 92.45 L224.2 94.35 L224.5 96.28 L224.7 98.24 L224.8 100.2 Z " />
<path stroke="rgb(0,0,0)" stroke-opacity="1" fill="rgb(255,255,255)" fill-opacity="1" d="M-127 -311.9 L-125.4 -312.5 L-123.9 -313.1 L-122.3 -313.7 L-120.8 -314.3 L-119.2 -314.9 L-117.7 -315.5 L-116.1 -316.1 L-114.6 -316.8 L-113 -317.4 L-111.5 -318 L-109.9 -318.6 L-108.4 -319.2 L-106.8 -319.8 L-105.3 -320.4 L-103.7 -321 L-102.2 -321.6 L-100.6 -322.3 L-99.09 -322.9 L-97.54 -323.5 L-95.98 -324.1 L-94.43 -324.7 L-92.88 -325.3 L-91.33 -325.9 L-89.78 -326.5 L-88.23 -327.2 L-87.62 -325.6 L-87.01 -324 L-86.4 -322.5 L-85.78 -320.9 L-85.17 -319.4 L-84.56 -317.8 L-83.95 -316.3 L-83.34 -314.7 L-82.73 -313.2 L-82.12 -311.6 L-81.5 -310.1 L-80.89 -308.5 L-80.28 -307 L-79.67 -305.4 L-79.06 -303.9 L-78.45 -302.3 L-77.84 -300.8 L-77.22 -299.2 L-76.61 -297.7 L-76 -296.1 L-75.39 -294.6 L-74.78 -293 L-74.17 -291.5 L-73.55 -289.9 L-72.94 -288.4 L-74.49 -287.8 L-76.04 -287.2 L-77.6 -286.5 L-79.15 -285.9 L-80.7 -285.3 L-82.25 -284.7 L-83.8 -284.1 L-85.35 -283.5 L-86.9 -282.9 L-88.45 -282.3 L-90 -281.7 L-91.55 -281 L-93.1 -280.4 L-94.65 -279.8 L-96.2 -279.2 L-97.75 -278.6 L-99.31 -278 L-100.9 -277.4 L-102.4 -276.8 L-104 -276.2 L-105.5 -275.5 L-107.1 -274.9 L-108.6 -274.3 L-110.2 -273.7 L-111.7 -273.1 L-112.3 -274.6 L-112.9 -276.2 L-113.5 -277.7 L-114.2 -279.3 L-114.8 -280.8 L-115.4 -282.4 L-116 -283.9 L-116.6 -285.5 L-117.2 -287.1 L-117.8 -288.6 L-118.4 -290.2 L-119 -291.7 L-119.7 -293.3 L-120.3 -294.8 L-120.9 -296.4 L-121.5 -297.9 L-122.1 -299.5 L-122.7 -301 L-123.3 -302.6 L-123.9 -304.1 L-124.6 -305.7 L-125.2 -307.2 L-125.8 -308.8 L-126.4 -310.3 L-127 -311.9 Z " />
<path stroke="rgb(0,0,0)" stroke-opacity="0.197" fill="rgb(255,255,255)" fill-opacity="1" d="M-275.2 200.2 L-275.3 202.2 L-275.5 204.1 L-276 206.1 L-276.5 208 L-277.2 209.8 L-278.1 211.6 L-279.1 213.3 L-280.2 214.9 L-281.4 216.4 L-282.8 217.9 L-284.3 219.2 L-285.8 220.4 L-287.5 221.4 L-289.2 222.3 L-291.1 223.1 L-292.9 223.8 L-294.8 224.3 L-296.8 224.6 L-298.7 224.8 L-300.7 224.8 L-302.7 224.7 L-304.6 224.4 L-306.5 223.9 L-308.4 223.3 L-310.3 222.6 L-312 221.7 L-313.7 220.7 L-315.3 219.5 L-316.8 218.2 L-318.2 216.8 L-319.5 215.3 L-320.6 213.7 L-321.7 212.1 L-322.6 210.3 L-323.3 208.5 L-323.9 206.6 L-324.4 204.7 L-324.6 202.7 L-324.8 200.8 L-324.8 198.8 L-324.6 196.8 L-324.3 194.9 L-323.8 193 L-323.1 191.1 L-322.4 189.3 L-321.4 187.6 L-320.4 185.9 L-319.2 184.3 L-317.9 182.8 L-316.5 181.5 L-315 180.2 L-313.3 179.1 L-311.6 178.1 L-309.9 177.2 L-308 176.5 L-306.1 176 L-304.2 175.6 L-302.2 175.3 L-300.3 175.2 L-298.3 175.3 L-296.3 175.5 L-294.4 175.8 L-292.5 176.4 L-290.6 177 L-288.9 177.8 L-287.1 178.8 L-285.5 179.9 L-283.9 181.1 L-282.5 182.4 L-281.1 183.9 L-279.9 185.4 L-278.8 187.1 L-277.9 188.8 L-277 190.6 L-276.4 192.4 L-275.8 194.3 L-275.5 196.3 L-275.3 198.2 L-275.2 200.2 Z " />
<path stroke="rgb(0,0,0)" stroke-opacity="1" fill="rgb(255,255,255)" fill-opacity="1" d="M-624.5 -224.9 L-622.5 -224.9 L-620.5 -224.8 L-618.5 -224.8 L-616.6 -224.8 L-614.6 -224.8 L-612.6 -224.8 L-610.6 -224.8 L-608.7 -224.7 L-606.7 -224.7 L-604.7 -224.7 L-602.7 -224.7 L-600.8 -224.7 L-598.8 -224.7 L-596.8 -224.6 L-594.8 -224.6 L-592.9 -224.6 L-590.9 -224.6 L-588.9 -224.6 L-587 -224.6 L-585 -224.5 L-583 -224.5 L-581 -224.5 L-579.1 -224.5 L-577.1 -224.5 L-575.1 -224.5 L-575.1 -222.5 L-575.1 -220.5 L-575.2 -218.5 L-575.2 -216.6 L-575.2 -214.6 L-575.2 -212.6 L-575.2 -210.6 L-575.2 -208.7 L-575.3 -206.7 L-575.3 -204.7 L-575.3 -202.7 L-575.3 -200.8 L-575.3 -198.8 L-575.3 -196.8 L-575.4 -194.8 L-575.4 -192.9 L-575.4 -190.9 L-575.4 -188.9 L-575.4 -186.9 L-575.4 -185 L-575.5 -183 L-575.5 -181 L-575.5 -179.1 L-575.5 -177.1 L-575.5 -175.1 L-577.5 -175.1 L-579.5 -175.1 L-581.5 -175.2 L-583.4 -175.2 L-585.4 -175.2 L-587.4 -175.2 L-589.4 -175.2 L-591.3 -175.2 L-593.3 -175.3 L-595.3 -175.3 L-597.2 -175.3 L-599.2 -175.3 L-601.2 -175.3 L-603.2 -175.3 L-605.1 -175.4 L-607.1 -175.4 L-609.1 -175.4 L-611.1 -175.4 L-613 -175.4 L-615 -175.4 L-617 -175.5 L-619 -175.5 L-620.9 -175.5 L-622.9 -175.5 L-624.9 -175.5 L-624.9 -177.5 L-624.9 -179.5 L-624.8 -181.5 L-624.8 -183.4 L-624.8 -185.4 L-624.8 -187.4 L-624.8 -189.3 L-624.8 -191.3 L-624.7 -193.3 L-624.7 -195.3 L-624.7 -197.2 L-624.7 -199.2 L-624.7 -201.2 L-624.6 -203.2 L-624.6 -205.1 L-624.6 -207.1 L-624.6 -209.1 L-624.6 -211.1 L-624.6 -213 L-624.5 -215 L-624.5 -217 L-624.5 -219 L-624.5 -220.9 L-624.5 -222.9 L-624.5 -224.9 Z " />
<path stroke="rgb(0,0,0)" stroke-opacity="0.197" fill="rgb(255,255,255)" fill-opacity="1" d="M-75.2 200.2 L-75.29 202.2 L-75.55 204.1 L-75.95 206.1 L-76.51 208 L-77.22 209.8 L-78.07 211.6 L-79.06 213.3 L-80.18 214.9 L-81.43 216.4 L-82.79 217.9 L-84.26 219.2 L-85.84 220.4 L-87.5 221.4 L-89.24 222.3 L-91.05 223.1 L-92.92 223.8 L-94.83 224.3 L-96.77 224.6 L-98.74 224.8 L-100.7 224.8 L-102.7 224.7 L-104.6 224.4 L-106.5 223.9 L-108.4 223.3 L-110.3 222.6 L-112 221.7 L-113.7 220.7 L-115.3 219.5 L-116.8 218.2 L-118.2 216.8 L-119.5 215.3 L-120.6 213.7 L-121.7 212.1 L-122.6 210.3 L-123.3 208.5 L-123.9 206.6 L-124.4 204.7 L-124.6 202.7 L-124.8 200.8 L-124.8 198.8 L-124.6 196.8 L-124.3 194.9 L-123.8 193 L-123.1 191.1 L-122.4 189.3 L-121.4 187.6 L-120.4 185.9 L-119.2 184.3 L-117.9 182.8 L-116.5 181.5 L-115 180.2 L-113.3 179.1 L-111.6 178.1 L-109.9 177.2 L-108 176.5 L-106.1 176 L-104.2 175.6 L-102.2 175.3 L-100.3 175.2 L-98.3 175.3 L-96.34 175.5 L-94.41 175.8 L-92.5 176.4 L-90.65 177 L-88.85 177.8 L-87.13 178.8 L-85.48 179.9 L-83.93 181.1 L-82.48 182.4 L-81.14 183.9 L-79.92 185.4 L-78.83 187.1 L-77.87 188.8 L-77.05 190.6 L-76.37 192.4 L-75.85 194.3 L-75.48 196.3 L-75.26 198.2 L-75.2 200.2 Z " />
<path stroke="rgb(0,0,0)" stroke-opacity="1" fill="rgb(255,255,255)" fill-opacity="1" d="M-425.2 -222.8 L-423.3 -222.9 L-421.4 -223 L-419.5 -223.1 L-417.5 -223.2 L-415.6 -223.3 L-413.7 -223.4 L-411.8 -223.5 L-409.9 -223.6 L-407.9 -223.7 L-406 -223.8 L-404.1 -223.9 L-402.2 -224 L-400.3 -224.1 L-398.3 -224.2 L-396.4 -224.3 L-394.5 -224.4 L-392.6 -224.5 L-390.7 -224.6 L-388.7 -224.7 L-386.8 -224.8 L-384.9 -224.9 L-383 -225 L-381.1 -225.1 L-379.1 -225.2 L-377.2 -225.2 L-377.1 -223.3 L-377 -221.4 L-376.9 -219.5 L-376.8 -217.6 L-376.7 -215.6 L-376.6 -213.7 L-376.5 -211.8 L-376.4 -209.9 L-376.3 -208 L-376.2 -206 L-376.1 -204.1 L-376 -202.2 L-375.9 -200.3 L-375.8 -198.4 L-375.7 -196.4 L-375.6 -194.5 L-375.5 -192.6 L-375.4 -190.7 L-375.3 -188.8 L-375.2 -186.8 L-375.1 -184.9 L-375 -183 L-375 -181.1 L-374.9 -179.2 L-374.8 -177.2 L-376.7 -177.1 L-378.6 -177 L-380.5 -176.9 L-382.4 -176.8 L-384.4 -176.7 L-386.3 -176.6 L-388.2 -176.6 L-390.1 -176.5 L-392 -176.4 L-394 -176.3 L-395.9 -176.2 L-397.8 -176.1 L-399.7 -176 L-401.6 -175.9 L-403.6 -175.8 L-405.5 -175.7 L-407.4 -175.6 L-409.3 -175.5 L-411.2 -175.4 L-413.2 -175.3 L-415.1 -175.2 L-417 -175.1 L-418.9 -175 L-420.8 -174.9 L-422.8 -174.8 L-422.9 -176.7 L-423 -178.6 L-423.1 -180.5 L-423.2 -182.5 L-423.3 -184.4 L-423.4 -186.3 L-423.5 -188.2 L-423.6 -190.1 L-423.6 -192.1 L-423.7 -194 L-423.8 -195.9 L-423.9 -197.8 L-424 -199.7 L-424.1 -201.7 L-424.2 -203.6 L-424.3 -205.5 L-424.4 -207.4 L-424.5 -209.3 L-424.6 -211.3 L-424.7 -213.2 L-424.8 -215.1 L-424.9 -217 L-425 -218.9 L-425.1 -220.9 L-425.2 -222.8 Z " />
<path stroke="rgb(0,0,0)" stroke-opacity="0.197" fill="rgb(255,255,255)" fill-opacity="1" d="M124.8 200.2 L124.7 202.2 L124.5 204.1 L124 206.1 L123.5 208 L122.8 209.8 L121.9 211.6 L120.9 213.3 L119.8 214.9 L118.6 216.4 L117.2 217.9 L115.7 219.2 L114.2 220.4 L112.5 221.4 L110.8 222.3 L108.9 223.1 L107.1 223.8 L105.2 224.3 L103.2 224.6 L101.3 224.8 L99.29 224.8 L97.33 224.7 L95.38 224.4 L93.45 223.9 L91.57 223.3 L89.75 222.6 L87.99 221.7 L86.3 220.7 L84.7 219.5 L83.2 218.2 L81.8 216.8 L80.52 215.3 L79.36 213.7 L78.34 212.1 L77.45 210.3 L76.7 208.5 L76.1 206.6 L75.65 204.7 L75.35 202.7 L75.21 200.8 L75.23 198.8 L75.4 196.8 L75.73 194.9 L76.22 193 L76.85 191.1 L77.63 189.3 L78.55 187.6 L79.61 185.9 L80.79 184.3 L82.1 182.8 L83.52 181.5 L85.04 180.2 L86.66 179.1 L88.37 178.1 L90.14 177.2 L91.98 176.5 L93.87 176 L95.8 175.6 L97.76 175.3 L99.73 175.2 L101.7 175.3 L103.7 175.5 L105.6 175.8 L107.5 176.4 L109.4 177 L111.1 177.8 L112.9 178.8 L114.5 179.9 L116.1 181.1 L117.5 182.4 L118.9 183.9 L120.1 185.4 L121.2 187.1 L122.1 188.8 L123 190.6 L123.6 192.4 L124.2 194.3 L124.5 196.3 L124.7 198.2 L124.8 200.2 Z " />
<path stroke="rgb(0,0,0)" stroke-opacity="1" fill="rgb(255,255,255)" fill-opacity="1" d="M-227 -211.9 L-225.4 -212.5 L-223.9 -213.1 L-222.3 -213.7 L-220.8 -214.3 L-219.2 -214.9 L-217.7 -215.5 L-216.1 -216.1 L-214.6 -216.8 L-213 -217.4 L-211.5 -218 L-209.9 -218.6 L-208.4 -219.2 L-206.8 -219.8 L-205.3 -220.4 L-203.7 -221 L-202.2 -221.6 L-200.6 -222.3 L-199.1 -222.9 L-197.5 -223.5 L-196 -224.1 L-194.4 -224.7 L-192.9 -225.3 L-191.3 -225.9 L-189.8 -226.5 L-188.2 -227.2 L-187.6 -225.6 L-187 -224 L-186.4 -222.5 L-185.8 -220.9 L-185.2 -219.4 L-184.6 -217.8 L-184 -216.3 L-183.3 -214.7 L-182.7 -213.2 L-182.1 -211.6 L-181.5 -210.1 L-180.9 -208.5 L-180.3 -207 L-179.7 -205.4 L-179.1 -203.9 L-178.4 -202.3 L-177.8 -200.8 L-177.2 -199.2 L-176.6 -197.7 L-176 -196.1 L-175.4 -194.6 L-174.8 -193 L-174.2 -191.5 L-173.6 -189.9 L-172.9 -188.4 L-174.5 -187.8 L-176 -187.2 L-177.6 -186.5 L-179.1 -185.9 L-180.7 -185.3 L-182.2 -184.7 L-183.8 -184.1 L-185.3 -183.5 L-186.9 -182.9 L-188.5 -182.3 L-190 -181.7 L-191.6 -181 L-193.1 -180.4 L-194.7 -179.8 L-196.2 -179.2 L-197.8 -178.6 L-199.3 -178 L-200.9 -177.4 L-202.4 -176.8 L-204 -176.2 L-205.5 -175.5 L-207.1 -174.9 L-208.6 -174.3 L-210.2 -173.7 L-211.7 -173.1 L-212.3 -174.6 L-212.9 -176.2 L-213.5 -177.7 L-214.2 -179.3 L-214.8 -180.8 L-215.4 -182.4 L-216 -183.9 L-216.6 -185.5 L-217.2 -187.1 L-217.8 -188.6 L-218.4 -190.2 L-219 -191.7 L-219.7 -193.3 L-220.3 -194.8 L-220.9 -196.4 L-221.5 -197.9 L-222.1 -199.5 L-222.7 -201 L-223.3 -202.6 L-223.9 -204.1 L-224.6 -205.7 L-225.2 -207.2 L-225.8 -208.8 L-226.4 -210.3 L-227 -211.9 Z " />
<path stroke="rgb(0,0,0)" stroke-opacity="0.197" fill="rgb(255,255,255)" fill-opacity="1" d="M324.8 200.2 L324.7 202.2 L324.5 204.1 L324 206.1 L323.5 208 L322.8 209.8 L321.9 211.6 L320.9 213.3 L319.8 214.9 L318.6 216.4 L317.2 217.9 L315.7 219.2 L314.2 220.4 L312.5 221.4 L310.8 222.3 L308.9 223.1 L307.1 223.8 L305.2 224.3 L303.2 224.6 L301.3 224.8 L299.3 224.8 L297.3 224.7 L295.4 224.4 L293.5 223.9 L291.6 223.3 L289.7 222.6 L288 221.7 L286.3 220.7 L284.7 219.5 L283.2 218.2 L281.8 216.8 L280.5 215.3 L279.4 213.7 L278.3 212.1 L277.4 210.3 L276.7 208.5 L276.1 206.6 L275.6 204.7 L275.4 202.7 L275.2 200.8 L275.2 198.8 L275.4 196.8 L275.7 194.9 L276.2 193 L276.9 191.1 L277.6 189.3 L278.6 187.6 L279.6 185.9 L280.8 184.3 L282.1 182.8 L283.5 181.5 L285 180.2 L286.7 179.1 L288.4 178.1 L290.1 177.2 L292 176.5 L293.9 176 L295.8 175.6 L297.8 175.3 L299.7 175.2 L301.7 175.3 L303.7 175.5 L305.6 175.8 L307.5 176.4 L309.4 177 L311.1 177.8 L312.9 178.8 L314.5 179.9 L316.1 181.1 L317.5 182.4 L318.9 183.9 L320.1 185.4 L321.2 187.1 L322.1 188.8 L323 190.6 L323.6 192.4 L324.2 194.3 L324.5 196.3 L324.7 198.2 L324.8 200.2 Z " />
<path stroke="rgb(0,0,0)" stroke-opacity="1" fill="rgb(255,255,255)" fill-opacity="1" d="M-724.5 -124.9 L-722.5 -124.9 L-720.5 -124.8 L-718.5 -124.8 L-716.6 -124.8 L-714.6 -124.8 L-712.6 -124.8 L-710.6 -124.8 L-708.7 -124.7 L-706.7 -124.7 L-704.7 -124.7 L-702.7 -124.7 L-700.8 -124.7 L-698.8 -124.7 L-696.8 -124.6 L-694.8 -124.6 L-692.9 -124.6 L-690.9 -124.6 L-688.9 -124.6 L-687 -124.6 L-685 -124.5 L-683 -124.5 L-681 -124.5 L-679.1 -124.5 L-677.1 -124.5 L-675.1 -124.5 L-675.1 -122.5 L-675.1 -120.5 L-675.2 -118.5 L-675.2 -116.6 L-675.2 -114.6 L-675.2 -112.6 L-675.2 -110.6 L-675.2 -108.7 L-675.3 -106.7 L-675.3 -104.7 L-675.3 -102.7 L-675.3 -100.8 L-675.3 -98.79 L-675.3 -96.82 L-675.4 -94.84 L-675.4 -92.87 L-675.4 -90.9 L-675.4 -88.92 L-675.4 -86.95 L-675.4 -84.97 L-675.5 -83 L-675.5 -81.03 L-675.5 -79.05 L-675.5 -77.08 L-675.5 -75.1 L-677.5 -75.12 L-679.5 -75.14 L-681.5 -75.15 L-683.4 -75.17 L-685.4 -75.19 L-687.4 -75.21 L-689.4 -75.22 L-691.3 -75.24 L-693.3 -75.26 L-695.3 -75.27 L-697.2 -75.29 L-699.2 -75.31 L-701.2 -75.32 L-703.2 -75.34 L-705.1 -75.36 L-707.1 -75.37 L-709.1 -75.39 L-711.1 -75.41 L-713 -75.43 L-715 -75.44 L-717 -75.46 L-719 -75.48 L-720.9 -75.49 L-722.9 -75.51 L-724.9 -75.53 L-724.9 -77.5 L-724.9 -79.48 L-724.8 -81.45 L-724.8 -83.42 L-724.8 -85.4 L-724.8 -87.37 L-724.8 -89.35 L-724.8 -91.32 L-724.7 -93.29 L-724.7 -95.27 L-724.7 -97.24 L-724.7 -99.22 L-724.7 -101.2 L-724.6 -103.2 L-724.6 -105.1 L-724.6 -107.1 L-724.6 -109.1 L-724.6 -111.1 L-724.6 -113 L-724.5 -115 L-724.5 -117 L-724.5 -119 L-724.5 -120.9 L-724.5 -122.9 L-724.5 -124.9 Z " />
<path stroke="rgb(0,0,0)" stroke-opacity="0.197" fill="rgb(255,255,255)" fill-opacity="1" d="M-175.2 300.2 L-175.3 302.2 L-175.5 304.1 L-176 306.1 L-176.5 308 L-177.2 309.8 L-178.1 311.6 L-179.1 313.3 L-180.2 314.9 L-181.4 316.4 L-182.8 317.9 L-184.3 319.2 L-185.8 320.4 L-187.5 321.4 L-189.2 322.3 L-191.1 323.1 L-192.9 323.8 L-194.8 324.3 L-196.8 324.6 L-198.7 324.8 L-200.7 324.8 L-202.7 324.7 L-204.6 324.4 L-206.5 323.9 L-208.4 323.3 L-210.3 322.6 L-212 321.7 L-213.7 320.7 L-215.3 319.5 L-216.8 318.2 L-218.2 316.8 L-219.5 315.3 L-220.6 313.7 L-221.7 312.1 L-222.6 310.3 L-223.3 308.5 L-223.9 306.6 L-224.4 304.7 L-224.6 302.7 L-224.8 300.8 L-224.8 298.8 L-224.6 296.8 L-224.3 294.9 L-223.8 293 L-223.1 291.1 L-222.4 289.3 L-221.4 287.6 L-220.4 285.9 L-219.2 284.3 L-217.9 282.8 L-216.5 281.5 L-215 280.2 L-213.3 279.1 L-211.6 278.1 L-209.9 277.2 L-208 276.5 L-206.1 276 L-204.2 275.6 L-202.2 275.3 L-200.3 275.2 L-198.3 275.3 L-196.3 275.5 L-194.4 275.8 L-192.5 276.4 L-190.6 277 L-188.9 277.8 L-187.1 278.8 L-185.5 279.9 L-183.9 281.1 L-182.5 282.4 L-181.1 283.9 L-179.9 285.4 L-178.8 287.1 L-177.9 288.8 L-177 290.6 L-176.4 292.4 L-175.8 294.3 L-175.5 296.3 L-175.3 298.2 L-175.2 300.2 Z " />
<path stroke="rgb(0,0,0)" stroke-opacity="1" fill="rgb(255,255,255)" fill-opacity="1" d="M-525.2 -122.8 L-523.3 -122.9 L-521.4 -123 L-519.5 -123.1 L-517.5 -123.2 L-515.6 -123.3 L-513.7 -123.4 L-511.8 -123.5 L-509.9 -123.6 L-507.9 -123.7 L-506 -123.8 L-504.1 -123.9 L-502.2 -124 L-500.3 -124.1 L-498.3 -124.2 L-496.4 -124.3 L-494.5 -124.4 L-492.6 -124.5 L-490.7 -124.6 L-488.7 -124.7 L-486.8 -124.8 L-484.9 -124.9 L-483 -125 L-481.1 -125.1 L-479.1 -125.2 L-477.2 -125.2 L-477.1 -123.3 L-477 -121.4 L-476.9 -119.5 L-476.8 -117.6 L-476.7 -115.6 L-476.6 -113.7 L-476.5 -111.8 L-476.4 -109.9 L-476.3 -108 L-476.2 -106 L-476.1 -104.1 L-476 -102.2 L-475.9 -100.3 L-475.8 -98.36 L-475.7 -96.44 L-475.6 -94.52 L-475.5 -92.6 L-475.4 -90.68 L-475.3 -88.76 L-475.2 -86.84 L-475.1 -84.92 L-475 -83 L-475 -81.08 L-474.9 -79.16 L-474.8 -77.24 L-476.7 -77.14 L-478.6 -77.04 L-480.5 -76.94 L-482.4 -76.85 L-484.4 -76.75 L-486.3 -76.65 L-488.2 -76.55 L-490.1 -76.45 L-492 -76.35 L-494 -76.25 L-495.9 -76.16 L-497.8 -76.06 L-499.7 -75.96 L-501.6 -75.86 L-503.6 -75.76 L-505.5 -75.66 L-507.4 -75.57 L-509.3 -75.47 L-511.2 -75.37 L-513.2 -75.27 L-515.1 -75.17 L-517 -75.07 L-518.9 -74.97 L-520.8 -74.88 L-522.8 -74.78 L-522.9 -76.7 L-523 -78.62 L-523.1 -80.54 L-523.2 -82.46 L-523.3 -84.38 L-523.4 -86.3 L-523.5 -88.22 L-523.6 -90.14 L-523.6 -92.06 L-523.7 -93.98 L-523.8 -95.9 L-523.9 -97.82 L-524 -99.74 L-524.1 -101.7 L-524.2 -103.6 L-524.3 -105.5 L-524.4 -107.4 L-524.5 -109.3 L-524.6 -111.3 L-524.7 -113.2 L-524.8 -115.1 L-524.9 -117 L-525 -118.9 L-525.1 -120.9 L-525.2 -122.8 Z " />
<path stroke="rgb(0,0,0)" stroke-opacity="0.197" fill="rgb(255,255,255)" fill-opacity="1" d="M24.8 300.2 L24.71 302.2 L24.45 304.1 L24.05 306.1 L23.49 308 L22.78 309.8 L21.93 311.6 L20.94 313.3 L19.82 314.9 L18.57 316.4 L17.21 317.9 L15.74 319.2 L14.16 320.4 L12.5 321.4 L10.76 322.3 L8.949 323.1 L7.083 323.8 L5.172 324.3 L3.229 324.6 L1.265 324.8 L-0.7071 324.8 L-2.674 324.7 L-4.625 324.4 L-6.546 323.9 L-8.426 323.3 L-10.25 322.6 L-12.01 321.7 L-13.7 320.7 L-15.3 319.5 L-16.8 318.2 L-18.2 316.8 L-19.48 315.3 L-20.64 313.7 L-21.66 312.1 L-22.55 310.3 L-23.3 308.5 L-23.9 306.6 L-24.35 304.7 L-24.65 302.7 L-24.79 300.8 L-24.77 298.8 L-24.6 296.8 L-24.27 294.9 L-23.78 293 L-23.15 291.1 L-22.37 289.3 L-21.45 287.6 L-20.39 285.9 L-19.21 284.3 L-17.9 282.8 L-16.48 281.5 L-14.96 280.2 L-13.34 279.1 L-11.63 278.1 L-9.856 277.2 L-8.017 276.5 L-6.127 276 L-4.199 275.6 L-2.243 275.3 L-0.274 275.2 L1.697 275.3 L3.658 275.5 L5.595 275.8 L7.497 276.4 L9.352 277 L11.15 277.8 L12.87 278.8 L14.52 279.9 L16.07 281.1 L17.52 282.4 L18.86 283.9 L20.08 285.4 L21.17 287.1 L22.13 288.8 L22.95 290.6 L23.63 292.4 L24.15 294.3 L24.52 296.3 L24.74 298.2 L24.8 300.2 Z " />
<path stroke="rgb(0,0,0)" stroke-opacity="1" fill="rgb(255,255,255)" fill-opacity="1" d="M-327 -111.9 L-325.4 -112.5 L-323.9 -113.1 L-322.3 -113.7 L-320.8 -114.3 L-319.2 -114.9 L-317.7 -115.5 L-316.1 -116.1 L-314.6 -116.8 L-313 -117.4 L-311.5 -118 L-309.9 -118.6 L-308.4 -119.2 L-306.8 -119.8 L-305.3 -120.4 L-303.7 -121 L-302.2 -121.6 L-300.6 -122.3 L-299.1 -122.9 L-297.5 -123.5 L-296 -124.1 L-294.4 -124.7 L-292.9 -125.3 L-291.3 -125.9 L-289.8 -126.5 L-288.2 -127.2 L-287.6 -125.6 L-287 -124 L-286.4 -122.5 L-285.8 -120.9 L-285.2 -119.4 L-284.6 -117.8 L-284 -116.3 L-283.3 -114.7 L-282.7 -113.2 L-282.1 -111.6 L-281.5 -110.1 L-280.9 -108.5 L-280.3 -107 L-279.7 -105.4 L-279.1 -103.9 L-278.4 -102.3 L-277.8 -100.8 L-277.2 -99.24 L-276.6 -97.69 L-276 -96.14 L-275.4 -94.59 L-274.8 -93.03 L-274.2 -91.48 L-273.6 -89.93 L-272.9 -88.38 L-274.5 -87.77 L-276 -87.16 L-277.6 -86.55 L-279.1 -85.94 L-280.7 -85.32 L-282.2 -84.71 L-283.8 -84.1 L-285.3 -83.49 L-286.9 -82.88 L-288.5 -82.27 L-290 -81.66 L-291.6 -81.04 L-293.1 -80.43 L-294.7 -79.82 L-296.2 -79.21 L-297.8 -78.6 L-299.3 -77.99 L-300.9 -77.37 L-302.4 -76.76 L-304 -76.15 L-305.5 -75.54 L-307.1 -74.93 L-308.6 -74.32 L-310.2 -73.71 L-311.7 -73.09 L-312.3 -74.65 L-312.9 -76.2 L-313.5 -77.75 L-314.2 -79.3 L-314.8 -80.85 L-315.4 -82.4 L-316 -83.95 L-316.6 -85.5 L-317.2 -87.05 L-317.8 -88.6 L-318.4 -90.15 L-319 -91.7 L-319.7 -93.25 L-320.3 -94.8 L-320.9 -96.36 L-321.5 -97.91 L-322.1 -99.46 L-322.7 -101 L-323.3 -102.6 L-323.9 -104.1 L-324.6 -105.7 L-325.2 -107.2 L-325.8 -108.8 L-326.4 -110.3 L-327 -111.9 Z " />
<path stroke="rgb(0,0,0)" stroke-opacity="0.197" fill="rgb(255,255,255)" fill-opacity="1" d="M224.8 300.2 L224.7 302.2 L224.5 304.1 L224 306.1 L223.5 308 L222.8 309.8 L221.9 311.6 L220.9 313.3 L219.8 314.9 L218.6 316.4 L217.2 317.9 L215.7 319.2 L214.2 320.4 L212.5 321.4 L210.8 322.3 L208.9 323.1 L207.1 323.8 L205.2 324.3 L203.2 324.6 L201.3 324.8 L199.3 324.8 L197.3 324.7 L195.4 324.4 L193.5 323.9 L191.6 323.3 L189.7 322.6 L188 321.7 L186.3 320.7 L184.7 319.5 L183.2 318.2 L181.8 316.8 L180.5 315.3 L179.4 313.7 L178.3 312.1 L177.4 310.3 L176.7 308.5 L176.1 306.6 L175.6 304.7 L175.4 302.7 L175.2 300.8 L175.2 298.8 L175.4 296.8 L175.7 294.9 L176.2 293 L176.9 291.1 L177.6 289.3 L178.6 287.6 L179.6 285.9 L180.8 284.3 L182.1 282.8 L183.5 281.5 L185 280.2 L186.7 279.1 L188.4 278.1 L190.1 277.2 L192 276.5 L193.9 276 L195.8 275.6 L197.8 275.3 L199.7 275.2 L201.7 275.3 L203.7 275.5 L205.6 275.8 L207.5 276.4 L209.4 277 L211.1 277.8 L212.9 278.8 L214.5 279.9 L216.1 281.1 L217.5 282.4 L218.9 283.9 L220.1 285.4 L221.2 287.1 L222.1 288.8 L223 290.6 L223.6 292.4 L224.2 294.3 L224.5 296.3 L224.7 298.2 L224.8 300.2 Z " />
<path stroke="rgb(0,0,0)" stroke-opacity="1" fill="rgb(255,255,255)" fill-opacity="1" d="M-120.7 -93.97 L-120.1 -95.05 L-119.5 -96.13 L-119 -97.21 L-118.4 -98.29 L-117.8 -99.37 L-117.2 -100.4 L-116.7 -101.5 L-116.1 -102.6 L-115.5 -103.7 L-114.9 -104.8 L-114.4 -105.8 L-113.8 -106.9 L-113.2 -108 L-112.7 -109.1 L-112.1 -110.1 L-111.5 -111.2 L-110.9 -112.3 L-110.4 -113.4 L-109.8 -114.5 L-109.2 -115.5 L-108.7 -116.6 L-108.1 -117.7 L-107.5 -118.8 L-106.9 -119.9 L-106.4 -120.9 L-105.3 -120.4 L-104.2 -119.8 L-103.1 -119.2 L-102 -118.6 L-101 -118.1 L-99.89 -117.5 L-98.81 -116.9 L-97.74 -116.4 L-96.66 -115.8 L-95.58 -115.2 L-94.5 -114.6 L-93.42 -114.1 L-92.34 -113.5 L-91.27 -112.9 L-90.19 -112.4 L-89.11 -111.8 L-88.03 -111.2 L-86.95 -110.6 L-85.87 -110.1 L-84.79 -109.5 L-83.72 -108.9 L-82.64 -108.3 L-81.56 -107.8 L-80.48 -107.2 L-79.4 -106.6 L-79.97 -105.6 L-80.55 -104.5 L-81.12 -103.4 L-81.69 -102.3 L-82.26 -101.2 L-82.84 -100.2 L-83.41 -99.08 L-83.98 -98 L-84.55 -96.92 L-85.12 -95.85 L-85.7 -94.77 L-86.27 -93.69 L-86.84 -92.61 L-87.41 -91.53 L-87.98 -90.45 L-88.56 -89.38 L-89.13 -88.3 L-89.7 -87.22 L-90.27 -86.14 L-90.85 -85.06 L-91.42 -83.98 L-91.99 -82.9 L-92.56 -81.83 L-93.13 -80.75 L-93.71 -79.67 L-94.78 -80.24 L-95.86 -80.81 L-96.94 -81.39 L-98.02 -81.96 L-99.1 -82.53 L-100.2 -83.1 L-101.3 -83.67 L-102.3 -84.25 L-103.4 -84.82 L-104.5 -85.39 L-105.6 -85.96 L-106.6 -86.54 L-107.7 -87.11 L-108.8 -87.68 L-109.9 -88.25 L-111 -88.82 L-112 -89.4 L-113.1 -89.97 L-114.2 -90.54 L-115.3 -91.11 L-116.4 -91.68 L-117.4 -92.26 L-118.5 -92.83 L-119.6 -93.4 L-120.7 -93.97 Z " />
</g>
</g>
</svg>
