<!DOCTYPE svg>
<svg xmlns="http://www.w3.org/2000/svg" xmlns:xlink="http://www.w3.org/1999/xlink" width="1000" height="1000">
<g transform="translate(500.000000,500.000000)">
<g transform="scale(3.000000,3.000000)">
<path stroke="rgb(0,0,0)" stroke-opacity="1" fill="rgb(255,255,255)" fill-opacity="1" d="M-887.9 -912.2 L-888 -911.3 L-888 -910.3 L-888 -909.3 L-888 -908.3 L-888 -907.3 L-888 -906.3 L-888 -905.4 L-888 -904.4 L-888 -903.4 L-888.1 -902.4 L-888.1 -901.4 L-888.1 -900.5 L-888.1 -899.5 L-888.1 -898.5 L-888.1 -897.5 L-888.1 -896.5 L-888.1 -895.5 L-888.2 -894.6 L-888.2 -893.6 L-888.2 -892.6 L-888.2 -891.6 L-888.2 -890.6 L-888.2 -889.7 L-888.2 -888.7 L-888.2 -887.7 L-889.2 -887.7 L-890.2 -887.7 L-891.2 -887.7 L-892.2 -887.7 L-893.1 -887.8 L-894.1 -887.8 L-895.1 -887.8 L-896.1 -887.8 L-897.1 -887.8 L-898.1 -887.8 L-899 -887.8 L-900 -887.8 L-901 -887.8 L-902 -887.9 L-903 -887.9 L-903.9 -887.9 L-904.9 -887.9 L-905.9 -887.9 L-906.9 -887.9 L-907.9 -887.9 L-908.8 -887.9 L-909.8 -888 L-910.8 -888 L-911.8 -888 L-912.8 -888 L-912.8 -889 L-912.8 -890 L-912.7 -890.9 L-912.7 -891.9 L-912.7 -892.9 L-912.7 -893.9 L-912.7 -894.9 L-912.7 -895.8 L-912.7 -896.8 L-912.7 -897.8 L-912.6 -898.8 L-912.6 -899.8 L-912.6 -900.8 L-912.6 -901.7 L-912.6 -902.7 L-912.6 -903.7 L-912.6 -904.7 L-912.6 -905.7 L-912.6 -906.6 L-912.5 -907.6 L-912.5 -908.6 L-912.5 -909.6 L-912.5 -910.6 L-912.5 -911.6 L-912.5 -912.5 L-911.5 -912.5 L-910.5 -912.5 L-909.5 -912.5 L-908.6 -912.5 L-907.6 -912.5 L-906.6 -912.5 L-905.6 -912.5 L-904.6 -912.4 L-903.6 -912.4 L-902.7 -912.4 L-901.7 -912.4 L-900.7 -912.4 L-899.7 -912.4 L-898.7 -912.4 L-897.8 -912.4 L-896.8 -912.3 L-895.8 -912.3 L-894.8 -912.3 L-893.8 -912.3 L-892.8 -912.3 L-891.9 -912.3 L-890.9 -912.3 L-889.9 -912.3 L-888.9 -912.3 L-887.9 -912.2 Z " />
<path stroke="rgb(0,0,0)" stroke-opacity="1" fill="rgb(255,255,255)" fill-opacity="1" d="M-184.2 -310.4 L-183.4 -309.1 L-182.7 -307.8 L-182.1 -306.4 L-181.7 -305 L-181.3 -303.5 L-181.1 -302 L-181 -300.5 L-181 -299 L-181.1 -297.5 L-181.3 -296 L-181.7 -294.6 L-182.2 -293.2 L-182.8 -291.8 L-183.5 -290.4 L-184.3 -289.2 L-185.2 -288 L-186.2 -286.8 L-187.2 -285.8 L-188.4 -284.8 L-189.6 -284 L-190.9 -283.2 L-192.3 -282.5 L-193.7 -282 L-195.1 -281.5 L-196.6 -281.2 L-198.1 -281 L-199.6 -280.9 L-201.1 -281 L-202.6 -281.1 L-204.1 -281.4 L-205.5 -281.8 L-206.9 -282.3 L-208.3 -282.9 L-209.6 -283.7 L-210.9 -284.5 L-212.1 -285.4 L-213.2 -286.4 L-214.2 -287.5 L-215.2 -288.7 L-216 -289.9 L-216.7 -291.3 L-217.4 -292.6 L-217.9 -294 L-218.3 -295.5 L-218.6 -297 L-218.8 -298.5 L-218.8 -300 L-218.7 -301.5 L-218.6 -303 L-218.3 -304.4 L-217.8 -305.9 L-217.3 -307.3 L-216.7 -308.6 L-215.9 -309.9 L-215.1 -311.2 L-214.1 -312.4 L-213.1 -313.4 L-211.9 -314.4 L-210.8 -315.4 L-209.5 -316.2 L-208.2 -316.9 L-206.8 -317.5 L-205.4 -318 L-203.9 -318.4 L-202.4 -318.6 L-200.9 -318.8 L-199.4 -318.8 L-197.9 -318.7 L-196.4 -318.5 L-195 -318.1 L-193.5 -317.7 L-192.1 -317.1 L-190.8 -316.5 L-189.5 -315.7 L-188.3 -314.8 L-187.1 -313.8 L-186 -312.8 L-185.1 -311.6 L-184.2 -310.4 Z " />
<path stroke="rgb(0,0,0)" stroke-opacity="1" fill="rgb(255,255,255)" fill-opacity="1" d="M-687.9 -912.2 L-688 -911.3 L-688 -910.3 L-688 -909.3 L-688 -908.3 L-688 -907.3 L-688 -906.3 L-688 -905.4 L-688 -904.4 L-688 -903.4 L-688.1 -902.4 L-688.1 -901.4 L-688.1 -900.5 L-688.1 -899.5 L-688.1 -898.5 L-688.1 -897.5 L-688.1 -896.5 L-688.1 -895.5 L-688.2 -894.6 L-688.2 -893.6 L-688.2 -892.6 L-688.2 -891.6 L-688.2 -890.6 L-688.2 -889.7 L-688.2 -888.7 L-688.2 -887.7 L-689.2 -887.7 L-690.2 -887.7 L-691.2 -887.7 L-692.2 -887.7 L-693.1 -887.8 L-694.1 -887.8 L-695.1 -887.8 L-696.1 -887.8 L-697.1 -887.8 L-698.1 -887.8 L-699 -887.8 L-700 -887.8 L-701 -887.8 L-702 -887.9 L-703 -887.9 L-703.9 -887.9 L-704.9 -887.9 L-705.9 -887.9 L-706.9 -887.9 L-707.9 -887.9 L-708.8 -887.9 L-709.8 -888 L-710.8 -888 L-711.8 -888 L-712.8 -888 L-712.8 -889 L-712.8 -890 L-712.7 -890.9 L-712.7 -891.9 L-712.7 -892.9 L-712.7 -893.9 L-712.7 -894.9 L-712.7 -895.8 L-712.7 -896.8 L-712.7 -897.8 L-712.6 -898.8 L-712.6 -899.8 L-712.6 -900.8 L-712.6 -901.7 L-712.6 -902.7 L-712.6 -903.7 L-712.6 -904.7 L-712.6 -905.7 L-712.6 -906.6 L-712.5 -907.6 L-712.5 -908.6 L-712.5 -909.6 L-712.5 -910.6 L-712.5 -911.6 L-712.5 -912.5 L-711.5 -912.5 L-710.5 -912.5 L-709.5 -912.5 L-708.6 -912.5 L-707.6 -912.5 L-706.6 -912.5 L-705.6 -912.5 L-704.6 -912.4 L-703.6 -912.4 L-702.7 -912.4 L-701.7 -912.4 L-700.7 -912.4 L-699.7 -912.4 L-698.7 -912.4 L-697.8 -912.4 L-696.8 -912.3 L-695.8 -912.3 L-694.8 -912.3 L-693.8 -912.3 L-692.8 -912.3 L-691.9 -912.3 L-690.9 -912.3 L-689.9 -912.3 L-688.9 -912.3 L-687.9 -912.2 Z " />
<path stroke="rgb(0,0,0)" stroke-opacity="1" fill="rgb(255,255,255)" fill-opacity="1" d="M2.506 -312.9 L3.536 -312.7 L4.546 -312.4 L5.529 -312 L6.478 -311.5 L7.389 -311 L8.255 -310.4 L9.07 -309.7 L9.83 -309 L10.53 -308.2 L11.16 -307.4 L11.73 -306.5 L12.22 -305.6 L12.64 -304.6 L12.98 -303.6 L13.24 -302.6 L13.42 -301.6 L13.51 -300.5 L13.52 -299.4 L13.45 -298.4 L13.3 -297.4 L13.06 -296.3 L12.74 -295.3 L12.34 -294.4 L11.87 -293.4 L11.32 -292.5 L10.7 -291.7 L10.02 -290.9 L9.276 -290.1 L8.475 -289.4 L7.622 -288.8 L6.723 -288.3 L5.783 -287.8 L4.808 -287.4 L3.804 -287.1 L2.779 -286.8 L1.737 -286.7 L0.6869 -286.6 L-0.3662 -286.6 L-1.415 -286.7 L-2.453 -286.9 L-3.474 -287.1 L-4.472 -287.5 L-5.439 -287.9 L-6.369 -288.4 L-7.258 -288.9 L-8.099 -289.6 L-8.888 -290.3 L-9.618 -291 L-10.29 -291.9 L-10.89 -292.7 L-11.42 -293.6 L-11.87 -294.6 L-12.25 -295.6 L-12.55 -296.6 L-12.77 -297.6 L-12.91 -298.6 L-12.96 -299.7 L-12.93 -300.8 L-12.81 -301.8 L-12.62 -302.8 L-12.34 -303.8 L-11.98 -304.8 L-11.54 -305.8 L-11.03 -306.7 L-10.45 -307.6 L-9.8 -308.4 L-9.086 -309.2 L-8.313 -309.9 L-7.485 -310.6 L-6.608 -311.1 L-5.688 -311.7 L-4.73 -312.1 L-3.74 -312.5 L-2.725 -312.7 L-1.69 -312.9 L-0.6434 -313 L0.4092 -313.1 L1.461 -313 L2.506 -312.9 Z " />
<path stroke="rgb(0,0,0)" stroke-opacity="1" fill="rgb(255,255,255)" fill-opacity="1" d="M-487.7 -912 L-487.7 -911 L-487.7 -910.1 L-487.7 -909.1 L-487.8 -908.1 L-487.8 -907.1 L-487.8 -906.1 L-487.8 -905.2 L-487.8 -904.2 L-487.8 -903.2 L-487.8 -902.2 L-487.8 -901.2 L-487.8 -900.2 L-487.8 -899.3 L-487.8 -898.3 L-487.8 -897.3 L-487.8 -896.3 L-487.9 -895.3 L-487.9 -894.4 L-487.9 -893.4 L-487.9 -892.4 L-487.9 -891.4 L-487.9 -890.4 L-487.9 -889.4 L-487.9 -888.5 L-487.9 -887.5 L-488.9 -887.5 L-489.9 -887.5 L-490.9 -887.5 L-491.8 -887.5 L-492.8 -887.5 L-493.8 -887.5 L-494.8 -887.5 L-495.8 -887.5 L-496.7 -887.5 L-497.7 -887.6 L-498.7 -887.6 L-499.7 -887.6 L-500.7 -887.6 L-501.7 -887.6 L-502.6 -887.6 L-503.6 -887.6 L-504.6 -887.6 L-505.6 -887.6 L-506.6 -887.6 L-507.5 -887.6 L-508.5 -887.6 L-509.5 -887.6 L-510.5 -887.7 L-511.5 -887.7 L-512.5 -887.7 L-512.4 -888.7 L-512.4 -889.6 L-512.4 -890.6 L-512.4 -891.6 L-512.4 -892.6 L-512.4 -893.6 L-512.4 -894.5 L-512.4 -895.5 L-512.4 -896.5 L-512.4 -897.5 L-512.4 -898.5 L-512.4 -899.5 L-512.4 -900.4 L-512.3 -901.4 L-512.3 -902.4 L-512.3 -903.4 L-512.3 -904.4 L-512.3 -905.3 L-512.3 -906.3 L-512.3 -907.3 L-512.3 -908.3 L-512.3 -909.3 L-512.3 -910.3 L-512.3 -911.2 L-512.3 -912.2 L-511.3 -912.2 L-510.3 -912.2 L-509.3 -912.2 L-508.3 -912.2 L-507.4 -912.2 L-506.4 -912.2 L-505.4 -912.2 L-504.4 -912.2 L-503.4 -912.1 L-502.4 -912.1 L-501.5 -912.1 L-500.5 -912.1 L-499.5 -912.1 L-498.5 -912.1 L-497.5 -912.1 L-496.6 -912.1 L-495.6 -912.1 L-494.6 -912.1 L-493.6 -912.1 L-492.6 -912.1 L-491.6 -912.1 L-490.7 -912 L-489.7 -912 L-488.7 -912 L-487.7 -912 Z " />
<path stroke="rgb(0,0,0)" stroke-opacity="1" fill="rgb(255,255,255)" fill-opacity="1" d="M200.5 -312.2 L201.5 -312.2 L202.4 -312 L203.4 -311.8 L204.3 -311.5 L205.2 -311.2 L206.1 -310.8 L207 -310.3 L207.8 -309.7 L208.5 -309.1 L209.3 -308.4 L209.9 -307.7 L210.5 -306.9 L211 -306 L211.5 -305.2 L211.9 -304.3 L212.2 -303.3 L212.4 -302.4 L212.6 -301.4 L212.7 -300.4 L212.7 -299.4 L212.6 -298.5 L212.5 -297.5 L212.2 -296.5 L211.9 -295.6 L211.6 -294.7 L211.1 -293.8 L210.6 -293 L210 -292.2 L209.4 -291.4 L208.7 -290.7 L207.9 -290.1 L207.1 -289.5 L206.3 -289 L205.4 -288.6 L204.5 -288.2 L203.6 -287.9 L202.6 -287.7 L201.6 -287.5 L200.6 -287.5 L199.7 -287.5 L198.7 -287.6 L197.7 -287.8 L196.8 -288 L195.8 -288.3 L194.9 -288.7 L194.1 -289.2 L193.2 -289.7 L192.4 -290.3 L191.7 -291 L191 -291.7 L190.4 -292.4 L189.9 -293.2 L189.4 -294.1 L188.9 -295 L188.6 -295.9 L188.3 -296.8 L188.1 -297.8 L188 -298.8 L187.9 -299.8 L188 -300.7 L188.1 -301.7 L188.3 -302.7 L188.5 -303.6 L188.9 -304.6 L189.3 -305.4 L189.8 -306.3 L190.3 -307.1 L190.9 -307.9 L191.6 -308.6 L192.3 -309.3 L193.1 -309.9 L193.9 -310.4 L194.8 -310.9 L195.7 -311.3 L196.6 -311.6 L197.5 -311.9 L198.5 -312.1 L199.5 -312.2 L200.5 -312.2 Z " />
<path stroke="rgb(0,0,0)" stroke-opacity="1" fill="rgb(255,255,255)" fill-opacity="1" d="M-285.6 -909.9 L-285.6 -908.9 L-285.6 -907.9 L-285.5 -907 L-285.5 -906 L-285.5 -905 L-285.4 -904 L-285.4 -903 L-285.4 -902.1 L-285.3 -901.1 L-285.3 -900.1 L-285.3 -899.1 L-285.2 -898.1 L-285.2 -897.2 L-285.2 -896.2 L-285.1 -895.2 L-285.1 -894.2 L-285.1 -893.2 L-285 -892.2 L-285 -891.3 L-285 -890.3 L-284.9 -889.3 L-284.9 -888.3 L-284.9 -887.3 L-284.8 -886.4 L-284.8 -885.4 L-285.8 -885.3 L-286.8 -885.3 L-287.8 -885.3 L-288.7 -885.2 L-289.7 -885.2 L-290.7 -885.2 L-291.7 -885.1 L-292.7 -885.1 L-293.6 -885.1 L-294.6 -885.1 L-295.6 -885 L-296.6 -885 L-297.6 -885 L-298.5 -884.9 L-299.5 -884.9 L-300.5 -884.9 L-301.5 -884.8 L-302.5 -884.8 L-303.5 -884.8 L-304.4 -884.7 L-305.4 -884.7 L-306.4 -884.7 L-307.4 -884.6 L-308.4 -884.6 L-309.3 -884.6 L-309.4 -885.5 L-309.4 -886.5 L-309.4 -887.5 L-309.5 -888.5 L-309.5 -889.5 L-309.5 -890.5 L-309.6 -891.4 L-309.6 -892.4 L-309.6 -893.4 L-309.7 -894.4 L-309.7 -895.4 L-309.7 -896.3 L-309.8 -897.3 L-309.8 -898.3 L-309.8 -899.3 L-309.9 -900.3 L-309.9 -901.2 L-309.9 -902.2 L-310 -903.2 L-310 -904.2 L-310 -905.2 L-310.1 -906.2 L-310.1 -907.1 L-310.1 -908.1 L-310.2 -909.1 L-309.2 -909.1 L-308.2 -909.2 L-307.2 -909.2 L-306.2 -909.2 L-305.2 -909.3 L-304.3 -909.3 L-303.3 -909.3 L-302.3 -909.4 L-301.3 -909.4 L-300.3 -909.4 L-299.4 -909.5 L-298.4 -909.5 L-297.4 -909.5 L-296.4 -909.6 L-295.4 -909.6 L-294.5 -909.6 L-293.5 -909.6 L-292.5 -909.7 L-291.5 -909.7 L-290.5 -909.7 L-289.5 -909.8 L-288.6 -909.8 L-287.6 -909.8 L-286.6 -909.9 L-285.6 -909.9 Z " />
<path stroke="rgb(0,0,0)" stroke-opacity="1" fill="rgb(255,255,255)" fill-opacity="1" d="M-284.2 -210.4 L-283.4 -209.1 L-282.7 -207.8 L-282.1 -206.4 L-281.7 -205 L-281.3 -203.5 L-281.1 -202 L-281 -200.5 L-281 -199 L-281.1 -197.5 L-281.3 -196 L-281.7 -194.6 L-282.2 -193.2 L-282.8 -191.8 L-283.5 -190.4 L-284.3 -189.2 L-285.2 -188 L-286.2 -186.8 L-287.2 -185.8 L-288.4 -184.8 L-289.6 -184 L-290.9 -183.2 L-292.3 -182.5 L-293.7 -182 L-295.1 -181.5 L-296.6 -181.2 L-298.1 -181 L-299.6 -180.9 L-301.1 -181 L-302.6 -181.1 L-304.1 -181.4 L-305.5 -181.8 L-306.9 -182.3 L-308.3 -182.9 L-309.6 -183.7 L-310.9 -184.5 L-312.1 -185.4 L-313.2 -186.4 L-314.2 -187.5 L-315.2 -188.7 L-316 -189.9 L-316.7 -191.3 L-317.4 -192.6 L-317.9 -194 L-318.3 -195.5 L-318.6 -197 L-318.8 -198.5 L-318.8 -200 L-318.7 -201.5 L-318.6 -203 L-318.3 -204.4 L-317.8 -205.9 L-317.3 -207.3 L-316.7 -208.6 L-315.9 -209.9 L-315.1 -211.2 L-314.1 -212.4 L-313.1 -213.4 L-311.9 -214.4 L-310.8 -215.4 L-309.5 -216.2 L-308.2 -216.9 L-306.8 -217.5 L-305.4 -218 L-303.9 -218.4 L-302.4 -218.6 L-300.9 -218.8 L-299.4 -218.8 L-297.9 -218.7 L-296.4 -218.5 L-295 -218.1 L-293.5 -217.7 L-292.1 -217.1 L-290.8 -216.5 L-289.5 -215.7 L-288.3 -214.8 L-287.1 -213.8 L-286 -212.8 L-285.1 -211.6 L-284.2 -210.4 Z " />
<path stroke="rgb(0,0,0)" stroke-opacity="1" fill="rgb(255,255,255)" fill-opacity="1" d="M-787.9 -812.2 L-788 -811.3 L-788 -810.3 L-788 -809.3 L-788 -808.3 L-788 -807.3 L-788 -806.3 L-788 -805.4 L-788 -804.4 L-788 -803.4 L-788.1 -802.4 L-788.1 -801.4 L-788.1 -800.5 L-788.1 -799.5 L-788.1 -798.5 L-788.1 -797.5 L-788.1 -796.5 L-788.1 -795.5 L-788.2 -794.6 L-788.2 -793.6 L-788.2 -792.6 L-788.2 -791.6 L-788.2 -790.6 L-788.2 -789.7 L-788.2 -788.7 L-788.2 -787.7 L-789.2 -787.7 L-790.2 -787.7 L-791.2 -787.7 L-792.2 -787.7 L-793.1 -787.8 L-794.1 -787.8 L-795.1 -787.8 L-796.1 -787.8 L-797.1 -787.8 L-798.1 -787.8 L-799 -787.8 L-800 -787.8 L-801 -787.8 L-802 -787.9 L-803 -787.9 L-803.9 -787.9 L-804.9 -787.9 L-805.9 -787.9 L-806.9 -787.9 L-807.9 -787.9 L-808.8 -787.9 L-809.8 -788 L-810.8 -788 L-811.8 -788 L-812.8 -788 L-812.8 -789 L-812.8 -790 L-812.7 -790.9 L-812.7 -791.9 L-812.7 -792.9 L-812.7 -793.9 L-812.7 -794.9 L-812.7 -795.8 L-812.7 -796.8 L-812.7 -797.8 L-812.6 -798.8 L-812.6 -799.8 L-812.6 -800.8 L-812.6 -801.7 L-812.6 -802.7 L-812.6 -803.7 L-812.6 -804.7 L-812.6 -805.7 L-812.6 -806.6 L-812.5 -807.6 L-812.5 -808.6 L-812.5 -809.6 L-812.5 -810.6 L-812.5 -811.6 L-812.5 -812.5 L-811.5 -812.5 L-810.5 -812.5 L-809.5 -812.5 L-808.6 -812.5 L-807.6 -812.5 L-806.6 -812.5 L-805.6 -812.5 L-804.6 -812.4 L-803.6 -812.4 L-802.7 -812.4 L-801.7 -812.4 L-800.7 -812.4 L-799.7 -812.4 L-798.7 -812.4 L-797.8 -812.4 L-796.8 -812.3 L-795.8 -812.3 L-794.8 -812.3 L-793.8 -812.3 L-792.8 -812.3 L-791.9 -812.3 L-790.9 -812.3 L-789.9 -812.3 L-788.9 -812.3 L-787.9 -812.2 Z " />
<path stroke="rgb(0,0,0)" stroke-opacity="1" fill="rgb(255,255,255)" fill-opacity="1" d="M-97.49 -212.9 L-96.46 -212.7 L-95.45 -212.4 L-94.47 -212 L-93.52 -211.5 L-92.61 -211 L-91.75 -210.4 L-90.93 -209.7 L-90.17 -209 L-89.47 -208.2 L-88.84 -207.4 L-88.27 -206.5 L-87.78 -205.6 L-87.36 -204.6 L-87.02 -203.6 L-86.76 -202.6 L-86.58 -201.6 L-86.49 -200.5 L-86.48 -199.4 L-86.55 -198.4 L-86.7 -197.4 L-86.94 -196.3 L-87.26 -195.3 L-87.66 -194.4 L-88.13 -193.4 L-88.68 -192.5 L-89.3 -191.7 L-89.98 -190.9 L-90.72 -190.1 L-91.53 -189.4 L-92.38 -188.8 L-93.28 -188.3 L-94.22 -187.8 L-95.19 -187.4 L-96.2 -187.1 L-97.22 -186.8 L-98.26 -186.7 L-99.31 -186.6 L-100.4 -186.6 L-101.4 -186.7 L-102.5 -186.9 L-103.5 -187.1 L-104.5 -187.5 L-105.4 -187.9 L-106.4 -188.4 L-107.3 -188.9 L-108.1 -189.6 L-108.9 -190.3 L-109.6 -191 L-110.3 -191.9 L-110.9 -192.7 L-111.4 -193.6 L-111.9 -194.6 L-112.3 -195.6 L-112.6 -196.6 L-112.8 -197.6 L-112.9 -198.6 L-113 -199.7 L-112.9 -200.8 L-112.8 -201.8 L-112.6 -202.8 L-112.3 -203.8 L-112 -204.8 L-111.5 -205.8 L-111 -206.7 L-110.5 -207.6 L-109.8 -208.4 L-109.1 -209.2 L-108.3 -209.9 L-107.5 -210.6 L-106.6 -211.1 L-105.7 -211.7 L-104.7 -212.1 L-103.7 -212.5 L-102.7 -212.7 L-101.7 -212.9 L-100.6 -213 L-99.59 -213.1 L-98.54 -213 L-97.49 -212.9 Z " />
<path stroke="rgb(0,0,0)" stroke-opacity="1" fill="rgb(255,255,255)" fill-opacity="1" d="M-587.7 -812 L-587.7 -811 L-587.7 -810.1 L-587.7 -809.1 L-587.8 -808.1 L-587.8 -807.1 L-587.8 -806.1 L-587.8 -805.2 L-587.8 -804.2 L-587.8 -803.2 L-587.8 -802.2 L-587.8 -801.2 L-587.8 -800.2 L-587.8 -799.3 L-587.8 -798.3 L-587.8 -797.3 L-587.8 -796.3 L-587.9 -795.3 L-587.9 -794.4 L-587.9 -793.4 L-587.9 -792.4 L-587.9 -791.4 L-587.9 -790.4 L-587.9 -789.4 L-587.9 -788.5 L-587.9 -787.5 L-588.9 -787.5 L-589.9 -787.5 L-590.9 -787.5 L-591.8 -787.5 L-592.8 -787.5 L-593.8 -787.5 L-594.8 -787.5 L-595.8 -787.5 L-596.7 -787.5 L-597.7 -787.6 L-598.7 -787.6 L-599.7 -787.6 L-600.7 -787.6 L-601.7 -787.6 L-602.6 -787.6 L-603.6 -787.6 L-604.6 -787.6 L-605.6 -787.6 L-606.6 -787.6 L-607.5 -787.6 L-608.5 -787.6 L-609.5 -787.6 L-610.5 -787.7 L-611.5 -787.7 L-612.5 -787.7 L-612.4 -788.7 L-612.4 -789.6 L-612.4 -790.6 L-612.4 -791.6 L-612.4 -792.6 L-612.4 -793.6 L-612.4 -794.5 L-612.4 -795.5 L-612.4 -796.5 L-612.4 -797.5 L-612.4 -798.5 L-612.4 -799.5 L-612.4 -800.4 L-612.3 -801.4 L-612.3 -802.4 L-612.3 -803.4 L-612.3 -804.4 L-612.3 -805.3 L-612.3 -806.3 L-612.3 -807.3 L-612.3 -808.3 L-612.3 -809.3 L-612.3 -810.3 L-612.3 -811.2 L-612.3 -812.2 L-611.3 -812.2 L-610.3 -812.2 L-609.3 -812.2 L-608.3 -812.2 L-607.4 -812.2 L-606.4 -812.2 L-605.4 -812.2 L-604.4 -812.2 L-603.4 -812.1 L-602.4 -812.1 L-601.5 -812.1 L-600.5 -812.1 L-599.5 -812.1 L-598.5 -812.1 L-597.5 -812.1 L-596.6 -812.1 L-595.6 -812.1 L-594.6 -812.1 L-593.6 -812.1 L-592.6 -812.1 L-591.6 -812.1 L-590.7 -812 L-589.7 -812 L-588.7 -812 L-587.7 -812 Z " />
<path stroke="rgb(0,0,0)" stroke-opacity="1" fill="rgb(255,255,255)" fill-opacity="1" d="M100.5 -212.2 L101.5 -212.2 L102.4 -212 L103.4 -211.8 L104.3 -211.5 L105.2 -211.2 L106.1 -210.8 L107 -210.3 L107.8 -209.7 L108.5 -209.1 L109.3 -208.4 L109.9 -207.7 L110.5 -206.9 L111 -206 L111.5 -205.2 L111.9 -204.3 L112.2 -203.3 L112.4 -202.4 L112.6 -201.4 L112.7 -200.4 L112.7 -199.4 L112.6 -198.5 L112.5 -197.5 L112.2 -196.5 L111.9 -195.6 L111.6 -194.7 L111.1 -193.8 L110.6 -193 L110 -192.2 L109.4 -191.4 L108.7 -190.7 L107.9 -190.1 L107.1 -189.5 L106.3 -189 L105.4 -188.6 L104.5 -188.2 L103.6 -187.9 L102.6 -187.7 L101.6 -187.5 L100.6 -187.5 L99.66 -187.5 L98.68 -187.6 L97.71 -187.8 L96.76 -188 L95.83 -188.3 L94.93 -188.7 L94.06 -189.2 L93.23 -189.7 L92.45 -190.3 L91.71 -191 L91.03 -191.7 L90.41 -192.4 L89.86 -193.2 L89.36 -194.1 L88.94 -195 L88.59 -195.9 L88.31 -196.8 L88.11 -197.8 L87.99 -198.8 L87.94 -199.8 L87.97 -200.7 L88.09 -201.7 L88.27 -202.7 L88.54 -203.6 L88.87 -204.6 L89.28 -205.4 L89.76 -206.3 L90.31 -207.1 L90.92 -207.9 L91.59 -208.6 L92.32 -209.3 L93.09 -209.9 L93.91 -210.4 L94.77 -210.9 L95.67 -211.3 L96.59 -211.6 L97.54 -211.9 L98.51 -212.1 L99.49 -212.2 L100.5 -212.2 Z " />
<path stroke="rgb(0,0,0)" stroke-opacity="1" fill="rgb(255,255,255)" fill-opacity="1" d="M-385.6 -809.9 L-385.6 -808.9 L-385.6 -807.9 L-385.5 -807 L-385.5 -806 L-385.5 -805 L-385.4 -804 L-385.4 -803 L-385.4 -802.1 L-385.3 -801.1 L-385.3 -800.1 L-385.3 -799.1 L-385.2 -798.1 L-385.2 -797.2 L-385.2 -796.2 L-385.1 -795.2 L-385.1 -794.2 L-385.1 -793.2 L-385 -792.2 L-385 -791.3 L-385 -790.3 L-384.9 -789.3 L-384.9 -788.3 L-384.9 -787.3 L-384.8 -786.4 L-384.8 -785.4 L-385.8 -785.3 L-386.8 -785.3 L-387.8 -785.3 L-388.7 -785.2 L-389.7 -785.2 L-390.7 -785.2 L-391.7 -785.1 L-392.7 -785.1 L-393.6 -785.1 L-394.6 -785.1 L-395.6 -785 L-396.6 -785 L-397.6 -785 L-398.5 -784.9 L-399.5 -784.9 L-400.5 -784.9 L-401.5 -784.8 L-402.5 -784.8 L-403.5 -784.8 L-404.4 -784.7 L-405.4 -784.7 L-406.4 -784.7 L-407.4 -784.6 L-408.4 -784.6 L-409.3 -784.6 L-409.4 -785.5 L-409.4 -786.5 L-409.4 -787.5 L-409.5 -788.5 L-409.5 -789.5 L-409.5 -790.5 L-409.6 -791.4 L-409.6 -792.4 L-409.6 -793.4 L-409.7 -794.4 L-409.7 -795.4 L-409.7 -796.3 L-409.8 -797.3 L-409.8 -798.3 L-409.8 -799.3 L-409.9 -800.3 L-409.9 -801.2 L-409.9 -802.2 L-410 -803.2 L-410 -804.2 L-410 -805.2 L-410.1 -806.2 L-410.1 -807.1 L-410.1 -808.1 L-410.2 -809.1 L-409.2 -809.1 L-408.2 -809.2 L-407.2 -809.2 L-406.2 -809.2 L-405.2 -809.3 L-404.3 -809.3 L-403.3 -809.3 L-402.3 -809.4 L-401.3 -809.4 L-400.3 -809.4 L-399.4 -809.5 L-398.4 -809.5 L-397.4 -809.5 L-396.4 -809.6 L-395.4 -809.6 L-394.5 -809.6 L-393.5 -809.6 L-392.5 -809.7 L-391.5 -809.7 L-390.5 -809.7 L-389.5 -809.8 L-388.6 -809.8 L-387.6 -809.8 L-386.6 -809.9 L-385.6 -809.9 Z " />
<path stroke="rgb(0,0,0)" stroke-opacity="1" fill="rgb(255,255,255)" fill-opacity="1" d="M300.5 -212.2 L301.4 -212.2 L302.4 -212 L303.4 -211.8 L304.3 -211.5 L305.2 -211.2 L306.1 -210.8 L307 -210.3 L307.8 -209.7 L308.5 -209.1 L309.2 -208.4 L309.9 -207.7 L310.5 -206.9 L311 -206 L311.5 -205.2 L311.9 -204.3 L312.2 -203.3 L312.4 -202.4 L312.6 -201.4 L312.7 -200.4 L312.7 -199.4 L312.6 -198.5 L312.5 -197.5 L312.2 -196.5 L311.9 -195.6 L311.6 -194.7 L311.1 -193.8 L310.6 -193 L310 -192.2 L309.4 -191.4 L308.7 -190.7 L307.9 -190.1 L307.1 -189.5 L306.3 -189 L305.4 -188.6 L304.5 -188.2 L303.6 -187.9 L302.6 -187.7 L301.6 -187.6 L300.6 -187.5 L299.7 -187.5 L298.7 -187.6 L297.7 -187.8 L296.8 -188 L295.8 -188.3 L294.9 -188.7 L294.1 -189.2 L293.2 -189.7 L292.5 -190.3 L291.7 -191 L291 -191.7 L290.4 -192.4 L289.9 -193.2 L289.4 -194.1 L288.9 -195 L288.6 -195.9 L288.3 -196.8 L288.1 -197.8 L288 -198.8 L287.9 -199.8 L288 -200.7 L288.1 -201.7 L288.3 -202.7 L288.5 -203.6 L288.9 -204.5 L289.3 -205.4 L289.8 -206.3 L290.3 -207.1 L290.9 -207.9 L291.6 -208.6 L292.3 -209.3 L293.1 -209.9 L293.9 -210.4 L294.8 -210.9 L295.7 -211.3 L296.6 -211.6 L297.5 -211.9 L298.5 -212.1 L299.5 -212.2 L300.5 -212.2 Z " />
<path stroke="rgb(0,0,0)" stroke-opacity="1" fill="rgb(255,255,255)" fill-opacity="1" d="M-887.9 -712.2 L-888 -711.3 L-888 -710.3 L-888 -709.3 L-888 -708.3 L-888 -707.3 L-888 -706.3 L-888 -705.4 L-888 -704.4 L-888 -703.4 L-888.1 -702.4 L-888.1 -701.4 L-888.1 -700.5 L-888.1 -699.5 L-888.1 -698.5 L-888.1 -697.5 L-888.1 -696.5 L-888.1 -695.5 L-888.2 -694.6 L-888.2 -693.6 L-888.2 -692.6 L-888.2 -691.6 L-888.2 -690.6 L-888.2 -689.7 L-888.2 -688.7 L-888.2 -687.7 L-889.2 -687.7 L-890.2 -687.7 L-891.2 -687.7 L-892.2 -687.7 L-893.1 -687.8 L-894.1 -687.8 L-895.1 -687.8 L-896.1 -687.8 L-897.1 -687.8 L-898.1 -687.8 L-899 -687.8 L-900 -687.8 L-901 -687.8 L-902 -687.9 L-903 -687.9 L-903.9 -687.9 L-904.9 -687.9 L-905.9 -687.9 L-906.9 -687.9 L-907.9 -687.9 L-908.8 -687.9 L-909.8 -688 L-910.8 -688 L-911.8 -688 L-912.8 -688 L-912.8 -689 L-912.8 -690 L-912.7 -690.9 L-912.7 -691.9 L-912.7 -692.9 L-912.7 -693.9 L-912.7 -694.9 L-912.7 -695.8 L-912.7 -696.8 L-912.7 -697.8 L-912.6 -698.8 L-912.6 -699.8 L-912.6 -700.8 L-912.6 -701.7 L-912.6 -702.7 L-912.6 -703.7 L-912.6 -704.7 L-912.6 -705.7 L-912.6 -706.6 L-912.5 -707.6 L-912.5 -708.6 L-912.5 -709.6 L-912.5 -710.6 L-912.5 -711.6 L-912.5 -712.5 L-911.5 -712.5 L-910.5 -712.5 L-909.5 -712.5 L-908.6 -712.5 L-907.6 -712.5 L-906.6 -712.5 L-905.6 -712.5 L-904.6 -712.4 L-903.6 -712.4 L-902.7 -712.4 L-901.7 -712.4 L-900.7 -712.4 L-899.7 -712.4 L-898.7 -712.4 L-897.8 -712.4 L-896.8 -712.3 L-895.8 -712.3 L-894.8 -712.3 L-893.8 -712.3 L-892.8 -712.3 L-891.9 -712.3 L-890.9 -712.3 L-889.9 -712.3 L-888.9 -712.3 L-887.9 -712.2 Z " />
<path stroke="rgb(0,0,0)" stroke-opacity="1" fill="rgb(255,255,255)" fill-opacity="1" d="M-197.5 -112.9 L-196.5 -112.7 L-195.5 -112.4 L-194.5 -112 L-193.5 -111.5 L-192.6 -111 L-191.7 -110.4 L-190.9 -109.7 L-190.2 -109 L-189.5 -108.2 L-188.8 -107.4 L-188.3 -106.5 L-187.8 -105.6 L-187.4 -104.6 L-187 -103.6 L-186.8 -102.6 L-186.6 -101.6 L-186.5 -100.5 L-186.5 -99.45 L-186.5 -98.4 L-186.7 -97.36 L-186.9 -96.33 L-187.3 -95.33 L-187.7 -94.35 L-188.1 -93.41 L-188.7 -92.51 L-189.3 -91.66 L-190 -90.86 L-190.7 -90.11 L-191.5 -89.43 L-192.4 -88.81 L-193.3 -88.26 L-194.2 -87.79 L-195.2 -87.39 L-196.2 -87.07 L-197.2 -86.83 L-198.3 -86.67 L-199.3 -86.6 L-200.4 -86.61 L-201.4 -86.7 L-202.5 -86.88 L-203.5 -87.14 L-204.5 -87.48 L-205.4 -87.89 L-206.4 -88.38 L-207.3 -88.95 L-208.1 -89.58 L-208.9 -90.28 L-209.6 -91.04 L-210.3 -91.86 L-210.9 -92.72 L-211.4 -93.63 L-211.9 -94.58 L-212.3 -95.56 L-212.6 -96.57 L-212.8 -97.6 L-212.9 -98.65 L-213 -99.7 L-212.9 -100.8 L-212.8 -101.8 L-212.6 -102.8 L-212.3 -103.8 L-212 -104.8 L-211.5 -105.8 L-211 -106.7 L-210.5 -107.6 L-209.8 -108.4 L-209.1 -109.2 L-208.3 -109.9 L-207.5 -110.6 L-206.6 -111.1 L-205.7 -111.7 L-204.7 -112.1 L-203.7 -112.5 L-202.7 -112.7 L-201.7 -112.9 L-200.6 -113 L-199.6 -113.1 L-198.5 -113 L-197.5 -112.9 Z " />
<path stroke="rgb(0,0,0)" stroke-opacity="1" fill="rgb(255,255,255)" fill-opacity="1" d="M-687.7 -712 L-687.7 -711 L-687.7 -710.1 L-687.7 -709.1 L-687.8 -708.1 L-687.8 -707.1 L-687.8 -706.1 L-687.8 -705.2 L-687.8 -704.2 L-687.8 -703.2 L-687.8 -702.2 L-687.8 -701.2 L-687.8 -700.2 L-687.8 -699.3 L-687.8 -698.3 L-687.8 -697.3 L-687.8 -696.3 L-687.9 -695.3 L-687.9 -694.4 L-687.9 -693.4 L-687.9 -692.4 L-687.9 -691.4 L-687.9 -690.4 L-687.9 -689.4 L-687.9 -688.5 L-687.9 -687.5 L-688.9 -687.5 L-689.9 -687.5 L-690.9 -687.5 L-691.8 -687.5 L-692.8 -687.5 L-693.8 -687.5 L-694.8 -687.5 L-695.8 -687.5 L-696.7 -687.5 L-697.7 -687.6 L-698.7 -687.6 L-699.7 -687.6 L-700.7 -687.6 L-701.7 -687.6 L-702.6 -687.6 L-703.6 -687.6 L-704.6 -687.6 L-705.6 -687.6 L-706.6 -687.6 L-707.5 -687.6 L-708.5 -687.6 L-709.5 -687.6 L-710.5 -687.7 L-711.5 -687.7 L-712.5 -687.7 L-712.4 -688.7 L-712.4 -689.6 L-712.4 -690.6 L-712.4 -691.6 L-712.4 -692.6 L-712.4 -693.6 L-712.4 -694.5 L-712.4 -695.5 L-712.4 -696.5 L-712.4 -697.5 L-712.4 -698.5 L-712.4 -699.5 L-712.4 -700.4 L-712.3 -701.4 L-712.3 -702.4 L-712.3 -703.4 L-712.3 -704.4 L-712.3 -705.3 L-712.3 -706.3 L-712.3 -707.3 L-712.3 -708.3 L-712.3 -709.3 L-712.3 -710.3 L-712.3 -711.2 L-712.3 -712.2 L-711.3 -712.2 L-710.3 -712.2 L-709.3 -712.2 L-708.3 -712.2 L-707.4 -712.2 L-706.4 -712.2 L-705.4 -712.2 L-704.4 -712.2 L-703.4 -712.1 L-702.4 -712.1 L-701.5 -712.1 L-700.5 -712.1 L-699.5 -712.1 L-698.5 -712.1 L-697.5 -712.1 L-696.6 -712.1 L-695.6 -712.1 L-694.6 -712.1 L-693.6 -712.1 L-692.6 -712.1 L-691.6 -712.1 L-690.7 -712 L-689.7 -712 L-688.7 -712 L-687.7 -712 Z " />
<path stroke="rgb(0,0,0)" stroke-opacity="1" fill="rgb(255,255,255)" fill-opacity="1" d="M0.4703 -112.2 L1.452 -112.2 L2.427 -112 L3.389 -111.8 L4.331 -111.5 L5.247 -111.2 L6.133 -110.8 L6.981 -110.3 L7.788 -109.7 L8.547 -109.1 L9.254 -108.4 L9.904 -107.7 L10.49 -106.9 L11.02 -106 L11.48 -105.2 L11.86 -104.3 L12.18 -103.3 L12.42 -102.4 L12.58 -101.4 L12.67 -100.4 L12.67 -99.44 L12.6 -98.46 L12.45 -97.49 L12.23 -96.53 L11.92 -95.59 L11.55 -94.68 L11.1 -93.81 L10.59 -92.97 L10.01 -92.17 L9.372 -91.43 L8.674 -90.73 L7.924 -90.1 L7.126 -89.52 L6.284 -89.02 L5.405 -88.58 L4.493 -88.21 L3.555 -87.91 L2.597 -87.69 L1.624 -87.55 L0.6426 -87.48 L-0.3408 -87.49 L-1.32 -87.59 L-2.289 -87.75 L-3.241 -88 L-4.171 -88.32 L-5.073 -88.71 L-5.941 -89.17 L-6.769 -89.7 L-7.552 -90.3 L-8.286 -90.95 L-8.965 -91.66 L-9.586 -92.43 L-10.14 -93.24 L-10.64 -94.09 L-11.06 -94.98 L-11.41 -95.89 L-11.69 -96.84 L-11.89 -97.8 L-12.01 -98.78 L-12.06 -99.76 L-12.03 -100.7 L-11.91 -101.7 L-11.73 -102.7 L-11.46 -103.6 L-11.13 -104.6 L-10.72 -105.4 L-10.24 -106.3 L-9.688 -107.1 L-9.078 -107.9 L-8.409 -108.6 L-7.685 -109.3 L-6.91 -109.9 L-6.089 -110.4 L-5.228 -110.9 L-4.332 -111.3 L-3.406 -111.6 L-2.457 -111.9 L-1.491 -112.1 L-0.5128 -112.2 L0.4703 -112.2 Z " />
<path stroke="rgb(0,0,0)" stroke-opacity="1" fill="rgb(255,255,255)" fill-opacity="1" d="M-485.6 -709.9 L-485.6 -708.9 L-485.6 -707.9 L-485.5 -707 L-485.5 -706 L-485.5 -705 L-485.4 -704 L-485.4 -703 L-485.4 -702.1 L-485.3 -701.1 L-485.3 -700.1 L-485.3 -699.1 L-485.2 -698.1 L-485.2 -697.2 L-485.2 -696.2 L-485.1 -695.2 L-485.1 -694.2 L-485.1 -693.2 L-485 -692.2 L-485 -691.3 L-485 -690.3 L-484.9 -689.3 L-484.9 -688.3 L-484.9 -687.3 L-484.8 -686.4 L-484.8 -685.4 L-485.8 -685.3 L-486.8 -685.3 L-487.8 -685.3 L-488.7 -685.2 L-489.7 -685.2 L-490.7 -685.2 L-491.7 -685.1 L-492.7 -685.1 L-493.6 -685.1 L-494.6 -685.1 L-495.6 -685 L-496.6 -685 L-497.6 -685 L-498.5 -684.9 L-499.5 -684.9 L-500.5 -684.9 L-501.5 -684.8 L-502.5 -684.8 L-503.5 -684.8 L-504.4 -684.7 L-505.4 -684.7 L-506.4 -684.7 L-507.4 -684.6 L-508.4 -684.6 L-509.3 -684.6 L-509.4 -685.5 L-509.4 -686.5 L-509.4 -687.5 L-509.5 -688.5 L-509.5 -689.5 L-509.5 -690.5 L-509.6 -691.4 L-509.6 -692.4 L-509.6 -693.4 L-509.7 -694.4 L-509.7 -695.4 L-509.7 -696.3 L-509.8 -697.3 L-509.8 -698.3 L-509.8 -699.3 L-509.9 -700.3 L-509.9 -701.2 L-509.9 -702.2 L-510 -703.2 L-510 -704.2 L-510 -705.2 L-510.1 -706.2 L-510.1 -707.1 L-510.1 -708.1 L-510.2 -709.1 L-509.2 -709.1 L-508.2 -709.2 L-507.2 -709.2 L-506.2 -709.2 L-505.2 -709.3 L-504.3 -709.3 L-503.3 -709.3 L-502.3 -709.4 L-501.3 -709.4 L-500.3 -709.4 L-499.4 -709.5 L-498.4 -709.5 L-497.4 -709.5 L-496.4 -709.6 L-495.4 -709.6 L-494.5 -709.6 L-493.5 -709.6 L-492.5 -709.7 L-491.5 -709.7 L-490.5 -709.7 L-489.5 -709.8 L-488.6 -709.8 L-487.6 -709.8 L-486.6 -709.9 L-485.6 -709.9 Z " />
<path stroke="rgb(0,0,0)" stroke-opacity="1" fill="rgb(255,255,255)" fill-opacity="1" d="M200.5 -112.2 L201.4 -112.2 L202.4 -112 L203.4 -111.8 L204.3 -111.5 L205.2 -111.2 L206.1 -110.8 L207 -110.3 L207.8 -109.7 L208.5 -109.1 L209.2 -108.4 L209.9 -107.7 L210.5 -106.9 L211 -106 L211.5 -105.2 L211.9 -104.3 L212.2 -103.3 L212.4 -102.4 L212.6 -101.4 L212.7 -100.4 L212.7 -99.45 L212.6 -98.46 L212.5 -97.49 L212.2 -96.54 L211.9 -95.6 L211.6 -94.69 L211.1 -93.81 L210.6 -92.98 L210 -92.18 L209.4 -91.43 L208.7 -90.74 L207.9 -90.1 L207.1 -89.53 L206.3 -89.02 L205.4 -88.58 L204.5 -88.21 L203.6 -87.91 L202.6 -87.69 L201.6 -87.55 L200.6 -87.48 L199.7 -87.5 L198.7 -87.59 L197.7 -87.75 L196.8 -88 L195.8 -88.32 L194.9 -88.71 L194.1 -89.17 L193.2 -89.7 L192.5 -90.3 L191.7 -90.95 L191 -91.66 L190.4 -92.42 L189.9 -93.23 L189.4 -94.08 L188.9 -94.97 L188.6 -95.89 L188.3 -96.83 L188.1 -97.8 L188 -98.77 L187.9 -99.75 L188 -100.7 L188.1 -101.7 L188.3 -102.7 L188.5 -103.6 L188.9 -104.5 L189.3 -105.4 L189.8 -106.3 L190.3 -107.1 L190.9 -107.9 L191.6 -108.6 L192.3 -109.3 L193.1 -109.9 L193.9 -110.4 L194.8 -110.9 L195.7 -111.3 L196.6 -111.6 L197.5 -111.9 L198.5 -112.1 L199.5 -112.2 L200.5 -112.2 Z " />
<path stroke="rgb(0,0,0)" stroke-opacity="1" fill="rgb(255,255,255)" fill-opacity="1" d="M-279.5 -703.5 L-279.3 -702.5 L-279.2 -701.6 L-279 -700.6 L-278.9 -699.6 L-278.7 -698.7 L-278.6 -697.7 L-278.4 -696.7 L-278.3 -695.7 L-278.1 -694.8 L-278 -693.8 L-277.8 -692.8 L-277.7 -691.9 L-277.5 -690.9 L-277.4 -689.9 L-277.2 -689 L-277.1 -688 L-276.9 -687 L-276.8 -686 L-276.6 -685.1 L-276.5 -684.1 L-276.3 -683.1 L-276.2 -682.2 L-276 -681.2 L-275.9 -680.2 L-275.7 -679.2 L-276.7 -679.1 L-277.6 -678.9 L-278.6 -678.8 L-279.6 -678.6 L-280.6 -678.5 L-281.5 -678.3 L-282.5 -678.2 L-283.5 -678 L-284.4 -677.9 L-285.4 -677.7 L-286.4 -677.6 L-287.4 -677.4 L-288.3 -677.3 L-289.3 -677.1 L-290.3 -677 L-291.2 -676.8 L-292.2 -676.7 L-293.2 -676.5 L-294.1 -676.4 L-295.1 -676.2 L-296.1 -676.1 L-297.1 -675.9 L-298 -675.8 L-299 -675.6 L-300 -675.5 L-300.1 -676.4 L-300.3 -677.4 L-300.4 -678.4 L-300.6 -679.3 L-300.7 -680.3 L-300.9 -681.3 L-301 -682.3 L-301.2 -683.2 L-301.3 -684.2 L-301.5 -685.2 L-301.6 -686.1 L-301.8 -687.1 L-301.9 -688.1 L-302.1 -689.1 L-302.2 -690 L-302.4 -691 L-302.5 -692 L-302.7 -692.9 L-302.8 -693.9 L-303 -694.9 L-303.1 -695.8 L-303.3 -696.8 L-303.4 -697.8 L-303.6 -698.8 L-303.7 -699.7 L-302.8 -699.9 L-301.8 -700 L-300.8 -700.2 L-299.9 -700.3 L-298.9 -700.5 L-297.9 -700.6 L-297 -700.8 L-296 -700.9 L-295 -701.1 L-294 -701.2 L-293.1 -701.4 L-292.1 -701.5 L-291.1 -701.7 L-290.2 -701.8 L-289.2 -702 L-288.2 -702.1 L-287.3 -702.3 L-286.3 -702.4 L-285.3 -702.6 L-284.3 -702.7 L-283.4 -702.9 L-282.4 -703.1 L-281.4 -703.2 L-280.5 -703.4 L-279.5 -703.5 Z " />
<path stroke="rgb(0,0,0)" stroke-opacity="1" fill="rgb(255,255,255)" fill-opacity="1" d="M-297.5 -12.89 L-296.5 -12.68 L-295.5 -12.38 L-294.5 -12 L-293.5 -11.54 L-292.6 -11.02 L-291.7 -10.42 L-290.9 -9.749 L-290.2 -9.019 L-289.5 -8.232 L-288.8 -7.392 L-288.3 -6.503 L-287.8 -5.573 L-287.4 -4.606 L-287 -3.61 L-286.8 -2.589 L-286.6 -1.551 L-286.5 -0.5021 L-286.5 0.551 L-286.5 1.602 L-286.7 2.643 L-286.9 3.669 L-287.3 4.673 L-287.7 5.648 L-288.1 6.588 L-288.7 7.488 L-289.3 8.342 L-290 9.144 L-290.7 9.889 L-291.5 10.57 L-292.4 11.19 L-293.3 11.74 L-294.2 12.21 L-295.2 12.61 L-296.2 12.93 L-297.2 13.17 L-298.3 13.33 L-299.3 13.4 L-300.4 13.39 L-301.4 13.3 L-302.5 13.12 L-303.5 12.86 L-304.5 12.52 L-305.4 12.11 L-306.4 11.62 L-307.3 11.05 L-308.1 10.42 L-308.9 9.718 L-309.6 8.959 L-310.3 8.145 L-310.9 7.28 L-311.4 6.37 L-311.9 5.42 L-312.3 4.438 L-312.6 3.428 L-312.8 2.398 L-312.9 1.354 L-313 0.3021 L-312.9 -0.7506 L-312.8 -1.798 L-312.6 -2.832 L-312.3 -3.848 L-312 -4.838 L-311.5 -5.796 L-311 -6.717 L-310.5 -7.595 L-309.8 -8.423 L-309.1 -9.197 L-308.3 -9.912 L-307.5 -10.56 L-306.6 -11.15 L-305.7 -11.66 L-304.7 -12.1 L-303.7 -12.46 L-302.7 -12.74 L-301.7 -12.93 L-300.6 -13.05 L-299.6 -13.08 L-298.5 -13.03 L-297.5 -12.89 Z " />
<path stroke="rgb(0,0,0)" stroke-opacity="1" fill="rgb(255,255,255)" fill-opacity="1" d="M-787.7 -612 L-787.7 -611 L-787.7 -610.1 L-787.7 -609.1 L-787.8 -608.1 L-787.8 -607.1 L-787.8 -606.1 L-787.8 -605.2 L-787.8 -604.2 L-787.8 -603.2 L-787.8 -602.2 L-787.8 -601.2 L-787.8 -600.2 L-787.8 -599.3 L-787.8 -598.3 L-787.8 -597.3 L-787.8 -596.3 L-787.9 -595.3 L-787.9 -594.4 L-787.9 -593.4 L-787.9 -592.4 L-787.9 -591.4 L-787.9 -590.4 L-787.9 -589.4 L-787.9 -588.5 L-787.9 -587.5 L-788.9 -587.5 L-789.9 -587.5 L-790.9 -587.5 L-791.8 -587.5 L-792.8 -587.5 L-793.8 -587.5 L-794.8 -587.5 L-795.8 -587.5 L-796.7 -587.5 L-797.7 -587.6 L-798.7 -587.6 L-799.7 -587.6 L-800.7 -587.6 L-801.7 -587.6 L-802.6 -587.6 L-803.6 -587.6 L-804.6 -587.6 L-805.6 -587.6 L-806.6 -587.6 L-807.5 -587.6 L-808.5 -587.6 L-809.5 -587.6 L-810.5 -587.7 L-811.5 -587.7 L-812.5 -587.7 L-812.4 -588.7 L-812.4 -589.6 L-812.4 -590.6 L-812.4 -591.6 L-812.4 -592.6 L-812.4 -593.6 L-812.4 -594.5 L-812.4 -595.5 L-812.4 -596.5 L-812.4 -597.5 L-812.4 -598.5 L-812.4 -599.5 L-812.4 -600.4 L-812.3 -601.4 L-812.3 -602.4 L-812.3 -603.4 L-812.3 -604.4 L-812.3 -605.3 L-812.3 -606.3 L-812.3 -607.3 L-812.3 -608.3 L-812.3 -609.3 L-812.3 -610.3 L-812.3 -611.2 L-812.3 -612.2 L-811.3 -612.2 L-810.3 -612.2 L-809.3 -612.2 L-808.3 -612.2 L-807.4 -612.2 L-806.4 -612.2 L-805.4 -612.2 L-804.4 -612.2 L-803.4 -612.1 L-802.4 -612.1 L-801.5 -612.1 L-800.5 -612.1 L-799.5 -612.1 L-798.5 -612.1 L-797.5 -612.1 L-796.6 -612.1 L-795.6 -612.1 L-794.6 -612.1 L-793.6 -612.1 L-792.6 -612.1 L-791.6 -612.1 L-790.7 -612 L-789.7 -612 L-788.7 -612 L-787.7 -612 Z " />
<path stroke="rgb(0,0,0)" stroke-opacity="1" fill="rgb(255,255,255)" fill-opacity="1" d="M-99.53 -12.21 L-98.55 -12.16 L-97.57 -12.03 L-96.61 -11.82 L-95.67 -11.54 L-94.75 -11.19 L-93.87 -10.76 L-93.02 -10.26 L-92.21 -9.698 L-91.45 -9.072 L-90.75 -8.389 L-90.1 -7.651 L-89.51 -6.864 L-88.98 -6.033 L-88.52 -5.163 L-88.14 -4.259 L-87.82 -3.327 L-87.58 -2.373 L-87.42 -1.403 L-87.33 -0.4232 L-87.33 0.5602 L-87.4 1.541 L-87.55 2.513 L-87.77 3.47 L-88.08 4.406 L-88.45 5.316 L-88.9 6.192 L-89.41 7.031 L-89.99 7.826 L-90.63 8.573 L-91.33 9.266 L-92.08 9.902 L-92.87 10.48 L-93.72 10.98 L-94.6 11.42 L-95.51 11.79 L-96.44 12.09 L-97.4 12.31 L-98.38 12.45 L-99.36 12.52 L-100.3 12.51 L-101.3 12.41 L-102.3 12.25 L-103.2 12 L-104.2 11.68 L-105.1 11.29 L-105.9 10.83 L-106.8 10.3 L-107.6 9.702 L-108.3 9.047 L-109 8.336 L-109.6 7.573 L-110.1 6.763 L-110.6 5.912 L-111.1 5.024 L-111.4 4.105 L-111.7 3.161 L-111.9 2.199 L-112 1.223 L-112.1 0.2408 L-112 -0.7421 L-111.9 -1.719 L-111.7 -2.685 L-111.5 -3.632 L-111.1 -4.556 L-110.7 -5.449 L-110.2 -6.308 L-109.7 -7.125 L-109.1 -7.896 L-108.4 -8.617 L-107.7 -9.282 L-106.9 -9.887 L-106.1 -10.43 L-105.2 -10.9 L-104.3 -11.31 L-103.4 -11.64 L-102.5 -11.9 L-101.5 -12.08 L-100.5 -12.19 L-99.53 -12.21 Z " />
<path stroke="rgb(0,0,0)" stroke-opacity="1" fill="rgb(255,255,255)" fill-opacity="1" d="M-585.6 -609.9 L-585.6 -608.9 L-585.6 -607.9 L-585.5 -607 L-585.5 -606 L-585.5 -605 L-585.4 -604 L-585.4 -603 L-585.4 -602.1 L-585.3 -601.1 L-585.3 -600.1 L-585.3 -599.1 L-585.2 -598.1 L-585.2 -597.2 L-585.2 -596.2 L-585.1 -595.2 L-585.1 -594.2 L-585.1 -593.2 L-585 -592.2 L-585 -591.3 L-585 -590.3 L-584.9 -589.3 L-584.9 -588.3 L-584.9 -587.3 L-584.8 -586.4 L-584.8 -585.4 L-585.8 -585.3 L-586.8 -585.3 L-587.8 -585.3 L-588.7 -585.2 L-589.7 -585.2 L-590.7 -585.2 L-591.7 -585.1 L-592.7 -585.1 L-593.6 -585.1 L-594.6 -585.1 L-595.6 -585 L-596.6 -585 L-597.6 -585 L-598.5 -584.9 L-599.5 -584.9 L-600.5 -584.9 L-601.5 -584.8 L-602.5 -584.8 L-603.5 -584.8 L-604.4 -584.7 L-605.4 -584.7 L-606.4 -584.7 L-607.4 -584.6 L-608.4 -584.6 L-609.3 -584.6 L-609.4 -585.5 L-609.4 -586.5 L-609.4 -587.5 L-609.5 -588.5 L-609.5 -589.5 L-609.5 -590.5 L-609.6 -591.4 L-609.6 -592.4 L-609.6 -593.4 L-609.7 -594.4 L-609.7 -595.4 L-609.7 -596.3 L-609.8 -597.3 L-609.8 -598.3 L-609.8 -599.3 L-609.9 -600.3 L-609.9 -601.2 L-609.9 -602.2 L-610 -603.2 L-610 -604.2 L-610 -605.2 L-610.1 -606.2 L-610.1 -607.1 L-610.1 -608.1 L-610.2 -609.1 L-609.2 -609.1 L-608.2 -609.2 L-607.2 -609.2 L-606.2 -609.2 L-605.2 -609.3 L-604.3 -609.3 L-603.3 -609.3 L-602.3 -609.4 L-601.3 -609.4 L-600.3 -609.4 L-599.4 -609.5 L-598.4 -609.5 L-597.4 -609.5 L-596.4 -609.6 L-595.4 -609.6 L-594.5 -609.6 L-593.5 -609.6 L-592.5 -609.7 L-591.5 -609.7 L-590.5 -609.7 L-589.5 -609.8 L-588.6 -609.8 L-587.6 -609.8 L-586.6 -609.9 L-585.6 -609.9 Z " />
<path stroke="rgb(0,0,0)" stroke-opacity="1" fill="rgb(255,255,255)" fill-opacity="1" d="M100.5 -12.21 L101.4 -12.16 L102.4 -12.03 L103.4 -11.82 L104.3 -11.54 L105.2 -11.19 L106.1 -10.76 L107 -10.26 L107.8 -9.699 L108.5 -9.074 L109.2 -8.391 L109.9 -7.654 L110.5 -6.868 L111 -6.037 L111.5 -5.167 L111.9 -4.263 L112.2 -3.332 L112.4 -2.378 L112.6 -1.408 L112.7 -0.4287 L112.7 0.5545 L112.6 1.535 L112.5 2.507 L112.2 3.464 L111.9 4.4 L111.6 5.31 L111.1 6.186 L110.6 7.025 L110 7.82 L109.4 8.567 L108.7 9.26 L107.9 9.896 L107.1 10.47 L106.3 10.98 L105.4 11.42 L104.5 11.79 L103.6 12.09 L102.6 12.31 L101.6 12.45 L100.6 12.52 L99.67 12.5 L98.69 12.41 L97.72 12.25 L96.76 12 L95.83 11.68 L94.93 11.29 L94.07 10.83 L93.24 10.3 L92.45 9.703 L91.72 9.049 L91.04 8.338 L90.42 7.576 L89.86 6.767 L89.37 5.915 L88.95 5.028 L88.59 4.11 L88.32 3.166 L88.12 2.204 L87.99 1.228 L87.95 0.2463 L87.98 -0.7364 L88.09 -1.713 L88.27 -2.679 L88.54 -3.626 L88.87 -4.55 L89.28 -5.443 L89.76 -6.302 L90.31 -7.119 L90.92 -7.891 L91.59 -8.611 L92.31 -9.276 L93.09 -9.882 L93.91 -10.42 L94.77 -10.9 L95.66 -11.3 L96.59 -11.64 L97.54 -11.9 L98.5 -12.08 L99.48 -12.18 L100.5 -12.21 Z " />
<path stroke="rgb(0,0,0)" stroke-opacity="1" fill="rgb(255,255,255)" fill-opacity="1" d="M-379.5 -603.5 L-379.3 -602.5 L-379.2 -601.6 L-379 -600.6 L-378.9 -599.6 L-378.7 -598.7 L-378.6 -597.7 L-378.4 -596.7 L-378.3 -595.7 L-378.1 -594.8 L-378 -593.8 L-377.8 -592.8 L-377.7 -591.9 L-377.5 -590.9 L-377.4 -589.9 L-377.2 -589 L-377.1 -588 L-376.9 -587 L-376.8 -586 L-376.6 -585.1 L-376.5 -584.1 L-376.3 -583.1 L-376.2 -582.2 L-376 -581.2 L-375.9 -580.2 L-375.7 -579.2 L-376.7 -579.1 L-377.6 -578.9 L-378.6 -578.8 L-379.6 -578.6 L-380.6 -578.5 L-381.5 -578.3 L-382.5 -578.2 L-383.5 -578 L-384.4 -577.9 L-385.4 -577.7 L-386.4 -577.6 L-387.4 -577.4 L-388.3 -577.3 L-389.3 -577.1 L-390.3 -577 L-391.2 -576.8 L-392.2 -576.7 L-393.2 -576.5 L-394.1 -576.4 L-395.1 -576.2 L-396.1 -576.1 L-397.1 -575.9 L-398 -575.8 L-399 -575.6 L-400 -575.5 L-400.1 -576.4 L-400.3 -577.4 L-400.4 -578.4 L-400.6 -579.3 L-400.7 -580.3 L-400.9 -581.3 L-401 -582.3 L-401.2 -583.2 L-401.3 -584.2 L-401.5 -585.2 L-401.6 -586.1 L-401.8 -587.1 L-401.9 -588.1 L-402.1 -589.1 L-402.2 -590 L-402.4 -591 L-402.5 -592 L-402.7 -592.9 L-402.8 -593.9 L-403 -594.9 L-403.1 -595.8 L-403.3 -596.8 L-403.4 -597.8 L-403.6 -598.8 L-403.7 -599.7 L-402.8 -599.9 L-401.8 -600 L-400.8 -600.2 L-399.9 -600.3 L-398.9 -600.5 L-397.9 -600.6 L-397 -600.8 L-396 -600.9 L-395 -601.1 L-394 -601.2 L-393.1 -601.4 L-392.1 -601.5 L-391.1 -601.7 L-390.2 -601.8 L-389.2 -602 L-388.2 -602.1 L-387.3 -602.3 L-386.3 -602.4 L-385.3 -602.6 L-384.3 -602.7 L-383.4 -602.9 L-382.4 -603.1 L-381.4 -603.2 L-380.5 -603.4 L-379.5 -603.5 Z " />
<path stroke="rgb(0,0,0)" stroke-opacity="1" fill="rgb(255,255,255)" fill-opacity="1" d="M300.5 -12.21 L301.4 -12.16 L302.4 -12.03 L303.4 -11.82 L304.3 -11.54 L305.2 -11.19 L306.1 -10.76 L307 -10.26 L307.8 -9.699 L308.5 -9.074 L309.2 -8.391 L309.9 -7.654 L310.5 -6.868 L311 -6.037 L311.5 -5.167 L311.9 -4.263 L312.2 -3.332 L312.4 -2.378 L312.6 -1.408 L312.7 -0.4287 L312.7 0.5545 L312.6 1.535 L312.5 2.507 L312.2 3.464 L311.9 4.4 L311.6 5.31 L311.1 6.186 L310.6 7.025 L310 7.82 L309.4 8.567 L308.7 9.26 L307.9 9.896 L307.1 10.47 L306.3 10.98 L305.4 11.42 L304.5 11.79 L303.6 12.09 L302.6 12.31 L301.6 12.45 L300.6 12.52 L299.7 12.5 L298.7 12.41 L297.7 12.25 L296.8 12 L295.8 11.68 L294.9 11.29 L294.1 10.83 L293.2 10.3 L292.5 9.703 L291.7 9.049 L291 8.338 L290.4 7.576 L289.9 6.767 L289.4 5.915 L288.9 5.028 L288.6 4.11 L288.3 3.166 L288.1 2.204 L288 1.228 L287.9 0.2463 L288 -0.7364 L288.1 -1.713 L288.3 -2.679 L288.5 -3.626 L288.9 -4.55 L289.3 -5.443 L289.8 -6.302 L290.3 -7.119 L290.9 -7.891 L291.6 -8.611 L292.3 -9.276 L293.1 -9.882 L293.9 -10.42 L294.8 -10.9 L295.7 -11.3 L296.6 -11.64 L297.5 -11.9 L298.5 -12.08 L299.5 -12.18 L300.5 -12.21 Z " />
<path stroke="rgb(0,0,0)" stroke-opacity="1" fill="rgb(255,255,255)" fill-opacity="1" d="M-887.7 -512 L-887.7 -511 L-887.7 -510.1 L-887.7 -509.1 L-887.8 -508.1 L-887.8 -507.1 L-887.8 -506.1 L-887.8 -505.2 L-887.8 -504.2 L-887.8 -503.2 L-887.8 -502.2 L-887.8 -501.2 L-887.8 -500.2 L-887.8 -499.3 L-887.8 -498.3 L-887.8 -497.3 L-887.8 -496.3 L-887.9 -495.3 L-887.9 -494.4 L-887.9 -493.4 L-887.9 -492.4 L-887.9 -491.4 L-887.9 -490.4 L-887.9 -489.4 L-887.9 -488.5 L-887.9 -487.5 L-888.9 -487.5 L-889.9 -487.5 L-890.9 -487.5 L-891.8 -487.5 L-892.8 -487.5 L-893.8 -487.5 L-894.8 -487.5 L-895.8 -487.5 L-896.7 -487.5 L-897.7 -487.6 L-898.7 -487.6 L-899.7 -487.6 L-900.7 -487.6 L-901.7 -487.6 L-902.6 -487.6 L-903.6 -487.6 L-904.6 -487.6 L-905.6 -487.6 L-906.6 -487.6 L-907.5 -487.6 L-908.5 -487.6 L-909.5 -487.6 L-910.5 -487.7 L-911.5 -487.7 L-912.5 -487.7 L-912.4 -488.7 L-912.4 -489.6 L-912.4 -490.6 L-912.4 -491.6 L-912.4 -492.6 L-912.4 -493.6 L-912.4 -494.5 L-912.4 -495.5 L-912.4 -496.5 L-912.4 -497.5 L-912.4 -498.5 L-912.4 -499.5 L-912.4 -500.4 L-912.3 -501.4 L-912.3 -502.4 L-912.3 -503.4 L-912.3 -504.4 L-912.3 -505.3 L-912.3 -506.3 L-912.3 -507.3 L-912.3 -508.3 L-912.3 -509.3 L-912.3 -510.3 L-912.3 -511.2 L-912.3 -512.2 L-911.3 -512.2 L-910.3 -512.2 L-909.3 -512.2 L-908.3 -512.2 L-907.4 -512.2 L-906.4 -512.2 L-905.4 -512.2 L-904.4 -512.2 L-903.4 -512.1 L-902.4 -512.1 L-901.5 -512.1 L-900.5 -512.1 L-899.5 -512.1 L-898.5 -512.1 L-897.5 -512.1 L-896.6 -512.1 L-895.6 -512.1 L-894.6 -512.1 L-893.6 -512.1 L-892.6 -512.1 L-891.6 -512.1 L-890.7 -512 L-889.7 -512 L-888.7 -512 L-887.7 -512 Z " />
<path stroke="rgb(0,0,0)" stroke-opacity="1" fill="rgb(255,255,255)" fill-opacity="1" d="M-199.5 87.79 L-198.5 87.84 L-197.6 87.97 L-196.6 88.18 L-195.7 88.46 L-194.8 88.81 L-193.9 89.24 L-193 89.74 L-192.2 90.3 L-191.5 90.93 L-190.7 91.61 L-190.1 92.35 L-189.5 93.14 L-189 93.97 L-188.5 94.84 L-188.1 95.74 L-187.8 96.67 L-187.6 97.63 L-187.4 98.6 L-187.3 99.58 L-187.3 100.6 L-187.4 101.5 L-187.5 102.5 L-187.8 103.5 L-188.1 104.4 L-188.4 105.3 L-188.9 106.2 L-189.4 107 L-190 107.8 L-190.6 108.6 L-191.3 109.3 L-192.1 109.9 L-192.9 110.5 L-193.7 111 L-194.6 111.4 L-195.5 111.8 L-196.4 112.1 L-197.4 112.3 L-198.4 112.5 L-199.4 112.5 L-200.3 112.5 L-201.3 112.4 L-202.3 112.2 L-203.2 112 L-204.2 111.7 L-205.1 111.3 L-205.9 110.8 L-206.8 110.3 L-207.6 109.7 L-208.3 109 L-209 108.3 L-209.6 107.6 L-210.1 106.8 L-210.6 105.9 L-211.1 105 L-211.4 104.1 L-211.7 103.2 L-211.9 102.2 L-212 101.2 L-212.1 100.2 L-212 99.26 L-211.9 98.28 L-211.7 97.32 L-211.5 96.37 L-211.1 95.44 L-210.7 94.55 L-210.2 93.69 L-209.7 92.87 L-209.1 92.1 L-208.4 91.38 L-207.7 90.72 L-206.9 90.11 L-206.1 89.57 L-205.2 89.1 L-204.3 88.69 L-203.4 88.36 L-202.5 88.1 L-201.5 87.92 L-200.5 87.81 L-199.5 87.79 Z " />
<path stroke="rgb(0,0,0)" stroke-opacity="1" fill="rgb(255,255,255)" fill-opacity="1" d="M-685.6 -509.9 L-685.6 -508.9 L-685.6 -507.9 L-685.5 -507 L-685.5 -506 L-685.5 -505 L-685.4 -504 L-685.4 -503 L-685.4 -502.1 L-685.3 -501.1 L-685.3 -500.1 L-685.3 -499.1 L-685.2 -498.1 L-685.2 -497.2 L-685.2 -496.2 L-685.1 -495.2 L-685.1 -494.2 L-685.1 -493.2 L-685 -492.2 L-685 -491.3 L-685 -490.3 L-684.9 -489.3 L-684.9 -488.3 L-684.9 -487.3 L-684.8 -486.4 L-684.8 -485.4 L-685.8 -485.3 L-686.8 -485.3 L-687.8 -485.3 L-688.7 -485.2 L-689.7 -485.2 L-690.7 -485.2 L-691.7 -485.1 L-692.7 -485.1 L-693.6 -485.1 L-694.6 -485.1 L-695.6 -485 L-696.6 -485 L-697.6 -485 L-698.5 -484.9 L-699.5 -484.9 L-700.5 -484.9 L-701.5 -484.8 L-702.5 -484.8 L-703.5 -484.8 L-704.4 -484.7 L-705.4 -484.7 L-706.4 -484.7 L-707.4 -484.6 L-708.4 -484.6 L-709.3 -484.6 L-709.4 -485.5 L-709.4 -486.5 L-709.4 -487.5 L-709.5 -488.5 L-709.5 -489.5 L-709.5 -490.5 L-709.6 -491.4 L-709.6 -492.4 L-709.6 -493.4 L-709.7 -494.4 L-709.7 -495.4 L-709.7 -496.3 L-709.8 -497.3 L-709.8 -498.3 L-709.8 -499.3 L-709.9 -500.3 L-709.9 -501.2 L-709.9 -502.2 L-710 -503.2 L-710 -504.2 L-710 -505.2 L-710.1 -506.2 L-710.1 -507.1 L-710.1 -508.1 L-710.2 -509.1 L-709.2 -509.1 L-708.2 -509.2 L-707.2 -509.2 L-706.2 -509.2 L-705.2 -509.3 L-704.3 -509.3 L-703.3 -509.3 L-702.3 -509.4 L-701.3 -509.4 L-700.3 -509.4 L-699.4 -509.5 L-698.4 -509.5 L-697.4 -509.5 L-696.4 -509.6 L-695.4 -509.6 L-694.5 -509.6 L-693.5 -509.6 L-692.5 -509.7 L-691.5 -509.7 L-690.5 -509.7 L-689.5 -509.8 L-688.6 -509.8 L-687.6 -509.8 L-686.6 -509.9 L-685.6 -509.9 Z " />
<path stroke="rgb(0,0,0)" stroke-opacity="1" fill="rgb(255,255,255)" fill-opacity="1" d="M0.4647 87.79 L1.447 87.84 L2.421 87.97 L3.383 88.18 L4.325 88.46 L5.241 88.81 L6.127 89.24 L6.975 89.74 L7.782 90.3 L8.541 90.93 L9.248 91.61 L9.899 92.35 L10.49 93.13 L11.01 93.96 L11.47 94.83 L11.86 95.74 L12.17 96.67 L12.41 97.62 L12.58 98.59 L12.66 99.57 L12.67 100.6 L12.6 101.5 L12.45 102.5 L12.23 103.5 L11.92 104.4 L11.55 105.3 L11.11 106.2 L10.59 107 L10.01 107.8 L9.374 108.6 L8.677 109.3 L7.927 109.9 L7.129 110.5 L6.288 111 L5.409 111.4 L4.498 111.8 L3.56 112.1 L2.602 112.3 L1.629 112.4 L0.6482 112.5 L-0.335 112.5 L-1.314 112.4 L-2.283 112.2 L-3.235 112 L-4.165 111.7 L-5.067 111.3 L-5.935 110.8 L-6.763 110.3 L-7.546 109.7 L-8.28 109 L-8.96 108.3 L-9.58 107.6 L-10.14 106.8 L-10.63 105.9 L-11.05 105 L-11.41 104.1 L-11.68 103.2 L-11.88 102.2 L-12.01 101.2 L-12.05 100.2 L-12.02 99.26 L-11.91 98.29 L-11.73 97.32 L-11.46 96.37 L-11.13 95.45 L-10.72 94.56 L-10.24 93.7 L-9.69 92.88 L-9.08 92.11 L-8.411 91.39 L-7.687 90.72 L-6.913 90.12 L-6.092 89.58 L-5.232 89.1 L-4.336 88.7 L-3.411 88.36 L-2.462 88.1 L-1.496 87.92 L-0.5182 87.82 L0.4647 87.79 Z " />
<path stroke="rgb(0,0,0)" stroke-opacity="1" fill="rgb(255,255,255)" fill-opacity="1" d="M-479.5 -503.5 L-479.3 -502.5 L-479.2 -501.6 L-479 -500.6 L-478.9 -499.6 L-478.7 -498.7 L-478.6 -497.7 L-478.4 -496.7 L-478.3 -495.7 L-478.1 -494.8 L-478 -493.8 L-477.8 -492.8 L-477.7 -491.9 L-477.5 -490.9 L-477.4 -489.9 L-477.2 -489 L-477.1 -488 L-476.9 -487 L-476.8 -486 L-476.6 -485.1 L-476.5 -484.1 L-476.3 -483.1 L-476.2 -482.2 L-476 -481.2 L-475.9 -480.2 L-475.7 -479.2 L-476.7 -479.1 L-477.6 -478.9 L-478.6 -478.8 L-479.6 -478.6 L-480.6 -478.5 L-481.5 -478.3 L-482.5 -478.2 L-483.5 -478 L-484.4 -477.9 L-485.4 -477.7 L-486.4 -477.6 L-487.4 -477.4 L-488.3 -477.3 L-489.3 -477.1 L-490.3 -477 L-491.2 -476.8 L-492.2 -476.7 L-493.2 -476.5 L-494.1 -476.4 L-495.1 -476.2 L-496.1 -476.1 L-497.1 -475.9 L-498 -475.8 L-499 -475.6 L-500 -475.5 L-500.1 -476.4 L-500.3 -477.4 L-500.4 -478.4 L-500.6 -479.3 L-500.7 -480.3 L-500.9 -481.3 L-501 -482.3 L-501.2 -483.2 L-501.3 -484.2 L-501.5 -485.2 L-501.6 -486.1 L-501.8 -487.1 L-501.9 -488.1 L-502.1 -489.1 L-502.2 -490 L-502.4 -491 L-502.5 -492 L-502.7 -492.9 L-502.8 -493.9 L-503 -494.9 L-503.1 -495.8 L-503.3 -496.8 L-503.4 -497.8 L-503.6 -498.8 L-503.7 -499.7 L-502.8 -499.9 L-501.8 -500 L-500.8 -500.2 L-499.9 -500.3 L-498.9 -500.5 L-497.9 -500.6 L-497 -500.8 L-496 -500.9 L-495 -501.1 L-494 -501.2 L-493.1 -501.4 L-492.1 -501.5 L-491.1 -501.7 L-490.2 -501.8 L-489.2 -502 L-488.2 -502.1 L-487.3 -502.3 L-486.3 -502.4 L-485.3 -502.6 L-484.3 -502.7 L-483.4 -502.9 L-482.4 -503.1 L-481.4 -503.2 L-480.5 -503.4 L-479.5 -503.5 Z " />
<path stroke="rgb(0,0,0)" stroke-opacity="1" fill="rgb(255,255,255)" fill-opacity="1" d="M200.5 87.79 L201.4 87.84 L202.4 87.97 L203.4 88.18 L204.3 88.46 L205.2 88.81 L206.1 89.24 L207 89.74 L207.8 90.3 L208.5 90.93 L209.2 91.61 L209.9 92.35 L210.5 93.13 L211 93.96 L211.5 94.83 L211.9 95.74 L212.2 96.67 L212.4 97.62 L212.6 98.59 L212.7 99.57 L212.7 100.6 L212.6 101.5 L212.5 102.5 L212.2 103.5 L211.9 104.4 L211.6 105.3 L211.1 106.2 L210.6 107 L210 107.8 L209.4 108.6 L208.7 109.3 L207.9 109.9 L207.1 110.5 L206.3 111 L205.4 111.4 L204.5 111.8 L203.6 112.1 L202.6 112.3 L201.6 112.4 L200.6 112.5 L199.7 112.5 L198.7 112.4 L197.7 112.2 L196.8 112 L195.8 111.7 L194.9 111.3 L194.1 110.8 L193.2 110.3 L192.5 109.7 L191.7 109 L191 108.3 L190.4 107.6 L189.9 106.8 L189.4 105.9 L188.9 105 L188.6 104.1 L188.3 103.2 L188.1 102.2 L188 101.2 L187.9 100.2 L188 99.26 L188.1 98.29 L188.3 97.32 L188.5 96.37 L188.9 95.45 L189.3 94.56 L189.8 93.7 L190.3 92.88 L190.9 92.11 L191.6 91.39 L192.3 90.72 L193.1 90.12 L193.9 89.58 L194.8 89.1 L195.7 88.7 L196.6 88.36 L197.5 88.1 L198.5 87.92 L199.5 87.82 L200.5 87.79 Z " />
<path stroke="rgb(0,0,0)" stroke-opacity="1" fill="rgb(255,255,255)" fill-opacity="1" d="M-267.5 -489.9 L-267.1 -489 L-266.7 -488.1 L-266.4 -487.2 L-266 -486.3 L-265.6 -485.4 L-265.2 -484.5 L-264.8 -483.6 L-264.4 -482.7 L-264.1 -481.8 L-263.7 -480.8 L-263.3 -479.9 L-262.9 -479 L-262.5 -478.1 L-262.1 -477.2 L-261.8 -476.3 L-261.4 -475.4 L-261 -474.5 L-260.6 -473.6 L-260.2 -472.7 L-259.8 -471.8 L-259.5 -470.9 L-259.1 -470 L-258.7 -469.1 L-258.3 -468.2 L-257.9 -467.3 L-258.8 -466.9 L-259.7 -466.5 L-260.6 -466.1 L-261.5 -465.8 L-262.4 -465.4 L-263.4 -465 L-264.3 -464.6 L-265.2 -464.2 L-266.1 -463.8 L-267 -463.5 L-267.9 -463.1 L-268.8 -462.7 L-269.7 -462.3 L-270.6 -461.9 L-271.5 -461.5 L-272.4 -461.2 L-273.3 -460.8 L-274.2 -460.4 L-275.1 -460 L-276 -459.6 L-276.9 -459.2 L-277.8 -458.9 L-278.7 -458.5 L-279.6 -458.1 L-280.5 -457.7 L-280.9 -458.6 L-281.3 -459.5 L-281.7 -460.4 L-282.1 -461.3 L-282.5 -462.2 L-282.8 -463.1 L-283.2 -464 L-283.6 -464.9 L-284 -465.8 L-284.4 -466.7 L-284.8 -467.7 L-285.1 -468.6 L-285.5 -469.5 L-285.9 -470.4 L-286.3 -471.3 L-286.7 -472.2 L-287 -473.1 L-287.4 -474 L-287.8 -474.9 L-288.2 -475.8 L-288.6 -476.7 L-289 -477.6 L-289.3 -478.5 L-289.7 -479.4 L-290.1 -480.3 L-289.2 -480.7 L-288.3 -481.1 L-287.4 -481.5 L-286.5 -481.8 L-285.6 -482.2 L-284.7 -482.6 L-283.8 -483 L-282.9 -483.4 L-282 -483.8 L-281.1 -484.1 L-280.2 -484.5 L-279.3 -484.9 L-278.4 -485.3 L-277.5 -485.7 L-276.6 -486.1 L-275.6 -486.4 L-274.7 -486.8 L-273.8 -487.2 L-272.9 -487.6 L-272 -488 L-271.1 -488.4 L-270.2 -488.7 L-269.3 -489.1 L-268.4 -489.5 L-267.5 -489.9 Z " />
<path stroke="rgb(0,0,0)" stroke-opacity="1" fill="rgb(255,255,255)" fill-opacity="1" d="M-299.5 187.8 L-298.5 187.8 L-297.6 188 L-296.6 188.2 L-295.7 188.5 L-294.8 188.8 L-293.9 189.2 L-293 189.7 L-292.2 190.3 L-291.5 190.9 L-290.7 191.6 L-290.1 192.3 L-289.5 193.1 L-289 194 L-288.5 194.8 L-288.1 195.7 L-287.8 196.7 L-287.6 197.6 L-287.4 198.6 L-287.3 199.6 L-287.3 200.6 L-287.4 201.5 L-287.5 202.5 L-287.8 203.5 L-288.1 204.4 L-288.4 205.3 L-288.9 206.2 L-289.4 207 L-290 207.8 L-290.6 208.6 L-291.3 209.3 L-292.1 209.9 L-292.9 210.5 L-293.7 211 L-294.6 211.4 L-295.5 211.8 L-296.4 212.1 L-297.4 212.3 L-298.4 212.5 L-299.4 212.5 L-300.3 212.5 L-301.3 212.4 L-302.3 212.2 L-303.2 212 L-304.2 211.7 L-305.1 211.3 L-305.9 210.8 L-306.8 210.3 L-307.6 209.7 L-308.3 209 L-309 208.3 L-309.6 207.6 L-310.1 206.8 L-310.6 205.9 L-311.1 205 L-311.4 204.1 L-311.7 203.2 L-311.9 202.2 L-312 201.2 L-312.1 200.2 L-312 199.3 L-311.9 198.3 L-311.7 197.3 L-311.5 196.4 L-311.1 195.4 L-310.7 194.6 L-310.2 193.7 L-309.7 192.9 L-309.1 192.1 L-308.4 191.4 L-307.7 190.7 L-306.9 190.1 L-306.1 189.6 L-305.2 189.1 L-304.3 188.7 L-303.4 188.4 L-302.5 188.1 L-301.5 187.9 L-300.5 187.8 L-299.5 187.8 Z " />
<path stroke="rgb(0,0,0)" stroke-opacity="1" fill="rgb(255,255,255)" fill-opacity="1" d="M-785.6 -409.9 L-785.6 -408.9 L-785.6 -407.9 L-785.5 -407 L-785.5 -406 L-785.5 -405 L-785.4 -404 L-785.4 -403 L-785.4 -402.1 L-785.3 -401.1 L-785.3 -400.1 L-785.3 -399.1 L-785.2 -398.1 L-785.2 -397.2 L-785.2 -396.2 L-785.1 -395.2 L-785.1 -394.2 L-785.1 -393.2 L-785 -392.2 L-785 -391.3 L-785 -390.3 L-784.9 -389.3 L-784.9 -388.3 L-784.9 -387.3 L-784.8 -386.4 L-784.8 -385.4 L-785.8 -385.3 L-786.8 -385.3 L-787.8 -385.3 L-788.7 -385.2 L-789.7 -385.2 L-790.7 -385.2 L-791.7 -385.1 L-792.7 -385.1 L-793.6 -385.1 L-794.6 -385.1 L-795.6 -385 L-796.6 -385 L-797.6 -385 L-798.5 -384.9 L-799.5 -384.9 L-800.5 -384.9 L-801.5 -384.8 L-802.5 -384.8 L-803.5 -384.8 L-804.4 -384.7 L-805.4 -384.7 L-806.4 -384.7 L-807.4 -384.6 L-808.4 -384.6 L-809.3 -384.6 L-809.4 -385.5 L-809.4 -386.5 L-809.4 -387.5 L-809.5 -388.5 L-809.5 -389.5 L-809.5 -390.5 L-809.6 -391.4 L-809.6 -392.4 L-809.6 -393.4 L-809.7 -394.4 L-809.7 -395.4 L-809.7 -396.3 L-809.8 -397.3 L-809.8 -398.3 L-809.8 -399.3 L-809.9 -400.3 L-809.9 -401.2 L-809.9 -402.2 L-810 -403.2 L-810 -404.2 L-810 -405.2 L-810.1 -406.2 L-810.1 -407.1 L-810.1 -408.1 L-810.2 -409.1 L-809.2 -409.1 L-808.2 -409.2 L-807.2 -409.2 L-806.2 -409.2 L-805.2 -409.3 L-804.3 -409.3 L-803.3 -409.3 L-802.3 -409.4 L-801.3 -409.4 L-800.3 -409.4 L-799.4 -409.5 L-798.4 -409.5 L-797.4 -409.5 L-796.4 -409.6 L-795.4 -409.6 L-794.5 -409.6 L-793.5 -409.6 L-792.5 -409.7 L-791.5 -409.7 L-790.5 -409.7 L-789.5 -409.8 L-788.6 -409.8 L-787.6 -409.8 L-786.6 -409.9 L-785.6 -409.9 Z " />
<path stroke="rgb(0,0,0)" stroke-opacity="1" fill="rgb(255,255,255)" fill-opacity="1" d="M-99.54 187.8 L-98.55 187.8 L-97.58 188 L-96.62 188.2 L-95.68 188.5 L-94.76 188.8 L-93.87 189.2 L-93.02 189.7 L-92.22 190.3 L-91.46 190.9 L-90.75 191.6 L-90.1 192.3 L-89.51 193.1 L-88.99 194 L-88.53 194.8 L-88.14 195.7 L-87.83 196.7 L-87.59 197.6 L-87.42 198.6 L-87.34 199.6 L-87.33 200.6 L-87.4 201.5 L-87.55 202.5 L-87.77 203.5 L-88.08 204.4 L-88.45 205.3 L-88.89 206.2 L-89.41 207 L-89.99 207.8 L-90.63 208.6 L-91.32 209.3 L-92.07 209.9 L-92.87 210.5 L-93.71 211 L-94.59 211.4 L-95.5 211.8 L-96.44 212.1 L-97.4 212.3 L-98.37 212.4 L-99.35 212.5 L-100.3 212.5 L-101.3 212.4 L-102.3 212.2 L-103.2 212 L-104.2 211.7 L-105.1 211.3 L-105.9 210.8 L-106.8 210.3 L-107.5 209.7 L-108.3 209 L-109 208.3 L-109.6 207.6 L-110.1 206.8 L-110.6 205.9 L-111.1 205 L-111.4 204.1 L-111.7 203.2 L-111.9 202.2 L-112 201.2 L-112.1 200.2 L-112 199.3 L-111.9 198.3 L-111.7 197.3 L-111.5 196.4 L-111.1 195.5 L-110.7 194.6 L-110.2 193.7 L-109.7 192.9 L-109.1 192.1 L-108.4 191.4 L-107.7 190.7 L-106.9 190.1 L-106.1 189.6 L-105.2 189.1 L-104.3 188.7 L-103.4 188.4 L-102.5 188.1 L-101.5 187.9 L-100.5 187.8 L-99.54 187.8 Z " />
<path stroke="rgb(0,0,0)" stroke-opacity="1" fill="rgb(255,255,255)" fill-opacity="1" d="M-579.5 -403.5 L-579.3 -402.5 L-579.2 -401.6 L-579 -400.6 L-578.9 -399.6 L-578.7 -398.7 L-578.6 -397.7 L-578.4 -396.7 L-578.3 -395.7 L-578.1 -394.8 L-578 -393.8 L-577.8 -392.8 L-577.7 -391.9 L-577.5 -390.9 L-577.4 -389.9 L-577.2 -389 L-577.1 -388 L-576.9 -387 L-576.8 -386 L-576.6 -385.1 L-576.5 -384.1 L-576.3 -383.1 L-576.2 -382.2 L-576 -381.2 L-575.9 -380.2 L-575.7 -379.2 L-576.7 -379.1 L-577.6 -378.9 L-578.6 -378.8 L-579.6 -378.6 L-580.6 -378.5 L-581.5 -378.3 L-582.5 -378.2 L-583.5 -378 L-584.4 -377.9 L-585.4 -377.7 L-586.4 -377.6 L-587.4 -377.4 L-588.3 -377.3 L-589.3 -377.1 L-590.3 -377 L-591.2 -376.8 L-592.2 -376.7 L-593.2 -376.5 L-594.1 -376.4 L-595.1 -376.2 L-596.1 -376.1 L-597.1 -375.9 L-598 -375.8 L-599 -375.6 L-600 -375.5 L-600.1 -376.4 L-600.3 -377.4 L-600.4 -378.4 L-600.6 -379.3 L-600.7 -380.3 L-600.9 -381.3 L-601 -382.3 L-601.2 -383.2 L-601.3 -384.2 L-601.5 -385.2 L-601.6 -386.1 L-601.8 -387.1 L-601.9 -388.1 L-602.1 -389.1 L-602.2 -390 L-602.4 -391 L-602.5 -392 L-602.7 -392.9 L-602.8 -393.9 L-603 -394.9 L-603.1 -395.8 L-603.3 -396.8 L-603.4 -397.8 L-603.6 -398.8 L-603.7 -399.7 L-602.8 -399.9 L-601.8 -400 L-600.8 -400.2 L-599.9 -400.3 L-598.9 -400.5 L-597.9 -400.6 L-597 -400.8 L-596 -400.9 L-595 -401.1 L-594 -401.2 L-593.1 -401.4 L-592.1 -401.5 L-591.1 -401.7 L-590.2 -401.8 L-589.2 -402 L-588.2 -402.1 L-587.3 -402.3 L-586.3 -402.4 L-585.3 -402.6 L-584.3 -402.7 L-583.4 -402.9 L-582.4 -403.1 L-581.4 -403.2 L-580.5 -403.4 L-579.5 -403.5 Z " />
<path stroke="rgb(0,0,0)" stroke-opacity="1" fill="rgb(255,255,255)" fill-opacity="1" d="M100.5 187.8 L101.4 187.8 L102.4 188 L103.4 188.2 L104.3 188.5 L105.2 188.8 L106.1 189.2 L107 189.7 L107.8 190.3 L108.5 190.9 L109.2 191.6 L109.9 192.3 L110.5 193.1 L111 194 L111.5 194.8 L111.9 195.7 L112.2 196.7 L112.4 197.6 L112.6 198.6 L112.7 199.6 L112.7 200.6 L112.6 201.5 L112.5 202.5 L112.2 203.5 L111.9 204.4 L111.6 205.3 L111.1 206.2 L110.6 207 L110 207.8 L109.4 208.6 L108.7 209.3 L107.9 209.9 L107.1 210.5 L106.3 211 L105.4 211.4 L104.5 211.8 L103.6 212.1 L102.6 212.3 L101.6 212.4 L100.6 212.5 L99.67 212.5 L98.69 212.4 L97.72 212.2 L96.76 212 L95.83 211.7 L94.93 211.3 L94.07 210.8 L93.24 210.3 L92.45 209.7 L91.72 209 L91.04 208.3 L90.42 207.6 L89.86 206.8 L89.37 205.9 L88.95 205 L88.59 204.1 L88.32 203.2 L88.12 202.2 L87.99 201.2 L87.95 200.2 L87.98 199.3 L88.09 198.3 L88.27 197.3 L88.54 196.4 L88.87 195.5 L89.28 194.6 L89.76 193.7 L90.31 192.9 L90.92 192.1 L91.59 191.4 L92.31 190.7 L93.09 190.1 L93.91 189.6 L94.77 189.1 L95.66 188.7 L96.59 188.4 L97.54 188.1 L98.5 187.9 L99.48 187.8 L100.5 187.8 Z " />
<path stroke="rgb(0,0,0)" stroke-opacity="1" fill="rgb(255,255,255)" fill-opacity="1" d="M-367.5 -389.9 L-367.1 -389 L-366.7 -388.1 L-366.4 -387.2 L-366 -386.3 L-365.6 -385.4 L-365.2 -384.5 L-364.8 -383.6 L-364.4 -382.7 L-364.1 -381.8 L-363.7 -380.8 L-363.3 -379.9 L-362.9 -379 L-362.5 -378.1 L-362.1 -377.2 L-361.8 -376.3 L-361.4 -375.4 L-361 -374.5 L-360.6 -373.6 L-360.2 -372.7 L-359.8 -371.8 L-359.5 -370.9 L-359.1 -370 L-358.7 -369.1 L-358.3 -368.2 L-357.9 -367.3 L-358.8 -366.9 L-359.7 -366.5 L-360.6 -366.1 L-361.5 -365.8 L-362.4 -365.4 L-363.4 -365 L-364.3 -364.6 L-365.2 -364.2 L-366.1 -363.8 L-367 -363.5 L-367.9 -363.1 L-368.8 -362.7 L-369.7 -362.3 L-370.6 -361.9 L-371.5 -361.5 L-372.4 -361.2 L-373.3 -360.8 L-374.2 -360.4 L-375.1 -360 L-376 -359.6 L-376.9 -359.2 L-377.8 -358.9 L-378.7 -358.5 L-379.6 -358.1 L-380.5 -357.7 L-380.9 -358.6 L-381.3 -359.5 L-381.7 -360.4 L-382.1 -361.3 L-382.5 -362.2 L-382.8 -363.1 L-383.2 -364 L-383.6 -364.9 L-384 -365.8 L-384.4 -366.7 L-384.8 -367.7 L-385.1 -368.6 L-385.5 -369.5 L-385.9 -370.4 L-386.3 -371.3 L-386.7 -372.2 L-387 -373.1 L-387.4 -374 L-387.8 -374.9 L-388.2 -375.8 L-388.6 -376.7 L-389 -377.6 L-389.3 -378.5 L-389.7 -379.4 L-390.1 -380.3 L-389.2 -380.7 L-388.3 -381.1 L-387.4 -381.5 L-386.5 -381.8 L-385.6 -382.2 L-384.7 -382.6 L-383.8 -383 L-382.9 -383.4 L-382 -383.8 L-381.1 -384.1 L-380.2 -384.5 L-379.3 -384.9 L-378.4 -385.3 L-377.5 -385.7 L-376.6 -386.1 L-375.6 -386.4 L-374.7 -386.8 L-373.8 -387.2 L-372.9 -387.6 L-372 -388 L-371.1 -388.4 L-370.2 -388.7 L-369.3 -389.1 L-368.4 -389.5 L-367.5 -389.9 Z " />
<path stroke="rgb(0,0,0)" stroke-opacity="1" fill="rgb(255,255,255)" fill-opacity="1" d="M300.5 187.8 L301.4 187.8 L302.4 188 L303.4 188.2 L304.3 188.5 L305.2 188.8 L306.1 189.2 L307 189.7 L307.8 190.3 L308.5 190.9 L309.2 191.6 L309.9 192.3 L310.5 193.1 L311 194 L311.5 194.8 L311.9 195.7 L312.2 196.7 L312.4 197.6 L312.6 198.6 L312.7 199.6 L312.7 200.6 L312.6 201.5 L312.5 202.5 L312.2 203.5 L311.9 204.4 L311.6 205.3 L311.1 206.2 L310.6 207 L310 207.8 L309.4 208.6 L308.7 209.3 L307.9 209.9 L307.1 210.5 L306.3 211 L305.4 211.4 L304.5 211.8 L303.6 212.1 L302.6 212.3 L301.6 212.4 L300.6 212.5 L299.7 212.5 L298.7 212.4 L297.7 212.2 L296.8 212 L295.8 211.7 L294.9 211.3 L294.1 210.8 L293.2 210.3 L292.5 209.7 L291.7 209 L291 208.3 L290.4 207.6 L289.9 206.8 L289.4 205.9 L288.9 205 L288.6 204.1 L288.3 203.2 L288.1 202.2 L288 201.2 L287.9 200.2 L288 199.3 L288.1 198.3 L288.3 197.3 L288.5 196.4 L288.9 195.5 L289.3 194.6 L289.8 193.7 L290.3 192.9 L290.9 192.1 L291.6 191.4 L292.3 190.7 L293.1 190.1 L293.9 189.6 L294.8 189.1 L295.7 188.7 L296.6 188.4 L297.5 188.1 L298.5 187.9 L299.5 187.8 L300.5 187.8 Z " />
<path stroke="rgb(0,0,0)" stroke-opacity="1" fill="rgb(255,255,255)" fill-opacity="1" d="M-885.6 -309.9 L-885.6 -308.9 L-885.6 -307.9 L-885.5 -307 L-885.5 -306 L-885.5 -305 L-885.4 -304 L-885.4 -303 L-885.4 -302.1 L-885.3 -301.1 L-885.3 -300.1 L-885.3 -299.1 L-885.2 -298.1 L-885.2 -297.2 L-885.2 -296.2 L-885.1 -295.2 L-885.1 -294.2 L-885.1 -293.2 L-885 -292.2 L-885 -291.3 L-885 -290.3 L-884.9 -289.3 L-884.9 -288.3 L-884.9 -287.3 L-884.8 -286.4 L-884.8 -285.4 L-885.8 -285.3 L-886.8 -285.3 L-887.8 -285.3 L-888.7 -285.2 L-889.7 -285.2 L-890.7 -285.2 L-891.7 -285.1 L-892.7 -285.1 L-893.6 -285.1 L-894.6 -285.1 L-895.6 -285 L-896.6 -285 L-897.6 -285 L-898.5 -284.9 L-899.5 -284.9 L-900.5 -284.9 L-901.5 -284.8 L-902.5 -284.8 L-903.5 -284.8 L-904.4 -284.7 L-905.4 -284.7 L-906.4 -284.7 L-907.4 -284.6 L-908.4 -284.6 L-909.3 -284.6 L-909.4 -285.5 L-909.4 -286.5 L-909.4 -287.5 L-909.5 -288.5 L-909.5 -289.5 L-909.5 -290.5 L-909.6 -291.4 L-909.6 -292.4 L-909.6 -293.4 L-909.7 -294.4 L-909.7 -295.4 L-909.7 -296.3 L-909.8 -297.3 L-909.8 -298.3 L-909.8 -299.3 L-909.9 -300.3 L-909.9 -301.2 L-909.9 -302.2 L-910 -303.2 L-910 -304.2 L-910 -305.2 L-910.1 -306.2 L-910.1 -307.1 L-910.1 -308.1 L-910.2 -309.1 L-909.2 -309.1 L-908.2 -309.2 L-907.2 -309.2 L-906.2 -309.2 L-905.2 -309.3 L-904.3 -309.3 L-903.3 -309.3 L-902.3 -309.4 L-901.3 -309.4 L-900.3 -309.4 L-899.4 -309.5 L-898.4 -309.5 L-897.4 -309.5 L-896.4 -309.6 L-895.4 -309.6 L-894.5 -309.6 L-893.5 -309.6 L-892.5 -309.7 L-891.5 -309.7 L-890.5 -309.7 L-889.5 -309.8 L-888.6 -309.8 L-887.6 -309.8 L-886.6 -309.9 L-885.6 -309.9 Z " />
<path stroke="rgb(0,0,0)" stroke-opacity="1" fill="rgb(255,255,255)" fill-opacity="1" d="M-199.5 287.8 L-198.6 287.8 L-197.6 288 L-196.6 288.2 L-195.7 288.5 L-194.8 288.8 L-193.9 289.2 L-193 289.7 L-192.2 290.3 L-191.5 290.9 L-190.8 291.6 L-190.1 292.3 L-189.5 293.1 L-189 294 L-188.5 294.8 L-188.1 295.7 L-187.8 296.7 L-187.6 297.6 L-187.4 298.6 L-187.3 299.6 L-187.3 300.6 L-187.4 301.5 L-187.5 302.5 L-187.8 303.5 L-188.1 304.4 L-188.4 305.3 L-188.9 306.2 L-189.4 307 L-190 307.8 L-190.6 308.6 L-191.3 309.3 L-192.1 309.9 L-192.9 310.5 L-193.7 311 L-194.6 311.4 L-195.5 311.8 L-196.4 312.1 L-197.4 312.3 L-198.4 312.4 L-199.4 312.5 L-200.3 312.5 L-201.3 312.4 L-202.3 312.2 L-203.2 312 L-204.2 311.7 L-205.1 311.3 L-205.9 310.8 L-206.8 310.3 L-207.5 309.7 L-208.3 309 L-209 308.3 L-209.6 307.6 L-210.1 306.8 L-210.6 305.9 L-211.1 305 L-211.4 304.1 L-211.7 303.2 L-211.9 302.2 L-212 301.2 L-212.1 300.2 L-212 299.3 L-211.9 298.3 L-211.7 297.3 L-211.5 296.4 L-211.1 295.5 L-210.7 294.6 L-210.2 293.7 L-209.7 292.9 L-209.1 292.1 L-208.4 291.4 L-207.7 290.7 L-206.9 290.1 L-206.1 289.6 L-205.2 289.1 L-204.3 288.7 L-203.4 288.4 L-202.5 288.1 L-201.5 287.9 L-200.5 287.8 L-199.5 287.8 Z " />
<path stroke="rgb(0,0,0)" stroke-opacity="1" fill="rgb(255,255,255)" fill-opacity="1" d="M-679.5 -303.5 L-679.3 -302.5 L-679.2 -301.6 L-679 -300.6 L-678.9 -299.6 L-678.7 -298.7 L-678.6 -297.7 L-678.4 -296.7 L-678.3 -295.7 L-678.1 -294.8 L-678 -293.8 L-677.8 -292.8 L-677.7 -291.9 L-677.5 -290.9 L-677.4 -289.9 L-677.2 -289 L-677.1 -288 L-676.9 -287 L-676.8 -286 L-676.6 -285.1 L-676.5 -284.1 L-676.3 -283.1 L-676.2 -282.2 L-676 -281.2 L-675.9 -280.2 L-675.7 -279.2 L-676.7 -279.1 L-677.6 -278.9 L-678.6 -278.8 L-679.6 -278.6 L-680.6 -278.5 L-681.5 -278.3 L-682.5 -278.2 L-683.5 -278 L-684.4 -277.9 L-685.4 -277.7 L-686.4 -277.6 L-687.4 -277.4 L-688.3 -277.3 L-689.3 -277.1 L-690.3 -277 L-691.2 -276.8 L-692.2 -276.7 L-693.2 -276.5 L-694.1 -276.4 L-695.1 -276.2 L-696.1 -276.1 L-697.1 -275.9 L-698 -275.8 L-699 -275.6 L-700 -275.5 L-700.1 -276.4 L-700.3 -277.4 L-700.4 -278.4 L-700.6 -279.3 L-700.7 -280.3 L-700.9 -281.3 L-701 -282.3 L-701.2 -283.2 L-701.3 -284.2 L-701.5 -285.2 L-701.6 -286.1 L-701.8 -287.1 L-701.9 -288.1 L-702.1 -289.1 L-702.2 -290 L-702.4 -291 L-702.5 -292 L-702.7 -292.9 L-702.8 -293.9 L-703 -294.9 L-703.1 -295.8 L-703.3 -296.8 L-703.4 -297.8 L-703.6 -298.8 L-703.7 -299.7 L-702.8 -299.9 L-701.8 -300 L-700.8 -300.2 L-699.9 -300.3 L-698.9 -300.5 L-697.9 -300.6 L-697 -300.8 L-696 -300.9 L-695 -301.1 L-694 -301.2 L-693.1 -301.4 L-692.1 -301.5 L-691.1 -301.7 L-690.2 -301.8 L-689.2 -302 L-688.2 -302.1 L-687.3 -302.3 L-686.3 -302.4 L-685.3 -302.6 L-684.3 -302.7 L-683.4 -302.9 L-682.4 -303.1 L-681.4 -303.2 L-680.5 -303.4 L-679.5 -303.5 Z " />
<path stroke="rgb(0,0,0)" stroke-opacity="1" fill="rgb(255,255,255)" fill-opacity="1" d="M0.4647 287.8 L1.447 287.8 L2.421 288 L3.383 288.2 L4.325 288.5 L5.241 288.8 L6.127 289.2 L6.975 289.7 L7.782 290.3 L8.541 290.9 L9.248 291.6 L9.899 292.3 L10.49 293.1 L11.01 294 L11.47 294.8 L11.86 295.7 L12.17 296.7 L12.41 297.6 L12.58 298.6 L12.66 299.6 L12.67 300.6 L12.6 301.5 L12.45 302.5 L12.23 303.5 L11.92 304.4 L11.55 305.3 L11.11 306.2 L10.59 307 L10.01 307.8 L9.374 308.6 L8.677 309.3 L7.927 309.9 L7.129 310.5 L6.288 311 L5.409 311.4 L4.498 311.8 L3.56 312.1 L2.602 312.3 L1.629 312.4 L0.6482 312.5 L-0.335 312.5 L-1.314 312.4 L-2.283 312.2 L-3.235 312 L-4.165 311.7 L-5.067 311.3 L-5.935 310.8 L-6.763 310.3 L-7.546 309.7 L-8.28 309 L-8.96 308.3 L-9.58 307.6 L-10.14 306.8 L-10.63 305.9 L-11.05 305 L-11.41 304.1 L-11.68 303.2 L-11.88 302.2 L-12.01 301.2 L-12.05 300.2 L-12.02 299.3 L-11.91 298.3 L-11.73 297.3 L-11.46 296.4 L-11.13 295.5 L-10.72 294.6 L-10.24 293.7 L-9.69 292.9 L-9.08 292.1 L-8.411 291.4 L-7.687 290.7 L-6.913 290.1 L-6.092 289.6 L-5.232 289.1 L-4.336 288.7 L-3.411 288.4 L-2.462 288.1 L-1.496 287.9 L-0.5182 287.8 L0.4647 287.8 Z " />
<path stroke="rgb(0,0,0)" stroke-opacity="1" fill="rgb(255,255,255)" fill-opacity="1" d="M-467.5 -289.9 L-467.1 -289 L-466.7 -288.1 L-466.4 -287.2 L-466 -286.3 L-465.6 -285.4 L-465.2 -284.5 L-464.8 -283.6 L-464.4 -282.7 L-464.1 -281.8 L-463.7 -280.8 L-463.3 -279.9 L-462.9 -279 L-462.5 -278.1 L-462.1 -277.2 L-461.8 -276.3 L-461.4 -275.4 L-461 -274.5 L-460.6 -273.6 L-460.2 -272.7 L-459.8 -271.8 L-459.5 -270.9 L-459.1 -270 L-458.7 -269.1 L-458.3 -268.2 L-457.9 -267.3 L-458.8 -266.9 L-459.7 -266.5 L-460.6 -266.1 L-461.5 -265.8 L-462.4 -265.4 L-463.4 -265 L-464.3 -264.6 L-465.2 -264.2 L-466.1 -263.8 L-467 -263.5 L-467.9 -263.1 L-468.8 -262.7 L-469.7 -262.3 L-470.6 -261.9 L-471.5 -261.5 L-472.4 -261.2 L-473.3 -260.8 L-474.2 -260.4 L-475.1 -260 L-476 -259.6 L-476.9 -259.2 L-477.8 -258.9 L-478.7 -258.5 L-479.6 -258.1 L-480.5 -257.7 L-480.9 -258.6 L-481.3 -259.5 L-481.7 -260.4 L-482.1 -261.3 L-482.5 -262.2 L-482.8 -263.1 L-483.2 -264 L-483.6 -264.9 L-484 -265.8 L-484.4 -266.7 L-484.8 -267.7 L-485.1 -268.6 L-485.5 -269.5 L-485.9 -270.4 L-486.3 -271.3 L-486.7 -272.2 L-487 -273.1 L-487.4 -274 L-487.8 -274.9 L-488.2 -275.8 L-488.6 -276.7 L-489 -277.6 L-489.3 -278.5 L-489.7 -279.4 L-490.1 -280.3 L-489.2 -280.7 L-488.3 -281.1 L-487.4 -281.5 L-486.5 -281.8 L-485.6 -282.2 L-484.7 -282.6 L-483.8 -283 L-482.9 -283.4 L-482 -283.8 L-481.1 -284.1 L-480.2 -284.5 L-479.3 -284.9 L-478.4 -285.3 L-477.5 -285.7 L-476.6 -286.1 L-475.6 -286.4 L-474.7 -286.8 L-473.8 -287.2 L-472.9 -287.6 L-472 -288 L-471.1 -288.4 L-470.2 -288.7 L-469.3 -289.1 L-468.4 -289.5 L-467.5 -289.9 Z " />
<path stroke="rgb(0,0,0)" stroke-opacity="1" fill="rgb(255,255,255)" fill-opacity="1" d="M200.5 287.8 L201.4 287.8 L202.4 288 L203.4 288.2 L204.3 288.5 L205.2 288.8 L206.1 289.2 L207 289.7 L207.8 290.3 L208.5 290.9 L209.2 291.6 L209.9 292.3 L210.5 293.1 L211 294 L211.5 294.8 L211.9 295.7 L212.2 296.7 L212.4 297.6 L212.6 298.6 L212.7 299.6 L212.7 300.6 L212.6 301.5 L212.5 302.5 L212.2 303.5 L211.9 304.4 L211.6 305.3 L211.1 306.2 L210.6 307 L210 307.8 L209.4 308.6 L208.7 309.3 L207.9 309.9 L207.1 310.5 L206.3 311 L205.4 311.4 L204.5 311.8 L203.6 312.1 L202.6 312.3 L201.6 312.4 L200.6 312.5 L199.7 312.5 L198.7 312.4 L197.7 312.2 L196.8 312 L195.8 311.7 L194.9 311.3 L194.1 310.8 L193.2 310.3 L192.5 309.7 L191.7 309 L191 308.3 L190.4 307.6 L189.9 306.8 L189.4 305.9 L188.9 305 L188.6 304.1 L188.3 303.2 L188.1 302.2 L188 301.2 L187.9 300.2 L188 299.3 L188.1 298.3 L188.3 297.3 L188.5 296.4 L188.9 295.5 L189.3 294.6 L189.8 293.7 L190.3 292.9 L190.9 292.1 L191.6 291.4 L192.3 290.7 L193.1 290.1 L193.9 289.6 L194.8 289.1 L195.7 288.7 L196.6 288.4 L197.5 288.1 L198.5 287.9 L199.5 287.8 L200.5 287.8 Z " />
<path stroke="rgb(0,0,0)" stroke-opacity="1" fill="rgb(255,255,255)" fill-opacity="1" d="M-248.1 -264.8 L-247.4 -264.2 L-246.7 -263.5 L-246 -262.8 L-245.3 -262.1 L-244.6 -261.5 L-243.9 -260.8 L-243.1 -260.1 L-242.4 -259.4 L-241.7 -258.8 L-241 -258.1 L-240.3 -257.4 L-239.6 -256.7 L-238.9 -256.1 L-238.1 -255.4 L-237.4 -254.7 L-236.7 -254 L-236 -253.4 L-235.3 -252.7 L-234.6 -252 L-233.9 -251.3 L-233.1 -250.7 L-232.4 -250 L-231.7 -249.3 L-231 -248.7 L-230.3 -248 L-231 -247.3 L-231.6 -246.5 L-232.3 -245.8 L-233 -245.1 L-233.7 -244.4 L-234.3 -243.7 L-235 -243 L-235.7 -242.3 L-236.4 -241.5 L-237 -240.8 L-237.7 -240.1 L-238.4 -239.4 L-239.1 -238.7 L-239.7 -238 L-240.4 -237.3 L-241.1 -236.5 L-241.8 -235.8 L-242.4 -235.1 L-243.1 -234.4 L-243.8 -233.7 L-244.5 -233 L-245.1 -232.3 L-245.8 -231.5 L-246.5 -230.8 L-247.1 -230.1 L-247.9 -230.8 L-248.6 -231.5 L-249.3 -232.1 L-250 -232.8 L-250.7 -233.5 L-251.4 -234.2 L-252.1 -234.8 L-252.9 -235.5 L-253.6 -236.2 L-254.3 -236.9 L-255 -237.5 L-255.7 -238.2 L-256.4 -238.9 L-257.1 -239.6 L-257.9 -240.2 L-258.6 -240.9 L-259.3 -241.6 L-260 -242.3 L-260.7 -242.9 L-261.4 -243.6 L-262.1 -244.3 L-262.9 -245 L-263.6 -245.6 L-264.3 -246.3 L-265 -247 L-264.3 -247.7 L-263.7 -248.4 L-263 -249.1 L-262.3 -249.8 L-261.6 -250.6 L-261 -251.3 L-260.3 -252 L-259.6 -252.7 L-258.9 -253.4 L-258.3 -254.1 L-257.6 -254.8 L-256.9 -255.6 L-256.2 -256.3 L-255.6 -257 L-254.9 -257.7 L-254.2 -258.4 L-253.5 -259.1 L-252.9 -259.8 L-252.2 -260.6 L-251.5 -261.3 L-250.8 -262 L-250.2 -262.7 L-249.5 -263.4 L-248.8 -264.1 L-248.1 -264.8 Z " />
</g>
</g>
</svg>
