<!DOCTYPE svg>
<svg xmlns="http://www.w3.org/2000/svg" xmlns:xlink="http://www.w3.org/1999/xlink" width="560" height="560">
<g transform="translate(280.000000,280.000000)">
<g transform="scale(3.000000,3.000000)">
<path stroke="rgb(0,0,0)" stroke-opacity="1" fill="rgb(255,255,255)" fill-opacity="1" d="M-887.9 -912.2 L-888 -911.2 L-888 -910.2 L-888 -909.2 L-888 -908.3 L-888 -907.3 L-888 -906.3 L-888 -905.3 L-888 -904.4 L-888.1 -903.4 L-888.1 -902.4 L-888.1 -901.4 L-888.1 -900.4 L-888.1 -899.5 L-888.1 -898.5 L-888.1 -897.5 L-888.2 -896.5 L-888.2 -895.5 L-888.2 -894.6 L-888.2 -893.6 L-888.2 -892.6 L-888.2 -891.6 L-888.2 -890.6 L-888.3 -889.7 L-888.3 -888.7 L-888.3 -887.7 L-889.3 -887.7 L-890.2 -887.7 L-891.2 -887.7 L-892.2 -887.8 L-893.2 -887.8 L-894.2 -887.8 L-895.1 -887.8 L-896.1 -887.8 L-897.1 -887.8 L-898.1 -887.8 L-899.1 -887.8 L-900 -887.9 L-901 -887.9 L-902 -887.9 L-903 -887.9 L-904 -887.9 L-904.9 -887.9 L-905.9 -887.9 L-906.9 -888 L-907.9 -888 L-908.9 -888 L-909.8 -888 L-910.8 -888 L-911.8 -888 L-912.8 -888 L-912.8 -889 L-912.7 -890 L-912.7 -891 L-912.7 -892 L-912.7 -892.9 L-912.7 -893.9 L-912.7 -894.9 L-912.7 -895.9 L-912.7 -896.9 L-912.6 -897.8 L-912.6 -898.8 L-912.6 -899.8 L-912.6 -900.8 L-912.6 -901.8 L-912.6 -902.7 L-912.6 -903.7 L-912.5 -904.7 L-912.5 -905.7 L-912.5 -906.7 L-912.5 -907.6 L-912.5 -908.6 L-912.5 -909.6 L-912.5 -910.6 L-912.4 -911.6 L-912.4 -912.5 L-911.5 -912.5 L-910.5 -912.5 L-909.5 -912.5 L-908.5 -912.5 L-907.5 -912.5 L-906.6 -912.5 L-905.6 -912.4 L-904.6 -912.4 L-903.6 -912.4 L-902.6 -912.4 L-901.7 -912.4 L-900.7 -912.4 L-899.7 -912.4 L-898.7 -912.3 L-897.7 -912.3 L-896.8 -912.3 L-895.8 -912.3 L-894.8 -912.3 L-893.8 -912.3 L-892.8 -912.3 L-891.9 -912.2 L-890.9 -912.2 L-889.9 -912.2 L-888.9 -912.2 L-887.9 -912.2 Z " />
<path stroke="rgb(0,0,0)" stroke-opacity="1" fill="rgb(255,255,255)" fill-opacity="1" d="M-200.5 -314.7 L-201.3 -312.9 L-202.2 -311.2 L-203.3 -309.6 L-204.5 -308 L-205.8 -306.5 L-207.2 -305.2 L-208.7 -304 L-210.3 -302.8 L-212 -301.9 L-213.8 -301 L-215.6 -300.3 L-217.5 -299.8 L-219.4 -299.4 L-221.3 -299.1 L-223.3 -299 L-225.3 -299.1 L-227.2 -299.3 L-229.1 -299.7 L-231 -300.2 L-232.8 -300.9 L-234.6 -301.7 L-236.3 -302.6 L-238 -303.7 L-239.5 -304.9 L-240.9 -306.3 L-242.3 -307.7 L-243.5 -309.2 L-244.6 -310.9 L-245.5 -312.6 L-246.3 -314.4 L-247 -316.2 L-247.5 -318.1 L-247.9 -320 L-248.1 -322 L-248.1 -323.9 L-248 -325.9 L-247.8 -327.8 L-247.4 -329.7 L-246.8 -331.6 L-246.1 -333.4 L-245.2 -335.2 L-244.3 -336.9 L-243.1 -338.5 L-241.9 -340 L-240.5 -341.4 L-239.1 -342.7 L-237.5 -343.9 L-235.8 -344.9 L-234.1 -345.9 L-232.3 -346.6 L-230.5 -347.3 L-228.6 -347.7 L-226.6 -348.1 L-224.7 -348.2 L-222.7 -348.2 L-220.8 -348.1 L-218.8 -347.8 L-216.9 -347.4 L-215.1 -346.8 L-213.3 -346 L-211.5 -345.1 L-209.8 -344.1 L-208.3 -343 L-206.8 -341.7 L-205.4 -340.3 L-204.1 -338.8 L-203 -337.2 L-202 -335.6 L-201.1 -333.8 L-200.3 -332 L-199.7 -330.1 L-199.3 -328.2 L-199 -326.3 L-198.9 -324.3 L-198.9 -322.4 L-199.1 -320.4 L-199.4 -318.5 L-199.9 -316.6 L-200.5 -314.7 Z " />
<path stroke="rgb(0,0,0)" stroke-opacity="1" fill="rgb(255,255,255)" fill-opacity="1" d="M-687.9 -912.2 L-688 -911.2 L-688 -910.2 L-688 -909.2 L-688 -908.3 L-688 -907.3 L-688 -906.3 L-688 -905.3 L-688 -904.4 L-688.1 -903.4 L-688.1 -902.4 L-688.1 -901.4 L-688.1 -900.4 L-688.1 -899.5 L-688.1 -898.5 L-688.1 -897.5 L-688.2 -896.5 L-688.2 -895.5 L-688.2 -894.6 L-688.2 -893.6 L-688.2 -892.6 L-688.2 -891.6 L-688.2 -890.6 L-688.3 -889.7 L-688.3 -888.7 L-688.3 -887.7 L-689.3 -887.7 L-690.2 -887.7 L-691.2 -887.7 L-692.2 -887.8 L-693.2 -887.8 L-694.2 -887.8 L-695.1 -887.8 L-696.1 -887.8 L-697.1 -887.8 L-698.1 -887.8 L-699.1 -887.8 L-700 -887.9 L-701 -887.9 L-702 -887.9 L-703 -887.9 L-704 -887.9 L-704.9 -887.9 L-705.9 -887.9 L-706.9 -888 L-707.9 -888 L-708.9 -888 L-709.8 -888 L-710.8 -888 L-711.8 -888 L-712.8 -888 L-712.8 -889 L-712.7 -890 L-712.7 -891 L-712.7 -892 L-712.7 -892.9 L-712.7 -893.9 L-712.7 -894.9 L-712.7 -895.9 L-712.7 -896.9 L-712.6 -897.8 L-712.6 -898.8 L-712.6 -899.8 L-712.6 -900.8 L-712.6 -901.8 L-712.6 -902.7 L-712.6 -903.7 L-712.5 -904.7 L-712.5 -905.7 L-712.5 -906.7 L-712.5 -907.6 L-712.5 -908.6 L-712.5 -909.6 L-712.5 -910.6 L-712.4 -911.6 L-712.4 -912.5 L-711.5 -912.5 L-710.5 -912.5 L-709.5 -912.5 L-708.5 -912.5 L-707.5 -912.5 L-706.6 -912.5 L-705.6 -912.4 L-704.6 -912.4 L-703.6 -912.4 L-702.6 -912.4 L-701.7 -912.4 L-700.7 -912.4 L-699.7 -912.4 L-698.7 -912.3 L-697.7 -912.3 L-696.8 -912.3 L-695.8 -912.3 L-694.8 -912.3 L-693.8 -912.3 L-692.8 -912.3 L-691.9 -912.2 L-690.9 -912.2 L-689.9 -912.2 L-688.9 -912.2 L-687.9 -912.2 Z " />
<path stroke="rgb(0,0,0)" stroke-opacity="1" fill="rgb(255,255,255)" fill-opacity="1" d="M15.84 -305.3 L15.5 -303.4 L15.01 -301.5 L14.37 -299.6 L13.58 -297.8 L12.65 -296.1 L11.59 -294.5 L10.41 -292.9 L9.099 -291.5 L7.68 -290.1 L6.158 -288.9 L4.542 -287.8 L2.844 -286.8 L1.074 -286 L-0.7567 -285.3 L-2.637 -284.7 L-4.555 -284.3 L-6.498 -284.1 L-8.455 -284 L-10.41 -284.1 L-12.36 -284.3 L-14.28 -284.7 L-16.16 -285.2 L-18 -285.9 L-19.78 -286.7 L-21.49 -287.6 L-23.11 -288.7 L-24.64 -290 L-26.08 -291.3 L-27.4 -292.7 L-28.6 -294.3 L-29.67 -295.9 L-30.61 -297.6 L-31.42 -299.4 L-32.07 -301.3 L-32.58 -303.2 L-32.94 -305.1 L-33.14 -307 L-33.19 -309 L-33.08 -310.9 L-32.82 -312.9 L-32.4 -314.8 L-31.84 -316.7 L-31.12 -318.5 L-30.27 -320.3 L-29.27 -321.9 L-28.15 -323.6 L-26.9 -325.1 L-25.53 -326.5 L-24.06 -327.8 L-22.49 -328.9 L-20.84 -330 L-19.1 -330.9 L-17.3 -331.6 L-15.44 -332.3 L-13.54 -332.7 L-11.61 -333.1 L-9.656 -333.2 L-7.698 -333.2 L-5.745 -333.1 L-3.81 -332.8 L-1.905 -332.3 L-0.04256 -331.7 L1.766 -331 L3.51 -330.1 L5.177 -329.1 L6.757 -327.9 L8.241 -326.6 L9.618 -325.2 L10.88 -323.7 L12.02 -322.1 L13.03 -320.5 L13.9 -318.7 L14.63 -316.9 L15.22 -315 L15.65 -313.1 L15.93 -311.2 L16.06 -309.2 L16.03 -307.3 L15.84 -305.3 Z " />
<path stroke="rgb(0,0,0)" stroke-opacity="1" fill="rgb(255,255,255)" fill-opacity="1" d="M-487.9 -912.2 L-488 -911.2 L-488 -910.2 L-488 -909.2 L-488 -908.3 L-488 -907.3 L-488 -906.3 L-488 -905.3 L-488 -904.4 L-488.1 -903.4 L-488.1 -902.4 L-488.1 -901.4 L-488.1 -900.4 L-488.1 -899.5 L-488.1 -898.5 L-488.1 -897.5 L-488.2 -896.5 L-488.2 -895.5 L-488.2 -894.6 L-488.2 -893.6 L-488.2 -892.6 L-488.2 -891.6 L-488.2 -890.6 L-488.3 -889.7 L-488.3 -888.7 L-488.3 -887.7 L-489.3 -887.7 L-490.2 -887.7 L-491.2 -887.7 L-492.2 -887.8 L-493.2 -887.8 L-494.2 -887.8 L-495.1 -887.8 L-496.1 -887.8 L-497.1 -887.8 L-498.1 -887.8 L-499.1 -887.8 L-500 -887.9 L-501 -887.9 L-502 -887.9 L-503 -887.9 L-504 -887.9 L-504.9 -887.9 L-505.9 -887.9 L-506.9 -888 L-507.9 -888 L-508.9 -888 L-509.8 -888 L-510.8 -888 L-511.8 -888 L-512.8 -888 L-512.8 -889 L-512.7 -890 L-512.7 -891 L-512.7 -892 L-512.7 -892.9 L-512.7 -893.9 L-512.7 -894.9 L-512.7 -895.9 L-512.7 -896.9 L-512.6 -897.8 L-512.6 -898.8 L-512.6 -899.8 L-512.6 -900.8 L-512.6 -901.8 L-512.6 -902.7 L-512.6 -903.7 L-512.5 -904.7 L-512.5 -905.7 L-512.5 -906.7 L-512.5 -907.6 L-512.5 -908.6 L-512.5 -909.6 L-512.5 -910.6 L-512.4 -911.6 L-512.4 -912.5 L-511.5 -912.5 L-510.5 -912.5 L-509.5 -912.5 L-508.5 -912.5 L-507.5 -912.5 L-506.6 -912.5 L-505.6 -912.4 L-504.6 -912.4 L-503.6 -912.4 L-502.6 -912.4 L-501.7 -912.4 L-500.7 -912.4 L-499.7 -912.4 L-498.7 -912.3 L-497.7 -912.3 L-496.8 -912.3 L-495.8 -912.3 L-494.8 -912.3 L-493.8 -912.3 L-492.8 -912.3 L-491.9 -912.2 L-490.9 -912.2 L-489.9 -912.2 L-488.9 -912.2 L-487.9 -912.2 Z " />
<path stroke="rgb(0,0,0)" stroke-opacity="1" fill="rgb(255,255,255)" fill-opacity="1" d="M222.8 -301.1 L222.6 -299.2 L222.3 -297.3 L221.9 -295.3 L221.3 -293.5 L220.6 -291.7 L219.7 -289.9 L218.7 -288.2 L217.5 -286.7 L216.3 -285.2 L214.9 -283.8 L213.4 -282.5 L211.8 -281.4 L210.1 -280.3 L208.4 -279.5 L206.6 -278.7 L204.7 -278.1 L202.8 -277.7 L200.9 -277.4 L198.9 -277.2 L196.9 -277.3 L195 -277.4 L193.1 -277.8 L191.2 -278.2 L189.3 -278.9 L187.5 -279.6 L185.8 -280.6 L184.1 -281.6 L182.6 -282.8 L181.1 -284.1 L179.7 -285.5 L178.5 -287 L177.4 -288.6 L176.4 -290.3 L175.5 -292.1 L174.8 -293.9 L174.3 -295.8 L173.9 -297.7 L173.6 -299.6 L173.5 -301.6 L173.6 -303.6 L173.8 -305.5 L174.2 -307.4 L174.7 -309.3 L175.3 -311.2 L176.2 -312.9 L177.1 -314.7 L178.2 -316.3 L179.4 -317.8 L180.7 -319.3 L182.2 -320.6 L183.7 -321.8 L185.3 -322.9 L187 -323.8 L188.8 -324.7 L190.7 -325.3 L192.6 -325.8 L194.5 -326.2 L196.4 -326.4 L198.4 -326.5 L200.3 -326.4 L202.3 -326.1 L204.2 -325.7 L206.1 -325.2 L207.9 -324.5 L209.7 -323.6 L211.4 -322.7 L213 -321.5 L214.5 -320.3 L215.9 -318.9 L217.2 -317.5 L218.4 -315.9 L219.4 -314.3 L220.4 -312.5 L221.1 -310.7 L221.8 -308.9 L222.2 -307 L222.6 -305.1 L222.8 -303.1 L222.8 -301.1 Z " />
<path stroke="rgb(0,0,0)" stroke-opacity="1" fill="rgb(255,255,255)" fill-opacity="1" d="M-287.9 -912.2 L-288 -911.2 L-288 -910.2 L-288 -909.2 L-288 -908.3 L-288 -907.3 L-288 -906.3 L-288 -905.3 L-288 -904.4 L-288.1 -903.4 L-288.1 -902.4 L-288.1 -901.4 L-288.1 -900.4 L-288.1 -899.5 L-288.1 -898.5 L-288.1 -897.5 L-288.2 -896.5 L-288.2 -895.5 L-288.2 -894.6 L-288.2 -893.6 L-288.2 -892.6 L-288.2 -891.6 L-288.2 -890.6 L-288.3 -889.7 L-288.3 -888.7 L-288.3 -887.7 L-289.3 -887.7 L-290.2 -887.7 L-291.2 -887.7 L-292.2 -887.8 L-293.2 -887.8 L-294.2 -887.8 L-295.1 -887.8 L-296.1 -887.8 L-297.1 -887.8 L-298.1 -887.8 L-299.1 -887.8 L-300 -887.9 L-301 -887.9 L-302 -887.9 L-303 -887.9 L-304 -887.9 L-304.9 -887.9 L-305.9 -887.9 L-306.9 -888 L-307.9 -888 L-308.9 -888 L-309.8 -888 L-310.8 -888 L-311.8 -888 L-312.8 -888 L-312.8 -889 L-312.7 -890 L-312.7 -891 L-312.7 -892 L-312.7 -892.9 L-312.7 -893.9 L-312.7 -894.9 L-312.7 -895.9 L-312.7 -896.9 L-312.6 -897.8 L-312.6 -898.8 L-312.6 -899.8 L-312.6 -900.8 L-312.6 -901.8 L-312.6 -902.7 L-312.6 -903.7 L-312.5 -904.7 L-312.5 -905.7 L-312.5 -906.7 L-312.5 -907.6 L-312.5 -908.6 L-312.5 -909.6 L-312.5 -910.6 L-312.4 -911.6 L-312.4 -912.5 L-311.5 -912.5 L-310.5 -912.5 L-309.5 -912.5 L-308.5 -912.5 L-307.5 -912.5 L-306.6 -912.5 L-305.6 -912.4 L-304.6 -912.4 L-303.6 -912.4 L-302.6 -912.4 L-301.7 -912.4 L-300.7 -912.4 L-299.7 -912.4 L-298.7 -912.3 L-297.7 -912.3 L-296.8 -912.3 L-295.8 -912.3 L-294.8 -912.3 L-293.8 -912.3 L-292.8 -912.3 L-291.9 -912.2 L-290.9 -912.2 L-289.9 -912.2 L-288.9 -912.2 L-287.9 -912.2 Z " />
<path stroke="rgb(0,0,0)" stroke-opacity="1" fill="rgb(255,255,255)" fill-opacity="1" d="M-300.5 -214.7 L-301.3 -212.9 L-302.2 -211.2 L-303.3 -209.6 L-304.5 -208 L-305.8 -206.5 L-307.2 -205.2 L-308.7 -204 L-310.3 -202.8 L-312 -201.9 L-313.8 -201 L-315.6 -200.3 L-317.5 -199.8 L-319.4 -199.4 L-321.3 -199.1 L-323.3 -199 L-325.3 -199.1 L-327.2 -199.3 L-329.1 -199.7 L-331 -200.2 L-332.8 -200.9 L-334.6 -201.7 L-336.3 -202.6 L-338 -203.7 L-339.5 -204.9 L-340.9 -206.3 L-342.3 -207.7 L-343.5 -209.2 L-344.6 -210.9 L-345.5 -212.6 L-346.3 -214.4 L-347 -216.2 L-347.5 -218.1 L-347.9 -220 L-348.1 -222 L-348.1 -223.9 L-348 -225.9 L-347.8 -227.8 L-347.4 -229.7 L-346.8 -231.6 L-346.1 -233.4 L-345.2 -235.2 L-344.3 -236.9 L-343.1 -238.5 L-341.9 -240 L-340.5 -241.4 L-339.1 -242.7 L-337.5 -243.9 L-335.8 -244.9 L-334.1 -245.9 L-332.3 -246.6 L-330.5 -247.3 L-328.6 -247.7 L-326.6 -248.1 L-324.7 -248.2 L-322.7 -248.2 L-320.8 -248.1 L-318.8 -247.8 L-316.9 -247.4 L-315.1 -246.8 L-313.3 -246 L-311.5 -245.1 L-309.8 -244.1 L-308.3 -243 L-306.8 -241.7 L-305.4 -240.3 L-304.1 -238.8 L-303 -237.2 L-302 -235.6 L-301.1 -233.8 L-300.3 -232 L-299.7 -230.1 L-299.3 -228.2 L-299 -226.3 L-298.9 -224.3 L-298.9 -222.4 L-299.1 -220.4 L-299.4 -218.5 L-299.9 -216.6 L-300.5 -214.7 Z " />
<path stroke="rgb(0,0,0)" stroke-opacity="1" fill="rgb(255,255,255)" fill-opacity="1" d="M-787.9 -812.2 L-788 -811.2 L-788 -810.2 L-788 -809.2 L-788 -808.3 L-788 -807.3 L-788 -806.3 L-788 -805.3 L-788 -804.4 L-788.1 -803.4 L-788.1 -802.4 L-788.1 -801.4 L-788.1 -800.4 L-788.1 -799.5 L-788.1 -798.5 L-788.1 -797.5 L-788.2 -796.5 L-788.2 -795.5 L-788.2 -794.6 L-788.2 -793.6 L-788.2 -792.6 L-788.2 -791.6 L-788.2 -790.6 L-788.3 -789.7 L-788.3 -788.7 L-788.3 -787.7 L-789.3 -787.7 L-790.2 -787.7 L-791.2 -787.7 L-792.2 -787.8 L-793.2 -787.8 L-794.2 -787.8 L-795.1 -787.8 L-796.1 -787.8 L-797.1 -787.8 L-798.1 -787.8 L-799.1 -787.8 L-800 -787.9 L-801 -787.9 L-802 -787.9 L-803 -787.9 L-804 -787.9 L-804.9 -787.9 L-805.9 -787.9 L-806.9 -788 L-807.9 -788 L-808.9 -788 L-809.8 -788 L-810.8 -788 L-811.8 -788 L-812.8 -788 L-812.8 -789 L-812.7 -790 L-812.7 -791 L-812.7 -792 L-812.7 -792.9 L-812.7 -793.9 L-812.7 -794.9 L-812.7 -795.9 L-812.7 -796.9 L-812.6 -797.8 L-812.6 -798.8 L-812.6 -799.8 L-812.6 -800.8 L-812.6 -801.8 L-812.6 -802.7 L-812.6 -803.7 L-812.5 -804.7 L-812.5 -805.7 L-812.5 -806.7 L-812.5 -807.6 L-812.5 -808.6 L-812.5 -809.6 L-812.5 -810.6 L-812.4 -811.6 L-812.4 -812.5 L-811.5 -812.5 L-810.5 -812.5 L-809.5 -812.5 L-808.5 -812.5 L-807.5 -812.5 L-806.6 -812.5 L-805.6 -812.4 L-804.6 -812.4 L-803.6 -812.4 L-802.6 -812.4 L-801.7 -812.4 L-800.7 -812.4 L-799.7 -812.4 L-798.7 -812.3 L-797.7 -812.3 L-796.8 -812.3 L-795.8 -812.3 L-794.8 -812.3 L-793.8 -812.3 L-792.8 -812.3 L-791.9 -812.2 L-790.9 -812.2 L-789.9 -812.2 L-788.9 -812.2 L-787.9 -812.2 Z " />
<path stroke="rgb(0,0,0)" stroke-opacity="1" fill="rgb(255,255,255)" fill-opacity="1" d="M-84.16 -205.3 L-84.5 -203.4 L-84.99 -201.5 L-85.63 -199.6 L-86.42 -197.8 L-87.35 -196.1 L-88.41 -194.5 L-89.59 -192.9 L-90.9 -191.5 L-92.32 -190.1 L-93.84 -188.9 L-95.46 -187.8 L-97.16 -186.8 L-98.93 -186 L-100.8 -185.3 L-102.6 -184.7 L-104.6 -184.3 L-106.5 -184.1 L-108.5 -184 L-110.4 -184.1 L-112.4 -184.3 L-114.3 -184.7 L-116.2 -185.2 L-118 -185.9 L-119.8 -186.7 L-121.5 -187.6 L-123.1 -188.7 L-124.6 -190 L-126.1 -191.3 L-127.4 -192.7 L-128.6 -194.3 L-129.7 -195.9 L-130.6 -197.6 L-131.4 -199.4 L-132.1 -201.3 L-132.6 -203.2 L-132.9 -205.1 L-133.1 -207 L-133.2 -209 L-133.1 -210.9 L-132.8 -212.9 L-132.4 -214.8 L-131.8 -216.7 L-131.1 -218.5 L-130.3 -220.3 L-129.3 -221.9 L-128.1 -223.6 L-126.9 -225.1 L-125.5 -226.5 L-124.1 -227.8 L-122.5 -228.9 L-120.8 -230 L-119.1 -230.9 L-117.3 -231.6 L-115.4 -232.3 L-113.5 -232.7 L-111.6 -233.1 L-109.7 -233.2 L-107.7 -233.2 L-105.7 -233.1 L-103.8 -232.8 L-101.9 -232.3 L-100 -231.7 L-98.23 -231 L-96.49 -230.1 L-94.82 -229.1 L-93.24 -227.9 L-91.76 -226.6 L-90.38 -225.2 L-89.12 -223.7 L-87.98 -222.1 L-86.97 -220.5 L-86.1 -218.7 L-85.37 -216.9 L-84.78 -215 L-84.35 -213.1 L-84.07 -211.2 L-83.94 -209.2 L-83.97 -207.3 L-84.16 -205.3 Z " />
<path stroke="rgb(0,0,0)" stroke-opacity="1" fill="rgb(255,255,255)" fill-opacity="1" d="M-587.9 -812.2 L-588 -811.2 L-588 -810.2 L-588 -809.2 L-588 -808.3 L-588 -807.3 L-588 -806.3 L-588 -805.3 L-588 -804.4 L-588.1 -803.4 L-588.1 -802.4 L-588.1 -801.4 L-588.1 -800.4 L-588.1 -799.5 L-588.1 -798.5 L-588.1 -797.5 L-588.2 -796.5 L-588.2 -795.5 L-588.2 -794.6 L-588.2 -793.6 L-588.2 -792.6 L-588.2 -791.6 L-588.2 -790.6 L-588.3 -789.7 L-588.3 -788.7 L-588.3 -787.7 L-589.3 -787.7 L-590.2 -787.7 L-591.2 -787.7 L-592.2 -787.8 L-593.2 -787.8 L-594.2 -787.8 L-595.1 -787.8 L-596.1 -787.8 L-597.1 -787.8 L-598.1 -787.8 L-599.1 -787.8 L-600 -787.9 L-601 -787.9 L-602 -787.9 L-603 -787.9 L-604 -787.9 L-604.9 -787.9 L-605.9 -787.9 L-606.9 -788 L-607.9 -788 L-608.9 -788 L-609.8 -788 L-610.8 -788 L-611.8 -788 L-612.8 -788 L-612.8 -789 L-612.7 -790 L-612.7 -791 L-612.7 -792 L-612.7 -792.9 L-612.7 -793.9 L-612.7 -794.9 L-612.7 -795.9 L-612.7 -796.9 L-612.6 -797.8 L-612.6 -798.8 L-612.6 -799.8 L-612.6 -800.8 L-612.6 -801.8 L-612.6 -802.7 L-612.6 -803.7 L-612.5 -804.7 L-612.5 -805.7 L-612.5 -806.7 L-612.5 -807.6 L-612.5 -808.6 L-612.5 -809.6 L-612.5 -810.6 L-612.4 -811.6 L-612.4 -812.5 L-611.5 -812.5 L-610.5 -812.5 L-609.5 -812.5 L-608.5 -812.5 L-607.5 -812.5 L-606.6 -812.5 L-605.6 -812.4 L-604.6 -812.4 L-603.6 -812.4 L-602.6 -812.4 L-601.7 -812.4 L-600.7 -812.4 L-599.7 -812.4 L-598.7 -812.3 L-597.7 -812.3 L-596.8 -812.3 L-595.8 -812.3 L-594.8 -812.3 L-593.8 -812.3 L-592.8 -812.3 L-591.9 -812.2 L-590.9 -812.2 L-589.9 -812.2 L-588.9 -812.2 L-587.9 -812.2 Z " />
<path stroke="rgb(0,0,0)" stroke-opacity="1" fill="rgb(255,255,255)" fill-opacity="1" d="M122.8 -201.1 L122.6 -199.2 L122.3 -197.3 L121.9 -195.3 L121.3 -193.5 L120.6 -191.7 L119.7 -189.9 L118.7 -188.2 L117.5 -186.7 L116.3 -185.2 L114.9 -183.8 L113.4 -182.5 L111.8 -181.4 L110.1 -180.3 L108.4 -179.5 L106.6 -178.7 L104.7 -178.1 L102.8 -177.7 L100.9 -177.4 L98.91 -177.2 L96.95 -177.3 L95 -177.4 L93.07 -177.8 L91.17 -178.2 L89.31 -178.9 L87.51 -179.6 L85.78 -180.6 L84.13 -181.6 L82.57 -182.8 L81.1 -184.1 L79.74 -185.5 L78.5 -187 L77.38 -188.6 L76.4 -190.3 L75.55 -192.1 L74.84 -193.9 L74.28 -195.8 L73.88 -197.7 L73.62 -199.6 L73.52 -201.6 L73.58 -203.6 L73.79 -205.5 L74.16 -207.4 L74.68 -209.3 L75.34 -211.2 L76.15 -212.9 L77.1 -214.7 L78.19 -216.3 L79.4 -217.8 L80.72 -219.3 L82.16 -220.6 L83.7 -221.8 L85.33 -222.9 L87.04 -223.8 L88.82 -224.7 L90.66 -225.3 L92.55 -225.8 L94.48 -226.2 L96.42 -226.4 L98.38 -226.5 L100.3 -226.4 L102.3 -226.1 L104.2 -225.7 L106.1 -225.2 L107.9 -224.5 L109.7 -223.6 L111.4 -222.7 L113 -221.5 L114.5 -220.3 L115.9 -218.9 L117.2 -217.5 L118.4 -215.9 L119.4 -214.3 L120.4 -212.5 L121.1 -210.7 L121.8 -208.9 L122.2 -207 L122.6 -205.1 L122.8 -203.1 L122.8 -201.1 Z " />
<path stroke="rgb(0,0,0)" stroke-opacity="1" fill="rgb(255,255,255)" fill-opacity="1" d="M-387.9 -812.2 L-388 -811.2 L-388 -810.2 L-388 -809.2 L-388 -808.3 L-388 -807.3 L-388 -806.3 L-388 -805.3 L-388 -804.4 L-388.1 -803.4 L-388.1 -802.4 L-388.1 -801.4 L-388.1 -800.4 L-388.1 -799.5 L-388.1 -798.5 L-388.1 -797.5 L-388.2 -796.5 L-388.2 -795.5 L-388.2 -794.6 L-388.2 -793.6 L-388.2 -792.6 L-388.2 -791.6 L-388.2 -790.6 L-388.3 -789.7 L-388.3 -788.7 L-388.3 -787.7 L-389.3 -787.7 L-390.2 -787.7 L-391.2 -787.7 L-392.2 -787.8 L-393.2 -787.8 L-394.2 -787.8 L-395.1 -787.8 L-396.1 -787.8 L-397.1 -787.8 L-398.1 -787.8 L-399.1 -787.8 L-400 -787.9 L-401 -787.9 L-402 -787.9 L-403 -787.9 L-404 -787.9 L-404.9 -787.9 L-405.9 -787.9 L-406.9 -788 L-407.9 -788 L-408.9 -788 L-409.8 -788 L-410.8 -788 L-411.8 -788 L-412.8 -788 L-412.8 -789 L-412.7 -790 L-412.7 -791 L-412.7 -792 L-412.7 -792.9 L-412.7 -793.9 L-412.7 -794.9 L-412.7 -795.9 L-412.7 -796.9 L-412.6 -797.8 L-412.6 -798.8 L-412.6 -799.8 L-412.6 -800.8 L-412.6 -801.8 L-412.6 -802.7 L-412.6 -803.7 L-412.5 -804.7 L-412.5 -805.7 L-412.5 -806.7 L-412.5 -807.6 L-412.5 -808.6 L-412.5 -809.6 L-412.5 -810.6 L-412.4 -811.6 L-412.4 -812.5 L-411.5 -812.5 L-410.5 -812.5 L-409.5 -812.5 L-408.5 -812.5 L-407.5 -812.5 L-406.6 -812.5 L-405.6 -812.4 L-404.6 -812.4 L-403.6 -812.4 L-402.6 -812.4 L-401.7 -812.4 L-400.7 -812.4 L-399.7 -812.4 L-398.7 -812.3 L-397.7 -812.3 L-396.8 -812.3 L-395.8 -812.3 L-394.8 -812.3 L-393.8 -812.3 L-392.8 -812.3 L-391.9 -812.2 L-390.9 -812.2 L-389.9 -812.2 L-388.9 -812.2 L-387.9 -812.2 Z " />
<path stroke="rgb(0,0,0)" stroke-opacity="1" fill="rgb(255,255,255)" fill-opacity="1" d="M324.6 -200 L324.5 -198.1 L324.3 -196.1 L323.9 -194.2 L323.3 -192.3 L322.6 -190.5 L321.8 -188.7 L320.8 -187 L319.7 -185.4 L318.5 -183.9 L317.2 -182.5 L315.7 -181.1 L314.2 -180 L312.5 -178.9 L310.8 -178 L309 -177.2 L307.1 -176.5 L305.3 -176 L303.3 -175.7 L301.4 -175.5 L299.4 -175.4 L297.5 -175.6 L295.5 -175.8 L293.6 -176.3 L291.7 -176.8 L289.9 -177.6 L288.2 -178.4 L286.5 -179.4 L284.9 -180.6 L283.4 -181.8 L282 -183.2 L280.7 -184.7 L279.5 -186.3 L278.5 -187.9 L277.6 -189.7 L276.9 -191.5 L276.2 -193.3 L275.8 -195.2 L275.5 -197.2 L275.3 -199.1 L275.3 -201.1 L275.5 -203 L275.8 -205 L276.3 -206.9 L276.9 -208.7 L277.6 -210.5 L278.5 -212.3 L279.6 -213.9 L280.7 -215.5 L282 -217 L283.4 -218.3 L284.9 -219.6 L286.5 -220.7 L288.2 -221.7 L290 -222.6 L291.8 -223.3 L293.7 -223.9 L295.6 -224.3 L297.5 -224.6 L299.5 -224.7 L301.4 -224.7 L303.4 -224.5 L305.3 -224.1 L307.2 -223.6 L309 -223 L310.8 -222.2 L312.6 -221.2 L314.2 -220.2 L315.7 -219 L317.2 -217.6 L318.5 -216.2 L319.8 -214.7 L320.9 -213.1 L321.8 -211.4 L322.7 -209.6 L323.3 -207.7 L323.9 -205.9 L324.3 -203.9 L324.5 -202 L324.6 -200 Z " />
<path stroke="rgb(0,0,0)" stroke-opacity="1" fill="rgb(255,255,255)" fill-opacity="1" d="M-887.9 -712.2 L-888 -711.2 L-888 -710.2 L-888 -709.2 L-888 -708.3 L-888 -707.3 L-888 -706.3 L-888 -705.3 L-888 -704.4 L-888.1 -703.4 L-888.1 -702.4 L-888.1 -701.4 L-888.1 -700.4 L-888.1 -699.5 L-888.1 -698.5 L-888.1 -697.5 L-888.2 -696.5 L-888.2 -695.5 L-888.2 -694.6 L-888.2 -693.6 L-888.2 -692.6 L-888.2 -691.6 L-888.2 -690.6 L-888.3 -689.7 L-888.3 -688.7 L-888.3 -687.7 L-889.3 -687.7 L-890.2 -687.7 L-891.2 -687.7 L-892.2 -687.8 L-893.2 -687.8 L-894.2 -687.8 L-895.1 -687.8 L-896.1 -687.8 L-897.1 -687.8 L-898.1 -687.8 L-899.1 -687.8 L-900 -687.9 L-901 -687.9 L-902 -687.9 L-903 -687.9 L-904 -687.9 L-904.9 -687.9 L-905.9 -687.9 L-906.9 -688 L-907.9 -688 L-908.9 -688 L-909.8 -688 L-910.8 -688 L-911.8 -688 L-912.8 -688 L-912.8 -689 L-912.7 -690 L-912.7 -691 L-912.7 -692 L-912.7 -692.9 L-912.7 -693.9 L-912.7 -694.9 L-912.7 -695.9 L-912.7 -696.9 L-912.6 -697.8 L-912.6 -698.8 L-912.6 -699.8 L-912.6 -700.8 L-912.6 -701.8 L-912.6 -702.7 L-912.6 -703.7 L-912.5 -704.7 L-912.5 -705.7 L-912.5 -706.7 L-912.5 -707.6 L-912.5 -708.6 L-912.5 -709.6 L-912.5 -710.6 L-912.4 -711.6 L-912.4 -712.5 L-911.5 -712.5 L-910.5 -712.5 L-909.5 -712.5 L-908.5 -712.5 L-907.5 -712.5 L-906.6 -712.5 L-905.6 -712.4 L-904.6 -712.4 L-903.6 -712.4 L-902.6 -712.4 L-901.7 -712.4 L-900.7 -712.4 L-899.7 -712.4 L-898.7 -712.3 L-897.7 -712.3 L-896.8 -712.3 L-895.8 -712.3 L-894.8 -712.3 L-893.8 -712.3 L-892.8 -712.3 L-891.9 -712.2 L-890.9 -712.2 L-889.9 -712.2 L-888.9 -712.2 L-887.9 -712.2 Z " />
<path stroke="rgb(0,0,0)" stroke-opacity="1" fill="rgb(255,255,255)" fill-opacity="1" d="M-184.2 -105.3 L-184.5 -103.4 L-185 -101.5 L-185.6 -99.63 L-186.4 -97.84 L-187.3 -96.11 L-188.4 -94.47 L-189.6 -92.91 L-190.9 -91.45 L-192.3 -90.1 L-193.8 -88.87 L-195.5 -87.76 L-197.2 -86.79 L-198.9 -85.95 L-200.8 -85.26 L-202.6 -84.71 L-204.6 -84.32 L-206.5 -84.07 L-208.5 -83.99 L-210.4 -84.06 L-212.4 -84.28 L-214.3 -84.66 L-216.2 -85.19 L-218 -85.87 L-219.8 -86.69 L-221.5 -87.65 L-223.1 -88.74 L-224.6 -89.96 L-226.1 -91.29 L-227.4 -92.74 L-228.6 -94.29 L-229.7 -95.92 L-230.6 -97.64 L-231.4 -99.43 L-232.1 -101.3 L-232.6 -103.2 L-232.9 -105.1 L-233.1 -107 L-233.2 -109 L-233.1 -110.9 L-232.8 -112.9 L-232.4 -114.8 L-231.8 -116.7 L-231.1 -118.5 L-230.3 -120.3 L-229.3 -121.9 L-228.1 -123.6 L-226.9 -125.1 L-225.5 -126.5 L-224.1 -127.8 L-222.5 -128.9 L-220.8 -130 L-219.1 -130.9 L-217.3 -131.6 L-215.4 -132.3 L-213.5 -132.7 L-211.6 -133.1 L-209.7 -133.2 L-207.7 -133.2 L-205.7 -133.1 L-203.8 -132.8 L-201.9 -132.3 L-200 -131.7 L-198.2 -131 L-196.5 -130.1 L-194.8 -129.1 L-193.2 -127.9 L-191.8 -126.6 L-190.4 -125.2 L-189.1 -123.7 L-188 -122.1 L-187 -120.5 L-186.1 -118.7 L-185.4 -116.9 L-184.8 -115 L-184.4 -113.1 L-184.1 -111.2 L-183.9 -109.2 L-184 -107.3 L-184.2 -105.3 Z " />
<path stroke="rgb(0,0,0)" stroke-opacity="1" fill="rgb(255,255,255)" fill-opacity="1" d="M-687.9 -712.2 L-688 -711.2 L-688 -710.2 L-688 -709.2 L-688 -708.3 L-688 -707.3 L-688 -706.3 L-688 -705.3 L-688 -704.4 L-688.1 -703.4 L-688.1 -702.4 L-688.1 -701.4 L-688.1 -700.4 L-688.1 -699.5 L-688.1 -698.5 L-688.1 -697.5 L-688.2 -696.5 L-688.2 -695.5 L-688.2 -694.6 L-688.2 -693.6 L-688.2 -692.6 L-688.2 -691.6 L-688.2 -690.6 L-688.3 -689.7 L-688.3 -688.7 L-688.3 -687.7 L-689.3 -687.7 L-690.2 -687.7 L-691.2 -687.7 L-692.2 -687.8 L-693.2 -687.8 L-694.2 -687.8 L-695.1 -687.8 L-696.1 -687.8 L-697.1 -687.8 L-698.1 -687.8 L-699.1 -687.8 L-700 -687.9 L-701 -687.9 L-702 -687.9 L-703 -687.9 L-704 -687.9 L-704.9 -687.9 L-705.9 -687.9 L-706.9 -688 L-707.9 -688 L-708.9 -688 L-709.8 -688 L-710.8 -688 L-711.8 -688 L-712.8 -688 L-712.8 -689 L-712.7 -690 L-712.7 -691 L-712.7 -692 L-712.7 -692.9 L-712.7 -693.9 L-712.7 -694.9 L-712.7 -695.9 L-712.7 -696.9 L-712.6 -697.8 L-712.6 -698.8 L-712.6 -699.8 L-712.6 -700.8 L-712.6 -701.8 L-712.6 -702.7 L-712.6 -703.7 L-712.5 -704.7 L-712.5 -705.7 L-712.5 -706.7 L-712.5 -707.6 L-712.5 -708.6 L-712.5 -709.6 L-712.5 -710.6 L-712.4 -711.6 L-712.4 -712.5 L-711.5 -712.5 L-710.5 -712.5 L-709.5 -712.5 L-708.5 -712.5 L-707.5 -712.5 L-706.6 -712.5 L-705.6 -712.4 L-704.6 -712.4 L-703.6 -712.4 L-702.6 -712.4 L-701.7 -712.4 L-700.7 -712.4 L-699.7 -712.4 L-698.7 -712.3 L-697.7 -712.3 L-696.8 -712.3 L-695.8 -712.3 L-694.8 -712.3 L-693.8 -712.3 L-692.8 -712.3 L-691.9 -712.2 L-690.9 -712.2 L-689.9 -712.2 L-688.9 -712.2 L-687.9 -712.2 Z " />
<path stroke="rgb(0,0,0)" stroke-opacity="1" fill="rgb(255,255,255)" fill-opacity="1" d="M22.77 -101.1 L22.64 -99.19 L22.35 -97.25 L21.91 -95.35 L21.31 -93.48 L20.57 -91.67 L19.69 -89.92 L18.68 -88.24 L17.53 -86.66 L16.26 -85.16 L14.88 -83.78 L13.39 -82.51 L11.8 -81.36 L10.13 -80.34 L8.381 -79.45 L6.569 -78.71 L4.703 -78.12 L2.796 -77.67 L0.8591 -77.38 L-1.094 -77.24 L-3.053 -77.26 L-5.004 -77.43 L-6.934 -77.76 L-8.833 -78.24 L-10.69 -78.87 L-12.49 -79.65 L-14.22 -80.56 L-15.87 -81.61 L-17.43 -82.79 L-18.9 -84.09 L-20.26 -85.5 L-21.5 -87.01 L-22.62 -88.62 L-23.6 -90.32 L-24.45 -92.08 L-25.16 -93.91 L-25.72 -95.78 L-26.12 -97.7 L-26.38 -99.64 L-26.48 -101.6 L-26.42 -103.6 L-26.21 -105.5 L-25.84 -107.4 L-25.32 -109.3 L-24.66 -111.2 L-23.85 -112.9 L-22.9 -114.7 L-21.81 -116.3 L-20.6 -117.8 L-19.28 -119.3 L-17.84 -120.6 L-16.3 -121.8 L-14.67 -122.9 L-12.96 -123.8 L-11.18 -124.7 L-9.336 -125.3 L-7.448 -125.8 L-5.524 -126.2 L-3.578 -126.4 L-1.62 -126.5 L0.3357 -126.4 L2.278 -126.1 L4.194 -125.7 L6.072 -125.2 L7.9 -124.5 L9.667 -123.6 L11.36 -122.7 L12.97 -121.5 L14.49 -120.3 L15.9 -118.9 L17.2 -117.5 L18.38 -115.9 L19.43 -114.3 L20.35 -112.5 L21.13 -110.7 L21.76 -108.9 L22.24 -107 L22.58 -105.1 L22.75 -103.1 L22.77 -101.1 Z " />
<path stroke="rgb(0,0,0)" stroke-opacity="1" fill="rgb(255,255,255)" fill-opacity="1" d="M-487.9 -712.2 L-488 -711.2 L-488 -710.2 L-488 -709.2 L-488 -708.3 L-488 -707.3 L-488 -706.3 L-488 -705.3 L-488 -704.4 L-488.1 -703.4 L-488.1 -702.4 L-488.1 -701.4 L-488.1 -700.4 L-488.1 -699.5 L-488.1 -698.5 L-488.1 -697.5 L-488.2 -696.5 L-488.2 -695.5 L-488.2 -694.6 L-488.2 -693.6 L-488.2 -692.6 L-488.2 -691.6 L-488.2 -690.6 L-488.3 -689.7 L-488.3 -688.7 L-488.3 -687.7 L-489.3 -687.7 L-490.2 -687.7 L-491.2 -687.7 L-492.2 -687.8 L-493.2 -687.8 L-494.2 -687.8 L-495.1 -687.8 L-496.1 -687.8 L-497.1 -687.8 L-498.1 -687.8 L-499.1 -687.8 L-500 -687.9 L-501 -687.9 L-502 -687.9 L-503 -687.9 L-504 -687.9 L-504.9 -687.9 L-505.9 -687.9 L-506.9 -688 L-507.9 -688 L-508.9 -688 L-509.8 -688 L-510.8 -688 L-511.8 -688 L-512.8 -688 L-512.8 -689 L-512.7 -690 L-512.7 -691 L-512.7 -692 L-512.7 -692.9 L-512.7 -693.9 L-512.7 -694.9 L-512.7 -695.9 L-512.7 -696.9 L-512.6 -697.8 L-512.6 -698.8 L-512.6 -699.8 L-512.6 -700.8 L-512.6 -701.8 L-512.6 -702.7 L-512.6 -703.7 L-512.5 -704.7 L-512.5 -705.7 L-512.5 -706.7 L-512.5 -707.6 L-512.5 -708.6 L-512.5 -709.6 L-512.5 -710.6 L-512.4 -711.6 L-512.4 -712.5 L-511.5 -712.5 L-510.5 -712.5 L-509.5 -712.5 L-508.5 -712.5 L-507.5 -712.5 L-506.6 -712.5 L-505.6 -712.4 L-504.6 -712.4 L-503.6 -712.4 L-502.6 -712.4 L-501.7 -712.4 L-500.7 -712.4 L-499.7 -712.4 L-498.7 -712.3 L-497.7 -712.3 L-496.8 -712.3 L-495.8 -712.3 L-494.8 -712.3 L-493.8 -712.3 L-492.8 -712.3 L-491.9 -712.2 L-490.9 -712.2 L-489.9 -712.2 L-488.9 -712.2 L-487.9 -712.2 Z " />
<path stroke="rgb(0,0,0)" stroke-opacity="1" fill="rgb(255,255,255)" fill-opacity="1" d="M224.6 -100 L224.5 -98.09 L224.3 -96.14 L223.9 -94.22 L223.3 -92.34 L222.6 -90.51 L221.8 -88.73 L220.8 -87.03 L219.7 -85.41 L218.5 -83.89 L217.2 -82.46 L215.7 -81.15 L214.2 -79.96 L212.5 -78.89 L210.8 -77.96 L209 -77.16 L207.1 -76.52 L205.3 -76.02 L203.3 -75.67 L201.4 -75.48 L199.4 -75.44 L197.5 -75.56 L195.5 -75.84 L193.6 -76.26 L191.7 -76.84 L189.9 -77.56 L188.2 -78.43 L186.5 -79.43 L184.9 -80.57 L183.4 -81.83 L182 -83.2 L180.7 -84.68 L179.5 -86.25 L178.5 -87.92 L177.6 -89.66 L176.9 -91.47 L176.2 -93.33 L175.8 -95.23 L175.5 -97.16 L175.3 -99.12 L175.3 -101.1 L175.5 -103 L175.8 -105 L176.3 -106.9 L176.9 -108.7 L177.6 -110.5 L178.5 -112.3 L179.6 -113.9 L180.7 -115.5 L182 -117 L183.4 -118.3 L184.9 -119.6 L186.5 -120.7 L188.2 -121.7 L190 -122.6 L191.8 -123.3 L193.7 -123.9 L195.6 -124.3 L197.5 -124.6 L199.5 -124.7 L201.4 -124.7 L203.4 -124.5 L205.3 -124.1 L207.2 -123.6 L209 -123 L210.8 -122.2 L212.6 -121.2 L214.2 -120.2 L215.7 -119 L217.2 -117.6 L218.5 -116.2 L219.8 -114.7 L220.9 -113.1 L221.8 -111.4 L222.7 -109.6 L223.3 -107.7 L223.9 -105.9 L224.3 -103.9 L224.5 -102 L224.6 -100 Z " />
<path stroke="rgb(0,0,0)" stroke-opacity="1" fill="rgb(255,255,255)" fill-opacity="1" d="M-287.9 -712.2 L-287.9 -711.2 L-287.9 -710.2 L-287.9 -709.2 L-287.9 -708.2 L-288 -707.2 L-288 -706.3 L-288 -705.3 L-288 -704.3 L-288 -703.3 L-288 -702.3 L-288.1 -701.4 L-288.1 -700.4 L-288.1 -699.4 L-288.1 -698.4 L-288.1 -697.4 L-288.2 -696.5 L-288.2 -695.5 L-288.2 -694.5 L-288.2 -693.5 L-288.2 -692.5 L-288.2 -691.5 L-288.3 -690.6 L-288.3 -689.6 L-288.3 -688.6 L-288.3 -687.6 L-289.3 -687.6 L-290.3 -687.7 L-291.3 -687.7 L-292.2 -687.7 L-293.2 -687.7 L-294.2 -687.7 L-295.2 -687.7 L-296.2 -687.8 L-297.2 -687.8 L-298.1 -687.8 L-299.1 -687.8 L-300.1 -687.8 L-301.1 -687.9 L-302.1 -687.9 L-303 -687.9 L-304 -687.9 L-305 -687.9 L-306 -687.9 L-307 -688 L-308 -688 L-308.9 -688 L-309.9 -688 L-310.9 -688 L-311.9 -688.1 L-312.9 -688.1 L-312.8 -689.1 L-312.8 -690 L-312.8 -691 L-312.8 -692 L-312.8 -693 L-312.7 -694 L-312.7 -694.9 L-312.7 -695.9 L-312.7 -696.9 L-312.7 -697.9 L-312.7 -698.9 L-312.6 -699.9 L-312.6 -700.8 L-312.6 -701.8 L-312.6 -702.8 L-312.6 -703.8 L-312.5 -704.8 L-312.5 -705.7 L-312.5 -706.7 L-312.5 -707.7 L-312.5 -708.7 L-312.5 -709.7 L-312.4 -710.7 L-312.4 -711.6 L-312.4 -712.6 L-311.4 -712.6 L-310.4 -712.6 L-309.5 -712.6 L-308.5 -712.5 L-307.5 -712.5 L-306.5 -712.5 L-305.5 -712.5 L-304.5 -712.5 L-303.6 -712.5 L-302.6 -712.4 L-301.6 -712.4 L-300.6 -712.4 L-299.6 -712.4 L-298.7 -712.4 L-297.7 -712.3 L-296.7 -712.3 L-295.7 -712.3 L-294.7 -712.3 L-293.7 -712.3 L-292.8 -712.2 L-291.8 -712.2 L-290.8 -712.2 L-289.8 -712.2 L-288.8 -712.2 L-287.9 -712.2 Z " />
<path stroke="rgb(0,0,0)" stroke-opacity="1" fill="rgb(255,255,255)" fill-opacity="1" d="M-284.2 -5.308 L-284.5 -3.379 L-285 -1.484 L-285.6 0.3664 L-286.4 2.16 L-287.3 3.885 L-288.4 5.532 L-289.6 7.089 L-290.9 8.547 L-292.3 9.896 L-293.8 11.13 L-295.5 12.24 L-297.2 13.21 L-298.9 14.05 L-300.8 14.74 L-302.6 15.29 L-304.6 15.68 L-306.5 15.93 L-308.5 16.01 L-310.4 15.94 L-312.4 15.72 L-314.3 15.34 L-316.2 14.81 L-318 14.13 L-319.8 13.31 L-321.5 12.35 L-323.1 11.26 L-324.6 10.04 L-326.1 8.705 L-327.4 7.26 L-328.6 5.713 L-329.7 4.077 L-330.6 2.359 L-331.4 0.5731 L-332.1 -1.271 L-332.6 -3.162 L-332.9 -5.088 L-333.1 -7.036 L-333.2 -8.993 L-333.1 -10.95 L-332.8 -12.89 L-332.4 -14.8 L-331.8 -16.68 L-331.1 -18.5 L-330.3 -20.26 L-329.3 -21.95 L-328.1 -23.55 L-326.9 -25.06 L-325.5 -26.46 L-324.1 -27.76 L-322.5 -28.93 L-320.8 -29.97 L-319.1 -30.88 L-317.3 -31.64 L-315.4 -32.26 L-313.5 -32.74 L-311.6 -33.05 L-309.7 -33.22 L-307.7 -33.23 L-305.7 -33.08 L-303.8 -32.78 L-301.9 -32.33 L-300 -31.72 L-298.2 -30.97 L-296.5 -30.08 L-294.8 -29.05 L-293.2 -27.9 L-291.8 -26.62 L-290.4 -25.23 L-289.1 -23.73 L-288 -22.14 L-287 -20.46 L-286.1 -18.7 L-285.4 -16.89 L-284.8 -15.02 L-284.4 -13.11 L-284.1 -11.17 L-283.9 -9.216 L-284 -7.257 L-284.2 -5.308 Z " />
<path stroke="rgb(0,0,0)" stroke-opacity="1" fill="rgb(255,255,255)" fill-opacity="1" d="M-787.9 -612.2 L-788 -611.2 L-788 -610.2 L-788 -609.2 L-788 -608.3 L-788 -607.3 L-788 -606.3 L-788 -605.3 L-788 -604.4 L-788.1 -603.4 L-788.1 -602.4 L-788.1 -601.4 L-788.1 -600.4 L-788.1 -599.5 L-788.1 -598.5 L-788.1 -597.5 L-788.2 -596.5 L-788.2 -595.5 L-788.2 -594.6 L-788.2 -593.6 L-788.2 -592.6 L-788.2 -591.6 L-788.2 -590.6 L-788.3 -589.7 L-788.3 -588.7 L-788.3 -587.7 L-789.3 -587.7 L-790.2 -587.7 L-791.2 -587.7 L-792.2 -587.8 L-793.2 -587.8 L-794.2 -587.8 L-795.1 -587.8 L-796.1 -587.8 L-797.1 -587.8 L-798.1 -587.8 L-799.1 -587.8 L-800 -587.9 L-801 -587.9 L-802 -587.9 L-803 -587.9 L-804 -587.9 L-804.9 -587.9 L-805.9 -587.9 L-806.9 -588 L-807.9 -588 L-808.9 -588 L-809.8 -588 L-810.8 -588 L-811.8 -588 L-812.8 -588 L-812.8 -589 L-812.7 -590 L-812.7 -591 L-812.7 -592 L-812.7 -592.9 L-812.7 -593.9 L-812.7 -594.9 L-812.7 -595.9 L-812.7 -596.9 L-812.6 -597.8 L-812.6 -598.8 L-812.6 -599.8 L-812.6 -600.8 L-812.6 -601.8 L-812.6 -602.7 L-812.6 -603.7 L-812.5 -604.7 L-812.5 -605.7 L-812.5 -606.7 L-812.5 -607.6 L-812.5 -608.6 L-812.5 -609.6 L-812.5 -610.6 L-812.4 -611.6 L-812.4 -612.5 L-811.5 -612.5 L-810.5 -612.5 L-809.5 -612.5 L-808.5 -612.5 L-807.5 -612.5 L-806.6 -612.5 L-805.6 -612.4 L-804.6 -612.4 L-803.6 -612.4 L-802.6 -612.4 L-801.7 -612.4 L-800.7 -612.4 L-799.7 -612.4 L-798.7 -612.3 L-797.7 -612.3 L-796.8 -612.3 L-795.8 -612.3 L-794.8 -612.3 L-793.8 -612.3 L-792.8 -612.3 L-791.9 -612.2 L-790.9 -612.2 L-789.9 -612.2 L-788.9 -612.2 L-787.9 -612.2 Z " />
<path stroke="rgb(0,0,0)" stroke-opacity="1" fill="rgb(255,255,255)" fill-opacity="1" d="M-77.23 -1.144 L-77.36 0.8094 L-77.65 2.746 L-78.09 4.654 L-78.69 6.521 L-79.43 8.334 L-80.31 10.08 L-81.32 11.76 L-82.47 13.34 L-83.74 14.84 L-85.12 16.22 L-86.61 17.49 L-88.2 18.64 L-89.87 19.66 L-91.62 20.55 L-93.43 21.29 L-95.3 21.88 L-97.2 22.33 L-99.14 22.62 L-101.1 22.76 L-103.1 22.74 L-105 22.57 L-106.9 22.24 L-108.8 21.76 L-110.7 21.13 L-112.5 20.35 L-114.2 19.44 L-115.9 18.39 L-117.4 17.21 L-118.9 15.91 L-120.3 14.5 L-121.5 12.99 L-122.6 11.38 L-123.6 9.685 L-124.5 7.92 L-125.2 6.093 L-125.7 4.216 L-126.1 2.3 L-126.4 0.3582 L-126.5 -1.598 L-126.4 -3.555 L-126.2 -5.502 L-125.8 -7.426 L-125.3 -9.315 L-124.7 -11.16 L-123.8 -12.94 L-122.9 -14.65 L-121.8 -16.28 L-120.6 -17.82 L-119.3 -19.26 L-117.8 -20.59 L-116.3 -21.81 L-114.7 -22.89 L-113 -23.84 L-111.2 -24.66 L-109.3 -25.33 L-107.4 -25.85 L-105.5 -26.22 L-103.6 -26.43 L-101.6 -26.49 L-99.66 -26.39 L-97.72 -26.14 L-95.81 -25.74 L-93.93 -25.18 L-92.1 -24.48 L-90.33 -23.63 L-88.64 -22.65 L-87.03 -21.54 L-85.51 -20.3 L-84.1 -18.94 L-82.8 -17.48 L-81.62 -15.91 L-80.57 -14.26 L-79.65 -12.53 L-78.87 -10.73 L-78.24 -8.881 L-77.76 -6.984 L-77.42 -5.053 L-77.25 -3.103 L-77.23 -1.144 Z " />
<path stroke="rgb(0,0,0)" stroke-opacity="1" fill="rgb(255,255,255)" fill-opacity="1" d="M-587.9 -612.2 L-588 -611.2 L-588 -610.2 L-588 -609.2 L-588 -608.3 L-588 -607.3 L-588 -606.3 L-588 -605.3 L-588 -604.4 L-588.1 -603.4 L-588.1 -602.4 L-588.1 -601.4 L-588.1 -600.4 L-588.1 -599.5 L-588.1 -598.5 L-588.1 -597.5 L-588.2 -596.5 L-588.2 -595.5 L-588.2 -594.6 L-588.2 -593.6 L-588.2 -592.6 L-588.2 -591.6 L-588.2 -590.6 L-588.3 -589.7 L-588.3 -588.7 L-588.3 -587.7 L-589.3 -587.7 L-590.2 -587.7 L-591.2 -587.7 L-592.2 -587.8 L-593.2 -587.8 L-594.2 -587.8 L-595.1 -587.8 L-596.1 -587.8 L-597.1 -587.8 L-598.1 -587.8 L-599.1 -587.8 L-600 -587.9 L-601 -587.9 L-602 -587.9 L-603 -587.9 L-604 -587.9 L-604.9 -587.9 L-605.9 -587.9 L-606.9 -588 L-607.9 -588 L-608.9 -588 L-609.8 -588 L-610.8 -588 L-611.8 -588 L-612.8 -588 L-612.8 -589 L-612.7 -590 L-612.7 -591 L-612.7 -592 L-612.7 -592.9 L-612.7 -593.9 L-612.7 -594.9 L-612.7 -595.9 L-612.7 -596.9 L-612.6 -597.8 L-612.6 -598.8 L-612.6 -599.8 L-612.6 -600.8 L-612.6 -601.8 L-612.6 -602.7 L-612.6 -603.7 L-612.5 -604.7 L-612.5 -605.7 L-612.5 -606.7 L-612.5 -607.6 L-612.5 -608.6 L-612.5 -609.6 L-612.5 -610.6 L-612.4 -611.6 L-612.4 -612.5 L-611.5 -612.5 L-610.5 -612.5 L-609.5 -612.5 L-608.5 -612.5 L-607.5 -612.5 L-606.6 -612.5 L-605.6 -612.4 L-604.6 -612.4 L-603.6 -612.4 L-602.6 -612.4 L-601.7 -612.4 L-600.7 -612.4 L-599.7 -612.4 L-598.7 -612.3 L-597.7 -612.3 L-596.8 -612.3 L-595.8 -612.3 L-594.8 -612.3 L-593.8 -612.3 L-592.8 -612.3 L-591.9 -612.2 L-590.9 -612.2 L-589.9 -612.2 L-588.9 -612.2 L-587.9 -612.2 Z " />
<path stroke="rgb(0,0,0)" stroke-opacity="1" fill="rgb(255,255,255)" fill-opacity="1" d="M124.6 -0.04238 L124.5 1.914 L124.3 3.859 L123.9 5.778 L123.3 7.661 L122.6 9.494 L121.8 11.27 L120.8 12.97 L119.7 14.59 L118.5 16.11 L117.2 17.54 L115.7 18.85 L114.2 20.04 L112.5 21.11 L110.8 22.04 L109 22.84 L107.1 23.48 L105.3 23.98 L103.3 24.33 L101.4 24.52 L99.42 24.56 L97.46 24.44 L95.53 24.16 L93.61 23.74 L91.74 23.16 L89.92 22.44 L88.17 21.57 L86.49 20.57 L84.89 19.43 L83.39 18.17 L81.99 16.8 L80.71 15.32 L79.54 13.75 L78.51 12.08 L77.61 10.34 L76.86 8.535 L76.25 6.674 L75.79 4.77 L75.48 2.836 L75.32 0.8838 L75.33 -1.075 L75.48 -3.027 L75.8 -4.96 L76.26 -6.863 L76.88 -8.722 L77.64 -10.53 L78.54 -12.27 L79.57 -13.93 L80.74 -15.5 L82.03 -16.98 L83.43 -18.35 L84.93 -19.6 L86.53 -20.73 L88.21 -21.73 L89.97 -22.59 L91.79 -23.31 L93.67 -23.89 L95.58 -24.31 L97.52 -24.58 L99.47 -24.7 L101.4 -24.65 L103.4 -24.46 L105.3 -24.11 L107.2 -23.6 L109 -22.95 L110.8 -22.16 L112.6 -21.22 L114.2 -20.15 L115.7 -18.96 L117.2 -17.64 L118.5 -16.21 L119.8 -14.68 L120.9 -13.06 L121.8 -11.36 L122.7 -9.583 L123.3 -7.748 L123.9 -5.865 L124.3 -3.944 L124.5 -1.999 L124.6 -0.04238 Z " />
<path stroke="rgb(0,0,0)" stroke-opacity="1" fill="rgb(255,255,255)" fill-opacity="1" d="M-387.9 -612.2 L-387.9 -611.2 L-387.9 -610.2 L-387.9 -609.2 L-387.9 -608.2 L-388 -607.2 L-388 -606.3 L-388 -605.3 L-388 -604.3 L-388 -603.3 L-388 -602.3 L-388.1 -601.4 L-388.1 -600.4 L-388.1 -599.4 L-388.1 -598.4 L-388.1 -597.4 L-388.2 -596.5 L-388.2 -595.5 L-388.2 -594.5 L-388.2 -593.5 L-388.2 -592.5 L-388.2 -591.5 L-388.3 -590.6 L-388.3 -589.6 L-388.3 -588.6 L-388.3 -587.6 L-389.3 -587.6 L-390.3 -587.7 L-391.3 -587.7 L-392.2 -587.7 L-393.2 -587.7 L-394.2 -587.7 L-395.2 -587.7 L-396.2 -587.8 L-397.2 -587.8 L-398.1 -587.8 L-399.1 -587.8 L-400.1 -587.8 L-401.1 -587.9 L-402.1 -587.9 L-403 -587.9 L-404 -587.9 L-405 -587.9 L-406 -587.9 L-407 -588 L-408 -588 L-408.9 -588 L-409.9 -588 L-410.9 -588 L-411.9 -588.1 L-412.9 -588.1 L-412.8 -589.1 L-412.8 -590 L-412.8 -591 L-412.8 -592 L-412.8 -593 L-412.7 -594 L-412.7 -594.9 L-412.7 -595.9 L-412.7 -596.9 L-412.7 -597.9 L-412.7 -598.9 L-412.6 -599.9 L-412.6 -600.8 L-412.6 -601.8 L-412.6 -602.8 L-412.6 -603.8 L-412.5 -604.8 L-412.5 -605.7 L-412.5 -606.7 L-412.5 -607.7 L-412.5 -608.7 L-412.5 -609.7 L-412.4 -610.7 L-412.4 -611.6 L-412.4 -612.6 L-411.4 -612.6 L-410.4 -612.6 L-409.5 -612.6 L-408.5 -612.5 L-407.5 -612.5 L-406.5 -612.5 L-405.5 -612.5 L-404.5 -612.5 L-403.6 -612.5 L-402.6 -612.4 L-401.6 -612.4 L-400.6 -612.4 L-399.6 -612.4 L-398.7 -612.4 L-397.7 -612.3 L-396.7 -612.3 L-395.7 -612.3 L-394.7 -612.3 L-393.7 -612.3 L-392.8 -612.2 L-391.8 -612.2 L-390.8 -612.2 L-389.8 -612.2 L-388.8 -612.2 L-387.9 -612.2 Z " />
<path stroke="rgb(0,0,0)" stroke-opacity="1" fill="rgb(255,255,255)" fill-opacity="1" d="M324.6 -4.011e-10 L324.6 1.957 L324.3 3.902 L323.9 5.821 L323.4 7.705 L322.7 9.539 L321.9 11.31 L320.9 13.02 L319.8 14.64 L318.6 16.16 L317.2 17.59 L315.8 18.9 L314.2 20.1 L312.6 21.17 L310.9 22.1 L309.1 22.89 L307.2 23.54 L305.3 24.04 L303.4 24.39 L301.5 24.59 L299.5 24.63 L297.6 24.51 L295.6 24.24 L293.7 23.81 L291.8 23.24 L290 22.51 L288.3 21.65 L286.6 20.65 L285 19.52 L283.5 18.26 L282.1 16.89 L280.8 15.41 L279.6 13.84 L278.6 12.17 L277.7 10.43 L276.9 8.629 L276.3 6.768 L275.9 4.865 L275.5 2.932 L275.4 0.9792 L275.4 -0.9792 L275.5 -2.932 L275.9 -4.865 L276.3 -6.768 L276.9 -8.629 L277.7 -10.43 L278.6 -12.17 L279.6 -13.84 L280.8 -15.41 L282.1 -16.89 L283.5 -18.26 L285 -19.52 L286.6 -20.65 L288.3 -21.65 L290 -22.51 L291.8 -23.24 L293.7 -23.81 L295.6 -24.24 L297.6 -24.51 L299.5 -24.63 L301.5 -24.59 L303.4 -24.39 L305.3 -24.04 L307.2 -23.54 L309.1 -22.89 L310.9 -22.1 L312.6 -21.17 L314.2 -20.1 L315.8 -18.9 L317.2 -17.59 L318.6 -16.16 L319.8 -14.64 L320.9 -13.02 L321.9 -11.31 L322.7 -9.539 L323.4 -7.705 L323.9 -5.821 L324.3 -3.902 L324.6 -1.957 L324.6 -4.011e-10 Z " />
<path stroke="rgb(0,0,0)" stroke-opacity="1" fill="rgb(255,255,255)" fill-opacity="1" d="M-887.9 -512.2 L-888 -511.2 L-888 -510.2 L-888 -509.2 L-888 -508.3 L-888 -507.3 L-888 -506.3 L-888 -505.3 L-888 -504.4 L-888.1 -503.4 L-888.1 -502.4 L-888.1 -501.4 L-888.1 -500.4 L-888.1 -499.5 L-888.1 -498.5 L-888.1 -497.5 L-888.2 -496.5 L-888.2 -495.5 L-888.2 -494.6 L-888.2 -493.6 L-888.2 -492.6 L-888.2 -491.6 L-888.2 -490.6 L-888.3 -489.7 L-888.3 -488.7 L-888.3 -487.7 L-889.3 -487.7 L-890.2 -487.7 L-891.2 -487.7 L-892.2 -487.8 L-893.2 -487.8 L-894.2 -487.8 L-895.1 -487.8 L-896.1 -487.8 L-897.1 -487.8 L-898.1 -487.8 L-899.1 -487.8 L-900 -487.9 L-901 -487.9 L-902 -487.9 L-903 -487.9 L-904 -487.9 L-904.9 -487.9 L-905.9 -487.9 L-906.9 -488 L-907.9 -488 L-908.9 -488 L-909.8 -488 L-910.8 -488 L-911.8 -488 L-912.8 -488 L-912.8 -489 L-912.7 -490 L-912.7 -491 L-912.7 -492 L-912.7 -492.9 L-912.7 -493.9 L-912.7 -494.9 L-912.7 -495.9 L-912.7 -496.9 L-912.6 -497.8 L-912.6 -498.8 L-912.6 -499.8 L-912.6 -500.8 L-912.6 -501.8 L-912.6 -502.7 L-912.6 -503.7 L-912.5 -504.7 L-912.5 -505.7 L-912.5 -506.7 L-912.5 -507.6 L-912.5 -508.6 L-912.5 -509.6 L-912.5 -510.6 L-912.4 -511.6 L-912.4 -512.5 L-911.5 -512.5 L-910.5 -512.5 L-909.5 -512.5 L-908.5 -512.5 L-907.5 -512.5 L-906.6 -512.5 L-905.6 -512.4 L-904.6 -512.4 L-903.6 -512.4 L-902.6 -512.4 L-901.7 -512.4 L-900.7 -512.4 L-899.7 -512.4 L-898.7 -512.3 L-897.7 -512.3 L-896.8 -512.3 L-895.8 -512.3 L-894.8 -512.3 L-893.8 -512.3 L-892.8 -512.3 L-891.9 -512.2 L-890.9 -512.2 L-889.9 -512.2 L-888.9 -512.2 L-887.9 -512.2 Z " />
<path stroke="rgb(0,0,0)" stroke-opacity="1" fill="rgb(255,255,255)" fill-opacity="1" d="M-177.2 98.86 L-177.4 100.8 L-177.7 102.7 L-178.1 104.7 L-178.7 106.5 L-179.4 108.3 L-180.3 110.1 L-181.3 111.8 L-182.5 113.3 L-183.7 114.8 L-185.1 116.2 L-186.6 117.5 L-188.2 118.6 L-189.9 119.7 L-191.6 120.5 L-193.4 121.3 L-195.3 121.9 L-197.2 122.3 L-199.1 122.6 L-201.1 122.8 L-203.1 122.7 L-205 122.6 L-206.9 122.2 L-208.8 121.8 L-210.7 121.1 L-212.5 120.4 L-214.2 119.4 L-215.9 118.4 L-217.4 117.2 L-218.9 115.9 L-220.3 114.5 L-221.5 113 L-222.6 111.4 L-223.6 109.7 L-224.5 107.9 L-225.2 106.1 L-225.7 104.2 L-226.1 102.3 L-226.4 100.4 L-226.5 98.4 L-226.4 96.44 L-226.2 94.5 L-225.8 92.57 L-225.3 90.69 L-224.7 88.84 L-223.8 87.06 L-222.9 85.35 L-221.8 83.72 L-220.6 82.18 L-219.3 80.74 L-217.8 79.41 L-216.3 78.19 L-214.7 77.11 L-213 76.16 L-211.2 75.34 L-209.3 74.67 L-207.4 74.15 L-205.5 73.78 L-203.6 73.57 L-201.6 73.51 L-199.7 73.61 L-197.7 73.86 L-195.8 74.26 L-193.9 74.82 L-192.1 75.52 L-190.3 76.37 L-188.6 77.35 L-187 78.46 L-185.5 79.7 L-184.1 81.06 L-182.8 82.52 L-181.6 84.09 L-180.6 85.74 L-179.6 87.47 L-178.9 89.27 L-178.2 91.12 L-177.8 93.02 L-177.4 94.95 L-177.2 96.9 L-177.2 98.86 Z " />
<path stroke="rgb(0,0,0)" stroke-opacity="1" fill="rgb(255,255,255)" fill-opacity="1" d="M-687.9 -512.2 L-688 -511.2 L-688 -510.2 L-688 -509.2 L-688 -508.3 L-688 -507.3 L-688 -506.3 L-688 -505.3 L-688 -504.4 L-688.1 -503.4 L-688.1 -502.4 L-688.1 -501.4 L-688.1 -500.4 L-688.1 -499.5 L-688.1 -498.5 L-688.1 -497.5 L-688.2 -496.5 L-688.2 -495.5 L-688.2 -494.6 L-688.2 -493.6 L-688.2 -492.6 L-688.2 -491.6 L-688.2 -490.6 L-688.3 -489.7 L-688.3 -488.7 L-688.3 -487.7 L-689.3 -487.7 L-690.2 -487.7 L-691.2 -487.7 L-692.2 -487.8 L-693.2 -487.8 L-694.2 -487.8 L-695.1 -487.8 L-696.1 -487.8 L-697.1 -487.8 L-698.1 -487.8 L-699.1 -487.8 L-700 -487.9 L-701 -487.9 L-702 -487.9 L-703 -487.9 L-704 -487.9 L-704.9 -487.9 L-705.9 -487.9 L-706.9 -488 L-707.9 -488 L-708.9 -488 L-709.8 -488 L-710.8 -488 L-711.8 -488 L-712.8 -488 L-712.8 -489 L-712.7 -490 L-712.7 -491 L-712.7 -492 L-712.7 -492.9 L-712.7 -493.9 L-712.7 -494.9 L-712.7 -495.9 L-712.7 -496.9 L-712.6 -497.8 L-712.6 -498.8 L-712.6 -499.8 L-712.6 -500.8 L-712.6 -501.8 L-712.6 -502.7 L-712.6 -503.7 L-712.5 -504.7 L-712.5 -505.7 L-712.5 -506.7 L-712.5 -507.6 L-712.5 -508.6 L-712.5 -509.6 L-712.5 -510.6 L-712.4 -511.6 L-712.4 -512.5 L-711.5 -512.5 L-710.5 -512.5 L-709.5 -512.5 L-708.5 -512.5 L-707.5 -512.5 L-706.6 -512.5 L-705.6 -512.4 L-704.6 -512.4 L-703.6 -512.4 L-702.6 -512.4 L-701.7 -512.4 L-700.7 -512.4 L-699.7 -512.4 L-698.7 -512.3 L-697.7 -512.3 L-696.8 -512.3 L-695.8 -512.3 L-694.8 -512.3 L-693.8 -512.3 L-692.8 -512.3 L-691.9 -512.2 L-690.9 -512.2 L-689.9 -512.2 L-688.9 -512.2 L-687.9 -512.2 Z " />
<path stroke="rgb(0,0,0)" stroke-opacity="1" fill="rgb(255,255,255)" fill-opacity="1" d="M24.57 99.96 L24.49 101.9 L24.25 103.9 L23.86 105.8 L23.32 107.7 L22.63 109.5 L21.8 111.3 L20.83 113 L19.73 114.6 L18.5 116.1 L17.16 117.5 L15.71 118.9 L14.15 120 L12.51 121.1 L10.79 122 L8.997 122.8 L7.148 123.5 L5.255 124 L3.327 124.3 L1.378 124.5 L-0.5802 124.6 L-2.535 124.4 L-4.474 124.2 L-6.386 123.7 L-8.257 123.2 L-10.08 122.4 L-11.83 121.6 L-13.51 120.6 L-15.11 119.4 L-16.61 118.2 L-18.01 116.8 L-19.29 115.3 L-20.46 113.7 L-21.49 112.1 L-22.39 110.3 L-23.14 108.5 L-23.75 106.7 L-24.21 104.8 L-24.52 102.8 L-24.68 100.9 L-24.67 98.93 L-24.52 96.97 L-24.2 95.04 L-23.74 93.14 L-23.12 91.28 L-22.36 89.47 L-21.46 87.73 L-20.43 86.07 L-19.26 84.5 L-17.97 83.02 L-16.57 81.65 L-15.07 80.4 L-13.47 79.27 L-11.79 78.27 L-10.03 77.41 L-8.207 76.69 L-6.334 76.11 L-4.422 75.69 L-2.482 75.42 L-0.5272 75.3 L1.431 75.35 L3.38 75.54 L5.306 75.89 L7.199 76.4 L9.046 77.05 L10.84 77.84 L12.56 78.78 L14.2 79.85 L15.75 81.04 L17.2 82.36 L18.54 83.79 L19.76 85.32 L20.86 86.94 L21.83 88.64 L22.66 90.42 L23.34 92.25 L23.88 94.14 L24.26 96.06 L24.49 98 L24.57 99.96 Z " />
<path stroke="rgb(0,0,0)" stroke-opacity="1" fill="rgb(255,255,255)" fill-opacity="1" d="M-487.9 -512.2 L-487.9 -511.2 L-487.9 -510.2 L-487.9 -509.2 L-487.9 -508.2 L-488 -507.2 L-488 -506.3 L-488 -505.3 L-488 -504.3 L-488 -503.3 L-488 -502.3 L-488.1 -501.4 L-488.1 -500.4 L-488.1 -499.4 L-488.1 -498.4 L-488.1 -497.4 L-488.2 -496.5 L-488.2 -495.5 L-488.2 -494.5 L-488.2 -493.5 L-488.2 -492.5 L-488.2 -491.5 L-488.3 -490.6 L-488.3 -489.6 L-488.3 -488.6 L-488.3 -487.6 L-489.3 -487.6 L-490.3 -487.7 L-491.3 -487.7 L-492.2 -487.7 L-493.2 -487.7 L-494.2 -487.7 L-495.2 -487.7 L-496.2 -487.8 L-497.2 -487.8 L-498.1 -487.8 L-499.1 -487.8 L-500.1 -487.8 L-501.1 -487.9 L-502.1 -487.9 L-503 -487.9 L-504 -487.9 L-505 -487.9 L-506 -487.9 L-507 -488 L-508 -488 L-508.9 -488 L-509.9 -488 L-510.9 -488 L-511.9 -488.1 L-512.9 -488.1 L-512.8 -489.1 L-512.8 -490 L-512.8 -491 L-512.8 -492 L-512.8 -493 L-512.7 -494 L-512.7 -494.9 L-512.7 -495.9 L-512.7 -496.9 L-512.7 -497.9 L-512.7 -498.9 L-512.6 -499.9 L-512.6 -500.8 L-512.6 -501.8 L-512.6 -502.8 L-512.6 -503.8 L-512.5 -504.8 L-512.5 -505.7 L-512.5 -506.7 L-512.5 -507.7 L-512.5 -508.7 L-512.5 -509.7 L-512.4 -510.7 L-512.4 -511.6 L-512.4 -512.6 L-511.4 -512.6 L-510.4 -512.6 L-509.5 -512.6 L-508.5 -512.5 L-507.5 -512.5 L-506.5 -512.5 L-505.5 -512.5 L-504.5 -512.5 L-503.6 -512.5 L-502.6 -512.4 L-501.6 -512.4 L-500.6 -512.4 L-499.6 -512.4 L-498.7 -512.4 L-497.7 -512.3 L-496.7 -512.3 L-495.7 -512.3 L-494.7 -512.3 L-493.7 -512.3 L-492.8 -512.2 L-491.8 -512.2 L-490.8 -512.2 L-489.8 -512.2 L-488.8 -512.2 L-487.9 -512.2 Z " />
<path stroke="rgb(0,0,0)" stroke-opacity="1" fill="rgb(255,255,255)" fill-opacity="1" d="M224.6 100 L224.6 102 L224.3 103.9 L223.9 105.8 L223.4 107.7 L222.7 109.5 L221.9 111.3 L220.9 113 L219.8 114.6 L218.6 116.2 L217.2 117.6 L215.8 118.9 L214.2 120.1 L212.6 121.2 L210.9 122.1 L209.1 122.9 L207.2 123.5 L205.3 124 L203.4 124.4 L201.5 124.6 L199.5 124.6 L197.6 124.5 L195.6 124.2 L193.7 123.8 L191.8 123.2 L190 122.5 L188.3 121.7 L186.6 120.6 L185 119.5 L183.5 118.3 L182.1 116.9 L180.8 115.4 L179.6 113.8 L178.6 112.2 L177.7 110.4 L176.9 108.6 L176.3 106.8 L175.9 104.9 L175.5 102.9 L175.4 101 L175.4 99.02 L175.5 97.07 L175.9 95.13 L176.3 93.23 L176.9 91.37 L177.7 89.57 L178.6 87.83 L179.6 86.16 L180.8 84.59 L182.1 83.11 L183.5 81.74 L185 80.48 L186.6 79.35 L188.3 78.35 L190 77.49 L191.8 76.76 L193.7 76.19 L195.6 75.76 L197.6 75.49 L199.5 75.37 L201.5 75.41 L203.4 75.61 L205.3 75.96 L207.2 76.46 L209.1 77.11 L210.9 77.9 L212.6 78.83 L214.2 79.9 L215.8 81.1 L217.2 82.41 L218.6 83.84 L219.8 85.36 L220.9 86.98 L221.9 88.69 L222.7 90.46 L223.4 92.3 L223.9 94.18 L224.3 96.1 L224.6 98.04 L224.6 100 Z " />
<path stroke="rgb(0,0,0)" stroke-opacity="1" fill="rgb(255,255,255)" fill-opacity="1" d="M-285.7 -511.1 L-285.9 -510.1 L-286 -509.1 L-286.2 -508 L-286.3 -507 L-286.5 -506 L-286.6 -505 L-286.7 -503.9 L-286.9 -502.9 L-287 -501.9 L-287.2 -500.9 L-287.3 -499.8 L-287.5 -498.8 L-287.6 -497.8 L-287.8 -496.8 L-287.9 -495.7 L-288.1 -494.7 L-288.2 -493.7 L-288.4 -492.7 L-288.5 -491.6 L-288.6 -490.6 L-288.8 -489.6 L-288.9 -488.6 L-289.1 -487.5 L-289.2 -486.5 L-289.4 -485.5 L-290.4 -485.6 L-291.4 -485.8 L-292.5 -485.9 L-293.5 -486.1 L-294.5 -486.2 L-295.5 -486.3 L-296.6 -486.5 L-297.6 -486.6 L-298.6 -486.8 L-299.6 -486.9 L-300.7 -487.1 L-301.7 -487.2 L-302.7 -487.4 L-303.7 -487.5 L-304.8 -487.7 L-305.8 -487.8 L-306.8 -488 L-307.8 -488.1 L-308.9 -488.2 L-309.9 -488.4 L-310.9 -488.5 L-312 -488.7 L-313 -488.8 L-314 -489 L-315 -489.1 L-314.9 -490.1 L-314.7 -491.2 L-314.6 -492.2 L-314.4 -493.2 L-314.3 -494.3 L-314.2 -495.3 L-314 -496.3 L-313.9 -497.3 L-313.7 -498.4 L-313.6 -499.4 L-313.4 -500.4 L-313.3 -501.4 L-313.1 -502.5 L-313 -503.5 L-312.8 -504.5 L-312.7 -505.5 L-312.5 -506.6 L-312.4 -507.6 L-312.3 -508.6 L-312.1 -509.6 L-312 -510.7 L-311.8 -511.7 L-311.7 -512.7 L-311.5 -513.8 L-311.4 -514.8 L-310.4 -514.6 L-309.3 -514.5 L-308.3 -514.3 L-307.3 -514.2 L-306.3 -514 L-305.2 -513.9 L-304.2 -513.8 L-303.2 -513.6 L-302.1 -513.5 L-301.1 -513.3 L-300.1 -513.2 L-299.1 -513 L-298 -512.9 L-297 -512.7 L-296 -512.6 L-295 -512.4 L-293.9 -512.3 L-292.9 -512.1 L-291.9 -512 L-290.9 -511.9 L-289.8 -511.7 L-288.8 -511.6 L-287.8 -511.4 L-286.8 -511.3 L-285.7 -511.1 Z " />
<path stroke="rgb(0,0,0)" stroke-opacity="1" fill="rgb(255,255,255)" fill-opacity="1" d="M-277.2 198.9 L-277.4 200.8 L-277.7 202.7 L-278.1 204.7 L-278.7 206.5 L-279.4 208.3 L-280.3 210.1 L-281.3 211.8 L-282.5 213.3 L-283.7 214.8 L-285.1 216.2 L-286.6 217.5 L-288.2 218.6 L-289.9 219.7 L-291.6 220.5 L-293.4 221.3 L-295.3 221.9 L-297.2 222.3 L-299.1 222.6 L-301.1 222.8 L-303.1 222.7 L-305 222.6 L-306.9 222.2 L-308.8 221.8 L-310.7 221.1 L-312.5 220.4 L-314.2 219.4 L-315.9 218.4 L-317.4 217.2 L-318.9 215.9 L-320.3 214.5 L-321.5 213 L-322.6 211.4 L-323.6 209.7 L-324.5 207.9 L-325.2 206.1 L-325.7 204.2 L-326.1 202.3 L-326.4 200.4 L-326.5 198.4 L-326.4 196.4 L-326.2 194.5 L-325.8 192.6 L-325.3 190.7 L-324.7 188.8 L-323.8 187.1 L-322.9 185.3 L-321.8 183.7 L-320.6 182.2 L-319.3 180.7 L-317.8 179.4 L-316.3 178.2 L-314.7 177.1 L-313 176.2 L-311.2 175.3 L-309.3 174.7 L-307.4 174.2 L-305.5 173.8 L-303.6 173.6 L-301.6 173.5 L-299.7 173.6 L-297.7 173.9 L-295.8 174.3 L-293.9 174.8 L-292.1 175.5 L-290.3 176.4 L-288.6 177.3 L-287 178.5 L-285.5 179.7 L-284.1 181.1 L-282.8 182.5 L-281.6 184.1 L-280.6 185.7 L-279.6 187.5 L-278.9 189.3 L-278.2 191.1 L-277.8 193 L-277.4 194.9 L-277.2 196.9 L-277.2 198.9 Z " />
<path stroke="rgb(0,0,0)" stroke-opacity="1" fill="rgb(255,255,255)" fill-opacity="1" d="M-787.9 -412.2 L-788 -411.2 L-788 -410.2 L-788 -409.2 L-788 -408.3 L-788 -407.3 L-788 -406.3 L-788 -405.3 L-788 -404.4 L-788.1 -403.4 L-788.1 -402.4 L-788.1 -401.4 L-788.1 -400.4 L-788.1 -399.5 L-788.1 -398.5 L-788.1 -397.5 L-788.2 -396.5 L-788.2 -395.5 L-788.2 -394.6 L-788.2 -393.6 L-788.2 -392.6 L-788.2 -391.6 L-788.2 -390.6 L-788.3 -389.7 L-788.3 -388.7 L-788.3 -387.7 L-789.3 -387.7 L-790.2 -387.7 L-791.2 -387.7 L-792.2 -387.8 L-793.2 -387.8 L-794.2 -387.8 L-795.1 -387.8 L-796.1 -387.8 L-797.1 -387.8 L-798.1 -387.8 L-799.1 -387.8 L-800 -387.9 L-801 -387.9 L-802 -387.9 L-803 -387.9 L-804 -387.9 L-804.9 -387.9 L-805.9 -387.9 L-806.9 -388 L-807.9 -388 L-808.9 -388 L-809.8 -388 L-810.8 -388 L-811.8 -388 L-812.8 -388 L-812.8 -389 L-812.7 -390 L-812.7 -391 L-812.7 -392 L-812.7 -392.9 L-812.7 -393.9 L-812.7 -394.9 L-812.7 -395.9 L-812.7 -396.9 L-812.6 -397.8 L-812.6 -398.8 L-812.6 -399.8 L-812.6 -400.8 L-812.6 -401.8 L-812.6 -402.7 L-812.6 -403.7 L-812.5 -404.7 L-812.5 -405.7 L-812.5 -406.7 L-812.5 -407.6 L-812.5 -408.6 L-812.5 -409.6 L-812.5 -410.6 L-812.4 -411.6 L-812.4 -412.5 L-811.5 -412.5 L-810.5 -412.5 L-809.5 -412.5 L-808.5 -412.5 L-807.5 -412.5 L-806.6 -412.5 L-805.6 -412.4 L-804.6 -412.4 L-803.6 -412.4 L-802.6 -412.4 L-801.7 -412.4 L-800.7 -412.4 L-799.7 -412.4 L-798.7 -412.3 L-797.7 -412.3 L-796.8 -412.3 L-795.8 -412.3 L-794.8 -412.3 L-793.8 -412.3 L-792.8 -412.3 L-791.9 -412.2 L-790.9 -412.2 L-789.9 -412.2 L-788.9 -412.2 L-787.9 -412.2 Z " />
<path stroke="rgb(0,0,0)" stroke-opacity="1" fill="rgb(255,255,255)" fill-opacity="1" d="M-75.43 200 L-75.51 201.9 L-75.75 203.9 L-76.14 205.8 L-76.68 207.7 L-77.37 209.5 L-78.2 211.3 L-79.17 213 L-80.27 214.6 L-81.5 216.1 L-82.84 217.5 L-84.29 218.9 L-85.85 220 L-87.49 221.1 L-89.21 222 L-91 222.8 L-92.85 223.5 L-94.75 224 L-96.67 224.3 L-98.62 224.5 L-100.6 224.6 L-102.5 224.4 L-104.5 224.2 L-106.4 223.7 L-108.3 223.2 L-110.1 222.4 L-111.8 221.6 L-113.5 220.6 L-115.1 219.4 L-116.6 218.2 L-118 216.8 L-119.3 215.3 L-120.5 213.7 L-121.5 212.1 L-122.4 210.3 L-123.1 208.5 L-123.8 206.7 L-124.2 204.8 L-124.5 202.8 L-124.7 200.9 L-124.7 198.9 L-124.5 197 L-124.2 195 L-123.7 193.1 L-123.1 191.3 L-122.4 189.5 L-121.5 187.7 L-120.4 186.1 L-119.3 184.5 L-118 183 L-116.6 181.7 L-115.1 180.4 L-113.5 179.3 L-111.8 178.3 L-110 177.4 L-108.2 176.7 L-106.3 176.1 L-104.4 175.7 L-102.5 175.4 L-100.5 175.3 L-98.57 175.3 L-96.62 175.5 L-94.69 175.9 L-92.8 176.4 L-90.95 177 L-89.16 177.8 L-87.44 178.8 L-85.8 179.8 L-84.25 181 L-82.8 182.4 L-81.46 183.8 L-80.24 185.3 L-79.14 186.9 L-78.17 188.6 L-77.34 190.4 L-76.66 192.3 L-76.12 194.1 L-75.74 196.1 L-75.51 198 L-75.43 200 Z " />
<path stroke="rgb(0,0,0)" stroke-opacity="1" fill="rgb(255,255,255)" fill-opacity="1" d="M-587.9 -412.2 L-587.9 -411.2 L-587.9 -410.2 L-587.9 -409.2 L-587.9 -408.2 L-588 -407.2 L-588 -406.3 L-588 -405.3 L-588 -404.3 L-588 -403.3 L-588 -402.3 L-588.1 -401.4 L-588.1 -400.4 L-588.1 -399.4 L-588.1 -398.4 L-588.1 -397.4 L-588.2 -396.5 L-588.2 -395.5 L-588.2 -394.5 L-588.2 -393.5 L-588.2 -392.5 L-588.2 -391.5 L-588.3 -390.6 L-588.3 -389.6 L-588.3 -388.6 L-588.3 -387.6 L-589.3 -387.6 L-590.3 -387.7 L-591.3 -387.7 L-592.2 -387.7 L-593.2 -387.7 L-594.2 -387.7 L-595.2 -387.7 L-596.2 -387.8 L-597.2 -387.8 L-598.1 -387.8 L-599.1 -387.8 L-600.1 -387.8 L-601.1 -387.9 L-602.1 -387.9 L-603 -387.9 L-604 -387.9 L-605 -387.9 L-606 -387.9 L-607 -388 L-608 -388 L-608.9 -388 L-609.9 -388 L-610.9 -388 L-611.9 -388.1 L-612.9 -388.1 L-612.8 -389.1 L-612.8 -390 L-612.8 -391 L-612.8 -392 L-612.8 -393 L-612.7 -394 L-612.7 -394.9 L-612.7 -395.9 L-612.7 -396.9 L-612.7 -397.9 L-612.7 -398.9 L-612.6 -399.9 L-612.6 -400.8 L-612.6 -401.8 L-612.6 -402.8 L-612.6 -403.8 L-612.5 -404.8 L-612.5 -405.7 L-612.5 -406.7 L-612.5 -407.7 L-612.5 -408.7 L-612.5 -409.7 L-612.4 -410.7 L-612.4 -411.6 L-612.4 -412.6 L-611.4 -412.6 L-610.4 -412.6 L-609.5 -412.6 L-608.5 -412.5 L-607.5 -412.5 L-606.5 -412.5 L-605.5 -412.5 L-604.5 -412.5 L-603.6 -412.5 L-602.6 -412.4 L-601.6 -412.4 L-600.6 -412.4 L-599.6 -412.4 L-598.7 -412.4 L-597.7 -412.3 L-596.7 -412.3 L-595.7 -412.3 L-594.7 -412.3 L-593.7 -412.3 L-592.8 -412.2 L-591.8 -412.2 L-590.8 -412.2 L-589.8 -412.2 L-588.8 -412.2 L-587.9 -412.2 Z " />
<path stroke="rgb(0,0,0)" stroke-opacity="1" fill="rgb(255,255,255)" fill-opacity="1" d="M124.6 200 L124.6 202 L124.3 203.9 L123.9 205.8 L123.4 207.7 L122.7 209.5 L121.9 211.3 L120.9 213 L119.8 214.6 L118.6 216.2 L117.2 217.6 L115.8 218.9 L114.2 220.1 L112.6 221.2 L110.9 222.1 L109.1 222.9 L107.2 223.5 L105.3 224 L103.4 224.4 L101.5 224.6 L99.51 224.6 L97.56 224.5 L95.62 224.2 L93.71 223.8 L91.84 223.2 L90.02 222.5 L88.26 221.7 L86.58 220.6 L84.98 219.5 L83.47 218.3 L82.08 216.9 L80.79 215.4 L79.63 213.8 L78.59 212.2 L77.69 210.4 L76.93 208.6 L76.32 206.8 L75.86 204.9 L75.55 202.9 L75.39 201 L75.39 199 L75.55 197.1 L75.86 195.1 L76.32 193.2 L76.93 191.4 L77.69 189.6 L78.59 187.8 L79.63 186.2 L80.79 184.6 L82.08 183.1 L83.47 181.7 L84.98 180.5 L86.58 179.4 L88.26 178.3 L90.02 177.5 L91.84 176.8 L93.71 176.2 L95.62 175.8 L97.56 175.5 L99.51 175.4 L101.5 175.4 L103.4 175.6 L105.3 176 L107.2 176.5 L109.1 177.1 L110.9 177.9 L112.6 178.8 L114.2 179.9 L115.8 181.1 L117.2 182.4 L118.6 183.8 L119.8 185.4 L120.9 187 L121.9 188.7 L122.7 190.5 L123.4 192.3 L123.9 194.2 L124.3 196.1 L124.6 198 L124.6 200 Z " />
<path stroke="rgb(0,0,0)" stroke-opacity="1" fill="rgb(255,255,255)" fill-opacity="1" d="M-385.7 -411.1 L-385.9 -410.1 L-386 -409.1 L-386.2 -408 L-386.3 -407 L-386.5 -406 L-386.6 -405 L-386.7 -403.9 L-386.9 -402.9 L-387 -401.9 L-387.2 -400.9 L-387.3 -399.8 L-387.5 -398.8 L-387.6 -397.8 L-387.8 -396.8 L-387.9 -395.7 L-388.1 -394.7 L-388.2 -393.7 L-388.4 -392.7 L-388.5 -391.6 L-388.6 -390.6 L-388.8 -389.6 L-388.9 -388.6 L-389.1 -387.5 L-389.2 -386.5 L-389.4 -385.5 L-390.4 -385.6 L-391.4 -385.8 L-392.5 -385.9 L-393.5 -386.1 L-394.5 -386.2 L-395.5 -386.3 L-396.6 -386.5 L-397.6 -386.6 L-398.6 -386.8 L-399.6 -386.9 L-400.7 -387.1 L-401.7 -387.2 L-402.7 -387.4 L-403.7 -387.5 L-404.8 -387.7 L-405.8 -387.8 L-406.8 -388 L-407.8 -388.1 L-408.9 -388.2 L-409.9 -388.4 L-410.9 -388.5 L-412 -388.7 L-413 -388.8 L-414 -389 L-415 -389.1 L-414.9 -390.1 L-414.7 -391.2 L-414.6 -392.2 L-414.4 -393.2 L-414.3 -394.3 L-414.2 -395.3 L-414 -396.3 L-413.9 -397.3 L-413.7 -398.4 L-413.6 -399.4 L-413.4 -400.4 L-413.3 -401.4 L-413.1 -402.5 L-413 -403.5 L-412.8 -404.5 L-412.7 -405.5 L-412.5 -406.6 L-412.4 -407.6 L-412.3 -408.6 L-412.1 -409.6 L-412 -410.7 L-411.8 -411.7 L-411.7 -412.7 L-411.5 -413.8 L-411.4 -414.8 L-410.4 -414.6 L-409.3 -414.5 L-408.3 -414.3 L-407.3 -414.2 L-406.3 -414 L-405.2 -413.9 L-404.2 -413.8 L-403.2 -413.6 L-402.1 -413.5 L-401.1 -413.3 L-400.1 -413.2 L-399.1 -413 L-398 -412.9 L-397 -412.7 L-396 -412.6 L-395 -412.4 L-393.9 -412.3 L-392.9 -412.1 L-391.9 -412 L-390.9 -411.9 L-389.8 -411.7 L-388.8 -411.6 L-387.8 -411.4 L-386.8 -411.3 L-385.7 -411.1 Z " />
<path stroke="rgb(0,0,0)" stroke-opacity="1" fill="rgb(255,255,255)" fill-opacity="1" d="M324.6 200 L324.6 202 L324.3 203.9 L323.9 205.8 L323.4 207.7 L322.7 209.5 L321.9 211.3 L320.9 213 L319.8 214.6 L318.6 216.2 L317.2 217.6 L315.8 218.9 L314.2 220.1 L312.6 221.2 L310.9 222.1 L309.1 222.9 L307.2 223.5 L305.3 224 L303.4 224.4 L301.5 224.6 L299.5 224.6 L297.6 224.5 L295.6 224.2 L293.7 223.8 L291.8 223.2 L290 222.5 L288.3 221.7 L286.6 220.6 L285 219.5 L283.5 218.3 L282.1 216.9 L280.8 215.4 L279.6 213.8 L278.6 212.2 L277.7 210.4 L276.9 208.6 L276.3 206.8 L275.9 204.9 L275.5 202.9 L275.4 201 L275.4 199 L275.5 197.1 L275.9 195.1 L276.3 193.2 L276.9 191.4 L277.7 189.6 L278.6 187.8 L279.6 186.2 L280.8 184.6 L282.1 183.1 L283.5 181.7 L285 180.5 L286.6 179.4 L288.3 178.3 L290 177.5 L291.8 176.8 L293.7 176.2 L295.6 175.8 L297.6 175.5 L299.5 175.4 L301.5 175.4 L303.4 175.6 L305.3 176 L307.2 176.5 L309.1 177.1 L310.9 177.9 L312.6 178.8 L314.2 179.9 L315.8 181.1 L317.2 182.4 L318.6 183.8 L319.8 185.4 L320.9 187 L321.9 188.7 L322.7 190.5 L323.4 192.3 L323.9 194.2 L324.3 196.1 L324.6 198 L324.6 200 Z " />
<path stroke="rgb(0,0,0)" stroke-opacity="1" fill="rgb(255,255,255)" fill-opacity="1" d="M-887.9 -312.2 L-888 -311.2 L-888 -310.2 L-888 -309.2 L-888 -308.3 L-888 -307.3 L-888 -306.3 L-888 -305.3 L-888 -304.4 L-888.1 -303.4 L-888.1 -302.4 L-888.1 -301.4 L-888.1 -300.4 L-888.1 -299.5 L-888.1 -298.5 L-888.1 -297.5 L-888.2 -296.5 L-888.2 -295.5 L-888.2 -294.6 L-888.2 -293.6 L-888.2 -292.6 L-888.2 -291.6 L-888.2 -290.6 L-888.3 -289.7 L-888.3 -288.7 L-888.3 -287.7 L-889.3 -287.7 L-890.2 -287.7 L-891.2 -287.7 L-892.2 -287.8 L-893.2 -287.8 L-894.2 -287.8 L-895.1 -287.8 L-896.1 -287.8 L-897.1 -287.8 L-898.1 -287.8 L-899.1 -287.8 L-900 -287.9 L-901 -287.9 L-902 -287.9 L-903 -287.9 L-904 -287.9 L-904.9 -287.9 L-905.9 -287.9 L-906.9 -288 L-907.9 -288 L-908.9 -288 L-909.8 -288 L-910.8 -288 L-911.8 -288 L-912.8 -288 L-912.8 -289 L-912.7 -290 L-912.7 -291 L-912.7 -292 L-912.7 -292.9 L-912.7 -293.9 L-912.7 -294.9 L-912.7 -295.9 L-912.7 -296.9 L-912.6 -297.8 L-912.6 -298.8 L-912.6 -299.8 L-912.6 -300.8 L-912.6 -301.8 L-912.6 -302.7 L-912.6 -303.7 L-912.5 -304.7 L-912.5 -305.7 L-912.5 -306.7 L-912.5 -307.6 L-912.5 -308.6 L-912.5 -309.6 L-912.5 -310.6 L-912.4 -311.6 L-912.4 -312.5 L-911.5 -312.5 L-910.5 -312.5 L-909.5 -312.5 L-908.5 -312.5 L-907.5 -312.5 L-906.6 -312.5 L-905.6 -312.4 L-904.6 -312.4 L-903.6 -312.4 L-902.6 -312.4 L-901.7 -312.4 L-900.7 -312.4 L-899.7 -312.4 L-898.7 -312.3 L-897.7 -312.3 L-896.8 -312.3 L-895.8 -312.3 L-894.8 -312.3 L-893.8 -312.3 L-892.8 -312.3 L-891.9 -312.2 L-890.9 -312.2 L-889.9 -312.2 L-888.9 -312.2 L-887.9 -312.2 Z " />
<path stroke="rgb(0,0,0)" stroke-opacity="1" fill="rgb(255,255,255)" fill-opacity="1" d="M-175.4 300 L-175.5 301.9 L-175.7 303.9 L-176.1 305.8 L-176.7 307.7 L-177.4 309.5 L-178.2 311.3 L-179.2 313 L-180.3 314.6 L-181.5 316.1 L-182.8 317.5 L-184.3 318.9 L-185.8 320 L-187.5 321.1 L-189.2 322 L-191 322.8 L-192.9 323.5 L-194.7 324 L-196.7 324.3 L-198.6 324.5 L-200.6 324.6 L-202.5 324.4 L-204.5 324.2 L-206.4 323.7 L-208.3 323.2 L-210.1 322.4 L-211.8 321.6 L-213.5 320.6 L-215.1 319.4 L-216.6 318.2 L-218 316.8 L-219.3 315.3 L-220.5 313.7 L-221.5 312.1 L-222.4 310.3 L-223.1 308.5 L-223.8 306.7 L-224.2 304.8 L-224.5 302.8 L-224.7 300.9 L-224.7 298.9 L-224.5 297 L-224.2 295 L-223.7 293.1 L-223.1 291.3 L-222.4 289.5 L-221.5 287.7 L-220.4 286.1 L-219.3 284.5 L-218 283 L-216.6 281.7 L-215.1 280.4 L-213.5 279.3 L-211.8 278.3 L-210 277.4 L-208.2 276.7 L-206.3 276.1 L-204.4 275.7 L-202.5 275.4 L-200.5 275.3 L-198.6 275.3 L-196.6 275.5 L-194.7 275.9 L-192.8 276.4 L-191 277 L-189.2 277.8 L-187.4 278.8 L-185.8 279.8 L-184.3 281 L-182.8 282.4 L-181.5 283.8 L-180.2 285.3 L-179.1 286.9 L-178.2 288.6 L-177.3 290.4 L-176.7 292.3 L-176.1 294.1 L-175.7 296.1 L-175.5 298 L-175.4 300 Z " />
<path stroke="rgb(0,0,0)" stroke-opacity="1" fill="rgb(255,255,255)" fill-opacity="1" d="M-687.9 -312.2 L-687.9 -311.2 L-687.9 -310.2 L-687.9 -309.2 L-687.9 -308.2 L-688 -307.2 L-688 -306.3 L-688 -305.3 L-688 -304.3 L-688 -303.3 L-688 -302.3 L-688.1 -301.4 L-688.1 -300.4 L-688.1 -299.4 L-688.1 -298.4 L-688.1 -297.4 L-688.2 -296.5 L-688.2 -295.5 L-688.2 -294.5 L-688.2 -293.5 L-688.2 -292.5 L-688.2 -291.5 L-688.3 -290.6 L-688.3 -289.6 L-688.3 -288.6 L-688.3 -287.6 L-689.3 -287.6 L-690.3 -287.7 L-691.3 -287.7 L-692.2 -287.7 L-693.2 -287.7 L-694.2 -287.7 L-695.2 -287.7 L-696.2 -287.8 L-697.2 -287.8 L-698.1 -287.8 L-699.1 -287.8 L-700.1 -287.8 L-701.1 -287.9 L-702.1 -287.9 L-703 -287.9 L-704 -287.9 L-705 -287.9 L-706 -287.9 L-707 -288 L-708 -288 L-708.9 -288 L-709.9 -288 L-710.9 -288 L-711.9 -288.1 L-712.9 -288.1 L-712.8 -289.1 L-712.8 -290 L-712.8 -291 L-712.8 -292 L-712.8 -293 L-712.7 -294 L-712.7 -294.9 L-712.7 -295.9 L-712.7 -296.9 L-712.7 -297.9 L-712.7 -298.9 L-712.6 -299.9 L-712.6 -300.8 L-712.6 -301.8 L-712.6 -302.8 L-712.6 -303.8 L-712.5 -304.8 L-712.5 -305.7 L-712.5 -306.7 L-712.5 -307.7 L-712.5 -308.7 L-712.5 -309.7 L-712.4 -310.7 L-712.4 -311.6 L-712.4 -312.6 L-711.4 -312.6 L-710.4 -312.6 L-709.5 -312.6 L-708.5 -312.5 L-707.5 -312.5 L-706.5 -312.5 L-705.5 -312.5 L-704.5 -312.5 L-703.6 -312.5 L-702.6 -312.4 L-701.6 -312.4 L-700.6 -312.4 L-699.6 -312.4 L-698.7 -312.4 L-697.7 -312.3 L-696.7 -312.3 L-695.7 -312.3 L-694.7 -312.3 L-693.7 -312.3 L-692.8 -312.2 L-691.8 -312.2 L-690.8 -312.2 L-689.8 -312.2 L-688.8 -312.2 L-687.9 -312.2 Z " />
<path stroke="rgb(0,0,0)" stroke-opacity="1" fill="rgb(255,255,255)" fill-opacity="1" d="M24.64 300 L24.56 302 L24.32 303.9 L23.94 305.8 L23.4 307.7 L22.71 309.5 L21.88 311.3 L20.92 313 L19.82 314.6 L18.59 316.2 L17.25 317.6 L15.8 318.9 L14.24 320.1 L12.6 321.2 L10.88 322.1 L9.09 322.9 L7.242 323.5 L5.349 324 L3.422 324.4 L1.473 324.6 L-0.4851 324.6 L-2.44 324.5 L-4.38 324.2 L-6.291 323.8 L-8.164 323.2 L-9.984 322.5 L-11.74 321.7 L-13.42 320.6 L-15.02 319.5 L-16.53 318.3 L-17.92 316.9 L-19.21 315.4 L-20.37 313.8 L-21.41 312.2 L-22.31 310.4 L-23.07 308.6 L-23.68 306.8 L-24.14 304.9 L-24.45 302.9 L-24.61 301 L-24.61 299 L-24.45 297.1 L-24.14 295.1 L-23.68 293.2 L-23.07 291.4 L-22.31 289.6 L-21.41 287.8 L-20.37 286.2 L-19.21 284.6 L-17.92 283.1 L-16.53 281.7 L-15.02 280.5 L-13.42 279.4 L-11.74 278.3 L-9.984 277.5 L-8.164 276.8 L-6.291 276.2 L-4.38 275.8 L-2.44 275.5 L-0.4851 275.4 L1.473 275.4 L3.422 275.6 L5.349 276 L7.242 276.5 L9.09 277.1 L10.88 277.9 L12.6 278.8 L14.24 279.9 L15.8 281.1 L17.25 282.4 L18.59 283.8 L19.82 285.4 L20.92 287 L21.88 288.7 L22.71 290.5 L23.4 292.3 L23.94 294.2 L24.32 296.1 L24.56 298 L24.64 300 Z " />
<path stroke="rgb(0,0,0)" stroke-opacity="1" fill="rgb(255,255,255)" fill-opacity="1" d="M-485.7 -311.1 L-485.9 -310.1 L-486 -309.1 L-486.2 -308 L-486.3 -307 L-486.5 -306 L-486.6 -305 L-486.7 -303.9 L-486.9 -302.9 L-487 -301.9 L-487.2 -300.9 L-487.3 -299.8 L-487.5 -298.8 L-487.6 -297.8 L-487.8 -296.8 L-487.9 -295.7 L-488.1 -294.7 L-488.2 -293.7 L-488.4 -292.7 L-488.5 -291.6 L-488.6 -290.6 L-488.8 -289.6 L-488.9 -288.6 L-489.1 -287.5 L-489.2 -286.5 L-489.4 -285.5 L-490.4 -285.6 L-491.4 -285.8 L-492.5 -285.9 L-493.5 -286.1 L-494.5 -286.2 L-495.5 -286.3 L-496.6 -286.5 L-497.6 -286.6 L-498.6 -286.8 L-499.6 -286.9 L-500.7 -287.1 L-501.7 -287.2 L-502.7 -287.4 L-503.7 -287.5 L-504.8 -287.7 L-505.8 -287.8 L-506.8 -288 L-507.8 -288.1 L-508.9 -288.2 L-509.9 -288.4 L-510.9 -288.5 L-512 -288.7 L-513 -288.8 L-514 -289 L-515 -289.1 L-514.9 -290.1 L-514.7 -291.2 L-514.6 -292.2 L-514.4 -293.2 L-514.3 -294.3 L-514.2 -295.3 L-514 -296.3 L-513.9 -297.3 L-513.7 -298.4 L-513.6 -299.4 L-513.4 -300.4 L-513.3 -301.4 L-513.1 -302.5 L-513 -303.5 L-512.8 -304.5 L-512.7 -305.5 L-512.5 -306.6 L-512.4 -307.6 L-512.3 -308.6 L-512.1 -309.6 L-512 -310.7 L-511.8 -311.7 L-511.7 -312.7 L-511.5 -313.8 L-511.4 -314.8 L-510.4 -314.6 L-509.3 -314.5 L-508.3 -314.3 L-507.3 -314.2 L-506.3 -314 L-505.2 -313.9 L-504.2 -313.8 L-503.2 -313.6 L-502.1 -313.5 L-501.1 -313.3 L-500.1 -313.2 L-499.1 -313 L-498 -312.9 L-497 -312.7 L-496 -312.6 L-495 -312.4 L-493.9 -312.3 L-492.9 -312.1 L-491.9 -312 L-490.9 -311.9 L-489.8 -311.7 L-488.8 -311.6 L-487.8 -311.4 L-486.8 -311.3 L-485.7 -311.1 Z " />
<path stroke="rgb(0,0,0)" stroke-opacity="1" fill="rgb(255,255,255)" fill-opacity="1" d="M224.6 300 L224.6 302 L224.3 303.9 L223.9 305.8 L223.4 307.7 L222.7 309.5 L221.9 311.3 L220.9 313 L219.8 314.6 L218.6 316.2 L217.2 317.6 L215.8 318.9 L214.2 320.1 L212.6 321.2 L210.9 322.1 L209.1 322.9 L207.2 323.5 L205.3 324 L203.4 324.4 L201.5 324.6 L199.5 324.6 L197.6 324.5 L195.6 324.2 L193.7 323.8 L191.8 323.2 L190 322.5 L188.3 321.7 L186.6 320.6 L185 319.5 L183.5 318.3 L182.1 316.9 L180.8 315.4 L179.6 313.8 L178.6 312.2 L177.7 310.4 L176.9 308.6 L176.3 306.8 L175.9 304.9 L175.5 302.9 L175.4 301 L175.4 299 L175.5 297.1 L175.9 295.1 L176.3 293.2 L176.9 291.4 L177.7 289.6 L178.6 287.8 L179.6 286.2 L180.8 284.6 L182.1 283.1 L183.5 281.7 L185 280.5 L186.6 279.4 L188.3 278.3 L190 277.5 L191.8 276.8 L193.7 276.2 L195.6 275.8 L197.6 275.5 L199.5 275.4 L201.5 275.4 L203.4 275.6 L205.3 276 L207.2 276.5 L209.1 277.1 L210.9 277.9 L212.6 278.8 L214.2 279.9 L215.8 281.1 L217.2 282.4 L218.6 283.8 L219.8 285.4 L220.9 287 L221.9 288.7 L222.7 290.5 L223.4 292.3 L223.9 294.2 L224.3 296.1 L224.6 298 L224.6 300 Z " />
<path stroke="rgb(0,0,0)" stroke-opacity="1" fill="rgb(255,255,255)" fill-opacity="1" d="M-278.3 -304.3 L-279.1 -303.2 L-279.8 -302.2 L-280.5 -301.1 L-281.2 -300.1 L-282 -299 L-282.7 -298 L-283.4 -296.9 L-284.1 -295.9 L-284.8 -294.8 L-285.6 -293.8 L-286.3 -292.7 L-287 -291.7 L-287.7 -290.6 L-288.4 -289.6 L-289.2 -288.6 L-289.9 -287.5 L-290.6 -286.5 L-291.3 -285.4 L-292.1 -284.4 L-292.8 -283.3 L-293.5 -282.3 L-294.2 -281.2 L-294.9 -280.2 L-295.7 -279.1 L-296.4 -278.1 L-297.4 -278.8 L-298.5 -279.5 L-299.5 -280.3 L-300.6 -281 L-301.6 -281.7 L-302.7 -282.4 L-303.7 -283.1 L-304.8 -283.9 L-305.8 -284.6 L-306.9 -285.3 L-307.9 -286 L-309 -286.7 L-310 -287.5 L-311 -288.2 L-312.1 -288.9 L-313.1 -289.6 L-314.2 -290.4 L-315.2 -291.1 L-316.3 -291.8 L-317.3 -292.5 L-318.4 -293.2 L-319.4 -294 L-320.5 -294.7 L-321.5 -295.4 L-322.6 -296.1 L-321.8 -297.2 L-321.1 -298.2 L-320.4 -299.3 L-319.7 -300.3 L-319 -301.4 L-318.2 -302.4 L-317.5 -303.5 L-316.8 -304.5 L-316.1 -305.6 L-315.3 -306.6 L-314.6 -307.6 L-313.9 -308.7 L-313.2 -309.7 L-312.5 -310.8 L-311.7 -311.8 L-311 -312.9 L-310.3 -313.9 L-309.6 -315 L-308.8 -316 L-308.1 -317.1 L-307.4 -318.1 L-306.7 -319.2 L-306 -320.2 L-305.2 -321.3 L-304.5 -322.3 L-303.5 -321.6 L-302.4 -320.9 L-301.4 -320.1 L-300.3 -319.4 L-299.3 -318.7 L-298.2 -318 L-297.2 -317.3 L-296.1 -316.5 L-295.1 -315.8 L-294 -315.1 L-293 -314.4 L-292 -313.6 L-290.9 -312.9 L-289.9 -312.2 L-288.8 -311.5 L-287.8 -310.8 L-286.7 -310 L-285.7 -309.3 L-284.6 -308.6 L-283.6 -307.9 L-282.5 -307.1 L-281.5 -306.4 L-280.4 -305.7 L-279.4 -305 L-278.3 -304.3 Z " />
</g>
</g>
</svg>
