<!DOCTYPE svg>
<svg xmlns="http://www.w3.org/2000/svg" xmlns:xlink="http://www.w3.org/1999/xlink" width="560" height="560">
<g transform="translate(280.000000,280.000000)">
<g transform="scale(3.000000,3.000000)">
<path stroke="rgb(0,0,0)" stroke-opacity="1" fill="rgb(255,255,255)" fill-opacity="1" d="M-1025 -976.4 L-1025 -978.4 L-1025 -980.3 L-1025 -982.3 L-1025 -984.2 L-1025 -986.2 L-1025 -988.1 L-1025 -990.1 L-1025 -992 L-1025 -994 L-1024 -996 L-1024 -997.9 L-1024 -999.9 L-1024 -1002 L-1024 -1004 L-1024 -1006 L-1024 -1008 L-1024 -1010 L-1024 -1012 L-1024 -1014 L-1024 -1016 L-1024 -1017 L-1024 -1019 L-1024 -1021 L-1024 -1023 L-1024 -1025 L-1022 -1025 L-1020 -1025 L-1018 -1025 L-1016 -1025 L-1014 -1025 L-1012 -1025 L-1010 -1025 L-1008 -1025 L-1006 -1025 L-1005 -1025 L-1003 -1025 L-1001 -1025 L-998.6 -1025 L-996.7 -1025 L-994.7 -1025 L-992.8 -1025 L-990.8 -1025 L-988.9 -1025 L-986.9 -1025 L-985 -1025 L-983 -1025 L-981 -1025 L-979.1 -1025 L-977.1 -1025 L-975.2 -1025 L-975.2 -1023 L-975.2 -1021 L-975.3 -1019 L-975.3 -1017 L-975.3 -1015 L-975.4 -1013 L-975.4 -1011 L-975.4 -1009 L-975.4 -1007 L-975.5 -1005 L-975.5 -1003 L-975.5 -1001 L-975.6 -999.1 L-975.6 -997.2 L-975.6 -995.2 L-975.7 -993.3 L-975.7 -991.3 L-975.7 -989.4 L-975.7 -987.4 L-975.8 -985.4 L-975.8 -983.5 L-975.8 -981.5 L-975.9 -979.6 L-975.9 -977.6 L-975.9 -975.7 L-977.9 -975.7 L-979.8 -975.7 L-981.8 -975.8 L-983.7 -975.8 L-985.7 -975.8 L-987.6 -975.8 L-989.6 -975.9 L-991.6 -975.9 L-993.5 -975.9 L-995.5 -976 L-997.4 -976 L-999.4 -976 L-1001 -976 L-1003 -976.1 L-1005 -976.1 L-1007 -976.1 L-1009 -976.2 L-1011 -976.2 L-1013 -976.2 L-1015 -976.3 L-1017 -976.3 L-1019 -976.3 L-1021 -976.3 L-1023 -976.4 L-1025 -976.4 Z " />
<path stroke="rgb(0,0,0)" stroke-opacity="1" fill="rgb(255,255,255)" fill-opacity="1" d="M-175.4 -300 L-175.5 -298 L-175.7 -296.1 L-176.1 -294.2 L-176.7 -292.3 L-177.3 -290.5 L-178.2 -288.7 L-179.1 -287 L-180.2 -285.4 L-181.5 -283.9 L-182.8 -282.5 L-184.2 -281.1 L-185.8 -280 L-187.4 -278.9 L-189.1 -278 L-190.9 -277.2 L-192.8 -276.5 L-194.7 -276 L-196.6 -275.7 L-198.5 -275.5 L-200.5 -275.4 L-202.4 -275.6 L-204.4 -275.8 L-206.3 -276.2 L-208.1 -276.8 L-210 -277.5 L-211.7 -278.4 L-213.4 -279.4 L-215 -280.5 L-216.5 -281.8 L-217.9 -283.2 L-219.2 -284.6 L-220.3 -286.2 L-221.4 -287.9 L-222.3 -289.6 L-223 -291.4 L-223.6 -293.2 L-224.1 -295.1 L-224.4 -297.1 L-224.5 -299 L-224.5 -301 L-224.4 -302.9 L-224.1 -304.9 L-223.6 -306.8 L-223 -308.6 L-222.3 -310.4 L-221.4 -312.1 L-220.3 -313.8 L-219.2 -315.4 L-217.9 -316.8 L-216.5 -318.2 L-215 -319.5 L-213.4 -320.6 L-211.7 -321.6 L-210 -322.5 L-208.1 -323.2 L-206.3 -323.8 L-204.4 -324.2 L-202.4 -324.4 L-200.5 -324.6 L-198.5 -324.5 L-196.6 -324.3 L-194.7 -324 L-192.8 -323.5 L-190.9 -322.8 L-189.1 -322 L-187.4 -321.1 L-185.8 -320 L-184.2 -318.9 L-182.8 -317.5 L-181.5 -316.1 L-180.2 -314.6 L-179.1 -313 L-178.2 -311.3 L-177.3 -309.5 L-176.7 -307.7 L-176.1 -305.8 L-175.7 -303.9 L-175.5 -302 L-175.4 -300 Z " />
<path stroke="rgb(0,0,0)" stroke-opacity="1" fill="rgb(255,255,255)" fill-opacity="1" d="M-824.6 -976.3 L-824.6 -978.3 L-824.6 -980.2 L-824.6 -982.2 L-824.6 -984.1 L-824.5 -986.1 L-824.5 -988 L-824.5 -990 L-824.5 -991.9 L-824.4 -993.9 L-824.4 -995.8 L-824.4 -997.8 L-824.4 -999.8 L-824.4 -1002 L-824.3 -1004 L-824.3 -1006 L-824.3 -1008 L-824.3 -1010 L-824.3 -1011 L-824.2 -1013 L-824.2 -1015 L-824.2 -1017 L-824.2 -1019 L-824.2 -1021 L-824.1 -1023 L-824.1 -1025 L-822.2 -1025 L-820.2 -1025 L-818.3 -1025 L-816.3 -1025 L-814.4 -1025 L-812.4 -1025 L-810.5 -1025 L-808.5 -1025 L-806.6 -1025 L-804.6 -1025 L-802.7 -1025 L-800.7 -1025 L-798.8 -1025 L-796.8 -1025 L-794.9 -1025 L-792.9 -1025 L-791 -1025 L-789 -1025 L-787.1 -1025 L-785.1 -1025 L-783.1 -1025 L-781.2 -1025 L-779.2 -1025 L-777.3 -1025 L-775.3 -1025 L-775.4 -1023 L-775.4 -1021 L-775.4 -1019 L-775.4 -1017 L-775.4 -1015 L-775.5 -1013 L-775.5 -1011 L-775.5 -1009 L-775.5 -1007 L-775.5 -1005 L-775.6 -1003 L-775.6 -1001 L-775.6 -999.2 L-775.6 -997.3 L-775.7 -995.3 L-775.7 -993.4 L-775.7 -991.4 L-775.7 -989.5 L-775.7 -987.5 L-775.8 -985.6 L-775.8 -983.6 L-775.8 -981.7 L-775.8 -979.7 L-775.8 -977.8 L-775.9 -975.8 L-777.8 -975.8 L-779.8 -975.9 L-781.7 -975.9 L-783.7 -975.9 L-785.6 -975.9 L-787.6 -975.9 L-789.5 -976 L-791.5 -976 L-793.4 -976 L-795.4 -976 L-797.3 -976.1 L-799.3 -976.1 L-801.2 -976.1 L-803.2 -976.1 L-805.1 -976.1 L-807.1 -976.2 L-809 -976.2 L-811 -976.2 L-812.9 -976.2 L-814.9 -976.2 L-816.8 -976.3 L-818.8 -976.3 L-820.7 -976.3 L-822.7 -976.3 L-824.6 -976.3 Z " />
<path stroke="rgb(0,0,0)" stroke-opacity="1" fill="rgb(255,255,255)" fill-opacity="1" d="M24.58 -300 L24.5 -298 L24.27 -296.1 L23.88 -294.2 L23.34 -292.3 L22.66 -290.5 L21.83 -288.7 L20.86 -287 L19.77 -285.4 L18.55 -283.9 L17.21 -282.5 L15.76 -281.1 L14.21 -280 L12.57 -278.9 L10.85 -278 L9.068 -277.2 L7.225 -276.5 L5.337 -276 L3.414 -275.7 L1.47 -275.5 L-0.4831 -275.4 L-2.433 -275.6 L-4.368 -275.8 L-6.275 -276.2 L-8.143 -276.8 L-9.958 -277.5 L-11.71 -278.4 L-13.39 -279.4 L-14.98 -280.5 L-16.48 -281.8 L-17.88 -283.2 L-19.16 -284.6 L-20.32 -286.2 L-21.35 -287.9 L-22.25 -289.6 L-23.01 -291.4 L-23.62 -293.2 L-24.08 -295.1 L-24.39 -297.1 L-24.55 -299 L-24.55 -301 L-24.39 -302.9 L-24.08 -304.9 L-23.62 -306.8 L-23.01 -308.6 L-22.25 -310.4 L-21.35 -312.1 L-20.32 -313.8 L-19.16 -315.4 L-17.88 -316.8 L-16.48 -318.2 L-14.98 -319.5 L-13.39 -320.6 L-11.71 -321.6 L-9.958 -322.5 L-8.143 -323.2 L-6.275 -323.8 L-4.368 -324.2 L-2.433 -324.4 L-0.4831 -324.6 L1.47 -324.5 L3.414 -324.3 L5.337 -324 L7.225 -323.5 L9.068 -322.8 L10.85 -322 L12.57 -321.1 L14.21 -320 L15.76 -318.9 L17.21 -317.5 L18.55 -316.1 L19.77 -314.6 L20.86 -313 L21.83 -311.3 L22.66 -309.5 L23.34 -307.7 L23.88 -305.8 L24.27 -303.9 L24.5 -302 L24.58 -300 Z " />
<path stroke="rgb(0,0,0)" stroke-opacity="1" fill="rgb(255,255,255)" fill-opacity="1" d="M-620.4 -974.9 L-620.6 -976.8 L-620.8 -978.6 L-621 -980.4 L-621.2 -982.3 L-621.4 -984.1 L-621.6 -986 L-621.9 -987.8 L-622.1 -989.6 L-622.3 -991.5 L-622.5 -993.3 L-622.7 -995.1 L-622.9 -997 L-623.1 -998.8 L-623.3 -1001 L-623.5 -1002 L-623.7 -1004 L-623.9 -1006 L-624.1 -1008 L-624.3 -1010 L-624.5 -1012 L-624.8 -1014 L-625 -1015 L-625.2 -1017 L-625.4 -1019 L-625.6 -1021 L-623.7 -1021 L-621.9 -1021 L-620.1 -1021 L-618.2 -1022 L-616.4 -1022 L-614.6 -1022 L-612.7 -1022 L-610.9 -1023 L-609 -1023 L-607.2 -1023 L-605.4 -1023 L-603.5 -1023 L-601.7 -1024 L-599.9 -1024 L-598 -1024 L-596.2 -1024 L-594.4 -1024 L-592.5 -1025 L-590.7 -1025 L-588.8 -1025 L-587 -1025 L-585.2 -1025 L-583.3 -1026 L-581.5 -1026 L-579.7 -1026 L-579.5 -1024 L-579.2 -1022 L-579 -1021 L-578.8 -1019 L-578.6 -1017 L-578.4 -1015 L-578.2 -1013 L-578 -1011 L-577.8 -1010 L-577.6 -1008 L-577.4 -1006 L-577.2 -1004 L-577 -1002 L-576.8 -1000 L-576.6 -998.5 L-576.3 -996.6 L-576.1 -994.8 L-575.9 -993 L-575.7 -991.1 L-575.5 -989.3 L-575.3 -987.5 L-575.1 -985.6 L-574.9 -983.8 L-574.7 -982 L-574.5 -980.1 L-576.3 -979.9 L-578.2 -979.7 L-580 -979.5 L-581.8 -979.3 L-583.7 -979.1 L-585.5 -978.9 L-587.3 -978.7 L-589.2 -978.5 L-591 -978.2 L-592.8 -978 L-594.7 -977.8 L-596.5 -977.6 L-598.4 -977.4 L-600.2 -977.2 L-602 -977 L-603.9 -976.8 L-605.7 -976.6 L-607.5 -976.4 L-609.4 -976.2 L-611.2 -976 L-613.1 -975.8 L-614.9 -975.6 L-616.7 -975.3 L-618.6 -975.1 L-620.4 -974.9 Z " />
<path stroke="rgb(0,0,0)" stroke-opacity="1" fill="rgb(255,255,255)" fill-opacity="1" d="M224.6 -300 L224.5 -298 L224.3 -296.1 L223.9 -294.2 L223.3 -292.3 L222.7 -290.5 L221.8 -288.7 L220.9 -287 L219.8 -285.4 L218.5 -283.9 L217.2 -282.5 L215.8 -281.1 L214.2 -280 L212.6 -278.9 L210.9 -278 L209.1 -277.2 L207.2 -276.5 L205.3 -276 L203.4 -275.7 L201.5 -275.5 L199.5 -275.4 L197.6 -275.6 L195.6 -275.8 L193.7 -276.2 L191.9 -276.8 L190 -277.5 L188.3 -278.4 L186.6 -279.4 L185 -280.5 L183.5 -281.8 L182.1 -283.2 L180.8 -284.6 L179.7 -286.2 L178.6 -287.9 L177.7 -289.6 L177 -291.4 L176.4 -293.2 L175.9 -295.1 L175.6 -297.1 L175.5 -299 L175.5 -301 L175.6 -302.9 L175.9 -304.9 L176.4 -306.8 L177 -308.6 L177.7 -310.4 L178.6 -312.1 L179.7 -313.8 L180.8 -315.4 L182.1 -316.8 L183.5 -318.2 L185 -319.5 L186.6 -320.6 L188.3 -321.6 L190 -322.5 L191.9 -323.2 L193.7 -323.8 L195.6 -324.2 L197.6 -324.4 L199.5 -324.6 L201.5 -324.5 L203.4 -324.3 L205.3 -324 L207.2 -323.5 L209.1 -322.8 L210.9 -322 L212.6 -321.1 L214.2 -320 L215.8 -318.9 L217.2 -317.5 L218.5 -316.1 L219.8 -314.6 L220.9 -313 L221.8 -311.3 L222.7 -309.5 L223.3 -307.7 L223.9 -305.8 L224.3 -303.9 L224.5 -302 L224.6 -300 Z " />
<path stroke="rgb(0,0,0)" stroke-opacity="1" fill="rgb(255,255,255)" fill-opacity="1" d="M-405.7 -974.4 L-406.6 -975.7 L-407.4 -977 L-408.2 -978.2 L-409 -979.5 L-409.8 -980.8 L-410.7 -982 L-411.5 -983.3 L-412.3 -984.5 L-413.1 -985.8 L-413.9 -987.1 L-414.8 -988.3 L-415.6 -989.6 L-416.4 -990.9 L-417.2 -992.1 L-418 -993.4 L-418.9 -994.7 L-419.7 -995.9 L-420.5 -997.2 L-421.3 -998.5 L-422.1 -999.7 L-423 -1001 L-423.8 -1002 L-424.6 -1004 L-425.4 -1005 L-426.2 -1006 L-425 -1007 L-423.7 -1008 L-422.4 -1009 L-421.2 -1009 L-419.9 -1010 L-418.7 -1011 L-417.4 -1012 L-416.1 -1013 L-414.9 -1013 L-413.6 -1014 L-412.3 -1015 L-411.1 -1016 L-409.8 -1017 L-408.5 -1018 L-407.3 -1018 L-406 -1019 L-404.7 -1020 L-403.5 -1021 L-402.2 -1022 L-400.9 -1022 L-399.7 -1023 L-398.4 -1024 L-397.1 -1025 L-395.9 -1026 L-394.6 -1027 L-393.8 -1025 L-393 -1024 L-392.2 -1023 L-391.3 -1021 L-390.5 -1020 L-389.7 -1019 L-388.9 -1018 L-388.1 -1016 L-387.2 -1015 L-386.4 -1014 L-385.6 -1013 L-384.8 -1011 L-384 -1010 L-383.1 -1009 L-382.3 -1008 L-381.5 -1006 L-380.7 -1005 L-379.9 -1004 L-379 -1003 L-378.2 -1001 L-377.4 -1000 L-376.6 -998.7 L-375.8 -997.5 L-374.9 -996.2 L-374.1 -994.9 L-375.4 -994.1 L-376.6 -993.3 L-377.9 -992.5 L-379.2 -991.7 L-380.4 -990.8 L-381.7 -990 L-383 -989.2 L-384.2 -988.4 L-385.5 -987.5 L-386.8 -986.7 L-388 -985.9 L-389.3 -985.1 L-390.6 -984.3 L-391.8 -983.4 L-393.1 -982.6 L-394.4 -981.8 L-395.6 -981 L-396.9 -980.2 L-398.1 -979.3 L-399.4 -978.5 L-400.7 -977.7 L-401.9 -976.9 L-403.2 -976.1 L-404.5 -975.2 L-405.7 -974.4 Z " />
<path stroke="rgb(0,0,0)" stroke-opacity="1" fill="rgb(255,255,255)" fill-opacity="1" d="M-275.4 -200 L-275.5 -198 L-275.7 -196.1 L-276.1 -194.2 L-276.7 -192.3 L-277.3 -190.5 L-278.2 -188.7 L-279.1 -187 L-280.2 -185.4 L-281.5 -183.9 L-282.8 -182.5 L-284.2 -181.1 L-285.8 -180 L-287.4 -178.9 L-289.1 -178 L-290.9 -177.2 L-292.8 -176.5 L-294.7 -176 L-296.6 -175.7 L-298.5 -175.5 L-300.5 -175.4 L-302.4 -175.6 L-304.4 -175.8 L-306.3 -176.2 L-308.1 -176.8 L-310 -177.5 L-311.7 -178.4 L-313.4 -179.4 L-315 -180.5 L-316.5 -181.8 L-317.9 -183.2 L-319.2 -184.6 L-320.3 -186.2 L-321.4 -187.9 L-322.3 -189.6 L-323 -191.4 L-323.6 -193.2 L-324.1 -195.1 L-324.4 -197.1 L-324.5 -199 L-324.5 -201 L-324.4 -202.9 L-324.1 -204.9 L-323.6 -206.8 L-323 -208.6 L-322.3 -210.4 L-321.4 -212.1 L-320.3 -213.8 L-319.2 -215.4 L-317.9 -216.8 L-316.5 -218.2 L-315 -219.5 L-313.4 -220.6 L-311.7 -221.6 L-310 -222.5 L-308.1 -223.2 L-306.3 -223.8 L-304.4 -224.2 L-302.4 -224.4 L-300.5 -224.6 L-298.5 -224.5 L-296.6 -224.3 L-294.7 -224 L-292.8 -223.5 L-290.9 -222.8 L-289.1 -222 L-287.4 -221.1 L-285.8 -220 L-284.2 -218.9 L-282.8 -217.5 L-281.5 -216.1 L-280.2 -214.6 L-279.1 -213 L-278.2 -211.3 L-277.3 -209.5 L-276.7 -207.7 L-276.1 -205.8 L-275.7 -203.9 L-275.5 -202 L-275.4 -200 Z " />
<path stroke="rgb(0,0,0)" stroke-opacity="1" fill="rgb(255,255,255)" fill-opacity="1" d="M-924.6 -876.3 L-924.6 -878.3 L-924.6 -880.2 L-924.6 -882.2 L-924.6 -884.1 L-924.5 -886.1 L-924.5 -888 L-924.5 -890 L-924.5 -891.9 L-924.4 -893.9 L-924.4 -895.8 L-924.4 -897.8 L-924.4 -899.8 L-924.4 -901.7 L-924.3 -903.7 L-924.3 -905.6 L-924.3 -907.6 L-924.3 -909.5 L-924.3 -911.5 L-924.2 -913.4 L-924.2 -915.4 L-924.2 -917.3 L-924.2 -919.3 L-924.2 -921.2 L-924.1 -923.2 L-924.1 -925.1 L-922.2 -925.1 L-920.2 -925.1 L-918.3 -925.1 L-916.3 -925 L-914.4 -925 L-912.4 -925 L-910.5 -925 L-908.5 -925 L-906.6 -924.9 L-904.6 -924.9 L-902.7 -924.9 L-900.7 -924.9 L-898.8 -924.9 L-896.8 -924.8 L-894.9 -924.8 L-892.9 -924.8 L-891 -924.8 L-889 -924.7 L-887.1 -924.7 L-885.1 -924.7 L-883.1 -924.7 L-881.2 -924.7 L-879.2 -924.6 L-877.3 -924.6 L-875.3 -924.6 L-875.4 -922.7 L-875.4 -920.7 L-875.4 -918.8 L-875.4 -916.8 L-875.4 -914.8 L-875.5 -912.9 L-875.5 -910.9 L-875.5 -909 L-875.5 -907 L-875.5 -905.1 L-875.6 -903.1 L-875.6 -901.2 L-875.6 -899.2 L-875.6 -897.3 L-875.7 -895.3 L-875.7 -893.4 L-875.7 -891.4 L-875.7 -889.5 L-875.7 -887.5 L-875.8 -885.6 L-875.8 -883.6 L-875.8 -881.7 L-875.8 -879.7 L-875.8 -877.8 L-875.9 -875.8 L-877.8 -875.8 L-879.8 -875.9 L-881.7 -875.9 L-883.7 -875.9 L-885.6 -875.9 L-887.6 -875.9 L-889.5 -876 L-891.5 -876 L-893.4 -876 L-895.4 -876 L-897.3 -876.1 L-899.3 -876.1 L-901.2 -876.1 L-903.2 -876.1 L-905.1 -876.1 L-907.1 -876.2 L-909 -876.2 L-911 -876.2 L-912.9 -876.2 L-914.9 -876.2 L-916.8 -876.3 L-918.8 -876.3 L-920.7 -876.3 L-922.7 -876.3 L-924.6 -876.3 Z " />
<path stroke="rgb(0,0,0)" stroke-opacity="1" fill="rgb(255,255,255)" fill-opacity="1" d="M-75.42 -200 L-75.5 -198 L-75.73 -196.1 L-76.12 -194.2 L-76.66 -192.3 L-77.34 -190.5 L-78.17 -188.7 L-79.14 -187 L-80.23 -185.4 L-81.45 -183.9 L-82.79 -182.5 L-84.24 -181.1 L-85.79 -180 L-87.43 -178.9 L-89.15 -178 L-90.93 -177.2 L-92.77 -176.5 L-94.66 -176 L-96.59 -175.7 L-98.53 -175.5 L-100.5 -175.4 L-102.4 -175.6 L-104.4 -175.8 L-106.3 -176.2 L-108.1 -176.8 L-110 -177.5 L-111.7 -178.4 L-113.4 -179.4 L-115 -180.5 L-116.5 -181.8 L-117.9 -183.2 L-119.2 -184.6 L-120.3 -186.2 L-121.4 -187.9 L-122.3 -189.6 L-123 -191.4 L-123.6 -193.2 L-124.1 -195.1 L-124.4 -197.1 L-124.5 -199 L-124.5 -201 L-124.4 -202.9 L-124.1 -204.9 L-123.6 -206.8 L-123 -208.6 L-122.3 -210.4 L-121.4 -212.1 L-120.3 -213.8 L-119.2 -215.4 L-117.9 -216.8 L-116.5 -218.2 L-115 -219.5 L-113.4 -220.6 L-111.7 -221.6 L-110 -222.5 L-108.1 -223.2 L-106.3 -223.8 L-104.4 -224.2 L-102.4 -224.4 L-100.5 -224.6 L-98.53 -224.5 L-96.59 -224.3 L-94.66 -224 L-92.77 -223.5 L-90.93 -222.8 L-89.15 -222 L-87.43 -221.1 L-85.79 -220 L-84.24 -218.9 L-82.79 -217.5 L-81.45 -216.1 L-80.23 -214.6 L-79.14 -213 L-78.17 -211.3 L-77.34 -209.5 L-76.66 -207.7 L-76.12 -205.8 L-75.73 -203.9 L-75.5 -202 L-75.42 -200 Z " />
<path stroke="rgb(0,0,0)" stroke-opacity="1" fill="rgb(255,255,255)" fill-opacity="1" d="M-720.4 -874.9 L-720.6 -876.8 L-720.8 -878.6 L-721 -880.4 L-721.2 -882.3 L-721.4 -884.1 L-721.6 -886 L-721.9 -887.8 L-722.1 -889.6 L-722.3 -891.5 L-722.5 -893.3 L-722.7 -895.1 L-722.9 -897 L-723.1 -898.8 L-723.3 -900.7 L-723.5 -902.5 L-723.7 -904.3 L-723.9 -906.2 L-724.1 -908 L-724.3 -909.8 L-724.5 -911.7 L-724.8 -913.5 L-725 -915.3 L-725.2 -917.2 L-725.4 -919 L-725.6 -920.9 L-723.7 -921.1 L-721.9 -921.3 L-720.1 -921.5 L-718.2 -921.7 L-716.4 -921.9 L-714.6 -922.1 L-712.7 -922.3 L-710.9 -922.5 L-709 -922.7 L-707.2 -922.9 L-705.4 -923.1 L-703.5 -923.3 L-701.7 -923.5 L-699.9 -923.8 L-698 -924 L-696.2 -924.2 L-694.4 -924.4 L-692.5 -924.6 L-690.7 -924.8 L-688.8 -925 L-687 -925.2 L-685.2 -925.4 L-683.3 -925.6 L-681.5 -925.8 L-679.7 -926 L-679.5 -924.2 L-679.2 -922.4 L-679 -920.5 L-678.8 -918.7 L-678.6 -916.9 L-678.4 -915 L-678.2 -913.2 L-678 -911.3 L-677.8 -909.5 L-677.6 -907.7 L-677.4 -905.8 L-677.2 -904 L-677 -902.2 L-676.8 -900.3 L-676.6 -898.5 L-676.3 -896.6 L-676.1 -894.8 L-675.9 -893 L-675.7 -891.1 L-675.5 -889.3 L-675.3 -887.5 L-675.1 -885.6 L-674.9 -883.8 L-674.7 -882 L-674.5 -880.1 L-676.3 -879.9 L-678.2 -879.7 L-680 -879.5 L-681.8 -879.3 L-683.7 -879.1 L-685.5 -878.9 L-687.3 -878.7 L-689.2 -878.5 L-691 -878.2 L-692.8 -878 L-694.7 -877.8 L-696.5 -877.6 L-698.4 -877.4 L-700.2 -877.2 L-702 -877 L-703.9 -876.8 L-705.7 -876.6 L-707.5 -876.4 L-709.4 -876.2 L-711.2 -876 L-713.1 -875.8 L-714.9 -875.6 L-716.7 -875.3 L-718.6 -875.1 L-720.4 -874.9 Z " />
<path stroke="rgb(0,0,0)" stroke-opacity="1" fill="rgb(255,255,255)" fill-opacity="1" d="M124.6 -200 L124.5 -198 L124.3 -196.1 L123.9 -194.2 L123.3 -192.3 L122.7 -190.5 L121.8 -188.7 L120.9 -187 L119.8 -185.4 L118.5 -183.9 L117.2 -182.5 L115.8 -181.1 L114.2 -180 L112.6 -178.9 L110.9 -178 L109.1 -177.2 L107.2 -176.5 L105.3 -176 L103.4 -175.7 L101.5 -175.5 L99.52 -175.4 L97.57 -175.6 L95.63 -175.8 L93.72 -176.2 L91.86 -176.8 L90.04 -177.5 L88.29 -178.4 L86.61 -179.4 L85.02 -180.5 L83.52 -181.8 L82.12 -183.2 L80.84 -184.6 L79.68 -186.2 L78.65 -187.9 L77.75 -189.6 L76.99 -191.4 L76.38 -193.2 L75.92 -195.1 L75.61 -197.1 L75.45 -199 L75.45 -201 L75.61 -202.9 L75.92 -204.9 L76.38 -206.8 L76.99 -208.6 L77.75 -210.4 L78.65 -212.1 L79.68 -213.8 L80.84 -215.4 L82.12 -216.8 L83.52 -218.2 L85.02 -219.5 L86.61 -220.6 L88.29 -221.6 L90.04 -222.5 L91.86 -223.2 L93.72 -223.8 L95.63 -224.2 L97.57 -224.4 L99.52 -224.6 L101.5 -224.5 L103.4 -224.3 L105.3 -224 L107.2 -223.5 L109.1 -222.8 L110.9 -222 L112.6 -221.1 L114.2 -220 L115.8 -218.9 L117.2 -217.5 L118.5 -216.1 L119.8 -214.6 L120.9 -213 L121.8 -211.3 L122.7 -209.5 L123.3 -207.7 L123.9 -205.8 L124.3 -203.9 L124.5 -202 L124.6 -200 Z " />
<path stroke="rgb(0,0,0)" stroke-opacity="1" fill="rgb(255,255,255)" fill-opacity="1" d="M-505.7 -874.4 L-506.6 -875.7 L-507.4 -877 L-508.2 -878.2 L-509 -879.5 L-509.8 -880.8 L-510.7 -882 L-511.5 -883.3 L-512.3 -884.5 L-513.1 -885.8 L-513.9 -887.1 L-514.8 -888.3 L-515.6 -889.6 L-516.4 -890.9 L-517.2 -892.1 L-518 -893.4 L-518.9 -894.7 L-519.7 -895.9 L-520.5 -897.2 L-521.3 -898.5 L-522.1 -899.7 L-523 -901 L-523.8 -902.3 L-524.6 -903.5 L-525.4 -904.8 L-526.2 -906 L-525 -906.9 L-523.7 -907.7 L-522.4 -908.5 L-521.2 -909.3 L-519.9 -910.2 L-518.7 -911 L-517.4 -911.8 L-516.1 -912.6 L-514.9 -913.4 L-513.6 -914.3 L-512.3 -915.1 L-511.1 -915.9 L-509.8 -916.7 L-508.5 -917.5 L-507.3 -918.4 L-506 -919.2 L-504.7 -920 L-503.5 -920.8 L-502.2 -921.6 L-500.9 -922.5 L-499.7 -923.3 L-498.4 -924.1 L-497.1 -924.9 L-495.9 -925.7 L-494.6 -926.6 L-493.8 -925.3 L-493 -924 L-492.2 -922.8 L-491.3 -921.5 L-490.5 -920.2 L-489.7 -919 L-488.9 -917.7 L-488.1 -916.4 L-487.2 -915.2 L-486.4 -913.9 L-485.6 -912.6 L-484.8 -911.4 L-484 -910.1 L-483.1 -908.8 L-482.3 -907.6 L-481.5 -906.3 L-480.7 -905.1 L-479.9 -903.8 L-479 -902.5 L-478.2 -901.3 L-477.4 -900 L-476.6 -898.7 L-475.8 -897.5 L-474.9 -896.2 L-474.1 -894.9 L-475.4 -894.1 L-476.6 -893.3 L-477.9 -892.5 L-479.2 -891.7 L-480.4 -890.8 L-481.7 -890 L-483 -889.2 L-484.2 -888.4 L-485.5 -887.5 L-486.8 -886.7 L-488 -885.9 L-489.3 -885.1 L-490.6 -884.3 L-491.8 -883.4 L-493.1 -882.6 L-494.4 -881.8 L-495.6 -881 L-496.9 -880.2 L-498.1 -879.3 L-499.4 -878.5 L-500.7 -877.7 L-501.9 -876.9 L-503.2 -876.1 L-504.5 -875.2 L-505.7 -874.4 Z " />
<path stroke="rgb(0,0,0)" stroke-opacity="1" fill="rgb(255,255,255)" fill-opacity="1" d="M324.6 -200 L324.5 -198 L324.3 -196.1 L323.9 -194.2 L323.3 -192.3 L322.7 -190.5 L321.8 -188.7 L320.9 -187 L319.8 -185.4 L318.5 -183.9 L317.2 -182.5 L315.8 -181.1 L314.2 -180 L312.6 -178.9 L310.9 -178 L309.1 -177.2 L307.2 -176.5 L305.3 -176 L303.4 -175.7 L301.5 -175.5 L299.5 -175.4 L297.6 -175.6 L295.6 -175.8 L293.7 -176.2 L291.9 -176.8 L290 -177.5 L288.3 -178.4 L286.6 -179.4 L285 -180.5 L283.5 -181.8 L282.1 -183.2 L280.8 -184.6 L279.7 -186.2 L278.6 -187.9 L277.7 -189.6 L277 -191.4 L276.4 -193.2 L275.9 -195.1 L275.6 -197.1 L275.5 -199 L275.5 -201 L275.6 -202.9 L275.9 -204.9 L276.4 -206.8 L277 -208.6 L277.7 -210.4 L278.6 -212.1 L279.7 -213.8 L280.8 -215.4 L282.1 -216.8 L283.5 -218.2 L285 -219.5 L286.6 -220.6 L288.3 -221.6 L290 -222.5 L291.9 -223.2 L293.7 -223.8 L295.6 -224.2 L297.6 -224.4 L299.5 -224.6 L301.5 -224.5 L303.4 -224.3 L305.3 -224 L307.2 -223.5 L309.1 -222.8 L310.9 -222 L312.6 -221.1 L314.2 -220 L315.8 -218.9 L317.2 -217.5 L318.5 -216.1 L319.8 -214.6 L320.9 -213 L321.8 -211.3 L322.7 -209.5 L323.3 -207.7 L323.9 -205.8 L324.3 -203.9 L324.5 -202 L324.6 -200 Z " />
<path stroke="rgb(0,0,0)" stroke-opacity="1" fill="rgb(255,255,255)" fill-opacity="1" d="M-1025 -776.3 L-1025 -778.3 L-1025 -780.2 L-1025 -782.2 L-1025 -784.1 L-1025 -786.1 L-1025 -788 L-1024 -790 L-1024 -791.9 L-1024 -793.9 L-1024 -795.8 L-1024 -797.8 L-1024 -799.8 L-1024 -801.7 L-1024 -803.7 L-1024 -805.6 L-1024 -807.6 L-1024 -809.5 L-1024 -811.5 L-1024 -813.4 L-1024 -815.4 L-1024 -817.3 L-1024 -819.3 L-1024 -821.2 L-1024 -823.2 L-1024 -825.1 L-1022 -825.1 L-1020 -825.1 L-1018 -825.1 L-1016 -825 L-1014 -825 L-1012 -825 L-1010 -825 L-1009 -825 L-1007 -824.9 L-1005 -824.9 L-1003 -824.9 L-1001 -824.9 L-998.8 -824.9 L-996.8 -824.8 L-994.9 -824.8 L-992.9 -824.8 L-991 -824.8 L-989 -824.7 L-987.1 -824.7 L-985.1 -824.7 L-983.1 -824.7 L-981.2 -824.7 L-979.2 -824.6 L-977.3 -824.6 L-975.3 -824.6 L-975.4 -822.7 L-975.4 -820.7 L-975.4 -818.8 L-975.4 -816.8 L-975.4 -814.8 L-975.5 -812.9 L-975.5 -810.9 L-975.5 -809 L-975.5 -807 L-975.5 -805.1 L-975.6 -803.1 L-975.6 -801.2 L-975.6 -799.2 L-975.6 -797.3 L-975.7 -795.3 L-975.7 -793.4 L-975.7 -791.4 L-975.7 -789.5 L-975.7 -787.5 L-975.8 -785.6 L-975.8 -783.6 L-975.8 -781.7 L-975.8 -779.7 L-975.8 -777.8 L-975.9 -775.8 L-977.8 -775.8 L-979.8 -775.9 L-981.7 -775.9 L-983.7 -775.9 L-985.6 -775.9 L-987.6 -775.9 L-989.5 -776 L-991.5 -776 L-993.4 -776 L-995.4 -776 L-997.3 -776.1 L-999.3 -776.1 L-1001 -776.1 L-1003 -776.1 L-1005 -776.1 L-1007 -776.2 L-1009 -776.2 L-1011 -776.2 L-1013 -776.2 L-1015 -776.2 L-1017 -776.3 L-1019 -776.3 L-1021 -776.3 L-1023 -776.3 L-1025 -776.3 Z " />
<path stroke="rgb(0,0,0)" stroke-opacity="1" fill="rgb(255,255,255)" fill-opacity="1" d="M-175.4 -100 L-175.5 -98.05 L-175.7 -96.11 L-176.1 -94.19 L-176.7 -92.31 L-177.3 -90.48 L-178.2 -88.72 L-179.1 -87.02 L-180.2 -85.4 L-181.5 -83.88 L-182.8 -82.45 L-184.2 -81.14 L-185.8 -79.95 L-187.4 -78.89 L-189.1 -77.95 L-190.9 -77.16 L-192.8 -76.51 L-194.7 -76.02 L-196.6 -75.67 L-198.5 -75.47 L-200.5 -75.43 L-202.4 -75.55 L-204.4 -75.82 L-206.3 -76.25 L-208.1 -76.82 L-210 -77.54 L-211.7 -78.4 L-213.4 -79.4 L-215 -80.53 L-216.5 -81.78 L-217.9 -83.15 L-219.2 -84.63 L-220.3 -86.2 L-221.4 -87.86 L-222.3 -89.59 L-223 -91.39 L-223.6 -93.25 L-224.1 -95.15 L-224.4 -97.08 L-224.5 -99.02 L-224.5 -101 L-224.4 -102.9 L-224.1 -104.9 L-223.6 -106.8 L-223 -108.6 L-222.3 -110.4 L-221.4 -112.1 L-220.3 -113.8 L-219.2 -115.4 L-217.9 -116.8 L-216.5 -118.2 L-215 -119.5 L-213.4 -120.6 L-211.7 -121.6 L-210 -122.5 L-208.1 -123.2 L-206.3 -123.8 L-204.4 -124.2 L-202.4 -124.4 L-200.5 -124.6 L-198.5 -124.5 L-196.6 -124.3 L-194.7 -124 L-192.8 -123.5 L-190.9 -122.8 L-189.1 -122 L-187.4 -121.1 L-185.8 -120 L-184.2 -118.9 L-182.8 -117.5 L-181.5 -116.1 L-180.2 -114.6 L-179.1 -113 L-178.2 -111.3 L-177.3 -109.5 L-176.7 -107.7 L-176.1 -105.8 L-175.7 -103.9 L-175.5 -102 L-175.4 -100 Z " />
<path stroke="rgb(0,0,0)" stroke-opacity="1" fill="rgb(255,255,255)" fill-opacity="1" d="M-820.4 -774.9 L-820.6 -776.8 L-820.8 -778.6 L-821 -780.4 L-821.2 -782.3 L-821.4 -784.1 L-821.6 -786 L-821.9 -787.8 L-822.1 -789.6 L-822.3 -791.5 L-822.5 -793.3 L-822.7 -795.1 L-822.9 -797 L-823.1 -798.8 L-823.3 -800.7 L-823.5 -802.5 L-823.7 -804.3 L-823.9 -806.2 L-824.1 -808 L-824.3 -809.8 L-824.5 -811.7 L-824.8 -813.5 L-825 -815.3 L-825.2 -817.2 L-825.4 -819 L-825.6 -820.9 L-823.7 -821.1 L-821.9 -821.3 L-820.1 -821.5 L-818.2 -821.7 L-816.4 -821.9 L-814.6 -822.1 L-812.7 -822.3 L-810.9 -822.5 L-809 -822.7 L-807.2 -822.9 L-805.4 -823.1 L-803.5 -823.3 L-801.7 -823.5 L-799.9 -823.8 L-798 -824 L-796.2 -824.2 L-794.4 -824.4 L-792.5 -824.6 L-790.7 -824.8 L-788.8 -825 L-787 -825.2 L-785.2 -825.4 L-783.3 -825.6 L-781.5 -825.8 L-779.7 -826 L-779.5 -824.2 L-779.2 -822.4 L-779 -820.5 L-778.8 -818.7 L-778.6 -816.9 L-778.4 -815 L-778.2 -813.2 L-778 -811.3 L-777.8 -809.5 L-777.6 -807.7 L-777.4 -805.8 L-777.2 -804 L-777 -802.2 L-776.8 -800.3 L-776.6 -798.5 L-776.3 -796.6 L-776.1 -794.8 L-775.9 -793 L-775.7 -791.1 L-775.5 -789.3 L-775.3 -787.5 L-775.1 -785.6 L-774.9 -783.8 L-774.7 -782 L-774.5 -780.1 L-776.3 -779.9 L-778.2 -779.7 L-780 -779.5 L-781.8 -779.3 L-783.7 -779.1 L-785.5 -778.9 L-787.3 -778.7 L-789.2 -778.5 L-791 -778.2 L-792.8 -778 L-794.7 -777.8 L-796.5 -777.6 L-798.4 -777.4 L-800.2 -777.2 L-802 -777 L-803.9 -776.8 L-805.7 -776.6 L-807.5 -776.4 L-809.4 -776.2 L-811.2 -776 L-813.1 -775.8 L-814.9 -775.6 L-816.7 -775.3 L-818.6 -775.1 L-820.4 -774.9 Z " />
<path stroke="rgb(0,0,0)" stroke-opacity="1" fill="rgb(255,255,255)" fill-opacity="1" d="M24.58 -100 L24.5 -98.05 L24.27 -96.11 L23.88 -94.19 L23.34 -92.31 L22.66 -90.48 L21.83 -88.72 L20.86 -87.02 L19.77 -85.4 L18.55 -83.88 L17.21 -82.45 L15.76 -81.14 L14.21 -79.95 L12.57 -78.89 L10.85 -77.95 L9.068 -77.16 L7.225 -76.51 L5.337 -76.02 L3.414 -75.67 L1.47 -75.47 L-0.4831 -75.43 L-2.433 -75.55 L-4.368 -75.82 L-6.275 -76.25 L-8.143 -76.82 L-9.958 -77.54 L-11.71 -78.4 L-13.39 -79.4 L-14.98 -80.53 L-16.48 -81.78 L-17.88 -83.15 L-19.16 -84.63 L-20.32 -86.2 L-21.35 -87.86 L-22.25 -89.59 L-23.01 -91.39 L-23.62 -93.25 L-24.08 -95.15 L-24.39 -97.08 L-24.55 -99.02 L-24.55 -101 L-24.39 -102.9 L-24.08 -104.9 L-23.62 -106.8 L-23.01 -108.6 L-22.25 -110.4 L-21.35 -112.1 L-20.32 -113.8 L-19.16 -115.4 L-17.88 -116.8 L-16.48 -118.2 L-14.98 -119.5 L-13.39 -120.6 L-11.71 -121.6 L-9.958 -122.5 L-8.143 -123.2 L-6.275 -123.8 L-4.368 -124.2 L-2.433 -124.4 L-0.4831 -124.6 L1.47 -124.5 L3.414 -124.3 L5.337 -124 L7.225 -123.5 L9.068 -122.8 L10.85 -122 L12.57 -121.1 L14.21 -120 L15.76 -118.9 L17.21 -117.5 L18.55 -116.1 L19.77 -114.6 L20.86 -113 L21.83 -111.3 L22.66 -109.5 L23.34 -107.7 L23.88 -105.8 L24.27 -103.9 L24.5 -102 L24.58 -100 Z " />
<path stroke="rgb(0,0,0)" stroke-opacity="1" fill="rgb(255,255,255)" fill-opacity="1" d="M-605.7 -774.4 L-606.6 -775.7 L-607.4 -777 L-608.2 -778.2 L-609 -779.5 L-609.8 -780.8 L-610.7 -782 L-611.5 -783.3 L-612.3 -784.5 L-613.1 -785.8 L-613.9 -787.1 L-614.8 -788.3 L-615.6 -789.6 L-616.4 -790.9 L-617.2 -792.1 L-618 -793.4 L-618.9 -794.7 L-619.7 -795.9 L-620.5 -797.2 L-621.3 -798.5 L-622.1 -799.7 L-623 -801 L-623.8 -802.3 L-624.6 -803.5 L-625.4 -804.8 L-626.2 -806 L-625 -806.9 L-623.7 -807.7 L-622.4 -808.5 L-621.2 -809.3 L-619.9 -810.2 L-618.7 -811 L-617.4 -811.8 L-616.1 -812.6 L-614.9 -813.4 L-613.6 -814.3 L-612.3 -815.1 L-611.1 -815.9 L-609.8 -816.7 L-608.5 -817.5 L-607.3 -818.4 L-606 -819.2 L-604.7 -820 L-603.5 -820.8 L-602.2 -821.6 L-600.9 -822.5 L-599.7 -823.3 L-598.4 -824.1 L-597.1 -824.9 L-595.9 -825.7 L-594.6 -826.6 L-593.8 -825.3 L-593 -824 L-592.2 -822.8 L-591.3 -821.5 L-590.5 -820.2 L-589.7 -819 L-588.9 -817.7 L-588.1 -816.4 L-587.2 -815.2 L-586.4 -813.9 L-585.6 -812.6 L-584.8 -811.4 L-584 -810.1 L-583.1 -808.8 L-582.3 -807.6 L-581.5 -806.3 L-580.7 -805.1 L-579.9 -803.8 L-579 -802.5 L-578.2 -801.3 L-577.4 -800 L-576.6 -798.7 L-575.8 -797.5 L-574.9 -796.2 L-574.1 -794.9 L-575.4 -794.1 L-576.6 -793.3 L-577.9 -792.5 L-579.2 -791.7 L-580.4 -790.8 L-581.7 -790 L-583 -789.2 L-584.2 -788.4 L-585.5 -787.5 L-586.8 -786.7 L-588 -785.9 L-589.3 -785.1 L-590.6 -784.3 L-591.8 -783.4 L-593.1 -782.6 L-594.4 -781.8 L-595.6 -781 L-596.9 -780.2 L-598.1 -779.3 L-599.4 -778.5 L-600.7 -777.7 L-601.9 -776.9 L-603.2 -776.1 L-604.5 -775.2 L-605.7 -774.4 Z " />
<path stroke="rgb(0,0,0)" stroke-opacity="1" fill="rgb(255,255,255)" fill-opacity="1" d="M224.6 -100 L224.5 -98.05 L224.3 -96.11 L223.9 -94.19 L223.3 -92.31 L222.7 -90.48 L221.8 -88.72 L220.9 -87.02 L219.8 -85.4 L218.5 -83.88 L217.2 -82.45 L215.8 -81.14 L214.2 -79.95 L212.6 -78.89 L210.9 -77.95 L209.1 -77.16 L207.2 -76.51 L205.3 -76.02 L203.4 -75.67 L201.5 -75.47 L199.5 -75.43 L197.6 -75.55 L195.6 -75.82 L193.7 -76.25 L191.9 -76.82 L190 -77.54 L188.3 -78.4 L186.6 -79.4 L185 -80.53 L183.5 -81.78 L182.1 -83.15 L180.8 -84.63 L179.7 -86.2 L178.6 -87.86 L177.7 -89.59 L177 -91.39 L176.4 -93.25 L175.9 -95.15 L175.6 -97.08 L175.5 -99.02 L175.5 -101 L175.6 -102.9 L175.9 -104.9 L176.4 -106.8 L177 -108.6 L177.7 -110.4 L178.6 -112.1 L179.7 -113.8 L180.8 -115.4 L182.1 -116.8 L183.5 -118.2 L185 -119.5 L186.6 -120.6 L188.3 -121.6 L190 -122.5 L191.9 -123.2 L193.7 -123.8 L195.6 -124.2 L197.6 -124.4 L199.5 -124.6 L201.5 -124.5 L203.4 -124.3 L205.3 -124 L207.2 -123.5 L209.1 -122.8 L210.9 -122 L212.6 -121.1 L214.2 -120 L215.8 -118.9 L217.2 -117.5 L218.5 -116.1 L219.8 -114.6 L220.9 -113 L221.8 -111.3 L222.7 -109.5 L223.3 -107.7 L223.9 -105.8 L224.3 -103.9 L224.5 -102 L224.6 -100 Z " />
<path stroke="rgb(0,0,0)" stroke-opacity="1" fill="rgb(255,255,255)" fill-opacity="1" d="M-391.4 -782.8 L-392.5 -783.1 L-393.5 -783.5 L-394.6 -783.8 L-395.6 -784.2 L-396.7 -784.5 L-397.8 -784.9 L-398.8 -785.2 L-399.9 -785.6 L-401 -785.9 L-402 -786.3 L-403.1 -786.6 L-404.1 -787 L-405.2 -787.3 L-406.3 -787.6 L-407.3 -788 L-408.4 -788.3 L-409.5 -788.7 L-410.5 -789 L-411.6 -789.4 L-412.6 -789.7 L-413.7 -790.1 L-414.8 -790.4 L-415.8 -790.8 L-416.9 -791.1 L-418 -791.5 L-417.6 -792.5 L-417.3 -793.6 L-416.9 -794.7 L-416.6 -795.7 L-416.2 -796.8 L-415.9 -797.8 L-415.5 -798.9 L-415.2 -800 L-414.8 -801 L-414.5 -802.1 L-414.1 -803.2 L-413.8 -804.2 L-413.4 -805.3 L-413.1 -806.3 L-412.7 -807.4 L-412.4 -808.5 L-412 -809.5 L-411.7 -810.6 L-411.3 -811.7 L-411 -812.7 L-410.6 -813.8 L-410.3 -814.8 L-409.9 -815.9 L-409.6 -817 L-409.3 -818 L-408.2 -817.7 L-407.1 -817.3 L-406.1 -817 L-405 -816.6 L-403.9 -816.3 L-402.9 -815.9 L-401.8 -815.6 L-400.8 -815.3 L-399.7 -814.9 L-398.6 -814.6 L-397.6 -814.2 L-396.5 -813.9 L-395.4 -813.5 L-394.4 -813.2 L-393.3 -812.8 L-392.3 -812.5 L-391.2 -812.1 L-390.1 -811.8 L-389.1 -811.4 L-388 -811.1 L-386.9 -810.7 L-385.9 -810.4 L-384.8 -810 L-383.8 -809.7 L-382.7 -809.3 L-383 -808.3 L-383.4 -807.2 L-383.7 -806.2 L-384.1 -805.1 L-384.4 -804 L-384.8 -803 L-385.1 -801.9 L-385.5 -800.8 L-385.8 -799.8 L-386.2 -798.7 L-386.5 -797.7 L-386.9 -796.6 L-387.2 -795.5 L-387.6 -794.5 L-387.9 -793.4 L-388.3 -792.3 L-388.6 -791.3 L-389 -790.2 L-389.3 -789.2 L-389.6 -788.1 L-390 -787 L-390.3 -786 L-390.7 -784.9 L-391 -783.8 L-391.4 -782.8 Z " />
<path stroke="rgb(0,0,0)" stroke-opacity="1" fill="rgb(255,255,255)" fill-opacity="1" d="M-275.4 -4.672e-10 L-275.5 1.952 L-275.7 3.892 L-276.1 5.807 L-276.7 7.685 L-277.3 9.515 L-278.2 11.28 L-279.1 12.98 L-280.2 14.6 L-281.5 16.12 L-282.8 17.55 L-284.2 18.86 L-285.8 20.05 L-287.4 21.11 L-289.1 22.05 L-290.9 22.84 L-292.8 23.49 L-294.7 23.98 L-296.6 24.33 L-298.5 24.53 L-300.5 24.57 L-302.4 24.45 L-304.4 24.18 L-306.3 23.75 L-308.1 23.18 L-310 22.46 L-311.7 21.6 L-313.4 20.6 L-315 19.47 L-316.5 18.22 L-317.9 16.85 L-319.2 15.37 L-320.3 13.8 L-321.4 12.14 L-322.3 10.41 L-323 8.607 L-323.6 6.752 L-324.1 4.853 L-324.4 2.924 L-324.5 0.9768 L-324.5 -0.9768 L-324.4 -2.924 L-324.1 -4.853 L-323.6 -6.752 L-323 -8.607 L-322.3 -10.41 L-321.4 -12.14 L-320.3 -13.8 L-319.2 -15.37 L-317.9 -16.85 L-316.5 -18.22 L-315 -19.47 L-313.4 -20.6 L-311.7 -21.6 L-310 -22.46 L-308.1 -23.18 L-306.3 -23.75 L-304.4 -24.18 L-302.4 -24.45 L-300.5 -24.57 L-298.5 -24.53 L-296.6 -24.33 L-294.7 -23.98 L-292.8 -23.49 L-290.9 -22.84 L-289.1 -22.05 L-287.4 -21.11 L-285.8 -20.05 L-284.2 -18.86 L-282.8 -17.55 L-281.5 -16.12 L-280.2 -14.6 L-279.1 -12.98 L-278.2 -11.28 L-277.3 -9.515 L-276.7 -7.685 L-276.1 -5.807 L-275.7 -3.892 L-275.5 -1.952 L-275.4 -4.672e-10 Z " />
<path stroke="rgb(0,0,0)" stroke-opacity="1" fill="rgb(255,255,255)" fill-opacity="1" d="M-920.4 -674.9 L-920.6 -676.8 L-920.8 -678.6 L-921 -680.4 L-921.2 -682.3 L-921.4 -684.1 L-921.6 -686 L-921.9 -687.8 L-922.1 -689.6 L-922.3 -691.5 L-922.5 -693.3 L-922.7 -695.1 L-922.9 -697 L-923.1 -698.8 L-923.3 -700.7 L-923.5 -702.5 L-923.7 -704.3 L-923.9 -706.2 L-924.1 -708 L-924.3 -709.8 L-924.5 -711.7 L-924.8 -713.5 L-925 -715.3 L-925.2 -717.2 L-925.4 -719 L-925.6 -720.9 L-923.7 -721.1 L-921.9 -721.3 L-920.1 -721.5 L-918.2 -721.7 L-916.4 -721.9 L-914.6 -722.1 L-912.7 -722.3 L-910.9 -722.5 L-909 -722.7 L-907.2 -722.9 L-905.4 -723.1 L-903.5 -723.3 L-901.7 -723.5 L-899.9 -723.8 L-898 -724 L-896.2 -724.2 L-894.4 -724.4 L-892.5 -724.6 L-890.7 -724.8 L-888.8 -725 L-887 -725.2 L-885.2 -725.4 L-883.3 -725.6 L-881.5 -725.8 L-879.7 -726 L-879.5 -724.2 L-879.2 -722.4 L-879 -720.5 L-878.8 -718.7 L-878.6 -716.9 L-878.4 -715 L-878.2 -713.2 L-878 -711.3 L-877.8 -709.5 L-877.6 -707.7 L-877.4 -705.8 L-877.2 -704 L-877 -702.2 L-876.8 -700.3 L-876.6 -698.5 L-876.3 -696.6 L-876.1 -694.8 L-875.9 -693 L-875.7 -691.1 L-875.5 -689.3 L-875.3 -687.5 L-875.1 -685.6 L-874.9 -683.8 L-874.7 -682 L-874.5 -680.1 L-876.3 -679.9 L-878.2 -679.7 L-880 -679.5 L-881.8 -679.3 L-883.7 -679.1 L-885.5 -678.9 L-887.3 -678.7 L-889.2 -678.5 L-891 -678.2 L-892.8 -678 L-894.7 -677.8 L-896.5 -677.6 L-898.4 -677.4 L-900.2 -677.2 L-902 -677 L-903.9 -676.8 L-905.7 -676.6 L-907.5 -676.4 L-909.4 -676.2 L-911.2 -676 L-913.1 -675.8 L-914.9 -675.6 L-916.7 -675.3 L-918.6 -675.1 L-920.4 -674.9 Z " />
<path stroke="rgb(0,0,0)" stroke-opacity="1" fill="rgb(255,255,255)" fill-opacity="1" d="M-75.42 -4.675e-10 L-75.5 1.952 L-75.73 3.892 L-76.12 5.807 L-76.66 7.685 L-77.34 9.515 L-78.17 11.28 L-79.14 12.98 L-80.23 14.6 L-81.45 16.12 L-82.79 17.55 L-84.24 18.86 L-85.79 20.05 L-87.43 21.11 L-89.15 22.05 L-90.93 22.84 L-92.77 23.49 L-94.66 23.98 L-96.59 24.33 L-98.53 24.53 L-100.5 24.57 L-102.4 24.45 L-104.4 24.18 L-106.3 23.75 L-108.1 23.18 L-110 22.46 L-111.7 21.6 L-113.4 20.6 L-115 19.47 L-116.5 18.22 L-117.9 16.85 L-119.2 15.37 L-120.3 13.8 L-121.4 12.14 L-122.3 10.41 L-123 8.607 L-123.6 6.752 L-124.1 4.853 L-124.4 2.924 L-124.5 0.9768 L-124.5 -0.9768 L-124.4 -2.924 L-124.1 -4.853 L-123.6 -6.752 L-123 -8.607 L-122.3 -10.41 L-121.4 -12.14 L-120.3 -13.8 L-119.2 -15.37 L-117.9 -16.85 L-116.5 -18.22 L-115 -19.47 L-113.4 -20.6 L-111.7 -21.6 L-110 -22.46 L-108.1 -23.18 L-106.3 -23.75 L-104.4 -24.18 L-102.4 -24.45 L-100.5 -24.57 L-98.53 -24.53 L-96.59 -24.33 L-94.66 -23.98 L-92.77 -23.49 L-90.93 -22.84 L-89.15 -22.05 L-87.43 -21.11 L-85.79 -20.05 L-84.24 -18.86 L-82.79 -17.55 L-81.45 -16.12 L-80.23 -14.6 L-79.14 -12.98 L-78.17 -11.28 L-77.34 -9.515 L-76.66 -7.685 L-76.12 -5.807 L-75.73 -3.892 L-75.5 -1.952 L-75.42 -4.675e-10 Z " />
<path stroke="rgb(0,0,0)" stroke-opacity="1" fill="rgb(255,255,255)" fill-opacity="1" d="M-705.7 -674.4 L-706.6 -675.7 L-707.4 -677 L-708.2 -678.2 L-709 -679.5 L-709.8 -680.8 L-710.7 -682 L-711.5 -683.3 L-712.3 -684.5 L-713.1 -685.8 L-713.9 -687.1 L-714.8 -688.3 L-715.6 -689.6 L-716.4 -690.9 L-717.2 -692.1 L-718 -693.4 L-718.9 -694.7 L-719.7 -695.9 L-720.5 -697.2 L-721.3 -698.5 L-722.1 -699.7 L-723 -701 L-723.8 -702.3 L-724.6 -703.5 L-725.4 -704.8 L-726.2 -706 L-725 -706.9 L-723.7 -707.7 L-722.4 -708.5 L-721.2 -709.3 L-719.9 -710.2 L-718.7 -711 L-717.4 -711.8 L-716.1 -712.6 L-714.9 -713.4 L-713.6 -714.3 L-712.3 -715.1 L-711.1 -715.9 L-709.8 -716.7 L-708.5 -717.5 L-707.3 -718.4 L-706 -719.2 L-704.7 -720 L-703.5 -720.8 L-702.2 -721.6 L-700.9 -722.5 L-699.7 -723.3 L-698.4 -724.1 L-697.1 -724.9 L-695.9 -725.7 L-694.6 -726.6 L-693.8 -725.3 L-693 -724 L-692.2 -722.8 L-691.3 -721.5 L-690.5 -720.2 L-689.7 -719 L-688.9 -717.7 L-688.1 -716.4 L-687.2 -715.2 L-686.4 -713.9 L-685.6 -712.6 L-684.8 -711.4 L-684 -710.1 L-683.1 -708.8 L-682.3 -707.6 L-681.5 -706.3 L-680.7 -705.1 L-679.9 -703.8 L-679 -702.5 L-678.2 -701.3 L-677.4 -700 L-676.6 -698.7 L-675.8 -697.5 L-674.9 -696.2 L-674.1 -694.9 L-675.4 -694.1 L-676.6 -693.3 L-677.9 -692.5 L-679.2 -691.7 L-680.4 -690.8 L-681.7 -690 L-683 -689.2 L-684.2 -688.4 L-685.5 -687.5 L-686.8 -686.7 L-688 -685.9 L-689.3 -685.1 L-690.6 -684.3 L-691.8 -683.4 L-693.1 -682.6 L-694.4 -681.8 L-695.6 -681 L-696.9 -680.2 L-698.1 -679.3 L-699.4 -678.5 L-700.7 -677.7 L-701.9 -676.9 L-703.2 -676.1 L-704.5 -675.2 L-705.7 -674.4 Z " />
<path stroke="rgb(0,0,0)" stroke-opacity="1" fill="rgb(255,255,255)" fill-opacity="1" d="M124.6 -4.67e-10 L124.5 1.952 L124.3 3.892 L123.9 5.807 L123.3 7.685 L122.7 9.515 L121.8 11.28 L120.9 12.98 L119.8 14.6 L118.5 16.12 L117.2 17.55 L115.8 18.86 L114.2 20.05 L112.6 21.11 L110.9 22.05 L109.1 22.84 L107.2 23.49 L105.3 23.98 L103.4 24.33 L101.5 24.53 L99.52 24.57 L97.57 24.45 L95.63 24.18 L93.72 23.75 L91.86 23.18 L90.04 22.46 L88.29 21.6 L86.61 20.6 L85.02 19.47 L83.52 18.22 L82.12 16.85 L80.84 15.37 L79.68 13.8 L78.65 12.14 L77.75 10.41 L76.99 8.607 L76.38 6.752 L75.92 4.853 L75.61 2.924 L75.45 0.9768 L75.45 -0.9768 L75.61 -2.924 L75.92 -4.853 L76.38 -6.752 L76.99 -8.607 L77.75 -10.41 L78.65 -12.14 L79.68 -13.8 L80.84 -15.37 L82.12 -16.85 L83.52 -18.22 L85.02 -19.47 L86.61 -20.6 L88.29 -21.6 L90.04 -22.46 L91.86 -23.18 L93.72 -23.75 L95.63 -24.18 L97.57 -24.45 L99.52 -24.57 L101.5 -24.53 L103.4 -24.33 L105.3 -23.98 L107.2 -23.49 L109.1 -22.84 L110.9 -22.05 L112.6 -21.11 L114.2 -20.05 L115.8 -18.86 L117.2 -17.55 L118.5 -16.12 L119.8 -14.6 L120.9 -12.98 L121.8 -11.28 L122.7 -9.515 L123.3 -7.685 L123.9 -5.807 L124.3 -3.892 L124.5 -1.952 L124.6 -4.67e-10 Z " />
<path stroke="rgb(0,0,0)" stroke-opacity="1" fill="rgb(255,255,255)" fill-opacity="1" d="M-491.4 -682.8 L-492.5 -683.1 L-493.5 -683.5 L-494.6 -683.8 L-495.6 -684.2 L-496.7 -684.5 L-497.8 -684.9 L-498.8 -685.2 L-499.9 -685.6 L-501 -685.9 L-502 -686.3 L-503.1 -686.6 L-504.1 -687 L-505.2 -687.3 L-506.3 -687.6 L-507.3 -688 L-508.4 -688.3 L-509.5 -688.7 L-510.5 -689 L-511.6 -689.4 L-512.6 -689.7 L-513.7 -690.1 L-514.8 -690.4 L-515.8 -690.8 L-516.9 -691.1 L-518 -691.5 L-517.6 -692.5 L-517.3 -693.6 L-516.9 -694.7 L-516.6 -695.7 L-516.2 -696.8 L-515.9 -697.8 L-515.5 -698.9 L-515.2 -700 L-514.8 -701 L-514.5 -702.1 L-514.1 -703.2 L-513.8 -704.2 L-513.4 -705.3 L-513.1 -706.3 L-512.7 -707.4 L-512.4 -708.5 L-512 -709.5 L-511.7 -710.6 L-511.3 -711.7 L-511 -712.7 L-510.6 -713.8 L-510.3 -714.8 L-509.9 -715.9 L-509.6 -717 L-509.3 -718 L-508.2 -717.7 L-507.1 -717.3 L-506.1 -717 L-505 -716.6 L-503.9 -716.3 L-502.9 -715.9 L-501.8 -715.6 L-500.8 -715.3 L-499.7 -714.9 L-498.6 -714.6 L-497.6 -714.2 L-496.5 -713.9 L-495.4 -713.5 L-494.4 -713.2 L-493.3 -712.8 L-492.3 -712.5 L-491.2 -712.1 L-490.1 -711.8 L-489.1 -711.4 L-488 -711.1 L-486.9 -710.7 L-485.9 -710.4 L-484.8 -710 L-483.8 -709.7 L-482.7 -709.3 L-483 -708.3 L-483.4 -707.2 L-483.7 -706.2 L-484.1 -705.1 L-484.4 -704 L-484.8 -703 L-485.1 -701.9 L-485.5 -700.8 L-485.8 -699.8 L-486.2 -698.7 L-486.5 -697.7 L-486.9 -696.6 L-487.2 -695.5 L-487.6 -694.5 L-487.9 -693.4 L-488.3 -692.3 L-488.6 -691.3 L-489 -690.2 L-489.3 -689.2 L-489.6 -688.1 L-490 -687 L-490.3 -686 L-490.7 -684.9 L-491 -683.8 L-491.4 -682.8 Z " />
<path stroke="rgb(0,0,0)" stroke-opacity="1" fill="rgb(255,255,255)" fill-opacity="1" d="M324.6 -4.673e-10 L324.5 1.952 L324.3 3.892 L323.9 5.807 L323.3 7.685 L322.7 9.515 L321.8 11.28 L320.9 12.98 L319.8 14.6 L318.5 16.12 L317.2 17.55 L315.8 18.86 L314.2 20.05 L312.6 21.11 L310.9 22.05 L309.1 22.84 L307.2 23.49 L305.3 23.98 L303.4 24.33 L301.5 24.53 L299.5 24.57 L297.6 24.45 L295.6 24.18 L293.7 23.75 L291.9 23.18 L290 22.46 L288.3 21.6 L286.6 20.6 L285 19.47 L283.5 18.22 L282.1 16.85 L280.8 15.37 L279.7 13.8 L278.6 12.14 L277.7 10.41 L277 8.607 L276.4 6.752 L275.9 4.853 L275.6 2.924 L275.5 0.9768 L275.5 -0.9768 L275.6 -2.924 L275.9 -4.853 L276.4 -6.752 L277 -8.607 L277.7 -10.41 L278.6 -12.14 L279.7 -13.8 L280.8 -15.37 L282.1 -16.85 L283.5 -18.22 L285 -19.47 L286.6 -20.6 L288.3 -21.6 L290 -22.46 L291.9 -23.18 L293.7 -23.75 L295.6 -24.18 L297.6 -24.45 L299.5 -24.57 L301.5 -24.53 L303.4 -24.33 L305.3 -23.98 L307.2 -23.49 L309.1 -22.84 L310.9 -22.05 L312.6 -21.11 L314.2 -20.05 L315.8 -18.86 L317.2 -17.55 L318.5 -16.12 L319.8 -14.6 L320.9 -12.98 L321.8 -11.28 L322.7 -9.515 L323.3 -7.685 L323.9 -5.807 L324.3 -3.892 L324.5 -1.952 L324.6 -4.673e-10 Z " />
<path stroke="rgb(0,0,0)" stroke-opacity="1" fill="rgb(255,255,255)" fill-opacity="1" d="M-1020 -574.9 L-1021 -576.8 L-1021 -578.6 L-1021 -580.4 L-1021 -582.3 L-1021 -584.1 L-1022 -586 L-1022 -587.8 L-1022 -589.6 L-1022 -591.5 L-1022 -593.3 L-1023 -595.1 L-1023 -597 L-1023 -598.8 L-1023 -600.7 L-1024 -602.5 L-1024 -604.3 L-1024 -606.2 L-1024 -608 L-1024 -609.8 L-1025 -611.7 L-1025 -613.5 L-1025 -615.3 L-1025 -617.2 L-1025 -619 L-1026 -620.9 L-1024 -621.1 L-1022 -621.3 L-1020 -621.5 L-1018 -621.7 L-1016 -621.9 L-1015 -622.1 L-1013 -622.3 L-1011 -622.5 L-1009 -622.7 L-1007 -622.9 L-1005 -623.1 L-1004 -623.3 L-1002 -623.5 L-999.9 -623.8 L-998 -624 L-996.2 -624.2 L-994.4 -624.4 L-992.5 -624.6 L-990.7 -624.8 L-988.8 -625 L-987 -625.2 L-985.2 -625.4 L-983.3 -625.6 L-981.5 -625.8 L-979.7 -626 L-979.5 -624.2 L-979.2 -622.4 L-979 -620.5 L-978.8 -618.7 L-978.6 -616.9 L-978.4 -615 L-978.2 -613.2 L-978 -611.3 L-977.8 -609.5 L-977.6 -607.7 L-977.4 -605.8 L-977.2 -604 L-977 -602.2 L-976.8 -600.3 L-976.6 -598.5 L-976.3 -596.6 L-976.1 -594.8 L-975.9 -593 L-975.7 -591.1 L-975.5 -589.3 L-975.3 -587.5 L-975.1 -585.6 L-974.9 -583.8 L-974.7 -582 L-974.5 -580.1 L-976.3 -579.9 L-978.2 -579.7 L-980 -579.5 L-981.8 -579.3 L-983.7 -579.1 L-985.5 -578.9 L-987.3 -578.7 L-989.2 -578.5 L-991 -578.2 L-992.8 -578 L-994.7 -577.8 L-996.5 -577.6 L-998.4 -577.4 L-1000 -577.2 L-1002 -577 L-1004 -576.8 L-1006 -576.6 L-1008 -576.4 L-1009 -576.2 L-1011 -576 L-1013 -575.8 L-1015 -575.6 L-1017 -575.3 L-1019 -575.1 L-1020 -574.9 Z " />
<path stroke="rgb(0,0,0)" stroke-opacity="1" fill="rgb(255,255,255)" fill-opacity="1" d="M-175.4 100 L-175.5 102 L-175.7 103.9 L-176.1 105.8 L-176.7 107.7 L-177.3 109.5 L-178.2 111.3 L-179.1 113 L-180.2 114.6 L-181.5 116.1 L-182.8 117.5 L-184.2 118.9 L-185.8 120 L-187.4 121.1 L-189.1 122 L-190.9 122.8 L-192.8 123.5 L-194.7 124 L-196.6 124.3 L-198.5 124.5 L-200.5 124.6 L-202.4 124.4 L-204.4 124.2 L-206.3 123.8 L-208.1 123.2 L-210 122.5 L-211.7 121.6 L-213.4 120.6 L-215 119.5 L-216.5 118.2 L-217.9 116.8 L-219.2 115.4 L-220.3 113.8 L-221.4 112.1 L-222.3 110.4 L-223 108.6 L-223.6 106.8 L-224.1 104.9 L-224.4 102.9 L-224.5 101 L-224.5 99.02 L-224.4 97.08 L-224.1 95.15 L-223.6 93.25 L-223 91.39 L-222.3 89.59 L-221.4 87.86 L-220.3 86.2 L-219.2 84.63 L-217.9 83.15 L-216.5 81.78 L-215 80.53 L-213.4 79.4 L-211.7 78.4 L-210 77.54 L-208.1 76.82 L-206.3 76.25 L-204.4 75.82 L-202.4 75.55 L-200.5 75.43 L-198.5 75.47 L-196.6 75.67 L-194.7 76.02 L-192.8 76.51 L-190.9 77.16 L-189.1 77.95 L-187.4 78.89 L-185.8 79.95 L-184.2 81.14 L-182.8 82.45 L-181.5 83.88 L-180.2 85.4 L-179.1 87.02 L-178.2 88.72 L-177.3 90.48 L-176.7 92.31 L-176.1 94.19 L-175.7 96.11 L-175.5 98.05 L-175.4 100 Z " />
<path stroke="rgb(0,0,0)" stroke-opacity="1" fill="rgb(255,255,255)" fill-opacity="1" d="M-805.7 -574.4 L-806.6 -575.7 L-807.4 -577 L-808.2 -578.2 L-809 -579.5 L-809.8 -580.8 L-810.7 -582 L-811.5 -583.3 L-812.3 -584.5 L-813.1 -585.8 L-813.9 -587.1 L-814.8 -588.3 L-815.6 -589.6 L-816.4 -590.9 L-817.2 -592.1 L-818 -593.4 L-818.9 -594.7 L-819.7 -595.9 L-820.5 -597.2 L-821.3 -598.5 L-822.1 -599.7 L-823 -601 L-823.8 -602.3 L-824.6 -603.5 L-825.4 -604.8 L-826.2 -606 L-825 -606.9 L-823.7 -607.7 L-822.4 -608.5 L-821.2 -609.3 L-819.9 -610.2 L-818.7 -611 L-817.4 -611.8 L-816.1 -612.6 L-814.9 -613.4 L-813.6 -614.3 L-812.3 -615.1 L-811.1 -615.9 L-809.8 -616.7 L-808.5 -617.5 L-807.3 -618.4 L-806 -619.2 L-804.7 -620 L-803.5 -620.8 L-802.2 -621.6 L-800.9 -622.5 L-799.7 -623.3 L-798.4 -624.1 L-797.1 -624.9 L-795.9 -625.7 L-794.6 -626.6 L-793.8 -625.3 L-793 -624 L-792.2 -622.8 L-791.3 -621.5 L-790.5 -620.2 L-789.7 -619 L-788.9 -617.7 L-788.1 -616.4 L-787.2 -615.2 L-786.4 -613.9 L-785.6 -612.6 L-784.8 -611.4 L-784 -610.1 L-783.1 -608.8 L-782.3 -607.6 L-781.5 -606.3 L-780.7 -605.1 L-779.9 -603.8 L-779 -602.5 L-778.2 -601.3 L-777.4 -600 L-776.6 -598.7 L-775.8 -597.5 L-774.9 -596.2 L-774.1 -594.9 L-775.4 -594.1 L-776.6 -593.3 L-777.9 -592.5 L-779.2 -591.7 L-780.4 -590.8 L-781.7 -590 L-783 -589.2 L-784.2 -588.4 L-785.5 -587.5 L-786.8 -586.7 L-788 -585.9 L-789.3 -585.1 L-790.6 -584.3 L-791.8 -583.4 L-793.1 -582.6 L-794.4 -581.8 L-795.6 -581 L-796.9 -580.2 L-798.1 -579.3 L-799.4 -578.5 L-800.7 -577.7 L-801.9 -576.9 L-803.2 -576.1 L-804.5 -575.2 L-805.7 -574.4 Z " />
<path stroke="rgb(0,0,0)" stroke-opacity="1" fill="rgb(255,255,255)" fill-opacity="1" d="M24.58 100 L24.5 102 L24.27 103.9 L23.88 105.8 L23.34 107.7 L22.66 109.5 L21.83 111.3 L20.86 113 L19.77 114.6 L18.55 116.1 L17.21 117.5 L15.76 118.9 L14.21 120 L12.57 121.1 L10.85 122 L9.068 122.8 L7.225 123.5 L5.337 124 L3.414 124.3 L1.47 124.5 L-0.4831 124.6 L-2.433 124.4 L-4.368 124.2 L-6.275 123.8 L-8.143 123.2 L-9.958 122.5 L-11.71 121.6 L-13.39 120.6 L-14.98 119.5 L-16.48 118.2 L-17.88 116.8 L-19.16 115.4 L-20.32 113.8 L-21.35 112.1 L-22.25 110.4 L-23.01 108.6 L-23.62 106.8 L-24.08 104.9 L-24.39 102.9 L-24.55 101 L-24.55 99.02 L-24.39 97.08 L-24.08 95.15 L-23.62 93.25 L-23.01 91.39 L-22.25 89.59 L-21.35 87.86 L-20.32 86.2 L-19.16 84.63 L-17.88 83.15 L-16.48 81.78 L-14.98 80.53 L-13.39 79.4 L-11.71 78.4 L-9.958 77.54 L-8.143 76.82 L-6.275 76.25 L-4.368 75.82 L-2.433 75.55 L-0.4831 75.43 L1.47 75.47 L3.414 75.67 L5.337 76.02 L7.225 76.51 L9.068 77.16 L10.85 77.95 L12.57 78.89 L14.21 79.95 L15.76 81.14 L17.21 82.45 L18.55 83.88 L19.77 85.4 L20.86 87.02 L21.83 88.72 L22.66 90.48 L23.34 92.31 L23.88 94.19 L24.27 96.11 L24.5 98.05 L24.58 100 Z " />
<path stroke="rgb(0,0,0)" stroke-opacity="1" fill="rgb(255,255,255)" fill-opacity="1" d="M-591.4 -582.8 L-592.5 -583.1 L-593.5 -583.5 L-594.6 -583.8 L-595.6 -584.2 L-596.7 -584.5 L-597.8 -584.9 L-598.8 -585.2 L-599.9 -585.6 L-601 -585.9 L-602 -586.3 L-603.1 -586.6 L-604.1 -587 L-605.2 -587.3 L-606.3 -587.6 L-607.3 -588 L-608.4 -588.3 L-609.5 -588.7 L-610.5 -589 L-611.6 -589.4 L-612.6 -589.7 L-613.7 -590.1 L-614.8 -590.4 L-615.8 -590.8 L-616.9 -591.1 L-618 -591.5 L-617.6 -592.5 L-617.3 -593.6 L-616.9 -594.7 L-616.6 -595.7 L-616.2 -596.8 L-615.9 -597.8 L-615.5 -598.9 L-615.2 -600 L-614.8 -601 L-614.5 -602.1 L-614.1 -603.2 L-613.8 -604.2 L-613.4 -605.3 L-613.1 -606.3 L-612.7 -607.4 L-612.4 -608.5 L-612 -609.5 L-611.7 -610.6 L-611.3 -611.7 L-611 -612.7 L-610.6 -613.8 L-610.3 -614.8 L-609.9 -615.9 L-609.6 -617 L-609.3 -618 L-608.2 -617.7 L-607.1 -617.3 L-606.1 -617 L-605 -616.6 L-603.9 -616.3 L-602.9 -615.9 L-601.8 -615.6 L-600.8 -615.3 L-599.7 -614.9 L-598.6 -614.6 L-597.6 -614.2 L-596.5 -613.9 L-595.4 -613.5 L-594.4 -613.2 L-593.3 -612.8 L-592.3 -612.5 L-591.2 -612.1 L-590.1 -611.8 L-589.1 -611.4 L-588 -611.1 L-586.9 -610.7 L-585.9 -610.4 L-584.8 -610 L-583.8 -609.7 L-582.7 -609.3 L-583 -608.3 L-583.4 -607.2 L-583.7 -606.2 L-584.1 -605.1 L-584.4 -604 L-584.8 -603 L-585.1 -601.9 L-585.5 -600.8 L-585.8 -599.8 L-586.2 -598.7 L-586.5 -597.7 L-586.9 -596.6 L-587.2 -595.5 L-587.6 -594.5 L-587.9 -593.4 L-588.3 -592.3 L-588.6 -591.3 L-589 -590.2 L-589.3 -589.2 L-589.6 -588.1 L-590 -587 L-590.3 -586 L-590.7 -584.9 L-591 -583.8 L-591.4 -582.8 Z " />
<path stroke="rgb(0,0,0)" stroke-opacity="1" fill="rgb(255,255,255)" fill-opacity="1" d="M224.6 100 L224.5 102 L224.3 103.9 L223.9 105.8 L223.3 107.7 L222.7 109.5 L221.8 111.3 L220.9 113 L219.8 114.6 L218.5 116.1 L217.2 117.5 L215.8 118.9 L214.2 120 L212.6 121.1 L210.9 122 L209.1 122.8 L207.2 123.5 L205.3 124 L203.4 124.3 L201.5 124.5 L199.5 124.6 L197.6 124.4 L195.6 124.2 L193.7 123.8 L191.9 123.2 L190 122.5 L188.3 121.6 L186.6 120.6 L185 119.5 L183.5 118.2 L182.1 116.8 L180.8 115.4 L179.7 113.8 L178.6 112.1 L177.7 110.4 L177 108.6 L176.4 106.8 L175.9 104.9 L175.6 102.9 L175.5 101 L175.5 99.02 L175.6 97.08 L175.9 95.15 L176.4 93.25 L177 91.39 L177.7 89.59 L178.6 87.86 L179.7 86.2 L180.8 84.63 L182.1 83.15 L183.5 81.78 L185 80.53 L186.6 79.4 L188.3 78.4 L190 77.54 L191.9 76.82 L193.7 76.25 L195.6 75.82 L197.6 75.55 L199.5 75.43 L201.5 75.47 L203.4 75.67 L205.3 76.02 L207.2 76.51 L209.1 77.16 L210.9 77.95 L212.6 78.89 L214.2 79.95 L215.8 81.14 L217.2 82.45 L218.5 83.88 L219.8 85.4 L220.9 87.02 L221.8 88.72 L222.7 90.48 L223.3 92.31 L223.9 94.19 L224.3 96.11 L224.5 98.05 L224.6 100 Z " />
<path stroke="rgb(0,0,0)" stroke-opacity="1" fill="rgb(255,255,255)" fill-opacity="1" d="M-388.6 -587.3 L-389.6 -587.3 L-390.6 -587.4 L-391.6 -587.4 L-392.5 -587.5 L-393.5 -587.6 L-394.5 -587.6 L-395.5 -587.7 L-396.5 -587.7 L-397.5 -587.8 L-398.5 -587.8 L-399.5 -587.9 L-400.5 -587.9 L-401.5 -588 L-402.5 -588 L-403.5 -588.1 L-404.5 -588.1 L-405.5 -588.2 L-406.5 -588.2 L-407.5 -588.3 L-408.4 -588.3 L-409.4 -588.4 L-410.4 -588.4 L-411.4 -588.5 L-412.4 -588.5 L-413.4 -588.6 L-413.4 -589.6 L-413.3 -590.6 L-413.3 -591.6 L-413.2 -592.6 L-413.2 -593.6 L-413.1 -594.5 L-413.1 -595.5 L-413 -596.5 L-413 -597.5 L-412.9 -598.5 L-412.8 -599.5 L-412.8 -600.5 L-412.7 -601.5 L-412.7 -602.5 L-412.6 -603.5 L-412.6 -604.5 L-412.5 -605.5 L-412.5 -606.5 L-412.4 -607.5 L-412.4 -608.5 L-412.3 -609.5 L-412.3 -610.4 L-412.2 -611.4 L-412.2 -612.4 L-412.1 -613.4 L-411.1 -613.4 L-410.1 -613.3 L-409.1 -613.3 L-408.2 -613.2 L-407.2 -613.2 L-406.2 -613.1 L-405.2 -613.1 L-404.2 -613 L-403.2 -613 L-402.2 -612.9 L-401.2 -612.9 L-400.2 -612.8 L-399.2 -612.8 L-398.2 -612.7 L-397.2 -612.7 L-396.2 -612.6 L-395.2 -612.6 L-394.2 -612.5 L-393.2 -612.4 L-392.3 -612.4 L-391.3 -612.3 L-390.3 -612.3 L-389.3 -612.2 L-388.3 -612.2 L-387.3 -612.1 L-387.3 -611.1 L-387.4 -610.2 L-387.4 -609.2 L-387.5 -608.2 L-387.5 -607.2 L-387.6 -606.2 L-387.6 -605.2 L-387.7 -604.2 L-387.7 -603.2 L-387.8 -602.2 L-387.9 -601.2 L-387.9 -600.2 L-388 -599.2 L-388 -598.2 L-388.1 -597.2 L-388.1 -596.2 L-388.2 -595.2 L-388.2 -594.3 L-388.3 -593.3 L-388.3 -592.3 L-388.4 -591.3 L-388.4 -590.3 L-388.5 -589.3 L-388.5 -588.3 L-388.6 -587.3 Z " />
<path stroke="rgb(0,0,0)" stroke-opacity="1" fill="rgb(255,255,255)" fill-opacity="1" d="M-275.4 200 L-275.5 202 L-275.7 203.9 L-276.1 205.8 L-276.7 207.7 L-277.3 209.5 L-278.2 211.3 L-279.1 213 L-280.2 214.6 L-281.5 216.1 L-282.8 217.5 L-284.2 218.9 L-285.8 220 L-287.4 221.1 L-289.1 222 L-290.9 222.8 L-292.8 223.5 L-294.7 224 L-296.6 224.3 L-298.5 224.5 L-300.5 224.6 L-302.4 224.4 L-304.4 224.2 L-306.3 223.8 L-308.1 223.2 L-310 222.5 L-311.7 221.6 L-313.4 220.6 L-315 219.5 L-316.5 218.2 L-317.9 216.8 L-319.2 215.4 L-320.3 213.8 L-321.4 212.1 L-322.3 210.4 L-323 208.6 L-323.6 206.8 L-324.1 204.9 L-324.4 202.9 L-324.5 201 L-324.5 199 L-324.4 197.1 L-324.1 195.1 L-323.6 193.2 L-323 191.4 L-322.3 189.6 L-321.4 187.9 L-320.3 186.2 L-319.2 184.6 L-317.9 183.2 L-316.5 181.8 L-315 180.5 L-313.4 179.4 L-311.7 178.4 L-310 177.5 L-308.1 176.8 L-306.3 176.2 L-304.4 175.8 L-302.4 175.6 L-300.5 175.4 L-298.5 175.5 L-296.6 175.7 L-294.7 176 L-292.8 176.5 L-290.9 177.2 L-289.1 178 L-287.4 178.9 L-285.8 180 L-284.2 181.1 L-282.8 182.5 L-281.5 183.9 L-280.2 185.4 L-279.1 187 L-278.2 188.7 L-277.3 190.5 L-276.7 192.3 L-276.1 194.2 L-275.7 196.1 L-275.5 198 L-275.4 200 Z " />
<path stroke="rgb(0,0,0)" stroke-opacity="1" fill="rgb(255,255,255)" fill-opacity="1" d="M-905.7 -474.4 L-906.6 -475.7 L-907.4 -477 L-908.2 -478.2 L-909 -479.5 L-909.8 -480.8 L-910.7 -482 L-911.5 -483.3 L-912.3 -484.5 L-913.1 -485.8 L-913.9 -487.1 L-914.8 -488.3 L-915.6 -489.6 L-916.4 -490.9 L-917.2 -492.1 L-918 -493.4 L-918.9 -494.7 L-919.7 -495.9 L-920.5 -497.2 L-921.3 -498.5 L-922.1 -499.7 L-923 -501 L-923.8 -502.3 L-924.6 -503.5 L-925.4 -504.8 L-926.2 -506 L-925 -506.9 L-923.7 -507.7 L-922.4 -508.5 L-921.2 -509.3 L-919.9 -510.2 L-918.7 -511 L-917.4 -511.8 L-916.1 -512.6 L-914.9 -513.4 L-913.6 -514.3 L-912.3 -515.1 L-911.1 -515.9 L-909.8 -516.7 L-908.5 -517.5 L-907.3 -518.4 L-906 -519.2 L-904.7 -520 L-903.5 -520.8 L-902.2 -521.6 L-900.9 -522.5 L-899.7 -523.3 L-898.4 -524.1 L-897.1 -524.9 L-895.9 -525.7 L-894.6 -526.6 L-893.8 -525.3 L-893 -524 L-892.2 -522.8 L-891.3 -521.5 L-890.5 -520.2 L-889.7 -519 L-888.9 -517.7 L-888.1 -516.4 L-887.2 -515.2 L-886.4 -513.9 L-885.6 -512.6 L-884.8 -511.4 L-884 -510.1 L-883.1 -508.8 L-882.3 -507.6 L-881.5 -506.3 L-880.7 -505.1 L-879.9 -503.8 L-879 -502.5 L-878.2 -501.3 L-877.4 -500 L-876.6 -498.7 L-875.8 -497.5 L-874.9 -496.2 L-874.1 -494.9 L-875.4 -494.1 L-876.6 -493.3 L-877.9 -492.5 L-879.2 -491.7 L-880.4 -490.8 L-881.7 -490 L-883 -489.2 L-884.2 -488.4 L-885.5 -487.5 L-886.8 -486.7 L-888 -485.9 L-889.3 -485.1 L-890.6 -484.3 L-891.8 -483.4 L-893.1 -482.6 L-894.4 -481.8 L-895.6 -481 L-896.9 -480.2 L-898.1 -479.3 L-899.4 -478.5 L-900.7 -477.7 L-901.9 -476.9 L-903.2 -476.1 L-904.5 -475.2 L-905.7 -474.4 Z " />
<path stroke="rgb(0,0,0)" stroke-opacity="1" fill="rgb(255,255,255)" fill-opacity="1" d="M-75.42 200 L-75.5 202 L-75.73 203.9 L-76.12 205.8 L-76.66 207.7 L-77.34 209.5 L-78.17 211.3 L-79.14 213 L-80.23 214.6 L-81.45 216.1 L-82.79 217.5 L-84.24 218.9 L-85.79 220 L-87.43 221.1 L-89.15 222 L-90.93 222.8 L-92.77 223.5 L-94.66 224 L-96.59 224.3 L-98.53 224.5 L-100.5 224.6 L-102.4 224.4 L-104.4 224.2 L-106.3 223.8 L-108.1 223.2 L-110 222.5 L-111.7 221.6 L-113.4 220.6 L-115 219.5 L-116.5 218.2 L-117.9 216.8 L-119.2 215.4 L-120.3 213.8 L-121.4 212.1 L-122.3 210.4 L-123 208.6 L-123.6 206.8 L-124.1 204.9 L-124.4 202.9 L-124.5 201 L-124.5 199 L-124.4 197.1 L-124.1 195.1 L-123.6 193.2 L-123 191.4 L-122.3 189.6 L-121.4 187.9 L-120.3 186.2 L-119.2 184.6 L-117.9 183.2 L-116.5 181.8 L-115 180.5 L-113.4 179.4 L-111.7 178.4 L-110 177.5 L-108.1 176.8 L-106.3 176.2 L-104.4 175.8 L-102.4 175.6 L-100.5 175.4 L-98.53 175.5 L-96.59 175.7 L-94.66 176 L-92.77 176.5 L-90.93 177.2 L-89.15 178 L-87.43 178.9 L-85.79 180 L-84.24 181.1 L-82.79 182.5 L-81.45 183.9 L-80.23 185.4 L-79.14 187 L-78.17 188.7 L-77.34 190.5 L-76.66 192.3 L-76.12 194.2 L-75.73 196.1 L-75.5 198 L-75.42 200 Z " />
<path stroke="rgb(0,0,0)" stroke-opacity="1" fill="rgb(255,255,255)" fill-opacity="1" d="M-691.4 -482.8 L-692.5 -483.1 L-693.5 -483.5 L-694.6 -483.8 L-695.6 -484.2 L-696.7 -484.5 L-697.8 -484.9 L-698.8 -485.2 L-699.9 -485.6 L-701 -485.9 L-702 -486.3 L-703.1 -486.6 L-704.1 -487 L-705.2 -487.3 L-706.3 -487.6 L-707.3 -488 L-708.4 -488.3 L-709.5 -488.7 L-710.5 -489 L-711.6 -489.4 L-712.6 -489.7 L-713.7 -490.1 L-714.8 -490.4 L-715.8 -490.8 L-716.9 -491.1 L-718 -491.5 L-717.6 -492.5 L-717.3 -493.6 L-716.9 -494.7 L-716.6 -495.7 L-716.2 -496.8 L-715.9 -497.8 L-715.5 -498.9 L-715.2 -500 L-714.8 -501 L-714.5 -502.1 L-714.1 -503.2 L-713.8 -504.2 L-713.4 -505.3 L-713.1 -506.3 L-712.7 -507.4 L-712.4 -508.5 L-712 -509.5 L-711.7 -510.6 L-711.3 -511.7 L-711 -512.7 L-710.6 -513.8 L-710.3 -514.8 L-709.9 -515.9 L-709.6 -517 L-709.3 -518 L-708.2 -517.7 L-707.1 -517.3 L-706.1 -517 L-705 -516.6 L-703.9 -516.3 L-702.9 -515.9 L-701.8 -515.6 L-700.8 -515.3 L-699.7 -514.9 L-698.6 -514.6 L-697.6 -514.2 L-696.5 -513.9 L-695.4 -513.5 L-694.4 -513.2 L-693.3 -512.8 L-692.3 -512.5 L-691.2 -512.1 L-690.1 -511.8 L-689.1 -511.4 L-688 -511.1 L-686.9 -510.7 L-685.9 -510.4 L-684.8 -510 L-683.8 -509.7 L-682.7 -509.3 L-683 -508.3 L-683.4 -507.2 L-683.7 -506.2 L-684.1 -505.1 L-684.4 -504 L-684.8 -503 L-685.1 -501.9 L-685.5 -500.8 L-685.8 -499.8 L-686.2 -498.7 L-686.5 -497.7 L-686.9 -496.6 L-687.2 -495.5 L-687.6 -494.5 L-687.9 -493.4 L-688.3 -492.3 L-688.6 -491.3 L-689 -490.2 L-689.3 -489.2 L-689.6 -488.1 L-690 -487 L-690.3 -486 L-690.7 -484.9 L-691 -483.8 L-691.4 -482.8 Z " />
<path stroke="rgb(0,0,0)" stroke-opacity="1" fill="rgb(255,255,255)" fill-opacity="1" d="M124.6 200 L124.5 202 L124.3 203.9 L123.9 205.8 L123.3 207.7 L122.7 209.5 L121.8 211.3 L120.9 213 L119.8 214.6 L118.5 216.1 L117.2 217.5 L115.8 218.9 L114.2 220 L112.6 221.1 L110.9 222 L109.1 222.8 L107.2 223.5 L105.3 224 L103.4 224.3 L101.5 224.5 L99.52 224.6 L97.57 224.4 L95.63 224.2 L93.72 223.8 L91.86 223.2 L90.04 222.5 L88.29 221.6 L86.61 220.6 L85.02 219.5 L83.52 218.2 L82.12 216.8 L80.84 215.4 L79.68 213.8 L78.65 212.1 L77.75 210.4 L76.99 208.6 L76.38 206.8 L75.92 204.9 L75.61 202.9 L75.45 201 L75.45 199 L75.61 197.1 L75.92 195.1 L76.38 193.2 L76.99 191.4 L77.75 189.6 L78.65 187.9 L79.68 186.2 L80.84 184.6 L82.12 183.2 L83.52 181.8 L85.02 180.5 L86.61 179.4 L88.29 178.4 L90.04 177.5 L91.86 176.8 L93.72 176.2 L95.63 175.8 L97.57 175.6 L99.52 175.4 L101.5 175.5 L103.4 175.7 L105.3 176 L107.2 176.5 L109.1 177.2 L110.9 178 L112.6 178.9 L114.2 180 L115.8 181.1 L117.2 182.5 L118.5 183.9 L119.8 185.4 L120.9 187 L121.8 188.7 L122.7 190.5 L123.3 192.3 L123.9 194.2 L124.3 196.1 L124.5 198 L124.6 200 Z " />
<path stroke="rgb(0,0,0)" stroke-opacity="1" fill="rgb(255,255,255)" fill-opacity="1" d="M-488.6 -487.3 L-489.6 -487.3 L-490.6 -487.4 L-491.6 -487.4 L-492.5 -487.5 L-493.5 -487.6 L-494.5 -487.6 L-495.5 -487.7 L-496.5 -487.7 L-497.5 -487.8 L-498.5 -487.8 L-499.5 -487.9 L-500.5 -487.9 L-501.5 -488 L-502.5 -488 L-503.5 -488.1 L-504.5 -488.1 L-505.5 -488.2 L-506.5 -488.2 L-507.5 -488.3 L-508.4 -488.3 L-509.4 -488.4 L-510.4 -488.4 L-511.4 -488.5 L-512.4 -488.5 L-513.4 -488.6 L-513.4 -489.6 L-513.3 -490.6 L-513.3 -491.6 L-513.2 -492.6 L-513.2 -493.6 L-513.1 -494.5 L-513.1 -495.5 L-513 -496.5 L-513 -497.5 L-512.9 -498.5 L-512.8 -499.5 L-512.8 -500.5 L-512.7 -501.5 L-512.7 -502.5 L-512.6 -503.5 L-512.6 -504.5 L-512.5 -505.5 L-512.5 -506.5 L-512.4 -507.5 L-512.4 -508.5 L-512.3 -509.5 L-512.3 -510.4 L-512.2 -511.4 L-512.2 -512.4 L-512.1 -513.4 L-511.1 -513.4 L-510.1 -513.3 L-509.1 -513.3 L-508.2 -513.2 L-507.2 -513.2 L-506.2 -513.1 L-505.2 -513.1 L-504.2 -513 L-503.2 -513 L-502.2 -512.9 L-501.2 -512.9 L-500.2 -512.8 L-499.2 -512.8 L-498.2 -512.7 L-497.2 -512.7 L-496.2 -512.6 L-495.2 -512.6 L-494.2 -512.5 L-493.2 -512.4 L-492.3 -512.4 L-491.3 -512.3 L-490.3 -512.3 L-489.3 -512.2 L-488.3 -512.2 L-487.3 -512.1 L-487.3 -511.1 L-487.4 -510.2 L-487.4 -509.2 L-487.5 -508.2 L-487.5 -507.2 L-487.6 -506.2 L-487.6 -505.2 L-487.7 -504.2 L-487.7 -503.2 L-487.8 -502.2 L-487.9 -501.2 L-487.9 -500.2 L-488 -499.2 L-488 -498.2 L-488.1 -497.2 L-488.1 -496.2 L-488.2 -495.2 L-488.2 -494.3 L-488.3 -493.3 L-488.3 -492.3 L-488.4 -491.3 L-488.4 -490.3 L-488.5 -489.3 L-488.5 -488.3 L-488.6 -487.3 Z " />
<path stroke="rgb(0,0,0)" stroke-opacity="1" fill="rgb(255,255,255)" fill-opacity="1" d="M324.5 200 L324.4 201.9 L324.2 203.9 L323.8 205.8 L323.3 207.6 L322.6 209.5 L321.8 211.2 L320.8 212.9 L319.7 214.6 L318.5 216.1 L317.1 217.5 L315.7 218.8 L314.1 220 L312.5 221.1 L310.8 222 L309 222.8 L307.1 223.4 L305.2 223.9 L303.3 224.3 L301.4 224.5 L299.4 224.5 L297.5 224.4 L295.5 224.1 L293.6 223.7 L291.8 223.1 L290 222.4 L288.2 221.5 L286.5 220.5 L284.9 219.4 L283.4 218.1 L282 216.8 L280.8 215.3 L279.6 213.7 L278.6 212.1 L277.7 210.3 L276.9 208.5 L276.3 206.7 L275.8 204.8 L275.5 202.8 L275.4 200.9 L275.4 198.9 L275.5 197 L275.9 195.1 L276.3 193.2 L276.9 191.3 L277.7 189.5 L278.6 187.8 L279.6 186.1 L280.8 184.5 L282.1 183.1 L283.5 181.7 L285 180.5 L286.6 179.3 L288.2 178.3 L290 177.5 L291.8 176.7 L293.7 176.2 L295.6 175.8 L297.5 175.5 L299.5 175.4 L301.4 175.4 L303.4 175.6 L305.3 176 L307.2 176.5 L309 177.1 L310.8 177.9 L312.5 178.8 L314.2 179.9 L315.7 181.1 L317.2 182.4 L318.5 183.8 L319.7 185.4 L320.8 187 L321.8 188.7 L322.6 190.4 L323.3 192.3 L323.8 194.2 L324.2 196.1 L324.4 198 L324.5 200 Z " />
<path stroke="rgb(0,0,0)" stroke-opacity="1" fill="rgb(255,255,255)" fill-opacity="1" d="M-1006 -374.4 L-1007 -375.7 L-1007 -377 L-1008 -378.2 L-1009 -379.5 L-1010 -380.8 L-1011 -382 L-1011 -383.3 L-1012 -384.5 L-1013 -385.8 L-1014 -387.1 L-1015 -388.3 L-1016 -389.6 L-1016 -390.9 L-1017 -392.1 L-1018 -393.4 L-1019 -394.7 L-1020 -395.9 L-1021 -397.2 L-1021 -398.5 L-1022 -399.7 L-1023 -401 L-1024 -402.3 L-1025 -403.5 L-1025 -404.8 L-1026 -406 L-1025 -406.9 L-1024 -407.7 L-1022 -408.5 L-1021 -409.3 L-1020 -410.2 L-1019 -411 L-1017 -411.8 L-1016 -412.6 L-1015 -413.4 L-1014 -414.3 L-1012 -415.1 L-1011 -415.9 L-1010 -416.7 L-1009 -417.5 L-1007 -418.4 L-1006 -419.2 L-1005 -420 L-1003 -420.8 L-1002 -421.6 L-1001 -422.5 L-999.7 -423.3 L-998.4 -424.1 L-997.1 -424.9 L-995.9 -425.7 L-994.6 -426.6 L-993.8 -425.3 L-993 -424 L-992.2 -422.8 L-991.3 -421.5 L-990.5 -420.2 L-989.7 -419 L-988.9 -417.7 L-988.1 -416.4 L-987.2 -415.2 L-986.4 -413.9 L-985.6 -412.6 L-984.8 -411.4 L-984 -410.1 L-983.1 -408.8 L-982.3 -407.6 L-981.5 -406.3 L-980.7 -405.1 L-979.9 -403.8 L-979 -402.5 L-978.2 -401.3 L-977.4 -400 L-976.6 -398.7 L-975.8 -397.5 L-974.9 -396.2 L-974.1 -394.9 L-975.4 -394.1 L-976.6 -393.3 L-977.9 -392.5 L-979.2 -391.7 L-980.4 -390.8 L-981.7 -390 L-983 -389.2 L-984.2 -388.4 L-985.5 -387.5 L-986.8 -386.7 L-988 -385.9 L-989.3 -385.1 L-990.6 -384.3 L-991.8 -383.4 L-993.1 -382.6 L-994.4 -381.8 L-995.6 -381 L-996.9 -380.2 L-998.1 -379.3 L-999.4 -378.5 L-1001 -377.7 L-1002 -376.9 L-1003 -376.1 L-1004 -375.2 L-1006 -374.4 Z " />
<path stroke="rgb(0,0,0)" stroke-opacity="1" fill="rgb(255,255,255)" fill-opacity="1" d="M-175.4 300 L-175.5 302 L-175.7 303.9 L-176.1 305.8 L-176.7 307.7 L-177.3 309.5 L-178.2 311.3 L-179.1 313 L-180.2 314.6 L-181.5 316.1 L-182.8 317.5 L-184.2 318.9 L-185.8 320 L-187.4 321.1 L-189.1 322 L-190.9 322.8 L-192.8 323.5 L-194.7 324 L-196.6 324.3 L-198.5 324.5 L-200.5 324.6 L-202.4 324.4 L-204.4 324.2 L-206.3 323.8 L-208.1 323.2 L-210 322.5 L-211.7 321.6 L-213.4 320.6 L-215 319.5 L-216.5 318.2 L-217.9 316.8 L-219.2 315.4 L-220.3 313.8 L-221.4 312.1 L-222.3 310.4 L-223 308.6 L-223.6 306.8 L-224.1 304.9 L-224.4 302.9 L-224.5 301 L-224.5 299 L-224.4 297.1 L-224.1 295.1 L-223.6 293.2 L-223 291.4 L-222.3 289.6 L-221.4 287.9 L-220.3 286.2 L-219.2 284.6 L-217.9 283.2 L-216.5 281.8 L-215 280.5 L-213.4 279.4 L-211.7 278.4 L-210 277.5 L-208.1 276.8 L-206.3 276.2 L-204.4 275.8 L-202.4 275.6 L-200.5 275.4 L-198.5 275.5 L-196.6 275.7 L-194.7 276 L-192.8 276.5 L-190.9 277.2 L-189.1 278 L-187.4 278.9 L-185.8 280 L-184.2 281.1 L-182.8 282.5 L-181.5 283.9 L-180.2 285.4 L-179.1 287 L-178.2 288.7 L-177.3 290.5 L-176.7 292.3 L-176.1 294.2 L-175.7 296.1 L-175.5 298 L-175.4 300 Z " />
<path stroke="rgb(0,0,0)" stroke-opacity="1" fill="rgb(255,255,255)" fill-opacity="1" d="M-791.4 -382.8 L-792.5 -383.1 L-793.5 -383.5 L-794.6 -383.8 L-795.6 -384.2 L-796.7 -384.5 L-797.8 -384.9 L-798.8 -385.2 L-799.9 -385.6 L-801 -385.9 L-802 -386.3 L-803.1 -386.6 L-804.1 -387 L-805.2 -387.3 L-806.3 -387.6 L-807.3 -388 L-808.4 -388.3 L-809.5 -388.7 L-810.5 -389 L-811.6 -389.4 L-812.6 -389.7 L-813.7 -390.1 L-814.8 -390.4 L-815.8 -390.8 L-816.9 -391.1 L-818 -391.5 L-817.6 -392.5 L-817.3 -393.6 L-816.9 -394.7 L-816.6 -395.7 L-816.2 -396.8 L-815.9 -397.8 L-815.5 -398.9 L-815.2 -400 L-814.8 -401 L-814.5 -402.1 L-814.1 -403.2 L-813.8 -404.2 L-813.4 -405.3 L-813.1 -406.3 L-812.7 -407.4 L-812.4 -408.5 L-812 -409.5 L-811.7 -410.6 L-811.3 -411.7 L-811 -412.7 L-810.6 -413.8 L-810.3 -414.8 L-809.9 -415.9 L-809.6 -417 L-809.3 -418 L-808.2 -417.7 L-807.1 -417.3 L-806.1 -417 L-805 -416.6 L-803.9 -416.3 L-802.9 -415.9 L-801.8 -415.6 L-800.8 -415.3 L-799.7 -414.9 L-798.6 -414.6 L-797.6 -414.2 L-796.5 -413.9 L-795.4 -413.5 L-794.4 -413.2 L-793.3 -412.8 L-792.3 -412.5 L-791.2 -412.1 L-790.1 -411.8 L-789.1 -411.4 L-788 -411.1 L-786.9 -410.7 L-785.9 -410.4 L-784.8 -410 L-783.8 -409.7 L-782.7 -409.3 L-783 -408.3 L-783.4 -407.2 L-783.7 -406.2 L-784.1 -405.1 L-784.4 -404 L-784.8 -403 L-785.1 -401.9 L-785.5 -400.8 L-785.8 -399.8 L-786.2 -398.7 L-786.5 -397.7 L-786.9 -396.6 L-787.2 -395.5 L-787.6 -394.5 L-787.9 -393.4 L-788.3 -392.3 L-788.6 -391.3 L-789 -390.2 L-789.3 -389.2 L-789.6 -388.1 L-790 -387 L-790.3 -386 L-790.7 -384.9 L-791 -383.8 L-791.4 -382.8 Z " />
<path stroke="rgb(0,0,0)" stroke-opacity="1" fill="rgb(255,255,255)" fill-opacity="1" d="M24.58 300 L24.5 302 L24.27 303.9 L23.88 305.8 L23.34 307.7 L22.66 309.5 L21.83 311.3 L20.86 313 L19.77 314.6 L18.55 316.1 L17.21 317.5 L15.76 318.9 L14.21 320 L12.57 321.1 L10.85 322 L9.068 322.8 L7.225 323.5 L5.337 324 L3.414 324.3 L1.47 324.5 L-0.4831 324.6 L-2.433 324.4 L-4.368 324.2 L-6.275 323.8 L-8.143 323.2 L-9.958 322.5 L-11.71 321.6 L-13.39 320.6 L-14.98 319.5 L-16.48 318.2 L-17.88 316.8 L-19.16 315.4 L-20.32 313.8 L-21.35 312.1 L-22.25 310.4 L-23.01 308.6 L-23.62 306.8 L-24.08 304.9 L-24.39 302.9 L-24.55 301 L-24.55 299 L-24.39 297.1 L-24.08 295.1 L-23.62 293.2 L-23.01 291.4 L-22.25 289.6 L-21.35 287.9 L-20.32 286.2 L-19.16 284.6 L-17.88 283.2 L-16.48 281.8 L-14.98 280.5 L-13.39 279.4 L-11.71 278.4 L-9.958 277.5 L-8.143 276.8 L-6.275 276.2 L-4.368 275.8 L-2.433 275.6 L-0.4831 275.4 L1.47 275.5 L3.414 275.7 L5.337 276 L7.225 276.5 L9.068 277.2 L10.85 278 L12.57 278.9 L14.21 280 L15.76 281.1 L17.21 282.5 L18.55 283.9 L19.77 285.4 L20.86 287 L21.83 288.7 L22.66 290.5 L23.34 292.3 L23.88 294.2 L24.27 296.1 L24.5 298 L24.58 300 Z " />
<path stroke="rgb(0,0,0)" stroke-opacity="1" fill="rgb(255,255,255)" fill-opacity="1" d="M-588.6 -387.3 L-589.6 -387.3 L-590.6 -387.4 L-591.6 -387.4 L-592.5 -387.5 L-593.5 -387.6 L-594.5 -387.6 L-595.5 -387.7 L-596.5 -387.7 L-597.5 -387.8 L-598.5 -387.8 L-599.5 -387.9 L-600.5 -387.9 L-601.5 -388 L-602.5 -388 L-603.5 -388.1 L-604.5 -388.1 L-605.5 -388.2 L-606.5 -388.2 L-607.5 -388.3 L-608.4 -388.3 L-609.4 -388.4 L-610.4 -388.4 L-611.4 -388.5 L-612.4 -388.5 L-613.4 -388.6 L-613.4 -389.6 L-613.3 -390.6 L-613.3 -391.6 L-613.2 -392.6 L-613.2 -393.6 L-613.1 -394.5 L-613.1 -395.5 L-613 -396.5 L-613 -397.5 L-612.9 -398.5 L-612.8 -399.5 L-612.8 -400.5 L-612.7 -401.5 L-612.7 -402.5 L-612.6 -403.5 L-612.6 -404.5 L-612.5 -405.5 L-612.5 -406.5 L-612.4 -407.5 L-612.4 -408.5 L-612.3 -409.5 L-612.3 -410.4 L-612.2 -411.4 L-612.2 -412.4 L-612.1 -413.4 L-611.1 -413.4 L-610.1 -413.3 L-609.1 -413.3 L-608.2 -413.2 L-607.2 -413.2 L-606.2 -413.1 L-605.2 -413.1 L-604.2 -413 L-603.2 -413 L-602.2 -412.9 L-601.2 -412.9 L-600.2 -412.8 L-599.2 -412.8 L-598.2 -412.7 L-597.2 -412.7 L-596.2 -412.6 L-595.2 -412.6 L-594.2 -412.5 L-593.2 -412.4 L-592.3 -412.4 L-591.3 -412.3 L-590.3 -412.3 L-589.3 -412.2 L-588.3 -412.2 L-587.3 -412.1 L-587.3 -411.1 L-587.4 -410.2 L-587.4 -409.2 L-587.5 -408.2 L-587.5 -407.2 L-587.6 -406.2 L-587.6 -405.2 L-587.7 -404.2 L-587.7 -403.2 L-587.8 -402.2 L-587.9 -401.2 L-587.9 -400.2 L-588 -399.2 L-588 -398.2 L-588.1 -397.2 L-588.1 -396.2 L-588.2 -395.2 L-588.2 -394.3 L-588.3 -393.3 L-588.3 -392.3 L-588.4 -391.3 L-588.4 -390.3 L-588.5 -389.3 L-588.5 -388.3 L-588.6 -387.3 Z " />
<path stroke="rgb(0,0,0)" stroke-opacity="1" fill="rgb(255,255,255)" fill-opacity="1" d="M224.5 300 L224.4 301.9 L224.2 303.9 L223.8 305.8 L223.3 307.6 L222.6 309.5 L221.8 311.2 L220.8 312.9 L219.7 314.6 L218.5 316.1 L217.1 317.5 L215.7 318.8 L214.1 320 L212.5 321.1 L210.8 322 L209 322.8 L207.1 323.4 L205.2 323.9 L203.3 324.3 L201.4 324.5 L199.4 324.5 L197.5 324.4 L195.5 324.1 L193.6 323.7 L191.8 323.1 L190 322.4 L188.2 321.5 L186.5 320.5 L184.9 319.4 L183.4 318.1 L182 316.8 L180.8 315.3 L179.6 313.7 L178.6 312.1 L177.7 310.3 L176.9 308.5 L176.3 306.7 L175.8 304.8 L175.5 302.8 L175.4 300.9 L175.4 298.9 L175.5 297 L175.9 295.1 L176.3 293.2 L176.9 291.3 L177.7 289.5 L178.6 287.8 L179.6 286.1 L180.8 284.5 L182.1 283.1 L183.5 281.7 L185 280.5 L186.6 279.3 L188.2 278.3 L190 277.5 L191.8 276.7 L193.7 276.2 L195.6 275.8 L197.5 275.5 L199.5 275.4 L201.4 275.4 L203.4 275.6 L205.3 276 L207.2 276.5 L209 277.1 L210.8 277.9 L212.5 278.8 L214.2 279.9 L215.7 281.1 L217.2 282.4 L218.5 283.8 L219.7 285.4 L220.8 287 L221.8 288.7 L222.6 290.4 L223.3 292.3 L223.8 294.2 L224.2 296.1 L224.4 298 L224.5 300 Z " />
<path stroke="rgb(0,0,0)" stroke-opacity="1" fill="rgb(255,255,255)" fill-opacity="1" d="M-388.3 -388 L-389.3 -388 L-390.3 -388 L-391.2 -388 L-392.2 -388 L-393.2 -388 L-394.2 -388 L-395.1 -388 L-396.1 -388.1 L-397.1 -388.1 L-398.1 -388.1 L-399.1 -388.1 L-400 -388.1 L-401 -388.1 L-402 -388.1 L-403 -388.2 L-403.9 -388.2 L-404.9 -388.2 L-405.9 -388.2 L-406.9 -388.2 L-407.9 -388.2 L-408.8 -388.2 L-409.8 -388.3 L-410.8 -388.3 L-411.8 -388.3 L-412.8 -388.3 L-412.7 -389.3 L-412.7 -390.3 L-412.7 -391.2 L-412.7 -392.2 L-412.7 -393.2 L-412.7 -394.2 L-412.7 -395.1 L-412.6 -396.1 L-412.6 -397.1 L-412.6 -398.1 L-412.6 -399.1 L-412.6 -400 L-412.6 -401 L-412.6 -402 L-412.5 -403 L-412.5 -404 L-412.5 -404.9 L-412.5 -405.9 L-412.5 -406.9 L-412.5 -407.9 L-412.5 -408.8 L-412.5 -409.8 L-412.4 -410.8 L-412.4 -411.8 L-412.4 -412.8 L-411.4 -412.7 L-410.5 -412.7 L-409.5 -412.7 L-408.5 -412.7 L-407.5 -412.7 L-406.5 -412.7 L-405.6 -412.7 L-404.6 -412.6 L-403.6 -412.6 L-402.6 -412.6 L-401.6 -412.6 L-400.7 -412.6 L-399.7 -412.6 L-398.7 -412.6 L-397.7 -412.6 L-396.8 -412.5 L-395.8 -412.5 L-394.8 -412.5 L-393.8 -412.5 L-392.8 -412.5 L-391.9 -412.5 L-390.9 -412.5 L-389.9 -412.4 L-388.9 -412.4 L-387.9 -412.4 L-388 -411.4 L-388 -410.5 L-388 -409.5 L-388 -408.5 L-388 -407.5 L-388 -406.5 L-388 -405.6 L-388.1 -404.6 L-388.1 -403.6 L-388.1 -402.6 L-388.1 -401.7 L-388.1 -400.7 L-388.1 -399.7 L-388.1 -398.7 L-388.2 -397.7 L-388.2 -396.8 L-388.2 -395.8 L-388.2 -394.8 L-388.2 -393.8 L-388.2 -392.8 L-388.2 -391.9 L-388.3 -390.9 L-388.3 -389.9 L-388.3 -388.9 L-388.3 -388 Z " />
</g>
</g>
</svg>
