<!DOCTYPE svg>
<svg xmlns="http://www.w3.org/2000/svg" xmlns:xlink="http://www.w3.org/1999/xlink" width="560" height="560">
<g transform="translate(280.000000,280.000000)">
<g transform="scale(3.000000,3.000000)">
<path stroke="rgb(0,0,0)" stroke-opacity="1" fill="rgb(255,255,255)" fill-opacity="1" d="M-988.3 -988 L-989.3 -988 L-990.3 -988 L-991.2 -988 L-992.2 -988 L-993.2 -988 L-994.2 -988 L-995.1 -988 L-996.1 -988.1 L-997.1 -988.1 L-998.1 -988.1 L-999.1 -988.1 L-1000 -988.1 L-1001 -988.1 L-1002 -988.1 L-1003 -988.2 L-1004 -988.2 L-1005 -988.2 L-1006 -988.2 L-1007 -988.2 L-1008 -988.2 L-1009 -988.2 L-1010 -988.3 L-1011 -988.3 L-1012 -988.3 L-1013 -988.3 L-1013 -989.3 L-1013 -990.3 L-1013 -991.2 L-1013 -992.2 L-1013 -993.2 L-1013 -994.2 L-1013 -995.1 L-1013 -996.1 L-1013 -997.1 L-1013 -998.1 L-1013 -999.1 L-1013 -1000 L-1013 -1001 L-1013 -1002 L-1013 -1003 L-1013 -1004 L-1013 -1005 L-1013 -1006 L-1012 -1007 L-1012 -1008 L-1012 -1009 L-1012 -1010 L-1012 -1011 L-1012 -1012 L-1012 -1013 L-1011 -1013 L-1010 -1013 L-1009 -1013 L-1008 -1013 L-1008 -1013 L-1007 -1013 L-1006 -1013 L-1005 -1013 L-1004 -1013 L-1003 -1013 L-1002 -1013 L-1001 -1013 L-999.7 -1013 L-998.7 -1013 L-997.7 -1013 L-996.8 -1013 L-995.8 -1013 L-994.8 -1013 L-993.8 -1012 L-992.8 -1012 L-991.9 -1012 L-990.9 -1012 L-989.9 -1012 L-988.9 -1012 L-987.9 -1012 L-988 -1011 L-988 -1010 L-988 -1009 L-988 -1008 L-988 -1008 L-988 -1007 L-988 -1006 L-988.1 -1005 L-988.1 -1004 L-988.1 -1003 L-988.1 -1002 L-988.1 -1001 L-988.1 -999.7 L-988.1 -998.7 L-988.2 -997.7 L-988.2 -996.8 L-988.2 -995.8 L-988.2 -994.8 L-988.2 -993.8 L-988.2 -992.8 L-988.2 -991.9 L-988.3 -990.9 L-988.3 -989.9 L-988.3 -988.9 L-988.3 -988 Z " />
<path stroke="rgb(0,0,0)" stroke-opacity="1" fill="rgb(255,255,255)" fill-opacity="1" d="M-177.3 -301.1 L-177.4 -299.2 L-177.7 -297.3 L-178.1 -295.4 L-178.7 -293.5 L-179.5 -291.7 L-180.4 -289.9 L-181.4 -288.3 L-182.5 -286.7 L-183.8 -285.2 L-185.2 -283.8 L-186.6 -282.6 L-188.2 -281.4 L-189.9 -280.4 L-191.6 -279.5 L-193.4 -278.8 L-195.3 -278.2 L-197.2 -277.7 L-199.1 -277.4 L-201.1 -277.3 L-203 -277.3 L-205 -277.5 L-206.9 -277.8 L-208.8 -278.3 L-210.7 -278.9 L-212.5 -279.7 L-214.2 -280.6 L-215.8 -281.7 L-217.4 -282.8 L-218.9 -284.1 L-220.2 -285.5 L-221.4 -287 L-222.6 -288.7 L-223.5 -290.3 L-224.4 -292.1 L-225.1 -293.9 L-225.7 -295.8 L-226.1 -297.7 L-226.3 -299.6 L-226.4 -301.6 L-226.4 -303.5 L-226.1 -305.5 L-225.8 -307.4 L-225.3 -309.3 L-224.6 -311.1 L-223.8 -312.9 L-222.8 -314.6 L-221.8 -316.2 L-220.6 -317.8 L-219.2 -319.2 L-217.8 -320.5 L-216.3 -321.8 L-214.6 -322.8 L-212.9 -323.8 L-211.2 -324.6 L-209.3 -325.3 L-207.4 -325.8 L-205.5 -326.2 L-203.6 -326.4 L-201.6 -326.4 L-199.7 -326.3 L-197.7 -326.1 L-195.8 -325.7 L-193.9 -325.1 L-192.1 -324.4 L-190.4 -323.6 L-188.7 -322.6 L-187.1 -321.5 L-185.6 -320.2 L-184.1 -318.9 L-182.8 -317.4 L-181.7 -315.9 L-180.6 -314.2 L-179.7 -312.5 L-178.9 -310.7 L-178.3 -308.9 L-177.8 -307 L-177.5 -305 L-177.3 -303.1 L-177.3 -301.1 Z " />
<path stroke="rgb(0,0,0)" stroke-opacity="1" fill="rgb(255,255,255)" fill-opacity="1" d="M-788.3 -988 L-789.3 -988 L-790.3 -988 L-791.2 -988 L-792.2 -988 L-793.2 -988 L-794.2 -988 L-795.1 -988 L-796.1 -988.1 L-797.1 -988.1 L-798.1 -988.1 L-799.1 -988.1 L-800 -988.1 L-801 -988.1 L-802 -988.1 L-803 -988.2 L-803.9 -988.2 L-804.9 -988.2 L-805.9 -988.2 L-806.9 -988.2 L-807.9 -988.2 L-808.8 -988.2 L-809.8 -988.3 L-810.8 -988.3 L-811.8 -988.3 L-812.8 -988.3 L-812.7 -989.3 L-812.7 -990.3 L-812.7 -991.2 L-812.7 -992.2 L-812.7 -993.2 L-812.7 -994.2 L-812.7 -995.1 L-812.6 -996.1 L-812.6 -997.1 L-812.6 -998.1 L-812.6 -999.1 L-812.6 -1000 L-812.6 -1001 L-812.6 -1002 L-812.5 -1003 L-812.5 -1004 L-812.5 -1005 L-812.5 -1006 L-812.5 -1007 L-812.5 -1008 L-812.5 -1009 L-812.5 -1010 L-812.4 -1011 L-812.4 -1012 L-812.4 -1013 L-811.4 -1013 L-810.5 -1013 L-809.5 -1013 L-808.5 -1013 L-807.5 -1013 L-806.5 -1013 L-805.6 -1013 L-804.6 -1013 L-803.6 -1013 L-802.6 -1013 L-801.6 -1013 L-800.7 -1013 L-799.7 -1013 L-798.7 -1013 L-797.7 -1013 L-796.8 -1013 L-795.8 -1013 L-794.8 -1013 L-793.8 -1012 L-792.8 -1012 L-791.9 -1012 L-790.9 -1012 L-789.9 -1012 L-788.9 -1012 L-787.9 -1012 L-788 -1011 L-788 -1010 L-788 -1009 L-788 -1008 L-788 -1008 L-788 -1007 L-788 -1006 L-788.1 -1005 L-788.1 -1004 L-788.1 -1003 L-788.1 -1002 L-788.1 -1001 L-788.1 -999.7 L-788.1 -998.7 L-788.2 -997.7 L-788.2 -996.8 L-788.2 -995.8 L-788.2 -994.8 L-788.2 -993.8 L-788.2 -992.8 L-788.2 -991.9 L-788.3 -990.9 L-788.3 -989.9 L-788.3 -988.9 L-788.3 -988 Z " />
<path stroke="rgb(0,0,0)" stroke-opacity="1" fill="rgb(255,255,255)" fill-opacity="1" d="M15.79 -305.3 L15.45 -303.4 L14.96 -301.5 L14.32 -299.7 L13.53 -297.9 L12.61 -296.1 L11.55 -294.5 L10.37 -292.9 L9.063 -291.5 L7.647 -290.1 L6.128 -288.9 L4.517 -287.8 L2.823 -286.8 L1.057 -286 L-0.7703 -285.3 L-2.646 -284.8 L-4.56 -284.4 L-6.499 -284.1 L-8.451 -284 L-10.4 -284.1 L-12.34 -284.3 L-14.26 -284.7 L-16.14 -285.2 L-17.98 -285.9 L-19.75 -286.7 L-21.45 -287.7 L-23.07 -288.8 L-24.6 -290 L-26.03 -291.3 L-27.35 -292.8 L-28.55 -294.3 L-29.62 -295.9 L-30.56 -297.7 L-31.36 -299.4 L-32.02 -301.3 L-32.53 -303.2 L-32.88 -305.1 L-33.08 -307 L-33.13 -309 L-33.02 -310.9 L-32.76 -312.9 L-32.35 -314.8 L-31.78 -316.7 L-31.07 -318.5 L-30.21 -320.2 L-29.22 -321.9 L-28.1 -323.5 L-26.86 -325 L-25.49 -326.4 L-24.03 -327.7 L-22.46 -328.9 L-20.8 -329.9 L-19.07 -330.8 L-17.28 -331.6 L-15.42 -332.2 L-13.53 -332.7 L-11.6 -333 L-9.651 -333.2 L-7.698 -333.2 L-5.749 -333 L-3.819 -332.7 L-1.918 -332.3 L-0.05954 -331.7 L1.745 -330.9 L3.485 -330 L5.148 -329 L6.725 -327.9 L8.205 -326.6 L9.579 -325.2 L10.84 -323.7 L11.98 -322.1 L12.98 -320.4 L13.85 -318.7 L14.58 -316.9 L15.16 -315 L15.6 -313.1 L15.88 -311.2 L16 -309.2 L15.97 -307.3 L15.79 -305.3 Z " />
<path stroke="rgb(0,0,0)" stroke-opacity="1" fill="rgb(255,255,255)" fill-opacity="1" d="M-588.3 -988 L-589.3 -988 L-590.3 -988 L-591.2 -988 L-592.2 -988 L-593.2 -988 L-594.2 -988 L-595.1 -988 L-596.1 -988.1 L-597.1 -988.1 L-598.1 -988.1 L-599.1 -988.1 L-600 -988.1 L-601 -988.1 L-602 -988.1 L-603 -988.2 L-603.9 -988.2 L-604.9 -988.2 L-605.9 -988.2 L-606.9 -988.2 L-607.9 -988.2 L-608.8 -988.2 L-609.8 -988.3 L-610.8 -988.3 L-611.8 -988.3 L-612.8 -988.3 L-612.7 -989.3 L-612.7 -990.3 L-612.7 -991.2 L-612.7 -992.2 L-612.7 -993.2 L-612.7 -994.2 L-612.7 -995.1 L-612.6 -996.1 L-612.6 -997.1 L-612.6 -998.1 L-612.6 -999.1 L-612.6 -1000 L-612.6 -1001 L-612.6 -1002 L-612.5 -1003 L-612.5 -1004 L-612.5 -1005 L-612.5 -1006 L-612.5 -1007 L-612.5 -1008 L-612.5 -1009 L-612.5 -1010 L-612.4 -1011 L-612.4 -1012 L-612.4 -1013 L-611.4 -1013 L-610.5 -1013 L-609.5 -1013 L-608.5 -1013 L-607.5 -1013 L-606.5 -1013 L-605.6 -1013 L-604.6 -1013 L-603.6 -1013 L-602.6 -1013 L-601.6 -1013 L-600.7 -1013 L-599.7 -1013 L-598.7 -1013 L-597.7 -1013 L-596.8 -1013 L-595.8 -1013 L-594.8 -1013 L-593.8 -1012 L-592.8 -1012 L-591.9 -1012 L-590.9 -1012 L-589.9 -1012 L-588.9 -1012 L-587.9 -1012 L-588 -1011 L-588 -1010 L-588 -1009 L-588 -1008 L-588 -1008 L-588 -1007 L-588 -1006 L-588.1 -1005 L-588.1 -1004 L-588.1 -1003 L-588.1 -1002 L-588.1 -1001 L-588.1 -999.7 L-588.1 -998.7 L-588.2 -997.7 L-588.2 -996.8 L-588.2 -995.8 L-588.2 -994.8 L-588.2 -993.8 L-588.2 -992.8 L-588.2 -991.9 L-588.3 -990.9 L-588.3 -989.9 L-588.3 -988.9 L-588.3 -988 Z " />
<path stroke="rgb(0,0,0)" stroke-opacity="1" fill="rgb(255,255,255)" fill-opacity="1" d="M199.4 -314.8 L198.6 -313 L197.7 -311.2 L196.7 -309.6 L195.5 -308 L194.2 -306.6 L192.8 -305.2 L191.3 -304 L189.7 -302.9 L188 -301.9 L186.2 -301.1 L184.4 -300.4 L182.5 -299.8 L180.6 -299.4 L178.7 -299.2 L176.7 -299.1 L174.8 -299.1 L172.8 -299.3 L170.9 -299.7 L169 -300.2 L167.2 -300.9 L165.4 -301.7 L163.7 -302.7 L162.1 -303.7 L160.5 -305 L159.1 -306.3 L157.8 -307.7 L156.6 -309.3 L155.5 -310.9 L154.5 -312.6 L153.7 -314.4 L153.1 -316.2 L152.6 -318.1 L152.2 -320 L152 -322 L151.9 -323.9 L152 -325.9 L152.3 -327.8 L152.7 -329.7 L153.2 -331.6 L154 -333.4 L154.8 -335.2 L155.8 -336.9 L156.9 -338.5 L158.1 -340 L159.5 -341.4 L161 -342.7 L162.5 -343.9 L164.2 -344.9 L165.9 -345.8 L167.7 -346.6 L169.6 -347.2 L171.4 -347.7 L173.4 -348 L175.3 -348.2 L177.3 -348.2 L179.2 -348.1 L181.2 -347.8 L183.1 -347.3 L184.9 -346.7 L186.7 -346 L188.5 -345.1 L190.1 -344.1 L191.7 -342.9 L193.2 -341.7 L194.6 -340.3 L195.9 -338.8 L197 -337.2 L198 -335.5 L198.9 -333.8 L199.6 -332 L200.2 -330.1 L200.7 -328.2 L200.9 -326.3 L201.1 -324.3 L201 -322.4 L200.9 -320.4 L200.5 -318.5 L200.1 -316.6 L199.4 -314.8 Z " />
<path stroke="rgb(0,0,0)" stroke-opacity="1" fill="rgb(255,255,255)" fill-opacity="1" d="M-388.3 -988 L-389.3 -988 L-390.3 -988 L-391.2 -988 L-392.2 -988 L-393.2 -988 L-394.2 -988 L-395.1 -988 L-396.1 -988.1 L-397.1 -988.1 L-398.1 -988.1 L-399.1 -988.1 L-400 -988.1 L-401 -988.1 L-402 -988.1 L-403 -988.2 L-403.9 -988.2 L-404.9 -988.2 L-405.9 -988.2 L-406.9 -988.2 L-407.9 -988.2 L-408.8 -988.2 L-409.8 -988.3 L-410.8 -988.3 L-411.8 -988.3 L-412.8 -988.3 L-412.7 -989.3 L-412.7 -990.3 L-412.7 -991.2 L-412.7 -992.2 L-412.7 -993.2 L-412.7 -994.2 L-412.7 -995.1 L-412.6 -996.1 L-412.6 -997.1 L-412.6 -998.1 L-412.6 -999.1 L-412.6 -1000 L-412.6 -1001 L-412.6 -1002 L-412.5 -1003 L-412.5 -1004 L-412.5 -1005 L-412.5 -1006 L-412.5 -1007 L-412.5 -1008 L-412.5 -1009 L-412.5 -1010 L-412.4 -1011 L-412.4 -1012 L-412.4 -1013 L-411.4 -1013 L-410.5 -1013 L-409.5 -1013 L-408.5 -1013 L-407.5 -1013 L-406.5 -1013 L-405.6 -1013 L-404.6 -1013 L-403.6 -1013 L-402.6 -1013 L-401.6 -1013 L-400.7 -1013 L-399.7 -1013 L-398.7 -1013 L-397.7 -1013 L-396.8 -1013 L-395.8 -1013 L-394.8 -1013 L-393.8 -1012 L-392.8 -1012 L-391.9 -1012 L-390.9 -1012 L-389.9 -1012 L-388.9 -1012 L-387.9 -1012 L-388 -1011 L-388 -1010 L-388 -1009 L-388 -1008 L-388 -1008 L-388 -1007 L-388 -1006 L-388.1 -1005 L-388.1 -1004 L-388.1 -1003 L-388.1 -1002 L-388.1 -1001 L-388.1 -999.7 L-388.1 -998.7 L-388.2 -997.7 L-388.2 -996.8 L-388.2 -995.8 L-388.2 -994.8 L-388.2 -993.8 L-388.2 -992.8 L-388.2 -991.9 L-388.3 -990.9 L-388.3 -989.9 L-388.3 -988.9 L-388.3 -988 Z " />
<path stroke="rgb(0,0,0)" stroke-opacity="1" fill="rgb(255,255,255)" fill-opacity="1" d="M-277.3 -201.1 L-277.4 -199.2 L-277.7 -197.3 L-278.1 -195.4 L-278.7 -193.5 L-279.5 -191.7 L-280.4 -189.9 L-281.4 -188.3 L-282.5 -186.7 L-283.8 -185.2 L-285.2 -183.8 L-286.6 -182.6 L-288.2 -181.4 L-289.9 -180.4 L-291.6 -179.5 L-293.4 -178.8 L-295.3 -178.2 L-297.2 -177.7 L-299.1 -177.4 L-301.1 -177.3 L-303 -177.3 L-305 -177.5 L-306.9 -177.8 L-308.8 -178.3 L-310.7 -178.9 L-312.5 -179.7 L-314.2 -180.6 L-315.8 -181.7 L-317.4 -182.8 L-318.9 -184.1 L-320.2 -185.5 L-321.4 -187 L-322.6 -188.7 L-323.5 -190.3 L-324.4 -192.1 L-325.1 -193.9 L-325.7 -195.8 L-326.1 -197.7 L-326.3 -199.6 L-326.4 -201.6 L-326.4 -203.5 L-326.1 -205.5 L-325.8 -207.4 L-325.3 -209.3 L-324.6 -211.1 L-323.8 -212.9 L-322.8 -214.6 L-321.8 -216.2 L-320.6 -217.8 L-319.2 -219.2 L-317.8 -220.5 L-316.3 -221.8 L-314.6 -222.8 L-312.9 -223.8 L-311.2 -224.6 L-309.3 -225.3 L-307.4 -225.8 L-305.5 -226.2 L-303.6 -226.4 L-301.6 -226.4 L-299.7 -226.3 L-297.7 -226.1 L-295.8 -225.7 L-293.9 -225.1 L-292.1 -224.4 L-290.4 -223.6 L-288.7 -222.6 L-287.1 -221.5 L-285.6 -220.2 L-284.1 -218.9 L-282.8 -217.4 L-281.7 -215.9 L-280.6 -214.2 L-279.7 -212.5 L-278.9 -210.7 L-278.3 -208.9 L-277.8 -207 L-277.5 -205 L-277.3 -203.1 L-277.3 -201.1 Z " />
<path stroke="rgb(0,0,0)" stroke-opacity="1" fill="rgb(255,255,255)" fill-opacity="1" d="M-888.3 -888 L-889.3 -888 L-890.3 -888 L-891.2 -888 L-892.2 -888 L-893.2 -888 L-894.2 -888 L-895.1 -888 L-896.1 -888.1 L-897.1 -888.1 L-898.1 -888.1 L-899.1 -888.1 L-900 -888.1 L-901 -888.1 L-902 -888.1 L-903 -888.2 L-903.9 -888.2 L-904.9 -888.2 L-905.9 -888.2 L-906.9 -888.2 L-907.9 -888.2 L-908.8 -888.2 L-909.8 -888.3 L-910.8 -888.3 L-911.8 -888.3 L-912.8 -888.3 L-912.7 -889.3 L-912.7 -890.3 L-912.7 -891.2 L-912.7 -892.2 L-912.7 -893.2 L-912.7 -894.2 L-912.7 -895.1 L-912.6 -896.1 L-912.6 -897.1 L-912.6 -898.1 L-912.6 -899.1 L-912.6 -900 L-912.6 -901 L-912.6 -902 L-912.5 -903 L-912.5 -904 L-912.5 -904.9 L-912.5 -905.9 L-912.5 -906.9 L-912.5 -907.9 L-912.5 -908.8 L-912.5 -909.8 L-912.4 -910.8 L-912.4 -911.8 L-912.4 -912.8 L-911.4 -912.7 L-910.5 -912.7 L-909.5 -912.7 L-908.5 -912.7 L-907.5 -912.7 L-906.5 -912.7 L-905.6 -912.7 L-904.6 -912.6 L-903.6 -912.6 L-902.6 -912.6 L-901.6 -912.6 L-900.7 -912.6 L-899.7 -912.6 L-898.7 -912.6 L-897.7 -912.6 L-896.8 -912.5 L-895.8 -912.5 L-894.8 -912.5 L-893.8 -912.5 L-892.8 -912.5 L-891.9 -912.5 L-890.9 -912.5 L-889.9 -912.4 L-888.9 -912.4 L-887.9 -912.4 L-888 -911.4 L-888 -910.5 L-888 -909.5 L-888 -908.5 L-888 -907.5 L-888 -906.5 L-888 -905.6 L-888.1 -904.6 L-888.1 -903.6 L-888.1 -902.6 L-888.1 -901.7 L-888.1 -900.7 L-888.1 -899.7 L-888.1 -898.7 L-888.2 -897.7 L-888.2 -896.8 L-888.2 -895.8 L-888.2 -894.8 L-888.2 -893.8 L-888.2 -892.8 L-888.2 -891.9 L-888.3 -890.9 L-888.3 -889.9 L-888.3 -888.9 L-888.3 -888 Z " />
<path stroke="rgb(0,0,0)" stroke-opacity="1" fill="rgb(255,255,255)" fill-opacity="1" d="M-84.21 -205.3 L-84.55 -203.4 L-85.04 -201.5 L-85.68 -199.7 L-86.47 -197.9 L-87.39 -196.1 L-88.45 -194.5 L-89.63 -192.9 L-90.94 -191.5 L-92.35 -190.1 L-93.87 -188.9 L-95.48 -187.8 L-97.18 -186.8 L-98.94 -186 L-100.8 -185.3 L-102.6 -184.8 L-104.6 -184.4 L-106.5 -184.1 L-108.5 -184 L-110.4 -184.1 L-112.3 -184.3 L-114.3 -184.7 L-116.1 -185.2 L-118 -185.9 L-119.7 -186.7 L-121.5 -187.7 L-123.1 -188.8 L-124.6 -190 L-126 -191.3 L-127.3 -192.8 L-128.5 -194.3 L-129.6 -195.9 L-130.6 -197.7 L-131.4 -199.4 L-132 -201.3 L-132.5 -203.2 L-132.9 -205.1 L-133.1 -207 L-133.1 -209 L-133 -210.9 L-132.8 -212.9 L-132.3 -214.8 L-131.8 -216.7 L-131.1 -218.5 L-130.2 -220.2 L-129.2 -221.9 L-128.1 -223.5 L-126.9 -225 L-125.5 -226.4 L-124 -227.7 L-122.5 -228.9 L-120.8 -229.9 L-119.1 -230.8 L-117.3 -231.6 L-115.4 -232.2 L-113.5 -232.7 L-111.6 -233 L-109.7 -233.2 L-107.7 -233.2 L-105.7 -233 L-103.8 -232.7 L-101.9 -232.3 L-100.1 -231.7 L-98.25 -230.9 L-96.52 -230 L-94.85 -229 L-93.27 -227.9 L-91.79 -226.6 L-90.42 -225.2 L-89.16 -223.7 L-88.02 -222.1 L-87.02 -220.4 L-86.15 -218.7 L-85.42 -216.9 L-84.84 -215 L-84.4 -213.1 L-84.12 -211.2 L-84 -209.2 L-84.03 -207.3 L-84.21 -205.3 Z " />
<path stroke="rgb(0,0,0)" stroke-opacity="1" fill="rgb(255,255,255)" fill-opacity="1" d="M-688.3 -888 L-689.3 -888 L-690.3 -888 L-691.2 -888 L-692.2 -888 L-693.2 -888 L-694.2 -888 L-695.1 -888 L-696.1 -888.1 L-697.1 -888.1 L-698.1 -888.1 L-699.1 -888.1 L-700 -888.1 L-701 -888.1 L-702 -888.1 L-703 -888.2 L-703.9 -888.2 L-704.9 -888.2 L-705.9 -888.2 L-706.9 -888.2 L-707.9 -888.2 L-708.8 -888.2 L-709.8 -888.3 L-710.8 -888.3 L-711.8 -888.3 L-712.8 -888.3 L-712.7 -889.3 L-712.7 -890.3 L-712.7 -891.2 L-712.7 -892.2 L-712.7 -893.2 L-712.7 -894.2 L-712.7 -895.1 L-712.6 -896.1 L-712.6 -897.1 L-712.6 -898.1 L-712.6 -899.1 L-712.6 -900 L-712.6 -901 L-712.6 -902 L-712.5 -903 L-712.5 -904 L-712.5 -904.9 L-712.5 -905.9 L-712.5 -906.9 L-712.5 -907.9 L-712.5 -908.8 L-712.5 -909.8 L-712.4 -910.8 L-712.4 -911.8 L-712.4 -912.8 L-711.4 -912.7 L-710.5 -912.7 L-709.5 -912.7 L-708.5 -912.7 L-707.5 -912.7 L-706.5 -912.7 L-705.6 -912.7 L-704.6 -912.6 L-703.6 -912.6 L-702.6 -912.6 L-701.6 -912.6 L-700.7 -912.6 L-699.7 -912.6 L-698.7 -912.6 L-697.7 -912.6 L-696.8 -912.5 L-695.8 -912.5 L-694.8 -912.5 L-693.8 -912.5 L-692.8 -912.5 L-691.9 -912.5 L-690.9 -912.5 L-689.9 -912.4 L-688.9 -912.4 L-687.9 -912.4 L-688 -911.4 L-688 -910.5 L-688 -909.5 L-688 -908.5 L-688 -907.5 L-688 -906.5 L-688 -905.6 L-688.1 -904.6 L-688.1 -903.6 L-688.1 -902.6 L-688.1 -901.7 L-688.1 -900.7 L-688.1 -899.7 L-688.1 -898.7 L-688.2 -897.7 L-688.2 -896.8 L-688.2 -895.8 L-688.2 -894.8 L-688.2 -893.8 L-688.2 -892.8 L-688.2 -891.9 L-688.3 -890.9 L-688.3 -889.9 L-688.3 -888.9 L-688.3 -888 Z " />
<path stroke="rgb(0,0,0)" stroke-opacity="1" fill="rgb(255,255,255)" fill-opacity="1" d="M99.42 -214.8 L98.64 -213 L97.73 -211.2 L96.67 -209.6 L95.5 -208 L94.2 -206.6 L92.78 -205.2 L91.27 -204 L89.66 -202.9 L87.97 -201.9 L86.21 -201.1 L84.38 -200.4 L82.51 -199.8 L80.6 -199.4 L78.66 -199.2 L76.71 -199.1 L74.75 -199.1 L72.81 -199.3 L70.89 -199.7 L69.01 -200.2 L67.17 -200.9 L65.4 -201.7 L63.69 -202.7 L62.06 -203.7 L60.53 -205 L59.1 -206.3 L57.77 -207.7 L56.57 -209.3 L55.49 -210.9 L54.54 -212.6 L53.73 -214.4 L53.07 -216.2 L52.56 -218.1 L52.19 -220 L51.98 -222 L51.93 -223.9 L52.03 -225.9 L52.28 -227.8 L52.69 -229.7 L53.25 -231.6 L53.96 -233.4 L54.8 -235.2 L55.79 -236.9 L56.91 -238.5 L58.15 -240 L59.5 -241.4 L60.97 -242.7 L62.53 -243.9 L64.18 -244.9 L65.91 -245.8 L67.7 -246.6 L69.55 -247.2 L71.45 -247.7 L73.38 -248 L75.32 -248.2 L77.28 -248.2 L79.23 -248.1 L81.16 -247.8 L83.06 -247.3 L84.92 -246.7 L86.73 -246 L88.47 -245.1 L90.14 -244.1 L91.72 -242.9 L93.21 -241.7 L94.59 -240.3 L95.85 -238.8 L96.99 -237.2 L98.01 -235.5 L98.89 -233.8 L99.62 -232 L100.2 -230.1 L100.7 -228.2 L100.9 -226.3 L101.1 -224.3 L101 -222.4 L100.9 -220.4 L100.5 -218.5 L100.1 -216.6 L99.42 -214.8 Z " />
<path stroke="rgb(0,0,0)" stroke-opacity="1" fill="rgb(255,255,255)" fill-opacity="1" d="M-488.3 -888 L-489.3 -888 L-490.3 -888 L-491.2 -888 L-492.2 -888 L-493.2 -888 L-494.2 -888 L-495.1 -888 L-496.1 -888.1 L-497.1 -888.1 L-498.1 -888.1 L-499.1 -888.1 L-500 -888.1 L-501 -888.1 L-502 -888.1 L-503 -888.2 L-503.9 -888.2 L-504.9 -888.2 L-505.9 -888.2 L-506.9 -888.2 L-507.9 -888.2 L-508.8 -888.2 L-509.8 -888.3 L-510.8 -888.3 L-511.8 -888.3 L-512.8 -888.3 L-512.7 -889.3 L-512.7 -890.3 L-512.7 -891.2 L-512.7 -892.2 L-512.7 -893.2 L-512.7 -894.2 L-512.7 -895.1 L-512.6 -896.1 L-512.6 -897.1 L-512.6 -898.1 L-512.6 -899.1 L-512.6 -900 L-512.6 -901 L-512.6 -902 L-512.5 -903 L-512.5 -904 L-512.5 -904.9 L-512.5 -905.9 L-512.5 -906.9 L-512.5 -907.9 L-512.5 -908.8 L-512.5 -909.8 L-512.4 -910.8 L-512.4 -911.8 L-512.4 -912.8 L-511.4 -912.7 L-510.5 -912.7 L-509.5 -912.7 L-508.5 -912.7 L-507.5 -912.7 L-506.5 -912.7 L-505.6 -912.7 L-504.6 -912.6 L-503.6 -912.6 L-502.6 -912.6 L-501.6 -912.6 L-500.7 -912.6 L-499.7 -912.6 L-498.7 -912.6 L-497.7 -912.6 L-496.8 -912.5 L-495.8 -912.5 L-494.8 -912.5 L-493.8 -912.5 L-492.8 -912.5 L-491.9 -912.5 L-490.9 -912.5 L-489.9 -912.4 L-488.9 -912.4 L-487.9 -912.4 L-488 -911.4 L-488 -910.5 L-488 -909.5 L-488 -908.5 L-488 -907.5 L-488 -906.5 L-488 -905.6 L-488.1 -904.6 L-488.1 -903.6 L-488.1 -902.6 L-488.1 -901.7 L-488.1 -900.7 L-488.1 -899.7 L-488.1 -898.7 L-488.2 -897.7 L-488.2 -896.8 L-488.2 -895.8 L-488.2 -894.8 L-488.2 -893.8 L-488.2 -892.8 L-488.2 -891.9 L-488.3 -890.9 L-488.3 -889.9 L-488.3 -888.9 L-488.3 -888 Z " />
<path stroke="rgb(0,0,0)" stroke-opacity="1" fill="rgb(255,255,255)" fill-opacity="1" d="M267.5 -232.8 L266 -231.5 L264.5 -230.3 L262.9 -229.2 L261.2 -228.3 L259.4 -227.5 L257.6 -226.8 L255.7 -226.3 L253.8 -225.9 L251.8 -225.7 L249.9 -225.6 L247.9 -225.7 L246 -226 L244.1 -226.4 L242.2 -226.9 L240.4 -227.6 L238.6 -228.5 L236.9 -229.5 L235.3 -230.6 L233.8 -231.8 L232.4 -233.2 L231.1 -234.6 L229.9 -236.2 L228.8 -237.9 L227.9 -239.6 L227.2 -241.4 L226.5 -243.2 L226 -245.1 L225.7 -247 L225.5 -249 L225.5 -250.9 L225.7 -252.9 L225.9 -254.8 L226.4 -256.7 L227 -258.6 L227.7 -260.4 L228.6 -262.2 L229.6 -263.8 L230.8 -265.4 L232 -266.9 L233.4 -268.3 L234.9 -269.5 L236.5 -270.7 L238.2 -271.7 L239.9 -272.6 L241.7 -273.3 L243.6 -273.9 L245.5 -274.4 L247.4 -274.7 L249.4 -274.8 L251.3 -274.8 L253.3 -274.6 L255.2 -274.3 L257.1 -273.8 L258.9 -273.2 L260.7 -272.4 L262.5 -271.5 L264.1 -270.4 L265.7 -269.2 L267.1 -267.9 L268.5 -266.5 L269.7 -265 L270.8 -263.4 L271.8 -261.7 L272.7 -260 L273.4 -258.1 L273.9 -256.3 L274.3 -254.4 L274.6 -252.4 L274.7 -250.5 L274.6 -248.5 L274.4 -246.6 L274 -244.6 L273.5 -242.8 L272.9 -240.9 L272 -239.1 L271.1 -237.4 L270 -235.8 L268.8 -234.3 L267.5 -232.8 Z " />
<path stroke="rgb(0,0,0)" stroke-opacity="1" fill="rgb(255,255,255)" fill-opacity="1" d="M-988.3 -788 L-989.3 -788 L-990.3 -788 L-991.2 -788 L-992.2 -788 L-993.2 -788 L-994.2 -788 L-995.1 -788 L-996.1 -788.1 L-997.1 -788.1 L-998.1 -788.1 L-999.1 -788.1 L-1000 -788.1 L-1001 -788.1 L-1002 -788.1 L-1003 -788.2 L-1004 -788.2 L-1005 -788.2 L-1006 -788.2 L-1007 -788.2 L-1008 -788.2 L-1009 -788.2 L-1010 -788.3 L-1011 -788.3 L-1012 -788.3 L-1013 -788.3 L-1013 -789.3 L-1013 -790.3 L-1013 -791.2 L-1013 -792.2 L-1013 -793.2 L-1013 -794.2 L-1013 -795.1 L-1013 -796.1 L-1013 -797.1 L-1013 -798.1 L-1013 -799.1 L-1013 -800 L-1013 -801 L-1013 -802 L-1013 -803 L-1013 -804 L-1013 -804.9 L-1013 -805.9 L-1012 -806.9 L-1012 -807.9 L-1012 -808.8 L-1012 -809.8 L-1012 -810.8 L-1012 -811.8 L-1012 -812.8 L-1011 -812.7 L-1010 -812.7 L-1009 -812.7 L-1008 -812.7 L-1008 -812.7 L-1007 -812.7 L-1006 -812.7 L-1005 -812.6 L-1004 -812.6 L-1003 -812.6 L-1002 -812.6 L-1001 -812.6 L-999.7 -812.6 L-998.7 -812.6 L-997.7 -812.6 L-996.8 -812.5 L-995.8 -812.5 L-994.8 -812.5 L-993.8 -812.5 L-992.8 -812.5 L-991.9 -812.5 L-990.9 -812.5 L-989.9 -812.4 L-988.9 -812.4 L-987.9 -812.4 L-988 -811.4 L-988 -810.5 L-988 -809.5 L-988 -808.5 L-988 -807.5 L-988 -806.5 L-988 -805.6 L-988.1 -804.6 L-988.1 -803.6 L-988.1 -802.6 L-988.1 -801.7 L-988.1 -800.7 L-988.1 -799.7 L-988.1 -798.7 L-988.2 -797.7 L-988.2 -796.8 L-988.2 -795.8 L-988.2 -794.8 L-988.2 -793.8 L-988.2 -792.8 L-988.2 -791.9 L-988.3 -790.9 L-988.3 -789.9 L-988.3 -788.9 L-988.3 -788 Z " />
<path stroke="rgb(0,0,0)" stroke-opacity="1" fill="rgb(255,255,255)" fill-opacity="1" d="M-184.2 -105.3 L-184.6 -103.4 L-185 -101.5 L-185.7 -99.65 L-186.5 -97.86 L-187.4 -96.14 L-188.4 -94.5 L-189.6 -92.94 L-190.9 -91.49 L-192.4 -90.14 L-193.9 -88.91 L-195.5 -87.81 L-197.2 -86.84 L-198.9 -86 L-200.8 -85.31 L-202.6 -84.76 L-204.6 -84.37 L-206.5 -84.13 L-208.5 -84.04 L-210.4 -84.11 L-212.3 -84.33 L-214.3 -84.71 L-216.1 -85.24 L-218 -85.91 L-219.7 -86.73 L-221.5 -87.69 L-223.1 -88.78 L-224.6 -90 L-226 -91.33 L-227.3 -92.77 L-228.5 -94.32 L-229.6 -95.95 L-230.6 -97.66 L-231.4 -99.44 L-232 -101.3 L-232.5 -103.2 L-232.9 -105.1 L-233.1 -107 L-233.1 -109 L-233 -110.9 L-232.8 -112.9 L-232.3 -114.8 L-231.8 -116.7 L-231.1 -118.5 L-230.2 -120.2 L-229.2 -121.9 L-228.1 -123.5 L-226.9 -125 L-225.5 -126.4 L-224 -127.7 L-222.5 -128.9 L-220.8 -129.9 L-219.1 -130.8 L-217.3 -131.6 L-215.4 -132.2 L-213.5 -132.7 L-211.6 -133 L-209.7 -133.2 L-207.7 -133.2 L-205.7 -133 L-203.8 -132.7 L-201.9 -132.3 L-200.1 -131.7 L-198.3 -130.9 L-196.5 -130 L-194.9 -129 L-193.3 -127.9 L-191.8 -126.6 L-190.4 -125.2 L-189.2 -123.7 L-188 -122.1 L-187 -120.4 L-186.1 -118.7 L-185.4 -116.9 L-184.8 -115 L-184.4 -113.1 L-184.1 -111.2 L-184 -109.2 L-184 -107.3 L-184.2 -105.3 Z " />
<path stroke="rgb(0,0,0)" stroke-opacity="1" fill="rgb(255,255,255)" fill-opacity="1" d="M-788.3 -788 L-789.3 -788 L-790.3 -788 L-791.2 -788 L-792.2 -788 L-793.2 -788 L-794.2 -788 L-795.1 -788 L-796.1 -788.1 L-797.1 -788.1 L-798.1 -788.1 L-799.1 -788.1 L-800 -788.1 L-801 -788.1 L-802 -788.1 L-803 -788.2 L-803.9 -788.2 L-804.9 -788.2 L-805.9 -788.2 L-806.9 -788.2 L-807.9 -788.2 L-808.8 -788.2 L-809.8 -788.3 L-810.8 -788.3 L-811.8 -788.3 L-812.8 -788.3 L-812.7 -789.3 L-812.7 -790.3 L-812.7 -791.2 L-812.7 -792.2 L-812.7 -793.2 L-812.7 -794.2 L-812.7 -795.1 L-812.6 -796.1 L-812.6 -797.1 L-812.6 -798.1 L-812.6 -799.1 L-812.6 -800 L-812.6 -801 L-812.6 -802 L-812.5 -803 L-812.5 -804 L-812.5 -804.9 L-812.5 -805.9 L-812.5 -806.9 L-812.5 -807.9 L-812.5 -808.8 L-812.5 -809.8 L-812.4 -810.8 L-812.4 -811.8 L-812.4 -812.8 L-811.4 -812.7 L-810.5 -812.7 L-809.5 -812.7 L-808.5 -812.7 L-807.5 -812.7 L-806.5 -812.7 L-805.6 -812.7 L-804.6 -812.6 L-803.6 -812.6 L-802.6 -812.6 L-801.6 -812.6 L-800.7 -812.6 L-799.7 -812.6 L-798.7 -812.6 L-797.7 -812.6 L-796.8 -812.5 L-795.8 -812.5 L-794.8 -812.5 L-793.8 -812.5 L-792.8 -812.5 L-791.9 -812.5 L-790.9 -812.5 L-789.9 -812.4 L-788.9 -812.4 L-787.9 -812.4 L-788 -811.4 L-788 -810.5 L-788 -809.5 L-788 -808.5 L-788 -807.5 L-788 -806.5 L-788 -805.6 L-788.1 -804.6 L-788.1 -803.6 L-788.1 -802.6 L-788.1 -801.7 L-788.1 -800.7 L-788.1 -799.7 L-788.1 -798.7 L-788.2 -797.7 L-788.2 -796.8 L-788.2 -795.8 L-788.2 -794.8 L-788.2 -793.8 L-788.2 -792.8 L-788.2 -791.9 L-788.3 -790.9 L-788.3 -789.9 L-788.3 -788.9 L-788.3 -788 Z " />
<path stroke="rgb(0,0,0)" stroke-opacity="1" fill="rgb(255,255,255)" fill-opacity="1" d="M-0.5783 -114.8 L-1.356 -113 L-2.274 -111.2 L-3.325 -109.6 L-4.505 -108 L-5.804 -106.6 L-7.215 -105.2 L-8.73 -104 L-10.34 -102.9 L-12.03 -101.9 L-13.79 -101.1 L-15.62 -100.4 L-17.49 -99.8 L-19.4 -99.4 L-21.34 -99.15 L-23.29 -99.06 L-25.25 -99.12 L-27.19 -99.34 L-29.11 -99.71 L-30.99 -100.2 L-32.83 -100.9 L-34.6 -101.7 L-36.31 -102.7 L-37.94 -103.7 L-39.47 -105 L-40.9 -106.3 L-42.23 -107.7 L-43.43 -109.3 L-44.51 -110.9 L-45.46 -112.6 L-46.27 -114.4 L-46.93 -116.2 L-47.44 -118.1 L-47.81 -120 L-48.02 -122 L-48.07 -123.9 L-47.97 -125.9 L-47.72 -127.8 L-47.31 -129.7 L-46.75 -131.6 L-46.04 -133.4 L-45.2 -135.2 L-44.21 -136.9 L-43.09 -138.5 L-41.85 -140 L-40.5 -141.4 L-39.03 -142.7 L-37.47 -143.9 L-35.82 -144.9 L-34.09 -145.8 L-32.3 -146.6 L-30.45 -147.2 L-28.55 -147.7 L-26.62 -148 L-24.68 -148.2 L-22.72 -148.2 L-20.77 -148.1 L-18.84 -147.8 L-16.94 -147.3 L-15.08 -146.7 L-13.27 -146 L-11.53 -145.1 L-9.859 -144.1 L-8.278 -142.9 L-6.793 -141.7 L-5.413 -140.3 L-4.148 -138.8 L-3.005 -137.2 L-1.992 -135.5 L-1.115 -133.8 L-0.3787 -132 L0.2111 -130.1 L0.6509 -128.2 L0.938 -126.3 L1.071 -124.3 L1.048 -122.4 L0.8702 -120.4 L0.5383 -118.5 L0.05447 -116.6 L-0.5783 -114.8 Z " />
<path stroke="rgb(0,0,0)" stroke-opacity="1" fill="rgb(255,255,255)" fill-opacity="1" d="M-588.3 -788 L-589.3 -788 L-590.3 -788 L-591.2 -788 L-592.2 -788 L-593.2 -788 L-594.2 -788 L-595.1 -788 L-596.1 -788.1 L-597.1 -788.1 L-598.1 -788.1 L-599.1 -788.1 L-600 -788.1 L-601 -788.1 L-602 -788.1 L-603 -788.2 L-603.9 -788.2 L-604.9 -788.2 L-605.9 -788.2 L-606.9 -788.2 L-607.9 -788.2 L-608.8 -788.2 L-609.8 -788.3 L-610.8 -788.3 L-611.8 -788.3 L-612.8 -788.3 L-612.7 -789.3 L-612.7 -790.3 L-612.7 -791.2 L-612.7 -792.2 L-612.7 -793.2 L-612.7 -794.2 L-612.7 -795.1 L-612.6 -796.1 L-612.6 -797.1 L-612.6 -798.1 L-612.6 -799.1 L-612.6 -800 L-612.6 -801 L-612.6 -802 L-612.5 -803 L-612.5 -804 L-612.5 -804.9 L-612.5 -805.9 L-612.5 -806.9 L-612.5 -807.9 L-612.5 -808.8 L-612.5 -809.8 L-612.4 -810.8 L-612.4 -811.8 L-612.4 -812.8 L-611.4 -812.7 L-610.5 -812.7 L-609.5 -812.7 L-608.5 -812.7 L-607.5 -812.7 L-606.5 -812.7 L-605.6 -812.7 L-604.6 -812.6 L-603.6 -812.6 L-602.6 -812.6 L-601.6 -812.6 L-600.7 -812.6 L-599.7 -812.6 L-598.7 -812.6 L-597.7 -812.6 L-596.8 -812.5 L-595.8 -812.5 L-594.8 -812.5 L-593.8 -812.5 L-592.8 -812.5 L-591.9 -812.5 L-590.9 -812.5 L-589.9 -812.4 L-588.9 -812.4 L-587.9 -812.4 L-588 -811.4 L-588 -810.5 L-588 -809.5 L-588 -808.5 L-588 -807.5 L-588 -806.5 L-588 -805.6 L-588.1 -804.6 L-588.1 -803.6 L-588.1 -802.6 L-588.1 -801.7 L-588.1 -800.7 L-588.1 -799.7 L-588.1 -798.7 L-588.2 -797.7 L-588.2 -796.8 L-588.2 -795.8 L-588.2 -794.8 L-588.2 -793.8 L-588.2 -792.8 L-588.2 -791.9 L-588.3 -790.9 L-588.3 -789.9 L-588.3 -788.9 L-588.3 -788 Z " />
<path stroke="rgb(0,0,0)" stroke-opacity="1" fill="rgb(255,255,255)" fill-opacity="1" d="M167.5 -132.8 L166 -131.5 L164.5 -130.3 L162.9 -129.2 L161.2 -128.3 L159.4 -127.5 L157.6 -126.8 L155.7 -126.3 L153.8 -125.9 L151.8 -125.7 L149.9 -125.6 L147.9 -125.7 L146 -126 L144.1 -126.4 L142.2 -126.9 L140.4 -127.6 L138.6 -128.5 L136.9 -129.5 L135.3 -130.6 L133.8 -131.8 L132.4 -133.2 L131.1 -134.6 L129.9 -136.2 L128.8 -137.9 L127.9 -139.6 L127.2 -141.4 L126.5 -143.2 L126 -145.1 L125.7 -147 L125.5 -149 L125.5 -150.9 L125.7 -152.9 L125.9 -154.8 L126.4 -156.7 L127 -158.6 L127.7 -160.4 L128.6 -162.2 L129.6 -163.8 L130.8 -165.4 L132 -166.9 L133.4 -168.3 L134.9 -169.5 L136.5 -170.7 L138.2 -171.7 L139.9 -172.6 L141.7 -173.3 L143.6 -173.9 L145.5 -174.4 L147.4 -174.7 L149.4 -174.8 L151.3 -174.8 L153.3 -174.6 L155.2 -174.3 L157.1 -173.8 L158.9 -173.2 L160.7 -172.4 L162.5 -171.5 L164.1 -170.4 L165.7 -169.2 L167.1 -167.9 L168.5 -166.5 L169.7 -165 L170.8 -163.4 L171.8 -161.7 L172.7 -160 L173.4 -158.1 L173.9 -156.3 L174.3 -154.4 L174.6 -152.4 L174.7 -150.5 L174.6 -148.5 L174.4 -146.6 L174 -144.6 L173.5 -142.8 L172.9 -140.9 L172 -139.1 L171.1 -137.4 L170 -135.8 L168.8 -134.3 L167.5 -132.8 Z " />
<path stroke="rgb(0,0,0)" stroke-opacity="1" fill="rgb(255,255,255)" fill-opacity="1" d="M-388.3 -788 L-389.3 -788 L-390.3 -788 L-391.2 -788 L-392.2 -788 L-393.2 -788 L-394.2 -788 L-395.1 -788 L-396.1 -788.1 L-397.1 -788.1 L-398.1 -788.1 L-399.1 -788.1 L-400 -788.1 L-401 -788.1 L-402 -788.1 L-403 -788.2 L-403.9 -788.2 L-404.9 -788.2 L-405.9 -788.2 L-406.9 -788.2 L-407.9 -788.2 L-408.8 -788.2 L-409.8 -788.3 L-410.8 -788.3 L-411.8 -788.3 L-412.8 -788.3 L-412.7 -789.3 L-412.7 -790.3 L-412.7 -791.2 L-412.7 -792.2 L-412.7 -793.2 L-412.7 -794.2 L-412.7 -795.1 L-412.6 -796.1 L-412.6 -797.1 L-412.6 -798.1 L-412.6 -799.1 L-412.6 -800 L-412.6 -801 L-412.6 -802 L-412.5 -803 L-412.5 -804 L-412.5 -804.9 L-412.5 -805.9 L-412.5 -806.9 L-412.5 -807.9 L-412.5 -808.8 L-412.5 -809.8 L-412.4 -810.8 L-412.4 -811.8 L-412.4 -812.8 L-411.4 -812.7 L-410.5 -812.7 L-409.5 -812.7 L-408.5 -812.7 L-407.5 -812.7 L-406.5 -812.7 L-405.6 -812.7 L-404.6 -812.6 L-403.6 -812.6 L-402.6 -812.6 L-401.6 -812.6 L-400.7 -812.6 L-399.7 -812.6 L-398.7 -812.6 L-397.7 -812.6 L-396.8 -812.5 L-395.8 -812.5 L-394.8 -812.5 L-393.8 -812.5 L-392.8 -812.5 L-391.9 -812.5 L-390.9 -812.5 L-389.9 -812.4 L-388.9 -812.4 L-387.9 -812.4 L-388 -811.4 L-388 -810.5 L-388 -809.5 L-388 -808.5 L-388 -807.5 L-388 -806.5 L-388 -805.6 L-388.1 -804.6 L-388.1 -803.6 L-388.1 -802.6 L-388.1 -801.7 L-388.1 -800.7 L-388.1 -799.7 L-388.1 -798.7 L-388.2 -797.7 L-388.2 -796.8 L-388.2 -795.8 L-388.2 -794.8 L-388.2 -793.8 L-388.2 -792.8 L-388.2 -791.9 L-388.3 -790.9 L-388.3 -789.9 L-388.3 -788.9 L-388.3 -788 Z " />
<path stroke="rgb(0,0,0)" stroke-opacity="1" fill="rgb(255,255,255)" fill-opacity="1" d="M-284.2 -5.314 L-284.6 -3.39 L-285 -1.498 L-285.7 0.3478 L-286.5 2.137 L-287.4 3.859 L-288.4 5.502 L-289.6 7.055 L-290.9 8.51 L-292.4 9.856 L-293.9 11.09 L-295.5 12.19 L-297.2 13.16 L-298.9 14 L-300.8 14.69 L-302.6 15.24 L-304.6 15.63 L-306.5 15.87 L-308.5 15.96 L-310.4 15.89 L-312.3 15.67 L-314.3 15.29 L-316.1 14.76 L-318 14.09 L-319.7 13.27 L-321.5 12.31 L-323.1 11.22 L-324.6 10 L-326 8.67 L-327.3 7.227 L-328.5 5.684 L-329.6 4.051 L-330.6 2.338 L-331.4 0.5558 L-332 -1.284 L-332.5 -3.171 L-332.9 -5.092 L-333.1 -7.035 L-333.1 -8.989 L-333 -10.94 L-332.8 -12.88 L-332.3 -14.79 L-331.8 -16.66 L-331.1 -18.47 L-330.2 -20.23 L-329.2 -21.92 L-328.1 -23.51 L-326.9 -25.02 L-325.5 -26.42 L-324 -27.71 L-322.5 -28.88 L-320.8 -29.92 L-319.1 -30.82 L-317.3 -31.59 L-315.4 -32.21 L-313.5 -32.68 L-311.6 -33 L-309.7 -33.16 L-307.7 -33.17 L-305.7 -33.02 L-303.8 -32.72 L-301.9 -32.27 L-300.1 -31.67 L-298.3 -30.92 L-296.5 -30.03 L-294.9 -29 L-293.3 -27.85 L-291.8 -26.57 L-290.4 -25.19 L-289.2 -23.69 L-288 -22.1 L-287 -20.43 L-286.1 -18.68 L-285.4 -16.87 L-284.8 -15 L-284.4 -13.1 L-284.1 -11.16 L-284 -9.213 L-284 -7.259 L-284.2 -5.314 Z " />
<path stroke="rgb(0,0,0)" stroke-opacity="1" fill="rgb(255,255,255)" fill-opacity="1" d="M-888.3 -688 L-889.3 -688 L-890.3 -688 L-891.2 -688 L-892.2 -688 L-893.2 -688 L-894.2 -688 L-895.1 -688 L-896.1 -688.1 L-897.1 -688.1 L-898.1 -688.1 L-899.1 -688.1 L-900 -688.1 L-901 -688.1 L-902 -688.1 L-903 -688.2 L-903.9 -688.2 L-904.9 -688.2 L-905.9 -688.2 L-906.9 -688.2 L-907.9 -688.2 L-908.8 -688.2 L-909.8 -688.3 L-910.8 -688.3 L-911.8 -688.3 L-912.8 -688.3 L-912.7 -689.3 L-912.7 -690.3 L-912.7 -691.2 L-912.7 -692.2 L-912.7 -693.2 L-912.7 -694.2 L-912.7 -695.1 L-912.6 -696.1 L-912.6 -697.1 L-912.6 -698.1 L-912.6 -699.1 L-912.6 -700 L-912.6 -701 L-912.6 -702 L-912.5 -703 L-912.5 -704 L-912.5 -704.9 L-912.5 -705.9 L-912.5 -706.9 L-912.5 -707.9 L-912.5 -708.8 L-912.5 -709.8 L-912.4 -710.8 L-912.4 -711.8 L-912.4 -712.8 L-911.4 -712.7 L-910.5 -712.7 L-909.5 -712.7 L-908.5 -712.7 L-907.5 -712.7 L-906.5 -712.7 L-905.6 -712.7 L-904.6 -712.6 L-903.6 -712.6 L-902.6 -712.6 L-901.6 -712.6 L-900.7 -712.6 L-899.7 -712.6 L-898.7 -712.6 L-897.7 -712.6 L-896.8 -712.5 L-895.8 -712.5 L-894.8 -712.5 L-893.8 -712.5 L-892.8 -712.5 L-891.9 -712.5 L-890.9 -712.5 L-889.9 -712.4 L-888.9 -712.4 L-887.9 -712.4 L-888 -711.4 L-888 -710.5 L-888 -709.5 L-888 -708.5 L-888 -707.5 L-888 -706.5 L-888 -705.6 L-888.1 -704.6 L-888.1 -703.6 L-888.1 -702.6 L-888.1 -701.7 L-888.1 -700.7 L-888.1 -699.7 L-888.1 -698.7 L-888.2 -697.7 L-888.2 -696.8 L-888.2 -695.8 L-888.2 -694.8 L-888.2 -693.8 L-888.2 -692.8 L-888.2 -691.9 L-888.3 -690.9 L-888.3 -689.9 L-888.3 -688.9 L-888.3 -688 Z " />
<path stroke="rgb(0,0,0)" stroke-opacity="1" fill="rgb(255,255,255)" fill-opacity="1" d="M-100.6 -14.76 L-101.4 -12.96 L-102.3 -11.24 L-103.3 -9.593 L-104.5 -8.034 L-105.8 -6.575 L-107.2 -5.223 L-108.7 -3.988 L-110.3 -2.876 L-112 -1.897 L-113.8 -1.054 L-115.6 -0.3543 L-117.5 0.1982 L-119.4 0.6001 L-121.3 0.8488 L-123.3 0.9426 L-125.2 0.8811 L-127.2 0.6646 L-129.1 0.2945 L-131 -0.2269 L-132.8 -0.8963 L-134.6 -1.709 L-136.3 -2.661 L-137.9 -3.745 L-139.5 -4.956 L-140.9 -6.284 L-142.2 -7.722 L-143.4 -9.26 L-144.5 -10.89 L-145.5 -12.6 L-146.3 -14.38 L-146.9 -16.22 L-147.4 -18.1 L-147.8 -20.02 L-148 -21.97 L-148.1 -23.92 L-148 -25.87 L-147.7 -27.81 L-147.3 -29.72 L-146.8 -31.59 L-146 -33.41 L-145.2 -35.17 L-144.2 -36.86 L-143.1 -38.47 L-141.9 -39.98 L-140.5 -41.38 L-139 -42.68 L-137.5 -43.85 L-135.8 -44.9 L-134.1 -45.81 L-132.3 -46.58 L-130.4 -47.21 L-128.6 -47.69 L-126.6 -48.01 L-124.7 -48.18 L-122.7 -48.2 L-120.8 -48.06 L-118.8 -47.77 L-116.9 -47.32 L-115.1 -46.72 L-113.3 -45.98 L-111.5 -45.1 L-109.9 -44.08 L-108.3 -42.93 L-106.8 -41.66 L-105.4 -40.28 L-104.1 -38.79 L-103 -37.2 L-102 -35.53 L-101.1 -33.79 L-100.4 -31.98 L-99.79 -30.11 L-99.35 -28.21 L-99.06 -26.28 L-98.93 -24.33 L-98.95 -22.37 L-99.13 -20.43 L-99.46 -18.5 L-99.95 -16.61 L-100.6 -14.76 Z " />
<path stroke="rgb(0,0,0)" stroke-opacity="1" fill="rgb(255,255,255)" fill-opacity="1" d="M-688.3 -688 L-689.3 -688 L-690.3 -688 L-691.2 -688 L-692.2 -688 L-693.2 -688 L-694.2 -688 L-695.1 -688 L-696.1 -688.1 L-697.1 -688.1 L-698.1 -688.1 L-699.1 -688.1 L-700 -688.1 L-701 -688.1 L-702 -688.1 L-703 -688.2 L-703.9 -688.2 L-704.9 -688.2 L-705.9 -688.2 L-706.9 -688.2 L-707.9 -688.2 L-708.8 -688.2 L-709.8 -688.3 L-710.8 -688.3 L-711.8 -688.3 L-712.8 -688.3 L-712.7 -689.3 L-712.7 -690.3 L-712.7 -691.2 L-712.7 -692.2 L-712.7 -693.2 L-712.7 -694.2 L-712.7 -695.1 L-712.6 -696.1 L-712.6 -697.1 L-712.6 -698.1 L-712.6 -699.1 L-712.6 -700 L-712.6 -701 L-712.6 -702 L-712.5 -703 L-712.5 -704 L-712.5 -704.9 L-712.5 -705.9 L-712.5 -706.9 L-712.5 -707.9 L-712.5 -708.8 L-712.5 -709.8 L-712.4 -710.8 L-712.4 -711.8 L-712.4 -712.8 L-711.4 -712.7 L-710.5 -712.7 L-709.5 -712.7 L-708.5 -712.7 L-707.5 -712.7 L-706.5 -712.7 L-705.6 -712.7 L-704.6 -712.6 L-703.6 -712.6 L-702.6 -712.6 L-701.6 -712.6 L-700.7 -712.6 L-699.7 -712.6 L-698.7 -712.6 L-697.7 -712.6 L-696.8 -712.5 L-695.8 -712.5 L-694.8 -712.5 L-693.8 -712.5 L-692.8 -712.5 L-691.9 -712.5 L-690.9 -712.5 L-689.9 -712.4 L-688.9 -712.4 L-687.9 -712.4 L-688 -711.4 L-688 -710.5 L-688 -709.5 L-688 -708.5 L-688 -707.5 L-688 -706.5 L-688 -705.6 L-688.1 -704.6 L-688.1 -703.6 L-688.1 -702.6 L-688.1 -701.7 L-688.1 -700.7 L-688.1 -699.7 L-688.1 -698.7 L-688.2 -697.7 L-688.2 -696.8 L-688.2 -695.8 L-688.2 -694.8 L-688.2 -693.8 L-688.2 -692.8 L-688.2 -691.9 L-688.3 -690.9 L-688.3 -689.9 L-688.3 -688.9 L-688.3 -688 Z " />
<path stroke="rgb(0,0,0)" stroke-opacity="1" fill="rgb(255,255,255)" fill-opacity="1" d="M67.48 -32.83 L66.05 -31.5 L64.51 -30.3 L62.88 -29.21 L61.17 -28.27 L59.39 -27.45 L57.56 -26.79 L55.67 -26.27 L53.75 -25.9 L51.81 -25.69 L49.85 -25.63 L47.9 -25.73 L45.96 -25.98 L44.05 -26.38 L42.18 -26.94 L40.35 -27.64 L38.59 -28.49 L36.9 -29.47 L35.29 -30.59 L33.78 -31.82 L32.37 -33.18 L31.07 -34.64 L29.9 -36.2 L28.85 -37.85 L27.93 -39.58 L27.16 -41.37 L26.53 -43.22 L26.05 -45.12 L25.72 -47.05 L25.54 -48.99 L25.52 -50.95 L25.66 -52.9 L25.95 -54.83 L26.39 -56.73 L26.99 -58.6 L27.72 -60.41 L28.6 -62.15 L29.62 -63.82 L30.77 -65.41 L32.04 -66.89 L33.42 -68.28 L34.91 -69.54 L36.49 -70.69 L38.16 -71.71 L39.9 -72.59 L41.71 -73.33 L43.58 -73.92 L45.48 -74.36 L47.41 -74.65 L49.36 -74.79 L51.32 -74.77 L53.27 -74.6 L55.19 -74.27 L57.09 -73.79 L58.94 -73.16 L60.73 -72.38 L62.46 -71.47 L64.11 -70.42 L65.67 -69.24 L67.13 -67.94 L68.49 -66.53 L69.73 -65.02 L70.84 -63.41 L71.82 -61.72 L72.67 -59.96 L73.37 -58.14 L73.93 -56.26 L74.33 -54.35 L74.58 -52.41 L74.68 -50.46 L74.62 -48.51 L74.41 -46.56 L74.04 -44.64 L73.52 -42.76 L72.86 -40.92 L72.05 -39.14 L71.1 -37.43 L70.02 -35.8 L68.81 -34.27 L67.48 -32.83 Z " />
<path stroke="rgb(0,0,0)" stroke-opacity="1" fill="rgb(255,255,255)" fill-opacity="1" d="M-488.3 -688 L-489.3 -688 L-490.3 -688 L-491.2 -688 L-492.2 -688 L-493.2 -688 L-494.2 -688 L-495.1 -688 L-496.1 -688.1 L-497.1 -688.1 L-498.1 -688.1 L-499.1 -688.1 L-500 -688.1 L-501 -688.1 L-502 -688.1 L-503 -688.2 L-503.9 -688.2 L-504.9 -688.2 L-505.9 -688.2 L-506.9 -688.2 L-507.9 -688.2 L-508.8 -688.2 L-509.8 -688.3 L-510.8 -688.3 L-511.8 -688.3 L-512.8 -688.3 L-512.7 -689.3 L-512.7 -690.3 L-512.7 -691.2 L-512.7 -692.2 L-512.7 -693.2 L-512.7 -694.2 L-512.7 -695.1 L-512.6 -696.1 L-512.6 -697.1 L-512.6 -698.1 L-512.6 -699.1 L-512.6 -700 L-512.6 -701 L-512.6 -702 L-512.5 -703 L-512.5 -704 L-512.5 -704.9 L-512.5 -705.9 L-512.5 -706.9 L-512.5 -707.9 L-512.5 -708.8 L-512.5 -709.8 L-512.4 -710.8 L-512.4 -711.8 L-512.4 -712.8 L-511.4 -712.7 L-510.5 -712.7 L-509.5 -712.7 L-508.5 -712.7 L-507.5 -712.7 L-506.5 -712.7 L-505.6 -712.7 L-504.6 -712.6 L-503.6 -712.6 L-502.6 -712.6 L-501.6 -712.6 L-500.7 -712.6 L-499.7 -712.6 L-498.7 -712.6 L-497.7 -712.6 L-496.8 -712.5 L-495.8 -712.5 L-494.8 -712.5 L-493.8 -712.5 L-492.8 -712.5 L-491.9 -712.5 L-490.9 -712.5 L-489.9 -712.4 L-488.9 -712.4 L-487.9 -712.4 L-488 -711.4 L-488 -710.5 L-488 -709.5 L-488 -708.5 L-488 -707.5 L-488 -706.5 L-488 -705.6 L-488.1 -704.6 L-488.1 -703.6 L-488.1 -702.6 L-488.1 -701.7 L-488.1 -700.7 L-488.1 -699.7 L-488.1 -698.7 L-488.2 -697.7 L-488.2 -696.8 L-488.2 -695.8 L-488.2 -694.8 L-488.2 -693.8 L-488.2 -692.8 L-488.2 -691.9 L-488.3 -690.9 L-488.3 -689.9 L-488.3 -688.9 L-488.3 -688 Z " />
<path stroke="rgb(0,0,0)" stroke-opacity="1" fill="rgb(255,255,255)" fill-opacity="1" d="M232.6 -53.83 L230.8 -53.19 L228.9 -52.71 L226.9 -52.38 L225 -52.2 L223 -52.18 L221.1 -52.31 L219.2 -52.59 L217.2 -53.03 L215.4 -53.62 L213.6 -54.36 L211.8 -55.24 L210.2 -56.25 L208.6 -57.4 L207.1 -58.66 L205.7 -60.04 L204.4 -61.53 L203.3 -63.11 L202.3 -64.78 L201.4 -66.52 L200.6 -68.33 L200 -70.2 L199.6 -72.1 L199.3 -74.03 L199.1 -75.98 L199.2 -77.94 L199.3 -79.89 L199.7 -81.81 L200.1 -83.71 L200.8 -85.56 L201.5 -87.36 L202.5 -89.09 L203.5 -90.74 L204.7 -92.3 L206 -93.77 L207.4 -95.13 L208.9 -96.37 L210.5 -97.49 L212.2 -98.47 L213.9 -99.32 L215.8 -100 L217.6 -100.6 L219.6 -101 L221.5 -101.2 L223.4 -101.4 L225.4 -101.3 L227.3 -101.1 L229.3 -100.7 L231.1 -100.2 L233 -99.54 L234.8 -98.73 L236.5 -97.79 L238.1 -96.71 L239.7 -95.5 L241.1 -94.18 L242.4 -92.74 L243.6 -91.21 L244.7 -89.58 L245.7 -87.87 L246.5 -86.1 L247.2 -84.26 L247.7 -82.37 L248 -80.45 L248.3 -78.51 L248.3 -76.56 L248.2 -74.6 L248 -72.66 L247.6 -70.75 L247 -68.87 L246.3 -67.05 L245.5 -65.28 L244.5 -63.59 L243.4 -61.98 L242.2 -60.47 L240.8 -59.06 L239.3 -57.76 L237.8 -56.58 L236.1 -55.52 L234.4 -54.6 L232.6 -53.83 Z " />
<path stroke="rgb(0,0,0)" stroke-opacity="1" fill="rgb(255,255,255)" fill-opacity="1" d="M-988.3 -588 L-989.3 -588 L-990.3 -588 L-991.2 -588 L-992.2 -588 L-993.2 -588 L-994.2 -588 L-995.1 -588 L-996.1 -588.1 L-997.1 -588.1 L-998.1 -588.1 L-999.1 -588.1 L-1000 -588.1 L-1001 -588.1 L-1002 -588.1 L-1003 -588.2 L-1004 -588.2 L-1005 -588.2 L-1006 -588.2 L-1007 -588.2 L-1008 -588.2 L-1009 -588.2 L-1010 -588.3 L-1011 -588.3 L-1012 -588.3 L-1013 -588.3 L-1013 -589.3 L-1013 -590.3 L-1013 -591.2 L-1013 -592.2 L-1013 -593.2 L-1013 -594.2 L-1013 -595.1 L-1013 -596.1 L-1013 -597.1 L-1013 -598.1 L-1013 -599.1 L-1013 -600 L-1013 -601 L-1013 -602 L-1013 -603 L-1013 -604 L-1013 -604.9 L-1013 -605.9 L-1012 -606.9 L-1012 -607.9 L-1012 -608.8 L-1012 -609.8 L-1012 -610.8 L-1012 -611.8 L-1012 -612.8 L-1011 -612.7 L-1010 -612.7 L-1009 -612.7 L-1008 -612.7 L-1008 -612.7 L-1007 -612.7 L-1006 -612.7 L-1005 -612.6 L-1004 -612.6 L-1003 -612.6 L-1002 -612.6 L-1001 -612.6 L-999.7 -612.6 L-998.7 -612.6 L-997.7 -612.6 L-996.8 -612.5 L-995.8 -612.5 L-994.8 -612.5 L-993.8 -612.5 L-992.8 -612.5 L-991.9 -612.5 L-990.9 -612.5 L-989.9 -612.4 L-988.9 -612.4 L-987.9 -612.4 L-988 -611.4 L-988 -610.5 L-988 -609.5 L-988 -608.5 L-988 -607.5 L-988 -606.5 L-988 -605.6 L-988.1 -604.6 L-988.1 -603.6 L-988.1 -602.6 L-988.1 -601.7 L-988.1 -600.7 L-988.1 -599.7 L-988.1 -598.7 L-988.2 -597.7 L-988.2 -596.8 L-988.2 -595.8 L-988.2 -594.8 L-988.2 -593.8 L-988.2 -592.8 L-988.2 -591.9 L-988.3 -590.9 L-988.3 -589.9 L-988.3 -588.9 L-988.3 -588 Z " />
<path stroke="rgb(0,0,0)" stroke-opacity="1" fill="rgb(255,255,255)" fill-opacity="1" d="M-200.6 85.24 L-201.4 87.04 L-202.3 88.76 L-203.3 90.41 L-204.5 91.97 L-205.8 93.43 L-207.2 94.78 L-208.7 96.01 L-210.3 97.12 L-212 98.1 L-213.8 98.95 L-215.6 99.65 L-217.5 100.2 L-219.4 100.6 L-221.3 100.8 L-223.3 100.9 L-225.2 100.9 L-227.2 100.7 L-229.1 100.3 L-231 99.77 L-232.8 99.1 L-234.6 98.29 L-236.3 97.34 L-237.9 96.25 L-239.5 95.04 L-240.9 93.72 L-242.2 92.28 L-243.4 90.74 L-244.5 89.11 L-245.5 87.4 L-246.3 85.62 L-246.9 83.78 L-247.4 81.9 L-247.8 79.98 L-248 78.03 L-248.1 76.08 L-248 74.13 L-247.7 72.19 L-247.3 70.28 L-246.8 68.41 L-246 66.59 L-245.2 64.83 L-244.2 63.14 L-243.1 61.53 L-241.9 60.02 L-240.5 58.62 L-239 57.32 L-237.5 56.15 L-235.8 55.1 L-234.1 54.19 L-232.3 53.42 L-230.4 52.79 L-228.6 52.31 L-226.6 51.99 L-224.7 51.82 L-222.7 51.8 L-220.8 51.94 L-218.8 52.23 L-216.9 52.68 L-215.1 53.28 L-213.3 54.02 L-211.5 54.9 L-209.9 55.92 L-208.3 57.07 L-206.8 58.34 L-205.4 59.72 L-204.1 61.21 L-203 62.8 L-202 64.47 L-201.1 66.21 L-200.4 68.02 L-199.8 69.89 L-199.3 71.79 L-199.1 73.72 L-198.9 75.67 L-199 77.63 L-199.1 79.57 L-199.5 81.5 L-199.9 83.39 L-200.6 85.24 Z " />
<path stroke="rgb(0,0,0)" stroke-opacity="1" fill="rgb(255,255,255)" fill-opacity="1" d="M-788.3 -588 L-789.3 -588 L-790.3 -588 L-791.2 -588 L-792.2 -588 L-793.2 -588 L-794.2 -588 L-795.1 -588 L-796.1 -588.1 L-797.1 -588.1 L-798.1 -588.1 L-799.1 -588.1 L-800 -588.1 L-801 -588.1 L-802 -588.1 L-803 -588.2 L-803.9 -588.2 L-804.9 -588.2 L-805.9 -588.2 L-806.9 -588.2 L-807.9 -588.2 L-808.8 -588.2 L-809.8 -588.3 L-810.8 -588.3 L-811.8 -588.3 L-812.8 -588.3 L-812.7 -589.3 L-812.7 -590.3 L-812.7 -591.2 L-812.7 -592.2 L-812.7 -593.2 L-812.7 -594.2 L-812.7 -595.1 L-812.6 -596.1 L-812.6 -597.1 L-812.6 -598.1 L-812.6 -599.1 L-812.6 -600 L-812.6 -601 L-812.6 -602 L-812.5 -603 L-812.5 -604 L-812.5 -604.9 L-812.5 -605.9 L-812.5 -606.9 L-812.5 -607.9 L-812.5 -608.8 L-812.5 -609.8 L-812.4 -610.8 L-812.4 -611.8 L-812.4 -612.8 L-811.4 -612.7 L-810.5 -612.7 L-809.5 -612.7 L-808.5 -612.7 L-807.5 -612.7 L-806.5 -612.7 L-805.6 -612.7 L-804.6 -612.6 L-803.6 -612.6 L-802.6 -612.6 L-801.6 -612.6 L-800.7 -612.6 L-799.7 -612.6 L-798.7 -612.6 L-797.7 -612.6 L-796.8 -612.5 L-795.8 -612.5 L-794.8 -612.5 L-793.8 -612.5 L-792.8 -612.5 L-791.9 -612.5 L-790.9 -612.5 L-789.9 -612.4 L-788.9 -612.4 L-787.9 -612.4 L-788 -611.4 L-788 -610.5 L-788 -609.5 L-788 -608.5 L-788 -607.5 L-788 -606.5 L-788 -605.6 L-788.1 -604.6 L-788.1 -603.6 L-788.1 -602.6 L-788.1 -601.7 L-788.1 -600.7 L-788.1 -599.7 L-788.1 -598.7 L-788.2 -597.7 L-788.2 -596.8 L-788.2 -595.8 L-788.2 -594.8 L-788.2 -593.8 L-788.2 -592.8 L-788.2 -591.9 L-788.3 -590.9 L-788.3 -589.9 L-788.3 -588.9 L-788.3 -588 Z " />
<path stroke="rgb(0,0,0)" stroke-opacity="1" fill="rgb(255,255,255)" fill-opacity="1" d="M-32.52 67.17 L-33.95 68.5 L-35.49 69.7 L-37.12 70.79 L-38.83 71.73 L-40.61 72.55 L-42.44 73.21 L-44.33 73.73 L-46.25 74.1 L-48.19 74.31 L-50.15 74.37 L-52.1 74.27 L-54.04 74.02 L-55.95 73.62 L-57.82 73.06 L-59.65 72.36 L-61.41 71.51 L-63.1 70.53 L-64.71 69.41 L-66.22 68.18 L-67.63 66.82 L-68.93 65.36 L-70.1 63.8 L-71.15 62.15 L-72.07 60.42 L-72.84 58.63 L-73.47 56.78 L-73.95 54.88 L-74.28 52.95 L-74.46 51.01 L-74.48 49.05 L-74.34 47.1 L-74.05 45.17 L-73.61 43.27 L-73.01 41.4 L-72.28 39.59 L-71.4 37.85 L-70.38 36.18 L-69.23 34.59 L-67.96 33.11 L-66.58 31.72 L-65.09 30.46 L-63.51 29.31 L-61.84 28.29 L-60.1 27.41 L-58.29 26.67 L-56.42 26.08 L-54.52 25.64 L-52.59 25.35 L-50.64 25.21 L-48.68 25.23 L-46.73 25.4 L-44.81 25.73 L-42.91 26.21 L-41.06 26.84 L-39.27 27.62 L-37.54 28.53 L-35.89 29.58 L-34.33 30.76 L-32.87 32.06 L-31.51 33.47 L-30.27 34.98 L-29.16 36.59 L-28.18 38.28 L-27.33 40.04 L-26.63 41.86 L-26.07 43.74 L-25.67 45.65 L-25.42 47.59 L-25.32 49.54 L-25.38 51.49 L-25.59 53.44 L-25.96 55.36 L-26.48 57.24 L-27.14 59.08 L-27.95 60.86 L-28.9 62.57 L-29.98 64.2 L-31.19 65.73 L-32.52 67.17 Z " />
<path stroke="rgb(0,0,0)" stroke-opacity="1" fill="rgb(255,255,255)" fill-opacity="1" d="M-588.3 -588 L-589.3 -588 L-590.3 -588 L-591.2 -588 L-592.2 -588 L-593.2 -588 L-594.2 -588 L-595.1 -588 L-596.1 -588.1 L-597.1 -588.1 L-598.1 -588.1 L-599.1 -588.1 L-600 -588.1 L-601 -588.1 L-602 -588.1 L-603 -588.2 L-603.9 -588.2 L-604.9 -588.2 L-605.9 -588.2 L-606.9 -588.2 L-607.9 -588.2 L-608.8 -588.2 L-609.8 -588.3 L-610.8 -588.3 L-611.8 -588.3 L-612.8 -588.3 L-612.7 -589.3 L-612.7 -590.3 L-612.7 -591.2 L-612.7 -592.2 L-612.7 -593.2 L-612.7 -594.2 L-612.7 -595.1 L-612.6 -596.1 L-612.6 -597.1 L-612.6 -598.1 L-612.6 -599.1 L-612.6 -600 L-612.6 -601 L-612.6 -602 L-612.5 -603 L-612.5 -604 L-612.5 -604.9 L-612.5 -605.9 L-612.5 -606.9 L-612.5 -607.9 L-612.5 -608.8 L-612.5 -609.8 L-612.4 -610.8 L-612.4 -611.8 L-612.4 -612.8 L-611.4 -612.7 L-610.5 -612.7 L-609.5 -612.7 L-608.5 -612.7 L-607.5 -612.7 L-606.5 -612.7 L-605.6 -612.7 L-604.6 -612.6 L-603.6 -612.6 L-602.6 -612.6 L-601.6 -612.6 L-600.7 -612.6 L-599.7 -612.6 L-598.7 -612.6 L-597.7 -612.6 L-596.8 -612.5 L-595.8 -612.5 L-594.8 -612.5 L-593.8 -612.5 L-592.8 -612.5 L-591.9 -612.5 L-590.9 -612.5 L-589.9 -612.4 L-588.9 -612.4 L-587.9 -612.4 L-588 -611.4 L-588 -610.5 L-588 -609.5 L-588 -608.5 L-588 -607.5 L-588 -606.5 L-588 -605.6 L-588.1 -604.6 L-588.1 -603.6 L-588.1 -602.6 L-588.1 -601.7 L-588.1 -600.7 L-588.1 -599.7 L-588.1 -598.7 L-588.2 -597.7 L-588.2 -596.8 L-588.2 -595.8 L-588.2 -594.8 L-588.2 -593.8 L-588.2 -592.8 L-588.2 -591.9 L-588.3 -590.9 L-588.3 -589.9 L-588.3 -588.9 L-588.3 -588 Z " />
<path stroke="rgb(0,0,0)" stroke-opacity="1" fill="rgb(255,255,255)" fill-opacity="1" d="M132.6 46.17 L130.8 46.81 L128.9 47.29 L126.9 47.62 L125 47.8 L123 47.82 L121.1 47.69 L119.2 47.41 L117.2 46.97 L115.4 46.38 L113.6 45.64 L111.8 44.76 L110.2 43.75 L108.6 42.6 L107.1 41.34 L105.7 39.96 L104.4 38.47 L103.3 36.89 L102.3 35.22 L101.4 33.48 L100.6 31.67 L100 29.8 L99.58 27.9 L99.29 25.97 L99.15 24.02 L99.16 22.06 L99.34 20.11 L99.66 18.19 L100.1 16.29 L100.8 14.44 L101.5 12.64 L102.5 10.91 L103.5 9.259 L104.7 7.696 L106 6.231 L107.4 4.874 L108.9 3.632 L110.5 2.515 L112.2 1.529 L113.9 0.6797 L115.8 -0.02666 L117.6 -0.5859 L119.6 -0.9945 L121.5 -1.25 L123.4 -1.35 L125.4 -1.296 L127.3 -1.085 L129.3 -0.7216 L131.1 -0.2063 L133 0.4574 L134.8 1.265 L136.5 2.212 L138.1 3.291 L139.7 4.497 L141.1 5.821 L142.4 7.255 L143.6 8.791 L144.7 10.42 L145.7 12.13 L146.5 13.9 L147.2 15.74 L147.7 17.63 L148 19.55 L148.3 21.49 L148.3 23.44 L148.2 25.4 L148 27.34 L147.6 29.25 L147 31.13 L146.3 32.95 L145.5 34.72 L144.5 36.41 L143.4 38.02 L142.2 39.53 L140.8 40.94 L139.3 42.24 L137.8 43.42 L136.1 44.48 L134.4 45.4 L132.6 46.17 Z " />
<path stroke="rgb(0,0,0)" stroke-opacity="1" fill="rgb(255,255,255)" fill-opacity="1" d="M-388.3 -588 L-389.3 -588 L-390.3 -588 L-391.2 -588 L-392.2 -588 L-393.2 -588 L-394.2 -588 L-395.1 -588 L-396.1 -588.1 L-397.1 -588.1 L-398.1 -588.1 L-399.1 -588.1 L-400 -588.1 L-401 -588.1 L-402 -588.1 L-403 -588.2 L-403.9 -588.2 L-404.9 -588.2 L-405.9 -588.2 L-406.9 -588.2 L-407.9 -588.2 L-408.8 -588.2 L-409.8 -588.3 L-410.8 -588.3 L-411.8 -588.3 L-412.8 -588.3 L-412.7 -589.3 L-412.7 -590.3 L-412.7 -591.2 L-412.7 -592.2 L-412.7 -593.2 L-412.7 -594.2 L-412.7 -595.1 L-412.6 -596.1 L-412.6 -597.1 L-412.6 -598.1 L-412.6 -599.1 L-412.6 -600 L-412.6 -601 L-412.6 -602 L-412.5 -603 L-412.5 -604 L-412.5 -604.9 L-412.5 -605.9 L-412.5 -606.9 L-412.5 -607.9 L-412.5 -608.8 L-412.5 -609.8 L-412.4 -610.8 L-412.4 -611.8 L-412.4 -612.8 L-411.4 -612.7 L-410.5 -612.7 L-409.5 -612.7 L-408.5 -612.7 L-407.5 -612.7 L-406.5 -612.7 L-405.6 -612.7 L-404.6 -612.6 L-403.6 -612.6 L-402.6 -612.6 L-401.6 -612.6 L-400.7 -612.6 L-399.7 -612.6 L-398.7 -612.6 L-397.7 -612.6 L-396.8 -612.5 L-395.8 -612.5 L-394.8 -612.5 L-393.8 -612.5 L-392.8 -612.5 L-391.9 -612.5 L-390.9 -612.5 L-389.9 -612.4 L-388.9 -612.4 L-387.9 -612.4 L-388 -611.4 L-388 -610.5 L-388 -609.5 L-388 -608.5 L-388 -607.5 L-388 -606.5 L-388 -605.6 L-388.1 -604.6 L-388.1 -603.6 L-388.1 -602.6 L-388.1 -601.7 L-388.1 -600.7 L-388.1 -599.7 L-388.1 -598.7 L-388.2 -597.7 L-388.2 -596.8 L-388.2 -595.8 L-388.2 -594.8 L-388.2 -593.8 L-388.2 -592.8 L-388.2 -591.9 L-388.3 -590.9 L-388.3 -589.9 L-388.3 -588.9 L-388.3 -588 Z " />
<path stroke="rgb(0,0,0)" stroke-opacity="1" fill="rgb(255,255,255)" fill-opacity="1" d="M-300.6 185.2 L-301.4 187 L-302.3 188.8 L-303.3 190.4 L-304.5 192 L-305.8 193.4 L-307.2 194.8 L-308.7 196 L-310.3 197.1 L-312 198.1 L-313.8 198.9 L-315.6 199.6 L-317.5 200.2 L-319.4 200.6 L-321.3 200.8 L-323.3 200.9 L-325.2 200.9 L-327.2 200.7 L-329.1 200.3 L-331 199.8 L-332.8 199.1 L-334.6 198.3 L-336.3 197.3 L-337.9 196.3 L-339.5 195 L-340.9 193.7 L-342.2 192.3 L-343.4 190.7 L-344.5 189.1 L-345.5 187.4 L-346.3 185.6 L-346.9 183.8 L-347.4 181.9 L-347.8 180 L-348 178 L-348.1 176.1 L-348 174.1 L-347.7 172.2 L-347.3 170.3 L-346.8 168.4 L-346 166.6 L-345.2 164.8 L-344.2 163.1 L-343.1 161.5 L-341.9 160 L-340.5 158.6 L-339 157.3 L-337.5 156.1 L-335.8 155.1 L-334.1 154.2 L-332.3 153.4 L-330.4 152.8 L-328.6 152.3 L-326.6 152 L-324.7 151.8 L-322.7 151.8 L-320.8 151.9 L-318.8 152.2 L-316.9 152.7 L-315.1 153.3 L-313.3 154 L-311.5 154.9 L-309.9 155.9 L-308.3 157.1 L-306.8 158.3 L-305.4 159.7 L-304.1 161.2 L-303 162.8 L-302 164.5 L-301.1 166.2 L-300.4 168 L-299.8 169.9 L-299.3 171.8 L-299.1 173.7 L-298.9 175.7 L-299 177.6 L-299.1 179.6 L-299.5 181.5 L-299.9 183.4 L-300.6 185.2 Z " />
<path stroke="rgb(0,0,0)" stroke-opacity="1" fill="rgb(255,255,255)" fill-opacity="1" d="M-888.3 -488 L-889.3 -488 L-890.3 -488 L-891.2 -488 L-892.2 -488 L-893.2 -488 L-894.2 -488 L-895.1 -488 L-896.1 -488.1 L-897.1 -488.1 L-898.1 -488.1 L-899.1 -488.1 L-900 -488.1 L-901 -488.1 L-902 -488.1 L-903 -488.2 L-903.9 -488.2 L-904.9 -488.2 L-905.9 -488.2 L-906.9 -488.2 L-907.9 -488.2 L-908.8 -488.2 L-909.8 -488.3 L-910.8 -488.3 L-911.8 -488.3 L-912.8 -488.3 L-912.7 -489.3 L-912.7 -490.3 L-912.7 -491.2 L-912.7 -492.2 L-912.7 -493.2 L-912.7 -494.2 L-912.7 -495.1 L-912.6 -496.1 L-912.6 -497.1 L-912.6 -498.1 L-912.6 -499.1 L-912.6 -500 L-912.6 -501 L-912.6 -502 L-912.5 -503 L-912.5 -504 L-912.5 -504.9 L-912.5 -505.9 L-912.5 -506.9 L-912.5 -507.9 L-912.5 -508.8 L-912.5 -509.8 L-912.4 -510.8 L-912.4 -511.8 L-912.4 -512.8 L-911.4 -512.7 L-910.5 -512.7 L-909.5 -512.7 L-908.5 -512.7 L-907.5 -512.7 L-906.5 -512.7 L-905.6 -512.7 L-904.6 -512.6 L-903.6 -512.6 L-902.6 -512.6 L-901.6 -512.6 L-900.7 -512.6 L-899.7 -512.6 L-898.7 -512.6 L-897.7 -512.6 L-896.8 -512.5 L-895.8 -512.5 L-894.8 -512.5 L-893.8 -512.5 L-892.8 -512.5 L-891.9 -512.5 L-890.9 -512.5 L-889.9 -512.4 L-888.9 -512.4 L-887.9 -512.4 L-888 -511.4 L-888 -510.5 L-888 -509.5 L-888 -508.5 L-888 -507.5 L-888 -506.5 L-888 -505.6 L-888.1 -504.6 L-888.1 -503.6 L-888.1 -502.6 L-888.1 -501.7 L-888.1 -500.7 L-888.1 -499.7 L-888.1 -498.7 L-888.2 -497.7 L-888.2 -496.8 L-888.2 -495.8 L-888.2 -494.8 L-888.2 -493.8 L-888.2 -492.8 L-888.2 -491.9 L-888.3 -490.9 L-888.3 -489.9 L-888.3 -488.9 L-888.3 -488 Z " />
<path stroke="rgb(0,0,0)" stroke-opacity="1" fill="rgb(255,255,255)" fill-opacity="1" d="M-132.5 167.2 L-134 168.5 L-135.5 169.7 L-137.1 170.8 L-138.8 171.7 L-140.6 172.5 L-142.4 173.2 L-144.3 173.7 L-146.2 174.1 L-148.2 174.3 L-150.1 174.4 L-152.1 174.3 L-154 174 L-155.9 173.6 L-157.8 173.1 L-159.6 172.4 L-161.4 171.5 L-163.1 170.5 L-164.7 169.4 L-166.2 168.2 L-167.6 166.8 L-168.9 165.4 L-170.1 163.8 L-171.2 162.1 L-172.1 160.4 L-172.8 158.6 L-173.5 156.8 L-174 154.9 L-174.3 153 L-174.5 151 L-174.5 149.1 L-174.3 147.1 L-174.1 145.2 L-173.6 143.3 L-173 141.4 L-172.3 139.6 L-171.4 137.8 L-170.4 136.2 L-169.2 134.6 L-168 133.1 L-166.6 131.7 L-165.1 130.5 L-163.5 129.3 L-161.8 128.3 L-160.1 127.4 L-158.3 126.7 L-156.4 126.1 L-154.5 125.6 L-152.6 125.3 L-150.6 125.2 L-148.7 125.2 L-146.7 125.4 L-144.8 125.7 L-142.9 126.2 L-141.1 126.8 L-139.3 127.6 L-137.5 128.5 L-135.9 129.6 L-134.3 130.8 L-132.9 132.1 L-131.5 133.5 L-130.3 135 L-129.2 136.6 L-128.2 138.3 L-127.3 140 L-126.6 141.9 L-126.1 143.7 L-125.7 145.6 L-125.4 147.6 L-125.3 149.5 L-125.4 151.5 L-125.6 153.4 L-126 155.4 L-126.5 157.2 L-127.1 159.1 L-128 160.9 L-128.9 162.6 L-130 164.2 L-131.2 165.7 L-132.5 167.2 Z " />
<path stroke="rgb(0,0,0)" stroke-opacity="1" fill="rgb(255,255,255)" fill-opacity="1" d="M-688.3 -488 L-689.3 -488 L-690.3 -488 L-691.2 -488 L-692.2 -488 L-693.2 -488 L-694.2 -488 L-695.1 -488 L-696.1 -488.1 L-697.1 -488.1 L-698.1 -488.1 L-699.1 -488.1 L-700 -488.1 L-701 -488.1 L-702 -488.1 L-703 -488.2 L-703.9 -488.2 L-704.9 -488.2 L-705.9 -488.2 L-706.9 -488.2 L-707.9 -488.2 L-708.8 -488.2 L-709.8 -488.3 L-710.8 -488.3 L-711.8 -488.3 L-712.8 -488.3 L-712.7 -489.3 L-712.7 -490.3 L-712.7 -491.2 L-712.7 -492.2 L-712.7 -493.2 L-712.7 -494.2 L-712.7 -495.1 L-712.6 -496.1 L-712.6 -497.1 L-712.6 -498.1 L-712.6 -499.1 L-712.6 -500 L-712.6 -501 L-712.6 -502 L-712.5 -503 L-712.5 -504 L-712.5 -504.9 L-712.5 -505.9 L-712.5 -506.9 L-712.5 -507.9 L-712.5 -508.8 L-712.5 -509.8 L-712.4 -510.8 L-712.4 -511.8 L-712.4 -512.8 L-711.4 -512.7 L-710.5 -512.7 L-709.5 -512.7 L-708.5 -512.7 L-707.5 -512.7 L-706.5 -512.7 L-705.6 -512.7 L-704.6 -512.6 L-703.6 -512.6 L-702.6 -512.6 L-701.6 -512.6 L-700.7 -512.6 L-699.7 -512.6 L-698.7 -512.6 L-697.7 -512.6 L-696.8 -512.5 L-695.8 -512.5 L-694.8 -512.5 L-693.8 -512.5 L-692.8 -512.5 L-691.9 -512.5 L-690.9 -512.5 L-689.9 -512.4 L-688.9 -512.4 L-687.9 -512.4 L-688 -511.4 L-688 -510.5 L-688 -509.5 L-688 -508.5 L-688 -507.5 L-688 -506.5 L-688 -505.6 L-688.1 -504.6 L-688.1 -503.6 L-688.1 -502.6 L-688.1 -501.7 L-688.1 -500.7 L-688.1 -499.7 L-688.1 -498.7 L-688.2 -497.7 L-688.2 -496.8 L-688.2 -495.8 L-688.2 -494.8 L-688.2 -493.8 L-688.2 -492.8 L-688.2 -491.9 L-688.3 -490.9 L-688.3 -489.9 L-688.3 -488.9 L-688.3 -488 Z " />
<path stroke="rgb(0,0,0)" stroke-opacity="1" fill="rgb(255,255,255)" fill-opacity="1" d="M32.61 146.2 L30.76 146.8 L28.87 147.3 L26.94 147.6 L24.99 147.8 L23.04 147.8 L21.09 147.7 L19.15 147.4 L17.25 147 L15.38 146.4 L13.57 145.6 L11.82 144.8 L10.15 143.7 L8.566 142.6 L7.076 141.3 L5.691 140 L4.419 138.5 L3.27 136.9 L2.251 135.2 L1.367 133.5 L0.6244 131.7 L0.02801 129.8 L-0.4185 127.9 L-0.7124 126 L-0.8518 124 L-0.8357 122.1 L-0.6644 120.1 L-0.3388 118.2 L0.139 116.3 L0.7659 114.4 L1.538 112.6 L2.45 110.9 L3.497 109.3 L4.672 107.7 L5.967 106.2 L7.375 104.9 L8.886 103.6 L10.49 102.5 L12.18 101.5 L13.94 100.7 L15.76 99.97 L17.64 99.41 L19.55 99.01 L21.49 98.75 L23.44 98.65 L25.4 98.7 L27.34 98.91 L29.26 99.28 L31.15 99.79 L32.99 100.5 L34.77 101.3 L36.48 102.2 L38.11 103.3 L39.65 104.5 L41.09 105.8 L42.42 107.3 L43.63 108.8 L44.71 110.4 L45.67 112.1 L46.48 113.9 L47.15 115.7 L47.67 117.6 L48.04 119.5 L48.26 121.5 L48.32 123.4 L48.23 125.4 L47.98 127.3 L47.58 129.2 L47.02 131.1 L46.32 133 L45.48 134.7 L44.5 136.4 L43.39 138 L42.15 139.5 L40.8 140.9 L39.34 142.2 L37.78 143.4 L36.13 144.5 L34.41 145.4 L32.61 146.2 Z " />
<path stroke="rgb(0,0,0)" stroke-opacity="1" fill="rgb(255,255,255)" fill-opacity="1" d="M-488.3 -488 L-489.3 -488 L-490.3 -488 L-491.2 -488 L-492.2 -488 L-493.2 -488 L-494.2 -488 L-495.1 -488 L-496.1 -488.1 L-497.1 -488.1 L-498.1 -488.1 L-499.1 -488.1 L-500 -488.1 L-501 -488.1 L-502 -488.1 L-503 -488.2 L-503.9 -488.2 L-504.9 -488.2 L-505.9 -488.2 L-506.9 -488.2 L-507.9 -488.2 L-508.8 -488.2 L-509.8 -488.3 L-510.8 -488.3 L-511.8 -488.3 L-512.8 -488.3 L-512.7 -489.3 L-512.7 -490.3 L-512.7 -491.2 L-512.7 -492.2 L-512.7 -493.2 L-512.7 -494.2 L-512.7 -495.1 L-512.6 -496.1 L-512.6 -497.1 L-512.6 -498.1 L-512.6 -499.1 L-512.6 -500 L-512.6 -501 L-512.6 -502 L-512.5 -503 L-512.5 -504 L-512.5 -504.9 L-512.5 -505.9 L-512.5 -506.9 L-512.5 -507.9 L-512.5 -508.8 L-512.5 -509.8 L-512.4 -510.8 L-512.4 -511.8 L-512.4 -512.8 L-511.4 -512.7 L-510.5 -512.7 L-509.5 -512.7 L-508.5 -512.7 L-507.5 -512.7 L-506.5 -512.7 L-505.6 -512.7 L-504.6 -512.6 L-503.6 -512.6 L-502.6 -512.6 L-501.6 -512.6 L-500.7 -512.6 L-499.7 -512.6 L-498.7 -512.6 L-497.7 -512.6 L-496.8 -512.5 L-495.8 -512.5 L-494.8 -512.5 L-493.8 -512.5 L-492.8 -512.5 L-491.9 -512.5 L-490.9 -512.5 L-489.9 -512.4 L-488.9 -512.4 L-487.9 -512.4 L-488 -511.4 L-488 -510.5 L-488 -509.5 L-488 -508.5 L-488 -507.5 L-488 -506.5 L-488 -505.6 L-488.1 -504.6 L-488.1 -503.6 L-488.1 -502.6 L-488.1 -501.7 L-488.1 -500.7 L-488.1 -499.7 L-488.1 -498.7 L-488.2 -497.7 L-488.2 -496.8 L-488.2 -495.8 L-488.2 -494.8 L-488.2 -493.8 L-488.2 -492.8 L-488.2 -491.9 L-488.3 -490.9 L-488.3 -489.9 L-488.3 -488.9 L-488.3 -488 Z " />
<path stroke="rgb(0,0,0)" stroke-opacity="1" fill="rgb(255,255,255)" fill-opacity="1" d="M212.2 132.6 L210.2 132.8 L208.2 132.9 L206.3 132.7 L204.4 132.5 L202.5 132 L200.6 131.4 L198.8 130.7 L197 129.8 L195.3 128.8 L193.8 127.7 L192.3 126.4 L190.9 125.1 L189.6 123.6 L188.4 122 L187.4 120.3 L186.5 118.6 L185.8 116.8 L185.2 114.9 L184.7 113 L184.4 111.1 L184.3 109.1 L184.3 107.2 L184.4 105.2 L184.8 103.3 L185.2 101.4 L185.8 99.55 L186.6 97.75 L187.5 96.02 L188.6 94.36 L189.7 92.79 L191 91.32 L192.4 89.96 L193.9 88.71 L195.5 87.59 L197.2 86.6 L199 85.74 L200.8 85.03 L202.7 84.46 L204.6 84.05 L206.5 83.78 L208.5 83.68 L210.4 83.72 L212.4 83.93 L214.3 84.28 L216.2 84.79 L218 85.45 L219.8 86.25 L221.5 87.19 L223.2 88.26 L224.7 89.46 L226.1 90.78 L227.5 92.21 L228.7 93.74 L229.8 95.37 L230.7 97.07 L231.6 98.85 L232.2 100.7 L232.8 102.6 L233.2 104.5 L233.4 106.4 L233.4 108.4 L233.4 110.3 L233.1 112.3 L232.7 114.2 L232.2 116.1 L231.5 117.9 L230.6 119.7 L229.7 121.4 L228.6 123 L227.3 124.5 L226 125.9 L224.5 127.2 L223 128.4 L221.3 129.5 L219.6 130.4 L217.8 131.2 L216 131.8 L214.1 132.3 L212.2 132.6 Z " />
<path stroke="rgb(0,0,0)" stroke-opacity="1" fill="rgb(255,255,255)" fill-opacity="1" d="M-988.3 -388 L-989.3 -388 L-990.3 -388 L-991.2 -388 L-992.2 -388 L-993.2 -388 L-994.2 -388 L-995.1 -388 L-996.1 -388.1 L-997.1 -388.1 L-998.1 -388.1 L-999.1 -388.1 L-1000 -388.1 L-1001 -388.1 L-1002 -388.1 L-1003 -388.2 L-1004 -388.2 L-1005 -388.2 L-1006 -388.2 L-1007 -388.2 L-1008 -388.2 L-1009 -388.2 L-1010 -388.3 L-1011 -388.3 L-1012 -388.3 L-1013 -388.3 L-1013 -389.3 L-1013 -390.3 L-1013 -391.2 L-1013 -392.2 L-1013 -393.2 L-1013 -394.2 L-1013 -395.1 L-1013 -396.1 L-1013 -397.1 L-1013 -398.1 L-1013 -399.1 L-1013 -400 L-1013 -401 L-1013 -402 L-1013 -403 L-1013 -404 L-1013 -404.9 L-1013 -405.9 L-1012 -406.9 L-1012 -407.9 L-1012 -408.8 L-1012 -409.8 L-1012 -410.8 L-1012 -411.8 L-1012 -412.8 L-1011 -412.7 L-1010 -412.7 L-1009 -412.7 L-1008 -412.7 L-1008 -412.7 L-1007 -412.7 L-1006 -412.7 L-1005 -412.6 L-1004 -412.6 L-1003 -412.6 L-1002 -412.6 L-1001 -412.6 L-999.7 -412.6 L-998.7 -412.6 L-997.7 -412.6 L-996.8 -412.5 L-995.8 -412.5 L-994.8 -412.5 L-993.8 -412.5 L-992.8 -412.5 L-991.9 -412.5 L-990.9 -412.5 L-989.9 -412.4 L-988.9 -412.4 L-987.9 -412.4 L-988 -411.4 L-988 -410.5 L-988 -409.5 L-988 -408.5 L-988 -407.5 L-988 -406.5 L-988 -405.6 L-988.1 -404.6 L-988.1 -403.6 L-988.1 -402.6 L-988.1 -401.7 L-988.1 -400.7 L-988.1 -399.7 L-988.1 -398.7 L-988.2 -397.7 L-988.2 -396.8 L-988.2 -395.8 L-988.2 -394.8 L-988.2 -393.8 L-988.2 -392.8 L-988.2 -391.9 L-988.3 -390.9 L-988.3 -389.9 L-988.3 -388.9 L-988.3 -388 Z " />
<path stroke="rgb(0,0,0)" stroke-opacity="1" fill="rgb(255,255,255)" fill-opacity="1" d="M-232.5 267.2 L-234 268.5 L-235.5 269.7 L-237.1 270.8 L-238.8 271.7 L-240.6 272.5 L-242.4 273.2 L-244.3 273.7 L-246.2 274.1 L-248.2 274.3 L-250.1 274.4 L-252.1 274.3 L-254 274 L-255.9 273.6 L-257.8 273.1 L-259.6 272.4 L-261.4 271.5 L-263.1 270.5 L-264.7 269.4 L-266.2 268.2 L-267.6 266.8 L-268.9 265.4 L-270.1 263.8 L-271.2 262.1 L-272.1 260.4 L-272.8 258.6 L-273.5 256.8 L-274 254.9 L-274.3 253 L-274.5 251 L-274.5 249.1 L-274.3 247.1 L-274.1 245.2 L-273.6 243.3 L-273 241.4 L-272.3 239.6 L-271.4 237.8 L-270.4 236.2 L-269.2 234.6 L-268 233.1 L-266.6 231.7 L-265.1 230.5 L-263.5 229.3 L-261.8 228.3 L-260.1 227.4 L-258.3 226.7 L-256.4 226.1 L-254.5 225.6 L-252.6 225.3 L-250.6 225.2 L-248.7 225.2 L-246.7 225.4 L-244.8 225.7 L-242.9 226.2 L-241.1 226.8 L-239.3 227.6 L-237.5 228.5 L-235.9 229.6 L-234.3 230.8 L-232.9 232.1 L-231.5 233.5 L-230.3 235 L-229.2 236.6 L-228.2 238.3 L-227.3 240 L-226.6 241.9 L-226.1 243.7 L-225.7 245.6 L-225.4 247.6 L-225.3 249.5 L-225.4 251.5 L-225.6 253.4 L-226 255.4 L-226.5 257.2 L-227.1 259.1 L-228 260.9 L-228.9 262.6 L-230 264.2 L-231.2 265.7 L-232.5 267.2 Z " />
<path stroke="rgb(0,0,0)" stroke-opacity="1" fill="rgb(255,255,255)" fill-opacity="1" d="M-788.3 -388 L-789.3 -388 L-790.3 -388 L-791.2 -388 L-792.2 -388 L-793.2 -388 L-794.2 -388 L-795.1 -388 L-796.1 -388.1 L-797.1 -388.1 L-798.1 -388.1 L-799.1 -388.1 L-800 -388.1 L-801 -388.1 L-802 -388.1 L-803 -388.2 L-803.9 -388.2 L-804.9 -388.2 L-805.9 -388.2 L-806.9 -388.2 L-807.9 -388.2 L-808.8 -388.2 L-809.8 -388.3 L-810.8 -388.3 L-811.8 -388.3 L-812.8 -388.3 L-812.7 -389.3 L-812.7 -390.3 L-812.7 -391.2 L-812.7 -392.2 L-812.7 -393.2 L-812.7 -394.2 L-812.7 -395.1 L-812.6 -396.1 L-812.6 -397.1 L-812.6 -398.1 L-812.6 -399.1 L-812.6 -400 L-812.6 -401 L-812.6 -402 L-812.5 -403 L-812.5 -404 L-812.5 -404.9 L-812.5 -405.9 L-812.5 -406.9 L-812.5 -407.9 L-812.5 -408.8 L-812.5 -409.8 L-812.4 -410.8 L-812.4 -411.8 L-812.4 -412.8 L-811.4 -412.7 L-810.5 -412.7 L-809.5 -412.7 L-808.5 -412.7 L-807.5 -412.7 L-806.5 -412.7 L-805.6 -412.7 L-804.6 -412.6 L-803.6 -412.6 L-802.6 -412.6 L-801.6 -412.6 L-800.7 -412.6 L-799.7 -412.6 L-798.7 -412.6 L-797.7 -412.6 L-796.8 -412.5 L-795.8 -412.5 L-794.8 -412.5 L-793.8 -412.5 L-792.8 -412.5 L-791.9 -412.5 L-790.9 -412.5 L-789.9 -412.4 L-788.9 -412.4 L-787.9 -412.4 L-788 -411.4 L-788 -410.5 L-788 -409.5 L-788 -408.5 L-788 -407.5 L-788 -406.5 L-788 -405.6 L-788.1 -404.6 L-788.1 -403.6 L-788.1 -402.6 L-788.1 -401.7 L-788.1 -400.7 L-788.1 -399.7 L-788.1 -398.7 L-788.2 -397.7 L-788.2 -396.8 L-788.2 -395.8 L-788.2 -394.8 L-788.2 -393.8 L-788.2 -392.8 L-788.2 -391.9 L-788.3 -390.9 L-788.3 -389.9 L-788.3 -388.9 L-788.3 -388 Z " />
<path stroke="rgb(0,0,0)" stroke-opacity="1" fill="rgb(255,255,255)" fill-opacity="1" d="M-67.39 246.2 L-69.24 246.8 L-71.13 247.3 L-73.06 247.6 L-75.01 247.8 L-76.96 247.8 L-78.91 247.7 L-80.85 247.4 L-82.75 247 L-84.62 246.4 L-86.43 245.6 L-88.18 244.8 L-89.85 243.7 L-91.43 242.6 L-92.92 241.3 L-94.31 240 L-95.58 238.5 L-96.73 236.9 L-97.75 235.2 L-98.63 233.5 L-99.38 231.7 L-99.97 229.8 L-100.4 227.9 L-100.7 226 L-100.9 224 L-100.8 222.1 L-100.7 220.1 L-100.3 218.2 L-99.86 216.3 L-99.23 214.4 L-98.46 212.6 L-97.55 210.9 L-96.5 209.3 L-95.33 207.7 L-94.03 206.2 L-92.62 204.9 L-91.11 203.6 L-89.51 202.5 L-87.82 201.5 L-86.06 200.7 L-84.24 200 L-82.36 199.4 L-80.45 199 L-78.51 198.8 L-76.56 198.6 L-74.6 198.7 L-72.66 198.9 L-70.74 199.3 L-68.85 199.8 L-67.01 200.5 L-65.23 201.3 L-63.52 202.2 L-61.89 203.3 L-60.35 204.5 L-58.91 205.8 L-57.58 207.3 L-56.37 208.8 L-55.29 210.4 L-54.33 212.1 L-53.52 213.9 L-52.85 215.7 L-52.33 217.6 L-51.96 219.5 L-51.74 221.5 L-51.68 223.4 L-51.77 225.4 L-52.02 227.3 L-52.42 229.2 L-52.98 231.1 L-53.68 233 L-54.52 234.7 L-55.5 236.4 L-56.61 238 L-57.85 239.5 L-59.2 240.9 L-60.66 242.2 L-62.22 243.4 L-63.87 244.5 L-65.59 245.4 L-67.39 246.2 Z " />
<path stroke="rgb(0,0,0)" stroke-opacity="1" fill="rgb(255,255,255)" fill-opacity="1" d="M-588.3 -388 L-589.3 -388 L-590.3 -388 L-591.2 -388 L-592.2 -388 L-593.2 -388 L-594.2 -388 L-595.1 -388 L-596.1 -388.1 L-597.1 -388.1 L-598.1 -388.1 L-599.1 -388.1 L-600 -388.1 L-601 -388.1 L-602 -388.1 L-603 -388.2 L-603.9 -388.2 L-604.9 -388.2 L-605.9 -388.2 L-606.9 -388.2 L-607.9 -388.2 L-608.8 -388.2 L-609.8 -388.3 L-610.8 -388.3 L-611.8 -388.3 L-612.8 -388.3 L-612.7 -389.3 L-612.7 -390.3 L-612.7 -391.2 L-612.7 -392.2 L-612.7 -393.2 L-612.7 -394.2 L-612.7 -395.1 L-612.6 -396.1 L-612.6 -397.1 L-612.6 -398.1 L-612.6 -399.1 L-612.6 -400 L-612.6 -401 L-612.6 -402 L-612.5 -403 L-612.5 -404 L-612.5 -404.9 L-612.5 -405.9 L-612.5 -406.9 L-612.5 -407.9 L-612.5 -408.8 L-612.5 -409.8 L-612.4 -410.8 L-612.4 -411.8 L-612.4 -412.8 L-611.4 -412.7 L-610.5 -412.7 L-609.5 -412.7 L-608.5 -412.7 L-607.5 -412.7 L-606.5 -412.7 L-605.6 -412.7 L-604.6 -412.6 L-603.6 -412.6 L-602.6 -412.6 L-601.6 -412.6 L-600.7 -412.6 L-599.7 -412.6 L-598.7 -412.6 L-597.7 -412.6 L-596.8 -412.5 L-595.8 -412.5 L-594.8 -412.5 L-593.8 -412.5 L-592.8 -412.5 L-591.9 -412.5 L-590.9 -412.5 L-589.9 -412.4 L-588.9 -412.4 L-587.9 -412.4 L-588 -411.4 L-588 -410.5 L-588 -409.5 L-588 -408.5 L-588 -407.5 L-588 -406.5 L-588 -405.6 L-588.1 -404.6 L-588.1 -403.6 L-588.1 -402.6 L-588.1 -401.7 L-588.1 -400.7 L-588.1 -399.7 L-588.1 -398.7 L-588.2 -397.7 L-588.2 -396.8 L-588.2 -395.8 L-588.2 -394.8 L-588.2 -393.8 L-588.2 -392.8 L-588.2 -391.9 L-588.3 -390.9 L-588.3 -389.9 L-588.3 -388.9 L-588.3 -388 Z " />
<path stroke="rgb(0,0,0)" stroke-opacity="1" fill="rgb(255,255,255)" fill-opacity="1" d="M112.2 232.6 L110.2 232.8 L108.2 232.9 L106.3 232.7 L104.4 232.5 L102.5 232 L100.6 231.4 L98.77 230.7 L97.02 229.8 L95.34 228.8 L93.75 227.7 L92.26 226.4 L90.87 225.1 L89.59 223.6 L88.44 222 L87.41 220.3 L86.52 218.6 L85.77 216.8 L85.17 214.9 L84.71 213 L84.41 211.1 L84.26 209.1 L84.27 207.2 L84.44 205.2 L84.76 203.3 L85.23 201.4 L85.85 199.6 L86.61 197.8 L87.52 196 L88.56 194.4 L89.73 192.8 L91.02 191.3 L92.42 190 L93.93 188.7 L95.53 187.6 L97.21 186.6 L98.97 185.7 L100.8 185 L102.7 184.5 L104.6 184 L106.5 183.8 L108.5 183.7 L110.4 183.7 L112.4 183.9 L114.3 184.3 L116.2 184.8 L118 185.4 L119.8 186.2 L121.5 187.2 L123.2 188.3 L124.7 189.5 L126.1 190.8 L127.5 192.2 L128.7 193.7 L129.8 195.4 L130.7 197.1 L131.6 198.8 L132.2 200.7 L132.8 202.6 L133.2 204.5 L133.4 206.4 L133.4 208.4 L133.4 210.3 L133.1 212.3 L132.7 214.2 L132.2 216.1 L131.5 217.9 L130.6 219.7 L129.7 221.4 L128.6 223 L127.3 224.5 L126 225.9 L124.5 227.2 L123 228.4 L121.3 229.5 L119.6 230.4 L117.8 231.2 L116 231.8 L114.1 232.3 L112.2 232.6 Z " />
<path stroke="rgb(0,0,0)" stroke-opacity="1" fill="rgb(255,255,255)" fill-opacity="1" d="M-388.3 -388 L-389.3 -388 L-390.3 -388 L-391.2 -388 L-392.2 -388 L-393.2 -388 L-394.2 -388 L-395.1 -388 L-396.1 -388.1 L-397.1 -388.1 L-398.1 -388.1 L-399.1 -388.1 L-400 -388.1 L-401 -388.1 L-402 -388.1 L-403 -388.2 L-403.9 -388.2 L-404.9 -388.2 L-405.9 -388.2 L-406.9 -388.2 L-407.9 -388.2 L-408.8 -388.2 L-409.8 -388.3 L-410.8 -388.3 L-411.8 -388.3 L-412.8 -388.3 L-412.7 -389.3 L-412.7 -390.3 L-412.7 -391.2 L-412.7 -392.2 L-412.7 -393.2 L-412.7 -394.2 L-412.7 -395.1 L-412.6 -396.1 L-412.6 -397.1 L-412.6 -398.1 L-412.6 -399.1 L-412.6 -400 L-412.6 -401 L-412.6 -402 L-412.5 -403 L-412.5 -404 L-412.5 -404.9 L-412.5 -405.9 L-412.5 -406.9 L-412.5 -407.9 L-412.5 -408.8 L-412.5 -409.8 L-412.4 -410.8 L-412.4 -411.8 L-412.4 -412.8 L-411.4 -412.7 L-410.5 -412.7 L-409.5 -412.7 L-408.5 -412.7 L-407.5 -412.7 L-406.5 -412.7 L-405.6 -412.7 L-404.6 -412.6 L-403.6 -412.6 L-402.6 -412.6 L-401.6 -412.6 L-400.7 -412.6 L-399.7 -412.6 L-398.7 -412.6 L-397.7 -412.6 L-396.8 -412.5 L-395.8 -412.5 L-394.8 -412.5 L-393.8 -412.5 L-392.8 -412.5 L-391.9 -412.5 L-390.9 -412.5 L-389.9 -412.4 L-388.9 -412.4 L-387.9 -412.4 L-388 -411.4 L-388 -410.5 L-388 -409.5 L-388 -408.5 L-388 -407.5 L-388 -406.5 L-388 -405.6 L-388.1 -404.6 L-388.1 -403.6 L-388.1 -402.6 L-388.1 -401.7 L-388.1 -400.7 L-388.1 -399.7 L-388.1 -398.7 L-388.2 -397.7 L-388.2 -396.8 L-388.2 -395.8 L-388.2 -394.8 L-388.2 -393.8 L-388.2 -392.8 L-388.2 -391.9 L-388.3 -390.9 L-388.3 -389.9 L-388.3 -388.9 L-388.3 -388 Z " />
</g>
</g>
</svg>
