<!DOCTYPE svg>
<svg xmlns="http://www.w3.org/2000/svg" xmlns:xlink="http://www.w3.org/1999/xlink" width="1000" height="1000">
<g transform="translate(500.000000,500.000000)">
<g transform="scale(3.000000,3.000000)">
<path stroke="rgb(0,0,0)" stroke-opacity="1" fill="rgb(255,255,255)" fill-opacity="1" d="M-808 -819.1 L-806.9 -818.6 L-805.8 -818.2 L-804.8 -817.7 L-803.7 -817.3 L-802.6 -816.9 L-801.5 -816.4 L-800.5 -816 L-799.4 -815.5 L-798.3 -815.1 L-797.2 -814.6 L-796.2 -814.2 L-795.1 -813.7 L-794 -813.3 L-792.9 -812.8 L-791.9 -812.4 L-790.8 -811.9 L-789.7 -811.5 L-788.6 -811 L-787.6 -810.6 L-786.5 -810.1 L-785.4 -809.7 L-784.3 -809.2 L-783.3 -808.8 L-782.2 -808.3 L-781.1 -807.9 L-781.6 -806.8 L-782 -805.7 L-782.5 -804.6 L-782.9 -803.6 L-783.4 -802.5 L-783.8 -801.4 L-784.3 -800.3 L-784.7 -799.3 L-785.2 -798.2 L-785.6 -797.1 L-786.1 -796 L-786.5 -795 L-786.9 -793.9 L-787.4 -792.8 L-787.8 -791.7 L-788.3 -790.7 L-788.7 -789.6 L-789.2 -788.5 L-789.6 -787.4 L-790.1 -786.4 L-790.5 -785.3 L-791 -784.2 L-791.4 -783.2 L-791.9 -782.1 L-792.3 -781 L-793.4 -781.5 L-794.5 -781.9 L-795.6 -782.3 L-796.6 -782.8 L-797.7 -783.2 L-798.8 -783.7 L-799.9 -784.1 L-800.9 -784.6 L-802 -785 L-803.1 -785.5 L-804.2 -785.9 L-805.2 -786.4 L-806.3 -786.8 L-807.4 -787.3 L-808.5 -787.7 L-809.5 -788.2 L-810.6 -788.6 L-811.7 -789.1 L-812.8 -789.5 L-813.8 -790 L-814.9 -790.4 L-816 -790.9 L-817.1 -791.3 L-818.1 -791.8 L-819.2 -792.2 L-818.8 -793.3 L-818.3 -794.4 L-817.9 -795.4 L-817.4 -796.5 L-817 -797.6 L-816.5 -798.7 L-816.1 -799.7 L-815.6 -800.8 L-815.2 -801.9 L-814.7 -803 L-814.3 -804 L-813.8 -805.1 L-813.4 -806.2 L-812.9 -807.3 L-812.5 -808.3 L-812 -809.4 L-811.6 -810.5 L-811.1 -811.6 L-810.7 -812.6 L-810.2 -813.7 L-809.8 -814.8 L-809.3 -815.9 L-808.9 -816.9 L-808.4 -818 L-808 -819.1 Z " />
<path stroke="rgb(0,0,0)" stroke-opacity="0.148" fill="rgb(255,255,255)" fill-opacity="1" d="M-175.2 -299.7 L-175.3 -297.8 L-175.6 -295.8 L-176 -293.9 L-176.6 -292 L-177.3 -290.2 L-178.1 -288.4 L-179.1 -286.7 L-180.3 -285.1 L-181.5 -283.6 L-182.9 -282.1 L-184.3 -280.8 L-185.9 -279.7 L-187.6 -278.6 L-189.3 -277.7 L-191.1 -276.9 L-193 -276.3 L-194.9 -275.8 L-196.8 -275.5 L-198.8 -275.3 L-200.8 -275.3 L-202.7 -275.4 L-204.7 -275.7 L-206.6 -276.1 L-208.5 -276.7 L-210.3 -277.5 L-212 -278.4 L-213.7 -279.4 L-215.3 -280.6 L-216.8 -281.8 L-218.2 -283.2 L-219.5 -284.7 L-220.6 -286.3 L-221.6 -288 L-222.5 -289.8 L-223.3 -291.6 L-223.9 -293.5 L-224.3 -295.4 L-224.6 -297.3 L-224.7 -299.3 L-224.7 -301.3 L-224.5 -303.2 L-224.2 -305.2 L-223.7 -307.1 L-223.1 -308.9 L-222.3 -310.7 L-221.4 -312.5 L-220.3 -314.1 L-219.1 -315.7 L-217.8 -317.2 L-216.4 -318.5 L-214.9 -319.8 L-213.3 -320.9 L-211.6 -321.9 L-209.8 -322.7 L-207.9 -323.4 L-206.1 -324 L-204.1 -324.4 L-202.2 -324.7 L-200.2 -324.8 L-198.3 -324.7 L-196.3 -324.5 L-194.4 -324.1 L-192.5 -323.6 L-190.6 -322.9 L-188.8 -322.1 L-187.1 -321.1 L-185.5 -320 L-183.9 -318.8 L-182.5 -317.5 L-181.1 -316 L-179.9 -314.5 L-178.8 -312.9 L-177.9 -311.1 L-177.1 -309.3 L-176.4 -307.5 L-175.9 -305.6 L-175.5 -303.7 L-175.3 -301.7 L-175.2 -299.7 Z " />
<path stroke="rgb(0,0,0)" stroke-opacity="1" fill="rgb(255,255,255)" fill-opacity="1" d="M-591.6 -826.7 L-590.8 -825.3 L-590.1 -823.9 L-589.4 -822.5 L-588.7 -821 L-588 -819.6 L-587.2 -818.2 L-586.5 -816.8 L-585.8 -815.4 L-585.1 -813.9 L-584.4 -812.5 L-583.6 -811.1 L-582.9 -809.7 L-582.2 -808.3 L-581.5 -806.8 L-580.8 -805.4 L-580.1 -804 L-579.3 -802.6 L-578.6 -801.1 L-577.9 -799.7 L-577.2 -798.3 L-576.5 -796.9 L-575.7 -795.5 L-575 -794 L-574.3 -792.6 L-573.6 -791.2 L-575 -790.5 L-576.4 -789.8 L-577.8 -789.1 L-579.3 -788.3 L-580.7 -787.6 L-582.1 -786.9 L-583.5 -786.2 L-584.9 -785.5 L-586.4 -784.7 L-587.8 -784 L-589.2 -783.3 L-590.6 -782.6 L-592 -781.9 L-593.5 -781.1 L-594.9 -780.4 L-596.3 -779.7 L-597.7 -779 L-599.1 -778.3 L-600.6 -777.5 L-602 -776.8 L-603.4 -776.1 L-604.8 -775.4 L-606.2 -774.7 L-607.7 -773.9 L-609.1 -773.2 L-609.8 -774.7 L-610.5 -776.1 L-611.2 -777.5 L-612 -778.9 L-612.7 -780.3 L-613.4 -781.8 L-614.1 -783.2 L-614.8 -784.6 L-615.6 -786 L-616.3 -787.4 L-617 -788.9 L-617.7 -790.3 L-618.4 -791.7 L-619.2 -793.1 L-619.9 -794.5 L-620.6 -796 L-621.3 -797.4 L-622 -798.8 L-622.8 -800.2 L-623.5 -801.6 L-624.2 -803.1 L-624.9 -804.5 L-625.6 -805.9 L-626.3 -807.3 L-627.1 -808.7 L-625.6 -809.5 L-624.2 -810.2 L-622.8 -810.9 L-621.4 -811.6 L-620 -812.3 L-618.5 -813.1 L-617.1 -813.8 L-615.7 -814.5 L-614.3 -815.2 L-612.9 -815.9 L-611.4 -816.6 L-610 -817.4 L-608.6 -818.1 L-607.2 -818.8 L-605.8 -819.5 L-604.3 -820.2 L-602.9 -821 L-601.5 -821.7 L-600.1 -822.4 L-598.7 -823.1 L-597.2 -823.8 L-595.8 -824.6 L-594.4 -825.3 L-593 -826 L-591.6 -826.7 Z " />
<path stroke="rgb(0,0,0)" stroke-opacity="0.148" fill="rgb(255,255,255)" fill-opacity="1" d="M24.75 -299.7 L24.65 -297.8 L24.4 -295.8 L23.99 -293.9 L23.43 -292 L22.72 -290.2 L21.86 -288.4 L20.87 -286.7 L19.75 -285.1 L18.5 -283.6 L17.14 -282.1 L15.66 -280.8 L14.09 -279.7 L12.43 -278.6 L10.69 -277.7 L8.881 -276.9 L7.018 -276.3 L5.11 -275.8 L3.169 -275.5 L1.209 -275.3 L-0.7591 -275.3 L-2.722 -275.4 L-4.668 -275.7 L-6.584 -276.1 L-8.459 -276.7 L-10.28 -277.5 L-12.04 -278.4 L-13.72 -279.4 L-15.31 -280.6 L-16.81 -281.8 L-18.2 -283.2 L-19.47 -284.7 L-20.62 -286.3 L-21.65 -288 L-22.53 -289.8 L-23.27 -291.6 L-23.87 -293.5 L-24.31 -295.4 L-24.6 -297.3 L-24.74 -299.3 L-24.72 -301.3 L-24.54 -303.2 L-24.21 -305.2 L-23.72 -307.1 L-23.08 -308.9 L-22.3 -310.7 L-21.38 -312.5 L-20.32 -314.1 L-19.13 -315.7 L-17.83 -317.2 L-16.41 -318.5 L-14.88 -319.8 L-13.26 -320.9 L-11.56 -321.9 L-9.786 -322.7 L-7.949 -323.4 L-6.062 -324 L-4.136 -324.4 L-2.185 -324.7 L-0.2188 -324.8 L1.748 -324.7 L3.704 -324.5 L5.637 -324.1 L7.534 -323.6 L9.383 -322.9 L11.17 -322.1 L12.89 -321.1 L14.53 -320 L16.08 -318.8 L17.52 -317.5 L18.86 -316 L20.07 -314.5 L21.16 -312.9 L22.11 -311.1 L22.93 -309.3 L23.6 -307.5 L24.12 -305.6 L24.48 -303.7 L24.7 -301.7 L24.75 -299.7 Z " />
<path stroke="rgb(0,0,0)" stroke-opacity="1" fill="rgb(255,255,255)" fill-opacity="1" d="M-378.7 -825.4 L-378.6 -823.5 L-378.4 -821.6 L-378.3 -819.8 L-378.1 -817.9 L-378 -816 L-377.8 -814.1 L-377.7 -812.2 L-377.6 -810.3 L-377.4 -808.4 L-377.3 -806.6 L-377.1 -804.7 L-377 -802.8 L-376.8 -800.9 L-376.7 -799 L-376.5 -797.1 L-376.4 -795.2 L-376.2 -793.4 L-376.1 -791.5 L-375.9 -789.6 L-375.8 -787.7 L-375.6 -785.8 L-375.5 -783.9 L-375.3 -782 L-375.2 -780.2 L-375 -778.3 L-376.9 -778.1 L-378.8 -778 L-380.7 -777.8 L-382.6 -777.7 L-384.5 -777.5 L-386.3 -777.4 L-388.2 -777.2 L-390.1 -777.1 L-392 -776.9 L-393.9 -776.8 L-395.8 -776.6 L-397.6 -776.5 L-399.5 -776.3 L-401.4 -776.2 L-403.3 -776 L-405.2 -775.9 L-407.1 -775.7 L-409 -775.6 L-410.8 -775.4 L-412.7 -775.3 L-414.6 -775.1 L-416.5 -775 L-418.4 -774.9 L-420.3 -774.7 L-422.2 -774.6 L-422.3 -776.4 L-422.5 -778.3 L-422.6 -780.2 L-422.8 -782.1 L-422.9 -784 L-423.1 -785.9 L-423.2 -787.8 L-423.4 -789.6 L-423.5 -791.5 L-423.7 -793.4 L-423.8 -795.3 L-423.9 -797.2 L-424.1 -799.1 L-424.2 -801 L-424.4 -802.8 L-424.5 -804.7 L-424.7 -806.6 L-424.8 -808.5 L-425 -810.4 L-425.1 -812.3 L-425.3 -814.2 L-425.4 -816 L-425.6 -817.9 L-425.7 -819.8 L-425.9 -821.7 L-424 -821.8 L-422.1 -822 L-420.2 -822.1 L-418.3 -822.3 L-416.5 -822.4 L-414.6 -822.6 L-412.7 -822.7 L-410.8 -822.9 L-408.9 -823 L-407 -823.2 L-405.1 -823.3 L-403.3 -823.5 L-401.4 -823.6 L-399.5 -823.8 L-397.6 -823.9 L-395.7 -824.1 L-393.8 -824.2 L-391.9 -824.4 L-390.1 -824.5 L-388.2 -824.7 L-386.3 -824.8 L-384.4 -825 L-382.5 -825.1 L-380.6 -825.3 L-378.7 -825.4 Z " />
<path stroke="rgb(0,0,0)" stroke-opacity="0.148" fill="rgb(255,255,255)" fill-opacity="1" d="M224.8 -299.7 L224.7 -297.8 L224.4 -295.8 L224 -293.9 L223.4 -292 L222.7 -290.2 L221.9 -288.4 L220.9 -286.7 L219.7 -285.1 L218.5 -283.6 L217.1 -282.1 L215.7 -280.8 L214.1 -279.7 L212.4 -278.6 L210.7 -277.7 L208.9 -276.9 L207 -276.3 L205.1 -275.8 L203.2 -275.5 L201.2 -275.3 L199.2 -275.3 L197.3 -275.4 L195.3 -275.7 L193.4 -276.1 L191.5 -276.7 L189.7 -277.5 L188 -278.4 L186.3 -279.4 L184.7 -280.6 L183.2 -281.8 L181.8 -283.2 L180.5 -284.7 L179.4 -286.3 L178.4 -288 L177.5 -289.8 L176.7 -291.6 L176.1 -293.5 L175.7 -295.4 L175.4 -297.3 L175.3 -299.3 L175.3 -301.3 L175.5 -303.2 L175.8 -305.2 L176.3 -307.1 L176.9 -308.9 L177.7 -310.7 L178.6 -312.5 L179.7 -314.1 L180.9 -315.7 L182.2 -317.2 L183.6 -318.5 L185.1 -319.8 L186.7 -320.9 L188.4 -321.9 L190.2 -322.7 L192.1 -323.4 L193.9 -324 L195.9 -324.4 L197.8 -324.7 L199.8 -324.8 L201.7 -324.7 L203.7 -324.5 L205.6 -324.1 L207.5 -323.6 L209.4 -322.9 L211.2 -322.1 L212.9 -321.1 L214.5 -320 L216.1 -318.8 L217.5 -317.5 L218.9 -316 L220.1 -314.5 L221.2 -312.9 L222.1 -311.1 L222.9 -309.3 L223.6 -307.5 L224.1 -305.6 L224.5 -303.7 L224.7 -301.7 L224.8 -299.7 Z " />
<path stroke="rgb(0,0,0)" stroke-opacity="1" fill="rgb(255,255,255)" fill-opacity="1" d="M-175.7 -824.3 L-175.7 -822.4 L-175.7 -820.4 L-175.7 -818.4 L-175.7 -816.5 L-175.8 -814.5 L-175.8 -812.5 L-175.8 -810.6 L-175.8 -808.6 L-175.8 -806.6 L-175.9 -804.7 L-175.9 -802.7 L-175.9 -800.7 L-175.9 -798.8 L-175.9 -796.8 L-175.9 -794.8 L-176 -792.9 L-176 -790.9 L-176 -788.9 L-176 -787 L-176 -785 L-176.1 -783.1 L-176.1 -781.1 L-176.1 -779.1 L-176.1 -777.2 L-176.1 -775.2 L-178.1 -775.2 L-180.1 -775.2 L-182 -775.2 L-184 -775.3 L-186 -775.3 L-187.9 -775.3 L-189.9 -775.3 L-191.9 -775.3 L-193.8 -775.3 L-195.8 -775.4 L-197.8 -775.4 L-199.7 -775.4 L-201.7 -775.4 L-203.7 -775.4 L-205.6 -775.5 L-207.6 -775.5 L-209.6 -775.5 L-211.5 -775.5 L-213.5 -775.5 L-215.5 -775.6 L-217.4 -775.6 L-219.4 -775.6 L-221.4 -775.6 L-223.3 -775.6 L-225.3 -775.6 L-225.3 -777.6 L-225.3 -779.6 L-225.2 -781.5 L-225.2 -783.5 L-225.2 -785.5 L-225.2 -787.4 L-225.2 -789.4 L-225.1 -791.4 L-225.1 -793.3 L-225.1 -795.3 L-225.1 -797.3 L-225.1 -799.2 L-225.1 -801.2 L-225 -803.2 L-225 -805.1 L-225 -807.1 L-225 -809.1 L-225 -811 L-224.9 -813 L-224.9 -815 L-224.9 -816.9 L-224.9 -818.9 L-224.9 -820.9 L-224.9 -822.8 L-224.8 -824.8 L-222.9 -824.8 L-220.9 -824.8 L-218.9 -824.8 L-217 -824.7 L-215 -824.7 L-213 -824.7 L-211.1 -824.7 L-209.1 -824.7 L-207.1 -824.6 L-205.2 -824.6 L-203.2 -824.6 L-201.2 -824.6 L-199.3 -824.6 L-197.3 -824.5 L-195.3 -824.5 L-193.4 -824.5 L-191.4 -824.5 L-189.4 -824.5 L-187.5 -824.5 L-185.5 -824.4 L-183.5 -824.4 L-181.6 -824.4 L-179.6 -824.4 L-177.6 -824.4 L-175.7 -824.3 Z " />
<path stroke="rgb(0,0,0)" stroke-opacity="0.148" fill="rgb(255,255,255)" fill-opacity="1" d="M-275.2 -199.7 L-275.3 -197.8 L-275.6 -195.8 L-276 -193.9 L-276.6 -192 L-277.3 -190.2 L-278.1 -188.4 L-279.1 -186.7 L-280.3 -185.1 L-281.5 -183.6 L-282.9 -182.1 L-284.3 -180.8 L-285.9 -179.7 L-287.6 -178.6 L-289.3 -177.7 L-291.1 -176.9 L-293 -176.3 L-294.9 -175.8 L-296.8 -175.5 L-298.8 -175.3 L-300.8 -175.3 L-302.7 -175.4 L-304.7 -175.7 L-306.6 -176.1 L-308.5 -176.7 L-310.3 -177.5 L-312 -178.4 L-313.7 -179.4 L-315.3 -180.6 L-316.8 -181.8 L-318.2 -183.2 L-319.5 -184.7 L-320.6 -186.3 L-321.6 -188 L-322.5 -189.8 L-323.3 -191.6 L-323.9 -193.5 L-324.3 -195.4 L-324.6 -197.3 L-324.7 -199.3 L-324.7 -201.3 L-324.5 -203.2 L-324.2 -205.2 L-323.7 -207.1 L-323.1 -208.9 L-322.3 -210.7 L-321.4 -212.5 L-320.3 -214.1 L-319.1 -215.7 L-317.8 -217.2 L-316.4 -218.5 L-314.9 -219.8 L-313.3 -220.9 L-311.6 -221.9 L-309.8 -222.7 L-307.9 -223.4 L-306.1 -224 L-304.1 -224.4 L-302.2 -224.7 L-300.2 -224.8 L-298.3 -224.7 L-296.3 -224.5 L-294.4 -224.1 L-292.5 -223.6 L-290.6 -222.9 L-288.8 -222.1 L-287.1 -221.1 L-285.5 -220 L-283.9 -218.8 L-282.5 -217.5 L-281.1 -216 L-279.9 -214.5 L-278.8 -212.9 L-277.9 -211.1 L-277.1 -209.3 L-276.4 -207.5 L-275.9 -205.6 L-275.5 -203.7 L-275.3 -201.7 L-275.2 -199.7 Z " />
<path stroke="rgb(0,0,0)" stroke-opacity="1" fill="rgb(255,255,255)" fill-opacity="1" d="M-691.6 -726.7 L-690.8 -725.3 L-690.1 -723.9 L-689.4 -722.5 L-688.7 -721 L-688 -719.6 L-687.2 -718.2 L-686.5 -716.8 L-685.8 -715.4 L-685.1 -713.9 L-684.4 -712.5 L-683.6 -711.1 L-682.9 -709.7 L-682.2 -708.3 L-681.5 -706.8 L-680.8 -705.4 L-680.1 -704 L-679.3 -702.6 L-678.6 -701.1 L-677.9 -699.7 L-677.2 -698.3 L-676.5 -696.9 L-675.7 -695.5 L-675 -694 L-674.3 -692.6 L-673.6 -691.2 L-675 -690.5 L-676.4 -689.8 L-677.8 -689.1 L-679.3 -688.3 L-680.7 -687.6 L-682.1 -686.9 L-683.5 -686.2 L-684.9 -685.5 L-686.4 -684.7 L-687.8 -684 L-689.2 -683.3 L-690.6 -682.6 L-692 -681.9 L-693.5 -681.1 L-694.9 -680.4 L-696.3 -679.7 L-697.7 -679 L-699.1 -678.3 L-700.6 -677.5 L-702 -676.8 L-703.4 -676.1 L-704.8 -675.4 L-706.2 -674.7 L-707.7 -673.9 L-709.1 -673.2 L-709.8 -674.7 L-710.5 -676.1 L-711.2 -677.5 L-712 -678.9 L-712.7 -680.3 L-713.4 -681.8 L-714.1 -683.2 L-714.8 -684.6 L-715.6 -686 L-716.3 -687.4 L-717 -688.9 L-717.7 -690.3 L-718.4 -691.7 L-719.2 -693.1 L-719.9 -694.5 L-720.6 -696 L-721.3 -697.4 L-722 -698.8 L-722.8 -700.2 L-723.5 -701.6 L-724.2 -703.1 L-724.9 -704.5 L-725.6 -705.9 L-726.3 -707.3 L-727.1 -708.7 L-725.6 -709.5 L-724.2 -710.2 L-722.8 -710.9 L-721.4 -711.6 L-720 -712.3 L-718.5 -713.1 L-717.1 -713.8 L-715.7 -714.5 L-714.3 -715.2 L-712.9 -715.9 L-711.4 -716.6 L-710 -717.4 L-708.6 -718.1 L-707.2 -718.8 L-705.8 -719.5 L-704.3 -720.2 L-702.9 -721 L-701.5 -721.7 L-700.1 -722.4 L-698.7 -723.1 L-697.2 -723.8 L-695.8 -724.6 L-694.4 -725.3 L-693 -726 L-691.6 -726.7 Z " />
<path stroke="rgb(0,0,0)" stroke-opacity="0.148" fill="rgb(255,255,255)" fill-opacity="1" d="M-75.25 -199.7 L-75.35 -197.8 L-75.6 -195.8 L-76.01 -193.9 L-76.57 -192 L-77.28 -190.2 L-78.14 -188.4 L-79.13 -186.7 L-80.25 -185.1 L-81.5 -183.6 L-82.86 -182.1 L-84.34 -180.8 L-85.91 -179.7 L-87.57 -178.6 L-89.31 -177.7 L-91.12 -176.9 L-92.98 -176.3 L-94.89 -175.8 L-96.83 -175.5 L-98.79 -175.3 L-100.8 -175.3 L-102.7 -175.4 L-104.7 -175.7 L-106.6 -176.1 L-108.5 -176.7 L-110.3 -177.5 L-112 -178.4 L-113.7 -179.4 L-115.3 -180.6 L-116.8 -181.8 L-118.2 -183.2 L-119.5 -184.7 L-120.6 -186.3 L-121.6 -188 L-122.5 -189.8 L-123.3 -191.6 L-123.9 -193.5 L-124.3 -195.4 L-124.6 -197.3 L-124.7 -199.3 L-124.7 -201.3 L-124.5 -203.2 L-124.2 -205.2 L-123.7 -207.1 L-123.1 -208.9 L-122.3 -210.7 L-121.4 -212.5 L-120.3 -214.1 L-119.1 -215.7 L-117.8 -217.2 L-116.4 -218.5 L-114.9 -219.8 L-113.3 -220.9 L-111.6 -221.9 L-109.8 -222.7 L-107.9 -223.4 L-106.1 -224 L-104.1 -224.4 L-102.2 -224.7 L-100.2 -224.8 L-98.25 -224.7 L-96.3 -224.5 L-94.36 -224.1 L-92.47 -223.6 L-90.62 -222.9 L-88.83 -222.1 L-87.11 -221.1 L-85.47 -220 L-83.92 -218.8 L-82.48 -217.5 L-81.14 -216 L-79.93 -214.5 L-78.84 -212.9 L-77.89 -211.1 L-77.07 -209.3 L-76.4 -207.5 L-75.88 -205.6 L-75.52 -203.7 L-75.3 -201.7 L-75.25 -199.7 Z " />
<path stroke="rgb(0,0,0)" stroke-opacity="1" fill="rgb(255,255,255)" fill-opacity="1" d="M-478.7 -725.4 L-478.6 -723.5 L-478.4 -721.6 L-478.3 -719.8 L-478.1 -717.9 L-478 -716 L-477.8 -714.1 L-477.7 -712.2 L-477.6 -710.3 L-477.4 -708.4 L-477.3 -706.6 L-477.1 -704.7 L-477 -702.8 L-476.8 -700.9 L-476.7 -699 L-476.5 -697.1 L-476.4 -695.2 L-476.2 -693.4 L-476.1 -691.5 L-475.9 -689.6 L-475.8 -687.7 L-475.6 -685.8 L-475.5 -683.9 L-475.3 -682 L-475.2 -680.2 L-475 -678.3 L-476.9 -678.1 L-478.8 -678 L-480.7 -677.8 L-482.6 -677.7 L-484.5 -677.5 L-486.3 -677.4 L-488.2 -677.2 L-490.1 -677.1 L-492 -676.9 L-493.9 -676.8 L-495.8 -676.6 L-497.6 -676.5 L-499.5 -676.3 L-501.4 -676.2 L-503.3 -676 L-505.2 -675.9 L-507.1 -675.7 L-509 -675.6 L-510.8 -675.4 L-512.7 -675.3 L-514.6 -675.1 L-516.5 -675 L-518.4 -674.9 L-520.3 -674.7 L-522.2 -674.6 L-522.3 -676.4 L-522.5 -678.3 L-522.6 -680.2 L-522.8 -682.1 L-522.9 -684 L-523.1 -685.9 L-523.2 -687.8 L-523.4 -689.6 L-523.5 -691.5 L-523.7 -693.4 L-523.8 -695.3 L-523.9 -697.2 L-524.1 -699.1 L-524.2 -701 L-524.4 -702.8 L-524.5 -704.7 L-524.7 -706.6 L-524.8 -708.5 L-525 -710.4 L-525.1 -712.3 L-525.3 -714.2 L-525.4 -716 L-525.6 -717.9 L-525.7 -719.8 L-525.9 -721.7 L-524 -721.8 L-522.1 -722 L-520.2 -722.1 L-518.3 -722.3 L-516.5 -722.4 L-514.6 -722.6 L-512.7 -722.7 L-510.8 -722.9 L-508.9 -723 L-507 -723.2 L-505.1 -723.3 L-503.3 -723.5 L-501.4 -723.6 L-499.5 -723.8 L-497.6 -723.9 L-495.7 -724.1 L-493.8 -724.2 L-491.9 -724.4 L-490.1 -724.5 L-488.2 -724.7 L-486.3 -724.8 L-484.4 -725 L-482.5 -725.1 L-480.6 -725.3 L-478.7 -725.4 Z " />
<path stroke="rgb(0,0,0)" stroke-opacity="0.148" fill="rgb(255,255,255)" fill-opacity="1" d="M124.8 -199.7 L124.7 -197.8 L124.4 -195.8 L124 -193.9 L123.4 -192 L122.7 -190.2 L121.9 -188.4 L120.9 -186.7 L119.7 -185.1 L118.5 -183.6 L117.1 -182.1 L115.7 -180.8 L114.1 -179.7 L112.4 -178.6 L110.7 -177.7 L108.9 -176.9 L107 -176.3 L105.1 -175.8 L103.2 -175.5 L101.2 -175.3 L99.24 -175.3 L97.28 -175.4 L95.33 -175.7 L93.42 -176.1 L91.54 -176.7 L89.72 -177.5 L87.96 -178.4 L86.28 -179.4 L84.69 -180.6 L83.19 -181.8 L81.8 -183.2 L80.53 -184.7 L79.38 -186.3 L78.35 -188 L77.47 -189.8 L76.73 -191.6 L76.13 -193.5 L75.69 -195.4 L75.4 -197.3 L75.26 -199.3 L75.28 -201.3 L75.46 -203.2 L75.79 -205.2 L76.28 -207.1 L76.92 -208.9 L77.7 -210.7 L78.62 -212.5 L79.68 -214.1 L80.87 -215.7 L82.17 -217.2 L83.59 -218.5 L85.12 -219.8 L86.74 -220.9 L88.44 -221.9 L90.21 -222.7 L92.05 -223.4 L93.94 -224 L95.86 -224.4 L97.82 -224.7 L99.78 -224.8 L101.7 -224.7 L103.7 -224.5 L105.6 -224.1 L107.5 -223.6 L109.4 -222.9 L111.2 -222.1 L112.9 -221.1 L114.5 -220 L116.1 -218.8 L117.5 -217.5 L118.9 -216 L120.1 -214.5 L121.2 -212.9 L122.1 -211.1 L122.9 -209.3 L123.6 -207.5 L124.1 -205.6 L124.5 -203.7 L124.7 -201.7 L124.8 -199.7 Z " />
<path stroke="rgb(0,0,0)" stroke-opacity="1" fill="rgb(255,255,255)" fill-opacity="1" d="M-275.7 -724.3 L-275.7 -722.4 L-275.7 -720.4 L-275.7 -718.4 L-275.7 -716.5 L-275.8 -714.5 L-275.8 -712.5 L-275.8 -710.6 L-275.8 -708.6 L-275.8 -706.6 L-275.9 -704.7 L-275.9 -702.7 L-275.9 -700.7 L-275.9 -698.8 L-275.9 -696.8 L-275.9 -694.8 L-276 -692.9 L-276 -690.9 L-276 -688.9 L-276 -687 L-276 -685 L-276.1 -683.1 L-276.1 -681.1 L-276.1 -679.1 L-276.1 -677.2 L-276.1 -675.2 L-278.1 -675.2 L-280.1 -675.2 L-282 -675.2 L-284 -675.3 L-286 -675.3 L-287.9 -675.3 L-289.9 -675.3 L-291.9 -675.3 L-293.8 -675.3 L-295.8 -675.4 L-297.8 -675.4 L-299.7 -675.4 L-301.7 -675.4 L-303.7 -675.4 L-305.6 -675.5 L-307.6 -675.5 L-309.6 -675.5 L-311.5 -675.5 L-313.5 -675.5 L-315.5 -675.6 L-317.4 -675.6 L-319.4 -675.6 L-321.4 -675.6 L-323.3 -675.6 L-325.3 -675.6 L-325.3 -677.6 L-325.3 -679.6 L-325.2 -681.5 L-325.2 -683.5 L-325.2 -685.5 L-325.2 -687.4 L-325.2 -689.4 L-325.1 -691.4 L-325.1 -693.3 L-325.1 -695.3 L-325.1 -697.3 L-325.1 -699.2 L-325.1 -701.2 L-325 -703.2 L-325 -705.1 L-325 -707.1 L-325 -709.1 L-325 -711 L-324.9 -713 L-324.9 -715 L-324.9 -716.9 L-324.9 -718.9 L-324.9 -720.9 L-324.9 -722.8 L-324.8 -724.8 L-322.9 -724.8 L-320.9 -724.8 L-318.9 -724.8 L-317 -724.7 L-315 -724.7 L-313 -724.7 L-311.1 -724.7 L-309.1 -724.7 L-307.1 -724.6 L-305.2 -724.6 L-303.2 -724.6 L-301.2 -724.6 L-299.3 -724.6 L-297.3 -724.5 L-295.3 -724.5 L-293.4 -724.5 L-291.4 -724.5 L-289.4 -724.5 L-287.5 -724.5 L-285.5 -724.4 L-283.5 -724.4 L-281.6 -724.4 L-279.6 -724.4 L-277.6 -724.4 L-275.7 -724.3 Z " />
<path stroke="rgb(0,0,0)" stroke-opacity="0.148" fill="rgb(255,255,255)" fill-opacity="1" d="M324.8 -199.7 L324.7 -197.8 L324.4 -195.8 L324 -193.9 L323.4 -192 L322.7 -190.2 L321.9 -188.4 L320.9 -186.7 L319.7 -185.1 L318.5 -183.6 L317.1 -182.1 L315.7 -180.8 L314.1 -179.7 L312.4 -178.6 L310.7 -177.7 L308.9 -176.9 L307 -176.3 L305.1 -175.8 L303.2 -175.5 L301.2 -175.3 L299.2 -175.3 L297.3 -175.4 L295.3 -175.7 L293.4 -176.1 L291.5 -176.7 L289.7 -177.5 L288 -178.4 L286.3 -179.4 L284.7 -180.6 L283.2 -181.8 L281.8 -183.2 L280.5 -184.7 L279.4 -186.3 L278.4 -188 L277.5 -189.8 L276.7 -191.6 L276.1 -193.5 L275.7 -195.4 L275.4 -197.3 L275.3 -199.3 L275.3 -201.3 L275.5 -203.2 L275.8 -205.2 L276.3 -207.1 L276.9 -208.9 L277.7 -210.7 L278.6 -212.5 L279.7 -214.1 L280.9 -215.7 L282.2 -217.2 L283.6 -218.5 L285.1 -219.8 L286.7 -220.9 L288.4 -221.9 L290.2 -222.7 L292.1 -223.4 L293.9 -224 L295.9 -224.4 L297.8 -224.7 L299.8 -224.8 L301.7 -224.7 L303.7 -224.5 L305.6 -224.1 L307.5 -223.6 L309.4 -222.9 L311.2 -222.1 L312.9 -221.1 L314.5 -220 L316.1 -218.8 L317.5 -217.5 L318.9 -216 L320.1 -214.5 L321.2 -212.9 L322.1 -211.1 L322.9 -209.3 L323.6 -207.5 L324.1 -205.6 L324.5 -203.7 L324.7 -201.7 L324.8 -199.7 Z " />
<path stroke="rgb(0,0,0)" stroke-opacity="1" fill="rgb(255,255,255)" fill-opacity="1" d="M-791.6 -626.7 L-790.8 -625.3 L-790.1 -623.9 L-789.4 -622.5 L-788.7 -621 L-788 -619.6 L-787.2 -618.2 L-786.5 -616.8 L-785.8 -615.4 L-785.1 -613.9 L-784.4 -612.5 L-783.6 -611.1 L-782.9 -609.7 L-782.2 -608.3 L-781.5 -606.8 L-780.8 -605.4 L-780.1 -604 L-779.3 -602.6 L-778.6 -601.1 L-777.9 -599.7 L-777.2 -598.3 L-776.5 -596.9 L-775.7 -595.5 L-775 -594 L-774.3 -592.6 L-773.6 -591.2 L-775 -590.5 L-776.4 -589.8 L-777.8 -589.1 L-779.3 -588.3 L-780.7 -587.6 L-782.1 -586.9 L-783.5 -586.2 L-784.9 -585.5 L-786.4 -584.7 L-787.8 -584 L-789.2 -583.3 L-790.6 -582.6 L-792 -581.9 L-793.5 -581.1 L-794.9 -580.4 L-796.3 -579.7 L-797.7 -579 L-799.1 -578.3 L-800.6 -577.5 L-802 -576.8 L-803.4 -576.1 L-804.8 -575.4 L-806.2 -574.7 L-807.7 -573.9 L-809.1 -573.2 L-809.8 -574.7 L-810.5 -576.1 L-811.2 -577.5 L-812 -578.9 L-812.7 -580.3 L-813.4 -581.8 L-814.1 -583.2 L-814.8 -584.6 L-815.6 -586 L-816.3 -587.4 L-817 -588.9 L-817.7 -590.3 L-818.4 -591.7 L-819.2 -593.1 L-819.9 -594.5 L-820.6 -596 L-821.3 -597.4 L-822 -598.8 L-822.8 -600.2 L-823.5 -601.6 L-824.2 -603.1 L-824.9 -604.5 L-825.6 -605.9 L-826.3 -607.3 L-827.1 -608.7 L-825.6 -609.5 L-824.2 -610.2 L-822.8 -610.9 L-821.4 -611.6 L-820 -612.3 L-818.5 -613.1 L-817.1 -613.8 L-815.7 -614.5 L-814.3 -615.2 L-812.9 -615.9 L-811.4 -616.6 L-810 -617.4 L-808.6 -618.1 L-807.2 -618.8 L-805.8 -619.5 L-804.3 -620.2 L-802.9 -621 L-801.5 -621.7 L-800.1 -622.4 L-798.7 -623.1 L-797.2 -623.8 L-795.8 -624.6 L-794.4 -625.3 L-793 -626 L-791.6 -626.7 Z " />
<path stroke="rgb(0,0,0)" stroke-opacity="0.148" fill="rgb(255,255,255)" fill-opacity="1" d="M-175.2 -99.73 L-175.3 -97.77 L-175.6 -95.82 L-176 -93.89 L-176.6 -92.01 L-177.3 -90.17 L-178.1 -88.4 L-179.1 -86.7 L-180.3 -85.08 L-181.5 -83.56 L-182.9 -82.14 L-184.3 -80.84 L-185.9 -79.65 L-187.6 -78.6 L-189.3 -77.68 L-191.1 -76.9 L-193 -76.27 L-194.9 -75.78 L-196.8 -75.46 L-198.8 -75.28 L-200.8 -75.26 L-202.7 -75.4 L-204.7 -75.7 L-206.6 -76.15 L-208.5 -76.74 L-210.3 -77.49 L-212 -78.38 L-213.7 -79.4 L-215.3 -80.56 L-216.8 -81.84 L-218.2 -83.23 L-219.5 -84.73 L-220.6 -86.32 L-221.6 -88.01 L-222.5 -89.76 L-223.3 -91.59 L-223.9 -93.46 L-224.3 -95.38 L-224.6 -97.33 L-224.7 -99.29 L-224.7 -101.3 L-224.5 -103.2 L-224.2 -105.2 L-223.7 -107.1 L-223.1 -108.9 L-222.3 -110.7 L-221.4 -112.5 L-220.3 -114.1 L-219.1 -115.7 L-217.8 -117.2 L-216.4 -118.5 L-214.9 -119.8 L-213.3 -120.9 L-211.6 -121.9 L-209.8 -122.7 L-207.9 -123.4 L-206.1 -124 L-204.1 -124.4 L-202.2 -124.7 L-200.2 -124.8 L-198.3 -124.7 L-196.3 -124.5 L-194.4 -124.1 L-192.5 -123.6 L-190.6 -122.9 L-188.8 -122.1 L-187.1 -121.1 L-185.5 -120 L-183.9 -118.8 L-182.5 -117.5 L-181.1 -116 L-179.9 -114.5 L-178.8 -112.9 L-177.9 -111.1 L-177.1 -109.3 L-176.4 -107.5 L-175.9 -105.6 L-175.5 -103.7 L-175.3 -101.7 L-175.2 -99.73 Z " />
<path stroke="rgb(0,0,0)" stroke-opacity="1" fill="rgb(255,255,255)" fill-opacity="1" d="M-578.7 -625.4 L-578.6 -623.5 L-578.4 -621.6 L-578.3 -619.8 L-578.1 -617.9 L-578 -616 L-577.8 -614.1 L-577.7 -612.2 L-577.6 -610.3 L-577.4 -608.4 L-577.3 -606.6 L-577.1 -604.7 L-577 -602.8 L-576.8 -600.9 L-576.7 -599 L-576.5 -597.1 L-576.4 -595.2 L-576.2 -593.4 L-576.1 -591.5 L-575.9 -589.6 L-575.8 -587.7 L-575.6 -585.8 L-575.5 -583.9 L-575.3 -582 L-575.2 -580.2 L-575 -578.3 L-576.9 -578.1 L-578.8 -578 L-580.7 -577.8 L-582.6 -577.7 L-584.5 -577.5 L-586.3 -577.4 L-588.2 -577.2 L-590.1 -577.1 L-592 -576.9 L-593.9 -576.8 L-595.8 -576.6 L-597.6 -576.5 L-599.5 -576.3 L-601.4 -576.2 L-603.3 -576 L-605.2 -575.9 L-607.1 -575.7 L-609 -575.6 L-610.8 -575.4 L-612.7 -575.3 L-614.6 -575.1 L-616.5 -575 L-618.4 -574.9 L-620.3 -574.7 L-622.2 -574.6 L-622.3 -576.4 L-622.5 -578.3 L-622.6 -580.2 L-622.8 -582.1 L-622.9 -584 L-623.1 -585.9 L-623.2 -587.8 L-623.4 -589.6 L-623.5 -591.5 L-623.7 -593.4 L-623.8 -595.3 L-623.9 -597.2 L-624.1 -599.1 L-624.2 -601 L-624.4 -602.8 L-624.5 -604.7 L-624.7 -606.6 L-624.8 -608.5 L-625 -610.4 L-625.1 -612.3 L-625.3 -614.2 L-625.4 -616 L-625.6 -617.9 L-625.7 -619.8 L-625.9 -621.7 L-624 -621.8 L-622.1 -622 L-620.2 -622.1 L-618.3 -622.3 L-616.5 -622.4 L-614.6 -622.6 L-612.7 -622.7 L-610.8 -622.9 L-608.9 -623 L-607 -623.2 L-605.1 -623.3 L-603.3 -623.5 L-601.4 -623.6 L-599.5 -623.8 L-597.6 -623.9 L-595.7 -624.1 L-593.8 -624.2 L-591.9 -624.4 L-590.1 -624.5 L-588.2 -624.7 L-586.3 -624.8 L-584.4 -625 L-582.5 -625.1 L-580.6 -625.3 L-578.7 -625.4 Z " />
<path stroke="rgb(0,0,0)" stroke-opacity="0.148" fill="rgb(255,255,255)" fill-opacity="1" d="M24.75 -99.73 L24.65 -97.77 L24.4 -95.82 L23.99 -93.89 L23.43 -92.01 L22.72 -90.17 L21.86 -88.4 L20.87 -86.7 L19.75 -85.08 L18.5 -83.56 L17.14 -82.14 L15.66 -80.84 L14.09 -79.65 L12.43 -78.6 L10.69 -77.68 L8.881 -76.9 L7.018 -76.27 L5.11 -75.78 L3.169 -75.46 L1.209 -75.28 L-0.7591 -75.26 L-2.722 -75.4 L-4.668 -75.7 L-6.584 -76.15 L-8.459 -76.74 L-10.28 -77.49 L-12.04 -78.38 L-13.72 -79.4 L-15.31 -80.56 L-16.81 -81.84 L-18.2 -83.23 L-19.47 -84.73 L-20.62 -86.32 L-21.65 -88.01 L-22.53 -89.76 L-23.27 -91.59 L-23.87 -93.46 L-24.31 -95.38 L-24.6 -97.33 L-24.74 -99.29 L-24.72 -101.3 L-24.54 -103.2 L-24.21 -105.2 L-23.72 -107.1 L-23.08 -108.9 L-22.3 -110.7 L-21.38 -112.5 L-20.32 -114.1 L-19.13 -115.7 L-17.83 -117.2 L-16.41 -118.5 L-14.88 -119.8 L-13.26 -120.9 L-11.56 -121.9 L-9.786 -122.7 L-7.949 -123.4 L-6.062 -124 L-4.136 -124.4 L-2.185 -124.7 L-0.2188 -124.8 L1.748 -124.7 L3.704 -124.5 L5.637 -124.1 L7.534 -123.6 L9.383 -122.9 L11.17 -122.1 L12.89 -121.1 L14.53 -120 L16.08 -118.8 L17.52 -117.5 L18.86 -116 L20.07 -114.5 L21.16 -112.9 L22.11 -111.1 L22.93 -109.3 L23.6 -107.5 L24.12 -105.6 L24.48 -103.7 L24.7 -101.7 L24.75 -99.73 Z " />
<path stroke="rgb(0,0,0)" stroke-opacity="1" fill="rgb(255,255,255)" fill-opacity="1" d="M-375.7 -624.3 L-375.7 -622.4 L-375.7 -620.4 L-375.7 -618.4 L-375.7 -616.5 L-375.8 -614.5 L-375.8 -612.5 L-375.8 -610.6 L-375.8 -608.6 L-375.8 -606.6 L-375.9 -604.7 L-375.9 -602.7 L-375.9 -600.7 L-375.9 -598.8 L-375.9 -596.8 L-375.9 -594.8 L-376 -592.9 L-376 -590.9 L-376 -588.9 L-376 -587 L-376 -585 L-376.1 -583.1 L-376.1 -581.1 L-376.1 -579.1 L-376.1 -577.2 L-376.1 -575.2 L-378.1 -575.2 L-380.1 -575.2 L-382 -575.2 L-384 -575.3 L-386 -575.3 L-387.9 -575.3 L-389.9 -575.3 L-391.9 -575.3 L-393.8 -575.3 L-395.8 -575.4 L-397.8 -575.4 L-399.7 -575.4 L-401.7 -575.4 L-403.7 -575.4 L-405.6 -575.5 L-407.6 -575.5 L-409.6 -575.5 L-411.5 -575.5 L-413.5 -575.5 L-415.5 -575.6 L-417.4 -575.6 L-419.4 -575.6 L-421.4 -575.6 L-423.3 -575.6 L-425.3 -575.6 L-425.3 -577.6 L-425.3 -579.6 L-425.2 -581.5 L-425.2 -583.5 L-425.2 -585.5 L-425.2 -587.4 L-425.2 -589.4 L-425.1 -591.4 L-425.1 -593.3 L-425.1 -595.3 L-425.1 -597.3 L-425.1 -599.2 L-425.1 -601.2 L-425 -603.2 L-425 -605.1 L-425 -607.1 L-425 -609.1 L-425 -611 L-424.9 -613 L-424.9 -615 L-424.9 -616.9 L-424.9 -618.9 L-424.9 -620.9 L-424.9 -622.8 L-424.8 -624.8 L-422.9 -624.8 L-420.9 -624.8 L-418.9 -624.8 L-417 -624.7 L-415 -624.7 L-413 -624.7 L-411.1 -624.7 L-409.1 -624.7 L-407.1 -624.6 L-405.2 -624.6 L-403.2 -624.6 L-401.2 -624.6 L-399.3 -624.6 L-397.3 -624.5 L-395.3 -624.5 L-393.4 -624.5 L-391.4 -624.5 L-389.4 -624.5 L-387.5 -624.5 L-385.5 -624.4 L-383.5 -624.4 L-381.6 -624.4 L-379.6 -624.4 L-377.6 -624.4 L-375.7 -624.3 Z " />
<path stroke="rgb(0,0,0)" stroke-opacity="0.148" fill="rgb(255,255,255)" fill-opacity="1" d="M224.8 -99.73 L224.7 -97.77 L224.4 -95.82 L224 -93.89 L223.4 -92.01 L222.7 -90.17 L221.9 -88.4 L220.9 -86.7 L219.7 -85.08 L218.5 -83.56 L217.1 -82.14 L215.7 -80.84 L214.1 -79.65 L212.4 -78.6 L210.7 -77.68 L208.9 -76.9 L207 -76.27 L205.1 -75.78 L203.2 -75.46 L201.2 -75.28 L199.2 -75.26 L197.3 -75.4 L195.3 -75.7 L193.4 -76.15 L191.5 -76.74 L189.7 -77.49 L188 -78.38 L186.3 -79.4 L184.7 -80.56 L183.2 -81.84 L181.8 -83.23 L180.5 -84.73 L179.4 -86.32 L178.4 -88.01 L177.5 -89.76 L176.7 -91.59 L176.1 -93.46 L175.7 -95.38 L175.4 -97.33 L175.3 -99.29 L175.3 -101.3 L175.5 -103.2 L175.8 -105.2 L176.3 -107.1 L176.9 -108.9 L177.7 -110.7 L178.6 -112.5 L179.7 -114.1 L180.9 -115.7 L182.2 -117.2 L183.6 -118.5 L185.1 -119.8 L186.7 -120.9 L188.4 -121.9 L190.2 -122.7 L192.1 -123.4 L193.9 -124 L195.9 -124.4 L197.8 -124.7 L199.8 -124.8 L201.7 -124.7 L203.7 -124.5 L205.6 -124.1 L207.5 -123.6 L209.4 -122.9 L211.2 -122.1 L212.9 -121.1 L214.5 -120 L216.1 -118.8 L217.5 -117.5 L218.9 -116 L220.1 -114.5 L221.2 -112.9 L222.1 -111.1 L222.9 -109.3 L223.6 -107.5 L224.1 -105.6 L224.5 -103.7 L224.7 -101.7 L224.8 -99.73 Z " />
<path stroke="rgb(0,0,0)" stroke-opacity="1" fill="rgb(255,255,255)" fill-opacity="1" d="M-175.6 -624.3 L-175.6 -622.4 L-175.7 -620.4 L-175.7 -618.4 L-175.7 -616.5 L-175.7 -614.5 L-175.7 -612.5 L-175.8 -610.6 L-175.8 -608.6 L-175.8 -606.6 L-175.8 -604.7 L-175.9 -602.7 L-175.9 -600.7 L-175.9 -598.7 L-175.9 -596.8 L-175.9 -594.8 L-176 -592.8 L-176 -590.9 L-176 -588.9 L-176 -586.9 L-176 -585 L-176.1 -583 L-176.1 -581 L-176.1 -579.1 L-176.1 -577.1 L-176.2 -575.1 L-178.1 -575.2 L-180.1 -575.2 L-182.1 -575.2 L-184 -575.2 L-186 -575.2 L-188 -575.3 L-189.9 -575.3 L-191.9 -575.3 L-193.9 -575.3 L-195.8 -575.3 L-197.8 -575.4 L-199.8 -575.4 L-201.7 -575.4 L-203.7 -575.4 L-205.7 -575.5 L-207.6 -575.5 L-209.6 -575.5 L-211.6 -575.5 L-213.5 -575.5 L-215.5 -575.6 L-217.5 -575.6 L-219.4 -575.6 L-221.4 -575.6 L-223.4 -575.6 L-225.3 -575.7 L-225.3 -577.6 L-225.3 -579.6 L-225.3 -581.6 L-225.3 -583.5 L-225.2 -585.5 L-225.2 -587.5 L-225.2 -589.4 L-225.2 -591.4 L-225.2 -593.4 L-225.1 -595.3 L-225.1 -597.3 L-225.1 -599.3 L-225.1 -601.2 L-225 -603.2 L-225 -605.2 L-225 -607.1 L-225 -609.1 L-225 -611.1 L-224.9 -613.1 L-224.9 -615 L-224.9 -617 L-224.9 -619 L-224.9 -620.9 L-224.8 -622.9 L-224.8 -624.9 L-222.8 -624.8 L-220.9 -624.8 L-218.9 -624.8 L-216.9 -624.8 L-215 -624.8 L-213 -624.7 L-211 -624.7 L-209.1 -624.7 L-207.1 -624.7 L-205.1 -624.6 L-203.2 -624.6 L-201.2 -624.6 L-199.2 -624.6 L-197.3 -624.6 L-195.3 -624.5 L-193.3 -624.5 L-191.4 -624.5 L-189.4 -624.5 L-187.4 -624.5 L-185.5 -624.4 L-183.5 -624.4 L-181.5 -624.4 L-179.6 -624.4 L-177.6 -624.3 L-175.6 -624.3 Z " />
<path stroke="rgb(0,0,0)" stroke-opacity="0.148" fill="rgb(255,255,255)" fill-opacity="1" d="M-275.2 0.2668 L-275.3 2.232 L-275.6 4.184 L-276 6.109 L-276.6 7.995 L-277.3 9.83 L-278.1 11.6 L-279.1 13.3 L-280.3 14.92 L-281.5 16.44 L-282.9 17.86 L-284.3 19.16 L-285.9 20.35 L-287.6 21.4 L-289.3 22.32 L-291.1 23.1 L-293 23.73 L-294.9 24.22 L-296.8 24.54 L-298.8 24.72 L-300.8 24.74 L-302.7 24.6 L-304.7 24.3 L-306.6 23.85 L-308.5 23.26 L-310.3 22.51 L-312 21.62 L-313.7 20.6 L-315.3 19.44 L-316.8 18.16 L-318.2 16.77 L-319.5 15.27 L-320.6 13.68 L-321.6 11.99 L-322.5 10.24 L-323.3 8.414 L-323.9 6.538 L-324.3 4.62 L-324.6 2.674 L-324.7 0.7106 L-324.7 -1.257 L-324.5 -3.217 L-324.2 -5.157 L-323.7 -7.064 L-323.1 -8.926 L-322.3 -10.73 L-321.4 -12.47 L-320.3 -14.13 L-319.1 -15.7 L-317.8 -17.17 L-316.4 -18.53 L-314.9 -19.78 L-313.3 -20.9 L-311.6 -21.89 L-309.8 -22.74 L-307.9 -23.44 L-306.1 -24 L-304.1 -24.41 L-302.2 -24.66 L-300.2 -24.75 L-298.3 -24.69 L-296.3 -24.48 L-294.4 -24.1 L-292.5 -23.58 L-290.6 -22.91 L-288.8 -22.09 L-287.1 -21.13 L-285.5 -20.04 L-283.9 -18.82 L-282.5 -17.49 L-281.1 -16.04 L-279.9 -14.49 L-278.8 -12.85 L-277.9 -11.13 L-277.1 -9.339 L-276.4 -7.488 L-275.9 -5.59 L-275.5 -3.657 L-275.3 -1.7 L-275.2 0.2668 Z " />
<path stroke="rgb(0,0,0)" stroke-opacity="1" fill="rgb(255,255,255)" fill-opacity="1" d="M-678.7 -525.4 L-678.6 -523.5 L-678.4 -521.6 L-678.3 -519.8 L-678.1 -517.9 L-678 -516 L-677.8 -514.1 L-677.7 -512.2 L-677.6 -510.3 L-677.4 -508.4 L-677.3 -506.6 L-677.1 -504.7 L-677 -502.8 L-676.8 -500.9 L-676.7 -499 L-676.5 -497.1 L-676.4 -495.2 L-676.2 -493.4 L-676.1 -491.5 L-675.9 -489.6 L-675.8 -487.7 L-675.6 -485.8 L-675.5 -483.9 L-675.3 -482 L-675.2 -480.2 L-675 -478.3 L-676.9 -478.1 L-678.8 -478 L-680.7 -477.8 L-682.6 -477.7 L-684.5 -477.5 L-686.3 -477.4 L-688.2 -477.2 L-690.1 -477.1 L-692 -476.9 L-693.9 -476.8 L-695.8 -476.6 L-697.6 -476.5 L-699.5 -476.3 L-701.4 -476.2 L-703.3 -476 L-705.2 -475.9 L-707.1 -475.7 L-709 -475.6 L-710.8 -475.4 L-712.7 -475.3 L-714.6 -475.1 L-716.5 -475 L-718.4 -474.9 L-720.3 -474.7 L-722.2 -474.6 L-722.3 -476.4 L-722.5 -478.3 L-722.6 -480.2 L-722.8 -482.1 L-722.9 -484 L-723.1 -485.9 L-723.2 -487.8 L-723.4 -489.6 L-723.5 -491.5 L-723.7 -493.4 L-723.8 -495.3 L-723.9 -497.2 L-724.1 -499.1 L-724.2 -501 L-724.4 -502.8 L-724.5 -504.7 L-724.7 -506.6 L-724.8 -508.5 L-725 -510.4 L-725.1 -512.3 L-725.3 -514.2 L-725.4 -516 L-725.6 -517.9 L-725.7 -519.8 L-725.9 -521.7 L-724 -521.8 L-722.1 -522 L-720.2 -522.1 L-718.3 -522.3 L-716.5 -522.4 L-714.6 -522.6 L-712.7 -522.7 L-710.8 -522.9 L-708.9 -523 L-707 -523.2 L-705.1 -523.3 L-703.3 -523.5 L-701.4 -523.6 L-699.5 -523.8 L-697.6 -523.9 L-695.7 -524.1 L-693.8 -524.2 L-691.9 -524.4 L-690.1 -524.5 L-688.2 -524.7 L-686.3 -524.8 L-684.4 -525 L-682.5 -525.1 L-680.6 -525.3 L-678.7 -525.4 Z " />
<path stroke="rgb(0,0,0)" stroke-opacity="0.148" fill="rgb(255,255,255)" fill-opacity="1" d="M-75.25 0.2668 L-75.35 2.232 L-75.6 4.184 L-76.01 6.109 L-76.57 7.995 L-77.28 9.83 L-78.14 11.6 L-79.13 13.3 L-80.25 14.92 L-81.5 16.44 L-82.86 17.86 L-84.34 19.16 L-85.91 20.35 L-87.57 21.4 L-89.31 22.32 L-91.12 23.1 L-92.98 23.73 L-94.89 24.22 L-96.83 24.54 L-98.79 24.72 L-100.8 24.74 L-102.7 24.6 L-104.7 24.3 L-106.6 23.85 L-108.5 23.26 L-110.3 22.51 L-112 21.62 L-113.7 20.6 L-115.3 19.44 L-116.8 18.16 L-118.2 16.77 L-119.5 15.27 L-120.6 13.68 L-121.6 11.99 L-122.5 10.24 L-123.3 8.414 L-123.9 6.538 L-124.3 4.62 L-124.6 2.674 L-124.7 0.7106 L-124.7 -1.257 L-124.5 -3.217 L-124.2 -5.157 L-123.7 -7.064 L-123.1 -8.926 L-122.3 -10.73 L-121.4 -12.47 L-120.3 -14.13 L-119.1 -15.7 L-117.8 -17.17 L-116.4 -18.53 L-114.9 -19.78 L-113.3 -20.9 L-111.6 -21.89 L-109.8 -22.74 L-107.9 -23.44 L-106.1 -24 L-104.1 -24.41 L-102.2 -24.66 L-100.2 -24.75 L-98.25 -24.69 L-96.3 -24.48 L-94.36 -24.1 L-92.47 -23.58 L-90.62 -22.91 L-88.83 -22.09 L-87.11 -21.13 L-85.47 -20.04 L-83.92 -18.82 L-82.48 -17.49 L-81.14 -16.04 L-79.93 -14.49 L-78.84 -12.85 L-77.89 -11.13 L-77.07 -9.339 L-76.4 -7.488 L-75.88 -5.59 L-75.52 -3.657 L-75.3 -1.7 L-75.25 0.2668 Z " />
<path stroke="rgb(0,0,0)" stroke-opacity="1" fill="rgb(255,255,255)" fill-opacity="1" d="M-475.7 -524.3 L-475.7 -522.4 L-475.7 -520.4 L-475.7 -518.4 L-475.7 -516.5 L-475.8 -514.5 L-475.8 -512.5 L-475.8 -510.6 L-475.8 -508.6 L-475.8 -506.6 L-475.9 -504.7 L-475.9 -502.7 L-475.9 -500.7 L-475.9 -498.8 L-475.9 -496.8 L-475.9 -494.8 L-476 -492.9 L-476 -490.9 L-476 -488.9 L-476 -487 L-476 -485 L-476.1 -483.1 L-476.1 -481.1 L-476.1 -479.1 L-476.1 -477.2 L-476.1 -475.2 L-478.1 -475.2 L-480.1 -475.2 L-482 -475.2 L-484 -475.3 L-486 -475.3 L-487.9 -475.3 L-489.9 -475.3 L-491.9 -475.3 L-493.8 -475.3 L-495.8 -475.4 L-497.8 -475.4 L-499.7 -475.4 L-501.7 -475.4 L-503.7 -475.4 L-505.6 -475.5 L-507.6 -475.5 L-509.6 -475.5 L-511.5 -475.5 L-513.5 -475.5 L-515.5 -475.6 L-517.4 -475.6 L-519.4 -475.6 L-521.4 -475.6 L-523.3 -475.6 L-525.3 -475.6 L-525.3 -477.6 L-525.3 -479.6 L-525.2 -481.5 L-525.2 -483.5 L-525.2 -485.5 L-525.2 -487.4 L-525.2 -489.4 L-525.1 -491.4 L-525.1 -493.3 L-525.1 -495.3 L-525.1 -497.3 L-525.1 -499.2 L-525.1 -501.2 L-525 -503.2 L-525 -505.1 L-525 -507.1 L-525 -509.1 L-525 -511 L-524.9 -513 L-524.9 -515 L-524.9 -516.9 L-524.9 -518.9 L-524.9 -520.9 L-524.9 -522.8 L-524.8 -524.8 L-522.9 -524.8 L-520.9 -524.8 L-518.9 -524.8 L-517 -524.7 L-515 -524.7 L-513 -524.7 L-511.1 -524.7 L-509.1 -524.7 L-507.1 -524.6 L-505.2 -524.6 L-503.2 -524.6 L-501.2 -524.6 L-499.3 -524.6 L-497.3 -524.5 L-495.3 -524.5 L-493.4 -524.5 L-491.4 -524.5 L-489.4 -524.5 L-487.5 -524.5 L-485.5 -524.4 L-483.5 -524.4 L-481.6 -524.4 L-479.6 -524.4 L-477.6 -524.4 L-475.7 -524.3 Z " />
<path stroke="rgb(0,0,0)" stroke-opacity="0.148" fill="rgb(255,255,255)" fill-opacity="1" d="M124.8 0.2668 L124.7 2.232 L124.4 4.184 L124 6.109 L123.4 7.995 L122.7 9.83 L121.9 11.6 L120.9 13.3 L119.7 14.92 L118.5 16.44 L117.1 17.86 L115.7 19.16 L114.1 20.35 L112.4 21.4 L110.7 22.32 L108.9 23.1 L107 23.73 L105.1 24.22 L103.2 24.54 L101.2 24.72 L99.24 24.74 L97.28 24.6 L95.33 24.3 L93.42 23.85 L91.54 23.26 L89.72 22.51 L87.96 21.62 L86.28 20.6 L84.69 19.44 L83.19 18.16 L81.8 16.77 L80.53 15.27 L79.38 13.68 L78.35 11.99 L77.47 10.24 L76.73 8.414 L76.13 6.538 L75.69 4.62 L75.4 2.674 L75.26 0.7106 L75.28 -1.257 L75.46 -3.217 L75.79 -5.157 L76.28 -7.064 L76.92 -8.926 L77.7 -10.73 L78.62 -12.47 L79.68 -14.13 L80.87 -15.7 L82.17 -17.17 L83.59 -18.53 L85.12 -19.78 L86.74 -20.9 L88.44 -21.89 L90.21 -22.74 L92.05 -23.44 L93.94 -24 L95.86 -24.41 L97.82 -24.66 L99.78 -24.75 L101.7 -24.69 L103.7 -24.48 L105.6 -24.1 L107.5 -23.58 L109.4 -22.91 L111.2 -22.09 L112.9 -21.13 L114.5 -20.04 L116.1 -18.82 L117.5 -17.49 L118.9 -16.04 L120.1 -14.49 L121.2 -12.85 L122.1 -11.13 L122.9 -9.339 L123.6 -7.488 L124.1 -5.59 L124.5 -3.657 L124.7 -1.7 L124.8 0.2668 Z " />
<path stroke="rgb(0,0,0)" stroke-opacity="1" fill="rgb(255,255,255)" fill-opacity="1" d="M-275.6 -524.3 L-275.6 -522.4 L-275.7 -520.4 L-275.7 -518.4 L-275.7 -516.5 L-275.7 -514.5 L-275.7 -512.5 L-275.8 -510.6 L-275.8 -508.6 L-275.8 -506.6 L-275.8 -504.7 L-275.9 -502.7 L-275.9 -500.7 L-275.9 -498.7 L-275.9 -496.8 L-275.9 -494.8 L-276 -492.8 L-276 -490.9 L-276 -488.9 L-276 -486.9 L-276 -485 L-276.1 -483 L-276.1 -481 L-276.1 -479.1 L-276.1 -477.1 L-276.2 -475.1 L-278.1 -475.2 L-280.1 -475.2 L-282.1 -475.2 L-284 -475.2 L-286 -475.2 L-288 -475.3 L-289.9 -475.3 L-291.9 -475.3 L-293.9 -475.3 L-295.8 -475.3 L-297.8 -475.4 L-299.8 -475.4 L-301.7 -475.4 L-303.7 -475.4 L-305.7 -475.5 L-307.6 -475.5 L-309.6 -475.5 L-311.6 -475.5 L-313.5 -475.5 L-315.5 -475.6 L-317.5 -475.6 L-319.4 -475.6 L-321.4 -475.6 L-323.4 -475.6 L-325.3 -475.7 L-325.3 -477.6 L-325.3 -479.6 L-325.3 -481.6 L-325.3 -483.5 L-325.2 -485.5 L-325.2 -487.5 L-325.2 -489.4 L-325.2 -491.4 L-325.2 -493.4 L-325.1 -495.3 L-325.1 -497.3 L-325.1 -499.3 L-325.1 -501.2 L-325 -503.2 L-325 -505.2 L-325 -507.1 L-325 -509.1 L-325 -511.1 L-324.9 -513.1 L-324.9 -515 L-324.9 -517 L-324.9 -519 L-324.9 -520.9 L-324.8 -522.9 L-324.8 -524.9 L-322.8 -524.8 L-320.9 -524.8 L-318.9 -524.8 L-316.9 -524.8 L-315 -524.8 L-313 -524.7 L-311 -524.7 L-309.1 -524.7 L-307.1 -524.7 L-305.1 -524.6 L-303.2 -524.6 L-301.2 -524.6 L-299.2 -524.6 L-297.3 -524.6 L-295.3 -524.5 L-293.3 -524.5 L-291.4 -524.5 L-289.4 -524.5 L-287.4 -524.5 L-285.5 -524.4 L-283.5 -524.4 L-281.5 -524.4 L-279.6 -524.4 L-277.6 -524.3 L-275.6 -524.3 Z " />
<path stroke="rgb(0,0,0)" stroke-opacity="0.148" fill="rgb(255,255,255)" fill-opacity="1" d="M324.8 0.2668 L324.7 2.232 L324.4 4.184 L324 6.109 L323.4 7.995 L322.7 9.83 L321.9 11.6 L320.9 13.3 L319.7 14.92 L318.5 16.44 L317.1 17.86 L315.7 19.16 L314.1 20.35 L312.4 21.4 L310.7 22.32 L308.9 23.1 L307 23.73 L305.1 24.22 L303.2 24.54 L301.2 24.72 L299.2 24.74 L297.3 24.6 L295.3 24.3 L293.4 23.85 L291.5 23.26 L289.7 22.51 L288 21.62 L286.3 20.6 L284.7 19.44 L283.2 18.16 L281.8 16.77 L280.5 15.27 L279.4 13.68 L278.4 11.99 L277.5 10.24 L276.7 8.414 L276.1 6.538 L275.7 4.62 L275.4 2.674 L275.3 0.7106 L275.3 -1.257 L275.5 -3.217 L275.8 -5.157 L276.3 -7.064 L276.9 -8.926 L277.7 -10.73 L278.6 -12.47 L279.7 -14.13 L280.9 -15.7 L282.2 -17.17 L283.6 -18.53 L285.1 -19.78 L286.7 -20.9 L288.4 -21.89 L290.2 -22.74 L292.1 -23.44 L293.9 -24 L295.9 -24.41 L297.8 -24.66 L299.8 -24.75 L301.7 -24.69 L303.7 -24.48 L305.6 -24.1 L307.5 -23.58 L309.4 -22.91 L311.2 -22.09 L312.9 -21.13 L314.5 -20.04 L316.1 -18.82 L317.5 -17.49 L318.9 -16.04 L320.1 -14.49 L321.2 -12.85 L322.1 -11.13 L322.9 -9.339 L323.6 -7.488 L324.1 -5.59 L324.5 -3.657 L324.7 -1.7 L324.8 0.2668 Z " />
<path stroke="rgb(0,0,0)" stroke-opacity="1" fill="rgb(255,255,255)" fill-opacity="1" d="M-778.7 -425.4 L-778.6 -423.5 L-778.4 -421.6 L-778.3 -419.8 L-778.1 -417.9 L-778 -416 L-777.8 -414.1 L-777.7 -412.2 L-777.6 -410.3 L-777.4 -408.4 L-777.3 -406.6 L-777.1 -404.7 L-777 -402.8 L-776.8 -400.9 L-776.7 -399 L-776.5 -397.1 L-776.4 -395.2 L-776.2 -393.4 L-776.1 -391.5 L-775.9 -389.6 L-775.8 -387.7 L-775.6 -385.8 L-775.5 -383.9 L-775.3 -382 L-775.2 -380.2 L-775 -378.3 L-776.9 -378.1 L-778.8 -378 L-780.7 -377.8 L-782.6 -377.7 L-784.5 -377.5 L-786.3 -377.4 L-788.2 -377.2 L-790.1 -377.1 L-792 -376.9 L-793.9 -376.8 L-795.8 -376.6 L-797.6 -376.5 L-799.5 -376.3 L-801.4 -376.2 L-803.3 -376 L-805.2 -375.9 L-807.1 -375.7 L-809 -375.6 L-810.8 -375.4 L-812.7 -375.3 L-814.6 -375.1 L-816.5 -375 L-818.4 -374.9 L-820.3 -374.7 L-822.2 -374.6 L-822.3 -376.4 L-822.5 -378.3 L-822.6 -380.2 L-822.8 -382.1 L-822.9 -384 L-823.1 -385.9 L-823.2 -387.8 L-823.4 -389.6 L-823.5 -391.5 L-823.7 -393.4 L-823.8 -395.3 L-823.9 -397.2 L-824.1 -399.1 L-824.2 -401 L-824.4 -402.8 L-824.5 -404.7 L-824.7 -406.6 L-824.8 -408.5 L-825 -410.4 L-825.1 -412.3 L-825.3 -414.2 L-825.4 -416 L-825.6 -417.9 L-825.7 -419.8 L-825.9 -421.7 L-824 -421.8 L-822.1 -422 L-820.2 -422.1 L-818.3 -422.3 L-816.5 -422.4 L-814.6 -422.6 L-812.7 -422.7 L-810.8 -422.9 L-808.9 -423 L-807 -423.2 L-805.1 -423.3 L-803.3 -423.5 L-801.4 -423.6 L-799.5 -423.8 L-797.6 -423.9 L-795.7 -424.1 L-793.8 -424.2 L-791.9 -424.4 L-790.1 -424.5 L-788.2 -424.7 L-786.3 -424.8 L-784.4 -425 L-782.5 -425.1 L-780.6 -425.3 L-778.7 -425.4 Z " />
<path stroke="rgb(0,0,0)" stroke-opacity="0.148" fill="rgb(255,255,255)" fill-opacity="1" d="M-175.2 100.3 L-175.3 102.2 L-175.6 104.2 L-176 106.1 L-176.6 108 L-177.3 109.8 L-178.1 111.6 L-179.1 113.3 L-180.3 114.9 L-181.5 116.4 L-182.9 117.9 L-184.3 119.2 L-185.9 120.3 L-187.6 121.4 L-189.3 122.3 L-191.1 123.1 L-193 123.7 L-194.9 124.2 L-196.8 124.5 L-198.8 124.7 L-200.8 124.7 L-202.7 124.6 L-204.7 124.3 L-206.6 123.9 L-208.5 123.3 L-210.3 122.5 L-212 121.6 L-213.7 120.6 L-215.3 119.4 L-216.8 118.2 L-218.2 116.8 L-219.5 115.3 L-220.6 113.7 L-221.6 112 L-222.5 110.2 L-223.3 108.4 L-223.9 106.5 L-224.3 104.6 L-224.6 102.7 L-224.7 100.7 L-224.7 98.74 L-224.5 96.78 L-224.2 94.84 L-223.7 92.94 L-223.1 91.07 L-222.3 89.27 L-221.4 87.53 L-220.3 85.87 L-219.1 84.3 L-217.8 82.83 L-216.4 81.47 L-214.9 80.22 L-213.3 79.1 L-211.6 78.11 L-209.8 77.26 L-207.9 76.56 L-206.1 76 L-204.1 75.59 L-202.2 75.34 L-200.2 75.25 L-198.3 75.31 L-196.3 75.52 L-194.4 75.9 L-192.5 76.42 L-190.6 77.09 L-188.8 77.91 L-187.1 78.87 L-185.5 79.96 L-183.9 81.18 L-182.5 82.51 L-181.1 83.96 L-179.9 85.51 L-178.8 87.15 L-177.9 88.87 L-177.1 90.66 L-176.4 92.51 L-175.9 94.41 L-175.5 96.34 L-175.3 98.3 L-175.2 100.3 Z " />
<path stroke="rgb(0,0,0)" stroke-opacity="1" fill="rgb(255,255,255)" fill-opacity="1" d="M-575.7 -424.3 L-575.7 -422.4 L-575.7 -420.4 L-575.7 -418.4 L-575.7 -416.5 L-575.8 -414.5 L-575.8 -412.5 L-575.8 -410.6 L-575.8 -408.6 L-575.8 -406.6 L-575.9 -404.7 L-575.9 -402.7 L-575.9 -400.7 L-575.9 -398.8 L-575.9 -396.8 L-575.9 -394.8 L-576 -392.9 L-576 -390.9 L-576 -388.9 L-576 -387 L-576 -385 L-576.1 -383.1 L-576.1 -381.1 L-576.1 -379.1 L-576.1 -377.2 L-576.1 -375.2 L-578.1 -375.2 L-580.1 -375.2 L-582 -375.2 L-584 -375.3 L-586 -375.3 L-587.9 -375.3 L-589.9 -375.3 L-591.9 -375.3 L-593.8 -375.3 L-595.8 -375.4 L-597.8 -375.4 L-599.7 -375.4 L-601.7 -375.4 L-603.7 -375.4 L-605.6 -375.5 L-607.6 -375.5 L-609.6 -375.5 L-611.5 -375.5 L-613.5 -375.5 L-615.5 -375.6 L-617.4 -375.6 L-619.4 -375.6 L-621.4 -375.6 L-623.3 -375.6 L-625.3 -375.6 L-625.3 -377.6 L-625.3 -379.6 L-625.2 -381.5 L-625.2 -383.5 L-625.2 -385.5 L-625.2 -387.4 L-625.2 -389.4 L-625.1 -391.4 L-625.1 -393.3 L-625.1 -395.3 L-625.1 -397.3 L-625.1 -399.2 L-625.1 -401.2 L-625 -403.2 L-625 -405.1 L-625 -407.1 L-625 -409.1 L-625 -411 L-624.9 -413 L-624.9 -415 L-624.9 -416.9 L-624.9 -418.9 L-624.9 -420.9 L-624.9 -422.8 L-624.8 -424.8 L-622.9 -424.8 L-620.9 -424.8 L-618.9 -424.8 L-617 -424.7 L-615 -424.7 L-613 -424.7 L-611.1 -424.7 L-609.1 -424.7 L-607.1 -424.6 L-605.2 -424.6 L-603.2 -424.6 L-601.2 -424.6 L-599.3 -424.6 L-597.3 -424.5 L-595.3 -424.5 L-593.4 -424.5 L-591.4 -424.5 L-589.4 -424.5 L-587.5 -424.5 L-585.5 -424.4 L-583.5 -424.4 L-581.6 -424.4 L-579.6 -424.4 L-577.6 -424.4 L-575.7 -424.3 Z " />
<path stroke="rgb(0,0,0)" stroke-opacity="0.148" fill="rgb(255,255,255)" fill-opacity="1" d="M24.75 100.3 L24.65 102.2 L24.4 104.2 L23.99 106.1 L23.43 108 L22.72 109.8 L21.86 111.6 L20.87 113.3 L19.75 114.9 L18.5 116.4 L17.14 117.9 L15.66 119.2 L14.09 120.3 L12.43 121.4 L10.69 122.3 L8.881 123.1 L7.018 123.7 L5.11 124.2 L3.169 124.5 L1.209 124.7 L-0.7591 124.7 L-2.722 124.6 L-4.668 124.3 L-6.584 123.9 L-8.459 123.3 L-10.28 122.5 L-12.04 121.6 L-13.72 120.6 L-15.31 119.4 L-16.81 118.2 L-18.2 116.8 L-19.47 115.3 L-20.62 113.7 L-21.65 112 L-22.53 110.2 L-23.27 108.4 L-23.87 106.5 L-24.31 104.6 L-24.6 102.7 L-24.74 100.7 L-24.72 98.74 L-24.54 96.78 L-24.21 94.84 L-23.72 92.94 L-23.08 91.07 L-22.3 89.27 L-21.38 87.53 L-20.32 85.87 L-19.13 84.3 L-17.83 82.83 L-16.41 81.47 L-14.88 80.22 L-13.26 79.1 L-11.56 78.11 L-9.786 77.26 L-7.949 76.56 L-6.062 76 L-4.136 75.59 L-2.185 75.34 L-0.2188 75.25 L1.748 75.31 L3.704 75.52 L5.637 75.9 L7.534 76.42 L9.383 77.09 L11.17 77.91 L12.89 78.87 L14.53 79.96 L16.08 81.18 L17.52 82.51 L18.86 83.96 L20.07 85.51 L21.16 87.15 L22.11 88.87 L22.93 90.66 L23.6 92.51 L24.12 94.41 L24.48 96.34 L24.7 98.3 L24.75 100.3 Z " />
<path stroke="rgb(0,0,0)" stroke-opacity="1" fill="rgb(255,255,255)" fill-opacity="1" d="M-375.6 -424.3 L-375.6 -422.4 L-375.7 -420.4 L-375.7 -418.4 L-375.7 -416.5 L-375.7 -414.5 L-375.7 -412.5 L-375.8 -410.6 L-375.8 -408.6 L-375.8 -406.6 L-375.8 -404.7 L-375.9 -402.7 L-375.9 -400.7 L-375.9 -398.7 L-375.9 -396.8 L-375.9 -394.8 L-376 -392.8 L-376 -390.9 L-376 -388.9 L-376 -386.9 L-376 -385 L-376.1 -383 L-376.1 -381 L-376.1 -379.1 L-376.1 -377.1 L-376.2 -375.1 L-378.1 -375.2 L-380.1 -375.2 L-382.1 -375.2 L-384 -375.2 L-386 -375.2 L-388 -375.3 L-389.9 -375.3 L-391.9 -375.3 L-393.9 -375.3 L-395.8 -375.3 L-397.8 -375.4 L-399.8 -375.4 L-401.7 -375.4 L-403.7 -375.4 L-405.7 -375.5 L-407.6 -375.5 L-409.6 -375.5 L-411.6 -375.5 L-413.5 -375.5 L-415.5 -375.6 L-417.5 -375.6 L-419.4 -375.6 L-421.4 -375.6 L-423.4 -375.6 L-425.3 -375.7 L-425.3 -377.6 L-425.3 -379.6 L-425.3 -381.6 L-425.3 -383.5 L-425.2 -385.5 L-425.2 -387.5 L-425.2 -389.4 L-425.2 -391.4 L-425.2 -393.4 L-425.1 -395.3 L-425.1 -397.3 L-425.1 -399.3 L-425.1 -401.2 L-425 -403.2 L-425 -405.2 L-425 -407.1 L-425 -409.1 L-425 -411.1 L-424.9 -413.1 L-424.9 -415 L-424.9 -417 L-424.9 -419 L-424.9 -420.9 L-424.8 -422.9 L-424.8 -424.9 L-422.8 -424.8 L-420.9 -424.8 L-418.9 -424.8 L-416.9 -424.8 L-415 -424.8 L-413 -424.7 L-411 -424.7 L-409.1 -424.7 L-407.1 -424.7 L-405.1 -424.6 L-403.2 -424.6 L-401.2 -424.6 L-399.2 -424.6 L-397.3 -424.6 L-395.3 -424.5 L-393.3 -424.5 L-391.4 -424.5 L-389.4 -424.5 L-387.4 -424.5 L-385.5 -424.4 L-383.5 -424.4 L-381.5 -424.4 L-379.6 -424.4 L-377.6 -424.3 L-375.6 -424.3 Z " />
<path stroke="rgb(0,0,0)" stroke-opacity="0.148" fill="rgb(255,255,255)" fill-opacity="1" d="M224.8 100.3 L224.7 102.2 L224.4 104.2 L224 106.1 L223.4 108 L222.7 109.8 L221.9 111.6 L220.9 113.3 L219.7 114.9 L218.5 116.4 L217.1 117.9 L215.7 119.2 L214.1 120.3 L212.4 121.4 L210.7 122.3 L208.9 123.1 L207 123.7 L205.1 124.2 L203.2 124.5 L201.2 124.7 L199.2 124.7 L197.3 124.6 L195.3 124.3 L193.4 123.9 L191.5 123.3 L189.7 122.5 L188 121.6 L186.3 120.6 L184.7 119.4 L183.2 118.2 L181.8 116.8 L180.5 115.3 L179.4 113.7 L178.4 112 L177.5 110.2 L176.7 108.4 L176.1 106.5 L175.7 104.6 L175.4 102.7 L175.3 100.7 L175.3 98.74 L175.5 96.78 L175.8 94.84 L176.3 92.94 L176.9 91.07 L177.7 89.27 L178.6 87.53 L179.7 85.87 L180.9 84.3 L182.2 82.83 L183.6 81.47 L185.1 80.22 L186.7 79.1 L188.4 78.11 L190.2 77.26 L192.1 76.56 L193.9 76 L195.9 75.59 L197.8 75.34 L199.8 75.25 L201.7 75.31 L203.7 75.52 L205.6 75.9 L207.5 76.42 L209.4 77.09 L211.2 77.91 L212.9 78.87 L214.5 79.96 L216.1 81.18 L217.5 82.51 L218.9 83.96 L220.1 85.51 L221.2 87.15 L222.1 88.87 L222.9 90.66 L223.6 92.51 L224.1 94.41 L224.5 96.34 L224.7 98.3 L224.8 100.3 Z " />
<path stroke="rgb(0,0,0)" stroke-opacity="1" fill="rgb(255,255,255)" fill-opacity="1" d="M-175.6 -424.3 L-175.6 -422.4 L-175.7 -420.4 L-175.7 -418.4 L-175.7 -416.5 L-175.7 -414.5 L-175.7 -412.5 L-175.8 -410.6 L-175.8 -408.6 L-175.8 -406.6 L-175.8 -404.7 L-175.9 -402.7 L-175.9 -400.7 L-175.9 -398.7 L-175.9 -396.8 L-175.9 -394.8 L-176 -392.8 L-176 -390.9 L-176 -388.9 L-176 -386.9 L-176 -385 L-176.1 -383 L-176.1 -381 L-176.1 -379.1 L-176.1 -377.1 L-176.2 -375.1 L-178.1 -375.2 L-180.1 -375.2 L-182.1 -375.2 L-184 -375.2 L-186 -375.2 L-188 -375.3 L-189.9 -375.3 L-191.9 -375.3 L-193.9 -375.3 L-195.8 -375.3 L-197.8 -375.4 L-199.8 -375.4 L-201.7 -375.4 L-203.7 -375.4 L-205.7 -375.5 L-207.6 -375.5 L-209.6 -375.5 L-211.6 -375.5 L-213.5 -375.5 L-215.5 -375.6 L-217.5 -375.6 L-219.4 -375.6 L-221.4 -375.6 L-223.4 -375.6 L-225.3 -375.7 L-225.3 -377.6 L-225.3 -379.6 L-225.3 -381.6 L-225.3 -383.5 L-225.2 -385.5 L-225.2 -387.5 L-225.2 -389.4 L-225.2 -391.4 L-225.2 -393.4 L-225.1 -395.3 L-225.1 -397.3 L-225.1 -399.3 L-225.1 -401.2 L-225 -403.2 L-225 -405.2 L-225 -407.1 L-225 -409.1 L-225 -411.1 L-224.9 -413.1 L-224.9 -415 L-224.9 -417 L-224.9 -419 L-224.9 -420.9 L-224.8 -422.9 L-224.8 -424.9 L-222.8 -424.8 L-220.9 -424.8 L-218.9 -424.8 L-216.9 -424.8 L-215 -424.8 L-213 -424.7 L-211 -424.7 L-209.1 -424.7 L-207.1 -424.7 L-205.1 -424.6 L-203.2 -424.6 L-201.2 -424.6 L-199.2 -424.6 L-197.3 -424.6 L-195.3 -424.5 L-193.3 -424.5 L-191.4 -424.5 L-189.4 -424.5 L-187.4 -424.5 L-185.5 -424.4 L-183.5 -424.4 L-181.5 -424.4 L-179.6 -424.4 L-177.6 -424.3 L-175.6 -424.3 Z " />
<path stroke="rgb(0,0,0)" stroke-opacity="0.148" fill="rgb(255,255,255)" fill-opacity="1" d="M-275.2 200.3 L-275.3 202.2 L-275.6 204.2 L-276 206.1 L-276.6 208 L-277.3 209.8 L-278.1 211.6 L-279.1 213.3 L-280.3 214.9 L-281.5 216.4 L-282.9 217.9 L-284.3 219.2 L-285.9 220.3 L-287.6 221.4 L-289.3 222.3 L-291.1 223.1 L-293 223.7 L-294.9 224.2 L-296.8 224.5 L-298.8 224.7 L-300.8 224.7 L-302.7 224.6 L-304.7 224.3 L-306.6 223.9 L-308.5 223.3 L-310.3 222.5 L-312 221.6 L-313.7 220.6 L-315.3 219.4 L-316.8 218.2 L-318.2 216.8 L-319.5 215.3 L-320.6 213.7 L-321.6 212 L-322.5 210.2 L-323.3 208.4 L-323.9 206.5 L-324.3 204.6 L-324.6 202.7 L-324.7 200.7 L-324.7 198.7 L-324.5 196.8 L-324.2 194.8 L-323.7 192.9 L-323.1 191.1 L-322.3 189.3 L-321.4 187.5 L-320.3 185.9 L-319.1 184.3 L-317.8 182.8 L-316.4 181.5 L-314.9 180.2 L-313.3 179.1 L-311.6 178.1 L-309.8 177.3 L-307.9 176.6 L-306.1 176 L-304.1 175.6 L-302.2 175.3 L-300.2 175.2 L-298.3 175.3 L-296.3 175.5 L-294.4 175.9 L-292.5 176.4 L-290.6 177.1 L-288.8 177.9 L-287.1 178.9 L-285.5 180 L-283.9 181.2 L-282.5 182.5 L-281.1 184 L-279.9 185.5 L-278.8 187.1 L-277.9 188.9 L-277.1 190.7 L-276.4 192.5 L-275.9 194.4 L-275.5 196.3 L-275.3 198.3 L-275.2 200.3 Z " />
<path stroke="rgb(0,0,0)" stroke-opacity="1" fill="rgb(255,255,255)" fill-opacity="1" d="M-675.7 -324.3 L-675.7 -322.4 L-675.7 -320.4 L-675.7 -318.4 L-675.7 -316.5 L-675.8 -314.5 L-675.8 -312.5 L-675.8 -310.6 L-675.8 -308.6 L-675.8 -306.6 L-675.9 -304.7 L-675.9 -302.7 L-675.9 -300.7 L-675.9 -298.8 L-675.9 -296.8 L-675.9 -294.8 L-676 -292.9 L-676 -290.9 L-676 -288.9 L-676 -287 L-676 -285 L-676.1 -283.1 L-676.1 -281.1 L-676.1 -279.1 L-676.1 -277.2 L-676.1 -275.2 L-678.1 -275.2 L-680.1 -275.2 L-682 -275.2 L-684 -275.3 L-686 -275.3 L-687.9 -275.3 L-689.9 -275.3 L-691.9 -275.3 L-693.8 -275.3 L-695.8 -275.4 L-697.8 -275.4 L-699.7 -275.4 L-701.7 -275.4 L-703.7 -275.4 L-705.6 -275.5 L-707.6 -275.5 L-709.6 -275.5 L-711.5 -275.5 L-713.5 -275.5 L-715.5 -275.6 L-717.4 -275.6 L-719.4 -275.6 L-721.4 -275.6 L-723.3 -275.6 L-725.3 -275.6 L-725.3 -277.6 L-725.3 -279.6 L-725.2 -281.5 L-725.2 -283.5 L-725.2 -285.5 L-725.2 -287.4 L-725.2 -289.4 L-725.1 -291.4 L-725.1 -293.3 L-725.1 -295.3 L-725.1 -297.3 L-725.1 -299.2 L-725.1 -301.2 L-725 -303.2 L-725 -305.1 L-725 -307.1 L-725 -309.1 L-725 -311 L-724.9 -313 L-724.9 -315 L-724.9 -316.9 L-724.9 -318.9 L-724.9 -320.9 L-724.9 -322.8 L-724.8 -324.8 L-722.9 -324.8 L-720.9 -324.8 L-718.9 -324.8 L-717 -324.7 L-715 -324.7 L-713 -324.7 L-711.1 -324.7 L-709.1 -324.7 L-707.1 -324.6 L-705.2 -324.6 L-703.2 -324.6 L-701.2 -324.6 L-699.3 -324.6 L-697.3 -324.5 L-695.3 -324.5 L-693.4 -324.5 L-691.4 -324.5 L-689.4 -324.5 L-687.5 -324.5 L-685.5 -324.4 L-683.5 -324.4 L-681.6 -324.4 L-679.6 -324.4 L-677.6 -324.4 L-675.7 -324.3 Z " />
<path stroke="rgb(0,0,0)" stroke-opacity="0.148" fill="rgb(255,255,255)" fill-opacity="1" d="M-75.25 200.3 L-75.35 202.2 L-75.6 204.2 L-76.01 206.1 L-76.57 208 L-77.28 209.8 L-78.14 211.6 L-79.13 213.3 L-80.25 214.9 L-81.5 216.4 L-82.86 217.9 L-84.34 219.2 L-85.91 220.3 L-87.57 221.4 L-89.31 222.3 L-91.12 223.1 L-92.98 223.7 L-94.89 224.2 L-96.83 224.5 L-98.79 224.7 L-100.8 224.7 L-102.7 224.6 L-104.7 224.3 L-106.6 223.9 L-108.5 223.3 L-110.3 222.5 L-112 221.6 L-113.7 220.6 L-115.3 219.4 L-116.8 218.2 L-118.2 216.8 L-119.5 215.3 L-120.6 213.7 L-121.6 212 L-122.5 210.2 L-123.3 208.4 L-123.9 206.5 L-124.3 204.6 L-124.6 202.7 L-124.7 200.7 L-124.7 198.7 L-124.5 196.8 L-124.2 194.8 L-123.7 192.9 L-123.1 191.1 L-122.3 189.3 L-121.4 187.5 L-120.3 185.9 L-119.1 184.3 L-117.8 182.8 L-116.4 181.5 L-114.9 180.2 L-113.3 179.1 L-111.6 178.1 L-109.8 177.3 L-107.9 176.6 L-106.1 176 L-104.1 175.6 L-102.2 175.3 L-100.2 175.2 L-98.25 175.3 L-96.3 175.5 L-94.36 175.9 L-92.47 176.4 L-90.62 177.1 L-88.83 177.9 L-87.11 178.9 L-85.47 180 L-83.92 181.2 L-82.48 182.5 L-81.14 184 L-79.93 185.5 L-78.84 187.1 L-77.89 188.9 L-77.07 190.7 L-76.4 192.5 L-75.88 194.4 L-75.52 196.3 L-75.3 198.3 L-75.25 200.3 Z " />
<path stroke="rgb(0,0,0)" stroke-opacity="1" fill="rgb(255,255,255)" fill-opacity="1" d="M-475.6 -324.3 L-475.6 -322.4 L-475.7 -320.4 L-475.7 -318.4 L-475.7 -316.5 L-475.7 -314.5 L-475.7 -312.5 L-475.8 -310.6 L-475.8 -308.6 L-475.8 -306.6 L-475.8 -304.7 L-475.9 -302.7 L-475.9 -300.7 L-475.9 -298.7 L-475.9 -296.8 L-475.9 -294.8 L-476 -292.8 L-476 -290.9 L-476 -288.9 L-476 -286.9 L-476 -285 L-476.1 -283 L-476.1 -281 L-476.1 -279.1 L-476.1 -277.1 L-476.2 -275.1 L-478.1 -275.2 L-480.1 -275.2 L-482.1 -275.2 L-484 -275.2 L-486 -275.2 L-488 -275.3 L-489.9 -275.3 L-491.9 -275.3 L-493.9 -275.3 L-495.8 -275.3 L-497.8 -275.4 L-499.8 -275.4 L-501.7 -275.4 L-503.7 -275.4 L-505.7 -275.5 L-507.6 -275.5 L-509.6 -275.5 L-511.6 -275.5 L-513.5 -275.5 L-515.5 -275.6 L-517.5 -275.6 L-519.4 -275.6 L-521.4 -275.6 L-523.4 -275.6 L-525.3 -275.7 L-525.3 -277.6 L-525.3 -279.6 L-525.3 -281.6 L-525.3 -283.5 L-525.2 -285.5 L-525.2 -287.5 L-525.2 -289.4 L-525.2 -291.4 L-525.2 -293.4 L-525.1 -295.3 L-525.1 -297.3 L-525.1 -299.3 L-525.1 -301.2 L-525 -303.2 L-525 -305.2 L-525 -307.1 L-525 -309.1 L-525 -311.1 L-524.9 -313.1 L-524.9 -315 L-524.9 -317 L-524.9 -319 L-524.9 -320.9 L-524.8 -322.9 L-524.8 -324.9 L-522.8 -324.8 L-520.9 -324.8 L-518.9 -324.8 L-516.9 -324.8 L-515 -324.8 L-513 -324.7 L-511 -324.7 L-509.1 -324.7 L-507.1 -324.7 L-505.1 -324.6 L-503.2 -324.6 L-501.2 -324.6 L-499.2 -324.6 L-497.3 -324.6 L-495.3 -324.5 L-493.3 -324.5 L-491.4 -324.5 L-489.4 -324.5 L-487.4 -324.5 L-485.5 -324.4 L-483.5 -324.4 L-481.5 -324.4 L-479.6 -324.4 L-477.6 -324.3 L-475.6 -324.3 Z " />
<path stroke="rgb(0,0,0)" stroke-opacity="0.148" fill="rgb(255,255,255)" fill-opacity="1" d="M124.8 200.3 L124.7 202.2 L124.4 204.2 L124 206.1 L123.4 208 L122.7 209.8 L121.9 211.6 L120.9 213.3 L119.7 214.9 L118.5 216.4 L117.1 217.9 L115.7 219.2 L114.1 220.3 L112.4 221.4 L110.7 222.3 L108.9 223.1 L107 223.7 L105.1 224.2 L103.2 224.5 L101.2 224.7 L99.24 224.7 L97.28 224.6 L95.33 224.3 L93.42 223.9 L91.54 223.3 L89.72 222.5 L87.96 221.6 L86.28 220.6 L84.69 219.4 L83.19 218.2 L81.8 216.8 L80.53 215.3 L79.38 213.7 L78.35 212 L77.47 210.2 L76.73 208.4 L76.13 206.5 L75.69 204.6 L75.4 202.7 L75.26 200.7 L75.28 198.7 L75.46 196.8 L75.79 194.8 L76.28 192.9 L76.92 191.1 L77.7 189.3 L78.62 187.5 L79.68 185.9 L80.87 184.3 L82.17 182.8 L83.59 181.5 L85.12 180.2 L86.74 179.1 L88.44 178.1 L90.21 177.3 L92.05 176.6 L93.94 176 L95.86 175.6 L97.82 175.3 L99.78 175.2 L101.7 175.3 L103.7 175.5 L105.6 175.9 L107.5 176.4 L109.4 177.1 L111.2 177.9 L112.9 178.9 L114.5 180 L116.1 181.2 L117.5 182.5 L118.9 184 L120.1 185.5 L121.2 187.1 L122.1 188.9 L122.9 190.7 L123.6 192.5 L124.1 194.4 L124.5 196.3 L124.7 198.3 L124.8 200.3 Z " />
<path stroke="rgb(0,0,0)" stroke-opacity="1" fill="rgb(255,255,255)" fill-opacity="1" d="M-275.6 -324.3 L-275.6 -322.4 L-275.7 -320.4 L-275.7 -318.4 L-275.7 -316.5 L-275.7 -314.5 L-275.7 -312.5 L-275.8 -310.6 L-275.8 -308.6 L-275.8 -306.6 L-275.8 -304.7 L-275.9 -302.7 L-275.9 -300.7 L-275.9 -298.7 L-275.9 -296.8 L-275.9 -294.8 L-276 -292.8 L-276 -290.9 L-276 -288.9 L-276 -286.9 L-276 -285 L-276.1 -283 L-276.1 -281 L-276.1 -279.1 L-276.1 -277.1 L-276.2 -275.1 L-278.1 -275.2 L-280.1 -275.2 L-282.1 -275.2 L-284 -275.2 L-286 -275.2 L-288 -275.3 L-289.9 -275.3 L-291.9 -275.3 L-293.9 -275.3 L-295.8 -275.3 L-297.8 -275.4 L-299.8 -275.4 L-301.7 -275.4 L-303.7 -275.4 L-305.7 -275.5 L-307.6 -275.5 L-309.6 -275.5 L-311.6 -275.5 L-313.5 -275.5 L-315.5 -275.6 L-317.5 -275.6 L-319.4 -275.6 L-321.4 -275.6 L-323.4 -275.6 L-325.3 -275.7 L-325.3 -277.6 L-325.3 -279.6 L-325.3 -281.6 L-325.3 -283.5 L-325.2 -285.5 L-325.2 -287.5 L-325.2 -289.4 L-325.2 -291.4 L-325.2 -293.4 L-325.1 -295.3 L-325.1 -297.3 L-325.1 -299.3 L-325.1 -301.2 L-325 -303.2 L-325 -305.2 L-325 -307.1 L-325 -309.1 L-325 -311.1 L-324.9 -313.1 L-324.9 -315 L-324.9 -317 L-324.9 -319 L-324.9 -320.9 L-324.8 -322.9 L-324.8 -324.9 L-322.8 -324.8 L-320.9 -324.8 L-318.9 -324.8 L-316.9 -324.8 L-315 -324.8 L-313 -324.7 L-311 -324.7 L-309.1 -324.7 L-307.1 -324.7 L-305.1 -324.6 L-303.2 -324.6 L-301.2 -324.6 L-299.2 -324.6 L-297.3 -324.6 L-295.3 -324.5 L-293.3 -324.5 L-291.4 -324.5 L-289.4 -324.5 L-287.4 -324.5 L-285.5 -324.4 L-283.5 -324.4 L-281.5 -324.4 L-279.6 -324.4 L-277.6 -324.3 L-275.6 -324.3 Z " />
<path stroke="rgb(0,0,0)" stroke-opacity="0.148" fill="rgb(255,255,255)" fill-opacity="1" d="M324.8 200.3 L324.7 202.2 L324.4 204.2 L324 206.1 L323.4 208 L322.7 209.8 L321.9 211.6 L320.9 213.3 L319.7 214.9 L318.5 216.4 L317.1 217.9 L315.7 219.2 L314.1 220.3 L312.4 221.4 L310.7 222.3 L308.9 223.1 L307 223.7 L305.1 224.2 L303.2 224.5 L301.2 224.7 L299.2 224.7 L297.3 224.6 L295.3 224.3 L293.4 223.9 L291.5 223.3 L289.7 222.5 L288 221.6 L286.3 220.6 L284.7 219.4 L283.2 218.2 L281.8 216.8 L280.5 215.3 L279.4 213.7 L278.4 212 L277.5 210.2 L276.7 208.4 L276.1 206.5 L275.7 204.6 L275.4 202.7 L275.3 200.7 L275.3 198.7 L275.5 196.8 L275.8 194.8 L276.3 192.9 L276.9 191.1 L277.7 189.3 L278.6 187.5 L279.7 185.9 L280.9 184.3 L282.2 182.8 L283.6 181.5 L285.1 180.2 L286.7 179.1 L288.4 178.1 L290.2 177.3 L292.1 176.6 L293.9 176 L295.9 175.6 L297.8 175.3 L299.8 175.2 L301.7 175.3 L303.7 175.5 L305.6 175.9 L307.5 176.4 L309.4 177.1 L311.2 177.9 L312.9 178.9 L314.5 180 L316.1 181.2 L317.5 182.5 L318.9 184 L320.1 185.5 L321.2 187.1 L322.1 188.9 L322.9 190.7 L323.6 192.5 L324.1 194.4 L324.5 196.3 L324.7 198.3 L324.8 200.3 Z " />
<path stroke="rgb(0,0,0)" stroke-opacity="1" fill="rgb(255,255,255)" fill-opacity="1" d="M-775.7 -224.3 L-775.7 -222.4 L-775.7 -220.4 L-775.7 -218.4 L-775.7 -216.5 L-775.8 -214.5 L-775.8 -212.5 L-775.8 -210.6 L-775.8 -208.6 L-775.8 -206.6 L-775.9 -204.7 L-775.9 -202.7 L-775.9 -200.7 L-775.9 -198.8 L-775.9 -196.8 L-775.9 -194.8 L-776 -192.9 L-776 -190.9 L-776 -188.9 L-776 -187 L-776 -185 L-776.1 -183.1 L-776.1 -181.1 L-776.1 -179.1 L-776.1 -177.2 L-776.1 -175.2 L-778.1 -175.2 L-780.1 -175.2 L-782 -175.2 L-784 -175.3 L-786 -175.3 L-787.9 -175.3 L-789.9 -175.3 L-791.9 -175.3 L-793.8 -175.3 L-795.8 -175.4 L-797.8 -175.4 L-799.7 -175.4 L-801.7 -175.4 L-803.7 -175.4 L-805.6 -175.5 L-807.6 -175.5 L-809.6 -175.5 L-811.5 -175.5 L-813.5 -175.5 L-815.5 -175.6 L-817.4 -175.6 L-819.4 -175.6 L-821.4 -175.6 L-823.3 -175.6 L-825.3 -175.6 L-825.3 -177.6 L-825.3 -179.6 L-825.2 -181.5 L-825.2 -183.5 L-825.2 -185.5 L-825.2 -187.4 L-825.2 -189.4 L-825.1 -191.4 L-825.1 -193.3 L-825.1 -195.3 L-825.1 -197.3 L-825.1 -199.2 L-825.1 -201.2 L-825 -203.2 L-825 -205.1 L-825 -207.1 L-825 -209.1 L-825 -211 L-824.9 -213 L-824.9 -215 L-824.9 -216.9 L-824.9 -218.9 L-824.9 -220.9 L-824.9 -222.8 L-824.8 -224.8 L-822.9 -224.8 L-820.9 -224.8 L-818.9 -224.8 L-817 -224.7 L-815 -224.7 L-813 -224.7 L-811.1 -224.7 L-809.1 -224.7 L-807.1 -224.6 L-805.2 -224.6 L-803.2 -224.6 L-801.2 -224.6 L-799.3 -224.6 L-797.3 -224.5 L-795.3 -224.5 L-793.4 -224.5 L-791.4 -224.5 L-789.4 -224.5 L-787.5 -224.5 L-785.5 -224.4 L-783.5 -224.4 L-781.6 -224.4 L-779.6 -224.4 L-777.6 -224.4 L-775.7 -224.3 Z " />
<path stroke="rgb(0,0,0)" stroke-opacity="0.148" fill="rgb(255,255,255)" fill-opacity="1" d="M-175.2 300.3 L-175.3 302.2 L-175.6 304.2 L-176 306.1 L-176.6 308 L-177.3 309.8 L-178.1 311.6 L-179.1 313.3 L-180.3 314.9 L-181.5 316.4 L-182.9 317.9 L-184.3 319.2 L-185.9 320.3 L-187.6 321.4 L-189.3 322.3 L-191.1 323.1 L-193 323.7 L-194.9 324.2 L-196.8 324.5 L-198.8 324.7 L-200.8 324.7 L-202.7 324.6 L-204.7 324.3 L-206.6 323.9 L-208.5 323.3 L-210.3 322.5 L-212 321.6 L-213.7 320.6 L-215.3 319.4 L-216.8 318.2 L-218.2 316.8 L-219.5 315.3 L-220.6 313.7 L-221.6 312 L-222.5 310.2 L-223.3 308.4 L-223.9 306.5 L-224.3 304.6 L-224.6 302.7 L-224.7 300.7 L-224.7 298.7 L-224.5 296.8 L-224.2 294.8 L-223.7 292.9 L-223.1 291.1 L-222.3 289.3 L-221.4 287.5 L-220.3 285.9 L-219.1 284.3 L-217.8 282.8 L-216.4 281.5 L-214.9 280.2 L-213.3 279.1 L-211.6 278.1 L-209.8 277.3 L-207.9 276.6 L-206.1 276 L-204.1 275.6 L-202.2 275.3 L-200.2 275.2 L-198.3 275.3 L-196.3 275.5 L-194.4 275.9 L-192.5 276.4 L-190.6 277.1 L-188.8 277.9 L-187.1 278.9 L-185.5 280 L-183.9 281.2 L-182.5 282.5 L-181.1 284 L-179.9 285.5 L-178.8 287.1 L-177.9 288.9 L-177.1 290.7 L-176.4 292.5 L-175.9 294.4 L-175.5 296.3 L-175.3 298.3 L-175.2 300.3 Z " />
<path stroke="rgb(0,0,0)" stroke-opacity="1" fill="rgb(255,255,255)" fill-opacity="1" d="M-575.6 -224.3 L-575.6 -222.4 L-575.7 -220.4 L-575.7 -218.4 L-575.7 -216.5 L-575.7 -214.5 L-575.7 -212.5 L-575.8 -210.6 L-575.8 -208.6 L-575.8 -206.6 L-575.8 -204.7 L-575.9 -202.7 L-575.9 -200.7 L-575.9 -198.7 L-575.9 -196.8 L-575.9 -194.8 L-576 -192.8 L-576 -190.9 L-576 -188.9 L-576 -186.9 L-576 -185 L-576.1 -183 L-576.1 -181 L-576.1 -179.1 L-576.1 -177.1 L-576.2 -175.1 L-578.1 -175.2 L-580.1 -175.2 L-582.1 -175.2 L-584 -175.2 L-586 -175.2 L-588 -175.3 L-589.9 -175.3 L-591.9 -175.3 L-593.9 -175.3 L-595.8 -175.3 L-597.8 -175.4 L-599.8 -175.4 L-601.7 -175.4 L-603.7 -175.4 L-605.7 -175.5 L-607.6 -175.5 L-609.6 -175.5 L-611.6 -175.5 L-613.5 -175.5 L-615.5 -175.6 L-617.5 -175.6 L-619.4 -175.6 L-621.4 -175.6 L-623.4 -175.6 L-625.3 -175.7 L-625.3 -177.6 L-625.3 -179.6 L-625.3 -181.6 L-625.3 -183.5 L-625.2 -185.5 L-625.2 -187.5 L-625.2 -189.4 L-625.2 -191.4 L-625.2 -193.4 L-625.1 -195.3 L-625.1 -197.3 L-625.1 -199.3 L-625.1 -201.2 L-625 -203.2 L-625 -205.2 L-625 -207.1 L-625 -209.1 L-625 -211.1 L-624.9 -213.1 L-624.9 -215 L-624.9 -217 L-624.9 -219 L-624.9 -220.9 L-624.8 -222.9 L-624.8 -224.9 L-622.8 -224.8 L-620.9 -224.8 L-618.9 -224.8 L-616.9 -224.8 L-615 -224.8 L-613 -224.7 L-611 -224.7 L-609.1 -224.7 L-607.1 -224.7 L-605.1 -224.6 L-603.2 -224.6 L-601.2 -224.6 L-599.2 -224.6 L-597.3 -224.6 L-595.3 -224.5 L-593.3 -224.5 L-591.4 -224.5 L-589.4 -224.5 L-587.4 -224.5 L-585.5 -224.4 L-583.5 -224.4 L-581.5 -224.4 L-579.6 -224.4 L-577.6 -224.3 L-575.6 -224.3 Z " />
<path stroke="rgb(0,0,0)" stroke-opacity="0.148" fill="rgb(255,255,255)" fill-opacity="1" d="M24.75 300.3 L24.65 302.2 L24.4 304.2 L23.99 306.1 L23.43 308 L22.72 309.8 L21.86 311.6 L20.87 313.3 L19.75 314.9 L18.5 316.4 L17.14 317.9 L15.66 319.2 L14.09 320.3 L12.43 321.4 L10.69 322.3 L8.881 323.1 L7.018 323.7 L5.11 324.2 L3.169 324.5 L1.209 324.7 L-0.7591 324.7 L-2.722 324.6 L-4.668 324.3 L-6.584 323.9 L-8.459 323.3 L-10.28 322.5 L-12.04 321.6 L-13.72 320.6 L-15.31 319.4 L-16.81 318.2 L-18.2 316.8 L-19.47 315.3 L-20.62 313.7 L-21.65 312 L-22.53 310.2 L-23.27 308.4 L-23.87 306.5 L-24.31 304.6 L-24.6 302.7 L-24.74 300.7 L-24.72 298.7 L-24.54 296.8 L-24.21 294.8 L-23.72 292.9 L-23.08 291.1 L-22.3 289.3 L-21.38 287.5 L-20.32 285.9 L-19.13 284.3 L-17.83 282.8 L-16.41 281.5 L-14.88 280.2 L-13.26 279.1 L-11.56 278.1 L-9.786 277.3 L-7.949 276.6 L-6.062 276 L-4.136 275.6 L-2.185 275.3 L-0.2188 275.2 L1.748 275.3 L3.704 275.5 L5.637 275.9 L7.534 276.4 L9.383 277.1 L11.17 277.9 L12.89 278.9 L14.53 280 L16.08 281.2 L17.52 282.5 L18.86 284 L20.07 285.5 L21.16 287.1 L22.11 288.9 L22.93 290.7 L23.6 292.5 L24.12 294.4 L24.48 296.3 L24.7 298.3 L24.75 300.3 Z " />
<path stroke="rgb(0,0,0)" stroke-opacity="1" fill="rgb(255,255,255)" fill-opacity="1" d="M-375.6 -224.3 L-375.6 -222.4 L-375.7 -220.4 L-375.7 -218.4 L-375.7 -216.5 L-375.7 -214.5 L-375.7 -212.5 L-375.8 -210.6 L-375.8 -208.6 L-375.8 -206.6 L-375.8 -204.7 L-375.9 -202.7 L-375.9 -200.7 L-375.9 -198.7 L-375.9 -196.8 L-375.9 -194.8 L-376 -192.8 L-376 -190.9 L-376 -188.9 L-376 -186.9 L-376 -185 L-376.1 -183 L-376.1 -181 L-376.1 -179.1 L-376.1 -177.1 L-376.2 -175.1 L-378.1 -175.2 L-380.1 -175.2 L-382.1 -175.2 L-384 -175.2 L-386 -175.2 L-388 -175.3 L-389.9 -175.3 L-391.9 -175.3 L-393.9 -175.3 L-395.8 -175.3 L-397.8 -175.4 L-399.8 -175.4 L-401.7 -175.4 L-403.7 -175.4 L-405.7 -175.5 L-407.6 -175.5 L-409.6 -175.5 L-411.6 -175.5 L-413.5 -175.5 L-415.5 -175.6 L-417.5 -175.6 L-419.4 -175.6 L-421.4 -175.6 L-423.4 -175.6 L-425.3 -175.7 L-425.3 -177.6 L-425.3 -179.6 L-425.3 -181.6 L-425.3 -183.5 L-425.2 -185.5 L-425.2 -187.5 L-425.2 -189.4 L-425.2 -191.4 L-425.2 -193.4 L-425.1 -195.3 L-425.1 -197.3 L-425.1 -199.3 L-425.1 -201.2 L-425 -203.2 L-425 -205.2 L-425 -207.1 L-425 -209.1 L-425 -211.1 L-424.9 -213.1 L-424.9 -215 L-424.9 -217 L-424.9 -219 L-424.9 -220.9 L-424.8 -222.9 L-424.8 -224.9 L-422.8 -224.8 L-420.9 -224.8 L-418.9 -224.8 L-416.9 -224.8 L-415 -224.8 L-413 -224.7 L-411 -224.7 L-409.1 -224.7 L-407.1 -224.7 L-405.1 -224.6 L-403.2 -224.6 L-401.2 -224.6 L-399.2 -224.6 L-397.3 -224.6 L-395.3 -224.5 L-393.3 -224.5 L-391.4 -224.5 L-389.4 -224.5 L-387.4 -224.5 L-385.5 -224.4 L-383.5 -224.4 L-381.5 -224.4 L-379.6 -224.4 L-377.6 -224.3 L-375.6 -224.3 Z " />
<path stroke="rgb(0,0,0)" stroke-opacity="0.148" fill="rgb(255,255,255)" fill-opacity="1" d="M224.8 300.3 L224.7 302.2 L224.4 304.2 L224 306.1 L223.4 308 L222.7 309.8 L221.9 311.6 L220.9 313.3 L219.7 314.9 L218.5 316.4 L217.1 317.9 L215.7 319.2 L214.1 320.3 L212.4 321.4 L210.7 322.3 L208.9 323.1 L207 323.7 L205.1 324.2 L203.2 324.5 L201.2 324.7 L199.2 324.7 L197.3 324.6 L195.3 324.3 L193.4 323.9 L191.5 323.3 L189.7 322.5 L188 321.6 L186.3 320.6 L184.7 319.4 L183.2 318.2 L181.8 316.8 L180.5 315.3 L179.4 313.7 L178.4 312 L177.5 310.2 L176.7 308.4 L176.1 306.5 L175.7 304.6 L175.4 302.7 L175.3 300.7 L175.3 298.7 L175.5 296.8 L175.8 294.8 L176.3 292.9 L176.9 291.1 L177.7 289.3 L178.6 287.5 L179.7 285.9 L180.9 284.3 L182.2 282.8 L183.6 281.5 L185.1 280.2 L186.7 279.1 L188.4 278.1 L190.2 277.3 L192.1 276.6 L193.9 276 L195.9 275.6 L197.8 275.3 L199.8 275.2 L201.7 275.3 L203.7 275.5 L205.6 275.9 L207.5 276.4 L209.4 277.1 L211.2 277.9 L212.9 278.9 L214.5 280 L216.1 281.2 L217.5 282.5 L218.9 284 L220.1 285.5 L221.2 287.1 L222.1 288.9 L222.9 290.7 L223.6 292.5 L224.1 294.4 L224.5 296.3 L224.7 298.3 L224.8 300.3 Z " />
<path stroke="rgb(0,0,0)" stroke-opacity="1" fill="rgb(255,255,255)" fill-opacity="1" d="M-175.6 -224.3 L-175.6 -222.4 L-175.7 -220.4 L-175.7 -218.4 L-175.7 -216.5 L-175.7 -214.5 L-175.7 -212.5 L-175.8 -210.6 L-175.8 -208.6 L-175.8 -206.6 L-175.8 -204.7 L-175.9 -202.7 L-175.9 -200.7 L-175.9 -198.7 L-175.9 -196.8 L-175.9 -194.8 L-176 -192.8 L-176 -190.9 L-176 -188.9 L-176 -186.9 L-176 -185 L-176.1 -183 L-176.1 -181 L-176.1 -179.1 L-176.1 -177.1 L-176.2 -175.1 L-178.1 -175.2 L-180.1 -175.2 L-182.1 -175.2 L-184 -175.2 L-186 -175.2 L-188 -175.3 L-189.9 -175.3 L-191.9 -175.3 L-193.9 -175.3 L-195.8 -175.3 L-197.8 -175.4 L-199.8 -175.4 L-201.7 -175.4 L-203.7 -175.4 L-205.7 -175.5 L-207.6 -175.5 L-209.6 -175.5 L-211.6 -175.5 L-213.5 -175.5 L-215.5 -175.6 L-217.5 -175.6 L-219.4 -175.6 L-221.4 -175.6 L-223.4 -175.6 L-225.3 -175.7 L-225.3 -177.6 L-225.3 -179.6 L-225.3 -181.6 L-225.3 -183.5 L-225.2 -185.5 L-225.2 -187.5 L-225.2 -189.4 L-225.2 -191.4 L-225.2 -193.4 L-225.1 -195.3 L-225.1 -197.3 L-225.1 -199.3 L-225.1 -201.2 L-225 -203.2 L-225 -205.2 L-225 -207.1 L-225 -209.1 L-225 -211.1 L-224.9 -213.1 L-224.9 -215 L-224.9 -217 L-224.9 -219 L-224.9 -220.9 L-224.8 -222.9 L-224.8 -224.9 L-222.8 -224.8 L-220.9 -224.8 L-218.9 -224.8 L-216.9 -224.8 L-215 -224.8 L-213 -224.7 L-211 -224.7 L-209.1 -224.7 L-207.1 -224.7 L-205.1 -224.6 L-203.2 -224.6 L-201.2 -224.6 L-199.2 -224.6 L-197.3 -224.6 L-195.3 -224.5 L-193.3 -224.5 L-191.4 -224.5 L-189.4 -224.5 L-187.4 -224.5 L-185.5 -224.4 L-183.5 -224.4 L-181.5 -224.4 L-179.6 -224.4 L-177.6 -224.3 L-175.6 -224.3 Z " />
</g>
</g>
</svg>
