<!DOCTYPE svg>
<svg xmlns="http://www.w3.org/2000/svg" xmlns:xlink="http://www.w3.org/1999/xlink" width="1000" height="1000">
<g transform="translate(500.000000,500.000000)">
<g transform="scale(3.000000,3.000000)">
<path stroke="rgb(0,0,0)" stroke-opacity="1" fill="rgb(255,255,255)" fill-opacity="1" d="M-609.1 -602.4 L-610.1 -602.7 L-611 -602.9 L-612 -603.2 L-612.9 -603.5 L-613.9 -603.7 L-614.8 -604 L-615.8 -604.3 L-616.7 -604.6 L-617.7 -604.8 L-618.6 -605.1 L-619.6 -605.4 L-620.5 -605.6 L-621.5 -605.9 L-622.4 -606.2 L-623.4 -606.5 L-624.3 -606.7 L-625.3 -607 L-626.2 -607.3 L-627.2 -607.6 L-628.1 -607.8 L-629.1 -608.1 L-630 -608.4 L-631 -608.6 L-631.9 -608.9 L-632.9 -609.2 L-632.6 -610.1 L-632.4 -611.1 L-632.1 -612 L-631.8 -613 L-631.5 -613.9 L-631.3 -614.9 L-631 -615.8 L-630.7 -616.8 L-630.4 -617.8 L-630.2 -618.7 L-629.9 -619.7 L-629.6 -620.6 L-629.4 -621.6 L-629.1 -622.5 L-628.8 -623.5 L-628.5 -624.4 L-628.3 -625.4 L-628 -626.3 L-627.7 -627.3 L-627.4 -628.2 L-627.2 -629.2 L-626.9 -630.1 L-626.6 -631.1 L-626.4 -632 L-626.1 -633 L-625.1 -632.7 L-624.2 -632.4 L-623.2 -632.1 L-622.3 -631.9 L-621.3 -631.6 L-620.4 -631.3 L-619.4 -631.1 L-618.5 -630.8 L-617.5 -630.5 L-616.6 -630.2 L-615.6 -630 L-614.7 -629.7 L-613.7 -629.4 L-612.8 -629.1 L-611.8 -628.9 L-610.9 -628.6 L-609.9 -628.3 L-609 -628.1 L-608 -627.8 L-607.1 -627.5 L-606.1 -627.2 L-605.2 -627 L-604.2 -626.7 L-603.3 -626.4 L-602.3 -626.2 L-602.6 -625.2 L-602.9 -624.2 L-603.1 -623.3 L-603.4 -622.3 L-603.7 -621.4 L-603.9 -620.4 L-604.2 -619.5 L-604.5 -618.5 L-604.8 -617.6 L-605 -616.6 L-605.3 -615.7 L-605.6 -614.7 L-605.9 -613.8 L-606.1 -612.8 L-606.4 -611.9 L-606.7 -610.9 L-606.9 -610 L-607.2 -609 L-607.5 -608.1 L-607.8 -607.1 L-608 -606.2 L-608.3 -605.2 L-608.6 -604.3 L-608.9 -603.3 L-609.1 -602.4 Z " />
<path stroke="rgb(0,0,0)" stroke-opacity="1" fill="rgb(255,255,255)" fill-opacity="1" d="M-199.6 -312.3 L-198.6 -312.2 L-197.6 -312.1 L-196.7 -311.9 L-195.7 -311.6 L-194.8 -311.3 L-193.9 -310.8 L-193 -310.3 L-192.2 -309.8 L-191.5 -309.1 L-190.8 -308.5 L-190.1 -307.7 L-189.5 -306.9 L-189 -306.1 L-188.5 -305.2 L-188.1 -304.3 L-187.8 -303.4 L-187.5 -302.4 L-187.4 -301.5 L-187.3 -300.5 L-187.3 -299.5 L-187.3 -298.5 L-187.5 -297.5 L-187.7 -296.6 L-188 -295.6 L-188.4 -294.7 L-188.8 -293.8 L-189.3 -293 L-189.9 -292.2 L-190.6 -291.4 L-191.2 -290.7 L-192 -290.1 L-192.8 -289.5 L-193.6 -289 L-194.5 -288.6 L-195.4 -288.2 L-196.4 -287.9 L-197.3 -287.7 L-198.3 -287.5 L-199.3 -287.4 L-200.3 -287.4 L-201.3 -287.5 L-202.2 -287.7 L-203.2 -287.9 L-204.1 -288.3 L-205 -288.6 L-205.9 -289.1 L-206.7 -289.6 L-207.5 -290.2 L-208.3 -290.9 L-209 -291.6 L-209.6 -292.4 L-210.2 -293.2 L-210.6 -294 L-211.1 -294.9 L-211.4 -295.8 L-211.7 -296.8 L-211.9 -297.7 L-212.1 -298.7 L-212.1 -299.7 L-212.1 -300.7 L-212 -301.7 L-211.8 -302.6 L-211.5 -303.6 L-211.2 -304.5 L-210.8 -305.4 L-210.3 -306.3 L-209.8 -307.1 L-209.2 -307.9 L-208.5 -308.6 L-207.8 -309.3 L-207 -309.9 L-206.2 -310.4 L-205.3 -310.9 L-204.4 -311.3 L-203.5 -311.7 L-202.5 -311.9 L-201.6 -312.1 L-200.6 -312.2 L-199.6 -312.3 Z " />
<path stroke="rgb(0,0,0)" stroke-opacity="1" fill="rgb(255,255,255)" fill-opacity="1" d="M-395.2 -592.8 L-396.2 -592.9 L-397.2 -593 L-398.2 -593.1 L-399.2 -593.2 L-400.1 -593.3 L-401.1 -593.4 L-402.1 -593.5 L-403.1 -593.5 L-404.1 -593.6 L-405.1 -593.7 L-406 -593.8 L-407 -593.9 L-408 -594 L-409 -594.1 L-410 -594.2 L-411 -594.3 L-412 -594.4 L-412.9 -594.5 L-413.9 -594.6 L-414.9 -594.7 L-415.9 -594.8 L-416.9 -594.9 L-417.9 -595 L-418.8 -595.1 L-419.8 -595.2 L-419.7 -596.2 L-419.6 -597.2 L-419.5 -598.2 L-419.4 -599.2 L-419.3 -600.2 L-419.2 -601.1 L-419.1 -602.1 L-419 -603.1 L-418.9 -604.1 L-418.8 -605.1 L-418.7 -606.1 L-418.6 -607.1 L-418.5 -608 L-418.4 -609 L-418.3 -610 L-418.2 -611 L-418.1 -612 L-418 -613 L-417.9 -613.9 L-417.8 -614.9 L-417.7 -615.9 L-417.6 -616.9 L-417.5 -617.9 L-417.4 -618.9 L-417.3 -619.9 L-416.4 -619.8 L-415.4 -619.7 L-414.4 -619.6 L-413.4 -619.5 L-412.4 -619.4 L-411.4 -619.3 L-410.4 -619.2 L-409.5 -619.1 L-408.5 -619 L-407.5 -618.9 L-406.5 -618.8 L-405.5 -618.7 L-404.5 -618.6 L-403.6 -618.5 L-402.6 -618.4 L-401.6 -618.3 L-400.6 -618.2 L-399.6 -618.1 L-398.6 -618 L-397.7 -617.9 L-396.7 -617.8 L-395.7 -617.7 L-394.7 -617.6 L-393.7 -617.5 L-392.7 -617.4 L-392.8 -616.4 L-392.9 -615.4 L-393 -614.4 L-393.1 -613.4 L-393.2 -612.4 L-393.3 -611.5 L-393.4 -610.5 L-393.5 -609.5 L-393.6 -608.5 L-393.7 -607.5 L-393.8 -606.5 L-393.9 -605.5 L-394 -604.6 L-394.1 -603.6 L-394.2 -602.6 L-394.3 -601.6 L-394.4 -600.6 L-394.5 -599.6 L-394.6 -598.7 L-394.7 -597.7 L-394.8 -596.7 L-394.9 -595.7 L-395 -594.7 L-395.1 -593.7 L-395.2 -592.8 Z " />
<path stroke="rgb(0,0,0)" stroke-opacity="1" fill="rgb(255,255,255)" fill-opacity="1" d="M0.4118 -312.3 L1.398 -312.2 L2.377 -312.1 L3.343 -311.9 L4.29 -311.6 L5.212 -311.3 L6.103 -310.8 L6.957 -310.3 L7.769 -309.8 L8.534 -309.1 L9.247 -308.5 L9.904 -307.7 L10.5 -306.9 L11.03 -306.1 L11.49 -305.2 L11.89 -304.3 L12.21 -303.4 L12.45 -302.4 L12.62 -301.5 L12.71 -300.5 L12.72 -299.5 L12.65 -298.5 L12.51 -297.5 L12.29 -296.6 L11.99 -295.6 L11.62 -294.7 L11.18 -293.8 L10.66 -293 L10.09 -292.2 L9.448 -291.4 L8.751 -290.7 L8.001 -290.1 L7.202 -289.5 L6.36 -289 L5.479 -288.6 L4.566 -288.2 L3.626 -287.9 L2.665 -287.7 L1.689 -287.5 L0.7044 -287.4 L-0.2828 -287.4 L-1.266 -287.5 L-2.24 -287.7 L-3.197 -287.9 L-4.132 -288.3 L-5.039 -288.6 L-5.912 -289.1 L-6.746 -289.6 L-7.535 -290.2 L-8.275 -290.9 L-8.96 -291.6 L-9.587 -292.4 L-10.15 -293.2 L-10.65 -294 L-11.08 -294.9 L-11.43 -295.8 L-11.72 -296.8 L-11.92 -297.7 L-12.05 -298.7 L-12.1 -299.7 L-12.08 -300.7 L-11.97 -301.7 L-11.79 -302.6 L-11.53 -303.6 L-11.19 -304.5 L-10.78 -305.4 L-10.31 -306.3 L-9.761 -307.1 L-9.152 -307.9 L-8.484 -308.6 L-7.76 -309.3 L-6.985 -309.9 L-6.164 -310.4 L-5.302 -310.9 L-4.404 -311.3 L-3.477 -311.7 L-2.525 -311.9 L-1.556 -312.1 L-0.5749 -312.2 L0.4118 -312.3 Z " />
<path stroke="rgb(0,0,0)" stroke-opacity="1" fill="rgb(255,255,255)" fill-opacity="1" d="M-189.4 -588.8 L-190.4 -588.8 L-191.4 -588.8 L-192.4 -588.9 L-193.4 -588.9 L-194.4 -588.9 L-195.3 -588.9 L-196.3 -589 L-197.3 -589 L-198.3 -589 L-199.3 -589 L-200.3 -589.1 L-201.3 -589.1 L-202.3 -589.1 L-203.3 -589.1 L-204.2 -589.2 L-205.2 -589.2 L-206.2 -589.2 L-207.2 -589.2 L-208.2 -589.3 L-209.2 -589.3 L-210.2 -589.3 L-211.2 -589.3 L-212.2 -589.4 L-213.2 -589.4 L-214.1 -589.4 L-214.1 -590.4 L-214.1 -591.4 L-214.1 -592.4 L-214 -593.4 L-214 -594.4 L-214 -595.4 L-214 -596.3 L-213.9 -597.3 L-213.9 -598.3 L-213.9 -599.3 L-213.9 -600.3 L-213.8 -601.3 L-213.8 -602.3 L-213.8 -603.3 L-213.8 -604.3 L-213.7 -605.2 L-213.7 -606.2 L-213.7 -607.2 L-213.7 -608.2 L-213.6 -609.2 L-213.6 -610.2 L-213.6 -611.2 L-213.6 -612.2 L-213.5 -613.2 L-213.5 -614.1 L-212.5 -614.1 L-211.5 -614.1 L-210.6 -614.1 L-209.6 -614 L-208.6 -614 L-207.6 -614 L-206.6 -614 L-205.6 -613.9 L-204.6 -613.9 L-203.6 -613.9 L-202.6 -613.9 L-201.7 -613.8 L-200.7 -613.8 L-199.7 -613.8 L-198.7 -613.8 L-197.7 -613.7 L-196.7 -613.7 L-195.7 -613.7 L-194.7 -613.7 L-193.7 -613.6 L-192.7 -613.6 L-191.8 -613.6 L-190.8 -613.6 L-189.8 -613.6 L-188.8 -613.5 L-188.8 -612.5 L-188.8 -611.5 L-188.9 -610.6 L-188.9 -609.6 L-188.9 -608.6 L-188.9 -607.6 L-189 -606.6 L-189 -605.6 L-189 -604.6 L-189 -603.6 L-189.1 -602.6 L-189.1 -601.7 L-189.1 -600.7 L-189.1 -599.7 L-189.2 -598.7 L-189.2 -597.7 L-189.2 -596.7 L-189.2 -595.7 L-189.3 -594.7 L-189.3 -593.7 L-189.3 -592.8 L-189.3 -591.8 L-189.4 -590.8 L-189.4 -589.8 L-189.4 -588.8 Z " />
<path stroke="rgb(0,0,0)" stroke-opacity="1" fill="rgb(255,255,255)" fill-opacity="1" d="M202.4 -313 L203.5 -312.7 L204.5 -312.4 L205.5 -312.1 L206.4 -311.6 L207.4 -311.1 L208.2 -310.5 L209.1 -309.8 L209.8 -309.1 L210.5 -308.3 L211.2 -307.5 L211.7 -306.6 L212.2 -305.7 L212.7 -304.7 L213 -303.7 L213.3 -302.7 L213.5 -301.6 L213.6 -300.6 L213.6 -299.5 L213.5 -298.5 L213.4 -297.4 L213.1 -296.4 L212.8 -295.4 L212.4 -294.4 L211.9 -293.4 L211.4 -292.5 L210.8 -291.7 L210.1 -290.9 L209.4 -290.1 L208.6 -289.4 L207.7 -288.8 L206.8 -288.2 L205.9 -287.8 L204.9 -287.4 L203.9 -287 L202.9 -286.8 L201.8 -286.6 L200.8 -286.5 L199.7 -286.6 L198.6 -286.6 L197.6 -286.8 L196.6 -287.1 L195.6 -287.4 L194.6 -287.8 L193.7 -288.3 L192.8 -288.9 L191.9 -289.5 L191.1 -290.2 L190.4 -291 L189.7 -291.8 L189.1 -292.6 L188.6 -293.5 L188.1 -294.5 L187.7 -295.5 L187.4 -296.5 L187.2 -297.5 L187 -298.6 L187 -299.6 L187 -300.7 L187.1 -301.7 L187.3 -302.8 L187.6 -303.8 L187.9 -304.8 L188.4 -305.8 L188.9 -306.7 L189.5 -307.6 L190.1 -308.4 L190.8 -309.2 L191.6 -309.9 L192.4 -310.6 L193.3 -311.2 L194.2 -311.7 L195.2 -312.1 L196.2 -312.5 L197.2 -312.8 L198.2 -313 L199.3 -313.1 L200.3 -313.1 L201.4 -313.1 L202.4 -313 Z " />
<path stroke="rgb(0,0,0)" stroke-opacity="1" fill="rgb(255,255,255)" fill-opacity="1" d="M11.89 -587.9 L10.9 -587.9 L9.91 -587.9 L8.921 -587.9 L7.931 -587.9 L6.942 -588 L5.952 -588 L4.963 -588 L3.974 -588 L2.984 -588 L1.995 -588 L1.006 -588 L0.01614 -588 L-0.9732 -588 L-1.963 -588 L-2.952 -588 L-3.941 -588 L-4.931 -588.1 L-5.92 -588.1 L-6.91 -588.1 L-7.899 -588.1 L-8.888 -588.1 L-9.878 -588.1 L-10.87 -588.1 L-11.86 -588.1 L-12.85 -588.1 L-12.84 -589.1 L-12.83 -590.1 L-12.82 -591.1 L-12.81 -592.1 L-12.81 -593.1 L-12.8 -594 L-12.79 -595 L-12.78 -596 L-12.77 -597 L-12.77 -598 L-12.76 -599 L-12.75 -600 L-12.74 -601 L-12.74 -602 L-12.73 -603 L-12.72 -603.9 L-12.71 -604.9 L-12.7 -605.9 L-12.7 -606.9 L-12.69 -607.9 L-12.68 -608.9 L-12.67 -609.9 L-12.66 -610.9 L-12.66 -611.9 L-12.65 -612.8 L-11.66 -612.8 L-10.67 -612.8 L-9.68 -612.8 L-8.691 -612.8 L-7.701 -612.8 L-6.712 -612.8 L-5.723 -612.8 L-4.733 -612.8 L-3.744 -612.8 L-2.754 -612.8 L-1.765 -612.8 L-0.7757 -612.8 L0.2136 -612.7 L1.203 -612.7 L2.192 -612.7 L3.182 -612.7 L4.171 -612.7 L5.161 -612.7 L6.15 -612.7 L7.139 -612.7 L8.129 -612.7 L9.118 -612.7 L10.11 -612.7 L11.1 -612.7 L12.09 -612.7 L12.08 -611.7 L12.07 -610.7 L12.06 -609.7 L12.05 -608.7 L12.05 -607.7 L12.04 -606.7 L12.03 -605.7 L12.02 -604.7 L12.02 -603.7 L12.01 -602.8 L12 -601.8 L11.99 -600.8 L11.98 -599.8 L11.98 -598.8 L11.97 -597.8 L11.96 -596.8 L11.95 -595.8 L11.94 -594.8 L11.94 -593.9 L11.93 -592.9 L11.92 -591.9 L11.91 -590.9 L11.9 -589.9 L11.9 -588.9 L11.89 -587.9 Z " />
<path stroke="rgb(0,0,0)" stroke-opacity="1" fill="rgb(255,255,255)" fill-opacity="1" d="M-299.6 -212.3 L-298.6 -212.2 L-297.6 -212.1 L-296.7 -211.9 L-295.7 -211.6 L-294.8 -211.3 L-293.9 -210.8 L-293 -210.3 L-292.2 -209.8 L-291.5 -209.1 L-290.8 -208.5 L-290.1 -207.7 L-289.5 -206.9 L-289 -206.1 L-288.5 -205.2 L-288.1 -204.3 L-287.8 -203.4 L-287.5 -202.4 L-287.4 -201.5 L-287.3 -200.5 L-287.3 -199.5 L-287.3 -198.5 L-287.5 -197.5 L-287.7 -196.6 L-288 -195.6 L-288.4 -194.7 L-288.8 -193.8 L-289.3 -193 L-289.9 -192.2 L-290.6 -191.4 L-291.2 -190.7 L-292 -190.1 L-292.8 -189.5 L-293.6 -189 L-294.5 -188.6 L-295.4 -188.2 L-296.4 -187.9 L-297.3 -187.7 L-298.3 -187.5 L-299.3 -187.4 L-300.3 -187.4 L-301.3 -187.5 L-302.2 -187.7 L-303.2 -187.9 L-304.1 -188.3 L-305 -188.6 L-305.9 -189.1 L-306.7 -189.6 L-307.5 -190.2 L-308.3 -190.9 L-309 -191.6 L-309.6 -192.4 L-310.2 -193.2 L-310.6 -194 L-311.1 -194.9 L-311.4 -195.8 L-311.7 -196.8 L-311.9 -197.7 L-312.1 -198.7 L-312.1 -199.7 L-312.1 -200.7 L-312 -201.7 L-311.8 -202.6 L-311.5 -203.6 L-311.2 -204.5 L-310.8 -205.4 L-310.3 -206.3 L-309.8 -207.1 L-309.2 -207.9 L-308.5 -208.6 L-307.8 -209.3 L-307 -209.9 L-306.2 -210.4 L-305.3 -210.9 L-304.4 -211.3 L-303.5 -211.7 L-302.5 -211.9 L-301.6 -212.1 L-300.6 -212.2 L-299.6 -212.3 Z " />
<path stroke="rgb(0,0,0)" stroke-opacity="1" fill="rgb(255,255,255)" fill-opacity="1" d="M-495.2 -492.8 L-496.2 -492.9 L-497.2 -493 L-498.2 -493.1 L-499.2 -493.2 L-500.1 -493.3 L-501.1 -493.4 L-502.1 -493.5 L-503.1 -493.5 L-504.1 -493.6 L-505.1 -493.7 L-506 -493.8 L-507 -493.9 L-508 -494 L-509 -494.1 L-510 -494.2 L-511 -494.3 L-512 -494.4 L-512.9 -494.5 L-513.9 -494.6 L-514.9 -494.7 L-515.9 -494.8 L-516.9 -494.9 L-517.9 -495 L-518.8 -495.1 L-519.8 -495.2 L-519.7 -496.2 L-519.6 -497.2 L-519.5 -498.2 L-519.4 -499.2 L-519.3 -500.2 L-519.2 -501.1 L-519.1 -502.1 L-519 -503.1 L-518.9 -504.1 L-518.8 -505.1 L-518.7 -506.1 L-518.6 -507.1 L-518.5 -508 L-518.4 -509 L-518.3 -510 L-518.2 -511 L-518.1 -512 L-518 -513 L-517.9 -513.9 L-517.8 -514.9 L-517.7 -515.9 L-517.6 -516.9 L-517.5 -517.9 L-517.4 -518.9 L-517.3 -519.9 L-516.4 -519.8 L-515.4 -519.7 L-514.4 -519.6 L-513.4 -519.5 L-512.4 -519.4 L-511.4 -519.3 L-510.4 -519.2 L-509.5 -519.1 L-508.5 -519 L-507.5 -518.9 L-506.5 -518.8 L-505.5 -518.7 L-504.5 -518.6 L-503.6 -518.5 L-502.6 -518.4 L-501.6 -518.3 L-500.6 -518.2 L-499.6 -518.1 L-498.6 -518 L-497.7 -517.9 L-496.7 -517.8 L-495.7 -517.7 L-494.7 -517.6 L-493.7 -517.5 L-492.7 -517.4 L-492.8 -516.4 L-492.9 -515.4 L-493 -514.4 L-493.1 -513.4 L-493.2 -512.4 L-493.3 -511.5 L-493.4 -510.5 L-493.5 -509.5 L-493.6 -508.5 L-493.7 -507.5 L-493.8 -506.5 L-493.9 -505.5 L-494 -504.6 L-494.1 -503.6 L-494.2 -502.6 L-494.3 -501.6 L-494.4 -500.6 L-494.5 -499.6 L-494.6 -498.7 L-494.7 -497.7 L-494.8 -496.7 L-494.9 -495.7 L-495 -494.7 L-495.1 -493.7 L-495.2 -492.8 Z " />
<path stroke="rgb(0,0,0)" stroke-opacity="1" fill="rgb(255,255,255)" fill-opacity="1" d="M-99.59 -212.3 L-98.6 -212.2 L-97.62 -212.1 L-96.66 -211.9 L-95.71 -211.6 L-94.79 -211.3 L-93.9 -210.8 L-93.04 -210.3 L-92.23 -209.8 L-91.47 -209.1 L-90.75 -208.5 L-90.1 -207.7 L-89.5 -206.9 L-88.97 -206.1 L-88.51 -205.2 L-88.11 -204.3 L-87.79 -203.4 L-87.55 -202.4 L-87.38 -201.5 L-87.29 -200.5 L-87.28 -199.5 L-87.35 -198.5 L-87.49 -197.5 L-87.71 -196.6 L-88.01 -195.6 L-88.38 -194.7 L-88.82 -193.8 L-89.34 -193 L-89.91 -192.2 L-90.55 -191.4 L-91.25 -190.7 L-92 -190.1 L-92.8 -189.5 L-93.64 -189 L-94.52 -188.6 L-95.43 -188.2 L-96.37 -187.9 L-97.34 -187.7 L-98.31 -187.5 L-99.3 -187.4 L-100.3 -187.4 L-101.3 -187.5 L-102.2 -187.7 L-103.2 -187.9 L-104.1 -188.3 L-105 -188.6 L-105.9 -189.1 L-106.7 -189.6 L-107.5 -190.2 L-108.3 -190.9 L-109 -191.6 L-109.6 -192.4 L-110.2 -193.2 L-110.6 -194 L-111.1 -194.9 L-111.4 -195.8 L-111.7 -196.8 L-111.9 -197.7 L-112.1 -198.7 L-112.1 -199.7 L-112.1 -200.7 L-112 -201.7 L-111.8 -202.6 L-111.5 -203.6 L-111.2 -204.5 L-110.8 -205.4 L-110.3 -206.3 L-109.8 -207.1 L-109.2 -207.9 L-108.5 -208.6 L-107.8 -209.3 L-107 -209.9 L-106.2 -210.4 L-105.3 -210.9 L-104.4 -211.3 L-103.5 -211.7 L-102.5 -211.9 L-101.6 -212.1 L-100.6 -212.2 L-99.59 -212.3 Z " />
<path stroke="rgb(0,0,0)" stroke-opacity="1" fill="rgb(255,255,255)" fill-opacity="1" d="M-289.4 -488.8 L-290.4 -488.8 L-291.4 -488.8 L-292.4 -488.9 L-293.4 -488.9 L-294.4 -488.9 L-295.3 -488.9 L-296.3 -489 L-297.3 -489 L-298.3 -489 L-299.3 -489 L-300.3 -489.1 L-301.3 -489.1 L-302.3 -489.1 L-303.3 -489.1 L-304.2 -489.2 L-305.2 -489.2 L-306.2 -489.2 L-307.2 -489.2 L-308.2 -489.3 L-309.2 -489.3 L-310.2 -489.3 L-311.2 -489.3 L-312.2 -489.4 L-313.2 -489.4 L-314.1 -489.4 L-314.1 -490.4 L-314.1 -491.4 L-314.1 -492.4 L-314 -493.4 L-314 -494.4 L-314 -495.4 L-314 -496.3 L-313.9 -497.3 L-313.9 -498.3 L-313.9 -499.3 L-313.9 -500.3 L-313.8 -501.3 L-313.8 -502.3 L-313.8 -503.3 L-313.8 -504.3 L-313.7 -505.2 L-313.7 -506.2 L-313.7 -507.2 L-313.7 -508.2 L-313.6 -509.2 L-313.6 -510.2 L-313.6 -511.2 L-313.6 -512.2 L-313.5 -513.2 L-313.5 -514.1 L-312.5 -514.1 L-311.5 -514.1 L-310.6 -514.1 L-309.6 -514 L-308.6 -514 L-307.6 -514 L-306.6 -514 L-305.6 -513.9 L-304.6 -513.9 L-303.6 -513.9 L-302.6 -513.9 L-301.7 -513.8 L-300.7 -513.8 L-299.7 -513.8 L-298.7 -513.8 L-297.7 -513.7 L-296.7 -513.7 L-295.7 -513.7 L-294.7 -513.7 L-293.7 -513.6 L-292.7 -513.6 L-291.8 -513.6 L-290.8 -513.6 L-289.8 -513.6 L-288.8 -513.5 L-288.8 -512.5 L-288.8 -511.5 L-288.9 -510.6 L-288.9 -509.6 L-288.9 -508.6 L-288.9 -507.6 L-289 -506.6 L-289 -505.6 L-289 -504.6 L-289 -503.6 L-289.1 -502.6 L-289.1 -501.7 L-289.1 -500.7 L-289.1 -499.7 L-289.2 -498.7 L-289.2 -497.7 L-289.2 -496.7 L-289.2 -495.7 L-289.3 -494.7 L-289.3 -493.7 L-289.3 -492.8 L-289.3 -491.8 L-289.4 -490.8 L-289.4 -489.8 L-289.4 -488.8 Z " />
<path stroke="rgb(0,0,0)" stroke-opacity="1" fill="rgb(255,255,255)" fill-opacity="1" d="M102.4 -213 L103.5 -212.7 L104.5 -212.4 L105.5 -212.1 L106.4 -211.6 L107.4 -211.1 L108.2 -210.5 L109.1 -209.8 L109.8 -209.1 L110.5 -208.3 L111.2 -207.5 L111.7 -206.6 L112.2 -205.7 L112.7 -204.7 L113 -203.7 L113.3 -202.7 L113.5 -201.6 L113.6 -200.6 L113.6 -199.5 L113.5 -198.5 L113.4 -197.4 L113.1 -196.4 L112.8 -195.4 L112.4 -194.4 L111.9 -193.4 L111.4 -192.5 L110.8 -191.7 L110.1 -190.9 L109.4 -190.1 L108.6 -189.4 L107.7 -188.8 L106.8 -188.2 L105.9 -187.8 L104.9 -187.4 L103.9 -187 L102.9 -186.8 L101.8 -186.6 L100.8 -186.5 L99.7 -186.6 L98.65 -186.6 L97.6 -186.8 L96.58 -187.1 L95.57 -187.4 L94.6 -187.8 L93.66 -188.3 L92.77 -188.9 L91.92 -189.5 L91.12 -190.2 L90.39 -191 L89.71 -191.8 L89.11 -192.6 L88.57 -193.5 L88.11 -194.5 L87.72 -195.5 L87.41 -196.5 L87.19 -197.5 L87.05 -198.6 L86.99 -199.6 L87.01 -200.7 L87.12 -201.7 L87.32 -202.8 L87.59 -203.8 L87.95 -204.8 L88.38 -205.8 L88.89 -206.7 L89.47 -207.6 L90.12 -208.4 L90.83 -209.2 L91.6 -209.9 L92.43 -210.6 L93.31 -211.2 L94.23 -211.7 L95.19 -212.1 L96.18 -212.5 L97.2 -212.8 L98.24 -213 L99.29 -213.1 L100.3 -213.1 L101.4 -213.1 L102.4 -213 Z " />
<path stroke="rgb(0,0,0)" stroke-opacity="1" fill="rgb(255,255,255)" fill-opacity="1" d="M-88.11 -487.9 L-89.1 -487.9 L-90.09 -487.9 L-91.08 -487.9 L-92.07 -487.9 L-93.06 -488 L-94.05 -488 L-95.04 -488 L-96.03 -488 L-97.02 -488 L-98.01 -488 L-98.99 -488 L-99.98 -488 L-101 -488 L-102 -488 L-103 -488 L-103.9 -488 L-104.9 -488.1 L-105.9 -488.1 L-106.9 -488.1 L-107.9 -488.1 L-108.9 -488.1 L-109.9 -488.1 L-110.9 -488.1 L-111.9 -488.1 L-112.8 -488.1 L-112.8 -489.1 L-112.8 -490.1 L-112.8 -491.1 L-112.8 -492.1 L-112.8 -493.1 L-112.8 -494 L-112.8 -495 L-112.8 -496 L-112.8 -497 L-112.8 -498 L-112.8 -499 L-112.8 -500 L-112.7 -501 L-112.7 -502 L-112.7 -503 L-112.7 -503.9 L-112.7 -504.9 L-112.7 -505.9 L-112.7 -506.9 L-112.7 -507.9 L-112.7 -508.9 L-112.7 -509.9 L-112.7 -510.9 L-112.7 -511.9 L-112.6 -512.8 L-111.7 -512.8 L-110.7 -512.8 L-109.7 -512.8 L-108.7 -512.8 L-107.7 -512.8 L-106.7 -512.8 L-105.7 -512.8 L-104.7 -512.8 L-103.7 -512.8 L-102.8 -512.8 L-101.8 -512.8 L-100.8 -512.8 L-99.79 -512.7 L-98.8 -512.7 L-97.81 -512.7 L-96.82 -512.7 L-95.83 -512.7 L-94.84 -512.7 L-93.85 -512.7 L-92.86 -512.7 L-91.87 -512.7 L-90.88 -512.7 L-89.89 -512.7 L-88.9 -512.7 L-87.91 -512.7 L-87.92 -511.7 L-87.93 -510.7 L-87.94 -509.7 L-87.95 -508.7 L-87.95 -507.7 L-87.96 -506.7 L-87.97 -505.7 L-87.98 -504.7 L-87.98 -503.7 L-87.99 -502.8 L-88 -501.8 L-88.01 -500.8 L-88.02 -499.8 L-88.02 -498.8 L-88.03 -497.8 L-88.04 -496.8 L-88.05 -495.8 L-88.06 -494.8 L-88.06 -493.9 L-88.07 -492.9 L-88.08 -491.9 L-88.09 -490.9 L-88.1 -489.9 L-88.1 -488.9 L-88.11 -487.9 Z " />
<path stroke="rgb(0,0,0)" stroke-opacity="1" fill="rgb(255,255,255)" fill-opacity="1" d="M315.8 -210.6 L316.6 -209.3 L317.3 -207.9 L317.9 -206.6 L318.4 -205.1 L318.8 -203.7 L319 -202.2 L319.1 -200.7 L319.1 -199.1 L319 -197.6 L318.8 -196.1 L318.4 -194.7 L317.9 -193.2 L317.4 -191.8 L316.7 -190.5 L315.9 -189.2 L315 -188 L314 -186.8 L312.9 -185.8 L311.7 -184.8 L310.5 -183.9 L309.2 -183.2 L307.9 -182.5 L306.5 -181.9 L305 -181.5 L303.5 -181.2 L302 -180.9 L300.5 -180.8 L299 -180.9 L297.5 -181 L296 -181.3 L294.6 -181.7 L293.1 -182.2 L291.7 -182.8 L290.4 -183.5 L289.1 -184.3 L287.9 -185.3 L286.8 -186.3 L285.8 -187.4 L284.8 -188.5 L284 -189.8 L283.2 -191.1 L282.6 -192.5 L282.1 -193.9 L281.6 -195.3 L281.3 -196.8 L281.2 -198.3 L281.1 -199.8 L281.2 -201.3 L281.3 -202.9 L281.6 -204.3 L282 -205.8 L282.6 -207.2 L283.2 -208.6 L284 -209.9 L284.8 -211.1 L285.7 -212.3 L286.8 -213.4 L287.9 -214.4 L289.1 -215.4 L290.4 -216.2 L291.7 -216.9 L293.1 -217.5 L294.5 -218 L296 -218.4 L297.4 -218.7 L299 -218.9 L300.5 -218.9 L302 -218.8 L303.5 -218.6 L305 -218.3 L306.4 -217.8 L307.8 -217.3 L309.2 -216.6 L310.5 -215.8 L311.7 -215 L312.9 -214 L313.9 -212.9 L314.9 -211.8 L315.8 -210.6 Z " />
<path stroke="rgb(0,0,0)" stroke-opacity="1" fill="rgb(255,255,255)" fill-opacity="1" d="M-595.2 -392.8 L-596.2 -392.9 L-597.2 -393 L-598.2 -393.1 L-599.2 -393.2 L-600.1 -393.3 L-601.1 -393.4 L-602.1 -393.5 L-603.1 -393.5 L-604.1 -393.6 L-605.1 -393.7 L-606 -393.8 L-607 -393.9 L-608 -394 L-609 -394.1 L-610 -394.2 L-611 -394.3 L-612 -394.4 L-612.9 -394.5 L-613.9 -394.6 L-614.9 -394.7 L-615.9 -394.8 L-616.9 -394.9 L-617.9 -395 L-618.8 -395.1 L-619.8 -395.2 L-619.7 -396.2 L-619.6 -397.2 L-619.5 -398.2 L-619.4 -399.2 L-619.3 -400.2 L-619.2 -401.1 L-619.1 -402.1 L-619 -403.1 L-618.9 -404.1 L-618.8 -405.1 L-618.7 -406.1 L-618.6 -407.1 L-618.5 -408 L-618.4 -409 L-618.3 -410 L-618.2 -411 L-618.1 -412 L-618 -413 L-617.9 -413.9 L-617.8 -414.9 L-617.7 -415.9 L-617.6 -416.9 L-617.5 -417.9 L-617.4 -418.9 L-617.3 -419.9 L-616.4 -419.8 L-615.4 -419.7 L-614.4 -419.6 L-613.4 -419.5 L-612.4 -419.4 L-611.4 -419.3 L-610.4 -419.2 L-609.5 -419.1 L-608.5 -419 L-607.5 -418.9 L-606.5 -418.8 L-605.5 -418.7 L-604.5 -418.6 L-603.6 -418.5 L-602.6 -418.4 L-601.6 -418.3 L-600.6 -418.2 L-599.6 -418.1 L-598.6 -418 L-597.7 -417.9 L-596.7 -417.8 L-595.7 -417.7 L-594.7 -417.6 L-593.7 -417.5 L-592.7 -417.4 L-592.8 -416.4 L-592.9 -415.4 L-593 -414.4 L-593.1 -413.4 L-593.2 -412.4 L-593.3 -411.5 L-593.4 -410.5 L-593.5 -409.5 L-593.6 -408.5 L-593.7 -407.5 L-593.8 -406.5 L-593.9 -405.5 L-594 -404.6 L-594.1 -403.6 L-594.2 -402.6 L-594.3 -401.6 L-594.4 -400.6 L-594.5 -399.6 L-594.6 -398.7 L-594.7 -397.7 L-594.8 -396.7 L-594.9 -395.7 L-595 -394.7 L-595.1 -393.7 L-595.2 -392.8 Z " />
<path stroke="rgb(0,0,0)" stroke-opacity="1" fill="rgb(255,255,255)" fill-opacity="1" d="M-199.6 -112.3 L-198.6 -112.2 L-197.6 -112.1 L-196.7 -111.9 L-195.7 -111.6 L-194.8 -111.3 L-193.9 -110.8 L-193 -110.3 L-192.2 -109.8 L-191.5 -109.1 L-190.8 -108.5 L-190.1 -107.7 L-189.5 -106.9 L-189 -106.1 L-188.5 -105.2 L-188.1 -104.3 L-187.8 -103.4 L-187.5 -102.4 L-187.4 -101.5 L-187.3 -100.5 L-187.3 -99.5 L-187.3 -98.51 L-187.5 -97.54 L-187.7 -96.57 L-188 -95.63 L-188.4 -94.72 L-188.8 -93.84 L-189.3 -92.99 L-189.9 -92.19 L-190.6 -91.44 L-191.2 -90.74 L-192 -90.1 L-192.8 -89.52 L-193.6 -89 L-194.5 -88.56 L-195.4 -88.18 L-196.4 -87.88 L-197.3 -87.65 L-198.3 -87.51 L-199.3 -87.44 L-200.3 -87.44 L-201.3 -87.53 L-202.2 -87.69 L-203.2 -87.94 L-204.1 -88.25 L-205 -88.64 L-205.9 -89.1 L-206.7 -89.63 L-207.5 -90.22 L-208.3 -90.88 L-209 -91.59 L-209.6 -92.35 L-210.2 -93.16 L-210.6 -94.01 L-211.1 -94.9 L-211.4 -95.82 L-211.7 -96.77 L-211.9 -97.73 L-212.1 -98.71 L-212.1 -99.7 L-212.1 -100.7 L-212 -101.7 L-211.8 -102.6 L-211.5 -103.6 L-211.2 -104.5 L-210.8 -105.4 L-210.3 -106.3 L-209.8 -107.1 L-209.2 -107.9 L-208.5 -108.6 L-207.8 -109.3 L-207 -109.9 L-206.2 -110.4 L-205.3 -110.9 L-204.4 -111.3 L-203.5 -111.7 L-202.5 -111.9 L-201.6 -112.1 L-200.6 -112.2 L-199.6 -112.3 Z " />
<path stroke="rgb(0,0,0)" stroke-opacity="1" fill="rgb(255,255,255)" fill-opacity="1" d="M-389.4 -388.8 L-390.4 -388.8 L-391.4 -388.8 L-392.4 -388.9 L-393.4 -388.9 L-394.4 -388.9 L-395.3 -388.9 L-396.3 -389 L-397.3 -389 L-398.3 -389 L-399.3 -389 L-400.3 -389.1 L-401.3 -389.1 L-402.3 -389.1 L-403.3 -389.1 L-404.2 -389.2 L-405.2 -389.2 L-406.2 -389.2 L-407.2 -389.2 L-408.2 -389.3 L-409.2 -389.3 L-410.2 -389.3 L-411.2 -389.3 L-412.2 -389.4 L-413.2 -389.4 L-414.1 -389.4 L-414.1 -390.4 L-414.1 -391.4 L-414.1 -392.4 L-414 -393.4 L-414 -394.4 L-414 -395.4 L-414 -396.3 L-413.9 -397.3 L-413.9 -398.3 L-413.9 -399.3 L-413.9 -400.3 L-413.8 -401.3 L-413.8 -402.3 L-413.8 -403.3 L-413.8 -404.3 L-413.7 -405.2 L-413.7 -406.2 L-413.7 -407.2 L-413.7 -408.2 L-413.6 -409.2 L-413.6 -410.2 L-413.6 -411.2 L-413.6 -412.2 L-413.5 -413.2 L-413.5 -414.1 L-412.5 -414.1 L-411.5 -414.1 L-410.6 -414.1 L-409.6 -414 L-408.6 -414 L-407.6 -414 L-406.6 -414 L-405.6 -413.9 L-404.6 -413.9 L-403.6 -413.9 L-402.6 -413.9 L-401.7 -413.8 L-400.7 -413.8 L-399.7 -413.8 L-398.7 -413.8 L-397.7 -413.7 L-396.7 -413.7 L-395.7 -413.7 L-394.7 -413.7 L-393.7 -413.6 L-392.7 -413.6 L-391.8 -413.6 L-390.8 -413.6 L-389.8 -413.6 L-388.8 -413.5 L-388.8 -412.5 L-388.8 -411.5 L-388.9 -410.6 L-388.9 -409.6 L-388.9 -408.6 L-388.9 -407.6 L-389 -406.6 L-389 -405.6 L-389 -404.6 L-389 -403.6 L-389.1 -402.6 L-389.1 -401.7 L-389.1 -400.7 L-389.1 -399.7 L-389.2 -398.7 L-389.2 -397.7 L-389.2 -396.7 L-389.2 -395.7 L-389.3 -394.7 L-389.3 -393.7 L-389.3 -392.8 L-389.3 -391.8 L-389.4 -390.8 L-389.4 -389.8 L-389.4 -388.8 Z " />
<path stroke="rgb(0,0,0)" stroke-opacity="1" fill="rgb(255,255,255)" fill-opacity="1" d="M2.449 -113 L3.485 -112.7 L4.5 -112.4 L5.489 -112.1 L6.445 -111.6 L7.362 -111.1 L8.234 -110.5 L9.056 -109.8 L9.822 -109.1 L10.53 -108.3 L11.17 -107.5 L11.74 -106.6 L12.24 -105.7 L12.67 -104.7 L13.01 -103.7 L13.28 -102.7 L13.46 -101.6 L13.56 -100.6 L13.58 -99.51 L13.51 -98.46 L13.36 -97.41 L13.13 -96.38 L12.81 -95.37 L12.42 -94.39 L11.95 -93.44 L11.4 -92.54 L10.79 -91.68 L10.11 -90.87 L9.362 -90.12 L8.561 -89.43 L7.708 -88.8 L6.807 -88.25 L5.866 -87.77 L4.89 -87.36 L3.884 -87.03 L2.855 -86.79 L1.811 -86.63 L0.7562 -86.55 L-0.3012 -86.55 L-1.355 -86.64 L-2.398 -86.81 L-3.424 -87.07 L-4.427 -87.4 L-5.4 -87.81 L-6.337 -88.3 L-7.233 -88.87 L-8.08 -89.5 L-8.875 -90.2 L-9.612 -90.95 L-10.29 -91.77 L-10.89 -92.63 L-11.43 -93.55 L-11.89 -94.5 L-12.28 -95.48 L-12.59 -96.49 L-12.81 -97.53 L-12.95 -98.57 L-13.01 -99.63 L-12.99 -100.7 L-12.88 -101.7 L-12.68 -102.8 L-12.41 -103.8 L-12.05 -104.8 L-11.62 -105.8 L-11.11 -106.7 L-10.53 -107.6 L-9.883 -108.4 L-9.17 -109.2 L-8.397 -109.9 L-7.57 -110.6 L-6.692 -111.2 L-5.771 -111.7 L-4.811 -112.1 L-3.819 -112.5 L-2.801 -112.8 L-1.764 -113 L-0.7132 -113.1 L0.3435 -113.1 L1.4 -113.1 L2.449 -113 Z " />
<path stroke="rgb(0,0,0)" stroke-opacity="1" fill="rgb(255,255,255)" fill-opacity="1" d="M-188.1 -387.9 L-189.1 -387.9 L-190.1 -387.9 L-191.1 -387.9 L-192.1 -387.9 L-193.1 -388 L-194 -388 L-195 -388 L-196 -388 L-197 -388 L-198 -388 L-199 -388 L-200 -388 L-201 -388 L-202 -388 L-203 -388 L-203.9 -388 L-204.9 -388.1 L-205.9 -388.1 L-206.9 -388.1 L-207.9 -388.1 L-208.9 -388.1 L-209.9 -388.1 L-210.9 -388.1 L-211.9 -388.1 L-212.8 -388.1 L-212.8 -389.1 L-212.8 -390.1 L-212.8 -391.1 L-212.8 -392.1 L-212.8 -393.1 L-212.8 -394 L-212.8 -395 L-212.8 -396 L-212.8 -397 L-212.8 -398 L-212.8 -399 L-212.8 -400 L-212.7 -401 L-212.7 -402 L-212.7 -403 L-212.7 -403.9 L-212.7 -404.9 L-212.7 -405.9 L-212.7 -406.9 L-212.7 -407.9 L-212.7 -408.9 L-212.7 -409.9 L-212.7 -410.9 L-212.7 -411.9 L-212.6 -412.8 L-211.7 -412.8 L-210.7 -412.8 L-209.7 -412.8 L-208.7 -412.8 L-207.7 -412.8 L-206.7 -412.8 L-205.7 -412.8 L-204.7 -412.8 L-203.7 -412.8 L-202.8 -412.8 L-201.8 -412.8 L-200.8 -412.8 L-199.8 -412.7 L-198.8 -412.7 L-197.8 -412.7 L-196.8 -412.7 L-195.8 -412.7 L-194.8 -412.7 L-193.9 -412.7 L-192.9 -412.7 L-191.9 -412.7 L-190.9 -412.7 L-189.9 -412.7 L-188.9 -412.7 L-187.9 -412.7 L-187.9 -411.7 L-187.9 -410.7 L-187.9 -409.7 L-187.9 -408.7 L-188 -407.7 L-188 -406.7 L-188 -405.7 L-188 -404.7 L-188 -403.7 L-188 -402.8 L-188 -401.8 L-188 -400.8 L-188 -399.8 L-188 -398.8 L-188 -397.8 L-188 -396.8 L-188 -395.8 L-188.1 -394.8 L-188.1 -393.9 L-188.1 -392.9 L-188.1 -391.9 L-188.1 -390.9 L-188.1 -389.9 L-188.1 -388.9 L-188.1 -387.9 Z " />
<path stroke="rgb(0,0,0)" stroke-opacity="1" fill="rgb(255,255,255)" fill-opacity="1" d="M215.8 -110.6 L216.6 -109.3 L217.3 -107.9 L217.9 -106.6 L218.4 -105.1 L218.8 -103.7 L219 -102.2 L219.1 -100.7 L219.1 -99.14 L219 -97.63 L218.8 -96.14 L218.4 -94.67 L217.9 -93.23 L217.4 -91.83 L216.7 -90.49 L215.9 -89.2 L215 -87.99 L214 -86.84 L212.9 -85.78 L211.7 -84.81 L210.5 -83.94 L209.2 -83.16 L207.9 -82.49 L206.5 -81.93 L205 -81.48 L203.5 -81.15 L202 -80.94 L200.5 -80.85 L199 -80.88 L197.5 -81.03 L196 -81.29 L194.6 -81.68 L193.1 -82.18 L191.7 -82.79 L190.4 -83.51 L189.1 -84.33 L187.9 -85.25 L186.8 -86.26 L185.8 -87.36 L184.8 -88.54 L184 -89.79 L183.2 -91.1 L182.6 -92.47 L182.1 -93.89 L181.6 -95.34 L181.3 -96.83 L181.2 -98.33 L181.1 -99.84 L181.2 -101.3 L181.3 -102.9 L181.6 -104.3 L182 -105.8 L182.6 -107.2 L183.2 -108.6 L184 -109.9 L184.8 -111.1 L185.7 -112.3 L186.8 -113.4 L187.9 -114.4 L189.1 -115.4 L190.4 -116.2 L191.7 -116.9 L193.1 -117.5 L194.5 -118 L196 -118.4 L197.4 -118.7 L199 -118.9 L200.5 -118.9 L202 -118.8 L203.5 -118.6 L205 -118.3 L206.4 -117.8 L207.8 -117.3 L209.2 -116.6 L210.5 -115.8 L211.7 -115 L212.9 -114 L213.9 -112.9 L214.9 -111.8 L215.8 -110.6 Z " />
<path stroke="rgb(0,0,0)" stroke-opacity="1" fill="rgb(255,255,255)" fill-opacity="1" d="M11.91 -387.9 L10.92 -387.9 L9.931 -387.9 L8.941 -387.9 L7.952 -387.9 L6.962 -387.9 L5.973 -387.9 L4.984 -388 L3.994 -388 L3.005 -388 L2.016 -388 L1.026 -388 L0.03675 -388 L-0.9526 -388 L-1.942 -388 L-2.931 -388 L-3.921 -388 L-4.91 -388 L-5.9 -388 L-6.889 -388 L-7.878 -388.1 L-8.868 -388.1 L-9.857 -388.1 L-10.85 -388.1 L-11.84 -388.1 L-12.83 -388.1 L-12.82 -389.1 L-12.81 -390.1 L-12.8 -391.1 L-12.79 -392.1 L-12.79 -393 L-12.78 -394 L-12.77 -395 L-12.76 -396 L-12.76 -397 L-12.75 -398 L-12.74 -399 L-12.73 -400 L-12.73 -401 L-12.72 -401.9 L-12.71 -402.9 L-12.7 -403.9 L-12.7 -404.9 L-12.69 -405.9 L-12.68 -406.9 L-12.67 -407.9 L-12.66 -408.9 L-12.66 -409.9 L-12.65 -410.8 L-12.64 -411.8 L-12.63 -412.8 L-11.65 -412.8 L-10.66 -412.8 L-9.666 -412.8 L-8.677 -412.8 L-7.688 -412.8 L-6.698 -412.8 L-5.709 -412.8 L-4.719 -412.8 L-3.73 -412.8 L-2.741 -412.8 L-1.751 -412.7 L-0.7618 -412.7 L0.2275 -412.7 L1.217 -412.7 L2.206 -412.7 L3.196 -412.7 L4.185 -412.7 L5.174 -412.7 L6.164 -412.7 L7.153 -412.7 L8.143 -412.7 L9.132 -412.7 L10.12 -412.7 L11.11 -412.6 L12.1 -412.6 L12.09 -411.6 L12.08 -410.7 L12.08 -409.7 L12.07 -408.7 L12.06 -407.7 L12.05 -406.7 L12.05 -405.7 L12.04 -404.7 L12.03 -403.7 L12.02 -402.7 L12.02 -401.8 L12.01 -400.8 L12 -399.8 L11.99 -398.8 L11.99 -397.8 L11.98 -396.8 L11.97 -395.8 L11.96 -394.8 L11.96 -393.8 L11.95 -392.8 L11.94 -391.9 L11.93 -390.9 L11.92 -389.9 L11.92 -388.9 L11.91 -387.9 Z " />
<path stroke="rgb(0,0,0)" stroke-opacity="1" fill="rgb(255,255,255)" fill-opacity="1" d="M-299.6 -12.26 L-298.6 -12.21 L-297.6 -12.09 L-296.7 -11.88 L-295.7 -11.61 L-294.8 -11.25 L-293.9 -10.83 L-293 -10.33 L-292.2 -9.771 L-291.5 -9.147 L-290.8 -8.464 L-290.1 -7.727 L-289.5 -6.94 L-289 -6.108 L-288.5 -5.236 L-288.1 -4.331 L-287.8 -3.397 L-287.5 -2.44 L-287.4 -1.468 L-287.3 -0.4846 L-287.3 0.5025 L-287.3 1.487 L-287.5 2.464 L-287.7 3.426 L-288 4.367 L-288.4 5.282 L-288.8 6.164 L-289.3 7.008 L-289.9 7.809 L-290.6 8.561 L-291.2 9.261 L-292 9.902 L-292.8 10.48 L-293.6 11 L-294.5 11.44 L-295.4 11.82 L-296.4 12.12 L-297.3 12.35 L-298.3 12.49 L-299.3 12.56 L-300.3 12.56 L-301.3 12.47 L-302.2 12.31 L-303.2 12.06 L-304.1 11.75 L-305 11.36 L-305.9 10.9 L-306.7 10.37 L-307.5 9.777 L-308.3 9.123 L-309 8.412 L-309.6 7.65 L-310.2 6.839 L-310.6 5.987 L-311.1 5.098 L-311.4 4.177 L-311.7 3.231 L-311.9 2.266 L-312.1 1.287 L-312.1 0.3015 L-312.1 -0.6853 L-312 -1.667 L-311.8 -2.637 L-311.5 -3.589 L-311.2 -4.518 L-310.8 -5.417 L-310.3 -6.281 L-309.8 -7.104 L-309.2 -7.881 L-308.5 -8.607 L-307.8 -9.279 L-307 -9.89 L-306.2 -10.44 L-305.3 -10.92 L-304.4 -11.33 L-303.5 -11.67 L-302.5 -11.93 L-301.6 -12.12 L-300.6 -12.23 L-299.6 -12.26 Z " />
<path stroke="rgb(0,0,0)" stroke-opacity="1" fill="rgb(255,255,255)" fill-opacity="1" d="M-489.4 -288.8 L-490.4 -288.8 L-491.4 -288.8 L-492.4 -288.9 L-493.4 -288.9 L-494.4 -288.9 L-495.3 -288.9 L-496.3 -289 L-497.3 -289 L-498.3 -289 L-499.3 -289 L-500.3 -289.1 L-501.3 -289.1 L-502.3 -289.1 L-503.3 -289.1 L-504.2 -289.2 L-505.2 -289.2 L-506.2 -289.2 L-507.2 -289.2 L-508.2 -289.3 L-509.2 -289.3 L-510.2 -289.3 L-511.2 -289.3 L-512.2 -289.4 L-513.2 -289.4 L-514.1 -289.4 L-514.1 -290.4 L-514.1 -291.4 L-514.1 -292.4 L-514 -293.4 L-514 -294.4 L-514 -295.4 L-514 -296.3 L-513.9 -297.3 L-513.9 -298.3 L-513.9 -299.3 L-513.9 -300.3 L-513.8 -301.3 L-513.8 -302.3 L-513.8 -303.3 L-513.8 -304.3 L-513.7 -305.2 L-513.7 -306.2 L-513.7 -307.2 L-513.7 -308.2 L-513.6 -309.2 L-513.6 -310.2 L-513.6 -311.2 L-513.6 -312.2 L-513.5 -313.2 L-513.5 -314.1 L-512.5 -314.1 L-511.5 -314.1 L-510.6 -314.1 L-509.6 -314 L-508.6 -314 L-507.6 -314 L-506.6 -314 L-505.6 -313.9 L-504.6 -313.9 L-503.6 -313.9 L-502.6 -313.9 L-501.7 -313.8 L-500.7 -313.8 L-499.7 -313.8 L-498.7 -313.8 L-497.7 -313.7 L-496.7 -313.7 L-495.7 -313.7 L-494.7 -313.7 L-493.7 -313.6 L-492.7 -313.6 L-491.8 -313.6 L-490.8 -313.6 L-489.8 -313.6 L-488.8 -313.5 L-488.8 -312.5 L-488.8 -311.5 L-488.9 -310.6 L-488.9 -309.6 L-488.9 -308.6 L-488.9 -307.6 L-489 -306.6 L-489 -305.6 L-489 -304.6 L-489 -303.6 L-489.1 -302.6 L-489.1 -301.7 L-489.1 -300.7 L-489.1 -299.7 L-489.2 -298.7 L-489.2 -297.7 L-489.2 -296.7 L-489.2 -295.7 L-489.3 -294.7 L-489.3 -293.7 L-489.3 -292.8 L-489.3 -291.8 L-489.4 -290.8 L-489.4 -289.8 L-489.4 -288.8 Z " />
<path stroke="rgb(0,0,0)" stroke-opacity="1" fill="rgb(255,255,255)" fill-opacity="1" d="M-97.55 -12.96 L-96.52 -12.74 L-95.5 -12.45 L-94.51 -12.07 L-93.56 -11.62 L-92.64 -11.1 L-91.77 -10.5 L-90.94 -9.832 L-90.18 -9.104 L-89.47 -8.317 L-88.83 -7.476 L-88.26 -6.587 L-87.76 -5.656 L-87.33 -4.687 L-86.99 -3.688 L-86.72 -2.665 L-86.54 -1.623 L-86.44 -0.5708 L-86.42 0.4864 L-86.49 1.542 L-86.64 2.588 L-86.87 3.619 L-87.19 4.629 L-87.58 5.61 L-88.05 6.556 L-88.6 7.463 L-89.21 8.323 L-89.89 9.131 L-90.64 9.883 L-91.44 10.57 L-92.29 11.2 L-93.19 11.75 L-94.13 12.23 L-95.11 12.64 L-96.12 12.97 L-97.14 13.21 L-98.19 13.37 L-99.24 13.45 L-100.3 13.45 L-101.4 13.36 L-102.4 13.19 L-103.4 12.93 L-104.4 12.6 L-105.4 12.19 L-106.3 11.7 L-107.2 11.13 L-108.1 10.5 L-108.9 9.803 L-109.6 9.045 L-110.3 8.231 L-110.9 7.365 L-111.4 6.454 L-111.9 5.504 L-112.3 4.519 L-112.6 3.507 L-112.8 2.474 L-113 1.426 L-113 0.3704 L-113 -0.6867 L-112.9 -1.738 L-112.7 -2.778 L-112.4 -3.799 L-112.1 -4.795 L-111.6 -5.76 L-111.1 -6.687 L-110.5 -7.571 L-109.9 -8.406 L-109.2 -9.187 L-108.4 -9.908 L-107.6 -10.57 L-106.7 -11.16 L-105.8 -11.67 L-104.8 -12.12 L-103.8 -12.48 L-102.8 -12.77 L-101.8 -12.98 L-100.7 -13.1 L-99.66 -13.13 L-98.6 -13.09 L-97.55 -12.96 Z " />
<path stroke="rgb(0,0,0)" stroke-opacity="1" fill="rgb(255,255,255)" fill-opacity="1" d="M-288.1 -287.9 L-289.1 -287.9 L-290.1 -287.9 L-291.1 -287.9 L-292.1 -287.9 L-293.1 -288 L-294 -288 L-295 -288 L-296 -288 L-297 -288 L-298 -288 L-299 -288 L-300 -288 L-301 -288 L-302 -288 L-303 -288 L-303.9 -288 L-304.9 -288.1 L-305.9 -288.1 L-306.9 -288.1 L-307.9 -288.1 L-308.9 -288.1 L-309.9 -288.1 L-310.9 -288.1 L-311.9 -288.1 L-312.8 -288.1 L-312.8 -289.1 L-312.8 -290.1 L-312.8 -291.1 L-312.8 -292.1 L-312.8 -293.1 L-312.8 -294 L-312.8 -295 L-312.8 -296 L-312.8 -297 L-312.8 -298 L-312.8 -299 L-312.8 -300 L-312.7 -301 L-312.7 -302 L-312.7 -303 L-312.7 -303.9 L-312.7 -304.9 L-312.7 -305.9 L-312.7 -306.9 L-312.7 -307.9 L-312.7 -308.9 L-312.7 -309.9 L-312.7 -310.9 L-312.7 -311.9 L-312.6 -312.8 L-311.7 -312.8 L-310.7 -312.8 L-309.7 -312.8 L-308.7 -312.8 L-307.7 -312.8 L-306.7 -312.8 L-305.7 -312.8 L-304.7 -312.8 L-303.7 -312.8 L-302.8 -312.8 L-301.8 -312.8 L-300.8 -312.8 L-299.8 -312.7 L-298.8 -312.7 L-297.8 -312.7 L-296.8 -312.7 L-295.8 -312.7 L-294.8 -312.7 L-293.9 -312.7 L-292.9 -312.7 L-291.9 -312.7 L-290.9 -312.7 L-289.9 -312.7 L-288.9 -312.7 L-287.9 -312.7 L-287.9 -311.7 L-287.9 -310.7 L-287.9 -309.7 L-287.9 -308.7 L-288 -307.7 L-288 -306.7 L-288 -305.7 L-288 -304.7 L-288 -303.7 L-288 -302.8 L-288 -301.8 L-288 -300.8 L-288 -299.8 L-288 -298.8 L-288 -297.8 L-288 -296.8 L-288 -295.8 L-288.1 -294.8 L-288.1 -293.9 L-288.1 -292.9 L-288.1 -291.9 L-288.1 -290.9 L-288.1 -289.9 L-288.1 -288.9 L-288.1 -287.9 Z " />
<path stroke="rgb(0,0,0)" stroke-opacity="1" fill="rgb(255,255,255)" fill-opacity="1" d="M115.8 -10.57 L116.6 -9.292 L117.3 -7.949 L117.9 -6.556 L118.4 -5.12 L118.8 -3.651 L119 -2.158 L119.1 -0.6505 L119.1 0.8619 L119 2.37 L118.8 3.863 L118.4 5.333 L117.9 6.771 L117.4 8.166 L116.7 9.51 L115.9 10.8 L115 12.01 L114 13.16 L112.9 14.22 L111.7 15.19 L110.5 16.06 L109.2 16.84 L107.9 17.51 L106.5 18.07 L105 18.52 L103.5 18.85 L102 19.06 L100.5 19.15 L99.01 19.12 L97.51 18.97 L96.02 18.71 L94.55 18.32 L93.13 17.82 L91.74 17.21 L90.41 16.49 L89.14 15.67 L87.94 14.75 L86.82 13.74 L85.78 12.64 L84.83 11.46 L83.98 10.21 L83.23 8.895 L82.59 7.526 L82.06 6.11 L81.64 4.657 L81.34 3.175 L81.16 1.673 L81.1 0.162 L81.15 -1.349 L81.33 -2.851 L81.63 -4.334 L82.04 -5.789 L82.57 -7.206 L83.21 -8.577 L83.95 -9.893 L84.8 -11.15 L85.75 -12.33 L86.78 -13.43 L87.9 -14.45 L89.1 -15.37 L90.36 -16.2 L91.69 -16.92 L93.07 -17.54 L94.5 -18.04 L95.96 -18.43 L97.45 -18.7 L98.95 -18.85 L100.5 -18.88 L102 -18.8 L103.5 -18.59 L105 -18.26 L106.4 -17.82 L107.8 -17.26 L109.2 -16.6 L110.5 -15.83 L111.7 -14.95 L112.9 -13.99 L113.9 -12.93 L114.9 -11.79 L115.8 -10.57 Z " />
<path stroke="rgb(0,0,0)" stroke-opacity="1" fill="rgb(255,255,255)" fill-opacity="1" d="M-88.09 -287.9 L-89.08 -287.9 L-90.07 -287.9 L-91.06 -287.9 L-92.05 -287.9 L-93.04 -287.9 L-94.03 -287.9 L-95.02 -288 L-96.01 -288 L-97 -288 L-97.98 -288 L-98.97 -288 L-99.96 -288 L-101 -288 L-101.9 -288 L-102.9 -288 L-103.9 -288 L-104.9 -288 L-105.9 -288 L-106.9 -288 L-107.9 -288.1 L-108.9 -288.1 L-109.9 -288.1 L-110.8 -288.1 L-111.8 -288.1 L-112.8 -288.1 L-112.8 -289.1 L-112.8 -290.1 L-112.8 -291.1 L-112.8 -292.1 L-112.8 -293 L-112.8 -294 L-112.8 -295 L-112.8 -296 L-112.8 -297 L-112.7 -298 L-112.7 -299 L-112.7 -300 L-112.7 -301 L-112.7 -301.9 L-112.7 -302.9 L-112.7 -303.9 L-112.7 -304.9 L-112.7 -305.9 L-112.7 -306.9 L-112.7 -307.9 L-112.7 -308.9 L-112.7 -309.9 L-112.6 -310.8 L-112.6 -311.8 L-112.6 -312.8 L-111.6 -312.8 L-110.7 -312.8 L-109.7 -312.8 L-108.7 -312.8 L-107.7 -312.8 L-106.7 -312.8 L-105.7 -312.8 L-104.7 -312.8 L-103.7 -312.8 L-102.7 -312.8 L-101.8 -312.7 L-100.8 -312.7 L-99.77 -312.7 L-98.78 -312.7 L-97.79 -312.7 L-96.8 -312.7 L-95.81 -312.7 L-94.83 -312.7 L-93.84 -312.7 L-92.85 -312.7 L-91.86 -312.7 L-90.87 -312.7 L-89.88 -312.7 L-88.89 -312.6 L-87.9 -312.6 L-87.91 -311.6 L-87.92 -310.7 L-87.92 -309.7 L-87.93 -308.7 L-87.94 -307.7 L-87.95 -306.7 L-87.95 -305.7 L-87.96 -304.7 L-87.97 -303.7 L-87.98 -302.7 L-87.98 -301.8 L-87.99 -300.8 L-88 -299.8 L-88.01 -298.8 L-88.01 -297.8 L-88.02 -296.8 L-88.03 -295.8 L-88.04 -294.8 L-88.04 -293.8 L-88.05 -292.8 L-88.06 -291.9 L-88.07 -290.9 L-88.08 -289.9 L-88.08 -288.9 L-88.09 -287.9 Z " />
<path stroke="rgb(0,0,0)" stroke-opacity="1" fill="rgb(255,255,255)" fill-opacity="1" d="M324.2 -1.201 L324.2 0.7254 L324.1 2.648 L323.8 4.553 L323.4 6.43 L322.8 8.267 L322.1 10.05 L321.2 11.77 L320.2 13.42 L319.1 14.98 L317.8 16.45 L316.5 17.81 L315 19.06 L313.4 20.19 L311.8 21.19 L310.1 22.06 L308.3 22.79 L306.4 23.38 L304.6 23.82 L302.7 24.1 L300.7 24.24 L298.8 24.22 L296.9 24.05 L295 23.73 L293.1 23.25 L291.3 22.63 L289.5 21.87 L287.8 20.97 L286.2 19.94 L284.7 18.78 L283.2 17.5 L281.9 16.11 L280.7 14.62 L279.6 13.04 L278.6 11.37 L277.8 9.634 L277.1 7.836 L276.5 5.989 L276.1 4.104 L275.9 2.193 L275.8 0.2687 L275.8 -1.657 L276 -3.573 L276.4 -5.466 L276.9 -7.324 L277.6 -9.136 L278.4 -10.89 L279.3 -12.57 L280.4 -14.18 L281.6 -15.7 L282.9 -17.11 L284.3 -18.42 L285.8 -19.61 L287.4 -20.68 L289.1 -21.62 L290.8 -22.42 L292.6 -23.07 L294.5 -23.59 L296.4 -23.95 L298.3 -24.16 L300.2 -24.22 L302.2 -24.12 L304.1 -23.88 L306 -23.48 L307.8 -22.93 L309.6 -22.24 L311.3 -21.41 L313 -20.44 L314.6 -19.34 L316.1 -18.12 L317.5 -16.79 L318.8 -15.35 L319.9 -13.81 L321 -12.18 L321.9 -10.48 L322.6 -8.711 L323.2 -6.887 L323.7 -5.02 L324 -3.121 L324.2 -1.201 Z " />
<path stroke="rgb(0,0,0)" stroke-opacity="1" fill="rgb(255,255,255)" fill-opacity="1" d="M-589.4 -188.8 L-590.4 -188.8 L-591.4 -188.8 L-592.4 -188.9 L-593.4 -188.9 L-594.4 -188.9 L-595.3 -188.9 L-596.3 -189 L-597.3 -189 L-598.3 -189 L-599.3 -189 L-600.3 -189.1 L-601.3 -189.1 L-602.3 -189.1 L-603.3 -189.1 L-604.2 -189.2 L-605.2 -189.2 L-606.2 -189.2 L-607.2 -189.2 L-608.2 -189.3 L-609.2 -189.3 L-610.2 -189.3 L-611.2 -189.3 L-612.2 -189.4 L-613.2 -189.4 L-614.1 -189.4 L-614.1 -190.4 L-614.1 -191.4 L-614.1 -192.4 L-614 -193.4 L-614 -194.4 L-614 -195.4 L-614 -196.3 L-613.9 -197.3 L-613.9 -198.3 L-613.9 -199.3 L-613.9 -200.3 L-613.8 -201.3 L-613.8 -202.3 L-613.8 -203.3 L-613.8 -204.3 L-613.7 -205.2 L-613.7 -206.2 L-613.7 -207.2 L-613.7 -208.2 L-613.6 -209.2 L-613.6 -210.2 L-613.6 -211.2 L-613.6 -212.2 L-613.5 -213.2 L-613.5 -214.1 L-612.5 -214.1 L-611.5 -214.1 L-610.6 -214.1 L-609.6 -214 L-608.6 -214 L-607.6 -214 L-606.6 -214 L-605.6 -213.9 L-604.6 -213.9 L-603.6 -213.9 L-602.6 -213.9 L-601.7 -213.8 L-600.7 -213.8 L-599.7 -213.8 L-598.7 -213.8 L-597.7 -213.7 L-596.7 -213.7 L-595.7 -213.7 L-594.7 -213.7 L-593.7 -213.6 L-592.7 -213.6 L-591.8 -213.6 L-590.8 -213.6 L-589.8 -213.6 L-588.8 -213.5 L-588.8 -212.5 L-588.8 -211.5 L-588.9 -210.6 L-588.9 -209.6 L-588.9 -208.6 L-588.9 -207.6 L-589 -206.6 L-589 -205.6 L-589 -204.6 L-589 -203.6 L-589.1 -202.6 L-589.1 -201.7 L-589.1 -200.7 L-589.1 -199.7 L-589.2 -198.7 L-589.2 -197.7 L-589.2 -196.7 L-589.2 -195.7 L-589.3 -194.7 L-589.3 -193.7 L-589.3 -192.8 L-589.3 -191.8 L-589.4 -190.8 L-589.4 -189.8 L-589.4 -188.8 Z " />
<path stroke="rgb(0,0,0)" stroke-opacity="1" fill="rgb(255,255,255)" fill-opacity="1" d="M-197.6 87.04 L-196.5 87.26 L-195.5 87.55 L-194.5 87.93 L-193.6 88.38 L-192.6 88.9 L-191.8 89.5 L-190.9 90.17 L-190.2 90.9 L-189.5 91.68 L-188.8 92.52 L-188.3 93.41 L-187.8 94.34 L-187.3 95.31 L-187 96.31 L-186.7 97.34 L-186.5 98.38 L-186.4 99.43 L-186.4 100.5 L-186.5 101.5 L-186.6 102.6 L-186.9 103.6 L-187.2 104.6 L-187.6 105.6 L-188.1 106.6 L-188.6 107.5 L-189.2 108.3 L-189.9 109.1 L-190.6 109.9 L-191.4 110.6 L-192.3 111.2 L-193.2 111.8 L-194.1 112.2 L-195.1 112.6 L-196.1 113 L-197.1 113.2 L-198.2 113.4 L-199.2 113.5 L-200.3 113.4 L-201.4 113.4 L-202.4 113.2 L-203.4 112.9 L-204.4 112.6 L-205.4 112.2 L-206.3 111.7 L-207.2 111.1 L-208.1 110.5 L-208.9 109.8 L-209.6 109 L-210.3 108.2 L-210.9 107.4 L-211.4 106.5 L-211.9 105.5 L-212.3 104.5 L-212.6 103.5 L-212.8 102.5 L-213 101.4 L-213 100.4 L-213 99.31 L-212.9 98.26 L-212.7 97.22 L-212.4 96.2 L-212.1 95.2 L-211.6 94.24 L-211.1 93.31 L-210.5 92.43 L-209.9 91.59 L-209.2 90.81 L-208.4 90.09 L-207.6 89.43 L-206.7 88.84 L-205.8 88.33 L-204.8 87.88 L-203.8 87.52 L-202.8 87.23 L-201.8 87.02 L-200.7 86.9 L-199.7 86.87 L-198.6 86.91 L-197.6 87.04 Z " />
<path stroke="rgb(0,0,0)" stroke-opacity="1" fill="rgb(255,255,255)" fill-opacity="1" d="M-388.1 -187.9 L-389.1 -187.9 L-390.1 -187.9 L-391.1 -187.9 L-392.1 -187.9 L-393.1 -188 L-394 -188 L-395 -188 L-396 -188 L-397 -188 L-398 -188 L-399 -188 L-400 -188 L-401 -188 L-402 -188 L-403 -188 L-403.9 -188 L-404.9 -188.1 L-405.9 -188.1 L-406.9 -188.1 L-407.9 -188.1 L-408.9 -188.1 L-409.9 -188.1 L-410.9 -188.1 L-411.9 -188.1 L-412.8 -188.1 L-412.8 -189.1 L-412.8 -190.1 L-412.8 -191.1 L-412.8 -192.1 L-412.8 -193.1 L-412.8 -194 L-412.8 -195 L-412.8 -196 L-412.8 -197 L-412.8 -198 L-412.8 -199 L-412.8 -200 L-412.7 -201 L-412.7 -202 L-412.7 -203 L-412.7 -203.9 L-412.7 -204.9 L-412.7 -205.9 L-412.7 -206.9 L-412.7 -207.9 L-412.7 -208.9 L-412.7 -209.9 L-412.7 -210.9 L-412.7 -211.9 L-412.6 -212.8 L-411.7 -212.8 L-410.7 -212.8 L-409.7 -212.8 L-408.7 -212.8 L-407.7 -212.8 L-406.7 -212.8 L-405.7 -212.8 L-404.7 -212.8 L-403.7 -212.8 L-402.8 -212.8 L-401.8 -212.8 L-400.8 -212.8 L-399.8 -212.7 L-398.8 -212.7 L-397.8 -212.7 L-396.8 -212.7 L-395.8 -212.7 L-394.8 -212.7 L-393.9 -212.7 L-392.9 -212.7 L-391.9 -212.7 L-390.9 -212.7 L-389.9 -212.7 L-388.9 -212.7 L-387.9 -212.7 L-387.9 -211.7 L-387.9 -210.7 L-387.9 -209.7 L-387.9 -208.7 L-388 -207.7 L-388 -206.7 L-388 -205.7 L-388 -204.7 L-388 -203.7 L-388 -202.8 L-388 -201.8 L-388 -200.8 L-388 -199.8 L-388 -198.8 L-388 -197.8 L-388 -196.8 L-388 -195.8 L-388.1 -194.8 L-388.1 -193.9 L-388.1 -192.9 L-388.1 -191.9 L-388.1 -190.9 L-388.1 -189.9 L-388.1 -188.9 L-388.1 -187.9 Z " />
<path stroke="rgb(0,0,0)" stroke-opacity="1" fill="rgb(255,255,255)" fill-opacity="1" d="M15.84 89.43 L16.64 90.71 L17.33 92.05 L17.92 93.44 L18.4 94.88 L18.76 96.35 L19 97.84 L19.12 99.35 L19.12 100.9 L19 102.4 L18.77 103.9 L18.41 105.3 L17.94 106.8 L17.36 108.2 L16.67 109.5 L15.87 110.8 L14.97 112 L13.98 113.2 L12.9 114.2 L11.74 115.2 L10.51 116.1 L9.211 116.8 L7.855 117.5 L6.45 118.1 L5.005 118.5 L3.529 118.8 L2.032 119.1 L0.5224 119.2 L-0.9898 119.1 L-2.495 119 L-3.984 118.7 L-5.446 118.3 L-6.874 117.8 L-8.257 117.2 L-9.588 116.5 L-10.86 115.7 L-12.06 114.7 L-13.18 113.7 L-14.22 112.6 L-15.17 111.5 L-16.02 110.2 L-16.77 108.9 L-17.41 107.5 L-17.94 106.1 L-18.36 104.7 L-18.66 103.2 L-18.84 101.7 L-18.9 100.2 L-18.85 98.65 L-18.67 97.15 L-18.37 95.67 L-17.96 94.21 L-17.43 92.79 L-16.79 91.42 L-16.05 90.11 L-15.2 88.85 L-14.25 87.67 L-13.22 86.57 L-12.1 85.55 L-10.9 84.63 L-9.636 83.8 L-8.308 83.08 L-6.926 82.46 L-5.5 81.96 L-4.039 81.57 L-2.551 81.3 L-1.046 81.15 L0.466 81.12 L1.976 81.2 L3.474 81.41 L4.951 81.74 L6.397 82.18 L7.804 82.74 L9.162 83.4 L10.46 84.17 L11.7 85.05 L12.86 86.01 L13.94 87.07 L14.94 88.21 L15.84 89.43 Z " />
<path stroke="rgb(0,0,0)" stroke-opacity="1" fill="rgb(255,255,255)" fill-opacity="1" d="M-188.1 -187.9 L-189.1 -187.9 L-190.1 -187.9 L-191.1 -187.9 L-192 -187.9 L-193 -187.9 L-194 -187.9 L-195 -188 L-196 -188 L-197 -188 L-198 -188 L-199 -188 L-200 -188 L-201 -188 L-201.9 -188 L-202.9 -188 L-203.9 -188 L-204.9 -188 L-205.9 -188 L-206.9 -188 L-207.9 -188.1 L-208.9 -188.1 L-209.9 -188.1 L-210.8 -188.1 L-211.8 -188.1 L-212.8 -188.1 L-212.8 -189.1 L-212.8 -190.1 L-212.8 -191.1 L-212.8 -192.1 L-212.8 -193 L-212.8 -194 L-212.8 -195 L-212.8 -196 L-212.8 -197 L-212.7 -198 L-212.7 -199 L-212.7 -200 L-212.7 -201 L-212.7 -201.9 L-212.7 -202.9 L-212.7 -203.9 L-212.7 -204.9 L-212.7 -205.9 L-212.7 -206.9 L-212.7 -207.9 L-212.7 -208.9 L-212.7 -209.9 L-212.6 -210.8 L-212.6 -211.8 L-212.6 -212.8 L-211.6 -212.8 L-210.7 -212.8 L-209.7 -212.8 L-208.7 -212.8 L-207.7 -212.8 L-206.7 -212.8 L-205.7 -212.8 L-204.7 -212.8 L-203.7 -212.8 L-202.7 -212.8 L-201.8 -212.7 L-200.8 -212.7 L-199.8 -212.7 L-198.8 -212.7 L-197.8 -212.7 L-196.8 -212.7 L-195.8 -212.7 L-194.8 -212.7 L-193.8 -212.7 L-192.8 -212.7 L-191.9 -212.7 L-190.9 -212.7 L-189.9 -212.7 L-188.9 -212.6 L-187.9 -212.6 L-187.9 -211.6 L-187.9 -210.7 L-187.9 -209.7 L-187.9 -208.7 L-187.9 -207.7 L-187.9 -206.7 L-188 -205.7 L-188 -204.7 L-188 -203.7 L-188 -202.7 L-188 -201.8 L-188 -200.8 L-188 -199.8 L-188 -198.8 L-188 -197.8 L-188 -196.8 L-188 -195.8 L-188 -194.8 L-188 -193.8 L-188.1 -192.8 L-188.1 -191.9 L-188.1 -190.9 L-188.1 -189.9 L-188.1 -188.9 L-188.1 -187.9 Z " />
<path stroke="rgb(0,0,0)" stroke-opacity="1" fill="rgb(255,255,255)" fill-opacity="1" d="M224.2 98.8 L224.2 100.7 L224.1 102.6 L223.8 104.6 L223.4 106.4 L222.8 108.3 L222.1 110.1 L221.2 111.8 L220.2 113.4 L219.1 115 L217.8 116.4 L216.5 117.8 L215 119.1 L213.4 120.2 L211.8 121.2 L210.1 122.1 L208.3 122.8 L206.4 123.4 L204.6 123.8 L202.7 124.1 L200.7 124.2 L198.8 124.2 L196.9 124 L195 123.7 L193.1 123.3 L191.3 122.6 L189.5 121.9 L187.8 121 L186.2 119.9 L184.7 118.8 L183.2 117.5 L181.9 116.1 L180.7 114.6 L179.6 113 L178.6 111.4 L177.8 109.6 L177.1 107.8 L176.5 106 L176.1 104.1 L175.9 102.2 L175.8 100.3 L175.8 98.34 L176 96.43 L176.4 94.53 L176.9 92.68 L177.6 90.86 L178.4 89.11 L179.3 87.43 L180.4 85.82 L181.6 84.3 L182.9 82.89 L184.3 81.58 L185.8 80.39 L187.4 79.32 L189.1 78.38 L190.8 77.58 L192.6 76.93 L194.5 76.41 L196.4 76.05 L198.3 75.84 L200.2 75.78 L202.2 75.88 L204.1 76.12 L206 76.52 L207.8 77.07 L209.6 77.76 L211.3 78.59 L213 79.56 L214.6 80.66 L216.1 81.88 L217.5 83.21 L218.8 84.65 L219.9 86.19 L221 87.82 L221.9 89.52 L222.6 91.29 L223.2 93.11 L223.7 94.98 L224 96.88 L224.2 98.8 Z " />
<path stroke="rgb(0,0,0)" stroke-opacity="1" fill="rgb(255,255,255)" fill-opacity="1" d="M11.91 -187.9 L10.92 -187.9 L9.931 -187.9 L8.941 -187.9 L7.952 -187.9 L6.962 -187.9 L5.973 -187.9 L4.984 -188 L3.994 -188 L3.005 -188 L2.016 -188 L1.026 -188 L0.03675 -188 L-0.9526 -188 L-1.942 -188 L-2.931 -188 L-3.921 -188 L-4.91 -188 L-5.9 -188 L-6.889 -188 L-7.878 -188.1 L-8.868 -188.1 L-9.857 -188.1 L-10.85 -188.1 L-11.84 -188.1 L-12.83 -188.1 L-12.82 -189.1 L-12.81 -190.1 L-12.8 -191.1 L-12.79 -192.1 L-12.79 -193 L-12.78 -194 L-12.77 -195 L-12.76 -196 L-12.76 -197 L-12.75 -198 L-12.74 -199 L-12.73 -200 L-12.73 -201 L-12.72 -201.9 L-12.71 -202.9 L-12.7 -203.9 L-12.7 -204.9 L-12.69 -205.9 L-12.68 -206.9 L-12.67 -207.9 L-12.66 -208.9 L-12.66 -209.9 L-12.65 -210.8 L-12.64 -211.8 L-12.63 -212.8 L-11.65 -212.8 L-10.66 -212.8 L-9.666 -212.8 L-8.677 -212.8 L-7.688 -212.8 L-6.698 -212.8 L-5.709 -212.8 L-4.719 -212.8 L-3.73 -212.8 L-2.741 -212.8 L-1.751 -212.7 L-0.7618 -212.7 L0.2275 -212.7 L1.217 -212.7 L2.206 -212.7 L3.196 -212.7 L4.185 -212.7 L5.174 -212.7 L6.164 -212.7 L7.153 -212.7 L8.143 -212.7 L9.132 -212.7 L10.12 -212.7 L11.11 -212.6 L12.1 -212.6 L12.09 -211.6 L12.08 -210.7 L12.08 -209.7 L12.07 -208.7 L12.06 -207.7 L12.05 -206.7 L12.05 -205.7 L12.04 -204.7 L12.03 -203.7 L12.02 -202.7 L12.02 -201.8 L12.01 -200.8 L12 -199.8 L11.99 -198.8 L11.99 -197.8 L11.98 -196.8 L11.97 -195.8 L11.96 -194.8 L11.96 -193.8 L11.95 -192.8 L11.94 -191.9 L11.93 -190.9 L11.92 -189.9 L11.92 -188.9 L11.91 -187.9 Z " />
<path stroke="rgb(0,0,0)" stroke-opacity="1" fill="rgb(255,255,255)" fill-opacity="1" d="M-297.6 187 L-296.5 187.3 L-295.5 187.6 L-294.5 187.9 L-293.6 188.4 L-292.6 188.9 L-291.8 189.5 L-290.9 190.2 L-290.2 190.9 L-289.5 191.7 L-288.8 192.5 L-288.3 193.4 L-287.8 194.3 L-287.3 195.3 L-287 196.3 L-286.7 197.3 L-286.5 198.4 L-286.4 199.4 L-286.4 200.5 L-286.5 201.5 L-286.6 202.6 L-286.9 203.6 L-287.2 204.6 L-287.6 205.6 L-288.1 206.6 L-288.6 207.5 L-289.2 208.3 L-289.9 209.1 L-290.6 209.9 L-291.4 210.6 L-292.3 211.2 L-293.2 211.8 L-294.1 212.2 L-295.1 212.6 L-296.1 213 L-297.1 213.2 L-298.2 213.4 L-299.2 213.5 L-300.3 213.4 L-301.4 213.4 L-302.4 213.2 L-303.4 212.9 L-304.4 212.6 L-305.4 212.2 L-306.3 211.7 L-307.2 211.1 L-308.1 210.5 L-308.9 209.8 L-309.6 209 L-310.3 208.2 L-310.9 207.4 L-311.4 206.5 L-311.9 205.5 L-312.3 204.5 L-312.6 203.5 L-312.8 202.5 L-313 201.4 L-313 200.4 L-313 199.3 L-312.9 198.3 L-312.7 197.2 L-312.4 196.2 L-312.1 195.2 L-311.6 194.2 L-311.1 193.3 L-310.5 192.4 L-309.9 191.6 L-309.2 190.8 L-308.4 190.1 L-307.6 189.4 L-306.7 188.8 L-305.8 188.3 L-304.8 187.9 L-303.8 187.5 L-302.8 187.2 L-301.8 187 L-300.7 186.9 L-299.7 186.9 L-298.6 186.9 L-297.6 187 Z " />
<path stroke="rgb(0,0,0)" stroke-opacity="1" fill="rgb(255,255,255)" fill-opacity="1" d="M-488.1 -87.92 L-489.1 -87.92 L-490.1 -87.93 L-491.1 -87.94 L-492.1 -87.95 L-493.1 -87.96 L-494 -87.96 L-495 -87.97 L-496 -87.98 L-497 -87.99 L-498 -87.99 L-499 -88 L-500 -88.01 L-501 -88.02 L-502 -88.03 L-503 -88.03 L-503.9 -88.04 L-504.9 -88.05 L-505.9 -88.06 L-506.9 -88.07 L-507.9 -88.07 L-508.9 -88.08 L-509.9 -88.09 L-510.9 -88.1 L-511.9 -88.11 L-512.8 -88.11 L-512.8 -89.1 L-512.8 -90.09 L-512.8 -91.08 L-512.8 -92.07 L-512.8 -93.06 L-512.8 -94.05 L-512.8 -95.04 L-512.8 -96.03 L-512.8 -97.02 L-512.8 -98.01 L-512.8 -99 L-512.8 -99.99 L-512.7 -101 L-512.7 -102 L-512.7 -103 L-512.7 -103.9 L-512.7 -104.9 L-512.7 -105.9 L-512.7 -106.9 L-512.7 -107.9 L-512.7 -108.9 L-512.7 -109.9 L-512.7 -110.9 L-512.7 -111.9 L-512.6 -112.8 L-511.7 -112.8 L-510.7 -112.8 L-509.7 -112.8 L-508.7 -112.8 L-507.7 -112.8 L-506.7 -112.8 L-505.7 -112.8 L-504.7 -112.8 L-503.7 -112.8 L-502.8 -112.8 L-501.8 -112.8 L-500.8 -112.8 L-499.8 -112.7 L-498.8 -112.7 L-497.8 -112.7 L-496.8 -112.7 L-495.8 -112.7 L-494.8 -112.7 L-493.9 -112.7 L-492.9 -112.7 L-491.9 -112.7 L-490.9 -112.7 L-489.9 -112.7 L-488.9 -112.7 L-487.9 -112.7 L-487.9 -111.7 L-487.9 -110.7 L-487.9 -109.7 L-487.9 -108.7 L-488 -107.7 L-488 -106.7 L-488 -105.7 L-488 -104.7 L-488 -103.7 L-488 -102.8 L-488 -101.8 L-488 -100.8 L-488 -99.79 L-488 -98.8 L-488 -97.81 L-488 -96.82 L-488 -95.83 L-488.1 -94.84 L-488.1 -93.85 L-488.1 -92.86 L-488.1 -91.87 L-488.1 -90.88 L-488.1 -89.89 L-488.1 -88.91 L-488.1 -87.92 Z " />
<path stroke="rgb(0,0,0)" stroke-opacity="1" fill="rgb(255,255,255)" fill-opacity="1" d="M-84.16 189.4 L-83.36 190.7 L-82.67 192.1 L-82.08 193.4 L-81.6 194.9 L-81.24 196.3 L-81 197.8 L-80.88 199.3 L-80.88 200.9 L-81 202.4 L-81.23 203.9 L-81.59 205.3 L-82.06 206.8 L-82.64 208.2 L-83.33 209.5 L-84.13 210.8 L-85.03 212 L-86.02 213.2 L-87.1 214.2 L-88.26 215.2 L-89.49 216.1 L-90.79 216.8 L-92.14 217.5 L-93.55 218.1 L-94.99 218.5 L-96.47 218.8 L-97.97 219.1 L-99.48 219.2 L-101 219.1 L-102.5 219 L-104 218.7 L-105.4 218.3 L-106.9 217.8 L-108.3 217.2 L-109.6 216.5 L-110.9 215.7 L-112.1 214.7 L-113.2 213.7 L-114.2 212.6 L-115.2 211.5 L-116 210.2 L-116.8 208.9 L-117.4 207.5 L-117.9 206.1 L-118.4 204.7 L-118.7 203.2 L-118.8 201.7 L-118.9 200.2 L-118.8 198.7 L-118.7 197.1 L-118.4 195.7 L-118 194.2 L-117.4 192.8 L-116.8 191.4 L-116 190.1 L-115.2 188.9 L-114.3 187.7 L-113.2 186.6 L-112.1 185.6 L-110.9 184.6 L-109.6 183.8 L-108.3 183.1 L-106.9 182.5 L-105.5 182 L-104 181.6 L-102.6 181.3 L-101 181.1 L-99.53 181.1 L-98.02 181.2 L-96.53 181.4 L-95.05 181.7 L-93.6 182.2 L-92.2 182.7 L-90.84 183.4 L-89.54 184.2 L-88.3 185 L-87.14 186 L-86.06 187.1 L-85.06 188.2 L-84.16 189.4 Z " />
<path stroke="rgb(0,0,0)" stroke-opacity="1" fill="rgb(255,255,255)" fill-opacity="1" d="M-288.1 -87.9 L-289.1 -87.91 L-290.1 -87.92 L-291.1 -87.92 L-292 -87.93 L-293 -87.94 L-294 -87.95 L-295 -87.96 L-296 -87.96 L-297 -87.97 L-298 -87.98 L-299 -87.99 L-300 -87.99 L-301 -88 L-301.9 -88.01 L-302.9 -88.02 L-303.9 -88.02 L-304.9 -88.03 L-305.9 -88.04 L-306.9 -88.05 L-307.9 -88.05 L-308.9 -88.06 L-309.9 -88.07 L-310.8 -88.08 L-311.8 -88.08 L-312.8 -88.09 L-312.8 -89.08 L-312.8 -90.07 L-312.8 -91.06 L-312.8 -92.05 L-312.8 -93.04 L-312.8 -94.03 L-312.8 -95.02 L-312.8 -96.01 L-312.8 -97 L-312.7 -97.99 L-312.7 -98.98 L-312.7 -99.97 L-312.7 -101 L-312.7 -101.9 L-312.7 -102.9 L-312.7 -103.9 L-312.7 -104.9 L-312.7 -105.9 L-312.7 -106.9 L-312.7 -107.9 L-312.7 -108.9 L-312.7 -109.9 L-312.6 -110.8 L-312.6 -111.8 L-312.6 -112.8 L-311.6 -112.8 L-310.7 -112.8 L-309.7 -112.8 L-308.7 -112.8 L-307.7 -112.8 L-306.7 -112.8 L-305.7 -112.8 L-304.7 -112.8 L-303.7 -112.8 L-302.7 -112.8 L-301.8 -112.7 L-300.8 -112.7 L-299.8 -112.7 L-298.8 -112.7 L-297.8 -112.7 L-296.8 -112.7 L-295.8 -112.7 L-294.8 -112.7 L-293.8 -112.7 L-292.8 -112.7 L-291.9 -112.7 L-290.9 -112.7 L-289.9 -112.7 L-288.9 -112.6 L-287.9 -112.6 L-287.9 -111.6 L-287.9 -110.7 L-287.9 -109.7 L-287.9 -108.7 L-287.9 -107.7 L-287.9 -106.7 L-288 -105.7 L-288 -104.7 L-288 -103.7 L-288 -102.7 L-288 -101.8 L-288 -100.8 L-288 -99.77 L-288 -98.78 L-288 -97.8 L-288 -96.81 L-288 -95.82 L-288 -94.83 L-288 -93.84 L-288.1 -92.85 L-288.1 -91.86 L-288.1 -90.87 L-288.1 -89.88 L-288.1 -88.89 L-288.1 -87.9 Z " />
<path stroke="rgb(0,0,0)" stroke-opacity="1" fill="rgb(255,255,255)" fill-opacity="1" d="M124.2 198.8 L124.2 200.7 L124.1 202.6 L123.8 204.6 L123.4 206.4 L122.8 208.3 L122.1 210.1 L121.2 211.8 L120.2 213.4 L119.1 215 L117.8 216.4 L116.5 217.8 L115 219.1 L113.4 220.2 L111.8 221.2 L110.1 222.1 L108.3 222.8 L106.4 223.4 L104.6 223.8 L102.7 224.1 L100.7 224.2 L98.82 224.2 L96.9 224 L95 223.7 L93.13 223.3 L91.31 222.6 L89.54 221.9 L87.83 221 L86.21 219.9 L84.67 218.8 L83.23 217.5 L81.89 216.1 L80.67 214.6 L79.57 213 L78.6 211.4 L77.77 209.6 L77.07 207.8 L76.52 206 L76.12 204.1 L75.87 202.2 L75.78 200.3 L75.83 198.3 L76.04 196.4 L76.4 194.5 L76.91 192.7 L77.57 190.9 L78.37 189.1 L79.3 187.4 L80.37 185.8 L81.56 184.3 L82.86 182.9 L84.28 181.6 L85.79 180.4 L87.4 179.3 L89.08 178.4 L90.84 177.6 L92.65 176.9 L94.5 176.4 L96.4 176.1 L98.31 175.8 L100.2 175.8 L102.2 175.9 L104.1 176.1 L106 176.5 L107.8 177.1 L109.6 177.8 L111.3 178.6 L113 179.6 L114.6 180.7 L116.1 181.9 L117.5 183.2 L118.8 184.7 L119.9 186.2 L121 187.8 L121.9 189.5 L122.6 191.3 L123.2 193.1 L123.7 195 L124 196.9 L124.2 198.8 Z " />
<path stroke="rgb(0,0,0)" stroke-opacity="1" fill="rgb(255,255,255)" fill-opacity="1" d="M-88.09 -87.9 L-89.08 -87.91 L-90.07 -87.92 L-91.06 -87.92 L-92.05 -87.93 L-93.04 -87.94 L-94.03 -87.95 L-95.02 -87.96 L-96.01 -87.96 L-97 -87.97 L-97.98 -87.98 L-98.97 -87.99 L-99.96 -87.99 L-101 -88 L-101.9 -88.01 L-102.9 -88.02 L-103.9 -88.02 L-104.9 -88.03 L-105.9 -88.04 L-106.9 -88.05 L-107.9 -88.05 L-108.9 -88.06 L-109.9 -88.07 L-110.8 -88.08 L-111.8 -88.08 L-112.8 -88.09 L-112.8 -89.08 L-112.8 -90.07 L-112.8 -91.06 L-112.8 -92.05 L-112.8 -93.04 L-112.8 -94.03 L-112.8 -95.02 L-112.8 -96.01 L-112.8 -97 L-112.7 -97.99 L-112.7 -98.98 L-112.7 -99.97 L-112.7 -101 L-112.7 -101.9 L-112.7 -102.9 L-112.7 -103.9 L-112.7 -104.9 L-112.7 -105.9 L-112.7 -106.9 L-112.7 -107.9 L-112.7 -108.9 L-112.7 -109.9 L-112.6 -110.8 L-112.6 -111.8 L-112.6 -112.8 L-111.6 -112.8 L-110.7 -112.8 L-109.7 -112.8 L-108.7 -112.8 L-107.7 -112.8 L-106.7 -112.8 L-105.7 -112.8 L-104.7 -112.8 L-103.7 -112.8 L-102.7 -112.8 L-101.8 -112.7 L-100.8 -112.7 L-99.77 -112.7 L-98.78 -112.7 L-97.79 -112.7 L-96.8 -112.7 L-95.81 -112.7 L-94.83 -112.7 L-93.84 -112.7 L-92.85 -112.7 L-91.86 -112.7 L-90.87 -112.7 L-89.88 -112.7 L-88.89 -112.6 L-87.9 -112.6 L-87.91 -111.6 L-87.92 -110.7 L-87.92 -109.7 L-87.93 -108.7 L-87.94 -107.7 L-87.95 -106.7 L-87.95 -105.7 L-87.96 -104.7 L-87.97 -103.7 L-87.98 -102.7 L-87.98 -101.8 L-87.99 -100.8 L-88 -99.77 L-88.01 -98.78 L-88.01 -97.8 L-88.02 -96.81 L-88.03 -95.82 L-88.04 -94.83 L-88.04 -93.84 L-88.05 -92.85 L-88.06 -91.86 L-88.07 -90.87 L-88.08 -89.88 L-88.08 -88.89 L-88.09 -87.9 Z " />
<path stroke="rgb(0,0,0)" stroke-opacity="1" fill="rgb(255,255,255)" fill-opacity="1" d="M324.9 200.2 L324.8 202.1 L324.5 204.1 L324.1 206 L323.6 207.9 L322.8 209.8 L322 211.6 L321 213.3 L319.9 214.9 L318.6 216.4 L317.3 217.9 L315.8 219.2 L314.2 220.4 L312.6 221.4 L310.8 222.4 L309 223.2 L307.1 223.8 L305.2 224.3 L303.3 224.6 L301.3 224.8 L299.3 224.8 L297.4 224.7 L295.4 224.4 L293.5 224 L291.6 223.4 L289.8 222.6 L288 221.8 L286.3 220.7 L284.7 219.6 L283.2 218.3 L281.8 216.9 L280.5 215.4 L279.4 213.8 L278.3 212.1 L277.4 210.4 L276.7 208.6 L276.1 206.7 L275.6 204.7 L275.3 202.8 L275.2 200.8 L275.2 198.8 L275.3 196.9 L275.7 194.9 L276.2 193 L276.8 191.1 L277.6 189.3 L278.5 187.6 L279.5 185.9 L280.7 184.3 L282 182.8 L283.4 181.5 L285 180.2 L286.6 179.1 L288.3 178.1 L290.1 177.2 L291.9 176.5 L293.8 175.9 L295.7 175.5 L297.7 175.3 L299.7 175.1 L301.6 175.2 L303.6 175.4 L305.6 175.8 L307.5 176.3 L309.3 177 L311.1 177.8 L312.9 178.7 L314.5 179.8 L316.1 181 L317.5 182.4 L318.9 183.8 L320.1 185.4 L321.2 187 L322.2 188.7 L323 190.5 L323.7 192.4 L324.2 194.3 L324.6 196.2 L324.8 198.2 L324.9 200.2 Z " />
<path stroke="rgb(0,0,0)" stroke-opacity="1" fill="rgb(255,255,255)" fill-opacity="1" d="M-588.1 12.08 L-589.1 12.08 L-590.1 12.07 L-591.1 12.06 L-592.1 12.05 L-593.1 12.04 L-594 12.04 L-595 12.03 L-596 12.02 L-597 12.01 L-598 12.01 L-599 12 L-600 11.99 L-601 11.98 L-602 11.97 L-603 11.97 L-603.9 11.96 L-604.9 11.95 L-605.9 11.94 L-606.9 11.93 L-607.9 11.93 L-608.9 11.92 L-609.9 11.91 L-610.9 11.9 L-611.9 11.89 L-612.8 11.89 L-612.8 10.9 L-612.8 9.908 L-612.8 8.919 L-612.8 7.929 L-612.8 6.94 L-612.8 5.95 L-612.8 4.961 L-612.8 3.972 L-612.8 2.982 L-612.8 1.993 L-612.8 1.004 L-612.8 0.01419 L-612.7 -0.9752 L-612.7 -1.965 L-612.7 -2.954 L-612.7 -3.943 L-612.7 -4.933 L-612.7 -5.922 L-612.7 -6.911 L-612.7 -7.901 L-612.7 -8.89 L-612.7 -9.88 L-612.7 -10.87 L-612.7 -11.86 L-612.6 -12.85 L-611.7 -12.84 L-610.7 -12.83 L-609.7 -12.82 L-608.7 -12.82 L-607.7 -12.81 L-606.7 -12.8 L-605.7 -12.79 L-604.7 -12.78 L-603.7 -12.78 L-602.8 -12.77 L-601.8 -12.76 L-600.8 -12.75 L-599.8 -12.75 L-598.8 -12.74 L-597.8 -12.73 L-596.8 -12.72 L-595.8 -12.71 L-594.8 -12.71 L-593.9 -12.7 L-592.9 -12.69 L-591.9 -12.68 L-590.9 -12.67 L-589.9 -12.67 L-588.9 -12.66 L-587.9 -12.65 L-587.9 -11.66 L-587.9 -10.67 L-587.9 -9.682 L-587.9 -8.693 L-588 -7.703 L-588 -6.714 L-588 -5.725 L-588 -4.735 L-588 -3.746 L-588 -2.756 L-588 -1.767 L-588 -0.7777 L-588 0.2117 L-588 1.201 L-588 2.19 L-588 3.18 L-588 4.169 L-588.1 5.159 L-588.1 6.148 L-588.1 7.137 L-588.1 8.127 L-588.1 9.116 L-588.1 10.11 L-588.1 11.09 L-588.1 12.08 Z " />
<path stroke="rgb(0,0,0)" stroke-opacity="1" fill="rgb(255,255,255)" fill-opacity="1" d="M-184.2 289.4 L-183.4 290.7 L-182.7 292.1 L-182.1 293.4 L-181.6 294.9 L-181.2 296.3 L-181 297.8 L-180.9 299.3 L-180.9 300.9 L-181 302.4 L-181.2 303.9 L-181.6 305.3 L-182.1 306.8 L-182.6 308.2 L-183.3 309.5 L-184.1 310.8 L-185 312 L-186 313.2 L-187.1 314.2 L-188.3 315.2 L-189.5 316.1 L-190.8 316.8 L-192.1 317.5 L-193.5 318.1 L-195 318.5 L-196.5 318.8 L-198 319.1 L-199.5 319.2 L-201 319.1 L-202.5 319 L-204 318.7 L-205.4 318.3 L-206.9 317.8 L-208.3 317.2 L-209.6 316.5 L-210.9 315.7 L-212.1 314.7 L-213.2 313.7 L-214.2 312.6 L-215.2 311.5 L-216 310.2 L-216.8 308.9 L-217.4 307.5 L-217.9 306.1 L-218.4 304.7 L-218.7 303.2 L-218.8 301.7 L-218.9 300.2 L-218.8 298.7 L-218.7 297.1 L-218.4 295.7 L-218 294.2 L-217.4 292.8 L-216.8 291.4 L-216 290.1 L-215.2 288.9 L-214.3 287.7 L-213.2 286.6 L-212.1 285.6 L-210.9 284.6 L-209.6 283.8 L-208.3 283.1 L-206.9 282.5 L-205.5 282 L-204 281.6 L-202.6 281.3 L-201 281.1 L-199.5 281.1 L-198 281.2 L-196.5 281.4 L-195 281.7 L-193.6 282.2 L-192.2 282.7 L-190.8 283.4 L-189.5 284.2 L-188.3 285 L-187.1 286 L-186.1 287.1 L-185.1 288.2 L-184.2 289.4 Z " />
<path stroke="rgb(0,0,0)" stroke-opacity="1" fill="rgb(255,255,255)" fill-opacity="1" d="M-388.1 12.1 L-389.1 12.09 L-390.1 12.08 L-391.1 12.08 L-392 12.07 L-393 12.06 L-394 12.05 L-395 12.04 L-396 12.04 L-397 12.03 L-398 12.02 L-399 12.01 L-400 12.01 L-401 12 L-401.9 11.99 L-402.9 11.98 L-403.9 11.98 L-404.9 11.97 L-405.9 11.96 L-406.9 11.95 L-407.9 11.95 L-408.9 11.94 L-409.9 11.93 L-410.8 11.92 L-411.8 11.92 L-412.8 11.91 L-412.8 10.92 L-412.8 9.929 L-412.8 8.939 L-412.8 7.95 L-412.8 6.961 L-412.8 5.971 L-412.8 4.982 L-412.8 3.992 L-412.8 3.003 L-412.7 2.014 L-412.7 1.024 L-412.7 0.03486 L-412.7 -0.9545 L-412.7 -1.944 L-412.7 -2.933 L-412.7 -3.923 L-412.7 -4.912 L-412.7 -5.901 L-412.7 -6.891 L-412.7 -7.88 L-412.7 -8.87 L-412.7 -9.859 L-412.6 -10.85 L-412.6 -11.84 L-412.6 -12.83 L-411.6 -12.82 L-410.7 -12.81 L-409.7 -12.8 L-408.7 -12.8 L-407.7 -12.79 L-406.7 -12.78 L-405.7 -12.77 L-404.7 -12.77 L-403.7 -12.76 L-402.7 -12.75 L-401.8 -12.74 L-400.8 -12.74 L-399.8 -12.73 L-398.8 -12.72 L-397.8 -12.71 L-396.8 -12.7 L-395.8 -12.7 L-394.8 -12.69 L-393.8 -12.68 L-392.8 -12.67 L-391.9 -12.67 L-390.9 -12.66 L-389.9 -12.65 L-388.9 -12.64 L-387.9 -12.64 L-387.9 -11.65 L-387.9 -10.66 L-387.9 -9.668 L-387.9 -8.679 L-387.9 -7.689 L-387.9 -6.7 L-388 -5.711 L-388 -4.721 L-388 -3.732 L-388 -2.742 L-388 -1.753 L-388 -0.7637 L-388 0.2256 L-388 1.215 L-388 2.204 L-388 3.194 L-388 4.183 L-388 5.173 L-388 6.162 L-388.1 7.151 L-388.1 8.141 L-388.1 9.13 L-388.1 10.12 L-388.1 11.11 L-388.1 12.1 Z " />
<path stroke="rgb(0,0,0)" stroke-opacity="1" fill="rgb(255,255,255)" fill-opacity="1" d="M24.21 298.8 L24.23 300.7 L24.1 302.6 L23.82 304.6 L23.38 306.4 L22.8 308.3 L22.07 310.1 L21.2 311.8 L20.2 313.4 L19.07 315 L17.82 316.4 L16.46 317.8 L14.99 319.1 L13.43 320.2 L11.79 321.2 L10.07 322.1 L8.285 322.8 L6.449 323.4 L4.573 323.8 L2.667 324.1 L0.7452 324.2 L-1.182 324.2 L-3.101 324 L-5.001 323.7 L-6.869 323.3 L-8.693 322.6 L-10.46 321.9 L-12.17 321 L-13.79 319.9 L-15.33 318.8 L-16.77 317.5 L-18.11 316.1 L-19.33 314.6 L-20.43 313 L-21.4 311.4 L-22.23 309.6 L-22.93 307.8 L-23.48 306 L-23.88 304.1 L-24.13 302.2 L-24.22 300.3 L-24.17 298.3 L-23.96 296.4 L-23.6 294.5 L-23.09 292.7 L-22.43 290.9 L-21.63 289.1 L-20.7 287.4 L-19.63 285.8 L-18.44 284.3 L-17.14 282.9 L-15.72 281.6 L-14.21 280.4 L-12.6 279.3 L-10.92 278.4 L-9.164 277.6 L-7.353 276.9 L-5.495 276.4 L-3.603 276.1 L-1.688 275.8 L0.2384 275.8 L2.163 275.9 L4.074 276.1 L5.959 276.5 L7.807 277.1 L9.605 277.8 L11.34 278.6 L13.01 279.6 L14.59 280.7 L16.08 281.9 L17.47 283.2 L18.75 284.7 L19.92 286.2 L20.95 287.8 L21.85 289.5 L22.62 291.3 L23.24 293.1 L23.72 295 L24.04 296.9 L24.21 298.8 Z " />
<path stroke="rgb(0,0,0)" stroke-opacity="1" fill="rgb(255,255,255)" fill-opacity="1" d="M-188.1 12.1 L-189.1 12.09 L-190.1 12.08 L-191.1 12.08 L-192 12.07 L-193 12.06 L-194 12.05 L-195 12.04 L-196 12.04 L-197 12.03 L-198 12.02 L-199 12.01 L-200 12.01 L-201 12 L-201.9 11.99 L-202.9 11.98 L-203.9 11.98 L-204.9 11.97 L-205.9 11.96 L-206.9 11.95 L-207.9 11.95 L-208.9 11.94 L-209.9 11.93 L-210.8 11.92 L-211.8 11.92 L-212.8 11.91 L-212.8 10.92 L-212.8 9.929 L-212.8 8.939 L-212.8 7.95 L-212.8 6.961 L-212.8 5.971 L-212.8 4.982 L-212.8 3.992 L-212.8 3.003 L-212.7 2.014 L-212.7 1.024 L-212.7 0.03486 L-212.7 -0.9545 L-212.7 -1.944 L-212.7 -2.933 L-212.7 -3.923 L-212.7 -4.912 L-212.7 -5.901 L-212.7 -6.891 L-212.7 -7.88 L-212.7 -8.87 L-212.7 -9.859 L-212.6 -10.85 L-212.6 -11.84 L-212.6 -12.83 L-211.6 -12.82 L-210.7 -12.81 L-209.7 -12.8 L-208.7 -12.8 L-207.7 -12.79 L-206.7 -12.78 L-205.7 -12.77 L-204.7 -12.77 L-203.7 -12.76 L-202.7 -12.75 L-201.8 -12.74 L-200.8 -12.74 L-199.8 -12.73 L-198.8 -12.72 L-197.8 -12.71 L-196.8 -12.7 L-195.8 -12.7 L-194.8 -12.69 L-193.8 -12.68 L-192.8 -12.67 L-191.9 -12.67 L-190.9 -12.66 L-189.9 -12.65 L-188.9 -12.64 L-187.9 -12.64 L-187.9 -11.65 L-187.9 -10.66 L-187.9 -9.668 L-187.9 -8.679 L-187.9 -7.689 L-187.9 -6.7 L-188 -5.711 L-188 -4.721 L-188 -3.732 L-188 -2.742 L-188 -1.753 L-188 -0.7637 L-188 0.2256 L-188 1.215 L-188 2.204 L-188 3.194 L-188 4.183 L-188 5.173 L-188 6.162 L-188.1 7.151 L-188.1 8.141 L-188.1 9.13 L-188.1 10.12 L-188.1 11.11 L-188.1 12.1 Z " />
<path stroke="rgb(0,0,0)" stroke-opacity="1" fill="rgb(255,255,255)" fill-opacity="1" d="M224.9 300.2 L224.8 302.1 L224.5 304.1 L224.1 306 L223.6 307.9 L222.8 309.8 L222 311.6 L221 313.3 L219.9 314.9 L218.6 316.4 L217.3 317.9 L215.8 319.2 L214.2 320.4 L212.6 321.4 L210.8 322.4 L209 323.2 L207.1 323.8 L205.2 324.3 L203.3 324.6 L201.3 324.8 L199.3 324.8 L197.4 324.7 L195.4 324.4 L193.5 324 L191.6 323.4 L189.8 322.6 L188 321.8 L186.3 320.7 L184.7 319.6 L183.2 318.3 L181.8 316.9 L180.5 315.4 L179.4 313.8 L178.3 312.1 L177.4 310.4 L176.7 308.6 L176.1 306.7 L175.6 304.7 L175.3 302.8 L175.2 300.8 L175.2 298.8 L175.3 296.9 L175.7 294.9 L176.2 293 L176.8 291.1 L177.6 289.3 L178.5 287.6 L179.5 285.9 L180.7 284.3 L182 282.8 L183.4 281.5 L185 280.2 L186.6 279.1 L188.3 278.1 L190.1 277.2 L191.9 276.5 L193.8 275.9 L195.7 275.5 L197.7 275.3 L199.7 275.1 L201.6 275.2 L203.6 275.4 L205.6 275.8 L207.5 276.3 L209.3 277 L211.1 277.8 L212.9 278.7 L214.5 279.8 L216.1 281 L217.5 282.4 L218.9 283.8 L220.1 285.4 L221.2 287 L222.2 288.7 L223 290.5 L223.7 292.4 L224.2 294.3 L224.6 296.2 L224.8 298.2 L224.9 300.2 Z " />
<path stroke="rgb(0,0,0)" stroke-opacity="1" fill="rgb(255,255,255)" fill-opacity="1" d="M11.91 12.1 L10.92 12.09 L9.931 12.08 L8.941 12.08 L7.952 12.07 L6.962 12.06 L5.973 12.05 L4.984 12.04 L3.994 12.04 L3.005 12.03 L2.016 12.02 L1.026 12.01 L0.03675 12.01 L-0.9526 12 L-1.942 11.99 L-2.931 11.98 L-3.921 11.98 L-4.91 11.97 L-5.9 11.96 L-6.889 11.95 L-7.878 11.95 L-8.868 11.94 L-9.857 11.93 L-10.85 11.92 L-11.84 11.92 L-12.83 11.91 L-12.82 10.92 L-12.81 9.929 L-12.8 8.939 L-12.79 7.95 L-12.79 6.961 L-12.78 5.971 L-12.77 4.982 L-12.76 3.992 L-12.76 3.003 L-12.75 2.014 L-12.74 1.024 L-12.73 0.03486 L-12.73 -0.9545 L-12.72 -1.944 L-12.71 -2.933 L-12.7 -3.923 L-12.7 -4.912 L-12.69 -5.901 L-12.68 -6.891 L-12.67 -7.88 L-12.66 -8.87 L-12.66 -9.859 L-12.65 -10.85 L-12.64 -11.84 L-12.63 -12.83 L-11.65 -12.82 L-10.66 -12.81 L-9.666 -12.8 L-8.677 -12.8 L-7.688 -12.79 L-6.698 -12.78 L-5.709 -12.77 L-4.719 -12.77 L-3.73 -12.76 L-2.741 -12.75 L-1.751 -12.74 L-0.7618 -12.74 L0.2275 -12.73 L1.217 -12.72 L2.206 -12.71 L3.196 -12.7 L4.185 -12.7 L5.174 -12.69 L6.164 -12.68 L7.153 -12.67 L8.143 -12.67 L9.132 -12.66 L10.12 -12.65 L11.11 -12.64 L12.1 -12.64 L12.09 -11.65 L12.08 -10.66 L12.08 -9.668 L12.07 -8.679 L12.06 -7.689 L12.05 -6.7 L12.05 -5.711 L12.04 -4.721 L12.03 -3.732 L12.02 -2.742 L12.02 -1.753 L12.01 -0.7637 L12 0.2256 L11.99 1.215 L11.99 2.204 L11.98 3.194 L11.97 4.183 L11.96 5.173 L11.96 6.162 L11.95 7.151 L11.94 8.141 L11.93 9.13 L11.92 10.12 L11.92 11.11 L11.91 12.1 Z " />
</g>
</g>
</svg>
