<!DOCTYPE svg>
<svg xmlns="http://www.w3.org/2000/svg" xmlns:xlink="http://www.w3.org/1999/xlink" width="1000" height="1000">
<g transform="translate(500.000000,500.000000)">
<g transform="scale(3.000000,3.000000)">
<path stroke="rgb(0,0,0)" stroke-opacity="1" fill="rgb(255,255,255)" fill-opacity="1" d="M-887.9 -912.2 L-888 -911.3 L-888 -910.3 L-888 -909.3 L-888 -908.3 L-888 -907.3 L-888 -906.3 L-888 -905.4 L-888 -904.4 L-888 -903.4 L-888.1 -902.4 L-888.1 -901.4 L-888.1 -900.5 L-888.1 -899.5 L-888.1 -898.5 L-888.1 -897.5 L-888.1 -896.5 L-888.1 -895.5 L-888.2 -894.6 L-888.2 -893.6 L-888.2 -892.6 L-888.2 -891.6 L-888.2 -890.6 L-888.2 -889.7 L-888.2 -888.7 L-888.2 -887.7 L-889.2 -887.7 L-890.2 -887.7 L-891.2 -887.7 L-892.2 -887.7 L-893.1 -887.8 L-894.1 -887.8 L-895.1 -887.8 L-896.1 -887.8 L-897.1 -887.8 L-898.1 -887.8 L-899 -887.8 L-900 -887.8 L-901 -887.8 L-902 -887.9 L-903 -887.9 L-903.9 -887.9 L-904.9 -887.9 L-905.9 -887.9 L-906.9 -887.9 L-907.9 -887.9 L-908.8 -887.9 L-909.8 -888 L-910.8 -888 L-911.8 -888 L-912.8 -888 L-912.8 -889 L-912.8 -890 L-912.7 -890.9 L-912.7 -891.9 L-912.7 -892.9 L-912.7 -893.9 L-912.7 -894.9 L-912.7 -895.8 L-912.7 -896.8 L-912.7 -897.8 L-912.6 -898.8 L-912.6 -899.8 L-912.6 -900.8 L-912.6 -901.7 L-912.6 -902.7 L-912.6 -903.7 L-912.6 -904.7 L-912.6 -905.7 L-912.6 -906.6 L-912.5 -907.6 L-912.5 -908.6 L-912.5 -909.6 L-912.5 -910.6 L-912.5 -911.6 L-912.5 -912.5 L-911.5 -912.5 L-910.5 -912.5 L-909.5 -912.5 L-908.6 -912.5 L-907.6 -912.5 L-906.6 -912.5 L-905.6 -912.5 L-904.6 -912.4 L-903.6 -912.4 L-902.7 -912.4 L-901.7 -912.4 L-900.7 -912.4 L-899.7 -912.4 L-898.7 -912.4 L-897.8 -912.4 L-896.8 -912.3 L-895.8 -912.3 L-894.8 -912.3 L-893.8 -912.3 L-892.8 -912.3 L-891.9 -912.3 L-890.9 -912.3 L-889.9 -912.3 L-888.9 -912.3 L-887.9 -912.2 Z " />
<path stroke="rgb(0,0,0)" stroke-opacity="1" fill="rgb(255,255,255)" fill-opacity="1" d="M-175.3 -299.7 L-175.4 -297.7 L-175.7 -295.8 L-176.1 -293.9 L-176.6 -292 L-177.3 -290.1 L-178.2 -288.4 L-179.2 -286.7 L-180.3 -285.1 L-181.6 -283.6 L-182.9 -282.1 L-184.4 -280.8 L-186 -279.7 L-187.6 -278.6 L-189.4 -277.7 L-191.2 -276.9 L-193 -276.3 L-195 -275.8 L-196.9 -275.5 L-198.8 -275.3 L-200.8 -275.3 L-202.8 -275.5 L-204.7 -275.8 L-206.6 -276.2 L-208.5 -276.8 L-210.3 -277.6 L-212.1 -278.4 L-213.7 -279.5 L-215.3 -280.6 L-216.8 -281.9 L-218.2 -283.3 L-219.5 -284.8 L-220.6 -286.4 L-221.6 -288.1 L-222.5 -289.8 L-223.2 -291.7 L-223.8 -293.5 L-224.3 -295.4 L-224.6 -297.4 L-224.7 -299.3 L-224.7 -301.3 L-224.5 -303.3 L-224.1 -305.2 L-223.7 -307.1 L-223 -309 L-222.2 -310.8 L-221.3 -312.5 L-220.2 -314.1 L-219.1 -315.7 L-217.8 -317.2 L-216.3 -318.5 L-214.8 -319.8 L-213.2 -320.9 L-211.5 -321.9 L-209.7 -322.7 L-207.9 -323.4 L-206 -324 L-204.1 -324.4 L-202.1 -324.6 L-200.2 -324.7 L-198.2 -324.6 L-196.2 -324.4 L-194.3 -324 L-192.4 -323.5 L-190.6 -322.8 L-188.8 -322 L-187.1 -321.1 L-185.5 -320 L-183.9 -318.8 L-182.5 -317.4 L-181.1 -316 L-179.9 -314.4 L-178.9 -312.8 L-177.9 -311.1 L-177.1 -309.3 L-176.4 -307.4 L-175.9 -305.5 L-175.6 -303.6 L-175.3 -301.6 L-175.3 -299.7 Z " />
<path stroke="rgb(0,0,0)" stroke-opacity="1" fill="rgb(255,255,255)" fill-opacity="1" d="M-687.9 -912.2 L-688 -911.3 L-688 -910.3 L-688 -909.3 L-688 -908.3 L-688 -907.3 L-688 -906.3 L-688 -905.4 L-688 -904.4 L-688 -903.4 L-688.1 -902.4 L-688.1 -901.4 L-688.1 -900.5 L-688.1 -899.5 L-688.1 -898.5 L-688.1 -897.5 L-688.1 -896.5 L-688.1 -895.5 L-688.2 -894.6 L-688.2 -893.6 L-688.2 -892.6 L-688.2 -891.6 L-688.2 -890.6 L-688.2 -889.7 L-688.2 -888.7 L-688.2 -887.7 L-689.2 -887.7 L-690.2 -887.7 L-691.2 -887.7 L-692.2 -887.7 L-693.1 -887.8 L-694.1 -887.8 L-695.1 -887.8 L-696.1 -887.8 L-697.1 -887.8 L-698.1 -887.8 L-699 -887.8 L-700 -887.8 L-701 -887.8 L-702 -887.9 L-703 -887.9 L-703.9 -887.9 L-704.9 -887.9 L-705.9 -887.9 L-706.9 -887.9 L-707.9 -887.9 L-708.8 -887.9 L-709.8 -888 L-710.8 -888 L-711.8 -888 L-712.8 -888 L-712.8 -889 L-712.8 -890 L-712.7 -890.9 L-712.7 -891.9 L-712.7 -892.9 L-712.7 -893.9 L-712.7 -894.9 L-712.7 -895.8 L-712.7 -896.8 L-712.7 -897.8 L-712.6 -898.8 L-712.6 -899.8 L-712.6 -900.8 L-712.6 -901.7 L-712.6 -902.7 L-712.6 -903.7 L-712.6 -904.7 L-712.6 -905.7 L-712.6 -906.6 L-712.5 -907.6 L-712.5 -908.6 L-712.5 -909.6 L-712.5 -910.6 L-712.5 -911.6 L-712.5 -912.5 L-711.5 -912.5 L-710.5 -912.5 L-709.5 -912.5 L-708.6 -912.5 L-707.6 -912.5 L-706.6 -912.5 L-705.6 -912.5 L-704.6 -912.4 L-703.6 -912.4 L-702.7 -912.4 L-701.7 -912.4 L-700.7 -912.4 L-699.7 -912.4 L-698.7 -912.4 L-697.8 -912.4 L-696.8 -912.3 L-695.8 -912.3 L-694.8 -912.3 L-693.8 -912.3 L-692.8 -912.3 L-691.9 -912.3 L-690.9 -912.3 L-689.9 -912.3 L-688.9 -912.3 L-687.9 -912.2 Z " />
<path stroke="rgb(0,0,0)" stroke-opacity="1" fill="rgb(255,255,255)" fill-opacity="1" d="M24.7 -299.7 L24.6 -297.7 L24.34 -295.8 L23.93 -293.9 L23.36 -292 L22.65 -290.1 L21.8 -288.4 L20.8 -286.7 L19.68 -285.1 L18.43 -283.6 L17.06 -282.1 L15.59 -280.8 L14.02 -279.7 L12.36 -278.6 L10.62 -277.7 L8.814 -276.9 L6.952 -276.3 L5.047 -275.8 L3.11 -275.5 L1.153 -275.3 L-0.8108 -275.3 L-2.77 -275.5 L-4.711 -275.8 L-6.623 -276.2 L-8.492 -276.8 L-10.31 -277.6 L-12.06 -278.4 L-13.73 -279.5 L-15.32 -280.6 L-16.81 -281.9 L-18.2 -283.3 L-19.47 -284.8 L-20.61 -286.4 L-21.63 -288.1 L-22.51 -289.8 L-23.24 -291.7 L-23.83 -293.5 L-24.27 -295.4 L-24.56 -297.4 L-24.69 -299.3 L-24.66 -301.3 L-24.48 -303.3 L-24.15 -305.2 L-23.66 -307.1 L-23.02 -309 L-22.23 -310.8 L-21.31 -312.5 L-20.25 -314.1 L-19.06 -315.7 L-17.75 -317.2 L-16.33 -318.5 L-14.81 -319.8 L-13.19 -320.9 L-11.49 -321.9 L-9.717 -322.7 L-7.882 -323.4 L-5.997 -324 L-4.074 -324.4 L-2.126 -324.6 L-0.1638 -324.7 L1.799 -324.6 L3.751 -324.4 L5.679 -324 L7.571 -323.5 L9.415 -322.8 L11.2 -322 L12.91 -321.1 L14.55 -320 L16.09 -318.8 L17.53 -317.4 L18.85 -316 L20.06 -314.4 L21.14 -312.8 L22.09 -311.1 L22.9 -309.3 L23.56 -307.4 L24.08 -305.5 L24.44 -303.6 L24.65 -301.6 L24.7 -299.7 Z " />
<path stroke="rgb(0,0,0)" stroke-opacity="1" fill="rgb(255,255,255)" fill-opacity="1" d="M-487.9 -912.2 L-488 -911.3 L-488 -910.3 L-488 -909.3 L-488 -908.3 L-488 -907.3 L-488 -906.3 L-488 -905.4 L-488 -904.4 L-488 -903.4 L-488.1 -902.4 L-488.1 -901.4 L-488.1 -900.5 L-488.1 -899.5 L-488.1 -898.5 L-488.1 -897.5 L-488.1 -896.5 L-488.1 -895.5 L-488.2 -894.6 L-488.2 -893.6 L-488.2 -892.6 L-488.2 -891.6 L-488.2 -890.6 L-488.2 -889.7 L-488.2 -888.7 L-488.2 -887.7 L-489.2 -887.7 L-490.2 -887.7 L-491.2 -887.7 L-492.2 -887.7 L-493.1 -887.8 L-494.1 -887.8 L-495.1 -887.8 L-496.1 -887.8 L-497.1 -887.8 L-498.1 -887.8 L-499 -887.8 L-500 -887.8 L-501 -887.8 L-502 -887.9 L-503 -887.9 L-503.9 -887.9 L-504.9 -887.9 L-505.9 -887.9 L-506.9 -887.9 L-507.9 -887.9 L-508.8 -887.9 L-509.8 -888 L-510.8 -888 L-511.8 -888 L-512.8 -888 L-512.8 -889 L-512.8 -890 L-512.7 -890.9 L-512.7 -891.9 L-512.7 -892.9 L-512.7 -893.9 L-512.7 -894.9 L-512.7 -895.8 L-512.7 -896.8 L-512.7 -897.8 L-512.6 -898.8 L-512.6 -899.8 L-512.6 -900.8 L-512.6 -901.7 L-512.6 -902.7 L-512.6 -903.7 L-512.6 -904.7 L-512.6 -905.7 L-512.6 -906.6 L-512.5 -907.6 L-512.5 -908.6 L-512.5 -909.6 L-512.5 -910.6 L-512.5 -911.6 L-512.5 -912.5 L-511.5 -912.5 L-510.5 -912.5 L-509.5 -912.5 L-508.6 -912.5 L-507.6 -912.5 L-506.6 -912.5 L-505.6 -912.5 L-504.6 -912.4 L-503.6 -912.4 L-502.7 -912.4 L-501.7 -912.4 L-500.7 -912.4 L-499.7 -912.4 L-498.7 -912.4 L-497.8 -912.4 L-496.8 -912.3 L-495.8 -912.3 L-494.8 -912.3 L-493.8 -912.3 L-492.8 -912.3 L-491.9 -912.3 L-490.9 -912.3 L-489.9 -912.3 L-488.9 -912.3 L-487.9 -912.2 Z " />
<path stroke="rgb(0,0,0)" stroke-opacity="1" fill="rgb(255,255,255)" fill-opacity="1" d="M224.1 -301 L224.1 -299.1 L223.9 -297.2 L223.6 -295.3 L223.2 -293.4 L222.6 -291.6 L221.9 -289.9 L221 -288.2 L220 -286.5 L218.9 -285 L217.6 -283.5 L216.2 -282.2 L214.8 -280.9 L213.2 -279.8 L211.6 -278.8 L209.9 -278 L208.1 -277.3 L206.3 -276.7 L204.4 -276.3 L202.5 -276 L200.6 -275.9 L198.7 -275.9 L196.8 -276.1 L194.9 -276.4 L193 -276.9 L191.2 -277.6 L189.4 -278.3 L187.8 -279.2 L186.2 -280.3 L184.6 -281.4 L183.2 -282.7 L181.9 -284.1 L180.7 -285.6 L179.6 -287.2 L178.6 -288.8 L177.8 -290.6 L177.2 -292.4 L176.6 -294.2 L176.2 -296.1 L176 -298 L175.9 -299.9 L176 -301.8 L176.2 -303.7 L176.6 -305.6 L177.1 -307.4 L177.8 -309.2 L178.6 -311 L179.5 -312.6 L180.6 -314.2 L181.8 -315.7 L183.1 -317.1 L184.5 -318.4 L186 -319.6 L187.6 -320.6 L189.3 -321.6 L191 -322.4 L192.8 -323 L194.7 -323.5 L196.6 -323.8 L198.5 -324 L200.4 -324.1 L202.3 -324 L204.2 -323.7 L206.1 -323.3 L207.9 -322.7 L209.7 -322 L211.4 -321.2 L213.1 -320.2 L214.6 -319.1 L216.1 -317.9 L217.5 -316.6 L218.8 -315.1 L219.9 -313.6 L220.9 -312 L221.8 -310.3 L222.6 -308.5 L223.2 -306.7 L223.6 -304.8 L223.9 -302.9 L224.1 -301 Z " />
<path stroke="rgb(0,0,0)" stroke-opacity="1" fill="rgb(255,255,255)" fill-opacity="1" d="M-287.9 -912.2 L-288 -911.3 L-288 -910.3 L-288 -909.3 L-288 -908.3 L-288 -907.3 L-288 -906.3 L-288 -905.4 L-288 -904.4 L-288 -903.4 L-288.1 -902.4 L-288.1 -901.4 L-288.1 -900.5 L-288.1 -899.5 L-288.1 -898.5 L-288.1 -897.5 L-288.1 -896.5 L-288.1 -895.5 L-288.2 -894.6 L-288.2 -893.6 L-288.2 -892.6 L-288.2 -891.6 L-288.2 -890.6 L-288.2 -889.7 L-288.2 -888.7 L-288.2 -887.7 L-289.2 -887.7 L-290.2 -887.7 L-291.2 -887.7 L-292.2 -887.7 L-293.1 -887.8 L-294.1 -887.8 L-295.1 -887.8 L-296.1 -887.8 L-297.1 -887.8 L-298.1 -887.8 L-299 -887.8 L-300 -887.8 L-301 -887.8 L-302 -887.9 L-303 -887.9 L-303.9 -887.9 L-304.9 -887.9 L-305.9 -887.9 L-306.9 -887.9 L-307.9 -887.9 L-308.8 -887.9 L-309.8 -888 L-310.8 -888 L-311.8 -888 L-312.8 -888 L-312.8 -889 L-312.8 -890 L-312.7 -890.9 L-312.7 -891.9 L-312.7 -892.9 L-312.7 -893.9 L-312.7 -894.9 L-312.7 -895.8 L-312.7 -896.8 L-312.7 -897.8 L-312.6 -898.8 L-312.6 -899.8 L-312.6 -900.8 L-312.6 -901.7 L-312.6 -902.7 L-312.6 -903.7 L-312.6 -904.7 L-312.6 -905.7 L-312.6 -906.6 L-312.5 -907.6 L-312.5 -908.6 L-312.5 -909.6 L-312.5 -910.6 L-312.5 -911.6 L-312.5 -912.5 L-311.5 -912.5 L-310.5 -912.5 L-309.5 -912.5 L-308.6 -912.5 L-307.6 -912.5 L-306.6 -912.5 L-305.6 -912.5 L-304.6 -912.4 L-303.6 -912.4 L-302.7 -912.4 L-301.7 -912.4 L-300.7 -912.4 L-299.7 -912.4 L-298.7 -912.4 L-297.8 -912.4 L-296.8 -912.3 L-295.8 -912.3 L-294.8 -912.3 L-293.8 -912.3 L-292.8 -912.3 L-291.9 -912.3 L-290.9 -912.3 L-289.9 -912.3 L-288.9 -912.3 L-287.9 -912.2 Z " />
<path stroke="rgb(0,0,0)" stroke-opacity="1" fill="rgb(255,255,255)" fill-opacity="1" d="M-275.3 -199.7 L-275.4 -197.7 L-275.7 -195.8 L-276.1 -193.9 L-276.6 -192 L-277.3 -190.1 L-278.2 -188.4 L-279.2 -186.7 L-280.3 -185.1 L-281.6 -183.6 L-282.9 -182.1 L-284.4 -180.8 L-286 -179.7 L-287.6 -178.6 L-289.4 -177.7 L-291.2 -176.9 L-293 -176.3 L-295 -175.8 L-296.9 -175.5 L-298.8 -175.3 L-300.8 -175.3 L-302.8 -175.5 L-304.7 -175.8 L-306.6 -176.2 L-308.5 -176.8 L-310.3 -177.6 L-312.1 -178.4 L-313.7 -179.5 L-315.3 -180.6 L-316.8 -181.9 L-318.2 -183.3 L-319.5 -184.8 L-320.6 -186.4 L-321.6 -188.1 L-322.5 -189.8 L-323.2 -191.7 L-323.8 -193.5 L-324.3 -195.4 L-324.6 -197.4 L-324.7 -199.3 L-324.7 -201.3 L-324.5 -203.3 L-324.1 -205.2 L-323.7 -207.1 L-323 -209 L-322.2 -210.8 L-321.3 -212.5 L-320.2 -214.1 L-319.1 -215.7 L-317.8 -217.2 L-316.3 -218.5 L-314.8 -219.8 L-313.2 -220.9 L-311.5 -221.9 L-309.7 -222.7 L-307.9 -223.4 L-306 -224 L-304.1 -224.4 L-302.1 -224.6 L-300.2 -224.7 L-298.2 -224.6 L-296.2 -224.4 L-294.3 -224 L-292.4 -223.5 L-290.6 -222.8 L-288.8 -222 L-287.1 -221.1 L-285.5 -220 L-283.9 -218.8 L-282.5 -217.4 L-281.1 -216 L-279.9 -214.4 L-278.9 -212.8 L-277.9 -211.1 L-277.1 -209.3 L-276.4 -207.4 L-275.9 -205.5 L-275.6 -203.6 L-275.3 -201.6 L-275.3 -199.7 Z " />
<path stroke="rgb(0,0,0)" stroke-opacity="1" fill="rgb(255,255,255)" fill-opacity="1" d="M-787.9 -812.2 L-788 -811.3 L-788 -810.3 L-788 -809.3 L-788 -808.3 L-788 -807.3 L-788 -806.3 L-788 -805.4 L-788 -804.4 L-788 -803.4 L-788.1 -802.4 L-788.1 -801.4 L-788.1 -800.5 L-788.1 -799.5 L-788.1 -798.5 L-788.1 -797.5 L-788.1 -796.5 L-788.1 -795.5 L-788.2 -794.6 L-788.2 -793.6 L-788.2 -792.6 L-788.2 -791.6 L-788.2 -790.6 L-788.2 -789.7 L-788.2 -788.7 L-788.2 -787.7 L-789.2 -787.7 L-790.2 -787.7 L-791.2 -787.7 L-792.2 -787.7 L-793.1 -787.8 L-794.1 -787.8 L-795.1 -787.8 L-796.1 -787.8 L-797.1 -787.8 L-798.1 -787.8 L-799 -787.8 L-800 -787.8 L-801 -787.8 L-802 -787.9 L-803 -787.9 L-803.9 -787.9 L-804.9 -787.9 L-805.9 -787.9 L-806.9 -787.9 L-807.9 -787.9 L-808.8 -787.9 L-809.8 -788 L-810.8 -788 L-811.8 -788 L-812.8 -788 L-812.8 -789 L-812.8 -790 L-812.7 -790.9 L-812.7 -791.9 L-812.7 -792.9 L-812.7 -793.9 L-812.7 -794.9 L-812.7 -795.8 L-812.7 -796.8 L-812.7 -797.8 L-812.6 -798.8 L-812.6 -799.8 L-812.6 -800.8 L-812.6 -801.7 L-812.6 -802.7 L-812.6 -803.7 L-812.6 -804.7 L-812.6 -805.7 L-812.6 -806.6 L-812.5 -807.6 L-812.5 -808.6 L-812.5 -809.6 L-812.5 -810.6 L-812.5 -811.6 L-812.5 -812.5 L-811.5 -812.5 L-810.5 -812.5 L-809.5 -812.5 L-808.6 -812.5 L-807.6 -812.5 L-806.6 -812.5 L-805.6 -812.5 L-804.6 -812.4 L-803.6 -812.4 L-802.7 -812.4 L-801.7 -812.4 L-800.7 -812.4 L-799.7 -812.4 L-798.7 -812.4 L-797.8 -812.4 L-796.8 -812.3 L-795.8 -812.3 L-794.8 -812.3 L-793.8 -812.3 L-792.8 -812.3 L-791.9 -812.3 L-790.9 -812.3 L-789.9 -812.3 L-788.9 -812.3 L-787.9 -812.2 Z " />
<path stroke="rgb(0,0,0)" stroke-opacity="1" fill="rgb(255,255,255)" fill-opacity="1" d="M-75.3 -199.7 L-75.4 -197.7 L-75.66 -195.8 L-76.07 -193.9 L-76.64 -192 L-77.35 -190.1 L-78.2 -188.4 L-79.2 -186.7 L-80.32 -185.1 L-81.57 -183.6 L-82.94 -182.1 L-84.41 -180.8 L-85.98 -179.7 L-87.64 -178.6 L-89.38 -177.7 L-91.19 -176.9 L-93.05 -176.3 L-94.95 -175.8 L-96.89 -175.5 L-98.85 -175.3 L-100.8 -175.3 L-102.8 -175.5 L-104.7 -175.8 L-106.6 -176.2 L-108.5 -176.8 L-110.3 -177.6 L-112.1 -178.4 L-113.7 -179.5 L-115.3 -180.6 L-116.8 -181.9 L-118.2 -183.3 L-119.5 -184.8 L-120.6 -186.4 L-121.6 -188.1 L-122.5 -189.8 L-123.2 -191.7 L-123.8 -193.5 L-124.3 -195.4 L-124.6 -197.4 L-124.7 -199.3 L-124.7 -201.3 L-124.5 -203.3 L-124.1 -205.2 L-123.7 -207.1 L-123 -209 L-122.2 -210.8 L-121.3 -212.5 L-120.2 -214.1 L-119.1 -215.7 L-117.8 -217.2 L-116.3 -218.5 L-114.8 -219.8 L-113.2 -220.9 L-111.5 -221.9 L-109.7 -222.7 L-107.9 -223.4 L-106 -224 L-104.1 -224.4 L-102.1 -224.6 L-100.2 -224.7 L-98.2 -224.6 L-96.25 -224.4 L-94.32 -224 L-92.43 -223.5 L-90.58 -222.8 L-88.8 -222 L-87.09 -221.1 L-85.45 -220 L-83.91 -218.8 L-82.47 -217.4 L-81.15 -216 L-79.94 -214.4 L-78.86 -212.8 L-77.91 -211.1 L-77.1 -209.3 L-76.44 -207.4 L-75.92 -205.5 L-75.56 -203.6 L-75.35 -201.6 L-75.3 -199.7 Z " />
<path stroke="rgb(0,0,0)" stroke-opacity="1" fill="rgb(255,255,255)" fill-opacity="1" d="M-587.9 -812.2 L-588 -811.3 L-588 -810.3 L-588 -809.3 L-588 -808.3 L-588 -807.3 L-588 -806.3 L-588 -805.4 L-588 -804.4 L-588 -803.4 L-588.1 -802.4 L-588.1 -801.4 L-588.1 -800.5 L-588.1 -799.5 L-588.1 -798.5 L-588.1 -797.5 L-588.1 -796.5 L-588.1 -795.5 L-588.2 -794.6 L-588.2 -793.6 L-588.2 -792.6 L-588.2 -791.6 L-588.2 -790.6 L-588.2 -789.7 L-588.2 -788.7 L-588.2 -787.7 L-589.2 -787.7 L-590.2 -787.7 L-591.2 -787.7 L-592.2 -787.7 L-593.1 -787.8 L-594.1 -787.8 L-595.1 -787.8 L-596.1 -787.8 L-597.1 -787.8 L-598.1 -787.8 L-599 -787.8 L-600 -787.8 L-601 -787.8 L-602 -787.9 L-603 -787.9 L-603.9 -787.9 L-604.9 -787.9 L-605.9 -787.9 L-606.9 -787.9 L-607.9 -787.9 L-608.8 -787.9 L-609.8 -788 L-610.8 -788 L-611.8 -788 L-612.8 -788 L-612.8 -789 L-612.8 -790 L-612.7 -790.9 L-612.7 -791.9 L-612.7 -792.9 L-612.7 -793.9 L-612.7 -794.9 L-612.7 -795.8 L-612.7 -796.8 L-612.7 -797.8 L-612.6 -798.8 L-612.6 -799.8 L-612.6 -800.8 L-612.6 -801.7 L-612.6 -802.7 L-612.6 -803.7 L-612.6 -804.7 L-612.6 -805.7 L-612.6 -806.6 L-612.5 -807.6 L-612.5 -808.6 L-612.5 -809.6 L-612.5 -810.6 L-612.5 -811.6 L-612.5 -812.5 L-611.5 -812.5 L-610.5 -812.5 L-609.5 -812.5 L-608.6 -812.5 L-607.6 -812.5 L-606.6 -812.5 L-605.6 -812.5 L-604.6 -812.4 L-603.6 -812.4 L-602.7 -812.4 L-601.7 -812.4 L-600.7 -812.4 L-599.7 -812.4 L-598.7 -812.4 L-597.8 -812.4 L-596.8 -812.3 L-595.8 -812.3 L-594.8 -812.3 L-593.8 -812.3 L-592.8 -812.3 L-591.9 -812.3 L-590.9 -812.3 L-589.9 -812.3 L-588.9 -812.3 L-587.9 -812.2 Z " />
<path stroke="rgb(0,0,0)" stroke-opacity="1" fill="rgb(255,255,255)" fill-opacity="1" d="M124.1 -201 L124.1 -199.1 L123.9 -197.2 L123.6 -195.3 L123.2 -193.4 L122.6 -191.6 L121.9 -189.9 L121 -188.2 L120 -186.5 L118.9 -185 L117.6 -183.5 L116.2 -182.2 L114.8 -180.9 L113.2 -179.8 L111.6 -178.8 L109.9 -178 L108.1 -177.3 L106.3 -176.7 L104.4 -176.3 L102.5 -176 L100.6 -175.9 L98.66 -175.9 L96.75 -176.1 L94.87 -176.4 L93.01 -176.9 L91.2 -177.6 L89.45 -178.3 L87.76 -179.2 L86.15 -180.3 L84.63 -181.4 L83.2 -182.7 L81.89 -184.1 L80.68 -185.6 L79.6 -187.2 L78.65 -188.8 L77.83 -190.6 L77.15 -192.4 L76.62 -194.2 L76.23 -196.1 L76 -198 L75.92 -199.9 L75.99 -201.8 L76.21 -203.7 L76.58 -205.6 L77.1 -207.4 L77.76 -209.2 L78.57 -211 L79.51 -212.6 L80.58 -214.2 L81.77 -215.7 L83.08 -217.1 L84.5 -218.4 L86.01 -219.6 L87.62 -220.6 L89.3 -221.6 L91.04 -222.4 L92.85 -223 L94.7 -223.5 L96.58 -223.8 L98.49 -224 L100.4 -224.1 L102.3 -224 L104.2 -223.7 L106.1 -223.3 L107.9 -222.7 L109.7 -222 L111.4 -221.2 L113.1 -220.2 L114.6 -219.1 L116.1 -217.9 L117.5 -216.6 L118.8 -215.1 L119.9 -213.6 L120.9 -212 L121.8 -210.3 L122.6 -208.5 L123.2 -206.7 L123.6 -204.8 L123.9 -202.9 L124.1 -201 Z " />
<path stroke="rgb(0,0,0)" stroke-opacity="1" fill="rgb(255,255,255)" fill-opacity="1" d="M-387.9 -812.2 L-388 -811.3 L-388 -810.3 L-388 -809.3 L-388 -808.3 L-388 -807.3 L-388 -806.3 L-388 -805.4 L-388 -804.4 L-388 -803.4 L-388.1 -802.4 L-388.1 -801.4 L-388.1 -800.5 L-388.1 -799.5 L-388.1 -798.5 L-388.1 -797.5 L-388.1 -796.5 L-388.1 -795.5 L-388.2 -794.6 L-388.2 -793.6 L-388.2 -792.6 L-388.2 -791.6 L-388.2 -790.6 L-388.2 -789.7 L-388.2 -788.7 L-388.2 -787.7 L-389.2 -787.7 L-390.2 -787.7 L-391.2 -787.7 L-392.2 -787.7 L-393.1 -787.8 L-394.1 -787.8 L-395.1 -787.8 L-396.1 -787.8 L-397.1 -787.8 L-398.1 -787.8 L-399 -787.8 L-400 -787.8 L-401 -787.8 L-402 -787.9 L-403 -787.9 L-403.9 -787.9 L-404.9 -787.9 L-405.9 -787.9 L-406.9 -787.9 L-407.9 -787.9 L-408.8 -787.9 L-409.8 -788 L-410.8 -788 L-411.8 -788 L-412.8 -788 L-412.8 -789 L-412.8 -790 L-412.7 -790.9 L-412.7 -791.9 L-412.7 -792.9 L-412.7 -793.9 L-412.7 -794.9 L-412.7 -795.8 L-412.7 -796.8 L-412.7 -797.8 L-412.6 -798.8 L-412.6 -799.8 L-412.6 -800.8 L-412.6 -801.7 L-412.6 -802.7 L-412.6 -803.7 L-412.6 -804.7 L-412.6 -805.7 L-412.6 -806.6 L-412.5 -807.6 L-412.5 -808.6 L-412.5 -809.6 L-412.5 -810.6 L-412.5 -811.6 L-412.5 -812.5 L-411.5 -812.5 L-410.5 -812.5 L-409.5 -812.5 L-408.6 -812.5 L-407.6 -812.5 L-406.6 -812.5 L-405.6 -812.5 L-404.6 -812.4 L-403.6 -812.4 L-402.7 -812.4 L-401.7 -812.4 L-400.7 -812.4 L-399.7 -812.4 L-398.7 -812.4 L-397.8 -812.4 L-396.8 -812.3 L-395.8 -812.3 L-394.8 -812.3 L-393.8 -812.3 L-392.8 -812.3 L-391.9 -812.3 L-390.9 -812.3 L-389.9 -812.3 L-388.9 -812.3 L-387.9 -812.2 Z " />
<path stroke="rgb(0,0,0)" stroke-opacity="1" fill="rgb(255,255,255)" fill-opacity="1" d="M315.8 -210.4 L316.6 -209.1 L317.3 -207.8 L317.9 -206.4 L318.3 -205 L318.7 -203.5 L318.9 -202 L319 -200.5 L319 -199 L318.9 -197.5 L318.7 -196 L318.3 -194.6 L317.8 -193.2 L317.2 -191.8 L316.5 -190.4 L315.7 -189.2 L314.8 -188 L313.8 -186.8 L312.8 -185.8 L311.6 -184.8 L310.4 -184 L309.1 -183.2 L307.7 -182.5 L306.3 -182 L304.9 -181.5 L303.4 -181.2 L301.9 -181 L300.4 -180.9 L298.9 -181 L297.4 -181.1 L295.9 -181.4 L294.5 -181.8 L293.1 -182.3 L291.7 -182.9 L290.4 -183.7 L289.1 -184.5 L287.9 -185.4 L286.8 -186.4 L285.8 -187.5 L284.8 -188.7 L284 -189.9 L283.3 -191.3 L282.6 -192.6 L282.1 -194 L281.7 -195.5 L281.4 -197 L281.2 -198.5 L281.2 -200 L281.3 -201.5 L281.4 -203 L281.7 -204.4 L282.2 -205.9 L282.7 -207.3 L283.3 -208.6 L284.1 -209.9 L284.9 -211.2 L285.9 -212.4 L286.9 -213.4 L288.1 -214.4 L289.2 -215.4 L290.5 -216.2 L291.8 -216.9 L293.2 -217.5 L294.6 -218 L296.1 -218.4 L297.6 -218.6 L299.1 -218.8 L300.6 -218.8 L302.1 -218.7 L303.6 -218.5 L305 -218.1 L306.5 -217.7 L307.9 -217.1 L309.2 -216.5 L310.5 -215.7 L311.7 -214.8 L312.9 -213.8 L314 -212.8 L314.9 -211.6 L315.8 -210.4 Z " />
<path stroke="rgb(0,0,0)" stroke-opacity="1" fill="rgb(255,255,255)" fill-opacity="1" d="M-887.9 -712.2 L-888 -711.3 L-888 -710.3 L-888 -709.3 L-888 -708.3 L-888 -707.3 L-888 -706.3 L-888 -705.4 L-888 -704.4 L-888 -703.4 L-888.1 -702.4 L-888.1 -701.4 L-888.1 -700.5 L-888.1 -699.5 L-888.1 -698.5 L-888.1 -697.5 L-888.1 -696.5 L-888.1 -695.5 L-888.2 -694.6 L-888.2 -693.6 L-888.2 -692.6 L-888.2 -691.6 L-888.2 -690.6 L-888.2 -689.7 L-888.2 -688.7 L-888.2 -687.7 L-889.2 -687.7 L-890.2 -687.7 L-891.2 -687.7 L-892.2 -687.7 L-893.1 -687.8 L-894.1 -687.8 L-895.1 -687.8 L-896.1 -687.8 L-897.1 -687.8 L-898.1 -687.8 L-899 -687.8 L-900 -687.8 L-901 -687.8 L-902 -687.9 L-903 -687.9 L-903.9 -687.9 L-904.9 -687.9 L-905.9 -687.9 L-906.9 -687.9 L-907.9 -687.9 L-908.8 -687.9 L-909.8 -688 L-910.8 -688 L-911.8 -688 L-912.8 -688 L-912.8 -689 L-912.8 -690 L-912.7 -690.9 L-912.7 -691.9 L-912.7 -692.9 L-912.7 -693.9 L-912.7 -694.9 L-912.7 -695.8 L-912.7 -696.8 L-912.7 -697.8 L-912.6 -698.8 L-912.6 -699.8 L-912.6 -700.8 L-912.6 -701.7 L-912.6 -702.7 L-912.6 -703.7 L-912.6 -704.7 L-912.6 -705.7 L-912.6 -706.6 L-912.5 -707.6 L-912.5 -708.6 L-912.5 -709.6 L-912.5 -710.6 L-912.5 -711.6 L-912.5 -712.5 L-911.5 -712.5 L-910.5 -712.5 L-909.5 -712.5 L-908.6 -712.5 L-907.6 -712.5 L-906.6 -712.5 L-905.6 -712.5 L-904.6 -712.4 L-903.6 -712.4 L-902.7 -712.4 L-901.7 -712.4 L-900.7 -712.4 L-899.7 -712.4 L-898.7 -712.4 L-897.8 -712.4 L-896.8 -712.3 L-895.8 -712.3 L-894.8 -712.3 L-893.8 -712.3 L-892.8 -712.3 L-891.9 -712.3 L-890.9 -712.3 L-889.9 -712.3 L-888.9 -712.3 L-887.9 -712.2 Z " />
<path stroke="rgb(0,0,0)" stroke-opacity="1" fill="rgb(255,255,255)" fill-opacity="1" d="M-175.3 -99.68 L-175.4 -97.72 L-175.7 -95.77 L-176.1 -93.85 L-176.6 -91.97 L-177.3 -90.14 L-178.2 -88.37 L-179.2 -86.68 L-180.3 -85.07 L-181.6 -83.55 L-182.9 -82.14 L-184.4 -80.84 L-186 -79.66 L-187.6 -78.61 L-189.4 -77.7 L-191.2 -76.93 L-193 -76.3 L-195 -75.82 L-196.9 -75.5 L-198.8 -75.33 L-200.8 -75.32 L-202.8 -75.46 L-204.7 -75.76 L-206.6 -76.21 L-208.5 -76.81 L-210.3 -77.56 L-212.1 -78.45 L-213.7 -79.47 L-215.3 -80.63 L-216.8 -81.91 L-218.2 -83.3 L-219.5 -84.8 L-220.6 -86.4 L-221.6 -88.08 L-222.5 -89.83 L-223.2 -91.65 L-223.8 -93.53 L-224.3 -95.44 L-224.6 -97.39 L-224.7 -99.35 L-224.7 -101.3 L-224.5 -103.3 L-224.1 -105.2 L-223.7 -107.1 L-223 -109 L-222.2 -110.8 L-221.3 -112.5 L-220.2 -114.1 L-219.1 -115.7 L-217.8 -117.2 L-216.3 -118.5 L-214.8 -119.8 L-213.2 -120.9 L-211.5 -121.9 L-209.7 -122.7 L-207.9 -123.4 L-206 -124 L-204.1 -124.4 L-202.1 -124.6 L-200.2 -124.7 L-198.2 -124.6 L-196.2 -124.4 L-194.3 -124 L-192.4 -123.5 L-190.6 -122.8 L-188.8 -122 L-187.1 -121.1 L-185.5 -120 L-183.9 -118.8 L-182.5 -117.4 L-181.1 -116 L-179.9 -114.4 L-178.9 -112.8 L-177.9 -111.1 L-177.1 -109.3 L-176.4 -107.4 L-175.9 -105.5 L-175.6 -103.6 L-175.3 -101.6 L-175.3 -99.68 Z " />
<path stroke="rgb(0,0,0)" stroke-opacity="1" fill="rgb(255,255,255)" fill-opacity="1" d="M-687.9 -712.2 L-688 -711.3 L-688 -710.3 L-688 -709.3 L-688 -708.3 L-688 -707.3 L-688 -706.3 L-688 -705.4 L-688 -704.4 L-688 -703.4 L-688.1 -702.4 L-688.1 -701.4 L-688.1 -700.5 L-688.1 -699.5 L-688.1 -698.5 L-688.1 -697.5 L-688.1 -696.5 L-688.1 -695.5 L-688.2 -694.6 L-688.2 -693.6 L-688.2 -692.6 L-688.2 -691.6 L-688.2 -690.6 L-688.2 -689.7 L-688.2 -688.7 L-688.2 -687.7 L-689.2 -687.7 L-690.2 -687.7 L-691.2 -687.7 L-692.2 -687.7 L-693.1 -687.8 L-694.1 -687.8 L-695.1 -687.8 L-696.1 -687.8 L-697.1 -687.8 L-698.1 -687.8 L-699 -687.8 L-700 -687.8 L-701 -687.8 L-702 -687.9 L-703 -687.9 L-703.9 -687.9 L-704.9 -687.9 L-705.9 -687.9 L-706.9 -687.9 L-707.9 -687.9 L-708.8 -687.9 L-709.8 -688 L-710.8 -688 L-711.8 -688 L-712.8 -688 L-712.8 -689 L-712.8 -690 L-712.7 -690.9 L-712.7 -691.9 L-712.7 -692.9 L-712.7 -693.9 L-712.7 -694.9 L-712.7 -695.8 L-712.7 -696.8 L-712.7 -697.8 L-712.6 -698.8 L-712.6 -699.8 L-712.6 -700.8 L-712.6 -701.7 L-712.6 -702.7 L-712.6 -703.7 L-712.6 -704.7 L-712.6 -705.7 L-712.6 -706.6 L-712.5 -707.6 L-712.5 -708.6 L-712.5 -709.6 L-712.5 -710.6 L-712.5 -711.6 L-712.5 -712.5 L-711.5 -712.5 L-710.5 -712.5 L-709.5 -712.5 L-708.6 -712.5 L-707.6 -712.5 L-706.6 -712.5 L-705.6 -712.5 L-704.6 -712.4 L-703.6 -712.4 L-702.7 -712.4 L-701.7 -712.4 L-700.7 -712.4 L-699.7 -712.4 L-698.7 -712.4 L-697.8 -712.4 L-696.8 -712.3 L-695.8 -712.3 L-694.8 -712.3 L-693.8 -712.3 L-692.8 -712.3 L-691.9 -712.3 L-690.9 -712.3 L-689.9 -712.3 L-688.9 -712.3 L-687.9 -712.2 Z " />
<path stroke="rgb(0,0,0)" stroke-opacity="1" fill="rgb(255,255,255)" fill-opacity="1" d="M24.08 -101 L24.09 -99.11 L23.95 -97.2 L23.65 -95.31 L23.2 -93.45 L22.61 -91.63 L21.87 -89.86 L21 -88.15 L19.99 -86.52 L18.86 -84.98 L17.61 -83.53 L16.25 -82.18 L14.78 -80.95 L13.22 -79.83 L11.58 -78.85 L9.861 -78 L8.082 -77.28 L6.253 -76.71 L4.384 -76.29 L2.488 -76.02 L0.5758 -75.9 L-1.34 -75.93 L-3.247 -76.11 L-5.134 -76.45 L-6.987 -76.93 L-8.797 -77.56 L-10.55 -78.33 L-12.24 -79.24 L-13.85 -80.28 L-15.37 -81.44 L-16.8 -82.72 L-18.11 -84.11 L-19.32 -85.6 L-20.4 -87.18 L-21.35 -88.84 L-22.17 -90.58 L-22.85 -92.37 L-23.38 -94.21 L-23.77 -96.09 L-24 -97.99 L-24.08 -99.9 L-24.01 -101.8 L-23.79 -103.7 L-23.42 -105.6 L-22.9 -107.4 L-22.24 -109.2 L-21.43 -111 L-20.49 -112.6 L-19.42 -114.2 L-18.23 -115.7 L-16.92 -117.1 L-15.5 -118.4 L-13.99 -119.6 L-12.38 -120.6 L-10.7 -121.6 L-8.956 -122.4 L-7.15 -123 L-5.3 -123.5 L-3.416 -123.8 L-1.51 -124 L0.4055 -124.1 L2.318 -124 L4.217 -123.7 L6.088 -123.3 L7.922 -122.7 L9.705 -122 L11.43 -121.2 L13.08 -120.2 L14.64 -119.1 L16.12 -117.9 L17.49 -116.6 L18.75 -115.1 L19.9 -113.6 L20.92 -112 L21.8 -110.3 L22.55 -108.5 L23.16 -106.7 L23.62 -104.8 L23.93 -102.9 L24.08 -101 Z " />
<path stroke="rgb(0,0,0)" stroke-opacity="1" fill="rgb(255,255,255)" fill-opacity="1" d="M-487.9 -712.2 L-488 -711.3 L-488 -710.3 L-488 -709.3 L-488 -708.3 L-488 -707.3 L-488 -706.3 L-488 -705.4 L-488 -704.4 L-488 -703.4 L-488.1 -702.4 L-488.1 -701.4 L-488.1 -700.5 L-488.1 -699.5 L-488.1 -698.5 L-488.1 -697.5 L-488.1 -696.5 L-488.1 -695.5 L-488.2 -694.6 L-488.2 -693.6 L-488.2 -692.6 L-488.2 -691.6 L-488.2 -690.6 L-488.2 -689.7 L-488.2 -688.7 L-488.2 -687.7 L-489.2 -687.7 L-490.2 -687.7 L-491.2 -687.7 L-492.2 -687.7 L-493.1 -687.8 L-494.1 -687.8 L-495.1 -687.8 L-496.1 -687.8 L-497.1 -687.8 L-498.1 -687.8 L-499 -687.8 L-500 -687.8 L-501 -687.8 L-502 -687.9 L-503 -687.9 L-503.9 -687.9 L-504.9 -687.9 L-505.9 -687.9 L-506.9 -687.9 L-507.9 -687.9 L-508.8 -687.9 L-509.8 -688 L-510.8 -688 L-511.8 -688 L-512.8 -688 L-512.8 -689 L-512.8 -690 L-512.7 -690.9 L-512.7 -691.9 L-512.7 -692.9 L-512.7 -693.9 L-512.7 -694.9 L-512.7 -695.8 L-512.7 -696.8 L-512.7 -697.8 L-512.6 -698.8 L-512.6 -699.8 L-512.6 -700.8 L-512.6 -701.7 L-512.6 -702.7 L-512.6 -703.7 L-512.6 -704.7 L-512.6 -705.7 L-512.6 -706.6 L-512.5 -707.6 L-512.5 -708.6 L-512.5 -709.6 L-512.5 -710.6 L-512.5 -711.6 L-512.5 -712.5 L-511.5 -712.5 L-510.5 -712.5 L-509.5 -712.5 L-508.6 -712.5 L-507.6 -712.5 L-506.6 -712.5 L-505.6 -712.5 L-504.6 -712.4 L-503.6 -712.4 L-502.7 -712.4 L-501.7 -712.4 L-500.7 -712.4 L-499.7 -712.4 L-498.7 -712.4 L-497.8 -712.4 L-496.8 -712.3 L-495.8 -712.3 L-494.8 -712.3 L-493.8 -712.3 L-492.8 -712.3 L-491.9 -712.3 L-490.9 -712.3 L-489.9 -712.3 L-488.9 -712.3 L-487.9 -712.2 Z " />
<path stroke="rgb(0,0,0)" stroke-opacity="1" fill="rgb(255,255,255)" fill-opacity="1" d="M215.8 -110.4 L216.6 -109.1 L217.3 -107.8 L217.9 -106.4 L218.3 -105 L218.7 -103.5 L218.9 -102 L219 -100.5 L219 -99.03 L218.9 -97.53 L218.7 -96.04 L218.3 -94.58 L217.8 -93.16 L217.2 -91.77 L216.5 -90.44 L215.7 -89.16 L214.8 -87.96 L213.8 -86.83 L212.8 -85.78 L211.6 -84.82 L210.4 -83.95 L209.1 -83.19 L207.7 -82.53 L206.3 -81.98 L204.9 -81.55 L203.4 -81.23 L201.9 -81.03 L200.4 -80.94 L198.9 -80.98 L197.4 -81.14 L195.9 -81.41 L194.5 -81.8 L193.1 -82.31 L191.7 -82.93 L190.4 -83.65 L189.1 -84.48 L187.9 -85.4 L186.8 -86.42 L185.8 -87.52 L184.8 -88.69 L184 -89.94 L183.3 -91.25 L182.6 -92.62 L182.1 -94.03 L181.7 -95.48 L181.4 -96.96 L181.2 -98.45 L181.2 -99.96 L181.3 -101.5 L181.4 -103 L181.7 -104.4 L182.2 -105.9 L182.7 -107.3 L183.3 -108.6 L184.1 -109.9 L184.9 -111.2 L185.9 -112.4 L186.9 -113.4 L188.1 -114.4 L189.2 -115.4 L190.5 -116.2 L191.8 -116.9 L193.2 -117.5 L194.6 -118 L196.1 -118.4 L197.6 -118.6 L199.1 -118.8 L200.6 -118.8 L202.1 -118.7 L203.6 -118.5 L205 -118.1 L206.5 -117.7 L207.9 -117.1 L209.2 -116.5 L210.5 -115.7 L211.7 -114.8 L212.9 -113.8 L214 -112.8 L214.9 -111.6 L215.8 -110.4 Z " />
<path stroke="rgb(0,0,0)" stroke-opacity="1" fill="rgb(255,255,255)" fill-opacity="1" d="M-287.9 -712.2 L-288 -711.3 L-288 -710.3 L-288 -709.3 L-288 -708.3 L-288 -707.3 L-288 -706.3 L-288 -705.4 L-288 -704.4 L-288 -703.4 L-288.1 -702.4 L-288.1 -701.4 L-288.1 -700.5 L-288.1 -699.5 L-288.1 -698.5 L-288.1 -697.5 L-288.1 -696.5 L-288.1 -695.5 L-288.2 -694.6 L-288.2 -693.6 L-288.2 -692.6 L-288.2 -691.6 L-288.2 -690.6 L-288.2 -689.7 L-288.2 -688.7 L-288.2 -687.7 L-289.2 -687.7 L-290.2 -687.7 L-291.2 -687.7 L-292.2 -687.7 L-293.1 -687.8 L-294.1 -687.8 L-295.1 -687.8 L-296.1 -687.8 L-297.1 -687.8 L-298.1 -687.8 L-299 -687.8 L-300 -687.8 L-301 -687.8 L-302 -687.9 L-303 -687.9 L-303.9 -687.9 L-304.9 -687.9 L-305.9 -687.9 L-306.9 -687.9 L-307.9 -687.9 L-308.8 -687.9 L-309.8 -688 L-310.8 -688 L-311.8 -688 L-312.8 -688 L-312.8 -689 L-312.8 -690 L-312.7 -690.9 L-312.7 -691.9 L-312.7 -692.9 L-312.7 -693.9 L-312.7 -694.9 L-312.7 -695.8 L-312.7 -696.8 L-312.7 -697.8 L-312.6 -698.8 L-312.6 -699.8 L-312.6 -700.8 L-312.6 -701.7 L-312.6 -702.7 L-312.6 -703.7 L-312.6 -704.7 L-312.6 -705.7 L-312.6 -706.6 L-312.5 -707.6 L-312.5 -708.6 L-312.5 -709.6 L-312.5 -710.6 L-312.5 -711.6 L-312.5 -712.5 L-311.5 -712.5 L-310.5 -712.5 L-309.5 -712.5 L-308.6 -712.5 L-307.6 -712.5 L-306.6 -712.5 L-305.6 -712.5 L-304.6 -712.4 L-303.6 -712.4 L-302.7 -712.4 L-301.7 -712.4 L-300.7 -712.4 L-299.7 -712.4 L-298.7 -712.4 L-297.8 -712.4 L-296.8 -712.3 L-295.8 -712.3 L-294.8 -712.3 L-293.8 -712.3 L-292.8 -712.3 L-291.9 -712.3 L-290.9 -712.3 L-289.9 -712.3 L-288.9 -712.3 L-287.9 -712.2 Z " />
<path stroke="rgb(0,0,0)" stroke-opacity="1" fill="rgb(255,255,255)" fill-opacity="1" d="M-275.3 0.3195 L-275.4 2.281 L-275.7 4.228 L-276.1 6.148 L-276.6 8.029 L-277.3 9.86 L-278.2 11.63 L-279.2 13.32 L-280.3 14.93 L-281.6 16.45 L-282.9 17.86 L-284.4 19.16 L-286 20.34 L-287.6 21.39 L-289.4 22.3 L-291.2 23.07 L-293 23.7 L-295 24.18 L-296.9 24.5 L-298.8 24.67 L-300.8 24.68 L-302.8 24.54 L-304.7 24.24 L-306.6 23.79 L-308.5 23.19 L-310.3 22.44 L-312.1 21.55 L-313.7 20.53 L-315.3 19.37 L-316.8 18.09 L-318.2 16.7 L-319.5 15.2 L-320.6 13.6 L-321.6 11.92 L-322.5 10.17 L-323.2 8.345 L-323.8 6.472 L-324.3 4.558 L-324.6 2.614 L-324.7 0.6546 L-324.7 -1.309 L-324.5 -3.265 L-324.1 -5.2 L-323.7 -7.102 L-323 -8.96 L-322.2 -10.76 L-321.3 -12.49 L-320.2 -14.15 L-319.1 -15.71 L-317.8 -17.18 L-316.3 -18.53 L-314.8 -19.77 L-313.2 -20.89 L-311.5 -21.87 L-309.7 -22.71 L-307.9 -23.41 L-306 -23.97 L-304.1 -24.37 L-302.1 -24.61 L-300.2 -24.7 L-298.2 -24.64 L-296.2 -24.42 L-294.3 -24.04 L-292.4 -23.52 L-290.6 -22.84 L-288.8 -22.02 L-287.1 -21.06 L-285.5 -19.97 L-283.9 -18.75 L-282.5 -17.42 L-281.1 -15.97 L-279.9 -14.42 L-278.9 -12.78 L-277.9 -11.06 L-277.1 -9.271 L-276.4 -7.423 L-275.9 -5.527 L-275.6 -3.597 L-275.3 -1.644 L-275.3 0.3195 Z " />
<path stroke="rgb(0,0,0)" stroke-opacity="1" fill="rgb(255,255,255)" fill-opacity="1" d="M-787.9 -612.2 L-788 -611.3 L-788 -610.3 L-788 -609.3 L-788 -608.3 L-788 -607.3 L-788 -606.3 L-788 -605.4 L-788 -604.4 L-788 -603.4 L-788.1 -602.4 L-788.1 -601.4 L-788.1 -600.5 L-788.1 -599.5 L-788.1 -598.5 L-788.1 -597.5 L-788.1 -596.5 L-788.1 -595.5 L-788.2 -594.6 L-788.2 -593.6 L-788.2 -592.6 L-788.2 -591.6 L-788.2 -590.6 L-788.2 -589.7 L-788.2 -588.7 L-788.2 -587.7 L-789.2 -587.7 L-790.2 -587.7 L-791.2 -587.7 L-792.2 -587.7 L-793.1 -587.8 L-794.1 -587.8 L-795.1 -587.8 L-796.1 -587.8 L-797.1 -587.8 L-798.1 -587.8 L-799 -587.8 L-800 -587.8 L-801 -587.8 L-802 -587.9 L-803 -587.9 L-803.9 -587.9 L-804.9 -587.9 L-805.9 -587.9 L-806.9 -587.9 L-807.9 -587.9 L-808.8 -587.9 L-809.8 -588 L-810.8 -588 L-811.8 -588 L-812.8 -588 L-812.8 -589 L-812.8 -590 L-812.7 -590.9 L-812.7 -591.9 L-812.7 -592.9 L-812.7 -593.9 L-812.7 -594.9 L-812.7 -595.8 L-812.7 -596.8 L-812.7 -597.8 L-812.6 -598.8 L-812.6 -599.8 L-812.6 -600.8 L-812.6 -601.7 L-812.6 -602.7 L-812.6 -603.7 L-812.6 -604.7 L-812.6 -605.7 L-812.6 -606.6 L-812.5 -607.6 L-812.5 -608.6 L-812.5 -609.6 L-812.5 -610.6 L-812.5 -611.6 L-812.5 -612.5 L-811.5 -612.5 L-810.5 -612.5 L-809.5 -612.5 L-808.6 -612.5 L-807.6 -612.5 L-806.6 -612.5 L-805.6 -612.5 L-804.6 -612.4 L-803.6 -612.4 L-802.7 -612.4 L-801.7 -612.4 L-800.7 -612.4 L-799.7 -612.4 L-798.7 -612.4 L-797.8 -612.4 L-796.8 -612.3 L-795.8 -612.3 L-794.8 -612.3 L-793.8 -612.3 L-792.8 -612.3 L-791.9 -612.3 L-790.9 -612.3 L-789.9 -612.3 L-788.9 -612.3 L-787.9 -612.2 Z " />
<path stroke="rgb(0,0,0)" stroke-opacity="1" fill="rgb(255,255,255)" fill-opacity="1" d="M-75.92 -1.03 L-75.91 0.8859 L-76.05 2.796 L-76.35 4.689 L-76.8 6.552 L-77.39 8.374 L-78.13 10.14 L-79 11.85 L-80.01 13.48 L-81.14 15.02 L-82.39 16.47 L-83.75 17.82 L-85.22 19.05 L-86.78 20.17 L-88.42 21.15 L-90.14 22 L-91.92 22.72 L-93.75 23.29 L-95.62 23.71 L-97.51 23.98 L-99.42 24.1 L-101.3 24.07 L-103.2 23.89 L-105.1 23.55 L-107 23.07 L-108.8 22.44 L-110.6 21.67 L-112.2 20.76 L-113.8 19.72 L-115.4 18.56 L-116.8 17.28 L-118.1 15.89 L-119.3 14.4 L-120.4 12.82 L-121.4 11.16 L-122.2 9.423 L-122.8 7.631 L-123.4 5.791 L-123.8 3.914 L-124 2.012 L-124.1 0.09818 L-124 -1.816 L-123.8 -3.72 L-123.4 -5.599 L-122.9 -7.443 L-122.2 -9.24 L-121.4 -10.98 L-120.5 -12.65 L-119.4 -14.24 L-118.2 -15.73 L-116.9 -17.13 L-115.5 -18.42 L-114 -19.6 L-112.4 -20.65 L-110.7 -21.57 L-109 -22.35 L-107.2 -22.99 L-105.3 -23.49 L-103.4 -23.84 L-101.5 -24.03 L-99.59 -24.08 L-97.68 -23.97 L-95.78 -23.71 L-93.91 -23.3 L-92.08 -22.75 L-90.29 -22.05 L-88.57 -21.21 L-86.92 -20.23 L-85.36 -19.13 L-83.88 -17.91 L-82.51 -16.57 L-81.25 -15.13 L-80.1 -13.59 L-79.08 -11.97 L-78.2 -10.27 L-77.45 -8.508 L-76.84 -6.69 L-76.38 -4.83 L-76.07 -2.939 L-75.92 -1.03 Z " />
<path stroke="rgb(0,0,0)" stroke-opacity="1" fill="rgb(255,255,255)" fill-opacity="1" d="M-587.9 -612.2 L-588 -611.3 L-588 -610.3 L-588 -609.3 L-588 -608.3 L-588 -607.3 L-588 -606.3 L-588 -605.4 L-588 -604.4 L-588 -603.4 L-588.1 -602.4 L-588.1 -601.4 L-588.1 -600.5 L-588.1 -599.5 L-588.1 -598.5 L-588.1 -597.5 L-588.1 -596.5 L-588.1 -595.5 L-588.2 -594.6 L-588.2 -593.6 L-588.2 -592.6 L-588.2 -591.6 L-588.2 -590.6 L-588.2 -589.7 L-588.2 -588.7 L-588.2 -587.7 L-589.2 -587.7 L-590.2 -587.7 L-591.2 -587.7 L-592.2 -587.7 L-593.1 -587.8 L-594.1 -587.8 L-595.1 -587.8 L-596.1 -587.8 L-597.1 -587.8 L-598.1 -587.8 L-599 -587.8 L-600 -587.8 L-601 -587.8 L-602 -587.9 L-603 -587.9 L-603.9 -587.9 L-604.9 -587.9 L-605.9 -587.9 L-606.9 -587.9 L-607.9 -587.9 L-608.8 -587.9 L-609.8 -588 L-610.8 -588 L-611.8 -588 L-612.8 -588 L-612.8 -589 L-612.8 -590 L-612.7 -590.9 L-612.7 -591.9 L-612.7 -592.9 L-612.7 -593.9 L-612.7 -594.9 L-612.7 -595.8 L-612.7 -596.8 L-612.7 -597.8 L-612.6 -598.8 L-612.6 -599.8 L-612.6 -600.8 L-612.6 -601.7 L-612.6 -602.7 L-612.6 -603.7 L-612.6 -604.7 L-612.6 -605.7 L-612.6 -606.6 L-612.5 -607.6 L-612.5 -608.6 L-612.5 -609.6 L-612.5 -610.6 L-612.5 -611.6 L-612.5 -612.5 L-611.5 -612.5 L-610.5 -612.5 L-609.5 -612.5 L-608.6 -612.5 L-607.6 -612.5 L-606.6 -612.5 L-605.6 -612.5 L-604.6 -612.4 L-603.6 -612.4 L-602.7 -612.4 L-601.7 -612.4 L-600.7 -612.4 L-599.7 -612.4 L-598.7 -612.4 L-597.8 -612.4 L-596.8 -612.3 L-595.8 -612.3 L-594.8 -612.3 L-593.8 -612.3 L-592.8 -612.3 L-591.9 -612.3 L-590.9 -612.3 L-589.9 -612.3 L-588.9 -612.3 L-587.9 -612.2 Z " />
<path stroke="rgb(0,0,0)" stroke-opacity="1" fill="rgb(255,255,255)" fill-opacity="1" d="M115.8 -10.43 L116.6 -9.145 L117.3 -7.805 L117.9 -6.415 L118.3 -4.983 L118.7 -3.519 L118.9 -2.032 L119 -0.5319 L119 0.9729 L118.9 2.472 L118.7 3.957 L118.3 5.418 L117.8 6.845 L117.2 8.229 L116.5 9.563 L115.7 10.84 L114.8 12.04 L113.8 13.17 L112.8 14.22 L111.6 15.18 L110.4 16.05 L109.1 16.81 L107.7 17.47 L106.3 18.02 L104.9 18.45 L103.4 18.77 L101.9 18.97 L100.4 19.06 L98.9 19.02 L97.4 18.86 L95.92 18.59 L94.47 18.2 L93.05 17.69 L91.68 17.07 L90.36 16.35 L89.1 15.52 L87.92 14.6 L86.8 13.58 L85.78 12.48 L84.84 11.31 L84 10.06 L83.26 8.746 L82.63 7.379 L82.11 5.968 L81.71 4.519 L81.42 3.042 L81.24 1.547 L81.19 0.04338 L81.26 -1.46 L81.44 -2.953 L81.75 -4.427 L82.17 -5.872 L82.7 -7.279 L83.35 -8.639 L84.1 -9.944 L84.95 -11.18 L85.89 -12.35 L86.93 -13.44 L88.05 -14.45 L89.25 -15.36 L90.51 -16.18 L91.84 -16.89 L93.22 -17.49 L94.64 -17.98 L96.1 -18.36 L97.58 -18.62 L99.08 -18.76 L100.6 -18.79 L102.1 -18.69 L103.6 -18.48 L105 -18.14 L106.5 -17.69 L107.9 -17.13 L109.2 -16.46 L110.5 -15.68 L111.7 -14.81 L112.9 -13.84 L114 -12.78 L114.9 -11.64 L115.8 -10.43 Z " />
<path stroke="rgb(0,0,0)" stroke-opacity="1" fill="rgb(255,255,255)" fill-opacity="1" d="M-387.9 -612.2 L-388 -611.3 L-388 -610.3 L-388 -609.3 L-388 -608.3 L-388 -607.3 L-388 -606.3 L-388 -605.4 L-388 -604.4 L-388 -603.4 L-388.1 -602.4 L-388.1 -601.4 L-388.1 -600.5 L-388.1 -599.5 L-388.1 -598.5 L-388.1 -597.5 L-388.1 -596.5 L-388.1 -595.5 L-388.2 -594.6 L-388.2 -593.6 L-388.2 -592.6 L-388.2 -591.6 L-388.2 -590.6 L-388.2 -589.7 L-388.2 -588.7 L-388.2 -587.7 L-389.2 -587.7 L-390.2 -587.7 L-391.2 -587.7 L-392.2 -587.7 L-393.1 -587.8 L-394.1 -587.8 L-395.1 -587.8 L-396.1 -587.8 L-397.1 -587.8 L-398.1 -587.8 L-399 -587.8 L-400 -587.8 L-401 -587.8 L-402 -587.9 L-403 -587.9 L-403.9 -587.9 L-404.9 -587.9 L-405.9 -587.9 L-406.9 -587.9 L-407.9 -587.9 L-408.8 -587.9 L-409.8 -588 L-410.8 -588 L-411.8 -588 L-412.8 -588 L-412.8 -589 L-412.8 -590 L-412.7 -590.9 L-412.7 -591.9 L-412.7 -592.9 L-412.7 -593.9 L-412.7 -594.9 L-412.7 -595.8 L-412.7 -596.8 L-412.7 -597.8 L-412.6 -598.8 L-412.6 -599.8 L-412.6 -600.8 L-412.6 -601.7 L-412.6 -602.7 L-412.6 -603.7 L-412.6 -604.7 L-412.6 -605.7 L-412.6 -606.6 L-412.5 -607.6 L-412.5 -608.6 L-412.5 -609.6 L-412.5 -610.6 L-412.5 -611.6 L-412.5 -612.5 L-411.5 -612.5 L-410.5 -612.5 L-409.5 -612.5 L-408.6 -612.5 L-407.6 -612.5 L-406.6 -612.5 L-405.6 -612.5 L-404.6 -612.4 L-403.6 -612.4 L-402.7 -612.4 L-401.7 -612.4 L-400.7 -612.4 L-399.7 -612.4 L-398.7 -612.4 L-397.8 -612.4 L-396.8 -612.3 L-395.8 -612.3 L-394.8 -612.3 L-393.8 -612.3 L-392.8 -612.3 L-391.9 -612.3 L-390.9 -612.3 L-389.9 -612.3 L-388.9 -612.3 L-387.9 -612.2 Z " />
<path stroke="rgb(0,0,0)" stroke-opacity="1" fill="rgb(255,255,255)" fill-opacity="1" d="M302.5 -12.89 L303.5 -12.68 L304.5 -12.38 L305.5 -12 L306.5 -11.54 L307.4 -11.02 L308.3 -10.42 L309.1 -9.749 L309.8 -9.019 L310.5 -8.232 L311.2 -7.392 L311.7 -6.503 L312.2 -5.573 L312.6 -4.606 L313 -3.61 L313.2 -2.589 L313.4 -1.551 L313.5 -0.5021 L313.5 0.551 L313.5 1.602 L313.3 2.643 L313.1 3.669 L312.7 4.673 L312.3 5.648 L311.9 6.588 L311.3 7.488 L310.7 8.342 L310 9.144 L309.3 9.889 L308.5 10.57 L307.6 11.19 L306.7 11.74 L305.8 12.21 L304.8 12.61 L303.8 12.93 L302.8 13.17 L301.7 13.33 L300.7 13.4 L299.6 13.39 L298.6 13.3 L297.5 13.12 L296.5 12.86 L295.5 12.52 L294.6 12.11 L293.6 11.62 L292.7 11.05 L291.9 10.42 L291.1 9.718 L290.4 8.959 L289.7 8.145 L289.1 7.28 L288.6 6.37 L288.1 5.42 L287.7 4.438 L287.4 3.428 L287.2 2.398 L287.1 1.354 L287 0.3021 L287.1 -0.7506 L287.2 -1.798 L287.4 -2.832 L287.7 -3.848 L288 -4.838 L288.5 -5.796 L289 -6.717 L289.5 -7.595 L290.2 -8.423 L290.9 -9.197 L291.7 -9.912 L292.5 -10.56 L293.4 -11.15 L294.3 -11.66 L295.3 -12.1 L296.3 -12.46 L297.3 -12.74 L298.3 -12.93 L299.4 -13.05 L300.4 -13.08 L301.5 -13.03 L302.5 -12.89 Z " />
<path stroke="rgb(0,0,0)" stroke-opacity="1" fill="rgb(255,255,255)" fill-opacity="1" d="M-887.9 -512.2 L-888 -511.3 L-888 -510.3 L-888 -509.3 L-888 -508.3 L-888 -507.3 L-888 -506.3 L-888 -505.4 L-888 -504.4 L-888 -503.4 L-888.1 -502.4 L-888.1 -501.4 L-888.1 -500.5 L-888.1 -499.5 L-888.1 -498.5 L-888.1 -497.5 L-888.1 -496.5 L-888.1 -495.5 L-888.2 -494.6 L-888.2 -493.6 L-888.2 -492.6 L-888.2 -491.6 L-888.2 -490.6 L-888.2 -489.7 L-888.2 -488.7 L-888.2 -487.7 L-889.2 -487.7 L-890.2 -487.7 L-891.2 -487.7 L-892.2 -487.7 L-893.1 -487.8 L-894.1 -487.8 L-895.1 -487.8 L-896.1 -487.8 L-897.1 -487.8 L-898.1 -487.8 L-899 -487.8 L-900 -487.8 L-901 -487.8 L-902 -487.9 L-903 -487.9 L-903.9 -487.9 L-904.9 -487.9 L-905.9 -487.9 L-906.9 -487.9 L-907.9 -487.9 L-908.8 -487.9 L-909.8 -488 L-910.8 -488 L-911.8 -488 L-912.8 -488 L-912.8 -489 L-912.8 -490 L-912.7 -490.9 L-912.7 -491.9 L-912.7 -492.9 L-912.7 -493.9 L-912.7 -494.9 L-912.7 -495.8 L-912.7 -496.8 L-912.7 -497.8 L-912.6 -498.8 L-912.6 -499.8 L-912.6 -500.8 L-912.6 -501.7 L-912.6 -502.7 L-912.6 -503.7 L-912.6 -504.7 L-912.6 -505.7 L-912.6 -506.6 L-912.5 -507.6 L-912.5 -508.6 L-912.5 -509.6 L-912.5 -510.6 L-912.5 -511.6 L-912.5 -512.5 L-911.5 -512.5 L-910.5 -512.5 L-909.5 -512.5 L-908.6 -512.5 L-907.6 -512.5 L-906.6 -512.5 L-905.6 -512.5 L-904.6 -512.4 L-903.6 -512.4 L-902.7 -512.4 L-901.7 -512.4 L-900.7 -512.4 L-899.7 -512.4 L-898.7 -512.4 L-897.8 -512.4 L-896.8 -512.3 L-895.8 -512.3 L-894.8 -512.3 L-893.8 -512.3 L-892.8 -512.3 L-891.9 -512.3 L-890.9 -512.3 L-889.9 -512.3 L-888.9 -512.3 L-887.9 -512.2 Z " />
<path stroke="rgb(0,0,0)" stroke-opacity="1" fill="rgb(255,255,255)" fill-opacity="1" d="M-175.9 98.97 L-175.9 100.9 L-176.1 102.8 L-176.4 104.7 L-176.8 106.6 L-177.4 108.4 L-178.1 110.1 L-179 111.8 L-180 113.5 L-181.1 115 L-182.4 116.5 L-183.8 117.8 L-185.2 119.1 L-186.8 120.2 L-188.4 121.2 L-190.1 122 L-191.9 122.7 L-193.7 123.3 L-195.6 123.7 L-197.5 124 L-199.4 124.1 L-201.3 124.1 L-203.2 123.9 L-205.1 123.6 L-207 123.1 L-208.8 122.4 L-210.6 121.7 L-212.2 120.8 L-213.8 119.7 L-215.4 118.6 L-216.8 117.3 L-218.1 115.9 L-219.3 114.4 L-220.4 112.8 L-221.4 111.2 L-222.2 109.4 L-222.8 107.6 L-223.4 105.8 L-223.8 103.9 L-224 102 L-224.1 100.1 L-224 98.18 L-223.8 96.28 L-223.4 94.4 L-222.9 92.56 L-222.2 90.76 L-221.4 89.02 L-220.5 87.35 L-219.4 85.76 L-218.2 84.27 L-216.9 82.87 L-215.5 81.58 L-214 80.4 L-212.4 79.35 L-210.7 78.43 L-209 77.65 L-207.2 77.01 L-205.3 76.51 L-203.4 76.16 L-201.5 75.97 L-199.6 75.92 L-197.7 76.03 L-195.8 76.29 L-193.9 76.7 L-192.1 77.25 L-190.3 77.95 L-188.6 78.79 L-186.9 79.77 L-185.4 80.87 L-183.9 82.09 L-182.5 83.43 L-181.2 84.87 L-180.1 86.41 L-179.1 88.03 L-178.2 89.73 L-177.4 91.49 L-176.8 93.31 L-176.4 95.17 L-176.1 97.06 L-175.9 98.97 Z " />
<path stroke="rgb(0,0,0)" stroke-opacity="1" fill="rgb(255,255,255)" fill-opacity="1" d="M-687.9 -512.2 L-688 -511.3 L-688 -510.3 L-688 -509.3 L-688 -508.3 L-688 -507.3 L-688 -506.3 L-688 -505.4 L-688 -504.4 L-688 -503.4 L-688.1 -502.4 L-688.1 -501.4 L-688.1 -500.5 L-688.1 -499.5 L-688.1 -498.5 L-688.1 -497.5 L-688.1 -496.5 L-688.1 -495.5 L-688.2 -494.6 L-688.2 -493.6 L-688.2 -492.6 L-688.2 -491.6 L-688.2 -490.6 L-688.2 -489.7 L-688.2 -488.7 L-688.2 -487.7 L-689.2 -487.7 L-690.2 -487.7 L-691.2 -487.7 L-692.2 -487.7 L-693.1 -487.8 L-694.1 -487.8 L-695.1 -487.8 L-696.1 -487.8 L-697.1 -487.8 L-698.1 -487.8 L-699 -487.8 L-700 -487.8 L-701 -487.8 L-702 -487.9 L-703 -487.9 L-703.9 -487.9 L-704.9 -487.9 L-705.9 -487.9 L-706.9 -487.9 L-707.9 -487.9 L-708.8 -487.9 L-709.8 -488 L-710.8 -488 L-711.8 -488 L-712.8 -488 L-712.8 -489 L-712.8 -490 L-712.7 -490.9 L-712.7 -491.9 L-712.7 -492.9 L-712.7 -493.9 L-712.7 -494.9 L-712.7 -495.8 L-712.7 -496.8 L-712.7 -497.8 L-712.6 -498.8 L-712.6 -499.8 L-712.6 -500.8 L-712.6 -501.7 L-712.6 -502.7 L-712.6 -503.7 L-712.6 -504.7 L-712.6 -505.7 L-712.6 -506.6 L-712.5 -507.6 L-712.5 -508.6 L-712.5 -509.6 L-712.5 -510.6 L-712.5 -511.6 L-712.5 -512.5 L-711.5 -512.5 L-710.5 -512.5 L-709.5 -512.5 L-708.6 -512.5 L-707.6 -512.5 L-706.6 -512.5 L-705.6 -512.5 L-704.6 -512.4 L-703.6 -512.4 L-702.7 -512.4 L-701.7 -512.4 L-700.7 -512.4 L-699.7 -512.4 L-698.7 -512.4 L-697.8 -512.4 L-696.8 -512.3 L-695.8 -512.3 L-694.8 -512.3 L-693.8 -512.3 L-692.8 -512.3 L-691.9 -512.3 L-690.9 -512.3 L-689.9 -512.3 L-688.9 -512.3 L-687.9 -512.2 Z " />
<path stroke="rgb(0,0,0)" stroke-opacity="1" fill="rgb(255,255,255)" fill-opacity="1" d="M15.82 89.57 L16.61 90.86 L17.3 92.2 L17.87 93.59 L18.34 95.02 L18.69 96.48 L18.92 97.97 L19.03 99.47 L19.02 101 L18.9 102.5 L18.65 104 L18.29 105.4 L17.81 106.8 L17.22 108.2 L16.52 109.6 L15.72 110.8 L14.82 112 L13.83 113.2 L12.75 114.2 L11.59 115.2 L10.36 116 L9.063 116.8 L7.71 117.5 L6.309 118 L4.868 118.5 L3.398 118.8 L1.906 119 L0.4039 119.1 L-1.1 119 L-2.597 118.9 L-4.077 118.6 L-5.53 118.2 L-6.947 117.7 L-8.32 117.1 L-9.639 116.3 L-10.9 115.5 L-12.08 114.6 L-13.2 113.6 L-14.22 112.5 L-15.16 111.3 L-16 110.1 L-16.74 108.7 L-17.37 107.4 L-17.89 106 L-18.29 104.5 L-18.58 103 L-18.76 101.5 L-18.81 100 L-18.74 98.54 L-18.56 97.05 L-18.25 95.57 L-17.83 94.13 L-17.3 92.72 L-16.65 91.36 L-15.9 90.06 L-15.05 88.82 L-14.11 87.65 L-13.07 86.56 L-11.95 85.55 L-10.75 84.64 L-9.487 83.82 L-8.161 83.11 L-6.782 82.51 L-5.36 82.02 L-3.904 81.64 L-2.422 81.38 L-0.9236 81.24 L0.581 81.21 L2.083 81.31 L3.572 81.52 L5.039 81.86 L6.476 82.31 L7.872 82.87 L9.219 83.54 L10.51 84.32 L11.73 85.19 L12.88 86.16 L13.95 87.22 L14.93 88.36 L15.82 89.57 Z " />
<path stroke="rgb(0,0,0)" stroke-opacity="1" fill="rgb(255,255,255)" fill-opacity="1" d="M-487.9 -512.2 L-488 -511.3 L-488 -510.3 L-488 -509.3 L-488 -508.3 L-488 -507.3 L-488 -506.3 L-488 -505.4 L-488 -504.4 L-488 -503.4 L-488.1 -502.4 L-488.1 -501.4 L-488.1 -500.5 L-488.1 -499.5 L-488.1 -498.5 L-488.1 -497.5 L-488.1 -496.5 L-488.1 -495.5 L-488.2 -494.6 L-488.2 -493.6 L-488.2 -492.6 L-488.2 -491.6 L-488.2 -490.6 L-488.2 -489.7 L-488.2 -488.7 L-488.2 -487.7 L-489.2 -487.7 L-490.2 -487.7 L-491.2 -487.7 L-492.2 -487.7 L-493.1 -487.8 L-494.1 -487.8 L-495.1 -487.8 L-496.1 -487.8 L-497.1 -487.8 L-498.1 -487.8 L-499 -487.8 L-500 -487.8 L-501 -487.8 L-502 -487.9 L-503 -487.9 L-503.9 -487.9 L-504.9 -487.9 L-505.9 -487.9 L-506.9 -487.9 L-507.9 -487.9 L-508.8 -487.9 L-509.8 -488 L-510.8 -488 L-511.8 -488 L-512.8 -488 L-512.8 -489 L-512.8 -490 L-512.7 -490.9 L-512.7 -491.9 L-512.7 -492.9 L-512.7 -493.9 L-512.7 -494.9 L-512.7 -495.8 L-512.7 -496.8 L-512.7 -497.8 L-512.6 -498.8 L-512.6 -499.8 L-512.6 -500.8 L-512.6 -501.7 L-512.6 -502.7 L-512.6 -503.7 L-512.6 -504.7 L-512.6 -505.7 L-512.6 -506.6 L-512.5 -507.6 L-512.5 -508.6 L-512.5 -509.6 L-512.5 -510.6 L-512.5 -511.6 L-512.5 -512.5 L-511.5 -512.5 L-510.5 -512.5 L-509.5 -512.5 L-508.6 -512.5 L-507.6 -512.5 L-506.6 -512.5 L-505.6 -512.5 L-504.6 -512.4 L-503.6 -512.4 L-502.7 -512.4 L-501.7 -512.4 L-500.7 -512.4 L-499.7 -512.4 L-498.7 -512.4 L-497.8 -512.4 L-496.8 -512.3 L-495.8 -512.3 L-494.8 -512.3 L-493.8 -512.3 L-492.8 -512.3 L-491.9 -512.3 L-490.9 -512.3 L-489.9 -512.3 L-488.9 -512.3 L-487.9 -512.2 Z " />
<path stroke="rgb(0,0,0)" stroke-opacity="1" fill="rgb(255,255,255)" fill-opacity="1" d="M202.5 87.11 L203.5 87.32 L204.5 87.62 L205.5 88 L206.5 88.46 L207.4 88.98 L208.3 89.58 L209.1 90.25 L209.8 90.98 L210.5 91.77 L211.2 92.61 L211.7 93.5 L212.2 94.43 L212.6 95.39 L213 96.39 L213.2 97.41 L213.4 98.45 L213.5 99.5 L213.5 100.6 L213.5 101.6 L213.3 102.6 L213.1 103.7 L212.7 104.7 L212.3 105.6 L211.9 106.6 L211.3 107.5 L210.7 108.3 L210 109.1 L209.3 109.9 L208.5 110.6 L207.6 111.2 L206.7 111.7 L205.8 112.2 L204.8 112.6 L203.8 112.9 L202.8 113.2 L201.7 113.3 L200.7 113.4 L199.6 113.4 L198.6 113.3 L197.5 113.1 L196.5 112.9 L195.5 112.5 L194.6 112.1 L193.6 111.6 L192.7 111.1 L191.9 110.4 L191.1 109.7 L190.4 109 L189.7 108.1 L189.1 107.3 L188.6 106.4 L188.1 105.4 L187.7 104.4 L187.4 103.4 L187.2 102.4 L187.1 101.4 L187 100.3 L187.1 99.25 L187.2 98.2 L187.4 97.17 L187.7 96.15 L188 95.16 L188.5 94.2 L189 93.28 L189.5 92.41 L190.2 91.58 L190.9 90.8 L191.7 90.09 L192.5 89.44 L193.4 88.85 L194.3 88.34 L195.3 87.9 L196.3 87.54 L197.3 87.26 L198.3 87.07 L199.4 86.95 L200.4 86.92 L201.5 86.97 L202.5 87.11 Z " />
<path stroke="rgb(0,0,0)" stroke-opacity="1" fill="rgb(255,255,255)" fill-opacity="1" d="M-287.7 -512 L-287.7 -511 L-287.7 -510.1 L-287.7 -509.1 L-287.8 -508.1 L-287.8 -507.1 L-287.8 -506.1 L-287.8 -505.2 L-287.8 -504.2 L-287.8 -503.2 L-287.8 -502.2 L-287.8 -501.2 L-287.8 -500.2 L-287.8 -499.3 L-287.8 -498.3 L-287.8 -497.3 L-287.8 -496.3 L-287.9 -495.3 L-287.9 -494.4 L-287.9 -493.4 L-287.9 -492.4 L-287.9 -491.4 L-287.9 -490.4 L-287.9 -489.4 L-287.9 -488.5 L-287.9 -487.5 L-288.9 -487.5 L-289.9 -487.5 L-290.9 -487.5 L-291.8 -487.5 L-292.8 -487.5 L-293.8 -487.5 L-294.8 -487.5 L-295.8 -487.5 L-296.7 -487.5 L-297.7 -487.6 L-298.7 -487.6 L-299.7 -487.6 L-300.7 -487.6 L-301.7 -487.6 L-302.6 -487.6 L-303.6 -487.6 L-304.6 -487.6 L-305.6 -487.6 L-306.6 -487.6 L-307.5 -487.6 L-308.5 -487.6 L-309.5 -487.6 L-310.5 -487.7 L-311.5 -487.7 L-312.5 -487.7 L-312.4 -488.7 L-312.4 -489.6 L-312.4 -490.6 L-312.4 -491.6 L-312.4 -492.6 L-312.4 -493.6 L-312.4 -494.5 L-312.4 -495.5 L-312.4 -496.5 L-312.4 -497.5 L-312.4 -498.5 L-312.4 -499.5 L-312.4 -500.4 L-312.3 -501.4 L-312.3 -502.4 L-312.3 -503.4 L-312.3 -504.4 L-312.3 -505.3 L-312.3 -506.3 L-312.3 -507.3 L-312.3 -508.3 L-312.3 -509.3 L-312.3 -510.3 L-312.3 -511.2 L-312.3 -512.2 L-311.3 -512.2 L-310.3 -512.2 L-309.3 -512.2 L-308.3 -512.2 L-307.4 -512.2 L-306.4 -512.2 L-305.4 -512.2 L-304.4 -512.2 L-303.4 -512.1 L-302.4 -512.1 L-301.5 -512.1 L-300.5 -512.1 L-299.5 -512.1 L-298.5 -512.1 L-297.5 -512.1 L-296.6 -512.1 L-295.6 -512.1 L-294.6 -512.1 L-293.6 -512.1 L-292.6 -512.1 L-291.6 -512.1 L-290.7 -512 L-289.7 -512 L-288.7 -512 L-287.7 -512 Z " />
<path stroke="rgb(0,0,0)" stroke-opacity="1" fill="rgb(255,255,255)" fill-opacity="1" d="M-275.9 199 L-275.9 200.9 L-276.1 202.8 L-276.4 204.7 L-276.8 206.6 L-277.4 208.4 L-278.1 210.1 L-279 211.8 L-280 213.5 L-281.1 215 L-282.4 216.5 L-283.8 217.8 L-285.2 219.1 L-286.8 220.2 L-288.4 221.2 L-290.1 222 L-291.9 222.7 L-293.7 223.3 L-295.6 223.7 L-297.5 224 L-299.4 224.1 L-301.3 224.1 L-303.2 223.9 L-305.1 223.6 L-307 223.1 L-308.8 222.4 L-310.6 221.7 L-312.2 220.8 L-313.8 219.7 L-315.4 218.6 L-316.8 217.3 L-318.1 215.9 L-319.3 214.4 L-320.4 212.8 L-321.4 211.2 L-322.2 209.4 L-322.8 207.6 L-323.4 205.8 L-323.8 203.9 L-324 202 L-324.1 200.1 L-324 198.2 L-323.8 196.3 L-323.4 194.4 L-322.9 192.6 L-322.2 190.8 L-321.4 189 L-320.5 187.4 L-319.4 185.8 L-318.2 184.3 L-316.9 182.9 L-315.5 181.6 L-314 180.4 L-312.4 179.4 L-310.7 178.4 L-309 177.6 L-307.2 177 L-305.3 176.5 L-303.4 176.2 L-301.5 176 L-299.6 175.9 L-297.7 176 L-295.8 176.3 L-293.9 176.7 L-292.1 177.3 L-290.3 178 L-288.6 178.8 L-286.9 179.8 L-285.4 180.9 L-283.9 182.1 L-282.5 183.4 L-281.2 184.9 L-280.1 186.4 L-279.1 188 L-278.2 189.7 L-277.4 191.5 L-276.8 193.3 L-276.4 195.2 L-276.1 197.1 L-275.9 199 Z " />
<path stroke="rgb(0,0,0)" stroke-opacity="1" fill="rgb(255,255,255)" fill-opacity="1" d="M-787.9 -412.2 L-788 -411.3 L-788 -410.3 L-788 -409.3 L-788 -408.3 L-788 -407.3 L-788 -406.3 L-788 -405.4 L-788 -404.4 L-788 -403.4 L-788.1 -402.4 L-788.1 -401.4 L-788.1 -400.5 L-788.1 -399.5 L-788.1 -398.5 L-788.1 -397.5 L-788.1 -396.5 L-788.1 -395.5 L-788.2 -394.6 L-788.2 -393.6 L-788.2 -392.6 L-788.2 -391.6 L-788.2 -390.6 L-788.2 -389.7 L-788.2 -388.7 L-788.2 -387.7 L-789.2 -387.7 L-790.2 -387.7 L-791.2 -387.7 L-792.2 -387.7 L-793.1 -387.8 L-794.1 -387.8 L-795.1 -387.8 L-796.1 -387.8 L-797.1 -387.8 L-798.1 -387.8 L-799 -387.8 L-800 -387.8 L-801 -387.8 L-802 -387.9 L-803 -387.9 L-803.9 -387.9 L-804.9 -387.9 L-805.9 -387.9 L-806.9 -387.9 L-807.9 -387.9 L-808.8 -387.9 L-809.8 -388 L-810.8 -388 L-811.8 -388 L-812.8 -388 L-812.8 -389 L-812.8 -390 L-812.7 -390.9 L-812.7 -391.9 L-812.7 -392.9 L-812.7 -393.9 L-812.7 -394.9 L-812.7 -395.8 L-812.7 -396.8 L-812.7 -397.8 L-812.6 -398.8 L-812.6 -399.8 L-812.6 -400.8 L-812.6 -401.7 L-812.6 -402.7 L-812.6 -403.7 L-812.6 -404.7 L-812.6 -405.7 L-812.6 -406.6 L-812.5 -407.6 L-812.5 -408.6 L-812.5 -409.6 L-812.5 -410.6 L-812.5 -411.6 L-812.5 -412.5 L-811.5 -412.5 L-810.5 -412.5 L-809.5 -412.5 L-808.6 -412.5 L-807.6 -412.5 L-806.6 -412.5 L-805.6 -412.5 L-804.6 -412.4 L-803.6 -412.4 L-802.7 -412.4 L-801.7 -412.4 L-800.7 -412.4 L-799.7 -412.4 L-798.7 -412.4 L-797.8 -412.4 L-796.8 -412.3 L-795.8 -412.3 L-794.8 -412.3 L-793.8 -412.3 L-792.8 -412.3 L-791.9 -412.3 L-790.9 -412.3 L-789.9 -412.3 L-788.9 -412.3 L-787.9 -412.2 Z " />
<path stroke="rgb(0,0,0)" stroke-opacity="1" fill="rgb(255,255,255)" fill-opacity="1" d="M-84.18 189.6 L-83.39 190.9 L-82.7 192.2 L-82.13 193.6 L-81.66 195 L-81.31 196.5 L-81.08 198 L-80.97 199.5 L-80.98 201 L-81.1 202.5 L-81.35 204 L-81.71 205.4 L-82.19 206.8 L-82.78 208.2 L-83.48 209.6 L-84.28 210.8 L-85.18 212 L-86.17 213.2 L-87.25 214.2 L-88.41 215.2 L-89.64 216 L-90.94 216.8 L-92.29 217.5 L-93.69 218 L-95.13 218.5 L-96.6 218.8 L-98.09 219 L-99.6 219.1 L-101.1 219 L-102.6 218.9 L-104.1 218.6 L-105.5 218.2 L-106.9 217.7 L-108.3 217.1 L-109.6 216.3 L-110.9 215.5 L-112.1 214.6 L-113.2 213.6 L-114.2 212.5 L-115.2 211.3 L-116 210.1 L-116.7 208.7 L-117.4 207.4 L-117.9 206 L-118.3 204.5 L-118.6 203 L-118.8 201.5 L-118.8 200 L-118.7 198.5 L-118.6 197 L-118.3 195.6 L-117.8 194.1 L-117.3 192.7 L-116.7 191.4 L-115.9 190.1 L-115.1 188.8 L-114.1 187.6 L-113.1 186.6 L-111.9 185.6 L-110.8 184.6 L-109.5 183.8 L-108.2 183.1 L-106.8 182.5 L-105.4 182 L-103.9 181.6 L-102.4 181.4 L-100.9 181.2 L-99.42 181.2 L-97.92 181.3 L-96.43 181.5 L-94.96 181.9 L-93.52 182.3 L-92.13 182.9 L-90.78 183.5 L-89.49 184.3 L-88.27 185.2 L-87.12 186.2 L-86.05 187.2 L-85.07 188.4 L-84.18 189.6 Z " />
<path stroke="rgb(0,0,0)" stroke-opacity="1" fill="rgb(255,255,255)" fill-opacity="1" d="M-587.9 -412.2 L-588 -411.3 L-588 -410.3 L-588 -409.3 L-588 -408.3 L-588 -407.3 L-588 -406.3 L-588 -405.4 L-588 -404.4 L-588 -403.4 L-588.1 -402.4 L-588.1 -401.4 L-588.1 -400.5 L-588.1 -399.5 L-588.1 -398.5 L-588.1 -397.5 L-588.1 -396.5 L-588.1 -395.5 L-588.2 -394.6 L-588.2 -393.6 L-588.2 -392.6 L-588.2 -391.6 L-588.2 -390.6 L-588.2 -389.7 L-588.2 -388.7 L-588.2 -387.7 L-589.2 -387.7 L-590.2 -387.7 L-591.2 -387.7 L-592.2 -387.7 L-593.1 -387.8 L-594.1 -387.8 L-595.1 -387.8 L-596.1 -387.8 L-597.1 -387.8 L-598.1 -387.8 L-599 -387.8 L-600 -387.8 L-601 -387.8 L-602 -387.9 L-603 -387.9 L-603.9 -387.9 L-604.9 -387.9 L-605.9 -387.9 L-606.9 -387.9 L-607.9 -387.9 L-608.8 -387.9 L-609.8 -388 L-610.8 -388 L-611.8 -388 L-612.8 -388 L-612.8 -389 L-612.8 -390 L-612.7 -390.9 L-612.7 -391.9 L-612.7 -392.9 L-612.7 -393.9 L-612.7 -394.9 L-612.7 -395.8 L-612.7 -396.8 L-612.7 -397.8 L-612.6 -398.8 L-612.6 -399.8 L-612.6 -400.8 L-612.6 -401.7 L-612.6 -402.7 L-612.6 -403.7 L-612.6 -404.7 L-612.6 -405.7 L-612.6 -406.6 L-612.5 -407.6 L-612.5 -408.6 L-612.5 -409.6 L-612.5 -410.6 L-612.5 -411.6 L-612.5 -412.5 L-611.5 -412.5 L-610.5 -412.5 L-609.5 -412.5 L-608.6 -412.5 L-607.6 -412.5 L-606.6 -412.5 L-605.6 -412.5 L-604.6 -412.4 L-603.6 -412.4 L-602.7 -412.4 L-601.7 -412.4 L-600.7 -412.4 L-599.7 -412.4 L-598.7 -412.4 L-597.8 -412.4 L-596.8 -412.3 L-595.8 -412.3 L-594.8 -412.3 L-593.8 -412.3 L-592.8 -412.3 L-591.9 -412.3 L-590.9 -412.3 L-589.9 -412.3 L-588.9 -412.3 L-587.9 -412.2 Z " />
<path stroke="rgb(0,0,0)" stroke-opacity="1" fill="rgb(255,255,255)" fill-opacity="1" d="M102.5 187.1 L103.5 187.3 L104.5 187.6 L105.5 188 L106.5 188.5 L107.4 189 L108.3 189.6 L109.1 190.3 L109.8 191 L110.5 191.8 L111.2 192.6 L111.7 193.5 L112.2 194.4 L112.6 195.4 L113 196.4 L113.2 197.4 L113.4 198.4 L113.5 199.5 L113.5 200.6 L113.5 201.6 L113.3 202.6 L113.1 203.7 L112.7 204.7 L112.3 205.6 L111.9 206.6 L111.3 207.5 L110.7 208.3 L110 209.1 L109.3 209.9 L108.5 210.6 L107.6 211.2 L106.7 211.7 L105.8 212.2 L104.8 212.6 L103.8 212.9 L102.8 213.2 L101.7 213.3 L100.7 213.4 L99.63 213.4 L98.58 213.3 L97.55 213.1 L96.53 212.9 L95.53 212.5 L94.56 212.1 L93.63 211.6 L92.74 211.1 L91.9 210.4 L91.11 209.7 L90.38 209 L89.71 208.1 L89.11 207.3 L88.58 206.4 L88.13 205.4 L87.75 204.4 L87.45 203.4 L87.23 202.4 L87.09 201.4 L87.04 200.3 L87.07 199.2 L87.19 198.2 L87.38 197.2 L87.66 196.2 L88.02 195.2 L88.46 194.2 L88.97 193.3 L89.55 192.4 L90.2 191.6 L90.91 190.8 L91.69 190.1 L92.52 189.4 L93.39 188.9 L94.31 188.3 L95.27 187.9 L96.26 187.5 L97.28 187.3 L98.31 187.1 L99.36 187 L100.4 186.9 L101.5 187 L102.5 187.1 Z " />
<path stroke="rgb(0,0,0)" stroke-opacity="1" fill="rgb(255,255,255)" fill-opacity="1" d="M-387.7 -412 L-387.7 -411 L-387.7 -410.1 L-387.7 -409.1 L-387.8 -408.1 L-387.8 -407.1 L-387.8 -406.1 L-387.8 -405.2 L-387.8 -404.2 L-387.8 -403.2 L-387.8 -402.2 L-387.8 -401.2 L-387.8 -400.2 L-387.8 -399.3 L-387.8 -398.3 L-387.8 -397.3 L-387.8 -396.3 L-387.9 -395.3 L-387.9 -394.4 L-387.9 -393.4 L-387.9 -392.4 L-387.9 -391.4 L-387.9 -390.4 L-387.9 -389.4 L-387.9 -388.5 L-387.9 -387.5 L-388.9 -387.5 L-389.9 -387.5 L-390.9 -387.5 L-391.8 -387.5 L-392.8 -387.5 L-393.8 -387.5 L-394.8 -387.5 L-395.8 -387.5 L-396.7 -387.5 L-397.7 -387.6 L-398.7 -387.6 L-399.7 -387.6 L-400.7 -387.6 L-401.7 -387.6 L-402.6 -387.6 L-403.6 -387.6 L-404.6 -387.6 L-405.6 -387.6 L-406.6 -387.6 L-407.5 -387.6 L-408.5 -387.6 L-409.5 -387.6 L-410.5 -387.7 L-411.5 -387.7 L-412.5 -387.7 L-412.4 -388.7 L-412.4 -389.6 L-412.4 -390.6 L-412.4 -391.6 L-412.4 -392.6 L-412.4 -393.6 L-412.4 -394.5 L-412.4 -395.5 L-412.4 -396.5 L-412.4 -397.5 L-412.4 -398.5 L-412.4 -399.5 L-412.4 -400.4 L-412.3 -401.4 L-412.3 -402.4 L-412.3 -403.4 L-412.3 -404.4 L-412.3 -405.3 L-412.3 -406.3 L-412.3 -407.3 L-412.3 -408.3 L-412.3 -409.3 L-412.3 -410.3 L-412.3 -411.2 L-412.3 -412.2 L-411.3 -412.2 L-410.3 -412.2 L-409.3 -412.2 L-408.3 -412.2 L-407.4 -412.2 L-406.4 -412.2 L-405.4 -412.2 L-404.4 -412.2 L-403.4 -412.1 L-402.4 -412.1 L-401.5 -412.1 L-400.5 -412.1 L-399.5 -412.1 L-398.5 -412.1 L-397.5 -412.1 L-396.6 -412.1 L-395.6 -412.1 L-394.6 -412.1 L-393.6 -412.1 L-392.6 -412.1 L-391.6 -412.1 L-390.7 -412 L-389.7 -412 L-388.7 -412 L-387.7 -412 Z " />
<path stroke="rgb(0,0,0)" stroke-opacity="1" fill="rgb(255,255,255)" fill-opacity="1" d="M300.5 187.8 L301.5 187.8 L302.4 188 L303.4 188.2 L304.3 188.5 L305.2 188.8 L306.1 189.2 L307 189.7 L307.8 190.3 L308.5 190.9 L309.3 191.6 L309.9 192.3 L310.5 193.1 L311 194 L311.5 194.8 L311.9 195.7 L312.2 196.7 L312.4 197.6 L312.6 198.6 L312.7 199.6 L312.7 200.6 L312.6 201.5 L312.5 202.5 L312.2 203.5 L311.9 204.4 L311.6 205.3 L311.1 206.2 L310.6 207 L310 207.8 L309.4 208.6 L308.7 209.3 L307.9 209.9 L307.1 210.5 L306.3 211 L305.4 211.4 L304.5 211.8 L303.6 212.1 L302.6 212.3 L301.6 212.5 L300.6 212.5 L299.7 212.5 L298.7 212.4 L297.7 212.2 L296.8 212 L295.8 211.7 L294.9 211.3 L294.1 210.8 L293.2 210.3 L292.4 209.7 L291.7 209 L291 208.3 L290.4 207.6 L289.9 206.8 L289.4 205.9 L288.9 205 L288.6 204.1 L288.3 203.2 L288.1 202.2 L288 201.2 L287.9 200.2 L288 199.3 L288.1 198.3 L288.3 197.3 L288.5 196.4 L288.9 195.4 L289.3 194.6 L289.8 193.7 L290.3 192.9 L290.9 192.1 L291.6 191.4 L292.3 190.7 L293.1 190.1 L293.9 189.6 L294.8 189.1 L295.7 188.7 L296.6 188.4 L297.5 188.1 L298.5 187.9 L299.5 187.8 L300.5 187.8 Z " />
<path stroke="rgb(0,0,0)" stroke-opacity="1" fill="rgb(255,255,255)" fill-opacity="1" d="M-887.9 -312.2 L-888 -311.3 L-888 -310.3 L-888 -309.3 L-888 -308.3 L-888 -307.3 L-888 -306.3 L-888 -305.4 L-888 -304.4 L-888 -303.4 L-888.1 -302.4 L-888.1 -301.4 L-888.1 -300.5 L-888.1 -299.5 L-888.1 -298.5 L-888.1 -297.5 L-888.1 -296.5 L-888.1 -295.5 L-888.2 -294.6 L-888.2 -293.6 L-888.2 -292.6 L-888.2 -291.6 L-888.2 -290.6 L-888.2 -289.7 L-888.2 -288.7 L-888.2 -287.7 L-889.2 -287.7 L-890.2 -287.7 L-891.2 -287.7 L-892.2 -287.7 L-893.1 -287.8 L-894.1 -287.8 L-895.1 -287.8 L-896.1 -287.8 L-897.1 -287.8 L-898.1 -287.8 L-899 -287.8 L-900 -287.8 L-901 -287.8 L-902 -287.9 L-903 -287.9 L-903.9 -287.9 L-904.9 -287.9 L-905.9 -287.9 L-906.9 -287.9 L-907.9 -287.9 L-908.8 -287.9 L-909.8 -288 L-910.8 -288 L-911.8 -288 L-912.8 -288 L-912.8 -289 L-912.8 -290 L-912.7 -290.9 L-912.7 -291.9 L-912.7 -292.9 L-912.7 -293.9 L-912.7 -294.9 L-912.7 -295.8 L-912.7 -296.8 L-912.7 -297.8 L-912.6 -298.8 L-912.6 -299.8 L-912.6 -300.8 L-912.6 -301.7 L-912.6 -302.7 L-912.6 -303.7 L-912.6 -304.7 L-912.6 -305.7 L-912.6 -306.6 L-912.5 -307.6 L-912.5 -308.6 L-912.5 -309.6 L-912.5 -310.6 L-912.5 -311.6 L-912.5 -312.5 L-911.5 -312.5 L-910.5 -312.5 L-909.5 -312.5 L-908.6 -312.5 L-907.6 -312.5 L-906.6 -312.5 L-905.6 -312.5 L-904.6 -312.4 L-903.6 -312.4 L-902.7 -312.4 L-901.7 -312.4 L-900.7 -312.4 L-899.7 -312.4 L-898.7 -312.4 L-897.8 -312.4 L-896.8 -312.3 L-895.8 -312.3 L-894.8 -312.3 L-893.8 -312.3 L-892.8 -312.3 L-891.9 -312.3 L-890.9 -312.3 L-889.9 -312.3 L-888.9 -312.3 L-887.9 -312.2 Z " />
<path stroke="rgb(0,0,0)" stroke-opacity="1" fill="rgb(255,255,255)" fill-opacity="1" d="M-184.2 289.6 L-183.4 290.9 L-182.7 292.2 L-182.1 293.6 L-181.7 295 L-181.3 296.5 L-181.1 298 L-181 299.5 L-181 301 L-181.1 302.5 L-181.3 304 L-181.7 305.4 L-182.2 306.8 L-182.8 308.2 L-183.5 309.6 L-184.3 310.8 L-185.2 312 L-186.2 313.2 L-187.2 314.2 L-188.4 315.2 L-189.6 316 L-190.9 316.8 L-192.3 317.5 L-193.7 318 L-195.1 318.5 L-196.6 318.8 L-198.1 319 L-199.6 319.1 L-201.1 319 L-202.6 318.9 L-204.1 318.6 L-205.5 318.2 L-206.9 317.7 L-208.3 317.1 L-209.6 316.3 L-210.9 315.5 L-212.1 314.6 L-213.2 313.6 L-214.2 312.5 L-215.2 311.3 L-216 310.1 L-216.7 308.7 L-217.4 307.4 L-217.9 306 L-218.3 304.5 L-218.6 303 L-218.8 301.5 L-218.8 300 L-218.7 298.5 L-218.6 297 L-218.3 295.6 L-217.8 294.1 L-217.3 292.7 L-216.7 291.4 L-215.9 290.1 L-215.1 288.8 L-214.1 287.6 L-213.1 286.6 L-211.9 285.6 L-210.8 284.6 L-209.5 283.8 L-208.2 283.1 L-206.8 282.5 L-205.4 282 L-203.9 281.6 L-202.4 281.4 L-200.9 281.2 L-199.4 281.2 L-197.9 281.3 L-196.4 281.5 L-195 281.9 L-193.5 282.3 L-192.1 282.9 L-190.8 283.5 L-189.5 284.3 L-188.3 285.2 L-187.1 286.2 L-186 287.2 L-185.1 288.4 L-184.2 289.6 Z " />
<path stroke="rgb(0,0,0)" stroke-opacity="1" fill="rgb(255,255,255)" fill-opacity="1" d="M-687.9 -312.2 L-688 -311.3 L-688 -310.3 L-688 -309.3 L-688 -308.3 L-688 -307.3 L-688 -306.3 L-688 -305.4 L-688 -304.4 L-688 -303.4 L-688.1 -302.4 L-688.1 -301.4 L-688.1 -300.5 L-688.1 -299.5 L-688.1 -298.5 L-688.1 -297.5 L-688.1 -296.5 L-688.1 -295.5 L-688.2 -294.6 L-688.2 -293.6 L-688.2 -292.6 L-688.2 -291.6 L-688.2 -290.6 L-688.2 -289.7 L-688.2 -288.7 L-688.2 -287.7 L-689.2 -287.7 L-690.2 -287.7 L-691.2 -287.7 L-692.2 -287.7 L-693.1 -287.8 L-694.1 -287.8 L-695.1 -287.8 L-696.1 -287.8 L-697.1 -287.8 L-698.1 -287.8 L-699 -287.8 L-700 -287.8 L-701 -287.8 L-702 -287.9 L-703 -287.9 L-703.9 -287.9 L-704.9 -287.9 L-705.9 -287.9 L-706.9 -287.9 L-707.9 -287.9 L-708.8 -287.9 L-709.8 -288 L-710.8 -288 L-711.8 -288 L-712.8 -288 L-712.8 -289 L-712.8 -290 L-712.7 -290.9 L-712.7 -291.9 L-712.7 -292.9 L-712.7 -293.9 L-712.7 -294.9 L-712.7 -295.8 L-712.7 -296.8 L-712.7 -297.8 L-712.6 -298.8 L-712.6 -299.8 L-712.6 -300.8 L-712.6 -301.7 L-712.6 -302.7 L-712.6 -303.7 L-712.6 -304.7 L-712.6 -305.7 L-712.6 -306.6 L-712.5 -307.6 L-712.5 -308.6 L-712.5 -309.6 L-712.5 -310.6 L-712.5 -311.6 L-712.5 -312.5 L-711.5 -312.5 L-710.5 -312.5 L-709.5 -312.5 L-708.6 -312.5 L-707.6 -312.5 L-706.6 -312.5 L-705.6 -312.5 L-704.6 -312.4 L-703.6 -312.4 L-702.7 -312.4 L-701.7 -312.4 L-700.7 -312.4 L-699.7 -312.4 L-698.7 -312.4 L-697.8 -312.4 L-696.8 -312.3 L-695.8 -312.3 L-694.8 -312.3 L-693.8 -312.3 L-692.8 -312.3 L-691.9 -312.3 L-690.9 -312.3 L-689.9 -312.3 L-688.9 -312.3 L-687.9 -312.2 Z " />
<path stroke="rgb(0,0,0)" stroke-opacity="1" fill="rgb(255,255,255)" fill-opacity="1" d="M2.506 287.1 L3.536 287.3 L4.546 287.6 L5.529 288 L6.478 288.5 L7.389 289 L8.255 289.6 L9.07 290.3 L9.83 291 L10.53 291.8 L11.16 292.6 L11.73 293.5 L12.22 294.4 L12.64 295.4 L12.98 296.4 L13.24 297.4 L13.42 298.4 L13.51 299.5 L13.52 300.6 L13.45 301.6 L13.3 302.6 L13.06 303.7 L12.74 304.7 L12.34 305.6 L11.87 306.6 L11.32 307.5 L10.7 308.3 L10.02 309.1 L9.276 309.9 L8.475 310.6 L7.622 311.2 L6.723 311.7 L5.783 312.2 L4.808 312.6 L3.804 312.9 L2.779 313.2 L1.737 313.3 L0.6869 313.4 L-0.3662 313.4 L-1.415 313.3 L-2.453 313.1 L-3.474 312.9 L-4.472 312.5 L-5.439 312.1 L-6.369 311.6 L-7.258 311.1 L-8.099 310.4 L-8.888 309.7 L-9.618 309 L-10.29 308.1 L-10.89 307.3 L-11.42 306.4 L-11.87 305.4 L-12.25 304.4 L-12.55 303.4 L-12.77 302.4 L-12.91 301.4 L-12.96 300.3 L-12.93 299.2 L-12.81 298.2 L-12.62 297.2 L-12.34 296.2 L-11.98 295.2 L-11.54 294.2 L-11.03 293.3 L-10.45 292.4 L-9.8 291.6 L-9.086 290.8 L-8.313 290.1 L-7.485 289.4 L-6.608 288.9 L-5.688 288.3 L-4.73 287.9 L-3.74 287.5 L-2.725 287.3 L-1.69 287.1 L-0.6434 287 L0.4092 286.9 L1.461 287 L2.506 287.1 Z " />
<path stroke="rgb(0,0,0)" stroke-opacity="1" fill="rgb(255,255,255)" fill-opacity="1" d="M-487.7 -312 L-487.7 -311 L-487.7 -310.1 L-487.7 -309.1 L-487.8 -308.1 L-487.8 -307.1 L-487.8 -306.1 L-487.8 -305.2 L-487.8 -304.2 L-487.8 -303.2 L-487.8 -302.2 L-487.8 -301.2 L-487.8 -300.2 L-487.8 -299.3 L-487.8 -298.3 L-487.8 -297.3 L-487.8 -296.3 L-487.9 -295.3 L-487.9 -294.4 L-487.9 -293.4 L-487.9 -292.4 L-487.9 -291.4 L-487.9 -290.4 L-487.9 -289.4 L-487.9 -288.5 L-487.9 -287.5 L-488.9 -287.5 L-489.9 -287.5 L-490.9 -287.5 L-491.8 -287.5 L-492.8 -287.5 L-493.8 -287.5 L-494.8 -287.5 L-495.8 -287.5 L-496.7 -287.5 L-497.7 -287.6 L-498.7 -287.6 L-499.7 -287.6 L-500.7 -287.6 L-501.7 -287.6 L-502.6 -287.6 L-503.6 -287.6 L-504.6 -287.6 L-505.6 -287.6 L-506.6 -287.6 L-507.5 -287.6 L-508.5 -287.6 L-509.5 -287.6 L-510.5 -287.7 L-511.5 -287.7 L-512.5 -287.7 L-512.4 -288.7 L-512.4 -289.6 L-512.4 -290.6 L-512.4 -291.6 L-512.4 -292.6 L-512.4 -293.6 L-512.4 -294.5 L-512.4 -295.5 L-512.4 -296.5 L-512.4 -297.5 L-512.4 -298.5 L-512.4 -299.5 L-512.4 -300.4 L-512.3 -301.4 L-512.3 -302.4 L-512.3 -303.4 L-512.3 -304.4 L-512.3 -305.3 L-512.3 -306.3 L-512.3 -307.3 L-512.3 -308.3 L-512.3 -309.3 L-512.3 -310.3 L-512.3 -311.2 L-512.3 -312.2 L-511.3 -312.2 L-510.3 -312.2 L-509.3 -312.2 L-508.3 -312.2 L-507.4 -312.2 L-506.4 -312.2 L-505.4 -312.2 L-504.4 -312.2 L-503.4 -312.1 L-502.4 -312.1 L-501.5 -312.1 L-500.5 -312.1 L-499.5 -312.1 L-498.5 -312.1 L-497.5 -312.1 L-496.6 -312.1 L-495.6 -312.1 L-494.6 -312.1 L-493.6 -312.1 L-492.6 -312.1 L-491.6 -312.1 L-490.7 -312 L-489.7 -312 L-488.7 -312 L-487.7 -312 Z " />
<path stroke="rgb(0,0,0)" stroke-opacity="1" fill="rgb(255,255,255)" fill-opacity="1" d="M200.5 287.8 L201.5 287.8 L202.4 288 L203.4 288.2 L204.3 288.5 L205.2 288.8 L206.1 289.2 L207 289.7 L207.8 290.3 L208.5 290.9 L209.3 291.6 L209.9 292.3 L210.5 293.1 L211 294 L211.5 294.8 L211.9 295.7 L212.2 296.7 L212.4 297.6 L212.6 298.6 L212.7 299.6 L212.7 300.6 L212.6 301.5 L212.5 302.5 L212.2 303.5 L211.9 304.4 L211.6 305.3 L211.1 306.2 L210.6 307 L210 307.8 L209.4 308.6 L208.7 309.3 L207.9 309.9 L207.1 310.5 L206.3 311 L205.4 311.4 L204.5 311.8 L203.6 312.1 L202.6 312.3 L201.6 312.5 L200.6 312.5 L199.7 312.5 L198.7 312.4 L197.7 312.2 L196.8 312 L195.8 311.7 L194.9 311.3 L194.1 310.8 L193.2 310.3 L192.4 309.7 L191.7 309 L191 308.3 L190.4 307.6 L189.9 306.8 L189.4 305.9 L188.9 305 L188.6 304.1 L188.3 303.2 L188.1 302.2 L188 301.2 L187.9 300.2 L188 299.3 L188.1 298.3 L188.3 297.3 L188.5 296.4 L188.9 295.4 L189.3 294.6 L189.8 293.7 L190.3 292.9 L190.9 292.1 L191.6 291.4 L192.3 290.7 L193.1 290.1 L193.9 289.6 L194.8 289.1 L195.7 288.7 L196.6 288.4 L197.5 288.1 L198.5 287.9 L199.5 287.8 L200.5 287.8 Z " />
<path stroke="rgb(0,0,0)" stroke-opacity="1" fill="rgb(255,255,255)" fill-opacity="1" d="M-285.6 -309.9 L-285.6 -308.9 L-285.6 -307.9 L-285.5 -307 L-285.5 -306 L-285.5 -305 L-285.4 -304 L-285.4 -303 L-285.4 -302.1 L-285.3 -301.1 L-285.3 -300.1 L-285.3 -299.1 L-285.2 -298.1 L-285.2 -297.2 L-285.2 -296.2 L-285.1 -295.2 L-285.1 -294.2 L-285.1 -293.2 L-285 -292.2 L-285 -291.3 L-285 -290.3 L-284.9 -289.3 L-284.9 -288.3 L-284.9 -287.3 L-284.8 -286.4 L-284.8 -285.4 L-285.8 -285.3 L-286.8 -285.3 L-287.8 -285.3 L-288.7 -285.2 L-289.7 -285.2 L-290.7 -285.2 L-291.7 -285.1 L-292.7 -285.1 L-293.6 -285.1 L-294.6 -285.1 L-295.6 -285 L-296.6 -285 L-297.6 -285 L-298.5 -284.9 L-299.5 -284.9 L-300.5 -284.9 L-301.5 -284.8 L-302.5 -284.8 L-303.5 -284.8 L-304.4 -284.7 L-305.4 -284.7 L-306.4 -284.7 L-307.4 -284.6 L-308.4 -284.6 L-309.3 -284.6 L-309.4 -285.5 L-309.4 -286.5 L-309.4 -287.5 L-309.5 -288.5 L-309.5 -289.5 L-309.5 -290.5 L-309.6 -291.4 L-309.6 -292.4 L-309.6 -293.4 L-309.7 -294.4 L-309.7 -295.4 L-309.7 -296.3 L-309.8 -297.3 L-309.8 -298.3 L-309.8 -299.3 L-309.9 -300.3 L-309.9 -301.2 L-309.9 -302.2 L-310 -303.2 L-310 -304.2 L-310 -305.2 L-310.1 -306.2 L-310.1 -307.1 L-310.1 -308.1 L-310.2 -309.1 L-309.2 -309.1 L-308.2 -309.2 L-307.2 -309.2 L-306.2 -309.2 L-305.2 -309.3 L-304.3 -309.3 L-303.3 -309.3 L-302.3 -309.4 L-301.3 -309.4 L-300.3 -309.4 L-299.4 -309.5 L-298.4 -309.5 L-297.4 -309.5 L-296.4 -309.6 L-295.4 -309.6 L-294.5 -309.6 L-293.5 -309.6 L-292.5 -309.7 L-291.5 -309.7 L-290.5 -309.7 L-289.5 -309.8 L-288.6 -309.8 L-287.6 -309.8 L-286.6 -309.9 L-285.6 -309.9 Z " />
</g>
</g>
</svg>
