<!DOCTYPE svg>
<svg xmlns="http://www.w3.org/2000/svg" xmlns:xlink="http://www.w3.org/1999/xlink" width="1080" height="1080">
<g transform="translate(540.000000,540.000000)">
<g transform="scale(2,2)">
<path stroke="rgb(0,0,0)" stroke-opacity="1" fill="rgb(148,200,200)" fill-opacity="1" id="bb1_2_" d="M-109.1 -66.96 L-109 -64.98 L-108.9 -62.99 L-108.8 -61.01 L-108.7 -59.02 L-108.6 -57.04 L-108.5 -55.05 L-108.5 -53.07 L-108.4 -51.08 L-108.3 -49.1 L-108.2 -47.11 L-108.1 -45.12 L-108 -43.14 L-107.9 -41.15 L-107.8 -39.17 L-107.7 -37.18 L-107.6 -35.2 L-107.5 -33.21 L-107.4 -31.23 L-107.3 -29.24 L-107.2 -27.26 L-107.1 -25.27 L-107 -23.29 L-106.9 -21.3 L-106.9 -19.32 L-106.8 -17.33 L-106.7 -15.35 L-106.6 -13.36 L-106.5 -11.38 L-106.4 -9.392 L-108.2 -8.498 L-110 -7.603 L-111.8 -6.708 L-113.6 -5.813 L-115.4 -4.918 L-117.2 -4.023 L-119 -3.128 L-120.8 -2.234 L-122.6 -1.339 L-124.4 -0.4438 L-126.2 0.451 L-128 1.346 L-129.8 2.241 L-131.6 3.136 L-133.3 4.03 L-135.1 4.925 L-136.9 5.82 L-138.7 6.715 L-140.5 7.61 L-142.3 8.505 L-144.1 9.4 L-145.9 10.29 L-147.7 11.19 L-149.5 12.08 L-151.3 12.98 L-153.1 13.87 L-154.9 14.77 L-155 12.78 L-155.1 10.8 L-155.2 8.813 L-155.3 6.828 L-155.4 4.843 L-155.5 2.858 L-155.6 0.8728 L-155.7 -1.112 L-155.8 -3.097 L-155.9 -5.083 L-156 -7.068 L-156 -9.053 L-156.1 -11.04 L-156.2 -13.02 L-156.3 -15.01 L-156.4 -16.99 L-156.5 -18.98 L-156.6 -20.96 L-156.7 -22.95 L-156.8 -24.93 L-156.9 -26.92 L-157 -28.9 L-157.1 -30.89 L-157.2 -32.87 L-157.3 -34.86 L-157.4 -36.84 L-157.5 -38.83 L-157.6 -40.82 L-157.6 -42.8 L-155.9 -43.7 L-154.1 -44.59 L-152.3 -45.48 L-150.5 -46.38 L-148.7 -47.27 L-146.9 -48.17 L-145.1 -49.06 L-143.3 -49.96 L-141.5 -50.85 L-139.7 -51.75 L-137.9 -52.64 L-136.1 -53.54 L-134.3 -54.43 L-132.5 -55.33 L-130.7 -56.22 L-128.9 -57.12 L-127.1 -58.01 L-125.3 -58.91 L-123.5 -59.8 L-121.7 -60.7 L-119.9 -61.59 L-118.1 -62.49 L-116.3 -63.38 L-114.5 -64.28 L-112.7 -65.17 L-110.9 -66.07 L-109.1 -66.96 Z " />
<path stroke="rgb(0,0,0)" stroke-opacity="1" fill="rgb(236,216,157)" fill-opacity="1" id="pr2_1_" d="M71.27 102.5 L69.88 101.8 L68.49 101.1 L67.1 100.4 L65.71 99.68 L64.32 98.98 L62.94 98.27 L61.55 97.56 L60.16 96.85 L60.18 95.33 L60.2 93.81 L60.23 92.29 L60.25 90.77 L60.27 89.25 L60.29 87.73 L60.32 86.21 L61.69 86.91 L63.07 87.61 L64.45 88.31 L65.83 89.01 L67.21 89.71 L68.59 90.41 L69.97 91.11 L71.35 91.8 L71.34 93.34 L71.33 94.87 L71.31 96.4 L71.3 97.93 L71.29 99.46 L71.28 101 L71.27 102.5 Z " />
<path stroke="rgb(0,0,0)" stroke-opacity="1" fill="rgb(236,216,157)" fill-opacity="1" id="pr1_1_" d="M54.92 96.08 L53.16 95.17 L51.41 94.27 L49.65 93.37 L47.9 92.47 L46.14 91.56 L44.39 90.66 L42.64 89.76 L40.88 88.86 L40.9 86.92 L40.91 84.99 L40.92 83.06 L40.94 81.12 L40.95 79.19 L40.97 77.26 L40.98 75.32 L42.74 76.22 L44.49 77.13 L46.24 78.03 L48 78.93 L49.75 79.83 L51.51 80.74 L53.26 81.64 L55.02 82.54 L55 84.47 L54.99 86.41 L54.97 88.34 L54.96 90.28 L54.95 92.21 L54.93 94.14 L54.92 96.08 Z " />
<path stroke="rgb(0,0,0)" stroke-opacity="1" fill="rgb(236,216,157)" fill-opacity="1" id="pr3_1_" d="M54.6 113.6 L52.85 112.7 L51.1 111.8 L49.35 110.9 L47.6 110 L45.85 109.1 L44.1 108.1 L42.35 107.2 L40.6 106.3 L40.61 104.4 L40.63 102.5 L40.64 100.6 L40.66 98.64 L40.67 96.71 L40.69 94.78 L40.7 92.85 L42.45 93.75 L44.2 94.65 L45.95 95.55 L47.7 96.45 L49.45 97.35 L51.2 98.25 L52.95 99.15 L54.7 100.1 L54.69 102 L54.67 103.9 L54.66 105.8 L54.64 107.8 L54.63 109.7 L54.61 111.6 L54.6 113.6 Z " />
<path stroke="rgb(0,0,0)" stroke-opacity="1" fill="rgb(236,216,157)" fill-opacity="1" id="pr4_1_" d="M72.3 121.7 L70.54 120.9 L68.77 120 L67.01 119.1 L65.25 118.2 L63.49 117.3 L61.73 116.4 L59.96 115.5 L58.2 114.6 L58.21 112.7 L58.23 110.8 L58.24 108.9 L58.26 106.9 L58.27 105 L58.29 103.1 L58.3 101.1 L60.06 102 L61.82 102.9 L63.59 103.8 L65.35 104.7 L67.11 105.6 L68.87 106.5 L70.64 107.4 L72.4 108.2 L72.39 110.2 L72.37 112.1 L72.36 114 L72.34 116 L72.33 117.9 L72.31 119.8 L72.3 121.7 Z " />
<path stroke="rgb(0,0,0)" stroke-opacity="1" fill="rgb(238,200,200)" fill-opacity="1" id="ll1_1_" d="M219.1 184.1 L215.7 182.5 L212.3 180.9 L208.9 179.3 L205.5 177.7 L202.1 176.2 L198.7 174.6 L195.3 173 L191.9 171.4 L188.5 169.8 L185.1 168.2 L181.7 166.6 L178.4 165 L175 163.5 L171.6 161.9 L168.2 160.3 L164.8 158.7 L164.8 154.9 L164.8 151.1 L164.8 147.3 L164.8 143.5 L164.8 139.7 L164.8 136 L164.8 132.2 L164.8 128.4 L164.8 124.6 L164.8 120.8 L164.8 117 L164.8 113.2 L164.8 109.4 L164.8 105.6 L168.2 107.2 L171.6 108.8 L175 110.4 L178.4 112 L181.7 113.6 L185.1 115.2 L188.5 116.8 L191.9 118.4 L195.3 120 L198.7 121.6 L202.1 123.2 L205.5 124.8 L208.9 126.4 L212.3 128 L215.7 129.6 L219.1 131.2 L219.1 135 L219.1 138.8 L219.1 142.6 L219.1 146.3 L219.1 150.1 L219.1 153.9 L219.1 157.7 L219.1 161.4 L219.1 165.2 L219.1 169 L219.1 172.8 L219.1 176.5 L219.1 180.3 L219.1 184.1 Z " />
<path stroke="rgb(0,0,0)" stroke-opacity="1" fill="rgb(255,255,255)" fill-opacity="1" id="cl1_1_" d="M37.96 97.76 L37.06 99.56 L36.15 101.4 L35.25 103.2 L34.35 105 L33.45 106.8 L32.55 108.6 L31.65 110.4 L30.75 112.2 L29.85 114 L28.95 115.8 L28.04 117.6 L27.14 119.4 L26.24 121.2 L25.34 123 L24.44 124.8 L22.35 124.9 L23.27 123.1 L24.2 121.3 L25.12 119.5 L26.04 117.7 L26.96 115.9 L27.88 114.1 L28.8 112.3 L29.72 110.5 L30.64 108.7 L31.56 106.9 L32.48 105.1 L33.4 103.3 L34.33 101.5 L35.25 99.66 L36.17 97.86 L37.96 97.76 Z " />
<path stroke="rgb(0,0,0)" stroke-opacity="1" fill="rgb(255,255,255)" fill-opacity="1" id="a5_2_" d="M206 -50.75 L204.1 -51.59 L202.2 -52.44 L200.3 -53.28 L198.5 -54.12 L196.6 -54.96 L194.7 -55.81 L192.8 -56.65 L190.9 -57.49 L189 -58.34 L187.1 -59.18 L185.3 -60.02 L183.4 -60.86 L181.5 -61.71 L179.6 -62.55 L179.6 -60.6 L179.6 -58.64 L179.6 -56.69 L179.6 -54.73 L179.6 -52.78 L179.6 -50.83 L179.6 -48.87 L179.6 -46.92 L179.6 -44.97 L179.6 -43.01 L179.6 -41.06 L179.6 -39.1 L179.6 -37.15 L181.5 -36.31 L183.4 -35.46 L185.3 -34.62 L187.1 -33.78 L189 -32.94 L190.9 -32.09 L192.8 -31.25 L194.7 -30.41 L196.6 -29.56 L198.5 -28.72 L200.3 -27.88 L202.2 -27.04 L204.1 -26.19 L206 -25.35 L206 -27.3 L206 -29.26 L206 -31.21 L206 -33.17 L206 -35.12 L206 -37.07 L206 -39.03 L206 -40.98 L206 -42.93 L206 -44.89 L206 -46.84 L206 -48.8 L206 -50.75 Z " />
<path stroke="rgb(0,0,0)" stroke-opacity="1" fill="rgb(255,255,255)" fill-opacity="1" id="a6_2_" d="M83.3 51.45 L81.52 50.62 L79.75 49.79 L77.97 48.96 L76.19 48.13 L74.42 47.3 L72.64 46.47 L70.86 45.64 L69.09 44.81 L67.31 43.99 L65.54 43.16 L63.76 42.33 L61.98 41.5 L60.21 40.67 L58.43 39.84 L56.65 39.01 L54.88 38.18 L53.1 37.35 L53.1 35.25 L53.1 33.15 L53.1 31.05 L53.1 28.95 L53.1 26.85 L53.1 24.75 L53.1 22.65 L53.1 20.55 L53.1 18.45 L53.1 16.35 L54.87 17.18 L56.64 18.01 L58.41 18.84 L60.18 19.67 L61.95 20.5 L63.72 21.33 L65.49 22.16 L67.26 22.99 L69.04 23.81 L70.81 24.64 L72.58 25.47 L74.35 26.3 L76.12 27.13 L77.89 27.96 L79.66 28.79 L81.43 29.62 L83.2 30.45 L83.21 32.36 L83.22 34.27 L83.23 36.18 L83.24 38.09 L83.25 40 L83.25 41.9 L83.26 43.81 L83.27 45.72 L83.28 47.63 L83.29 49.54 L83.3 51.45 Z " />
<path stroke="rgb(0,0,0)" stroke-opacity="1" fill="rgb(148,200,200)" fill-opacity="1" id="rtr1_2_" d="M74.55 -128.1 L73.66 -126.3 L72.77 -124.4 L71.89 -122.6 L71 -120.7 L70.11 -118.9 L69.22 -117 L67.09 -117 L64.97 -117 L62.84 -117 L60.71 -117.1 L58.59 -117.1 L59.47 -118.9 L60.36 -120.8 L61.25 -122.7 L62.14 -124.6 L63.03 -126.4 L63.92 -128.3 L66.04 -128.3 L68.17 -128.2 L70.3 -128.2 L72.42 -128.2 L74.55 -128.1 Z " />
<path stroke="rgb(0,0,0)" stroke-opacity="1" fill="rgb(238,200,200)" fill-opacity="1" id="sg1_2_" d="M74.9 126.3 L75.94 124.8 L76.98 123.3 L78.03 121.8 L79.07 120.3 L80.11 118.8 L81.15 117.3 L83.23 117.5 L85.31 117.8 L87.39 118.1 L89.47 118.4 L88.44 119.9 L87.41 121.4 L86.38 122.9 L85.36 124.5 L84.33 126 L83.3 127.5 L81.2 127.2 L79.1 126.9 L77 126.6 L74.9 126.3 Z " />
<path stroke="rgb(0,0,0)" stroke-opacity="1" fill="rgb(255,255,255)" fill-opacity="1" id="a12_2_" d="M-54.8 88.45 L-56.68 87.63 L-58.57 86.82 L-60.45 86 L-62.33 85.18 L-64.22 84.37 L-66.1 83.55 L-66.12 81.62 L-66.13 79.68 L-66.15 77.75 L-66.17 75.82 L-66.18 73.88 L-66.2 71.95 L-64.33 72.77 L-62.47 73.58 L-60.6 74.4 L-58.73 75.22 L-56.87 76.03 L-55 76.85 L-54.97 78.78 L-54.93 80.72 L-54.9 82.65 L-54.87 84.58 L-54.83 86.52 L-54.8 88.45 Z " />
<path stroke="rgb(0,0,0)" stroke-opacity="1" fill="rgb(255,255,255)" fill-opacity="1" id="secscl1_2_" d="M-31.75 25.86 L-32.69 25.41 L-33.63 24.96 L-34.57 24.51 L-35.51 24.06 L-36.45 23.62 L-37.4 23.17 L-38.34 22.72 L-39.28 22.27 L-39.28 21.26 L-39.28 20.24 L-39.28 19.23 L-39.28 18.21 L-39.28 17.2 L-39.28 16.19 L-39.28 15.17 L-39.28 14.16 L-39.28 13.14 L-39.28 12.13 L-39.28 11.11 L-39.28 10.1 L-39.28 9.086 L-39.28 8.072 L-39.28 7.057 L-39.28 6.043 L-39.28 5.029 L-39.28 4.014 L-39.28 3 L-39.28 1.986 L-39.28 0.9716 L-39.28 -0.04273 L-39.28 -1.057 L-39.28 -2.071 L-39.28 -3.086 L-39.28 -4.1 L-39.28 -5.114 L-39.28 -6.128 L-39.28 -7.143 L-39.28 -8.157 L-39.28 -9.171 L-39.28 -10.19 L-39.28 -11.2 L-39.28 -12.21 L-39.28 -13.23 L-39.28 -14.24 L-39.28 -15.26 L-39.28 -16.27 L-39.28 -17.29 L-39.28 -18.3 L-38.34 -17.85 L-37.4 -17.39 L-36.45 -16.94 L-35.51 -16.48 L-34.57 -16.03 L-33.63 -15.57 L-32.69 -15.12 L-31.75 -14.66 L-31.75 -13.65 L-31.75 -12.64 L-31.75 -11.62 L-31.75 -10.61 L-31.75 -9.598 L-31.75 -8.585 L-31.75 -7.572 L-31.75 -6.559 L-31.75 -5.546 L-31.75 -4.533 L-31.75 -3.52 L-31.75 -2.507 L-31.75 -1.494 L-31.75 -0.4807 L-31.75 0.5323 L-31.75 1.545 L-31.75 2.558 L-31.75 3.571 L-31.75 4.584 L-31.75 5.597 L-31.75 6.61 L-31.75 7.623 L-31.75 8.636 L-31.75 9.649 L-31.75 10.66 L-31.75 11.68 L-31.75 12.69 L-31.75 13.7 L-31.75 14.71 L-31.75 15.73 L-31.75 16.74 L-31.75 17.75 L-31.75 18.77 L-31.75 19.78 L-31.75 20.79 L-31.75 21.81 L-31.75 22.82 L-31.75 23.83 L-31.75 24.84 L-31.75 25.86 Z " />
<path stroke="rgb(0,0,0)" stroke-opacity="1" fill="rgb(255,255,255)" fill-opacity="1" id="a7_1_" d="M141.3 -84.25 L139.4 -85.05 L137.6 -85.85 L135.7 -86.65 L133.8 -87.45 L132 -88.25 L130.1 -89.05 L128.3 -89.85 L126.4 -90.65 L124.5 -91.45 L122.7 -92.25 L120.8 -93.05 L120.8 -95.03 L120.8 -97.02 L120.8 -99 L120.8 -101 L120.8 -103 L120.8 -105 L122.7 -104.1 L124.5 -103.3 L126.4 -102.5 L128.3 -101.7 L130.1 -100.9 L132 -100 L133.8 -99.22 L135.7 -98.4 L137.6 -97.59 L139.4 -96.77 L141.3 -95.95 L141.3 -94 L141.3 -92.05 L141.3 -90.1 L141.3 -88.15 L141.3 -86.2 L141.3 -84.25 Z " />
<path stroke="rgb(0,0,0)" stroke-opacity="1" fill="rgb(255,255,255)" fill-opacity="1" id="a8_1_" d="M141.2 -69.95 L139.3 -70.76 L137.5 -71.57 L135.6 -72.38 L133.7 -73.19 L131.9 -74 L130 -74.8 L128.2 -75.61 L126.3 -76.42 L124.4 -77.23 L122.6 -78.04 L120.7 -78.85 L120.7 -80.82 L120.7 -82.78 L120.7 -84.75 L120.7 -86.72 L120.7 -88.68 L120.7 -90.65 L122.6 -89.85 L124.4 -89.05 L126.3 -88.25 L128.2 -87.45 L130.1 -86.65 L131.9 -85.85 L133.8 -85.05 L135.7 -84.25 L137.6 -83.45 L139.4 -82.65 L141.3 -81.85 L141.3 -79.87 L141.3 -77.88 L141.2 -75.9 L141.2 -73.92 L141.2 -71.93 L141.2 -69.95 Z " />
<path stroke="rgb(0,0,0)" stroke-opacity="1" fill="rgb(255,255,255)" fill-opacity="1" id="a9_1_" d="M134.2 -61.55 L132.3 -62.35 L130.4 -63.15 L128.5 -63.95 L126.5 -64.75 L124.6 -65.55 L122.7 -66.35 L120.8 -67.15 L120.8 -68.95 L120.8 -70.75 L120.7 -72.55 L120.7 -74.35 L120.7 -76.15 L122.6 -75.34 L124.5 -74.52 L126.4 -73.71 L128.4 -72.89 L130.3 -72.08 L132.2 -71.26 L134.1 -70.45 L134.1 -68.23 L134.2 -66 L134.2 -63.77 L134.2 -61.55 Z " />
<path stroke="rgb(0,0,0)" stroke-opacity="1" fill="rgb(255,255,255)" fill-opacity="1" id="a17_1_" d="M34.5 62.65 L32.73 61.71 L30.95 60.78 L29.18 59.84 L27.41 58.9 L25.64 57.97 L23.86 57.03 L22.09 56.1 L20.32 55.16 L18.55 54.22 L16.77 53.29 L15 52.35 L15 50.33 L15 48.32 L15 46.3 L15 44.28 L15 42.27 L15 40.25 L16.77 41.19 L18.55 42.12 L20.32 43.06 L22.09 44 L23.86 44.93 L25.64 45.87 L27.41 46.8 L29.18 47.74 L30.95 48.68 L32.73 49.61 L34.5 50.55 L34.5 52.57 L34.5 54.58 L34.5 56.6 L34.5 58.62 L34.5 60.63 L34.5 62.65 Z " />
<path stroke="rgb(0,0,0)" stroke-opacity="1" fill="rgb(255,255,255)" fill-opacity="1" id="a16_1_" d="M34.5 79.85 L32.73 78.95 L30.95 78.05 L29.18 77.15 L27.41 76.25 L25.64 75.35 L23.86 74.45 L22.09 73.55 L20.32 72.65 L18.55 71.75 L16.77 70.85 L15 69.95 L15 67.98 L15 66.02 L15 64.05 L15 62.08 L15 60.12 L15 58.15 L16.77 59.05 L18.55 59.95 L20.32 60.85 L22.09 61.75 L23.86 62.65 L25.64 63.55 L27.41 64.45 L29.18 65.35 L30.95 66.25 L32.73 67.15 L34.5 68.05 L34.5 70.02 L34.5 71.98 L34.5 73.95 L34.5 75.92 L34.5 77.88 L34.5 79.85 Z " />
<path stroke="rgb(0,0,0)" stroke-opacity="1" fill="rgb(236,216,157)" fill-opacity="1" id="scltrs1_1_" d="M-28.47 45.13 L-30.28 44.18 L-32.09 43.23 L-33.89 42.29 L-35.7 41.34 L-37.51 40.4 L-39.31 39.45 L-41.12 38.51 L-41.12 36.45 L-41.12 34.39 L-41.12 32.33 L-41.12 30.27 L-41.12 28.21 L-41.12 26.15 L-39.31 27.1 L-37.51 28.04 L-35.7 28.99 L-33.89 29.94 L-32.09 30.88 L-30.28 31.83 L-28.47 32.77 L-28.47 34.83 L-28.47 36.89 L-28.47 38.95 L-28.47 41.01 L-28.47 43.07 L-28.47 45.13 Z " />
<path stroke="rgb(0,0,0)" stroke-opacity="1" fill="rgb(244,227,211)" fill-opacity="1" id="a15_1_" d="M119.3 1.25 L117.4 0.3875 L115.6 -0.475 L113.7 -1.338 L111.8 -2.2 L110 -3.063 L108.1 -3.925 L106.3 -4.788 L104.4 -5.65 L104.4 -7.57 L104.4 -9.49 L104.4 -11.41 L104.4 -13.33 L104.4 -15.25 L106.3 -14.38 L108.1 -13.5 L110 -12.63 L111.8 -11.75 L113.7 -10.88 L115.6 -10 L117.4 -9.125 L119.3 -8.25 L119.3 -6.35 L119.3 -4.45 L119.3 -2.55 L119.3 -0.65 L119.3 1.25 Z " />
<path stroke="rgb(0,0,0)" stroke-opacity="1" fill="rgb(244,227,211)" fill-opacity="1" id="a14_1_" d="M117.2 9.75 L115.4 8.893 L113.5 8.036 L111.7 7.179 L109.8 6.321 L108 5.464 L106.1 4.607 L104.3 3.75 L104.3 1.817 L104.4 -0.1167 L104.4 -2.05 L106.2 -1.164 L108.1 -0.2786 L109.9 0.6071 L111.7 1.493 L113.5 2.379 L115.4 3.264 L117.2 4.15 L117.2 6.017 L117.2 7.883 L117.2 9.75 Z " />
<path stroke="rgb(0,0,0)" stroke-opacity="1" fill="rgb(244,227,211)" fill-opacity="1" id="a13_1_" d="M115 29.65 L113.2 28.82 L111.4 27.98 L109.6 27.15 L107.9 26.32 L106.1 25.48 L104.3 24.65 L104.3 22.59 L104.3 20.52 L104.3 18.46 L104.3 16.4 L104.3 14.34 L104.3 12.27 L104.3 10.21 L104.3 8.15 L106.1 8.983 L107.9 9.817 L109.6 10.65 L111.4 11.48 L113.2 12.32 L115 13.15 L115 15.21 L115 17.27 L115 19.34 L115 21.4 L115 23.46 L115 25.52 L115 27.59 L115 29.65 Z " />
<path stroke="rgb(0,0,0)" stroke-opacity="1" fill="rgb(200,200,200)" fill-opacity="1" id="a1_2_" d="M-110.5 -73.45 L-112.2 -74.33 L-114 -75.2 L-115.7 -76.08 L-117.5 -76.96 L-119.2 -77.84 L-121 -78.71 L-122.7 -79.59 L-124.5 -80.47 L-126.2 -81.35 L-128 -82.22 L-129.8 -83.1 L-131.5 -83.98 L-133.3 -84.85 L-135 -85.73 L-136.8 -86.61 L-138.5 -87.49 L-140.3 -88.36 L-142 -89.24 L-143.8 -90.12 L-145.5 -91 L-147.3 -91.87 L-149 -92.75 L-149 -94.61 L-149 -96.47 L-149 -98.33 L-149 -100.2 L-149 -102 L-147.3 -101.2 L-145.5 -100.3 L-143.8 -99.4 L-142 -98.52 L-140.3 -97.64 L-138.5 -96.76 L-136.8 -95.88 L-135 -95 L-133.3 -94.11 L-131.5 -93.23 L-129.8 -92.35 L-128 -91.47 L-126.2 -90.59 L-124.5 -89.7 L-122.7 -88.82 L-121 -87.94 L-119.2 -87.06 L-117.5 -86.18 L-115.7 -85.3 L-114 -84.41 L-112.2 -83.53 L-110.5 -82.65 L-110.5 -80.81 L-110.5 -78.97 L-110.5 -77.13 L-110.5 -75.29 L-110.5 -73.45 Z " />
<path stroke="rgb(0,0,0)" stroke-opacity="1" fill="rgb(200,200,200)" fill-opacity="1" id="a4_2_" d="M-89.9 -108.2 L-91.69 -109 L-93.49 -109.9 L-95.28 -110.8 L-97.08 -111.7 L-98.87 -112.6 L-100.7 -113.5 L-102.5 -114.4 L-104.3 -115.3 L-106 -116.2 L-107.8 -117.1 L-109.6 -118 L-111.4 -118.9 L-113.2 -119.8 L-115 -120.7 L-116.8 -121.6 L-118.6 -122.5 L-120.4 -123.3 L-122.2 -124.2 L-124 -125.1 L-125.8 -126 L-127.6 -126.9 L-129.4 -127.8 L-131.2 -128.7 L-133 -129.6 L-134.7 -130.5 L-136.5 -131.4 L-138.3 -132.3 L-140.1 -133.2 L-141.9 -134.1 L-143.7 -135 L-145.5 -135.9 L-147.3 -136.8 L-149.1 -137.7 L-149.1 -139.7 L-149.1 -141.7 L-149.1 -143.7 L-149.1 -145.7 L-149.1 -147.7 L-149.1 -149.7 L-149.1 -151.8 L-147.3 -150.9 L-145.5 -150 L-143.7 -149.1 L-141.9 -148.2 L-140.1 -147.3 L-138.3 -146.4 L-136.5 -145.5 L-134.7 -144.6 L-133 -143.7 L-131.2 -142.8 L-129.4 -142 L-127.6 -141.1 L-125.8 -140.2 L-124 -139.3 L-122.2 -138.4 L-120.4 -137.5 L-118.6 -136.6 L-116.8 -135.7 L-115 -134.8 L-113.2 -133.9 L-111.4 -133 L-109.6 -132.2 L-107.8 -131.3 L-106 -130.4 L-104.3 -129.5 L-102.5 -128.6 L-100.7 -127.7 L-98.87 -126.8 L-97.08 -125.9 L-95.28 -125 L-93.49 -124.1 L-91.69 -123.2 L-89.9 -122.3 L-89.9 -120.3 L-89.9 -118.3 L-89.9 -116.3 L-89.9 -114.2 L-89.9 -112.2 L-89.9 -110.2 L-89.9 -108.2 Z " />
<path stroke="rgb(0,0,0)" stroke-opacity="1" fill="rgb(200,200,200)" fill-opacity="1" id="a2_1_" d="M-109.1 -87.55 L-110.9 -88.45 L-112.7 -89.36 L-114.6 -90.26 L-116.4 -91.17 L-118.2 -92.07 L-120 -92.98 L-121.8 -93.88 L-123.6 -94.79 L-125.5 -95.69 L-127.3 -96.6 L-129.1 -97.5 L-130.9 -98.4 L-132.7 -99.31 L-134.6 -100.2 L-136.4 -101.1 L-138.2 -102 L-140 -102.9 L-141.8 -103.8 L-143.6 -104.7 L-145.5 -105.6 L-147.3 -106.5 L-149.1 -107.5 L-149.1 -109.4 L-149.1 -111.3 L-149.1 -113.3 L-149.1 -115.2 L-149.1 -117.2 L-147.3 -116.2 L-145.5 -115.3 L-143.6 -114.4 L-141.8 -113.5 L-140 -112.6 L-138.2 -111.7 L-136.4 -110.8 L-134.6 -109.9 L-132.7 -109 L-130.9 -108.1 L-129.1 -107.2 L-127.3 -106.2 L-125.5 -105.3 L-123.6 -104.4 L-121.8 -103.5 L-120 -102.6 L-118.2 -101.7 L-116.4 -100.8 L-114.6 -99.88 L-112.7 -98.97 L-110.9 -98.06 L-109.1 -97.15 L-109.1 -95.23 L-109.1 -93.31 L-109.1 -91.39 L-109.1 -89.47 L-109.1 -87.55 Z " />
<path stroke="rgb(0,0,0)" stroke-opacity="1" fill="rgb(200,200,200)" fill-opacity="1" id="a3_1_" d="M-105.8 -101.2 L-107.6 -102 L-109.4 -102.9 L-111.2 -103.8 L-113 -104.7 L-114.8 -105.6 L-116.6 -106.5 L-118.4 -107.4 L-120.2 -108.3 L-122 -109.2 L-123.8 -110.1 L-125.6 -111 L-127.4 -111.8 L-129.3 -112.7 L-131.1 -113.6 L-132.9 -114.5 L-134.7 -115.4 L-136.5 -116.3 L-138.3 -117.2 L-140.1 -118.1 L-141.9 -119 L-143.7 -119.9 L-145.5 -120.8 L-147.3 -121.7 L-149.1 -122.5 L-149.1 -124.6 L-149.1 -126.7 L-149.1 -128.8 L-149.1 -130.9 L-149.1 -133 L-147.3 -132.1 L-145.5 -131.2 L-143.7 -130.3 L-141.9 -129.4 L-140.1 -128.5 L-138.3 -127.6 L-136.5 -126.7 L-134.7 -125.8 L-132.9 -124.9 L-131.1 -124 L-129.3 -123.1 L-127.4 -122.3 L-125.6 -121.4 L-123.8 -120.5 L-122 -119.6 L-120.2 -118.7 L-118.4 -117.8 L-116.6 -116.9 L-114.8 -116 L-113 -115.1 L-111.2 -114.2 L-109.4 -113.3 L-107.6 -112.4 L-105.8 -111.5 L-105.8 -109.5 L-105.8 -107.4 L-105.8 -105.3 L-105.8 -103.2 L-105.8 -101.2 Z " />
<path stroke="rgb(0,0,0)" stroke-opacity="1" fill="rgb(244,227,211)" fill-opacity="1" id="a11_1_" d="M-15.3 70.85 L-17.12 70.04 L-18.94 69.23 L-20.76 68.42 L-22.57 67.61 L-24.39 66.79 L-26.21 65.98 L-28.03 65.17 L-29.85 64.36 L-31.67 63.55 L-33.49 62.74 L-35.3 61.93 L-37.12 61.12 L-38.94 60.31 L-40.76 59.49 L-42.58 58.68 L-44.4 57.87 L-46.21 57.06 L-48.03 56.25 L-49.85 55.44 L-51.67 54.63 L-53.49 53.82 L-55.31 53.01 L-57.13 52.19 L-58.94 51.38 L-60.76 50.57 L-62.58 49.76 L-64.4 48.95 L-64.45 47 L-64.5 45.05 L-62.68 45.86 L-60.86 46.68 L-59.04 47.49 L-57.23 48.31 L-55.41 49.12 L-53.59 49.94 L-51.77 50.75 L-49.95 51.57 L-48.13 52.38 L-46.31 53.2 L-44.5 54.01 L-42.68 54.83 L-40.86 55.64 L-39.04 56.46 L-37.22 57.27 L-35.4 58.09 L-33.59 58.9 L-31.77 59.72 L-29.95 60.53 L-28.13 61.35 L-26.31 62.16 L-24.49 62.98 L-22.67 63.79 L-20.86 64.61 L-19.04 65.42 L-17.22 66.24 L-15.4 67.05 L-15.35 68.95 L-15.3 70.85 Z " />
<path stroke="rgb(0,0,0)" stroke-opacity="1" fill="rgb(244,200,200)" fill-opacity="1" id="fus1_1_" d="M-100.5 51.95 L-102.3 51.19 L-104.1 50.43 L-105.9 49.67 L-107.7 48.91 L-109.5 48.15 L-109.5 46.29 L-109.5 44.43 L-109.5 42.57 L-109.5 40.71 L-109.5 38.85 L-107.7 39.61 L-105.9 40.37 L-104.1 41.13 L-102.3 41.89 L-100.5 42.65 L-100.5 44.51 L-100.5 46.37 L-100.5 48.23 L-100.5 50.09 L-100.5 51.95 Z " />
<path stroke="rgb(0,0,0)" stroke-opacity="1" fill="rgb(244,200,200)" fill-opacity="1" id="fus2_1_" d="M-96.41 60.86 L-98.21 60.08 L-100 59.3 L-101.8 58.52 L-103.6 57.74 L-105.4 56.96 L-105.4 55.08 L-105.3 53.2 L-105.3 51.32 L-105.2 49.44 L-105.2 47.56 L-103.4 48.32 L-101.7 49.08 L-99.93 49.84 L-98.17 50.6 L-96.41 51.36 L-96.41 53.26 L-96.41 55.16 L-96.41 57.06 L-96.41 58.96 L-96.41 60.86 Z " />
<path stroke="rgb(0,0,0)" stroke-opacity="1" fill="rgb(244,200,200)" fill-opacity="1" id="fus3_1_" d="M-95.6 56.45 L-97.38 55.69 L-99.16 54.93 L-100.9 54.17 L-102.7 53.41 L-104.5 52.65 L-104.5 50.79 L-104.5 48.93 L-104.5 47.07 L-104.5 45.21 L-104.5 43.35 L-102.7 44.11 L-100.9 44.87 L-99.1 45.63 L-97.3 46.39 L-95.5 47.15 L-95.52 49.01 L-95.54 50.87 L-95.56 52.73 L-95.58 54.59 L-95.6 56.45 Z " />
<path stroke="rgb(0,0,0)" stroke-opacity="1" fill="rgb(244,200,200)" fill-opacity="1" id="fus4_1_" d="M-96.5 60.45 L-98.3 59.67 L-100.1 58.89 L-101.9 58.11 L-103.7 57.33 L-105.5 56.55 L-105.5 54.69 L-105.5 52.83 L-105.5 50.97 L-105.5 49.11 L-105.5 47.25 L-103.7 48.03 L-101.9 48.81 L-100.1 49.59 L-98.3 50.37 L-96.5 51.15 L-96.5 53.01 L-96.5 54.87 L-96.5 56.73 L-96.5 58.59 L-96.5 60.45 Z " />
<path stroke="rgb(0,0,0)" stroke-opacity="1" fill="rgb(173,200,200)" fill-opacity="1" id="swap1_1_" d="M37.85 -109.2 L36.03 -110.1 L34.21 -111.1 L32.39 -112.1 L30.57 -113 L28.75 -114 L26.93 -114.9 L25.11 -115.9 L23.29 -116.9 L21.47 -117.8 L19.65 -118.8 L19.66 -120.8 L19.67 -122.8 L19.69 -124.8 L19.7 -126.8 L19.71 -128.8 L19.72 -130.9 L19.73 -132.9 L19.74 -134.9 L19.75 -136.9 L21.57 -135.9 L23.39 -134.9 L25.21 -134 L27.03 -133 L28.85 -132 L30.67 -131.1 L32.49 -130.1 L34.31 -129.1 L36.13 -128.2 L37.95 -127.2 L37.94 -125.2 L37.93 -123.2 L37.92 -121.2 L37.91 -119.2 L37.9 -117.2 L37.89 -115.2 L37.87 -113.2 L37.86 -111.2 L37.85 -109.2 Z " />
<path stroke="rgb(0,0,0)" stroke-opacity="1" fill="rgb(173,200,200)" fill-opacity="1" id="swap3_1_" d="M20.8 -127.4 L18.98 -128.3 L17.16 -129.3 L15.34 -130.3 L13.52 -131.2 L11.7 -132.2 L9.88 -133.1 L8.06 -134.1 L6.24 -135.1 L4.42 -136 L2.6 -137 L2.611 -139 L2.622 -141 L2.633 -143 L2.644 -145 L2.656 -147 L2.667 -149 L2.678 -151.1 L2.689 -153.1 L2.7 -155.1 L4.52 -154.1 L6.34 -153.2 L8.16 -152.2 L9.98 -151.2 L11.8 -150.3 L13.62 -149.3 L15.44 -148.4 L17.26 -147.4 L19.08 -146.4 L20.9 -145.5 L20.89 -143.5 L20.88 -141.5 L20.87 -139.4 L20.86 -137.4 L20.84 -135.4 L20.83 -133.4 L20.82 -131.4 L20.81 -129.4 L20.8 -127.4 Z " />
<path stroke="rgb(0,0,0)" stroke-opacity="1" fill="rgb(173,200,200)" fill-opacity="1" id="swap2_1_" d="M3.848 -122.6 L2.028 -123.6 L0.2082 -124.5 L-1.612 -125.5 L-3.432 -126.5 L-5.252 -127.4 L-7.072 -128.4 L-8.892 -129.3 L-10.71 -130.3 L-12.53 -131.3 L-14.35 -132.2 L-14.34 -134.2 L-14.33 -136.2 L-14.32 -138.2 L-14.31 -140.3 L-14.3 -142.3 L-14.29 -144.3 L-14.27 -146.3 L-14.26 -148.3 L-14.25 -150.3 L-12.42 -149.4 L-10.59 -148.4 L-8.762 -147.4 L-6.932 -146.5 L-5.102 -145.5 L-3.272 -144.6 L-1.442 -143.6 L0.3881 -142.6 L2.218 -141.7 L4.048 -140.7 L4.026 -138.7 L4.004 -136.7 L3.981 -134.7 L3.959 -132.7 L3.937 -130.7 L3.915 -128.6 L3.893 -126.6 L3.87 -124.6 L3.848 -122.6 Z " />
<path stroke="rgb(0,0,0)" stroke-opacity="1" fill="rgb(173,200,200)" fill-opacity="1" id="swap4_1_" d="M20.7 -104.7 L18.88 -105.7 L17.06 -106.7 L15.24 -107.7 L13.42 -108.6 L11.6 -109.6 L9.78 -110.6 L7.96 -111.6 L6.14 -112.6 L4.32 -113.5 L2.5 -114.5 L2.511 -116.5 L2.522 -118.5 L2.533 -120.5 L2.544 -122.5 L2.556 -124.5 L2.567 -126.5 L2.578 -128.5 L2.589 -130.5 L2.6 -132.5 L4.43 -131.6 L6.26 -130.6 L8.09 -129.6 L9.92 -128.6 L11.75 -127.7 L13.58 -126.7 L15.41 -125.7 L17.24 -124.8 L19.07 -123.8 L20.9 -122.8 L20.88 -120.8 L20.86 -118.8 L20.83 -116.8 L20.81 -114.8 L20.79 -112.8 L20.77 -110.8 L20.74 -108.7 L20.72 -106.7 L20.7 -104.7 Z " />
<path stroke="rgb(0,0,0)" stroke-opacity="1" fill="rgb(244,227,211)" fill-opacity="1" id="a10_5_" d="M40 -46.65 L38.24 -45.63 L36.48 -44.6 L34.71 -43.57 L32.95 -42.55 L31.19 -41.53 L29.42 -40.5 L27.66 -39.48 L25.9 -38.45 L24.14 -37.43 L22.37 -36.4 L20.61 -35.38 L18.85 -34.35 L17.09 -33.33 L15.32 -32.3 L13.56 -31.28 L11.8 -30.25 L10.04 -31.28 L8.275 -32.3 L6.512 -33.33 L4.75 -34.35 L2.987 -35.38 L1.225 -36.4 L-0.5375 -37.43 L-2.3 -38.45 L-4.063 -39.48 L-5.825 -40.5 L-7.587 -41.53 L-9.35 -42.55 L-11.11 -43.57 L-12.87 -44.6 L-14.64 -45.63 L-16.4 -46.65 L-14.64 -47.68 L-12.87 -48.7 L-11.11 -49.72 L-9.35 -50.75 L-7.587 -51.77 L-5.825 -52.8 L-4.063 -53.82 L-2.3 -54.85 L-0.5375 -55.87 L1.225 -56.9 L2.987 -57.92 L4.75 -58.95 L6.512 -59.97 L8.275 -61 L10.04 -62.02 L11.8 -63.05 L13.56 -62.02 L15.32 -61 L17.09 -59.97 L18.85 -58.95 L20.61 -57.92 L22.37 -56.9 L24.14 -55.87 L25.9 -54.85 L27.66 -53.82 L29.42 -52.8 L31.19 -51.77 L32.95 -50.75 L34.71 -49.72 L36.48 -48.7 L38.24 -47.68 L40 -46.65 Z " />
<path stroke="rgb(0,0,0)" stroke-opacity="1" fill="rgb(244,227,211)" fill-opacity="1" id="a10_4_" d="M40.5 -11.85 L40.5 -13.85 L40.5 -15.85 L40.5 -17.85 L40.5 -19.85 L40.5 -21.85 L40.5 -23.85 L40.5 -25.85 L40.5 -27.85 L40.5 -29.85 L40.5 -31.85 L40.5 -33.85 L40.5 -35.85 L40.5 -37.85 L40.5 -39.85 L40.5 -41.85 L40.5 -43.85 L40.5 -45.85 L38.74 -44.83 L36.98 -43.8 L35.21 -42.78 L33.45 -41.75 L31.69 -40.73 L29.92 -39.7 L28.16 -38.68 L26.4 -37.65 L24.64 -36.62 L22.87 -35.6 L21.11 -34.57 L19.35 -33.55 L17.59 -32.52 L15.82 -31.5 L14.06 -30.47 L12.3 -29.45 L12.3 -27.44 L12.3 -25.44 L12.3 -23.43 L12.3 -21.43 L12.3 -19.42 L12.3 -17.42 L12.3 -15.41 L12.3 -13.41 L12.3 -11.4 L12.3 -9.397 L12.3 -7.392 L12.3 -5.387 L12.3 -3.382 L12.3 -1.376 L12.3 0.6289 L12.3 2.634 L12.3 4.639 L12.3 6.645 L12.3 8.65 L13.96 7.444 L15.62 6.238 L17.28 5.032 L18.94 3.826 L20.59 2.621 L22.25 1.415 L23.91 0.2088 L25.57 -0.9971 L27.23 -2.203 L28.89 -3.409 L30.55 -4.615 L32.21 -5.821 L33.86 -7.026 L35.52 -8.232 L37.18 -9.438 L38.84 -10.64 L40.5 -11.85 Z " />
<path stroke="rgb(0,0,0)" stroke-opacity="1" fill="rgb(244,227,211)" fill-opacity="1" id="a10_3_" d="M-16.8 -45.85 L-16.8 -43.85 L-16.8 -41.85 L-16.8 -39.85 L-16.8 -37.85 L-16.8 -35.85 L-16.8 -33.85 L-16.8 -31.85 L-16.8 -29.85 L-16.8 -27.85 L-16.8 -25.85 L-16.8 -23.85 L-16.8 -21.85 L-16.8 -19.85 L-16.8 -17.85 L-16.8 -15.85 L-16.8 -13.85 L-16.8 -11.85 L-15.14 -10.64 L-13.48 -9.438 L-11.82 -8.232 L-10.16 -7.026 L-8.506 -5.821 L-6.847 -4.615 L-5.188 -3.409 L-3.529 -2.203 L-1.871 -0.9971 L-0.2118 0.2088 L1.447 1.415 L3.106 2.621 L4.765 3.826 L6.424 5.032 L8.082 6.238 L9.741 7.444 L11.4 8.65 L11.4 6.645 L11.4 4.639 L11.4 2.634 L11.4 0.6289 L11.4 -1.376 L11.4 -3.382 L11.4 -5.387 L11.4 -7.392 L11.4 -9.397 L11.4 -11.4 L11.4 -13.41 L11.4 -15.41 L11.4 -17.42 L11.4 -19.42 L11.4 -21.43 L11.4 -23.43 L11.4 -25.44 L11.4 -27.44 L11.4 -29.45 L9.637 -30.47 L7.875 -31.5 L6.112 -32.52 L4.35 -33.55 L2.587 -34.57 L0.825 -35.6 L-0.9375 -36.62 L-2.7 -37.65 L-4.462 -38.68 L-6.225 -39.7 L-7.987 -40.73 L-9.75 -41.75 L-11.51 -42.78 L-13.27 -43.8 L-15.04 -44.83 L-16.8 -45.85 Z " />
<path stroke="rgb(0,0,0)" stroke-opacity="1" fill="rgb(200,200,200)" fill-opacity="1" id="circ1_5_" d="M-62.5 13.85 L-64.08 14.77 L-65.66 15.69 L-67.24 16.61 L-68.82 17.53 L-70.4 18.45 L-71.98 17.53 L-73.56 16.61 L-75.14 15.69 L-76.72 14.77 L-78.3 13.85 L-76.72 12.93 L-75.14 12.01 L-73.56 11.09 L-71.98 10.17 L-70.4 9.25 L-68.82 10.17 L-67.24 11.09 L-65.66 12.01 L-64.08 12.93 L-62.5 13.85 Z " />
<path stroke="rgb(0,0,0)" stroke-opacity="1" fill="rgb(200,200,200)" fill-opacity="1" id="circ1_4_" d="M-62.4 23.65 L-62.4 21.75 L-62.4 19.85 L-62.4 17.95 L-62.4 16.05 L-62.4 14.15 L-63.98 15.05 L-65.56 15.95 L-67.14 16.85 L-68.72 17.75 L-70.3 18.65 L-70.3 20.79 L-70.3 22.93 L-70.3 25.07 L-70.3 27.21 L-70.3 29.35 L-68.72 28.21 L-67.14 27.07 L-65.56 25.93 L-63.98 24.79 L-62.4 23.65 Z " />
<path stroke="rgb(0,0,0)" stroke-opacity="1" fill="rgb(200,200,200)" fill-opacity="1" id="circ1_3_" d="M-78.5 14.15 L-78.5 16.05 L-78.5 17.95 L-78.5 19.85 L-78.5 21.75 L-78.5 23.65 L-76.92 24.79 L-75.34 25.93 L-73.76 27.07 L-72.18 28.21 L-70.6 29.35 L-70.6 27.21 L-70.6 25.07 L-70.6 22.93 L-70.6 20.79 L-70.6 18.65 L-72.18 17.75 L-73.76 16.85 L-75.34 15.95 L-76.92 15.05 L-78.5 14.15 Z " />
<path stroke="rgb(0,0,0)" stroke-opacity="1" fill="rgb(200,200,200)" fill-opacity="1" id="circ2_5_" d="M-98.6 -41.75 L-100.2 -40.83 L-101.8 -39.91 L-103.3 -38.99 L-104.9 -38.07 L-106.5 -37.15 L-108.1 -38.07 L-109.7 -38.99 L-111.2 -39.91 L-112.8 -40.83 L-114.4 -41.75 L-112.8 -42.65 L-111.2 -43.55 L-109.7 -44.45 L-108.1 -45.35 L-106.5 -46.25 L-104.9 -45.35 L-103.3 -44.45 L-101.8 -43.55 L-100.2 -42.65 L-98.6 -41.75 Z " />
<path stroke="rgb(0,0,0)" stroke-opacity="1" fill="rgb(200,200,200)" fill-opacity="1" id="circ2_4_" d="M-98.5 -31.95 L-98.5 -33.85 L-98.5 -35.75 L-98.5 -37.65 L-98.5 -39.55 L-98.5 -41.45 L-100.1 -40.53 L-101.7 -39.61 L-103.2 -38.69 L-104.8 -37.77 L-106.4 -36.85 L-106.4 -34.73 L-106.4 -32.61 L-106.4 -30.49 L-106.4 -28.37 L-106.4 -26.25 L-104.8 -27.39 L-103.2 -28.53 L-101.7 -29.67 L-100.1 -30.81 L-98.5 -31.95 Z " />
<path stroke="rgb(0,0,0)" stroke-opacity="1" fill="rgb(200,200,200)" fill-opacity="1" id="circ2_3_" d="M-114.6 -41.45 L-114.6 -39.55 L-114.6 -37.65 L-114.6 -35.75 L-114.6 -33.85 L-114.6 -31.95 L-113 -30.81 L-111.4 -29.67 L-109.9 -28.53 L-108.3 -27.39 L-106.7 -26.25 L-106.7 -28.37 L-106.7 -30.49 L-106.7 -32.61 L-106.7 -34.73 L-106.7 -36.85 L-108.3 -37.77 L-109.9 -38.69 L-111.4 -39.61 L-113 -40.53 L-114.6 -41.45 Z " />
<path stroke="rgb(0,0,0)" stroke-opacity="1" fill="rgb(148,200,200)" fill-opacity="1" id="bb1" d="M42.5 -42.97 L42.54 -40.98 L42.58 -38.99 L42.62 -37 L42.66 -35.01 L42.69 -33.02 L42.73 -31.03 L42.77 -29.04 L42.81 -27.05 L42.85 -25.06 L42.89 -23.07 L42.93 -21.08 L42.97 -19.09 L43.01 -17.1 L43.05 -15.11 L43.09 -13.12 L43.13 -11.13 L43.17 -9.136 L44.82 -7.947 L46.48 -6.758 L48.13 -5.569 L49.78 -4.38 L51.43 -3.191 L53.09 -2.002 L54.74 -0.8135 L56.39 0.3754 L58.05 1.564 L59.7 2.753 L61.35 3.942 L63.01 5.131 L64.84 4.235 L66.67 3.34 L68.51 2.444 L70.34 1.549 L72.17 0.6532 L74 -0.2424 L75.84 -1.138 L77.67 -2.033 L79.5 -2.929 L81.33 -3.824 L83.17 -4.72 L85 -5.616 L86.83 -6.511 L88.67 -7.407 L90.5 -8.302 L91.5 -10.05 L92.51 -11.81 L93.52 -13.56 L94.52 -15.31 L95.53 -17.07 L96.53 -18.82 L97.54 -20.57 L98.55 -22.32 L99.55 -24.08 L100.6 -25.83 L101.6 -27.58 L102.6 -29.33 L103.6 -31.09 L104.6 -32.84 L105.6 -34.59 L106.6 -36.34 L107.6 -38.1 L108.6 -39.85 L109.6 -41.6 L109.6 -43.59 L109.5 -45.58 L109.5 -47.57 L109.5 -49.56 L109.4 -51.55 L109.4 -53.54 L109.3 -55.54 L109.3 -57.53 L109.3 -59.52 L109.2 -61.51 L109.2 -63.5 L109.1 -65.49 L109.1 -67.48 L109.1 -69.47 L109 -71.46 L109 -73.45 L108.9 -75.44 L107.3 -76.64 L105.6 -77.85 L104 -79.05 L102.3 -80.25 L100.6 -81.46 L98.98 -82.66 L97.32 -83.87 L95.66 -85.07 L94 -86.27 L92.34 -87.48 L90.67 -88.68 L89.01 -89.88 L87.18 -88.99 L85.35 -88.09 L83.52 -87.2 L81.68 -86.3 L79.85 -85.41 L78.02 -84.51 L76.19 -83.62 L74.35 -82.72 L72.52 -81.82 L70.69 -80.93 L68.85 -80.03 L67.02 -79.14 L65.19 -78.24 L63.36 -77.35 L61.52 -76.45 L60.52 -74.69 L59.52 -72.93 L58.52 -71.17 L57.52 -69.4 L56.52 -67.64 L55.52 -65.88 L54.51 -64.12 L53.51 -62.36 L52.51 -60.59 L51.51 -58.83 L50.51 -57.07 L49.51 -55.31 L48.51 -53.55 L47.5 -51.78 L46.5 -50.02 L45.5 -48.26 L44.5 -46.5 L43.5 -44.73 L42.5 -42.97 Z " />
<path stroke="rgb(0,0,0)" stroke-opacity="1" fill="rgb(236,216,157)" fill-opacity="1" id="scltrs1" d="M-161.9 3.757 L-163.1 5.291 L-164.3 6.826 L-165.5 8.36 L-166.7 9.894 L-167.9 11.43 L-169.1 12.96 L-170.3 14.5 L-171.6 16.03 L-172.8 17.57 L-174 19.1 L-175.2 20.64 L-176.4 22.17 L-177.6 23.7 L-178.8 25.24 L-180 26.77 L-181.2 28.31 L-182.4 29.84 L-183.7 31.38 L-184.9 32.91 L-186.1 34.45 L-187.3 35.98 L-188.5 37.52 L-189.7 39.05 L-190.9 40.58 L-192.1 42.12 L-193.3 43.65 L-194.6 45.19 L-195.8 46.72 L-197 48.26 L-198.2 49.79 L-199.4 51.33 L-200.6 52.86 L-201.8 54.39 L-203 55.93 L-204.2 57.46 L-205.4 59 L-203.7 59.83 L-201.9 60.66 L-200.1 61.49 L-198.3 62.32 L-196.6 63.15 L-194.8 63.98 L-193 64.81 L-191.2 65.64 L-189.4 66.48 L-187.7 67.31 L-185.9 68.14 L-184.1 68.97 L-182.3 69.8 L-180.5 70.63 L-178.8 71.46 L-177 72.29 L-175.2 73.12 L-173.4 73.95 L-171.7 74.78 L-169.9 75.62 L-168.1 76.45 L-166.3 77.28 L-164.5 78.11 L-162.8 78.94 L-161 79.77 L-159.2 80.6 L-157.4 81.43 L-155.6 82.26 L-153.9 83.09 L-152.1 83.92 L-150.3 84.76 L-148.5 85.59 L-146.7 86.42 L-145 87.25 L-143.2 88.08 L-141.4 88.91 L-139.6 89.74 L-137.9 90.57 L-136.1 91.4 L-134.3 92.23 L-132.5 93.06 L-130.7 93.9 L-129 94.73 L-127.2 95.56 L-125.4 96.39 L-123.6 97.22 L-121.8 98.05 L-120.1 98.88 L-118.3 99.71 L-119.1 97.9 L-119.9 96.09 L-120.8 94.28 L-121.6 92.47 L-122.4 90.66 L-123.2 88.85 L-124 87.04 L-124.9 85.23 L-125.7 83.42 L-126.5 81.61 L-127.3 79.8 L-128.2 77.99 L-129 76.18 L-129.8 74.37 L-130.6 72.55 L-131.4 70.74 L-132.3 68.93 L-133.1 67.12 L-133.9 65.31 L-134.7 63.5 L-135.6 61.69 L-136.4 59.88 L-137.2 58.07 L-138 56.26 L-138.8 54.45 L-139.7 52.64 L-140.5 50.83 L-141.3 49.02 L-142.1 47.21 L-143 45.4 L-143.8 43.59 L-144.6 41.78 L-145.4 39.97 L-146.2 38.16 L-147.1 36.35 L-147.9 34.53 L-148.7 32.72 L-149.5 30.91 L-150.4 29.1 L-151.2 27.29 L-152 25.48 L-152.8 23.67 L-153.6 21.86 L-154.5 20.05 L-155.3 18.24 L-156.1 16.43 L-156.9 14.62 L-157.8 12.81 L-158.6 11 L-159.4 9.188 L-160.2 7.378 L-161 5.567 L-161.9 3.757 Z " />
<path stroke="rgb(0,0,0)" stroke-opacity="1" fill="rgb(255,255,255)" fill-opacity="1" id="a5" d="M-62.4 134.3 L-62.51 136.7 L-62.82 138.8 L-63.33 140.8 L-64.03 142.7 L-64.92 144.4 L-65.97 145.8 L-67.18 147.2 L-68.54 148.3 L-70.05 149.2 L-71.69 150 L-73.45 150.5 L-75.33 150.8 L-77.32 150.9 L-79.4 150.9 L-81.57 150.5 L-83.81 150 L-86.13 149.2 L-88.5 148.2 L-90.29 147.4 L-92.04 146.4 L-93.76 145.3 L-95.43 144.1 L-97.07 142.8 L-98.65 141.5 L-100.2 140.1 L-101.7 138.6 L-103.1 137 L-104.4 135.4 L-105.7 133.7 L-107 132 L-108.1 130.3 L-109.2 128.5 L-110.1 126.7 L-111 124.9 L-111.8 123 L-112.5 121.2 L-113.2 119.3 L-113.7 117.4 L-114.1 115.6 L-114.4 113.7 L-114.5 111.9 L-114.6 110 L-114.5 107.7 L-114.2 105.6 L-113.7 103.6 L-113 101.7 L-112.1 100 L-111 98.56 L-109.8 97.25 L-108.5 96.12 L-107 95.19 L-105.3 94.45 L-103.5 93.91 L-101.7 93.58 L-99.68 93.45 L-97.6 93.54 L-95.43 93.85 L-93.19 94.39 L-90.87 95.15 L-88.5 96.15 L-86.71 97.04 L-84.96 98.03 L-83.24 99.12 L-81.57 100.3 L-79.93 101.6 L-78.35 102.9 L-76.81 104.3 L-75.33 105.8 L-73.91 107.4 L-72.56 109 L-71.27 110.7 L-70.05 112.4 L-68.91 114.1 L-67.84 115.9 L-66.86 117.7 L-65.97 119.5 L-65.16 121.4 L-64.45 123.2 L-63.84 125.1 L-63.33 127 L-62.93 128.8 L-62.64 130.7 L-62.46 132.5 L-62.4 134.3 Z " />
<path stroke="rgb(0,0,0)" stroke-opacity="1" fill="rgb(255,255,255)" fill-opacity="1" id="a17" d="M-96 -128.5 L-97.21 -127 L-98.42 -125.5 L-99.62 -124 L-100.8 -122.4 L-102 -120.9 L-103.2 -119.4 L-104.5 -117.8 L-105.7 -116.3 L-106.9 -114.8 L-108.1 -113.2 L-109.3 -111.7 L-110.5 -110.2 L-111.7 -108.7 L-109.9 -107.8 L-108 -106.9 L-106.2 -106.1 L-104.3 -105.2 L-102.5 -104.3 L-100.6 -103.5 L-98.77 -102.6 L-96.92 -101.7 L-95.08 -100.9 L-93.23 -100 L-91.38 -99.14 L-89.54 -98.27 L-87.69 -97.41 L-85.84 -96.54 L-83.99 -95.68 L-82.15 -94.81 L-80.3 -93.95 L-81.13 -95.77 L-81.95 -97.59 L-82.78 -99.41 L-83.61 -101.2 L-84.43 -103.1 L-85.26 -104.9 L-86.08 -106.7 L-86.91 -108.5 L-87.74 -110.3 L-88.56 -112.2 L-89.39 -114 L-90.22 -115.8 L-91.04 -117.6 L-91.87 -119.4 L-92.69 -121.3 L-93.52 -123.1 L-94.35 -124.9 L-95.17 -126.7 L-96 -128.5 Z " />
<path stroke="rgb(0,0,0)" stroke-opacity="1" fill="rgb(255,255,255)" fill-opacity="1" id="a16" d="M-96 -70.95 L-94.79 -72.48 L-93.58 -74.01 L-92.38 -75.54 L-91.17 -77.07 L-89.96 -78.6 L-88.75 -80.13 L-87.55 -81.67 L-86.34 -83.2 L-85.13 -84.73 L-83.92 -86.26 L-82.72 -87.79 L-81.51 -89.32 L-80.3 -90.85 L-82.15 -91.71 L-83.99 -92.57 L-85.84 -93.43 L-87.69 -94.29 L-89.54 -95.14 L-91.38 -96 L-93.23 -96.86 L-95.08 -97.72 L-96.92 -98.58 L-98.77 -99.44 L-100.6 -100.3 L-102.5 -101.2 L-104.3 -102 L-106.2 -102.9 L-108 -103.7 L-109.9 -104.6 L-111.7 -105.5 L-110.9 -103.6 L-110 -101.8 L-109.2 -100 L-108.4 -98.19 L-107.6 -96.37 L-106.7 -94.56 L-105.9 -92.74 L-105.1 -90.92 L-104.3 -89.11 L-103.4 -87.29 L-102.6 -85.48 L-101.8 -83.66 L-101 -81.84 L-100.1 -80.03 L-99.31 -78.21 L-98.48 -76.4 L-97.65 -74.58 L-96.83 -72.77 L-96 -70.95 Z " />
<path stroke="rgb(0,0,0)" stroke-opacity="1" fill="rgb(173,200,200)" fill-opacity="1" id="swap2" d="M-56.95 -65.01 L-57.21 -62.89 L-57.93 -61.18 L-59.07 -59.91 L-60.57 -59.11 L-62.37 -58.81 L-64.41 -59.03 L-66.65 -59.81 L-68.41 -60.78 L-70.05 -62 L-71.57 -63.43 L-72.92 -65.02 L-74.08 -66.73 L-75.04 -68.53 L-75.75 -70.37 L-76.2 -72.21 L-76.35 -74.01 L-76.1 -76.1 L-75.37 -77.8 L-74.23 -79.07 L-72.74 -79.88 L-70.94 -80.2 L-68.89 -79.99 L-66.65 -79.21 L-64.9 -78.25 L-63.25 -77.03 L-61.74 -75.62 L-60.38 -74.04 L-59.22 -72.33 L-58.27 -70.54 L-57.55 -68.69 L-57.11 -66.84 L-56.95 -65.01 Z " />
<path stroke="rgb(0,0,0)" stroke-opacity="1" fill="rgb(173,200,200)" fill-opacity="1" id="swap4" d="M-33.4 -47.32 L-33.65 -45.2 L-34.38 -43.49 L-35.52 -42.22 L-37.02 -41.42 L-38.82 -41.11 L-40.86 -41.34 L-43.1 -42.12 L-44.85 -43.09 L-46.5 -44.31 L-48.01 -45.74 L-49.37 -47.33 L-50.53 -49.04 L-51.49 -50.84 L-52.2 -52.68 L-52.65 -54.52 L-52.8 -56.32 L-52.55 -58.44 L-51.82 -60.15 L-50.68 -61.42 L-49.18 -62.22 L-47.38 -62.53 L-45.34 -62.3 L-43.1 -61.52 L-41.35 -60.55 L-39.7 -59.34 L-38.19 -57.93 L-36.83 -56.35 L-35.67 -54.64 L-34.71 -52.85 L-34 -51 L-33.55 -49.15 L-33.4 -47.32 Z " />
<path stroke="rgb(0,0,0)" stroke-opacity="1" fill="rgb(173,200,200)" fill-opacity="1" id="swap3" d="M-33.4 -62.98 L-33.65 -60.86 L-34.38 -59.15 L-35.52 -57.88 L-37.02 -57.08 L-38.82 -56.77 L-40.86 -57 L-43.1 -57.78 L-44.85 -58.75 L-46.5 -59.97 L-48.01 -61.39 L-49.37 -62.99 L-50.53 -64.7 L-51.49 -66.5 L-52.2 -68.34 L-52.65 -70.18 L-52.8 -71.98 L-52.55 -74.07 L-51.82 -75.77 L-50.68 -77.04 L-49.18 -77.85 L-47.38 -78.17 L-45.34 -77.96 L-43.1 -77.18 L-41.35 -76.21 L-39.7 -75 L-38.19 -73.59 L-36.83 -72.01 L-35.67 -70.3 L-34.71 -68.51 L-34 -66.66 L-33.55 -64.81 L-33.4 -62.98 Z " />
<path stroke="rgb(0,0,0)" stroke-opacity="1" fill="rgb(173,200,200)" fill-opacity="1" id="swap1" d="M-9.448 -46.29 L-9.702 -44.17 L-10.43 -42.46 L-11.57 -41.19 L-13.06 -40.38 L-14.86 -40.08 L-16.91 -40.3 L-19.15 -41.09 L-20.9 -42.06 L-22.55 -43.28 L-24.06 -44.7 L-25.42 -46.29 L-26.58 -48.01 L-27.53 -49.81 L-28.25 -51.65 L-28.69 -53.49 L-28.85 -55.29 L-28.59 -57.38 L-27.87 -59.07 L-26.73 -60.35 L-25.23 -61.16 L-23.43 -61.48 L-21.39 -61.26 L-19.15 -60.49 L-17.39 -59.52 L-15.75 -58.3 L-14.23 -56.87 L-12.88 -55.28 L-11.72 -53.57 L-10.76 -51.77 L-10.05 -49.93 L-9.603 -48.09 L-9.448 -46.29 Z " />
<path stroke="rgb(0,0,0)" stroke-opacity="1" fill="rgb(255,255,255)" fill-opacity="1" id="secscl1" d="M-4.762 125.1 L-5.714 124.7 L-6.665 124.2 L-7.616 123.8 L-8.568 123.3 L-9.519 122.9 L-10.47 122.5 L-11.42 122 L-12.37 121.6 L-13.32 121.1 L-14.28 120.7 L-15.23 120.2 L-16.18 119.8 L-17.13 119.4 L-18.08 118.9 L-18.74 119.8 L-19.4 120.6 L-20.06 121.4 L-20.72 122.3 L-21.39 123.1 L-22.05 124 L-22.71 124.8 L-23.37 125.6 L-24.03 126.5 L-24.69 127.3 L-24.28 128.2 L-23.86 129.1 L-23.45 130 L-23.04 131 L-22.62 131.9 L-22.21 132.8 L-21.8 133.7 L-21.39 134.6 L-20.97 135.5 L-20.56 136.4 L-20.15 137.3 L-19.73 138.2 L-19.32 139.1 L-18.91 140.1 L-18.49 141 L-18.08 141.9 L-17.13 142.3 L-16.18 142.7 L-15.23 143.2 L-14.28 143.6 L-13.32 144.1 L-12.37 144.5 L-11.42 144.9 L-10.47 145.4 L-9.519 145.8 L-8.568 146.3 L-7.616 146.7 L-6.665 147.1 L-5.714 147.6 L-4.762 148 L-4.101 147.2 L-3.441 146.3 L-2.78 145.5 L-2.119 144.7 L-1.458 143.8 L-0.7973 143 L-0.1365 142.2 L0.5243 141.3 L1.185 140.5 L1.846 139.7 L1.433 138.8 L1.02 137.8 L0.6069 136.9 L0.1939 136 L-0.2191 135.1 L-0.6321 134.2 L-1.045 133.3 L-1.458 132.4 L-1.871 131.5 L-2.284 130.6 L-2.697 129.7 L-3.11 128.8 L-3.523 127.8 L-3.936 126.9 L-4.349 126 L-4.762 125.1 Z " />
</g>
</g>
</svg>
