<!DOCTYPE svg>
<svg xmlns="http://www.w3.org/2000/svg" xmlns:xlink="http://www.w3.org/1999/xlink" width="1080" height="1080">
<g transform="translate(540.000000,540.000000)">
<g transform="scale(2,2)">
<path stroke="rgb(0,0,0)" stroke-opacity="1" fill="rgb(148,200,200)" fill-opacity="1" id="bb1_2_" d="M-93.39 -52.49 L-94.19 -50.67 L-95 -48.86 L-95.8 -47.04 L-96.61 -45.23 L-97.41 -43.41 L-98.22 -41.59 L-99.02 -39.78 L-99.83 -37.96 L-100.6 -36.14 L-101.4 -34.33 L-102.2 -32.51 L-103 -30.7 L-103.8 -28.88 L-104.7 -27.06 L-105.5 -25.25 L-106.3 -23.43 L-107.1 -21.61 L-107.9 -19.8 L-108.7 -17.98 L-109.5 -16.16 L-110.3 -14.35 L-111.1 -12.53 L-111.9 -10.72 L-112.7 -8.9 L-113.5 -7.083 L-114.3 -5.267 L-115.1 -3.451 L-115.9 -1.635 L-116.7 0.1817 L-118.7 0.1765 L-120.7 0.1712 L-122.7 0.1659 L-124.8 0.1607 L-126.8 0.1554 L-128.8 0.1501 L-130.8 0.1449 L-132.8 0.1396 L-134.8 0.1343 L-136.8 0.1291 L-138.8 0.1238 L-140.8 0.1185 L-142.8 0.1133 L-144.8 0.108 L-146.8 0.1028 L-148.8 0.09749 L-150.9 0.09223 L-152.9 0.08696 L-154.9 0.0817 L-156.9 0.07644 L-158.9 0.07117 L-160.9 0.06591 L-162.9 0.06064 L-164.9 0.05538 L-166.9 0.05011 L-168.9 0.04485 L-170.9 0.03958 L-170.1 -1.777 L-169.3 -3.593 L-168.5 -5.409 L-167.7 -7.226 L-166.9 -9.042 L-166.1 -10.86 L-165.3 -12.67 L-164.5 -14.49 L-163.7 -16.31 L-162.9 -18.12 L-162.1 -19.94 L-161.3 -21.76 L-160.5 -23.57 L-159.7 -25.39 L-158.9 -27.2 L-158 -29.02 L-157.2 -30.84 L-156.4 -32.65 L-155.6 -34.47 L-154.8 -36.29 L-154 -38.1 L-153.2 -39.92 L-152.4 -41.74 L-151.6 -43.55 L-150.8 -45.37 L-150 -47.18 L-149.2 -49 L-148.4 -50.82 L-147.6 -52.63 L-145.6 -52.63 L-143.6 -52.62 L-141.6 -52.62 L-139.6 -52.61 L-137.5 -52.61 L-135.5 -52.6 L-133.5 -52.6 L-131.5 -52.59 L-129.5 -52.59 L-127.5 -52.58 L-125.5 -52.57 L-123.5 -52.57 L-121.5 -52.56 L-119.5 -52.56 L-117.5 -52.55 L-115.5 -52.55 L-113.5 -52.54 L-111.5 -52.54 L-109.4 -52.53 L-107.4 -52.53 L-105.4 -52.52 L-103.4 -52.52 L-101.4 -52.51 L-99.41 -52.51 L-97.4 -52.5 L-95.39 -52.5 L-93.39 -52.49 Z " />
<path stroke="rgb(0,0,0)" stroke-opacity="1" fill="rgb(236,216,157)" fill-opacity="1" id="pr2_1_" d="M72.72 104.7 L70.95 103.8 L69.18 102.9 L67.42 102 L65.65 101.1 L63.88 100.2 L62.11 99.26 L60.35 98.36 L58.58 97.46 L58.61 95.52 L58.64 93.59 L58.67 91.66 L58.7 89.72 L58.72 87.79 L58.75 85.86 L58.78 83.92 L60.54 84.81 L62.29 85.7 L64.05 86.59 L65.8 87.48 L67.55 88.37 L69.31 89.26 L71.06 90.15 L72.82 91.04 L72.8 92.99 L72.79 94.94 L72.77 96.88 L72.76 98.83 L72.75 100.8 L72.73 102.7 L72.72 104.7 Z " />
<path stroke="rgb(0,0,0)" stroke-opacity="1" fill="rgb(236,216,157)" fill-opacity="1" id="pr1_1_" d="M54.92 96.08 L53.16 95.17 L51.41 94.27 L49.65 93.37 L47.9 92.47 L46.14 91.56 L44.39 90.66 L42.64 89.76 L40.88 88.86 L40.9 86.92 L40.91 84.99 L40.92 83.06 L40.94 81.12 L40.95 79.19 L40.97 77.26 L40.98 75.32 L42.74 76.22 L44.49 77.13 L46.24 78.03 L48 78.93 L49.75 79.83 L51.51 80.74 L53.26 81.64 L55.02 82.54 L55 84.47 L54.99 86.41 L54.97 88.34 L54.96 90.28 L54.95 92.21 L54.93 94.14 L54.92 96.08 Z " />
<path stroke="rgb(0,0,0)" stroke-opacity="1" fill="rgb(236,216,157)" fill-opacity="1" id="pr3_1_" d="M51.37 108.7 L50.46 108.3 L49.55 107.8 L48.64 107.3 L47.73 106.9 L46.82 106.4 L45.91 105.9 L45 105.5 L44.09 105 L44.1 104 L44.11 103 L44.11 102 L44.12 101 L44.13 99.98 L44.14 98.98 L44.14 97.98 L45.05 98.45 L45.96 98.91 L46.87 99.38 L47.78 99.85 L48.69 100.3 L49.6 100.8 L50.51 101.3 L51.42 101.7 L51.42 102.7 L51.41 103.7 L51.4 104.7 L51.39 105.7 L51.39 106.7 L51.38 107.7 L51.37 108.7 Z " />
<path stroke="rgb(0,0,0)" stroke-opacity="1" fill="rgb(236,216,157)" fill-opacity="1" id="pr4_1_" d="M72.3 121.7 L70.54 120.9 L68.77 120 L67.01 119.1 L65.25 118.2 L63.49 117.3 L61.73 116.4 L59.96 115.5 L58.2 114.6 L58.21 112.7 L58.23 110.8 L58.24 108.9 L58.26 106.9 L58.27 105 L58.29 103.1 L58.3 101.1 L60.06 102 L61.82 102.9 L63.59 103.8 L65.35 104.7 L67.11 105.6 L68.87 106.5 L70.64 107.4 L72.4 108.2 L72.39 110.2 L72.37 112.1 L72.36 114 L72.34 116 L72.33 117.9 L72.31 119.8 L72.3 121.7 Z " />
<path stroke="rgb(0,0,0)" stroke-opacity="1" fill="rgb(238,200,200)" fill-opacity="1" id="ll1_1_" d="M149.1 125.2 L146.8 124.2 L144.4 123.1 L142.1 122 L139.8 120.9 L137.5 119.8 L135.2 118.8 L132.9 117.7 L130.6 116.6 L128.3 115.5 L126 114.4 L123.6 113.4 L121.3 112.3 L119 111.2 L116.7 110.1 L114.4 109 L112.1 108 L112.1 105.4 L112.1 102.8 L112.1 100.2 L112.1 97.65 L112.1 95.07 L112.1 92.49 L112.1 89.91 L112.1 87.33 L112.1 84.76 L112.1 82.18 L112.1 79.6 L112.1 77.02 L112.1 74.44 L112.1 71.87 L114.4 72.95 L116.7 74.04 L119 75.13 L121.3 76.22 L123.6 77.31 L126 78.39 L128.3 79.48 L130.6 80.57 L132.9 81.66 L135.2 82.75 L137.5 83.84 L139.8 84.92 L142.1 86.01 L144.4 87.1 L146.8 88.19 L149.1 89.28 L149.1 91.85 L149.1 94.41 L149.1 96.98 L149.1 99.55 L149.1 102.1 L149.1 104.7 L149.1 107.3 L149.1 109.8 L149.1 112.4 L149.1 115 L149.1 117.5 L149.1 120.1 L149.1 122.7 L149.1 125.2 Z " />
<path stroke="rgb(0,0,0)" stroke-opacity="1" fill="rgb(255,255,255)" fill-opacity="1" id="cl1_1_" d="M17.33 103.4 L19.13 104.3 L20.93 105.2 L22.73 106.1 L24.52 107 L26.32 107.9 L28.12 108.8 L29.92 109.7 L31.72 110.6 L33.52 111.5 L35.32 112.4 L37.12 113.3 L38.92 114.2 L40.72 115.1 L42.52 116 L44.32 116.9 L44.42 119 L42.62 118.1 L40.82 117.2 L39.02 116.3 L37.22 115.3 L35.42 114.4 L33.62 113.5 L31.82 112.6 L30.02 111.7 L28.22 110.7 L26.42 109.8 L24.62 108.9 L22.82 108 L21.02 107.1 L19.22 106.1 L17.42 105.2 L17.33 103.4 Z " />
<path stroke="rgb(0,0,0)" stroke-opacity="1" fill="rgb(255,255,255)" fill-opacity="1" id="a5_2_" d="M206 -50.75 L204.1 -51.59 L202.2 -52.44 L200.3 -53.28 L198.5 -54.12 L196.6 -54.96 L194.7 -55.81 L192.8 -56.65 L190.9 -57.49 L189 -58.34 L187.1 -59.18 L185.3 -60.02 L183.4 -60.86 L181.5 -61.71 L179.6 -62.55 L179.6 -60.6 L179.6 -58.64 L179.6 -56.69 L179.6 -54.73 L179.6 -52.78 L179.6 -50.83 L179.6 -48.87 L179.6 -46.92 L179.6 -44.97 L179.6 -43.01 L179.6 -41.06 L179.6 -39.1 L179.6 -37.15 L181.5 -36.31 L183.4 -35.46 L185.3 -34.62 L187.1 -33.78 L189 -32.94 L190.9 -32.09 L192.8 -31.25 L194.7 -30.41 L196.6 -29.56 L198.5 -28.72 L200.3 -27.88 L202.2 -27.04 L204.1 -26.19 L206 -25.35 L206 -27.3 L206 -29.26 L206 -31.21 L206 -33.17 L206 -35.12 L206 -37.07 L206 -39.03 L206 -40.98 L206 -42.93 L206 -44.89 L206 -46.84 L206 -48.8 L206 -50.75 Z " />
<path stroke="rgb(0,0,0)" stroke-opacity="1" fill="rgb(255,255,255)" fill-opacity="1" id="a6_2_" d="M83.3 51.45 L81.52 50.62 L79.75 49.79 L77.97 48.96 L76.19 48.13 L74.42 47.3 L72.64 46.47 L70.86 45.64 L69.09 44.81 L67.31 43.99 L65.54 43.16 L63.76 42.33 L61.98 41.5 L60.21 40.67 L58.43 39.84 L56.65 39.01 L54.88 38.18 L53.1 37.35 L53.1 35.25 L53.1 33.15 L53.1 31.05 L53.1 28.95 L53.1 26.85 L53.1 24.75 L53.1 22.65 L53.1 20.55 L53.1 18.45 L53.1 16.35 L54.87 17.18 L56.64 18.01 L58.41 18.84 L60.18 19.67 L61.95 20.5 L63.72 21.33 L65.49 22.16 L67.26 22.99 L69.04 23.81 L70.81 24.64 L72.58 25.47 L74.35 26.3 L76.12 27.13 L77.89 27.96 L79.66 28.79 L81.43 29.62 L83.2 30.45 L83.21 32.36 L83.22 34.27 L83.23 36.18 L83.24 38.09 L83.25 40 L83.25 41.9 L83.26 43.81 L83.27 45.72 L83.28 47.63 L83.29 49.54 L83.3 51.45 Z " />
<path stroke="rgb(0,0,0)" stroke-opacity="1" fill="rgb(148,200,200)" fill-opacity="1" id="rtr1_2_" d="M61.33 -140.4 L63.2 -139.5 L65.08 -138.7 L66.95 -137.8 L68.83 -137 L70.7 -136.1 L72.57 -135.3 L72.61 -133.2 L72.64 -131 L72.67 -128.9 L72.7 -126.8 L72.73 -124.7 L70.84 -125.5 L68.95 -126.4 L67.06 -127.2 L65.17 -128 L63.28 -128.9 L61.39 -129.7 L61.38 -131.9 L61.37 -134 L61.35 -136.1 L61.34 -138.2 L61.33 -140.4 Z " />
<path stroke="rgb(0,0,0)" stroke-opacity="1" fill="rgb(238,200,200)" fill-opacity="1" id="sg1_2_" d="M74.55 108.4 L76.37 108.2 L78.19 108 L80.01 107.9 L81.84 107.7 L83.66 107.6 L85.48 107.4 L86.59 109.2 L87.7 111 L88.81 112.8 L89.92 114.5 L88.09 114.7 L86.26 114.9 L84.43 115.1 L82.6 115.3 L80.77 115.4 L78.94 115.6 L77.84 113.8 L76.74 112 L75.65 110.2 L74.55 108.4 Z " />
<path stroke="rgb(0,0,0)" stroke-opacity="1" fill="rgb(255,255,255)" fill-opacity="1" id="a12_2_" d="M-54.8 88.45 L-56.68 87.63 L-58.57 86.82 L-60.45 86 L-62.33 85.18 L-64.22 84.37 L-66.1 83.55 L-66.12 81.62 L-66.13 79.68 L-66.15 77.75 L-66.17 75.82 L-66.18 73.88 L-66.2 71.95 L-64.33 72.77 L-62.47 73.58 L-60.6 74.4 L-58.73 75.22 L-56.87 76.03 L-55 76.85 L-54.97 78.78 L-54.93 80.72 L-54.9 82.65 L-54.87 84.58 L-54.83 86.52 L-54.8 88.45 Z " />
<path stroke="rgb(0,0,0)" stroke-opacity="1" fill="rgb(255,255,255)" fill-opacity="1" id="secscl1_2_" d="M-30.82 31.32 L-31.99 30.76 L-33.17 30.2 L-34.35 29.64 L-35.52 29.08 L-36.7 28.52 L-37.88 27.96 L-39.05 27.4 L-40.23 26.84 L-40.23 25.57 L-40.23 24.3 L-40.23 23.03 L-40.23 21.77 L-40.23 20.5 L-40.23 19.23 L-40.23 17.96 L-40.23 16.69 L-40.23 15.43 L-40.23 14.16 L-40.23 12.89 L-40.23 11.62 L-40.23 10.35 L-40.23 9.085 L-40.23 7.817 L-40.23 6.549 L-40.23 5.281 L-40.23 4.013 L-40.23 2.745 L-40.23 1.477 L-40.23 0.2093 L-40.23 -1.059 L-40.23 -2.327 L-40.23 -3.595 L-40.23 -4.863 L-40.23 -6.131 L-40.23 -7.399 L-40.23 -8.667 L-40.23 -9.935 L-40.23 -11.2 L-40.23 -12.47 L-40.23 -13.74 L-40.23 -15.01 L-40.23 -16.27 L-40.23 -17.54 L-40.23 -18.81 L-40.23 -20.08 L-40.23 -21.35 L-40.23 -22.61 L-40.23 -23.88 L-39.05 -23.31 L-37.88 -22.75 L-36.7 -22.18 L-35.52 -21.61 L-34.35 -21.04 L-33.17 -20.47 L-31.99 -19.9 L-30.82 -19.34 L-30.82 -18.07 L-30.82 -16.8 L-30.82 -15.54 L-30.82 -14.27 L-30.82 -13 L-30.82 -11.74 L-30.82 -10.47 L-30.82 -9.205 L-30.82 -7.938 L-30.82 -6.672 L-30.82 -5.405 L-30.82 -4.139 L-30.82 -2.873 L-30.82 -1.606 L-30.82 -0.3399 L-30.82 0.9265 L-30.82 2.193 L-30.82 3.459 L-30.82 4.726 L-30.82 5.992 L-30.82 7.258 L-30.82 8.525 L-30.82 9.791 L-30.82 11.06 L-30.82 12.32 L-30.82 13.59 L-30.82 14.86 L-30.82 16.12 L-30.82 17.39 L-30.82 18.66 L-30.82 19.92 L-30.82 21.19 L-30.82 22.46 L-30.82 23.72 L-30.82 24.99 L-30.82 26.25 L-30.82 27.52 L-30.82 28.79 L-30.82 30.05 L-30.82 31.32 Z " />
<path stroke="rgb(0,0,0)" stroke-opacity="1" fill="rgb(255,255,255)" fill-opacity="1" id="a7_1_" d="M141.3 -84.25 L139.4 -85.05 L137.6 -85.85 L135.7 -86.65 L133.8 -87.45 L132 -88.25 L130.1 -89.05 L128.3 -89.85 L126.4 -90.65 L124.5 -91.45 L122.7 -92.25 L120.8 -93.05 L120.8 -95.03 L120.8 -97.02 L120.8 -99 L120.8 -101 L120.8 -103 L120.8 -105 L122.7 -104.1 L124.5 -103.3 L126.4 -102.5 L128.3 -101.7 L130.1 -100.9 L132 -100 L133.8 -99.22 L135.7 -98.4 L137.6 -97.59 L139.4 -96.77 L141.3 -95.95 L141.3 -94 L141.3 -92.05 L141.3 -90.1 L141.3 -88.15 L141.3 -86.2 L141.3 -84.25 Z " />
<path stroke="rgb(0,0,0)" stroke-opacity="1" fill="rgb(255,255,255)" fill-opacity="1" id="a8_1_" d="M141.2 -69.95 L139.3 -70.76 L137.5 -71.57 L135.6 -72.38 L133.7 -73.19 L131.9 -74 L130 -74.8 L128.2 -75.61 L126.3 -76.42 L124.4 -77.23 L122.6 -78.04 L120.7 -78.85 L120.7 -80.82 L120.7 -82.78 L120.7 -84.75 L120.7 -86.72 L120.7 -88.68 L120.7 -90.65 L122.6 -89.85 L124.4 -89.05 L126.3 -88.25 L128.2 -87.45 L130.1 -86.65 L131.9 -85.85 L133.8 -85.05 L135.7 -84.25 L137.6 -83.45 L139.4 -82.65 L141.3 -81.85 L141.3 -79.87 L141.3 -77.88 L141.2 -75.9 L141.2 -73.92 L141.2 -71.93 L141.2 -69.95 Z " />
<path stroke="rgb(0,0,0)" stroke-opacity="1" fill="rgb(255,255,255)" fill-opacity="1" id="a9_1_" d="M134.2 -61.55 L132.3 -62.35 L130.4 -63.15 L128.5 -63.95 L126.5 -64.75 L124.6 -65.55 L122.7 -66.35 L120.8 -67.15 L120.8 -68.95 L120.8 -70.75 L120.7 -72.55 L120.7 -74.35 L120.7 -76.15 L122.6 -75.34 L124.5 -74.52 L126.4 -73.71 L128.4 -72.89 L130.3 -72.08 L132.2 -71.26 L134.1 -70.45 L134.1 -68.23 L134.2 -66 L134.2 -63.77 L134.2 -61.55 Z " />
<path stroke="rgb(0,0,0)" stroke-opacity="1" fill="rgb(255,255,255)" fill-opacity="1" id="a17_1_" d="M34.5 62.65 L32.73 61.71 L30.95 60.78 L29.18 59.84 L27.41 58.9 L25.64 57.97 L23.86 57.03 L22.09 56.1 L20.32 55.16 L18.55 54.22 L16.77 53.29 L15 52.35 L15 50.33 L15 48.32 L15 46.3 L15 44.28 L15 42.27 L15 40.25 L16.77 41.19 L18.55 42.12 L20.32 43.06 L22.09 44 L23.86 44.93 L25.64 45.87 L27.41 46.8 L29.18 47.74 L30.95 48.68 L32.73 49.61 L34.5 50.55 L34.5 52.57 L34.5 54.58 L34.5 56.6 L34.5 58.62 L34.5 60.63 L34.5 62.65 Z " />
<path stroke="rgb(0,0,0)" stroke-opacity="1" fill="rgb(255,255,255)" fill-opacity="1" id="a16_1_" d="M34.5 79.85 L32.73 78.95 L30.95 78.05 L29.18 77.15 L27.41 76.25 L25.64 75.35 L23.86 74.45 L22.09 73.55 L20.32 72.65 L18.55 71.75 L16.77 70.85 L15 69.95 L15 67.98 L15 66.02 L15 64.05 L15 62.08 L15 60.12 L15 58.15 L16.77 59.05 L18.55 59.95 L20.32 60.85 L22.09 61.75 L23.86 62.65 L25.64 63.55 L27.41 64.45 L29.18 65.35 L30.95 66.25 L32.73 67.15 L34.5 68.05 L34.5 70.02 L34.5 71.98 L34.5 73.95 L34.5 75.92 L34.5 77.88 L34.5 79.85 Z " />
<path stroke="rgb(0,0,0)" stroke-opacity="1" fill="rgb(236,216,157)" fill-opacity="1" id="scltrs1_1_" d="M-31.48 50.43 L-32.39 49.96 L-33.31 49.48 L-34.22 49 L-35.14 48.52 L-36.06 48.04 L-36.97 47.56 L-37.89 47.08 L-37.89 46.04 L-37.89 44.99 L-37.89 43.95 L-37.89 42.91 L-37.89 41.86 L-37.89 40.82 L-36.97 41.3 L-36.06 41.78 L-35.14 42.26 L-34.22 42.74 L-33.31 43.22 L-32.39 43.7 L-31.48 44.18 L-31.48 45.22 L-31.48 46.26 L-31.48 47.3 L-31.48 48.35 L-31.48 49.39 L-31.48 50.43 Z " />
<path stroke="rgb(0,0,0)" stroke-opacity="1" fill="rgb(244,227,211)" fill-opacity="1" id="a15_1_" d="M119.3 1.25 L117.4 0.3875 L115.6 -0.475 L113.7 -1.338 L111.8 -2.2 L110 -3.063 L108.1 -3.925 L106.3 -4.788 L104.4 -5.65 L104.4 -7.57 L104.4 -9.49 L104.4 -11.41 L104.4 -13.33 L104.4 -15.25 L106.3 -14.38 L108.1 -13.5 L110 -12.63 L111.8 -11.75 L113.7 -10.88 L115.6 -10 L117.4 -9.125 L119.3 -8.25 L119.3 -6.35 L119.3 -4.45 L119.3 -2.55 L119.3 -0.65 L119.3 1.25 Z " />
<path stroke="rgb(0,0,0)" stroke-opacity="1" fill="rgb(244,227,211)" fill-opacity="1" id="a14_1_" d="M117.2 9.75 L115.4 8.893 L113.5 8.036 L111.7 7.179 L109.8 6.321 L108 5.464 L106.1 4.607 L104.3 3.75 L104.3 1.817 L104.4 -0.1167 L104.4 -2.05 L106.2 -1.164 L108.1 -0.2786 L109.9 0.6071 L111.7 1.493 L113.5 2.379 L115.4 3.264 L117.2 4.15 L117.2 6.017 L117.2 7.883 L117.2 9.75 Z " />
<path stroke="rgb(0,0,0)" stroke-opacity="1" fill="rgb(244,227,211)" fill-opacity="1" id="a13_1_" d="M115 29.65 L113.2 28.82 L111.4 27.98 L109.6 27.15 L107.9 26.32 L106.1 25.48 L104.3 24.65 L104.3 22.59 L104.3 20.52 L104.3 18.46 L104.3 16.4 L104.3 14.34 L104.3 12.27 L104.3 10.21 L104.3 8.15 L106.1 8.983 L107.9 9.817 L109.6 10.65 L111.4 11.48 L113.2 12.32 L115 13.15 L115 15.21 L115 17.27 L115 19.34 L115 21.4 L115 23.46 L115 25.52 L115 27.59 L115 29.65 Z " />
<path stroke="rgb(0,0,0)" stroke-opacity="1" fill="rgb(200,200,200)" fill-opacity="1" id="a1_2_" d="M-110.5 -73.45 L-112.2 -74.33 L-114 -75.2 L-115.7 -76.08 L-117.5 -76.96 L-119.2 -77.84 L-121 -78.71 L-122.7 -79.59 L-124.5 -80.47 L-126.2 -81.35 L-128 -82.22 L-129.8 -83.1 L-131.5 -83.98 L-133.3 -84.85 L-135 -85.73 L-136.8 -86.61 L-138.5 -87.49 L-140.3 -88.36 L-142 -89.24 L-143.8 -90.12 L-145.5 -91 L-147.3 -91.87 L-149 -92.75 L-149 -94.61 L-149 -96.47 L-149 -98.33 L-149 -100.2 L-149 -102 L-147.3 -101.2 L-145.5 -100.3 L-143.8 -99.4 L-142 -98.52 L-140.3 -97.64 L-138.5 -96.76 L-136.8 -95.88 L-135 -95 L-133.3 -94.11 L-131.5 -93.23 L-129.8 -92.35 L-128 -91.47 L-126.2 -90.59 L-124.5 -89.7 L-122.7 -88.82 L-121 -87.94 L-119.2 -87.06 L-117.5 -86.18 L-115.7 -85.3 L-114 -84.41 L-112.2 -83.53 L-110.5 -82.65 L-110.5 -80.81 L-110.5 -78.97 L-110.5 -77.13 L-110.5 -75.29 L-110.5 -73.45 Z " />
<path stroke="rgb(0,0,0)" stroke-opacity="1" fill="rgb(200,200,200)" fill-opacity="1" id="a4_2_" d="M-89.9 -108.2 L-91.69 -109 L-93.49 -109.9 L-95.28 -110.8 L-97.08 -111.7 L-98.87 -112.6 L-100.7 -113.5 L-102.5 -114.4 L-104.3 -115.3 L-106 -116.2 L-107.8 -117.1 L-109.6 -118 L-111.4 -118.9 L-113.2 -119.8 L-115 -120.7 L-116.8 -121.6 L-118.6 -122.5 L-120.4 -123.3 L-122.2 -124.2 L-124 -125.1 L-125.8 -126 L-127.6 -126.9 L-129.4 -127.8 L-131.2 -128.7 L-133 -129.6 L-134.7 -130.5 L-136.5 -131.4 L-138.3 -132.3 L-140.1 -133.2 L-141.9 -134.1 L-143.7 -135 L-145.5 -135.9 L-147.3 -136.8 L-149.1 -137.7 L-149.1 -139.7 L-149.1 -141.7 L-149.1 -143.7 L-149.1 -145.7 L-149.1 -147.7 L-149.1 -149.7 L-149.1 -151.8 L-147.3 -150.9 L-145.5 -150 L-143.7 -149.1 L-141.9 -148.2 L-140.1 -147.3 L-138.3 -146.4 L-136.5 -145.5 L-134.7 -144.6 L-133 -143.7 L-131.2 -142.8 L-129.4 -142 L-127.6 -141.1 L-125.8 -140.2 L-124 -139.3 L-122.2 -138.4 L-120.4 -137.5 L-118.6 -136.6 L-116.8 -135.7 L-115 -134.8 L-113.2 -133.9 L-111.4 -133 L-109.6 -132.2 L-107.8 -131.3 L-106 -130.4 L-104.3 -129.5 L-102.5 -128.6 L-100.7 -127.7 L-98.87 -126.8 L-97.08 -125.9 L-95.28 -125 L-93.49 -124.1 L-91.69 -123.2 L-89.9 -122.3 L-89.9 -120.3 L-89.9 -118.3 L-89.9 -116.3 L-89.9 -114.2 L-89.9 -112.2 L-89.9 -110.2 L-89.9 -108.2 Z " />
<path stroke="rgb(0,0,0)" stroke-opacity="1" fill="rgb(200,200,200)" fill-opacity="1" id="a2_1_" d="M-109.1 -87.55 L-110.9 -88.45 L-112.7 -89.36 L-114.6 -90.26 L-116.4 -91.17 L-118.2 -92.07 L-120 -92.98 L-121.8 -93.88 L-123.6 -94.79 L-125.5 -95.69 L-127.3 -96.6 L-129.1 -97.5 L-130.9 -98.4 L-132.7 -99.31 L-134.6 -100.2 L-136.4 -101.1 L-138.2 -102 L-140 -102.9 L-141.8 -103.8 L-143.6 -104.7 L-145.5 -105.6 L-147.3 -106.5 L-149.1 -107.5 L-149.1 -109.4 L-149.1 -111.3 L-149.1 -113.3 L-149.1 -115.2 L-149.1 -117.2 L-147.3 -116.2 L-145.5 -115.3 L-143.6 -114.4 L-141.8 -113.5 L-140 -112.6 L-138.2 -111.7 L-136.4 -110.8 L-134.6 -109.9 L-132.7 -109 L-130.9 -108.1 L-129.1 -107.2 L-127.3 -106.2 L-125.5 -105.3 L-123.6 -104.4 L-121.8 -103.5 L-120 -102.6 L-118.2 -101.7 L-116.4 -100.8 L-114.6 -99.88 L-112.7 -98.97 L-110.9 -98.06 L-109.1 -97.15 L-109.1 -95.23 L-109.1 -93.31 L-109.1 -91.39 L-109.1 -89.47 L-109.1 -87.55 Z " />
<path stroke="rgb(0,0,0)" stroke-opacity="1" fill="rgb(200,200,200)" fill-opacity="1" id="a3_1_" d="M-105.8 -101.2 L-107.6 -102 L-109.4 -102.9 L-111.2 -103.8 L-113 -104.7 L-114.8 -105.6 L-116.6 -106.5 L-118.4 -107.4 L-120.2 -108.3 L-122 -109.2 L-123.8 -110.1 L-125.6 -111 L-127.4 -111.8 L-129.3 -112.7 L-131.1 -113.6 L-132.9 -114.5 L-134.7 -115.4 L-136.5 -116.3 L-138.3 -117.2 L-140.1 -118.1 L-141.9 -119 L-143.7 -119.9 L-145.5 -120.8 L-147.3 -121.7 L-149.1 -122.5 L-149.1 -124.6 L-149.1 -126.7 L-149.1 -128.8 L-149.1 -130.9 L-149.1 -133 L-147.3 -132.1 L-145.5 -131.2 L-143.7 -130.3 L-141.9 -129.4 L-140.1 -128.5 L-138.3 -127.6 L-136.5 -126.7 L-134.7 -125.8 L-132.9 -124.9 L-131.1 -124 L-129.3 -123.1 L-127.4 -122.3 L-125.6 -121.4 L-123.8 -120.5 L-122 -119.6 L-120.2 -118.7 L-118.4 -117.8 L-116.6 -116.9 L-114.8 -116 L-113 -115.1 L-111.2 -114.2 L-109.4 -113.3 L-107.6 -112.4 L-105.8 -111.5 L-105.8 -109.5 L-105.8 -107.4 L-105.8 -105.3 L-105.8 -103.2 L-105.8 -101.2 Z " />
<path stroke="rgb(0,0,0)" stroke-opacity="1" fill="rgb(244,227,211)" fill-opacity="1" id="a11_1_" d="M-15.3 70.85 L-17.12 70.04 L-18.94 69.23 L-20.76 68.42 L-22.57 67.61 L-24.39 66.79 L-26.21 65.98 L-28.03 65.17 L-29.85 64.36 L-31.67 63.55 L-33.49 62.74 L-35.3 61.93 L-37.12 61.12 L-38.94 60.31 L-40.76 59.49 L-42.58 58.68 L-44.4 57.87 L-46.21 57.06 L-48.03 56.25 L-49.85 55.44 L-51.67 54.63 L-53.49 53.82 L-55.31 53.01 L-57.13 52.19 L-58.94 51.38 L-60.76 50.57 L-62.58 49.76 L-64.4 48.95 L-64.45 47 L-64.5 45.05 L-62.68 45.86 L-60.86 46.68 L-59.04 47.49 L-57.23 48.31 L-55.41 49.12 L-53.59 49.94 L-51.77 50.75 L-49.95 51.57 L-48.13 52.38 L-46.31 53.2 L-44.5 54.01 L-42.68 54.83 L-40.86 55.64 L-39.04 56.46 L-37.22 57.27 L-35.4 58.09 L-33.59 58.9 L-31.77 59.72 L-29.95 60.53 L-28.13 61.35 L-26.31 62.16 L-24.49 62.98 L-22.67 63.79 L-20.86 64.61 L-19.04 65.42 L-17.22 66.24 L-15.4 67.05 L-15.35 68.95 L-15.3 70.85 Z " />
<path stroke="rgb(0,0,0)" stroke-opacity="1" fill="rgb(244,200,200)" fill-opacity="1" id="fus1_1_" d="M-100.5 51.95 L-102.3 51.19 L-104.1 50.43 L-105.9 49.67 L-107.7 48.91 L-109.5 48.15 L-109.5 46.29 L-109.5 44.43 L-109.5 42.57 L-109.5 40.71 L-109.5 38.85 L-107.7 39.61 L-105.9 40.37 L-104.1 41.13 L-102.3 41.89 L-100.5 42.65 L-100.5 44.51 L-100.5 46.37 L-100.5 48.23 L-100.5 50.09 L-100.5 51.95 Z " />
<path stroke="rgb(0,0,0)" stroke-opacity="1" fill="rgb(244,200,200)" fill-opacity="1" id="fus2_1_" d="M-91.5 55.95 L-93.3 55.17 L-95.1 54.39 L-96.9 53.61 L-98.7 52.83 L-100.5 52.05 L-100.5 50.17 L-100.4 48.29 L-100.4 46.41 L-100.3 44.53 L-100.3 42.65 L-98.54 43.41 L-96.78 44.17 L-95.02 44.93 L-93.26 45.69 L-91.5 46.45 L-91.5 48.35 L-91.5 50.25 L-91.5 52.15 L-91.5 54.05 L-91.5 55.95 Z " />
<path stroke="rgb(0,0,0)" stroke-opacity="1" fill="rgb(244,200,200)" fill-opacity="1" id="fus3_1_" d="M-95.85 56.7 L-97.63 55.94 L-99.41 55.18 L-101.2 54.42 L-103 53.66 L-104.8 52.9 L-104.8 51.04 L-104.8 49.18 L-104.8 47.32 L-104.8 45.46 L-104.8 43.6 L-103 44.36 L-101.2 45.12 L-99.35 45.88 L-97.55 46.64 L-95.75 47.4 L-95.77 49.26 L-95.79 51.12 L-95.81 52.98 L-95.83 54.84 L-95.85 56.7 Z " />
<path stroke="rgb(0,0,0)" stroke-opacity="1" fill="rgb(244,200,200)" fill-opacity="1" id="fus4_1_" d="M-96.5 60.45 L-98.3 59.67 L-100.1 58.89 L-101.9 58.11 L-103.7 57.33 L-105.5 56.55 L-105.5 54.69 L-105.5 52.83 L-105.5 50.97 L-105.5 49.11 L-105.5 47.25 L-103.7 48.03 L-101.9 48.81 L-100.1 49.59 L-98.3 50.37 L-96.5 51.15 L-96.5 53.01 L-96.5 54.87 L-96.5 56.73 L-96.5 58.59 L-96.5 60.45 Z " />
<path stroke="rgb(0,0,0)" stroke-opacity="1" fill="rgb(173,200,200)" fill-opacity="1" id="swap1_1_" d="M30.41 -111 L28.59 -112 L26.77 -113 L24.95 -113.9 L23.13 -114.9 L21.31 -115.8 L19.49 -116.8 L17.67 -117.8 L15.85 -118.7 L14.03 -119.7 L12.21 -120.6 L12.22 -122.7 L12.23 -124.7 L12.24 -126.7 L12.25 -128.7 L12.26 -130.7 L12.27 -132.7 L12.28 -134.7 L12.3 -136.7 L12.31 -138.7 L14.13 -137.8 L15.95 -136.8 L17.77 -135.8 L19.59 -134.9 L21.41 -133.9 L23.23 -132.9 L25.05 -132 L26.87 -131 L28.69 -130 L30.51 -129 L30.5 -127 L30.48 -125 L30.47 -123 L30.46 -121 L30.45 -119 L30.44 -117 L30.43 -115 L30.42 -113 L30.41 -111 Z " />
<path stroke="rgb(0,0,0)" stroke-opacity="1" fill="rgb(173,200,200)" fill-opacity="1" id="swap3_1_" d="M20.8 -133.9 L18.98 -134.9 L17.16 -135.8 L15.34 -136.8 L13.52 -137.7 L11.7 -138.7 L9.88 -139.7 L8.06 -140.6 L6.24 -141.6 L4.42 -142.5 L2.6 -143.5 L2.611 -145.5 L2.622 -147.5 L2.633 -149.5 L2.644 -151.5 L2.656 -153.5 L2.667 -155.6 L2.678 -157.6 L2.689 -159.6 L2.7 -161.6 L4.52 -160.6 L6.34 -159.7 L8.16 -158.7 L9.98 -157.8 L11.8 -156.8 L13.62 -155.8 L15.44 -154.9 L17.26 -153.9 L19.08 -153 L20.9 -152 L20.89 -150 L20.88 -148 L20.87 -146 L20.86 -143.9 L20.84 -141.9 L20.83 -139.9 L20.82 -137.9 L20.81 -135.9 L20.8 -133.9 Z " />
<path stroke="rgb(0,0,0)" stroke-opacity="1" fill="rgb(173,200,200)" fill-opacity="1" id="swap2_1_" d="M11.29 -120.8 L9.473 -121.7 L7.653 -122.7 L5.833 -123.6 L4.013 -124.6 L2.193 -125.6 L0.3735 -126.5 L-1.447 -127.5 L-3.267 -128.4 L-5.087 -129.4 L-6.907 -130.4 L-6.895 -132.4 L-6.884 -134.4 L-6.873 -136.4 L-6.862 -138.4 L-6.851 -140.4 L-6.84 -142.4 L-6.829 -144.4 L-6.818 -146.4 L-6.807 -148.5 L-4.977 -147.5 L-3.147 -146.5 L-1.317 -145.6 L0.5135 -144.6 L2.343 -143.7 L4.173 -142.7 L6.003 -141.7 L7.833 -140.8 L9.663 -139.8 L11.49 -138.9 L11.47 -136.8 L11.45 -134.8 L11.43 -132.8 L11.4 -130.8 L11.38 -128.8 L11.36 -126.8 L11.34 -124.8 L11.32 -122.8 L11.29 -120.8 Z " />
<path stroke="rgb(0,0,0)" stroke-opacity="1" fill="rgb(173,200,200)" fill-opacity="1" id="swap4_1_" d="M20.7 -98.21 L18.88 -99.19 L17.06 -100.2 L15.24 -101.1 L13.42 -102.1 L11.6 -103.1 L9.78 -104.1 L7.96 -105.1 L6.14 -106 L4.32 -107 L2.5 -108 L2.511 -110 L2.522 -112 L2.533 -114 L2.544 -116 L2.556 -118 L2.567 -120 L2.578 -122 L2.589 -124 L2.6 -126 L4.43 -125 L6.26 -124.1 L8.09 -123.1 L9.92 -122.1 L11.75 -121.2 L13.58 -120.2 L15.41 -119.2 L17.24 -118.2 L19.07 -117.3 L20.9 -116.3 L20.88 -114.3 L20.86 -112.3 L20.83 -110.3 L20.81 -108.3 L20.79 -106.3 L20.77 -104.2 L20.74 -102.2 L20.72 -100.2 L20.7 -98.21 Z " />
<path stroke="rgb(0,0,0)" stroke-opacity="1" fill="rgb(244,227,211)" fill-opacity="1" id="a10_5_" d="M40 -46.65 L38.24 -45.63 L36.48 -44.6 L34.71 -43.57 L32.95 -42.55 L31.19 -41.53 L29.42 -40.5 L27.66 -39.48 L25.9 -38.45 L24.14 -37.43 L22.37 -36.4 L20.61 -35.38 L18.85 -34.35 L17.09 -33.33 L15.32 -32.3 L13.56 -31.28 L11.8 -30.25 L10.04 -31.28 L8.275 -32.3 L6.512 -33.33 L4.75 -34.35 L2.987 -35.38 L1.225 -36.4 L-0.5375 -37.43 L-2.3 -38.45 L-4.063 -39.48 L-5.825 -40.5 L-7.587 -41.53 L-9.35 -42.55 L-11.11 -43.57 L-12.87 -44.6 L-14.64 -45.63 L-16.4 -46.65 L-14.64 -47.68 L-12.87 -48.7 L-11.11 -49.72 L-9.35 -50.75 L-7.587 -51.77 L-5.825 -52.8 L-4.063 -53.82 L-2.3 -54.85 L-0.5375 -55.87 L1.225 -56.9 L2.987 -57.92 L4.75 -58.95 L6.512 -59.97 L8.275 -61 L10.04 -62.02 L11.8 -63.05 L13.56 -62.02 L15.32 -61 L17.09 -59.97 L18.85 -58.95 L20.61 -57.92 L22.37 -56.9 L24.14 -55.87 L25.9 -54.85 L27.66 -53.82 L29.42 -52.8 L31.19 -51.77 L32.95 -50.75 L34.71 -49.72 L36.48 -48.7 L38.24 -47.68 L40 -46.65 Z " />
<path stroke="rgb(0,0,0)" stroke-opacity="1" fill="rgb(244,227,211)" fill-opacity="1" id="a10_4_" d="M40.5 -11.85 L40.5 -13.85 L40.5 -15.85 L40.5 -17.85 L40.5 -19.85 L40.5 -21.85 L40.5 -23.85 L40.5 -25.85 L40.5 -27.85 L40.5 -29.85 L40.5 -31.85 L40.5 -33.85 L40.5 -35.85 L40.5 -37.85 L40.5 -39.85 L40.5 -41.85 L40.5 -43.85 L40.5 -45.85 L38.74 -44.83 L36.98 -43.8 L35.21 -42.78 L33.45 -41.75 L31.69 -40.73 L29.92 -39.7 L28.16 -38.68 L26.4 -37.65 L24.64 -36.62 L22.87 -35.6 L21.11 -34.57 L19.35 -33.55 L17.59 -32.52 L15.82 -31.5 L14.06 -30.47 L12.3 -29.45 L12.3 -27.44 L12.3 -25.44 L12.3 -23.43 L12.3 -21.43 L12.3 -19.42 L12.3 -17.42 L12.3 -15.41 L12.3 -13.41 L12.3 -11.4 L12.3 -9.397 L12.3 -7.392 L12.3 -5.387 L12.3 -3.382 L12.3 -1.376 L12.3 0.6289 L12.3 2.634 L12.3 4.639 L12.3 6.645 L12.3 8.65 L13.96 7.444 L15.62 6.238 L17.28 5.032 L18.94 3.826 L20.59 2.621 L22.25 1.415 L23.91 0.2088 L25.57 -0.9971 L27.23 -2.203 L28.89 -3.409 L30.55 -4.615 L32.21 -5.821 L33.86 -7.026 L35.52 -8.232 L37.18 -9.438 L38.84 -10.64 L40.5 -11.85 Z " />
<path stroke="rgb(0,0,0)" stroke-opacity="1" fill="rgb(244,227,211)" fill-opacity="1" id="a10_3_" d="M-16.8 -45.85 L-16.8 -43.85 L-16.8 -41.85 L-16.8 -39.85 L-16.8 -37.85 L-16.8 -35.85 L-16.8 -33.85 L-16.8 -31.85 L-16.8 -29.85 L-16.8 -27.85 L-16.8 -25.85 L-16.8 -23.85 L-16.8 -21.85 L-16.8 -19.85 L-16.8 -17.85 L-16.8 -15.85 L-16.8 -13.85 L-16.8 -11.85 L-15.14 -10.64 L-13.48 -9.438 L-11.82 -8.232 L-10.16 -7.026 L-8.506 -5.821 L-6.847 -4.615 L-5.188 -3.409 L-3.529 -2.203 L-1.871 -0.9971 L-0.2118 0.2088 L1.447 1.415 L3.106 2.621 L4.765 3.826 L6.424 5.032 L8.082 6.238 L9.741 7.444 L11.4 8.65 L11.4 6.645 L11.4 4.639 L11.4 2.634 L11.4 0.6289 L11.4 -1.376 L11.4 -3.382 L11.4 -5.387 L11.4 -7.392 L11.4 -9.397 L11.4 -11.4 L11.4 -13.41 L11.4 -15.41 L11.4 -17.42 L11.4 -19.42 L11.4 -21.43 L11.4 -23.43 L11.4 -25.44 L11.4 -27.44 L11.4 -29.45 L9.637 -30.47 L7.875 -31.5 L6.112 -32.52 L4.35 -33.55 L2.587 -34.57 L0.825 -35.6 L-0.9375 -36.62 L-2.7 -37.65 L-4.462 -38.68 L-6.225 -39.7 L-7.987 -40.73 L-9.75 -41.75 L-11.51 -42.78 L-13.27 -43.8 L-15.04 -44.83 L-16.8 -45.85 Z " />
<path stroke="rgb(0,0,0)" stroke-opacity="1" fill="rgb(200,200,200)" fill-opacity="1" id="circ1_5_" d="M-64.43 -13.41 L-66.01 -12.49 L-67.59 -11.57 L-69.17 -10.65 L-70.75 -9.732 L-72.33 -8.812 L-73.91 -9.732 L-75.49 -10.65 L-77.07 -11.57 L-78.65 -12.49 L-80.23 -13.41 L-78.65 -14.33 L-77.07 -15.25 L-75.49 -16.17 L-73.91 -17.09 L-72.33 -18.01 L-70.75 -17.09 L-69.17 -16.17 L-67.59 -15.25 L-66.01 -14.33 L-64.43 -13.41 Z " />
<path stroke="rgb(0,0,0)" stroke-opacity="1" fill="rgb(200,200,200)" fill-opacity="1" id="circ1_4_" d="M-64.33 -3.612 L-64.33 -5.512 L-64.33 -7.412 L-64.33 -9.312 L-64.33 -11.21 L-64.33 -13.11 L-65.91 -12.21 L-67.49 -11.31 L-69.07 -10.41 L-70.65 -9.512 L-72.23 -8.612 L-72.23 -6.472 L-72.23 -4.332 L-72.23 -2.192 L-72.23 -0.05223 L-72.23 2.088 L-70.65 0.9478 L-69.07 -0.1922 L-67.49 -1.332 L-65.91 -2.472 L-64.33 -3.612 Z " />
<path stroke="rgb(0,0,0)" stroke-opacity="1" fill="rgb(200,200,200)" fill-opacity="1" id="circ1_3_" d="M-80.43 -13.11 L-80.43 -11.21 L-80.43 -9.312 L-80.43 -7.412 L-80.43 -5.512 L-80.43 -3.612 L-78.85 -2.472 L-77.27 -1.332 L-75.69 -0.1922 L-74.11 0.9478 L-72.53 2.088 L-72.53 -0.05223 L-72.53 -2.192 L-72.53 -4.332 L-72.53 -6.472 L-72.53 -8.612 L-74.11 -9.512 L-75.69 -10.41 L-77.27 -11.31 L-78.85 -12.21 L-80.43 -13.11 Z " />
<path stroke="rgb(0,0,0)" stroke-opacity="1" fill="rgb(200,200,200)" fill-opacity="1" id="circ2_5_" d="M-96.67 -14.49 L-98.25 -13.57 L-99.83 -12.65 L-101.4 -11.73 L-103 -10.81 L-104.6 -9.888 L-106.1 -10.81 L-107.7 -11.73 L-109.3 -12.65 L-110.9 -13.57 L-112.5 -14.49 L-110.9 -15.39 L-109.3 -16.29 L-107.7 -17.19 L-106.1 -18.09 L-104.6 -18.99 L-103 -18.09 L-101.4 -17.19 L-99.83 -16.29 L-98.25 -15.39 L-96.67 -14.49 Z " />
<path stroke="rgb(0,0,0)" stroke-opacity="1" fill="rgb(200,200,200)" fill-opacity="1" id="circ2_4_" d="M-96.57 -4.688 L-96.57 -6.588 L-96.57 -8.488 L-96.57 -10.39 L-96.57 -12.29 L-96.57 -14.19 L-98.15 -13.27 L-99.73 -12.35 L-101.3 -11.43 L-102.9 -10.51 L-104.5 -9.588 L-104.5 -7.468 L-104.5 -5.348 L-104.5 -3.228 L-104.5 -1.108 L-104.5 1.012 L-102.9 -0.1278 L-101.3 -1.268 L-99.73 -2.408 L-98.15 -3.548 L-96.57 -4.688 Z " />
<path stroke="rgb(0,0,0)" stroke-opacity="1" fill="rgb(200,200,200)" fill-opacity="1" id="circ2_3_" d="M-112.7 -14.19 L-112.7 -12.29 L-112.7 -10.39 L-112.7 -8.488 L-112.7 -6.588 L-112.7 -4.688 L-111.1 -3.548 L-109.5 -2.408 L-107.9 -1.268 L-106.3 -0.1278 L-104.8 1.012 L-104.8 -1.108 L-104.8 -3.228 L-104.8 -5.348 L-104.8 -7.468 L-104.8 -9.588 L-106.3 -10.51 L-107.9 -11.43 L-109.5 -12.35 L-111.1 -13.27 L-112.7 -14.19 Z " />
<path stroke="rgb(0,0,0)" stroke-opacity="1" fill="rgb(148,200,200)" fill-opacity="1" id="bb1" d="M46.32 -57.8 L45.46 -56.01 L44.61 -54.21 L43.75 -52.41 L42.89 -50.62 L42.04 -48.82 L41.18 -47.02 L40.33 -45.23 L39.47 -43.43 L38.61 -41.64 L37.76 -39.84 L36.9 -38.04 L36.05 -36.25 L35.19 -34.45 L34.33 -32.65 L33.48 -30.86 L32.62 -29.06 L31.77 -27.26 L32.71 -25.46 L33.66 -23.66 L34.6 -21.85 L35.55 -20.05 L36.49 -18.25 L37.44 -16.45 L38.38 -14.64 L39.33 -12.84 L40.27 -11.04 L41.22 -9.234 L42.16 -7.432 L43.11 -5.629 L45.15 -5.608 L47.19 -5.588 L49.22 -5.568 L51.26 -5.547 L53.3 -5.527 L55.34 -5.507 L57.38 -5.486 L59.42 -5.466 L61.46 -5.446 L63.5 -5.425 L65.54 -5.405 L67.58 -5.385 L69.61 -5.364 L71.65 -5.344 L73.69 -5.324 L75.38 -6.439 L77.06 -7.555 L78.74 -8.671 L80.43 -9.787 L82.11 -10.9 L83.8 -12.02 L85.48 -13.13 L87.16 -14.25 L88.85 -15.37 L90.53 -16.48 L92.22 -17.6 L93.9 -18.71 L95.58 -19.83 L97.27 -20.95 L98.95 -22.06 L100.6 -23.18 L102.3 -24.29 L104 -25.41 L105.7 -26.53 L106.5 -28.32 L107.4 -30.12 L108.3 -31.91 L109.1 -33.71 L110 -35.51 L110.8 -37.3 L111.7 -39.1 L112.5 -40.9 L113.4 -42.69 L114.2 -44.49 L115.1 -46.29 L116 -48.08 L116.8 -49.88 L117.7 -51.68 L118.5 -53.47 L119.4 -55.27 L120.2 -57.07 L119.3 -58.89 L118.3 -60.71 L117.4 -62.53 L116.5 -64.34 L115.5 -66.16 L114.6 -67.98 L113.6 -69.8 L112.7 -71.62 L111.7 -73.44 L110.8 -75.26 L109.8 -77.08 L108.9 -78.9 L106.9 -78.92 L104.8 -78.94 L102.8 -78.96 L100.7 -78.98 L98.7 -79 L96.67 -79.02 L94.63 -79.04 L92.59 -79.06 L90.55 -79.08 L88.51 -79.1 L86.47 -79.12 L84.43 -79.14 L82.39 -79.16 L80.35 -79.18 L78.31 -79.21 L76.63 -78.08 L74.95 -76.95 L73.26 -75.83 L71.58 -74.7 L69.89 -73.57 L68.21 -72.45 L66.53 -71.32 L64.84 -70.19 L63.16 -69.07 L61.47 -67.94 L59.79 -66.82 L58.11 -65.69 L56.42 -64.56 L54.74 -63.44 L53.05 -62.31 L51.37 -61.18 L49.69 -60.06 L48 -58.93 L46.32 -57.8 Z " />
<path stroke="rgb(0,0,0)" stroke-opacity="1" fill="rgb(236,216,157)" fill-opacity="1" id="scltrs1" d="M-160.6 39.27 L-161.2 40.05 L-161.8 40.83 L-162.4 41.6 L-163 42.38 L-163.6 43.16 L-164.2 43.94 L-164.8 44.71 L-165.5 45.49 L-166.1 46.27 L-166.7 47.05 L-167.3 47.82 L-167.9 48.6 L-168.5 49.38 L-169.1 50.16 L-169.8 50.93 L-170.4 51.71 L-171 52.49 L-171.6 53.27 L-172.2 54.04 L-172.8 54.82 L-173.4 55.6 L-174 56.38 L-174.7 57.15 L-175.3 57.93 L-175.9 58.71 L-176.5 59.49 L-177.1 60.26 L-177.7 61.04 L-178.3 61.82 L-179 62.6 L-179.6 63.37 L-180.2 64.15 L-180.8 64.93 L-181.4 65.71 L-182 66.48 L-182.6 67.26 L-181.7 67.68 L-180.8 68.1 L-179.9 68.52 L-179 68.95 L-178.1 69.37 L-177.2 69.79 L-176.3 70.21 L-175.4 70.63 L-174.5 71.05 L-173.6 71.47 L-172.7 71.89 L-171.8 72.31 L-170.9 72.73 L-170 73.16 L-169.1 73.58 L-168.2 74 L-167.3 74.42 L-166.4 74.84 L-165.5 75.26 L-164.6 75.68 L-163.7 76.1 L-162.8 76.52 L-161.9 76.94 L-161 77.37 L-160.1 77.79 L-159.2 78.21 L-158.3 78.63 L-157.4 79.05 L-156.5 79.47 L-155.6 79.89 L-154.7 80.31 L-153.8 80.73 L-152.9 81.16 L-152 81.58 L-151.1 82 L-150.2 82.42 L-149.3 82.84 L-148.4 83.26 L-147.5 83.68 L-146.6 84.1 L-145.7 84.52 L-144.8 84.94 L-143.9 85.37 L-143 85.79 L-142.1 86.21 L-141.2 86.63 L-140.3 87.05 L-139.4 87.47 L-138.5 87.89 L-138.9 86.97 L-139.3 86.06 L-139.7 85.14 L-140.1 84.22 L-140.6 83.3 L-141 82.39 L-141.4 81.47 L-141.8 80.55 L-142.2 79.64 L-142.6 78.72 L-143.1 77.8 L-143.5 76.88 L-143.9 75.97 L-144.3 75.05 L-144.7 74.13 L-145.1 73.21 L-145.6 72.3 L-146 71.38 L-146.4 70.46 L-146.8 69.54 L-147.2 68.63 L-147.6 67.71 L-148.1 66.79 L-148.5 65.87 L-148.9 64.96 L-149.3 64.04 L-149.7 63.12 L-150.1 62.21 L-150.6 61.29 L-151 60.37 L-151.4 59.45 L-151.8 58.54 L-152.2 57.62 L-152.6 56.7 L-153.1 55.78 L-153.5 54.87 L-153.9 53.95 L-154.3 53.03 L-154.7 52.11 L-155.1 51.2 L-155.6 50.28 L-156 49.36 L-156.4 48.44 L-156.8 47.53 L-157.2 46.61 L-157.6 45.69 L-158.1 44.78 L-158.5 43.86 L-158.9 42.94 L-159.3 42.02 L-159.7 41.11 L-160.1 40.19 L-160.6 39.27 Z " />
<path stroke="rgb(0,0,0)" stroke-opacity="1" fill="rgb(255,255,255)" fill-opacity="1" id="a5" d="M-62.4 134.3 L-62.51 136.7 L-62.82 138.8 L-63.33 140.8 L-64.03 142.7 L-64.92 144.4 L-65.97 145.8 L-67.18 147.2 L-68.54 148.3 L-70.05 149.2 L-71.69 150 L-73.45 150.5 L-75.33 150.8 L-77.32 150.9 L-79.4 150.9 L-81.57 150.5 L-83.81 150 L-86.13 149.2 L-88.5 148.2 L-90.29 147.4 L-92.04 146.4 L-93.76 145.3 L-95.43 144.1 L-97.07 142.8 L-98.65 141.5 L-100.2 140.1 L-101.7 138.6 L-103.1 137 L-104.4 135.4 L-105.7 133.7 L-107 132 L-108.1 130.3 L-109.2 128.5 L-110.1 126.7 L-111 124.9 L-111.8 123 L-112.5 121.2 L-113.2 119.3 L-113.7 117.4 L-114.1 115.6 L-114.4 113.7 L-114.5 111.9 L-114.6 110 L-114.5 107.7 L-114.2 105.6 L-113.7 103.6 L-113 101.7 L-112.1 100 L-111 98.56 L-109.8 97.25 L-108.5 96.12 L-107 95.19 L-105.3 94.45 L-103.5 93.91 L-101.7 93.58 L-99.68 93.45 L-97.6 93.54 L-95.43 93.85 L-93.19 94.39 L-90.87 95.15 L-88.5 96.15 L-86.71 97.04 L-84.96 98.03 L-83.24 99.12 L-81.57 100.3 L-79.93 101.6 L-78.35 102.9 L-76.81 104.3 L-75.33 105.8 L-73.91 107.4 L-72.56 109 L-71.27 110.7 L-70.05 112.4 L-68.91 114.1 L-67.84 115.9 L-66.86 117.7 L-65.97 119.5 L-65.16 121.4 L-64.45 123.2 L-63.84 125.1 L-63.33 127 L-62.93 128.8 L-62.64 130.7 L-62.46 132.5 L-62.4 134.3 Z " />
<path stroke="rgb(0,0,0)" stroke-opacity="1" fill="rgb(255,255,255)" fill-opacity="1" id="a17" d="M-96 -128.5 L-97.21 -127 L-98.42 -125.5 L-99.62 -124 L-100.8 -122.4 L-102 -120.9 L-103.2 -119.4 L-104.5 -117.8 L-105.7 -116.3 L-106.9 -114.8 L-108.1 -113.2 L-109.3 -111.7 L-110.5 -110.2 L-111.7 -108.7 L-109.9 -107.8 L-108 -106.9 L-106.2 -106.1 L-104.3 -105.2 L-102.5 -104.3 L-100.6 -103.5 L-98.77 -102.6 L-96.92 -101.7 L-95.08 -100.9 L-93.23 -100 L-91.38 -99.14 L-89.54 -98.27 L-87.69 -97.41 L-85.84 -96.54 L-83.99 -95.68 L-82.15 -94.81 L-80.3 -93.95 L-81.13 -95.77 L-81.95 -97.59 L-82.78 -99.41 L-83.61 -101.2 L-84.43 -103.1 L-85.26 -104.9 L-86.08 -106.7 L-86.91 -108.5 L-87.74 -110.3 L-88.56 -112.2 L-89.39 -114 L-90.22 -115.8 L-91.04 -117.6 L-91.87 -119.4 L-92.69 -121.3 L-93.52 -123.1 L-94.35 -124.9 L-95.17 -126.7 L-96 -128.5 Z " />
<path stroke="rgb(0,0,0)" stroke-opacity="1" fill="rgb(255,255,255)" fill-opacity="1" id="a16" d="M-96 -70.95 L-94.79 -72.48 L-93.58 -74.01 L-92.38 -75.54 L-91.17 -77.07 L-89.96 -78.6 L-88.75 -80.13 L-87.55 -81.67 L-86.34 -83.2 L-85.13 -84.73 L-83.92 -86.26 L-82.72 -87.79 L-81.51 -89.32 L-80.3 -90.85 L-82.15 -91.71 L-83.99 -92.57 L-85.84 -93.43 L-87.69 -94.29 L-89.54 -95.14 L-91.38 -96 L-93.23 -96.86 L-95.08 -97.72 L-96.92 -98.58 L-98.77 -99.44 L-100.6 -100.3 L-102.5 -101.2 L-104.3 -102 L-106.2 -102.9 L-108 -103.7 L-109.9 -104.6 L-111.7 -105.5 L-110.9 -103.6 L-110 -101.8 L-109.2 -100 L-108.4 -98.19 L-107.6 -96.37 L-106.7 -94.56 L-105.9 -92.74 L-105.1 -90.92 L-104.3 -89.11 L-103.4 -87.29 L-102.6 -85.48 L-101.8 -83.66 L-101 -81.84 L-100.1 -80.03 L-99.31 -78.21 L-98.48 -76.4 L-97.65 -74.58 L-96.83 -72.77 L-96 -70.95 Z " />
<path stroke="rgb(0,0,0)" stroke-opacity="1" fill="rgb(173,200,200)" fill-opacity="1" id="swap2" d="M-49.51 -63.15 L-49.76 -61.03 L-50.48 -59.32 L-51.62 -58.05 L-53.12 -57.25 L-54.92 -56.94 L-56.97 -57.17 L-59.21 -57.95 L-60.96 -58.92 L-62.61 -60.14 L-64.12 -61.57 L-65.47 -63.16 L-66.64 -64.87 L-67.59 -66.67 L-68.3 -68.51 L-68.75 -70.35 L-68.91 -72.15 L-68.65 -74.24 L-67.93 -75.94 L-66.79 -77.21 L-65.29 -78.02 L-63.49 -78.34 L-61.44 -78.13 L-59.21 -77.35 L-57.45 -76.38 L-55.8 -75.17 L-54.29 -73.76 L-52.94 -72.18 L-51.77 -70.47 L-50.82 -68.68 L-50.11 -66.83 L-49.66 -64.98 L-49.51 -63.15 Z " />
<path stroke="rgb(0,0,0)" stroke-opacity="1" fill="rgb(173,200,200)" fill-opacity="1" id="swap4" d="M-33.4 -40.81 L-33.65 -38.69 L-34.38 -36.98 L-35.52 -35.7 L-37.02 -34.9 L-38.82 -34.6 L-40.86 -34.82 L-43.1 -35.61 L-44.85 -36.58 L-46.5 -37.8 L-48.01 -39.22 L-49.37 -40.81 L-50.53 -42.53 L-51.49 -44.32 L-52.2 -46.16 L-52.65 -48.01 L-52.8 -49.81 L-52.55 -51.93 L-51.82 -53.64 L-50.68 -54.91 L-49.18 -55.71 L-47.38 -56.01 L-45.34 -55.79 L-43.1 -55.01 L-41.35 -54.04 L-39.7 -52.83 L-38.19 -51.41 L-36.83 -49.83 L-35.67 -48.13 L-34.71 -46.33 L-34 -44.49 L-33.55 -42.63 L-33.4 -40.81 Z " />
<path stroke="rgb(0,0,0)" stroke-opacity="1" fill="rgb(173,200,200)" fill-opacity="1" id="swap3" d="M-33.4 -69.49 L-33.65 -67.37 L-34.38 -65.66 L-35.52 -64.39 L-37.02 -63.59 L-38.82 -63.29 L-40.86 -63.51 L-43.1 -64.29 L-44.85 -65.27 L-46.5 -66.48 L-48.01 -67.91 L-49.37 -69.5 L-50.53 -71.21 L-51.49 -73.01 L-52.2 -74.85 L-52.65 -76.69 L-52.8 -78.49 L-52.55 -80.58 L-51.82 -82.28 L-50.68 -83.55 L-49.18 -84.37 L-47.38 -84.68 L-45.34 -84.47 L-43.1 -83.69 L-41.35 -82.73 L-39.7 -81.52 L-38.19 -80.1 L-36.83 -78.52 L-35.67 -76.82 L-34.71 -75.02 L-34 -73.18 L-33.55 -71.32 L-33.4 -69.49 Z " />
<path stroke="rgb(0,0,0)" stroke-opacity="1" fill="rgb(173,200,200)" fill-opacity="1" id="swap1" d="M-16.89 -48.15 L-17.15 -46.03 L-17.87 -44.32 L-19.01 -43.05 L-20.51 -42.25 L-22.31 -41.94 L-24.36 -42.17 L-26.59 -42.95 L-28.35 -43.92 L-30 -45.14 L-31.51 -46.56 L-32.86 -48.15 L-34.03 -49.87 L-34.98 -51.67 L-35.69 -53.51 L-36.14 -55.35 L-36.29 -57.15 L-36.04 -59.24 L-35.32 -60.93 L-34.18 -62.21 L-32.68 -63.02 L-30.88 -63.34 L-28.83 -63.13 L-26.59 -62.35 L-24.84 -61.38 L-23.19 -60.16 L-21.68 -58.73 L-20.33 -57.14 L-19.16 -55.43 L-18.21 -53.63 L-17.5 -51.79 L-17.05 -49.95 L-16.89 -48.15 Z " />
<path stroke="rgb(0,0,0)" stroke-opacity="1" fill="rgb(255,255,255)" fill-opacity="1" id="secscl1" d="M-3.117 123.1 L-4.306 122.5 L-5.496 121.9 L-6.685 121.4 L-7.874 120.8 L-9.064 120.3 L-10.25 119.7 L-11.44 119.2 L-12.63 118.6 L-13.82 118.1 L-15.01 117.5 L-16.2 117 L-17.39 116.4 L-18.58 115.9 L-19.77 115.3 L-20.59 116.4 L-21.42 117.4 L-22.25 118.5 L-23.07 119.5 L-23.9 120.6 L-24.72 121.6 L-25.55 122.7 L-26.38 123.7 L-27.2 124.8 L-28.03 125.8 L-27.51 126.9 L-27 128.1 L-26.48 129.2 L-25.96 130.4 L-25.45 131.5 L-24.93 132.6 L-24.41 133.8 L-23.9 134.9 L-23.38 136 L-22.87 137.2 L-22.35 138.3 L-21.83 139.4 L-21.32 140.6 L-20.8 141.7 L-20.28 142.9 L-19.77 144 L-18.58 144.5 L-17.39 145.1 L-16.2 145.6 L-15.01 146.2 L-13.82 146.7 L-12.63 147.3 L-11.44 147.8 L-10.25 148.4 L-9.064 148.9 L-7.874 149.5 L-6.685 150 L-5.496 150.6 L-4.306 151.1 L-3.117 151.7 L-2.291 150.6 L-1.465 149.6 L-0.6387 148.5 L0.1874 147.5 L1.013 146.5 L1.84 145.4 L2.666 144.4 L3.492 143.3 L4.318 142.3 L5.144 141.2 L4.628 140.1 L4.111 139 L3.595 137.8 L3.079 136.7 L2.562 135.6 L2.046 134.4 L1.53 133.3 L1.013 132.1 L0.4972 131 L-0.01916 129.9 L-0.5355 128.7 L-1.052 127.6 L-1.568 126.5 L-2.084 125.3 L-2.601 124.2 L-3.117 123.1 Z " />
</g>
</g>
</svg>
