<!DOCTYPE svg>
<svg xmlns="http://www.w3.org/2000/svg" xmlns:xlink="http://www.w3.org/1999/xlink" width="1080" height="1080">
<g transform="translate(540.000000,540.000000)">
<g transform="scale(2,2)">
<path stroke="rgb(0,0,0)" stroke-opacity="1" fill="rgb(148,200,200)" fill-opacity="1" id="bb1_2_" d="M-94.22 -53.68 L-94.96 -51.84 L-95.71 -50 L-96.46 -48.16 L-97.21 -46.31 L-97.95 -44.47 L-98.7 -42.63 L-99.45 -40.79 L-100.2 -38.95 L-100.9 -37.11 L-101.7 -35.27 L-102.4 -33.43 L-103.2 -31.59 L-103.9 -29.75 L-104.7 -27.91 L-105.4 -26.07 L-106.2 -24.23 L-106.9 -22.39 L-107.7 -20.55 L-108.4 -18.71 L-109.2 -16.87 L-109.9 -15.03 L-110.7 -13.18 L-111.4 -11.34 L-112.2 -9.504 L-112.9 -7.663 L-113.7 -5.823 L-114.4 -3.982 L-115.2 -2.141 L-115.9 -0.3009 L-117.9 -0.2436 L-119.9 -0.1863 L-121.9 -0.129 L-123.9 -0.07163 L-125.9 -0.0143 L-127.9 0.04302 L-130 0.1003 L-132 0.1577 L-134 0.215 L-136 0.2723 L-138 0.3297 L-140 0.387 L-142 0.4443 L-144 0.5016 L-146 0.559 L-148 0.6163 L-150 0.6736 L-152 0.7309 L-154 0.7883 L-156 0.8456 L-158 0.9029 L-160 0.9602 L-162.1 1.018 L-164.1 1.075 L-166.1 1.132 L-168.1 1.19 L-170.1 1.247 L-169.3 -0.5937 L-168.6 -2.434 L-167.8 -4.275 L-167.1 -6.115 L-166.3 -7.956 L-165.6 -9.796 L-164.8 -11.64 L-164.1 -13.48 L-163.4 -15.32 L-162.6 -17.16 L-161.9 -19 L-161.1 -20.84 L-160.4 -22.68 L-159.6 -24.52 L-158.9 -26.36 L-158.1 -28.2 L-157.4 -30.04 L-156.6 -31.88 L-155.9 -33.72 L-155.1 -35.56 L-154.4 -37.4 L-153.6 -39.25 L-152.9 -41.09 L-152.1 -42.93 L-151.4 -44.77 L-150.6 -46.61 L-149.9 -48.45 L-149.1 -50.29 L-148.4 -52.13 L-146.4 -52.19 L-144.4 -52.24 L-142.4 -52.3 L-140.4 -52.36 L-138.4 -52.42 L-136.4 -52.47 L-134.3 -52.53 L-132.3 -52.59 L-130.3 -52.64 L-128.3 -52.7 L-126.3 -52.76 L-124.3 -52.82 L-122.3 -52.87 L-120.3 -52.93 L-118.3 -52.99 L-116.3 -53.05 L-114.3 -53.1 L-112.3 -53.16 L-110.3 -53.22 L-108.3 -53.28 L-106.3 -53.33 L-104.2 -53.39 L-102.2 -53.45 L-100.2 -53.5 L-98.23 -53.56 L-96.22 -53.62 L-94.22 -53.68 Z " />
<path stroke="rgb(0,0,0)" stroke-opacity="1" fill="rgb(236,216,157)" fill-opacity="1" id="pr2_1_" d="M67.99 97.65 L67.46 97.37 L66.93 97.1 L66.39 96.83 L65.86 96.56 L65.33 96.29 L64.79 96.01 L64.26 95.74 L63.73 95.47 L63.74 94.89 L63.74 94.3 L63.75 93.72 L63.76 93.14 L63.77 92.55 L63.78 91.97 L63.79 91.39 L64.32 91.65 L64.85 91.92 L65.38 92.19 L65.9 92.46 L66.43 92.73 L66.96 93 L67.49 93.26 L68.02 93.53 L68.02 94.12 L68.01 94.71 L68.01 95.3 L68 95.88 L68 96.47 L68 97.06 L67.99 97.65 Z " />
<path stroke="rgb(0,0,0)" stroke-opacity="1" fill="rgb(236,216,157)" fill-opacity="1" id="pr1_1_" d="M54.92 96.08 L53.16 95.17 L51.41 94.27 L49.65 93.37 L47.9 92.47 L46.14 91.56 L44.39 90.66 L42.64 89.76 L40.88 88.86 L40.9 86.92 L40.91 84.99 L40.92 83.06 L40.94 81.12 L40.95 79.19 L40.97 77.26 L40.98 75.32 L42.74 76.22 L44.49 77.13 L46.24 78.03 L48 78.93 L49.75 79.83 L51.51 80.74 L53.26 81.64 L55.02 82.54 L55 84.47 L54.99 86.41 L54.97 88.34 L54.96 90.28 L54.95 92.21 L54.93 94.14 L54.92 96.08 Z " />
<path stroke="rgb(0,0,0)" stroke-opacity="1" fill="rgb(236,216,157)" fill-opacity="1" id="pr3_1_" d="M54.6 113.6 L52.85 112.7 L51.1 111.8 L49.35 110.9 L47.6 110 L45.85 109.1 L44.1 108.1 L42.35 107.2 L40.6 106.3 L40.61 104.4 L40.63 102.5 L40.64 100.6 L40.66 98.64 L40.67 96.71 L40.69 94.78 L40.7 92.85 L42.45 93.75 L44.2 94.65 L45.95 95.55 L47.7 96.45 L49.45 97.35 L51.2 98.25 L52.95 99.15 L54.7 100.1 L54.69 102 L54.67 103.9 L54.66 105.8 L54.64 107.8 L54.63 109.7 L54.61 111.6 L54.6 113.6 Z " />
<path stroke="rgb(0,0,0)" stroke-opacity="1" fill="rgb(236,216,157)" fill-opacity="1" id="pr4_1_" d="M72.3 121.7 L70.54 120.9 L68.77 120 L67.01 119.1 L65.25 118.2 L63.49 117.3 L61.73 116.4 L59.96 115.5 L58.2 114.6 L58.21 112.7 L58.23 110.8 L58.24 108.9 L58.26 106.9 L58.27 105 L58.29 103.1 L58.3 101.1 L60.06 102 L61.82 102.9 L63.59 103.8 L65.35 104.7 L67.11 105.6 L68.87 106.5 L70.64 107.4 L72.4 108.2 L72.39 110.2 L72.37 112.1 L72.36 114 L72.34 116 L72.33 117.9 L72.31 119.8 L72.3 121.7 Z " />
<path stroke="rgb(0,0,0)" stroke-opacity="1" fill="rgb(238,200,200)" fill-opacity="1" id="ll1_1_" d="M189.7 159.4 L186.8 158 L183.9 156.7 L180.9 155.3 L178 153.9 L175 152.5 L172.1 151.2 L169.2 149.8 L166.2 148.4 L163.3 147 L160.3 145.7 L157.4 144.3 L154.4 142.9 L151.5 141.5 L148.6 140.2 L145.6 138.8 L142.7 137.4 L142.7 134.1 L142.7 130.9 L142.7 127.6 L142.7 124.3 L142.7 121 L142.7 117.7 L142.7 114.4 L142.7 111.2 L142.7 107.9 L142.7 104.6 L142.7 101.3 L142.7 98.04 L142.7 94.76 L142.7 91.48 L145.6 92.86 L148.6 94.25 L151.5 95.63 L154.4 97.02 L157.4 98.4 L160.3 99.79 L163.3 101.2 L166.2 102.6 L169.2 103.9 L172.1 105.3 L175 106.7 L178 108.1 L180.9 109.5 L183.9 110.9 L186.8 112.3 L189.7 113.6 L189.7 116.9 L189.7 120.2 L189.7 123.4 L189.7 126.7 L189.7 130 L189.7 133.3 L189.7 136.5 L189.7 139.8 L189.7 143.1 L189.7 146.3 L189.7 149.6 L189.7 152.9 L189.7 156.1 L189.7 159.4 Z " />
<path stroke="rgb(0,0,0)" stroke-opacity="1" fill="rgb(255,255,255)" fill-opacity="1" id="cl1_1_" d="M37.96 97.76 L37.06 99.56 L36.15 101.4 L35.25 103.2 L34.35 105 L33.45 106.8 L32.55 108.6 L31.65 110.4 L30.75 112.2 L29.85 114 L28.95 115.8 L28.04 117.6 L27.14 119.4 L26.24 121.2 L25.34 123 L24.44 124.8 L22.35 124.9 L23.27 123.1 L24.2 121.3 L25.12 119.5 L26.04 117.7 L26.96 115.9 L27.88 114.1 L28.8 112.3 L29.72 110.5 L30.64 108.7 L31.56 106.9 L32.48 105.1 L33.4 103.3 L34.33 101.5 L35.25 99.66 L36.17 97.86 L37.96 97.76 Z " />
<path stroke="rgb(0,0,0)" stroke-opacity="1" fill="rgb(255,255,255)" fill-opacity="1" id="a5_2_" d="M206 -50.75 L204.1 -51.59 L202.2 -52.44 L200.3 -53.28 L198.5 -54.12 L196.6 -54.96 L194.7 -55.81 L192.8 -56.65 L190.9 -57.49 L189 -58.34 L187.1 -59.18 L185.3 -60.02 L183.4 -60.86 L181.5 -61.71 L179.6 -62.55 L179.6 -60.6 L179.6 -58.64 L179.6 -56.69 L179.6 -54.73 L179.6 -52.78 L179.6 -50.83 L179.6 -48.87 L179.6 -46.92 L179.6 -44.97 L179.6 -43.01 L179.6 -41.06 L179.6 -39.1 L179.6 -37.15 L181.5 -36.31 L183.4 -35.46 L185.3 -34.62 L187.1 -33.78 L189 -32.94 L190.9 -32.09 L192.8 -31.25 L194.7 -30.41 L196.6 -29.56 L198.5 -28.72 L200.3 -27.88 L202.2 -27.04 L204.1 -26.19 L206 -25.35 L206 -27.3 L206 -29.26 L206 -31.21 L206 -33.17 L206 -35.12 L206 -37.07 L206 -39.03 L206 -40.98 L206 -42.93 L206 -44.89 L206 -46.84 L206 -48.8 L206 -50.75 Z " />
<path stroke="rgb(0,0,0)" stroke-opacity="1" fill="rgb(255,255,255)" fill-opacity="1" id="a6_2_" d="M83.3 51.45 L81.52 50.62 L79.75 49.79 L77.97 48.96 L76.19 48.13 L74.42 47.3 L72.64 46.47 L70.86 45.64 L69.09 44.81 L67.31 43.99 L65.54 43.16 L63.76 42.33 L61.98 41.5 L60.21 40.67 L58.43 39.84 L56.65 39.01 L54.88 38.18 L53.1 37.35 L53.1 35.25 L53.1 33.15 L53.1 31.05 L53.1 28.95 L53.1 26.85 L53.1 24.75 L53.1 22.65 L53.1 20.55 L53.1 18.45 L53.1 16.35 L54.87 17.18 L56.64 18.01 L58.41 18.84 L60.18 19.67 L61.95 20.5 L63.72 21.33 L65.49 22.16 L67.26 22.99 L69.04 23.81 L70.81 24.64 L72.58 25.47 L74.35 26.3 L76.12 27.13 L77.89 27.96 L79.66 28.79 L81.43 29.62 L83.2 30.45 L83.21 32.36 L83.22 34.27 L83.23 36.18 L83.24 38.09 L83.25 40 L83.25 41.9 L83.26 43.81 L83.27 45.72 L83.28 47.63 L83.29 49.54 L83.3 51.45 Z " />
<path stroke="rgb(0,0,0)" stroke-opacity="1" fill="rgb(148,200,200)" fill-opacity="1" id="rtr1_2_" d="M62.95 -140.2 L64.64 -139 L66.33 -137.9 L68.01 -136.7 L69.7 -135.5 L71.39 -134.3 L73.08 -133.2 L72.72 -131.1 L72.36 -129 L72 -126.9 L71.65 -124.8 L71.29 -122.7 L69.58 -123.9 L67.88 -125 L66.18 -126.2 L64.47 -127.4 L62.77 -128.6 L61.07 -129.8 L61.44 -131.8 L61.82 -133.9 L62.2 -136 L62.57 -138.1 L62.95 -140.2 Z " />
<path stroke="rgb(0,0,0)" stroke-opacity="1" fill="rgb(238,200,200)" fill-opacity="1" id="sg1_2_" d="M74.08 119.9 L75.54 118.8 L77 117.7 L78.46 116.6 L79.92 115.5 L81.38 114.4 L82.84 113.3 L84.73 114.2 L86.61 115.1 L88.5 116 L90.39 116.9 L88.94 118 L87.48 119.2 L86.03 120.3 L84.58 121.4 L83.13 122.5 L81.68 123.7 L79.78 122.7 L77.88 121.8 L75.98 120.8 L74.08 119.9 Z " />
<path stroke="rgb(0,0,0)" stroke-opacity="1" fill="rgb(255,255,255)" fill-opacity="1" id="a12_2_" d="M-54.8 88.45 L-56.68 87.63 L-58.57 86.82 L-60.45 86 L-62.33 85.18 L-64.22 84.37 L-66.1 83.55 L-66.12 81.62 L-66.13 79.68 L-66.15 77.75 L-66.17 75.82 L-66.18 73.88 L-66.2 71.95 L-64.33 72.77 L-62.47 73.58 L-60.6 74.4 L-58.73 75.22 L-56.87 76.03 L-55 76.85 L-54.97 78.78 L-54.93 80.72 L-54.9 82.65 L-54.87 84.58 L-54.83 86.52 L-54.8 88.45 Z " />
<path stroke="rgb(0,0,0)" stroke-opacity="1" fill="rgb(255,255,255)" fill-opacity="1" id="secscl1_2_" d="M-31.75 25.86 L-32.69 25.41 L-33.63 24.96 L-34.57 24.51 L-35.51 24.06 L-36.45 23.62 L-37.4 23.17 L-38.34 22.72 L-39.28 22.27 L-39.28 21.26 L-39.28 20.24 L-39.28 19.23 L-39.28 18.21 L-39.28 17.2 L-39.28 16.19 L-39.28 15.17 L-39.28 14.16 L-39.28 13.14 L-39.28 12.13 L-39.28 11.11 L-39.28 10.1 L-39.28 9.086 L-39.28 8.072 L-39.28 7.057 L-39.28 6.043 L-39.28 5.029 L-39.28 4.014 L-39.28 3 L-39.28 1.986 L-39.28 0.9716 L-39.28 -0.04273 L-39.28 -1.057 L-39.28 -2.071 L-39.28 -3.086 L-39.28 -4.1 L-39.28 -5.114 L-39.28 -6.128 L-39.28 -7.143 L-39.28 -8.157 L-39.28 -9.171 L-39.28 -10.19 L-39.28 -11.2 L-39.28 -12.21 L-39.28 -13.23 L-39.28 -14.24 L-39.28 -15.26 L-39.28 -16.27 L-39.28 -17.29 L-39.28 -18.3 L-38.34 -17.85 L-37.4 -17.39 L-36.45 -16.94 L-35.51 -16.48 L-34.57 -16.03 L-33.63 -15.57 L-32.69 -15.12 L-31.75 -14.66 L-31.75 -13.65 L-31.75 -12.64 L-31.75 -11.62 L-31.75 -10.61 L-31.75 -9.598 L-31.75 -8.585 L-31.75 -7.572 L-31.75 -6.559 L-31.75 -5.546 L-31.75 -4.533 L-31.75 -3.52 L-31.75 -2.507 L-31.75 -1.494 L-31.75 -0.4807 L-31.75 0.5323 L-31.75 1.545 L-31.75 2.558 L-31.75 3.571 L-31.75 4.584 L-31.75 5.597 L-31.75 6.61 L-31.75 7.623 L-31.75 8.636 L-31.75 9.649 L-31.75 10.66 L-31.75 11.68 L-31.75 12.69 L-31.75 13.7 L-31.75 14.71 L-31.75 15.73 L-31.75 16.74 L-31.75 17.75 L-31.75 18.77 L-31.75 19.78 L-31.75 20.79 L-31.75 21.81 L-31.75 22.82 L-31.75 23.83 L-31.75 24.84 L-31.75 25.86 Z " />
<path stroke="rgb(0,0,0)" stroke-opacity="1" fill="rgb(255,255,255)" fill-opacity="1" id="a7_1_" d="M141.3 -84.25 L139.4 -85.05 L137.6 -85.85 L135.7 -86.65 L133.8 -87.45 L132 -88.25 L130.1 -89.05 L128.3 -89.85 L126.4 -90.65 L124.5 -91.45 L122.7 -92.25 L120.8 -93.05 L120.8 -95.03 L120.8 -97.02 L120.8 -99 L120.8 -101 L120.8 -103 L120.8 -105 L122.7 -104.1 L124.5 -103.3 L126.4 -102.5 L128.3 -101.7 L130.1 -100.9 L132 -100 L133.8 -99.22 L135.7 -98.4 L137.6 -97.59 L139.4 -96.77 L141.3 -95.95 L141.3 -94 L141.3 -92.05 L141.3 -90.1 L141.3 -88.15 L141.3 -86.2 L141.3 -84.25 Z " />
<path stroke="rgb(0,0,0)" stroke-opacity="1" fill="rgb(255,255,255)" fill-opacity="1" id="a8_1_" d="M141.2 -69.95 L139.3 -70.76 L137.5 -71.57 L135.6 -72.38 L133.7 -73.19 L131.9 -74 L130 -74.8 L128.2 -75.61 L126.3 -76.42 L124.4 -77.23 L122.6 -78.04 L120.7 -78.85 L120.7 -80.82 L120.7 -82.78 L120.7 -84.75 L120.7 -86.72 L120.7 -88.68 L120.7 -90.65 L122.6 -89.85 L124.4 -89.05 L126.3 -88.25 L128.2 -87.45 L130.1 -86.65 L131.9 -85.85 L133.8 -85.05 L135.7 -84.25 L137.6 -83.45 L139.4 -82.65 L141.3 -81.85 L141.3 -79.87 L141.3 -77.88 L141.2 -75.9 L141.2 -73.92 L141.2 -71.93 L141.2 -69.95 Z " />
<path stroke="rgb(0,0,0)" stroke-opacity="1" fill="rgb(255,255,255)" fill-opacity="1" id="a9_1_" d="M134.2 -61.55 L132.3 -62.35 L130.4 -63.15 L128.5 -63.95 L126.5 -64.75 L124.6 -65.55 L122.7 -66.35 L120.8 -67.15 L120.8 -68.95 L120.8 -70.75 L120.7 -72.55 L120.7 -74.35 L120.7 -76.15 L122.6 -75.34 L124.5 -74.52 L126.4 -73.71 L128.4 -72.89 L130.3 -72.08 L132.2 -71.26 L134.1 -70.45 L134.1 -68.23 L134.2 -66 L134.2 -63.77 L134.2 -61.55 Z " />
<path stroke="rgb(0,0,0)" stroke-opacity="1" fill="rgb(255,255,255)" fill-opacity="1" id="a17_1_" d="M34.5 62.65 L32.73 61.71 L30.95 60.78 L29.18 59.84 L27.41 58.9 L25.64 57.97 L23.86 57.03 L22.09 56.1 L20.32 55.16 L18.55 54.22 L16.77 53.29 L15 52.35 L15 50.33 L15 48.32 L15 46.3 L15 44.28 L15 42.27 L15 40.25 L16.77 41.19 L18.55 42.12 L20.32 43.06 L22.09 44 L23.86 44.93 L25.64 45.87 L27.41 46.8 L29.18 47.74 L30.95 48.68 L32.73 49.61 L34.5 50.55 L34.5 52.57 L34.5 54.58 L34.5 56.6 L34.5 58.62 L34.5 60.63 L34.5 62.65 Z " />
<path stroke="rgb(0,0,0)" stroke-opacity="1" fill="rgb(255,255,255)" fill-opacity="1" id="a16_1_" d="M34.5 79.85 L32.73 78.95 L30.95 78.05 L29.18 77.15 L27.41 76.25 L25.64 75.35 L23.86 74.45 L22.09 73.55 L20.32 72.65 L18.55 71.75 L16.77 70.85 L15 69.95 L15 67.98 L15 66.02 L15 64.05 L15 62.08 L15 60.12 L15 58.15 L16.77 59.05 L18.55 59.95 L20.32 60.85 L22.09 61.75 L23.86 62.65 L25.64 63.55 L27.41 64.45 L29.18 65.35 L30.95 66.25 L32.73 67.15 L34.5 68.05 L34.5 70.02 L34.5 71.98 L34.5 73.95 L34.5 75.92 L34.5 77.88 L34.5 79.85 Z " />
<path stroke="rgb(0,0,0)" stroke-opacity="1" fill="rgb(236,216,157)" fill-opacity="1" id="scltrs1_1_" d="M-31.24 49.71 L-32.22 49.2 L-33.21 48.68 L-34.2 48.16 L-35.18 47.65 L-36.17 47.13 L-37.16 46.62 L-38.14 46.1 L-38.14 44.97 L-38.14 43.85 L-38.14 42.73 L-38.14 41.6 L-38.14 40.48 L-38.14 39.35 L-37.16 39.87 L-36.17 40.39 L-35.18 40.9 L-34.2 41.42 L-33.21 41.94 L-32.22 42.45 L-31.24 42.97 L-31.24 44.09 L-31.24 45.22 L-31.24 46.34 L-31.24 47.47 L-31.24 48.59 L-31.24 49.71 Z " />
<path stroke="rgb(0,0,0)" stroke-opacity="1" fill="rgb(244,227,211)" fill-opacity="1" id="a15_1_" d="M119.3 1.25 L117.4 0.3875 L115.6 -0.475 L113.7 -1.338 L111.8 -2.2 L110 -3.063 L108.1 -3.925 L106.3 -4.788 L104.4 -5.65 L104.4 -7.57 L104.4 -9.49 L104.4 -11.41 L104.4 -13.33 L104.4 -15.25 L106.3 -14.38 L108.1 -13.5 L110 -12.63 L111.8 -11.75 L113.7 -10.88 L115.6 -10 L117.4 -9.125 L119.3 -8.25 L119.3 -6.35 L119.3 -4.45 L119.3 -2.55 L119.3 -0.65 L119.3 1.25 Z " />
<path stroke="rgb(0,0,0)" stroke-opacity="1" fill="rgb(244,227,211)" fill-opacity="1" id="a14_1_" d="M117.2 9.75 L115.4 8.893 L113.5 8.036 L111.7 7.179 L109.8 6.321 L108 5.464 L106.1 4.607 L104.3 3.75 L104.3 1.817 L104.4 -0.1167 L104.4 -2.05 L106.2 -1.164 L108.1 -0.2786 L109.9 0.6071 L111.7 1.493 L113.5 2.379 L115.4 3.264 L117.2 4.15 L117.2 6.017 L117.2 7.883 L117.2 9.75 Z " />
<path stroke="rgb(0,0,0)" stroke-opacity="1" fill="rgb(244,227,211)" fill-opacity="1" id="a13_1_" d="M115 29.65 L113.2 28.82 L111.4 27.98 L109.6 27.15 L107.9 26.32 L106.1 25.48 L104.3 24.65 L104.3 22.59 L104.3 20.52 L104.3 18.46 L104.3 16.4 L104.3 14.34 L104.3 12.27 L104.3 10.21 L104.3 8.15 L106.1 8.983 L107.9 9.817 L109.6 10.65 L111.4 11.48 L113.2 12.32 L115 13.15 L115 15.21 L115 17.27 L115 19.34 L115 21.4 L115 23.46 L115 25.52 L115 27.59 L115 29.65 Z " />
<path stroke="rgb(0,0,0)" stroke-opacity="1" fill="rgb(200,200,200)" fill-opacity="1" id="a1_2_" d="M-110.5 -73.45 L-112.2 -74.33 L-114 -75.2 L-115.7 -76.08 L-117.5 -76.96 L-119.2 -77.84 L-121 -78.71 L-122.7 -79.59 L-124.5 -80.47 L-126.2 -81.35 L-128 -82.22 L-129.8 -83.1 L-131.5 -83.98 L-133.3 -84.85 L-135 -85.73 L-136.8 -86.61 L-138.5 -87.49 L-140.3 -88.36 L-142 -89.24 L-143.8 -90.12 L-145.5 -91 L-147.3 -91.87 L-149 -92.75 L-149 -94.61 L-149 -96.47 L-149 -98.33 L-149 -100.2 L-149 -102 L-147.3 -101.2 L-145.5 -100.3 L-143.8 -99.4 L-142 -98.52 L-140.3 -97.64 L-138.5 -96.76 L-136.8 -95.88 L-135 -95 L-133.3 -94.11 L-131.5 -93.23 L-129.8 -92.35 L-128 -91.47 L-126.2 -90.59 L-124.5 -89.7 L-122.7 -88.82 L-121 -87.94 L-119.2 -87.06 L-117.5 -86.18 L-115.7 -85.3 L-114 -84.41 L-112.2 -83.53 L-110.5 -82.65 L-110.5 -80.81 L-110.5 -78.97 L-110.5 -77.13 L-110.5 -75.29 L-110.5 -73.45 Z " />
<path stroke="rgb(0,0,0)" stroke-opacity="1" fill="rgb(200,200,200)" fill-opacity="1" id="a4_2_" d="M-89.9 -108.2 L-91.69 -109 L-93.49 -109.9 L-95.28 -110.8 L-97.08 -111.7 L-98.87 -112.6 L-100.7 -113.5 L-102.5 -114.4 L-104.3 -115.3 L-106 -116.2 L-107.8 -117.1 L-109.6 -118 L-111.4 -118.9 L-113.2 -119.8 L-115 -120.7 L-116.8 -121.6 L-118.6 -122.5 L-120.4 -123.3 L-122.2 -124.2 L-124 -125.1 L-125.8 -126 L-127.6 -126.9 L-129.4 -127.8 L-131.2 -128.7 L-133 -129.6 L-134.7 -130.5 L-136.5 -131.4 L-138.3 -132.3 L-140.1 -133.2 L-141.9 -134.1 L-143.7 -135 L-145.5 -135.9 L-147.3 -136.8 L-149.1 -137.7 L-149.1 -139.7 L-149.1 -141.7 L-149.1 -143.7 L-149.1 -145.7 L-149.1 -147.7 L-149.1 -149.7 L-149.1 -151.8 L-147.3 -150.9 L-145.5 -150 L-143.7 -149.1 L-141.9 -148.2 L-140.1 -147.3 L-138.3 -146.4 L-136.5 -145.5 L-134.7 -144.6 L-133 -143.7 L-131.2 -142.8 L-129.4 -142 L-127.6 -141.1 L-125.8 -140.2 L-124 -139.3 L-122.2 -138.4 L-120.4 -137.5 L-118.6 -136.6 L-116.8 -135.7 L-115 -134.8 L-113.2 -133.9 L-111.4 -133 L-109.6 -132.2 L-107.8 -131.3 L-106 -130.4 L-104.3 -129.5 L-102.5 -128.6 L-100.7 -127.7 L-98.87 -126.8 L-97.08 -125.9 L-95.28 -125 L-93.49 -124.1 L-91.69 -123.2 L-89.9 -122.3 L-89.9 -120.3 L-89.9 -118.3 L-89.9 -116.3 L-89.9 -114.2 L-89.9 -112.2 L-89.9 -110.2 L-89.9 -108.2 Z " />
<path stroke="rgb(0,0,0)" stroke-opacity="1" fill="rgb(200,200,200)" fill-opacity="1" id="a2_1_" d="M-109.1 -87.55 L-110.9 -88.45 L-112.7 -89.36 L-114.6 -90.26 L-116.4 -91.17 L-118.2 -92.07 L-120 -92.98 L-121.8 -93.88 L-123.6 -94.79 L-125.5 -95.69 L-127.3 -96.6 L-129.1 -97.5 L-130.9 -98.4 L-132.7 -99.31 L-134.6 -100.2 L-136.4 -101.1 L-138.2 -102 L-140 -102.9 L-141.8 -103.8 L-143.6 -104.7 L-145.5 -105.6 L-147.3 -106.5 L-149.1 -107.5 L-149.1 -109.4 L-149.1 -111.3 L-149.1 -113.3 L-149.1 -115.2 L-149.1 -117.2 L-147.3 -116.2 L-145.5 -115.3 L-143.6 -114.4 L-141.8 -113.5 L-140 -112.6 L-138.2 -111.7 L-136.4 -110.8 L-134.6 -109.9 L-132.7 -109 L-130.9 -108.1 L-129.1 -107.2 L-127.3 -106.2 L-125.5 -105.3 L-123.6 -104.4 L-121.8 -103.5 L-120 -102.6 L-118.2 -101.7 L-116.4 -100.8 L-114.6 -99.88 L-112.7 -98.97 L-110.9 -98.06 L-109.1 -97.15 L-109.1 -95.23 L-109.1 -93.31 L-109.1 -91.39 L-109.1 -89.47 L-109.1 -87.55 Z " />
<path stroke="rgb(0,0,0)" stroke-opacity="1" fill="rgb(200,200,200)" fill-opacity="1" id="a3_1_" d="M-105.8 -101.2 L-107.6 -102 L-109.4 -102.9 L-111.2 -103.8 L-113 -104.7 L-114.8 -105.6 L-116.6 -106.5 L-118.4 -107.4 L-120.2 -108.3 L-122 -109.2 L-123.8 -110.1 L-125.6 -111 L-127.4 -111.8 L-129.3 -112.7 L-131.1 -113.6 L-132.9 -114.5 L-134.7 -115.4 L-136.5 -116.3 L-138.3 -117.2 L-140.1 -118.1 L-141.9 -119 L-143.7 -119.9 L-145.5 -120.8 L-147.3 -121.7 L-149.1 -122.5 L-149.1 -124.6 L-149.1 -126.7 L-149.1 -128.8 L-149.1 -130.9 L-149.1 -133 L-147.3 -132.1 L-145.5 -131.2 L-143.7 -130.3 L-141.9 -129.4 L-140.1 -128.5 L-138.3 -127.6 L-136.5 -126.7 L-134.7 -125.8 L-132.9 -124.9 L-131.1 -124 L-129.3 -123.1 L-127.4 -122.3 L-125.6 -121.4 L-123.8 -120.5 L-122 -119.6 L-120.2 -118.7 L-118.4 -117.8 L-116.6 -116.9 L-114.8 -116 L-113 -115.1 L-111.2 -114.2 L-109.4 -113.3 L-107.6 -112.4 L-105.8 -111.5 L-105.8 -109.5 L-105.8 -107.4 L-105.8 -105.3 L-105.8 -103.2 L-105.8 -101.2 Z " />
<path stroke="rgb(0,0,0)" stroke-opacity="1" fill="rgb(244,227,211)" fill-opacity="1" id="a11_1_" d="M-15.3 70.85 L-17.12 70.04 L-18.94 69.23 L-20.76 68.42 L-22.57 67.61 L-24.39 66.79 L-26.21 65.98 L-28.03 65.17 L-29.85 64.36 L-31.67 63.55 L-33.49 62.74 L-35.3 61.93 L-37.12 61.12 L-38.94 60.31 L-40.76 59.49 L-42.58 58.68 L-44.4 57.87 L-46.21 57.06 L-48.03 56.25 L-49.85 55.44 L-51.67 54.63 L-53.49 53.82 L-55.31 53.01 L-57.13 52.19 L-58.94 51.38 L-60.76 50.57 L-62.58 49.76 L-64.4 48.95 L-64.45 47 L-64.5 45.05 L-62.68 45.86 L-60.86 46.68 L-59.04 47.49 L-57.23 48.31 L-55.41 49.12 L-53.59 49.94 L-51.77 50.75 L-49.95 51.57 L-48.13 52.38 L-46.31 53.2 L-44.5 54.01 L-42.68 54.83 L-40.86 55.64 L-39.04 56.46 L-37.22 57.27 L-35.4 58.09 L-33.59 58.9 L-31.77 59.72 L-29.95 60.53 L-28.13 61.35 L-26.31 62.16 L-24.49 62.98 L-22.67 63.79 L-20.86 64.61 L-19.04 65.42 L-17.22 66.24 L-15.4 67.05 L-15.35 68.95 L-15.3 70.85 Z " />
<path stroke="rgb(0,0,0)" stroke-opacity="1" fill="rgb(244,200,200)" fill-opacity="1" id="fus1_1_" d="M-100.5 51.95 L-102.3 51.19 L-104.1 50.43 L-105.9 49.67 L-107.7 48.91 L-109.5 48.15 L-109.5 46.29 L-109.5 44.43 L-109.5 42.57 L-109.5 40.71 L-109.5 38.85 L-107.7 39.61 L-105.9 40.37 L-104.1 41.13 L-102.3 41.89 L-100.5 42.65 L-100.5 44.51 L-100.5 46.37 L-100.5 48.23 L-100.5 50.09 L-100.5 51.95 Z " />
<path stroke="rgb(0,0,0)" stroke-opacity="1" fill="rgb(244,200,200)" fill-opacity="1" id="fus2_1_" d="M-92.04 56.49 L-93.84 55.71 L-95.64 54.93 L-97.44 54.15 L-99.24 53.37 L-101 52.59 L-101 50.71 L-101 48.83 L-100.9 46.95 L-100.9 45.07 L-100.8 43.19 L-99.08 43.95 L-97.32 44.71 L-95.56 45.47 L-93.8 46.23 L-92.04 46.99 L-92.04 48.89 L-92.04 50.79 L-92.04 52.69 L-92.04 54.59 L-92.04 56.49 Z " />
<path stroke="rgb(0,0,0)" stroke-opacity="1" fill="rgb(244,200,200)" fill-opacity="1" id="fus3_1_" d="M-95.6 56.45 L-97.38 55.69 L-99.16 54.93 L-100.9 54.17 L-102.7 53.41 L-104.5 52.65 L-104.5 50.79 L-104.5 48.93 L-104.5 47.07 L-104.5 45.21 L-104.5 43.35 L-102.7 44.11 L-100.9 44.87 L-99.1 45.63 L-97.3 46.39 L-95.5 47.15 L-95.52 49.01 L-95.54 50.87 L-95.56 52.73 L-95.58 54.59 L-95.6 56.45 Z " />
<path stroke="rgb(0,0,0)" stroke-opacity="1" fill="rgb(244,200,200)" fill-opacity="1" id="fus4_1_" d="M-96.5 60.45 L-98.3 59.67 L-100.1 58.89 L-101.9 58.11 L-103.7 57.33 L-105.5 56.55 L-105.5 54.69 L-105.5 52.83 L-105.5 50.97 L-105.5 49.11 L-105.5 47.25 L-103.7 48.03 L-101.9 48.81 L-100.1 49.59 L-98.3 50.37 L-96.5 51.15 L-96.5 53.01 L-96.5 54.87 L-96.5 56.73 L-96.5 58.59 L-96.5 60.45 Z " />
<path stroke="rgb(0,0,0)" stroke-opacity="1" fill="rgb(173,200,200)" fill-opacity="1" id="swap1_1_" d="M30.86 -110.9 L29.04 -111.9 L27.22 -112.9 L25.4 -113.8 L23.58 -114.8 L21.76 -115.7 L19.94 -116.7 L18.12 -117.7 L16.3 -118.6 L14.48 -119.6 L12.66 -120.5 L12.68 -122.5 L12.69 -124.6 L12.7 -126.6 L12.71 -128.6 L12.72 -130.6 L12.73 -132.6 L12.74 -134.6 L12.75 -136.6 L12.76 -138.6 L14.58 -137.7 L16.4 -136.7 L18.22 -135.7 L20.04 -134.8 L21.86 -133.8 L23.68 -132.8 L25.5 -131.8 L27.32 -130.9 L29.14 -129.9 L30.96 -128.9 L30.95 -126.9 L30.94 -124.9 L30.93 -122.9 L30.92 -120.9 L30.91 -118.9 L30.9 -116.9 L30.89 -114.9 L30.88 -112.9 L30.86 -110.9 Z " />
<path stroke="rgb(0,0,0)" stroke-opacity="1" fill="rgb(173,200,200)" fill-opacity="1" id="swap3_1_" d="M20.8 -133.5 L18.98 -134.5 L17.16 -135.4 L15.34 -136.4 L13.52 -137.3 L11.7 -138.3 L9.88 -139.3 L8.06 -140.2 L6.24 -141.2 L4.42 -142.1 L2.6 -143.1 L2.611 -145.1 L2.622 -147.1 L2.633 -149.1 L2.644 -151.1 L2.656 -153.1 L2.667 -155.2 L2.678 -157.2 L2.689 -159.2 L2.7 -161.2 L4.52 -160.2 L6.34 -159.3 L8.16 -158.3 L9.98 -157.4 L11.8 -156.4 L13.62 -155.4 L15.44 -154.5 L17.26 -153.5 L19.08 -152.6 L20.9 -151.6 L20.89 -149.6 L20.88 -147.6 L20.87 -145.6 L20.86 -143.5 L20.84 -141.5 L20.83 -139.5 L20.82 -137.5 L20.81 -135.5 L20.8 -133.5 Z " />
<path stroke="rgb(0,0,0)" stroke-opacity="1" fill="rgb(173,200,200)" fill-opacity="1" id="swap2_1_" d="M10.84 -120.9 L9.016 -121.8 L7.196 -122.8 L5.376 -123.7 L3.556 -124.7 L1.736 -125.7 L-0.08399 -126.6 L-1.904 -127.6 L-3.724 -128.5 L-5.544 -129.5 L-7.364 -130.5 L-7.353 -132.5 L-7.342 -134.5 L-7.331 -136.5 L-7.32 -138.5 L-7.308 -140.5 L-7.297 -142.5 L-7.286 -144.5 L-7.275 -146.6 L-7.264 -148.6 L-5.434 -147.6 L-3.604 -146.6 L-1.774 -145.7 L0.056 -144.7 L1.886 -143.8 L3.716 -142.8 L5.546 -141.8 L7.376 -140.9 L9.206 -139.9 L11.04 -139 L11.01 -137 L10.99 -134.9 L10.97 -132.9 L10.95 -130.9 L10.92 -128.9 L10.9 -126.9 L10.88 -124.9 L10.86 -122.9 L10.84 -120.9 Z " />
<path stroke="rgb(0,0,0)" stroke-opacity="1" fill="rgb(173,200,200)" fill-opacity="1" id="swap4_1_" d="M20.7 -98.61 L18.88 -99.59 L17.06 -100.6 L15.24 -101.5 L13.42 -102.5 L11.6 -103.5 L9.78 -104.5 L7.96 -105.5 L6.14 -106.4 L4.32 -107.4 L2.5 -108.4 L2.511 -110.4 L2.522 -112.4 L2.533 -114.4 L2.544 -116.4 L2.556 -118.4 L2.567 -120.4 L2.578 -122.4 L2.589 -124.4 L2.6 -126.4 L4.43 -125.4 L6.26 -124.5 L8.09 -123.5 L9.92 -122.5 L11.75 -121.6 L13.58 -120.6 L15.41 -119.6 L17.24 -118.6 L19.07 -117.7 L20.9 -116.7 L20.88 -114.7 L20.86 -112.7 L20.83 -110.7 L20.81 -108.7 L20.79 -106.7 L20.77 -104.6 L20.74 -102.6 L20.72 -100.6 L20.7 -98.61 Z " />
<path stroke="rgb(0,0,0)" stroke-opacity="1" fill="rgb(244,227,211)" fill-opacity="1" id="a10_5_" d="M40 -46.65 L38.24 -45.63 L36.48 -44.6 L34.71 -43.57 L32.95 -42.55 L31.19 -41.53 L29.42 -40.5 L27.66 -39.48 L25.9 -38.45 L24.14 -37.43 L22.37 -36.4 L20.61 -35.38 L18.85 -34.35 L17.09 -33.33 L15.32 -32.3 L13.56 -31.28 L11.8 -30.25 L10.04 -31.28 L8.275 -32.3 L6.512 -33.33 L4.75 -34.35 L2.987 -35.38 L1.225 -36.4 L-0.5375 -37.43 L-2.3 -38.45 L-4.063 -39.48 L-5.825 -40.5 L-7.587 -41.53 L-9.35 -42.55 L-11.11 -43.57 L-12.87 -44.6 L-14.64 -45.63 L-16.4 -46.65 L-14.64 -47.68 L-12.87 -48.7 L-11.11 -49.72 L-9.35 -50.75 L-7.587 -51.77 L-5.825 -52.8 L-4.063 -53.82 L-2.3 -54.85 L-0.5375 -55.87 L1.225 -56.9 L2.987 -57.92 L4.75 -58.95 L6.512 -59.97 L8.275 -61 L10.04 -62.02 L11.8 -63.05 L13.56 -62.02 L15.32 -61 L17.09 -59.97 L18.85 -58.95 L20.61 -57.92 L22.37 -56.9 L24.14 -55.87 L25.9 -54.85 L27.66 -53.82 L29.42 -52.8 L31.19 -51.77 L32.95 -50.75 L34.71 -49.72 L36.48 -48.7 L38.24 -47.68 L40 -46.65 Z " />
<path stroke="rgb(0,0,0)" stroke-opacity="1" fill="rgb(244,227,211)" fill-opacity="1" id="a10_4_" d="M40.5 -11.85 L40.5 -13.85 L40.5 -15.85 L40.5 -17.85 L40.5 -19.85 L40.5 -21.85 L40.5 -23.85 L40.5 -25.85 L40.5 -27.85 L40.5 -29.85 L40.5 -31.85 L40.5 -33.85 L40.5 -35.85 L40.5 -37.85 L40.5 -39.85 L40.5 -41.85 L40.5 -43.85 L40.5 -45.85 L38.74 -44.83 L36.98 -43.8 L35.21 -42.78 L33.45 -41.75 L31.69 -40.73 L29.92 -39.7 L28.16 -38.68 L26.4 -37.65 L24.64 -36.62 L22.87 -35.6 L21.11 -34.57 L19.35 -33.55 L17.59 -32.52 L15.82 -31.5 L14.06 -30.47 L12.3 -29.45 L12.3 -27.44 L12.3 -25.44 L12.3 -23.43 L12.3 -21.43 L12.3 -19.42 L12.3 -17.42 L12.3 -15.41 L12.3 -13.41 L12.3 -11.4 L12.3 -9.397 L12.3 -7.392 L12.3 -5.387 L12.3 -3.382 L12.3 -1.376 L12.3 0.6289 L12.3 2.634 L12.3 4.639 L12.3 6.645 L12.3 8.65 L13.96 7.444 L15.62 6.238 L17.28 5.032 L18.94 3.826 L20.59 2.621 L22.25 1.415 L23.91 0.2088 L25.57 -0.9971 L27.23 -2.203 L28.89 -3.409 L30.55 -4.615 L32.21 -5.821 L33.86 -7.026 L35.52 -8.232 L37.18 -9.438 L38.84 -10.64 L40.5 -11.85 Z " />
<path stroke="rgb(0,0,0)" stroke-opacity="1" fill="rgb(244,227,211)" fill-opacity="1" id="a10_3_" d="M-16.8 -45.85 L-16.8 -43.85 L-16.8 -41.85 L-16.8 -39.85 L-16.8 -37.85 L-16.8 -35.85 L-16.8 -33.85 L-16.8 -31.85 L-16.8 -29.85 L-16.8 -27.85 L-16.8 -25.85 L-16.8 -23.85 L-16.8 -21.85 L-16.8 -19.85 L-16.8 -17.85 L-16.8 -15.85 L-16.8 -13.85 L-16.8 -11.85 L-15.14 -10.64 L-13.48 -9.438 L-11.82 -8.232 L-10.16 -7.026 L-8.506 -5.821 L-6.847 -4.615 L-5.188 -3.409 L-3.529 -2.203 L-1.871 -0.9971 L-0.2118 0.2088 L1.447 1.415 L3.106 2.621 L4.765 3.826 L6.424 5.032 L8.082 6.238 L9.741 7.444 L11.4 8.65 L11.4 6.645 L11.4 4.639 L11.4 2.634 L11.4 0.6289 L11.4 -1.376 L11.4 -3.382 L11.4 -5.387 L11.4 -7.392 L11.4 -9.397 L11.4 -11.4 L11.4 -13.41 L11.4 -15.41 L11.4 -17.42 L11.4 -19.42 L11.4 -21.43 L11.4 -23.43 L11.4 -25.44 L11.4 -27.44 L11.4 -29.45 L9.637 -30.47 L7.875 -31.5 L6.112 -32.52 L4.35 -33.55 L2.587 -34.57 L0.825 -35.6 L-0.9375 -36.62 L-2.7 -37.65 L-4.462 -38.68 L-6.225 -39.7 L-7.987 -40.73 L-9.75 -41.75 L-11.51 -42.78 L-13.27 -43.8 L-15.04 -44.83 L-16.8 -45.85 Z " />
<path stroke="rgb(0,0,0)" stroke-opacity="1" fill="rgb(200,200,200)" fill-opacity="1" id="circ1_5_" d="M-62.5 -9.734 L-64.08 -8.814 L-65.66 -7.894 L-67.24 -6.974 L-68.82 -6.054 L-70.4 -5.134 L-71.98 -6.054 L-73.56 -6.974 L-75.14 -7.894 L-76.72 -8.814 L-78.3 -9.734 L-76.72 -10.65 L-75.14 -11.57 L-73.56 -12.49 L-71.98 -13.41 L-70.4 -14.33 L-68.82 -13.41 L-67.24 -12.49 L-65.66 -11.57 L-64.08 -10.65 L-62.5 -9.734 Z " />
<path stroke="rgb(0,0,0)" stroke-opacity="1" fill="rgb(200,200,200)" fill-opacity="1" id="circ1_4_" d="M-62.4 0.06599 L-62.4 -1.834 L-62.4 -3.734 L-62.4 -5.634 L-62.4 -7.534 L-62.4 -9.434 L-63.98 -8.534 L-65.56 -7.634 L-67.14 -6.734 L-68.72 -5.834 L-70.3 -4.934 L-70.3 -2.794 L-70.3 -0.654 L-70.3 1.486 L-70.3 3.626 L-70.3 5.766 L-68.72 4.626 L-67.14 3.486 L-65.56 2.346 L-63.98 1.206 L-62.4 0.06599 Z " />
<path stroke="rgb(0,0,0)" stroke-opacity="1" fill="rgb(200,200,200)" fill-opacity="1" id="circ1_3_" d="M-78.5 -9.434 L-78.5 -7.534 L-78.5 -5.634 L-78.5 -3.734 L-78.5 -1.834 L-78.5 0.06599 L-76.92 1.206 L-75.34 2.346 L-73.76 3.486 L-72.18 4.626 L-70.6 5.766 L-70.6 3.626 L-70.6 1.486 L-70.6 -0.654 L-70.6 -2.794 L-70.6 -4.934 L-72.18 -5.834 L-73.76 -6.734 L-75.34 -7.634 L-76.92 -8.534 L-78.5 -9.434 Z " />
<path stroke="rgb(0,0,0)" stroke-opacity="1" fill="rgb(200,200,200)" fill-opacity="1" id="circ2_5_" d="M-98.6 -18.17 L-100.2 -17.25 L-101.8 -16.33 L-103.3 -15.41 L-104.9 -14.49 L-106.5 -13.57 L-108.1 -14.49 L-109.7 -15.41 L-111.2 -16.33 L-112.8 -17.25 L-114.4 -18.17 L-112.8 -19.07 L-111.2 -19.97 L-109.7 -20.87 L-108.1 -21.77 L-106.5 -22.67 L-104.9 -21.77 L-103.3 -20.87 L-101.8 -19.97 L-100.2 -19.07 L-98.6 -18.17 Z " />
<path stroke="rgb(0,0,0)" stroke-opacity="1" fill="rgb(200,200,200)" fill-opacity="1" id="circ2_4_" d="M-98.5 -8.366 L-98.5 -10.27 L-98.5 -12.17 L-98.5 -14.07 L-98.5 -15.97 L-98.5 -17.87 L-100.1 -16.95 L-101.7 -16.03 L-103.2 -15.11 L-104.8 -14.19 L-106.4 -13.27 L-106.4 -11.15 L-106.4 -9.026 L-106.4 -6.906 L-106.4 -4.786 L-106.4 -2.666 L-104.8 -3.806 L-103.2 -4.946 L-101.7 -6.086 L-100.1 -7.226 L-98.5 -8.366 Z " />
<path stroke="rgb(0,0,0)" stroke-opacity="1" fill="rgb(200,200,200)" fill-opacity="1" id="circ2_3_" d="M-114.6 -17.87 L-114.6 -15.97 L-114.6 -14.07 L-114.6 -12.17 L-114.6 -10.27 L-114.6 -8.366 L-113 -7.226 L-111.4 -6.086 L-109.9 -4.946 L-108.3 -3.806 L-106.7 -2.666 L-106.7 -4.786 L-106.7 -6.906 L-106.7 -9.026 L-106.7 -11.15 L-106.7 -13.27 L-108.3 -14.19 L-109.9 -15.11 L-111.4 -16.03 L-113 -16.95 L-114.6 -17.87 Z " />
<path stroke="rgb(0,0,0)" stroke-opacity="1" fill="rgb(148,200,200)" fill-opacity="1" id="bb1" d="M45.85 -56.88 L45.05 -55.06 L44.25 -53.23 L43.45 -51.41 L42.65 -49.59 L41.85 -47.77 L41.05 -45.94 L40.25 -44.12 L39.45 -42.3 L38.65 -40.48 L37.85 -38.65 L37.05 -36.83 L36.25 -35.01 L35.45 -33.19 L34.66 -31.36 L33.86 -29.54 L33.06 -27.72 L32.26 -25.9 L33.26 -24.13 L34.26 -22.35 L35.26 -20.58 L36.26 -18.81 L37.26 -17.03 L38.26 -15.26 L39.26 -13.49 L40.26 -11.72 L41.26 -9.945 L42.27 -8.172 L43.27 -6.4 L44.27 -4.627 L46.31 -4.671 L48.34 -4.714 L50.38 -4.757 L52.42 -4.8 L54.46 -4.844 L56.5 -4.887 L58.54 -4.93 L60.58 -4.973 L62.62 -5.016 L64.65 -5.06 L66.69 -5.103 L68.73 -5.146 L70.77 -5.189 L72.81 -5.233 L74.85 -5.276 L76.5 -6.444 L78.14 -7.612 L79.79 -8.78 L81.44 -9.947 L83.09 -11.12 L84.74 -12.28 L86.39 -13.45 L88.03 -14.62 L89.68 -15.79 L91.33 -16.95 L92.98 -18.12 L94.63 -19.29 L96.28 -20.46 L97.92 -21.63 L99.57 -22.79 L101.2 -23.96 L102.9 -25.13 L104.5 -26.3 L106.2 -27.47 L107 -29.29 L107.8 -31.11 L108.6 -32.93 L109.4 -34.76 L110.2 -36.58 L111 -38.4 L111.8 -40.22 L112.6 -42.04 L113.4 -43.87 L114.2 -45.69 L115 -47.51 L115.8 -49.33 L116.6 -51.16 L117.4 -52.98 L118.2 -54.8 L119 -56.62 L119.8 -58.45 L118.8 -60.24 L117.8 -62.03 L116.8 -63.81 L115.8 -65.6 L114.8 -67.39 L113.8 -69.18 L112.8 -70.97 L111.7 -72.76 L110.7 -74.55 L109.7 -76.34 L108.7 -78.13 L107.7 -79.92 L105.7 -79.87 L103.7 -79.83 L101.6 -79.79 L99.59 -79.74 L97.55 -79.7 L95.51 -79.66 L93.47 -79.61 L91.43 -79.57 L89.4 -79.53 L87.36 -79.48 L85.32 -79.44 L83.28 -79.4 L81.24 -79.35 L79.2 -79.31 L77.16 -79.27 L75.52 -78.09 L73.87 -76.91 L72.22 -75.73 L70.57 -74.55 L68.92 -73.38 L67.28 -72.2 L65.63 -71.02 L63.98 -69.84 L62.33 -68.66 L60.68 -67.48 L59.03 -66.31 L57.39 -65.13 L55.74 -63.95 L54.09 -62.77 L52.44 -61.59 L50.79 -60.41 L49.15 -59.24 L47.5 -58.06 L45.85 -56.88 Z " />
<path stroke="rgb(0,0,0)" stroke-opacity="1" fill="rgb(236,216,157)" fill-opacity="1" id="scltrs1" d="M-160.7 36.14 L-161.3 36.98 L-162 37.82 L-162.6 38.65 L-163.3 39.49 L-164 40.33 L-164.6 41.17 L-165.3 42.01 L-165.9 42.84 L-166.6 43.68 L-167.3 44.52 L-167.9 45.36 L-168.6 46.2 L-169.3 47.03 L-169.9 47.87 L-170.6 48.71 L-171.2 49.55 L-171.9 50.38 L-172.6 51.22 L-173.2 52.06 L-173.9 52.9 L-174.5 53.74 L-175.2 54.57 L-175.9 55.41 L-176.5 56.25 L-177.2 57.09 L-177.8 57.93 L-178.5 58.76 L-179.2 59.6 L-179.8 60.44 L-180.5 61.28 L-181.2 62.12 L-181.8 62.95 L-182.5 63.79 L-183.1 64.63 L-183.8 65.47 L-184.5 66.31 L-183.5 66.76 L-182.5 67.21 L-181.5 67.67 L-180.6 68.12 L-179.6 68.57 L-178.6 69.03 L-177.7 69.48 L-176.7 69.94 L-175.7 70.39 L-174.7 70.84 L-173.8 71.3 L-172.8 71.75 L-171.8 72.2 L-170.9 72.66 L-169.9 73.11 L-168.9 73.56 L-167.9 74.02 L-167 74.47 L-166 74.93 L-165 75.38 L-164.1 75.83 L-163.1 76.29 L-162.1 76.74 L-161.1 77.19 L-160.2 77.65 L-159.2 78.1 L-158.2 78.56 L-157.3 79.01 L-156.3 79.46 L-155.3 79.92 L-154.3 80.37 L-153.4 80.82 L-152.4 81.28 L-151.4 81.73 L-150.5 82.19 L-149.5 82.64 L-148.5 83.09 L-147.5 83.55 L-146.6 84 L-145.6 84.45 L-144.6 84.91 L-143.7 85.36 L-142.7 85.82 L-141.7 86.27 L-140.7 86.72 L-139.8 87.18 L-138.8 87.63 L-137.8 88.08 L-136.9 88.54 L-137.3 87.55 L-137.8 86.56 L-138.2 85.57 L-138.7 84.58 L-139.1 83.59 L-139.6 82.61 L-140 81.62 L-140.5 80.63 L-140.9 79.64 L-141.4 78.65 L-141.8 77.66 L-142.2 76.67 L-142.7 75.69 L-143.1 74.7 L-143.6 73.71 L-144 72.72 L-144.5 71.73 L-144.9 70.74 L-145.4 69.75 L-145.8 68.77 L-146.3 67.78 L-146.7 66.79 L-147.2 65.8 L-147.6 64.81 L-148.1 63.82 L-148.5 62.83 L-149 61.84 L-149.4 60.86 L-149.9 59.87 L-150.3 58.88 L-150.8 57.89 L-151.2 56.9 L-151.7 55.91 L-152.1 54.92 L-152.6 53.94 L-153 52.95 L-153.5 51.96 L-153.9 50.97 L-154.4 49.98 L-154.8 48.99 L-155.3 48 L-155.7 47.02 L-156.2 46.03 L-156.6 45.04 L-157.1 44.05 L-157.5 43.06 L-158 42.07 L-158.4 41.08 L-158.9 40.09 L-159.3 39.11 L-159.8 38.12 L-160.2 37.13 L-160.7 36.14 Z " />
<path stroke="rgb(0,0,0)" stroke-opacity="1" fill="rgb(255,255,255)" fill-opacity="1" id="a5" d="M-62.4 134.3 L-62.51 136.7 L-62.82 138.8 L-63.33 140.8 L-64.03 142.7 L-64.92 144.4 L-65.97 145.8 L-67.18 147.2 L-68.54 148.3 L-70.05 149.2 L-71.69 150 L-73.45 150.5 L-75.33 150.8 L-77.32 150.9 L-79.4 150.9 L-81.57 150.5 L-83.81 150 L-86.13 149.2 L-88.5 148.2 L-90.29 147.4 L-92.04 146.4 L-93.76 145.3 L-95.43 144.1 L-97.07 142.8 L-98.65 141.5 L-100.2 140.1 L-101.7 138.6 L-103.1 137 L-104.4 135.4 L-105.7 133.7 L-107 132 L-108.1 130.3 L-109.2 128.5 L-110.1 126.7 L-111 124.9 L-111.8 123 L-112.5 121.2 L-113.2 119.3 L-113.7 117.4 L-114.1 115.6 L-114.4 113.7 L-114.5 111.9 L-114.6 110 L-114.5 107.7 L-114.2 105.6 L-113.7 103.6 L-113 101.7 L-112.1 100 L-111 98.56 L-109.8 97.25 L-108.5 96.12 L-107 95.19 L-105.3 94.45 L-103.5 93.91 L-101.7 93.58 L-99.68 93.45 L-97.6 93.54 L-95.43 93.85 L-93.19 94.39 L-90.87 95.15 L-88.5 96.15 L-86.71 97.04 L-84.96 98.03 L-83.24 99.12 L-81.57 100.3 L-79.93 101.6 L-78.35 102.9 L-76.81 104.3 L-75.33 105.8 L-73.91 107.4 L-72.56 109 L-71.27 110.7 L-70.05 112.4 L-68.91 114.1 L-67.84 115.9 L-66.86 117.7 L-65.97 119.5 L-65.16 121.4 L-64.45 123.2 L-63.84 125.1 L-63.33 127 L-62.93 128.8 L-62.64 130.7 L-62.46 132.5 L-62.4 134.3 Z " />
<path stroke="rgb(0,0,0)" stroke-opacity="1" fill="rgb(255,255,255)" fill-opacity="1" id="a17" d="M-96 -128.5 L-97.21 -127 L-98.42 -125.5 L-99.62 -124 L-100.8 -122.4 L-102 -120.9 L-103.2 -119.4 L-104.5 -117.8 L-105.7 -116.3 L-106.9 -114.8 L-108.1 -113.2 L-109.3 -111.7 L-110.5 -110.2 L-111.7 -108.7 L-109.9 -107.8 L-108 -106.9 L-106.2 -106.1 L-104.3 -105.2 L-102.5 -104.3 L-100.6 -103.5 L-98.77 -102.6 L-96.92 -101.7 L-95.08 -100.9 L-93.23 -100 L-91.38 -99.14 L-89.54 -98.27 L-87.69 -97.41 L-85.84 -96.54 L-83.99 -95.68 L-82.15 -94.81 L-80.3 -93.95 L-81.13 -95.77 L-81.95 -97.59 L-82.78 -99.41 L-83.61 -101.2 L-84.43 -103.1 L-85.26 -104.9 L-86.08 -106.7 L-86.91 -108.5 L-87.74 -110.3 L-88.56 -112.2 L-89.39 -114 L-90.22 -115.8 L-91.04 -117.6 L-91.87 -119.4 L-92.69 -121.3 L-93.52 -123.1 L-94.35 -124.9 L-95.17 -126.7 L-96 -128.5 Z " />
<path stroke="rgb(0,0,0)" stroke-opacity="1" fill="rgb(255,255,255)" fill-opacity="1" id="a16" d="M-96 -70.95 L-94.79 -72.48 L-93.58 -74.01 L-92.38 -75.54 L-91.17 -77.07 L-89.96 -78.6 L-88.75 -80.13 L-87.55 -81.67 L-86.34 -83.2 L-85.13 -84.73 L-83.92 -86.26 L-82.72 -87.79 L-81.51 -89.32 L-80.3 -90.85 L-82.15 -91.71 L-83.99 -92.57 L-85.84 -93.43 L-87.69 -94.29 L-89.54 -95.14 L-91.38 -96 L-93.23 -96.86 L-95.08 -97.72 L-96.92 -98.58 L-98.77 -99.44 L-100.6 -100.3 L-102.5 -101.2 L-104.3 -102 L-106.2 -102.9 L-108 -103.7 L-109.9 -104.6 L-111.7 -105.5 L-110.9 -103.6 L-110 -101.8 L-109.2 -100 L-108.4 -98.19 L-107.6 -96.37 L-106.7 -94.56 L-105.9 -92.74 L-105.1 -90.92 L-104.3 -89.11 L-103.4 -87.29 L-102.6 -85.48 L-101.8 -83.66 L-101 -81.84 L-100.1 -80.03 L-99.31 -78.21 L-98.48 -76.4 L-97.65 -74.58 L-96.83 -72.77 L-96 -70.95 Z " />
<path stroke="rgb(0,0,0)" stroke-opacity="1" fill="rgb(173,200,200)" fill-opacity="1" id="swap2" d="M-49.96 -63.27 L-50.22 -61.15 L-50.94 -59.44 L-52.08 -58.17 L-53.58 -57.36 L-55.38 -57.06 L-57.43 -57.28 L-59.66 -58.07 L-61.42 -59.04 L-63.07 -60.26 L-64.58 -61.68 L-65.93 -63.27 L-67.1 -64.99 L-68.05 -66.78 L-68.76 -68.62 L-69.21 -70.47 L-69.36 -72.27 L-69.11 -74.35 L-68.39 -76.05 L-67.25 -77.32 L-65.75 -78.14 L-63.95 -78.46 L-61.9 -78.24 L-59.66 -77.47 L-57.91 -76.5 L-56.26 -75.29 L-54.75 -73.87 L-53.4 -72.29 L-52.23 -70.59 L-51.28 -68.79 L-50.57 -66.95 L-50.12 -65.09 L-49.96 -63.27 Z " />
<path stroke="rgb(0,0,0)" stroke-opacity="1" fill="rgb(173,200,200)" fill-opacity="1" id="swap4" d="M-33.4 -41.21 L-33.65 -39.09 L-34.38 -37.38 L-35.52 -36.11 L-37.02 -35.3 L-38.82 -35 L-40.86 -35.22 L-43.1 -36.01 L-44.85 -36.98 L-46.5 -38.2 L-48.01 -39.62 L-49.37 -41.21 L-50.53 -42.93 L-51.49 -44.72 L-52.2 -46.56 L-52.65 -48.41 L-52.8 -50.21 L-52.55 -52.33 L-51.82 -54.04 L-50.68 -55.31 L-49.18 -56.11 L-47.38 -56.41 L-45.34 -56.19 L-43.1 -55.41 L-41.35 -54.44 L-39.7 -53.23 L-38.19 -51.81 L-36.83 -50.23 L-35.67 -48.53 L-34.71 -46.73 L-34 -44.89 L-33.55 -43.03 L-33.4 -41.21 Z " />
<path stroke="rgb(0,0,0)" stroke-opacity="1" fill="rgb(173,200,200)" fill-opacity="1" id="swap3" d="M-33.4 -69.09 L-33.65 -66.97 L-34.38 -65.26 L-35.52 -63.99 L-37.02 -63.19 L-38.82 -62.89 L-40.86 -63.11 L-43.1 -63.89 L-44.85 -64.86 L-46.5 -66.08 L-48.01 -67.51 L-49.37 -69.1 L-50.53 -70.81 L-51.49 -72.61 L-52.2 -74.45 L-52.65 -76.29 L-52.8 -78.09 L-52.55 -80.18 L-51.82 -81.88 L-50.68 -83.15 L-49.18 -83.97 L-47.38 -84.28 L-45.34 -84.07 L-43.1 -83.29 L-41.35 -82.33 L-39.7 -81.12 L-38.19 -79.7 L-36.83 -78.12 L-35.67 -76.41 L-34.71 -74.62 L-34 -72.78 L-33.55 -70.92 L-33.4 -69.09 Z " />
<path stroke="rgb(0,0,0)" stroke-opacity="1" fill="rgb(173,200,200)" fill-opacity="1" id="swap1" d="M-16.44 -48.03 L-16.69 -45.91 L-17.41 -44.2 L-18.55 -42.93 L-20.05 -42.13 L-21.85 -41.83 L-23.9 -42.05 L-26.14 -42.83 L-27.89 -43.8 L-29.54 -45.02 L-31.05 -46.45 L-32.4 -48.04 L-33.57 -49.75 L-34.52 -51.55 L-35.23 -53.39 L-35.68 -55.23 L-35.84 -57.03 L-35.58 -59.12 L-34.86 -60.82 L-33.72 -62.09 L-32.22 -62.91 L-30.42 -63.22 L-28.37 -63.01 L-26.14 -62.23 L-24.38 -61.26 L-22.73 -60.04 L-21.22 -58.62 L-19.87 -57.03 L-18.7 -55.31 L-17.75 -53.52 L-17.04 -51.68 L-16.59 -49.83 L-16.44 -48.03 Z " />
<path stroke="rgb(0,0,0)" stroke-opacity="1" fill="rgb(255,255,255)" fill-opacity="1" id="secscl1" d="M-4.762 125.1 L-5.714 124.7 L-6.665 124.2 L-7.616 123.8 L-8.568 123.3 L-9.519 122.9 L-10.47 122.5 L-11.42 122 L-12.37 121.6 L-13.32 121.1 L-14.28 120.7 L-15.23 120.2 L-16.18 119.8 L-17.13 119.4 L-18.08 118.9 L-18.74 119.8 L-19.4 120.6 L-20.06 121.4 L-20.72 122.3 L-21.39 123.1 L-22.05 124 L-22.71 124.8 L-23.37 125.6 L-24.03 126.5 L-24.69 127.3 L-24.28 128.2 L-23.86 129.1 L-23.45 130 L-23.04 131 L-22.62 131.9 L-22.21 132.8 L-21.8 133.7 L-21.39 134.6 L-20.97 135.5 L-20.56 136.4 L-20.15 137.3 L-19.73 138.2 L-19.32 139.1 L-18.91 140.1 L-18.49 141 L-18.08 141.9 L-17.13 142.3 L-16.18 142.7 L-15.23 143.2 L-14.28 143.6 L-13.32 144.1 L-12.37 144.5 L-11.42 144.9 L-10.47 145.4 L-9.519 145.8 L-8.568 146.3 L-7.616 146.7 L-6.665 147.1 L-5.714 147.6 L-4.762 148 L-4.101 147.2 L-3.441 146.3 L-2.78 145.5 L-2.119 144.7 L-1.458 143.8 L-0.7973 143 L-0.1365 142.2 L0.5243 141.3 L1.185 140.5 L1.846 139.7 L1.433 138.8 L1.02 137.8 L0.6069 136.9 L0.1939 136 L-0.2191 135.1 L-0.6321 134.2 L-1.045 133.3 L-1.458 132.4 L-1.871 131.5 L-2.284 130.6 L-2.697 129.7 L-3.11 128.8 L-3.523 127.8 L-3.936 126.9 L-4.349 126 L-4.762 125.1 Z " />
</g>
</g>
</svg>
