<!DOCTYPE svg>
<svg xmlns="http://www.w3.org/2000/svg" xmlns:xlink="http://www.w3.org/1999/xlink" width="1080" height="1080">
<g transform="translate(540.000000,540.000000)">
<g transform="scale(2,2)">
<path stroke="rgb(0,0,0)" stroke-opacity="1" fill="rgb(148,200,200)" fill-opacity="1" id="bb1_2_" d="M-136.2 19.89 L-137.1 18.11 L-138 16.33 L-138.9 14.55 L-139.8 12.76 L-140.7 10.98 L-141.6 9.198 L-142.5 7.415 L-143.4 5.632 L-144.2 3.849 L-145.1 2.066 L-146 0.2832 L-146.9 -1.5 L-147.8 -3.283 L-148.7 -5.065 L-149.6 -6.848 L-150.5 -8.631 L-151.4 -10.41 L-152.3 -12.2 L-153.1 -13.98 L-154 -15.76 L-154.9 -17.55 L-155.8 -19.33 L-156.7 -21.11 L-157.6 -22.89 L-158.5 -24.68 L-159.4 -26.46 L-160.3 -28.24 L-161.2 -30.03 L-162.1 -31.81 L-160.8 -33.36 L-159.5 -34.91 L-158.2 -36.46 L-156.9 -38.01 L-155.6 -39.55 L-154.3 -41.1 L-153.1 -42.65 L-151.8 -44.2 L-150.5 -45.75 L-149.2 -47.3 L-147.9 -48.85 L-146.6 -50.4 L-145.3 -51.95 L-144 -53.5 L-142.8 -55.05 L-141.5 -56.6 L-140.2 -58.15 L-138.9 -59.7 L-137.6 -61.24 L-136.3 -62.79 L-135 -64.34 L-133.8 -65.89 L-132.5 -67.44 L-131.2 -68.99 L-129.9 -70.54 L-128.6 -72.09 L-127.3 -73.64 L-126.4 -71.86 L-125.5 -70.07 L-124.6 -68.29 L-123.8 -66.51 L-122.9 -64.72 L-122 -62.94 L-121.1 -61.16 L-120.2 -59.38 L-119.3 -57.59 L-118.4 -55.81 L-117.5 -54.03 L-116.6 -52.24 L-115.7 -50.46 L-114.9 -48.68 L-114 -46.9 L-113.1 -45.11 L-112.2 -43.33 L-111.3 -41.55 L-110.4 -39.76 L-109.5 -37.98 L-108.6 -36.2 L-107.7 -34.42 L-106.8 -32.63 L-105.9 -30.85 L-105.1 -29.07 L-104.2 -27.28 L-103.3 -25.5 L-102.4 -23.72 L-101.5 -21.94 L-102.8 -20.39 L-104.1 -18.84 L-105.4 -17.29 L-106.6 -15.74 L-107.9 -14.19 L-109.2 -12.64 L-110.5 -11.09 L-111.8 -9.541 L-113.1 -7.992 L-114.4 -6.443 L-115.6 -4.893 L-116.9 -3.344 L-118.2 -1.795 L-119.5 -0.2455 L-120.8 1.304 L-122.1 2.853 L-123.4 4.402 L-124.6 5.951 L-125.9 7.501 L-127.2 9.05 L-128.5 10.6 L-129.8 12.15 L-131.1 13.7 L-132.4 15.25 L-133.7 16.8 L-134.9 18.35 L-136.2 19.89 Z " />
<path stroke="rgb(0,0,0)" stroke-opacity="1" fill="rgb(236,216,157)" fill-opacity="1" id="pr2_1_" d="M72.7 104.6 L70.94 103.7 L69.18 102.8 L67.41 101.9 L65.65 101 L63.89 100.1 L62.13 99.25 L60.36 98.35 L58.6 97.45 L58.63 95.52 L58.66 93.59 L58.69 91.66 L58.71 89.74 L58.74 87.81 L58.77 85.88 L58.8 83.95 L60.55 84.84 L62.3 85.73 L64.05 86.61 L65.8 87.5 L67.55 88.39 L69.3 89.28 L71.05 90.16 L72.8 91.05 L72.79 92.99 L72.77 94.94 L72.76 96.88 L72.74 98.82 L72.73 100.8 L72.71 102.7 L72.7 104.6 Z " />
<path stroke="rgb(0,0,0)" stroke-opacity="1" fill="rgb(236,216,157)" fill-opacity="1" id="pr1_1_" d="M54.9 96.05 L53.15 95.15 L51.4 94.25 L49.65 93.35 L47.9 92.45 L46.15 91.55 L44.4 90.65 L42.65 89.75 L40.9 88.85 L40.91 86.92 L40.93 84.99 L40.94 83.06 L40.96 81.14 L40.97 79.21 L40.99 77.28 L41 75.35 L42.75 76.25 L44.5 77.15 L46.25 78.05 L48 78.95 L49.75 79.85 L51.5 80.75 L53.25 81.65 L55 82.55 L54.99 84.48 L54.97 86.41 L54.96 88.34 L54.94 90.26 L54.93 92.19 L54.91 94.12 L54.9 96.05 Z " />
<path stroke="rgb(0,0,0)" stroke-opacity="1" fill="rgb(236,216,157)" fill-opacity="1" id="pr3_1_" d="M54.6 113.6 L52.85 112.7 L51.1 111.8 L49.35 110.9 L47.6 110 L45.85 109.1 L44.1 108.1 L42.35 107.2 L40.6 106.3 L40.61 104.4 L40.63 102.5 L40.64 100.6 L40.66 98.64 L40.67 96.71 L40.69 94.78 L40.7 92.85 L42.45 93.75 L44.2 94.65 L45.95 95.55 L47.7 96.45 L49.45 97.35 L51.2 98.25 L52.95 99.15 L54.7 100.1 L54.69 102 L54.67 103.9 L54.66 105.8 L54.64 107.8 L54.63 109.7 L54.61 111.6 L54.6 113.6 Z " />
<path stroke="rgb(0,0,0)" stroke-opacity="1" fill="rgb(236,216,157)" fill-opacity="1" id="pr4_1_" d="M72.3 121.7 L70.54 120.9 L68.77 120 L67.01 119.1 L65.25 118.2 L63.49 117.3 L61.73 116.4 L59.96 115.5 L58.2 114.6 L58.21 112.7 L58.23 110.8 L58.24 108.9 L58.26 106.9 L58.27 105 L58.29 103.1 L58.3 101.1 L60.06 102 L61.82 102.9 L63.59 103.8 L65.35 104.7 L67.11 105.6 L68.87 106.5 L70.64 107.4 L72.4 108.2 L72.39 110.2 L72.37 112.1 L72.36 114 L72.34 116 L72.33 117.9 L72.31 119.8 L72.3 121.7 Z " />
<path stroke="rgb(0,0,0)" stroke-opacity="1" fill="rgb(238,200,200)" fill-opacity="1" id="ll1_1_" d="M121.9 102.4 L120 101.5 L118.1 100.6 L116.2 99.76 L114.3 98.88 L112.4 97.99 L110.6 97.11 L108.7 96.23 L106.8 95.34 L104.9 94.46 L103 93.58 L101.1 92.69 L99.22 91.81 L97.33 90.93 L95.44 90.04 L93.55 89.16 L91.66 88.28 L91.66 86.17 L91.66 84.06 L91.66 81.95 L91.66 79.85 L91.66 77.74 L91.66 75.63 L91.66 73.52 L91.66 71.41 L91.66 69.31 L91.66 67.2 L91.66 65.09 L91.66 62.98 L91.66 60.87 L91.66 58.77 L93.55 59.66 L95.44 60.54 L97.33 61.43 L99.22 62.32 L101.1 63.21 L103 64.1 L104.9 64.99 L106.8 65.88 L108.7 66.77 L110.6 67.66 L112.4 68.55 L114.3 69.44 L116.2 70.33 L118.1 71.22 L120 72.11 L121.9 73 L121.9 75.1 L121.9 77.2 L121.9 79.3 L121.9 81.4 L121.9 83.51 L121.9 85.61 L121.9 87.71 L121.9 89.81 L121.9 91.91 L121.9 94.01 L121.9 96.11 L121.9 98.21 L121.9 100.3 L121.9 102.4 Z " />
<path stroke="rgb(0,0,0)" stroke-opacity="1" fill="rgb(255,255,255)" fill-opacity="1" id="cl1_1_" d="M26.18 125.5 L26.65 123.5 L27.11 121.6 L27.58 119.6 L28.04 117.6 L28.5 115.7 L28.97 113.7 L29.43 111.7 L29.89 109.7 L30.36 107.8 L30.82 105.8 L31.28 103.8 L31.75 101.9 L32.21 99.88 L32.67 97.91 L33.14 95.94 L35.16 95.36 L34.67 97.34 L34.19 99.31 L33.71 101.3 L33.22 103.3 L32.74 105.2 L32.26 107.2 L31.78 109.2 L31.29 111.2 L30.81 113.1 L30.33 115.1 L29.84 117.1 L29.36 119.1 L28.88 121 L28.39 123 L27.91 125 L26.18 125.5 Z " />
<path stroke="rgb(0,0,0)" stroke-opacity="1" fill="rgb(255,255,255)" fill-opacity="1" id="a5_2_" d="M197 -50.75 L195.1 -51.59 L193.2 -52.44 L191.3 -53.28 L189.4 -54.12 L187.5 -54.96 L185.7 -55.81 L183.8 -56.65 L181.9 -57.49 L180 -58.34 L178.1 -59.18 L176.2 -60.02 L174.3 -60.86 L172.5 -61.71 L170.6 -62.55 L170.6 -60.6 L170.6 -58.64 L170.6 -56.69 L170.6 -54.73 L170.6 -52.78 L170.6 -50.83 L170.6 -48.87 L170.6 -46.92 L170.6 -44.97 L170.6 -43.01 L170.6 -41.06 L170.6 -39.1 L170.6 -37.15 L172.5 -36.31 L174.3 -35.46 L176.2 -34.62 L178.1 -33.78 L180 -32.94 L181.9 -32.09 L183.8 -31.25 L185.7 -30.41 L187.5 -29.56 L189.4 -28.72 L191.3 -27.88 L193.2 -27.04 L195.1 -26.19 L197 -25.35 L197 -27.3 L197 -29.26 L197 -31.21 L197 -33.17 L197 -35.12 L197 -37.07 L197 -39.03 L197 -40.98 L197 -42.93 L197 -44.89 L197 -46.84 L197 -48.8 L197 -50.75 Z " />
<path stroke="rgb(0,0,0)" stroke-opacity="1" fill="rgb(255,255,255)" fill-opacity="1" id="a6_2_" d="M63.49 51.45 L61.72 50.62 L59.94 49.79 L58.16 48.96 L56.39 48.13 L54.61 47.3 L52.84 46.47 L51.06 45.64 L49.28 44.81 L47.51 43.99 L45.73 43.16 L43.95 42.33 L42.18 41.5 L40.4 40.67 L38.62 39.84 L36.85 39.01 L35.07 38.18 L33.29 37.35 L33.29 35.25 L33.29 33.15 L33.29 31.05 L33.29 28.95 L33.29 26.85 L33.29 24.75 L33.29 22.65 L33.29 20.55 L33.29 18.45 L33.29 16.35 L35.06 17.18 L36.84 18.01 L38.61 18.84 L40.38 19.67 L42.15 20.5 L43.92 21.33 L45.69 22.16 L47.46 22.99 L49.23 23.81 L51 24.64 L52.77 25.47 L54.54 26.3 L56.31 27.13 L58.08 27.96 L59.85 28.79 L61.62 29.62 L63.39 30.45 L63.4 32.36 L63.41 34.27 L63.42 36.18 L63.43 38.09 L63.44 40 L63.45 41.9 L63.46 43.81 L63.47 45.72 L63.48 47.63 L63.49 49.54 L63.49 51.45 Z " />
<path stroke="rgb(0,0,0)" stroke-opacity="1" fill="rgb(148,200,200)" fill-opacity="1" id="rtr1_2_" d="M39.23 -117.6 L40.12 -119.4 L41.02 -121.3 L41.92 -123.2 L42.82 -125 L43.72 -126.9 L44.62 -128.8 L46.76 -128.7 L48.89 -128.7 L51.03 -128.7 L53.17 -128.7 L55.3 -128.7 L54.41 -126.8 L53.51 -124.9 L52.61 -123 L51.71 -121.1 L50.81 -119.3 L49.91 -117.4 L47.77 -117.4 L45.64 -117.5 L43.5 -117.5 L41.36 -117.5 L39.23 -117.6 Z " />
<path stroke="rgb(0,0,0)" stroke-opacity="1" fill="rgb(238,200,200)" fill-opacity="1" id="sg1_2_" d="M86.04 111.9 L84.47 110.9 L82.9 110 L81.33 109 L79.76 108.1 L78.19 107.1 L76.61 106.2 L76.76 104.1 L76.91 102 L77.06 99.89 L77.2 97.8 L78.79 98.73 L80.38 99.66 L81.97 100.6 L83.56 101.5 L85.15 102.5 L86.73 103.4 L86.56 105.5 L86.39 107.6 L86.21 109.7 L86.04 111.9 Z " />
<path stroke="rgb(0,0,0)" stroke-opacity="1" fill="rgb(255,255,255)" fill-opacity="1" id="a12_2_" d="M-34.8 68.45 L-36.69 67.64 L-38.57 66.82 L-40.45 66 L-42.34 65.19 L-44.22 64.37 L-46.1 63.55 L-46.12 61.62 L-46.14 59.69 L-46.15 57.75 L-46.17 55.82 L-46.19 53.89 L-46.2 51.95 L-44.34 52.77 L-42.47 53.59 L-40.6 54.4 L-38.74 55.22 L-36.87 56.04 L-35 56.85 L-34.97 58.79 L-34.94 60.72 L-34.9 62.65 L-34.87 64.59 L-34.84 66.52 L-34.8 68.45 Z " />
<path stroke="rgb(0,0,0)" stroke-opacity="1" fill="rgb(255,255,255)" fill-opacity="1" id="secscl1_2_" d="M-29.46 39.27 L-30.98 38.55 L-32.5 37.83 L-34.02 37.1 L-35.54 36.38 L-37.06 35.66 L-38.58 34.93 L-40.1 34.21 L-41.62 33.48 L-41.62 31.85 L-41.62 30.21 L-41.62 28.57 L-41.62 26.93 L-41.62 25.3 L-41.62 23.66 L-41.62 22.02 L-41.62 20.39 L-41.62 18.75 L-41.62 17.11 L-41.62 15.47 L-41.62 13.84 L-41.62 12.2 L-41.62 10.56 L-41.62 8.924 L-41.62 7.286 L-41.62 5.649 L-41.62 4.012 L-41.62 2.374 L-41.62 0.7368 L-41.62 -0.9006 L-41.62 -2.538 L-41.62 -4.175 L-41.62 -5.813 L-41.62 -7.45 L-41.62 -9.088 L-41.62 -10.72 L-41.62 -12.36 L-41.62 -14 L-41.62 -15.64 L-41.62 -17.27 L-41.62 -18.91 L-41.62 -20.55 L-41.62 -22.19 L-41.62 -23.82 L-41.62 -25.46 L-41.62 -27.1 L-41.62 -28.74 L-41.62 -30.37 L-41.62 -32.01 L-40.1 -31.28 L-38.58 -30.54 L-37.06 -29.81 L-35.54 -29.08 L-34.02 -28.34 L-32.5 -27.61 L-30.98 -26.87 L-29.46 -26.14 L-29.46 -24.5 L-29.46 -22.87 L-29.46 -21.23 L-29.46 -19.6 L-29.46 -17.96 L-29.46 -16.33 L-29.46 -14.69 L-29.46 -13.06 L-29.46 -11.42 L-29.46 -9.786 L-29.46 -8.151 L-29.46 -6.516 L-29.46 -4.88 L-29.46 -3.245 L-29.46 -1.61 L-29.46 0.02561 L-29.46 1.661 L-29.46 3.296 L-29.46 4.932 L-29.46 6.567 L-29.46 8.202 L-29.46 9.838 L-29.46 11.47 L-29.46 13.11 L-29.46 14.74 L-29.46 16.38 L-29.46 18.01 L-29.46 19.65 L-29.46 21.28 L-29.46 22.92 L-29.46 24.56 L-29.46 26.19 L-29.46 27.83 L-29.46 29.46 L-29.46 31.1 L-29.46 32.73 L-29.46 34.37 L-29.46 36 L-29.46 37.64 L-29.46 39.27 Z " />
<path stroke="rgb(0,0,0)" stroke-opacity="1" fill="rgb(255,255,255)" fill-opacity="1" id="a7_1_" d="M141.3 -84.25 L139.4 -85.05 L137.6 -85.85 L135.7 -86.65 L133.8 -87.45 L132 -88.25 L130.1 -89.05 L128.3 -89.85 L126.4 -90.65 L124.5 -91.45 L122.7 -92.25 L120.8 -93.05 L120.8 -95.03 L120.8 -97.02 L120.8 -99 L120.8 -101 L120.8 -103 L120.8 -105 L122.7 -104.1 L124.5 -103.3 L126.4 -102.5 L128.3 -101.7 L130.1 -100.9 L132 -100 L133.8 -99.22 L135.7 -98.4 L137.6 -97.59 L139.4 -96.77 L141.3 -95.95 L141.3 -94 L141.3 -92.05 L141.3 -90.1 L141.3 -88.15 L141.3 -86.2 L141.3 -84.25 Z " />
<path stroke="rgb(0,0,0)" stroke-opacity="1" fill="rgb(255,255,255)" fill-opacity="1" id="a8_1_" d="M141.2 -69.95 L139.3 -70.76 L137.5 -71.57 L135.6 -72.38 L133.7 -73.19 L131.9 -74 L130 -74.8 L128.2 -75.61 L126.3 -76.42 L124.4 -77.23 L122.6 -78.04 L120.7 -78.85 L120.7 -80.82 L120.7 -82.78 L120.7 -84.75 L120.7 -86.72 L120.7 -88.68 L120.7 -90.65 L122.6 -89.85 L124.4 -89.05 L126.3 -88.25 L128.2 -87.45 L130.1 -86.65 L131.9 -85.85 L133.8 -85.05 L135.7 -84.25 L137.6 -83.45 L139.4 -82.65 L141.3 -81.85 L141.3 -79.87 L141.3 -77.88 L141.2 -75.9 L141.2 -73.92 L141.2 -71.93 L141.2 -69.95 Z " />
<path stroke="rgb(0,0,0)" stroke-opacity="1" fill="rgb(255,255,255)" fill-opacity="1" id="a9_1_" d="M134.2 -61.55 L132.3 -62.35 L130.4 -63.15 L128.5 -63.95 L126.5 -64.75 L124.6 -65.55 L122.7 -66.35 L120.8 -67.15 L120.8 -68.95 L120.8 -70.75 L120.7 -72.55 L120.7 -74.35 L120.7 -76.15 L122.6 -75.34 L124.5 -74.52 L126.4 -73.71 L128.4 -72.89 L130.3 -72.08 L132.2 -71.26 L134.1 -70.45 L134.1 -68.23 L134.2 -66 L134.2 -63.77 L134.2 -61.55 Z " />
<path stroke="rgb(0,0,0)" stroke-opacity="1" fill="rgb(255,255,255)" fill-opacity="1" id="a17_1_" d="M34.5 57.65 L32.73 56.71 L30.95 55.78 L29.18 54.84 L27.41 53.9 L25.64 52.97 L23.86 52.03 L22.09 51.1 L20.32 50.16 L18.55 49.22 L16.77 48.29 L15 47.35 L15 45.33 L15 43.32 L15 41.3 L15 39.28 L15 37.27 L15 35.25 L16.77 36.19 L18.55 37.12 L20.32 38.06 L22.09 39 L23.86 39.93 L25.64 40.87 L27.41 41.8 L29.18 42.74 L30.95 43.68 L32.73 44.61 L34.5 45.55 L34.5 47.57 L34.5 49.58 L34.5 51.6 L34.5 53.62 L34.5 55.63 L34.5 57.65 Z " />
<path stroke="rgb(0,0,0)" stroke-opacity="1" fill="rgb(255,255,255)" fill-opacity="1" id="a16_1_" d="M34.5 74.9 L32.73 74 L30.95 73.1 L29.18 72.2 L27.41 71.3 L25.64 70.4 L23.86 69.5 L22.09 68.6 L20.32 67.7 L18.55 66.8 L16.77 65.9 L15 65 L15 63.03 L15 61.07 L15 59.1 L15 57.13 L15 55.17 L15 53.2 L16.77 54.1 L18.55 55 L20.32 55.9 L22.09 56.8 L23.86 57.7 L25.64 58.6 L27.41 59.5 L29.18 60.4 L30.95 61.3 L32.73 62.2 L34.5 63.1 L34.5 65.07 L34.5 67.03 L34.5 69 L34.5 70.97 L34.5 72.93 L34.5 74.9 Z " />
<path stroke="rgb(0,0,0)" stroke-opacity="1" fill="rgb(236,216,157)" fill-opacity="1" id="scltrs1_1_" d="M-28.4 45.05 L-30.23 44.09 L-32.06 43.14 L-33.89 42.18 L-35.71 41.22 L-37.54 40.26 L-39.37 39.31 L-41.2 38.35 L-41.2 36.27 L-41.2 34.18 L-41.2 32.1 L-41.2 30.02 L-41.2 27.93 L-41.2 25.85 L-39.37 26.81 L-37.54 27.76 L-35.71 28.72 L-33.89 29.68 L-32.06 30.64 L-30.23 31.59 L-28.4 32.55 L-28.4 34.63 L-28.4 36.72 L-28.4 38.8 L-28.4 40.88 L-28.4 42.97 L-28.4 45.05 Z " />
<path stroke="rgb(0,0,0)" stroke-opacity="1" fill="rgb(244,227,211)" fill-opacity="1" id="a15_1_" d="M119.3 -3.75 L117.4 -4.613 L115.6 -5.475 L113.7 -6.338 L111.8 -7.2 L110 -8.063 L108.1 -8.925 L106.3 -9.788 L104.4 -10.65 L104.4 -12.57 L104.4 -14.49 L104.4 -16.41 L104.4 -18.33 L104.4 -20.25 L106.3 -19.38 L108.1 -18.5 L110 -17.63 L111.8 -16.75 L113.7 -15.88 L115.6 -15 L117.4 -14.13 L119.3 -13.25 L119.3 -11.35 L119.3 -9.45 L119.3 -7.55 L119.3 -5.65 L119.3 -3.75 Z " />
<path stroke="rgb(0,0,0)" stroke-opacity="1" fill="rgb(244,227,211)" fill-opacity="1" id="a14_1_" d="M117.2 4.75 L115.4 3.893 L113.5 3.036 L111.7 2.179 L109.8 1.321 L108 0.4643 L106.1 -0.3929 L104.3 -1.25 L104.3 -3.183 L104.4 -5.117 L104.4 -7.05 L106.2 -6.164 L108.1 -5.279 L109.9 -4.393 L111.7 -3.507 L113.5 -2.621 L115.4 -1.736 L117.2 -0.85 L117.2 1.017 L117.2 2.883 L117.2 4.75 Z " />
<path stroke="rgb(0,0,0)" stroke-opacity="1" fill="rgb(244,227,211)" fill-opacity="1" id="a13_1_" d="M115 24.65 L113.2 23.82 L111.4 22.98 L109.6 22.15 L107.9 21.32 L106.1 20.48 L104.3 19.65 L104.3 17.59 L104.3 15.52 L104.3 13.46 L104.3 11.4 L104.3 9.337 L104.3 7.275 L104.3 5.212 L104.3 3.15 L106.1 3.983 L107.9 4.817 L109.6 5.65 L111.4 6.483 L113.2 7.317 L115 8.15 L115 10.21 L115 12.27 L115 14.34 L115 16.4 L115 18.46 L115 20.52 L115 22.59 L115 24.65 Z " />
<path stroke="rgb(0,0,0)" stroke-opacity="1" fill="rgb(200,200,200)" fill-opacity="1" id="a1_2_" d="M-110.5 -63.45 L-112.2 -64.33 L-114 -65.2 L-115.7 -66.08 L-117.5 -66.96 L-119.2 -67.84 L-121 -68.71 L-122.7 -69.59 L-124.5 -70.47 L-126.2 -71.35 L-128 -72.22 L-129.8 -73.1 L-131.5 -73.98 L-133.3 -74.85 L-135 -75.73 L-136.8 -76.61 L-138.5 -77.49 L-140.3 -78.36 L-142 -79.24 L-143.8 -80.12 L-145.5 -81 L-147.3 -81.87 L-149 -82.75 L-149 -84.61 L-149 -86.47 L-149 -88.33 L-149 -90.19 L-149 -92.05 L-147.3 -91.17 L-145.5 -90.29 L-143.8 -89.4 L-142 -88.52 L-140.3 -87.64 L-138.5 -86.76 L-136.8 -85.88 L-135 -85 L-133.3 -84.11 L-131.5 -83.23 L-129.8 -82.35 L-128 -81.47 L-126.2 -80.59 L-124.5 -79.7 L-122.7 -78.82 L-121 -77.94 L-119.2 -77.06 L-117.5 -76.18 L-115.7 -75.3 L-114 -74.41 L-112.2 -73.53 L-110.5 -72.65 L-110.5 -70.81 L-110.5 -68.97 L-110.5 -67.13 L-110.5 -65.29 L-110.5 -63.45 Z " />
<path stroke="rgb(0,0,0)" stroke-opacity="1" fill="rgb(200,200,200)" fill-opacity="1" id="a4_2_" d="M-89.9 -98.25 L-91.69 -99.14 L-93.49 -100 L-95.28 -100.9 L-97.08 -101.8 L-98.87 -102.7 L-100.7 -103.6 L-102.5 -104.5 L-104.3 -105.4 L-106 -106.3 L-107.8 -107.2 L-109.6 -108.1 L-111.4 -109 L-113.2 -109.9 L-115 -110.8 L-116.8 -111.7 L-118.6 -112.6 L-120.4 -113.4 L-122.2 -114.3 L-124 -115.2 L-125.8 -116.1 L-127.6 -117 L-129.4 -117.9 L-131.2 -118.8 L-133 -119.7 L-134.7 -120.6 L-136.5 -121.5 L-138.3 -122.4 L-140.1 -123.3 L-141.9 -124.2 L-143.7 -125.1 L-145.5 -126 L-147.3 -126.9 L-149.1 -127.7 L-149.1 -129.8 L-149.1 -131.8 L-149.1 -133.8 L-149.1 -135.8 L-149.1 -137.8 L-149.1 -139.8 L-149.1 -141.8 L-147.3 -141 L-145.5 -140.1 L-143.7 -139.2 L-141.9 -138.3 L-140.1 -137.4 L-138.3 -136.5 L-136.5 -135.6 L-134.7 -134.7 L-133 -133.8 L-131.2 -132.9 L-129.4 -132 L-127.6 -131.2 L-125.8 -130.3 L-124 -129.4 L-122.2 -128.5 L-120.4 -127.6 L-118.6 -126.7 L-116.8 -125.8 L-115 -124.9 L-113.2 -124 L-111.4 -123.1 L-109.6 -122.2 L-107.8 -121.4 L-106 -120.5 L-104.3 -119.6 L-102.5 -118.7 L-100.7 -117.8 L-98.87 -116.9 L-97.08 -116 L-95.28 -115.1 L-93.49 -114.2 L-91.69 -113.3 L-89.9 -112.4 L-89.9 -110.4 L-89.9 -108.4 L-89.9 -106.4 L-89.9 -104.3 L-89.9 -102.3 L-89.9 -100.3 L-89.9 -98.25 Z " />
<path stroke="rgb(0,0,0)" stroke-opacity="1" fill="rgb(200,200,200)" fill-opacity="1" id="a2_1_" d="M-109.1 -77.55 L-110.9 -78.45 L-112.7 -79.36 L-114.6 -80.26 L-116.4 -81.17 L-118.2 -82.07 L-120 -82.98 L-121.8 -83.88 L-123.6 -84.79 L-125.5 -85.69 L-127.3 -86.6 L-129.1 -87.5 L-130.9 -88.4 L-132.7 -89.31 L-134.6 -90.21 L-136.4 -91.12 L-138.2 -92.02 L-140 -92.93 L-141.8 -93.83 L-143.6 -94.74 L-145.5 -95.64 L-147.3 -96.55 L-149.1 -97.45 L-149.1 -99.39 L-149.1 -101.3 L-149.1 -103.3 L-149.1 -105.2 L-149.1 -107.2 L-147.3 -106.2 L-145.5 -105.3 L-143.6 -104.4 L-141.8 -103.5 L-140 -102.6 L-138.2 -101.7 L-136.4 -100.8 L-134.6 -99.88 L-132.7 -98.97 L-130.9 -98.06 L-129.1 -97.15 L-127.3 -96.24 L-125.5 -95.33 L-123.6 -94.42 L-121.8 -93.51 L-120 -92.6 L-118.2 -91.7 L-116.4 -90.79 L-114.6 -89.88 L-112.7 -88.97 L-110.9 -88.06 L-109.1 -87.15 L-109.1 -85.23 L-109.1 -83.31 L-109.1 -81.39 L-109.1 -79.47 L-109.1 -77.55 Z " />
<path stroke="rgb(0,0,0)" stroke-opacity="1" fill="rgb(200,200,200)" fill-opacity="1" id="a3_1_" d="M-105.8 -91.15 L-107.6 -92.04 L-109.4 -92.93 L-111.2 -93.83 L-113 -94.72 L-114.8 -95.61 L-116.6 -96.5 L-118.4 -97.39 L-120.2 -98.28 L-122 -99.17 L-123.8 -100.1 L-125.6 -101 L-127.4 -101.8 L-129.3 -102.7 L-131.1 -103.6 L-132.9 -104.5 L-134.7 -105.4 L-136.5 -106.3 L-138.3 -107.2 L-140.1 -108.1 L-141.9 -109 L-143.7 -109.9 L-145.5 -110.8 L-147.3 -111.7 L-149.1 -112.5 L-149.1 -114.6 L-149.1 -116.7 L-149.1 -118.8 L-149.1 -120.9 L-149.1 -123 L-147.3 -122.1 L-145.5 -121.2 L-143.7 -120.3 L-141.9 -119.4 L-140.1 -118.5 L-138.3 -117.6 L-136.5 -116.7 L-134.7 -115.8 L-132.9 -114.9 L-131.1 -114 L-129.3 -113.1 L-127.4 -112.3 L-125.6 -111.4 L-123.8 -110.5 L-122 -109.6 L-120.2 -108.7 L-118.4 -107.8 L-116.6 -106.9 L-114.8 -106 L-113 -105.1 L-111.2 -104.2 L-109.4 -103.3 L-107.6 -102.4 L-105.8 -101.5 L-105.8 -99.47 L-105.8 -97.39 L-105.8 -95.31 L-105.8 -93.23 L-105.8 -91.15 Z " />
<path stroke="rgb(0,0,0)" stroke-opacity="1" fill="rgb(244,227,211)" fill-opacity="1" id="a11_1_" d="M-15.3 70.85 L-17.12 70.04 L-18.94 69.23 L-20.76 68.42 L-22.57 67.61 L-24.39 66.79 L-26.21 65.98 L-28.03 65.17 L-29.85 64.36 L-31.67 63.55 L-33.49 62.74 L-35.3 61.93 L-37.12 61.12 L-38.94 60.31 L-40.76 59.49 L-42.58 58.68 L-44.4 57.87 L-46.21 57.06 L-48.03 56.25 L-49.85 55.44 L-51.67 54.63 L-53.49 53.82 L-55.31 53.01 L-57.13 52.19 L-58.94 51.38 L-60.76 50.57 L-62.58 49.76 L-64.4 48.95 L-64.45 47 L-64.5 45.05 L-62.68 45.86 L-60.86 46.68 L-59.04 47.49 L-57.23 48.31 L-55.41 49.12 L-53.59 49.94 L-51.77 50.75 L-49.95 51.57 L-48.13 52.38 L-46.31 53.2 L-44.5 54.01 L-42.68 54.83 L-40.86 55.64 L-39.04 56.46 L-37.22 57.27 L-35.4 58.09 L-33.59 58.9 L-31.77 59.72 L-29.95 60.53 L-28.13 61.35 L-26.31 62.16 L-24.49 62.98 L-22.67 63.79 L-20.86 64.61 L-19.04 65.42 L-17.22 66.24 L-15.4 67.05 L-15.35 68.95 L-15.3 70.85 Z " />
<path stroke="rgb(0,0,0)" stroke-opacity="1" fill="rgb(244,200,200)" fill-opacity="1" id="fus1_1_" d="M-95.5 56.95 L-97.3 56.19 L-99.1 55.43 L-100.9 54.67 L-102.7 53.91 L-104.5 53.15 L-104.5 51.29 L-104.5 49.43 L-104.5 47.57 L-104.5 45.71 L-104.5 43.85 L-102.7 44.61 L-100.9 45.37 L-99.1 46.13 L-97.3 46.89 L-95.5 47.65 L-95.5 49.51 L-95.5 51.37 L-95.5 53.23 L-95.5 55.09 L-95.5 56.95 Z " />
<path stroke="rgb(0,0,0)" stroke-opacity="1" fill="rgb(244,200,200)" fill-opacity="1" id="fus2_1_" d="M-91.5 55.95 L-93.3 55.17 L-95.1 54.39 L-96.9 53.61 L-98.7 52.83 L-100.5 52.05 L-100.5 50.17 L-100.4 48.29 L-100.4 46.41 L-100.3 44.53 L-100.3 42.65 L-98.54 43.41 L-96.78 44.17 L-95.02 44.93 L-93.26 45.69 L-91.5 46.45 L-91.5 48.35 L-91.5 50.25 L-91.5 52.15 L-91.5 54.05 L-91.5 55.95 Z " />
<path stroke="rgb(0,0,0)" stroke-opacity="1" fill="rgb(244,200,200)" fill-opacity="1" id="fus3_1_" d="M-100.6 61.45 L-102.4 60.69 L-104.2 59.93 L-105.9 59.17 L-107.7 58.41 L-109.5 57.65 L-109.5 55.79 L-109.5 53.93 L-109.5 52.07 L-109.5 50.21 L-109.5 48.35 L-107.7 49.11 L-105.9 49.87 L-104.1 50.63 L-102.3 51.39 L-100.5 52.15 L-100.5 54.01 L-100.5 55.87 L-100.6 57.73 L-100.6 59.59 L-100.6 61.45 Z " />
<path stroke="rgb(0,0,0)" stroke-opacity="1" fill="rgb(244,200,200)" fill-opacity="1" id="fus4_1_" d="M-91.5 65.45 L-93.3 64.67 L-95.1 63.89 L-96.9 63.11 L-98.7 62.33 L-100.5 61.55 L-100.5 59.69 L-100.5 57.83 L-100.5 55.97 L-100.5 54.11 L-100.5 52.25 L-98.7 53.03 L-96.9 53.81 L-95.1 54.59 L-93.3 55.37 L-91.5 56.15 L-91.5 58.01 L-91.5 59.87 L-91.5 61.73 L-91.5 63.59 L-91.5 65.45 Z " />
<path stroke="rgb(0,0,0)" stroke-opacity="1" fill="rgb(173,200,200)" fill-opacity="1" id="swap1_1_" d="M38 -109.2 L36.18 -110.1 L34.36 -111.1 L32.54 -112 L30.72 -113 L28.9 -114 L27.08 -114.9 L25.26 -115.9 L23.44 -116.8 L21.62 -117.8 L19.8 -118.8 L19.81 -120.8 L19.82 -122.8 L19.83 -124.8 L19.84 -126.8 L19.85 -128.8 L19.87 -130.8 L19.88 -132.8 L19.89 -134.8 L19.9 -136.9 L21.72 -135.9 L23.54 -134.9 L25.36 -133.9 L27.18 -133 L29 -132 L30.82 -131 L32.64 -130.1 L34.46 -129.1 L36.28 -128.1 L38.1 -127.2 L38.09 -125.2 L38.08 -123.2 L38.07 -121.2 L38.05 -119.2 L38.04 -117.2 L38.03 -115.2 L38.02 -113.2 L38.01 -111.2 L38 -109.2 Z " />
<path stroke="rgb(0,0,0)" stroke-opacity="1" fill="rgb(173,200,200)" fill-opacity="1" id="swap3_1_" d="M20.8 -127.3 L18.98 -128.2 L17.16 -129.2 L15.34 -130.1 L13.52 -131.1 L11.7 -132.1 L9.88 -133 L8.06 -134 L6.24 -134.9 L4.42 -135.9 L2.6 -136.9 L2.611 -138.9 L2.622 -140.9 L2.633 -142.9 L2.644 -144.9 L2.656 -146.9 L2.667 -148.9 L2.678 -150.9 L2.689 -152.9 L2.7 -155 L4.52 -154 L6.34 -153 L8.16 -152.1 L9.98 -151.1 L11.8 -150.2 L13.62 -149.2 L15.44 -148.2 L17.26 -147.3 L19.08 -146.3 L20.9 -145.4 L20.89 -143.3 L20.88 -141.3 L20.87 -139.3 L20.86 -137.3 L20.84 -135.3 L20.83 -133.3 L20.82 -131.3 L20.81 -129.3 L20.8 -127.3 Z " />
<path stroke="rgb(0,0,0)" stroke-opacity="1" fill="rgb(173,200,200)" fill-opacity="1" id="swap2_1_" d="M3.701 -122.6 L1.881 -123.6 L0.06122 -124.6 L-1.759 -125.5 L-3.579 -126.5 L-5.399 -127.4 L-7.219 -128.4 L-9.039 -129.4 L-10.86 -130.3 L-12.68 -131.3 L-14.5 -132.2 L-14.49 -134.3 L-14.48 -136.3 L-14.47 -138.3 L-14.45 -140.3 L-14.44 -142.3 L-14.43 -144.3 L-14.42 -146.3 L-14.41 -148.3 L-14.4 -150.3 L-12.57 -149.4 L-10.74 -148.4 L-8.909 -147.5 L-7.079 -146.5 L-5.249 -145.5 L-3.419 -144.6 L-1.589 -143.6 L0.2412 -142.7 L2.071 -141.7 L3.901 -140.7 L3.879 -138.7 L3.857 -136.7 L3.835 -134.7 L3.812 -132.7 L3.79 -130.7 L3.768 -128.7 L3.746 -126.7 L3.723 -124.7 L3.701 -122.6 Z " />
<path stroke="rgb(0,0,0)" stroke-opacity="1" fill="rgb(173,200,200)" fill-opacity="1" id="swap4_1_" d="M20.7 -104.8 L18.88 -105.8 L17.06 -106.8 L15.24 -107.8 L13.42 -108.8 L11.6 -109.7 L9.78 -110.7 L7.96 -111.7 L6.14 -112.7 L4.32 -113.7 L2.5 -114.6 L2.511 -116.6 L2.522 -118.6 L2.533 -120.6 L2.544 -122.6 L2.556 -124.6 L2.567 -126.6 L2.578 -128.6 L2.589 -130.6 L2.6 -132.6 L4.43 -131.7 L6.26 -130.7 L8.09 -129.7 L9.92 -128.8 L11.75 -127.8 L13.58 -126.8 L15.41 -125.9 L17.24 -124.9 L19.07 -123.9 L20.9 -122.9 L20.88 -120.9 L20.86 -118.9 L20.83 -116.9 L20.81 -114.9 L20.79 -112.9 L20.77 -110.9 L20.74 -108.9 L20.72 -106.9 L20.7 -104.8 Z " />
<path stroke="rgb(0,0,0)" stroke-opacity="1" fill="rgb(244,227,211)" fill-opacity="1" id="a10_5_" d="M40 -46.65 L38.24 -45.63 L36.48 -44.6 L34.71 -43.57 L32.95 -42.55 L31.19 -41.53 L29.42 -40.5 L27.66 -39.48 L25.9 -38.45 L24.14 -37.43 L22.37 -36.4 L20.61 -35.38 L18.85 -34.35 L17.09 -33.33 L15.32 -32.3 L13.56 -31.28 L11.8 -30.25 L10.04 -31.28 L8.275 -32.3 L6.512 -33.33 L4.75 -34.35 L2.987 -35.38 L1.225 -36.4 L-0.5375 -37.43 L-2.3 -38.45 L-4.063 -39.48 L-5.825 -40.5 L-7.587 -41.53 L-9.35 -42.55 L-11.11 -43.57 L-12.87 -44.6 L-14.64 -45.63 L-16.4 -46.65 L-14.64 -47.68 L-12.87 -48.7 L-11.11 -49.72 L-9.35 -50.75 L-7.587 -51.77 L-5.825 -52.8 L-4.063 -53.82 L-2.3 -54.85 L-0.5375 -55.87 L1.225 -56.9 L2.987 -57.92 L4.75 -58.95 L6.512 -59.97 L8.275 -61 L10.04 -62.02 L11.8 -63.05 L13.56 -62.02 L15.32 -61 L17.09 -59.97 L18.85 -58.95 L20.61 -57.92 L22.37 -56.9 L24.14 -55.87 L25.9 -54.85 L27.66 -53.82 L29.42 -52.8 L31.19 -51.77 L32.95 -50.75 L34.71 -49.72 L36.48 -48.7 L38.24 -47.68 L40 -46.65 Z " />
<path stroke="rgb(0,0,0)" stroke-opacity="1" fill="rgb(244,227,211)" fill-opacity="1" id="a10_4_" d="M40.5 -11.85 L40.5 -13.85 L40.5 -15.85 L40.5 -17.85 L40.5 -19.85 L40.5 -21.85 L40.5 -23.85 L40.5 -25.85 L40.5 -27.85 L40.5 -29.85 L40.5 -31.85 L40.5 -33.85 L40.5 -35.85 L40.5 -37.85 L40.5 -39.85 L40.5 -41.85 L40.5 -43.85 L40.5 -45.85 L38.74 -44.83 L36.98 -43.8 L35.21 -42.78 L33.45 -41.75 L31.69 -40.73 L29.92 -39.7 L28.16 -38.68 L26.4 -37.65 L24.64 -36.62 L22.87 -35.6 L21.11 -34.57 L19.35 -33.55 L17.59 -32.52 L15.82 -31.5 L14.06 -30.47 L12.3 -29.45 L12.3 -27.44 L12.3 -25.44 L12.3 -23.43 L12.3 -21.43 L12.3 -19.42 L12.3 -17.42 L12.3 -15.41 L12.3 -13.41 L12.3 -11.4 L12.3 -9.397 L12.3 -7.392 L12.3 -5.387 L12.3 -3.382 L12.3 -1.376 L12.3 0.6289 L12.3 2.634 L12.3 4.639 L12.3 6.645 L12.3 8.65 L13.96 7.444 L15.62 6.238 L17.28 5.032 L18.94 3.826 L20.59 2.621 L22.25 1.415 L23.91 0.2088 L25.57 -0.9971 L27.23 -2.203 L28.89 -3.409 L30.55 -4.615 L32.21 -5.821 L33.86 -7.026 L35.52 -8.232 L37.18 -9.438 L38.84 -10.64 L40.5 -11.85 Z " />
<path stroke="rgb(0,0,0)" stroke-opacity="1" fill="rgb(244,227,211)" fill-opacity="1" id="a10_3_" d="M-16.8 -45.85 L-16.8 -43.85 L-16.8 -41.85 L-16.8 -39.85 L-16.8 -37.85 L-16.8 -35.85 L-16.8 -33.85 L-16.8 -31.85 L-16.8 -29.85 L-16.8 -27.85 L-16.8 -25.85 L-16.8 -23.85 L-16.8 -21.85 L-16.8 -19.85 L-16.8 -17.85 L-16.8 -15.85 L-16.8 -13.85 L-16.8 -11.85 L-15.14 -10.64 L-13.48 -9.438 L-11.82 -8.232 L-10.16 -7.026 L-8.506 -5.821 L-6.847 -4.615 L-5.188 -3.409 L-3.529 -2.203 L-1.871 -0.9971 L-0.2118 0.2088 L1.447 1.415 L3.106 2.621 L4.765 3.826 L6.424 5.032 L8.082 6.238 L9.741 7.444 L11.4 8.65 L11.4 6.645 L11.4 4.639 L11.4 2.634 L11.4 0.6289 L11.4 -1.376 L11.4 -3.382 L11.4 -5.387 L11.4 -7.392 L11.4 -9.397 L11.4 -11.4 L11.4 -13.41 L11.4 -15.41 L11.4 -17.42 L11.4 -19.42 L11.4 -21.43 L11.4 -23.43 L11.4 -25.44 L11.4 -27.44 L11.4 -29.45 L9.637 -30.47 L7.875 -31.5 L6.112 -32.52 L4.35 -33.55 L2.587 -34.57 L0.825 -35.6 L-0.9375 -36.62 L-2.7 -37.65 L-4.462 -38.68 L-6.225 -39.7 L-7.987 -40.73 L-9.75 -41.75 L-11.51 -42.78 L-13.27 -43.8 L-15.04 -44.83 L-16.8 -45.85 Z " />
<path stroke="rgb(0,0,0)" stroke-opacity="1" fill="rgb(200,200,200)" fill-opacity="1" id="circ1_5_" d="M-62.51 14.35 L-64.09 15.27 L-65.67 16.19 L-67.25 17.11 L-68.83 18.03 L-70.41 18.95 L-71.99 18.03 L-73.57 17.11 L-75.15 16.19 L-76.73 15.27 L-78.31 14.35 L-76.73 13.43 L-75.15 12.51 L-73.57 11.59 L-71.99 10.67 L-70.41 9.748 L-68.83 10.67 L-67.25 11.59 L-65.67 12.51 L-64.09 13.43 L-62.51 14.35 Z " />
<path stroke="rgb(0,0,0)" stroke-opacity="1" fill="rgb(200,200,200)" fill-opacity="1" id="circ1_4_" d="M-62.41 24.15 L-62.41 22.25 L-62.41 20.35 L-62.41 18.45 L-62.41 16.55 L-62.41 14.65 L-63.99 15.55 L-65.57 16.45 L-67.15 17.35 L-68.73 18.25 L-70.31 19.15 L-70.31 21.29 L-70.31 23.43 L-70.31 25.57 L-70.31 27.71 L-70.31 29.85 L-68.73 28.71 L-67.15 27.57 L-65.57 26.43 L-63.99 25.29 L-62.41 24.15 Z " />
<path stroke="rgb(0,0,0)" stroke-opacity="1" fill="rgb(200,200,200)" fill-opacity="1" id="circ1_3_" d="M-78.51 14.65 L-78.51 16.55 L-78.51 18.45 L-78.51 20.35 L-78.51 22.25 L-78.51 24.15 L-76.93 25.29 L-75.35 26.43 L-73.77 27.57 L-72.19 28.71 L-70.61 29.85 L-70.61 27.71 L-70.61 25.57 L-70.61 23.43 L-70.61 21.29 L-70.61 19.15 L-72.19 18.25 L-73.77 17.35 L-75.35 16.45 L-76.93 15.55 L-78.51 14.65 Z " />
<path stroke="rgb(0,0,0)" stroke-opacity="1" fill="rgb(200,200,200)" fill-opacity="1" id="circ2_5_" d="M-98.59 -42.25 L-100.2 -41.33 L-101.8 -40.41 L-103.3 -39.49 L-104.9 -38.57 L-106.5 -37.65 L-108.1 -38.57 L-109.7 -39.49 L-111.2 -40.41 L-112.8 -41.33 L-114.4 -42.25 L-112.8 -43.15 L-111.2 -44.05 L-109.7 -44.95 L-108.1 -45.85 L-106.5 -46.75 L-104.9 -45.85 L-103.3 -44.95 L-101.8 -44.05 L-100.2 -43.15 L-98.59 -42.25 Z " />
<path stroke="rgb(0,0,0)" stroke-opacity="1" fill="rgb(200,200,200)" fill-opacity="1" id="circ2_4_" d="M-98.49 -32.45 L-98.49 -34.35 L-98.49 -36.25 L-98.49 -38.15 L-98.49 -40.05 L-98.49 -41.95 L-100.1 -41.03 L-101.7 -40.11 L-103.2 -39.19 L-104.8 -38.27 L-106.4 -37.35 L-106.4 -35.23 L-106.4 -33.11 L-106.4 -30.99 L-106.4 -28.87 L-106.4 -26.75 L-104.8 -27.89 L-103.2 -29.03 L-101.7 -30.17 L-100.1 -31.31 L-98.49 -32.45 Z " />
<path stroke="rgb(0,0,0)" stroke-opacity="1" fill="rgb(200,200,200)" fill-opacity="1" id="circ2_3_" d="M-114.6 -41.95 L-114.6 -40.05 L-114.6 -38.15 L-114.6 -36.25 L-114.6 -34.35 L-114.6 -32.45 L-113 -31.31 L-111.4 -30.17 L-109.9 -29.03 L-108.3 -27.89 L-106.7 -26.75 L-106.7 -28.87 L-106.7 -30.99 L-106.7 -33.11 L-106.7 -35.23 L-106.7 -37.35 L-108.3 -38.27 L-109.9 -39.19 L-111.4 -40.11 L-113 -41.03 L-114.6 -41.95 Z " />
<path stroke="rgb(0,0,0)" stroke-opacity="1" fill="rgb(148,200,200)" fill-opacity="1" id="bb1" d="M106.5 -55.23 L105.7 -57.04 L104.9 -58.85 L104 -60.66 L103.2 -62.47 L102.3 -64.28 L101.5 -66.09 L100.6 -67.9 L99.81 -69.71 L98.96 -71.52 L98.12 -73.33 L97.28 -75.14 L96.44 -76.95 L95.59 -78.76 L94.75 -80.57 L93.91 -82.38 L93.06 -84.19 L92.22 -86 L90.22 -86.42 L88.23 -86.84 L86.23 -87.26 L84.23 -87.68 L82.23 -88.1 L80.23 -88.52 L78.23 -88.94 L76.24 -89.37 L74.24 -89.79 L72.24 -90.21 L70.24 -90.63 L68.24 -91.05 L66.93 -89.48 L65.61 -87.92 L64.29 -86.36 L62.97 -84.79 L61.65 -83.23 L60.33 -81.66 L59.02 -80.1 L57.7 -78.54 L56.38 -76.97 L55.06 -75.41 L53.74 -73.84 L52.42 -72.28 L51.11 -70.72 L49.79 -69.15 L48.47 -67.59 L48.26 -65.57 L48.04 -63.56 L47.83 -61.54 L47.62 -59.53 L47.41 -57.51 L47.19 -55.5 L46.98 -53.48 L46.77 -51.47 L46.55 -49.45 L46.34 -47.43 L46.13 -45.42 L45.92 -43.4 L45.7 -41.39 L45.49 -39.37 L45.28 -37.36 L45.07 -35.34 L44.85 -33.33 L44.64 -31.31 L44.43 -29.3 L45.27 -27.49 L46.11 -25.68 L46.96 -23.87 L47.8 -22.06 L48.64 -20.25 L49.48 -18.44 L50.33 -16.63 L51.17 -14.82 L52.01 -13.01 L52.85 -11.2 L53.7 -9.388 L54.54 -7.579 L55.38 -5.769 L56.23 -3.959 L57.07 -2.149 L57.91 -0.3393 L58.75 1.471 L60.76 1.902 L62.78 2.333 L64.79 2.765 L66.8 3.196 L68.81 3.628 L70.82 4.059 L72.83 4.491 L74.84 4.922 L76.85 5.354 L78.86 5.785 L80.87 6.216 L82.89 6.648 L84.2 5.084 L85.52 3.52 L86.84 1.956 L88.16 0.3917 L89.48 -1.172 L90.8 -2.736 L92.11 -4.3 L93.43 -5.865 L94.75 -7.429 L96.07 -8.993 L97.39 -10.56 L98.71 -12.12 L100 -13.68 L101.3 -15.25 L102.7 -16.81 L102.9 -18.83 L103.1 -20.86 L103.3 -22.88 L103.5 -24.9 L103.7 -26.92 L103.9 -28.95 L104.1 -30.97 L104.3 -32.99 L104.5 -35.01 L104.7 -37.03 L104.9 -39.06 L105.1 -41.08 L105.3 -43.1 L105.5 -45.12 L105.7 -47.14 L105.9 -49.17 L106.1 -51.19 L106.3 -53.21 L106.5 -55.23 Z " />
<path stroke="rgb(0,0,0)" stroke-opacity="1" fill="rgb(236,216,157)" fill-opacity="1" id="scltrs1" d="M-161.9 2.95 L-163.1 4.503 L-164.3 6.056 L-165.6 7.608 L-166.8 9.161 L-168 10.71 L-169.2 12.27 L-170.5 13.82 L-171.7 15.37 L-172.9 16.93 L-174.1 18.48 L-175.4 20.03 L-176.6 21.58 L-177.8 23.14 L-179 24.69 L-180.3 26.24 L-181.5 27.79 L-182.7 29.35 L-183.9 30.9 L-185.2 32.45 L-186.4 34.01 L-187.6 35.56 L-188.8 37.11 L-190.1 38.66 L-191.3 40.22 L-192.5 41.77 L-193.7 43.32 L-195 44.88 L-196.2 46.43 L-197.4 47.98 L-198.7 49.53 L-199.9 51.09 L-201.1 52.64 L-202.3 54.19 L-203.6 55.74 L-204.8 57.3 L-206 58.85 L-204.2 59.69 L-202.4 60.53 L-200.6 61.37 L-198.8 62.21 L-197 63.05 L-195.2 63.89 L-193.4 64.74 L-191.6 65.58 L-189.8 66.42 L-188 67.26 L-186.2 68.1 L-184.4 68.94 L-182.6 69.78 L-180.8 70.62 L-179 71.46 L-177.2 72.3 L-175.4 73.14 L-173.6 73.98 L-171.8 74.83 L-170 75.67 L-168.2 76.51 L-166.4 77.35 L-164.6 78.19 L-162.8 79.03 L-161 79.87 L-159.2 80.71 L-157.4 81.55 L-155.6 82.39 L-153.8 83.23 L-152 84.07 L-150.2 84.92 L-148.4 85.76 L-146.6 86.6 L-144.8 87.44 L-143 88.28 L-141.2 89.12 L-139.4 89.96 L-137.6 90.8 L-135.8 91.64 L-134 92.48 L-132.2 93.32 L-130.4 94.16 L-128.6 95.01 L-126.8 95.85 L-125 96.69 L-123.2 97.53 L-121.4 98.37 L-119.6 99.21 L-117.8 100.1 L-118.6 98.22 L-119.5 96.39 L-120.3 94.55 L-121.1 92.72 L-122 90.89 L-122.8 89.06 L-123.6 87.23 L-124.5 85.39 L-125.3 83.56 L-126.1 81.73 L-127 79.9 L-127.8 78.07 L-128.6 76.23 L-129.4 74.4 L-130.3 72.57 L-131.1 70.74 L-131.9 68.9 L-132.8 67.07 L-133.6 65.24 L-134.4 63.41 L-135.3 61.58 L-136.1 59.74 L-136.9 57.91 L-137.8 56.08 L-138.6 54.25 L-139.4 52.42 L-140.3 50.58 L-141.1 48.75 L-141.9 46.92 L-142.8 45.09 L-143.6 43.26 L-144.4 41.42 L-145.3 39.59 L-146.1 37.76 L-146.9 35.93 L-147.8 34.1 L-148.6 32.26 L-149.4 30.43 L-150.3 28.6 L-151.1 26.77 L-151.9 24.93 L-152.7 23.1 L-153.6 21.27 L-154.4 19.44 L-155.2 17.61 L-156.1 15.77 L-156.9 13.94 L-157.7 12.11 L-158.6 10.28 L-159.4 8.446 L-160.2 6.614 L-161.1 4.782 L-161.9 2.95 Z " />
<path stroke="rgb(0,0,0)" stroke-opacity="1" fill="rgb(255,255,255)" fill-opacity="1" id="a5" d="M-71.43 134.3 L-71.54 136.7 L-71.85 138.8 L-72.37 140.8 L-73.07 142.7 L-73.95 144.4 L-75 145.8 L-76.21 147.2 L-77.58 148.3 L-79.08 149.2 L-80.72 150 L-82.49 150.5 L-84.37 150.8 L-86.35 150.9 L-88.43 150.9 L-90.6 150.5 L-92.85 150 L-95.16 149.2 L-97.53 148.2 L-99.32 147.4 L-101.1 146.4 L-102.8 145.3 L-104.5 144.1 L-106.1 142.8 L-107.7 141.5 L-109.2 140.1 L-110.7 138.6 L-112.1 137 L-113.5 135.4 L-114.8 133.7 L-116 132 L-117.1 130.3 L-118.2 128.5 L-119.2 126.7 L-120.1 124.9 L-120.9 123 L-121.6 121.2 L-122.2 119.3 L-122.7 117.4 L-123.1 115.6 L-123.4 113.7 L-123.6 111.9 L-123.6 110 L-123.5 107.7 L-123.2 105.6 L-122.7 103.6 L-122 101.7 L-121.1 100 L-120.1 98.56 L-118.9 97.25 L-117.5 96.12 L-116 95.19 L-114.3 94.45 L-112.6 93.91 L-110.7 93.58 L-108.7 93.45 L-106.6 93.54 L-104.5 93.85 L-102.2 94.39 L-99.91 95.15 L-97.53 96.15 L-95.75 97.04 L-93.99 98.03 L-92.28 99.12 L-90.6 100.3 L-88.97 101.6 L-87.38 102.9 L-85.85 104.3 L-84.37 105.8 L-82.95 107.4 L-81.59 109 L-80.3 110.7 L-79.08 112.4 L-77.94 114.1 L-76.88 115.9 L-75.89 117.7 L-75 119.5 L-74.2 121.4 L-73.49 123.2 L-72.88 125.1 L-72.37 127 L-71.96 128.8 L-71.67 130.7 L-71.49 132.5 L-71.43 134.3 Z " />
<path stroke="rgb(0,0,0)" stroke-opacity="1" fill="rgb(255,255,255)" fill-opacity="1" id="a17" d="M-96 -133.5 L-97.21 -132 L-98.42 -130.5 L-99.62 -129 L-100.8 -127.4 L-102 -125.9 L-103.2 -124.4 L-104.5 -122.8 L-105.7 -121.3 L-106.9 -119.8 L-108.1 -118.2 L-109.3 -116.7 L-110.5 -115.2 L-111.7 -113.7 L-109.9 -112.8 L-108 -111.9 L-106.2 -111.1 L-104.3 -110.2 L-102.5 -109.3 L-100.6 -108.5 L-98.77 -107.6 L-96.92 -106.7 L-95.08 -105.9 L-93.23 -105 L-91.38 -104.1 L-89.54 -103.3 L-87.69 -102.4 L-85.84 -101.5 L-83.99 -100.7 L-82.15 -99.81 L-80.3 -98.95 L-81.13 -100.8 L-81.95 -102.6 L-82.78 -104.4 L-83.61 -106.2 L-84.43 -108.1 L-85.26 -109.9 L-86.08 -111.7 L-86.91 -113.5 L-87.74 -115.3 L-88.56 -117.2 L-89.39 -119 L-90.22 -120.8 L-91.04 -122.6 L-91.87 -124.4 L-92.69 -126.3 L-93.52 -128.1 L-94.35 -129.9 L-95.17 -131.7 L-96 -133.5 Z " />
<path stroke="rgb(0,0,0)" stroke-opacity="1" fill="rgb(255,255,255)" fill-opacity="1" id="a16" d="M-96 -75.9 L-94.79 -77.43 L-93.58 -78.96 L-92.38 -80.49 L-91.17 -82.02 L-89.96 -83.56 L-88.75 -85.09 L-87.55 -86.62 L-86.34 -88.15 L-85.13 -89.68 L-83.92 -91.21 L-82.72 -92.74 L-81.51 -94.27 L-80.3 -95.8 L-82.15 -96.66 L-83.99 -97.52 L-85.84 -98.38 L-87.69 -99.24 L-89.54 -100.1 L-91.38 -101 L-93.23 -101.8 L-95.08 -102.7 L-96.92 -103.5 L-98.77 -104.4 L-100.6 -105.2 L-102.5 -106.1 L-104.3 -107 L-106.2 -107.8 L-108 -108.7 L-109.9 -109.5 L-111.7 -110.4 L-110.9 -108.6 L-110 -106.8 L-109.2 -105 L-108.4 -103.1 L-107.6 -101.3 L-106.7 -99.51 L-105.9 -97.69 L-105.1 -95.88 L-104.3 -94.06 L-103.4 -92.24 L-102.6 -90.43 L-101.8 -88.61 L-101 -86.8 L-100.1 -84.98 L-99.31 -83.16 L-98.48 -81.35 L-97.65 -79.53 L-96.83 -77.72 L-96 -75.9 Z " />
<path stroke="rgb(0,0,0)" stroke-opacity="1" fill="rgb(173,200,200)" fill-opacity="1" id="swap2" d="M-57.1 -65.05 L-57.35 -62.93 L-58.08 -61.22 L-59.22 -59.95 L-60.71 -59.15 L-62.51 -58.84 L-64.56 -59.07 L-66.8 -59.85 L-68.55 -60.82 L-70.2 -62.04 L-71.71 -63.46 L-73.07 -65.06 L-74.23 -66.77 L-75.18 -68.57 L-75.9 -70.41 L-76.34 -72.25 L-76.5 -74.05 L-76.24 -76.14 L-75.52 -77.84 L-74.38 -79.11 L-72.88 -79.92 L-71.08 -80.24 L-69.04 -80.03 L-66.8 -79.25 L-65.04 -78.28 L-63.4 -77.07 L-61.88 -75.66 L-60.53 -74.08 L-59.37 -72.37 L-58.41 -70.58 L-57.7 -68.73 L-57.25 -66.88 L-57.1 -65.05 Z " />
<path stroke="rgb(0,0,0)" stroke-opacity="1" fill="rgb(173,200,200)" fill-opacity="1" id="swap4" d="M-33.4 -47.45 L-33.65 -45.33 L-34.38 -43.62 L-35.52 -42.35 L-37.02 -41.55 L-38.82 -41.24 L-40.86 -41.47 L-43.1 -42.25 L-44.85 -43.22 L-46.5 -44.44 L-48.01 -45.86 L-49.37 -47.45 L-50.53 -49.17 L-51.49 -50.97 L-52.2 -52.81 L-52.65 -54.65 L-52.8 -56.45 L-52.55 -58.57 L-51.82 -60.28 L-50.68 -61.55 L-49.18 -62.35 L-47.38 -62.66 L-45.34 -62.43 L-43.1 -61.65 L-41.35 -60.68 L-39.7 -59.47 L-38.19 -58.06 L-36.83 -56.48 L-35.67 -54.77 L-34.71 -52.97 L-34 -51.13 L-33.55 -49.28 L-33.4 -47.45 Z " />
<path stroke="rgb(0,0,0)" stroke-opacity="1" fill="rgb(173,200,200)" fill-opacity="1" id="swap3" d="M-33.4 -62.85 L-33.65 -60.73 L-34.38 -59.02 L-35.52 -57.75 L-37.02 -56.95 L-38.82 -56.64 L-40.86 -56.87 L-43.1 -57.65 L-44.85 -58.62 L-46.5 -59.84 L-48.01 -61.27 L-49.37 -62.86 L-50.53 -64.57 L-51.49 -66.37 L-52.2 -68.21 L-52.65 -70.05 L-52.8 -71.85 L-52.55 -73.94 L-51.82 -75.64 L-50.68 -76.91 L-49.18 -77.72 L-47.38 -78.04 L-45.34 -77.83 L-43.1 -77.05 L-41.35 -76.08 L-39.7 -74.87 L-38.19 -73.46 L-36.83 -71.88 L-35.67 -70.17 L-34.71 -68.38 L-34 -66.53 L-33.55 -64.68 L-33.4 -62.85 Z " />
<path stroke="rgb(0,0,0)" stroke-opacity="1" fill="rgb(173,200,200)" fill-opacity="1" id="swap1" d="M-9.301 -46.25 L-9.555 -44.13 L-10.28 -42.42 L-11.42 -41.15 L-12.92 -40.35 L-14.72 -40.04 L-16.76 -40.27 L-19 -41.05 L-20.76 -42.02 L-22.4 -43.24 L-23.92 -44.67 L-25.27 -46.26 L-26.43 -47.97 L-27.39 -49.77 L-28.1 -51.61 L-28.55 -53.45 L-28.7 -55.25 L-28.45 -57.34 L-27.72 -59.04 L-26.58 -60.31 L-25.09 -61.12 L-23.29 -61.44 L-21.24 -61.23 L-19 -60.45 L-17.25 -59.48 L-15.6 -58.26 L-14.09 -56.84 L-12.73 -55.24 L-11.57 -53.53 L-10.62 -51.73 L-9.903 -49.89 L-9.456 -48.05 L-9.301 -46.25 Z " />
<path stroke="rgb(0,0,0)" stroke-opacity="1" fill="rgb(255,255,255)" fill-opacity="1" id="secscl1" d="M-0.7217 120 L-2.258 119.3 L-3.793 118.6 L-5.329 117.9 L-6.865 117.2 L-8.401 116.5 L-9.936 115.8 L-11.47 115 L-13.01 114.3 L-14.54 113.6 L-16.08 112.9 L-17.62 112.2 L-19.15 111.5 L-20.69 110.8 L-22.22 110 L-23.29 111.4 L-24.36 112.7 L-25.42 114.1 L-26.49 115.5 L-27.56 116.8 L-28.62 118.2 L-29.69 119.5 L-30.76 120.9 L-31.82 122.2 L-32.89 123.6 L-32.22 125.1 L-31.56 126.5 L-30.89 128 L-30.22 129.5 L-29.56 130.9 L-28.89 132.4 L-28.22 133.9 L-27.56 135.3 L-26.89 136.8 L-26.22 138.3 L-25.56 139.7 L-24.89 141.2 L-24.22 142.7 L-23.56 144.1 L-22.89 145.6 L-22.22 147.1 L-20.69 147.8 L-19.15 148.5 L-17.62 149.2 L-16.08 149.9 L-14.54 150.6 L-13.01 151.3 L-11.47 152 L-9.936 152.8 L-8.401 153.5 L-6.865 154.2 L-5.329 154.9 L-3.793 155.6 L-2.258 156.3 L-0.7217 157 L0.3451 155.7 L1.412 154.3 L2.479 153 L3.545 151.6 L4.612 150.3 L5.679 148.9 L6.746 147.6 L7.813 146.2 L8.879 144.9 L9.946 143.5 L9.279 142.1 L8.613 140.6 L7.946 139.1 L7.279 137.7 L6.612 136.2 L5.946 134.7 L5.279 133.3 L4.612 131.8 L3.945 130.3 L3.279 128.8 L2.612 127.4 L1.945 125.9 L1.278 124.4 L0.6117 123 L-0.05499 121.5 L-0.7217 120 Z " />
</g>
</g>
</svg>
