<!DOCTYPE svg>
<svg xmlns="http://www.w3.org/2000/svg" xmlns:xlink="http://www.w3.org/1999/xlink" width="1080" height="1080">
<g transform="translate(540.000000,540.000000)">
<g transform="scale(2,2)">
<path stroke="rgb(0,0,0)" stroke-opacity="1" fill="rgb(148,200,200)" fill-opacity="1" id="bb1_2_" d="M-163.4 -60.52 L-161.5 -60 L-159.6 -59.48 L-157.7 -58.96 L-155.8 -58.44 L-153.8 -57.92 L-151.9 -57.4 L-150 -56.88 L-148.1 -56.36 L-146.2 -55.84 L-144.2 -55.32 L-142.3 -54.8 L-140.4 -54.28 L-138.5 -53.76 L-136.6 -53.24 L-134.6 -52.72 L-132.7 -52.21 L-130.8 -51.69 L-128.9 -51.17 L-127 -50.65 L-125 -50.13 L-123.1 -49.61 L-121.2 -49.09 L-119.3 -48.57 L-117.4 -48.05 L-115.4 -47.53 L-113.5 -47.01 L-111.6 -46.49 L-109.7 -45.97 L-107.7 -45.45 L-107.4 -43.46 L-107.1 -41.48 L-106.8 -39.49 L-106.5 -37.5 L-106.2 -35.51 L-105.9 -33.53 L-105.6 -31.54 L-105.3 -29.55 L-105 -27.56 L-104.7 -25.58 L-104.4 -23.59 L-104.1 -21.6 L-103.8 -19.61 L-103.5 -17.63 L-103.2 -15.64 L-102.9 -13.65 L-102.6 -11.66 L-102.3 -9.676 L-102 -7.689 L-101.7 -5.701 L-101.4 -3.714 L-101.1 -1.727 L-100.8 0.2609 L-100.5 2.248 L-100.2 4.236 L-99.93 6.223 L-99.62 8.211 L-101.5 7.691 L-103.5 7.172 L-105.4 6.652 L-107.3 6.132 L-109.2 5.613 L-111.1 5.093 L-113.1 4.574 L-115 4.054 L-116.9 3.535 L-118.8 3.015 L-120.7 2.495 L-122.7 1.976 L-124.6 1.456 L-126.5 0.9366 L-128.4 0.417 L-130.3 -0.1026 L-132.3 -0.6221 L-134.2 -1.142 L-136.1 -1.661 L-138 -2.181 L-140 -2.7 L-141.9 -3.22 L-143.8 -3.74 L-145.7 -4.259 L-147.6 -4.779 L-149.6 -5.298 L-151.5 -5.818 L-153.4 -6.338 L-155.3 -6.857 L-155.6 -8.845 L-155.9 -10.83 L-156.2 -12.82 L-156.5 -14.81 L-156.8 -16.79 L-157.1 -18.78 L-157.4 -20.77 L-157.7 -22.76 L-158 -24.74 L-158.3 -26.73 L-158.6 -28.72 L-158.9 -30.71 L-159.2 -32.69 L-159.5 -34.68 L-159.8 -36.67 L-160.1 -38.66 L-160.4 -40.64 L-160.7 -42.63 L-161 -44.62 L-161.3 -46.61 L-161.6 -48.59 L-161.9 -50.58 L-162.2 -52.57 L-162.5 -54.56 L-162.8 -56.54 L-163.1 -58.53 L-163.4 -60.52 Z " />
<path stroke="rgb(0,0,0)" stroke-opacity="1" fill="rgb(236,216,157)" fill-opacity="1" id="pr2_1_" d="M72.7 104.6 L70.94 103.7 L69.18 102.8 L67.41 101.9 L65.65 101 L63.89 100.1 L62.13 99.25 L60.36 98.35 L58.6 97.45 L58.63 95.52 L58.66 93.59 L58.69 91.66 L58.71 89.74 L58.74 87.81 L58.77 85.88 L58.8 83.95 L60.55 84.84 L62.3 85.73 L64.05 86.61 L65.8 87.5 L67.55 88.39 L69.3 89.28 L71.05 90.16 L72.8 91.05 L72.79 92.99 L72.77 94.94 L72.76 96.88 L72.74 98.82 L72.73 100.8 L72.71 102.7 L72.7 104.6 Z " />
<path stroke="rgb(0,0,0)" stroke-opacity="1" fill="rgb(236,216,157)" fill-opacity="1" id="pr1_1_" d="M54.9 96.05 L53.15 95.15 L51.4 94.25 L49.65 93.35 L47.9 92.45 L46.15 91.55 L44.4 90.65 L42.65 89.75 L40.9 88.85 L40.91 86.92 L40.93 84.99 L40.94 83.06 L40.96 81.14 L40.97 79.21 L40.99 77.28 L41 75.35 L42.75 76.25 L44.5 77.15 L46.25 78.05 L48 78.95 L49.75 79.85 L51.5 80.75 L53.25 81.65 L55 82.55 L54.99 84.48 L54.97 86.41 L54.96 88.34 L54.94 90.26 L54.93 92.19 L54.91 94.12 L54.9 96.05 Z " />
<path stroke="rgb(0,0,0)" stroke-opacity="1" fill="rgb(236,216,157)" fill-opacity="1" id="pr3_1_" d="M54.6 113.6 L52.85 112.7 L51.1 111.8 L49.35 110.9 L47.6 110 L45.85 109.1 L44.1 108.1 L42.35 107.2 L40.6 106.3 L40.61 104.4 L40.63 102.5 L40.64 100.6 L40.66 98.64 L40.67 96.71 L40.69 94.78 L40.7 92.85 L42.45 93.75 L44.2 94.65 L45.95 95.55 L47.7 96.45 L49.45 97.35 L51.2 98.25 L52.95 99.15 L54.7 100.1 L54.69 102 L54.67 103.9 L54.66 105.8 L54.64 107.8 L54.63 109.7 L54.61 111.6 L54.6 113.6 Z " />
<path stroke="rgb(0,0,0)" stroke-opacity="1" fill="rgb(236,216,157)" fill-opacity="1" id="pr4_1_" d="M72.3 121.7 L70.54 120.9 L68.77 120 L67.01 119.1 L65.25 118.2 L63.49 117.3 L61.73 116.4 L59.96 115.5 L58.2 114.6 L58.21 112.7 L58.23 110.8 L58.24 108.9 L58.26 106.9 L58.27 105 L58.29 103.1 L58.3 101.1 L60.06 102 L61.82 102.9 L63.59 103.8 L65.35 104.7 L67.11 105.6 L68.87 106.5 L70.64 107.4 L72.4 108.2 L72.39 110.2 L72.37 112.1 L72.36 114 L72.34 116 L72.33 117.9 L72.31 119.8 L72.3 121.7 Z " />
<path stroke="rgb(0,0,0)" stroke-opacity="1" fill="rgb(238,200,200)" fill-opacity="1" id="ll1_1_" d="M232.9 195.6 L229.2 193.9 L225.6 192.3 L222 190.6 L218.4 188.9 L214.8 187.2 L211.2 185.5 L207.6 183.8 L204 182.1 L200.4 180.5 L196.8 178.8 L193.1 177.1 L189.5 175.4 L185.9 173.7 L182.3 172 L178.7 170.3 L175.1 168.6 L175.1 164.6 L175.1 160.6 L175.1 156.6 L175.1 152.5 L175.1 148.5 L175.1 144.5 L175.1 140.4 L175.1 136.4 L175.1 132.4 L175.1 128.4 L175.1 124.3 L175.1 120.3 L175.1 116.3 L175.1 112.3 L178.7 114 L182.3 115.7 L185.9 117.4 L189.5 119.1 L193.1 120.8 L196.8 122.5 L200.4 124.2 L204 125.9 L207.6 127.6 L211.2 129.3 L214.8 131 L218.4 132.7 L222 134.4 L225.6 136.1 L229.2 137.8 L232.9 139.5 L232.9 143.5 L232.9 147.5 L232.9 151.5 L232.9 155.5 L232.9 159.5 L232.9 163.5 L232.9 167.5 L232.9 171.6 L232.9 175.6 L232.9 179.6 L232.9 183.6 L232.9 187.6 L232.9 191.6 L232.9 195.6 Z " />
<path stroke="rgb(0,0,0)" stroke-opacity="1" fill="rgb(255,255,255)" fill-opacity="1" id="cl1_1_" d="M37.98 97.72 L37.07 99.53 L36.17 101.3 L35.27 103.1 L34.36 104.9 L33.46 106.8 L32.56 108.6 L31.65 110.4 L30.75 112.2 L29.85 114 L28.94 115.8 L28.04 117.6 L27.14 119.4 L26.23 121.2 L25.33 123 L24.43 124.8 L22.33 124.9 L23.26 123.1 L24.18 121.3 L25.1 119.5 L26.03 117.7 L26.95 115.9 L27.87 114.1 L28.8 112.3 L29.72 110.5 L30.64 108.7 L31.57 106.9 L32.49 105 L33.41 103.2 L34.34 101.4 L35.26 99.63 L36.18 97.82 L37.98 97.72 Z " />
<path stroke="rgb(0,0,0)" stroke-opacity="1" fill="rgb(255,255,255)" fill-opacity="1" id="a5_2_" d="M204.2 -50.75 L202.3 -51.59 L200.4 -52.44 L198.5 -53.28 L196.6 -54.12 L194.8 -54.96 L192.9 -55.81 L191 -56.65 L189.1 -57.49 L187.2 -58.34 L185.3 -59.18 L183.4 -60.02 L181.6 -60.86 L179.7 -61.71 L177.8 -62.55 L177.8 -60.6 L177.8 -58.64 L177.8 -56.69 L177.8 -54.73 L177.8 -52.78 L177.8 -50.83 L177.8 -48.87 L177.8 -46.92 L177.8 -44.97 L177.8 -43.01 L177.8 -41.06 L177.8 -39.1 L177.8 -37.15 L179.7 -36.31 L181.6 -35.46 L183.4 -34.62 L185.3 -33.78 L187.2 -32.94 L189.1 -32.09 L191 -31.25 L192.9 -30.41 L194.8 -29.56 L196.6 -28.72 L198.5 -27.88 L200.4 -27.04 L202.3 -26.19 L204.2 -25.35 L204.2 -27.3 L204.2 -29.26 L204.2 -31.21 L204.2 -33.17 L204.2 -35.12 L204.2 -37.07 L204.2 -39.03 L204.2 -40.98 L204.2 -42.93 L204.2 -44.89 L204.2 -46.84 L204.2 -48.8 L204.2 -50.75 Z " />
<path stroke="rgb(0,0,0)" stroke-opacity="1" fill="rgb(255,255,255)" fill-opacity="1" id="a6_2_" d="M83.3 51.45 L81.52 50.62 L79.75 49.79 L77.97 48.96 L76.19 48.13 L74.42 47.3 L72.64 46.47 L70.86 45.64 L69.09 44.81 L67.31 43.99 L65.54 43.16 L63.76 42.33 L61.98 41.5 L60.21 40.67 L58.43 39.84 L56.65 39.01 L54.88 38.18 L53.1 37.35 L53.1 35.25 L53.1 33.15 L53.1 31.05 L53.1 28.95 L53.1 26.85 L53.1 24.75 L53.1 22.65 L53.1 20.55 L53.1 18.45 L53.1 16.35 L54.87 17.18 L56.64 18.01 L58.41 18.84 L60.18 19.67 L61.95 20.5 L63.72 21.33 L65.49 22.16 L67.26 22.99 L69.04 23.81 L70.81 24.64 L72.58 25.47 L74.35 26.3 L76.12 27.13 L77.89 27.96 L79.66 28.79 L81.43 29.62 L83.2 30.45 L83.21 32.36 L83.22 34.27 L83.23 36.18 L83.24 38.09 L83.25 40 L83.25 41.9 L83.26 43.81 L83.27 45.72 L83.28 47.63 L83.29 49.54 L83.3 51.45 Z " />
<path stroke="rgb(0,0,0)" stroke-opacity="1" fill="rgb(148,200,200)" fill-opacity="1" id="rtr1_2_" d="M65.99 -117.3 L64.47 -115.9 L62.95 -114.5 L61.43 -113.1 L59.91 -111.7 L58.39 -110.3 L56.87 -108.9 L54.89 -109.7 L52.92 -110.6 L50.95 -111.4 L48.97 -112.2 L47 -113 L48.53 -114.4 L50.05 -115.8 L51.58 -117.2 L53.11 -118.6 L54.63 -120 L56.16 -121.4 L58.12 -120.6 L60.09 -119.8 L62.06 -119 L64.02 -118.1 L65.99 -117.3 Z " />
<path stroke="rgb(0,0,0)" stroke-opacity="1" fill="rgb(238,200,200)" fill-opacity="1" id="sg1_2_" d="M75.53 128.8 L76.34 127.1 L77.15 125.5 L77.95 123.9 L78.76 122.2 L79.57 120.6 L80.38 118.9 L82.47 118.9 L84.57 118.9 L86.67 118.8 L88.76 118.8 L87.97 120.5 L87.18 122.1 L86.39 123.8 L85.6 125.4 L84.81 127.1 L84.02 128.8 L81.9 128.8 L79.78 128.8 L77.65 128.8 L75.53 128.8 Z " />
<path stroke="rgb(0,0,0)" stroke-opacity="1" fill="rgb(255,255,255)" fill-opacity="1" id="a12_2_" d="M-41.31 74.96 L-43.19 74.14 L-45.08 73.33 L-46.96 72.51 L-48.84 71.69 L-50.73 70.88 L-52.61 70.06 L-52.63 68.13 L-52.64 66.19 L-52.66 64.26 L-52.68 62.33 L-52.69 60.39 L-52.71 58.46 L-50.84 59.28 L-48.98 60.09 L-47.11 60.91 L-45.24 61.73 L-43.38 62.54 L-41.51 63.36 L-41.48 65.29 L-41.44 67.23 L-41.41 69.16 L-41.38 71.09 L-41.34 73.03 L-41.31 74.96 Z " />
<path stroke="rgb(0,0,0)" stroke-opacity="1" fill="rgb(255,255,255)" fill-opacity="1" id="secscl1_2_" d="M-31.75 25.85 L-32.69 25.4 L-33.63 24.96 L-34.57 24.51 L-35.51 24.06 L-36.45 23.61 L-37.4 23.16 L-38.34 22.72 L-39.28 22.27 L-39.28 21.25 L-39.28 20.24 L-39.28 19.23 L-39.28 18.21 L-39.28 17.2 L-39.28 16.18 L-39.28 15.17 L-39.28 14.16 L-39.28 13.14 L-39.28 12.13 L-39.28 11.11 L-39.28 10.1 L-39.28 9.085 L-39.28 8.071 L-39.28 7.057 L-39.28 6.043 L-39.28 5.028 L-39.28 4.014 L-39.28 3 L-39.28 1.986 L-39.28 0.9722 L-39.28 -0.04188 L-39.28 -1.056 L-39.28 -2.07 L-39.28 -3.084 L-39.28 -4.098 L-39.28 -5.112 L-39.28 -6.126 L-39.28 -7.14 L-39.28 -8.154 L-39.28 -9.169 L-39.28 -10.18 L-39.28 -11.2 L-39.28 -12.21 L-39.28 -13.22 L-39.28 -14.24 L-39.28 -15.25 L-39.28 -16.27 L-39.28 -17.28 L-39.28 -18.3 L-38.34 -17.84 L-37.4 -17.39 L-36.45 -16.93 L-35.51 -16.48 L-34.57 -16.02 L-33.63 -15.57 L-32.69 -15.11 L-31.75 -14.66 L-31.75 -13.65 L-31.75 -12.63 L-31.75 -11.62 L-31.75 -10.61 L-31.75 -9.595 L-31.75 -8.582 L-31.75 -7.569 L-31.75 -6.557 L-31.75 -5.544 L-31.75 -4.531 L-31.75 -3.518 L-31.75 -2.505 L-31.75 -1.493 L-31.75 -0.4798 L-31.75 0.533 L-31.75 1.546 L-31.75 2.559 L-31.75 3.571 L-31.75 4.584 L-31.75 5.597 L-31.75 6.61 L-31.75 7.623 L-31.75 8.635 L-31.75 9.648 L-31.75 10.66 L-31.75 11.67 L-31.75 12.69 L-31.75 13.7 L-31.75 14.71 L-31.75 15.72 L-31.75 16.74 L-31.75 17.75 L-31.75 18.76 L-31.75 19.78 L-31.75 20.79 L-31.75 21.8 L-31.75 22.81 L-31.75 23.83 L-31.75 24.84 L-31.75 25.85 Z " />
<path stroke="rgb(0,0,0)" stroke-opacity="1" fill="rgb(255,255,255)" fill-opacity="1" id="a7_1_" d="M141.3 -84.25 L139.4 -85.05 L137.6 -85.85 L135.7 -86.65 L133.8 -87.45 L132 -88.25 L130.1 -89.05 L128.3 -89.85 L126.4 -90.65 L124.5 -91.45 L122.7 -92.25 L120.8 -93.05 L120.8 -95.03 L120.8 -97.02 L120.8 -99 L120.8 -101 L120.8 -103 L120.8 -105 L122.7 -104.1 L124.5 -103.3 L126.4 -102.5 L128.3 -101.7 L130.1 -100.9 L132 -100 L133.8 -99.22 L135.7 -98.4 L137.6 -97.59 L139.4 -96.77 L141.3 -95.95 L141.3 -94 L141.3 -92.05 L141.3 -90.1 L141.3 -88.15 L141.3 -86.2 L141.3 -84.25 Z " />
<path stroke="rgb(0,0,0)" stroke-opacity="1" fill="rgb(255,255,255)" fill-opacity="1" id="a8_1_" d="M141.2 -69.95 L139.3 -70.76 L137.5 -71.57 L135.6 -72.38 L133.7 -73.19 L131.9 -74 L130 -74.8 L128.2 -75.61 L126.3 -76.42 L124.4 -77.23 L122.6 -78.04 L120.7 -78.85 L120.7 -80.82 L120.7 -82.78 L120.7 -84.75 L120.7 -86.72 L120.7 -88.68 L120.7 -90.65 L122.6 -89.85 L124.4 -89.05 L126.3 -88.25 L128.2 -87.45 L130.1 -86.65 L131.9 -85.85 L133.8 -85.05 L135.7 -84.25 L137.6 -83.45 L139.4 -82.65 L141.3 -81.85 L141.3 -79.87 L141.3 -77.88 L141.2 -75.9 L141.2 -73.92 L141.2 -71.93 L141.2 -69.95 Z " />
<path stroke="rgb(0,0,0)" stroke-opacity="1" fill="rgb(255,255,255)" fill-opacity="1" id="a9_1_" d="M134.2 -61.55 L132.3 -62.35 L130.4 -63.15 L128.5 -63.95 L126.5 -64.75 L124.6 -65.55 L122.7 -66.35 L120.8 -67.15 L120.8 -68.95 L120.8 -70.75 L120.7 -72.55 L120.7 -74.35 L120.7 -76.15 L122.6 -75.34 L124.5 -74.52 L126.4 -73.71 L128.4 -72.89 L130.3 -72.08 L132.2 -71.26 L134.1 -70.45 L134.1 -68.23 L134.2 -66 L134.2 -63.77 L134.2 -61.55 Z " />
<path stroke="rgb(0,0,0)" stroke-opacity="1" fill="rgb(255,255,255)" fill-opacity="1" id="a17_1_" d="M34.5 62.65 L32.73 61.71 L30.95 60.78 L29.18 59.84 L27.41 58.9 L25.64 57.97 L23.86 57.03 L22.09 56.1 L20.32 55.16 L18.55 54.22 L16.77 53.29 L15 52.35 L15 50.33 L15 48.32 L15 46.3 L15 44.28 L15 42.27 L15 40.25 L16.77 41.19 L18.55 42.12 L20.32 43.06 L22.09 44 L23.86 44.93 L25.64 45.87 L27.41 46.8 L29.18 47.74 L30.95 48.68 L32.73 49.61 L34.5 50.55 L34.5 52.57 L34.5 54.58 L34.5 56.6 L34.5 58.62 L34.5 60.63 L34.5 62.65 Z " />
<path stroke="rgb(0,0,0)" stroke-opacity="1" fill="rgb(255,255,255)" fill-opacity="1" id="a16_1_" d="M34.5 79.85 L32.73 78.95 L30.95 78.05 L29.18 77.15 L27.41 76.25 L25.64 75.35 L23.86 74.45 L22.09 73.55 L20.32 72.65 L18.55 71.75 L16.77 70.85 L15 69.95 L15 67.98 L15 66.02 L15 64.05 L15 62.08 L15 60.12 L15 58.15 L16.77 59.05 L18.55 59.95 L20.32 60.85 L22.09 61.75 L23.86 62.65 L25.64 63.55 L27.41 64.45 L29.18 65.35 L30.95 66.25 L32.73 67.15 L34.5 68.05 L34.5 70.02 L34.5 71.98 L34.5 73.95 L34.5 75.92 L34.5 77.88 L34.5 79.85 Z " />
<path stroke="rgb(0,0,0)" stroke-opacity="1" fill="rgb(236,216,157)" fill-opacity="1" id="scltrs1_1_" d="M-30.7 34.86 L-31.85 34.26 L-32.99 33.66 L-34.14 33.06 L-35.28 32.46 L-36.43 31.86 L-37.58 31.26 L-38.72 30.66 L-38.72 29.35 L-38.72 28.04 L-38.72 26.74 L-38.72 25.43 L-38.72 24.12 L-38.72 22.82 L-37.58 23.42 L-36.43 24.02 L-35.28 24.62 L-34.14 25.22 L-32.99 25.82 L-31.85 26.42 L-30.7 27.02 L-30.7 28.33 L-30.7 29.63 L-30.7 30.94 L-30.7 32.24 L-30.7 33.55 L-30.7 34.86 Z " />
<path stroke="rgb(0,0,0)" stroke-opacity="1" fill="rgb(244,227,211)" fill-opacity="1" id="a15_1_" d="M119.3 1.25 L117.4 0.3875 L115.6 -0.475 L113.7 -1.338 L111.8 -2.2 L110 -3.063 L108.1 -3.925 L106.3 -4.788 L104.4 -5.65 L104.4 -7.57 L104.4 -9.49 L104.4 -11.41 L104.4 -13.33 L104.4 -15.25 L106.3 -14.38 L108.1 -13.5 L110 -12.63 L111.8 -11.75 L113.7 -10.88 L115.6 -10 L117.4 -9.125 L119.3 -8.25 L119.3 -6.35 L119.3 -4.45 L119.3 -2.55 L119.3 -0.65 L119.3 1.25 Z " />
<path stroke="rgb(0,0,0)" stroke-opacity="1" fill="rgb(244,227,211)" fill-opacity="1" id="a14_1_" d="M117.2 9.75 L115.4 8.893 L113.5 8.036 L111.7 7.179 L109.8 6.321 L108 5.464 L106.1 4.607 L104.3 3.75 L104.3 1.817 L104.4 -0.1167 L104.4 -2.05 L106.2 -1.164 L108.1 -0.2786 L109.9 0.6071 L111.7 1.493 L113.5 2.379 L115.4 3.264 L117.2 4.15 L117.2 6.017 L117.2 7.883 L117.2 9.75 Z " />
<path stroke="rgb(0,0,0)" stroke-opacity="1" fill="rgb(244,227,211)" fill-opacity="1" id="a13_1_" d="M115 29.65 L113.2 28.82 L111.4 27.98 L109.6 27.15 L107.9 26.32 L106.1 25.48 L104.3 24.65 L104.3 22.59 L104.3 20.52 L104.3 18.46 L104.3 16.4 L104.3 14.34 L104.3 12.27 L104.3 10.21 L104.3 8.15 L106.1 8.983 L107.9 9.817 L109.6 10.65 L111.4 11.48 L113.2 12.32 L115 13.15 L115 15.21 L115 17.27 L115 19.34 L115 21.4 L115 23.46 L115 25.52 L115 27.59 L115 29.65 Z " />
<path stroke="rgb(0,0,0)" stroke-opacity="1" fill="rgb(200,200,200)" fill-opacity="1" id="a1_2_" d="M-110.5 -73.45 L-112.2 -74.33 L-114 -75.2 L-115.7 -76.08 L-117.5 -76.96 L-119.2 -77.84 L-121 -78.71 L-122.7 -79.59 L-124.5 -80.47 L-126.2 -81.35 L-128 -82.22 L-129.8 -83.1 L-131.5 -83.98 L-133.3 -84.85 L-135 -85.73 L-136.8 -86.61 L-138.5 -87.49 L-140.3 -88.36 L-142 -89.24 L-143.8 -90.12 L-145.5 -91 L-147.3 -91.87 L-149 -92.75 L-149 -94.61 L-149 -96.47 L-149 -98.33 L-149 -100.2 L-149 -102 L-147.3 -101.2 L-145.5 -100.3 L-143.8 -99.4 L-142 -98.52 L-140.3 -97.64 L-138.5 -96.76 L-136.8 -95.88 L-135 -95 L-133.3 -94.11 L-131.5 -93.23 L-129.8 -92.35 L-128 -91.47 L-126.2 -90.59 L-124.5 -89.7 L-122.7 -88.82 L-121 -87.94 L-119.2 -87.06 L-117.5 -86.18 L-115.7 -85.3 L-114 -84.41 L-112.2 -83.53 L-110.5 -82.65 L-110.5 -80.81 L-110.5 -78.97 L-110.5 -77.13 L-110.5 -75.29 L-110.5 -73.45 Z " />
<path stroke="rgb(0,0,0)" stroke-opacity="1" fill="rgb(200,200,200)" fill-opacity="1" id="a4_2_" d="M-89.9 -108.2 L-91.69 -109 L-93.49 -109.9 L-95.28 -110.8 L-97.08 -111.7 L-98.87 -112.6 L-100.7 -113.5 L-102.5 -114.4 L-104.3 -115.3 L-106 -116.2 L-107.8 -117.1 L-109.6 -118 L-111.4 -118.9 L-113.2 -119.8 L-115 -120.7 L-116.8 -121.6 L-118.6 -122.5 L-120.4 -123.3 L-122.2 -124.2 L-124 -125.1 L-125.8 -126 L-127.6 -126.9 L-129.4 -127.8 L-131.2 -128.7 L-133 -129.6 L-134.7 -130.5 L-136.5 -131.4 L-138.3 -132.3 L-140.1 -133.2 L-141.9 -134.1 L-143.7 -135 L-145.5 -135.9 L-147.3 -136.8 L-149.1 -137.7 L-149.1 -139.7 L-149.1 -141.7 L-149.1 -143.7 L-149.1 -145.7 L-149.1 -147.7 L-149.1 -149.7 L-149.1 -151.8 L-147.3 -150.9 L-145.5 -150 L-143.7 -149.1 L-141.9 -148.2 L-140.1 -147.3 L-138.3 -146.4 L-136.5 -145.5 L-134.7 -144.6 L-133 -143.7 L-131.2 -142.8 L-129.4 -142 L-127.6 -141.1 L-125.8 -140.2 L-124 -139.3 L-122.2 -138.4 L-120.4 -137.5 L-118.6 -136.6 L-116.8 -135.7 L-115 -134.8 L-113.2 -133.9 L-111.4 -133 L-109.6 -132.2 L-107.8 -131.3 L-106 -130.4 L-104.3 -129.5 L-102.5 -128.6 L-100.7 -127.7 L-98.87 -126.8 L-97.08 -125.9 L-95.28 -125 L-93.49 -124.1 L-91.69 -123.2 L-89.9 -122.3 L-89.9 -120.3 L-89.9 -118.3 L-89.9 -116.3 L-89.9 -114.2 L-89.9 -112.2 L-89.9 -110.2 L-89.9 -108.2 Z " />
<path stroke="rgb(0,0,0)" stroke-opacity="1" fill="rgb(200,200,200)" fill-opacity="1" id="a2_1_" d="M-109.1 -87.55 L-110.9 -88.45 L-112.7 -89.36 L-114.6 -90.26 L-116.4 -91.17 L-118.2 -92.07 L-120 -92.98 L-121.8 -93.88 L-123.6 -94.79 L-125.5 -95.69 L-127.3 -96.6 L-129.1 -97.5 L-130.9 -98.4 L-132.7 -99.31 L-134.6 -100.2 L-136.4 -101.1 L-138.2 -102 L-140 -102.9 L-141.8 -103.8 L-143.6 -104.7 L-145.5 -105.6 L-147.3 -106.5 L-149.1 -107.5 L-149.1 -109.4 L-149.1 -111.3 L-149.1 -113.3 L-149.1 -115.2 L-149.1 -117.2 L-147.3 -116.2 L-145.5 -115.3 L-143.6 -114.4 L-141.8 -113.5 L-140 -112.6 L-138.2 -111.7 L-136.4 -110.8 L-134.6 -109.9 L-132.7 -109 L-130.9 -108.1 L-129.1 -107.2 L-127.3 -106.2 L-125.5 -105.3 L-123.6 -104.4 L-121.8 -103.5 L-120 -102.6 L-118.2 -101.7 L-116.4 -100.8 L-114.6 -99.88 L-112.7 -98.97 L-110.9 -98.06 L-109.1 -97.15 L-109.1 -95.23 L-109.1 -93.31 L-109.1 -91.39 L-109.1 -89.47 L-109.1 -87.55 Z " />
<path stroke="rgb(0,0,0)" stroke-opacity="1" fill="rgb(200,200,200)" fill-opacity="1" id="a3_1_" d="M-105.8 -101.2 L-107.6 -102 L-109.4 -102.9 L-111.2 -103.8 L-113 -104.7 L-114.8 -105.6 L-116.6 -106.5 L-118.4 -107.4 L-120.2 -108.3 L-122 -109.2 L-123.8 -110.1 L-125.6 -111 L-127.4 -111.8 L-129.3 -112.7 L-131.1 -113.6 L-132.9 -114.5 L-134.7 -115.4 L-136.5 -116.3 L-138.3 -117.2 L-140.1 -118.1 L-141.9 -119 L-143.7 -119.9 L-145.5 -120.8 L-147.3 -121.7 L-149.1 -122.5 L-149.1 -124.6 L-149.1 -126.7 L-149.1 -128.8 L-149.1 -130.9 L-149.1 -133 L-147.3 -132.1 L-145.5 -131.2 L-143.7 -130.3 L-141.9 -129.4 L-140.1 -128.5 L-138.3 -127.6 L-136.5 -126.7 L-134.7 -125.8 L-132.9 -124.9 L-131.1 -124 L-129.3 -123.1 L-127.4 -122.3 L-125.6 -121.4 L-123.8 -120.5 L-122 -119.6 L-120.2 -118.7 L-118.4 -117.8 L-116.6 -116.9 L-114.8 -116 L-113 -115.1 L-111.2 -114.2 L-109.4 -113.3 L-107.6 -112.4 L-105.8 -111.5 L-105.8 -109.5 L-105.8 -107.4 L-105.8 -105.3 L-105.8 -103.2 L-105.8 -101.2 Z " />
<path stroke="rgb(0,0,0)" stroke-opacity="1" fill="rgb(244,227,211)" fill-opacity="1" id="a11_1_" d="M-25.42 70.85 L-27.24 70.04 L-29.05 69.23 L-30.87 68.42 L-32.69 67.61 L-34.51 66.79 L-36.33 65.98 L-38.15 65.17 L-39.97 64.36 L-41.78 63.55 L-43.6 62.74 L-45.42 61.93 L-47.24 61.12 L-49.06 60.31 L-50.88 59.49 L-52.7 58.68 L-54.51 57.87 L-56.33 57.06 L-58.15 56.25 L-59.97 55.44 L-61.79 54.63 L-63.61 53.82 L-65.43 53.01 L-67.24 52.19 L-69.06 51.38 L-70.88 50.57 L-72.7 49.76 L-74.52 48.95 L-74.57 47 L-74.62 45.05 L-72.8 45.86 L-70.98 46.68 L-69.16 47.49 L-67.34 48.31 L-65.53 49.12 L-63.71 49.94 L-61.89 50.75 L-60.07 51.57 L-58.25 52.38 L-56.43 53.2 L-54.61 54.01 L-52.8 54.83 L-50.98 55.64 L-49.16 56.46 L-47.34 57.27 L-45.52 58.09 L-43.7 58.9 L-41.88 59.72 L-40.07 60.53 L-38.25 61.35 L-36.43 62.16 L-34.61 62.98 L-32.79 63.79 L-30.97 64.61 L-29.15 65.42 L-27.34 66.24 L-25.52 67.05 L-25.47 68.95 L-25.42 70.85 Z " />
<path stroke="rgb(0,0,0)" stroke-opacity="1" fill="rgb(244,200,200)" fill-opacity="1" id="fus1_1_" d="M-95.5 56.95 L-97.3 56.19 L-99.1 55.43 L-100.9 54.67 L-102.7 53.91 L-104.5 53.15 L-104.5 51.29 L-104.5 49.43 L-104.5 47.57 L-104.5 45.71 L-104.5 43.85 L-102.7 44.61 L-100.9 45.37 L-99.1 46.13 L-97.3 46.89 L-95.5 47.65 L-95.5 49.51 L-95.5 51.37 L-95.5 53.23 L-95.5 55.09 L-95.5 56.95 Z " />
<path stroke="rgb(0,0,0)" stroke-opacity="1" fill="rgb(244,200,200)" fill-opacity="1" id="fus2_1_" d="M-96.5 60.95 L-98.3 60.17 L-100.1 59.39 L-101.9 58.61 L-103.7 57.83 L-105.5 57.05 L-105.5 55.17 L-105.4 53.29 L-105.4 51.41 L-105.3 49.53 L-105.3 47.65 L-103.5 48.41 L-101.8 49.17 L-100 49.93 L-98.26 50.69 L-96.5 51.45 L-96.5 53.35 L-96.5 55.25 L-96.5 57.15 L-96.5 59.05 L-96.5 60.95 Z " />
<path stroke="rgb(0,0,0)" stroke-opacity="1" fill="rgb(244,200,200)" fill-opacity="1" id="fus3_1_" d="M-95.6 56.45 L-97.38 55.69 L-99.16 54.93 L-100.9 54.17 L-102.7 53.41 L-104.5 52.65 L-104.5 50.79 L-104.5 48.93 L-104.5 47.07 L-104.5 45.21 L-104.5 43.35 L-102.7 44.11 L-100.9 44.87 L-99.1 45.63 L-97.3 46.39 L-95.5 47.15 L-95.52 49.01 L-95.54 50.87 L-95.56 52.73 L-95.58 54.59 L-95.6 56.45 Z " />
<path stroke="rgb(0,0,0)" stroke-opacity="1" fill="rgb(244,200,200)" fill-opacity="1" id="fus4_1_" d="M-93.13 63.82 L-94.93 63.04 L-96.73 62.26 L-98.53 61.48 L-100.3 60.7 L-102.1 59.92 L-102.1 58.06 L-102.1 56.2 L-102.1 54.34 L-102.1 52.48 L-102.1 50.62 L-100.3 51.4 L-98.53 52.18 L-96.73 52.96 L-94.93 53.74 L-93.13 54.52 L-93.13 56.38 L-93.13 58.24 L-93.13 60.1 L-93.13 61.96 L-93.13 63.82 Z " />
<path stroke="rgb(0,0,0)" stroke-opacity="1" fill="rgb(173,200,200)" fill-opacity="1" id="swap1_1_" d="M35.4 -109.8 L33.58 -110.8 L31.76 -111.7 L29.94 -112.7 L28.12 -113.6 L26.3 -114.6 L24.48 -115.6 L22.66 -116.5 L20.84 -117.5 L19.02 -118.4 L17.2 -119.4 L17.21 -121.4 L17.22 -123.4 L17.23 -125.4 L17.24 -127.4 L17.25 -129.5 L17.26 -131.5 L17.27 -133.5 L17.29 -135.5 L17.3 -137.5 L19.12 -136.5 L20.94 -135.6 L22.76 -134.6 L24.58 -133.6 L26.4 -132.7 L28.22 -131.7 L30.04 -130.7 L31.86 -129.7 L33.68 -128.8 L35.5 -127.8 L35.49 -125.8 L35.47 -123.8 L35.46 -121.8 L35.45 -119.8 L35.44 -117.8 L35.43 -115.8 L35.42 -113.8 L35.41 -111.8 L35.4 -109.8 Z " />
<path stroke="rgb(0,0,0)" stroke-opacity="1" fill="rgb(173,200,200)" fill-opacity="1" id="swap3_1_" d="M20.8 -129.5 L18.98 -130.5 L17.16 -131.4 L15.34 -132.4 L13.52 -133.4 L11.7 -134.3 L9.88 -135.3 L8.06 -136.2 L6.24 -137.2 L4.42 -138.2 L2.6 -139.1 L2.611 -141.1 L2.622 -143.2 L2.633 -145.2 L2.644 -147.2 L2.656 -149.2 L2.667 -151.2 L2.678 -153.2 L2.689 -155.2 L2.7 -157.2 L4.52 -156.3 L6.34 -155.3 L8.16 -154.3 L9.98 -153.4 L11.8 -152.4 L13.62 -151.5 L15.44 -150.5 L17.26 -149.5 L19.08 -148.6 L20.9 -147.6 L20.89 -145.6 L20.88 -143.6 L20.87 -141.6 L20.86 -139.6 L20.84 -137.6 L20.83 -135.6 L20.82 -133.6 L20.81 -131.5 L20.8 -129.5 Z " />
<path stroke="rgb(0,0,0)" stroke-opacity="1" fill="rgb(173,200,200)" fill-opacity="1" id="swap2_1_" d="M6.304 -122 L4.484 -123 L2.664 -123.9 L0.8439 -124.9 L-0.9761 -125.8 L-2.796 -126.8 L-4.616 -127.8 L-6.436 -128.7 L-8.256 -129.7 L-10.08 -130.6 L-11.9 -131.6 L-11.89 -133.6 L-11.87 -135.6 L-11.86 -137.6 L-11.85 -139.6 L-11.84 -141.7 L-11.83 -143.7 L-11.82 -145.7 L-11.81 -147.7 L-11.8 -149.7 L-9.966 -148.7 L-8.136 -147.8 L-6.306 -146.8 L-4.476 -145.9 L-2.646 -144.9 L-0.8162 -143.9 L1.014 -143 L2.844 -142 L4.674 -141.1 L6.504 -140.1 L6.482 -138.1 L6.459 -136.1 L6.437 -134.1 L6.415 -132.1 L6.393 -130 L6.371 -128 L6.348 -126 L6.326 -124 L6.304 -122 Z " />
<path stroke="rgb(0,0,0)" stroke-opacity="1" fill="rgb(173,200,200)" fill-opacity="1" id="swap4_1_" d="M20.7 -102.6 L18.88 -103.6 L17.06 -104.5 L15.24 -105.5 L13.42 -106.5 L11.6 -107.5 L9.78 -108.5 L7.96 -109.4 L6.14 -110.4 L4.32 -111.4 L2.5 -112.4 L2.511 -114.4 L2.522 -116.4 L2.533 -118.4 L2.544 -120.4 L2.556 -122.4 L2.567 -124.4 L2.578 -126.4 L2.589 -128.4 L2.6 -130.4 L4.43 -129.4 L6.26 -128.4 L8.09 -127.5 L9.92 -126.5 L11.75 -125.5 L13.58 -124.6 L15.41 -123.6 L17.24 -122.6 L19.07 -121.6 L20.9 -120.7 L20.88 -118.7 L20.86 -116.6 L20.83 -114.6 L20.81 -112.6 L20.79 -110.6 L20.77 -108.6 L20.74 -106.6 L20.72 -104.6 L20.7 -102.6 Z " />
<path stroke="rgb(0,0,0)" stroke-opacity="1" fill="rgb(244,227,211)" fill-opacity="1" id="a10_5_" d="M40 -46.65 L38.24 -45.63 L36.48 -44.6 L34.71 -43.57 L32.95 -42.55 L31.19 -41.53 L29.42 -40.5 L27.66 -39.48 L25.9 -38.45 L24.14 -37.43 L22.37 -36.4 L20.61 -35.38 L18.85 -34.35 L17.09 -33.33 L15.32 -32.3 L13.56 -31.28 L11.8 -30.25 L10.04 -31.28 L8.275 -32.3 L6.512 -33.33 L4.75 -34.35 L2.987 -35.38 L1.225 -36.4 L-0.5375 -37.43 L-2.3 -38.45 L-4.063 -39.48 L-5.825 -40.5 L-7.587 -41.53 L-9.35 -42.55 L-11.11 -43.57 L-12.87 -44.6 L-14.64 -45.63 L-16.4 -46.65 L-14.64 -47.68 L-12.87 -48.7 L-11.11 -49.72 L-9.35 -50.75 L-7.587 -51.77 L-5.825 -52.8 L-4.063 -53.82 L-2.3 -54.85 L-0.5375 -55.87 L1.225 -56.9 L2.987 -57.92 L4.75 -58.95 L6.512 -59.97 L8.275 -61 L10.04 -62.02 L11.8 -63.05 L13.56 -62.02 L15.32 -61 L17.09 -59.97 L18.85 -58.95 L20.61 -57.92 L22.37 -56.9 L24.14 -55.87 L25.9 -54.85 L27.66 -53.82 L29.42 -52.8 L31.19 -51.77 L32.95 -50.75 L34.71 -49.72 L36.48 -48.7 L38.24 -47.68 L40 -46.65 Z " />
<path stroke="rgb(0,0,0)" stroke-opacity="1" fill="rgb(244,227,211)" fill-opacity="1" id="a10_4_" d="M40.5 -11.85 L40.5 -13.85 L40.5 -15.85 L40.5 -17.85 L40.5 -19.85 L40.5 -21.85 L40.5 -23.85 L40.5 -25.85 L40.5 -27.85 L40.5 -29.85 L40.5 -31.85 L40.5 -33.85 L40.5 -35.85 L40.5 -37.85 L40.5 -39.85 L40.5 -41.85 L40.5 -43.85 L40.5 -45.85 L38.74 -44.83 L36.98 -43.8 L35.21 -42.78 L33.45 -41.75 L31.69 -40.73 L29.92 -39.7 L28.16 -38.68 L26.4 -37.65 L24.64 -36.62 L22.87 -35.6 L21.11 -34.57 L19.35 -33.55 L17.59 -32.52 L15.82 -31.5 L14.06 -30.47 L12.3 -29.45 L12.3 -27.44 L12.3 -25.44 L12.3 -23.43 L12.3 -21.43 L12.3 -19.42 L12.3 -17.42 L12.3 -15.41 L12.3 -13.41 L12.3 -11.4 L12.3 -9.397 L12.3 -7.392 L12.3 -5.387 L12.3 -3.382 L12.3 -1.376 L12.3 0.6289 L12.3 2.634 L12.3 4.639 L12.3 6.645 L12.3 8.65 L13.96 7.444 L15.62 6.238 L17.28 5.032 L18.94 3.826 L20.59 2.621 L22.25 1.415 L23.91 0.2088 L25.57 -0.9971 L27.23 -2.203 L28.89 -3.409 L30.55 -4.615 L32.21 -5.821 L33.86 -7.026 L35.52 -8.232 L37.18 -9.438 L38.84 -10.64 L40.5 -11.85 Z " />
<path stroke="rgb(0,0,0)" stroke-opacity="1" fill="rgb(244,227,211)" fill-opacity="1" id="a10_3_" d="M-16.8 -45.85 L-16.8 -43.85 L-16.8 -41.85 L-16.8 -39.85 L-16.8 -37.85 L-16.8 -35.85 L-16.8 -33.85 L-16.8 -31.85 L-16.8 -29.85 L-16.8 -27.85 L-16.8 -25.85 L-16.8 -23.85 L-16.8 -21.85 L-16.8 -19.85 L-16.8 -17.85 L-16.8 -15.85 L-16.8 -13.85 L-16.8 -11.85 L-15.14 -10.64 L-13.48 -9.438 L-11.82 -8.232 L-10.16 -7.026 L-8.506 -5.821 L-6.847 -4.615 L-5.188 -3.409 L-3.529 -2.203 L-1.871 -0.9971 L-0.2118 0.2088 L1.447 1.415 L3.106 2.621 L4.765 3.826 L6.424 5.032 L8.082 6.238 L9.741 7.444 L11.4 8.65 L11.4 6.645 L11.4 4.639 L11.4 2.634 L11.4 0.6289 L11.4 -1.376 L11.4 -3.382 L11.4 -5.387 L11.4 -7.392 L11.4 -9.397 L11.4 -11.4 L11.4 -13.41 L11.4 -15.41 L11.4 -17.42 L11.4 -19.42 L11.4 -21.43 L11.4 -23.43 L11.4 -25.44 L11.4 -27.44 L11.4 -29.45 L9.637 -30.47 L7.875 -31.5 L6.112 -32.52 L4.35 -33.55 L2.587 -34.57 L0.825 -35.6 L-0.9375 -36.62 L-2.7 -37.65 L-4.462 -38.68 L-6.225 -39.7 L-7.987 -40.73 L-9.75 -41.75 L-11.51 -42.78 L-13.27 -43.8 L-15.04 -44.83 L-16.8 -45.85 Z " />
<path stroke="rgb(0,0,0)" stroke-opacity="1" fill="rgb(200,200,200)" fill-opacity="1" id="circ1_5_" d="M-100.5 -18.86 L-102.1 -17.94 L-103.7 -17.02 L-105.2 -16.1 L-106.8 -15.18 L-108.4 -14.26 L-110 -15.18 L-111.6 -16.1 L-113.1 -17.02 L-114.7 -17.94 L-116.3 -18.86 L-114.7 -19.78 L-113.1 -20.7 L-111.6 -21.62 L-110 -22.54 L-108.4 -23.46 L-106.8 -22.54 L-105.2 -21.62 L-103.7 -20.7 L-102.1 -19.78 L-100.5 -18.86 Z " />
<path stroke="rgb(0,0,0)" stroke-opacity="1" fill="rgb(200,200,200)" fill-opacity="1" id="circ1_4_" d="M-100.4 -9.062 L-100.4 -10.96 L-100.4 -12.86 L-100.4 -14.76 L-100.4 -16.66 L-100.4 -18.56 L-102 -17.66 L-103.6 -16.76 L-105.1 -15.86 L-106.7 -14.96 L-108.3 -14.06 L-108.3 -11.92 L-108.3 -9.782 L-108.3 -7.642 L-108.3 -5.502 L-108.3 -3.362 L-106.7 -4.502 L-105.1 -5.642 L-103.6 -6.782 L-102 -7.922 L-100.4 -9.062 Z " />
<path stroke="rgb(0,0,0)" stroke-opacity="1" fill="rgb(200,200,200)" fill-opacity="1" id="circ1_3_" d="M-116.5 -18.56 L-116.5 -16.66 L-116.5 -14.76 L-116.5 -12.86 L-116.5 -10.96 L-116.5 -9.062 L-114.9 -7.922 L-113.3 -6.782 L-111.8 -5.642 L-110.2 -4.502 L-108.6 -3.362 L-108.6 -5.502 L-108.6 -7.642 L-108.6 -9.782 L-108.6 -11.92 L-108.6 -14.06 L-110.2 -14.96 L-111.8 -15.86 L-113.3 -16.76 L-114.9 -17.66 L-116.5 -18.56 Z " />
<path stroke="rgb(0,0,0)" stroke-opacity="1" fill="rgb(200,200,200)" fill-opacity="1" id="circ2_5_" d="M-60.6 -9.038 L-62.18 -8.118 L-63.76 -7.198 L-65.34 -6.278 L-66.92 -5.358 L-68.5 -4.438 L-70.08 -5.358 L-71.66 -6.278 L-73.24 -7.198 L-74.82 -8.118 L-76.4 -9.038 L-74.82 -9.938 L-73.24 -10.84 L-71.66 -11.74 L-70.08 -12.64 L-68.5 -13.54 L-66.92 -12.64 L-65.34 -11.74 L-63.76 -10.84 L-62.18 -9.938 L-60.6 -9.038 Z " />
<path stroke="rgb(0,0,0)" stroke-opacity="1" fill="rgb(200,200,200)" fill-opacity="1" id="circ2_4_" d="M-60.5 0.762 L-60.5 -1.138 L-60.5 -3.038 L-60.5 -4.938 L-60.5 -6.838 L-60.5 -8.738 L-62.08 -7.818 L-63.66 -6.898 L-65.24 -5.978 L-66.82 -5.058 L-68.4 -4.138 L-68.4 -2.018 L-68.4 0.102 L-68.4 2.222 L-68.4 4.342 L-68.4 6.462 L-66.82 5.322 L-65.24 4.182 L-63.66 3.042 L-62.08 1.902 L-60.5 0.762 Z " />
<path stroke="rgb(0,0,0)" stroke-opacity="1" fill="rgb(200,200,200)" fill-opacity="1" id="circ2_3_" d="M-76.6 -8.738 L-76.6 -6.838 L-76.6 -4.938 L-76.6 -3.038 L-76.6 -1.138 L-76.6 0.762 L-75.02 1.902 L-73.44 3.042 L-71.86 4.182 L-70.28 5.322 L-68.7 6.462 L-68.7 4.342 L-68.7 2.222 L-68.7 0.102 L-68.7 -2.018 L-68.7 -4.138 L-70.28 -5.058 L-71.86 -5.978 L-73.44 -6.898 L-75.02 -7.818 L-76.6 -8.738 Z " />
<path stroke="rgb(0,0,0)" stroke-opacity="1" fill="rgb(148,200,200)" fill-opacity="1" id="bb1" d="M64.95 -10.83 L66.86 -10.26 L68.77 -9.684 L70.68 -9.11 L72.59 -8.537 L74.49 -7.964 L76.4 -7.391 L78.31 -6.818 L80.22 -6.244 L82.13 -5.671 L84.04 -5.098 L85.95 -4.525 L87.85 -3.952 L89.76 -3.378 L91.67 -2.805 L93.58 -2.232 L95.49 -1.659 L97.4 -1.086 L99.04 -2.296 L100.7 -3.506 L102.3 -4.717 L104 -5.927 L105.6 -7.137 L107.2 -8.347 L108.9 -9.558 L110.5 -10.77 L112.2 -11.98 L113.8 -13.19 L115.4 -14.4 L117.1 -15.61 L116.8 -17.63 L116.5 -19.65 L116.2 -21.67 L115.9 -23.69 L115.6 -25.71 L115.3 -27.74 L115 -29.76 L114.8 -31.78 L114.5 -33.8 L114.2 -35.82 L113.9 -37.84 L113.6 -39.86 L113.3 -41.88 L113 -43.9 L112.7 -45.92 L111.4 -47.42 L110 -48.92 L108.6 -50.41 L107.3 -51.91 L105.9 -53.41 L104.5 -54.9 L103.2 -56.4 L101.8 -57.9 L100.5 -59.39 L99.1 -60.89 L97.74 -62.38 L96.38 -63.88 L95.02 -65.38 L93.66 -66.87 L92.3 -68.37 L90.94 -69.87 L89.58 -71.36 L88.22 -72.86 L86.85 -74.36 L84.95 -74.93 L83.04 -75.5 L81.13 -76.08 L79.22 -76.65 L77.31 -77.22 L75.4 -77.79 L73.49 -78.37 L71.59 -78.94 L69.68 -79.51 L67.77 -80.09 L65.86 -80.66 L63.95 -81.23 L62.04 -81.81 L60.13 -82.38 L58.23 -82.95 L56.32 -83.53 L54.41 -84.1 L52.75 -82.89 L51.1 -81.67 L49.44 -80.46 L47.78 -79.25 L46.13 -78.04 L44.47 -76.82 L42.81 -75.61 L41.16 -74.4 L39.5 -73.19 L37.84 -71.97 L36.19 -70.76 L34.53 -69.55 L34.82 -67.53 L35.11 -65.51 L35.4 -63.48 L35.69 -61.46 L35.98 -59.44 L36.27 -57.42 L36.57 -55.4 L36.86 -53.38 L37.15 -51.36 L37.44 -49.34 L37.73 -47.32 L38.02 -45.3 L38.31 -43.27 L38.6 -41.25 L38.89 -39.23 L40.26 -37.74 L41.64 -36.24 L43.01 -34.75 L44.38 -33.25 L45.75 -31.76 L47.12 -30.26 L48.49 -28.77 L49.86 -27.27 L51.24 -25.78 L52.61 -24.28 L53.98 -22.79 L55.35 -21.29 L56.72 -19.8 L58.09 -18.3 L59.47 -16.81 L60.84 -15.31 L62.21 -13.82 L63.58 -12.32 L64.95 -10.83 Z " />
<path stroke="rgb(0,0,0)" stroke-opacity="1" fill="rgb(236,216,157)" fill-opacity="1" id="scltrs1" d="M-160.9 15.87 L-161.7 16.85 L-162.4 17.82 L-163.2 18.79 L-164 19.77 L-164.7 20.74 L-165.5 21.71 L-166.3 22.69 L-167 23.66 L-167.8 24.63 L-168.6 25.61 L-169.3 26.58 L-170.1 27.55 L-170.9 28.53 L-171.6 29.5 L-172.4 30.47 L-173.2 31.45 L-174 32.42 L-174.7 33.39 L-175.5 34.37 L-176.3 35.34 L-177 36.32 L-177.8 37.29 L-178.6 38.26 L-179.3 39.24 L-180.1 40.21 L-180.9 41.18 L-181.6 42.16 L-182.4 43.13 L-183.2 44.1 L-183.9 45.08 L-184.7 46.05 L-185.5 47.02 L-186.2 48 L-187 48.97 L-187.8 49.94 L-188.5 50.92 L-187.4 51.45 L-186.3 51.97 L-185.2 52.5 L-184 53.03 L-182.9 53.55 L-181.8 54.08 L-180.6 54.61 L-179.5 55.14 L-178.4 55.66 L-177.3 56.19 L-176.1 56.72 L-175 57.24 L-173.9 57.77 L-172.7 58.3 L-171.6 58.83 L-170.5 59.35 L-169.4 59.88 L-168.2 60.41 L-167.1 60.93 L-166 61.46 L-164.8 61.99 L-163.7 62.52 L-162.6 63.04 L-161.5 63.57 L-160.3 64.1 L-159.2 64.62 L-158.1 65.15 L-156.9 65.68 L-155.8 66.21 L-154.7 66.73 L-153.6 67.26 L-152.4 67.79 L-151.3 68.31 L-150.2 68.84 L-149 69.37 L-147.9 69.9 L-146.8 70.42 L-145.7 70.95 L-144.5 71.48 L-143.4 72 L-142.3 72.53 L-141.1 73.06 L-140 73.59 L-138.9 74.11 L-137.8 74.64 L-136.6 75.17 L-135.5 75.69 L-134.4 76.22 L-133.2 76.75 L-133.8 75.6 L-134.3 74.45 L-134.8 73.3 L-135.3 72.15 L-135.9 71 L-136.4 69.86 L-136.9 68.71 L-137.4 67.56 L-137.9 66.41 L-138.5 65.26 L-139 64.11 L-139.5 62.96 L-140 61.82 L-140.5 60.67 L-141.1 59.52 L-141.6 58.37 L-142.1 57.22 L-142.6 56.07 L-143.2 54.92 L-143.7 53.78 L-144.2 52.63 L-144.7 51.48 L-145.2 50.33 L-145.8 49.18 L-146.3 48.03 L-146.8 46.88 L-147.3 45.74 L-147.9 44.59 L-148.4 43.44 L-148.9 42.29 L-149.4 41.14 L-149.9 39.99 L-150.5 38.84 L-151 37.7 L-151.5 36.55 L-152 35.4 L-152.5 34.25 L-153.1 33.1 L-153.6 31.95 L-154.1 30.8 L-154.6 29.66 L-155.2 28.51 L-155.7 27.36 L-156.2 26.21 L-156.7 25.06 L-157.2 23.91 L-157.8 22.76 L-158.3 21.61 L-158.8 20.47 L-159.3 19.32 L-159.9 18.17 L-160.4 17.02 L-160.9 15.87 Z " />
<path stroke="rgb(0,0,0)" stroke-opacity="1" fill="rgb(255,255,255)" fill-opacity="1" id="a5" d="M-64.22 134.3 L-64.33 136.7 L-64.64 138.8 L-65.15 140.8 L-65.85 142.7 L-66.74 144.4 L-67.79 145.8 L-69 147.2 L-70.36 148.3 L-71.87 149.2 L-73.51 150 L-75.27 150.5 L-77.15 150.8 L-79.14 150.9 L-81.22 150.9 L-83.39 150.5 L-85.63 150 L-87.95 149.2 L-90.32 148.2 L-92.1 147.4 L-93.86 146.4 L-95.58 145.3 L-97.25 144.1 L-98.89 142.8 L-100.5 141.5 L-102 140.1 L-103.5 138.6 L-104.9 137 L-106.3 135.4 L-107.6 133.7 L-108.8 132 L-109.9 130.3 L-111 128.5 L-112 126.7 L-112.9 124.9 L-113.7 123 L-114.4 121.2 L-115 119.3 L-115.5 117.4 L-115.9 115.6 L-116.2 113.7 L-116.4 111.9 L-116.4 110 L-116.3 107.7 L-116 105.6 L-115.5 103.6 L-114.8 101.7 L-113.9 100 L-112.9 98.56 L-111.6 97.25 L-110.3 96.12 L-108.8 95.19 L-107.1 94.45 L-105.4 93.91 L-103.5 93.58 L-101.5 93.45 L-99.42 93.54 L-97.25 93.85 L-95.01 94.39 L-92.69 95.15 L-90.32 96.15 L-88.53 97.04 L-86.78 98.03 L-85.06 99.12 L-83.39 100.3 L-81.75 101.6 L-80.17 102.9 L-78.63 104.3 L-77.15 105.8 L-75.73 107.4 L-74.38 109 L-73.09 110.7 L-71.87 112.4 L-70.73 114.1 L-69.66 115.9 L-68.68 117.7 L-67.79 119.5 L-66.98 121.4 L-66.27 123.2 L-65.66 125.1 L-65.15 127 L-64.75 128.8 L-64.46 130.7 L-64.28 132.5 L-64.22 134.3 Z " />
<path stroke="rgb(0,0,0)" stroke-opacity="1" fill="rgb(255,255,255)" fill-opacity="1" id="a17" d="M-96 -128.5 L-97.21 -127 L-98.42 -125.5 L-99.62 -124 L-100.8 -122.4 L-102 -120.9 L-103.2 -119.4 L-104.5 -117.8 L-105.7 -116.3 L-106.9 -114.8 L-108.1 -113.2 L-109.3 -111.7 L-110.5 -110.2 L-111.7 -108.7 L-109.9 -107.8 L-108 -106.9 L-106.2 -106.1 L-104.3 -105.2 L-102.5 -104.3 L-100.6 -103.5 L-98.77 -102.6 L-96.92 -101.7 L-95.08 -100.9 L-93.23 -100 L-91.38 -99.14 L-89.54 -98.27 L-87.69 -97.41 L-85.84 -96.54 L-83.99 -95.68 L-82.15 -94.81 L-80.3 -93.95 L-81.13 -95.77 L-81.95 -97.59 L-82.78 -99.41 L-83.61 -101.2 L-84.43 -103.1 L-85.26 -104.9 L-86.08 -106.7 L-86.91 -108.5 L-87.74 -110.3 L-88.56 -112.2 L-89.39 -114 L-90.22 -115.8 L-91.04 -117.6 L-91.87 -119.4 L-92.69 -121.3 L-93.52 -123.1 L-94.35 -124.9 L-95.17 -126.7 L-96 -128.5 Z " />
<path stroke="rgb(0,0,0)" stroke-opacity="1" fill="rgb(255,255,255)" fill-opacity="1" id="a16" d="M-96 -70.95 L-94.79 -72.48 L-93.58 -74.01 L-92.38 -75.54 L-91.17 -77.07 L-89.96 -78.6 L-88.75 -80.13 L-87.55 -81.67 L-86.34 -83.2 L-85.13 -84.73 L-83.92 -86.26 L-82.72 -87.79 L-81.51 -89.32 L-80.3 -90.85 L-82.15 -91.71 L-83.99 -92.57 L-85.84 -93.43 L-87.69 -94.29 L-89.54 -95.14 L-91.38 -96 L-93.23 -96.86 L-95.08 -97.72 L-96.92 -98.58 L-98.77 -99.44 L-100.6 -100.3 L-102.5 -101.2 L-104.3 -102 L-106.2 -102.9 L-108 -103.7 L-109.9 -104.6 L-111.7 -105.5 L-110.9 -103.6 L-110 -101.8 L-109.2 -100 L-108.4 -98.19 L-107.6 -96.37 L-106.7 -94.56 L-105.9 -92.74 L-105.1 -90.92 L-104.3 -89.11 L-103.4 -87.29 L-102.6 -85.48 L-101.8 -83.66 L-101 -81.84 L-100.1 -80.03 L-99.31 -78.21 L-98.48 -76.4 L-97.65 -74.58 L-96.83 -72.77 L-96 -70.95 Z " />
<path stroke="rgb(0,0,0)" stroke-opacity="1" fill="rgb(173,200,200)" fill-opacity="1" id="swap2" d="M-54.5 -64.4 L-54.75 -62.28 L-55.47 -60.57 L-56.61 -59.3 L-58.11 -58.5 L-59.91 -58.19 L-61.96 -58.42 L-64.2 -59.2 L-65.95 -60.17 L-67.6 -61.39 L-69.11 -62.81 L-70.46 -64.4 L-71.63 -66.12 L-72.58 -67.92 L-73.29 -69.76 L-73.74 -71.6 L-73.9 -73.4 L-73.64 -75.49 L-72.92 -77.19 L-71.78 -78.46 L-70.28 -79.27 L-68.48 -79.59 L-66.43 -79.38 L-64.2 -78.6 L-62.44 -77.63 L-60.79 -76.42 L-59.28 -75.01 L-57.93 -73.43 L-56.76 -71.72 L-55.81 -69.92 L-55.1 -68.08 L-54.65 -66.23 L-54.5 -64.4 Z " />
<path stroke="rgb(0,0,0)" stroke-opacity="1" fill="rgb(173,200,200)" fill-opacity="1" id="swap4" d="M-33.4 -45.17 L-33.65 -43.05 L-34.38 -41.34 L-35.52 -40.07 L-37.02 -39.27 L-38.82 -38.96 L-40.86 -39.19 L-43.1 -39.97 L-44.85 -40.94 L-46.5 -42.16 L-48.01 -43.59 L-49.37 -45.18 L-50.53 -46.89 L-51.49 -48.69 L-52.2 -50.53 L-52.65 -52.37 L-52.8 -54.17 L-52.55 -56.29 L-51.82 -58 L-50.68 -59.27 L-49.18 -60.07 L-47.38 -60.38 L-45.34 -60.15 L-43.1 -59.37 L-41.35 -58.4 L-39.7 -57.19 L-38.19 -55.78 L-36.83 -54.2 L-35.67 -52.49 L-34.71 -50.7 L-34 -48.85 L-33.55 -47 L-33.4 -45.17 Z " />
<path stroke="rgb(0,0,0)" stroke-opacity="1" fill="rgb(173,200,200)" fill-opacity="1" id="swap3" d="M-33.4 -65.13 L-33.65 -63.01 L-34.38 -61.3 L-35.52 -60.03 L-37.02 -59.23 L-38.82 -58.92 L-40.86 -59.15 L-43.1 -59.93 L-44.85 -60.9 L-46.5 -62.12 L-48.01 -63.54 L-49.37 -65.13 L-50.53 -66.85 L-51.49 -68.65 L-52.2 -70.49 L-52.65 -72.33 L-52.8 -74.13 L-52.55 -76.22 L-51.82 -77.91 L-50.68 -79.19 L-49.18 -80 L-47.38 -80.32 L-45.34 -80.11 L-43.1 -79.33 L-41.35 -78.36 L-39.7 -77.15 L-38.19 -75.74 L-36.83 -74.16 L-35.67 -72.45 L-34.71 -70.65 L-34 -68.81 L-33.55 -66.96 L-33.4 -65.13 Z " />
<path stroke="rgb(0,0,0)" stroke-opacity="1" fill="rgb(173,200,200)" fill-opacity="1" id="swap1" d="M-11.9 -46.9 L-12.16 -44.78 L-12.88 -43.07 L-14.02 -41.8 L-15.52 -41 L-17.32 -40.69 L-19.37 -40.92 L-21.6 -41.7 L-23.36 -42.67 L-25.01 -43.89 L-26.52 -45.32 L-27.87 -46.91 L-29.04 -48.62 L-29.99 -50.42 L-30.7 -52.26 L-31.15 -54.1 L-31.3 -55.9 L-31.05 -57.99 L-30.33 -59.69 L-29.19 -60.96 L-27.69 -61.77 L-25.89 -62.09 L-23.84 -61.88 L-21.6 -61.1 L-19.85 -60.13 L-18.2 -58.91 L-16.69 -57.49 L-15.34 -55.9 L-14.17 -54.18 L-13.22 -52.38 L-12.51 -50.54 L-12.06 -48.7 L-11.9 -46.9 Z " />
<path stroke="rgb(0,0,0)" stroke-opacity="1" fill="rgb(255,255,255)" fill-opacity="1" id="secscl1" d="M-4.764 125.1 L-5.715 124.7 L-6.666 124.2 L-7.617 123.8 L-8.568 123.3 L-9.519 122.9 L-10.47 122.5 L-11.42 122 L-12.37 121.6 L-13.32 121.1 L-14.28 120.7 L-15.23 120.3 L-16.18 119.8 L-17.13 119.4 L-18.08 118.9 L-18.74 119.8 L-19.4 120.6 L-20.06 121.4 L-20.72 122.3 L-21.38 123.1 L-22.04 124 L-22.7 124.8 L-23.37 125.6 L-24.03 126.5 L-24.69 127.3 L-24.27 128.2 L-23.86 129.1 L-23.45 130.1 L-23.03 131 L-22.62 131.9 L-22.21 132.8 L-21.8 133.7 L-21.38 134.6 L-20.97 135.5 L-20.56 136.4 L-20.14 137.3 L-19.73 138.2 L-19.32 139.1 L-18.91 140 L-18.49 141 L-18.08 141.9 L-17.13 142.3 L-16.18 142.7 L-15.23 143.2 L-14.28 143.6 L-13.32 144.1 L-12.37 144.5 L-11.42 144.9 L-10.47 145.4 L-9.519 145.8 L-8.568 146.3 L-7.617 146.7 L-6.666 147.1 L-5.715 147.6 L-4.764 148 L-4.103 147.2 L-3.442 146.3 L-2.782 145.5 L-2.121 144.7 L-1.46 143.8 L-0.7995 143 L-0.1388 142.2 L0.5219 141.3 L1.183 140.5 L1.843 139.7 L1.43 138.8 L1.017 137.8 L0.6044 136.9 L0.1915 136 L-0.2214 135.1 L-0.6343 134.2 L-1.047 133.3 L-1.46 132.4 L-1.873 131.5 L-2.286 130.6 L-2.699 129.7 L-3.112 128.8 L-3.525 127.8 L-3.938 126.9 L-4.351 126 L-4.764 125.1 Z " />
</g>
</g>
</svg>
