<!DOCTYPE svg>
<svg xmlns="http://www.w3.org/2000/svg" xmlns:xlink="http://www.w3.org/1999/xlink" width="1080" height="1080">
<g transform="translate(540.000000,540.000000)">
<g transform="scale(2,2)">
<path stroke="rgb(0,0,0)" stroke-opacity="1" fill="rgb(148,200,200)" fill-opacity="1" id="bb1_2_" d="M-93.84 0.1618 L-95.83 0.05618 L-97.81 -0.04943 L-99.79 -0.155 L-101.8 -0.2606 L-103.8 -0.3663 L-105.7 -0.4719 L-107.7 -0.5775 L-109.7 -0.6831 L-111.7 -0.7887 L-113.7 -0.8943 L-115.6 -0.9999 L-117.6 -1.106 L-119.6 -1.211 L-121.6 -1.317 L-123.6 -1.422 L-125.6 -1.528 L-127.5 -1.634 L-129.5 -1.739 L-131.5 -1.845 L-133.5 -1.95 L-135.5 -2.056 L-137.4 -2.162 L-139.4 -2.267 L-141.4 -2.373 L-143.4 -2.478 L-145.4 -2.584 L-147.4 -2.69 L-149.3 -2.795 L-151.3 -2.901 L-152 -4.777 L-152.7 -6.653 L-153.4 -8.529 L-154.2 -10.4 L-154.9 -12.28 L-155.6 -14.16 L-156.3 -16.03 L-157 -17.91 L-157.7 -19.78 L-158.4 -21.66 L-159.1 -23.54 L-159.8 -25.41 L-160.5 -27.29 L-161.2 -29.16 L-162 -31.04 L-162.7 -32.92 L-163.4 -34.79 L-164.1 -36.67 L-164.8 -38.55 L-165.5 -40.42 L-166.2 -42.3 L-166.9 -44.17 L-167.6 -46.05 L-168.3 -47.93 L-169 -49.8 L-169.8 -51.68 L-170.5 -53.55 L-168.5 -53.45 L-166.5 -53.34 L-164.5 -53.24 L-162.5 -53.13 L-160.6 -53.03 L-158.6 -52.92 L-156.6 -52.81 L-154.6 -52.71 L-152.6 -52.6 L-150.6 -52.5 L-148.7 -52.39 L-146.7 -52.29 L-144.7 -52.18 L-142.7 -52.07 L-140.7 -51.97 L-138.7 -51.86 L-136.8 -51.76 L-134.8 -51.65 L-132.8 -51.55 L-130.8 -51.44 L-128.8 -51.34 L-126.9 -51.23 L-124.9 -51.12 L-122.9 -51.02 L-120.9 -50.91 L-118.9 -50.81 L-116.9 -50.7 L-115 -50.6 L-113 -50.49 L-112.3 -48.61 L-111.6 -46.74 L-110.9 -44.86 L-110.1 -42.99 L-109.4 -41.11 L-108.7 -39.23 L-108 -37.36 L-107.3 -35.48 L-106.6 -33.61 L-105.9 -31.73 L-105.2 -29.85 L-104.5 -27.98 L-103.8 -26.1 L-103.1 -24.23 L-102.4 -22.35 L-101.6 -20.47 L-100.9 -18.6 L-100.2 -16.72 L-99.52 -14.85 L-98.81 -12.97 L-98.1 -11.09 L-97.39 -9.218 L-96.68 -7.342 L-95.97 -5.466 L-95.26 -3.59 L-94.55 -1.714 L-93.84 0.1618 Z " />
<path stroke="rgb(0,0,0)" stroke-opacity="1" fill="rgb(236,216,157)" fill-opacity="1" id="pr2_1_" d="M72.72 104.7 L70.95 103.8 L69.18 102.9 L67.42 102 L65.65 101.1 L63.88 100.2 L62.11 99.26 L60.35 98.36 L58.58 97.46 L58.61 95.52 L58.64 93.59 L58.67 91.66 L58.7 89.72 L58.72 87.79 L58.75 85.86 L58.78 83.92 L60.54 84.81 L62.29 85.7 L64.05 86.59 L65.8 87.48 L67.55 88.37 L69.31 89.26 L71.06 90.15 L72.82 91.04 L72.8 92.99 L72.79 94.94 L72.77 96.88 L72.76 98.83 L72.75 100.8 L72.73 102.7 L72.72 104.7 Z " />
<path stroke="rgb(0,0,0)" stroke-opacity="1" fill="rgb(236,216,157)" fill-opacity="1" id="pr1_1_" d="M54.92 96.08 L53.16 95.17 L51.41 94.27 L49.65 93.37 L47.9 92.47 L46.14 91.56 L44.39 90.66 L42.64 89.76 L40.88 88.86 L40.9 86.92 L40.91 84.99 L40.92 83.06 L40.94 81.12 L40.95 79.19 L40.97 77.26 L40.98 75.32 L42.74 76.22 L44.49 77.13 L46.24 78.03 L48 78.93 L49.75 79.83 L51.51 80.74 L53.26 81.64 L55.02 82.54 L55 84.47 L54.99 86.41 L54.97 88.34 L54.96 90.28 L54.95 92.21 L54.93 94.14 L54.92 96.08 Z " />
<path stroke="rgb(0,0,0)" stroke-opacity="1" fill="rgb(236,216,157)" fill-opacity="1" id="pr3_1_" d="M54.62 113.6 L52.86 112.7 L51.11 111.8 L49.35 110.9 L47.6 110 L45.84 109.1 L44.09 108.2 L42.34 107.3 L40.58 106.4 L40.6 104.4 L40.61 102.5 L40.62 100.6 L40.64 98.62 L40.65 96.69 L40.67 94.76 L40.68 92.82 L42.44 93.72 L44.19 94.63 L45.94 95.53 L47.7 96.43 L49.45 97.33 L51.21 98.24 L52.96 99.14 L54.72 100 L54.7 102 L54.69 103.9 L54.67 105.8 L54.66 107.8 L54.65 109.7 L54.63 111.6 L54.62 113.6 Z " />
<path stroke="rgb(0,0,0)" stroke-opacity="1" fill="rgb(236,216,157)" fill-opacity="1" id="pr4_1_" d="M69.05 117 L68.13 116.5 L67.22 116 L66.3 115.6 L65.38 115.1 L64.47 114.7 L63.55 114.2 L62.63 113.7 L61.72 113.3 L61.72 112.3 L61.73 111.3 L61.74 110.3 L61.75 109.3 L61.75 108.3 L61.76 107.3 L61.77 106.3 L62.68 106.7 L63.6 107.2 L64.52 107.6 L65.43 108.1 L66.35 108.6 L67.27 109 L68.18 109.5 L69.1 109.9 L69.09 110.9 L69.09 112 L69.08 113 L69.07 114 L69.06 115 L69.06 116 L69.05 117 Z " />
<path stroke="rgb(0,0,0)" stroke-opacity="1" fill="rgb(238,200,200)" fill-opacity="1" id="ll1_1_" d="M119.7 100.6 L117.9 99.72 L116 98.85 L114.2 97.99 L112.3 97.12 L110.4 96.25 L108.6 95.38 L106.7 94.52 L104.9 93.65 L103 92.78 L101.2 91.91 L99.31 91.05 L97.45 90.18 L95.59 89.31 L93.74 88.44 L91.88 87.58 L90.02 86.71 L90.02 84.64 L90.02 82.57 L90.02 80.5 L90.02 78.43 L90.02 76.35 L90.02 74.28 L90.02 72.21 L90.02 70.14 L90.02 68.07 L90.02 66 L90.02 63.93 L90.02 61.86 L90.02 59.79 L90.02 57.72 L91.88 58.59 L93.74 59.47 L95.59 60.34 L97.45 61.22 L99.31 62.09 L101.2 62.96 L103 63.84 L104.9 64.71 L106.7 65.59 L108.6 66.46 L110.4 67.33 L112.3 68.21 L114.2 69.08 L116 69.96 L117.9 70.83 L119.7 71.7 L119.7 73.77 L119.7 75.83 L119.7 77.89 L119.7 79.96 L119.7 82.02 L119.7 84.08 L119.7 86.15 L119.7 88.21 L119.7 90.27 L119.7 92.34 L119.7 94.4 L119.7 96.46 L119.7 98.53 L119.7 100.6 Z " />
<path stroke="rgb(0,0,0)" stroke-opacity="1" fill="rgb(255,255,255)" fill-opacity="1" id="cl1_1_" d="M22.99 124 L23.89 122.2 L24.79 120.4 L25.69 118.6 L26.58 116.8 L27.48 115 L28.38 113.2 L29.28 111.4 L30.18 109.7 L31.08 107.9 L31.98 106.1 L32.88 104.3 L33.78 102.5 L34.67 100.7 L35.57 98.87 L36.47 97.07 L38.55 96.97 L37.64 98.77 L36.72 100.6 L35.8 102.4 L34.88 104.2 L33.96 106 L33.04 107.8 L32.12 109.6 L31.2 111.3 L30.29 113.1 L29.37 114.9 L28.45 116.7 L27.53 118.5 L26.61 120.3 L25.69 122.1 L24.77 123.9 L22.99 124 Z " />
<path stroke="rgb(0,0,0)" stroke-opacity="1" fill="rgb(255,255,255)" fill-opacity="1" id="a5_2_" d="M206 -50.75 L204.1 -51.59 L202.2 -52.44 L200.3 -53.28 L198.5 -54.12 L196.6 -54.96 L194.7 -55.81 L192.8 -56.65 L190.9 -57.49 L189 -58.34 L187.1 -59.18 L185.3 -60.02 L183.4 -60.86 L181.5 -61.71 L179.6 -62.55 L179.6 -60.6 L179.6 -58.64 L179.6 -56.69 L179.6 -54.73 L179.6 -52.78 L179.6 -50.83 L179.6 -48.87 L179.6 -46.92 L179.6 -44.97 L179.6 -43.01 L179.6 -41.06 L179.6 -39.1 L179.6 -37.15 L181.5 -36.31 L183.4 -35.46 L185.3 -34.62 L187.1 -33.78 L189 -32.94 L190.9 -32.09 L192.8 -31.25 L194.7 -30.41 L196.6 -29.56 L198.5 -28.72 L200.3 -27.88 L202.2 -27.04 L204.1 -26.19 L206 -25.35 L206 -27.3 L206 -29.26 L206 -31.21 L206 -33.17 L206 -35.12 L206 -37.07 L206 -39.03 L206 -40.98 L206 -42.93 L206 -44.89 L206 -46.84 L206 -48.8 L206 -50.75 Z " />
<path stroke="rgb(0,0,0)" stroke-opacity="1" fill="rgb(255,255,255)" fill-opacity="1" id="a6_2_" d="M83.3 51.45 L81.52 50.62 L79.75 49.79 L77.97 48.96 L76.19 48.13 L74.42 47.3 L72.64 46.47 L70.86 45.64 L69.09 44.81 L67.31 43.99 L65.54 43.16 L63.76 42.33 L61.98 41.5 L60.21 40.67 L58.43 39.84 L56.65 39.01 L54.88 38.18 L53.1 37.35 L53.1 35.25 L53.1 33.15 L53.1 31.05 L53.1 28.95 L53.1 26.85 L53.1 24.75 L53.1 22.65 L53.1 20.55 L53.1 18.45 L53.1 16.35 L54.87 17.18 L56.64 18.01 L58.41 18.84 L60.18 19.67 L61.95 20.5 L63.72 21.33 L65.49 22.16 L67.26 22.99 L69.04 23.81 L70.81 24.64 L72.58 25.47 L74.35 26.3 L76.12 27.13 L77.89 27.96 L79.66 28.79 L81.43 29.62 L83.2 30.45 L83.21 32.36 L83.22 34.27 L83.23 36.18 L83.24 38.09 L83.25 40 L83.25 41.9 L83.26 43.81 L83.27 45.72 L83.28 47.63 L83.29 49.54 L83.3 51.45 Z " />
<path stroke="rgb(0,0,0)" stroke-opacity="1" fill="rgb(148,200,200)" fill-opacity="1" id="rtr1_2_" d="M49.41 -127.3 L50.26 -129.1 L51.11 -131 L51.95 -132.9 L52.8 -134.8 L53.65 -136.6 L54.49 -138.5 L56.61 -138.5 L58.74 -138.6 L60.86 -138.6 L62.98 -138.6 L65.1 -138.7 L64.25 -136.8 L63.41 -134.9 L62.56 -133 L61.71 -131.1 L60.87 -129.2 L60.02 -127.3 L57.9 -127.3 L55.78 -127.3 L53.66 -127.3 L51.53 -127.3 L49.41 -127.3 Z " />
<path stroke="rgb(0,0,0)" stroke-opacity="1" fill="rgb(238,200,200)" fill-opacity="1" id="sg1_2_" d="M76.97 98.57 L78.63 99.33 L80.29 100.1 L81.96 100.9 L83.62 101.6 L85.28 102.4 L86.94 103.2 L87.03 105.2 L87.11 107.3 L87.2 109.4 L87.28 111.5 L85.6 110.8 L83.92 110 L82.25 109.3 L80.57 108.5 L78.89 107.8 L77.21 107 L77.15 104.9 L77.09 102.8 L77.03 100.7 L76.97 98.57 Z " />
<path stroke="rgb(0,0,0)" stroke-opacity="1" fill="rgb(255,255,255)" fill-opacity="1" id="a12_2_" d="M-54.8 88.45 L-56.68 87.63 L-58.57 86.82 L-60.45 86 L-62.33 85.18 L-64.22 84.37 L-66.1 83.55 L-66.12 81.62 L-66.13 79.68 L-66.15 77.75 L-66.17 75.82 L-66.18 73.88 L-66.2 71.95 L-64.33 72.77 L-62.47 73.58 L-60.6 74.4 L-58.73 75.22 L-56.87 76.03 L-55 76.85 L-54.97 78.78 L-54.93 80.72 L-54.9 82.65 L-54.87 84.58 L-54.83 86.52 L-54.8 88.45 Z " />
<path stroke="rgb(0,0,0)" stroke-opacity="1" fill="rgb(255,255,255)" fill-opacity="1" id="secscl1_2_" d="M-29.65 38.15 L-31.12 37.45 L-32.59 36.75 L-34.06 36.05 L-35.53 35.35 L-37.01 34.65 L-38.48 33.95 L-39.95 33.25 L-41.42 32.54 L-41.42 30.96 L-41.42 29.37 L-41.42 27.79 L-41.42 26.2 L-41.42 24.62 L-41.42 23.03 L-41.42 21.45 L-41.42 19.86 L-41.42 18.28 L-41.42 16.69 L-41.42 15.11 L-41.42 13.52 L-41.42 11.94 L-41.42 10.35 L-41.42 8.767 L-41.42 7.182 L-41.42 5.597 L-41.42 4.012 L-41.42 2.427 L-41.42 0.8415 L-41.42 -0.7437 L-41.42 -2.329 L-41.42 -3.914 L-41.42 -5.499 L-41.42 -7.084 L-41.42 -8.669 L-41.42 -10.25 L-41.42 -11.84 L-41.42 -13.42 L-41.42 -15.01 L-41.42 -16.6 L-41.42 -18.18 L-41.42 -19.77 L-41.42 -21.35 L-41.42 -22.94 L-41.42 -24.52 L-41.42 -26.11 L-41.42 -27.69 L-41.42 -29.28 L-41.42 -30.86 L-39.95 -30.15 L-38.48 -29.44 L-37.01 -28.73 L-35.53 -28.02 L-34.06 -27.31 L-32.59 -26.6 L-31.12 -25.89 L-29.65 -25.18 L-29.65 -23.59 L-29.65 -22.01 L-29.65 -20.43 L-29.65 -18.84 L-29.65 -17.26 L-29.65 -15.68 L-29.65 -14.1 L-29.65 -12.51 L-29.65 -10.93 L-29.65 -9.346 L-29.65 -7.763 L-29.65 -6.18 L-29.65 -4.596 L-29.65 -3.013 L-29.65 -1.43 L-29.65 0.153 L-29.65 1.736 L-29.65 3.319 L-29.65 4.902 L-29.65 6.486 L-29.65 8.069 L-29.65 9.652 L-29.65 11.24 L-29.65 12.82 L-29.65 14.4 L-29.65 15.98 L-29.65 17.57 L-29.65 19.15 L-29.65 20.73 L-29.65 22.32 L-29.65 23.9 L-29.65 25.48 L-29.65 27.07 L-29.65 28.65 L-29.65 30.23 L-29.65 31.82 L-29.65 33.4 L-29.65 34.98 L-29.65 36.57 L-29.65 38.15 Z " />
<path stroke="rgb(0,0,0)" stroke-opacity="1" fill="rgb(255,255,255)" fill-opacity="1" id="a7_1_" d="M141.3 -84.25 L139.4 -85.05 L137.6 -85.85 L135.7 -86.65 L133.8 -87.45 L132 -88.25 L130.1 -89.05 L128.3 -89.85 L126.4 -90.65 L124.5 -91.45 L122.7 -92.25 L120.8 -93.05 L120.8 -95.03 L120.8 -97.02 L120.8 -99 L120.8 -101 L120.8 -103 L120.8 -105 L122.7 -104.1 L124.5 -103.3 L126.4 -102.5 L128.3 -101.7 L130.1 -100.9 L132 -100 L133.8 -99.22 L135.7 -98.4 L137.6 -97.59 L139.4 -96.77 L141.3 -95.95 L141.3 -94 L141.3 -92.05 L141.3 -90.1 L141.3 -88.15 L141.3 -86.2 L141.3 -84.25 Z " />
<path stroke="rgb(0,0,0)" stroke-opacity="1" fill="rgb(255,255,255)" fill-opacity="1" id="a8_1_" d="M141.2 -69.95 L139.3 -70.76 L137.5 -71.57 L135.6 -72.38 L133.7 -73.19 L131.9 -74 L130 -74.8 L128.2 -75.61 L126.3 -76.42 L124.4 -77.23 L122.6 -78.04 L120.7 -78.85 L120.7 -80.82 L120.7 -82.78 L120.7 -84.75 L120.7 -86.72 L120.7 -88.68 L120.7 -90.65 L122.6 -89.85 L124.4 -89.05 L126.3 -88.25 L128.2 -87.45 L130.1 -86.65 L131.9 -85.85 L133.8 -85.05 L135.7 -84.25 L137.6 -83.45 L139.4 -82.65 L141.3 -81.85 L141.3 -79.87 L141.3 -77.88 L141.2 -75.9 L141.2 -73.92 L141.2 -71.93 L141.2 -69.95 Z " />
<path stroke="rgb(0,0,0)" stroke-opacity="1" fill="rgb(255,255,255)" fill-opacity="1" id="a9_1_" d="M134.2 -61.55 L132.3 -62.35 L130.4 -63.15 L128.5 -63.95 L126.5 -64.75 L124.6 -65.55 L122.7 -66.35 L120.8 -67.15 L120.8 -68.95 L120.8 -70.75 L120.7 -72.55 L120.7 -74.35 L120.7 -76.15 L122.6 -75.34 L124.5 -74.52 L126.4 -73.71 L128.4 -72.89 L130.3 -72.08 L132.2 -71.26 L134.1 -70.45 L134.1 -68.23 L134.2 -66 L134.2 -63.77 L134.2 -61.55 Z " />
<path stroke="rgb(0,0,0)" stroke-opacity="1" fill="rgb(255,255,255)" fill-opacity="1" id="a17_1_" d="M34.5 62.65 L32.73 61.71 L30.95 60.78 L29.18 59.84 L27.41 58.9 L25.64 57.97 L23.86 57.03 L22.09 56.1 L20.32 55.16 L18.55 54.22 L16.77 53.29 L15 52.35 L15 50.33 L15 48.32 L15 46.3 L15 44.28 L15 42.27 L15 40.25 L16.77 41.19 L18.55 42.12 L20.32 43.06 L22.09 44 L23.86 44.93 L25.64 45.87 L27.41 46.8 L29.18 47.74 L30.95 48.68 L32.73 49.61 L34.5 50.55 L34.5 52.57 L34.5 54.58 L34.5 56.6 L34.5 58.62 L34.5 60.63 L34.5 62.65 Z " />
<path stroke="rgb(0,0,0)" stroke-opacity="1" fill="rgb(255,255,255)" fill-opacity="1" id="a16_1_" d="M34.5 79.85 L32.73 78.95 L30.95 78.05 L29.18 77.15 L27.41 76.25 L25.64 75.35 L23.86 74.45 L22.09 73.55 L20.32 72.65 L18.55 71.75 L16.77 70.85 L15 69.95 L15 67.98 L15 66.02 L15 64.05 L15 62.08 L15 60.12 L15 58.15 L16.77 59.05 L18.55 59.95 L20.32 60.85 L22.09 61.75 L23.86 62.65 L25.64 63.55 L27.41 64.45 L29.18 65.35 L30.95 66.25 L32.73 67.15 L34.5 68.05 L34.5 70.02 L34.5 71.98 L34.5 73.95 L34.5 75.92 L34.5 77.88 L34.5 79.85 Z " />
<path stroke="rgb(0,0,0)" stroke-opacity="1" fill="rgb(236,216,157)" fill-opacity="1" id="scltrs1_1_" d="M-31.37 50.09 L-32.31 49.6 L-33.26 49.1 L-34.21 48.6 L-35.16 48.11 L-36.11 47.61 L-37.06 47.11 L-38.01 46.62 L-38.01 45.54 L-38.01 44.46 L-38.01 43.38 L-38.01 42.29 L-38.01 41.21 L-38.01 40.13 L-37.06 40.63 L-36.11 41.13 L-35.16 41.62 L-34.21 42.12 L-33.26 42.62 L-32.31 43.11 L-31.37 43.61 L-31.37 44.69 L-31.37 45.77 L-31.37 46.85 L-31.37 47.93 L-31.37 49.01 L-31.37 50.09 Z " />
<path stroke="rgb(0,0,0)" stroke-opacity="1" fill="rgb(244,227,211)" fill-opacity="1" id="a15_1_" d="M119.3 1.25 L117.4 0.3875 L115.6 -0.475 L113.7 -1.338 L111.8 -2.2 L110 -3.063 L108.1 -3.925 L106.3 -4.788 L104.4 -5.65 L104.4 -7.57 L104.4 -9.49 L104.4 -11.41 L104.4 -13.33 L104.4 -15.25 L106.3 -14.38 L108.1 -13.5 L110 -12.63 L111.8 -11.75 L113.7 -10.88 L115.6 -10 L117.4 -9.125 L119.3 -8.25 L119.3 -6.35 L119.3 -4.45 L119.3 -2.55 L119.3 -0.65 L119.3 1.25 Z " />
<path stroke="rgb(0,0,0)" stroke-opacity="1" fill="rgb(244,227,211)" fill-opacity="1" id="a14_1_" d="M117.2 9.75 L115.4 8.893 L113.5 8.036 L111.7 7.179 L109.8 6.321 L108 5.464 L106.1 4.607 L104.3 3.75 L104.3 1.817 L104.4 -0.1167 L104.4 -2.05 L106.2 -1.164 L108.1 -0.2786 L109.9 0.6071 L111.7 1.493 L113.5 2.379 L115.4 3.264 L117.2 4.15 L117.2 6.017 L117.2 7.883 L117.2 9.75 Z " />
<path stroke="rgb(0,0,0)" stroke-opacity="1" fill="rgb(244,227,211)" fill-opacity="1" id="a13_1_" d="M115 29.65 L113.2 28.82 L111.4 27.98 L109.6 27.15 L107.9 26.32 L106.1 25.48 L104.3 24.65 L104.3 22.59 L104.3 20.52 L104.3 18.46 L104.3 16.4 L104.3 14.34 L104.3 12.27 L104.3 10.21 L104.3 8.15 L106.1 8.983 L107.9 9.817 L109.6 10.65 L111.4 11.48 L113.2 12.32 L115 13.15 L115 15.21 L115 17.27 L115 19.34 L115 21.4 L115 23.46 L115 25.52 L115 27.59 L115 29.65 Z " />
<path stroke="rgb(0,0,0)" stroke-opacity="1" fill="rgb(200,200,200)" fill-opacity="1" id="a1_2_" d="M-110.5 -73.45 L-112.2 -74.33 L-114 -75.2 L-115.7 -76.08 L-117.5 -76.96 L-119.2 -77.84 L-121 -78.71 L-122.7 -79.59 L-124.5 -80.47 L-126.2 -81.35 L-128 -82.22 L-129.8 -83.1 L-131.5 -83.98 L-133.3 -84.85 L-135 -85.73 L-136.8 -86.61 L-138.5 -87.49 L-140.3 -88.36 L-142 -89.24 L-143.8 -90.12 L-145.5 -91 L-147.3 -91.87 L-149 -92.75 L-149 -94.61 L-149 -96.47 L-149 -98.33 L-149 -100.2 L-149 -102 L-147.3 -101.2 L-145.5 -100.3 L-143.8 -99.4 L-142 -98.52 L-140.3 -97.64 L-138.5 -96.76 L-136.8 -95.88 L-135 -95 L-133.3 -94.11 L-131.5 -93.23 L-129.8 -92.35 L-128 -91.47 L-126.2 -90.59 L-124.5 -89.7 L-122.7 -88.82 L-121 -87.94 L-119.2 -87.06 L-117.5 -86.18 L-115.7 -85.3 L-114 -84.41 L-112.2 -83.53 L-110.5 -82.65 L-110.5 -80.81 L-110.5 -78.97 L-110.5 -77.13 L-110.5 -75.29 L-110.5 -73.45 Z " />
<path stroke="rgb(0,0,0)" stroke-opacity="1" fill="rgb(200,200,200)" fill-opacity="1" id="a4_2_" d="M-89.9 -108.2 L-91.69 -109 L-93.49 -109.9 L-95.28 -110.8 L-97.08 -111.7 L-98.87 -112.6 L-100.7 -113.5 L-102.5 -114.4 L-104.3 -115.3 L-106 -116.2 L-107.8 -117.1 L-109.6 -118 L-111.4 -118.9 L-113.2 -119.8 L-115 -120.7 L-116.8 -121.6 L-118.6 -122.5 L-120.4 -123.3 L-122.2 -124.2 L-124 -125.1 L-125.8 -126 L-127.6 -126.9 L-129.4 -127.8 L-131.2 -128.7 L-133 -129.6 L-134.7 -130.5 L-136.5 -131.4 L-138.3 -132.3 L-140.1 -133.2 L-141.9 -134.1 L-143.7 -135 L-145.5 -135.9 L-147.3 -136.8 L-149.1 -137.7 L-149.1 -139.7 L-149.1 -141.7 L-149.1 -143.7 L-149.1 -145.7 L-149.1 -147.7 L-149.1 -149.7 L-149.1 -151.8 L-147.3 -150.9 L-145.5 -150 L-143.7 -149.1 L-141.9 -148.2 L-140.1 -147.3 L-138.3 -146.4 L-136.5 -145.5 L-134.7 -144.6 L-133 -143.7 L-131.2 -142.8 L-129.4 -142 L-127.6 -141.1 L-125.8 -140.2 L-124 -139.3 L-122.2 -138.4 L-120.4 -137.5 L-118.6 -136.6 L-116.8 -135.7 L-115 -134.8 L-113.2 -133.9 L-111.4 -133 L-109.6 -132.2 L-107.8 -131.3 L-106 -130.4 L-104.3 -129.5 L-102.5 -128.6 L-100.7 -127.7 L-98.87 -126.8 L-97.08 -125.9 L-95.28 -125 L-93.49 -124.1 L-91.69 -123.2 L-89.9 -122.3 L-89.9 -120.3 L-89.9 -118.3 L-89.9 -116.3 L-89.9 -114.2 L-89.9 -112.2 L-89.9 -110.2 L-89.9 -108.2 Z " />
<path stroke="rgb(0,0,0)" stroke-opacity="1" fill="rgb(200,200,200)" fill-opacity="1" id="a2_1_" d="M-109.1 -87.55 L-110.9 -88.45 L-112.7 -89.36 L-114.6 -90.26 L-116.4 -91.17 L-118.2 -92.07 L-120 -92.98 L-121.8 -93.88 L-123.6 -94.79 L-125.5 -95.69 L-127.3 -96.6 L-129.1 -97.5 L-130.9 -98.4 L-132.7 -99.31 L-134.6 -100.2 L-136.4 -101.1 L-138.2 -102 L-140 -102.9 L-141.8 -103.8 L-143.6 -104.7 L-145.5 -105.6 L-147.3 -106.5 L-149.1 -107.5 L-149.1 -109.4 L-149.1 -111.3 L-149.1 -113.3 L-149.1 -115.2 L-149.1 -117.2 L-147.3 -116.2 L-145.5 -115.3 L-143.6 -114.4 L-141.8 -113.5 L-140 -112.6 L-138.2 -111.7 L-136.4 -110.8 L-134.6 -109.9 L-132.7 -109 L-130.9 -108.1 L-129.1 -107.2 L-127.3 -106.2 L-125.5 -105.3 L-123.6 -104.4 L-121.8 -103.5 L-120 -102.6 L-118.2 -101.7 L-116.4 -100.8 L-114.6 -99.88 L-112.7 -98.97 L-110.9 -98.06 L-109.1 -97.15 L-109.1 -95.23 L-109.1 -93.31 L-109.1 -91.39 L-109.1 -89.47 L-109.1 -87.55 Z " />
<path stroke="rgb(0,0,0)" stroke-opacity="1" fill="rgb(200,200,200)" fill-opacity="1" id="a3_1_" d="M-105.8 -101.2 L-107.6 -102 L-109.4 -102.9 L-111.2 -103.8 L-113 -104.7 L-114.8 -105.6 L-116.6 -106.5 L-118.4 -107.4 L-120.2 -108.3 L-122 -109.2 L-123.8 -110.1 L-125.6 -111 L-127.4 -111.8 L-129.3 -112.7 L-131.1 -113.6 L-132.9 -114.5 L-134.7 -115.4 L-136.5 -116.3 L-138.3 -117.2 L-140.1 -118.1 L-141.9 -119 L-143.7 -119.9 L-145.5 -120.8 L-147.3 -121.7 L-149.1 -122.5 L-149.1 -124.6 L-149.1 -126.7 L-149.1 -128.8 L-149.1 -130.9 L-149.1 -133 L-147.3 -132.1 L-145.5 -131.2 L-143.7 -130.3 L-141.9 -129.4 L-140.1 -128.5 L-138.3 -127.6 L-136.5 -126.7 L-134.7 -125.8 L-132.9 -124.9 L-131.1 -124 L-129.3 -123.1 L-127.4 -122.3 L-125.6 -121.4 L-123.8 -120.5 L-122 -119.6 L-120.2 -118.7 L-118.4 -117.8 L-116.6 -116.9 L-114.8 -116 L-113 -115.1 L-111.2 -114.2 L-109.4 -113.3 L-107.6 -112.4 L-105.8 -111.5 L-105.8 -109.5 L-105.8 -107.4 L-105.8 -105.3 L-105.8 -103.2 L-105.8 -101.2 Z " />
<path stroke="rgb(0,0,0)" stroke-opacity="1" fill="rgb(244,227,211)" fill-opacity="1" id="a11_1_" d="M-15.3 70.85 L-17.12 70.04 L-18.94 69.23 L-20.76 68.42 L-22.57 67.61 L-24.39 66.79 L-26.21 65.98 L-28.03 65.17 L-29.85 64.36 L-31.67 63.55 L-33.49 62.74 L-35.3 61.93 L-37.12 61.12 L-38.94 60.31 L-40.76 59.49 L-42.58 58.68 L-44.4 57.87 L-46.21 57.06 L-48.03 56.25 L-49.85 55.44 L-51.67 54.63 L-53.49 53.82 L-55.31 53.01 L-57.13 52.19 L-58.94 51.38 L-60.76 50.57 L-62.58 49.76 L-64.4 48.95 L-64.45 47 L-64.5 45.05 L-62.68 45.86 L-60.86 46.68 L-59.04 47.49 L-57.23 48.31 L-55.41 49.12 L-53.59 49.94 L-51.77 50.75 L-49.95 51.57 L-48.13 52.38 L-46.31 53.2 L-44.5 54.01 L-42.68 54.83 L-40.86 55.64 L-39.04 56.46 L-37.22 57.27 L-35.4 58.09 L-33.59 58.9 L-31.77 59.72 L-29.95 60.53 L-28.13 61.35 L-26.31 62.16 L-24.49 62.98 L-22.67 63.79 L-20.86 64.61 L-19.04 65.42 L-17.22 66.24 L-15.4 67.05 L-15.35 68.95 L-15.3 70.85 Z " />
<path stroke="rgb(0,0,0)" stroke-opacity="1" fill="rgb(244,200,200)" fill-opacity="1" id="fus1_1_" d="M-100.5 51.95 L-102.3 51.19 L-104.1 50.43 L-105.9 49.67 L-107.7 48.91 L-109.5 48.15 L-109.5 46.29 L-109.5 44.43 L-109.5 42.57 L-109.5 40.71 L-109.5 38.85 L-107.7 39.61 L-105.9 40.37 L-104.1 41.13 L-102.3 41.89 L-100.5 42.65 L-100.5 44.51 L-100.5 46.37 L-100.5 48.23 L-100.5 50.09 L-100.5 51.95 Z " />
<path stroke="rgb(0,0,0)" stroke-opacity="1" fill="rgb(244,200,200)" fill-opacity="1" id="fus2_1_" d="M-91.5 55.95 L-93.3 55.17 L-95.1 54.39 L-96.9 53.61 L-98.7 52.83 L-100.5 52.05 L-100.5 50.17 L-100.4 48.29 L-100.4 46.41 L-100.3 44.53 L-100.3 42.65 L-98.54 43.41 L-96.78 44.17 L-95.02 44.93 L-93.26 45.69 L-91.5 46.45 L-91.5 48.35 L-91.5 50.25 L-91.5 52.15 L-91.5 54.05 L-91.5 55.95 Z " />
<path stroke="rgb(0,0,0)" stroke-opacity="1" fill="rgb(244,200,200)" fill-opacity="1" id="fus3_1_" d="M-100.6 61.45 L-102.4 60.69 L-104.2 59.93 L-105.9 59.17 L-107.7 58.41 L-109.5 57.65 L-109.5 55.79 L-109.5 53.93 L-109.5 52.07 L-109.5 50.21 L-109.5 48.35 L-107.7 49.11 L-105.9 49.87 L-104.1 50.63 L-102.3 51.39 L-100.5 52.15 L-100.5 54.01 L-100.5 55.87 L-100.6 57.73 L-100.6 59.59 L-100.6 61.45 Z " />
<path stroke="rgb(0,0,0)" stroke-opacity="1" fill="rgb(244,200,200)" fill-opacity="1" id="fus4_1_" d="M-96.25 60.7 L-98.05 59.92 L-99.85 59.14 L-101.6 58.36 L-103.4 57.58 L-105.2 56.8 L-105.2 54.94 L-105.2 53.08 L-105.2 51.22 L-105.2 49.36 L-105.2 47.5 L-103.4 48.28 L-101.6 49.06 L-99.85 49.84 L-98.05 50.62 L-96.25 51.4 L-96.25 53.26 L-96.25 55.12 L-96.25 56.98 L-96.25 58.84 L-96.25 60.7 Z " />
<path stroke="rgb(0,0,0)" stroke-opacity="1" fill="rgb(173,200,200)" fill-opacity="1" id="swap1_1_" d="M37.59 -109.3 L35.77 -110.2 L33.95 -111.2 L32.13 -112.1 L30.31 -113.1 L28.49 -114.1 L26.67 -115 L24.85 -116 L23.03 -116.9 L21.21 -117.9 L19.39 -118.9 L19.4 -120.9 L19.42 -122.9 L19.43 -124.9 L19.44 -126.9 L19.45 -128.9 L19.46 -130.9 L19.47 -132.9 L19.48 -134.9 L19.49 -137 L21.31 -136 L23.13 -135 L24.95 -134 L26.77 -133.1 L28.59 -132.1 L30.41 -131.1 L32.23 -130.2 L34.05 -129.2 L35.87 -128.2 L37.69 -127.3 L37.68 -125.3 L37.67 -123.3 L37.66 -121.3 L37.65 -119.3 L37.64 -117.3 L37.63 -115.3 L37.62 -113.3 L37.6 -111.3 L37.59 -109.3 Z " />
<path stroke="rgb(0,0,0)" stroke-opacity="1" fill="rgb(173,200,200)" fill-opacity="1" id="swap3_1_" d="M20.8 -127.6 L18.98 -128.6 L17.16 -129.5 L15.34 -130.5 L13.52 -131.4 L11.7 -132.4 L9.88 -133.4 L8.06 -134.3 L6.24 -135.3 L4.42 -136.2 L2.6 -137.2 L2.611 -139.2 L2.622 -141.2 L2.633 -143.2 L2.644 -145.3 L2.656 -147.3 L2.667 -149.3 L2.678 -151.3 L2.689 -153.3 L2.7 -155.3 L4.52 -154.3 L6.34 -153.4 L8.16 -152.4 L9.98 -151.5 L11.8 -150.5 L13.62 -149.5 L15.44 -148.6 L17.26 -147.6 L19.08 -146.7 L20.9 -145.7 L20.89 -143.7 L20.88 -141.7 L20.87 -139.7 L20.86 -137.7 L20.84 -135.7 L20.83 -133.6 L20.82 -131.6 L20.81 -129.6 L20.8 -127.6 Z " />
<path stroke="rgb(0,0,0)" stroke-opacity="1" fill="rgb(173,200,200)" fill-opacity="1" id="swap2_1_" d="M4.107 -122.5 L2.287 -123.5 L0.4665 -124.5 L-1.353 -125.4 L-3.173 -126.4 L-4.993 -127.3 L-6.813 -128.3 L-8.633 -129.3 L-10.45 -130.2 L-12.27 -131.2 L-14.09 -132.1 L-14.08 -134.2 L-14.07 -136.2 L-14.06 -138.2 L-14.05 -140.2 L-14.04 -142.2 L-14.03 -144.2 L-14.02 -146.2 L-14 -148.2 L-13.99 -150.2 L-12.16 -149.3 L-10.33 -148.3 L-8.503 -147.4 L-6.673 -146.4 L-4.843 -145.4 L-3.013 -144.5 L-1.183 -143.5 L0.6465 -142.6 L2.477 -141.6 L4.307 -140.6 L4.284 -138.6 L4.262 -136.6 L4.24 -134.6 L4.218 -132.6 L4.195 -130.6 L4.173 -128.6 L4.151 -126.6 L4.129 -124.6 L4.107 -122.5 Z " />
<path stroke="rgb(0,0,0)" stroke-opacity="1" fill="rgb(173,200,200)" fill-opacity="1" id="swap4_1_" d="M20.7 -104.5 L18.88 -105.5 L17.06 -106.5 L15.24 -107.4 L13.42 -108.4 L11.6 -109.4 L9.78 -110.4 L7.96 -111.4 L6.14 -112.3 L4.32 -113.3 L2.5 -114.3 L2.511 -116.3 L2.522 -118.3 L2.533 -120.3 L2.544 -122.3 L2.556 -124.3 L2.567 -126.3 L2.578 -128.3 L2.589 -130.3 L2.6 -132.3 L4.43 -131.3 L6.26 -130.4 L8.09 -129.4 L9.92 -128.4 L11.75 -127.4 L13.58 -126.5 L15.41 -125.5 L17.24 -124.5 L19.07 -123.6 L20.9 -122.6 L20.88 -120.6 L20.86 -118.6 L20.83 -116.6 L20.81 -114.5 L20.79 -112.5 L20.77 -110.5 L20.74 -108.5 L20.72 -106.5 L20.7 -104.5 Z " />
<path stroke="rgb(0,0,0)" stroke-opacity="1" fill="rgb(244,227,211)" fill-opacity="1" id="a10_5_" d="M40 -46.65 L38.24 -45.63 L36.48 -44.6 L34.71 -43.57 L32.95 -42.55 L31.19 -41.53 L29.42 -40.5 L27.66 -39.48 L25.9 -38.45 L24.14 -37.43 L22.37 -36.4 L20.61 -35.38 L18.85 -34.35 L17.09 -33.33 L15.32 -32.3 L13.56 -31.28 L11.8 -30.25 L10.04 -31.28 L8.275 -32.3 L6.512 -33.33 L4.75 -34.35 L2.987 -35.38 L1.225 -36.4 L-0.5375 -37.43 L-2.3 -38.45 L-4.063 -39.48 L-5.825 -40.5 L-7.587 -41.53 L-9.35 -42.55 L-11.11 -43.57 L-12.87 -44.6 L-14.64 -45.63 L-16.4 -46.65 L-14.64 -47.68 L-12.87 -48.7 L-11.11 -49.72 L-9.35 -50.75 L-7.587 -51.77 L-5.825 -52.8 L-4.063 -53.82 L-2.3 -54.85 L-0.5375 -55.87 L1.225 -56.9 L2.987 -57.92 L4.75 -58.95 L6.512 -59.97 L8.275 -61 L10.04 -62.02 L11.8 -63.05 L13.56 -62.02 L15.32 -61 L17.09 -59.97 L18.85 -58.95 L20.61 -57.92 L22.37 -56.9 L24.14 -55.87 L25.9 -54.85 L27.66 -53.82 L29.42 -52.8 L31.19 -51.77 L32.95 -50.75 L34.71 -49.72 L36.48 -48.7 L38.24 -47.68 L40 -46.65 Z " />
<path stroke="rgb(0,0,0)" stroke-opacity="1" fill="rgb(244,227,211)" fill-opacity="1" id="a10_4_" d="M40.5 -11.85 L40.5 -13.85 L40.5 -15.85 L40.5 -17.85 L40.5 -19.85 L40.5 -21.85 L40.5 -23.85 L40.5 -25.85 L40.5 -27.85 L40.5 -29.85 L40.5 -31.85 L40.5 -33.85 L40.5 -35.85 L40.5 -37.85 L40.5 -39.85 L40.5 -41.85 L40.5 -43.85 L40.5 -45.85 L38.74 -44.83 L36.98 -43.8 L35.21 -42.78 L33.45 -41.75 L31.69 -40.73 L29.92 -39.7 L28.16 -38.68 L26.4 -37.65 L24.64 -36.62 L22.87 -35.6 L21.11 -34.57 L19.35 -33.55 L17.59 -32.52 L15.82 -31.5 L14.06 -30.47 L12.3 -29.45 L12.3 -27.44 L12.3 -25.44 L12.3 -23.43 L12.3 -21.43 L12.3 -19.42 L12.3 -17.42 L12.3 -15.41 L12.3 -13.41 L12.3 -11.4 L12.3 -9.397 L12.3 -7.392 L12.3 -5.387 L12.3 -3.382 L12.3 -1.376 L12.3 0.6289 L12.3 2.634 L12.3 4.639 L12.3 6.645 L12.3 8.65 L13.96 7.444 L15.62 6.238 L17.28 5.032 L18.94 3.826 L20.59 2.621 L22.25 1.415 L23.91 0.2088 L25.57 -0.9971 L27.23 -2.203 L28.89 -3.409 L30.55 -4.615 L32.21 -5.821 L33.86 -7.026 L35.52 -8.232 L37.18 -9.438 L38.84 -10.64 L40.5 -11.85 Z " />
<path stroke="rgb(0,0,0)" stroke-opacity="1" fill="rgb(244,227,211)" fill-opacity="1" id="a10_3_" d="M-16.8 -45.85 L-16.8 -43.85 L-16.8 -41.85 L-16.8 -39.85 L-16.8 -37.85 L-16.8 -35.85 L-16.8 -33.85 L-16.8 -31.85 L-16.8 -29.85 L-16.8 -27.85 L-16.8 -25.85 L-16.8 -23.85 L-16.8 -21.85 L-16.8 -19.85 L-16.8 -17.85 L-16.8 -15.85 L-16.8 -13.85 L-16.8 -11.85 L-15.14 -10.64 L-13.48 -9.438 L-11.82 -8.232 L-10.16 -7.026 L-8.506 -5.821 L-6.847 -4.615 L-5.188 -3.409 L-3.529 -2.203 L-1.871 -0.9971 L-0.2118 0.2088 L1.447 1.415 L3.106 2.621 L4.765 3.826 L6.424 5.032 L8.082 6.238 L9.741 7.444 L11.4 8.65 L11.4 6.645 L11.4 4.639 L11.4 2.634 L11.4 0.6289 L11.4 -1.376 L11.4 -3.382 L11.4 -5.387 L11.4 -7.392 L11.4 -9.397 L11.4 -11.4 L11.4 -13.41 L11.4 -15.41 L11.4 -17.42 L11.4 -19.42 L11.4 -21.43 L11.4 -23.43 L11.4 -25.44 L11.4 -27.44 L11.4 -29.45 L9.637 -30.47 L7.875 -31.5 L6.112 -32.52 L4.35 -33.55 L2.587 -34.57 L0.825 -35.6 L-0.9375 -36.62 L-2.7 -37.65 L-4.462 -38.68 L-6.225 -39.7 L-7.987 -40.73 L-9.75 -41.75 L-11.51 -42.78 L-13.27 -43.8 L-15.04 -44.83 L-16.8 -45.85 Z " />
<path stroke="rgb(0,0,0)" stroke-opacity="1" fill="rgb(200,200,200)" fill-opacity="1" id="circ1_5_" d="M-100.5 -26.28 L-102.1 -25.36 L-103.7 -24.44 L-105.2 -23.52 L-106.8 -22.6 L-108.4 -21.68 L-110 -22.6 L-111.6 -23.52 L-113.1 -24.44 L-114.7 -25.36 L-116.3 -26.28 L-114.7 -27.2 L-113.1 -28.12 L-111.6 -29.04 L-110 -29.96 L-108.4 -30.88 L-106.8 -29.96 L-105.2 -29.04 L-103.7 -28.12 L-102.1 -27.2 L-100.5 -26.28 Z " />
<path stroke="rgb(0,0,0)" stroke-opacity="1" fill="rgb(200,200,200)" fill-opacity="1" id="circ1_4_" d="M-100.4 -16.48 L-100.4 -18.38 L-100.4 -20.28 L-100.4 -22.18 L-100.4 -24.08 L-100.4 -25.98 L-102 -25.08 L-103.6 -24.18 L-105.1 -23.28 L-106.7 -22.38 L-108.3 -21.48 L-108.3 -19.34 L-108.3 -17.2 L-108.3 -15.06 L-108.3 -12.92 L-108.3 -10.78 L-106.7 -11.92 L-105.1 -13.06 L-103.6 -14.2 L-102 -15.34 L-100.4 -16.48 Z " />
<path stroke="rgb(0,0,0)" stroke-opacity="1" fill="rgb(200,200,200)" fill-opacity="1" id="circ1_3_" d="M-116.5 -25.98 L-116.5 -24.08 L-116.5 -22.18 L-116.5 -20.28 L-116.5 -18.38 L-116.5 -16.48 L-114.9 -15.34 L-113.3 -14.2 L-111.8 -13.06 L-110.2 -11.92 L-108.6 -10.78 L-108.6 -12.92 L-108.6 -15.06 L-108.6 -17.2 L-108.6 -19.34 L-108.6 -21.48 L-110.2 -22.38 L-111.8 -23.28 L-113.3 -24.18 L-114.9 -25.08 L-116.5 -25.98 Z " />
<path stroke="rgb(0,0,0)" stroke-opacity="1" fill="rgb(200,200,200)" fill-opacity="1" id="circ2_5_" d="M-60.6 -1.622 L-62.18 -0.702 L-63.76 0.218 L-65.34 1.138 L-66.92 2.058 L-68.5 2.978 L-70.08 2.058 L-71.66 1.138 L-73.24 0.218 L-74.82 -0.702 L-76.4 -1.622 L-74.82 -2.522 L-73.24 -3.422 L-71.66 -4.322 L-70.08 -5.222 L-68.5 -6.122 L-66.92 -5.222 L-65.34 -4.322 L-63.76 -3.422 L-62.18 -2.522 L-60.6 -1.622 Z " />
<path stroke="rgb(0,0,0)" stroke-opacity="1" fill="rgb(200,200,200)" fill-opacity="1" id="circ2_4_" d="M-60.5 8.178 L-60.5 6.278 L-60.5 4.378 L-60.5 2.478 L-60.5 0.578 L-60.5 -1.322 L-62.08 -0.402 L-63.66 0.518 L-65.24 1.438 L-66.82 2.358 L-68.4 3.278 L-68.4 5.398 L-68.4 7.518 L-68.4 9.638 L-68.4 11.76 L-68.4 13.88 L-66.82 12.74 L-65.24 11.6 L-63.66 10.46 L-62.08 9.318 L-60.5 8.178 Z " />
<path stroke="rgb(0,0,0)" stroke-opacity="1" fill="rgb(200,200,200)" fill-opacity="1" id="circ2_3_" d="M-76.6 -1.322 L-76.6 0.578 L-76.6 2.478 L-76.6 4.378 L-76.6 6.278 L-76.6 8.178 L-75.02 9.318 L-73.44 10.46 L-71.86 11.6 L-70.28 12.74 L-68.7 13.88 L-68.7 11.76 L-68.7 9.638 L-68.7 7.518 L-68.7 5.398 L-68.7 3.278 L-70.28 2.358 L-71.86 1.438 L-73.44 0.518 L-75.02 -0.402 L-76.6 -1.322 Z " />
<path stroke="rgb(0,0,0)" stroke-opacity="1" fill="rgb(148,200,200)" fill-opacity="1" id="bb1" d="M79.74 -75.33 L77.76 -75.49 L75.78 -75.65 L73.79 -75.81 L71.81 -75.97 L69.83 -76.13 L67.85 -76.29 L65.87 -76.45 L63.89 -76.62 L61.9 -76.78 L59.92 -76.94 L57.94 -77.1 L55.96 -77.26 L53.98 -77.42 L51.99 -77.58 L50.01 -77.74 L48.03 -77.9 L46.05 -78.06 L44.7 -76.53 L43.36 -75.01 L42.01 -73.49 L40.66 -71.96 L39.31 -70.44 L37.97 -68.92 L36.62 -67.39 L35.27 -65.87 L33.93 -64.35 L32.58 -62.82 L31.23 -61.3 L29.88 -59.78 L30.59 -57.87 L31.3 -55.96 L32 -54.04 L32.71 -52.13 L33.41 -50.22 L34.12 -48.31 L34.83 -46.4 L35.53 -44.49 L36.24 -42.58 L36.94 -40.67 L37.65 -38.76 L38.36 -36.85 L39.06 -34.94 L39.77 -33.02 L40.48 -31.11 L42.12 -29.94 L43.76 -28.76 L45.4 -27.59 L47.04 -26.41 L48.68 -25.24 L50.32 -24.06 L51.96 -22.89 L53.6 -21.71 L55.24 -20.54 L56.88 -19.36 L58.52 -18.19 L60.16 -17.01 L61.8 -15.83 L63.44 -14.66 L65.08 -13.48 L66.72 -12.31 L68.37 -11.13 L70.01 -9.958 L71.65 -8.782 L73.63 -8.622 L75.61 -8.461 L77.59 -8.301 L79.57 -8.141 L81.55 -7.98 L83.54 -7.82 L85.52 -7.66 L87.5 -7.499 L89.48 -7.339 L91.46 -7.179 L93.45 -7.018 L95.43 -6.858 L97.41 -6.697 L99.39 -6.537 L101.4 -6.377 L103.4 -6.216 L105.3 -6.056 L106.7 -7.585 L108.1 -9.114 L109.4 -10.64 L110.8 -12.17 L112.1 -13.7 L113.5 -15.23 L114.9 -16.76 L116.2 -18.29 L117.6 -19.82 L119 -21.35 L120.3 -22.88 L121.7 -24.41 L121 -26.32 L120.3 -28.23 L119.6 -30.14 L118.9 -32.05 L118.2 -33.96 L117.5 -35.87 L116.7 -37.78 L116 -39.69 L115.3 -41.6 L114.6 -43.52 L113.9 -45.43 L113.2 -47.34 L112.5 -49.25 L111.8 -51.16 L111.1 -53.07 L109.4 -54.24 L107.8 -55.41 L106.1 -56.58 L104.5 -57.76 L102.8 -58.93 L101.2 -60.1 L99.54 -61.27 L97.89 -62.44 L96.24 -63.61 L94.59 -64.79 L92.94 -65.96 L91.29 -67.13 L89.64 -68.3 L87.99 -69.47 L86.34 -70.65 L84.69 -71.82 L83.04 -72.99 L81.39 -74.16 L79.74 -75.33 Z " />
<path stroke="rgb(0,0,0)" stroke-opacity="1" fill="rgb(236,216,157)" fill-opacity="1" id="scltrs1" d="M-160.6 37.82 L-161.2 38.62 L-161.9 39.43 L-162.5 40.23 L-163.1 41.04 L-163.8 41.84 L-164.4 42.65 L-165 43.45 L-165.7 44.26 L-166.3 45.06 L-167 45.87 L-167.6 46.68 L-168.2 47.48 L-168.9 48.29 L-169.5 49.09 L-170.1 49.9 L-170.8 50.7 L-171.4 51.51 L-172 52.31 L-172.7 53.12 L-173.3 53.92 L-173.9 54.73 L-174.6 55.53 L-175.2 56.34 L-175.9 57.15 L-176.5 57.95 L-177.1 58.76 L-177.8 59.56 L-178.4 60.37 L-179 61.17 L-179.7 61.98 L-180.3 62.78 L-180.9 63.59 L-181.6 64.39 L-182.2 65.2 L-182.8 66.01 L-183.5 66.81 L-182.5 67.25 L-181.6 67.68 L-180.7 68.12 L-179.7 68.55 L-178.8 68.99 L-177.9 69.43 L-176.9 69.86 L-176 70.3 L-175.1 70.74 L-174.1 71.17 L-173.2 71.61 L-172.3 72.04 L-171.3 72.48 L-170.4 72.92 L-169.5 73.35 L-168.5 73.79 L-167.6 74.22 L-166.7 74.66 L-165.7 75.1 L-164.8 75.53 L-163.9 75.97 L-162.9 76.41 L-162 76.84 L-161.1 77.28 L-160.1 77.71 L-159.2 78.15 L-158.3 78.59 L-157.3 79.02 L-156.4 79.46 L-155.5 79.89 L-154.5 80.33 L-153.6 80.77 L-152.7 81.2 L-151.7 81.64 L-150.8 82.07 L-149.9 82.51 L-148.9 82.95 L-148 83.38 L-147.1 83.82 L-146.1 84.26 L-145.2 84.69 L-144.3 85.13 L-143.3 85.56 L-142.4 86 L-141.5 86.44 L-140.5 86.87 L-139.6 87.31 L-138.7 87.74 L-137.7 88.18 L-138.2 87.23 L-138.6 86.28 L-139 85.33 L-139.5 84.38 L-139.9 83.43 L-140.3 82.48 L-140.7 81.53 L-141.2 80.58 L-141.6 79.63 L-142 78.68 L-142.5 77.73 L-142.9 76.78 L-143.3 75.83 L-143.8 74.88 L-144.2 73.93 L-144.6 72.98 L-145.1 72.03 L-145.5 71.08 L-145.9 70.13 L-146.4 69.17 L-146.8 68.22 L-147.2 67.27 L-147.7 66.32 L-148.1 65.37 L-148.5 64.42 L-148.9 63.47 L-149.4 62.52 L-149.8 61.57 L-150.2 60.62 L-150.7 59.67 L-151.1 58.72 L-151.5 57.77 L-152 56.82 L-152.4 55.87 L-152.8 54.92 L-153.3 53.97 L-153.7 53.02 L-154.1 52.07 L-154.6 51.12 L-155 50.17 L-155.4 49.22 L-155.9 48.27 L-156.3 47.32 L-156.7 46.37 L-157.1 45.42 L-157.6 44.47 L-158 43.52 L-158.4 42.57 L-158.9 41.62 L-159.3 40.67 L-159.7 39.72 L-160.2 38.77 L-160.6 37.82 Z " />
<path stroke="rgb(0,0,0)" stroke-opacity="1" fill="rgb(255,255,255)" fill-opacity="1" id="a5" d="M-62.4 134.3 L-62.51 136.7 L-62.82 138.8 L-63.33 140.8 L-64.03 142.7 L-64.92 144.4 L-65.97 145.8 L-67.18 147.2 L-68.54 148.3 L-70.05 149.2 L-71.69 150 L-73.45 150.5 L-75.33 150.8 L-77.32 150.9 L-79.4 150.9 L-81.57 150.5 L-83.81 150 L-86.13 149.2 L-88.5 148.2 L-90.29 147.4 L-92.04 146.4 L-93.76 145.3 L-95.43 144.1 L-97.07 142.8 L-98.65 141.5 L-100.2 140.1 L-101.7 138.6 L-103.1 137 L-104.4 135.4 L-105.7 133.7 L-107 132 L-108.1 130.3 L-109.2 128.5 L-110.1 126.7 L-111 124.9 L-111.8 123 L-112.5 121.2 L-113.2 119.3 L-113.7 117.4 L-114.1 115.6 L-114.4 113.7 L-114.5 111.9 L-114.6 110 L-114.5 107.7 L-114.2 105.6 L-113.7 103.6 L-113 101.7 L-112.1 100 L-111 98.56 L-109.8 97.25 L-108.5 96.12 L-107 95.19 L-105.3 94.45 L-103.5 93.91 L-101.7 93.58 L-99.68 93.45 L-97.6 93.54 L-95.43 93.85 L-93.19 94.39 L-90.87 95.15 L-88.5 96.15 L-86.71 97.04 L-84.96 98.03 L-83.24 99.12 L-81.57 100.3 L-79.93 101.6 L-78.35 102.9 L-76.81 104.3 L-75.33 105.8 L-73.91 107.4 L-72.56 109 L-71.27 110.7 L-70.05 112.4 L-68.91 114.1 L-67.84 115.9 L-66.86 117.7 L-65.97 119.5 L-65.16 121.4 L-64.45 123.2 L-63.84 125.1 L-63.33 127 L-62.93 128.8 L-62.64 130.7 L-62.46 132.5 L-62.4 134.3 Z " />
<path stroke="rgb(0,0,0)" stroke-opacity="1" fill="rgb(255,255,255)" fill-opacity="1" id="a17" d="M-96 -128.5 L-97.21 -127 L-98.42 -125.5 L-99.62 -124 L-100.8 -122.4 L-102 -120.9 L-103.2 -119.4 L-104.5 -117.8 L-105.7 -116.3 L-106.9 -114.8 L-108.1 -113.2 L-109.3 -111.7 L-110.5 -110.2 L-111.7 -108.7 L-109.9 -107.8 L-108 -106.9 L-106.2 -106.1 L-104.3 -105.2 L-102.5 -104.3 L-100.6 -103.5 L-98.77 -102.6 L-96.92 -101.7 L-95.08 -100.9 L-93.23 -100 L-91.38 -99.14 L-89.54 -98.27 L-87.69 -97.41 L-85.84 -96.54 L-83.99 -95.68 L-82.15 -94.81 L-80.3 -93.95 L-81.13 -95.77 L-81.95 -97.59 L-82.78 -99.41 L-83.61 -101.2 L-84.43 -103.1 L-85.26 -104.9 L-86.08 -106.7 L-86.91 -108.5 L-87.74 -110.3 L-88.56 -112.2 L-89.39 -114 L-90.22 -115.8 L-91.04 -117.6 L-91.87 -119.4 L-92.69 -121.3 L-93.52 -123.1 L-94.35 -124.9 L-95.17 -126.7 L-96 -128.5 Z " />
<path stroke="rgb(0,0,0)" stroke-opacity="1" fill="rgb(255,255,255)" fill-opacity="1" id="a16" d="M-96 -70.95 L-94.79 -72.48 L-93.58 -74.01 L-92.38 -75.54 L-91.17 -77.07 L-89.96 -78.6 L-88.75 -80.13 L-87.55 -81.67 L-86.34 -83.2 L-85.13 -84.73 L-83.92 -86.26 L-82.72 -87.79 L-81.51 -89.32 L-80.3 -90.85 L-82.15 -91.71 L-83.99 -92.57 L-85.84 -93.43 L-87.69 -94.29 L-89.54 -95.14 L-91.38 -96 L-93.23 -96.86 L-95.08 -97.72 L-96.92 -98.58 L-98.77 -99.44 L-100.6 -100.3 L-102.5 -101.2 L-104.3 -102 L-106.2 -102.9 L-108 -103.7 L-109.9 -104.6 L-111.7 -105.5 L-110.9 -103.6 L-110 -101.8 L-109.2 -100 L-108.4 -98.19 L-107.6 -96.37 L-106.7 -94.56 L-105.9 -92.74 L-105.1 -90.92 L-104.3 -89.11 L-103.4 -87.29 L-102.6 -85.48 L-101.8 -83.66 L-101 -81.84 L-100.1 -80.03 L-99.31 -78.21 L-98.48 -76.4 L-97.65 -74.58 L-96.83 -72.77 L-96 -70.95 Z " />
<path stroke="rgb(0,0,0)" stroke-opacity="1" fill="rgb(173,200,200)" fill-opacity="1" id="swap2" d="M-56.69 -64.95 L-56.95 -62.83 L-57.67 -61.12 L-58.81 -59.85 L-60.31 -59.05 L-62.11 -58.74 L-64.16 -58.97 L-66.39 -59.75 L-68.15 -60.72 L-69.8 -61.94 L-71.31 -63.36 L-72.66 -64.95 L-73.83 -66.67 L-74.78 -68.47 L-75.49 -70.31 L-75.94 -72.15 L-76.09 -73.95 L-75.84 -76.04 L-75.12 -77.73 L-73.98 -79.01 L-72.48 -79.82 L-70.68 -80.14 L-68.63 -79.93 L-66.39 -79.15 L-64.64 -78.18 L-62.99 -76.97 L-61.48 -75.56 L-60.13 -73.98 L-58.96 -72.27 L-58.01 -70.47 L-57.3 -68.63 L-56.85 -66.78 L-56.69 -64.95 Z " />
<path stroke="rgb(0,0,0)" stroke-opacity="1" fill="rgb(173,200,200)" fill-opacity="1" id="swap4" d="M-33.4 -47.09 L-33.65 -44.97 L-34.38 -43.26 L-35.52 -41.99 L-37.02 -41.19 L-38.82 -40.89 L-40.86 -41.11 L-43.1 -41.89 L-44.85 -42.87 L-46.5 -44.08 L-48.01 -45.51 L-49.37 -47.1 L-50.53 -48.81 L-51.49 -50.61 L-52.2 -52.45 L-52.65 -54.29 L-52.8 -56.09 L-52.55 -58.21 L-51.82 -59.92 L-50.68 -61.2 L-49.18 -62 L-47.38 -62.3 L-45.34 -62.08 L-43.1 -61.29 L-41.35 -60.33 L-39.7 -59.12 L-38.19 -57.7 L-36.83 -56.12 L-35.67 -54.42 L-34.71 -52.62 L-34 -50.78 L-33.55 -48.92 L-33.4 -47.09 Z " />
<path stroke="rgb(0,0,0)" stroke-opacity="1" fill="rgb(173,200,200)" fill-opacity="1" id="swap3" d="M-33.4 -63.21 L-33.65 -61.09 L-34.38 -59.38 L-35.52 -58.1 L-37.02 -57.3 L-38.82 -57 L-40.86 -57.22 L-43.1 -58.01 L-44.85 -58.98 L-46.5 -60.2 L-48.01 -61.62 L-49.37 -63.21 L-50.53 -64.93 L-51.49 -66.72 L-52.2 -68.56 L-52.65 -70.41 L-52.8 -72.21 L-52.55 -74.29 L-51.82 -75.99 L-50.68 -77.26 L-49.18 -78.08 L-47.38 -78.4 L-45.34 -78.18 L-43.1 -77.41 L-41.35 -76.44 L-39.7 -75.23 L-38.19 -73.81 L-36.83 -72.23 L-35.67 -70.53 L-34.71 -68.73 L-34 -66.89 L-33.55 -65.03 L-33.4 -63.21 Z " />
<path stroke="rgb(0,0,0)" stroke-opacity="1" fill="rgb(173,200,200)" fill-opacity="1" id="swap1" d="M-9.707 -46.35 L-9.96 -44.23 L-10.68 -42.52 L-11.82 -41.25 L-13.32 -40.45 L-15.12 -40.14 L-17.17 -40.37 L-19.41 -41.15 L-21.16 -42.12 L-22.81 -43.34 L-24.32 -44.77 L-25.67 -46.36 L-26.84 -48.07 L-27.79 -49.87 L-28.5 -51.71 L-28.95 -53.55 L-29.11 -55.35 L-28.85 -57.44 L-28.13 -59.14 L-26.99 -60.41 L-25.49 -61.22 L-23.69 -61.54 L-21.64 -61.33 L-19.41 -60.55 L-17.65 -59.58 L-16 -58.36 L-14.49 -56.94 L-13.14 -55.35 L-11.97 -53.63 L-11.02 -51.83 L-10.31 -49.99 L-9.861 -48.15 L-9.707 -46.35 Z " />
<path stroke="rgb(0,0,0)" stroke-opacity="1" fill="rgb(255,255,255)" fill-opacity="1" id="secscl1" d="M-1.06 120.5 L-2.547 119.8 L-4.034 119.1 L-5.521 118.4 L-7.008 117.7 L-8.494 117 L-9.981 116.3 L-11.47 115.6 L-12.95 114.9 L-14.44 114.2 L-15.93 113.5 L-17.42 112.9 L-18.9 112.2 L-20.39 111.5 L-21.88 110.8 L-22.91 112.1 L-23.94 113.4 L-24.97 114.7 L-26.01 116 L-27.04 117.3 L-28.07 118.7 L-29.1 120 L-30.14 121.3 L-31.17 122.6 L-32.2 123.9 L-31.56 125.3 L-30.91 126.8 L-30.27 128.2 L-29.62 129.6 L-28.98 131 L-28.33 132.4 L-27.68 133.9 L-27.04 135.3 L-26.39 136.7 L-25.75 138.1 L-25.1 139.5 L-24.46 141 L-23.81 142.4 L-23.17 143.8 L-22.52 145.2 L-21.88 146.6 L-20.39 147.3 L-18.9 148 L-17.42 148.7 L-15.93 149.4 L-14.44 150.1 L-12.95 150.8 L-11.47 151.4 L-9.981 152.1 L-8.494 152.8 L-7.008 153.5 L-5.521 154.2 L-4.034 154.9 L-2.547 155.6 L-1.06 156.3 L-0.02767 154.9 L1.005 153.6 L2.038 152.3 L3.071 151 L4.103 149.7 L5.136 148.4 L6.169 147.1 L7.202 145.8 L8.234 144.5 L9.267 143.2 L8.622 141.8 L7.976 140.4 L7.331 138.9 L6.685 137.5 L6.04 136.1 L5.394 134.7 L4.749 133.3 L4.103 131.8 L3.458 130.4 L2.812 129 L2.167 127.6 L1.521 126.2 L0.876 124.7 L0.2305 123.3 L-0.415 121.9 L-1.06 120.5 Z " />
</g>
</g>
</svg>
