<!DOCTYPE svg>
<svg xmlns="http://www.w3.org/2000/svg" xmlns:xlink="http://www.w3.org/1999/xlink" width="1080" height="1080">
<g transform="translate(540.000000,540.000000)">
<g transform="scale(2,2)">
<path stroke="rgb(0,0,0)" stroke-opacity="1" fill="rgb(148,200,200)" fill-opacity="1" id="bb1_2_" d="M-162.6 -61.26 L-160.7 -60.69 L-158.8 -60.13 L-156.9 -59.56 L-155 -59 L-153.1 -58.43 L-151.2 -57.87 L-149.3 -57.3 L-147.4 -56.74 L-145.5 -56.17 L-143.5 -55.61 L-141.6 -55.04 L-139.7 -54.48 L-137.8 -53.91 L-135.9 -53.35 L-134 -52.78 L-132.1 -52.22 L-130.2 -51.65 L-128.3 -51.09 L-126.4 -50.52 L-124.5 -49.96 L-122.6 -49.39 L-120.7 -48.83 L-118.7 -48.26 L-116.8 -47.7 L-114.9 -47.13 L-113 -46.57 L-111.1 -46 L-109.2 -45.44 L-107.3 -44.87 L-107.1 -42.88 L-106.8 -40.89 L-106.5 -38.89 L-106.3 -36.9 L-106 -34.9 L-105.8 -32.91 L-105.5 -30.91 L-105.3 -28.92 L-105 -26.93 L-104.8 -24.93 L-104.5 -22.94 L-104.3 -20.94 L-104 -18.95 L-103.8 -16.96 L-103.5 -14.96 L-103.2 -12.97 L-103 -10.97 L-102.7 -8.981 L-102.5 -6.987 L-102.2 -4.993 L-102 -2.999 L-101.7 -1.005 L-101.5 0.9892 L-101.2 2.983 L-101 4.977 L-100.7 6.971 L-100.5 8.965 L-102.4 8.4 L-104.3 7.835 L-106.2 7.27 L-108.1 6.705 L-110 6.14 L-111.9 5.575 L-113.8 5.01 L-115.7 4.445 L-117.6 3.88 L-119.5 3.315 L-121.4 2.75 L-123.3 2.185 L-125.3 1.619 L-127.2 1.054 L-129.1 0.4894 L-131 -0.07569 L-132.9 -0.6407 L-134.8 -1.206 L-136.7 -1.771 L-138.6 -2.336 L-140.5 -2.901 L-142.4 -3.466 L-144.3 -4.031 L-146.2 -4.596 L-148.1 -5.161 L-150 -5.726 L-152 -6.291 L-153.9 -6.856 L-155.8 -7.421 L-156 -9.415 L-156.3 -11.41 L-156.5 -13.4 L-156.8 -15.4 L-157 -17.39 L-157.3 -19.39 L-157.5 -21.38 L-157.8 -23.37 L-158.1 -25.37 L-158.3 -27.36 L-158.6 -29.36 L-158.8 -31.35 L-159.1 -33.34 L-159.3 -35.34 L-159.6 -37.33 L-159.8 -39.33 L-160.1 -41.32 L-160.3 -43.31 L-160.6 -45.31 L-160.8 -47.3 L-161.1 -49.3 L-161.4 -51.29 L-161.6 -53.28 L-161.9 -55.28 L-162.1 -57.27 L-162.4 -59.27 L-162.6 -61.26 Z " />
<path stroke="rgb(0,0,0)" stroke-opacity="1" fill="rgb(236,216,157)" fill-opacity="1" id="pr2_1_" d="M72.7 104.6 L70.94 103.7 L69.18 102.8 L67.41 101.9 L65.65 101 L63.89 100.1 L62.13 99.25 L60.36 98.35 L58.6 97.45 L58.63 95.52 L58.66 93.59 L58.69 91.66 L58.71 89.74 L58.74 87.81 L58.77 85.88 L58.8 83.95 L60.55 84.84 L62.3 85.73 L64.05 86.61 L65.8 87.5 L67.55 88.39 L69.3 89.28 L71.05 90.16 L72.8 91.05 L72.79 92.99 L72.77 94.94 L72.76 96.88 L72.74 98.82 L72.73 100.8 L72.71 102.7 L72.7 104.6 Z " />
<path stroke="rgb(0,0,0)" stroke-opacity="1" fill="rgb(236,216,157)" fill-opacity="1" id="pr1_1_" d="M54.9 96.05 L53.15 95.15 L51.4 94.25 L49.65 93.35 L47.9 92.45 L46.15 91.55 L44.4 90.65 L42.65 89.75 L40.9 88.85 L40.91 86.92 L40.93 84.99 L40.94 83.06 L40.96 81.14 L40.97 79.21 L40.99 77.28 L41 75.35 L42.75 76.25 L44.5 77.15 L46.25 78.05 L48 78.95 L49.75 79.85 L51.5 80.75 L53.25 81.65 L55 82.55 L54.99 84.48 L54.97 86.41 L54.96 88.34 L54.94 90.26 L54.93 92.19 L54.91 94.12 L54.9 96.05 Z " />
<path stroke="rgb(0,0,0)" stroke-opacity="1" fill="rgb(236,216,157)" fill-opacity="1" id="pr3_1_" d="M54.6 113.6 L52.85 112.7 L51.1 111.8 L49.35 110.9 L47.6 110 L45.85 109.1 L44.1 108.1 L42.35 107.2 L40.6 106.3 L40.61 104.4 L40.63 102.5 L40.64 100.6 L40.66 98.64 L40.67 96.71 L40.69 94.78 L40.7 92.85 L42.45 93.75 L44.2 94.65 L45.95 95.55 L47.7 96.45 L49.45 97.35 L51.2 98.25 L52.95 99.15 L54.7 100.1 L54.69 102 L54.67 103.9 L54.66 105.8 L54.64 107.8 L54.63 109.7 L54.61 111.6 L54.6 113.6 Z " />
<path stroke="rgb(0,0,0)" stroke-opacity="1" fill="rgb(236,216,157)" fill-opacity="1" id="pr4_1_" d="M72.3 121.7 L70.54 120.9 L68.77 120 L67.01 119.1 L65.25 118.2 L63.49 117.3 L61.73 116.4 L59.96 115.5 L58.2 114.6 L58.21 112.7 L58.23 110.8 L58.24 108.9 L58.26 106.9 L58.27 105 L58.29 103.1 L58.3 101.1 L60.06 102 L61.82 102.9 L63.59 103.8 L65.35 104.7 L67.11 105.6 L68.87 106.5 L70.64 107.4 L72.4 108.2 L72.39 110.2 L72.37 112.1 L72.36 114 L72.34 116 L72.33 117.9 L72.31 119.8 L72.3 121.7 Z " />
<path stroke="rgb(0,0,0)" stroke-opacity="1" fill="rgb(238,200,200)" fill-opacity="1" id="ll1_1_" d="M233.2 195.9 L229.6 194.2 L225.9 192.5 L222.3 190.8 L218.7 189.1 L215.1 187.4 L211.5 185.8 L207.9 184.1 L204.2 182.4 L200.6 180.7 L197 179 L193.4 177.3 L189.8 175.6 L186.2 173.9 L182.6 172.2 L178.9 170.6 L175.3 168.9 L175.3 164.8 L175.3 160.8 L175.3 156.8 L175.3 152.7 L175.3 148.7 L175.3 144.7 L175.3 140.6 L175.3 136.6 L175.3 132.6 L175.3 128.5 L175.3 124.5 L175.3 120.5 L175.3 116.4 L175.3 112.4 L178.9 114.1 L182.6 115.8 L186.2 117.5 L189.8 119.2 L193.4 120.9 L197 122.6 L200.6 124.3 L204.2 126 L207.9 127.7 L211.5 129.4 L215.1 131.1 L218.7 132.8 L222.3 134.5 L225.9 136.2 L229.6 137.9 L233.2 139.6 L233.2 143.7 L233.2 147.7 L233.2 151.7 L233.2 155.7 L233.2 159.7 L233.2 163.8 L233.2 167.8 L233.2 171.8 L233.2 175.8 L233.2 179.8 L233.2 183.8 L233.2 187.9 L233.2 191.9 L233.2 195.9 Z " />
<path stroke="rgb(0,0,0)" stroke-opacity="1" fill="rgb(255,255,255)" fill-opacity="1" id="cl1_1_" d="M37.98 97.72 L37.07 99.53 L36.17 101.3 L35.27 103.1 L34.36 104.9 L33.46 106.8 L32.56 108.6 L31.65 110.4 L30.75 112.2 L29.85 114 L28.94 115.8 L28.04 117.6 L27.14 119.4 L26.23 121.2 L25.33 123 L24.43 124.8 L22.33 124.9 L23.26 123.1 L24.18 121.3 L25.1 119.5 L26.03 117.7 L26.95 115.9 L27.87 114.1 L28.8 112.3 L29.72 110.5 L30.64 108.7 L31.57 106.9 L32.49 105 L33.41 103.2 L34.34 101.4 L35.26 99.63 L36.18 97.82 L37.98 97.72 Z " />
<path stroke="rgb(0,0,0)" stroke-opacity="1" fill="rgb(255,255,255)" fill-opacity="1" id="a5_2_" d="M204.5 -50.75 L202.6 -51.59 L200.7 -52.44 L198.8 -53.28 L196.9 -54.12 L195.1 -54.96 L193.2 -55.81 L191.3 -56.65 L189.4 -57.49 L187.5 -58.34 L185.6 -59.18 L183.7 -60.02 L181.9 -60.86 L180 -61.71 L178.1 -62.55 L178.1 -60.6 L178.1 -58.64 L178.1 -56.69 L178.1 -54.73 L178.1 -52.78 L178.1 -50.83 L178.1 -48.87 L178.1 -46.92 L178.1 -44.97 L178.1 -43.01 L178.1 -41.06 L178.1 -39.1 L178.1 -37.15 L180 -36.31 L181.9 -35.46 L183.7 -34.62 L185.6 -33.78 L187.5 -32.94 L189.4 -32.09 L191.3 -31.25 L193.2 -30.41 L195.1 -29.56 L196.9 -28.72 L198.8 -27.88 L200.7 -27.04 L202.6 -26.19 L204.5 -25.35 L204.5 -27.3 L204.5 -29.26 L204.5 -31.21 L204.5 -33.17 L204.5 -35.12 L204.5 -37.07 L204.5 -39.03 L204.5 -40.98 L204.5 -42.93 L204.5 -44.89 L204.5 -46.84 L204.5 -48.8 L204.5 -50.75 Z " />
<path stroke="rgb(0,0,0)" stroke-opacity="1" fill="rgb(255,255,255)" fill-opacity="1" id="a6_2_" d="M83.3 51.45 L81.52 50.62 L79.75 49.79 L77.97 48.96 L76.19 48.13 L74.42 47.3 L72.64 46.47 L70.86 45.64 L69.09 44.81 L67.31 43.99 L65.54 43.16 L63.76 42.33 L61.98 41.5 L60.21 40.67 L58.43 39.84 L56.65 39.01 L54.88 38.18 L53.1 37.35 L53.1 35.25 L53.1 33.15 L53.1 31.05 L53.1 28.95 L53.1 26.85 L53.1 24.75 L53.1 22.65 L53.1 20.55 L53.1 18.45 L53.1 16.35 L54.87 17.18 L56.64 18.01 L58.41 18.84 L60.18 19.67 L61.95 20.5 L63.72 21.33 L65.49 22.16 L67.26 22.99 L69.04 23.81 L70.81 24.64 L72.58 25.47 L74.35 26.3 L76.12 27.13 L77.89 27.96 L79.66 28.79 L81.43 29.62 L83.2 30.45 L83.21 32.36 L83.22 34.27 L83.23 36.18 L83.24 38.09 L83.25 40 L83.25 41.9 L83.26 43.81 L83.27 45.72 L83.28 47.63 L83.29 49.54 L83.3 51.45 Z " />
<path stroke="rgb(0,0,0)" stroke-opacity="1" fill="rgb(148,200,200)" fill-opacity="1" id="rtr1_2_" d="M66.17 -117 L64.49 -115.8 L62.81 -114.6 L61.12 -113.4 L59.44 -112.2 L57.76 -111 L56.07 -109.8 L54.22 -110.8 L52.36 -111.9 L50.51 -112.9 L48.65 -114 L46.79 -115 L48.48 -116.2 L50.17 -117.5 L51.87 -118.7 L53.56 -119.9 L55.25 -121.1 L56.94 -122.3 L58.79 -121.2 L60.63 -120.2 L62.48 -119.1 L64.33 -118 L66.17 -117 Z " />
<path stroke="rgb(0,0,0)" stroke-opacity="1" fill="rgb(238,200,200)" fill-opacity="1" id="sg1_2_" d="M75.52 128.8 L76.33 127.2 L77.14 125.5 L77.95 123.9 L78.77 122.2 L79.58 120.6 L80.39 119 L82.49 118.9 L84.58 118.9 L86.68 118.9 L88.78 118.8 L87.98 120.5 L87.19 122.2 L86.39 123.8 L85.6 125.5 L84.8 127.1 L84.01 128.8 L81.89 128.8 L79.76 128.8 L77.64 128.8 L75.52 128.8 Z " />
<path stroke="rgb(0,0,0)" stroke-opacity="1" fill="rgb(255,255,255)" fill-opacity="1" id="a12_2_" d="M-42.93 76.58 L-44.81 75.76 L-46.7 74.95 L-48.58 74.13 L-50.46 73.31 L-52.35 72.5 L-54.23 71.68 L-54.25 69.75 L-54.26 67.81 L-54.28 65.88 L-54.3 63.95 L-54.31 62.01 L-54.33 60.08 L-52.46 60.9 L-50.6 61.71 L-48.73 62.53 L-46.86 63.35 L-45 64.16 L-43.13 64.98 L-43.1 66.91 L-43.06 68.85 L-43.03 70.78 L-43 72.71 L-42.96 74.65 L-42.93 76.58 Z " />
<path stroke="rgb(0,0,0)" stroke-opacity="1" fill="rgb(255,255,255)" fill-opacity="1" id="secscl1_2_" d="M-31.75 25.85 L-32.69 25.4 L-33.63 24.96 L-34.57 24.51 L-35.51 24.06 L-36.45 23.61 L-37.4 23.16 L-38.34 22.72 L-39.28 22.27 L-39.28 21.25 L-39.28 20.24 L-39.28 19.23 L-39.28 18.21 L-39.28 17.2 L-39.28 16.18 L-39.28 15.17 L-39.28 14.16 L-39.28 13.14 L-39.28 12.13 L-39.28 11.11 L-39.28 10.1 L-39.28 9.085 L-39.28 8.071 L-39.28 7.057 L-39.28 6.043 L-39.28 5.028 L-39.28 4.014 L-39.28 3 L-39.28 1.986 L-39.28 0.9722 L-39.28 -0.04188 L-39.28 -1.056 L-39.28 -2.07 L-39.28 -3.084 L-39.28 -4.098 L-39.28 -5.112 L-39.28 -6.126 L-39.28 -7.14 L-39.28 -8.154 L-39.28 -9.169 L-39.28 -10.18 L-39.28 -11.2 L-39.28 -12.21 L-39.28 -13.22 L-39.28 -14.24 L-39.28 -15.25 L-39.28 -16.27 L-39.28 -17.28 L-39.28 -18.3 L-38.34 -17.84 L-37.4 -17.39 L-36.45 -16.93 L-35.51 -16.48 L-34.57 -16.02 L-33.63 -15.57 L-32.69 -15.11 L-31.75 -14.66 L-31.75 -13.65 L-31.75 -12.63 L-31.75 -11.62 L-31.75 -10.61 L-31.75 -9.595 L-31.75 -8.582 L-31.75 -7.569 L-31.75 -6.557 L-31.75 -5.544 L-31.75 -4.531 L-31.75 -3.518 L-31.75 -2.505 L-31.75 -1.493 L-31.75 -0.4798 L-31.75 0.533 L-31.75 1.546 L-31.75 2.559 L-31.75 3.571 L-31.75 4.584 L-31.75 5.597 L-31.75 6.61 L-31.75 7.623 L-31.75 8.635 L-31.75 9.648 L-31.75 10.66 L-31.75 11.67 L-31.75 12.69 L-31.75 13.7 L-31.75 14.71 L-31.75 15.72 L-31.75 16.74 L-31.75 17.75 L-31.75 18.76 L-31.75 19.78 L-31.75 20.79 L-31.75 21.8 L-31.75 22.81 L-31.75 23.83 L-31.75 24.84 L-31.75 25.85 Z " />
<path stroke="rgb(0,0,0)" stroke-opacity="1" fill="rgb(255,255,255)" fill-opacity="1" id="a7_1_" d="M141.3 -84.25 L139.4 -85.05 L137.6 -85.85 L135.7 -86.65 L133.8 -87.45 L132 -88.25 L130.1 -89.05 L128.3 -89.85 L126.4 -90.65 L124.5 -91.45 L122.7 -92.25 L120.8 -93.05 L120.8 -95.03 L120.8 -97.02 L120.8 -99 L120.8 -101 L120.8 -103 L120.8 -105 L122.7 -104.1 L124.5 -103.3 L126.4 -102.5 L128.3 -101.7 L130.1 -100.9 L132 -100 L133.8 -99.22 L135.7 -98.4 L137.6 -97.59 L139.4 -96.77 L141.3 -95.95 L141.3 -94 L141.3 -92.05 L141.3 -90.1 L141.3 -88.15 L141.3 -86.2 L141.3 -84.25 Z " />
<path stroke="rgb(0,0,0)" stroke-opacity="1" fill="rgb(255,255,255)" fill-opacity="1" id="a8_1_" d="M141.2 -69.95 L139.3 -70.76 L137.5 -71.57 L135.6 -72.38 L133.7 -73.19 L131.9 -74 L130 -74.8 L128.2 -75.61 L126.3 -76.42 L124.4 -77.23 L122.6 -78.04 L120.7 -78.85 L120.7 -80.82 L120.7 -82.78 L120.7 -84.75 L120.7 -86.72 L120.7 -88.68 L120.7 -90.65 L122.6 -89.85 L124.4 -89.05 L126.3 -88.25 L128.2 -87.45 L130.1 -86.65 L131.9 -85.85 L133.8 -85.05 L135.7 -84.25 L137.6 -83.45 L139.4 -82.65 L141.3 -81.85 L141.3 -79.87 L141.3 -77.88 L141.2 -75.9 L141.2 -73.92 L141.2 -71.93 L141.2 -69.95 Z " />
<path stroke="rgb(0,0,0)" stroke-opacity="1" fill="rgb(255,255,255)" fill-opacity="1" id="a9_1_" d="M134.2 -61.55 L132.3 -62.35 L130.4 -63.15 L128.5 -63.95 L126.5 -64.75 L124.6 -65.55 L122.7 -66.35 L120.8 -67.15 L120.8 -68.95 L120.8 -70.75 L120.7 -72.55 L120.7 -74.35 L120.7 -76.15 L122.6 -75.34 L124.5 -74.52 L126.4 -73.71 L128.4 -72.89 L130.3 -72.08 L132.2 -71.26 L134.1 -70.45 L134.1 -68.23 L134.2 -66 L134.2 -63.77 L134.2 -61.55 Z " />
<path stroke="rgb(0,0,0)" stroke-opacity="1" fill="rgb(255,255,255)" fill-opacity="1" id="a17_1_" d="M34.5 62.65 L32.73 61.71 L30.95 60.78 L29.18 59.84 L27.41 58.9 L25.64 57.97 L23.86 57.03 L22.09 56.1 L20.32 55.16 L18.55 54.22 L16.77 53.29 L15 52.35 L15 50.33 L15 48.32 L15 46.3 L15 44.28 L15 42.27 L15 40.25 L16.77 41.19 L18.55 42.12 L20.32 43.06 L22.09 44 L23.86 44.93 L25.64 45.87 L27.41 46.8 L29.18 47.74 L30.95 48.68 L32.73 49.61 L34.5 50.55 L34.5 52.57 L34.5 54.58 L34.5 56.6 L34.5 58.62 L34.5 60.63 L34.5 62.65 Z " />
<path stroke="rgb(0,0,0)" stroke-opacity="1" fill="rgb(255,255,255)" fill-opacity="1" id="a16_1_" d="M34.5 79.85 L32.73 78.95 L30.95 78.05 L29.18 77.15 L27.41 76.25 L25.64 75.35 L23.86 74.45 L22.09 73.55 L20.32 72.65 L18.55 71.75 L16.77 70.85 L15 69.95 L15 67.98 L15 66.02 L15 64.05 L15 62.08 L15 60.12 L15 58.15 L16.77 59.05 L18.55 59.95 L20.32 60.85 L22.09 61.75 L23.86 62.65 L25.64 63.55 L27.41 64.45 L29.18 65.35 L30.95 66.25 L32.73 67.15 L34.5 68.05 L34.5 70.02 L34.5 71.98 L34.5 73.95 L34.5 75.92 L34.5 77.88 L34.5 79.85 Z " />
<path stroke="rgb(0,0,0)" stroke-opacity="1" fill="rgb(236,216,157)" fill-opacity="1" id="scltrs1_1_" d="M-30.48 36 L-31.69 35.37 L-32.9 34.73 L-34.11 34.1 L-35.33 33.46 L-36.54 32.83 L-37.75 32.19 L-38.96 31.56 L-38.96 30.18 L-38.96 28.79 L-38.96 27.41 L-38.96 26.03 L-38.96 24.65 L-38.96 23.27 L-37.75 23.9 L-36.54 24.54 L-35.33 25.17 L-34.11 25.81 L-32.9 26.44 L-31.69 27.08 L-30.48 27.71 L-30.48 29.09 L-30.48 30.47 L-30.48 31.86 L-30.48 33.24 L-30.48 34.62 L-30.48 36 Z " />
<path stroke="rgb(0,0,0)" stroke-opacity="1" fill="rgb(244,227,211)" fill-opacity="1" id="a15_1_" d="M119.3 1.25 L117.4 0.3875 L115.6 -0.475 L113.7 -1.338 L111.8 -2.2 L110 -3.063 L108.1 -3.925 L106.3 -4.788 L104.4 -5.65 L104.4 -7.57 L104.4 -9.49 L104.4 -11.41 L104.4 -13.33 L104.4 -15.25 L106.3 -14.38 L108.1 -13.5 L110 -12.63 L111.8 -11.75 L113.7 -10.88 L115.6 -10 L117.4 -9.125 L119.3 -8.25 L119.3 -6.35 L119.3 -4.45 L119.3 -2.55 L119.3 -0.65 L119.3 1.25 Z " />
<path stroke="rgb(0,0,0)" stroke-opacity="1" fill="rgb(244,227,211)" fill-opacity="1" id="a14_1_" d="M117.2 9.75 L115.4 8.893 L113.5 8.036 L111.7 7.179 L109.8 6.321 L108 5.464 L106.1 4.607 L104.3 3.75 L104.3 1.817 L104.4 -0.1167 L104.4 -2.05 L106.2 -1.164 L108.1 -0.2786 L109.9 0.6071 L111.7 1.493 L113.5 2.379 L115.4 3.264 L117.2 4.15 L117.2 6.017 L117.2 7.883 L117.2 9.75 Z " />
<path stroke="rgb(0,0,0)" stroke-opacity="1" fill="rgb(244,227,211)" fill-opacity="1" id="a13_1_" d="M115 29.65 L113.2 28.82 L111.4 27.98 L109.6 27.15 L107.9 26.32 L106.1 25.48 L104.3 24.65 L104.3 22.59 L104.3 20.52 L104.3 18.46 L104.3 16.4 L104.3 14.34 L104.3 12.27 L104.3 10.21 L104.3 8.15 L106.1 8.983 L107.9 9.817 L109.6 10.65 L111.4 11.48 L113.2 12.32 L115 13.15 L115 15.21 L115 17.27 L115 19.34 L115 21.4 L115 23.46 L115 25.52 L115 27.59 L115 29.65 Z " />
<path stroke="rgb(0,0,0)" stroke-opacity="1" fill="rgb(200,200,200)" fill-opacity="1" id="a1_2_" d="M-110.5 -73.45 L-112.2 -74.33 L-114 -75.2 L-115.7 -76.08 L-117.5 -76.96 L-119.2 -77.84 L-121 -78.71 L-122.7 -79.59 L-124.5 -80.47 L-126.2 -81.35 L-128 -82.22 L-129.8 -83.1 L-131.5 -83.98 L-133.3 -84.85 L-135 -85.73 L-136.8 -86.61 L-138.5 -87.49 L-140.3 -88.36 L-142 -89.24 L-143.8 -90.12 L-145.5 -91 L-147.3 -91.87 L-149 -92.75 L-149 -94.61 L-149 -96.47 L-149 -98.33 L-149 -100.2 L-149 -102 L-147.3 -101.2 L-145.5 -100.3 L-143.8 -99.4 L-142 -98.52 L-140.3 -97.64 L-138.5 -96.76 L-136.8 -95.88 L-135 -95 L-133.3 -94.11 L-131.5 -93.23 L-129.8 -92.35 L-128 -91.47 L-126.2 -90.59 L-124.5 -89.7 L-122.7 -88.82 L-121 -87.94 L-119.2 -87.06 L-117.5 -86.18 L-115.7 -85.3 L-114 -84.41 L-112.2 -83.53 L-110.5 -82.65 L-110.5 -80.81 L-110.5 -78.97 L-110.5 -77.13 L-110.5 -75.29 L-110.5 -73.45 Z " />
<path stroke="rgb(0,0,0)" stroke-opacity="1" fill="rgb(200,200,200)" fill-opacity="1" id="a4_2_" d="M-89.9 -108.2 L-91.69 -109 L-93.49 -109.9 L-95.28 -110.8 L-97.08 -111.7 L-98.87 -112.6 L-100.7 -113.5 L-102.5 -114.4 L-104.3 -115.3 L-106 -116.2 L-107.8 -117.1 L-109.6 -118 L-111.4 -118.9 L-113.2 -119.8 L-115 -120.7 L-116.8 -121.6 L-118.6 -122.5 L-120.4 -123.3 L-122.2 -124.2 L-124 -125.1 L-125.8 -126 L-127.6 -126.9 L-129.4 -127.8 L-131.2 -128.7 L-133 -129.6 L-134.7 -130.5 L-136.5 -131.4 L-138.3 -132.3 L-140.1 -133.2 L-141.9 -134.1 L-143.7 -135 L-145.5 -135.9 L-147.3 -136.8 L-149.1 -137.7 L-149.1 -139.7 L-149.1 -141.7 L-149.1 -143.7 L-149.1 -145.7 L-149.1 -147.7 L-149.1 -149.7 L-149.1 -151.8 L-147.3 -150.9 L-145.5 -150 L-143.7 -149.1 L-141.9 -148.2 L-140.1 -147.3 L-138.3 -146.4 L-136.5 -145.5 L-134.7 -144.6 L-133 -143.7 L-131.2 -142.8 L-129.4 -142 L-127.6 -141.1 L-125.8 -140.2 L-124 -139.3 L-122.2 -138.4 L-120.4 -137.5 L-118.6 -136.6 L-116.8 -135.7 L-115 -134.8 L-113.2 -133.9 L-111.4 -133 L-109.6 -132.2 L-107.8 -131.3 L-106 -130.4 L-104.3 -129.5 L-102.5 -128.6 L-100.7 -127.7 L-98.87 -126.8 L-97.08 -125.9 L-95.28 -125 L-93.49 -124.1 L-91.69 -123.2 L-89.9 -122.3 L-89.9 -120.3 L-89.9 -118.3 L-89.9 -116.3 L-89.9 -114.2 L-89.9 -112.2 L-89.9 -110.2 L-89.9 -108.2 Z " />
<path stroke="rgb(0,0,0)" stroke-opacity="1" fill="rgb(200,200,200)" fill-opacity="1" id="a2_1_" d="M-109.1 -87.55 L-110.9 -88.45 L-112.7 -89.36 L-114.6 -90.26 L-116.4 -91.17 L-118.2 -92.07 L-120 -92.98 L-121.8 -93.88 L-123.6 -94.79 L-125.5 -95.69 L-127.3 -96.6 L-129.1 -97.5 L-130.9 -98.4 L-132.7 -99.31 L-134.6 -100.2 L-136.4 -101.1 L-138.2 -102 L-140 -102.9 L-141.8 -103.8 L-143.6 -104.7 L-145.5 -105.6 L-147.3 -106.5 L-149.1 -107.5 L-149.1 -109.4 L-149.1 -111.3 L-149.1 -113.3 L-149.1 -115.2 L-149.1 -117.2 L-147.3 -116.2 L-145.5 -115.3 L-143.6 -114.4 L-141.8 -113.5 L-140 -112.6 L-138.2 -111.7 L-136.4 -110.8 L-134.6 -109.9 L-132.7 -109 L-130.9 -108.1 L-129.1 -107.2 L-127.3 -106.2 L-125.5 -105.3 L-123.6 -104.4 L-121.8 -103.5 L-120 -102.6 L-118.2 -101.7 L-116.4 -100.8 L-114.6 -99.88 L-112.7 -98.97 L-110.9 -98.06 L-109.1 -97.15 L-109.1 -95.23 L-109.1 -93.31 L-109.1 -91.39 L-109.1 -89.47 L-109.1 -87.55 Z " />
<path stroke="rgb(0,0,0)" stroke-opacity="1" fill="rgb(200,200,200)" fill-opacity="1" id="a3_1_" d="M-105.8 -101.2 L-107.6 -102 L-109.4 -102.9 L-111.2 -103.8 L-113 -104.7 L-114.8 -105.6 L-116.6 -106.5 L-118.4 -107.4 L-120.2 -108.3 L-122 -109.2 L-123.8 -110.1 L-125.6 -111 L-127.4 -111.8 L-129.3 -112.7 L-131.1 -113.6 L-132.9 -114.5 L-134.7 -115.4 L-136.5 -116.3 L-138.3 -117.2 L-140.1 -118.1 L-141.9 -119 L-143.7 -119.9 L-145.5 -120.8 L-147.3 -121.7 L-149.1 -122.5 L-149.1 -124.6 L-149.1 -126.7 L-149.1 -128.8 L-149.1 -130.9 L-149.1 -133 L-147.3 -132.1 L-145.5 -131.2 L-143.7 -130.3 L-141.9 -129.4 L-140.1 -128.5 L-138.3 -127.6 L-136.5 -126.7 L-134.7 -125.8 L-132.9 -124.9 L-131.1 -124 L-129.3 -123.1 L-127.4 -122.3 L-125.6 -121.4 L-123.8 -120.5 L-122 -119.6 L-120.2 -118.7 L-118.4 -117.8 L-116.6 -116.9 L-114.8 -116 L-113 -115.1 L-111.2 -114.2 L-109.4 -113.3 L-107.6 -112.4 L-105.8 -111.5 L-105.8 -109.5 L-105.8 -107.4 L-105.8 -105.3 L-105.8 -103.2 L-105.8 -101.2 Z " />
<path stroke="rgb(0,0,0)" stroke-opacity="1" fill="rgb(244,227,211)" fill-opacity="1" id="a11_1_" d="M-24.2 70.85 L-26.02 70.04 L-27.84 69.23 L-29.66 68.42 L-31.48 67.61 L-33.29 66.79 L-35.11 65.98 L-36.93 65.17 L-38.75 64.36 L-40.57 63.55 L-42.39 62.74 L-44.21 61.93 L-46.02 61.12 L-47.84 60.31 L-49.66 59.49 L-51.48 58.68 L-53.3 57.87 L-55.12 57.06 L-56.94 56.25 L-58.75 55.44 L-60.57 54.63 L-62.39 53.82 L-64.21 53.01 L-66.03 52.19 L-67.85 51.38 L-69.67 50.57 L-71.48 49.76 L-73.3 48.95 L-73.35 47 L-73.4 45.05 L-71.58 45.86 L-69.77 46.68 L-67.95 47.49 L-66.13 48.31 L-64.31 49.12 L-62.49 49.94 L-60.67 50.75 L-58.85 51.57 L-57.04 52.38 L-55.22 53.2 L-53.4 54.01 L-51.58 54.83 L-49.76 55.64 L-47.94 56.46 L-46.12 57.27 L-44.31 58.09 L-42.49 58.9 L-40.67 59.72 L-38.85 60.53 L-37.03 61.35 L-35.21 62.16 L-33.39 62.98 L-31.58 63.79 L-29.76 64.61 L-27.94 65.42 L-26.12 66.24 L-24.3 67.05 L-24.25 68.95 L-24.2 70.85 Z " />
<path stroke="rgb(0,0,0)" stroke-opacity="1" fill="rgb(244,200,200)" fill-opacity="1" id="fus1_1_" d="M-95.5 56.95 L-97.3 56.19 L-99.1 55.43 L-100.9 54.67 L-102.7 53.91 L-104.5 53.15 L-104.5 51.29 L-104.5 49.43 L-104.5 47.57 L-104.5 45.71 L-104.5 43.85 L-102.7 44.61 L-100.9 45.37 L-99.1 46.13 L-97.3 46.89 L-95.5 47.65 L-95.5 49.51 L-95.5 51.37 L-95.5 53.23 L-95.5 55.09 L-95.5 56.95 Z " />
<path stroke="rgb(0,0,0)" stroke-opacity="1" fill="rgb(244,200,200)" fill-opacity="1" id="fus2_1_" d="M-96.5 60.95 L-98.3 60.17 L-100.1 59.39 L-101.9 58.61 L-103.7 57.83 L-105.5 57.05 L-105.5 55.17 L-105.4 53.29 L-105.4 51.41 L-105.3 49.53 L-105.3 47.65 L-103.5 48.41 L-101.8 49.17 L-100 49.93 L-98.26 50.69 L-96.5 51.45 L-96.5 53.35 L-96.5 55.25 L-96.5 57.15 L-96.5 59.05 L-96.5 60.95 Z " />
<path stroke="rgb(0,0,0)" stroke-opacity="1" fill="rgb(244,200,200)" fill-opacity="1" id="fus3_1_" d="M-95.6 56.45 L-97.38 55.69 L-99.16 54.93 L-100.9 54.17 L-102.7 53.41 L-104.5 52.65 L-104.5 50.79 L-104.5 48.93 L-104.5 47.07 L-104.5 45.21 L-104.5 43.35 L-102.7 44.11 L-100.9 44.87 L-99.1 45.63 L-97.3 46.39 L-95.5 47.15 L-95.52 49.01 L-95.54 50.87 L-95.56 52.73 L-95.58 54.59 L-95.6 56.45 Z " />
<path stroke="rgb(0,0,0)" stroke-opacity="1" fill="rgb(244,200,200)" fill-opacity="1" id="fus4_1_" d="M-93.53 63.42 L-95.33 62.64 L-97.13 61.86 L-98.93 61.08 L-100.7 60.3 L-102.5 59.52 L-102.5 57.66 L-102.5 55.8 L-102.5 53.94 L-102.5 52.08 L-102.5 50.22 L-100.7 51 L-98.93 51.78 L-97.13 52.56 L-95.33 53.34 L-93.53 54.12 L-93.53 55.98 L-93.53 57.84 L-93.53 59.7 L-93.53 61.56 L-93.53 63.42 Z " />
<path stroke="rgb(0,0,0)" stroke-opacity="1" fill="rgb(173,200,200)" fill-opacity="1" id="swap1_1_" d="M34.75 -110 L32.93 -110.9 L31.11 -111.9 L29.29 -112.8 L27.47 -113.8 L25.65 -114.8 L23.83 -115.7 L22.01 -116.7 L20.19 -117.6 L18.37 -118.6 L16.55 -119.6 L16.56 -121.6 L16.57 -123.6 L16.58 -125.6 L16.59 -127.6 L16.6 -129.6 L16.61 -131.6 L16.63 -133.6 L16.64 -135.7 L16.65 -137.7 L18.47 -136.7 L20.29 -135.7 L22.11 -134.8 L23.93 -133.8 L25.75 -132.8 L27.57 -131.8 L29.39 -130.9 L31.21 -129.9 L33.03 -128.9 L34.85 -128 L34.84 -126 L34.83 -124 L34.81 -122 L34.8 -120 L34.79 -118 L34.78 -116 L34.77 -114 L34.76 -112 L34.75 -110 Z " />
<path stroke="rgb(0,0,0)" stroke-opacity="1" fill="rgb(173,200,200)" fill-opacity="1" id="swap3_1_" d="M20.8 -130.1 L18.98 -131.1 L17.16 -132 L15.34 -133 L13.52 -133.9 L11.7 -134.9 L9.88 -135.9 L8.06 -136.8 L6.24 -137.8 L4.42 -138.7 L2.6 -139.7 L2.611 -141.7 L2.622 -143.7 L2.633 -145.7 L2.644 -147.7 L2.656 -149.8 L2.667 -151.8 L2.678 -153.8 L2.689 -155.8 L2.7 -157.8 L4.52 -156.8 L6.34 -155.9 L8.16 -154.9 L9.98 -154 L11.8 -153 L13.62 -152 L15.44 -151.1 L17.26 -150.1 L19.08 -149.2 L20.9 -148.2 L20.89 -146.2 L20.88 -144.2 L20.87 -142.2 L20.86 -140.2 L20.84 -138.1 L20.83 -136.1 L20.82 -134.1 L20.81 -132.1 L20.8 -130.1 Z " />
<path stroke="rgb(0,0,0)" stroke-opacity="1" fill="rgb(173,200,200)" fill-opacity="1" id="swap2_1_" d="M6.952 -121.8 L5.132 -122.8 L3.312 -123.8 L1.492 -124.7 L-0.3278 -125.7 L-2.148 -126.6 L-3.968 -127.6 L-5.788 -128.6 L-7.608 -129.5 L-9.428 -130.5 L-11.25 -131.4 L-11.24 -133.4 L-11.23 -135.5 L-11.21 -137.5 L-11.2 -139.5 L-11.19 -141.5 L-11.18 -143.5 L-11.17 -145.5 L-11.16 -147.5 L-11.15 -149.5 L-9.318 -148.6 L-7.488 -147.6 L-5.658 -146.7 L-3.828 -145.7 L-1.998 -144.7 L-0.1679 -143.8 L1.662 -142.8 L3.492 -141.9 L5.322 -140.9 L7.152 -139.9 L7.13 -137.9 L7.108 -135.9 L7.085 -133.9 L7.063 -131.9 L7.041 -129.9 L7.019 -127.9 L6.997 -125.9 L6.974 -123.8 L6.952 -121.8 Z " />
<path stroke="rgb(0,0,0)" stroke-opacity="1" fill="rgb(173,200,200)" fill-opacity="1" id="swap4_1_" d="M20.7 -102 L18.88 -103 L17.06 -104 L15.24 -104.9 L13.42 -105.9 L11.6 -106.9 L9.78 -107.9 L7.96 -108.9 L6.14 -109.8 L4.32 -110.8 L2.5 -111.8 L2.511 -113.8 L2.522 -115.8 L2.533 -117.8 L2.544 -119.8 L2.556 -121.8 L2.567 -123.8 L2.578 -125.8 L2.589 -127.8 L2.6 -129.8 L4.43 -128.8 L6.26 -127.9 L8.09 -126.9 L9.92 -125.9 L11.75 -125 L13.58 -124 L15.41 -123 L17.24 -122 L19.07 -121.1 L20.9 -120.1 L20.88 -118.1 L20.86 -116.1 L20.83 -114.1 L20.81 -112.1 L20.79 -110 L20.77 -108 L20.74 -106 L20.72 -104 L20.7 -102 Z " />
<path stroke="rgb(0,0,0)" stroke-opacity="1" fill="rgb(244,227,211)" fill-opacity="1" id="a10_5_" d="M40 -46.65 L38.24 -45.63 L36.48 -44.6 L34.71 -43.57 L32.95 -42.55 L31.19 -41.53 L29.42 -40.5 L27.66 -39.48 L25.9 -38.45 L24.14 -37.43 L22.37 -36.4 L20.61 -35.38 L18.85 -34.35 L17.09 -33.33 L15.32 -32.3 L13.56 -31.28 L11.8 -30.25 L10.04 -31.28 L8.275 -32.3 L6.512 -33.33 L4.75 -34.35 L2.987 -35.38 L1.225 -36.4 L-0.5375 -37.43 L-2.3 -38.45 L-4.063 -39.48 L-5.825 -40.5 L-7.587 -41.53 L-9.35 -42.55 L-11.11 -43.57 L-12.87 -44.6 L-14.64 -45.63 L-16.4 -46.65 L-14.64 -47.68 L-12.87 -48.7 L-11.11 -49.72 L-9.35 -50.75 L-7.587 -51.77 L-5.825 -52.8 L-4.063 -53.82 L-2.3 -54.85 L-0.5375 -55.87 L1.225 -56.9 L2.987 -57.92 L4.75 -58.95 L6.512 -59.97 L8.275 -61 L10.04 -62.02 L11.8 -63.05 L13.56 -62.02 L15.32 -61 L17.09 -59.97 L18.85 -58.95 L20.61 -57.92 L22.37 -56.9 L24.14 -55.87 L25.9 -54.85 L27.66 -53.82 L29.42 -52.8 L31.19 -51.77 L32.95 -50.75 L34.71 -49.72 L36.48 -48.7 L38.24 -47.68 L40 -46.65 Z " />
<path stroke="rgb(0,0,0)" stroke-opacity="1" fill="rgb(244,227,211)" fill-opacity="1" id="a10_4_" d="M40.5 -11.85 L40.5 -13.85 L40.5 -15.85 L40.5 -17.85 L40.5 -19.85 L40.5 -21.85 L40.5 -23.85 L40.5 -25.85 L40.5 -27.85 L40.5 -29.85 L40.5 -31.85 L40.5 -33.85 L40.5 -35.85 L40.5 -37.85 L40.5 -39.85 L40.5 -41.85 L40.5 -43.85 L40.5 -45.85 L38.74 -44.83 L36.98 -43.8 L35.21 -42.78 L33.45 -41.75 L31.69 -40.73 L29.92 -39.7 L28.16 -38.68 L26.4 -37.65 L24.64 -36.62 L22.87 -35.6 L21.11 -34.57 L19.35 -33.55 L17.59 -32.52 L15.82 -31.5 L14.06 -30.47 L12.3 -29.45 L12.3 -27.44 L12.3 -25.44 L12.3 -23.43 L12.3 -21.43 L12.3 -19.42 L12.3 -17.42 L12.3 -15.41 L12.3 -13.41 L12.3 -11.4 L12.3 -9.397 L12.3 -7.392 L12.3 -5.387 L12.3 -3.382 L12.3 -1.376 L12.3 0.6289 L12.3 2.634 L12.3 4.639 L12.3 6.645 L12.3 8.65 L13.96 7.444 L15.62 6.238 L17.28 5.032 L18.94 3.826 L20.59 2.621 L22.25 1.415 L23.91 0.2088 L25.57 -0.9971 L27.23 -2.203 L28.89 -3.409 L30.55 -4.615 L32.21 -5.821 L33.86 -7.026 L35.52 -8.232 L37.18 -9.438 L38.84 -10.64 L40.5 -11.85 Z " />
<path stroke="rgb(0,0,0)" stroke-opacity="1" fill="rgb(244,227,211)" fill-opacity="1" id="a10_3_" d="M-16.8 -45.85 L-16.8 -43.85 L-16.8 -41.85 L-16.8 -39.85 L-16.8 -37.85 L-16.8 -35.85 L-16.8 -33.85 L-16.8 -31.85 L-16.8 -29.85 L-16.8 -27.85 L-16.8 -25.85 L-16.8 -23.85 L-16.8 -21.85 L-16.8 -19.85 L-16.8 -17.85 L-16.8 -15.85 L-16.8 -13.85 L-16.8 -11.85 L-15.14 -10.64 L-13.48 -9.438 L-11.82 -8.232 L-10.16 -7.026 L-8.506 -5.821 L-6.847 -4.615 L-5.188 -3.409 L-3.529 -2.203 L-1.871 -0.9971 L-0.2118 0.2088 L1.447 1.415 L3.106 2.621 L4.765 3.826 L6.424 5.032 L8.082 6.238 L9.741 7.444 L11.4 8.65 L11.4 6.645 L11.4 4.639 L11.4 2.634 L11.4 0.6289 L11.4 -1.376 L11.4 -3.382 L11.4 -5.387 L11.4 -7.392 L11.4 -9.397 L11.4 -11.4 L11.4 -13.41 L11.4 -15.41 L11.4 -17.42 L11.4 -19.42 L11.4 -21.43 L11.4 -23.43 L11.4 -25.44 L11.4 -27.44 L11.4 -29.45 L9.637 -30.47 L7.875 -31.5 L6.112 -32.52 L4.35 -33.55 L2.587 -34.57 L0.825 -35.6 L-0.9375 -36.62 L-2.7 -37.65 L-4.462 -38.68 L-6.225 -39.7 L-7.987 -40.73 L-9.75 -41.75 L-11.51 -42.78 L-13.27 -43.8 L-15.04 -44.83 L-16.8 -45.85 Z " />
<path stroke="rgb(0,0,0)" stroke-opacity="1" fill="rgb(200,200,200)" fill-opacity="1" id="circ1_5_" d="M-100.5 -16.67 L-102.1 -15.75 L-103.7 -14.83 L-105.2 -13.91 L-106.8 -12.99 L-108.4 -12.07 L-110 -12.99 L-111.6 -13.91 L-113.1 -14.83 L-114.7 -15.75 L-116.3 -16.67 L-114.7 -17.59 L-113.1 -18.51 L-111.6 -19.43 L-110 -20.35 L-108.4 -21.27 L-106.8 -20.35 L-105.2 -19.43 L-103.7 -18.51 L-102.1 -17.59 L-100.5 -16.67 Z " />
<path stroke="rgb(0,0,0)" stroke-opacity="1" fill="rgb(200,200,200)" fill-opacity="1" id="circ1_4_" d="M-100.4 -6.874 L-100.4 -8.774 L-100.4 -10.67 L-100.4 -12.57 L-100.4 -14.47 L-100.4 -16.37 L-102 -15.47 L-103.6 -14.57 L-105.1 -13.67 L-106.7 -12.77 L-108.3 -11.87 L-108.3 -9.734 L-108.3 -7.594 L-108.3 -5.454 L-108.3 -3.314 L-108.3 -1.174 L-106.7 -2.314 L-105.1 -3.454 L-103.6 -4.594 L-102 -5.734 L-100.4 -6.874 Z " />
<path stroke="rgb(0,0,0)" stroke-opacity="1" fill="rgb(200,200,200)" fill-opacity="1" id="circ1_3_" d="M-116.5 -16.37 L-116.5 -14.47 L-116.5 -12.57 L-116.5 -10.67 L-116.5 -8.774 L-116.5 -6.874 L-114.9 -5.734 L-113.3 -4.594 L-111.8 -3.454 L-110.2 -2.314 L-108.6 -1.174 L-108.6 -3.314 L-108.6 -5.454 L-108.6 -7.594 L-108.6 -9.734 L-108.6 -11.87 L-110.2 -12.77 L-111.8 -13.67 L-113.3 -14.57 L-114.9 -15.47 L-116.5 -16.37 Z " />
<path stroke="rgb(0,0,0)" stroke-opacity="1" fill="rgb(200,200,200)" fill-opacity="1" id="circ2_5_" d="M-60.6 -11.23 L-62.18 -10.31 L-63.76 -9.386 L-65.34 -8.466 L-66.92 -7.546 L-68.5 -6.626 L-70.08 -7.546 L-71.66 -8.466 L-73.24 -9.386 L-74.82 -10.31 L-76.4 -11.23 L-74.82 -12.13 L-73.24 -13.03 L-71.66 -13.93 L-70.08 -14.83 L-68.5 -15.73 L-66.92 -14.83 L-65.34 -13.93 L-63.76 -13.03 L-62.18 -12.13 L-60.6 -11.23 Z " />
<path stroke="rgb(0,0,0)" stroke-opacity="1" fill="rgb(200,200,200)" fill-opacity="1" id="circ2_4_" d="M-60.5 -1.426 L-60.5 -3.326 L-60.5 -5.226 L-60.5 -7.126 L-60.5 -9.026 L-60.5 -10.93 L-62.08 -10.01 L-63.66 -9.086 L-65.24 -8.166 L-66.82 -7.246 L-68.4 -6.326 L-68.4 -4.206 L-68.4 -2.086 L-68.4 0.03399 L-68.4 2.154 L-68.4 4.274 L-66.82 3.134 L-65.24 1.994 L-63.66 0.854 L-62.08 -0.286 L-60.5 -1.426 Z " />
<path stroke="rgb(0,0,0)" stroke-opacity="1" fill="rgb(200,200,200)" fill-opacity="1" id="circ2_3_" d="M-76.6 -10.93 L-76.6 -9.026 L-76.6 -7.126 L-76.6 -5.226 L-76.6 -3.326 L-76.6 -1.426 L-75.02 -0.286 L-73.44 0.854 L-71.86 1.994 L-70.28 3.134 L-68.7 4.274 L-68.7 2.154 L-68.7 0.03399 L-68.7 -2.086 L-68.7 -4.206 L-68.7 -6.326 L-70.28 -7.246 L-71.86 -8.166 L-73.44 -9.086 L-75.02 -10.01 L-76.6 -10.93 Z " />
<path stroke="rgb(0,0,0)" stroke-opacity="1" fill="rgb(148,200,200)" fill-opacity="1" id="bb1" d="M64.21 -11.1 L66.1 -10.48 L67.99 -9.86 L69.89 -9.241 L71.78 -8.623 L73.68 -8.005 L75.57 -7.386 L77.47 -6.768 L79.36 -6.149 L81.26 -5.531 L83.15 -4.913 L85.04 -4.294 L86.94 -3.676 L88.83 -3.058 L90.73 -2.439 L92.62 -1.821 L94.52 -1.202 L96.41 -0.584 L98.08 -1.755 L99.75 -2.926 L101.4 -4.097 L103.1 -5.268 L104.8 -6.439 L106.4 -7.61 L108.1 -8.781 L109.8 -9.952 L111.4 -11.12 L113.1 -12.29 L114.8 -13.46 L116.4 -14.64 L116.2 -16.66 L115.9 -18.69 L115.7 -20.72 L115.5 -22.75 L115.2 -24.77 L115 -26.8 L114.7 -28.83 L114.5 -30.85 L114.2 -32.88 L114 -34.91 L113.8 -36.94 L113.5 -38.96 L113.3 -40.99 L113 -43.02 L112.8 -45.05 L111.5 -46.57 L110.1 -48.1 L108.8 -49.63 L107.5 -51.16 L106.2 -52.69 L104.8 -54.22 L103.5 -55.74 L102.2 -57.27 L100.9 -58.8 L99.54 -60.33 L98.21 -61.86 L96.89 -63.38 L95.56 -64.91 L94.24 -66.44 L92.91 -67.97 L91.59 -69.5 L90.26 -71.03 L88.94 -72.55 L87.61 -74.08 L85.72 -74.7 L83.82 -75.32 L81.93 -75.94 L80.03 -76.56 L78.14 -77.17 L76.25 -77.79 L74.35 -78.41 L72.46 -79.03 L70.56 -79.65 L68.67 -80.27 L66.77 -80.88 L64.88 -81.5 L62.98 -82.12 L61.09 -82.74 L59.2 -83.36 L57.3 -83.98 L55.41 -84.59 L53.72 -83.42 L52.04 -82.25 L50.35 -81.08 L48.67 -79.9 L46.98 -78.73 L45.3 -77.56 L43.61 -76.38 L41.93 -75.21 L40.24 -74.04 L38.56 -72.87 L36.87 -71.69 L35.19 -70.52 L35.43 -68.49 L35.67 -66.46 L35.92 -64.44 L36.16 -62.41 L36.4 -60.38 L36.65 -58.36 L36.89 -56.33 L37.13 -54.3 L37.37 -52.27 L37.62 -50.25 L37.86 -48.22 L38.1 -46.19 L38.34 -44.16 L38.59 -42.14 L38.83 -40.11 L40.17 -38.58 L41.5 -37.06 L42.84 -35.53 L44.17 -34 L45.51 -32.47 L46.84 -30.95 L48.18 -29.42 L49.51 -27.89 L50.85 -26.37 L52.19 -24.84 L53.52 -23.31 L54.86 -21.79 L56.19 -20.26 L57.53 -18.73 L58.86 -17.2 L60.2 -15.68 L61.53 -14.15 L62.87 -12.62 L64.21 -11.1 Z " />
<path stroke="rgb(0,0,0)" stroke-opacity="1" fill="rgb(236,216,157)" fill-opacity="1" id="scltrs1" d="M-161 14.77 L-161.8 15.8 L-162.6 16.83 L-163.4 17.86 L-164.2 18.89 L-165.1 19.92 L-165.9 20.95 L-166.7 21.98 L-167.5 23.01 L-168.3 24.04 L-169.1 25.07 L-169.9 26.1 L-170.7 27.13 L-171.6 28.16 L-172.4 29.19 L-173.2 30.22 L-174 31.25 L-174.8 32.28 L-175.6 33.31 L-176.4 34.34 L-177.2 35.37 L-178.1 36.4 L-178.9 37.43 L-179.7 38.46 L-180.5 39.49 L-181.3 40.52 L-182.1 41.55 L-182.9 42.58 L-183.7 43.61 L-184.6 44.64 L-185.4 45.66 L-186.2 46.69 L-187 47.72 L-187.8 48.75 L-188.6 49.78 L-189.4 50.81 L-190.2 51.84 L-189 52.4 L-187.9 52.96 L-186.7 53.52 L-185.5 54.07 L-184.3 54.63 L-183.1 55.19 L-181.9 55.75 L-180.7 56.3 L-179.5 56.86 L-178.3 57.42 L-177.1 57.98 L-175.9 58.54 L-174.7 59.09 L-173.5 59.65 L-172.3 60.21 L-171.1 60.77 L-169.9 61.32 L-168.8 61.88 L-167.6 62.44 L-166.4 63 L-165.2 63.55 L-164 64.11 L-162.8 64.67 L-161.6 65.23 L-160.4 65.78 L-159.2 66.34 L-158 66.9 L-156.8 67.46 L-155.6 68.01 L-154.4 68.57 L-153.2 69.13 L-152 69.69 L-150.8 70.25 L-149.7 70.8 L-148.5 71.36 L-147.3 71.92 L-146.1 72.48 L-144.9 73.03 L-143.7 73.59 L-142.5 74.15 L-141.3 74.71 L-140.1 75.26 L-138.9 75.82 L-137.7 76.38 L-136.5 76.94 L-135.3 77.49 L-134.1 78.05 L-132.9 78.61 L-131.7 79.17 L-132.3 77.95 L-132.8 76.74 L-133.4 75.52 L-134 74.31 L-134.5 73.09 L-135.1 71.88 L-135.6 70.66 L-136.2 69.45 L-136.7 68.23 L-137.3 67.02 L-137.8 65.8 L-138.4 64.59 L-138.9 63.37 L-139.5 62.16 L-140 60.94 L-140.6 59.73 L-141.1 58.51 L-141.7 57.3 L-142.2 56.08 L-142.8 54.87 L-143.3 53.65 L-143.9 52.44 L-144.4 51.22 L-145 50.01 L-145.5 48.79 L-146.1 47.58 L-146.6 46.36 L-147.2 45.15 L-147.7 43.93 L-148.3 42.72 L-148.9 41.5 L-149.4 40.29 L-150 39.07 L-150.5 37.86 L-151.1 36.64 L-151.6 35.43 L-152.2 34.21 L-152.7 33 L-153.3 31.78 L-153.8 30.57 L-154.4 29.35 L-154.9 28.14 L-155.5 26.92 L-156 25.71 L-156.6 24.49 L-157.1 23.28 L-157.7 22.06 L-158.2 20.85 L-158.8 19.63 L-159.3 18.42 L-159.9 17.2 L-160.4 15.99 L-161 14.77 Z " />
<path stroke="rgb(0,0,0)" stroke-opacity="1" fill="rgb(255,255,255)" fill-opacity="1" id="a5" d="M-63.92 134.3 L-64.02 136.7 L-64.34 138.8 L-64.85 140.8 L-65.55 142.7 L-66.43 144.4 L-67.48 145.8 L-68.7 147.2 L-70.06 148.3 L-71.57 149.2 L-73.21 150 L-74.97 150.5 L-76.85 150.8 L-78.83 150.9 L-80.92 150.9 L-83.08 150.5 L-85.33 150 L-87.64 149.2 L-90.02 148.2 L-91.8 147.4 L-93.56 146.4 L-95.27 145.3 L-96.95 144.1 L-98.58 142.8 L-100.2 141.5 L-101.7 140.1 L-103.2 138.6 L-104.6 137 L-106 135.4 L-107.2 133.7 L-108.5 132 L-109.6 130.3 L-110.7 128.5 L-111.7 126.7 L-112.6 124.9 L-113.4 123 L-114.1 121.2 L-114.7 119.3 L-115.2 117.4 L-115.6 115.6 L-115.9 113.7 L-116.1 111.9 L-116.1 110 L-116 107.7 L-115.7 105.6 L-115.2 103.6 L-114.5 101.7 L-113.6 100 L-112.6 98.56 L-111.3 97.25 L-110 96.12 L-108.5 95.19 L-106.8 94.45 L-105.1 93.91 L-103.2 93.58 L-101.2 93.45 L-99.12 93.54 L-96.95 93.85 L-94.7 94.39 L-92.39 95.15 L-90.02 96.15 L-88.23 97.04 L-86.48 98.03 L-84.76 99.12 L-83.08 100.3 L-81.45 101.6 L-79.86 102.9 L-78.33 104.3 L-76.85 105.8 L-75.43 107.4 L-74.07 109 L-72.79 110.7 L-71.57 112.4 L-70.42 114.1 L-69.36 115.9 L-68.38 117.7 L-67.48 119.5 L-66.68 121.4 L-65.97 123.2 L-65.36 125.1 L-64.85 127 L-64.45 128.8 L-64.16 130.7 L-63.98 132.5 L-63.92 134.3 Z " />
<path stroke="rgb(0,0,0)" stroke-opacity="1" fill="rgb(255,255,255)" fill-opacity="1" id="a17" d="M-96 -128.5 L-97.21 -127 L-98.42 -125.5 L-99.62 -124 L-100.8 -122.4 L-102 -120.9 L-103.2 -119.4 L-104.5 -117.8 L-105.7 -116.3 L-106.9 -114.8 L-108.1 -113.2 L-109.3 -111.7 L-110.5 -110.2 L-111.7 -108.7 L-109.9 -107.8 L-108 -106.9 L-106.2 -106.1 L-104.3 -105.2 L-102.5 -104.3 L-100.6 -103.5 L-98.77 -102.6 L-96.92 -101.7 L-95.08 -100.9 L-93.23 -100 L-91.38 -99.14 L-89.54 -98.27 L-87.69 -97.41 L-85.84 -96.54 L-83.99 -95.68 L-82.15 -94.81 L-80.3 -93.95 L-81.13 -95.77 L-81.95 -97.59 L-82.78 -99.41 L-83.61 -101.2 L-84.43 -103.1 L-85.26 -104.9 L-86.08 -106.7 L-86.91 -108.5 L-87.74 -110.3 L-88.56 -112.2 L-89.39 -114 L-90.22 -115.8 L-91.04 -117.6 L-91.87 -119.4 L-92.69 -121.3 L-93.52 -123.1 L-94.35 -124.9 L-95.17 -126.7 L-96 -128.5 Z " />
<path stroke="rgb(0,0,0)" stroke-opacity="1" fill="rgb(255,255,255)" fill-opacity="1" id="a16" d="M-96 -70.95 L-94.79 -72.48 L-93.58 -74.01 L-92.38 -75.54 L-91.17 -77.07 L-89.96 -78.6 L-88.75 -80.13 L-87.55 -81.67 L-86.34 -83.2 L-85.13 -84.73 L-83.92 -86.26 L-82.72 -87.79 L-81.51 -89.32 L-80.3 -90.85 L-82.15 -91.71 L-83.99 -92.57 L-85.84 -93.43 L-87.69 -94.29 L-89.54 -95.14 L-91.38 -96 L-93.23 -96.86 L-95.08 -97.72 L-96.92 -98.58 L-98.77 -99.44 L-100.6 -100.3 L-102.5 -101.2 L-104.3 -102 L-106.2 -102.9 L-108 -103.7 L-109.9 -104.6 L-111.7 -105.5 L-110.9 -103.6 L-110 -101.8 L-109.2 -100 L-108.4 -98.19 L-107.6 -96.37 L-106.7 -94.56 L-105.9 -92.74 L-105.1 -90.92 L-104.3 -89.11 L-103.4 -87.29 L-102.6 -85.48 L-101.8 -83.66 L-101 -81.84 L-100.1 -80.03 L-99.31 -78.21 L-98.48 -76.4 L-97.65 -74.58 L-96.83 -72.77 L-96 -70.95 Z " />
<path stroke="rgb(0,0,0)" stroke-opacity="1" fill="rgb(173,200,200)" fill-opacity="1" id="swap2" d="M-53.85 -64.24 L-54.1 -62.12 L-54.83 -60.41 L-55.97 -59.14 L-57.46 -58.33 L-59.26 -58.03 L-61.31 -58.25 L-63.55 -59.04 L-65.3 -60.01 L-66.95 -61.23 L-68.46 -62.65 L-69.82 -64.24 L-70.98 -65.96 L-71.93 -67.76 L-72.65 -69.6 L-73.09 -71.44 L-73.25 -73.24 L-72.99 -75.33 L-72.27 -77.02 L-71.13 -78.3 L-69.63 -79.11 L-67.83 -79.43 L-65.79 -79.21 L-63.55 -78.44 L-61.79 -77.47 L-60.15 -76.26 L-58.63 -74.84 L-57.28 -73.26 L-56.12 -71.56 L-55.16 -69.76 L-54.45 -67.92 L-54 -66.06 L-53.85 -64.24 Z " />
<path stroke="rgb(0,0,0)" stroke-opacity="1" fill="rgb(173,200,200)" fill-opacity="1" id="swap4" d="M-33.4 -44.6 L-33.65 -42.48 L-34.38 -40.77 L-35.52 -39.5 L-37.02 -38.7 L-38.82 -38.4 L-40.86 -38.62 L-43.1 -39.4 L-44.85 -40.38 L-46.5 -41.59 L-48.01 -43.02 L-49.37 -44.61 L-50.53 -46.32 L-51.49 -48.12 L-52.2 -49.96 L-52.65 -51.8 L-52.8 -53.6 L-52.55 -55.72 L-51.82 -57.43 L-50.68 -58.71 L-49.18 -59.51 L-47.38 -59.81 L-45.34 -59.59 L-43.1 -58.8 L-41.35 -57.84 L-39.7 -56.63 L-38.19 -55.21 L-36.83 -53.63 L-35.67 -51.93 L-34.71 -50.13 L-34 -48.29 L-33.55 -46.43 L-33.4 -44.6 Z " />
<path stroke="rgb(0,0,0)" stroke-opacity="1" fill="rgb(173,200,200)" fill-opacity="1" id="swap3" d="M-33.4 -65.7 L-33.65 -63.58 L-34.38 -61.87 L-35.52 -60.59 L-37.02 -59.79 L-38.82 -59.49 L-40.86 -59.71 L-43.1 -60.5 L-44.85 -61.47 L-46.5 -62.69 L-48.01 -64.11 L-49.37 -65.7 L-50.53 -67.42 L-51.49 -69.21 L-52.2 -71.05 L-52.65 -72.9 L-52.8 -74.7 L-52.55 -76.78 L-51.82 -78.48 L-50.68 -79.75 L-49.18 -80.57 L-47.38 -80.89 L-45.34 -80.67 L-43.1 -79.9 L-41.35 -78.93 L-39.7 -77.72 L-38.19 -76.3 L-36.83 -74.72 L-35.67 -73.02 L-34.71 -71.22 L-34 -69.38 L-33.55 -67.52 L-33.4 -65.7 Z " />
<path stroke="rgb(0,0,0)" stroke-opacity="1" fill="rgb(173,200,200)" fill-opacity="1" id="swap1" d="M-12.55 -47.06 L-12.81 -44.94 L-13.53 -43.23 L-14.67 -41.96 L-16.17 -41.16 L-17.97 -40.86 L-20.01 -41.08 L-22.25 -41.86 L-24.01 -42.83 L-25.65 -44.05 L-27.17 -45.48 L-28.52 -47.07 L-29.68 -48.78 L-30.64 -50.58 L-31.35 -52.42 L-31.8 -54.26 L-31.95 -56.06 L-31.7 -58.15 L-30.97 -59.85 L-29.83 -61.12 L-28.34 -61.93 L-26.54 -62.25 L-24.49 -62.04 L-22.25 -61.26 L-20.5 -60.29 L-18.85 -59.07 L-17.34 -57.65 L-15.98 -56.06 L-14.82 -54.34 L-13.87 -52.54 L-13.15 -50.7 L-12.71 -48.86 L-12.55 -47.06 Z " />
<path stroke="rgb(0,0,0)" stroke-opacity="1" fill="rgb(255,255,255)" fill-opacity="1" id="secscl1" d="M-4.764 125.1 L-5.715 124.7 L-6.666 124.2 L-7.617 123.8 L-8.568 123.3 L-9.519 122.9 L-10.47 122.5 L-11.42 122 L-12.37 121.6 L-13.32 121.1 L-14.28 120.7 L-15.23 120.3 L-16.18 119.8 L-17.13 119.4 L-18.08 118.9 L-18.74 119.8 L-19.4 120.6 L-20.06 121.4 L-20.72 122.3 L-21.38 123.1 L-22.04 124 L-22.7 124.8 L-23.37 125.6 L-24.03 126.5 L-24.69 127.3 L-24.27 128.2 L-23.86 129.1 L-23.45 130.1 L-23.03 131 L-22.62 131.9 L-22.21 132.8 L-21.8 133.7 L-21.38 134.6 L-20.97 135.5 L-20.56 136.4 L-20.14 137.3 L-19.73 138.2 L-19.32 139.1 L-18.91 140 L-18.49 141 L-18.08 141.9 L-17.13 142.3 L-16.18 142.7 L-15.23 143.2 L-14.28 143.6 L-13.32 144.1 L-12.37 144.5 L-11.42 144.9 L-10.47 145.4 L-9.519 145.8 L-8.568 146.3 L-7.617 146.7 L-6.666 147.1 L-5.715 147.6 L-4.764 148 L-4.103 147.2 L-3.442 146.3 L-2.782 145.5 L-2.121 144.7 L-1.46 143.8 L-0.7995 143 L-0.1388 142.2 L0.5219 141.3 L1.183 140.5 L1.843 139.7 L1.43 138.8 L1.017 137.8 L0.6044 136.9 L0.1915 136 L-0.2214 135.1 L-0.6343 134.2 L-1.047 133.3 L-1.46 132.4 L-1.873 131.5 L-2.286 130.6 L-2.699 129.7 L-3.112 128.8 L-3.525 127.8 L-3.938 126.9 L-4.351 126 L-4.764 125.1 Z " />
</g>
</g>
</svg>
