<!DOCTYPE svg>
<svg xmlns="http://www.w3.org/2000/svg" xmlns:xlink="http://www.w3.org/1999/xlink" width="1080" height="1080">
<g transform="translate(540.000000,540.000000)">
<g transform="scale(2,2)">
<path stroke="rgb(0,0,0)" stroke-opacity="1" fill="rgb(148,200,200)" fill-opacity="1" id="bb1_2_" d="M-178.1 -22.09 L-176.5 -23.29 L-175 -24.5 L-173.4 -25.71 L-171.8 -26.92 L-170.2 -28.13 L-168.6 -29.34 L-167 -30.55 L-165.5 -31.75 L-163.9 -32.96 L-162.3 -34.17 L-160.7 -35.38 L-159.1 -36.59 L-157.6 -37.8 L-156 -39.01 L-154.4 -40.21 L-152.8 -41.42 L-151.2 -42.63 L-149.6 -43.84 L-148.1 -45.05 L-146.5 -46.26 L-144.9 -47.46 L-143.3 -48.67 L-141.7 -49.88 L-140.2 -51.09 L-138.6 -52.3 L-137 -53.51 L-135.4 -54.72 L-133.8 -55.92 L-132.2 -57.13 L-130.5 -56.16 L-128.7 -55.19 L-127 -54.22 L-125.2 -53.25 L-123.4 -52.28 L-121.7 -51.31 L-119.9 -50.33 L-118.1 -49.36 L-116.4 -48.39 L-114.6 -47.42 L-112.9 -46.45 L-111.1 -45.48 L-109.3 -44.51 L-107.6 -43.54 L-105.8 -42.56 L-104.1 -41.59 L-102.3 -40.62 L-100.5 -39.65 L-98.77 -38.68 L-97.01 -37.71 L-95.25 -36.74 L-93.49 -35.76 L-91.73 -34.79 L-89.97 -33.82 L-88.2 -32.85 L-86.44 -31.88 L-84.68 -30.91 L-86.26 -29.7 L-87.84 -28.49 L-89.43 -27.28 L-91.01 -26.07 L-92.59 -24.87 L-94.17 -23.66 L-95.75 -22.45 L-97.34 -21.24 L-98.92 -20.03 L-100.5 -18.82 L-102.1 -17.61 L-103.7 -16.41 L-105.2 -15.2 L-106.8 -13.99 L-108.4 -12.78 L-110 -11.57 L-111.6 -10.36 L-113.2 -9.155 L-114.7 -7.946 L-116.3 -6.738 L-117.9 -5.529 L-119.5 -4.32 L-121.1 -3.112 L-122.6 -1.903 L-124.2 -0.6948 L-125.8 0.5137 L-127.4 1.722 L-129 2.931 L-130.6 4.139 L-132.3 3.168 L-134.1 2.197 L-135.8 1.225 L-137.6 0.2542 L-139.4 -0.7171 L-141.1 -1.688 L-142.9 -2.66 L-144.6 -3.631 L-146.4 -4.602 L-148.2 -5.574 L-149.9 -6.545 L-151.7 -7.516 L-153.5 -8.487 L-155.2 -9.459 L-157 -10.43 L-158.7 -11.4 L-160.5 -12.37 L-162.3 -13.34 L-164 -14.32 L-165.8 -15.29 L-167.5 -16.26 L-169.3 -17.23 L-171.1 -18.2 L-172.8 -19.17 L-174.6 -20.14 L-176.4 -21.11 L-178.1 -22.09 Z " />
<path stroke="rgb(0,0,0)" stroke-opacity="1" fill="rgb(236,216,157)" fill-opacity="1" id="pr2_1_" d="M72.7 104.6 L70.94 103.7 L69.18 102.8 L67.41 101.9 L65.65 101 L63.89 100.1 L62.13 99.25 L60.36 98.35 L58.6 97.45 L58.63 95.52 L58.66 93.59 L58.69 91.66 L58.71 89.74 L58.74 87.81 L58.77 85.88 L58.8 83.95 L60.55 84.84 L62.3 85.73 L64.05 86.61 L65.8 87.5 L67.55 88.39 L69.3 89.28 L71.05 90.16 L72.8 91.05 L72.79 92.99 L72.77 94.94 L72.76 96.88 L72.74 98.82 L72.73 100.8 L72.71 102.7 L72.7 104.6 Z " />
<path stroke="rgb(0,0,0)" stroke-opacity="1" fill="rgb(236,216,157)" fill-opacity="1" id="pr1_1_" d="M54.9 96.05 L53.15 95.15 L51.4 94.25 L49.65 93.35 L47.9 92.45 L46.15 91.55 L44.4 90.65 L42.65 89.75 L40.9 88.85 L40.91 86.92 L40.93 84.99 L40.94 83.06 L40.96 81.14 L40.97 79.21 L40.99 77.28 L41 75.35 L42.75 76.25 L44.5 77.15 L46.25 78.05 L48 78.95 L49.75 79.85 L51.5 80.75 L53.25 81.65 L55 82.55 L54.99 84.48 L54.97 86.41 L54.96 88.34 L54.94 90.26 L54.93 92.19 L54.91 94.12 L54.9 96.05 Z " />
<path stroke="rgb(0,0,0)" stroke-opacity="1" fill="rgb(236,216,157)" fill-opacity="1" id="pr3_1_" d="M54.6 113.6 L52.85 112.7 L51.1 111.8 L49.35 110.9 L47.6 110 L45.85 109.1 L44.1 108.1 L42.35 107.2 L40.6 106.3 L40.61 104.4 L40.63 102.5 L40.64 100.6 L40.66 98.64 L40.67 96.71 L40.69 94.78 L40.7 92.85 L42.45 93.75 L44.2 94.65 L45.95 95.55 L47.7 96.45 L49.45 97.35 L51.2 98.25 L52.95 99.15 L54.7 100.1 L54.69 102 L54.67 103.9 L54.66 105.8 L54.64 107.8 L54.63 109.7 L54.61 111.6 L54.6 113.6 Z " />
<path stroke="rgb(0,0,0)" stroke-opacity="1" fill="rgb(236,216,157)" fill-opacity="1" id="pr4_1_" d="M72.3 121.7 L70.54 120.9 L68.77 120 L67.01 119.1 L65.25 118.2 L63.49 117.3 L61.73 116.4 L59.96 115.5 L58.2 114.6 L58.21 112.7 L58.23 110.8 L58.24 108.9 L58.26 106.9 L58.27 105 L58.29 103.1 L58.3 101.1 L60.06 102 L61.82 102.9 L63.59 103.8 L65.35 104.7 L67.11 105.6 L68.87 106.5 L70.64 107.4 L72.4 108.2 L72.39 110.2 L72.37 112.1 L72.36 114 L72.34 116 L72.33 117.9 L72.31 119.8 L72.3 121.7 Z " />
<path stroke="rgb(0,0,0)" stroke-opacity="1" fill="rgb(238,200,200)" fill-opacity="1" id="ll1_1_" d="M220.3 185.1 L216.9 183.5 L213.4 181.9 L210 180.3 L206.6 178.7 L203.2 177.1 L199.8 175.5 L196.4 173.9 L193 172.3 L189.5 170.7 L186.1 169.1 L182.7 167.5 L179.3 165.9 L175.9 164.3 L172.5 162.7 L169 161.1 L165.6 159.5 L165.6 155.7 L165.6 151.9 L165.6 148.1 L165.6 144.3 L165.6 140.5 L165.6 136.7 L165.6 132.9 L165.6 129.1 L165.6 125.2 L165.6 121.4 L165.6 117.6 L165.6 113.8 L165.6 110 L165.6 106.2 L169 107.8 L172.5 109.4 L175.9 111 L179.3 112.6 L182.7 114.2 L186.1 115.8 L189.5 117.4 L193 119.1 L196.4 120.7 L199.8 122.3 L203.2 123.9 L206.6 125.5 L210 127.1 L213.4 128.7 L216.9 130.3 L220.3 131.9 L220.3 135.7 L220.3 139.5 L220.3 143.3 L220.3 147.1 L220.3 150.9 L220.3 154.7 L220.3 158.5 L220.3 162.3 L220.3 166.1 L220.3 169.9 L220.3 173.7 L220.3 177.5 L220.3 181.3 L220.3 185.1 Z " />
<path stroke="rgb(0,0,0)" stroke-opacity="1" fill="rgb(255,255,255)" fill-opacity="1" id="cl1_1_" d="M17.26 103.4 L19.07 104.3 L20.88 105.2 L22.69 106.1 L24.5 107 L26.3 107.9 L28.11 108.8 L29.92 109.7 L31.73 110.6 L33.54 111.5 L35.35 112.4 L37.16 113.3 L38.97 114.2 L40.78 115.1 L42.58 116.1 L44.39 117 L44.49 119.1 L42.68 118.1 L40.87 117.2 L39.07 116.3 L37.26 115.4 L35.45 114.4 L33.64 113.5 L31.83 112.6 L30.02 111.7 L28.21 110.7 L26.4 109.8 L24.6 108.9 L22.79 108 L20.98 107 L19.17 106.1 L17.36 105.2 L17.26 103.4 Z " />
<path stroke="rgb(0,0,0)" stroke-opacity="1" fill="rgb(255,255,255)" fill-opacity="1" id="a5_2_" d="M192.5 -50.75 L190.6 -51.59 L188.7 -52.44 L186.9 -53.28 L185 -54.12 L183.1 -54.96 L181.2 -55.81 L179.3 -56.65 L177.4 -57.49 L175.5 -58.34 L173.7 -59.18 L171.8 -60.02 L169.9 -60.86 L168 -61.71 L166.1 -62.55 L166.1 -60.6 L166.1 -58.64 L166.1 -56.69 L166.1 -54.73 L166.1 -52.78 L166.1 -50.83 L166.1 -48.87 L166.1 -46.92 L166.1 -44.97 L166.1 -43.01 L166.1 -41.06 L166.1 -39.1 L166.1 -37.15 L168 -36.31 L169.9 -35.46 L171.8 -34.62 L173.7 -33.78 L175.5 -32.94 L177.4 -32.09 L179.3 -31.25 L181.2 -30.41 L183.1 -29.56 L185 -28.72 L186.9 -27.88 L188.7 -27.04 L190.6 -26.19 L192.5 -25.35 L192.5 -27.3 L192.5 -29.26 L192.5 -31.21 L192.5 -33.17 L192.5 -35.12 L192.5 -37.07 L192.5 -39.03 L192.5 -40.98 L192.5 -42.93 L192.5 -44.89 L192.5 -46.84 L192.5 -48.8 L192.5 -50.75 Z " />
<path stroke="rgb(0,0,0)" stroke-opacity="1" fill="rgb(255,255,255)" fill-opacity="1" id="a6_2_" d="M83.3 51.45 L81.52 50.62 L79.75 49.79 L77.97 48.96 L76.19 48.13 L74.42 47.3 L72.64 46.47 L70.86 45.64 L69.09 44.81 L67.31 43.99 L65.54 43.16 L63.76 42.33 L61.98 41.5 L60.21 40.67 L58.43 39.84 L56.65 39.01 L54.88 38.18 L53.1 37.35 L53.1 35.25 L53.1 33.15 L53.1 31.05 L53.1 28.95 L53.1 26.85 L53.1 24.75 L53.1 22.65 L53.1 20.55 L53.1 18.45 L53.1 16.35 L54.87 17.18 L56.64 18.01 L58.41 18.84 L60.18 19.67 L61.95 20.5 L63.72 21.33 L65.49 22.16 L67.26 22.99 L69.04 23.81 L70.81 24.64 L72.58 25.47 L74.35 26.3 L76.12 27.13 L77.89 27.96 L79.66 28.79 L81.43 29.62 L83.2 30.45 L83.21 32.36 L83.22 34.27 L83.23 36.18 L83.24 38.09 L83.25 40 L83.25 41.9 L83.26 43.81 L83.27 45.72 L83.28 47.63 L83.29 49.54 L83.3 51.45 Z " />
<path stroke="rgb(0,0,0)" stroke-opacity="1" fill="rgb(148,200,200)" fill-opacity="1" id="rtr1_2_" d="M64.52 -118.2 L63.63 -116.3 L62.75 -114.4 L61.86 -112.6 L60.98 -110.7 L60.09 -108.8 L59.2 -107 L57.07 -107 L54.94 -107 L52.81 -107 L50.68 -107 L48.54 -107 L49.43 -108.9 L50.31 -110.8 L51.2 -112.7 L52.09 -114.5 L52.97 -116.4 L53.86 -118.3 L55.99 -118.3 L58.12 -118.2 L60.25 -118.2 L62.39 -118.2 L64.52 -118.2 Z " />
<path stroke="rgb(0,0,0)" stroke-opacity="1" fill="rgb(238,200,200)" fill-opacity="1" id="sg1_2_" d="M76.17 127.9 L76.77 126.2 L77.36 124.5 L77.96 122.7 L78.55 121 L79.15 119.3 L79.74 117.5 L81.82 117.3 L83.9 117 L85.98 116.7 L88.05 116.4 L87.48 118.1 L86.9 119.9 L86.32 121.6 L85.75 123.4 L85.17 125.1 L84.59 126.8 L82.49 127.1 L80.38 127.4 L78.28 127.7 L76.17 127.9 Z " />
<path stroke="rgb(0,0,0)" stroke-opacity="1" fill="rgb(255,255,255)" fill-opacity="1" id="a12_2_" d="M-34.99 68.64 L-36.87 67.82 L-38.76 67.01 L-40.64 66.19 L-42.52 65.37 L-44.41 64.56 L-46.29 63.74 L-46.31 61.81 L-46.32 59.87 L-46.34 57.94 L-46.36 56.01 L-46.37 54.07 L-46.39 52.14 L-44.52 52.96 L-42.66 53.77 L-40.79 54.59 L-38.92 55.41 L-37.06 56.22 L-35.19 57.04 L-35.16 58.97 L-35.12 60.91 L-35.09 62.84 L-35.06 64.77 L-35.02 66.71 L-34.99 68.64 Z " />
<path stroke="rgb(0,0,0)" stroke-opacity="1" fill="rgb(255,255,255)" fill-opacity="1" id="secscl1_2_" d="M-30.82 31.31 L-31.99 30.75 L-33.17 30.19 L-34.35 29.63 L-35.52 29.07 L-36.7 28.51 L-37.88 27.95 L-39.05 27.39 L-40.23 26.83 L-40.23 25.56 L-40.23 24.29 L-40.23 23.03 L-40.23 21.76 L-40.23 20.49 L-40.23 19.22 L-40.23 17.96 L-40.23 16.69 L-40.23 15.42 L-40.23 14.15 L-40.23 12.89 L-40.23 11.62 L-40.23 10.35 L-40.23 9.083 L-40.23 7.816 L-40.23 6.548 L-40.23 5.281 L-40.23 4.013 L-40.23 2.746 L-40.23 1.478 L-40.23 0.2109 L-40.23 -1.057 L-40.23 -2.324 L-40.23 -3.592 L-40.23 -4.859 L-40.23 -6.126 L-40.23 -7.394 L-40.23 -8.661 L-40.23 -9.929 L-40.23 -11.2 L-40.23 -12.46 L-40.23 -13.73 L-40.23 -15 L-40.23 -16.27 L-40.23 -17.53 L-40.23 -18.8 L-40.23 -20.07 L-40.23 -21.34 L-40.23 -22.6 L-40.23 -23.87 L-39.05 -23.3 L-37.88 -22.73 L-36.7 -22.17 L-35.52 -21.6 L-34.35 -21.03 L-33.17 -20.46 L-31.99 -19.89 L-30.82 -19.33 L-30.82 -18.06 L-30.82 -16.79 L-30.82 -15.53 L-30.82 -14.26 L-30.82 -13 L-30.82 -11.73 L-30.82 -10.46 L-30.82 -9.199 L-30.82 -7.933 L-30.82 -6.667 L-30.82 -5.401 L-30.82 -4.136 L-30.82 -2.87 L-30.82 -1.604 L-30.82 -0.338 L-30.82 0.9278 L-30.82 2.194 L-30.82 3.46 L-30.82 4.725 L-30.82 5.991 L-30.82 7.257 L-30.82 8.523 L-30.82 9.789 L-30.82 11.05 L-30.82 12.32 L-30.82 13.59 L-30.82 14.85 L-30.82 16.12 L-30.82 17.38 L-30.82 18.65 L-30.82 19.92 L-30.82 21.18 L-30.82 22.45 L-30.82 23.71 L-30.82 24.98 L-30.82 26.25 L-30.82 27.51 L-30.82 28.78 L-30.82 30.04 L-30.82 31.31 Z " />
<path stroke="rgb(0,0,0)" stroke-opacity="1" fill="rgb(255,255,255)" fill-opacity="1" id="a7_1_" d="M141.3 -84.25 L139.4 -85.05 L137.6 -85.85 L135.7 -86.65 L133.8 -87.45 L132 -88.25 L130.1 -89.05 L128.3 -89.85 L126.4 -90.65 L124.5 -91.45 L122.7 -92.25 L120.8 -93.05 L120.8 -95.03 L120.8 -97.02 L120.8 -99 L120.8 -101 L120.8 -103 L120.8 -105 L122.7 -104.1 L124.5 -103.3 L126.4 -102.5 L128.3 -101.7 L130.1 -100.9 L132 -100 L133.8 -99.22 L135.7 -98.4 L137.6 -97.59 L139.4 -96.77 L141.3 -95.95 L141.3 -94 L141.3 -92.05 L141.3 -90.1 L141.3 -88.15 L141.3 -86.2 L141.3 -84.25 Z " />
<path stroke="rgb(0,0,0)" stroke-opacity="1" fill="rgb(255,255,255)" fill-opacity="1" id="a8_1_" d="M141.2 -69.95 L139.3 -70.76 L137.5 -71.57 L135.6 -72.38 L133.7 -73.19 L131.9 -74 L130 -74.8 L128.2 -75.61 L126.3 -76.42 L124.4 -77.23 L122.6 -78.04 L120.7 -78.85 L120.7 -80.82 L120.7 -82.78 L120.7 -84.75 L120.7 -86.72 L120.7 -88.68 L120.7 -90.65 L122.6 -89.85 L124.4 -89.05 L126.3 -88.25 L128.2 -87.45 L130.1 -86.65 L131.9 -85.85 L133.8 -85.05 L135.7 -84.25 L137.6 -83.45 L139.4 -82.65 L141.3 -81.85 L141.3 -79.87 L141.3 -77.88 L141.2 -75.9 L141.2 -73.92 L141.2 -71.93 L141.2 -69.95 Z " />
<path stroke="rgb(0,0,0)" stroke-opacity="1" fill="rgb(255,255,255)" fill-opacity="1" id="a9_1_" d="M134.2 -61.55 L132.3 -62.35 L130.4 -63.15 L128.5 -63.95 L126.5 -64.75 L124.6 -65.55 L122.7 -66.35 L120.8 -67.15 L120.8 -68.95 L120.8 -70.75 L120.7 -72.55 L120.7 -74.35 L120.7 -76.15 L122.6 -75.34 L124.5 -74.52 L126.4 -73.71 L128.4 -72.89 L130.3 -72.08 L132.2 -71.26 L134.1 -70.45 L134.1 -68.23 L134.2 -66 L134.2 -63.77 L134.2 -61.55 Z " />
<path stroke="rgb(0,0,0)" stroke-opacity="1" fill="rgb(255,255,255)" fill-opacity="1" id="a17_1_" d="M34.5 62.65 L32.73 61.71 L30.95 60.78 L29.18 59.84 L27.41 58.9 L25.64 57.97 L23.86 57.03 L22.09 56.1 L20.32 55.16 L18.55 54.22 L16.77 53.29 L15 52.35 L15 50.33 L15 48.32 L15 46.3 L15 44.28 L15 42.27 L15 40.25 L16.77 41.19 L18.55 42.12 L20.32 43.06 L22.09 44 L23.86 44.93 L25.64 45.87 L27.41 46.8 L29.18 47.74 L30.95 48.68 L32.73 49.61 L34.5 50.55 L34.5 52.57 L34.5 54.58 L34.5 56.6 L34.5 58.62 L34.5 60.63 L34.5 62.65 Z " />
<path stroke="rgb(0,0,0)" stroke-opacity="1" fill="rgb(255,255,255)" fill-opacity="1" id="a16_1_" d="M34.5 79.85 L32.73 78.95 L30.95 78.05 L29.18 77.15 L27.41 76.25 L25.64 75.35 L23.86 74.45 L22.09 73.55 L20.32 72.65 L18.55 71.75 L16.77 70.85 L15 69.95 L15 67.98 L15 66.02 L15 64.05 L15 62.08 L15 60.12 L15 58.15 L16.77 59.05 L18.55 59.95 L20.32 60.85 L22.09 61.75 L23.86 62.65 L25.64 63.55 L27.41 64.45 L29.18 65.35 L30.95 66.25 L32.73 67.15 L34.5 68.05 L34.5 70.02 L34.5 71.98 L34.5 73.95 L34.5 75.92 L34.5 77.88 L34.5 79.85 Z " />
<path stroke="rgb(0,0,0)" stroke-opacity="1" fill="rgb(236,216,157)" fill-opacity="1" id="scltrs1_1_" d="M-31.48 30.43 L-32.39 29.95 L-33.31 29.47 L-34.22 28.99 L-35.14 28.51 L-36.05 28.04 L-36.97 27.56 L-37.88 27.08 L-37.88 26.04 L-37.88 24.99 L-37.88 23.95 L-37.88 22.91 L-37.88 21.87 L-37.88 20.83 L-36.97 21.3 L-36.05 21.78 L-35.14 22.26 L-34.22 22.74 L-33.31 23.22 L-32.39 23.7 L-31.48 24.18 L-31.48 25.22 L-31.48 26.26 L-31.48 27.3 L-31.48 28.35 L-31.48 29.39 L-31.48 30.43 Z " />
<path stroke="rgb(0,0,0)" stroke-opacity="1" fill="rgb(244,227,211)" fill-opacity="1" id="a15_1_" d="M119.3 1.25 L117.4 0.3875 L115.6 -0.475 L113.7 -1.338 L111.8 -2.2 L110 -3.063 L108.1 -3.925 L106.3 -4.788 L104.4 -5.65 L104.4 -7.57 L104.4 -9.49 L104.4 -11.41 L104.4 -13.33 L104.4 -15.25 L106.3 -14.38 L108.1 -13.5 L110 -12.63 L111.8 -11.75 L113.7 -10.88 L115.6 -10 L117.4 -9.125 L119.3 -8.25 L119.3 -6.35 L119.3 -4.45 L119.3 -2.55 L119.3 -0.65 L119.3 1.25 Z " />
<path stroke="rgb(0,0,0)" stroke-opacity="1" fill="rgb(244,227,211)" fill-opacity="1" id="a14_1_" d="M117.2 9.75 L115.4 8.893 L113.5 8.036 L111.7 7.179 L109.8 6.321 L108 5.464 L106.1 4.607 L104.3 3.75 L104.3 1.817 L104.4 -0.1167 L104.4 -2.05 L106.2 -1.164 L108.1 -0.2786 L109.9 0.6071 L111.7 1.493 L113.5 2.379 L115.4 3.264 L117.2 4.15 L117.2 6.017 L117.2 7.883 L117.2 9.75 Z " />
<path stroke="rgb(0,0,0)" stroke-opacity="1" fill="rgb(244,227,211)" fill-opacity="1" id="a13_1_" d="M115 29.65 L113.2 28.82 L111.4 27.98 L109.6 27.15 L107.9 26.32 L106.1 25.48 L104.3 24.65 L104.3 22.59 L104.3 20.52 L104.3 18.46 L104.3 16.4 L104.3 14.34 L104.3 12.27 L104.3 10.21 L104.3 8.15 L106.1 8.983 L107.9 9.817 L109.6 10.65 L111.4 11.48 L113.2 12.32 L115 13.15 L115 15.21 L115 17.27 L115 19.34 L115 21.4 L115 23.46 L115 25.52 L115 27.59 L115 29.65 Z " />
<path stroke="rgb(0,0,0)" stroke-opacity="1" fill="rgb(200,200,200)" fill-opacity="1" id="a1_2_" d="M-110.5 -67.52 L-112.2 -68.39 L-114 -69.27 L-115.7 -70.15 L-117.5 -71.02 L-119.2 -71.9 L-121 -72.78 L-122.7 -73.66 L-124.5 -74.53 L-126.2 -75.41 L-128 -76.29 L-129.8 -77.17 L-131.5 -78.04 L-133.3 -78.92 L-135 -79.8 L-136.8 -80.67 L-138.5 -81.55 L-140.3 -82.43 L-142 -83.31 L-143.8 -84.18 L-145.5 -85.06 L-147.3 -85.94 L-149 -86.82 L-149 -88.68 L-149 -90.54 L-149 -92.4 L-149 -94.26 L-149 -96.12 L-147.3 -95.23 L-145.5 -94.35 L-143.8 -93.47 L-142 -92.59 L-140.3 -91.71 L-138.5 -90.82 L-136.8 -89.94 L-135 -89.06 L-133.3 -88.18 L-131.5 -87.3 L-129.8 -86.42 L-128 -85.53 L-126.2 -84.65 L-124.5 -83.77 L-122.7 -82.89 L-121 -82.01 L-119.2 -81.12 L-117.5 -80.24 L-115.7 -79.36 L-114 -78.48 L-112.2 -77.6 L-110.5 -76.72 L-110.5 -74.88 L-110.5 -73.04 L-110.5 -71.2 L-110.5 -69.36 L-110.5 -67.52 Z " />
<path stroke="rgb(0,0,0)" stroke-opacity="1" fill="rgb(200,200,200)" fill-opacity="1" id="a4_2_" d="M-89.9 -108.2 L-91.69 -109 L-93.49 -109.9 L-95.28 -110.8 L-97.08 -111.7 L-98.87 -112.6 L-100.7 -113.5 L-102.5 -114.4 L-104.3 -115.3 L-106 -116.2 L-107.8 -117.1 L-109.6 -118 L-111.4 -118.9 L-113.2 -119.8 L-115 -120.7 L-116.8 -121.6 L-118.6 -122.5 L-120.4 -123.3 L-122.2 -124.2 L-124 -125.1 L-125.8 -126 L-127.6 -126.9 L-129.4 -127.8 L-131.2 -128.7 L-133 -129.6 L-134.7 -130.5 L-136.5 -131.4 L-138.3 -132.3 L-140.1 -133.2 L-141.9 -134.1 L-143.7 -135 L-145.5 -135.9 L-147.3 -136.8 L-149.1 -137.7 L-149.1 -139.7 L-149.1 -141.7 L-149.1 -143.7 L-149.1 -145.7 L-149.1 -147.7 L-149.1 -149.7 L-149.1 -151.8 L-147.3 -150.9 L-145.5 -150 L-143.7 -149.1 L-141.9 -148.2 L-140.1 -147.3 L-138.3 -146.4 L-136.5 -145.5 L-134.7 -144.6 L-133 -143.7 L-131.2 -142.8 L-129.4 -142 L-127.6 -141.1 L-125.8 -140.2 L-124 -139.3 L-122.2 -138.4 L-120.4 -137.5 L-118.6 -136.6 L-116.8 -135.7 L-115 -134.8 L-113.2 -133.9 L-111.4 -133 L-109.6 -132.2 L-107.8 -131.3 L-106 -130.4 L-104.3 -129.5 L-102.5 -128.6 L-100.7 -127.7 L-98.87 -126.8 L-97.08 -125.9 L-95.28 -125 L-93.49 -124.1 L-91.69 -123.2 L-89.9 -122.3 L-89.9 -120.3 L-89.9 -118.3 L-89.9 -116.3 L-89.9 -114.2 L-89.9 -112.2 L-89.9 -110.2 L-89.9 -108.2 Z " />
<path stroke="rgb(0,0,0)" stroke-opacity="1" fill="rgb(200,200,200)" fill-opacity="1" id="a2_1_" d="M-109.1 -87.55 L-110.9 -88.45 L-112.7 -89.36 L-114.6 -90.26 L-116.4 -91.17 L-118.2 -92.07 L-120 -92.98 L-121.8 -93.88 L-123.6 -94.79 L-125.5 -95.69 L-127.3 -96.6 L-129.1 -97.5 L-130.9 -98.4 L-132.7 -99.31 L-134.6 -100.2 L-136.4 -101.1 L-138.2 -102 L-140 -102.9 L-141.8 -103.8 L-143.6 -104.7 L-145.5 -105.6 L-147.3 -106.5 L-149.1 -107.5 L-149.1 -109.4 L-149.1 -111.3 L-149.1 -113.3 L-149.1 -115.2 L-149.1 -117.2 L-147.3 -116.2 L-145.5 -115.3 L-143.6 -114.4 L-141.8 -113.5 L-140 -112.6 L-138.2 -111.7 L-136.4 -110.8 L-134.6 -109.9 L-132.7 -109 L-130.9 -108.1 L-129.1 -107.2 L-127.3 -106.2 L-125.5 -105.3 L-123.6 -104.4 L-121.8 -103.5 L-120 -102.6 L-118.2 -101.7 L-116.4 -100.8 L-114.6 -99.88 L-112.7 -98.97 L-110.9 -98.06 L-109.1 -97.15 L-109.1 -95.23 L-109.1 -93.31 L-109.1 -91.39 L-109.1 -89.47 L-109.1 -87.55 Z " />
<path stroke="rgb(0,0,0)" stroke-opacity="1" fill="rgb(200,200,200)" fill-opacity="1" id="a3_1_" d="M-105.8 -101.2 L-107.6 -102 L-109.4 -102.9 L-111.2 -103.8 L-113 -104.7 L-114.8 -105.6 L-116.6 -106.5 L-118.4 -107.4 L-120.2 -108.3 L-122 -109.2 L-123.8 -110.1 L-125.6 -111 L-127.4 -111.8 L-129.3 -112.7 L-131.1 -113.6 L-132.9 -114.5 L-134.7 -115.4 L-136.5 -116.3 L-138.3 -117.2 L-140.1 -118.1 L-141.9 -119 L-143.7 -119.9 L-145.5 -120.8 L-147.3 -121.7 L-149.1 -122.5 L-149.1 -124.6 L-149.1 -126.7 L-149.1 -128.8 L-149.1 -130.9 L-149.1 -133 L-147.3 -132.1 L-145.5 -131.2 L-143.7 -130.3 L-141.9 -129.4 L-140.1 -128.5 L-138.3 -127.6 L-136.5 -126.7 L-134.7 -125.8 L-132.9 -124.9 L-131.1 -124 L-129.3 -123.1 L-127.4 -122.3 L-125.6 -121.4 L-123.8 -120.5 L-122 -119.6 L-120.2 -118.7 L-118.4 -117.8 L-116.6 -116.9 L-114.8 -116 L-113 -115.1 L-111.2 -114.2 L-109.4 -113.3 L-107.6 -112.4 L-105.8 -111.5 L-105.8 -109.5 L-105.8 -107.4 L-105.8 -105.3 L-105.8 -103.2 L-105.8 -101.2 Z " />
<path stroke="rgb(0,0,0)" stroke-opacity="1" fill="rgb(244,227,211)" fill-opacity="1" id="a11_1_" d="M-30.3 70.85 L-32.12 70.04 L-33.94 69.23 L-35.76 68.42 L-37.57 67.61 L-39.39 66.79 L-41.21 65.98 L-43.03 65.17 L-44.85 64.36 L-46.67 63.55 L-48.49 62.74 L-50.3 61.93 L-52.12 61.12 L-53.94 60.31 L-55.76 59.49 L-57.58 58.68 L-59.4 57.87 L-61.21 57.06 L-63.03 56.25 L-64.85 55.44 L-66.67 54.63 L-68.49 53.82 L-70.31 53.01 L-72.13 52.19 L-73.94 51.38 L-75.76 50.57 L-77.58 49.76 L-79.4 48.95 L-79.45 47 L-79.5 45.05 L-77.68 45.86 L-75.86 46.68 L-74.04 47.49 L-72.23 48.31 L-70.41 49.12 L-68.59 49.94 L-66.77 50.75 L-64.95 51.57 L-63.13 52.38 L-61.31 53.2 L-59.5 54.01 L-57.68 54.83 L-55.86 55.64 L-54.04 56.46 L-52.22 57.27 L-50.4 58.09 L-48.59 58.9 L-46.77 59.72 L-44.95 60.53 L-43.13 61.35 L-41.31 62.16 L-39.49 62.98 L-37.67 63.79 L-35.86 64.61 L-34.04 65.42 L-32.22 66.24 L-30.4 67.05 L-30.35 68.95 L-30.3 70.85 Z " />
<path stroke="rgb(0,0,0)" stroke-opacity="1" fill="rgb(244,200,200)" fill-opacity="1" id="fus1_1_" d="M-95.5 56.95 L-97.3 56.19 L-99.1 55.43 L-100.9 54.67 L-102.7 53.91 L-104.5 53.15 L-104.5 51.29 L-104.5 49.43 L-104.5 47.57 L-104.5 45.71 L-104.5 43.85 L-102.7 44.61 L-100.9 45.37 L-99.1 46.13 L-97.3 46.89 L-95.5 47.65 L-95.5 49.51 L-95.5 51.37 L-95.5 53.23 L-95.5 55.09 L-95.5 56.95 Z " />
<path stroke="rgb(0,0,0)" stroke-opacity="1" fill="rgb(244,200,200)" fill-opacity="1" id="fus2_1_" d="M-96.5 60.95 L-98.3 60.17 L-100.1 59.39 L-101.9 58.61 L-103.7 57.83 L-105.5 57.05 L-105.5 55.17 L-105.4 53.29 L-105.4 51.41 L-105.3 49.53 L-105.3 47.65 L-103.5 48.41 L-101.8 49.17 L-100 49.93 L-98.26 50.69 L-96.5 51.45 L-96.5 53.35 L-96.5 55.25 L-96.5 57.15 L-96.5 59.05 L-96.5 60.95 Z " />
<path stroke="rgb(0,0,0)" stroke-opacity="1" fill="rgb(244,200,200)" fill-opacity="1" id="fus3_1_" d="M-95.65 56.5 L-97.43 55.74 L-99.21 54.98 L-101 54.22 L-102.8 53.46 L-104.5 52.7 L-104.5 50.84 L-104.5 48.98 L-104.5 47.12 L-104.5 45.26 L-104.5 43.4 L-102.7 44.16 L-100.9 44.92 L-99.15 45.68 L-97.35 46.44 L-95.55 47.2 L-95.57 49.06 L-95.59 50.92 L-95.61 52.78 L-95.63 54.64 L-95.65 56.5 Z " />
<path stroke="rgb(0,0,0)" stroke-opacity="1" fill="rgb(244,200,200)" fill-opacity="1" id="fus4_1_" d="M-91.5 65.45 L-93.3 64.67 L-95.1 63.89 L-96.9 63.11 L-98.7 62.33 L-100.5 61.55 L-100.5 59.69 L-100.5 57.83 L-100.5 55.97 L-100.5 54.11 L-100.5 52.25 L-98.7 53.03 L-96.9 53.81 L-95.1 54.59 L-93.3 55.37 L-91.5 56.15 L-91.5 58.01 L-91.5 59.87 L-91.5 61.73 L-91.5 63.59 L-91.5 65.45 Z " />
<path stroke="rgb(0,0,0)" stroke-opacity="1" fill="rgb(173,200,200)" fill-opacity="1" id="swap1_1_" d="M37.92 -109.2 L36.1 -110.1 L34.28 -111.1 L32.46 -112 L30.64 -113 L28.82 -114 L27 -114.9 L25.18 -115.9 L23.36 -116.8 L21.54 -117.8 L19.72 -118.8 L19.74 -120.8 L19.75 -122.8 L19.76 -124.8 L19.77 -126.8 L19.78 -128.8 L19.79 -130.8 L19.8 -132.8 L19.81 -134.9 L19.82 -136.9 L21.64 -135.9 L23.46 -134.9 L25.28 -134 L27.1 -133 L28.92 -132 L30.74 -131 L32.56 -130.1 L34.38 -129.1 L36.2 -128.1 L38.02 -127.2 L38.01 -125.2 L38 -123.2 L37.99 -121.2 L37.98 -119.2 L37.97 -117.2 L37.96 -115.2 L37.95 -113.2 L37.94 -111.2 L37.92 -109.2 Z " />
<path stroke="rgb(0,0,0)" stroke-opacity="1" fill="rgb(173,200,200)" fill-opacity="1" id="swap3_1_" d="M20.8 -127.3 L18.98 -128.3 L17.16 -129.2 L15.34 -130.2 L13.52 -131.2 L11.7 -132.1 L9.88 -133.1 L8.06 -134 L6.24 -135 L4.42 -136 L2.6 -136.9 L2.611 -138.9 L2.622 -140.9 L2.633 -142.9 L2.644 -145 L2.656 -147 L2.667 -149 L2.678 -151 L2.689 -153 L2.7 -155 L4.52 -154.1 L6.34 -153.1 L8.16 -152.1 L9.98 -151.2 L11.8 -150.2 L13.62 -149.3 L15.44 -148.3 L17.26 -147.3 L19.08 -146.4 L20.9 -145.4 L20.89 -143.4 L20.88 -141.4 L20.87 -139.4 L20.86 -137.4 L20.84 -135.4 L20.83 -133.3 L20.82 -131.3 L20.81 -129.3 L20.8 -127.3 Z " />
<path stroke="rgb(0,0,0)" stroke-opacity="1" fill="rgb(173,200,200)" fill-opacity="1" id="swap2_1_" d="M3.776 -122.6 L1.956 -123.6 L0.1359 -124.6 L-1.684 -125.5 L-3.504 -126.5 L-5.324 -127.4 L-7.144 -128.4 L-8.964 -129.4 L-10.78 -130.3 L-12.6 -131.3 L-14.42 -132.2 L-14.41 -134.2 L-14.4 -136.3 L-14.39 -138.3 L-14.38 -140.3 L-14.37 -142.3 L-14.36 -144.3 L-14.35 -146.3 L-14.34 -148.3 L-14.32 -150.3 L-12.49 -149.4 L-10.66 -148.4 L-8.834 -147.5 L-7.004 -146.5 L-5.174 -145.5 L-3.344 -144.6 L-1.514 -143.6 L0.3158 -142.7 L2.146 -141.7 L3.976 -140.7 L3.954 -138.7 L3.931 -136.7 L3.909 -134.7 L3.887 -132.7 L3.865 -130.7 L3.843 -128.7 L3.82 -126.7 L3.798 -124.6 L3.776 -122.6 Z " />
<path stroke="rgb(0,0,0)" stroke-opacity="1" fill="rgb(173,200,200)" fill-opacity="1" id="swap4_1_" d="M20.7 -104.8 L18.88 -105.8 L17.06 -106.7 L15.24 -107.7 L13.42 -108.7 L11.6 -109.7 L9.78 -110.7 L7.96 -111.6 L6.14 -112.6 L4.32 -113.6 L2.5 -114.6 L2.511 -116.6 L2.522 -118.6 L2.533 -120.6 L2.544 -122.6 L2.556 -124.6 L2.567 -126.6 L2.578 -128.6 L2.589 -130.6 L2.6 -132.6 L4.43 -131.6 L6.26 -130.6 L8.09 -129.7 L9.92 -128.7 L11.75 -127.7 L13.58 -126.8 L15.41 -125.8 L17.24 -124.8 L19.07 -123.9 L20.9 -122.9 L20.88 -120.9 L20.86 -118.9 L20.83 -116.9 L20.81 -114.8 L20.79 -112.8 L20.77 -110.8 L20.74 -108.8 L20.72 -106.8 L20.7 -104.8 Z " />
<path stroke="rgb(0,0,0)" stroke-opacity="1" fill="rgb(244,227,211)" fill-opacity="1" id="a10_5_" d="M40 -46.65 L38.24 -45.63 L36.48 -44.6 L34.71 -43.57 L32.95 -42.55 L31.19 -41.53 L29.42 -40.5 L27.66 -39.48 L25.9 -38.45 L24.14 -37.43 L22.37 -36.4 L20.61 -35.38 L18.85 -34.35 L17.09 -33.33 L15.32 -32.3 L13.56 -31.28 L11.8 -30.25 L10.04 -31.28 L8.275 -32.3 L6.512 -33.33 L4.75 -34.35 L2.987 -35.38 L1.225 -36.4 L-0.5375 -37.43 L-2.3 -38.45 L-4.063 -39.48 L-5.825 -40.5 L-7.587 -41.53 L-9.35 -42.55 L-11.11 -43.57 L-12.87 -44.6 L-14.64 -45.63 L-16.4 -46.65 L-14.64 -47.68 L-12.87 -48.7 L-11.11 -49.72 L-9.35 -50.75 L-7.587 -51.77 L-5.825 -52.8 L-4.063 -53.82 L-2.3 -54.85 L-0.5375 -55.87 L1.225 -56.9 L2.987 -57.92 L4.75 -58.95 L6.512 -59.97 L8.275 -61 L10.04 -62.02 L11.8 -63.05 L13.56 -62.02 L15.32 -61 L17.09 -59.97 L18.85 -58.95 L20.61 -57.92 L22.37 -56.9 L24.14 -55.87 L25.9 -54.85 L27.66 -53.82 L29.42 -52.8 L31.19 -51.77 L32.95 -50.75 L34.71 -49.72 L36.48 -48.7 L38.24 -47.68 L40 -46.65 Z " />
<path stroke="rgb(0,0,0)" stroke-opacity="1" fill="rgb(244,227,211)" fill-opacity="1" id="a10_4_" d="M40.5 -11.85 L40.5 -13.85 L40.5 -15.85 L40.5 -17.85 L40.5 -19.85 L40.5 -21.85 L40.5 -23.85 L40.5 -25.85 L40.5 -27.85 L40.5 -29.85 L40.5 -31.85 L40.5 -33.85 L40.5 -35.85 L40.5 -37.85 L40.5 -39.85 L40.5 -41.85 L40.5 -43.85 L40.5 -45.85 L38.74 -44.83 L36.98 -43.8 L35.21 -42.78 L33.45 -41.75 L31.69 -40.73 L29.92 -39.7 L28.16 -38.68 L26.4 -37.65 L24.64 -36.62 L22.87 -35.6 L21.11 -34.57 L19.35 -33.55 L17.59 -32.52 L15.82 -31.5 L14.06 -30.47 L12.3 -29.45 L12.3 -27.44 L12.3 -25.44 L12.3 -23.43 L12.3 -21.43 L12.3 -19.42 L12.3 -17.42 L12.3 -15.41 L12.3 -13.41 L12.3 -11.4 L12.3 -9.397 L12.3 -7.392 L12.3 -5.387 L12.3 -3.382 L12.3 -1.376 L12.3 0.6289 L12.3 2.634 L12.3 4.639 L12.3 6.645 L12.3 8.65 L13.96 7.444 L15.62 6.238 L17.28 5.032 L18.94 3.826 L20.59 2.621 L22.25 1.415 L23.91 0.2088 L25.57 -0.9971 L27.23 -2.203 L28.89 -3.409 L30.55 -4.615 L32.21 -5.821 L33.86 -7.026 L35.52 -8.232 L37.18 -9.438 L38.84 -10.64 L40.5 -11.85 Z " />
<path stroke="rgb(0,0,0)" stroke-opacity="1" fill="rgb(244,227,211)" fill-opacity="1" id="a10_3_" d="M-16.8 -45.85 L-16.8 -43.85 L-16.8 -41.85 L-16.8 -39.85 L-16.8 -37.85 L-16.8 -35.85 L-16.8 -33.85 L-16.8 -31.85 L-16.8 -29.85 L-16.8 -27.85 L-16.8 -25.85 L-16.8 -23.85 L-16.8 -21.85 L-16.8 -19.85 L-16.8 -17.85 L-16.8 -15.85 L-16.8 -13.85 L-16.8 -11.85 L-15.14 -10.64 L-13.48 -9.438 L-11.82 -8.232 L-10.16 -7.026 L-8.506 -5.821 L-6.847 -4.615 L-5.188 -3.409 L-3.529 -2.203 L-1.871 -0.9971 L-0.2118 0.2088 L1.447 1.415 L3.106 2.621 L4.765 3.826 L6.424 5.032 L8.082 6.238 L9.741 7.444 L11.4 8.65 L11.4 6.645 L11.4 4.639 L11.4 2.634 L11.4 0.6289 L11.4 -1.376 L11.4 -3.382 L11.4 -5.387 L11.4 -7.392 L11.4 -9.397 L11.4 -11.4 L11.4 -13.41 L11.4 -15.41 L11.4 -17.42 L11.4 -19.42 L11.4 -21.43 L11.4 -23.43 L11.4 -25.44 L11.4 -27.44 L11.4 -29.45 L9.637 -30.47 L7.875 -31.5 L6.112 -32.52 L4.35 -33.55 L2.587 -34.57 L0.825 -35.6 L-0.9375 -36.62 L-2.7 -37.65 L-4.462 -38.68 L-6.225 -39.7 L-7.987 -40.73 L-9.75 -41.75 L-11.51 -42.78 L-13.27 -43.8 L-15.04 -44.83 L-16.8 -45.85 Z " />
<path stroke="rgb(0,0,0)" stroke-opacity="1" fill="rgb(200,200,200)" fill-opacity="1" id="circ1_5_" d="M-100.1 -27.51 L-101.7 -26.59 L-103.3 -25.67 L-104.9 -24.75 L-106.5 -23.83 L-108 -22.91 L-109.6 -23.83 L-111.2 -24.75 L-112.8 -25.67 L-114.4 -26.59 L-115.9 -27.51 L-114.4 -28.43 L-112.8 -29.35 L-111.2 -30.27 L-109.6 -31.19 L-108 -32.11 L-106.5 -31.19 L-104.9 -30.27 L-103.3 -29.35 L-101.7 -28.43 L-100.1 -27.51 Z " />
<path stroke="rgb(0,0,0)" stroke-opacity="1" fill="rgb(200,200,200)" fill-opacity="1" id="circ1_4_" d="M-100 -17.71 L-100 -19.61 L-100 -21.51 L-100 -23.41 L-100 -25.31 L-100 -27.21 L-101.6 -26.31 L-103.2 -25.41 L-104.8 -24.51 L-106.4 -23.61 L-107.9 -22.71 L-107.9 -20.57 L-107.9 -18.43 L-107.9 -16.29 L-107.9 -14.15 L-107.9 -12.01 L-106.4 -13.15 L-104.8 -14.29 L-103.2 -15.43 L-101.6 -16.57 L-100 -17.71 Z " />
<path stroke="rgb(0,0,0)" stroke-opacity="1" fill="rgb(200,200,200)" fill-opacity="1" id="circ1_3_" d="M-116.1 -27.21 L-116.1 -25.31 L-116.1 -23.41 L-116.1 -21.51 L-116.1 -19.61 L-116.1 -17.71 L-114.6 -16.57 L-113 -15.43 L-111.4 -14.29 L-109.8 -13.15 L-108.2 -12.01 L-108.2 -14.15 L-108.2 -16.29 L-108.2 -18.43 L-108.2 -20.57 L-108.2 -22.71 L-109.8 -23.61 L-111.4 -24.51 L-113 -25.41 L-114.6 -26.31 L-116.1 -27.21 Z " />
<path stroke="rgb(0,0,0)" stroke-opacity="1" fill="rgb(200,200,200)" fill-opacity="1" id="circ2_5_" d="M-60.96 -0.3922 L-62.54 0.5278 L-64.12 1.448 L-65.7 2.368 L-67.28 3.288 L-68.86 4.208 L-70.44 3.288 L-72.02 2.368 L-73.6 1.448 L-75.18 0.5278 L-76.76 -0.3922 L-75.18 -1.292 L-73.6 -2.192 L-72.02 -3.092 L-70.44 -3.992 L-68.86 -4.892 L-67.28 -3.992 L-65.7 -3.092 L-64.12 -2.192 L-62.54 -1.292 L-60.96 -0.3922 Z " />
<path stroke="rgb(0,0,0)" stroke-opacity="1" fill="rgb(200,200,200)" fill-opacity="1" id="circ2_4_" d="M-60.86 9.408 L-60.86 7.508 L-60.86 5.608 L-60.86 3.708 L-60.86 1.808 L-60.86 -0.09221 L-62.44 0.8278 L-64.02 1.748 L-65.6 2.668 L-67.18 3.588 L-68.76 4.508 L-68.76 6.628 L-68.76 8.748 L-68.76 10.87 L-68.76 12.99 L-68.76 15.11 L-67.18 13.97 L-65.6 12.83 L-64.02 11.69 L-62.44 10.55 L-60.86 9.408 Z " />
<path stroke="rgb(0,0,0)" stroke-opacity="1" fill="rgb(200,200,200)" fill-opacity="1" id="circ2_3_" d="M-76.96 -0.09221 L-76.96 1.808 L-76.96 3.708 L-76.96 5.608 L-76.96 7.508 L-76.96 9.408 L-75.38 10.55 L-73.8 11.69 L-72.22 12.83 L-70.64 13.97 L-69.06 15.11 L-69.06 12.99 L-69.06 10.87 L-69.06 8.748 L-69.06 6.628 L-69.06 4.508 L-70.64 3.588 L-72.22 2.668 L-73.8 1.748 L-75.38 0.8278 L-76.96 -0.09221 Z " />
<path stroke="rgb(0,0,0)" stroke-opacity="1" fill="rgb(148,200,200)" fill-opacity="1" id="bb1" d="M94.2 -14.56 L95.82 -15.73 L97.44 -16.89 L99.05 -18.06 L100.7 -19.23 L102.3 -20.39 L103.9 -21.56 L105.5 -22.73 L107.1 -23.89 L108.8 -25.06 L110.4 -26.23 L112 -27.39 L113.6 -28.56 L115.2 -29.73 L116.8 -30.89 L118.5 -32.06 L120.1 -33.23 L121.7 -34.39 L121.7 -36.43 L121.8 -38.47 L121.8 -40.51 L121.8 -42.55 L121.9 -44.59 L121.9 -46.63 L122 -48.67 L122 -50.71 L122 -52.75 L122.1 -54.79 L122.1 -56.83 L122.1 -58.87 L120.4 -59.87 L118.6 -60.86 L116.8 -61.86 L115 -62.86 L113.2 -63.86 L111.5 -64.86 L109.7 -65.86 L107.9 -66.86 L106.1 -67.86 L104.3 -68.86 L102.5 -69.86 L100.8 -70.86 L98.98 -71.86 L97.2 -72.86 L95.42 -73.86 L93.4 -73.69 L91.38 -73.52 L89.37 -73.35 L87.35 -73.18 L85.33 -73.01 L83.32 -72.84 L81.3 -72.67 L79.28 -72.5 L77.26 -72.33 L75.25 -72.16 L73.23 -71.99 L71.21 -71.83 L69.19 -71.66 L67.18 -71.49 L65.16 -71.32 L63.14 -71.15 L61.13 -70.98 L59.11 -70.81 L57.09 -70.64 L55.47 -69.47 L53.86 -68.3 L52.24 -67.14 L50.62 -65.97 L49 -64.8 L47.39 -63.64 L45.77 -62.47 L44.15 -61.3 L42.54 -60.14 L40.92 -58.97 L39.3 -57.8 L37.68 -56.64 L36.07 -55.47 L34.45 -54.3 L32.83 -53.14 L31.21 -51.97 L29.6 -50.8 L29.55 -48.75 L29.5 -46.7 L29.46 -44.64 L29.41 -42.59 L29.37 -40.54 L29.32 -38.48 L29.28 -36.43 L29.23 -34.37 L29.18 -32.32 L29.14 -30.27 L29.09 -28.21 L29.05 -26.16 L30.83 -25.16 L32.61 -24.16 L34.39 -23.16 L36.18 -22.16 L37.96 -21.16 L39.74 -20.16 L41.52 -19.16 L43.3 -18.16 L45.09 -17.16 L46.87 -16.16 L48.65 -15.16 L50.43 -14.16 L52.21 -13.16 L54 -12.16 L55.78 -11.16 L57.8 -11.34 L59.82 -11.52 L61.84 -11.7 L63.87 -11.88 L65.89 -12.06 L67.91 -12.23 L69.93 -12.41 L71.96 -12.59 L73.98 -12.77 L76 -12.95 L78.02 -13.13 L80.05 -13.31 L82.07 -13.49 L84.09 -13.67 L86.11 -13.84 L88.13 -14.02 L90.16 -14.2 L92.18 -14.38 L94.2 -14.56 Z " />
<path stroke="rgb(0,0,0)" stroke-opacity="1" fill="rgb(236,216,157)" fill-opacity="1" id="scltrs1" d="M-160.6 19.3 L-161.2 20.07 L-161.8 20.85 L-162.4 21.63 L-163 22.4 L-163.6 23.18 L-164.2 23.96 L-164.8 24.73 L-165.5 25.51 L-166.1 26.29 L-166.7 27.06 L-167.3 27.84 L-167.9 28.62 L-168.5 29.39 L-169.1 30.17 L-169.7 30.95 L-170.4 31.72 L-171 32.5 L-171.6 33.28 L-172.2 34.05 L-172.8 34.83 L-173.4 35.61 L-174 36.39 L-174.6 37.16 L-175.3 37.94 L-175.9 38.72 L-176.5 39.49 L-177.1 40.27 L-177.7 41.05 L-178.3 41.82 L-178.9 42.6 L-179.5 43.38 L-180.2 44.15 L-180.8 44.93 L-181.4 45.71 L-182 46.48 L-182.6 47.26 L-181.7 47.68 L-180.8 48.1 L-179.9 48.52 L-179 48.94 L-178.1 49.36 L-177.2 49.78 L-176.3 50.2 L-175.4 50.62 L-174.5 51.05 L-173.6 51.47 L-172.7 51.89 L-171.8 52.31 L-170.9 52.73 L-170 53.15 L-169.1 53.57 L-168.2 53.99 L-167.3 54.41 L-166.4 54.83 L-165.5 55.25 L-164.6 55.67 L-163.7 56.09 L-162.8 56.51 L-161.9 56.93 L-161 57.35 L-160.1 57.78 L-159.2 58.2 L-158.3 58.62 L-157.4 59.04 L-156.5 59.46 L-155.6 59.88 L-154.7 60.3 L-153.8 60.72 L-152.9 61.14 L-152 61.56 L-151.1 61.98 L-150.2 62.4 L-149.3 62.82 L-148.4 63.24 L-147.5 63.66 L-146.6 64.08 L-145.7 64.51 L-144.8 64.93 L-143.9 65.35 L-143 65.77 L-142.1 66.19 L-141.2 66.61 L-140.3 67.03 L-139.4 67.45 L-138.5 67.87 L-138.9 66.95 L-139.3 66.04 L-139.7 65.12 L-140.2 64.2 L-140.6 63.29 L-141 62.37 L-141.4 61.45 L-141.8 60.54 L-142.2 59.62 L-142.7 58.71 L-143.1 57.79 L-143.5 56.87 L-143.9 55.96 L-144.3 55.04 L-144.7 54.12 L-145.2 53.21 L-145.6 52.29 L-146 51.37 L-146.4 50.46 L-146.8 49.54 L-147.2 48.62 L-147.6 47.71 L-148.1 46.79 L-148.5 45.87 L-148.9 44.96 L-149.3 44.04 L-149.7 43.12 L-150.1 42.21 L-150.6 41.29 L-151 40.38 L-151.4 39.46 L-151.8 38.54 L-152.2 37.63 L-152.6 36.71 L-153.1 35.79 L-153.5 34.88 L-153.9 33.96 L-154.3 33.04 L-154.7 32.13 L-155.1 31.21 L-155.6 30.29 L-156 29.38 L-156.4 28.46 L-156.8 27.54 L-157.2 26.63 L-157.6 25.71 L-158.1 24.8 L-158.5 23.88 L-158.9 22.96 L-159.3 22.05 L-159.7 21.13 L-160.1 20.21 L-160.6 19.3 Z " />
<path stroke="rgb(0,0,0)" stroke-opacity="1" fill="rgb(255,255,255)" fill-opacity="1" id="a5" d="M-75.89 134.3 L-76 136.7 L-76.31 138.8 L-76.82 140.8 L-77.52 142.7 L-78.41 144.4 L-79.46 145.8 L-80.67 147.2 L-82.03 148.3 L-83.54 149.2 L-85.18 150 L-86.94 150.5 L-88.82 150.8 L-90.81 150.9 L-92.89 150.9 L-95.06 150.5 L-97.3 150 L-99.62 149.2 L-102 148.2 L-103.8 147.4 L-105.5 146.4 L-107.2 145.3 L-108.9 144.1 L-110.6 142.8 L-112.1 141.5 L-113.7 140.1 L-115.2 138.6 L-116.6 137 L-117.9 135.4 L-119.2 133.7 L-120.4 132 L-121.6 130.3 L-122.6 128.5 L-123.6 126.7 L-124.5 124.9 L-125.3 123 L-126 121.2 L-126.6 119.3 L-127.2 117.4 L-127.6 115.6 L-127.9 113.7 L-128 111.9 L-128.1 110 L-128 107.7 L-127.7 105.6 L-127.2 103.6 L-126.5 101.7 L-125.6 100 L-124.5 98.56 L-123.3 97.25 L-121.9 96.12 L-120.4 95.19 L-118.8 94.45 L-117 93.91 L-115.2 93.58 L-113.2 93.45 L-111.1 93.54 L-108.9 93.85 L-106.7 94.39 L-104.4 95.15 L-102 96.15 L-100.2 97.04 L-98.45 98.03 L-96.73 99.12 L-95.06 100.3 L-93.42 101.6 L-91.84 102.9 L-90.3 104.3 L-88.82 105.8 L-87.4 107.4 L-86.05 109 L-84.76 110.7 L-83.54 112.4 L-82.4 114.1 L-81.33 115.9 L-80.35 117.7 L-79.46 119.5 L-78.65 121.4 L-77.94 123.2 L-77.33 125.1 L-76.82 127 L-76.42 128.8 L-76.13 130.7 L-75.95 132.5 L-75.89 134.3 Z " />
<path stroke="rgb(0,0,0)" stroke-opacity="1" fill="rgb(255,255,255)" fill-opacity="1" id="a17" d="M-96 -128.5 L-97.21 -127 L-98.42 -125.5 L-99.62 -124 L-100.8 -122.4 L-102 -120.9 L-103.2 -119.4 L-104.5 -117.8 L-105.7 -116.3 L-106.9 -114.8 L-108.1 -113.2 L-109.3 -111.7 L-110.5 -110.2 L-111.7 -108.7 L-109.9 -107.8 L-108 -106.9 L-106.2 -106.1 L-104.3 -105.2 L-102.5 -104.3 L-100.6 -103.5 L-98.77 -102.6 L-96.92 -101.7 L-95.08 -100.9 L-93.23 -100 L-91.38 -99.14 L-89.54 -98.27 L-87.69 -97.41 L-85.84 -96.54 L-83.99 -95.68 L-82.15 -94.81 L-80.3 -93.95 L-81.13 -95.77 L-81.95 -97.59 L-82.78 -99.41 L-83.61 -101.2 L-84.43 -103.1 L-85.26 -104.9 L-86.08 -106.7 L-86.91 -108.5 L-87.74 -110.3 L-88.56 -112.2 L-89.39 -114 L-90.22 -115.8 L-91.04 -117.6 L-91.87 -119.4 L-92.69 -121.3 L-93.52 -123.1 L-94.35 -124.9 L-95.17 -126.7 L-96 -128.5 Z " />
<path stroke="rgb(0,0,0)" stroke-opacity="1" fill="rgb(255,255,255)" fill-opacity="1" id="a16" d="M-96 -70.95 L-94.79 -72.48 L-93.58 -74.01 L-92.38 -75.54 L-91.17 -77.07 L-89.96 -78.6 L-88.75 -80.13 L-87.55 -81.67 L-86.34 -83.2 L-85.13 -84.73 L-83.92 -86.26 L-82.72 -87.79 L-81.51 -89.32 L-80.3 -90.85 L-82.15 -91.71 L-83.99 -92.57 L-85.84 -93.43 L-87.69 -94.29 L-89.54 -95.14 L-91.38 -96 L-93.23 -96.86 L-95.08 -97.72 L-96.92 -98.58 L-98.77 -99.44 L-100.6 -100.3 L-102.5 -101.2 L-104.3 -102 L-106.2 -102.9 L-108 -103.7 L-109.9 -104.6 L-111.7 -105.5 L-110.9 -103.6 L-110 -101.8 L-109.2 -100 L-108.4 -98.19 L-107.6 -96.37 L-106.7 -94.56 L-105.9 -92.74 L-105.1 -90.92 L-104.3 -89.11 L-103.4 -87.29 L-102.6 -85.48 L-101.8 -83.66 L-101 -81.84 L-100.1 -80.03 L-99.31 -78.21 L-98.48 -76.4 L-97.65 -74.58 L-96.83 -72.77 L-96 -70.95 Z " />
<path stroke="rgb(0,0,0)" stroke-opacity="1" fill="rgb(173,200,200)" fill-opacity="1" id="swap2" d="M-57.02 -65.03 L-57.28 -62.91 L-58 -61.2 L-59.14 -59.93 L-60.64 -59.13 L-62.44 -58.82 L-64.49 -59.05 L-66.72 -59.83 L-68.48 -60.8 L-70.13 -62.02 L-71.64 -63.45 L-72.99 -65.04 L-74.16 -66.75 L-75.11 -68.55 L-75.82 -70.39 L-76.27 -72.23 L-76.42 -74.03 L-76.17 -76.12 L-75.45 -77.82 L-74.31 -79.09 L-72.81 -79.9 L-71.01 -80.22 L-68.96 -80.01 L-66.72 -79.23 L-64.97 -78.26 L-63.32 -77.05 L-61.81 -75.64 L-60.46 -74.06 L-59.29 -72.35 L-58.34 -70.56 L-57.63 -68.71 L-57.18 -66.86 L-57.02 -65.03 Z " />
<path stroke="rgb(0,0,0)" stroke-opacity="1" fill="rgb(173,200,200)" fill-opacity="1" id="swap4" d="M-33.4 -47.38 L-33.65 -45.26 L-34.38 -43.55 L-35.52 -42.28 L-37.02 -41.48 L-38.82 -41.18 L-40.86 -41.4 L-43.1 -42.18 L-44.85 -43.15 L-46.5 -44.37 L-48.01 -45.8 L-49.37 -47.39 L-50.53 -49.1 L-51.49 -50.9 L-52.2 -52.74 L-52.65 -54.58 L-52.8 -56.38 L-52.55 -58.5 L-51.82 -60.21 L-50.68 -61.48 L-49.18 -62.29 L-47.38 -62.59 L-45.34 -62.37 L-43.1 -61.58 L-41.35 -60.62 L-39.7 -59.41 L-38.19 -57.99 L-36.83 -56.41 L-35.67 -54.7 L-34.71 -52.91 L-34 -51.07 L-33.55 -49.21 L-33.4 -47.38 Z " />
<path stroke="rgb(0,0,0)" stroke-opacity="1" fill="rgb(173,200,200)" fill-opacity="1" id="swap3" d="M-33.4 -62.92 L-33.65 -60.8 L-34.38 -59.09 L-35.52 -57.82 L-37.02 -57.01 L-38.82 -56.71 L-40.86 -56.93 L-43.1 -57.72 L-44.85 -58.69 L-46.5 -59.91 L-48.01 -61.33 L-49.37 -62.92 L-50.53 -64.64 L-51.49 -66.43 L-52.2 -68.27 L-52.65 -70.12 L-52.8 -71.92 L-52.55 -74 L-51.82 -75.7 L-50.68 -76.98 L-49.18 -77.79 L-47.38 -78.11 L-45.34 -77.89 L-43.1 -77.12 L-41.35 -76.15 L-39.7 -74.94 L-38.19 -73.52 L-36.83 -71.94 L-35.67 -70.24 L-34.71 -68.44 L-34 -66.6 L-33.55 -64.74 L-33.4 -62.92 Z " />
<path stroke="rgb(0,0,0)" stroke-opacity="1" fill="rgb(173,200,200)" fill-opacity="1" id="swap1" d="M-9.376 -46.27 L-9.63 -44.15 L-10.35 -42.44 L-11.49 -41.17 L-12.99 -40.37 L-14.79 -40.06 L-16.84 -40.29 L-19.08 -41.07 L-20.83 -42.04 L-22.48 -43.26 L-23.99 -44.68 L-25.34 -46.27 L-26.51 -47.99 L-27.46 -49.79 L-28.17 -51.63 L-28.62 -53.47 L-28.78 -55.27 L-28.52 -57.36 L-27.8 -59.05 L-26.66 -60.33 L-25.16 -61.14 L-23.36 -61.46 L-21.31 -61.25 L-19.08 -60.47 L-17.32 -59.5 L-15.67 -58.28 L-14.16 -56.85 L-12.81 -55.26 L-11.64 -53.55 L-10.69 -51.75 L-9.978 -49.91 L-9.531 -48.07 L-9.376 -46.27 Z " />
<path stroke="rgb(0,0,0)" stroke-opacity="1" fill="rgb(255,255,255)" fill-opacity="1" id="secscl1" d="M-3.121 123.1 L-4.309 122.5 L-5.498 121.9 L-6.687 121.4 L-7.876 120.8 L-9.065 120.3 L-10.25 119.7 L-11.44 119.2 L-12.63 118.6 L-13.82 118.1 L-15.01 117.5 L-16.2 117 L-17.39 116.4 L-18.58 115.9 L-19.76 115.3 L-20.59 116.4 L-21.42 117.4 L-22.24 118.5 L-23.07 119.5 L-23.89 120.6 L-24.72 121.6 L-25.54 122.7 L-26.37 123.7 L-27.2 124.8 L-28.02 125.8 L-27.51 126.9 L-26.99 128.1 L-26.47 129.2 L-25.96 130.4 L-25.44 131.5 L-24.93 132.6 L-24.41 133.8 L-23.89 134.9 L-23.38 136 L-22.86 137.2 L-22.34 138.3 L-21.83 139.4 L-21.31 140.6 L-20.8 141.7 L-20.28 142.9 L-19.76 144 L-18.58 144.5 L-17.39 145.1 L-16.2 145.6 L-15.01 146.2 L-13.82 146.7 L-12.63 147.3 L-11.44 147.8 L-10.25 148.4 L-9.065 148.9 L-7.876 149.5 L-6.687 150 L-5.498 150.6 L-4.309 151.1 L-3.121 151.7 L-2.295 150.6 L-1.469 149.6 L-0.6432 148.5 L0.1826 147.5 L1.008 146.5 L1.834 145.4 L2.66 144.4 L3.486 143.3 L4.311 142.3 L5.137 141.2 L4.621 140.1 L4.105 139 L3.589 137.8 L3.073 136.7 L2.557 135.6 L2.041 134.4 L1.524 133.3 L1.008 132.1 L0.4922 131 L-0.02387 129.9 L-0.54 128.7 L-1.056 127.6 L-1.572 126.5 L-2.088 125.3 L-2.604 124.2 L-3.121 123.1 Z " />
</g>
</g>
</svg>
