<!DOCTYPE svg>
<svg xmlns="http://www.w3.org/2000/svg" xmlns:xlink="http://www.w3.org/1999/xlink" width="1080" height="1080">
<g transform="translate(540.000000,540.000000)">
<g transform="scale(2,2)">
<path stroke="rgb(0,0,0)" stroke-opacity="1" fill="rgb(148,200,200)" fill-opacity="1" id="bb1_2_" d="M-147.1 -70.32 L-145.6 -69.08 L-144 -67.83 L-142.5 -66.59 L-140.9 -65.34 L-139.4 -64.1 L-137.8 -62.85 L-136.3 -61.61 L-134.7 -60.36 L-133.2 -59.12 L-131.6 -57.87 L-130.1 -56.63 L-128.5 -55.38 L-127 -54.14 L-125.4 -52.89 L-123.9 -51.65 L-122.3 -50.4 L-120.8 -49.16 L-119.2 -47.91 L-117.7 -46.66 L-116.1 -45.42 L-114.6 -44.17 L-113 -42.93 L-111.5 -41.68 L-109.9 -40.44 L-108.4 -39.19 L-106.8 -37.95 L-105.3 -36.7 L-103.7 -35.46 L-102.2 -34.21 L-102.7 -32.27 L-103.2 -30.33 L-103.7 -28.39 L-104.2 -26.45 L-104.8 -24.51 L-105.3 -22.57 L-105.8 -20.63 L-106.3 -18.69 L-106.8 -16.75 L-107.4 -14.8 L-107.9 -12.86 L-108.4 -10.92 L-108.9 -8.982 L-109.5 -7.041 L-110 -5.101 L-110.5 -3.16 L-111 -1.219 L-111.5 0.7221 L-112.1 2.663 L-112.6 4.604 L-113.1 6.545 L-113.6 8.486 L-114.1 10.43 L-114.7 12.37 L-115.2 14.31 L-115.7 16.25 L-116.2 18.19 L-117.8 16.94 L-119.3 15.7 L-120.9 14.45 L-122.4 13.21 L-124 11.96 L-125.5 10.72 L-127.1 9.474 L-128.6 8.229 L-130.2 6.984 L-131.7 5.738 L-133.3 4.493 L-134.8 3.248 L-136.4 2.003 L-137.9 0.7579 L-139.5 -0.4873 L-141 -1.732 L-142.6 -2.978 L-144.1 -4.223 L-145.7 -5.468 L-147.2 -6.713 L-148.8 -7.958 L-150.3 -9.203 L-151.9 -10.45 L-153.4 -11.69 L-155 -12.94 L-156.5 -14.18 L-158.1 -15.43 L-159.6 -16.67 L-161.2 -17.92 L-160.7 -19.86 L-160.1 -21.8 L-159.6 -23.74 L-159.1 -25.68 L-158.6 -27.62 L-158.1 -29.56 L-157.5 -31.51 L-157 -33.45 L-156.5 -35.39 L-156 -37.33 L-155.5 -39.27 L-154.9 -41.21 L-154.4 -43.15 L-153.9 -45.09 L-153.4 -47.03 L-152.9 -48.97 L-152.3 -50.91 L-151.8 -52.85 L-151.3 -54.8 L-150.8 -56.74 L-150.3 -58.68 L-149.7 -60.62 L-149.2 -62.56 L-148.7 -64.5 L-148.2 -66.44 L-147.7 -68.38 L-147.1 -70.32 Z " />
<path stroke="rgb(0,0,0)" stroke-opacity="1" fill="rgb(236,216,157)" fill-opacity="1" id="pr2_1_" d="M72.7 104.6 L70.94 103.7 L69.18 102.8 L67.41 101.9 L65.65 101 L63.89 100.1 L62.13 99.25 L60.36 98.35 L58.6 97.45 L58.63 95.52 L58.66 93.59 L58.69 91.66 L58.71 89.74 L58.74 87.81 L58.77 85.88 L58.8 83.95 L60.55 84.84 L62.3 85.73 L64.05 86.61 L65.8 87.5 L67.55 88.39 L69.3 89.28 L71.05 90.16 L72.8 91.05 L72.79 92.99 L72.77 94.94 L72.76 96.88 L72.74 98.82 L72.73 100.8 L72.71 102.7 L72.7 104.6 Z " />
<path stroke="rgb(0,0,0)" stroke-opacity="1" fill="rgb(236,216,157)" fill-opacity="1" id="pr1_1_" d="M50.21 89.06 L49.68 88.79 L49.15 88.52 L48.62 88.25 L48.09 87.97 L47.56 87.7 L47.03 87.43 L46.5 87.16 L45.97 86.89 L45.98 86.3 L45.98 85.72 L45.99 85.14 L45.99 84.55 L46 83.97 L46 83.39 L46 82.8 L46.53 83.07 L47.06 83.35 L47.59 83.62 L48.12 83.89 L48.65 84.16 L49.18 84.44 L49.71 84.71 L50.24 84.98 L50.23 85.56 L50.23 86.15 L50.23 86.73 L50.22 87.31 L50.22 87.9 L50.21 88.48 L50.21 89.06 Z " />
<path stroke="rgb(0,0,0)" stroke-opacity="1" fill="rgb(236,216,157)" fill-opacity="1" id="pr3_1_" d="M54.6 113.6 L52.85 112.7 L51.1 111.8 L49.35 110.9 L47.6 110 L45.85 109.1 L44.1 108.1 L42.35 107.2 L40.6 106.3 L40.61 104.4 L40.63 102.5 L40.64 100.6 L40.66 98.64 L40.67 96.71 L40.69 94.78 L40.7 92.85 L42.45 93.75 L44.2 94.65 L45.95 95.55 L47.7 96.45 L49.45 97.35 L51.2 98.25 L52.95 99.15 L54.7 100.1 L54.69 102 L54.67 103.9 L54.66 105.8 L54.64 107.8 L54.63 109.7 L54.61 111.6 L54.6 113.6 Z " />
<path stroke="rgb(0,0,0)" stroke-opacity="1" fill="rgb(236,216,157)" fill-opacity="1" id="pr4_1_" d="M72.3 121.7 L70.54 120.9 L68.77 120 L67.01 119.1 L65.25 118.2 L63.49 117.3 L61.73 116.4 L59.96 115.5 L58.2 114.6 L58.21 112.7 L58.23 110.8 L58.24 108.9 L58.26 106.9 L58.27 105 L58.29 103.1 L58.3 101.1 L60.06 102 L61.82 102.9 L63.59 103.8 L65.35 104.7 L67.11 105.6 L68.87 106.5 L70.64 107.4 L72.4 108.2 L72.39 110.2 L72.37 112.1 L72.36 114 L72.34 116 L72.33 117.9 L72.31 119.8 L72.3 121.7 Z " />
<path stroke="rgb(0,0,0)" stroke-opacity="1" fill="rgb(238,200,200)" fill-opacity="1" id="ll1_1_" d="M231.3 194.3 L227.7 192.6 L224.1 190.9 L220.5 189.3 L216.9 187.6 L213.3 185.9 L209.7 184.2 L206.2 182.6 L202.6 180.9 L199 179.2 L195.4 177.5 L191.8 175.9 L188.2 174.2 L184.6 172.5 L181.1 170.8 L177.5 169.2 L173.9 167.5 L173.9 163.5 L173.9 159.5 L173.9 155.5 L173.9 151.5 L173.9 147.5 L173.9 143.5 L173.9 139.5 L173.9 135.5 L173.9 131.5 L173.9 127.5 L173.9 123.5 L173.9 119.5 L173.9 115.5 L173.9 111.5 L177.5 113.2 L181.1 114.9 L184.6 116.6 L188.2 118.2 L191.8 119.9 L195.4 121.6 L199 123.3 L202.6 125 L206.2 126.7 L209.7 128.4 L213.3 130.1 L216.9 131.7 L220.5 133.4 L224.1 135.1 L227.7 136.8 L231.3 138.5 L231.3 142.5 L231.3 146.5 L231.3 150.5 L231.3 154.4 L231.3 158.4 L231.3 162.4 L231.3 166.4 L231.3 170.4 L231.3 174.4 L231.3 178.3 L231.3 182.3 L231.3 186.3 L231.3 190.3 L231.3 194.3 Z " />
<path stroke="rgb(0,0,0)" stroke-opacity="1" fill="rgb(255,255,255)" fill-opacity="1" id="cl1_1_" d="M43.63 118.4 L41.83 117.5 L40.03 116.6 L38.22 115.7 L36.42 114.8 L34.61 113.9 L32.81 113 L31 112.1 L29.2 111.2 L27.4 110.3 L25.59 109.4 L23.79 108.5 L21.98 107.6 L20.18 106.7 L18.37 105.8 L16.57 104.9 L16.47 102.8 L18.27 103.7 L20.08 104.6 L21.88 105.6 L23.69 106.5 L25.49 107.4 L27.3 108.3 L29.1 109.2 L30.9 110.2 L32.71 111.1 L34.51 112 L36.32 112.9 L38.12 113.9 L39.93 114.8 L41.73 115.7 L43.54 116.6 L43.63 118.4 Z " />
<path stroke="rgb(0,0,0)" stroke-opacity="1" fill="rgb(255,255,255)" fill-opacity="1" id="a5_2_" d="M206 -50.75 L204.1 -51.59 L202.2 -52.44 L200.3 -53.28 L198.5 -54.12 L196.6 -54.96 L194.7 -55.81 L192.8 -56.65 L190.9 -57.49 L189 -58.34 L187.1 -59.18 L185.3 -60.02 L183.4 -60.86 L181.5 -61.71 L179.6 -62.55 L179.6 -60.6 L179.6 -58.64 L179.6 -56.69 L179.6 -54.73 L179.6 -52.78 L179.6 -50.83 L179.6 -48.87 L179.6 -46.92 L179.6 -44.97 L179.6 -43.01 L179.6 -41.06 L179.6 -39.1 L179.6 -37.15 L181.5 -36.31 L183.4 -35.46 L185.3 -34.62 L187.1 -33.78 L189 -32.94 L190.9 -32.09 L192.8 -31.25 L194.7 -30.41 L196.6 -29.56 L198.5 -28.72 L200.3 -27.88 L202.2 -27.04 L204.1 -26.19 L206 -25.35 L206 -27.3 L206 -29.26 L206 -31.21 L206 -33.17 L206 -35.12 L206 -37.07 L206 -39.03 L206 -40.98 L206 -42.93 L206 -44.89 L206 -46.84 L206 -48.8 L206 -50.75 Z " />
<path stroke="rgb(0,0,0)" stroke-opacity="1" fill="rgb(255,255,255)" fill-opacity="1" id="a6_2_" d="M83.3 51.45 L81.52 50.62 L79.75 49.79 L77.97 48.96 L76.19 48.13 L74.42 47.3 L72.64 46.47 L70.86 45.64 L69.09 44.81 L67.31 43.99 L65.54 43.16 L63.76 42.33 L61.98 41.5 L60.21 40.67 L58.43 39.84 L56.65 39.01 L54.88 38.18 L53.1 37.35 L53.1 35.25 L53.1 33.15 L53.1 31.05 L53.1 28.95 L53.1 26.85 L53.1 24.75 L53.1 22.65 L53.1 20.55 L53.1 18.45 L53.1 16.35 L54.87 17.18 L56.64 18.01 L58.41 18.84 L60.18 19.67 L61.95 20.5 L63.72 21.33 L65.49 22.16 L67.26 22.99 L69.04 23.81 L70.81 24.64 L72.58 25.47 L74.35 26.3 L76.12 27.13 L77.89 27.96 L79.66 28.79 L81.43 29.62 L83.2 30.45 L83.21 32.36 L83.22 34.27 L83.23 36.18 L83.24 38.09 L83.25 40 L83.25 41.9 L83.26 43.81 L83.27 45.72 L83.28 47.63 L83.29 49.54 L83.3 51.45 Z " />
<path stroke="rgb(0,0,0)" stroke-opacity="1" fill="rgb(148,200,200)" fill-opacity="1" id="rtr1_2_" d="M74.29 -126.8 L73.11 -125.1 L71.93 -123.4 L70.75 -121.8 L69.58 -120.1 L68.4 -118.4 L67.22 -116.7 L65.12 -117 L63.03 -117.4 L60.93 -117.8 L58.83 -118.1 L56.74 -118.5 L57.92 -120.2 L59.1 -121.9 L60.28 -123.6 L61.46 -125.3 L62.64 -127 L63.82 -128.7 L65.91 -128.3 L68.01 -128 L70.1 -127.6 L72.2 -127.2 L74.29 -126.8 Z " />
<path stroke="rgb(0,0,0)" stroke-opacity="1" fill="rgb(238,200,200)" fill-opacity="1" id="sg1_2_" d="M75.35 128.4 L76.22 126.8 L77.09 125.2 L77.96 123.6 L78.84 122 L79.71 120.4 L80.58 118.8 L82.67 118.8 L84.77 118.9 L86.87 118.9 L88.96 119 L88.11 120.6 L87.25 122.2 L86.4 123.8 L85.55 125.5 L84.69 127.1 L83.84 128.7 L81.72 128.7 L79.59 128.6 L77.47 128.5 L75.35 128.4 Z " />
<path stroke="rgb(0,0,0)" stroke-opacity="1" fill="rgb(255,255,255)" fill-opacity="1" id="a12_2_" d="M-54.8 88.45 L-56.68 87.63 L-58.57 86.82 L-60.45 86 L-62.33 85.18 L-64.22 84.37 L-66.1 83.55 L-66.12 81.62 L-66.13 79.68 L-66.15 77.75 L-66.17 75.82 L-66.18 73.88 L-66.2 71.95 L-64.33 72.77 L-62.47 73.58 L-60.6 74.4 L-58.73 75.22 L-56.87 76.03 L-55 76.85 L-54.97 78.78 L-54.93 80.72 L-54.9 82.65 L-54.87 84.58 L-54.83 86.52 L-54.8 88.45 Z " />
<path stroke="rgb(0,0,0)" stroke-opacity="1" fill="rgb(255,255,255)" fill-opacity="1" id="secscl1_2_" d="M-32.49 21.49 L-33.25 21.13 L-34 20.77 L-34.75 20.41 L-35.51 20.05 L-36.26 19.7 L-37.01 19.34 L-37.76 18.98 L-38.52 18.62 L-38.52 17.81 L-38.52 17 L-38.52 16.19 L-38.52 15.37 L-38.52 14.56 L-38.52 13.75 L-38.52 12.94 L-38.52 12.13 L-38.52 11.32 L-38.52 10.51 L-38.52 9.695 L-38.52 8.883 L-38.52 8.072 L-38.52 7.261 L-38.52 6.449 L-38.52 5.638 L-38.52 4.827 L-38.52 4.015 L-38.52 3.204 L-38.52 2.393 L-38.52 1.581 L-38.52 0.77 L-38.52 -0.04138 L-38.52 -0.8527 L-38.52 -1.664 L-38.52 -2.475 L-38.52 -3.287 L-38.52 -4.098 L-38.52 -4.909 L-38.52 -5.721 L-38.52 -6.532 L-38.52 -7.343 L-38.52 -8.155 L-38.52 -8.966 L-38.52 -9.778 L-38.52 -10.59 L-38.52 -11.4 L-38.52 -12.21 L-38.52 -13.02 L-38.52 -13.83 L-37.76 -13.47 L-37.01 -13.11 L-36.26 -12.74 L-35.51 -12.38 L-34.75 -12.02 L-34 -11.65 L-33.25 -11.29 L-32.49 -10.92 L-32.49 -10.11 L-32.49 -9.304 L-32.49 -8.494 L-32.49 -7.684 L-32.49 -6.873 L-32.49 -6.063 L-32.49 -5.253 L-32.49 -4.442 L-32.49 -3.632 L-32.49 -2.822 L-32.49 -2.011 L-32.49 -1.201 L-32.49 -0.3907 L-32.49 0.4196 L-32.49 1.23 L-32.49 2.04 L-32.49 2.851 L-32.49 3.661 L-32.49 4.471 L-32.49 5.282 L-32.49 6.092 L-32.49 6.902 L-32.49 7.713 L-32.49 8.523 L-32.49 9.333 L-32.49 10.14 L-32.49 10.95 L-32.49 11.76 L-32.49 12.57 L-32.49 13.38 L-32.49 14.2 L-32.49 15.01 L-32.49 15.82 L-32.49 16.63 L-32.49 17.44 L-32.49 18.25 L-32.49 19.06 L-32.49 19.87 L-32.49 20.68 L-32.49 21.49 Z " />
<path stroke="rgb(0,0,0)" stroke-opacity="1" fill="rgb(255,255,255)" fill-opacity="1" id="a7_1_" d="M141.3 -84.25 L139.4 -85.05 L137.6 -85.85 L135.7 -86.65 L133.8 -87.45 L132 -88.25 L130.1 -89.05 L128.3 -89.85 L126.4 -90.65 L124.5 -91.45 L122.7 -92.25 L120.8 -93.05 L120.8 -95.03 L120.8 -97.02 L120.8 -99 L120.8 -101 L120.8 -103 L120.8 -105 L122.7 -104.1 L124.5 -103.3 L126.4 -102.5 L128.3 -101.7 L130.1 -100.9 L132 -100 L133.8 -99.22 L135.7 -98.4 L137.6 -97.59 L139.4 -96.77 L141.3 -95.95 L141.3 -94 L141.3 -92.05 L141.3 -90.1 L141.3 -88.15 L141.3 -86.2 L141.3 -84.25 Z " />
<path stroke="rgb(0,0,0)" stroke-opacity="1" fill="rgb(255,255,255)" fill-opacity="1" id="a8_1_" d="M141.2 -69.95 L139.3 -70.76 L137.5 -71.57 L135.6 -72.38 L133.7 -73.19 L131.9 -74 L130 -74.8 L128.2 -75.61 L126.3 -76.42 L124.4 -77.23 L122.6 -78.04 L120.7 -78.85 L120.7 -80.82 L120.7 -82.78 L120.7 -84.75 L120.7 -86.72 L120.7 -88.68 L120.7 -90.65 L122.6 -89.85 L124.4 -89.05 L126.3 -88.25 L128.2 -87.45 L130.1 -86.65 L131.9 -85.85 L133.8 -85.05 L135.7 -84.25 L137.6 -83.45 L139.4 -82.65 L141.3 -81.85 L141.3 -79.87 L141.3 -77.88 L141.2 -75.9 L141.2 -73.92 L141.2 -71.93 L141.2 -69.95 Z " />
<path stroke="rgb(0,0,0)" stroke-opacity="1" fill="rgb(255,255,255)" fill-opacity="1" id="a9_1_" d="M134.2 -61.55 L132.3 -62.35 L130.4 -63.15 L128.5 -63.95 L126.5 -64.75 L124.6 -65.55 L122.7 -66.35 L120.8 -67.15 L120.8 -68.95 L120.8 -70.75 L120.7 -72.55 L120.7 -74.35 L120.7 -76.15 L122.6 -75.34 L124.5 -74.52 L126.4 -73.71 L128.4 -72.89 L130.3 -72.08 L132.2 -71.26 L134.1 -70.45 L134.1 -68.23 L134.2 -66 L134.2 -63.77 L134.2 -61.55 Z " />
<path stroke="rgb(0,0,0)" stroke-opacity="1" fill="rgb(255,255,255)" fill-opacity="1" id="a17_1_" d="M34.5 62.65 L32.73 61.71 L30.95 60.78 L29.18 59.84 L27.41 58.9 L25.64 57.97 L23.86 57.03 L22.09 56.1 L20.32 55.16 L18.55 54.22 L16.77 53.29 L15 52.35 L15 50.33 L15 48.32 L15 46.3 L15 44.28 L15 42.27 L15 40.25 L16.77 41.19 L18.55 42.12 L20.32 43.06 L22.09 44 L23.86 44.93 L25.64 45.87 L27.41 46.8 L29.18 47.74 L30.95 48.68 L32.73 49.61 L34.5 50.55 L34.5 52.57 L34.5 54.58 L34.5 56.6 L34.5 58.62 L34.5 60.63 L34.5 62.65 Z " />
<path stroke="rgb(0,0,0)" stroke-opacity="1" fill="rgb(255,255,255)" fill-opacity="1" id="a16_1_" d="M34.5 79.85 L32.73 78.95 L30.95 78.05 L29.18 77.15 L27.41 76.25 L25.64 75.35 L23.86 74.45 L22.09 73.55 L20.32 72.65 L18.55 71.75 L16.77 70.85 L15 69.95 L15 67.98 L15 66.02 L15 64.05 L15 62.08 L15 60.12 L15 58.15 L16.77 59.05 L18.55 59.95 L20.32 60.85 L22.09 61.75 L23.86 62.65 L25.64 63.55 L27.41 64.45 L29.18 65.35 L30.95 66.25 L32.73 67.15 L34.5 68.05 L34.5 70.02 L34.5 71.98 L34.5 73.95 L34.5 75.92 L34.5 77.88 L34.5 79.85 Z " />
<path stroke="rgb(0,0,0)" stroke-opacity="1" fill="rgb(236,216,157)" fill-opacity="1" id="scltrs1_1_" d="M-28.39 45.06 L-30.22 44.1 L-32.05 43.14 L-33.89 42.18 L-35.72 41.23 L-37.55 40.27 L-39.38 39.31 L-41.21 38.35 L-41.21 36.27 L-41.21 34.18 L-41.21 32.1 L-41.21 30.01 L-41.21 27.93 L-41.21 25.84 L-39.38 26.8 L-37.55 27.76 L-35.72 28.71 L-33.89 29.67 L-32.05 30.63 L-30.22 31.59 L-28.39 32.55 L-28.39 34.63 L-28.39 36.72 L-28.39 38.8 L-28.39 40.89 L-28.39 42.97 L-28.39 45.06 Z " />
<path stroke="rgb(0,0,0)" stroke-opacity="1" fill="rgb(244,227,211)" fill-opacity="1" id="a15_1_" d="M119.3 1.25 L117.4 0.3875 L115.6 -0.475 L113.7 -1.338 L111.8 -2.2 L110 -3.063 L108.1 -3.925 L106.3 -4.788 L104.4 -5.65 L104.4 -7.57 L104.4 -9.49 L104.4 -11.41 L104.4 -13.33 L104.4 -15.25 L106.3 -14.38 L108.1 -13.5 L110 -12.63 L111.8 -11.75 L113.7 -10.88 L115.6 -10 L117.4 -9.125 L119.3 -8.25 L119.3 -6.35 L119.3 -4.45 L119.3 -2.55 L119.3 -0.65 L119.3 1.25 Z " />
<path stroke="rgb(0,0,0)" stroke-opacity="1" fill="rgb(244,227,211)" fill-opacity="1" id="a14_1_" d="M117.2 9.75 L115.4 8.893 L113.5 8.036 L111.7 7.179 L109.8 6.321 L108 5.464 L106.1 4.607 L104.3 3.75 L104.3 1.817 L104.4 -0.1167 L104.4 -2.05 L106.2 -1.164 L108.1 -0.2786 L109.9 0.6071 L111.7 1.493 L113.5 2.379 L115.4 3.264 L117.2 4.15 L117.2 6.017 L117.2 7.883 L117.2 9.75 Z " />
<path stroke="rgb(0,0,0)" stroke-opacity="1" fill="rgb(244,227,211)" fill-opacity="1" id="a13_1_" d="M115 29.65 L113.2 28.82 L111.4 27.98 L109.6 27.15 L107.9 26.32 L106.1 25.48 L104.3 24.65 L104.3 22.59 L104.3 20.52 L104.3 18.46 L104.3 16.4 L104.3 14.34 L104.3 12.27 L104.3 10.21 L104.3 8.15 L106.1 8.983 L107.9 9.817 L109.6 10.65 L111.4 11.48 L113.2 12.32 L115 13.15 L115 15.21 L115 17.27 L115 19.34 L115 21.4 L115 23.46 L115 25.52 L115 27.59 L115 29.65 Z " />
<path stroke="rgb(0,0,0)" stroke-opacity="1" fill="rgb(200,200,200)" fill-opacity="1" id="a1_2_" d="M-110.5 -73.45 L-112.2 -74.33 L-114 -75.2 L-115.7 -76.08 L-117.5 -76.96 L-119.2 -77.84 L-121 -78.71 L-122.7 -79.59 L-124.5 -80.47 L-126.2 -81.35 L-128 -82.22 L-129.8 -83.1 L-131.5 -83.98 L-133.3 -84.85 L-135 -85.73 L-136.8 -86.61 L-138.5 -87.49 L-140.3 -88.36 L-142 -89.24 L-143.8 -90.12 L-145.5 -91 L-147.3 -91.87 L-149 -92.75 L-149 -94.61 L-149 -96.47 L-149 -98.33 L-149 -100.2 L-149 -102 L-147.3 -101.2 L-145.5 -100.3 L-143.8 -99.4 L-142 -98.52 L-140.3 -97.64 L-138.5 -96.76 L-136.8 -95.88 L-135 -95 L-133.3 -94.11 L-131.5 -93.23 L-129.8 -92.35 L-128 -91.47 L-126.2 -90.59 L-124.5 -89.7 L-122.7 -88.82 L-121 -87.94 L-119.2 -87.06 L-117.5 -86.18 L-115.7 -85.3 L-114 -84.41 L-112.2 -83.53 L-110.5 -82.65 L-110.5 -80.81 L-110.5 -78.97 L-110.5 -77.13 L-110.5 -75.29 L-110.5 -73.45 Z " />
<path stroke="rgb(0,0,0)" stroke-opacity="1" fill="rgb(200,200,200)" fill-opacity="1" id="a4_2_" d="M-89.9 -108.2 L-91.69 -109 L-93.49 -109.9 L-95.28 -110.8 L-97.08 -111.7 L-98.87 -112.6 L-100.7 -113.5 L-102.5 -114.4 L-104.3 -115.3 L-106 -116.2 L-107.8 -117.1 L-109.6 -118 L-111.4 -118.9 L-113.2 -119.8 L-115 -120.7 L-116.8 -121.6 L-118.6 -122.5 L-120.4 -123.3 L-122.2 -124.2 L-124 -125.1 L-125.8 -126 L-127.6 -126.9 L-129.4 -127.8 L-131.2 -128.7 L-133 -129.6 L-134.7 -130.5 L-136.5 -131.4 L-138.3 -132.3 L-140.1 -133.2 L-141.9 -134.1 L-143.7 -135 L-145.5 -135.9 L-147.3 -136.8 L-149.1 -137.7 L-149.1 -139.7 L-149.1 -141.7 L-149.1 -143.7 L-149.1 -145.7 L-149.1 -147.7 L-149.1 -149.7 L-149.1 -151.8 L-147.3 -150.9 L-145.5 -150 L-143.7 -149.1 L-141.9 -148.2 L-140.1 -147.3 L-138.3 -146.4 L-136.5 -145.5 L-134.7 -144.6 L-133 -143.7 L-131.2 -142.8 L-129.4 -142 L-127.6 -141.1 L-125.8 -140.2 L-124 -139.3 L-122.2 -138.4 L-120.4 -137.5 L-118.6 -136.6 L-116.8 -135.7 L-115 -134.8 L-113.2 -133.9 L-111.4 -133 L-109.6 -132.2 L-107.8 -131.3 L-106 -130.4 L-104.3 -129.5 L-102.5 -128.6 L-100.7 -127.7 L-98.87 -126.8 L-97.08 -125.9 L-95.28 -125 L-93.49 -124.1 L-91.69 -123.2 L-89.9 -122.3 L-89.9 -120.3 L-89.9 -118.3 L-89.9 -116.3 L-89.9 -114.2 L-89.9 -112.2 L-89.9 -110.2 L-89.9 -108.2 Z " />
<path stroke="rgb(0,0,0)" stroke-opacity="1" fill="rgb(200,200,200)" fill-opacity="1" id="a2_1_" d="M-109.1 -87.55 L-110.9 -88.45 L-112.7 -89.36 L-114.6 -90.26 L-116.4 -91.17 L-118.2 -92.07 L-120 -92.98 L-121.8 -93.88 L-123.6 -94.79 L-125.5 -95.69 L-127.3 -96.6 L-129.1 -97.5 L-130.9 -98.4 L-132.7 -99.31 L-134.6 -100.2 L-136.4 -101.1 L-138.2 -102 L-140 -102.9 L-141.8 -103.8 L-143.6 -104.7 L-145.5 -105.6 L-147.3 -106.5 L-149.1 -107.5 L-149.1 -109.4 L-149.1 -111.3 L-149.1 -113.3 L-149.1 -115.2 L-149.1 -117.2 L-147.3 -116.2 L-145.5 -115.3 L-143.6 -114.4 L-141.8 -113.5 L-140 -112.6 L-138.2 -111.7 L-136.4 -110.8 L-134.6 -109.9 L-132.7 -109 L-130.9 -108.1 L-129.1 -107.2 L-127.3 -106.2 L-125.5 -105.3 L-123.6 -104.4 L-121.8 -103.5 L-120 -102.6 L-118.2 -101.7 L-116.4 -100.8 L-114.6 -99.88 L-112.7 -98.97 L-110.9 -98.06 L-109.1 -97.15 L-109.1 -95.23 L-109.1 -93.31 L-109.1 -91.39 L-109.1 -89.47 L-109.1 -87.55 Z " />
<path stroke="rgb(0,0,0)" stroke-opacity="1" fill="rgb(200,200,200)" fill-opacity="1" id="a3_1_" d="M-105.8 -101.2 L-107.6 -102 L-109.4 -102.9 L-111.2 -103.8 L-113 -104.7 L-114.8 -105.6 L-116.6 -106.5 L-118.4 -107.4 L-120.2 -108.3 L-122 -109.2 L-123.8 -110.1 L-125.6 -111 L-127.4 -111.8 L-129.3 -112.7 L-131.1 -113.6 L-132.9 -114.5 L-134.7 -115.4 L-136.5 -116.3 L-138.3 -117.2 L-140.1 -118.1 L-141.9 -119 L-143.7 -119.9 L-145.5 -120.8 L-147.3 -121.7 L-149.1 -122.5 L-149.1 -124.6 L-149.1 -126.7 L-149.1 -128.8 L-149.1 -130.9 L-149.1 -133 L-147.3 -132.1 L-145.5 -131.2 L-143.7 -130.3 L-141.9 -129.4 L-140.1 -128.5 L-138.3 -127.6 L-136.5 -126.7 L-134.7 -125.8 L-132.9 -124.9 L-131.1 -124 L-129.3 -123.1 L-127.4 -122.3 L-125.6 -121.4 L-123.8 -120.5 L-122 -119.6 L-120.2 -118.7 L-118.4 -117.8 L-116.6 -116.9 L-114.8 -116 L-113 -115.1 L-111.2 -114.2 L-109.4 -113.3 L-107.6 -112.4 L-105.8 -111.5 L-105.8 -109.5 L-105.8 -107.4 L-105.8 -105.3 L-105.8 -103.2 L-105.8 -101.2 Z " />
<path stroke="rgb(0,0,0)" stroke-opacity="1" fill="rgb(244,227,211)" fill-opacity="1" id="a11_1_" d="M-15.3 70.85 L-17.12 70.04 L-18.94 69.23 L-20.76 68.42 L-22.57 67.61 L-24.39 66.79 L-26.21 65.98 L-28.03 65.17 L-29.85 64.36 L-31.67 63.55 L-33.49 62.74 L-35.3 61.93 L-37.12 61.12 L-38.94 60.31 L-40.76 59.49 L-42.58 58.68 L-44.4 57.87 L-46.21 57.06 L-48.03 56.25 L-49.85 55.44 L-51.67 54.63 L-53.49 53.82 L-55.31 53.01 L-57.13 52.19 L-58.94 51.38 L-60.76 50.57 L-62.58 49.76 L-64.4 48.95 L-64.45 47 L-64.5 45.05 L-62.68 45.86 L-60.86 46.68 L-59.04 47.49 L-57.23 48.31 L-55.41 49.12 L-53.59 49.94 L-51.77 50.75 L-49.95 51.57 L-48.13 52.38 L-46.31 53.2 L-44.5 54.01 L-42.68 54.83 L-40.86 55.64 L-39.04 56.46 L-37.22 57.27 L-35.4 58.09 L-33.59 58.9 L-31.77 59.72 L-29.95 60.53 L-28.13 61.35 L-26.31 62.16 L-24.49 62.98 L-22.67 63.79 L-20.86 64.61 L-19.04 65.42 L-17.22 66.24 L-15.4 67.05 L-15.35 68.95 L-15.3 70.85 Z " />
<path stroke="rgb(0,0,0)" stroke-opacity="1" fill="rgb(244,200,200)" fill-opacity="1" id="fus1_1_" d="M-99.96 52.49 L-101.8 51.73 L-103.6 50.97 L-105.4 50.21 L-107.2 49.45 L-109 48.69 L-109 46.83 L-109 44.97 L-109 43.11 L-109 41.25 L-109 39.39 L-107.2 40.15 L-105.4 40.91 L-103.6 41.67 L-101.8 42.43 L-99.96 43.19 L-99.96 45.05 L-99.96 46.91 L-99.96 48.77 L-99.96 50.63 L-99.96 52.49 Z " />
<path stroke="rgb(0,0,0)" stroke-opacity="1" fill="rgb(244,200,200)" fill-opacity="1" id="fus2_1_" d="M-96.5 60.95 L-98.3 60.17 L-100.1 59.39 L-101.9 58.61 L-103.7 57.83 L-105.5 57.05 L-105.5 55.17 L-105.4 53.29 L-105.4 51.41 L-105.3 49.53 L-105.3 47.65 L-103.5 48.41 L-101.8 49.17 L-100 49.93 L-98.26 50.69 L-96.5 51.45 L-96.5 53.35 L-96.5 55.25 L-96.5 57.15 L-96.5 59.05 L-96.5 60.95 Z " />
<path stroke="rgb(0,0,0)" stroke-opacity="1" fill="rgb(244,200,200)" fill-opacity="1" id="fus3_1_" d="M-95.6 56.45 L-97.38 55.69 L-99.16 54.93 L-100.9 54.17 L-102.7 53.41 L-104.5 52.65 L-104.5 50.79 L-104.5 48.93 L-104.5 47.07 L-104.5 45.21 L-104.5 43.35 L-102.7 44.11 L-100.9 44.87 L-99.1 45.63 L-97.3 46.39 L-95.5 47.15 L-95.52 49.01 L-95.54 50.87 L-95.56 52.73 L-95.58 54.59 L-95.6 56.45 Z " />
<path stroke="rgb(0,0,0)" stroke-opacity="1" fill="rgb(244,200,200)" fill-opacity="1" id="fus4_1_" d="M-96.5 60.45 L-98.3 59.67 L-100.1 58.89 L-101.9 58.11 L-103.7 57.33 L-105.5 56.55 L-105.5 54.69 L-105.5 52.83 L-105.5 50.97 L-105.5 49.11 L-105.5 47.25 L-103.7 48.03 L-101.9 48.81 L-100.1 49.59 L-98.3 50.37 L-96.5 51.15 L-96.5 53.01 L-96.5 54.87 L-96.5 56.73 L-96.5 58.59 L-96.5 60.45 Z " />
<path stroke="rgb(0,0,0)" stroke-opacity="1" fill="rgb(173,200,200)" fill-opacity="1" id="swap1_1_" d="M37.14 -109.4 L35.32 -110.3 L33.5 -111.3 L31.68 -112.2 L29.86 -113.2 L28.04 -114.2 L26.22 -115.1 L24.4 -116.1 L22.58 -117 L20.76 -118 L18.94 -119 L18.95 -121 L18.96 -123 L18.97 -125 L18.98 -127 L18.99 -129 L19 -131 L19.01 -133 L19.02 -135.1 L19.04 -137.1 L20.86 -136.1 L22.68 -135.1 L24.5 -134.2 L26.32 -133.2 L28.14 -132.2 L29.96 -131.2 L31.78 -130.3 L33.6 -129.3 L35.42 -128.3 L37.24 -127.4 L37.22 -125.4 L37.21 -123.4 L37.2 -121.4 L37.19 -119.4 L37.18 -117.4 L37.17 -115.4 L37.16 -113.4 L37.15 -111.4 L37.14 -109.4 Z " />
<path stroke="rgb(0,0,0)" stroke-opacity="1" fill="rgb(173,200,200)" fill-opacity="1" id="swap3_1_" d="M20.8 -128 L18.98 -129 L17.16 -129.9 L15.34 -130.9 L13.52 -131.8 L11.7 -132.8 L9.88 -133.8 L8.06 -134.7 L6.24 -135.7 L4.42 -136.6 L2.6 -137.6 L2.611 -139.6 L2.622 -141.6 L2.633 -143.6 L2.644 -145.7 L2.656 -147.7 L2.667 -149.7 L2.678 -151.7 L2.689 -153.7 L2.7 -155.7 L4.52 -154.7 L6.34 -153.8 L8.16 -152.8 L9.98 -151.9 L11.8 -150.9 L13.62 -149.9 L15.44 -149 L17.26 -148 L19.08 -147.1 L20.9 -146.1 L20.89 -144.1 L20.88 -142.1 L20.87 -140.1 L20.86 -138.1 L20.84 -136.1 L20.83 -134 L20.82 -132 L20.81 -130 L20.8 -128 Z " />
<path stroke="rgb(0,0,0)" stroke-opacity="1" fill="rgb(173,200,200)" fill-opacity="1" id="swap2_1_" d="M4.564 -122.4 L2.744 -123.4 L0.924 -124.4 L-0.896 -125.3 L-2.716 -126.3 L-4.536 -127.2 L-6.356 -128.2 L-8.176 -129.2 L-9.996 -130.1 L-11.82 -131.1 L-13.64 -132 L-13.62 -134 L-13.61 -136.1 L-13.6 -138.1 L-13.59 -140.1 L-13.58 -142.1 L-13.57 -144.1 L-13.56 -146.1 L-13.55 -148.1 L-13.54 -150.1 L-11.71 -149.2 L-9.876 -148.2 L-8.046 -147.3 L-6.216 -146.3 L-4.386 -145.3 L-2.556 -144.4 L-0.726 -143.4 L1.104 -142.5 L2.934 -141.5 L4.764 -140.5 L4.742 -138.5 L4.72 -136.5 L4.697 -134.5 L4.675 -132.5 L4.653 -130.5 L4.631 -128.5 L4.608 -126.5 L4.586 -124.4 L4.564 -122.4 Z " />
<path stroke="rgb(0,0,0)" stroke-opacity="1" fill="rgb(173,200,200)" fill-opacity="1" id="swap4_1_" d="M20.7 -104.1 L18.88 -105.1 L17.06 -106.1 L15.24 -107 L13.42 -108 L11.6 -109 L9.78 -110 L7.96 -111 L6.14 -111.9 L4.32 -112.9 L2.5 -113.9 L2.511 -115.9 L2.522 -117.9 L2.533 -119.9 L2.544 -121.9 L2.556 -123.9 L2.567 -125.9 L2.578 -127.9 L2.589 -129.9 L2.6 -131.9 L4.43 -130.9 L6.26 -130 L8.09 -129 L9.92 -128 L11.75 -127 L13.58 -126.1 L15.41 -125.1 L17.24 -124.1 L19.07 -123.2 L20.9 -122.2 L20.88 -120.2 L20.86 -118.2 L20.83 -116.2 L20.81 -114.1 L20.79 -112.1 L20.77 -110.1 L20.74 -108.1 L20.72 -106.1 L20.7 -104.1 Z " />
<path stroke="rgb(0,0,0)" stroke-opacity="1" fill="rgb(244,227,211)" fill-opacity="1" id="a10_5_" d="M40 -46.65 L38.24 -45.63 L36.48 -44.6 L34.71 -43.57 L32.95 -42.55 L31.19 -41.53 L29.42 -40.5 L27.66 -39.48 L25.9 -38.45 L24.14 -37.43 L22.37 -36.4 L20.61 -35.38 L18.85 -34.35 L17.09 -33.33 L15.32 -32.3 L13.56 -31.28 L11.8 -30.25 L10.04 -31.28 L8.275 -32.3 L6.512 -33.33 L4.75 -34.35 L2.987 -35.38 L1.225 -36.4 L-0.5375 -37.43 L-2.3 -38.45 L-4.063 -39.48 L-5.825 -40.5 L-7.587 -41.53 L-9.35 -42.55 L-11.11 -43.57 L-12.87 -44.6 L-14.64 -45.63 L-16.4 -46.65 L-14.64 -47.68 L-12.87 -48.7 L-11.11 -49.72 L-9.35 -50.75 L-7.587 -51.77 L-5.825 -52.8 L-4.063 -53.82 L-2.3 -54.85 L-0.5375 -55.87 L1.225 -56.9 L2.987 -57.92 L4.75 -58.95 L6.512 -59.97 L8.275 -61 L10.04 -62.02 L11.8 -63.05 L13.56 -62.02 L15.32 -61 L17.09 -59.97 L18.85 -58.95 L20.61 -57.92 L22.37 -56.9 L24.14 -55.87 L25.9 -54.85 L27.66 -53.82 L29.42 -52.8 L31.19 -51.77 L32.95 -50.75 L34.71 -49.72 L36.48 -48.7 L38.24 -47.68 L40 -46.65 Z " />
<path stroke="rgb(0,0,0)" stroke-opacity="1" fill="rgb(244,227,211)" fill-opacity="1" id="a10_4_" d="M40.5 -11.85 L40.5 -13.85 L40.5 -15.85 L40.5 -17.85 L40.5 -19.85 L40.5 -21.85 L40.5 -23.85 L40.5 -25.85 L40.5 -27.85 L40.5 -29.85 L40.5 -31.85 L40.5 -33.85 L40.5 -35.85 L40.5 -37.85 L40.5 -39.85 L40.5 -41.85 L40.5 -43.85 L40.5 -45.85 L38.74 -44.83 L36.98 -43.8 L35.21 -42.78 L33.45 -41.75 L31.69 -40.73 L29.92 -39.7 L28.16 -38.68 L26.4 -37.65 L24.64 -36.62 L22.87 -35.6 L21.11 -34.57 L19.35 -33.55 L17.59 -32.52 L15.82 -31.5 L14.06 -30.47 L12.3 -29.45 L12.3 -27.44 L12.3 -25.44 L12.3 -23.43 L12.3 -21.43 L12.3 -19.42 L12.3 -17.42 L12.3 -15.41 L12.3 -13.41 L12.3 -11.4 L12.3 -9.397 L12.3 -7.392 L12.3 -5.387 L12.3 -3.382 L12.3 -1.376 L12.3 0.6289 L12.3 2.634 L12.3 4.639 L12.3 6.645 L12.3 8.65 L13.96 7.444 L15.62 6.238 L17.28 5.032 L18.94 3.826 L20.59 2.621 L22.25 1.415 L23.91 0.2088 L25.57 -0.9971 L27.23 -2.203 L28.89 -3.409 L30.55 -4.615 L32.21 -5.821 L33.86 -7.026 L35.52 -8.232 L37.18 -9.438 L38.84 -10.64 L40.5 -11.85 Z " />
<path stroke="rgb(0,0,0)" stroke-opacity="1" fill="rgb(244,227,211)" fill-opacity="1" id="a10_3_" d="M-16.8 -45.85 L-16.8 -43.85 L-16.8 -41.85 L-16.8 -39.85 L-16.8 -37.85 L-16.8 -35.85 L-16.8 -33.85 L-16.8 -31.85 L-16.8 -29.85 L-16.8 -27.85 L-16.8 -25.85 L-16.8 -23.85 L-16.8 -21.85 L-16.8 -19.85 L-16.8 -17.85 L-16.8 -15.85 L-16.8 -13.85 L-16.8 -11.85 L-15.14 -10.64 L-13.48 -9.438 L-11.82 -8.232 L-10.16 -7.026 L-8.506 -5.821 L-6.847 -4.615 L-5.188 -3.409 L-3.529 -2.203 L-1.871 -0.9971 L-0.2118 0.2088 L1.447 1.415 L3.106 2.621 L4.765 3.826 L6.424 5.032 L8.082 6.238 L9.741 7.444 L11.4 8.65 L11.4 6.645 L11.4 4.639 L11.4 2.634 L11.4 0.6289 L11.4 -1.376 L11.4 -3.382 L11.4 -5.387 L11.4 -7.392 L11.4 -9.397 L11.4 -11.4 L11.4 -13.41 L11.4 -15.41 L11.4 -17.42 L11.4 -19.42 L11.4 -21.43 L11.4 -23.43 L11.4 -25.44 L11.4 -27.44 L11.4 -29.45 L9.637 -30.47 L7.875 -31.5 L6.112 -32.52 L4.35 -33.55 L2.587 -34.57 L0.825 -35.6 L-0.9375 -36.62 L-2.7 -37.65 L-4.462 -38.68 L-6.225 -39.7 L-7.987 -40.73 L-9.75 -41.75 L-11.51 -42.78 L-13.27 -43.8 L-15.04 -44.83 L-16.8 -45.85 Z " />
<path stroke="rgb(0,0,0)" stroke-opacity="1" fill="rgb(200,200,200)" fill-opacity="1" id="circ1_5_" d="M-66.6 12.73 L-68.18 13.65 L-69.76 14.57 L-71.34 15.49 L-72.92 16.41 L-74.5 17.33 L-76.08 16.41 L-77.66 15.49 L-79.24 14.57 L-80.82 13.65 L-82.4 12.73 L-80.82 11.81 L-79.24 10.89 L-77.66 9.97 L-76.08 9.05 L-74.5 8.13 L-72.92 9.05 L-71.34 9.97 L-69.76 10.89 L-68.18 11.81 L-66.6 12.73 Z " />
<path stroke="rgb(0,0,0)" stroke-opacity="1" fill="rgb(200,200,200)" fill-opacity="1" id="circ1_4_" d="M-66.5 22.53 L-66.5 20.63 L-66.5 18.73 L-66.5 16.83 L-66.5 14.93 L-66.5 13.03 L-68.08 13.93 L-69.66 14.83 L-71.24 15.73 L-72.82 16.63 L-74.4 17.53 L-74.4 19.67 L-74.4 21.81 L-74.4 23.95 L-74.4 26.09 L-74.4 28.23 L-72.82 27.09 L-71.24 25.95 L-69.66 24.81 L-68.08 23.67 L-66.5 22.53 Z " />
<path stroke="rgb(0,0,0)" stroke-opacity="1" fill="rgb(200,200,200)" fill-opacity="1" id="circ1_3_" d="M-82.6 13.03 L-82.6 14.93 L-82.6 16.83 L-82.6 18.73 L-82.6 20.63 L-82.6 22.53 L-81.02 23.67 L-79.44 24.81 L-77.86 25.95 L-76.28 27.09 L-74.7 28.23 L-74.7 26.09 L-74.7 23.95 L-74.7 21.81 L-74.7 19.67 L-74.7 17.53 L-76.28 16.63 L-77.86 15.73 L-79.44 14.83 L-81.02 13.93 L-82.6 13.03 Z " />
<path stroke="rgb(0,0,0)" stroke-opacity="1" fill="rgb(200,200,200)" fill-opacity="1" id="circ2_5_" d="M-94.5 -40.63 L-96.08 -39.71 L-97.66 -38.79 L-99.24 -37.87 L-100.8 -36.95 L-102.4 -36.03 L-104 -36.95 L-105.6 -37.87 L-107.1 -38.79 L-108.7 -39.71 L-110.3 -40.63 L-108.7 -41.53 L-107.1 -42.43 L-105.6 -43.33 L-104 -44.23 L-102.4 -45.13 L-100.8 -44.23 L-99.24 -43.33 L-97.66 -42.43 L-96.08 -41.53 L-94.5 -40.63 Z " />
<path stroke="rgb(0,0,0)" stroke-opacity="1" fill="rgb(200,200,200)" fill-opacity="1" id="circ2_4_" d="M-94.4 -30.83 L-94.4 -32.73 L-94.4 -34.63 L-94.4 -36.53 L-94.4 -38.43 L-94.4 -40.33 L-95.98 -39.41 L-97.56 -38.49 L-99.14 -37.57 L-100.7 -36.65 L-102.3 -35.73 L-102.3 -33.61 L-102.3 -31.49 L-102.3 -29.37 L-102.3 -27.25 L-102.3 -25.13 L-100.7 -26.27 L-99.14 -27.41 L-97.56 -28.55 L-95.98 -29.69 L-94.4 -30.83 Z " />
<path stroke="rgb(0,0,0)" stroke-opacity="1" fill="rgb(200,200,200)" fill-opacity="1" id="circ2_3_" d="M-110.5 -40.33 L-110.5 -38.43 L-110.5 -36.53 L-110.5 -34.63 L-110.5 -32.73 L-110.5 -30.83 L-108.9 -29.69 L-107.3 -28.55 L-105.8 -27.41 L-104.2 -26.27 L-102.6 -25.13 L-102.6 -27.25 L-102.6 -29.37 L-102.6 -31.49 L-102.6 -33.61 L-102.6 -35.73 L-104.2 -36.65 L-105.8 -37.57 L-107.3 -38.49 L-108.9 -39.41 L-110.5 -40.33 Z " />
<path stroke="rgb(0,0,0)" stroke-opacity="1" fill="rgb(148,200,200)" fill-opacity="1" id="bb1" d="M53.24 -17.81 L54.76 -16.52 L56.28 -15.23 L57.8 -13.94 L59.31 -12.65 L60.83 -11.37 L62.35 -10.08 L63.87 -8.786 L65.39 -7.497 L66.91 -6.207 L68.42 -4.917 L69.94 -3.628 L71.46 -2.338 L72.98 -1.049 L74.5 0.2408 L76.02 1.53 L77.54 2.82 L79.05 4.109 L81.04 3.658 L83.03 3.206 L85.02 2.755 L87 2.303 L88.99 1.852 L90.98 1.4 L92.96 0.9488 L94.95 0.4972 L96.94 0.0457 L98.92 -0.4058 L100.9 -0.8573 L102.9 -1.309 L103.4 -3.276 L104 -5.244 L104.5 -7.212 L105.1 -9.179 L105.6 -11.15 L106.2 -13.11 L106.7 -15.08 L107.2 -17.05 L107.8 -19.02 L108.3 -20.98 L108.9 -22.95 L109.4 -24.92 L110 -26.89 L110.5 -28.85 L111 -30.82 L110.4 -32.74 L109.8 -34.65 L109.1 -36.57 L108.5 -38.49 L107.8 -40.4 L107.2 -42.32 L106.5 -44.23 L105.9 -46.15 L105.2 -48.06 L104.6 -49.98 L103.9 -51.9 L103.3 -53.81 L102.6 -55.73 L102 -57.64 L101.3 -59.56 L100.7 -61.47 L100 -63.39 L99.4 -65.31 L98.75 -67.22 L97.23 -68.51 L95.71 -69.8 L94.19 -71.09 L92.68 -72.38 L91.16 -73.67 L89.64 -74.96 L88.12 -76.25 L86.6 -77.54 L85.08 -78.83 L83.56 -80.12 L82.05 -81.41 L80.53 -82.7 L79.01 -83.99 L77.49 -85.28 L75.97 -86.57 L74.45 -87.86 L72.94 -89.14 L70.93 -88.7 L68.93 -88.25 L66.93 -87.8 L64.92 -87.36 L62.92 -86.91 L60.92 -86.46 L58.91 -86.01 L56.91 -85.57 L54.91 -85.12 L52.9 -84.67 L50.9 -84.23 L48.9 -83.78 L48.36 -81.81 L47.81 -79.84 L47.27 -77.88 L46.73 -75.91 L46.18 -73.94 L45.64 -71.97 L45.1 -70.01 L44.55 -68.04 L44.01 -66.07 L43.47 -64.1 L42.92 -62.14 L42.38 -60.17 L41.84 -58.2 L41.29 -56.23 L40.75 -54.27 L41.41 -52.35 L42.07 -50.43 L42.72 -48.51 L43.38 -46.59 L44.04 -44.67 L44.69 -42.75 L45.35 -40.84 L46.01 -38.92 L46.67 -37 L47.32 -35.08 L47.98 -33.16 L48.64 -31.24 L49.3 -29.32 L49.95 -27.41 L50.61 -25.49 L51.27 -23.57 L51.93 -21.65 L52.58 -19.73 L53.24 -17.81 Z " />
<path stroke="rgb(0,0,0)" stroke-opacity="1" fill="rgb(236,216,157)" fill-opacity="1" id="scltrs1" d="M-161.9 2.899 L-163.1 4.453 L-164.4 6.007 L-165.6 7.562 L-166.8 9.116 L-168 10.67 L-169.3 12.22 L-170.5 13.78 L-171.7 15.33 L-172.9 16.89 L-174.2 18.44 L-175.4 20 L-176.6 21.55 L-177.8 23.1 L-179.1 24.66 L-180.3 26.21 L-181.5 27.77 L-182.7 29.32 L-184 30.88 L-185.2 32.43 L-186.4 33.98 L-187.7 35.54 L-188.9 37.09 L-190.1 38.65 L-191.3 40.2 L-192.6 41.76 L-193.8 43.31 L-195 44.86 L-196.2 46.42 L-197.5 47.97 L-198.7 49.53 L-199.9 51.08 L-201.1 52.64 L-202.4 54.19 L-203.6 55.74 L-204.8 57.3 L-206 58.85 L-204.2 59.69 L-202.4 60.54 L-200.6 61.38 L-198.8 62.22 L-197 63.06 L-195.2 63.9 L-193.4 64.74 L-191.6 65.59 L-189.8 66.43 L-188 67.27 L-186.2 68.11 L-184.4 68.95 L-182.6 69.79 L-180.8 70.64 L-179 71.48 L-177.2 72.32 L-175.4 73.16 L-173.6 74 L-171.8 74.84 L-170 75.69 L-168.2 76.53 L-166.4 77.37 L-164.6 78.21 L-162.8 79.05 L-161 79.89 L-159.2 80.74 L-157.4 81.58 L-155.6 82.42 L-153.8 83.26 L-152 84.1 L-150.2 84.94 L-148.4 85.79 L-146.6 86.63 L-144.8 87.47 L-143 88.31 L-141.2 89.15 L-139.4 89.99 L-137.6 90.84 L-135.8 91.68 L-134 92.52 L-132.2 93.36 L-130.4 94.2 L-128.6 95.04 L-126.8 95.88 L-125 96.73 L-123.2 97.57 L-121.4 98.41 L-119.6 99.25 L-117.8 100.1 L-118.6 98.26 L-119.4 96.43 L-120.3 94.59 L-121.1 92.76 L-121.9 90.92 L-122.8 89.09 L-123.6 87.26 L-124.4 85.42 L-125.3 83.59 L-126.1 81.75 L-126.9 79.92 L-127.8 78.09 L-128.6 76.25 L-129.4 74.42 L-130.3 72.59 L-131.1 70.75 L-131.9 68.92 L-132.8 67.08 L-133.6 65.25 L-134.4 63.42 L-135.3 61.58 L-136.1 59.75 L-136.9 57.91 L-137.7 56.08 L-138.6 54.25 L-139.4 52.41 L-140.2 50.58 L-141.1 48.75 L-141.9 46.91 L-142.7 45.08 L-143.6 43.24 L-144.4 41.41 L-145.2 39.58 L-146.1 37.74 L-146.9 35.91 L-147.7 34.07 L-148.6 32.24 L-149.4 30.41 L-150.2 28.57 L-151.1 26.74 L-151.9 24.91 L-152.7 23.07 L-153.6 21.24 L-154.4 19.4 L-155.2 17.57 L-156.1 15.74 L-156.9 13.9 L-157.7 12.07 L-158.6 10.23 L-159.4 8.4 L-160.2 6.567 L-161.1 4.733 L-161.9 2.899 Z " />
<path stroke="rgb(0,0,0)" stroke-opacity="1" fill="rgb(255,255,255)" fill-opacity="1" id="a5" d="M-62.4 134.3 L-62.51 136.7 L-62.82 138.8 L-63.33 140.8 L-64.03 142.7 L-64.92 144.4 L-65.97 145.8 L-67.18 147.2 L-68.54 148.3 L-70.05 149.2 L-71.69 150 L-73.45 150.5 L-75.33 150.8 L-77.32 150.9 L-79.4 150.9 L-81.57 150.5 L-83.81 150 L-86.13 149.2 L-88.5 148.2 L-90.29 147.4 L-92.04 146.4 L-93.76 145.3 L-95.43 144.1 L-97.07 142.8 L-98.65 141.5 L-100.2 140.1 L-101.7 138.6 L-103.1 137 L-104.4 135.4 L-105.7 133.7 L-107 132 L-108.1 130.3 L-109.2 128.5 L-110.1 126.7 L-111 124.9 L-111.8 123 L-112.5 121.2 L-113.2 119.3 L-113.7 117.4 L-114.1 115.6 L-114.4 113.7 L-114.5 111.9 L-114.6 110 L-114.5 107.7 L-114.2 105.6 L-113.7 103.6 L-113 101.7 L-112.1 100 L-111 98.56 L-109.8 97.25 L-108.5 96.12 L-107 95.19 L-105.3 94.45 L-103.5 93.91 L-101.7 93.58 L-99.68 93.45 L-97.6 93.54 L-95.43 93.85 L-93.19 94.39 L-90.87 95.15 L-88.5 96.15 L-86.71 97.04 L-84.96 98.03 L-83.24 99.12 L-81.57 100.3 L-79.93 101.6 L-78.35 102.9 L-76.81 104.3 L-75.33 105.8 L-73.91 107.4 L-72.56 109 L-71.27 110.7 L-70.05 112.4 L-68.91 114.1 L-67.84 115.9 L-66.86 117.7 L-65.97 119.5 L-65.16 121.4 L-64.45 123.2 L-63.84 125.1 L-63.33 127 L-62.93 128.8 L-62.64 130.7 L-62.46 132.5 L-62.4 134.3 Z " />
<path stroke="rgb(0,0,0)" stroke-opacity="1" fill="rgb(255,255,255)" fill-opacity="1" id="a17" d="M-96 -128.5 L-97.21 -127 L-98.42 -125.5 L-99.62 -124 L-100.8 -122.4 L-102 -120.9 L-103.2 -119.4 L-104.5 -117.8 L-105.7 -116.3 L-106.9 -114.8 L-108.1 -113.2 L-109.3 -111.7 L-110.5 -110.2 L-111.7 -108.7 L-109.9 -107.8 L-108 -106.9 L-106.2 -106.1 L-104.3 -105.2 L-102.5 -104.3 L-100.6 -103.5 L-98.77 -102.6 L-96.92 -101.7 L-95.08 -100.9 L-93.23 -100 L-91.38 -99.14 L-89.54 -98.27 L-87.69 -97.41 L-85.84 -96.54 L-83.99 -95.68 L-82.15 -94.81 L-80.3 -93.95 L-81.13 -95.77 L-81.95 -97.59 L-82.78 -99.41 L-83.61 -101.2 L-84.43 -103.1 L-85.26 -104.9 L-86.08 -106.7 L-86.91 -108.5 L-87.74 -110.3 L-88.56 -112.2 L-89.39 -114 L-90.22 -115.8 L-91.04 -117.6 L-91.87 -119.4 L-92.69 -121.3 L-93.52 -123.1 L-94.35 -124.9 L-95.17 -126.7 L-96 -128.5 Z " />
<path stroke="rgb(0,0,0)" stroke-opacity="1" fill="rgb(255,255,255)" fill-opacity="1" id="a16" d="M-96 -70.95 L-94.79 -72.48 L-93.58 -74.01 L-92.38 -75.54 L-91.17 -77.07 L-89.96 -78.6 L-88.75 -80.13 L-87.55 -81.67 L-86.34 -83.2 L-85.13 -84.73 L-83.92 -86.26 L-82.72 -87.79 L-81.51 -89.32 L-80.3 -90.85 L-82.15 -91.71 L-83.99 -92.57 L-85.84 -93.43 L-87.69 -94.29 L-89.54 -95.14 L-91.38 -96 L-93.23 -96.86 L-95.08 -97.72 L-96.92 -98.58 L-98.77 -99.44 L-100.6 -100.3 L-102.5 -101.2 L-104.3 -102 L-106.2 -102.9 L-108 -103.7 L-109.9 -104.6 L-111.7 -105.5 L-110.9 -103.6 L-110 -101.8 L-109.2 -100 L-108.4 -98.19 L-107.6 -96.37 L-106.7 -94.56 L-105.9 -92.74 L-105.1 -90.92 L-104.3 -89.11 L-103.4 -87.29 L-102.6 -85.48 L-101.8 -83.66 L-101 -81.84 L-100.1 -80.03 L-99.31 -78.21 L-98.48 -76.4 L-97.65 -74.58 L-96.83 -72.77 L-96 -70.95 Z " />
<path stroke="rgb(0,0,0)" stroke-opacity="1" fill="rgb(173,200,200)" fill-opacity="1" id="swap2" d="M-56.24 -64.83 L-56.49 -62.71 L-57.21 -61 L-58.35 -59.73 L-59.85 -58.93 L-61.65 -58.63 L-63.7 -58.85 L-65.94 -59.63 L-67.69 -60.6 L-69.34 -61.82 L-70.85 -63.25 L-72.2 -64.84 L-73.37 -66.55 L-74.32 -68.35 L-75.03 -70.19 L-75.48 -72.03 L-75.64 -73.83 L-75.38 -75.92 L-74.66 -77.62 L-73.52 -78.89 L-72.02 -79.71 L-70.22 -80.02 L-68.17 -79.81 L-65.94 -79.03 L-64.18 -78.07 L-62.53 -76.86 L-61.02 -75.44 L-59.67 -73.86 L-58.5 -72.15 L-57.55 -70.36 L-56.84 -68.52 L-56.39 -66.66 L-56.24 -64.83 Z " />
<path stroke="rgb(0,0,0)" stroke-opacity="1" fill="rgb(173,200,200)" fill-opacity="1" id="swap4" d="M-33.4 -46.69 L-33.65 -44.57 L-34.38 -42.86 L-35.52 -41.59 L-37.02 -40.79 L-38.82 -40.49 L-40.86 -40.71 L-43.1 -41.49 L-44.85 -42.46 L-46.5 -43.68 L-48.01 -45.11 L-49.37 -46.7 L-50.53 -48.41 L-51.49 -50.21 L-52.2 -52.05 L-52.65 -53.89 L-52.8 -55.69 L-52.55 -57.81 L-51.82 -59.52 L-50.68 -60.79 L-49.18 -61.6 L-47.38 -61.9 L-45.34 -61.68 L-43.1 -60.89 L-41.35 -59.93 L-39.7 -58.72 L-38.19 -57.3 L-36.83 -55.72 L-35.67 -54.01 L-34.71 -52.22 L-34 -50.38 L-33.55 -48.52 L-33.4 -46.69 Z " />
<path stroke="rgb(0,0,0)" stroke-opacity="1" fill="rgb(173,200,200)" fill-opacity="1" id="swap3" d="M-33.4 -63.61 L-33.65 -61.49 L-34.38 -59.78 L-35.52 -58.51 L-37.02 -57.7 L-38.82 -57.4 L-40.86 -57.62 L-43.1 -58.41 L-44.85 -59.38 L-46.5 -60.6 L-48.01 -62.02 L-49.37 -63.61 L-50.53 -65.33 L-51.49 -67.12 L-52.2 -68.96 L-52.65 -70.81 L-52.8 -72.61 L-52.55 -74.69 L-51.82 -76.39 L-50.68 -77.66 L-49.18 -78.48 L-47.38 -78.8 L-45.34 -78.58 L-43.1 -77.81 L-41.35 -76.84 L-39.7 -75.63 L-38.19 -74.21 L-36.83 -72.63 L-35.67 -70.93 L-34.71 -69.13 L-34 -67.29 L-33.55 -65.43 L-33.4 -63.61 Z " />
<path stroke="rgb(0,0,0)" stroke-opacity="1" fill="rgb(173,200,200)" fill-opacity="1" id="swap1" d="M-10.16 -46.47 L-10.42 -44.35 L-11.14 -42.64 L-12.28 -41.37 L-13.78 -40.56 L-15.58 -40.26 L-17.63 -40.48 L-19.86 -41.27 L-21.62 -42.24 L-23.27 -43.46 L-24.78 -44.88 L-26.13 -46.47 L-27.3 -48.19 L-28.25 -49.98 L-28.96 -51.82 L-29.41 -53.67 L-29.56 -55.47 L-29.31 -57.55 L-28.59 -59.25 L-27.45 -60.52 L-25.95 -61.34 L-24.15 -61.66 L-22.1 -61.44 L-19.86 -60.67 L-18.11 -59.7 L-16.46 -58.48 L-14.95 -57.05 L-13.6 -55.46 L-12.43 -53.75 L-11.48 -51.95 L-10.77 -50.11 L-10.32 -48.27 L-10.16 -46.47 Z " />
<path stroke="rgb(0,0,0)" stroke-opacity="1" fill="rgb(255,255,255)" fill-opacity="1" id="secscl1" d="M-6.078 126.8 L-6.839 126.4 L-7.6 126.1 L-8.361 125.7 L-9.122 125.4 L-9.883 125 L-10.64 124.6 L-11.41 124.3 L-12.17 123.9 L-12.93 123.6 L-13.69 123.2 L-14.45 122.9 L-15.21 122.5 L-15.97 122.2 L-16.73 121.8 L-17.26 122.5 L-17.79 123.2 L-18.32 123.8 L-18.85 124.5 L-19.38 125.2 L-19.9 125.8 L-20.43 126.5 L-20.96 127.2 L-21.49 127.9 L-22.02 128.5 L-21.69 129.3 L-21.36 130 L-21.03 130.7 L-20.7 131.4 L-20.37 132.2 L-20.04 132.9 L-19.71 133.6 L-19.38 134.4 L-19.04 135.1 L-18.71 135.8 L-18.38 136.5 L-18.05 137.3 L-17.72 138 L-17.39 138.7 L-17.06 139.4 L-16.73 140.2 L-15.97 140.5 L-15.21 140.9 L-14.45 141.2 L-13.69 141.6 L-12.93 141.9 L-12.17 142.3 L-11.41 142.6 L-10.64 143 L-9.883 143.3 L-9.122 143.7 L-8.361 144 L-7.6 144.4 L-6.839 144.7 L-6.078 145.1 L-5.55 144.4 L-5.021 143.8 L-4.492 143.1 L-3.964 142.4 L-3.435 141.7 L-2.907 141.1 L-2.378 140.4 L-1.849 139.7 L-1.321 139.1 L-0.7922 138.4 L-1.123 137.7 L-1.453 137 L-1.783 136.2 L-2.114 135.5 L-2.444 134.8 L-2.774 134 L-3.105 133.3 L-3.435 132.6 L-3.766 131.9 L-4.096 131.1 L-4.426 130.4 L-4.757 129.7 L-5.087 129 L-5.418 128.2 L-5.748 127.5 L-6.078 126.8 Z " />
</g>
</g>
</svg>
