<!DOCTYPE svg>
<svg xmlns="http://www.w3.org/2000/svg" xmlns:xlink="http://www.w3.org/1999/xlink" width="1080" height="1080">
<g transform="translate(540.000000,540.000000)">
<g transform="scale(2,2)">
<path stroke="rgb(0,0,0)" stroke-opacity="1" fill="rgb(148,200,200)" fill-opacity="1" id="bb1_2_" d="M-94.04 -53.44 L-94.8 -51.6 L-95.56 -49.77 L-96.32 -47.93 L-97.08 -46.1 L-97.84 -44.26 L-98.6 -42.42 L-99.36 -40.59 L-100.1 -38.75 L-100.9 -36.92 L-101.6 -35.08 L-102.4 -33.25 L-103.2 -31.41 L-103.9 -29.57 L-104.7 -27.74 L-105.4 -25.9 L-106.2 -24.07 L-107 -22.23 L-107.7 -20.39 L-108.5 -18.56 L-109.2 -16.72 L-110 -14.89 L-110.8 -13.05 L-111.5 -11.22 L-112.3 -9.38 L-113 -7.544 L-113.8 -5.708 L-114.6 -3.873 L-115.3 -2.037 L-116.1 -0.2012 L-118.1 -0.1565 L-120.1 -0.1118 L-122.1 -0.06719 L-124.1 -0.02253 L-126.1 0.02213 L-128.1 0.06679 L-130.1 0.1114 L-132.1 0.1561 L-134.1 0.2008 L-136.1 0.2454 L-138.1 0.2901 L-140.2 0.3347 L-142.2 0.3794 L-144.2 0.4241 L-146.2 0.4687 L-148.2 0.5134 L-150.2 0.558 L-152.2 0.6027 L-154.2 0.6473 L-156.2 0.692 L-158.2 0.7367 L-160.2 0.7813 L-162.2 0.826 L-164.2 0.8706 L-166.2 0.9153 L-168.2 0.96 L-170.3 1.005 L-169.5 -0.8312 L-168.7 -2.667 L-168 -4.503 L-167.2 -6.339 L-166.5 -8.174 L-165.7 -10.01 L-164.9 -11.85 L-164.2 -13.68 L-163.4 -15.52 L-162.7 -17.35 L-161.9 -19.19 L-161.1 -21.02 L-160.4 -22.86 L-159.6 -24.7 L-158.9 -26.53 L-158.1 -28.37 L-157.3 -30.2 L-156.6 -32.04 L-155.8 -33.88 L-155.1 -35.71 L-154.3 -37.55 L-153.5 -39.38 L-152.8 -41.22 L-152 -43.05 L-151.3 -44.89 L-150.5 -46.73 L-149.8 -48.56 L-149 -50.4 L-148.2 -52.23 L-146.2 -52.28 L-144.2 -52.32 L-142.2 -52.37 L-140.2 -52.41 L-138.2 -52.46 L-136.2 -52.5 L-134.2 -52.55 L-132.2 -52.59 L-130.2 -52.63 L-128.2 -52.68 L-126.2 -52.72 L-124.1 -52.77 L-122.1 -52.81 L-120.1 -52.86 L-118.1 -52.9 L-116.1 -52.95 L-114.1 -52.99 L-112.1 -53.04 L-110.1 -53.08 L-108.1 -53.13 L-106.1 -53.17 L-104.1 -53.22 L-102.1 -53.26 L-100.1 -53.3 L-98.06 -53.35 L-96.05 -53.39 L-94.04 -53.44 Z " />
<path stroke="rgb(0,0,0)" stroke-opacity="1" fill="rgb(236,216,157)" fill-opacity="1" id="pr2_1_" d="M68.55 98.48 L67.87 98.13 L67.19 97.79 L66.51 97.44 L65.83 97.09 L65.16 96.75 L64.48 96.4 L63.8 96.05 L63.12 95.7 L63.13 94.96 L63.14 94.22 L63.15 93.47 L63.16 92.73 L63.17 91.99 L63.18 91.24 L63.19 90.5 L63.87 90.84 L64.54 91.19 L65.22 91.53 L65.89 91.87 L66.57 92.21 L67.24 92.55 L67.92 92.9 L68.59 93.24 L68.58 93.99 L68.58 94.74 L68.57 95.48 L68.57 96.23 L68.56 96.98 L68.56 97.73 L68.55 98.48 Z " />
<path stroke="rgb(0,0,0)" stroke-opacity="1" fill="rgb(236,216,157)" fill-opacity="1" id="pr1_1_" d="M54.92 96.08 L53.16 95.17 L51.41 94.27 L49.65 93.37 L47.9 92.47 L46.14 91.56 L44.39 90.66 L42.64 89.76 L40.88 88.86 L40.9 86.92 L40.91 84.99 L40.92 83.06 L40.94 81.12 L40.95 79.19 L40.97 77.26 L40.98 75.32 L42.74 76.22 L44.49 77.13 L46.24 78.03 L48 78.93 L49.75 79.83 L51.51 80.74 L53.26 81.64 L55.02 82.54 L55 84.47 L54.99 86.41 L54.97 88.34 L54.96 90.28 L54.95 92.21 L54.93 94.14 L54.92 96.08 Z " />
<path stroke="rgb(0,0,0)" stroke-opacity="1" fill="rgb(236,216,157)" fill-opacity="1" id="pr3_1_" d="M54.6 113.6 L52.85 112.7 L51.1 111.8 L49.35 110.9 L47.6 110 L45.85 109.1 L44.1 108.1 L42.35 107.2 L40.6 106.3 L40.61 104.4 L40.63 102.5 L40.64 100.6 L40.66 98.64 L40.67 96.71 L40.69 94.78 L40.7 92.85 L42.45 93.75 L44.2 94.65 L45.95 95.55 L47.7 96.45 L49.45 97.35 L51.2 98.25 L52.95 99.15 L54.7 100.1 L54.69 102 L54.67 103.9 L54.66 105.8 L54.64 107.8 L54.63 109.7 L54.61 111.6 L54.6 113.6 Z " />
<path stroke="rgb(0,0,0)" stroke-opacity="1" fill="rgb(236,216,157)" fill-opacity="1" id="pr4_1_" d="M72.3 121.7 L70.54 120.9 L68.77 120 L67.01 119.1 L65.25 118.2 L63.49 117.3 L61.73 116.4 L59.96 115.5 L58.2 114.6 L58.21 112.7 L58.23 110.8 L58.24 108.9 L58.26 106.9 L58.27 105 L58.29 103.1 L58.3 101.1 L60.06 102 L61.82 102.9 L63.59 103.8 L65.35 104.7 L67.11 105.6 L68.87 106.5 L70.64 107.4 L72.4 108.2 L72.39 110.2 L72.37 112.1 L72.36 114 L72.34 116 L72.33 117.9 L72.31 119.8 L72.3 121.7 Z " />
<path stroke="rgb(0,0,0)" stroke-opacity="1" fill="rgb(238,200,200)" fill-opacity="1" id="ll1_1_" d="M187.3 157.4 L184.4 156 L181.5 154.7 L178.6 153.3 L175.7 152 L172.8 150.6 L169.9 149.2 L167 147.9 L164.1 146.5 L161.2 145.2 L158.3 143.8 L155.4 142.5 L152.5 141.1 L149.6 139.7 L146.7 138.4 L143.8 137 L140.9 135.7 L140.9 132.4 L140.9 129.2 L140.9 126 L140.9 122.7 L140.9 119.5 L140.9 116.2 L140.9 113 L140.9 109.8 L140.9 106.5 L140.9 103.3 L140.9 100 L140.9 96.8 L140.9 93.56 L140.9 90.32 L143.8 91.68 L146.7 93.05 L149.6 94.42 L152.5 95.79 L155.4 97.15 L158.3 98.52 L161.2 99.89 L164.1 101.3 L167 102.6 L169.9 104 L172.8 105.4 L175.7 106.7 L178.6 108.1 L181.5 109.5 L184.4 110.8 L187.3 112.2 L187.3 115.4 L187.3 118.7 L187.3 121.9 L187.3 125.1 L187.3 128.3 L187.3 131.6 L187.3 134.8 L187.3 138 L187.3 141.3 L187.3 144.5 L187.3 147.7 L187.3 150.9 L187.3 154.2 L187.3 157.4 Z " />
<path stroke="rgb(0,0,0)" stroke-opacity="1" fill="rgb(255,255,255)" fill-opacity="1" id="cl1_1_" d="M37.96 97.76 L37.06 99.56 L36.15 101.4 L35.25 103.2 L34.35 105 L33.45 106.8 L32.55 108.6 L31.65 110.4 L30.75 112.2 L29.85 114 L28.95 115.8 L28.04 117.6 L27.14 119.4 L26.24 121.2 L25.34 123 L24.44 124.8 L22.35 124.9 L23.27 123.1 L24.2 121.3 L25.12 119.5 L26.04 117.7 L26.96 115.9 L27.88 114.1 L28.8 112.3 L29.72 110.5 L30.64 108.7 L31.56 106.9 L32.48 105.1 L33.4 103.3 L34.33 101.5 L35.25 99.66 L36.17 97.86 L37.96 97.76 Z " />
<path stroke="rgb(0,0,0)" stroke-opacity="1" fill="rgb(255,255,255)" fill-opacity="1" id="a5_2_" d="M206 -50.75 L204.1 -51.59 L202.2 -52.44 L200.3 -53.28 L198.5 -54.12 L196.6 -54.96 L194.7 -55.81 L192.8 -56.65 L190.9 -57.49 L189 -58.34 L187.1 -59.18 L185.3 -60.02 L183.4 -60.86 L181.5 -61.71 L179.6 -62.55 L179.6 -60.6 L179.6 -58.64 L179.6 -56.69 L179.6 -54.73 L179.6 -52.78 L179.6 -50.83 L179.6 -48.87 L179.6 -46.92 L179.6 -44.97 L179.6 -43.01 L179.6 -41.06 L179.6 -39.1 L179.6 -37.15 L181.5 -36.31 L183.4 -35.46 L185.3 -34.62 L187.1 -33.78 L189 -32.94 L190.9 -32.09 L192.8 -31.25 L194.7 -30.41 L196.6 -29.56 L198.5 -28.72 L200.3 -27.88 L202.2 -27.04 L204.1 -26.19 L206 -25.35 L206 -27.3 L206 -29.26 L206 -31.21 L206 -33.17 L206 -35.12 L206 -37.07 L206 -39.03 L206 -40.98 L206 -42.93 L206 -44.89 L206 -46.84 L206 -48.8 L206 -50.75 Z " />
<path stroke="rgb(0,0,0)" stroke-opacity="1" fill="rgb(255,255,255)" fill-opacity="1" id="a6_2_" d="M83.3 51.45 L81.52 50.62 L79.75 49.79 L77.97 48.96 L76.19 48.13 L74.42 47.3 L72.64 46.47 L70.86 45.64 L69.09 44.81 L67.31 43.99 L65.54 43.16 L63.76 42.33 L61.98 41.5 L60.21 40.67 L58.43 39.84 L56.65 39.01 L54.88 38.18 L53.1 37.35 L53.1 35.25 L53.1 33.15 L53.1 31.05 L53.1 28.95 L53.1 26.85 L53.1 24.75 L53.1 22.65 L53.1 20.55 L53.1 18.45 L53.1 16.35 L54.87 17.18 L56.64 18.01 L58.41 18.84 L60.18 19.67 L61.95 20.5 L63.72 21.33 L65.49 22.16 L67.26 22.99 L69.04 23.81 L70.81 24.64 L72.58 25.47 L74.35 26.3 L76.12 27.13 L77.89 27.96 L79.66 28.79 L81.43 29.62 L83.2 30.45 L83.21 32.36 L83.22 34.27 L83.23 36.18 L83.24 38.09 L83.25 40 L83.25 41.9 L83.26 43.81 L83.27 45.72 L83.28 47.63 L83.29 49.54 L83.3 51.45 Z " />
<path stroke="rgb(0,0,0)" stroke-opacity="1" fill="rgb(148,200,200)" fill-opacity="1" id="rtr1_2_" d="M62.49 -140.3 L64.24 -139.3 L65.99 -138.2 L67.74 -137.1 L69.49 -136 L71.24 -134.9 L72.99 -133.8 L72.75 -131.7 L72.51 -129.6 L72.27 -127.5 L72.03 -125.4 L71.79 -123.3 L70.02 -124.4 L68.26 -125.5 L66.49 -126.5 L64.72 -127.6 L62.96 -128.7 L61.19 -129.8 L61.45 -131.9 L61.71 -134 L61.97 -136.1 L62.23 -138.2 L62.49 -140.3 Z " />
<path stroke="rgb(0,0,0)" stroke-opacity="1" fill="rgb(238,200,200)" fill-opacity="1" id="sg1_2_" d="M74.05 119.3 L75.54 118.2 L77.03 117.2 L78.52 116.1 L80.01 115 L81.5 114 L82.99 112.9 L84.85 113.9 L86.71 114.9 L88.57 115.8 L90.43 116.8 L88.95 117.9 L87.46 119 L85.98 120 L84.49 121.1 L83.01 122.2 L81.53 123.3 L79.66 122.3 L77.79 121.3 L75.92 120.3 L74.05 119.3 Z " />
<path stroke="rgb(0,0,0)" stroke-opacity="1" fill="rgb(255,255,255)" fill-opacity="1" id="a12_2_" d="M-54.8 88.45 L-56.68 87.63 L-58.57 86.82 L-60.45 86 L-62.33 85.18 L-64.22 84.37 L-66.1 83.55 L-66.12 81.62 L-66.13 79.68 L-66.15 77.75 L-66.17 75.82 L-66.18 73.88 L-66.2 71.95 L-64.33 72.77 L-62.47 73.58 L-60.6 74.4 L-58.73 75.22 L-56.87 76.03 L-55 76.85 L-54.97 78.78 L-54.93 80.72 L-54.9 82.65 L-54.87 84.58 L-54.83 86.52 L-54.8 88.45 Z " />
<path stroke="rgb(0,0,0)" stroke-opacity="1" fill="rgb(255,255,255)" fill-opacity="1" id="secscl1_2_" d="M-31.75 25.86 L-32.69 25.41 L-33.63 24.96 L-34.57 24.51 L-35.51 24.06 L-36.45 23.62 L-37.4 23.17 L-38.34 22.72 L-39.28 22.27 L-39.28 21.26 L-39.28 20.24 L-39.28 19.23 L-39.28 18.21 L-39.28 17.2 L-39.28 16.19 L-39.28 15.17 L-39.28 14.16 L-39.28 13.14 L-39.28 12.13 L-39.28 11.11 L-39.28 10.1 L-39.28 9.086 L-39.28 8.072 L-39.28 7.057 L-39.28 6.043 L-39.28 5.029 L-39.28 4.014 L-39.28 3 L-39.28 1.986 L-39.28 0.9716 L-39.28 -0.04273 L-39.28 -1.057 L-39.28 -2.071 L-39.28 -3.086 L-39.28 -4.1 L-39.28 -5.114 L-39.28 -6.128 L-39.28 -7.143 L-39.28 -8.157 L-39.28 -9.171 L-39.28 -10.19 L-39.28 -11.2 L-39.28 -12.21 L-39.28 -13.23 L-39.28 -14.24 L-39.28 -15.26 L-39.28 -16.27 L-39.28 -17.29 L-39.28 -18.3 L-38.34 -17.85 L-37.4 -17.39 L-36.45 -16.94 L-35.51 -16.48 L-34.57 -16.03 L-33.63 -15.57 L-32.69 -15.12 L-31.75 -14.66 L-31.75 -13.65 L-31.75 -12.64 L-31.75 -11.62 L-31.75 -10.61 L-31.75 -9.598 L-31.75 -8.585 L-31.75 -7.572 L-31.75 -6.559 L-31.75 -5.546 L-31.75 -4.533 L-31.75 -3.52 L-31.75 -2.507 L-31.75 -1.494 L-31.75 -0.4807 L-31.75 0.5323 L-31.75 1.545 L-31.75 2.558 L-31.75 3.571 L-31.75 4.584 L-31.75 5.597 L-31.75 6.61 L-31.75 7.623 L-31.75 8.636 L-31.75 9.649 L-31.75 10.66 L-31.75 11.68 L-31.75 12.69 L-31.75 13.7 L-31.75 14.71 L-31.75 15.73 L-31.75 16.74 L-31.75 17.75 L-31.75 18.77 L-31.75 19.78 L-31.75 20.79 L-31.75 21.81 L-31.75 22.82 L-31.75 23.83 L-31.75 24.84 L-31.75 25.86 Z " />
<path stroke="rgb(0,0,0)" stroke-opacity="1" fill="rgb(255,255,255)" fill-opacity="1" id="a7_1_" d="M141.3 -84.25 L139.4 -85.05 L137.6 -85.85 L135.7 -86.65 L133.8 -87.45 L132 -88.25 L130.1 -89.05 L128.3 -89.85 L126.4 -90.65 L124.5 -91.45 L122.7 -92.25 L120.8 -93.05 L120.8 -95.03 L120.8 -97.02 L120.8 -99 L120.8 -101 L120.8 -103 L120.8 -105 L122.7 -104.1 L124.5 -103.3 L126.4 -102.5 L128.3 -101.7 L130.1 -100.9 L132 -100 L133.8 -99.22 L135.7 -98.4 L137.6 -97.59 L139.4 -96.77 L141.3 -95.95 L141.3 -94 L141.3 -92.05 L141.3 -90.1 L141.3 -88.15 L141.3 -86.2 L141.3 -84.25 Z " />
<path stroke="rgb(0,0,0)" stroke-opacity="1" fill="rgb(255,255,255)" fill-opacity="1" id="a8_1_" d="M141.2 -69.95 L139.3 -70.76 L137.5 -71.57 L135.6 -72.38 L133.7 -73.19 L131.9 -74 L130 -74.8 L128.2 -75.61 L126.3 -76.42 L124.4 -77.23 L122.6 -78.04 L120.7 -78.85 L120.7 -80.82 L120.7 -82.78 L120.7 -84.75 L120.7 -86.72 L120.7 -88.68 L120.7 -90.65 L122.6 -89.85 L124.4 -89.05 L126.3 -88.25 L128.2 -87.45 L130.1 -86.65 L131.9 -85.85 L133.8 -85.05 L135.7 -84.25 L137.6 -83.45 L139.4 -82.65 L141.3 -81.85 L141.3 -79.87 L141.3 -77.88 L141.2 -75.9 L141.2 -73.92 L141.2 -71.93 L141.2 -69.95 Z " />
<path stroke="rgb(0,0,0)" stroke-opacity="1" fill="rgb(255,255,255)" fill-opacity="1" id="a9_1_" d="M134.2 -61.55 L132.3 -62.35 L130.4 -63.15 L128.5 -63.95 L126.5 -64.75 L124.6 -65.55 L122.7 -66.35 L120.8 -67.15 L120.8 -68.95 L120.8 -70.75 L120.7 -72.55 L120.7 -74.35 L120.7 -76.15 L122.6 -75.34 L124.5 -74.52 L126.4 -73.71 L128.4 -72.89 L130.3 -72.08 L132.2 -71.26 L134.1 -70.45 L134.1 -68.23 L134.2 -66 L134.2 -63.77 L134.2 -61.55 Z " />
<path stroke="rgb(0,0,0)" stroke-opacity="1" fill="rgb(255,255,255)" fill-opacity="1" id="a17_1_" d="M34.5 62.65 L32.73 61.71 L30.95 60.78 L29.18 59.84 L27.41 58.9 L25.64 57.97 L23.86 57.03 L22.09 56.1 L20.32 55.16 L18.55 54.22 L16.77 53.29 L15 52.35 L15 50.33 L15 48.32 L15 46.3 L15 44.28 L15 42.27 L15 40.25 L16.77 41.19 L18.55 42.12 L20.32 43.06 L22.09 44 L23.86 44.93 L25.64 45.87 L27.41 46.8 L29.18 47.74 L30.95 48.68 L32.73 49.61 L34.5 50.55 L34.5 52.57 L34.5 54.58 L34.5 56.6 L34.5 58.62 L34.5 60.63 L34.5 62.65 Z " />
<path stroke="rgb(0,0,0)" stroke-opacity="1" fill="rgb(255,255,255)" fill-opacity="1" id="a16_1_" d="M34.5 79.85 L32.73 78.95 L30.95 78.05 L29.18 77.15 L27.41 76.25 L25.64 75.35 L23.86 74.45 L22.09 73.55 L20.32 72.65 L18.55 71.75 L16.77 70.85 L15 69.95 L15 67.98 L15 66.02 L15 64.05 L15 62.08 L15 60.12 L15 58.15 L16.77 59.05 L18.55 59.95 L20.32 60.85 L22.09 61.75 L23.86 62.65 L25.64 63.55 L27.41 64.45 L29.18 65.35 L30.95 66.25 L32.73 67.15 L34.5 68.05 L34.5 70.02 L34.5 71.98 L34.5 73.95 L34.5 75.92 L34.5 77.88 L34.5 79.85 Z " />
<path stroke="rgb(0,0,0)" stroke-opacity="1" fill="rgb(236,216,157)" fill-opacity="1" id="scltrs1_1_" d="M-31.31 49.93 L-32.28 49.42 L-33.24 48.92 L-34.21 48.41 L-35.17 47.91 L-36.14 47.4 L-37.1 46.89 L-38.07 46.39 L-38.07 45.29 L-38.07 44.19 L-38.07 43.09 L-38.07 41.99 L-38.07 40.89 L-38.07 39.79 L-37.1 40.3 L-36.14 40.8 L-35.17 41.31 L-34.21 41.81 L-33.24 42.32 L-32.28 42.82 L-31.31 43.33 L-31.31 44.43 L-31.31 45.53 L-31.31 46.63 L-31.31 47.73 L-31.31 48.83 L-31.31 49.93 Z " />
<path stroke="rgb(0,0,0)" stroke-opacity="1" fill="rgb(244,227,211)" fill-opacity="1" id="a15_1_" d="M119.3 1.25 L117.4 0.3875 L115.6 -0.475 L113.7 -1.338 L111.8 -2.2 L110 -3.063 L108.1 -3.925 L106.3 -4.788 L104.4 -5.65 L104.4 -7.57 L104.4 -9.49 L104.4 -11.41 L104.4 -13.33 L104.4 -15.25 L106.3 -14.38 L108.1 -13.5 L110 -12.63 L111.8 -11.75 L113.7 -10.88 L115.6 -10 L117.4 -9.125 L119.3 -8.25 L119.3 -6.35 L119.3 -4.45 L119.3 -2.55 L119.3 -0.65 L119.3 1.25 Z " />
<path stroke="rgb(0,0,0)" stroke-opacity="1" fill="rgb(244,227,211)" fill-opacity="1" id="a14_1_" d="M117.2 9.75 L115.4 8.893 L113.5 8.036 L111.7 7.179 L109.8 6.321 L108 5.464 L106.1 4.607 L104.3 3.75 L104.3 1.817 L104.4 -0.1167 L104.4 -2.05 L106.2 -1.164 L108.1 -0.2786 L109.9 0.6071 L111.7 1.493 L113.5 2.379 L115.4 3.264 L117.2 4.15 L117.2 6.017 L117.2 7.883 L117.2 9.75 Z " />
<path stroke="rgb(0,0,0)" stroke-opacity="1" fill="rgb(244,227,211)" fill-opacity="1" id="a13_1_" d="M115 29.65 L113.2 28.82 L111.4 27.98 L109.6 27.15 L107.9 26.32 L106.1 25.48 L104.3 24.65 L104.3 22.59 L104.3 20.52 L104.3 18.46 L104.3 16.4 L104.3 14.34 L104.3 12.27 L104.3 10.21 L104.3 8.15 L106.1 8.983 L107.9 9.817 L109.6 10.65 L111.4 11.48 L113.2 12.32 L115 13.15 L115 15.21 L115 17.27 L115 19.34 L115 21.4 L115 23.46 L115 25.52 L115 27.59 L115 29.65 Z " />
<path stroke="rgb(0,0,0)" stroke-opacity="1" fill="rgb(200,200,200)" fill-opacity="1" id="a1_2_" d="M-110.5 -73.45 L-112.2 -74.33 L-114 -75.2 L-115.7 -76.08 L-117.5 -76.96 L-119.2 -77.84 L-121 -78.71 L-122.7 -79.59 L-124.5 -80.47 L-126.2 -81.35 L-128 -82.22 L-129.8 -83.1 L-131.5 -83.98 L-133.3 -84.85 L-135 -85.73 L-136.8 -86.61 L-138.5 -87.49 L-140.3 -88.36 L-142 -89.24 L-143.8 -90.12 L-145.5 -91 L-147.3 -91.87 L-149 -92.75 L-149 -94.61 L-149 -96.47 L-149 -98.33 L-149 -100.2 L-149 -102 L-147.3 -101.2 L-145.5 -100.3 L-143.8 -99.4 L-142 -98.52 L-140.3 -97.64 L-138.5 -96.76 L-136.8 -95.88 L-135 -95 L-133.3 -94.11 L-131.5 -93.23 L-129.8 -92.35 L-128 -91.47 L-126.2 -90.59 L-124.5 -89.7 L-122.7 -88.82 L-121 -87.94 L-119.2 -87.06 L-117.5 -86.18 L-115.7 -85.3 L-114 -84.41 L-112.2 -83.53 L-110.5 -82.65 L-110.5 -80.81 L-110.5 -78.97 L-110.5 -77.13 L-110.5 -75.29 L-110.5 -73.45 Z " />
<path stroke="rgb(0,0,0)" stroke-opacity="1" fill="rgb(200,200,200)" fill-opacity="1" id="a4_2_" d="M-89.9 -108.2 L-91.69 -109 L-93.49 -109.9 L-95.28 -110.8 L-97.08 -111.7 L-98.87 -112.6 L-100.7 -113.5 L-102.5 -114.4 L-104.3 -115.3 L-106 -116.2 L-107.8 -117.1 L-109.6 -118 L-111.4 -118.9 L-113.2 -119.8 L-115 -120.7 L-116.8 -121.6 L-118.6 -122.5 L-120.4 -123.3 L-122.2 -124.2 L-124 -125.1 L-125.8 -126 L-127.6 -126.9 L-129.4 -127.8 L-131.2 -128.7 L-133 -129.6 L-134.7 -130.5 L-136.5 -131.4 L-138.3 -132.3 L-140.1 -133.2 L-141.9 -134.1 L-143.7 -135 L-145.5 -135.9 L-147.3 -136.8 L-149.1 -137.7 L-149.1 -139.7 L-149.1 -141.7 L-149.1 -143.7 L-149.1 -145.7 L-149.1 -147.7 L-149.1 -149.7 L-149.1 -151.8 L-147.3 -150.9 L-145.5 -150 L-143.7 -149.1 L-141.9 -148.2 L-140.1 -147.3 L-138.3 -146.4 L-136.5 -145.5 L-134.7 -144.6 L-133 -143.7 L-131.2 -142.8 L-129.4 -142 L-127.6 -141.1 L-125.8 -140.2 L-124 -139.3 L-122.2 -138.4 L-120.4 -137.5 L-118.6 -136.6 L-116.8 -135.7 L-115 -134.8 L-113.2 -133.9 L-111.4 -133 L-109.6 -132.2 L-107.8 -131.3 L-106 -130.4 L-104.3 -129.5 L-102.5 -128.6 L-100.7 -127.7 L-98.87 -126.8 L-97.08 -125.9 L-95.28 -125 L-93.49 -124.1 L-91.69 -123.2 L-89.9 -122.3 L-89.9 -120.3 L-89.9 -118.3 L-89.9 -116.3 L-89.9 -114.2 L-89.9 -112.2 L-89.9 -110.2 L-89.9 -108.2 Z " />
<path stroke="rgb(0,0,0)" stroke-opacity="1" fill="rgb(200,200,200)" fill-opacity="1" id="a2_1_" d="M-109.1 -87.55 L-110.9 -88.45 L-112.7 -89.36 L-114.6 -90.26 L-116.4 -91.17 L-118.2 -92.07 L-120 -92.98 L-121.8 -93.88 L-123.6 -94.79 L-125.5 -95.69 L-127.3 -96.6 L-129.1 -97.5 L-130.9 -98.4 L-132.7 -99.31 L-134.6 -100.2 L-136.4 -101.1 L-138.2 -102 L-140 -102.9 L-141.8 -103.8 L-143.6 -104.7 L-145.5 -105.6 L-147.3 -106.5 L-149.1 -107.5 L-149.1 -109.4 L-149.1 -111.3 L-149.1 -113.3 L-149.1 -115.2 L-149.1 -117.2 L-147.3 -116.2 L-145.5 -115.3 L-143.6 -114.4 L-141.8 -113.5 L-140 -112.6 L-138.2 -111.7 L-136.4 -110.8 L-134.6 -109.9 L-132.7 -109 L-130.9 -108.1 L-129.1 -107.2 L-127.3 -106.2 L-125.5 -105.3 L-123.6 -104.4 L-121.8 -103.5 L-120 -102.6 L-118.2 -101.7 L-116.4 -100.8 L-114.6 -99.88 L-112.7 -98.97 L-110.9 -98.06 L-109.1 -97.15 L-109.1 -95.23 L-109.1 -93.31 L-109.1 -91.39 L-109.1 -89.47 L-109.1 -87.55 Z " />
<path stroke="rgb(0,0,0)" stroke-opacity="1" fill="rgb(200,200,200)" fill-opacity="1" id="a3_1_" d="M-105.8 -101.2 L-107.6 -102 L-109.4 -102.9 L-111.2 -103.8 L-113 -104.7 L-114.8 -105.6 L-116.6 -106.5 L-118.4 -107.4 L-120.2 -108.3 L-122 -109.2 L-123.8 -110.1 L-125.6 -111 L-127.4 -111.8 L-129.3 -112.7 L-131.1 -113.6 L-132.9 -114.5 L-134.7 -115.4 L-136.5 -116.3 L-138.3 -117.2 L-140.1 -118.1 L-141.9 -119 L-143.7 -119.9 L-145.5 -120.8 L-147.3 -121.7 L-149.1 -122.5 L-149.1 -124.6 L-149.1 -126.7 L-149.1 -128.8 L-149.1 -130.9 L-149.1 -133 L-147.3 -132.1 L-145.5 -131.2 L-143.7 -130.3 L-141.9 -129.4 L-140.1 -128.5 L-138.3 -127.6 L-136.5 -126.7 L-134.7 -125.8 L-132.9 -124.9 L-131.1 -124 L-129.3 -123.1 L-127.4 -122.3 L-125.6 -121.4 L-123.8 -120.5 L-122 -119.6 L-120.2 -118.7 L-118.4 -117.8 L-116.6 -116.9 L-114.8 -116 L-113 -115.1 L-111.2 -114.2 L-109.4 -113.3 L-107.6 -112.4 L-105.8 -111.5 L-105.8 -109.5 L-105.8 -107.4 L-105.8 -105.3 L-105.8 -103.2 L-105.8 -101.2 Z " />
<path stroke="rgb(0,0,0)" stroke-opacity="1" fill="rgb(244,227,211)" fill-opacity="1" id="a11_1_" d="M-15.3 70.85 L-17.12 70.04 L-18.94 69.23 L-20.76 68.42 L-22.57 67.61 L-24.39 66.79 L-26.21 65.98 L-28.03 65.17 L-29.85 64.36 L-31.67 63.55 L-33.49 62.74 L-35.3 61.93 L-37.12 61.12 L-38.94 60.31 L-40.76 59.49 L-42.58 58.68 L-44.4 57.87 L-46.21 57.06 L-48.03 56.25 L-49.85 55.44 L-51.67 54.63 L-53.49 53.82 L-55.31 53.01 L-57.13 52.19 L-58.94 51.38 L-60.76 50.57 L-62.58 49.76 L-64.4 48.95 L-64.45 47 L-64.5 45.05 L-62.68 45.86 L-60.86 46.68 L-59.04 47.49 L-57.23 48.31 L-55.41 49.12 L-53.59 49.94 L-51.77 50.75 L-49.95 51.57 L-48.13 52.38 L-46.31 53.2 L-44.5 54.01 L-42.68 54.83 L-40.86 55.64 L-39.04 56.46 L-37.22 57.27 L-35.4 58.09 L-33.59 58.9 L-31.77 59.72 L-29.95 60.53 L-28.13 61.35 L-26.31 62.16 L-24.49 62.98 L-22.67 63.79 L-20.86 64.61 L-19.04 65.42 L-17.22 66.24 L-15.4 67.05 L-15.35 68.95 L-15.3 70.85 Z " />
<path stroke="rgb(0,0,0)" stroke-opacity="1" fill="rgb(244,200,200)" fill-opacity="1" id="fus1_1_" d="M-100.5 51.95 L-102.3 51.19 L-104.1 50.43 L-105.9 49.67 L-107.7 48.91 L-109.5 48.15 L-109.5 46.29 L-109.5 44.43 L-109.5 42.57 L-109.5 40.71 L-109.5 38.85 L-107.7 39.61 L-105.9 40.37 L-104.1 41.13 L-102.3 41.89 L-100.5 42.65 L-100.5 44.51 L-100.5 46.37 L-100.5 48.23 L-100.5 50.09 L-100.5 51.95 Z " />
<path stroke="rgb(0,0,0)" stroke-opacity="1" fill="rgb(244,200,200)" fill-opacity="1" id="fus2_1_" d="M-91.88 56.33 L-93.68 55.55 L-95.48 54.77 L-97.28 53.99 L-99.08 53.21 L-100.9 52.43 L-100.8 50.55 L-100.8 48.67 L-100.8 46.79 L-100.7 44.91 L-100.7 43.03 L-98.92 43.79 L-97.16 44.55 L-95.4 45.31 L-93.64 46.07 L-91.88 46.83 L-91.88 48.73 L-91.88 50.63 L-91.88 52.53 L-91.88 54.43 L-91.88 56.33 Z " />
<path stroke="rgb(0,0,0)" stroke-opacity="1" fill="rgb(244,200,200)" fill-opacity="1" id="fus3_1_" d="M-95.6 56.45 L-97.38 55.69 L-99.16 54.93 L-100.9 54.17 L-102.7 53.41 L-104.5 52.65 L-104.5 50.79 L-104.5 48.93 L-104.5 47.07 L-104.5 45.21 L-104.5 43.35 L-102.7 44.11 L-100.9 44.87 L-99.1 45.63 L-97.3 46.39 L-95.5 47.15 L-95.52 49.01 L-95.54 50.87 L-95.56 52.73 L-95.58 54.59 L-95.6 56.45 Z " />
<path stroke="rgb(0,0,0)" stroke-opacity="1" fill="rgb(244,200,200)" fill-opacity="1" id="fus4_1_" d="M-96.5 60.45 L-98.3 59.67 L-100.1 58.89 L-101.9 58.11 L-103.7 57.33 L-105.5 56.55 L-105.5 54.69 L-105.5 52.83 L-105.5 50.97 L-105.5 49.11 L-105.5 47.25 L-103.7 48.03 L-101.9 48.81 L-100.1 49.59 L-98.3 50.37 L-96.5 51.15 L-96.5 53.01 L-96.5 54.87 L-96.5 56.73 L-96.5 58.59 L-96.5 60.45 Z " />
<path stroke="rgb(0,0,0)" stroke-opacity="1" fill="rgb(173,200,200)" fill-opacity="1" id="swap1_1_" d="M30.61 -111 L28.79 -112 L26.97 -112.9 L25.15 -113.9 L23.33 -114.8 L21.51 -115.8 L19.69 -116.8 L17.87 -117.7 L16.05 -118.7 L14.23 -119.6 L12.41 -120.6 L12.42 -122.6 L12.43 -124.6 L12.44 -126.6 L12.45 -128.6 L12.46 -130.7 L12.47 -132.7 L12.48 -134.7 L12.5 -136.7 L12.51 -138.7 L14.33 -137.7 L16.15 -136.8 L17.97 -135.8 L19.79 -134.8 L21.61 -133.8 L23.43 -132.9 L25.25 -131.9 L27.07 -130.9 L28.89 -130 L30.71 -129 L30.7 -127 L30.68 -125 L30.67 -123 L30.66 -121 L30.65 -119 L30.64 -117 L30.63 -115 L30.62 -113 L30.61 -111 Z " />
<path stroke="rgb(0,0,0)" stroke-opacity="1" fill="rgb(173,200,200)" fill-opacity="1" id="swap3_1_" d="M20.8 -133.7 L18.98 -134.7 L17.16 -135.6 L15.34 -136.6 L13.52 -137.6 L11.7 -138.5 L9.88 -139.5 L8.06 -140.4 L6.24 -141.4 L4.42 -142.4 L2.6 -143.3 L2.611 -145.3 L2.622 -147.3 L2.633 -149.4 L2.644 -151.4 L2.656 -153.4 L2.667 -155.4 L2.678 -157.4 L2.689 -159.4 L2.7 -161.4 L4.52 -160.5 L6.34 -159.5 L8.16 -158.5 L9.98 -157.6 L11.8 -156.6 L13.62 -155.7 L15.44 -154.7 L17.26 -153.7 L19.08 -152.8 L20.9 -151.8 L20.89 -149.8 L20.88 -147.8 L20.87 -145.8 L20.86 -143.8 L20.84 -141.8 L20.83 -139.8 L20.82 -137.7 L20.81 -135.7 L20.8 -133.7 Z " />
<path stroke="rgb(0,0,0)" stroke-opacity="1" fill="rgb(173,200,200)" fill-opacity="1" id="swap2_1_" d="M11.09 -120.8 L9.273 -121.8 L7.453 -122.7 L5.633 -123.7 L3.813 -124.6 L1.993 -125.6 L0.1732 -126.6 L-1.647 -127.5 L-3.467 -128.5 L-5.287 -129.4 L-7.107 -130.4 L-7.096 -132.4 L-7.085 -134.4 L-7.073 -136.4 L-7.062 -138.4 L-7.051 -140.5 L-7.04 -142.5 L-7.029 -144.5 L-7.018 -146.5 L-7.007 -148.5 L-5.177 -147.5 L-3.347 -146.6 L-1.517 -145.6 L0.3132 -144.7 L2.143 -143.7 L3.973 -142.7 L5.803 -141.8 L7.633 -140.8 L9.463 -139.9 L11.29 -138.9 L11.27 -136.9 L11.25 -134.9 L11.23 -132.9 L11.2 -130.9 L11.18 -128.8 L11.16 -126.8 L11.14 -124.8 L11.12 -122.8 L11.09 -120.8 Z " />
<path stroke="rgb(0,0,0)" stroke-opacity="1" fill="rgb(173,200,200)" fill-opacity="1" id="swap4_1_" d="M20.7 -98.38 L18.88 -99.36 L17.06 -100.3 L15.24 -101.3 L13.42 -102.3 L11.6 -103.3 L9.78 -104.3 L7.96 -105.2 L6.14 -106.2 L4.32 -107.2 L2.5 -108.2 L2.511 -110.2 L2.522 -112.2 L2.533 -114.2 L2.544 -116.2 L2.556 -118.2 L2.567 -120.2 L2.578 -122.2 L2.589 -124.2 L2.6 -126.2 L4.43 -125.2 L6.26 -124.2 L8.09 -123.3 L9.92 -122.3 L11.75 -121.3 L13.58 -120.4 L15.41 -119.4 L17.24 -118.4 L19.07 -117.5 L20.9 -116.5 L20.88 -114.5 L20.86 -112.5 L20.83 -110.4 L20.81 -108.4 L20.79 -106.4 L20.77 -104.4 L20.74 -102.4 L20.72 -100.4 L20.7 -98.38 Z " />
<path stroke="rgb(0,0,0)" stroke-opacity="1" fill="rgb(244,227,211)" fill-opacity="1" id="a10_5_" d="M40 -46.65 L38.24 -45.63 L36.48 -44.6 L34.71 -43.57 L32.95 -42.55 L31.19 -41.53 L29.42 -40.5 L27.66 -39.48 L25.9 -38.45 L24.14 -37.43 L22.37 -36.4 L20.61 -35.38 L18.85 -34.35 L17.09 -33.33 L15.32 -32.3 L13.56 -31.28 L11.8 -30.25 L10.04 -31.28 L8.275 -32.3 L6.512 -33.33 L4.75 -34.35 L2.987 -35.38 L1.225 -36.4 L-0.5375 -37.43 L-2.3 -38.45 L-4.063 -39.48 L-5.825 -40.5 L-7.587 -41.53 L-9.35 -42.55 L-11.11 -43.57 L-12.87 -44.6 L-14.64 -45.63 L-16.4 -46.65 L-14.64 -47.68 L-12.87 -48.7 L-11.11 -49.72 L-9.35 -50.75 L-7.587 -51.77 L-5.825 -52.8 L-4.063 -53.82 L-2.3 -54.85 L-0.5375 -55.87 L1.225 -56.9 L2.987 -57.92 L4.75 -58.95 L6.512 -59.97 L8.275 -61 L10.04 -62.02 L11.8 -63.05 L13.56 -62.02 L15.32 -61 L17.09 -59.97 L18.85 -58.95 L20.61 -57.92 L22.37 -56.9 L24.14 -55.87 L25.9 -54.85 L27.66 -53.82 L29.42 -52.8 L31.19 -51.77 L32.95 -50.75 L34.71 -49.72 L36.48 -48.7 L38.24 -47.68 L40 -46.65 Z " />
<path stroke="rgb(0,0,0)" stroke-opacity="1" fill="rgb(244,227,211)" fill-opacity="1" id="a10_4_" d="M40.5 -11.85 L40.5 -13.85 L40.5 -15.85 L40.5 -17.85 L40.5 -19.85 L40.5 -21.85 L40.5 -23.85 L40.5 -25.85 L40.5 -27.85 L40.5 -29.85 L40.5 -31.85 L40.5 -33.85 L40.5 -35.85 L40.5 -37.85 L40.5 -39.85 L40.5 -41.85 L40.5 -43.85 L40.5 -45.85 L38.74 -44.83 L36.98 -43.8 L35.21 -42.78 L33.45 -41.75 L31.69 -40.73 L29.92 -39.7 L28.16 -38.68 L26.4 -37.65 L24.64 -36.62 L22.87 -35.6 L21.11 -34.57 L19.35 -33.55 L17.59 -32.52 L15.82 -31.5 L14.06 -30.47 L12.3 -29.45 L12.3 -27.44 L12.3 -25.44 L12.3 -23.43 L12.3 -21.43 L12.3 -19.42 L12.3 -17.42 L12.3 -15.41 L12.3 -13.41 L12.3 -11.4 L12.3 -9.397 L12.3 -7.392 L12.3 -5.387 L12.3 -3.382 L12.3 -1.376 L12.3 0.6289 L12.3 2.634 L12.3 4.639 L12.3 6.645 L12.3 8.65 L13.96 7.444 L15.62 6.238 L17.28 5.032 L18.94 3.826 L20.59 2.621 L22.25 1.415 L23.91 0.2088 L25.57 -0.9971 L27.23 -2.203 L28.89 -3.409 L30.55 -4.615 L32.21 -5.821 L33.86 -7.026 L35.52 -8.232 L37.18 -9.438 L38.84 -10.64 L40.5 -11.85 Z " />
<path stroke="rgb(0,0,0)" stroke-opacity="1" fill="rgb(244,227,211)" fill-opacity="1" id="a10_3_" d="M-16.8 -45.85 L-16.8 -43.85 L-16.8 -41.85 L-16.8 -39.85 L-16.8 -37.85 L-16.8 -35.85 L-16.8 -33.85 L-16.8 -31.85 L-16.8 -29.85 L-16.8 -27.85 L-16.8 -25.85 L-16.8 -23.85 L-16.8 -21.85 L-16.8 -19.85 L-16.8 -17.85 L-16.8 -15.85 L-16.8 -13.85 L-16.8 -11.85 L-15.14 -10.64 L-13.48 -9.438 L-11.82 -8.232 L-10.16 -7.026 L-8.506 -5.821 L-6.847 -4.615 L-5.188 -3.409 L-3.529 -2.203 L-1.871 -0.9971 L-0.2118 0.2088 L1.447 1.415 L3.106 2.621 L4.765 3.826 L6.424 5.032 L8.082 6.238 L9.741 7.444 L11.4 8.65 L11.4 6.645 L11.4 4.639 L11.4 2.634 L11.4 0.6289 L11.4 -1.376 L11.4 -3.382 L11.4 -5.387 L11.4 -7.392 L11.4 -9.397 L11.4 -11.4 L11.4 -13.41 L11.4 -15.41 L11.4 -17.42 L11.4 -19.42 L11.4 -21.43 L11.4 -23.43 L11.4 -25.44 L11.4 -27.44 L11.4 -29.45 L9.637 -30.47 L7.875 -31.5 L6.112 -32.52 L4.35 -33.55 L2.587 -34.57 L0.825 -35.6 L-0.9375 -36.62 L-2.7 -37.65 L-4.462 -38.68 L-6.225 -39.7 L-7.987 -40.73 L-9.75 -41.75 L-11.51 -42.78 L-13.27 -43.8 L-15.04 -44.83 L-16.8 -45.85 Z " />
<path stroke="rgb(0,0,0)" stroke-opacity="1" fill="rgb(200,200,200)" fill-opacity="1" id="circ1_5_" d="M-62.5 -10.6 L-64.08 -9.682 L-65.66 -8.762 L-67.24 -7.842 L-68.82 -6.922 L-70.4 -6.002 L-71.98 -6.922 L-73.56 -7.842 L-75.14 -8.762 L-76.72 -9.682 L-78.3 -10.6 L-76.72 -11.52 L-75.14 -12.44 L-73.56 -13.36 L-71.98 -14.28 L-70.4 -15.2 L-68.82 -14.28 L-67.24 -13.36 L-65.66 -12.44 L-64.08 -11.52 L-62.5 -10.6 Z " />
<path stroke="rgb(0,0,0)" stroke-opacity="1" fill="rgb(200,200,200)" fill-opacity="1" id="circ1_4_" d="M-62.4 -0.802 L-62.4 -2.702 L-62.4 -4.602 L-62.4 -6.502 L-62.4 -8.402 L-62.4 -10.3 L-63.98 -9.402 L-65.56 -8.502 L-67.14 -7.602 L-68.72 -6.702 L-70.3 -5.802 L-70.3 -3.662 L-70.3 -1.522 L-70.3 0.618 L-70.3 2.758 L-70.3 4.898 L-68.72 3.758 L-67.14 2.618 L-65.56 1.478 L-63.98 0.338 L-62.4 -0.802 Z " />
<path stroke="rgb(0,0,0)" stroke-opacity="1" fill="rgb(200,200,200)" fill-opacity="1" id="circ1_3_" d="M-78.5 -10.3 L-78.5 -8.402 L-78.5 -6.502 L-78.5 -4.602 L-78.5 -2.702 L-78.5 -0.802 L-76.92 0.338 L-75.34 1.478 L-73.76 2.618 L-72.18 3.758 L-70.6 4.898 L-70.6 2.758 L-70.6 0.618 L-70.6 -1.522 L-70.6 -3.662 L-70.6 -5.802 L-72.18 -6.702 L-73.76 -7.602 L-75.34 -8.502 L-76.92 -9.402 L-78.5 -10.3 Z " />
<path stroke="rgb(0,0,0)" stroke-opacity="1" fill="rgb(200,200,200)" fill-opacity="1" id="circ2_5_" d="M-98.6 -17.3 L-100.2 -16.38 L-101.8 -15.46 L-103.3 -14.54 L-104.9 -13.62 L-106.5 -12.7 L-108.1 -13.62 L-109.7 -14.54 L-111.2 -15.46 L-112.8 -16.38 L-114.4 -17.3 L-112.8 -18.2 L-111.2 -19.1 L-109.7 -20 L-108.1 -20.9 L-106.5 -21.8 L-104.9 -20.9 L-103.3 -20 L-101.8 -19.1 L-100.2 -18.2 L-98.6 -17.3 Z " />
<path stroke="rgb(0,0,0)" stroke-opacity="1" fill="rgb(200,200,200)" fill-opacity="1" id="circ2_4_" d="M-98.5 -7.498 L-98.5 -9.398 L-98.5 -11.3 L-98.5 -13.2 L-98.5 -15.1 L-98.5 -17 L-100.1 -16.08 L-101.7 -15.16 L-103.2 -14.24 L-104.8 -13.32 L-106.4 -12.4 L-106.4 -10.28 L-106.4 -8.158 L-106.4 -6.038 L-106.4 -3.918 L-106.4 -1.798 L-104.8 -2.938 L-103.2 -4.078 L-101.7 -5.218 L-100.1 -6.358 L-98.5 -7.498 Z " />
<path stroke="rgb(0,0,0)" stroke-opacity="1" fill="rgb(200,200,200)" fill-opacity="1" id="circ2_3_" d="M-114.6 -17 L-114.6 -15.1 L-114.6 -13.2 L-114.6 -11.3 L-114.6 -9.398 L-114.6 -7.498 L-113 -6.358 L-111.4 -5.218 L-109.9 -4.078 L-108.3 -2.938 L-106.7 -1.798 L-106.7 -3.918 L-106.7 -6.038 L-106.7 -8.158 L-106.7 -10.28 L-106.7 -12.4 L-108.3 -13.32 L-109.9 -14.24 L-111.4 -15.16 L-113 -16.08 L-114.6 -17 Z " />
<path stroke="rgb(0,0,0)" stroke-opacity="1" fill="rgb(148,200,200)" fill-opacity="1" id="bb1" d="M45.94 -57.07 L45.13 -55.25 L44.32 -53.43 L43.51 -51.62 L42.7 -49.8 L41.89 -47.98 L41.08 -46.16 L40.26 -44.35 L39.45 -42.53 L38.64 -40.71 L37.83 -38.89 L37.02 -37.08 L36.21 -35.26 L35.4 -33.44 L34.59 -31.62 L33.78 -29.81 L32.96 -27.99 L32.15 -26.17 L33.14 -24.39 L34.13 -22.62 L35.12 -20.84 L36.11 -19.06 L37.1 -17.28 L38.09 -15.5 L39.08 -13.72 L40.07 -11.94 L41.06 -10.16 L42.05 -8.385 L43.04 -6.606 L44.03 -4.827 L46.07 -4.857 L48.11 -4.888 L50.15 -4.918 L52.19 -4.949 L54.22 -4.979 L56.26 -5.009 L58.3 -5.04 L60.34 -5.07 L62.38 -5.1 L64.42 -5.131 L66.46 -5.161 L68.5 -5.192 L70.54 -5.222 L72.57 -5.252 L74.61 -5.283 L76.27 -6.44 L77.92 -7.598 L79.58 -8.755 L81.24 -9.912 L82.89 -11.07 L84.55 -12.23 L86.2 -13.38 L87.86 -14.54 L89.51 -15.7 L91.17 -16.86 L92.83 -18.01 L94.48 -19.17 L96.14 -20.33 L97.79 -21.49 L99.45 -22.64 L101.1 -23.8 L102.8 -24.96 L104.4 -26.12 L106.1 -27.27 L106.9 -29.09 L107.7 -30.91 L108.5 -32.73 L109.3 -34.54 L110.1 -36.36 L110.9 -38.18 L111.7 -40 L112.6 -41.81 L113.4 -43.63 L114.2 -45.45 L115 -47.26 L115.8 -49.08 L116.6 -50.9 L117.4 -52.72 L118.2 -54.53 L119 -56.35 L119.9 -58.17 L118.9 -59.96 L117.9 -61.76 L116.9 -63.55 L115.9 -65.35 L114.9 -67.15 L113.9 -68.94 L112.9 -70.74 L111.9 -72.53 L111 -74.33 L110 -76.12 L109 -77.92 L108 -79.71 L105.9 -79.68 L103.9 -79.65 L101.9 -79.62 L99.82 -79.59 L97.79 -79.56 L95.75 -79.53 L93.71 -79.5 L91.67 -79.47 L89.63 -79.44 L87.59 -79.41 L85.55 -79.38 L83.51 -79.35 L81.48 -79.32 L79.44 -79.29 L77.4 -79.26 L75.74 -78.09 L74.09 -76.92 L72.43 -75.75 L70.78 -74.59 L69.12 -73.42 L67.46 -72.25 L65.81 -71.08 L64.15 -69.91 L62.5 -68.75 L60.84 -67.58 L59.19 -66.41 L57.53 -65.24 L55.88 -64.08 L54.22 -62.91 L52.56 -61.74 L50.91 -60.57 L49.25 -59.4 L47.6 -58.24 L45.94 -57.07 Z " />
<path stroke="rgb(0,0,0)" stroke-opacity="1" fill="rgb(236,216,157)" fill-opacity="1" id="scltrs1" d="M-160.6 37.09 L-161.3 37.91 L-161.9 38.73 L-162.6 39.55 L-163.2 40.37 L-163.9 41.19 L-164.5 42.01 L-165.2 42.82 L-165.8 43.64 L-166.4 44.46 L-167.1 45.28 L-167.7 46.1 L-168.4 46.92 L-169 47.74 L-169.7 48.56 L-170.3 49.38 L-171 50.2 L-171.6 51.02 L-172.3 51.84 L-172.9 52.66 L-173.6 53.48 L-174.2 54.3 L-174.8 55.12 L-175.5 55.94 L-176.1 56.76 L-176.8 57.57 L-177.4 58.39 L-178.1 59.21 L-178.7 60.03 L-179.4 60.85 L-180 61.67 L-180.7 62.49 L-181.3 63.31 L-182 64.13 L-182.6 64.95 L-183.3 65.77 L-183.9 66.59 L-182.9 67.03 L-182 67.48 L-181 67.92 L-180.1 68.36 L-179.2 68.81 L-178.2 69.25 L-177.3 69.7 L-176.3 70.14 L-175.4 70.58 L-174.4 71.03 L-173.5 71.47 L-172.5 71.91 L-171.6 72.36 L-170.6 72.8 L-169.7 73.24 L-168.7 73.69 L-167.8 74.13 L-166.8 74.58 L-165.9 75.02 L-164.9 75.46 L-164 75.91 L-163 76.35 L-162.1 76.79 L-161.1 77.24 L-160.2 77.68 L-159.2 78.13 L-158.3 78.57 L-157.3 79.01 L-156.4 79.46 L-155.4 79.9 L-154.5 80.34 L-153.5 80.79 L-152.6 81.23 L-151.6 81.68 L-150.7 82.12 L-149.7 82.56 L-148.8 83.01 L-147.8 83.45 L-146.9 83.89 L-145.9 84.34 L-145 84.78 L-144 85.23 L-143.1 85.67 L-142.1 86.11 L-141.2 86.56 L-140.2 87 L-139.3 87.44 L-138.3 87.89 L-137.4 88.33 L-137.8 87.36 L-138.2 86.4 L-138.7 85.43 L-139.1 84.46 L-139.5 83.5 L-140 82.53 L-140.4 81.56 L-140.9 80.6 L-141.3 79.63 L-141.7 78.66 L-142.2 77.7 L-142.6 76.73 L-143.1 75.76 L-143.5 74.8 L-143.9 73.83 L-144.4 72.86 L-144.8 71.9 L-145.3 70.93 L-145.7 69.96 L-146.1 68.99 L-146.6 68.03 L-147 67.06 L-147.5 66.09 L-147.9 65.13 L-148.3 64.16 L-148.8 63.19 L-149.2 62.23 L-149.6 61.26 L-150.1 60.29 L-150.5 59.33 L-151 58.36 L-151.4 57.39 L-151.8 56.43 L-152.3 55.46 L-152.7 54.49 L-153.2 53.52 L-153.6 52.56 L-154 51.59 L-154.5 50.62 L-154.9 49.66 L-155.4 48.69 L-155.8 47.72 L-156.2 46.76 L-156.7 45.79 L-157.1 44.82 L-157.6 43.86 L-158 42.89 L-158.4 41.92 L-158.9 40.96 L-159.3 39.99 L-159.7 39.02 L-160.2 38.06 L-160.6 37.09 Z " />
<path stroke="rgb(0,0,0)" stroke-opacity="1" fill="rgb(255,255,255)" fill-opacity="1" id="a5" d="M-62.4 134.3 L-62.51 136.7 L-62.82 138.8 L-63.33 140.8 L-64.03 142.7 L-64.92 144.4 L-65.97 145.8 L-67.18 147.2 L-68.54 148.3 L-70.05 149.2 L-71.69 150 L-73.45 150.5 L-75.33 150.8 L-77.32 150.9 L-79.4 150.9 L-81.57 150.5 L-83.81 150 L-86.13 149.2 L-88.5 148.2 L-90.29 147.4 L-92.04 146.4 L-93.76 145.3 L-95.43 144.1 L-97.07 142.8 L-98.65 141.5 L-100.2 140.1 L-101.7 138.6 L-103.1 137 L-104.4 135.4 L-105.7 133.7 L-107 132 L-108.1 130.3 L-109.2 128.5 L-110.1 126.7 L-111 124.9 L-111.8 123 L-112.5 121.2 L-113.2 119.3 L-113.7 117.4 L-114.1 115.6 L-114.4 113.7 L-114.5 111.9 L-114.6 110 L-114.5 107.7 L-114.2 105.6 L-113.7 103.6 L-113 101.7 L-112.1 100 L-111 98.56 L-109.8 97.25 L-108.5 96.12 L-107 95.19 L-105.3 94.45 L-103.5 93.91 L-101.7 93.58 L-99.68 93.45 L-97.6 93.54 L-95.43 93.85 L-93.19 94.39 L-90.87 95.15 L-88.5 96.15 L-86.71 97.04 L-84.96 98.03 L-83.24 99.12 L-81.57 100.3 L-79.93 101.6 L-78.35 102.9 L-76.81 104.3 L-75.33 105.8 L-73.91 107.4 L-72.56 109 L-71.27 110.7 L-70.05 112.4 L-68.91 114.1 L-67.84 115.9 L-66.86 117.7 L-65.97 119.5 L-65.16 121.4 L-64.45 123.2 L-63.84 125.1 L-63.33 127 L-62.93 128.8 L-62.64 130.7 L-62.46 132.5 L-62.4 134.3 Z " />
<path stroke="rgb(0,0,0)" stroke-opacity="1" fill="rgb(255,255,255)" fill-opacity="1" id="a17" d="M-96 -128.5 L-97.21 -127 L-98.42 -125.5 L-99.62 -124 L-100.8 -122.4 L-102 -120.9 L-103.2 -119.4 L-104.5 -117.8 L-105.7 -116.3 L-106.9 -114.8 L-108.1 -113.2 L-109.3 -111.7 L-110.5 -110.2 L-111.7 -108.7 L-109.9 -107.8 L-108 -106.9 L-106.2 -106.1 L-104.3 -105.2 L-102.5 -104.3 L-100.6 -103.5 L-98.77 -102.6 L-96.92 -101.7 L-95.08 -100.9 L-93.23 -100 L-91.38 -99.14 L-89.54 -98.27 L-87.69 -97.41 L-85.84 -96.54 L-83.99 -95.68 L-82.15 -94.81 L-80.3 -93.95 L-81.13 -95.77 L-81.95 -97.59 L-82.78 -99.41 L-83.61 -101.2 L-84.43 -103.1 L-85.26 -104.9 L-86.08 -106.7 L-86.91 -108.5 L-87.74 -110.3 L-88.56 -112.2 L-89.39 -114 L-90.22 -115.8 L-91.04 -117.6 L-91.87 -119.4 L-92.69 -121.3 L-93.52 -123.1 L-94.35 -124.9 L-95.17 -126.7 L-96 -128.5 Z " />
<path stroke="rgb(0,0,0)" stroke-opacity="1" fill="rgb(255,255,255)" fill-opacity="1" id="a16" d="M-96 -70.95 L-94.79 -72.48 L-93.58 -74.01 L-92.38 -75.54 L-91.17 -77.07 L-89.96 -78.6 L-88.75 -80.13 L-87.55 -81.67 L-86.34 -83.2 L-85.13 -84.73 L-83.92 -86.26 L-82.72 -87.79 L-81.51 -89.32 L-80.3 -90.85 L-82.15 -91.71 L-83.99 -92.57 L-85.84 -93.43 L-87.69 -94.29 L-89.54 -95.14 L-91.38 -96 L-93.23 -96.86 L-95.08 -97.72 L-96.92 -98.58 L-98.77 -99.44 L-100.6 -100.3 L-102.5 -101.2 L-104.3 -102 L-106.2 -102.9 L-108 -103.7 L-109.9 -104.6 L-111.7 -105.5 L-110.9 -103.6 L-110 -101.8 L-109.2 -100 L-108.4 -98.19 L-107.6 -96.37 L-106.7 -94.56 L-105.9 -92.74 L-105.1 -90.92 L-104.3 -89.11 L-103.4 -87.29 L-102.6 -85.48 L-101.8 -83.66 L-101 -81.84 L-100.1 -80.03 L-99.31 -78.21 L-98.48 -76.4 L-97.65 -74.58 L-96.83 -72.77 L-96 -70.95 Z " />
<path stroke="rgb(0,0,0)" stroke-opacity="1" fill="rgb(173,200,200)" fill-opacity="1" id="swap2" d="M-49.71 -63.2 L-49.96 -61.08 L-50.69 -59.37 L-51.82 -58.1 L-53.32 -57.3 L-55.12 -56.99 L-57.17 -57.22 L-59.41 -58 L-61.16 -58.97 L-62.81 -60.19 L-64.32 -61.62 L-65.67 -63.21 L-66.84 -64.92 L-67.79 -66.72 L-68.5 -68.56 L-68.95 -70.4 L-69.11 -72.2 L-68.85 -74.29 L-68.13 -75.99 L-66.99 -77.26 L-65.49 -78.07 L-63.69 -78.39 L-61.64 -78.18 L-59.41 -77.4 L-57.65 -76.43 L-56 -75.22 L-54.49 -73.81 L-53.14 -72.23 L-51.97 -70.52 L-51.02 -68.73 L-50.31 -66.88 L-49.86 -65.03 L-49.71 -63.2 Z " />
<path stroke="rgb(0,0,0)" stroke-opacity="1" fill="rgb(173,200,200)" fill-opacity="1" id="swap4" d="M-33.4 -40.98 L-33.65 -38.86 L-34.38 -37.15 L-35.52 -35.88 L-37.02 -35.08 L-38.82 -34.77 L-40.86 -35 L-43.1 -35.78 L-44.85 -36.75 L-46.5 -37.97 L-48.01 -39.4 L-49.37 -40.99 L-50.53 -42.7 L-51.49 -44.5 L-52.2 -46.34 L-52.65 -48.18 L-52.8 -49.98 L-52.55 -52.1 L-51.82 -53.81 L-50.68 -55.08 L-49.18 -55.88 L-47.38 -56.19 L-45.34 -55.96 L-43.1 -55.18 L-41.35 -54.21 L-39.7 -53 L-38.19 -51.59 L-36.83 -50.01 L-35.67 -48.3 L-34.71 -46.51 L-34 -44.66 L-33.55 -42.81 L-33.4 -40.98 Z " />
<path stroke="rgb(0,0,0)" stroke-opacity="1" fill="rgb(173,200,200)" fill-opacity="1" id="swap3" d="M-33.4 -69.32 L-33.65 -67.2 L-34.38 -65.49 L-35.52 -64.22 L-37.02 -63.42 L-38.82 -63.11 L-40.86 -63.34 L-43.1 -64.12 L-44.85 -65.09 L-46.5 -66.31 L-48.01 -67.73 L-49.37 -69.32 L-50.53 -71.04 L-51.49 -72.84 L-52.2 -74.68 L-52.65 -76.52 L-52.8 -78.32 L-52.55 -80.41 L-51.82 -82.11 L-50.68 -83.38 L-49.18 -84.19 L-47.38 -84.51 L-45.34 -84.3 L-43.1 -83.52 L-41.35 -82.55 L-39.7 -81.34 L-38.19 -79.93 L-36.83 -78.35 L-35.67 -76.64 L-34.71 -74.84 L-34 -73 L-33.55 -71.15 L-33.4 -69.32 Z " />
<path stroke="rgb(0,0,0)" stroke-opacity="1" fill="rgb(173,200,200)" fill-opacity="1" id="swap1" d="M-16.69 -48.1 L-16.95 -45.98 L-17.67 -44.27 L-18.81 -43 L-20.31 -42.2 L-22.11 -41.89 L-24.16 -42.12 L-26.39 -42.9 L-28.15 -43.87 L-29.8 -45.09 L-31.31 -46.51 L-32.66 -48.1 L-33.83 -49.82 L-34.78 -51.62 L-35.49 -53.46 L-35.94 -55.3 L-36.09 -57.1 L-35.84 -59.19 L-35.11 -60.88 L-33.98 -62.16 L-32.48 -62.97 L-30.68 -63.29 L-28.63 -63.08 L-26.39 -62.3 L-24.64 -61.33 L-22.99 -60.11 L-21.48 -58.68 L-20.13 -57.09 L-18.96 -55.38 L-18.01 -53.58 L-17.3 -51.74 L-16.85 -49.9 L-16.69 -48.1 Z " />
<path stroke="rgb(0,0,0)" stroke-opacity="1" fill="rgb(255,255,255)" fill-opacity="1" id="secscl1" d="M-4.762 125.1 L-5.714 124.7 L-6.665 124.2 L-7.616 123.8 L-8.568 123.3 L-9.519 122.9 L-10.47 122.5 L-11.42 122 L-12.37 121.6 L-13.32 121.1 L-14.28 120.7 L-15.23 120.2 L-16.18 119.8 L-17.13 119.4 L-18.08 118.9 L-18.74 119.8 L-19.4 120.6 L-20.06 121.4 L-20.72 122.3 L-21.39 123.1 L-22.05 124 L-22.71 124.8 L-23.37 125.6 L-24.03 126.5 L-24.69 127.3 L-24.28 128.2 L-23.86 129.1 L-23.45 130 L-23.04 131 L-22.62 131.9 L-22.21 132.8 L-21.8 133.7 L-21.39 134.6 L-20.97 135.5 L-20.56 136.4 L-20.15 137.3 L-19.73 138.2 L-19.32 139.1 L-18.91 140.1 L-18.49 141 L-18.08 141.9 L-17.13 142.3 L-16.18 142.7 L-15.23 143.2 L-14.28 143.6 L-13.32 144.1 L-12.37 144.5 L-11.42 144.9 L-10.47 145.4 L-9.519 145.8 L-8.568 146.3 L-7.616 146.7 L-6.665 147.1 L-5.714 147.6 L-4.762 148 L-4.101 147.2 L-3.441 146.3 L-2.78 145.5 L-2.119 144.7 L-1.458 143.8 L-0.7973 143 L-0.1365 142.2 L0.5243 141.3 L1.185 140.5 L1.846 139.7 L1.433 138.8 L1.02 137.8 L0.6069 136.9 L0.1939 136 L-0.2191 135.1 L-0.6321 134.2 L-1.045 133.3 L-1.458 132.4 L-1.871 131.5 L-2.284 130.6 L-2.697 129.7 L-3.11 128.8 L-3.523 127.8 L-3.936 126.9 L-4.349 126 L-4.762 125.1 Z " />
</g>
</g>
</svg>
