<!DOCTYPE svg>
<svg xmlns="http://www.w3.org/2000/svg" xmlns:xlink="http://www.w3.org/1999/xlink" width="1080" height="1080">
<g transform="translate(540.000000,540.000000)">
<g transform="scale(2,2)">
<path stroke="rgb(0,0,0)" stroke-opacity="1" fill="rgb(148,200,200)" fill-opacity="1" id="bb1_2_" d="M-93.65 -52.87 L-94.43 -51.05 L-95.22 -49.23 L-96.01 -47.4 L-96.79 -45.58 L-97.58 -43.75 L-98.37 -41.93 L-99.15 -40.1 L-99.94 -38.28 L-100.7 -36.46 L-101.5 -34.63 L-102.3 -32.81 L-103.1 -30.98 L-103.9 -29.16 L-104.7 -27.33 L-105.4 -25.51 L-106.2 -23.69 L-107 -21.86 L-107.8 -20.04 L-108.6 -18.21 L-109.4 -16.39 L-110.2 -14.56 L-111 -12.74 L-111.7 -10.92 L-112.5 -9.092 L-113.3 -7.267 L-114.1 -5.443 L-114.9 -3.619 L-115.7 -1.795 L-116.5 0.02964 L-118.5 0.04446 L-120.5 0.05929 L-122.5 0.07411 L-124.5 0.08893 L-126.5 0.1038 L-128.5 0.1186 L-130.5 0.1334 L-132.5 0.1482 L-134.5 0.163 L-136.5 0.1779 L-138.5 0.1927 L-140.5 0.2075 L-142.6 0.2223 L-144.6 0.2372 L-146.6 0.252 L-148.6 0.2668 L-150.6 0.2816 L-152.6 0.2965 L-154.6 0.3113 L-156.6 0.3261 L-158.6 0.3409 L-160.6 0.3557 L-162.6 0.3706 L-164.6 0.3854 L-166.6 0.4002 L-168.7 0.415 L-170.7 0.4299 L-169.9 -1.394 L-169.1 -3.219 L-168.3 -5.043 L-167.5 -6.867 L-166.7 -8.691 L-165.9 -10.52 L-165.2 -12.34 L-164.4 -14.16 L-163.6 -15.99 L-162.8 -17.81 L-162 -19.64 L-161.2 -21.46 L-160.4 -23.29 L-159.6 -25.11 L-158.9 -26.93 L-158.1 -28.76 L-157.3 -30.58 L-156.5 -32.41 L-155.7 -34.23 L-154.9 -36.06 L-154.1 -37.88 L-153.4 -39.7 L-152.6 -41.53 L-151.8 -43.35 L-151 -45.18 L-150.2 -47 L-149.4 -48.83 L-148.6 -50.65 L-147.8 -52.47 L-145.8 -52.49 L-143.8 -52.5 L-141.8 -52.52 L-139.8 -52.53 L-137.8 -52.55 L-135.8 -52.56 L-133.8 -52.58 L-131.8 -52.59 L-129.8 -52.61 L-127.8 -52.62 L-125.8 -52.64 L-123.8 -52.65 L-121.8 -52.67 L-119.7 -52.68 L-117.7 -52.7 L-115.7 -52.71 L-113.7 -52.73 L-111.7 -52.74 L-109.7 -52.76 L-107.7 -52.77 L-105.7 -52.79 L-103.7 -52.8 L-101.7 -52.81 L-99.67 -52.83 L-97.66 -52.84 L-95.66 -52.86 L-93.65 -52.87 Z " />
<path stroke="rgb(0,0,0)" stroke-opacity="1" fill="rgb(236,216,157)" fill-opacity="1" id="pr2_1_" d="M72.7 104.7 L70.94 103.8 L69.18 102.9 L67.41 102 L65.65 101.1 L63.89 100.2 L62.12 99.25 L60.36 98.35 L58.59 97.45 L58.62 95.52 L58.65 93.59 L58.68 91.66 L58.71 89.73 L58.74 87.8 L58.77 85.87 L58.79 83.94 L60.55 84.83 L62.3 85.72 L64.05 86.61 L65.8 87.49 L67.55 88.38 L69.3 89.27 L71.05 90.16 L72.8 91.05 L72.79 92.99 L72.78 94.94 L72.76 96.88 L72.75 98.82 L72.73 100.8 L72.72 102.7 L72.7 104.7 Z " />
<path stroke="rgb(0,0,0)" stroke-opacity="1" fill="rgb(236,216,157)" fill-opacity="1" id="pr1_1_" d="M54.92 96.08 L53.16 95.17 L51.41 94.27 L49.65 93.37 L47.9 92.47 L46.14 91.56 L44.39 90.66 L42.64 89.76 L40.88 88.86 L40.9 86.92 L40.91 84.99 L40.92 83.06 L40.94 81.12 L40.95 79.19 L40.97 77.26 L40.98 75.32 L42.74 76.22 L44.49 77.13 L46.24 78.03 L48 78.93 L49.75 79.83 L51.51 80.74 L53.26 81.64 L55.02 82.54 L55 84.47 L54.99 86.41 L54.97 88.34 L54.96 90.28 L54.95 92.21 L54.93 94.14 L54.92 96.08 Z " />
<path stroke="rgb(0,0,0)" stroke-opacity="1" fill="rgb(236,216,157)" fill-opacity="1" id="pr3_1_" d="M54.6 113.6 L52.85 112.7 L51.1 111.8 L49.35 110.9 L47.6 110 L45.85 109.1 L44.1 108.1 L42.35 107.2 L40.6 106.3 L40.61 104.4 L40.63 102.5 L40.64 100.6 L40.66 98.64 L40.67 96.71 L40.69 94.78 L40.7 92.85 L42.45 93.75 L44.2 94.65 L45.95 95.55 L47.7 96.45 L49.45 97.35 L51.2 98.25 L52.95 99.15 L54.7 100.1 L54.69 102 L54.67 103.9 L54.66 105.8 L54.64 107.8 L54.63 109.7 L54.61 111.6 L54.6 113.6 Z " />
<path stroke="rgb(0,0,0)" stroke-opacity="1" fill="rgb(236,216,157)" fill-opacity="1" id="pr4_1_" d="M72.3 121.7 L70.54 120.9 L68.77 120 L67.01 119.1 L65.25 118.2 L63.49 117.3 L61.73 116.4 L59.96 115.5 L58.2 114.6 L58.21 112.7 L58.23 110.8 L58.24 108.9 L58.26 106.9 L58.27 105 L58.29 103.1 L58.3 101.1 L60.06 102 L61.82 102.9 L63.59 103.8 L65.35 104.7 L67.11 105.6 L68.87 106.5 L70.64 107.4 L72.4 108.2 L72.39 110.2 L72.37 112.1 L72.36 114 L72.34 116 L72.33 117.9 L72.31 119.8 L72.3 121.7 Z " />
<path stroke="rgb(0,0,0)" stroke-opacity="1" fill="rgb(238,200,200)" fill-opacity="1" id="ll1_1_" d="M168.9 141.9 L166.2 140.6 L163.6 139.4 L161 138.2 L158.4 137 L155.8 135.7 L153.2 134.5 L150.5 133.3 L147.9 132.1 L145.3 130.9 L142.7 129.6 L140.1 128.4 L137.4 127.2 L134.8 126 L132.2 124.7 L129.6 123.5 L127 122.3 L127 119.4 L127 116.4 L127 113.5 L127 110.6 L127 107.7 L127 104.8 L127 101.8 L127 98.93 L127 96.01 L127 93.09 L127 90.17 L127 87.25 L127 84.33 L127 81.41 L129.6 82.64 L132.2 83.87 L134.8 85.1 L137.4 86.34 L140.1 87.57 L142.7 88.8 L145.3 90.03 L147.9 91.27 L150.5 92.5 L153.2 93.73 L155.8 94.97 L158.4 96.2 L161 97.43 L163.6 98.66 L166.2 99.9 L168.9 101.1 L168.9 104 L168.9 106.9 L168.9 109.9 L168.9 112.8 L168.9 115.7 L168.9 118.6 L168.9 121.5 L168.9 124.4 L168.9 127.3 L168.9 130.2 L168.9 133.1 L168.9 136 L168.9 139 L168.9 141.9 Z " />
<path stroke="rgb(0,0,0)" stroke-opacity="1" fill="rgb(255,255,255)" fill-opacity="1" id="cl1_1_" d="M19.4 100.6 L20.95 101.9 L22.49 103.2 L24.04 104.5 L25.58 105.8 L27.12 107.1 L28.67 108.3 L30.21 109.6 L31.76 110.9 L33.3 112.2 L34.84 113.5 L36.39 114.8 L37.93 116.1 L39.48 117.4 L41.02 118.7 L42.57 120 L42.18 122 L40.64 120.7 L39.1 119.4 L37.56 118.1 L36.02 116.8 L34.48 115.5 L32.94 114.2 L31.4 112.8 L29.86 111.5 L28.33 110.2 L26.79 108.9 L25.25 107.6 L23.71 106.3 L22.17 105 L20.63 103.7 L19.09 102.4 L19.4 100.6 Z " />
<path stroke="rgb(0,0,0)" stroke-opacity="1" fill="rgb(255,255,255)" fill-opacity="1" id="a5_2_" d="M206 -50.75 L204.1 -51.59 L202.2 -52.44 L200.3 -53.28 L198.5 -54.12 L196.6 -54.96 L194.7 -55.81 L192.8 -56.65 L190.9 -57.49 L189 -58.34 L187.1 -59.18 L185.3 -60.02 L183.4 -60.86 L181.5 -61.71 L179.6 -62.55 L179.6 -60.6 L179.6 -58.64 L179.6 -56.69 L179.6 -54.73 L179.6 -52.78 L179.6 -50.83 L179.6 -48.87 L179.6 -46.92 L179.6 -44.97 L179.6 -43.01 L179.6 -41.06 L179.6 -39.1 L179.6 -37.15 L181.5 -36.31 L183.4 -35.46 L185.3 -34.62 L187.1 -33.78 L189 -32.94 L190.9 -32.09 L192.8 -31.25 L194.7 -30.41 L196.6 -29.56 L198.5 -28.72 L200.3 -27.88 L202.2 -27.04 L204.1 -26.19 L206 -25.35 L206 -27.3 L206 -29.26 L206 -31.21 L206 -33.17 L206 -35.12 L206 -37.07 L206 -39.03 L206 -40.98 L206 -42.93 L206 -44.89 L206 -46.84 L206 -48.8 L206 -50.75 Z " />
<path stroke="rgb(0,0,0)" stroke-opacity="1" fill="rgb(255,255,255)" fill-opacity="1" id="a6_2_" d="M83.3 51.45 L81.52 50.62 L79.75 49.79 L77.97 48.96 L76.19 48.13 L74.42 47.3 L72.64 46.47 L70.86 45.64 L69.09 44.81 L67.31 43.99 L65.54 43.16 L63.76 42.33 L61.98 41.5 L60.21 40.67 L58.43 39.84 L56.65 39.01 L54.88 38.18 L53.1 37.35 L53.1 35.25 L53.1 33.15 L53.1 31.05 L53.1 28.95 L53.1 26.85 L53.1 24.75 L53.1 22.65 L53.1 20.55 L53.1 18.45 L53.1 16.35 L54.87 17.18 L56.64 18.01 L58.41 18.84 L60.18 19.67 L61.95 20.5 L63.72 21.33 L65.49 22.16 L67.26 22.99 L69.04 23.81 L70.81 24.64 L72.58 25.47 L74.35 26.3 L76.12 27.13 L77.89 27.96 L79.66 28.79 L81.43 29.62 L83.2 30.45 L83.21 32.36 L83.22 34.27 L83.23 36.18 L83.24 38.09 L83.25 40 L83.25 41.9 L83.26 43.81 L83.27 45.72 L83.28 47.63 L83.29 49.54 L83.3 51.45 Z " />
<path stroke="rgb(0,0,0)" stroke-opacity="1" fill="rgb(148,200,200)" fill-opacity="1" id="rtr1_2_" d="M61.67 -140.5 L63.52 -139.6 L65.37 -138.7 L67.23 -137.8 L69.08 -136.9 L70.93 -136 L72.79 -135.1 L72.77 -133 L72.75 -130.9 L72.73 -128.8 L72.71 -126.6 L72.69 -124.5 L70.82 -125.4 L68.95 -126.3 L67.08 -127.2 L65.21 -128.1 L63.34 -129 L61.47 -129.9 L61.51 -132 L61.55 -134.1 L61.59 -136.2 L61.63 -138.4 L61.67 -140.5 Z " />
<path stroke="rgb(0,0,0)" stroke-opacity="1" fill="rgb(238,200,200)" fill-opacity="1" id="sg1_2_" d="M73.99 114.4 L75.69 113.7 L77.39 113.1 L79.09 112.4 L80.78 111.7 L82.48 111 L84.18 110.3 L85.76 111.7 L87.34 113.1 L88.92 114.5 L90.5 115.8 L88.81 116.5 L87.11 117.2 L85.42 117.9 L83.72 118.7 L82.02 119.4 L80.33 120.1 L78.74 118.7 L77.16 117.2 L75.58 115.8 L73.99 114.4 Z " />
<path stroke="rgb(0,0,0)" stroke-opacity="1" fill="rgb(255,255,255)" fill-opacity="1" id="a12_2_" d="M-54.8 88.45 L-56.68 87.63 L-58.57 86.82 L-60.45 86 L-62.33 85.18 L-64.22 84.37 L-66.1 83.55 L-66.12 81.62 L-66.13 79.68 L-66.15 77.75 L-66.17 75.82 L-66.18 73.88 L-66.2 71.95 L-64.33 72.77 L-62.47 73.58 L-60.6 74.4 L-58.73 75.22 L-56.87 76.03 L-55 76.85 L-54.97 78.78 L-54.93 80.72 L-54.9 82.65 L-54.87 84.58 L-54.83 86.52 L-54.8 88.45 Z " />
<path stroke="rgb(0,0,0)" stroke-opacity="1" fill="rgb(255,255,255)" fill-opacity="1" id="secscl1_2_" d="M-30.97 30.43 L-32.11 29.89 L-33.24 29.35 L-34.38 28.81 L-35.52 28.26 L-36.66 27.72 L-37.8 27.18 L-38.94 26.64 L-40.07 26.09 L-40.07 24.87 L-40.07 23.64 L-40.07 22.41 L-40.07 21.19 L-40.07 19.96 L-40.07 18.73 L-40.07 17.51 L-40.07 16.28 L-40.07 15.05 L-40.07 13.83 L-40.07 12.6 L-40.07 11.37 L-40.07 10.15 L-40.07 8.92 L-40.07 7.694 L-40.07 6.467 L-40.07 5.24 L-40.07 4.013 L-40.07 2.787 L-40.07 1.56 L-40.07 0.3332 L-40.07 -0.8935 L-40.07 -2.12 L-40.07 -3.347 L-40.07 -4.574 L-40.07 -5.8 L-40.07 -7.027 L-40.07 -8.254 L-40.07 -9.481 L-40.07 -10.71 L-40.07 -11.93 L-40.07 -13.16 L-40.07 -14.39 L-40.07 -15.61 L-40.07 -16.84 L-40.07 -18.07 L-40.07 -19.29 L-40.07 -20.52 L-40.07 -21.75 L-40.07 -22.97 L-38.94 -22.42 L-37.8 -21.88 L-36.66 -21.33 L-35.52 -20.78 L-34.38 -20.23 L-33.24 -19.68 L-32.11 -19.13 L-30.97 -18.58 L-30.97 -17.35 L-30.97 -16.13 L-30.97 -14.9 L-30.97 -13.68 L-30.97 -12.45 L-30.97 -11.22 L-30.97 -10 L-30.97 -8.774 L-30.97 -7.549 L-30.97 -6.324 L-30.97 -5.099 L-30.97 -3.874 L-30.97 -2.648 L-30.97 -1.423 L-30.97 -0.198 L-30.97 1.027 L-30.97 2.252 L-30.97 3.478 L-30.97 4.703 L-30.97 5.928 L-30.97 7.153 L-30.97 8.378 L-30.97 9.603 L-30.97 10.83 L-30.97 12.05 L-30.97 13.28 L-30.97 14.5 L-30.97 15.73 L-30.97 16.95 L-30.97 18.18 L-30.97 19.41 L-30.97 20.63 L-30.97 21.86 L-30.97 23.08 L-30.97 24.31 L-30.97 25.53 L-30.97 26.76 L-30.97 27.98 L-30.97 29.21 L-30.97 30.43 Z " />
<path stroke="rgb(0,0,0)" stroke-opacity="1" fill="rgb(255,255,255)" fill-opacity="1" id="a7_1_" d="M141.3 -84.25 L139.4 -85.05 L137.6 -85.85 L135.7 -86.65 L133.8 -87.45 L132 -88.25 L130.1 -89.05 L128.3 -89.85 L126.4 -90.65 L124.5 -91.45 L122.7 -92.25 L120.8 -93.05 L120.8 -95.03 L120.8 -97.02 L120.8 -99 L120.8 -101 L120.8 -103 L120.8 -105 L122.7 -104.1 L124.5 -103.3 L126.4 -102.5 L128.3 -101.7 L130.1 -100.9 L132 -100 L133.8 -99.22 L135.7 -98.4 L137.6 -97.59 L139.4 -96.77 L141.3 -95.95 L141.3 -94 L141.3 -92.05 L141.3 -90.1 L141.3 -88.15 L141.3 -86.2 L141.3 -84.25 Z " />
<path stroke="rgb(0,0,0)" stroke-opacity="1" fill="rgb(255,255,255)" fill-opacity="1" id="a8_1_" d="M141.2 -69.95 L139.3 -70.76 L137.5 -71.57 L135.6 -72.38 L133.7 -73.19 L131.9 -74 L130 -74.8 L128.2 -75.61 L126.3 -76.42 L124.4 -77.23 L122.6 -78.04 L120.7 -78.85 L120.7 -80.82 L120.7 -82.78 L120.7 -84.75 L120.7 -86.72 L120.7 -88.68 L120.7 -90.65 L122.6 -89.85 L124.4 -89.05 L126.3 -88.25 L128.2 -87.45 L130.1 -86.65 L131.9 -85.85 L133.8 -85.05 L135.7 -84.25 L137.6 -83.45 L139.4 -82.65 L141.3 -81.85 L141.3 -79.87 L141.3 -77.88 L141.2 -75.9 L141.2 -73.92 L141.2 -71.93 L141.2 -69.95 Z " />
<path stroke="rgb(0,0,0)" stroke-opacity="1" fill="rgb(255,255,255)" fill-opacity="1" id="a9_1_" d="M134.2 -61.55 L132.3 -62.35 L130.4 -63.15 L128.5 -63.95 L126.5 -64.75 L124.6 -65.55 L122.7 -66.35 L120.8 -67.15 L120.8 -68.95 L120.8 -70.75 L120.7 -72.55 L120.7 -74.35 L120.7 -76.15 L122.6 -75.34 L124.5 -74.52 L126.4 -73.71 L128.4 -72.89 L130.3 -72.08 L132.2 -71.26 L134.1 -70.45 L134.1 -68.23 L134.2 -66 L134.2 -63.77 L134.2 -61.55 Z " />
<path stroke="rgb(0,0,0)" stroke-opacity="1" fill="rgb(255,255,255)" fill-opacity="1" id="a17_1_" d="M34.5 62.65 L32.73 61.71 L30.95 60.78 L29.18 59.84 L27.41 58.9 L25.64 57.97 L23.86 57.03 L22.09 56.1 L20.32 55.16 L18.55 54.22 L16.77 53.29 L15 52.35 L15 50.33 L15 48.32 L15 46.3 L15 44.28 L15 42.27 L15 40.25 L16.77 41.19 L18.55 42.12 L20.32 43.06 L22.09 44 L23.86 44.93 L25.64 45.87 L27.41 46.8 L29.18 47.74 L30.95 48.68 L32.73 49.61 L34.5 50.55 L34.5 52.57 L34.5 54.58 L34.5 56.6 L34.5 58.62 L34.5 60.63 L34.5 62.65 Z " />
<path stroke="rgb(0,0,0)" stroke-opacity="1" fill="rgb(255,255,255)" fill-opacity="1" id="a16_1_" d="M34.5 79.85 L32.73 78.95 L30.95 78.05 L29.18 77.15 L27.41 76.25 L25.64 75.35 L23.86 74.45 L22.09 73.55 L20.32 72.65 L18.55 71.75 L16.77 70.85 L15 69.95 L15 67.98 L15 66.02 L15 64.05 L15 62.08 L15 60.12 L15 58.15 L16.77 59.05 L18.55 59.95 L20.32 60.85 L22.09 61.75 L23.86 62.65 L25.64 63.55 L27.41 64.45 L29.18 65.35 L30.95 66.25 L32.73 67.15 L34.5 68.05 L34.5 70.02 L34.5 71.98 L34.5 73.95 L34.5 75.92 L34.5 77.88 L34.5 79.85 Z " />
<path stroke="rgb(0,0,0)" stroke-opacity="1" fill="rgb(236,216,157)" fill-opacity="1" id="scltrs1_1_" d="M-31.48 50.43 L-32.39 49.95 L-33.31 49.47 L-34.22 49 L-35.14 48.52 L-36.06 48.04 L-36.97 47.56 L-37.89 47.08 L-37.89 46.03 L-37.89 44.99 L-37.89 43.95 L-37.89 42.91 L-37.89 41.86 L-37.89 40.82 L-36.97 41.3 L-36.06 41.78 L-35.14 42.26 L-34.22 42.74 L-33.31 43.22 L-32.39 43.69 L-31.48 44.17 L-31.48 45.22 L-31.48 46.26 L-31.48 47.3 L-31.48 48.35 L-31.48 49.39 L-31.48 50.43 Z " />
<path stroke="rgb(0,0,0)" stroke-opacity="1" fill="rgb(244,227,211)" fill-opacity="1" id="a15_1_" d="M119.3 1.25 L117.4 0.3875 L115.6 -0.475 L113.7 -1.338 L111.8 -2.2 L110 -3.063 L108.1 -3.925 L106.3 -4.788 L104.4 -5.65 L104.4 -7.57 L104.4 -9.49 L104.4 -11.41 L104.4 -13.33 L104.4 -15.25 L106.3 -14.38 L108.1 -13.5 L110 -12.63 L111.8 -11.75 L113.7 -10.88 L115.6 -10 L117.4 -9.125 L119.3 -8.25 L119.3 -6.35 L119.3 -4.45 L119.3 -2.55 L119.3 -0.65 L119.3 1.25 Z " />
<path stroke="rgb(0,0,0)" stroke-opacity="1" fill="rgb(244,227,211)" fill-opacity="1" id="a14_1_" d="M117.2 9.75 L115.4 8.893 L113.5 8.036 L111.7 7.179 L109.8 6.321 L108 5.464 L106.1 4.607 L104.3 3.75 L104.3 1.817 L104.4 -0.1167 L104.4 -2.05 L106.2 -1.164 L108.1 -0.2786 L109.9 0.6071 L111.7 1.493 L113.5 2.379 L115.4 3.264 L117.2 4.15 L117.2 6.017 L117.2 7.883 L117.2 9.75 Z " />
<path stroke="rgb(0,0,0)" stroke-opacity="1" fill="rgb(244,227,211)" fill-opacity="1" id="a13_1_" d="M115 29.65 L113.2 28.82 L111.4 27.98 L109.6 27.15 L107.9 26.32 L106.1 25.48 L104.3 24.65 L104.3 22.59 L104.3 20.52 L104.3 18.46 L104.3 16.4 L104.3 14.34 L104.3 12.27 L104.3 10.21 L104.3 8.15 L106.1 8.983 L107.9 9.817 L109.6 10.65 L111.4 11.48 L113.2 12.32 L115 13.15 L115 15.21 L115 17.27 L115 19.34 L115 21.4 L115 23.46 L115 25.52 L115 27.59 L115 29.65 Z " />
<path stroke="rgb(0,0,0)" stroke-opacity="1" fill="rgb(200,200,200)" fill-opacity="1" id="a1_2_" d="M-110.5 -73.45 L-112.2 -74.33 L-114 -75.2 L-115.7 -76.08 L-117.5 -76.96 L-119.2 -77.84 L-121 -78.71 L-122.7 -79.59 L-124.5 -80.47 L-126.2 -81.35 L-128 -82.22 L-129.8 -83.1 L-131.5 -83.98 L-133.3 -84.85 L-135 -85.73 L-136.8 -86.61 L-138.5 -87.49 L-140.3 -88.36 L-142 -89.24 L-143.8 -90.12 L-145.5 -91 L-147.3 -91.87 L-149 -92.75 L-149 -94.61 L-149 -96.47 L-149 -98.33 L-149 -100.2 L-149 -102 L-147.3 -101.2 L-145.5 -100.3 L-143.8 -99.4 L-142 -98.52 L-140.3 -97.64 L-138.5 -96.76 L-136.8 -95.88 L-135 -95 L-133.3 -94.11 L-131.5 -93.23 L-129.8 -92.35 L-128 -91.47 L-126.2 -90.59 L-124.5 -89.7 L-122.7 -88.82 L-121 -87.94 L-119.2 -87.06 L-117.5 -86.18 L-115.7 -85.3 L-114 -84.41 L-112.2 -83.53 L-110.5 -82.65 L-110.5 -80.81 L-110.5 -78.97 L-110.5 -77.13 L-110.5 -75.29 L-110.5 -73.45 Z " />
<path stroke="rgb(0,0,0)" stroke-opacity="1" fill="rgb(200,200,200)" fill-opacity="1" id="a4_2_" d="M-89.9 -108.2 L-91.69 -109 L-93.49 -109.9 L-95.28 -110.8 L-97.08 -111.7 L-98.87 -112.6 L-100.7 -113.5 L-102.5 -114.4 L-104.3 -115.3 L-106 -116.2 L-107.8 -117.1 L-109.6 -118 L-111.4 -118.9 L-113.2 -119.8 L-115 -120.7 L-116.8 -121.6 L-118.6 -122.5 L-120.4 -123.3 L-122.2 -124.2 L-124 -125.1 L-125.8 -126 L-127.6 -126.9 L-129.4 -127.8 L-131.2 -128.7 L-133 -129.6 L-134.7 -130.5 L-136.5 -131.4 L-138.3 -132.3 L-140.1 -133.2 L-141.9 -134.1 L-143.7 -135 L-145.5 -135.9 L-147.3 -136.8 L-149.1 -137.7 L-149.1 -139.7 L-149.1 -141.7 L-149.1 -143.7 L-149.1 -145.7 L-149.1 -147.7 L-149.1 -149.7 L-149.1 -151.8 L-147.3 -150.9 L-145.5 -150 L-143.7 -149.1 L-141.9 -148.2 L-140.1 -147.3 L-138.3 -146.4 L-136.5 -145.5 L-134.7 -144.6 L-133 -143.7 L-131.2 -142.8 L-129.4 -142 L-127.6 -141.1 L-125.8 -140.2 L-124 -139.3 L-122.2 -138.4 L-120.4 -137.5 L-118.6 -136.6 L-116.8 -135.7 L-115 -134.8 L-113.2 -133.9 L-111.4 -133 L-109.6 -132.2 L-107.8 -131.3 L-106 -130.4 L-104.3 -129.5 L-102.5 -128.6 L-100.7 -127.7 L-98.87 -126.8 L-97.08 -125.9 L-95.28 -125 L-93.49 -124.1 L-91.69 -123.2 L-89.9 -122.3 L-89.9 -120.3 L-89.9 -118.3 L-89.9 -116.3 L-89.9 -114.2 L-89.9 -112.2 L-89.9 -110.2 L-89.9 -108.2 Z " />
<path stroke="rgb(0,0,0)" stroke-opacity="1" fill="rgb(200,200,200)" fill-opacity="1" id="a2_1_" d="M-109.1 -87.55 L-110.9 -88.45 L-112.7 -89.36 L-114.6 -90.26 L-116.4 -91.17 L-118.2 -92.07 L-120 -92.98 L-121.8 -93.88 L-123.6 -94.79 L-125.5 -95.69 L-127.3 -96.6 L-129.1 -97.5 L-130.9 -98.4 L-132.7 -99.31 L-134.6 -100.2 L-136.4 -101.1 L-138.2 -102 L-140 -102.9 L-141.8 -103.8 L-143.6 -104.7 L-145.5 -105.6 L-147.3 -106.5 L-149.1 -107.5 L-149.1 -109.4 L-149.1 -111.3 L-149.1 -113.3 L-149.1 -115.2 L-149.1 -117.2 L-147.3 -116.2 L-145.5 -115.3 L-143.6 -114.4 L-141.8 -113.5 L-140 -112.6 L-138.2 -111.7 L-136.4 -110.8 L-134.6 -109.9 L-132.7 -109 L-130.9 -108.1 L-129.1 -107.2 L-127.3 -106.2 L-125.5 -105.3 L-123.6 -104.4 L-121.8 -103.5 L-120 -102.6 L-118.2 -101.7 L-116.4 -100.8 L-114.6 -99.88 L-112.7 -98.97 L-110.9 -98.06 L-109.1 -97.15 L-109.1 -95.23 L-109.1 -93.31 L-109.1 -91.39 L-109.1 -89.47 L-109.1 -87.55 Z " />
<path stroke="rgb(0,0,0)" stroke-opacity="1" fill="rgb(200,200,200)" fill-opacity="1" id="a3_1_" d="M-105.8 -101.2 L-107.6 -102 L-109.4 -102.9 L-111.2 -103.8 L-113 -104.7 L-114.8 -105.6 L-116.6 -106.5 L-118.4 -107.4 L-120.2 -108.3 L-122 -109.2 L-123.8 -110.1 L-125.6 -111 L-127.4 -111.8 L-129.3 -112.7 L-131.1 -113.6 L-132.9 -114.5 L-134.7 -115.4 L-136.5 -116.3 L-138.3 -117.2 L-140.1 -118.1 L-141.9 -119 L-143.7 -119.9 L-145.5 -120.8 L-147.3 -121.7 L-149.1 -122.5 L-149.1 -124.6 L-149.1 -126.7 L-149.1 -128.8 L-149.1 -130.9 L-149.1 -133 L-147.3 -132.1 L-145.5 -131.2 L-143.7 -130.3 L-141.9 -129.4 L-140.1 -128.5 L-138.3 -127.6 L-136.5 -126.7 L-134.7 -125.8 L-132.9 -124.9 L-131.1 -124 L-129.3 -123.1 L-127.4 -122.3 L-125.6 -121.4 L-123.8 -120.5 L-122 -119.6 L-120.2 -118.7 L-118.4 -117.8 L-116.6 -116.9 L-114.8 -116 L-113 -115.1 L-111.2 -114.2 L-109.4 -113.3 L-107.6 -112.4 L-105.8 -111.5 L-105.8 -109.5 L-105.8 -107.4 L-105.8 -105.3 L-105.8 -103.2 L-105.8 -101.2 Z " />
<path stroke="rgb(0,0,0)" stroke-opacity="1" fill="rgb(244,227,211)" fill-opacity="1" id="a11_1_" d="M-15.3 70.85 L-17.12 70.04 L-18.94 69.23 L-20.76 68.42 L-22.57 67.61 L-24.39 66.79 L-26.21 65.98 L-28.03 65.17 L-29.85 64.36 L-31.67 63.55 L-33.49 62.74 L-35.3 61.93 L-37.12 61.12 L-38.94 60.31 L-40.76 59.49 L-42.58 58.68 L-44.4 57.87 L-46.21 57.06 L-48.03 56.25 L-49.85 55.44 L-51.67 54.63 L-53.49 53.82 L-55.31 53.01 L-57.13 52.19 L-58.94 51.38 L-60.76 50.57 L-62.58 49.76 L-64.4 48.95 L-64.45 47 L-64.5 45.05 L-62.68 45.86 L-60.86 46.68 L-59.04 47.49 L-57.23 48.31 L-55.41 49.12 L-53.59 49.94 L-51.77 50.75 L-49.95 51.57 L-48.13 52.38 L-46.31 53.2 L-44.5 54.01 L-42.68 54.83 L-40.86 55.64 L-39.04 56.46 L-37.22 57.27 L-35.4 58.09 L-33.59 58.9 L-31.77 59.72 L-29.95 60.53 L-28.13 61.35 L-26.31 62.16 L-24.49 62.98 L-22.67 63.79 L-20.86 64.61 L-19.04 65.42 L-17.22 66.24 L-15.4 67.05 L-15.35 68.95 L-15.3 70.85 Z " />
<path stroke="rgb(0,0,0)" stroke-opacity="1" fill="rgb(244,200,200)" fill-opacity="1" id="fus1_1_" d="M-100.5 51.95 L-102.3 51.19 L-104.1 50.43 L-105.9 49.67 L-107.7 48.91 L-109.5 48.15 L-109.5 46.29 L-109.5 44.43 L-109.5 42.57 L-109.5 40.71 L-109.5 38.85 L-107.7 39.61 L-105.9 40.37 L-104.1 41.13 L-102.3 41.89 L-100.5 42.65 L-100.5 44.51 L-100.5 46.37 L-100.5 48.23 L-100.5 50.09 L-100.5 51.95 Z " />
<path stroke="rgb(0,0,0)" stroke-opacity="1" fill="rgb(244,200,200)" fill-opacity="1" id="fus2_1_" d="M-91.5 55.95 L-93.3 55.17 L-95.1 54.39 L-96.9 53.61 L-98.7 52.83 L-100.5 52.05 L-100.5 50.17 L-100.4 48.29 L-100.4 46.41 L-100.3 44.53 L-100.3 42.65 L-98.54 43.41 L-96.78 44.17 L-95.02 44.93 L-93.26 45.69 L-91.5 46.45 L-91.5 48.35 L-91.5 50.25 L-91.5 52.15 L-91.5 54.05 L-91.5 55.95 Z " />
<path stroke="rgb(0,0,0)" stroke-opacity="1" fill="rgb(244,200,200)" fill-opacity="1" id="fus3_1_" d="M-95.6 56.45 L-97.38 55.69 L-99.16 54.93 L-100.9 54.17 L-102.7 53.41 L-104.5 52.65 L-104.5 50.79 L-104.5 48.93 L-104.5 47.07 L-104.5 45.21 L-104.5 43.35 L-102.7 44.11 L-100.9 44.87 L-99.1 45.63 L-97.3 46.39 L-95.5 47.15 L-95.52 49.01 L-95.54 50.87 L-95.56 52.73 L-95.58 54.59 L-95.6 56.45 Z " />
<path stroke="rgb(0,0,0)" stroke-opacity="1" fill="rgb(244,200,200)" fill-opacity="1" id="fus4_1_" d="M-96.5 60.45 L-98.3 59.67 L-100.1 58.89 L-101.9 58.11 L-103.7 57.33 L-105.5 56.55 L-105.5 54.69 L-105.5 52.83 L-105.5 50.97 L-105.5 49.11 L-105.5 47.25 L-103.7 48.03 L-101.9 48.81 L-100.1 49.59 L-98.3 50.37 L-96.5 51.15 L-96.5 53.01 L-96.5 54.87 L-96.5 56.73 L-96.5 58.59 L-96.5 60.45 Z " />
<path stroke="rgb(0,0,0)" stroke-opacity="1" fill="rgb(173,200,200)" fill-opacity="1" id="swap1_1_" d="M30 -111.1 L28.18 -112.1 L26.36 -113.1 L24.54 -114 L22.72 -115 L20.9 -115.9 L19.08 -116.9 L17.26 -117.9 L15.44 -118.8 L13.62 -119.8 L11.8 -120.7 L11.81 -122.8 L11.82 -124.8 L11.83 -126.8 L11.85 -128.8 L11.86 -130.8 L11.87 -132.8 L11.88 -134.8 L11.89 -136.8 L11.9 -138.8 L13.72 -137.9 L15.54 -136.9 L17.36 -135.9 L19.18 -135 L21 -134 L22.82 -133 L24.64 -132.1 L26.46 -131.1 L28.28 -130.1 L30.1 -129.1 L30.09 -127.1 L30.08 -125.1 L30.07 -123.1 L30.06 -121.1 L30.05 -119.1 L30.03 -117.1 L30.02 -115.1 L30.01 -113.1 L30 -111.1 Z " />
<path stroke="rgb(0,0,0)" stroke-opacity="1" fill="rgb(173,200,200)" fill-opacity="1" id="swap3_1_" d="M20.8 -134.2 L18.98 -135.2 L17.16 -136.2 L15.34 -137.1 L13.52 -138.1 L11.7 -139 L9.88 -140 L8.06 -141 L6.24 -141.9 L4.42 -142.9 L2.6 -143.8 L2.611 -145.9 L2.622 -147.9 L2.633 -149.9 L2.644 -151.9 L2.656 -153.9 L2.667 -155.9 L2.678 -157.9 L2.689 -159.9 L2.7 -161.9 L4.52 -161 L6.34 -160 L8.16 -159.1 L9.98 -158.1 L11.8 -157.1 L13.62 -156.2 L15.44 -155.2 L17.26 -154.3 L19.08 -153.3 L20.9 -152.3 L20.89 -150.3 L20.88 -148.3 L20.87 -146.3 L20.86 -144.3 L20.84 -142.3 L20.83 -140.3 L20.82 -138.3 L20.81 -136.3 L20.8 -134.2 Z " />
<path stroke="rgb(0,0,0)" stroke-opacity="1" fill="rgb(173,200,200)" fill-opacity="1" id="swap2_1_" d="M11.7 -120.7 L9.879 -121.6 L8.059 -122.6 L6.239 -123.5 L4.419 -124.5 L2.599 -125.5 L0.7788 -126.4 L-1.041 -127.4 L-2.861 -128.3 L-4.681 -129.3 L-6.501 -130.3 L-6.49 -132.3 L-6.479 -134.3 L-6.468 -136.3 L-6.457 -138.3 L-6.446 -140.3 L-6.435 -142.3 L-6.423 -144.3 L-6.412 -146.3 L-6.401 -148.4 L-4.571 -147.4 L-2.741 -146.4 L-0.9112 -145.5 L0.9188 -144.5 L2.749 -143.6 L4.579 -142.6 L6.409 -141.6 L8.239 -140.7 L10.07 -139.7 L11.9 -138.8 L11.88 -136.7 L11.85 -134.7 L11.83 -132.7 L11.81 -130.7 L11.79 -128.7 L11.77 -126.7 L11.74 -124.7 L11.72 -122.7 L11.7 -120.7 Z " />
<path stroke="rgb(0,0,0)" stroke-opacity="1" fill="rgb(173,200,200)" fill-opacity="1" id="swap4_1_" d="M20.7 -97.85 L18.88 -98.83 L17.06 -99.81 L15.24 -100.8 L13.42 -101.8 L11.6 -102.8 L9.78 -103.7 L7.96 -104.7 L6.14 -105.7 L4.32 -106.7 L2.5 -107.7 L2.511 -109.7 L2.522 -111.7 L2.533 -113.7 L2.544 -115.7 L2.556 -117.7 L2.567 -119.7 L2.578 -121.7 L2.589 -123.7 L2.6 -125.7 L4.43 -124.7 L6.26 -123.7 L8.09 -122.7 L9.92 -121.8 L11.75 -120.8 L13.58 -119.8 L15.41 -118.9 L17.24 -117.9 L19.07 -116.9 L20.9 -116 L20.88 -113.9 L20.86 -111.9 L20.83 -109.9 L20.81 -107.9 L20.79 -105.9 L20.77 -103.9 L20.74 -101.9 L20.72 -99.86 L20.7 -97.85 Z " />
<path stroke="rgb(0,0,0)" stroke-opacity="1" fill="rgb(244,227,211)" fill-opacity="1" id="a10_5_" d="M40 -46.65 L38.24 -45.63 L36.48 -44.6 L34.71 -43.57 L32.95 -42.55 L31.19 -41.53 L29.42 -40.5 L27.66 -39.48 L25.9 -38.45 L24.14 -37.43 L22.37 -36.4 L20.61 -35.38 L18.85 -34.35 L17.09 -33.33 L15.32 -32.3 L13.56 -31.28 L11.8 -30.25 L10.04 -31.28 L8.275 -32.3 L6.512 -33.33 L4.75 -34.35 L2.987 -35.38 L1.225 -36.4 L-0.5375 -37.43 L-2.3 -38.45 L-4.063 -39.48 L-5.825 -40.5 L-7.587 -41.53 L-9.35 -42.55 L-11.11 -43.57 L-12.87 -44.6 L-14.64 -45.63 L-16.4 -46.65 L-14.64 -47.68 L-12.87 -48.7 L-11.11 -49.72 L-9.35 -50.75 L-7.587 -51.77 L-5.825 -52.8 L-4.063 -53.82 L-2.3 -54.85 L-0.5375 -55.87 L1.225 -56.9 L2.987 -57.92 L4.75 -58.95 L6.512 -59.97 L8.275 -61 L10.04 -62.02 L11.8 -63.05 L13.56 -62.02 L15.32 -61 L17.09 -59.97 L18.85 -58.95 L20.61 -57.92 L22.37 -56.9 L24.14 -55.87 L25.9 -54.85 L27.66 -53.82 L29.42 -52.8 L31.19 -51.77 L32.95 -50.75 L34.71 -49.72 L36.48 -48.7 L38.24 -47.68 L40 -46.65 Z " />
<path stroke="rgb(0,0,0)" stroke-opacity="1" fill="rgb(244,227,211)" fill-opacity="1" id="a10_4_" d="M40.5 -11.85 L40.5 -13.85 L40.5 -15.85 L40.5 -17.85 L40.5 -19.85 L40.5 -21.85 L40.5 -23.85 L40.5 -25.85 L40.5 -27.85 L40.5 -29.85 L40.5 -31.85 L40.5 -33.85 L40.5 -35.85 L40.5 -37.85 L40.5 -39.85 L40.5 -41.85 L40.5 -43.85 L40.5 -45.85 L38.74 -44.83 L36.98 -43.8 L35.21 -42.78 L33.45 -41.75 L31.69 -40.73 L29.92 -39.7 L28.16 -38.68 L26.4 -37.65 L24.64 -36.62 L22.87 -35.6 L21.11 -34.57 L19.35 -33.55 L17.59 -32.52 L15.82 -31.5 L14.06 -30.47 L12.3 -29.45 L12.3 -27.44 L12.3 -25.44 L12.3 -23.43 L12.3 -21.43 L12.3 -19.42 L12.3 -17.42 L12.3 -15.41 L12.3 -13.41 L12.3 -11.4 L12.3 -9.397 L12.3 -7.392 L12.3 -5.387 L12.3 -3.382 L12.3 -1.376 L12.3 0.6289 L12.3 2.634 L12.3 4.639 L12.3 6.645 L12.3 8.65 L13.96 7.444 L15.62 6.238 L17.28 5.032 L18.94 3.826 L20.59 2.621 L22.25 1.415 L23.91 0.2088 L25.57 -0.9971 L27.23 -2.203 L28.89 -3.409 L30.55 -4.615 L32.21 -5.821 L33.86 -7.026 L35.52 -8.232 L37.18 -9.438 L38.84 -10.64 L40.5 -11.85 Z " />
<path stroke="rgb(0,0,0)" stroke-opacity="1" fill="rgb(244,227,211)" fill-opacity="1" id="a10_3_" d="M-16.8 -45.85 L-16.8 -43.85 L-16.8 -41.85 L-16.8 -39.85 L-16.8 -37.85 L-16.8 -35.85 L-16.8 -33.85 L-16.8 -31.85 L-16.8 -29.85 L-16.8 -27.85 L-16.8 -25.85 L-16.8 -23.85 L-16.8 -21.85 L-16.8 -19.85 L-16.8 -17.85 L-16.8 -15.85 L-16.8 -13.85 L-16.8 -11.85 L-15.14 -10.64 L-13.48 -9.438 L-11.82 -8.232 L-10.16 -7.026 L-8.506 -5.821 L-6.847 -4.615 L-5.188 -3.409 L-3.529 -2.203 L-1.871 -0.9971 L-0.2118 0.2088 L1.447 1.415 L3.106 2.621 L4.765 3.826 L6.424 5.032 L8.082 6.238 L9.741 7.444 L11.4 8.65 L11.4 6.645 L11.4 4.639 L11.4 2.634 L11.4 0.6289 L11.4 -1.376 L11.4 -3.382 L11.4 -5.387 L11.4 -7.392 L11.4 -9.397 L11.4 -11.4 L11.4 -13.41 L11.4 -15.41 L11.4 -17.42 L11.4 -19.42 L11.4 -21.43 L11.4 -23.43 L11.4 -25.44 L11.4 -27.44 L11.4 -29.45 L9.637 -30.47 L7.875 -31.5 L6.112 -32.52 L4.35 -33.55 L2.587 -34.57 L0.825 -35.6 L-0.9375 -36.62 L-2.7 -37.65 L-4.462 -38.68 L-6.225 -39.7 L-7.987 -40.73 L-9.75 -41.75 L-11.51 -42.78 L-13.27 -43.8 L-15.04 -44.83 L-16.8 -45.85 Z " />
<path stroke="rgb(0,0,0)" stroke-opacity="1" fill="rgb(200,200,200)" fill-opacity="1" id="circ1_5_" d="M-62.5 -12.65 L-64.08 -11.73 L-65.66 -10.81 L-67.24 -9.886 L-68.82 -8.966 L-70.4 -8.046 L-71.98 -8.966 L-73.56 -9.886 L-75.14 -10.81 L-76.72 -11.73 L-78.3 -12.65 L-76.72 -13.57 L-75.14 -14.49 L-73.56 -15.41 L-71.98 -16.33 L-70.4 -17.25 L-68.82 -16.33 L-67.24 -15.41 L-65.66 -14.49 L-64.08 -13.57 L-62.5 -12.65 Z " />
<path stroke="rgb(0,0,0)" stroke-opacity="1" fill="rgb(200,200,200)" fill-opacity="1" id="circ1_4_" d="M-62.4 -2.846 L-62.4 -4.746 L-62.4 -6.646 L-62.4 -8.546 L-62.4 -10.45 L-62.4 -12.35 L-63.98 -11.45 L-65.56 -10.55 L-67.14 -9.646 L-68.72 -8.746 L-70.3 -7.846 L-70.3 -5.706 L-70.3 -3.566 L-70.3 -1.426 L-70.3 0.714 L-70.3 2.854 L-68.72 1.714 L-67.14 0.574 L-65.56 -0.566 L-63.98 -1.706 L-62.4 -2.846 Z " />
<path stroke="rgb(0,0,0)" stroke-opacity="1" fill="rgb(200,200,200)" fill-opacity="1" id="circ1_3_" d="M-78.5 -12.35 L-78.5 -10.45 L-78.5 -8.546 L-78.5 -6.646 L-78.5 -4.746 L-78.5 -2.846 L-76.92 -1.706 L-75.34 -0.566 L-73.76 0.574 L-72.18 1.714 L-70.6 2.854 L-70.6 0.714 L-70.6 -1.426 L-70.6 -3.566 L-70.6 -5.706 L-70.6 -7.846 L-72.18 -8.746 L-73.76 -9.646 L-75.34 -10.55 L-76.92 -11.45 L-78.5 -12.35 Z " />
<path stroke="rgb(0,0,0)" stroke-opacity="1" fill="rgb(200,200,200)" fill-opacity="1" id="circ2_5_" d="M-98.6 -15.25 L-100.2 -14.33 L-101.8 -13.41 L-103.3 -12.49 L-104.9 -11.57 L-106.5 -10.65 L-108.1 -11.57 L-109.7 -12.49 L-111.2 -13.41 L-112.8 -14.33 L-114.4 -15.25 L-112.8 -16.15 L-111.2 -17.05 L-109.7 -17.95 L-108.1 -18.85 L-106.5 -19.75 L-104.9 -18.85 L-103.3 -17.95 L-101.8 -17.05 L-100.2 -16.15 L-98.6 -15.25 Z " />
<path stroke="rgb(0,0,0)" stroke-opacity="1" fill="rgb(200,200,200)" fill-opacity="1" id="circ2_4_" d="M-98.5 -5.454 L-98.5 -7.354 L-98.5 -9.254 L-98.5 -11.15 L-98.5 -13.05 L-98.5 -14.95 L-100.1 -14.03 L-101.7 -13.11 L-103.2 -12.19 L-104.8 -11.27 L-106.4 -10.35 L-106.4 -8.234 L-106.4 -6.114 L-106.4 -3.994 L-106.4 -1.874 L-106.4 0.246 L-104.8 -0.894 L-103.2 -2.034 L-101.7 -3.174 L-100.1 -4.314 L-98.5 -5.454 Z " />
<path stroke="rgb(0,0,0)" stroke-opacity="1" fill="rgb(200,200,200)" fill-opacity="1" id="circ2_3_" d="M-114.6 -14.95 L-114.6 -13.05 L-114.6 -11.15 L-114.6 -9.254 L-114.6 -7.354 L-114.6 -5.454 L-113 -4.314 L-111.4 -3.174 L-109.9 -2.034 L-108.3 -0.894 L-106.7 0.246 L-106.7 -1.874 L-106.7 -3.994 L-106.7 -6.114 L-106.7 -8.234 L-106.7 -10.35 L-108.3 -11.27 L-109.9 -12.19 L-111.4 -13.11 L-113 -14.03 L-114.6 -14.95 Z " />
<path stroke="rgb(0,0,0)" stroke-opacity="1" fill="rgb(148,200,200)" fill-opacity="1" id="bb1" d="M46.16 -57.51 L45.33 -55.7 L44.49 -53.9 L43.65 -52.09 L42.81 -50.29 L41.97 -48.48 L41.14 -46.68 L40.3 -44.87 L39.46 -43.07 L38.62 -41.26 L37.78 -39.46 L36.95 -37.65 L36.11 -35.85 L35.27 -34.04 L34.43 -32.24 L33.59 -30.43 L32.76 -28.63 L31.92 -26.82 L32.88 -25.03 L33.85 -23.24 L34.81 -21.44 L35.77 -19.65 L36.73 -17.86 L37.7 -16.06 L38.66 -14.27 L39.62 -12.48 L40.59 -10.68 L41.55 -8.89 L42.51 -7.097 L43.48 -5.303 L45.52 -5.303 L47.55 -5.304 L49.59 -5.304 L51.63 -5.304 L53.67 -5.304 L55.71 -5.304 L57.75 -5.304 L59.79 -5.304 L61.83 -5.304 L63.87 -5.304 L65.91 -5.304 L67.95 -5.304 L69.98 -5.304 L72.02 -5.304 L74.06 -5.304 L75.74 -6.437 L77.41 -7.57 L79.08 -8.702 L80.75 -9.835 L82.43 -10.97 L84.1 -12.1 L85.77 -13.23 L87.44 -14.37 L89.12 -15.5 L90.79 -16.63 L92.46 -17.76 L94.13 -18.9 L95.81 -20.03 L97.48 -21.16 L99.15 -22.29 L100.8 -23.43 L102.5 -24.56 L104.2 -25.69 L105.8 -26.83 L106.7 -28.63 L107.5 -30.44 L108.4 -32.24 L109.2 -34.05 L110 -35.85 L110.9 -37.66 L111.7 -39.46 L112.5 -41.27 L113.4 -43.07 L114.2 -44.88 L115.1 -46.68 L115.9 -48.49 L116.7 -50.29 L117.6 -52.1 L118.4 -53.9 L119.3 -55.71 L120.1 -57.51 L119.1 -59.32 L118.2 -61.13 L117.2 -62.94 L116.2 -64.75 L115.3 -66.56 L114.3 -68.37 L113.3 -70.18 L112.4 -71.99 L111.4 -73.8 L110.5 -75.61 L109.5 -77.42 L108.5 -79.23 L106.5 -79.23 L104.5 -79.23 L102.4 -79.23 L100.4 -79.23 L98.34 -79.23 L96.3 -79.23 L94.26 -79.23 L92.22 -79.23 L90.18 -79.23 L88.14 -79.23 L86.1 -79.23 L84.06 -79.23 L82.02 -79.23 L79.98 -79.23 L77.95 -79.23 L76.27 -78.09 L74.6 -76.94 L72.93 -75.8 L71.26 -74.66 L69.58 -73.51 L67.91 -72.37 L66.24 -71.23 L64.56 -70.08 L62.89 -68.94 L61.22 -67.8 L59.55 -66.65 L57.87 -65.51 L56.2 -64.37 L54.53 -63.22 L52.86 -62.08 L51.18 -60.94 L49.51 -59.8 L47.84 -58.65 L46.16 -57.51 Z " />
<path stroke="rgb(0,0,0)" stroke-opacity="1" fill="rgb(236,216,157)" fill-opacity="1" id="scltrs1" d="M-160.6 39.27 L-161.2 40.04 L-161.8 40.82 L-162.4 41.6 L-163 42.38 L-163.6 43.15 L-164.2 43.93 L-164.8 44.71 L-165.5 45.49 L-166.1 46.27 L-166.7 47.04 L-167.3 47.82 L-167.9 48.6 L-168.5 49.38 L-169.1 50.15 L-169.8 50.93 L-170.4 51.71 L-171 52.49 L-171.6 53.26 L-172.2 54.04 L-172.8 54.82 L-173.4 55.6 L-174 56.37 L-174.7 57.15 L-175.3 57.93 L-175.9 58.71 L-176.5 59.48 L-177.1 60.26 L-177.7 61.04 L-178.3 61.82 L-179 62.59 L-179.6 63.37 L-180.2 64.15 L-180.8 64.93 L-181.4 65.7 L-182 66.48 L-182.6 67.26 L-181.7 67.68 L-180.8 68.1 L-179.9 68.52 L-179 68.94 L-178.1 69.37 L-177.2 69.79 L-176.3 70.21 L-175.4 70.63 L-174.5 71.05 L-173.6 71.47 L-172.7 71.89 L-171.8 72.31 L-170.9 72.73 L-170 73.16 L-169.1 73.58 L-168.2 74 L-167.3 74.42 L-166.4 74.84 L-165.5 75.26 L-164.6 75.68 L-163.7 76.1 L-162.8 76.52 L-161.9 76.94 L-161 77.37 L-160.1 77.79 L-159.2 78.21 L-158.3 78.63 L-157.4 79.05 L-156.5 79.47 L-155.6 79.89 L-154.7 80.31 L-153.8 80.73 L-152.9 81.16 L-152 81.58 L-151.1 82 L-150.2 82.42 L-149.3 82.84 L-148.4 83.26 L-147.5 83.68 L-146.6 84.1 L-145.7 84.52 L-144.8 84.94 L-143.9 85.37 L-143 85.79 L-142.1 86.21 L-141.2 86.63 L-140.3 87.05 L-139.4 87.47 L-138.5 87.89 L-138.9 86.97 L-139.3 86.06 L-139.7 85.14 L-140.1 84.22 L-140.6 83.3 L-141 82.39 L-141.4 81.47 L-141.8 80.55 L-142.2 79.64 L-142.6 78.72 L-143.1 77.8 L-143.5 76.88 L-143.9 75.97 L-144.3 75.05 L-144.7 74.13 L-145.1 73.21 L-145.6 72.3 L-146 71.38 L-146.4 70.46 L-146.8 69.54 L-147.2 68.63 L-147.6 67.71 L-148.1 66.79 L-148.5 65.87 L-148.9 64.96 L-149.3 64.04 L-149.7 63.12 L-150.1 62.2 L-150.6 61.29 L-151 60.37 L-151.4 59.45 L-151.8 58.53 L-152.2 57.62 L-152.6 56.7 L-153.1 55.78 L-153.5 54.86 L-153.9 53.95 L-154.3 53.03 L-154.7 52.11 L-155.1 51.19 L-155.6 50.28 L-156 49.36 L-156.4 48.44 L-156.8 47.52 L-157.2 46.61 L-157.6 45.69 L-158.1 44.77 L-158.5 43.85 L-158.9 42.94 L-159.3 42.02 L-159.7 41.1 L-160.1 40.18 L-160.6 39.27 Z " />
<path stroke="rgb(0,0,0)" stroke-opacity="1" fill="rgb(255,255,255)" fill-opacity="1" id="a5" d="M-62.4 134.3 L-62.51 136.7 L-62.82 138.8 L-63.33 140.8 L-64.03 142.7 L-64.92 144.4 L-65.97 145.8 L-67.18 147.2 L-68.54 148.3 L-70.05 149.2 L-71.69 150 L-73.45 150.5 L-75.33 150.8 L-77.32 150.9 L-79.4 150.9 L-81.57 150.5 L-83.81 150 L-86.13 149.2 L-88.5 148.2 L-90.29 147.4 L-92.04 146.4 L-93.76 145.3 L-95.43 144.1 L-97.07 142.8 L-98.65 141.5 L-100.2 140.1 L-101.7 138.6 L-103.1 137 L-104.4 135.4 L-105.7 133.7 L-107 132 L-108.1 130.3 L-109.2 128.5 L-110.1 126.7 L-111 124.9 L-111.8 123 L-112.5 121.2 L-113.2 119.3 L-113.7 117.4 L-114.1 115.6 L-114.4 113.7 L-114.5 111.9 L-114.6 110 L-114.5 107.7 L-114.2 105.6 L-113.7 103.6 L-113 101.7 L-112.1 100 L-111 98.56 L-109.8 97.25 L-108.5 96.12 L-107 95.19 L-105.3 94.45 L-103.5 93.91 L-101.7 93.58 L-99.68 93.45 L-97.6 93.54 L-95.43 93.85 L-93.19 94.39 L-90.87 95.15 L-88.5 96.15 L-86.71 97.04 L-84.96 98.03 L-83.24 99.12 L-81.57 100.3 L-79.93 101.6 L-78.35 102.9 L-76.81 104.3 L-75.33 105.8 L-73.91 107.4 L-72.56 109 L-71.27 110.7 L-70.05 112.4 L-68.91 114.1 L-67.84 115.9 L-66.86 117.7 L-65.97 119.5 L-65.16 121.4 L-64.45 123.2 L-63.84 125.1 L-63.33 127 L-62.93 128.8 L-62.64 130.7 L-62.46 132.5 L-62.4 134.3 Z " />
<path stroke="rgb(0,0,0)" stroke-opacity="1" fill="rgb(255,255,255)" fill-opacity="1" id="a17" d="M-96 -128.5 L-97.21 -127 L-98.42 -125.5 L-99.62 -124 L-100.8 -122.4 L-102 -120.9 L-103.2 -119.4 L-104.5 -117.8 L-105.7 -116.3 L-106.9 -114.8 L-108.1 -113.2 L-109.3 -111.7 L-110.5 -110.2 L-111.7 -108.7 L-109.9 -107.8 L-108 -106.9 L-106.2 -106.1 L-104.3 -105.2 L-102.5 -104.3 L-100.6 -103.5 L-98.77 -102.6 L-96.92 -101.7 L-95.08 -100.9 L-93.23 -100 L-91.38 -99.14 L-89.54 -98.27 L-87.69 -97.41 L-85.84 -96.54 L-83.99 -95.68 L-82.15 -94.81 L-80.3 -93.95 L-81.13 -95.77 L-81.95 -97.59 L-82.78 -99.41 L-83.61 -101.2 L-84.43 -103.1 L-85.26 -104.9 L-86.08 -106.7 L-86.91 -108.5 L-87.74 -110.3 L-88.56 -112.2 L-89.39 -114 L-90.22 -115.8 L-91.04 -117.6 L-91.87 -119.4 L-92.69 -121.3 L-93.52 -123.1 L-94.35 -124.9 L-95.17 -126.7 L-96 -128.5 Z " />
<path stroke="rgb(0,0,0)" stroke-opacity="1" fill="rgb(255,255,255)" fill-opacity="1" id="a16" d="M-96 -70.95 L-94.79 -72.48 L-93.58 -74.01 L-92.38 -75.54 L-91.17 -77.07 L-89.96 -78.6 L-88.75 -80.13 L-87.55 -81.67 L-86.34 -83.2 L-85.13 -84.73 L-83.92 -86.26 L-82.72 -87.79 L-81.51 -89.32 L-80.3 -90.85 L-82.15 -91.71 L-83.99 -92.57 L-85.84 -93.43 L-87.69 -94.29 L-89.54 -95.14 L-91.38 -96 L-93.23 -96.86 L-95.08 -97.72 L-96.92 -98.58 L-98.77 -99.44 L-100.6 -100.3 L-102.5 -101.2 L-104.3 -102 L-106.2 -102.9 L-108 -103.7 L-109.9 -104.6 L-111.7 -105.5 L-110.9 -103.6 L-110 -101.8 L-109.2 -100 L-108.4 -98.19 L-107.6 -96.37 L-106.7 -94.56 L-105.9 -92.74 L-105.1 -90.92 L-104.3 -89.11 L-103.4 -87.29 L-102.6 -85.48 L-101.8 -83.66 L-101 -81.84 L-100.1 -80.03 L-99.31 -78.21 L-98.48 -76.4 L-97.65 -74.58 L-96.83 -72.77 L-96 -70.95 Z " />
<path stroke="rgb(0,0,0)" stroke-opacity="1" fill="rgb(173,200,200)" fill-opacity="1" id="swap2" d="M-49.1 -63.05 L-49.36 -60.93 L-50.08 -59.22 L-51.22 -57.95 L-52.72 -57.15 L-54.52 -56.84 L-56.56 -57.07 L-58.8 -57.85 L-60.56 -58.82 L-62.2 -60.04 L-63.72 -61.47 L-65.07 -63.06 L-66.23 -64.77 L-67.19 -66.57 L-67.9 -68.41 L-68.35 -70.25 L-68.5 -72.05 L-68.25 -74.14 L-67.52 -75.84 L-66.38 -77.11 L-64.89 -77.92 L-63.09 -78.24 L-61.04 -78.03 L-58.8 -77.25 L-57.05 -76.28 L-55.4 -75.07 L-53.89 -73.66 L-52.53 -72.08 L-51.37 -70.37 L-50.42 -68.58 L-49.7 -66.73 L-49.26 -64.88 L-49.1 -63.05 Z " />
<path stroke="rgb(0,0,0)" stroke-opacity="1" fill="rgb(173,200,200)" fill-opacity="1" id="swap4" d="M-33.4 -40.45 L-33.65 -38.33 L-34.38 -36.62 L-35.52 -35.35 L-37.02 -34.55 L-38.82 -34.24 L-40.86 -34.47 L-43.1 -35.25 L-44.85 -36.22 L-46.5 -37.44 L-48.01 -38.87 L-49.37 -40.46 L-50.53 -42.17 L-51.49 -43.97 L-52.2 -45.81 L-52.65 -47.65 L-52.8 -49.45 L-52.55 -51.57 L-51.82 -53.28 L-50.68 -54.55 L-49.18 -55.35 L-47.38 -55.66 L-45.34 -55.43 L-43.1 -54.65 L-41.35 -53.68 L-39.7 -52.47 L-38.19 -51.06 L-36.83 -49.48 L-35.67 -47.77 L-34.71 -45.98 L-34 -44.13 L-33.55 -42.28 L-33.4 -40.45 Z " />
<path stroke="rgb(0,0,0)" stroke-opacity="1" fill="rgb(173,200,200)" fill-opacity="1" id="swap3" d="M-33.4 -69.85 L-33.65 -67.73 L-34.38 -66.02 L-35.52 -64.75 L-37.02 -63.95 L-38.82 -63.64 L-40.86 -63.87 L-43.1 -64.65 L-44.85 -65.62 L-46.5 -66.84 L-48.01 -68.26 L-49.37 -69.85 L-50.53 -71.57 L-51.49 -73.37 L-52.2 -75.21 L-52.65 -77.05 L-52.8 -78.85 L-52.55 -80.94 L-51.82 -82.63 L-50.68 -83.91 L-49.18 -84.72 L-47.38 -85.04 L-45.34 -84.83 L-43.1 -84.05 L-41.35 -83.08 L-39.7 -81.87 L-38.19 -80.46 L-36.83 -78.88 L-35.67 -77.17 L-34.71 -75.37 L-34 -73.53 L-33.55 -71.68 L-33.4 -69.85 Z " />
<path stroke="rgb(0,0,0)" stroke-opacity="1" fill="rgb(173,200,200)" fill-opacity="1" id="swap1" d="M-17.3 -48.25 L-17.55 -46.13 L-18.28 -44.42 L-19.42 -43.15 L-20.91 -42.35 L-22.71 -42.04 L-24.76 -42.27 L-27 -43.05 L-28.75 -44.02 L-30.4 -45.24 L-31.91 -46.66 L-33.27 -48.26 L-34.43 -49.97 L-35.38 -51.77 L-36.1 -53.61 L-36.54 -55.45 L-36.7 -57.25 L-36.44 -59.34 L-35.72 -61.04 L-34.58 -62.31 L-33.08 -63.12 L-31.28 -63.44 L-29.24 -63.23 L-27 -62.45 L-25.24 -61.48 L-23.6 -60.26 L-22.08 -58.83 L-20.73 -57.24 L-19.57 -55.53 L-18.61 -53.73 L-17.9 -51.89 L-17.45 -50.05 L-17.3 -48.25 Z " />
<path stroke="rgb(0,0,0)" stroke-opacity="1" fill="rgb(255,255,255)" fill-opacity="1" id="secscl1" d="M-3.385 123.4 L-4.535 122.9 L-5.686 122.3 L-6.836 121.8 L-7.987 121.2 L-9.138 120.7 L-10.29 120.2 L-11.44 119.6 L-12.59 119.1 L-13.74 118.6 L-14.89 118 L-16.04 117.5 L-17.19 117 L-18.34 116.4 L-19.49 115.9 L-20.29 116.9 L-21.09 117.9 L-21.89 118.9 L-22.69 120 L-23.49 121 L-24.29 122 L-25.09 123 L-25.89 124 L-26.69 125 L-27.49 126.1 L-26.99 127.2 L-26.49 128.3 L-25.99 129.4 L-25.49 130.5 L-24.99 131.6 L-24.49 132.7 L-23.99 133.7 L-23.49 134.8 L-22.99 135.9 L-22.49 137 L-21.99 138.1 L-21.49 139.2 L-20.99 140.3 L-20.49 141.4 L-19.99 142.5 L-19.49 143.6 L-18.34 144.2 L-17.19 144.7 L-16.04 145.2 L-14.89 145.8 L-13.74 146.3 L-12.59 146.8 L-11.44 147.4 L-10.29 147.9 L-9.138 148.4 L-7.987 149 L-6.836 149.5 L-5.686 150 L-4.535 150.6 L-3.385 151.1 L-2.585 150.1 L-1.786 149.1 L-0.9869 148.1 L-0.1876 147 L0.6116 146 L1.411 145 L2.21 144 L3.009 143 L3.809 142 L4.608 141 L4.108 139.9 L3.609 138.8 L3.109 137.7 L2.61 136.6 L2.11 135.5 L1.611 134.4 L1.111 133.3 L0.6116 132.2 L0.1121 131.1 L-0.3874 130 L-0.887 128.9 L-1.386 127.8 L-1.886 126.7 L-2.386 125.6 L-2.885 124.5 L-3.385 123.4 Z " />
</g>
</g>
</svg>
