<!DOCTYPE svg>
<svg xmlns="http://www.w3.org/2000/svg" xmlns:xlink="http://www.w3.org/1999/xlink" width="1080" height="1080">
<g transform="translate(540.000000,540.000000)">
<g transform="scale(2,2)">
<path stroke="rgb(0,0,0)" stroke-opacity="1" fill="rgb(148,200,200)" fill-opacity="1" id="bb1_2_" d="M-158.4 11.77 L-158.3 9.777 L-158.2 7.787 L-158.1 5.797 L-158 3.807 L-157.9 1.818 L-157.8 -0.1721 L-157.7 -2.162 L-157.6 -4.152 L-157.5 -6.141 L-157.4 -8.131 L-157.3 -10.12 L-157.2 -12.11 L-157.1 -14.1 L-157 -16.09 L-156.9 -18.08 L-156.8 -20.07 L-156.7 -22.06 L-156.6 -24.05 L-156.5 -26.04 L-156.4 -28.03 L-156.3 -30.02 L-156.2 -32.01 L-156.1 -34 L-156 -35.99 L-155.9 -37.98 L-155.8 -39.97 L-155.7 -41.96 L-155.6 -43.95 L-155.5 -45.94 L-153.7 -46.66 L-151.8 -47.38 L-149.9 -48.1 L-148 -48.81 L-146.1 -49.53 L-144.3 -50.25 L-142.4 -50.97 L-140.5 -51.69 L-138.6 -52.41 L-136.7 -53.13 L-134.9 -53.85 L-133 -54.57 L-131.1 -55.29 L-129.2 -56.01 L-127.3 -56.73 L-125.5 -57.45 L-123.6 -58.17 L-121.7 -58.89 L-119.8 -59.61 L-117.9 -60.33 L-116.1 -61.05 L-114.2 -61.77 L-112.3 -62.49 L-110.4 -63.21 L-108.5 -63.93 L-106.7 -64.65 L-104.8 -65.36 L-104.9 -63.38 L-105 -61.39 L-105.1 -59.4 L-105.2 -57.41 L-105.3 -55.42 L-105.4 -53.43 L-105.5 -51.44 L-105.6 -49.45 L-105.7 -47.46 L-105.8 -45.47 L-105.9 -43.48 L-106 -41.49 L-106.1 -39.5 L-106.1 -37.51 L-106.2 -35.52 L-106.3 -33.53 L-106.4 -31.54 L-106.5 -29.55 L-106.6 -27.56 L-106.7 -25.57 L-106.8 -23.58 L-106.9 -21.59 L-107 -19.6 L-107.1 -17.61 L-107.2 -15.62 L-107.3 -13.63 L-107.4 -11.64 L-107.5 -9.652 L-107.6 -7.662 L-109.5 -6.942 L-111.4 -6.223 L-113.3 -5.503 L-115.1 -4.784 L-117 -4.064 L-118.9 -3.345 L-120.8 -2.625 L-122.7 -1.905 L-124.5 -1.186 L-126.4 -0.4662 L-128.3 0.2533 L-130.2 0.9729 L-132 1.692 L-133.9 2.412 L-135.8 3.132 L-137.7 3.851 L-139.6 4.571 L-141.4 5.29 L-143.3 6.01 L-145.2 6.729 L-147.1 7.449 L-149 8.169 L-150.8 8.888 L-152.7 9.608 L-154.6 10.33 L-156.5 11.05 L-158.4 11.77 Z " />
<path stroke="rgb(0,0,0)" stroke-opacity="1" fill="rgb(236,216,157)" fill-opacity="1" id="pr2_1_" d="M72.7 104.6 L70.94 103.7 L69.18 102.8 L67.41 101.9 L65.65 101 L63.89 100.1 L62.13 99.25 L60.36 98.35 L58.6 97.45 L58.63 95.52 L58.66 93.59 L58.69 91.66 L58.71 89.74 L58.74 87.81 L58.77 85.88 L58.8 83.95 L60.55 84.84 L62.3 85.73 L64.05 86.61 L65.8 87.5 L67.55 88.39 L69.3 89.28 L71.05 90.16 L72.8 91.05 L72.79 92.99 L72.77 94.94 L72.76 96.88 L72.74 98.82 L72.73 100.8 L72.71 102.7 L72.7 104.6 Z " />
<path stroke="rgb(0,0,0)" stroke-opacity="1" fill="rgb(236,216,157)" fill-opacity="1" id="pr1_1_" d="M54.9 96.05 L53.15 95.15 L51.4 94.25 L49.65 93.35 L47.9 92.45 L46.15 91.55 L44.4 90.65 L42.65 89.75 L40.9 88.85 L40.91 86.92 L40.93 84.99 L40.94 83.06 L40.96 81.14 L40.97 79.21 L40.99 77.28 L41 75.35 L42.75 76.25 L44.5 77.15 L46.25 78.05 L48 78.95 L49.75 79.85 L51.5 80.75 L53.25 81.65 L55 82.55 L54.99 84.48 L54.97 86.41 L54.96 88.34 L54.94 90.26 L54.93 92.19 L54.91 94.12 L54.9 96.05 Z " />
<path stroke="rgb(0,0,0)" stroke-opacity="1" fill="rgb(236,216,157)" fill-opacity="1" id="pr3_1_" d="M54.6 113.6 L52.85 112.7 L51.1 111.8 L49.35 110.9 L47.6 110 L45.85 109.1 L44.1 108.1 L42.35 107.2 L40.6 106.3 L40.61 104.4 L40.63 102.5 L40.64 100.6 L40.66 98.64 L40.67 96.71 L40.69 94.78 L40.7 92.85 L42.45 93.75 L44.2 94.65 L45.95 95.55 L47.7 96.45 L49.45 97.35 L51.2 98.25 L52.95 99.15 L54.7 100.1 L54.69 102 L54.67 103.9 L54.66 105.8 L54.64 107.8 L54.63 109.7 L54.61 111.6 L54.6 113.6 Z " />
<path stroke="rgb(0,0,0)" stroke-opacity="1" fill="rgb(236,216,157)" fill-opacity="1" id="pr4_1_" d="M72.3 121.7 L70.54 120.9 L68.77 120 L67.01 119.1 L65.25 118.2 L63.49 117.3 L61.73 116.4 L59.96 115.5 L58.2 114.6 L58.21 112.7 L58.23 110.8 L58.24 108.9 L58.26 106.9 L58.27 105 L58.29 103.1 L58.3 101.1 L60.06 102 L61.82 102.9 L63.59 103.8 L65.35 104.7 L67.11 105.6 L68.87 106.5 L70.64 107.4 L72.4 108.2 L72.39 110.2 L72.37 112.1 L72.36 114 L72.34 116 L72.33 117.9 L72.31 119.8 L72.3 121.7 Z " />
<path stroke="rgb(0,0,0)" stroke-opacity="1" fill="rgb(238,200,200)" fill-opacity="1" id="ll1_1_" d="M127.1 106.8 L125.1 105.9 L123.2 104.9 L121.2 104 L119.2 103.1 L117.2 102.2 L115.3 101.3 L113.3 100.3 L111.3 99.42 L109.4 98.49 L107.4 97.57 L105.4 96.65 L103.5 95.73 L101.5 94.81 L99.51 93.89 L97.54 92.97 L95.57 92.05 L95.57 89.85 L95.57 87.65 L95.57 85.45 L95.57 83.25 L95.57 81.06 L95.57 78.86 L95.57 76.66 L95.57 74.46 L95.57 72.26 L95.57 70.07 L95.57 67.87 L95.57 65.67 L95.57 63.47 L95.57 61.27 L97.54 62.2 L99.51 63.13 L101.5 64.06 L103.5 64.99 L105.4 65.91 L107.4 66.84 L109.4 67.77 L111.3 68.7 L113.3 69.62 L115.3 70.55 L117.2 71.48 L119.2 72.41 L121.2 73.34 L123.2 74.26 L125.1 75.19 L127.1 76.12 L127.1 78.31 L127.1 80.5 L127.1 82.69 L127.1 84.88 L127.1 87.07 L127.1 89.26 L127.1 91.45 L127.1 93.64 L127.1 95.83 L127.1 98.02 L127.1 100.2 L127.1 102.4 L127.1 104.6 L127.1 106.8 Z " />
<path stroke="rgb(0,0,0)" stroke-opacity="1" fill="rgb(255,255,255)" fill-opacity="1" id="cl1_1_" d="M22.93 124.1 L23.84 122.3 L24.74 120.5 L25.65 118.7 L26.56 116.9 L27.46 115.1 L28.37 113.3 L29.27 111.5 L30.18 109.6 L31.08 107.8 L31.99 106 L32.89 104.2 L33.8 102.4 L34.71 100.6 L35.61 98.78 L36.52 96.96 L38.61 96.86 L37.69 98.68 L36.76 100.5 L35.84 102.3 L34.91 104.1 L33.99 105.9 L33.06 107.7 L32.14 109.5 L31.21 111.4 L30.28 113.2 L29.36 115 L28.43 116.8 L27.51 118.6 L26.58 120.4 L25.66 122.2 L24.73 124 L22.93 124.1 Z " />
<path stroke="rgb(0,0,0)" stroke-opacity="1" fill="rgb(255,255,255)" fill-opacity="1" id="a5_2_" d="M190.5 -50.75 L188.6 -51.59 L186.7 -52.44 L184.8 -53.28 L183 -54.12 L181.1 -54.96 L179.2 -55.81 L177.3 -56.65 L175.4 -57.49 L173.5 -58.34 L171.6 -59.18 L169.8 -60.02 L167.9 -60.86 L166 -61.71 L164.1 -62.55 L164.1 -60.6 L164.1 -58.64 L164.1 -56.69 L164.1 -54.73 L164.1 -52.78 L164.1 -50.83 L164.1 -48.87 L164.1 -46.92 L164.1 -44.97 L164.1 -43.01 L164.1 -41.06 L164.1 -39.1 L164.1 -37.15 L166 -36.31 L167.9 -35.46 L169.8 -34.62 L171.6 -33.78 L173.5 -32.94 L175.4 -32.09 L177.3 -31.25 L179.2 -30.41 L181.1 -29.56 L183 -28.72 L184.8 -27.88 L186.7 -27.04 L188.6 -26.19 L190.5 -25.35 L190.5 -27.3 L190.5 -29.26 L190.5 -31.21 L190.5 -33.17 L190.5 -35.12 L190.5 -37.07 L190.5 -39.03 L190.5 -40.98 L190.5 -42.93 L190.5 -44.89 L190.5 -46.84 L190.5 -48.8 L190.5 -50.75 Z " />
<path stroke="rgb(0,0,0)" stroke-opacity="1" fill="rgb(255,255,255)" fill-opacity="1" id="a6_2_" d="M63.3 51.45 L61.52 50.62 L59.75 49.79 L57.97 48.96 L56.19 48.13 L54.42 47.3 L52.64 46.47 L50.86 45.64 L49.09 44.81 L47.31 43.99 L45.54 43.16 L43.76 42.33 L41.98 41.5 L40.21 40.67 L38.43 39.84 L36.65 39.01 L34.88 38.18 L33.1 37.35 L33.1 35.25 L33.1 33.15 L33.1 31.05 L33.1 28.95 L33.1 26.85 L33.1 24.75 L33.1 22.65 L33.1 20.55 L33.1 18.45 L33.1 16.35 L34.87 17.18 L36.64 18.01 L38.41 18.84 L40.18 19.67 L41.95 20.5 L43.72 21.33 L45.49 22.16 L47.26 22.99 L49.04 23.81 L50.81 24.64 L52.58 25.47 L54.35 26.3 L56.12 27.13 L57.89 27.96 L59.66 28.79 L61.43 29.62 L63.2 30.45 L63.21 32.36 L63.22 34.27 L63.23 36.18 L63.24 38.09 L63.25 40 L63.25 41.9 L63.26 43.81 L63.27 45.72 L63.28 47.63 L63.29 49.54 L63.3 51.45 Z " />
<path stroke="rgb(0,0,0)" stroke-opacity="1" fill="rgb(148,200,200)" fill-opacity="1" id="rtr1_2_" d="M39.1 -117.6 L40.04 -119.4 L40.99 -121.3 L41.93 -123.1 L42.87 -125 L43.82 -126.8 L44.76 -128.7 L46.9 -128.6 L49.03 -128.5 L51.17 -128.4 L53.31 -128.4 L55.44 -128.3 L54.5 -126.4 L53.55 -124.6 L52.61 -122.7 L51.67 -120.9 L50.72 -119 L49.78 -117.1 L47.64 -117.2 L45.51 -117.3 L43.37 -117.4 L41.24 -117.5 L39.1 -117.6 Z " />
<path stroke="rgb(0,0,0)" stroke-opacity="1" fill="rgb(238,200,200)" fill-opacity="1" id="sg1_2_" d="M85.43 113.3 L83.95 112.2 L82.47 111.2 L80.99 110.1 L79.51 109 L78.03 107.9 L76.54 106.8 L76.87 104.8 L77.2 102.7 L77.53 100.6 L77.86 98.54 L79.37 99.6 L80.87 100.7 L82.37 101.7 L83.87 102.8 L85.37 103.9 L86.87 104.9 L86.51 107 L86.15 109.1 L85.79 111.2 L85.43 113.3 Z " />
<path stroke="rgb(0,0,0)" stroke-opacity="1" fill="rgb(255,255,255)" fill-opacity="1" id="a12_2_" d="M-35.82 69.47 L-37.7 68.65 L-39.58 67.83 L-41.47 67.02 L-43.35 66.2 L-45.23 65.38 L-47.12 64.57 L-47.13 62.63 L-47.15 60.7 L-47.17 58.77 L-47.18 56.83 L-47.2 54.9 L-47.22 52.97 L-45.35 53.78 L-43.48 54.6 L-41.62 55.42 L-39.75 56.23 L-37.88 57.05 L-36.02 57.87 L-35.98 59.8 L-35.95 61.73 L-35.92 63.67 L-35.88 65.6 L-35.85 67.53 L-35.82 69.47 Z " />
<path stroke="rgb(0,0,0)" stroke-opacity="1" fill="rgb(255,255,255)" fill-opacity="1" id="secscl1_2_" d="M-29.65 38.13 L-31.12 37.43 L-32.59 36.73 L-34.06 36.03 L-35.53 35.33 L-37.01 34.63 L-38.48 33.93 L-39.95 33.23 L-41.42 32.53 L-41.42 30.94 L-41.42 29.36 L-41.42 27.77 L-41.42 26.19 L-41.42 24.61 L-41.42 23.02 L-41.42 21.44 L-41.42 19.85 L-41.42 18.27 L-41.42 16.69 L-41.42 15.1 L-41.42 13.52 L-41.42 11.93 L-41.42 10.35 L-41.42 8.764 L-41.42 7.18 L-41.42 5.596 L-41.42 4.012 L-41.42 2.428 L-41.42 0.8435 L-41.42 -0.7407 L-41.42 -2.325 L-41.42 -3.909 L-41.42 -5.493 L-41.42 -7.077 L-41.42 -8.662 L-41.42 -10.25 L-41.42 -11.83 L-41.42 -13.41 L-41.42 -15 L-41.42 -16.58 L-41.42 -18.17 L-41.42 -19.75 L-41.42 -21.33 L-41.42 -22.92 L-41.42 -24.5 L-41.42 -26.09 L-41.42 -27.67 L-41.42 -29.26 L-41.42 -30.84 L-39.95 -30.13 L-38.48 -29.42 L-37.01 -28.71 L-35.53 -28 L-34.06 -27.29 L-32.59 -26.58 L-31.12 -25.87 L-29.65 -25.16 L-29.65 -23.58 L-29.65 -21.99 L-29.65 -20.41 L-29.65 -18.83 L-29.65 -17.25 L-29.65 -15.67 L-29.65 -14.08 L-29.65 -12.5 L-29.65 -10.92 L-29.65 -9.338 L-29.65 -7.755 L-29.65 -6.173 L-29.65 -4.591 L-29.65 -3.009 L-29.65 -1.427 L-29.65 0.1554 L-29.65 1.738 L-29.65 3.32 L-29.65 4.902 L-29.65 6.484 L-29.65 8.066 L-29.65 9.648 L-29.65 11.23 L-29.65 12.81 L-29.65 14.39 L-29.65 15.98 L-29.65 17.56 L-29.65 19.14 L-29.65 20.72 L-29.65 22.31 L-29.65 23.89 L-29.65 25.47 L-29.65 27.05 L-29.65 28.63 L-29.65 30.22 L-29.65 31.8 L-29.65 33.38 L-29.65 34.96 L-29.65 36.55 L-29.65 38.13 Z " />
<path stroke="rgb(0,0,0)" stroke-opacity="1" fill="rgb(255,255,255)" fill-opacity="1" id="a7_1_" d="M144.3 -84.25 L142.4 -85.05 L140.6 -85.85 L138.7 -86.65 L136.8 -87.45 L135 -88.25 L133.1 -89.05 L131.3 -89.85 L129.4 -90.65 L127.5 -91.45 L125.7 -92.25 L123.8 -93.05 L123.8 -95.03 L123.8 -97.02 L123.8 -99 L123.8 -101 L123.8 -103 L123.8 -105 L125.7 -104.1 L127.5 -103.3 L129.4 -102.5 L131.3 -101.7 L133.1 -100.9 L135 -100 L136.8 -99.22 L138.7 -98.4 L140.6 -97.59 L142.4 -96.77 L144.3 -95.95 L144.3 -94 L144.3 -92.05 L144.3 -90.1 L144.3 -88.15 L144.3 -86.2 L144.3 -84.25 Z " />
<path stroke="rgb(0,0,0)" stroke-opacity="1" fill="rgb(255,255,255)" fill-opacity="1" id="a8_1_" d="M141.2 -69.95 L139.3 -70.76 L137.5 -71.57 L135.6 -72.38 L133.7 -73.19 L131.9 -74 L130 -74.8 L128.2 -75.61 L126.3 -76.42 L124.4 -77.23 L122.6 -78.04 L120.7 -78.85 L120.7 -80.82 L120.7 -82.78 L120.7 -84.75 L120.7 -86.72 L120.7 -88.68 L120.7 -90.65 L122.6 -89.85 L124.4 -89.05 L126.3 -88.25 L128.2 -87.45 L130.1 -86.65 L131.9 -85.85 L133.8 -85.05 L135.7 -84.25 L137.6 -83.45 L139.4 -82.65 L141.3 -81.85 L141.3 -79.87 L141.3 -77.88 L141.2 -75.9 L141.2 -73.92 L141.2 -71.93 L141.2 -69.95 Z " />
<path stroke="rgb(0,0,0)" stroke-opacity="1" fill="rgb(255,255,255)" fill-opacity="1" id="a9_1_" d="M134.2 -61.55 L132.3 -62.35 L130.4 -63.15 L128.5 -63.95 L126.5 -64.75 L124.6 -65.55 L122.7 -66.35 L120.8 -67.15 L120.8 -68.95 L120.8 -70.75 L120.7 -72.55 L120.7 -74.35 L120.7 -76.15 L122.6 -75.34 L124.5 -74.52 L126.4 -73.71 L128.4 -72.89 L130.3 -72.08 L132.2 -71.26 L134.1 -70.45 L134.1 -68.23 L134.2 -66 L134.2 -63.77 L134.2 -61.55 Z " />
<path stroke="rgb(0,0,0)" stroke-opacity="1" fill="rgb(255,255,255)" fill-opacity="1" id="a17_1_" d="M34.5 57.65 L32.73 56.71 L30.95 55.78 L29.18 54.84 L27.41 53.9 L25.64 52.97 L23.86 52.03 L22.09 51.1 L20.32 50.16 L18.55 49.22 L16.77 48.29 L15 47.35 L15 45.33 L15 43.32 L15 41.3 L15 39.28 L15 37.27 L15 35.25 L16.77 36.19 L18.55 37.12 L20.32 38.06 L22.09 39 L23.86 39.93 L25.64 40.87 L27.41 41.8 L29.18 42.74 L30.95 43.68 L32.73 44.61 L34.5 45.55 L34.5 47.57 L34.5 49.58 L34.5 51.6 L34.5 53.62 L34.5 55.63 L34.5 57.65 Z " />
<path stroke="rgb(0,0,0)" stroke-opacity="1" fill="rgb(255,255,255)" fill-opacity="1" id="a16_1_" d="M34.5 74.85 L32.73 73.95 L30.95 73.05 L29.18 72.15 L27.41 71.25 L25.64 70.35 L23.86 69.45 L22.09 68.55 L20.32 67.65 L18.55 66.75 L16.77 65.85 L15 64.95 L15 62.98 L15 61.02 L15 59.05 L15 57.08 L15 55.12 L15 53.15 L16.77 54.05 L18.55 54.95 L20.32 55.85 L22.09 56.75 L23.86 57.65 L25.64 58.55 L27.41 59.45 L29.18 60.35 L30.95 61.25 L32.73 62.15 L34.5 63.05 L34.5 65.02 L34.5 66.98 L34.5 68.95 L34.5 70.92 L34.5 72.88 L34.5 74.85 Z " />
<path stroke="rgb(0,0,0)" stroke-opacity="1" fill="rgb(236,216,157)" fill-opacity="1" id="scltrs1_1_" d="M-28.61 44.22 L-30.38 43.3 L-32.14 42.37 L-33.91 41.45 L-35.67 40.53 L-37.44 39.6 L-39.21 38.68 L-40.97 37.75 L-40.97 35.74 L-40.97 33.73 L-40.97 31.72 L-40.97 29.71 L-40.97 27.7 L-40.97 25.69 L-39.21 26.61 L-37.44 27.53 L-35.67 28.46 L-33.91 29.38 L-32.14 30.31 L-30.38 31.23 L-28.61 32.15 L-28.61 34.17 L-28.61 36.18 L-28.61 38.19 L-28.61 40.2 L-28.61 42.21 L-28.61 44.22 Z " />
<path stroke="rgb(0,0,0)" stroke-opacity="1" fill="rgb(244,227,211)" fill-opacity="1" id="a15_1_" d="M119.3 -3.75 L117.4 -4.613 L115.6 -5.475 L113.7 -6.338 L111.8 -7.2 L110 -8.063 L108.1 -8.925 L106.3 -9.788 L104.4 -10.65 L104.4 -12.57 L104.4 -14.49 L104.4 -16.41 L104.4 -18.33 L104.4 -20.25 L106.3 -19.38 L108.1 -18.5 L110 -17.63 L111.8 -16.75 L113.7 -15.88 L115.6 -15 L117.4 -14.13 L119.3 -13.25 L119.3 -11.35 L119.3 -9.45 L119.3 -7.55 L119.3 -5.65 L119.3 -3.75 Z " />
<path stroke="rgb(0,0,0)" stroke-opacity="1" fill="rgb(244,227,211)" fill-opacity="1" id="a14_1_" d="M117.2 4.75 L115.4 3.893 L113.5 3.036 L111.7 2.179 L109.8 1.321 L108 0.4643 L106.1 -0.3929 L104.3 -1.25 L104.3 -3.183 L104.4 -5.117 L104.4 -7.05 L106.2 -6.164 L108.1 -5.279 L109.9 -4.393 L111.7 -3.507 L113.5 -2.621 L115.4 -1.736 L117.2 -0.85 L117.2 1.017 L117.2 2.883 L117.2 4.75 Z " />
<path stroke="rgb(0,0,0)" stroke-opacity="1" fill="rgb(244,227,211)" fill-opacity="1" id="a13_1_" d="M115 24.65 L113.2 23.82 L111.4 22.98 L109.6 22.15 L107.9 21.32 L106.1 20.48 L104.3 19.65 L104.3 17.59 L104.3 15.52 L104.3 13.46 L104.3 11.4 L104.3 9.337 L104.3 7.275 L104.3 5.212 L104.3 3.15 L106.1 3.983 L107.9 4.817 L109.6 5.65 L111.4 6.483 L113.2 7.317 L115 8.15 L115 10.21 L115 12.27 L115 14.34 L115 16.4 L115 18.46 L115 20.52 L115 22.59 L115 24.65 Z " />
<path stroke="rgb(0,0,0)" stroke-opacity="1" fill="rgb(200,200,200)" fill-opacity="1" id="a1_2_" d="M-110.5 -63.45 L-112.2 -64.33 L-114 -65.2 L-115.7 -66.08 L-117.5 -66.96 L-119.2 -67.84 L-121 -68.71 L-122.7 -69.59 L-124.5 -70.47 L-126.2 -71.35 L-128 -72.22 L-129.8 -73.1 L-131.5 -73.98 L-133.3 -74.85 L-135 -75.73 L-136.8 -76.61 L-138.5 -77.49 L-140.3 -78.36 L-142 -79.24 L-143.8 -80.12 L-145.5 -81 L-147.3 -81.87 L-149 -82.75 L-149 -84.61 L-149 -86.47 L-149 -88.33 L-149 -90.19 L-149 -92.05 L-147.3 -91.17 L-145.5 -90.29 L-143.8 -89.4 L-142 -88.52 L-140.3 -87.64 L-138.5 -86.76 L-136.8 -85.88 L-135 -85 L-133.3 -84.11 L-131.5 -83.23 L-129.8 -82.35 L-128 -81.47 L-126.2 -80.59 L-124.5 -79.7 L-122.7 -78.82 L-121 -77.94 L-119.2 -77.06 L-117.5 -76.18 L-115.7 -75.3 L-114 -74.41 L-112.2 -73.53 L-110.5 -72.65 L-110.5 -70.81 L-110.5 -68.97 L-110.5 -67.13 L-110.5 -65.29 L-110.5 -63.45 Z " />
<path stroke="rgb(0,0,0)" stroke-opacity="1" fill="rgb(200,200,200)" fill-opacity="1" id="a4_2_" d="M-89.9 -98.15 L-91.69 -99.04 L-93.49 -99.94 L-95.28 -100.8 L-97.08 -101.7 L-98.87 -102.6 L-100.7 -103.5 L-102.5 -104.4 L-104.3 -105.3 L-106 -106.2 L-107.8 -107.1 L-109.6 -108 L-111.4 -108.9 L-113.2 -109.8 L-115 -110.7 L-116.8 -111.6 L-118.6 -112.5 L-120.4 -113.3 L-122.2 -114.2 L-124 -115.1 L-125.8 -116 L-127.6 -116.9 L-129.4 -117.8 L-131.2 -118.7 L-133 -119.6 L-134.7 -120.5 L-136.5 -121.4 L-138.3 -122.3 L-140.1 -123.2 L-141.9 -124.1 L-143.7 -125 L-145.5 -125.9 L-147.3 -126.8 L-149.1 -127.7 L-149.1 -129.7 L-149.1 -131.7 L-149.1 -133.7 L-149.1 -135.7 L-149.1 -137.7 L-149.1 -139.7 L-149.1 -141.8 L-147.3 -140.9 L-145.5 -140 L-143.7 -139.1 L-141.9 -138.2 L-140.1 -137.3 L-138.3 -136.4 L-136.5 -135.5 L-134.7 -134.6 L-133 -133.7 L-131.2 -132.8 L-129.4 -132 L-127.6 -131.1 L-125.8 -130.2 L-124 -129.3 L-122.2 -128.4 L-120.4 -127.5 L-118.6 -126.6 L-116.8 -125.7 L-115 -124.8 L-113.2 -123.9 L-111.4 -123 L-109.6 -122.2 L-107.8 -121.3 L-106 -120.4 L-104.3 -119.5 L-102.5 -118.6 L-100.7 -117.7 L-98.87 -116.8 L-97.08 -115.9 L-95.28 -115 L-93.49 -114.1 L-91.69 -113.2 L-89.9 -112.3 L-89.9 -110.3 L-89.9 -108.3 L-89.9 -106.3 L-89.9 -104.2 L-89.9 -102.2 L-89.9 -100.2 L-89.9 -98.15 Z " />
<path stroke="rgb(0,0,0)" stroke-opacity="1" fill="rgb(200,200,200)" fill-opacity="1" id="a2_1_" d="M-109.1 -77.55 L-110.9 -78.45 L-112.7 -79.36 L-114.6 -80.26 L-116.4 -81.17 L-118.2 -82.07 L-120 -82.98 L-121.8 -83.88 L-123.6 -84.79 L-125.5 -85.69 L-127.3 -86.6 L-129.1 -87.5 L-130.9 -88.4 L-132.7 -89.31 L-134.6 -90.21 L-136.4 -91.12 L-138.2 -92.02 L-140 -92.93 L-141.8 -93.83 L-143.6 -94.74 L-145.5 -95.64 L-147.3 -96.55 L-149.1 -97.45 L-149.1 -99.39 L-149.1 -101.3 L-149.1 -103.3 L-149.1 -105.2 L-149.1 -107.2 L-147.3 -106.2 L-145.5 -105.3 L-143.6 -104.4 L-141.8 -103.5 L-140 -102.6 L-138.2 -101.7 L-136.4 -100.8 L-134.6 -99.88 L-132.7 -98.97 L-130.9 -98.06 L-129.1 -97.15 L-127.3 -96.24 L-125.5 -95.33 L-123.6 -94.42 L-121.8 -93.51 L-120 -92.6 L-118.2 -91.7 L-116.4 -90.79 L-114.6 -89.88 L-112.7 -88.97 L-110.9 -88.06 L-109.1 -87.15 L-109.1 -85.23 L-109.1 -83.31 L-109.1 -81.39 L-109.1 -79.47 L-109.1 -77.55 Z " />
<path stroke="rgb(0,0,0)" stroke-opacity="1" fill="rgb(200,200,200)" fill-opacity="1" id="a3_1_" d="M-105.8 -91.15 L-107.6 -92.04 L-109.4 -92.93 L-111.2 -93.83 L-113 -94.72 L-114.8 -95.61 L-116.6 -96.5 L-118.4 -97.39 L-120.2 -98.28 L-122 -99.17 L-123.8 -100.1 L-125.6 -101 L-127.4 -101.8 L-129.3 -102.7 L-131.1 -103.6 L-132.9 -104.5 L-134.7 -105.4 L-136.5 -106.3 L-138.3 -107.2 L-140.1 -108.1 L-141.9 -109 L-143.7 -109.9 L-145.5 -110.8 L-147.3 -111.7 L-149.1 -112.5 L-149.1 -114.6 L-149.1 -116.7 L-149.1 -118.8 L-149.1 -120.9 L-149.1 -123 L-147.3 -122.1 L-145.5 -121.2 L-143.7 -120.3 L-141.9 -119.4 L-140.1 -118.5 L-138.3 -117.6 L-136.5 -116.7 L-134.7 -115.8 L-132.9 -114.9 L-131.1 -114 L-129.3 -113.1 L-127.4 -112.3 L-125.6 -111.4 L-123.8 -110.5 L-122 -109.6 L-120.2 -108.7 L-118.4 -107.8 L-116.6 -106.9 L-114.8 -106 L-113 -105.1 L-111.2 -104.2 L-109.4 -103.3 L-107.6 -102.4 L-105.8 -101.5 L-105.8 -99.47 L-105.8 -97.39 L-105.8 -95.31 L-105.8 -93.23 L-105.8 -91.15 Z " />
<path stroke="rgb(0,0,0)" stroke-opacity="1" fill="rgb(244,227,211)" fill-opacity="1" id="a11_1_" d="M-21.4 70.85 L-23.22 70.04 L-25.03 69.23 L-26.85 68.42 L-28.67 67.61 L-30.49 66.79 L-32.31 65.98 L-34.13 65.17 L-35.95 64.36 L-37.76 63.55 L-39.58 62.74 L-41.4 61.93 L-43.22 61.12 L-45.04 60.31 L-46.86 59.49 L-48.68 58.68 L-50.49 57.87 L-52.31 57.06 L-54.13 56.25 L-55.95 55.44 L-57.77 54.63 L-59.59 53.82 L-61.41 53.01 L-63.22 52.19 L-65.04 51.38 L-66.86 50.57 L-68.68 49.76 L-70.5 48.95 L-70.55 47 L-70.6 45.05 L-68.78 45.86 L-66.96 46.68 L-65.14 47.49 L-63.32 48.31 L-61.51 49.12 L-59.69 49.94 L-57.87 50.75 L-56.05 51.57 L-54.23 52.38 L-52.41 53.2 L-50.59 54.01 L-48.78 54.83 L-46.96 55.64 L-45.14 56.46 L-43.32 57.27 L-41.5 58.09 L-39.68 58.9 L-37.86 59.72 L-36.05 60.53 L-34.23 61.35 L-32.41 62.16 L-30.59 62.98 L-28.77 63.79 L-26.95 64.61 L-25.13 65.42 L-23.32 66.24 L-21.5 67.05 L-21.45 68.95 L-21.4 70.85 Z " />
<path stroke="rgb(0,0,0)" stroke-opacity="1" fill="rgb(244,200,200)" fill-opacity="1" id="fus1_1_" d="M-95.5 56.95 L-97.3 56.19 L-99.1 55.43 L-100.9 54.67 L-102.7 53.91 L-104.5 53.15 L-104.5 51.29 L-104.5 49.43 L-104.5 47.57 L-104.5 45.71 L-104.5 43.85 L-102.7 44.61 L-100.9 45.37 L-99.1 46.13 L-97.3 46.89 L-95.5 47.65 L-95.5 49.51 L-95.5 51.37 L-95.5 53.23 L-95.5 55.09 L-95.5 56.95 Z " />
<path stroke="rgb(0,0,0)" stroke-opacity="1" fill="rgb(244,200,200)" fill-opacity="1" id="fus2_1_" d="M-91.75 56.2 L-93.55 55.42 L-95.35 54.64 L-97.15 53.86 L-98.95 53.08 L-100.8 52.3 L-100.7 50.42 L-100.7 48.54 L-100.6 46.66 L-100.6 44.78 L-100.6 42.9 L-98.79 43.66 L-97.03 44.42 L-95.27 45.18 L-93.51 45.94 L-91.75 46.7 L-91.75 48.6 L-91.75 50.5 L-91.75 52.4 L-91.75 54.3 L-91.75 56.2 Z " />
<path stroke="rgb(0,0,0)" stroke-opacity="1" fill="rgb(244,200,200)" fill-opacity="1" id="fus3_1_" d="M-100.6 61.45 L-102.4 60.69 L-104.2 59.93 L-105.9 59.17 L-107.7 58.41 L-109.5 57.65 L-109.5 55.79 L-109.5 53.93 L-109.5 52.07 L-109.5 50.21 L-109.5 48.35 L-107.7 49.11 L-105.9 49.87 L-104.1 50.63 L-102.3 51.39 L-100.5 52.15 L-100.5 54.01 L-100.5 55.87 L-100.6 57.73 L-100.6 59.59 L-100.6 61.45 Z " />
<path stroke="rgb(0,0,0)" stroke-opacity="1" fill="rgb(244,200,200)" fill-opacity="1" id="fus4_1_" d="M-91.5 65.45 L-93.3 64.67 L-95.1 63.89 L-96.9 63.11 L-98.7 62.33 L-100.5 61.55 L-100.5 59.69 L-100.5 57.83 L-100.5 55.97 L-100.5 54.11 L-100.5 52.25 L-98.7 53.03 L-96.9 53.81 L-95.1 54.59 L-93.3 55.37 L-91.5 56.15 L-91.5 58.01 L-91.5 59.87 L-91.5 61.73 L-91.5 63.59 L-91.5 65.45 Z " />
<path stroke="rgb(0,0,0)" stroke-opacity="1" fill="rgb(173,200,200)" fill-opacity="1" id="swap1_1_" d="M37.59 -109.3 L35.77 -110.2 L33.95 -111.2 L32.13 -112.1 L30.31 -113.1 L28.49 -114.1 L26.67 -115 L24.85 -116 L23.03 -116.9 L21.21 -117.9 L19.39 -118.9 L19.4 -120.9 L19.42 -122.9 L19.43 -124.9 L19.44 -126.9 L19.45 -128.9 L19.46 -130.9 L19.47 -132.9 L19.48 -134.9 L19.49 -137 L21.31 -136 L23.13 -135 L24.95 -134 L26.77 -133.1 L28.59 -132.1 L30.41 -131.1 L32.23 -130.2 L34.05 -129.2 L35.87 -128.2 L37.69 -127.3 L37.68 -125.3 L37.67 -123.3 L37.66 -121.3 L37.65 -119.3 L37.64 -117.3 L37.63 -115.3 L37.62 -113.3 L37.6 -111.3 L37.59 -109.3 Z " />
<path stroke="rgb(0,0,0)" stroke-opacity="1" fill="rgb(173,200,200)" fill-opacity="1" id="swap3_1_" d="M20.8 -127.6 L18.98 -128.6 L17.16 -129.5 L15.34 -130.5 L13.52 -131.4 L11.7 -132.4 L9.88 -133.4 L8.06 -134.3 L6.24 -135.3 L4.42 -136.2 L2.6 -137.2 L2.611 -139.2 L2.622 -141.2 L2.633 -143.2 L2.644 -145.3 L2.656 -147.3 L2.667 -149.3 L2.678 -151.3 L2.689 -153.3 L2.7 -155.3 L4.52 -154.3 L6.34 -153.4 L8.16 -152.4 L9.98 -151.5 L11.8 -150.5 L13.62 -149.5 L15.44 -148.6 L17.26 -147.6 L19.08 -146.7 L20.9 -145.7 L20.89 -143.7 L20.88 -141.7 L20.87 -139.7 L20.86 -137.7 L20.84 -135.7 L20.83 -133.6 L20.82 -131.6 L20.81 -129.6 L20.8 -127.6 Z " />
<path stroke="rgb(0,0,0)" stroke-opacity="1" fill="rgb(173,200,200)" fill-opacity="1" id="swap2_1_" d="M4.107 -122.5 L2.287 -123.5 L0.4665 -124.5 L-1.353 -125.4 L-3.173 -126.4 L-4.993 -127.3 L-6.813 -128.3 L-8.633 -129.3 L-10.45 -130.2 L-12.27 -131.2 L-14.09 -132.1 L-14.08 -134.2 L-14.07 -136.2 L-14.06 -138.2 L-14.05 -140.2 L-14.04 -142.2 L-14.03 -144.2 L-14.02 -146.2 L-14 -148.2 L-13.99 -150.2 L-12.16 -149.3 L-10.33 -148.3 L-8.503 -147.4 L-6.673 -146.4 L-4.843 -145.4 L-3.013 -144.5 L-1.183 -143.5 L0.6465 -142.6 L2.477 -141.6 L4.307 -140.6 L4.284 -138.6 L4.262 -136.6 L4.24 -134.6 L4.218 -132.6 L4.195 -130.6 L4.173 -128.6 L4.151 -126.6 L4.129 -124.6 L4.107 -122.5 Z " />
<path stroke="rgb(0,0,0)" stroke-opacity="1" fill="rgb(173,200,200)" fill-opacity="1" id="swap4_1_" d="M20.7 -104.5 L18.88 -105.5 L17.06 -106.5 L15.24 -107.4 L13.42 -108.4 L11.6 -109.4 L9.78 -110.4 L7.96 -111.4 L6.14 -112.3 L4.32 -113.3 L2.5 -114.3 L2.511 -116.3 L2.522 -118.3 L2.533 -120.3 L2.544 -122.3 L2.556 -124.3 L2.567 -126.3 L2.578 -128.3 L2.589 -130.3 L2.6 -132.3 L4.43 -131.3 L6.26 -130.4 L8.09 -129.4 L9.92 -128.4 L11.75 -127.4 L13.58 -126.5 L15.41 -125.5 L17.24 -124.5 L19.07 -123.6 L20.9 -122.6 L20.88 -120.6 L20.86 -118.6 L20.83 -116.6 L20.81 -114.5 L20.79 -112.5 L20.77 -110.5 L20.74 -108.5 L20.72 -106.5 L20.7 -104.5 Z " />
<path stroke="rgb(0,0,0)" stroke-opacity="1" fill="rgb(244,227,211)" fill-opacity="1" id="a10_5_" d="M40 -46.65 L38.24 -45.63 L36.48 -44.6 L34.71 -43.57 L32.95 -42.55 L31.19 -41.53 L29.42 -40.5 L27.66 -39.48 L25.9 -38.45 L24.14 -37.43 L22.37 -36.4 L20.61 -35.38 L18.85 -34.35 L17.09 -33.33 L15.32 -32.3 L13.56 -31.28 L11.8 -30.25 L10.04 -31.28 L8.275 -32.3 L6.512 -33.33 L4.75 -34.35 L2.987 -35.38 L1.225 -36.4 L-0.5375 -37.43 L-2.3 -38.45 L-4.063 -39.48 L-5.825 -40.5 L-7.587 -41.53 L-9.35 -42.55 L-11.11 -43.57 L-12.87 -44.6 L-14.64 -45.63 L-16.4 -46.65 L-14.64 -47.68 L-12.87 -48.7 L-11.11 -49.72 L-9.35 -50.75 L-7.587 -51.77 L-5.825 -52.8 L-4.063 -53.82 L-2.3 -54.85 L-0.5375 -55.87 L1.225 -56.9 L2.987 -57.92 L4.75 -58.95 L6.512 -59.97 L8.275 -61 L10.04 -62.02 L11.8 -63.05 L13.56 -62.02 L15.32 -61 L17.09 -59.97 L18.85 -58.95 L20.61 -57.92 L22.37 -56.9 L24.14 -55.87 L25.9 -54.85 L27.66 -53.82 L29.42 -52.8 L31.19 -51.77 L32.95 -50.75 L34.71 -49.72 L36.48 -48.7 L38.24 -47.68 L40 -46.65 Z " />
<path stroke="rgb(0,0,0)" stroke-opacity="1" fill="rgb(244,227,211)" fill-opacity="1" id="a10_4_" d="M40.5 -11.85 L40.5 -13.85 L40.5 -15.85 L40.5 -17.85 L40.5 -19.85 L40.5 -21.85 L40.5 -23.85 L40.5 -25.85 L40.5 -27.85 L40.5 -29.85 L40.5 -31.85 L40.5 -33.85 L40.5 -35.85 L40.5 -37.85 L40.5 -39.85 L40.5 -41.85 L40.5 -43.85 L40.5 -45.85 L38.74 -44.83 L36.98 -43.8 L35.21 -42.78 L33.45 -41.75 L31.69 -40.73 L29.92 -39.7 L28.16 -38.68 L26.4 -37.65 L24.64 -36.62 L22.87 -35.6 L21.11 -34.57 L19.35 -33.55 L17.59 -32.52 L15.82 -31.5 L14.06 -30.47 L12.3 -29.45 L12.3 -27.44 L12.3 -25.44 L12.3 -23.43 L12.3 -21.43 L12.3 -19.42 L12.3 -17.42 L12.3 -15.41 L12.3 -13.41 L12.3 -11.4 L12.3 -9.397 L12.3 -7.392 L12.3 -5.387 L12.3 -3.382 L12.3 -1.376 L12.3 0.6289 L12.3 2.634 L12.3 4.639 L12.3 6.645 L12.3 8.65 L13.96 7.444 L15.62 6.238 L17.28 5.032 L18.94 3.826 L20.59 2.621 L22.25 1.415 L23.91 0.2088 L25.57 -0.9971 L27.23 -2.203 L28.89 -3.409 L30.55 -4.615 L32.21 -5.821 L33.86 -7.026 L35.52 -8.232 L37.18 -9.438 L38.84 -10.64 L40.5 -11.85 Z " />
<path stroke="rgb(0,0,0)" stroke-opacity="1" fill="rgb(244,227,211)" fill-opacity="1" id="a10_3_" d="M-16.8 -45.85 L-16.8 -43.85 L-16.8 -41.85 L-16.8 -39.85 L-16.8 -37.85 L-16.8 -35.85 L-16.8 -33.85 L-16.8 -31.85 L-16.8 -29.85 L-16.8 -27.85 L-16.8 -25.85 L-16.8 -23.85 L-16.8 -21.85 L-16.8 -19.85 L-16.8 -17.85 L-16.8 -15.85 L-16.8 -13.85 L-16.8 -11.85 L-15.14 -10.64 L-13.48 -9.438 L-11.82 -8.232 L-10.16 -7.026 L-8.506 -5.821 L-6.847 -4.615 L-5.188 -3.409 L-3.529 -2.203 L-1.871 -0.9971 L-0.2118 0.2088 L1.447 1.415 L3.106 2.621 L4.765 3.826 L6.424 5.032 L8.082 6.238 L9.741 7.444 L11.4 8.65 L11.4 6.645 L11.4 4.639 L11.4 2.634 L11.4 0.6289 L11.4 -1.376 L11.4 -3.382 L11.4 -5.387 L11.4 -7.392 L11.4 -9.397 L11.4 -11.4 L11.4 -13.41 L11.4 -15.41 L11.4 -17.42 L11.4 -19.42 L11.4 -21.43 L11.4 -23.43 L11.4 -25.44 L11.4 -27.44 L11.4 -29.45 L9.637 -30.47 L7.875 -31.5 L6.112 -32.52 L4.35 -33.55 L2.587 -34.57 L0.825 -35.6 L-0.9375 -36.62 L-2.7 -37.65 L-4.462 -38.68 L-6.225 -39.7 L-7.987 -40.73 L-9.75 -41.75 L-11.51 -42.78 L-13.27 -43.8 L-15.04 -44.83 L-16.8 -45.85 Z " />
<path stroke="rgb(0,0,0)" stroke-opacity="1" fill="rgb(200,200,200)" fill-opacity="1" id="circ1_5_" d="M-62.5 12.98 L-64.08 13.9 L-65.66 14.82 L-67.24 15.74 L-68.82 16.66 L-70.4 17.58 L-71.98 16.66 L-73.56 15.74 L-75.14 14.82 L-76.72 13.9 L-78.3 12.98 L-76.72 12.06 L-75.14 11.14 L-73.56 10.22 L-71.98 9.298 L-70.4 8.378 L-68.82 9.298 L-67.24 10.22 L-65.66 11.14 L-64.08 12.06 L-62.5 12.98 Z " />
<path stroke="rgb(0,0,0)" stroke-opacity="1" fill="rgb(200,200,200)" fill-opacity="1" id="circ1_4_" d="M-62.4 22.78 L-62.4 20.88 L-62.4 18.98 L-62.4 17.08 L-62.4 15.18 L-62.4 13.28 L-63.98 14.18 L-65.56 15.08 L-67.14 15.98 L-68.72 16.88 L-70.3 17.78 L-70.3 19.92 L-70.3 22.06 L-70.3 24.2 L-70.3 26.34 L-70.3 28.48 L-68.72 27.34 L-67.14 26.2 L-65.56 25.06 L-63.98 23.92 L-62.4 22.78 Z " />
<path stroke="rgb(0,0,0)" stroke-opacity="1" fill="rgb(200,200,200)" fill-opacity="1" id="circ1_3_" d="M-78.5 13.28 L-78.5 15.18 L-78.5 17.08 L-78.5 18.98 L-78.5 20.88 L-78.5 22.78 L-76.92 23.92 L-75.34 25.06 L-73.76 26.2 L-72.18 27.34 L-70.6 28.48 L-70.6 26.34 L-70.6 24.2 L-70.6 22.06 L-70.6 19.92 L-70.6 17.78 L-72.18 16.88 L-73.76 15.98 L-75.34 15.08 L-76.92 14.18 L-78.5 13.28 Z " />
<path stroke="rgb(0,0,0)" stroke-opacity="1" fill="rgb(200,200,200)" fill-opacity="1" id="circ2_5_" d="M-98.6 -40.88 L-100.2 -39.96 L-101.8 -39.04 L-103.3 -38.12 L-104.9 -37.2 L-106.5 -36.28 L-108.1 -37.2 L-109.7 -38.12 L-111.2 -39.04 L-112.8 -39.96 L-114.4 -40.88 L-112.8 -41.78 L-111.2 -42.68 L-109.7 -43.58 L-108.1 -44.48 L-106.5 -45.38 L-104.9 -44.48 L-103.3 -43.58 L-101.8 -42.68 L-100.2 -41.78 L-98.6 -40.88 Z " />
<path stroke="rgb(0,0,0)" stroke-opacity="1" fill="rgb(200,200,200)" fill-opacity="1" id="circ2_4_" d="M-98.5 -31.08 L-98.5 -32.98 L-98.5 -34.88 L-98.5 -36.78 L-98.5 -38.68 L-98.5 -40.58 L-100.1 -39.66 L-101.7 -38.74 L-103.2 -37.82 L-104.8 -36.9 L-106.4 -35.98 L-106.4 -33.86 L-106.4 -31.74 L-106.4 -29.62 L-106.4 -27.5 L-106.4 -25.38 L-104.8 -26.52 L-103.2 -27.66 L-101.7 -28.8 L-100.1 -29.94 L-98.5 -31.08 Z " />
<path stroke="rgb(0,0,0)" stroke-opacity="1" fill="rgb(200,200,200)" fill-opacity="1" id="circ2_3_" d="M-114.6 -40.58 L-114.6 -38.68 L-114.6 -36.78 L-114.6 -34.88 L-114.6 -32.98 L-114.6 -31.08 L-113 -29.94 L-111.4 -28.8 L-109.9 -27.66 L-108.3 -26.52 L-106.7 -25.38 L-106.7 -27.5 L-106.7 -29.62 L-106.7 -31.74 L-106.7 -33.86 L-106.7 -35.98 L-108.3 -36.9 L-109.9 -37.82 L-111.4 -38.74 L-113 -39.66 L-114.6 -40.58 Z " />
<path stroke="rgb(0,0,0)" stroke-opacity="1" fill="rgb(148,200,200)" fill-opacity="1" id="bb1" d="M108.9 -38.49 L109.1 -40.48 L109.2 -42.47 L109.4 -44.46 L109.5 -46.45 L109.7 -48.44 L109.8 -50.43 L110 -52.42 L110.1 -54.41 L110.3 -56.4 L110.4 -58.39 L110.6 -60.38 L110.7 -62.37 L110.9 -64.36 L111 -66.35 L111.2 -68.34 L111.3 -70.33 L111.5 -72.32 L110 -73.66 L108.4 -75.01 L106.9 -76.36 L105.4 -77.7 L103.8 -79.05 L102.3 -80.39 L100.8 -81.74 L99.22 -83.08 L97.68 -84.43 L96.15 -85.77 L94.61 -87.12 L93.08 -88.47 L91.16 -87.75 L89.25 -87.03 L87.33 -86.32 L85.42 -85.6 L83.5 -84.88 L81.59 -84.16 L79.67 -83.45 L77.76 -82.73 L75.84 -82.01 L73.93 -81.3 L72.01 -80.58 L70.1 -79.86 L68.18 -79.15 L66.27 -78.43 L64.35 -77.71 L63.18 -76.06 L62.01 -74.41 L60.84 -72.76 L59.66 -71.11 L58.49 -69.45 L57.32 -67.8 L56.15 -66.15 L54.97 -64.5 L53.8 -62.85 L52.63 -61.2 L51.45 -59.54 L50.28 -57.89 L49.11 -56.24 L47.94 -54.59 L46.76 -52.94 L45.59 -51.29 L44.42 -49.63 L43.25 -47.98 L42.07 -46.33 L41.92 -44.34 L41.77 -42.35 L41.62 -40.36 L41.46 -38.37 L41.31 -36.38 L41.16 -34.39 L41.01 -32.4 L40.85 -30.41 L40.7 -28.42 L40.55 -26.43 L40.4 -24.44 L40.24 -22.45 L40.09 -20.46 L39.94 -18.47 L39.79 -16.48 L39.63 -14.49 L39.48 -12.5 L41.02 -11.14 L42.56 -9.782 L44.1 -8.42 L45.64 -7.059 L47.19 -5.698 L48.73 -4.337 L50.27 -2.976 L51.81 -1.615 L53.35 -0.2536 L54.89 1.108 L56.43 2.469 L57.97 3.83 L59.89 3.113 L61.8 2.396 L63.72 1.679 L65.63 0.9624 L67.55 0.2455 L69.46 -0.4713 L71.38 -1.188 L73.29 -1.905 L75.2 -2.622 L77.12 -3.339 L79.03 -4.056 L80.95 -4.773 L82.86 -5.489 L84.78 -6.206 L86.69 -6.923 L87.86 -8.585 L89.03 -10.25 L90.2 -11.91 L91.37 -13.57 L92.54 -15.23 L93.71 -16.89 L94.88 -18.55 L96.05 -20.22 L97.22 -21.88 L98.38 -23.54 L99.55 -25.2 L100.7 -26.86 L101.9 -28.52 L103.1 -30.19 L104.2 -31.85 L105.4 -33.51 L106.6 -35.17 L107.7 -36.83 L108.9 -38.49 Z " />
<path stroke="rgb(0,0,0)" stroke-opacity="1" fill="rgb(236,216,157)" fill-opacity="1" id="scltrs1" d="M-161.8 4.265 L-163 5.764 L-164.2 7.263 L-165.4 8.762 L-166.5 10.26 L-167.7 11.76 L-168.9 13.26 L-170.1 14.76 L-171.3 16.26 L-172.5 17.76 L-173.6 19.26 L-174.8 20.75 L-176 22.25 L-177.2 23.75 L-178.4 25.25 L-179.5 26.75 L-180.7 28.25 L-181.9 29.75 L-183.1 31.25 L-184.3 32.75 L-185.5 34.25 L-186.6 35.75 L-187.8 37.24 L-189 38.74 L-190.2 40.24 L-191.4 41.74 L-192.6 43.24 L-193.7 44.74 L-194.9 46.24 L-196.1 47.74 L-197.3 49.24 L-198.5 50.74 L-199.7 52.24 L-200.8 53.73 L-202 55.23 L-203.2 56.73 L-204.4 58.23 L-202.6 59.04 L-200.9 59.86 L-199.2 60.67 L-197.4 61.48 L-195.7 62.29 L-194 63.1 L-192.2 63.91 L-190.5 64.73 L-188.7 65.54 L-187 66.35 L-185.3 67.16 L-183.5 67.97 L-181.8 68.78 L-180.1 69.6 L-178.3 70.41 L-176.6 71.22 L-174.8 72.03 L-173.1 72.84 L-171.4 73.65 L-169.6 74.47 L-167.9 75.28 L-166.2 76.09 L-164.4 76.9 L-162.7 77.71 L-160.9 78.53 L-159.2 79.34 L-157.5 80.15 L-155.7 80.96 L-154 81.77 L-152.2 82.58 L-150.5 83.4 L-148.8 84.21 L-147 85.02 L-145.3 85.83 L-143.6 86.64 L-141.8 87.45 L-140.1 88.27 L-138.3 89.08 L-136.6 89.89 L-134.9 90.7 L-133.1 91.51 L-131.4 92.32 L-129.7 93.14 L-127.9 93.95 L-126.2 94.76 L-124.4 95.57 L-122.7 96.38 L-121 97.2 L-119.2 98.01 L-120 96.24 L-120.8 94.47 L-121.6 92.7 L-122.4 90.93 L-123.2 89.16 L-124.1 87.39 L-124.9 85.63 L-125.7 83.86 L-126.5 82.09 L-127.3 80.32 L-128.1 78.55 L-128.9 76.78 L-129.7 75.01 L-130.5 73.24 L-131.3 71.48 L-132.1 69.71 L-132.9 67.94 L-133.7 66.17 L-134.5 64.4 L-135.3 62.63 L-136.1 60.86 L-136.9 59.1 L-137.7 57.33 L-138.5 55.56 L-139.3 53.79 L-140.1 52.02 L-140.9 50.25 L-141.7 48.48 L-142.5 46.71 L-143.3 44.95 L-144.1 43.18 L-144.9 41.41 L-145.7 39.64 L-146.5 37.87 L-147.3 36.1 L-148.2 34.33 L-149 32.56 L-149.8 30.8 L-150.6 29.03 L-151.4 27.26 L-152.2 25.49 L-153 23.72 L-153.8 21.95 L-154.6 20.18 L-155.4 18.41 L-156.2 16.65 L-157 14.88 L-157.8 13.11 L-158.6 11.34 L-159.4 9.571 L-160.2 7.803 L-161 6.034 L-161.8 4.265 Z " />
<path stroke="rgb(0,0,0)" stroke-opacity="1" fill="rgb(255,255,255)" fill-opacity="1" id="a5" d="M-77.89 134.3 L-78 136.7 L-78.31 138.8 L-78.83 140.8 L-79.53 142.7 L-80.41 144.4 L-81.46 145.8 L-82.67 147.2 L-84.04 148.3 L-85.54 149.2 L-87.18 150 L-88.95 150.5 L-90.83 150.8 L-92.81 150.9 L-94.89 150.9 L-97.06 150.5 L-99.31 150 L-101.6 149.2 L-104 148.2 L-105.8 147.4 L-107.5 146.4 L-109.2 145.3 L-110.9 144.1 L-112.6 142.8 L-114.1 141.5 L-115.7 140.1 L-117.2 138.6 L-118.6 137 L-119.9 135.4 L-121.2 133.7 L-122.4 132 L-123.6 130.3 L-124.7 128.5 L-125.6 126.7 L-126.5 124.9 L-127.3 123 L-128 121.2 L-128.7 119.3 L-129.2 117.4 L-129.6 115.6 L-129.9 113.7 L-130 111.9 L-130.1 110 L-130 107.7 L-129.7 105.6 L-129.2 103.6 L-128.5 101.7 L-127.6 100 L-126.5 98.56 L-125.3 97.25 L-124 96.12 L-122.4 95.19 L-120.8 94.45 L-119 93.91 L-117.2 93.58 L-115.2 93.45 L-113.1 93.54 L-110.9 93.85 L-108.7 94.39 L-106.4 95.15 L-104 96.15 L-102.2 97.04 L-100.5 98.03 L-98.74 99.12 L-97.06 100.3 L-95.43 101.6 L-93.84 102.9 L-92.31 104.3 L-90.83 105.8 L-89.41 107.4 L-88.05 109 L-86.76 110.7 L-85.54 112.4 L-84.4 114.1 L-83.34 115.9 L-82.36 117.7 L-81.46 119.5 L-80.66 121.4 L-79.95 123.2 L-79.34 125.1 L-78.83 127 L-78.42 128.8 L-78.13 130.7 L-77.95 132.5 L-77.89 134.3 Z " />
<path stroke="rgb(0,0,0)" stroke-opacity="1" fill="rgb(255,255,255)" fill-opacity="1" id="a17" d="M-96 -133.5 L-97.21 -132 L-98.42 -130.5 L-99.62 -129 L-100.8 -127.4 L-102 -125.9 L-103.2 -124.4 L-104.5 -122.8 L-105.7 -121.3 L-106.9 -119.8 L-108.1 -118.2 L-109.3 -116.7 L-110.5 -115.2 L-111.7 -113.7 L-109.9 -112.8 L-108 -111.9 L-106.2 -111.1 L-104.3 -110.2 L-102.5 -109.3 L-100.6 -108.5 L-98.77 -107.6 L-96.92 -106.7 L-95.08 -105.9 L-93.23 -105 L-91.38 -104.1 L-89.54 -103.3 L-87.69 -102.4 L-85.84 -101.5 L-83.99 -100.7 L-82.15 -99.81 L-80.3 -98.95 L-81.13 -100.8 L-81.95 -102.6 L-82.78 -104.4 L-83.61 -106.2 L-84.43 -108.1 L-85.26 -109.9 L-86.08 -111.7 L-86.91 -113.5 L-87.74 -115.3 L-88.56 -117.2 L-89.39 -119 L-90.22 -120.8 L-91.04 -122.6 L-91.87 -124.4 L-92.69 -126.3 L-93.52 -128.1 L-94.35 -129.9 L-95.17 -131.7 L-96 -133.5 Z " />
<path stroke="rgb(0,0,0)" stroke-opacity="1" fill="rgb(255,255,255)" fill-opacity="1" id="a16" d="M-96 -75.95 L-94.79 -77.48 L-93.58 -79.01 L-92.38 -80.54 L-91.17 -82.07 L-89.96 -83.6 L-88.75 -85.13 L-87.55 -86.67 L-86.34 -88.2 L-85.13 -89.73 L-83.92 -91.26 L-82.72 -92.79 L-81.51 -94.32 L-80.3 -95.85 L-82.15 -96.71 L-83.99 -97.57 L-85.84 -98.43 L-87.69 -99.29 L-89.54 -100.1 L-91.38 -101 L-93.23 -101.9 L-95.08 -102.7 L-96.92 -103.6 L-98.77 -104.4 L-100.6 -105.3 L-102.5 -106.2 L-104.3 -107 L-106.2 -107.9 L-108 -108.7 L-109.9 -109.6 L-111.7 -110.5 L-110.9 -108.6 L-110 -106.8 L-109.2 -105 L-108.4 -103.2 L-107.6 -101.4 L-106.7 -99.56 L-105.9 -97.74 L-105.1 -95.92 L-104.3 -94.11 L-103.4 -92.29 L-102.6 -90.48 L-101.8 -88.66 L-101 -86.84 L-100.1 -85.03 L-99.31 -83.21 L-98.48 -81.4 L-97.65 -79.58 L-96.83 -77.77 L-96 -75.95 Z " />
<path stroke="rgb(0,0,0)" stroke-opacity="1" fill="rgb(173,200,200)" fill-opacity="1" id="swap2" d="M-56.69 -64.95 L-56.95 -62.83 L-57.67 -61.12 L-58.81 -59.85 L-60.31 -59.05 L-62.11 -58.74 L-64.16 -58.97 L-66.39 -59.75 L-68.15 -60.72 L-69.8 -61.94 L-71.31 -63.36 L-72.66 -64.95 L-73.83 -66.67 L-74.78 -68.47 L-75.49 -70.31 L-75.94 -72.15 L-76.09 -73.95 L-75.84 -76.04 L-75.12 -77.73 L-73.98 -79.01 L-72.48 -79.82 L-70.68 -80.14 L-68.63 -79.93 L-66.39 -79.15 L-64.64 -78.18 L-62.99 -76.97 L-61.48 -75.56 L-60.13 -73.98 L-58.96 -72.27 L-58.01 -70.47 L-57.3 -68.63 L-56.85 -66.78 L-56.69 -64.95 Z " />
<path stroke="rgb(0,0,0)" stroke-opacity="1" fill="rgb(173,200,200)" fill-opacity="1" id="swap4" d="M-33.4 -47.09 L-33.65 -44.97 L-34.38 -43.26 L-35.52 -41.99 L-37.02 -41.19 L-38.82 -40.89 L-40.86 -41.11 L-43.1 -41.89 L-44.85 -42.87 L-46.5 -44.08 L-48.01 -45.51 L-49.37 -47.1 L-50.53 -48.81 L-51.49 -50.61 L-52.2 -52.45 L-52.65 -54.29 L-52.8 -56.09 L-52.55 -58.21 L-51.82 -59.92 L-50.68 -61.2 L-49.18 -62 L-47.38 -62.3 L-45.34 -62.08 L-43.1 -61.29 L-41.35 -60.33 L-39.7 -59.12 L-38.19 -57.7 L-36.83 -56.12 L-35.67 -54.42 L-34.71 -52.62 L-34 -50.78 L-33.55 -48.92 L-33.4 -47.09 Z " />
<path stroke="rgb(0,0,0)" stroke-opacity="1" fill="rgb(173,200,200)" fill-opacity="1" id="swap3" d="M-33.4 -63.21 L-33.65 -61.09 L-34.38 -59.38 L-35.52 -58.1 L-37.02 -57.3 L-38.82 -57 L-40.86 -57.22 L-43.1 -58.01 L-44.85 -58.98 L-46.5 -60.2 L-48.01 -61.62 L-49.37 -63.21 L-50.53 -64.93 L-51.49 -66.72 L-52.2 -68.56 L-52.65 -70.41 L-52.8 -72.21 L-52.55 -74.29 L-51.82 -75.99 L-50.68 -77.26 L-49.18 -78.08 L-47.38 -78.4 L-45.34 -78.18 L-43.1 -77.41 L-41.35 -76.44 L-39.7 -75.23 L-38.19 -73.81 L-36.83 -72.23 L-35.67 -70.53 L-34.71 -68.73 L-34 -66.89 L-33.55 -65.03 L-33.4 -63.21 Z " />
<path stroke="rgb(0,0,0)" stroke-opacity="1" fill="rgb(173,200,200)" fill-opacity="1" id="swap1" d="M-9.707 -46.35 L-9.96 -44.23 L-10.68 -42.52 L-11.82 -41.25 L-13.32 -40.45 L-15.12 -40.14 L-17.17 -40.37 L-19.41 -41.15 L-21.16 -42.12 L-22.81 -43.34 L-24.32 -44.77 L-25.67 -46.36 L-26.84 -48.07 L-27.79 -49.87 L-28.5 -51.71 L-28.95 -53.55 L-29.11 -55.35 L-28.85 -57.44 L-28.13 -59.14 L-26.99 -60.41 L-25.49 -61.22 L-23.69 -61.54 L-21.64 -61.33 L-19.41 -60.55 L-17.65 -59.58 L-16 -58.36 L-14.49 -56.94 L-13.14 -55.35 L-11.97 -53.63 L-11.02 -51.83 L-10.31 -49.99 L-9.861 -48.15 L-9.707 -46.35 Z " />
<path stroke="rgb(0,0,0)" stroke-opacity="1" fill="rgb(255,255,255)" fill-opacity="1" id="secscl1" d="M-1.067 120.5 L-2.553 119.8 L-4.039 119.1 L-5.524 118.4 L-7.01 117.7 L-8.496 117 L-9.982 116.3 L-11.47 115.6 L-12.95 114.9 L-14.44 114.3 L-15.93 113.6 L-17.41 112.9 L-18.9 112.2 L-20.38 111.5 L-21.87 110.8 L-22.9 112.1 L-23.93 113.4 L-24.97 114.7 L-26 116 L-27.03 117.4 L-28.06 118.7 L-29.09 120 L-30.13 121.3 L-31.16 122.6 L-32.19 123.9 L-31.54 125.3 L-30.9 126.8 L-30.25 128.2 L-29.61 129.6 L-28.96 131 L-28.32 132.4 L-27.67 133.9 L-27.03 135.3 L-26.38 136.7 L-25.74 138.1 L-25.09 139.5 L-24.45 141 L-23.8 142.4 L-23.16 143.8 L-22.51 145.2 L-21.87 146.6 L-20.38 147.3 L-18.9 148 L-17.41 148.7 L-15.93 149.4 L-14.44 150.1 L-12.95 150.8 L-11.47 151.4 L-9.982 152.1 L-8.496 152.8 L-7.01 153.5 L-5.524 154.2 L-4.039 154.9 L-2.553 155.6 L-1.067 156.2 L-0.03473 154.9 L0.9974 153.6 L2.029 152.3 L3.062 151 L4.094 149.7 L5.126 148.4 L6.158 147.1 L7.19 145.8 L8.222 144.5 L9.254 143.2 L8.609 141.8 L7.964 140.4 L7.319 138.9 L6.674 137.5 L6.029 136.1 L5.384 134.7 L4.739 133.3 L4.094 131.8 L3.449 130.4 L2.804 129 L2.158 127.6 L1.513 126.2 L0.8684 124.7 L0.2233 123.3 L-0.4218 121.9 L-1.067 120.5 Z " />
</g>
</g>
</svg>
