<!DOCTYPE svg>
<svg xmlns="http://www.w3.org/2000/svg" xmlns:xlink="http://www.w3.org/1999/xlink" width="1080" height="1080">
<g transform="translate(540.000000,540.000000)">
<g transform="scale(2,2)">
<path stroke="rgb(0,0,0)" stroke-opacity="1" fill="rgb(148,200,200)" fill-opacity="1" id="bb1_2_" d="M-169.5 0.838 L-168.7 -1.007 L-168 -2.853 L-167.2 -4.698 L-166.5 -6.543 L-165.8 -8.389 L-165 -10.23 L-164.3 -12.08 L-163.5 -13.92 L-162.8 -15.77 L-162 -17.62 L-161.3 -19.46 L-160.5 -21.31 L-159.8 -23.15 L-159 -25 L-158.3 -26.84 L-157.5 -28.69 L-156.8 -30.53 L-156 -32.38 L-155.3 -34.22 L-154.5 -36.07 L-153.8 -37.91 L-153 -39.76 L-152.3 -41.6 L-151.5 -43.45 L-150.8 -45.29 L-150 -47.14 L-149.3 -48.99 L-148.5 -50.83 L-147.8 -52.68 L-145.8 -52.73 L-143.7 -52.79 L-141.7 -52.85 L-139.7 -52.91 L-137.7 -52.97 L-135.7 -53.02 L-133.7 -53.08 L-131.7 -53.14 L-129.7 -53.2 L-127.7 -53.26 L-125.6 -53.31 L-123.6 -53.37 L-121.6 -53.43 L-119.6 -53.49 L-117.6 -53.55 L-115.6 -53.6 L-113.6 -53.66 L-111.6 -53.72 L-109.5 -53.78 L-107.5 -53.84 L-105.5 -53.89 L-103.5 -53.95 L-101.5 -54.01 L-99.49 -54.07 L-97.48 -54.13 L-95.47 -54.18 L-93.46 -54.24 L-94.21 -52.4 L-94.95 -50.55 L-95.7 -48.71 L-96.45 -46.86 L-97.2 -45.01 L-97.95 -43.17 L-98.7 -41.32 L-99.45 -39.48 L-100.2 -37.63 L-100.9 -35.79 L-101.7 -33.94 L-102.4 -32.1 L-103.2 -30.25 L-103.9 -28.41 L-104.7 -26.56 L-105.4 -24.72 L-106.2 -22.87 L-106.9 -21.03 L-107.7 -19.18 L-108.4 -17.34 L-109.2 -15.49 L-109.9 -13.64 L-110.7 -11.8 L-111.4 -9.954 L-112.2 -8.109 L-112.9 -6.263 L-113.7 -4.418 L-114.4 -2.573 L-115.2 -0.7275 L-117.2 -0.6696 L-119.2 -0.6116 L-121.2 -0.5536 L-123.2 -0.4956 L-125.2 -0.4376 L-127.3 -0.3796 L-129.3 -0.3217 L-131.3 -0.2637 L-133.3 -0.2057 L-135.3 -0.1477 L-137.3 -0.08974 L-139.3 -0.03175 L-141.3 0.02623 L-143.3 0.08421 L-145.4 0.1422 L-147.4 0.2002 L-149.4 0.2582 L-151.4 0.3161 L-153.4 0.3741 L-155.4 0.4321 L-157.4 0.4901 L-159.4 0.5481 L-161.5 0.6061 L-163.5 0.664 L-165.5 0.722 L-167.5 0.78 L-169.5 0.838 Z " />
<path stroke="rgb(0,0,0)" stroke-opacity="1" fill="rgb(236,216,157)" fill-opacity="1" id="pr2_1_" d="M72.7 104.6 L70.94 103.7 L69.18 102.8 L67.41 101.9 L65.65 101 L63.89 100.1 L62.13 99.25 L60.36 98.35 L58.6 97.45 L58.63 95.52 L58.66 93.59 L58.69 91.66 L58.71 89.74 L58.74 87.81 L58.77 85.88 L58.8 83.95 L60.55 84.84 L62.3 85.73 L64.05 86.61 L65.8 87.5 L67.55 88.39 L69.3 89.28 L71.05 90.16 L72.8 91.05 L72.79 92.99 L72.77 94.94 L72.76 96.88 L72.74 98.82 L72.73 100.8 L72.71 102.7 L72.7 104.6 Z " />
<path stroke="rgb(0,0,0)" stroke-opacity="1" fill="rgb(236,216,157)" fill-opacity="1" id="pr1_1_" d="M54.9 96.05 L53.15 95.15 L51.4 94.25 L49.65 93.35 L47.9 92.45 L46.15 91.55 L44.4 90.65 L42.65 89.75 L40.9 88.85 L40.91 86.92 L40.93 84.99 L40.94 83.06 L40.96 81.14 L40.97 79.21 L40.99 77.28 L41 75.35 L42.75 76.25 L44.5 77.15 L46.25 78.05 L48 78.95 L49.75 79.85 L51.5 80.75 L53.25 81.65 L55 82.55 L54.99 84.48 L54.97 86.41 L54.96 88.34 L54.94 90.26 L54.93 92.19 L54.91 94.12 L54.9 96.05 Z " />
<path stroke="rgb(0,0,0)" stroke-opacity="1" fill="rgb(236,216,157)" fill-opacity="1" id="pr3_1_" d="M54.6 113.6 L52.85 112.7 L51.1 111.8 L49.35 110.9 L47.6 110 L45.85 109.1 L44.1 108.1 L42.35 107.2 L40.6 106.3 L40.61 104.4 L40.63 102.5 L40.64 100.6 L40.66 98.64 L40.67 96.71 L40.69 94.78 L40.7 92.85 L42.45 93.75 L44.2 94.65 L45.95 95.55 L47.7 96.45 L49.45 97.35 L51.2 98.25 L52.95 99.15 L54.7 100.1 L54.69 102 L54.67 103.9 L54.66 105.8 L54.64 107.8 L54.63 109.7 L54.61 111.6 L54.6 113.6 Z " />
<path stroke="rgb(0,0,0)" stroke-opacity="1" fill="rgb(236,216,157)" fill-opacity="1" id="pr4_1_" d="M72.3 121.7 L70.54 120.9 L68.77 120 L67.01 119.1 L65.25 118.2 L63.49 117.3 L61.73 116.4 L59.96 115.5 L58.2 114.6 L58.21 112.7 L58.23 110.8 L58.24 108.9 L58.26 106.9 L58.27 105 L58.29 103.1 L58.3 101.1 L60.06 102 L61.82 102.9 L63.59 103.8 L65.35 104.7 L67.11 105.6 L68.87 106.5 L70.64 107.4 L72.4 108.2 L72.39 110.2 L72.37 112.1 L72.36 114 L72.34 116 L72.33 117.9 L72.31 119.8 L72.3 121.7 Z " />
<path stroke="rgb(0,0,0)" stroke-opacity="1" fill="rgb(238,200,200)" fill-opacity="1" id="ll1_1_" d="M144.9 121.7 L142.6 120.7 L140.4 119.6 L138.2 118.6 L135.9 117.5 L133.7 116.5 L131.4 115.4 L129.2 114.4 L126.9 113.3 L124.7 112.3 L122.4 111.2 L120.2 110.2 L117.9 109.1 L115.7 108.1 L113.4 107 L111.2 106 L108.9 104.9 L108.9 102.4 L108.9 99.92 L108.9 97.42 L108.9 94.91 L108.9 92.4 L108.9 89.9 L108.9 87.39 L108.9 84.89 L108.9 82.38 L108.9 79.88 L108.9 77.37 L108.9 74.86 L108.9 72.36 L108.9 69.85 L111.2 70.91 L113.4 71.97 L115.7 73.03 L117.9 74.08 L120.2 75.14 L122.4 76.2 L124.7 77.26 L126.9 78.31 L129.2 79.37 L131.4 80.43 L133.7 81.49 L135.9 82.54 L138.2 83.6 L140.4 84.66 L142.6 85.72 L144.9 86.78 L144.9 89.27 L144.9 91.77 L144.9 94.27 L144.9 96.76 L144.9 99.26 L144.9 101.8 L144.9 104.3 L144.9 106.8 L144.9 109.2 L144.9 111.7 L144.9 114.2 L144.9 116.7 L144.9 119.2 L144.9 121.7 Z " />
<path stroke="rgb(0,0,0)" stroke-opacity="1" fill="rgb(255,255,255)" fill-opacity="1" id="cl1_1_" d="M22.93 124.1 L23.84 122.3 L24.74 120.5 L25.65 118.7 L26.56 116.9 L27.46 115.1 L28.37 113.3 L29.27 111.5 L30.18 109.6 L31.08 107.8 L31.99 106 L32.89 104.2 L33.8 102.4 L34.71 100.6 L35.61 98.78 L36.52 96.96 L38.61 96.86 L37.69 98.68 L36.76 100.5 L35.84 102.3 L34.91 104.1 L33.99 105.9 L33.06 107.7 L32.14 109.5 L31.21 111.4 L30.28 113.2 L29.36 115 L28.43 116.8 L27.51 118.6 L26.58 120.4 L25.66 122.2 L24.73 124 L22.93 124.1 Z " />
<path stroke="rgb(0,0,0)" stroke-opacity="1" fill="rgb(255,255,255)" fill-opacity="1" id="a5_2_" d="M186.3 -50.75 L184.4 -51.59 L182.5 -52.44 L180.6 -53.28 L178.7 -54.12 L176.8 -54.96 L175 -55.81 L173.1 -56.65 L171.2 -57.49 L169.3 -58.34 L167.4 -59.18 L165.5 -60.02 L163.6 -60.86 L161.8 -61.71 L159.9 -62.55 L159.9 -60.6 L159.9 -58.64 L159.9 -56.69 L159.9 -54.73 L159.9 -52.78 L159.9 -50.83 L159.9 -48.87 L159.9 -46.92 L159.9 -44.97 L159.9 -43.01 L159.9 -41.06 L159.9 -39.1 L159.9 -37.15 L161.8 -36.31 L163.6 -35.46 L165.5 -34.62 L167.4 -33.78 L169.3 -32.94 L171.2 -32.09 L173.1 -31.25 L175 -30.41 L176.8 -29.56 L178.7 -28.72 L180.6 -27.88 L182.5 -27.04 L184.4 -26.19 L186.3 -25.35 L186.3 -27.3 L186.3 -29.26 L186.3 -31.21 L186.3 -33.17 L186.3 -35.12 L186.3 -37.07 L186.3 -39.03 L186.3 -40.98 L186.3 -42.93 L186.3 -44.89 L186.3 -46.84 L186.3 -48.8 L186.3 -50.75 Z " />
<path stroke="rgb(0,0,0)" stroke-opacity="1" fill="rgb(255,255,255)" fill-opacity="1" id="a6_2_" d="M63.3 51.45 L61.52 50.62 L59.75 49.79 L57.97 48.96 L56.19 48.13 L54.42 47.3 L52.64 46.47 L50.86 45.64 L49.09 44.81 L47.31 43.99 L45.54 43.16 L43.76 42.33 L41.98 41.5 L40.21 40.67 L38.43 39.84 L36.65 39.01 L34.88 38.18 L33.1 37.35 L33.1 35.25 L33.1 33.15 L33.1 31.05 L33.1 28.95 L33.1 26.85 L33.1 24.75 L33.1 22.65 L33.1 20.55 L33.1 18.45 L33.1 16.35 L34.87 17.18 L36.64 18.01 L38.41 18.84 L40.18 19.67 L41.95 20.5 L43.72 21.33 L45.49 22.16 L47.26 22.99 L49.04 23.81 L50.81 24.64 L52.58 25.47 L54.35 26.3 L56.12 27.13 L57.89 27.96 L59.66 28.79 L61.43 29.62 L63.2 30.45 L63.21 32.36 L63.22 34.27 L63.23 36.18 L63.24 38.09 L63.25 40 L63.25 41.9 L63.26 43.81 L63.27 45.72 L63.28 47.63 L63.29 49.54 L63.3 51.45 Z " />
<path stroke="rgb(0,0,0)" stroke-opacity="1" fill="rgb(148,200,200)" fill-opacity="1" id="rtr1_2_" d="M40.49 -120.6 L42.47 -120 L44.45 -119.4 L46.43 -118.8 L48.41 -118.3 L50.39 -117.7 L52.38 -117.1 L52.7 -115 L53.02 -112.9 L53.34 -110.7 L53.66 -108.6 L53.98 -106.5 L51.98 -107.1 L49.98 -107.7 L47.98 -108.3 L45.99 -108.9 L43.99 -109.5 L41.99 -110 L41.69 -112.2 L41.39 -114.3 L41.09 -116.4 L40.79 -118.5 L40.49 -120.6 Z " />
<path stroke="rgb(0,0,0)" stroke-opacity="1" fill="rgb(238,200,200)" fill-opacity="1" id="sg1_2_" d="M83.27 117.7 L82.16 116.3 L81.05 114.8 L79.94 113.3 L78.83 111.9 L77.71 110.4 L76.6 109 L77.51 107.1 L78.42 105.2 L79.32 103.3 L80.23 101.4 L81.37 102.9 L82.5 104.3 L83.63 105.8 L84.77 107.2 L85.9 108.6 L87.04 110.1 L86.1 112 L85.16 113.9 L84.22 115.8 L83.27 117.7 Z " />
<path stroke="rgb(0,0,0)" stroke-opacity="1" fill="rgb(255,255,255)" fill-opacity="1" id="a12_2_" d="M-52.64 86.29 L-54.52 85.47 L-56.41 84.66 L-58.29 83.84 L-60.17 83.02 L-62.06 82.21 L-63.94 81.39 L-63.96 79.46 L-63.97 77.52 L-63.99 75.59 L-64.01 73.66 L-64.02 71.72 L-64.04 69.79 L-62.17 70.61 L-60.31 71.42 L-58.44 72.24 L-56.57 73.06 L-54.71 73.87 L-52.84 74.69 L-52.81 76.62 L-52.77 78.56 L-52.74 80.49 L-52.71 82.42 L-52.67 84.36 L-52.64 86.29 Z " />
<path stroke="rgb(0,0,0)" stroke-opacity="1" fill="rgb(255,255,255)" fill-opacity="1" id="secscl1_2_" d="M-29.65 38.13 L-31.12 37.43 L-32.59 36.73 L-34.06 36.03 L-35.53 35.33 L-37.01 34.63 L-38.48 33.93 L-39.95 33.23 L-41.42 32.53 L-41.42 30.94 L-41.42 29.36 L-41.42 27.77 L-41.42 26.19 L-41.42 24.61 L-41.42 23.02 L-41.42 21.44 L-41.42 19.85 L-41.42 18.27 L-41.42 16.69 L-41.42 15.1 L-41.42 13.52 L-41.42 11.93 L-41.42 10.35 L-41.42 8.764 L-41.42 7.18 L-41.42 5.596 L-41.42 4.012 L-41.42 2.428 L-41.42 0.8435 L-41.42 -0.7407 L-41.42 -2.325 L-41.42 -3.909 L-41.42 -5.493 L-41.42 -7.077 L-41.42 -8.662 L-41.42 -10.25 L-41.42 -11.83 L-41.42 -13.41 L-41.42 -15 L-41.42 -16.58 L-41.42 -18.17 L-41.42 -19.75 L-41.42 -21.33 L-41.42 -22.92 L-41.42 -24.5 L-41.42 -26.09 L-41.42 -27.67 L-41.42 -29.26 L-41.42 -30.84 L-39.95 -30.13 L-38.48 -29.42 L-37.01 -28.71 L-35.53 -28 L-34.06 -27.29 L-32.59 -26.58 L-31.12 -25.87 L-29.65 -25.16 L-29.65 -23.58 L-29.65 -21.99 L-29.65 -20.41 L-29.65 -18.83 L-29.65 -17.25 L-29.65 -15.67 L-29.65 -14.08 L-29.65 -12.5 L-29.65 -10.92 L-29.65 -9.338 L-29.65 -7.755 L-29.65 -6.173 L-29.65 -4.591 L-29.65 -3.009 L-29.65 -1.427 L-29.65 0.1554 L-29.65 1.738 L-29.65 3.32 L-29.65 4.902 L-29.65 6.484 L-29.65 8.066 L-29.65 9.648 L-29.65 11.23 L-29.65 12.81 L-29.65 14.39 L-29.65 15.98 L-29.65 17.56 L-29.65 19.14 L-29.65 20.72 L-29.65 22.31 L-29.65 23.89 L-29.65 25.47 L-29.65 27.05 L-29.65 28.63 L-29.65 30.22 L-29.65 31.8 L-29.65 33.38 L-29.65 34.96 L-29.65 36.55 L-29.65 38.13 Z " />
<path stroke="rgb(0,0,0)" stroke-opacity="1" fill="rgb(255,255,255)" fill-opacity="1" id="a7_1_" d="M141.3 -84.25 L139.4 -85.05 L137.6 -85.85 L135.7 -86.65 L133.8 -87.45 L132 -88.25 L130.1 -89.05 L128.3 -89.85 L126.4 -90.65 L124.5 -91.45 L122.7 -92.25 L120.8 -93.05 L120.8 -95.03 L120.8 -97.02 L120.8 -99 L120.8 -101 L120.8 -103 L120.8 -105 L122.7 -104.1 L124.5 -103.3 L126.4 -102.5 L128.3 -101.7 L130.1 -100.9 L132 -100 L133.8 -99.22 L135.7 -98.4 L137.6 -97.59 L139.4 -96.77 L141.3 -95.95 L141.3 -94 L141.3 -92.05 L141.3 -90.1 L141.3 -88.15 L141.3 -86.2 L141.3 -84.25 Z " />
<path stroke="rgb(0,0,0)" stroke-opacity="1" fill="rgb(255,255,255)" fill-opacity="1" id="a8_1_" d="M141.2 -69.95 L139.3 -70.76 L137.5 -71.57 L135.6 -72.38 L133.7 -73.19 L131.9 -74 L130 -74.8 L128.2 -75.61 L126.3 -76.42 L124.4 -77.23 L122.6 -78.04 L120.7 -78.85 L120.7 -80.82 L120.7 -82.78 L120.7 -84.75 L120.7 -86.72 L120.7 -88.68 L120.7 -90.65 L122.6 -89.85 L124.4 -89.05 L126.3 -88.25 L128.2 -87.45 L130.1 -86.65 L131.9 -85.85 L133.8 -85.05 L135.7 -84.25 L137.6 -83.45 L139.4 -82.65 L141.3 -81.85 L141.3 -79.87 L141.3 -77.88 L141.2 -75.9 L141.2 -73.92 L141.2 -71.93 L141.2 -69.95 Z " />
<path stroke="rgb(0,0,0)" stroke-opacity="1" fill="rgb(255,255,255)" fill-opacity="1" id="a9_1_" d="M136.4 -61.55 L134.5 -62.35 L132.6 -63.15 L130.7 -63.95 L128.8 -64.75 L126.9 -65.55 L124.9 -66.35 L123 -67.15 L123 -68.95 L123 -70.75 L123 -72.55 L123 -74.35 L122.9 -76.15 L124.8 -75.34 L126.8 -74.52 L128.7 -73.71 L130.6 -72.89 L132.5 -72.08 L134.4 -71.26 L136.3 -70.45 L136.4 -68.23 L136.4 -66 L136.4 -63.77 L136.4 -61.55 Z " />
<path stroke="rgb(0,0,0)" stroke-opacity="1" fill="rgb(255,255,255)" fill-opacity="1" id="a17_1_" d="M34.5 57.65 L32.73 56.71 L30.95 55.78 L29.18 54.84 L27.41 53.9 L25.64 52.97 L23.86 52.03 L22.09 51.1 L20.32 50.16 L18.55 49.22 L16.77 48.29 L15 47.35 L15 45.33 L15 43.32 L15 41.3 L15 39.28 L15 37.27 L15 35.25 L16.77 36.19 L18.55 37.12 L20.32 38.06 L22.09 39 L23.86 39.93 L25.64 40.87 L27.41 41.8 L29.18 42.74 L30.95 43.68 L32.73 44.61 L34.5 45.55 L34.5 47.57 L34.5 49.58 L34.5 51.6 L34.5 53.62 L34.5 55.63 L34.5 57.65 Z " />
<path stroke="rgb(0,0,0)" stroke-opacity="1" fill="rgb(255,255,255)" fill-opacity="1" id="a16_1_" d="M34.5 74.85 L32.73 73.95 L30.95 73.05 L29.18 72.15 L27.41 71.25 L25.64 70.35 L23.86 69.45 L22.09 68.55 L20.32 67.65 L18.55 66.75 L16.77 65.85 L15 64.95 L15 62.98 L15 61.02 L15 59.05 L15 57.08 L15 55.12 L15 53.15 L16.77 54.05 L18.55 54.95 L20.32 55.85 L22.09 56.75 L23.86 57.65 L25.64 58.55 L27.41 59.45 L29.18 60.35 L30.95 61.25 L32.73 62.15 L34.5 63.05 L34.5 65.02 L34.5 66.98 L34.5 68.95 L34.5 70.92 L34.5 72.88 L34.5 74.85 Z " />
<path stroke="rgb(0,0,0)" stroke-opacity="1" fill="rgb(236,216,157)" fill-opacity="1" id="scltrs1_1_" d="M-31.24 31.87 L-32.23 31.35 L-33.21 30.84 L-34.2 30.32 L-35.18 29.81 L-36.17 29.29 L-37.16 28.77 L-38.14 28.26 L-38.14 27.13 L-38.14 26.01 L-38.14 24.89 L-38.14 23.76 L-38.14 22.64 L-38.14 21.52 L-37.16 22.03 L-36.17 22.55 L-35.18 23.07 L-34.2 23.58 L-33.21 24.1 L-32.23 24.61 L-31.24 25.13 L-31.24 26.25 L-31.24 27.38 L-31.24 28.5 L-31.24 29.62 L-31.24 30.75 L-31.24 31.87 Z " />
<path stroke="rgb(0,0,0)" stroke-opacity="1" fill="rgb(244,227,211)" fill-opacity="1" id="a15_1_" d="M119.3 -3.75 L117.4 -4.613 L115.6 -5.475 L113.7 -6.338 L111.8 -7.2 L110 -8.063 L108.1 -8.925 L106.3 -9.788 L104.4 -10.65 L104.4 -12.57 L104.4 -14.49 L104.4 -16.41 L104.4 -18.33 L104.4 -20.25 L106.3 -19.38 L108.1 -18.5 L110 -17.63 L111.8 -16.75 L113.7 -15.88 L115.6 -15 L117.4 -14.13 L119.3 -13.25 L119.3 -11.35 L119.3 -9.45 L119.3 -7.55 L119.3 -5.65 L119.3 -3.75 Z " />
<path stroke="rgb(0,0,0)" stroke-opacity="1" fill="rgb(244,227,211)" fill-opacity="1" id="a14_1_" d="M117.2 4.75 L115.4 3.893 L113.5 3.036 L111.7 2.179 L109.8 1.321 L108 0.4643 L106.1 -0.3929 L104.3 -1.25 L104.3 -3.183 L104.4 -5.117 L104.4 -7.05 L106.2 -6.164 L108.1 -5.279 L109.9 -4.393 L111.7 -3.507 L113.5 -2.621 L115.4 -1.736 L117.2 -0.85 L117.2 1.017 L117.2 2.883 L117.2 4.75 Z " />
<path stroke="rgb(0,0,0)" stroke-opacity="1" fill="rgb(244,227,211)" fill-opacity="1" id="a13_1_" d="M115 24.65 L113.2 23.82 L111.4 22.98 L109.6 22.15 L107.9 21.32 L106.1 20.48 L104.3 19.65 L104.3 17.59 L104.3 15.52 L104.3 13.46 L104.3 11.4 L104.3 9.337 L104.3 7.275 L104.3 5.212 L104.3 3.15 L106.1 3.983 L107.9 4.817 L109.6 5.65 L111.4 6.483 L113.2 7.317 L115 8.15 L115 10.21 L115 12.27 L115 14.34 L115 16.4 L115 18.46 L115 20.52 L115 22.59 L115 24.65 Z " />
<path stroke="rgb(0,0,0)" stroke-opacity="1" fill="rgb(200,200,200)" fill-opacity="1" id="a1_2_" d="M-110.5 -63.45 L-112.2 -64.33 L-114 -65.2 L-115.7 -66.08 L-117.5 -66.96 L-119.2 -67.84 L-121 -68.71 L-122.7 -69.59 L-124.5 -70.47 L-126.2 -71.35 L-128 -72.22 L-129.8 -73.1 L-131.5 -73.98 L-133.3 -74.85 L-135 -75.73 L-136.8 -76.61 L-138.5 -77.49 L-140.3 -78.36 L-142 -79.24 L-143.8 -80.12 L-145.5 -81 L-147.3 -81.87 L-149 -82.75 L-149 -84.61 L-149 -86.47 L-149 -88.33 L-149 -90.19 L-149 -92.05 L-147.3 -91.17 L-145.5 -90.29 L-143.8 -89.4 L-142 -88.52 L-140.3 -87.64 L-138.5 -86.76 L-136.8 -85.88 L-135 -85 L-133.3 -84.11 L-131.5 -83.23 L-129.8 -82.35 L-128 -81.47 L-126.2 -80.59 L-124.5 -79.7 L-122.7 -78.82 L-121 -77.94 L-119.2 -77.06 L-117.5 -76.18 L-115.7 -75.3 L-114 -74.41 L-112.2 -73.53 L-110.5 -72.65 L-110.5 -70.81 L-110.5 -68.97 L-110.5 -67.13 L-110.5 -65.29 L-110.5 -63.45 Z " />
<path stroke="rgb(0,0,0)" stroke-opacity="1" fill="rgb(200,200,200)" fill-opacity="1" id="a4_2_" d="M-89.9 -98.15 L-91.69 -99.04 L-93.49 -99.94 L-95.28 -100.8 L-97.08 -101.7 L-98.87 -102.6 L-100.7 -103.5 L-102.5 -104.4 L-104.3 -105.3 L-106 -106.2 L-107.8 -107.1 L-109.6 -108 L-111.4 -108.9 L-113.2 -109.8 L-115 -110.7 L-116.8 -111.6 L-118.6 -112.5 L-120.4 -113.3 L-122.2 -114.2 L-124 -115.1 L-125.8 -116 L-127.6 -116.9 L-129.4 -117.8 L-131.2 -118.7 L-133 -119.6 L-134.7 -120.5 L-136.5 -121.4 L-138.3 -122.3 L-140.1 -123.2 L-141.9 -124.1 L-143.7 -125 L-145.5 -125.9 L-147.3 -126.8 L-149.1 -127.7 L-149.1 -129.7 L-149.1 -131.7 L-149.1 -133.7 L-149.1 -135.7 L-149.1 -137.7 L-149.1 -139.7 L-149.1 -141.8 L-147.3 -140.9 L-145.5 -140 L-143.7 -139.1 L-141.9 -138.2 L-140.1 -137.3 L-138.3 -136.4 L-136.5 -135.5 L-134.7 -134.6 L-133 -133.7 L-131.2 -132.8 L-129.4 -132 L-127.6 -131.1 L-125.8 -130.2 L-124 -129.3 L-122.2 -128.4 L-120.4 -127.5 L-118.6 -126.6 L-116.8 -125.7 L-115 -124.8 L-113.2 -123.9 L-111.4 -123 L-109.6 -122.2 L-107.8 -121.3 L-106 -120.4 L-104.3 -119.5 L-102.5 -118.6 L-100.7 -117.7 L-98.87 -116.8 L-97.08 -115.9 L-95.28 -115 L-93.49 -114.1 L-91.69 -113.2 L-89.9 -112.3 L-89.9 -110.3 L-89.9 -108.3 L-89.9 -106.3 L-89.9 -104.2 L-89.9 -102.2 L-89.9 -100.2 L-89.9 -98.15 Z " />
<path stroke="rgb(0,0,0)" stroke-opacity="1" fill="rgb(200,200,200)" fill-opacity="1" id="a2_1_" d="M-109.1 -77.55 L-110.9 -78.45 L-112.7 -79.36 L-114.6 -80.26 L-116.4 -81.17 L-118.2 -82.07 L-120 -82.98 L-121.8 -83.88 L-123.6 -84.79 L-125.5 -85.69 L-127.3 -86.6 L-129.1 -87.5 L-130.9 -88.4 L-132.7 -89.31 L-134.6 -90.21 L-136.4 -91.12 L-138.2 -92.02 L-140 -92.93 L-141.8 -93.83 L-143.6 -94.74 L-145.5 -95.64 L-147.3 -96.55 L-149.1 -97.45 L-149.1 -99.39 L-149.1 -101.3 L-149.1 -103.3 L-149.1 -105.2 L-149.1 -107.2 L-147.3 -106.2 L-145.5 -105.3 L-143.6 -104.4 L-141.8 -103.5 L-140 -102.6 L-138.2 -101.7 L-136.4 -100.8 L-134.6 -99.88 L-132.7 -98.97 L-130.9 -98.06 L-129.1 -97.15 L-127.3 -96.24 L-125.5 -95.33 L-123.6 -94.42 L-121.8 -93.51 L-120 -92.6 L-118.2 -91.7 L-116.4 -90.79 L-114.6 -89.88 L-112.7 -88.97 L-110.9 -88.06 L-109.1 -87.15 L-109.1 -85.23 L-109.1 -83.31 L-109.1 -81.39 L-109.1 -79.47 L-109.1 -77.55 Z " />
<path stroke="rgb(0,0,0)" stroke-opacity="1" fill="rgb(200,200,200)" fill-opacity="1" id="a3_1_" d="M-105.8 -91.15 L-107.6 -92.04 L-109.4 -92.93 L-111.2 -93.83 L-113 -94.72 L-114.8 -95.61 L-116.6 -96.5 L-118.4 -97.39 L-120.2 -98.28 L-122 -99.17 L-123.8 -100.1 L-125.6 -101 L-127.4 -101.8 L-129.3 -102.7 L-131.1 -103.6 L-132.9 -104.5 L-134.7 -105.4 L-136.5 -106.3 L-138.3 -107.2 L-140.1 -108.1 L-141.9 -109 L-143.7 -109.9 L-145.5 -110.8 L-147.3 -111.7 L-149.1 -112.5 L-149.1 -114.6 L-149.1 -116.7 L-149.1 -118.8 L-149.1 -120.9 L-149.1 -123 L-147.3 -122.1 L-145.5 -121.2 L-143.7 -120.3 L-141.9 -119.4 L-140.1 -118.5 L-138.3 -117.6 L-136.5 -116.7 L-134.7 -115.8 L-132.9 -114.9 L-131.1 -114 L-129.3 -113.1 L-127.4 -112.3 L-125.6 -111.4 L-123.8 -110.5 L-122 -109.6 L-120.2 -108.7 L-118.4 -107.8 L-116.6 -106.9 L-114.8 -106 L-113 -105.1 L-111.2 -104.2 L-109.4 -103.3 L-107.6 -102.4 L-105.8 -101.5 L-105.8 -99.47 L-105.8 -97.39 L-105.8 -95.31 L-105.8 -93.23 L-105.8 -91.15 Z " />
<path stroke="rgb(0,0,0)" stroke-opacity="1" fill="rgb(244,227,211)" fill-opacity="1" id="a11_1_" d="M-30.3 70.85 L-32.12 70.04 L-33.94 69.23 L-35.76 68.42 L-37.57 67.61 L-39.39 66.79 L-41.21 65.98 L-43.03 65.17 L-44.85 64.36 L-46.67 63.55 L-48.49 62.74 L-50.3 61.93 L-52.12 61.12 L-53.94 60.31 L-55.76 59.49 L-57.58 58.68 L-59.4 57.87 L-61.21 57.06 L-63.03 56.25 L-64.85 55.44 L-66.67 54.63 L-68.49 53.82 L-70.31 53.01 L-72.13 52.19 L-73.94 51.38 L-75.76 50.57 L-77.58 49.76 L-79.4 48.95 L-79.45 47 L-79.5 45.05 L-77.68 45.86 L-75.86 46.68 L-74.04 47.49 L-72.23 48.31 L-70.41 49.12 L-68.59 49.94 L-66.77 50.75 L-64.95 51.57 L-63.13 52.38 L-61.31 53.2 L-59.5 54.01 L-57.68 54.83 L-55.86 55.64 L-54.04 56.46 L-52.22 57.27 L-50.4 58.09 L-48.59 58.9 L-46.77 59.72 L-44.95 60.53 L-43.13 61.35 L-41.31 62.16 L-39.49 62.98 L-37.67 63.79 L-35.86 64.61 L-34.04 65.42 L-32.22 66.24 L-30.4 67.05 L-30.35 68.95 L-30.3 70.85 Z " />
<path stroke="rgb(0,0,0)" stroke-opacity="1" fill="rgb(244,200,200)" fill-opacity="1" id="fus1_1_" d="M-95.5 56.95 L-97.3 56.19 L-99.1 55.43 L-100.9 54.67 L-102.7 53.91 L-104.5 53.15 L-104.5 51.29 L-104.5 49.43 L-104.5 47.57 L-104.5 45.71 L-104.5 43.85 L-102.7 44.61 L-100.9 45.37 L-99.1 46.13 L-97.3 46.89 L-95.5 47.65 L-95.5 49.51 L-95.5 51.37 L-95.5 53.23 L-95.5 55.09 L-95.5 56.95 Z " />
<path stroke="rgb(0,0,0)" stroke-opacity="1" fill="rgb(244,200,200)" fill-opacity="1" id="fus2_1_" d="M-95.96 60.41 L-97.76 59.63 L-99.56 58.85 L-101.4 58.07 L-103.2 57.29 L-105 56.51 L-104.9 54.63 L-104.9 52.75 L-104.8 50.87 L-104.8 48.99 L-104.8 47.11 L-103 47.87 L-101.2 48.63 L-99.48 49.39 L-97.72 50.15 L-95.96 50.91 L-95.96 52.81 L-95.96 54.71 L-95.96 56.61 L-95.96 58.51 L-95.96 60.41 Z " />
<path stroke="rgb(0,0,0)" stroke-opacity="1" fill="rgb(244,200,200)" fill-opacity="1" id="fus3_1_" d="M-100.6 61.45 L-102.4 60.69 L-104.2 59.93 L-105.9 59.17 L-107.7 58.41 L-109.5 57.65 L-109.5 55.79 L-109.5 53.93 L-109.5 52.07 L-109.5 50.21 L-109.5 48.35 L-107.7 49.11 L-105.9 49.87 L-104.1 50.63 L-102.3 51.39 L-100.5 52.15 L-100.5 54.01 L-100.5 55.87 L-100.6 57.73 L-100.6 59.59 L-100.6 61.45 Z " />
<path stroke="rgb(0,0,0)" stroke-opacity="1" fill="rgb(244,200,200)" fill-opacity="1" id="fus4_1_" d="M-91.5 65.45 L-93.3 64.67 L-95.1 63.89 L-96.9 63.11 L-98.7 62.33 L-100.5 61.55 L-100.5 59.69 L-100.5 57.83 L-100.5 55.97 L-100.5 54.11 L-100.5 52.25 L-98.7 53.03 L-96.9 53.81 L-95.1 54.59 L-93.3 55.37 L-91.5 56.15 L-91.5 58.01 L-91.5 59.87 L-91.5 61.73 L-91.5 63.59 L-91.5 65.45 Z " />
<path stroke="rgb(0,0,0)" stroke-opacity="1" fill="rgb(173,200,200)" fill-opacity="1" id="swap1_1_" d="M30.86 -110.9 L29.04 -111.9 L27.22 -112.9 L25.4 -113.8 L23.58 -114.8 L21.76 -115.7 L19.94 -116.7 L18.12 -117.7 L16.3 -118.6 L14.48 -119.6 L12.66 -120.5 L12.68 -122.5 L12.69 -124.6 L12.7 -126.6 L12.71 -128.6 L12.72 -130.6 L12.73 -132.6 L12.74 -134.6 L12.75 -136.6 L12.76 -138.6 L14.58 -137.7 L16.4 -136.7 L18.22 -135.7 L20.04 -134.8 L21.86 -133.8 L23.68 -132.8 L25.5 -131.8 L27.32 -130.9 L29.14 -129.9 L30.96 -128.9 L30.95 -126.9 L30.94 -124.9 L30.93 -122.9 L30.92 -120.9 L30.91 -118.9 L30.9 -116.9 L30.89 -114.9 L30.88 -112.9 L30.86 -110.9 Z " />
<path stroke="rgb(0,0,0)" stroke-opacity="1" fill="rgb(173,200,200)" fill-opacity="1" id="swap3_1_" d="M20.8 -133.5 L18.98 -134.5 L17.16 -135.4 L15.34 -136.4 L13.52 -137.3 L11.7 -138.3 L9.88 -139.3 L8.06 -140.2 L6.24 -141.2 L4.42 -142.1 L2.6 -143.1 L2.611 -145.1 L2.622 -147.1 L2.633 -149.1 L2.644 -151.1 L2.656 -153.1 L2.667 -155.2 L2.678 -157.2 L2.689 -159.2 L2.7 -161.2 L4.52 -160.2 L6.34 -159.3 L8.16 -158.3 L9.98 -157.4 L11.8 -156.4 L13.62 -155.4 L15.44 -154.5 L17.26 -153.5 L19.08 -152.6 L20.9 -151.6 L20.89 -149.6 L20.88 -147.6 L20.87 -145.6 L20.86 -143.5 L20.84 -141.5 L20.83 -139.5 L20.82 -137.5 L20.81 -135.5 L20.8 -133.5 Z " />
<path stroke="rgb(0,0,0)" stroke-opacity="1" fill="rgb(173,200,200)" fill-opacity="1" id="swap2_1_" d="M10.84 -120.9 L9.016 -121.8 L7.196 -122.8 L5.376 -123.7 L3.556 -124.7 L1.736 -125.7 L-0.08399 -126.6 L-1.904 -127.6 L-3.724 -128.5 L-5.544 -129.5 L-7.364 -130.5 L-7.353 -132.5 L-7.342 -134.5 L-7.331 -136.5 L-7.32 -138.5 L-7.308 -140.5 L-7.297 -142.5 L-7.286 -144.5 L-7.275 -146.6 L-7.264 -148.6 L-5.434 -147.6 L-3.604 -146.6 L-1.774 -145.7 L0.056 -144.7 L1.886 -143.8 L3.716 -142.8 L5.546 -141.8 L7.376 -140.9 L9.206 -139.9 L11.04 -139 L11.01 -137 L10.99 -134.9 L10.97 -132.9 L10.95 -130.9 L10.92 -128.9 L10.9 -126.9 L10.88 -124.9 L10.86 -122.9 L10.84 -120.9 Z " />
<path stroke="rgb(0,0,0)" stroke-opacity="1" fill="rgb(173,200,200)" fill-opacity="1" id="swap4_1_" d="M20.7 -98.61 L18.88 -99.59 L17.06 -100.6 L15.24 -101.5 L13.42 -102.5 L11.6 -103.5 L9.78 -104.5 L7.96 -105.5 L6.14 -106.4 L4.32 -107.4 L2.5 -108.4 L2.511 -110.4 L2.522 -112.4 L2.533 -114.4 L2.544 -116.4 L2.556 -118.4 L2.567 -120.4 L2.578 -122.4 L2.589 -124.4 L2.6 -126.4 L4.43 -125.4 L6.26 -124.5 L8.09 -123.5 L9.92 -122.5 L11.75 -121.6 L13.58 -120.6 L15.41 -119.6 L17.24 -118.6 L19.07 -117.7 L20.9 -116.7 L20.88 -114.7 L20.86 -112.7 L20.83 -110.7 L20.81 -108.7 L20.79 -106.7 L20.77 -104.6 L20.74 -102.6 L20.72 -100.6 L20.7 -98.61 Z " />
<path stroke="rgb(0,0,0)" stroke-opacity="1" fill="rgb(244,227,211)" fill-opacity="1" id="a10_5_" d="M40 -46.65 L38.24 -45.63 L36.48 -44.6 L34.71 -43.57 L32.95 -42.55 L31.19 -41.53 L29.42 -40.5 L27.66 -39.48 L25.9 -38.45 L24.14 -37.43 L22.37 -36.4 L20.61 -35.38 L18.85 -34.35 L17.09 -33.33 L15.32 -32.3 L13.56 -31.28 L11.8 -30.25 L10.04 -31.28 L8.275 -32.3 L6.512 -33.33 L4.75 -34.35 L2.987 -35.38 L1.225 -36.4 L-0.5375 -37.43 L-2.3 -38.45 L-4.063 -39.48 L-5.825 -40.5 L-7.587 -41.53 L-9.35 -42.55 L-11.11 -43.57 L-12.87 -44.6 L-14.64 -45.63 L-16.4 -46.65 L-14.64 -47.68 L-12.87 -48.7 L-11.11 -49.72 L-9.35 -50.75 L-7.587 -51.77 L-5.825 -52.8 L-4.063 -53.82 L-2.3 -54.85 L-0.5375 -55.87 L1.225 -56.9 L2.987 -57.92 L4.75 -58.95 L6.512 -59.97 L8.275 -61 L10.04 -62.02 L11.8 -63.05 L13.56 -62.02 L15.32 -61 L17.09 -59.97 L18.85 -58.95 L20.61 -57.92 L22.37 -56.9 L24.14 -55.87 L25.9 -54.85 L27.66 -53.82 L29.42 -52.8 L31.19 -51.77 L32.95 -50.75 L34.71 -49.72 L36.48 -48.7 L38.24 -47.68 L40 -46.65 Z " />
<path stroke="rgb(0,0,0)" stroke-opacity="1" fill="rgb(244,227,211)" fill-opacity="1" id="a10_4_" d="M40.5 -11.85 L40.5 -13.85 L40.5 -15.85 L40.5 -17.85 L40.5 -19.85 L40.5 -21.85 L40.5 -23.85 L40.5 -25.85 L40.5 -27.85 L40.5 -29.85 L40.5 -31.85 L40.5 -33.85 L40.5 -35.85 L40.5 -37.85 L40.5 -39.85 L40.5 -41.85 L40.5 -43.85 L40.5 -45.85 L38.74 -44.83 L36.98 -43.8 L35.21 -42.78 L33.45 -41.75 L31.69 -40.73 L29.92 -39.7 L28.16 -38.68 L26.4 -37.65 L24.64 -36.62 L22.87 -35.6 L21.11 -34.57 L19.35 -33.55 L17.59 -32.52 L15.82 -31.5 L14.06 -30.47 L12.3 -29.45 L12.3 -27.44 L12.3 -25.44 L12.3 -23.43 L12.3 -21.43 L12.3 -19.42 L12.3 -17.42 L12.3 -15.41 L12.3 -13.41 L12.3 -11.4 L12.3 -9.397 L12.3 -7.392 L12.3 -5.387 L12.3 -3.382 L12.3 -1.376 L12.3 0.6289 L12.3 2.634 L12.3 4.639 L12.3 6.645 L12.3 8.65 L13.96 7.444 L15.62 6.238 L17.28 5.032 L18.94 3.826 L20.59 2.621 L22.25 1.415 L23.91 0.2088 L25.57 -0.9971 L27.23 -2.203 L28.89 -3.409 L30.55 -4.615 L32.21 -5.821 L33.86 -7.026 L35.52 -8.232 L37.18 -9.438 L38.84 -10.64 L40.5 -11.85 Z " />
<path stroke="rgb(0,0,0)" stroke-opacity="1" fill="rgb(244,227,211)" fill-opacity="1" id="a10_3_" d="M-16.8 -45.85 L-16.8 -43.85 L-16.8 -41.85 L-16.8 -39.85 L-16.8 -37.85 L-16.8 -35.85 L-16.8 -33.85 L-16.8 -31.85 L-16.8 -29.85 L-16.8 -27.85 L-16.8 -25.85 L-16.8 -23.85 L-16.8 -21.85 L-16.8 -19.85 L-16.8 -17.85 L-16.8 -15.85 L-16.8 -13.85 L-16.8 -11.85 L-15.14 -10.64 L-13.48 -9.438 L-11.82 -8.232 L-10.16 -7.026 L-8.506 -5.821 L-6.847 -4.615 L-5.188 -3.409 L-3.529 -2.203 L-1.871 -0.9971 L-0.2118 0.2088 L1.447 1.415 L3.106 2.621 L4.765 3.826 L6.424 5.032 L8.082 6.238 L9.741 7.444 L11.4 8.65 L11.4 6.645 L11.4 4.639 L11.4 2.634 L11.4 0.6289 L11.4 -1.376 L11.4 -3.382 L11.4 -5.387 L11.4 -7.392 L11.4 -9.397 L11.4 -11.4 L11.4 -13.41 L11.4 -15.41 L11.4 -17.42 L11.4 -19.42 L11.4 -21.43 L11.4 -23.43 L11.4 -25.44 L11.4 -27.44 L11.4 -29.45 L9.637 -30.47 L7.875 -31.5 L6.112 -32.52 L4.35 -33.55 L2.587 -34.57 L0.825 -35.6 L-0.9375 -36.62 L-2.7 -37.65 L-4.462 -38.68 L-6.225 -39.7 L-7.987 -40.73 L-9.75 -41.75 L-11.51 -42.78 L-13.27 -43.8 L-15.04 -44.83 L-16.8 -45.85 Z " />
<path stroke="rgb(0,0,0)" stroke-opacity="1" fill="rgb(200,200,200)" fill-opacity="1" id="circ1_5_" d="M-62.5 -9.734 L-64.08 -8.814 L-65.66 -7.894 L-67.24 -6.974 L-68.82 -6.054 L-70.4 -5.134 L-71.98 -6.054 L-73.56 -6.974 L-75.14 -7.894 L-76.72 -8.814 L-78.3 -9.734 L-76.72 -10.65 L-75.14 -11.57 L-73.56 -12.49 L-71.98 -13.41 L-70.4 -14.33 L-68.82 -13.41 L-67.24 -12.49 L-65.66 -11.57 L-64.08 -10.65 L-62.5 -9.734 Z " />
<path stroke="rgb(0,0,0)" stroke-opacity="1" fill="rgb(200,200,200)" fill-opacity="1" id="circ1_4_" d="M-62.4 0.06599 L-62.4 -1.834 L-62.4 -3.734 L-62.4 -5.634 L-62.4 -7.534 L-62.4 -9.434 L-63.98 -8.534 L-65.56 -7.634 L-67.14 -6.734 L-68.72 -5.834 L-70.3 -4.934 L-70.3 -2.794 L-70.3 -0.654 L-70.3 1.486 L-70.3 3.626 L-70.3 5.766 L-68.72 4.626 L-67.14 3.486 L-65.56 2.346 L-63.98 1.206 L-62.4 0.06599 Z " />
<path stroke="rgb(0,0,0)" stroke-opacity="1" fill="rgb(200,200,200)" fill-opacity="1" id="circ1_3_" d="M-78.5 -9.434 L-78.5 -7.534 L-78.5 -5.634 L-78.5 -3.734 L-78.5 -1.834 L-78.5 0.06599 L-76.92 1.206 L-75.34 2.346 L-73.76 3.486 L-72.18 4.626 L-70.6 5.766 L-70.6 3.626 L-70.6 1.486 L-70.6 -0.654 L-70.6 -2.794 L-70.6 -4.934 L-72.18 -5.834 L-73.76 -6.734 L-75.34 -7.634 L-76.92 -8.534 L-78.5 -9.434 Z " />
<path stroke="rgb(0,0,0)" stroke-opacity="1" fill="rgb(200,200,200)" fill-opacity="1" id="circ2_5_" d="M-98.6 -18.17 L-100.2 -17.25 L-101.8 -16.33 L-103.3 -15.41 L-104.9 -14.49 L-106.5 -13.57 L-108.1 -14.49 L-109.7 -15.41 L-111.2 -16.33 L-112.8 -17.25 L-114.4 -18.17 L-112.8 -19.07 L-111.2 -19.97 L-109.7 -20.87 L-108.1 -21.77 L-106.5 -22.67 L-104.9 -21.77 L-103.3 -20.87 L-101.8 -19.97 L-100.2 -19.07 L-98.6 -18.17 Z " />
<path stroke="rgb(0,0,0)" stroke-opacity="1" fill="rgb(200,200,200)" fill-opacity="1" id="circ2_4_" d="M-98.5 -8.366 L-98.5 -10.27 L-98.5 -12.17 L-98.5 -14.07 L-98.5 -15.97 L-98.5 -17.87 L-100.1 -16.95 L-101.7 -16.03 L-103.2 -15.11 L-104.8 -14.19 L-106.4 -13.27 L-106.4 -11.15 L-106.4 -9.026 L-106.4 -6.906 L-106.4 -4.786 L-106.4 -2.666 L-104.8 -3.806 L-103.2 -4.946 L-101.7 -6.086 L-100.1 -7.226 L-98.5 -8.366 Z " />
<path stroke="rgb(0,0,0)" stroke-opacity="1" fill="rgb(200,200,200)" fill-opacity="1" id="circ2_3_" d="M-114.6 -17.87 L-114.6 -15.97 L-114.6 -14.07 L-114.6 -12.17 L-114.6 -10.27 L-114.6 -8.366 L-113 -7.226 L-111.4 -6.086 L-109.9 -4.946 L-108.3 -3.806 L-106.7 -2.666 L-106.7 -4.786 L-106.7 -6.906 L-106.7 -9.026 L-106.7 -11.15 L-106.7 -13.27 L-108.3 -14.19 L-109.9 -15.11 L-111.4 -16.03 L-113 -16.95 L-114.6 -17.87 Z " />
<path stroke="rgb(0,0,0)" stroke-opacity="1" fill="rgb(148,200,200)" fill-opacity="1" id="bb1" d="M105.8 -27.76 L106.6 -29.59 L107.4 -31.42 L108.2 -33.25 L109 -35.07 L109.8 -36.9 L110.6 -38.73 L111.4 -40.55 L112.2 -42.38 L113 -44.21 L113.8 -46.04 L114.6 -47.86 L115.4 -49.69 L116.2 -51.52 L117 -53.34 L117.8 -55.17 L118.6 -57 L119.4 -58.83 L118.4 -60.6 L117.4 -62.38 L116.4 -64.16 L115.4 -65.93 L114.4 -67.71 L113.4 -69.49 L112.4 -71.26 L111.4 -73.04 L110.4 -74.82 L109.3 -76.59 L108.3 -78.37 L107.3 -80.15 L105.3 -80.1 L103.3 -80.06 L101.2 -80.01 L99.16 -79.97 L97.12 -79.93 L95.08 -79.88 L93.03 -79.84 L90.99 -79.8 L88.95 -79.75 L86.9 -79.71 L84.86 -79.66 L82.82 -79.62 L80.77 -79.58 L78.73 -79.53 L76.68 -79.49 L75.03 -78.32 L73.38 -77.15 L71.73 -75.97 L70.08 -74.8 L68.42 -73.63 L66.77 -72.46 L65.12 -71.29 L63.47 -70.12 L61.81 -68.95 L60.16 -67.78 L58.51 -66.6 L56.86 -65.43 L55.21 -64.26 L53.55 -63.09 L51.9 -61.92 L50.25 -60.75 L48.6 -59.58 L46.95 -58.41 L45.29 -57.24 L44.49 -55.41 L43.69 -53.58 L42.89 -51.75 L42.09 -49.93 L41.29 -48.1 L40.49 -46.27 L39.69 -44.45 L38.88 -42.62 L38.08 -40.79 L37.28 -38.96 L36.48 -37.14 L35.68 -35.31 L34.88 -33.48 L34.08 -31.66 L33.28 -29.83 L32.48 -28 L31.67 -26.17 L32.68 -24.38 L33.68 -22.59 L34.69 -20.79 L35.69 -19 L36.7 -17.21 L37.7 -15.41 L38.7 -13.62 L39.71 -11.83 L40.71 -10.03 L41.72 -8.241 L42.72 -6.447 L43.72 -4.654 L45.77 -4.698 L47.81 -4.742 L49.86 -4.786 L51.9 -4.829 L53.94 -4.873 L55.99 -4.917 L58.03 -4.961 L60.07 -5.005 L62.12 -5.049 L64.16 -5.093 L66.21 -5.137 L68.25 -5.18 L70.29 -5.224 L72.34 -5.268 L74.38 -5.312 L76.03 -6.494 L77.68 -7.675 L79.34 -8.857 L80.99 -10.04 L82.64 -11.22 L84.29 -12.4 L85.94 -13.58 L87.6 -14.77 L89.25 -15.95 L90.9 -17.13 L92.55 -18.31 L94.2 -19.49 L95.86 -20.67 L97.51 -21.86 L99.16 -23.04 L100.8 -24.22 L102.5 -25.4 L104.1 -26.58 L105.8 -27.76 Z " />
<path stroke="rgb(0,0,0)" stroke-opacity="1" fill="rgb(236,216,157)" fill-opacity="1" id="scltrs1" d="M-160.7 18.33 L-161.3 19.17 L-162 20 L-162.6 20.84 L-163.3 21.68 L-164 22.51 L-164.6 23.35 L-165.3 24.19 L-165.9 25.02 L-166.6 25.86 L-167.3 26.7 L-167.9 27.54 L-168.6 28.37 L-169.2 29.21 L-169.9 30.05 L-170.6 30.88 L-171.2 31.72 L-171.9 32.56 L-172.5 33.4 L-173.2 34.23 L-173.9 35.07 L-174.5 35.91 L-175.2 36.74 L-175.8 37.58 L-176.5 38.42 L-177.2 39.26 L-177.8 40.09 L-178.5 40.93 L-179.1 41.77 L-179.8 42.6 L-180.5 43.44 L-181.1 44.28 L-181.8 45.12 L-182.5 45.95 L-183.1 46.79 L-183.8 47.63 L-184.4 48.46 L-183.5 48.92 L-182.5 49.37 L-181.5 49.82 L-180.5 50.28 L-179.6 50.73 L-178.6 51.18 L-177.6 51.64 L-176.7 52.09 L-175.7 52.54 L-174.7 53 L-173.8 53.45 L-172.8 53.9 L-171.8 54.36 L-170.8 54.81 L-169.9 55.26 L-168.9 55.72 L-167.9 56.17 L-167 56.62 L-166 57.08 L-165 57.53 L-164.1 57.98 L-163.1 58.44 L-162.1 58.89 L-161.1 59.34 L-160.2 59.8 L-159.2 60.25 L-158.2 60.7 L-157.3 61.16 L-156.3 61.61 L-155.3 62.06 L-154.3 62.52 L-153.4 62.97 L-152.4 63.42 L-151.4 63.88 L-150.5 64.33 L-149.5 64.78 L-148.5 65.24 L-147.6 65.69 L-146.6 66.14 L-145.6 66.59 L-144.6 67.05 L-143.7 67.5 L-142.7 67.95 L-141.7 68.41 L-140.8 68.86 L-139.8 69.31 L-138.8 69.77 L-137.9 70.22 L-136.9 70.67 L-137.3 69.69 L-137.8 68.7 L-138.2 67.71 L-138.7 66.72 L-139.1 65.74 L-139.6 64.75 L-140 63.76 L-140.5 62.77 L-140.9 61.79 L-141.4 60.8 L-141.8 59.81 L-142.3 58.82 L-142.7 57.83 L-143.2 56.85 L-143.6 55.86 L-144.1 54.87 L-144.5 53.88 L-145 52.9 L-145.4 51.91 L-145.9 50.92 L-146.3 49.93 L-146.8 48.95 L-147.2 47.96 L-147.6 46.97 L-148.1 45.98 L-148.5 45 L-149 44.01 L-149.4 43.02 L-149.9 42.03 L-150.3 41.04 L-150.8 40.06 L-151.2 39.07 L-151.7 38.08 L-152.1 37.09 L-152.6 36.11 L-153 35.12 L-153.5 34.13 L-153.9 33.14 L-154.4 32.16 L-154.8 31.17 L-155.3 30.18 L-155.7 29.19 L-156.2 28.2 L-156.6 27.22 L-157.1 26.23 L-157.5 25.24 L-158 24.25 L-158.4 23.27 L-158.9 22.28 L-159.3 21.29 L-159.8 20.3 L-160.2 19.32 L-160.7 18.33 Z " />
<path stroke="rgb(0,0,0)" stroke-opacity="1" fill="rgb(255,255,255)" fill-opacity="1" id="a5" d="M-82.13 134.3 L-82.24 136.7 L-82.55 138.8 L-83.06 140.8 L-83.76 142.7 L-84.65 144.4 L-85.7 145.8 L-86.91 147.2 L-88.27 148.3 L-89.78 149.2 L-91.42 150 L-93.18 150.5 L-95.06 150.8 L-97.05 150.9 L-99.13 150.9 L-101.3 150.5 L-103.5 150 L-105.9 149.2 L-108.2 148.2 L-110 147.4 L-111.8 146.4 L-113.5 145.3 L-115.2 144.1 L-116.8 142.8 L-118.4 141.5 L-119.9 140.1 L-121.4 138.6 L-122.8 137 L-124.2 135.4 L-125.5 133.7 L-126.7 132 L-127.8 130.3 L-128.9 128.5 L-129.9 126.7 L-130.8 124.9 L-131.6 123 L-132.3 121.2 L-132.9 119.3 L-133.4 117.4 L-133.8 115.6 L-134.1 113.7 L-134.3 111.9 L-134.3 110 L-134.2 107.7 L-133.9 105.6 L-133.4 103.6 L-132.7 101.7 L-131.8 100 L-130.8 98.56 L-129.6 97.25 L-128.2 96.12 L-126.7 95.19 L-125 94.45 L-123.3 93.91 L-121.4 93.58 L-119.4 93.45 L-117.3 93.54 L-115.2 93.85 L-112.9 94.39 L-110.6 95.15 L-108.2 96.15 L-106.4 97.04 L-104.7 98.03 L-103 99.12 L-101.3 100.3 L-99.66 101.6 L-98.08 102.9 L-96.54 104.3 L-95.06 105.8 L-93.64 107.4 L-92.29 109 L-91 110.7 L-89.78 112.4 L-88.64 114.1 L-87.57 115.9 L-86.59 117.7 L-85.7 119.5 L-84.89 121.4 L-84.18 123.2 L-83.57 125.1 L-83.06 127 L-82.66 128.8 L-82.37 130.7 L-82.19 132.5 L-82.13 134.3 Z " />
<path stroke="rgb(0,0,0)" stroke-opacity="1" fill="rgb(255,255,255)" fill-opacity="1" id="a17" d="M-96 -133.5 L-97.21 -132 L-98.42 -130.5 L-99.62 -129 L-100.8 -127.4 L-102 -125.9 L-103.2 -124.4 L-104.5 -122.8 L-105.7 -121.3 L-106.9 -119.8 L-108.1 -118.2 L-109.3 -116.7 L-110.5 -115.2 L-111.7 -113.7 L-109.9 -112.8 L-108 -111.9 L-106.2 -111.1 L-104.3 -110.2 L-102.5 -109.3 L-100.6 -108.5 L-98.77 -107.6 L-96.92 -106.7 L-95.08 -105.9 L-93.23 -105 L-91.38 -104.1 L-89.54 -103.3 L-87.69 -102.4 L-85.84 -101.5 L-83.99 -100.7 L-82.15 -99.81 L-80.3 -98.95 L-81.13 -100.8 L-81.95 -102.6 L-82.78 -104.4 L-83.61 -106.2 L-84.43 -108.1 L-85.26 -109.9 L-86.08 -111.7 L-86.91 -113.5 L-87.74 -115.3 L-88.56 -117.2 L-89.39 -119 L-90.22 -120.8 L-91.04 -122.6 L-91.87 -124.4 L-92.69 -126.3 L-93.52 -128.1 L-94.35 -129.9 L-95.17 -131.7 L-96 -133.5 Z " />
<path stroke="rgb(0,0,0)" stroke-opacity="1" fill="rgb(255,255,255)" fill-opacity="1" id="a16" d="M-96 -75.95 L-94.79 -77.48 L-93.58 -79.01 L-92.38 -80.54 L-91.17 -82.07 L-89.96 -83.6 L-88.75 -85.13 L-87.55 -86.67 L-86.34 -88.2 L-85.13 -89.73 L-83.92 -91.26 L-82.72 -92.79 L-81.51 -94.32 L-80.3 -95.85 L-82.15 -96.71 L-83.99 -97.57 L-85.84 -98.43 L-87.69 -99.29 L-89.54 -100.1 L-91.38 -101 L-93.23 -101.9 L-95.08 -102.7 L-96.92 -103.6 L-98.77 -104.4 L-100.6 -105.3 L-102.5 -106.2 L-104.3 -107 L-106.2 -107.9 L-108 -108.7 L-109.9 -109.6 L-111.7 -110.5 L-110.9 -108.6 L-110 -106.8 L-109.2 -105 L-108.4 -103.2 L-107.6 -101.4 L-106.7 -99.56 L-105.9 -97.74 L-105.1 -95.92 L-104.3 -94.11 L-103.4 -92.29 L-102.6 -90.48 L-101.8 -88.66 L-101 -86.84 L-100.1 -85.03 L-99.31 -83.21 L-98.48 -81.4 L-97.65 -79.58 L-96.83 -77.77 L-96 -75.95 Z " />
<path stroke="rgb(0,0,0)" stroke-opacity="1" fill="rgb(173,200,200)" fill-opacity="1" id="swap2" d="M-49.96 -63.27 L-50.22 -61.15 L-50.94 -59.44 L-52.08 -58.17 L-53.58 -57.36 L-55.38 -57.06 L-57.43 -57.28 L-59.66 -58.07 L-61.42 -59.04 L-63.07 -60.26 L-64.58 -61.68 L-65.93 -63.27 L-67.1 -64.99 L-68.05 -66.78 L-68.76 -68.62 L-69.21 -70.47 L-69.36 -72.27 L-69.11 -74.35 L-68.39 -76.05 L-67.25 -77.32 L-65.75 -78.14 L-63.95 -78.46 L-61.9 -78.24 L-59.66 -77.47 L-57.91 -76.5 L-56.26 -75.29 L-54.75 -73.87 L-53.4 -72.29 L-52.23 -70.59 L-51.28 -68.79 L-50.57 -66.95 L-50.12 -65.09 L-49.96 -63.27 Z " />
<path stroke="rgb(0,0,0)" stroke-opacity="1" fill="rgb(173,200,200)" fill-opacity="1" id="swap4" d="M-33.4 -41.21 L-33.65 -39.09 L-34.38 -37.38 L-35.52 -36.11 L-37.02 -35.3 L-38.82 -35 L-40.86 -35.22 L-43.1 -36.01 L-44.85 -36.98 L-46.5 -38.2 L-48.01 -39.62 L-49.37 -41.21 L-50.53 -42.93 L-51.49 -44.72 L-52.2 -46.56 L-52.65 -48.41 L-52.8 -50.21 L-52.55 -52.33 L-51.82 -54.04 L-50.68 -55.31 L-49.18 -56.11 L-47.38 -56.41 L-45.34 -56.19 L-43.1 -55.41 L-41.35 -54.44 L-39.7 -53.23 L-38.19 -51.81 L-36.83 -50.23 L-35.67 -48.53 L-34.71 -46.73 L-34 -44.89 L-33.55 -43.03 L-33.4 -41.21 Z " />
<path stroke="rgb(0,0,0)" stroke-opacity="1" fill="rgb(173,200,200)" fill-opacity="1" id="swap3" d="M-33.4 -69.09 L-33.65 -66.97 L-34.38 -65.26 L-35.52 -63.99 L-37.02 -63.19 L-38.82 -62.89 L-40.86 -63.11 L-43.1 -63.89 L-44.85 -64.86 L-46.5 -66.08 L-48.01 -67.51 L-49.37 -69.1 L-50.53 -70.81 L-51.49 -72.61 L-52.2 -74.45 L-52.65 -76.29 L-52.8 -78.09 L-52.55 -80.18 L-51.82 -81.88 L-50.68 -83.15 L-49.18 -83.97 L-47.38 -84.28 L-45.34 -84.07 L-43.1 -83.29 L-41.35 -82.33 L-39.7 -81.12 L-38.19 -79.7 L-36.83 -78.12 L-35.67 -76.41 L-34.71 -74.62 L-34 -72.78 L-33.55 -70.92 L-33.4 -69.09 Z " />
<path stroke="rgb(0,0,0)" stroke-opacity="1" fill="rgb(173,200,200)" fill-opacity="1" id="swap1" d="M-16.44 -48.03 L-16.69 -45.91 L-17.41 -44.2 L-18.55 -42.93 L-20.05 -42.13 L-21.85 -41.83 L-23.9 -42.05 L-26.14 -42.83 L-27.89 -43.8 L-29.54 -45.02 L-31.05 -46.45 L-32.4 -48.04 L-33.57 -49.75 L-34.52 -51.55 L-35.23 -53.39 L-35.68 -55.23 L-35.84 -57.03 L-35.58 -59.12 L-34.86 -60.82 L-33.72 -62.09 L-32.22 -62.91 L-30.42 -63.22 L-28.37 -63.01 L-26.14 -62.23 L-24.38 -61.26 L-22.73 -60.04 L-21.22 -58.62 L-19.87 -57.03 L-18.7 -55.31 L-17.75 -53.52 L-17.04 -51.68 L-16.59 -49.83 L-16.44 -48.03 Z " />
<path stroke="rgb(0,0,0)" stroke-opacity="1" fill="rgb(255,255,255)" fill-opacity="1" id="secscl1" d="M-1.067 120.5 L-2.553 119.8 L-4.039 119.1 L-5.524 118.4 L-7.01 117.7 L-8.496 117 L-9.982 116.3 L-11.47 115.6 L-12.95 114.9 L-14.44 114.3 L-15.93 113.6 L-17.41 112.9 L-18.9 112.2 L-20.38 111.5 L-21.87 110.8 L-22.9 112.1 L-23.93 113.4 L-24.97 114.7 L-26 116 L-27.03 117.4 L-28.06 118.7 L-29.09 120 L-30.13 121.3 L-31.16 122.6 L-32.19 123.9 L-31.54 125.3 L-30.9 126.8 L-30.25 128.2 L-29.61 129.6 L-28.96 131 L-28.32 132.4 L-27.67 133.9 L-27.03 135.3 L-26.38 136.7 L-25.74 138.1 L-25.09 139.5 L-24.45 141 L-23.8 142.4 L-23.16 143.8 L-22.51 145.2 L-21.87 146.6 L-20.38 147.3 L-18.9 148 L-17.41 148.7 L-15.93 149.4 L-14.44 150.1 L-12.95 150.8 L-11.47 151.4 L-9.982 152.1 L-8.496 152.8 L-7.01 153.5 L-5.524 154.2 L-4.039 154.9 L-2.553 155.6 L-1.067 156.2 L-0.03473 154.9 L0.9974 153.6 L2.029 152.3 L3.062 151 L4.094 149.7 L5.126 148.4 L6.158 147.1 L7.19 145.8 L8.222 144.5 L9.254 143.2 L8.609 141.8 L7.964 140.4 L7.319 138.9 L6.674 137.5 L6.029 136.1 L5.384 134.7 L4.739 133.3 L4.094 131.8 L3.449 130.4 L2.804 129 L2.158 127.6 L1.513 126.2 L0.8684 124.7 L0.2233 123.3 L-0.4218 121.9 L-1.067 120.5 Z " />
</g>
</g>
</svg>
