<!DOCTYPE svg>
<svg xmlns="http://www.w3.org/2000/svg" xmlns:xlink="http://www.w3.org/1999/xlink" width="1080" height="1080">
<g transform="translate(540.000000,540.000000)">
<g transform="scale(2,2)">
<path stroke="rgb(0,0,0)" stroke-opacity="1" fill="rgb(148,200,200)" fill-opacity="1" id="bb1_2_" d="M-171.1 -1.479 L-170.2 -3.276 L-169.4 -5.073 L-168.5 -6.87 L-167.6 -8.666 L-166.8 -10.46 L-165.9 -12.26 L-165.1 -14.06 L-164.2 -15.85 L-163.3 -17.65 L-162.5 -19.45 L-161.6 -21.24 L-160.8 -23.04 L-159.9 -24.84 L-159 -26.63 L-158.2 -28.43 L-157.3 -30.23 L-156.5 -32.02 L-155.6 -33.82 L-154.8 -35.62 L-153.9 -37.42 L-153 -39.21 L-152.2 -41.01 L-151.3 -42.81 L-150.5 -44.6 L-149.6 -46.4 L-148.7 -48.2 L-147.9 -49.99 L-147 -51.79 L-146.2 -53.59 L-144.2 -53.52 L-142.1 -53.46 L-140.1 -53.4 L-138.1 -53.33 L-136.1 -53.27 L-134.1 -53.21 L-132.1 -53.14 L-130.1 -53.08 L-128.1 -53.02 L-126 -52.96 L-124 -52.89 L-122 -52.83 L-120 -52.77 L-118 -52.7 L-116 -52.64 L-114 -52.58 L-112 -52.51 L-110 -52.45 L-107.9 -52.39 L-105.9 -52.32 L-103.9 -52.26 L-101.9 -52.2 L-99.9 -52.14 L-97.89 -52.07 L-95.88 -52.01 L-93.87 -51.95 L-91.86 -51.88 L-92.72 -50.09 L-93.57 -48.29 L-94.43 -46.49 L-95.29 -44.7 L-96.15 -42.9 L-97.01 -41.1 L-97.87 -39.31 L-98.73 -37.51 L-99.59 -35.71 L-100.4 -33.91 L-101.3 -32.12 L-102.2 -30.32 L-103 -28.52 L-103.9 -26.73 L-104.7 -24.93 L-105.6 -23.13 L-106.5 -21.34 L-107.3 -19.54 L-108.2 -17.74 L-109 -15.95 L-109.9 -14.15 L-110.8 -12.35 L-111.6 -10.56 L-112.5 -8.759 L-113.3 -6.963 L-114.2 -5.166 L-115 -3.369 L-115.9 -1.572 L-116.8 0.2247 L-118.8 0.1616 L-120.8 0.0985 L-122.8 0.0354 L-124.8 -0.02771 L-126.8 -0.09081 L-128.8 -0.1539 L-130.8 -0.217 L-132.9 -0.2801 L-134.9 -0.3432 L-136.9 -0.4063 L-138.9 -0.4694 L-140.9 -0.5325 L-142.9 -0.5956 L-144.9 -0.6587 L-146.9 -0.7218 L-148.9 -0.7849 L-151 -0.848 L-153 -0.9111 L-155 -0.9742 L-157 -1.037 L-159 -1.1 L-161 -1.164 L-163 -1.227 L-165 -1.29 L-167 -1.353 L-169.1 -1.416 L-171.1 -1.479 Z " />
<path stroke="rgb(0,0,0)" stroke-opacity="1" fill="rgb(236,216,157)" fill-opacity="1" id="pr2_1_" d="M72.7 104.6 L70.94 103.7 L69.18 102.8 L67.41 101.9 L65.65 101 L63.89 100.1 L62.13 99.25 L60.36 98.35 L58.6 97.45 L58.63 95.52 L58.66 93.59 L58.69 91.66 L58.71 89.74 L58.74 87.81 L58.77 85.88 L58.8 83.95 L60.55 84.84 L62.3 85.73 L64.05 86.61 L65.8 87.5 L67.55 88.39 L69.3 89.28 L71.05 90.16 L72.8 91.05 L72.79 92.99 L72.77 94.94 L72.76 96.88 L72.74 98.82 L72.73 100.8 L72.71 102.7 L72.7 104.6 Z " />
<path stroke="rgb(0,0,0)" stroke-opacity="1" fill="rgb(236,216,157)" fill-opacity="1" id="pr1_1_" d="M54.9 96.05 L53.15 95.15 L51.4 94.25 L49.65 93.35 L47.9 92.45 L46.15 91.55 L44.4 90.65 L42.65 89.75 L40.9 88.85 L40.91 86.92 L40.93 84.99 L40.94 83.06 L40.96 81.14 L40.97 79.21 L40.99 77.28 L41 75.35 L42.75 76.25 L44.5 77.15 L46.25 78.05 L48 78.95 L49.75 79.85 L51.5 80.75 L53.25 81.65 L55 82.55 L54.99 84.48 L54.97 86.41 L54.96 88.34 L54.94 90.26 L54.93 92.19 L54.91 94.12 L54.9 96.05 Z " />
<path stroke="rgb(0,0,0)" stroke-opacity="1" fill="rgb(236,216,157)" fill-opacity="1" id="pr3_1_" d="M54.6 113.6 L52.85 112.7 L51.1 111.8 L49.35 110.9 L47.6 110 L45.85 109.1 L44.1 108.1 L42.35 107.2 L40.6 106.3 L40.61 104.4 L40.63 102.5 L40.64 100.6 L40.66 98.64 L40.67 96.71 L40.69 94.78 L40.7 92.85 L42.45 93.75 L44.2 94.65 L45.95 95.55 L47.7 96.45 L49.45 97.35 L51.2 98.25 L52.95 99.15 L54.7 100.1 L54.69 102 L54.67 103.9 L54.66 105.8 L54.64 107.8 L54.63 109.7 L54.61 111.6 L54.6 113.6 Z " />
<path stroke="rgb(0,0,0)" stroke-opacity="1" fill="rgb(236,216,157)" fill-opacity="1" id="pr4_1_" d="M72.3 121.7 L70.54 120.9 L68.77 120 L67.01 119.1 L65.25 118.2 L63.49 117.3 L61.73 116.4 L59.96 115.5 L58.2 114.6 L58.21 112.7 L58.23 110.8 L58.24 108.9 L58.26 106.9 L58.27 105 L58.29 103.1 L58.3 101.1 L60.06 102 L61.82 102.9 L63.59 103.8 L65.35 104.7 L67.11 105.6 L68.87 106.5 L70.64 107.4 L72.4 108.2 L72.39 110.2 L72.37 112.1 L72.36 114 L72.34 116 L72.33 117.9 L72.31 119.8 L72.3 121.7 Z " />
<path stroke="rgb(0,0,0)" stroke-opacity="1" fill="rgb(238,200,200)" fill-opacity="1" id="ll1_1_" d="M194.1 163.1 L191.1 161.7 L188.1 160.3 L185.1 158.8 L182.1 157.4 L179 156 L176 154.6 L173 153.2 L170 151.8 L167 150.4 L164 149 L161 147.6 L158 146.2 L155 144.8 L152 143.4 L149 142 L145.9 140.6 L145.9 137.2 L145.9 133.8 L145.9 130.5 L145.9 127.1 L145.9 123.8 L145.9 120.4 L145.9 117.1 L145.9 113.7 L145.9 110.4 L145.9 107 L145.9 103.6 L145.9 100.3 L145.9 96.93 L145.9 93.57 L149 94.99 L152 96.4 L155 97.82 L158 99.24 L161 100.7 L164 102.1 L167 103.5 L170 104.9 L173 106.3 L176 107.7 L179 109.2 L182.1 110.6 L185.1 112 L188.1 113.4 L191.1 114.8 L194.1 116.2 L194.1 119.6 L194.1 122.9 L194.1 126.3 L194.1 129.6 L194.1 133 L194.1 136.3 L194.1 139.7 L194.1 143 L194.1 146.3 L194.1 149.7 L194.1 153 L194.1 156.4 L194.1 159.7 L194.1 163.1 Z " />
<path stroke="rgb(0,0,0)" stroke-opacity="1" fill="rgb(255,255,255)" fill-opacity="1" id="cl1_1_" d="M17.26 103.4 L19.07 104.3 L20.88 105.2 L22.69 106.1 L24.5 107 L26.3 107.9 L28.11 108.8 L29.92 109.7 L31.73 110.6 L33.54 111.5 L35.35 112.4 L37.16 113.3 L38.97 114.2 L40.78 115.1 L42.58 116.1 L44.39 117 L44.49 119.1 L42.68 118.1 L40.87 117.2 L39.07 116.3 L37.26 115.4 L35.45 114.4 L33.64 113.5 L31.83 112.6 L30.02 111.7 L28.21 110.7 L26.4 109.8 L24.6 108.9 L22.79 108 L20.98 107 L19.17 106.1 L17.36 105.2 L17.26 103.4 Z " />
<path stroke="rgb(0,0,0)" stroke-opacity="1" fill="rgb(255,255,255)" fill-opacity="1" id="a5_2_" d="M186.5 -50.75 L184.6 -51.59 L182.7 -52.44 L180.8 -53.28 L179 -54.12 L177.1 -54.96 L175.2 -55.81 L173.3 -56.65 L171.4 -57.49 L169.5 -58.34 L167.6 -59.18 L165.8 -60.02 L163.9 -60.86 L162 -61.71 L160.1 -62.55 L160.1 -60.6 L160.1 -58.64 L160.1 -56.69 L160.1 -54.73 L160.1 -52.78 L160.1 -50.83 L160.1 -48.87 L160.1 -46.92 L160.1 -44.97 L160.1 -43.01 L160.1 -41.06 L160.1 -39.1 L160.1 -37.15 L162 -36.31 L163.9 -35.46 L165.8 -34.62 L167.6 -33.78 L169.5 -32.94 L171.4 -32.09 L173.3 -31.25 L175.2 -30.41 L177.1 -29.56 L179 -28.72 L180.8 -27.88 L182.7 -27.04 L184.6 -26.19 L186.5 -25.35 L186.5 -27.3 L186.5 -29.26 L186.5 -31.21 L186.5 -33.17 L186.5 -35.12 L186.5 -37.07 L186.5 -39.03 L186.5 -40.98 L186.5 -42.93 L186.5 -44.89 L186.5 -46.84 L186.5 -48.8 L186.5 -50.75 Z " />
<path stroke="rgb(0,0,0)" stroke-opacity="1" fill="rgb(255,255,255)" fill-opacity="1" id="a6_2_" d="M83.3 51.45 L81.52 50.62 L79.75 49.79 L77.97 48.96 L76.19 48.13 L74.42 47.3 L72.64 46.47 L70.86 45.64 L69.09 44.81 L67.31 43.99 L65.54 43.16 L63.76 42.33 L61.98 41.5 L60.21 40.67 L58.43 39.84 L56.65 39.01 L54.88 38.18 L53.1 37.35 L53.1 35.25 L53.1 33.15 L53.1 31.05 L53.1 28.95 L53.1 26.85 L53.1 24.75 L53.1 22.65 L53.1 20.55 L53.1 18.45 L53.1 16.35 L54.87 17.18 L56.64 18.01 L58.41 18.84 L60.18 19.67 L61.95 20.5 L63.72 21.33 L65.49 22.16 L67.26 22.99 L69.04 23.81 L70.81 24.64 L72.58 25.47 L74.35 26.3 L76.12 27.13 L77.89 27.96 L79.66 28.79 L81.43 29.62 L83.2 30.45 L83.21 32.36 L83.22 34.27 L83.23 36.18 L83.24 38.09 L83.25 40 L83.25 41.9 L83.26 43.81 L83.27 45.72 L83.28 47.63 L83.29 49.54 L83.3 51.45 Z " />
<path stroke="rgb(0,0,0)" stroke-opacity="1" fill="rgb(148,200,200)" fill-opacity="1" id="rtr1_2_" d="M44.46 -121.4 L46.11 -120.2 L47.77 -118.9 L49.42 -117.7 L51.07 -116.4 L52.73 -115.2 L54.38 -114 L53.95 -111.9 L53.52 -109.8 L53.09 -107.7 L52.66 -105.6 L52.23 -103.5 L50.56 -104.8 L48.89 -106 L47.22 -107.2 L45.55 -108.5 L43.88 -109.7 L42.21 -111 L42.66 -113.1 L43.11 -115.1 L43.56 -117.2 L44.01 -119.3 L44.46 -121.4 Z " />
<path stroke="rgb(0,0,0)" stroke-opacity="1" fill="rgb(238,200,200)" fill-opacity="1" id="sg1_2_" d="M78.04 125.6 L78.1 123.7 L78.16 121.9 L78.22 120.1 L78.28 118.2 L78.33 116.4 L78.39 114.6 L80.29 113.7 L82.19 112.8 L84.09 111.9 L85.99 111 L85.95 112.8 L85.91 114.7 L85.88 116.5 L85.84 118.4 L85.81 120.2 L85.77 122 L83.84 122.9 L81.91 123.8 L79.97 124.7 L78.04 125.6 Z " />
<path stroke="rgb(0,0,0)" stroke-opacity="1" fill="rgb(255,255,255)" fill-opacity="1" id="a12_2_" d="M-50.86 84.51 L-52.74 83.69 L-54.62 82.87 L-56.51 82.06 L-58.39 81.24 L-60.27 80.42 L-62.16 79.61 L-62.17 77.67 L-62.19 75.74 L-62.21 73.81 L-62.22 71.87 L-62.24 69.94 L-62.26 68.01 L-60.39 68.82 L-58.52 69.64 L-56.66 70.46 L-54.79 71.27 L-52.92 72.09 L-51.06 72.91 L-51.02 74.84 L-50.99 76.77 L-50.96 78.71 L-50.92 80.64 L-50.89 82.57 L-50.86 84.51 Z " />
<path stroke="rgb(0,0,0)" stroke-opacity="1" fill="rgb(255,255,255)" fill-opacity="1" id="secscl1_2_" d="M-30.82 31.31 L-31.99 30.75 L-33.17 30.19 L-34.35 29.63 L-35.52 29.07 L-36.7 28.51 L-37.88 27.95 L-39.05 27.39 L-40.23 26.83 L-40.23 25.56 L-40.23 24.29 L-40.23 23.03 L-40.23 21.76 L-40.23 20.49 L-40.23 19.22 L-40.23 17.96 L-40.23 16.69 L-40.23 15.42 L-40.23 14.15 L-40.23 12.89 L-40.23 11.62 L-40.23 10.35 L-40.23 9.083 L-40.23 7.816 L-40.23 6.548 L-40.23 5.281 L-40.23 4.013 L-40.23 2.746 L-40.23 1.478 L-40.23 0.2109 L-40.23 -1.057 L-40.23 -2.324 L-40.23 -3.592 L-40.23 -4.859 L-40.23 -6.126 L-40.23 -7.394 L-40.23 -8.661 L-40.23 -9.929 L-40.23 -11.2 L-40.23 -12.46 L-40.23 -13.73 L-40.23 -15 L-40.23 -16.27 L-40.23 -17.53 L-40.23 -18.8 L-40.23 -20.07 L-40.23 -21.34 L-40.23 -22.6 L-40.23 -23.87 L-39.05 -23.3 L-37.88 -22.73 L-36.7 -22.17 L-35.52 -21.6 L-34.35 -21.03 L-33.17 -20.46 L-31.99 -19.89 L-30.82 -19.33 L-30.82 -18.06 L-30.82 -16.79 L-30.82 -15.53 L-30.82 -14.26 L-30.82 -13 L-30.82 -11.73 L-30.82 -10.46 L-30.82 -9.199 L-30.82 -7.933 L-30.82 -6.667 L-30.82 -5.401 L-30.82 -4.136 L-30.82 -2.87 L-30.82 -1.604 L-30.82 -0.338 L-30.82 0.9278 L-30.82 2.194 L-30.82 3.46 L-30.82 4.725 L-30.82 5.991 L-30.82 7.257 L-30.82 8.523 L-30.82 9.789 L-30.82 11.05 L-30.82 12.32 L-30.82 13.59 L-30.82 14.85 L-30.82 16.12 L-30.82 17.38 L-30.82 18.65 L-30.82 19.92 L-30.82 21.18 L-30.82 22.45 L-30.82 23.71 L-30.82 24.98 L-30.82 26.25 L-30.82 27.51 L-30.82 28.78 L-30.82 30.04 L-30.82 31.31 Z " />
<path stroke="rgb(0,0,0)" stroke-opacity="1" fill="rgb(255,255,255)" fill-opacity="1" id="a7_1_" d="M141.3 -84.25 L139.4 -85.05 L137.6 -85.85 L135.7 -86.65 L133.8 -87.45 L132 -88.25 L130.1 -89.05 L128.3 -89.85 L126.4 -90.65 L124.5 -91.45 L122.7 -92.25 L120.8 -93.05 L120.8 -95.03 L120.8 -97.02 L120.8 -99 L120.8 -101 L120.8 -103 L120.8 -105 L122.7 -104.1 L124.5 -103.3 L126.4 -102.5 L128.3 -101.7 L130.1 -100.9 L132 -100 L133.8 -99.22 L135.7 -98.4 L137.6 -97.59 L139.4 -96.77 L141.3 -95.95 L141.3 -94 L141.3 -92.05 L141.3 -90.1 L141.3 -88.15 L141.3 -86.2 L141.3 -84.25 Z " />
<path stroke="rgb(0,0,0)" stroke-opacity="1" fill="rgb(255,255,255)" fill-opacity="1" id="a8_1_" d="M141.2 -69.95 L139.3 -70.76 L137.5 -71.57 L135.6 -72.38 L133.7 -73.19 L131.9 -74 L130 -74.8 L128.2 -75.61 L126.3 -76.42 L124.4 -77.23 L122.6 -78.04 L120.7 -78.85 L120.7 -80.82 L120.7 -82.78 L120.7 -84.75 L120.7 -86.72 L120.7 -88.68 L120.7 -90.65 L122.6 -89.85 L124.4 -89.05 L126.3 -88.25 L128.2 -87.45 L130.1 -86.65 L131.9 -85.85 L133.8 -85.05 L135.7 -84.25 L137.6 -83.45 L139.4 -82.65 L141.3 -81.85 L141.3 -79.87 L141.3 -77.88 L141.2 -75.9 L141.2 -73.92 L141.2 -71.93 L141.2 -69.95 Z " />
<path stroke="rgb(0,0,0)" stroke-opacity="1" fill="rgb(255,255,255)" fill-opacity="1" id="a9_1_" d="M134.2 -61.55 L132.3 -62.35 L130.4 -63.15 L128.5 -63.95 L126.5 -64.75 L124.6 -65.55 L122.7 -66.35 L120.8 -67.15 L120.8 -68.95 L120.8 -70.75 L120.7 -72.55 L120.7 -74.35 L120.7 -76.15 L122.6 -75.34 L124.5 -74.52 L126.4 -73.71 L128.4 -72.89 L130.3 -72.08 L132.2 -71.26 L134.1 -70.45 L134.1 -68.23 L134.2 -66 L134.2 -63.77 L134.2 -61.55 Z " />
<path stroke="rgb(0,0,0)" stroke-opacity="1" fill="rgb(255,255,255)" fill-opacity="1" id="a17_1_" d="M34.5 57.65 L32.73 56.71 L30.95 55.78 L29.18 54.84 L27.41 53.9 L25.64 52.97 L23.86 52.03 L22.09 51.1 L20.32 50.16 L18.55 49.22 L16.77 48.29 L15 47.35 L15 45.33 L15 43.32 L15 41.3 L15 39.28 L15 37.27 L15 35.25 L16.77 36.19 L18.55 37.12 L20.32 38.06 L22.09 39 L23.86 39.93 L25.64 40.87 L27.41 41.8 L29.18 42.74 L30.95 43.68 L32.73 44.61 L34.5 45.55 L34.5 47.57 L34.5 49.58 L34.5 51.6 L34.5 53.62 L34.5 55.63 L34.5 57.65 Z " />
<path stroke="rgb(0,0,0)" stroke-opacity="1" fill="rgb(255,255,255)" fill-opacity="1" id="a16_1_" d="M34.5 79.85 L32.73 78.95 L30.95 78.05 L29.18 77.15 L27.41 76.25 L25.64 75.35 L23.86 74.45 L22.09 73.55 L20.32 72.65 L18.55 71.75 L16.77 70.85 L15 69.95 L15 67.98 L15 66.02 L15 64.05 L15 62.08 L15 60.12 L15 58.15 L16.77 59.05 L18.55 59.95 L20.32 60.85 L22.09 61.75 L23.86 62.65 L25.64 63.55 L27.41 64.45 L29.18 65.35 L30.95 66.25 L32.73 67.15 L34.5 68.05 L34.5 70.02 L34.5 71.98 L34.5 73.95 L34.5 75.92 L34.5 77.88 L34.5 79.85 Z " />
<path stroke="rgb(0,0,0)" stroke-opacity="1" fill="rgb(236,216,157)" fill-opacity="1" id="scltrs1_1_" d="M-31.48 30.43 L-32.39 29.95 L-33.31 29.47 L-34.22 28.99 L-35.14 28.51 L-36.05 28.04 L-36.97 27.56 L-37.88 27.08 L-37.88 26.04 L-37.88 24.99 L-37.88 23.95 L-37.88 22.91 L-37.88 21.87 L-37.88 20.83 L-36.97 21.3 L-36.05 21.78 L-35.14 22.26 L-34.22 22.74 L-33.31 23.22 L-32.39 23.7 L-31.48 24.18 L-31.48 25.22 L-31.48 26.26 L-31.48 27.3 L-31.48 28.35 L-31.48 29.39 L-31.48 30.43 Z " />
<path stroke="rgb(0,0,0)" stroke-opacity="1" fill="rgb(244,227,211)" fill-opacity="1" id="a15_1_" d="M119.3 -1.717 L117.4 -2.58 L115.6 -3.442 L113.7 -4.305 L111.8 -5.167 L110 -6.03 L108.1 -6.892 L106.3 -7.755 L104.4 -8.617 L104.4 -10.54 L104.4 -12.46 L104.4 -14.38 L104.4 -16.3 L104.4 -18.22 L106.3 -17.34 L108.1 -16.47 L110 -15.59 L111.8 -14.72 L113.7 -13.84 L115.6 -12.97 L117.4 -12.09 L119.3 -11.22 L119.3 -9.317 L119.3 -7.417 L119.3 -5.517 L119.3 -3.617 L119.3 -1.717 Z " />
<path stroke="rgb(0,0,0)" stroke-opacity="1" fill="rgb(244,227,211)" fill-opacity="1" id="a14_1_" d="M117.2 9.75 L115.4 8.893 L113.5 8.036 L111.7 7.179 L109.8 6.321 L108 5.464 L106.1 4.607 L104.3 3.75 L104.3 1.817 L104.4 -0.1167 L104.4 -2.05 L106.2 -1.164 L108.1 -0.2786 L109.9 0.6071 L111.7 1.493 L113.5 2.379 L115.4 3.264 L117.2 4.15 L117.2 6.017 L117.2 7.883 L117.2 9.75 Z " />
<path stroke="rgb(0,0,0)" stroke-opacity="1" fill="rgb(244,227,211)" fill-opacity="1" id="a13_1_" d="M115 29.65 L113.2 28.82 L111.4 27.98 L109.6 27.15 L107.9 26.32 L106.1 25.48 L104.3 24.65 L104.3 22.59 L104.3 20.52 L104.3 18.46 L104.3 16.4 L104.3 14.34 L104.3 12.27 L104.3 10.21 L104.3 8.15 L106.1 8.983 L107.9 9.817 L109.6 10.65 L111.4 11.48 L113.2 12.32 L115 13.15 L115 15.21 L115 17.27 L115 19.34 L115 21.4 L115 23.46 L115 25.52 L115 27.59 L115 29.65 Z " />
<path stroke="rgb(0,0,0)" stroke-opacity="1" fill="rgb(200,200,200)" fill-opacity="1" id="a1_2_" d="M-110.5 -63.45 L-112.2 -64.33 L-114 -65.2 L-115.7 -66.08 L-117.5 -66.96 L-119.2 -67.84 L-121 -68.71 L-122.7 -69.59 L-124.5 -70.47 L-126.2 -71.35 L-128 -72.22 L-129.8 -73.1 L-131.5 -73.98 L-133.3 -74.85 L-135 -75.73 L-136.8 -76.61 L-138.5 -77.49 L-140.3 -78.36 L-142 -79.24 L-143.8 -80.12 L-145.5 -81 L-147.3 -81.87 L-149 -82.75 L-149 -84.61 L-149 -86.47 L-149 -88.33 L-149 -90.19 L-149 -92.05 L-147.3 -91.17 L-145.5 -90.29 L-143.8 -89.4 L-142 -88.52 L-140.3 -87.64 L-138.5 -86.76 L-136.8 -85.88 L-135 -85 L-133.3 -84.11 L-131.5 -83.23 L-129.8 -82.35 L-128 -81.47 L-126.2 -80.59 L-124.5 -79.7 L-122.7 -78.82 L-121 -77.94 L-119.2 -77.06 L-117.5 -76.18 L-115.7 -75.3 L-114 -74.41 L-112.2 -73.53 L-110.5 -72.65 L-110.5 -70.81 L-110.5 -68.97 L-110.5 -67.13 L-110.5 -65.29 L-110.5 -63.45 Z " />
<path stroke="rgb(0,0,0)" stroke-opacity="1" fill="rgb(200,200,200)" fill-opacity="1" id="a4_2_" d="M-89.9 -108.2 L-91.69 -109 L-93.49 -109.9 L-95.28 -110.8 L-97.08 -111.7 L-98.87 -112.6 L-100.7 -113.5 L-102.5 -114.4 L-104.3 -115.3 L-106 -116.2 L-107.8 -117.1 L-109.6 -118 L-111.4 -118.9 L-113.2 -119.8 L-115 -120.7 L-116.8 -121.6 L-118.6 -122.5 L-120.4 -123.3 L-122.2 -124.2 L-124 -125.1 L-125.8 -126 L-127.6 -126.9 L-129.4 -127.8 L-131.2 -128.7 L-133 -129.6 L-134.7 -130.5 L-136.5 -131.4 L-138.3 -132.3 L-140.1 -133.2 L-141.9 -134.1 L-143.7 -135 L-145.5 -135.9 L-147.3 -136.8 L-149.1 -137.7 L-149.1 -139.7 L-149.1 -141.7 L-149.1 -143.7 L-149.1 -145.7 L-149.1 -147.7 L-149.1 -149.7 L-149.1 -151.8 L-147.3 -150.9 L-145.5 -150 L-143.7 -149.1 L-141.9 -148.2 L-140.1 -147.3 L-138.3 -146.4 L-136.5 -145.5 L-134.7 -144.6 L-133 -143.7 L-131.2 -142.8 L-129.4 -142 L-127.6 -141.1 L-125.8 -140.2 L-124 -139.3 L-122.2 -138.4 L-120.4 -137.5 L-118.6 -136.6 L-116.8 -135.7 L-115 -134.8 L-113.2 -133.9 L-111.4 -133 L-109.6 -132.2 L-107.8 -131.3 L-106 -130.4 L-104.3 -129.5 L-102.5 -128.6 L-100.7 -127.7 L-98.87 -126.8 L-97.08 -125.9 L-95.28 -125 L-93.49 -124.1 L-91.69 -123.2 L-89.9 -122.3 L-89.9 -120.3 L-89.9 -118.3 L-89.9 -116.3 L-89.9 -114.2 L-89.9 -112.2 L-89.9 -110.2 L-89.9 -108.2 Z " />
<path stroke="rgb(0,0,0)" stroke-opacity="1" fill="rgb(200,200,200)" fill-opacity="1" id="a2_1_" d="M-109.1 -77.55 L-110.9 -78.45 L-112.7 -79.36 L-114.6 -80.26 L-116.4 -81.17 L-118.2 -82.07 L-120 -82.98 L-121.8 -83.88 L-123.6 -84.79 L-125.5 -85.69 L-127.3 -86.6 L-129.1 -87.5 L-130.9 -88.4 L-132.7 -89.31 L-134.6 -90.21 L-136.4 -91.12 L-138.2 -92.02 L-140 -92.93 L-141.8 -93.83 L-143.6 -94.74 L-145.5 -95.64 L-147.3 -96.55 L-149.1 -97.45 L-149.1 -99.39 L-149.1 -101.3 L-149.1 -103.3 L-149.1 -105.2 L-149.1 -107.2 L-147.3 -106.2 L-145.5 -105.3 L-143.6 -104.4 L-141.8 -103.5 L-140 -102.6 L-138.2 -101.7 L-136.4 -100.8 L-134.6 -99.88 L-132.7 -98.97 L-130.9 -98.06 L-129.1 -97.15 L-127.3 -96.24 L-125.5 -95.33 L-123.6 -94.42 L-121.8 -93.51 L-120 -92.6 L-118.2 -91.7 L-116.4 -90.79 L-114.6 -89.88 L-112.7 -88.97 L-110.9 -88.06 L-109.1 -87.15 L-109.1 -85.23 L-109.1 -83.31 L-109.1 -81.39 L-109.1 -79.47 L-109.1 -77.55 Z " />
<path stroke="rgb(0,0,0)" stroke-opacity="1" fill="rgb(200,200,200)" fill-opacity="1" id="a3_1_" d="M-105.8 -95.22 L-107.6 -96.11 L-109.4 -97 L-111.2 -97.89 L-113 -98.78 L-114.8 -99.67 L-116.6 -100.6 L-118.4 -101.5 L-120.2 -102.3 L-122 -103.2 L-123.8 -104.1 L-125.6 -105 L-127.4 -105.9 L-129.3 -106.8 L-131.1 -107.7 L-132.9 -108.6 L-134.7 -109.5 L-136.5 -110.4 L-138.3 -111.3 L-140.1 -112.2 L-141.9 -113 L-143.7 -113.9 L-145.5 -114.8 L-147.3 -115.7 L-149.1 -116.6 L-149.1 -118.7 L-149.1 -120.8 L-149.1 -122.9 L-149.1 -124.9 L-149.1 -127 L-147.3 -126.1 L-145.5 -125.2 L-143.7 -124.3 L-141.9 -123.4 L-140.1 -122.6 L-138.3 -121.7 L-136.5 -120.8 L-134.7 -119.9 L-132.9 -119 L-131.1 -118.1 L-129.3 -117.2 L-127.4 -116.3 L-125.6 -115.4 L-123.8 -114.5 L-122 -113.6 L-120.2 -112.7 L-118.4 -111.9 L-116.6 -111 L-114.8 -110.1 L-113 -109.2 L-111.2 -108.3 L-109.4 -107.4 L-107.6 -106.5 L-105.8 -105.6 L-105.8 -103.5 L-105.8 -101.5 L-105.8 -99.38 L-105.8 -97.3 L-105.8 -95.22 Z " />
<path stroke="rgb(0,0,0)" stroke-opacity="1" fill="rgb(244,227,211)" fill-opacity="1" id="a11_1_" d="M-30.3 70.85 L-32.12 70.04 L-33.94 69.23 L-35.76 68.42 L-37.57 67.61 L-39.39 66.79 L-41.21 65.98 L-43.03 65.17 L-44.85 64.36 L-46.67 63.55 L-48.49 62.74 L-50.3 61.93 L-52.12 61.12 L-53.94 60.31 L-55.76 59.49 L-57.58 58.68 L-59.4 57.87 L-61.21 57.06 L-63.03 56.25 L-64.85 55.44 L-66.67 54.63 L-68.49 53.82 L-70.31 53.01 L-72.13 52.19 L-73.94 51.38 L-75.76 50.57 L-77.58 49.76 L-79.4 48.95 L-79.45 47 L-79.5 45.05 L-77.68 45.86 L-75.86 46.68 L-74.04 47.49 L-72.23 48.31 L-70.41 49.12 L-68.59 49.94 L-66.77 50.75 L-64.95 51.57 L-63.13 52.38 L-61.31 53.2 L-59.5 54.01 L-57.68 54.83 L-55.86 55.64 L-54.04 56.46 L-52.22 57.27 L-50.4 58.09 L-48.59 58.9 L-46.77 59.72 L-44.95 60.53 L-43.13 61.35 L-41.31 62.16 L-39.49 62.98 L-37.67 63.79 L-35.86 64.61 L-34.04 65.42 L-32.22 66.24 L-30.4 67.05 L-30.35 68.95 L-30.3 70.85 Z " />
<path stroke="rgb(0,0,0)" stroke-opacity="1" fill="rgb(244,200,200)" fill-opacity="1" id="fus1_1_" d="M-95.5 56.95 L-97.3 56.19 L-99.1 55.43 L-100.9 54.67 L-102.7 53.91 L-104.5 53.15 L-104.5 51.29 L-104.5 49.43 L-104.5 47.57 L-104.5 45.71 L-104.5 43.85 L-102.7 44.61 L-100.9 45.37 L-99.1 46.13 L-97.3 46.89 L-95.5 47.65 L-95.5 49.51 L-95.5 51.37 L-95.5 53.23 L-95.5 55.09 L-95.5 56.95 Z " />
<path stroke="rgb(0,0,0)" stroke-opacity="1" fill="rgb(244,200,200)" fill-opacity="1" id="fus2_1_" d="M-96.5 60.95 L-98.3 60.17 L-100.1 59.39 L-101.9 58.61 L-103.7 57.83 L-105.5 57.05 L-105.5 55.17 L-105.4 53.29 L-105.4 51.41 L-105.3 49.53 L-105.3 47.65 L-103.5 48.41 L-101.8 49.17 L-100 49.93 L-98.26 50.69 L-96.5 51.45 L-96.5 53.35 L-96.5 55.25 L-96.5 57.15 L-96.5 59.05 L-96.5 60.95 Z " />
<path stroke="rgb(0,0,0)" stroke-opacity="1" fill="rgb(244,200,200)" fill-opacity="1" id="fus3_1_" d="M-99.61 60.46 L-101.4 59.7 L-103.2 58.94 L-105 58.18 L-106.7 57.42 L-108.5 56.66 L-108.5 54.8 L-108.5 52.94 L-108.5 51.08 L-108.5 49.22 L-108.5 47.36 L-106.7 48.12 L-104.9 48.88 L-103.1 49.64 L-101.3 50.4 L-99.51 51.16 L-99.53 53.02 L-99.55 54.88 L-99.57 56.74 L-99.59 58.6 L-99.61 60.46 Z " />
<path stroke="rgb(0,0,0)" stroke-opacity="1" fill="rgb(244,200,200)" fill-opacity="1" id="fus4_1_" d="M-91.5 65.45 L-93.3 64.67 L-95.1 63.89 L-96.9 63.11 L-98.7 62.33 L-100.5 61.55 L-100.5 59.69 L-100.5 57.83 L-100.5 55.97 L-100.5 54.11 L-100.5 52.25 L-98.7 53.03 L-96.9 53.81 L-95.1 54.59 L-93.3 55.37 L-91.5 56.15 L-91.5 58.01 L-91.5 59.87 L-91.5 61.73 L-91.5 63.59 L-91.5 65.45 Z " />
<path stroke="rgb(0,0,0)" stroke-opacity="1" fill="rgb(173,200,200)" fill-opacity="1" id="swap1_1_" d="M31.58 -110.8 L29.76 -111.7 L27.94 -112.7 L26.12 -113.6 L24.3 -114.6 L22.48 -115.6 L20.66 -116.5 L18.84 -117.5 L17.02 -118.4 L15.2 -119.4 L13.38 -120.4 L13.39 -122.4 L13.4 -124.4 L13.41 -126.4 L13.42 -128.4 L13.43 -130.4 L13.44 -132.4 L13.46 -134.4 L13.47 -136.4 L13.48 -138.5 L15.3 -137.5 L17.12 -136.5 L18.94 -135.5 L20.76 -134.6 L22.58 -133.6 L24.4 -132.6 L26.22 -131.7 L28.04 -130.7 L29.86 -129.7 L31.68 -128.8 L31.67 -126.8 L31.66 -124.8 L31.64 -122.8 L31.63 -120.8 L31.62 -118.8 L31.61 -116.8 L31.6 -114.8 L31.59 -112.8 L31.58 -110.8 Z " />
<path stroke="rgb(0,0,0)" stroke-opacity="1" fill="rgb(173,200,200)" fill-opacity="1" id="swap3_1_" d="M20.8 -132.9 L18.98 -133.8 L17.16 -134.8 L15.34 -135.7 L13.52 -136.7 L11.7 -137.7 L9.88 -138.6 L8.06 -139.6 L6.24 -140.5 L4.42 -141.5 L2.6 -142.5 L2.611 -144.5 L2.622 -146.5 L2.633 -148.5 L2.644 -150.5 L2.656 -152.5 L2.667 -154.5 L2.678 -156.5 L2.689 -158.6 L2.7 -160.6 L4.52 -159.6 L6.34 -158.6 L8.16 -157.7 L9.98 -156.7 L11.8 -155.8 L13.62 -154.8 L15.44 -153.8 L17.26 -152.9 L19.08 -151.9 L20.9 -151 L20.89 -149 L20.88 -146.9 L20.87 -144.9 L20.86 -142.9 L20.84 -140.9 L20.83 -138.9 L20.82 -136.9 L20.81 -134.9 L20.8 -132.9 Z " />
<path stroke="rgb(0,0,0)" stroke-opacity="1" fill="rgb(173,200,200)" fill-opacity="1" id="swap2_1_" d="M10.12 -121 L8.303 -122 L6.483 -123 L4.663 -123.9 L2.843 -124.9 L1.023 -125.8 L-0.7975 -126.8 L-2.617 -127.8 L-4.437 -128.7 L-6.257 -129.7 L-8.077 -130.6 L-8.066 -132.7 L-8.055 -134.7 L-8.044 -136.7 L-8.033 -138.7 L-8.022 -140.7 L-8.011 -142.7 L-8 -144.7 L-7.989 -146.7 L-7.977 -148.7 L-6.147 -147.8 L-4.317 -146.8 L-2.487 -145.9 L-0.6575 -144.9 L1.173 -143.9 L3.003 -143 L4.833 -142 L6.663 -141.1 L8.493 -140.1 L10.32 -139.1 L10.3 -137.1 L10.28 -135.1 L10.26 -133.1 L10.23 -131.1 L10.21 -129.1 L10.19 -127.1 L10.17 -125.1 L10.14 -123.1 L10.12 -121 Z " />
<path stroke="rgb(0,0,0)" stroke-opacity="1" fill="rgb(173,200,200)" fill-opacity="1" id="swap4_1_" d="M20.7 -99.23 L18.88 -100.2 L17.06 -101.2 L15.24 -102.2 L13.42 -103.2 L11.6 -104.1 L9.78 -105.1 L7.96 -106.1 L6.14 -107.1 L4.32 -108.1 L2.5 -109 L2.511 -111 L2.522 -113 L2.533 -115 L2.544 -117 L2.556 -119 L2.567 -121 L2.578 -123 L2.589 -125 L2.6 -127 L4.43 -126.1 L6.26 -125.1 L8.09 -124.1 L9.92 -123.2 L11.75 -122.2 L13.58 -121.2 L15.41 -120.2 L17.24 -119.3 L19.07 -118.3 L20.9 -117.3 L20.88 -115.3 L20.86 -113.3 L20.83 -111.3 L20.81 -109.3 L20.79 -107.3 L20.77 -105.3 L20.74 -103.3 L20.72 -101.2 L20.7 -99.23 Z " />
<path stroke="rgb(0,0,0)" stroke-opacity="1" fill="rgb(244,227,211)" fill-opacity="1" id="a10_5_" d="M40 -41.65 L38.24 -40.63 L36.48 -39.6 L34.71 -38.57 L32.95 -37.55 L31.19 -36.53 L29.42 -35.5 L27.66 -34.48 L25.9 -33.45 L24.14 -32.43 L22.37 -31.4 L20.61 -30.38 L18.85 -29.35 L17.09 -28.33 L15.32 -27.3 L13.56 -26.28 L11.8 -25.25 L10.04 -26.28 L8.275 -27.3 L6.512 -28.33 L4.75 -29.35 L2.987 -30.38 L1.225 -31.4 L-0.5375 -32.43 L-2.3 -33.45 L-4.063 -34.48 L-5.825 -35.5 L-7.587 -36.53 L-9.35 -37.55 L-11.11 -38.57 L-12.87 -39.6 L-14.64 -40.63 L-16.4 -41.65 L-14.64 -42.68 L-12.87 -43.7 L-11.11 -44.72 L-9.35 -45.75 L-7.587 -46.77 L-5.825 -47.8 L-4.063 -48.82 L-2.3 -49.85 L-0.5375 -50.87 L1.225 -51.9 L2.987 -52.92 L4.75 -53.95 L6.512 -54.97 L8.275 -56 L10.04 -57.02 L11.8 -58.05 L13.56 -57.02 L15.32 -56 L17.09 -54.97 L18.85 -53.95 L20.61 -52.92 L22.37 -51.9 L24.14 -50.87 L25.9 -49.85 L27.66 -48.82 L29.42 -47.8 L31.19 -46.77 L32.95 -45.75 L34.71 -44.72 L36.48 -43.7 L38.24 -42.68 L40 -41.65 Z " />
<path stroke="rgb(0,0,0)" stroke-opacity="1" fill="rgb(244,227,211)" fill-opacity="1" id="a10_4_" d="M40.5 -6.85 L40.5 -8.85 L40.5 -10.85 L40.5 -12.85 L40.5 -14.85 L40.5 -16.85 L40.5 -18.85 L40.5 -20.85 L40.5 -22.85 L40.5 -24.85 L40.5 -26.85 L40.5 -28.85 L40.5 -30.85 L40.5 -32.85 L40.5 -34.85 L40.5 -36.85 L40.5 -38.85 L40.5 -40.85 L38.74 -39.83 L36.98 -38.8 L35.21 -37.78 L33.45 -36.75 L31.69 -35.73 L29.92 -34.7 L28.16 -33.68 L26.4 -32.65 L24.64 -31.62 L22.87 -30.6 L21.11 -29.57 L19.35 -28.55 L17.59 -27.52 L15.82 -26.5 L14.06 -25.47 L12.3 -24.45 L12.3 -22.44 L12.3 -20.44 L12.3 -18.43 L12.3 -16.43 L12.3 -14.42 L12.3 -12.42 L12.3 -10.41 L12.3 -8.408 L12.3 -6.403 L12.3 -4.397 L12.3 -2.392 L12.3 -0.3868 L12.3 1.618 L12.3 3.624 L12.3 5.629 L12.3 7.634 L12.3 9.639 L12.3 11.64 L12.3 13.65 L13.96 12.44 L15.62 11.24 L17.28 10.03 L18.94 8.826 L20.59 7.621 L22.25 6.415 L23.91 5.209 L25.57 4.003 L27.23 2.797 L28.89 1.591 L30.55 0.3853 L32.21 -0.8206 L33.86 -2.026 L35.52 -3.232 L37.18 -4.438 L38.84 -5.644 L40.5 -6.85 Z " />
<path stroke="rgb(0,0,0)" stroke-opacity="1" fill="rgb(244,227,211)" fill-opacity="1" id="a10_3_" d="M-16.8 -40.85 L-16.8 -38.85 L-16.8 -36.85 L-16.8 -34.85 L-16.8 -32.85 L-16.8 -30.85 L-16.8 -28.85 L-16.8 -26.85 L-16.8 -24.85 L-16.8 -22.85 L-16.8 -20.85 L-16.8 -18.85 L-16.8 -16.85 L-16.8 -14.85 L-16.8 -12.85 L-16.8 -10.85 L-16.8 -8.85 L-16.8 -6.85 L-15.14 -5.644 L-13.48 -4.438 L-11.82 -3.232 L-10.16 -2.026 L-8.506 -0.8206 L-6.847 0.3853 L-5.188 1.591 L-3.529 2.797 L-1.871 4.003 L-0.2118 5.209 L1.447 6.415 L3.106 7.621 L4.765 8.826 L6.424 10.03 L8.082 11.24 L9.741 12.44 L11.4 13.65 L11.4 11.64 L11.4 9.639 L11.4 7.634 L11.4 5.629 L11.4 3.624 L11.4 1.618 L11.4 -0.3868 L11.4 -2.392 L11.4 -4.397 L11.4 -6.403 L11.4 -8.408 L11.4 -10.41 L11.4 -12.42 L11.4 -14.42 L11.4 -16.43 L11.4 -18.43 L11.4 -20.44 L11.4 -22.44 L11.4 -24.45 L9.637 -25.47 L7.875 -26.5 L6.112 -27.52 L4.35 -28.55 L2.587 -29.57 L0.825 -30.6 L-0.9375 -31.62 L-2.7 -32.65 L-4.462 -33.68 L-6.225 -34.7 L-7.987 -35.73 L-9.75 -36.75 L-11.51 -37.78 L-13.27 -38.8 L-15.04 -39.83 L-16.8 -40.85 Z " />
<path stroke="rgb(0,0,0)" stroke-opacity="1" fill="rgb(200,200,200)" fill-opacity="1" id="circ1_5_" d="M-69.99 -15.61 L-71.57 -14.69 L-73.15 -13.77 L-74.73 -12.85 L-76.31 -11.93 L-77.89 -11.01 L-79.47 -11.93 L-81.05 -12.85 L-82.63 -13.77 L-84.21 -14.69 L-85.79 -15.61 L-84.21 -16.53 L-82.63 -17.45 L-81.05 -18.37 L-79.47 -19.29 L-77.89 -20.21 L-76.31 -19.29 L-74.73 -18.37 L-73.15 -17.45 L-71.57 -16.53 L-69.99 -15.61 Z " />
<path stroke="rgb(0,0,0)" stroke-opacity="1" fill="rgb(200,200,200)" fill-opacity="1" id="circ1_4_" d="M-69.89 -5.808 L-69.89 -7.708 L-69.89 -9.608 L-69.89 -11.51 L-69.89 -13.41 L-69.89 -15.31 L-71.47 -14.41 L-73.05 -13.51 L-74.63 -12.61 L-76.21 -11.71 L-77.79 -10.81 L-77.79 -8.668 L-77.79 -6.528 L-77.79 -4.388 L-77.79 -2.248 L-77.79 -0.1078 L-76.21 -1.248 L-74.63 -2.388 L-73.05 -3.528 L-71.47 -4.668 L-69.89 -5.808 Z " />
<path stroke="rgb(0,0,0)" stroke-opacity="1" fill="rgb(200,200,200)" fill-opacity="1" id="circ1_3_" d="M-85.99 -15.31 L-85.99 -13.41 L-85.99 -11.51 L-85.99 -9.608 L-85.99 -7.708 L-85.99 -5.808 L-84.41 -4.668 L-82.83 -3.528 L-81.25 -2.388 L-79.67 -1.248 L-78.09 -0.1078 L-78.09 -2.248 L-78.09 -4.388 L-78.09 -6.528 L-78.09 -8.668 L-78.09 -10.81 L-79.67 -11.71 L-81.25 -12.61 L-82.83 -13.51 L-84.41 -14.41 L-85.99 -15.31 Z " />
<path stroke="rgb(0,0,0)" stroke-opacity="1" fill="rgb(200,200,200)" fill-opacity="1" id="circ2_5_" d="M-91.11 -12.29 L-92.69 -11.37 L-94.27 -10.45 L-95.85 -9.532 L-97.43 -8.612 L-99.01 -7.692 L-100.6 -8.612 L-102.2 -9.532 L-103.7 -10.45 L-105.3 -11.37 L-106.9 -12.29 L-105.3 -13.19 L-103.7 -14.09 L-102.2 -14.99 L-100.6 -15.89 L-99.01 -16.79 L-97.43 -15.89 L-95.85 -14.99 L-94.27 -14.09 L-92.69 -13.19 L-91.11 -12.29 Z " />
<path stroke="rgb(0,0,0)" stroke-opacity="1" fill="rgb(200,200,200)" fill-opacity="1" id="circ2_4_" d="M-91.01 -2.492 L-91.01 -4.392 L-91.01 -6.292 L-91.01 -8.192 L-91.01 -10.09 L-91.01 -11.99 L-92.59 -11.07 L-94.17 -10.15 L-95.75 -9.232 L-97.33 -8.312 L-98.91 -7.392 L-98.91 -5.272 L-98.91 -3.152 L-98.91 -1.032 L-98.91 1.088 L-98.91 3.208 L-97.33 2.068 L-95.75 0.9278 L-94.17 -0.2122 L-92.59 -1.352 L-91.01 -2.492 Z " />
<path stroke="rgb(0,0,0)" stroke-opacity="1" fill="rgb(200,200,200)" fill-opacity="1" id="circ2_3_" d="M-107.1 -11.99 L-107.1 -10.09 L-107.1 -8.192 L-107.1 -6.292 L-107.1 -4.392 L-107.1 -2.492 L-105.5 -1.352 L-103.9 -0.2122 L-102.4 0.9278 L-100.8 2.068 L-99.21 3.208 L-99.21 1.088 L-99.21 -1.032 L-99.21 -3.152 L-99.21 -5.272 L-99.21 -7.392 L-100.8 -8.312 L-102.4 -9.232 L-103.9 -10.15 L-105.5 -11.07 L-107.1 -11.99 Z " />
<path stroke="rgb(0,0,0)" stroke-opacity="1" fill="rgb(148,200,200)" fill-opacity="1" id="bb1" d="M104.8 -25.99 L105.7 -27.76 L106.7 -29.54 L107.6 -31.31 L108.5 -33.09 L109.4 -34.87 L110.3 -36.64 L111.2 -38.42 L112.1 -40.19 L113 -41.97 L113.9 -43.74 L114.8 -45.52 L115.7 -47.29 L116.7 -49.07 L117.6 -50.85 L118.5 -52.62 L119.4 -54.4 L120.3 -56.17 L119.4 -58.01 L118.5 -59.84 L117.6 -61.67 L116.7 -63.51 L115.8 -65.34 L114.9 -67.17 L114 -69.01 L113.1 -70.84 L112.2 -72.68 L111.3 -74.51 L110.5 -76.34 L109.6 -78.18 L107.5 -78.26 L105.5 -78.34 L103.4 -78.41 L101.4 -78.49 L99.34 -78.57 L97.3 -78.65 L95.26 -78.73 L93.21 -78.81 L91.17 -78.89 L89.13 -78.97 L87.09 -79.05 L85.04 -79.13 L83 -79.21 L80.96 -79.28 L78.92 -79.36 L77.2 -78.29 L75.48 -77.22 L73.76 -76.15 L72.04 -75.09 L70.32 -74.02 L68.6 -72.95 L66.88 -71.88 L65.16 -70.81 L63.44 -69.74 L61.72 -68.67 L60 -67.6 L58.28 -66.53 L56.56 -65.46 L54.84 -64.39 L53.12 -63.32 L51.4 -62.25 L49.69 -61.18 L47.97 -60.11 L46.25 -59.04 L45.34 -57.27 L44.43 -55.49 L43.52 -53.71 L42.61 -51.94 L41.7 -50.16 L40.79 -48.39 L39.88 -46.61 L38.97 -44.84 L38.06 -43.06 L37.15 -41.28 L36.24 -39.51 L35.33 -37.73 L34.42 -35.96 L33.51 -34.18 L32.6 -32.41 L31.69 -30.63 L30.78 -28.86 L31.68 -27.01 L32.57 -25.15 L33.47 -23.3 L34.36 -21.45 L35.26 -19.6 L36.15 -17.75 L37.05 -15.9 L37.94 -14.05 L38.83 -12.2 L39.73 -10.35 L40.62 -8.501 L41.52 -6.651 L43.56 -6.572 L45.6 -6.493 L47.65 -6.414 L49.69 -6.335 L51.73 -6.256 L53.77 -6.176 L55.82 -6.097 L57.86 -6.018 L59.9 -5.939 L61.94 -5.86 L63.99 -5.781 L66.03 -5.702 L68.07 -5.623 L70.11 -5.543 L72.16 -5.464 L73.88 -6.544 L75.6 -7.625 L77.32 -8.705 L79.04 -9.785 L80.76 -10.87 L82.48 -11.95 L84.2 -13.03 L85.92 -14.11 L87.64 -15.19 L89.36 -16.27 L91.08 -17.35 L92.8 -18.43 L94.52 -19.51 L96.24 -20.59 L97.96 -21.67 L99.67 -22.75 L101.4 -23.83 L103.1 -24.91 L104.8 -25.99 Z " />
<path stroke="rgb(0,0,0)" stroke-opacity="1" fill="rgb(236,216,157)" fill-opacity="1" id="scltrs1" d="M-160.6 19.3 L-161.2 20.07 L-161.8 20.85 L-162.4 21.63 L-163 22.4 L-163.6 23.18 L-164.2 23.96 L-164.8 24.73 L-165.5 25.51 L-166.1 26.29 L-166.7 27.06 L-167.3 27.84 L-167.9 28.62 L-168.5 29.39 L-169.1 30.17 L-169.7 30.95 L-170.4 31.72 L-171 32.5 L-171.6 33.28 L-172.2 34.05 L-172.8 34.83 L-173.4 35.61 L-174 36.39 L-174.6 37.16 L-175.3 37.94 L-175.9 38.72 L-176.5 39.49 L-177.1 40.27 L-177.7 41.05 L-178.3 41.82 L-178.9 42.6 L-179.5 43.38 L-180.2 44.15 L-180.8 44.93 L-181.4 45.71 L-182 46.48 L-182.6 47.26 L-181.7 47.68 L-180.8 48.1 L-179.9 48.52 L-179 48.94 L-178.1 49.36 L-177.2 49.78 L-176.3 50.2 L-175.4 50.62 L-174.5 51.05 L-173.6 51.47 L-172.7 51.89 L-171.8 52.31 L-170.9 52.73 L-170 53.15 L-169.1 53.57 L-168.2 53.99 L-167.3 54.41 L-166.4 54.83 L-165.5 55.25 L-164.6 55.67 L-163.7 56.09 L-162.8 56.51 L-161.9 56.93 L-161 57.35 L-160.1 57.78 L-159.2 58.2 L-158.3 58.62 L-157.4 59.04 L-156.5 59.46 L-155.6 59.88 L-154.7 60.3 L-153.8 60.72 L-152.9 61.14 L-152 61.56 L-151.1 61.98 L-150.2 62.4 L-149.3 62.82 L-148.4 63.24 L-147.5 63.66 L-146.6 64.08 L-145.7 64.51 L-144.8 64.93 L-143.9 65.35 L-143 65.77 L-142.1 66.19 L-141.2 66.61 L-140.3 67.03 L-139.4 67.45 L-138.5 67.87 L-138.9 66.95 L-139.3 66.04 L-139.7 65.12 L-140.2 64.2 L-140.6 63.29 L-141 62.37 L-141.4 61.45 L-141.8 60.54 L-142.2 59.62 L-142.7 58.71 L-143.1 57.79 L-143.5 56.87 L-143.9 55.96 L-144.3 55.04 L-144.7 54.12 L-145.2 53.21 L-145.6 52.29 L-146 51.37 L-146.4 50.46 L-146.8 49.54 L-147.2 48.62 L-147.6 47.71 L-148.1 46.79 L-148.5 45.87 L-148.9 44.96 L-149.3 44.04 L-149.7 43.12 L-150.1 42.21 L-150.6 41.29 L-151 40.38 L-151.4 39.46 L-151.8 38.54 L-152.2 37.63 L-152.6 36.71 L-153.1 35.79 L-153.5 34.88 L-153.9 33.96 L-154.3 33.04 L-154.7 32.13 L-155.1 31.21 L-155.6 30.29 L-156 29.38 L-156.4 28.46 L-156.8 27.54 L-157.2 26.63 L-157.6 25.71 L-158.1 24.8 L-158.5 23.88 L-158.9 22.96 L-159.3 22.05 L-159.7 21.13 L-160.1 20.21 L-160.6 19.3 Z " />
<path stroke="rgb(0,0,0)" stroke-opacity="1" fill="rgb(255,255,255)" fill-opacity="1" id="a5" d="M-81.91 134.3 L-82.01 136.7 L-82.33 138.8 L-82.84 140.8 L-83.54 142.7 L-84.42 144.4 L-85.47 145.8 L-86.69 147.2 L-88.05 148.3 L-89.56 149.2 L-91.2 150 L-92.96 150.5 L-94.84 150.8 L-96.82 150.9 L-98.91 150.9 L-101.1 150.5 L-103.3 150 L-105.6 149.2 L-108 148.2 L-109.8 147.4 L-111.5 146.4 L-113.3 145.3 L-114.9 144.1 L-116.6 142.8 L-118.2 141.5 L-119.7 140.1 L-121.2 138.6 L-122.6 137 L-123.9 135.4 L-125.2 133.7 L-126.5 132 L-127.6 130.3 L-128.7 128.5 L-129.6 126.7 L-130.5 124.9 L-131.3 123 L-132.1 121.2 L-132.7 119.3 L-133.2 117.4 L-133.6 115.6 L-133.9 113.7 L-134 111.9 L-134.1 110 L-134 107.7 L-133.7 105.6 L-133.2 103.6 L-132.5 101.7 L-131.6 100 L-130.5 98.56 L-129.3 97.25 L-128 96.12 L-126.5 95.19 L-124.8 94.45 L-123.1 93.91 L-121.2 93.58 L-119.2 93.45 L-117.1 93.54 L-114.9 93.85 L-112.7 94.39 L-110.4 95.15 L-108 96.15 L-106.2 97.04 L-104.5 98.03 L-102.8 99.12 L-101.1 100.3 L-99.44 101.6 L-97.85 102.9 L-96.32 104.3 L-94.84 105.8 L-93.42 107.4 L-92.06 109 L-90.78 110.7 L-89.56 112.4 L-88.41 114.1 L-87.35 115.9 L-86.37 117.7 L-85.47 119.5 L-84.67 121.4 L-83.96 123.2 L-83.35 125.1 L-82.84 127 L-82.44 128.8 L-82.15 130.7 L-81.97 132.5 L-81.91 134.3 Z " />
<path stroke="rgb(0,0,0)" stroke-opacity="1" fill="rgb(255,255,255)" fill-opacity="1" id="a17" d="M-96 -133.5 L-97.21 -132 L-98.42 -130.5 L-99.62 -129 L-100.8 -127.4 L-102 -125.9 L-103.2 -124.4 L-104.5 -122.8 L-105.7 -121.3 L-106.9 -119.8 L-108.1 -118.2 L-109.3 -116.7 L-110.5 -115.2 L-111.7 -113.7 L-109.9 -112.8 L-108 -111.9 L-106.2 -111.1 L-104.3 -110.2 L-102.5 -109.3 L-100.6 -108.5 L-98.77 -107.6 L-96.92 -106.7 L-95.08 -105.9 L-93.23 -105 L-91.38 -104.1 L-89.54 -103.3 L-87.69 -102.4 L-85.84 -101.5 L-83.99 -100.7 L-82.15 -99.81 L-80.3 -98.95 L-81.13 -100.8 L-81.95 -102.6 L-82.78 -104.4 L-83.61 -106.2 L-84.43 -108.1 L-85.26 -109.9 L-86.08 -111.7 L-86.91 -113.5 L-87.74 -115.3 L-88.56 -117.2 L-89.39 -119 L-90.22 -120.8 L-91.04 -122.6 L-91.87 -124.4 L-92.69 -126.3 L-93.52 -128.1 L-94.35 -129.9 L-95.17 -131.7 L-96 -133.5 Z " />
<path stroke="rgb(0,0,0)" stroke-opacity="1" fill="rgb(255,255,255)" fill-opacity="1" id="a16" d="M-96 -70.95 L-94.79 -72.48 L-93.58 -74.01 L-92.38 -75.54 L-91.17 -77.07 L-89.96 -78.6 L-88.75 -80.13 L-87.55 -81.67 L-86.34 -83.2 L-85.13 -84.73 L-83.92 -86.26 L-82.72 -87.79 L-81.51 -89.32 L-80.3 -90.85 L-82.15 -91.71 L-83.99 -92.57 L-85.84 -93.43 L-87.69 -94.29 L-89.54 -95.14 L-91.38 -96 L-93.23 -96.86 L-95.08 -97.72 L-96.92 -98.58 L-98.77 -99.44 L-100.6 -100.3 L-102.5 -101.2 L-104.3 -102 L-106.2 -102.9 L-108 -103.7 L-109.9 -104.6 L-111.7 -105.5 L-110.9 -103.6 L-110 -101.8 L-109.2 -100 L-108.4 -98.19 L-107.6 -96.37 L-106.7 -94.56 L-105.9 -92.74 L-105.1 -90.92 L-104.3 -89.11 L-103.4 -87.29 L-102.6 -85.48 L-101.8 -83.66 L-101 -81.84 L-100.1 -80.03 L-99.31 -78.21 L-98.48 -76.4 L-97.65 -74.58 L-96.83 -72.77 L-96 -70.95 Z " />
<path stroke="rgb(0,0,0)" stroke-opacity="1" fill="rgb(173,200,200)" fill-opacity="1" id="swap2" d="M-50.68 -63.44 L-50.93 -61.32 L-51.66 -59.61 L-52.79 -58.34 L-54.29 -57.54 L-56.09 -57.24 L-58.14 -57.46 L-60.38 -58.24 L-62.13 -59.22 L-63.78 -60.43 L-65.29 -61.86 L-66.64 -63.45 L-67.81 -65.16 L-68.76 -66.96 L-69.48 -68.8 L-69.92 -70.64 L-70.08 -72.44 L-69.82 -74.53 L-69.1 -76.23 L-67.96 -77.5 L-66.46 -78.32 L-64.66 -78.63 L-62.62 -78.42 L-60.38 -77.64 L-58.62 -76.68 L-56.98 -75.47 L-55.46 -74.05 L-54.11 -72.47 L-52.94 -70.77 L-51.99 -68.97 L-51.28 -67.13 L-50.83 -65.27 L-50.68 -63.44 Z " />
<path stroke="rgb(0,0,0)" stroke-opacity="1" fill="rgb(173,200,200)" fill-opacity="1" id="swap4" d="M-33.4 -41.83 L-33.65 -39.71 L-34.38 -38 L-35.52 -36.73 L-37.02 -35.93 L-38.82 -35.62 L-40.86 -35.85 L-43.1 -36.63 L-44.85 -37.6 L-46.5 -38.82 L-48.01 -40.25 L-49.37 -41.84 L-50.53 -43.55 L-51.49 -45.35 L-52.2 -47.19 L-52.65 -49.03 L-52.8 -50.83 L-52.55 -52.95 L-51.82 -54.66 L-50.68 -55.93 L-49.18 -56.73 L-47.38 -57.04 L-45.34 -56.81 L-43.1 -56.03 L-41.35 -55.06 L-39.7 -53.85 L-38.19 -52.44 L-36.83 -50.86 L-35.67 -49.15 L-34.71 -47.36 L-34 -45.51 L-33.55 -43.66 L-33.4 -41.83 Z " />
<path stroke="rgb(0,0,0)" stroke-opacity="1" fill="rgb(173,200,200)" fill-opacity="1" id="swap3" d="M-33.4 -68.47 L-33.65 -66.35 L-34.38 -64.64 L-35.52 -63.37 L-37.02 -62.57 L-38.82 -62.26 L-40.86 -62.49 L-43.1 -63.27 L-44.85 -64.24 L-46.5 -65.46 L-48.01 -66.88 L-49.37 -68.48 L-50.53 -70.19 L-51.49 -71.99 L-52.2 -73.83 L-52.65 -75.67 L-52.8 -77.47 L-52.55 -79.56 L-51.82 -81.26 L-50.68 -82.53 L-49.18 -83.34 L-47.38 -83.66 L-45.34 -83.45 L-43.1 -82.67 L-41.35 -81.7 L-39.7 -80.49 L-38.19 -79.08 L-36.83 -77.5 L-35.67 -75.79 L-34.71 -74 L-34 -72.15 L-33.55 -70.3 L-33.4 -68.47 Z " />
<path stroke="rgb(0,0,0)" stroke-opacity="1" fill="rgb(173,200,200)" fill-opacity="1" id="swap1" d="M-15.72 -47.86 L-15.98 -45.74 L-16.7 -44.03 L-17.84 -42.75 L-19.34 -41.95 L-21.14 -41.65 L-23.18 -41.87 L-25.42 -42.66 L-27.18 -43.63 L-28.82 -44.85 L-30.34 -46.27 L-31.69 -47.86 L-32.86 -49.58 L-33.81 -51.37 L-34.52 -53.21 L-34.97 -55.06 L-35.12 -56.86 L-34.87 -58.94 L-34.14 -60.64 L-33.01 -61.91 L-31.51 -62.73 L-29.71 -63.05 L-27.66 -62.83 L-25.42 -62.06 L-23.67 -61.08 L-22.02 -59.87 L-20.51 -58.44 L-19.16 -56.85 L-17.99 -55.14 L-17.04 -53.34 L-16.32 -51.5 L-15.88 -49.66 L-15.72 -47.86 Z " />
<path stroke="rgb(0,0,0)" stroke-opacity="1" fill="rgb(255,255,255)" fill-opacity="1" id="secscl1" d="M-3.121 123.1 L-4.309 122.5 L-5.498 121.9 L-6.687 121.4 L-7.876 120.8 L-9.065 120.3 L-10.25 119.7 L-11.44 119.2 L-12.63 118.6 L-13.82 118.1 L-15.01 117.5 L-16.2 117 L-17.39 116.4 L-18.58 115.9 L-19.76 115.3 L-20.59 116.4 L-21.42 117.4 L-22.24 118.5 L-23.07 119.5 L-23.89 120.6 L-24.72 121.6 L-25.54 122.7 L-26.37 123.7 L-27.2 124.8 L-28.02 125.8 L-27.51 126.9 L-26.99 128.1 L-26.47 129.2 L-25.96 130.4 L-25.44 131.5 L-24.93 132.6 L-24.41 133.8 L-23.89 134.9 L-23.38 136 L-22.86 137.2 L-22.34 138.3 L-21.83 139.4 L-21.31 140.6 L-20.8 141.7 L-20.28 142.9 L-19.76 144 L-18.58 144.5 L-17.39 145.1 L-16.2 145.6 L-15.01 146.2 L-13.82 146.7 L-12.63 147.3 L-11.44 147.8 L-10.25 148.4 L-9.065 148.9 L-7.876 149.5 L-6.687 150 L-5.498 150.6 L-4.309 151.1 L-3.121 151.7 L-2.295 150.6 L-1.469 149.6 L-0.6432 148.5 L0.1826 147.5 L1.008 146.5 L1.834 145.4 L2.66 144.4 L3.486 143.3 L4.311 142.3 L5.137 141.2 L4.621 140.1 L4.105 139 L3.589 137.8 L3.073 136.7 L2.557 135.6 L2.041 134.4 L1.524 133.3 L1.008 132.1 L0.4922 131 L-0.02387 129.9 L-0.54 128.7 L-1.056 127.6 L-1.572 126.5 L-2.088 125.3 L-2.604 124.2 L-3.121 123.1 Z " />
</g>
</g>
</svg>
