<!DOCTYPE svg>
<svg xmlns="http://www.w3.org/2000/svg" xmlns:xlink="http://www.w3.org/1999/xlink" width="1080" height="1080">
<g transform="translate(540.000000,540.000000)">
<g transform="scale(2,2)">
<path stroke="rgb(0,0,0)" stroke-opacity="1" fill="rgb(148,200,200)" fill-opacity="1" id="bb1_2_" d="M-102.5 9.438 L-104.4 8.8 L-106.2 8.162 L-108.1 7.524 L-110 6.886 L-111.9 6.248 L-113.7 5.61 L-115.6 4.972 L-117.5 4.334 L-119.4 3.696 L-121.3 3.058 L-123.1 2.42 L-125 1.782 L-126.9 1.144 L-128.8 0.5057 L-130.7 -0.1323 L-132.5 -0.7703 L-134.4 -1.408 L-136.3 -2.046 L-138.2 -2.684 L-140.1 -3.322 L-141.9 -3.96 L-143.8 -4.598 L-145.7 -5.236 L-147.6 -5.874 L-149.4 -6.512 L-151.3 -7.15 L-153.2 -7.788 L-155.1 -8.426 L-157 -9.064 L-157.1 -11.06 L-157.3 -13.06 L-157.5 -15.06 L-157.7 -17.05 L-157.8 -19.05 L-158 -21.05 L-158.2 -23.05 L-158.4 -25.04 L-158.5 -27.04 L-158.7 -29.04 L-158.9 -31.04 L-159.1 -33.03 L-159.2 -35.03 L-159.4 -37.03 L-159.6 -39.03 L-159.8 -41.02 L-159.9 -43.02 L-160.1 -45.02 L-160.3 -47.02 L-160.5 -49.01 L-160.6 -51.01 L-160.8 -53.01 L-161 -55.01 L-161.2 -57 L-161.3 -59 L-161.5 -61 L-161.7 -62.99 L-159.8 -62.36 L-157.9 -61.72 L-156 -61.08 L-154.2 -60.44 L-152.3 -59.8 L-150.4 -59.17 L-148.5 -58.53 L-146.6 -57.89 L-144.8 -57.25 L-142.9 -56.61 L-141 -55.98 L-139.1 -55.34 L-137.3 -54.7 L-135.4 -54.06 L-133.5 -53.42 L-131.6 -52.79 L-129.7 -52.15 L-127.9 -51.51 L-126 -50.87 L-124.1 -50.23 L-122.2 -49.6 L-120.3 -48.96 L-118.5 -48.32 L-116.6 -47.68 L-114.7 -47.04 L-112.8 -46.41 L-110.9 -45.77 L-109.1 -45.13 L-107.2 -44.49 L-107 -42.5 L-106.8 -40.5 L-106.7 -38.5 L-106.5 -36.5 L-106.3 -34.51 L-106.1 -32.51 L-106 -30.51 L-105.8 -28.51 L-105.6 -26.52 L-105.4 -24.52 L-105.3 -22.52 L-105.1 -20.52 L-104.9 -18.53 L-104.7 -16.53 L-104.6 -14.53 L-104.4 -12.53 L-104.2 -10.54 L-104 -8.539 L-103.9 -6.542 L-103.7 -4.544 L-103.5 -2.547 L-103.3 -0.5493 L-103.2 1.448 L-103 3.446 L-102.8 5.443 L-102.6 7.44 L-102.5 9.438 Z " />
<path stroke="rgb(0,0,0)" stroke-opacity="1" fill="rgb(236,216,157)" fill-opacity="1" id="pr2_1_" d="M72.72 104.7 L70.95 103.8 L69.18 102.9 L67.42 102 L65.65 101.1 L63.88 100.2 L62.11 99.26 L60.35 98.36 L58.58 97.46 L58.61 95.52 L58.64 93.59 L58.67 91.66 L58.7 89.72 L58.72 87.79 L58.75 85.86 L58.78 83.92 L60.54 84.81 L62.29 85.7 L64.05 86.59 L65.8 87.48 L67.55 88.37 L69.31 89.26 L71.06 90.15 L72.82 91.04 L72.8 92.99 L72.79 94.94 L72.77 96.88 L72.76 98.83 L72.75 100.8 L72.73 102.7 L72.72 104.7 Z " />
<path stroke="rgb(0,0,0)" stroke-opacity="1" fill="rgb(236,216,157)" fill-opacity="1" id="pr1_1_" d="M54.92 96.08 L53.16 95.17 L51.41 94.27 L49.65 93.37 L47.9 92.47 L46.14 91.56 L44.39 90.66 L42.64 89.76 L40.88 88.86 L40.9 86.92 L40.91 84.99 L40.92 83.06 L40.94 81.12 L40.95 79.19 L40.97 77.26 L40.98 75.32 L42.74 76.22 L44.49 77.13 L46.24 78.03 L48 78.93 L49.75 79.83 L51.51 80.74 L53.26 81.64 L55.02 82.54 L55 84.47 L54.99 86.41 L54.97 88.34 L54.96 90.28 L54.95 92.21 L54.93 94.14 L54.92 96.08 Z " />
<path stroke="rgb(0,0,0)" stroke-opacity="1" fill="rgb(236,216,157)" fill-opacity="1" id="pr3_1_" d="M54.62 113.6 L52.86 112.7 L51.11 111.8 L49.35 110.9 L47.6 110 L45.84 109.1 L44.09 108.2 L42.34 107.3 L40.58 106.4 L40.6 104.4 L40.61 102.5 L40.62 100.6 L40.64 98.62 L40.65 96.69 L40.67 94.76 L40.68 92.82 L42.44 93.72 L44.19 94.63 L45.94 95.53 L47.7 96.43 L49.45 97.33 L51.21 98.24 L52.96 99.14 L54.72 100 L54.7 102 L54.69 103.9 L54.67 105.8 L54.66 107.8 L54.65 109.7 L54.63 111.6 L54.62 113.6 Z " />
<path stroke="rgb(0,0,0)" stroke-opacity="1" fill="rgb(236,216,157)" fill-opacity="1" id="pr4_1_" d="M66.89 113.8 L66.53 113.6 L66.18 113.4 L65.82 113.2 L65.47 113.1 L65.12 112.9 L64.76 112.7 L64.41 112.5 L64.06 112.4 L64.06 112 L64.06 111.6 L64.06 111.2 L64.07 110.8 L64.07 110.4 L64.07 110 L64.08 109.6 L64.43 109.8 L64.78 110 L65.14 110.2 L65.49 110.4 L65.84 110.5 L66.2 110.7 L66.55 110.9 L66.91 111.1 L66.9 111.5 L66.9 111.8 L66.9 112.2 L66.89 112.6 L66.89 113 L66.89 113.4 L66.89 113.8 Z " />
<path stroke="rgb(0,0,0)" stroke-opacity="1" fill="rgb(238,200,200)" fill-opacity="1" id="ll1_1_" d="M117.9 99.08 L116.1 98.23 L114.3 97.37 L112.4 96.52 L110.6 95.66 L108.8 94.81 L107 93.95 L105.1 93.1 L103.3 92.24 L101.5 91.39 L99.65 90.53 L97.82 89.68 L95.99 88.83 L94.16 87.97 L92.33 87.12 L90.5 86.26 L88.67 85.41 L88.67 83.37 L88.67 81.33 L88.67 79.29 L88.67 77.25 L88.67 75.21 L88.67 73.17 L88.67 71.13 L88.67 69.09 L88.67 67.05 L88.67 65.01 L88.67 62.97 L88.67 60.93 L88.67 58.89 L88.67 56.85 L90.5 57.72 L92.33 58.58 L94.16 59.44 L95.99 60.3 L97.82 61.16 L99.65 62.02 L101.5 62.88 L103.3 63.74 L105.1 64.6 L107 65.46 L108.8 66.32 L110.6 67.18 L112.4 68.05 L114.3 68.91 L116.1 69.77 L117.9 70.63 L117.9 72.66 L117.9 74.69 L117.9 76.73 L117.9 78.76 L117.9 80.79 L117.9 82.82 L117.9 84.85 L117.9 86.89 L117.9 88.92 L117.9 90.95 L117.9 92.98 L117.9 95.02 L117.9 97.05 L117.9 99.08 Z " />
<path stroke="rgb(0,0,0)" stroke-opacity="1" fill="rgb(255,255,255)" fill-opacity="1" id="cl1_1_" d="M22.99 124 L23.89 122.2 L24.79 120.4 L25.69 118.6 L26.58 116.8 L27.48 115 L28.38 113.2 L29.28 111.4 L30.18 109.7 L31.08 107.9 L31.98 106.1 L32.88 104.3 L33.78 102.5 L34.67 100.7 L35.57 98.87 L36.47 97.07 L38.55 96.97 L37.64 98.77 L36.72 100.6 L35.8 102.4 L34.88 104.2 L33.96 106 L33.04 107.8 L32.12 109.6 L31.2 111.3 L30.29 113.1 L29.37 114.9 L28.45 116.7 L27.53 118.5 L26.61 120.3 L25.69 122.1 L24.77 123.9 L22.99 124 Z " />
<path stroke="rgb(0,0,0)" stroke-opacity="1" fill="rgb(255,255,255)" fill-opacity="1" id="a5_2_" d="M206 -50.75 L204.1 -51.59 L202.2 -52.44 L200.3 -53.28 L198.5 -54.12 L196.6 -54.96 L194.7 -55.81 L192.8 -56.65 L190.9 -57.49 L189 -58.34 L187.1 -59.18 L185.3 -60.02 L183.4 -60.86 L181.5 -61.71 L179.6 -62.55 L179.6 -60.6 L179.6 -58.64 L179.6 -56.69 L179.6 -54.73 L179.6 -52.78 L179.6 -50.83 L179.6 -48.87 L179.6 -46.92 L179.6 -44.97 L179.6 -43.01 L179.6 -41.06 L179.6 -39.1 L179.6 -37.15 L181.5 -36.31 L183.4 -35.46 L185.3 -34.62 L187.1 -33.78 L189 -32.94 L190.9 -32.09 L192.8 -31.25 L194.7 -30.41 L196.6 -29.56 L198.5 -28.72 L200.3 -27.88 L202.2 -27.04 L204.1 -26.19 L206 -25.35 L206 -27.3 L206 -29.26 L206 -31.21 L206 -33.17 L206 -35.12 L206 -37.07 L206 -39.03 L206 -40.98 L206 -42.93 L206 -44.89 L206 -46.84 L206 -48.8 L206 -50.75 Z " />
<path stroke="rgb(0,0,0)" stroke-opacity="1" fill="rgb(255,255,255)" fill-opacity="1" id="a6_2_" d="M83.3 51.45 L81.52 50.62 L79.75 49.79 L77.97 48.96 L76.19 48.13 L74.42 47.3 L72.64 46.47 L70.86 45.64 L69.09 44.81 L67.31 43.99 L65.54 43.16 L63.76 42.33 L61.98 41.5 L60.21 40.67 L58.43 39.84 L56.65 39.01 L54.88 38.18 L53.1 37.35 L53.1 35.25 L53.1 33.15 L53.1 31.05 L53.1 28.95 L53.1 26.85 L53.1 24.75 L53.1 22.65 L53.1 20.55 L53.1 18.45 L53.1 16.35 L54.87 17.18 L56.64 18.01 L58.41 18.84 L60.18 19.67 L61.95 20.5 L63.72 21.33 L65.49 22.16 L67.26 22.99 L69.04 23.81 L70.81 24.64 L72.58 25.47 L74.35 26.3 L76.12 27.13 L77.89 27.96 L79.66 28.79 L81.43 29.62 L83.2 30.45 L83.21 32.36 L83.22 34.27 L83.23 36.18 L83.24 38.09 L83.25 40 L83.25 41.9 L83.26 43.81 L83.27 45.72 L83.28 47.63 L83.29 49.54 L83.3 51.45 Z " />
<path stroke="rgb(0,0,0)" stroke-opacity="1" fill="rgb(148,200,200)" fill-opacity="1" id="rtr1_2_" d="M55.64 -118.4 L54.87 -120.3 L54.11 -122.2 L53.34 -124.1 L52.58 -126 L51.82 -127.9 L51.05 -129.8 L52.5 -131.4 L53.94 -132.9 L55.38 -134.5 L56.83 -136 L58.27 -137.6 L59.05 -135.7 L59.83 -133.8 L60.6 -131.8 L61.38 -129.9 L62.16 -128 L62.93 -126.1 L61.47 -124.6 L60.01 -123 L58.56 -121.5 L57.1 -119.9 L55.64 -118.4 Z " />
<path stroke="rgb(0,0,0)" stroke-opacity="1" fill="rgb(238,200,200)" fill-opacity="1" id="sg1_2_" d="M77.18 97.99 L78.81 98.81 L80.45 99.63 L82.08 100.4 L83.72 101.3 L85.35 102.1 L86.99 102.9 L87.01 105 L87.02 107.1 L87.04 109.2 L87.06 111.3 L85.4 110.5 L83.75 109.7 L82.1 108.9 L80.45 108.1 L78.8 107.3 L77.14 106.5 L77.15 104.4 L77.16 102.2 L77.17 100.1 L77.18 97.99 Z " />
<path stroke="rgb(0,0,0)" stroke-opacity="1" fill="rgb(255,255,255)" fill-opacity="1" id="a12_2_" d="M-54.8 88.45 L-56.68 87.63 L-58.57 86.82 L-60.45 86 L-62.33 85.18 L-64.22 84.37 L-66.1 83.55 L-66.12 81.62 L-66.13 79.68 L-66.15 77.75 L-66.17 75.82 L-66.18 73.88 L-66.2 71.95 L-64.33 72.77 L-62.47 73.58 L-60.6 74.4 L-58.73 75.22 L-56.87 76.03 L-55 76.85 L-54.97 78.78 L-54.93 80.72 L-54.9 82.65 L-54.87 84.58 L-54.83 86.52 L-54.8 88.45 Z " />
<path stroke="rgb(0,0,0)" stroke-opacity="1" fill="rgb(255,255,255)" fill-opacity="1" id="secscl1_2_" d="M-29.65 38.15 L-31.12 37.45 L-32.59 36.75 L-34.06 36.05 L-35.53 35.35 L-37.01 34.65 L-38.48 33.95 L-39.95 33.25 L-41.42 32.54 L-41.42 30.96 L-41.42 29.37 L-41.42 27.79 L-41.42 26.2 L-41.42 24.62 L-41.42 23.03 L-41.42 21.45 L-41.42 19.86 L-41.42 18.28 L-41.42 16.69 L-41.42 15.11 L-41.42 13.52 L-41.42 11.94 L-41.42 10.35 L-41.42 8.767 L-41.42 7.182 L-41.42 5.597 L-41.42 4.012 L-41.42 2.427 L-41.42 0.8415 L-41.42 -0.7437 L-41.42 -2.329 L-41.42 -3.914 L-41.42 -5.499 L-41.42 -7.084 L-41.42 -8.669 L-41.42 -10.25 L-41.42 -11.84 L-41.42 -13.42 L-41.42 -15.01 L-41.42 -16.6 L-41.42 -18.18 L-41.42 -19.77 L-41.42 -21.35 L-41.42 -22.94 L-41.42 -24.52 L-41.42 -26.11 L-41.42 -27.69 L-41.42 -29.28 L-41.42 -30.86 L-39.95 -30.15 L-38.48 -29.44 L-37.01 -28.73 L-35.53 -28.02 L-34.06 -27.31 L-32.59 -26.6 L-31.12 -25.89 L-29.65 -25.18 L-29.65 -23.59 L-29.65 -22.01 L-29.65 -20.43 L-29.65 -18.84 L-29.65 -17.26 L-29.65 -15.68 L-29.65 -14.1 L-29.65 -12.51 L-29.65 -10.93 L-29.65 -9.346 L-29.65 -7.763 L-29.65 -6.18 L-29.65 -4.596 L-29.65 -3.013 L-29.65 -1.43 L-29.65 0.153 L-29.65 1.736 L-29.65 3.319 L-29.65 4.902 L-29.65 6.486 L-29.65 8.069 L-29.65 9.652 L-29.65 11.24 L-29.65 12.82 L-29.65 14.4 L-29.65 15.98 L-29.65 17.57 L-29.65 19.15 L-29.65 20.73 L-29.65 22.32 L-29.65 23.9 L-29.65 25.48 L-29.65 27.07 L-29.65 28.65 L-29.65 30.23 L-29.65 31.82 L-29.65 33.4 L-29.65 34.98 L-29.65 36.57 L-29.65 38.15 Z " />
<path stroke="rgb(0,0,0)" stroke-opacity="1" fill="rgb(255,255,255)" fill-opacity="1" id="a7_1_" d="M141.3 -84.25 L139.4 -85.05 L137.6 -85.85 L135.7 -86.65 L133.8 -87.45 L132 -88.25 L130.1 -89.05 L128.3 -89.85 L126.4 -90.65 L124.5 -91.45 L122.7 -92.25 L120.8 -93.05 L120.8 -95.03 L120.8 -97.02 L120.8 -99 L120.8 -101 L120.8 -103 L120.8 -105 L122.7 -104.1 L124.5 -103.3 L126.4 -102.5 L128.3 -101.7 L130.1 -100.9 L132 -100 L133.8 -99.22 L135.7 -98.4 L137.6 -97.59 L139.4 -96.77 L141.3 -95.95 L141.3 -94 L141.3 -92.05 L141.3 -90.1 L141.3 -88.15 L141.3 -86.2 L141.3 -84.25 Z " />
<path stroke="rgb(0,0,0)" stroke-opacity="1" fill="rgb(255,255,255)" fill-opacity="1" id="a8_1_" d="M141.2 -69.95 L139.3 -70.76 L137.5 -71.57 L135.6 -72.38 L133.7 -73.19 L131.9 -74 L130 -74.8 L128.2 -75.61 L126.3 -76.42 L124.4 -77.23 L122.6 -78.04 L120.7 -78.85 L120.7 -80.82 L120.7 -82.78 L120.7 -84.75 L120.7 -86.72 L120.7 -88.68 L120.7 -90.65 L122.6 -89.85 L124.4 -89.05 L126.3 -88.25 L128.2 -87.45 L130.1 -86.65 L131.9 -85.85 L133.8 -85.05 L135.7 -84.25 L137.6 -83.45 L139.4 -82.65 L141.3 -81.85 L141.3 -79.87 L141.3 -77.88 L141.2 -75.9 L141.2 -73.92 L141.2 -71.93 L141.2 -69.95 Z " />
<path stroke="rgb(0,0,0)" stroke-opacity="1" fill="rgb(255,255,255)" fill-opacity="1" id="a9_1_" d="M134.2 -61.55 L132.3 -62.35 L130.4 -63.15 L128.5 -63.95 L126.5 -64.75 L124.6 -65.55 L122.7 -66.35 L120.8 -67.15 L120.8 -68.95 L120.8 -70.75 L120.7 -72.55 L120.7 -74.35 L120.7 -76.15 L122.6 -75.34 L124.5 -74.52 L126.4 -73.71 L128.4 -72.89 L130.3 -72.08 L132.2 -71.26 L134.1 -70.45 L134.1 -68.23 L134.2 -66 L134.2 -63.77 L134.2 -61.55 Z " />
<path stroke="rgb(0,0,0)" stroke-opacity="1" fill="rgb(255,255,255)" fill-opacity="1" id="a17_1_" d="M34.5 62.65 L32.73 61.71 L30.95 60.78 L29.18 59.84 L27.41 58.9 L25.64 57.97 L23.86 57.03 L22.09 56.1 L20.32 55.16 L18.55 54.22 L16.77 53.29 L15 52.35 L15 50.33 L15 48.32 L15 46.3 L15 44.28 L15 42.27 L15 40.25 L16.77 41.19 L18.55 42.12 L20.32 43.06 L22.09 44 L23.86 44.93 L25.64 45.87 L27.41 46.8 L29.18 47.74 L30.95 48.68 L32.73 49.61 L34.5 50.55 L34.5 52.57 L34.5 54.58 L34.5 56.6 L34.5 58.62 L34.5 60.63 L34.5 62.65 Z " />
<path stroke="rgb(0,0,0)" stroke-opacity="1" fill="rgb(255,255,255)" fill-opacity="1" id="a16_1_" d="M34.5 79.85 L32.73 78.95 L30.95 78.05 L29.18 77.15 L27.41 76.25 L25.64 75.35 L23.86 74.45 L22.09 73.55 L20.32 72.65 L18.55 71.75 L16.77 70.85 L15 69.95 L15 67.98 L15 66.02 L15 64.05 L15 62.08 L15 60.12 L15 58.15 L16.77 59.05 L18.55 59.95 L20.32 60.85 L22.09 61.75 L23.86 62.65 L25.64 63.55 L27.41 64.45 L29.18 65.35 L30.95 66.25 L32.73 67.15 L34.5 68.05 L34.5 70.02 L34.5 71.98 L34.5 73.95 L34.5 75.92 L34.5 77.88 L34.5 79.85 Z " />
<path stroke="rgb(0,0,0)" stroke-opacity="1" fill="rgb(236,216,157)" fill-opacity="1" id="scltrs1_1_" d="M-29.91 46.86 L-31.29 46.13 L-32.67 45.41 L-34.05 44.69 L-35.43 43.96 L-36.82 43.24 L-38.2 42.52 L-39.58 41.79 L-39.58 40.22 L-39.58 38.64 L-39.58 37.07 L-39.58 35.5 L-39.58 33.92 L-39.58 32.35 L-38.2 33.07 L-36.82 33.79 L-35.43 34.52 L-34.05 35.24 L-32.67 35.96 L-31.29 36.69 L-29.91 37.41 L-29.91 38.98 L-29.91 40.56 L-29.91 42.13 L-29.91 43.71 L-29.91 45.28 L-29.91 46.86 Z " />
<path stroke="rgb(0,0,0)" stroke-opacity="1" fill="rgb(244,227,211)" fill-opacity="1" id="a15_1_" d="M119.3 1.25 L117.4 0.3875 L115.6 -0.475 L113.7 -1.338 L111.8 -2.2 L110 -3.063 L108.1 -3.925 L106.3 -4.788 L104.4 -5.65 L104.4 -7.57 L104.4 -9.49 L104.4 -11.41 L104.4 -13.33 L104.4 -15.25 L106.3 -14.38 L108.1 -13.5 L110 -12.63 L111.8 -11.75 L113.7 -10.88 L115.6 -10 L117.4 -9.125 L119.3 -8.25 L119.3 -6.35 L119.3 -4.45 L119.3 -2.55 L119.3 -0.65 L119.3 1.25 Z " />
<path stroke="rgb(0,0,0)" stroke-opacity="1" fill="rgb(244,227,211)" fill-opacity="1" id="a14_1_" d="M117.2 9.75 L115.4 8.893 L113.5 8.036 L111.7 7.179 L109.8 6.321 L108 5.464 L106.1 4.607 L104.3 3.75 L104.3 1.817 L104.4 -0.1167 L104.4 -2.05 L106.2 -1.164 L108.1 -0.2786 L109.9 0.6071 L111.7 1.493 L113.5 2.379 L115.4 3.264 L117.2 4.15 L117.2 6.017 L117.2 7.883 L117.2 9.75 Z " />
<path stroke="rgb(0,0,0)" stroke-opacity="1" fill="rgb(244,227,211)" fill-opacity="1" id="a13_1_" d="M115 29.65 L113.2 28.82 L111.4 27.98 L109.6 27.15 L107.9 26.32 L106.1 25.48 L104.3 24.65 L104.3 22.59 L104.3 20.52 L104.3 18.46 L104.3 16.4 L104.3 14.34 L104.3 12.27 L104.3 10.21 L104.3 8.15 L106.1 8.983 L107.9 9.817 L109.6 10.65 L111.4 11.48 L113.2 12.32 L115 13.15 L115 15.21 L115 17.27 L115 19.34 L115 21.4 L115 23.46 L115 25.52 L115 27.59 L115 29.65 Z " />
<path stroke="rgb(0,0,0)" stroke-opacity="1" fill="rgb(200,200,200)" fill-opacity="1" id="a1_2_" d="M-110.5 -73.45 L-112.2 -74.33 L-114 -75.2 L-115.7 -76.08 L-117.5 -76.96 L-119.2 -77.84 L-121 -78.71 L-122.7 -79.59 L-124.5 -80.47 L-126.2 -81.35 L-128 -82.22 L-129.8 -83.1 L-131.5 -83.98 L-133.3 -84.85 L-135 -85.73 L-136.8 -86.61 L-138.5 -87.49 L-140.3 -88.36 L-142 -89.24 L-143.8 -90.12 L-145.5 -91 L-147.3 -91.87 L-149 -92.75 L-149 -94.61 L-149 -96.47 L-149 -98.33 L-149 -100.2 L-149 -102 L-147.3 -101.2 L-145.5 -100.3 L-143.8 -99.4 L-142 -98.52 L-140.3 -97.64 L-138.5 -96.76 L-136.8 -95.88 L-135 -95 L-133.3 -94.11 L-131.5 -93.23 L-129.8 -92.35 L-128 -91.47 L-126.2 -90.59 L-124.5 -89.7 L-122.7 -88.82 L-121 -87.94 L-119.2 -87.06 L-117.5 -86.18 L-115.7 -85.3 L-114 -84.41 L-112.2 -83.53 L-110.5 -82.65 L-110.5 -80.81 L-110.5 -78.97 L-110.5 -77.13 L-110.5 -75.29 L-110.5 -73.45 Z " />
<path stroke="rgb(0,0,0)" stroke-opacity="1" fill="rgb(200,200,200)" fill-opacity="1" id="a4_2_" d="M-89.9 -108.2 L-91.69 -109 L-93.49 -109.9 L-95.28 -110.8 L-97.08 -111.7 L-98.87 -112.6 L-100.7 -113.5 L-102.5 -114.4 L-104.3 -115.3 L-106 -116.2 L-107.8 -117.1 L-109.6 -118 L-111.4 -118.9 L-113.2 -119.8 L-115 -120.7 L-116.8 -121.6 L-118.6 -122.5 L-120.4 -123.3 L-122.2 -124.2 L-124 -125.1 L-125.8 -126 L-127.6 -126.9 L-129.4 -127.8 L-131.2 -128.7 L-133 -129.6 L-134.7 -130.5 L-136.5 -131.4 L-138.3 -132.3 L-140.1 -133.2 L-141.9 -134.1 L-143.7 -135 L-145.5 -135.9 L-147.3 -136.8 L-149.1 -137.7 L-149.1 -139.7 L-149.1 -141.7 L-149.1 -143.7 L-149.1 -145.7 L-149.1 -147.7 L-149.1 -149.7 L-149.1 -151.8 L-147.3 -150.9 L-145.5 -150 L-143.7 -149.1 L-141.9 -148.2 L-140.1 -147.3 L-138.3 -146.4 L-136.5 -145.5 L-134.7 -144.6 L-133 -143.7 L-131.2 -142.8 L-129.4 -142 L-127.6 -141.1 L-125.8 -140.2 L-124 -139.3 L-122.2 -138.4 L-120.4 -137.5 L-118.6 -136.6 L-116.8 -135.7 L-115 -134.8 L-113.2 -133.9 L-111.4 -133 L-109.6 -132.2 L-107.8 -131.3 L-106 -130.4 L-104.3 -129.5 L-102.5 -128.6 L-100.7 -127.7 L-98.87 -126.8 L-97.08 -125.9 L-95.28 -125 L-93.49 -124.1 L-91.69 -123.2 L-89.9 -122.3 L-89.9 -120.3 L-89.9 -118.3 L-89.9 -116.3 L-89.9 -114.2 L-89.9 -112.2 L-89.9 -110.2 L-89.9 -108.2 Z " />
<path stroke="rgb(0,0,0)" stroke-opacity="1" fill="rgb(200,200,200)" fill-opacity="1" id="a2_1_" d="M-109.1 -87.55 L-110.9 -88.45 L-112.7 -89.36 L-114.6 -90.26 L-116.4 -91.17 L-118.2 -92.07 L-120 -92.98 L-121.8 -93.88 L-123.6 -94.79 L-125.5 -95.69 L-127.3 -96.6 L-129.1 -97.5 L-130.9 -98.4 L-132.7 -99.31 L-134.6 -100.2 L-136.4 -101.1 L-138.2 -102 L-140 -102.9 L-141.8 -103.8 L-143.6 -104.7 L-145.5 -105.6 L-147.3 -106.5 L-149.1 -107.5 L-149.1 -109.4 L-149.1 -111.3 L-149.1 -113.3 L-149.1 -115.2 L-149.1 -117.2 L-147.3 -116.2 L-145.5 -115.3 L-143.6 -114.4 L-141.8 -113.5 L-140 -112.6 L-138.2 -111.7 L-136.4 -110.8 L-134.6 -109.9 L-132.7 -109 L-130.9 -108.1 L-129.1 -107.2 L-127.3 -106.2 L-125.5 -105.3 L-123.6 -104.4 L-121.8 -103.5 L-120 -102.6 L-118.2 -101.7 L-116.4 -100.8 L-114.6 -99.88 L-112.7 -98.97 L-110.9 -98.06 L-109.1 -97.15 L-109.1 -95.23 L-109.1 -93.31 L-109.1 -91.39 L-109.1 -89.47 L-109.1 -87.55 Z " />
<path stroke="rgb(0,0,0)" stroke-opacity="1" fill="rgb(200,200,200)" fill-opacity="1" id="a3_1_" d="M-105.8 -101.2 L-107.6 -102 L-109.4 -102.9 L-111.2 -103.8 L-113 -104.7 L-114.8 -105.6 L-116.6 -106.5 L-118.4 -107.4 L-120.2 -108.3 L-122 -109.2 L-123.8 -110.1 L-125.6 -111 L-127.4 -111.8 L-129.3 -112.7 L-131.1 -113.6 L-132.9 -114.5 L-134.7 -115.4 L-136.5 -116.3 L-138.3 -117.2 L-140.1 -118.1 L-141.9 -119 L-143.7 -119.9 L-145.5 -120.8 L-147.3 -121.7 L-149.1 -122.5 L-149.1 -124.6 L-149.1 -126.7 L-149.1 -128.8 L-149.1 -130.9 L-149.1 -133 L-147.3 -132.1 L-145.5 -131.2 L-143.7 -130.3 L-141.9 -129.4 L-140.1 -128.5 L-138.3 -127.6 L-136.5 -126.7 L-134.7 -125.8 L-132.9 -124.9 L-131.1 -124 L-129.3 -123.1 L-127.4 -122.3 L-125.6 -121.4 L-123.8 -120.5 L-122 -119.6 L-120.2 -118.7 L-118.4 -117.8 L-116.6 -116.9 L-114.8 -116 L-113 -115.1 L-111.2 -114.2 L-109.4 -113.3 L-107.6 -112.4 L-105.8 -111.5 L-105.8 -109.5 L-105.8 -107.4 L-105.8 -105.3 L-105.8 -103.2 L-105.8 -101.2 Z " />
<path stroke="rgb(0,0,0)" stroke-opacity="1" fill="rgb(244,227,211)" fill-opacity="1" id="a11_1_" d="M-15.3 70.85 L-17.12 70.04 L-18.94 69.23 L-20.76 68.42 L-22.57 67.61 L-24.39 66.79 L-26.21 65.98 L-28.03 65.17 L-29.85 64.36 L-31.67 63.55 L-33.49 62.74 L-35.3 61.93 L-37.12 61.12 L-38.94 60.31 L-40.76 59.49 L-42.58 58.68 L-44.4 57.87 L-46.21 57.06 L-48.03 56.25 L-49.85 55.44 L-51.67 54.63 L-53.49 53.82 L-55.31 53.01 L-57.13 52.19 L-58.94 51.38 L-60.76 50.57 L-62.58 49.76 L-64.4 48.95 L-64.45 47 L-64.5 45.05 L-62.68 45.86 L-60.86 46.68 L-59.04 47.49 L-57.23 48.31 L-55.41 49.12 L-53.59 49.94 L-51.77 50.75 L-49.95 51.57 L-48.13 52.38 L-46.31 53.2 L-44.5 54.01 L-42.68 54.83 L-40.86 55.64 L-39.04 56.46 L-37.22 57.27 L-35.4 58.09 L-33.59 58.9 L-31.77 59.72 L-29.95 60.53 L-28.13 61.35 L-26.31 62.16 L-24.49 62.98 L-22.67 63.79 L-20.86 64.61 L-19.04 65.42 L-17.22 66.24 L-15.4 67.05 L-15.35 68.95 L-15.3 70.85 Z " />
<path stroke="rgb(0,0,0)" stroke-opacity="1" fill="rgb(244,200,200)" fill-opacity="1" id="fus1_1_" d="M-100.5 51.95 L-102.3 51.19 L-104.1 50.43 L-105.9 49.67 L-107.7 48.91 L-109.5 48.15 L-109.5 46.29 L-109.5 44.43 L-109.5 42.57 L-109.5 40.71 L-109.5 38.85 L-107.7 39.61 L-105.9 40.37 L-104.1 41.13 L-102.3 41.89 L-100.5 42.65 L-100.5 44.51 L-100.5 46.37 L-100.5 48.23 L-100.5 50.09 L-100.5 51.95 Z " />
<path stroke="rgb(0,0,0)" stroke-opacity="1" fill="rgb(244,200,200)" fill-opacity="1" id="fus2_1_" d="M-91.5 55.95 L-93.3 55.17 L-95.1 54.39 L-96.9 53.61 L-98.7 52.83 L-100.5 52.05 L-100.5 50.17 L-100.4 48.29 L-100.4 46.41 L-100.3 44.53 L-100.3 42.65 L-98.54 43.41 L-96.78 44.17 L-95.02 44.93 L-93.26 45.69 L-91.5 46.45 L-91.5 48.35 L-91.5 50.25 L-91.5 52.15 L-91.5 54.05 L-91.5 55.95 Z " />
<path stroke="rgb(0,0,0)" stroke-opacity="1" fill="rgb(244,200,200)" fill-opacity="1" id="fus3_1_" d="M-100.6 61.45 L-102.4 60.69 L-104.2 59.93 L-105.9 59.17 L-107.7 58.41 L-109.5 57.65 L-109.5 55.79 L-109.5 53.93 L-109.5 52.07 L-109.5 50.21 L-109.5 48.35 L-107.7 49.11 L-105.9 49.87 L-104.1 50.63 L-102.3 51.39 L-100.5 52.15 L-100.5 54.01 L-100.5 55.87 L-100.6 57.73 L-100.6 59.59 L-100.6 61.45 Z " />
<path stroke="rgb(0,0,0)" stroke-opacity="1" fill="rgb(244,200,200)" fill-opacity="1" id="fus4_1_" d="M-93.53 63.42 L-95.33 62.64 L-97.13 61.86 L-98.93 61.08 L-100.7 60.3 L-102.5 59.52 L-102.5 57.66 L-102.5 55.8 L-102.5 53.94 L-102.5 52.08 L-102.5 50.22 L-100.7 51 L-98.93 51.78 L-97.13 52.56 L-95.33 53.34 L-93.53 54.12 L-93.53 55.98 L-93.53 57.84 L-93.53 59.7 L-93.53 61.56 L-93.53 63.42 Z " />
<path stroke="rgb(0,0,0)" stroke-opacity="1" fill="rgb(173,200,200)" fill-opacity="1" id="swap1_1_" d="M33.25 -110.3 L31.43 -111.3 L29.61 -112.3 L27.79 -113.2 L25.97 -114.2 L24.15 -115.1 L22.33 -116.1 L20.51 -117.1 L18.69 -118 L16.87 -119 L15.05 -119.9 L15.06 -121.9 L15.07 -124 L15.09 -126 L15.1 -128 L15.11 -130 L15.12 -132 L15.13 -134 L15.14 -136 L15.15 -138 L16.97 -137.1 L18.79 -136.1 L20.61 -135.1 L22.43 -134.2 L24.25 -133.2 L26.07 -132.2 L27.89 -131.2 L29.71 -130.3 L31.53 -129.3 L33.35 -128.3 L33.34 -126.3 L33.33 -124.3 L33.32 -122.3 L33.31 -120.3 L33.3 -118.3 L33.29 -116.3 L33.27 -114.3 L33.26 -112.3 L33.25 -110.3 Z " />
<path stroke="rgb(0,0,0)" stroke-opacity="1" fill="rgb(173,200,200)" fill-opacity="1" id="swap3_1_" d="M20.8 -131.4 L18.98 -132.4 L17.16 -133.3 L15.34 -134.3 L13.52 -135.2 L11.7 -136.2 L9.88 -137.2 L8.06 -138.1 L6.24 -139.1 L4.42 -140 L2.6 -141 L2.611 -143 L2.622 -145 L2.633 -147 L2.644 -149 L2.656 -151.1 L2.667 -153.1 L2.678 -155.1 L2.689 -157.1 L2.7 -159.1 L4.52 -158.1 L6.34 -157.2 L8.16 -156.2 L9.98 -155.3 L11.8 -154.3 L13.62 -153.3 L15.44 -152.4 L17.26 -151.4 L19.08 -150.5 L20.9 -149.5 L20.89 -147.5 L20.88 -145.5 L20.87 -143.5 L20.86 -141.5 L20.84 -139.4 L20.83 -137.4 L20.82 -135.4 L20.81 -133.4 L20.8 -131.4 Z " />
<path stroke="rgb(0,0,0)" stroke-opacity="1" fill="rgb(173,200,200)" fill-opacity="1" id="swap2_1_" d="M8.448 -121.5 L6.628 -122.4 L4.808 -123.4 L2.988 -124.3 L1.168 -125.3 L-0.6521 -126.3 L-2.472 -127.2 L-4.292 -128.2 L-6.112 -129.1 L-7.932 -130.1 L-9.752 -131.1 L-9.741 -133.1 L-9.73 -135.1 L-9.719 -137.1 L-9.708 -139.1 L-9.697 -141.1 L-9.685 -143.1 L-9.674 -145.1 L-9.663 -147.2 L-9.652 -149.2 L-7.822 -148.2 L-5.992 -147.2 L-4.162 -146.3 L-2.332 -145.3 L-0.5021 -144.4 L1.328 -143.4 L3.158 -142.4 L4.988 -141.5 L6.818 -140.5 L8.648 -139.6 L8.626 -137.6 L8.603 -135.5 L8.581 -133.5 L8.559 -131.5 L8.537 -129.5 L8.515 -127.5 L8.492 -125.5 L8.47 -123.5 L8.448 -121.5 Z " />
<path stroke="rgb(0,0,0)" stroke-opacity="1" fill="rgb(173,200,200)" fill-opacity="1" id="swap4_1_" d="M20.7 -100.7 L18.88 -101.7 L17.06 -102.7 L15.24 -103.6 L13.42 -104.6 L11.6 -105.6 L9.78 -106.6 L7.96 -107.6 L6.14 -108.5 L4.32 -109.5 L2.5 -110.5 L2.511 -112.5 L2.522 -114.5 L2.533 -116.5 L2.544 -118.5 L2.556 -120.5 L2.567 -122.5 L2.578 -124.5 L2.589 -126.5 L2.6 -128.5 L4.43 -127.5 L6.26 -126.6 L8.09 -125.6 L9.92 -124.6 L11.75 -123.6 L13.58 -122.7 L15.41 -121.7 L17.24 -120.7 L19.07 -119.8 L20.9 -118.8 L20.88 -116.8 L20.86 -114.8 L20.83 -112.8 L20.81 -110.8 L20.79 -108.7 L20.77 -106.7 L20.74 -104.7 L20.72 -102.7 L20.7 -100.7 Z " />
<path stroke="rgb(0,0,0)" stroke-opacity="1" fill="rgb(244,227,211)" fill-opacity="1" id="a10_5_" d="M40 -46.65 L38.24 -45.63 L36.48 -44.6 L34.71 -43.57 L32.95 -42.55 L31.19 -41.53 L29.42 -40.5 L27.66 -39.48 L25.9 -38.45 L24.14 -37.43 L22.37 -36.4 L20.61 -35.38 L18.85 -34.35 L17.09 -33.33 L15.32 -32.3 L13.56 -31.28 L11.8 -30.25 L10.04 -31.28 L8.275 -32.3 L6.512 -33.33 L4.75 -34.35 L2.987 -35.38 L1.225 -36.4 L-0.5375 -37.43 L-2.3 -38.45 L-4.063 -39.48 L-5.825 -40.5 L-7.587 -41.53 L-9.35 -42.55 L-11.11 -43.57 L-12.87 -44.6 L-14.64 -45.63 L-16.4 -46.65 L-14.64 -47.68 L-12.87 -48.7 L-11.11 -49.72 L-9.35 -50.75 L-7.587 -51.77 L-5.825 -52.8 L-4.063 -53.82 L-2.3 -54.85 L-0.5375 -55.87 L1.225 -56.9 L2.987 -57.92 L4.75 -58.95 L6.512 -59.97 L8.275 -61 L10.04 -62.02 L11.8 -63.05 L13.56 -62.02 L15.32 -61 L17.09 -59.97 L18.85 -58.95 L20.61 -57.92 L22.37 -56.9 L24.14 -55.87 L25.9 -54.85 L27.66 -53.82 L29.42 -52.8 L31.19 -51.77 L32.95 -50.75 L34.71 -49.72 L36.48 -48.7 L38.24 -47.68 L40 -46.65 Z " />
<path stroke="rgb(0,0,0)" stroke-opacity="1" fill="rgb(244,227,211)" fill-opacity="1" id="a10_4_" d="M40.5 -11.85 L40.5 -13.85 L40.5 -15.85 L40.5 -17.85 L40.5 -19.85 L40.5 -21.85 L40.5 -23.85 L40.5 -25.85 L40.5 -27.85 L40.5 -29.85 L40.5 -31.85 L40.5 -33.85 L40.5 -35.85 L40.5 -37.85 L40.5 -39.85 L40.5 -41.85 L40.5 -43.85 L40.5 -45.85 L38.74 -44.83 L36.98 -43.8 L35.21 -42.78 L33.45 -41.75 L31.69 -40.73 L29.92 -39.7 L28.16 -38.68 L26.4 -37.65 L24.64 -36.62 L22.87 -35.6 L21.11 -34.57 L19.35 -33.55 L17.59 -32.52 L15.82 -31.5 L14.06 -30.47 L12.3 -29.45 L12.3 -27.44 L12.3 -25.44 L12.3 -23.43 L12.3 -21.43 L12.3 -19.42 L12.3 -17.42 L12.3 -15.41 L12.3 -13.41 L12.3 -11.4 L12.3 -9.397 L12.3 -7.392 L12.3 -5.387 L12.3 -3.382 L12.3 -1.376 L12.3 0.6289 L12.3 2.634 L12.3 4.639 L12.3 6.645 L12.3 8.65 L13.96 7.444 L15.62 6.238 L17.28 5.032 L18.94 3.826 L20.59 2.621 L22.25 1.415 L23.91 0.2088 L25.57 -0.9971 L27.23 -2.203 L28.89 -3.409 L30.55 -4.615 L32.21 -5.821 L33.86 -7.026 L35.52 -8.232 L37.18 -9.438 L38.84 -10.64 L40.5 -11.85 Z " />
<path stroke="rgb(0,0,0)" stroke-opacity="1" fill="rgb(244,227,211)" fill-opacity="1" id="a10_3_" d="M-16.8 -45.85 L-16.8 -43.85 L-16.8 -41.85 L-16.8 -39.85 L-16.8 -37.85 L-16.8 -35.85 L-16.8 -33.85 L-16.8 -31.85 L-16.8 -29.85 L-16.8 -27.85 L-16.8 -25.85 L-16.8 -23.85 L-16.8 -21.85 L-16.8 -19.85 L-16.8 -17.85 L-16.8 -15.85 L-16.8 -13.85 L-16.8 -11.85 L-15.14 -10.64 L-13.48 -9.438 L-11.82 -8.232 L-10.16 -7.026 L-8.506 -5.821 L-6.847 -4.615 L-5.188 -3.409 L-3.529 -2.203 L-1.871 -0.9971 L-0.2118 0.2088 L1.447 1.415 L3.106 2.621 L4.765 3.826 L6.424 5.032 L8.082 6.238 L9.741 7.444 L11.4 8.65 L11.4 6.645 L11.4 4.639 L11.4 2.634 L11.4 0.6289 L11.4 -1.376 L11.4 -3.382 L11.4 -5.387 L11.4 -7.392 L11.4 -9.397 L11.4 -11.4 L11.4 -13.41 L11.4 -15.41 L11.4 -17.42 L11.4 -19.42 L11.4 -21.43 L11.4 -23.43 L11.4 -25.44 L11.4 -27.44 L11.4 -29.45 L9.637 -30.47 L7.875 -31.5 L6.112 -32.52 L4.35 -33.55 L2.587 -34.57 L0.825 -35.6 L-0.9375 -36.62 L-2.7 -37.65 L-4.462 -38.68 L-6.225 -39.7 L-7.987 -40.73 L-9.75 -41.75 L-11.51 -42.78 L-13.27 -43.8 L-15.04 -44.83 L-16.8 -45.85 Z " />
<path stroke="rgb(0,0,0)" stroke-opacity="1" fill="rgb(200,200,200)" fill-opacity="1" id="circ1_5_" d="M-100.5 -11.63 L-102.1 -10.71 L-103.7 -9.786 L-105.2 -8.866 L-106.8 -7.946 L-108.4 -7.026 L-110 -7.946 L-111.6 -8.866 L-113.1 -9.786 L-114.7 -10.71 L-116.3 -11.63 L-114.7 -12.55 L-113.1 -13.47 L-111.6 -14.39 L-110 -15.31 L-108.4 -16.23 L-106.8 -15.31 L-105.2 -14.39 L-103.7 -13.47 L-102.1 -12.55 L-100.5 -11.63 Z " />
<path stroke="rgb(0,0,0)" stroke-opacity="1" fill="rgb(200,200,200)" fill-opacity="1" id="circ1_4_" d="M-100.4 -1.826 L-100.4 -3.726 L-100.4 -5.626 L-100.4 -7.526 L-100.4 -9.426 L-100.4 -11.33 L-102 -10.43 L-103.6 -9.526 L-105.1 -8.626 L-106.7 -7.726 L-108.3 -6.826 L-108.3 -4.686 L-108.3 -2.546 L-108.3 -0.406 L-108.3 1.734 L-108.3 3.874 L-106.7 2.734 L-105.1 1.594 L-103.6 0.454 L-102 -0.686 L-100.4 -1.826 Z " />
<path stroke="rgb(0,0,0)" stroke-opacity="1" fill="rgb(200,200,200)" fill-opacity="1" id="circ1_3_" d="M-116.5 -11.33 L-116.5 -9.426 L-116.5 -7.526 L-116.5 -5.626 L-116.5 -3.726 L-116.5 -1.826 L-114.9 -0.686 L-113.3 0.454 L-111.8 1.594 L-110.2 2.734 L-108.6 3.874 L-108.6 1.734 L-108.6 -0.406 L-108.6 -2.546 L-108.6 -4.686 L-108.6 -6.826 L-110.2 -7.726 L-111.8 -8.626 L-113.3 -9.526 L-114.9 -10.43 L-116.5 -11.33 Z " />
<path stroke="rgb(0,0,0)" stroke-opacity="1" fill="rgb(200,200,200)" fill-opacity="1" id="circ2_5_" d="M-60.6 -16.27 L-62.18 -15.35 L-63.76 -14.43 L-65.34 -13.51 L-66.92 -12.59 L-68.5 -11.67 L-70.08 -12.59 L-71.66 -13.51 L-73.24 -14.43 L-74.82 -15.35 L-76.4 -16.27 L-74.82 -17.17 L-73.24 -18.07 L-71.66 -18.97 L-70.08 -19.87 L-68.5 -20.77 L-66.92 -19.87 L-65.34 -18.97 L-63.76 -18.07 L-62.18 -17.17 L-60.6 -16.27 Z " />
<path stroke="rgb(0,0,0)" stroke-opacity="1" fill="rgb(200,200,200)" fill-opacity="1" id="circ2_4_" d="M-60.5 -6.474 L-60.5 -8.374 L-60.5 -10.27 L-60.5 -12.17 L-60.5 -14.07 L-60.5 -15.97 L-62.08 -15.05 L-63.66 -14.13 L-65.24 -13.21 L-66.82 -12.29 L-68.4 -11.37 L-68.4 -9.254 L-68.4 -7.134 L-68.4 -5.014 L-68.4 -2.894 L-68.4 -0.774 L-66.82 -1.914 L-65.24 -3.054 L-63.66 -4.194 L-62.08 -5.334 L-60.5 -6.474 Z " />
<path stroke="rgb(0,0,0)" stroke-opacity="1" fill="rgb(200,200,200)" fill-opacity="1" id="circ2_3_" d="M-76.6 -15.97 L-76.6 -14.07 L-76.6 -12.17 L-76.6 -10.27 L-76.6 -8.374 L-76.6 -6.474 L-75.02 -5.334 L-73.44 -4.194 L-71.86 -3.054 L-70.28 -1.914 L-68.7 -0.774 L-68.7 -2.894 L-68.7 -5.014 L-68.7 -7.134 L-68.7 -9.254 L-68.7 -11.37 L-70.28 -12.29 L-71.86 -13.21 L-73.44 -14.13 L-75.02 -15.05 L-76.6 -15.97 Z " />
<path stroke="rgb(0,0,0)" stroke-opacity="1" fill="rgb(148,200,200)" fill-opacity="1" id="bb1" d="M88.52 -73.02 L86.66 -73.71 L84.79 -74.4 L82.93 -75.09 L81.06 -75.78 L79.2 -76.47 L77.34 -77.16 L75.47 -77.85 L73.61 -78.54 L71.74 -79.24 L69.88 -79.93 L68.02 -80.62 L66.15 -81.31 L64.29 -82 L62.42 -82.69 L60.56 -83.38 L58.7 -84.07 L56.83 -84.76 L55.12 -83.66 L53.42 -82.56 L51.71 -81.46 L50 -80.35 L48.29 -79.25 L46.58 -78.15 L44.87 -77.05 L43.16 -75.95 L41.45 -74.84 L39.74 -73.74 L38.04 -72.64 L36.33 -71.54 L36.49 -69.51 L36.65 -67.48 L36.81 -65.45 L36.98 -63.42 L37.14 -61.39 L37.3 -59.36 L37.46 -57.33 L37.63 -55.3 L37.79 -53.27 L37.95 -51.24 L38.11 -49.21 L38.28 -47.18 L38.44 -45.15 L38.6 -43.12 L38.76 -41.09 L40.02 -39.51 L41.29 -37.94 L42.55 -36.36 L43.81 -34.79 L45.07 -33.21 L46.33 -31.64 L47.59 -30.06 L48.85 -28.49 L50.11 -26.91 L51.37 -25.33 L52.63 -23.76 L53.89 -22.18 L55.16 -20.61 L56.42 -19.03 L57.68 -17.46 L58.94 -15.88 L60.2 -14.31 L61.46 -12.73 L62.72 -11.16 L64.58 -10.47 L66.45 -9.776 L68.31 -9.086 L70.18 -8.395 L72.04 -7.704 L73.9 -7.014 L75.77 -6.323 L77.63 -5.632 L79.5 -4.942 L81.36 -4.251 L83.22 -3.561 L85.09 -2.87 L86.95 -2.179 L88.82 -1.489 L90.68 -0.7979 L92.54 -0.1073 L94.41 0.5834 L96.13 -0.5197 L97.86 -1.623 L99.58 -2.726 L101.3 -3.829 L103 -4.932 L104.8 -6.035 L106.5 -7.138 L108.2 -8.241 L109.9 -9.344 L111.7 -10.45 L113.4 -11.55 L115.1 -12.65 L114.9 -14.68 L114.8 -16.71 L114.6 -18.74 L114.5 -20.77 L114.3 -22.8 L114.1 -24.83 L114 -26.86 L113.8 -28.89 L113.6 -30.92 L113.5 -32.95 L113.3 -34.99 L113.2 -37.02 L113 -39.05 L112.8 -41.08 L112.7 -43.11 L111.4 -44.68 L110.1 -46.25 L108.9 -47.83 L107.6 -49.4 L106.3 -50.98 L105 -52.55 L103.8 -54.13 L102.5 -55.7 L101.2 -57.28 L99.96 -58.85 L98.69 -60.42 L97.42 -62 L96.15 -63.57 L94.88 -65.15 L93.61 -66.72 L92.33 -68.3 L91.06 -69.87 L89.79 -71.44 L88.52 -73.02 Z " />
<path stroke="rgb(0,0,0)" stroke-opacity="1" fill="rgb(236,216,157)" fill-opacity="1" id="scltrs1" d="M-161.2 19.89 L-162.2 21.06 L-163.1 22.24 L-164 23.41 L-164.9 24.59 L-165.9 25.76 L-166.8 26.93 L-167.7 28.11 L-168.6 29.28 L-169.6 30.45 L-170.5 31.63 L-171.4 32.8 L-172.4 33.97 L-173.3 35.15 L-174.2 36.32 L-175.1 37.49 L-176.1 38.67 L-177 39.84 L-177.9 41.01 L-178.8 42.19 L-179.8 43.36 L-180.7 44.54 L-181.6 45.71 L-182.5 46.88 L-183.5 48.06 L-184.4 49.23 L-185.3 50.4 L-186.2 51.58 L-187.2 52.75 L-188.1 53.92 L-189 55.1 L-189.9 56.27 L-190.9 57.44 L-191.8 58.62 L-192.7 59.79 L-193.6 60.96 L-194.6 62.14 L-193.2 62.77 L-191.8 63.41 L-190.5 64.04 L-189.1 64.68 L-187.8 65.32 L-186.4 65.95 L-185 66.59 L-183.7 67.22 L-182.3 67.86 L-181 68.49 L-179.6 69.13 L-178.2 69.76 L-176.9 70.4 L-175.5 71.03 L-174.2 71.67 L-172.8 72.31 L-171.4 72.94 L-170.1 73.58 L-168.7 74.21 L-167.4 74.85 L-166 75.48 L-164.6 76.12 L-163.3 76.75 L-161.9 77.39 L-160.6 78.02 L-159.2 78.66 L-157.8 79.3 L-156.5 79.93 L-155.1 80.57 L-153.8 81.2 L-152.4 81.84 L-151 82.47 L-149.7 83.11 L-148.3 83.74 L-147 84.38 L-145.6 85.01 L-144.2 85.65 L-142.9 86.29 L-141.5 86.92 L-140.2 87.56 L-138.8 88.19 L-137.4 88.83 L-136.1 89.46 L-134.7 90.1 L-133.4 90.73 L-132 91.37 L-130.6 92 L-129.3 92.64 L-127.9 93.28 L-128.5 91.89 L-129.2 90.51 L-129.8 89.12 L-130.4 87.74 L-131.1 86.35 L-131.7 84.97 L-132.3 83.58 L-132.9 82.2 L-133.6 80.81 L-134.2 79.43 L-134.8 78.04 L-135.5 76.66 L-136.1 75.28 L-136.7 73.89 L-137.3 72.51 L-138 71.12 L-138.6 69.74 L-139.2 68.35 L-139.9 66.97 L-140.5 65.58 L-141.1 64.2 L-141.7 62.81 L-142.4 61.43 L-143 60.04 L-143.6 58.66 L-144.3 57.28 L-144.9 55.89 L-145.5 54.51 L-146.1 53.12 L-146.8 51.74 L-147.4 50.35 L-148 48.97 L-148.7 47.58 L-149.3 46.2 L-149.9 44.81 L-150.6 43.43 L-151.2 42.04 L-151.8 40.66 L-152.4 39.28 L-153.1 37.89 L-153.7 36.51 L-154.3 35.12 L-155 33.74 L-155.6 32.35 L-156.2 30.97 L-156.8 29.58 L-157.5 28.2 L-158.1 26.81 L-158.7 25.43 L-159.4 24.05 L-160 22.66 L-160.6 21.28 L-161.2 19.89 Z " />
<path stroke="rgb(0,0,0)" stroke-opacity="1" fill="rgb(255,255,255)" fill-opacity="1" id="a5" d="M-62.4 134.3 L-62.51 136.7 L-62.82 138.8 L-63.33 140.8 L-64.03 142.7 L-64.92 144.4 L-65.97 145.8 L-67.18 147.2 L-68.54 148.3 L-70.05 149.2 L-71.69 150 L-73.45 150.5 L-75.33 150.8 L-77.32 150.9 L-79.4 150.9 L-81.57 150.5 L-83.81 150 L-86.13 149.2 L-88.5 148.2 L-90.29 147.4 L-92.04 146.4 L-93.76 145.3 L-95.43 144.1 L-97.07 142.8 L-98.65 141.5 L-100.2 140.1 L-101.7 138.6 L-103.1 137 L-104.4 135.4 L-105.7 133.7 L-107 132 L-108.1 130.3 L-109.2 128.5 L-110.1 126.7 L-111 124.9 L-111.8 123 L-112.5 121.2 L-113.2 119.3 L-113.7 117.4 L-114.1 115.6 L-114.4 113.7 L-114.5 111.9 L-114.6 110 L-114.5 107.7 L-114.2 105.6 L-113.7 103.6 L-113 101.7 L-112.1 100 L-111 98.56 L-109.8 97.25 L-108.5 96.12 L-107 95.19 L-105.3 94.45 L-103.5 93.91 L-101.7 93.58 L-99.68 93.45 L-97.6 93.54 L-95.43 93.85 L-93.19 94.39 L-90.87 95.15 L-88.5 96.15 L-86.71 97.04 L-84.96 98.03 L-83.24 99.12 L-81.57 100.3 L-79.93 101.6 L-78.35 102.9 L-76.81 104.3 L-75.33 105.8 L-73.91 107.4 L-72.56 109 L-71.27 110.7 L-70.05 112.4 L-68.91 114.1 L-67.84 115.9 L-66.86 117.7 L-65.97 119.5 L-65.16 121.4 L-64.45 123.2 L-63.84 125.1 L-63.33 127 L-62.93 128.8 L-62.64 130.7 L-62.46 132.5 L-62.4 134.3 Z " />
<path stroke="rgb(0,0,0)" stroke-opacity="1" fill="rgb(255,255,255)" fill-opacity="1" id="a17" d="M-96 -128.5 L-97.21 -127 L-98.42 -125.5 L-99.62 -124 L-100.8 -122.4 L-102 -120.9 L-103.2 -119.4 L-104.5 -117.8 L-105.7 -116.3 L-106.9 -114.8 L-108.1 -113.2 L-109.3 -111.7 L-110.5 -110.2 L-111.7 -108.7 L-109.9 -107.8 L-108 -106.9 L-106.2 -106.1 L-104.3 -105.2 L-102.5 -104.3 L-100.6 -103.5 L-98.77 -102.6 L-96.92 -101.7 L-95.08 -100.9 L-93.23 -100 L-91.38 -99.14 L-89.54 -98.27 L-87.69 -97.41 L-85.84 -96.54 L-83.99 -95.68 L-82.15 -94.81 L-80.3 -93.95 L-81.13 -95.77 L-81.95 -97.59 L-82.78 -99.41 L-83.61 -101.2 L-84.43 -103.1 L-85.26 -104.9 L-86.08 -106.7 L-86.91 -108.5 L-87.74 -110.3 L-88.56 -112.2 L-89.39 -114 L-90.22 -115.8 L-91.04 -117.6 L-91.87 -119.4 L-92.69 -121.3 L-93.52 -123.1 L-94.35 -124.9 L-95.17 -126.7 L-96 -128.5 Z " />
<path stroke="rgb(0,0,0)" stroke-opacity="1" fill="rgb(255,255,255)" fill-opacity="1" id="a16" d="M-96 -70.95 L-94.79 -72.48 L-93.58 -74.01 L-92.38 -75.54 L-91.17 -77.07 L-89.96 -78.6 L-88.75 -80.13 L-87.55 -81.67 L-86.34 -83.2 L-85.13 -84.73 L-83.92 -86.26 L-82.72 -87.79 L-81.51 -89.32 L-80.3 -90.85 L-82.15 -91.71 L-83.99 -92.57 L-85.84 -93.43 L-87.69 -94.29 L-89.54 -95.14 L-91.38 -96 L-93.23 -96.86 L-95.08 -97.72 L-96.92 -98.58 L-98.77 -99.44 L-100.6 -100.3 L-102.5 -101.2 L-104.3 -102 L-106.2 -102.9 L-108 -103.7 L-109.9 -104.6 L-111.7 -105.5 L-110.9 -103.6 L-110 -101.8 L-109.2 -100 L-108.4 -98.19 L-107.6 -96.37 L-106.7 -94.56 L-105.9 -92.74 L-105.1 -90.92 L-104.3 -89.11 L-103.4 -87.29 L-102.6 -85.48 L-101.8 -83.66 L-101 -81.84 L-100.1 -80.03 L-99.31 -78.21 L-98.48 -76.4 L-97.65 -74.58 L-96.83 -72.77 L-96 -70.95 Z " />
<path stroke="rgb(0,0,0)" stroke-opacity="1" fill="rgb(173,200,200)" fill-opacity="1" id="swap2" d="M-52.35 -63.86 L-52.61 -61.74 L-53.33 -60.03 L-54.47 -58.76 L-55.97 -57.96 L-57.77 -57.66 L-59.81 -57.88 L-62.05 -58.66 L-63.81 -59.63 L-65.45 -60.85 L-66.97 -62.28 L-68.32 -63.87 L-69.48 -65.58 L-70.44 -67.38 L-71.15 -69.22 L-71.6 -71.06 L-71.75 -72.86 L-71.5 -74.95 L-70.77 -76.65 L-69.63 -77.92 L-68.14 -78.73 L-66.34 -79.05 L-64.29 -78.84 L-62.05 -78.06 L-60.3 -77.1 L-58.65 -75.88 L-57.14 -74.47 L-55.78 -72.89 L-54.62 -71.18 L-53.67 -69.39 L-52.95 -67.54 L-52.51 -65.69 L-52.35 -63.86 Z " />
<path stroke="rgb(0,0,0)" stroke-opacity="1" fill="rgb(173,200,200)" fill-opacity="1" id="swap4" d="M-33.4 -43.3 L-33.65 -41.18 L-34.38 -39.47 L-35.52 -38.19 L-37.02 -37.39 L-38.82 -37.09 L-40.86 -37.31 L-43.1 -38.1 L-44.85 -39.07 L-46.5 -40.29 L-48.01 -41.71 L-49.37 -43.3 L-50.53 -45.02 L-51.49 -46.81 L-52.2 -48.65 L-52.65 -50.5 L-52.8 -52.3 L-52.55 -54.42 L-51.82 -56.13 L-50.68 -57.4 L-49.18 -58.2 L-47.38 -58.5 L-45.34 -58.28 L-43.1 -57.5 L-41.35 -56.53 L-39.7 -55.32 L-38.19 -53.9 L-36.83 -52.32 L-35.67 -50.62 L-34.71 -48.82 L-34 -46.98 L-33.55 -45.12 L-33.4 -43.3 Z " />
<path stroke="rgb(0,0,0)" stroke-opacity="1" fill="rgb(173,200,200)" fill-opacity="1" id="swap3" d="M-33.4 -67 L-33.65 -64.88 L-34.38 -63.17 L-35.52 -61.9 L-37.02 -61.1 L-38.82 -60.8 L-40.86 -61.02 L-43.1 -61.8 L-44.85 -62.78 L-46.5 -63.99 L-48.01 -65.42 L-49.37 -67.01 L-50.53 -68.72 L-51.49 -70.52 L-52.2 -72.36 L-52.65 -74.2 L-52.8 -76 L-52.55 -78.09 L-51.82 -79.79 L-50.68 -81.06 L-49.18 -81.88 L-47.38 -82.19 L-45.34 -81.98 L-43.1 -81.2 L-41.35 -80.24 L-39.7 -79.03 L-38.19 -77.61 L-36.83 -76.03 L-35.67 -74.33 L-34.71 -72.53 L-34 -70.69 L-33.55 -68.83 L-33.4 -67 Z " />
<path stroke="rgb(0,0,0)" stroke-opacity="1" fill="rgb(173,200,200)" fill-opacity="1" id="swap1" d="M-14.05 -47.44 L-14.3 -45.32 L-15.03 -43.61 L-16.17 -42.34 L-17.66 -41.53 L-19.46 -41.23 L-21.51 -41.45 L-23.75 -42.24 L-25.5 -43.21 L-27.15 -44.43 L-28.66 -45.85 L-30.02 -47.44 L-31.18 -49.16 L-32.13 -50.96 L-32.85 -52.8 L-33.29 -54.64 L-33.45 -56.44 L-33.19 -58.53 L-32.47 -60.22 L-31.33 -61.5 L-29.83 -62.31 L-28.03 -62.63 L-25.99 -62.41 L-23.75 -61.64 L-21.99 -60.67 L-20.35 -59.45 L-18.83 -58.02 L-17.48 -56.43 L-16.32 -54.72 L-15.36 -52.92 L-14.65 -51.08 L-14.2 -49.24 L-14.05 -47.44 Z " />
<path stroke="rgb(0,0,0)" stroke-opacity="1" fill="rgb(255,255,255)" fill-opacity="1" id="secscl1" d="M-1.06 120.5 L-2.547 119.8 L-4.034 119.1 L-5.521 118.4 L-7.008 117.7 L-8.494 117 L-9.981 116.3 L-11.47 115.6 L-12.95 114.9 L-14.44 114.2 L-15.93 113.5 L-17.42 112.9 L-18.9 112.2 L-20.39 111.5 L-21.88 110.8 L-22.91 112.1 L-23.94 113.4 L-24.97 114.7 L-26.01 116 L-27.04 117.3 L-28.07 118.7 L-29.1 120 L-30.14 121.3 L-31.17 122.6 L-32.2 123.9 L-31.56 125.3 L-30.91 126.8 L-30.27 128.2 L-29.62 129.6 L-28.98 131 L-28.33 132.4 L-27.68 133.9 L-27.04 135.3 L-26.39 136.7 L-25.75 138.1 L-25.1 139.5 L-24.46 141 L-23.81 142.4 L-23.17 143.8 L-22.52 145.2 L-21.88 146.6 L-20.39 147.3 L-18.9 148 L-17.42 148.7 L-15.93 149.4 L-14.44 150.1 L-12.95 150.8 L-11.47 151.4 L-9.981 152.1 L-8.494 152.8 L-7.008 153.5 L-5.521 154.2 L-4.034 154.9 L-2.547 155.6 L-1.06 156.3 L-0.02767 154.9 L1.005 153.6 L2.038 152.3 L3.071 151 L4.103 149.7 L5.136 148.4 L6.169 147.1 L7.202 145.8 L8.234 144.5 L9.267 143.2 L8.622 141.8 L7.976 140.4 L7.331 138.9 L6.685 137.5 L6.04 136.1 L5.394 134.7 L4.749 133.3 L4.103 131.8 L3.458 130.4 L2.812 129 L2.167 127.6 L1.521 126.2 L0.876 124.7 L0.2305 123.3 L-0.415 121.9 L-1.06 120.5 Z " />
</g>
</g>
</svg>
