<!DOCTYPE svg>
<svg xmlns="http://www.w3.org/2000/svg" xmlns:xlink="http://www.w3.org/1999/xlink" width="1080" height="1080">
<g transform="translate(540.000000,540.000000)">
<g transform="scale(2,2)">
<path stroke="rgb(0,0,0)" stroke-opacity="1" fill="rgb(148,200,200)" fill-opacity="1" id="bb1_2_" d="M-100.8 -60.97 L-101.1 -59.01 L-101.5 -57.06 L-101.8 -55.1 L-102.1 -53.14 L-102.5 -51.18 L-102.8 -49.23 L-103.2 -47.27 L-103.5 -45.31 L-103.9 -43.36 L-104.2 -41.4 L-104.6 -39.44 L-104.9 -37.49 L-105.2 -35.53 L-105.6 -33.57 L-105.9 -31.62 L-106.3 -29.66 L-106.6 -27.7 L-107 -25.75 L-107.3 -23.79 L-107.7 -21.83 L-108 -19.87 L-108.3 -17.92 L-108.7 -15.96 L-109 -14 L-109.4 -12.05 L-109.7 -10.09 L-110.1 -8.134 L-110.4 -6.177 L-110.8 -4.22 L-112.7 -3.743 L-114.7 -3.265 L-116.6 -2.788 L-118.6 -2.31 L-120.5 -1.833 L-122.5 -1.356 L-124.4 -0.8783 L-126.4 -0.4009 L-128.3 0.07643 L-130.3 0.5538 L-132.2 1.031 L-134.2 1.509 L-136.1 1.986 L-138.1 2.463 L-140 2.941 L-142 3.418 L-143.9 3.895 L-145.9 4.373 L-147.8 4.85 L-149.8 5.328 L-151.7 5.805 L-153.7 6.282 L-155.6 6.76 L-157.6 7.237 L-159.5 7.714 L-161.5 8.192 L-163.4 8.669 L-163.1 6.712 L-162.7 4.756 L-162.4 2.799 L-162 0.8418 L-161.7 -1.115 L-161.3 -3.072 L-161 -5.029 L-160.7 -6.986 L-160.3 -8.942 L-160 -10.9 L-159.6 -12.86 L-159.3 -14.81 L-158.9 -16.77 L-158.6 -18.73 L-158.2 -20.68 L-157.9 -22.64 L-157.6 -24.6 L-157.2 -26.55 L-156.9 -28.51 L-156.5 -30.47 L-156.2 -32.42 L-155.8 -34.38 L-155.5 -36.34 L-155.1 -38.3 L-154.8 -40.25 L-154.5 -42.21 L-154.1 -44.17 L-153.8 -46.12 L-153.4 -48.08 L-151.5 -48.56 L-149.5 -49.03 L-147.6 -49.51 L-145.6 -49.99 L-143.7 -50.47 L-141.7 -50.94 L-139.8 -51.42 L-137.8 -51.9 L-135.9 -52.38 L-133.9 -52.85 L-132 -53.33 L-130 -53.81 L-128.1 -54.29 L-126.1 -54.76 L-124.2 -55.24 L-122.2 -55.72 L-120.3 -56.2 L-118.3 -56.67 L-116.4 -57.15 L-114.4 -57.63 L-112.5 -58.1 L-110.5 -58.58 L-108.6 -59.06 L-106.6 -59.54 L-104.7 -60.01 L-102.7 -60.49 L-100.8 -60.97 Z " />
<path stroke="rgb(0,0,0)" stroke-opacity="1" fill="rgb(236,216,157)" fill-opacity="1" id="pr2_1_" d="M67.67 97.16 L67.22 96.93 L66.77 96.7 L66.32 96.48 L65.87 96.25 L65.43 96.02 L64.98 95.79 L64.53 95.56 L64.08 95.33 L64.09 94.84 L64.1 94.35 L64.1 93.86 L64.11 93.37 L64.12 92.88 L64.13 92.39 L64.13 91.9 L64.58 92.13 L65.02 92.35 L65.47 92.58 L65.91 92.8 L66.36 93.03 L66.8 93.25 L67.25 93.48 L67.69 93.71 L67.69 94.2 L67.68 94.69 L67.68 95.19 L67.68 95.68 L67.67 96.17 L67.67 96.67 L67.67 97.16 Z " />
<path stroke="rgb(0,0,0)" stroke-opacity="1" fill="rgb(236,216,157)" fill-opacity="1" id="pr1_1_" d="M54.92 96.08 L53.16 95.17 L51.41 94.27 L49.65 93.37 L47.9 92.47 L46.14 91.56 L44.39 90.66 L42.64 89.76 L40.88 88.86 L40.9 86.92 L40.91 84.99 L40.92 83.06 L40.94 81.12 L40.95 79.19 L40.97 77.26 L40.98 75.32 L42.74 76.22 L44.49 77.13 L46.24 78.03 L48 78.93 L49.75 79.83 L51.51 80.74 L53.26 81.64 L55.02 82.54 L55 84.47 L54.99 86.41 L54.97 88.34 L54.96 90.28 L54.95 92.21 L54.93 94.14 L54.92 96.08 Z " />
<path stroke="rgb(0,0,0)" stroke-opacity="1" fill="rgb(236,216,157)" fill-opacity="1" id="pr3_1_" d="M54.6 113.6 L52.85 112.7 L51.1 111.8 L49.35 110.9 L47.6 110 L45.85 109.1 L44.1 108.1 L42.35 107.2 L40.6 106.3 L40.61 104.4 L40.63 102.5 L40.64 100.6 L40.66 98.64 L40.67 96.71 L40.69 94.78 L40.7 92.85 L42.45 93.75 L44.2 94.65 L45.95 95.55 L47.7 96.45 L49.45 97.35 L51.2 98.25 L52.95 99.15 L54.7 100.1 L54.69 102 L54.67 103.9 L54.66 105.8 L54.64 107.8 L54.63 109.7 L54.61 111.6 L54.6 113.6 Z " />
<path stroke="rgb(0,0,0)" stroke-opacity="1" fill="rgb(236,216,157)" fill-opacity="1" id="pr4_1_" d="M72.3 121.7 L70.54 120.9 L68.77 120 L67.01 119.1 L65.25 118.2 L63.49 117.3 L61.73 116.4 L59.96 115.5 L58.2 114.6 L58.21 112.7 L58.23 110.8 L58.24 108.9 L58.26 106.9 L58.27 105 L58.29 103.1 L58.3 101.1 L60.06 102 L61.82 102.9 L63.59 103.8 L65.35 104.7 L67.11 105.6 L68.87 106.5 L70.64 107.4 L72.4 108.2 L72.39 110.2 L72.37 112.1 L72.36 114 L72.34 116 L72.33 117.9 L72.31 119.8 L72.3 121.7 Z " />
<path stroke="rgb(0,0,0)" stroke-opacity="1" fill="rgb(238,200,200)" fill-opacity="1" id="ll1_1_" d="M211.8 178 L208.5 176.4 L205.3 174.9 L202 173.4 L198.7 171.8 L195.4 170.3 L192.1 168.8 L188.8 167.2 L185.5 165.7 L182.3 164.1 L179 162.6 L175.7 161.1 L172.4 159.5 L169.1 158 L165.8 156.5 L162.6 154.9 L159.3 153.4 L159.3 149.7 L159.3 146.1 L159.3 142.4 L159.3 138.8 L159.3 135.1 L159.3 131.4 L159.3 127.8 L159.3 124.1 L159.3 120.4 L159.3 116.8 L159.3 113.1 L159.3 109.4 L159.3 105.8 L159.3 102.1 L162.6 103.7 L165.8 105.2 L169.1 106.8 L172.4 108.3 L175.7 109.9 L179 111.4 L182.3 112.9 L185.5 114.5 L188.8 116 L192.1 117.6 L195.4 119.1 L198.7 120.7 L202 122.2 L205.3 123.8 L208.5 125.3 L211.8 126.9 L211.8 130.5 L211.8 134.2 L211.8 137.8 L211.8 141.5 L211.8 145.1 L211.8 148.8 L211.8 152.4 L211.8 156.1 L211.8 159.7 L211.8 163.4 L211.8 167 L211.8 170.7 L211.8 174.3 L211.8 178 Z " />
<path stroke="rgb(0,0,0)" stroke-opacity="1" fill="rgb(255,255,255)" fill-opacity="1" id="cl1_1_" d="M37.96 97.76 L37.06 99.56 L36.15 101.4 L35.25 103.2 L34.35 105 L33.45 106.8 L32.55 108.6 L31.65 110.4 L30.75 112.2 L29.85 114 L28.95 115.8 L28.04 117.6 L27.14 119.4 L26.24 121.2 L25.34 123 L24.44 124.8 L22.35 124.9 L23.27 123.1 L24.2 121.3 L25.12 119.5 L26.04 117.7 L26.96 115.9 L27.88 114.1 L28.8 112.3 L29.72 110.5 L30.64 108.7 L31.56 106.9 L32.48 105.1 L33.4 103.3 L34.33 101.5 L35.25 99.66 L36.17 97.86 L37.96 97.76 Z " />
<path stroke="rgb(0,0,0)" stroke-opacity="1" fill="rgb(255,255,255)" fill-opacity="1" id="a5_2_" d="M206 -50.75 L204.1 -51.59 L202.2 -52.44 L200.3 -53.28 L198.5 -54.12 L196.6 -54.96 L194.7 -55.81 L192.8 -56.65 L190.9 -57.49 L189 -58.34 L187.1 -59.18 L185.3 -60.02 L183.4 -60.86 L181.5 -61.71 L179.6 -62.55 L179.6 -60.6 L179.6 -58.64 L179.6 -56.69 L179.6 -54.73 L179.6 -52.78 L179.6 -50.83 L179.6 -48.87 L179.6 -46.92 L179.6 -44.97 L179.6 -43.01 L179.6 -41.06 L179.6 -39.1 L179.6 -37.15 L181.5 -36.31 L183.4 -35.46 L185.3 -34.62 L187.1 -33.78 L189 -32.94 L190.9 -32.09 L192.8 -31.25 L194.7 -30.41 L196.6 -29.56 L198.5 -28.72 L200.3 -27.88 L202.2 -27.04 L204.1 -26.19 L206 -25.35 L206 -27.3 L206 -29.26 L206 -31.21 L206 -33.17 L206 -35.12 L206 -37.07 L206 -39.03 L206 -40.98 L206 -42.93 L206 -44.89 L206 -46.84 L206 -48.8 L206 -50.75 Z " />
<path stroke="rgb(0,0,0)" stroke-opacity="1" fill="rgb(255,255,255)" fill-opacity="1" id="a6_2_" d="M83.3 51.45 L81.52 50.62 L79.75 49.79 L77.97 48.96 L76.19 48.13 L74.42 47.3 L72.64 46.47 L70.86 45.64 L69.09 44.81 L67.31 43.99 L65.54 43.16 L63.76 42.33 L61.98 41.5 L60.21 40.67 L58.43 39.84 L56.65 39.01 L54.88 38.18 L53.1 37.35 L53.1 35.25 L53.1 33.15 L53.1 31.05 L53.1 28.95 L53.1 26.85 L53.1 24.75 L53.1 22.65 L53.1 20.55 L53.1 18.45 L53.1 16.35 L54.87 17.18 L56.64 18.01 L58.41 18.84 L60.18 19.67 L61.95 20.5 L63.72 21.33 L65.49 22.16 L67.26 22.99 L69.04 23.81 L70.81 24.64 L72.58 25.47 L74.35 26.3 L76.12 27.13 L77.89 27.96 L79.66 28.79 L81.43 29.62 L83.2 30.45 L83.21 32.36 L83.22 34.27 L83.23 36.18 L83.24 38.09 L83.25 40 L83.25 41.9 L83.26 43.81 L83.27 45.72 L83.28 47.63 L83.29 49.54 L83.3 51.45 Z " />
<path stroke="rgb(0,0,0)" stroke-opacity="1" fill="rgb(148,200,200)" fill-opacity="1" id="rtr1_2_" d="M73.82 -129.9 L73.17 -127.9 L72.53 -126 L71.88 -124 L71.24 -122.1 L70.59 -120.1 L69.94 -118.1 L67.83 -117.9 L65.72 -117.6 L63.61 -117.4 L61.5 -117.1 L59.39 -116.9 L60.03 -118.8 L60.68 -120.8 L61.32 -122.8 L61.96 -124.8 L62.61 -126.7 L63.25 -128.7 L65.37 -128.9 L67.48 -129.2 L69.59 -129.4 L71.71 -129.6 L73.82 -129.9 Z " />
<path stroke="rgb(0,0,0)" stroke-opacity="1" fill="rgb(238,200,200)" fill-opacity="1" id="sg1_2_" d="M74.65 124.8 L75.8 123.4 L76.94 122 L78.09 120.6 L79.24 119.1 L80.39 117.7 L81.54 116.3 L83.59 116.7 L85.65 117.1 L87.7 117.6 L89.75 118 L88.61 119.5 L87.48 120.9 L86.34 122.3 L85.21 123.8 L84.07 125.2 L82.93 126.7 L80.86 126.2 L78.79 125.8 L76.72 125.3 L74.65 124.8 Z " />
<path stroke="rgb(0,0,0)" stroke-opacity="1" fill="rgb(255,255,255)" fill-opacity="1" id="a12_2_" d="M-54.8 88.45 L-56.68 87.63 L-58.57 86.82 L-60.45 86 L-62.33 85.18 L-64.22 84.37 L-66.1 83.55 L-66.12 81.62 L-66.13 79.68 L-66.15 77.75 L-66.17 75.82 L-66.18 73.88 L-66.2 71.95 L-64.33 72.77 L-62.47 73.58 L-60.6 74.4 L-58.73 75.22 L-56.87 76.03 L-55 76.85 L-54.97 78.78 L-54.93 80.72 L-54.9 82.65 L-54.87 84.58 L-54.83 86.52 L-54.8 88.45 Z " />
<path stroke="rgb(0,0,0)" stroke-opacity="1" fill="rgb(255,255,255)" fill-opacity="1" id="secscl1_2_" d="M-31.75 25.86 L-32.69 25.41 L-33.63 24.96 L-34.57 24.51 L-35.51 24.06 L-36.45 23.62 L-37.4 23.17 L-38.34 22.72 L-39.28 22.27 L-39.28 21.26 L-39.28 20.24 L-39.28 19.23 L-39.28 18.21 L-39.28 17.2 L-39.28 16.19 L-39.28 15.17 L-39.28 14.16 L-39.28 13.14 L-39.28 12.13 L-39.28 11.11 L-39.28 10.1 L-39.28 9.086 L-39.28 8.072 L-39.28 7.057 L-39.28 6.043 L-39.28 5.029 L-39.28 4.014 L-39.28 3 L-39.28 1.986 L-39.28 0.9716 L-39.28 -0.04273 L-39.28 -1.057 L-39.28 -2.071 L-39.28 -3.086 L-39.28 -4.1 L-39.28 -5.114 L-39.28 -6.128 L-39.28 -7.143 L-39.28 -8.157 L-39.28 -9.171 L-39.28 -10.19 L-39.28 -11.2 L-39.28 -12.21 L-39.28 -13.23 L-39.28 -14.24 L-39.28 -15.26 L-39.28 -16.27 L-39.28 -17.29 L-39.28 -18.3 L-38.34 -17.85 L-37.4 -17.39 L-36.45 -16.94 L-35.51 -16.48 L-34.57 -16.03 L-33.63 -15.57 L-32.69 -15.12 L-31.75 -14.66 L-31.75 -13.65 L-31.75 -12.64 L-31.75 -11.62 L-31.75 -10.61 L-31.75 -9.598 L-31.75 -8.585 L-31.75 -7.572 L-31.75 -6.559 L-31.75 -5.546 L-31.75 -4.533 L-31.75 -3.52 L-31.75 -2.507 L-31.75 -1.494 L-31.75 -0.4807 L-31.75 0.5323 L-31.75 1.545 L-31.75 2.558 L-31.75 3.571 L-31.75 4.584 L-31.75 5.597 L-31.75 6.61 L-31.75 7.623 L-31.75 8.636 L-31.75 9.649 L-31.75 10.66 L-31.75 11.68 L-31.75 12.69 L-31.75 13.7 L-31.75 14.71 L-31.75 15.73 L-31.75 16.74 L-31.75 17.75 L-31.75 18.77 L-31.75 19.78 L-31.75 20.79 L-31.75 21.81 L-31.75 22.82 L-31.75 23.83 L-31.75 24.84 L-31.75 25.86 Z " />
<path stroke="rgb(0,0,0)" stroke-opacity="1" fill="rgb(255,255,255)" fill-opacity="1" id="a7_1_" d="M141.3 -84.25 L139.4 -85.05 L137.6 -85.85 L135.7 -86.65 L133.8 -87.45 L132 -88.25 L130.1 -89.05 L128.3 -89.85 L126.4 -90.65 L124.5 -91.45 L122.7 -92.25 L120.8 -93.05 L120.8 -95.03 L120.8 -97.02 L120.8 -99 L120.8 -101 L120.8 -103 L120.8 -105 L122.7 -104.1 L124.5 -103.3 L126.4 -102.5 L128.3 -101.7 L130.1 -100.9 L132 -100 L133.8 -99.22 L135.7 -98.4 L137.6 -97.59 L139.4 -96.77 L141.3 -95.95 L141.3 -94 L141.3 -92.05 L141.3 -90.1 L141.3 -88.15 L141.3 -86.2 L141.3 -84.25 Z " />
<path stroke="rgb(0,0,0)" stroke-opacity="1" fill="rgb(255,255,255)" fill-opacity="1" id="a8_1_" d="M141.2 -69.95 L139.3 -70.76 L137.5 -71.57 L135.6 -72.38 L133.7 -73.19 L131.9 -74 L130 -74.8 L128.2 -75.61 L126.3 -76.42 L124.4 -77.23 L122.6 -78.04 L120.7 -78.85 L120.7 -80.82 L120.7 -82.78 L120.7 -84.75 L120.7 -86.72 L120.7 -88.68 L120.7 -90.65 L122.6 -89.85 L124.4 -89.05 L126.3 -88.25 L128.2 -87.45 L130.1 -86.65 L131.9 -85.85 L133.8 -85.05 L135.7 -84.25 L137.6 -83.45 L139.4 -82.65 L141.3 -81.85 L141.3 -79.87 L141.3 -77.88 L141.2 -75.9 L141.2 -73.92 L141.2 -71.93 L141.2 -69.95 Z " />
<path stroke="rgb(0,0,0)" stroke-opacity="1" fill="rgb(255,255,255)" fill-opacity="1" id="a9_1_" d="M134.2 -61.55 L132.3 -62.35 L130.4 -63.15 L128.5 -63.95 L126.5 -64.75 L124.6 -65.55 L122.7 -66.35 L120.8 -67.15 L120.8 -68.95 L120.8 -70.75 L120.7 -72.55 L120.7 -74.35 L120.7 -76.15 L122.6 -75.34 L124.5 -74.52 L126.4 -73.71 L128.4 -72.89 L130.3 -72.08 L132.2 -71.26 L134.1 -70.45 L134.1 -68.23 L134.2 -66 L134.2 -63.77 L134.2 -61.55 Z " />
<path stroke="rgb(0,0,0)" stroke-opacity="1" fill="rgb(255,255,255)" fill-opacity="1" id="a17_1_" d="M34.5 62.65 L32.73 61.71 L30.95 60.78 L29.18 59.84 L27.41 58.9 L25.64 57.97 L23.86 57.03 L22.09 56.1 L20.32 55.16 L18.55 54.22 L16.77 53.29 L15 52.35 L15 50.33 L15 48.32 L15 46.3 L15 44.28 L15 42.27 L15 40.25 L16.77 41.19 L18.55 42.12 L20.32 43.06 L22.09 44 L23.86 44.93 L25.64 45.87 L27.41 46.8 L29.18 47.74 L30.95 48.68 L32.73 49.61 L34.5 50.55 L34.5 52.57 L34.5 54.58 L34.5 56.6 L34.5 58.62 L34.5 60.63 L34.5 62.65 Z " />
<path stroke="rgb(0,0,0)" stroke-opacity="1" fill="rgb(255,255,255)" fill-opacity="1" id="a16_1_" d="M34.5 79.85 L32.73 78.95 L30.95 78.05 L29.18 77.15 L27.41 76.25 L25.64 75.35 L23.86 74.45 L22.09 73.55 L20.32 72.65 L18.55 71.75 L16.77 70.85 L15 69.95 L15 67.98 L15 66.02 L15 64.05 L15 62.08 L15 60.12 L15 58.15 L16.77 59.05 L18.55 59.95 L20.32 60.85 L22.09 61.75 L23.86 62.65 L25.64 63.55 L27.41 64.45 L29.18 65.35 L30.95 66.25 L32.73 67.15 L34.5 68.05 L34.5 70.02 L34.5 71.98 L34.5 73.95 L34.5 75.92 L34.5 77.88 L34.5 79.85 Z " />
<path stroke="rgb(0,0,0)" stroke-opacity="1" fill="rgb(236,216,157)" fill-opacity="1" id="scltrs1_1_" d="M-29 45.64 L-30.65 44.77 L-32.3 43.91 L-33.95 43.04 L-35.6 42.18 L-37.25 41.31 L-38.91 40.45 L-40.56 39.59 L-40.56 37.7 L-40.56 35.82 L-40.56 33.94 L-40.56 32.06 L-40.56 30.18 L-40.56 28.29 L-38.91 29.16 L-37.25 30.02 L-35.6 30.89 L-33.95 31.75 L-32.3 32.62 L-30.65 33.48 L-29 34.35 L-29 36.23 L-29 38.11 L-29 39.99 L-29 41.87 L-29 43.76 L-29 45.64 Z " />
<path stroke="rgb(0,0,0)" stroke-opacity="1" fill="rgb(244,227,211)" fill-opacity="1" id="a15_1_" d="M119.3 1.25 L117.4 0.3875 L115.6 -0.475 L113.7 -1.338 L111.8 -2.2 L110 -3.063 L108.1 -3.925 L106.3 -4.788 L104.4 -5.65 L104.4 -7.57 L104.4 -9.49 L104.4 -11.41 L104.4 -13.33 L104.4 -15.25 L106.3 -14.38 L108.1 -13.5 L110 -12.63 L111.8 -11.75 L113.7 -10.88 L115.6 -10 L117.4 -9.125 L119.3 -8.25 L119.3 -6.35 L119.3 -4.45 L119.3 -2.55 L119.3 -0.65 L119.3 1.25 Z " />
<path stroke="rgb(0,0,0)" stroke-opacity="1" fill="rgb(244,227,211)" fill-opacity="1" id="a14_1_" d="M117.2 9.75 L115.4 8.893 L113.5 8.036 L111.7 7.179 L109.8 6.321 L108 5.464 L106.1 4.607 L104.3 3.75 L104.3 1.817 L104.4 -0.1167 L104.4 -2.05 L106.2 -1.164 L108.1 -0.2786 L109.9 0.6071 L111.7 1.493 L113.5 2.379 L115.4 3.264 L117.2 4.15 L117.2 6.017 L117.2 7.883 L117.2 9.75 Z " />
<path stroke="rgb(0,0,0)" stroke-opacity="1" fill="rgb(244,227,211)" fill-opacity="1" id="a13_1_" d="M115 29.65 L113.2 28.82 L111.4 27.98 L109.6 27.15 L107.9 26.32 L106.1 25.48 L104.3 24.65 L104.3 22.59 L104.3 20.52 L104.3 18.46 L104.3 16.4 L104.3 14.34 L104.3 12.27 L104.3 10.21 L104.3 8.15 L106.1 8.983 L107.9 9.817 L109.6 10.65 L111.4 11.48 L113.2 12.32 L115 13.15 L115 15.21 L115 17.27 L115 19.34 L115 21.4 L115 23.46 L115 25.52 L115 27.59 L115 29.65 Z " />
<path stroke="rgb(0,0,0)" stroke-opacity="1" fill="rgb(200,200,200)" fill-opacity="1" id="a1_2_" d="M-110.5 -73.45 L-112.2 -74.33 L-114 -75.2 L-115.7 -76.08 L-117.5 -76.96 L-119.2 -77.84 L-121 -78.71 L-122.7 -79.59 L-124.5 -80.47 L-126.2 -81.35 L-128 -82.22 L-129.8 -83.1 L-131.5 -83.98 L-133.3 -84.85 L-135 -85.73 L-136.8 -86.61 L-138.5 -87.49 L-140.3 -88.36 L-142 -89.24 L-143.8 -90.12 L-145.5 -91 L-147.3 -91.87 L-149 -92.75 L-149 -94.61 L-149 -96.47 L-149 -98.33 L-149 -100.2 L-149 -102 L-147.3 -101.2 L-145.5 -100.3 L-143.8 -99.4 L-142 -98.52 L-140.3 -97.64 L-138.5 -96.76 L-136.8 -95.88 L-135 -95 L-133.3 -94.11 L-131.5 -93.23 L-129.8 -92.35 L-128 -91.47 L-126.2 -90.59 L-124.5 -89.7 L-122.7 -88.82 L-121 -87.94 L-119.2 -87.06 L-117.5 -86.18 L-115.7 -85.3 L-114 -84.41 L-112.2 -83.53 L-110.5 -82.65 L-110.5 -80.81 L-110.5 -78.97 L-110.5 -77.13 L-110.5 -75.29 L-110.5 -73.45 Z " />
<path stroke="rgb(0,0,0)" stroke-opacity="1" fill="rgb(200,200,200)" fill-opacity="1" id="a4_2_" d="M-89.9 -108.2 L-91.69 -109 L-93.49 -109.9 L-95.28 -110.8 L-97.08 -111.7 L-98.87 -112.6 L-100.7 -113.5 L-102.5 -114.4 L-104.3 -115.3 L-106 -116.2 L-107.8 -117.1 L-109.6 -118 L-111.4 -118.9 L-113.2 -119.8 L-115 -120.7 L-116.8 -121.6 L-118.6 -122.5 L-120.4 -123.3 L-122.2 -124.2 L-124 -125.1 L-125.8 -126 L-127.6 -126.9 L-129.4 -127.8 L-131.2 -128.7 L-133 -129.6 L-134.7 -130.5 L-136.5 -131.4 L-138.3 -132.3 L-140.1 -133.2 L-141.9 -134.1 L-143.7 -135 L-145.5 -135.9 L-147.3 -136.8 L-149.1 -137.7 L-149.1 -139.7 L-149.1 -141.7 L-149.1 -143.7 L-149.1 -145.7 L-149.1 -147.7 L-149.1 -149.7 L-149.1 -151.8 L-147.3 -150.9 L-145.5 -150 L-143.7 -149.1 L-141.9 -148.2 L-140.1 -147.3 L-138.3 -146.4 L-136.5 -145.5 L-134.7 -144.6 L-133 -143.7 L-131.2 -142.8 L-129.4 -142 L-127.6 -141.1 L-125.8 -140.2 L-124 -139.3 L-122.2 -138.4 L-120.4 -137.5 L-118.6 -136.6 L-116.8 -135.7 L-115 -134.8 L-113.2 -133.9 L-111.4 -133 L-109.6 -132.2 L-107.8 -131.3 L-106 -130.4 L-104.3 -129.5 L-102.5 -128.6 L-100.7 -127.7 L-98.87 -126.8 L-97.08 -125.9 L-95.28 -125 L-93.49 -124.1 L-91.69 -123.2 L-89.9 -122.3 L-89.9 -120.3 L-89.9 -118.3 L-89.9 -116.3 L-89.9 -114.2 L-89.9 -112.2 L-89.9 -110.2 L-89.9 -108.2 Z " />
<path stroke="rgb(0,0,0)" stroke-opacity="1" fill="rgb(200,200,200)" fill-opacity="1" id="a2_1_" d="M-109.1 -87.55 L-110.9 -88.45 L-112.7 -89.36 L-114.6 -90.26 L-116.4 -91.17 L-118.2 -92.07 L-120 -92.98 L-121.8 -93.88 L-123.6 -94.79 L-125.5 -95.69 L-127.3 -96.6 L-129.1 -97.5 L-130.9 -98.4 L-132.7 -99.31 L-134.6 -100.2 L-136.4 -101.1 L-138.2 -102 L-140 -102.9 L-141.8 -103.8 L-143.6 -104.7 L-145.5 -105.6 L-147.3 -106.5 L-149.1 -107.5 L-149.1 -109.4 L-149.1 -111.3 L-149.1 -113.3 L-149.1 -115.2 L-149.1 -117.2 L-147.3 -116.2 L-145.5 -115.3 L-143.6 -114.4 L-141.8 -113.5 L-140 -112.6 L-138.2 -111.7 L-136.4 -110.8 L-134.6 -109.9 L-132.7 -109 L-130.9 -108.1 L-129.1 -107.2 L-127.3 -106.2 L-125.5 -105.3 L-123.6 -104.4 L-121.8 -103.5 L-120 -102.6 L-118.2 -101.7 L-116.4 -100.8 L-114.6 -99.88 L-112.7 -98.97 L-110.9 -98.06 L-109.1 -97.15 L-109.1 -95.23 L-109.1 -93.31 L-109.1 -91.39 L-109.1 -89.47 L-109.1 -87.55 Z " />
<path stroke="rgb(0,0,0)" stroke-opacity="1" fill="rgb(200,200,200)" fill-opacity="1" id="a3_1_" d="M-105.8 -101.2 L-107.6 -102 L-109.4 -102.9 L-111.2 -103.8 L-113 -104.7 L-114.8 -105.6 L-116.6 -106.5 L-118.4 -107.4 L-120.2 -108.3 L-122 -109.2 L-123.8 -110.1 L-125.6 -111 L-127.4 -111.8 L-129.3 -112.7 L-131.1 -113.6 L-132.9 -114.5 L-134.7 -115.4 L-136.5 -116.3 L-138.3 -117.2 L-140.1 -118.1 L-141.9 -119 L-143.7 -119.9 L-145.5 -120.8 L-147.3 -121.7 L-149.1 -122.5 L-149.1 -124.6 L-149.1 -126.7 L-149.1 -128.8 L-149.1 -130.9 L-149.1 -133 L-147.3 -132.1 L-145.5 -131.2 L-143.7 -130.3 L-141.9 -129.4 L-140.1 -128.5 L-138.3 -127.6 L-136.5 -126.7 L-134.7 -125.8 L-132.9 -124.9 L-131.1 -124 L-129.3 -123.1 L-127.4 -122.3 L-125.6 -121.4 L-123.8 -120.5 L-122 -119.6 L-120.2 -118.7 L-118.4 -117.8 L-116.6 -116.9 L-114.8 -116 L-113 -115.1 L-111.2 -114.2 L-109.4 -113.3 L-107.6 -112.4 L-105.8 -111.5 L-105.8 -109.5 L-105.8 -107.4 L-105.8 -105.3 L-105.8 -103.2 L-105.8 -101.2 Z " />
<path stroke="rgb(0,0,0)" stroke-opacity="1" fill="rgb(244,227,211)" fill-opacity="1" id="a11_1_" d="M-15.3 70.85 L-17.12 70.04 L-18.94 69.23 L-20.76 68.42 L-22.57 67.61 L-24.39 66.79 L-26.21 65.98 L-28.03 65.17 L-29.85 64.36 L-31.67 63.55 L-33.49 62.74 L-35.3 61.93 L-37.12 61.12 L-38.94 60.31 L-40.76 59.49 L-42.58 58.68 L-44.4 57.87 L-46.21 57.06 L-48.03 56.25 L-49.85 55.44 L-51.67 54.63 L-53.49 53.82 L-55.31 53.01 L-57.13 52.19 L-58.94 51.38 L-60.76 50.57 L-62.58 49.76 L-64.4 48.95 L-64.45 47 L-64.5 45.05 L-62.68 45.86 L-60.86 46.68 L-59.04 47.49 L-57.23 48.31 L-55.41 49.12 L-53.59 49.94 L-51.77 50.75 L-49.95 51.57 L-48.13 52.38 L-46.31 53.2 L-44.5 54.01 L-42.68 54.83 L-40.86 55.64 L-39.04 56.46 L-37.22 57.27 L-35.4 58.09 L-33.59 58.9 L-31.77 59.72 L-29.95 60.53 L-28.13 61.35 L-26.31 62.16 L-24.49 62.98 L-22.67 63.79 L-20.86 64.61 L-19.04 65.42 L-17.22 66.24 L-15.4 67.05 L-15.35 68.95 L-15.3 70.85 Z " />
<path stroke="rgb(0,0,0)" stroke-opacity="1" fill="rgb(244,200,200)" fill-opacity="1" id="fus1_1_" d="M-100.5 51.95 L-102.3 51.19 L-104.1 50.43 L-105.9 49.67 L-107.7 48.91 L-109.5 48.15 L-109.5 46.29 L-109.5 44.43 L-109.5 42.57 L-109.5 40.71 L-109.5 38.85 L-107.7 39.61 L-105.9 40.37 L-104.1 41.13 L-102.3 41.89 L-100.5 42.65 L-100.5 44.51 L-100.5 46.37 L-100.5 48.23 L-100.5 50.09 L-100.5 51.95 Z " />
<path stroke="rgb(0,0,0)" stroke-opacity="1" fill="rgb(244,200,200)" fill-opacity="1" id="fus2_1_" d="M-95.76 60.21 L-97.56 59.43 L-99.36 58.65 L-101.2 57.87 L-103 57.09 L-104.8 56.31 L-104.7 54.43 L-104.7 52.55 L-104.6 50.67 L-104.6 48.79 L-104.6 46.91 L-102.8 47.67 L-101 48.43 L-99.28 49.19 L-97.52 49.95 L-95.76 50.71 L-95.76 52.61 L-95.76 54.51 L-95.76 56.41 L-95.76 58.31 L-95.76 60.21 Z " />
<path stroke="rgb(0,0,0)" stroke-opacity="1" fill="rgb(244,200,200)" fill-opacity="1" id="fus3_1_" d="M-95.6 56.45 L-97.38 55.69 L-99.16 54.93 L-100.9 54.17 L-102.7 53.41 L-104.5 52.65 L-104.5 50.79 L-104.5 48.93 L-104.5 47.07 L-104.5 45.21 L-104.5 43.35 L-102.7 44.11 L-100.9 44.87 L-99.1 45.63 L-97.3 46.39 L-95.5 47.15 L-95.52 49.01 L-95.54 50.87 L-95.56 52.73 L-95.58 54.59 L-95.6 56.45 Z " />
<path stroke="rgb(0,0,0)" stroke-opacity="1" fill="rgb(244,200,200)" fill-opacity="1" id="fus4_1_" d="M-96.5 60.45 L-98.3 59.67 L-100.1 58.89 L-101.9 58.11 L-103.7 57.33 L-105.5 56.55 L-105.5 54.69 L-105.5 52.83 L-105.5 50.97 L-105.5 49.11 L-105.5 47.25 L-103.7 48.03 L-101.9 48.81 L-100.1 49.59 L-98.3 50.37 L-96.5 51.15 L-96.5 53.01 L-96.5 54.87 L-96.5 56.73 L-96.5 58.59 L-96.5 60.45 Z " />
<path stroke="rgb(0,0,0)" stroke-opacity="1" fill="rgb(173,200,200)" fill-opacity="1" id="swap1_1_" d="M36.81 -109.4 L34.99 -110.4 L33.17 -111.4 L31.35 -112.3 L29.53 -113.3 L27.71 -114.2 L25.89 -115.2 L24.07 -116.2 L22.25 -117.1 L20.43 -118.1 L18.61 -119 L18.63 -121.1 L18.64 -123.1 L18.65 -125.1 L18.66 -127.1 L18.67 -129.1 L18.68 -131.1 L18.69 -133.1 L18.7 -135.1 L18.71 -137.1 L20.53 -136.2 L22.35 -135.2 L24.17 -134.2 L25.99 -133.3 L27.81 -132.3 L29.63 -131.3 L31.45 -130.4 L33.27 -129.4 L35.09 -128.4 L36.91 -127.4 L36.9 -125.4 L36.89 -123.4 L36.88 -121.4 L36.87 -119.4 L36.86 -117.4 L36.85 -115.4 L36.84 -113.4 L36.83 -111.4 L36.81 -109.4 Z " />
<path stroke="rgb(0,0,0)" stroke-opacity="1" fill="rgb(173,200,200)" fill-opacity="1" id="swap3_1_" d="M20.8 -128.3 L18.98 -129.2 L17.16 -130.2 L15.34 -131.2 L13.52 -132.1 L11.7 -133.1 L9.88 -134 L8.06 -135 L6.24 -136 L4.42 -136.9 L2.6 -137.9 L2.611 -139.9 L2.622 -141.9 L2.633 -143.9 L2.644 -145.9 L2.656 -147.9 L2.667 -150 L2.678 -152 L2.689 -154 L2.7 -156 L4.52 -155 L6.34 -154.1 L8.16 -153.1 L9.98 -152.1 L11.8 -151.2 L13.62 -150.2 L15.44 -149.3 L17.26 -148.3 L19.08 -147.3 L20.9 -146.4 L20.89 -144.4 L20.88 -142.4 L20.87 -140.4 L20.86 -138.3 L20.84 -136.3 L20.83 -134.3 L20.82 -132.3 L20.81 -130.3 L20.8 -128.3 Z " />
<path stroke="rgb(0,0,0)" stroke-opacity="1" fill="rgb(173,200,200)" fill-opacity="1" id="swap2_1_" d="M4.885 -122.4 L3.065 -123.3 L1.245 -124.3 L-0.5748 -125.2 L-2.395 -126.2 L-4.215 -127.2 L-6.035 -128.1 L-7.855 -129.1 L-9.675 -130 L-11.49 -131 L-13.31 -132 L-13.3 -134 L-13.29 -136 L-13.28 -138 L-13.27 -140 L-13.26 -142 L-13.25 -144 L-13.24 -146 L-13.23 -148 L-13.21 -150.1 L-11.38 -149.1 L-9.555 -148.1 L-7.725 -147.2 L-5.895 -146.2 L-4.065 -145.3 L-2.235 -144.3 L-0.4048 -143.3 L1.425 -142.4 L3.255 -141.4 L5.085 -140.5 L5.063 -138.4 L5.041 -136.4 L5.019 -134.4 L4.996 -132.4 L4.974 -130.4 L4.952 -128.4 L4.93 -126.4 L4.907 -124.4 L4.885 -122.4 Z " />
<path stroke="rgb(0,0,0)" stroke-opacity="1" fill="rgb(173,200,200)" fill-opacity="1" id="swap4_1_" d="M20.7 -103.8 L18.88 -104.8 L17.06 -105.8 L15.24 -106.8 L13.42 -107.7 L11.6 -108.7 L9.78 -109.7 L7.96 -110.7 L6.14 -111.7 L4.32 -112.6 L2.5 -113.6 L2.511 -115.6 L2.522 -117.6 L2.533 -119.6 L2.544 -121.6 L2.556 -123.6 L2.567 -125.6 L2.578 -127.6 L2.589 -129.6 L2.6 -131.6 L4.43 -130.6 L6.26 -129.7 L8.09 -128.7 L9.92 -127.7 L11.75 -126.8 L13.58 -125.8 L15.41 -124.8 L17.24 -123.9 L19.07 -122.9 L20.9 -121.9 L20.88 -119.9 L20.86 -117.9 L20.83 -115.9 L20.81 -113.9 L20.79 -111.9 L20.77 -109.8 L20.74 -107.8 L20.72 -105.8 L20.7 -103.8 Z " />
<path stroke="rgb(0,0,0)" stroke-opacity="1" fill="rgb(244,227,211)" fill-opacity="1" id="a10_5_" d="M40 -46.65 L38.24 -45.63 L36.48 -44.6 L34.71 -43.57 L32.95 -42.55 L31.19 -41.53 L29.42 -40.5 L27.66 -39.48 L25.9 -38.45 L24.14 -37.43 L22.37 -36.4 L20.61 -35.38 L18.85 -34.35 L17.09 -33.33 L15.32 -32.3 L13.56 -31.28 L11.8 -30.25 L10.04 -31.28 L8.275 -32.3 L6.512 -33.33 L4.75 -34.35 L2.987 -35.38 L1.225 -36.4 L-0.5375 -37.43 L-2.3 -38.45 L-4.063 -39.48 L-5.825 -40.5 L-7.587 -41.53 L-9.35 -42.55 L-11.11 -43.57 L-12.87 -44.6 L-14.64 -45.63 L-16.4 -46.65 L-14.64 -47.68 L-12.87 -48.7 L-11.11 -49.72 L-9.35 -50.75 L-7.587 -51.77 L-5.825 -52.8 L-4.063 -53.82 L-2.3 -54.85 L-0.5375 -55.87 L1.225 -56.9 L2.987 -57.92 L4.75 -58.95 L6.512 -59.97 L8.275 -61 L10.04 -62.02 L11.8 -63.05 L13.56 -62.02 L15.32 -61 L17.09 -59.97 L18.85 -58.95 L20.61 -57.92 L22.37 -56.9 L24.14 -55.87 L25.9 -54.85 L27.66 -53.82 L29.42 -52.8 L31.19 -51.77 L32.95 -50.75 L34.71 -49.72 L36.48 -48.7 L38.24 -47.68 L40 -46.65 Z " />
<path stroke="rgb(0,0,0)" stroke-opacity="1" fill="rgb(244,227,211)" fill-opacity="1" id="a10_4_" d="M40.5 -11.85 L40.5 -13.85 L40.5 -15.85 L40.5 -17.85 L40.5 -19.85 L40.5 -21.85 L40.5 -23.85 L40.5 -25.85 L40.5 -27.85 L40.5 -29.85 L40.5 -31.85 L40.5 -33.85 L40.5 -35.85 L40.5 -37.85 L40.5 -39.85 L40.5 -41.85 L40.5 -43.85 L40.5 -45.85 L38.74 -44.83 L36.98 -43.8 L35.21 -42.78 L33.45 -41.75 L31.69 -40.73 L29.92 -39.7 L28.16 -38.68 L26.4 -37.65 L24.64 -36.62 L22.87 -35.6 L21.11 -34.57 L19.35 -33.55 L17.59 -32.52 L15.82 -31.5 L14.06 -30.47 L12.3 -29.45 L12.3 -27.44 L12.3 -25.44 L12.3 -23.43 L12.3 -21.43 L12.3 -19.42 L12.3 -17.42 L12.3 -15.41 L12.3 -13.41 L12.3 -11.4 L12.3 -9.397 L12.3 -7.392 L12.3 -5.387 L12.3 -3.382 L12.3 -1.376 L12.3 0.6289 L12.3 2.634 L12.3 4.639 L12.3 6.645 L12.3 8.65 L13.96 7.444 L15.62 6.238 L17.28 5.032 L18.94 3.826 L20.59 2.621 L22.25 1.415 L23.91 0.2088 L25.57 -0.9971 L27.23 -2.203 L28.89 -3.409 L30.55 -4.615 L32.21 -5.821 L33.86 -7.026 L35.52 -8.232 L37.18 -9.438 L38.84 -10.64 L40.5 -11.85 Z " />
<path stroke="rgb(0,0,0)" stroke-opacity="1" fill="rgb(244,227,211)" fill-opacity="1" id="a10_3_" d="M-16.8 -45.85 L-16.8 -43.85 L-16.8 -41.85 L-16.8 -39.85 L-16.8 -37.85 L-16.8 -35.85 L-16.8 -33.85 L-16.8 -31.85 L-16.8 -29.85 L-16.8 -27.85 L-16.8 -25.85 L-16.8 -23.85 L-16.8 -21.85 L-16.8 -19.85 L-16.8 -17.85 L-16.8 -15.85 L-16.8 -13.85 L-16.8 -11.85 L-15.14 -10.64 L-13.48 -9.438 L-11.82 -8.232 L-10.16 -7.026 L-8.506 -5.821 L-6.847 -4.615 L-5.188 -3.409 L-3.529 -2.203 L-1.871 -0.9971 L-0.2118 0.2088 L1.447 1.415 L3.106 2.621 L4.765 3.826 L6.424 5.032 L8.082 6.238 L9.741 7.444 L11.4 8.65 L11.4 6.645 L11.4 4.639 L11.4 2.634 L11.4 0.6289 L11.4 -1.376 L11.4 -3.382 L11.4 -5.387 L11.4 -7.392 L11.4 -9.397 L11.4 -11.4 L11.4 -13.41 L11.4 -15.41 L11.4 -17.42 L11.4 -19.42 L11.4 -21.43 L11.4 -23.43 L11.4 -25.44 L11.4 -27.44 L11.4 -29.45 L9.637 -30.47 L7.875 -31.5 L6.112 -32.52 L4.35 -33.55 L2.587 -34.57 L0.825 -35.6 L-0.9375 -36.62 L-2.7 -37.65 L-4.462 -38.68 L-6.225 -39.7 L-7.987 -40.73 L-9.75 -41.75 L-11.51 -42.78 L-13.27 -43.8 L-15.04 -44.83 L-16.8 -45.85 Z " />
<path stroke="rgb(0,0,0)" stroke-opacity="1" fill="rgb(200,200,200)" fill-opacity="1" id="circ1_5_" d="M-62.5 10.35 L-64.08 11.27 L-65.66 12.19 L-67.24 13.11 L-68.82 14.03 L-70.4 14.95 L-71.98 14.03 L-73.56 13.11 L-75.14 12.19 L-76.72 11.27 L-78.3 10.35 L-76.72 9.43 L-75.14 8.51 L-73.56 7.59 L-71.98 6.67 L-70.4 5.75 L-68.82 6.67 L-67.24 7.59 L-65.66 8.51 L-64.08 9.43 L-62.5 10.35 Z " />
<path stroke="rgb(0,0,0)" stroke-opacity="1" fill="rgb(200,200,200)" fill-opacity="1" id="circ1_4_" d="M-62.4 20.15 L-62.4 18.25 L-62.4 16.35 L-62.4 14.45 L-62.4 12.55 L-62.4 10.65 L-63.98 11.55 L-65.56 12.45 L-67.14 13.35 L-68.72 14.25 L-70.3 15.15 L-70.3 17.29 L-70.3 19.43 L-70.3 21.57 L-70.3 23.71 L-70.3 25.85 L-68.72 24.71 L-67.14 23.57 L-65.56 22.43 L-63.98 21.29 L-62.4 20.15 Z " />
<path stroke="rgb(0,0,0)" stroke-opacity="1" fill="rgb(200,200,200)" fill-opacity="1" id="circ1_3_" d="M-78.5 10.65 L-78.5 12.55 L-78.5 14.45 L-78.5 16.35 L-78.5 18.25 L-78.5 20.15 L-76.92 21.29 L-75.34 22.43 L-73.76 23.57 L-72.18 24.71 L-70.6 25.85 L-70.6 23.71 L-70.6 21.57 L-70.6 19.43 L-70.6 17.29 L-70.6 15.15 L-72.18 14.25 L-73.76 13.35 L-75.34 12.45 L-76.92 11.55 L-78.5 10.65 Z " />
<path stroke="rgb(0,0,0)" stroke-opacity="1" fill="rgb(200,200,200)" fill-opacity="1" id="circ2_5_" d="M-98.6 -38.25 L-100.2 -37.33 L-101.8 -36.41 L-103.3 -35.49 L-104.9 -34.57 L-106.5 -33.65 L-108.1 -34.57 L-109.7 -35.49 L-111.2 -36.41 L-112.8 -37.33 L-114.4 -38.25 L-112.8 -39.15 L-111.2 -40.05 L-109.7 -40.95 L-108.1 -41.85 L-106.5 -42.75 L-104.9 -41.85 L-103.3 -40.95 L-101.8 -40.05 L-100.2 -39.15 L-98.6 -38.25 Z " />
<path stroke="rgb(0,0,0)" stroke-opacity="1" fill="rgb(200,200,200)" fill-opacity="1" id="circ2_4_" d="M-98.5 -28.45 L-98.5 -30.35 L-98.5 -32.25 L-98.5 -34.15 L-98.5 -36.05 L-98.5 -37.95 L-100.1 -37.03 L-101.7 -36.11 L-103.2 -35.19 L-104.8 -34.27 L-106.4 -33.35 L-106.4 -31.23 L-106.4 -29.11 L-106.4 -26.99 L-106.4 -24.87 L-106.4 -22.75 L-104.8 -23.89 L-103.2 -25.03 L-101.7 -26.17 L-100.1 -27.31 L-98.5 -28.45 Z " />
<path stroke="rgb(0,0,0)" stroke-opacity="1" fill="rgb(200,200,200)" fill-opacity="1" id="circ2_3_" d="M-114.6 -37.95 L-114.6 -36.05 L-114.6 -34.15 L-114.6 -32.25 L-114.6 -30.35 L-114.6 -28.45 L-113 -27.31 L-111.4 -26.17 L-109.9 -25.03 L-108.3 -23.89 L-106.7 -22.75 L-106.7 -24.87 L-106.7 -26.99 L-106.7 -29.11 L-106.7 -31.23 L-106.7 -33.35 L-108.3 -34.27 L-109.9 -35.19 L-111.4 -36.11 L-113 -37.03 L-114.6 -37.95 Z " />
<path stroke="rgb(0,0,0)" stroke-opacity="1" fill="rgb(148,200,200)" fill-opacity="1" id="bb1" d="M43.46 -50.28 L43.06 -48.33 L42.66 -46.38 L42.26 -44.43 L41.86 -42.48 L41.46 -40.53 L41.06 -38.58 L40.66 -36.63 L40.26 -34.68 L39.86 -32.73 L39.47 -30.78 L39.07 -28.83 L38.67 -26.88 L38.27 -24.93 L37.87 -22.98 L37.47 -21.03 L37.07 -19.08 L36.67 -17.13 L38.02 -15.6 L39.37 -14.08 L40.72 -12.56 L42.07 -11.03 L43.43 -9.509 L44.78 -7.986 L46.13 -6.463 L47.48 -4.94 L48.83 -3.417 L50.18 -1.893 L51.53 -0.3703 L52.88 1.153 L54.87 0.6826 L56.85 0.2122 L58.84 -0.2581 L60.82 -0.7284 L62.8 -1.199 L64.79 -1.669 L66.77 -2.139 L68.76 -2.61 L70.74 -3.08 L72.73 -3.55 L74.71 -4.021 L76.7 -4.491 L78.68 -4.961 L80.66 -5.432 L82.65 -5.902 L84.02 -7.39 L85.38 -8.878 L86.75 -10.37 L88.12 -11.85 L89.48 -13.34 L90.85 -14.83 L92.22 -16.32 L93.58 -17.81 L94.95 -19.3 L96.32 -20.78 L97.68 -22.27 L99.05 -23.76 L100.4 -25.25 L101.8 -26.74 L103.1 -28.22 L104.5 -29.71 L105.9 -31.2 L107.2 -32.69 L108.6 -34.18 L109 -36.13 L109.4 -38.08 L109.8 -40.03 L110.2 -41.98 L110.6 -43.93 L111 -45.88 L111.4 -47.83 L111.8 -49.78 L112.2 -51.73 L112.6 -53.68 L113 -55.63 L113.4 -57.58 L113.8 -59.53 L114.2 -61.48 L114.6 -63.43 L115 -65.38 L115.4 -67.33 L114 -68.87 L112.7 -70.41 L111.3 -71.94 L110 -73.48 L108.6 -75.02 L107.3 -76.56 L105.9 -78.1 L104.6 -79.64 L103.2 -81.18 L101.9 -82.72 L100.5 -84.26 L99.15 -85.8 L97.16 -85.33 L95.18 -84.86 L93.19 -84.39 L91.21 -83.92 L89.22 -83.45 L87.24 -82.98 L85.25 -82.51 L83.27 -82.04 L81.29 -81.57 L79.3 -81.1 L77.32 -80.62 L75.33 -80.15 L73.35 -79.68 L71.36 -79.21 L69.38 -78.74 L68.01 -77.25 L66.65 -75.75 L65.29 -74.25 L63.92 -72.75 L62.56 -71.25 L61.19 -69.75 L59.83 -68.26 L58.46 -66.76 L57.1 -65.26 L55.74 -63.76 L54.37 -62.26 L53.01 -60.76 L51.64 -59.27 L50.28 -57.77 L48.92 -56.27 L47.55 -54.77 L46.19 -53.27 L44.82 -51.77 L43.46 -50.28 Z " />
<path stroke="rgb(0,0,0)" stroke-opacity="1" fill="rgb(236,216,157)" fill-opacity="1" id="scltrs1" d="M-161.6 9.527 L-162.7 10.93 L-163.9 12.33 L-165 13.73 L-166.1 15.14 L-167.2 16.54 L-168.3 17.94 L-169.4 19.35 L-170.5 20.75 L-171.6 22.15 L-172.7 23.55 L-173.8 24.96 L-174.9 26.36 L-176 27.76 L-177.1 29.16 L-178.2 30.57 L-179.3 31.97 L-180.5 33.37 L-181.6 34.78 L-182.7 36.18 L-183.8 37.58 L-184.9 38.98 L-186 40.39 L-187.1 41.79 L-188.2 43.19 L-189.3 44.59 L-190.4 46 L-191.5 47.4 L-192.6 48.8 L-193.7 50.21 L-194.8 51.61 L-195.9 53.01 L-197.1 54.41 L-198.2 55.82 L-199.3 57.22 L-200.4 58.62 L-201.5 60.02 L-199.9 60.78 L-198.2 61.54 L-196.6 62.3 L-195 63.06 L-193.3 63.82 L-191.7 64.58 L-190.1 65.34 L-188.5 66.1 L-186.8 66.86 L-185.2 67.62 L-183.6 68.38 L-182 69.14 L-180.3 69.9 L-178.7 70.66 L-177.1 71.42 L-175.5 72.18 L-173.8 72.94 L-172.2 73.7 L-170.6 74.46 L-169 75.21 L-167.3 75.97 L-165.7 76.73 L-164.1 77.49 L-162.5 78.25 L-160.8 79.01 L-159.2 79.77 L-157.6 80.53 L-155.9 81.29 L-154.3 82.05 L-152.7 82.81 L-151.1 83.57 L-149.4 84.33 L-147.8 85.09 L-146.2 85.85 L-144.6 86.61 L-142.9 87.37 L-141.3 88.13 L-139.7 88.89 L-138.1 89.65 L-136.4 90.41 L-134.8 91.17 L-133.2 91.93 L-131.6 92.68 L-129.9 93.44 L-128.3 94.2 L-126.7 94.96 L-125.1 95.72 L-123.4 96.48 L-121.8 97.24 L-122.6 95.59 L-123.3 93.93 L-124.1 92.28 L-124.8 90.62 L-125.6 88.97 L-126.3 87.31 L-127.1 85.66 L-127.8 84 L-128.6 82.35 L-129.3 80.69 L-130.1 79.04 L-130.8 77.38 L-131.6 75.73 L-132.3 74.07 L-133.1 72.42 L-133.8 70.76 L-134.6 69.11 L-135.3 67.45 L-136.1 65.8 L-136.8 64.14 L-137.6 62.49 L-138.3 60.83 L-139.1 59.18 L-139.8 57.52 L-140.6 55.87 L-141.3 54.21 L-142.1 52.56 L-142.8 50.9 L-143.6 49.25 L-144.4 47.59 L-145.1 45.94 L-145.9 44.28 L-146.6 42.63 L-147.4 40.97 L-148.1 39.32 L-148.9 37.66 L-149.6 36.01 L-150.4 34.35 L-151.1 32.7 L-151.9 31.04 L-152.6 29.39 L-153.4 27.73 L-154.1 26.08 L-154.9 24.42 L-155.6 22.77 L-156.4 21.11 L-157.1 19.46 L-157.9 17.8 L-158.6 16.15 L-159.4 14.49 L-160.1 12.84 L-160.9 11.18 L-161.6 9.527 Z " />
<path stroke="rgb(0,0,0)" stroke-opacity="1" fill="rgb(255,255,255)" fill-opacity="1" id="a5" d="M-62.4 134.3 L-62.51 136.7 L-62.82 138.8 L-63.33 140.8 L-64.03 142.7 L-64.92 144.4 L-65.97 145.8 L-67.18 147.2 L-68.54 148.3 L-70.05 149.2 L-71.69 150 L-73.45 150.5 L-75.33 150.8 L-77.32 150.9 L-79.4 150.9 L-81.57 150.5 L-83.81 150 L-86.13 149.2 L-88.5 148.2 L-90.29 147.4 L-92.04 146.4 L-93.76 145.3 L-95.43 144.1 L-97.07 142.8 L-98.65 141.5 L-100.2 140.1 L-101.7 138.6 L-103.1 137 L-104.4 135.4 L-105.7 133.7 L-107 132 L-108.1 130.3 L-109.2 128.5 L-110.1 126.7 L-111 124.9 L-111.8 123 L-112.5 121.2 L-113.2 119.3 L-113.7 117.4 L-114.1 115.6 L-114.4 113.7 L-114.5 111.9 L-114.6 110 L-114.5 107.7 L-114.2 105.6 L-113.7 103.6 L-113 101.7 L-112.1 100 L-111 98.56 L-109.8 97.25 L-108.5 96.12 L-107 95.19 L-105.3 94.45 L-103.5 93.91 L-101.7 93.58 L-99.68 93.45 L-97.6 93.54 L-95.43 93.85 L-93.19 94.39 L-90.87 95.15 L-88.5 96.15 L-86.71 97.04 L-84.96 98.03 L-83.24 99.12 L-81.57 100.3 L-79.93 101.6 L-78.35 102.9 L-76.81 104.3 L-75.33 105.8 L-73.91 107.4 L-72.56 109 L-71.27 110.7 L-70.05 112.4 L-68.91 114.1 L-67.84 115.9 L-66.86 117.7 L-65.97 119.5 L-65.16 121.4 L-64.45 123.2 L-63.84 125.1 L-63.33 127 L-62.93 128.8 L-62.64 130.7 L-62.46 132.5 L-62.4 134.3 Z " />
<path stroke="rgb(0,0,0)" stroke-opacity="1" fill="rgb(255,255,255)" fill-opacity="1" id="a17" d="M-96 -128.5 L-97.21 -127 L-98.42 -125.5 L-99.62 -124 L-100.8 -122.4 L-102 -120.9 L-103.2 -119.4 L-104.5 -117.8 L-105.7 -116.3 L-106.9 -114.8 L-108.1 -113.2 L-109.3 -111.7 L-110.5 -110.2 L-111.7 -108.7 L-109.9 -107.8 L-108 -106.9 L-106.2 -106.1 L-104.3 -105.2 L-102.5 -104.3 L-100.6 -103.5 L-98.77 -102.6 L-96.92 -101.7 L-95.08 -100.9 L-93.23 -100 L-91.38 -99.14 L-89.54 -98.27 L-87.69 -97.41 L-85.84 -96.54 L-83.99 -95.68 L-82.15 -94.81 L-80.3 -93.95 L-81.13 -95.77 L-81.95 -97.59 L-82.78 -99.41 L-83.61 -101.2 L-84.43 -103.1 L-85.26 -104.9 L-86.08 -106.7 L-86.91 -108.5 L-87.74 -110.3 L-88.56 -112.2 L-89.39 -114 L-90.22 -115.8 L-91.04 -117.6 L-91.87 -119.4 L-92.69 -121.3 L-93.52 -123.1 L-94.35 -124.9 L-95.17 -126.7 L-96 -128.5 Z " />
<path stroke="rgb(0,0,0)" stroke-opacity="1" fill="rgb(255,255,255)" fill-opacity="1" id="a16" d="M-96 -70.95 L-94.79 -72.48 L-93.58 -74.01 L-92.38 -75.54 L-91.17 -77.07 L-89.96 -78.6 L-88.75 -80.13 L-87.55 -81.67 L-86.34 -83.2 L-85.13 -84.73 L-83.92 -86.26 L-82.72 -87.79 L-81.51 -89.32 L-80.3 -90.85 L-82.15 -91.71 L-83.99 -92.57 L-85.84 -93.43 L-87.69 -94.29 L-89.54 -95.14 L-91.38 -96 L-93.23 -96.86 L-95.08 -97.72 L-96.92 -98.58 L-98.77 -99.44 L-100.6 -100.3 L-102.5 -101.2 L-104.3 -102 L-106.2 -102.9 L-108 -103.7 L-109.9 -104.6 L-111.7 -105.5 L-110.9 -103.6 L-110 -101.8 L-109.2 -100 L-108.4 -98.19 L-107.6 -96.37 L-106.7 -94.56 L-105.9 -92.74 L-105.1 -90.92 L-104.3 -89.11 L-103.4 -87.29 L-102.6 -85.48 L-101.8 -83.66 L-101 -81.84 L-100.1 -80.03 L-99.31 -78.21 L-98.48 -76.4 L-97.65 -74.58 L-96.83 -72.77 L-96 -70.95 Z " />
<path stroke="rgb(0,0,0)" stroke-opacity="1" fill="rgb(173,200,200)" fill-opacity="1" id="swap2" d="M-55.91 -64.75 L-56.17 -62.63 L-56.89 -60.92 L-58.03 -59.65 L-59.53 -58.85 L-61.33 -58.55 L-63.38 -58.77 L-65.61 -59.55 L-67.37 -60.52 L-69.02 -61.74 L-70.53 -63.17 L-71.88 -64.76 L-73.05 -66.47 L-74 -68.27 L-74.71 -70.11 L-75.16 -71.95 L-75.31 -73.75 L-75.06 -75.84 L-74.34 -77.54 L-73.2 -78.81 L-71.7 -79.63 L-69.9 -79.94 L-67.85 -79.73 L-65.61 -78.95 L-63.86 -77.99 L-62.21 -76.78 L-60.7 -75.36 L-59.35 -73.78 L-58.18 -72.07 L-57.23 -70.28 L-56.52 -68.44 L-56.07 -66.58 L-55.91 -64.75 Z " />
<path stroke="rgb(0,0,0)" stroke-opacity="1" fill="rgb(173,200,200)" fill-opacity="1" id="swap4" d="M-33.4 -46.41 L-33.65 -44.29 L-34.38 -42.58 L-35.52 -41.31 L-37.02 -40.51 L-38.82 -40.21 L-40.86 -40.43 L-43.1 -41.21 L-44.85 -42.18 L-46.5 -43.4 L-48.01 -44.83 L-49.37 -46.42 L-50.53 -48.13 L-51.49 -49.93 L-52.2 -51.77 L-52.65 -53.61 L-52.8 -55.41 L-52.55 -57.53 L-51.82 -59.24 L-50.68 -60.51 L-49.18 -61.32 L-47.38 -61.62 L-45.34 -61.4 L-43.1 -60.61 L-41.35 -59.65 L-39.7 -58.43 L-38.19 -57.02 L-36.83 -55.44 L-35.67 -53.73 L-34.71 -51.94 L-34 -50.09 L-33.55 -48.24 L-33.4 -46.41 Z " />
<path stroke="rgb(0,0,0)" stroke-opacity="1" fill="rgb(173,200,200)" fill-opacity="1" id="swap3" d="M-33.4 -63.89 L-33.65 -61.77 L-34.38 -60.06 L-35.52 -58.79 L-37.02 -57.98 L-38.82 -57.68 L-40.86 -57.9 L-43.1 -58.69 L-44.85 -59.66 L-46.5 -60.88 L-48.01 -62.3 L-49.37 -63.89 L-50.53 -65.61 L-51.49 -67.41 L-52.2 -69.25 L-52.65 -71.09 L-52.8 -72.89 L-52.55 -74.98 L-51.82 -76.67 L-50.68 -77.95 L-49.18 -78.76 L-47.38 -79.08 L-45.34 -78.86 L-43.1 -78.09 L-41.35 -77.12 L-39.7 -75.91 L-38.19 -74.49 L-36.83 -72.91 L-35.67 -71.21 L-34.71 -69.41 L-34 -67.57 L-33.55 -65.71 L-33.4 -63.89 Z " />
<path stroke="rgb(0,0,0)" stroke-opacity="1" fill="rgb(173,200,200)" fill-opacity="1" id="swap1" d="M-10.49 -46.55 L-10.74 -44.43 L-11.46 -42.72 L-12.6 -41.45 L-14.1 -40.64 L-15.9 -40.34 L-17.95 -40.56 L-20.19 -41.35 L-21.94 -42.32 L-23.59 -43.54 L-25.1 -44.96 L-26.45 -46.55 L-27.62 -48.27 L-28.57 -50.06 L-29.28 -51.9 L-29.73 -53.75 L-29.89 -55.55 L-29.63 -57.63 L-28.91 -59.33 L-27.77 -60.61 L-26.27 -61.42 L-24.47 -61.74 L-22.42 -61.52 L-20.19 -60.75 L-18.43 -59.78 L-16.78 -58.56 L-15.27 -57.13 L-13.92 -55.54 L-12.75 -53.83 L-11.8 -52.03 L-11.09 -50.19 L-10.64 -48.35 L-10.49 -46.55 Z " />
<path stroke="rgb(0,0,0)" stroke-opacity="1" fill="rgb(255,255,255)" fill-opacity="1" id="secscl1" d="M-4.762 125.1 L-5.714 124.7 L-6.665 124.2 L-7.616 123.8 L-8.568 123.3 L-9.519 122.9 L-10.47 122.5 L-11.42 122 L-12.37 121.6 L-13.32 121.1 L-14.28 120.7 L-15.23 120.2 L-16.18 119.8 L-17.13 119.4 L-18.08 118.9 L-18.74 119.8 L-19.4 120.6 L-20.06 121.4 L-20.72 122.3 L-21.39 123.1 L-22.05 124 L-22.71 124.8 L-23.37 125.6 L-24.03 126.5 L-24.69 127.3 L-24.28 128.2 L-23.86 129.1 L-23.45 130 L-23.04 131 L-22.62 131.9 L-22.21 132.8 L-21.8 133.7 L-21.39 134.6 L-20.97 135.5 L-20.56 136.4 L-20.15 137.3 L-19.73 138.2 L-19.32 139.1 L-18.91 140.1 L-18.49 141 L-18.08 141.9 L-17.13 142.3 L-16.18 142.7 L-15.23 143.2 L-14.28 143.6 L-13.32 144.1 L-12.37 144.5 L-11.42 144.9 L-10.47 145.4 L-9.519 145.8 L-8.568 146.3 L-7.616 146.7 L-6.665 147.1 L-5.714 147.6 L-4.762 148 L-4.101 147.2 L-3.441 146.3 L-2.78 145.5 L-2.119 144.7 L-1.458 143.8 L-0.7973 143 L-0.1365 142.2 L0.5243 141.3 L1.185 140.5 L1.846 139.7 L1.433 138.8 L1.02 137.8 L0.6069 136.9 L0.1939 136 L-0.2191 135.1 L-0.6321 134.2 L-1.045 133.3 L-1.458 132.4 L-1.871 131.5 L-2.284 130.6 L-2.697 129.7 L-3.11 128.8 L-3.523 127.8 L-3.936 126.9 L-4.349 126 L-4.762 125.1 Z " />
</g>
</g>
</svg>
