<!DOCTYPE svg>
<svg xmlns="http://www.w3.org/2000/svg" xmlns:xlink="http://www.w3.org/1999/xlink" width="1080" height="1080">
<g transform="translate(540.000000,540.000000)">
<g transform="scale(2,2)">
<path stroke="rgb(0,0,0)" stroke-opacity="1" fill="rgb(148,200,200)" fill-opacity="1" id="bb1_2_" d="M-132.9 20.09 L-134 18.38 L-135 16.66 L-136 14.95 L-137 13.23 L-138 11.51 L-139 9.799 L-140 8.083 L-141.1 6.367 L-142.1 4.651 L-143.1 2.936 L-144.1 1.22 L-145.1 -0.4959 L-146.1 -2.212 L-147.1 -3.927 L-148.2 -5.643 L-149.2 -7.359 L-150.2 -9.075 L-151.2 -10.79 L-152.2 -12.51 L-153.2 -14.22 L-154.2 -15.94 L-155.3 -17.65 L-156.3 -19.37 L-157.3 -21.08 L-158.3 -22.8 L-159.3 -24.52 L-160.3 -26.23 L-161.3 -27.95 L-162.4 -29.66 L-161.2 -31.3 L-160 -32.94 L-158.8 -34.57 L-157.7 -36.21 L-156.5 -37.84 L-155.3 -39.48 L-154.1 -41.12 L-153 -42.75 L-151.8 -44.39 L-150.6 -46.03 L-149.4 -47.66 L-148.3 -49.3 L-147.1 -50.93 L-145.9 -52.57 L-144.7 -54.21 L-143.6 -55.84 L-142.4 -57.48 L-141.2 -59.11 L-140.1 -60.75 L-138.9 -62.39 L-137.7 -64.02 L-136.5 -65.66 L-135.4 -67.3 L-134.2 -68.93 L-133 -70.57 L-131.8 -72.2 L-130.7 -73.84 L-129.6 -72.12 L-128.6 -70.41 L-127.6 -68.69 L-126.6 -66.98 L-125.6 -65.26 L-124.6 -63.55 L-123.6 -61.83 L-122.5 -60.11 L-121.5 -58.4 L-120.5 -56.68 L-119.5 -54.97 L-118.5 -53.25 L-117.5 -51.54 L-116.5 -49.82 L-115.4 -48.1 L-114.4 -46.39 L-113.4 -44.67 L-112.4 -42.96 L-111.4 -41.24 L-110.4 -39.53 L-109.4 -37.81 L-108.3 -36.09 L-107.3 -34.38 L-106.3 -32.66 L-105.3 -30.95 L-104.3 -29.23 L-103.3 -27.51 L-102.3 -25.8 L-101.2 -24.08 L-102.4 -22.45 L-103.6 -20.81 L-104.8 -19.17 L-105.9 -17.54 L-107.1 -15.9 L-108.3 -14.27 L-109.5 -12.63 L-110.6 -10.99 L-111.8 -9.358 L-113 -7.722 L-114.2 -6.086 L-115.3 -4.449 L-116.5 -2.813 L-117.7 -1.177 L-118.9 0.4591 L-120 2.095 L-121.2 3.731 L-122.4 5.368 L-123.6 7.004 L-124.7 8.64 L-125.9 10.28 L-127.1 11.91 L-128.3 13.55 L-129.4 15.18 L-130.6 16.82 L-131.8 18.46 L-132.9 20.09 Z " />
<path stroke="rgb(0,0,0)" stroke-opacity="1" fill="rgb(236,216,157)" fill-opacity="1" id="pr2_1_" d="M72.7 104.6 L70.94 103.7 L69.18 102.8 L67.41 101.9 L65.65 101 L63.89 100.1 L62.13 99.25 L60.36 98.35 L58.6 97.45 L58.63 95.52 L58.66 93.59 L58.69 91.66 L58.71 89.74 L58.74 87.81 L58.77 85.88 L58.8 83.95 L60.55 84.84 L62.3 85.73 L64.05 86.61 L65.8 87.5 L67.55 88.39 L69.3 89.28 L71.05 90.16 L72.8 91.05 L72.79 92.99 L72.77 94.94 L72.76 96.88 L72.74 98.82 L72.73 100.8 L72.71 102.7 L72.7 104.6 Z " />
<path stroke="rgb(0,0,0)" stroke-opacity="1" fill="rgb(236,216,157)" fill-opacity="1" id="pr1_1_" d="M54.9 96.05 L53.15 95.15 L51.4 94.25 L49.65 93.35 L47.9 92.45 L46.15 91.55 L44.4 90.65 L42.65 89.75 L40.9 88.85 L40.91 86.92 L40.93 84.99 L40.94 83.06 L40.96 81.14 L40.97 79.21 L40.99 77.28 L41 75.35 L42.75 76.25 L44.5 77.15 L46.25 78.05 L48 78.95 L49.75 79.85 L51.5 80.75 L53.25 81.65 L55 82.55 L54.99 84.48 L54.97 86.41 L54.96 88.34 L54.94 90.26 L54.93 92.19 L54.91 94.12 L54.9 96.05 Z " />
<path stroke="rgb(0,0,0)" stroke-opacity="1" fill="rgb(236,216,157)" fill-opacity="1" id="pr3_1_" d="M54.6 113.6 L52.85 112.7 L51.1 111.8 L49.35 110.9 L47.6 110 L45.85 109.1 L44.1 108.1 L42.35 107.2 L40.6 106.3 L40.61 104.4 L40.63 102.5 L40.64 100.6 L40.66 98.64 L40.67 96.71 L40.69 94.78 L40.7 92.85 L42.45 93.75 L44.2 94.65 L45.95 95.55 L47.7 96.45 L49.45 97.35 L51.2 98.25 L52.95 99.15 L54.7 100.1 L54.69 102 L54.67 103.9 L54.66 105.8 L54.64 107.8 L54.63 109.7 L54.61 111.6 L54.6 113.6 Z " />
<path stroke="rgb(0,0,0)" stroke-opacity="1" fill="rgb(236,216,157)" fill-opacity="1" id="pr4_1_" d="M72.3 121.7 L70.54 120.9 L68.77 120 L67.01 119.1 L65.25 118.2 L63.49 117.3 L61.73 116.4 L59.96 115.5 L58.2 114.6 L58.21 112.7 L58.23 110.8 L58.24 108.9 L58.26 106.9 L58.27 105 L58.29 103.1 L58.3 101.1 L60.06 102 L61.82 102.9 L63.59 103.8 L65.35 104.7 L67.11 105.6 L68.87 106.5 L70.64 107.4 L72.4 108.2 L72.39 110.2 L72.37 112.1 L72.36 114 L72.34 116 L72.33 117.9 L72.31 119.8 L72.3 121.7 Z " />
<path stroke="rgb(0,0,0)" stroke-opacity="1" fill="rgb(238,200,200)" fill-opacity="1" id="ll1_1_" d="M121.4 102 L119.5 101.1 L117.7 100.3 L115.8 99.38 L113.9 98.5 L112 97.62 L110.1 96.74 L108.2 95.86 L106.4 94.98 L104.5 94.1 L102.6 93.22 L100.7 92.34 L98.83 91.46 L96.95 90.58 L95.07 89.7 L93.18 88.82 L91.3 87.94 L91.3 85.84 L91.3 83.74 L91.3 81.64 L91.3 79.54 L91.3 77.44 L91.3 75.34 L91.3 73.24 L91.3 71.14 L91.3 69.04 L91.3 66.94 L91.3 64.84 L91.3 62.74 L91.3 60.64 L91.3 58.54 L93.18 59.42 L95.07 60.31 L96.95 61.2 L98.83 62.08 L100.7 62.97 L102.6 63.86 L104.5 64.74 L106.4 65.63 L108.2 66.52 L110.1 67.4 L112 68.29 L113.9 69.17 L115.8 70.06 L117.7 70.95 L119.5 71.83 L121.4 72.72 L121.4 74.81 L121.4 76.9 L121.4 79 L121.4 81.09 L121.4 83.18 L121.4 85.27 L121.4 87.37 L121.4 89.46 L121.4 91.55 L121.4 93.64 L121.4 95.74 L121.4 97.83 L121.4 99.92 L121.4 102 Z " />
<path stroke="rgb(0,0,0)" stroke-opacity="1" fill="rgb(255,255,255)" fill-opacity="1" id="cl1_1_" d="M41.6 121.3 L40.05 120 L38.49 118.7 L36.94 117.4 L35.38 116.1 L33.83 114.8 L32.27 113.5 L30.72 112.2 L29.16 110.9 L27.61 109.6 L26.05 108.3 L24.5 107 L22.94 105.7 L21.39 104.4 L19.83 103.1 L18.28 101.8 L18.66 99.73 L20.21 101 L21.76 102.4 L23.31 103.7 L24.87 105 L26.42 106.3 L27.97 107.6 L29.52 109 L31.07 110.3 L32.62 111.6 L34.17 112.9 L35.72 114.2 L37.27 115.6 L38.82 116.9 L40.37 118.2 L41.92 119.5 L41.6 121.3 Z " />
<path stroke="rgb(0,0,0)" stroke-opacity="1" fill="rgb(255,255,255)" fill-opacity="1" id="a5_2_" d="M197.9 -50.75 L196 -51.59 L194.1 -52.44 L192.2 -53.28 L190.3 -54.12 L188.4 -54.96 L186.6 -55.81 L184.7 -56.65 L182.8 -57.49 L180.9 -58.34 L179 -59.18 L177.1 -60.02 L175.2 -60.86 L173.4 -61.71 L171.5 -62.55 L171.5 -60.6 L171.5 -58.64 L171.5 -56.69 L171.5 -54.73 L171.5 -52.78 L171.5 -50.83 L171.5 -48.87 L171.5 -46.92 L171.5 -44.97 L171.5 -43.01 L171.5 -41.06 L171.5 -39.1 L171.5 -37.15 L173.4 -36.31 L175.2 -35.46 L177.1 -34.62 L179 -33.78 L180.9 -32.94 L182.8 -32.09 L184.7 -31.25 L186.6 -30.41 L188.4 -29.56 L190.3 -28.72 L192.2 -27.88 L194.1 -27.04 L196 -26.19 L197.9 -25.35 L197.9 -27.3 L197.9 -29.26 L197.9 -31.21 L197.9 -33.17 L197.9 -35.12 L197.9 -37.07 L197.9 -39.03 L197.9 -40.98 L197.9 -42.93 L197.9 -44.89 L197.9 -46.84 L197.9 -48.8 L197.9 -50.75 Z " />
<path stroke="rgb(0,0,0)" stroke-opacity="1" fill="rgb(255,255,255)" fill-opacity="1" id="a6_2_" d="M64.85 51.45 L63.08 50.62 L61.3 49.79 L59.52 48.96 L57.75 48.13 L55.97 47.3 L54.2 46.47 L52.42 45.64 L50.64 44.81 L48.87 43.99 L47.09 43.16 L45.31 42.33 L43.54 41.5 L41.76 40.67 L39.98 39.84 L38.21 39.01 L36.43 38.18 L34.65 37.35 L34.65 35.25 L34.65 33.15 L34.65 31.05 L34.65 28.95 L34.65 26.85 L34.65 24.75 L34.65 22.65 L34.65 20.55 L34.65 18.45 L34.65 16.35 L36.42 17.18 L38.2 18.01 L39.97 18.84 L41.74 19.67 L43.51 20.5 L45.28 21.33 L47.05 22.16 L48.82 22.99 L50.59 23.81 L52.36 24.64 L54.13 25.47 L55.9 26.3 L57.67 27.13 L59.44 27.96 L61.21 28.79 L62.98 29.62 L64.75 30.45 L64.76 32.36 L64.77 34.27 L64.78 36.18 L64.79 38.09 L64.8 40 L64.81 41.9 L64.82 43.81 L64.83 45.72 L64.84 47.63 L64.84 49.54 L64.85 51.45 Z " />
<path stroke="rgb(0,0,0)" stroke-opacity="1" fill="rgb(148,200,200)" fill-opacity="1" id="rtr1_2_" d="M39.23 -117.6 L40.12 -119.4 L41.02 -121.3 L41.92 -123.2 L42.82 -125 L43.72 -126.9 L44.62 -128.8 L46.76 -128.7 L48.89 -128.7 L51.03 -128.7 L53.17 -128.7 L55.3 -128.7 L54.41 -126.8 L53.51 -124.9 L52.61 -123 L51.71 -121.1 L50.81 -119.3 L49.91 -117.4 L47.77 -117.4 L45.64 -117.5 L43.5 -117.5 L41.36 -117.5 L39.23 -117.6 Z " />
<path stroke="rgb(0,0,0)" stroke-opacity="1" fill="rgb(238,200,200)" fill-opacity="1" id="sg1_2_" d="M86.09 111.7 L84.51 110.8 L82.94 109.9 L81.36 108.9 L79.78 108 L78.2 107.1 L76.62 106.1 L76.75 104 L76.88 101.9 L77.01 99.83 L77.15 97.74 L78.74 98.65 L80.34 99.57 L81.93 100.5 L83.53 101.4 L85.13 102.3 L86.72 103.2 L86.56 105.4 L86.41 107.5 L86.25 109.6 L86.09 111.7 Z " />
<path stroke="rgb(0,0,0)" stroke-opacity="1" fill="rgb(255,255,255)" fill-opacity="1" id="a12_2_" d="M-34.82 68.47 L-36.71 67.66 L-38.59 66.84 L-40.47 66.02 L-42.36 65.21 L-44.24 64.39 L-46.12 63.57 L-46.14 61.64 L-46.16 59.71 L-46.17 57.77 L-46.19 55.84 L-46.21 53.91 L-46.22 51.97 L-44.36 52.79 L-42.49 53.61 L-40.62 54.42 L-38.76 55.24 L-36.89 56.06 L-35.02 56.87 L-34.99 58.81 L-34.96 60.74 L-34.92 62.67 L-34.89 64.61 L-34.86 66.54 L-34.82 68.47 Z " />
<path stroke="rgb(0,0,0)" stroke-opacity="1" fill="rgb(255,255,255)" fill-opacity="1" id="secscl1_2_" d="M-28.44 45.26 L-30.21 44.42 L-31.99 43.57 L-33.77 42.72 L-35.55 41.88 L-37.33 41.03 L-39.1 40.18 L-40.88 39.34 L-42.66 38.49 L-42.66 36.58 L-42.66 34.66 L-42.66 32.74 L-42.66 30.83 L-42.66 28.91 L-42.66 27 L-42.66 25.08 L-42.66 23.17 L-42.66 21.25 L-42.66 19.34 L-42.66 17.42 L-42.66 15.5 L-42.66 13.59 L-42.66 11.67 L-42.66 9.757 L-42.66 7.842 L-42.66 5.926 L-42.66 4.01 L-42.66 2.095 L-42.66 0.179 L-42.66 -1.737 L-42.66 -3.652 L-42.66 -5.568 L-42.66 -7.484 L-42.66 -9.399 L-42.66 -11.31 L-42.66 -13.23 L-42.66 -15.15 L-42.66 -17.06 L-42.66 -18.98 L-42.66 -20.89 L-42.66 -22.81 L-42.66 -24.72 L-42.66 -26.64 L-42.66 -28.56 L-42.66 -30.47 L-42.66 -32.39 L-42.66 -34.3 L-42.66 -36.22 L-42.66 -38.13 L-40.88 -37.28 L-39.1 -36.42 L-37.33 -35.56 L-35.55 -34.7 L-33.77 -33.84 L-31.99 -32.98 L-30.21 -32.12 L-28.44 -31.26 L-28.44 -29.35 L-28.44 -27.44 L-28.44 -25.52 L-28.44 -23.61 L-28.44 -21.7 L-28.44 -19.79 L-28.44 -17.87 L-28.44 -15.96 L-28.44 -14.05 L-28.44 -12.13 L-28.44 -10.22 L-28.44 -8.306 L-28.44 -6.393 L-28.44 -4.479 L-28.44 -2.566 L-28.44 -0.653 L-28.44 1.26 L-28.44 3.173 L-28.44 5.087 L-28.44 7 L-28.44 8.913 L-28.44 10.83 L-28.44 12.74 L-28.44 14.65 L-28.44 16.57 L-28.44 18.48 L-28.44 20.39 L-28.44 22.31 L-28.44 24.22 L-28.44 26.13 L-28.44 28.05 L-28.44 29.96 L-28.44 31.87 L-28.44 33.79 L-28.44 35.7 L-28.44 37.61 L-28.44 39.52 L-28.44 41.44 L-28.44 43.35 L-28.44 45.26 Z " />
<path stroke="rgb(0,0,0)" stroke-opacity="1" fill="rgb(255,255,255)" fill-opacity="1" id="a7_1_" d="M141.3 -84.25 L139.4 -85.05 L137.6 -85.85 L135.7 -86.65 L133.8 -87.45 L132 -88.25 L130.1 -89.05 L128.3 -89.85 L126.4 -90.65 L124.5 -91.45 L122.7 -92.25 L120.8 -93.05 L120.8 -95.03 L120.8 -97.02 L120.8 -99 L120.8 -101 L120.8 -103 L120.8 -105 L122.7 -104.1 L124.5 -103.3 L126.4 -102.5 L128.3 -101.7 L130.1 -100.9 L132 -100 L133.8 -99.22 L135.7 -98.4 L137.6 -97.59 L139.4 -96.77 L141.3 -95.95 L141.3 -94 L141.3 -92.05 L141.3 -90.1 L141.3 -88.15 L141.3 -86.2 L141.3 -84.25 Z " />
<path stroke="rgb(0,0,0)" stroke-opacity="1" fill="rgb(255,255,255)" fill-opacity="1" id="a8_1_" d="M141.2 -69.95 L139.3 -70.76 L137.5 -71.57 L135.6 -72.38 L133.7 -73.19 L131.9 -74 L130 -74.8 L128.2 -75.61 L126.3 -76.42 L124.4 -77.23 L122.6 -78.04 L120.7 -78.85 L120.7 -80.82 L120.7 -82.78 L120.7 -84.75 L120.7 -86.72 L120.7 -88.68 L120.7 -90.65 L122.6 -89.85 L124.4 -89.05 L126.3 -88.25 L128.2 -87.45 L130.1 -86.65 L131.9 -85.85 L133.8 -85.05 L135.7 -84.25 L137.6 -83.45 L139.4 -82.65 L141.3 -81.85 L141.3 -79.87 L141.3 -77.88 L141.2 -75.9 L141.2 -73.92 L141.2 -71.93 L141.2 -69.95 Z " />
<path stroke="rgb(0,0,0)" stroke-opacity="1" fill="rgb(255,255,255)" fill-opacity="1" id="a9_1_" d="M134.2 -61.55 L132.3 -62.35 L130.4 -63.15 L128.5 -63.95 L126.5 -64.75 L124.6 -65.55 L122.7 -66.35 L120.8 -67.15 L120.8 -68.95 L120.8 -70.75 L120.7 -72.55 L120.7 -74.35 L120.7 -76.15 L122.6 -75.34 L124.5 -74.52 L126.4 -73.71 L128.4 -72.89 L130.3 -72.08 L132.2 -71.26 L134.1 -70.45 L134.1 -68.23 L134.2 -66 L134.2 -63.77 L134.2 -61.55 Z " />
<path stroke="rgb(0,0,0)" stroke-opacity="1" fill="rgb(255,255,255)" fill-opacity="1" id="a17_1_" d="M34.5 57.65 L32.73 56.71 L30.95 55.78 L29.18 54.84 L27.41 53.9 L25.64 52.97 L23.86 52.03 L22.09 51.1 L20.32 50.16 L18.55 49.22 L16.77 48.29 L15 47.35 L15 45.33 L15 43.32 L15 41.3 L15 39.28 L15 37.27 L15 35.25 L16.77 36.19 L18.55 37.12 L20.32 38.06 L22.09 39 L23.86 39.93 L25.64 40.87 L27.41 41.8 L29.18 42.74 L30.95 43.68 L32.73 44.61 L34.5 45.55 L34.5 47.57 L34.5 49.58 L34.5 51.6 L34.5 53.62 L34.5 55.63 L34.5 57.65 Z " />
<path stroke="rgb(0,0,0)" stroke-opacity="1" fill="rgb(255,255,255)" fill-opacity="1" id="a16_1_" d="M34.5 75.24 L32.73 74.34 L30.95 73.44 L29.18 72.54 L27.41 71.64 L25.64 70.74 L23.86 69.84 L22.09 68.94 L20.32 68.04 L18.55 67.14 L16.77 66.24 L15 65.34 L15 63.37 L15 61.41 L15 59.44 L15 57.47 L15 55.51 L15 53.54 L16.77 54.44 L18.55 55.34 L20.32 56.24 L22.09 57.14 L23.86 58.04 L25.64 58.94 L27.41 59.84 L29.18 60.74 L30.95 61.64 L32.73 62.54 L34.5 63.44 L34.5 65.41 L34.5 67.37 L34.5 69.34 L34.5 71.31 L34.5 73.27 L34.5 75.24 Z " />
<path stroke="rgb(0,0,0)" stroke-opacity="1" fill="rgb(236,216,157)" fill-opacity="1" id="scltrs1_1_" d="M-28.4 45.05 L-30.23 44.09 L-32.06 43.14 L-33.89 42.18 L-35.71 41.22 L-37.54 40.26 L-39.37 39.31 L-41.2 38.35 L-41.2 36.27 L-41.2 34.18 L-41.2 32.1 L-41.2 30.02 L-41.2 27.93 L-41.2 25.85 L-39.37 26.81 L-37.54 27.76 L-35.71 28.72 L-33.89 29.68 L-32.06 30.64 L-30.23 31.59 L-28.4 32.55 L-28.4 34.63 L-28.4 36.72 L-28.4 38.8 L-28.4 40.88 L-28.4 42.97 L-28.4 45.05 Z " />
<path stroke="rgb(0,0,0)" stroke-opacity="1" fill="rgb(244,227,211)" fill-opacity="1" id="a15_1_" d="M119.3 -3.75 L117.4 -4.613 L115.6 -5.475 L113.7 -6.338 L111.8 -7.2 L110 -8.063 L108.1 -8.925 L106.3 -9.788 L104.4 -10.65 L104.4 -12.57 L104.4 -14.49 L104.4 -16.41 L104.4 -18.33 L104.4 -20.25 L106.3 -19.38 L108.1 -18.5 L110 -17.63 L111.8 -16.75 L113.7 -15.88 L115.6 -15 L117.4 -14.13 L119.3 -13.25 L119.3 -11.35 L119.3 -9.45 L119.3 -7.55 L119.3 -5.65 L119.3 -3.75 Z " />
<path stroke="rgb(0,0,0)" stroke-opacity="1" fill="rgb(244,227,211)" fill-opacity="1" id="a14_1_" d="M117.2 4.75 L115.4 3.893 L113.5 3.036 L111.7 2.179 L109.8 1.321 L108 0.4643 L106.1 -0.3929 L104.3 -1.25 L104.3 -3.183 L104.4 -5.117 L104.4 -7.05 L106.2 -6.164 L108.1 -5.279 L109.9 -4.393 L111.7 -3.507 L113.5 -2.621 L115.4 -1.736 L117.2 -0.85 L117.2 1.017 L117.2 2.883 L117.2 4.75 Z " />
<path stroke="rgb(0,0,0)" stroke-opacity="1" fill="rgb(244,227,211)" fill-opacity="1" id="a13_1_" d="M115 24.65 L113.2 23.82 L111.4 22.98 L109.6 22.15 L107.9 21.32 L106.1 20.48 L104.3 19.65 L104.3 17.59 L104.3 15.52 L104.3 13.46 L104.3 11.4 L104.3 9.337 L104.3 7.275 L104.3 5.212 L104.3 3.15 L106.1 3.983 L107.9 4.817 L109.6 5.65 L111.4 6.483 L113.2 7.317 L115 8.15 L115 10.21 L115 12.27 L115 14.34 L115 16.4 L115 18.46 L115 20.52 L115 22.59 L115 24.65 Z " />
<path stroke="rgb(0,0,0)" stroke-opacity="1" fill="rgb(200,200,200)" fill-opacity="1" id="a1_2_" d="M-110.5 -63.45 L-112.2 -64.33 L-114 -65.2 L-115.7 -66.08 L-117.5 -66.96 L-119.2 -67.84 L-121 -68.71 L-122.7 -69.59 L-124.5 -70.47 L-126.2 -71.35 L-128 -72.22 L-129.8 -73.1 L-131.5 -73.98 L-133.3 -74.85 L-135 -75.73 L-136.8 -76.61 L-138.5 -77.49 L-140.3 -78.36 L-142 -79.24 L-143.8 -80.12 L-145.5 -81 L-147.3 -81.87 L-149 -82.75 L-149 -84.61 L-149 -86.47 L-149 -88.33 L-149 -90.19 L-149 -92.05 L-147.3 -91.17 L-145.5 -90.29 L-143.8 -89.4 L-142 -88.52 L-140.3 -87.64 L-138.5 -86.76 L-136.8 -85.88 L-135 -85 L-133.3 -84.11 L-131.5 -83.23 L-129.8 -82.35 L-128 -81.47 L-126.2 -80.59 L-124.5 -79.7 L-122.7 -78.82 L-121 -77.94 L-119.2 -77.06 L-117.5 -76.18 L-115.7 -75.3 L-114 -74.41 L-112.2 -73.53 L-110.5 -72.65 L-110.5 -70.81 L-110.5 -68.97 L-110.5 -67.13 L-110.5 -65.29 L-110.5 -63.45 Z " />
<path stroke="rgb(0,0,0)" stroke-opacity="1" fill="rgb(200,200,200)" fill-opacity="1" id="a4_2_" d="M-89.9 -98.93 L-91.69 -99.82 L-93.49 -100.7 L-95.28 -101.6 L-97.08 -102.5 L-98.87 -103.4 L-100.7 -104.3 L-102.5 -105.2 L-104.3 -106.1 L-106 -107 L-107.8 -107.9 L-109.6 -108.8 L-111.4 -109.7 L-113.2 -110.5 L-115 -111.4 L-116.8 -112.3 L-118.6 -113.2 L-120.4 -114.1 L-122.2 -115 L-124 -115.9 L-125.8 -116.8 L-127.6 -117.7 L-129.4 -118.6 L-131.2 -119.5 L-133 -120.4 L-134.7 -121.3 L-136.5 -122.2 L-138.3 -123.1 L-140.1 -124 L-141.9 -124.9 L-143.7 -125.7 L-145.5 -126.6 L-147.3 -127.5 L-149.1 -128.4 L-149.1 -130.4 L-149.1 -132.5 L-149.1 -134.5 L-149.1 -136.5 L-149.1 -138.5 L-149.1 -140.5 L-149.1 -142.5 L-147.3 -141.6 L-145.5 -140.7 L-143.7 -139.9 L-141.9 -139 L-140.1 -138.1 L-138.3 -137.2 L-136.5 -136.3 L-134.7 -135.4 L-133 -134.5 L-131.2 -133.6 L-129.4 -132.7 L-127.6 -131.8 L-125.8 -130.9 L-124 -130.1 L-122.2 -129.2 L-120.4 -128.3 L-118.6 -127.4 L-116.8 -126.5 L-115 -125.6 L-113.2 -124.7 L-111.4 -123.8 L-109.6 -122.9 L-107.8 -122 L-106 -121.1 L-104.3 -120.3 L-102.5 -119.4 L-100.7 -118.5 L-98.87 -117.6 L-97.08 -116.7 L-95.28 -115.8 L-93.49 -114.9 L-91.69 -114 L-89.9 -113.1 L-89.9 -111.1 L-89.9 -109.1 L-89.9 -107 L-89.9 -105 L-89.9 -103 L-89.9 -101 L-89.9 -98.93 Z " />
<path stroke="rgb(0,0,0)" stroke-opacity="1" fill="rgb(200,200,200)" fill-opacity="1" id="a2_1_" d="M-109.1 -77.55 L-110.9 -78.45 L-112.7 -79.36 L-114.6 -80.26 L-116.4 -81.17 L-118.2 -82.07 L-120 -82.98 L-121.8 -83.88 L-123.6 -84.79 L-125.5 -85.69 L-127.3 -86.6 L-129.1 -87.5 L-130.9 -88.4 L-132.7 -89.31 L-134.6 -90.21 L-136.4 -91.12 L-138.2 -92.02 L-140 -92.93 L-141.8 -93.83 L-143.6 -94.74 L-145.5 -95.64 L-147.3 -96.55 L-149.1 -97.45 L-149.1 -99.39 L-149.1 -101.3 L-149.1 -103.3 L-149.1 -105.2 L-149.1 -107.2 L-147.3 -106.2 L-145.5 -105.3 L-143.6 -104.4 L-141.8 -103.5 L-140 -102.6 L-138.2 -101.7 L-136.4 -100.8 L-134.6 -99.88 L-132.7 -98.97 L-130.9 -98.06 L-129.1 -97.15 L-127.3 -96.24 L-125.5 -95.33 L-123.6 -94.42 L-121.8 -93.51 L-120 -92.6 L-118.2 -91.7 L-116.4 -90.79 L-114.6 -89.88 L-112.7 -88.97 L-110.9 -88.06 L-109.1 -87.15 L-109.1 -85.23 L-109.1 -83.31 L-109.1 -81.39 L-109.1 -79.47 L-109.1 -77.55 Z " />
<path stroke="rgb(0,0,0)" stroke-opacity="1" fill="rgb(200,200,200)" fill-opacity="1" id="a3_1_" d="M-105.8 -91.15 L-107.6 -92.04 L-109.4 -92.93 L-111.2 -93.83 L-113 -94.72 L-114.8 -95.61 L-116.6 -96.5 L-118.4 -97.39 L-120.2 -98.28 L-122 -99.17 L-123.8 -100.1 L-125.6 -101 L-127.4 -101.8 L-129.3 -102.7 L-131.1 -103.6 L-132.9 -104.5 L-134.7 -105.4 L-136.5 -106.3 L-138.3 -107.2 L-140.1 -108.1 L-141.9 -109 L-143.7 -109.9 L-145.5 -110.8 L-147.3 -111.7 L-149.1 -112.5 L-149.1 -114.6 L-149.1 -116.7 L-149.1 -118.8 L-149.1 -120.9 L-149.1 -123 L-147.3 -122.1 L-145.5 -121.2 L-143.7 -120.3 L-141.9 -119.4 L-140.1 -118.5 L-138.3 -117.6 L-136.5 -116.7 L-134.7 -115.8 L-132.9 -114.9 L-131.1 -114 L-129.3 -113.1 L-127.4 -112.3 L-125.6 -111.4 L-123.8 -110.5 L-122 -109.6 L-120.2 -108.7 L-118.4 -107.8 L-116.6 -106.9 L-114.8 -106 L-113 -105.1 L-111.2 -104.2 L-109.4 -103.3 L-107.6 -102.4 L-105.8 -101.5 L-105.8 -99.47 L-105.8 -97.39 L-105.8 -95.31 L-105.8 -93.23 L-105.8 -91.15 Z " />
<path stroke="rgb(0,0,0)" stroke-opacity="1" fill="rgb(244,227,211)" fill-opacity="1" id="a11_1_" d="M-15.3 70.85 L-17.12 70.04 L-18.94 69.23 L-20.76 68.42 L-22.57 67.61 L-24.39 66.79 L-26.21 65.98 L-28.03 65.17 L-29.85 64.36 L-31.67 63.55 L-33.49 62.74 L-35.3 61.93 L-37.12 61.12 L-38.94 60.31 L-40.76 59.49 L-42.58 58.68 L-44.4 57.87 L-46.21 57.06 L-48.03 56.25 L-49.85 55.44 L-51.67 54.63 L-53.49 53.82 L-55.31 53.01 L-57.13 52.19 L-58.94 51.38 L-60.76 50.57 L-62.58 49.76 L-64.4 48.95 L-64.45 47 L-64.5 45.05 L-62.68 45.86 L-60.86 46.68 L-59.04 47.49 L-57.23 48.31 L-55.41 49.12 L-53.59 49.94 L-51.77 50.75 L-49.95 51.57 L-48.13 52.38 L-46.31 53.2 L-44.5 54.01 L-42.68 54.83 L-40.86 55.64 L-39.04 56.46 L-37.22 57.27 L-35.4 58.09 L-33.59 58.9 L-31.77 59.72 L-29.95 60.53 L-28.13 61.35 L-26.31 62.16 L-24.49 62.98 L-22.67 63.79 L-20.86 64.61 L-19.04 65.42 L-17.22 66.24 L-15.4 67.05 L-15.35 68.95 L-15.3 70.85 Z " />
<path stroke="rgb(0,0,0)" stroke-opacity="1" fill="rgb(244,200,200)" fill-opacity="1" id="fus1_1_" d="M-95.51 56.94 L-97.31 56.18 L-99.11 55.42 L-100.9 54.66 L-102.7 53.9 L-104.5 53.14 L-104.5 51.28 L-104.5 49.42 L-104.5 47.56 L-104.5 45.7 L-104.5 43.84 L-102.7 44.6 L-100.9 45.36 L-99.11 46.12 L-97.31 46.88 L-95.51 47.64 L-95.51 49.5 L-95.51 51.36 L-95.51 53.22 L-95.51 55.08 L-95.51 56.94 Z " />
<path stroke="rgb(0,0,0)" stroke-opacity="1" fill="rgb(244,200,200)" fill-opacity="1" id="fus2_1_" d="M-91.5 55.95 L-93.3 55.17 L-95.1 54.39 L-96.9 53.61 L-98.7 52.83 L-100.5 52.05 L-100.5 50.17 L-100.4 48.29 L-100.4 46.41 L-100.3 44.53 L-100.3 42.65 L-98.54 43.41 L-96.78 44.17 L-95.02 44.93 L-93.26 45.69 L-91.5 46.45 L-91.5 48.35 L-91.5 50.25 L-91.5 52.15 L-91.5 54.05 L-91.5 55.95 Z " />
<path stroke="rgb(0,0,0)" stroke-opacity="1" fill="rgb(244,200,200)" fill-opacity="1" id="fus3_1_" d="M-100.6 61.45 L-102.4 60.69 L-104.2 59.93 L-105.9 59.17 L-107.7 58.41 L-109.5 57.65 L-109.5 55.79 L-109.5 53.93 L-109.5 52.07 L-109.5 50.21 L-109.5 48.35 L-107.7 49.11 L-105.9 49.87 L-104.1 50.63 L-102.3 51.39 L-100.5 52.15 L-100.5 54.01 L-100.5 55.87 L-100.6 57.73 L-100.6 59.59 L-100.6 61.45 Z " />
<path stroke="rgb(0,0,0)" stroke-opacity="1" fill="rgb(244,200,200)" fill-opacity="1" id="fus4_1_" d="M-91.5 65.45 L-93.3 64.67 L-95.1 63.89 L-96.9 63.11 L-98.7 62.33 L-100.5 61.55 L-100.5 59.69 L-100.5 57.83 L-100.5 55.97 L-100.5 54.11 L-100.5 52.25 L-98.7 53.03 L-96.9 53.81 L-95.1 54.59 L-93.3 55.37 L-91.5 56.15 L-91.5 58.01 L-91.5 59.87 L-91.5 61.73 L-91.5 63.59 L-91.5 65.45 Z " />
<path stroke="rgb(0,0,0)" stroke-opacity="1" fill="rgb(173,200,200)" fill-opacity="1" id="swap1_1_" d="M37.99 -109.2 L36.17 -110.1 L34.35 -111.1 L32.53 -112 L30.71 -113 L28.89 -114 L27.07 -114.9 L25.25 -115.9 L23.43 -116.8 L21.61 -117.8 L19.79 -118.8 L19.8 -120.8 L19.81 -122.8 L19.82 -124.8 L19.83 -126.8 L19.85 -128.8 L19.86 -130.8 L19.87 -132.8 L19.88 -134.8 L19.89 -136.9 L21.71 -135.9 L23.53 -134.9 L25.35 -133.9 L27.17 -133 L28.99 -132 L30.81 -131 L32.63 -130.1 L34.45 -129.1 L36.27 -128.1 L38.09 -127.2 L38.08 -125.2 L38.07 -123.2 L38.06 -121.2 L38.05 -119.2 L38.03 -117.2 L38.02 -115.2 L38.01 -113.2 L38 -111.2 L37.99 -109.2 Z " />
<path stroke="rgb(0,0,0)" stroke-opacity="1" fill="rgb(173,200,200)" fill-opacity="1" id="swap3_1_" d="M20.8 -127.3 L18.98 -128.2 L17.16 -129.2 L15.34 -130.1 L13.52 -131.1 L11.7 -132.1 L9.88 -133 L8.06 -134 L6.24 -134.9 L4.42 -135.9 L2.6 -136.9 L2.611 -138.9 L2.622 -140.9 L2.633 -142.9 L2.644 -144.9 L2.656 -146.9 L2.667 -148.9 L2.678 -150.9 L2.689 -152.9 L2.7 -155 L4.52 -154 L6.34 -153 L8.16 -152.1 L9.98 -151.1 L11.8 -150.2 L13.62 -149.2 L15.44 -148.2 L17.26 -147.3 L19.08 -146.3 L20.9 -145.4 L20.89 -143.3 L20.88 -141.3 L20.87 -139.3 L20.86 -137.3 L20.84 -135.3 L20.83 -133.3 L20.82 -131.3 L20.81 -129.3 L20.8 -127.3 Z " />
<path stroke="rgb(0,0,0)" stroke-opacity="1" fill="rgb(173,200,200)" fill-opacity="1" id="swap2_1_" d="M3.71 -122.6 L1.89 -123.6 L0.06972 -124.6 L-1.75 -125.5 L-3.57 -126.5 L-5.39 -127.4 L-7.21 -128.4 L-9.03 -129.4 L-10.85 -130.3 L-12.67 -131.3 L-14.49 -132.2 L-14.48 -134.3 L-14.47 -136.3 L-14.46 -138.3 L-14.45 -140.3 L-14.43 -142.3 L-14.42 -144.3 L-14.41 -146.3 L-14.4 -148.3 L-14.39 -150.3 L-12.56 -149.4 L-10.73 -148.4 L-8.9 -147.5 L-7.07 -146.5 L-5.24 -145.5 L-3.41 -144.6 L-1.58 -143.6 L0.2497 -142.7 L2.08 -141.7 L3.91 -140.7 L3.887 -138.7 L3.865 -136.7 L3.843 -134.7 L3.821 -132.7 L3.799 -130.7 L3.776 -128.7 L3.754 -126.7 L3.732 -124.7 L3.71 -122.6 Z " />
<path stroke="rgb(0,0,0)" stroke-opacity="1" fill="rgb(173,200,200)" fill-opacity="1" id="swap4_1_" d="M20.7 -104.8 L18.88 -105.8 L17.06 -106.8 L15.24 -107.8 L13.42 -108.8 L11.6 -109.7 L9.78 -110.7 L7.96 -111.7 L6.14 -112.7 L4.32 -113.7 L2.5 -114.6 L2.511 -116.6 L2.522 -118.6 L2.533 -120.6 L2.544 -122.6 L2.556 -124.6 L2.567 -126.6 L2.578 -128.6 L2.589 -130.6 L2.6 -132.6 L4.43 -131.7 L6.26 -130.7 L8.09 -129.7 L9.92 -128.8 L11.75 -127.8 L13.58 -126.8 L15.41 -125.9 L17.24 -124.9 L19.07 -123.9 L20.9 -122.9 L20.88 -120.9 L20.86 -118.9 L20.83 -116.9 L20.81 -114.9 L20.79 -112.9 L20.77 -110.9 L20.74 -108.9 L20.72 -106.9 L20.7 -104.8 Z " />
<path stroke="rgb(0,0,0)" stroke-opacity="1" fill="rgb(244,227,211)" fill-opacity="1" id="a10_5_" d="M40 -46.65 L38.24 -45.63 L36.48 -44.6 L34.71 -43.57 L32.95 -42.55 L31.19 -41.53 L29.42 -40.5 L27.66 -39.48 L25.9 -38.45 L24.14 -37.43 L22.37 -36.4 L20.61 -35.38 L18.85 -34.35 L17.09 -33.33 L15.32 -32.3 L13.56 -31.28 L11.8 -30.25 L10.04 -31.28 L8.275 -32.3 L6.512 -33.33 L4.75 -34.35 L2.987 -35.38 L1.225 -36.4 L-0.5375 -37.43 L-2.3 -38.45 L-4.063 -39.48 L-5.825 -40.5 L-7.587 -41.53 L-9.35 -42.55 L-11.11 -43.57 L-12.87 -44.6 L-14.64 -45.63 L-16.4 -46.65 L-14.64 -47.68 L-12.87 -48.7 L-11.11 -49.72 L-9.35 -50.75 L-7.587 -51.77 L-5.825 -52.8 L-4.063 -53.82 L-2.3 -54.85 L-0.5375 -55.87 L1.225 -56.9 L2.987 -57.92 L4.75 -58.95 L6.512 -59.97 L8.275 -61 L10.04 -62.02 L11.8 -63.05 L13.56 -62.02 L15.32 -61 L17.09 -59.97 L18.85 -58.95 L20.61 -57.92 L22.37 -56.9 L24.14 -55.87 L25.9 -54.85 L27.66 -53.82 L29.42 -52.8 L31.19 -51.77 L32.95 -50.75 L34.71 -49.72 L36.48 -48.7 L38.24 -47.68 L40 -46.65 Z " />
<path stroke="rgb(0,0,0)" stroke-opacity="1" fill="rgb(244,227,211)" fill-opacity="1" id="a10_4_" d="M40.5 -11.85 L40.5 -13.85 L40.5 -15.85 L40.5 -17.85 L40.5 -19.85 L40.5 -21.85 L40.5 -23.85 L40.5 -25.85 L40.5 -27.85 L40.5 -29.85 L40.5 -31.85 L40.5 -33.85 L40.5 -35.85 L40.5 -37.85 L40.5 -39.85 L40.5 -41.85 L40.5 -43.85 L40.5 -45.85 L38.74 -44.83 L36.98 -43.8 L35.21 -42.78 L33.45 -41.75 L31.69 -40.73 L29.92 -39.7 L28.16 -38.68 L26.4 -37.65 L24.64 -36.62 L22.87 -35.6 L21.11 -34.57 L19.35 -33.55 L17.59 -32.52 L15.82 -31.5 L14.06 -30.47 L12.3 -29.45 L12.3 -27.44 L12.3 -25.44 L12.3 -23.43 L12.3 -21.43 L12.3 -19.42 L12.3 -17.42 L12.3 -15.41 L12.3 -13.41 L12.3 -11.4 L12.3 -9.397 L12.3 -7.392 L12.3 -5.387 L12.3 -3.382 L12.3 -1.376 L12.3 0.6289 L12.3 2.634 L12.3 4.639 L12.3 6.645 L12.3 8.65 L13.96 7.444 L15.62 6.238 L17.28 5.032 L18.94 3.826 L20.59 2.621 L22.25 1.415 L23.91 0.2088 L25.57 -0.9971 L27.23 -2.203 L28.89 -3.409 L30.55 -4.615 L32.21 -5.821 L33.86 -7.026 L35.52 -8.232 L37.18 -9.438 L38.84 -10.64 L40.5 -11.85 Z " />
<path stroke="rgb(0,0,0)" stroke-opacity="1" fill="rgb(244,227,211)" fill-opacity="1" id="a10_3_" d="M-16.8 -45.85 L-16.8 -43.85 L-16.8 -41.85 L-16.8 -39.85 L-16.8 -37.85 L-16.8 -35.85 L-16.8 -33.85 L-16.8 -31.85 L-16.8 -29.85 L-16.8 -27.85 L-16.8 -25.85 L-16.8 -23.85 L-16.8 -21.85 L-16.8 -19.85 L-16.8 -17.85 L-16.8 -15.85 L-16.8 -13.85 L-16.8 -11.85 L-15.14 -10.64 L-13.48 -9.438 L-11.82 -8.232 L-10.16 -7.026 L-8.506 -5.821 L-6.847 -4.615 L-5.188 -3.409 L-3.529 -2.203 L-1.871 -0.9971 L-0.2118 0.2088 L1.447 1.415 L3.106 2.621 L4.765 3.826 L6.424 5.032 L8.082 6.238 L9.741 7.444 L11.4 8.65 L11.4 6.645 L11.4 4.639 L11.4 2.634 L11.4 0.6289 L11.4 -1.376 L11.4 -3.382 L11.4 -5.387 L11.4 -7.392 L11.4 -9.397 L11.4 -11.4 L11.4 -13.41 L11.4 -15.41 L11.4 -17.42 L11.4 -19.42 L11.4 -21.43 L11.4 -23.43 L11.4 -25.44 L11.4 -27.44 L11.4 -29.45 L9.637 -30.47 L7.875 -31.5 L6.112 -32.52 L4.35 -33.55 L2.587 -34.57 L0.825 -35.6 L-0.9375 -36.62 L-2.7 -37.65 L-4.462 -38.68 L-6.225 -39.7 L-7.987 -40.73 L-9.75 -41.75 L-11.51 -42.78 L-13.27 -43.8 L-15.04 -44.83 L-16.8 -45.85 Z " />
<path stroke="rgb(0,0,0)" stroke-opacity="1" fill="rgb(200,200,200)" fill-opacity="1" id="circ1_5_" d="M-62.55 14.33 L-64.13 15.25 L-65.71 16.17 L-67.29 17.09 L-68.87 18.01 L-70.45 18.93 L-72.03 18.01 L-73.61 17.09 L-75.19 16.17 L-76.77 15.25 L-78.35 14.33 L-76.77 13.41 L-75.19 12.49 L-73.61 11.57 L-72.03 10.65 L-70.45 9.732 L-68.87 10.65 L-67.29 11.57 L-65.71 12.49 L-64.13 13.41 L-62.55 14.33 Z " />
<path stroke="rgb(0,0,0)" stroke-opacity="1" fill="rgb(200,200,200)" fill-opacity="1" id="circ1_4_" d="M-62.45 24.13 L-62.45 22.23 L-62.45 20.33 L-62.45 18.43 L-62.45 16.53 L-62.45 14.63 L-64.03 15.53 L-65.61 16.43 L-67.19 17.33 L-68.77 18.23 L-70.35 19.13 L-70.35 21.27 L-70.35 23.41 L-70.35 25.55 L-70.35 27.69 L-70.35 29.83 L-68.77 28.69 L-67.19 27.55 L-65.61 26.41 L-64.03 25.27 L-62.45 24.13 Z " />
<path stroke="rgb(0,0,0)" stroke-opacity="1" fill="rgb(200,200,200)" fill-opacity="1" id="circ1_3_" d="M-78.55 14.63 L-78.55 16.53 L-78.55 18.43 L-78.55 20.33 L-78.55 22.23 L-78.55 24.13 L-76.97 25.27 L-75.39 26.41 L-73.81 27.55 L-72.23 28.69 L-70.65 29.83 L-70.65 27.69 L-70.65 25.55 L-70.65 23.41 L-70.65 21.27 L-70.65 19.13 L-72.23 18.23 L-73.81 17.33 L-75.39 16.43 L-76.97 15.53 L-78.55 14.63 Z " />
<path stroke="rgb(0,0,0)" stroke-opacity="1" fill="rgb(200,200,200)" fill-opacity="1" id="circ2_5_" d="M-98.55 -42.23 L-100.1 -41.31 L-101.7 -40.39 L-103.3 -39.47 L-104.9 -38.55 L-106.5 -37.63 L-108 -38.55 L-109.6 -39.47 L-111.2 -40.39 L-112.8 -41.31 L-114.4 -42.23 L-112.8 -43.13 L-111.2 -44.03 L-109.6 -44.93 L-108 -45.83 L-106.5 -46.73 L-104.9 -45.83 L-103.3 -44.93 L-101.7 -44.03 L-100.1 -43.13 L-98.55 -42.23 Z " />
<path stroke="rgb(0,0,0)" stroke-opacity="1" fill="rgb(200,200,200)" fill-opacity="1" id="circ2_4_" d="M-98.45 -32.43 L-98.45 -34.33 L-98.45 -36.23 L-98.45 -38.13 L-98.45 -40.03 L-98.45 -41.93 L-100 -41.01 L-101.6 -40.09 L-103.2 -39.17 L-104.8 -38.25 L-106.4 -37.33 L-106.4 -35.21 L-106.4 -33.09 L-106.4 -30.97 L-106.4 -28.85 L-106.4 -26.73 L-104.8 -27.87 L-103.2 -29.01 L-101.6 -30.15 L-100 -31.29 L-98.45 -32.43 Z " />
<path stroke="rgb(0,0,0)" stroke-opacity="1" fill="rgb(200,200,200)" fill-opacity="1" id="circ2_3_" d="M-114.6 -41.93 L-114.6 -40.03 L-114.6 -38.13 L-114.6 -36.23 L-114.6 -34.33 L-114.6 -32.43 L-113 -31.29 L-111.4 -30.15 L-109.8 -29.01 L-108.2 -27.87 L-106.7 -26.73 L-106.7 -28.85 L-106.7 -30.97 L-106.7 -33.09 L-106.7 -35.21 L-106.7 -37.33 L-108.2 -38.25 L-109.8 -39.17 L-111.4 -40.09 L-113 -41.01 L-114.6 -41.93 Z " />
<path stroke="rgb(0,0,0)" stroke-opacity="1" fill="rgb(148,200,200)" fill-opacity="1" id="bb1" d="M105.6 -57.37 L104.6 -59.12 L103.6 -60.86 L102.7 -62.61 L101.7 -64.36 L100.7 -66.1 L99.75 -67.85 L98.79 -69.59 L97.82 -71.34 L96.85 -73.09 L95.88 -74.83 L94.91 -76.58 L93.95 -78.32 L92.98 -80.07 L92.01 -81.82 L91.04 -83.56 L90.07 -85.31 L89.1 -87.05 L87.08 -87.33 L85.06 -87.61 L83.04 -87.89 L81.01 -88.17 L78.99 -88.45 L76.97 -88.73 L74.94 -89.01 L72.92 -89.28 L70.9 -89.56 L68.87 -89.84 L66.85 -90.12 L64.83 -90.4 L63.62 -88.75 L62.42 -87.09 L61.21 -85.44 L60.01 -83.79 L58.8 -82.13 L57.6 -80.48 L56.39 -78.83 L55.19 -77.17 L53.98 -75.52 L52.78 -73.87 L51.57 -72.21 L50.37 -70.56 L49.16 -68.91 L47.96 -67.25 L46.76 -65.6 L46.69 -63.58 L46.62 -61.55 L46.54 -59.53 L46.47 -57.5 L46.4 -55.47 L46.33 -53.45 L46.26 -51.42 L46.19 -49.4 L46.12 -47.37 L46.05 -45.35 L45.98 -43.32 L45.91 -41.3 L45.84 -39.27 L45.77 -37.25 L45.7 -35.22 L45.63 -33.2 L45.56 -31.17 L45.49 -29.14 L45.42 -27.12 L46.39 -25.37 L47.36 -23.63 L48.33 -21.88 L49.3 -20.13 L50.26 -18.39 L51.23 -16.64 L52.2 -14.9 L53.17 -13.15 L54.14 -11.4 L55.11 -9.659 L56.07 -7.913 L57.04 -6.167 L58.01 -4.421 L58.98 -2.675 L59.95 -0.9286 L60.91 0.8174 L61.88 2.563 L63.92 2.852 L65.96 3.141 L67.99 3.429 L70.03 3.718 L72.07 4.007 L74.1 4.295 L76.14 4.584 L78.17 4.873 L80.21 5.161 L82.25 5.45 L84.28 5.739 L86.32 6.027 L87.53 4.374 L88.73 2.721 L89.94 1.068 L91.14 -0.5855 L92.35 -2.239 L93.55 -3.892 L94.75 -5.545 L95.96 -7.198 L97.16 -8.851 L98.37 -10.5 L99.57 -12.16 L100.8 -13.81 L102 -15.46 L103.2 -17.12 L104.4 -18.77 L104.5 -20.8 L104.5 -22.83 L104.6 -24.87 L104.6 -26.9 L104.7 -28.93 L104.8 -30.96 L104.8 -32.99 L104.9 -35.02 L104.9 -37.05 L105 -39.09 L105.1 -41.12 L105.1 -43.15 L105.2 -45.18 L105.3 -47.21 L105.3 -49.24 L105.4 -51.28 L105.4 -53.31 L105.5 -55.34 L105.6 -57.37 Z " />
<path stroke="rgb(0,0,0)" stroke-opacity="1" fill="rgb(236,216,157)" fill-opacity="1" id="scltrs1" d="M-161.9 2.95 L-163.1 4.503 L-164.3 6.056 L-165.6 7.608 L-166.8 9.161 L-168 10.71 L-169.2 12.27 L-170.5 13.82 L-171.7 15.37 L-172.9 16.93 L-174.1 18.48 L-175.4 20.03 L-176.6 21.58 L-177.8 23.14 L-179 24.69 L-180.3 26.24 L-181.5 27.79 L-182.7 29.35 L-183.9 30.9 L-185.2 32.45 L-186.4 34.01 L-187.6 35.56 L-188.8 37.11 L-190.1 38.66 L-191.3 40.22 L-192.5 41.77 L-193.7 43.32 L-195 44.88 L-196.2 46.43 L-197.4 47.98 L-198.7 49.53 L-199.9 51.09 L-201.1 52.64 L-202.3 54.19 L-203.6 55.74 L-204.8 57.3 L-206 58.85 L-204.2 59.69 L-202.4 60.53 L-200.6 61.37 L-198.8 62.21 L-197 63.05 L-195.2 63.89 L-193.4 64.74 L-191.6 65.58 L-189.8 66.42 L-188 67.26 L-186.2 68.1 L-184.4 68.94 L-182.6 69.78 L-180.8 70.62 L-179 71.46 L-177.2 72.3 L-175.4 73.14 L-173.6 73.98 L-171.8 74.83 L-170 75.67 L-168.2 76.51 L-166.4 77.35 L-164.6 78.19 L-162.8 79.03 L-161 79.87 L-159.2 80.71 L-157.4 81.55 L-155.6 82.39 L-153.8 83.23 L-152 84.07 L-150.2 84.92 L-148.4 85.76 L-146.6 86.6 L-144.8 87.44 L-143 88.28 L-141.2 89.12 L-139.4 89.96 L-137.6 90.8 L-135.8 91.64 L-134 92.48 L-132.2 93.32 L-130.4 94.16 L-128.6 95.01 L-126.8 95.85 L-125 96.69 L-123.2 97.53 L-121.4 98.37 L-119.6 99.21 L-117.8 100.1 L-118.6 98.22 L-119.5 96.39 L-120.3 94.55 L-121.1 92.72 L-122 90.89 L-122.8 89.06 L-123.6 87.23 L-124.5 85.39 L-125.3 83.56 L-126.1 81.73 L-127 79.9 L-127.8 78.07 L-128.6 76.23 L-129.4 74.4 L-130.3 72.57 L-131.1 70.74 L-131.9 68.9 L-132.8 67.07 L-133.6 65.24 L-134.4 63.41 L-135.3 61.58 L-136.1 59.74 L-136.9 57.91 L-137.8 56.08 L-138.6 54.25 L-139.4 52.42 L-140.3 50.58 L-141.1 48.75 L-141.9 46.92 L-142.8 45.09 L-143.6 43.26 L-144.4 41.42 L-145.3 39.59 L-146.1 37.76 L-146.9 35.93 L-147.8 34.1 L-148.6 32.26 L-149.4 30.43 L-150.3 28.6 L-151.1 26.77 L-151.9 24.93 L-152.7 23.1 L-153.6 21.27 L-154.4 19.44 L-155.2 17.61 L-156.1 15.77 L-156.9 13.94 L-157.7 12.11 L-158.6 10.28 L-159.4 8.446 L-160.2 6.614 L-161.1 4.782 L-161.9 2.95 Z " />
<path stroke="rgb(0,0,0)" stroke-opacity="1" fill="rgb(255,255,255)" fill-opacity="1" id="a5" d="M-70.53 134.3 L-70.64 136.7 L-70.95 138.8 L-71.46 140.8 L-72.16 142.7 L-73.05 144.4 L-74.1 145.8 L-75.31 147.2 L-76.67 148.3 L-78.18 149.2 L-79.82 150 L-81.58 150.5 L-83.46 150.8 L-85.45 150.9 L-87.53 150.9 L-89.7 150.5 L-91.94 150 L-94.26 149.2 L-96.63 148.2 L-98.42 147.4 L-100.2 146.4 L-101.9 145.3 L-103.6 144.1 L-105.2 142.8 L-106.8 141.5 L-108.3 140.1 L-109.8 138.6 L-111.2 137 L-112.6 135.4 L-113.9 133.7 L-115.1 132 L-116.2 130.3 L-117.3 128.5 L-118.3 126.7 L-119.2 124.9 L-120 123 L-120.7 121.2 L-121.3 119.3 L-121.8 117.4 L-122.2 115.6 L-122.5 113.7 L-122.7 111.9 L-122.7 110 L-122.6 107.7 L-122.3 105.6 L-121.8 103.6 L-121.1 101.7 L-120.2 100 L-119.2 98.56 L-118 97.25 L-116.6 96.12 L-115.1 95.19 L-113.4 94.45 L-111.7 93.91 L-109.8 93.58 L-107.8 93.45 L-105.7 93.54 L-103.6 93.85 L-101.3 94.39 L-99 95.15 L-96.63 96.15 L-94.85 97.04 L-93.09 98.03 L-91.37 99.12 L-89.7 100.3 L-88.06 101.6 L-86.48 102.9 L-84.94 104.3 L-83.46 105.8 L-82.04 107.4 L-80.69 109 L-79.4 110.7 L-78.18 112.4 L-77.04 114.1 L-75.97 115.9 L-74.99 117.7 L-74.1 119.5 L-73.29 121.4 L-72.58 123.2 L-71.97 125.1 L-71.46 127 L-71.06 128.8 L-70.77 130.7 L-70.59 132.5 L-70.53 134.3 Z " />
<path stroke="rgb(0,0,0)" stroke-opacity="1" fill="rgb(255,255,255)" fill-opacity="1" id="a17" d="M-96 -133.5 L-97.21 -132 L-98.42 -130.5 L-99.62 -129 L-100.8 -127.4 L-102 -125.9 L-103.2 -124.4 L-104.5 -122.8 L-105.7 -121.3 L-106.9 -119.8 L-108.1 -118.2 L-109.3 -116.7 L-110.5 -115.2 L-111.7 -113.7 L-109.9 -112.8 L-108 -111.9 L-106.2 -111.1 L-104.3 -110.2 L-102.5 -109.3 L-100.6 -108.5 L-98.77 -107.6 L-96.92 -106.7 L-95.08 -105.9 L-93.23 -105 L-91.38 -104.1 L-89.54 -103.3 L-87.69 -102.4 L-85.84 -101.5 L-83.99 -100.7 L-82.15 -99.81 L-80.3 -98.95 L-81.13 -100.8 L-81.95 -102.6 L-82.78 -104.4 L-83.61 -106.2 L-84.43 -108.1 L-85.26 -109.9 L-86.08 -111.7 L-86.91 -113.5 L-87.74 -115.3 L-88.56 -117.2 L-89.39 -119 L-90.22 -120.8 L-91.04 -122.6 L-91.87 -124.4 L-92.69 -126.3 L-93.52 -128.1 L-94.35 -129.9 L-95.17 -131.7 L-96 -133.5 Z " />
<path stroke="rgb(0,0,0)" stroke-opacity="1" fill="rgb(255,255,255)" fill-opacity="1" id="a16" d="M-96 -75.56 L-94.79 -77.09 L-93.58 -78.62 L-92.38 -80.15 L-91.17 -81.68 L-89.96 -83.22 L-88.75 -84.75 L-87.55 -86.28 L-86.34 -87.81 L-85.13 -89.34 L-83.92 -90.87 L-82.72 -92.4 L-81.51 -93.93 L-80.3 -95.46 L-82.15 -96.32 L-83.99 -97.18 L-85.84 -98.04 L-87.69 -98.9 L-89.54 -99.76 L-91.38 -100.6 L-93.23 -101.5 L-95.08 -102.3 L-96.92 -103.2 L-98.77 -104 L-100.6 -104.9 L-102.5 -105.8 L-104.3 -106.6 L-106.2 -107.5 L-108 -108.3 L-109.9 -109.2 L-111.7 -110.1 L-110.9 -108.2 L-110 -106.4 L-109.2 -104.6 L-108.4 -102.8 L-107.6 -101 L-106.7 -99.17 L-105.9 -97.35 L-105.1 -95.54 L-104.3 -93.72 L-103.4 -91.9 L-102.6 -90.09 L-101.8 -88.27 L-101 -86.46 L-100.1 -84.64 L-99.31 -82.82 L-98.48 -81.01 L-97.65 -79.19 L-96.83 -77.38 L-96 -75.56 Z " />
<path stroke="rgb(0,0,0)" stroke-opacity="1" fill="rgb(173,200,200)" fill-opacity="1" id="swap2" d="M-57.09 -65.05 L-57.34 -62.93 L-58.07 -61.22 L-59.21 -59.95 L-60.71 -59.14 L-62.51 -58.84 L-64.55 -59.07 L-66.79 -59.85 L-68.55 -60.82 L-70.19 -62.04 L-71.71 -63.46 L-73.06 -65.05 L-74.22 -66.77 L-75.18 -68.57 L-75.89 -70.41 L-76.34 -72.25 L-76.49 -74.05 L-76.24 -76.14 L-75.51 -77.83 L-74.37 -79.11 L-72.88 -79.92 L-71.07 -80.24 L-69.03 -80.02 L-66.79 -79.25 L-65.04 -78.28 L-63.39 -77.07 L-61.88 -75.65 L-60.52 -74.08 L-59.36 -72.37 L-58.41 -70.57 L-57.69 -68.73 L-57.25 -66.87 L-57.09 -65.05 Z " />
<path stroke="rgb(0,0,0)" stroke-opacity="1" fill="rgb(173,200,200)" fill-opacity="1" id="swap4" d="M-33.4 -47.44 L-33.65 -45.32 L-34.38 -43.61 L-35.52 -42.34 L-37.02 -41.54 L-38.82 -41.23 L-40.86 -41.46 L-43.1 -42.24 L-44.85 -43.21 L-46.5 -44.43 L-48.01 -45.86 L-49.37 -47.45 L-50.53 -49.16 L-51.49 -50.96 L-52.2 -52.8 L-52.65 -54.64 L-52.8 -56.44 L-52.55 -58.56 L-51.82 -60.27 L-50.68 -61.54 L-49.18 -62.34 L-47.38 -62.65 L-45.34 -62.42 L-43.1 -61.64 L-41.35 -60.67 L-39.7 -59.46 L-38.19 -58.05 L-36.83 -56.47 L-35.67 -54.76 L-34.71 -52.97 L-34 -51.12 L-33.55 -49.27 L-33.4 -47.44 Z " />
<path stroke="rgb(0,0,0)" stroke-opacity="1" fill="rgb(173,200,200)" fill-opacity="1" id="swap3" d="M-33.4 -62.86 L-33.65 -60.74 L-34.38 -59.03 L-35.52 -57.76 L-37.02 -56.96 L-38.82 -56.65 L-40.86 -56.88 L-43.1 -57.66 L-44.85 -58.63 L-46.5 -59.85 L-48.01 -61.27 L-49.37 -62.86 L-50.53 -64.58 L-51.49 -66.38 L-52.2 -68.22 L-52.65 -70.06 L-52.8 -71.86 L-52.55 -73.95 L-51.82 -75.64 L-50.68 -76.92 L-49.18 -77.73 L-47.38 -78.05 L-45.34 -77.84 L-43.1 -77.06 L-41.35 -76.09 L-39.7 -74.88 L-38.19 -73.47 L-36.83 -71.89 L-35.67 -70.18 L-34.71 -68.38 L-34 -66.54 L-33.55 -64.69 L-33.4 -62.86 Z " />
<path stroke="rgb(0,0,0)" stroke-opacity="1" fill="rgb(173,200,200)" fill-opacity="1" id="swap1" d="M-9.31 -46.25 L-9.564 -44.13 L-10.29 -42.42 L-11.43 -41.15 L-12.92 -40.35 L-14.73 -40.05 L-16.77 -40.27 L-19.01 -41.05 L-20.76 -42.02 L-22.41 -43.24 L-23.92 -44.67 L-25.28 -46.26 L-26.44 -47.97 L-27.39 -49.77 L-28.11 -51.61 L-28.55 -53.45 L-28.71 -55.25 L-28.46 -57.34 L-27.73 -59.04 L-26.59 -60.31 L-25.09 -61.12 L-23.29 -61.44 L-21.25 -61.23 L-19.01 -60.45 L-17.25 -59.48 L-15.61 -58.26 L-14.09 -56.84 L-12.74 -55.25 L-11.58 -53.53 L-10.62 -51.73 L-9.912 -49.89 L-9.465 -48.05 L-9.31 -46.25 Z " />
<path stroke="rgb(0,0,0)" stroke-opacity="1" fill="rgb(255,255,255)" fill-opacity="1" id="secscl1" d="M1.083 117.8 L-0.7141 116.9 L-2.511 116.1 L-4.308 115.3 L-6.104 114.4 L-7.901 113.6 L-9.698 112.8 L-11.49 111.9 L-13.29 111.1 L-15.09 110.2 L-16.89 109.4 L-18.68 108.6 L-20.48 107.7 L-22.28 106.9 L-24.07 106.1 L-25.32 107.7 L-26.57 109.2 L-27.82 110.8 L-29.06 112.4 L-30.31 114 L-31.56 115.6 L-32.81 117.2 L-34.06 118.8 L-35.3 120.3 L-36.55 121.9 L-35.77 123.7 L-34.99 125.4 L-34.21 127.1 L-33.43 128.8 L-32.65 130.5 L-31.87 132.2 L-31.09 134 L-30.31 135.7 L-29.53 137.4 L-28.75 139.1 L-27.97 140.8 L-27.19 142.5 L-26.41 144.3 L-25.63 146 L-24.85 147.7 L-24.07 149.4 L-22.28 150.2 L-20.48 151.1 L-18.68 151.9 L-16.89 152.7 L-15.09 153.6 L-13.29 154.4 L-11.49 155.2 L-9.698 156 L-7.901 156.9 L-6.104 157.7 L-4.308 158.5 L-2.511 159.4 L-0.7141 160.2 L1.083 161 L2.331 159.4 L3.579 157.9 L4.827 156.3 L6.075 154.7 L7.323 153.1 L8.571 151.6 L9.819 150 L11.07 148.4 L12.32 146.8 L13.56 145.3 L12.78 143.5 L12 141.8 L11.22 140.1 L10.44 138.4 L9.663 136.7 L8.883 134.9 L8.103 133.2 L7.323 131.5 L6.543 129.8 L5.763 128.1 L4.983 126.4 L4.203 124.6 L3.423 122.9 L2.643 121.2 L1.863 119.5 L1.083 117.8 Z " />
</g>
</g>
</svg>
