<!DOCTYPE svg>
<svg xmlns="http://www.w3.org/2000/svg" xmlns:xlink="http://www.w3.org/1999/xlink" width="1080" height="1080">
<g transform="translate(540.000000,540.000000)">
<g transform="scale(2,2)">
<path stroke="rgb(0,0,0)" stroke-opacity="1" fill="rgb(148,200,200)" fill-opacity="1" id="bb1_2_" d="M-168.7 -54.8 L-166.7 -54.6 L-164.7 -54.41 L-162.7 -54.22 L-160.7 -54.02 L-158.8 -53.83 L-156.8 -53.64 L-154.8 -53.44 L-152.8 -53.25 L-150.8 -53.06 L-148.9 -52.86 L-146.9 -52.67 L-144.9 -52.48 L-142.9 -52.28 L-140.9 -52.09 L-139 -51.9 L-137 -51.7 L-135 -51.51 L-133 -51.31 L-131 -51.12 L-129.1 -50.93 L-127.1 -50.73 L-125.1 -50.54 L-123.1 -50.35 L-121.1 -50.15 L-119.2 -49.96 L-117.2 -49.77 L-115.2 -49.57 L-113.2 -49.38 L-111.2 -49.19 L-110.6 -47.28 L-110 -45.37 L-109.4 -43.46 L-108.7 -41.55 L-108.1 -39.64 L-107.5 -37.72 L-106.8 -35.81 L-106.2 -33.9 L-105.6 -31.99 L-105 -30.08 L-104.3 -28.17 L-103.7 -26.26 L-103.1 -24.35 L-102.5 -22.44 L-101.8 -20.53 L-101.2 -18.62 L-100.6 -16.71 L-99.95 -14.8 L-99.32 -12.89 L-98.7 -10.98 L-98.07 -9.073 L-97.44 -7.163 L-96.82 -5.252 L-96.19 -3.342 L-95.56 -1.432 L-94.94 0.4781 L-94.31 2.388 L-96.29 2.195 L-98.27 2.001 L-100.2 1.808 L-102.2 1.614 L-104.2 1.421 L-106.2 1.227 L-108.2 1.034 L-110.2 0.84 L-112.1 0.6465 L-114.1 0.453 L-116.1 0.2594 L-118.1 0.0659 L-120.1 -0.1276 L-122 -0.3212 L-124 -0.5147 L-126 -0.7082 L-128 -0.9017 L-130 -1.095 L-131.9 -1.289 L-133.9 -1.482 L-135.9 -1.676 L-137.9 -1.869 L-139.9 -2.063 L-141.8 -2.256 L-143.8 -2.45 L-145.8 -2.643 L-147.8 -2.837 L-149.8 -3.031 L-151.7 -3.224 L-152.4 -5.134 L-153 -7.044 L-153.6 -8.955 L-154.2 -10.86 L-154.9 -12.77 L-155.5 -14.68 L-156.1 -16.6 L-156.7 -18.51 L-157.4 -20.42 L-158 -22.33 L-158.6 -24.24 L-159.3 -26.15 L-159.9 -28.06 L-160.5 -29.97 L-161.1 -31.88 L-161.8 -33.79 L-162.4 -35.7 L-163 -37.61 L-163.6 -39.52 L-164.3 -41.43 L-164.9 -43.34 L-165.5 -45.25 L-166.2 -47.16 L-166.8 -49.07 L-167.4 -50.98 L-168 -52.89 L-168.7 -54.8 Z " />
<path stroke="rgb(0,0,0)" stroke-opacity="1" fill="rgb(236,216,157)" fill-opacity="1" id="pr2_1_" d="M72.7 104.6 L70.94 103.7 L69.18 102.8 L67.41 101.9 L65.65 101 L63.89 100.1 L62.13 99.25 L60.36 98.35 L58.6 97.45 L58.63 95.52 L58.66 93.59 L58.69 91.66 L58.71 89.74 L58.74 87.81 L58.77 85.88 L58.8 83.95 L60.55 84.84 L62.3 85.73 L64.05 86.61 L65.8 87.5 L67.55 88.39 L69.3 89.28 L71.05 90.16 L72.8 91.05 L72.79 92.99 L72.77 94.94 L72.76 96.88 L72.74 98.82 L72.73 100.8 L72.71 102.7 L72.7 104.6 Z " />
<path stroke="rgb(0,0,0)" stroke-opacity="1" fill="rgb(236,216,157)" fill-opacity="1" id="pr1_1_" d="M54.9 96.05 L53.15 95.15 L51.4 94.25 L49.65 93.35 L47.9 92.45 L46.15 91.55 L44.4 90.65 L42.65 89.75 L40.9 88.85 L40.91 86.92 L40.93 84.99 L40.94 83.06 L40.96 81.14 L40.97 79.21 L40.99 77.28 L41 75.35 L42.75 76.25 L44.5 77.15 L46.25 78.05 L48 78.95 L49.75 79.85 L51.5 80.75 L53.25 81.65 L55 82.55 L54.99 84.48 L54.97 86.41 L54.96 88.34 L54.94 90.26 L54.93 92.19 L54.91 94.12 L54.9 96.05 Z " />
<path stroke="rgb(0,0,0)" stroke-opacity="1" fill="rgb(236,216,157)" fill-opacity="1" id="pr3_1_" d="M54.6 113.6 L52.85 112.7 L51.1 111.8 L49.35 110.9 L47.6 110 L45.85 109.1 L44.1 108.1 L42.35 107.2 L40.6 106.3 L40.61 104.4 L40.63 102.5 L40.64 100.6 L40.66 98.64 L40.67 96.71 L40.69 94.78 L40.7 92.85 L42.45 93.75 L44.2 94.65 L45.95 95.55 L47.7 96.45 L49.45 97.35 L51.2 98.25 L52.95 99.15 L54.7 100.1 L54.69 102 L54.67 103.9 L54.66 105.8 L54.64 107.8 L54.63 109.7 L54.61 111.6 L54.6 113.6 Z " />
<path stroke="rgb(0,0,0)" stroke-opacity="1" fill="rgb(236,216,157)" fill-opacity="1" id="pr4_1_" d="M72.3 121.7 L70.54 120.9 L68.77 120 L67.01 119.1 L65.25 118.2 L63.49 117.3 L61.73 116.4 L59.96 115.5 L58.2 114.6 L58.21 112.7 L58.23 110.8 L58.24 108.9 L58.26 106.9 L58.27 105 L58.29 103.1 L58.3 101.1 L60.06 102 L61.82 102.9 L63.59 103.8 L65.35 104.7 L67.11 105.6 L68.87 106.5 L70.64 107.4 L72.4 108.2 L72.39 110.2 L72.37 112.1 L72.36 114 L72.34 116 L72.33 117.9 L72.31 119.8 L72.3 121.7 Z " />
<path stroke="rgb(0,0,0)" stroke-opacity="1" fill="rgb(238,200,200)" fill-opacity="1" id="ll1_1_" d="M230.7 193.8 L227.1 192.2 L223.6 190.5 L220 188.8 L216.4 187.1 L212.8 185.5 L209.2 183.8 L205.7 182.1 L202.1 180.5 L198.5 178.8 L194.9 177.1 L191.4 175.4 L187.8 173.8 L184.2 172.1 L180.6 170.4 L177.1 168.8 L173.5 167.1 L173.5 163.1 L173.5 159.1 L173.5 155.1 L173.5 151.1 L173.5 147.1 L173.5 143.1 L173.5 139.2 L173.5 135.2 L173.5 131.2 L173.5 127.2 L173.5 123.2 L173.5 119.2 L173.5 115.2 L173.5 111.2 L177.1 112.9 L180.6 114.6 L184.2 116.3 L187.8 118 L191.4 119.6 L194.9 121.3 L198.5 123 L202.1 124.7 L205.7 126.4 L209.2 128.1 L212.8 129.8 L216.4 131.4 L220 133.1 L223.6 134.8 L227.1 136.5 L230.7 138.2 L230.7 142.1 L230.7 146.1 L230.7 150.1 L230.7 154.1 L230.7 158.1 L230.7 162 L230.7 166 L230.7 170 L230.7 174 L230.7 177.9 L230.7 181.9 L230.7 185.9 L230.7 189.9 L230.7 193.8 Z " />
<path stroke="rgb(0,0,0)" stroke-opacity="1" fill="rgb(255,255,255)" fill-opacity="1" id="cl1_1_" d="M37.98 97.72 L37.07 99.53 L36.17 101.3 L35.27 103.1 L34.36 104.9 L33.46 106.8 L32.56 108.6 L31.65 110.4 L30.75 112.2 L29.85 114 L28.94 115.8 L28.04 117.6 L27.14 119.4 L26.23 121.2 L25.33 123 L24.43 124.8 L22.33 124.9 L23.26 123.1 L24.18 121.3 L25.1 119.5 L26.03 117.7 L26.95 115.9 L27.87 114.1 L28.8 112.3 L29.72 110.5 L30.64 108.7 L31.57 106.9 L32.49 105 L33.41 103.2 L34.34 101.4 L35.26 99.63 L36.18 97.82 L37.98 97.72 Z " />
<path stroke="rgb(0,0,0)" stroke-opacity="1" fill="rgb(255,255,255)" fill-opacity="1" id="a5_2_" d="M202.1 -50.75 L200.2 -51.59 L198.3 -52.44 L196.4 -53.28 L194.5 -54.12 L192.6 -54.96 L190.7 -55.81 L188.9 -56.65 L187 -57.49 L185.1 -58.34 L183.2 -59.18 L181.3 -60.02 L179.4 -60.86 L177.5 -61.71 L175.7 -62.55 L175.7 -60.6 L175.7 -58.64 L175.7 -56.69 L175.7 -54.73 L175.7 -52.78 L175.7 -50.83 L175.7 -48.87 L175.7 -46.92 L175.7 -44.97 L175.7 -43.01 L175.7 -41.06 L175.7 -39.1 L175.7 -37.15 L177.5 -36.31 L179.4 -35.46 L181.3 -34.62 L183.2 -33.78 L185.1 -32.94 L187 -32.09 L188.9 -31.25 L190.7 -30.41 L192.6 -29.56 L194.5 -28.72 L196.4 -27.88 L198.3 -27.04 L200.2 -26.19 L202.1 -25.35 L202.1 -27.3 L202.1 -29.26 L202.1 -31.21 L202.1 -33.17 L202.1 -35.12 L202.1 -37.07 L202.1 -39.03 L202.1 -40.98 L202.1 -42.93 L202.1 -44.89 L202.1 -46.84 L202.1 -48.8 L202.1 -50.75 Z " />
<path stroke="rgb(0,0,0)" stroke-opacity="1" fill="rgb(255,255,255)" fill-opacity="1" id="a6_2_" d="M83.3 51.45 L81.52 50.62 L79.75 49.79 L77.97 48.96 L76.19 48.13 L74.42 47.3 L72.64 46.47 L70.86 45.64 L69.09 44.81 L67.31 43.99 L65.54 43.16 L63.76 42.33 L61.98 41.5 L60.21 40.67 L58.43 39.84 L56.65 39.01 L54.88 38.18 L53.1 37.35 L53.1 35.25 L53.1 33.15 L53.1 31.05 L53.1 28.95 L53.1 26.85 L53.1 24.75 L53.1 22.65 L53.1 20.55 L53.1 18.45 L53.1 16.35 L54.87 17.18 L56.64 18.01 L58.41 18.84 L60.18 19.67 L61.95 20.5 L63.72 21.33 L65.49 22.16 L67.26 22.99 L69.04 23.81 L70.81 24.64 L72.58 25.47 L74.35 26.3 L76.12 27.13 L77.89 27.96 L79.66 28.79 L81.43 29.62 L83.2 30.45 L83.21 32.36 L83.22 34.27 L83.23 36.18 L83.24 38.09 L83.25 40 L83.25 41.9 L83.26 43.81 L83.27 45.72 L83.28 47.63 L83.29 49.54 L83.3 51.45 Z " />
<path stroke="rgb(0,0,0)" stroke-opacity="1" fill="rgb(148,200,200)" fill-opacity="1" id="rtr1_2_" d="M64.83 -118 L63.84 -116.2 L62.86 -114.4 L61.88 -112.6 L60.89 -110.8 L59.91 -109 L58.93 -107.2 L56.8 -107.3 L54.67 -107.4 L52.54 -107.5 L50.41 -107.6 L48.28 -107.8 L49.27 -109.6 L50.25 -111.4 L51.24 -113.3 L52.22 -115.1 L53.2 -116.9 L54.19 -118.8 L56.32 -118.6 L58.44 -118.5 L60.57 -118.3 L62.7 -118.2 L64.83 -118 Z " />
<path stroke="rgb(0,0,0)" stroke-opacity="1" fill="rgb(238,200,200)" fill-opacity="1" id="sg1_2_" d="M75.63 128.7 L76.4 127 L77.18 125.3 L77.95 123.7 L78.72 122 L79.5 120.4 L80.27 118.7 L82.37 118.6 L84.47 118.5 L86.56 118.5 L88.66 118.4 L87.9 120.1 L87.14 121.8 L86.39 123.4 L85.63 125.1 L84.87 126.8 L84.12 128.5 L81.99 128.5 L79.87 128.6 L77.75 128.6 L75.63 128.7 Z " />
<path stroke="rgb(0,0,0)" stroke-opacity="1" fill="rgb(255,255,255)" fill-opacity="1" id="a12_2_" d="M-36.32 69.97 L-38.2 69.15 L-40.08 68.33 L-41.97 67.52 L-43.85 66.7 L-45.73 65.88 L-47.62 65.07 L-47.63 63.13 L-47.65 61.2 L-47.67 59.27 L-47.68 57.33 L-47.7 55.4 L-47.72 53.47 L-45.85 54.28 L-43.98 55.1 L-42.12 55.92 L-40.25 56.73 L-38.38 57.55 L-36.52 58.37 L-36.48 60.3 L-36.45 62.23 L-36.42 64.17 L-36.38 66.1 L-36.35 68.03 L-36.32 69.97 Z " />
<path stroke="rgb(0,0,0)" stroke-opacity="1" fill="rgb(255,255,255)" fill-opacity="1" id="secscl1_2_" d="M-31.75 25.85 L-32.69 25.4 L-33.63 24.96 L-34.57 24.51 L-35.51 24.06 L-36.45 23.61 L-37.4 23.16 L-38.34 22.72 L-39.28 22.27 L-39.28 21.25 L-39.28 20.24 L-39.28 19.23 L-39.28 18.21 L-39.28 17.2 L-39.28 16.18 L-39.28 15.17 L-39.28 14.16 L-39.28 13.14 L-39.28 12.13 L-39.28 11.11 L-39.28 10.1 L-39.28 9.085 L-39.28 8.071 L-39.28 7.057 L-39.28 6.043 L-39.28 5.028 L-39.28 4.014 L-39.28 3 L-39.28 1.986 L-39.28 0.9722 L-39.28 -0.04188 L-39.28 -1.056 L-39.28 -2.07 L-39.28 -3.084 L-39.28 -4.098 L-39.28 -5.112 L-39.28 -6.126 L-39.28 -7.14 L-39.28 -8.154 L-39.28 -9.169 L-39.28 -10.18 L-39.28 -11.2 L-39.28 -12.21 L-39.28 -13.22 L-39.28 -14.24 L-39.28 -15.25 L-39.28 -16.27 L-39.28 -17.28 L-39.28 -18.3 L-38.34 -17.84 L-37.4 -17.39 L-36.45 -16.93 L-35.51 -16.48 L-34.57 -16.02 L-33.63 -15.57 L-32.69 -15.11 L-31.75 -14.66 L-31.75 -13.65 L-31.75 -12.63 L-31.75 -11.62 L-31.75 -10.61 L-31.75 -9.595 L-31.75 -8.582 L-31.75 -7.569 L-31.75 -6.557 L-31.75 -5.544 L-31.75 -4.531 L-31.75 -3.518 L-31.75 -2.505 L-31.75 -1.493 L-31.75 -0.4798 L-31.75 0.533 L-31.75 1.546 L-31.75 2.559 L-31.75 3.571 L-31.75 4.584 L-31.75 5.597 L-31.75 6.61 L-31.75 7.623 L-31.75 8.635 L-31.75 9.648 L-31.75 10.66 L-31.75 11.67 L-31.75 12.69 L-31.75 13.7 L-31.75 14.71 L-31.75 15.72 L-31.75 16.74 L-31.75 17.75 L-31.75 18.76 L-31.75 19.78 L-31.75 20.79 L-31.75 21.8 L-31.75 22.81 L-31.75 23.83 L-31.75 24.84 L-31.75 25.85 Z " />
<path stroke="rgb(0,0,0)" stroke-opacity="1" fill="rgb(255,255,255)" fill-opacity="1" id="a7_1_" d="M141.3 -84.25 L139.4 -85.05 L137.6 -85.85 L135.7 -86.65 L133.8 -87.45 L132 -88.25 L130.1 -89.05 L128.3 -89.85 L126.4 -90.65 L124.5 -91.45 L122.7 -92.25 L120.8 -93.05 L120.8 -95.03 L120.8 -97.02 L120.8 -99 L120.8 -101 L120.8 -103 L120.8 -105 L122.7 -104.1 L124.5 -103.3 L126.4 -102.5 L128.3 -101.7 L130.1 -100.9 L132 -100 L133.8 -99.22 L135.7 -98.4 L137.6 -97.59 L139.4 -96.77 L141.3 -95.95 L141.3 -94 L141.3 -92.05 L141.3 -90.1 L141.3 -88.15 L141.3 -86.2 L141.3 -84.25 Z " />
<path stroke="rgb(0,0,0)" stroke-opacity="1" fill="rgb(255,255,255)" fill-opacity="1" id="a8_1_" d="M141.2 -69.95 L139.3 -70.76 L137.5 -71.57 L135.6 -72.38 L133.7 -73.19 L131.9 -74 L130 -74.8 L128.2 -75.61 L126.3 -76.42 L124.4 -77.23 L122.6 -78.04 L120.7 -78.85 L120.7 -80.82 L120.7 -82.78 L120.7 -84.75 L120.7 -86.72 L120.7 -88.68 L120.7 -90.65 L122.6 -89.85 L124.4 -89.05 L126.3 -88.25 L128.2 -87.45 L130.1 -86.65 L131.9 -85.85 L133.8 -85.05 L135.7 -84.25 L137.6 -83.45 L139.4 -82.65 L141.3 -81.85 L141.3 -79.87 L141.3 -77.88 L141.2 -75.9 L141.2 -73.92 L141.2 -71.93 L141.2 -69.95 Z " />
<path stroke="rgb(0,0,0)" stroke-opacity="1" fill="rgb(255,255,255)" fill-opacity="1" id="a9_1_" d="M134.2 -61.55 L132.3 -62.35 L130.4 -63.15 L128.5 -63.95 L126.5 -64.75 L124.6 -65.55 L122.7 -66.35 L120.8 -67.15 L120.8 -68.95 L120.8 -70.75 L120.7 -72.55 L120.7 -74.35 L120.7 -76.15 L122.6 -75.34 L124.5 -74.52 L126.4 -73.71 L128.4 -72.89 L130.3 -72.08 L132.2 -71.26 L134.1 -70.45 L134.1 -68.23 L134.2 -66 L134.2 -63.77 L134.2 -61.55 Z " />
<path stroke="rgb(0,0,0)" stroke-opacity="1" fill="rgb(255,255,255)" fill-opacity="1" id="a17_1_" d="M34.5 62.65 L32.73 61.71 L30.95 60.78 L29.18 59.84 L27.41 58.9 L25.64 57.97 L23.86 57.03 L22.09 56.1 L20.32 55.16 L18.55 54.22 L16.77 53.29 L15 52.35 L15 50.33 L15 48.32 L15 46.3 L15 44.28 L15 42.27 L15 40.25 L16.77 41.19 L18.55 42.12 L20.32 43.06 L22.09 44 L23.86 44.93 L25.64 45.87 L27.41 46.8 L29.18 47.74 L30.95 48.68 L32.73 49.61 L34.5 50.55 L34.5 52.57 L34.5 54.58 L34.5 56.6 L34.5 58.62 L34.5 60.63 L34.5 62.65 Z " />
<path stroke="rgb(0,0,0)" stroke-opacity="1" fill="rgb(255,255,255)" fill-opacity="1" id="a16_1_" d="M34.5 79.85 L32.73 78.95 L30.95 78.05 L29.18 77.15 L27.41 76.25 L25.64 75.35 L23.86 74.45 L22.09 73.55 L20.32 72.65 L18.55 71.75 L16.77 70.85 L15 69.95 L15 67.98 L15 66.02 L15 64.05 L15 62.08 L15 60.12 L15 58.15 L16.77 59.05 L18.55 59.95 L20.32 60.85 L22.09 61.75 L23.86 62.65 L25.64 63.55 L27.41 64.45 L29.18 65.35 L30.95 66.25 L32.73 67.15 L34.5 68.05 L34.5 70.02 L34.5 71.98 L34.5 73.95 L34.5 75.92 L34.5 77.88 L34.5 79.85 Z " />
<path stroke="rgb(0,0,0)" stroke-opacity="1" fill="rgb(236,216,157)" fill-opacity="1" id="scltrs1_1_" d="M-31.31 31.44 L-32.28 30.93 L-33.24 30.43 L-34.21 29.92 L-35.17 29.42 L-36.13 28.92 L-37.1 28.41 L-38.06 27.91 L-38.06 26.81 L-38.06 25.71 L-38.06 24.61 L-38.06 23.51 L-38.06 22.41 L-38.06 21.31 L-37.1 21.82 L-36.13 22.32 L-35.17 22.83 L-34.21 23.33 L-33.24 23.84 L-32.28 24.34 L-31.31 24.85 L-31.31 25.95 L-31.31 27.04 L-31.31 28.14 L-31.31 29.24 L-31.31 30.34 L-31.31 31.44 Z " />
<path stroke="rgb(0,0,0)" stroke-opacity="1" fill="rgb(244,227,211)" fill-opacity="1" id="a15_1_" d="M119.3 1.25 L117.4 0.3875 L115.6 -0.475 L113.7 -1.338 L111.8 -2.2 L110 -3.063 L108.1 -3.925 L106.3 -4.788 L104.4 -5.65 L104.4 -7.57 L104.4 -9.49 L104.4 -11.41 L104.4 -13.33 L104.4 -15.25 L106.3 -14.38 L108.1 -13.5 L110 -12.63 L111.8 -11.75 L113.7 -10.88 L115.6 -10 L117.4 -9.125 L119.3 -8.25 L119.3 -6.35 L119.3 -4.45 L119.3 -2.55 L119.3 -0.65 L119.3 1.25 Z " />
<path stroke="rgb(0,0,0)" stroke-opacity="1" fill="rgb(244,227,211)" fill-opacity="1" id="a14_1_" d="M117.2 9.75 L115.4 8.893 L113.5 8.036 L111.7 7.179 L109.8 6.321 L108 5.464 L106.1 4.607 L104.3 3.75 L104.3 1.817 L104.4 -0.1167 L104.4 -2.05 L106.2 -1.164 L108.1 -0.2786 L109.9 0.6071 L111.7 1.493 L113.5 2.379 L115.4 3.264 L117.2 4.15 L117.2 6.017 L117.2 7.883 L117.2 9.75 Z " />
<path stroke="rgb(0,0,0)" stroke-opacity="1" fill="rgb(244,227,211)" fill-opacity="1" id="a13_1_" d="M115 29.65 L113.2 28.82 L111.4 27.98 L109.6 27.15 L107.9 26.32 L106.1 25.48 L104.3 24.65 L104.3 22.59 L104.3 20.52 L104.3 18.46 L104.3 16.4 L104.3 14.34 L104.3 12.27 L104.3 10.21 L104.3 8.15 L106.1 8.983 L107.9 9.817 L109.6 10.65 L111.4 11.48 L113.2 12.32 L115 13.15 L115 15.21 L115 17.27 L115 19.34 L115 21.4 L115 23.46 L115 25.52 L115 27.59 L115 29.65 Z " />
<path stroke="rgb(0,0,0)" stroke-opacity="1" fill="rgb(200,200,200)" fill-opacity="1" id="a1_2_" d="M-110.5 -73.45 L-112.2 -74.33 L-114 -75.2 L-115.7 -76.08 L-117.5 -76.96 L-119.2 -77.84 L-121 -78.71 L-122.7 -79.59 L-124.5 -80.47 L-126.2 -81.35 L-128 -82.22 L-129.8 -83.1 L-131.5 -83.98 L-133.3 -84.85 L-135 -85.73 L-136.8 -86.61 L-138.5 -87.49 L-140.3 -88.36 L-142 -89.24 L-143.8 -90.12 L-145.5 -91 L-147.3 -91.87 L-149 -92.75 L-149 -94.61 L-149 -96.47 L-149 -98.33 L-149 -100.2 L-149 -102 L-147.3 -101.2 L-145.5 -100.3 L-143.8 -99.4 L-142 -98.52 L-140.3 -97.64 L-138.5 -96.76 L-136.8 -95.88 L-135 -95 L-133.3 -94.11 L-131.5 -93.23 L-129.8 -92.35 L-128 -91.47 L-126.2 -90.59 L-124.5 -89.7 L-122.7 -88.82 L-121 -87.94 L-119.2 -87.06 L-117.5 -86.18 L-115.7 -85.3 L-114 -84.41 L-112.2 -83.53 L-110.5 -82.65 L-110.5 -80.81 L-110.5 -78.97 L-110.5 -77.13 L-110.5 -75.29 L-110.5 -73.45 Z " />
<path stroke="rgb(0,0,0)" stroke-opacity="1" fill="rgb(200,200,200)" fill-opacity="1" id="a4_2_" d="M-89.9 -108.2 L-91.69 -109 L-93.49 -109.9 L-95.28 -110.8 L-97.08 -111.7 L-98.87 -112.6 L-100.7 -113.5 L-102.5 -114.4 L-104.3 -115.3 L-106 -116.2 L-107.8 -117.1 L-109.6 -118 L-111.4 -118.9 L-113.2 -119.8 L-115 -120.7 L-116.8 -121.6 L-118.6 -122.5 L-120.4 -123.3 L-122.2 -124.2 L-124 -125.1 L-125.8 -126 L-127.6 -126.9 L-129.4 -127.8 L-131.2 -128.7 L-133 -129.6 L-134.7 -130.5 L-136.5 -131.4 L-138.3 -132.3 L-140.1 -133.2 L-141.9 -134.1 L-143.7 -135 L-145.5 -135.9 L-147.3 -136.8 L-149.1 -137.7 L-149.1 -139.7 L-149.1 -141.7 L-149.1 -143.7 L-149.1 -145.7 L-149.1 -147.7 L-149.1 -149.7 L-149.1 -151.8 L-147.3 -150.9 L-145.5 -150 L-143.7 -149.1 L-141.9 -148.2 L-140.1 -147.3 L-138.3 -146.4 L-136.5 -145.5 L-134.7 -144.6 L-133 -143.7 L-131.2 -142.8 L-129.4 -142 L-127.6 -141.1 L-125.8 -140.2 L-124 -139.3 L-122.2 -138.4 L-120.4 -137.5 L-118.6 -136.6 L-116.8 -135.7 L-115 -134.8 L-113.2 -133.9 L-111.4 -133 L-109.6 -132.2 L-107.8 -131.3 L-106 -130.4 L-104.3 -129.5 L-102.5 -128.6 L-100.7 -127.7 L-98.87 -126.8 L-97.08 -125.9 L-95.28 -125 L-93.49 -124.1 L-91.69 -123.2 L-89.9 -122.3 L-89.9 -120.3 L-89.9 -118.3 L-89.9 -116.3 L-89.9 -114.2 L-89.9 -112.2 L-89.9 -110.2 L-89.9 -108.2 Z " />
<path stroke="rgb(0,0,0)" stroke-opacity="1" fill="rgb(200,200,200)" fill-opacity="1" id="a2_1_" d="M-109.1 -87.55 L-110.9 -88.45 L-112.7 -89.36 L-114.6 -90.26 L-116.4 -91.17 L-118.2 -92.07 L-120 -92.98 L-121.8 -93.88 L-123.6 -94.79 L-125.5 -95.69 L-127.3 -96.6 L-129.1 -97.5 L-130.9 -98.4 L-132.7 -99.31 L-134.6 -100.2 L-136.4 -101.1 L-138.2 -102 L-140 -102.9 L-141.8 -103.8 L-143.6 -104.7 L-145.5 -105.6 L-147.3 -106.5 L-149.1 -107.5 L-149.1 -109.4 L-149.1 -111.3 L-149.1 -113.3 L-149.1 -115.2 L-149.1 -117.2 L-147.3 -116.2 L-145.5 -115.3 L-143.6 -114.4 L-141.8 -113.5 L-140 -112.6 L-138.2 -111.7 L-136.4 -110.8 L-134.6 -109.9 L-132.7 -109 L-130.9 -108.1 L-129.1 -107.2 L-127.3 -106.2 L-125.5 -105.3 L-123.6 -104.4 L-121.8 -103.5 L-120 -102.6 L-118.2 -101.7 L-116.4 -100.8 L-114.6 -99.88 L-112.7 -98.97 L-110.9 -98.06 L-109.1 -97.15 L-109.1 -95.23 L-109.1 -93.31 L-109.1 -91.39 L-109.1 -89.47 L-109.1 -87.55 Z " />
<path stroke="rgb(0,0,0)" stroke-opacity="1" fill="rgb(200,200,200)" fill-opacity="1" id="a3_1_" d="M-105.8 -101.2 L-107.6 -102 L-109.4 -102.9 L-111.2 -103.8 L-113 -104.7 L-114.8 -105.6 L-116.6 -106.5 L-118.4 -107.4 L-120.2 -108.3 L-122 -109.2 L-123.8 -110.1 L-125.6 -111 L-127.4 -111.8 L-129.3 -112.7 L-131.1 -113.6 L-132.9 -114.5 L-134.7 -115.4 L-136.5 -116.3 L-138.3 -117.2 L-140.1 -118.1 L-141.9 -119 L-143.7 -119.9 L-145.5 -120.8 L-147.3 -121.7 L-149.1 -122.5 L-149.1 -124.6 L-149.1 -126.7 L-149.1 -128.8 L-149.1 -130.9 L-149.1 -133 L-147.3 -132.1 L-145.5 -131.2 L-143.7 -130.3 L-141.9 -129.4 L-140.1 -128.5 L-138.3 -127.6 L-136.5 -126.7 L-134.7 -125.8 L-132.9 -124.9 L-131.1 -124 L-129.3 -123.1 L-127.4 -122.3 L-125.6 -121.4 L-123.8 -120.5 L-122 -119.6 L-120.2 -118.7 L-118.4 -117.8 L-116.6 -116.9 L-114.8 -116 L-113 -115.1 L-111.2 -114.2 L-109.4 -113.3 L-107.6 -112.4 L-105.8 -111.5 L-105.8 -109.5 L-105.8 -107.4 L-105.8 -105.3 L-105.8 -103.2 L-105.8 -101.2 Z " />
<path stroke="rgb(0,0,0)" stroke-opacity="1" fill="rgb(244,227,211)" fill-opacity="1" id="a11_1_" d="M-29.16 70.85 L-30.98 70.04 L-32.8 69.23 L-34.62 68.42 L-36.44 67.61 L-38.25 66.79 L-40.07 65.98 L-41.89 65.17 L-43.71 64.36 L-45.53 63.55 L-47.35 62.74 L-49.17 61.93 L-50.98 61.12 L-52.8 60.31 L-54.62 59.49 L-56.44 58.68 L-58.26 57.87 L-60.08 57.06 L-61.9 56.25 L-63.71 55.44 L-65.53 54.63 L-67.35 53.82 L-69.17 53.01 L-70.99 52.19 L-72.81 51.38 L-74.63 50.57 L-76.44 49.76 L-78.26 48.95 L-78.31 47 L-78.36 45.05 L-76.54 45.86 L-74.73 46.68 L-72.91 47.49 L-71.09 48.31 L-69.27 49.12 L-67.45 49.94 L-65.63 50.75 L-63.81 51.57 L-62 52.38 L-60.18 53.2 L-58.36 54.01 L-56.54 54.83 L-54.72 55.64 L-52.9 56.46 L-51.08 57.27 L-49.27 58.09 L-47.45 58.9 L-45.63 59.72 L-43.81 60.53 L-41.99 61.35 L-40.17 62.16 L-38.35 62.98 L-36.54 63.79 L-34.72 64.61 L-32.9 65.42 L-31.08 66.24 L-29.26 67.05 L-29.21 68.95 L-29.16 70.85 Z " />
<path stroke="rgb(0,0,0)" stroke-opacity="1" fill="rgb(244,200,200)" fill-opacity="1" id="fus1_1_" d="M-95.5 56.95 L-97.3 56.19 L-99.1 55.43 L-100.9 54.67 L-102.7 53.91 L-104.5 53.15 L-104.5 51.29 L-104.5 49.43 L-104.5 47.57 L-104.5 45.71 L-104.5 43.85 L-102.7 44.61 L-100.9 45.37 L-99.1 46.13 L-97.3 46.89 L-95.5 47.65 L-95.5 49.51 L-95.5 51.37 L-95.5 53.23 L-95.5 55.09 L-95.5 56.95 Z " />
<path stroke="rgb(0,0,0)" stroke-opacity="1" fill="rgb(244,200,200)" fill-opacity="1" id="fus2_1_" d="M-96.5 60.95 L-98.3 60.17 L-100.1 59.39 L-101.9 58.61 L-103.7 57.83 L-105.5 57.05 L-105.5 55.17 L-105.4 53.29 L-105.4 51.41 L-105.3 49.53 L-105.3 47.65 L-103.5 48.41 L-101.8 49.17 L-100 49.93 L-98.26 50.69 L-96.5 51.45 L-96.5 53.35 L-96.5 55.25 L-96.5 57.15 L-96.5 59.05 L-96.5 60.95 Z " />
<path stroke="rgb(0,0,0)" stroke-opacity="1" fill="rgb(244,200,200)" fill-opacity="1" id="fus3_1_" d="M-95.6 56.45 L-97.38 55.69 L-99.16 54.93 L-100.9 54.17 L-102.7 53.41 L-104.5 52.65 L-104.5 50.79 L-104.5 48.93 L-104.5 47.07 L-104.5 45.21 L-104.5 43.35 L-102.7 44.11 L-100.9 44.87 L-99.1 45.63 L-97.3 46.39 L-95.5 47.15 L-95.52 49.01 L-95.54 50.87 L-95.56 52.73 L-95.58 54.59 L-95.6 56.45 Z " />
<path stroke="rgb(0,0,0)" stroke-opacity="1" fill="rgb(244,200,200)" fill-opacity="1" id="fus4_1_" d="M-91.88 65.07 L-93.68 64.29 L-95.48 63.51 L-97.28 62.73 L-99.08 61.95 L-100.9 61.17 L-100.9 59.31 L-100.9 57.45 L-100.9 55.59 L-100.9 53.73 L-100.9 51.87 L-99.08 52.65 L-97.28 53.43 L-95.48 54.21 L-93.68 54.99 L-91.88 55.77 L-91.88 57.63 L-91.88 59.49 L-91.88 61.35 L-91.88 63.21 L-91.88 65.07 Z " />
<path stroke="rgb(0,0,0)" stroke-opacity="1" fill="rgb(173,200,200)" fill-opacity="1" id="swap1_1_" d="M37.39 -109.3 L35.57 -110.3 L33.75 -111.2 L31.93 -112.2 L30.11 -113.1 L28.29 -114.1 L26.47 -115.1 L24.65 -116 L22.83 -117 L21.01 -117.9 L19.19 -118.9 L19.2 -120.9 L19.22 -122.9 L19.23 -124.9 L19.24 -126.9 L19.25 -129 L19.26 -131 L19.27 -133 L19.28 -135 L19.29 -137 L21.11 -136 L22.93 -135.1 L24.75 -134.1 L26.57 -133.1 L28.39 -132.2 L30.21 -131.2 L32.03 -130.2 L33.85 -129.2 L35.67 -128.3 L37.49 -127.3 L37.48 -125.3 L37.47 -123.3 L37.46 -121.3 L37.45 -119.3 L37.44 -117.3 L37.43 -115.3 L37.42 -113.3 L37.4 -111.3 L37.39 -109.3 Z " />
<path stroke="rgb(0,0,0)" stroke-opacity="1" fill="rgb(173,200,200)" fill-opacity="1" id="swap3_1_" d="M20.8 -127.8 L18.98 -128.7 L17.16 -129.7 L15.34 -130.7 L13.52 -131.6 L11.7 -132.6 L9.88 -133.5 L8.06 -134.5 L6.24 -135.5 L4.42 -136.4 L2.6 -137.4 L2.611 -139.4 L2.622 -141.4 L2.633 -143.4 L2.644 -145.4 L2.656 -147.4 L2.667 -149.4 L2.678 -151.5 L2.689 -153.5 L2.7 -155.5 L4.52 -154.5 L6.34 -153.6 L8.16 -152.6 L9.98 -151.6 L11.8 -150.7 L13.62 -149.7 L15.44 -148.8 L17.26 -147.8 L19.08 -146.8 L20.9 -145.9 L20.89 -143.9 L20.88 -141.9 L20.87 -139.8 L20.86 -137.8 L20.84 -135.8 L20.83 -133.8 L20.82 -131.8 L20.81 -129.8 L20.8 -127.8 Z " />
<path stroke="rgb(0,0,0)" stroke-opacity="1" fill="rgb(173,200,200)" fill-opacity="1" id="swap2_1_" d="M4.307 -122.5 L2.487 -123.5 L0.6668 -124.4 L-1.153 -125.4 L-2.973 -126.3 L-4.793 -127.3 L-6.613 -128.3 L-8.433 -129.2 L-10.25 -130.2 L-12.07 -131.1 L-13.89 -132.1 L-13.88 -134.1 L-13.87 -136.1 L-13.86 -138.1 L-13.85 -140.1 L-13.84 -142.2 L-13.83 -144.2 L-13.82 -146.2 L-13.8 -148.2 L-13.79 -150.2 L-11.96 -149.2 L-10.13 -148.3 L-8.303 -147.3 L-6.473 -146.4 L-4.643 -145.4 L-2.813 -144.4 L-0.9832 -143.5 L0.8468 -142.5 L2.677 -141.6 L4.507 -140.6 L4.485 -138.6 L4.462 -136.6 L4.44 -134.6 L4.418 -132.6 L4.396 -130.5 L4.373 -128.5 L4.351 -126.5 L4.329 -124.5 L4.307 -122.5 Z " />
<path stroke="rgb(0,0,0)" stroke-opacity="1" fill="rgb(173,200,200)" fill-opacity="1" id="swap4_1_" d="M20.7 -104.3 L18.88 -105.3 L17.06 -106.3 L15.24 -107.3 L13.42 -108.2 L11.6 -109.2 L9.78 -110.2 L7.96 -111.2 L6.14 -112.2 L4.32 -113.1 L2.5 -114.1 L2.511 -116.1 L2.522 -118.1 L2.533 -120.1 L2.544 -122.1 L2.556 -124.1 L2.567 -126.1 L2.578 -128.1 L2.589 -130.1 L2.6 -132.1 L4.43 -131.1 L6.26 -130.2 L8.09 -129.2 L9.92 -128.2 L11.75 -127.3 L13.58 -126.3 L15.41 -125.3 L17.24 -124.4 L19.07 -123.4 L20.9 -122.4 L20.88 -120.4 L20.86 -118.4 L20.83 -116.4 L20.81 -114.4 L20.79 -112.4 L20.77 -110.4 L20.74 -108.3 L20.72 -106.3 L20.7 -104.3 Z " />
<path stroke="rgb(0,0,0)" stroke-opacity="1" fill="rgb(244,227,211)" fill-opacity="1" id="a10_5_" d="M40 -46.65 L38.24 -45.63 L36.48 -44.6 L34.71 -43.57 L32.95 -42.55 L31.19 -41.53 L29.42 -40.5 L27.66 -39.48 L25.9 -38.45 L24.14 -37.43 L22.37 -36.4 L20.61 -35.38 L18.85 -34.35 L17.09 -33.33 L15.32 -32.3 L13.56 -31.28 L11.8 -30.25 L10.04 -31.28 L8.275 -32.3 L6.512 -33.33 L4.75 -34.35 L2.987 -35.38 L1.225 -36.4 L-0.5375 -37.43 L-2.3 -38.45 L-4.063 -39.48 L-5.825 -40.5 L-7.587 -41.53 L-9.35 -42.55 L-11.11 -43.57 L-12.87 -44.6 L-14.64 -45.63 L-16.4 -46.65 L-14.64 -47.68 L-12.87 -48.7 L-11.11 -49.72 L-9.35 -50.75 L-7.587 -51.77 L-5.825 -52.8 L-4.063 -53.82 L-2.3 -54.85 L-0.5375 -55.87 L1.225 -56.9 L2.987 -57.92 L4.75 -58.95 L6.512 -59.97 L8.275 -61 L10.04 -62.02 L11.8 -63.05 L13.56 -62.02 L15.32 -61 L17.09 -59.97 L18.85 -58.95 L20.61 -57.92 L22.37 -56.9 L24.14 -55.87 L25.9 -54.85 L27.66 -53.82 L29.42 -52.8 L31.19 -51.77 L32.95 -50.75 L34.71 -49.72 L36.48 -48.7 L38.24 -47.68 L40 -46.65 Z " />
<path stroke="rgb(0,0,0)" stroke-opacity="1" fill="rgb(244,227,211)" fill-opacity="1" id="a10_4_" d="M40.5 -11.85 L40.5 -13.85 L40.5 -15.85 L40.5 -17.85 L40.5 -19.85 L40.5 -21.85 L40.5 -23.85 L40.5 -25.85 L40.5 -27.85 L40.5 -29.85 L40.5 -31.85 L40.5 -33.85 L40.5 -35.85 L40.5 -37.85 L40.5 -39.85 L40.5 -41.85 L40.5 -43.85 L40.5 -45.85 L38.74 -44.83 L36.98 -43.8 L35.21 -42.78 L33.45 -41.75 L31.69 -40.73 L29.92 -39.7 L28.16 -38.68 L26.4 -37.65 L24.64 -36.62 L22.87 -35.6 L21.11 -34.57 L19.35 -33.55 L17.59 -32.52 L15.82 -31.5 L14.06 -30.47 L12.3 -29.45 L12.3 -27.44 L12.3 -25.44 L12.3 -23.43 L12.3 -21.43 L12.3 -19.42 L12.3 -17.42 L12.3 -15.41 L12.3 -13.41 L12.3 -11.4 L12.3 -9.397 L12.3 -7.392 L12.3 -5.387 L12.3 -3.382 L12.3 -1.376 L12.3 0.6289 L12.3 2.634 L12.3 4.639 L12.3 6.645 L12.3 8.65 L13.96 7.444 L15.62 6.238 L17.28 5.032 L18.94 3.826 L20.59 2.621 L22.25 1.415 L23.91 0.2088 L25.57 -0.9971 L27.23 -2.203 L28.89 -3.409 L30.55 -4.615 L32.21 -5.821 L33.86 -7.026 L35.52 -8.232 L37.18 -9.438 L38.84 -10.64 L40.5 -11.85 Z " />
<path stroke="rgb(0,0,0)" stroke-opacity="1" fill="rgb(244,227,211)" fill-opacity="1" id="a10_3_" d="M-16.8 -45.85 L-16.8 -43.85 L-16.8 -41.85 L-16.8 -39.85 L-16.8 -37.85 L-16.8 -35.85 L-16.8 -33.85 L-16.8 -31.85 L-16.8 -29.85 L-16.8 -27.85 L-16.8 -25.85 L-16.8 -23.85 L-16.8 -21.85 L-16.8 -19.85 L-16.8 -17.85 L-16.8 -15.85 L-16.8 -13.85 L-16.8 -11.85 L-15.14 -10.64 L-13.48 -9.438 L-11.82 -8.232 L-10.16 -7.026 L-8.506 -5.821 L-6.847 -4.615 L-5.188 -3.409 L-3.529 -2.203 L-1.871 -0.9971 L-0.2118 0.2088 L1.447 1.415 L3.106 2.621 L4.765 3.826 L6.424 5.032 L8.082 6.238 L9.741 7.444 L11.4 8.65 L11.4 6.645 L11.4 4.639 L11.4 2.634 L11.4 0.6289 L11.4 -1.376 L11.4 -3.382 L11.4 -5.387 L11.4 -7.392 L11.4 -9.397 L11.4 -11.4 L11.4 -13.41 L11.4 -15.41 L11.4 -17.42 L11.4 -19.42 L11.4 -21.43 L11.4 -23.43 L11.4 -25.44 L11.4 -27.44 L11.4 -29.45 L9.637 -30.47 L7.875 -31.5 L6.112 -32.52 L4.35 -33.55 L2.587 -34.57 L0.825 -35.6 L-0.9375 -36.62 L-2.7 -37.65 L-4.462 -38.68 L-6.225 -39.7 L-7.987 -40.73 L-9.75 -41.75 L-11.51 -42.78 L-13.27 -43.8 L-15.04 -44.83 L-16.8 -45.85 Z " />
<path stroke="rgb(0,0,0)" stroke-opacity="1" fill="rgb(200,200,200)" fill-opacity="1" id="circ1_5_" d="M-100.5 -25.6 L-102.1 -24.68 L-103.7 -23.76 L-105.2 -22.84 L-106.8 -21.92 L-108.4 -21 L-110 -21.92 L-111.6 -22.84 L-113.1 -23.76 L-114.7 -24.68 L-116.3 -25.6 L-114.7 -26.52 L-113.1 -27.44 L-111.6 -28.36 L-110 -29.28 L-108.4 -30.2 L-106.8 -29.28 L-105.2 -28.36 L-103.7 -27.44 L-102.1 -26.52 L-100.5 -25.6 Z " />
<path stroke="rgb(0,0,0)" stroke-opacity="1" fill="rgb(200,200,200)" fill-opacity="1" id="circ1_4_" d="M-100.4 -15.8 L-100.4 -17.7 L-100.4 -19.6 L-100.4 -21.5 L-100.4 -23.4 L-100.4 -25.3 L-102 -24.4 L-103.6 -23.5 L-105.1 -22.6 L-106.7 -21.7 L-108.3 -20.8 L-108.3 -18.66 L-108.3 -16.52 L-108.3 -14.38 L-108.3 -12.24 L-108.3 -10.1 L-106.7 -11.24 L-105.1 -12.38 L-103.6 -13.52 L-102 -14.66 L-100.4 -15.8 Z " />
<path stroke="rgb(0,0,0)" stroke-opacity="1" fill="rgb(200,200,200)" fill-opacity="1" id="circ1_3_" d="M-116.5 -25.3 L-116.5 -23.4 L-116.5 -21.5 L-116.5 -19.6 L-116.5 -17.7 L-116.5 -15.8 L-114.9 -14.66 L-113.3 -13.52 L-111.8 -12.38 L-110.2 -11.24 L-108.6 -10.1 L-108.6 -12.24 L-108.6 -14.38 L-108.6 -16.52 L-108.6 -18.66 L-108.6 -20.8 L-110.2 -21.7 L-111.8 -22.6 L-113.3 -23.5 L-114.9 -24.4 L-116.5 -25.3 Z " />
<path stroke="rgb(0,0,0)" stroke-opacity="1" fill="rgb(200,200,200)" fill-opacity="1" id="circ2_5_" d="M-60.6 -2.298 L-62.18 -1.378 L-63.76 -0.458 L-65.34 0.462 L-66.92 1.382 L-68.5 2.302 L-70.08 1.382 L-71.66 0.462 L-73.24 -0.458 L-74.82 -1.378 L-76.4 -2.298 L-74.82 -3.198 L-73.24 -4.098 L-71.66 -4.998 L-70.08 -5.898 L-68.5 -6.798 L-66.92 -5.898 L-65.34 -4.998 L-63.76 -4.098 L-62.18 -3.198 L-60.6 -2.298 Z " />
<path stroke="rgb(0,0,0)" stroke-opacity="1" fill="rgb(200,200,200)" fill-opacity="1" id="circ2_4_" d="M-60.5 7.502 L-60.5 5.602 L-60.5 3.702 L-60.5 1.802 L-60.5 -0.09799 L-60.5 -1.998 L-62.08 -1.078 L-63.66 -0.158 L-65.24 0.762 L-66.82 1.682 L-68.4 2.602 L-68.4 4.722 L-68.4 6.842 L-68.4 8.962 L-68.4 11.08 L-68.4 13.2 L-66.82 12.06 L-65.24 10.92 L-63.66 9.782 L-62.08 8.642 L-60.5 7.502 Z " />
<path stroke="rgb(0,0,0)" stroke-opacity="1" fill="rgb(200,200,200)" fill-opacity="1" id="circ2_3_" d="M-76.6 -1.998 L-76.6 -0.09799 L-76.6 1.802 L-76.6 3.702 L-76.6 5.602 L-76.6 7.502 L-75.02 8.642 L-73.44 9.782 L-71.86 10.92 L-70.28 12.06 L-68.7 13.2 L-68.7 11.08 L-68.7 8.962 L-68.7 6.842 L-68.7 4.722 L-68.7 2.602 L-70.28 1.682 L-71.86 0.762 L-73.44 -0.158 L-75.02 -1.078 L-76.6 -1.998 Z " />
<path stroke="rgb(0,0,0)" stroke-opacity="1" fill="rgb(148,200,200)" fill-opacity="1" id="bb1" d="M70.33 -9.467 L72.31 -9.218 L74.29 -8.97 L76.27 -8.722 L78.24 -8.473 L80.22 -8.225 L82.2 -7.977 L84.18 -7.728 L86.15 -7.48 L88.13 -7.232 L90.11 -6.983 L92.09 -6.735 L94.06 -6.487 L96.04 -6.238 L98.02 -5.99 L100 -5.741 L102 -5.493 L104 -5.245 L105.4 -6.711 L106.8 -8.177 L108.2 -9.643 L109.6 -11.11 L111 -12.57 L112.4 -14.04 L113.9 -15.51 L115.3 -16.97 L116.7 -18.44 L118.1 -19.91 L119.5 -21.37 L120.9 -22.84 L120.3 -24.78 L119.7 -26.73 L119.1 -28.67 L118.5 -30.62 L117.8 -32.56 L117.2 -34.51 L116.6 -36.45 L116 -38.4 L115.3 -40.34 L114.7 -42.29 L114.1 -44.23 L113.5 -46.18 L112.9 -48.12 L112.2 -50.07 L111.6 -52.01 L110 -53.26 L108.4 -54.51 L106.8 -55.76 L105.2 -57.01 L103.7 -58.26 L102.1 -59.51 L100.5 -60.76 L98.88 -62.01 L97.29 -63.26 L95.7 -64.51 L94.11 -65.76 L92.52 -67.01 L90.93 -68.26 L89.34 -69.51 L87.75 -70.76 L86.16 -72.01 L84.57 -73.26 L82.98 -74.51 L81.38 -75.76 L79.41 -76 L77.43 -76.25 L75.45 -76.5 L73.47 -76.75 L71.5 -77 L69.52 -77.25 L67.54 -77.49 L65.56 -77.74 L63.59 -77.99 L61.61 -78.24 L59.63 -78.49 L57.65 -78.74 L55.68 -78.98 L53.7 -79.23 L51.72 -79.48 L49.74 -79.73 L47.77 -79.98 L46.33 -78.51 L44.9 -77.04 L43.47 -75.56 L42.04 -74.09 L40.6 -72.62 L39.17 -71.15 L37.74 -69.68 L36.31 -68.21 L34.87 -66.74 L33.44 -65.27 L32.01 -63.8 L30.58 -62.32 L31.2 -60.38 L31.82 -58.43 L32.45 -56.49 L33.07 -54.55 L33.69 -52.6 L34.31 -50.66 L34.94 -48.71 L35.56 -46.77 L36.18 -44.82 L36.8 -42.88 L37.42 -40.93 L38.05 -38.99 L38.67 -37.04 L39.29 -35.1 L39.91 -33.15 L41.52 -31.9 L43.12 -30.66 L44.72 -29.41 L46.32 -28.16 L47.92 -26.92 L49.52 -25.67 L51.12 -24.43 L52.72 -23.18 L54.32 -21.93 L55.92 -20.69 L57.53 -19.44 L59.13 -18.19 L60.73 -16.95 L62.33 -15.7 L63.93 -14.45 L65.53 -13.21 L67.13 -11.96 L68.73 -10.71 L70.33 -9.467 Z " />
<path stroke="rgb(0,0,0)" stroke-opacity="1" fill="rgb(236,216,157)" fill-opacity="1" id="scltrs1" d="M-160.6 18.63 L-161.3 19.45 L-161.9 20.27 L-162.6 21.09 L-163.2 21.91 L-163.9 22.72 L-164.5 23.54 L-165.1 24.36 L-165.8 25.18 L-166.4 26 L-167.1 26.82 L-167.7 27.64 L-168.4 28.45 L-169 29.27 L-169.7 30.09 L-170.3 30.91 L-171 31.73 L-171.6 32.55 L-172.3 33.37 L-172.9 34.19 L-173.5 35 L-174.2 35.82 L-174.8 36.64 L-175.5 37.46 L-176.1 38.28 L-176.8 39.1 L-177.4 39.92 L-178.1 40.74 L-178.7 41.55 L-179.4 42.37 L-180 43.19 L-180.6 44.01 L-181.3 44.83 L-181.9 45.65 L-182.6 46.47 L-183.2 47.29 L-183.9 48.1 L-182.9 48.55 L-182 48.99 L-181 49.43 L-180.1 49.88 L-179.1 50.32 L-178.2 50.76 L-177.2 51.21 L-176.3 51.65 L-175.3 52.09 L-174.4 52.54 L-173.4 52.98 L-172.5 53.42 L-171.5 53.87 L-170.6 54.31 L-169.6 54.75 L-168.7 55.2 L-167.7 55.64 L-166.8 56.08 L-165.8 56.53 L-164.9 56.97 L-163.9 57.41 L-163 57.86 L-162 58.3 L-161.1 58.74 L-160.2 59.19 L-159.2 59.63 L-158.3 60.07 L-157.3 60.52 L-156.4 60.96 L-155.4 61.4 L-154.5 61.85 L-153.5 62.29 L-152.6 62.73 L-151.6 63.18 L-150.7 63.62 L-149.7 64.06 L-148.8 64.51 L-147.8 64.95 L-146.9 65.39 L-145.9 65.84 L-145 66.28 L-144 66.72 L-143.1 67.17 L-142.1 67.61 L-141.2 68.05 L-140.2 68.5 L-139.3 68.94 L-138.3 69.38 L-137.4 69.83 L-137.8 68.86 L-138.3 67.9 L-138.7 66.93 L-139.1 65.96 L-139.6 65 L-140 64.03 L-140.4 63.07 L-140.9 62.1 L-141.3 61.13 L-141.8 60.17 L-142.2 59.2 L-142.6 58.24 L-143.1 57.27 L-143.5 56.3 L-144 55.34 L-144.4 54.37 L-144.8 53.41 L-145.3 52.44 L-145.7 51.47 L-146.1 50.51 L-146.6 49.54 L-147 48.58 L-147.5 47.61 L-147.9 46.64 L-148.3 45.68 L-148.8 44.71 L-149.2 43.75 L-149.7 42.78 L-150.1 41.81 L-150.5 40.85 L-151 39.88 L-151.4 38.92 L-151.9 37.95 L-152.3 36.98 L-152.7 36.02 L-153.2 35.05 L-153.6 34.09 L-154 33.12 L-154.5 32.15 L-154.9 31.19 L-155.4 30.22 L-155.8 29.26 L-156.2 28.29 L-156.7 27.32 L-157.1 26.36 L-157.6 25.39 L-158 24.43 L-158.4 23.46 L-158.9 22.49 L-159.3 21.53 L-159.7 20.56 L-160.2 19.6 L-160.6 18.63 Z " />
<path stroke="rgb(0,0,0)" stroke-opacity="1" fill="rgb(255,255,255)" fill-opacity="1" id="a5" d="M-66.34 134.3 L-66.45 136.7 L-66.76 138.8 L-67.28 140.8 L-67.98 142.7 L-68.86 144.4 L-69.91 145.8 L-71.12 147.2 L-72.49 148.3 L-73.99 149.2 L-75.63 150 L-77.4 150.5 L-79.28 150.8 L-81.26 150.9 L-83.34 150.9 L-85.51 150.5 L-87.76 150 L-90.07 149.2 L-92.44 148.2 L-94.23 147.4 L-95.98 146.4 L-97.7 145.3 L-99.38 144.1 L-101 142.8 L-102.6 141.5 L-104.1 140.1 L-105.6 138.6 L-107 137 L-108.4 135.4 L-109.7 133.7 L-110.9 132 L-112 130.3 L-113.1 128.5 L-114.1 126.7 L-115 124.9 L-115.8 123 L-116.5 121.2 L-117.1 119.3 L-117.6 117.4 L-118 115.6 L-118.3 113.7 L-118.5 111.9 L-118.5 110 L-118.4 107.7 L-118.1 105.6 L-117.6 103.6 L-116.9 101.7 L-116 100 L-115 98.56 L-113.8 97.25 L-112.4 96.12 L-110.9 95.19 L-109.3 94.45 L-107.5 93.91 L-105.6 93.58 L-103.6 93.45 L-101.5 93.54 L-99.38 93.85 L-97.13 94.39 L-94.82 95.15 L-92.44 96.15 L-90.66 97.04 L-88.91 98.03 L-87.19 99.12 L-85.51 100.3 L-83.88 101.6 L-82.29 102.9 L-80.76 104.3 L-79.28 105.8 L-77.86 107.4 L-76.5 109 L-75.21 110.7 L-73.99 112.4 L-72.85 114.1 L-71.79 115.9 L-70.81 117.7 L-69.91 119.5 L-69.11 121.4 L-68.4 123.2 L-67.79 125.1 L-67.28 127 L-66.87 128.8 L-66.58 130.7 L-66.4 132.5 L-66.34 134.3 Z " />
<path stroke="rgb(0,0,0)" stroke-opacity="1" fill="rgb(255,255,255)" fill-opacity="1" id="a17" d="M-96 -128.5 L-97.21 -127 L-98.42 -125.5 L-99.62 -124 L-100.8 -122.4 L-102 -120.9 L-103.2 -119.4 L-104.5 -117.8 L-105.7 -116.3 L-106.9 -114.8 L-108.1 -113.2 L-109.3 -111.7 L-110.5 -110.2 L-111.7 -108.7 L-109.9 -107.8 L-108 -106.9 L-106.2 -106.1 L-104.3 -105.2 L-102.5 -104.3 L-100.6 -103.5 L-98.77 -102.6 L-96.92 -101.7 L-95.08 -100.9 L-93.23 -100 L-91.38 -99.14 L-89.54 -98.27 L-87.69 -97.41 L-85.84 -96.54 L-83.99 -95.68 L-82.15 -94.81 L-80.3 -93.95 L-81.13 -95.77 L-81.95 -97.59 L-82.78 -99.41 L-83.61 -101.2 L-84.43 -103.1 L-85.26 -104.9 L-86.08 -106.7 L-86.91 -108.5 L-87.74 -110.3 L-88.56 -112.2 L-89.39 -114 L-90.22 -115.8 L-91.04 -117.6 L-91.87 -119.4 L-92.69 -121.3 L-93.52 -123.1 L-94.35 -124.9 L-95.17 -126.7 L-96 -128.5 Z " />
<path stroke="rgb(0,0,0)" stroke-opacity="1" fill="rgb(255,255,255)" fill-opacity="1" id="a16" d="M-96 -70.95 L-94.79 -72.48 L-93.58 -74.01 L-92.38 -75.54 L-91.17 -77.07 L-89.96 -78.6 L-88.75 -80.13 L-87.55 -81.67 L-86.34 -83.2 L-85.13 -84.73 L-83.92 -86.26 L-82.72 -87.79 L-81.51 -89.32 L-80.3 -90.85 L-82.15 -91.71 L-83.99 -92.57 L-85.84 -93.43 L-87.69 -94.29 L-89.54 -95.14 L-91.38 -96 L-93.23 -96.86 L-95.08 -97.72 L-96.92 -98.58 L-98.77 -99.44 L-100.6 -100.3 L-102.5 -101.2 L-104.3 -102 L-106.2 -102.9 L-108 -103.7 L-109.9 -104.6 L-111.7 -105.5 L-110.9 -103.6 L-110 -101.8 L-109.2 -100 L-108.4 -98.19 L-107.6 -96.37 L-106.7 -94.56 L-105.9 -92.74 L-105.1 -90.92 L-104.3 -89.11 L-103.4 -87.29 L-102.6 -85.48 L-101.8 -83.66 L-101 -81.84 L-100.1 -80.03 L-99.31 -78.21 L-98.48 -76.4 L-97.65 -74.58 L-96.83 -72.77 L-96 -70.95 Z " />
<path stroke="rgb(0,0,0)" stroke-opacity="1" fill="rgb(173,200,200)" fill-opacity="1" id="swap2" d="M-56.49 -64.9 L-56.75 -62.78 L-57.47 -61.07 L-58.61 -59.8 L-60.11 -59 L-61.91 -58.69 L-63.96 -58.92 L-66.19 -59.7 L-67.95 -60.67 L-69.6 -61.89 L-71.11 -63.31 L-72.46 -64.9 L-73.63 -66.62 L-74.58 -68.42 L-75.29 -70.26 L-75.74 -72.1 L-75.89 -73.9 L-75.64 -75.99 L-74.91 -77.68 L-73.78 -78.96 L-72.28 -79.77 L-70.48 -80.09 L-68.43 -79.88 L-66.19 -79.1 L-64.44 -78.13 L-62.79 -76.92 L-61.28 -75.51 L-59.93 -73.93 L-58.76 -72.22 L-57.81 -70.42 L-57.1 -68.58 L-56.65 -66.73 L-56.49 -64.9 Z " />
<path stroke="rgb(0,0,0)" stroke-opacity="1" fill="rgb(173,200,200)" fill-opacity="1" id="swap4" d="M-33.4 -46.92 L-33.65 -44.8 L-34.38 -43.09 L-35.52 -41.82 L-37.02 -41.02 L-38.82 -40.71 L-40.86 -40.94 L-43.1 -41.72 L-44.85 -42.69 L-46.5 -43.91 L-48.01 -45.33 L-49.37 -46.92 L-50.53 -48.64 L-51.49 -50.44 L-52.2 -52.28 L-52.65 -54.12 L-52.8 -55.92 L-52.55 -58.04 L-51.82 -59.75 L-50.68 -61.02 L-49.18 -61.82 L-47.38 -62.13 L-45.34 -61.9 L-43.1 -61.12 L-41.35 -60.15 L-39.7 -58.94 L-38.19 -57.53 L-36.83 -55.95 L-35.67 -54.24 L-34.71 -52.44 L-34 -50.6 L-33.55 -48.75 L-33.4 -46.92 Z " />
<path stroke="rgb(0,0,0)" stroke-opacity="1" fill="rgb(173,200,200)" fill-opacity="1" id="swap3" d="M-33.4 -63.38 L-33.65 -61.26 L-34.38 -59.55 L-35.52 -58.28 L-37.02 -57.48 L-38.82 -57.17 L-40.86 -57.4 L-43.1 -58.18 L-44.85 -59.15 L-46.5 -60.37 L-48.01 -61.8 L-49.37 -63.39 L-50.53 -65.1 L-51.49 -66.9 L-52.2 -68.74 L-52.65 -70.58 L-52.8 -72.38 L-52.55 -74.47 L-51.82 -76.17 L-50.68 -77.44 L-49.18 -78.25 L-47.38 -78.57 L-45.34 -78.36 L-43.1 -77.58 L-41.35 -76.61 L-39.7 -75.4 L-38.19 -73.99 L-36.83 -72.41 L-35.67 -70.7 L-34.71 -68.91 L-34 -67.06 L-33.55 -65.21 L-33.4 -63.38 Z " />
<path stroke="rgb(0,0,0)" stroke-opacity="1" fill="rgb(173,200,200)" fill-opacity="1" id="swap1" d="M-9.907 -46.4 L-10.16 -44.28 L-10.89 -42.57 L-12.02 -41.3 L-13.52 -40.5 L-15.32 -40.19 L-17.37 -40.42 L-19.61 -41.2 L-21.36 -42.17 L-23.01 -43.39 L-24.52 -44.82 L-25.87 -46.41 L-27.04 -48.12 L-27.99 -49.92 L-28.7 -51.76 L-29.15 -53.6 L-29.31 -55.4 L-29.05 -57.49 L-28.33 -59.19 L-27.19 -60.46 L-25.69 -61.27 L-23.89 -61.59 L-21.84 -61.38 L-19.61 -60.6 L-17.85 -59.63 L-16.2 -58.41 L-14.69 -56.99 L-13.34 -55.4 L-12.17 -53.68 L-11.22 -51.88 L-10.51 -50.04 L-10.06 -48.2 L-9.907 -46.4 Z " />
<path stroke="rgb(0,0,0)" stroke-opacity="1" fill="rgb(255,255,255)" fill-opacity="1" id="secscl1" d="M-4.764 125.1 L-5.715 124.7 L-6.666 124.2 L-7.617 123.8 L-8.568 123.3 L-9.519 122.9 L-10.47 122.5 L-11.42 122 L-12.37 121.6 L-13.32 121.1 L-14.28 120.7 L-15.23 120.3 L-16.18 119.8 L-17.13 119.4 L-18.08 118.9 L-18.74 119.8 L-19.4 120.6 L-20.06 121.4 L-20.72 122.3 L-21.38 123.1 L-22.04 124 L-22.7 124.8 L-23.37 125.6 L-24.03 126.5 L-24.69 127.3 L-24.27 128.2 L-23.86 129.1 L-23.45 130.1 L-23.03 131 L-22.62 131.9 L-22.21 132.8 L-21.8 133.7 L-21.38 134.6 L-20.97 135.5 L-20.56 136.4 L-20.14 137.3 L-19.73 138.2 L-19.32 139.1 L-18.91 140 L-18.49 141 L-18.08 141.9 L-17.13 142.3 L-16.18 142.7 L-15.23 143.2 L-14.28 143.6 L-13.32 144.1 L-12.37 144.5 L-11.42 144.9 L-10.47 145.4 L-9.519 145.8 L-8.568 146.3 L-7.617 146.7 L-6.666 147.1 L-5.715 147.6 L-4.764 148 L-4.103 147.2 L-3.442 146.3 L-2.782 145.5 L-2.121 144.7 L-1.46 143.8 L-0.7995 143 L-0.1388 142.2 L0.5219 141.3 L1.183 140.5 L1.843 139.7 L1.43 138.8 L1.017 137.8 L0.6044 136.9 L0.1915 136 L-0.2214 135.1 L-0.6343 134.2 L-1.047 133.3 L-1.46 132.4 L-1.873 131.5 L-2.286 130.6 L-2.699 129.7 L-3.112 128.8 L-3.525 127.8 L-3.938 126.9 L-4.351 126 L-4.764 125.1 Z " />
</g>
</g>
</svg>
