<!DOCTYPE svg>
<svg xmlns="http://www.w3.org/2000/svg" xmlns:xlink="http://www.w3.org/1999/xlink" width="1080" height="1080">
<g transform="translate(540.000000,540.000000)">
<g transform="scale(2,2)">
<path stroke="rgb(0,0,0)" stroke-opacity="1" fill="rgb(148,200,200)" fill-opacity="1" id="bb1_2_" d="M-158 -64.84 L-156.2 -64.04 L-154.4 -63.24 L-152.6 -62.44 L-150.7 -61.64 L-148.9 -60.84 L-147.1 -60.04 L-145.3 -59.24 L-143.4 -58.44 L-141.6 -57.64 L-139.8 -56.84 L-138 -56.05 L-136.2 -55.25 L-134.3 -54.45 L-132.5 -53.65 L-130.7 -52.85 L-128.9 -52.05 L-127.1 -51.25 L-125.2 -50.45 L-123.4 -49.65 L-121.6 -48.85 L-119.8 -48.05 L-117.9 -47.25 L-116.1 -46.46 L-114.3 -45.66 L-112.5 -44.86 L-110.7 -44.06 L-108.8 -43.26 L-107 -42.46 L-105.2 -41.66 L-105.2 -39.65 L-105.2 -37.64 L-105.2 -35.63 L-105.2 -33.62 L-105.2 -31.61 L-105.2 -29.6 L-105.2 -27.59 L-105.2 -25.58 L-105.2 -23.57 L-105.2 -21.56 L-105.2 -19.55 L-105.2 -17.54 L-105.2 -15.53 L-105.2 -13.52 L-105.2 -11.51 L-105.2 -9.503 L-105.2 -7.493 L-105.2 -5.483 L-105.2 -3.473 L-105.2 -1.463 L-105.2 0.5465 L-105.1 2.556 L-105.1 4.566 L-105.1 6.576 L-105.1 8.586 L-105.1 10.6 L-105.1 12.61 L-107 11.81 L-108.8 11.01 L-110.6 10.21 L-112.4 9.409 L-114.2 8.61 L-116.1 7.811 L-117.9 7.012 L-119.7 6.212 L-121.5 5.413 L-123.4 4.614 L-125.2 3.815 L-127 3.016 L-128.8 2.217 L-130.6 1.418 L-132.5 0.6184 L-134.3 -0.1808 L-136.1 -0.9799 L-137.9 -1.779 L-139.7 -2.578 L-141.6 -3.377 L-143.4 -4.177 L-145.2 -4.976 L-147 -5.775 L-148.9 -6.574 L-150.7 -7.373 L-152.5 -8.172 L-154.3 -8.971 L-156.1 -9.771 L-158 -10.57 L-158 -12.58 L-158 -14.59 L-158 -16.6 L-158 -18.61 L-158 -20.62 L-158 -22.63 L-158 -24.64 L-158 -26.65 L-158 -28.66 L-158 -30.67 L-158 -32.68 L-158 -34.69 L-158 -36.7 L-158 -38.71 L-158 -40.72 L-158 -42.73 L-158 -44.74 L-158 -46.75 L-158 -48.76 L-158 -50.77 L-158 -52.78 L-158 -54.79 L-158 -56.8 L-158 -58.81 L-158 -60.82 L-158 -62.83 L-158 -64.84 Z " />
<path stroke="rgb(0,0,0)" stroke-opacity="1" fill="rgb(236,216,157)" fill-opacity="1" id="pr2_1_" d="M72.7 104.6 L70.94 103.7 L69.18 102.8 L67.41 101.9 L65.65 101 L63.89 100.1 L62.13 99.25 L60.36 98.35 L58.6 97.45 L58.63 95.52 L58.66 93.59 L58.69 91.66 L58.71 89.74 L58.74 87.81 L58.77 85.88 L58.8 83.95 L60.55 84.84 L62.3 85.73 L64.05 86.61 L65.8 87.5 L67.55 88.39 L69.3 89.28 L71.05 90.16 L72.8 91.05 L72.79 92.99 L72.77 94.94 L72.76 96.88 L72.74 98.82 L72.73 100.8 L72.71 102.7 L72.7 104.6 Z " />
<path stroke="rgb(0,0,0)" stroke-opacity="1" fill="rgb(236,216,157)" fill-opacity="1" id="pr1_1_" d="M52.63 92.67 L51.47 92.07 L50.31 91.48 L49.15 90.88 L47.99 90.28 L46.83 89.69 L45.67 89.09 L44.51 88.5 L43.35 87.9 L43.36 86.62 L43.37 85.34 L43.38 84.07 L43.39 82.79 L43.4 81.51 L43.41 80.23 L43.42 78.96 L44.58 79.55 L45.74 80.15 L46.9 80.74 L48.06 81.34 L49.22 81.94 L50.38 82.53 L51.54 83.13 L52.7 83.73 L52.69 85 L52.68 86.28 L52.67 87.56 L52.66 88.84 L52.65 90.11 L52.64 91.39 L52.63 92.67 Z " />
<path stroke="rgb(0,0,0)" stroke-opacity="1" fill="rgb(236,216,157)" fill-opacity="1" id="pr3_1_" d="M54.6 113.6 L52.85 112.7 L51.1 111.8 L49.35 110.9 L47.6 110 L45.85 109.1 L44.1 108.1 L42.35 107.2 L40.6 106.3 L40.61 104.4 L40.63 102.5 L40.64 100.6 L40.66 98.64 L40.67 96.71 L40.69 94.78 L40.7 92.85 L42.45 93.75 L44.2 94.65 L45.95 95.55 L47.7 96.45 L49.45 97.35 L51.2 98.25 L52.95 99.15 L54.7 100.1 L54.69 102 L54.67 103.9 L54.66 105.8 L54.64 107.8 L54.63 109.7 L54.61 111.6 L54.6 113.6 Z " />
<path stroke="rgb(0,0,0)" stroke-opacity="1" fill="rgb(236,216,157)" fill-opacity="1" id="pr4_1_" d="M72.3 121.7 L70.54 120.9 L68.77 120 L67.01 119.1 L65.25 118.2 L63.49 117.3 L61.73 116.4 L59.96 115.5 L58.2 114.6 L58.21 112.7 L58.23 110.8 L58.24 108.9 L58.26 106.9 L58.27 105 L58.29 103.1 L58.3 101.1 L60.06 102 L61.82 102.9 L63.59 103.8 L65.35 104.7 L67.11 105.6 L68.87 106.5 L70.64 107.4 L72.4 108.2 L72.39 110.2 L72.37 112.1 L72.36 114 L72.34 116 L72.33 117.9 L72.31 119.8 L72.3 121.7 Z " />
<path stroke="rgb(0,0,0)" stroke-opacity="1" fill="rgb(238,200,200)" fill-opacity="1" id="ll1_1_" d="M234.6 197.1 L231 195.4 L227.4 193.7 L223.7 192 L220.1 190.3 L216.4 188.6 L212.8 186.9 L209.2 185.2 L205.5 183.5 L201.9 181.8 L198.3 180.1 L194.6 178.4 L191 176.7 L187.3 175 L183.7 173.3 L180.1 171.6 L176.4 169.9 L176.4 165.9 L176.4 161.8 L176.4 157.8 L176.4 153.7 L176.4 149.6 L176.4 145.6 L176.4 141.5 L176.4 137.5 L176.4 133.4 L176.4 129.3 L176.4 125.3 L176.4 121.2 L176.4 117.2 L176.4 113.1 L180.1 114.8 L183.7 116.5 L187.3 118.3 L191 120 L194.6 121.7 L198.3 123.4 L201.9 125.1 L205.5 126.8 L209.2 128.5 L212.8 130.2 L216.4 132 L220.1 133.7 L223.7 135.4 L227.4 137.1 L231 138.8 L234.6 140.5 L234.6 144.6 L234.6 148.6 L234.6 152.6 L234.6 156.7 L234.6 160.7 L234.6 164.8 L234.6 168.8 L234.6 172.9 L234.6 176.9 L234.6 181 L234.6 185 L234.6 189 L234.6 193.1 L234.6 197.1 Z " />
<path stroke="rgb(0,0,0)" stroke-opacity="1" fill="rgb(255,255,255)" fill-opacity="1" id="cl1_1_" d="M43.63 118.4 L41.83 117.5 L40.03 116.6 L38.22 115.7 L36.42 114.8 L34.61 113.9 L32.81 113 L31 112.1 L29.2 111.2 L27.4 110.3 L25.59 109.4 L23.79 108.5 L21.98 107.6 L20.18 106.7 L18.37 105.8 L16.57 104.9 L16.47 102.8 L18.27 103.7 L20.08 104.6 L21.88 105.6 L23.69 106.5 L25.49 107.4 L27.3 108.3 L29.1 109.2 L30.9 110.2 L32.71 111.1 L34.51 112 L36.32 112.9 L38.12 113.9 L39.93 114.8 L41.73 115.7 L43.54 116.6 L43.63 118.4 Z " />
<path stroke="rgb(0,0,0)" stroke-opacity="1" fill="rgb(255,255,255)" fill-opacity="1" id="a5_2_" d="M206 -50.75 L204.1 -51.59 L202.2 -52.44 L200.3 -53.28 L198.5 -54.12 L196.6 -54.96 L194.7 -55.81 L192.8 -56.65 L190.9 -57.49 L189 -58.34 L187.1 -59.18 L185.3 -60.02 L183.4 -60.86 L181.5 -61.71 L179.6 -62.55 L179.6 -60.6 L179.6 -58.64 L179.6 -56.69 L179.6 -54.73 L179.6 -52.78 L179.6 -50.83 L179.6 -48.87 L179.6 -46.92 L179.6 -44.97 L179.6 -43.01 L179.6 -41.06 L179.6 -39.1 L179.6 -37.15 L181.5 -36.31 L183.4 -35.46 L185.3 -34.62 L187.1 -33.78 L189 -32.94 L190.9 -32.09 L192.8 -31.25 L194.7 -30.41 L196.6 -29.56 L198.5 -28.72 L200.3 -27.88 L202.2 -27.04 L204.1 -26.19 L206 -25.35 L206 -27.3 L206 -29.26 L206 -31.21 L206 -33.17 L206 -35.12 L206 -37.07 L206 -39.03 L206 -40.98 L206 -42.93 L206 -44.89 L206 -46.84 L206 -48.8 L206 -50.75 Z " />
<path stroke="rgb(0,0,0)" stroke-opacity="1" fill="rgb(255,255,255)" fill-opacity="1" id="a6_2_" d="M83.3 51.45 L81.52 50.62 L79.75 49.79 L77.97 48.96 L76.19 48.13 L74.42 47.3 L72.64 46.47 L70.86 45.64 L69.09 44.81 L67.31 43.99 L65.54 43.16 L63.76 42.33 L61.98 41.5 L60.21 40.67 L58.43 39.84 L56.65 39.01 L54.88 38.18 L53.1 37.35 L53.1 35.25 L53.1 33.15 L53.1 31.05 L53.1 28.95 L53.1 26.85 L53.1 24.75 L53.1 22.65 L53.1 20.55 L53.1 18.45 L53.1 16.35 L54.87 17.18 L56.64 18.01 L58.41 18.84 L60.18 19.67 L61.95 20.5 L63.72 21.33 L65.49 22.16 L67.26 22.99 L69.04 23.81 L70.81 24.64 L72.58 25.47 L74.35 26.3 L76.12 27.13 L77.89 27.96 L79.66 28.79 L81.43 29.62 L83.2 30.45 L83.21 32.36 L83.22 34.27 L83.23 36.18 L83.24 38.09 L83.25 40 L83.25 41.9 L83.26 43.81 L83.27 45.72 L83.28 47.63 L83.29 49.54 L83.3 51.45 Z " />
<path stroke="rgb(0,0,0)" stroke-opacity="1" fill="rgb(148,200,200)" fill-opacity="1" id="rtr1_2_" d="M62.32 -115.2 L60.45 -116.1 L58.59 -117 L56.72 -117.9 L54.85 -118.7 L52.99 -119.6 L51.12 -120.5 L51.12 -122.6 L51.11 -124.8 L51.11 -126.9 L51.11 -129 L51.11 -131.1 L52.99 -130.3 L54.87 -129.4 L56.76 -128.5 L58.64 -127.6 L60.52 -126.8 L62.41 -125.9 L62.39 -123.8 L62.37 -121.6 L62.35 -119.5 L62.34 -117.4 L62.32 -115.2 Z " />
<path stroke="rgb(0,0,0)" stroke-opacity="1" fill="rgb(238,200,200)" fill-opacity="1" id="sg1_2_" d="M75.46 128.9 L76.29 127.2 L77.12 125.6 L77.96 124 L78.79 122.4 L79.62 120.7 L80.45 119.1 L82.55 119.1 L84.65 119.1 L86.75 119.1 L88.84 119.1 L88.03 120.7 L87.21 122.4 L86.4 124 L85.58 125.7 L84.77 127.3 L83.95 129 L81.83 129 L79.7 128.9 L77.58 128.9 L75.46 128.9 Z " />
<path stroke="rgb(0,0,0)" stroke-opacity="1" fill="rgb(255,255,255)" fill-opacity="1" id="a12_2_" d="M-54.8 88.45 L-56.68 87.63 L-58.57 86.82 L-60.45 86 L-62.33 85.18 L-64.22 84.37 L-66.1 83.55 L-66.12 81.62 L-66.13 79.68 L-66.15 77.75 L-66.17 75.82 L-66.18 73.88 L-66.2 71.95 L-64.33 72.77 L-62.47 73.58 L-60.6 74.4 L-58.73 75.22 L-56.87 76.03 L-55 76.85 L-54.97 78.78 L-54.93 80.72 L-54.9 82.65 L-54.87 84.58 L-54.83 86.52 L-54.8 88.45 Z " />
<path stroke="rgb(0,0,0)" stroke-opacity="1" fill="rgb(255,255,255)" fill-opacity="1" id="secscl1_2_" d="M-32.49 21.49 L-33.25 21.13 L-34 20.77 L-34.75 20.41 L-35.51 20.05 L-36.26 19.7 L-37.01 19.34 L-37.76 18.98 L-38.52 18.62 L-38.52 17.81 L-38.52 17 L-38.52 16.19 L-38.52 15.37 L-38.52 14.56 L-38.52 13.75 L-38.52 12.94 L-38.52 12.13 L-38.52 11.32 L-38.52 10.51 L-38.52 9.695 L-38.52 8.883 L-38.52 8.072 L-38.52 7.261 L-38.52 6.449 L-38.52 5.638 L-38.52 4.827 L-38.52 4.015 L-38.52 3.204 L-38.52 2.393 L-38.52 1.581 L-38.52 0.77 L-38.52 -0.04138 L-38.52 -0.8527 L-38.52 -1.664 L-38.52 -2.475 L-38.52 -3.287 L-38.52 -4.098 L-38.52 -4.909 L-38.52 -5.721 L-38.52 -6.532 L-38.52 -7.343 L-38.52 -8.155 L-38.52 -8.966 L-38.52 -9.778 L-38.52 -10.59 L-38.52 -11.4 L-38.52 -12.21 L-38.52 -13.02 L-38.52 -13.83 L-37.76 -13.47 L-37.01 -13.11 L-36.26 -12.74 L-35.51 -12.38 L-34.75 -12.02 L-34 -11.65 L-33.25 -11.29 L-32.49 -10.92 L-32.49 -10.11 L-32.49 -9.304 L-32.49 -8.494 L-32.49 -7.684 L-32.49 -6.873 L-32.49 -6.063 L-32.49 -5.253 L-32.49 -4.442 L-32.49 -3.632 L-32.49 -2.822 L-32.49 -2.011 L-32.49 -1.201 L-32.49 -0.3907 L-32.49 0.4196 L-32.49 1.23 L-32.49 2.04 L-32.49 2.851 L-32.49 3.661 L-32.49 4.471 L-32.49 5.282 L-32.49 6.092 L-32.49 6.902 L-32.49 7.713 L-32.49 8.523 L-32.49 9.333 L-32.49 10.14 L-32.49 10.95 L-32.49 11.76 L-32.49 12.57 L-32.49 13.38 L-32.49 14.2 L-32.49 15.01 L-32.49 15.82 L-32.49 16.63 L-32.49 17.44 L-32.49 18.25 L-32.49 19.06 L-32.49 19.87 L-32.49 20.68 L-32.49 21.49 Z " />
<path stroke="rgb(0,0,0)" stroke-opacity="1" fill="rgb(255,255,255)" fill-opacity="1" id="a7_1_" d="M141.3 -84.25 L139.4 -85.05 L137.6 -85.85 L135.7 -86.65 L133.8 -87.45 L132 -88.25 L130.1 -89.05 L128.3 -89.85 L126.4 -90.65 L124.5 -91.45 L122.7 -92.25 L120.8 -93.05 L120.8 -95.03 L120.8 -97.02 L120.8 -99 L120.8 -101 L120.8 -103 L120.8 -105 L122.7 -104.1 L124.5 -103.3 L126.4 -102.5 L128.3 -101.7 L130.1 -100.9 L132 -100 L133.8 -99.22 L135.7 -98.4 L137.6 -97.59 L139.4 -96.77 L141.3 -95.95 L141.3 -94 L141.3 -92.05 L141.3 -90.1 L141.3 -88.15 L141.3 -86.2 L141.3 -84.25 Z " />
<path stroke="rgb(0,0,0)" stroke-opacity="1" fill="rgb(255,255,255)" fill-opacity="1" id="a8_1_" d="M141.2 -69.95 L139.3 -70.76 L137.5 -71.57 L135.6 -72.38 L133.7 -73.19 L131.9 -74 L130 -74.8 L128.2 -75.61 L126.3 -76.42 L124.4 -77.23 L122.6 -78.04 L120.7 -78.85 L120.7 -80.82 L120.7 -82.78 L120.7 -84.75 L120.7 -86.72 L120.7 -88.68 L120.7 -90.65 L122.6 -89.85 L124.4 -89.05 L126.3 -88.25 L128.2 -87.45 L130.1 -86.65 L131.9 -85.85 L133.8 -85.05 L135.7 -84.25 L137.6 -83.45 L139.4 -82.65 L141.3 -81.85 L141.3 -79.87 L141.3 -77.88 L141.2 -75.9 L141.2 -73.92 L141.2 -71.93 L141.2 -69.95 Z " />
<path stroke="rgb(0,0,0)" stroke-opacity="1" fill="rgb(255,255,255)" fill-opacity="1" id="a9_1_" d="M134.2 -61.55 L132.3 -62.35 L130.4 -63.15 L128.5 -63.95 L126.5 -64.75 L124.6 -65.55 L122.7 -66.35 L120.8 -67.15 L120.8 -68.95 L120.8 -70.75 L120.7 -72.55 L120.7 -74.35 L120.7 -76.15 L122.6 -75.34 L124.5 -74.52 L126.4 -73.71 L128.4 -72.89 L130.3 -72.08 L132.2 -71.26 L134.1 -70.45 L134.1 -68.23 L134.2 -66 L134.2 -63.77 L134.2 -61.55 Z " />
<path stroke="rgb(0,0,0)" stroke-opacity="1" fill="rgb(255,255,255)" fill-opacity="1" id="a17_1_" d="M34.5 62.65 L32.73 61.71 L30.95 60.78 L29.18 59.84 L27.41 58.9 L25.64 57.97 L23.86 57.03 L22.09 56.1 L20.32 55.16 L18.55 54.22 L16.77 53.29 L15 52.35 L15 50.33 L15 48.32 L15 46.3 L15 44.28 L15 42.27 L15 40.25 L16.77 41.19 L18.55 42.12 L20.32 43.06 L22.09 44 L23.86 44.93 L25.64 45.87 L27.41 46.8 L29.18 47.74 L30.95 48.68 L32.73 49.61 L34.5 50.55 L34.5 52.57 L34.5 54.58 L34.5 56.6 L34.5 58.62 L34.5 60.63 L34.5 62.65 Z " />
<path stroke="rgb(0,0,0)" stroke-opacity="1" fill="rgb(255,255,255)" fill-opacity="1" id="a16_1_" d="M34.5 79.85 L32.73 78.95 L30.95 78.05 L29.18 77.15 L27.41 76.25 L25.64 75.35 L23.86 74.45 L22.09 73.55 L20.32 72.65 L18.55 71.75 L16.77 70.85 L15 69.95 L15 67.98 L15 66.02 L15 64.05 L15 62.08 L15 60.12 L15 58.15 L16.77 59.05 L18.55 59.95 L20.32 60.85 L22.09 61.75 L23.86 62.65 L25.64 63.55 L27.41 64.45 L29.18 65.35 L30.95 66.25 L32.73 67.15 L34.5 68.05 L34.5 70.02 L34.5 71.98 L34.5 73.95 L34.5 75.92 L34.5 77.88 L34.5 79.85 Z " />
<path stroke="rgb(0,0,0)" stroke-opacity="1" fill="rgb(236,216,157)" fill-opacity="1" id="scltrs1_1_" d="M-28.39 45.06 L-30.22 44.1 L-32.05 43.14 L-33.89 42.18 L-35.72 41.23 L-37.55 40.27 L-39.38 39.31 L-41.21 38.35 L-41.21 36.27 L-41.21 34.18 L-41.21 32.1 L-41.21 30.01 L-41.21 27.93 L-41.21 25.84 L-39.38 26.8 L-37.55 27.76 L-35.72 28.71 L-33.89 29.67 L-32.05 30.63 L-30.22 31.59 L-28.39 32.55 L-28.39 34.63 L-28.39 36.72 L-28.39 38.8 L-28.39 40.89 L-28.39 42.97 L-28.39 45.06 Z " />
<path stroke="rgb(0,0,0)" stroke-opacity="1" fill="rgb(244,227,211)" fill-opacity="1" id="a15_1_" d="M119.3 1.25 L117.4 0.3875 L115.6 -0.475 L113.7 -1.338 L111.8 -2.2 L110 -3.063 L108.1 -3.925 L106.3 -4.788 L104.4 -5.65 L104.4 -7.57 L104.4 -9.49 L104.4 -11.41 L104.4 -13.33 L104.4 -15.25 L106.3 -14.38 L108.1 -13.5 L110 -12.63 L111.8 -11.75 L113.7 -10.88 L115.6 -10 L117.4 -9.125 L119.3 -8.25 L119.3 -6.35 L119.3 -4.45 L119.3 -2.55 L119.3 -0.65 L119.3 1.25 Z " />
<path stroke="rgb(0,0,0)" stroke-opacity="1" fill="rgb(244,227,211)" fill-opacity="1" id="a14_1_" d="M117.2 9.75 L115.4 8.893 L113.5 8.036 L111.7 7.179 L109.8 6.321 L108 5.464 L106.1 4.607 L104.3 3.75 L104.3 1.817 L104.4 -0.1167 L104.4 -2.05 L106.2 -1.164 L108.1 -0.2786 L109.9 0.6071 L111.7 1.493 L113.5 2.379 L115.4 3.264 L117.2 4.15 L117.2 6.017 L117.2 7.883 L117.2 9.75 Z " />
<path stroke="rgb(0,0,0)" stroke-opacity="1" fill="rgb(244,227,211)" fill-opacity="1" id="a13_1_" d="M115 29.65 L113.2 28.82 L111.4 27.98 L109.6 27.15 L107.9 26.32 L106.1 25.48 L104.3 24.65 L104.3 22.59 L104.3 20.52 L104.3 18.46 L104.3 16.4 L104.3 14.34 L104.3 12.27 L104.3 10.21 L104.3 8.15 L106.1 8.983 L107.9 9.817 L109.6 10.65 L111.4 11.48 L113.2 12.32 L115 13.15 L115 15.21 L115 17.27 L115 19.34 L115 21.4 L115 23.46 L115 25.52 L115 27.59 L115 29.65 Z " />
<path stroke="rgb(0,0,0)" stroke-opacity="1" fill="rgb(200,200,200)" fill-opacity="1" id="a1_2_" d="M-110.5 -73.45 L-112.2 -74.33 L-114 -75.2 L-115.7 -76.08 L-117.5 -76.96 L-119.2 -77.84 L-121 -78.71 L-122.7 -79.59 L-124.5 -80.47 L-126.2 -81.35 L-128 -82.22 L-129.8 -83.1 L-131.5 -83.98 L-133.3 -84.85 L-135 -85.73 L-136.8 -86.61 L-138.5 -87.49 L-140.3 -88.36 L-142 -89.24 L-143.8 -90.12 L-145.5 -91 L-147.3 -91.87 L-149 -92.75 L-149 -94.61 L-149 -96.47 L-149 -98.33 L-149 -100.2 L-149 -102 L-147.3 -101.2 L-145.5 -100.3 L-143.8 -99.4 L-142 -98.52 L-140.3 -97.64 L-138.5 -96.76 L-136.8 -95.88 L-135 -95 L-133.3 -94.11 L-131.5 -93.23 L-129.8 -92.35 L-128 -91.47 L-126.2 -90.59 L-124.5 -89.7 L-122.7 -88.82 L-121 -87.94 L-119.2 -87.06 L-117.5 -86.18 L-115.7 -85.3 L-114 -84.41 L-112.2 -83.53 L-110.5 -82.65 L-110.5 -80.81 L-110.5 -78.97 L-110.5 -77.13 L-110.5 -75.29 L-110.5 -73.45 Z " />
<path stroke="rgb(0,0,0)" stroke-opacity="1" fill="rgb(200,200,200)" fill-opacity="1" id="a4_2_" d="M-89.9 -108.2 L-91.69 -109 L-93.49 -109.9 L-95.28 -110.8 L-97.08 -111.7 L-98.87 -112.6 L-100.7 -113.5 L-102.5 -114.4 L-104.3 -115.3 L-106 -116.2 L-107.8 -117.1 L-109.6 -118 L-111.4 -118.9 L-113.2 -119.8 L-115 -120.7 L-116.8 -121.6 L-118.6 -122.5 L-120.4 -123.3 L-122.2 -124.2 L-124 -125.1 L-125.8 -126 L-127.6 -126.9 L-129.4 -127.8 L-131.2 -128.7 L-133 -129.6 L-134.7 -130.5 L-136.5 -131.4 L-138.3 -132.3 L-140.1 -133.2 L-141.9 -134.1 L-143.7 -135 L-145.5 -135.9 L-147.3 -136.8 L-149.1 -137.7 L-149.1 -139.7 L-149.1 -141.7 L-149.1 -143.7 L-149.1 -145.7 L-149.1 -147.7 L-149.1 -149.7 L-149.1 -151.8 L-147.3 -150.9 L-145.5 -150 L-143.7 -149.1 L-141.9 -148.2 L-140.1 -147.3 L-138.3 -146.4 L-136.5 -145.5 L-134.7 -144.6 L-133 -143.7 L-131.2 -142.8 L-129.4 -142 L-127.6 -141.1 L-125.8 -140.2 L-124 -139.3 L-122.2 -138.4 L-120.4 -137.5 L-118.6 -136.6 L-116.8 -135.7 L-115 -134.8 L-113.2 -133.9 L-111.4 -133 L-109.6 -132.2 L-107.8 -131.3 L-106 -130.4 L-104.3 -129.5 L-102.5 -128.6 L-100.7 -127.7 L-98.87 -126.8 L-97.08 -125.9 L-95.28 -125 L-93.49 -124.1 L-91.69 -123.2 L-89.9 -122.3 L-89.9 -120.3 L-89.9 -118.3 L-89.9 -116.3 L-89.9 -114.2 L-89.9 -112.2 L-89.9 -110.2 L-89.9 -108.2 Z " />
<path stroke="rgb(0,0,0)" stroke-opacity="1" fill="rgb(200,200,200)" fill-opacity="1" id="a2_1_" d="M-109.1 -87.55 L-110.9 -88.45 L-112.7 -89.36 L-114.6 -90.26 L-116.4 -91.17 L-118.2 -92.07 L-120 -92.98 L-121.8 -93.88 L-123.6 -94.79 L-125.5 -95.69 L-127.3 -96.6 L-129.1 -97.5 L-130.9 -98.4 L-132.7 -99.31 L-134.6 -100.2 L-136.4 -101.1 L-138.2 -102 L-140 -102.9 L-141.8 -103.8 L-143.6 -104.7 L-145.5 -105.6 L-147.3 -106.5 L-149.1 -107.5 L-149.1 -109.4 L-149.1 -111.3 L-149.1 -113.3 L-149.1 -115.2 L-149.1 -117.2 L-147.3 -116.2 L-145.5 -115.3 L-143.6 -114.4 L-141.8 -113.5 L-140 -112.6 L-138.2 -111.7 L-136.4 -110.8 L-134.6 -109.9 L-132.7 -109 L-130.9 -108.1 L-129.1 -107.2 L-127.3 -106.2 L-125.5 -105.3 L-123.6 -104.4 L-121.8 -103.5 L-120 -102.6 L-118.2 -101.7 L-116.4 -100.8 L-114.6 -99.88 L-112.7 -98.97 L-110.9 -98.06 L-109.1 -97.15 L-109.1 -95.23 L-109.1 -93.31 L-109.1 -91.39 L-109.1 -89.47 L-109.1 -87.55 Z " />
<path stroke="rgb(0,0,0)" stroke-opacity="1" fill="rgb(200,200,200)" fill-opacity="1" id="a3_1_" d="M-105.8 -101.2 L-107.6 -102 L-109.4 -102.9 L-111.2 -103.8 L-113 -104.7 L-114.8 -105.6 L-116.6 -106.5 L-118.4 -107.4 L-120.2 -108.3 L-122 -109.2 L-123.8 -110.1 L-125.6 -111 L-127.4 -111.8 L-129.3 -112.7 L-131.1 -113.6 L-132.9 -114.5 L-134.7 -115.4 L-136.5 -116.3 L-138.3 -117.2 L-140.1 -118.1 L-141.9 -119 L-143.7 -119.9 L-145.5 -120.8 L-147.3 -121.7 L-149.1 -122.5 L-149.1 -124.6 L-149.1 -126.7 L-149.1 -128.8 L-149.1 -130.9 L-149.1 -133 L-147.3 -132.1 L-145.5 -131.2 L-143.7 -130.3 L-141.9 -129.4 L-140.1 -128.5 L-138.3 -127.6 L-136.5 -126.7 L-134.7 -125.8 L-132.9 -124.9 L-131.1 -124 L-129.3 -123.1 L-127.4 -122.3 L-125.6 -121.4 L-123.8 -120.5 L-122 -119.6 L-120.2 -118.7 L-118.4 -117.8 L-116.6 -116.9 L-114.8 -116 L-113 -115.1 L-111.2 -114.2 L-109.4 -113.3 L-107.6 -112.4 L-105.8 -111.5 L-105.8 -109.5 L-105.8 -107.4 L-105.8 -105.3 L-105.8 -103.2 L-105.8 -101.2 Z " />
<path stroke="rgb(0,0,0)" stroke-opacity="1" fill="rgb(244,227,211)" fill-opacity="1" id="a11_1_" d="M-15.3 70.85 L-17.12 70.04 L-18.94 69.23 L-20.76 68.42 L-22.57 67.61 L-24.39 66.79 L-26.21 65.98 L-28.03 65.17 L-29.85 64.36 L-31.67 63.55 L-33.49 62.74 L-35.3 61.93 L-37.12 61.12 L-38.94 60.31 L-40.76 59.49 L-42.58 58.68 L-44.4 57.87 L-46.21 57.06 L-48.03 56.25 L-49.85 55.44 L-51.67 54.63 L-53.49 53.82 L-55.31 53.01 L-57.13 52.19 L-58.94 51.38 L-60.76 50.57 L-62.58 49.76 L-64.4 48.95 L-64.45 47 L-64.5 45.05 L-62.68 45.86 L-60.86 46.68 L-59.04 47.49 L-57.23 48.31 L-55.41 49.12 L-53.59 49.94 L-51.77 50.75 L-49.95 51.57 L-48.13 52.38 L-46.31 53.2 L-44.5 54.01 L-42.68 54.83 L-40.86 55.64 L-39.04 56.46 L-37.22 57.27 L-35.4 58.09 L-33.59 58.9 L-31.77 59.72 L-29.95 60.53 L-28.13 61.35 L-26.31 62.16 L-24.49 62.98 L-22.67 63.79 L-20.86 64.61 L-19.04 65.42 L-17.22 66.24 L-15.4 67.05 L-15.35 68.95 L-15.3 70.85 Z " />
<path stroke="rgb(0,0,0)" stroke-opacity="1" fill="rgb(244,200,200)" fill-opacity="1" id="fus1_1_" d="M-95.66 56.79 L-97.46 56.03 L-99.26 55.27 L-101.1 54.51 L-102.9 53.75 L-104.7 52.99 L-104.7 51.13 L-104.7 49.27 L-104.7 47.41 L-104.7 45.55 L-104.7 43.69 L-102.9 44.45 L-101.1 45.21 L-99.26 45.97 L-97.46 46.73 L-95.66 47.49 L-95.66 49.35 L-95.66 51.21 L-95.66 53.07 L-95.66 54.93 L-95.66 56.79 Z " />
<path stroke="rgb(0,0,0)" stroke-opacity="1" fill="rgb(244,200,200)" fill-opacity="1" id="fus2_1_" d="M-96.5 60.95 L-98.3 60.17 L-100.1 59.39 L-101.9 58.61 L-103.7 57.83 L-105.5 57.05 L-105.5 55.17 L-105.4 53.29 L-105.4 51.41 L-105.3 49.53 L-105.3 47.65 L-103.5 48.41 L-101.8 49.17 L-100 49.93 L-98.26 50.69 L-96.5 51.45 L-96.5 53.35 L-96.5 55.25 L-96.5 57.15 L-96.5 59.05 L-96.5 60.95 Z " />
<path stroke="rgb(0,0,0)" stroke-opacity="1" fill="rgb(244,200,200)" fill-opacity="1" id="fus3_1_" d="M-95.6 56.45 L-97.38 55.69 L-99.16 54.93 L-100.9 54.17 L-102.7 53.41 L-104.5 52.65 L-104.5 50.79 L-104.5 48.93 L-104.5 47.07 L-104.5 45.21 L-104.5 43.35 L-102.7 44.11 L-100.9 44.87 L-99.1 45.63 L-97.3 46.39 L-95.5 47.15 L-95.52 49.01 L-95.54 50.87 L-95.56 52.73 L-95.58 54.59 L-95.6 56.45 Z " />
<path stroke="rgb(0,0,0)" stroke-opacity="1" fill="rgb(244,200,200)" fill-opacity="1" id="fus4_1_" d="M-96.5 60.45 L-98.3 59.67 L-100.1 58.89 L-101.9 58.11 L-103.7 57.33 L-105.5 56.55 L-105.5 54.69 L-105.5 52.83 L-105.5 50.97 L-105.5 49.11 L-105.5 47.25 L-103.7 48.03 L-101.9 48.81 L-100.1 49.59 L-98.3 50.37 L-96.5 51.15 L-96.5 53.01 L-96.5 54.87 L-96.5 56.73 L-96.5 58.59 L-96.5 60.45 Z " />
<path stroke="rgb(0,0,0)" stroke-opacity="1" fill="rgb(173,200,200)" fill-opacity="1" id="swap1_1_" d="M30.26 -111.1 L28.44 -112 L26.62 -113 L24.8 -114 L22.98 -114.9 L21.16 -115.9 L19.34 -116.8 L17.52 -117.8 L15.7 -118.8 L13.88 -119.7 L12.06 -120.7 L12.07 -122.7 L12.08 -124.7 L12.09 -126.7 L12.1 -128.7 L12.11 -130.7 L12.12 -132.8 L12.13 -134.8 L12.14 -136.8 L12.16 -138.8 L13.98 -137.8 L15.8 -136.8 L17.62 -135.9 L19.44 -134.9 L21.26 -133.9 L23.08 -133 L24.9 -132 L26.72 -131 L28.54 -130.1 L30.36 -129.1 L30.34 -127.1 L30.33 -125.1 L30.32 -123.1 L30.31 -121.1 L30.3 -119.1 L30.29 -117.1 L30.28 -115.1 L30.27 -113.1 L30.26 -111.1 Z " />
<path stroke="rgb(0,0,0)" stroke-opacity="1" fill="rgb(173,200,200)" fill-opacity="1" id="swap3_1_" d="M20.8 -134 L18.98 -135 L17.16 -135.9 L15.34 -136.9 L13.52 -137.9 L11.7 -138.8 L9.88 -139.8 L8.06 -140.7 L6.24 -141.7 L4.42 -142.7 L2.6 -143.6 L2.611 -145.6 L2.622 -147.6 L2.633 -149.7 L2.644 -151.7 L2.656 -153.7 L2.667 -155.7 L2.678 -157.7 L2.689 -159.7 L2.7 -161.7 L4.52 -160.8 L6.34 -159.8 L8.16 -158.8 L9.98 -157.9 L11.8 -156.9 L13.62 -156 L15.44 -155 L17.26 -154 L19.08 -153.1 L20.9 -152.1 L20.89 -150.1 L20.88 -148.1 L20.87 -146.1 L20.86 -144.1 L20.84 -142.1 L20.83 -140.1 L20.82 -138 L20.81 -136 L20.8 -134 Z " />
<path stroke="rgb(0,0,0)" stroke-opacity="1" fill="rgb(173,200,200)" fill-opacity="1" id="swap2_1_" d="M11.44 -120.7 L9.624 -121.7 L7.804 -122.6 L5.984 -123.6 L4.164 -124.6 L2.344 -125.5 L0.524 -126.5 L-1.296 -127.4 L-3.116 -128.4 L-4.936 -129.4 L-6.756 -130.3 L-6.745 -132.3 L-6.734 -134.3 L-6.723 -136.3 L-6.712 -138.4 L-6.7 -140.4 L-6.689 -142.4 L-6.678 -144.4 L-6.667 -146.4 L-6.656 -148.4 L-4.826 -147.5 L-2.996 -146.5 L-1.166 -145.5 L0.664 -144.6 L2.494 -143.6 L4.324 -142.7 L6.154 -141.7 L7.984 -140.7 L9.814 -139.8 L11.64 -138.8 L11.62 -136.8 L11.6 -134.8 L11.58 -132.8 L11.56 -130.8 L11.53 -128.8 L11.51 -126.7 L11.49 -124.7 L11.47 -122.7 L11.44 -120.7 Z " />
<path stroke="rgb(0,0,0)" stroke-opacity="1" fill="rgb(173,200,200)" fill-opacity="1" id="swap4_1_" d="M20.7 -98.07 L18.88 -99.05 L17.06 -100 L15.24 -101 L13.42 -102 L11.6 -103 L9.78 -104 L7.96 -104.9 L6.14 -105.9 L4.32 -106.9 L2.5 -107.9 L2.511 -109.9 L2.522 -111.9 L2.533 -113.9 L2.544 -115.9 L2.556 -117.9 L2.567 -119.9 L2.578 -121.9 L2.589 -123.9 L2.6 -125.9 L4.43 -124.9 L6.26 -123.9 L8.09 -123 L9.92 -122 L11.75 -121 L13.58 -120.1 L15.41 -119.1 L17.24 -118.1 L19.07 -117.1 L20.9 -116.2 L20.88 -114.2 L20.86 -112.2 L20.83 -110.1 L20.81 -108.1 L20.79 -106.1 L20.77 -104.1 L20.74 -102.1 L20.72 -100.1 L20.7 -98.07 Z " />
<path stroke="rgb(0,0,0)" stroke-opacity="1" fill="rgb(244,227,211)" fill-opacity="1" id="a10_5_" d="M40 -46.65 L38.24 -45.63 L36.48 -44.6 L34.71 -43.57 L32.95 -42.55 L31.19 -41.53 L29.42 -40.5 L27.66 -39.48 L25.9 -38.45 L24.14 -37.43 L22.37 -36.4 L20.61 -35.38 L18.85 -34.35 L17.09 -33.33 L15.32 -32.3 L13.56 -31.28 L11.8 -30.25 L10.04 -31.28 L8.275 -32.3 L6.512 -33.33 L4.75 -34.35 L2.987 -35.38 L1.225 -36.4 L-0.5375 -37.43 L-2.3 -38.45 L-4.063 -39.48 L-5.825 -40.5 L-7.587 -41.53 L-9.35 -42.55 L-11.11 -43.57 L-12.87 -44.6 L-14.64 -45.63 L-16.4 -46.65 L-14.64 -47.68 L-12.87 -48.7 L-11.11 -49.72 L-9.35 -50.75 L-7.587 -51.77 L-5.825 -52.8 L-4.063 -53.82 L-2.3 -54.85 L-0.5375 -55.87 L1.225 -56.9 L2.987 -57.92 L4.75 -58.95 L6.512 -59.97 L8.275 -61 L10.04 -62.02 L11.8 -63.05 L13.56 -62.02 L15.32 -61 L17.09 -59.97 L18.85 -58.95 L20.61 -57.92 L22.37 -56.9 L24.14 -55.87 L25.9 -54.85 L27.66 -53.82 L29.42 -52.8 L31.19 -51.77 L32.95 -50.75 L34.71 -49.72 L36.48 -48.7 L38.24 -47.68 L40 -46.65 Z " />
<path stroke="rgb(0,0,0)" stroke-opacity="1" fill="rgb(244,227,211)" fill-opacity="1" id="a10_4_" d="M40.5 -11.85 L40.5 -13.85 L40.5 -15.85 L40.5 -17.85 L40.5 -19.85 L40.5 -21.85 L40.5 -23.85 L40.5 -25.85 L40.5 -27.85 L40.5 -29.85 L40.5 -31.85 L40.5 -33.85 L40.5 -35.85 L40.5 -37.85 L40.5 -39.85 L40.5 -41.85 L40.5 -43.85 L40.5 -45.85 L38.74 -44.83 L36.98 -43.8 L35.21 -42.78 L33.45 -41.75 L31.69 -40.73 L29.92 -39.7 L28.16 -38.68 L26.4 -37.65 L24.64 -36.62 L22.87 -35.6 L21.11 -34.57 L19.35 -33.55 L17.59 -32.52 L15.82 -31.5 L14.06 -30.47 L12.3 -29.45 L12.3 -27.44 L12.3 -25.44 L12.3 -23.43 L12.3 -21.43 L12.3 -19.42 L12.3 -17.42 L12.3 -15.41 L12.3 -13.41 L12.3 -11.4 L12.3 -9.397 L12.3 -7.392 L12.3 -5.387 L12.3 -3.382 L12.3 -1.376 L12.3 0.6289 L12.3 2.634 L12.3 4.639 L12.3 6.645 L12.3 8.65 L13.96 7.444 L15.62 6.238 L17.28 5.032 L18.94 3.826 L20.59 2.621 L22.25 1.415 L23.91 0.2088 L25.57 -0.9971 L27.23 -2.203 L28.89 -3.409 L30.55 -4.615 L32.21 -5.821 L33.86 -7.026 L35.52 -8.232 L37.18 -9.438 L38.84 -10.64 L40.5 -11.85 Z " />
<path stroke="rgb(0,0,0)" stroke-opacity="1" fill="rgb(244,227,211)" fill-opacity="1" id="a10_3_" d="M-16.8 -45.85 L-16.8 -43.85 L-16.8 -41.85 L-16.8 -39.85 L-16.8 -37.85 L-16.8 -35.85 L-16.8 -33.85 L-16.8 -31.85 L-16.8 -29.85 L-16.8 -27.85 L-16.8 -25.85 L-16.8 -23.85 L-16.8 -21.85 L-16.8 -19.85 L-16.8 -17.85 L-16.8 -15.85 L-16.8 -13.85 L-16.8 -11.85 L-15.14 -10.64 L-13.48 -9.438 L-11.82 -8.232 L-10.16 -7.026 L-8.506 -5.821 L-6.847 -4.615 L-5.188 -3.409 L-3.529 -2.203 L-1.871 -0.9971 L-0.2118 0.2088 L1.447 1.415 L3.106 2.621 L4.765 3.826 L6.424 5.032 L8.082 6.238 L9.741 7.444 L11.4 8.65 L11.4 6.645 L11.4 4.639 L11.4 2.634 L11.4 0.6289 L11.4 -1.376 L11.4 -3.382 L11.4 -5.387 L11.4 -7.392 L11.4 -9.397 L11.4 -11.4 L11.4 -13.41 L11.4 -15.41 L11.4 -17.42 L11.4 -19.42 L11.4 -21.43 L11.4 -23.43 L11.4 -25.44 L11.4 -27.44 L11.4 -29.45 L9.637 -30.47 L7.875 -31.5 L6.112 -32.52 L4.35 -33.55 L2.587 -34.57 L0.825 -35.6 L-0.9375 -36.62 L-2.7 -37.65 L-4.462 -38.68 L-6.225 -39.7 L-7.987 -40.73 L-9.75 -41.75 L-11.51 -42.78 L-13.27 -43.8 L-15.04 -44.83 L-16.8 -45.85 Z " />
<path stroke="rgb(0,0,0)" stroke-opacity="1" fill="rgb(200,200,200)" fill-opacity="1" id="circ1_5_" d="M-99.28 -0.17 L-100.9 0.75 L-102.4 1.67 L-104 2.59 L-105.6 3.51 L-107.2 4.43 L-108.8 3.51 L-110.3 2.59 L-111.9 1.67 L-113.5 0.75 L-115.1 -0.17 L-113.5 -1.09 L-111.9 -2.01 L-110.3 -2.93 L-108.8 -3.85 L-107.2 -4.77 L-105.6 -3.85 L-104 -2.93 L-102.4 -2.01 L-100.9 -1.09 L-99.28 -0.17 Z " />
<path stroke="rgb(0,0,0)" stroke-opacity="1" fill="rgb(200,200,200)" fill-opacity="1" id="circ1_4_" d="M-99.18 9.63 L-99.18 7.73 L-99.18 5.83 L-99.18 3.93 L-99.18 2.03 L-99.18 0.13 L-100.8 1.03 L-102.3 1.93 L-103.9 2.83 L-105.5 3.73 L-107.1 4.63 L-107.1 6.77 L-107.1 8.91 L-107.1 11.05 L-107.1 13.19 L-107.1 15.33 L-105.5 14.19 L-103.9 13.05 L-102.3 11.91 L-100.8 10.77 L-99.18 9.63 Z " />
<path stroke="rgb(0,0,0)" stroke-opacity="1" fill="rgb(200,200,200)" fill-opacity="1" id="circ1_3_" d="M-115.3 0.13 L-115.3 2.03 L-115.3 3.93 L-115.3 5.83 L-115.3 7.73 L-115.3 9.63 L-113.7 10.77 L-112.1 11.91 L-110.5 13.05 L-109 14.19 L-107.4 15.33 L-107.4 13.19 L-107.4 11.05 L-107.4 8.91 L-107.4 6.77 L-107.4 4.63 L-109 3.73 L-110.5 2.83 L-112.1 1.93 L-113.7 1.03 L-115.3 0.13 Z " />
<path stroke="rgb(0,0,0)" stroke-opacity="1" fill="rgb(200,200,200)" fill-opacity="1" id="circ2_5_" d="M-61.82 -27.73 L-63.4 -26.81 L-64.98 -25.89 L-66.56 -24.97 L-68.14 -24.05 L-69.72 -23.13 L-71.3 -24.05 L-72.88 -24.97 L-74.46 -25.89 L-76.04 -26.81 L-77.62 -27.73 L-76.04 -28.63 L-74.46 -29.53 L-72.88 -30.43 L-71.3 -31.33 L-69.72 -32.23 L-68.14 -31.33 L-66.56 -30.43 L-64.98 -29.53 L-63.4 -28.63 L-61.82 -27.73 Z " />
<path stroke="rgb(0,0,0)" stroke-opacity="1" fill="rgb(200,200,200)" fill-opacity="1" id="circ2_4_" d="M-61.72 -17.93 L-61.72 -19.83 L-61.72 -21.73 L-61.72 -23.63 L-61.72 -25.53 L-61.72 -27.43 L-63.3 -26.51 L-64.88 -25.59 L-66.46 -24.67 L-68.04 -23.75 L-69.62 -22.83 L-69.62 -20.71 L-69.62 -18.59 L-69.62 -16.47 L-69.62 -14.35 L-69.62 -12.23 L-68.04 -13.37 L-66.46 -14.51 L-64.88 -15.65 L-63.3 -16.79 L-61.72 -17.93 Z " />
<path stroke="rgb(0,0,0)" stroke-opacity="1" fill="rgb(200,200,200)" fill-opacity="1" id="circ2_3_" d="M-77.82 -27.43 L-77.82 -25.53 L-77.82 -23.63 L-77.82 -21.73 L-77.82 -19.83 L-77.82 -17.93 L-76.24 -16.79 L-74.66 -15.65 L-73.08 -14.51 L-71.5 -13.37 L-69.92 -12.23 L-69.92 -14.35 L-69.92 -16.47 L-69.92 -18.59 L-69.92 -20.71 L-69.92 -22.83 L-71.5 -23.75 L-73.08 -24.67 L-74.66 -25.59 L-76.24 -26.51 L-77.82 -27.43 Z " />
<path stroke="rgb(0,0,0)" stroke-opacity="1" fill="rgb(148,200,200)" fill-opacity="1" id="bb1" d="M60.39 -12.79 L62.19 -11.94 L63.99 -11.09 L65.8 -10.24 L67.6 -9.39 L69.4 -8.539 L71.2 -7.689 L73 -6.838 L74.81 -5.988 L76.61 -5.138 L78.41 -4.287 L80.21 -3.437 L82.01 -2.586 L83.82 -1.736 L85.62 -0.8854 L87.42 -0.03496 L89.22 0.8155 L91.02 1.666 L92.83 0.7129 L94.63 -0.2401 L96.43 -1.193 L98.23 -2.146 L100 -3.099 L101.8 -4.052 L103.6 -5.005 L105.4 -5.958 L107.2 -6.911 L109 -7.864 L110.8 -8.817 L112.6 -9.77 L112.7 -11.81 L112.7 -13.85 L112.7 -15.89 L112.7 -17.94 L112.7 -19.98 L112.7 -22.02 L112.7 -24.06 L112.7 -26.1 L112.8 -28.14 L112.8 -30.19 L112.8 -32.23 L112.8 -34.27 L112.8 -36.31 L112.8 -38.35 L112.8 -40.39 L111.7 -42.07 L110.6 -43.76 L109.5 -45.44 L108.3 -47.12 L107.2 -48.8 L106.1 -50.48 L105 -52.17 L103.8 -53.85 L102.7 -55.53 L101.6 -57.21 L100.5 -58.89 L99.35 -60.58 L98.23 -62.26 L97.11 -63.94 L95.98 -65.62 L94.86 -67.3 L93.74 -68.98 L92.61 -70.67 L91.49 -72.35 L89.69 -73.2 L87.88 -74.05 L86.08 -74.9 L84.28 -75.75 L82.48 -76.6 L80.68 -77.45 L78.88 -78.3 L77.07 -79.15 L75.27 -80 L73.47 -80.85 L71.67 -81.7 L69.87 -82.55 L68.06 -83.4 L66.26 -84.25 L64.46 -85.11 L62.66 -85.96 L60.86 -86.81 L59.04 -85.85 L57.22 -84.9 L55.4 -83.95 L53.58 -82.99 L51.76 -82.04 L49.95 -81.09 L48.13 -80.14 L46.31 -79.18 L44.49 -78.23 L42.67 -77.28 L40.86 -76.32 L39.04 -75.37 L39.02 -73.33 L39.01 -71.29 L39 -69.25 L38.99 -67.21 L38.97 -65.16 L38.96 -63.12 L38.95 -61.08 L38.93 -59.04 L38.92 -57 L38.91 -54.96 L38.9 -52.91 L38.88 -50.87 L38.87 -48.83 L38.86 -46.79 L38.84 -44.75 L39.98 -43.07 L41.11 -41.38 L42.25 -39.7 L43.38 -38.02 L44.51 -36.34 L45.65 -34.66 L46.78 -32.97 L47.92 -31.29 L49.05 -29.61 L50.18 -27.93 L51.32 -26.25 L52.45 -24.56 L53.59 -22.88 L54.72 -21.2 L55.85 -19.52 L56.99 -17.84 L58.12 -16.16 L59.26 -14.47 L60.39 -12.79 Z " />
<path stroke="rgb(0,0,0)" stroke-opacity="1" fill="rgb(236,216,157)" fill-opacity="1" id="scltrs1" d="M-161.9 2.899 L-163.1 4.453 L-164.4 6.007 L-165.6 7.562 L-166.8 9.116 L-168 10.67 L-169.3 12.22 L-170.5 13.78 L-171.7 15.33 L-172.9 16.89 L-174.2 18.44 L-175.4 20 L-176.6 21.55 L-177.8 23.1 L-179.1 24.66 L-180.3 26.21 L-181.5 27.77 L-182.7 29.32 L-184 30.88 L-185.2 32.43 L-186.4 33.98 L-187.7 35.54 L-188.9 37.09 L-190.1 38.65 L-191.3 40.2 L-192.6 41.76 L-193.8 43.31 L-195 44.86 L-196.2 46.42 L-197.5 47.97 L-198.7 49.53 L-199.9 51.08 L-201.1 52.64 L-202.4 54.19 L-203.6 55.74 L-204.8 57.3 L-206 58.85 L-204.2 59.69 L-202.4 60.54 L-200.6 61.38 L-198.8 62.22 L-197 63.06 L-195.2 63.9 L-193.4 64.74 L-191.6 65.59 L-189.8 66.43 L-188 67.27 L-186.2 68.11 L-184.4 68.95 L-182.6 69.79 L-180.8 70.64 L-179 71.48 L-177.2 72.32 L-175.4 73.16 L-173.6 74 L-171.8 74.84 L-170 75.69 L-168.2 76.53 L-166.4 77.37 L-164.6 78.21 L-162.8 79.05 L-161 79.89 L-159.2 80.74 L-157.4 81.58 L-155.6 82.42 L-153.8 83.26 L-152 84.1 L-150.2 84.94 L-148.4 85.79 L-146.6 86.63 L-144.8 87.47 L-143 88.31 L-141.2 89.15 L-139.4 89.99 L-137.6 90.84 L-135.8 91.68 L-134 92.52 L-132.2 93.36 L-130.4 94.2 L-128.6 95.04 L-126.8 95.88 L-125 96.73 L-123.2 97.57 L-121.4 98.41 L-119.6 99.25 L-117.8 100.1 L-118.6 98.26 L-119.4 96.43 L-120.3 94.59 L-121.1 92.76 L-121.9 90.92 L-122.8 89.09 L-123.6 87.26 L-124.4 85.42 L-125.3 83.59 L-126.1 81.75 L-126.9 79.92 L-127.8 78.09 L-128.6 76.25 L-129.4 74.42 L-130.3 72.59 L-131.1 70.75 L-131.9 68.92 L-132.8 67.08 L-133.6 65.25 L-134.4 63.42 L-135.3 61.58 L-136.1 59.75 L-136.9 57.91 L-137.7 56.08 L-138.6 54.25 L-139.4 52.41 L-140.2 50.58 L-141.1 48.75 L-141.9 46.91 L-142.7 45.08 L-143.6 43.24 L-144.4 41.41 L-145.2 39.58 L-146.1 37.74 L-146.9 35.91 L-147.7 34.07 L-148.6 32.24 L-149.4 30.41 L-150.2 28.57 L-151.1 26.74 L-151.9 24.91 L-152.7 23.07 L-153.6 21.24 L-154.4 19.4 L-155.2 17.57 L-156.1 15.74 L-156.9 13.9 L-157.7 12.07 L-158.6 10.23 L-159.4 8.4 L-160.2 6.567 L-161.1 4.733 L-161.9 2.899 Z " />
<path stroke="rgb(0,0,0)" stroke-opacity="1" fill="rgb(255,255,255)" fill-opacity="1" id="a5" d="M-62.4 134.3 L-62.51 136.7 L-62.82 138.8 L-63.33 140.8 L-64.03 142.7 L-64.92 144.4 L-65.97 145.8 L-67.18 147.2 L-68.54 148.3 L-70.05 149.2 L-71.69 150 L-73.45 150.5 L-75.33 150.8 L-77.32 150.9 L-79.4 150.9 L-81.57 150.5 L-83.81 150 L-86.13 149.2 L-88.5 148.2 L-90.29 147.4 L-92.04 146.4 L-93.76 145.3 L-95.43 144.1 L-97.07 142.8 L-98.65 141.5 L-100.2 140.1 L-101.7 138.6 L-103.1 137 L-104.4 135.4 L-105.7 133.7 L-107 132 L-108.1 130.3 L-109.2 128.5 L-110.1 126.7 L-111 124.9 L-111.8 123 L-112.5 121.2 L-113.2 119.3 L-113.7 117.4 L-114.1 115.6 L-114.4 113.7 L-114.5 111.9 L-114.6 110 L-114.5 107.7 L-114.2 105.6 L-113.7 103.6 L-113 101.7 L-112.1 100 L-111 98.56 L-109.8 97.25 L-108.5 96.12 L-107 95.19 L-105.3 94.45 L-103.5 93.91 L-101.7 93.58 L-99.68 93.45 L-97.6 93.54 L-95.43 93.85 L-93.19 94.39 L-90.87 95.15 L-88.5 96.15 L-86.71 97.04 L-84.96 98.03 L-83.24 99.12 L-81.57 100.3 L-79.93 101.6 L-78.35 102.9 L-76.81 104.3 L-75.33 105.8 L-73.91 107.4 L-72.56 109 L-71.27 110.7 L-70.05 112.4 L-68.91 114.1 L-67.84 115.9 L-66.86 117.7 L-65.97 119.5 L-65.16 121.4 L-64.45 123.2 L-63.84 125.1 L-63.33 127 L-62.93 128.8 L-62.64 130.7 L-62.46 132.5 L-62.4 134.3 Z " />
<path stroke="rgb(0,0,0)" stroke-opacity="1" fill="rgb(255,255,255)" fill-opacity="1" id="a17" d="M-96 -128.5 L-97.21 -127 L-98.42 -125.5 L-99.62 -124 L-100.8 -122.4 L-102 -120.9 L-103.2 -119.4 L-104.5 -117.8 L-105.7 -116.3 L-106.9 -114.8 L-108.1 -113.2 L-109.3 -111.7 L-110.5 -110.2 L-111.7 -108.7 L-109.9 -107.8 L-108 -106.9 L-106.2 -106.1 L-104.3 -105.2 L-102.5 -104.3 L-100.6 -103.5 L-98.77 -102.6 L-96.92 -101.7 L-95.08 -100.9 L-93.23 -100 L-91.38 -99.14 L-89.54 -98.27 L-87.69 -97.41 L-85.84 -96.54 L-83.99 -95.68 L-82.15 -94.81 L-80.3 -93.95 L-81.13 -95.77 L-81.95 -97.59 L-82.78 -99.41 L-83.61 -101.2 L-84.43 -103.1 L-85.26 -104.9 L-86.08 -106.7 L-86.91 -108.5 L-87.74 -110.3 L-88.56 -112.2 L-89.39 -114 L-90.22 -115.8 L-91.04 -117.6 L-91.87 -119.4 L-92.69 -121.3 L-93.52 -123.1 L-94.35 -124.9 L-95.17 -126.7 L-96 -128.5 Z " />
<path stroke="rgb(0,0,0)" stroke-opacity="1" fill="rgb(255,255,255)" fill-opacity="1" id="a16" d="M-96 -70.95 L-94.79 -72.48 L-93.58 -74.01 L-92.38 -75.54 L-91.17 -77.07 L-89.96 -78.6 L-88.75 -80.13 L-87.55 -81.67 L-86.34 -83.2 L-85.13 -84.73 L-83.92 -86.26 L-82.72 -87.79 L-81.51 -89.32 L-80.3 -90.85 L-82.15 -91.71 L-83.99 -92.57 L-85.84 -93.43 L-87.69 -94.29 L-89.54 -95.14 L-91.38 -96 L-93.23 -96.86 L-95.08 -97.72 L-96.92 -98.58 L-98.77 -99.44 L-100.6 -100.3 L-102.5 -101.2 L-104.3 -102 L-106.2 -102.9 L-108 -103.7 L-109.9 -104.6 L-111.7 -105.5 L-110.9 -103.6 L-110 -101.8 L-109.2 -100 L-108.4 -98.19 L-107.6 -96.37 L-106.7 -94.56 L-105.9 -92.74 L-105.1 -90.92 L-104.3 -89.11 L-103.4 -87.29 L-102.6 -85.48 L-101.8 -83.66 L-101 -81.84 L-100.1 -80.03 L-99.31 -78.21 L-98.48 -76.4 L-97.65 -74.58 L-96.83 -72.77 L-96 -70.95 Z " />
<path stroke="rgb(0,0,0)" stroke-opacity="1" fill="rgb(173,200,200)" fill-opacity="1" id="swap2" d="M-49.36 -63.11 L-49.61 -60.99 L-50.33 -59.28 L-51.47 -58.01 L-52.97 -57.21 L-54.77 -56.91 L-56.82 -57.13 L-59.06 -57.91 L-60.81 -58.88 L-62.46 -60.1 L-63.97 -61.53 L-65.32 -63.12 L-66.49 -64.83 L-67.44 -66.63 L-68.15 -68.47 L-68.6 -70.31 L-68.76 -72.11 L-68.5 -74.2 L-67.78 -75.9 L-66.64 -77.17 L-65.14 -77.99 L-63.34 -78.3 L-61.29 -78.09 L-59.06 -77.31 L-57.3 -76.35 L-55.65 -75.14 L-54.14 -73.72 L-52.79 -72.14 L-51.62 -70.43 L-50.67 -68.64 L-49.96 -66.8 L-49.51 -64.94 L-49.36 -63.11 Z " />
<path stroke="rgb(0,0,0)" stroke-opacity="1" fill="rgb(173,200,200)" fill-opacity="1" id="swap4" d="M-33.4 -40.67 L-33.65 -38.55 L-34.38 -36.84 L-35.52 -35.57 L-37.02 -34.77 L-38.82 -34.47 L-40.86 -34.69 L-43.1 -35.47 L-44.85 -36.44 L-46.5 -37.66 L-48.01 -39.09 L-49.37 -40.68 L-50.53 -42.39 L-51.49 -44.19 L-52.2 -46.03 L-52.65 -47.87 L-52.8 -49.67 L-52.55 -51.79 L-51.82 -53.5 L-50.68 -54.77 L-49.18 -55.58 L-47.38 -55.88 L-45.34 -55.66 L-43.1 -54.87 L-41.35 -53.91 L-39.7 -52.7 L-38.19 -51.28 L-36.83 -49.7 L-35.67 -47.99 L-34.71 -46.2 L-34 -44.36 L-33.55 -42.5 L-33.4 -40.67 Z " />
<path stroke="rgb(0,0,0)" stroke-opacity="1" fill="rgb(173,200,200)" fill-opacity="1" id="swap3" d="M-33.4 -69.63 L-33.65 -67.51 L-34.38 -65.8 L-35.52 -64.53 L-37.02 -63.72 L-38.82 -63.42 L-40.86 -63.64 L-43.1 -64.43 L-44.85 -65.4 L-46.5 -66.62 L-48.01 -68.04 L-49.37 -69.63 L-50.53 -71.35 L-51.49 -73.14 L-52.2 -74.98 L-52.65 -76.83 L-52.8 -78.63 L-52.55 -80.71 L-51.82 -82.41 L-50.68 -83.68 L-49.18 -84.5 L-47.38 -84.82 L-45.34 -84.6 L-43.1 -83.83 L-41.35 -82.86 L-39.7 -81.65 L-38.19 -80.23 L-36.83 -78.65 L-35.67 -76.95 L-34.71 -75.15 L-34 -73.31 L-33.55 -71.45 L-33.4 -69.63 Z " />
<path stroke="rgb(0,0,0)" stroke-opacity="1" fill="rgb(173,200,200)" fill-opacity="1" id="swap1" d="M-17.04 -48.19 L-17.3 -46.07 L-18.02 -44.36 L-19.16 -43.09 L-20.66 -42.28 L-22.46 -41.98 L-24.51 -42.2 L-26.74 -42.99 L-28.5 -43.96 L-30.15 -45.18 L-31.66 -46.6 L-33.01 -48.19 L-34.18 -49.91 L-35.13 -51.7 L-35.84 -53.54 L-36.29 -55.39 L-36.44 -57.19 L-36.19 -59.27 L-35.47 -60.97 L-34.33 -62.24 L-32.83 -63.06 L-31.03 -63.38 L-28.98 -63.16 L-26.74 -62.39 L-24.99 -61.42 L-23.34 -60.2 L-21.83 -58.77 L-20.48 -57.18 L-19.31 -55.47 L-18.36 -53.67 L-17.65 -51.83 L-17.2 -49.99 L-17.04 -48.19 Z " />
<path stroke="rgb(0,0,0)" stroke-opacity="1" fill="rgb(255,255,255)" fill-opacity="1" id="secscl1" d="M-6.078 126.8 L-6.839 126.4 L-7.6 126.1 L-8.361 125.7 L-9.122 125.4 L-9.883 125 L-10.64 124.6 L-11.41 124.3 L-12.17 123.9 L-12.93 123.6 L-13.69 123.2 L-14.45 122.9 L-15.21 122.5 L-15.97 122.2 L-16.73 121.8 L-17.26 122.5 L-17.79 123.2 L-18.32 123.8 L-18.85 124.5 L-19.38 125.2 L-19.9 125.8 L-20.43 126.5 L-20.96 127.2 L-21.49 127.9 L-22.02 128.5 L-21.69 129.3 L-21.36 130 L-21.03 130.7 L-20.7 131.4 L-20.37 132.2 L-20.04 132.9 L-19.71 133.6 L-19.38 134.4 L-19.04 135.1 L-18.71 135.8 L-18.38 136.5 L-18.05 137.3 L-17.72 138 L-17.39 138.7 L-17.06 139.4 L-16.73 140.2 L-15.97 140.5 L-15.21 140.9 L-14.45 141.2 L-13.69 141.6 L-12.93 141.9 L-12.17 142.3 L-11.41 142.6 L-10.64 143 L-9.883 143.3 L-9.122 143.7 L-8.361 144 L-7.6 144.4 L-6.839 144.7 L-6.078 145.1 L-5.55 144.4 L-5.021 143.8 L-4.492 143.1 L-3.964 142.4 L-3.435 141.7 L-2.907 141.1 L-2.378 140.4 L-1.849 139.7 L-1.321 139.1 L-0.7922 138.4 L-1.123 137.7 L-1.453 137 L-1.783 136.2 L-2.114 135.5 L-2.444 134.8 L-2.774 134 L-3.105 133.3 L-3.435 132.6 L-3.766 131.9 L-4.096 131.1 L-4.426 130.4 L-4.757 129.7 L-5.087 129 L-5.418 128.2 L-5.748 127.5 L-6.078 126.8 Z " />
</g>
</g>
</svg>
