<!DOCTYPE svg>
<svg xmlns="http://www.w3.org/2000/svg" xmlns:xlink="http://www.w3.org/1999/xlink" width="800" height="800">
<g transform="translate(350.000000,350.000000)">
<g transform="scale(1.000000,1.000000)">
<path stroke="rgb(0,0,0)" stroke-opacity="1" fill="rgb(200,200,200)" fill-opacity="1" d="M-280 22 L-280 23 L-280 24 L-280 25 L-280 26 L-280 27 L-280 28 L-280 29 L-280 30 L-280 31 L-280 32 L-280 33 L-280 34 L-280 35 L-280 36 L-280 37 L-280 38 L-280 39 L-280 40 L-280 41 L-280 42 L-280 43 L-280 44 L-280 45 L-280 46 L-280 47 L-280 48 L-280 49 L-280 50 L-280 51 L-280 52 L-280 53 L-280 54 L-280 55 L-280 56 L-280 57 L-280 58 L-280 59 L-280 60 L-280 61 L-280 62 L-280 63 L-280 64 L-280 65 L-280 66 L-280 67 L-280 68 L-280 69 L-280 70 L-280 71 L-280 72 L-280 73 L-280 74 L-280 75 L-280 76 L-280 77 L-280 78 L-280 79 L-280 80 L-280 81 L-280 82 L-280 83 L-280 84 L-280 85 L-280 86 L-280 87 L-280 88 L-280 89 L-280 90 L-280 91 L-280 92 L-280 93 L-280 94 L-280 95 L-280 96 L-280 97 L-280 98 L-280 99 L-280 100 L-280 101 L-280 102 L-280 103 L-280 104 L-280 105 L-280 106 L-280 107 L-280 108 L-280 109 L-280 110 L-280 111 L-280 112 L-280 113 L-280 114 L-280 115 L-280 116 L-280 117 L-280 118 L-280 119 L-280 120 L-280 121 L-280 122 L-280 123 L-280 124 L-280 125 L-280 126 L-280 127 L-280 128 L-280 129 L-280 130 L-280 131 L-280 132 L-280 133 L-280 134 L-280 135 L-280 136 L-280 137 L-280 138 L-280 139 L-280 140 L-280 141 L-280 142 L-280 143 L-280 144 L-280 145 L-280 146 L-280 147 L-280 148 L-280 149 L-280 150 L-280 151 L-280 152 L-280 153 L-280 154 L-280 155 L-280 156 L-280 157 L-280 158 L-280 159 L-280 160 L-280 161 L-280 162 L-280 163 L-280 164 L-280 165 L-280 166 L-280 167 L-280 168 L-280 169 L-280 170 L-280 171 L-280 172 L-280 173 L-280 174 L-280 175 L-280 176 L-280 177 L-280 178 L-280 179 L-280 180 L-280 181 L-280 182 L-280 183 L-280 184 L-280 185 L-280 186 L-280 187 L-280 188 L-280 189 L-280 190 L-280 191 L-280 192 L-280 193 L-280 194 L-280 195 L-280 196 L-280 197 L-280 198 L-280 199 L-280 200 L-280 201 L-280 202 L-280 203 L-280 204 L-280 205 L-280 206 L-280 207 L-280 208 L-280 209 L-280 210 L-280 211 L-280 212 L-280 213 L-280 214 L-280 215 L-280 216 L-280 217 L-280 218 L-280 219 L-280 220 L-280 221 L-280 222 L-280 223 L-280 224 L-280 225 L-280 226 L-280 227 L-280 228 L-280 229 L-280 230 L-280 231 L-280 232 L-280 233 L-280 234 L-280 235 L-280 236 L-280 237 L-280 238 L-280 239 L-280 240 L-280 241 L-280 242 L-280 243 L-280 244 L-280 245 L-280 246 L-280 247 L-280 248 L-280 249 L-280 250 L-280 251 L-280 252 L-280 253 L-280 254 L-280 255 L-280 256 L-280 257 L-280 258 L-280 259 L-280 260 L-280 261 L-280 262 L-280 263 L-280 264 L-280 265 L-280 266 L-280 267 L-280 268 L-280 269 L-280 270 L-280 271 L-280 272 L-280 273 L-280 274 L-280 275 L-280 276 L-280 277 L-280 278 L-280 279 L-280 280 L-279 280 L-278 280 L-277 280 L-276 280 L-275 280 L-274 280 L-273 280 L-272 280 L-271 280 L-270 280 L-269 280 L-268 280 L-267 280 L-266 280 L-265 280 L-264 280 L-263 280 L-262 280 L-261 280 L-260 280 L-259 280 L-258 280 L-257 280 L-256 280 L-255 280 L-254 280 L-253 280 L-252 280 L-251 280 L-250 280 L-249 280 L-248 280 L-247 280 L-246 280 L-245 280 L-244 280 L-243 280 L-242 280 L-241 280 L-240 280 L-239 280 L-238 280 L-237 280 L-236 280 L-235 280 L-234 280 L-233 280 L-232 280 L-231 280 L-230 280 L-229 280 L-228 280 L-227 280 L-226 280 L-225 280 L-224 280 L-223 280 L-222 280 L-221 280 L-220 280 L-219 280 L-218 280 L-217 280 L-216 280 L-215 280 L-214 280 L-213 280 L-212 280 L-211 280 L-210 280 L-209 280 L-208 280 L-207 280 L-206 280 L-205 280 L-204 280 L-203 280 L-202 280 L-201 280 L-200 280 L-199 280 L-198 280 L-197 280 L-196 280 L-195 280 L-194 280 L-193 280 L-192 280 L-191 280 L-190 280 L-189 280 L-188 280 L-187 280 L-186 280 L-185 280 L-184 280 L-183 280 L-182 280 L-181 280 L-180 280 L-179 280 L-178 280 L-177 280 L-176 280 L-175 280 L-174 280 L-173 280 L-172 280 L-171 280 L-170 280 L-169 280 L-168 280 L-167 280 L-166 280 L-165 280 L-164 280 L-163 280 L-162 280 L-161 280 L-160 280 L-159 280 L-158 280 L-157 280 L-156 280 L-155 280 L-154 280 L-153 280 L-152 280 L-151 280 L-150 280 L-149 280 L-148 280 L-147 280 L-146 280 L-145 280 L-144 280 L-143 280 L-142 280 L-141 280 L-140 280 L-139 280 L-138 280 L-137 280 L-136 280 L-135 280 L-134 280 L-133 280 L-132 280 L-131 280 L-130 280 L-129 280 L-128 280 L-127 280 L-126 280 L-125 280 L-124 280 L-123 280 L-122 280 L-121 280 L-120 280 L-119 280 L-118 280 L-117 280 L-116 280 L-115 280 L-114 280 L-113 280 L-112 280 L-111 280 L-110 280 L-109 280 L-108 280 L-107 280 L-106 280 L-105 280 L-104 280 L-103 280 L-102 280 L-101 280 L-100 280 L-99 280 L-98 280 L-97 280 L-96 280 L-95 280 L-94 280 L-93 280 L-92 280 L-91 280 L-90 280 L-89 280 L-88 280 L-87 280 L-86 280 L-85 280 L-84 280 L-83 280 L-82 280 L-81 280 L-80 280 L-79 280 L-78 280 L-77 280 L-76 280 L-75 280 L-74 280 L-73 280 L-72 280 L-71 280 L-70 280 L-69 280 L-68 280 L-67 280 L-66 280 L-65 280 L-64 280 L-63 280 L-62 280 L-61 280 L-60 280 L-59 280 L-58 280 L-57 280 L-56 280 L-55 280 L-54 280 L-53 280 L-52 280 L-51 280 L-50 280 L-49 280 L-48 280 L-47 280 L-46 280 L-45 280 L-44 280 L-43 280 L-42 280 L-41 280 L-40 280 L-39 280 L-38 280 L-37 280 L-36 280 L-35 280 L-34 280 L-33 280 L-32 280 L-31 280 L-30 280 L-29 280 L-28 280 L-27 280 L-26 280 L-25 280 L-24 280 L-23 280 L-22 280 L-21 280 L-20 280 L-19 280 L-18 280 L-17 280 L-16 280 L-15 280 L-14 280 L-13 280 L-12 280 L-11 280 L-10 280 L-9 280 L-8 280 L-7 280 L-6 280 L-5 280 L-4 280 L-3 280 L-2 280 L-1 280 L0 280 L1 280 L2 280 L3 280 L4 280 L5 280 L6 280 L7 280 L8 280 L9 280 L9.99999 280 L11 280 L12 280 L13 280 L14 280 L15 280 L16 280 L17 280 L18 280 L19 280 L20 280 L21 280 L22 280 L23 280 L24 280 L25 280 L26 280 L27 280 L28 280 L29 280 L30 280 L31 280 L32 280 L33 280 L34 280 L35 280 L36 280 L37 280 L38 280 L39 280 L40 280 L41 280 L42 280 L43 280 L44 280 L45 280 L46 280 L47 280 L48 280 L49 280 L50 280 L51 280 L52 280 L53 280 L54 280 L55 280 L56 280 L57 280 L58 280 L59 280 L60 280 L61 280 L62 280 L63 280 L64 280 L65 280 L66 280 L67 280 L68 280 L69 280 L70 280 L71 280 L72 280 L73 280 L74 280 L75 280 L76 280 L77 280 L78 280 L79 280 L80 280 L81 280 L82 280 L83 280 L84 280 L85 280 L86 280 L87 280 L88 280 L89 280 L90 280 L91 280 L92 280 L93 280 L94 280 L95 280 L96 280 L97 280 L98 280 L99 280 L100 280 L101 280 L102 280 L103 280 L104 280 L105 280 L106 280 L107 280 L108 280 L109 280 L110 280 L111 280 L112 280 L113 280 L114 280 L115 280 L116 280 L117 280 L118 280 L119 280 L120 280 L121 280 L122 280 L123 280 L124 280 L125 280 L126 280 L127 280 L128 280 L129 280 L130 280 L131 280 L132 280 L133 280 L134 280 L135 280 L136 280 L137 280 L138 280 L139 280 L140 280 L141 280 L142 280 L143 280 L144 280 L145 280 L146 280 L147 280 L148 280 L149 280 L150 280 L151 280 L152 280 L153 280 L154 280 L155 280 L156 280 L157 280 L158 280 L159 280 L160 280 L161 280 L162 280 L163 280 L164 280 L165 280 L166 280 L167 280 L168 280 L169 280 L170 280 L171 280 L172 280 L173 280 L174 280 L175 280 L176 280 L177 280 L178 280 L179 280 L180 280 L181 280 L182 280 L183 280 L184 280 L185 280 L186 280 L187 280 L188 280 L189 280 L190 280 L191 280 L192 280 L193 280 L194 280 L195 280 L196 280 L197 280 L198 280 L199 280 L200 280 L201 280 L202 280 L203 280 L204 280 L205 280 L206 280 L207 280 L208 280 L209 280 L210 280 L211 280 L212 280 L213 280 L214 280 L215 280 L216 280 L217 280 L218 280 L219 280 L220 280 L221 280 L222 280 L223 280 L224 280 L225 280 L226 280 L227 280 L228 280 L229 280 L230 280 L231 280 L232 280 L233 280 L234 280 L235 280 L236 280 L237 280 L238 280 L239 280 L240 280 L241 280 L242 280 L243 280 L244 280 L245 280 L246 280 L247 280 L248 280 L249 280 L250 280 L251 280 L252 280 L253 280 L254 280 L255 280 L256 280 L257 280 L258 280 L259 280 L260 280 L261 280 L262 280 L263 280 L264 280 L265 280 L266 280 L267 280 L268 280 L269 280 L270 280 L271 280 L272 280 L273 280 L274 280 L275 280 L276 280 L277 280 L278 280 L279 280 L280 280 L281 280 L282 280 L283 280 L284 280 L285 280 L286 280 L287 280 L288 280 L289 280 L290 280 L291 280 L292 280 L293 280 L294 280 L295 280 L296 280 L297 280 L298 280 L299 280 L300 280 L301 280 L302 280 L303 280 L304 280 L305 280 L306 280 L307 280 L308 280 L309 280 L310 280 L311 280 L312 280 L313 280 L314 280 L315 280 L316 280 L317 280 L318 280 L319 280 L320 280 L320 279 L320 278 L320 277 L320 276 L320 275 L320 274 L320 273 L320 272 L320 271 L320 270 L320 269 L320 268 L320 267 L320 266 L320 265 L320 264 L320 263 L320 262 L320 261 L320 260 L320 259 L320 258 L320 257 L320 256 L320 255 L320 254 L320 253 L320 252 L320 251 L320 250 L320 249 L320 248 L320 247 L320 246 L320 245 L320 244 L320 243 L320 242 L320 241 L320 240 L320 239 L320 238 L320 237 L320 236 L320 235 L320 234 L320 233 L320 232 L320 231 L320 230 L320 229 L320 228 L320 227 L320 226 L320 225 L320 224 L320 223 L320 222 L320 221 L320 220 L320 219 L320 218 L320 217 L320 216 L320 215 L320 214 L320 213 L320 212 L320 211 L320 210 L320 209 L320 208 L320 207 L320 206 L320 205 L320 204 L320 203 L320 202 L320 201 L320 200 L320 199 L320 198 L320 197 L320 196 L320 195 L320 194 L320 193 L320 192 L320 191 L320 190 L320 189 L320 188 L320 187 L320 186 L320 185 L320 184 L320 183 L320 182 L320 181 L320 180 L320 179 L320 178 L320 177 L320 176 L320 175 L320 174 L320 173 L320 172 L320 171 L320 170 L320 169 L320 168 L320 167 L320 166 L320 165 L320 164 L320 163 L320 162 L320 161 L320 160 L320 159 L320 158 L320 157 L320 156 L320 155 L320 154 L320 153 L320 152 L320 151 L320 150 L320 149 L320 148 L320 147 L320 146 L320 145 L320 144 L320 143 L320 142 L320 141 L320 140 L320 139 L320 138 L320 137 L320 136 L320 135 L320 134 L320 133 L320 132 L320 131 L320 130 L320 129 L320 128 L320 127 L320 126 L320 125 L320 124 L320 123 L320 122 L320 121 L320 120 L320 119 L320 118 L320 117 L320 116 L320 115 L320 114 L320 113 L320 112 L320 111 L320 110 L320 109 L320 108 L320 107 L320 106 L320 105 L320 104 L320 103 L320 102 L320 101 L320 100 L320 99 L320 98 L320 97 L320 96 L320 95 L320 94 L320 93 L320 92 L320 91 L320 90 L320 89 L320 88 L320 87 L320 86 L320 85 L320 84 L320 83 L320 82 L320 81 L320 80 L320 79 L320 78 L320 77 L320 76 L320 75 L320 74 L320 73 L320 72 L320 71 L320 70 L320 69 L320 68 L320 67 L320 66 L320 65 L320 64 L320 63 L320 62 L320 61 L320 60 L320 59 L320 58 L320 57 L320 56 L320 55 L320 54 L320 53 L320 52 L320 51 L320 50 L320 49 L320 48 L320 47 L320 46 L320 45 L320 44 L320 43 L320 42 L320 41 L320 40 L320 39 L320 38 L320 37 L320 36 L320 35 L320 34 L320 33 L320 32 L320 31 L320 30 L320 29 L320 28 L320 27 L320 26 L320 25 L320 24 L320 23 L320 22 L320 21 L320 20 L320 19 L320 18 L320 17 L320 16 L320 15 L320 14 L320 13 L320 12 L320 11 L320 10 L320 9 L320 8 L320 7 L320 6 L320 5 L320 4 L320 3 L320 2 L320 1 L320 0 L320 -1 L320 -2 L320 -3 L320 -4 L320 -5 L320 -6 L320 -7 L320 -8 L320 -9 L320 -9.99999 L320 -11 L320 -12 L320 -13 L320 -14 L320 -15 L320 -16 L320 -17 L320 -18 L320 -19 L320 -20 L320 -21 L320 -22 L320 -23 L320 -24 L320 -25 L320 -26 L320 -27 L320 -28 L320 -29 L320 -30 L320 -31 L320 -32 L320 -33 L320 -34 L320 -35 L320 -36 L320 -37 L320 -38 L320 -39 L320 -40 L320 -41 L320 -42 L320 -43 L320 -44 L320 -45 L320 -46 L320 -47 L320 -48 L320 -49 L320 -50 L320 -51 L320 -52 L320 -53 L320 -54 L320 -55 L320 -56 L320 -57 L320 -58 L320 -59 L320 -60 L320 -61 L320 -62 L320 -63 L320 -64 L320 -65 L320 -66 L320 -67 L320 -68 L320 -69 L320 -70 L320 -71 L320 -72 L320 -73 L320 -74 L320 -75 L320 -76 L320 -77 L320 -78 L320 -79 L320 -80 L320 -81 L320 -82 L320 -83 L320 -84 L320 -85 L320 -86 L320 -87 L320 -88 L320 -89 L320 -90 L320 -91 L320 -92 L320 -93 L320 -94 L320 -95 L320 -96 L320 -97 L320 -98 L320 -99 L320 -100 L320 -101 L320 -102 L320 -103 L320 -104 L320 -105 L320 -106 L320 -107 L320 -108 L320 -109 L320 -110 L320 -111 L320 -112 L320 -113 L320 -114 L320 -115 L320 -116 L320 -117 L320 -118 L320 -119 L320 -120 L320 -121 L320 -122 L320 -123 L320 -124 L320 -125 L320 -126 L320 -127 L320 -128 L320 -129 L320 -130 L320 -131 L320 -132 L320 -133 L320 -134 L320 -135 L320 -136 L320 -137 L320 -138 L320 -139 L320 -140 L320 -141 L320 -142 L320 -143 L320 -144 L320 -145 L320 -146 L320 -147 L320 -148 L320 -149 L320 -150 L320 -151 L320 -152 L320 -153 L320 -154 L320 -155 L320 -156 L320 -157 L320 -158 L320 -159 L320 -160 L320 -161 L320 -162 L320 -163 L320 -164 L320 -165 L320 -166 L320 -167 L320 -168 L320 -169 L320 -170 L320 -171 L320 -172 L320 -173 L320 -174 L320 -175 L320 -176 L320 -177 L320 -178 L320 -179 L320 -180 L320 -181 L320 -182 L320 -183 L320 -184 L320 -185 L320 -186 L320 -187 L320 -188 L320 -189 L320 -190 L320 -191 L320 -192 L320 -193 L320 -194 L320 -195 L320 -196 L320 -197 L320 -198 L320 -199 L320 -200 L320 -201 L320 -202 L320 -203 L320 -204 L320 -205 L320 -206 L320 -207 L320 -208 L320 -209 L320 -210 L320 -211 L320 -212 L320 -213 L320 -214 L320 -215 L320 -216 L320 -217 L320 -218 L320 -219 L320 -220 L320 -221 L320 -222 L320 -223 L320 -224 L320 -225 L320 -226 L320 -227 L320 -228 L320 -229 L320 -230 L320 -231 L320 -232 L320 -233 L320 -234 L320 -235 L320 -236 L320 -237 L320 -238 L320 -239 L320 -240 L320 -241 L320 -242 L320 -243 L320 -244 L320 -245 L320 -246 L320 -247 L320 -248 L320 -249 L320 -250 L320 -251 L320 -252 L320 -253 L320 -254 L320 -255 L320 -256 L320 -257 L320 -258 L320 -259 L320 -260 L320 -261 L320 -262 L320 -263 L320 -264 L320 -265 L320 -266 L320 -267 L320 -268 L320 -269 L320 -270 L320 -271 L320 -272 L320 -273 L320 -274 L320 -275 L320 -276 L320 -277 L320 -278 L320 -279 L320 -280 L320 -281 L320 -282 L320 -283 L320 -284 L320 -285 L320 -286 L320 -287 L320 -288 L320 -289 L320 -290 L320 -291 L320 -292 L320 -293 L320 -294 L320 -295 L320 -296 L320 -297 L320 -298 L320 -299 L320 -300 L320 -301 L320 -302 L320 -303 L320 -304 L320 -305 L320 -306 L320 -307 L320 -308 L320 -309 L320 -310 L320 -311 L320 -312 L320 -313 L320 -314 L320 -315 L320 -316 L320 -317 L320 -318 L320 -319 L320 -320 L319 -320 L318 -320 L317 -320 L316 -320 L315 -320 L314 -320 L313 -320 L312 -320 L311 -320 L310 -320 L309 -320 L308 -320 L307 -320 L306 -320 L305 -320 L304 -320 L303 -320 L302 -320 L301 -320 L300 -320 L299 -320 L298 -320 L297 -320 L296 -320 L295 -320 L294 -320 L293 -320 L292 -320 L291 -320 L290 -320 L289 -320 L288 -320 L287 -320 L286 -320 L285 -320 L284 -320 L283 -320 L282 -320 L281 -320 L280 -320 L279 -320 L278 -320 L277 -320 L276 -320 L275 -320 L274 -320 L273 -320 L272 -320 L271 -320 L270 -320 L269 -320 L268 -320 L267 -320 L266 -320 L265 -320 L264 -320 L263 -320 L262 -320 L261 -320 L260 -320 L259 -320 L258 -320 L257 -320 L256 -320 L255 -320 L254 -320 L253 -320 L252 -320 L251 -320 L250 -320 L249 -320 L248 -320 L247 -320 L246 -320 L245 -320 L244 -320 L243 -320 L242 -320 L241 -320 L240 -320 L239 -320 L238 -320 L237 -320 L236 -320 L235 -320 L234 -320 L233 -320 L232 -320 L231 -320 L230 -320 L229 -320 L228 -320 L227 -320 L226 -320 L225 -320 L224 -320 L223 -320 L222 -320 L221 -320 L220 -320 L219 -320 L218 -320 L217 -320 L216 -320 L215 -320 L214 -320 L213 -320 L212 -320 L211 -320 L210 -320 L209 -320 L208 -320 L207 -320 L206 -320 L205 -320 L204 -320 L203 -320 L202 -320 L201 -320 L200 -320 L199 -320 L198 -320 L197 -320 L196 -320 L195 -320 L194 -320 L193 -320 L192 -320 L191 -320 L190 -320 L189 -320 L188 -320 L187 -320 L186 -320 L185 -320 L184 -320 L183 -320 L182 -320 L181 -320 L180 -320 L179 -320 L178 -320 L177 -320 L176 -320 L175 -320 L174 -320 L173 -320 L172 -320 L171 -320 L170 -320 L169 -320 L168 -320 L167 -320 L166 -320 L165 -320 L164 -320 L163 -320 L162 -320 L161 -320 L160 -320 L159 -320 L158 -320 L157 -320 L156 -320 L155 -320 L154 -320 L153 -320 L152 -320 L151 -320 L150 -320 L149 -320 L148 -320 L147 -320 L146 -320 L145 -320 L144 -320 L143 -320 L142 -320 L141 -320 L140 -320 L139 -320 L138 -320 L137 -320 L136 -320 L135 -320 L134 -320 L133 -320 L132 -320 L131 -320 L130 -320 L129 -320 L128 -320 L127 -320 L126 -320 L125 -320 L124 -320 L123 -320 L122 -320 L121 -320 L120 -320 L119 -320 L118 -320 L117 -320 L116 -320 L115 -320 L114 -320 L113 -320 L112 -320 L111 -320 L110 -320 L109 -320 L108 -320 L107 -320 L106 -320 L105 -320 L104 -320 L103 -320 L102 -320 L101 -320 L100 -320 L99 -320 L98 -320 L97 -320 L96 -320 L95 -320 L94 -320 L93 -320 L92 -320 L91 -320 L90 -320 L89 -320 L88 -320 L87 -320 L86 -320 L85 -320 L84 -320 L83 -320 L82 -320 L81 -320 L80 -320 L79 -320 L78 -320 L77 -320 L76 -320 L75 -320 L74 -320 L73 -320 L72 -320 L71 -320 L70 -320 L69 -320 L68 -320 L67 -320 L66 -320 L65 -320 L64 -320 L63 -320 L62 -320 L61 -320 L60 -320 L59 -320 L58 -320 L57 -320 L56 -320 L55 -320 L54 -320 L53 -320 L52 -320 L51 -320 L50 -320 L49 -320 L48 -320 L47 -320 L46 -320 L45 -320 L44 -320 L43 -320 L42 -320 L41 -320 L40 -320 L39 -320 L38 -320 L37 -320 L36 -320 L35 -320 L34 -320 L33 -320 L32 -320 L31 -320 L30 -320 L29 -320 L28 -320 L27 -320 L26 -320 L25 -320 L24 -320 L23 -320 L22 -320 L21 -320 L20 -320 L19 -320 L18 -320 L17 -320 L16 -320 L15 -320 L14 -320 L13 -320 L12 -320 L11 -320 L10 -320 L9 -320 L8 -320 L6.99999 -320 L6 -320 L5 -320 L4 -320 L3 -320 L2 -320 L0.99999 -320 L0 -320 L-0.99999 -320 L-2 -320 L-3 -320 L-4 -320 L-5 -320 L-6 -320 L-6.99999 -320 L-8 -320 L-9 -320 L-10 -320 L-11 -320 L-12 -320 L-13 -320 L-14 -320 L-15 -320 L-16 -320 L-17 -320 L-18 -320 L-19 -320 L-20 -320 L-21 -320 L-22 -320 L-23 -320 L-24 -320 L-25 -320 L-26 -320 L-27 -320 L-28 -320 L-29 -320 L-30 -320 L-31 -320 L-32 -320 L-33 -320 L-34 -320 L-35 -320 L-36 -320 L-37 -320 L-38 -320 L-39 -320 L-40 -320 L-41 -320 L-42 -320 L-43 -320 L-44 -320 L-45 -320 L-46 -320 L-47 -320 L-48 -320 L-49 -320 L-50 -320 L-51 -320 L-52 -320 L-53 -320 L-54 -320 L-55 -320 L-56 -320 L-57 -320 L-58 -320 L-59 -320 L-60 -320 L-61 -320 L-62 -320 L-63 -320 L-64 -320 L-65 -320 L-66 -320 L-67 -320 L-68 -320 L-69 -320 L-70 -320 L-71 -320 L-72 -320 L-73 -320 L-74 -320 L-75 -320 L-76 -320 L-77 -320 L-78 -320 L-79 -320 L-80 -320 L-81 -320 L-82 -320 L-83 -320 L-84 -320 L-85 -320 L-86 -320 L-87 -320 L-88 -320 L-89 -320 L-90 -320 L-91 -320 L-92 -320 L-93 -320 L-94 -320 L-95 -320 L-96 -320 L-97 -320 L-98 -320 L-99 -320 L-100 -320 L-101 -320 L-102 -320 L-103 -320 L-104 -320 L-105 -320 L-106 -320 L-107 -320 L-108 -320 L-109 -320 L-110 -320 L-111 -320 L-112 -320 L-113 -320 L-114 -320 L-115 -320 L-116 -320 L-117 -320 L-118 -320 L-119 -320 L-120 -320 L-121 -320 L-122 -320 L-123 -320 L-124 -320 L-125 -320 L-126 -320 L-127 -320 L-128 -320 L-129 -320 L-130 -320 L-131 -320 L-132 -320 L-133 -320 L-134 -320 L-135 -320 L-136 -320 L-137 -320 L-138 -320 L-139 -320 L-140 -320 L-141 -320 L-142 -320 L-143 -320 L-144 -320 L-145 -320 L-146 -320 L-147 -320 L-148 -320 L-149 -320 L-150 -320 L-151 -320 L-152 -320 L-153 -320 L-154 -320 L-155 -320 L-156 -320 L-157 -320 L-158 -320 L-159 -320 L-160 -320 L-161 -320 L-162 -320 L-163 -320 L-164 -320 L-165 -320 L-166 -320 L-167 -320 L-168 -320 L-169 -320 L-170 -320 L-171 -320 L-172 -320 L-173 -320 L-174 -320 L-175 -320 L-176 -320 L-177 -320 L-178 -320 L-179 -320 L-180 -320 L-181 -320 L-182 -320 L-183 -320 L-184 -320 L-185 -320 L-186 -320 L-187 -320 L-188 -320 L-189 -320 L-190 -320 L-191 -320 L-192 -320 L-193 -320 L-194 -320 L-195 -320 L-196 -320 L-197 -320 L-198 -320 L-199 -320 L-200 -320 L-201 -320 L-202 -320 L-203 -320 L-204 -320 L-205 -320 L-206 -320 L-207 -320 L-208 -320 L-209 -320 L-210 -320 L-211 -320 L-212 -320 L-213 -320 L-214 -320 L-215 -320 L-216 -320 L-217 -320 L-218 -320 L-219 -320 L-220 -320 L-221 -320 L-222 -320 L-223 -320 L-224 -320 L-225 -320 L-226 -320 L-227 -320 L-228 -320 L-229 -320 L-230 -320 L-231 -320 L-232 -320 L-233 -320 L-234 -320 L-235 -320 L-236 -320 L-237 -320 L-238 -320 L-239 -320 L-240 -320 L-241 -320 L-242 -320 L-243 -320 L-244 -320 L-245 -320 L-246 -320 L-247 -320 L-248 -320 L-249 -320 L-250 -320 L-251 -320 L-252 -320 L-253 -320 L-254 -320 L-255 -320 L-256 -320 L-257 -320 L-258 -320 L-259 -320 L-260 -320 L-261 -320 L-262 -320 L-263 -320 L-264 -320 L-265 -320 L-266 -320 L-267 -320 L-268 -320 L-269 -320 L-270 -320 L-271 -320 L-272 -320 L-273 -320 L-274 -320 L-275 -320 L-276 -320 L-277 -320 L-278 -320 L-279 -320 L-280 -320 L-280 -319 L-280 -318 L-280 -317 L-280 -316 L-280 -315 L-280 -314 L-280 -313 L-280 -312 L-280 -311 L-280 -310 L-280 -309 L-280 -308 L-280 -307 L-280 -306 L-280 -305 L-280 -304 L-280 -303 L-280 -302 L-280 -301 L-280 -300 L-280 -299 L-280 -298 L-280 -297 L-280 -296 L-280 -295 L-280 -294 L-280 -293 L-280 -292 L-280 -291 L-280 -290 L-280 -289 L-280 -288 L-280 -287 L-280 -286 L-280 -285 L-280 -284 L-280 -283 L-280 -282 L-280 -281 L-280 -280 L-280 -279 L-280 -278 L-280 -277 L-280 -276 L-280 -275 L-280 -274 L-280 -273 L-280 -272 L-280 -271 L-280 -270 L-280 -269 L-280 -268 L-280 -267 L-280 -266 L-280 -265 L-280 -264 L-280 -263 L-280 -262 L-280 -261 L-280 -260 L-280 -259 L-280 -258 L-280 -257 L-280 -256 L-280 -255 L-280 -254 L-280 -253 L-280 -252 L-280 -251 L-280 -250 L-280 -249 L-280 -248 L-280 -247 L-280 -246 L-280 -245 L-280 -244 L-280 -243 L-280 -242 L-280 -241 L-280 -240 L-280 -239 L-280 -238 L-280 -237 L-280 -236 L-280 -235 L-280 -234 L-280 -233 L-280 -232 L-280 -231 L-280 -230 L-280 -229 L-280 -228 L-280 -227 L-280 -226 L-280 -225 L-280 -224 L-280 -223 L-280 -222 L-280 -221 L-280 -220 L-280 -219 L-280 -218 L-280 -217 L-280 -216 L-280 -215 L-280 -214 L-280 -213 L-280 -212 L-280 -211 L-280 -210 L-280 -209 L-280 -208 L-280 -207 L-280 -206 L-280 -205 L-280 -204 L-280 -203 L-280 -202 L-280 -201 L-280 -200 L-280 -199 L-280 -198 L-280 -197 L-280 -196 L-280 -195 L-280 -194 L-280 -193 L-280 -192 L-280 -191 L-280 -190 L-280 -189 L-280 -188 L-280 -187 L-280 -186 L-280 -185 L-280 -184 L-280 -183 L-280 -182 L-280 -181 L-280 -180 L-280 -179 L-280 -178 L-280 -177 L-280 -176 L-280 -175 L-280 -174 L-280 -173 L-280 -172 L-280 -171 L-280 -170 L-280 -169 L-280 -168 L-280 -167 L-280 -166 L-280 -165 L-280 -164 L-280 -163 L-280 -162 L-280 -161 L-280 -160 L-280 -159 L-280 -158 L-280 -157 L-280 -156 L-280 -155 L-280 -154 L-280 -153 L-280 -152 L-280 -151 L-280 -150 L-280 -149 L-280 -148 L-280 -147 L-280 -146 L-280 -145 L-280 -144 L-280 -143 L-280 -142 L-280 -141 L-280 -140 L-280 -139 L-280 -138 L-280 -137 L-280 -136 L-280 -135 L-280 -134 L-280 -133 L-280 -132 L-280 -131 L-280 -130 L-280 -129 L-280 -128 L-280 -127 L-280 -126 L-280 -125 L-280 -124 L-280 -123 L-280 -122 L-280 -121 L-280 -120 L-280 -119 L-280 -118 L-280 -117 L-280 -116 L-280 -115 L-280 -114 L-280 -113 L-280 -112 L-280 -111 L-280 -110 L-280 -109 L-280 -108 L-280 -107 L-280 -106 L-280 -105 L-280 -104 L-280 -103 L-280 -102 L-280 -101 L-280 -100 L-280 -99 L-280 -98 L-280 -97 L-280 -96 L-280 -95 L-280 -94 L-280 -93 L-280 -92 L-280 -91 L-280 -90 L-280 -89 L-280 -88 L-280 -87 L-280 -86 L-280 -85 L-280 -84 L-280 -83 L-280 -82 L-280 -81 L-280 -80 L-280 -79 L-280 -78 L-280 -77 L-280 -76 L-280 -75 L-280 -74 L-280 -73 L-280 -72 L-280 -71 L-280 -70 L-280 -69 L-280 -68 L-280 -67 L-280 -66 L-280 -65 L-280 -64 L-280 -63 L-280 -62 L-280 -61 L-280 -60 L-280 -59 L-280 -58 L-280 -57 L-280 -56 L-280 -55 L-280 -54 L-280 -53 L-280 -52 L-280 -51 L-280 -50 L-280 -49 L-280 -48 L-280 -47 L-280 -46 L-280 -45 L-280 -44 L-280 -43 L-280 -42 L-280 -41 L-280 -40 L-280 -39 L-280 -38 L-280 -37 L-280 -36 L-280 -35 L-280 -34 L-280 -33 L-280 -32 L-280 -31 L-280 -30 L-280 -29 L-280 -28 L-280 -27 L-280 -26 L-280 -25 L-280 -24 L-280 -23 L-280 -22 L-280 -21 L-280 -20 L-280 -19 L-280 -18 L-280 -17 L-280 -16 L-280 -15 L-280 -14 L-280 -13 L-280 -12 L-280 -11 L-280 -10 L-280 -9 L-280 -8 L-280 -6.99999 L-280 -6 L-280 -5 L-280 -4 L-280 -3 L-280 -2 L-280 -0.99999 L-280 0 L-280 0.99999 L-280 2 L-280 3 L-280 4 L-280 5 L-280 6 L-280 6.99999 L-280 8 L-280 9 L-280 10 L-280 11 L-280 12 L-280 13 L-280 14 L-280 15 L-280 16 L-280 17 L-280 18 L-280 19 L-280 20 L-280 20.3182 L-279.594 20.7213 L-278.885 21.4258 L-278.176 22.1304 L-277.466 22.8349 L-276.757 23.5394 L-276.048 24.244 L-275.339 24.9485 L-274.629 25.6531 L-273.92 26.3576 L-273.211 27.0621 L-272.501 27.7667 L-271.792 28.4712 L-271.083 29.1758 L-270.374 29.8803 L-269.664 30.5849 L-268.955 31.2894 L-268.246 31.9939 L-267.536 32.6985 L-266.827 33.403 L-266.118 34.1076 L-265.409 34.8121 L-264.699 35.5166 L-263.99 36.2212 L-263.281 36.9257 L-262.571 37.6303 L-261.862 38.3348 L-261.153 39.0393 L-260.444 39.7439 L-259.734 40.4484 L-259.025 41.153 L-258.316 41.8575 L-257.606 42.562 L-256.897 43.2666 L-256.188 43.9711 L-256.022 44.1362 L-255.479 44.6757 L-254.769 45.3802 L-254.06 46.0848 L-253.351 46.7893 L-252.641 47.4938 L-251.932 48.1984 L-251.223 48.9029 L-250.514 49.6075 L-249.804 50.312 L-249.095 51.0165 L-248.386 51.7211 L-247.676 52.4256 L-246.967 53.1302 L-246.258 53.8347 L-245.549 54.5393 L-244.839 55.2438 L-244.13 55.9483 L-243.421 56.6529 L-242.712 57.3574 L-242.002 58.062 L-241.293 58.7665 L-240.584 59.471 L-239.874 60.1756 L-239.165 60.8801 L-238.456 61.5847 L-237.747 62.2892 L-237.037 62.9937 L-236.328 63.6983 L-235.619 64.4028 L-234.909 65.1074 L-234.2 65.8119 L-233.491 66.5164 L-232.782 67.221 L-232.072 67.9255 L-231.363 68.6301 L-230.654 69.3346 L-229.944 70.0392 L-229.235 70.7437 L-228.526 71.4482 L-227.817 72.1528 L-227.107 72.8573 L-226.398 73.5619 L-225.689 74.2664 L-224.979 74.9709 L-224.27 75.6755 L-223.561 76.38 L-222.852 77.0846 L-222.142 77.7891 L-221.433 78.4936 L-220.724 79.1982 L-220.014 79.9027 L-219.305 80.6073 L-218.596 81.3118 L-217.887 82.0163 L-217.177 82.7209 L-216.468 83.4254 L-215.759 84.13 L-215.049 84.8345 L-214.34 85.5391 L-213.631 86.2436 L-212.922 86.9481 L-212.212 87.6527 L-211.503 88.3572 L-210.794 89.0618 L-210.084 89.7663 L-209.375 90.4708 L-208.666 91.1754 L-207.957 91.8799 L-207.247 92.5845 L-206.538 93.289 L-205.829 93.9935 L-205.119 94.6981 L-204.41 95.4026 L-203.701 96.1072 L-202.992 96.8117 L-202.282 97.5162 L-201.573 98.2208 L-200.864 98.9253 L-200.154 99.6299 L-199.445 100.334 L-198.736 101.039 L-198.027 101.743 L-197.317 102.448 L-196.608 103.153 L-195.899 103.857 L-195.19 104.562 L-194.48 105.266 L-193.771 105.971 L-193.062 106.675 L-192.352 107.38 L-191.643 108.084 L-190.934 108.789 L-190.225 109.493 L-189.515 110.198 L-188.806 110.903 L-188.097 111.607 L-187.387 112.312 L-186.678 113.016 L-185.969 113.721 L-185.26 114.425 L-184.55 115.13 L-183.841 115.834 L-183.132 116.539 L-182.422 117.243 L-181.713 117.948 L-181.004 118.652 L-180.295 119.357 L-179.585 120.062 L-178.876 120.766 L-178.167 121.471 L-177.457 122.175 L-176.748 122.88 L-176.039 123.584 L-175.33 124.289 L-174.62 124.993 L-173.911 125.698 L-173.202 126.402 L-172.492 127.107 L-171.783 127.811 L-171.074 128.516 L-170.365 129.221 L-169.655 129.925 L-168.946 130.63 L-168.237 131.334 L-167.527 132.039 L-166.818 132.743 L-166.109 133.448 L-165.4 134.152 L-164.69 134.857 L-163.981 135.561 L-163.272 136.266 L-162.562 136.971 L-161.853 137.675 L-161.144 138.38 L-160.435 139.084 L-159.725 139.789 L-159.016 140.493 L-158.307 141.198 L-157.597 141.902 L-156.888 142.607 L-156.179 143.311 L-155.47 144.016 L-154.76 144.72 L-154.051 145.425 L-153.342 146.13 L-152.632 146.834 L-151.923 147.539 L-151.214 148.243 L-150.505 148.948 L-149.795 149.652 L-149.086 150.357 L-148.377 151.061 L-147.667 151.766 L-146.958 152.47 L-146.249 153.175 L-145.54 153.88 L-144.83 154.584 L-144.121 155.289 L-143.412 155.993 L-142.703 156.698 L-141.993 157.402 L-141.284 158.107 L-140.575 158.811 L-139.865 159.516 L-139.156 160.22 L-138.447 160.925 L-137.738 161.629 L-137.028 162.334 L-136.319 163.039 L-135.61 163.743 L-134.9 164.448 L-134.191 165.152 L-133.482 165.857 L-132.773 166.561 L-132.063 167.266 L-131.354 167.97 L-130.645 168.675 L-129.935 169.379 L-129.226 170.084 L-128.517 170.788 L-127.808 171.493 L-127.098 172.198 L-126.389 172.902 L-125.68 173.607 L-124.97 174.311 L-124.261 175.016 L-123.552 175.72 L-122.843 176.425 L-122.133 177.129 L-121.424 177.834 L-120.715 178.538 L-120.005 179.243 L-119.296 179.948 L-118.587 180.652 L-117.878 181.357 L-117.168 182.061 L-116.459 182.766 L-115.75 183.47 L-115.04 184.175 L-114.331 184.879 L-113.622 185.584 L-112.913 186.288 L-112.203 186.993 L-111.494 187.697 L-110.785 188.402 L-110.075 189.107 L-109.366 189.811 L-108.657 190.516 L-107.948 191.22 L-107.238 191.925 L-106.529 192.629 L-105.82 193.334 L-105.11 194.038 L-104.401 194.743 L-103.692 195.447 L-102.983 196.152 L-102.273 196.857 L-101.564 197.561 L-100.855 198.266 L-100.145 198.97 L-99.4362 199.675 L-98.7269 200.379 L-98.0177 201.084 L-97.3084 201.788 L-96.5991 202.493 L-95.8898 203.197 L-95.1805 203.902 L-94.4712 204.606 L-93.7619 205.311 L-93.0527 206.016 L-92.3434 206.72 L-91.6341 207.425 L-90.9248 208.129 L-90.2155 208.834 L-89.5062 209.538 L-88.797 210.243 L-88.0877 210.947 L-87.3784 211.652 L-86.6691 212.356 L-85.9598 213.061 L-85.2506 213.765 L-84.5413 214.47 L-83.832 215.175 L-83.1227 215.879 L-82.4134 216.584 L-81.7041 217.288 L-80.9948 217.993 L-80.2856 218.697 L-79.5763 219.402 L-78.867 220.106 L-78.1577 220.811 L-77.4484 221.515 L-76.7391 222.22 L-76.0299 222.925 L-75.3206 223.629 L-74.6113 224.334 L-73.902 225.038 L-73.1927 225.743 L-72.4835 226.447 L-71.7742 227.152 L-71.0649 227.856 L-70.3556 228.561 L-69.6463 229.265 L-68.937 229.97 L-68.2277 230.674 L-67.5185 231.379 L-66.8092 232.084 L-66.0999 232.788 L-65.3906 233.493 L-64.6813 234.197 L-63.972 234.902 L-63.2628 235.606 L-62.5535 236.311 L-61.8442 237.015 L-61.1349 237.72 L-60.4256 238.424 L-59.7163 239.129 L-59.0071 239.833 L-58.2978 240.538 L-57.5885 241.243 L-56.8792 241.947 L-56.1699 242.652 L-55.4606 243.356 L-54.7514 244.061 L-54.0421 244.765 L-53.3328 245.47 L-52.6235 246.174 L-51.9142 246.879 L-51.2049 247.583 L-50.4957 248.288 L-49.7864 248.993 L-49.0771 249.697 L-48.3678 250.402 L-47.6585 251.106 L-46.9492 251.811 L-46.24 252.515 L-45.5307 253.22 L-44.8214 253.924 L-44.1121 254.629 L-43.4028 255.333 L-42.6935 256.038 L-41.9843 256.742 L-41.275 257.447 L-40.5657 258.152 L-39.8564 258.856 L-39.1471 259.561 L-38.4378 260.265 L-37.7285 260.97 L-37.0193 261.674 L-36.31 262.379 L-35.6007 263.083 L-34.8914 263.788 L-34.1821 264.492 L-33.4729 265.197 L-32.7636 265.901 L-32.0543 266.606 L-31.345 267.311 L-30.6357 268.015 L-29.9264 268.72 L-29.2172 269.424 L-28.5079 270.129 L-27.7986 270.833 L-27.0893 271.538 L-26.38 272.242 L-25.6707 272.947 L-24.9614 273.651 L-24.2522 274.356 L-23.5429 275.061 L-22.8336 275.765 L-22.1243 276.47 L-21.415 277.174 L-20.7057 277.879 L-19.9965 278.583 L-19.2872 279.288 L-18.5779 279.992 L-18.5702 280 L-18.5702 280 L-256.022 44.1362 L-280 20.3182 L-280 21 L-280 22 Z M130 200 L129 200 L128 200 L127 200 L126 200 L125 200 L124 200 L123 200 L122 200 L121 200 L120 200 L119 200 L118 200 L117 200 L116 200 L115 200 L114 200 L113 200 L112 200 L111 200 L110 200 L109 200 L108 200 L107 200 L106 200 L105 200 L104 200 L103 200 L102 200 L101 200 L100 200 L99 200 L98 200 L97 200 L96 200 L95 200 L94 200 L93 200 L92 200 L91 200 L90 200 L89 200 L88 200 L87 200 L86 200 L85 200 L84 200 L83 200 L82 200 L81 200 L80 200 L79 200 L78 200 L77 200 L76 200 L75 200 L74 200 L73 200 L72 200 L71 200 L70 200 L69 200 L68 200 L67 200 L66 200 L65 200 L64 200 L63 200 L62 200 L61 200 L60 200 L59 200 L58 200 L57 200 L56 200 L55 200 L54 200 L53 200 L52 200 L51 200 L50 200 L49 200 L48 200 L47 200 L46 200 L45 200 L44 200 L43 200 L42 200 L41 200 L40 200 L39 200 L38 200 L37 200 L36 200 L35 200 L34 200 L33 200 L32 200 L31 200 L30 200 L29 200 L28 200 L27 200 L26 200 L25 200 L24 200 L23 200 L22 200 L21 200 L20 200 L19 200 L18 200 L17 200 L16 200 L15 200 L14 200 L13 200 L12 200 L11 200 L10 200 L9 200 L8 200 L7 200 L6 200 L5 200 L4 200 L3 200 L2 200 L1 200 L0 200 L0 199 L0 198 L0 197 L0 196 L0 195 L0 194 L0 193 L0 192 L0 191 L0 190 L0 189 L0 188 L0 187 L0 186 L0 185 L0 184 L0 183 L0 182 L0 181 L0 180 L0 179 L0 178 L0 177 L0 176 L0 175 L0 174 L0 173 L0 172 L0 171 L0 170 L0 169 L0 168 L0 167 L0 166 L0 165 L0 164 L0 163 L0 162 L0 161 L0 160 L0 159 L0 158 L0 157 L0 156 L0 155 L0 154 L0 153 L0 152 L0 151 L0 150 L0 149 L0 148 L0 147 L0 146 L0 145 L0 144 L0 143 L0 142 L0 141 L0 140 L0 139 L0 138 L0 137 L0 136 L0 135 L0 134 L0 133 L0 132 L0 131 L0 130 L0 129 L0 128 L0 127 L0 126 L0 125 L0 124 L0 123 L0 122 L0 121 L0 120 L0 119 L0 118 L0 117 L0 116 L0 115 L0 114 L0 113 L0 112 L0 111 L0 110 L0 109 L0 108 L0 107 L0 106 L0 105 L0 104 L0 103 L0 102 L0 101 L0 100 L-1 100 L-2 100 L-3 100 L-4 100 L-5 100 L-6 100 L-7 100 L-8 100 L-9 100 L-10 100 L-11 100 L-12 100 L-13 100 L-14 100 L-15 100 L-16 100 L-17 100 L-18 100 L-19 100 L-20 100 L-21 100 L-22 100 L-23 100 L-24 100 L-25 100 L-26 100 L-27 100 L-28 100 L-29 100 L-30 100 L-31 100 L-32 100 L-33 100 L-34 100 L-35 100 L-36 100 L-37 100 L-38 100 L-39 100 L-40 100 L-41 100 L-42 100 L-43 100 L-44 100 L-45 100 L-46 100 L-47 100 L-48 100 L-49 100 L-50 100 L-51 100 L-52 100 L-53 100 L-54 100 L-55 100 L-56 100 L-57 100 L-58 100 L-59 100 L-60 100 L-61 100 L-62 100 L-63 100 L-64 100 L-65 100 L-66 100 L-67 100 L-68 100 L-69 100 L-70 100 L-71 100 L-72 100 L-73 100 L-74 100 L-75 100 L-76 100 L-77 100 L-78 100 L-79 100 L-80 100 L-81 100 L-82 100 L-83 100 L-84 100 L-85 100 L-86 100 L-87 100 L-88 100 L-89 100 L-90 100 L-91 100 L-92 100 L-93 100 L-94 100 L-95 100 L-96 100 L-97 100 L-98 100 L-99 100 L-100 100 L-100 99 L-100 98 L-100 97 L-100 96 L-100 95 L-100 94 L-100 93 L-100 92 L-100 91 L-100 90 L-100 89 L-100 88 L-100 87 L-100 86 L-100 85 L-100 84 L-100 83 L-100 82 L-100 81 L-100 80 L-100 79 L-100 78 L-100 77 L-100 76 L-100 75 L-100 74 L-100 73 L-100 72 L-100 71 L-100 70 L-100 69 L-100 68 L-100 67 L-100 66 L-100 65 L-100 64 L-100 63 L-100 62 L-100 61 L-100 60 L-100 59 L-100 58 L-100 57 L-100 56 L-100 55 L-100 54 L-100 53 L-100 52 L-100 51 L-100 50 L-100 49 L-100 48 L-100 47 L-100 46 L-100 45 L-100 44 L-100 43 L-100 42 L-100 41 L-100 40 L-100 39 L-100 38 L-100 37 L-100 36 L-100 35 L-100 34 L-100 33 L-100 32 L-100 31 L-100 30 L-100 29 L-100 28 L-100 27 L-100 26 L-100 25 L-100 24 L-100 23 L-100 22 L-100 21 L-100 20 L-100 19 L-100 18 L-100 17 L-100 16 L-100 15 L-100 14 L-100 13 L-100 12 L-100 11 L-100 10 L-100 8.99999 L-100 8 L-100 6.99999 L-100 6 L-100 5 L-100 4 L-100 3 L-100 2 L-100 1 L-100 0 L-100 -1 L-100 -2 L-100 -3 L-100 -4 L-100 -5 L-100 -6 L-100 -7 L-100 -8 L-100 -9 L-100 -10 L-100 -11 L-100 -12 L-100 -13 L-100 -14 L-100 -15 L-100 -16 L-100 -17 L-100 -18 L-100 -19 L-100 -20 L-100 -21 L-100 -22 L-100 -23 L-100 -24 L-100 -25 L-100 -26 L-100 -27 L-100 -28 L-100 -29 L-100 -30 L-100 -31 L-100 -32 L-100 -33 L-100 -34 L-100 -35 L-100 -36 L-100 -37 L-100 -38 L-100 -39 L-100 -40 L-100 -41 L-100 -42 L-100 -43 L-100 -44 L-100 -45 L-100 -46 L-100 -47 L-100 -48 L-100 -49 L-100 -50 L-100 -51 L-100 -52 L-100 -53 L-100 -54 L-100 -55 L-100 -56 L-100 -57 L-100 -58 L-100 -59 L-100 -60 L-100 -61 L-100 -62 L-100 -63 L-100 -64 L-100 -65 L-100 -66 L-100 -67 L-100 -68 L-100 -69 L-100 -70 L-100 -71 L-100 -72 L-100 -73 L-100 -74 L-100 -75 L-100 -76 L-100 -77 L-100 -78 L-100 -79 L-100 -80 L-100 -81 L-100 -82 L-100 -83 L-100 -84 L-100 -85 L-100 -86 L-100 -87 L-100 -88 L-100 -89 L-100 -90 L-100 -91 L-100 -92 L-100 -93 L-100 -94 L-100 -95 L-100 -96 L-100 -97 L-100 -98 L-100 -99 L-100 -100 L-99 -100 L-98 -100 L-97 -100 L-96 -100 L-95 -100 L-94 -100 L-93 -100 L-92 -100 L-91 -100 L-90 -100 L-89 -100 L-88 -100 L-87 -100 L-86 -100 L-85 -100 L-84 -100 L-83 -100 L-82 -100 L-81 -100 L-80 -100 L-79 -100 L-78 -100 L-77 -100 L-76 -100 L-75 -100 L-74 -100 L-73 -100 L-72 -100 L-71 -100 L-70 -100 L-69 -100 L-68 -100 L-67 -100 L-66 -100 L-65 -100 L-64 -100 L-63 -100 L-62 -100 L-61 -100 L-60 -100 L-59 -100 L-58 -100 L-57 -100 L-56 -100 L-55 -100 L-54 -100 L-53 -100 L-52 -100 L-51 -100 L-50 -100 L-49 -100 L-48 -100 L-47 -100 L-46 -100 L-45 -100 L-44 -100 L-43 -100 L-42 -100 L-41 -100 L-40 -100 L-39 -100 L-38 -100 L-37 -100 L-36 -100 L-35 -100 L-34 -100 L-33 -100 L-32 -100 L-31 -100 L-30 -100 L-29 -100 L-28 -100 L-27 -100 L-26 -100 L-25 -100 L-24 -100 L-23 -100 L-22 -100 L-21 -100 L-20 -100 L-19 -100 L-18 -100 L-17 -100 L-16 -100 L-15 -100 L-14 -100 L-13 -100 L-12 -100 L-11 -100 L-10 -100 L-8.99999 -100 L-8 -100 L-6.99999 -100 L-6 -100 L-5 -100 L-4 -100 L-3 -100 L-2 -100 L-1 -100 L0 -100 L1 -100 L2 -100 L3 -100 L4 -100 L5 -100 L6 -100 L7 -100 L8 -100 L9 -100 L10 -100 L11 -100 L12 -100 L13 -100 L14 -100 L15 -100 L16 -100 L17 -100 L18 -100 L19 -100 L20 -100 L21 -100 L22 -100 L23 -100 L24 -100 L25 -100 L26 -100 L27 -100 L28 -100 L29 -100 L30 -100 L31 -100 L32 -100 L33 -100 L34 -100 L35 -100 L36 -100 L37 -100 L38 -100 L39 -100 L40 -100 L41 -100 L42 -100 L43 -100 L44 -100 L45 -100 L46 -100 L47 -100 L48 -100 L49 -100 L50 -100 L51 -100 L52 -100 L53 -100 L54 -100 L55 -100 L56 -100 L57 -100 L58 -100 L59 -100 L60 -100 L61 -100 L62 -100 L63 -100 L64 -100 L65 -100 L66 -100 L67 -100 L68 -100 L69 -100 L70 -100 L71 -100 L72 -100 L73 -100 L74 -100 L75 -100 L76 -100 L77 -100 L78 -100 L79 -100 L80 -100 L81 -100 L82 -100 L83 -100 L84 -100 L85 -100 L86 -100 L87 -100 L88 -100 L89 -100 L90 -100 L91 -100 L92 -100 L93 -100 L94 -100 L95 -100 L96 -100 L97 -100 L98 -100 L99 -100 L100 -100 L100 -99 L100 -98 L100 -97 L100 -96 L100 -95 L100 -94 L100 -93 L100 -92 L100 -91 L100 -90 L100 -89 L100 -88 L100 -87 L100 -86 L100 -85 L100 -84 L100 -83 L100 -82 L100 -81 L100 -80 L100 -79 L100 -78 L100 -77 L100 -76 L100 -75 L100 -74 L100 -73 L100 -72 L100 -71 L100 -70 L100 -69 L100 -68 L100 -67 L100 -66 L100 -65 L100 -64 L100 -63 L100 -62 L100 -61 L100 -60 L100 -59 L100 -58 L100 -57 L100 -56 L100 -55 L100 -54 L100 -53 L100 -52 L100 -51 L100 -50 L100 -49 L100 -48 L100 -47 L100 -46 L100 -45 L100 -44 L100 -43 L100 -42 L100 -41 L100 -40 L100 -39 L100 -38 L100 -37 L100 -36 L100 -35 L100 -34 L100 -33 L100 -32 L100 -31 L100 -30 L100 -29 L100 -28 L100 -27 L100 -26 L100 -25 L100 -24 L100 -23 L100 -22 L100 -21 L100 -20 L100 -19 L100 -18 L100 -17 L100 -16 L100 -15 L100 -14 L100 -13 L100 -12 L100 -11 L100 -10 L100 -8.99999 L100 -8 L100 -6.99999 L100 -6 L100 -5 L100 -4 L100 -3 L100 -2 L100 -1 L100 0 L101 0 L102 0 L103 0 L104 0 L105 0 L106 0 L107 0 L108 0 L109 0 L110 0 L111 0 L112 0 L113 0 L114 0 L115 0 L116 0 L117 0 L118 0 L119 0 L120 0 L121 0 L122 0 L123 0 L124 0 L125 0 L126 0 L127 0 L128 0 L129 0 L130 0 L131 0 L132 0 L133 0 L134 0 L135 0 L136 0 L137 0 L138 0 L139 0 L140 0 L141 0 L142 0 L143 0 L144 0 L145 0 L146 0 L147 0 L148 0 L149 0 L150 0 L151 0 L152 0 L153 0 L154 0 L155 0 L156 0 L157 0 L158 0 L159 0 L160 0 L161 0 L162 0 L163 0 L164 0 L165 0 L166 0 L167 0 L168 0 L169 0 L170 0 L171 0 L172 0 L173 0 L174 0 L175 0 L176 0 L177 0 L178 0 L179 0 L180 0 L181 0 L182 0 L183 0 L184 0 L185 0 L186 0 L187 0 L188 0 L189 0 L190 0 L191 0 L192 0 L193 0 L194 0 L195 0 L196 0 L197 0 L198 0 L199 0 L200 0 L200 1 L200 2 L200 3 L200 4 L200 5 L200 6 L200 7 L200 8 L200 9 L200 10 L200 11 L200 12 L200 13 L200 14 L200 15 L200 16 L200 17 L200 18 L200 19 L200 20 L200 21 L200 22 L200 23 L200 24 L200 25 L200 26 L200 27 L200 28 L200 29 L200 30 L200 31 L200 32 L200 33 L200 34 L200 35 L200 36 L200 37 L200 38 L200 39 L200 40 L200 41 L200 42 L200 43 L200 44 L200 45 L200 46 L200 47 L200 48 L200 49 L200 50 L200 51 L200 52 L200 53 L200 54 L200 55 L200 56 L200 57 L200 58 L200 59 L200 60 L200 61 L200 62 L200 63 L200 64 L200 65 L200 66 L200 67 L200 68 L200 69 L200 70 L200 71 L200 72 L200 73 L200 74 L200 75 L200 76 L200 77 L200 78 L200 79 L200 80 L200 81 L200 82 L200 83 L200 84 L200 85 L200 86 L200 87 L200 88 L200 89 L200 90 L200 91 L200 92 L200 93 L200 94 L200 95 L200 96 L200 97 L200 98 L200 99 L200 100 L200 101 L200 102 L200 103 L200 104 L200 105 L200 106 L200 107 L200 108 L200 109 L200 110 L200 111 L200 112 L200 113 L200 114 L200 115 L200 116 L200 117 L200 118 L200 119 L200 120 L200 121 L200 122 L200 123 L200 124 L200 125 L200 126 L200 127 L200 128 L200 129 L200 130 L200 131 L200 132 L200 133 L200 134 L200 135 L200 136 L200 137 L200 138 L200 139 L200 140 L200 141 L200 142 L200 143 L200 144 L200 145 L200 146 L200 147 L200 148 L200 149 L200 150 L200 151 L200 152 L200 153 L200 154 L200 155 L200 156 L200 157 L200 158 L200 159 L200 160 L200 161 L200 162 L200 163 L200 164 L200 165 L200 166 L200 167 L200 168 L200 169 L200 170 L200 171 L200 172 L200 173 L200 174 L200 175 L200 176 L200 177 L200 178 L200 179 L200 180 L200 181 L200 182 L200 183 L200 184 L200 185 L200 186 L200 187 L200 188 L200 189 L200 190 L200 191 L200 192 L200 193 L200 194 L200 195 L200 196 L200 197 L200 198 L200 199 L200 200 L199 200 L198 200 L197 200 L196 200 L195 200 L194 200 L193 200 L192 200 L191 200 L190 200 L189 200 L188 200 L187 200 L186 200 L185 200 L184 200 L183 200 L182 200 L181 200 L180 200 L179 200 L178 200 L177 200 L176 200 L175 200 L174 200 L173 200 L172 200 L171 200 L170 200 L169 200 L168 200 L167 200 L166 200 L165 200 L164 200 L163 200 L162 200 L161 200 L160 200 L159 200 L158 200 L157 200 L156 200 L155 200 L154 200 L153 200 L152 200 L151 200 L150 200 L149 200 L148 200 L147 200 L146 200 L145 200 L144 200 L143 200 L142 200 L141 200 L140 200 L139 200 L138 200 L137 200 L136 200 L135 200 L134 200 L133 200 L132 200 L131 200 L130 200 Z " />
<path stroke="rgb(0,0,0)" stroke-opacity="1" fill="rgb(200,200,200)" fill-opacity="1" d="M132 200 L133 200 L134 200 L135 200 L136 200 L137 200 L138 200 L139 200 L140 200 L141 200 L142 200 L143 200 L144 200 L145 200 L146 200 L147 200 L148 200 L149 200 L150 200 L151 200 L152 200 L153 200 L154 200 L155 200 L156 200 L157 200 L158 200 L159 200 L160 200 L161 200 L162 200 L163 200 L164 200 L165 200 L166 200 L167 200 L168 200 L169 200 L170 200 L171 200 L172 200 L173 200 L174 200 L175 200 L176 200 L177 200 L178 200 L179 200 L180 200 L181 200 L182 200 L183 200 L184 200 L185 200 L186 200 L187 200 L188 200 L189 200 L190 200 L191 200 L192 200 L193 200 L194 200 L195 200 L196 200 L197 200 L198 200 L199 200 L200 200 L200 199 L200 198 L200 197 L200 196 L200 195 L200 194 L200 193 L200 192 L200 191 L200 190 L200 189 L200 188 L200 187 L200 186 L200 185 L200 184 L200 183 L200 182 L200 181 L200 180 L200 179 L200 178 L200 177 L200 176 L200 175 L200 174 L200 173 L200 172 L200 171 L200 170 L200 169 L200 168 L200 167 L200 166 L200 165 L200 164 L200 163 L200 162 L200 161 L200 160 L200 159 L200 158 L200 157 L200 156 L200 155 L200 154 L200 153 L200 152 L200 151 L200 150 L200 149 L200 148 L200 147 L200 146 L200 145 L200 144 L200 143 L200 142 L200 141 L200 140 L200 139 L200 138 L200 137 L200 136 L200 135 L200 134 L200 133 L200 132 L200 131 L200 130 L200 129 L200 128 L200 127 L200 126 L200 125 L200 124 L200 123 L200 122 L200 121 L200 120 L200 119 L200 118 L200 117 L200 116 L200 115 L200 114 L200 113 L200 112 L200 111 L200 110 L200 109 L200 108 L200 107 L200 106 L200 105 L200 104 L200 103 L200 102 L200 101 L200 100 L200 99 L200 98 L200 97 L200 96 L200 95 L200 94 L200 93 L200 92 L200 91 L200 90 L200 89 L200 88 L200 87 L200 86 L200 85 L200 84 L200 83 L200 82 L200 81 L200 80 L200 79 L200 78 L200 77 L200 76 L200 75 L200 74 L200 73 L200 72 L200 71 L200 70 L200 69 L200 68 L200 67 L200 66 L200 65 L200 64 L200 63 L200 62 L200 61 L200 60 L200 59 L200 58 L200 57 L200 56 L200 55 L200 54 L200 53 L200 52 L200 51 L200 50 L200 49 L200 48 L200 47 L200 46 L200 45 L200 44 L200 43 L200 42 L200 41 L200 40 L200 39 L200 38 L200 37 L200 36 L200 35 L200 34 L200 33 L200 32 L200 31 L200 30 L200 29 L200 28 L200 27 L200 26 L200 25 L200 24 L200 23 L200 22 L200 21 L200 20 L200 19 L200 18 L200 17 L200 16 L200 15 L200 14 L200 13 L200 12 L200 11 L200 10 L200 9 L200 8 L200 7 L200 6 L200 5 L200 4 L200 3 L200 2 L200 1 L200 0 L199 0 L198 0 L197 0 L196 0 L195 0 L194 0 L193 0 L192 0 L191 0 L190 0 L189 0 L188 0 L187 0 L186 0 L185 0 L184 0 L183 0 L182 0 L181 0 L180 0 L179 0 L178 0 L177 0 L176 0 L175 0 L174 0 L173 0 L172 0 L171 0 L170 0 L169 0 L168 0 L167 0 L166 0 L165 0 L164 0 L163 0 L162 0 L161 0 L160 0 L159 0 L158 0 L157 0 L156 0 L155 0 L154 0 L153 0 L152 0 L151 0 L150 0 L149 0 L148 0 L147 0 L146 0 L145 0 L144 0 L143 0 L142 0 L141 0 L140 0 L139 0 L138 0 L137 0 L136 0 L135 0 L134 0 L133 0 L132 0 L131 0 L130 0 L129 0 L128 0 L127 0 L126 0 L125 0 L124 0 L123 0 L122 0 L121 0 L120 0 L119 0 L118 0 L117 0 L116 0 L115 0 L114 0 L113 0 L112 0 L111 0 L110 0 L109 0 L108 0 L107 0 L106 0 L105 0 L104 0 L103 0 L102 0 L101 0 L100 0 L100 -1 L100 -2 L100 -3 L100 -4 L100 -5 L100 -6 L100 -6.99999 L100 -8 L100 -8.99999 L100 -10 L100 -11 L100 -12 L100 -13 L100 -14 L100 -15 L100 -16 L100 -17 L100 -18 L100 -19 L100 -20 L100 -21 L100 -22 L100 -23 L100 -24 L100 -25 L100 -26 L100 -27 L100 -28 L100 -29 L100 -30 L100 -31 L100 -32 L100 -33 L100 -34 L100 -35 L100 -36 L100 -37 L100 -38 L100 -39 L100 -40 L100 -41 L100 -42 L100 -43 L100 -44 L100 -45 L100 -46 L100 -47 L100 -48 L100 -49 L100 -50 L100 -51 L100 -52 L100 -53 L100 -54 L100 -55 L100 -56 L100 -57 L100 -58 L100 -59 L100 -60 L100 -61 L100 -62 L100 -63 L100 -64 L100 -65 L100 -66 L100 -67 L100 -68 L100 -69 L100 -70 L100 -71 L100 -72 L100 -73 L100 -74 L100 -75 L100 -76 L100 -77 L100 -78 L100 -79 L100 -80 L100 -81 L100 -82 L100 -83 L100 -84 L100 -85 L100 -86 L100 -87 L100 -88 L100 -89 L100 -90 L100 -91 L100 -92 L100 -93 L100 -94 L100 -95 L100 -96 L100 -97 L100 -98 L100 -99 L100 -100 L99 -100 L98 -100 L97 -100 L96 -100 L95 -100 L94 -100 L93 -100 L92 -100 L91 -100 L90 -100 L89 -100 L88 -100 L87 -100 L86 -100 L85 -100 L84 -100 L83 -100 L82 -100 L81 -100 L80 -100 L79 -100 L78 -100 L77 -100 L76 -100 L75 -100 L74 -100 L73 -100 L72 -100 L71 -100 L70 -100 L69 -100 L68 -100 L67 -100 L66 -100 L65 -100 L64 -100 L63 -100 L62 -100 L61 -100 L60 -100 L59 -100 L58 -100 L57 -100 L56 -100 L55 -100 L54 -100 L53 -100 L52 -100 L51 -100 L50 -100 L49 -100 L48 -100 L47 -100 L46 -100 L45 -100 L44 -100 L43 -100 L42 -100 L41 -100 L40 -100 L39 -100 L38 -100 L37 -100 L36 -100 L35 -100 L34 -100 L33 -100 L32 -100 L31 -100 L30 -100 L29 -100 L28 -100 L27 -100 L26 -100 L25 -100 L24 -100 L23 -100 L22 -100 L21 -100 L20 -100 L19 -100 L18 -100 L17 -100 L16 -100 L15 -100 L14 -100 L13 -100 L12 -100 L11 -100 L10 -100 L9 -100 L8 -100 L7 -100 L6 -100 L5 -100 L4 -100 L3 -100 L2 -100 L1 -100 L0 -100 L-1 -100 L-2 -100 L-3 -100 L-4 -100 L-5 -100 L-6 -100 L-6.99999 -100 L-8 -100 L-8.99999 -100 L-10 -100 L-11 -100 L-12 -100 L-13 -100 L-14 -100 L-15 -100 L-16 -100 L-17 -100 L-18 -100 L-19 -100 L-20 -100 L-21 -100 L-22 -100 L-23 -100 L-24 -100 L-25 -100 L-26 -100 L-27 -100 L-28 -100 L-29 -100 L-30 -100 L-31 -100 L-32 -100 L-33 -100 L-34 -100 L-35 -100 L-36 -100 L-37 -100 L-38 -100 L-39 -100 L-40 -100 L-41 -100 L-42 -100 L-43 -100 L-44 -100 L-45 -100 L-46 -100 L-47 -100 L-48 -100 L-49 -100 L-50 -100 L-51 -100 L-52 -100 L-53 -100 L-54 -100 L-55 -100 L-56 -100 L-57 -100 L-58 -100 L-59 -100 L-60 -100 L-61 -100 L-62 -100 L-63 -100 L-64 -100 L-65 -100 L-66 -100 L-67 -100 L-68 -100 L-69 -100 L-70 -100 L-71 -100 L-72 -100 L-73 -100 L-74 -100 L-75 -100 L-76 -100 L-77 -100 L-78 -100 L-79 -100 L-80 -100 L-81 -100 L-82 -100 L-83 -100 L-84 -100 L-85 -100 L-86 -100 L-87 -100 L-88 -100 L-89 -100 L-90 -100 L-91 -100 L-92 -100 L-93 -100 L-94 -100 L-95 -100 L-96 -100 L-97 -100 L-98 -100 L-99 -100 L-100 -100 L-100 -99 L-100 -98 L-100 -97 L-100 -96 L-100 -95 L-100 -94 L-100 -93 L-100 -92 L-100 -91 L-100 -90 L-100 -89 L-100 -88 L-100 -87 L-100 -86 L-100 -85 L-100 -84 L-100 -83 L-100 -82 L-100 -81 L-100 -80 L-100 -79 L-100 -78 L-100 -77 L-100 -76 L-100 -75 L-100 -74 L-100 -73 L-100 -72 L-100 -71 L-100 -70 L-100 -69 L-100 -68 L-100 -67 L-100 -66 L-100 -65 L-100 -64 L-100 -63 L-100 -62 L-100 -61 L-100 -60 L-100 -59 L-100 -58 L-100 -57 L-100 -56 L-100 -55 L-100 -54 L-100 -53 L-100 -52 L-100 -51 L-100 -50 L-100 -49 L-100 -48 L-100 -47 L-100 -46 L-100 -45 L-100 -44 L-100 -43 L-100 -42 L-100 -41 L-100 -40 L-100 -39 L-100 -38 L-100 -37 L-100 -36 L-100 -35 L-100 -34 L-100 -33 L-100 -32 L-100 -31 L-100 -30 L-100 -29 L-100 -28 L-100 -27 L-100 -26 L-100 -25 L-100 -24 L-100 -23 L-100 -22 L-100 -21 L-100 -20 L-100 -19 L-100 -18 L-100 -17 L-100 -16 L-100 -15 L-100 -14 L-100 -13 L-100 -12 L-100 -11 L-100 -10 L-100 -9 L-100 -8 L-100 -7 L-100 -6 L-100 -5 L-100 -4 L-100 -3 L-100 -2 L-100 -1 L-100 0 L-100 1 L-100 2 L-100 3 L-100 4 L-100 5 L-100 6 L-100 6.99999 L-100 8 L-100 8.99999 L-100 10 L-100 11 L-100 12 L-100 13 L-100 14 L-100 15 L-100 16 L-100 17 L-100 18 L-100 19 L-100 20 L-100 21 L-100 22 L-100 23 L-100 24 L-100 25 L-100 26 L-100 27 L-100 28 L-100 29 L-100 30 L-100 31 L-100 32 L-100 33 L-100 34 L-100 35 L-100 36 L-100 37 L-100 38 L-100 39 L-100 40 L-100 41 L-100 42 L-100 43 L-100 44 L-100 45 L-100 46 L-100 47 L-100 48 L-100 49 L-100 50 L-100 51 L-100 52 L-100 53 L-100 54 L-100 55 L-100 56 L-100 57 L-100 58 L-100 59 L-100 60 L-100 61 L-100 62 L-100 63 L-100 64 L-100 65 L-100 66 L-100 67 L-100 68 L-100 69 L-100 70 L-100 71 L-100 72 L-100 73 L-100 74 L-100 75 L-100 76 L-100 77 L-100 78 L-100 79 L-100 80 L-100 81 L-100 82 L-100 83 L-100 84 L-100 85 L-100 86 L-100 87 L-100 88 L-100 89 L-100 90 L-100 91 L-100 92 L-100 93 L-100 94 L-100 95 L-100 96 L-100 97 L-100 98 L-100 99 L-100 100 L-99 100 L-98 100 L-97 100 L-96 100 L-95 100 L-94 100 L-93 100 L-92 100 L-91 100 L-90 100 L-89 100 L-88 100 L-87 100 L-86 100 L-85 100 L-84 100 L-83 100 L-82 100 L-81 100 L-80 100 L-79 100 L-78 100 L-77 100 L-76 100 L-75 100 L-74 100 L-73 100 L-72 100 L-71 100 L-70 100 L-69 100 L-68 100 L-67 100 L-66 100 L-65 100 L-64 100 L-63 100 L-62 100 L-61 100 L-60 100 L-59 100 L-58 100 L-57 100 L-56 100 L-55 100 L-54 100 L-53 100 L-52 100 L-51 100 L-50 100 L-49 100 L-48 100 L-47 100 L-46 100 L-45 100 L-44 100 L-43 100 L-42 100 L-41 100 L-40 100 L-39 100 L-38 100 L-37 100 L-36 100 L-35 100 L-34 100 L-33 100 L-32 100 L-31 100 L-30 100 L-29 100 L-28 100 L-27 100 L-26 100 L-25 100 L-24 100 L-23 100 L-22 100 L-21 100 L-20 100 L-19 100 L-18 100 L-17 100 L-16 100 L-15 100 L-14 100 L-13 100 L-12 100 L-11 100 L-10 100 L-9 100 L-8 100 L-7 100 L-6 100 L-5 100 L-4 100 L-3 100 L-2 100 L-1 100 L0 100 L0 101 L0 102 L0 103 L0 104 L0 105 L0 106 L0 107 L0 108 L0 109 L0 110 L0 111 L0 112 L0 113 L0 114 L0 115 L0 116 L0 117 L0 118 L0 119 L0 120 L0 121 L0 122 L0 123 L0 124 L0 125 L0 126 L0 127 L0 128 L0 129 L0 130 L0 131 L0 132 L0 133 L0 134 L0 135 L0 136 L0 137 L0 138 L0 139 L0 140 L0 141 L0 142 L0 143 L0 144 L0 145 L0 146 L0 147 L0 148 L0 149 L0 150 L0 151 L0 152 L0 153 L0 154 L0 155 L0 156 L0 157 L0 158 L0 159 L0 160 L0 161 L0 162 L0 163 L0 164 L0 165 L0 166 L0 167 L0 168 L0 169 L0 170 L0 171 L0 172 L0 173 L0 174 L0 175 L0 176 L0 177 L0 178 L0 179 L0 180 L0 181 L0 182 L0 183 L0 184 L0 185 L0 186 L0 187 L0 188 L0 189 L0 190 L0 191 L0 192 L0 193 L0 194 L0 195 L0 196 L0 197 L0 198 L0 199 L0 200 L1 200 L2 200 L3 200 L4 200 L5 200 L6 200 L7 200 L8 200 L9 200 L10 200 L11 200 L12 200 L13 200 L14 200 L15 200 L16 200 L17 200 L18 200 L19 200 L20 200 L21 200 L22 200 L23 200 L24 200 L25 200 L26 200 L27 200 L28 200 L29 200 L30 200 L31 200 L32 200 L33 200 L34 200 L35 200 L36 200 L37 200 L38 200 L39 200 L40 200 L41 200 L42 200 L43 200 L44 200 L45 200 L46 200 L47 200 L48 200 L49 200 L50 200 L51 200 L52 200 L53 200 L54 200 L55 200 L56 200 L57 200 L58 200 L59 200 L60 200 L61 200 L62 200 L63 200 L64 200 L65 200 L66 200 L67 200 L68 200 L69 200 L70 200 L71 200 L72 200 L73 200 L74 200 L75 200 L76 200 L77 200 L78 200 L79 200 L80 200 L81 200 L82 200 L83 200 L84 200 L85 200 L86 200 L87 200 L88 200 L89 200 L90 200 L91 200 L92 200 L93 200 L94 200 L95 200 L96 200 L97 200 L98 200 L99 200 L100 200 L101 200 L102 200 L103 200 L104 200 L105 200 L106 200 L107 200 L108 200 L109 200 L110 200 L111 200 L112 200 L113 200 L114 200 L115 200 L116 200 L117 200 L118 200 L119 200 L120 200 L121 200 L122 200 L123 200 L124 200 L125 200 L126 200 L127 200 L128 200 L129 200 L130 200 L131 200 L132 200 Z " />
<path stroke="rgb(0,0,0)" stroke-opacity="1" fill="rgb(200,200,200)" fill-opacity="1" d="M-18.5779 279.992 L-19.2872 279.288 L-19.9965 278.583 L-20.7057 277.879 L-21.415 277.174 L-22.1243 276.47 L-22.8336 275.765 L-23.5429 275.061 L-24.2522 274.356 L-24.9614 273.651 L-25.6707 272.947 L-26.38 272.242 L-27.0893 271.538 L-27.7986 270.833 L-28.5079 270.129 L-29.2172 269.424 L-29.9264 268.72 L-30.6357 268.015 L-31.345 267.311 L-32.0543 266.606 L-32.7636 265.901 L-33.4729 265.197 L-34.1821 264.492 L-34.8914 263.788 L-35.6007 263.083 L-36.31 262.379 L-37.0193 261.674 L-37.7285 260.97 L-38.4378 260.265 L-39.1471 259.561 L-39.8564 258.856 L-40.5657 258.152 L-41.275 257.447 L-41.9843 256.742 L-42.6935 256.038 L-43.4028 255.333 L-44.1121 254.629 L-44.8214 253.924 L-45.5307 253.22 L-46.24 252.515 L-46.9492 251.811 L-47.6585 251.106 L-48.3678 250.402 L-49.0771 249.697 L-49.7864 248.993 L-50.4957 248.288 L-51.2049 247.583 L-51.9142 246.879 L-52.6235 246.174 L-53.3328 245.47 L-54.0421 244.765 L-54.7514 244.061 L-55.4606 243.356 L-56.1699 242.652 L-56.8792 241.947 L-57.5885 241.243 L-58.2978 240.538 L-59.0071 239.833 L-59.7163 239.129 L-60.4256 238.424 L-61.1349 237.72 L-61.8442 237.015 L-62.5535 236.311 L-63.2628 235.606 L-63.972 234.902 L-64.6813 234.197 L-65.3906 233.493 L-66.0999 232.788 L-66.8092 232.084 L-67.5185 231.379 L-68.2277 230.674 L-68.937 229.97 L-69.6463 229.265 L-70.3556 228.561 L-71.0649 227.856 L-71.7742 227.152 L-72.4835 226.447 L-73.1927 225.743 L-73.902 225.038 L-74.6113 224.334 L-75.3206 223.629 L-76.0299 222.925 L-76.7391 222.22 L-77.4484 221.515 L-78.1577 220.811 L-78.867 220.106 L-79.5763 219.402 L-80.2856 218.697 L-80.9948 217.993 L-81.7041 217.288 L-82.4134 216.584 L-83.1227 215.879 L-83.832 215.175 L-84.5413 214.47 L-85.2506 213.765 L-85.9598 213.061 L-86.6691 212.356 L-87.3784 211.652 L-88.0877 210.947 L-88.797 210.243 L-89.5062 209.538 L-90.2155 208.834 L-90.9248 208.129 L-91.6341 207.425 L-92.3434 206.72 L-93.0527 206.016 L-93.7619 205.311 L-94.4712 204.606 L-95.1805 203.902 L-95.8898 203.197 L-96.5991 202.493 L-97.3084 201.788 L-98.0177 201.084 L-98.7269 200.379 L-99.4362 199.675 L-100.145 198.97 L-100.855 198.266 L-101.564 197.561 L-102.273 196.857 L-102.983 196.152 L-103.692 195.447 L-104.401 194.743 L-105.11 194.038 L-105.82 193.334 L-106.529 192.629 L-107.238 191.925 L-107.948 191.22 L-108.657 190.516 L-109.366 189.811 L-110.075 189.107 L-110.785 188.402 L-111.494 187.697 L-112.203 186.993 L-112.913 186.288 L-113.622 185.584 L-114.331 184.879 L-115.04 184.175 L-115.75 183.47 L-116.459 182.766 L-117.168 182.061 L-117.878 181.357 L-118.587 180.652 L-119.296 179.948 L-120.005 179.243 L-120.715 178.538 L-121.424 177.834 L-122.133 177.129 L-122.843 176.425 L-123.552 175.72 L-124.261 175.016 L-124.97 174.311 L-125.68 173.607 L-126.389 172.902 L-127.098 172.198 L-127.808 171.493 L-128.517 170.788 L-129.226 170.084 L-129.935 169.379 L-130.645 168.675 L-131.354 167.97 L-132.063 167.266 L-132.773 166.561 L-133.482 165.857 L-134.191 165.152 L-134.9 164.448 L-135.61 163.743 L-136.319 163.039 L-137.028 162.334 L-137.738 161.629 L-138.447 160.925 L-139.156 160.22 L-139.865 159.516 L-140.575 158.811 L-141.284 158.107 L-141.993 157.402 L-142.703 156.698 L-143.412 155.993 L-144.121 155.289 L-144.83 154.584 L-145.54 153.88 L-146.249 153.175 L-146.958 152.47 L-147.667 151.766 L-148.377 151.061 L-149.086 150.357 L-149.795 149.652 L-150.505 148.948 L-151.214 148.243 L-151.923 147.539 L-152.632 146.834 L-153.342 146.13 L-154.051 145.425 L-154.76 144.72 L-155.47 144.016 L-156.179 143.311 L-156.888 142.607 L-157.597 141.902 L-158.307 141.198 L-159.016 140.493 L-159.725 139.789 L-160.435 139.084 L-161.144 138.38 L-161.853 137.675 L-162.562 136.971 L-163.272 136.266 L-163.981 135.561 L-164.69 134.857 L-165.4 134.152 L-166.109 133.448 L-166.818 132.743 L-167.527 132.039 L-168.237 131.334 L-168.946 130.63 L-169.655 129.925 L-170.365 129.221 L-171.074 128.516 L-171.783 127.811 L-172.492 127.107 L-173.202 126.402 L-173.911 125.698 L-174.62 124.993 L-175.33 124.289 L-176.039 123.584 L-176.748 122.88 L-177.457 122.175 L-178.167 121.471 L-178.876 120.766 L-179.585 120.062 L-180.295 119.357 L-181.004 118.652 L-181.713 117.948 L-182.422 117.243 L-183.132 116.539 L-183.841 115.834 L-184.55 115.13 L-185.26 114.425 L-185.969 113.721 L-186.678 113.016 L-187.387 112.312 L-188.097 111.607 L-188.806 110.903 L-189.515 110.198 L-190.225 109.493 L-190.934 108.789 L-191.643 108.084 L-192.352 107.38 L-193.062 106.675 L-193.771 105.971 L-194.48 105.266 L-195.19 104.562 L-195.899 103.857 L-196.608 103.153 L-197.317 102.448 L-198.027 101.743 L-198.736 101.039 L-199.445 100.334 L-200.154 99.6299 L-200.864 98.9253 L-201.573 98.2208 L-202.282 97.5162 L-202.992 96.8117 L-203.701 96.1072 L-204.41 95.4026 L-205.119 94.6981 L-205.829 93.9935 L-206.538 93.289 L-207.247 92.5845 L-207.957 91.8799 L-208.666 91.1754 L-209.375 90.4708 L-210.084 89.7663 L-210.794 89.0618 L-211.503 88.3572 L-212.212 87.6527 L-212.922 86.9481 L-213.631 86.2436 L-214.34 85.5391 L-215.049 84.8345 L-215.759 84.13 L-216.468 83.4254 L-217.177 82.7209 L-217.887 82.0163 L-218.596 81.3118 L-219.305 80.6073 L-220.014 79.9027 L-220.724 79.1982 L-221.433 78.4936 L-222.142 77.7891 L-222.852 77.0846 L-223.561 76.38 L-224.27 75.6755 L-224.979 74.9709 L-225.689 74.2664 L-226.398 73.5619 L-227.107 72.8573 L-227.817 72.1528 L-228.526 71.4482 L-229.235 70.7437 L-229.944 70.0392 L-230.654 69.3346 L-231.363 68.6301 L-232.072 67.9255 L-232.782 67.221 L-233.491 66.5164 L-234.2 65.8119 L-234.909 65.1074 L-235.619 64.4028 L-236.328 63.6983 L-237.037 62.9937 L-237.747 62.2892 L-238.456 61.5847 L-239.165 60.8801 L-239.874 60.1756 L-240.584 59.471 L-241.293 58.7665 L-242.002 58.062 L-242.712 57.3574 L-243.421 56.6529 L-244.13 55.9483 L-244.839 55.2438 L-245.549 54.5393 L-246.258 53.8347 L-246.967 53.1302 L-247.676 52.4256 L-248.386 51.7211 L-249.095 51.0165 L-249.804 50.312 L-250.514 49.6075 L-251.223 48.9029 L-251.932 48.1984 L-252.641 47.4938 L-253.351 46.7893 L-254.06 46.0848 L-254.769 45.3802 L-255.479 44.6757 L-256.022 44.1362 L-256.188 43.9711 L-256.897 43.2666 L-257.606 42.562 L-258.316 41.8575 L-259.025 41.153 L-259.734 40.4484 L-260.444 39.7439 L-261.153 39.0393 L-261.862 38.3348 L-262.571 37.6303 L-263.281 36.9257 L-263.99 36.2212 L-264.699 35.5166 L-265.409 34.8121 L-266.118 34.1076 L-266.827 33.403 L-267.536 32.6985 L-268.246 31.9939 L-268.955 31.2894 L-269.664 30.5849 L-270.374 29.8803 L-271.083 29.1758 L-271.792 28.4712 L-272.501 27.7667 L-273.211 27.0621 L-273.92 26.3576 L-274.629 25.6531 L-275.339 24.9485 L-276.048 24.244 L-276.757 23.5394 L-277.466 22.8349 L-278.176 22.1304 L-278.885 21.4258 L-279.594 20.7213 L-280 20.3182 L-280 20.3182 L-256.022 44.1362 L-18.5702 280 L-18.5702 280 L-18.5779 279.992 Z " />
</g>
</g>
</svg>
