<!DOCTYPE svg>
<svg xmlns="http://www.w3.org/2000/svg" xmlns:xlink="http://www.w3.org/1999/xlink" width="800" height="800">
<g transform="translate(350.000000,350.000000)">
<g transform="scale(1.000000,1.000000)">
<path stroke="rgb(0,0,0)" stroke-opacity="1" fill="rgb(200,200,200)" fill-opacity="1" d="M330 269 L330 268 L330 267 L330 266 L330 265 L330 264 L330 263 L330 262 L330 261 L330 260 L330 259 L330 258 L330 257 L330 256 L330 255 L330 254 L330 253 L330 252 L330 251 L330 250 L330 249 L330 248 L330 247 L330 246 L330 245 L330 244 L330 243 L330 242 L330 241 L330 240 L330 239 L330 238 L330 237 L330 236 L330 235 L330 234 L330 233 L330 232 L330 231 L330 230 L330 229 L330 228 L330 227 L330 226 L330 225 L330 224 L330 223 L330 222 L330 221 L330 220 L330 219 L330 218 L330 217 L330 216 L330 215 L330 214 L330 213 L330 212 L330 211 L330 210 L330 209 L330 208 L330 207 L330 206 L330 205 L330 204 L330 203 L330 202 L330 201 L330 200 L330 199 L330 198 L330 197 L330 196 L330 195 L330 194 L330 193 L330 192 L330 191 L330 190 L330 189 L330 188 L330 187 L330 186 L330 185 L330 184 L330 183 L330 182 L330 181 L330 180 L330 179 L330 178 L330 177 L330 176 L330 175 L330 174 L330 173 L330 172 L330 171 L330 170 L330 169 L330 168 L330 167 L330 166 L330 165 L330 164 L330 163 L330 162 L330 161 L330 160 L330 159 L330 158 L330 157 L330 156 L330 155 L330 154 L330 153 L330 152 L330 151 L330 150 L330 149 L330 148 L330 147 L330 146 L330 145 L330 144 L330 143 L330 142 L330 141 L330 140 L330 139 L330 138 L330 137 L330 136 L330 135 L330 134 L330 133 L330 132 L330 131 L330 130 L330 129 L330 128 L330 127 L330 126 L330 125 L330 124 L330 123 L330 122 L330 121 L330 120 L330 119 L330 118 L330 117 L330 116 L330 115 L330 114 L330 113 L330 112 L330 111 L330 110 L330 109 L330 108 L330 107 L330 106 L330 105 L330 104 L330 103 L330 102 L330 101 L330 100 L330 99 L330 98 L330 97 L330 96 L330 95 L330 94 L330 93 L330 92 L330 91 L330 90 L330 89 L330 88 L330 87 L330 86 L330 85 L330 84 L330 83 L330 82 L330 81 L330 80 L330 79 L330 78 L330 77 L330 76 L330 75 L330 74 L330 73 L330 72 L330 71 L330 70 L330 69 L330 68 L330 67 L330 66 L330 65 L330 64 L330 63 L330 62 L330 61 L330 60 L330 59 L330 58 L330 57 L330 56 L330 55 L330 54 L330 53 L330 52 L330 51 L330 50 L330 49 L330 48 L330 47 L330 46 L330 45 L330 44 L330 43 L330 42 L330 41 L330 40 L330 39 L330 38 L330 37 L330 36 L330 35 L330 34 L330 33 L330 32 L330 31 L330 30 L330 29 L330 28 L330 27 L330 26 L330 25 L330 24 L330 23 L330 22 L330 21 L330 20 L330 19 L330 18 L330 17 L330 16 L330 15 L330 14 L330 13 L330 12 L330 11 L330 10 L330 8.99999 L330 8 L330 7 L330 6 L330 5 L330 4 L330 3 L330 2 L330 1 L330 0 L330 -1 L330 -2 L330 -3 L330 -4 L330 -5 L330 -6 L330 -7 L330 -8 L330 -9 L330 -10 L330 -11 L330 -12 L330 -13 L330 -14 L330 -15 L330 -16 L330 -17 L330 -18 L330 -19 L330 -20 L330 -21 L330 -22 L330 -23 L330 -24 L330 -25 L330 -26 L330 -27 L330 -28 L330 -29 L330 -30 L330 -31 L330 -32 L330 -33 L330 -34 L330 -35 L330 -36 L330 -37 L330 -38 L330 -39 L330 -40 L330 -41 L330 -42 L330 -43 L330 -44 L330 -45 L330 -46 L330 -47 L330 -48 L330 -49 L330 -50 L330 -51 L330 -52 L330 -53 L330 -54 L330 -55 L330 -56 L330 -57 L330 -58 L330 -59 L330 -60 L330 -61 L330 -62 L330 -63 L330 -64 L330 -65 L330 -66 L330 -67 L330 -68 L330 -69 L330 -70 L330 -71 L330 -72 L330 -73 L330 -74 L330 -75 L330 -76 L330 -77 L330 -78 L330 -79 L330 -80 L330 -81 L330 -82 L330 -83 L330 -84 L330 -85 L330 -86 L330 -87 L330 -88 L330 -89 L330 -90 L330 -91 L330 -92 L330 -93 L330 -94 L330 -95 L330 -96 L330 -97 L330 -98 L330 -99 L330 -100 L330 -101 L330 -102 L330 -103 L330 -104 L330 -105 L330 -106 L330 -107 L330 -108 L330 -109 L330 -110 L330 -111 L330 -112 L330 -113 L330 -114 L330 -115 L330 -116 L330 -117 L330 -118 L330 -119 L330 -120 L330 -121 L330 -122 L330 -123 L330 -124 L330 -125 L330 -126 L330 -127 L330 -128 L330 -129 L330 -130 L330 -131 L330 -132 L330 -133 L330 -134 L330 -135 L330 -136 L330 -137 L330 -138 L330 -139 L330 -140 L330 -141 L330 -142 L330 -143 L330 -144 L330 -145 L330 -146 L330 -147 L330 -148 L330 -149 L330 -150 L330 -151 L330 -152 L330 -153 L330 -154 L330 -155 L330 -156 L330 -157 L330 -158 L330 -159 L330 -160 L330 -161 L330 -162 L330 -163 L330 -164 L330 -165 L330 -166 L330 -167 L330 -168 L330 -169 L330 -170 L330 -171 L330 -172 L330 -173 L330 -174 L330 -175 L330 -176 L330 -177 L330 -178 L330 -179 L330 -180 L330 -181 L330 -182 L330 -183 L330 -184 L330 -185 L330 -186 L330 -187 L330 -188 L330 -189 L330 -190 L330 -191 L330 -192 L330 -193 L330 -194 L330 -195 L330 -196 L330 -197 L330 -198 L330 -199 L330 -200 L330 -201 L330 -202 L330 -203 L330 -204 L330 -205 L330 -206 L330 -207 L330 -208 L330 -209 L330 -210 L330 -211 L330 -212 L330 -213 L330 -214 L330 -215 L330 -216 L330 -217 L330 -218 L330 -219 L330 -220 L330 -221 L330 -222 L330 -223 L330 -224 L330 -225 L330 -226 L330 -227 L330 -228 L330 -229 L330 -230 L330 -231 L330 -232 L330 -233 L330 -234 L330 -235 L330 -236 L330 -237 L330 -238 L330 -239 L330 -240 L330 -241 L330 -242 L330 -243 L330 -244 L330 -245 L330 -246 L330 -247 L330 -248 L330 -249 L330 -250 L330 -251 L330 -252 L330 -253 L330 -254 L330 -255 L330 -256 L330 -257 L330 -258 L330 -259 L330 -260 L330 -261 L330 -262 L330 -263 L330 -264 L330 -265 L330 -266 L330 -267 L330 -268 L330 -269 L330 -270 L330 -271 L330 -272 L330 -273 L330 -274 L330 -275 L330 -276 L330 -277 L330 -278 L330 -279 L330 -280 L330 -281 L330 -282 L330 -283 L330 -284 L330 -285 L330 -286 L330 -287 L330 -288 L330 -289 L330 -290 L330 -291 L330 -292 L330 -293 L330 -294 L330 -295 L330 -296 L330 -297 L330 -298 L330 -299 L330 -300 L330 -301 L330 -302 L330 -303 L330 -304 L330 -305 L330 -306 L330 -307 L330 -308 L330 -309 L330 -310 L330 -311 L330 -312 L330 -313 L330 -314 L330 -315 L330 -316 L330 -317 L330 -318 L330 -319 L330 -320 L330 -321 L330 -322 L330 -323 L330 -324 L330 -325 L330 -326 L330 -327 L330 -328 L330 -329 L330 -330 L329 -330 L328 -330 L327 -330 L326 -330 L325 -330 L324 -330 L323 -330 L322 -330 L321 -330 L320 -330 L319 -330 L318 -330 L317 -330 L316 -330 L315 -330 L314 -330 L313 -330 L312 -330 L311 -330 L310 -330 L309 -330 L308 -330 L307 -330 L306 -330 L305 -330 L304 -330 L303 -330 L302 -330 L301 -330 L300 -330 L299 -330 L298 -330 L297 -330 L296 -330 L295 -330 L294 -330 L293 -330 L292 -330 L291 -330 L290 -330 L289 -330 L288 -330 L287 -330 L286 -330 L285 -330 L284 -330 L283 -330 L282 -330 L281 -330 L280 -330 L279 -330 L278 -330 L277 -330 L276 -330 L275 -330 L274 -330 L273 -330 L272 -330 L271 -330 L270 -330 L269 -330 L268 -330 L267 -330 L266 -330 L265 -330 L264 -330 L263 -330 L262 -330 L261 -330 L260 -330 L259 -330 L258 -330 L257 -330 L256 -330 L255 -330 L254 -330 L253 -330 L252 -330 L251 -330 L250 -330 L249 -330 L248 -330 L247 -330 L246 -330 L245 -330 L244 -330 L243 -330 L242 -330 L241 -330 L240 -330 L239 -330 L238 -330 L237 -330 L236 -330 L235 -330 L234 -330 L233 -330 L232 -330 L231 -330 L230 -330 L229 -330 L228 -330 L227 -330 L226 -330 L225 -330 L224 -330 L223 -330 L222 -330 L221 -330 L220 -330 L219 -330 L218 -330 L217 -330 L216 -330 L215 -330 L214 -330 L213 -330 L212 -330 L211 -330 L210 -330 L209 -330 L208 -330 L207 -330 L206 -330 L205 -330 L204 -330 L203 -330 L202 -330 L201 -330 L200 -330 L199 -330 L198 -330 L197 -330 L196 -330 L195 -330 L194 -330 L193 -330 L192 -330 L191 -330 L190 -330 L189 -330 L188 -330 L187 -330 L186 -330 L185 -330 L184 -330 L183 -330 L182 -330 L181 -330 L180 -330 L179 -330 L178 -330 L177 -330 L176 -330 L175 -330 L174 -330 L173 -330 L172 -330 L171 -330 L170 -330 L169 -330 L168 -330 L167 -330 L166 -330 L165 -330 L164 -330 L163 -330 L162 -330 L161 -330 L160 -330 L159 -330 L158 -330 L157 -330 L156 -330 L155 -330 L154 -330 L153 -330 L152 -330 L151 -330 L150 -330 L149 -330 L148 -330 L147 -330 L146 -330 L145 -330 L144 -330 L143 -330 L142 -330 L141 -330 L140 -330 L139 -330 L138 -330 L137 -330 L136 -330 L135 -330 L134 -330 L133 -330 L132 -330 L131 -330 L130 -330 L129 -330 L128 -330 L127 -330 L126 -330 L125 -330 L124 -330 L123 -330 L122 -330 L121 -330 L120 -330 L119 -330 L118 -330 L117 -330 L116 -330 L115 -330 L114 -330 L113 -330 L112 -330 L111 -330 L110 -330 L109 -330 L108 -330 L107 -330 L106 -330 L105 -330 L104 -330 L103 -330 L102 -330 L101 -330 L100 -330 L99 -330 L98 -330 L97 -330 L96 -330 L95 -330 L94 -330 L93 -330 L92 -330 L91 -330 L90 -330 L89 -330 L88 -330 L87 -330 L86 -330 L85 -330 L84 -330 L83 -330 L82 -330 L81 -330 L80 -330 L79 -330 L78 -330 L77 -330 L76 -330 L75 -330 L74 -330 L73 -330 L72 -330 L71 -330 L70 -330 L69 -330 L68 -330 L67 -330 L66 -330 L65 -330 L64 -330 L63 -330 L62 -330 L61 -330 L60 -330 L59 -330 L58 -330 L57 -330 L56 -330 L55 -330 L54 -330 L53 -330 L52 -330 L51 -330 L50 -330 L49 -330 L48 -330 L47 -330 L46 -330 L45 -330 L44 -330 L43 -330 L42 -330 L41 -330 L40 -330 L39 -330 L38 -330 L37 -330 L36 -330 L35 -330 L34 -330 L33 -330 L32 -330 L31 -330 L30 -330 L29 -330 L28 -330 L27 -330 L26 -330 L25 -330 L24 -330 L23 -330 L22 -330 L21 -330 L20 -330 L19 -330 L18 -330 L17 -330 L16 -330 L15 -330 L14 -330 L13 -330 L12 -330 L11 -330 L10 -330 L9 -330 L8 -330 L7 -330 L6 -330 L4.99999 -330 L4 -330 L3 -330 L2 -330 L1 -330 L0 -330 L-1 -330 L-2 -330 L-2.99999 -330 L-4 -330 L-5 -330 L-6 -330 L-7 -330 L-8 -330 L-8.99999 -330 L-10 -330 L-11 -330 L-12 -330 L-13 -330 L-14 -330 L-15 -330 L-16 -330 L-17 -330 L-18 -330 L-19 -330 L-20 -330 L-21 -330 L-22 -330 L-23 -330 L-24 -330 L-25 -330 L-26 -330 L-27 -330 L-28 -330 L-29 -330 L-30 -330 L-31 -330 L-32 -330 L-33 -330 L-34 -330 L-35 -330 L-36 -330 L-37 -330 L-38 -330 L-39 -330 L-40 -330 L-41 -330 L-42 -330 L-43 -330 L-44 -330 L-45 -330 L-46 -330 L-47 -330 L-48 -330 L-49 -330 L-50 -330 L-51 -330 L-52 -330 L-53 -330 L-54 -330 L-55 -330 L-56 -330 L-57 -330 L-58 -330 L-59 -330 L-60 -330 L-61 -330 L-62 -330 L-63 -330 L-64 -330 L-65 -330 L-66 -330 L-67 -330 L-68 -330 L-69 -330 L-70 -330 L-71 -330 L-72 -330 L-73 -330 L-74 -330 L-75 -330 L-76 -330 L-77 -330 L-78 -330 L-79 -330 L-80 -330 L-81 -330 L-82 -330 L-83 -330 L-84 -330 L-85 -330 L-86 -330 L-87 -330 L-88 -330 L-89 -330 L-90 -330 L-91 -330 L-92 -330 L-93 -330 L-94 -330 L-95 -330 L-96 -330 L-97 -330 L-98 -330 L-99 -330 L-100 -330 L-101 -330 L-102 -330 L-103 -330 L-104 -330 L-105 -330 L-106 -330 L-107 -330 L-108 -330 L-109 -330 L-110 -330 L-111 -330 L-112 -330 L-113 -330 L-114 -330 L-115 -330 L-116 -330 L-117 -330 L-118 -330 L-119 -330 L-120 -330 L-121 -330 L-122 -330 L-123 -330 L-124 -330 L-125 -330 L-126 -330 L-127 -330 L-128 -330 L-129 -330 L-130 -330 L-131 -330 L-132 -330 L-133 -330 L-134 -330 L-135 -330 L-136 -330 L-137 -330 L-138 -330 L-139 -330 L-140 -330 L-141 -330 L-142 -330 L-143 -330 L-144 -330 L-145 -330 L-146 -330 L-147 -330 L-148 -330 L-149 -330 L-150 -330 L-151 -330 L-152 -330 L-153 -330 L-154 -330 L-155 -330 L-156 -330 L-157 -330 L-158 -330 L-159 -330 L-160 -330 L-161 -330 L-162 -330 L-163 -330 L-164 -330 L-165 -330 L-166 -330 L-167 -330 L-168 -330 L-169 -330 L-170 -330 L-171 -330 L-172 -330 L-173 -330 L-174 -330 L-175 -330 L-176 -330 L-177 -330 L-178 -330 L-179 -330 L-180 -330 L-181 -330 L-182 -330 L-183 -330 L-184 -330 L-185 -330 L-186 -330 L-187 -330 L-188 -330 L-189 -330 L-190 -330 L-191 -330 L-192 -330 L-193 -330 L-194 -330 L-195 -330 L-196 -330 L-197 -330 L-198 -330 L-199 -330 L-200 -330 L-201 -330 L-202 -330 L-203 -330 L-204 -330 L-205 -330 L-206 -330 L-207 -330 L-208 -330 L-209 -330 L-210 -330 L-211 -330 L-212 -330 L-213 -330 L-214 -330 L-215 -330 L-216 -330 L-217 -330 L-218 -330 L-219 -330 L-220 -330 L-221 -330 L-222 -330 L-223 -330 L-224 -330 L-225 -330 L-226 -330 L-227 -330 L-228 -330 L-229 -330 L-230 -330 L-231 -330 L-232 -330 L-233 -330 L-234 -330 L-235 -330 L-236 -330 L-237 -330 L-238 -330 L-239 -330 L-240 -330 L-241 -330 L-242 -330 L-243 -330 L-244 -330 L-245 -330 L-246 -330 L-247 -330 L-248 -330 L-249 -330 L-250 -330 L-251 -330 L-252 -330 L-253 -330 L-254 -330 L-255 -330 L-256 -330 L-257 -330 L-258 -330 L-259 -330 L-260 -330 L-261 -330 L-262 -330 L-263 -330 L-264 -330 L-265 -330 L-266 -330 L-267 -330 L-268 -330 L-269 -330 L-270 -330 L-270 -329 L-270 -328 L-270 -327 L-270 -326 L-270 -325 L-270 -324 L-270 -323 L-270 -322 L-270 -321 L-270 -320 L-270 -319 L-270 -318 L-270 -317 L-270 -316 L-270 -315 L-270 -314 L-270 -313 L-270 -312 L-270 -311 L-270 -310 L-270 -309 L-270 -308 L-270 -307 L-270 -306 L-270 -305 L-270 -304 L-270 -303 L-270 -302 L-270 -301 L-270 -300 L-270 -299 L-270 -298 L-270 -297 L-270 -296 L-270 -295 L-270 -294 L-270 -293 L-270 -292 L-270 -291 L-270 -290 L-270 -289 L-270 -288 L-270 -287 L-270 -286 L-270 -285 L-270 -284 L-270 -283 L-270 -282 L-270 -281 L-270 -280 L-270 -279 L-270 -278 L-270 -277 L-270 -276 L-270 -275 L-270 -274 L-270 -273 L-270 -272 L-270 -271 L-270 -270 L-270 -269 L-270 -268 L-270 -267 L-270 -266 L-270 -265 L-270 -264 L-270 -263 L-270 -262 L-270 -261 L-270 -260 L-270 -259 L-270 -258 L-270 -257 L-270 -256 L-270 -255 L-270 -254 L-270 -253 L-270 -252 L-270 -251 L-270 -250 L-270 -249 L-270 -248 L-270 -247 L-270 -246 L-270 -245 L-270 -244 L-270 -243 L-270 -242 L-270 -241 L-270 -240 L-270 -239 L-270 -238 L-270 -237 L-270 -236 L-270 -235 L-270 -234 L-270 -233 L-270 -232 L-270 -231 L-270 -230 L-270 -229 L-270 -228 L-270 -227 L-270 -226 L-270 -225 L-270 -224 L-270 -223 L-270 -222 L-270 -221 L-270 -220 L-270 -219 L-270 -218 L-270 -217 L-270 -216 L-270 -215 L-270 -214 L-270 -213 L-270 -212 L-270 -211 L-270 -210 L-270 -209 L-270 -208 L-270 -207 L-270 -206 L-270 -205 L-270 -204 L-270 -203 L-270 -202 L-270 -201 L-270 -200 L-270 -199 L-270 -198 L-270 -197 L-270 -196 L-270 -195 L-270 -194 L-270 -193 L-270 -192 L-270 -191 L-270 -190 L-270 -189 L-270 -188 L-270 -187 L-270 -186 L-270 -185 L-270 -184 L-270 -183 L-270 -182 L-270 -181 L-270 -180 L-270 -179 L-270 -178 L-270 -177 L-270 -176 L-270 -175 L-270 -174 L-270 -173 L-270 -172 L-270 -171 L-270 -170 L-270 -169 L-270 -168 L-270 -167 L-270 -166 L-270 -165 L-270 -164 L-270 -163 L-270 -162 L-270 -161 L-270 -160 L-270 -159 L-270 -158 L-270 -157 L-270 -156 L-270 -155 L-270 -154 L-270 -153 L-270 -152 L-270 -151 L-270 -150 L-270 -149 L-270 -148 L-270 -147 L-270 -146 L-270 -145 L-270 -144 L-270 -143 L-270 -142 L-270 -141 L-270 -140 L-270 -139 L-270 -138 L-270 -137 L-270 -136 L-270 -135 L-270 -134 L-270 -133 L-270 -132 L-270 -131 L-270 -130 L-270 -129 L-270 -128 L-270 -127 L-270 -126 L-270 -125 L-270 -124 L-270 -123 L-270 -122 L-270 -121 L-270 -120 L-270 -119 L-270 -118 L-270 -117 L-270 -116 L-270 -115 L-270 -114 L-270 -113 L-270 -112 L-270 -111 L-270 -110 L-270 -109 L-270 -108 L-270 -107 L-270 -106 L-270 -105 L-270 -104 L-270 -103 L-270 -102 L-270 -101 L-270 -100 L-270 -99 L-270 -98 L-270 -97 L-270 -96 L-270 -95 L-270 -94 L-270 -93 L-270 -92 L-270 -91 L-270 -90 L-270 -89 L-270 -88 L-270 -87 L-270 -86 L-270 -85 L-270 -84 L-270 -83 L-270 -82 L-270 -81 L-270 -80 L-270 -79 L-270 -78 L-270 -77 L-270 -76 L-270 -75 L-270 -74 L-270 -73 L-270 -72 L-270 -71 L-270 -70 L-270 -69 L-270 -68 L-270 -67 L-270 -66 L-270 -65 L-270 -64 L-270 -63 L-270 -62 L-270 -61 L-270 -60 L-270 -59 L-270 -58 L-270 -57 L-270 -56 L-270 -55 L-270 -54 L-270 -53 L-270 -52 L-270 -51 L-270 -50 L-270 -49 L-270 -48 L-270 -47 L-270 -46 L-270 -45 L-270 -44 L-270 -43 L-270 -42 L-270 -41 L-270 -40 L-270 -39 L-270 -38 L-270 -37 L-270 -36 L-270 -35 L-270 -34 L-270 -33 L-270 -32 L-270 -31 L-270 -30 L-270 -29 L-270 -28 L-270 -27 L-270 -26 L-270 -25 L-270 -24 L-270 -23 L-270 -22 L-270 -21 L-270 -20 L-270 -19 L-270 -18 L-270 -17 L-270 -16 L-270 -15 L-270 -14 L-270 -13 L-270 -12 L-270 -11 L-270 -10 L-270 -9 L-270 -8 L-270 -7 L-270 -6 L-270 -4.99999 L-270 -4 L-270 -3 L-270 -2 L-270 -1 L-270 0 L-270 1 L-270 2 L-270 2.99999 L-270 4 L-270 5 L-270 6 L-270 7 L-270 8 L-270 8.99999 L-270 10 L-270 11 L-270 12 L-270 13 L-270 14 L-270 15 L-270 16 L-270 17 L-270 18 L-270 19 L-270 20 L-270 21 L-270 22 L-270 23 L-270 24 L-270 25 L-270 26 L-270 27 L-270 28 L-270 29 L-270 30 L-270 31 L-270 32 L-270 33 L-270 34 L-270 35 L-270 36 L-270 37 L-270 38 L-270 39 L-270 40 L-270 41 L-270 42 L-270 43 L-270 44 L-270 45 L-270 46 L-270 47 L-270 48 L-270 49 L-270 50 L-270 51 L-270 52 L-270 53 L-270 54 L-270 55 L-270 56 L-270 57 L-270 58 L-270 59 L-270 60 L-270 61 L-270 62 L-270 63 L-270 64 L-270 65 L-270 66 L-270 67 L-270 68 L-270 69 L-270 70 L-270 71 L-270 72 L-270 73 L-270 74 L-270 75 L-270 76 L-270 77 L-270 78 L-270 79 L-270 80 L-270 81 L-270 82 L-270 83 L-270 84 L-270 85 L-270 86 L-270 87 L-270 88 L-270 89 L-270 90 L-270 91 L-270 92 L-270 93 L-270 94 L-270 95 L-270 96 L-270 97 L-270 98 L-270 99 L-270 100 L-270 101 L-270 102 L-270 103 L-270 104 L-270 105 L-270 106 L-270 107 L-270 108 L-270 109 L-270 110 L-270 111 L-270 112 L-270 113 L-270 114 L-270 115 L-270 116 L-270 117 L-270 118 L-270 119 L-270 120 L-270 121 L-270 122 L-270 123 L-270 124 L-270 125 L-270 126 L-270 127 L-270 128 L-270 129 L-270 130 L-270 131 L-270 132 L-270 133 L-270 134 L-270 135 L-270 136 L-270 137 L-270 138 L-270 139 L-270 140 L-270 141 L-270 142 L-270 143 L-270 144 L-270 145 L-270 146 L-270 147 L-270 148 L-270 149 L-270 150 L-270 151 L-270 152 L-270 153 L-270 154 L-270 155 L-270 156 L-270 157 L-270 158 L-270 159 L-270 160 L-270 161 L-270 162 L-270 163 L-270 164 L-270 165 L-270 166 L-270 167 L-270 168 L-270 169 L-270 170 L-270 171 L-270 172 L-270 173 L-270 174 L-270 175 L-270 176 L-270 177 L-270 178 L-270 179 L-270 180 L-270 181 L-270 182 L-270 183 L-270 184 L-270 185 L-270 186 L-270 187 L-270 188 L-270 189 L-270 190 L-270 191 L-270 192 L-270 193 L-270 194 L-270 195 L-270 196 L-270 197 L-270 198 L-270 199 L-270 200 L-270 201 L-270 202 L-270 203 L-270 204 L-270 205 L-270 206 L-270 207 L-270 208 L-270 209 L-270 210 L-270 211 L-270 212 L-270 213 L-270 214 L-270 215 L-270 216 L-270 217 L-270 218 L-270 219 L-270 220 L-270 221 L-270 222 L-270 223 L-270 224 L-270 225 L-270 226 L-270 227 L-270 228 L-270 229 L-270 230 L-270 231 L-270 232 L-270 233 L-270 234 L-270 235 L-270 236 L-270 237 L-270 238 L-270 239 L-270 240 L-270 241 L-270 242 L-270 243 L-270 244 L-270 245 L-270 246 L-270 247 L-270 248 L-270 249 L-270 250 L-270 251 L-270 252 L-270 253 L-270 254 L-270 255 L-270 256 L-270 257 L-270 258 L-270 259 L-270 260 L-270 261 L-270 262 L-270 263 L-270 264 L-270 265 L-270 266 L-270 267 L-270 268 L-270 269 L-270 270 L-269 270 L-268 270 L-267 270 L-266 270 L-265 270 L-264 270 L-263 270 L-262 270 L-261 270 L-260 270 L-259 270 L-258 270 L-257 270 L-256 270 L-255 270 L-254 270 L-253 270 L-252 270 L-251 270 L-250 270 L-249 270 L-248 270 L-247 270 L-246 270 L-245 270 L-244 270 L-243 270 L-242 270 L-241 270 L-240 270 L-239 270 L-238 270 L-237 270 L-236 270 L-235 270 L-234 270 L-233 270 L-232 270 L-231 270 L-230 270 L-229 270 L-228 270 L-227 270 L-226 270 L-225 270 L-224 270 L-223 270 L-222 270 L-221 270 L-220 270 L-219 270 L-218 270 L-217 270 L-216 270 L-215 270 L-214 270 L-213 270 L-212 270 L-211 270 L-210 270 L-209 270 L-208 270 L-207 270 L-206 270 L-205 270 L-204 270 L-203 270 L-202 270 L-201 270 L-200 270 L-199 270 L-198 270 L-197 270 L-196 270 L-195 270 L-194 270 L-193 270 L-192 270 L-191 270 L-190 270 L-189 270 L-188 270 L-187 270 L-186 270 L-185 270 L-184 270 L-183 270 L-182 270 L-181 270 L-180 270 L-179 270 L-178 270 L-177 270 L-176 270 L-175 270 L-174 270 L-173 270 L-172 270 L-171 270 L-170 270 L-169 270 L-168 270 L-167 270 L-166 270 L-165 270 L-164 270 L-163 270 L-162 270 L-161 270 L-160 270 L-159 270 L-158 270 L-157 270 L-156 270 L-155 270 L-154 270 L-153 270 L-152 270 L-151 270 L-150 270 L-149 270 L-148 270 L-147 270 L-146 270 L-145 270 L-144 270 L-143 270 L-142 270 L-141 270 L-140 270 L-139 270 L-138 270 L-137 270 L-136 270 L-135 270 L-134 270 L-133 270 L-132 270 L-131 270 L-130 270 L-129 270 L-128 270 L-127 270 L-126 270 L-125 270 L-124 270 L-123 270 L-122 270 L-121 270 L-120 270 L-119 270 L-118 270 L-117 270 L-116 270 L-115 270 L-114 270 L-113 270 L-112 270 L-111 270 L-110 270 L-109 270 L-108 270 L-107 270 L-106 270 L-105 270 L-104 270 L-103 270 L-102 270 L-101 270 L-100 270 L-99 270 L-98 270 L-97 270 L-96 270 L-95 270 L-94 270 L-93 270 L-92 270 L-91 270 L-90 270 L-89 270 L-88 270 L-87 270 L-86 270 L-85 270 L-84 270 L-83 270 L-82 270 L-81 270 L-80 270 L-79 270 L-78 270 L-77 270 L-76 270 L-75 270 L-74 270 L-73 270 L-72 270 L-71 270 L-70 270 L-69 270 L-68 270 L-67 270 L-66 270 L-65 270 L-64 270 L-63 270 L-62 270 L-61 270 L-60 270 L-59 270 L-58 270 L-57 270 L-56 270 L-55 270 L-54 270 L-53 270 L-52 270 L-51 270 L-50 270 L-49 270 L-48 270 L-47 270 L-46 270 L-45 270 L-44 270 L-43 270 L-42 270 L-41 270 L-40 270 L-39 270 L-38 270 L-37 270 L-36 270 L-35 270 L-34 270 L-33 270 L-32 270 L-31 270 L-30 270 L-29 270 L-28 270 L-27 270 L-26 270 L-25 270 L-24 270 L-23 270 L-22 270 L-21 270 L-20 270 L-19 270 L-18 270 L-17 270 L-16 270 L-15 270 L-14 270 L-13 270 L-12 270 L-11 270 L-10 270 L-8.99999 270 L-8 270 L-7 270 L-6 270 L-5 270 L-4 270 L-3 270 L-2 270 L-1 270 L0 270 L1 270 L2 270 L3 270 L4 270 L5 270 L6 270 L7 270 L8 270 L9 270 L10 270 L11 270 L12 270 L13 270 L14 270 L15 270 L16 270 L17 270 L18 270 L19 270 L20 270 L21 270 L22 270 L23 270 L24 270 L25 270 L26 270 L27 270 L28 270 L29 270 L30 270 L31 270 L32 270 L33 270 L34 270 L35 270 L36 270 L37 270 L38 270 L39 270 L40 270 L41 270 L42 270 L43 270 L44 270 L45 270 L46 270 L47 270 L48 270 L49 270 L50 270 L51 270 L52 270 L53 270 L54 270 L55 270 L56 270 L57 270 L58 270 L59 270 L60 270 L61 270 L62 270 L63 270 L64 270 L65 270 L66 270 L67 270 L68 270 L69 270 L70 270 L71 270 L72 270 L73 270 L74 270 L75 270 L76 270 L77 270 L78 270 L79 270 L80 270 L81 270 L82 270 L83 270 L84 270 L85 270 L86 270 L87 270 L88 270 L89 270 L90 270 L91 270 L92 270 L93 270 L94 270 L95 270 L96 270 L97 270 L98 270 L99 270 L100 270 L101 270 L102 270 L103 270 L104 270 L105 270 L106 270 L107 270 L108 270 L109 270 L110 270 L111 270 L112 270 L113 270 L114 270 L115 270 L116 270 L117 270 L118 270 L119 270 L120 270 L121 270 L122 270 L123 270 L124 270 L125 270 L126 270 L127 270 L128 270 L129 270 L130 270 L131 270 L132 270 L133 270 L134 270 L135 270 L136 270 L137 270 L138 270 L139 270 L140 270 L141 270 L142 270 L143 270 L144 270 L145 270 L146 270 L147 270 L148 270 L149 270 L150 270 L151 270 L152 270 L153 270 L154 270 L155 270 L156 270 L157 270 L158 270 L159 270 L160 270 L161 270 L162 270 L163 270 L164 270 L165 270 L166 270 L167 270 L168 270 L169 270 L170 270 L171 270 L172 270 L173 270 L174 270 L175 270 L176 270 L177 270 L178 270 L179 270 L180 270 L181 270 L182 270 L183 270 L184 270 L185 270 L186 270 L187 270 L188 270 L189 270 L190 270 L191 270 L192 270 L193 270 L194 270 L195 270 L196 270 L197 270 L198 270 L199 270 L200 270 L201 270 L202 270 L203 270 L204 270 L205 270 L206 270 L207 270 L208 270 L209 270 L210 270 L211 270 L212 270 L213 270 L214 270 L215 270 L216 270 L217 270 L218 270 L219 270 L220 270 L221 270 L222 270 L223 270 L224 270 L225 270 L226 270 L227 270 L228 270 L229 270 L230 270 L231 270 L232 270 L233 270 L234 270 L235 270 L236 270 L237 270 L238 270 L239 270 L240 270 L241 270 L242 270 L243 270 L244 270 L245 270 L246 270 L247 270 L248 270 L249 270 L250 270 L251 270 L252 270 L253 270 L254 270 L255 270 L256 270 L257 270 L258 270 L259 270 L260 270 L261 270 L262 270 L263 270 L264 270 L265 270 L266 270 L267 270 L268 270 L269 270 L270 270 L271 270 L272 270 L273 270 L274 270 L275 270 L276 270 L277 270 L278 270 L279 270 L280 270 L281 270 L282 270 L283 270 L284 270 L285 270 L286 270 L287 270 L288 270 L289 270 L290 270 L291 270 L292 270 L293 270 L294 270 L295 270 L296 270 L297 270 L298 270 L299 270 L300 270 L301 270 L302 270 L303 270 L304 270 L305 270 L306 270 L307 270 L308 270 L309 270 L310 270 L311 270 L312 270 L313 270 L314 270 L315 270 L316 270 L317 270 L318 270 L319 270 L320 270 L321 270 L322 270 L323 270 L324 270 L325 270 L326 270 L327 270 L328 270 L329 270 L330 270 L330 269 Z M130 200 L129 200 L128 200 L127 200 L126 200 L125 200 L124 200 L123 200 L122 200 L121 200 L120 200 L119 200 L118 200 L117 200 L116 200 L115 200 L114 200 L113 200 L112 200 L111 200 L110 200 L109 200 L108 200 L107 200 L106 200 L105 200 L104 200 L103 200 L102 200 L101 200 L100 200 L99 200 L98 200 L97 200 L96 200 L95 200 L94 200 L93 200 L92 200 L91 200 L90 200 L89 200 L88 200 L87 200 L86 200 L85 200 L84 200 L83 200 L82 200 L81 200 L80 200 L79 200 L78 200 L77 200 L76 200 L75 200 L74 200 L73 200 L72 200 L71 200 L70 200 L69 200 L68 200 L67 200 L66 200 L65 200 L64 200 L63 200 L62 200 L61 200 L60 200 L59 200 L58 200 L57 200 L56 200 L55 200 L54 200 L53 200 L52 200 L51 200 L50 200 L49 200 L48 200 L47 200 L46 200 L45 200 L44 200 L43 200 L42 200 L41 200 L40 200 L39 200 L38 200 L37 200 L36 200 L35 200 L34 200 L33 200 L32 200 L31 200 L30 200 L29 200 L28 200 L27 200 L26 200 L25 200 L24 200 L23 200 L22 200 L21 200 L20 200 L19 200 L18 200 L17 200 L16 200 L15 200 L14 200 L13 200 L12 200 L11 200 L10 200 L9 200 L8 200 L7 200 L6 200 L5 200 L4 200 L3 200 L2 200 L1 200 L0 200 L0 199 L0 198 L0 197 L0 196 L0 195 L0 194 L0 193 L0 192 L0 191 L0 190 L0 189 L0 188 L0 187 L0 186 L0 185 L0 184 L0 183 L0 182 L0 181 L0 180 L0 179 L0 178 L0 177 L0 176 L0 175 L0 174 L0 173 L0 172 L0 171 L0 170 L0 169 L0 168 L0 167 L0 166 L0 165 L0 164 L0 163 L0 162 L0 161 L0 160 L0 159 L0 158 L0 157 L0 156 L0 155 L0 154 L0 153 L0 152 L0 151 L0 150 L0 149 L0 148 L0 147 L0 146 L0 145 L0 144 L0 143 L0 142 L0 141 L0 140 L0 139 L0 138 L0 137 L0 136 L0 135 L0 134 L0 133 L0 132 L0 131 L0 130 L0 129 L0 128 L0 127 L0 126 L0 125 L0 124 L0 123 L0 122 L0 121 L0 120 L0 119 L0 118 L0 117 L0 116 L0 115 L0 114 L0 113 L0 112 L0 111 L0 110 L0 109 L0 108 L0 107 L0 106 L0 105 L0 104 L0 103 L0 102 L0 101 L0 100 L-1 100 L-2 100 L-3 100 L-4 100 L-5 100 L-6 100 L-7 100 L-8 100 L-9 100 L-10 100 L-11 100 L-12 100 L-13 100 L-14 100 L-15 100 L-16 100 L-17 100 L-18 100 L-19 100 L-20 100 L-21 100 L-22 100 L-23 100 L-24 100 L-25 100 L-26 100 L-27 100 L-28 100 L-29 100 L-30 100 L-31 100 L-32 100 L-33 100 L-34 100 L-35 100 L-36 100 L-37 100 L-38 100 L-39 100 L-40 100 L-41 100 L-42 100 L-43 100 L-44 100 L-45 100 L-46 100 L-47 100 L-48 100 L-49 100 L-50 100 L-51 100 L-52 100 L-53 100 L-54 100 L-55 100 L-56 100 L-57 100 L-58 100 L-59 100 L-60 100 L-61 100 L-62 100 L-63 100 L-64 100 L-65 100 L-66 100 L-67 100 L-68 100 L-69 100 L-70 100 L-71 100 L-72 100 L-73 100 L-74 100 L-75 100 L-76 100 L-77 100 L-78 100 L-79 100 L-80 100 L-81 100 L-82 100 L-83 100 L-84 100 L-85 100 L-86 100 L-87 100 L-88 100 L-89 100 L-90 100 L-91 100 L-92 100 L-93 100 L-94 100 L-95 100 L-96 100 L-97 100 L-98 100 L-99 100 L-100 100 L-100 99 L-100 98 L-100 97 L-100 96 L-100 95 L-100 94 L-100 93 L-100 92 L-100 91 L-100 90 L-100 89 L-100 88 L-100 87 L-100 86 L-100 85 L-100 84 L-100 83 L-100 82 L-100 81 L-100 80 L-100 79 L-100 78 L-100 77 L-100 76 L-100 75 L-100 74 L-100 73 L-100 72 L-100 71 L-100 70 L-100 69 L-100 68 L-100 67 L-100 66 L-100 65 L-100 64 L-100 63 L-100 62 L-100 61 L-100 60 L-100 59 L-100 58 L-100 57 L-100 56 L-100 55 L-100 54 L-100 53 L-100 52 L-100 51 L-100 50 L-100 49 L-100 48 L-100 47 L-100 46 L-100 45 L-100 44 L-100 43 L-100 42 L-100 41 L-100 40 L-100 39 L-100 38 L-100 37 L-100 36 L-100 35 L-100 34 L-100 33 L-100 32 L-100 31 L-100 30 L-100 29 L-100 28 L-100 27 L-100 26 L-100 25 L-100 24 L-100 23 L-100 22 L-100 21 L-100 20 L-100 19 L-100 18 L-100 17 L-100 16 L-100 15 L-100 14 L-100 13 L-100 12 L-100 11 L-100 10 L-100 8.99999 L-100 8 L-100 6.99999 L-100 6 L-100 5 L-100 4 L-100 3 L-100 2 L-100 1 L-100 0 L-100 -1 L-100 -2 L-100 -3 L-100 -4 L-100 -5 L-100 -6 L-100 -7 L-100 -8 L-100 -9 L-100 -10 L-100 -11 L-100 -12 L-100 -13 L-100 -14 L-100 -15 L-100 -16 L-100 -17 L-100 -18 L-100 -19 L-100 -20 L-100 -21 L-100 -22 L-100 -23 L-100 -24 L-100 -25 L-100 -26 L-100 -27 L-100 -28 L-100 -29 L-100 -30 L-100 -31 L-100 -32 L-100 -33 L-100 -34 L-100 -35 L-100 -36 L-100 -37 L-100 -38 L-100 -39 L-100 -40 L-100 -41 L-100 -42 L-100 -43 L-100 -44 L-100 -45 L-100 -46 L-100 -47 L-100 -48 L-100 -49 L-100 -50 L-100 -51 L-100 -52 L-100 -53 L-100 -54 L-100 -55 L-100 -56 L-100 -57 L-100 -58 L-100 -59 L-100 -60 L-100 -61 L-100 -62 L-100 -63 L-100 -64 L-100 -65 L-100 -66 L-100 -67 L-100 -68 L-100 -69 L-100 -70 L-100 -71 L-100 -72 L-100 -73 L-100 -74 L-100 -75 L-100 -76 L-100 -77 L-100 -78 L-100 -79 L-100 -80 L-100 -81 L-100 -82 L-100 -83 L-100 -84 L-100 -85 L-100 -86 L-100 -87 L-100 -88 L-100 -89 L-100 -90 L-100 -91 L-100 -92 L-100 -93 L-100 -94 L-100 -95 L-100 -96 L-100 -97 L-100 -98 L-100 -99 L-100 -100 L-99 -100 L-98 -100 L-97 -100 L-96 -100 L-95 -100 L-94 -100 L-93 -100 L-92 -100 L-91 -100 L-90 -100 L-89 -100 L-88 -100 L-87 -100 L-86 -100 L-85 -100 L-84 -100 L-83 -100 L-82 -100 L-81 -100 L-80 -100 L-79 -100 L-78 -100 L-77 -100 L-76 -100 L-75 -100 L-74 -100 L-73 -100 L-72 -100 L-71 -100 L-70 -100 L-69 -100 L-68 -100 L-67 -100 L-66 -100 L-65 -100 L-64 -100 L-63 -100 L-62 -100 L-61 -100 L-60 -100 L-59 -100 L-58 -100 L-57 -100 L-56 -100 L-55 -100 L-54 -100 L-53 -100 L-52 -100 L-51 -100 L-50 -100 L-49 -100 L-48 -100 L-47 -100 L-46 -100 L-45 -100 L-44 -100 L-43 -100 L-42 -100 L-41 -100 L-40 -100 L-39 -100 L-38 -100 L-37 -100 L-36 -100 L-35 -100 L-34 -100 L-33 -100 L-32 -100 L-31 -100 L-30 -100 L-29 -100 L-28 -100 L-27 -100 L-26 -100 L-25 -100 L-24 -100 L-23 -100 L-22 -100 L-21 -100 L-20 -100 L-19 -100 L-18 -100 L-17 -100 L-16 -100 L-15 -100 L-14 -100 L-13 -100 L-12 -100 L-11 -100 L-10 -100 L-8.99999 -100 L-8 -100 L-6.99999 -100 L-6 -100 L-5 -100 L-4 -100 L-3 -100 L-2 -100 L-1 -100 L0 -100 L1 -100 L2 -100 L3 -100 L4 -100 L5 -100 L6 -100 L7 -100 L8 -100 L9 -100 L10 -100 L11 -100 L12 -100 L13 -100 L14 -100 L15 -100 L16 -100 L17 -100 L18 -100 L19 -100 L20 -100 L21 -100 L22 -100 L23 -100 L24 -100 L25 -100 L26 -100 L27 -100 L28 -100 L29 -100 L30 -100 L31 -100 L32 -100 L33 -100 L34 -100 L35 -100 L36 -100 L37 -100 L38 -100 L39 -100 L40 -100 L41 -100 L42 -100 L43 -100 L44 -100 L45 -100 L46 -100 L47 -100 L48 -100 L49 -100 L50 -100 L51 -100 L52 -100 L53 -100 L54 -100 L55 -100 L56 -100 L57 -100 L58 -100 L59 -100 L60 -100 L61 -100 L62 -100 L63 -100 L64 -100 L65 -100 L66 -100 L67 -100 L68 -100 L69 -100 L70 -100 L71 -100 L72 -100 L73 -100 L74 -100 L75 -100 L76 -100 L77 -100 L78 -100 L79 -100 L80 -100 L81 -100 L82 -100 L83 -100 L84 -100 L85 -100 L86 -100 L87 -100 L88 -100 L89 -100 L90 -100 L91 -100 L92 -100 L93 -100 L94 -100 L95 -100 L96 -100 L97 -100 L98 -100 L99 -100 L100 -100 L100 -99 L100 -98 L100 -97 L100 -96 L100 -95 L100 -94 L100 -93 L100 -92 L100 -91 L100 -90 L100 -89 L100 -88 L100 -87 L100 -86 L100 -85 L100 -84 L100 -83 L100 -82 L100 -81 L100 -80 L100 -79 L100 -78 L100 -77 L100 -76 L100 -75 L100 -74 L100 -73 L100 -72 L100 -71 L100 -70 L100 -69 L100 -68 L100 -67 L100 -66 L100 -65 L100 -64 L100 -63 L100 -62 L100 -61 L100 -60 L100 -59 L100 -58 L100 -57 L100 -56 L100 -55 L100 -54 L100 -53 L100 -52 L100 -51 L100 -50 L100 -49 L100 -48 L100 -47 L100 -46 L100 -45 L100 -44 L100 -43 L100 -42 L100 -41 L100 -40 L100 -39 L100 -38 L100 -37 L100 -36 L100 -35 L100 -34 L100 -33 L100 -32 L100 -31 L100 -30 L100 -29 L100 -28 L100 -27 L100 -26 L100 -25 L100 -24 L100 -23 L100 -22 L100 -21 L100 -20 L100 -19 L100 -18 L100 -17 L100 -16 L100 -15 L100 -14 L100 -13 L100 -12 L100 -11 L100 -10 L100 -8.99999 L100 -8 L100 -6.99999 L100 -6 L100 -5 L100 -4 L100 -3 L100 -2 L100 -1 L100 0 L101 0 L102 0 L103 0 L104 0 L105 0 L106 0 L107 0 L108 0 L109 0 L110 0 L111 0 L112 0 L113 0 L114 0 L115 0 L116 0 L117 0 L118 0 L119 0 L120 0 L121 0 L122 0 L123 0 L124 0 L125 0 L126 0 L127 0 L128 0 L129 0 L130 0 L131 0 L132 0 L133 0 L134 0 L135 0 L136 0 L137 0 L138 0 L139 0 L140 0 L141 0 L142 0 L143 0 L144 0 L145 0 L146 0 L147 0 L148 0 L149 0 L150 0 L151 0 L152 0 L153 0 L154 0 L155 0 L156 0 L157 0 L158 0 L159 0 L160 0 L161 0 L162 0 L163 0 L164 0 L165 0 L166 0 L167 0 L168 0 L169 0 L170 0 L171 0 L172 0 L173 0 L174 0 L175 0 L176 0 L177 0 L178 0 L179 0 L180 0 L181 0 L182 0 L183 0 L184 0 L185 0 L186 0 L187 0 L188 0 L189 0 L190 0 L191 0 L192 0 L193 0 L194 0 L195 0 L196 0 L197 0 L198 0 L199 0 L200 0 L200 1 L200 2 L200 3 L200 4 L200 5 L200 6 L200 7 L200 8 L200 9 L200 10 L200 11 L200 12 L200 13 L200 14 L200 15 L200 16 L200 17 L200 18 L200 19 L200 20 L200 21 L200 22 L200 23 L200 24 L200 25 L200 26 L200 27 L200 28 L200 29 L200 30 L200 31 L200 32 L200 33 L200 34 L200 35 L200 36 L200 37 L200 38 L200 39 L200 40 L200 41 L200 42 L200 43 L200 44 L200 45 L200 46 L200 47 L200 48 L200 49 L200 50 L200 51 L200 52 L200 53 L200 54 L200 55 L200 56 L200 57 L200 58 L200 59 L200 60 L200 61 L200 62 L200 63 L200 64 L200 65 L200 66 L200 67 L200 68 L200 69 L200 70 L200 71 L200 72 L200 73 L200 74 L200 75 L200 76 L200 77 L200 78 L200 79 L200 80 L200 81 L200 82 L200 83 L200 84 L200 85 L200 86 L200 87 L200 88 L200 89 L200 90 L200 91 L200 92 L200 93 L200 94 L200 95 L200 96 L200 97 L200 98 L200 99 L200 100 L200 101 L200 102 L200 103 L200 104 L200 105 L200 106 L200 107 L200 108 L200 109 L200 110 L200 111 L200 112 L200 113 L200 114 L200 115 L200 116 L200 117 L200 118 L200 119 L200 120 L200 121 L200 122 L200 123 L200 124 L200 125 L200 126 L200 127 L200 128 L200 129 L200 130 L200 131 L200 132 L200 133 L200 134 L200 135 L200 136 L200 137 L200 138 L200 139 L200 140 L200 141 L200 142 L200 143 L200 144 L200 145 L200 146 L200 147 L200 148 L200 149 L200 150 L200 151 L200 152 L200 153 L200 154 L200 155 L200 156 L200 157 L200 158 L200 159 L200 160 L200 161 L200 162 L200 163 L200 164 L200 165 L200 166 L200 167 L200 168 L200 169 L200 170 L200 171 L200 172 L200 173 L200 174 L200 175 L200 176 L200 177 L200 178 L200 179 L200 180 L200 181 L200 182 L200 183 L200 184 L200 185 L200 186 L200 187 L200 188 L200 189 L200 190 L200 191 L200 192 L200 193 L200 194 L200 195 L200 196 L200 197 L200 198 L200 199 L200 200 L199 200 L198 200 L197 200 L196 200 L195 200 L194 200 L193 200 L192 200 L191 200 L190 200 L189 200 L188 200 L187 200 L186 200 L185 200 L184 200 L183 200 L182 200 L181 200 L180 200 L179 200 L178 200 L177 200 L176 200 L175 200 L174 200 L173 200 L172 200 L171 200 L170 200 L169 200 L168 200 L167 200 L166 200 L165 200 L164 200 L163 200 L162 200 L161 200 L160 200 L159 200 L158 200 L157 200 L156 200 L155 200 L154 200 L153 200 L152 200 L151 200 L150 200 L149 200 L148 200 L147 200 L146 200 L145 200 L144 200 L143 200 L142 200 L141 200 L140 200 L139 200 L138 200 L137 200 L136 200 L135 200 L134 200 L133 200 L132 200 L131 200 L130 200 Z M-28.6375 270 L-256.022 44.1362 L-270 30.2514 L-269.664 30.5849 L-268.955 31.2894 L-268.246 31.9939 L-267.536 32.6985 L-266.827 33.403 L-266.118 34.1076 L-265.409 34.8121 L-264.699 35.5166 L-263.99 36.2212 L-263.281 36.9257 L-262.571 37.6303 L-261.862 38.3348 L-261.153 39.0393 L-260.444 39.7439 L-259.734 40.4484 L-259.025 41.153 L-258.316 41.8575 L-257.606 42.562 L-256.897 43.2666 L-256.188 43.9711 L-256.022 44.1362 L-255.479 44.6757 L-254.769 45.3802 L-254.06 46.0848 L-253.351 46.7893 L-252.641 47.4938 L-251.932 48.1984 L-251.223 48.9029 L-250.514 49.6075 L-249.804 50.312 L-249.095 51.0165 L-248.386 51.7211 L-247.676 52.4256 L-246.967 53.1302 L-246.258 53.8347 L-245.549 54.5393 L-244.839 55.2438 L-244.13 55.9483 L-243.421 56.6529 L-242.712 57.3574 L-242.002 58.062 L-241.293 58.7665 L-240.584 59.471 L-239.874 60.1756 L-239.165 60.8801 L-238.456 61.5847 L-237.747 62.2892 L-237.037 62.9937 L-236.328 63.6983 L-235.619 64.4028 L-234.909 65.1074 L-234.2 65.8119 L-233.491 66.5164 L-232.782 67.221 L-232.072 67.9255 L-231.363 68.6301 L-230.654 69.3346 L-229.944 70.0392 L-229.235 70.7437 L-228.526 71.4482 L-227.817 72.1528 L-227.107 72.8573 L-226.398 73.5619 L-225.689 74.2664 L-224.979 74.9709 L-224.27 75.6755 L-223.561 76.38 L-222.852 77.0846 L-222.142 77.7891 L-221.433 78.4936 L-220.724 79.1982 L-220.014 79.9027 L-219.305 80.6073 L-218.596 81.3118 L-217.887 82.0163 L-217.177 82.7209 L-216.468 83.4254 L-215.759 84.13 L-215.049 84.8345 L-214.34 85.5391 L-213.631 86.2436 L-212.922 86.9481 L-212.212 87.6527 L-211.503 88.3572 L-210.794 89.0618 L-210.084 89.7663 L-209.375 90.4708 L-208.666 91.1754 L-207.957 91.8799 L-207.247 92.5845 L-206.538 93.289 L-205.829 93.9935 L-205.119 94.6981 L-204.41 95.4026 L-203.701 96.1072 L-202.992 96.8117 L-202.282 97.5162 L-201.573 98.2208 L-200.864 98.9253 L-200.154 99.6299 L-199.445 100.334 L-198.736 101.039 L-198.027 101.743 L-197.317 102.448 L-196.608 103.153 L-195.899 103.857 L-195.19 104.562 L-194.48 105.266 L-193.771 105.971 L-193.062 106.675 L-192.352 107.38 L-191.643 108.084 L-190.934 108.789 L-190.225 109.493 L-189.515 110.198 L-188.806 110.903 L-188.097 111.607 L-187.387 112.312 L-186.678 113.016 L-185.969 113.721 L-185.26 114.425 L-184.55 115.13 L-183.841 115.834 L-183.132 116.539 L-182.422 117.243 L-181.713 117.948 L-181.004 118.652 L-180.295 119.357 L-179.585 120.062 L-178.876 120.766 L-178.167 121.471 L-177.457 122.175 L-176.748 122.88 L-176.039 123.584 L-175.33 124.289 L-174.62 124.993 L-173.911 125.698 L-173.202 126.402 L-172.492 127.107 L-171.783 127.811 L-171.074 128.516 L-170.365 129.221 L-169.655 129.925 L-168.946 130.63 L-168.237 131.334 L-167.527 132.039 L-166.818 132.743 L-166.109 133.448 L-165.4 134.152 L-164.69 134.857 L-163.981 135.561 L-163.272 136.266 L-162.562 136.971 L-161.853 137.675 L-161.144 138.38 L-160.435 139.084 L-159.725 139.789 L-159.016 140.493 L-158.307 141.198 L-157.597 141.902 L-156.888 142.607 L-156.179 143.311 L-155.47 144.016 L-154.76 144.72 L-154.051 145.425 L-153.342 146.13 L-152.632 146.834 L-151.923 147.539 L-151.214 148.243 L-150.505 148.948 L-149.795 149.652 L-149.086 150.357 L-148.377 151.061 L-147.667 151.766 L-146.958 152.47 L-146.249 153.175 L-145.54 153.88 L-144.83 154.584 L-144.121 155.289 L-143.412 155.993 L-142.703 156.698 L-141.993 157.402 L-141.284 158.107 L-140.575 158.811 L-139.865 159.516 L-139.156 160.22 L-138.447 160.925 L-137.738 161.629 L-137.028 162.334 L-136.319 163.039 L-135.61 163.743 L-134.9 164.448 L-134.191 165.152 L-133.482 165.857 L-132.773 166.561 L-132.063 167.266 L-131.354 167.97 L-130.645 168.675 L-129.935 169.379 L-129.226 170.084 L-128.517 170.788 L-127.808 171.493 L-127.098 172.198 L-126.389 172.902 L-125.68 173.607 L-124.97 174.311 L-124.261 175.016 L-123.552 175.72 L-122.843 176.425 L-122.133 177.129 L-121.424 177.834 L-120.715 178.538 L-120.005 179.243 L-119.296 179.948 L-118.587 180.652 L-117.878 181.357 L-117.168 182.061 L-116.459 182.766 L-115.75 183.47 L-115.04 184.175 L-114.331 184.879 L-113.622 185.584 L-112.913 186.288 L-112.203 186.993 L-111.494 187.697 L-110.785 188.402 L-110.075 189.107 L-109.366 189.811 L-108.657 190.516 L-107.948 191.22 L-107.238 191.925 L-106.529 192.629 L-105.82 193.334 L-105.11 194.038 L-104.401 194.743 L-103.692 195.447 L-102.983 196.152 L-102.273 196.857 L-101.564 197.561 L-100.855 198.266 L-100.145 198.97 L-99.4362 199.675 L-98.7269 200.379 L-98.0177 201.084 L-97.3084 201.788 L-96.5991 202.493 L-95.8898 203.197 L-95.1805 203.902 L-94.4712 204.606 L-93.7619 205.311 L-93.0527 206.016 L-92.3434 206.72 L-91.6341 207.425 L-90.9248 208.129 L-90.2155 208.834 L-89.5062 209.538 L-88.797 210.243 L-88.0877 210.947 L-87.3784 211.652 L-86.6691 212.356 L-85.9598 213.061 L-85.2506 213.765 L-84.5413 214.47 L-83.832 215.175 L-83.1227 215.879 L-82.4134 216.584 L-81.7041 217.288 L-80.9948 217.993 L-80.2856 218.697 L-79.5763 219.402 L-78.867 220.106 L-78.1577 220.811 L-77.4484 221.515 L-76.7391 222.22 L-76.0299 222.925 L-75.3206 223.629 L-74.6113 224.334 L-73.902 225.038 L-73.1927 225.743 L-72.4835 226.447 L-71.7742 227.152 L-71.0649 227.856 L-70.3556 228.561 L-69.6463 229.265 L-68.937 229.97 L-68.2277 230.674 L-67.5185 231.379 L-66.8092 232.084 L-66.0999 232.788 L-65.3906 233.493 L-64.6813 234.197 L-63.972 234.902 L-63.2628 235.606 L-62.5535 236.311 L-61.8442 237.015 L-61.1349 237.72 L-60.4256 238.424 L-59.7163 239.129 L-59.0071 239.833 L-58.2978 240.538 L-57.5885 241.243 L-56.8792 241.947 L-56.1699 242.652 L-55.4606 243.356 L-54.7514 244.061 L-54.0421 244.765 L-53.3328 245.47 L-52.6235 246.174 L-51.9142 246.879 L-51.2049 247.583 L-50.4957 248.288 L-49.7864 248.993 L-49.0771 249.697 L-48.3678 250.402 L-47.6585 251.106 L-46.9492 251.811 L-46.24 252.515 L-45.5307 253.22 L-44.8214 253.924 L-44.1121 254.629 L-43.4028 255.333 L-42.6935 256.038 L-41.9843 256.742 L-41.275 257.447 L-40.5657 258.152 L-39.8564 258.856 L-39.1471 259.561 L-38.4378 260.265 L-37.7285 260.97 L-37.0193 261.674 L-36.31 262.379 L-35.6007 263.083 L-34.8914 263.788 L-34.1821 264.492 L-33.4729 265.197 L-32.7636 265.901 L-32.0543 266.606 L-31.345 267.311 L-30.6357 268.015 L-29.9264 268.72 L-29.2172 269.424 L-28.6375 270 L-28.6375 270 Z " />
<path stroke="rgb(0,0,0)" stroke-opacity="1" fill="rgb(200,200,200)" fill-opacity="1" d="M132 200 L133 200 L134 200 L135 200 L136 200 L137 200 L138 200 L139 200 L140 200 L141 200 L142 200 L143 200 L144 200 L145 200 L146 200 L147 200 L148 200 L149 200 L150 200 L151 200 L152 200 L153 200 L154 200 L155 200 L156 200 L157 200 L158 200 L159 200 L160 200 L161 200 L162 200 L163 200 L164 200 L165 200 L166 200 L167 200 L168 200 L169 200 L170 200 L171 200 L172 200 L173 200 L174 200 L175 200 L176 200 L177 200 L178 200 L179 200 L180 200 L181 200 L182 200 L183 200 L184 200 L185 200 L186 200 L187 200 L188 200 L189 200 L190 200 L191 200 L192 200 L193 200 L194 200 L195 200 L196 200 L197 200 L198 200 L199 200 L200 200 L200 199 L200 198 L200 197 L200 196 L200 195 L200 194 L200 193 L200 192 L200 191 L200 190 L200 189 L200 188 L200 187 L200 186 L200 185 L200 184 L200 183 L200 182 L200 181 L200 180 L200 179 L200 178 L200 177 L200 176 L200 175 L200 174 L200 173 L200 172 L200 171 L200 170 L200 169 L200 168 L200 167 L200 166 L200 165 L200 164 L200 163 L200 162 L200 161 L200 160 L200 159 L200 158 L200 157 L200 156 L200 155 L200 154 L200 153 L200 152 L200 151 L200 150 L200 149 L200 148 L200 147 L200 146 L200 145 L200 144 L200 143 L200 142 L200 141 L200 140 L200 139 L200 138 L200 137 L200 136 L200 135 L200 134 L200 133 L200 132 L200 131 L200 130 L200 129 L200 128 L200 127 L200 126 L200 125 L200 124 L200 123 L200 122 L200 121 L200 120 L200 119 L200 118 L200 117 L200 116 L200 115 L200 114 L200 113 L200 112 L200 111 L200 110 L200 109 L200 108 L200 107 L200 106 L200 105 L200 104 L200 103 L200 102 L200 101 L200 100 L200 99 L200 98 L200 97 L200 96 L200 95 L200 94 L200 93 L200 92 L200 91 L200 90 L200 89 L200 88 L200 87 L200 86 L200 85 L200 84 L200 83 L200 82 L200 81 L200 80 L200 79 L200 78 L200 77 L200 76 L200 75 L200 74 L200 73 L200 72 L200 71 L200 70 L200 69 L200 68 L200 67 L200 66 L200 65 L200 64 L200 63 L200 62 L200 61 L200 60 L200 59 L200 58 L200 57 L200 56 L200 55 L200 54 L200 53 L200 52 L200 51 L200 50 L200 49 L200 48 L200 47 L200 46 L200 45 L200 44 L200 43 L200 42 L200 41 L200 40 L200 39 L200 38 L200 37 L200 36 L200 35 L200 34 L200 33 L200 32 L200 31 L200 30 L200 29 L200 28 L200 27 L200 26 L200 25 L200 24 L200 23 L200 22 L200 21 L200 20 L200 19 L200 18 L200 17 L200 16 L200 15 L200 14 L200 13 L200 12 L200 11 L200 10 L200 9 L200 8 L200 7 L200 6 L200 5 L200 4 L200 3 L200 2 L200 1 L200 0 L199 0 L198 0 L197 0 L196 0 L195 0 L194 0 L193 0 L192 0 L191 0 L190 0 L189 0 L188 0 L187 0 L186 0 L185 0 L184 0 L183 0 L182 0 L181 0 L180 0 L179 0 L178 0 L177 0 L176 0 L175 0 L174 0 L173 0 L172 0 L171 0 L170 0 L169 0 L168 0 L167 0 L166 0 L165 0 L164 0 L163 0 L162 0 L161 0 L160 0 L159 0 L158 0 L157 0 L156 0 L155 0 L154 0 L153 0 L152 0 L151 0 L150 0 L149 0 L148 0 L147 0 L146 0 L145 0 L144 0 L143 0 L142 0 L141 0 L140 0 L139 0 L138 0 L137 0 L136 0 L135 0 L134 0 L133 0 L132 0 L131 0 L130 0 L129 0 L128 0 L127 0 L126 0 L125 0 L124 0 L123 0 L122 0 L121 0 L120 0 L119 0 L118 0 L117 0 L116 0 L115 0 L114 0 L113 0 L112 0 L111 0 L110 0 L109 0 L108 0 L107 0 L106 0 L105 0 L104 0 L103 0 L102 0 L101 0 L100 0 L100 -1 L100 -2 L100 -3 L100 -4 L100 -5 L100 -6 L100 -6.99999 L100 -8 L100 -8.99999 L100 -10 L100 -11 L100 -12 L100 -13 L100 -14 L100 -15 L100 -16 L100 -17 L100 -18 L100 -19 L100 -20 L100 -21 L100 -22 L100 -23 L100 -24 L100 -25 L100 -26 L100 -27 L100 -28 L100 -29 L100 -30 L100 -31 L100 -32 L100 -33 L100 -34 L100 -35 L100 -36 L100 -37 L100 -38 L100 -39 L100 -40 L100 -41 L100 -42 L100 -43 L100 -44 L100 -45 L100 -46 L100 -47 L100 -48 L100 -49 L100 -50 L100 -51 L100 -52 L100 -53 L100 -54 L100 -55 L100 -56 L100 -57 L100 -58 L100 -59 L100 -60 L100 -61 L100 -62 L100 -63 L100 -64 L100 -65 L100 -66 L100 -67 L100 -68 L100 -69 L100 -70 L100 -71 L100 -72 L100 -73 L100 -74 L100 -75 L100 -76 L100 -77 L100 -78 L100 -79 L100 -80 L100 -81 L100 -82 L100 -83 L100 -84 L100 -85 L100 -86 L100 -87 L100 -88 L100 -89 L100 -90 L100 -91 L100 -92 L100 -93 L100 -94 L100 -95 L100 -96 L100 -97 L100 -98 L100 -99 L100 -100 L99 -100 L98 -100 L97 -100 L96 -100 L95 -100 L94 -100 L93 -100 L92 -100 L91 -100 L90 -100 L89 -100 L88 -100 L87 -100 L86 -100 L85 -100 L84 -100 L83 -100 L82 -100 L81 -100 L80 -100 L79 -100 L78 -100 L77 -100 L76 -100 L75 -100 L74 -100 L73 -100 L72 -100 L71 -100 L70 -100 L69 -100 L68 -100 L67 -100 L66 -100 L65 -100 L64 -100 L63 -100 L62 -100 L61 -100 L60 -100 L59 -100 L58 -100 L57 -100 L56 -100 L55 -100 L54 -100 L53 -100 L52 -100 L51 -100 L50 -100 L49 -100 L48 -100 L47 -100 L46 -100 L45 -100 L44 -100 L43 -100 L42 -100 L41 -100 L40 -100 L39 -100 L38 -100 L37 -100 L36 -100 L35 -100 L34 -100 L33 -100 L32 -100 L31 -100 L30 -100 L29 -100 L28 -100 L27 -100 L26 -100 L25 -100 L24 -100 L23 -100 L22 -100 L21 -100 L20 -100 L19 -100 L18 -100 L17 -100 L16 -100 L15 -100 L14 -100 L13 -100 L12 -100 L11 -100 L10 -100 L9 -100 L8 -100 L7 -100 L6 -100 L5 -100 L4 -100 L3 -100 L2 -100 L1 -100 L0 -100 L-1 -100 L-2 -100 L-3 -100 L-4 -100 L-5 -100 L-6 -100 L-6.99999 -100 L-8 -100 L-8.99999 -100 L-10 -100 L-11 -100 L-12 -100 L-13 -100 L-14 -100 L-15 -100 L-16 -100 L-17 -100 L-18 -100 L-19 -100 L-20 -100 L-21 -100 L-22 -100 L-23 -100 L-24 -100 L-25 -100 L-26 -100 L-27 -100 L-28 -100 L-29 -100 L-30 -100 L-31 -100 L-32 -100 L-33 -100 L-34 -100 L-35 -100 L-36 -100 L-37 -100 L-38 -100 L-39 -100 L-40 -100 L-41 -100 L-42 -100 L-43 -100 L-44 -100 L-45 -100 L-46 -100 L-47 -100 L-48 -100 L-49 -100 L-50 -100 L-51 -100 L-52 -100 L-53 -100 L-54 -100 L-55 -100 L-56 -100 L-57 -100 L-58 -100 L-59 -100 L-60 -100 L-61 -100 L-62 -100 L-63 -100 L-64 -100 L-65 -100 L-66 -100 L-67 -100 L-68 -100 L-69 -100 L-70 -100 L-71 -100 L-72 -100 L-73 -100 L-74 -100 L-75 -100 L-76 -100 L-77 -100 L-78 -100 L-79 -100 L-80 -100 L-81 -100 L-82 -100 L-83 -100 L-84 -100 L-85 -100 L-86 -100 L-87 -100 L-88 -100 L-89 -100 L-90 -100 L-91 -100 L-92 -100 L-93 -100 L-94 -100 L-95 -100 L-96 -100 L-97 -100 L-98 -100 L-99 -100 L-100 -100 L-100 -99 L-100 -98 L-100 -97 L-100 -96 L-100 -95 L-100 -94 L-100 -93 L-100 -92 L-100 -91 L-100 -90 L-100 -89 L-100 -88 L-100 -87 L-100 -86 L-100 -85 L-100 -84 L-100 -83 L-100 -82 L-100 -81 L-100 -80 L-100 -79 L-100 -78 L-100 -77 L-100 -76 L-100 -75 L-100 -74 L-100 -73 L-100 -72 L-100 -71 L-100 -70 L-100 -69 L-100 -68 L-100 -67 L-100 -66 L-100 -65 L-100 -64 L-100 -63 L-100 -62 L-100 -61 L-100 -60 L-100 -59 L-100 -58 L-100 -57 L-100 -56 L-100 -55 L-100 -54 L-100 -53 L-100 -52 L-100 -51 L-100 -50 L-100 -49 L-100 -48 L-100 -47 L-100 -46 L-100 -45 L-100 -44 L-100 -43 L-100 -42 L-100 -41 L-100 -40 L-100 -39 L-100 -38 L-100 -37 L-100 -36 L-100 -35 L-100 -34 L-100 -33 L-100 -32 L-100 -31 L-100 -30 L-100 -29 L-100 -28 L-100 -27 L-100 -26 L-100 -25 L-100 -24 L-100 -23 L-100 -22 L-100 -21 L-100 -20 L-100 -19 L-100 -18 L-100 -17 L-100 -16 L-100 -15 L-100 -14 L-100 -13 L-100 -12 L-100 -11 L-100 -10 L-100 -9 L-100 -8 L-100 -7 L-100 -6 L-100 -5 L-100 -4 L-100 -3 L-100 -2 L-100 -1 L-100 0 L-100 1 L-100 2 L-100 3 L-100 4 L-100 5 L-100 6 L-100 6.99999 L-100 8 L-100 8.99999 L-100 10 L-100 11 L-100 12 L-100 13 L-100 14 L-100 15 L-100 16 L-100 17 L-100 18 L-100 19 L-100 20 L-100 21 L-100 22 L-100 23 L-100 24 L-100 25 L-100 26 L-100 27 L-100 28 L-100 29 L-100 30 L-100 31 L-100 32 L-100 33 L-100 34 L-100 35 L-100 36 L-100 37 L-100 38 L-100 39 L-100 40 L-100 41 L-100 42 L-100 43 L-100 44 L-100 45 L-100 46 L-100 47 L-100 48 L-100 49 L-100 50 L-100 51 L-100 52 L-100 53 L-100 54 L-100 55 L-100 56 L-100 57 L-100 58 L-100 59 L-100 60 L-100 61 L-100 62 L-100 63 L-100 64 L-100 65 L-100 66 L-100 67 L-100 68 L-100 69 L-100 70 L-100 71 L-100 72 L-100 73 L-100 74 L-100 75 L-100 76 L-100 77 L-100 78 L-100 79 L-100 80 L-100 81 L-100 82 L-100 83 L-100 84 L-100 85 L-100 86 L-100 87 L-100 88 L-100 89 L-100 90 L-100 91 L-100 92 L-100 93 L-100 94 L-100 95 L-100 96 L-100 97 L-100 98 L-100 99 L-100 100 L-99 100 L-98 100 L-97 100 L-96 100 L-95 100 L-94 100 L-93 100 L-92 100 L-91 100 L-90 100 L-89 100 L-88 100 L-87 100 L-86 100 L-85 100 L-84 100 L-83 100 L-82 100 L-81 100 L-80 100 L-79 100 L-78 100 L-77 100 L-76 100 L-75 100 L-74 100 L-73 100 L-72 100 L-71 100 L-70 100 L-69 100 L-68 100 L-67 100 L-66 100 L-65 100 L-64 100 L-63 100 L-62 100 L-61 100 L-60 100 L-59 100 L-58 100 L-57 100 L-56 100 L-55 100 L-54 100 L-53 100 L-52 100 L-51 100 L-50 100 L-49 100 L-48 100 L-47 100 L-46 100 L-45 100 L-44 100 L-43 100 L-42 100 L-41 100 L-40 100 L-39 100 L-38 100 L-37 100 L-36 100 L-35 100 L-34 100 L-33 100 L-32 100 L-31 100 L-30 100 L-29 100 L-28 100 L-27 100 L-26 100 L-25 100 L-24 100 L-23 100 L-22 100 L-21 100 L-20 100 L-19 100 L-18 100 L-17 100 L-16 100 L-15 100 L-14 100 L-13 100 L-12 100 L-11 100 L-10 100 L-9 100 L-8 100 L-7 100 L-6 100 L-5 100 L-4 100 L-3 100 L-2 100 L-1 100 L0 100 L0 101 L0 102 L0 103 L0 104 L0 105 L0 106 L0 107 L0 108 L0 109 L0 110 L0 111 L0 112 L0 113 L0 114 L0 115 L0 116 L0 117 L0 118 L0 119 L0 120 L0 121 L0 122 L0 123 L0 124 L0 125 L0 126 L0 127 L0 128 L0 129 L0 130 L0 131 L0 132 L0 133 L0 134 L0 135 L0 136 L0 137 L0 138 L0 139 L0 140 L0 141 L0 142 L0 143 L0 144 L0 145 L0 146 L0 147 L0 148 L0 149 L0 150 L0 151 L0 152 L0 153 L0 154 L0 155 L0 156 L0 157 L0 158 L0 159 L0 160 L0 161 L0 162 L0 163 L0 164 L0 165 L0 166 L0 167 L0 168 L0 169 L0 170 L0 171 L0 172 L0 173 L0 174 L0 175 L0 176 L0 177 L0 178 L0 179 L0 180 L0 181 L0 182 L0 183 L0 184 L0 185 L0 186 L0 187 L0 188 L0 189 L0 190 L0 191 L0 192 L0 193 L0 194 L0 195 L0 196 L0 197 L0 198 L0 199 L0 200 L1 200 L2 200 L3 200 L4 200 L5 200 L6 200 L7 200 L8 200 L9 200 L10 200 L11 200 L12 200 L13 200 L14 200 L15 200 L16 200 L17 200 L18 200 L19 200 L20 200 L21 200 L22 200 L23 200 L24 200 L25 200 L26 200 L27 200 L28 200 L29 200 L30 200 L31 200 L32 200 L33 200 L34 200 L35 200 L36 200 L37 200 L38 200 L39 200 L40 200 L41 200 L42 200 L43 200 L44 200 L45 200 L46 200 L47 200 L48 200 L49 200 L50 200 L51 200 L52 200 L53 200 L54 200 L55 200 L56 200 L57 200 L58 200 L59 200 L60 200 L61 200 L62 200 L63 200 L64 200 L65 200 L66 200 L67 200 L68 200 L69 200 L70 200 L71 200 L72 200 L73 200 L74 200 L75 200 L76 200 L77 200 L78 200 L79 200 L80 200 L81 200 L82 200 L83 200 L84 200 L85 200 L86 200 L87 200 L88 200 L89 200 L90 200 L91 200 L92 200 L93 200 L94 200 L95 200 L96 200 L97 200 L98 200 L99 200 L100 200 L101 200 L102 200 L103 200 L104 200 L105 200 L106 200 L107 200 L108 200 L109 200 L110 200 L111 200 L112 200 L113 200 L114 200 L115 200 L116 200 L117 200 L118 200 L119 200 L120 200 L121 200 L122 200 L123 200 L124 200 L125 200 L126 200 L127 200 L128 200 L129 200 L130 200 L131 200 L132 200 Z " />
<path stroke="rgb(0,0,0)" stroke-opacity="1" fill="rgb(200,200,200)" fill-opacity="1" d="M-29.2172 269.424 L-29.9264 268.72 L-30.6357 268.015 L-31.345 267.311 L-32.0543 266.606 L-32.7636 265.901 L-33.4729 265.197 L-34.1821 264.492 L-34.8914 263.788 L-35.6007 263.083 L-36.31 262.379 L-37.0193 261.674 L-37.7285 260.97 L-38.4378 260.265 L-39.1471 259.561 L-39.8564 258.856 L-40.5657 258.152 L-41.275 257.447 L-41.9843 256.742 L-42.6935 256.038 L-43.4028 255.333 L-44.1121 254.629 L-44.8214 253.924 L-45.5307 253.22 L-46.24 252.515 L-46.9492 251.811 L-47.6585 251.106 L-48.3678 250.402 L-49.0771 249.697 L-49.7864 248.993 L-50.4957 248.288 L-51.2049 247.583 L-51.9142 246.879 L-52.6235 246.174 L-53.3328 245.47 L-54.0421 244.765 L-54.7514 244.061 L-55.4606 243.356 L-56.1699 242.652 L-56.8792 241.947 L-57.5885 241.243 L-58.2978 240.538 L-59.0071 239.833 L-59.7163 239.129 L-60.4256 238.424 L-61.1349 237.72 L-61.8442 237.015 L-62.5535 236.311 L-63.2628 235.606 L-63.972 234.902 L-64.6813 234.197 L-65.3906 233.493 L-66.0999 232.788 L-66.8092 232.084 L-67.5185 231.379 L-68.2277 230.674 L-68.937 229.97 L-69.6463 229.265 L-70.3556 228.561 L-71.0649 227.856 L-71.7742 227.152 L-72.4835 226.447 L-73.1927 225.743 L-73.902 225.038 L-74.6113 224.334 L-75.3206 223.629 L-76.0299 222.925 L-76.7391 222.22 L-77.4484 221.515 L-78.1577 220.811 L-78.867 220.106 L-79.5763 219.402 L-80.2856 218.697 L-80.9948 217.993 L-81.7041 217.288 L-82.4134 216.584 L-83.1227 215.879 L-83.832 215.175 L-84.5413 214.47 L-85.2506 213.765 L-85.9598 213.061 L-86.6691 212.356 L-87.3784 211.652 L-88.0877 210.947 L-88.797 210.243 L-89.5062 209.538 L-90.2155 208.834 L-90.9248 208.129 L-91.6341 207.425 L-92.3434 206.72 L-93.0527 206.016 L-93.7619 205.311 L-94.4712 204.606 L-95.1805 203.902 L-95.8898 203.197 L-96.5991 202.493 L-97.3084 201.788 L-98.0177 201.084 L-98.7269 200.379 L-99.4362 199.675 L-100.145 198.97 L-100.855 198.266 L-101.564 197.561 L-102.273 196.857 L-102.983 196.152 L-103.692 195.447 L-104.401 194.743 L-105.11 194.038 L-105.82 193.334 L-106.529 192.629 L-107.238 191.925 L-107.948 191.22 L-108.657 190.516 L-109.366 189.811 L-110.075 189.107 L-110.785 188.402 L-111.494 187.697 L-112.203 186.993 L-112.913 186.288 L-113.622 185.584 L-114.331 184.879 L-115.04 184.175 L-115.75 183.47 L-116.459 182.766 L-117.168 182.061 L-117.878 181.357 L-118.587 180.652 L-119.296 179.948 L-120.005 179.243 L-120.715 178.538 L-121.424 177.834 L-122.133 177.129 L-122.843 176.425 L-123.552 175.72 L-124.261 175.016 L-124.97 174.311 L-125.68 173.607 L-126.389 172.902 L-127.098 172.198 L-127.808 171.493 L-128.517 170.788 L-129.226 170.084 L-129.935 169.379 L-130.645 168.675 L-131.354 167.97 L-132.063 167.266 L-132.773 166.561 L-133.482 165.857 L-134.191 165.152 L-134.9 164.448 L-135.61 163.743 L-136.319 163.039 L-137.028 162.334 L-137.738 161.629 L-138.447 160.925 L-139.156 160.22 L-139.865 159.516 L-140.575 158.811 L-141.284 158.107 L-141.993 157.402 L-142.703 156.698 L-143.412 155.993 L-144.121 155.289 L-144.83 154.584 L-145.54 153.88 L-146.249 153.175 L-146.958 152.47 L-147.667 151.766 L-148.377 151.061 L-149.086 150.357 L-149.795 149.652 L-150.505 148.948 L-151.214 148.243 L-151.923 147.539 L-152.632 146.834 L-153.342 146.13 L-154.051 145.425 L-154.76 144.72 L-155.47 144.016 L-156.179 143.311 L-156.888 142.607 L-157.597 141.902 L-158.307 141.198 L-159.016 140.493 L-159.725 139.789 L-160.435 139.084 L-161.144 138.38 L-161.853 137.675 L-162.562 136.971 L-163.272 136.266 L-163.981 135.561 L-164.69 134.857 L-165.4 134.152 L-166.109 133.448 L-166.818 132.743 L-167.527 132.039 L-168.237 131.334 L-168.946 130.63 L-169.655 129.925 L-170.365 129.221 L-171.074 128.516 L-171.783 127.811 L-172.492 127.107 L-173.202 126.402 L-173.911 125.698 L-174.62 124.993 L-175.33 124.289 L-176.039 123.584 L-176.748 122.88 L-177.457 122.175 L-178.167 121.471 L-178.876 120.766 L-179.585 120.062 L-180.295 119.357 L-181.004 118.652 L-181.713 117.948 L-182.422 117.243 L-183.132 116.539 L-183.841 115.834 L-184.55 115.13 L-185.26 114.425 L-185.969 113.721 L-186.678 113.016 L-187.387 112.312 L-188.097 111.607 L-188.806 110.903 L-189.515 110.198 L-190.225 109.493 L-190.934 108.789 L-191.643 108.084 L-192.352 107.38 L-193.062 106.675 L-193.771 105.971 L-194.48 105.266 L-195.19 104.562 L-195.899 103.857 L-196.608 103.153 L-197.317 102.448 L-198.027 101.743 L-198.736 101.039 L-199.445 100.334 L-200.154 99.6299 L-200.864 98.9253 L-201.573 98.2208 L-202.282 97.5162 L-202.992 96.8117 L-203.701 96.1072 L-204.41 95.4026 L-205.119 94.6981 L-205.829 93.9935 L-206.538 93.289 L-207.247 92.5845 L-207.957 91.8799 L-208.666 91.1754 L-209.375 90.4708 L-210.084 89.7663 L-210.794 89.0618 L-211.503 88.3572 L-212.212 87.6527 L-212.922 86.9481 L-213.631 86.2436 L-214.34 85.5391 L-215.049 84.8345 L-215.759 84.13 L-216.468 83.4254 L-217.177 82.7209 L-217.887 82.0163 L-218.596 81.3118 L-219.305 80.6073 L-220.014 79.9027 L-220.724 79.1982 L-221.433 78.4936 L-222.142 77.7891 L-222.852 77.0846 L-223.561 76.38 L-224.27 75.6755 L-224.979 74.9709 L-225.689 74.2664 L-226.398 73.5619 L-227.107 72.8573 L-227.817 72.1528 L-228.526 71.4482 L-229.235 70.7437 L-229.944 70.0392 L-230.654 69.3346 L-231.363 68.6301 L-232.072 67.9255 L-232.782 67.221 L-233.491 66.5164 L-234.2 65.8119 L-234.909 65.1074 L-235.619 64.4028 L-236.328 63.6983 L-237.037 62.9937 L-237.747 62.2892 L-238.456 61.5847 L-239.165 60.8801 L-239.874 60.1756 L-240.584 59.471 L-241.293 58.7665 L-242.002 58.062 L-242.712 57.3574 L-243.421 56.6529 L-244.13 55.9483 L-244.839 55.2438 L-245.549 54.5393 L-246.258 53.8347 L-246.967 53.1302 L-247.676 52.4256 L-248.386 51.7211 L-249.095 51.0165 L-249.804 50.312 L-250.514 49.6075 L-251.223 48.9029 L-251.932 48.1984 L-252.641 47.4938 L-253.351 46.7893 L-254.06 46.0848 L-254.769 45.3802 L-255.479 44.6757 L-256.022 44.1362 L-256.188 43.9711 L-256.897 43.2666 L-257.606 42.562 L-258.316 41.8575 L-259.025 41.153 L-259.734 40.4484 L-260.444 39.7439 L-261.153 39.0393 L-261.862 38.3348 L-262.571 37.6303 L-263.281 36.9257 L-263.99 36.2212 L-264.699 35.5166 L-265.409 34.8121 L-266.118 34.1076 L-266.827 33.403 L-267.536 32.6985 L-268.246 31.9939 L-268.955 31.2894 L-269.664 30.5849 L-270 30.2514 L-256.022 44.1362 L-28.6375 270 L-28.6375 270 L-29.2172 269.424 Z " />
</g>
</g>
</svg>
