<!DOCTYPE svg>
<svg xmlns="http://www.w3.org/2000/svg" xmlns:xlink="http://www.w3.org/1999/xlink" width="800" height="800">
<g transform="translate(350.000000,350.000000)">
<g transform="scale(1.000000,1.000000)">
<path stroke="rgb(0,0,0)" stroke-opacity="1" fill="rgb(200,200,200)" fill-opacity="1" d="M-260 -38 L-260 -37 L-260 -36 L-260 -35 L-260 -34 L-260 -33 L-260 -32 L-260 -31 L-260 -30 L-260 -29 L-260 -28 L-260 -27 L-260 -26 L-260 -25 L-260 -24 L-260 -23 L-260 -22 L-260 -21 L-260 -20 L-260 -19 L-260 -18 L-260 -17 L-260 -16 L-260 -15 L-260 -14 L-260 -13 L-260 -12 L-260 -11 L-260 -10 L-260 -8.99999 L-260 -8 L-260 -7 L-260 -6 L-260 -5 L-260 -3.99999 L-260 -3 L-260 -2 L-260 -1 L-260 0 L-260 1 L-260 2 L-260 3 L-260 3.99999 L-260 5 L-260 6 L-260 7 L-260 8 L-260 9 L-260 9.99999 L-260 11 L-260 12 L-260 13 L-260 14 L-260 15 L-260 16 L-260 17 L-260 18 L-260 19 L-260 20 L-260 21 L-260 22 L-260 23 L-260 24 L-260 25 L-260 26 L-260 27 L-260 28 L-260 29 L-260 30 L-260 31 L-260 32 L-260 33 L-260 34 L-260 35 L-260 36 L-260 37 L-260 38 L-260 39 L-260 40 L-260 41 L-260 42 L-260 43 L-260 44 L-260 45 L-260 46 L-260 47 L-260 48 L-260 49 L-260 50 L-260 51 L-260 52 L-260 53 L-260 54 L-260 55 L-260 56 L-260 57 L-260 58 L-260 59 L-260 60 L-260 61 L-260 62 L-260 63 L-260 64 L-260 65 L-260 66 L-260 67 L-260 68 L-260 69 L-260 70 L-260 71 L-260 72 L-260 73 L-260 74 L-260 75 L-260 76 L-260 77 L-260 78 L-260 79 L-260 80 L-260 81 L-260 82 L-260 83 L-260 84 L-260 85 L-260 86 L-260 87 L-260 88 L-260 89 L-260 90 L-260 91 L-260 92 L-260 93 L-260 94 L-260 95 L-260 96 L-260 97 L-260 98 L-260 99 L-260 100 L-260 101 L-260 102 L-260 103 L-260 104 L-260 105 L-260 106 L-260 107 L-260 108 L-260 109 L-260 110 L-260 111 L-260 112 L-260 113 L-260 114 L-260 115 L-260 116 L-260 117 L-260 118 L-260 119 L-260 120 L-260 121 L-260 122 L-260 123 L-260 124 L-260 125 L-260 126 L-260 127 L-260 128 L-260 129 L-260 130 L-260 131 L-260 132 L-260 133 L-260 134 L-260 135 L-260 136 L-260 137 L-260 138 L-260 139 L-260 140 L-260 141 L-260 142 L-260 143 L-260 144 L-260 145 L-260 146 L-260 147 L-260 148 L-260 149 L-260 150 L-260 151 L-260 152 L-260 153 L-260 154 L-260 155 L-260 156 L-260 157 L-260 158 L-260 159 L-260 160 L-260 161 L-260 162 L-260 163 L-260 164 L-260 165 L-260 166 L-260 167 L-260 168 L-260 169 L-260 170 L-260 171 L-260 172 L-260 173 L-260 174 L-260 175 L-260 176 L-260 177 L-260 178 L-260 179 L-260 180 L-260 181 L-260 182 L-260 183 L-260 184 L-260 185 L-260 186 L-260 187 L-260 188 L-260 189 L-260 190 L-260 191 L-260 192 L-260 193 L-260 194 L-260 195 L-260 196 L-260 197 L-260 198 L-260 199 L-260 200 L-260 201 L-260 202 L-260 203 L-260 204 L-260 205 L-260 206 L-260 207 L-260 208 L-260 209 L-260 210 L-260 211 L-260 212 L-260 213 L-260 214 L-260 215 L-260 216 L-260 217 L-260 218 L-260 219 L-260 220 L-260 221 L-260 222 L-260 223 L-260 224 L-260 225 L-260 226 L-260 227 L-260 228 L-260 229 L-260 230 L-260 231 L-260 232 L-260 233 L-260 234 L-260 235 L-260 236 L-260 237 L-260 238 L-260 239 L-260 240 L-260 241 L-260 242 L-260 243 L-260 244 L-260 245 L-260 246 L-260 247 L-260 248 L-260 249 L-260 250 L-260 251 L-260 252 L-260 253 L-260 254 L-260 255 L-260 256 L-260 257 L-260 258 L-260 259 L-260 260 L-259 260 L-258 260 L-257 260 L-256 260 L-255 260 L-254 260 L-253 260 L-252 260 L-251 260 L-250 260 L-249 260 L-248 260 L-247 260 L-246 260 L-245 260 L-244 260 L-243 260 L-242 260 L-241 260 L-240 260 L-239 260 L-238 260 L-237 260 L-236 260 L-235 260 L-234 260 L-233 260 L-232 260 L-231 260 L-230 260 L-229 260 L-228 260 L-227 260 L-226 260 L-225 260 L-224 260 L-223 260 L-222 260 L-221 260 L-220 260 L-219 260 L-218 260 L-217 260 L-216 260 L-215 260 L-214 260 L-213 260 L-212 260 L-211 260 L-210 260 L-209 260 L-208 260 L-207 260 L-206 260 L-205 260 L-204 260 L-203 260 L-202 260 L-201 260 L-200 260 L-199 260 L-198 260 L-197 260 L-196 260 L-195 260 L-194 260 L-193 260 L-192 260 L-191 260 L-190 260 L-189 260 L-188 260 L-187 260 L-186 260 L-185 260 L-184 260 L-183 260 L-182 260 L-181 260 L-180 260 L-179 260 L-178 260 L-177 260 L-176 260 L-175 260 L-174 260 L-173 260 L-172 260 L-171 260 L-170 260 L-169 260 L-168 260 L-167 260 L-166 260 L-165 260 L-164 260 L-163 260 L-162 260 L-161 260 L-160 260 L-159 260 L-158 260 L-157 260 L-156 260 L-155 260 L-154 260 L-153 260 L-152 260 L-151 260 L-150 260 L-149 260 L-148 260 L-147 260 L-146 260 L-145 260 L-144 260 L-143 260 L-142 260 L-141 260 L-140 260 L-139 260 L-138 260 L-137 260 L-136 260 L-135 260 L-134 260 L-133 260 L-132 260 L-131 260 L-130 260 L-129 260 L-128 260 L-127 260 L-126 260 L-125 260 L-124 260 L-123 260 L-122 260 L-121 260 L-120 260 L-119 260 L-118 260 L-117 260 L-116 260 L-115 260 L-114 260 L-113 260 L-112 260 L-111 260 L-110 260 L-109 260 L-108 260 L-107 260 L-106 260 L-105 260 L-104 260 L-103 260 L-102 260 L-101 260 L-100 260 L-99 260 L-98 260 L-97 260 L-96 260 L-95 260 L-94 260 L-93 260 L-92 260 L-91 260 L-90 260 L-89 260 L-88 260 L-87 260 L-86 260 L-85 260 L-84 260 L-83 260 L-82 260 L-81 260 L-80 260 L-79 260 L-78 260 L-77 260 L-76 260 L-75 260 L-74 260 L-73 260 L-72 260 L-71 260 L-70 260 L-69 260 L-68 260 L-67 260 L-66 260 L-65 260 L-64 260 L-63 260 L-62 260 L-61 260 L-60 260 L-59 260 L-58 260 L-57 260 L-56 260 L-55 260 L-54 260 L-53 260 L-52 260 L-51 260 L-50 260 L-49 260 L-48 260 L-47 260 L-46 260 L-45 260 L-44 260 L-43 260 L-42 260 L-41 260 L-40 260 L-39 260 L-38 260 L-37 260 L-36 260 L-35 260 L-34 260 L-33 260 L-32 260 L-31 260 L-30 260 L-29 260 L-28 260 L-27 260 L-26 260 L-25 260 L-24 260 L-23 260 L-22 260 L-21 260 L-20 260 L-19 260 L-18 260 L-17 260 L-16 260 L-15 260 L-14 260 L-13 260 L-12 260 L-11 260 L-10 260 L-9 260 L-7.99999 260 L-7 260 L-6 260 L-4.99999 260 L-4 260 L-3 260 L-1.99999 260 L-1 260 L0 260 L1 260 L2 260 L3 260 L3.99999 260 L5 260 L6 260 L6.99999 260 L8 260 L9 260 L10 260 L11 260 L12 260 L13 260 L14 260 L15 260 L16 260 L17 260 L18 260 L19 260 L20 260 L21 260 L22 260 L23 260 L24 260 L25 260 L26 260 L27 260 L28 260 L29 260 L30 260 L31 260 L32 260 L33 260 L34 260 L35 260 L36 260 L37 260 L38 260 L39 260 L40 260 L41 260 L42 260 L43 260 L44 260 L45 260 L46 260 L47 260 L48 260 L49 260 L50 260 L51 260 L52 260 L53 260 L54 260 L55 260 L56 260 L57 260 L58 260 L59 260 L60 260 L61 260 L62 260 L63 260 L64 260 L65 260 L66 260 L67 260 L68 260 L69 260 L70 260 L71 260 L72 260 L73 260 L74 260 L75 260 L76 260 L77 260 L78 260 L79 260 L80 260 L81 260 L82 260 L83 260 L84 260 L85 260 L86 260 L87 260 L88 260 L89 260 L90 260 L91 260 L92 260 L93 260 L94 260 L95 260 L96 260 L97 260 L98 260 L99 260 L100 260 L101 260 L102 260 L103 260 L104 260 L105 260 L106 260 L107 260 L108 260 L109 260 L110 260 L111 260 L112 260 L113 260 L114 260 L115 260 L116 260 L117 260 L118 260 L119 260 L120 260 L121 260 L122 260 L123 260 L124 260 L125 260 L126 260 L127 260 L128 260 L129 260 L130 260 L131 260 L132 260 L133 260 L134 260 L135 260 L136 260 L137 260 L138 260 L139 260 L140 260 L141 260 L142 260 L143 260 L144 260 L145 260 L146 260 L147 260 L148 260 L149 260 L150 260 L151 260 L152 260 L153 260 L154 260 L155 260 L156 260 L157 260 L158 260 L159 260 L160 260 L161 260 L162 260 L163 260 L164 260 L165 260 L166 260 L167 260 L168 260 L169 260 L170 260 L171 260 L172 260 L173 260 L174 260 L175 260 L176 260 L177 260 L178 260 L179 260 L180 260 L181 260 L182 260 L183 260 L184 260 L185 260 L186 260 L187 260 L188 260 L189 260 L190 260 L191 260 L192 260 L193 260 L194 260 L195 260 L196 260 L197 260 L198 260 L199 260 L200 260 L201 260 L202 260 L203 260 L204 260 L205 260 L206 260 L207 260 L208 260 L209 260 L210 260 L211 260 L212 260 L213 260 L214 260 L215 260 L216 260 L217 260 L218 260 L219 260 L220 260 L221 260 L222 260 L223 260 L224 260 L225 260 L226 260 L227 260 L228 260 L229 260 L230 260 L231 260 L232 260 L233 260 L234 260 L235 260 L236 260 L237 260 L238 260 L239 260 L240 260 L241 260 L242 260 L243 260 L244 260 L245 260 L246 260 L247 260 L248 260 L249 260 L250 260 L251 260 L252 260 L253 260 L254 260 L255 260 L256 260 L257 260 L258 260 L259 260 L260 260 L261 260 L262 260 L263 260 L264 260 L265 260 L266 260 L267 260 L268 260 L269 260 L270 260 L271 260 L272 260 L273 260 L274 260 L275 260 L276 260 L277 260 L278 260 L279 260 L280 260 L281 260 L282 260 L283 260 L284 260 L285 260 L286 260 L287 260 L288 260 L289 260 L290 260 L291 260 L292 260 L293 260 L294 260 L295 260 L296 260 L297 260 L298 260 L299 260 L300 260 L301 260 L302 260 L303 260 L304 260 L305 260 L306 260 L307 260 L308 260 L309 260 L310 260 L311 260 L312 260 L313 260 L314 260 L315 260 L316 260 L317 260 L318 260 L319 260 L320 260 L321 260 L322 260 L323 260 L324 260 L325 260 L326 260 L327 260 L328 260 L329 260 L330 260 L331 260 L332 260 L333 260 L334 260 L335 260 L336 260 L337 260 L338 260 L339 260 L340 260 L340 259 L340 258 L340 257 L340 256 L340 255 L340 254 L340 253 L340 252 L340 251 L340 250 L340 249 L340 248 L340 247 L340 246 L340 245 L340 244 L340 243 L340 242 L340 241 L340 240 L340 239 L340 238 L340 237 L340 236 L340 235 L340 234 L340 233 L340 232 L340 231 L340 230 L340 229 L340 228 L340 227 L340 226 L340 225 L340 224 L340 223 L340 222 L340 221 L340 220 L340 219 L340 218 L340 217 L340 216 L340 215 L340 214 L340 213 L340 212 L340 211 L340 210 L340 209 L340 208 L340 207 L340 206 L340 205 L340 204 L340 203 L340 202 L340 201 L340 200 L340 199 L340 198 L340 197 L340 196 L340 195 L340 194 L340 193 L340 192 L340 191 L340 190 L340 189 L340 188 L340 187 L340 186 L340 185 L340 184 L340 183 L340 182 L340 181 L340 180 L340 179 L340 178 L340 177 L340 176 L340 175 L340 174 L340 173 L340 172 L340 171 L340 170 L340 169 L340 168 L340 167 L340 166 L340 165 L340 164 L340 163 L340 162 L340 161 L340 160 L340 159 L340 158 L340 157 L340 156 L340 155 L340 154 L340 153 L340 152 L340 151 L340 150 L340 149 L340 148 L340 147 L340 146 L340 145 L340 144 L340 143 L340 142 L340 141 L340 140 L340 139 L340 138 L340 137 L340 136 L340 135 L340 134 L340 133 L340 132 L340 131 L340 130 L340 129 L340 128 L340 127 L340 126 L340 125 L340 124 L340 123 L340 122 L340 121 L340 120 L340 119 L340 118 L340 117 L340 116 L340 115 L340 114 L340 113 L340 112 L340 111 L340 110 L340 109 L340 108 L340 107 L340 106 L340 105 L340 104 L340 103 L340 102 L340 101 L340 100 L340 99 L340 98 L340 97 L340 96 L340 95 L340 94 L340 93 L340 92 L340 91 L340 90 L340 89 L340 88 L340 87 L340 86 L340 85 L340 84 L340 83 L340 82 L340 81 L340 80 L340 79 L340 78 L340 77 L340 76 L340 75 L340 74 L340 73 L340 72 L340 71 L340 70 L340 69 L340 68 L340 67 L340 66 L340 65 L340 64 L340 63 L340 62 L340 61 L340 60 L340 59 L340 58 L340 57 L340 56 L340 55 L340 54 L340 53 L340 52 L340 51 L340 50 L340 49 L340 48 L340 47 L340 46 L340 45 L340 44 L340 43 L340 42 L340 41 L340 40 L340 39 L340 38 L340 37 L340 36 L340 35 L340 34 L340 33 L340 32 L340 31 L340 30 L340 29 L340 28 L340 27 L340 26 L340 25 L340 24 L340 23 L340 22 L340 21 L340 20 L340 19 L340 18 L340 17 L340 16 L340 15 L340 14 L340 13 L340 12 L340 11 L340 10 L340 9 L340 7.99999 L340 7 L340 6 L340 4.99999 L340 4 L340 3 L340 1.99999 L340 1 L340 0 L340 -1 L340 -2 L340 -3 L340 -3.99999 L340 -5 L340 -6 L340 -6.99999 L340 -8 L340 -9 L340 -10 L340 -11 L340 -12 L340 -13 L340 -14 L340 -15 L340 -16 L340 -17 L340 -18 L340 -19 L340 -20 L340 -21 L340 -22 L340 -23 L340 -24 L340 -25 L340 -26 L340 -27 L340 -28 L340 -29 L340 -30 L340 -31 L340 -32 L340 -33 L340 -34 L340 -35 L340 -36 L340 -37 L340 -38 L340 -39 L340 -40 L340 -41 L340 -42 L340 -43 L340 -44 L340 -45 L340 -46 L340 -47 L340 -48 L340 -49 L340 -50 L340 -51 L340 -52 L340 -53 L340 -54 L340 -55 L340 -56 L340 -57 L340 -58 L340 -59 L340 -60 L340 -61 L340 -62 L340 -63 L340 -64 L340 -65 L340 -66 L340 -67 L340 -68 L340 -69 L340 -70 L340 -71 L340 -72 L340 -73 L340 -74 L340 -75 L340 -76 L340 -77 L340 -78 L340 -79 L340 -80 L340 -81 L340 -82 L340 -83 L340 -84 L340 -85 L340 -86 L340 -87 L340 -88 L340 -89 L340 -90 L340 -91 L340 -92 L340 -93 L340 -94 L340 -95 L340 -96 L340 -97 L340 -98 L340 -99 L340 -100 L340 -101 L340 -102 L340 -103 L340 -104 L340 -105 L340 -106 L340 -107 L340 -108 L340 -109 L340 -110 L340 -111 L340 -112 L340 -113 L340 -114 L340 -115 L340 -116 L340 -117 L340 -118 L340 -119 L340 -120 L340 -121 L340 -122 L340 -123 L340 -124 L340 -125 L340 -126 L340 -127 L340 -128 L340 -129 L340 -130 L340 -131 L340 -132 L340 -133 L340 -134 L340 -135 L340 -136 L340 -137 L340 -138 L340 -139 L340 -140 L340 -141 L340 -142 L340 -143 L340 -144 L340 -145 L340 -146 L340 -147 L340 -148 L340 -149 L340 -150 L340 -151 L340 -152 L340 -153 L340 -154 L340 -155 L340 -156 L340 -157 L340 -158 L340 -159 L340 -160 L340 -161 L340 -162 L340 -163 L340 -164 L340 -165 L340 -166 L340 -167 L340 -168 L340 -169 L340 -170 L340 -171 L340 -172 L340 -173 L340 -174 L340 -175 L340 -176 L340 -177 L340 -178 L340 -179 L340 -180 L340 -181 L340 -182 L340 -183 L340 -184 L340 -185 L340 -186 L340 -187 L340 -188 L340 -189 L340 -190 L340 -191 L340 -192 L340 -193 L340 -194 L340 -195 L340 -196 L340 -197 L340 -198 L340 -199 L340 -200 L340 -201 L340 -202 L340 -203 L340 -204 L340 -205 L340 -206 L340 -207 L340 -208 L340 -209 L340 -210 L340 -211 L340 -212 L340 -213 L340 -214 L340 -215 L340 -216 L340 -217 L340 -218 L340 -219 L340 -220 L340 -221 L340 -222 L340 -223 L340 -224 L340 -225 L340 -226 L340 -227 L340 -228 L340 -229 L340 -230 L340 -231 L340 -232 L340 -233 L340 -234 L340 -235 L340 -236 L340 -237 L340 -238 L340 -239 L340 -240 L340 -241 L340 -242 L340 -243 L340 -244 L340 -245 L340 -246 L340 -247 L340 -248 L340 -249 L340 -250 L340 -251 L340 -252 L340 -253 L340 -254 L340 -255 L340 -256 L340 -257 L340 -258 L340 -259 L340 -260 L340 -261 L340 -262 L340 -263 L340 -264 L340 -265 L340 -266 L340 -267 L340 -268 L340 -269 L340 -270 L340 -271 L340 -272 L340 -273 L340 -274 L340 -275 L340 -276 L340 -277 L340 -278 L340 -279 L340 -280 L340 -281 L340 -282 L340 -283 L340 -284 L340 -285 L340 -286 L340 -287 L340 -288 L340 -289 L340 -290 L340 -291 L340 -292 L340 -293 L340 -294 L340 -295 L340 -296 L340 -297 L340 -298 L340 -299 L340 -300 L340 -301 L340 -302 L340 -303 L340 -304 L340 -305 L340 -306 L340 -307 L340 -308 L340 -309 L340 -310 L340 -311 L340 -312 L340 -313 L340 -314 L340 -315 L340 -316 L340 -317 L340 -318 L340 -319 L340 -320 L340 -321 L340 -322 L340 -323 L340 -324 L340 -325 L340 -326 L340 -327 L340 -328 L340 -329 L340 -330 L340 -331 L340 -332 L340 -333 L340 -334 L340 -335 L340 -336 L340 -337 L340 -338 L340 -339 L340 -340 L339 -340 L338 -340 L337 -340 L336 -340 L335 -340 L334 -340 L333 -340 L332 -340 L331 -340 L330 -340 L329 -340 L328 -340 L327 -340 L326 -340 L325 -340 L324 -340 L323 -340 L322 -340 L321 -340 L320 -340 L319 -340 L318 -340 L317 -340 L316 -340 L315 -340 L314 -340 L313 -340 L312 -340 L311 -340 L310 -340 L309 -340 L308 -340 L307 -340 L306 -340 L305 -340 L304 -340 L303 -340 L302 -340 L301 -340 L300 -340 L299 -340 L298 -340 L297 -340 L296 -340 L295 -340 L294 -340 L293 -340 L292 -340 L291 -340 L290 -340 L289 -340 L288 -340 L287 -340 L286 -340 L285 -340 L284 -340 L283 -340 L282 -340 L281 -340 L280 -340 L279 -340 L278 -340 L277 -340 L276 -340 L275 -340 L274 -340 L273 -340 L272 -340 L271 -340 L270 -340 L269 -340 L268 -340 L267 -340 L266 -340 L265 -340 L264 -340 L263 -340 L262 -340 L261 -340 L260 -340 L259 -340 L258 -340 L257 -340 L256 -340 L255 -340 L254 -340 L253 -340 L252 -340 L251 -340 L250 -340 L249 -340 L248 -340 L247 -340 L246 -340 L245 -340 L244 -340 L243 -340 L242 -340 L241 -340 L240 -340 L239 -340 L238 -340 L237 -340 L236 -340 L235 -340 L234 -340 L233 -340 L232 -340 L231 -340 L230 -340 L229 -340 L228 -340 L227 -340 L226 -340 L225 -340 L224 -340 L223 -340 L222 -340 L221 -340 L220 -340 L219 -340 L218 -340 L217 -340 L216 -340 L215 -340 L214 -340 L213 -340 L212 -340 L211 -340 L210 -340 L209 -340 L208 -340 L207 -340 L206 -340 L205 -340 L204 -340 L203 -340 L202 -340 L201 -340 L200 -340 L199 -340 L198 -340 L197 -340 L196 -340 L195 -340 L194 -340 L193 -340 L192 -340 L191 -340 L190 -340 L189 -340 L188 -340 L187 -340 L186 -340 L185 -340 L184 -340 L183 -340 L182 -340 L181 -340 L180 -340 L179 -340 L178 -340 L177 -340 L176 -340 L175 -340 L174 -340 L173 -340 L172 -340 L171 -340 L170 -340 L169 -340 L168 -340 L167 -340 L166 -340 L165 -340 L164 -340 L163 -340 L162 -340 L161 -340 L160 -340 L159 -340 L158 -340 L157 -340 L156 -340 L155 -340 L154 -340 L153 -340 L152 -340 L151 -340 L150 -340 L149 -340 L148 -340 L147 -340 L146 -340 L145 -340 L144 -340 L143 -340 L142 -340 L141 -340 L140 -340 L139 -340 L138 -340 L137 -340 L136 -340 L135 -340 L134 -340 L133 -340 L132 -340 L131 -340 L130 -340 L129 -340 L128 -340 L127 -340 L126 -340 L125 -340 L124 -340 L123 -340 L122 -340 L121 -340 L120 -340 L119 -340 L118 -340 L117 -340 L116 -340 L115 -340 L114 -340 L113 -340 L112 -340 L111 -340 L110 -340 L109 -340 L108 -340 L107 -340 L106 -340 L105 -340 L104 -340 L103 -340 L102 -340 L101 -340 L100 -340 L99 -340 L98 -340 L97 -340 L96 -340 L95 -340 L94 -340 L93 -340 L92 -340 L91 -340 L90 -340 L89 -340 L88 -340 L87 -340 L86 -340 L85 -340 L84 -340 L83 -340 L82 -340 L81 -340 L80 -340 L79 -340 L78 -340 L77 -340 L76 -340 L75 -340 L74 -340 L73 -340 L72 -340 L71 -340 L70 -340 L69 -340 L68 -340 L67 -340 L66 -340 L65 -340 L64 -340 L63 -340 L62 -340 L61 -340 L60 -340 L59 -340 L58 -340 L57 -340 L56 -340 L55 -340 L54 -340 L53 -340 L52 -340 L51 -340 L50 -340 L49 -340 L48 -340 L47 -340 L46 -340 L45 -340 L44 -340 L43 -340 L42 -340 L41 -340 L40 -340 L39 -340 L38 -340 L37 -340 L36 -340 L35 -340 L34 -340 L33 -340 L32 -340 L31 -340 L30 -340 L29 -340 L28 -340 L27 -340 L26 -340 L25 -340 L24 -340 L23 -340 L22 -340 L21 -340 L20 -340 L19 -340 L18 -340 L17 -340 L16 -340 L15 -340 L14 -340 L13 -340 L12 -340 L11 -340 L10 -340 L8.99999 -340 L8 -340 L7 -340 L6 -340 L5 -340 L3.99999 -340 L3 -340 L2 -340 L1 -340 L0 -340 L-1 -340 L-2 -340 L-3 -340 L-3.99999 -340 L-5 -340 L-6 -340 L-7 -340 L-8 -340 L-9 -340 L-9.99999 -340 L-11 -340 L-12 -340 L-13 -340 L-14 -340 L-15 -340 L-16 -340 L-17 -340 L-18 -340 L-19 -340 L-20 -340 L-21 -340 L-22 -340 L-23 -340 L-24 -340 L-25 -340 L-26 -340 L-27 -340 L-28 -340 L-29 -340 L-30 -340 L-31 -340 L-32 -340 L-33 -340 L-34 -340 L-35 -340 L-36 -340 L-37 -340 L-38 -340 L-39 -340 L-40 -340 L-41 -340 L-42 -340 L-43 -340 L-44 -340 L-45 -340 L-46 -340 L-47 -340 L-48 -340 L-49 -340 L-50 -340 L-51 -340 L-52 -340 L-53 -340 L-54 -340 L-55 -340 L-56 -340 L-57 -340 L-58 -340 L-59 -340 L-60 -340 L-61 -340 L-62 -340 L-63 -340 L-64 -340 L-65 -340 L-66 -340 L-67 -340 L-68 -340 L-69 -340 L-70 -340 L-71 -340 L-72 -340 L-73 -340 L-74 -340 L-75 -340 L-76 -340 L-77 -340 L-78 -340 L-79 -340 L-80 -340 L-81 -340 L-82 -340 L-83 -340 L-84 -340 L-85 -340 L-86 -340 L-87 -340 L-88 -340 L-89 -340 L-90 -340 L-91 -340 L-92 -340 L-93 -340 L-94 -340 L-95 -340 L-96 -340 L-97 -340 L-98 -340 L-99 -340 L-100 -340 L-101 -340 L-102 -340 L-103 -340 L-104 -340 L-105 -340 L-106 -340 L-107 -340 L-108 -340 L-109 -340 L-110 -340 L-111 -340 L-112 -340 L-113 -340 L-114 -340 L-115 -340 L-116 -340 L-117 -340 L-118 -340 L-119 -340 L-120 -340 L-121 -340 L-122 -340 L-123 -340 L-124 -340 L-125 -340 L-126 -340 L-127 -340 L-128 -340 L-129 -340 L-130 -340 L-131 -340 L-132 -340 L-133 -340 L-134 -340 L-135 -340 L-136 -340 L-137 -340 L-138 -340 L-139 -340 L-140 -340 L-141 -340 L-142 -340 L-143 -340 L-144 -340 L-145 -340 L-146 -340 L-147 -340 L-148 -340 L-149 -340 L-150 -340 L-151 -340 L-152 -340 L-153 -340 L-154 -340 L-155 -340 L-156 -340 L-157 -340 L-158 -340 L-159 -340 L-160 -340 L-161 -340 L-162 -340 L-163 -340 L-164 -340 L-165 -340 L-166 -340 L-167 -340 L-168 -340 L-169 -340 L-170 -340 L-171 -340 L-172 -340 L-173 -340 L-174 -340 L-175 -340 L-176 -340 L-177 -340 L-178 -340 L-179 -340 L-180 -340 L-181 -340 L-182 -340 L-183 -340 L-184 -340 L-185 -340 L-186 -340 L-187 -340 L-188 -340 L-189 -340 L-190 -340 L-191 -340 L-192 -340 L-193 -340 L-194 -340 L-195 -340 L-196 -340 L-197 -340 L-198 -340 L-199 -340 L-200 -340 L-201 -340 L-202 -340 L-203 -340 L-204 -340 L-205 -340 L-206 -340 L-207 -340 L-208 -340 L-209 -340 L-210 -340 L-211 -340 L-212 -340 L-213 -340 L-214 -340 L-215 -340 L-216 -340 L-217 -340 L-218 -340 L-219 -340 L-220 -340 L-221 -340 L-222 -340 L-223 -340 L-224 -340 L-225 -340 L-226 -340 L-227 -340 L-228 -340 L-229 -340 L-230 -340 L-231 -340 L-232 -340 L-233 -340 L-234 -340 L-235 -340 L-236 -340 L-237 -340 L-238 -340 L-239 -340 L-240 -340 L-241 -340 L-242 -340 L-243 -340 L-244 -340 L-245 -340 L-246 -340 L-247 -340 L-248 -340 L-249 -340 L-250 -340 L-251 -340 L-252 -340 L-253 -340 L-254 -340 L-255 -340 L-256 -340 L-257 -340 L-258 -340 L-259 -340 L-260 -340 L-260 -339 L-260 -338 L-260 -337 L-260 -336 L-260 -335 L-260 -334 L-260 -333 L-260 -332 L-260 -331 L-260 -330 L-260 -329 L-260 -328 L-260 -327 L-260 -326 L-260 -325 L-260 -324 L-260 -323 L-260 -322 L-260 -321 L-260 -320 L-260 -319 L-260 -318 L-260 -317 L-260 -316 L-260 -315 L-260 -314 L-260 -313 L-260 -312 L-260 -311 L-260 -310 L-260 -309 L-260 -308 L-260 -307 L-260 -306 L-260 -305 L-260 -304 L-260 -303 L-260 -302 L-260 -301 L-260 -300 L-260 -299 L-260 -298 L-260 -297 L-260 -296 L-260 -295 L-260 -294 L-260 -293 L-260 -292 L-260 -291 L-260 -290 L-260 -289 L-260 -288 L-260 -287 L-260 -286 L-260 -285 L-260 -284 L-260 -283 L-260 -282 L-260 -281 L-260 -280 L-260 -279 L-260 -278 L-260 -277 L-260 -276 L-260 -275 L-260 -274 L-260 -273 L-260 -272 L-260 -271 L-260 -270 L-260 -269 L-260 -268 L-260 -267 L-260 -266 L-260 -265 L-260 -264 L-260 -263 L-260 -262 L-260 -261 L-260 -260 L-260 -259 L-260 -258 L-260 -257 L-260 -256 L-260 -255 L-260 -254 L-260 -253 L-260 -252 L-260 -251 L-260 -250 L-260 -249 L-260 -248 L-260 -247 L-260 -246 L-260 -245 L-260 -244 L-260 -243 L-260 -242 L-260 -241 L-260 -240 L-260 -239 L-260 -238 L-260 -237 L-260 -236 L-260 -235 L-260 -234 L-260 -233 L-260 -232 L-260 -231 L-260 -230 L-260 -229 L-260 -228 L-260 -227 L-260 -226 L-260 -225 L-260 -224 L-260 -223 L-260 -222 L-260 -221 L-260 -220 L-260 -219 L-260 -218 L-260 -217 L-260 -216 L-260 -215 L-260 -214 L-260 -213 L-260 -212 L-260 -211 L-260 -210 L-260 -209 L-260 -208 L-260 -207 L-260 -206 L-260 -205 L-260 -204 L-260 -203 L-260 -202 L-260 -201 L-260 -200 L-260 -199 L-260 -198 L-260 -197 L-260 -196 L-260 -195 L-260 -194 L-260 -193 L-260 -192 L-260 -191 L-260 -190 L-260 -189 L-260 -188 L-260 -187 L-260 -186 L-260 -185 L-260 -184 L-260 -183 L-260 -182 L-260 -181 L-260 -180 L-260 -179 L-260 -178 L-260 -177 L-260 -176 L-260 -175 L-260 -174 L-260 -173 L-260 -172 L-260 -171 L-260 -170 L-260 -169 L-260 -168 L-260 -167 L-260 -166 L-260 -165 L-260 -164 L-260 -163 L-260 -162 L-260 -161 L-260 -160 L-260 -159 L-260 -158 L-260 -157 L-260 -156 L-260 -155 L-260 -154 L-260 -153 L-260 -152 L-260 -151 L-260 -150 L-260 -149 L-260 -148 L-260 -147 L-260 -146 L-260 -145 L-260 -144 L-260 -143 L-260 -142 L-260 -141 L-260 -140 L-260 -139 L-260 -138 L-260 -137 L-260 -136 L-260 -135 L-260 -134 L-260 -133 L-260 -132 L-260 -131 L-260 -130 L-260 -129 L-260 -128 L-260 -127 L-260 -126 L-260 -125 L-260 -124 L-260 -123 L-260 -122 L-260 -121 L-260 -120 L-260 -119 L-260 -118 L-260 -117 L-260 -116 L-260 -115 L-260 -114 L-260 -113 L-260 -112 L-260 -111 L-260 -110 L-260 -109 L-260 -108 L-260 -107 L-260 -106 L-260 -105 L-260 -104 L-260 -103 L-260 -102 L-260 -101 L-260 -100 L-260 -99 L-260 -98 L-260 -97 L-260 -96 L-260 -95 L-260 -94 L-260 -93 L-260 -92 L-260 -91 L-260 -90 L-260 -89 L-260 -88 L-260 -87 L-260 -86 L-260 -85 L-260 -84 L-260 -83 L-260 -82 L-260 -81 L-260 -80 L-260 -79 L-260 -78 L-260 -77 L-260 -76 L-260 -75 L-260 -74 L-260 -73 L-260 -72 L-260 -71 L-260 -70 L-260 -69 L-260 -68 L-260 -67 L-260 -66 L-260 -65 L-260 -64 L-260 -63 L-260 -62 L-260 -61 L-260 -60 L-260 -59 L-260 -58 L-260 -57 L-260 -56 L-260 -55 L-260 -54 L-260 -53 L-260 -52 L-260 -51 L-260 -50 L-260 -49 L-260 -48 L-260 -47 L-260 -46 L-260 -45 L-260 -44 L-260 -43 L-260 -42 L-260 -41 L-260 -40 L-260 -39.548 L-257.435 -37 L-257.326 -36.8922 L-256.983 -36.5516 L-256.617 -36.1877 L-256.57 -36.1409 L-256.428 -36 L-255.908 -35.4831 L-255.62 -35.1972 L-253.071 -32.665 L-253.78 -33.3695 L-254.489 -34.0741 L-255.198 -34.7786 L-255.62 -35.1972 L-256.428 -36 L-256.57 -36.1409 L-256.983 -36.5516 L-257.435 -37 L-258.036 -37.5968 L-258.745 -38.3013 L-259.454 -39.0059 L-260 -39.548 L-260 -39 L-260 -38 Z M170 160 L169 160 L168 160 L167 160 L166 160 L165 160 L164 160 L163 160 L162 160 L161 160 L160 160 L159 160 L158 160 L157 160 L156 160 L155 160 L154 160 L153 160 L152 160 L151 160 L150 160 L149 160 L148 160 L147 160 L146 160 L145 160 L144 160 L143 160 L142 160 L141 160 L140 160 L139 160 L138 160 L137 160 L136 160 L135 160 L134 160 L133 160 L132 160 L131 160 L130 160 L129 160 L128 160 L127 160 L126 160 L125 160 L124 160 L123 160 L122 160 L121 160 L120 160 L119 160 L118 160 L117 160 L116 160 L115 160 L114 160 L113 160 L112 160 L111 160 L110 160 L109 160 L108 160 L107 160 L106 160 L105 160 L104 160 L103 160 L102 160 L101 160 L100 160 L99 160 L98 160 L97 160 L96 160 L95 160 L94 160 L93 160 L92 160 L91 160 L90 160 L89 160 L88 160 L87 160 L86 160 L85 160 L84 160 L83 160 L82 160 L81 160 L80 160 L79 160 L78 160 L77 160 L76 160 L75 160 L74 160 L73 160 L72 160 L71 160 L70 160 L69 160 L68 160 L67 160 L66 160 L65 160 L64 160 L63 160 L62 160 L61 160 L60 160 L59 160 L58 160 L57 160 L56 160 L55 160 L54 160 L53 160 L52 160 L51 160 L50 160 L49 160 L48 160 L47 160 L46 160 L45 160 L44 160 L43 160 L42 160 L41 160 L40 160 L40 159 L40 158 L40 157 L40 156 L40 155 L40 154 L40 153 L40 152 L40 151 L40 150 L40 149 L40 148 L40 147 L40 146 L40 145 L40 144 L40 143 L40 142 L40 141 L40 140 L40 139 L40 138 L40 137 L40 136 L40 135 L40 134 L40 133 L40 132 L40 131 L40 130 L40 129 L40 128 L40 127 L40 126 L40 125 L40 124 L40 123 L40 122 L40 121 L40 120 L40 119 L40 118 L40 117 L40 116 L40 115 L40 114 L40 113 L40 112 L40 111 L40 110 L40 109 L40 108 L40 107 L40 106 L40 105 L40 104 L40 103 L40 102 L40 101 L40 100 L39 100 L38 100 L37 100 L36 100 L35 100 L34 100 L33 100 L32 100 L31 100 L30 100 L29 100 L28 100 L27 100 L26 100 L25 100 L24 100 L23 100 L22 100 L21 100 L20 100 L19 100 L18 100 L17 100 L16 100 L15 100 L14 100 L13 100 L12 100 L11 100 L10 100 L8.99999 100 L8 100 L6.99999 100 L6 100 L5 100 L4 100 L3 100 L2 100 L1 100 L0 100 L-1 100 L-2 100 L-3 100 L-4 100 L-5 100 L-6 100 L-7 100 L-8 100 L-9 100 L-10 100 L-11 100 L-12 100 L-13 100 L-14 100 L-15 100 L-16 100 L-17 100 L-18 100 L-19 100 L-20 100 L-21 100 L-22 100 L-23 100 L-24 100 L-25 100 L-26 100 L-27 100 L-28 100 L-29 100 L-30 100 L-31 100 L-32 100 L-33 100 L-34 100 L-35 100 L-36 100 L-37 100 L-38 100 L-39 100 L-40 100 L-41 100 L-42 100 L-43 100 L-44 100 L-45 100 L-46 100 L-47 100 L-48 100 L-49 100 L-50 100 L-51 100 L-52 100 L-53 100 L-54 100 L-55 100 L-56 100 L-57 100 L-58 100 L-59 100 L-60 100 L-61 100 L-62 100 L-63 100 L-64 100 L-65 100 L-66 100 L-67 100 L-68 100 L-69 100 L-70 100 L-71 100 L-72 100 L-73 100 L-74 100 L-75 100 L-76 100 L-77 100 L-78 100 L-79 100 L-80 100 L-81 100 L-82 100 L-83 100 L-84 100 L-85 100 L-86 100 L-87 100 L-88 100 L-89 100 L-90 100 L-91 100 L-92 100 L-93 100 L-94 100 L-95 100 L-96 100 L-97 100 L-98 100 L-99 100 L-100 100 L-100 99 L-100 98 L-100 97 L-100 96 L-100 95 L-100 94 L-100 93 L-100 92 L-100 91 L-100 90 L-100 89 L-100 88 L-100 87 L-100 86 L-100 85 L-100 84 L-100 83 L-100 82 L-100 81 L-100 80 L-100 79 L-100 78 L-100 77 L-100 76 L-100 75 L-100 74 L-100 73 L-100 72 L-100 71 L-100 70 L-100 69 L-100 68 L-100 67 L-100 66 L-100 65 L-100 64 L-100 63 L-100 62 L-100 61 L-100 60 L-100 59 L-100 58 L-100 57 L-100 56 L-100 55 L-100 54 L-100 53 L-100 52 L-100 51 L-100 50 L-100 49 L-100 48 L-100 47 L-100 46 L-100 45 L-100 44 L-100 43 L-100 42 L-100 41 L-100 40 L-100 39 L-100 38 L-100 37 L-100 36 L-100 35 L-100 34 L-100 33 L-100 32 L-100 31 L-100 30 L-100 29 L-100 28 L-100 27 L-100 26 L-100 25 L-100 24 L-100 23 L-100 22 L-100 21 L-100 20 L-100 19 L-100 18 L-100 17 L-100 16 L-100 15 L-100 14 L-100 13 L-100 12 L-100 11 L-100 10 L-100 8.99999 L-100 8 L-100 6.99999 L-100 6 L-100 5 L-100 4 L-100 3 L-100 2 L-100 1 L-100 0 L-100 -1 L-100 -2 L-100 -3 L-100 -4 L-100 -5 L-100 -6 L-100 -7 L-100 -8 L-100 -9 L-100 -10 L-100 -11 L-100 -12 L-100 -13 L-100 -14 L-100 -15 L-100 -16 L-100 -17 L-100 -18 L-100 -19 L-100 -20 L-100 -21 L-100 -22 L-100 -23 L-100 -24 L-100 -25 L-100 -26 L-100 -27 L-100 -28 L-100 -29 L-100 -30 L-100 -31 L-100 -32 L-100 -33 L-100 -34 L-100 -35 L-100 -36 L-100 -37 L-100 -38 L-100 -39 L-100 -40 L-100 -41 L-100 -42 L-100 -43 L-100 -44 L-100 -45 L-100 -46 L-100 -47 L-100 -48 L-100 -49 L-100 -50 L-100 -51 L-100 -52 L-100 -53 L-100 -54 L-100 -55 L-100 -56 L-100 -57 L-100 -58 L-100 -59 L-100 -60 L-100 -61 L-100 -62 L-100 -63 L-100 -64 L-100 -65 L-100 -66 L-100 -67 L-100 -68 L-100 -69 L-100 -70 L-100 -71 L-100 -72 L-100 -73 L-100 -74 L-100 -75 L-100 -76 L-100 -77 L-100 -78 L-100 -79 L-100 -80 L-100 -81 L-100 -82 L-100 -83 L-100 -84 L-100 -85 L-100 -86 L-100 -87 L-100 -88 L-100 -89 L-100 -90 L-100 -91 L-100 -92 L-100 -93 L-100 -94 L-100 -95 L-100 -96 L-100 -97 L-100 -98 L-100 -99 L-100 -100 L-99 -100 L-98 -100 L-97 -100 L-96 -100 L-95 -100 L-94 -100 L-93 -100 L-92 -100 L-91 -100 L-90 -100 L-89 -100 L-88 -100 L-87 -100 L-86 -100 L-85 -100 L-84 -100 L-83 -100 L-82 -100 L-81 -100 L-80 -100 L-79 -100 L-78 -100 L-77 -100 L-76 -100 L-75 -100 L-74 -100 L-73 -100 L-72 -100 L-71 -100 L-70 -100 L-69 -100 L-68 -100 L-67 -100 L-66 -100 L-65 -100 L-64 -100 L-63 -100 L-62 -100 L-61 -100 L-60 -100 L-59 -100 L-58 -100 L-57 -100 L-56 -100 L-55 -100 L-54 -100 L-53 -100 L-52 -100 L-51 -100 L-50 -100 L-49 -100 L-48 -100 L-47 -100 L-46 -100 L-45 -100 L-44 -100 L-43 -100 L-42 -100 L-41 -100 L-40 -100 L-39 -100 L-38 -100 L-37 -100 L-36 -100 L-35 -100 L-34 -100 L-33 -100 L-32 -100 L-31 -100 L-30 -100 L-29 -100 L-28 -100 L-27 -100 L-26 -100 L-25 -100 L-24 -100 L-23 -100 L-22 -100 L-21 -100 L-20 -100 L-19 -100 L-18 -100 L-17 -100 L-16 -100 L-15 -100 L-14 -100 L-13 -100 L-12 -100 L-11 -100 L-10 -100 L-8.99999 -100 L-8 -100 L-6.99999 -100 L-6 -100 L-5 -100 L-4 -100 L-3 -100 L-2 -100 L-1 -100 L0 -100 L1 -100 L2 -100 L3 -100 L4 -100 L5 -100 L6 -100 L7 -100 L8 -100 L9 -100 L10 -100 L11 -100 L12 -100 L13 -100 L14 -100 L15 -100 L16 -100 L17 -100 L18 -100 L19 -100 L20 -100 L21 -100 L22 -100 L23 -100 L24 -100 L25 -100 L26 -100 L27 -100 L28 -100 L29 -100 L30 -100 L31 -100 L32 -100 L33 -100 L34 -100 L35 -100 L36 -100 L37 -100 L38 -100 L39 -100 L40 -100 L41 -100 L42 -100 L43 -100 L44 -100 L45 -100 L46 -100 L47 -100 L48 -100 L49 -100 L50 -100 L51 -100 L52 -100 L53 -100 L54 -100 L55 -100 L56 -100 L57 -100 L58 -100 L59 -100 L60 -100 L61 -100 L62 -100 L63 -100 L64 -100 L65 -100 L66 -100 L67 -100 L68 -100 L69 -100 L70 -100 L71 -100 L72 -100 L73 -100 L74 -100 L75 -100 L76 -100 L77 -100 L78 -100 L79 -100 L80 -100 L81 -100 L82 -100 L83 -100 L84 -100 L85 -100 L86 -100 L87 -100 L88 -100 L89 -100 L90 -100 L91 -100 L92 -100 L93 -100 L94 -100 L95 -100 L96 -100 L97 -100 L98 -100 L99 -100 L100 -100 L100 -99 L100 -98 L100 -97 L100 -96 L100 -95 L100 -94 L100 -93 L100 -92 L100 -91 L100 -90 L100 -89 L100 -88 L100 -87 L100 -86 L100 -85 L100 -84 L100 -83 L100 -82 L100 -81 L100 -80 L100 -79 L100 -78 L100 -77 L100 -76 L100 -75 L100 -74 L100 -73 L100 -72 L100 -71 L100 -70 L100 -69 L100 -68 L100 -67 L100 -66 L100 -65 L100 -64 L100 -63 L100 -62 L100 -61 L100 -60 L100 -59 L100 -58 L100 -57 L100 -56 L100 -55 L100 -54 L100 -53 L100 -52 L100 -51 L100 -50 L100 -49 L100 -48 L100 -47 L100 -46 L100 -45 L100 -44 L100 -43 L100 -42 L100 -41 L100 -40 L101 -40 L102 -40 L103 -40 L104 -40 L105 -40 L106 -40 L107 -40 L108 -40 L109 -40 L110 -40 L111 -40 L112 -40 L113 -40 L114 -40 L115 -40 L116 -40 L117 -40 L118 -40 L119 -40 L120 -40 L121 -40 L122 -40 L123 -40 L124 -40 L125 -40 L126 -40 L127 -40 L128 -40 L129 -40 L130 -40 L131 -40 L132 -40 L133 -40 L134 -40 L135 -40 L136 -40 L137 -40 L138 -40 L139 -40 L140 -40 L141 -40 L142 -40 L143 -40 L144 -40 L145 -40 L146 -40 L147 -40 L148 -40 L149 -40 L150 -40 L151 -40 L152 -40 L153 -40 L154 -40 L155 -40 L156 -40 L157 -40 L158 -40 L159 -40 L160 -40 L161 -40 L162 -40 L163 -40 L164 -40 L165 -40 L166 -40 L167 -40 L168 -40 L169 -40 L170 -40 L171 -40 L172 -40 L173 -40 L174 -40 L175 -40 L176 -40 L177 -40 L178 -40 L179 -40 L180 -40 L181 -40 L182 -40 L183 -40 L184 -40 L185 -40 L186 -40 L187 -40 L188 -40 L189 -40 L190 -40 L191 -40 L192 -40 L193 -40 L194 -40 L195 -40 L196 -40 L197 -40 L198 -40 L199 -40 L200 -40 L201 -40 L202 -40 L203 -40 L204 -40 L205 -40 L206 -40 L207 -40 L208 -40 L209 -40 L210 -40 L211 -40 L212 -40 L213 -40 L214 -40 L215 -40 L216 -40 L217 -40 L218 -40 L219 -40 L220 -40 L221 -40 L222 -40 L223 -40 L224 -40 L225 -40 L226 -40 L227 -40 L228 -40 L229 -40 L230 -40 L231 -40 L232 -40 L233 -40 L234 -40 L235 -40 L236 -40 L237 -40 L238 -40 L239 -40 L240 -40 L240 -39 L240 -38 L240 -37 L240 -36 L240 -35 L240 -34 L240 -33 L240 -32 L240 -31 L240 -30 L240 -29 L240 -28 L240 -27 L240 -26 L240 -25 L240 -24 L240 -23 L240 -22 L240 -21 L240 -20 L240 -19 L240 -18 L240 -17 L240 -16 L240 -15 L240 -14 L240 -13 L240 -12 L240 -11 L240 -10 L240 -9 L240 -8 L240 -7 L240 -6 L240 -5 L240 -4 L240 -3 L240 -2 L240 -1 L240 0 L240 1 L240 2 L240 3 L240 4 L240 5 L240 6 L240 7 L240 8 L240 9 L240 10 L240 11 L240 12 L240 13 L240 14 L240 15 L240 16 L240 17 L240 18 L240 19 L240 20 L240 21 L240 22 L240 23 L240 24 L240 25 L240 26 L240 27 L240 28 L240 29 L240 30 L240 31 L240 32 L240 33 L240 34 L240 35 L240 36 L240 37 L240 38 L240 39 L240 40 L240 41 L240 42 L240 43 L240 44 L240 45 L240 46 L240 47 L240 48 L240 49 L240 50 L240 51 L240 52 L240 53 L240 54 L240 55 L240 56 L240 57 L240 58 L240 59 L240 60 L240 61 L240 62 L240 63 L240 64 L240 65 L240 66 L240 67 L240 68 L240 69 L240 70 L240 71 L240 72 L240 73 L240 74 L240 75 L240 76 L240 77 L240 78 L240 79 L240 80 L240 81 L240 82 L240 83 L240 84 L240 85 L240 86 L240 87 L240 88 L240 89 L240 90 L240 91 L240 92 L240 93 L240 94 L240 95 L240 96 L240 97 L240 98 L240 99 L240 100 L240 101 L240 102 L240 103 L240 104 L240 105 L240 106 L240 107 L240 108 L240 109 L240 110 L240 111 L240 112 L240 113 L240 114 L240 115 L240 116 L240 117 L240 118 L240 119 L240 120 L240 121 L240 122 L240 123 L240 124 L240 125 L240 126 L240 127 L240 128 L240 129 L240 130 L240 131 L240 132 L240 133 L240 134 L240 135 L240 136 L240 137 L240 138 L240 139 L240 140 L240 141 L240 142 L240 143 L240 144 L240 145 L240 146 L240 147 L240 148 L240 149 L240 150 L240 151 L240 152 L240 153 L240 154 L240 155 L240 156 L240 157 L240 158 L240 159 L240 160 L239 160 L238 160 L237 160 L236 160 L235 160 L234 160 L233 160 L232 160 L231 160 L230 160 L229 160 L228 160 L227 160 L226 160 L225 160 L224 160 L223 160 L222 160 L221 160 L220 160 L219 160 L218 160 L217 160 L216 160 L215 160 L214 160 L213 160 L212 160 L211 160 L210 160 L209 160 L208 160 L207 160 L206 160 L205 160 L204 160 L203 160 L202 160 L201 160 L200 160 L199 160 L198 160 L197 160 L196 160 L195 160 L194 160 L193 160 L192 160 L191 160 L190 160 L189 160 L188 160 L187 160 L186 160 L185 160 L184 160 L183 160 L182 160 L181 160 L180 160 L179 160 L178 160 L177 160 L176 160 L175 160 L174 160 L173 160 L172 160 L171 160 L170 160 Z M24.9685 243.515 L24.2592 242.81 L23.5499 242.106 L22.8407 241.401 L22.1314 240.697 L21.4221 239.992 L20.7128 239.288 L20.3171 238.895 L19.4573 238.041 L19.2942 237.879 L18.5849 237.174 L17.8757 236.47 L17.1664 235.765 L16.4571 235.061 L15.7478 234.356 L15.0385 233.651 L14.3293 232.947 L13.62 232.242 L12.9107 231.538 L12.4905 231.12 L11.6979 230.333 L11.4921 230.129 L10.7828 229.424 L10.0736 228.72 L9.36427 228.015 L8.65499 227.311 L7.94571 226.606 L7.23642 225.902 L6.52714 225.197 L5.81786 224.492 L5.10857 223.788 L4.39928 223.083 L4.10372 222.79 L3.07515 221.768 L2.98072 221.674 L2.27144 220.97 L1.56215 220.265 L1.29519 220 L-84.1587 135.118 L-84.2612 135.016 L-84.5414 134.737 L-104.412 115 L-104.83 114.584 L-105.54 113.88 L-106.249 113.175 L-106.958 112.47 L-107.245 112.186 L-107.668 111.766 L-108.377 111.061 L-108.439 111 L-112.465 107 L-112.632 106.834 L-113.342 106.13 L-114.051 105.425 L-114.76 104.72 L-115.47 104.016 L-116.179 103.311 L-116.888 102.607 L-117.597 101.902 L-118.307 101.198 L-118.84 100.668 L-120.274 99.2433 L-120.435 99.0841 L-120.893 98.6291 L-121.144 98.3796 L-121.853 97.6751 L-122.562 96.9705 L-123.272 96.266 L-123.981 95.5614 L-124.69 94.8569 L-125.4 94.1524 L-126.109 93.4478 L-130.962 88.6267 L-131.074 88.516 L-131.783 87.8115 L-132.492 87.107 L-133.202 86.4024 L-133.911 85.6979 L-134.562 85.0513 L-134.62 84.9933 L-134.923 84.6922 L-137.928 81.7081 L-138.167 81.4706 L-138.876 80.7661 L-141.522 78.1376 L-141.713 77.9479 L-142.422 77.2434 L-142.62 77.0466 L-147.387 72.3116 L-148.097 71.6071 L-148.806 70.9025 L-149.515 70.198 L-150.225 69.4934 L-150.934 68.7889 L-151.257 68.4681 L-156.46 63.2996 L-156.608 63.1526 L-157.317 62.448 L-157.528 62.239 L-158.027 61.7435 L-158.736 61.0389 L-158.775 61 L-170.009 49.8417 L-170.084 49.7663 L-170.794 49.0618 L-171.503 48.3572 L-172.212 47.6527 L-172.922 46.9481 L-173.631 46.2436 L-174.34 45.5391 L-175.049 44.8345 L-215.985 4.17314 L-220.186 0 L-220.444 -0.2561 L-221.153 -0.96064 L-221.862 -1.66518 L-222.571 -2.36972 L-223.281 -3.07426 L-223.99 -3.7788 L-224.557 -4.34164 L-225.917 -5.69281 L-226.118 -5.89243 L-226.827 -6.59697 L-227.536 -7.30151 L-228.246 -8.00605 L-228.955 -8.71059 L-229.664 -9.41513 L-230.374 -10.1197 L-231.083 -10.8242 L-231.792 -11.5288 L-232.501 -12.2333 L-232.943 -12.6723 L-234.629 -14.3469 L-235.339 -15.0515 L-236.048 -15.756 L-236.757 -16.4605 L-237.466 -17.1651 L-238.176 -17.8696 L-238.885 -18.5742 L-239.594 -19.2787 L-240.304 -19.9832 L-240.77 -20.4466 L-244.343 -23.9958 L-244.559 -24.2105 L-245.269 -24.915 L-245.978 -25.6196 L-246.687 -26.3241 L-247.396 -27.0286 L-248.106 -27.7332 L-248.815 -28.4377 L-249.157 -28.7773 L-250.164 -29.778 L-250.233 -29.8468 L-250.388 -30 L-253.068 -32.6624 L-252.361 -31.9604 L-251.652 -31.2559 L-250.943 -30.5514 L-250.388 -30 L-250.164 -29.778 L-249.524 -29.1423 L-249.157 -28.7773 L-244.343 -23.9958 L-243.85 -23.5059 L-243.141 -22.8014 L-242.431 -22.0969 L-241.722 -21.3923 L-241.013 -20.6878 L-240.77 -20.4466 L-234.629 -14.3469 L-233.92 -13.6424 L-233.211 -12.9378 L-232.943 -12.6723 L-225.917 -5.69281 L-225.409 -5.18789 L-224.699 -4.48335 L-224.557 -4.34164 L-220.186 0 L-219.734 0.44843 L-219.025 1.15297 L-218.316 1.85751 L-217.606 2.56205 L-216.897 3.26659 L-216.188 3.97114 L-215.985 4.17314 L-215.479 4.67568 L-214.769 5.38022 L-214.06 6.08476 L-213.351 6.7893 L-212.641 7.49384 L-211.932 8.19838 L-211.223 8.90292 L-210.514 9.60746 L-209.804 10.312 L-209.095 11.0165 L-208.386 11.7211 L-207.676 12.4256 L-206.967 13.1302 L-206.258 13.8347 L-205.549 14.5392 L-204.839 15.2438 L-204.13 15.9483 L-203.421 16.6529 L-202.712 17.3574 L-202.002 18.0619 L-201.293 18.7665 L-200.584 19.471 L-199.874 20.1756 L-199.165 20.8801 L-198.456 21.5847 L-197.747 22.2892 L-197.037 22.9937 L-196.328 23.6983 L-195.619 24.4028 L-194.909 25.1074 L-194.2 25.8119 L-193.491 26.5164 L-192.782 27.221 L-192.072 27.9255 L-191.363 28.6301 L-190.654 29.3346 L-189.944 30.0391 L-189.235 30.7437 L-188.526 31.4482 L-187.817 32.1528 L-187.107 32.8573 L-186.398 33.5618 L-185.689 34.2664 L-184.979 34.9709 L-184.27 35.6755 L-183.561 36.38 L-182.852 37.0846 L-182.142 37.7891 L-181.433 38.4936 L-180.724 39.1982 L-180.014 39.9027 L-179.305 40.6073 L-178.596 41.3118 L-177.887 42.0163 L-177.177 42.7209 L-176.468 43.4254 L-175.759 44.13 L-175.049 44.8345 L-170.009 49.8417 L-169.375 50.4708 L-168.666 51.1754 L-167.957 51.8799 L-167.247 52.5845 L-166.538 53.289 L-165.829 53.9935 L-165.119 54.6981 L-164.41 55.4026 L-163.701 56.1072 L-162.992 56.8117 L-162.282 57.5162 L-161.573 58.2208 L-160.864 58.9253 L-160.154 59.6299 L-159.445 60.3344 L-158.775 61 L-157.528 62.239 L-157.317 62.448 L-156.46 63.2996 L-155.899 63.8571 L-155.19 64.5617 L-154.48 65.2662 L-153.771 65.9707 L-153.062 66.6753 L-152.352 67.3798 L-151.643 68.0844 L-151.257 68.4681 L-147.387 72.3116 L-146.678 73.0161 L-145.969 73.7207 L-145.26 74.4252 L-144.55 75.1298 L-143.841 75.8343 L-143.132 76.5388 L-142.62 77.0466 L-141.522 78.1376 L-141.004 78.6525 L-140.295 79.357 L-139.585 80.0615 L-138.876 80.7661 L-137.928 81.7081 L-137.457 82.1752 L-136.748 82.8797 L-136.039 83.5842 L-135.33 84.2888 L-134.923 84.6922 L-134.562 85.0513 L-130.962 88.6267 L-130.365 89.2206 L-129.655 89.9251 L-128.946 90.6297 L-128.237 91.3342 L-127.527 92.0387 L-126.818 92.7433 L-126.109 93.4478 L-121.144 98.3796 L-120.893 98.6291 L-120.274 99.2433 L-119.725 99.7887 L-119.016 100.493 L-118.84 100.668 L-112.465 107 L-111.923 107.539 L-111.214 108.243 L-110.505 108.948 L-109.795 109.652 L-109.086 110.357 L-108.439 111 L-107.245 112.186 L-106.958 112.47 L-104.412 115 L-104.121 115.289 L-103.412 115.993 L-102.703 116.698 L-101.993 117.402 L-101.284 118.107 L-100.575 118.811 L-99.8654 119.516 L-99.1561 120.22 L-98.4468 120.925 L-97.7375 121.629 L-97.0282 122.334 L-96.319 123.039 L-95.6097 123.743 L-94.9004 124.448 L-94.1911 125.152 L-93.4818 125.857 L-92.7725 126.561 L-92.0633 127.266 L-91.354 127.97 L-90.6447 128.675 L-89.9354 129.379 L-89.2261 130.084 L-88.5169 130.788 L-87.8076 131.493 L-87.0983 132.198 L-86.389 132.902 L-85.6797 133.607 L-84.9704 134.311 L-84.5414 134.737 L-84.1587 135.118 L-83.5519 135.72 L-82.8426 136.425 L-82.1333 137.129 L-81.424 137.834 L-80.7147 138.538 L-80.0054 139.243 L-79.2962 139.948 L-78.5869 140.652 L-77.8776 141.357 L-77.1683 142.061 L-76.459 142.766 L-75.7497 143.47 L-75.0405 144.175 L-74.3312 144.879 L-73.6219 145.584 L-72.9126 146.288 L-72.2033 146.993 L-71.494 147.697 L-70.7848 148.402 L-70.0755 149.107 L-69.3662 149.811 L-68.6569 150.516 L-67.9476 151.22 L-67.2383 151.925 L-66.5291 152.629 L-65.8198 153.334 L-65.1105 154.038 L-64.4012 154.743 L-63.6919 155.447 L-62.9826 156.152 L-62.2734 156.857 L-61.5641 157.561 L-60.8548 158.266 L-60.1455 158.97 L-59.4362 159.675 L-58.7269 160.379 L-58.0177 161.084 L-57.3084 161.788 L-56.5991 162.493 L-55.8898 163.197 L-55.1805 163.902 L-54.4712 164.606 L-53.7619 165.311 L-53.0527 166.016 L-52.3434 166.72 L-51.6341 167.425 L-50.9248 168.129 L-50.2155 168.834 L-49.5063 169.538 L-48.797 170.243 L-48.0877 170.947 L-47.3784 171.652 L-46.6691 172.356 L-45.9598 173.061 L-45.2505 173.765 L-44.5413 174.47 L-43.832 175.175 L-43.1227 175.879 L-42.4134 176.584 L-41.7041 177.288 L-40.9948 177.993 L-40.2856 178.697 L-39.5763 179.402 L-38.867 180.106 L-38.1577 180.811 L-37.4484 181.515 L-36.7392 182.22 L-36.0299 182.925 L-35.3206 183.629 L-34.6113 184.334 L-33.902 185.038 L-33.1927 185.743 L-32.4834 186.447 L-31.7742 187.152 L-31.0649 187.856 L-30.3556 188.561 L-29.6463 189.265 L-28.937 189.97 L-28.2277 190.674 L-27.5185 191.379 L-26.8092 192.084 L-26.0999 192.788 L-25.3906 193.493 L-24.6813 194.197 L-23.972 194.902 L-23.2628 195.606 L-22.5535 196.311 L-21.8442 197.015 L-21.1349 197.72 L-20.4256 198.424 L-19.7163 199.129 L-19.0071 199.833 L-18.2978 200.538 L-17.5885 201.243 L-16.8792 201.947 L-16.1699 202.652 L-15.4606 203.356 L-14.7514 204.061 L-14.0421 204.765 L-13.3328 205.47 L-12.6235 206.174 L-11.9142 206.879 L-11.2049 207.583 L-10.4957 208.288 L-9.78637 208.993 L-9.07709 209.697 L-8.36781 210.402 L-7.65852 211.106 L-6.94924 211.811 L-6.23995 212.515 L-5.53067 213.22 L-4.82139 213.924 L-4.1121 214.629 L-3.40282 215.333 L-2.69354 216.038 L-1.98425 216.742 L-1.27497 217.447 L-0.56569 218.152 L0.14359 218.856 L0.85287 219.561 L1.29519 220 L3.07515 221.768 L3.69001 222.379 L4.10372 222.79 L11.6979 230.333 L12.2014 230.833 L12.4905 231.12 L19.4573 238.041 L20.0035 238.583 L20.3171 238.895 L24.9685 243.515 L25.6778 244.22 L26.3871 244.924 L27.0964 245.629 L27.2167 245.748 L24.9685 243.515 Z M28.5149 247.038 L28.7039 247.225 L35.7669 254.241 L36.3171 254.788 L36.6462 255.115 L41.5645 260 L41.282 259.719 L40.5727 259.015 L39.8635 258.31 L39.1542 257.606 L38.4449 256.901 L37.7356 256.197 L37.0263 255.492 L36.6462 255.115 L35.7669 254.241 L35.6078 254.083 L34.8985 253.379 L34.1892 252.674 L33.4799 251.97 L32.7706 251.265 L32.0613 250.56 L31.3521 249.856 L30.6428 249.151 L29.9335 248.447 L29.2242 247.742 L28.7039 247.225 L27.4702 246 L27.8056 246.333 L28.5149 247.038 Z " />
<path stroke="rgb(0,0,0)" stroke-opacity="1" fill="rgb(200,200,200)" fill-opacity="1" d="M172 160 L173 160 L174 160 L175 160 L176 160 L177 160 L178 160 L179 160 L180 160 L181 160 L182 160 L183 160 L184 160 L185 160 L186 160 L187 160 L188 160 L189 160 L190 160 L191 160 L192 160 L193 160 L194 160 L195 160 L196 160 L197 160 L198 160 L199 160 L200 160 L201 160 L202 160 L203 160 L204 160 L205 160 L206 160 L207 160 L208 160 L209 160 L210 160 L211 160 L212 160 L213 160 L214 160 L215 160 L216 160 L217 160 L218 160 L219 160 L220 160 L221 160 L222 160 L223 160 L224 160 L225 160 L226 160 L227 160 L228 160 L229 160 L230 160 L231 160 L232 160 L233 160 L234 160 L235 160 L236 160 L237 160 L238 160 L239 160 L240 160 L240 159 L240 158 L240 157 L240 156 L240 155 L240 154 L240 153 L240 152 L240 151 L240 150 L240 149 L240 148 L240 147 L240 146 L240 145 L240 144 L240 143 L240 142 L240 141 L240 140 L240 139 L240 138 L240 137 L240 136 L240 135 L240 134 L240 133 L240 132 L240 131 L240 130 L240 129 L240 128 L240 127 L240 126 L240 125 L240 124 L240 123 L240 122 L240 121 L240 120 L240 119 L240 118 L240 117 L240 116 L240 115 L240 114 L240 113 L240 112 L240 111 L240 110 L240 109 L240 108 L240 107 L240 106 L240 105 L240 104 L240 103 L240 102 L240 101 L240 100 L240 99 L240 98 L240 97 L240 96 L240 95 L240 94 L240 93 L240 92 L240 91 L240 90 L240 89 L240 88 L240 87 L240 86 L240 85 L240 84 L240 83 L240 82 L240 81 L240 80 L240 79 L240 78 L240 77 L240 76 L240 75 L240 74 L240 73 L240 72 L240 71 L240 70 L240 69 L240 68 L240 67 L240 66 L240 65 L240 64 L240 63 L240 62 L240 61 L240 60 L240 59 L240 58 L240 57 L240 56 L240 55 L240 54 L240 53 L240 52 L240 51 L240 50 L240 49 L240 48 L240 47 L240 46 L240 45 L240 44 L240 43 L240 42 L240 41 L240 40 L240 39 L240 38 L240 37 L240 36 L240 35 L240 34 L240 33 L240 32 L240 31 L240 30 L240 29 L240 28 L240 27 L240 26 L240 25 L240 24 L240 23 L240 22 L240 21 L240 20 L240 19 L240 18 L240 17 L240 16 L240 15 L240 14 L240 13 L240 12 L240 11 L240 10 L240 9 L240 8 L240 7 L240 6 L240 5 L240 4 L240 3 L240 2 L240 1 L240 0 L240 -1 L240 -2 L240 -3 L240 -4 L240 -5 L240 -6 L240 -7 L240 -8 L240 -9 L240 -10 L240 -11 L240 -12 L240 -13 L240 -14 L240 -15 L240 -16 L240 -17 L240 -18 L240 -19 L240 -20 L240 -21 L240 -22 L240 -23 L240 -24 L240 -25 L240 -26 L240 -27 L240 -28 L240 -29 L240 -30 L240 -31 L240 -32 L240 -33 L240 -34 L240 -35 L240 -36 L240 -37 L240 -38 L240 -39 L240 -40 L239 -40 L238 -40 L237 -40 L236 -40 L235 -40 L234 -40 L233 -40 L232 -40 L231 -40 L230 -40 L229 -40 L228 -40 L227 -40 L226 -40 L225 -40 L224 -40 L223 -40 L222 -40 L221 -40 L220 -40 L219 -40 L218 -40 L217 -40 L216 -40 L215 -40 L214 -40 L213 -40 L212 -40 L211 -40 L210 -40 L209 -40 L208 -40 L207 -40 L206 -40 L205 -40 L204 -40 L203 -40 L202 -40 L201 -40 L200 -40 L199 -40 L198 -40 L197 -40 L196 -40 L195 -40 L194 -40 L193 -40 L192 -40 L191 -40 L190 -40 L189 -40 L188 -40 L187 -40 L186 -40 L185 -40 L184 -40 L183 -40 L182 -40 L181 -40 L180 -40 L179 -40 L178 -40 L177 -40 L176 -40 L175 -40 L174 -40 L173 -40 L172 -40 L171 -40 L170 -40 L169 -40 L168 -40 L167 -40 L166 -40 L165 -40 L164 -40 L163 -40 L162 -40 L161 -40 L160 -40 L159 -40 L158 -40 L157 -40 L156 -40 L155 -40 L154 -40 L153 -40 L152 -40 L151 -40 L150 -40 L149 -40 L148 -40 L147 -40 L146 -40 L145 -40 L144 -40 L143 -40 L142 -40 L141 -40 L140 -40 L139 -40 L138 -40 L137 -40 L136 -40 L135 -40 L134 -40 L133 -40 L132 -40 L131 -40 L130 -40 L129 -40 L128 -40 L127 -40 L126 -40 L125 -40 L124 -40 L123 -40 L122 -40 L121 -40 L120 -40 L119 -40 L118 -40 L117 -40 L116 -40 L115 -40 L114 -40 L113 -40 L112 -40 L111 -40 L110 -40 L109 -40 L108 -40 L107 -40 L106 -40 L105 -40 L104 -40 L103 -40 L102 -40 L101 -40 L100 -40 L100 -41 L100 -42 L100 -43 L100 -44 L100 -45 L100 -46 L100 -47 L100 -48 L100 -49 L100 -50 L100 -51 L100 -52 L100 -53 L100 -54 L100 -55 L100 -56 L100 -57 L100 -58 L100 -59 L100 -60 L100 -61 L100 -62 L100 -63 L100 -64 L100 -65 L100 -66 L100 -67 L100 -68 L100 -69 L100 -70 L100 -71 L100 -72 L100 -73 L100 -74 L100 -75 L100 -76 L100 -77 L100 -78 L100 -79 L100 -80 L100 -81 L100 -82 L100 -83 L100 -84 L100 -85 L100 -86 L100 -87 L100 -88 L100 -89 L100 -90 L100 -91 L100 -92 L100 -93 L100 -94 L100 -95 L100 -96 L100 -97 L100 -98 L100 -99 L100 -100 L99 -100 L98 -100 L97 -100 L96 -100 L95 -100 L94 -100 L93 -100 L92 -100 L91 -100 L90 -100 L89 -100 L88 -100 L87 -100 L86 -100 L85 -100 L84 -100 L83 -100 L82 -100 L81 -100 L80 -100 L79 -100 L78 -100 L77 -100 L76 -100 L75 -100 L74 -100 L73 -100 L72 -100 L71 -100 L70 -100 L69 -100 L68 -100 L67 -100 L66 -100 L65 -100 L64 -100 L63 -100 L62 -100 L61 -100 L60 -100 L59 -100 L58 -100 L57 -100 L56 -100 L55 -100 L54 -100 L53 -100 L52 -100 L51 -100 L50 -100 L49 -100 L48 -100 L47 -100 L46 -100 L45 -100 L44 -100 L43 -100 L42 -100 L41 -100 L40 -100 L39 -100 L38 -100 L37 -100 L36 -100 L35 -100 L34 -100 L33 -100 L32 -100 L31 -100 L30 -100 L29 -100 L28 -100 L27 -100 L26 -100 L25 -100 L24 -100 L23 -100 L22 -100 L21 -100 L20 -100 L19 -100 L18 -100 L17 -100 L16 -100 L15 -100 L14 -100 L13 -100 L12 -100 L11 -100 L10 -100 L9 -100 L8 -100 L7 -100 L6 -100 L5 -100 L4 -100 L3 -100 L2 -100 L1 -100 L0 -100 L-1 -100 L-2 -100 L-3 -100 L-4 -100 L-5 -100 L-6 -100 L-6.99999 -100 L-8 -100 L-8.99999 -100 L-10 -100 L-11 -100 L-12 -100 L-13 -100 L-14 -100 L-15 -100 L-16 -100 L-17 -100 L-18 -100 L-19 -100 L-20 -100 L-21 -100 L-22 -100 L-23 -100 L-24 -100 L-25 -100 L-26 -100 L-27 -100 L-28 -100 L-29 -100 L-30 -100 L-31 -100 L-32 -100 L-33 -100 L-34 -100 L-35 -100 L-36 -100 L-37 -100 L-38 -100 L-39 -100 L-40 -100 L-41 -100 L-42 -100 L-43 -100 L-44 -100 L-45 -100 L-46 -100 L-47 -100 L-48 -100 L-49 -100 L-50 -100 L-51 -100 L-52 -100 L-53 -100 L-54 -100 L-55 -100 L-56 -100 L-57 -100 L-58 -100 L-59 -100 L-60 -100 L-61 -100 L-62 -100 L-63 -100 L-64 -100 L-65 -100 L-66 -100 L-67 -100 L-68 -100 L-69 -100 L-70 -100 L-71 -100 L-72 -100 L-73 -100 L-74 -100 L-75 -100 L-76 -100 L-77 -100 L-78 -100 L-79 -100 L-80 -100 L-81 -100 L-82 -100 L-83 -100 L-84 -100 L-85 -100 L-86 -100 L-87 -100 L-88 -100 L-89 -100 L-90 -100 L-91 -100 L-92 -100 L-93 -100 L-94 -100 L-95 -100 L-96 -100 L-97 -100 L-98 -100 L-99 -100 L-100 -100 L-100 -99 L-100 -98 L-100 -97 L-100 -96 L-100 -95 L-100 -94 L-100 -93 L-100 -92 L-100 -91 L-100 -90 L-100 -89 L-100 -88 L-100 -87 L-100 -86 L-100 -85 L-100 -84 L-100 -83 L-100 -82 L-100 -81 L-100 -80 L-100 -79 L-100 -78 L-100 -77 L-100 -76 L-100 -75 L-100 -74 L-100 -73 L-100 -72 L-100 -71 L-100 -70 L-100 -69 L-100 -68 L-100 -67 L-100 -66 L-100 -65 L-100 -64 L-100 -63 L-100 -62 L-100 -61 L-100 -60 L-100 -59 L-100 -58 L-100 -57 L-100 -56 L-100 -55 L-100 -54 L-100 -53 L-100 -52 L-100 -51 L-100 -50 L-100 -49 L-100 -48 L-100 -47 L-100 -46 L-100 -45 L-100 -44 L-100 -43 L-100 -42 L-100 -41 L-100 -40 L-100 -39 L-100 -38 L-100 -37 L-100 -36 L-100 -35 L-100 -34 L-100 -33 L-100 -32 L-100 -31 L-100 -30 L-100 -29 L-100 -28 L-100 -27 L-100 -26 L-100 -25 L-100 -24 L-100 -23 L-100 -22 L-100 -21 L-100 -20 L-100 -19 L-100 -18 L-100 -17 L-100 -16 L-100 -15 L-100 -14 L-100 -13 L-100 -12 L-100 -11 L-100 -10 L-100 -9 L-100 -8 L-100 -7 L-100 -6 L-100 -5 L-100 -4 L-100 -3 L-100 -2 L-100 -1 L-100 0 L-100 1 L-100 2 L-100 3 L-100 4 L-100 5 L-100 6 L-100 6.99999 L-100 8 L-100 8.99999 L-100 10 L-100 11 L-100 12 L-100 13 L-100 14 L-100 15 L-100 16 L-100 17 L-100 18 L-100 19 L-100 20 L-100 21 L-100 22 L-100 23 L-100 24 L-100 25 L-100 26 L-100 27 L-100 28 L-100 29 L-100 30 L-100 31 L-100 32 L-100 33 L-100 34 L-100 35 L-100 36 L-100 37 L-100 38 L-100 39 L-100 40 L-100 41 L-100 42 L-100 43 L-100 44 L-100 45 L-100 46 L-100 47 L-100 48 L-100 49 L-100 50 L-100 51 L-100 52 L-100 53 L-100 54 L-100 55 L-100 56 L-100 57 L-100 58 L-100 59 L-100 60 L-100 61 L-100 62 L-100 63 L-100 64 L-100 65 L-100 66 L-100 67 L-100 68 L-100 69 L-100 70 L-100 71 L-100 72 L-100 73 L-100 74 L-100 75 L-100 76 L-100 77 L-100 78 L-100 79 L-100 80 L-100 81 L-100 82 L-100 83 L-100 84 L-100 85 L-100 86 L-100 87 L-100 88 L-100 89 L-100 90 L-100 91 L-100 92 L-100 93 L-100 94 L-100 95 L-100 96 L-100 97 L-100 98 L-100 99 L-100 100 L-99 100 L-98 100 L-97 100 L-96 100 L-95 100 L-94 100 L-93 100 L-92 100 L-91 100 L-90 100 L-89 100 L-88 100 L-87 100 L-86 100 L-85 100 L-84 100 L-83 100 L-82 100 L-81 100 L-80 100 L-79 100 L-78 100 L-77 100 L-76 100 L-75 100 L-74 100 L-73 100 L-72 100 L-71 100 L-70 100 L-69 100 L-68 100 L-67 100 L-66 100 L-65 100 L-64 100 L-63 100 L-62 100 L-61 100 L-60 100 L-59 100 L-58 100 L-57 100 L-56 100 L-55 100 L-54 100 L-53 100 L-52 100 L-51 100 L-50 100 L-49 100 L-48 100 L-47 100 L-46 100 L-45 100 L-44 100 L-43 100 L-42 100 L-41 100 L-40 100 L-39 100 L-38 100 L-37 100 L-36 100 L-35 100 L-34 100 L-33 100 L-32 100 L-31 100 L-30 100 L-29 100 L-28 100 L-27 100 L-26 100 L-25 100 L-24 100 L-23 100 L-22 100 L-21 100 L-20 100 L-19 100 L-18 100 L-17 100 L-16 100 L-15 100 L-14 100 L-13 100 L-12 100 L-11 100 L-10 100 L-9 100 L-8 100 L-7 100 L-6 100 L-5 100 L-4 100 L-3 100 L-2 100 L-1 100 L0 100 L1 100 L2 100 L3 100 L4 100 L5 100 L6 100 L6.99999 100 L8 100 L8.99999 100 L10 100 L11 100 L12 100 L13 100 L14 100 L15 100 L16 100 L17 100 L18 100 L19 100 L20 100 L21 100 L22 100 L23 100 L24 100 L25 100 L26 100 L27 100 L28 100 L29 100 L30 100 L31 100 L32 100 L33 100 L34 100 L35 100 L36 100 L37 100 L38 100 L39 100 L40 100 L40 101 L40 102 L40 103 L40 104 L40 105 L40 106 L40 107 L40 108 L40 109 L40 110 L40 111 L40 112 L40 113 L40 114 L40 115 L40 116 L40 117 L40 118 L40 119 L40 120 L40 121 L40 122 L40 123 L40 124 L40 125 L40 126 L40 127 L40 128 L40 129 L40 130 L40 131 L40 132 L40 133 L40 134 L40 135 L40 136 L40 137 L40 138 L40 139 L40 140 L40 141 L40 142 L40 143 L40 144 L40 145 L40 146 L40 147 L40 148 L40 149 L40 150 L40 151 L40 152 L40 153 L40 154 L40 155 L40 156 L40 157 L40 158 L40 159 L40 160 L41 160 L42 160 L43 160 L44 160 L45 160 L46 160 L47 160 L48 160 L49 160 L50 160 L51 160 L52 160 L53 160 L54 160 L55 160 L56 160 L57 160 L58 160 L59 160 L60 160 L61 160 L62 160 L63 160 L64 160 L65 160 L66 160 L67 160 L68 160 L69 160 L70 160 L71 160 L72 160 L73 160 L74 160 L75 160 L76 160 L77 160 L78 160 L79 160 L80 160 L81 160 L82 160 L83 160 L84 160 L85 160 L86 160 L87 160 L88 160 L89 160 L90 160 L91 160 L92 160 L93 160 L94 160 L95 160 L96 160 L97 160 L98 160 L99 160 L100 160 L101 160 L102 160 L103 160 L104 160 L105 160 L106 160 L107 160 L108 160 L109 160 L110 160 L111 160 L112 160 L113 160 L114 160 L115 160 L116 160 L117 160 L118 160 L119 160 L120 160 L121 160 L122 160 L123 160 L124 160 L125 160 L126 160 L127 160 L128 160 L129 160 L130 160 L131 160 L132 160 L133 160 L134 160 L135 160 L136 160 L137 160 L138 160 L139 160 L140 160 L141 160 L142 160 L143 160 L144 160 L145 160 L146 160 L147 160 L148 160 L149 160 L150 160 L151 160 L152 160 L153 160 L154 160 L155 160 L156 160 L157 160 L158 160 L159 160 L160 160 L161 160 L162 160 L163 160 L164 160 L165 160 L166 160 L167 160 L168 160 L169 160 L170 160 L171 160 L172 160 Z " />
<path stroke="rgb(0,0,0)" stroke-opacity="1" fill="rgb(200,200,200)" fill-opacity="1" d="M-255.908 -35.4831 L-256.57 -36.1409 L-256.983 -36.5516 L-257.326 -36.8922 L-257.435 -37 L-260 -39.548 L-260 -39.548 L-259.454 -39.0059 L-258.745 -38.3013 L-258.036 -37.5968 L-257.435 -37 L-256.983 -36.5516 L-256.617 -36.1877 L-256.57 -36.1409 L-255.62 -35.1972 L-255.198 -34.7786 L-254.489 -34.0741 L-253.78 -33.3695 L-253.071 -32.665 L-255.62 -35.1972 L-255.908 -35.4831 Z " />
<path stroke="rgb(0,0,0)" stroke-opacity="1" fill="rgb(200,200,200)" fill-opacity="1" d="M-250.233 -29.8468 L-250.164 -29.778 L-249.157 -28.7773 L-248.815 -28.4377 L-248.106 -27.7332 L-247.396 -27.0286 L-246.687 -26.3241 L-245.978 -25.6196 L-245.269 -24.915 L-244.559 -24.2105 L-244.343 -23.9958 L-240.77 -20.4466 L-240.304 -19.9832 L-239.594 -19.2787 L-238.885 -18.5742 L-238.176 -17.8696 L-237.466 -17.1651 L-236.757 -16.4605 L-236.048 -15.756 L-235.339 -15.0515 L-234.629 -14.3469 L-233.92 -13.6424 L-233.211 -12.9378 L-232.943 -12.6723 L-232.501 -12.2333 L-231.792 -11.5288 L-231.083 -10.8242 L-230.374 -10.1197 L-229.664 -9.41513 L-228.955 -8.71059 L-228.246 -8.00605 L-227.536 -7.30151 L-226.827 -6.59697 L-226.118 -5.89243 L-225.917 -5.69281 L-224.557 -4.34164 L-223.99 -3.7788 L-223.281 -3.07426 L-222.571 -2.36972 L-221.862 -1.66518 L-221.153 -0.96064 L-220.444 -0.2561 L-220.186 0 L-215.985 4.17314 L-134.562 85.0513 L-84.5414 134.737 L-84.2612 135.016 L-84.1587 135.118 L1.29519 220 L1.56215 220.265 L2.27144 220.97 L2.98072 221.674 L3.07515 221.768 L4.10372 222.79 L4.39928 223.083 L5.10857 223.788 L5.81786 224.492 L6.52714 225.197 L7.23642 225.902 L7.94571 226.606 L8.65499 227.311 L9.36427 228.015 L10.0736 228.72 L10.7828 229.424 L11.4921 230.129 L11.6979 230.333 L12.4905 231.12 L12.9107 231.538 L13.62 232.242 L14.3293 232.947 L15.0385 233.651 L15.7478 234.356 L16.4571 235.061 L17.1664 235.765 L17.8757 236.47 L18.5849 237.174 L19.2942 237.879 L19.4573 238.041 L20.3171 238.895 L20.7128 239.288 L21.4221 239.992 L22.1314 240.697 L22.8407 241.401 L23.5499 242.106 L24.2592 242.81 L24.9685 243.515 L27.2167 245.748 L27.4702 246 L28.7039 247.225 L29.2242 247.742 L29.9335 248.447 L30.6428 249.151 L31.3521 249.856 L32.0613 250.56 L32.7706 251.265 L33.4799 251.97 L34.1892 252.674 L34.8985 253.379 L35.6078 254.083 L36.3171 254.788 L37.0263 255.492 L37.7356 256.197 L38.4449 256.901 L39.1542 257.606 L39.8635 258.31 L40.5727 259.015 L41.282 259.719 L41.5645 260 L41.5645 260 L28.7039 247.225 L28.5149 247.038 L27.8056 246.333 L27.4702 246 L27.2167 245.748 L27.0964 245.629 L26.3871 244.924 L25.6778 244.22 L24.9685 243.515 L20.3171 238.895 L20.0035 238.583 L19.4573 238.041 L12.4905 231.12 L12.2014 230.833 L11.6979 230.333 L4.10372 222.79 L3.69001 222.379 L3.07515 221.768 L1.29519 220 L0.85287 219.561 L0.14359 218.856 L-0.56569 218.152 L-1.27497 217.447 L-1.98425 216.742 L-2.69354 216.038 L-3.40282 215.333 L-4.1121 214.629 L-4.82139 213.924 L-5.53067 213.22 L-6.23995 212.515 L-6.94924 211.811 L-7.65852 211.106 L-8.36781 210.402 L-9.07709 209.697 L-9.78637 208.993 L-10.4957 208.288 L-11.2049 207.583 L-11.9142 206.879 L-12.6235 206.174 L-13.3328 205.47 L-14.0421 204.765 L-14.7514 204.061 L-15.4606 203.356 L-16.1699 202.652 L-16.8792 201.947 L-17.5885 201.243 L-18.2978 200.538 L-19.0071 199.833 L-19.7163 199.129 L-20.4256 198.424 L-21.1349 197.72 L-21.8442 197.015 L-22.5535 196.311 L-23.2628 195.606 L-23.972 194.902 L-24.6813 194.197 L-25.3906 193.493 L-26.0999 192.788 L-26.8092 192.084 L-27.5185 191.379 L-28.2277 190.674 L-28.937 189.97 L-29.6463 189.265 L-30.3556 188.561 L-31.0649 187.856 L-31.7742 187.152 L-32.4834 186.447 L-33.1927 185.743 L-33.902 185.038 L-34.6113 184.334 L-35.3206 183.629 L-36.0299 182.925 L-36.7392 182.22 L-37.4484 181.515 L-38.1577 180.811 L-38.867 180.106 L-39.5763 179.402 L-40.2856 178.697 L-40.9948 177.993 L-41.7041 177.288 L-42.4134 176.584 L-43.1227 175.879 L-43.832 175.175 L-44.5413 174.47 L-45.2505 173.765 L-45.9598 173.061 L-46.6691 172.356 L-47.3784 171.652 L-48.0877 170.947 L-48.797 170.243 L-49.5063 169.538 L-50.2155 168.834 L-50.9248 168.129 L-51.6341 167.425 L-52.3434 166.72 L-53.0527 166.016 L-53.7619 165.311 L-54.4712 164.606 L-55.1805 163.902 L-55.8898 163.197 L-56.5991 162.493 L-57.3084 161.788 L-58.0177 161.084 L-58.7269 160.379 L-59.4362 159.675 L-60.1455 158.97 L-60.8548 158.266 L-61.5641 157.561 L-62.2734 156.857 L-62.9826 156.152 L-63.6919 155.447 L-64.4012 154.743 L-65.1105 154.038 L-65.8198 153.334 L-66.5291 152.629 L-67.2383 151.925 L-67.9476 151.22 L-68.6569 150.516 L-69.3662 149.811 L-70.0755 149.107 L-70.7848 148.402 L-71.494 147.697 L-72.2033 146.993 L-72.9126 146.288 L-73.6219 145.584 L-74.3312 144.879 L-75.0405 144.175 L-75.7497 143.47 L-76.459 142.766 L-77.1683 142.061 L-77.8776 141.357 L-78.5869 140.652 L-79.2962 139.948 L-80.0054 139.243 L-80.7147 138.538 L-81.424 137.834 L-82.1333 137.129 L-82.8426 136.425 L-83.5519 135.72 L-84.1587 135.118 L-84.5414 134.737 L-84.9704 134.311 L-85.6797 133.607 L-86.389 132.902 L-87.0983 132.198 L-87.8076 131.493 L-88.5169 130.788 L-89.2261 130.084 L-89.9354 129.379 L-90.6447 128.675 L-91.354 127.97 L-92.0633 127.266 L-92.7725 126.561 L-93.4818 125.857 L-94.1911 125.152 L-94.9004 124.448 L-95.6097 123.743 L-96.319 123.039 L-97.0282 122.334 L-97.7375 121.629 L-98.4468 120.925 L-99.1561 120.22 L-99.8654 119.516 L-100.575 118.811 L-101.284 118.107 L-101.993 117.402 L-102.703 116.698 L-103.412 115.993 L-104.121 115.289 L-104.83 114.584 L-105.54 113.88 L-106.249 113.175 L-106.958 112.47 L-107.668 111.766 L-108.377 111.061 L-109.086 110.357 L-109.795 109.652 L-110.505 108.948 L-111.214 108.243 L-111.923 107.539 L-112.632 106.834 L-113.342 106.13 L-114.051 105.425 L-114.76 104.72 L-115.47 104.016 L-116.179 103.311 L-116.888 102.607 L-117.597 101.902 L-118.307 101.198 L-119.016 100.493 L-119.725 99.7887 L-120.435 99.0841 L-121.144 98.3796 L-121.853 97.6751 L-122.562 96.9705 L-123.272 96.266 L-123.981 95.5614 L-124.69 94.8569 L-125.4 94.1524 L-126.109 93.4478 L-126.818 92.7433 L-127.527 92.0387 L-128.237 91.3342 L-128.946 90.6297 L-129.655 89.9251 L-130.365 89.2206 L-131.074 88.516 L-131.783 87.8115 L-132.492 87.107 L-133.202 86.4024 L-133.911 85.6979 L-134.562 85.0513 L-134.62 84.9933 L-135.33 84.2888 L-136.039 83.5842 L-136.748 82.8797 L-137.457 82.1752 L-138.167 81.4706 L-138.876 80.7661 L-139.585 80.0615 L-140.295 79.357 L-141.004 78.6525 L-141.713 77.9479 L-142.422 77.2434 L-143.132 76.5388 L-143.841 75.8343 L-144.55 75.1298 L-145.26 74.4252 L-145.969 73.7207 L-146.678 73.0161 L-147.387 72.3116 L-148.097 71.6071 L-148.806 70.9025 L-149.515 70.198 L-150.225 69.4934 L-150.934 68.7889 L-151.643 68.0844 L-152.352 67.3798 L-153.062 66.6753 L-153.771 65.9707 L-154.48 65.2662 L-155.19 64.5617 L-155.899 63.8571 L-156.608 63.1526 L-157.317 62.448 L-158.027 61.7435 L-158.736 61.0389 L-159.445 60.3344 L-160.154 59.6299 L-160.864 58.9253 L-161.573 58.2208 L-162.282 57.5162 L-162.992 56.8117 L-163.701 56.1072 L-164.41 55.4026 L-165.119 54.6981 L-165.829 53.9935 L-166.538 53.289 L-167.247 52.5845 L-167.957 51.8799 L-168.666 51.1754 L-169.375 50.4708 L-170.084 49.7663 L-170.794 49.0618 L-171.503 48.3572 L-172.212 47.6527 L-172.922 46.9481 L-173.631 46.2436 L-174.34 45.5391 L-175.049 44.8345 L-175.759 44.13 L-176.468 43.4254 L-177.177 42.7209 L-177.887 42.0163 L-178.596 41.3118 L-179.305 40.6073 L-180.014 39.9027 L-180.724 39.1982 L-181.433 38.4936 L-182.142 37.7891 L-182.852 37.0846 L-183.561 36.38 L-184.27 35.6755 L-184.979 34.9709 L-185.689 34.2664 L-186.398 33.5618 L-187.107 32.8573 L-187.817 32.1528 L-188.526 31.4482 L-189.235 30.7437 L-189.944 30.0391 L-190.654 29.3346 L-191.363 28.6301 L-192.072 27.9255 L-192.782 27.221 L-193.491 26.5164 L-194.2 25.8119 L-194.909 25.1074 L-195.619 24.4028 L-196.328 23.6983 L-197.037 22.9937 L-197.747 22.2892 L-198.456 21.5847 L-199.165 20.8801 L-199.874 20.1756 L-200.584 19.471 L-201.293 18.7665 L-202.002 18.0619 L-202.712 17.3574 L-203.421 16.6529 L-204.13 15.9483 L-204.839 15.2438 L-205.549 14.5392 L-206.258 13.8347 L-206.967 13.1302 L-207.676 12.4256 L-208.386 11.7211 L-209.095 11.0165 L-209.804 10.312 L-210.514 9.60746 L-211.223 8.90292 L-211.932 8.19838 L-212.641 7.49384 L-213.351 6.7893 L-214.06 6.08476 L-214.769 5.38022 L-215.479 4.67568 L-215.985 4.17314 L-216.188 3.97114 L-216.897 3.26659 L-217.606 2.56205 L-218.316 1.85751 L-219.025 1.15297 L-219.734 0.44843 L-220.186 0 L-224.557 -4.34164 L-224.699 -4.48335 L-225.409 -5.18789 L-225.917 -5.69281 L-232.943 -12.6723 L-234.629 -14.3469 L-240.77 -20.4466 L-241.013 -20.6878 L-241.722 -21.3923 L-242.431 -22.0969 L-243.141 -22.8014 L-243.85 -23.5059 L-244.343 -23.9958 L-249.157 -28.7773 L-249.524 -29.1423 L-250.164 -29.778 L-250.388 -30 L-250.943 -30.5514 L-251.652 -31.2559 L-252.361 -31.9604 L-253.068 -32.6624 L-250.388 -30 L-250.233 -29.8468 Z " />
</g>
</g>
</svg>
