<!DOCTYPE svg>
<svg xmlns="http://www.w3.org/2000/svg" xmlns:xlink="http://www.w3.org/1999/xlink" width="800" height="800">
<g transform="translate(400.000000,400.000000)">
<g transform="scale(1.000000,1.000000)">
<path stroke="rgb(0,0,0)" stroke-opacity="1" fill="rgb(200,200,200)" fill-opacity="1" d="M245.372 244.554 L245.372 243.736 L245.372 242.918 L245.372 242.1 L245.372 241.283 L245.372 240.465 L245.372 239.647 L245.372 238.829 L245.372 238.011 L245.372 237.193 L245.372 236.375 L245.372 235.557 L245.372 234.739 L245.372 233.921 L245.372 233.103 L245.372 232.286 L245.372 231.468 L245.372 230.65 L245.372 229.832 L245.372 229.014 L245.372 228.196 L245.372 227.378 L245.372 226.56 L245.372 225.742 L245.372 224.924 L245.372 224.107 L245.372 223.289 L245.372 222.471 L245.372 221.653 L245.372 220.835 L245.372 220.017 L245.372 219.199 L245.372 218.381 L245.372 217.563 L245.372 216.745 L245.372 215.927 L245.372 215.11 L245.372 214.292 L245.372 213.474 L245.372 212.656 L245.372 211.838 L245.372 211.02 L245.372 210.202 L245.372 209.384 L245.372 208.566 L245.372 207.748 L245.372 206.93 L245.372 206.113 L245.372 205.295 L245.372 204.477 L245.372 203.659 L245.372 202.841 L245.372 202.023 L245.372 201.205 L245.372 200.387 L245.372 199.569 L245.372 198.751 L245.372 197.933 L245.372 197.116 L245.372 196.298 L245.372 195.48 L245.372 194.662 L245.372 193.844 L245.372 193.026 L245.372 192.208 L245.372 191.39 L245.372 190.572 L245.372 189.754 L245.372 188.936 L245.372 188.119 L245.372 187.301 L245.372 186.483 L245.372 185.665 L245.372 184.847 L245.372 184.029 L245.372 183.211 L245.372 182.393 L245.372 181.575 L245.372 180.757 L245.372 179.94 L245.372 179.122 L245.372 178.304 L245.372 177.486 L245.372 176.668 L245.372 175.85 L245.372 175.032 L245.372 174.214 L245.372 173.396 L245.372 172.578 L245.372 171.76 L245.372 170.943 L245.372 170.125 L245.372 169.307 L245.372 168.489 L245.372 167.671 L245.372 166.853 L245.372 166.035 L245.372 165.217 L245.372 164.399 L245.372 163.581 L245.372 162.763 L245.372 161.946 L245.372 161.128 L245.372 160.31 L245.372 159.492 L245.372 158.674 L245.372 157.856 L245.372 157.038 L245.372 156.22 L245.372 155.402 L245.372 154.584 L245.372 153.767 L245.372 152.949 L245.372 152.131 L245.372 151.313 L245.372 150.495 L245.372 149.677 L245.372 148.859 L245.372 148.041 L245.372 147.223 L245.372 146.405 L245.372 145.587 L245.372 144.77 L245.372 143.952 L245.372 143.134 L245.372 142.316 L245.372 141.498 L245.372 140.68 L245.372 139.862 L245.372 139.044 L245.372 138.226 L245.372 137.408 L245.372 136.59 L245.372 135.773 L245.372 134.955 L245.372 134.137 L245.372 133.319 L245.372 132.501 L245.372 131.683 L245.372 130.865 L245.372 130.047 L245.372 129.229 L245.372 128.411 L245.372 127.593 L245.372 126.776 L245.372 125.958 L245.372 125.14 L245.372 124.322 L245.372 123.504 L245.372 122.686 L245.372 121.868 L245.372 121.05 L245.372 120.232 L245.372 119.414 L245.372 118.597 L245.372 117.779 L245.372 116.961 L245.372 116.143 L245.372 115.325 L245.372 114.507 L245.372 113.689 L245.372 112.871 L245.372 112.053 L245.372 111.235 L245.372 110.417 L245.372 109.6 L245.372 108.782 L245.372 107.964 L245.372 107.146 L245.372 106.328 L245.372 105.51 L245.372 104.692 L245.372 103.874 L245.372 103.056 L245.372 102.238 L245.372 101.42 L245.372 100.603 L245.372 99.7846 L245.372 98.9667 L245.372 98.1488 L245.372 97.3309 L245.372 96.513 L245.372 95.6951 L245.372 94.8772 L245.372 94.0593 L245.372 93.2414 L245.372 92.4235 L245.372 91.6056 L245.372 90.7877 L245.372 89.9698 L245.372 89.1518 L245.372 88.3339 L245.372 87.516 L245.372 86.6981 L245.372 85.8802 L245.372 85.0623 L245.372 84.2444 L245.372 83.4265 L245.372 82.6086 L245.372 81.7907 L245.372 80.9728 L245.372 80.1549 L245.372 79.337 L245.372 78.5191 L245.372 77.7011 L245.372 76.8833 L245.372 76.0653 L245.372 75.2474 L245.372 74.4295 L245.372 73.6116 L245.372 72.7937 L245.372 71.9758 L245.372 71.1579 L245.372 70.34 L245.372 69.5221 L245.372 68.7042 L245.372 67.8863 L245.372 67.0684 L245.372 66.2505 L245.372 65.4326 L245.372 64.6146 L245.372 63.7967 L245.372 62.9788 L245.372 62.1609 L245.372 61.343 L245.372 60.5251 L245.372 59.7072 L245.372 58.8893 L245.372 58.0714 L245.372 57.2535 L245.372 56.4356 L245.372 55.6177 L245.372 54.7998 L245.372 53.9819 L245.372 53.1639 L245.372 52.346 L245.372 51.5281 L245.372 50.7102 L245.372 49.8923 L245.372 49.0744 L245.372 48.2565 L245.372 47.4386 L245.372 46.6207 L245.372 45.8028 L245.372 44.9849 L245.372 44.167 L245.372 43.3491 L245.372 42.5312 L245.372 41.7133 L245.372 40.8953 L245.372 40.0774 L245.372 39.2595 L245.372 38.4416 L245.372 37.6237 L245.372 36.8058 L245.372 35.9879 L245.372 35.17 L245.372 34.3521 L245.372 33.5342 L245.372 32.7163 L245.372 31.8984 L245.372 31.0805 L245.372 30.2626 L245.372 29.4446 L245.372 28.6267 L245.372 27.8088 L245.372 26.9909 L245.372 26.173 L245.372 25.3551 L245.372 24.5372 L245.372 23.7193 L245.372 22.9014 L245.372 22.0835 L245.372 21.2656 L245.372 20.4477 L245.372 19.6298 L245.372 18.8118 L245.372 17.994 L245.372 17.176 L245.372 16.3581 L245.372 15.5402 L245.372 14.7223 L245.372 13.9044 L245.372 13.0865 L245.372 12.2686 L245.372 11.4507 L245.372 10.6328 L245.372 9.81488 L245.372 8.99696 L245.372 8.17906 L245.372 7.36116 L245.372 6.54325 L245.372 5.72534 L245.372 4.90744 L245.372 4.08953 L245.372 3.27162 L245.372 2.45372 L245.372 1.63581 L245.372 0.8179 L245.372 0 L245.372 -0.8179 L245.372 -1.63581 L245.372 -2.45372 L245.372 -3.27162 L245.372 -4.08953 L245.372 -4.90744 L245.372 -5.72534 L245.372 -6.54325 L245.372 -7.36116 L245.372 -8.17906 L245.372 -8.99696 L245.372 -9.81488 L245.372 -10.6328 L245.372 -11.4507 L245.372 -12.2686 L245.372 -13.0865 L245.372 -13.9044 L245.372 -14.7223 L245.372 -15.5402 L245.372 -16.3581 L245.372 -17.176 L245.372 -17.994 L245.372 -18.8118 L245.372 -19.6298 L245.372 -20.4477 L245.372 -21.2656 L245.372 -22.0835 L245.372 -22.9014 L245.372 -23.7193 L245.372 -24.5372 L245.372 -25.3551 L245.372 -26.173 L245.372 -26.9909 L245.372 -27.8088 L245.372 -28.6267 L245.372 -29.4446 L245.372 -30.2626 L245.372 -31.0805 L245.372 -31.8984 L245.372 -32.7163 L245.372 -33.5342 L245.372 -34.3521 L245.372 -35.17 L245.372 -35.9879 L245.372 -36.8058 L245.372 -37.6237 L245.372 -38.4416 L245.372 -39.2595 L245.372 -40.0774 L245.372 -40.8953 L245.372 -41.7133 L245.372 -42.5312 L245.372 -43.3491 L245.372 -44.167 L245.372 -44.9849 L245.372 -45.8028 L245.372 -46.6207 L245.372 -47.4386 L245.372 -48.2565 L245.372 -49.0744 L245.372 -49.8923 L245.372 -50.7102 L245.372 -51.5281 L245.372 -52.346 L245.372 -53.1639 L245.372 -53.9819 L245.372 -54.7998 L245.372 -55.6177 L245.372 -56.4356 L245.372 -57.2535 L245.372 -58.0714 L245.372 -58.8893 L245.372 -59.7072 L245.372 -60.5251 L245.372 -61.343 L245.372 -62.1609 L245.372 -62.9788 L245.372 -63.7967 L245.372 -64.6146 L245.372 -65.4326 L245.372 -66.2505 L245.372 -67.0684 L245.372 -67.8863 L245.372 -68.7042 L245.372 -69.5221 L245.372 -70.34 L245.372 -71.1579 L245.372 -71.9758 L245.372 -72.7937 L245.372 -73.6116 L245.372 -74.4295 L245.372 -75.2474 L245.372 -76.0653 L245.372 -76.8833 L245.372 -77.7011 L245.372 -78.5191 L245.372 -79.337 L245.372 -80.1549 L245.372 -80.9728 L245.372 -81.7907 L245.372 -82.6086 L245.372 -83.4265 L245.372 -84.2444 L245.372 -85.0623 L245.372 -85.8802 L245.372 -86.6981 L245.372 -87.516 L245.372 -88.3339 L245.372 -89.1518 L245.372 -89.9698 L245.372 -90.7877 L245.372 -91.6056 L245.372 -92.4235 L245.372 -93.2414 L245.372 -94.0593 L245.372 -94.8772 L245.372 -95.6951 L245.372 -96.513 L245.372 -97.3309 L245.372 -98.1488 L245.372 -98.9667 L245.372 -99.7846 L245.372 -100.603 L245.372 -101.42 L245.372 -102.238 L245.372 -103.056 L245.372 -103.874 L245.372 -104.692 L245.372 -105.51 L245.372 -106.328 L245.372 -107.146 L245.372 -107.964 L245.372 -108.782 L245.372 -109.6 L245.372 -110.417 L245.372 -111.235 L245.372 -112.053 L245.372 -112.871 L245.372 -113.689 L245.372 -114.507 L245.372 -115.325 L245.372 -116.143 L245.372 -116.961 L245.372 -117.779 L245.372 -118.597 L245.372 -119.414 L245.372 -120.232 L245.372 -121.05 L245.372 -121.868 L245.372 -122.686 L245.372 -123.504 L245.372 -124.322 L245.372 -125.14 L245.372 -125.958 L245.372 -126.776 L245.372 -127.593 L245.372 -128.411 L245.372 -129.229 L245.372 -130.047 L245.372 -130.865 L245.372 -131.683 L245.372 -132.501 L245.372 -133.319 L245.372 -134.137 L245.372 -134.955 L245.372 -135.773 L245.372 -136.59 L245.372 -137.408 L245.372 -138.226 L245.372 -139.044 L245.372 -139.862 L245.372 -140.68 L245.372 -141.498 L245.372 -142.316 L245.372 -143.134 L245.372 -143.952 L245.372 -144.77 L245.372 -145.587 L245.372 -146.405 L245.372 -147.223 L245.372 -148.041 L245.372 -148.859 L245.372 -149.677 L245.372 -150.495 L245.372 -151.313 L245.372 -152.131 L245.372 -152.949 L245.372 -153.767 L245.372 -154.584 L245.372 -155.402 L245.372 -156.22 L245.372 -157.038 L245.372 -157.856 L245.372 -158.674 L245.372 -159.492 L245.372 -160.31 L245.372 -161.128 L245.372 -161.946 L245.372 -162.763 L245.372 -163.581 L245.372 -164.399 L245.372 -165.217 L245.372 -166.035 L245.372 -166.853 L245.372 -167.671 L245.372 -168.489 L245.372 -169.307 L245.372 -170.125 L245.372 -170.943 L245.372 -171.76 L245.372 -172.578 L245.372 -173.396 L245.372 -174.214 L245.372 -175.032 L245.372 -175.85 L245.372 -176.668 L245.372 -177.486 L245.372 -178.304 L245.372 -179.122 L245.372 -179.94 L245.372 -180.757 L245.372 -181.575 L245.372 -182.393 L245.372 -183.211 L245.372 -184.029 L245.372 -184.847 L245.372 -185.665 L245.372 -186.483 L245.372 -187.301 L245.372 -188.119 L245.372 -188.936 L245.372 -189.754 L245.372 -190.572 L245.372 -191.39 L245.372 -192.208 L245.372 -193.026 L245.372 -193.844 L245.372 -194.662 L245.372 -195.48 L245.372 -196.298 L245.372 -197.116 L245.372 -197.933 L245.372 -198.751 L245.372 -199.569 L245.372 -200.387 L245.372 -201.205 L245.372 -202.023 L245.372 -202.841 L245.372 -203.659 L245.372 -204.477 L245.372 -205.295 L245.372 -206.113 L245.372 -206.93 L245.372 -207.748 L245.372 -208.566 L245.372 -209.384 L245.372 -210.202 L245.372 -211.02 L245.372 -211.838 L245.372 -212.656 L245.372 -213.474 L245.372 -214.292 L245.372 -215.11 L245.372 -215.927 L245.372 -216.745 L245.372 -217.563 L245.372 -218.381 L245.372 -219.199 L245.372 -220.017 L245.372 -220.835 L245.372 -221.653 L245.372 -222.471 L245.372 -223.289 L245.372 -224.107 L245.372 -224.924 L245.372 -225.742 L245.372 -226.56 L245.372 -227.378 L245.372 -228.196 L245.372 -229.014 L245.372 -229.832 L245.372 -230.65 L245.372 -231.468 L245.372 -232.286 L245.372 -233.103 L245.372 -233.921 L245.372 -234.739 L245.372 -235.557 L245.372 -236.375 L245.372 -237.193 L245.372 -238.011 L245.372 -238.829 L245.372 -239.647 L245.372 -240.465 L245.372 -241.283 L245.372 -242.1 L245.372 -242.918 L245.372 -243.736 L245.372 -244.554 L245.372 -245.372 L244.554 -245.372 L243.736 -245.372 L242.918 -245.372 L242.1 -245.372 L241.283 -245.372 L240.465 -245.372 L239.647 -245.372 L238.829 -245.372 L238.011 -245.372 L237.193 -245.372 L236.375 -245.372 L235.557 -245.372 L234.739 -245.372 L233.921 -245.372 L233.103 -245.372 L232.286 -245.372 L231.468 -245.372 L230.65 -245.372 L229.832 -245.372 L229.014 -245.372 L228.196 -245.372 L227.378 -245.372 L226.56 -245.372 L225.742 -245.372 L224.924 -245.372 L224.107 -245.372 L223.289 -245.372 L222.471 -245.372 L221.653 -245.372 L220.835 -245.372 L220.017 -245.372 L219.199 -245.372 L218.381 -245.372 L217.563 -245.372 L216.745 -245.372 L215.927 -245.372 L215.11 -245.372 L214.292 -245.372 L213.474 -245.372 L212.656 -245.372 L211.838 -245.372 L211.02 -245.372 L210.202 -245.372 L209.384 -245.372 L208.566 -245.372 L207.748 -245.372 L206.93 -245.372 L206.113 -245.372 L205.295 -245.372 L204.477 -245.372 L203.659 -245.372 L202.841 -245.372 L202.023 -245.372 L201.205 -245.372 L200.387 -245.372 L199.569 -245.372 L198.751 -245.372 L197.933 -245.372 L197.116 -245.372 L196.298 -245.372 L195.48 -245.372 L194.662 -245.372 L193.844 -245.372 L193.026 -245.372 L192.208 -245.372 L191.39 -245.372 L190.572 -245.372 L189.754 -245.372 L188.936 -245.372 L188.119 -245.372 L187.301 -245.372 L186.483 -245.372 L185.665 -245.372 L184.847 -245.372 L184.029 -245.372 L183.211 -245.372 L182.393 -245.372 L181.575 -245.372 L180.757 -245.372 L179.94 -245.372 L179.122 -245.372 L178.304 -245.372 L177.486 -245.372 L176.668 -245.372 L175.85 -245.372 L175.032 -245.372 L174.214 -245.372 L173.396 -245.372 L172.578 -245.372 L171.76 -245.372 L170.943 -245.372 L170.125 -245.372 L169.307 -245.372 L168.489 -245.372 L167.671 -245.372 L166.853 -245.372 L166.035 -245.372 L165.217 -245.372 L164.399 -245.372 L163.581 -245.372 L162.763 -245.372 L161.946 -245.372 L161.128 -245.372 L160.31 -245.372 L159.492 -245.372 L158.674 -245.372 L157.856 -245.372 L157.038 -245.372 L156.22 -245.372 L155.402 -245.372 L154.584 -245.372 L153.767 -245.372 L152.949 -245.372 L152.131 -245.372 L151.313 -245.372 L150.495 -245.372 L149.677 -245.372 L148.859 -245.372 L148.041 -245.372 L147.223 -245.372 L146.405 -245.372 L145.587 -245.372 L144.77 -245.372 L143.952 -245.372 L143.134 -245.372 L142.316 -245.372 L141.498 -245.372 L140.68 -245.372 L139.862 -245.372 L139.044 -245.372 L138.226 -245.372 L137.408 -245.372 L136.59 -245.372 L135.773 -245.372 L134.955 -245.372 L134.137 -245.372 L133.319 -245.372 L132.501 -245.372 L131.683 -245.372 L130.865 -245.372 L130.047 -245.372 L129.229 -245.372 L128.411 -245.372 L127.593 -245.372 L126.776 -245.372 L125.958 -245.372 L125.14 -245.372 L124.322 -245.372 L123.504 -245.372 L122.686 -245.372 L121.868 -245.372 L121.05 -245.372 L120.232 -245.372 L119.414 -245.372 L118.597 -245.372 L117.779 -245.372 L116.961 -245.372 L116.143 -245.372 L115.325 -245.372 L114.507 -245.372 L113.689 -245.372 L112.871 -245.372 L112.053 -245.372 L111.235 -245.372 L110.417 -245.372 L109.6 -245.372 L108.782 -245.372 L107.964 -245.372 L107.146 -245.372 L106.328 -245.372 L105.51 -245.372 L104.692 -245.372 L103.874 -245.372 L103.056 -245.372 L102.238 -245.372 L101.42 -245.372 L100.603 -245.372 L99.7846 -245.372 L98.9667 -245.372 L98.1488 -245.372 L97.3309 -245.372 L96.513 -245.372 L95.6951 -245.372 L94.8772 -245.372 L94.0593 -245.372 L93.2414 -245.372 L92.4235 -245.372 L91.6056 -245.372 L90.7877 -245.372 L89.9698 -245.372 L89.1518 -245.372 L88.3339 -245.372 L87.516 -245.372 L86.6981 -245.372 L85.8802 -245.372 L85.0623 -245.372 L84.2444 -245.372 L83.4265 -245.372 L82.6086 -245.372 L81.7907 -245.372 L80.9728 -245.372 L80.1549 -245.372 L79.337 -245.372 L78.5191 -245.372 L77.7011 -245.372 L76.8833 -245.372 L76.0653 -245.372 L75.2474 -245.372 L74.4295 -245.372 L73.6116 -245.372 L72.7937 -245.372 L71.9758 -245.372 L71.1579 -245.372 L70.34 -245.372 L69.5221 -245.372 L68.7042 -245.372 L67.8863 -245.372 L67.0684 -245.372 L66.2505 -245.372 L65.4326 -245.372 L64.6146 -245.372 L63.7967 -245.372 L62.9788 -245.372 L62.1609 -245.372 L61.343 -245.372 L60.5251 -245.372 L59.7072 -245.372 L58.8893 -245.372 L58.0714 -245.372 L57.2535 -245.372 L56.4356 -245.372 L55.6177 -245.372 L54.7998 -245.372 L53.9819 -245.372 L53.1639 -245.372 L52.346 -245.372 L51.5281 -245.372 L50.7102 -245.372 L49.8923 -245.372 L49.0744 -245.372 L48.2565 -245.372 L47.4386 -245.372 L46.6207 -245.372 L45.8028 -245.372 L44.9849 -245.372 L44.167 -245.372 L43.3491 -245.372 L42.5312 -245.372 L41.7133 -245.372 L40.8953 -245.372 L40.0774 -245.372 L39.2595 -245.372 L38.4416 -245.372 L37.6237 -245.372 L36.8058 -245.372 L35.9879 -245.372 L35.17 -245.372 L34.3521 -245.372 L33.5342 -245.372 L32.7163 -245.372 L31.8984 -245.372 L31.0805 -245.372 L30.2626 -245.372 L29.4446 -245.372 L28.6267 -245.372 L27.8088 -245.372 L26.9909 -245.372 L26.173 -245.372 L25.3551 -245.372 L24.5372 -245.372 L23.7193 -245.372 L22.9014 -245.372 L22.0835 -245.372 L21.2656 -245.372 L20.4477 -245.372 L19.6298 -245.372 L18.8118 -245.372 L17.994 -245.372 L17.176 -245.372 L16.3581 -245.372 L15.5402 -245.372 L14.7223 -245.372 L13.9044 -245.372 L13.0865 -245.372 L12.2686 -245.372 L11.4507 -245.372 L10.6328 -245.372 L9.81488 -245.372 L8.99696 -245.372 L8.17906 -245.372 L7.36116 -245.372 L6.54325 -245.372 L5.72534 -245.372 L4.90744 -245.372 L4.08953 -245.372 L3.27162 -245.372 L2.45372 -245.372 L1.63581 -245.372 L0.8179 -245.372 L0 -245.372 L-0.8179 -245.372 L-1.63581 -245.372 L-2.45372 -245.372 L-3.27162 -245.372 L-4.08953 -245.372 L-4.90744 -245.372 L-5.72534 -245.372 L-6.54325 -245.372 L-7.36116 -245.372 L-8.17906 -245.372 L-8.99696 -245.372 L-9.81488 -245.372 L-10.6328 -245.372 L-11.4507 -245.372 L-12.2686 -245.372 L-13.0865 -245.372 L-13.9044 -245.372 L-14.7223 -245.372 L-15.5402 -245.372 L-16.3581 -245.372 L-17.176 -245.372 L-17.994 -245.372 L-18.8118 -245.372 L-19.6298 -245.372 L-20.4477 -245.372 L-21.2656 -245.372 L-22.0835 -245.372 L-22.9014 -245.372 L-23.7193 -245.372 L-24.5372 -245.372 L-25.3551 -245.372 L-26.173 -245.372 L-26.9909 -245.372 L-27.8088 -245.372 L-28.6267 -245.372 L-29.4446 -245.372 L-30.2626 -245.372 L-31.0805 -245.372 L-31.8984 -245.372 L-32.7163 -245.372 L-33.5342 -245.372 L-34.3521 -245.372 L-35.17 -245.372 L-35.9879 -245.372 L-36.8058 -245.372 L-37.6237 -245.372 L-38.4416 -245.372 L-39.2595 -245.372 L-40.0774 -245.372 L-40.8953 -245.372 L-41.7133 -245.372 L-42.5312 -245.372 L-43.3491 -245.372 L-44.167 -245.372 L-44.9849 -245.372 L-45.8028 -245.372 L-46.6207 -245.372 L-47.4386 -245.372 L-48.2565 -245.372 L-49.0744 -245.372 L-49.8923 -245.372 L-50.7102 -245.372 L-51.5281 -245.372 L-52.346 -245.372 L-53.1639 -245.372 L-53.9819 -245.372 L-54.7998 -245.372 L-55.6177 -245.372 L-56.4356 -245.372 L-57.2535 -245.372 L-58.0714 -245.372 L-58.8893 -245.372 L-59.7072 -245.372 L-60.5251 -245.372 L-61.343 -245.372 L-62.1609 -245.372 L-62.9788 -245.372 L-63.7967 -245.372 L-64.6146 -245.372 L-65.4326 -245.372 L-66.2505 -245.372 L-67.0684 -245.372 L-67.8863 -245.372 L-68.7042 -245.372 L-69.5221 -245.372 L-70.34 -245.372 L-71.1579 -245.372 L-71.9758 -245.372 L-72.7937 -245.372 L-73.6116 -245.372 L-74.4295 -245.372 L-75.2474 -245.372 L-76.0653 -245.372 L-76.8833 -245.372 L-77.7011 -245.372 L-78.5191 -245.372 L-79.337 -245.372 L-80.1549 -245.372 L-80.9728 -245.372 L-81.7907 -245.372 L-82.6086 -245.372 L-83.4265 -245.372 L-84.2444 -245.372 L-85.0623 -245.372 L-85.8802 -245.372 L-86.6981 -245.372 L-87.516 -245.372 L-88.3339 -245.372 L-89.1518 -245.372 L-89.9698 -245.372 L-90.7877 -245.372 L-91.6056 -245.372 L-92.4235 -245.372 L-93.2414 -245.372 L-94.0593 -245.372 L-94.8772 -245.372 L-95.6951 -245.372 L-96.513 -245.372 L-97.3309 -245.372 L-98.1488 -245.372 L-98.9667 -245.372 L-99.7846 -245.372 L-100.603 -245.372 L-101.42 -245.372 L-102.238 -245.372 L-103.056 -245.372 L-103.874 -245.372 L-104.692 -245.372 L-105.51 -245.372 L-106.328 -245.372 L-107.146 -245.372 L-107.964 -245.372 L-108.782 -245.372 L-109.6 -245.372 L-110.417 -245.372 L-111.235 -245.372 L-112.053 -245.372 L-112.871 -245.372 L-113.689 -245.372 L-114.507 -245.372 L-115.325 -245.372 L-116.143 -245.372 L-116.961 -245.372 L-117.779 -245.372 L-118.597 -245.372 L-119.414 -245.372 L-120.232 -245.372 L-121.05 -245.372 L-121.868 -245.372 L-122.686 -245.372 L-123.504 -245.372 L-124.322 -245.372 L-125.14 -245.372 L-125.958 -245.372 L-126.776 -245.372 L-127.593 -245.372 L-128.411 -245.372 L-129.229 -245.372 L-130.047 -245.372 L-130.865 -245.372 L-131.683 -245.372 L-132.501 -245.372 L-133.319 -245.372 L-134.137 -245.372 L-134.955 -245.372 L-135.773 -245.372 L-136.59 -245.372 L-137.408 -245.372 L-138.226 -245.372 L-139.044 -245.372 L-139.862 -245.372 L-140.68 -245.372 L-141.498 -245.372 L-142.316 -245.372 L-143.134 -245.372 L-143.952 -245.372 L-144.77 -245.372 L-145.587 -245.372 L-146.405 -245.372 L-147.223 -245.372 L-148.041 -245.372 L-148.859 -245.372 L-149.677 -245.372 L-150.495 -245.372 L-151.313 -245.372 L-152.131 -245.372 L-152.949 -245.372 L-153.767 -245.372 L-154.584 -245.372 L-155.402 -245.372 L-156.22 -245.372 L-157.038 -245.372 L-157.856 -245.372 L-158.674 -245.372 L-159.492 -245.372 L-160.31 -245.372 L-161.128 -245.372 L-161.946 -245.372 L-162.763 -245.372 L-163.581 -245.372 L-164.399 -245.372 L-165.217 -245.372 L-166.035 -245.372 L-166.853 -245.372 L-167.671 -245.372 L-168.489 -245.372 L-169.307 -245.372 L-170.125 -245.372 L-170.943 -245.372 L-171.76 -245.372 L-172.578 -245.372 L-173.396 -245.372 L-174.214 -245.372 L-175.032 -245.372 L-175.85 -245.372 L-176.668 -245.372 L-177.486 -245.372 L-178.304 -245.372 L-179.122 -245.372 L-179.94 -245.372 L-180.757 -245.372 L-181.575 -245.372 L-182.393 -245.372 L-183.211 -245.372 L-184.029 -245.372 L-184.847 -245.372 L-185.665 -245.372 L-186.483 -245.372 L-187.301 -245.372 L-188.119 -245.372 L-188.936 -245.372 L-189.754 -245.372 L-190.572 -245.372 L-191.39 -245.372 L-192.208 -245.372 L-193.026 -245.372 L-193.844 -245.372 L-194.662 -245.372 L-195.48 -245.372 L-196.298 -245.372 L-197.116 -245.372 L-197.933 -245.372 L-198.751 -245.372 L-199.569 -245.372 L-200.387 -245.372 L-201.205 -245.372 L-202.023 -245.372 L-202.841 -245.372 L-203.659 -245.372 L-204.477 -245.372 L-205.295 -245.372 L-206.113 -245.372 L-206.93 -245.372 L-207.748 -245.372 L-208.566 -245.372 L-209.384 -245.372 L-210.202 -245.372 L-211.02 -245.372 L-211.838 -245.372 L-212.656 -245.372 L-213.474 -245.372 L-214.292 -245.372 L-215.11 -245.372 L-215.927 -245.372 L-216.745 -245.372 L-217.563 -245.372 L-218.381 -245.372 L-219.199 -245.372 L-220.017 -245.372 L-220.835 -245.372 L-221.653 -245.372 L-222.471 -245.372 L-223.289 -245.372 L-224.107 -245.372 L-224.924 -245.372 L-225.742 -245.372 L-226.56 -245.372 L-227.378 -245.372 L-228.196 -245.372 L-229.014 -245.372 L-229.832 -245.372 L-230.65 -245.372 L-231.468 -245.372 L-232.286 -245.372 L-233.103 -245.372 L-233.921 -245.372 L-234.739 -245.372 L-235.557 -245.372 L-236.375 -245.372 L-237.193 -245.372 L-238.011 -245.372 L-238.829 -245.372 L-239.647 -245.372 L-240.465 -245.372 L-241.283 -245.372 L-242.1 -245.372 L-242.918 -245.372 L-243.736 -245.372 L-244.554 -245.372 L-245.372 -245.372 L-245.372 -244.554 L-245.372 -243.736 L-245.372 -242.918 L-245.372 -242.1 L-245.372 -241.283 L-245.372 -240.465 L-245.372 -239.647 L-245.372 -238.829 L-245.372 -238.011 L-245.372 -237.193 L-245.372 -236.375 L-245.372 -235.557 L-245.372 -234.739 L-245.372 -233.921 L-245.372 -233.103 L-245.372 -232.286 L-245.372 -231.468 L-245.372 -230.65 L-245.372 -229.832 L-245.372 -229.014 L-245.372 -228.196 L-245.372 -227.378 L-245.372 -226.56 L-245.372 -225.742 L-245.372 -224.924 L-245.372 -224.107 L-245.372 -223.289 L-245.372 -222.471 L-245.372 -221.653 L-245.372 -220.835 L-245.372 -220.017 L-245.372 -219.199 L-245.372 -218.381 L-245.372 -217.563 L-245.372 -216.745 L-245.372 -215.927 L-245.372 -215.11 L-245.372 -214.292 L-245.372 -213.474 L-245.372 -212.656 L-245.372 -211.838 L-245.372 -211.02 L-245.372 -210.202 L-245.372 -209.384 L-245.372 -208.566 L-245.372 -207.748 L-245.372 -206.93 L-245.372 -206.113 L-245.372 -205.295 L-245.372 -204.477 L-245.372 -203.659 L-245.372 -202.841 L-245.372 -202.023 L-245.372 -201.205 L-245.372 -200.387 L-245.372 -199.569 L-245.372 -198.751 L-245.372 -197.933 L-245.372 -197.116 L-245.372 -196.298 L-245.372 -195.48 L-245.372 -194.662 L-245.372 -193.844 L-245.372 -193.026 L-245.372 -192.208 L-245.372 -191.39 L-245.372 -190.572 L-245.372 -189.754 L-245.372 -188.936 L-245.372 -188.119 L-245.372 -187.301 L-245.372 -186.483 L-245.372 -185.665 L-245.372 -184.847 L-245.372 -184.029 L-245.372 -183.211 L-245.372 -182.393 L-245.372 -181.575 L-245.372 -180.757 L-245.372 -179.94 L-245.372 -179.122 L-245.372 -178.304 L-245.372 -177.486 L-245.372 -176.668 L-245.372 -175.85 L-245.372 -175.032 L-245.372 -174.214 L-245.372 -173.396 L-245.372 -172.578 L-245.372 -171.76 L-245.372 -170.943 L-245.372 -170.125 L-245.372 -169.307 L-245.372 -168.489 L-245.372 -167.671 L-245.372 -166.853 L-245.372 -166.035 L-245.372 -165.217 L-245.372 -164.399 L-245.372 -163.581 L-245.372 -162.763 L-245.372 -161.946 L-245.372 -161.128 L-245.372 -160.31 L-245.372 -159.492 L-245.372 -158.674 L-245.372 -157.856 L-245.372 -157.038 L-245.372 -156.22 L-245.372 -155.402 L-245.372 -154.584 L-245.372 -153.767 L-245.372 -152.949 L-245.372 -152.131 L-245.372 -151.313 L-245.372 -150.495 L-245.372 -149.677 L-245.372 -148.859 L-245.372 -148.041 L-245.372 -147.223 L-245.372 -146.405 L-245.372 -145.587 L-245.372 -144.77 L-245.372 -143.952 L-245.372 -143.134 L-245.372 -142.316 L-245.372 -141.498 L-245.372 -140.68 L-245.372 -139.862 L-245.372 -139.044 L-245.372 -138.226 L-245.372 -137.408 L-245.372 -136.59 L-245.372 -135.773 L-245.372 -134.955 L-245.372 -134.137 L-245.372 -133.319 L-245.372 -132.501 L-245.372 -131.683 L-245.372 -130.865 L-245.372 -130.047 L-245.372 -129.229 L-245.372 -128.411 L-245.372 -127.593 L-245.372 -126.776 L-245.372 -125.958 L-245.372 -125.14 L-245.372 -124.322 L-245.372 -123.504 L-245.372 -122.686 L-245.372 -121.868 L-245.372 -121.05 L-245.372 -120.232 L-245.372 -119.414 L-245.372 -118.597 L-245.372 -117.779 L-245.372 -116.961 L-245.372 -116.143 L-245.372 -115.325 L-245.372 -114.507 L-245.372 -113.689 L-245.372 -112.871 L-245.372 -112.053 L-245.372 -111.235 L-245.372 -110.417 L-245.372 -109.6 L-245.372 -108.782 L-245.372 -107.964 L-245.372 -107.146 L-245.372 -106.328 L-245.372 -105.51 L-245.372 -104.692 L-245.372 -103.874 L-245.372 -103.056 L-245.372 -102.238 L-245.372 -101.42 L-245.372 -100.603 L-245.372 -99.7846 L-245.372 -98.9667 L-245.372 -98.1488 L-245.372 -97.3309 L-245.372 -96.513 L-245.372 -95.6951 L-245.372 -94.8772 L-245.372 -94.0593 L-245.372 -93.2414 L-245.372 -92.4235 L-245.372 -91.6056 L-245.372 -90.7877 L-245.372 -89.9698 L-245.372 -89.1518 L-245.372 -88.3339 L-245.372 -87.516 L-245.372 -86.6981 L-245.372 -85.8802 L-245.372 -85.0623 L-245.372 -84.2444 L-245.372 -83.4265 L-245.372 -82.6086 L-245.372 -81.7907 L-245.372 -80.9728 L-245.372 -80.1549 L-245.372 -79.337 L-245.372 -78.5191 L-245.372 -77.7011 L-245.372 -76.8833 L-245.372 -76.0653 L-245.372 -75.2474 L-245.372 -74.4295 L-245.372 -73.6116 L-245.372 -72.7937 L-245.372 -71.9758 L-245.372 -71.1579 L-245.372 -70.34 L-245.372 -69.5221 L-245.372 -68.7042 L-245.372 -67.8863 L-245.372 -67.0684 L-245.372 -66.2505 L-245.372 -65.4326 L-245.372 -64.6146 L-245.372 -63.7967 L-245.372 -62.9788 L-245.372 -62.1609 L-245.372 -61.343 L-245.372 -60.5251 L-245.372 -59.7072 L-245.372 -58.8893 L-245.372 -58.0714 L-245.372 -57.2535 L-245.372 -56.4356 L-245.372 -55.6177 L-245.372 -54.7998 L-245.372 -53.9819 L-245.372 -53.1639 L-245.372 -52.346 L-245.372 -51.5281 L-245.372 -50.7102 L-245.372 -49.8923 L-245.372 -49.0744 L-245.372 -48.2565 L-245.372 -47.4386 L-245.372 -46.6207 L-245.372 -45.8028 L-245.372 -44.9849 L-245.372 -44.167 L-245.372 -43.3491 L-245.372 -42.5312 L-245.372 -41.7133 L-245.372 -40.8953 L-245.372 -40.0774 L-245.372 -39.2595 L-245.372 -38.4416 L-245.372 -37.6237 L-245.372 -36.8058 L-245.372 -35.9879 L-245.372 -35.17 L-245.372 -34.3521 L-245.372 -33.5342 L-245.372 -32.7163 L-245.372 -31.8984 L-245.372 -31.0805 L-245.372 -30.2626 L-245.372 -29.4446 L-245.372 -28.6267 L-245.372 -27.8088 L-245.372 -26.9909 L-245.372 -26.173 L-245.372 -25.3551 L-245.372 -24.5372 L-245.372 -23.7193 L-245.372 -22.9014 L-245.372 -22.0835 L-245.372 -21.2656 L-245.372 -20.4477 L-245.372 -19.6298 L-245.372 -18.8118 L-245.372 -17.994 L-245.372 -17.176 L-245.372 -16.3581 L-245.372 -15.5402 L-245.372 -14.7223 L-245.372 -13.9044 L-245.372 -13.0865 L-245.372 -12.2686 L-245.372 -11.4507 L-245.372 -10.6328 L-245.372 -9.81488 L-245.372 -8.99696 L-245.372 -8.17906 L-245.372 -7.36116 L-245.372 -6.54325 L-245.372 -5.72534 L-245.372 -4.90744 L-245.372 -4.08953 L-245.372 -3.27162 L-245.372 -2.45372 L-245.372 -1.63581 L-245.372 -0.8179 L-245.372 0 L-245.372 0.8179 L-245.372 1.63581 L-245.372 2.45372 L-245.372 3.27162 L-245.372 4.08953 L-245.372 4.90744 L-245.372 5.72534 L-245.372 6.54325 L-245.372 7.36116 L-245.372 8.17906 L-245.372 8.99696 L-245.372 9.81488 L-245.372 10.6328 L-245.372 11.4507 L-245.372 12.2686 L-245.372 13.0865 L-245.372 13.9044 L-245.372 14.7223 L-245.372 15.5402 L-245.372 16.3581 L-245.372 17.176 L-245.372 17.994 L-245.372 18.8118 L-245.372 19.6298 L-245.372 20.4477 L-245.372 21.2656 L-245.372 22.0835 L-245.372 22.9014 L-245.372 23.7193 L-245.372 24.5372 L-245.372 25.3551 L-245.372 26.173 L-245.372 26.9909 L-245.372 27.8088 L-245.372 28.6267 L-245.372 29.4446 L-245.372 30.2626 L-245.372 31.0805 L-245.372 31.8984 L-245.372 32.7163 L-245.372 33.5342 L-245.372 34.3521 L-245.372 35.17 L-245.372 35.9879 L-245.372 36.8058 L-245.372 37.6237 L-245.372 38.4416 L-245.372 39.2595 L-245.372 40.0774 L-245.372 40.8953 L-245.372 41.7133 L-245.372 42.5312 L-245.372 43.3491 L-245.372 44.167 L-245.372 44.9849 L-245.372 45.8028 L-245.372 46.6207 L-245.372 47.4386 L-245.372 48.2565 L-245.372 49.0744 L-245.372 49.8923 L-245.372 50.7102 L-245.372 51.5281 L-245.372 52.346 L-245.372 53.1639 L-245.372 53.9819 L-245.372 54.7998 L-245.372 55.6177 L-245.372 56.4356 L-245.372 57.2535 L-245.372 58.0714 L-245.372 58.8893 L-245.372 59.7072 L-245.372 60.5251 L-245.372 61.343 L-245.372 62.1609 L-245.372 62.9788 L-245.372 63.7967 L-245.372 64.6146 L-245.372 65.4326 L-245.372 66.2505 L-245.372 67.0684 L-245.372 67.8863 L-245.372 68.7042 L-245.372 69.5221 L-245.372 70.34 L-245.372 71.1579 L-245.372 71.9758 L-245.372 72.7937 L-245.372 73.6116 L-245.372 74.4295 L-245.372 75.2474 L-245.372 76.0653 L-245.372 76.8833 L-245.372 77.7011 L-245.372 78.5191 L-245.372 79.337 L-245.372 80.1549 L-245.372 80.9728 L-245.372 81.7907 L-245.372 82.6086 L-245.372 83.4265 L-245.372 84.2444 L-245.372 85.0623 L-245.372 85.8802 L-245.372 86.6981 L-245.372 87.516 L-245.372 88.3339 L-245.372 89.1518 L-245.372 89.9698 L-245.372 90.7877 L-245.372 91.6056 L-245.372 92.4235 L-245.372 93.2414 L-245.372 94.0593 L-245.372 94.8772 L-245.372 95.6951 L-245.372 96.513 L-245.372 97.3309 L-245.372 98.1488 L-245.372 98.9667 L-245.372 99.7846 L-245.372 100.603 L-245.372 101.42 L-245.372 102.238 L-245.372 103.056 L-245.372 103.874 L-245.372 104.692 L-245.372 105.51 L-245.372 106.328 L-245.372 107.146 L-245.372 107.964 L-245.372 108.782 L-245.372 109.6 L-245.372 110.417 L-245.372 111.235 L-245.372 112.053 L-245.372 112.871 L-245.372 113.689 L-245.372 114.507 L-245.372 115.325 L-245.372 116.143 L-245.372 116.961 L-245.372 117.779 L-245.372 118.597 L-245.372 119.414 L-245.372 120.232 L-245.372 121.05 L-245.372 121.868 L-245.372 122.686 L-245.372 123.504 L-245.372 124.322 L-245.372 125.14 L-245.372 125.958 L-245.372 126.776 L-245.372 127.593 L-245.372 128.411 L-245.372 129.229 L-245.372 130.047 L-245.372 130.865 L-245.372 131.683 L-245.372 132.501 L-245.372 133.319 L-245.372 134.137 L-245.372 134.955 L-245.372 135.773 L-245.372 136.59 L-245.372 137.408 L-245.372 138.226 L-245.372 139.044 L-245.372 139.862 L-245.372 140.68 L-245.372 141.498 L-245.372 142.316 L-245.372 143.134 L-245.372 143.952 L-245.372 144.77 L-245.372 145.587 L-245.372 146.405 L-245.372 147.223 L-245.372 148.041 L-245.372 148.859 L-245.372 149.677 L-245.372 150.495 L-245.372 151.313 L-245.372 152.131 L-245.372 152.949 L-245.372 153.767 L-245.372 154.584 L-245.372 155.402 L-245.372 156.22 L-245.372 157.038 L-245.372 157.856 L-245.372 158.674 L-245.372 159.492 L-245.372 160.31 L-245.372 161.128 L-245.372 161.946 L-245.372 162.763 L-245.372 163.581 L-245.372 164.399 L-245.372 165.217 L-245.372 166.035 L-245.372 166.853 L-245.372 167.671 L-245.372 168.489 L-245.372 169.307 L-245.372 170.125 L-245.372 170.943 L-245.372 171.76 L-245.372 172.578 L-245.372 173.396 L-245.372 174.214 L-245.372 175.032 L-245.372 175.85 L-245.372 176.668 L-245.372 177.486 L-245.372 178.304 L-245.372 179.122 L-245.372 179.94 L-245.372 180.757 L-245.372 181.575 L-245.372 182.393 L-245.372 183.211 L-245.372 184.029 L-245.372 184.847 L-245.372 185.665 L-245.372 186.483 L-245.372 187.301 L-245.372 188.119 L-245.372 188.936 L-245.372 189.754 L-245.372 190.572 L-245.372 191.39 L-245.372 192.208 L-245.372 193.026 L-245.372 193.844 L-245.372 194.662 L-245.372 195.48 L-245.372 196.298 L-245.372 197.116 L-245.372 197.933 L-245.372 198.751 L-245.372 199.569 L-245.372 200.387 L-245.372 201.205 L-245.372 202.023 L-245.372 202.841 L-245.372 203.659 L-245.372 204.477 L-245.372 205.295 L-245.372 206.113 L-245.372 206.93 L-245.372 207.748 L-245.372 208.566 L-245.372 209.384 L-245.372 210.202 L-245.372 211.02 L-245.372 211.838 L-245.372 212.656 L-245.372 213.474 L-245.372 214.292 L-245.372 215.11 L-245.372 215.927 L-245.372 216.745 L-245.372 217.563 L-245.372 218.381 L-245.372 219.199 L-245.372 220.017 L-245.372 220.835 L-245.372 221.653 L-245.372 222.471 L-245.372 223.289 L-245.372 224.107 L-245.372 224.924 L-245.372 225.742 L-245.372 226.56 L-245.372 227.378 L-245.372 228.196 L-245.372 229.014 L-245.372 229.832 L-245.372 230.65 L-245.372 231.468 L-245.372 232.286 L-245.372 233.103 L-245.372 233.921 L-245.372 234.739 L-245.372 235.557 L-245.372 236.375 L-245.372 237.193 L-245.372 238.011 L-245.372 238.829 L-245.372 239.647 L-245.372 240.465 L-245.372 241.283 L-245.372 242.1 L-245.372 242.918 L-245.372 243.736 L-245.372 244.554 L-245.372 245.372 L-244.554 245.372 L-243.736 245.372 L-242.918 245.372 L-242.1 245.372 L-241.283 245.372 L-240.465 245.372 L-239.647 245.372 L-238.829 245.372 L-238.011 245.372 L-237.193 245.372 L-236.375 245.372 L-235.557 245.372 L-234.739 245.372 L-233.921 245.372 L-233.103 245.372 L-232.286 245.372 L-231.468 245.372 L-230.65 245.372 L-229.832 245.372 L-229.014 245.372 L-228.196 245.372 L-227.378 245.372 L-226.56 245.372 L-225.742 245.372 L-224.924 245.372 L-224.107 245.372 L-223.289 245.372 L-222.471 245.372 L-221.653 245.372 L-220.835 245.372 L-220.017 245.372 L-219.199 245.372 L-218.381 245.372 L-217.563 245.372 L-216.745 245.372 L-215.927 245.372 L-215.11 245.372 L-214.292 245.372 L-213.474 245.372 L-212.656 245.372 L-211.838 245.372 L-211.02 245.372 L-210.202 245.372 L-209.384 245.372 L-208.566 245.372 L-207.748 245.372 L-206.93 245.372 L-206.113 245.372 L-205.295 245.372 L-204.477 245.372 L-203.659 245.372 L-202.841 245.372 L-202.023 245.372 L-201.205 245.372 L-200.387 245.372 L-199.569 245.372 L-198.751 245.372 L-197.933 245.372 L-197.116 245.372 L-196.298 245.372 L-195.48 245.372 L-194.662 245.372 L-193.844 245.372 L-193.026 245.372 L-192.208 245.372 L-191.39 245.372 L-190.572 245.372 L-189.754 245.372 L-188.936 245.372 L-188.119 245.372 L-187.301 245.372 L-186.483 245.372 L-185.665 245.372 L-184.847 245.372 L-184.029 245.372 L-183.211 245.372 L-182.393 245.372 L-181.575 245.372 L-180.757 245.372 L-179.94 245.372 L-179.122 245.372 L-178.304 245.372 L-177.486 245.372 L-176.668 245.372 L-175.85 245.372 L-175.032 245.372 L-174.214 245.372 L-173.396 245.372 L-172.578 245.372 L-171.76 245.372 L-170.943 245.372 L-170.125 245.372 L-169.307 245.372 L-168.489 245.372 L-167.671 245.372 L-166.853 245.372 L-166.035 245.372 L-165.217 245.372 L-164.399 245.372 L-163.581 245.372 L-162.763 245.372 L-161.946 245.372 L-161.128 245.372 L-160.31 245.372 L-159.492 245.372 L-158.674 245.372 L-157.856 245.372 L-157.038 245.372 L-156.22 245.372 L-155.402 245.372 L-154.584 245.372 L-153.767 245.372 L-152.949 245.372 L-152.131 245.372 L-151.313 245.372 L-150.495 245.372 L-149.677 245.372 L-148.859 245.372 L-148.041 245.372 L-147.223 245.372 L-146.405 245.372 L-145.587 245.372 L-144.77 245.372 L-143.952 245.372 L-143.134 245.372 L-142.316 245.372 L-141.498 245.372 L-140.68 245.372 L-139.862 245.372 L-139.044 245.372 L-138.226 245.372 L-137.408 245.372 L-136.59 245.372 L-135.773 245.372 L-134.955 245.372 L-134.137 245.372 L-133.319 245.372 L-132.501 245.372 L-131.683 245.372 L-130.865 245.372 L-130.047 245.372 L-129.229 245.372 L-128.411 245.372 L-127.593 245.372 L-126.776 245.372 L-125.958 245.372 L-125.14 245.372 L-124.322 245.372 L-123.504 245.372 L-122.686 245.372 L-121.868 245.372 L-121.05 245.372 L-120.232 245.372 L-119.414 245.372 L-118.597 245.372 L-117.779 245.372 L-116.961 245.372 L-116.143 245.372 L-115.325 245.372 L-114.507 245.372 L-113.689 245.372 L-112.871 245.372 L-112.053 245.372 L-111.235 245.372 L-110.417 245.372 L-109.6 245.372 L-108.782 245.372 L-107.964 245.372 L-107.146 245.372 L-106.328 245.372 L-105.51 245.372 L-104.692 245.372 L-103.874 245.372 L-103.056 245.372 L-102.238 245.372 L-101.42 245.372 L-100.603 245.372 L-99.7846 245.372 L-98.9667 245.372 L-98.1488 245.372 L-97.3309 245.372 L-96.513 245.372 L-95.6951 245.372 L-94.8772 245.372 L-94.0593 245.372 L-93.2414 245.372 L-92.4235 245.372 L-91.6056 245.372 L-90.7877 245.372 L-89.9698 245.372 L-89.1518 245.372 L-88.3339 245.372 L-87.516 245.372 L-86.6981 245.372 L-85.8802 245.372 L-85.0623 245.372 L-84.2444 245.372 L-83.4265 245.372 L-82.6086 245.372 L-81.7907 245.372 L-80.9728 245.372 L-80.1549 245.372 L-79.337 245.372 L-78.5191 245.372 L-77.7011 245.372 L-76.8833 245.372 L-76.0653 245.372 L-75.2474 245.372 L-74.4295 245.372 L-73.6116 245.372 L-72.7937 245.372 L-71.9758 245.372 L-71.1579 245.372 L-70.34 245.372 L-69.5221 245.372 L-68.7042 245.372 L-67.8863 245.372 L-67.0684 245.372 L-66.2505 245.372 L-65.4326 245.372 L-64.6146 245.372 L-63.7967 245.372 L-62.9788 245.372 L-62.1609 245.372 L-61.343 245.372 L-60.5251 245.372 L-59.7072 245.372 L-58.8893 245.372 L-58.0714 245.372 L-57.2535 245.372 L-56.4356 245.372 L-55.6177 245.372 L-54.7998 245.372 L-53.9819 245.372 L-53.1639 245.372 L-52.346 245.372 L-51.5281 245.372 L-50.7102 245.372 L-49.8923 245.372 L-49.0744 245.372 L-48.2565 245.372 L-47.4386 245.372 L-46.6207 245.372 L-45.8028 245.372 L-44.9849 245.372 L-44.167 245.372 L-43.3491 245.372 L-42.5312 245.372 L-41.7133 245.372 L-40.8953 245.372 L-40.0774 245.372 L-39.2595 245.372 L-38.4416 245.372 L-37.6237 245.372 L-36.8058 245.372 L-35.9879 245.372 L-35.17 245.372 L-34.3521 245.372 L-33.5342 245.372 L-32.7163 245.372 L-31.8984 245.372 L-31.0805 245.372 L-30.2626 245.372 L-29.4446 245.372 L-28.6267 245.372 L-27.8088 245.372 L-26.9909 245.372 L-26.173 245.372 L-25.3551 245.372 L-24.5372 245.372 L-23.7193 245.372 L-22.9014 245.372 L-22.0835 245.372 L-21.2656 245.372 L-20.4477 245.372 L-19.6298 245.372 L-18.8118 245.372 L-17.994 245.372 L-17.176 245.372 L-16.3581 245.372 L-15.5402 245.372 L-14.7223 245.372 L-13.9044 245.372 L-13.0865 245.372 L-12.2686 245.372 L-11.4507 245.372 L-10.6328 245.372 L-9.81488 245.372 L-8.99696 245.372 L-8.17906 245.372 L-7.36116 245.372 L-6.54325 245.372 L-5.72534 245.372 L-4.90744 245.372 L-4.08953 245.372 L-3.27162 245.372 L-2.45372 245.372 L-1.63581 245.372 L-0.8179 245.372 L0 245.372 L0.8179 245.372 L1.63581 245.372 L2.45372 245.372 L3.27162 245.372 L4.08953 245.372 L4.90744 245.372 L5.72534 245.372 L6.54325 245.372 L7.36116 245.372 L8.17906 245.372 L8.99696 245.372 L9.81488 245.372 L10.6328 245.372 L11.4507 245.372 L12.2686 245.372 L13.0865 245.372 L13.9044 245.372 L14.7223 245.372 L15.5402 245.372 L16.3581 245.372 L17.176 245.372 L17.994 245.372 L18.8118 245.372 L19.6298 245.372 L20.4477 245.372 L21.2656 245.372 L22.0835 245.372 L22.9014 245.372 L23.7193 245.372 L24.5372 245.372 L25.3551 245.372 L26.173 245.372 L26.9909 245.372 L27.8088 245.372 L28.6267 245.372 L29.4446 245.372 L30.2626 245.372 L31.0805 245.372 L31.8984 245.372 L32.7163 245.372 L33.5342 245.372 L34.3521 245.372 L35.17 245.372 L35.9879 245.372 L36.8058 245.372 L37.6237 245.372 L38.4416 245.372 L39.2595 245.372 L40.0774 245.372 L40.8953 245.372 L41.7133 245.372 L42.5312 245.372 L43.3491 245.372 L44.167 245.372 L44.9849 245.372 L45.8028 245.372 L46.6207 245.372 L47.4386 245.372 L48.2565 245.372 L49.0744 245.372 L49.8923 245.372 L50.7102 245.372 L51.5281 245.372 L52.346 245.372 L53.1639 245.372 L53.9819 245.372 L54.7998 245.372 L55.6177 245.372 L56.4356 245.372 L57.2535 245.372 L58.0714 245.372 L58.8893 245.372 L59.7072 245.372 L60.5251 245.372 L61.343 245.372 L62.1609 245.372 L62.9788 245.372 L63.7967 245.372 L64.6146 245.372 L65.4326 245.372 L66.2505 245.372 L67.0684 245.372 L67.8863 245.372 L68.7042 245.372 L69.5221 245.372 L70.34 245.372 L71.1579 245.372 L71.9758 245.372 L72.7937 245.372 L73.6116 245.372 L74.4295 245.372 L75.2474 245.372 L76.0653 245.372 L76.8833 245.372 L77.7011 245.372 L78.5191 245.372 L79.337 245.372 L80.1549 245.372 L80.9728 245.372 L81.7907 245.372 L82.6086 245.372 L83.4265 245.372 L84.2444 245.372 L85.0623 245.372 L85.8802 245.372 L86.6981 245.372 L87.516 245.372 L88.3339 245.372 L89.1518 245.372 L89.9698 245.372 L90.7877 245.372 L91.6056 245.372 L92.4235 245.372 L93.2414 245.372 L94.0593 245.372 L94.8772 245.372 L95.6951 245.372 L96.513 245.372 L97.3309 245.372 L98.1488 245.372 L98.9667 245.372 L99.7846 245.372 L100.603 245.372 L101.42 245.372 L102.238 245.372 L103.056 245.372 L103.874 245.372 L104.692 245.372 L105.51 245.372 L106.328 245.372 L107.146 245.372 L107.964 245.372 L108.782 245.372 L109.6 245.372 L110.417 245.372 L111.235 245.372 L112.053 245.372 L112.871 245.372 L113.689 245.372 L114.507 245.372 L115.325 245.372 L116.143 245.372 L116.961 245.372 L117.779 245.372 L118.597 245.372 L119.414 245.372 L120.232 245.372 L121.05 245.372 L121.868 245.372 L122.686 245.372 L123.504 245.372 L124.322 245.372 L125.14 245.372 L125.958 245.372 L126.776 245.372 L127.593 245.372 L128.411 245.372 L129.229 245.372 L130.047 245.372 L130.865 245.372 L131.683 245.372 L132.501 245.372 L133.319 245.372 L134.137 245.372 L134.955 245.372 L135.773 245.372 L136.59 245.372 L137.408 245.372 L138.226 245.372 L139.044 245.372 L139.862 245.372 L140.68 245.372 L141.498 245.372 L142.316 245.372 L143.134 245.372 L143.952 245.372 L144.77 245.372 L145.587 245.372 L146.405 245.372 L147.223 245.372 L148.041 245.372 L148.859 245.372 L149.677 245.372 L150.495 245.372 L151.313 245.372 L152.131 245.372 L152.949 245.372 L153.767 245.372 L154.584 245.372 L155.402 245.372 L156.22 245.372 L157.038 245.372 L157.856 245.372 L158.674 245.372 L159.492 245.372 L160.31 245.372 L161.128 245.372 L161.946 245.372 L162.763 245.372 L163.581 245.372 L164.399 245.372 L165.217 245.372 L166.035 245.372 L166.853 245.372 L167.671 245.372 L168.489 245.372 L169.307 245.372 L170.125 245.372 L170.943 245.372 L171.76 245.372 L172.578 245.372 L173.396 245.372 L174.214 245.372 L175.032 245.372 L175.85 245.372 L176.668 245.372 L177.486 245.372 L178.304 245.372 L179.122 245.372 L179.94 245.372 L180.757 245.372 L181.575 245.372 L182.393 245.372 L183.211 245.372 L184.029 245.372 L184.847 245.372 L185.665 245.372 L186.483 245.372 L187.301 245.372 L188.119 245.372 L188.936 245.372 L189.754 245.372 L190.572 245.372 L191.39 245.372 L192.208 245.372 L193.026 245.372 L193.844 245.372 L194.662 245.372 L195.48 245.372 L196.298 245.372 L197.116 245.372 L197.933 245.372 L198.751 245.372 L199.569 245.372 L200.387 245.372 L201.205 245.372 L202.023 245.372 L202.841 245.372 L203.659 245.372 L204.477 245.372 L205.295 245.372 L206.113 245.372 L206.93 245.372 L207.748 245.372 L208.566 245.372 L209.384 245.372 L210.202 245.372 L211.02 245.372 L211.838 245.372 L212.656 245.372 L213.474 245.372 L214.292 245.372 L215.11 245.372 L215.927 245.372 L216.745 245.372 L217.563 245.372 L218.381 245.372 L219.199 245.372 L220.017 245.372 L220.835 245.372 L221.653 245.372 L222.471 245.372 L223.289 245.372 L224.107 245.372 L224.924 245.372 L225.742 245.372 L226.56 245.372 L227.378 245.372 L228.196 245.372 L229.014 245.372 L229.832 245.372 L230.65 245.372 L231.468 245.372 L232.286 245.372 L233.103 245.372 L233.921 245.372 L234.739 245.372 L235.557 245.372 L236.375 245.372 L237.193 245.372 L238.011 245.372 L238.829 245.372 L239.647 245.372 L240.465 245.372 L241.283 245.372 L242.1 245.372 L242.918 245.372 L243.736 245.372 L244.554 245.372 L245.372 245.372 L245.372 244.554 Z M162.763 163.581 L161.946 163.581 L161.128 163.581 L160.31 163.581 L159.492 163.581 L158.674 163.581 L157.856 163.581 L157.038 163.581 L156.22 163.581 L155.402 163.581 L154.584 163.581 L153.767 163.581 L152.949 163.581 L152.131 163.581 L151.313 163.581 L150.495 163.581 L149.677 163.581 L148.859 163.581 L148.041 163.581 L147.223 163.581 L146.405 163.581 L145.587 163.581 L144.77 163.581 L143.952 163.581 L143.134 163.581 L142.316 163.581 L141.498 163.581 L140.68 163.581 L139.862 163.581 L139.044 163.581 L138.226 163.581 L137.408 163.581 L136.59 163.581 L135.773 163.581 L134.955 163.581 L134.137 163.581 L133.319 163.581 L132.501 163.581 L131.683 163.581 L130.865 163.581 L130.047 163.581 L129.229 163.581 L128.411 163.581 L127.593 163.581 L126.776 163.581 L125.958 163.581 L125.14 163.581 L124.322 163.581 L123.504 163.581 L122.686 163.581 L121.868 163.581 L121.05 163.581 L120.232 163.581 L119.414 163.581 L118.597 163.581 L117.779 163.581 L116.961 163.581 L116.143 163.581 L115.325 163.581 L114.507 163.581 L113.689 163.581 L112.871 163.581 L112.053 163.581 L111.235 163.581 L110.417 163.581 L109.6 163.581 L108.782 163.581 L107.964 163.581 L107.146 163.581 L106.328 163.581 L105.51 163.581 L104.692 163.581 L103.874 163.581 L103.056 163.581 L102.238 163.581 L101.42 163.581 L100.603 163.581 L99.7846 163.581 L98.9667 163.581 L98.1488 163.581 L97.3309 163.581 L96.513 163.581 L95.6951 163.581 L94.8772 163.581 L94.0593 163.581 L93.2414 163.581 L92.4235 163.581 L91.6056 163.581 L90.7877 163.581 L89.9698 163.581 L89.1518 163.581 L88.3339 163.581 L87.516 163.581 L86.6981 163.581 L85.8802 163.581 L85.0623 163.581 L84.2444 163.581 L83.4265 163.581 L82.6086 163.581 L81.7907 163.581 L80.9728 163.581 L80.1549 163.581 L79.337 163.581 L78.5191 163.581 L77.7011 163.581 L76.8833 163.581 L76.0653 163.581 L75.2474 163.581 L74.4295 163.581 L73.6116 163.581 L72.7937 163.581 L71.9758 163.581 L71.1579 163.581 L70.34 163.581 L69.5221 163.581 L68.7042 163.581 L67.8863 163.581 L67.0684 163.581 L66.2505 163.581 L65.4326 163.581 L64.6146 163.581 L63.7967 163.581 L62.9788 163.581 L62.1609 163.581 L61.343 163.581 L60.5251 163.581 L59.7072 163.581 L58.8893 163.581 L58.0714 163.581 L57.2535 163.581 L56.4356 163.581 L55.6177 163.581 L54.7998 163.581 L53.9819 163.581 L53.1639 163.581 L52.346 163.581 L51.5281 163.581 L50.7102 163.581 L49.8923 163.581 L49.0744 163.581 L48.2565 163.581 L47.4386 163.581 L46.6207 163.581 L45.8028 163.581 L44.9849 163.581 L44.167 163.581 L43.3491 163.581 L42.5312 163.581 L41.7133 163.581 L40.8953 163.581 L40.0774 163.581 L39.2595 163.581 L38.4416 163.581 L37.6237 163.581 L36.8058 163.581 L35.9879 163.581 L35.17 163.581 L34.3521 163.581 L33.5342 163.581 L32.7163 163.581 L31.8984 163.581 L31.0805 163.581 L30.2626 163.581 L29.4446 163.581 L28.6267 163.581 L27.8088 163.581 L26.9909 163.581 L26.173 163.581 L25.3551 163.581 L24.5372 163.581 L23.7193 163.581 L22.9014 163.581 L22.0835 163.581 L21.2656 163.581 L20.4477 163.581 L19.6298 163.581 L18.8118 163.581 L17.994 163.581 L17.176 163.581 L16.3581 163.581 L15.5402 163.581 L14.7223 163.581 L13.9044 163.581 L13.0865 163.581 L12.2686 163.581 L11.4507 163.581 L10.6328 163.581 L9.81488 163.581 L8.99696 163.581 L8.17906 163.581 L7.36116 163.581 L6.54325 163.581 L5.72534 163.581 L4.90744 163.581 L4.08953 163.581 L3.27162 163.581 L2.45372 163.581 L1.63581 163.581 L0.8179 163.581 L0 163.581 L0 162.763 L0 161.946 L0 161.128 L0 160.31 L0 159.492 L0 158.674 L0 157.856 L0 157.038 L0 156.22 L0 155.402 L0 154.584 L0 153.767 L0 152.949 L0 152.131 L0 151.313 L0 150.495 L0 149.677 L0 148.859 L0 148.041 L0 147.223 L0 146.405 L0 145.587 L0 144.77 L0 143.952 L0 143.134 L0 142.316 L0 141.498 L0 140.68 L0 139.862 L0 139.044 L0 138.226 L0 137.408 L0 136.59 L0 135.773 L0 134.955 L0 134.137 L0 133.319 L0 132.501 L0 131.683 L0 130.865 L0 130.047 L0 129.229 L0 128.411 L0 127.593 L0 126.776 L0 125.958 L0 125.14 L0 124.322 L0 123.504 L0 122.686 L0 121.868 L0 121.05 L0 120.232 L0 119.414 L0 118.597 L0 117.779 L0 116.961 L0 116.143 L0 115.325 L0 114.507 L0 113.689 L0 112.871 L0 112.053 L0 111.235 L0 110.417 L0 109.6 L0 108.782 L0 107.964 L0 107.146 L0 106.328 L0 105.51 L0 104.692 L0 103.874 L0 103.056 L0 102.238 L0 101.42 L0 100.603 L0 100 L-1 100 L-2 100 L-3 100 L-4 100 L-5 100 L-6 100 L-7 100 L-8 100 L-9 100 L-10 100 L-11 100 L-12 100 L-13 100 L-14 100 L-15 100 L-16 100 L-17 100 L-18 100 L-19 100 L-20 100 L-21 100 L-22 100 L-23 100 L-24 100 L-25 100 L-26 100 L-27 100 L-28 100 L-29 100 L-30 100 L-31 100 L-32 100 L-33 100 L-34 100 L-35 100 L-36 100 L-37 100 L-38 100 L-39 100 L-40 100 L-41 100 L-42 100 L-43 100 L-44 100 L-45 100 L-46 100 L-47 100 L-48 100 L-49 100 L-50 100 L-51 100 L-52 100 L-53 100 L-54 100 L-55 100 L-56 100 L-57 100 L-58 100 L-59 100 L-60 100 L-61 100 L-62 100 L-63 100 L-64 100 L-65 100 L-66 100 L-67 100 L-68 100 L-69 100 L-70 100 L-71 100 L-72 100 L-73 100 L-74 100 L-75 100 L-76 100 L-77 100 L-78 100 L-79 100 L-80 100 L-81 100 L-82 100 L-83 100 L-84 100 L-85 100 L-86 100 L-87 100 L-88 100 L-89 100 L-90 100 L-91 100 L-92 100 L-93 100 L-94 100 L-95 100 L-96 100 L-97 100 L-98 100 L-99 100 L-100 100 L-100 99 L-100 98 L-100 97 L-100 96 L-100 95 L-100 94 L-100 93 L-100 92 L-100 91 L-100 90 L-100 89 L-100 88 L-100 87 L-100 86 L-100 85 L-100 84 L-100 83 L-100 82 L-100 81 L-100 80 L-100 79 L-100 78 L-100 77 L-100 76 L-100 75 L-100 74 L-100 73 L-100 72 L-100 71 L-100 70 L-100 69 L-100 68 L-100 67 L-100 66 L-100 65 L-100 64 L-100 63 L-100 62 L-100 61 L-100 60 L-100 59 L-100 58 L-100 57 L-100 56 L-100 55 L-100 54 L-100 53 L-100 52 L-100 51 L-100 50 L-100 49 L-100 48 L-100 47 L-100 46 L-100 45 L-100 44 L-100 43 L-100 42 L-100 41 L-100 40 L-100 39 L-100 38 L-100 37 L-100 36 L-100 35 L-100 34 L-100 33 L-100 32 L-100 31 L-100 30 L-100 29 L-100 28 L-100 27 L-100 26 L-100 25 L-100 24 L-100 23 L-100 22 L-100 21 L-100 20 L-100 19 L-100 18 L-100 17 L-100 16 L-100 15 L-100 14 L-100 13 L-100 12 L-100 11 L-100 10 L-100 8.99999 L-100 8 L-100 6.99999 L-100 6 L-100 5 L-100 4 L-100 3 L-100 2 L-100 1 L-100 0 L-100 -1 L-100 -2 L-100 -3 L-100 -4 L-100 -5 L-100 -6 L-100 -7 L-100 -8 L-100 -9 L-100 -10 L-100 -11 L-100 -12 L-100 -13 L-100 -14 L-100 -15 L-100 -16 L-100 -17 L-100 -18 L-100 -19 L-100 -20 L-100 -21 L-100 -22 L-100 -23 L-100 -24 L-100 -25 L-100 -26 L-100 -27 L-100 -28 L-100 -29 L-100 -30 L-100 -31 L-100 -32 L-100 -33 L-100 -34 L-100 -35 L-100 -36 L-100 -37 L-100 -38 L-100 -39 L-100 -40 L-100 -41 L-100 -42 L-100 -43 L-100 -44 L-100 -45 L-100 -46 L-100 -47 L-100 -48 L-100 -49 L-100 -50 L-100 -51 L-100 -52 L-100 -53 L-100 -54 L-100 -55 L-100 -56 L-100 -57 L-100 -58 L-100 -59 L-100 -60 L-100 -61 L-100 -62 L-100 -63 L-100 -64 L-100 -65 L-100 -66 L-100 -67 L-100 -68 L-100 -69 L-100 -70 L-100 -71 L-100 -72 L-100 -73 L-100 -74 L-100 -75 L-100 -76 L-100 -77 L-100 -78 L-100 -79 L-100 -80 L-100 -81 L-100 -82 L-100 -83 L-100 -84 L-100 -85 L-100 -86 L-100 -87 L-100 -88 L-100 -89 L-100 -90 L-100 -91 L-100 -92 L-100 -93 L-100 -94 L-100 -95 L-100 -96 L-100 -97 L-100 -98 L-100 -99 L-100 -100 L-99 -100 L-98 -100 L-97 -100 L-96 -100 L-95 -100 L-94 -100 L-93 -100 L-92 -100 L-91 -100 L-90 -100 L-89 -100 L-88 -100 L-87 -100 L-86 -100 L-85 -100 L-84 -100 L-83 -100 L-82 -100 L-81 -100 L-80 -100 L-79 -100 L-78 -100 L-77 -100 L-76 -100 L-75 -100 L-74 -100 L-73 -100 L-72 -100 L-71 -100 L-70 -100 L-69 -100 L-68 -100 L-67 -100 L-66 -100 L-65 -100 L-64 -100 L-63 -100 L-62 -100 L-61 -100 L-60 -100 L-59 -100 L-58 -100 L-57 -100 L-56 -100 L-55 -100 L-54 -100 L-53 -100 L-52 -100 L-51 -100 L-50 -100 L-49 -100 L-48 -100 L-47 -100 L-46 -100 L-45 -100 L-44 -100 L-43 -100 L-42 -100 L-41 -100 L-40 -100 L-39 -100 L-38 -100 L-37 -100 L-36 -100 L-35 -100 L-34 -100 L-33 -100 L-32 -100 L-31 -100 L-30 -100 L-29 -100 L-28 -100 L-27 -100 L-26 -100 L-25 -100 L-24 -100 L-23 -100 L-22 -100 L-21 -100 L-20 -100 L-19 -100 L-18 -100 L-17 -100 L-16 -100 L-15 -100 L-14 -100 L-13 -100 L-12 -100 L-11 -100 L-10 -100 L-8.99999 -100 L-8 -100 L-6.99999 -100 L-6 -100 L-5 -100 L-4 -100 L-3 -100 L-2 -100 L-1 -100 L0 -100 L1 -100 L2 -100 L3 -100 L4 -100 L5 -100 L6 -100 L7 -100 L8 -100 L9 -100 L10 -100 L11 -100 L12 -100 L13 -100 L14 -100 L15 -100 L16 -100 L17 -100 L18 -100 L19 -100 L20 -100 L21 -100 L22 -100 L23 -100 L24 -100 L25 -100 L26 -100 L27 -100 L28 -100 L29 -100 L30 -100 L31 -100 L32 -100 L33 -100 L34 -100 L35 -100 L36 -100 L37 -100 L38 -100 L39 -100 L40 -100 L41 -100 L42 -100 L43 -100 L44 -100 L45 -100 L46 -100 L47 -100 L48 -100 L49 -100 L50 -100 L51 -100 L52 -100 L53 -100 L54 -100 L55 -100 L56 -100 L57 -100 L58 -100 L59 -100 L60 -100 L61 -100 L62 -100 L63 -100 L64 -100 L65 -100 L66 -100 L67 -100 L68 -100 L69 -100 L70 -100 L71 -100 L72 -100 L73 -100 L74 -100 L75 -100 L76 -100 L77 -100 L78 -100 L79 -100 L80 -100 L81 -100 L82 -100 L83 -100 L84 -100 L85 -100 L86 -100 L87 -100 L88 -100 L89 -100 L90 -100 L91 -100 L92 -100 L93 -100 L94 -100 L95 -100 L96 -100 L97 -100 L98 -100 L99 -100 L100 -100 L100 -99 L100 -98 L100 -97 L100 -96 L100 -95 L100 -94 L100 -93 L100 -92 L100 -91 L100 -90 L100 -89 L100 -88 L100 -87 L100 -86 L100 -85 L100 -84 L100 -83 L100 -82 L100 -81 L100 -80 L100 -79 L100 -78 L100 -77 L100 -76 L100 -75 L100 -74 L100 -73 L100 -72 L100 -71 L100 -70 L100 -69 L100 -68 L100 -67 L100 -66 L100 -65 L100 -64 L100 -63 L100 -62 L100 -61 L100 -60 L100 -59 L100 -58 L100 -57 L100 -56 L100 -55 L100 -54 L100 -53 L100 -52 L100 -51 L100 -50 L100 -49 L100 -48 L100 -47 L100 -46 L100 -45 L100 -44 L100 -43 L100 -42 L100 -41 L100 -40 L100 -39 L100 -38 L100 -37 L100 -36 L100 -35 L100 -34 L100 -33 L100 -32 L100 -31 L100 -30 L100 -29 L100 -28 L100 -27 L100 -26 L100 -25 L100 -24 L100 -23 L100 -22 L100 -21 L100 -20 L100 -19 L100 -18 L100 -17 L100 -16 L100 -15 L100 -14 L100 -13 L100 -12 L100 -11 L100 -10 L100 -8.99999 L100 -8 L100 -6.99999 L100 -6 L100 -5 L100 -4 L100 -3 L100 -2 L100 -1 L100 0 L100.603 0 L101.42 0 L102.238 0 L103.056 0 L103.874 0 L104.692 0 L105.51 0 L106.328 0 L107.146 0 L107.964 0 L108.782 0 L109.6 0 L110.417 0 L111.235 0 L112.053 0 L112.871 0 L113.689 0 L114.507 0 L115.325 0 L116.143 0 L116.961 0 L117.779 0 L118.597 0 L119.414 0 L120.232 0 L121.05 0 L121.868 0 L122.686 0 L123.504 0 L124.322 0 L125.14 0 L125.958 0 L126.776 0 L127.593 0 L128.411 0 L129.229 0 L130.047 0 L130.865 0 L131.683 0 L132.501 0 L133.319 0 L134.137 0 L134.955 0 L135.773 0 L136.59 0 L137.408 0 L138.226 0 L139.044 0 L139.862 0 L140.68 0 L141.498 0 L142.316 0 L143.134 0 L143.952 0 L144.77 0 L145.587 0 L146.405 0 L147.223 0 L148.041 0 L148.859 0 L149.677 0 L150.495 0 L151.313 0 L152.131 0 L152.949 0 L153.767 0 L154.584 0 L155.402 0 L156.22 0 L157.038 0 L157.856 0 L158.674 0 L159.492 0 L160.31 0 L161.128 0 L161.946 0 L162.763 0 L163.581 0 L163.581 0.8179 L163.581 1.63581 L163.581 2.45372 L163.581 3.27162 L163.581 4.08953 L163.581 4.90744 L163.581 5.72534 L163.581 6.54325 L163.581 7.36116 L163.581 8.17906 L163.581 8.99696 L163.581 9.81488 L163.581 10.6328 L163.581 11.4507 L163.581 12.2686 L163.581 13.0865 L163.581 13.9044 L163.581 14.7223 L163.581 15.5402 L163.581 16.3581 L163.581 17.176 L163.581 17.994 L163.581 18.8118 L163.581 19.6298 L163.581 20.4477 L163.581 21.2656 L163.581 22.0835 L163.581 22.9014 L163.581 23.7193 L163.581 24.5372 L163.581 25.3551 L163.581 26.173 L163.581 26.9909 L163.581 27.8088 L163.581 28.6267 L163.581 29.4446 L163.581 30.2626 L163.581 31.0805 L163.581 31.8984 L163.581 32.7163 L163.581 33.5342 L163.581 34.3521 L163.581 35.17 L163.581 35.9879 L163.581 36.8058 L163.581 37.6237 L163.581 38.4416 L163.581 39.2595 L163.581 40.0774 L163.581 40.8953 L163.581 41.7133 L163.581 42.5312 L163.581 43.3491 L163.581 44.167 L163.581 44.9849 L163.581 45.8028 L163.581 46.6207 L163.581 47.4386 L163.581 48.2565 L163.581 49.0744 L163.581 49.8923 L163.581 50.7102 L163.581 51.5281 L163.581 52.346 L163.581 53.1639 L163.581 53.9819 L163.581 54.7998 L163.581 55.6177 L163.581 56.4356 L163.581 57.2535 L163.581 58.0714 L163.581 58.8893 L163.581 59.7072 L163.581 60.5251 L163.581 61.343 L163.581 62.1609 L163.581 62.9788 L163.581 63.7967 L163.581 64.6146 L163.581 65.4326 L163.581 66.2505 L163.581 67.0684 L163.581 67.8863 L163.581 68.7042 L163.581 69.5221 L163.581 70.34 L163.581 71.1579 L163.581 71.9758 L163.581 72.7937 L163.581 73.6116 L163.581 74.4295 L163.581 75.2474 L163.581 76.0653 L163.581 76.8833 L163.581 77.7011 L163.581 78.5191 L163.581 79.337 L163.581 80.1549 L163.581 80.9728 L163.581 81.7907 L163.581 82.6086 L163.581 83.4265 L163.581 84.2444 L163.581 85.0623 L163.581 85.8802 L163.581 86.6981 L163.581 87.516 L163.581 88.3339 L163.581 89.1518 L163.581 89.9698 L163.581 90.7877 L163.581 91.6056 L163.581 92.4235 L163.581 93.2414 L163.581 94.0593 L163.581 94.8772 L163.581 95.6951 L163.581 96.513 L163.581 97.3309 L163.581 98.1488 L163.581 98.9667 L163.581 99.7846 L163.581 100.603 L163.581 101.42 L163.581 102.238 L163.581 103.056 L163.581 103.874 L163.581 104.692 L163.581 105.51 L163.581 106.328 L163.581 107.146 L163.581 107.964 L163.581 108.782 L163.581 109.6 L163.581 110.417 L163.581 111.235 L163.581 112.053 L163.581 112.871 L163.581 113.689 L163.581 114.507 L163.581 115.325 L163.581 116.143 L163.581 116.961 L163.581 117.779 L163.581 118.597 L163.581 119.414 L163.581 120.232 L163.581 121.05 L163.581 121.868 L163.581 122.686 L163.581 123.504 L163.581 124.322 L163.581 125.14 L163.581 125.958 L163.581 126.776 L163.581 127.593 L163.581 128.411 L163.581 129.229 L163.581 130.047 L163.581 130.865 L163.581 131.683 L163.581 132.501 L163.581 133.319 L163.581 134.137 L163.581 134.955 L163.581 135.773 L163.581 136.59 L163.581 137.408 L163.581 138.226 L163.581 139.044 L163.581 139.862 L163.581 140.68 L163.581 141.498 L163.581 142.316 L163.581 143.134 L163.581 143.952 L163.581 144.77 L163.581 145.587 L163.581 146.405 L163.581 147.223 L163.581 148.041 L163.581 148.859 L163.581 149.677 L163.581 150.495 L163.581 151.313 L163.581 152.131 L163.581 152.949 L163.581 153.767 L163.581 154.584 L163.581 155.402 L163.581 156.22 L163.581 157.038 L163.581 157.856 L163.581 158.674 L163.581 159.492 L163.581 160.31 L163.581 161.128 L163.581 161.946 L163.581 162.763 L163.581 163.581 L162.763 163.581 Z M-13.2966 245.372 L-62.1739 196.822 L-62.4134 196.584 L-63.1227 195.879 L-63.832 195.175 L-64.087 194.921 L-70.789 188.264 L-70.9248 188.129 L-71.6341 187.425 L-72.3434 186.72 L-72.5823 186.483 L-84.1101 175.032 L-84.4012 174.743 L-85.1105 174.038 L-85.8198 173.334 L-86.5291 172.629 L-87.2383 171.925 L-87.9476 171.22 L-88.6569 170.516 L-89.0306 170.144 L-92.8083 166.392 L-92.9126 166.288 L-93.6219 165.584 L-94.3312 164.879 L-94.8144 164.399 L-96.1277 163.095 L-96.459 162.766 L-97.1683 162.061 L-97.2847 161.946 L-100.61 158.643 L-100.715 158.538 L-101.424 157.834 L-102.133 157.129 L-102.843 156.425 L-103.552 155.72 L-104.261 155.016 L-104.97 154.311 L-105.368 153.917 L-109.935 149.379 L-110.645 148.675 L-110.843 148.478 L-112.016 147.313 L-112.063 147.266 L-112.773 146.561 L-113.482 145.857 L-114.191 145.152 L-114.9 144.448 L-115.61 143.743 L-116.319 143.039 L-117.028 142.334 L-117.738 141.629 L-118.447 140.925 L-119.156 140.22 L-119.865 139.516 L-120.575 138.811 L-121.284 138.107 L-121.704 137.689 L-125.462 133.957 L-125.54 133.88 L-126.249 133.175 L-126.958 132.47 L-127.668 131.766 L-128.377 131.061 L-129.086 130.357 L-129.398 130.047 L-133.202 126.268 L-133.342 126.13 L-134.051 125.425 L-134.76 124.72 L-135.47 124.016 L-136.179 123.311 L-136.888 122.607 L-137.48 122.019 L-138.049 121.454 L-138.307 121.198 L-138.455 121.05 L-148.106 111.464 L-148.237 111.334 L-148.684 110.89 L-150.806 108.782 L-151.074 108.516 L-151.783 107.811 L-152.492 107.107 L-153.202 106.402 L-153.911 105.698 L-154.62 104.993 L-154.787 104.828 L-160.654 99 L-162.334 97.3309 L-162.422 97.2434 L-162.615 97.0519 L-166.451 93.2414 L-166.678 93.0161 L-167.387 92.3116 L-168.097 91.6071 L-168.708 91 L-169.745 89.9698 L-170.225 89.4934 L-170.934 88.7889 L-174.34 85.406 L-174.48 85.2662 L-175.19 84.5617 L-175.899 83.8571 L-176.608 83.1526 L-177.156 82.6086 L-178.524 81.2493 L-178.736 81.0389 L-178.775 81 L-184.248 75.5633 L-184.41 75.4026 L-185.119 74.6981 L-185.829 73.9935 L-186.538 73.289 L-186.829 73 L-191.977 67.8863 L-192.212 67.6527 L-192.922 66.9481 L-193.631 66.2436 L-194.34 65.5391 L-194.447 65.4326 L-198.506 61.4015 L-200.211 59.7072 L-200.724 59.1982 L-201.433 58.4936 L-202.142 57.7891 L-202.852 57.0846 L-203.561 56.38 L-205.957 54 L-217.037 42.9937 L-217.747 42.2892 L-218.456 41.5847 L-219.165 40.8801 L-222.926 37.1444 L-223.421 36.6529 L-224.13 35.9483 L-224.437 35.643 L-225.528 34.56 L-225.549 34.5393 L-226.258 33.8347 L-226.967 33.1302 L-227.384 32.7163 L-230.118 30 L-230.356 29.7642 L-232.641 27.4938 L-233.351 26.7893 L-234.06 26.0848 L-234.769 25.3802 L-235.479 24.6757 L-236.188 23.9711 L-236.772 23.3906 L-240.186 20 L-240.444 19.7439 L-241.153 19.0393 L-241.862 18.3348 L-242.571 17.6303 L-243.281 16.9257 L-243.99 16.2212 L-244.213 16 L-245.372 14.8483 L-244.699 15.5166 L-244.213 16 L-240.186 20 L-239.734 20.4484 L-239.025 21.153 L-238.316 21.8575 L-237.606 22.562 L-236.897 23.2666 L-236.772 23.3906 L-232.641 27.4938 L-231.932 28.1984 L-231.223 28.9029 L-230.514 29.6075 L-230.356 29.7642 L-230.118 30 L-229.804 30.312 L-229.095 31.0165 L-228.386 31.7211 L-227.676 32.4256 L-227.384 32.7163 L-225.528 34.56 L-224.839 35.2438 L-224.437 35.643 L-222.926 37.1444 L-222.712 37.3574 L-222.002 38.062 L-221.293 38.7665 L-220.584 39.471 L-219.874 40.1756 L-219.165 40.8801 L-217.037 42.9937 L-216.328 43.6983 L-215.619 44.4028 L-214.909 45.1074 L-214.2 45.8119 L-213.491 46.5164 L-212.782 47.221 L-212.072 47.9255 L-211.363 48.6301 L-210.654 49.3346 L-209.944 50.0391 L-209.235 50.7437 L-208.526 51.4482 L-207.817 52.1528 L-207.107 52.8573 L-206.398 53.5618 L-205.957 54 L-205.689 54.2664 L-204.979 54.9709 L-204.27 55.6755 L-203.561 56.38 L-200.211 59.7072 L-200.014 59.9027 L-199.305 60.6073 L-198.596 61.3118 L-198.506 61.4015 L-197.887 62.0163 L-197.177 62.7209 L-196.468 63.4254 L-195.759 64.13 L-195.049 64.8345 L-194.447 65.4326 L-191.977 67.8863 L-191.503 68.3572 L-190.794 69.0618 L-190.084 69.7663 L-189.375 70.4708 L-188.666 71.1754 L-187.957 71.8799 L-187.247 72.5845 L-186.829 73 L-184.41 75.4026 L-184.248 75.5633 L-183.701 76.1072 L-182.992 76.8117 L-182.282 77.5162 L-181.573 78.2208 L-180.864 78.9253 L-180.154 79.6299 L-179.445 80.3344 L-178.775 81 L-178.524 81.2493 L-178.027 81.7435 L-177.317 82.448 L-177.156 82.6086 L-175.19 84.5617 L-174.34 85.406 L-173.771 85.9707 L-173.062 86.6753 L-172.352 87.3798 L-171.643 88.0844 L-170.934 88.7889 L-169.745 89.9698 L-169.515 90.198 L-168.806 90.9025 L-168.708 91 L-166.451 93.2414 L-165.969 93.7207 L-165.26 94.4252 L-164.55 95.1298 L-163.841 95.8343 L-163.132 96.5388 L-162.615 97.0519 L-162.334 97.3309 L-161.713 97.9479 L-161.004 98.6525 L-160.654 99 L-160.295 99.357 L-159.585 100.062 L-158.876 100.766 L-158.167 101.471 L-157.457 102.175 L-156.748 102.88 L-156.039 103.584 L-155.33 104.289 L-154.787 104.828 L-150.806 108.782 L-150.365 109.221 L-149.655 109.925 L-148.946 110.63 L-148.684 110.89 L-148.106 111.464 L-147.527 112.039 L-146.818 112.743 L-146.109 113.448 L-145.4 114.152 L-144.69 114.857 L-143.981 115.561 L-143.272 116.266 L-142.562 116.971 L-141.853 117.675 L-141.144 118.38 L-140.435 119.084 L-139.725 119.789 L-139.016 120.493 L-138.455 121.05 L-138.049 121.454 L-137.597 121.902 L-137.48 122.019 L-133.202 126.268 L-132.632 126.834 L-131.923 127.539 L-131.214 128.243 L-130.505 128.948 L-129.795 129.652 L-129.398 130.047 L-125.462 133.957 L-124.83 134.584 L-124.121 135.289 L-123.412 135.993 L-122.703 136.698 L-121.993 137.402 L-121.704 137.689 L-112.016 147.313 L-111.354 147.97 L-110.843 148.478 L-109.935 149.379 L-109.226 150.084 L-108.517 150.788 L-107.808 151.493 L-107.098 152.198 L-106.389 152.902 L-105.68 153.607 L-105.368 153.917 L-100.61 158.643 L-100.005 159.243 L-99.2962 159.948 L-98.5869 160.652 L-97.8776 161.357 L-97.2847 161.946 L-96.1277 163.095 L-95.7497 163.47 L-95.0405 164.175 L-94.8144 164.399 L-92.8083 166.392 L-92.2033 166.993 L-91.494 167.697 L-90.7848 168.402 L-90.0755 169.107 L-89.3662 169.811 L-89.0306 170.144 L-84.1101 175.032 L-83.6919 175.447 L-82.9826 176.152 L-82.2734 176.857 L-81.5641 177.561 L-80.8548 178.266 L-80.1455 178.97 L-79.4362 179.675 L-78.7269 180.379 L-78.0177 181.084 L-77.3084 181.788 L-76.5991 182.493 L-75.8898 183.197 L-75.1805 183.902 L-74.4712 184.606 L-73.7619 185.311 L-73.0527 186.016 L-72.5823 186.483 L-70.789 188.264 L-70.2155 188.834 L-69.5062 189.538 L-68.797 190.243 L-68.0877 190.947 L-67.3784 191.652 L-66.6691 192.356 L-65.9598 193.061 L-65.2506 193.765 L-64.5413 194.47 L-64.087 194.921 L-62.1739 196.822 L-61.7041 197.288 L-60.9948 197.993 L-60.2856 198.697 L-59.5763 199.402 L-58.867 200.106 L-58.1577 200.811 L-57.4484 201.515 L-56.7392 202.22 L-56.0299 202.925 L-55.3206 203.629 L-54.6113 204.334 L-53.902 205.038 L-53.1927 205.743 L-52.4834 206.447 L-51.7742 207.152 L-51.0649 207.856 L-50.3556 208.561 L-49.6463 209.265 L-48.937 209.97 L-48.2277 210.674 L-47.5185 211.379 L-46.8092 212.084 L-46.0999 212.788 L-45.3906 213.493 L-44.6813 214.197 L-43.972 214.902 L-43.2628 215.606 L-42.5535 216.311 L-41.8442 217.015 L-41.1349 217.72 L-40.4256 218.424 L-39.7163 219.129 L-39.0071 219.833 L-38.2978 220.538 L-37.5885 221.243 L-36.8792 221.947 L-36.1699 222.652 L-35.4606 223.356 L-34.7514 224.061 L-34.0421 224.765 L-33.3328 225.47 L-32.6235 226.174 L-31.9142 226.879 L-31.2049 227.583 L-30.4957 228.288 L-29.7864 228.993 L-29.0771 229.697 L-28.3678 230.402 L-27.6585 231.106 L-26.9492 231.811 L-26.24 232.515 L-25.5307 233.22 L-24.8214 233.924 L-24.1121 234.629 L-23.4028 235.333 L-22.6935 236.038 L-21.9842 236.742 L-21.275 237.447 L-20.5657 238.152 L-19.8564 238.856 L-19.1471 239.561 L-18.4378 240.265 L-17.7285 240.97 L-17.0193 241.674 L-16.31 242.379 L-15.6007 243.083 L-14.8914 243.788 L-14.1821 244.492 L-13.4728 245.197 L-13.2966 245.372 L-13.2966 245.372 Z " />
<path stroke="rgb(0,0,0)" stroke-opacity="1" fill="rgb(200,200,200)" fill-opacity="1" d="M163.581 162.763 L163.581 161.946 L163.581 161.128 L163.581 160.31 L163.581 159.492 L163.581 158.674 L163.581 157.856 L163.581 157.038 L163.581 156.22 L163.581 155.402 L163.581 154.584 L163.581 153.767 L163.581 152.949 L163.581 152.131 L163.581 151.313 L163.581 150.495 L163.581 149.677 L163.581 148.859 L163.581 148.041 L163.581 147.223 L163.581 146.405 L163.581 145.587 L163.581 144.77 L163.581 143.952 L163.581 143.134 L163.581 142.316 L163.581 141.498 L163.581 140.68 L163.581 139.862 L163.581 139.044 L163.581 138.226 L163.581 137.408 L163.581 136.59 L163.581 135.773 L163.581 134.955 L163.581 134.137 L163.581 133.319 L163.581 132.501 L163.581 131.683 L163.581 130.865 L163.581 130.047 L163.581 129.229 L163.581 128.411 L163.581 127.593 L163.581 126.776 L163.581 125.958 L163.581 125.14 L163.581 124.322 L163.581 123.504 L163.581 122.686 L163.581 121.868 L163.581 121.05 L163.581 120.232 L163.581 119.414 L163.581 118.597 L163.581 117.779 L163.581 116.961 L163.581 116.143 L163.581 115.325 L163.581 114.507 L163.581 113.689 L163.581 112.871 L163.581 112.053 L163.581 111.235 L163.581 110.417 L163.581 109.6 L163.581 108.782 L163.581 107.964 L163.581 107.146 L163.581 106.328 L163.581 105.51 L163.581 104.692 L163.581 103.874 L163.581 103.056 L163.581 102.238 L163.581 101.42 L163.581 100.603 L163.581 99.7846 L163.581 98.9667 L163.581 98.1488 L163.581 97.3309 L163.581 96.513 L163.581 95.6951 L163.581 94.8772 L163.581 94.0593 L163.581 93.2414 L163.581 92.4235 L163.581 91.6056 L163.581 90.7877 L163.581 89.9698 L163.581 89.1518 L163.581 88.3339 L163.581 87.516 L163.581 86.6981 L163.581 85.8802 L163.581 85.0623 L163.581 84.2444 L163.581 83.4265 L163.581 82.6086 L163.581 81.7907 L163.581 80.9728 L163.581 80.1549 L163.581 79.337 L163.581 78.5191 L163.581 77.7011 L163.581 76.8833 L163.581 76.0653 L163.581 75.2474 L163.581 74.4295 L163.581 73.6116 L163.581 72.7937 L163.581 71.9758 L163.581 71.1579 L163.581 70.34 L163.581 69.5221 L163.581 68.7042 L163.581 67.8863 L163.581 67.0684 L163.581 66.2505 L163.581 65.4326 L163.581 64.6146 L163.581 63.7967 L163.581 62.9788 L163.581 62.1609 L163.581 61.343 L163.581 60.5251 L163.581 59.7072 L163.581 58.8893 L163.581 58.0714 L163.581 57.2535 L163.581 56.4356 L163.581 55.6177 L163.581 54.7998 L163.581 53.9819 L163.581 53.1639 L163.581 52.346 L163.581 51.5281 L163.581 50.7102 L163.581 49.8923 L163.581 49.0744 L163.581 48.2565 L163.581 47.4386 L163.581 46.6207 L163.581 45.8028 L163.581 44.9849 L163.581 44.167 L163.581 43.3491 L163.581 42.5312 L163.581 41.7133 L163.581 40.8953 L163.581 40.0774 L163.581 39.2595 L163.581 38.4416 L163.581 37.6237 L163.581 36.8058 L163.581 35.9879 L163.581 35.17 L163.581 34.3521 L163.581 33.5342 L163.581 32.7163 L163.581 31.8984 L163.581 31.0805 L163.581 30.2626 L163.581 29.4446 L163.581 28.6267 L163.581 27.8088 L163.581 26.9909 L163.581 26.173 L163.581 25.3551 L163.581 24.5372 L163.581 23.7193 L163.581 22.9014 L163.581 22.0835 L163.581 21.2656 L163.581 20.4477 L163.581 19.6298 L163.581 18.8118 L163.581 17.994 L163.581 17.176 L163.581 16.3581 L163.581 15.5402 L163.581 14.7223 L163.581 13.9044 L163.581 13.0865 L163.581 12.2686 L163.581 11.4507 L163.581 10.6328 L163.581 9.81488 L163.581 8.99696 L163.581 8.17906 L163.581 7.36116 L163.581 6.54325 L163.581 5.72534 L163.581 4.90744 L163.581 4.08953 L163.581 3.27162 L163.581 2.45372 L163.581 1.63581 L163.581 0.8179 L163.581 0 L162.763 0 L161.946 0 L161.128 0 L160.31 0 L159.492 0 L158.674 0 L157.856 0 L157.038 0 L156.22 0 L155.402 0 L154.584 0 L153.767 0 L152.949 0 L152.131 0 L151.313 0 L150.495 0 L149.677 0 L148.859 0 L148.041 0 L147.223 0 L146.405 0 L145.587 0 L144.77 0 L143.952 0 L143.134 0 L142.316 0 L141.498 0 L140.68 0 L139.862 0 L139.044 0 L138.226 0 L137.408 0 L136.59 0 L135.773 0 L134.955 0 L134.137 0 L133.319 0 L132.501 0 L131.683 0 L130.865 0 L130.047 0 L129.229 0 L128.411 0 L127.593 0 L126.776 0 L125.958 0 L125.14 0 L124.322 0 L123.504 0 L122.686 0 L121.868 0 L121.05 0 L120.232 0 L119.414 0 L118.597 0 L117.779 0 L116.961 0 L116.143 0 L115.325 0 L114.507 0 L113.689 0 L112.871 0 L112.053 0 L111.235 0 L110.417 0 L109.6 0 L108.782 0 L107.964 0 L107.146 0 L106.328 0 L105.51 0 L104.692 0 L103.874 0 L103.056 0 L102.238 0 L101.42 0 L100.603 0 L100 0 L100 -1 L100 -2 L100 -3 L100 -4 L100 -5 L100 -6 L100 -6.99999 L100 -8 L100 -8.99999 L100 -10 L100 -11 L100 -12 L100 -13 L100 -14 L100 -15 L100 -16 L100 -17 L100 -18 L100 -19 L100 -20 L100 -21 L100 -22 L100 -23 L100 -24 L100 -25 L100 -26 L100 -27 L100 -28 L100 -29 L100 -30 L100 -31 L100 -32 L100 -33 L100 -34 L100 -35 L100 -36 L100 -37 L100 -38 L100 -39 L100 -40 L100 -41 L100 -42 L100 -43 L100 -44 L100 -45 L100 -46 L100 -47 L100 -48 L100 -49 L100 -50 L100 -51 L100 -52 L100 -53 L100 -54 L100 -55 L100 -56 L100 -57 L100 -58 L100 -59 L100 -60 L100 -61 L100 -62 L100 -63 L100 -64 L100 -65 L100 -66 L100 -67 L100 -68 L100 -69 L100 -70 L100 -71 L100 -72 L100 -73 L100 -74 L100 -75 L100 -76 L100 -77 L100 -78 L100 -79 L100 -80 L100 -81 L100 -82 L100 -83 L100 -84 L100 -85 L100 -86 L100 -87 L100 -88 L100 -89 L100 -90 L100 -91 L100 -92 L100 -93 L100 -94 L100 -95 L100 -96 L100 -97 L100 -98 L100 -99 L100 -100 L99 -100 L98 -100 L97 -100 L96 -100 L95 -100 L94 -100 L93 -100 L92 -100 L91 -100 L90 -100 L89 -100 L88 -100 L87 -100 L86 -100 L85 -100 L84 -100 L83 -100 L82 -100 L81 -100 L80 -100 L79 -100 L78 -100 L77 -100 L76 -100 L75 -100 L74 -100 L73 -100 L72 -100 L71 -100 L70 -100 L69 -100 L68 -100 L67 -100 L66 -100 L65 -100 L64 -100 L63 -100 L62 -100 L61 -100 L60 -100 L59 -100 L58 -100 L57 -100 L56 -100 L55 -100 L54 -100 L53 -100 L52 -100 L51 -100 L50 -100 L49 -100 L48 -100 L47 -100 L46 -100 L45 -100 L44 -100 L43 -100 L42 -100 L41 -100 L40 -100 L39 -100 L38 -100 L37 -100 L36 -100 L35 -100 L34 -100 L33 -100 L32 -100 L31 -100 L30 -100 L29 -100 L28 -100 L27 -100 L26 -100 L25 -100 L24 -100 L23 -100 L22 -100 L21 -100 L20 -100 L19 -100 L18 -100 L17 -100 L16 -100 L15 -100 L14 -100 L13 -100 L12 -100 L11 -100 L10 -100 L9 -100 L8 -100 L7 -100 L6 -100 L5 -100 L4 -100 L3 -100 L2 -100 L1 -100 L0 -100 L-1 -100 L-2 -100 L-3 -100 L-4 -100 L-5 -100 L-6 -100 L-6.99999 -100 L-8 -100 L-8.99999 -100 L-10 -100 L-11 -100 L-12 -100 L-13 -100 L-14 -100 L-15 -100 L-16 -100 L-17 -100 L-18 -100 L-19 -100 L-20 -100 L-21 -100 L-22 -100 L-23 -100 L-24 -100 L-25 -100 L-26 -100 L-27 -100 L-28 -100 L-29 -100 L-30 -100 L-31 -100 L-32 -100 L-33 -100 L-34 -100 L-35 -100 L-36 -100 L-37 -100 L-38 -100 L-39 -100 L-40 -100 L-41 -100 L-42 -100 L-43 -100 L-44 -100 L-45 -100 L-46 -100 L-47 -100 L-48 -100 L-49 -100 L-50 -100 L-51 -100 L-52 -100 L-53 -100 L-54 -100 L-55 -100 L-56 -100 L-57 -100 L-58 -100 L-59 -100 L-60 -100 L-61 -100 L-62 -100 L-63 -100 L-64 -100 L-65 -100 L-66 -100 L-67 -100 L-68 -100 L-69 -100 L-70 -100 L-71 -100 L-72 -100 L-73 -100 L-74 -100 L-75 -100 L-76 -100 L-77 -100 L-78 -100 L-79 -100 L-80 -100 L-81 -100 L-82 -100 L-83 -100 L-84 -100 L-85 -100 L-86 -100 L-87 -100 L-88 -100 L-89 -100 L-90 -100 L-91 -100 L-92 -100 L-93 -100 L-94 -100 L-95 -100 L-96 -100 L-97 -100 L-98 -100 L-99 -100 L-100 -100 L-100 -99 L-100 -98 L-100 -97 L-100 -96 L-100 -95 L-100 -94 L-100 -93 L-100 -92 L-100 -91 L-100 -90 L-100 -89 L-100 -88 L-100 -87 L-100 -86 L-100 -85 L-100 -84 L-100 -83 L-100 -82 L-100 -81 L-100 -80 L-100 -79 L-100 -78 L-100 -77 L-100 -76 L-100 -75 L-100 -74 L-100 -73 L-100 -72 L-100 -71 L-100 -70 L-100 -69 L-100 -68 L-100 -67 L-100 -66 L-100 -65 L-100 -64 L-100 -63 L-100 -62 L-100 -61 L-100 -60 L-100 -59 L-100 -58 L-100 -57 L-100 -56 L-100 -55 L-100 -54 L-100 -53 L-100 -52 L-100 -51 L-100 -50 L-100 -49 L-100 -48 L-100 -47 L-100 -46 L-100 -45 L-100 -44 L-100 -43 L-100 -42 L-100 -41 L-100 -40 L-100 -39 L-100 -38 L-100 -37 L-100 -36 L-100 -35 L-100 -34 L-100 -33 L-100 -32 L-100 -31 L-100 -30 L-100 -29 L-100 -28 L-100 -27 L-100 -26 L-100 -25 L-100 -24 L-100 -23 L-100 -22 L-100 -21 L-100 -20 L-100 -19 L-100 -18 L-100 -17 L-100 -16 L-100 -15 L-100 -14 L-100 -13 L-100 -12 L-100 -11 L-100 -10 L-100 -9 L-100 -8 L-100 -7 L-100 -6 L-100 -5 L-100 -4 L-100 -3 L-100 -2 L-100 -1 L-100 0 L-100 1 L-100 2 L-100 3 L-100 4 L-100 5 L-100 6 L-100 6.99999 L-100 8 L-100 8.99999 L-100 10 L-100 11 L-100 12 L-100 13 L-100 14 L-100 15 L-100 16 L-100 17 L-100 18 L-100 19 L-100 20 L-100 21 L-100 22 L-100 23 L-100 24 L-100 25 L-100 26 L-100 27 L-100 28 L-100 29 L-100 30 L-100 31 L-100 32 L-100 33 L-100 34 L-100 35 L-100 36 L-100 37 L-100 38 L-100 39 L-100 40 L-100 41 L-100 42 L-100 43 L-100 44 L-100 45 L-100 46 L-100 47 L-100 48 L-100 49 L-100 50 L-100 51 L-100 52 L-100 53 L-100 54 L-100 55 L-100 56 L-100 57 L-100 58 L-100 59 L-100 60 L-100 61 L-100 62 L-100 63 L-100 64 L-100 65 L-100 66 L-100 67 L-100 68 L-100 69 L-100 70 L-100 71 L-100 72 L-100 73 L-100 74 L-100 75 L-100 76 L-100 77 L-100 78 L-100 79 L-100 80 L-100 81 L-100 82 L-100 83 L-100 84 L-100 85 L-100 86 L-100 87 L-100 88 L-100 89 L-100 90 L-100 91 L-100 92 L-100 93 L-100 94 L-100 95 L-100 96 L-100 97 L-100 98 L-100 99 L-100 100 L-99 100 L-98 100 L-97 100 L-96 100 L-95 100 L-94 100 L-93 100 L-92 100 L-91 100 L-90 100 L-89 100 L-88 100 L-87 100 L-86 100 L-85 100 L-84 100 L-83 100 L-82 100 L-81 100 L-80 100 L-79 100 L-78 100 L-77 100 L-76 100 L-75 100 L-74 100 L-73 100 L-72 100 L-71 100 L-70 100 L-69 100 L-68 100 L-67 100 L-66 100 L-65 100 L-64 100 L-63 100 L-62 100 L-61 100 L-60 100 L-59 100 L-58 100 L-57 100 L-56 100 L-55 100 L-54 100 L-53 100 L-52 100 L-51 100 L-50 100 L-49 100 L-48 100 L-47 100 L-46 100 L-45 100 L-44 100 L-43 100 L-42 100 L-41 100 L-40 100 L-39 100 L-38 100 L-37 100 L-36 100 L-35 100 L-34 100 L-33 100 L-32 100 L-31 100 L-30 100 L-29 100 L-28 100 L-27 100 L-26 100 L-25 100 L-24 100 L-23 100 L-22 100 L-21 100 L-20 100 L-19 100 L-18 100 L-17 100 L-16 100 L-15 100 L-14 100 L-13 100 L-12 100 L-11 100 L-10 100 L-9 100 L-8 100 L-7 100 L-6 100 L-5 100 L-4 100 L-3 100 L-2 100 L-1 100 L0 100 L0 100.603 L0 101.42 L0 102.238 L0 103.056 L0 103.874 L0 104.692 L0 105.51 L0 106.328 L0 107.146 L0 107.964 L0 108.782 L0 109.6 L0 110.417 L0 111.235 L0 112.053 L0 112.871 L0 113.689 L0 114.507 L0 115.325 L0 116.143 L0 116.961 L0 117.779 L0 118.597 L0 119.414 L0 120.232 L0 121.05 L0 121.868 L0 122.686 L0 123.504 L0 124.322 L0 125.14 L0 125.958 L0 126.776 L0 127.593 L0 128.411 L0 129.229 L0 130.047 L0 130.865 L0 131.683 L0 132.501 L0 133.319 L0 134.137 L0 134.955 L0 135.773 L0 136.59 L0 137.408 L0 138.226 L0 139.044 L0 139.862 L0 140.68 L0 141.498 L0 142.316 L0 143.134 L0 143.952 L0 144.77 L0 145.587 L0 146.405 L0 147.223 L0 148.041 L0 148.859 L0 149.677 L0 150.495 L0 151.313 L0 152.131 L0 152.949 L0 153.767 L0 154.584 L0 155.402 L0 156.22 L0 157.038 L0 157.856 L0 158.674 L0 159.492 L0 160.31 L0 161.128 L0 161.946 L0 162.763 L0 163.581 L0.8179 163.581 L1.63581 163.581 L2.45372 163.581 L3.27162 163.581 L4.08953 163.581 L4.90744 163.581 L5.72534 163.581 L6.54325 163.581 L7.36116 163.581 L8.17906 163.581 L8.99696 163.581 L9.81488 163.581 L10.6328 163.581 L11.4507 163.581 L12.2686 163.581 L13.0865 163.581 L13.9044 163.581 L14.7223 163.581 L15.5402 163.581 L16.3581 163.581 L17.176 163.581 L17.994 163.581 L18.8118 163.581 L19.6298 163.581 L20.4477 163.581 L21.2656 163.581 L22.0835 163.581 L22.9014 163.581 L23.7193 163.581 L24.5372 163.581 L25.3551 163.581 L26.173 163.581 L26.9909 163.581 L27.8088 163.581 L28.6267 163.581 L29.4446 163.581 L30.2626 163.581 L31.0805 163.581 L31.8984 163.581 L32.7163 163.581 L33.5342 163.581 L34.3521 163.581 L35.17 163.581 L35.9879 163.581 L36.8058 163.581 L37.6237 163.581 L38.4416 163.581 L39.2595 163.581 L40.0774 163.581 L40.8953 163.581 L41.7133 163.581 L42.5312 163.581 L43.3491 163.581 L44.167 163.581 L44.9849 163.581 L45.8028 163.581 L46.6207 163.581 L47.4386 163.581 L48.2565 163.581 L49.0744 163.581 L49.8923 163.581 L50.7102 163.581 L51.5281 163.581 L52.346 163.581 L53.1639 163.581 L53.9819 163.581 L54.7998 163.581 L55.6177 163.581 L56.4356 163.581 L57.2535 163.581 L58.0714 163.581 L58.8893 163.581 L59.7072 163.581 L60.5251 163.581 L61.343 163.581 L62.1609 163.581 L62.9788 163.581 L63.7967 163.581 L64.6146 163.581 L65.4326 163.581 L66.2505 163.581 L67.0684 163.581 L67.8863 163.581 L68.7042 163.581 L69.5221 163.581 L70.34 163.581 L71.1579 163.581 L71.9758 163.581 L72.7937 163.581 L73.6116 163.581 L74.4295 163.581 L75.2474 163.581 L76.0653 163.581 L76.8833 163.581 L77.7011 163.581 L78.5191 163.581 L79.337 163.581 L80.1549 163.581 L80.9728 163.581 L81.7907 163.581 L82.6086 163.581 L83.4265 163.581 L84.2444 163.581 L85.0623 163.581 L85.8802 163.581 L86.6981 163.581 L87.516 163.581 L88.3339 163.581 L89.1518 163.581 L89.9698 163.581 L90.7877 163.581 L91.6056 163.581 L92.4235 163.581 L93.2414 163.581 L94.0593 163.581 L94.8772 163.581 L95.6951 163.581 L96.513 163.581 L97.3309 163.581 L98.1488 163.581 L98.9667 163.581 L99.7846 163.581 L100.603 163.581 L101.42 163.581 L102.238 163.581 L103.056 163.581 L103.874 163.581 L104.692 163.581 L105.51 163.581 L106.328 163.581 L107.146 163.581 L107.964 163.581 L108.782 163.581 L109.6 163.581 L110.417 163.581 L111.235 163.581 L112.053 163.581 L112.871 163.581 L113.689 163.581 L114.507 163.581 L115.325 163.581 L116.143 163.581 L116.961 163.581 L117.779 163.581 L118.597 163.581 L119.414 163.581 L120.232 163.581 L121.05 163.581 L121.868 163.581 L122.686 163.581 L123.504 163.581 L124.322 163.581 L125.14 163.581 L125.958 163.581 L126.776 163.581 L127.593 163.581 L128.411 163.581 L129.229 163.581 L130.047 163.581 L130.865 163.581 L131.683 163.581 L132.501 163.581 L133.319 163.581 L134.137 163.581 L134.955 163.581 L135.773 163.581 L136.59 163.581 L137.408 163.581 L138.226 163.581 L139.044 163.581 L139.862 163.581 L140.68 163.581 L141.498 163.581 L142.316 163.581 L143.134 163.581 L143.952 163.581 L144.77 163.581 L145.587 163.581 L146.405 163.581 L147.223 163.581 L148.041 163.581 L148.859 163.581 L149.677 163.581 L150.495 163.581 L151.313 163.581 L152.131 163.581 L152.949 163.581 L153.767 163.581 L154.584 163.581 L155.402 163.581 L156.22 163.581 L157.038 163.581 L157.856 163.581 L158.674 163.581 L159.492 163.581 L160.31 163.581 L161.128 163.581 L161.946 163.581 L162.763 163.581 L163.581 163.581 L163.581 162.763 Z " />
<path stroke="rgb(0,0,0)" stroke-opacity="1" fill="rgb(200,200,200)" fill-opacity="1" d="M-13.4728 245.197 L-14.1821 244.492 L-14.8914 243.788 L-15.6007 243.083 L-16.31 242.379 L-17.0193 241.674 L-17.7285 240.97 L-18.4378 240.265 L-19.1471 239.561 L-19.8564 238.856 L-20.5657 238.152 L-21.275 237.447 L-21.9842 236.742 L-22.6935 236.038 L-23.4028 235.333 L-24.1121 234.629 L-24.8214 233.924 L-25.5307 233.22 L-26.24 232.515 L-26.9492 231.811 L-27.6585 231.106 L-28.3678 230.402 L-29.0771 229.697 L-29.7864 228.993 L-30.4957 228.288 L-31.2049 227.583 L-31.9142 226.879 L-32.6235 226.174 L-33.3328 225.47 L-34.0421 224.765 L-34.7514 224.061 L-35.4606 223.356 L-36.1699 222.652 L-36.8792 221.947 L-37.5885 221.243 L-38.2978 220.538 L-39.0071 219.833 L-39.7163 219.129 L-40.4256 218.424 L-41.1349 217.72 L-41.8442 217.015 L-42.5535 216.311 L-43.2628 215.606 L-43.972 214.902 L-44.6813 214.197 L-45.3906 213.493 L-46.0999 212.788 L-46.8092 212.084 L-47.5185 211.379 L-48.2277 210.674 L-48.937 209.97 L-49.6463 209.265 L-50.3556 208.561 L-51.0649 207.856 L-51.7742 207.152 L-52.4834 206.447 L-53.1927 205.743 L-53.902 205.038 L-54.6113 204.334 L-55.3206 203.629 L-56.0299 202.925 L-56.7392 202.22 L-57.4484 201.515 L-58.1577 200.811 L-58.867 200.106 L-59.5763 199.402 L-60.2856 198.697 L-60.9948 197.993 L-61.7041 197.288 L-62.4134 196.584 L-63.1227 195.879 L-63.832 195.175 L-64.5413 194.47 L-65.2506 193.765 L-65.9598 193.061 L-66.6691 192.356 L-67.3784 191.652 L-68.0877 190.947 L-68.797 190.243 L-69.5062 189.538 L-70.2155 188.834 L-70.9248 188.129 L-71.6341 187.425 L-72.3434 186.72 L-73.0527 186.016 L-73.7619 185.311 L-74.4712 184.606 L-75.1805 183.902 L-75.8898 183.197 L-76.5991 182.493 L-77.3084 181.788 L-78.0177 181.084 L-78.7269 180.379 L-79.4362 179.675 L-80.1455 178.97 L-80.8548 178.266 L-81.5641 177.561 L-82.2734 176.857 L-82.9826 176.152 L-83.6919 175.447 L-84.4012 174.743 L-85.1105 174.038 L-85.8198 173.334 L-86.5291 172.629 L-87.2383 171.925 L-87.9476 171.22 L-88.6569 170.516 L-89.3662 169.811 L-90.0755 169.107 L-90.7848 168.402 L-91.494 167.697 L-92.2033 166.993 L-92.9126 166.288 L-93.6219 165.584 L-94.3312 164.879 L-95.0405 164.175 L-95.7497 163.47 L-96.459 162.766 L-97.1683 162.061 L-97.8776 161.357 L-98.5869 160.652 L-99.2962 159.948 L-100.005 159.243 L-100.715 158.538 L-101.424 157.834 L-102.133 157.129 L-102.843 156.425 L-103.552 155.72 L-104.261 155.016 L-104.97 154.311 L-105.68 153.607 L-106.389 152.902 L-107.098 152.198 L-107.808 151.493 L-108.517 150.788 L-109.226 150.084 L-109.935 149.379 L-110.645 148.675 L-111.354 147.97 L-112.063 147.266 L-112.773 146.561 L-113.482 145.857 L-114.191 145.152 L-114.9 144.448 L-115.61 143.743 L-116.319 143.039 L-117.028 142.334 L-117.738 141.629 L-118.447 140.925 L-119.156 140.22 L-119.865 139.516 L-120.575 138.811 L-121.284 138.107 L-121.993 137.402 L-122.703 136.698 L-123.412 135.993 L-124.121 135.289 L-124.83 134.584 L-125.54 133.88 L-126.249 133.175 L-126.958 132.47 L-127.668 131.766 L-128.377 131.061 L-129.086 130.357 L-129.795 129.652 L-130.505 128.948 L-131.214 128.243 L-131.923 127.539 L-132.632 126.834 L-133.342 126.13 L-134.051 125.425 L-134.76 124.72 L-135.47 124.016 L-136.179 123.311 L-136.888 122.607 L-137.597 121.902 L-138.049 121.454 L-138.455 121.05 L-139.016 120.493 L-139.725 119.789 L-140.435 119.084 L-141.144 118.38 L-141.853 117.675 L-142.562 116.971 L-143.272 116.266 L-143.981 115.561 L-144.69 114.857 L-145.4 114.152 L-146.109 113.448 L-146.818 112.743 L-147.527 112.039 L-148.237 111.334 L-148.946 110.63 L-149.655 109.925 L-150.365 109.221 L-150.806 108.782 L-154.787 104.828 L-155.33 104.289 L-156.039 103.584 L-156.748 102.88 L-157.457 102.175 L-158.167 101.471 L-158.876 100.766 L-159.585 100.062 L-160.295 99.357 L-160.654 99 L-162.615 97.0519 L-163.132 96.5388 L-163.841 95.8343 L-164.55 95.1298 L-165.26 94.4252 L-165.969 93.7207 L-166.451 93.2414 L-170.934 88.7889 L-171.643 88.0844 L-172.352 87.3798 L-173.062 86.6753 L-173.771 85.9707 L-174.48 85.2662 L-175.19 84.5617 L-177.156 82.6086 L-177.317 82.448 L-178.027 81.7435 L-178.524 81.2493 L-178.775 81 L-179.445 80.3344 L-180.154 79.6299 L-180.864 78.9253 L-181.573 78.2208 L-182.282 77.5162 L-182.992 76.8117 L-183.701 76.1072 L-184.248 75.5633 L-186.829 73 L-187.247 72.5845 L-187.957 71.8799 L-188.666 71.1754 L-189.375 70.4708 L-190.084 69.7663 L-190.794 69.0618 L-191.503 68.3572 L-191.977 67.8863 L-194.447 65.4326 L-195.049 64.8345 L-195.759 64.13 L-196.468 63.4254 L-197.177 62.7209 L-197.887 62.0163 L-198.506 61.4015 L-203.561 56.38 L-204.27 55.6755 L-204.979 54.9709 L-205.689 54.2664 L-205.957 54 L-219.165 40.8801 L-219.874 40.1756 L-220.584 39.471 L-221.293 38.7665 L-222.002 38.062 L-222.712 37.3574 L-222.926 37.1444 L-224.437 35.643 L-224.839 35.2438 L-225.528 34.56 L-227.384 32.7163 L-227.676 32.4256 L-228.386 31.7211 L-229.095 31.0165 L-229.804 30.312 L-230.356 29.7642 L-236.772 23.3906 L-236.897 23.2666 L-237.606 22.562 L-238.316 21.8575 L-239.025 21.153 L-239.734 20.4484 L-240.186 20 L-245.372 14.8483 L-244.699 15.5166 L-243.99 16.2212 L-243.281 16.9257 L-242.571 17.6303 L-241.862 18.3348 L-241.153 19.0393 L-240.444 19.7439 L-240.186 20 L-236.772 23.3906 L-236.188 23.9711 L-235.479 24.6757 L-234.769 25.3802 L-234.06 26.0848 L-233.351 26.7893 L-232.641 27.4938 L-231.932 28.1984 L-231.223 28.9029 L-230.514 29.6075 L-230.356 29.7642 L-227.384 32.7163 L-226.967 33.1302 L-226.258 33.8347 L-225.549 34.5393 L-225.528 34.56 L-224.437 35.643 L-224.13 35.9483 L-223.421 36.6529 L-222.926 37.1444 L-219.165 40.8801 L-218.456 41.5847 L-217.747 42.2892 L-217.037 42.9937 L-216.328 43.6983 L-215.619 44.4028 L-214.909 45.1074 L-214.2 45.8119 L-213.491 46.5164 L-212.782 47.221 L-212.072 47.9255 L-211.363 48.6301 L-210.654 49.3346 L-209.944 50.0391 L-209.235 50.7437 L-208.526 51.4482 L-207.817 52.1528 L-207.107 52.8573 L-206.398 53.5618 L-205.957 54 L-203.561 56.38 L-202.852 57.0846 L-202.142 57.7891 L-201.433 58.4936 L-200.724 59.1982 L-200.014 59.9027 L-199.305 60.6073 L-198.596 61.3118 L-198.506 61.4015 L-194.447 65.4326 L-194.34 65.5391 L-193.631 66.2436 L-192.922 66.9481 L-192.212 67.6527 L-191.977 67.8863 L-186.829 73 L-186.538 73.289 L-185.829 73.9935 L-185.119 74.6981 L-184.41 75.4026 L-184.248 75.5633 L-178.775 81 L-178.736 81.0389 L-178.524 81.2493 L-177.156 82.6086 L-176.608 83.1526 L-175.899 83.8571 L-175.19 84.5617 L-170.934 88.7889 L-170.225 89.4934 L-169.515 90.198 L-168.806 90.9025 L-168.097 91.6071 L-167.387 92.3116 L-166.678 93.0161 L-166.451 93.2414 L-162.615 97.0519 L-162.422 97.2434 L-161.713 97.9479 L-161.004 98.6525 L-160.654 99 L-154.787 104.828 L-154.62 104.993 L-153.911 105.698 L-153.202 106.402 L-152.492 107.107 L-151.783 107.811 L-151.074 108.516 L-150.806 108.782 L-138.455 121.05 L-138.307 121.198 L-138.049 121.454 L-13.2966 245.372 L-13.2966 245.372 L-13.4728 245.197 Z " />
</g>
</g>
</svg>
