<!DOCTYPE svg>
<svg xmlns="http://www.w3.org/2000/svg" xmlns:xlink="http://www.w3.org/1999/xlink" width="800" height="800">
<g transform="translate(400.000000,400.000000)">
<g transform="scale(1.000000,1.000000)">
<path stroke="rgb(0,0,0)" stroke-opacity="1" fill="rgb(200,200,200)" fill-opacity="1" d="M425.158 122.999 L425.158 121.999 L425.158 120.999 L425.158 119.999 L425.158 118.999 L425.158 117.999 L425.158 116.999 L425.158 115.999 L425.158 114.999 L425.158 113.999 L425.158 112.999 L425.158 111.999 L425.158 110.999 L425.158 109.999 L425.158 108.999 L425.158 107.999 L425.158 106.999 L425.158 105.999 L425.158 104.999 L425.158 103.999 L425.158 102.999 L425.158 101.999 L425.158 100.999 L425.158 99.9985 L425.158 98.9985 L425.158 97.9985 L425.158 96.9985 L425.158 95.9985 L425.158 94.9985 L425.158 93.9985 L425.158 92.9985 L425.158 91.9985 L425.158 90.9985 L425.158 89.9985 L425.158 88.9985 L425.158 87.9985 L425.158 86.9985 L425.158 85.9985 L425.158 84.9985 L425.158 83.9985 L425.158 82.9985 L425.158 81.9985 L425.158 80.9985 L425.158 79.9985 L425.158 78.9985 L425.158 77.9985 L425.158 76.9985 L425.158 75.9985 L425.158 74.9985 L425.158 73.9985 L424.158 73.9985 L423.158 73.9985 L422.158 73.9985 L421.158 73.9985 L420.158 73.9985 L419.158 73.9985 L418.158 73.9985 L417.158 73.9985 L416.158 73.9985 L415.158 73.9985 L414.158 73.9985 L413.158 73.9985 L412.158 73.9985 L411.158 73.9985 L410.158 73.9985 L409.158 73.9985 L408.158 73.9985 L407.158 73.9985 L406.158 73.9985 L405.413 73.9985 L405.413 73.2349 L405.413 72.2349 L405.413 71.2349 L405.413 70.2349 L405.413 69.2349 L405.413 68.2349 L405.413 67.2349 L405.413 66.2349 L405.413 65.2349 L405.413 64.2349 L405.413 63.2349 L405.413 62.2349 L405.413 61.2349 L405.413 60.2349 L405.413 59.2349 L405.413 58.2349 L405.413 57.2349 L405.413 56.2349 L405.413 55.2349 L405.413 54.2349 L405.413 53.2349 L405.413 52.2349 L405.413 51.2349 L405.413 50.2349 L405.413 49.2349 L405.413 48.2349 L405.413 47.2349 L405.413 46.2349 L405.413 45.2349 L405.413 44.2349 L405.413 43.2349 L404.413 43.2349 L403.413 43.2349 L402.413 43.2349 L401.413 43.2349 L400.413 43.2349 L399.413 43.2349 L398.413 43.2349 L397.413 43.2349 L396.413 43.2349 L395.413 43.2349 L394.413 43.2349 L393.413 43.2349 L392.413 43.2349 L391.413 43.2349 L390.413 43.2349 L389.413 43.2349 L388.413 43.2349 L387.413 43.2349 L386.413 43.2349 L385.413 43.2349 L384.413 43.2349 L383.413 43.2349 L382.413 43.2349 L381.413 43.2349 L380.413 43.2349 L380.015 43.2349 L380.015 42.544 L380.015 41.544 L380.015 40.544 L380.015 39.544 L380.015 38.544 L380.015 37.544 L380.015 36.544 L380.015 35.544 L380.015 34.544 L380.015 33.544 L380.015 32.544 L380.015 31.544 L380.015 30.544 L380.015 29.544 L380.015 28.544 L380.015 27.544 L380.015 26.544 L380.015 25.544 L380.015 24.544 L380.015 23.544 L380.015 22.544 L380.015 21.544 L380.015 20.544 L380.015 19.544 L380.015 18.544 L380.015 17.544 L380.015 16.544 L380.015 15.544 L380.015 14.544 L380.015 13.544 L380.015 12.544 L380.015 11.544 L380.015 10.544 L380.015 10.468 L380.015 9.46805 L380.015 8.46805 L380.015 7.46805 L380.015 6.46805 L380.015 5.46805 L380.015 4.46805 L380.015 3.46805 L380.015 2.46805 L380.015 1.46805 L380.015 0.46805 L380.015 -0.53194 L380.015 -1.53194 L380.015 -2.53194 L380.015 -3.53194 L380.015 -4.23153 L380.785 -4.23153 L381.785 -4.23153 L381.785 -5.23153 L381.785 -6.23153 L381.785 -7.23153 L381.785 -8.23152 L381.785 -9.23152 L381.785 -10.2315 L381.785 -11.2315 L381.785 -12.2315 L381.785 -13.2315 L381.785 -14.2315 L381.785 -15.2315 L381.785 -16.2315 L381.785 -17.2315 L381.785 -18.2315 L381.785 -19.2315 L381.785 -20.2315 L381.785 -21.2315 L381.785 -22.2315 L381.785 -23.2315 L381.785 -24.2315 L381.785 -25.2315 L381.785 -26.2315 L381.785 -27.2315 L381.785 -28.2315 L381.785 -29.2315 L381.785 -30.2315 L381.785 -31.2315 L381.785 -32.2315 L381.785 -33.2315 L381.785 -34.2315 L381.785 -35.2315 L381.785 -36.2315 L381.785 -37.2315 L381.785 -38.2315 L381.785 -38.5519 L382.048 -38.5519 L383.048 -38.5519 L384.048 -38.5519 L385.048 -38.5519 L386.048 -38.5519 L387.048 -38.5519 L388.048 -38.5519 L389.048 -38.5519 L390.048 -38.5519 L391.048 -38.5519 L392.048 -38.5519 L393.048 -38.5519 L394.048 -38.5519 L395.048 -38.5519 L396.048 -38.5519 L397.048 -38.5519 L398.048 -38.5519 L399.048 -38.5519 L400.048 -38.5519 L401.048 -38.5519 L402.048 -38.5519 L403.048 -38.5519 L404.048 -38.5519 L405.048 -38.5519 L406.048 -38.5519 L407.048 -38.5519 L408.048 -38.5519 L408.048 -39.5519 L408.048 -40.5519 L408.048 -41.5519 L408.048 -42.5519 L408.048 -43.5519 L408.048 -44.5519 L408.048 -45.5519 L408.048 -46.5519 L408.048 -47.5519 L408.048 -48.5519 L408.048 -49.5519 L408.048 -50.5519 L408.048 -51.5519 L408.048 -52.5519 L408.048 -53.5519 L408.048 -54.5519 L408.048 -55.5519 L408.048 -56.5519 L408.048 -57.5519 L408.048 -58.5519 L408.048 -59.5519 L408.048 -60.5519 L408.048 -61.5519 L408.048 -62.5519 L408.048 -63.5519 L408.048 -64.5519 L408.048 -65.5519 L408.048 -66.5519 L408.048 -67.5519 L408.048 -68.5519 L408.048 -69.5519 L408.048 -70.5519 L408.048 -71.5519 L408.048 -72.5519 L408.048 -73.5519 L408.048 -74.5519 L408.048 -75.5519 L408.048 -75.6671 L408.064 -75.6671 L409.064 -75.6671 L410.064 -75.6671 L411.064 -75.6671 L412.064 -75.6671 L413.064 -75.6671 L414.064 -75.6671 L415.064 -75.6671 L416.064 -75.6671 L417.064 -75.6671 L418.064 -75.6671 L419.064 -75.6671 L420.064 -75.6671 L421.064 -75.6671 L422.064 -75.6671 L423.064 -75.6671 L424.064 -75.6671 L424.064 -76.6671 L424.064 -77.6671 L424.064 -78.6671 L424.064 -79.6671 L424.064 -80.6671 L424.064 -81.6671 L424.064 -82.6671 L424.064 -83.6671 L424.064 -84.6671 L424.064 -85.6671 L424.064 -86.6671 L424.064 -87.6671 L424.064 -88.6671 L424.064 -89.6671 L424.064 -90.6671 L424.064 -91.6671 L424.064 -92.6671 L424.064 -93.6671 L424.064 -94.6671 L424.064 -95.6671 L424.064 -96.6671 L424.064 -97.6671 L424.064 -98.6671 L424.064 -99.6671 L424.064 -100.667 L424.064 -101.667 L424.064 -102.667 L424.064 -103.667 L424.064 -104.667 L424.064 -105.667 L424.064 -106.667 L424.064 -107.667 L424.064 -108.667 L424.064 -109.667 L424.064 -110.667 L424.064 -111.667 L424.064 -112.667 L424.064 -113.667 L424.064 -114.667 L424.064 -115.667 L424.064 -116.667 L424.064 -117.667 L424.064 -118.667 L424.064 -119.667 L424.064 -120.667 L424.064 -121.667 L424.064 -122.667 L424.064 -123.667 L424.064 -124.667 L424.064 -125.667 L423.064 -125.667 L422.064 -125.667 L421.064 -125.667 L420.064 -125.667 L419.064 -125.667 L418.064 -125.667 L417.064 -125.667 L416.064 -125.667 L415.064 -125.667 L414.064 -125.667 L413.064 -125.667 L412.064 -125.667 L411.064 -125.667 L410.064 -125.667 L409.064 -125.667 L408.064 -125.667 L407.064 -125.667 L406.064 -125.667 L405.064 -125.667 L404.064 -125.667 L403.064 -125.667 L402.064 -125.667 L401.064 -125.667 L400.064 -125.667 L399.064 -125.667 L398.064 -125.667 L397.064 -125.667 L396.064 -125.667 L395.064 -125.667 L394.064 -125.667 L393.064 -125.667 L392.064 -125.667 L391.064 -125.667 L390.064 -125.667 L389.064 -125.667 L388.064 -125.667 L387.064 -125.667 L386.064 -125.667 L385.064 -125.667 L384.064 -125.667 L383.064 -125.667 L382.064 -125.667 L381.064 -125.667 L380.064 -125.667 L379.064 -125.667 L378.064 -125.667 L377.064 -125.667 L376.064 -125.667 L375.064 -125.667 L374.064 -125.667 L374.064 -124.667 L374.064 -123.667 L374.064 -122.667 L374.064 -121.667 L374.064 -120.667 L374.064 -119.667 L374.064 -118.667 L374.064 -117.667 L374.064 -116.667 L374.064 -115.667 L374.064 -114.667 L374.064 -113.667 L374.064 -112.667 L374.064 -111.667 L374.064 -110.667 L374.064 -109.667 L374.064 -108.667 L374.064 -107.667 L374.064 -106.667 L374.064 -105.667 L374.064 -104.667 L374.064 -103.667 L374.064 -102.667 L374.064 -101.667 L374.064 -100.667 L374.064 -99.6671 L374.064 -98.6671 L374.064 -97.6671 L374.064 -96.6671 L374.064 -95.6671 L374.064 -94.6671 L374.064 -93.6671 L374.064 -92.6671 L374.064 -91.6671 L374.064 -90.6671 L374.064 -89.6671 L374.064 -88.6671 L374.064 -88.5519 L374.048 -88.5519 L373.048 -88.5519 L372.048 -88.5519 L371.048 -88.5519 L370.048 -88.5519 L369.048 -88.5519 L368.048 -88.5519 L367.048 -88.5519 L366.048 -88.5519 L365.048 -88.5519 L364.048 -88.5519 L363.048 -88.5519 L362.048 -88.5519 L361.048 -88.5519 L360.048 -88.5519 L359.048 -88.5519 L358.048 -88.5519 L358.048 -87.5519 L358.048 -86.5519 L358.048 -85.5519 L358.048 -84.5519 L358.048 -83.5519 L358.048 -82.5519 L358.048 -81.5519 L358.048 -80.5519 L358.048 -79.5519 L358.048 -78.5519 L358.048 -77.5519 L358.048 -76.5519 L358.048 -75.5519 L358.048 -74.5519 L358.048 -73.5519 L358.048 -72.5519 L358.048 -71.5519 L358.048 -70.5519 L358.048 -69.5519 L358.048 -68.5519 L358.048 -67.5519 L358.048 -66.5519 L358.048 -65.5519 L358.048 -64.5519 L358.048 -63.5519 L358.048 -62.5519 L358.048 -61.5519 L358.048 -60.5519 L358.048 -59.5519 L358.048 -58.5519 L358.048 -57.5519 L358.048 -56.5519 L358.048 -55.5519 L358.048 -54.5519 L358.048 -54.2315 L357.785 -54.2315 L356.785 -54.2315 L355.785 -54.2315 L354.785 -54.2315 L353.785 -54.2315 L352.785 -54.2315 L351.785 -54.2315 L350.785 -54.2315 L349.785 -54.2315 L348.785 -54.2315 L347.785 -54.2315 L346.785 -54.2315 L345.785 -54.2315 L344.785 -54.2315 L343.785 -54.2315 L342.785 -54.2315 L341.785 -54.2315 L340.785 -54.2315 L339.785 -54.2315 L338.785 -54.2315 L337.785 -54.2315 L336.785 -54.2315 L335.785 -54.2315 L334.785 -54.2315 L333.785 -54.2315 L332.785 -54.2315 L331.785 -54.2315 L331.785 -53.2315 L331.785 -52.2315 L331.785 -51.2315 L331.785 -50.2315 L331.785 -49.2315 L331.785 -48.2315 L331.785 -47.2315 L331.785 -46.2315 L331.785 -45.2315 L331.785 -44.2315 L331.785 -43.2315 L331.785 -42.2315 L331.785 -41.2315 L331.785 -40.2315 L331.785 -39.2315 L331.785 -38.2315 L331.785 -37.2315 L331.785 -36.2315 L331.785 -35.2315 L331.785 -34.2315 L331.785 -33.2315 L331.785 -32.2315 L331.785 -31.2315 L331.785 -30.2315 L331.785 -29.2315 L331.785 -28.2315 L331.785 -27.2315 L331.785 -26.2315 L331.785 -25.2315 L331.785 -24.2315 L331.785 -23.5319 L331.015 -23.5319 L330.015 -23.5319 L330.015 -22.5319 L330.015 -21.5319 L330.015 -20.5319 L330.015 -19.5319 L330.015 -18.5319 L330.015 -17.5319 L330.015 -16.5319 L330.015 -15.5319 L330.015 -14.5319 L330.015 -13.5319 L330.015 -12.5319 L330.015 -11.5319 L330.015 -10.5319 L330.015 -9.53194 L330.015 -8.53194 L330.015 -7.53194 L330.015 -6.53194 L330.015 -5.53194 L330.015 -4.53193 L330.015 -3.53194 L330.015 -2.53194 L330.015 -1.53194 L330.015 -0.53194 L330.015 0.46805 L330.015 1.46805 L330.015 2.46805 L330.015 3.46805 L330.015 4.46805 L330.015 5.46805 L330.015 6.46805 L330.015 7.46805 L330.015 8.46805 L330.015 9.46805 L330.015 10.468 L330.015 11.468 L330.015 12.468 L330.015 13.468 L330.015 14.468 L330.015 15.468 L330.015 16.4681 L330.015 17.4681 L330.015 18.4681 L330.015 19.4681 L330.015 20.4681 L330.015 21.4681 L330.015 22.4681 L330.015 23.4681 L330.015 24.4681 L330.015 25.4681 L330.015 26.4681 L330.015 26.544 L330.015 27.544 L330.015 28.544 L330.015 29.544 L330.015 30.544 L330.015 31.544 L330.015 32.544 L330.015 33.544 L330.015 34.544 L330.015 35.544 L330.015 36.544 L330.015 37.544 L330.015 38.544 L330.015 39.544 L330.015 40.544 L330.015 41.544 L330.015 42.544 L330.015 43.544 L330.015 44.544 L330.015 45.544 L330.015 46.544 L330.015 47.544 L330.015 48.544 L330.015 49.544 L330.015 50.544 L330.015 51.544 L330.015 52.544 L330.015 53.544 L330.015 54.544 L330.015 55.544 L330.015 56.544 L330.015 57.544 L330.015 58.544 L330.015 59.544 L330.015 60.544 L331.015 60.544 L332.015 60.544 L333.015 60.544 L334.015 60.544 L335.015 60.544 L336.015 60.544 L337.015 60.544 L338.015 60.544 L339.015 60.544 L340.015 60.544 L341.015 60.544 L342.015 60.544 L343.015 60.544 L344.015 60.544 L345.015 60.544 L346.015 60.544 L347.015 60.544 L348.015 60.544 L349.015 60.544 L350.015 60.544 L351.015 60.544 L352.015 60.544 L353.015 60.544 L354.015 60.544 L355.015 60.544 L355.413 60.544 L355.413 61.2349 L355.413 62.2349 L355.413 63.2349 L355.413 64.2349 L355.413 65.2349 L355.413 66.2349 L355.413 67.2349 L355.413 68.2349 L355.413 69.2349 L355.413 70.2349 L355.413 71.2349 L355.413 72.2349 L355.413 73.2349 L355.413 74.2349 L355.413 75.2349 L355.413 76.2349 L355.413 77.2349 L355.413 78.2349 L355.413 79.2349 L355.413 80.2349 L355.413 81.2349 L355.413 82.2349 L355.413 83.2349 L355.413 84.2349 L355.413 85.2349 L355.413 86.2349 L355.413 87.2349 L355.413 88.2349 L355.413 89.2349 L355.413 90.2349 L355.413 91.2349 L355.413 92.2349 L355.413 93.2349 L356.413 93.2349 L357.413 93.2349 L358.413 93.2349 L359.413 93.2349 L360.413 93.2349 L361.413 93.2349 L362.413 93.2349 L363.413 93.2349 L364.413 93.2349 L365.413 93.2349 L366.413 93.2349 L367.413 93.2349 L368.413 93.2349 L369.413 93.2349 L370.413 93.2349 L371.413 93.2349 L372.413 93.2349 L373.413 93.2349 L374.413 93.2349 L375.158 93.2349 L375.158 93.9985 L375.158 94.9985 L375.158 95.9985 L375.158 96.9985 L375.158 97.9985 L375.158 98.9985 L375.158 99.9985 L375.158 100.999 L375.158 101.999 L375.158 102.999 L375.158 103.999 L375.158 104.999 L375.158 105.999 L375.158 106.999 L375.158 107.999 L375.158 108.999 L375.158 109.999 L375.158 110.999 L375.158 111.999 L375.158 112.999 L375.158 113.999 L375.158 114.999 L375.158 115.999 L375.158 116.999 L375.158 117.999 L375.158 118.999 L375.158 119.999 L375.158 120.999 L375.158 121.999 L375.158 122.999 L375.158 123.999 L376.158 123.999 L377.158 123.999 L378.158 123.999 L379.158 123.999 L380.158 123.999 L381.158 123.999 L382.158 123.999 L383.158 123.999 L384.158 123.999 L385.158 123.999 L386.158 123.999 L387.158 123.999 L388.158 123.999 L389.158 123.999 L390.158 123.999 L391.158 123.999 L392.158 123.999 L393.158 123.999 L394.158 123.999 L395.158 123.999 L396.158 123.999 L397.158 123.999 L398.158 123.999 L399.158 123.999 L400.158 123.999 L401.158 123.999 L402.158 123.999 L403.158 123.999 L404.158 123.999 L405.158 123.999 L406.158 123.999 L407.158 123.999 L408.158 123.999 L409.158 123.999 L410.158 123.999 L411.158 123.999 L412.158 123.999 L413.158 123.999 L414.158 123.999 L415.158 123.999 L416.158 123.999 L417.158 123.999 L418.158 123.999 L419.158 123.999 L420.158 123.999 L421.158 123.999 L422.158 123.999 L423.158 123.999 L424.158 123.999 L425.158 123.999 L425.158 122.999 Z " />
<path stroke="rgb(0,0,0)" stroke-opacity="1" fill="rgb(200,200,200)" fill-opacity="1" d="M-221.91 19.2322 L-221.91 19.9719 L-221.91 20.7116 L-221.91 21.4513 L-221.91 22.191 L-221.91 22.9307 L-221.91 23.6704 L-221.91 24.4101 L-221.91 25.1498 L-221.91 25.8895 L-221.91 26.6292 L-221.91 27.3689 L-221.91 28.1086 L-221.91 28.8483 L-221.91 29.588 L-221.91 30.3277 L-221.91 31.0674 L-221.91 31.8071 L-221.91 32.5468 L-221.91 33.2865 L-221.91 34.0262 L-221.91 34.7659 L-221.91 35.5056 L-221.91 36.2453 L-221.91 36.985 L-221.91 37.7247 L-221.91 38.4644 L-221.91 39.2041 L-221.91 39.9438 L-221.91 40.6835 L-221.91 41.4232 L-221.91 42.1629 L-221.91 42.9026 L-221.91 43.6423 L-221.91 44.382 L-221.91 45.1217 L-221.91 45.8614 L-221.91 46.6011 L-221.91 47.3408 L-221.91 48.0805 L-221.91 48.8202 L-221.91 49.5599 L-221.91 50.2996 L-221.91 51.0393 L-221.91 51.779 L-221.91 52.5187 L-221.91 53.2584 L-221.91 53.9981 L-221.91 54.7378 L-221.91 55.4775 L-221.91 56.2172 L-221.91 56.9569 L-221.91 57.6966 L-221.91 58.4363 L-221.91 59.176 L-221.91 59.9157 L-221.91 60.6554 L-221.91 61.3951 L-221.91 62.1348 L-221.91 62.8745 L-221.91 63.6142 L-221.91 64.3539 L-221.91 65.0936 L-221.91 65.8333 L-221.91 66.573 L-221.91 67.3127 L-221.91 68.0524 L-221.91 68.7921 L-221.91 69.5318 L-221.91 70.2715 L-221.91 71.0112 L-221.91 71.7509 L-221.91 72.4906 L-221.91 73.2303 L-221.91 73.97 L-221.91 74.7097 L-221.91 75.4494 L-221.91 76.1891 L-221.91 76.9288 L-221.91 77.6685 L-221.91 78.4082 L-221.91 79.1479 L-221.91 79.8876 L-221.91 80.6273 L-221.91 81.367 L-221.91 82.1067 L-221.91 82.8464 L-221.91 83.5861 L-221.91 84.3258 L-221.91 85.0655 L-221.91 85.8052 L-221.91 86.5449 L-221.91 87.2846 L-221.91 88.0243 L-221.91 88.764 L-221.91 89.5037 L-221.91 90.2434 L-221.91 90.9831 L-221.91 91.7228 L-221.91 92.4625 L-221.91 93.2022 L-221.91 93.9419 L-221.91 94.6816 L-221.91 95.4213 L-221.91 96.161 L-221.91 96.9007 L-221.91 97.6404 L-221.91 98.3801 L-221.91 99.1198 L-221.91 99.8595 L-221.91 100.599 L-221.91 101.339 L-221.91 102.079 L-221.91 102.818 L-221.91 103.558 L-221.91 104.298 L-221.91 105.037 L-221.91 105.777 L-221.91 106.517 L-221.91 107.257 L-221.91 107.996 L-221.91 108.736 L-221.91 109.476 L-221.91 110.215 L-221.91 110.955 L-221.91 111.695 L-221.91 112.434 L-221.91 113.174 L-221.91 113.914 L-221.91 114.654 L-221.91 115.393 L-221.91 116.133 L-221.91 116.873 L-221.91 117.612 L-221.91 118.352 L-221.91 119.092 L-221.91 119.831 L-221.91 120.571 L-221.91 121.311 L-221.91 122.051 L-221.91 122.79 L-221.91 123.53 L-221.91 124.27 L-221.91 125.009 L-221.91 125.749 L-221.91 126.489 L-221.91 127.228 L-221.91 127.968 L-221.91 128.708 L-221.91 129.448 L-221.91 130.187 L-221.91 130.927 L-221.91 131.667 L-221.91 132.406 L-221.91 133.146 L-221.91 133.886 L-221.91 134.625 L-221.91 135.365 L-221.91 136.105 L-221.91 136.845 L-221.91 137.584 L-221.91 138.324 L-221.91 139.064 L-221.91 139.803 L-221.91 140.543 L-221.91 141.283 L-221.91 142.022 L-221.91 142.762 L-221.91 143.502 L-221.91 144.242 L-221.91 144.981 L-221.91 145.721 L-221.91 146.461 L-221.91 147.2 L-221.91 147.94 L-221.91 148.68 L-221.91 149.419 L-221.91 150.159 L-221.91 150.899 L-221.91 151.639 L-221.91 152.378 L-221.91 153.118 L-221.91 153.858 L-221.91 154.597 L-221.91 155.337 L-221.91 156.077 L-221.91 156.816 L-221.91 157.556 L-221.91 158.296 L-221.91 159.036 L-221.91 159.775 L-221.91 160.515 L-221.91 161.255 L-221.91 161.994 L-221.91 162.734 L-221.91 163.474 L-221.91 164.213 L-221.91 164.953 L-221.91 165.693 L-221.91 166.433 L-221.91 167.172 L-221.91 167.912 L-221.91 168.652 L-221.91 169.391 L-221.91 170.131 L-221.91 170.871 L-221.91 171.61 L-221.91 172.35 L-221.91 173.09 L-221.91 173.83 L-221.91 174.569 L-221.91 175.309 L-221.91 176.049 L-221.91 176.788 L-221.91 177.528 L-221.91 178.268 L-221.91 179.007 L-221.91 179.747 L-221.91 180.487 L-221.91 181.227 L-221.91 181.966 L-221.91 182.706 L-221.91 183.446 L-221.91 184.185 L-221.91 184.925 L-221.91 185.665 L-221.91 186.404 L-221.91 187.144 L-221.91 187.884 L-221.91 188.624 L-221.91 189.363 L-221.91 190.103 L-221.91 190.843 L-221.91 191.582 L-221.91 192.322 L-221.91 193.062 L-221.91 193.801 L-221.91 194.541 L-221.91 195.281 L-221.91 196.021 L-221.91 196.76 L-221.91 197.5 L-221.91 198.24 L-221.91 198.979 L-221.91 199.719 L-221.91 200.459 L-221.91 201.198 L-221.91 201.938 L-221.91 202.678 L-221.91 203.418 L-221.91 204.157 L-221.91 204.897 L-221.91 205.637 L-221.91 206.376 L-221.91 207.116 L-221.91 207.856 L-221.91 208.595 L-221.91 209.335 L-221.91 210.075 L-221.91 210.815 L-221.91 211.554 L-221.91 212.294 L-221.91 213.034 L-221.91 213.773 L-221.91 214.513 L-221.91 215.253 L-221.91 215.993 L-221.91 216.732 L-221.91 217.472 L-221.91 218.212 L-221.91 218.951 L-221.91 219.691 L-221.91 220.431 L-221.91 221.17 L-221.91 221.91 L-221.17 221.91 L-220.431 221.91 L-219.691 221.91 L-218.951 221.91 L-218.212 221.91 L-217.472 221.91 L-216.732 221.91 L-215.993 221.91 L-215.253 221.91 L-214.513 221.91 L-213.773 221.91 L-213.034 221.91 L-212.294 221.91 L-211.554 221.91 L-210.815 221.91 L-210.075 221.91 L-209.335 221.91 L-208.595 221.91 L-207.856 221.91 L-207.116 221.91 L-206.376 221.91 L-205.637 221.91 L-204.897 221.91 L-204.157 221.91 L-203.418 221.91 L-202.678 221.91 L-201.938 221.91 L-201.198 221.91 L-200.459 221.91 L-199.719 221.91 L-198.979 221.91 L-198.24 221.91 L-197.5 221.91 L-196.76 221.91 L-196.021 221.91 L-195.281 221.91 L-194.541 221.91 L-193.801 221.91 L-193.062 221.91 L-192.322 221.91 L-191.582 221.91 L-190.843 221.91 L-190.103 221.91 L-189.363 221.91 L-188.624 221.91 L-187.884 221.91 L-187.144 221.91 L-186.404 221.91 L-185.665 221.91 L-184.925 221.91 L-184.185 221.91 L-183.446 221.91 L-182.706 221.91 L-181.966 221.91 L-181.227 221.91 L-180.487 221.91 L-179.747 221.91 L-179.007 221.91 L-178.268 221.91 L-177.528 221.91 L-176.788 221.91 L-176.049 221.91 L-175.309 221.91 L-174.569 221.91 L-173.83 221.91 L-173.09 221.91 L-172.35 221.91 L-171.61 221.91 L-170.871 221.91 L-170.131 221.91 L-169.391 221.91 L-168.652 221.91 L-167.912 221.91 L-167.172 221.91 L-166.433 221.91 L-165.693 221.91 L-164.953 221.91 L-164.213 221.91 L-163.474 221.91 L-162.734 221.91 L-161.994 221.91 L-161.255 221.91 L-160.515 221.91 L-159.775 221.91 L-159.036 221.91 L-158.296 221.91 L-157.556 221.91 L-156.816 221.91 L-156.077 221.91 L-155.337 221.91 L-154.597 221.91 L-153.858 221.91 L-153.118 221.91 L-152.378 221.91 L-151.639 221.91 L-150.899 221.91 L-150.159 221.91 L-149.419 221.91 L-148.68 221.91 L-147.94 221.91 L-147.2 221.91 L-146.461 221.91 L-145.721 221.91 L-144.981 221.91 L-144.242 221.91 L-143.502 221.91 L-142.762 221.91 L-142.022 221.91 L-141.283 221.91 L-140.543 221.91 L-139.803 221.91 L-139.064 221.91 L-138.324 221.91 L-137.584 221.91 L-136.845 221.91 L-136.105 221.91 L-135.365 221.91 L-134.625 221.91 L-133.886 221.91 L-133.146 221.91 L-132.406 221.91 L-131.667 221.91 L-130.927 221.91 L-130.187 221.91 L-129.448 221.91 L-128.708 221.91 L-127.968 221.91 L-127.228 221.91 L-126.489 221.91 L-125.749 221.91 L-125.009 221.91 L-124.27 221.91 L-123.53 221.91 L-122.79 221.91 L-122.051 221.91 L-121.311 221.91 L-120.571 221.91 L-119.831 221.91 L-119.092 221.91 L-118.352 221.91 L-117.612 221.91 L-116.873 221.91 L-116.133 221.91 L-115.393 221.91 L-114.654 221.91 L-113.914 221.91 L-113.174 221.91 L-112.434 221.91 L-111.695 221.91 L-110.955 221.91 L-110.215 221.91 L-109.476 221.91 L-108.736 221.91 L-107.996 221.91 L-107.257 221.91 L-106.517 221.91 L-105.777 221.91 L-105.037 221.91 L-104.298 221.91 L-103.558 221.91 L-102.818 221.91 L-102.079 221.91 L-101.339 221.91 L-100.599 221.91 L-99.8595 221.91 L-99.1198 221.91 L-98.3801 221.91 L-97.6404 221.91 L-96.9007 221.91 L-96.161 221.91 L-95.4213 221.91 L-94.6816 221.91 L-93.9419 221.91 L-93.2022 221.91 L-92.4625 221.91 L-91.7228 221.91 L-90.9831 221.91 L-90.2434 221.91 L-89.5037 221.91 L-88.764 221.91 L-88.0243 221.91 L-87.2846 221.91 L-86.5449 221.91 L-85.8052 221.91 L-85.0655 221.91 L-84.3258 221.91 L-83.5861 221.91 L-82.8464 221.91 L-82.1067 221.91 L-81.367 221.91 L-80.6273 221.91 L-79.8876 221.91 L-79.1479 221.91 L-78.4082 221.91 L-77.6685 221.91 L-76.9288 221.91 L-76.1891 221.91 L-75.4494 221.91 L-74.7097 221.91 L-73.97 221.91 L-73.2303 221.91 L-72.4906 221.91 L-71.7509 221.91 L-71.0112 221.91 L-70.2715 221.91 L-69.5318 221.91 L-68.7921 221.91 L-68.0524 221.91 L-67.3127 221.91 L-66.573 221.91 L-65.8333 221.91 L-65.0936 221.91 L-64.3539 221.91 L-63.6142 221.91 L-62.8745 221.91 L-62.1348 221.91 L-61.3951 221.91 L-60.6554 221.91 L-59.9157 221.91 L-59.176 221.91 L-58.4363 221.91 L-57.6966 221.91 L-56.9569 221.91 L-56.2172 221.91 L-55.4775 221.91 L-54.7378 221.91 L-53.9981 221.91 L-53.2584 221.91 L-52.5187 221.91 L-51.779 221.91 L-51.0393 221.91 L-50.2996 221.91 L-49.5599 221.91 L-48.8202 221.91 L-48.0805 221.91 L-47.3408 221.91 L-46.6011 221.91 L-45.8614 221.91 L-45.1217 221.91 L-44.382 221.91 L-43.6423 221.91 L-42.9026 221.91 L-42.1629 221.91 L-41.4232 221.91 L-40.6835 221.91 L-39.9438 221.91 L-39.2041 221.91 L-38.4644 221.91 L-37.7247 221.91 L-36.985 221.91 L-36.2453 221.91 L-35.5056 221.91 L-34.7659 221.91 L-34.0262 221.91 L-33.2865 221.91 L-32.5468 221.91 L-31.8071 221.91 L-31.0674 221.91 L-30.3277 221.91 L-29.588 221.91 L-28.8483 221.91 L-28.1086 221.91 L-27.3689 221.91 L-26.6292 221.91 L-25.8895 221.91 L-25.1498 221.91 L-24.4101 221.91 L-23.6704 221.91 L-22.9307 221.91 L-22.191 221.91 L-21.4513 221.91 L-20.7116 221.91 L-19.9719 221.91 L-19.2322 221.91 L-18.4925 221.91 L-17.7528 221.91 L-17.0131 221.91 L-16.2734 221.91 L-15.5337 221.91 L-14.794 221.91 L-14.0543 221.91 L-13.3146 221.91 L-12.5749 221.91 L-11.8352 221.91 L-11.0955 221.91 L-10.3558 221.91 L-9.6161 221.91 L-8.8764 221.91 L-8.13669 221.91 L-7.397 221.91 L-6.6573 221.91 L-5.9176 221.91 L-5.1779 221.91 L-4.4382 221.91 L-3.6985 221.91 L-2.9588 221.91 L-2.2191 221.91 L-1.4794 221.91 L-0.7397 221.91 L0 221.91 L0.7397 221.91 L1.4794 221.91 L2.2191 221.91 L2.9588 221.91 L3.6985 221.91 L4.4382 221.91 L5.1779 221.91 L5.9176 221.91 L6.6573 221.91 L7.397 221.91 L8.13669 221.91 L8.8764 221.91 L9.6161 221.91 L10.3558 221.91 L11.0955 221.91 L11.8352 221.91 L12.5749 221.91 L13.3146 221.91 L14.0543 221.91 L14.794 221.91 L15.5337 221.91 L16.2734 221.91 L17.0131 221.91 L17.7528 221.91 L18.4925 221.91 L19.2322 221.91 L19.9719 221.91 L20.7116 221.91 L21.4513 221.91 L22.191 221.91 L22.9307 221.91 L23.6704 221.91 L24.4101 221.91 L25.1498 221.91 L25.8895 221.91 L26.6292 221.91 L27.3689 221.91 L28.1086 221.91 L28.8483 221.91 L29.588 221.91 L30.3277 221.91 L31.0674 221.91 L31.8071 221.91 L32.5468 221.91 L33.2865 221.91 L34.0262 221.91 L34.7659 221.91 L35.5056 221.91 L36.2453 221.91 L36.985 221.91 L37.7247 221.91 L38.4644 221.91 L39.2041 221.91 L39.9438 221.91 L40.6835 221.91 L41.4232 221.91 L42.1629 221.91 L42.9026 221.91 L43.6423 221.91 L44.382 221.91 L45.1217 221.91 L45.8614 221.91 L46.6011 221.91 L47.3408 221.91 L48.0805 221.91 L48.8202 221.91 L49.5599 221.91 L50.2996 221.91 L51.0393 221.91 L51.779 221.91 L52.5187 221.91 L53.2584 221.91 L53.9981 221.91 L54.7378 221.91 L55.4775 221.91 L56.2172 221.91 L56.9569 221.91 L57.6966 221.91 L58.4363 221.91 L59.176 221.91 L59.9157 221.91 L60.6554 221.91 L61.3951 221.91 L62.1348 221.91 L62.8745 221.91 L63.6142 221.91 L64.3539 221.91 L65.0936 221.91 L65.8333 221.91 L66.573 221.91 L67.3127 221.91 L68.0524 221.91 L68.7921 221.91 L69.5318 221.91 L70.2715 221.91 L71.0112 221.91 L71.7509 221.91 L72.4906 221.91 L73.2303 221.91 L73.97 221.91 L74.7097 221.91 L75.4494 221.91 L76.1891 221.91 L76.9288 221.91 L77.6685 221.91 L78.4082 221.91 L79.1479 221.91 L79.8876 221.91 L80.6273 221.91 L81.367 221.91 L82.1067 221.91 L82.8464 221.91 L83.5861 221.91 L84.3258 221.91 L85.0655 221.91 L85.8052 221.91 L86.5449 221.91 L87.2846 221.91 L88.0243 221.91 L88.764 221.91 L89.5037 221.91 L90.2434 221.91 L90.9831 221.91 L91.7228 221.91 L92.4625 221.91 L93.2022 221.91 L93.9419 221.91 L94.6816 221.91 L95.4213 221.91 L96.161 221.91 L96.9007 221.91 L97.6404 221.91 L98.3801 221.91 L99.1198 221.91 L99.8595 221.91 L100.599 221.91 L101.339 221.91 L102.079 221.91 L102.818 221.91 L103.558 221.91 L104.298 221.91 L105.037 221.91 L105.777 221.91 L106.517 221.91 L107.257 221.91 L107.996 221.91 L108.736 221.91 L109.476 221.91 L110.215 221.91 L110.955 221.91 L111.695 221.91 L112.434 221.91 L113.174 221.91 L113.914 221.91 L114.654 221.91 L115.393 221.91 L116.133 221.91 L116.873 221.91 L117.612 221.91 L118.352 221.91 L119.092 221.91 L119.831 221.91 L120.571 221.91 L121.311 221.91 L122.051 221.91 L122.79 221.91 L123.53 221.91 L124.27 221.91 L125.009 221.91 L125.749 221.91 L126.489 221.91 L127.228 221.91 L127.968 221.91 L128.708 221.91 L129.448 221.91 L130.187 221.91 L130.927 221.91 L131.667 221.91 L132.406 221.91 L133.146 221.91 L133.886 221.91 L134.625 221.91 L135.365 221.91 L136.105 221.91 L136.845 221.91 L137.584 221.91 L138.324 221.91 L139.064 221.91 L139.803 221.91 L140.543 221.91 L141.283 221.91 L142.022 221.91 L142.762 221.91 L143.502 221.91 L144.242 221.91 L144.981 221.91 L145.721 221.91 L146.461 221.91 L147.2 221.91 L147.94 221.91 L148.68 221.91 L149.419 221.91 L150.159 221.91 L150.899 221.91 L151.639 221.91 L152.378 221.91 L153.118 221.91 L153.858 221.91 L154.597 221.91 L155.337 221.91 L156.077 221.91 L156.816 221.91 L157.556 221.91 L158.296 221.91 L159.036 221.91 L159.775 221.91 L160.515 221.91 L161.255 221.91 L161.994 221.91 L162.734 221.91 L163.474 221.91 L164.213 221.91 L164.953 221.91 L165.693 221.91 L166.433 221.91 L167.172 221.91 L167.912 221.91 L168.652 221.91 L169.391 221.91 L170.131 221.91 L170.871 221.91 L171.61 221.91 L172.35 221.91 L173.09 221.91 L173.83 221.91 L174.569 221.91 L175.309 221.91 L176.049 221.91 L176.788 221.91 L177.528 221.91 L178.268 221.91 L179.007 221.91 L179.747 221.91 L180.487 221.91 L181.227 221.91 L181.966 221.91 L182.706 221.91 L183.446 221.91 L184.185 221.91 L184.925 221.91 L185.665 221.91 L186.404 221.91 L187.144 221.91 L187.884 221.91 L188.624 221.91 L189.363 221.91 L190.103 221.91 L190.843 221.91 L191.582 221.91 L192.322 221.91 L193.062 221.91 L193.801 221.91 L194.541 221.91 L195.281 221.91 L196.021 221.91 L196.76 221.91 L197.5 221.91 L198.24 221.91 L198.979 221.91 L199.719 221.91 L200.459 221.91 L201.198 221.91 L201.938 221.91 L202.678 221.91 L203.418 221.91 L204.157 221.91 L204.897 221.91 L205.637 221.91 L206.376 221.91 L207.116 221.91 L207.856 221.91 L208.595 221.91 L209.335 221.91 L210.075 221.91 L210.815 221.91 L211.554 221.91 L212.294 221.91 L213.034 221.91 L213.773 221.91 L214.513 221.91 L215.253 221.91 L215.993 221.91 L216.732 221.91 L217.472 221.91 L218.212 221.91 L218.951 221.91 L219.691 221.91 L220.431 221.91 L221.17 221.91 L221.91 221.91 L221.91 221.17 L221.91 220.431 L221.91 219.691 L221.91 218.951 L221.91 218.212 L221.91 217.472 L221.91 216.732 L221.91 215.993 L221.91 215.253 L221.91 214.513 L221.91 213.773 L221.91 213.034 L221.91 212.294 L221.91 211.554 L221.91 210.815 L221.91 210.075 L221.91 209.335 L221.91 208.595 L221.91 207.856 L221.91 207.116 L221.91 206.376 L221.91 205.637 L221.91 204.897 L221.91 204.157 L221.91 203.418 L221.91 202.678 L221.91 201.938 L221.91 201.198 L221.91 200.459 L221.91 199.719 L221.91 198.979 L221.91 198.24 L221.91 197.5 L221.91 196.76 L221.91 196.021 L221.91 195.281 L221.91 194.541 L221.91 193.801 L221.91 193.062 L221.91 192.322 L221.91 191.582 L221.91 190.843 L221.91 190.103 L221.91 189.363 L221.91 188.624 L221.91 187.884 L221.91 187.144 L221.91 186.404 L221.91 185.665 L221.91 184.925 L221.91 184.185 L221.91 183.446 L221.91 182.706 L221.91 181.966 L221.91 181.227 L221.91 180.487 L221.91 179.747 L221.91 179.007 L221.91 178.268 L221.91 177.528 L221.91 176.788 L221.91 176.049 L221.91 175.309 L221.91 174.569 L221.91 173.83 L221.91 173.09 L221.91 172.35 L221.91 171.61 L221.91 170.871 L221.91 170.131 L221.91 169.391 L221.91 168.652 L221.91 167.912 L221.91 167.172 L221.91 166.433 L221.91 165.693 L221.91 164.953 L221.91 164.213 L221.91 163.474 L221.91 162.734 L221.91 161.994 L221.91 161.255 L221.91 160.515 L221.91 159.775 L221.91 159.036 L221.91 158.296 L221.91 157.556 L221.91 156.816 L221.91 156.077 L221.91 155.337 L221.91 154.597 L221.91 153.858 L221.91 153.118 L221.91 152.378 L221.91 151.639 L221.91 150.899 L221.91 150.159 L221.91 149.419 L221.91 148.68 L221.91 147.94 L221.91 147.2 L221.91 146.461 L221.91 145.721 L221.91 144.981 L221.91 144.242 L221.91 143.502 L221.91 142.762 L221.91 142.022 L221.91 141.283 L221.91 140.543 L221.91 139.803 L221.91 139.064 L221.91 138.324 L221.91 137.584 L221.91 136.845 L221.91 136.105 L221.91 135.365 L221.91 134.625 L221.91 133.886 L221.91 133.146 L221.91 132.406 L221.91 131.667 L221.91 130.927 L221.91 130.187 L221.91 129.448 L221.91 128.708 L221.91 127.968 L221.91 127.228 L221.91 126.489 L221.91 125.749 L221.91 125.009 L221.91 124.27 L221.91 123.53 L221.91 122.79 L221.91 122.051 L221.91 121.311 L221.91 120.571 L221.91 119.831 L221.91 119.092 L221.91 118.352 L221.91 117.612 L221.91 116.873 L221.91 116.133 L221.91 115.393 L221.91 114.654 L221.91 113.914 L221.91 113.174 L221.91 112.434 L221.91 111.695 L221.91 110.955 L221.91 110.215 L221.91 109.476 L221.91 108.736 L221.91 107.996 L221.91 107.257 L221.91 106.517 L221.91 105.777 L221.91 105.037 L221.91 104.298 L221.91 103.558 L221.91 102.818 L221.91 102.079 L221.91 101.339 L221.91 100.599 L221.91 99.8595 L221.91 99.1198 L221.91 98.3801 L221.91 97.6404 L221.91 96.9007 L221.91 96.161 L221.91 95.4213 L221.91 94.6816 L221.91 93.9419 L221.91 93.2022 L221.91 92.4625 L221.91 91.7228 L221.91 90.9831 L221.91 90.2434 L221.91 89.5037 L221.91 88.764 L221.91 88.0243 L221.91 87.2846 L221.91 86.5449 L221.91 85.8052 L221.91 85.0655 L221.91 84.3258 L221.91 83.5861 L221.91 82.8464 L221.91 82.1067 L221.91 81.367 L221.91 80.6273 L221.91 79.8876 L221.91 79.1479 L221.91 78.4082 L221.91 77.6685 L221.91 76.9288 L221.91 76.1891 L221.91 75.4494 L221.91 74.7097 L221.91 73.97 L221.91 73.2303 L221.91 72.4906 L221.91 71.7509 L221.91 71.0112 L221.91 70.2715 L221.91 69.5318 L221.91 68.7921 L221.91 68.0524 L221.91 67.3127 L221.91 66.573 L221.91 65.8333 L221.91 65.0936 L221.91 64.3539 L221.91 63.6142 L221.91 62.8745 L221.91 62.1348 L221.91 61.3951 L221.91 60.6554 L221.91 59.9157 L221.91 59.176 L221.91 58.4363 L221.91 57.6966 L221.91 56.9569 L221.91 56.2172 L221.91 55.4775 L221.91 54.7378 L221.91 53.9981 L221.91 53.2584 L221.91 52.5187 L221.91 51.779 L221.91 51.0393 L221.91 50.2996 L221.91 49.5599 L221.91 48.8202 L221.91 48.0805 L221.91 47.3408 L221.91 46.6011 L221.91 45.8614 L221.91 45.1217 L221.91 44.382 L221.91 43.6423 L221.91 42.9026 L221.91 42.1629 L221.91 41.4232 L221.91 40.6835 L221.91 39.9438 L221.91 39.2041 L221.91 38.4644 L221.91 37.7247 L221.91 36.985 L221.91 36.2453 L221.91 35.5056 L221.91 34.7659 L221.91 34.0262 L221.91 33.2865 L221.91 32.5468 L221.91 31.8071 L221.91 31.0674 L221.91 30.3277 L221.91 29.588 L221.91 28.8483 L221.91 28.1086 L221.91 27.3689 L221.91 26.6292 L221.91 25.8895 L221.91 25.1498 L221.91 24.4101 L221.91 23.6704 L221.91 22.9307 L221.91 22.191 L221.91 21.4513 L221.91 20.7116 L221.91 19.9719 L221.91 19.2322 L221.91 18.4925 L221.91 17.7528 L221.91 17.0131 L221.91 16.2734 L221.91 15.5337 L221.91 14.794 L221.91 14.0543 L221.91 13.3146 L221.91 12.5749 L221.91 11.8352 L221.91 11.0955 L221.91 10.3558 L221.91 9.6161 L221.91 8.8764 L221.91 8.13669 L221.91 7.397 L221.91 6.6573 L221.91 5.9176 L221.91 5.1779 L221.91 4.4382 L221.91 3.6985 L221.91 2.9588 L221.91 2.2191 L221.91 1.4794 L221.91 0.7397 L221.91 0 L221.91 -0.7397 L221.91 -1.4794 L221.91 -2.2191 L221.91 -2.9588 L221.91 -3.6985 L221.91 -4.4382 L221.91 -5.1779 L221.91 -5.9176 L221.91 -6.6573 L221.91 -7.397 L221.91 -8.13669 L221.91 -8.8764 L221.91 -9.6161 L221.91 -10.3558 L221.91 -11.0955 L221.91 -11.8352 L221.91 -12.5749 L221.91 -13.3146 L221.91 -14.0543 L221.91 -14.794 L221.91 -15.5337 L221.91 -16.2734 L221.91 -17.0131 L221.91 -17.7528 L221.91 -18.4925 L221.91 -19.2322 L221.91 -19.9719 L221.91 -20.7116 L221.91 -21.4513 L221.91 -22.191 L221.91 -22.9307 L221.91 -23.6704 L221.91 -24.4101 L221.91 -25.1498 L221.91 -25.8895 L221.91 -26.6292 L221.91 -27.3689 L221.91 -28.1086 L221.91 -28.8483 L221.91 -29.588 L221.91 -30.3277 L221.91 -31.0674 L221.91 -31.8071 L221.91 -32.5468 L221.91 -33.2865 L221.91 -34.0262 L221.91 -34.7659 L221.91 -35.5056 L221.91 -36.2453 L221.91 -36.985 L221.91 -37.7247 L221.91 -38.4644 L221.91 -39.2041 L221.91 -39.9438 L221.91 -40.6835 L221.91 -41.4232 L221.91 -42.1629 L221.91 -42.9026 L221.91 -43.6423 L221.91 -44.382 L221.91 -45.1217 L221.91 -45.8614 L221.91 -46.6011 L221.91 -47.3408 L221.91 -48.0805 L221.91 -48.8202 L221.91 -49.5599 L221.91 -50.2996 L221.91 -51.0393 L221.91 -51.779 L221.91 -52.5187 L221.91 -53.2584 L221.91 -53.9981 L221.91 -54.7378 L221.91 -55.4775 L221.91 -56.2172 L221.91 -56.9569 L221.91 -57.6966 L221.91 -58.4363 L221.91 -59.176 L221.91 -59.9157 L221.91 -60.6554 L221.91 -61.3951 L221.91 -62.1348 L221.91 -62.8745 L221.91 -63.6142 L221.91 -64.3539 L221.91 -65.0936 L221.91 -65.8333 L221.91 -66.573 L221.91 -67.3127 L221.91 -68.0524 L221.91 -68.7921 L221.91 -69.5318 L221.91 -70.2715 L221.91 -71.0112 L221.91 -71.7509 L221.91 -72.4906 L221.91 -73.2303 L221.91 -73.97 L221.91 -74.7097 L221.91 -75.4494 L221.91 -76.1891 L221.91 -76.9288 L221.91 -77.6685 L221.91 -78.4082 L221.91 -79.1479 L221.91 -79.8876 L221.91 -80.6273 L221.91 -81.367 L221.91 -82.1067 L221.91 -82.8464 L221.91 -83.5861 L221.91 -84.3258 L221.91 -85.0655 L221.91 -85.8052 L221.91 -86.5449 L221.91 -87.2846 L221.91 -88.0243 L221.91 -88.764 L221.91 -89.5037 L221.91 -90.2434 L221.91 -90.9831 L221.91 -91.7228 L221.91 -92.4625 L221.91 -93.2022 L221.91 -93.9419 L221.91 -94.6816 L221.91 -95.4213 L221.91 -96.161 L221.91 -96.9007 L221.91 -97.6404 L221.91 -98.3801 L221.91 -99.1198 L221.91 -99.8595 L221.91 -100.599 L221.91 -101.339 L221.91 -102.079 L221.91 -102.818 L221.91 -103.558 L221.91 -104.298 L221.91 -105.037 L221.91 -105.777 L221.91 -106.517 L221.91 -107.257 L221.91 -107.996 L221.91 -108.736 L221.91 -109.476 L221.91 -110.215 L221.91 -110.955 L221.91 -111.695 L221.91 -112.434 L221.91 -113.174 L221.91 -113.914 L221.91 -114.654 L221.91 -115.393 L221.91 -116.133 L221.91 -116.873 L221.91 -117.612 L221.91 -118.352 L221.91 -119.092 L221.91 -119.831 L221.91 -120.571 L221.91 -121.311 L221.91 -122.051 L221.91 -122.79 L221.91 -123.53 L221.91 -124.27 L221.91 -125.009 L221.91 -125.749 L221.91 -126.489 L221.91 -127.228 L221.91 -127.968 L221.91 -128.708 L221.91 -129.448 L221.91 -130.187 L221.91 -130.927 L221.91 -131.667 L221.91 -132.406 L221.91 -133.146 L221.91 -133.886 L221.91 -134.625 L221.91 -135.365 L221.91 -136.105 L221.91 -136.845 L221.91 -137.584 L221.91 -138.324 L221.91 -139.064 L221.91 -139.803 L221.91 -140.543 L221.91 -141.283 L221.91 -142.022 L221.91 -142.762 L221.91 -143.502 L221.91 -144.242 L221.91 -144.981 L221.91 -145.721 L221.91 -146.461 L221.91 -147.2 L221.91 -147.94 L221.91 -148.68 L221.91 -149.419 L221.91 -150.159 L221.91 -150.899 L221.91 -151.639 L221.91 -152.378 L221.91 -153.118 L221.91 -153.858 L221.91 -154.597 L221.91 -155.337 L221.91 -156.077 L221.91 -156.816 L221.91 -157.556 L221.91 -158.296 L221.91 -159.036 L221.91 -159.775 L221.91 -160.515 L221.91 -161.255 L221.91 -161.994 L221.91 -162.734 L221.91 -163.474 L221.91 -164.213 L221.91 -164.953 L221.91 -165.693 L221.91 -166.433 L221.91 -167.172 L221.91 -167.912 L221.91 -168.652 L221.91 -169.391 L221.91 -170.131 L221.91 -170.871 L221.91 -171.61 L221.91 -172.35 L221.91 -173.09 L221.91 -173.83 L221.91 -174.569 L221.91 -175.309 L221.91 -176.049 L221.91 -176.788 L221.91 -177.528 L221.91 -178.268 L221.91 -179.007 L221.91 -179.747 L221.91 -180.487 L221.91 -181.227 L221.91 -181.966 L221.91 -182.706 L221.91 -183.446 L221.91 -184.185 L221.91 -184.925 L221.91 -185.665 L221.91 -186.404 L221.91 -187.144 L221.91 -187.884 L221.91 -188.624 L221.91 -189.363 L221.91 -190.103 L221.91 -190.843 L221.91 -191.582 L221.91 -192.322 L221.91 -193.062 L221.91 -193.801 L221.91 -194.541 L221.91 -195.281 L221.91 -196.021 L221.91 -196.76 L221.91 -197.5 L221.91 -198.24 L221.91 -198.979 L221.91 -199.719 L221.91 -200.459 L221.91 -201.198 L221.91 -201.938 L221.91 -202.678 L221.91 -203.418 L221.91 -204.157 L221.91 -204.897 L221.91 -205.637 L221.91 -206.376 L221.91 -207.116 L221.91 -207.856 L221.91 -208.595 L221.91 -209.335 L221.91 -210.075 L221.91 -210.815 L221.91 -211.554 L221.91 -212.294 L221.91 -213.034 L221.91 -213.773 L221.91 -214.513 L221.91 -215.253 L221.91 -215.993 L221.91 -216.732 L221.91 -217.472 L221.91 -218.212 L221.91 -218.951 L221.91 -219.691 L221.91 -220.431 L221.91 -221.17 L221.91 -221.91 L221.17 -221.91 L220.431 -221.91 L219.691 -221.91 L218.951 -221.91 L218.212 -221.91 L217.472 -221.91 L216.732 -221.91 L215.993 -221.91 L215.253 -221.91 L214.513 -221.91 L213.773 -221.91 L213.034 -221.91 L212.294 -221.91 L211.554 -221.91 L210.815 -221.91 L210.075 -221.91 L209.335 -221.91 L208.595 -221.91 L207.856 -221.91 L207.116 -221.91 L206.376 -221.91 L205.637 -221.91 L204.897 -221.91 L204.157 -221.91 L203.418 -221.91 L202.678 -221.91 L201.938 -221.91 L201.198 -221.91 L200.459 -221.91 L199.719 -221.91 L198.979 -221.91 L198.24 -221.91 L197.5 -221.91 L196.76 -221.91 L196.021 -221.91 L195.281 -221.91 L194.541 -221.91 L193.801 -221.91 L193.062 -221.91 L192.322 -221.91 L191.582 -221.91 L190.843 -221.91 L190.103 -221.91 L189.363 -221.91 L188.624 -221.91 L187.884 -221.91 L187.144 -221.91 L186.404 -221.91 L185.665 -221.91 L184.925 -221.91 L184.185 -221.91 L183.446 -221.91 L182.706 -221.91 L181.966 -221.91 L181.227 -221.91 L180.487 -221.91 L179.747 -221.91 L179.007 -221.91 L178.268 -221.91 L177.528 -221.91 L176.788 -221.91 L176.049 -221.91 L175.309 -221.91 L174.569 -221.91 L173.83 -221.91 L173.09 -221.91 L172.35 -221.91 L171.61 -221.91 L170.871 -221.91 L170.131 -221.91 L169.391 -221.91 L168.652 -221.91 L167.912 -221.91 L167.172 -221.91 L166.433 -221.91 L165.693 -221.91 L164.953 -221.91 L164.213 -221.91 L163.474 -221.91 L162.734 -221.91 L161.994 -221.91 L161.255 -221.91 L160.515 -221.91 L159.775 -221.91 L159.036 -221.91 L158.296 -221.91 L157.556 -221.91 L156.816 -221.91 L156.077 -221.91 L155.337 -221.91 L154.597 -221.91 L153.858 -221.91 L153.118 -221.91 L152.378 -221.91 L151.639 -221.91 L150.899 -221.91 L150.159 -221.91 L149.419 -221.91 L148.68 -221.91 L147.94 -221.91 L147.2 -221.91 L146.461 -221.91 L145.721 -221.91 L144.981 -221.91 L144.242 -221.91 L143.502 -221.91 L142.762 -221.91 L142.022 -221.91 L141.283 -221.91 L140.543 -221.91 L139.803 -221.91 L139.064 -221.91 L138.324 -221.91 L137.584 -221.91 L136.845 -221.91 L136.105 -221.91 L135.365 -221.91 L134.625 -221.91 L133.886 -221.91 L133.146 -221.91 L132.406 -221.91 L131.667 -221.91 L130.927 -221.91 L130.187 -221.91 L129.448 -221.91 L128.708 -221.91 L127.968 -221.91 L127.228 -221.91 L126.489 -221.91 L125.749 -221.91 L125.009 -221.91 L124.27 -221.91 L123.53 -221.91 L122.79 -221.91 L122.051 -221.91 L121.311 -221.91 L120.571 -221.91 L119.831 -221.91 L119.092 -221.91 L118.352 -221.91 L117.612 -221.91 L116.873 -221.91 L116.133 -221.91 L115.393 -221.91 L114.654 -221.91 L113.914 -221.91 L113.174 -221.91 L112.434 -221.91 L111.695 -221.91 L110.955 -221.91 L110.215 -221.91 L109.476 -221.91 L108.736 -221.91 L107.996 -221.91 L107.257 -221.91 L106.517 -221.91 L105.777 -221.91 L105.037 -221.91 L104.298 -221.91 L103.558 -221.91 L102.818 -221.91 L102.079 -221.91 L101.339 -221.91 L100.599 -221.91 L99.8595 -221.91 L99.1198 -221.91 L98.3801 -221.91 L97.6404 -221.91 L96.9007 -221.91 L96.161 -221.91 L95.4213 -221.91 L94.6816 -221.91 L93.9419 -221.91 L93.2022 -221.91 L92.4625 -221.91 L91.7228 -221.91 L90.9831 -221.91 L90.2434 -221.91 L89.5037 -221.91 L88.764 -221.91 L88.0243 -221.91 L87.2846 -221.91 L86.5449 -221.91 L85.8052 -221.91 L85.0655 -221.91 L84.3258 -221.91 L83.5861 -221.91 L82.8464 -221.91 L82.1067 -221.91 L81.367 -221.91 L80.6273 -221.91 L79.8876 -221.91 L79.1479 -221.91 L78.4082 -221.91 L77.6685 -221.91 L76.9288 -221.91 L76.1891 -221.91 L75.4494 -221.91 L74.7097 -221.91 L73.97 -221.91 L73.2303 -221.91 L72.4906 -221.91 L71.7509 -221.91 L71.0112 -221.91 L70.2715 -221.91 L69.5318 -221.91 L68.7921 -221.91 L68.0524 -221.91 L67.3127 -221.91 L66.573 -221.91 L65.8333 -221.91 L65.0936 -221.91 L64.3539 -221.91 L63.6142 -221.91 L62.8745 -221.91 L62.1348 -221.91 L61.3951 -221.91 L60.6554 -221.91 L59.9157 -221.91 L59.176 -221.91 L58.4363 -221.91 L57.6966 -221.91 L56.9569 -221.91 L56.2172 -221.91 L55.4775 -221.91 L54.7378 -221.91 L53.9981 -221.91 L53.2584 -221.91 L52.5187 -221.91 L51.779 -221.91 L51.0393 -221.91 L50.2996 -221.91 L49.5599 -221.91 L48.8202 -221.91 L48.0805 -221.91 L47.3408 -221.91 L46.6011 -221.91 L45.8614 -221.91 L45.1217 -221.91 L44.382 -221.91 L43.6423 -221.91 L42.9026 -221.91 L42.1629 -221.91 L41.4232 -221.91 L40.6835 -221.91 L39.9438 -221.91 L39.2041 -221.91 L38.4644 -221.91 L37.7247 -221.91 L36.985 -221.91 L36.2453 -221.91 L35.5056 -221.91 L34.7659 -221.91 L34.0262 -221.91 L33.2865 -221.91 L32.5468 -221.91 L31.8071 -221.91 L31.0674 -221.91 L30.3277 -221.91 L29.588 -221.91 L28.8483 -221.91 L28.1086 -221.91 L27.3689 -221.91 L26.6292 -221.91 L25.8895 -221.91 L25.1498 -221.91 L24.4101 -221.91 L23.6704 -221.91 L22.9307 -221.91 L22.191 -221.91 L21.4513 -221.91 L20.7116 -221.91 L19.9719 -221.91 L19.2322 -221.91 L18.4925 -221.91 L17.7528 -221.91 L17.0131 -221.91 L16.2734 -221.91 L15.5337 -221.91 L14.794 -221.91 L14.0543 -221.91 L13.3146 -221.91 L12.5749 -221.91 L11.8352 -221.91 L11.0955 -221.91 L10.3558 -221.91 L9.6161 -221.91 L8.8764 -221.91 L8.13669 -221.91 L7.397 -221.91 L6.6573 -221.91 L5.9176 -221.91 L5.1779 -221.91 L4.4382 -221.91 L3.6985 -221.91 L2.9588 -221.91 L2.2191 -221.91 L1.4794 -221.91 L0.7397 -221.91 L0 -221.91 L-0.7397 -221.91 L-1.4794 -221.91 L-2.2191 -221.91 L-2.9588 -221.91 L-3.6985 -221.91 L-4.4382 -221.91 L-5.1779 -221.91 L-5.9176 -221.91 L-6.6573 -221.91 L-7.397 -221.91 L-8.13669 -221.91 L-8.8764 -221.91 L-9.6161 -221.91 L-10.3558 -221.91 L-11.0955 -221.91 L-11.8352 -221.91 L-12.5749 -221.91 L-13.3146 -221.91 L-14.0543 -221.91 L-14.794 -221.91 L-15.5337 -221.91 L-16.2734 -221.91 L-17.0131 -221.91 L-17.7528 -221.91 L-18.4925 -221.91 L-19.2322 -221.91 L-19.9719 -221.91 L-20.7116 -221.91 L-21.4513 -221.91 L-22.191 -221.91 L-22.9307 -221.91 L-23.6704 -221.91 L-24.4101 -221.91 L-25.1498 -221.91 L-25.8895 -221.91 L-26.6292 -221.91 L-27.3689 -221.91 L-28.1086 -221.91 L-28.8483 -221.91 L-29.588 -221.91 L-30.3277 -221.91 L-31.0674 -221.91 L-31.8071 -221.91 L-32.5468 -221.91 L-33.2865 -221.91 L-34.0262 -221.91 L-34.7659 -221.91 L-35.5056 -221.91 L-36.2453 -221.91 L-36.985 -221.91 L-37.7247 -221.91 L-38.4644 -221.91 L-39.2041 -221.91 L-39.9438 -221.91 L-40.6835 -221.91 L-41.4232 -221.91 L-42.1629 -221.91 L-42.9026 -221.91 L-43.6423 -221.91 L-44.382 -221.91 L-45.1217 -221.91 L-45.8614 -221.91 L-46.6011 -221.91 L-47.3408 -221.91 L-48.0805 -221.91 L-48.8202 -221.91 L-49.5599 -221.91 L-50.2996 -221.91 L-51.0393 -221.91 L-51.779 -221.91 L-52.5187 -221.91 L-53.2584 -221.91 L-53.9981 -221.91 L-54.7378 -221.91 L-55.4775 -221.91 L-56.2172 -221.91 L-56.9569 -221.91 L-57.6966 -221.91 L-58.4363 -221.91 L-59.176 -221.91 L-59.9157 -221.91 L-60.6554 -221.91 L-61.3951 -221.91 L-62.1348 -221.91 L-62.8745 -221.91 L-63.6142 -221.91 L-64.3539 -221.91 L-65.0936 -221.91 L-65.8333 -221.91 L-66.573 -221.91 L-67.3127 -221.91 L-68.0524 -221.91 L-68.7921 -221.91 L-69.5318 -221.91 L-70.2715 -221.91 L-71.0112 -221.91 L-71.7509 -221.91 L-72.4906 -221.91 L-73.2303 -221.91 L-73.97 -221.91 L-74.7097 -221.91 L-75.4494 -221.91 L-76.1891 -221.91 L-76.9288 -221.91 L-77.6685 -221.91 L-78.4082 -221.91 L-79.1479 -221.91 L-79.8876 -221.91 L-80.6273 -221.91 L-81.367 -221.91 L-82.1067 -221.91 L-82.8464 -221.91 L-83.5861 -221.91 L-84.3258 -221.91 L-85.0655 -221.91 L-85.8052 -221.91 L-86.5449 -221.91 L-87.2846 -221.91 L-88.0243 -221.91 L-88.764 -221.91 L-89.5037 -221.91 L-90.2434 -221.91 L-90.9831 -221.91 L-91.7228 -221.91 L-92.4625 -221.91 L-93.2022 -221.91 L-93.9419 -221.91 L-94.6816 -221.91 L-95.4213 -221.91 L-96.161 -221.91 L-96.9007 -221.91 L-97.6404 -221.91 L-98.3801 -221.91 L-99.1198 -221.91 L-99.8595 -221.91 L-100.599 -221.91 L-101.339 -221.91 L-102.079 -221.91 L-102.818 -221.91 L-103.558 -221.91 L-104.298 -221.91 L-105.037 -221.91 L-105.777 -221.91 L-106.517 -221.91 L-107.257 -221.91 L-107.996 -221.91 L-108.736 -221.91 L-109.476 -221.91 L-110.215 -221.91 L-110.955 -221.91 L-111.695 -221.91 L-112.434 -221.91 L-113.174 -221.91 L-113.914 -221.91 L-114.654 -221.91 L-115.393 -221.91 L-116.133 -221.91 L-116.873 -221.91 L-117.612 -221.91 L-118.352 -221.91 L-119.092 -221.91 L-119.831 -221.91 L-120.571 -221.91 L-121.311 -221.91 L-122.051 -221.91 L-122.79 -221.91 L-123.53 -221.91 L-124.27 -221.91 L-125.009 -221.91 L-125.749 -221.91 L-126.489 -221.91 L-127.228 -221.91 L-127.968 -221.91 L-128.708 -221.91 L-129.448 -221.91 L-130.187 -221.91 L-130.927 -221.91 L-131.667 -221.91 L-132.406 -221.91 L-133.146 -221.91 L-133.886 -221.91 L-134.625 -221.91 L-135.365 -221.91 L-136.105 -221.91 L-136.845 -221.91 L-137.584 -221.91 L-138.324 -221.91 L-139.064 -221.91 L-139.803 -221.91 L-140.543 -221.91 L-141.283 -221.91 L-142.022 -221.91 L-142.762 -221.91 L-143.502 -221.91 L-144.242 -221.91 L-144.981 -221.91 L-145.721 -221.91 L-146.461 -221.91 L-147.2 -221.91 L-147.94 -221.91 L-148.68 -221.91 L-149.419 -221.91 L-150.159 -221.91 L-150.899 -221.91 L-151.639 -221.91 L-152.378 -221.91 L-153.118 -221.91 L-153.858 -221.91 L-154.597 -221.91 L-155.337 -221.91 L-156.077 -221.91 L-156.816 -221.91 L-157.556 -221.91 L-158.296 -221.91 L-159.036 -221.91 L-159.775 -221.91 L-160.515 -221.91 L-161.255 -221.91 L-161.994 -221.91 L-162.734 -221.91 L-163.474 -221.91 L-164.213 -221.91 L-164.953 -221.91 L-165.693 -221.91 L-166.433 -221.91 L-167.172 -221.91 L-167.912 -221.91 L-168.652 -221.91 L-169.391 -221.91 L-170.131 -221.91 L-170.871 -221.91 L-171.61 -221.91 L-172.35 -221.91 L-173.09 -221.91 L-173.83 -221.91 L-174.569 -221.91 L-175.309 -221.91 L-176.049 -221.91 L-176.788 -221.91 L-177.528 -221.91 L-178.268 -221.91 L-179.007 -221.91 L-179.747 -221.91 L-180.487 -221.91 L-181.227 -221.91 L-181.966 -221.91 L-182.706 -221.91 L-183.446 -221.91 L-184.185 -221.91 L-184.925 -221.91 L-185.665 -221.91 L-186.404 -221.91 L-187.144 -221.91 L-187.884 -221.91 L-188.624 -221.91 L-189.363 -221.91 L-190.103 -221.91 L-190.843 -221.91 L-191.582 -221.91 L-192.322 -221.91 L-193.062 -221.91 L-193.801 -221.91 L-194.541 -221.91 L-195.281 -221.91 L-196.021 -221.91 L-196.76 -221.91 L-197.5 -221.91 L-198.24 -221.91 L-198.979 -221.91 L-199.719 -221.91 L-200.459 -221.91 L-201.198 -221.91 L-201.938 -221.91 L-202.678 -221.91 L-203.418 -221.91 L-204.157 -221.91 L-204.897 -221.91 L-205.637 -221.91 L-206.376 -221.91 L-207.116 -221.91 L-207.856 -221.91 L-208.595 -221.91 L-209.335 -221.91 L-210.075 -221.91 L-210.815 -221.91 L-211.554 -221.91 L-212.294 -221.91 L-213.034 -221.91 L-213.773 -221.91 L-214.513 -221.91 L-215.253 -221.91 L-215.993 -221.91 L-216.732 -221.91 L-217.472 -221.91 L-218.212 -221.91 L-218.951 -221.91 L-219.691 -221.91 L-220.431 -221.91 L-221.17 -221.91 L-221.91 -221.91 L-221.91 -221.17 L-221.91 -220.431 L-221.91 -219.691 L-221.91 -218.951 L-221.91 -218.212 L-221.91 -217.472 L-221.91 -216.732 L-221.91 -215.993 L-221.91 -215.253 L-221.91 -214.513 L-221.91 -213.773 L-221.91 -213.034 L-221.91 -212.294 L-221.91 -211.554 L-221.91 -210.815 L-221.91 -210.075 L-221.91 -209.335 L-221.91 -208.595 L-221.91 -207.856 L-221.91 -207.116 L-221.91 -206.376 L-221.91 -205.637 L-221.91 -204.897 L-221.91 -204.157 L-221.91 -203.418 L-221.91 -202.678 L-221.91 -201.938 L-221.91 -201.198 L-221.91 -200.459 L-221.91 -199.719 L-221.91 -198.979 L-221.91 -198.24 L-221.91 -197.5 L-221.91 -196.76 L-221.91 -196.021 L-221.91 -195.281 L-221.91 -194.541 L-221.91 -193.801 L-221.91 -193.062 L-221.91 -192.322 L-221.91 -191.582 L-221.91 -190.843 L-221.91 -190.103 L-221.91 -189.363 L-221.91 -188.624 L-221.91 -187.884 L-221.91 -187.144 L-221.91 -186.404 L-221.91 -185.665 L-221.91 -184.925 L-221.91 -184.185 L-221.91 -183.446 L-221.91 -182.706 L-221.91 -181.966 L-221.91 -181.227 L-221.91 -180.487 L-221.91 -179.747 L-221.91 -179.007 L-221.91 -178.268 L-221.91 -177.528 L-221.91 -176.788 L-221.91 -176.049 L-221.91 -175.309 L-221.91 -174.569 L-221.91 -173.83 L-221.91 -173.09 L-221.91 -172.35 L-221.91 -171.61 L-221.91 -170.871 L-221.91 -170.131 L-221.91 -169.391 L-221.91 -168.652 L-221.91 -167.912 L-221.91 -167.172 L-221.91 -166.433 L-221.91 -165.693 L-221.91 -164.953 L-221.91 -164.213 L-221.91 -163.474 L-221.91 -162.734 L-221.91 -161.994 L-221.91 -161.255 L-221.91 -160.515 L-221.91 -159.775 L-221.91 -159.036 L-221.91 -158.296 L-221.91 -157.556 L-221.91 -156.816 L-221.91 -156.077 L-221.91 -155.337 L-221.91 -154.597 L-221.91 -153.858 L-221.91 -153.118 L-221.91 -152.378 L-221.91 -151.639 L-221.91 -150.899 L-221.91 -150.159 L-221.91 -149.419 L-221.91 -148.68 L-221.91 -147.94 L-221.91 -147.2 L-221.91 -146.461 L-221.91 -145.721 L-221.91 -144.981 L-221.91 -144.242 L-221.91 -143.502 L-221.91 -142.762 L-221.91 -142.022 L-221.91 -141.283 L-221.91 -140.543 L-221.91 -139.803 L-221.91 -139.064 L-221.91 -138.324 L-221.91 -137.584 L-221.91 -136.845 L-221.91 -136.105 L-221.91 -135.365 L-221.91 -134.625 L-221.91 -133.886 L-221.91 -133.146 L-221.91 -132.406 L-221.91 -131.667 L-221.91 -130.927 L-221.91 -130.187 L-221.91 -129.448 L-221.91 -128.708 L-221.91 -127.968 L-221.91 -127.228 L-221.91 -126.489 L-221.91 -125.749 L-221.91 -125.009 L-221.91 -124.27 L-221.91 -123.53 L-221.91 -122.79 L-221.91 -122.051 L-221.91 -121.311 L-221.91 -120.571 L-221.91 -119.831 L-221.91 -119.092 L-221.91 -118.352 L-221.91 -117.612 L-221.91 -116.873 L-221.91 -116.133 L-221.91 -115.393 L-221.91 -114.654 L-221.91 -113.914 L-221.91 -113.174 L-221.91 -112.434 L-221.91 -111.695 L-221.91 -110.955 L-221.91 -110.215 L-221.91 -109.476 L-221.91 -108.736 L-221.91 -107.996 L-221.91 -107.257 L-221.91 -106.517 L-221.91 -105.777 L-221.91 -105.037 L-221.91 -104.298 L-221.91 -103.558 L-221.91 -102.818 L-221.91 -102.079 L-221.91 -101.339 L-221.91 -100.599 L-221.91 -99.8595 L-221.91 -99.1198 L-221.91 -98.3801 L-221.91 -97.6404 L-221.91 -96.9007 L-221.91 -96.161 L-221.91 -95.4213 L-221.91 -94.6816 L-221.91 -93.9419 L-221.91 -93.2022 L-221.91 -92.4625 L-221.91 -91.7228 L-221.91 -90.9831 L-221.91 -90.2434 L-221.91 -89.5037 L-221.91 -88.764 L-221.91 -88.0243 L-221.91 -87.2846 L-221.91 -86.5449 L-221.91 -85.8052 L-221.91 -85.0655 L-221.91 -84.3258 L-221.91 -83.5861 L-221.91 -82.8464 L-221.91 -82.1067 L-221.91 -81.367 L-221.91 -80.6273 L-221.91 -79.8876 L-221.91 -79.1479 L-221.91 -78.4082 L-221.91 -77.6685 L-221.91 -76.9288 L-221.91 -76.1891 L-221.91 -75.4494 L-221.91 -74.7097 L-221.91 -73.97 L-221.91 -73.2303 L-221.91 -72.4906 L-221.91 -71.7509 L-221.91 -71.0112 L-221.91 -70.2715 L-221.91 -69.5318 L-221.91 -68.7921 L-221.91 -68.0524 L-221.91 -67.3127 L-221.91 -66.573 L-221.91 -65.8333 L-221.91 -65.0936 L-221.91 -64.3539 L-221.91 -63.6142 L-221.91 -62.8745 L-221.91 -62.1348 L-221.91 -61.3951 L-221.91 -60.6554 L-221.91 -59.9157 L-221.91 -59.176 L-221.91 -58.4363 L-221.91 -57.6966 L-221.91 -56.9569 L-221.91 -56.2172 L-221.91 -55.4775 L-221.91 -54.7378 L-221.91 -53.9981 L-221.91 -53.2584 L-221.91 -52.5187 L-221.91 -51.779 L-221.91 -51.0393 L-221.91 -50.2996 L-221.91 -49.5599 L-221.91 -48.8202 L-221.91 -48.0805 L-221.91 -47.3408 L-221.91 -46.6011 L-221.91 -45.8614 L-221.91 -45.1217 L-221.91 -44.382 L-221.91 -43.6423 L-221.91 -42.9026 L-221.91 -42.1629 L-221.91 -41.4232 L-221.91 -40.6835 L-221.91 -39.9438 L-221.91 -39.2041 L-221.91 -38.4644 L-221.91 -37.7247 L-221.91 -36.985 L-221.91 -36.2453 L-221.91 -35.5056 L-221.91 -34.7659 L-221.91 -34.0262 L-221.91 -33.2865 L-221.91 -32.5468 L-221.91 -31.8071 L-221.91 -31.0674 L-221.91 -30.3277 L-221.91 -29.588 L-221.91 -28.8483 L-221.91 -28.1086 L-221.91 -27.3689 L-221.91 -26.6292 L-221.91 -25.8895 L-221.91 -25.1498 L-221.91 -24.4101 L-221.91 -23.6704 L-221.91 -22.9307 L-221.91 -22.191 L-221.91 -21.4513 L-221.91 -20.7116 L-221.91 -19.9719 L-221.91 -19.2322 L-221.91 -18.4925 L-221.91 -17.7528 L-221.91 -17.0131 L-221.91 -16.2734 L-221.91 -15.5337 L-221.91 -14.794 L-221.91 -14.0543 L-221.91 -13.3146 L-221.91 -12.5749 L-221.91 -11.8352 L-221.91 -11.0955 L-221.91 -10.3558 L-221.91 -9.6161 L-221.91 -8.8764 L-221.91 -8.13669 L-221.91 -7.397 L-221.91 -6.6573 L-221.91 -5.9176 L-221.91 -5.1779 L-221.91 -4.4382 L-221.91 -3.6985 L-221.91 -2.9588 L-221.91 -2.2191 L-221.91 -1.4794 L-221.91 -0.7397 L-221.91 0 L-221.91 0.7397 L-221.91 1.4794 L-221.91 2.2191 L-221.91 2.9588 L-221.91 3.6985 L-221.91 4.4382 L-221.91 5.1779 L-221.91 5.9176 L-221.91 6.6573 L-221.91 7.397 L-221.91 8.13669 L-221.91 8.8764 L-221.91 9.6161 L-221.91 10.3558 L-221.91 11.0955 L-221.91 11.8352 L-221.91 12.5749 L-221.91 13.3146 L-221.91 14.0543 L-221.91 14.794 L-221.91 15.5337 L-221.91 16.2734 L-221.91 17.0131 L-221.91 17.7528 L-221.91 18.2203 L-221.223 18.9029 L-220.514 19.6075 L-219.804 20.312 L-219.095 21.0165 L-218.386 21.7211 L-217.676 22.4256 L-216.967 23.1302 L-216.258 23.8347 L-215.549 24.5392 L-214.839 25.2438 L-214.13 25.9483 L-213.421 26.6529 L-212.712 27.3574 L-212.002 28.0619 L-211.293 28.7665 L-210.584 29.471 L-209.874 30.1756 L-209.165 30.8801 L-208.456 31.5847 L-207.747 32.2892 L-207.037 32.9937 L-206.328 33.6983 L-205.619 34.4028 L-204.909 35.1074 L-204.2 35.8119 L-203.491 36.5164 L-202.782 37.221 L-202.072 37.9255 L-201.363 38.6301 L-200.654 39.3346 L-199.944 40.0391 L-199.235 40.7437 L-198.526 41.4482 L-197.817 42.1528 L-197.107 42.8573 L-196.398 43.5618 L-195.689 44.2664 L-194.979 44.9709 L-194.27 45.6755 L-193.561 46.38 L-192.852 47.0846 L-192.142 47.7891 L-191.433 48.4936 L-190.724 49.1982 L-190.014 49.9027 L-189.305 50.6073 L-188.596 51.3118 L-187.887 52.0163 L-187.177 52.7209 L-186.468 53.4254 L-185.759 54.13 L-185.049 54.8345 L-184.34 55.5391 L-183.631 56.2436 L-182.922 56.9481 L-182.212 57.6527 L-181.503 58.3572 L-180.794 59.0618 L-180.084 59.7663 L-179.375 60.4708 L-178.666 61.1754 L-177.957 61.8799 L-177.247 62.5845 L-176.538 63.289 L-175.829 63.9935 L-175.119 64.6981 L-174.41 65.4026 L-173.701 66.1072 L-172.992 66.8117 L-172.282 67.5162 L-171.573 68.2208 L-170.864 68.9253 L-170.154 69.6299 L-169.445 70.3344 L-168.736 71.0389 L-168.027 71.7435 L-167.317 72.448 L-166.608 73.1526 L-165.899 73.8571 L-165.19 74.5617 L-164.48 75.2662 L-163.771 75.9707 L-163.062 76.6753 L-162.352 77.3798 L-161.643 78.0844 L-160.934 78.7889 L-160.225 79.4934 L-159.515 80.198 L-158.806 80.9025 L-158.097 81.6071 L-157.387 82.3116 L-156.678 83.0161 L-155.969 83.7207 L-155.26 84.4252 L-154.55 85.1298 L-153.841 85.8343 L-153.132 86.5388 L-152.422 87.2434 L-151.713 87.9479 L-151.004 88.6525 L-150.295 89.357 L-149.585 90.0615 L-148.876 90.7661 L-148.167 91.4706 L-147.457 92.1752 L-146.748 92.8797 L-146.039 93.5842 L-145.33 94.2888 L-144.62 94.9933 L-143.911 95.6979 L-143.202 96.4024 L-142.492 97.107 L-141.783 97.8115 L-141.074 98.516 L-140.365 99.2206 L-139.655 99.9251 L-138.946 100.63 L-138.237 101.334 L-137.527 102.039 L-136.818 102.743 L-136.109 103.448 L-135.4 104.152 L-134.69 104.857 L-133.981 105.561 L-133.272 106.266 L-132.562 106.971 L-131.853 107.675 L-131.144 108.38 L-130.435 109.084 L-129.725 109.789 L-129.016 110.493 L-128.307 111.198 L-127.597 111.902 L-126.888 112.607 L-126.179 113.311 L-125.47 114.016 L-124.76 114.72 L-124.051 115.425 L-123.342 116.13 L-122.632 116.834 L-121.923 117.539 L-121.214 118.243 L-120.505 118.948 L-119.795 119.652 L-119.086 120.357 L-118.377 121.061 L-117.668 121.766 L-116.958 122.47 L-116.249 123.175 L-115.54 123.88 L-114.83 124.584 L-114.121 125.289 L-113.412 125.993 L-112.703 126.698 L-111.993 127.402 L-111.284 128.107 L-110.575 128.811 L-109.865 129.516 L-109.156 130.22 L-108.447 130.925 L-107.738 131.629 L-107.028 132.334 L-106.319 133.039 L-105.61 133.743 L-104.9 134.448 L-104.191 135.152 L-103.482 135.857 L-102.773 136.561 L-102.063 137.266 L-101.354 137.97 L-100.645 138.675 L-99.9354 139.379 L-99.2261 140.084 L-98.5169 140.788 L-97.8076 141.493 L-97.0983 142.198 L-96.389 142.902 L-95.6797 143.607 L-94.9704 144.311 L-94.2612 145.016 L-93.5519 145.72 L-92.8426 146.425 L-92.1333 147.129 L-91.424 147.834 L-90.7147 148.538 L-90.0054 149.243 L-89.2962 149.948 L-88.5869 150.652 L-87.8776 151.357 L-87.1683 152.061 L-86.459 152.766 L-85.7497 153.47 L-85.0405 154.175 L-84.3312 154.879 L-83.6219 155.584 L-82.9126 156.288 L-82.2033 156.993 L-81.494 157.697 L-80.7848 158.402 L-80.0755 159.107 L-79.3662 159.811 L-78.6569 160.516 L-77.9476 161.22 L-77.2383 161.925 L-76.5291 162.629 L-75.8198 163.334 L-75.1105 164.038 L-74.4012 164.743 L-73.6919 165.447 L-72.9826 166.152 L-72.2734 166.857 L-71.5641 167.561 L-70.8548 168.266 L-70.1455 168.97 L-69.4362 169.675 L-68.7269 170.379 L-68.0177 171.084 L-67.3084 171.788 L-66.5991 172.493 L-65.8898 173.197 L-65.1805 173.902 L-64.4712 174.606 L-63.7619 175.311 L-63.0527 176.016 L-62.3434 176.72 L-61.6341 177.425 L-60.9248 178.129 L-60.2155 178.834 L-59.5063 179.538 L-58.797 180.243 L-58.0877 180.947 L-57.3784 181.652 L-56.6691 182.356 L-55.9598 183.061 L-55.2505 183.765 L-54.5413 184.47 L-53.832 185.175 L-53.1227 185.879 L-52.4134 186.584 L-51.7041 187.288 L-50.9948 187.993 L-50.2856 188.697 L-49.5763 189.402 L-48.867 190.106 L-48.1577 190.811 L-47.4484 191.515 L-46.7392 192.22 L-46.0299 192.925 L-45.3206 193.629 L-44.6113 194.334 L-43.902 195.038 L-43.1927 195.743 L-42.4834 196.447 L-41.7742 197.152 L-41.0649 197.856 L-40.3556 198.561 L-39.6463 199.265 L-38.937 199.97 L-38.2277 200.674 L-37.5185 201.379 L-36.8092 202.084 L-36.0999 202.788 L-35.3906 203.493 L-34.6813 204.197 L-33.972 204.902 L-33.2628 205.606 L-32.5535 206.311 L-31.8442 207.015 L-31.1349 207.72 L-30.4256 208.424 L-29.7163 209.129 L-29.0071 209.833 L-28.2978 210.538 L-27.5885 211.243 L-26.8792 211.947 L-26.1699 212.652 L-25.4606 213.356 L-24.7514 214.061 L-24.0421 214.765 L-23.3328 215.47 L-22.6235 216.174 L-21.9142 216.879 L-21.2049 217.583 L-20.4957 218.288 L-19.7864 218.993 L-19.0771 219.697 L-18.3678 220.402 L-17.6585 221.106 L-16.9492 221.811 L-16.8492 221.91 L-16.8492 221.91 L-221.91 18.2203 L-221.91 18.4925 L-221.91 19.2322 Z M147.2 147.94 L146.461 147.94 L145.721 147.94 L144.981 147.94 L144.242 147.94 L143.502 147.94 L142.762 147.94 L142.022 147.94 L141.283 147.94 L140.543 147.94 L139.803 147.94 L139.064 147.94 L138.324 147.94 L137.584 147.94 L136.845 147.94 L136.105 147.94 L135.365 147.94 L134.625 147.94 L133.886 147.94 L133.146 147.94 L132.406 147.94 L131.667 147.94 L130.927 147.94 L130.187 147.94 L129.448 147.94 L128.708 147.94 L127.968 147.94 L127.228 147.94 L126.489 147.94 L125.749 147.94 L125.009 147.94 L124.27 147.94 L123.53 147.94 L122.79 147.94 L122.051 147.94 L121.311 147.94 L120.571 147.94 L119.831 147.94 L119.092 147.94 L118.352 147.94 L117.612 147.94 L116.873 147.94 L116.133 147.94 L115.393 147.94 L114.654 147.94 L113.914 147.94 L113.174 147.94 L112.434 147.94 L111.695 147.94 L110.955 147.94 L110.215 147.94 L109.476 147.94 L108.736 147.94 L107.996 147.94 L107.257 147.94 L106.517 147.94 L105.777 147.94 L105.037 147.94 L104.298 147.94 L103.558 147.94 L102.818 147.94 L102.079 147.94 L101.339 147.94 L100.599 147.94 L99.8595 147.94 L99.1198 147.94 L98.3801 147.94 L97.6404 147.94 L96.9007 147.94 L96.161 147.94 L95.4213 147.94 L94.6816 147.94 L93.9419 147.94 L93.2022 147.94 L92.4625 147.94 L91.7228 147.94 L90.9831 147.94 L90.2434 147.94 L89.5037 147.94 L88.764 147.94 L88.0243 147.94 L87.2846 147.94 L86.5449 147.94 L85.8052 147.94 L85.0655 147.94 L84.3258 147.94 L83.5861 147.94 L82.8464 147.94 L82.1067 147.94 L81.367 147.94 L80.6273 147.94 L79.8876 147.94 L79.1479 147.94 L78.4082 147.94 L77.6685 147.94 L76.9288 147.94 L76.1891 147.94 L75.4494 147.94 L74.7097 147.94 L73.97 147.94 L73.2303 147.94 L72.4906 147.94 L71.7509 147.94 L71.0112 147.94 L70.2715 147.94 L69.5318 147.94 L68.7921 147.94 L68.0524 147.94 L67.3127 147.94 L66.573 147.94 L65.8333 147.94 L65.0936 147.94 L64.3539 147.94 L63.6142 147.94 L62.8745 147.94 L62.1348 147.94 L61.3951 147.94 L60.6554 147.94 L59.9157 147.94 L59.176 147.94 L58.4363 147.94 L57.6966 147.94 L56.9569 147.94 L56.2172 147.94 L55.4775 147.94 L54.7378 147.94 L53.9981 147.94 L53.2584 147.94 L52.5187 147.94 L51.779 147.94 L51.0393 147.94 L50.2996 147.94 L49.5599 147.94 L48.8202 147.94 L48.0805 147.94 L47.3408 147.94 L46.6011 147.94 L45.8614 147.94 L45.1217 147.94 L44.382 147.94 L43.6423 147.94 L42.9026 147.94 L42.1629 147.94 L41.4232 147.94 L40.6835 147.94 L39.9438 147.94 L39.2041 147.94 L38.4644 147.94 L37.7247 147.94 L36.985 147.94 L36.2453 147.94 L35.5056 147.94 L34.7659 147.94 L34.0262 147.94 L33.2865 147.94 L32.5468 147.94 L31.8071 147.94 L31.0674 147.94 L30.3277 147.94 L29.588 147.94 L28.8483 147.94 L28.1086 147.94 L27.3689 147.94 L26.6292 147.94 L25.8895 147.94 L25.1498 147.94 L24.4101 147.94 L23.6704 147.94 L22.9307 147.94 L22.191 147.94 L21.4513 147.94 L20.7116 147.94 L19.9719 147.94 L19.2322 147.94 L18.4925 147.94 L17.7528 147.94 L17.0131 147.94 L16.2734 147.94 L15.5337 147.94 L14.794 147.94 L14.0543 147.94 L13.3146 147.94 L12.5749 147.94 L11.8352 147.94 L11.0955 147.94 L10.3558 147.94 L9.6161 147.94 L8.8764 147.94 L8.13669 147.94 L7.397 147.94 L6.6573 147.94 L5.9176 147.94 L5.1779 147.94 L4.4382 147.94 L3.6985 147.94 L2.9588 147.94 L2.2191 147.94 L1.4794 147.94 L0.7397 147.94 L0 147.94 L0 147.2 L0 146.461 L0 145.721 L0 144.981 L0 144.242 L0 143.502 L0 142.762 L0 142.022 L0 141.283 L0 140.543 L0 139.803 L0 139.064 L0 138.324 L0 137.584 L0 136.845 L0 136.105 L0 135.365 L0 134.625 L0 133.886 L0 133.146 L0 132.406 L0 131.667 L0 130.927 L0 130.187 L0 129.448 L0 128.708 L0 127.968 L0 127.228 L0 126.489 L0 125.749 L0 125.009 L0 124.27 L0 123.53 L0 122.79 L0 122.051 L0 121.311 L0 120.571 L0 119.831 L0 119.092 L0 118.352 L0 117.612 L0 116.873 L0 116.133 L0 115.393 L0 114.654 L0 113.914 L0 113.174 L0 112.434 L0 111.695 L0 110.955 L0 110.215 L0 109.476 L0 108.736 L0 107.996 L0 107.257 L0 106.517 L0 105.777 L0 105.037 L0 104.298 L0 103.558 L0 102.818 L0 102.079 L0 101.339 L0 100.599 L0 100 L-1 100 L-2 100 L-3 100 L-4 100 L-5 100 L-6 100 L-7 100 L-8 100 L-9 100 L-10 100 L-11 100 L-12 100 L-13 100 L-14 100 L-15 100 L-16 100 L-17 100 L-18 100 L-19 100 L-20 100 L-21 100 L-22 100 L-23 100 L-24 100 L-25 100 L-26 100 L-27 100 L-28 100 L-29 100 L-30 100 L-31 100 L-32 100 L-33 100 L-34 100 L-35 100 L-36 100 L-37 100 L-38 100 L-39 100 L-40 100 L-41 100 L-42 100 L-43 100 L-44 100 L-45 100 L-46 100 L-47 100 L-48 100 L-49 100 L-50 100 L-51 100 L-52 100 L-53 100 L-54 100 L-55 100 L-56 100 L-57 100 L-58 100 L-59 100 L-60 100 L-61 100 L-62 100 L-63 100 L-64 100 L-65 100 L-66 100 L-67 100 L-68 100 L-69 100 L-70 100 L-71 100 L-72 100 L-73 100 L-74 100 L-75 100 L-76 100 L-77 100 L-78 100 L-79 100 L-80 100 L-81 100 L-82 100 L-83 100 L-84 100 L-85 100 L-86 100 L-87 100 L-88 100 L-89 100 L-90 100 L-91 100 L-92 100 L-93 100 L-94 100 L-95 100 L-96 100 L-97 100 L-98 100 L-99 100 L-100 100 L-100 99 L-100 98 L-100 97 L-100 96 L-100 95 L-100 94 L-100 93 L-100 92 L-100 91 L-100 90 L-100 89 L-100 88 L-100 87 L-100 86 L-100 85 L-100 84 L-100 83 L-100 82 L-100 81 L-100 80 L-100 79 L-100 78 L-100 77 L-100 76 L-100 75 L-100 74 L-100 73 L-100 72 L-100 71 L-100 70 L-100 69 L-100 68 L-100 67 L-100 66 L-100 65 L-100 64 L-100 63 L-100 62 L-100 61 L-100 60 L-100 59 L-100 58 L-100 57 L-100 56 L-100 55 L-100 54 L-100 53 L-100 52 L-100 51 L-100 50 L-100 49 L-100 48 L-100 47 L-100 46 L-100 45 L-100 44 L-100 43 L-100 42 L-100 41 L-100 40 L-100 39 L-100 38 L-100 37 L-100 36 L-100 35 L-100 34 L-100 33 L-100 32 L-100 31 L-100 30 L-100 29 L-100 28 L-100 27 L-100 26 L-100 25 L-100 24 L-100 23 L-100 22 L-100 21 L-100 20 L-100 19 L-100 18 L-100 17 L-100 16 L-100 15 L-100 14 L-100 13 L-100 12 L-100 11 L-100 10 L-100 8.99999 L-100 8 L-100 6.99999 L-100 6 L-100 5 L-100 4 L-100 3 L-100 2 L-100 1 L-100 0 L-100 -1 L-100 -2 L-100 -3 L-100 -4 L-100 -5 L-100 -6 L-100 -7 L-100 -8 L-100 -9 L-100 -10 L-100 -11 L-100 -12 L-100 -13 L-100 -14 L-100 -15 L-100 -16 L-100 -17 L-100 -18 L-100 -19 L-100 -20 L-100 -21 L-100 -22 L-100 -23 L-100 -24 L-100 -25 L-100 -26 L-100 -27 L-100 -28 L-100 -29 L-100 -30 L-100 -31 L-100 -32 L-100 -33 L-100 -34 L-100 -35 L-100 -36 L-100 -37 L-100 -38 L-100 -39 L-100 -40 L-100 -41 L-100 -42 L-100 -43 L-100 -44 L-100 -45 L-100 -46 L-100 -47 L-100 -48 L-100 -49 L-100 -50 L-100 -51 L-100 -52 L-100 -53 L-100 -54 L-100 -55 L-100 -56 L-100 -57 L-100 -58 L-100 -59 L-100 -60 L-100 -61 L-100 -62 L-100 -63 L-100 -64 L-100 -65 L-100 -66 L-100 -67 L-100 -68 L-100 -69 L-100 -70 L-100 -71 L-100 -72 L-100 -73 L-100 -74 L-100 -75 L-100 -76 L-100 -77 L-100 -78 L-100 -79 L-100 -80 L-100 -81 L-100 -82 L-100 -83 L-100 -84 L-100 -85 L-100 -86 L-100 -87 L-100 -88 L-100 -89 L-100 -90 L-100 -91 L-100 -92 L-100 -93 L-100 -94 L-100 -95 L-100 -96 L-100 -97 L-100 -98 L-100 -99 L-100 -100 L-99 -100 L-98 -100 L-97 -100 L-96 -100 L-95 -100 L-94 -100 L-93 -100 L-92 -100 L-91 -100 L-90 -100 L-89 -100 L-88 -100 L-87 -100 L-86 -100 L-85 -100 L-84 -100 L-83 -100 L-82 -100 L-81 -100 L-80 -100 L-79 -100 L-78 -100 L-77 -100 L-76 -100 L-75 -100 L-74 -100 L-73 -100 L-72 -100 L-71 -100 L-70 -100 L-69 -100 L-68 -100 L-67 -100 L-66 -100 L-65 -100 L-64 -100 L-63 -100 L-62 -100 L-61 -100 L-60 -100 L-59 -100 L-58 -100 L-57 -100 L-56 -100 L-55 -100 L-54 -100 L-53 -100 L-52 -100 L-51 -100 L-50 -100 L-49 -100 L-48 -100 L-47 -100 L-46 -100 L-45 -100 L-44 -100 L-43 -100 L-42 -100 L-41 -100 L-40 -100 L-39 -100 L-38 -100 L-37 -100 L-36 -100 L-35 -100 L-34 -100 L-33 -100 L-32 -100 L-31 -100 L-30 -100 L-29 -100 L-28 -100 L-27 -100 L-26 -100 L-25 -100 L-24 -100 L-23 -100 L-22 -100 L-21 -100 L-20 -100 L-19 -100 L-18 -100 L-17 -100 L-16 -100 L-15 -100 L-14 -100 L-13 -100 L-12 -100 L-11 -100 L-10 -100 L-8.99999 -100 L-8 -100 L-6.99999 -100 L-6 -100 L-5 -100 L-4 -100 L-3 -100 L-2 -100 L-1 -100 L0 -100 L1 -100 L2 -100 L3 -100 L4 -100 L5 -100 L6 -100 L7 -100 L8 -100 L9 -100 L10 -100 L11 -100 L12 -100 L13 -100 L14 -100 L15 -100 L16 -100 L17 -100 L18 -100 L19 -100 L20 -100 L21 -100 L22 -100 L23 -100 L24 -100 L25 -100 L26 -100 L27 -100 L28 -100 L29 -100 L30 -100 L31 -100 L32 -100 L33 -100 L34 -100 L35 -100 L36 -100 L37 -100 L38 -100 L39 -100 L40 -100 L41 -100 L42 -100 L43 -100 L44 -100 L45 -100 L46 -100 L47 -100 L48 -100 L49 -100 L50 -100 L51 -100 L52 -100 L53 -100 L54 -100 L55 -100 L56 -100 L57 -100 L58 -100 L59 -100 L60 -100 L61 -100 L62 -100 L63 -100 L64 -100 L65 -100 L66 -100 L67 -100 L68 -100 L69 -100 L70 -100 L71 -100 L72 -100 L73 -100 L74 -100 L75 -100 L76 -100 L77 -100 L78 -100 L79 -100 L80 -100 L81 -100 L82 -100 L83 -100 L84 -100 L85 -100 L86 -100 L87 -100 L88 -100 L89 -100 L90 -100 L91 -100 L92 -100 L93 -100 L94 -100 L95 -100 L96 -100 L97 -100 L98 -100 L99 -100 L100 -100 L100 -99 L100 -98 L100 -97 L100 -96 L100 -95 L100 -94 L100 -93 L100 -92 L100 -91 L100 -90 L100 -89 L100 -88 L100 -87 L100 -86 L100 -85 L100 -84 L100 -83 L100 -82 L100 -81 L100 -80 L100 -79 L100 -78 L100 -77 L100 -76 L100 -75 L100 -74 L100 -73 L100 -72 L100 -71 L100 -70 L100 -69 L100 -68 L100 -67 L100 -66 L100 -65 L100 -64 L100 -63 L100 -62 L100 -61 L100 -60 L100 -59 L100 -58 L100 -57 L100 -56 L100 -55 L100 -54 L100 -53 L100 -52 L100 -51 L100 -50 L100 -49 L100 -48 L100 -47 L100 -46 L100 -45 L100 -44 L100 -43 L100 -42 L100 -41 L100 -40 L100 -39 L100 -38 L100 -37 L100 -36 L100 -35 L100 -34 L100 -33 L100 -32 L100 -31 L100 -30 L100 -29 L100 -28 L100 -27 L100 -26 L100 -25 L100 -24 L100 -23 L100 -22 L100 -21 L100 -20 L100 -19 L100 -18 L100 -17 L100 -16 L100 -15 L100 -14 L100 -13 L100 -12 L100 -11 L100 -10 L100 -8.99999 L100 -8 L100 -6.99999 L100 -6 L100 -5 L100 -4 L100 -3 L100 -2 L100 -1 L100 0 L100.599 0 L101.339 0 L102.079 0 L102.818 0 L103.558 0 L104.298 0 L105.037 0 L105.777 0 L106.517 0 L107.257 0 L107.996 0 L108.736 0 L109.476 0 L110.215 0 L110.955 0 L111.695 0 L112.434 0 L113.174 0 L113.914 0 L114.654 0 L115.393 0 L116.133 0 L116.873 0 L117.612 0 L118.352 0 L119.092 0 L119.831 0 L120.571 0 L121.311 0 L122.051 0 L122.79 0 L123.53 0 L124.27 0 L125.009 0 L125.749 0 L126.489 0 L127.228 0 L127.968 0 L128.708 0 L129.448 0 L130.187 0 L130.927 0 L131.667 0 L132.406 0 L133.146 0 L133.886 0 L134.625 0 L135.365 0 L136.105 0 L136.845 0 L137.584 0 L138.324 0 L139.064 0 L139.803 0 L140.543 0 L141.283 0 L142.022 0 L142.762 0 L143.502 0 L144.242 0 L144.981 0 L145.721 0 L146.461 0 L147.2 0 L147.94 0 L147.94 0.7397 L147.94 1.4794 L147.94 2.2191 L147.94 2.9588 L147.94 3.6985 L147.94 4.4382 L147.94 5.1779 L147.94 5.9176 L147.94 6.6573 L147.94 7.397 L147.94 8.13669 L147.94 8.8764 L147.94 9.6161 L147.94 10.3558 L147.94 11.0955 L147.94 11.8352 L147.94 12.5749 L147.94 13.3146 L147.94 14.0543 L147.94 14.794 L147.94 15.5337 L147.94 16.2734 L147.94 17.0131 L147.94 17.7528 L147.94 18.4925 L147.94 19.2322 L147.94 19.9719 L147.94 20.7116 L147.94 21.4513 L147.94 22.191 L147.94 22.9307 L147.94 23.6704 L147.94 24.4101 L147.94 25.1498 L147.94 25.8895 L147.94 26.6292 L147.94 27.3689 L147.94 28.1086 L147.94 28.8483 L147.94 29.588 L147.94 30.3277 L147.94 31.0674 L147.94 31.8071 L147.94 32.5468 L147.94 33.2865 L147.94 34.0262 L147.94 34.7659 L147.94 35.5056 L147.94 36.2453 L147.94 36.985 L147.94 37.7247 L147.94 38.4644 L147.94 39.2041 L147.94 39.9438 L147.94 40.6835 L147.94 41.4232 L147.94 42.1629 L147.94 42.9026 L147.94 43.6423 L147.94 44.382 L147.94 45.1217 L147.94 45.8614 L147.94 46.6011 L147.94 47.3408 L147.94 48.0805 L147.94 48.8202 L147.94 49.5599 L147.94 50.2996 L147.94 51.0393 L147.94 51.779 L147.94 52.5187 L147.94 53.2584 L147.94 53.9981 L147.94 54.7378 L147.94 55.4775 L147.94 56.2172 L147.94 56.9569 L147.94 57.6966 L147.94 58.4363 L147.94 59.176 L147.94 59.9157 L147.94 60.6554 L147.94 61.3951 L147.94 62.1348 L147.94 62.8745 L147.94 63.6142 L147.94 64.3539 L147.94 65.0936 L147.94 65.8333 L147.94 66.573 L147.94 67.3127 L147.94 68.0524 L147.94 68.7921 L147.94 69.5318 L147.94 70.2715 L147.94 71.0112 L147.94 71.7509 L147.94 72.4906 L147.94 73.2303 L147.94 73.97 L147.94 74.7097 L147.94 75.4494 L147.94 76.1891 L147.94 76.9288 L147.94 77.6685 L147.94 78.4082 L147.94 79.1479 L147.94 79.8876 L147.94 80.6273 L147.94 81.367 L147.94 82.1067 L147.94 82.8464 L147.94 83.5861 L147.94 84.3258 L147.94 85.0655 L147.94 85.8052 L147.94 86.5449 L147.94 87.2846 L147.94 88.0243 L147.94 88.764 L147.94 89.5037 L147.94 90.2434 L147.94 90.9831 L147.94 91.7228 L147.94 92.4625 L147.94 93.2022 L147.94 93.9419 L147.94 94.6816 L147.94 95.4213 L147.94 96.161 L147.94 96.9007 L147.94 97.6404 L147.94 98.3801 L147.94 99.1198 L147.94 99.8595 L147.94 100.599 L147.94 101.339 L147.94 102.079 L147.94 102.818 L147.94 103.558 L147.94 104.298 L147.94 105.037 L147.94 105.777 L147.94 106.517 L147.94 107.257 L147.94 107.996 L147.94 108.736 L147.94 109.476 L147.94 110.215 L147.94 110.955 L147.94 111.695 L147.94 112.434 L147.94 113.174 L147.94 113.914 L147.94 114.654 L147.94 115.393 L147.94 116.133 L147.94 116.873 L147.94 117.612 L147.94 118.352 L147.94 119.092 L147.94 119.831 L147.94 120.571 L147.94 121.311 L147.94 122.051 L147.94 122.79 L147.94 123.53 L147.94 124.27 L147.94 125.009 L147.94 125.749 L147.94 126.489 L147.94 127.228 L147.94 127.968 L147.94 128.708 L147.94 129.448 L147.94 130.187 L147.94 130.927 L147.94 131.667 L147.94 132.406 L147.94 133.146 L147.94 133.886 L147.94 134.625 L147.94 135.365 L147.94 136.105 L147.94 136.845 L147.94 137.584 L147.94 138.324 L147.94 139.064 L147.94 139.803 L147.94 140.543 L147.94 141.283 L147.94 142.022 L147.94 142.762 L147.94 143.502 L147.94 144.242 L147.94 144.981 L147.94 145.721 L147.94 146.461 L147.94 147.2 L147.94 147.94 L147.2 147.94 Z " />
<path stroke="rgb(0,0,0)" stroke-opacity="1" fill="rgb(200,200,200)" fill-opacity="1" d="M147.94 147.2 L147.94 146.461 L147.94 145.721 L147.94 144.981 L147.94 144.242 L147.94 143.502 L147.94 142.762 L147.94 142.022 L147.94 141.283 L147.94 140.543 L147.94 139.803 L147.94 139.064 L147.94 138.324 L147.94 137.584 L147.94 136.845 L147.94 136.105 L147.94 135.365 L147.94 134.625 L147.94 133.886 L147.94 133.146 L147.94 132.406 L147.94 131.667 L147.94 130.927 L147.94 130.187 L147.94 129.448 L147.94 128.708 L147.94 127.968 L147.94 127.228 L147.94 126.489 L147.94 125.749 L147.94 125.009 L147.94 124.27 L147.94 123.53 L147.94 122.79 L147.94 122.051 L147.94 121.311 L147.94 120.571 L147.94 119.831 L147.94 119.092 L147.94 118.352 L147.94 117.612 L147.94 116.873 L147.94 116.133 L147.94 115.393 L147.94 114.654 L147.94 113.914 L147.94 113.174 L147.94 112.434 L147.94 111.695 L147.94 110.955 L147.94 110.215 L147.94 109.476 L147.94 108.736 L147.94 107.996 L147.94 107.257 L147.94 106.517 L147.94 105.777 L147.94 105.037 L147.94 104.298 L147.94 103.558 L147.94 102.818 L147.94 102.079 L147.94 101.339 L147.94 100.599 L147.94 99.8595 L147.94 99.1198 L147.94 98.3801 L147.94 97.6404 L147.94 96.9007 L147.94 96.161 L147.94 95.4213 L147.94 94.6816 L147.94 93.9419 L147.94 93.2022 L147.94 92.4625 L147.94 91.7228 L147.94 90.9831 L147.94 90.2434 L147.94 89.5037 L147.94 88.764 L147.94 88.0243 L147.94 87.2846 L147.94 86.5449 L147.94 85.8052 L147.94 85.0655 L147.94 84.3258 L147.94 83.5861 L147.94 82.8464 L147.94 82.1067 L147.94 81.367 L147.94 80.6273 L147.94 79.8876 L147.94 79.1479 L147.94 78.4082 L147.94 77.6685 L147.94 76.9288 L147.94 76.1891 L147.94 75.4494 L147.94 74.7097 L147.94 73.97 L147.94 73.2303 L147.94 72.4906 L147.94 71.7509 L147.94 71.0112 L147.94 70.2715 L147.94 69.5318 L147.94 68.7921 L147.94 68.0524 L147.94 67.3127 L147.94 66.573 L147.94 65.8333 L147.94 65.0936 L147.94 64.3539 L147.94 63.6142 L147.94 62.8745 L147.94 62.1348 L147.94 61.3951 L147.94 60.6554 L147.94 59.9157 L147.94 59.176 L147.94 58.4363 L147.94 57.6966 L147.94 56.9569 L147.94 56.2172 L147.94 55.4775 L147.94 54.7378 L147.94 53.9981 L147.94 53.2584 L147.94 52.5187 L147.94 51.779 L147.94 51.0393 L147.94 50.2996 L147.94 49.5599 L147.94 48.8202 L147.94 48.0805 L147.94 47.3408 L147.94 46.6011 L147.94 45.8614 L147.94 45.1217 L147.94 44.382 L147.94 43.6423 L147.94 42.9026 L147.94 42.1629 L147.94 41.4232 L147.94 40.6835 L147.94 39.9438 L147.94 39.2041 L147.94 38.4644 L147.94 37.7247 L147.94 36.985 L147.94 36.2453 L147.94 35.5056 L147.94 34.7659 L147.94 34.0262 L147.94 33.2865 L147.94 32.5468 L147.94 31.8071 L147.94 31.0674 L147.94 30.3277 L147.94 29.588 L147.94 28.8483 L147.94 28.1086 L147.94 27.3689 L147.94 26.6292 L147.94 25.8895 L147.94 25.1498 L147.94 24.4101 L147.94 23.6704 L147.94 22.9307 L147.94 22.191 L147.94 21.4513 L147.94 20.7116 L147.94 19.9719 L147.94 19.2322 L147.94 18.4925 L147.94 17.7528 L147.94 17.0131 L147.94 16.2734 L147.94 15.5337 L147.94 14.794 L147.94 14.0543 L147.94 13.3146 L147.94 12.5749 L147.94 11.8352 L147.94 11.0955 L147.94 10.3558 L147.94 9.6161 L147.94 8.8764 L147.94 8.13669 L147.94 7.397 L147.94 6.6573 L147.94 5.9176 L147.94 5.1779 L147.94 4.4382 L147.94 3.6985 L147.94 2.9588 L147.94 2.2191 L147.94 1.4794 L147.94 0.7397 L147.94 0 L147.2 0 L146.461 0 L145.721 0 L144.981 0 L144.242 0 L143.502 0 L142.762 0 L142.022 0 L141.283 0 L140.543 0 L139.803 0 L139.064 0 L138.324 0 L137.584 0 L136.845 0 L136.105 0 L135.365 0 L134.625 0 L133.886 0 L133.146 0 L132.406 0 L131.667 0 L130.927 0 L130.187 0 L129.448 0 L128.708 0 L127.968 0 L127.228 0 L126.489 0 L125.749 0 L125.009 0 L124.27 0 L123.53 0 L122.79 0 L122.051 0 L121.311 0 L120.571 0 L119.831 0 L119.092 0 L118.352 0 L117.612 0 L116.873 0 L116.133 0 L115.393 0 L114.654 0 L113.914 0 L113.174 0 L112.434 0 L111.695 0 L110.955 0 L110.215 0 L109.476 0 L108.736 0 L107.996 0 L107.257 0 L106.517 0 L105.777 0 L105.037 0 L104.298 0 L103.558 0 L102.818 0 L102.079 0 L101.339 0 L100.599 0 L100 0 L100 -1 L100 -2 L100 -3 L100 -4 L100 -5 L100 -6 L100 -6.99999 L100 -8 L100 -8.99999 L100 -10 L100 -11 L100 -12 L100 -13 L100 -14 L100 -15 L100 -16 L100 -17 L100 -18 L100 -19 L100 -20 L100 -21 L100 -22 L100 -23 L100 -24 L100 -25 L100 -26 L100 -27 L100 -28 L100 -29 L100 -30 L100 -31 L100 -32 L100 -33 L100 -34 L100 -35 L100 -36 L100 -37 L100 -38 L100 -39 L100 -40 L100 -41 L100 -42 L100 -43 L100 -44 L100 -45 L100 -46 L100 -47 L100 -48 L100 -49 L100 -50 L100 -51 L100 -52 L100 -53 L100 -54 L100 -55 L100 -56 L100 -57 L100 -58 L100 -59 L100 -60 L100 -61 L100 -62 L100 -63 L100 -64 L100 -65 L100 -66 L100 -67 L100 -68 L100 -69 L100 -70 L100 -71 L100 -72 L100 -73 L100 -74 L100 -75 L100 -76 L100 -77 L100 -78 L100 -79 L100 -80 L100 -81 L100 -82 L100 -83 L100 -84 L100 -85 L100 -86 L100 -87 L100 -88 L100 -89 L100 -90 L100 -91 L100 -92 L100 -93 L100 -94 L100 -95 L100 -96 L100 -97 L100 -98 L100 -99 L100 -100 L99 -100 L98 -100 L97 -100 L96 -100 L95 -100 L94 -100 L93 -100 L92 -100 L91 -100 L90 -100 L89 -100 L88 -100 L87 -100 L86 -100 L85 -100 L84 -100 L83 -100 L82 -100 L81 -100 L80 -100 L79 -100 L78 -100 L77 -100 L76 -100 L75 -100 L74 -100 L73 -100 L72 -100 L71 -100 L70 -100 L69 -100 L68 -100 L67 -100 L66 -100 L65 -100 L64 -100 L63 -100 L62 -100 L61 -100 L60 -100 L59 -100 L58 -100 L57 -100 L56 -100 L55 -100 L54 -100 L53 -100 L52 -100 L51 -100 L50 -100 L49 -100 L48 -100 L47 -100 L46 -100 L45 -100 L44 -100 L43 -100 L42 -100 L41 -100 L40 -100 L39 -100 L38 -100 L37 -100 L36 -100 L35 -100 L34 -100 L33 -100 L32 -100 L31 -100 L30 -100 L29 -100 L28 -100 L27 -100 L26 -100 L25 -100 L24 -100 L23 -100 L22 -100 L21 -100 L20 -100 L19 -100 L18 -100 L17 -100 L16 -100 L15 -100 L14 -100 L13 -100 L12 -100 L11 -100 L10 -100 L9 -100 L8 -100 L7 -100 L6 -100 L5 -100 L4 -100 L3 -100 L2 -100 L1 -100 L0 -100 L-1 -100 L-2 -100 L-3 -100 L-4 -100 L-5 -100 L-6 -100 L-6.99999 -100 L-8 -100 L-8.99999 -100 L-10 -100 L-11 -100 L-12 -100 L-13 -100 L-14 -100 L-15 -100 L-16 -100 L-17 -100 L-18 -100 L-19 -100 L-20 -100 L-21 -100 L-22 -100 L-23 -100 L-24 -100 L-25 -100 L-26 -100 L-27 -100 L-28 -100 L-29 -100 L-30 -100 L-31 -100 L-32 -100 L-33 -100 L-34 -100 L-35 -100 L-36 -100 L-37 -100 L-38 -100 L-39 -100 L-40 -100 L-41 -100 L-42 -100 L-43 -100 L-44 -100 L-45 -100 L-46 -100 L-47 -100 L-48 -100 L-49 -100 L-50 -100 L-51 -100 L-52 -100 L-53 -100 L-54 -100 L-55 -100 L-56 -100 L-57 -100 L-58 -100 L-59 -100 L-60 -100 L-61 -100 L-62 -100 L-63 -100 L-64 -100 L-65 -100 L-66 -100 L-67 -100 L-68 -100 L-69 -100 L-70 -100 L-71 -100 L-72 -100 L-73 -100 L-74 -100 L-75 -100 L-76 -100 L-77 -100 L-78 -100 L-79 -100 L-80 -100 L-81 -100 L-82 -100 L-83 -100 L-84 -100 L-85 -100 L-86 -100 L-87 -100 L-88 -100 L-89 -100 L-90 -100 L-91 -100 L-92 -100 L-93 -100 L-94 -100 L-95 -100 L-96 -100 L-97 -100 L-98 -100 L-99 -100 L-100 -100 L-100 -99 L-100 -98 L-100 -97 L-100 -96 L-100 -95 L-100 -94 L-100 -93 L-100 -92 L-100 -91 L-100 -90 L-100 -89 L-100 -88 L-100 -87 L-100 -86 L-100 -85 L-100 -84 L-100 -83 L-100 -82 L-100 -81 L-100 -80 L-100 -79 L-100 -78 L-100 -77 L-100 -76 L-100 -75 L-100 -74 L-100 -73 L-100 -72 L-100 -71 L-100 -70 L-100 -69 L-100 -68 L-100 -67 L-100 -66 L-100 -65 L-100 -64 L-100 -63 L-100 -62 L-100 -61 L-100 -60 L-100 -59 L-100 -58 L-100 -57 L-100 -56 L-100 -55 L-100 -54 L-100 -53 L-100 -52 L-100 -51 L-100 -50 L-100 -49 L-100 -48 L-100 -47 L-100 -46 L-100 -45 L-100 -44 L-100 -43 L-100 -42 L-100 -41 L-100 -40 L-100 -39 L-100 -38 L-100 -37 L-100 -36 L-100 -35 L-100 -34 L-100 -33 L-100 -32 L-100 -31 L-100 -30 L-100 -29 L-100 -28 L-100 -27 L-100 -26 L-100 -25 L-100 -24 L-100 -23 L-100 -22 L-100 -21 L-100 -20 L-100 -19 L-100 -18 L-100 -17 L-100 -16 L-100 -15 L-100 -14 L-100 -13 L-100 -12 L-100 -11 L-100 -10 L-100 -9 L-100 -8 L-100 -7 L-100 -6 L-100 -5 L-100 -4 L-100 -3 L-100 -2 L-100 -1 L-100 0 L-100 1 L-100 2 L-100 3 L-100 4 L-100 5 L-100 6 L-100 6.99999 L-100 8 L-100 8.99999 L-100 10 L-100 11 L-100 12 L-100 13 L-100 14 L-100 15 L-100 16 L-100 17 L-100 18 L-100 19 L-100 20 L-100 21 L-100 22 L-100 23 L-100 24 L-100 25 L-100 26 L-100 27 L-100 28 L-100 29 L-100 30 L-100 31 L-100 32 L-100 33 L-100 34 L-100 35 L-100 36 L-100 37 L-100 38 L-100 39 L-100 40 L-100 41 L-100 42 L-100 43 L-100 44 L-100 45 L-100 46 L-100 47 L-100 48 L-100 49 L-100 50 L-100 51 L-100 52 L-100 53 L-100 54 L-100 55 L-100 56 L-100 57 L-100 58 L-100 59 L-100 60 L-100 61 L-100 62 L-100 63 L-100 64 L-100 65 L-100 66 L-100 67 L-100 68 L-100 69 L-100 70 L-100 71 L-100 72 L-100 73 L-100 74 L-100 75 L-100 76 L-100 77 L-100 78 L-100 79 L-100 80 L-100 81 L-100 82 L-100 83 L-100 84 L-100 85 L-100 86 L-100 87 L-100 88 L-100 89 L-100 90 L-100 91 L-100 92 L-100 93 L-100 94 L-100 95 L-100 96 L-100 97 L-100 98 L-100 99 L-100 100 L-99 100 L-98 100 L-97 100 L-96 100 L-95 100 L-94 100 L-93 100 L-92 100 L-91 100 L-90 100 L-89 100 L-88 100 L-87 100 L-86 100 L-85 100 L-84 100 L-83 100 L-82 100 L-81 100 L-80 100 L-79 100 L-78 100 L-77 100 L-76 100 L-75 100 L-74 100 L-73 100 L-72 100 L-71 100 L-70 100 L-69 100 L-68 100 L-67 100 L-66 100 L-65 100 L-64 100 L-63 100 L-62 100 L-61 100 L-60 100 L-59 100 L-58 100 L-57 100 L-56 100 L-55 100 L-54 100 L-53 100 L-52 100 L-51 100 L-50 100 L-49 100 L-48 100 L-47 100 L-46 100 L-45 100 L-44 100 L-43 100 L-42 100 L-41 100 L-40 100 L-39 100 L-38 100 L-37 100 L-36 100 L-35 100 L-34 100 L-33 100 L-32 100 L-31 100 L-30 100 L-29 100 L-28 100 L-27 100 L-26 100 L-25 100 L-24 100 L-23 100 L-22 100 L-21 100 L-20 100 L-19 100 L-18 100 L-17 100 L-16 100 L-15 100 L-14 100 L-13 100 L-12 100 L-11 100 L-10 100 L-9 100 L-8 100 L-7 100 L-6 100 L-5 100 L-4 100 L-3 100 L-2 100 L-1 100 L0 100 L0 100.599 L0 101.339 L0 102.079 L0 102.818 L0 103.558 L0 104.298 L0 105.037 L0 105.777 L0 106.517 L0 107.257 L0 107.996 L0 108.736 L0 109.476 L0 110.215 L0 110.955 L0 111.695 L0 112.434 L0 113.174 L0 113.914 L0 114.654 L0 115.393 L0 116.133 L0 116.873 L0 117.612 L0 118.352 L0 119.092 L0 119.831 L0 120.571 L0 121.311 L0 122.051 L0 122.79 L0 123.53 L0 124.27 L0 125.009 L0 125.749 L0 126.489 L0 127.228 L0 127.968 L0 128.708 L0 129.448 L0 130.187 L0 130.927 L0 131.667 L0 132.406 L0 133.146 L0 133.886 L0 134.625 L0 135.365 L0 136.105 L0 136.845 L0 137.584 L0 138.324 L0 139.064 L0 139.803 L0 140.543 L0 141.283 L0 142.022 L0 142.762 L0 143.502 L0 144.242 L0 144.981 L0 145.721 L0 146.461 L0 147.2 L0 147.94 L0.7397 147.94 L1.4794 147.94 L2.2191 147.94 L2.9588 147.94 L3.6985 147.94 L4.4382 147.94 L5.1779 147.94 L5.9176 147.94 L6.6573 147.94 L7.397 147.94 L8.13669 147.94 L8.8764 147.94 L9.6161 147.94 L10.3558 147.94 L11.0955 147.94 L11.8352 147.94 L12.5749 147.94 L13.3146 147.94 L14.0543 147.94 L14.794 147.94 L15.5337 147.94 L16.2734 147.94 L17.0131 147.94 L17.7528 147.94 L18.4925 147.94 L19.2322 147.94 L19.9719 147.94 L20.7116 147.94 L21.4513 147.94 L22.191 147.94 L22.9307 147.94 L23.6704 147.94 L24.4101 147.94 L25.1498 147.94 L25.8895 147.94 L26.6292 147.94 L27.3689 147.94 L28.1086 147.94 L28.8483 147.94 L29.588 147.94 L30.3277 147.94 L31.0674 147.94 L31.8071 147.94 L32.5468 147.94 L33.2865 147.94 L34.0262 147.94 L34.7659 147.94 L35.5056 147.94 L36.2453 147.94 L36.985 147.94 L37.7247 147.94 L38.4644 147.94 L39.2041 147.94 L39.9438 147.94 L40.6835 147.94 L41.4232 147.94 L42.1629 147.94 L42.9026 147.94 L43.6423 147.94 L44.382 147.94 L45.1217 147.94 L45.8614 147.94 L46.6011 147.94 L47.3408 147.94 L48.0805 147.94 L48.8202 147.94 L49.5599 147.94 L50.2996 147.94 L51.0393 147.94 L51.779 147.94 L52.5187 147.94 L53.2584 147.94 L53.9981 147.94 L54.7378 147.94 L55.4775 147.94 L56.2172 147.94 L56.9569 147.94 L57.6966 147.94 L58.4363 147.94 L59.176 147.94 L59.9157 147.94 L60.6554 147.94 L61.3951 147.94 L62.1348 147.94 L62.8745 147.94 L63.6142 147.94 L64.3539 147.94 L65.0936 147.94 L65.8333 147.94 L66.573 147.94 L67.3127 147.94 L68.0524 147.94 L68.7921 147.94 L69.5318 147.94 L70.2715 147.94 L71.0112 147.94 L71.7509 147.94 L72.4906 147.94 L73.2303 147.94 L73.97 147.94 L74.7097 147.94 L75.4494 147.94 L76.1891 147.94 L76.9288 147.94 L77.6685 147.94 L78.4082 147.94 L79.1479 147.94 L79.8876 147.94 L80.6273 147.94 L81.367 147.94 L82.1067 147.94 L82.8464 147.94 L83.5861 147.94 L84.3258 147.94 L85.0655 147.94 L85.8052 147.94 L86.5449 147.94 L87.2846 147.94 L88.0243 147.94 L88.764 147.94 L89.5037 147.94 L90.2434 147.94 L90.9831 147.94 L91.7228 147.94 L92.4625 147.94 L93.2022 147.94 L93.9419 147.94 L94.6816 147.94 L95.4213 147.94 L96.161 147.94 L96.9007 147.94 L97.6404 147.94 L98.3801 147.94 L99.1198 147.94 L99.8595 147.94 L100.599 147.94 L101.339 147.94 L102.079 147.94 L102.818 147.94 L103.558 147.94 L104.298 147.94 L105.037 147.94 L105.777 147.94 L106.517 147.94 L107.257 147.94 L107.996 147.94 L108.736 147.94 L109.476 147.94 L110.215 147.94 L110.955 147.94 L111.695 147.94 L112.434 147.94 L113.174 147.94 L113.914 147.94 L114.654 147.94 L115.393 147.94 L116.133 147.94 L116.873 147.94 L117.612 147.94 L118.352 147.94 L119.092 147.94 L119.831 147.94 L120.571 147.94 L121.311 147.94 L122.051 147.94 L122.79 147.94 L123.53 147.94 L124.27 147.94 L125.009 147.94 L125.749 147.94 L126.489 147.94 L127.228 147.94 L127.968 147.94 L128.708 147.94 L129.448 147.94 L130.187 147.94 L130.927 147.94 L131.667 147.94 L132.406 147.94 L133.146 147.94 L133.886 147.94 L134.625 147.94 L135.365 147.94 L136.105 147.94 L136.845 147.94 L137.584 147.94 L138.324 147.94 L139.064 147.94 L139.803 147.94 L140.543 147.94 L141.283 147.94 L142.022 147.94 L142.762 147.94 L143.502 147.94 L144.242 147.94 L144.981 147.94 L145.721 147.94 L146.461 147.94 L147.2 147.94 L147.94 147.94 L147.94 147.2 Z " />
<path stroke="rgb(0,0,0)" stroke-opacity="1" fill="rgb(200,200,200)" fill-opacity="1" d="M-16.9492 221.811 L-17.6585 221.106 L-18.3678 220.402 L-19.0771 219.697 L-19.7864 218.993 L-20.4957 218.288 L-21.2049 217.583 L-21.9142 216.879 L-22.6235 216.174 L-23.3328 215.47 L-24.0421 214.765 L-24.7514 214.061 L-25.4606 213.356 L-26.1699 212.652 L-26.8792 211.947 L-27.5885 211.243 L-28.2978 210.538 L-29.0071 209.833 L-29.7163 209.129 L-30.4256 208.424 L-31.1349 207.72 L-31.8442 207.015 L-32.5535 206.311 L-33.2628 205.606 L-33.972 204.902 L-34.6813 204.197 L-35.3906 203.493 L-36.0999 202.788 L-36.8092 202.084 L-37.5185 201.379 L-38.2277 200.674 L-38.937 199.97 L-39.6463 199.265 L-40.3556 198.561 L-41.0649 197.856 L-41.7742 197.152 L-42.4834 196.447 L-43.1927 195.743 L-43.902 195.038 L-44.6113 194.334 L-45.3206 193.629 L-46.0299 192.925 L-46.7392 192.22 L-47.4484 191.515 L-48.1577 190.811 L-48.867 190.106 L-49.5763 189.402 L-50.2856 188.697 L-50.9948 187.993 L-51.7041 187.288 L-52.4134 186.584 L-53.1227 185.879 L-53.832 185.175 L-54.5413 184.47 L-55.2505 183.765 L-55.9598 183.061 L-56.6691 182.356 L-57.3784 181.652 L-58.0877 180.947 L-58.797 180.243 L-59.5063 179.538 L-60.2155 178.834 L-60.9248 178.129 L-61.6341 177.425 L-62.3434 176.72 L-63.0527 176.016 L-63.7619 175.311 L-64.4712 174.606 L-65.1805 173.902 L-65.8898 173.197 L-66.5991 172.493 L-67.3084 171.788 L-68.0177 171.084 L-68.7269 170.379 L-69.4362 169.675 L-70.1455 168.97 L-70.8548 168.266 L-71.5641 167.561 L-72.2734 166.857 L-72.9826 166.152 L-73.6919 165.447 L-74.4012 164.743 L-75.1105 164.038 L-75.8198 163.334 L-76.5291 162.629 L-77.2383 161.925 L-77.9476 161.22 L-78.6569 160.516 L-79.3662 159.811 L-80.0755 159.107 L-80.7848 158.402 L-81.494 157.697 L-82.2033 156.993 L-82.9126 156.288 L-83.6219 155.584 L-84.3312 154.879 L-85.0405 154.175 L-85.7497 153.47 L-86.459 152.766 L-87.1683 152.061 L-87.8776 151.357 L-88.5869 150.652 L-89.2962 149.948 L-90.0054 149.243 L-90.7147 148.538 L-91.424 147.834 L-92.1333 147.129 L-92.8426 146.425 L-93.5519 145.72 L-94.2612 145.016 L-94.9704 144.311 L-95.6797 143.607 L-96.389 142.902 L-97.0983 142.198 L-97.8076 141.493 L-98.5169 140.788 L-99.2261 140.084 L-99.9354 139.379 L-100.645 138.675 L-101.354 137.97 L-102.063 137.266 L-102.773 136.561 L-103.482 135.857 L-104.191 135.152 L-104.9 134.448 L-105.61 133.743 L-106.319 133.039 L-107.028 132.334 L-107.738 131.629 L-108.447 130.925 L-109.156 130.22 L-109.865 129.516 L-110.575 128.811 L-111.284 128.107 L-111.993 127.402 L-112.703 126.698 L-113.412 125.993 L-114.121 125.289 L-114.83 124.584 L-115.54 123.88 L-116.249 123.175 L-116.958 122.47 L-117.668 121.766 L-118.377 121.061 L-119.086 120.357 L-119.795 119.652 L-120.505 118.948 L-121.214 118.243 L-121.923 117.539 L-122.632 116.834 L-123.342 116.13 L-124.051 115.425 L-124.76 114.72 L-125.47 114.016 L-126.179 113.311 L-126.888 112.607 L-127.597 111.902 L-128.307 111.198 L-129.016 110.493 L-129.725 109.789 L-130.435 109.084 L-131.144 108.38 L-131.853 107.675 L-132.562 106.971 L-133.272 106.266 L-133.981 105.561 L-134.69 104.857 L-135.4 104.152 L-136.109 103.448 L-136.818 102.743 L-137.527 102.039 L-138.237 101.334 L-138.946 100.63 L-139.655 99.9251 L-140.365 99.2206 L-141.074 98.516 L-141.783 97.8115 L-142.492 97.107 L-143.202 96.4024 L-143.911 95.6979 L-144.62 94.9933 L-145.33 94.2888 L-146.039 93.5842 L-146.748 92.8797 L-147.457 92.1752 L-148.167 91.4706 L-148.876 90.7661 L-149.585 90.0615 L-150.295 89.357 L-151.004 88.6525 L-151.713 87.9479 L-152.422 87.2434 L-153.132 86.5388 L-153.841 85.8343 L-154.55 85.1298 L-155.26 84.4252 L-155.969 83.7207 L-156.678 83.0161 L-157.387 82.3116 L-158.097 81.6071 L-158.806 80.9025 L-159.515 80.198 L-160.225 79.4934 L-160.934 78.7889 L-161.643 78.0844 L-162.352 77.3798 L-163.062 76.6753 L-163.771 75.9707 L-164.48 75.2662 L-165.19 74.5617 L-165.899 73.8571 L-166.608 73.1526 L-167.317 72.448 L-168.027 71.7435 L-168.736 71.0389 L-169.445 70.3344 L-170.154 69.6299 L-170.864 68.9253 L-171.573 68.2208 L-172.282 67.5162 L-172.992 66.8117 L-173.701 66.1072 L-174.41 65.4026 L-175.119 64.6981 L-175.829 63.9935 L-176.538 63.289 L-177.247 62.5845 L-177.957 61.8799 L-178.666 61.1754 L-179.375 60.4708 L-180.084 59.7663 L-180.794 59.0618 L-181.503 58.3572 L-182.212 57.6527 L-182.922 56.9481 L-183.631 56.2436 L-184.34 55.5391 L-185.049 54.8345 L-185.759 54.13 L-186.468 53.4254 L-187.177 52.7209 L-187.887 52.0163 L-188.596 51.3118 L-189.305 50.6073 L-190.014 49.9027 L-190.724 49.1982 L-191.433 48.4936 L-192.142 47.7891 L-192.852 47.0846 L-193.561 46.38 L-194.27 45.6755 L-194.979 44.9709 L-195.689 44.2664 L-196.398 43.5618 L-197.107 42.8573 L-197.817 42.1528 L-198.526 41.4482 L-199.235 40.7437 L-199.944 40.0391 L-200.654 39.3346 L-201.363 38.6301 L-202.072 37.9255 L-202.782 37.221 L-203.491 36.5164 L-204.2 35.8119 L-204.909 35.1074 L-205.619 34.4028 L-206.328 33.6983 L-207.037 32.9937 L-207.747 32.2892 L-208.456 31.5847 L-209.165 30.8801 L-209.874 30.1756 L-210.584 29.471 L-211.293 28.7665 L-212.002 28.0619 L-212.712 27.3574 L-213.421 26.6529 L-214.13 25.9483 L-214.839 25.2438 L-215.549 24.5392 L-216.258 23.8347 L-216.967 23.1302 L-217.676 22.4256 L-218.386 21.7211 L-219.095 21.0165 L-219.804 20.312 L-220.514 19.6075 L-221.223 18.9029 L-221.91 18.2203 L-221.91 18.2203 L-16.8492 221.91 L-16.8492 221.91 L-16.9492 221.811 Z " />
</g>
</g>
</svg>
