<!DOCTYPE svg>
<svg xmlns="http://www.w3.org/2000/svg" xmlns:xlink="http://www.w3.org/1999/xlink" width="800" height="800">
<g transform="translate(400.000000,400.000000)">
<g transform="scale(1.000000,1.000000)">
<path stroke="rgb(0,0,0)" stroke-opacity="1" fill="rgb(200,200,200)" fill-opacity="1" d="M400 -276 L400 -277 L400 -278 L400 -279 L400 -280 L400 -281 L400 -282 L400 -283 L400 -284 L400 -285 L400 -286 L400 -287 L400 -288 L400 -289 L400 -290 L400 -291 L400 -292 L400 -293 L400 -294 L400 -295 L400 -296 L400 -297 L400 -298 L400 -299 L400 -300 L400 -301 L400 -302 L400 -303 L400 -304 L400 -305 L400 -306 L400 -307 L400 -308 L400 -309 L400 -310 L400 -311 L400 -312 L400 -313 L400 -314 L400 -315 L400 -316 L400 -317 L400 -318 L400 -319 L400 -320 L400 -321 L400 -322 L400 -323 L400 -324 L400 -325 L399 -325 L398 -325 L397 -325 L396 -325 L395 -325 L394 -325 L393 -325 L392 -325 L391 -325 L390 -325 L389 -325 L388 -325 L387 -325 L386 -325 L385 -325 L384 -325 L383 -325 L382 -325 L381 -325 L380 -325 L379 -325 L378 -325 L377 -325 L376 -325 L375 -325 L374 -325 L373 -325 L372 -325 L371 -325 L370 -325 L369 -325 L368 -325 L367 -325 L366 -325 L365 -325 L364 -325 L363 -325 L362 -325 L361 -325 L360 -325 L359 -325 L358 -325 L357 -325 L356 -325 L355 -325 L354 -325 L353 -325 L352 -325 L351 -325 L350 -325 L350 -324 L350 -323 L350 -322 L350 -321 L350 -320 L350 -319 L350 -318 L350 -317 L350 -316 L350 -315 L350 -314 L350 -313 L350 -312 L350 -311 L350 -310 L350 -309 L350 -308 L350 -307 L350 -306 L350 -305 L350 -304 L350 -303 L350 -302 L350 -301 L350 -300 L350 -299 L350 -298 L350 -297 L350 -296 L350 -295 L350 -294 L350 -293 L350 -292 L350 -291 L350 -290 L350 -289 L350 -288 L350 -287 L350 -286 L350 -285 L350 -284 L350 -283 L350 -282 L350 -281 L350 -280 L350 -279 L350 -278 L350 -277 L350 -276 L350 -275 L351 -275 L352 -275 L353 -275 L354 -275 L355 -275 L356 -275 L357 -275 L358 -275 L359 -275 L360 -275 L361 -275 L362 -275 L363 -275 L364 -275 L365 -275 L366 -275 L367 -275 L368 -275 L369 -275 L370 -275 L371 -275 L372 -275 L373 -275 L374 -275 L375 -275 L376 -275 L377 -275 L378 -275 L379 -275 L380 -275 L381 -275 L382 -275 L383 -275 L384 -275 L385 -275 L386 -275 L387 -275 L388 -275 L389 -275 L390 -275 L391 -275 L392 -275 L393 -275 L394 -275 L395 -275 L396 -275 L397 -275 L398 -275 L399 -275 L400 -275 L400 -276 Z " />
<path stroke="rgb(0,0,0)" stroke-opacity="1" fill="rgb(200,200,200)" fill-opacity="1" d="M274.055 273.142 L274.055 272.228 L274.055 271.315 L274.055 270.401 L274.055 269.488 L274.055 268.574 L274.055 267.661 L274.055 266.747 L274.055 265.834 L274.055 264.92 L274.055 264.006 L274.055 263.093 L274.055 262.179 L274.055 261.266 L274.055 260.352 L274.055 259.439 L274.055 258.525 L274.055 257.612 L274.055 256.698 L274.055 255.785 L274.055 254.871 L274.055 253.958 L274.055 253.044 L274.055 252.131 L274.055 251.217 L274.055 250.304 L274.055 249.39 L274.055 248.477 L274.055 247.563 L274.055 246.65 L274.055 245.736 L274.055 244.823 L274.055 243.909 L274.055 242.996 L274.055 242.082 L274.055 241.169 L274.055 240.255 L274.055 239.342 L274.055 238.428 L274.055 237.514 L274.055 236.601 L274.055 235.687 L274.055 234.774 L274.055 233.86 L274.055 232.947 L274.055 232.033 L274.055 231.12 L274.055 230.206 L274.055 229.293 L274.055 228.379 L274.055 227.466 L274.055 226.552 L274.055 225.639 L274.055 224.725 L274.055 223.812 L274.055 222.898 L274.055 221.985 L274.055 221.071 L274.055 220.158 L274.055 219.244 L274.055 218.331 L274.055 217.417 L274.055 216.504 L274.055 215.59 L274.055 214.677 L274.055 213.763 L274.055 212.85 L274.055 211.936 L274.055 211.022 L274.055 210.109 L274.055 209.195 L274.055 208.282 L274.055 207.368 L274.055 206.455 L274.055 205.541 L274.055 204.628 L274.055 203.714 L274.055 202.801 L274.055 201.887 L274.055 200.974 L274.055 200.06 L274.055 199.147 L274.055 198.233 L274.055 197.32 L274.055 196.406 L274.055 195.493 L274.055 194.579 L274.055 193.666 L274.055 192.752 L274.055 191.839 L274.055 190.925 L274.055 190.012 L274.055 189.098 L274.055 188.185 L274.055 187.271 L274.055 186.358 L274.055 185.444 L274.055 184.53 L274.055 183.617 L274.055 182.703 L274.055 181.79 L274.055 180.876 L274.055 179.963 L274.055 179.049 L274.055 178.136 L274.055 177.222 L274.055 176.309 L274.055 175.395 L274.055 174.482 L274.055 173.568 L274.055 172.655 L274.055 171.741 L274.055 170.828 L274.055 169.914 L274.055 169.001 L274.055 168.087 L274.055 167.174 L274.055 166.26 L274.055 165.347 L274.055 164.433 L274.055 163.52 L274.055 162.606 L274.055 161.693 L274.055 160.779 L274.055 159.866 L274.055 158.952 L274.055 158.038 L274.055 157.125 L274.055 156.211 L274.055 155.298 L274.055 154.384 L274.055 153.471 L274.055 152.557 L274.055 151.644 L274.055 150.73 L274.055 149.817 L274.055 148.903 L274.055 147.99 L274.055 147.076 L274.055 146.163 L274.055 145.249 L274.055 144.336 L274.055 143.422 L274.055 142.509 L274.055 141.595 L274.055 140.682 L274.055 139.768 L274.055 138.855 L274.055 137.941 L274.055 137.028 L274.055 136.114 L274.055 135.201 L274.055 134.287 L274.055 133.374 L274.055 132.46 L274.055 131.546 L274.055 130.633 L274.055 129.719 L274.055 128.806 L274.055 127.892 L274.055 126.979 L274.055 126.065 L274.055 125.152 L274.055 124.238 L274.055 123.325 L274.055 122.411 L274.055 121.498 L274.055 120.584 L274.055 119.671 L274.055 118.757 L274.055 117.844 L274.055 116.93 L274.055 116.017 L274.055 115.103 L274.055 114.19 L274.055 113.276 L274.055 112.363 L274.055 111.449 L274.055 110.536 L274.055 109.622 L274.055 108.709 L274.055 107.795 L274.055 106.882 L274.055 105.968 L274.055 105.054 L274.055 104.141 L274.055 103.227 L274.055 102.314 L274.055 101.4 L274.055 100.487 L274.055 99.5734 L274.055 98.6599 L274.055 97.7463 L274.055 96.8328 L274.055 95.9193 L274.055 95.0058 L274.055 94.0923 L274.055 93.1787 L274.055 92.2652 L274.055 91.3517 L274.055 90.4382 L274.055 89.5247 L274.055 88.6112 L274.055 87.6976 L274.055 86.7841 L274.055 85.8706 L274.055 84.9571 L274.055 84.0436 L274.055 83.1301 L274.055 82.2165 L274.055 81.303 L274.055 80.3895 L274.055 79.476 L274.055 78.5625 L274.055 77.649 L274.055 76.7354 L274.055 75.8219 L274.055 74.9084 L274.055 73.9949 L274.055 73.0814 L274.055 72.1679 L274.055 71.2543 L274.055 70.3408 L274.055 69.4273 L274.055 68.5138 L274.055 67.6003 L274.055 66.6868 L274.055 65.7732 L274.055 64.8597 L274.055 63.9462 L274.055 63.0327 L274.055 62.1192 L274.055 61.2056 L274.055 60.2921 L274.055 59.3786 L274.055 58.4651 L274.055 57.5516 L274.055 56.6381 L274.055 55.7246 L274.055 54.811 L274.055 53.8975 L274.055 52.984 L274.055 52.0705 L274.055 51.157 L274.055 50.2434 L274.055 49.3299 L274.055 48.4164 L274.055 47.5029 L274.055 46.5894 L274.055 45.6759 L274.055 44.7623 L274.055 43.8488 L274.055 42.9353 L274.055 42.0218 L274.055 41.1083 L274.055 40.1947 L274.055 39.2812 L274.055 38.3677 L274.055 37.4542 L274.055 36.5407 L274.055 35.6272 L274.055 34.7137 L274.055 33.8001 L274.055 32.8866 L274.055 31.9731 L274.055 31.0596 L274.055 30.1461 L274.055 29.2325 L274.055 28.319 L274.055 27.4055 L274.055 26.492 L274.055 25.5785 L274.055 24.665 L274.055 23.7514 L274.055 22.8379 L274.055 21.9244 L274.055 21.0109 L274.055 20.0974 L274.055 19.1839 L274.055 18.2703 L274.055 17.3568 L274.055 16.4433 L274.055 15.5298 L274.055 14.6163 L274.055 13.7027 L274.055 12.7892 L274.055 11.8757 L274.055 10.9622 L274.055 10.0487 L274.055 9.13517 L274.055 8.22165 L274.055 7.30813 L274.055 6.39462 L274.055 5.4811 L274.055 4.56758 L274.055 3.65406 L274.055 2.74055 L274.055 1.82703 L274.055 0.91351 L274.055 0 L274.055 -0.91351 L274.055 -1.82703 L274.055 -2.74055 L274.055 -3.65406 L274.055 -4.56758 L274.055 -5.4811 L274.055 -6.39462 L274.055 -7.30813 L274.055 -8.22165 L274.055 -9.13517 L274.055 -10.0487 L274.055 -10.9622 L274.055 -11.8757 L274.055 -12.7892 L274.055 -13.7027 L274.055 -14.6163 L274.055 -15.5298 L274.055 -16.4433 L274.055 -17.3568 L274.055 -18.2703 L274.055 -19.1839 L274.055 -20.0974 L274.055 -21.0109 L274.055 -21.9244 L274.055 -22.8379 L274.055 -23.7514 L274.055 -24.665 L274.055 -25.5785 L274.055 -26.492 L274.055 -27.4055 L274.055 -28.319 L274.055 -29.2325 L274.055 -30.1461 L274.055 -31.0596 L274.055 -31.9731 L274.055 -32.8866 L274.055 -33.8001 L274.055 -34.7137 L274.055 -35.6272 L274.055 -36.5407 L274.055 -37.4542 L274.055 -38.3677 L274.055 -39.2812 L274.055 -40.1947 L274.055 -41.1083 L274.055 -42.0218 L274.055 -42.9353 L274.055 -43.8488 L274.055 -44.7623 L274.055 -45.6759 L274.055 -46.5894 L274.055 -47.5029 L274.055 -48.4164 L274.055 -49.3299 L274.055 -50.2434 L274.055 -51.157 L274.055 -52.0705 L274.055 -52.984 L274.055 -53.8975 L274.055 -54.811 L274.055 -55.7246 L274.055 -56.6381 L274.055 -57.5516 L274.055 -58.4651 L274.055 -59.3786 L274.055 -60.2921 L274.055 -61.2056 L274.055 -62.1192 L274.055 -63.0327 L274.055 -63.9462 L274.055 -64.8597 L274.055 -65.7732 L274.055 -66.6868 L274.055 -67.6003 L274.055 -68.5138 L274.055 -69.4273 L274.055 -70.3408 L274.055 -71.2543 L274.055 -72.1679 L274.055 -73.0814 L274.055 -73.9949 L274.055 -74.9084 L274.055 -75.8219 L274.055 -76.7354 L274.055 -77.649 L274.055 -78.5625 L274.055 -79.476 L274.055 -80.3895 L274.055 -81.303 L274.055 -82.2165 L274.055 -83.1301 L274.055 -84.0436 L274.055 -84.9571 L274.055 -85.8706 L274.055 -86.7841 L274.055 -87.6976 L274.055 -88.6112 L274.055 -89.5247 L274.055 -90.4382 L274.055 -91.3517 L274.055 -92.2652 L274.055 -93.1787 L274.055 -94.0923 L274.055 -95.0058 L274.055 -95.9193 L274.055 -96.8328 L274.055 -97.7463 L274.055 -98.6599 L274.055 -99.5734 L274.055 -100.487 L274.055 -101.4 L274.055 -102.314 L274.055 -103.227 L274.055 -104.141 L274.055 -105.054 L274.055 -105.968 L274.055 -106.882 L274.055 -107.795 L274.055 -108.709 L274.055 -109.622 L274.055 -110.536 L274.055 -111.449 L274.055 -112.363 L274.055 -113.276 L274.055 -114.19 L274.055 -115.103 L274.055 -116.017 L274.055 -116.93 L274.055 -117.844 L274.055 -118.757 L274.055 -119.671 L274.055 -120.584 L274.055 -121.498 L274.055 -122.411 L274.055 -123.325 L274.055 -124.238 L274.055 -125.152 L274.055 -126.065 L274.055 -126.979 L274.055 -127.892 L274.055 -128.806 L274.055 -129.719 L274.055 -130.633 L274.055 -131.546 L274.055 -132.46 L274.055 -133.374 L274.055 -134.287 L274.055 -135.201 L274.055 -136.114 L274.055 -137.028 L274.055 -137.941 L274.055 -138.855 L274.055 -139.768 L274.055 -140.682 L274.055 -141.595 L274.055 -142.509 L274.055 -143.422 L274.055 -144.336 L274.055 -145.249 L274.055 -146.163 L274.055 -147.076 L274.055 -147.99 L274.055 -148.903 L274.055 -149.817 L274.055 -150.73 L274.055 -151.644 L274.055 -152.557 L274.055 -153.471 L274.055 -154.384 L274.055 -155.298 L274.055 -156.211 L274.055 -157.125 L274.055 -158.038 L274.055 -158.952 L274.055 -159.866 L274.055 -160.779 L274.055 -161.693 L274.055 -162.606 L274.055 -163.52 L274.055 -164.433 L274.055 -165.347 L274.055 -166.26 L274.055 -167.174 L274.055 -168.087 L274.055 -169.001 L274.055 -169.914 L274.055 -170.828 L274.055 -171.741 L274.055 -172.655 L274.055 -173.568 L274.055 -174.482 L274.055 -175.395 L274.055 -176.309 L274.055 -177.222 L274.055 -178.136 L274.055 -179.049 L274.055 -179.963 L274.055 -180.876 L274.055 -181.79 L274.055 -182.703 L274.055 -183.617 L274.055 -184.53 L274.055 -185.444 L274.055 -186.358 L274.055 -187.271 L274.055 -188.185 L274.055 -189.098 L274.055 -190.012 L274.055 -190.925 L274.055 -191.839 L274.055 -192.752 L274.055 -193.666 L274.055 -194.579 L274.055 -195.493 L274.055 -196.406 L274.055 -197.32 L274.055 -198.233 L274.055 -199.147 L274.055 -200.06 L274.055 -200.974 L274.055 -201.887 L274.055 -202.801 L274.055 -203.714 L274.055 -204.628 L274.055 -205.541 L274.055 -206.455 L274.055 -207.368 L274.055 -208.282 L274.055 -209.195 L274.055 -210.109 L274.055 -211.022 L274.055 -211.936 L274.055 -212.85 L274.055 -213.763 L274.055 -214.677 L274.055 -215.59 L274.055 -216.504 L274.055 -217.417 L274.055 -218.331 L274.055 -219.244 L274.055 -220.158 L274.055 -221.071 L274.055 -221.985 L274.055 -222.898 L274.055 -223.812 L274.055 -224.725 L274.055 -225.639 L274.055 -226.552 L274.055 -227.466 L274.055 -228.379 L274.055 -229.293 L274.055 -230.206 L274.055 -231.12 L274.055 -232.033 L274.055 -232.947 L274.055 -233.86 L274.055 -234.774 L274.055 -235.687 L274.055 -236.601 L274.055 -237.514 L274.055 -238.428 L274.055 -239.342 L274.055 -240.255 L274.055 -241.169 L274.055 -242.082 L274.055 -242.996 L274.055 -243.909 L274.055 -244.823 L274.055 -245.736 L274.055 -246.65 L274.055 -247.563 L274.055 -248.477 L274.055 -249.39 L274.055 -250.304 L274.055 -251.217 L274.055 -252.131 L274.055 -253.044 L274.055 -253.958 L274.055 -254.871 L274.055 -255.785 L274.055 -256.698 L274.055 -257.612 L274.055 -258.525 L274.055 -259.439 L274.055 -260.352 L274.055 -261.266 L274.055 -262.179 L274.055 -263.093 L274.055 -264.006 L274.055 -264.92 L274.055 -265.834 L274.055 -266.747 L274.055 -267.661 L274.055 -268.574 L274.055 -269.488 L274.055 -270.401 L274.055 -271.315 L274.055 -272.228 L274.055 -273.142 L274.055 -274.055 L273.142 -274.055 L272.228 -274.055 L271.315 -274.055 L270.401 -274.055 L269.488 -274.055 L268.574 -274.055 L267.661 -274.055 L266.747 -274.055 L265.834 -274.055 L264.92 -274.055 L264.006 -274.055 L263.093 -274.055 L262.179 -274.055 L261.266 -274.055 L260.352 -274.055 L259.439 -274.055 L258.525 -274.055 L257.612 -274.055 L256.698 -274.055 L255.785 -274.055 L254.871 -274.055 L253.958 -274.055 L253.044 -274.055 L252.131 -274.055 L251.217 -274.055 L250.304 -274.055 L249.39 -274.055 L248.477 -274.055 L247.563 -274.055 L246.65 -274.055 L245.736 -274.055 L244.823 -274.055 L243.909 -274.055 L242.996 -274.055 L242.082 -274.055 L241.169 -274.055 L240.255 -274.055 L239.342 -274.055 L238.428 -274.055 L237.514 -274.055 L236.601 -274.055 L235.687 -274.055 L234.774 -274.055 L233.86 -274.055 L232.947 -274.055 L232.033 -274.055 L231.12 -274.055 L230.206 -274.055 L229.293 -274.055 L228.379 -274.055 L227.466 -274.055 L226.552 -274.055 L225.639 -274.055 L224.725 -274.055 L223.812 -274.055 L222.898 -274.055 L221.985 -274.055 L221.071 -274.055 L220.158 -274.055 L219.244 -274.055 L218.331 -274.055 L217.417 -274.055 L216.504 -274.055 L215.59 -274.055 L214.677 -274.055 L213.763 -274.055 L212.85 -274.055 L211.936 -274.055 L211.022 -274.055 L210.109 -274.055 L209.195 -274.055 L208.282 -274.055 L207.368 -274.055 L206.455 -274.055 L205.541 -274.055 L204.628 -274.055 L203.714 -274.055 L202.801 -274.055 L201.887 -274.055 L200.974 -274.055 L200.06 -274.055 L199.147 -274.055 L198.233 -274.055 L197.32 -274.055 L196.406 -274.055 L195.493 -274.055 L194.579 -274.055 L193.666 -274.055 L192.752 -274.055 L191.839 -274.055 L190.925 -274.055 L190.012 -274.055 L189.098 -274.055 L188.185 -274.055 L187.271 -274.055 L186.358 -274.055 L185.444 -274.055 L184.53 -274.055 L183.617 -274.055 L182.703 -274.055 L181.79 -274.055 L180.876 -274.055 L179.963 -274.055 L179.049 -274.055 L178.136 -274.055 L177.222 -274.055 L176.309 -274.055 L175.395 -274.055 L174.482 -274.055 L173.568 -274.055 L172.655 -274.055 L171.741 -274.055 L170.828 -274.055 L169.914 -274.055 L169.001 -274.055 L168.087 -274.055 L167.174 -274.055 L166.26 -274.055 L165.347 -274.055 L164.433 -274.055 L163.52 -274.055 L162.606 -274.055 L161.693 -274.055 L160.779 -274.055 L159.866 -274.055 L158.952 -274.055 L158.038 -274.055 L157.125 -274.055 L156.211 -274.055 L155.298 -274.055 L154.384 -274.055 L153.471 -274.055 L152.557 -274.055 L151.644 -274.055 L150.73 -274.055 L149.817 -274.055 L148.903 -274.055 L147.99 -274.055 L147.076 -274.055 L146.163 -274.055 L145.249 -274.055 L144.336 -274.055 L143.422 -274.055 L142.509 -274.055 L141.595 -274.055 L140.682 -274.055 L139.768 -274.055 L138.855 -274.055 L137.941 -274.055 L137.028 -274.055 L136.114 -274.055 L135.201 -274.055 L134.287 -274.055 L133.374 -274.055 L132.46 -274.055 L131.546 -274.055 L130.633 -274.055 L129.719 -274.055 L128.806 -274.055 L127.892 -274.055 L126.979 -274.055 L126.065 -274.055 L125.152 -274.055 L124.238 -274.055 L123.325 -274.055 L122.411 -274.055 L121.498 -274.055 L120.584 -274.055 L119.671 -274.055 L118.757 -274.055 L117.844 -274.055 L116.93 -274.055 L116.017 -274.055 L115.103 -274.055 L114.19 -274.055 L113.276 -274.055 L112.363 -274.055 L111.449 -274.055 L110.536 -274.055 L109.622 -274.055 L108.709 -274.055 L107.795 -274.055 L106.882 -274.055 L105.968 -274.055 L105.054 -274.055 L104.141 -274.055 L103.227 -274.055 L102.314 -274.055 L101.4 -274.055 L100.487 -274.055 L99.5734 -274.055 L98.6599 -274.055 L97.7463 -274.055 L96.8328 -274.055 L95.9193 -274.055 L95.0058 -274.055 L94.0923 -274.055 L93.1787 -274.055 L92.2652 -274.055 L91.3517 -274.055 L90.4382 -274.055 L89.5247 -274.055 L88.6112 -274.055 L87.6976 -274.055 L86.7841 -274.055 L85.8706 -274.055 L84.9571 -274.055 L84.0436 -274.055 L83.1301 -274.055 L82.2165 -274.055 L81.303 -274.055 L80.3895 -274.055 L79.476 -274.055 L78.5625 -274.055 L77.649 -274.055 L76.7354 -274.055 L75.8219 -274.055 L74.9084 -274.055 L73.9949 -274.055 L73.0814 -274.055 L72.1679 -274.055 L71.2543 -274.055 L70.3408 -274.055 L69.4273 -274.055 L68.5138 -274.055 L67.6003 -274.055 L66.6868 -274.055 L65.7732 -274.055 L64.8597 -274.055 L63.9462 -274.055 L63.0327 -274.055 L62.1192 -274.055 L61.2056 -274.055 L60.2921 -274.055 L59.3786 -274.055 L58.4651 -274.055 L57.5516 -274.055 L56.6381 -274.055 L55.7246 -274.055 L54.811 -274.055 L53.8975 -274.055 L52.984 -274.055 L52.0705 -274.055 L51.157 -274.055 L50.2434 -274.055 L49.3299 -274.055 L48.4164 -274.055 L47.5029 -274.055 L46.5894 -274.055 L45.6759 -274.055 L44.7623 -274.055 L43.8488 -274.055 L42.9353 -274.055 L42.0218 -274.055 L41.1083 -274.055 L40.1947 -274.055 L39.2812 -274.055 L38.3677 -274.055 L37.4542 -274.055 L36.5407 -274.055 L35.6272 -274.055 L34.7137 -274.055 L33.8001 -274.055 L32.8866 -274.055 L31.9731 -274.055 L31.0596 -274.055 L30.1461 -274.055 L29.2325 -274.055 L28.319 -274.055 L27.4055 -274.055 L26.492 -274.055 L25.5785 -274.055 L24.665 -274.055 L23.7514 -274.055 L22.8379 -274.055 L21.9244 -274.055 L21.0109 -274.055 L20.0974 -274.055 L19.1839 -274.055 L18.2703 -274.055 L17.3568 -274.055 L16.4433 -274.055 L15.5298 -274.055 L14.6163 -274.055 L13.7027 -274.055 L12.7892 -274.055 L11.8757 -274.055 L10.9622 -274.055 L10.0487 -274.055 L9.13517 -274.055 L8.22165 -274.055 L7.30813 -274.055 L6.39462 -274.055 L5.4811 -274.055 L4.56758 -274.055 L3.65406 -274.055 L2.74055 -274.055 L1.82703 -274.055 L0.91351 -274.055 L0 -274.055 L-0.91351 -274.055 L-1.82703 -274.055 L-2.74055 -274.055 L-3.65406 -274.055 L-4.56758 -274.055 L-5.4811 -274.055 L-6.39462 -274.055 L-7.30813 -274.055 L-8.22165 -274.055 L-9.13517 -274.055 L-10.0487 -274.055 L-10.9622 -274.055 L-11.8757 -274.055 L-12.7892 -274.055 L-13.7027 -274.055 L-14.6163 -274.055 L-15.5298 -274.055 L-16.4433 -274.055 L-17.3568 -274.055 L-18.2703 -274.055 L-19.1839 -274.055 L-20.0974 -274.055 L-21.0109 -274.055 L-21.9244 -274.055 L-22.8379 -274.055 L-23.7514 -274.055 L-24.665 -274.055 L-25.5785 -274.055 L-26.492 -274.055 L-27.4055 -274.055 L-28.319 -274.055 L-29.2325 -274.055 L-30.1461 -274.055 L-31.0596 -274.055 L-31.9731 -274.055 L-32.8866 -274.055 L-33.8001 -274.055 L-34.7137 -274.055 L-35.6272 -274.055 L-36.5407 -274.055 L-37.4542 -274.055 L-38.3677 -274.055 L-39.2812 -274.055 L-40.1947 -274.055 L-41.1083 -274.055 L-42.0218 -274.055 L-42.9353 -274.055 L-43.8488 -274.055 L-44.7623 -274.055 L-45.6759 -274.055 L-46.5894 -274.055 L-47.5029 -274.055 L-48.4164 -274.055 L-49.3299 -274.055 L-50.2434 -274.055 L-51.157 -274.055 L-52.0705 -274.055 L-52.984 -274.055 L-53.8975 -274.055 L-54.811 -274.055 L-55.7246 -274.055 L-56.6381 -274.055 L-57.5516 -274.055 L-58.4651 -274.055 L-59.3786 -274.055 L-60.2921 -274.055 L-61.2056 -274.055 L-62.1192 -274.055 L-63.0327 -274.055 L-63.9462 -274.055 L-64.8597 -274.055 L-65.7732 -274.055 L-66.6868 -274.055 L-67.6003 -274.055 L-68.5138 -274.055 L-69.4273 -274.055 L-70.3408 -274.055 L-71.2543 -274.055 L-72.1679 -274.055 L-73.0814 -274.055 L-73.9949 -274.055 L-74.9084 -274.055 L-75.8219 -274.055 L-76.7354 -274.055 L-77.649 -274.055 L-78.5625 -274.055 L-79.476 -274.055 L-80.3895 -274.055 L-81.303 -274.055 L-82.2165 -274.055 L-83.1301 -274.055 L-84.0436 -274.055 L-84.9571 -274.055 L-85.8706 -274.055 L-86.7841 -274.055 L-87.6976 -274.055 L-88.6112 -274.055 L-89.5247 -274.055 L-90.4382 -274.055 L-91.3517 -274.055 L-92.2652 -274.055 L-93.1787 -274.055 L-94.0923 -274.055 L-95.0058 -274.055 L-95.9193 -274.055 L-96.8328 -274.055 L-97.7463 -274.055 L-98.6599 -274.055 L-99.5734 -274.055 L-100.487 -274.055 L-101.4 -274.055 L-102.314 -274.055 L-103.227 -274.055 L-104.141 -274.055 L-105.054 -274.055 L-105.968 -274.055 L-106.882 -274.055 L-107.795 -274.055 L-108.709 -274.055 L-109.622 -274.055 L-110.536 -274.055 L-111.449 -274.055 L-112.363 -274.055 L-113.276 -274.055 L-114.19 -274.055 L-115.103 -274.055 L-116.017 -274.055 L-116.93 -274.055 L-117.844 -274.055 L-118.757 -274.055 L-119.671 -274.055 L-120.584 -274.055 L-121.498 -274.055 L-122.411 -274.055 L-123.325 -274.055 L-124.238 -274.055 L-125.152 -274.055 L-126.065 -274.055 L-126.979 -274.055 L-127.892 -274.055 L-128.806 -274.055 L-129.719 -274.055 L-130.633 -274.055 L-131.546 -274.055 L-132.46 -274.055 L-133.374 -274.055 L-134.287 -274.055 L-135.201 -274.055 L-136.114 -274.055 L-137.028 -274.055 L-137.941 -274.055 L-138.855 -274.055 L-139.768 -274.055 L-140.682 -274.055 L-141.595 -274.055 L-142.509 -274.055 L-143.422 -274.055 L-144.336 -274.055 L-145.249 -274.055 L-146.163 -274.055 L-147.076 -274.055 L-147.99 -274.055 L-148.903 -274.055 L-149.817 -274.055 L-150.73 -274.055 L-151.644 -274.055 L-152.557 -274.055 L-153.471 -274.055 L-154.384 -274.055 L-155.298 -274.055 L-156.211 -274.055 L-157.125 -274.055 L-158.038 -274.055 L-158.952 -274.055 L-159.866 -274.055 L-160.779 -274.055 L-161.693 -274.055 L-162.606 -274.055 L-163.52 -274.055 L-164.433 -274.055 L-165.347 -274.055 L-166.26 -274.055 L-167.174 -274.055 L-168.087 -274.055 L-169.001 -274.055 L-169.914 -274.055 L-170.828 -274.055 L-171.741 -274.055 L-172.655 -274.055 L-173.568 -274.055 L-174.482 -274.055 L-175.395 -274.055 L-176.309 -274.055 L-177.222 -274.055 L-178.136 -274.055 L-179.049 -274.055 L-179.963 -274.055 L-180.876 -274.055 L-181.79 -274.055 L-182.703 -274.055 L-183.617 -274.055 L-184.53 -274.055 L-185.444 -274.055 L-186.358 -274.055 L-187.271 -274.055 L-188.185 -274.055 L-189.098 -274.055 L-190.012 -274.055 L-190.925 -274.055 L-191.839 -274.055 L-192.752 -274.055 L-193.666 -274.055 L-194.579 -274.055 L-195.493 -274.055 L-196.406 -274.055 L-197.32 -274.055 L-198.233 -274.055 L-199.147 -274.055 L-200.06 -274.055 L-200.974 -274.055 L-201.887 -274.055 L-202.801 -274.055 L-203.714 -274.055 L-204.628 -274.055 L-205.541 -274.055 L-206.455 -274.055 L-207.368 -274.055 L-208.282 -274.055 L-209.195 -274.055 L-210.109 -274.055 L-211.022 -274.055 L-211.936 -274.055 L-212.85 -274.055 L-213.763 -274.055 L-214.677 -274.055 L-215.59 -274.055 L-216.504 -274.055 L-217.417 -274.055 L-218.331 -274.055 L-219.244 -274.055 L-220.158 -274.055 L-221.071 -274.055 L-221.985 -274.055 L-222.898 -274.055 L-223.812 -274.055 L-224.725 -274.055 L-225.639 -274.055 L-226.552 -274.055 L-227.466 -274.055 L-228.379 -274.055 L-229.293 -274.055 L-230.206 -274.055 L-231.12 -274.055 L-232.033 -274.055 L-232.947 -274.055 L-233.86 -274.055 L-234.774 -274.055 L-235.687 -274.055 L-236.601 -274.055 L-237.514 -274.055 L-238.428 -274.055 L-239.342 -274.055 L-240.255 -274.055 L-241.169 -274.055 L-242.082 -274.055 L-242.996 -274.055 L-243.909 -274.055 L-244.823 -274.055 L-245.736 -274.055 L-246.65 -274.055 L-247.563 -274.055 L-248.477 -274.055 L-249.39 -274.055 L-250.304 -274.055 L-251.217 -274.055 L-252.131 -274.055 L-253.044 -274.055 L-253.958 -274.055 L-254.871 -274.055 L-255.785 -274.055 L-256.698 -274.055 L-257.612 -274.055 L-258.525 -274.055 L-259.439 -274.055 L-260.352 -274.055 L-261.266 -274.055 L-262.179 -274.055 L-263.093 -274.055 L-264.006 -274.055 L-264.92 -274.055 L-265.834 -274.055 L-266.747 -274.055 L-267.661 -274.055 L-268.574 -274.055 L-269.488 -274.055 L-270.401 -274.055 L-271.315 -274.055 L-272.228 -274.055 L-273.142 -274.055 L-274.055 -274.055 L-274.055 -273.142 L-274.055 -272.228 L-274.055 -271.315 L-274.055 -270.401 L-274.055 -269.488 L-274.055 -268.574 L-274.055 -267.661 L-274.055 -266.747 L-274.055 -265.834 L-274.055 -264.92 L-274.055 -264.006 L-274.055 -263.093 L-274.055 -262.179 L-274.055 -261.266 L-274.055 -260.352 L-274.055 -259.439 L-274.055 -258.525 L-274.055 -257.612 L-274.055 -256.698 L-274.055 -255.785 L-274.055 -254.871 L-274.055 -253.958 L-274.055 -253.044 L-274.055 -252.131 L-274.055 -251.217 L-274.055 -250.304 L-274.055 -249.39 L-274.055 -248.477 L-274.055 -247.563 L-274.055 -246.65 L-274.055 -245.736 L-274.055 -244.823 L-274.055 -243.909 L-274.055 -242.996 L-274.055 -242.082 L-274.055 -241.169 L-274.055 -240.255 L-274.055 -239.342 L-274.055 -238.428 L-274.055 -237.514 L-274.055 -236.601 L-274.055 -235.687 L-274.055 -234.774 L-274.055 -233.86 L-274.055 -232.947 L-274.055 -232.033 L-274.055 -231.12 L-274.055 -230.206 L-274.055 -229.293 L-274.055 -228.379 L-274.055 -227.466 L-274.055 -226.552 L-274.055 -225.639 L-274.055 -224.725 L-274.055 -223.812 L-274.055 -222.898 L-274.055 -221.985 L-274.055 -221.071 L-274.055 -220.158 L-274.055 -219.244 L-274.055 -218.331 L-274.055 -217.417 L-274.055 -216.504 L-274.055 -215.59 L-274.055 -214.677 L-274.055 -213.763 L-274.055 -212.85 L-274.055 -211.936 L-274.055 -211.022 L-274.055 -210.109 L-274.055 -209.195 L-274.055 -208.282 L-274.055 -207.368 L-274.055 -206.455 L-274.055 -205.541 L-274.055 -204.628 L-274.055 -203.714 L-274.055 -202.801 L-274.055 -201.887 L-274.055 -200.974 L-274.055 -200.06 L-274.055 -199.147 L-274.055 -198.233 L-274.055 -197.32 L-274.055 -196.406 L-274.055 -195.493 L-274.055 -194.579 L-274.055 -193.666 L-274.055 -192.752 L-274.055 -191.839 L-274.055 -190.925 L-274.055 -190.012 L-274.055 -189.098 L-274.055 -188.185 L-274.055 -187.271 L-274.055 -186.358 L-274.055 -185.444 L-274.055 -184.53 L-274.055 -183.617 L-274.055 -182.703 L-274.055 -181.79 L-274.055 -180.876 L-274.055 -179.963 L-274.055 -179.049 L-274.055 -178.136 L-274.055 -177.222 L-274.055 -176.309 L-274.055 -175.395 L-274.055 -174.482 L-274.055 -173.568 L-274.055 -172.655 L-274.055 -171.741 L-274.055 -170.828 L-274.055 -169.914 L-274.055 -169.001 L-274.055 -168.087 L-274.055 -167.174 L-274.055 -166.26 L-274.055 -165.347 L-274.055 -164.433 L-274.055 -163.52 L-274.055 -162.606 L-274.055 -161.693 L-274.055 -160.779 L-274.055 -159.866 L-274.055 -158.952 L-274.055 -158.038 L-274.055 -157.125 L-274.055 -156.211 L-274.055 -155.298 L-274.055 -154.384 L-274.055 -153.471 L-274.055 -152.557 L-274.055 -151.644 L-274.055 -150.73 L-274.055 -149.817 L-274.055 -148.903 L-274.055 -147.99 L-274.055 -147.076 L-274.055 -146.163 L-274.055 -145.249 L-274.055 -144.336 L-274.055 -143.422 L-274.055 -142.509 L-274.055 -141.595 L-274.055 -140.682 L-274.055 -139.768 L-274.055 -138.855 L-274.055 -137.941 L-274.055 -137.028 L-274.055 -136.114 L-274.055 -135.201 L-274.055 -134.287 L-274.055 -133.374 L-274.055 -132.46 L-274.055 -131.546 L-274.055 -130.633 L-274.055 -129.719 L-274.055 -128.806 L-274.055 -127.892 L-274.055 -126.979 L-274.055 -126.065 L-274.055 -125.152 L-274.055 -124.238 L-274.055 -123.325 L-274.055 -122.411 L-274.055 -121.498 L-274.055 -120.584 L-274.055 -119.671 L-274.055 -118.757 L-274.055 -117.844 L-274.055 -116.93 L-274.055 -116.017 L-274.055 -115.103 L-274.055 -114.19 L-274.055 -113.276 L-274.055 -112.363 L-274.055 -111.449 L-274.055 -110.536 L-274.055 -109.622 L-274.055 -108.709 L-274.055 -107.795 L-274.055 -106.882 L-274.055 -105.968 L-274.055 -105.054 L-274.055 -104.141 L-274.055 -103.227 L-274.055 -102.314 L-274.055 -101.4 L-274.055 -100.487 L-274.055 -99.5734 L-274.055 -98.6599 L-274.055 -97.7463 L-274.055 -96.8328 L-274.055 -95.9193 L-274.055 -95.0058 L-274.055 -94.0923 L-274.055 -93.1787 L-274.055 -92.2652 L-274.055 -91.3517 L-274.055 -90.4382 L-274.055 -89.5247 L-274.055 -88.6112 L-274.055 -87.6976 L-274.055 -86.7841 L-274.055 -85.8706 L-274.055 -84.9571 L-274.055 -84.0436 L-274.055 -83.1301 L-274.055 -82.2165 L-274.055 -81.303 L-274.055 -80.3895 L-274.055 -79.476 L-274.055 -78.5625 L-274.055 -77.649 L-274.055 -76.7354 L-274.055 -75.8219 L-274.055 -74.9084 L-274.055 -73.9949 L-274.055 -73.0814 L-274.055 -72.1679 L-274.055 -71.2543 L-274.055 -70.3408 L-274.055 -69.4273 L-274.055 -68.5138 L-274.055 -67.6003 L-274.055 -66.6868 L-274.055 -65.7732 L-274.055 -64.8597 L-274.055 -63.9462 L-274.055 -63.0327 L-274.055 -62.1192 L-274.055 -61.2056 L-274.055 -60.2921 L-274.055 -59.3786 L-274.055 -58.4651 L-274.055 -57.5516 L-274.055 -56.6381 L-274.055 -55.7246 L-274.055 -54.811 L-274.055 -53.8975 L-274.055 -52.984 L-274.055 -52.0705 L-274.055 -51.157 L-274.055 -50.2434 L-274.055 -49.3299 L-274.055 -48.4164 L-274.055 -47.5029 L-274.055 -46.5894 L-274.055 -45.6759 L-274.055 -44.7623 L-274.055 -43.8488 L-274.055 -42.9353 L-274.055 -42.0218 L-274.055 -41.1083 L-274.055 -40.1947 L-274.055 -39.2812 L-274.055 -38.3677 L-274.055 -37.4542 L-274.055 -36.5407 L-274.055 -35.6272 L-274.055 -34.7137 L-274.055 -33.8001 L-274.055 -32.8866 L-274.055 -31.9731 L-274.055 -31.0596 L-274.055 -30.1461 L-274.055 -29.2325 L-274.055 -28.319 L-274.055 -27.4055 L-274.055 -26.492 L-274.055 -25.5785 L-274.055 -24.665 L-274.055 -23.7514 L-274.055 -22.8379 L-274.055 -21.9244 L-274.055 -21.0109 L-274.055 -20.0974 L-274.055 -19.1839 L-274.055 -18.2703 L-274.055 -17.3568 L-274.055 -16.4433 L-274.055 -15.5298 L-274.055 -14.6163 L-274.055 -13.7027 L-274.055 -12.7892 L-274.055 -11.8757 L-274.055 -10.9622 L-274.055 -10.0487 L-274.055 -9.13517 L-274.055 -8.22165 L-274.055 -7.30813 L-274.055 -6.39462 L-274.055 -5.4811 L-274.055 -4.56758 L-274.055 -3.65406 L-274.055 -2.74055 L-274.055 -1.82703 L-274.055 -0.91351 L-274.055 0 L-274.055 0.91351 L-274.055 1.82703 L-274.055 2.74055 L-274.055 3.65406 L-274.055 4.56758 L-274.055 5.4811 L-274.055 6.39462 L-274.055 7.30813 L-274.055 8.22165 L-274.055 9.13517 L-274.055 10.0487 L-274.055 10.9622 L-274.055 11.8757 L-274.055 12.7892 L-274.055 13.7027 L-274.055 14.6163 L-274.055 15.5298 L-274.055 16.4433 L-274.055 17.3568 L-274.055 18.2703 L-274.055 19.1839 L-274.055 20.0974 L-274.055 21.0109 L-274.055 21.9244 L-274.055 22.8379 L-274.055 23.7514 L-274.055 24.665 L-274.055 25.5785 L-274.055 26.492 L-274.055 27.4055 L-274.055 28.319 L-274.055 29.2325 L-274.055 30.1461 L-274.055 31.0596 L-274.055 31.9731 L-274.055 32.8866 L-274.055 33.8001 L-274.055 34.7137 L-274.055 35.6272 L-274.055 36.5407 L-274.055 37.4542 L-274.055 38.3677 L-274.055 39.2812 L-274.055 40.1947 L-274.055 41.1083 L-274.055 42.0218 L-274.055 42.9353 L-274.055 43.8488 L-274.055 44.7623 L-274.055 45.6759 L-274.055 46.5894 L-274.055 47.5029 L-274.055 48.4164 L-274.055 49.3299 L-274.055 50.2434 L-274.055 51.157 L-274.055 52.0705 L-274.055 52.984 L-274.055 53.8975 L-274.055 54.811 L-274.055 55.7246 L-274.055 56.6381 L-274.055 57.5516 L-274.055 58.4651 L-274.055 59.3786 L-274.055 60.2921 L-274.055 61.2056 L-274.055 62.1192 L-274.055 63.0327 L-274.055 63.9462 L-274.055 64.8597 L-274.055 65.7732 L-274.055 66.6868 L-274.055 67.6003 L-274.055 68.5138 L-274.055 69.4273 L-274.055 70.3408 L-274.055 71.2543 L-274.055 72.1679 L-274.055 73.0814 L-274.055 73.9949 L-274.055 74.9084 L-274.055 75.8219 L-274.055 76.7354 L-274.055 77.649 L-274.055 78.5625 L-274.055 79.476 L-274.055 80.3895 L-274.055 81.303 L-274.055 82.2165 L-274.055 83.1301 L-274.055 84.0436 L-274.055 84.9571 L-274.055 85.8706 L-274.055 86.7841 L-274.055 87.6976 L-274.055 88.6112 L-274.055 89.5247 L-274.055 90.4382 L-274.055 91.3517 L-274.055 92.2652 L-274.055 93.1787 L-274.055 94.0923 L-274.055 95.0058 L-274.055 95.9193 L-274.055 96.8328 L-274.055 97.7463 L-274.055 98.6599 L-274.055 99.5734 L-274.055 100.487 L-274.055 101.4 L-274.055 102.314 L-274.055 103.227 L-274.055 104.141 L-274.055 105.054 L-274.055 105.968 L-274.055 106.882 L-274.055 107.795 L-274.055 108.709 L-274.055 109.622 L-274.055 110.536 L-274.055 111.449 L-274.055 112.363 L-274.055 113.276 L-274.055 114.19 L-274.055 115.103 L-274.055 116.017 L-274.055 116.93 L-274.055 117.844 L-274.055 118.757 L-274.055 119.671 L-274.055 120.584 L-274.055 121.498 L-274.055 122.411 L-274.055 123.325 L-274.055 124.238 L-274.055 125.152 L-274.055 126.065 L-274.055 126.979 L-274.055 127.892 L-274.055 128.806 L-274.055 129.719 L-274.055 130.633 L-274.055 131.546 L-274.055 132.46 L-274.055 133.374 L-274.055 134.287 L-274.055 135.201 L-274.055 136.114 L-274.055 137.028 L-274.055 137.941 L-274.055 138.855 L-274.055 139.768 L-274.055 140.682 L-274.055 141.595 L-274.055 142.509 L-274.055 143.422 L-274.055 144.336 L-274.055 145.249 L-274.055 146.163 L-274.055 147.076 L-274.055 147.99 L-274.055 148.903 L-274.055 149.817 L-274.055 150.73 L-274.055 151.644 L-274.055 152.557 L-274.055 153.471 L-274.055 154.384 L-274.055 155.298 L-274.055 156.211 L-274.055 157.125 L-274.055 158.038 L-274.055 158.952 L-274.055 159.866 L-274.055 160.779 L-274.055 161.693 L-274.055 162.606 L-274.055 163.52 L-274.055 164.433 L-274.055 165.347 L-274.055 166.26 L-274.055 167.174 L-274.055 168.087 L-274.055 169.001 L-274.055 169.914 L-274.055 170.828 L-274.055 171.741 L-274.055 172.655 L-274.055 173.568 L-274.055 174.482 L-274.055 175.395 L-274.055 176.309 L-274.055 177.222 L-274.055 178.136 L-274.055 179.049 L-274.055 179.963 L-274.055 180.876 L-274.055 181.79 L-274.055 182.703 L-274.055 183.617 L-274.055 184.53 L-274.055 185.444 L-274.055 186.358 L-274.055 187.271 L-274.055 188.185 L-274.055 189.098 L-274.055 190.012 L-274.055 190.925 L-274.055 191.839 L-274.055 192.752 L-274.055 193.666 L-274.055 194.579 L-274.055 195.493 L-274.055 196.406 L-274.055 197.32 L-274.055 198.233 L-274.055 199.147 L-274.055 200.06 L-274.055 200.974 L-274.055 201.887 L-274.055 202.801 L-274.055 203.714 L-274.055 204.628 L-274.055 205.541 L-274.055 206.455 L-274.055 207.368 L-274.055 208.282 L-274.055 209.195 L-274.055 210.109 L-274.055 211.022 L-274.055 211.936 L-274.055 212.85 L-274.055 213.763 L-274.055 214.677 L-274.055 215.59 L-274.055 216.504 L-274.055 217.417 L-274.055 218.331 L-274.055 219.244 L-274.055 220.158 L-274.055 221.071 L-274.055 221.985 L-274.055 222.898 L-274.055 223.812 L-274.055 224.725 L-274.055 225.639 L-274.055 226.552 L-274.055 227.466 L-274.055 228.379 L-274.055 229.293 L-274.055 230.206 L-274.055 231.12 L-274.055 232.033 L-274.055 232.947 L-274.055 233.86 L-274.055 234.774 L-274.055 235.687 L-274.055 236.601 L-274.055 237.514 L-274.055 238.428 L-274.055 239.342 L-274.055 240.255 L-274.055 241.169 L-274.055 242.082 L-274.055 242.996 L-274.055 243.909 L-274.055 244.823 L-274.055 245.736 L-274.055 246.65 L-274.055 247.563 L-274.055 248.477 L-274.055 249.39 L-274.055 250.304 L-274.055 251.217 L-274.055 252.131 L-274.055 253.044 L-274.055 253.958 L-274.055 254.871 L-274.055 255.785 L-274.055 256.698 L-274.055 257.612 L-274.055 258.525 L-274.055 259.439 L-274.055 260.352 L-274.055 261.266 L-274.055 262.179 L-274.055 263.093 L-274.055 264.006 L-274.055 264.92 L-274.055 265.834 L-274.055 266.747 L-274.055 267.661 L-274.055 268.574 L-274.055 269.488 L-274.055 270.401 L-274.055 271.315 L-274.055 272.228 L-274.055 273.142 L-274.055 274.055 L-273.142 274.055 L-272.228 274.055 L-271.315 274.055 L-270.401 274.055 L-269.488 274.055 L-268.574 274.055 L-267.661 274.055 L-266.747 274.055 L-265.834 274.055 L-264.92 274.055 L-264.006 274.055 L-263.093 274.055 L-262.179 274.055 L-261.266 274.055 L-260.352 274.055 L-259.439 274.055 L-258.525 274.055 L-257.612 274.055 L-256.698 274.055 L-255.785 274.055 L-254.871 274.055 L-253.958 274.055 L-253.044 274.055 L-252.131 274.055 L-251.217 274.055 L-250.304 274.055 L-249.39 274.055 L-248.477 274.055 L-247.563 274.055 L-246.65 274.055 L-245.736 274.055 L-244.823 274.055 L-243.909 274.055 L-242.996 274.055 L-242.082 274.055 L-241.169 274.055 L-240.255 274.055 L-239.342 274.055 L-238.428 274.055 L-237.514 274.055 L-236.601 274.055 L-235.687 274.055 L-234.774 274.055 L-233.86 274.055 L-232.947 274.055 L-232.033 274.055 L-231.12 274.055 L-230.206 274.055 L-229.293 274.055 L-228.379 274.055 L-227.466 274.055 L-226.552 274.055 L-225.639 274.055 L-224.725 274.055 L-223.812 274.055 L-222.898 274.055 L-221.985 274.055 L-221.071 274.055 L-220.158 274.055 L-219.244 274.055 L-218.331 274.055 L-217.417 274.055 L-216.504 274.055 L-215.59 274.055 L-214.677 274.055 L-213.763 274.055 L-212.85 274.055 L-211.936 274.055 L-211.022 274.055 L-210.109 274.055 L-209.195 274.055 L-208.282 274.055 L-207.368 274.055 L-206.455 274.055 L-205.541 274.055 L-204.628 274.055 L-203.714 274.055 L-202.801 274.055 L-201.887 274.055 L-200.974 274.055 L-200.06 274.055 L-199.147 274.055 L-198.233 274.055 L-197.32 274.055 L-196.406 274.055 L-195.493 274.055 L-194.579 274.055 L-193.666 274.055 L-192.752 274.055 L-191.839 274.055 L-190.925 274.055 L-190.012 274.055 L-189.098 274.055 L-188.185 274.055 L-187.271 274.055 L-186.358 274.055 L-185.444 274.055 L-184.53 274.055 L-183.617 274.055 L-182.703 274.055 L-181.79 274.055 L-180.876 274.055 L-179.963 274.055 L-179.049 274.055 L-178.136 274.055 L-177.222 274.055 L-176.309 274.055 L-175.395 274.055 L-174.482 274.055 L-173.568 274.055 L-172.655 274.055 L-171.741 274.055 L-170.828 274.055 L-169.914 274.055 L-169.001 274.055 L-168.087 274.055 L-167.174 274.055 L-166.26 274.055 L-165.347 274.055 L-164.433 274.055 L-163.52 274.055 L-162.606 274.055 L-161.693 274.055 L-160.779 274.055 L-159.866 274.055 L-158.952 274.055 L-158.038 274.055 L-157.125 274.055 L-156.211 274.055 L-155.298 274.055 L-154.384 274.055 L-153.471 274.055 L-152.557 274.055 L-151.644 274.055 L-150.73 274.055 L-149.817 274.055 L-148.903 274.055 L-147.99 274.055 L-147.076 274.055 L-146.163 274.055 L-145.249 274.055 L-144.336 274.055 L-143.422 274.055 L-142.509 274.055 L-141.595 274.055 L-140.682 274.055 L-139.768 274.055 L-138.855 274.055 L-137.941 274.055 L-137.028 274.055 L-136.114 274.055 L-135.201 274.055 L-134.287 274.055 L-133.374 274.055 L-132.46 274.055 L-131.546 274.055 L-130.633 274.055 L-129.719 274.055 L-128.806 274.055 L-127.892 274.055 L-126.979 274.055 L-126.065 274.055 L-125.152 274.055 L-124.238 274.055 L-123.325 274.055 L-122.411 274.055 L-121.498 274.055 L-120.584 274.055 L-119.671 274.055 L-118.757 274.055 L-117.844 274.055 L-116.93 274.055 L-116.017 274.055 L-115.103 274.055 L-114.19 274.055 L-113.276 274.055 L-112.363 274.055 L-111.449 274.055 L-110.536 274.055 L-109.622 274.055 L-108.709 274.055 L-107.795 274.055 L-106.882 274.055 L-105.968 274.055 L-105.054 274.055 L-104.141 274.055 L-103.227 274.055 L-102.314 274.055 L-101.4 274.055 L-100.487 274.055 L-99.5734 274.055 L-98.6599 274.055 L-97.7463 274.055 L-96.8328 274.055 L-95.9193 274.055 L-95.0058 274.055 L-94.0923 274.055 L-93.1787 274.055 L-92.2652 274.055 L-91.3517 274.055 L-90.4382 274.055 L-89.5247 274.055 L-88.6112 274.055 L-87.6976 274.055 L-86.7841 274.055 L-85.8706 274.055 L-84.9571 274.055 L-84.0436 274.055 L-83.1301 274.055 L-82.2165 274.055 L-81.303 274.055 L-80.3895 274.055 L-79.476 274.055 L-78.5625 274.055 L-77.649 274.055 L-76.7354 274.055 L-75.8219 274.055 L-74.9084 274.055 L-73.9949 274.055 L-73.0814 274.055 L-72.1679 274.055 L-71.2543 274.055 L-70.3408 274.055 L-69.4273 274.055 L-68.5138 274.055 L-67.6003 274.055 L-66.6868 274.055 L-65.7732 274.055 L-64.8597 274.055 L-63.9462 274.055 L-63.0327 274.055 L-62.1192 274.055 L-61.2056 274.055 L-60.2921 274.055 L-59.3786 274.055 L-58.4651 274.055 L-57.5516 274.055 L-56.6381 274.055 L-55.7246 274.055 L-54.811 274.055 L-53.8975 274.055 L-52.984 274.055 L-52.0705 274.055 L-51.157 274.055 L-50.2434 274.055 L-49.3299 274.055 L-48.4164 274.055 L-47.5029 274.055 L-46.5894 274.055 L-45.6759 274.055 L-44.7623 274.055 L-43.8488 274.055 L-42.9353 274.055 L-42.0218 274.055 L-41.1083 274.055 L-40.1947 274.055 L-39.2812 274.055 L-38.3677 274.055 L-37.4542 274.055 L-36.5407 274.055 L-35.6272 274.055 L-34.7137 274.055 L-33.8001 274.055 L-32.8866 274.055 L-31.9731 274.055 L-31.0596 274.055 L-30.1461 274.055 L-29.2325 274.055 L-28.319 274.055 L-27.4055 274.055 L-26.492 274.055 L-25.5785 274.055 L-24.665 274.055 L-23.7514 274.055 L-22.8379 274.055 L-21.9244 274.055 L-21.0109 274.055 L-20.0974 274.055 L-19.1839 274.055 L-18.2703 274.055 L-17.3568 274.055 L-16.4433 274.055 L-15.5298 274.055 L-14.6163 274.055 L-13.7027 274.055 L-12.7892 274.055 L-11.8757 274.055 L-10.9622 274.055 L-10.0487 274.055 L-9.13517 274.055 L-8.22165 274.055 L-7.30813 274.055 L-6.39462 274.055 L-5.4811 274.055 L-4.56758 274.055 L-3.65406 274.055 L-2.74055 274.055 L-1.82703 274.055 L-0.91351 274.055 L0 274.055 L0.91351 274.055 L1.82703 274.055 L2.74055 274.055 L3.65406 274.055 L4.56758 274.055 L5.4811 274.055 L6.39462 274.055 L7.30813 274.055 L8.22165 274.055 L9.13517 274.055 L10.0487 274.055 L10.9622 274.055 L11.8757 274.055 L12.7892 274.055 L13.7027 274.055 L14.6163 274.055 L15.5298 274.055 L16.4433 274.055 L17.3568 274.055 L18.2703 274.055 L19.1839 274.055 L20.0974 274.055 L21.0109 274.055 L21.9244 274.055 L22.8379 274.055 L23.7514 274.055 L24.665 274.055 L25.5785 274.055 L26.492 274.055 L27.4055 274.055 L28.319 274.055 L29.2325 274.055 L30.1461 274.055 L31.0596 274.055 L31.9731 274.055 L32.8866 274.055 L33.8001 274.055 L34.7137 274.055 L35.6272 274.055 L36.5407 274.055 L37.4542 274.055 L38.3677 274.055 L39.2812 274.055 L40.1947 274.055 L41.1083 274.055 L42.0218 274.055 L42.9353 274.055 L43.8488 274.055 L44.7623 274.055 L45.6759 274.055 L46.5894 274.055 L47.5029 274.055 L48.4164 274.055 L49.3299 274.055 L50.2434 274.055 L51.157 274.055 L52.0705 274.055 L52.984 274.055 L53.8975 274.055 L54.811 274.055 L55.7246 274.055 L56.6381 274.055 L57.5516 274.055 L58.4651 274.055 L59.3786 274.055 L60.2921 274.055 L61.2056 274.055 L62.1192 274.055 L63.0327 274.055 L63.9462 274.055 L64.8597 274.055 L65.7732 274.055 L66.6868 274.055 L67.6003 274.055 L68.5138 274.055 L69.4273 274.055 L70.3408 274.055 L71.2543 274.055 L72.1679 274.055 L73.0814 274.055 L73.9949 274.055 L74.9084 274.055 L75.8219 274.055 L76.7354 274.055 L77.649 274.055 L78.5625 274.055 L79.476 274.055 L80.3895 274.055 L81.303 274.055 L82.2165 274.055 L83.1301 274.055 L84.0436 274.055 L84.9571 274.055 L85.8706 274.055 L86.7841 274.055 L87.6976 274.055 L88.6112 274.055 L89.5247 274.055 L90.4382 274.055 L91.3517 274.055 L92.2652 274.055 L93.1787 274.055 L94.0923 274.055 L95.0058 274.055 L95.9193 274.055 L96.8328 274.055 L97.7463 274.055 L98.6599 274.055 L99.5734 274.055 L100.487 274.055 L101.4 274.055 L102.314 274.055 L103.227 274.055 L104.141 274.055 L105.054 274.055 L105.968 274.055 L106.882 274.055 L107.795 274.055 L108.709 274.055 L109.622 274.055 L110.536 274.055 L111.449 274.055 L112.363 274.055 L113.276 274.055 L114.19 274.055 L115.103 274.055 L116.017 274.055 L116.93 274.055 L117.844 274.055 L118.757 274.055 L119.671 274.055 L120.584 274.055 L121.498 274.055 L122.411 274.055 L123.325 274.055 L124.238 274.055 L125.152 274.055 L126.065 274.055 L126.979 274.055 L127.892 274.055 L128.806 274.055 L129.719 274.055 L130.633 274.055 L131.546 274.055 L132.46 274.055 L133.374 274.055 L134.287 274.055 L135.201 274.055 L136.114 274.055 L137.028 274.055 L137.941 274.055 L138.855 274.055 L139.768 274.055 L140.682 274.055 L141.595 274.055 L142.509 274.055 L143.422 274.055 L144.336 274.055 L145.249 274.055 L146.163 274.055 L147.076 274.055 L147.99 274.055 L148.903 274.055 L149.817 274.055 L150.73 274.055 L151.644 274.055 L152.557 274.055 L153.471 274.055 L154.384 274.055 L155.298 274.055 L156.211 274.055 L157.125 274.055 L158.038 274.055 L158.952 274.055 L159.866 274.055 L160.779 274.055 L161.693 274.055 L162.606 274.055 L163.52 274.055 L164.433 274.055 L165.347 274.055 L166.26 274.055 L167.174 274.055 L168.087 274.055 L169.001 274.055 L169.914 274.055 L170.828 274.055 L171.741 274.055 L172.655 274.055 L173.568 274.055 L174.482 274.055 L175.395 274.055 L176.309 274.055 L177.222 274.055 L178.136 274.055 L179.049 274.055 L179.963 274.055 L180.876 274.055 L181.79 274.055 L182.703 274.055 L183.617 274.055 L184.53 274.055 L185.444 274.055 L186.358 274.055 L187.271 274.055 L188.185 274.055 L189.098 274.055 L190.012 274.055 L190.925 274.055 L191.839 274.055 L192.752 274.055 L193.666 274.055 L194.579 274.055 L195.493 274.055 L196.406 274.055 L197.32 274.055 L198.233 274.055 L199.147 274.055 L200.06 274.055 L200.974 274.055 L201.887 274.055 L202.801 274.055 L203.714 274.055 L204.628 274.055 L205.541 274.055 L206.455 274.055 L207.368 274.055 L208.282 274.055 L209.195 274.055 L210.109 274.055 L211.022 274.055 L211.936 274.055 L212.85 274.055 L213.763 274.055 L214.677 274.055 L215.59 274.055 L216.504 274.055 L217.417 274.055 L218.331 274.055 L219.244 274.055 L220.158 274.055 L221.071 274.055 L221.985 274.055 L222.898 274.055 L223.812 274.055 L224.725 274.055 L225.639 274.055 L226.552 274.055 L227.466 274.055 L228.379 274.055 L229.293 274.055 L230.206 274.055 L231.12 274.055 L232.033 274.055 L232.947 274.055 L233.86 274.055 L234.774 274.055 L235.687 274.055 L236.601 274.055 L237.514 274.055 L238.428 274.055 L239.342 274.055 L240.255 274.055 L241.169 274.055 L242.082 274.055 L242.996 274.055 L243.909 274.055 L244.823 274.055 L245.736 274.055 L246.65 274.055 L247.563 274.055 L248.477 274.055 L249.39 274.055 L250.304 274.055 L251.217 274.055 L252.131 274.055 L253.044 274.055 L253.958 274.055 L254.871 274.055 L255.785 274.055 L256.698 274.055 L257.612 274.055 L258.525 274.055 L259.439 274.055 L260.352 274.055 L261.266 274.055 L262.179 274.055 L263.093 274.055 L264.006 274.055 L264.92 274.055 L265.834 274.055 L266.747 274.055 L267.661 274.055 L268.574 274.055 L269.488 274.055 L270.401 274.055 L271.315 274.055 L272.228 274.055 L273.142 274.055 L274.055 274.055 L274.055 273.142 Z M181.79 182.703 L180.876 182.703 L179.963 182.703 L179.049 182.703 L178.136 182.703 L177.222 182.703 L176.309 182.703 L175.395 182.703 L174.482 182.703 L173.568 182.703 L172.655 182.703 L171.741 182.703 L170.828 182.703 L169.914 182.703 L169.001 182.703 L168.087 182.703 L167.174 182.703 L166.26 182.703 L165.347 182.703 L164.433 182.703 L163.52 182.703 L162.606 182.703 L161.693 182.703 L160.779 182.703 L159.866 182.703 L158.952 182.703 L158.038 182.703 L157.125 182.703 L156.211 182.703 L155.298 182.703 L154.384 182.703 L153.471 182.703 L152.557 182.703 L151.644 182.703 L150.73 182.703 L149.817 182.703 L148.903 182.703 L147.99 182.703 L147.076 182.703 L146.163 182.703 L145.249 182.703 L144.336 182.703 L143.422 182.703 L142.509 182.703 L141.595 182.703 L140.682 182.703 L139.768 182.703 L138.855 182.703 L137.941 182.703 L137.028 182.703 L136.114 182.703 L135.201 182.703 L134.287 182.703 L133.374 182.703 L132.46 182.703 L131.546 182.703 L130.633 182.703 L129.719 182.703 L128.806 182.703 L127.892 182.703 L126.979 182.703 L126.065 182.703 L125.152 182.703 L124.238 182.703 L123.325 182.703 L122.411 182.703 L121.498 182.703 L120.584 182.703 L119.671 182.703 L118.757 182.703 L117.844 182.703 L116.93 182.703 L116.017 182.703 L115.103 182.703 L114.19 182.703 L113.276 182.703 L112.363 182.703 L111.449 182.703 L110.536 182.703 L109.622 182.703 L108.709 182.703 L107.795 182.703 L106.882 182.703 L105.968 182.703 L105.054 182.703 L104.141 182.703 L103.227 182.703 L102.314 182.703 L101.4 182.703 L100.487 182.703 L99.5734 182.703 L98.6599 182.703 L97.7463 182.703 L96.8328 182.703 L95.9193 182.703 L95.0058 182.703 L94.0923 182.703 L93.1787 182.703 L92.2652 182.703 L91.3517 182.703 L90.4382 182.703 L89.5247 182.703 L88.6112 182.703 L87.6976 182.703 L86.7841 182.703 L85.8706 182.703 L84.9571 182.703 L84.0436 182.703 L83.1301 182.703 L82.2165 182.703 L81.303 182.703 L80.3895 182.703 L79.476 182.703 L78.5625 182.703 L77.649 182.703 L76.7354 182.703 L75.8219 182.703 L74.9084 182.703 L73.9949 182.703 L73.0814 182.703 L72.1679 182.703 L71.2543 182.703 L70.3408 182.703 L69.4273 182.703 L68.5138 182.703 L67.6003 182.703 L66.6868 182.703 L65.7732 182.703 L64.8597 182.703 L63.9462 182.703 L63.0327 182.703 L62.1192 182.703 L61.2056 182.703 L60.2921 182.703 L59.3786 182.703 L58.4651 182.703 L57.5516 182.703 L56.6381 182.703 L55.7246 182.703 L54.811 182.703 L53.8975 182.703 L52.984 182.703 L52.0705 182.703 L51.157 182.703 L50.2434 182.703 L49.3299 182.703 L48.4164 182.703 L47.5029 182.703 L46.5894 182.703 L45.6759 182.703 L44.7623 182.703 L43.8488 182.703 L42.9353 182.703 L42.0218 182.703 L41.1083 182.703 L40.1947 182.703 L39.2812 182.703 L38.3677 182.703 L37.4542 182.703 L36.5407 182.703 L35.6272 182.703 L34.7137 182.703 L33.8001 182.703 L32.8866 182.703 L31.9731 182.703 L31.0596 182.703 L30.1461 182.703 L29.2325 182.703 L28.319 182.703 L27.4055 182.703 L26.492 182.703 L25.5785 182.703 L24.665 182.703 L23.7514 182.703 L22.8379 182.703 L21.9244 182.703 L21.0109 182.703 L20.0974 182.703 L19.1839 182.703 L18.2703 182.703 L17.3568 182.703 L16.4433 182.703 L15.5298 182.703 L14.6163 182.703 L13.7027 182.703 L12.7892 182.703 L11.8757 182.703 L10.9622 182.703 L10.0487 182.703 L9.13517 182.703 L8.22165 182.703 L7.30813 182.703 L6.39462 182.703 L5.4811 182.703 L4.56758 182.703 L3.65406 182.703 L2.74055 182.703 L1.82703 182.703 L0.91351 182.703 L0 182.703 L0 181.79 L0 180.876 L0 179.963 L0 179.049 L0 178.136 L0 177.222 L0 176.309 L0 175.395 L0 174.482 L0 173.568 L0 172.655 L0 171.741 L0 170.828 L0 169.914 L0 169.001 L0 168.087 L0 167.174 L0 166.26 L0 165.347 L0 164.433 L0 163.52 L0 162.606 L0 161.693 L0 160.779 L0 159.866 L0 158.952 L0 158.038 L0 157.125 L0 156.211 L0 155.298 L0 154.384 L0 153.471 L0 152.557 L0 151.644 L0 150.73 L0 149.817 L0 148.903 L0 147.99 L0 147.076 L0 146.163 L0 145.249 L0 144.336 L0 143.422 L0 142.509 L0 141.595 L0 140.682 L0 139.768 L0 138.855 L0 137.941 L0 137.028 L0 136.114 L0 135.201 L0 134.287 L0 133.374 L0 132.46 L0 131.546 L0 130.633 L0 129.719 L0 128.806 L0 127.892 L0 126.979 L0 126.065 L0 125.152 L0 124.238 L0 123.325 L0 122.411 L0 121.498 L0 120.584 L0 119.671 L0 118.757 L0 117.844 L0 116.93 L0 116.017 L0 115.103 L0 114.19 L0 113.276 L0 112.363 L0 111.449 L0 110.536 L0 109.622 L0 108.709 L0 107.795 L0 106.882 L0 105.968 L0 105.054 L0 104.141 L0 103.227 L0 102.314 L0 101.4 L0 100.487 L0 100 L-1 100 L-2 100 L-3 100 L-4 100 L-5 100 L-6 100 L-7 100 L-8 100 L-9 100 L-10 100 L-11 100 L-12 100 L-13 100 L-14 100 L-15 100 L-16 100 L-17 100 L-18 100 L-19 100 L-20 100 L-21 100 L-22 100 L-23 100 L-24 100 L-25 100 L-26 100 L-27 100 L-28 100 L-29 100 L-30 100 L-31 100 L-32 100 L-33 100 L-34 100 L-35 100 L-36 100 L-37 100 L-38 100 L-39 100 L-40 100 L-41 100 L-42 100 L-43 100 L-44 100 L-45 100 L-46 100 L-47 100 L-48 100 L-49 100 L-50 100 L-51 100 L-52 100 L-53 100 L-54 100 L-55 100 L-56 100 L-57 100 L-58 100 L-59 100 L-60 100 L-61 100 L-62 100 L-63 100 L-64 100 L-65 100 L-66 100 L-67 100 L-68 100 L-69 100 L-70 100 L-71 100 L-72 100 L-73 100 L-74 100 L-75 100 L-76 100 L-77 100 L-78 100 L-79 100 L-80 100 L-81 100 L-82 100 L-83 100 L-84 100 L-85 100 L-86 100 L-87 100 L-88 100 L-89 100 L-90 100 L-91 100 L-92 100 L-93 100 L-94 100 L-95 100 L-96 100 L-97 100 L-98 100 L-99 100 L-100 100 L-100 99 L-100 98 L-100 97 L-100 96 L-100 95 L-100 94 L-100 93 L-100 92 L-100 91 L-100 90 L-100 89 L-100 88 L-100 87 L-100 86 L-100 85 L-100 84 L-100 83 L-100 82 L-100 81 L-100 80 L-100 79 L-100 78 L-100 77 L-100 76 L-100 75 L-100 74 L-100 73 L-100 72 L-100 71 L-100 70 L-100 69 L-100 68 L-100 67 L-100 66 L-100 65 L-100 64 L-100 63 L-100 62 L-100 61 L-100 60 L-100 59 L-100 58 L-100 57 L-100 56 L-100 55 L-100 54 L-100 53 L-100 52 L-100 51 L-100 50 L-100 49 L-100 48 L-100 47 L-100 46 L-100 45 L-100 44 L-100 43 L-100 42 L-100 41 L-100 40 L-100 39 L-100 38 L-100 37 L-100 36 L-100 35 L-100 34 L-100 33 L-100 32 L-100 31 L-100 30 L-100 29 L-100 28 L-100 27 L-100 26 L-100 25 L-100 24 L-100 23 L-100 22 L-100 21 L-100 20 L-100 19 L-100 18 L-100 17 L-100 16 L-100 15 L-100 14 L-100 13 L-100 12 L-100 11 L-100 10 L-100 8.99999 L-100 8 L-100 6.99999 L-100 6 L-100 5 L-100 4 L-100 3 L-100 2 L-100 1 L-100 0 L-100 -1 L-100 -2 L-100 -3 L-100 -4 L-100 -5 L-100 -6 L-100 -7 L-100 -8 L-100 -9 L-100 -10 L-100 -11 L-100 -12 L-100 -13 L-100 -14 L-100 -15 L-100 -16 L-100 -17 L-100 -18 L-100 -19 L-100 -20 L-100 -21 L-100 -22 L-100 -23 L-100 -24 L-100 -25 L-100 -26 L-100 -27 L-100 -28 L-100 -29 L-100 -30 L-100 -31 L-100 -32 L-100 -33 L-100 -34 L-100 -35 L-100 -36 L-100 -37 L-100 -38 L-100 -39 L-100 -40 L-100 -41 L-100 -42 L-100 -43 L-100 -44 L-100 -45 L-100 -46 L-100 -47 L-100 -48 L-100 -49 L-100 -50 L-100 -51 L-100 -52 L-100 -53 L-100 -54 L-100 -55 L-100 -56 L-100 -57 L-100 -58 L-100 -59 L-100 -60 L-100 -61 L-100 -62 L-100 -63 L-100 -64 L-100 -65 L-100 -66 L-100 -67 L-100 -68 L-100 -69 L-100 -70 L-100 -71 L-100 -72 L-100 -73 L-100 -74 L-100 -75 L-100 -76 L-100 -77 L-100 -78 L-100 -79 L-100 -80 L-100 -81 L-100 -82 L-100 -83 L-100 -84 L-100 -85 L-100 -86 L-100 -87 L-100 -88 L-100 -89 L-100 -90 L-100 -91 L-100 -92 L-100 -93 L-100 -94 L-100 -95 L-100 -96 L-100 -97 L-100 -98 L-100 -99 L-100 -100 L-99 -100 L-98 -100 L-97 -100 L-96 -100 L-95 -100 L-94 -100 L-93 -100 L-92 -100 L-91 -100 L-90 -100 L-89 -100 L-88 -100 L-87 -100 L-86 -100 L-85 -100 L-84 -100 L-83 -100 L-82 -100 L-81 -100 L-80 -100 L-79 -100 L-78 -100 L-77 -100 L-76 -100 L-75 -100 L-74 -100 L-73 -100 L-72 -100 L-71 -100 L-70 -100 L-69 -100 L-68 -100 L-67 -100 L-66 -100 L-65 -100 L-64 -100 L-63 -100 L-62 -100 L-61 -100 L-60 -100 L-59 -100 L-58 -100 L-57 -100 L-56 -100 L-55 -100 L-54 -100 L-53 -100 L-52 -100 L-51 -100 L-50 -100 L-49 -100 L-48 -100 L-47 -100 L-46 -100 L-45 -100 L-44 -100 L-43 -100 L-42 -100 L-41 -100 L-40 -100 L-39 -100 L-38 -100 L-37 -100 L-36 -100 L-35 -100 L-34 -100 L-33 -100 L-32 -100 L-31 -100 L-30 -100 L-29 -100 L-28 -100 L-27 -100 L-26 -100 L-25 -100 L-24 -100 L-23 -100 L-22 -100 L-21 -100 L-20 -100 L-19 -100 L-18 -100 L-17 -100 L-16 -100 L-15 -100 L-14 -100 L-13 -100 L-12 -100 L-11 -100 L-10 -100 L-8.99999 -100 L-8 -100 L-6.99999 -100 L-6 -100 L-5 -100 L-4 -100 L-3 -100 L-2 -100 L-1 -100 L0 -100 L1 -100 L2 -100 L3 -100 L4 -100 L5 -100 L6 -100 L7 -100 L8 -100 L9 -100 L10 -100 L11 -100 L12 -100 L13 -100 L14 -100 L15 -100 L16 -100 L17 -100 L18 -100 L19 -100 L20 -100 L21 -100 L22 -100 L23 -100 L24 -100 L25 -100 L26 -100 L27 -100 L28 -100 L29 -100 L30 -100 L31 -100 L32 -100 L33 -100 L34 -100 L35 -100 L36 -100 L37 -100 L38 -100 L39 -100 L40 -100 L41 -100 L42 -100 L43 -100 L44 -100 L45 -100 L46 -100 L47 -100 L48 -100 L49 -100 L50 -100 L51 -100 L52 -100 L53 -100 L54 -100 L55 -100 L56 -100 L57 -100 L58 -100 L59 -100 L60 -100 L61 -100 L62 -100 L63 -100 L64 -100 L65 -100 L66 -100 L67 -100 L68 -100 L69 -100 L70 -100 L71 -100 L72 -100 L73 -100 L74 -100 L75 -100 L76 -100 L77 -100 L78 -100 L79 -100 L80 -100 L81 -100 L82 -100 L83 -100 L84 -100 L85 -100 L86 -100 L87 -100 L88 -100 L89 -100 L90 -100 L91 -100 L92 -100 L93 -100 L94 -100 L95 -100 L96 -100 L97 -100 L98 -100 L99 -100 L100 -100 L100 -99 L100 -98 L100 -97 L100 -96 L100 -95 L100 -94 L100 -93 L100 -92 L100 -91 L100 -90 L100 -89 L100 -88 L100 -87 L100 -86 L100 -85 L100 -84 L100 -83 L100 -82 L100 -81 L100 -80 L100 -79 L100 -78 L100 -77 L100 -76 L100 -75 L100 -74 L100 -73 L100 -72 L100 -71 L100 -70 L100 -69 L100 -68 L100 -67 L100 -66 L100 -65 L100 -64 L100 -63 L100 -62 L100 -61 L100 -60 L100 -59 L100 -58 L100 -57 L100 -56 L100 -55 L100 -54 L100 -53 L100 -52 L100 -51 L100 -50 L100 -49 L100 -48 L100 -47 L100 -46 L100 -45 L100 -44 L100 -43 L100 -42 L100 -41 L100 -40 L100 -39 L100 -38 L100 -37 L100 -36 L100 -35 L100 -34 L100 -33 L100 -32 L100 -31 L100 -30 L100 -29 L100 -28 L100 -27 L100 -26 L100 -25 L100 -24 L100 -23 L100 -22 L100 -21 L100 -20 L100 -19 L100 -18 L100 -17 L100 -16 L100 -15 L100 -14 L100 -13 L100 -12 L100 -11 L100 -10 L100 -8.99999 L100 -8 L100 -6.99999 L100 -6 L100 -5 L100 -4 L100 -3 L100 -2 L100 -1 L100 0 L100.487 0 L101.4 0 L102.314 0 L103.227 0 L104.141 0 L105.054 0 L105.968 0 L106.882 0 L107.795 0 L108.709 0 L109.622 0 L110.536 0 L111.449 0 L112.363 0 L113.276 0 L114.19 0 L115.103 0 L116.017 0 L116.93 0 L117.844 0 L118.757 0 L119.671 0 L120.584 0 L121.498 0 L122.411 0 L123.325 0 L124.238 0 L125.152 0 L126.065 0 L126.979 0 L127.892 0 L128.806 0 L129.719 0 L130.633 0 L131.546 0 L132.46 0 L133.374 0 L134.287 0 L135.201 0 L136.114 0 L137.028 0 L137.941 0 L138.855 0 L139.768 0 L140.682 0 L141.595 0 L142.509 0 L143.422 0 L144.336 0 L145.249 0 L146.163 0 L147.076 0 L147.99 0 L148.903 0 L149.817 0 L150.73 0 L151.644 0 L152.557 0 L153.471 0 L154.384 0 L155.298 0 L156.211 0 L157.125 0 L158.038 0 L158.952 0 L159.866 0 L160.779 0 L161.693 0 L162.606 0 L163.52 0 L164.433 0 L165.347 0 L166.26 0 L167.174 0 L168.087 0 L169.001 0 L169.914 0 L170.828 0 L171.741 0 L172.655 0 L173.568 0 L174.482 0 L175.395 0 L176.309 0 L177.222 0 L178.136 0 L179.049 0 L179.963 0 L180.876 0 L181.79 0 L182.703 0 L182.703 0.91351 L182.703 1.82703 L182.703 2.74055 L182.703 3.65406 L182.703 4.56758 L182.703 5.4811 L182.703 6.39462 L182.703 7.30813 L182.703 8.22165 L182.703 9.13517 L182.703 10.0487 L182.703 10.9622 L182.703 11.8757 L182.703 12.7892 L182.703 13.7027 L182.703 14.6163 L182.703 15.5298 L182.703 16.4433 L182.703 17.3568 L182.703 18.2703 L182.703 19.1839 L182.703 20.0974 L182.703 21.0109 L182.703 21.9244 L182.703 22.8379 L182.703 23.7514 L182.703 24.665 L182.703 25.5785 L182.703 26.492 L182.703 27.4055 L182.703 28.319 L182.703 29.2325 L182.703 30.1461 L182.703 31.0596 L182.703 31.9731 L182.703 32.8866 L182.703 33.8001 L182.703 34.7137 L182.703 35.6272 L182.703 36.5407 L182.703 37.4542 L182.703 38.3677 L182.703 39.2812 L182.703 40.1947 L182.703 41.1083 L182.703 42.0218 L182.703 42.9353 L182.703 43.8488 L182.703 44.7623 L182.703 45.6759 L182.703 46.5894 L182.703 47.5029 L182.703 48.4164 L182.703 49.3299 L182.703 50.2434 L182.703 51.157 L182.703 52.0705 L182.703 52.984 L182.703 53.8975 L182.703 54.811 L182.703 55.7246 L182.703 56.6381 L182.703 57.5516 L182.703 58.4651 L182.703 59.3786 L182.703 60.2921 L182.703 61.2056 L182.703 62.1192 L182.703 63.0327 L182.703 63.9462 L182.703 64.8597 L182.703 65.7732 L182.703 66.6868 L182.703 67.6003 L182.703 68.5138 L182.703 69.4273 L182.703 70.3408 L182.703 71.2543 L182.703 72.1679 L182.703 73.0814 L182.703 73.9949 L182.703 74.9084 L182.703 75.8219 L182.703 76.7354 L182.703 77.649 L182.703 78.5625 L182.703 79.476 L182.703 80.3895 L182.703 81.303 L182.703 82.2165 L182.703 83.1301 L182.703 84.0436 L182.703 84.9571 L182.703 85.8706 L182.703 86.7841 L182.703 87.6976 L182.703 88.6112 L182.703 89.5247 L182.703 90.4382 L182.703 91.3517 L182.703 92.2652 L182.703 93.1787 L182.703 94.0923 L182.703 95.0058 L182.703 95.9193 L182.703 96.8328 L182.703 97.7463 L182.703 98.6599 L182.703 99.5734 L182.703 100.487 L182.703 101.4 L182.703 102.314 L182.703 103.227 L182.703 104.141 L182.703 105.054 L182.703 105.968 L182.703 106.882 L182.703 107.795 L182.703 108.709 L182.703 109.622 L182.703 110.536 L182.703 111.449 L182.703 112.363 L182.703 113.276 L182.703 114.19 L182.703 115.103 L182.703 116.017 L182.703 116.93 L182.703 117.844 L182.703 118.757 L182.703 119.671 L182.703 120.584 L182.703 121.498 L182.703 122.411 L182.703 123.325 L182.703 124.238 L182.703 125.152 L182.703 126.065 L182.703 126.979 L182.703 127.892 L182.703 128.806 L182.703 129.719 L182.703 130.633 L182.703 131.546 L182.703 132.46 L182.703 133.374 L182.703 134.287 L182.703 135.201 L182.703 136.114 L182.703 137.028 L182.703 137.941 L182.703 138.855 L182.703 139.768 L182.703 140.682 L182.703 141.595 L182.703 142.509 L182.703 143.422 L182.703 144.336 L182.703 145.249 L182.703 146.163 L182.703 147.076 L182.703 147.99 L182.703 148.903 L182.703 149.817 L182.703 150.73 L182.703 151.644 L182.703 152.557 L182.703 153.471 L182.703 154.384 L182.703 155.298 L182.703 156.211 L182.703 157.125 L182.703 158.038 L182.703 158.952 L182.703 159.866 L182.703 160.779 L182.703 161.693 L182.703 162.606 L182.703 163.52 L182.703 164.433 L182.703 165.347 L182.703 166.26 L182.703 167.174 L182.703 168.087 L182.703 169.001 L182.703 169.914 L182.703 170.828 L182.703 171.741 L182.703 172.655 L182.703 173.568 L182.703 174.482 L182.703 175.395 L182.703 176.309 L182.703 177.222 L182.703 178.136 L182.703 179.049 L182.703 179.963 L182.703 180.876 L182.703 181.79 L182.703 182.703 L181.79 182.703 Z M-6.49445 274.055 L-165.54 116.073 L-237.042 45.0496 L-237.258 44.8347 L-237.871 44.2259 L-244.996 37.1481 L-245.06 37.0848 L-245.769 36.3802 L-246.479 35.6757 L-246.843 35.3138 L-247.188 34.9711 L-247.897 34.2666 L-248.606 33.562 L-249.316 32.8575 L-250.025 32.153 L-250.734 31.4484 L-251.444 30.7439 L-252.153 30.0393 L-252.862 29.3348 L-253.571 28.6303 L-254.281 27.9257 L-254.99 27.2212 L-255.213 27 L-259.72 22.5226 L-259.955 22.2894 L-260.664 21.5849 L-261.374 20.8803 L-261.746 20.5102 L-262.162 20.0974 L-262.792 19.4712 L-263.501 18.7667 L-263.957 18.3144 L-267.293 15 L-267.757 14.5395 L-268.466 13.8349 L-269.176 13.1304 L-269.488 12.8204 L-270.594 11.7213 L-271.304 11.0168 L-271.455 10.8661 L-274.055 8.28351 L-273.431 8.90312 L-272.722 9.60765 L-272.013 10.3122 L-271.455 10.8661 L-270.594 11.7213 L-269.885 12.4258 L-269.488 12.8204 L-267.293 15 L-267.048 15.244 L-266.339 15.9485 L-265.629 16.6531 L-264.92 17.3576 L-264.211 18.0621 L-263.957 18.3144 L-262.162 20.0974 L-262.083 20.1758 L-261.746 20.5102 L-259.72 22.5226 L-259.246 22.9939 L-258.536 23.6985 L-257.827 24.403 L-257.118 25.1076 L-256.409 25.8121 L-255.699 26.5166 L-255.213 27 L-246.843 35.3138 L-244.996 37.1481 L-244.351 37.7893 L-243.641 38.4938 L-242.932 39.1984 L-242.223 39.9029 L-241.514 40.6075 L-240.804 41.312 L-240.095 42.0165 L-239.386 42.7211 L-238.676 43.4256 L-237.967 44.1302 L-237.871 44.2259 L-237.042 45.0496 L-236.549 45.5393 L-235.839 46.2438 L-235.13 46.9483 L-234.421 47.6529 L-233.712 48.3574 L-233.002 49.062 L-232.293 49.7665 L-231.584 50.471 L-230.874 51.1756 L-230.165 51.8801 L-229.456 52.5847 L-228.747 53.2892 L-228.037 53.9937 L-227.328 54.6983 L-226.619 55.4028 L-225.909 56.1074 L-225.2 56.8119 L-224.491 57.5164 L-223.782 58.221 L-223.072 58.9255 L-222.363 59.6301 L-221.654 60.3346 L-220.944 61.0391 L-220.235 61.7437 L-219.526 62.4482 L-218.817 63.1528 L-218.107 63.8573 L-217.398 64.5619 L-216.689 65.2664 L-215.979 65.9709 L-215.27 66.6755 L-214.561 67.38 L-213.852 68.0846 L-213.142 68.7891 L-212.433 69.4936 L-211.724 70.1982 L-211.014 70.9027 L-210.305 71.6073 L-209.596 72.3118 L-208.887 73.0163 L-208.177 73.7209 L-207.468 74.4254 L-206.759 75.13 L-206.049 75.8345 L-205.34 76.5391 L-204.631 77.2436 L-203.922 77.9481 L-203.212 78.6527 L-202.503 79.3572 L-201.794 80.0618 L-201.084 80.7663 L-200.375 81.4708 L-199.666 82.1754 L-198.957 82.8799 L-198.247 83.5845 L-197.538 84.289 L-196.829 84.9935 L-196.119 85.6981 L-195.41 86.4026 L-194.701 87.1072 L-193.992 87.8117 L-193.282 88.5162 L-192.573 89.2208 L-191.864 89.9253 L-191.154 90.6299 L-190.445 91.3344 L-189.736 92.0389 L-189.027 92.7435 L-188.317 93.448 L-187.608 94.1526 L-186.899 94.8571 L-186.19 95.5617 L-185.48 96.2662 L-184.771 96.9707 L-184.062 97.6753 L-183.352 98.3798 L-182.643 99.0844 L-181.934 99.7889 L-181.225 100.493 L-180.515 101.198 L-179.806 101.903 L-179.097 102.607 L-178.387 103.312 L-177.678 104.016 L-176.969 104.721 L-176.26 105.425 L-175.55 106.13 L-174.841 106.834 L-174.132 107.539 L-173.422 108.243 L-172.713 108.948 L-172.004 109.652 L-171.295 110.357 L-170.585 111.062 L-169.876 111.766 L-169.167 112.471 L-168.457 113.175 L-167.748 113.88 L-167.039 114.584 L-166.33 115.289 L-165.62 115.993 L-165.54 116.073 L-164.911 116.698 L-164.202 117.402 L-163.492 118.107 L-162.783 118.811 L-162.074 119.516 L-161.365 120.221 L-160.655 120.925 L-159.946 121.63 L-159.237 122.334 L-158.527 123.039 L-157.818 123.743 L-157.109 124.448 L-156.4 125.152 L-155.69 125.857 L-154.981 126.561 L-154.272 127.266 L-153.562 127.971 L-152.853 128.675 L-152.144 129.38 L-151.435 130.084 L-150.725 130.789 L-150.016 131.493 L-149.307 132.198 L-148.597 132.902 L-147.888 133.607 L-147.179 134.311 L-146.47 135.016 L-145.76 135.72 L-145.051 136.425 L-144.342 137.13 L-143.632 137.834 L-142.923 138.539 L-142.214 139.243 L-141.505 139.948 L-140.795 140.652 L-140.086 141.357 L-139.377 142.061 L-138.667 142.766 L-137.958 143.47 L-137.249 144.175 L-136.54 144.88 L-135.83 145.584 L-135.121 146.289 L-134.412 146.993 L-133.703 147.698 L-132.993 148.402 L-132.284 149.107 L-131.575 149.811 L-130.865 150.516 L-130.156 151.22 L-129.447 151.925 L-128.738 152.629 L-128.028 153.334 L-127.319 154.039 L-126.61 154.743 L-125.9 155.448 L-125.191 156.152 L-124.482 156.857 L-123.773 157.561 L-123.063 158.266 L-122.354 158.97 L-121.645 159.675 L-120.935 160.379 L-120.226 161.084 L-119.517 161.788 L-118.808 162.493 L-118.098 163.198 L-117.389 163.902 L-116.68 164.607 L-115.97 165.311 L-115.261 166.016 L-114.552 166.72 L-113.843 167.425 L-113.133 168.129 L-112.424 168.834 L-111.715 169.538 L-111.005 170.243 L-110.296 170.948 L-109.587 171.652 L-108.878 172.357 L-108.168 173.061 L-107.459 173.766 L-106.75 174.47 L-106.04 175.175 L-105.331 175.879 L-104.622 176.584 L-103.913 177.288 L-103.203 177.993 L-102.494 178.697 L-101.785 179.402 L-101.075 180.107 L-100.366 180.811 L-99.6569 181.516 L-98.9476 182.22 L-98.2383 182.925 L-97.5291 183.629 L-96.8198 184.334 L-96.1105 185.038 L-95.4012 185.743 L-94.6919 186.447 L-93.9826 187.152 L-93.2734 187.857 L-92.5641 188.561 L-91.8548 189.266 L-91.1455 189.97 L-90.4362 190.675 L-89.7269 191.379 L-89.0177 192.084 L-88.3084 192.788 L-87.5991 193.493 L-86.8898 194.197 L-86.1805 194.902 L-85.4712 195.606 L-84.7619 196.311 L-84.0527 197.016 L-83.3434 197.72 L-82.6341 198.425 L-81.9248 199.129 L-81.2155 199.834 L-80.5062 200.538 L-79.797 201.243 L-79.0877 201.947 L-78.3784 202.652 L-77.6691 203.356 L-76.9598 204.061 L-76.2506 204.765 L-75.5413 205.47 L-74.832 206.175 L-74.1227 206.879 L-73.4134 207.584 L-72.7041 208.288 L-71.9948 208.993 L-71.2856 209.697 L-70.5763 210.402 L-69.867 211.106 L-69.1577 211.811 L-68.4484 212.515 L-67.7391 213.22 L-67.0299 213.925 L-66.3206 214.629 L-65.6113 215.334 L-64.902 216.038 L-64.1927 216.743 L-63.4834 217.447 L-62.7742 218.152 L-62.0649 218.856 L-61.3556 219.561 L-60.6463 220.265 L-59.937 220.97 L-59.2277 221.674 L-58.5185 222.379 L-57.8092 223.084 L-57.0999 223.788 L-56.3906 224.493 L-55.6813 225.197 L-54.972 225.902 L-54.2628 226.606 L-53.5535 227.311 L-52.8442 228.015 L-52.1349 228.72 L-51.4256 229.424 L-50.7163 230.129 L-50.0071 230.833 L-49.2978 231.538 L-48.5885 232.243 L-47.8792 232.947 L-47.1699 233.652 L-46.4606 234.356 L-45.7514 235.061 L-45.0421 235.765 L-44.3328 236.47 L-43.6235 237.174 L-42.9142 237.879 L-42.2049 238.583 L-41.4957 239.288 L-40.7864 239.993 L-40.0771 240.697 L-39.3678 241.402 L-38.6585 242.106 L-37.9492 242.811 L-37.24 243.515 L-36.5307 244.22 L-35.8214 244.924 L-35.1121 245.629 L-34.4028 246.333 L-33.6935 247.038 L-32.9843 247.742 L-32.275 248.447 L-31.5657 249.152 L-30.8564 249.856 L-30.1471 250.561 L-29.4378 251.265 L-28.7285 251.97 L-28.0193 252.674 L-27.31 253.379 L-26.6007 254.083 L-25.8914 254.788 L-25.1821 255.492 L-24.4729 256.197 L-23.7636 256.901 L-23.0543 257.606 L-22.345 258.311 L-21.6357 259.015 L-20.9264 259.72 L-20.2172 260.424 L-19.5079 261.129 L-18.7986 261.833 L-18.0893 262.538 L-17.38 263.242 L-16.6707 263.947 L-15.9614 264.651 L-15.2522 265.356 L-14.5429 266.061 L-13.8336 266.765 L-13.1243 267.47 L-12.415 268.174 L-11.7058 268.879 L-10.9965 269.583 L-10.2872 270.288 L-9.5779 270.992 L-8.86861 271.697 L-8.15933 272.401 L-7.45005 273.106 L-6.74076 273.81 L-6.49444 274.055 L-6.49445 274.055 Z " />
<path stroke="rgb(0,0,0)" stroke-opacity="1" fill="rgb(200,200,200)" fill-opacity="1" d="M400 -176 L400 -177 L400 -178 L400 -179 L400 -180 L400 -181 L400 -182 L400 -183 L400 -184 L400 -185 L400 -186 L400 -187 L400 -188 L400 -189 L400 -190 L400 -191 L400 -192 L400 -193 L400 -194 L400 -195 L400 -196 L400 -197 L400 -198 L400 -199 L400 -200 L400 -201 L400 -202 L400 -203 L400 -204 L400 -205 L400 -206 L400 -207 L400 -208 L400 -209 L400 -210 L400 -211 L400 -212 L400 -213 L400 -214 L400 -215 L400 -216 L400 -217 L400 -218 L400 -219 L400 -220 L400 -221 L400 -222 L400 -223 L400 -224 L400 -225 L399 -225 L398 -225 L397 -225 L396 -225 L395 -225 L394 -225 L393 -225 L392 -225 L391 -225 L390 -225 L389 -225 L388 -225 L387 -225 L386 -225 L385 -225 L384 -225 L383 -225 L382 -225 L381 -225 L380 -225 L379 -225 L378 -225 L377 -225 L376 -225 L375 -225 L374 -225 L373 -225 L372 -225 L371 -225 L370 -225 L369 -225 L368 -225 L367 -225 L366 -225 L365 -225 L364 -225 L363 -225 L362 -225 L361 -225 L360 -225 L359 -225 L358 -225 L357 -225 L356 -225 L355 -225 L354 -225 L353 -225 L352 -225 L351 -225 L350 -225 L350 -224 L350 -223 L350 -222 L350 -221 L350 -220 L350 -219 L350 -218 L350 -217 L350 -216 L350 -215 L350 -214 L350 -213 L350 -212 L350 -211 L350 -210 L350 -209 L350 -208 L350 -207 L350 -206 L350 -205 L350 -204 L350 -203 L350 -202 L350 -201 L350 -200 L350 -199 L350 -198 L350 -197 L350 -196 L350 -195 L350 -194 L350 -193 L350 -192 L350 -191 L350 -190 L350 -189 L350 -188 L350 -187 L350 -186 L350 -185 L350 -184 L350 -183 L350 -182 L350 -181 L350 -180 L350 -179 L350 -178 L350 -177 L350 -176 L350 -175 L351 -175 L352 -175 L353 -175 L354 -175 L355 -175 L356 -175 L357 -175 L358 -175 L359 -175 L360 -175 L361 -175 L362 -175 L363 -175 L364 -175 L365 -175 L366 -175 L367 -175 L368 -175 L369 -175 L370 -175 L371 -175 L372 -175 L373 -175 L374 -175 L375 -175 L376 -175 L377 -175 L378 -175 L379 -175 L380 -175 L381 -175 L382 -175 L383 -175 L384 -175 L385 -175 L386 -175 L387 -175 L388 -175 L389 -175 L390 -175 L391 -175 L392 -175 L393 -175 L394 -175 L395 -175 L396 -175 L397 -175 L398 -175 L399 -175 L400 -175 L400 -176 Z " />
<path stroke="rgb(0,0,0)" stroke-opacity="1" fill="rgb(200,200,200)" fill-opacity="1" d="M400 -76 L400 -77 L400 -78 L400 -79 L400 -80 L400 -81 L400 -82 L400 -83 L400 -84 L400 -85 L400 -86 L400 -87 L400 -88 L400 -89 L400 -90 L400 -91 L400 -92 L400 -93 L400 -94 L400 -95 L400 -96 L400 -97 L400 -98 L400 -99 L400 -100 L400 -101 L400 -102 L400 -103 L400 -104 L400 -105 L400 -106 L400 -107 L400 -108 L400 -109 L400 -110 L400 -111 L400 -112 L400 -113 L400 -114 L400 -115 L400 -116 L400 -117 L400 -118 L400 -119 L400 -120 L400 -121 L400 -122 L400 -123 L400 -124 L400 -125 L399 -125 L398 -125 L397 -125 L396 -125 L395 -125 L394 -125 L393 -125 L392 -125 L391 -125 L390 -125 L389 -125 L388 -125 L387 -125 L386 -125 L385 -125 L384 -125 L383 -125 L382 -125 L381 -125 L380 -125 L379 -125 L378 -125 L377 -125 L376 -125 L375 -125 L374 -125 L373 -125 L372 -125 L371 -125 L370 -125 L369 -125 L368 -125 L367 -125 L366 -125 L365 -125 L364 -125 L363 -125 L362 -125 L361 -125 L360 -125 L359 -125 L358 -125 L357 -125 L356 -125 L355 -125 L354 -125 L353 -125 L352 -125 L351 -125 L350 -125 L350 -124 L350 -123 L350 -122 L350 -121 L350 -120 L350 -119 L350 -118 L350 -117 L350 -116 L350 -115 L350 -114 L350 -113 L350 -112 L350 -111 L350 -110 L350 -109 L350 -108 L350 -107 L350 -106 L350 -105 L350 -104 L350 -103 L350 -102 L350 -101 L350 -100 L350 -99 L350 -98 L350 -97 L350 -96 L350 -95 L350 -94 L350 -93 L350 -92 L350 -91 L350 -90 L350 -89 L350 -88 L350 -87 L350 -86 L350 -85 L350 -84 L350 -83 L350 -82 L350 -81 L350 -80 L350 -79 L350 -78 L350 -77 L350 -76 L350 -75 L351 -75 L352 -75 L353 -75 L354 -75 L355 -75 L356 -75 L357 -75 L358 -75 L359 -75 L360 -75 L361 -75 L362 -75 L363 -75 L364 -75 L365 -75 L366 -75 L367 -75 L368 -75 L369 -75 L370 -75 L371 -75 L372 -75 L373 -75 L374 -75 L375 -75 L376 -75 L377 -75 L378 -75 L379 -75 L380 -75 L381 -75 L382 -75 L383 -75 L384 -75 L385 -75 L386 -75 L387 -75 L388 -75 L389 -75 L390 -75 L391 -75 L392 -75 L393 -75 L394 -75 L395 -75 L396 -75 L397 -75 L398 -75 L399 -75 L400 -75 L400 -76 Z " />
<path stroke="rgb(0,0,0)" stroke-opacity="1" fill="rgb(200,200,200)" fill-opacity="1" d="M383 25 L384 25 L385 25 L386 25 L387 25 L388 25 L389 25 L390 25 L391 25 L392 25 L393 25 L394 25 L395 25 L396 25 L397 25 L398 25 L399 25 L400 25 L400 24 L400 23 L400 22 L400 21 L400 20 L400 19 L400 18 L400 17 L400 16 L400 15 L400 14 L400 13 L400 12 L400 11 L400 10 L400 9 L400 8 L400 7 L400 6 L400 5 L400 3.99999 L400 3 L400 2 L400 1 L400 0 L400 -1 L400 -2 L400 -3 L400 -4 L400 -5 L400 -6 L400 -7 L400 -7.99999 L400 -9 L400 -10 L400 -11 L400 -12 L400 -13 L400 -14 L400 -15 L400 -16 L400 -17 L400 -18 L400 -19 L400 -20 L400 -21 L400 -22 L400 -23 L400 -24 L400 -25 L399 -25 L398 -25 L397 -25 L396 -25 L395 -25 L394 -25 L393 -25 L392 -25 L391 -25 L390 -25 L389 -25 L388 -25 L387 -25 L386 -25 L385 -25 L384 -25 L383 -25 L382 -25 L381 -25 L380 -25 L379 -25 L378 -25 L377 -25 L376 -25 L375 -25 L374 -25 L373 -25 L372 -25 L371 -25 L370 -25 L369 -25 L368 -25 L367 -25 L366 -25 L365 -25 L364 -25 L363 -25 L362 -25 L361 -25 L360 -25 L359 -25 L358 -25 L357 -25 L356 -25 L355 -25 L354 -25 L353 -25 L352 -25 L351 -25 L350 -25 L350 -24 L350 -23 L350 -22 L350 -21 L350 -20 L350 -19 L350 -18 L350 -17 L350 -16 L350 -15 L350 -14 L350 -13 L350 -12 L350 -11 L350 -10 L350 -9 L350 -8 L350 -7 L350 -6 L350 -5 L350 -3.99999 L350 -3 L350 -2 L350 -1 L350 0 L350 1 L350 2 L350 3 L350 4 L350 5 L350 6 L350 7 L350 7.99999 L350 9 L350 10 L350 11 L350 12 L350 13 L350 14 L350 15 L350 16 L350 17 L350 18 L350 19 L350 20 L350 21 L350 22 L350 23 L350 24 L350 25 L351 25 L352 25 L353 25 L354 25 L355 25 L356 25 L357 25 L358 25 L359 25 L360 25 L361 25 L362 25 L363 25 L364 25 L365 25 L366 25 L367 25 L368 25 L369 25 L370 25 L371 25 L372 25 L373 25 L374 25 L375 25 L376 25 L377 25 L378 25 L379 25 L380 25 L381 25 L382 25 L383 25 Z " />
<path stroke="rgb(0,0,0)" stroke-opacity="1" fill="rgb(200,200,200)" fill-opacity="1" d="M383 125 L384 125 L385 125 L386 125 L387 125 L388 125 L389 125 L390 125 L391 125 L392 125 L393 125 L394 125 L395 125 L396 125 L397 125 L398 125 L399 125 L400 125 L400 124 L400 123 L400 122 L400 121 L400 120 L400 119 L400 118 L400 117 L400 116 L400 115 L400 114 L400 113 L400 112 L400 111 L400 110 L400 109 L400 108 L400 107 L400 106 L400 105 L400 104 L400 103 L400 102 L400 101 L400 100 L400 99 L400 98 L400 97 L400 96 L400 95 L400 94 L400 93 L400 92 L400 91 L400 90 L400 89 L400 88 L400 87 L400 86 L400 85 L400 84 L400 83 L400 82 L400 81 L400 80 L400 79 L400 78 L400 77 L400 76 L400 75 L399 75 L398 75 L397 75 L396 75 L395 75 L394 75 L393 75 L392 75 L391 75 L390 75 L389 75 L388 75 L387 75 L386 75 L385 75 L384 75 L383 75 L382 75 L381 75 L380 75 L379 75 L378 75 L377 75 L376 75 L375 75 L374 75 L373 75 L372 75 L371 75 L370 75 L369 75 L368 75 L367 75 L366 75 L365 75 L364 75 L363 75 L362 75 L361 75 L360 75 L359 75 L358 75 L357 75 L356 75 L355 75 L354 75 L353 75 L352 75 L351 75 L350 75 L350 76 L350 77 L350 78 L350 79 L350 80 L350 81 L350 82 L350 83 L350 84 L350 85 L350 86 L350 87 L350 88 L350 89 L350 90 L350 91 L350 92 L350 93 L350 94 L350 95 L350 96 L350 97 L350 98 L350 99 L350 100 L350 101 L350 102 L350 103 L350 104 L350 105 L350 106 L350 107 L350 108 L350 109 L350 110 L350 111 L350 112 L350 113 L350 114 L350 115 L350 116 L350 117 L350 118 L350 119 L350 120 L350 121 L350 122 L350 123 L350 124 L350 125 L351 125 L352 125 L353 125 L354 125 L355 125 L356 125 L357 125 L358 125 L359 125 L360 125 L361 125 L362 125 L363 125 L364 125 L365 125 L366 125 L367 125 L368 125 L369 125 L370 125 L371 125 L372 125 L373 125 L374 125 L375 125 L376 125 L377 125 L378 125 L379 125 L380 125 L381 125 L382 125 L383 125 Z " />
<path stroke="rgb(0,0,0)" stroke-opacity="1" fill="rgb(200,200,200)" fill-opacity="1" d="M383 225 L384 225 L385 225 L386 225 L387 225 L388 225 L389 225 L390 225 L391 225 L392 225 L393 225 L394 225 L395 225 L396 225 L397 225 L398 225 L399 225 L400 225 L400 224 L400 223 L400 222 L400 221 L400 220 L400 219 L400 218 L400 217 L400 216 L400 215 L400 214 L400 213 L400 212 L400 211 L400 210 L400 209 L400 208 L400 207 L400 206 L400 205 L400 204 L400 203 L400 202 L400 201 L400 200 L400 199 L400 198 L400 197 L400 196 L400 195 L400 194 L400 193 L400 192 L400 191 L400 190 L400 189 L400 188 L400 187 L400 186 L400 185 L400 184 L400 183 L400 182 L400 181 L400 180 L400 179 L400 178 L400 177 L400 176 L400 175 L399 175 L398 175 L397 175 L396 175 L395 175 L394 175 L393 175 L392 175 L391 175 L390 175 L389 175 L388 175 L387 175 L386 175 L385 175 L384 175 L383 175 L382 175 L381 175 L380 175 L379 175 L378 175 L377 175 L376 175 L375 175 L374 175 L373 175 L372 175 L371 175 L370 175 L369 175 L368 175 L367 175 L366 175 L365 175 L364 175 L363 175 L362 175 L361 175 L360 175 L359 175 L358 175 L357 175 L356 175 L355 175 L354 175 L353 175 L352 175 L351 175 L350 175 L350 176 L350 177 L350 178 L350 179 L350 180 L350 181 L350 182 L350 183 L350 184 L350 185 L350 186 L350 187 L350 188 L350 189 L350 190 L350 191 L350 192 L350 193 L350 194 L350 195 L350 196 L350 197 L350 198 L350 199 L350 200 L350 201 L350 202 L350 203 L350 204 L350 205 L350 206 L350 207 L350 208 L350 209 L350 210 L350 211 L350 212 L350 213 L350 214 L350 215 L350 216 L350 217 L350 218 L350 219 L350 220 L350 221 L350 222 L350 223 L350 224 L350 225 L351 225 L352 225 L353 225 L354 225 L355 225 L356 225 L357 225 L358 225 L359 225 L360 225 L361 225 L362 225 L363 225 L364 225 L365 225 L366 225 L367 225 L368 225 L369 225 L370 225 L371 225 L372 225 L373 225 L374 225 L375 225 L376 225 L377 225 L378 225 L379 225 L380 225 L381 225 L382 225 L383 225 Z " />
<path stroke="rgb(0,0,0)" stroke-opacity="1" fill="rgb(200,200,200)" fill-opacity="1" d="M400 324 L400 323 L400 322 L400 321 L400 320 L400 319 L400 318 L400 317 L400 316 L400 315 L400 314 L400 313 L400 312 L400 311 L400 310 L400 309 L400 308 L400 307 L400 306 L400 305 L400 304 L400 303 L400 302 L400 301 L400 300 L400 299 L400 298 L400 297 L400 296 L400 295 L400 294 L400 293 L400 292 L400 291 L400 290 L400 289 L400 288 L400 287 L400 286 L400 285 L400 284 L400 283 L400 282 L400 281 L400 280 L400 279 L400 278 L400 277 L400 276 L400 275 L399 275 L398 275 L397 275 L396 275 L395 275 L394 275 L393 275 L392 275 L391 275 L390 275 L389 275 L388 275 L387 275 L386 275 L385 275 L384 275 L383 275 L382 275 L381 275 L380 275 L379 275 L378 275 L377 275 L376 275 L375 275 L374 275 L373 275 L372 275 L371 275 L370 275 L369 275 L368 275 L367 275 L366 275 L365 275 L364 275 L363 275 L362 275 L361 275 L360 275 L359 275 L358 275 L357 275 L356 275 L355 275 L354 275 L353 275 L352 275 L351 275 L350 275 L350 276 L350 277 L350 278 L350 279 L350 280 L350 281 L350 282 L350 283 L350 284 L350 285 L350 286 L350 287 L350 288 L350 289 L350 290 L350 291 L350 292 L350 293 L350 294 L350 295 L350 296 L350 297 L350 298 L350 299 L350 300 L350 301 L350 302 L350 303 L350 304 L350 305 L350 306 L350 307 L350 308 L350 309 L350 310 L350 311 L350 312 L350 313 L350 314 L350 315 L350 316 L350 317 L350 318 L350 319 L350 320 L350 321 L350 322 L350 323 L350 324 L350 325 L351 325 L352 325 L353 325 L354 325 L355 325 L356 325 L357 325 L358 325 L359 325 L360 325 L361 325 L362 325 L363 325 L364 325 L365 325 L366 325 L367 325 L368 325 L369 325 L370 325 L371 325 L372 325 L373 325 L374 325 L375 325 L376 325 L377 325 L378 325 L379 325 L380 325 L381 325 L382 325 L383 325 L384 325 L385 325 L386 325 L387 325 L388 325 L389 325 L390 325 L391 325 L392 325 L393 325 L394 325 L395 325 L396 325 L397 325 L398 325 L399 325 L400 325 L400 324 Z " />
<path stroke="rgb(0,0,0)" stroke-opacity="1" fill="rgb(200,200,200)" fill-opacity="1" d="M182.703 181.79 L182.703 180.876 L182.703 179.963 L182.703 179.049 L182.703 178.136 L182.703 177.222 L182.703 176.309 L182.703 175.395 L182.703 174.482 L182.703 173.568 L182.703 172.655 L182.703 171.741 L182.703 170.828 L182.703 169.914 L182.703 169.001 L182.703 168.087 L182.703 167.174 L182.703 166.26 L182.703 165.347 L182.703 164.433 L182.703 163.52 L182.703 162.606 L182.703 161.693 L182.703 160.779 L182.703 159.866 L182.703 158.952 L182.703 158.038 L182.703 157.125 L182.703 156.211 L182.703 155.298 L182.703 154.384 L182.703 153.471 L182.703 152.557 L182.703 151.644 L182.703 150.73 L182.703 149.817 L182.703 148.903 L182.703 147.99 L182.703 147.076 L182.703 146.163 L182.703 145.249 L182.703 144.336 L182.703 143.422 L182.703 142.509 L182.703 141.595 L182.703 140.682 L182.703 139.768 L182.703 138.855 L182.703 137.941 L182.703 137.028 L182.703 136.114 L182.703 135.201 L182.703 134.287 L182.703 133.374 L182.703 132.46 L182.703 131.546 L182.703 130.633 L182.703 129.719 L182.703 128.806 L182.703 127.892 L182.703 126.979 L182.703 126.065 L182.703 125.152 L182.703 124.238 L182.703 123.325 L182.703 122.411 L182.703 121.498 L182.703 120.584 L182.703 119.671 L182.703 118.757 L182.703 117.844 L182.703 116.93 L182.703 116.017 L182.703 115.103 L182.703 114.19 L182.703 113.276 L182.703 112.363 L182.703 111.449 L182.703 110.536 L182.703 109.622 L182.703 108.709 L182.703 107.795 L182.703 106.882 L182.703 105.968 L182.703 105.054 L182.703 104.141 L182.703 103.227 L182.703 102.314 L182.703 101.4 L182.703 100.487 L182.703 99.5734 L182.703 98.6599 L182.703 97.7463 L182.703 96.8328 L182.703 95.9193 L182.703 95.0058 L182.703 94.0923 L182.703 93.1787 L182.703 92.2652 L182.703 91.3517 L182.703 90.4382 L182.703 89.5247 L182.703 88.6112 L182.703 87.6976 L182.703 86.7841 L182.703 85.8706 L182.703 84.9571 L182.703 84.0436 L182.703 83.1301 L182.703 82.2165 L182.703 81.303 L182.703 80.3895 L182.703 79.476 L182.703 78.5625 L182.703 77.649 L182.703 76.7354 L182.703 75.8219 L182.703 74.9084 L182.703 73.9949 L182.703 73.0814 L182.703 72.1679 L182.703 71.2543 L182.703 70.3408 L182.703 69.4273 L182.703 68.5138 L182.703 67.6003 L182.703 66.6868 L182.703 65.7732 L182.703 64.8597 L182.703 63.9462 L182.703 63.0327 L182.703 62.1192 L182.703 61.2056 L182.703 60.2921 L182.703 59.3786 L182.703 58.4651 L182.703 57.5516 L182.703 56.6381 L182.703 55.7246 L182.703 54.811 L182.703 53.8975 L182.703 52.984 L182.703 52.0705 L182.703 51.157 L182.703 50.2434 L182.703 49.3299 L182.703 48.4164 L182.703 47.5029 L182.703 46.5894 L182.703 45.6759 L182.703 44.7623 L182.703 43.8488 L182.703 42.9353 L182.703 42.0218 L182.703 41.1083 L182.703 40.1947 L182.703 39.2812 L182.703 38.3677 L182.703 37.4542 L182.703 36.5407 L182.703 35.6272 L182.703 34.7137 L182.703 33.8001 L182.703 32.8866 L182.703 31.9731 L182.703 31.0596 L182.703 30.1461 L182.703 29.2325 L182.703 28.319 L182.703 27.4055 L182.703 26.492 L182.703 25.5785 L182.703 24.665 L182.703 23.7514 L182.703 22.8379 L182.703 21.9244 L182.703 21.0109 L182.703 20.0974 L182.703 19.1839 L182.703 18.2703 L182.703 17.3568 L182.703 16.4433 L182.703 15.5298 L182.703 14.6163 L182.703 13.7027 L182.703 12.7892 L182.703 11.8757 L182.703 10.9622 L182.703 10.0487 L182.703 9.13517 L182.703 8.22165 L182.703 7.30813 L182.703 6.39462 L182.703 5.4811 L182.703 4.56758 L182.703 3.65406 L182.703 2.74055 L182.703 1.82703 L182.703 0.91351 L182.703 0 L181.79 0 L180.876 0 L179.963 0 L179.049 0 L178.136 0 L177.222 0 L176.309 0 L175.395 0 L174.482 0 L173.568 0 L172.655 0 L171.741 0 L170.828 0 L169.914 0 L169.001 0 L168.087 0 L167.174 0 L166.26 0 L165.347 0 L164.433 0 L163.52 0 L162.606 0 L161.693 0 L160.779 0 L159.866 0 L158.952 0 L158.038 0 L157.125 0 L156.211 0 L155.298 0 L154.384 0 L153.471 0 L152.557 0 L151.644 0 L150.73 0 L149.817 0 L148.903 0 L147.99 0 L147.076 0 L146.163 0 L145.249 0 L144.336 0 L143.422 0 L142.509 0 L141.595 0 L140.682 0 L139.768 0 L138.855 0 L137.941 0 L137.028 0 L136.114 0 L135.201 0 L134.287 0 L133.374 0 L132.46 0 L131.546 0 L130.633 0 L129.719 0 L128.806 0 L127.892 0 L126.979 0 L126.065 0 L125.152 0 L124.238 0 L123.325 0 L122.411 0 L121.498 0 L120.584 0 L119.671 0 L118.757 0 L117.844 0 L116.93 0 L116.017 0 L115.103 0 L114.19 0 L113.276 0 L112.363 0 L111.449 0 L110.536 0 L109.622 0 L108.709 0 L107.795 0 L106.882 0 L105.968 0 L105.054 0 L104.141 0 L103.227 0 L102.314 0 L101.4 0 L100.487 0 L100 0 L100 -1 L100 -2 L100 -3 L100 -4 L100 -5 L100 -6 L100 -6.99999 L100 -8 L100 -8.99999 L100 -10 L100 -11 L100 -12 L100 -13 L100 -14 L100 -15 L100 -16 L100 -17 L100 -18 L100 -19 L100 -20 L100 -21 L100 -22 L100 -23 L100 -24 L100 -25 L100 -26 L100 -27 L100 -28 L100 -29 L100 -30 L100 -31 L100 -32 L100 -33 L100 -34 L100 -35 L100 -36 L100 -37 L100 -38 L100 -39 L100 -40 L100 -41 L100 -42 L100 -43 L100 -44 L100 -45 L100 -46 L100 -47 L100 -48 L100 -49 L100 -50 L100 -51 L100 -52 L100 -53 L100 -54 L100 -55 L100 -56 L100 -57 L100 -58 L100 -59 L100 -60 L100 -61 L100 -62 L100 -63 L100 -64 L100 -65 L100 -66 L100 -67 L100 -68 L100 -69 L100 -70 L100 -71 L100 -72 L100 -73 L100 -74 L100 -75 L100 -76 L100 -77 L100 -78 L100 -79 L100 -80 L100 -81 L100 -82 L100 -83 L100 -84 L100 -85 L100 -86 L100 -87 L100 -88 L100 -89 L100 -90 L100 -91 L100 -92 L100 -93 L100 -94 L100 -95 L100 -96 L100 -97 L100 -98 L100 -99 L100 -100 L99 -100 L98 -100 L97 -100 L96 -100 L95 -100 L94 -100 L93 -100 L92 -100 L91 -100 L90 -100 L89 -100 L88 -100 L87 -100 L86 -100 L85 -100 L84 -100 L83 -100 L82 -100 L81 -100 L80 -100 L79 -100 L78 -100 L77 -100 L76 -100 L75 -100 L74 -100 L73 -100 L72 -100 L71 -100 L70 -100 L69 -100 L68 -100 L67 -100 L66 -100 L65 -100 L64 -100 L63 -100 L62 -100 L61 -100 L60 -100 L59 -100 L58 -100 L57 -100 L56 -100 L55 -100 L54 -100 L53 -100 L52 -100 L51 -100 L50 -100 L49 -100 L48 -100 L47 -100 L46 -100 L45 -100 L44 -100 L43 -100 L42 -100 L41 -100 L40 -100 L39 -100 L38 -100 L37 -100 L36 -100 L35 -100 L34 -100 L33 -100 L32 -100 L31 -100 L30 -100 L29 -100 L28 -100 L27 -100 L26 -100 L25 -100 L24 -100 L23 -100 L22 -100 L21 -100 L20 -100 L19 -100 L18 -100 L17 -100 L16 -100 L15 -100 L14 -100 L13 -100 L12 -100 L11 -100 L10 -100 L9 -100 L8 -100 L7 -100 L6 -100 L5 -100 L4 -100 L3 -100 L2 -100 L1 -100 L0 -100 L-1 -100 L-2 -100 L-3 -100 L-4 -100 L-5 -100 L-6 -100 L-6.99999 -100 L-8 -100 L-8.99999 -100 L-10 -100 L-11 -100 L-12 -100 L-13 -100 L-14 -100 L-15 -100 L-16 -100 L-17 -100 L-18 -100 L-19 -100 L-20 -100 L-21 -100 L-22 -100 L-23 -100 L-24 -100 L-25 -100 L-26 -100 L-27 -100 L-28 -100 L-29 -100 L-30 -100 L-31 -100 L-32 -100 L-33 -100 L-34 -100 L-35 -100 L-36 -100 L-37 -100 L-38 -100 L-39 -100 L-40 -100 L-41 -100 L-42 -100 L-43 -100 L-44 -100 L-45 -100 L-46 -100 L-47 -100 L-48 -100 L-49 -100 L-50 -100 L-51 -100 L-52 -100 L-53 -100 L-54 -100 L-55 -100 L-56 -100 L-57 -100 L-58 -100 L-59 -100 L-60 -100 L-61 -100 L-62 -100 L-63 -100 L-64 -100 L-65 -100 L-66 -100 L-67 -100 L-68 -100 L-69 -100 L-70 -100 L-71 -100 L-72 -100 L-73 -100 L-74 -100 L-75 -100 L-76 -100 L-77 -100 L-78 -100 L-79 -100 L-80 -100 L-81 -100 L-82 -100 L-83 -100 L-84 -100 L-85 -100 L-86 -100 L-87 -100 L-88 -100 L-89 -100 L-90 -100 L-91 -100 L-92 -100 L-93 -100 L-94 -100 L-95 -100 L-96 -100 L-97 -100 L-98 -100 L-99 -100 L-100 -100 L-100 -99 L-100 -98 L-100 -97 L-100 -96 L-100 -95 L-100 -94 L-100 -93 L-100 -92 L-100 -91 L-100 -90 L-100 -89 L-100 -88 L-100 -87 L-100 -86 L-100 -85 L-100 -84 L-100 -83 L-100 -82 L-100 -81 L-100 -80 L-100 -79 L-100 -78 L-100 -77 L-100 -76 L-100 -75 L-100 -74 L-100 -73 L-100 -72 L-100 -71 L-100 -70 L-100 -69 L-100 -68 L-100 -67 L-100 -66 L-100 -65 L-100 -64 L-100 -63 L-100 -62 L-100 -61 L-100 -60 L-100 -59 L-100 -58 L-100 -57 L-100 -56 L-100 -55 L-100 -54 L-100 -53 L-100 -52 L-100 -51 L-100 -50 L-100 -49 L-100 -48 L-100 -47 L-100 -46 L-100 -45 L-100 -44 L-100 -43 L-100 -42 L-100 -41 L-100 -40 L-100 -39 L-100 -38 L-100 -37 L-100 -36 L-100 -35 L-100 -34 L-100 -33 L-100 -32 L-100 -31 L-100 -30 L-100 -29 L-100 -28 L-100 -27 L-100 -26 L-100 -25 L-100 -24 L-100 -23 L-100 -22 L-100 -21 L-100 -20 L-100 -19 L-100 -18 L-100 -17 L-100 -16 L-100 -15 L-100 -14 L-100 -13 L-100 -12 L-100 -11 L-100 -10 L-100 -9 L-100 -8 L-100 -7 L-100 -6 L-100 -5 L-100 -4 L-100 -3 L-100 -2 L-100 -1 L-100 0 L-100 1 L-100 2 L-100 3 L-100 4 L-100 5 L-100 6 L-100 6.99999 L-100 8 L-100 8.99999 L-100 10 L-100 11 L-100 12 L-100 13 L-100 14 L-100 15 L-100 16 L-100 17 L-100 18 L-100 19 L-100 20 L-100 21 L-100 22 L-100 23 L-100 24 L-100 25 L-100 26 L-100 27 L-100 28 L-100 29 L-100 30 L-100 31 L-100 32 L-100 33 L-100 34 L-100 35 L-100 36 L-100 37 L-100 38 L-100 39 L-100 40 L-100 41 L-100 42 L-100 43 L-100 44 L-100 45 L-100 46 L-100 47 L-100 48 L-100 49 L-100 50 L-100 51 L-100 52 L-100 53 L-100 54 L-100 55 L-100 56 L-100 57 L-100 58 L-100 59 L-100 60 L-100 61 L-100 62 L-100 63 L-100 64 L-100 65 L-100 66 L-100 67 L-100 68 L-100 69 L-100 70 L-100 71 L-100 72 L-100 73 L-100 74 L-100 75 L-100 76 L-100 77 L-100 78 L-100 79 L-100 80 L-100 81 L-100 82 L-100 83 L-100 84 L-100 85 L-100 86 L-100 87 L-100 88 L-100 89 L-100 90 L-100 91 L-100 92 L-100 93 L-100 94 L-100 95 L-100 96 L-100 97 L-100 98 L-100 99 L-100 100 L-99 100 L-98 100 L-97 100 L-96 100 L-95 100 L-94 100 L-93 100 L-92 100 L-91 100 L-90 100 L-89 100 L-88 100 L-87 100 L-86 100 L-85 100 L-84 100 L-83 100 L-82 100 L-81 100 L-80 100 L-79 100 L-78 100 L-77 100 L-76 100 L-75 100 L-74 100 L-73 100 L-72 100 L-71 100 L-70 100 L-69 100 L-68 100 L-67 100 L-66 100 L-65 100 L-64 100 L-63 100 L-62 100 L-61 100 L-60 100 L-59 100 L-58 100 L-57 100 L-56 100 L-55 100 L-54 100 L-53 100 L-52 100 L-51 100 L-50 100 L-49 100 L-48 100 L-47 100 L-46 100 L-45 100 L-44 100 L-43 100 L-42 100 L-41 100 L-40 100 L-39 100 L-38 100 L-37 100 L-36 100 L-35 100 L-34 100 L-33 100 L-32 100 L-31 100 L-30 100 L-29 100 L-28 100 L-27 100 L-26 100 L-25 100 L-24 100 L-23 100 L-22 100 L-21 100 L-20 100 L-19 100 L-18 100 L-17 100 L-16 100 L-15 100 L-14 100 L-13 100 L-12 100 L-11 100 L-10 100 L-9 100 L-8 100 L-7 100 L-6 100 L-5 100 L-4 100 L-3 100 L-2 100 L-1 100 L0 100 L0 100.487 L0 101.4 L0 102.314 L0 103.227 L0 104.141 L0 105.054 L0 105.968 L0 106.882 L0 107.795 L0 108.709 L0 109.622 L0 110.536 L0 111.449 L0 112.363 L0 113.276 L0 114.19 L0 115.103 L0 116.017 L0 116.93 L0 117.844 L0 118.757 L0 119.671 L0 120.584 L0 121.498 L0 122.411 L0 123.325 L0 124.238 L0 125.152 L0 126.065 L0 126.979 L0 127.892 L0 128.806 L0 129.719 L0 130.633 L0 131.546 L0 132.46 L0 133.374 L0 134.287 L0 135.201 L0 136.114 L0 137.028 L0 137.941 L0 138.855 L0 139.768 L0 140.682 L0 141.595 L0 142.509 L0 143.422 L0 144.336 L0 145.249 L0 146.163 L0 147.076 L0 147.99 L0 148.903 L0 149.817 L0 150.73 L0 151.644 L0 152.557 L0 153.471 L0 154.384 L0 155.298 L0 156.211 L0 157.125 L0 158.038 L0 158.952 L0 159.866 L0 160.779 L0 161.693 L0 162.606 L0 163.52 L0 164.433 L0 165.347 L0 166.26 L0 167.174 L0 168.087 L0 169.001 L0 169.914 L0 170.828 L0 171.741 L0 172.655 L0 173.568 L0 174.482 L0 175.395 L0 176.309 L0 177.222 L0 178.136 L0 179.049 L0 179.963 L0 180.876 L0 181.79 L0 182.703 L0.91351 182.703 L1.82703 182.703 L2.74055 182.703 L3.65406 182.703 L4.56758 182.703 L5.4811 182.703 L6.39462 182.703 L7.30813 182.703 L8.22165 182.703 L9.13517 182.703 L10.0487 182.703 L10.9622 182.703 L11.8757 182.703 L12.7892 182.703 L13.7027 182.703 L14.6163 182.703 L15.5298 182.703 L16.4433 182.703 L17.3568 182.703 L18.2703 182.703 L19.1839 182.703 L20.0974 182.703 L21.0109 182.703 L21.9244 182.703 L22.8379 182.703 L23.7514 182.703 L24.665 182.703 L25.5785 182.703 L26.492 182.703 L27.4055 182.703 L28.319 182.703 L29.2325 182.703 L30.1461 182.703 L31.0596 182.703 L31.9731 182.703 L32.8866 182.703 L33.8001 182.703 L34.7137 182.703 L35.6272 182.703 L36.5407 182.703 L37.4542 182.703 L38.3677 182.703 L39.2812 182.703 L40.1947 182.703 L41.1083 182.703 L42.0218 182.703 L42.9353 182.703 L43.8488 182.703 L44.7623 182.703 L45.6759 182.703 L46.5894 182.703 L47.5029 182.703 L48.4164 182.703 L49.3299 182.703 L50.2434 182.703 L51.157 182.703 L52.0705 182.703 L52.984 182.703 L53.8975 182.703 L54.811 182.703 L55.7246 182.703 L56.6381 182.703 L57.5516 182.703 L58.4651 182.703 L59.3786 182.703 L60.2921 182.703 L61.2056 182.703 L62.1192 182.703 L63.0327 182.703 L63.9462 182.703 L64.8597 182.703 L65.7732 182.703 L66.6868 182.703 L67.6003 182.703 L68.5138 182.703 L69.4273 182.703 L70.3408 182.703 L71.2543 182.703 L72.1679 182.703 L73.0814 182.703 L73.9949 182.703 L74.9084 182.703 L75.8219 182.703 L76.7354 182.703 L77.649 182.703 L78.5625 182.703 L79.476 182.703 L80.3895 182.703 L81.303 182.703 L82.2165 182.703 L83.1301 182.703 L84.0436 182.703 L84.9571 182.703 L85.8706 182.703 L86.7841 182.703 L87.6976 182.703 L88.6112 182.703 L89.5247 182.703 L90.4382 182.703 L91.3517 182.703 L92.2652 182.703 L93.1787 182.703 L94.0923 182.703 L95.0058 182.703 L95.9193 182.703 L96.8328 182.703 L97.7463 182.703 L98.6599 182.703 L99.5734 182.703 L100.487 182.703 L101.4 182.703 L102.314 182.703 L103.227 182.703 L104.141 182.703 L105.054 182.703 L105.968 182.703 L106.882 182.703 L107.795 182.703 L108.709 182.703 L109.622 182.703 L110.536 182.703 L111.449 182.703 L112.363 182.703 L113.276 182.703 L114.19 182.703 L115.103 182.703 L116.017 182.703 L116.93 182.703 L117.844 182.703 L118.757 182.703 L119.671 182.703 L120.584 182.703 L121.498 182.703 L122.411 182.703 L123.325 182.703 L124.238 182.703 L125.152 182.703 L126.065 182.703 L126.979 182.703 L127.892 182.703 L128.806 182.703 L129.719 182.703 L130.633 182.703 L131.546 182.703 L132.46 182.703 L133.374 182.703 L134.287 182.703 L135.201 182.703 L136.114 182.703 L137.028 182.703 L137.941 182.703 L138.855 182.703 L139.768 182.703 L140.682 182.703 L141.595 182.703 L142.509 182.703 L143.422 182.703 L144.336 182.703 L145.249 182.703 L146.163 182.703 L147.076 182.703 L147.99 182.703 L148.903 182.703 L149.817 182.703 L150.73 182.703 L151.644 182.703 L152.557 182.703 L153.471 182.703 L154.384 182.703 L155.298 182.703 L156.211 182.703 L157.125 182.703 L158.038 182.703 L158.952 182.703 L159.866 182.703 L160.779 182.703 L161.693 182.703 L162.606 182.703 L163.52 182.703 L164.433 182.703 L165.347 182.703 L166.26 182.703 L167.174 182.703 L168.087 182.703 L169.001 182.703 L169.914 182.703 L170.828 182.703 L171.741 182.703 L172.655 182.703 L173.568 182.703 L174.482 182.703 L175.395 182.703 L176.309 182.703 L177.222 182.703 L178.136 182.703 L179.049 182.703 L179.963 182.703 L180.876 182.703 L181.79 182.703 L182.703 182.703 L182.703 181.79 Z " />
<path stroke="rgb(0,0,0)" stroke-opacity="1" fill="rgb(200,200,200)" fill-opacity="1" d="M-6.74076 273.81 L-7.45005 273.106 L-8.15933 272.401 L-8.86861 271.697 L-9.5779 270.992 L-10.2872 270.288 L-10.9965 269.583 L-11.7058 268.879 L-12.415 268.174 L-13.1243 267.47 L-13.8336 266.765 L-14.5429 266.061 L-15.2522 265.356 L-15.9614 264.651 L-16.6707 263.947 L-17.38 263.242 L-18.0893 262.538 L-18.7986 261.833 L-19.5079 261.129 L-20.2172 260.424 L-20.9264 259.72 L-21.6357 259.015 L-22.345 258.311 L-23.0543 257.606 L-23.7636 256.901 L-24.4729 256.197 L-25.1821 255.492 L-25.8914 254.788 L-26.6007 254.083 L-27.31 253.379 L-28.0193 252.674 L-28.7285 251.97 L-29.4378 251.265 L-30.1471 250.561 L-30.8564 249.856 L-31.5657 249.152 L-32.275 248.447 L-32.9843 247.742 L-33.6935 247.038 L-34.4028 246.333 L-35.1121 245.629 L-35.8214 244.924 L-36.5307 244.22 L-37.24 243.515 L-37.9492 242.811 L-38.6585 242.106 L-39.3678 241.402 L-40.0771 240.697 L-40.7864 239.993 L-41.4957 239.288 L-42.2049 238.583 L-42.9142 237.879 L-43.6235 237.174 L-44.3328 236.47 L-45.0421 235.765 L-45.7514 235.061 L-46.4606 234.356 L-47.1699 233.652 L-47.8792 232.947 L-48.5885 232.243 L-49.2978 231.538 L-50.0071 230.833 L-50.7163 230.129 L-51.4256 229.424 L-52.1349 228.72 L-52.8442 228.015 L-53.5535 227.311 L-54.2628 226.606 L-54.972 225.902 L-55.6813 225.197 L-56.3906 224.493 L-57.0999 223.788 L-57.8092 223.084 L-58.5185 222.379 L-59.2277 221.674 L-59.937 220.97 L-60.6463 220.265 L-61.3556 219.561 L-62.0649 218.856 L-62.7742 218.152 L-63.4834 217.447 L-64.1927 216.743 L-64.902 216.038 L-65.6113 215.334 L-66.3206 214.629 L-67.0299 213.925 L-67.7391 213.22 L-68.4484 212.515 L-69.1577 211.811 L-69.867 211.106 L-70.5763 210.402 L-71.2856 209.697 L-71.9948 208.993 L-72.7041 208.288 L-73.4134 207.584 L-74.1227 206.879 L-74.832 206.175 L-75.5413 205.47 L-76.2506 204.765 L-76.9598 204.061 L-77.6691 203.356 L-78.3784 202.652 L-79.0877 201.947 L-79.797 201.243 L-80.5062 200.538 L-81.2155 199.834 L-81.9248 199.129 L-82.6341 198.425 L-83.3434 197.72 L-84.0527 197.016 L-84.7619 196.311 L-85.4712 195.606 L-86.1805 194.902 L-86.8898 194.197 L-87.5991 193.493 L-88.3084 192.788 L-89.0177 192.084 L-89.7269 191.379 L-90.4362 190.675 L-91.1455 189.97 L-91.8548 189.266 L-92.5641 188.561 L-93.2734 187.857 L-93.9826 187.152 L-94.6919 186.447 L-95.4012 185.743 L-96.1105 185.038 L-96.8198 184.334 L-97.5291 183.629 L-98.2383 182.925 L-98.9476 182.22 L-99.6569 181.516 L-100.366 180.811 L-101.075 180.107 L-101.785 179.402 L-102.494 178.697 L-103.203 177.993 L-103.913 177.288 L-104.622 176.584 L-105.331 175.879 L-106.04 175.175 L-106.75 174.47 L-107.459 173.766 L-108.168 173.061 L-108.878 172.357 L-109.587 171.652 L-110.296 170.948 L-111.005 170.243 L-111.715 169.538 L-112.424 168.834 L-113.133 168.129 L-113.843 167.425 L-114.552 166.72 L-115.261 166.016 L-115.97 165.311 L-116.68 164.607 L-117.389 163.902 L-118.098 163.198 L-118.808 162.493 L-119.517 161.788 L-120.226 161.084 L-120.935 160.379 L-121.645 159.675 L-122.354 158.97 L-123.063 158.266 L-123.773 157.561 L-124.482 156.857 L-125.191 156.152 L-125.9 155.448 L-126.61 154.743 L-127.319 154.039 L-128.028 153.334 L-128.738 152.629 L-129.447 151.925 L-130.156 151.22 L-130.865 150.516 L-131.575 149.811 L-132.284 149.107 L-132.993 148.402 L-133.703 147.698 L-134.412 146.993 L-135.121 146.289 L-135.83 145.584 L-136.54 144.88 L-137.249 144.175 L-137.958 143.47 L-138.667 142.766 L-139.377 142.061 L-140.086 141.357 L-140.795 140.652 L-141.505 139.948 L-142.214 139.243 L-142.923 138.539 L-143.632 137.834 L-144.342 137.13 L-145.051 136.425 L-145.76 135.72 L-146.47 135.016 L-147.179 134.311 L-147.888 133.607 L-148.597 132.902 L-149.307 132.198 L-150.016 131.493 L-150.725 130.789 L-151.435 130.084 L-152.144 129.38 L-152.853 128.675 L-153.562 127.971 L-154.272 127.266 L-154.981 126.561 L-155.69 125.857 L-156.4 125.152 L-157.109 124.448 L-157.818 123.743 L-158.527 123.039 L-159.237 122.334 L-159.946 121.63 L-160.655 120.925 L-161.365 120.221 L-162.074 119.516 L-162.783 118.811 L-163.492 118.107 L-164.202 117.402 L-164.911 116.698 L-165.54 116.073 L-165.62 115.993 L-166.33 115.289 L-167.039 114.584 L-167.748 113.88 L-168.457 113.175 L-169.167 112.471 L-169.876 111.766 L-170.585 111.062 L-171.295 110.357 L-172.004 109.652 L-172.713 108.948 L-173.422 108.243 L-174.132 107.539 L-174.841 106.834 L-175.55 106.13 L-176.26 105.425 L-176.969 104.721 L-177.678 104.016 L-178.387 103.312 L-179.097 102.607 L-179.806 101.903 L-180.515 101.198 L-181.225 100.493 L-181.934 99.7889 L-182.643 99.0844 L-183.352 98.3798 L-184.062 97.6753 L-184.771 96.9707 L-185.48 96.2662 L-186.19 95.5617 L-186.899 94.8571 L-187.608 94.1526 L-188.317 93.448 L-189.027 92.7435 L-189.736 92.0389 L-190.445 91.3344 L-191.154 90.6299 L-191.864 89.9253 L-192.573 89.2208 L-193.282 88.5162 L-193.992 87.8117 L-194.701 87.1072 L-195.41 86.4026 L-196.119 85.6981 L-196.829 84.9935 L-197.538 84.289 L-198.247 83.5845 L-198.957 82.8799 L-199.666 82.1754 L-200.375 81.4708 L-201.084 80.7663 L-201.794 80.0618 L-202.503 79.3572 L-203.212 78.6527 L-203.922 77.9481 L-204.631 77.2436 L-205.34 76.5391 L-206.049 75.8345 L-206.759 75.13 L-207.468 74.4254 L-208.177 73.7209 L-208.887 73.0163 L-209.596 72.3118 L-210.305 71.6073 L-211.014 70.9027 L-211.724 70.1982 L-212.433 69.4936 L-213.142 68.7891 L-213.852 68.0846 L-214.561 67.38 L-215.27 66.6755 L-215.979 65.9709 L-216.689 65.2664 L-217.398 64.5619 L-218.107 63.8573 L-218.817 63.1528 L-219.526 62.4482 L-220.235 61.7437 L-220.944 61.0391 L-221.654 60.3346 L-222.363 59.6301 L-223.072 58.9255 L-223.782 58.221 L-224.491 57.5164 L-225.2 56.8119 L-225.909 56.1074 L-226.619 55.4028 L-227.328 54.6983 L-228.037 53.9937 L-228.747 53.2892 L-229.456 52.5847 L-230.165 51.8801 L-230.874 51.1756 L-231.584 50.471 L-232.293 49.7665 L-233.002 49.062 L-233.712 48.3574 L-234.421 47.6529 L-235.13 46.9483 L-235.839 46.2438 L-236.549 45.5393 L-237.258 44.8347 L-237.967 44.1302 L-238.676 43.4256 L-239.386 42.7211 L-240.095 42.0165 L-240.804 41.312 L-241.514 40.6075 L-242.223 39.9029 L-242.932 39.1984 L-243.641 38.4938 L-244.351 37.7893 L-244.996 37.1481 L-246.843 35.3138 L-247.188 34.9711 L-247.897 34.2666 L-248.606 33.562 L-249.316 32.8575 L-250.025 32.153 L-250.734 31.4484 L-251.444 30.7439 L-252.153 30.0393 L-252.862 29.3348 L-253.571 28.6303 L-254.281 27.9257 L-254.99 27.2212 L-255.699 26.5166 L-256.409 25.8121 L-257.118 25.1076 L-257.827 24.403 L-258.536 23.6985 L-259.246 22.9939 L-259.955 22.2894 L-260.664 21.5849 L-261.374 20.8803 L-262.083 20.1758 L-262.792 19.4712 L-263.501 18.7667 L-264.211 18.0621 L-264.92 17.3576 L-265.629 16.6531 L-266.339 15.9485 L-267.048 15.244 L-267.757 14.5395 L-268.466 13.8349 L-269.176 13.1304 L-269.885 12.4258 L-270.594 11.7213 L-271.455 10.8661 L-272.013 10.3122 L-272.722 9.60765 L-273.431 8.90312 L-274.055 8.28351 L-274.055 8.28352 L-271.455 10.8661 L-271.304 11.0168 L-270.594 11.7213 L-246.843 35.3138 L-246.479 35.6757 L-245.769 36.3802 L-245.06 37.0848 L-244.996 37.1481 L-165.54 116.073 L-6.49445 274.055 L-6.49444 274.055 L-6.74076 273.81 Z " />
</g>
</g>
</svg>
