<!DOCTYPE svg>
<svg xmlns="http://www.w3.org/2000/svg" xmlns:xlink="http://www.w3.org/1999/xlink" width="800" height="800">
<g transform="translate(400.000000,400.000000)">
<g transform="scale(1.000000,1.000000)">
<path stroke="rgb(0,0,0)" stroke-opacity="1" fill="rgb(200,200,200)" fill-opacity="1" d="M376.439 134.241 L376.439 133.241 L376.439 132.241 L376.439 131.241 L376.439 130.241 L376.439 129.241 L376.439 128.241 L376.439 127.241 L376.439 126.241 L376.439 125.241 L376.439 124.241 L376.439 123.241 L376.439 122.241 L376.439 121.241 L376.439 120.241 L376.439 119.241 L376.439 118.241 L376.439 117.241 L376.439 116.241 L376.439 115.241 L376.439 114.241 L376.439 113.241 L376.439 112.241 L376.439 111.241 L376.439 110.241 L376.439 109.241 L376.439 108.241 L376.439 107.241 L376.439 106.241 L376.439 105.241 L376.439 104.241 L376.439 103.241 L376.439 102.241 L376.439 101.241 L376.439 100.241 L376.439 99.2415 L376.439 98.2415 L376.439 97.2415 L376.439 96.2415 L376.439 95.2415 L376.439 94.2415 L376.439 93.2415 L376.439 92.2415 L376.439 91.2415 L376.439 90.2415 L376.439 89.2415 L376.439 88.2415 L376.439 87.2415 L376.439 86.2415 L376.439 85.2415 L375.439 85.2415 L374.439 85.2415 L373.439 85.2415 L372.439 85.2415 L371.439 85.2415 L370.439 85.2415 L369.439 85.2415 L368.439 85.2415 L367.439 85.2415 L366.439 85.2415 L365.439 85.2415 L364.439 85.2415 L363.439 85.2415 L362.439 85.2415 L361.439 85.2415 L360.439 85.2415 L359.439 85.2415 L358.439 85.2415 L357.439 85.2415 L356.439 85.2415 L355.56 85.2415 L355.56 85.0697 L355.56 84.0697 L355.56 83.0697 L355.56 82.0697 L355.56 81.0697 L355.56 80.0697 L355.56 79.0697 L355.56 78.0697 L355.56 77.0697 L355.56 76.0697 L355.56 75.0697 L355.56 74.0697 L355.56 73.0697 L355.56 72.0697 L355.56 71.0697 L355.56 70.0697 L355.56 69.0697 L355.56 68.0697 L355.56 67.0697 L355.56 66.0697 L355.56 65.0697 L355.56 64.0697 L355.56 63.0697 L355.56 62.0697 L355.56 61.0697 L355.56 60.0697 L355.56 59.0697 L355.56 58.0697 L355.56 57.0697 L355.56 56.0697 L355.56 55.0697 L355.56 54.0697 L355.56 53.0697 L355.56 52.0697 L355.56 51.0697 L355.56 50.0697 L355.56 49.0697 L355.56 48.0697 L355.56 47.0697 L354.56 47.0697 L353.56 47.0697 L352.56 47.0697 L351.56 47.0697 L350.56 47.0697 L349.56 47.0697 L348.56 47.0697 L347.56 47.0697 L346.56 47.0697 L345.56 47.0697 L344.56 47.0697 L343.56 47.0697 L342.56 47.0697 L341.56 47.0697 L340.56 47.0697 L339.56 47.0697 L338.56 47.0697 L337.56 47.0697 L336.56 47.0697 L335.56 47.0697 L334.56 47.0697 L333.56 47.0697 L332.56 47.0697 L331.56 47.0697 L330.56 47.0697 L330.162 47.0697 L330.162 46.3788 L330.162 45.3788 L330.162 44.3788 L330.162 43.3788 L330.162 42.3788 L330.162 41.3788 L330.162 40.3788 L330.162 39.3788 L330.162 38.3788 L330.162 37.3788 L330.162 36.3788 L330.162 35.3788 L330.162 34.3788 L330.162 33.3788 L330.162 32.3788 L330.162 31.3788 L330.162 30.3788 L330.162 29.3788 L330.162 28.3788 L330.162 27.3788 L330.162 26.3788 L330.162 25.3788 L330.162 24.3788 L330.162 23.3788 L330.162 22.3788 L330.162 21.3788 L330.162 20.3788 L330.162 19.3788 L330.162 18.3788 L330.162 17.3788 L330.162 16.3788 L330.162 15.3788 L330.162 14.3788 L330.162 13.468 L330.162 12.468 L330.162 11.468 L330.162 10.468 L330.162 9.46805 L330.162 8.46805 L330.162 7.46805 L330.162 6.46805 L330.162 5.46805 L330.162 4.46805 L330.162 3.46805 L330.162 2.46805 L330.162 1.46805 L330.162 0.46805 L330.162 -0.53194 L330.162 -1.53194 L330.162 -2.53194 L330.162 -3.53194 L330.162 -4.53193 L330.162 -5.53194 L330.162 -6.53194 L330.162 -7.53194 L330.162 -8.06636 L330.932 -8.06636 L331.932 -8.06636 L331.932 -9.06636 L331.932 -10.0664 L331.932 -11.0664 L331.932 -12.0664 L331.932 -13.0664 L331.932 -14.0664 L331.932 -15.0664 L331.932 -16.0664 L331.932 -17.0664 L331.932 -18.0664 L331.932 -19.0664 L331.932 -20.0664 L331.932 -21.0664 L331.932 -22.0664 L331.932 -23.0664 L331.932 -24.0664 L331.932 -25.0664 L331.932 -26.0664 L331.932 -27.0664 L331.932 -28.0664 L331.932 -29.0664 L331.932 -30.0664 L331.932 -31.0664 L331.932 -32.0664 L331.932 -33.0664 L331.932 -34.0664 L331.932 -35.0664 L331.932 -36.0664 L331.932 -37.0664 L331.932 -38.0664 L331.932 -39.0664 L331.932 -40.0664 L331.932 -41.0664 L331.932 -42.0664 L331.932 -42.3867 L332.195 -42.3867 L333.195 -42.3867 L334.195 -42.3867 L335.195 -42.3867 L336.195 -42.3867 L337.195 -42.3867 L338.195 -42.3867 L339.195 -42.3867 L340.195 -42.3867 L341.195 -42.3867 L342.195 -42.3867 L343.195 -42.3867 L344.195 -42.3867 L345.195 -42.3867 L346.195 -42.3867 L347.195 -42.3867 L348.195 -42.3867 L349.195 -42.3867 L350.195 -42.3867 L351.195 -42.3867 L352.195 -42.3867 L353.195 -42.3867 L354.195 -42.3867 L355.195 -42.3867 L356.195 -42.3867 L357.195 -42.3867 L358.195 -42.3867 L358.195 -43.3867 L358.195 -44.3867 L358.195 -45.3867 L358.195 -46.3867 L358.195 -47.3867 L358.195 -48.3867 L358.195 -49.3867 L358.195 -50.3867 L358.195 -51.3867 L358.195 -52.3867 L358.195 -53.3867 L358.195 -54.3867 L358.195 -55.3867 L358.195 -56.3867 L358.195 -57.3867 L358.195 -58.3867 L358.195 -59.3867 L358.195 -60.3867 L358.195 -61.3867 L358.195 -62.3867 L358.195 -63.3867 L358.195 -64.3867 L358.195 -65.3867 L358.195 -66.3867 L358.195 -67.3867 L358.195 -68.3867 L358.195 -69.3867 L358.195 -70.3867 L358.195 -71.3867 L358.195 -72.3867 L358.195 -73.3867 L358.195 -74.3867 L358.195 -75.3867 L358.195 -76.3867 L358.195 -77.3867 L358.195 -78.3867 L358.195 -79.3867 L358.195 -80.3867 L358.195 -81.3867 L358.195 -82.3867 L358.195 -83.3867 L358.195 -84.3867 L358.195 -85.3867 L358.195 -86.3867 L358.195 -86.91 L358.345 -86.91 L359.345 -86.91 L360.345 -86.91 L361.345 -86.91 L362.345 -86.91 L363.345 -86.91 L364.345 -86.91 L365.345 -86.91 L366.345 -86.91 L367.345 -86.91 L368.345 -86.91 L369.345 -86.91 L370.345 -86.91 L371.345 -86.91 L372.345 -86.91 L373.345 -86.91 L374.345 -86.91 L375.345 -86.91 L375.345 -87.91 L375.345 -88.91 L375.345 -89.91 L375.345 -90.91 L375.345 -91.91 L375.345 -92.91 L375.345 -93.91 L375.345 -94.91 L375.345 -95.91 L375.345 -96.91 L375.345 -97.91 L375.345 -98.91 L375.345 -99.91 L375.345 -100.91 L375.345 -101.91 L375.345 -102.91 L375.345 -103.91 L375.345 -104.91 L375.345 -105.91 L375.345 -106.91 L375.345 -107.91 L375.345 -108.91 L375.345 -109.91 L375.345 -110.91 L375.345 -111.91 L375.345 -112.91 L375.345 -113.91 L375.345 -114.91 L375.345 -115.91 L375.345 -116.91 L375.345 -117.91 L375.345 -118.91 L375.345 -119.91 L375.345 -120.91 L375.345 -121.91 L375.345 -122.91 L375.345 -123.91 L375.345 -124.91 L375.345 -125.91 L375.345 -126.91 L375.345 -127.91 L375.345 -128.91 L375.345 -129.91 L375.345 -130.91 L375.345 -131.91 L375.345 -132.91 L375.345 -133.91 L375.345 -134.91 L375.345 -135.91 L375.345 -136.91 L374.345 -136.91 L373.345 -136.91 L372.345 -136.91 L371.345 -136.91 L370.345 -136.91 L369.345 -136.91 L368.345 -136.91 L367.345 -136.91 L366.345 -136.91 L365.345 -136.91 L364.345 -136.91 L363.345 -136.91 L362.345 -136.91 L361.345 -136.91 L360.345 -136.91 L359.345 -136.91 L358.345 -136.91 L357.345 -136.91 L356.345 -136.91 L355.345 -136.91 L354.345 -136.91 L353.345 -136.91 L352.345 -136.91 L351.345 -136.91 L350.345 -136.91 L349.345 -136.91 L348.345 -136.91 L347.345 -136.91 L346.345 -136.91 L345.345 -136.91 L344.345 -136.91 L343.345 -136.91 L342.345 -136.91 L341.345 -136.91 L340.345 -136.91 L339.345 -136.91 L338.345 -136.91 L337.345 -136.91 L336.345 -136.91 L335.345 -136.91 L334.345 -136.91 L333.345 -136.91 L332.345 -136.91 L331.345 -136.91 L330.345 -136.91 L329.345 -136.91 L328.345 -136.91 L327.345 -136.91 L326.345 -136.91 L325.345 -136.91 L325.345 -135.91 L325.345 -134.91 L325.345 -133.91 L325.345 -132.91 L325.345 -131.91 L325.345 -130.91 L325.345 -129.91 L325.345 -128.91 L325.345 -127.91 L325.345 -126.91 L325.345 -125.91 L325.345 -124.91 L325.345 -123.91 L325.345 -122.91 L325.345 -121.91 L325.345 -120.91 L325.345 -119.91 L325.345 -118.91 L325.345 -117.91 L325.345 -116.91 L325.345 -115.91 L325.345 -114.91 L325.345 -113.91 L325.345 -112.91 L325.345 -111.91 L325.345 -110.91 L325.345 -109.91 L325.345 -108.91 L325.345 -107.91 L325.345 -106.91 L325.345 -105.91 L325.345 -104.91 L325.345 -103.91 L325.345 -102.91 L325.345 -101.91 L325.345 -100.91 L325.345 -99.91 L325.345 -98.91 L325.345 -97.91 L325.345 -96.91 L325.345 -95.91 L325.345 -94.91 L325.345 -93.91 L325.345 -92.91 L325.345 -92.3867 L325.195 -92.3867 L324.195 -92.3867 L323.195 -92.3867 L322.195 -92.3867 L321.195 -92.3867 L320.195 -92.3867 L319.195 -92.3867 L318.195 -92.3867 L317.195 -92.3867 L316.195 -92.3867 L315.195 -92.3867 L314.195 -92.3867 L313.195 -92.3867 L312.195 -92.3867 L311.195 -92.3867 L310.195 -92.3867 L309.195 -92.3867 L308.195 -92.3867 L308.195 -91.3867 L308.195 -90.3867 L308.195 -89.3867 L308.195 -88.3867 L308.195 -87.3867 L308.195 -86.3867 L308.195 -85.3867 L308.195 -84.3867 L308.195 -83.3867 L308.195 -82.3867 L308.195 -81.3867 L308.195 -80.3867 L308.195 -79.3867 L308.195 -78.3867 L308.195 -77.3867 L308.195 -76.3867 L308.195 -75.3867 L308.195 -74.3867 L308.195 -73.3867 L308.195 -72.3867 L308.195 -71.3867 L308.195 -70.3867 L308.195 -69.3867 L308.195 -68.3867 L308.195 -67.3867 L308.195 -66.3867 L308.195 -65.3867 L308.195 -64.3867 L308.195 -63.3867 L308.195 -62.3867 L308.195 -61.3867 L308.195 -60.3867 L308.195 -59.3867 L308.195 -58.3867 L308.195 -58.0664 L307.932 -58.0664 L306.932 -58.0664 L305.932 -58.0664 L304.932 -58.0664 L303.932 -58.0664 L302.932 -58.0664 L301.932 -58.0664 L300.932 -58.0664 L299.932 -58.0664 L298.932 -58.0664 L297.932 -58.0664 L296.932 -58.0664 L295.932 -58.0664 L294.932 -58.0664 L293.932 -58.0664 L292.932 -58.0664 L291.932 -58.0664 L290.932 -58.0664 L289.932 -58.0664 L288.932 -58.0664 L287.932 -58.0664 L286.932 -58.0664 L285.932 -58.0664 L284.932 -58.0664 L283.932 -58.0664 L282.932 -58.0664 L281.932 -58.0664 L281.932 -57.0664 L281.932 -56.0664 L281.932 -55.0664 L281.932 -54.0664 L281.932 -53.0664 L281.932 -52.0664 L281.932 -51.0664 L281.932 -50.0664 L281.932 -49.0664 L281.932 -48.0664 L281.932 -47.0664 L281.932 -46.0664 L281.932 -45.0664 L281.932 -44.0664 L281.932 -43.0664 L281.932 -42.0664 L281.932 -41.0664 L281.932 -40.0664 L281.932 -39.0664 L281.932 -38.0664 L281.932 -37.0664 L281.932 -36.0664 L281.932 -35.0664 L281.932 -34.0664 L281.932 -33.0664 L281.932 -32.0664 L281.932 -31.0664 L281.932 -30.0664 L281.932 -29.0664 L281.932 -28.0664 L281.932 -27.0664 L281.932 -26.0664 L281.932 -25.0664 L281.932 -24.0664 L281.932 -23.5319 L281.162 -23.5319 L280.162 -23.5319 L280.162 -22.5319 L280.162 -21.5319 L280.162 -20.5319 L280.162 -19.5319 L280.162 -18.5319 L280.162 -17.5319 L280.162 -16.5319 L280.162 -15.5319 L280.162 -14.5319 L280.162 -13.5319 L280.162 -12.5319 L280.162 -11.5319 L280.162 -10.5319 L280.162 -9.53194 L280.162 -8.53194 L280.162 -7.53194 L280.162 -6.53194 L280.162 -5.53194 L280.162 -4.53193 L280.162 -3.53194 L280.162 -2.53194 L280.162 -1.53194 L280.162 -0.53194 L280.162 0.46805 L280.162 1.46805 L280.162 2.46805 L280.162 3.46805 L280.162 4.46805 L280.162 5.46805 L280.162 6.46805 L280.162 7.46805 L280.162 8.46805 L280.162 9.46805 L280.162 10.468 L280.162 11.468 L280.162 12.468 L280.162 13.468 L280.162 14.468 L280.162 15.468 L280.162 16.4681 L280.162 17.4681 L280.162 18.4681 L280.162 19.4681 L280.162 20.4681 L280.162 21.4681 L280.162 22.4681 L280.162 23.4681 L280.162 24.4681 L280.162 25.4681 L280.162 26.4681 L280.162 27.3788 L280.162 28.3788 L280.162 29.3788 L280.162 30.3788 L280.162 31.3788 L280.162 32.3788 L280.162 33.3788 L280.162 34.3788 L280.162 35.3788 L280.162 36.3788 L280.162 37.3788 L280.162 38.3788 L280.162 39.3788 L280.162 40.3788 L280.162 41.3788 L280.162 42.3788 L280.162 43.3788 L280.162 44.3788 L280.162 45.3788 L280.162 46.3788 L280.162 47.3788 L280.162 48.3788 L280.162 49.3788 L280.162 50.3788 L280.162 51.3788 L280.162 52.3788 L280.162 53.3788 L280.162 54.3788 L280.162 55.3788 L280.162 56.3788 L280.162 57.3788 L280.162 58.3788 L280.162 59.3788 L280.162 60.3788 L280.162 61.3788 L280.162 62.3788 L280.162 63.3788 L280.162 64.3788 L281.162 64.3788 L282.162 64.3788 L283.162 64.3788 L284.162 64.3788 L285.162 64.3788 L286.162 64.3788 L287.162 64.3788 L288.162 64.3788 L289.162 64.3788 L290.162 64.3788 L291.162 64.3788 L292.162 64.3788 L293.162 64.3788 L294.162 64.3788 L295.162 64.3788 L296.162 64.3788 L297.162 64.3788 L298.162 64.3788 L299.162 64.3788 L300.162 64.3788 L301.162 64.3788 L302.162 64.3788 L303.162 64.3788 L304.162 64.3788 L305.162 64.3788 L305.56 64.3788 L305.56 65.0697 L305.56 66.0697 L305.56 67.0697 L305.56 68.0697 L305.56 69.0697 L305.56 70.0697 L305.56 71.0697 L305.56 72.0697 L305.56 73.0697 L305.56 74.0697 L305.56 75.0697 L305.56 76.0697 L305.56 77.0697 L305.56 78.0697 L305.56 79.0697 L305.56 80.0697 L305.56 81.0697 L305.56 82.0697 L305.56 83.0697 L305.56 84.0697 L305.56 85.0697 L305.56 86.0697 L305.56 87.0697 L305.56 88.0697 L305.56 89.0697 L305.56 90.0697 L305.56 91.0697 L305.56 92.0697 L305.56 93.0697 L305.56 94.0697 L305.56 95.0697 L305.56 96.0697 L305.56 97.0697 L306.56 97.0697 L307.56 97.0697 L308.56 97.0697 L309.56 97.0697 L310.56 97.0697 L311.56 97.0697 L312.56 97.0697 L313.56 97.0697 L314.56 97.0697 L315.56 97.0697 L316.56 97.0697 L317.56 97.0697 L318.56 97.0697 L319.56 97.0697 L320.56 97.0697 L321.56 97.0697 L322.56 97.0697 L323.56 97.0697 L324.56 97.0697 L325.56 97.0697 L326.439 97.0697 L326.439 97.2415 L326.439 98.2415 L326.439 99.2415 L326.439 100.241 L326.439 101.241 L326.439 102.241 L326.439 103.241 L326.439 104.241 L326.439 105.241 L326.439 106.241 L326.439 107.241 L326.439 108.241 L326.439 109.241 L326.439 110.241 L326.439 111.241 L326.439 112.241 L326.439 113.241 L326.439 114.241 L326.439 115.241 L326.439 116.241 L326.439 117.241 L326.439 118.241 L326.439 119.241 L326.439 120.241 L326.439 121.241 L326.439 122.241 L326.439 123.241 L326.439 124.241 L326.439 125.241 L326.439 126.241 L326.439 127.241 L326.439 128.241 L326.439 129.241 L326.439 130.241 L326.439 131.241 L326.439 132.241 L326.439 133.241 L326.439 134.241 L326.439 135.241 L327.439 135.241 L328.439 135.241 L329.439 135.241 L330.439 135.241 L331.439 135.241 L332.439 135.241 L333.439 135.241 L334.439 135.241 L335.439 135.241 L336.439 135.241 L337.439 135.241 L338.439 135.241 L339.439 135.241 L340.439 135.241 L341.439 135.241 L342.439 135.241 L343.439 135.241 L344.439 135.241 L345.439 135.241 L346.439 135.241 L347.439 135.241 L348.439 135.241 L349.439 135.241 L350.439 135.241 L351.439 135.241 L352.439 135.241 L353.439 135.241 L354.439 135.241 L355.439 135.241 L356.439 135.241 L357.439 135.241 L358.439 135.241 L359.439 135.241 L360.439 135.241 L361.439 135.241 L362.439 135.241 L363.439 135.241 L364.439 135.241 L365.439 135.241 L366.439 135.241 L367.439 135.241 L368.439 135.241 L369.439 135.241 L370.439 135.241 L371.439 135.241 L372.439 135.241 L373.439 135.241 L374.439 135.241 L375.439 135.241 L376.439 135.241 L376.439 134.241 Z " />
<path stroke="rgb(0,0,0)" stroke-opacity="1" fill="rgb(200,200,200)" fill-opacity="1" d="M-226.416 18.868 L-226.416 19.6227 L-226.416 20.3774 L-226.416 21.1321 L-226.416 21.8868 L-226.416 22.6416 L-226.416 23.3963 L-226.416 24.151 L-226.416 24.9057 L-226.416 25.6605 L-226.416 26.4152 L-226.416 27.1699 L-226.416 27.9246 L-226.416 28.6793 L-226.416 29.434 L-226.416 30.1888 L-226.416 30.9435 L-226.416 31.6982 L-226.416 32.4529 L-226.416 33.2076 L-226.416 33.9624 L-226.416 34.7171 L-226.416 35.4718 L-226.416 36.2265 L-226.416 36.9812 L-226.416 37.736 L-226.416 38.4907 L-226.416 39.2454 L-226.416 40.0001 L-226.416 40.7548 L-226.416 41.5096 L-226.416 42.2643 L-226.416 43.019 L-226.416 43.7737 L-226.416 44.5284 L-226.416 45.2831 L-226.416 46.0379 L-226.416 46.7926 L-226.416 47.5473 L-226.416 48.302 L-226.416 49.0568 L-226.416 49.8115 L-226.416 50.5662 L-226.416 51.3209 L-226.416 52.0756 L-226.416 52.8304 L-226.416 53.5851 L-226.416 54.3398 L-226.416 55.0945 L-226.416 55.8492 L-226.416 56.6039 L-226.416 57.3587 L-226.416 58.1134 L-226.416 58.8681 L-226.416 59.6228 L-226.416 60.3775 L-226.416 61.1323 L-226.416 61.887 L-226.416 62.6417 L-226.416 63.3964 L-226.416 64.1511 L-226.416 64.9059 L-226.416 65.6606 L-226.416 66.4153 L-226.416 67.17 L-226.416 67.9247 L-226.416 68.6795 L-226.416 69.4342 L-226.416 70.1889 L-226.416 70.9436 L-226.416 71.6983 L-226.416 72.4531 L-226.416 73.2078 L-226.416 73.9625 L-226.416 74.7172 L-226.416 75.4719 L-226.416 76.2266 L-226.416 76.9814 L-226.416 77.7361 L-226.416 78.4908 L-226.416 79.2455 L-226.416 80.0002 L-226.416 80.755 L-226.416 81.5097 L-226.416 82.2644 L-226.416 83.0191 L-226.416 83.7738 L-226.416 84.5286 L-226.416 85.2833 L-226.416 86.038 L-226.416 86.7927 L-226.416 87.5474 L-226.416 88.3021 L-226.416 89.0569 L-226.416 89.8116 L-226.416 90.5663 L-226.416 91.321 L-226.416 92.0757 L-226.416 92.8305 L-226.416 93.5852 L-226.416 94.3399 L-226.416 95.0946 L-226.416 95.8493 L-226.416 96.6041 L-226.416 97.3588 L-226.416 98.1135 L-226.416 98.8682 L-226.416 99.6229 L-226.416 100.378 L-226.416 101.132 L-226.416 101.887 L-226.416 102.642 L-226.416 103.397 L-226.416 104.151 L-226.416 104.906 L-226.416 105.661 L-226.416 106.415 L-226.416 107.17 L-226.416 107.925 L-226.416 108.68 L-226.416 109.434 L-226.416 110.189 L-226.416 110.944 L-226.416 111.698 L-226.416 112.453 L-226.416 113.208 L-226.416 113.963 L-226.416 114.717 L-226.416 115.472 L-226.416 116.227 L-226.416 116.981 L-226.416 117.736 L-226.416 118.491 L-226.416 119.246 L-226.416 120 L-226.416 120.755 L-226.416 121.51 L-226.416 122.265 L-226.416 123.019 L-226.416 123.774 L-226.416 124.529 L-226.416 125.283 L-226.416 126.038 L-226.416 126.793 L-226.416 127.548 L-226.416 128.302 L-226.416 129.057 L-226.416 129.812 L-226.416 130.566 L-226.416 131.321 L-226.416 132.076 L-226.416 132.831 L-226.416 133.585 L-226.416 134.34 L-226.416 135.095 L-226.416 135.849 L-226.416 136.604 L-226.416 137.359 L-226.416 138.114 L-226.416 138.868 L-226.416 139.623 L-226.416 140.378 L-226.416 141.132 L-226.416 141.887 L-226.416 142.642 L-226.416 143.397 L-226.416 144.151 L-226.416 144.906 L-226.416 145.661 L-226.416 146.416 L-226.416 147.17 L-226.416 147.925 L-226.416 148.68 L-226.416 149.434 L-226.416 150.189 L-226.416 150.944 L-226.416 151.699 L-226.416 152.453 L-226.416 153.208 L-226.416 153.963 L-226.416 154.717 L-226.416 155.472 L-226.416 156.227 L-226.416 156.982 L-226.416 157.736 L-226.416 158.491 L-226.416 159.246 L-226.416 160 L-226.416 160.755 L-226.416 161.51 L-226.416 162.265 L-226.416 163.019 L-226.416 163.774 L-226.416 164.529 L-226.416 165.284 L-226.416 166.038 L-226.416 166.793 L-226.416 167.548 L-226.416 168.302 L-226.416 169.057 L-226.416 169.812 L-226.416 170.567 L-226.416 171.321 L-226.416 172.076 L-226.416 172.831 L-226.416 173.585 L-226.416 174.34 L-226.416 175.095 L-226.416 175.85 L-226.416 176.604 L-226.416 177.359 L-226.416 178.114 L-226.416 178.868 L-226.416 179.623 L-226.416 180.378 L-226.416 181.133 L-226.416 181.887 L-226.416 182.642 L-226.416 183.397 L-226.416 184.151 L-226.416 184.906 L-226.416 185.661 L-226.416 186.416 L-226.416 187.17 L-226.416 187.925 L-226.416 188.68 L-226.416 189.435 L-226.416 190.189 L-226.416 190.944 L-226.416 191.699 L-226.416 192.453 L-226.416 193.208 L-226.416 193.963 L-226.416 194.718 L-226.416 195.472 L-226.416 196.227 L-226.416 196.982 L-226.416 197.736 L-226.416 198.491 L-226.416 199.246 L-226.416 200.001 L-226.416 200.755 L-226.416 201.51 L-226.416 202.265 L-226.416 203.019 L-226.416 203.774 L-226.416 204.529 L-226.416 205.284 L-226.416 206.038 L-226.416 206.793 L-226.416 207.548 L-226.416 208.303 L-226.416 209.057 L-226.416 209.812 L-226.416 210.567 L-226.416 211.321 L-226.416 212.076 L-226.416 212.831 L-226.416 213.586 L-226.416 214.34 L-226.416 215.095 L-226.416 215.85 L-226.416 216.604 L-226.416 217.359 L-226.416 218.114 L-226.416 218.869 L-226.416 219.623 L-226.416 220.378 L-226.416 221.133 L-226.416 221.887 L-226.416 222.642 L-226.416 223.397 L-226.416 224.152 L-226.416 224.906 L-226.416 225.661 L-226.416 226.416 L-225.661 226.416 L-224.906 226.416 L-224.152 226.416 L-223.397 226.416 L-222.642 226.416 L-221.887 226.416 L-221.133 226.416 L-220.378 226.416 L-219.623 226.416 L-218.869 226.416 L-218.114 226.416 L-217.359 226.416 L-216.604 226.416 L-215.85 226.416 L-215.095 226.416 L-214.34 226.416 L-213.586 226.416 L-212.831 226.416 L-212.076 226.416 L-211.321 226.416 L-210.567 226.416 L-209.812 226.416 L-209.057 226.416 L-208.303 226.416 L-207.548 226.416 L-206.793 226.416 L-206.038 226.416 L-205.284 226.416 L-204.529 226.416 L-203.774 226.416 L-203.019 226.416 L-202.265 226.416 L-201.51 226.416 L-200.755 226.416 L-200.001 226.416 L-199.246 226.416 L-198.491 226.416 L-197.736 226.416 L-196.982 226.416 L-196.227 226.416 L-195.472 226.416 L-194.718 226.416 L-193.963 226.416 L-193.208 226.416 L-192.453 226.416 L-191.699 226.416 L-190.944 226.416 L-190.189 226.416 L-189.435 226.416 L-188.68 226.416 L-187.925 226.416 L-187.17 226.416 L-186.416 226.416 L-185.661 226.416 L-184.906 226.416 L-184.151 226.416 L-183.397 226.416 L-182.642 226.416 L-181.887 226.416 L-181.133 226.416 L-180.378 226.416 L-179.623 226.416 L-178.868 226.416 L-178.114 226.416 L-177.359 226.416 L-176.604 226.416 L-175.85 226.416 L-175.095 226.416 L-174.34 226.416 L-173.585 226.416 L-172.831 226.416 L-172.076 226.416 L-171.321 226.416 L-170.567 226.416 L-169.812 226.416 L-169.057 226.416 L-168.302 226.416 L-167.548 226.416 L-166.793 226.416 L-166.038 226.416 L-165.284 226.416 L-164.529 226.416 L-163.774 226.416 L-163.019 226.416 L-162.265 226.416 L-161.51 226.416 L-160.755 226.416 L-160 226.416 L-159.246 226.416 L-158.491 226.416 L-157.736 226.416 L-156.982 226.416 L-156.227 226.416 L-155.472 226.416 L-154.717 226.416 L-153.963 226.416 L-153.208 226.416 L-152.453 226.416 L-151.699 226.416 L-150.944 226.416 L-150.189 226.416 L-149.434 226.416 L-148.68 226.416 L-147.925 226.416 L-147.17 226.416 L-146.416 226.416 L-145.661 226.416 L-144.906 226.416 L-144.151 226.416 L-143.397 226.416 L-142.642 226.416 L-141.887 226.416 L-141.132 226.416 L-140.378 226.416 L-139.623 226.416 L-138.868 226.416 L-138.114 226.416 L-137.359 226.416 L-136.604 226.416 L-135.849 226.416 L-135.095 226.416 L-134.34 226.416 L-133.585 226.416 L-132.831 226.416 L-132.076 226.416 L-131.321 226.416 L-130.566 226.416 L-129.812 226.416 L-129.057 226.416 L-128.302 226.416 L-127.548 226.416 L-126.793 226.416 L-126.038 226.416 L-125.283 226.416 L-124.529 226.416 L-123.774 226.416 L-123.019 226.416 L-122.265 226.416 L-121.51 226.416 L-120.755 226.416 L-120 226.416 L-119.246 226.416 L-118.491 226.416 L-117.736 226.416 L-116.981 226.416 L-116.227 226.416 L-115.472 226.416 L-114.717 226.416 L-113.963 226.416 L-113.208 226.416 L-112.453 226.416 L-111.698 226.416 L-110.944 226.416 L-110.189 226.416 L-109.434 226.416 L-108.68 226.416 L-107.925 226.416 L-107.17 226.416 L-106.415 226.416 L-105.661 226.416 L-104.906 226.416 L-104.151 226.416 L-103.397 226.416 L-102.642 226.416 L-101.887 226.416 L-101.132 226.416 L-100.378 226.416 L-99.6229 226.416 L-98.8682 226.416 L-98.1135 226.416 L-97.3588 226.416 L-96.6041 226.416 L-95.8493 226.416 L-95.0946 226.416 L-94.3399 226.416 L-93.5852 226.416 L-92.8305 226.416 L-92.0757 226.416 L-91.321 226.416 L-90.5663 226.416 L-89.8116 226.416 L-89.0569 226.416 L-88.3021 226.416 L-87.5474 226.416 L-86.7927 226.416 L-86.038 226.416 L-85.2833 226.416 L-84.5286 226.416 L-83.7738 226.416 L-83.0191 226.416 L-82.2644 226.416 L-81.5097 226.416 L-80.755 226.416 L-80.0002 226.416 L-79.2455 226.416 L-78.4908 226.416 L-77.7361 226.416 L-76.9814 226.416 L-76.2266 226.416 L-75.4719 226.416 L-74.7172 226.416 L-73.9625 226.416 L-73.2078 226.416 L-72.4531 226.416 L-71.6983 226.416 L-70.9436 226.416 L-70.1889 226.416 L-69.4342 226.416 L-68.6795 226.416 L-67.9247 226.416 L-67.17 226.416 L-66.4153 226.416 L-65.6606 226.416 L-64.9059 226.416 L-64.1511 226.416 L-63.3964 226.416 L-62.6417 226.416 L-61.887 226.416 L-61.1323 226.416 L-60.3775 226.416 L-59.6228 226.416 L-58.8681 226.416 L-58.1134 226.416 L-57.3587 226.416 L-56.6039 226.416 L-55.8492 226.416 L-55.0945 226.416 L-54.3398 226.416 L-53.5851 226.416 L-52.8304 226.416 L-52.0756 226.416 L-51.3209 226.416 L-50.5662 226.416 L-49.8115 226.416 L-49.0568 226.416 L-48.302 226.416 L-47.5473 226.416 L-46.7926 226.416 L-46.0379 226.416 L-45.2831 226.416 L-44.5284 226.416 L-43.7737 226.416 L-43.019 226.416 L-42.2643 226.416 L-41.5096 226.416 L-40.7548 226.416 L-40.0001 226.416 L-39.2454 226.416 L-38.4907 226.416 L-37.736 226.416 L-36.9812 226.416 L-36.2265 226.416 L-35.4718 226.416 L-34.7171 226.416 L-33.9624 226.416 L-33.2076 226.416 L-32.4529 226.416 L-31.6982 226.416 L-30.9435 226.416 L-30.1888 226.416 L-29.434 226.416 L-28.6793 226.416 L-27.9246 226.416 L-27.1699 226.416 L-26.4152 226.416 L-25.6605 226.416 L-24.9057 226.416 L-24.151 226.416 L-23.3963 226.416 L-22.6416 226.416 L-21.8868 226.416 L-21.1321 226.416 L-20.3774 226.416 L-19.6227 226.416 L-18.868 226.416 L-18.1133 226.416 L-17.3585 226.416 L-16.6038 226.416 L-15.8491 226.416 L-15.0944 226.416 L-14.3397 226.416 L-13.5849 226.416 L-12.8302 226.416 L-12.0755 226.416 L-11.3208 226.416 L-10.5661 226.416 L-9.81134 226.416 L-9.05663 226.416 L-8.30191 226.416 L-7.54719 226.416 L-6.79247 226.416 L-6.03775 226.416 L-5.28303 226.416 L-4.52831 226.416 L-3.77359 226.416 L-3.01887 226.416 L-2.26415 226.416 L-1.50943 226.416 L-0.75471 226.416 L0 226.416 L0.75471 226.416 L1.50943 226.416 L2.26415 226.416 L3.01887 226.416 L3.77359 226.416 L4.52831 226.416 L5.28303 226.416 L6.03775 226.416 L6.79247 226.416 L7.54719 226.416 L8.30191 226.416 L9.05663 226.416 L9.81134 226.416 L10.5661 226.416 L11.3208 226.416 L12.0755 226.416 L12.8302 226.416 L13.5849 226.416 L14.3397 226.416 L15.0944 226.416 L15.8491 226.416 L16.6038 226.416 L17.3585 226.416 L18.1133 226.416 L18.868 226.416 L19.6227 226.416 L20.3774 226.416 L21.1321 226.416 L21.8868 226.416 L22.6416 226.416 L23.3963 226.416 L24.151 226.416 L24.9057 226.416 L25.6605 226.416 L26.4152 226.416 L27.1699 226.416 L27.9246 226.416 L28.6793 226.416 L29.434 226.416 L30.1888 226.416 L30.9435 226.416 L31.6982 226.416 L32.4529 226.416 L33.2076 226.416 L33.9624 226.416 L34.7171 226.416 L35.4718 226.416 L36.2265 226.416 L36.9812 226.416 L37.736 226.416 L38.4907 226.416 L39.2454 226.416 L40.0001 226.416 L40.7548 226.416 L41.5096 226.416 L42.2643 226.416 L43.019 226.416 L43.7737 226.416 L44.5284 226.416 L45.2831 226.416 L46.0379 226.416 L46.7926 226.416 L47.5473 226.416 L48.302 226.416 L49.0568 226.416 L49.8115 226.416 L50.5662 226.416 L51.3209 226.416 L52.0756 226.416 L52.8304 226.416 L53.5851 226.416 L54.3398 226.416 L55.0945 226.416 L55.8492 226.416 L56.6039 226.416 L57.3587 226.416 L58.1134 226.416 L58.8681 226.416 L59.6228 226.416 L60.3775 226.416 L61.1323 226.416 L61.887 226.416 L62.6417 226.416 L63.3964 226.416 L64.1511 226.416 L64.9059 226.416 L65.6606 226.416 L66.4153 226.416 L67.17 226.416 L67.9247 226.416 L68.6795 226.416 L69.4342 226.416 L70.1889 226.416 L70.9436 226.416 L71.6983 226.416 L72.4531 226.416 L73.2078 226.416 L73.9625 226.416 L74.7172 226.416 L75.4719 226.416 L76.2266 226.416 L76.9814 226.416 L77.7361 226.416 L78.4908 226.416 L79.2455 226.416 L80.0002 226.416 L80.755 226.416 L81.5097 226.416 L82.2644 226.416 L83.0191 226.416 L83.7738 226.416 L84.5286 226.416 L85.2833 226.416 L86.038 226.416 L86.7927 226.416 L87.5474 226.416 L88.3021 226.416 L89.0569 226.416 L89.8116 226.416 L90.5663 226.416 L91.321 226.416 L92.0757 226.416 L92.8305 226.416 L93.5852 226.416 L94.3399 226.416 L95.0946 226.416 L95.8493 226.416 L96.6041 226.416 L97.3588 226.416 L98.1135 226.416 L98.8682 226.416 L99.6229 226.416 L100.378 226.416 L101.132 226.416 L101.887 226.416 L102.642 226.416 L103.397 226.416 L104.151 226.416 L104.906 226.416 L105.661 226.416 L106.415 226.416 L107.17 226.416 L107.925 226.416 L108.68 226.416 L109.434 226.416 L110.189 226.416 L110.944 226.416 L111.698 226.416 L112.453 226.416 L113.208 226.416 L113.963 226.416 L114.717 226.416 L115.472 226.416 L116.227 226.416 L116.981 226.416 L117.736 226.416 L118.491 226.416 L119.246 226.416 L120 226.416 L120.755 226.416 L121.51 226.416 L122.265 226.416 L123.019 226.416 L123.774 226.416 L124.529 226.416 L125.283 226.416 L126.038 226.416 L126.793 226.416 L127.548 226.416 L128.302 226.416 L129.057 226.416 L129.812 226.416 L130.566 226.416 L131.321 226.416 L132.076 226.416 L132.831 226.416 L133.585 226.416 L134.34 226.416 L135.095 226.416 L135.849 226.416 L136.604 226.416 L137.359 226.416 L138.114 226.416 L138.868 226.416 L139.623 226.416 L140.378 226.416 L141.132 226.416 L141.887 226.416 L142.642 226.416 L143.397 226.416 L144.151 226.416 L144.906 226.416 L145.661 226.416 L146.416 226.416 L147.17 226.416 L147.925 226.416 L148.68 226.416 L149.434 226.416 L150.189 226.416 L150.944 226.416 L151.699 226.416 L152.453 226.416 L153.208 226.416 L153.963 226.416 L154.717 226.416 L155.472 226.416 L156.227 226.416 L156.982 226.416 L157.736 226.416 L158.491 226.416 L159.246 226.416 L160 226.416 L160.755 226.416 L161.51 226.416 L162.265 226.416 L163.019 226.416 L163.774 226.416 L164.529 226.416 L165.284 226.416 L166.038 226.416 L166.793 226.416 L167.548 226.416 L168.302 226.416 L169.057 226.416 L169.812 226.416 L170.567 226.416 L171.321 226.416 L172.076 226.416 L172.831 226.416 L173.585 226.416 L174.34 226.416 L175.095 226.416 L175.85 226.416 L176.604 226.416 L177.359 226.416 L178.114 226.416 L178.868 226.416 L179.623 226.416 L180.378 226.416 L181.133 226.416 L181.887 226.416 L182.642 226.416 L183.397 226.416 L184.151 226.416 L184.906 226.416 L185.661 226.416 L186.416 226.416 L187.17 226.416 L187.925 226.416 L188.68 226.416 L189.435 226.416 L190.189 226.416 L190.944 226.416 L191.699 226.416 L192.453 226.416 L193.208 226.416 L193.963 226.416 L194.718 226.416 L195.472 226.416 L196.227 226.416 L196.982 226.416 L197.736 226.416 L198.491 226.416 L199.246 226.416 L200.001 226.416 L200.755 226.416 L201.51 226.416 L202.265 226.416 L203.019 226.416 L203.774 226.416 L204.529 226.416 L205.284 226.416 L206.038 226.416 L206.793 226.416 L207.548 226.416 L208.303 226.416 L209.057 226.416 L209.812 226.416 L210.567 226.416 L211.321 226.416 L212.076 226.416 L212.831 226.416 L213.586 226.416 L214.34 226.416 L215.095 226.416 L215.85 226.416 L216.604 226.416 L217.359 226.416 L218.114 226.416 L218.869 226.416 L219.623 226.416 L220.378 226.416 L221.133 226.416 L221.887 226.416 L222.642 226.416 L223.397 226.416 L224.152 226.416 L224.906 226.416 L225.661 226.416 L226.416 226.416 L226.416 225.661 L226.416 224.906 L226.416 224.152 L226.416 223.397 L226.416 222.642 L226.416 221.887 L226.416 221.133 L226.416 220.378 L226.416 219.623 L226.416 218.869 L226.416 218.114 L226.416 217.359 L226.416 216.604 L226.416 215.85 L226.416 215.095 L226.416 214.34 L226.416 213.586 L226.416 212.831 L226.416 212.076 L226.416 211.321 L226.416 210.567 L226.416 209.812 L226.416 209.057 L226.416 208.303 L226.416 207.548 L226.416 206.793 L226.416 206.038 L226.416 205.284 L226.416 204.529 L226.416 203.774 L226.416 203.019 L226.416 202.265 L226.416 201.51 L226.416 200.755 L226.416 200.001 L226.416 199.246 L226.416 198.491 L226.416 197.736 L226.416 196.982 L226.416 196.227 L226.416 195.472 L226.416 194.718 L226.416 193.963 L226.416 193.208 L226.416 192.453 L226.416 191.699 L226.416 190.944 L226.416 190.189 L226.416 189.435 L226.416 188.68 L226.416 187.925 L226.416 187.17 L226.416 186.416 L226.416 185.661 L226.416 184.906 L226.416 184.151 L226.416 183.397 L226.416 182.642 L226.416 181.887 L226.416 181.133 L226.416 180.378 L226.416 179.623 L226.416 178.868 L226.416 178.114 L226.416 177.359 L226.416 176.604 L226.416 175.85 L226.416 175.095 L226.416 174.34 L226.416 173.585 L226.416 172.831 L226.416 172.076 L226.416 171.321 L226.416 170.567 L226.416 169.812 L226.416 169.057 L226.416 168.302 L226.416 167.548 L226.416 166.793 L226.416 166.038 L226.416 165.284 L226.416 164.529 L226.416 163.774 L226.416 163.019 L226.416 162.265 L226.416 161.51 L226.416 160.755 L226.416 160 L226.416 159.246 L226.416 158.491 L226.416 157.736 L226.416 156.982 L226.416 156.227 L226.416 155.472 L226.416 154.717 L226.416 153.963 L226.416 153.208 L226.416 152.453 L226.416 151.699 L226.416 150.944 L226.416 150.189 L226.416 149.434 L226.416 148.68 L226.416 147.925 L226.416 147.17 L226.416 146.416 L226.416 145.661 L226.416 144.906 L226.416 144.151 L226.416 143.397 L226.416 142.642 L226.416 141.887 L226.416 141.132 L226.416 140.378 L226.416 139.623 L226.416 138.868 L226.416 138.114 L226.416 137.359 L226.416 136.604 L226.416 135.849 L226.416 135.095 L226.416 134.34 L226.416 133.585 L226.416 132.831 L226.416 132.076 L226.416 131.321 L226.416 130.566 L226.416 129.812 L226.416 129.057 L226.416 128.302 L226.416 127.548 L226.416 126.793 L226.416 126.038 L226.416 125.283 L226.416 124.529 L226.416 123.774 L226.416 123.019 L226.416 122.265 L226.416 121.51 L226.416 120.755 L226.416 120 L226.416 119.246 L226.416 118.491 L226.416 117.736 L226.416 116.981 L226.416 116.227 L226.416 115.472 L226.416 114.717 L226.416 113.963 L226.416 113.208 L226.416 112.453 L226.416 111.698 L226.416 110.944 L226.416 110.189 L226.416 109.434 L226.416 108.68 L226.416 107.925 L226.416 107.17 L226.416 106.415 L226.416 105.661 L226.416 104.906 L226.416 104.151 L226.416 103.397 L226.416 102.642 L226.416 101.887 L226.416 101.132 L226.416 100.378 L226.416 99.6229 L226.416 98.8682 L226.416 98.1135 L226.416 97.3588 L226.416 96.6041 L226.416 95.8493 L226.416 95.0946 L226.416 94.3399 L226.416 93.5852 L226.416 92.8305 L226.416 92.0757 L226.416 91.321 L226.416 90.5663 L226.416 89.8116 L226.416 89.0569 L226.416 88.3021 L226.416 87.5474 L226.416 86.7927 L226.416 86.038 L226.416 85.2833 L226.416 84.5286 L226.416 83.7738 L226.416 83.0191 L226.416 82.2644 L226.416 81.5097 L226.416 80.755 L226.416 80.0002 L226.416 79.2455 L226.416 78.4908 L226.416 77.7361 L226.416 76.9814 L226.416 76.2266 L226.416 75.4719 L226.416 74.7172 L226.416 73.9625 L226.416 73.2078 L226.416 72.4531 L226.416 71.6983 L226.416 70.9436 L226.416 70.1889 L226.416 69.4342 L226.416 68.6795 L226.416 67.9247 L226.416 67.17 L226.416 66.4153 L226.416 65.6606 L226.416 64.9059 L226.416 64.1511 L226.416 63.3964 L226.416 62.6417 L226.416 61.887 L226.416 61.1323 L226.416 60.3775 L226.416 59.6228 L226.416 58.8681 L226.416 58.1134 L226.416 57.3587 L226.416 56.6039 L226.416 55.8492 L226.416 55.0945 L226.416 54.3398 L226.416 53.5851 L226.416 52.8304 L226.416 52.0756 L226.416 51.3209 L226.416 50.5662 L226.416 49.8115 L226.416 49.0568 L226.416 48.302 L226.416 47.5473 L226.416 46.7926 L226.416 46.0379 L226.416 45.2831 L226.416 44.5284 L226.416 43.7737 L226.416 43.019 L226.416 42.2643 L226.416 41.5096 L226.416 40.7548 L226.416 40.0001 L226.416 39.2454 L226.416 38.4907 L226.416 37.736 L226.416 36.9812 L226.416 36.2265 L226.416 35.4718 L226.416 34.7171 L226.416 33.9624 L226.416 33.2076 L226.416 32.4529 L226.416 31.6982 L226.416 30.9435 L226.416 30.1888 L226.416 29.434 L226.416 28.6793 L226.416 27.9246 L226.416 27.1699 L226.416 26.4152 L226.416 25.6605 L226.416 24.9057 L226.416 24.151 L226.416 23.3963 L226.416 22.6416 L226.416 21.8868 L226.416 21.1321 L226.416 20.3774 L226.416 19.6227 L226.416 18.868 L226.416 18.1133 L226.416 17.3585 L226.416 16.6038 L226.416 15.8491 L226.416 15.0944 L226.416 14.3397 L226.416 13.5849 L226.416 12.8302 L226.416 12.0755 L226.416 11.3208 L226.416 10.5661 L226.416 9.81134 L226.416 9.05663 L226.416 8.30191 L226.416 7.54719 L226.416 6.79247 L226.416 6.03775 L226.416 5.28303 L226.416 4.52831 L226.416 3.77359 L226.416 3.01887 L226.416 2.26415 L226.416 1.50943 L226.416 0.75471 L226.416 0 L226.416 -0.75471 L226.416 -1.50943 L226.416 -2.26415 L226.416 -3.01887 L226.416 -3.77359 L226.416 -4.52831 L226.416 -5.28303 L226.416 -6.03775 L226.416 -6.79247 L226.416 -7.54719 L226.416 -8.30191 L226.416 -9.05663 L226.416 -9.81134 L226.416 -10.5661 L226.416 -11.3208 L226.416 -12.0755 L226.416 -12.8302 L226.416 -13.5849 L226.416 -14.3397 L226.416 -15.0944 L226.416 -15.8491 L226.416 -16.6038 L226.416 -17.3585 L226.416 -18.1133 L226.416 -18.868 L226.416 -19.6227 L226.416 -20.3774 L226.416 -21.1321 L226.416 -21.8868 L226.416 -22.6416 L226.416 -23.3963 L226.416 -24.151 L226.416 -24.9057 L226.416 -25.6605 L226.416 -26.4152 L226.416 -27.1699 L226.416 -27.9246 L226.416 -28.6793 L226.416 -29.434 L226.416 -30.1888 L226.416 -30.9435 L226.416 -31.6982 L226.416 -32.4529 L226.416 -33.2076 L226.416 -33.9624 L226.416 -34.7171 L226.416 -35.4718 L226.416 -36.2265 L226.416 -36.9812 L226.416 -37.736 L226.416 -38.4907 L226.416 -39.2454 L226.416 -40.0001 L226.416 -40.7548 L226.416 -41.5096 L226.416 -42.2643 L226.416 -43.019 L226.416 -43.7737 L226.416 -44.5284 L226.416 -45.2831 L226.416 -46.0379 L226.416 -46.7926 L226.416 -47.5473 L226.416 -48.302 L226.416 -49.0568 L226.416 -49.8115 L226.416 -50.5662 L226.416 -51.3209 L226.416 -52.0756 L226.416 -52.8304 L226.416 -53.5851 L226.416 -54.3398 L226.416 -55.0945 L226.416 -55.8492 L226.416 -56.6039 L226.416 -57.3587 L226.416 -58.1134 L226.416 -58.8681 L226.416 -59.6228 L226.416 -60.3775 L226.416 -61.1323 L226.416 -61.887 L226.416 -62.6417 L226.416 -63.3964 L226.416 -64.1511 L226.416 -64.9059 L226.416 -65.6606 L226.416 -66.4153 L226.416 -67.17 L226.416 -67.9247 L226.416 -68.6795 L226.416 -69.4342 L226.416 -70.1889 L226.416 -70.9436 L226.416 -71.6983 L226.416 -72.4531 L226.416 -73.2078 L226.416 -73.9625 L226.416 -74.7172 L226.416 -75.4719 L226.416 -76.2266 L226.416 -76.9814 L226.416 -77.7361 L226.416 -78.4908 L226.416 -79.2455 L226.416 -80.0002 L226.416 -80.755 L226.416 -81.5097 L226.416 -82.2644 L226.416 -83.0191 L226.416 -83.7738 L226.416 -84.5286 L226.416 -85.2833 L226.416 -86.038 L226.416 -86.7927 L226.416 -87.5474 L226.416 -88.3021 L226.416 -89.0569 L226.416 -89.8116 L226.416 -90.5663 L226.416 -91.321 L226.416 -92.0757 L226.416 -92.8305 L226.416 -93.5852 L226.416 -94.3399 L226.416 -95.0946 L226.416 -95.8493 L226.416 -96.6041 L226.416 -97.3588 L226.416 -98.1135 L226.416 -98.8682 L226.416 -99.6229 L226.416 -100.378 L226.416 -101.132 L226.416 -101.887 L226.416 -102.642 L226.416 -103.397 L226.416 -104.151 L226.416 -104.906 L226.416 -105.661 L226.416 -106.415 L226.416 -107.17 L226.416 -107.925 L226.416 -108.68 L226.416 -109.434 L226.416 -110.189 L226.416 -110.944 L226.416 -111.698 L226.416 -112.453 L226.416 -113.208 L226.416 -113.963 L226.416 -114.717 L226.416 -115.472 L226.416 -116.227 L226.416 -116.981 L226.416 -117.736 L226.416 -118.491 L226.416 -119.246 L226.416 -120 L226.416 -120.755 L226.416 -121.51 L226.416 -122.265 L226.416 -123.019 L226.416 -123.774 L226.416 -124.529 L226.416 -125.283 L226.416 -126.038 L226.416 -126.793 L226.416 -127.548 L226.416 -128.302 L226.416 -129.057 L226.416 -129.812 L226.416 -130.566 L226.416 -131.321 L226.416 -132.076 L226.416 -132.831 L226.416 -133.585 L226.416 -134.34 L226.416 -135.095 L226.416 -135.849 L226.416 -136.604 L226.416 -137.359 L226.416 -138.114 L226.416 -138.868 L226.416 -139.623 L226.416 -140.378 L226.416 -141.132 L226.416 -141.887 L226.416 -142.642 L226.416 -143.397 L226.416 -144.151 L226.416 -144.906 L226.416 -145.661 L226.416 -146.416 L226.416 -147.17 L226.416 -147.925 L226.416 -148.68 L226.416 -149.434 L226.416 -150.189 L226.416 -150.944 L226.416 -151.699 L226.416 -152.453 L226.416 -153.208 L226.416 -153.963 L226.416 -154.717 L226.416 -155.472 L226.416 -156.227 L226.416 -156.982 L226.416 -157.736 L226.416 -158.491 L226.416 -159.246 L226.416 -160 L226.416 -160.755 L226.416 -161.51 L226.416 -162.265 L226.416 -163.019 L226.416 -163.774 L226.416 -164.529 L226.416 -165.284 L226.416 -166.038 L226.416 -166.793 L226.416 -167.548 L226.416 -168.302 L226.416 -169.057 L226.416 -169.812 L226.416 -170.567 L226.416 -171.321 L226.416 -172.076 L226.416 -172.831 L226.416 -173.585 L226.416 -174.34 L226.416 -175.095 L226.416 -175.85 L226.416 -176.604 L226.416 -177.359 L226.416 -178.114 L226.416 -178.868 L226.416 -179.623 L226.416 -180.378 L226.416 -181.133 L226.416 -181.887 L226.416 -182.642 L226.416 -183.397 L226.416 -184.151 L226.416 -184.906 L226.416 -185.661 L226.416 -186.416 L226.416 -187.17 L226.416 -187.925 L226.416 -188.68 L226.416 -189.435 L226.416 -190.189 L226.416 -190.944 L226.416 -191.699 L226.416 -192.453 L226.416 -193.208 L226.416 -193.963 L226.416 -194.718 L226.416 -195.472 L226.416 -196.227 L226.416 -196.982 L226.416 -197.736 L226.416 -198.491 L226.416 -199.246 L226.416 -200.001 L226.416 -200.755 L226.416 -201.51 L226.416 -202.265 L226.416 -203.019 L226.416 -203.774 L226.416 -204.529 L226.416 -205.284 L226.416 -206.038 L226.416 -206.793 L226.416 -207.548 L226.416 -208.303 L226.416 -209.057 L226.416 -209.812 L226.416 -210.567 L226.416 -211.321 L226.416 -212.076 L226.416 -212.831 L226.416 -213.586 L226.416 -214.34 L226.416 -215.095 L226.416 -215.85 L226.416 -216.604 L226.416 -217.359 L226.416 -218.114 L226.416 -218.869 L226.416 -219.623 L226.416 -220.378 L226.416 -221.133 L226.416 -221.887 L226.416 -222.642 L226.416 -223.397 L226.416 -224.152 L226.416 -224.906 L226.416 -225.661 L226.416 -226.416 L225.661 -226.416 L224.906 -226.416 L224.152 -226.416 L223.397 -226.416 L222.642 -226.416 L221.887 -226.416 L221.133 -226.416 L220.378 -226.416 L219.623 -226.416 L218.869 -226.416 L218.114 -226.416 L217.359 -226.416 L216.604 -226.416 L215.85 -226.416 L215.095 -226.416 L214.34 -226.416 L213.586 -226.416 L212.831 -226.416 L212.076 -226.416 L211.321 -226.416 L210.567 -226.416 L209.812 -226.416 L209.057 -226.416 L208.303 -226.416 L207.548 -226.416 L206.793 -226.416 L206.038 -226.416 L205.284 -226.416 L204.529 -226.416 L203.774 -226.416 L203.019 -226.416 L202.265 -226.416 L201.51 -226.416 L200.755 -226.416 L200.001 -226.416 L199.246 -226.416 L198.491 -226.416 L197.736 -226.416 L196.982 -226.416 L196.227 -226.416 L195.472 -226.416 L194.718 -226.416 L193.963 -226.416 L193.208 -226.416 L192.453 -226.416 L191.699 -226.416 L190.944 -226.416 L190.189 -226.416 L189.435 -226.416 L188.68 -226.416 L187.925 -226.416 L187.17 -226.416 L186.416 -226.416 L185.661 -226.416 L184.906 -226.416 L184.151 -226.416 L183.397 -226.416 L182.642 -226.416 L181.887 -226.416 L181.133 -226.416 L180.378 -226.416 L179.623 -226.416 L178.868 -226.416 L178.114 -226.416 L177.359 -226.416 L176.604 -226.416 L175.85 -226.416 L175.095 -226.416 L174.34 -226.416 L173.585 -226.416 L172.831 -226.416 L172.076 -226.416 L171.321 -226.416 L170.567 -226.416 L169.812 -226.416 L169.057 -226.416 L168.302 -226.416 L167.548 -226.416 L166.793 -226.416 L166.038 -226.416 L165.284 -226.416 L164.529 -226.416 L163.774 -226.416 L163.019 -226.416 L162.265 -226.416 L161.51 -226.416 L160.755 -226.416 L160 -226.416 L159.246 -226.416 L158.491 -226.416 L157.736 -226.416 L156.982 -226.416 L156.227 -226.416 L155.472 -226.416 L154.717 -226.416 L153.963 -226.416 L153.208 -226.416 L152.453 -226.416 L151.699 -226.416 L150.944 -226.416 L150.189 -226.416 L149.434 -226.416 L148.68 -226.416 L147.925 -226.416 L147.17 -226.416 L146.416 -226.416 L145.661 -226.416 L144.906 -226.416 L144.151 -226.416 L143.397 -226.416 L142.642 -226.416 L141.887 -226.416 L141.132 -226.416 L140.378 -226.416 L139.623 -226.416 L138.868 -226.416 L138.114 -226.416 L137.359 -226.416 L136.604 -226.416 L135.849 -226.416 L135.095 -226.416 L134.34 -226.416 L133.585 -226.416 L132.831 -226.416 L132.076 -226.416 L131.321 -226.416 L130.566 -226.416 L129.812 -226.416 L129.057 -226.416 L128.302 -226.416 L127.548 -226.416 L126.793 -226.416 L126.038 -226.416 L125.283 -226.416 L124.529 -226.416 L123.774 -226.416 L123.019 -226.416 L122.265 -226.416 L121.51 -226.416 L120.755 -226.416 L120 -226.416 L119.246 -226.416 L118.491 -226.416 L117.736 -226.416 L116.981 -226.416 L116.227 -226.416 L115.472 -226.416 L114.717 -226.416 L113.963 -226.416 L113.208 -226.416 L112.453 -226.416 L111.698 -226.416 L110.944 -226.416 L110.189 -226.416 L109.434 -226.416 L108.68 -226.416 L107.925 -226.416 L107.17 -226.416 L106.415 -226.416 L105.661 -226.416 L104.906 -226.416 L104.151 -226.416 L103.397 -226.416 L102.642 -226.416 L101.887 -226.416 L101.132 -226.416 L100.378 -226.416 L99.6229 -226.416 L98.8682 -226.416 L98.1135 -226.416 L97.3588 -226.416 L96.6041 -226.416 L95.8493 -226.416 L95.0946 -226.416 L94.3399 -226.416 L93.5852 -226.416 L92.8305 -226.416 L92.0757 -226.416 L91.321 -226.416 L90.5663 -226.416 L89.8116 -226.416 L89.0569 -226.416 L88.3021 -226.416 L87.5474 -226.416 L86.7927 -226.416 L86.038 -226.416 L85.2833 -226.416 L84.5286 -226.416 L83.7738 -226.416 L83.0191 -226.416 L82.2644 -226.416 L81.5097 -226.416 L80.755 -226.416 L80.0002 -226.416 L79.2455 -226.416 L78.4908 -226.416 L77.7361 -226.416 L76.9814 -226.416 L76.2266 -226.416 L75.4719 -226.416 L74.7172 -226.416 L73.9625 -226.416 L73.2078 -226.416 L72.4531 -226.416 L71.6983 -226.416 L70.9436 -226.416 L70.1889 -226.416 L69.4342 -226.416 L68.6795 -226.416 L67.9247 -226.416 L67.17 -226.416 L66.4153 -226.416 L65.6606 -226.416 L64.9059 -226.416 L64.1511 -226.416 L63.3964 -226.416 L62.6417 -226.416 L61.887 -226.416 L61.1323 -226.416 L60.3775 -226.416 L59.6228 -226.416 L58.8681 -226.416 L58.1134 -226.416 L57.3587 -226.416 L56.6039 -226.416 L55.8492 -226.416 L55.0945 -226.416 L54.3398 -226.416 L53.5851 -226.416 L52.8304 -226.416 L52.0756 -226.416 L51.3209 -226.416 L50.5662 -226.416 L49.8115 -226.416 L49.0568 -226.416 L48.302 -226.416 L47.5473 -226.416 L46.7926 -226.416 L46.0379 -226.416 L45.2831 -226.416 L44.5284 -226.416 L43.7737 -226.416 L43.019 -226.416 L42.2643 -226.416 L41.5096 -226.416 L40.7548 -226.416 L40.0001 -226.416 L39.2454 -226.416 L38.4907 -226.416 L37.736 -226.416 L36.9812 -226.416 L36.2265 -226.416 L35.4718 -226.416 L34.7171 -226.416 L33.9624 -226.416 L33.2076 -226.416 L32.4529 -226.416 L31.6982 -226.416 L30.9435 -226.416 L30.1888 -226.416 L29.434 -226.416 L28.6793 -226.416 L27.9246 -226.416 L27.1699 -226.416 L26.4152 -226.416 L25.6605 -226.416 L24.9057 -226.416 L24.151 -226.416 L23.3963 -226.416 L22.6416 -226.416 L21.8868 -226.416 L21.1321 -226.416 L20.3774 -226.416 L19.6227 -226.416 L18.868 -226.416 L18.1133 -226.416 L17.3585 -226.416 L16.6038 -226.416 L15.8491 -226.416 L15.0944 -226.416 L14.3397 -226.416 L13.5849 -226.416 L12.8302 -226.416 L12.0755 -226.416 L11.3208 -226.416 L10.5661 -226.416 L9.81134 -226.416 L9.05663 -226.416 L8.30191 -226.416 L7.54719 -226.416 L6.79247 -226.416 L6.03775 -226.416 L5.28303 -226.416 L4.52831 -226.416 L3.77359 -226.416 L3.01887 -226.416 L2.26415 -226.416 L1.50943 -226.416 L0.75471 -226.416 L0 -226.416 L-0.75471 -226.416 L-1.50943 -226.416 L-2.26415 -226.416 L-3.01887 -226.416 L-3.77359 -226.416 L-4.52831 -226.416 L-5.28303 -226.416 L-6.03775 -226.416 L-6.79247 -226.416 L-7.54719 -226.416 L-8.30191 -226.416 L-9.05663 -226.416 L-9.81134 -226.416 L-10.5661 -226.416 L-11.3208 -226.416 L-12.0755 -226.416 L-12.8302 -226.416 L-13.5849 -226.416 L-14.3397 -226.416 L-15.0944 -226.416 L-15.8491 -226.416 L-16.6038 -226.416 L-17.3585 -226.416 L-18.1133 -226.416 L-18.868 -226.416 L-19.6227 -226.416 L-20.3774 -226.416 L-21.1321 -226.416 L-21.8868 -226.416 L-22.6416 -226.416 L-23.3963 -226.416 L-24.151 -226.416 L-24.9057 -226.416 L-25.6605 -226.416 L-26.4152 -226.416 L-27.1699 -226.416 L-27.9246 -226.416 L-28.6793 -226.416 L-29.434 -226.416 L-30.1888 -226.416 L-30.9435 -226.416 L-31.6982 -226.416 L-32.4529 -226.416 L-33.2076 -226.416 L-33.9624 -226.416 L-34.7171 -226.416 L-35.4718 -226.416 L-36.2265 -226.416 L-36.9812 -226.416 L-37.736 -226.416 L-38.4907 -226.416 L-39.2454 -226.416 L-40.0001 -226.416 L-40.7548 -226.416 L-41.5096 -226.416 L-42.2643 -226.416 L-43.019 -226.416 L-43.7737 -226.416 L-44.5284 -226.416 L-45.2831 -226.416 L-46.0379 -226.416 L-46.7926 -226.416 L-47.5473 -226.416 L-48.302 -226.416 L-49.0568 -226.416 L-49.8115 -226.416 L-50.5662 -226.416 L-51.3209 -226.416 L-52.0756 -226.416 L-52.8304 -226.416 L-53.5851 -226.416 L-54.3398 -226.416 L-55.0945 -226.416 L-55.8492 -226.416 L-56.6039 -226.416 L-57.3587 -226.416 L-58.1134 -226.416 L-58.8681 -226.416 L-59.6228 -226.416 L-60.3775 -226.416 L-61.1323 -226.416 L-61.887 -226.416 L-62.6417 -226.416 L-63.3964 -226.416 L-64.1511 -226.416 L-64.9059 -226.416 L-65.6606 -226.416 L-66.4153 -226.416 L-67.17 -226.416 L-67.9247 -226.416 L-68.6795 -226.416 L-69.4342 -226.416 L-70.1889 -226.416 L-70.9436 -226.416 L-71.6983 -226.416 L-72.4531 -226.416 L-73.2078 -226.416 L-73.9625 -226.416 L-74.7172 -226.416 L-75.4719 -226.416 L-76.2266 -226.416 L-76.9814 -226.416 L-77.7361 -226.416 L-78.4908 -226.416 L-79.2455 -226.416 L-80.0002 -226.416 L-80.755 -226.416 L-81.5097 -226.416 L-82.2644 -226.416 L-83.0191 -226.416 L-83.7738 -226.416 L-84.5286 -226.416 L-85.2833 -226.416 L-86.038 -226.416 L-86.7927 -226.416 L-87.5474 -226.416 L-88.3021 -226.416 L-89.0569 -226.416 L-89.8116 -226.416 L-90.5663 -226.416 L-91.321 -226.416 L-92.0757 -226.416 L-92.8305 -226.416 L-93.5852 -226.416 L-94.3399 -226.416 L-95.0946 -226.416 L-95.8493 -226.416 L-96.6041 -226.416 L-97.3588 -226.416 L-98.1135 -226.416 L-98.8682 -226.416 L-99.6229 -226.416 L-100.378 -226.416 L-101.132 -226.416 L-101.887 -226.416 L-102.642 -226.416 L-103.397 -226.416 L-104.151 -226.416 L-104.906 -226.416 L-105.661 -226.416 L-106.415 -226.416 L-107.17 -226.416 L-107.925 -226.416 L-108.68 -226.416 L-109.434 -226.416 L-110.189 -226.416 L-110.944 -226.416 L-111.698 -226.416 L-112.453 -226.416 L-113.208 -226.416 L-113.963 -226.416 L-114.717 -226.416 L-115.472 -226.416 L-116.227 -226.416 L-116.981 -226.416 L-117.736 -226.416 L-118.491 -226.416 L-119.246 -226.416 L-120 -226.416 L-120.755 -226.416 L-121.51 -226.416 L-122.265 -226.416 L-123.019 -226.416 L-123.774 -226.416 L-124.529 -226.416 L-125.283 -226.416 L-126.038 -226.416 L-126.793 -226.416 L-127.548 -226.416 L-128.302 -226.416 L-129.057 -226.416 L-129.812 -226.416 L-130.566 -226.416 L-131.321 -226.416 L-132.076 -226.416 L-132.831 -226.416 L-133.585 -226.416 L-134.34 -226.416 L-135.095 -226.416 L-135.849 -226.416 L-136.604 -226.416 L-137.359 -226.416 L-138.114 -226.416 L-138.868 -226.416 L-139.623 -226.416 L-140.378 -226.416 L-141.132 -226.416 L-141.887 -226.416 L-142.642 -226.416 L-143.397 -226.416 L-144.151 -226.416 L-144.906 -226.416 L-145.661 -226.416 L-146.416 -226.416 L-147.17 -226.416 L-147.925 -226.416 L-148.68 -226.416 L-149.434 -226.416 L-150.189 -226.416 L-150.944 -226.416 L-151.699 -226.416 L-152.453 -226.416 L-153.208 -226.416 L-153.963 -226.416 L-154.717 -226.416 L-155.472 -226.416 L-156.227 -226.416 L-156.982 -226.416 L-157.736 -226.416 L-158.491 -226.416 L-159.246 -226.416 L-160 -226.416 L-160.755 -226.416 L-161.51 -226.416 L-162.265 -226.416 L-163.019 -226.416 L-163.774 -226.416 L-164.529 -226.416 L-165.284 -226.416 L-166.038 -226.416 L-166.793 -226.416 L-167.548 -226.416 L-168.302 -226.416 L-169.057 -226.416 L-169.812 -226.416 L-170.567 -226.416 L-171.321 -226.416 L-172.076 -226.416 L-172.831 -226.416 L-173.585 -226.416 L-174.34 -226.416 L-175.095 -226.416 L-175.85 -226.416 L-176.604 -226.416 L-177.359 -226.416 L-178.114 -226.416 L-178.868 -226.416 L-179.623 -226.416 L-180.378 -226.416 L-181.133 -226.416 L-181.887 -226.416 L-182.642 -226.416 L-183.397 -226.416 L-184.151 -226.416 L-184.906 -226.416 L-185.661 -226.416 L-186.416 -226.416 L-187.17 -226.416 L-187.925 -226.416 L-188.68 -226.416 L-189.435 -226.416 L-190.189 -226.416 L-190.944 -226.416 L-191.699 -226.416 L-192.453 -226.416 L-193.208 -226.416 L-193.963 -226.416 L-194.718 -226.416 L-195.472 -226.416 L-196.227 -226.416 L-196.982 -226.416 L-197.736 -226.416 L-198.491 -226.416 L-199.246 -226.416 L-200.001 -226.416 L-200.755 -226.416 L-201.51 -226.416 L-202.265 -226.416 L-203.019 -226.416 L-203.774 -226.416 L-204.529 -226.416 L-205.284 -226.416 L-206.038 -226.416 L-206.793 -226.416 L-207.548 -226.416 L-208.303 -226.416 L-209.057 -226.416 L-209.812 -226.416 L-210.567 -226.416 L-211.321 -226.416 L-212.076 -226.416 L-212.831 -226.416 L-213.586 -226.416 L-214.34 -226.416 L-215.095 -226.416 L-215.85 -226.416 L-216.604 -226.416 L-217.359 -226.416 L-218.114 -226.416 L-218.869 -226.416 L-219.623 -226.416 L-220.378 -226.416 L-221.133 -226.416 L-221.887 -226.416 L-222.642 -226.416 L-223.397 -226.416 L-224.152 -226.416 L-224.906 -226.416 L-225.661 -226.416 L-226.416 -226.416 L-226.416 -225.661 L-226.416 -224.906 L-226.416 -224.152 L-226.416 -223.397 L-226.416 -222.642 L-226.416 -221.887 L-226.416 -221.133 L-226.416 -220.378 L-226.416 -219.623 L-226.416 -218.869 L-226.416 -218.114 L-226.416 -217.359 L-226.416 -216.604 L-226.416 -215.85 L-226.416 -215.095 L-226.416 -214.34 L-226.416 -213.586 L-226.416 -212.831 L-226.416 -212.076 L-226.416 -211.321 L-226.416 -210.567 L-226.416 -209.812 L-226.416 -209.057 L-226.416 -208.303 L-226.416 -207.548 L-226.416 -206.793 L-226.416 -206.038 L-226.416 -205.284 L-226.416 -204.529 L-226.416 -203.774 L-226.416 -203.019 L-226.416 -202.265 L-226.416 -201.51 L-226.416 -200.755 L-226.416 -200.001 L-226.416 -199.246 L-226.416 -198.491 L-226.416 -197.736 L-226.416 -196.982 L-226.416 -196.227 L-226.416 -195.472 L-226.416 -194.718 L-226.416 -193.963 L-226.416 -193.208 L-226.416 -192.453 L-226.416 -191.699 L-226.416 -190.944 L-226.416 -190.189 L-226.416 -189.435 L-226.416 -188.68 L-226.416 -187.925 L-226.416 -187.17 L-226.416 -186.416 L-226.416 -185.661 L-226.416 -184.906 L-226.416 -184.151 L-226.416 -183.397 L-226.416 -182.642 L-226.416 -181.887 L-226.416 -181.133 L-226.416 -180.378 L-226.416 -179.623 L-226.416 -178.868 L-226.416 -178.114 L-226.416 -177.359 L-226.416 -176.604 L-226.416 -175.85 L-226.416 -175.095 L-226.416 -174.34 L-226.416 -173.585 L-226.416 -172.831 L-226.416 -172.076 L-226.416 -171.321 L-226.416 -170.567 L-226.416 -169.812 L-226.416 -169.057 L-226.416 -168.302 L-226.416 -167.548 L-226.416 -166.793 L-226.416 -166.038 L-226.416 -165.284 L-226.416 -164.529 L-226.416 -163.774 L-226.416 -163.019 L-226.416 -162.265 L-226.416 -161.51 L-226.416 -160.755 L-226.416 -160 L-226.416 -159.246 L-226.416 -158.491 L-226.416 -157.736 L-226.416 -156.982 L-226.416 -156.227 L-226.416 -155.472 L-226.416 -154.717 L-226.416 -153.963 L-226.416 -153.208 L-226.416 -152.453 L-226.416 -151.699 L-226.416 -150.944 L-226.416 -150.189 L-226.416 -149.434 L-226.416 -148.68 L-226.416 -147.925 L-226.416 -147.17 L-226.416 -146.416 L-226.416 -145.661 L-226.416 -144.906 L-226.416 -144.151 L-226.416 -143.397 L-226.416 -142.642 L-226.416 -141.887 L-226.416 -141.132 L-226.416 -140.378 L-226.416 -139.623 L-226.416 -138.868 L-226.416 -138.114 L-226.416 -137.359 L-226.416 -136.604 L-226.416 -135.849 L-226.416 -135.095 L-226.416 -134.34 L-226.416 -133.585 L-226.416 -132.831 L-226.416 -132.076 L-226.416 -131.321 L-226.416 -130.566 L-226.416 -129.812 L-226.416 -129.057 L-226.416 -128.302 L-226.416 -127.548 L-226.416 -126.793 L-226.416 -126.038 L-226.416 -125.283 L-226.416 -124.529 L-226.416 -123.774 L-226.416 -123.019 L-226.416 -122.265 L-226.416 -121.51 L-226.416 -120.755 L-226.416 -120 L-226.416 -119.246 L-226.416 -118.491 L-226.416 -117.736 L-226.416 -116.981 L-226.416 -116.227 L-226.416 -115.472 L-226.416 -114.717 L-226.416 -113.963 L-226.416 -113.208 L-226.416 -112.453 L-226.416 -111.698 L-226.416 -110.944 L-226.416 -110.189 L-226.416 -109.434 L-226.416 -108.68 L-226.416 -107.925 L-226.416 -107.17 L-226.416 -106.415 L-226.416 -105.661 L-226.416 -104.906 L-226.416 -104.151 L-226.416 -103.397 L-226.416 -102.642 L-226.416 -101.887 L-226.416 -101.132 L-226.416 -100.378 L-226.416 -99.6229 L-226.416 -98.8682 L-226.416 -98.1135 L-226.416 -97.3588 L-226.416 -96.6041 L-226.416 -95.8493 L-226.416 -95.0946 L-226.416 -94.3399 L-226.416 -93.5852 L-226.416 -92.8305 L-226.416 -92.0757 L-226.416 -91.321 L-226.416 -90.5663 L-226.416 -89.8116 L-226.416 -89.0569 L-226.416 -88.3021 L-226.416 -87.5474 L-226.416 -86.7927 L-226.416 -86.038 L-226.416 -85.2833 L-226.416 -84.5286 L-226.416 -83.7738 L-226.416 -83.0191 L-226.416 -82.2644 L-226.416 -81.5097 L-226.416 -80.755 L-226.416 -80.0002 L-226.416 -79.2455 L-226.416 -78.4908 L-226.416 -77.7361 L-226.416 -76.9814 L-226.416 -76.2266 L-226.416 -75.4719 L-226.416 -74.7172 L-226.416 -73.9625 L-226.416 -73.2078 L-226.416 -72.4531 L-226.416 -71.6983 L-226.416 -70.9436 L-226.416 -70.1889 L-226.416 -69.4342 L-226.416 -68.6795 L-226.416 -67.9247 L-226.416 -67.17 L-226.416 -66.4153 L-226.416 -65.6606 L-226.416 -64.9059 L-226.416 -64.1511 L-226.416 -63.3964 L-226.416 -62.6417 L-226.416 -61.887 L-226.416 -61.1323 L-226.416 -60.3775 L-226.416 -59.6228 L-226.416 -58.8681 L-226.416 -58.1134 L-226.416 -57.3587 L-226.416 -56.6039 L-226.416 -55.8492 L-226.416 -55.0945 L-226.416 -54.3398 L-226.416 -53.5851 L-226.416 -52.8304 L-226.416 -52.0756 L-226.416 -51.3209 L-226.416 -50.5662 L-226.416 -49.8115 L-226.416 -49.0568 L-226.416 -48.302 L-226.416 -47.5473 L-226.416 -46.7926 L-226.416 -46.0379 L-226.416 -45.2831 L-226.416 -44.5284 L-226.416 -43.7737 L-226.416 -43.019 L-226.416 -42.2643 L-226.416 -41.5096 L-226.416 -40.7548 L-226.416 -40.0001 L-226.416 -39.2454 L-226.416 -38.4907 L-226.416 -37.736 L-226.416 -36.9812 L-226.416 -36.2265 L-226.416 -35.4718 L-226.416 -34.7171 L-226.416 -33.9624 L-226.416 -33.2076 L-226.416 -32.4529 L-226.416 -31.6982 L-226.416 -30.9435 L-226.416 -30.1888 L-226.416 -29.434 L-226.416 -28.6793 L-226.416 -27.9246 L-226.416 -27.1699 L-226.416 -26.4152 L-226.416 -25.6605 L-226.416 -24.9057 L-226.416 -24.151 L-226.416 -23.3963 L-226.416 -22.6416 L-226.416 -21.8868 L-226.416 -21.1321 L-226.416 -20.3774 L-226.416 -19.6227 L-226.416 -18.868 L-226.416 -18.1133 L-226.416 -17.3585 L-226.416 -16.6038 L-226.416 -15.8491 L-226.416 -15.0944 L-226.416 -14.3397 L-226.416 -13.5849 L-226.416 -12.8302 L-226.416 -12.0755 L-226.416 -11.3208 L-226.416 -10.5661 L-226.416 -9.81134 L-226.416 -9.05663 L-226.416 -8.30191 L-226.416 -7.54719 L-226.416 -6.79247 L-226.416 -6.03775 L-226.416 -5.28303 L-226.416 -4.52831 L-226.416 -3.77359 L-226.416 -3.01887 L-226.416 -2.26415 L-226.416 -1.50943 L-226.416 -0.75471 L-226.416 0 L-226.416 0.75471 L-226.416 1.50943 L-226.416 2.26415 L-226.416 3.01887 L-226.416 3.77359 L-226.416 4.52831 L-226.416 5.28303 L-226.416 6.03775 L-226.416 6.79247 L-226.416 7.54719 L-226.416 8.30191 L-226.416 9.05663 L-226.416 9.81134 L-226.416 10.5661 L-226.416 11.3208 L-226.416 12.0755 L-226.416 12.8302 L-226.416 13.5849 L-226.416 14.3397 L-226.416 15.0944 L-226.416 15.8491 L-226.416 16.6038 L-226.416 17.3585 L-226.416 17.7314 L-226.06 18.0848 L-225.351 18.7893 L-224.641 19.4938 L-223.932 20.1984 L-223.223 20.9029 L-222.514 21.6075 L-221.804 22.312 L-221.095 23.0165 L-220.386 23.7211 L-219.676 24.4256 L-218.967 25.1302 L-218.258 25.8347 L-217.549 26.5392 L-216.839 27.2438 L-216.13 27.9483 L-215.421 28.6529 L-214.712 29.3574 L-214.002 30.0619 L-213.293 30.7665 L-212.584 31.471 L-211.874 32.1756 L-211.165 32.8801 L-210.456 33.5847 L-209.747 34.2892 L-209.037 34.9937 L-208.328 35.6983 L-207.619 36.4028 L-206.909 37.1074 L-206.2 37.8119 L-205.491 38.5164 L-204.782 39.221 L-204.072 39.9255 L-203.363 40.6301 L-202.654 41.3346 L-201.944 42.0391 L-201.235 42.7437 L-200.526 43.4482 L-199.817 44.1528 L-199.107 44.8573 L-198.398 45.5618 L-197.689 46.2664 L-196.979 46.9709 L-196.27 47.6755 L-195.561 48.38 L-194.852 49.0846 L-194.142 49.7891 L-193.433 50.4936 L-192.724 51.1982 L-192.014 51.9027 L-191.305 52.6073 L-190.596 53.3118 L-189.887 54.0163 L-189.177 54.7209 L-188.468 55.4254 L-187.759 56.13 L-187.049 56.8345 L-186.34 57.5391 L-185.631 58.2436 L-184.922 58.9481 L-184.212 59.6527 L-183.503 60.3572 L-182.794 61.0618 L-182.084 61.7663 L-181.375 62.4708 L-180.666 63.1754 L-179.957 63.8799 L-179.247 64.5845 L-178.538 65.289 L-177.829 65.9935 L-177.119 66.6981 L-176.41 67.4026 L-175.701 68.1072 L-174.992 68.8117 L-174.282 69.5162 L-173.573 70.2208 L-172.864 70.9253 L-172.154 71.6299 L-171.445 72.3344 L-170.736 73.0389 L-170.027 73.7435 L-169.317 74.448 L-168.608 75.1526 L-167.899 75.8571 L-167.19 76.5617 L-166.48 77.2662 L-165.771 77.9707 L-165.062 78.6753 L-164.352 79.3798 L-163.643 80.0844 L-162.934 80.7889 L-162.225 81.4934 L-161.515 82.198 L-160.806 82.9025 L-160.097 83.6071 L-159.387 84.3116 L-158.678 85.0161 L-157.969 85.7207 L-157.26 86.4252 L-156.55 87.1298 L-155.841 87.8343 L-155.132 88.5388 L-154.422 89.2434 L-153.713 89.9479 L-153.004 90.6525 L-152.295 91.357 L-151.585 92.0615 L-150.876 92.7661 L-150.167 93.4706 L-149.457 94.1752 L-148.748 94.8797 L-148.039 95.5842 L-147.33 96.2888 L-146.62 96.9933 L-145.911 97.6979 L-145.202 98.4024 L-144.492 99.107 L-143.783 99.8115 L-143.074 100.516 L-142.365 101.221 L-141.655 101.925 L-140.946 102.63 L-140.237 103.334 L-139.527 104.039 L-138.818 104.743 L-138.109 105.448 L-137.4 106.152 L-136.69 106.857 L-135.981 107.561 L-135.272 108.266 L-134.562 108.971 L-133.853 109.675 L-133.144 110.38 L-132.435 111.084 L-131.725 111.789 L-131.016 112.493 L-130.307 113.198 L-129.597 113.902 L-128.888 114.607 L-128.179 115.311 L-127.47 116.016 L-126.76 116.72 L-126.051 117.425 L-125.342 118.13 L-124.632 118.834 L-123.923 119.539 L-123.214 120.243 L-122.505 120.948 L-121.795 121.652 L-121.086 122.357 L-120.377 123.061 L-119.668 123.766 L-118.958 124.47 L-118.249 125.175 L-117.54 125.88 L-116.83 126.584 L-116.121 127.289 L-115.412 127.993 L-114.703 128.698 L-113.993 129.402 L-113.284 130.107 L-112.575 130.811 L-111.865 131.516 L-111.156 132.22 L-110.447 132.925 L-109.738 133.629 L-109.028 134.334 L-108.319 135.039 L-107.61 135.743 L-106.9 136.448 L-106.191 137.152 L-105.482 137.857 L-104.773 138.561 L-104.063 139.266 L-103.354 139.97 L-102.645 140.675 L-101.935 141.379 L-101.226 142.084 L-100.517 142.788 L-99.8076 143.493 L-99.0983 144.198 L-98.389 144.902 L-97.6797 145.607 L-96.9704 146.311 L-96.2612 147.016 L-95.5519 147.72 L-94.8426 148.425 L-94.1333 149.129 L-93.424 149.834 L-92.7147 150.538 L-92.0054 151.243 L-91.2962 151.948 L-90.5869 152.652 L-89.8776 153.357 L-89.1683 154.061 L-88.459 154.766 L-87.7497 155.47 L-87.0405 156.175 L-86.3312 156.879 L-85.6219 157.584 L-84.9126 158.288 L-84.2033 158.993 L-83.494 159.697 L-82.7848 160.402 L-82.0755 161.107 L-81.3662 161.811 L-80.6569 162.516 L-79.9476 163.22 L-79.2383 163.925 L-78.5291 164.629 L-77.8198 165.334 L-77.1105 166.038 L-76.4012 166.743 L-75.6919 167.447 L-74.9826 168.152 L-74.2734 168.857 L-73.5641 169.561 L-72.8548 170.266 L-72.1455 170.97 L-71.4362 171.675 L-70.7269 172.379 L-70.0177 173.084 L-69.3084 173.788 L-68.5991 174.493 L-67.8898 175.197 L-67.1805 175.902 L-66.4712 176.606 L-65.7619 177.311 L-65.0527 178.016 L-64.7301 178.336 L-60.395 182.642 L-60.0877 182.947 L-59.3784 183.652 L-58.6691 184.356 L-57.9598 185.061 L-57.2505 185.765 L-56.9455 186.069 L-50.5176 192.453 L-50.1577 192.811 L-49.4484 193.515 L-48.7392 194.22 L-48.0299 194.925 L-47.3206 195.629 L-40.937 201.97 L-40.2277 202.674 L-39.5185 203.379 L-39.1206 203.774 L-34.4429 208.421 L-33.8442 209.015 L-33.1349 209.72 L-32.4256 210.424 L-31.7163 211.129 L-26.4573 216.353 L-26.0421 216.765 L-25.3328 217.47 L-24.6235 218.174 L-23.9142 218.879 L-16.7541 225.991 L-16.3266 226.416 L-16.3266 226.416 L-16.7541 225.991 L-16.8214 225.924 L-17.5307 225.22 L-18.24 224.515 L-18.9492 223.811 L-19.6585 223.106 L-20.3678 222.402 L-21.0771 221.697 L-21.7864 220.993 L-22.4957 220.288 L-23.2049 219.583 L-23.9142 218.879 L-26.4573 216.353 L-26.7514 216.061 L-27.4606 215.356 L-28.1699 214.652 L-28.8792 213.947 L-29.5885 213.243 L-30.2978 212.538 L-31.0071 211.833 L-31.7163 211.129 L-34.4429 208.421 L-34.5535 208.311 L-35.2628 207.606 L-35.972 206.902 L-36.6813 206.197 L-37.3906 205.493 L-38.0999 204.788 L-38.8092 204.084 L-39.1206 203.774 L-40.937 201.97 L-41.6463 201.265 L-42.3556 200.561 L-43.0649 199.856 L-43.7742 199.152 L-44.4834 198.447 L-45.1927 197.743 L-45.902 197.038 L-46.6113 196.334 L-47.3206 195.629 L-50.5176 192.453 L-50.867 192.106 L-51.5763 191.402 L-52.2856 190.697 L-52.9948 189.993 L-53.7041 189.288 L-54.4134 188.584 L-55.1227 187.879 L-55.832 187.175 L-56.5413 186.47 L-56.9455 186.069 L-60.395 182.642 L-60.797 182.243 L-61.5063 181.538 L-62.2155 180.834 L-62.9248 180.129 L-63.6341 179.425 L-64.3434 178.72 L-64.7301 178.336 L-226.416 17.7314 L-226.416 18.1133 L-226.416 18.868 Z M150.189 150.944 L149.434 150.944 L148.68 150.944 L147.925 150.944 L147.17 150.944 L146.416 150.944 L145.661 150.944 L144.906 150.944 L144.151 150.944 L143.397 150.944 L142.642 150.944 L141.887 150.944 L141.132 150.944 L140.378 150.944 L139.623 150.944 L138.868 150.944 L138.114 150.944 L137.359 150.944 L136.604 150.944 L135.849 150.944 L135.095 150.944 L134.34 150.944 L133.585 150.944 L132.831 150.944 L132.076 150.944 L131.321 150.944 L130.566 150.944 L129.812 150.944 L129.057 150.944 L128.302 150.944 L127.548 150.944 L126.793 150.944 L126.038 150.944 L125.283 150.944 L124.529 150.944 L123.774 150.944 L123.019 150.944 L122.265 150.944 L121.51 150.944 L120.755 150.944 L120 150.944 L119.246 150.944 L118.491 150.944 L117.736 150.944 L116.981 150.944 L116.227 150.944 L115.472 150.944 L114.717 150.944 L113.963 150.944 L113.208 150.944 L112.453 150.944 L111.698 150.944 L110.944 150.944 L110.189 150.944 L109.434 150.944 L108.68 150.944 L107.925 150.944 L107.17 150.944 L106.415 150.944 L105.661 150.944 L104.906 150.944 L104.151 150.944 L103.397 150.944 L102.642 150.944 L101.887 150.944 L101.132 150.944 L100.378 150.944 L99.6229 150.944 L98.8682 150.944 L98.1135 150.944 L97.3588 150.944 L96.6041 150.944 L95.8493 150.944 L95.0946 150.944 L94.3399 150.944 L93.5852 150.944 L92.8305 150.944 L92.0757 150.944 L91.321 150.944 L90.5663 150.944 L89.8116 150.944 L89.0569 150.944 L88.3021 150.944 L87.5474 150.944 L86.7927 150.944 L86.038 150.944 L85.2833 150.944 L84.5286 150.944 L83.7738 150.944 L83.0191 150.944 L82.2644 150.944 L81.5097 150.944 L80.755 150.944 L80.0002 150.944 L79.2455 150.944 L78.4908 150.944 L77.7361 150.944 L76.9814 150.944 L76.2266 150.944 L75.4719 150.944 L74.7172 150.944 L73.9625 150.944 L73.2078 150.944 L72.4531 150.944 L71.6983 150.944 L70.9436 150.944 L70.1889 150.944 L69.4342 150.944 L68.6795 150.944 L67.9247 150.944 L67.17 150.944 L66.4153 150.944 L65.6606 150.944 L64.9059 150.944 L64.1511 150.944 L63.3964 150.944 L62.6417 150.944 L61.887 150.944 L61.1323 150.944 L60.3775 150.944 L59.6228 150.944 L58.8681 150.944 L58.1134 150.944 L57.3587 150.944 L56.6039 150.944 L55.8492 150.944 L55.0945 150.944 L54.3398 150.944 L53.5851 150.944 L52.8304 150.944 L52.0756 150.944 L51.3209 150.944 L50.5662 150.944 L49.8115 150.944 L49.0568 150.944 L48.302 150.944 L47.5473 150.944 L46.7926 150.944 L46.0379 150.944 L45.2831 150.944 L44.5284 150.944 L43.7737 150.944 L43.019 150.944 L42.2643 150.944 L41.5096 150.944 L40.7548 150.944 L40.0001 150.944 L39.2454 150.944 L38.4907 150.944 L37.736 150.944 L36.9812 150.944 L36.2265 150.944 L35.4718 150.944 L34.7171 150.944 L33.9624 150.944 L33.2076 150.944 L32.4529 150.944 L31.6982 150.944 L30.9435 150.944 L30.1888 150.944 L29.434 150.944 L28.6793 150.944 L27.9246 150.944 L27.1699 150.944 L26.4152 150.944 L25.6605 150.944 L24.9057 150.944 L24.151 150.944 L23.3963 150.944 L22.6416 150.944 L21.8868 150.944 L21.1321 150.944 L20.3774 150.944 L19.6227 150.944 L18.868 150.944 L18.1133 150.944 L17.3585 150.944 L16.6038 150.944 L15.8491 150.944 L15.0944 150.944 L14.3397 150.944 L13.5849 150.944 L12.8302 150.944 L12.0755 150.944 L11.3208 150.944 L10.5661 150.944 L9.81134 150.944 L9.05663 150.944 L8.30191 150.944 L7.54719 150.944 L6.79247 150.944 L6.03775 150.944 L5.28303 150.944 L4.52831 150.944 L3.77359 150.944 L3.01887 150.944 L2.26415 150.944 L1.50943 150.944 L0.75471 150.944 L0 150.944 L0 150.189 L0 149.434 L0 148.68 L0 147.925 L0 147.17 L0 146.416 L0 145.661 L0 144.906 L0 144.151 L0 143.397 L0 142.642 L0 141.887 L0 141.132 L0 140.378 L0 139.623 L0 138.868 L0 138.114 L0 137.359 L0 136.604 L0 135.849 L0 135.095 L0 134.34 L0 133.585 L0 132.831 L0 132.076 L0 131.321 L0 130.566 L0 129.812 L0 129.057 L0 128.302 L0 127.548 L0 126.793 L0 126.038 L0 125.283 L0 124.529 L0 123.774 L0 123.019 L0 122.265 L0 121.51 L0 120.755 L0 120 L0 119.246 L0 118.491 L0 117.736 L0 116.981 L0 116.227 L0 115.472 L0 114.717 L0 113.963 L0 113.208 L0 112.453 L0 111.698 L0 110.944 L0 110.189 L0 109.434 L0 108.68 L0 107.925 L0 107.17 L0 106.415 L0 105.661 L0 104.906 L0 104.151 L0 103.397 L0 102.642 L0 101.887 L0 101.132 L0 100.378 L0 100 L-1 100 L-2 100 L-3 100 L-4 100 L-5 100 L-6 100 L-7 100 L-8 100 L-9 100 L-10 100 L-11 100 L-12 100 L-13 100 L-14 100 L-15 100 L-16 100 L-17 100 L-18 100 L-19 100 L-20 100 L-21 100 L-22 100 L-23 100 L-24 100 L-25 100 L-26 100 L-27 100 L-28 100 L-29 100 L-30 100 L-31 100 L-32 100 L-33 100 L-34 100 L-35 100 L-36 100 L-37 100 L-38 100 L-39 100 L-40 100 L-41 100 L-42 100 L-43 100 L-44 100 L-45 100 L-46 100 L-47 100 L-48 100 L-49 100 L-50 100 L-51 100 L-52 100 L-53 100 L-54 100 L-55 100 L-56 100 L-57 100 L-58 100 L-59 100 L-60 100 L-61 100 L-62 100 L-63 100 L-64 100 L-65 100 L-66 100 L-67 100 L-68 100 L-69 100 L-70 100 L-71 100 L-72 100 L-73 100 L-74 100 L-75 100 L-76 100 L-77 100 L-78 100 L-79 100 L-80 100 L-81 100 L-82 100 L-83 100 L-84 100 L-85 100 L-86 100 L-87 100 L-88 100 L-89 100 L-90 100 L-91 100 L-92 100 L-93 100 L-94 100 L-95 100 L-96 100 L-97 100 L-98 100 L-99 100 L-100 100 L-100 99 L-100 98 L-100 97 L-100 96 L-100 95 L-100 94 L-100 93 L-100 92 L-100 91 L-100 90 L-100 89 L-100 88 L-100 87 L-100 86 L-100 85 L-100 84 L-100 83 L-100 82 L-100 81 L-100 80 L-100 79 L-100 78 L-100 77 L-100 76 L-100 75 L-100 74 L-100 73 L-100 72 L-100 71 L-100 70 L-100 69 L-100 68 L-100 67 L-100 66 L-100 65 L-100 64 L-100 63 L-100 62 L-100 61 L-100 60 L-100 59 L-100 58 L-100 57 L-100 56 L-100 55 L-100 54 L-100 53 L-100 52 L-100 51 L-100 50 L-100 49 L-100 48 L-100 47 L-100 46 L-100 45 L-100 44 L-100 43 L-100 42 L-100 41 L-100 40 L-100 39 L-100 38 L-100 37 L-100 36 L-100 35 L-100 34 L-100 33 L-100 32 L-100 31 L-100 30 L-100 29 L-100 28 L-100 27 L-100 26 L-100 25 L-100 24 L-100 23 L-100 22 L-100 21 L-100 20 L-100 19 L-100 18 L-100 17 L-100 16 L-100 15 L-100 14 L-100 13 L-100 12 L-100 11 L-100 10 L-100 8.99999 L-100 8 L-100 6.99999 L-100 6 L-100 5 L-100 4 L-100 3 L-100 2 L-100 1 L-100 0 L-100 -1 L-100 -2 L-100 -3 L-100 -4 L-100 -5 L-100 -6 L-100 -7 L-100 -8 L-100 -9 L-100 -10 L-100 -11 L-100 -12 L-100 -13 L-100 -14 L-100 -15 L-100 -16 L-100 -17 L-100 -18 L-100 -19 L-100 -20 L-100 -21 L-100 -22 L-100 -23 L-100 -24 L-100 -25 L-100 -26 L-100 -27 L-100 -28 L-100 -29 L-100 -30 L-100 -31 L-100 -32 L-100 -33 L-100 -34 L-100 -35 L-100 -36 L-100 -37 L-100 -38 L-100 -39 L-100 -40 L-100 -41 L-100 -42 L-100 -43 L-100 -44 L-100 -45 L-100 -46 L-100 -47 L-100 -48 L-100 -49 L-100 -50 L-100 -51 L-100 -52 L-100 -53 L-100 -54 L-100 -55 L-100 -56 L-100 -57 L-100 -58 L-100 -59 L-100 -60 L-100 -61 L-100 -62 L-100 -63 L-100 -64 L-100 -65 L-100 -66 L-100 -67 L-100 -68 L-100 -69 L-100 -70 L-100 -71 L-100 -72 L-100 -73 L-100 -74 L-100 -75 L-100 -76 L-100 -77 L-100 -78 L-100 -79 L-100 -80 L-100 -81 L-100 -82 L-100 -83 L-100 -84 L-100 -85 L-100 -86 L-100 -87 L-100 -88 L-100 -89 L-100 -90 L-100 -91 L-100 -92 L-100 -93 L-100 -94 L-100 -95 L-100 -96 L-100 -97 L-100 -98 L-100 -99 L-100 -100 L-99 -100 L-98 -100 L-97 -100 L-96 -100 L-95 -100 L-94 -100 L-93 -100 L-92 -100 L-91 -100 L-90 -100 L-89 -100 L-88 -100 L-87 -100 L-86 -100 L-85 -100 L-84 -100 L-83 -100 L-82 -100 L-81 -100 L-80 -100 L-79 -100 L-78 -100 L-77 -100 L-76 -100 L-75 -100 L-74 -100 L-73 -100 L-72 -100 L-71 -100 L-70 -100 L-69 -100 L-68 -100 L-67 -100 L-66 -100 L-65 -100 L-64 -100 L-63 -100 L-62 -100 L-61 -100 L-60 -100 L-59 -100 L-58 -100 L-57 -100 L-56 -100 L-55 -100 L-54 -100 L-53 -100 L-52 -100 L-51 -100 L-50 -100 L-49 -100 L-48 -100 L-47 -100 L-46 -100 L-45 -100 L-44 -100 L-43 -100 L-42 -100 L-41 -100 L-40 -100 L-39 -100 L-38 -100 L-37 -100 L-36 -100 L-35 -100 L-34 -100 L-33 -100 L-32 -100 L-31 -100 L-30 -100 L-29 -100 L-28 -100 L-27 -100 L-26 -100 L-25 -100 L-24 -100 L-23 -100 L-22 -100 L-21 -100 L-20 -100 L-19 -100 L-18 -100 L-17 -100 L-16 -100 L-15 -100 L-14 -100 L-13 -100 L-12 -100 L-11 -100 L-10 -100 L-8.99999 -100 L-8 -100 L-6.99999 -100 L-6 -100 L-5 -100 L-4 -100 L-3 -100 L-2 -100 L-1 -100 L0 -100 L1 -100 L2 -100 L3 -100 L4 -100 L5 -100 L6 -100 L7 -100 L8 -100 L9 -100 L10 -100 L11 -100 L12 -100 L13 -100 L14 -100 L15 -100 L16 -100 L17 -100 L18 -100 L19 -100 L20 -100 L21 -100 L22 -100 L23 -100 L24 -100 L25 -100 L26 -100 L27 -100 L28 -100 L29 -100 L30 -100 L31 -100 L32 -100 L33 -100 L34 -100 L35 -100 L36 -100 L37 -100 L38 -100 L39 -100 L40 -100 L41 -100 L42 -100 L43 -100 L44 -100 L45 -100 L46 -100 L47 -100 L48 -100 L49 -100 L50 -100 L51 -100 L52 -100 L53 -100 L54 -100 L55 -100 L56 -100 L57 -100 L58 -100 L59 -100 L60 -100 L61 -100 L62 -100 L63 -100 L64 -100 L65 -100 L66 -100 L67 -100 L68 -100 L69 -100 L70 -100 L71 -100 L72 -100 L73 -100 L74 -100 L75 -100 L76 -100 L77 -100 L78 -100 L79 -100 L80 -100 L81 -100 L82 -100 L83 -100 L84 -100 L85 -100 L86 -100 L87 -100 L88 -100 L89 -100 L90 -100 L91 -100 L92 -100 L93 -100 L94 -100 L95 -100 L96 -100 L97 -100 L98 -100 L99 -100 L100 -100 L100 -99 L100 -98 L100 -97 L100 -96 L100 -95 L100 -94 L100 -93 L100 -92 L100 -91 L100 -90 L100 -89 L100 -88 L100 -87 L100 -86 L100 -85 L100 -84 L100 -83 L100 -82 L100 -81 L100 -80 L100 -79 L100 -78 L100 -77 L100 -76 L100 -75 L100 -74 L100 -73 L100 -72 L100 -71 L100 -70 L100 -69 L100 -68 L100 -67 L100 -66 L100 -65 L100 -64 L100 -63 L100 -62 L100 -61 L100 -60 L100 -59 L100 -58 L100 -57 L100 -56 L100 -55 L100 -54 L100 -53 L100 -52 L100 -51 L100 -50 L100 -49 L100 -48 L100 -47 L100 -46 L100 -45 L100 -44 L100 -43 L100 -42 L100 -41 L100 -40 L100 -39 L100 -38 L100 -37 L100 -36 L100 -35 L100 -34 L100 -33 L100 -32 L100 -31 L100 -30 L100 -29 L100 -28 L100 -27 L100 -26 L100 -25 L100 -24 L100 -23 L100 -22 L100 -21 L100 -20 L100 -19 L100 -18 L100 -17 L100 -16 L100 -15 L100 -14 L100 -13 L100 -12 L100 -11 L100 -10 L100 -8.99999 L100 -8 L100 -6.99999 L100 -6 L100 -5 L100 -4 L100 -3 L100 -2 L100 -1 L100 0 L100.378 0 L101.132 0 L101.887 0 L102.642 0 L103.397 0 L104.151 0 L104.906 0 L105.661 0 L106.415 0 L107.17 0 L107.925 0 L108.68 0 L109.434 0 L110.189 0 L110.944 0 L111.698 0 L112.453 0 L113.208 0 L113.963 0 L114.717 0 L115.472 0 L116.227 0 L116.981 0 L117.736 0 L118.491 0 L119.246 0 L120 0 L120.755 0 L121.51 0 L122.265 0 L123.019 0 L123.774 0 L124.529 0 L125.283 0 L126.038 0 L126.793 0 L127.548 0 L128.302 0 L129.057 0 L129.812 0 L130.566 0 L131.321 0 L132.076 0 L132.831 0 L133.585 0 L134.34 0 L135.095 0 L135.849 0 L136.604 0 L137.359 0 L138.114 0 L138.868 0 L139.623 0 L140.378 0 L141.132 0 L141.887 0 L142.642 0 L143.397 0 L144.151 0 L144.906 0 L145.661 0 L146.416 0 L147.17 0 L147.925 0 L148.68 0 L149.434 0 L150.189 0 L150.944 0 L150.944 0.75471 L150.944 1.50943 L150.944 2.26415 L150.944 3.01887 L150.944 3.77359 L150.944 4.52831 L150.944 5.28303 L150.944 6.03775 L150.944 6.79247 L150.944 7.54719 L150.944 8.30191 L150.944 9.05663 L150.944 9.81134 L150.944 10.5661 L150.944 11.3208 L150.944 12.0755 L150.944 12.8302 L150.944 13.5849 L150.944 14.3397 L150.944 15.0944 L150.944 15.8491 L150.944 16.6038 L150.944 17.3585 L150.944 18.1133 L150.944 18.868 L150.944 19.6227 L150.944 20.3774 L150.944 21.1321 L150.944 21.8868 L150.944 22.6416 L150.944 23.3963 L150.944 24.151 L150.944 24.9057 L150.944 25.6605 L150.944 26.4152 L150.944 27.1699 L150.944 27.9246 L150.944 28.6793 L150.944 29.434 L150.944 30.1888 L150.944 30.9435 L150.944 31.6982 L150.944 32.4529 L150.944 33.2076 L150.944 33.9624 L150.944 34.7171 L150.944 35.4718 L150.944 36.2265 L150.944 36.9812 L150.944 37.736 L150.944 38.4907 L150.944 39.2454 L150.944 40.0001 L150.944 40.7548 L150.944 41.5096 L150.944 42.2643 L150.944 43.019 L150.944 43.7737 L150.944 44.5284 L150.944 45.2831 L150.944 46.0379 L150.944 46.7926 L150.944 47.5473 L150.944 48.302 L150.944 49.0568 L150.944 49.8115 L150.944 50.5662 L150.944 51.3209 L150.944 52.0756 L150.944 52.8304 L150.944 53.5851 L150.944 54.3398 L150.944 55.0945 L150.944 55.8492 L150.944 56.6039 L150.944 57.3587 L150.944 58.1134 L150.944 58.8681 L150.944 59.6228 L150.944 60.3775 L150.944 61.1323 L150.944 61.887 L150.944 62.6417 L150.944 63.3964 L150.944 64.1511 L150.944 64.9059 L150.944 65.6606 L150.944 66.4153 L150.944 67.17 L150.944 67.9247 L150.944 68.6795 L150.944 69.4342 L150.944 70.1889 L150.944 70.9436 L150.944 71.6983 L150.944 72.4531 L150.944 73.2078 L150.944 73.9625 L150.944 74.7172 L150.944 75.4719 L150.944 76.2266 L150.944 76.9814 L150.944 77.7361 L150.944 78.4908 L150.944 79.2455 L150.944 80.0002 L150.944 80.755 L150.944 81.5097 L150.944 82.2644 L150.944 83.0191 L150.944 83.7738 L150.944 84.5286 L150.944 85.2833 L150.944 86.038 L150.944 86.7927 L150.944 87.5474 L150.944 88.3021 L150.944 89.0569 L150.944 89.8116 L150.944 90.5663 L150.944 91.321 L150.944 92.0757 L150.944 92.8305 L150.944 93.5852 L150.944 94.3399 L150.944 95.0946 L150.944 95.8493 L150.944 96.6041 L150.944 97.3588 L150.944 98.1135 L150.944 98.8682 L150.944 99.6229 L150.944 100.378 L150.944 101.132 L150.944 101.887 L150.944 102.642 L150.944 103.397 L150.944 104.151 L150.944 104.906 L150.944 105.661 L150.944 106.415 L150.944 107.17 L150.944 107.925 L150.944 108.68 L150.944 109.434 L150.944 110.189 L150.944 110.944 L150.944 111.698 L150.944 112.453 L150.944 113.208 L150.944 113.963 L150.944 114.717 L150.944 115.472 L150.944 116.227 L150.944 116.981 L150.944 117.736 L150.944 118.491 L150.944 119.246 L150.944 120 L150.944 120.755 L150.944 121.51 L150.944 122.265 L150.944 123.019 L150.944 123.774 L150.944 124.529 L150.944 125.283 L150.944 126.038 L150.944 126.793 L150.944 127.548 L150.944 128.302 L150.944 129.057 L150.944 129.812 L150.944 130.566 L150.944 131.321 L150.944 132.076 L150.944 132.831 L150.944 133.585 L150.944 134.34 L150.944 135.095 L150.944 135.849 L150.944 136.604 L150.944 137.359 L150.944 138.114 L150.944 138.868 L150.944 139.623 L150.944 140.378 L150.944 141.132 L150.944 141.887 L150.944 142.642 L150.944 143.397 L150.944 144.151 L150.944 144.906 L150.944 145.661 L150.944 146.416 L150.944 147.17 L150.944 147.925 L150.944 148.68 L150.944 149.434 L150.944 150.189 L150.944 150.944 L150.189 150.944 Z " />
<path stroke="rgb(0,0,0)" stroke-opacity="1" fill="rgb(200,200,200)" fill-opacity="1" d="M150.944 150.189 L150.944 149.434 L150.944 148.68 L150.944 147.925 L150.944 147.17 L150.944 146.416 L150.944 145.661 L150.944 144.906 L150.944 144.151 L150.944 143.397 L150.944 142.642 L150.944 141.887 L150.944 141.132 L150.944 140.378 L150.944 139.623 L150.944 138.868 L150.944 138.114 L150.944 137.359 L150.944 136.604 L150.944 135.849 L150.944 135.095 L150.944 134.34 L150.944 133.585 L150.944 132.831 L150.944 132.076 L150.944 131.321 L150.944 130.566 L150.944 129.812 L150.944 129.057 L150.944 128.302 L150.944 127.548 L150.944 126.793 L150.944 126.038 L150.944 125.283 L150.944 124.529 L150.944 123.774 L150.944 123.019 L150.944 122.265 L150.944 121.51 L150.944 120.755 L150.944 120 L150.944 119.246 L150.944 118.491 L150.944 117.736 L150.944 116.981 L150.944 116.227 L150.944 115.472 L150.944 114.717 L150.944 113.963 L150.944 113.208 L150.944 112.453 L150.944 111.698 L150.944 110.944 L150.944 110.189 L150.944 109.434 L150.944 108.68 L150.944 107.925 L150.944 107.17 L150.944 106.415 L150.944 105.661 L150.944 104.906 L150.944 104.151 L150.944 103.397 L150.944 102.642 L150.944 101.887 L150.944 101.132 L150.944 100.378 L150.944 99.6229 L150.944 98.8682 L150.944 98.1135 L150.944 97.3588 L150.944 96.6041 L150.944 95.8493 L150.944 95.0946 L150.944 94.3399 L150.944 93.5852 L150.944 92.8305 L150.944 92.0757 L150.944 91.321 L150.944 90.5663 L150.944 89.8116 L150.944 89.0569 L150.944 88.3021 L150.944 87.5474 L150.944 86.7927 L150.944 86.038 L150.944 85.2833 L150.944 84.5286 L150.944 83.7738 L150.944 83.0191 L150.944 82.2644 L150.944 81.5097 L150.944 80.755 L150.944 80.0002 L150.944 79.2455 L150.944 78.4908 L150.944 77.7361 L150.944 76.9814 L150.944 76.2266 L150.944 75.4719 L150.944 74.7172 L150.944 73.9625 L150.944 73.2078 L150.944 72.4531 L150.944 71.6983 L150.944 70.9436 L150.944 70.1889 L150.944 69.4342 L150.944 68.6795 L150.944 67.9247 L150.944 67.17 L150.944 66.4153 L150.944 65.6606 L150.944 64.9059 L150.944 64.1511 L150.944 63.3964 L150.944 62.6417 L150.944 61.887 L150.944 61.1323 L150.944 60.3775 L150.944 59.6228 L150.944 58.8681 L150.944 58.1134 L150.944 57.3587 L150.944 56.6039 L150.944 55.8492 L150.944 55.0945 L150.944 54.3398 L150.944 53.5851 L150.944 52.8304 L150.944 52.0756 L150.944 51.3209 L150.944 50.5662 L150.944 49.8115 L150.944 49.0568 L150.944 48.302 L150.944 47.5473 L150.944 46.7926 L150.944 46.0379 L150.944 45.2831 L150.944 44.5284 L150.944 43.7737 L150.944 43.019 L150.944 42.2643 L150.944 41.5096 L150.944 40.7548 L150.944 40.0001 L150.944 39.2454 L150.944 38.4907 L150.944 37.736 L150.944 36.9812 L150.944 36.2265 L150.944 35.4718 L150.944 34.7171 L150.944 33.9624 L150.944 33.2076 L150.944 32.4529 L150.944 31.6982 L150.944 30.9435 L150.944 30.1888 L150.944 29.434 L150.944 28.6793 L150.944 27.9246 L150.944 27.1699 L150.944 26.4152 L150.944 25.6605 L150.944 24.9057 L150.944 24.151 L150.944 23.3963 L150.944 22.6416 L150.944 21.8868 L150.944 21.1321 L150.944 20.3774 L150.944 19.6227 L150.944 18.868 L150.944 18.1133 L150.944 17.3585 L150.944 16.6038 L150.944 15.8491 L150.944 15.0944 L150.944 14.3397 L150.944 13.5849 L150.944 12.8302 L150.944 12.0755 L150.944 11.3208 L150.944 10.5661 L150.944 9.81134 L150.944 9.05663 L150.944 8.30191 L150.944 7.54719 L150.944 6.79247 L150.944 6.03775 L150.944 5.28303 L150.944 4.52831 L150.944 3.77359 L150.944 3.01887 L150.944 2.26415 L150.944 1.50943 L150.944 0.75471 L150.944 0 L150.189 0 L149.434 0 L148.68 0 L147.925 0 L147.17 0 L146.416 0 L145.661 0 L144.906 0 L144.151 0 L143.397 0 L142.642 0 L141.887 0 L141.132 0 L140.378 0 L139.623 0 L138.868 0 L138.114 0 L137.359 0 L136.604 0 L135.849 0 L135.095 0 L134.34 0 L133.585 0 L132.831 0 L132.076 0 L131.321 0 L130.566 0 L129.812 0 L129.057 0 L128.302 0 L127.548 0 L126.793 0 L126.038 0 L125.283 0 L124.529 0 L123.774 0 L123.019 0 L122.265 0 L121.51 0 L120.755 0 L120 0 L119.246 0 L118.491 0 L117.736 0 L116.981 0 L116.227 0 L115.472 0 L114.717 0 L113.963 0 L113.208 0 L112.453 0 L111.698 0 L110.944 0 L110.189 0 L109.434 0 L108.68 0 L107.925 0 L107.17 0 L106.415 0 L105.661 0 L104.906 0 L104.151 0 L103.397 0 L102.642 0 L101.887 0 L101.132 0 L100.378 0 L100 0 L100 -1 L100 -2 L100 -3 L100 -4 L100 -5 L100 -6 L100 -6.99999 L100 -8 L100 -8.99999 L100 -10 L100 -11 L100 -12 L100 -13 L100 -14 L100 -15 L100 -16 L100 -17 L100 -18 L100 -19 L100 -20 L100 -21 L100 -22 L100 -23 L100 -24 L100 -25 L100 -26 L100 -27 L100 -28 L100 -29 L100 -30 L100 -31 L100 -32 L100 -33 L100 -34 L100 -35 L100 -36 L100 -37 L100 -38 L100 -39 L100 -40 L100 -41 L100 -42 L100 -43 L100 -44 L100 -45 L100 -46 L100 -47 L100 -48 L100 -49 L100 -50 L100 -51 L100 -52 L100 -53 L100 -54 L100 -55 L100 -56 L100 -57 L100 -58 L100 -59 L100 -60 L100 -61 L100 -62 L100 -63 L100 -64 L100 -65 L100 -66 L100 -67 L100 -68 L100 -69 L100 -70 L100 -71 L100 -72 L100 -73 L100 -74 L100 -75 L100 -76 L100 -77 L100 -78 L100 -79 L100 -80 L100 -81 L100 -82 L100 -83 L100 -84 L100 -85 L100 -86 L100 -87 L100 -88 L100 -89 L100 -90 L100 -91 L100 -92 L100 -93 L100 -94 L100 -95 L100 -96 L100 -97 L100 -98 L100 -99 L100 -100 L99 -100 L98 -100 L97 -100 L96 -100 L95 -100 L94 -100 L93 -100 L92 -100 L91 -100 L90 -100 L89 -100 L88 -100 L87 -100 L86 -100 L85 -100 L84 -100 L83 -100 L82 -100 L81 -100 L80 -100 L79 -100 L78 -100 L77 -100 L76 -100 L75 -100 L74 -100 L73 -100 L72 -100 L71 -100 L70 -100 L69 -100 L68 -100 L67 -100 L66 -100 L65 -100 L64 -100 L63 -100 L62 -100 L61 -100 L60 -100 L59 -100 L58 -100 L57 -100 L56 -100 L55 -100 L54 -100 L53 -100 L52 -100 L51 -100 L50 -100 L49 -100 L48 -100 L47 -100 L46 -100 L45 -100 L44 -100 L43 -100 L42 -100 L41 -100 L40 -100 L39 -100 L38 -100 L37 -100 L36 -100 L35 -100 L34 -100 L33 -100 L32 -100 L31 -100 L30 -100 L29 -100 L28 -100 L27 -100 L26 -100 L25 -100 L24 -100 L23 -100 L22 -100 L21 -100 L20 -100 L19 -100 L18 -100 L17 -100 L16 -100 L15 -100 L14 -100 L13 -100 L12 -100 L11 -100 L10 -100 L9 -100 L8 -100 L7 -100 L6 -100 L5 -100 L4 -100 L3 -100 L2 -100 L1 -100 L0 -100 L-1 -100 L-2 -100 L-3 -100 L-4 -100 L-5 -100 L-6 -100 L-6.99999 -100 L-8 -100 L-8.99999 -100 L-10 -100 L-11 -100 L-12 -100 L-13 -100 L-14 -100 L-15 -100 L-16 -100 L-17 -100 L-18 -100 L-19 -100 L-20 -100 L-21 -100 L-22 -100 L-23 -100 L-24 -100 L-25 -100 L-26 -100 L-27 -100 L-28 -100 L-29 -100 L-30 -100 L-31 -100 L-32 -100 L-33 -100 L-34 -100 L-35 -100 L-36 -100 L-37 -100 L-38 -100 L-39 -100 L-40 -100 L-41 -100 L-42 -100 L-43 -100 L-44 -100 L-45 -100 L-46 -100 L-47 -100 L-48 -100 L-49 -100 L-50 -100 L-51 -100 L-52 -100 L-53 -100 L-54 -100 L-55 -100 L-56 -100 L-57 -100 L-58 -100 L-59 -100 L-60 -100 L-61 -100 L-62 -100 L-63 -100 L-64 -100 L-65 -100 L-66 -100 L-67 -100 L-68 -100 L-69 -100 L-70 -100 L-71 -100 L-72 -100 L-73 -100 L-74 -100 L-75 -100 L-76 -100 L-77 -100 L-78 -100 L-79 -100 L-80 -100 L-81 -100 L-82 -100 L-83 -100 L-84 -100 L-85 -100 L-86 -100 L-87 -100 L-88 -100 L-89 -100 L-90 -100 L-91 -100 L-92 -100 L-93 -100 L-94 -100 L-95 -100 L-96 -100 L-97 -100 L-98 -100 L-99 -100 L-100 -100 L-100 -99 L-100 -98 L-100 -97 L-100 -96 L-100 -95 L-100 -94 L-100 -93 L-100 -92 L-100 -91 L-100 -90 L-100 -89 L-100 -88 L-100 -87 L-100 -86 L-100 -85 L-100 -84 L-100 -83 L-100 -82 L-100 -81 L-100 -80 L-100 -79 L-100 -78 L-100 -77 L-100 -76 L-100 -75 L-100 -74 L-100 -73 L-100 -72 L-100 -71 L-100 -70 L-100 -69 L-100 -68 L-100 -67 L-100 -66 L-100 -65 L-100 -64 L-100 -63 L-100 -62 L-100 -61 L-100 -60 L-100 -59 L-100 -58 L-100 -57 L-100 -56 L-100 -55 L-100 -54 L-100 -53 L-100 -52 L-100 -51 L-100 -50 L-100 -49 L-100 -48 L-100 -47 L-100 -46 L-100 -45 L-100 -44 L-100 -43 L-100 -42 L-100 -41 L-100 -40 L-100 -39 L-100 -38 L-100 -37 L-100 -36 L-100 -35 L-100 -34 L-100 -33 L-100 -32 L-100 -31 L-100 -30 L-100 -29 L-100 -28 L-100 -27 L-100 -26 L-100 -25 L-100 -24 L-100 -23 L-100 -22 L-100 -21 L-100 -20 L-100 -19 L-100 -18 L-100 -17 L-100 -16 L-100 -15 L-100 -14 L-100 -13 L-100 -12 L-100 -11 L-100 -10 L-100 -9 L-100 -8 L-100 -7 L-100 -6 L-100 -5 L-100 -4 L-100 -3 L-100 -2 L-100 -1 L-100 0 L-100 1 L-100 2 L-100 3 L-100 4 L-100 5 L-100 6 L-100 6.99999 L-100 8 L-100 8.99999 L-100 10 L-100 11 L-100 12 L-100 13 L-100 14 L-100 15 L-100 16 L-100 17 L-100 18 L-100 19 L-100 20 L-100 21 L-100 22 L-100 23 L-100 24 L-100 25 L-100 26 L-100 27 L-100 28 L-100 29 L-100 30 L-100 31 L-100 32 L-100 33 L-100 34 L-100 35 L-100 36 L-100 37 L-100 38 L-100 39 L-100 40 L-100 41 L-100 42 L-100 43 L-100 44 L-100 45 L-100 46 L-100 47 L-100 48 L-100 49 L-100 50 L-100 51 L-100 52 L-100 53 L-100 54 L-100 55 L-100 56 L-100 57 L-100 58 L-100 59 L-100 60 L-100 61 L-100 62 L-100 63 L-100 64 L-100 65 L-100 66 L-100 67 L-100 68 L-100 69 L-100 70 L-100 71 L-100 72 L-100 73 L-100 74 L-100 75 L-100 76 L-100 77 L-100 78 L-100 79 L-100 80 L-100 81 L-100 82 L-100 83 L-100 84 L-100 85 L-100 86 L-100 87 L-100 88 L-100 89 L-100 90 L-100 91 L-100 92 L-100 93 L-100 94 L-100 95 L-100 96 L-100 97 L-100 98 L-100 99 L-100 100 L-99 100 L-98 100 L-97 100 L-96 100 L-95 100 L-94 100 L-93 100 L-92 100 L-91 100 L-90 100 L-89 100 L-88 100 L-87 100 L-86 100 L-85 100 L-84 100 L-83 100 L-82 100 L-81 100 L-80 100 L-79 100 L-78 100 L-77 100 L-76 100 L-75 100 L-74 100 L-73 100 L-72 100 L-71 100 L-70 100 L-69 100 L-68 100 L-67 100 L-66 100 L-65 100 L-64 100 L-63 100 L-62 100 L-61 100 L-60 100 L-59 100 L-58 100 L-57 100 L-56 100 L-55 100 L-54 100 L-53 100 L-52 100 L-51 100 L-50 100 L-49 100 L-48 100 L-47 100 L-46 100 L-45 100 L-44 100 L-43 100 L-42 100 L-41 100 L-40 100 L-39 100 L-38 100 L-37 100 L-36 100 L-35 100 L-34 100 L-33 100 L-32 100 L-31 100 L-30 100 L-29 100 L-28 100 L-27 100 L-26 100 L-25 100 L-24 100 L-23 100 L-22 100 L-21 100 L-20 100 L-19 100 L-18 100 L-17 100 L-16 100 L-15 100 L-14 100 L-13 100 L-12 100 L-11 100 L-10 100 L-9 100 L-8 100 L-7 100 L-6 100 L-5 100 L-4 100 L-3 100 L-2 100 L-1 100 L0 100 L0 100.378 L0 101.132 L0 101.887 L0 102.642 L0 103.397 L0 104.151 L0 104.906 L0 105.661 L0 106.415 L0 107.17 L0 107.925 L0 108.68 L0 109.434 L0 110.189 L0 110.944 L0 111.698 L0 112.453 L0 113.208 L0 113.963 L0 114.717 L0 115.472 L0 116.227 L0 116.981 L0 117.736 L0 118.491 L0 119.246 L0 120 L0 120.755 L0 121.51 L0 122.265 L0 123.019 L0 123.774 L0 124.529 L0 125.283 L0 126.038 L0 126.793 L0 127.548 L0 128.302 L0 129.057 L0 129.812 L0 130.566 L0 131.321 L0 132.076 L0 132.831 L0 133.585 L0 134.34 L0 135.095 L0 135.849 L0 136.604 L0 137.359 L0 138.114 L0 138.868 L0 139.623 L0 140.378 L0 141.132 L0 141.887 L0 142.642 L0 143.397 L0 144.151 L0 144.906 L0 145.661 L0 146.416 L0 147.17 L0 147.925 L0 148.68 L0 149.434 L0 150.189 L0 150.944 L0.75471 150.944 L1.50943 150.944 L2.26415 150.944 L3.01887 150.944 L3.77359 150.944 L4.52831 150.944 L5.28303 150.944 L6.03775 150.944 L6.79247 150.944 L7.54719 150.944 L8.30191 150.944 L9.05663 150.944 L9.81134 150.944 L10.5661 150.944 L11.3208 150.944 L12.0755 150.944 L12.8302 150.944 L13.5849 150.944 L14.3397 150.944 L15.0944 150.944 L15.8491 150.944 L16.6038 150.944 L17.3585 150.944 L18.1133 150.944 L18.868 150.944 L19.6227 150.944 L20.3774 150.944 L21.1321 150.944 L21.8868 150.944 L22.6416 150.944 L23.3963 150.944 L24.151 150.944 L24.9057 150.944 L25.6605 150.944 L26.4152 150.944 L27.1699 150.944 L27.9246 150.944 L28.6793 150.944 L29.434 150.944 L30.1888 150.944 L30.9435 150.944 L31.6982 150.944 L32.4529 150.944 L33.2076 150.944 L33.9624 150.944 L34.7171 150.944 L35.4718 150.944 L36.2265 150.944 L36.9812 150.944 L37.736 150.944 L38.4907 150.944 L39.2454 150.944 L40.0001 150.944 L40.7548 150.944 L41.5096 150.944 L42.2643 150.944 L43.019 150.944 L43.7737 150.944 L44.5284 150.944 L45.2831 150.944 L46.0379 150.944 L46.7926 150.944 L47.5473 150.944 L48.302 150.944 L49.0568 150.944 L49.8115 150.944 L50.5662 150.944 L51.3209 150.944 L52.0756 150.944 L52.8304 150.944 L53.5851 150.944 L54.3398 150.944 L55.0945 150.944 L55.8492 150.944 L56.6039 150.944 L57.3587 150.944 L58.1134 150.944 L58.8681 150.944 L59.6228 150.944 L60.3775 150.944 L61.1323 150.944 L61.887 150.944 L62.6417 150.944 L63.3964 150.944 L64.1511 150.944 L64.9059 150.944 L65.6606 150.944 L66.4153 150.944 L67.17 150.944 L67.9247 150.944 L68.6795 150.944 L69.4342 150.944 L70.1889 150.944 L70.9436 150.944 L71.6983 150.944 L72.4531 150.944 L73.2078 150.944 L73.9625 150.944 L74.7172 150.944 L75.4719 150.944 L76.2266 150.944 L76.9814 150.944 L77.7361 150.944 L78.4908 150.944 L79.2455 150.944 L80.0002 150.944 L80.755 150.944 L81.5097 150.944 L82.2644 150.944 L83.0191 150.944 L83.7738 150.944 L84.5286 150.944 L85.2833 150.944 L86.038 150.944 L86.7927 150.944 L87.5474 150.944 L88.3021 150.944 L89.0569 150.944 L89.8116 150.944 L90.5663 150.944 L91.321 150.944 L92.0757 150.944 L92.8305 150.944 L93.5852 150.944 L94.3399 150.944 L95.0946 150.944 L95.8493 150.944 L96.6041 150.944 L97.3588 150.944 L98.1135 150.944 L98.8682 150.944 L99.6229 150.944 L100.378 150.944 L101.132 150.944 L101.887 150.944 L102.642 150.944 L103.397 150.944 L104.151 150.944 L104.906 150.944 L105.661 150.944 L106.415 150.944 L107.17 150.944 L107.925 150.944 L108.68 150.944 L109.434 150.944 L110.189 150.944 L110.944 150.944 L111.698 150.944 L112.453 150.944 L113.208 150.944 L113.963 150.944 L114.717 150.944 L115.472 150.944 L116.227 150.944 L116.981 150.944 L117.736 150.944 L118.491 150.944 L119.246 150.944 L120 150.944 L120.755 150.944 L121.51 150.944 L122.265 150.944 L123.019 150.944 L123.774 150.944 L124.529 150.944 L125.283 150.944 L126.038 150.944 L126.793 150.944 L127.548 150.944 L128.302 150.944 L129.057 150.944 L129.812 150.944 L130.566 150.944 L131.321 150.944 L132.076 150.944 L132.831 150.944 L133.585 150.944 L134.34 150.944 L135.095 150.944 L135.849 150.944 L136.604 150.944 L137.359 150.944 L138.114 150.944 L138.868 150.944 L139.623 150.944 L140.378 150.944 L141.132 150.944 L141.887 150.944 L142.642 150.944 L143.397 150.944 L144.151 150.944 L144.906 150.944 L145.661 150.944 L146.416 150.944 L147.17 150.944 L147.925 150.944 L148.68 150.944 L149.434 150.944 L150.189 150.944 L150.944 150.944 L150.944 150.189 Z " />
<path stroke="rgb(0,0,0)" stroke-opacity="1" fill="rgb(200,200,200)" fill-opacity="1" d="M-16.8214 225.924 L-17.5307 225.22 L-18.24 224.515 L-18.9492 223.811 L-19.6585 223.106 L-20.3678 222.402 L-21.0771 221.697 L-21.7864 220.993 L-22.4957 220.288 L-23.2049 219.583 L-23.9142 218.879 L-24.6235 218.174 L-25.3328 217.47 L-26.0421 216.765 L-26.7514 216.061 L-27.4606 215.356 L-28.1699 214.652 L-28.8792 213.947 L-29.5885 213.243 L-30.2978 212.538 L-31.0071 211.833 L-31.7163 211.129 L-32.4256 210.424 L-33.1349 209.72 L-33.8442 209.015 L-34.5535 208.311 L-35.2628 207.606 L-35.972 206.902 L-36.6813 206.197 L-37.3906 205.493 L-38.0999 204.788 L-38.8092 204.084 L-39.5185 203.379 L-40.2277 202.674 L-40.937 201.97 L-41.6463 201.265 L-42.3556 200.561 L-43.0649 199.856 L-43.7742 199.152 L-44.4834 198.447 L-45.1927 197.743 L-45.902 197.038 L-46.6113 196.334 L-47.3206 195.629 L-48.0299 194.925 L-48.7392 194.22 L-49.4484 193.515 L-50.1577 192.811 L-50.867 192.106 L-51.5763 191.402 L-52.2856 190.697 L-52.9948 189.993 L-53.7041 189.288 L-54.4134 188.584 L-55.1227 187.879 L-55.832 187.175 L-56.5413 186.47 L-57.2505 185.765 L-57.9598 185.061 L-58.6691 184.356 L-59.3784 183.652 L-60.0877 182.947 L-60.797 182.243 L-61.5063 181.538 L-62.2155 180.834 L-62.9248 180.129 L-63.6341 179.425 L-64.3434 178.72 L-65.0527 178.016 L-65.7619 177.311 L-66.4712 176.606 L-67.1805 175.902 L-67.8898 175.197 L-68.5991 174.493 L-69.3084 173.788 L-70.0177 173.084 L-70.7269 172.379 L-71.4362 171.675 L-72.1455 170.97 L-72.8548 170.266 L-73.5641 169.561 L-74.2734 168.857 L-74.9826 168.152 L-75.6919 167.447 L-76.4012 166.743 L-77.1105 166.038 L-77.8198 165.334 L-78.5291 164.629 L-79.2383 163.925 L-79.9476 163.22 L-80.6569 162.516 L-81.3662 161.811 L-82.0755 161.107 L-82.7848 160.402 L-83.494 159.697 L-84.2033 158.993 L-84.9126 158.288 L-85.6219 157.584 L-86.3312 156.879 L-87.0405 156.175 L-87.7497 155.47 L-88.459 154.766 L-89.1683 154.061 L-89.8776 153.357 L-90.5869 152.652 L-91.2962 151.948 L-92.0054 151.243 L-92.7147 150.538 L-93.424 149.834 L-94.1333 149.129 L-94.8426 148.425 L-95.5519 147.72 L-96.2612 147.016 L-96.9704 146.311 L-97.6797 145.607 L-98.389 144.902 L-99.0983 144.198 L-99.8076 143.493 L-100.517 142.788 L-101.226 142.084 L-101.935 141.379 L-102.645 140.675 L-103.354 139.97 L-104.063 139.266 L-104.773 138.561 L-105.482 137.857 L-106.191 137.152 L-106.9 136.448 L-107.61 135.743 L-108.319 135.039 L-109.028 134.334 L-109.738 133.629 L-110.447 132.925 L-111.156 132.22 L-111.865 131.516 L-112.575 130.811 L-113.284 130.107 L-113.993 129.402 L-114.703 128.698 L-115.412 127.993 L-116.121 127.289 L-116.83 126.584 L-117.54 125.88 L-118.249 125.175 L-118.958 124.47 L-119.668 123.766 L-120.377 123.061 L-121.086 122.357 L-121.795 121.652 L-122.505 120.948 L-123.214 120.243 L-123.923 119.539 L-124.632 118.834 L-125.342 118.13 L-126.051 117.425 L-126.76 116.72 L-127.47 116.016 L-128.179 115.311 L-128.888 114.607 L-129.597 113.902 L-130.307 113.198 L-131.016 112.493 L-131.725 111.789 L-132.435 111.084 L-133.144 110.38 L-133.853 109.675 L-134.562 108.971 L-135.272 108.266 L-135.981 107.561 L-136.69 106.857 L-137.4 106.152 L-138.109 105.448 L-138.818 104.743 L-139.527 104.039 L-140.237 103.334 L-140.946 102.63 L-141.655 101.925 L-142.365 101.221 L-143.074 100.516 L-143.783 99.8115 L-144.492 99.107 L-145.202 98.4024 L-145.911 97.6979 L-146.62 96.9933 L-147.33 96.2888 L-148.039 95.5842 L-148.748 94.8797 L-149.457 94.1752 L-150.167 93.4706 L-150.876 92.7661 L-151.585 92.0615 L-152.295 91.357 L-153.004 90.6525 L-153.713 89.9479 L-154.422 89.2434 L-155.132 88.5388 L-155.841 87.8343 L-156.55 87.1298 L-157.26 86.4252 L-157.969 85.7207 L-158.678 85.0161 L-159.387 84.3116 L-160.097 83.6071 L-160.806 82.9025 L-161.515 82.198 L-162.225 81.4934 L-162.934 80.7889 L-163.643 80.0844 L-164.352 79.3798 L-165.062 78.6753 L-165.771 77.9707 L-166.48 77.2662 L-167.19 76.5617 L-167.899 75.8571 L-168.608 75.1526 L-169.317 74.448 L-170.027 73.7435 L-170.736 73.0389 L-171.445 72.3344 L-172.154 71.6299 L-172.864 70.9253 L-173.573 70.2208 L-174.282 69.5162 L-174.992 68.8117 L-175.701 68.1072 L-176.41 67.4026 L-177.119 66.6981 L-177.829 65.9935 L-178.538 65.289 L-179.247 64.5845 L-179.957 63.8799 L-180.666 63.1754 L-181.375 62.4708 L-182.084 61.7663 L-182.794 61.0618 L-183.503 60.3572 L-184.212 59.6527 L-184.922 58.9481 L-185.631 58.2436 L-186.34 57.5391 L-187.049 56.8345 L-187.759 56.13 L-188.468 55.4254 L-189.177 54.7209 L-189.887 54.0163 L-190.596 53.3118 L-191.305 52.6073 L-192.014 51.9027 L-192.724 51.1982 L-193.433 50.4936 L-194.142 49.7891 L-194.852 49.0846 L-195.561 48.38 L-196.27 47.6755 L-196.979 46.9709 L-197.689 46.2664 L-198.398 45.5618 L-199.107 44.8573 L-199.817 44.1528 L-200.526 43.4482 L-201.235 42.7437 L-201.944 42.0391 L-202.654 41.3346 L-203.363 40.6301 L-204.072 39.9255 L-204.782 39.221 L-205.491 38.5164 L-206.2 37.8119 L-206.909 37.1074 L-207.619 36.4028 L-208.328 35.6983 L-209.037 34.9937 L-209.747 34.2892 L-210.456 33.5847 L-211.165 32.8801 L-211.874 32.1756 L-212.584 31.471 L-213.293 30.7665 L-214.002 30.0619 L-214.712 29.3574 L-215.421 28.6529 L-216.13 27.9483 L-216.839 27.2438 L-217.549 26.5392 L-218.258 25.8347 L-218.967 25.1302 L-219.676 24.4256 L-220.386 23.7211 L-221.095 23.0165 L-221.804 22.312 L-222.514 21.6075 L-223.223 20.9029 L-223.932 20.1984 L-224.641 19.4938 L-225.351 18.7893 L-226.06 18.0848 L-226.416 17.7314 L-226.416 17.7314 L-16.3266 226.416 L-16.3266 226.416 L-16.8214 225.924 Z " />
</g>
</g>
</svg>
