<?xml version="1.0" encoding="utf-8"?>
<!-- Generator: Adobe Illustrator 21.0.0, SVG Export Plug-In . SVG Version: 6.00 Build 0)  -->
<svg version="1.1" id="Layer_1" xmlns="http://www.w3.org/2000/svg" xmlns:xlink="http://www.w3.org/1999/xlink" x="0px" y="0px"
	 viewBox="0 0 504 180" style="enable-background:new 0 0 504 180;" xml:space="preserve">
<style type="text/css">
	.st0{fill:#FFFFFF;stroke:#000000;stroke-miterlimit:10;}
	.st1{fill:#FFFFFF;stroke:#000000;stroke-width:0.9074;stroke-miterlimit:10;}
	.st2{fill:#FFFFFF;stroke:#000000;stroke-width:0.9231;stroke-miterlimit:10;}
</style>
<g>
	<g>
		<rect id="scalebar" x="103.8" y="12.6" class="st0" width="8.2" height="25.2"/>
		<rect id="scaleslider" x="100.8" y="22.7" class="st0" width="14.2" height="5.2"/>
	</g>
	<g>
		<polygon id="tranbar" class="st0" points="58.3,21.1 66.6,21.1 66.6,12.8 74.9,12.8 74.9,21.1 83.2,21.1 83.2,29.4 74.9,29.4 
			74.9,37.7 66.6,37.7 66.6,29.4 58.3,29.4 		"/>
		<rect id="translider" x="68.2" y="22.7" class="st0" width="5.1" height="5.1"/>
	</g>
	<g>
		<polygon id="rotate" class="st1" points="140.1,33.6 135.3,25.2 140.1,16.9 149.8,16.9 154.6,25.2 149.8,33.6 		"/>
	</g>
</g>
<g>
	<polygon id="tri_0" class="st2" points="102.4,61.7 107.4,53 112.4,61.7 	"/>
	<polygon id="tri_0_18_" class="st0" points="97.5,70.3 102.4,61.7 107.4,70.3 	"/>
	<polygon id="tri_1_16_" class="st0" points="107.4,70.3 112.4,61.7 117.4,70.3 	"/>
	<polygon id="tri_0_17_" class="st0" points="112.4,61.7 107.4,70.3 102.4,61.7 	"/>
	<polygon id="tri_0_16_" class="st0" points="92.5,79 97.5,70.3 102.5,79 	"/>
	<polygon id="tri_1_15_" class="st0" points="102.5,79 107.4,70.3 112.4,78.9 	"/>
	<polygon id="tri_0_15_" class="st0" points="107.4,70.3 102.5,79 97.5,70.3 	"/>
	<polygon id="tri_2_14_" class="st0" points="112.4,78.9 117.4,70.3 122.4,78.9 	"/>
	<polygon id="tri_1_14_" class="st0" points="117.4,70.3 112.4,78.9 107.4,70.3 	"/>
	<polygon id="tri_0_14_" class="st0" points="87.5,87.6 92.5,79 97.5,87.6 	"/>
	<polygon id="tri_1_13_" class="st0" points="97.5,87.6 102.5,79 107.5,87.6 	"/>
	<polygon id="tri_0_13_" class="st0" points="102.5,79 97.5,87.6 92.5,79 	"/>
	<polygon id="tri_2_13_" class="st0" points="107.5,87.6 112.4,78.9 117.4,87.6 	"/>
	<polygon id="tri_1_12_" class="st0" points="112.4,78.9 107.5,87.6 102.5,79 	"/>
	<polygon id="tri_3_12_" class="st0" points="117.4,87.6 122.4,78.9 127.4,87.6 	"/>
	<polygon id="tri_2_12_" class="st0" points="122.4,78.9 117.4,87.6 112.4,78.9 	"/>
	<polygon id="tri_0_12_" class="st0" points="82.5,96.3 87.5,87.6 92.5,96.3 	"/>
	<polygon id="tri_1_11_" class="st0" points="92.5,96.3 97.5,87.6 102.5,96.2 	"/>
	<polygon id="tri_0_11_" class="st0" points="97.5,87.6 92.5,96.3 87.5,87.6 	"/>
	<polygon id="tri_2_11_" class="st0" points="102.5,96.2 107.5,87.6 112.5,96.2 	"/>
	<polygon id="tri_1_10_" class="st0" points="107.5,87.6 102.5,96.2 97.5,87.6 	"/>
	<polygon id="tri_3_11_" class="st0" points="112.5,96.2 117.4,87.6 122.4,96.2 	"/>
	<polygon id="tri_2_10_" class="st0" points="117.4,87.6 112.5,96.2 107.5,87.6 	"/>
	<polygon id="tri_4_10_" class="st0" points="122.4,96.2 127.4,87.6 132.4,96.2 	"/>
	<polygon id="tri_3_10_" class="st0" points="127.4,87.6 122.4,96.2 117.4,87.6 	"/>
	<polygon id="tri_0_10_" class="st0" points="77.6,104.9 82.5,96.3 87.5,104.9 	"/>
	<polygon id="tri_1_9_" class="st0" points="87.5,104.9 92.5,96.3 97.5,104.9 	"/>
	<polygon id="tri_0_9_" class="st0" points="92.5,96.3 87.5,104.9 82.5,96.3 	"/>
	<polygon id="tri_2_9_" class="st0" points="97.5,104.9 102.5,96.2 107.5,104.9 	"/>
	<polygon id="tri_1_8_" class="st0" points="102.5,96.2 97.5,104.9 92.5,96.3 	"/>
	<polygon id="tri_3_9_" class="st0" points="107.5,104.9 112.5,96.2 117.5,104.9 	"/>
	<polygon id="tri_2_8_" class="st0" points="112.5,96.2 107.5,104.9 102.5,96.2 	"/>
	<polygon id="tri_4_9_" class="st0" points="117.5,104.9 122.4,96.2 127.4,104.8 	"/>
	<polygon id="tri_3_8_" class="st0" points="122.4,96.2 117.5,104.9 112.5,96.2 	"/>
	<polygon id="tri_5_8_" class="st0" points="127.4,104.8 132.4,96.2 137.4,104.8 	"/>
	<polygon id="tri_4_8_" class="st0" points="132.4,96.2 127.4,104.8 122.4,96.2 	"/>
	<polygon id="tri_0_8_" class="st0" points="72.6,113.6 77.6,104.9 82.6,113.6 	"/>
	<polygon id="tri_1_7_" class="st0" points="82.6,113.6 87.5,104.9 92.5,113.5 	"/>
	<polygon id="tri_0_7_" class="st0" points="87.5,104.9 82.6,113.6 77.6,104.9 	"/>
	<polygon id="tri_2_7_" class="st0" points="92.5,113.5 97.5,104.9 102.5,113.5 	"/>
	<polygon id="tri_1_6_" class="st0" points="97.5,104.9 92.5,113.5 87.5,104.9 	"/>
	<polygon id="tri_3_7_" class="st0" points="102.5,113.5 107.5,104.9 112.5,113.5 	"/>
	<polygon id="tri_2_6_" class="st0" points="107.5,104.9 102.5,113.5 97.5,104.9 	"/>
	<polygon id="tri_4_7_" class="st0" points="112.5,113.5 117.5,104.9 122.5,113.5 	"/>
	<polygon id="tri_3_6_" class="st0" points="117.5,104.9 112.5,113.5 107.5,104.9 	"/>
	<polygon id="tri_5_7_" class="st0" points="122.5,113.5 127.4,104.8 132.4,113.5 	"/>
	<polygon id="tri_4_6_" class="st0" points="127.4,104.8 122.5,113.5 117.5,104.9 	"/>
	<polygon id="tri_6_6_" class="st0" points="132.4,113.5 137.4,104.8 142.4,113.5 	"/>
	<polygon id="tri_5_6_" class="st0" points="137.4,104.8 132.4,113.5 127.4,104.8 	"/>
	<polygon id="tri_0_6_" class="st0" points="67.6,122.2 72.6,113.6 77.6,122.2 	"/>
	<polygon id="tri_1_5_" class="st0" points="77.6,122.2 82.6,113.6 87.6,122.2 	"/>
	<polygon id="tri_0_5_" class="st0" points="82.6,113.6 77.6,122.2 72.6,113.6 	"/>
	<polygon id="tri_2_5_" class="st0" points="87.6,122.2 92.5,113.5 97.5,122.2 	"/>
	<polygon id="tri_1_4_" class="st0" points="92.5,113.5 87.6,122.2 82.6,113.6 	"/>
	<polygon id="tri_3_5_" class="st0" points="97.5,122.2 102.5,113.5 107.5,122.2 	"/>
	<polygon id="tri_2_4_" class="st0" points="102.5,113.5 97.5,122.2 92.5,113.5 	"/>
	<polygon id="tri_4_5_" class="st0" points="107.5,122.2 112.5,113.5 117.5,122.1 	"/>
	<polygon id="tri_3_4_" class="st0" points="112.5,113.5 107.5,122.2 102.5,113.5 	"/>
	<polygon id="tri_5_5_" class="st0" points="117.5,122.1 122.5,113.5 127.5,122.1 	"/>
	<polygon id="tri_4_4_" class="st0" points="122.5,113.5 117.5,122.1 112.5,113.5 	"/>
	<polygon id="tri_6_5_" class="st0" points="127.5,122.1 132.4,113.5 137.4,122.1 	"/>
	<polygon id="tri_5_4_" class="st0" points="132.4,113.5 127.5,122.1 122.5,113.5 	"/>
	<polygon id="tri_7_4_" class="st0" points="137.4,122.1 142.4,113.5 147.4,122.1 	"/>
	<polygon id="tri_6_4_" class="st0" points="142.4,113.5 137.4,122.1 132.4,113.5 	"/>
	<polygon id="tri_0_4_" class="st0" points="62.6,130.9 67.6,122.2 72.6,130.9 	"/>
	<polygon id="tri_1_3_" class="st0" points="72.6,130.9 77.6,122.2 82.6,130.8 	"/>
	<polygon id="tri_0_3_" class="st0" points="77.6,122.2 72.6,130.9 67.6,122.2 	"/>
	<polygon id="tri_2_3_" class="st0" points="82.6,130.8 87.6,122.2 92.6,130.8 	"/>
	<polygon id="tri_1_2_" class="st0" points="87.6,122.2 82.6,130.8 77.6,122.2 	"/>
	<polygon id="tri_3_3_" class="st0" points="92.6,130.8 97.5,122.2 102.5,130.8 	"/>
	<polygon id="tri_2_2_" class="st0" points="97.5,122.2 92.6,130.8 87.6,122.2 	"/>
	<polygon id="tri_4_3_" class="st0" points="102.5,130.8 107.5,122.2 112.5,130.8 	"/>
	<polygon id="tri_3_2_" class="st0" points="107.5,122.2 102.5,130.8 97.5,122.2 	"/>
	<polygon id="tri_5_3_" class="st0" points="112.5,130.8 117.5,122.1 122.5,130.8 	"/>
	<polygon id="tri_4_2_" class="st0" points="117.5,122.1 112.5,130.8 107.5,122.2 	"/>
	<polygon id="tri_6_3_" class="st0" points="122.5,130.8 127.5,122.1 132.5,130.8 	"/>
	<polygon id="tri_5_2_" class="st0" points="127.5,122.1 122.5,130.8 117.5,122.1 	"/>
	<polygon id="tri_7_3_" class="st0" points="132.5,130.8 137.4,122.1 142.4,130.7 	"/>
	<polygon id="tri_6_2_" class="st0" points="137.4,122.1 132.5,130.8 127.5,122.1 	"/>
	<polygon id="tri_8_2_" class="st0" points="142.4,130.7 147.4,122.1 152.4,130.7 	"/>
	<polygon id="tri_7_2_" class="st0" points="147.4,122.1 142.4,130.7 137.4,122.1 	"/>
	<polygon id="tri_0_2_" class="st0" points="57.7,139.5 62.6,130.9 67.6,139.5 	"/>
	<polygon id="tri_1_1_" class="st0" points="67.6,139.5 72.6,130.9 77.6,139.5 	"/>
	<polygon id="tri_0_1_" class="st0" points="72.6,130.9 67.6,139.5 62.6,130.9 	"/>
	<polygon id="tri_2_1_" class="st0" points="77.6,139.5 82.6,130.8 87.6,139.5 	"/>
	<polygon id="tri_1" class="st0" points="82.6,130.8 77.6,139.5 72.6,130.9 	"/>
	<polygon id="tri_3_1_" class="st0" points="87.6,139.5 92.6,130.8 97.6,139.5 	"/>
	<polygon id="tri_2" class="st0" points="92.6,130.8 87.6,139.5 82.6,130.8 	"/>
	<polygon id="tri_4_1_" class="st0" points="97.6,139.5 102.5,130.8 107.5,139.4 	"/>
	<polygon id="tri_3" class="st0" points="102.5,130.8 97.6,139.5 92.6,130.8 	"/>
	<polygon id="tri_5_1_" class="st0" points="107.5,139.4 112.5,130.8 117.5,139.4 	"/>
	<polygon id="tri_4" class="st0" points="112.5,130.8 107.5,139.4 102.5,130.8 	"/>
	<polygon id="tri_6_1_" class="st0" points="117.5,139.4 122.5,130.8 127.5,139.4 	"/>
	<polygon id="tri_5" class="st0" points="122.5,130.8 117.5,139.4 112.5,130.8 	"/>
	<polygon id="tri_7_1_" class="st0" points="127.5,139.4 132.5,130.8 137.5,139.4 	"/>
	<polygon id="tri_6" class="st0" points="132.5,130.8 127.5,139.4 122.5,130.8 	"/>
	<polygon id="tri_8_1_" class="st0" points="137.5,139.4 142.4,130.7 147.4,139.4 	"/>
	<polygon id="tri_7" class="st0" points="142.4,130.7 137.5,139.4 132.5,130.8 	"/>
	<polygon id="tri_9" class="st0" points="147.4,139.4 152.4,130.7 157.4,139.4 	"/>
	<polygon id="tri_8" class="st0" points="152.4,130.7 147.4,139.4 142.4,130.7 	"/>
</g>
</svg>
